<MIDI midiNo="2023_01_05-14_44_48"><target_notes><notes name="Note List">[{"pitch": 39, "velocity": 100, "note_on_time": 0.004, "note_off_time": 0.718}, {"pitch": 42, "velocity": 100, "note_on_time": 0.719, "note_off_time": 1.431}, {"pitch": 42, "velocity": 100, "note_on_time": 1.431, "note_off_time": 2.145}, {"pitch": 42, "velocity": 100, "note_on_time": 2.146, "note_off_time": 2.857}, {"pitch": 39, "velocity": 100, "note_on_time": 2.858, "note_off_time": 3.572}, {"pitch": 60, "velocity": 100, "note_on_time": 2.857, "note_off_time": 4.286}, {"pitch": 42, "velocity": 100, "note_on_time": 3.572, "note_off_time": 4.286}, {"pitch": 42, "velocity": 100, "note_on_time": 4.287, "note_off_time": 4.998}, {"pitch": 60, "velocity": 100, "note_on_time": 4.286, "note_off_time": 5.714}, {"pitch": 42, "velocity": 100, "note_on_time": 4.998, "note_off_time": 5.714}, {"pitch": 39, "velocity": 100, "note_on_time": 5.714, "note_off_time": 6.43}, {"pitch": 64, "velocity": 100, "note_on_time": 5.714, "note_off_time": 7.144}, {"pitch": 42, "velocity": 100, "note_on_time": 6.43, "note_off_time": 7.144}, {"pitch": 42, "velocity": 100, "note_on_time": 7.144, "note_off_time": 7.857}, {"pitch": 64, "velocity": 100, "note_on_time": 7.144, "note_off_time": 8.571}, {"pitch": 42, "velocity": 100, "note_on_time": 7.857, "note_off_time": 8.571}, {"pitch": 39, "velocity": 100, "note_on_time": 8.571, "note_off_time": 9.287}, {"pitch": 60, "velocity": 100, "note_on_time": 8.571, "note_off_time": 9.999}, {"pitch": 42, "velocity": 100, "note_on_time": 9.287, "note_off_time": 9.999}, {"pitch": 42, "velocity": 100, "note_on_time": 9.999, "note_off_time": 10.714}, {"pitch": 60, "velocity": 100, "note_on_time": 9.999, "note_off_time": 11.428}, {"pitch": 42, "velocity": 100, "note_on_time": 10.715, "note_off_time": 11.428}, {"pitch": 39, "velocity": 100, "note_on_time": 11.429, "note_off_time": 12.147}, {"pitch": 64, "velocity": 100, "note_on_time": 11.428, "note_off_time": 12.861}, {"pitch": 42, "velocity": 100, "note_on_time": 12.147, "note_off_time": 12.861}, {"pitch": 42, "velocity": 100, "note_on_time": 12.861, "note_off_time": 13.575}, {"pitch": 64, "velocity": 100, "note_on_time": 12.861, "note_off_time": 14.292}, {"pitch": 42, "velocity": 100, "note_on_time": 13.576, "note_off_time": 14.292}, {"pitch": 39, "velocity": 100, "note_on_time": 14.293, "note_off_time": 15.005}, {"pitch": 67, "velocity": 100, "note_on_time": 14.292, "note_off_time": 15.722}, {"pitch": 42, "velocity": 100, "note_on_time": 15.005, "note_off_time": 15.722}, {"pitch": 42, "velocity": 100, "note_on_time": 15.723, "note_off_time": 16.433}, {"pitch": 67, "velocity": 100, "note_on_time": 15.722, "note_off_time": 17.148}, {"pitch": 42, "velocity": 100, "note_on_time": 16.434, "note_off_time": 17.148}, {"pitch": 39, "velocity": 100, "note_on_time": 17.148, "note_off_time": 17.863}, {"pitch": 64, "velocity": 100, "note_on_time": 17.148, "note_off_time": 18.575}, {"pitch": 42, "velocity": 100, "note_on_time": 17.863, "note_off_time": 18.575}, {"pitch": 42, "velocity": 100, "note_on_time": 18.576, "note_off_time": 19.29}, {"pitch": 64, "velocity": 100, "note_on_time": 18.575, "note_off_time": 20.002}, {"pitch": 42, "velocity": 100, "note_on_time": 19.29, "note_off_time": 20.002}, {"pitch": 39, "velocity": 100, "note_on_time": 20.003, "note_off_time": 20.715}, {"pitch": 60, "velocity": 100, "note_on_time": 20.002, "note_off_time": 21.425}, {"pitch": 42, "velocity": 100, "note_on_time": 20.715, "note_off_time": 21.425}, {"pitch": 42, "velocity": 100, "note_on_time": 21.425, "note_off_time": 22.139}, {"pitch": 60, "velocity": 100, "note_on_time": 21.425, "note_off_time": 22.851}, {"pitch": 42, "velocity": 100, "note_on_time": 22.139, "note_off_time": 22.851}, {"pitch": 39, "velocity": 100, "note_on_time": 22.851, "note_off_time": 23.563}, {"pitch": 42, "velocity": 100, "note_on_time": 23.564, "note_off_time": 24.277}, {"pitch": 42, "velocity": 100, "note_on_time": 24.278, "note_off_time": 24.992}, {"pitch": 60, "velocity": 100, "note_on_time": 22.851, "note_off_time": 25.702}, {"pitch": 42, "velocity": 100, "note_on_time": 24.993, "note_off_time": 25.702}]</notes><options name="Option List">((4, 4), [0.5, 0.25], 3, 7, &lt;NoteRangePerHand.TWO_NOTES: 3&gt;, &lt;NoteRangePerHand.ONE_NOTE: 2&gt;, False, True, True, None)</options></target_notes><trials><trial trial_no="1" timestamp="2023_01_05-14_44_48"><notes name="Played Notes">[{"pitch": 60, "velocity": 78, "note_on_time": 2.888, "note_off_time": 4.022}, {"pitch": 60, "velocity": 78, "note_on_time": 4.233, "note_off_time": 5.684}, {"pitch": 64, "velocity": 78, "note_on_time": 5.673, "note_off_time": 6.969}, {"pitch": 64, "velocity": 77, "note_on_time": 7.106, "note_off_time": 8.61}, {"pitch": 60, "velocity": 85, "note_on_time": 8.577, "note_off_time": 9.786}, {"pitch": 60, "velocity": 87, "note_on_time": 9.994, "note_off_time": 11.454}, {"pitch": 64, "velocity": 80, "note_on_time": 11.411, "note_off_time": 12.666}, {"pitch": 64, "velocity": 70, "note_on_time": 12.818, "note_off_time": 14.304}, {"pitch": 67, "velocity": 72, "note_on_time": 14.299, "note_off_time": 15.484}, {"pitch": 67, "velocity": 74, "note_on_time": 15.707, "note_off_time": 17.154}, {"pitch": 64, "velocity": 74, "note_on_time": 17.124, "note_off_time": 18.337}, {"pitch": 64, "velocity": 77, "note_on_time": 18.494, "note_off_time": 19.976}, {"pitch": 60, "velocity": 77, "note_on_time": 19.958, "note_off_time": 21.182}, {"pitch": 60, "velocity": 75, "note_on_time": 21.359, "note_off_time": 22.487}]</notes><guidance name="Guidance Mode">None</guidance><error name="Error value">0.3318334952380946</error></trial></trials></MIDI>