<MIDI midiNo="2023_01_05-15_04_14"><target_notes><notes name="Note List">[{"pitch": 39, "velocity": 100, "note_on_time": 0.004, "note_off_time": 0.721}, {"pitch": 42, "velocity": 100, "note_on_time": 0.721, "note_off_time": 1.434}, {"pitch": 42, "velocity": 100, "note_on_time": 1.434, "note_off_time": 2.151}, {"pitch": 39, "velocity": 100, "note_on_time": 2.151, "note_off_time": 2.864}, {"pitch": 42, "velocity": 100, "note_on_time": 2.864, "note_off_time": 3.576}, {"pitch": 67, "velocity": 100, "note_on_time": 3.576, "note_off_time": 3.932}, {"pitch": 67, "velocity": 100, "note_on_time": 3.932, "note_off_time": 4.29}, {"pitch": 42, "velocity": 100, "note_on_time": 3.577, "note_off_time": 4.291}, {"pitch": 69, "velocity": 100, "note_on_time": 4.29, "note_off_time": 5.003}, {"pitch": 39, "velocity": 100, "note_on_time": 4.291, "note_off_time": 5.003}, {"pitch": 67, "velocity": 100, "note_on_time": 5.003, "note_off_time": 5.714}, {"pitch": 42, "velocity": 100, "note_on_time": 5.003, "note_off_time": 5.714}, {"pitch": 72, "velocity": 100, "note_on_time": 5.714, "note_off_time": 6.425}, {"pitch": 42, "velocity": 100, "note_on_time": 5.715, "note_off_time": 6.425}, {"pitch": 39, "velocity": 100, "note_on_time": 6.425, "note_off_time": 7.142}, {"pitch": 71, "velocity": 100, "note_on_time": 6.425, "note_off_time": 7.855}, {"pitch": 42, "velocity": 100, "note_on_time": 7.142, "note_off_time": 7.855}, {"pitch": 67, "velocity": 100, "note_on_time": 7.855, "note_off_time": 8.215}, {"pitch": 67, "velocity": 100, "note_on_time": 8.215, "note_off_time": 8.573}, {"pitch": 42, "velocity": 100, "note_on_time": 7.855, "note_off_time": 8.573}, {"pitch": 69, "velocity": 100, "note_on_time": 8.573, "note_off_time": 9.287}, {"pitch": 39, "velocity": 100, "note_on_time": 8.573, "note_off_time": 9.287}, {"pitch": 67, "velocity": 100, "note_on_time": 9.287, "note_off_time": 10.001}, {"pitch": 42, "velocity": 100, "note_on_time": 9.288, "note_off_time": 10.001}, {"pitch": 74, "velocity": 100, "note_on_time": 10.001, "note_off_time": 10.713}, {"pitch": 42, "velocity": 100, "note_on_time": 10.001, "note_off_time": 10.713}, {"pitch": 39, "velocity": 100, "note_on_time": 10.713, "note_off_time": 11.429}, {"pitch": 72, "velocity": 100, "note_on_time": 10.713, "note_off_time": 12.146}, {"pitch": 42, "velocity": 100, "note_on_time": 11.429, "note_off_time": 12.146}, {"pitch": 67, "velocity": 100, "note_on_time": 12.146, "note_off_time": 12.503}, {"pitch": 67, "velocity": 100, "note_on_time": 12.503, "note_off_time": 12.858}, {"pitch": 42, "velocity": 100, "note_on_time": 12.146, "note_off_time": 12.858}, {"pitch": 79, "velocity": 100, "note_on_time": 12.858, "note_off_time": 13.574}, {"pitch": 39, "velocity": 100, "note_on_time": 12.858, "note_off_time": 13.574}, {"pitch": 76, "velocity": 100, "note_on_time": 13.574, "note_off_time": 14.287}, {"pitch": 42, "velocity": 100, "note_on_time": 13.574, "note_off_time": 14.287}, {"pitch": 72, "velocity": 100, "note_on_time": 14.287, "note_off_time": 15.002}, {"pitch": 42, "velocity": 100, "note_on_time": 14.288, "note_off_time": 15.002}, {"pitch": 71, "velocity": 100, "note_on_time": 15.002, "note_off_time": 15.716}, {"pitch": 39, "velocity": 100, "note_on_time": 15.003, "note_off_time": 15.716}, {"pitch": 69, "velocity": 100, "note_on_time": 15.716, "note_off_time": 16.431}, {"pitch": 42, "velocity": 100, "note_on_time": 15.716, "note_off_time": 16.432}, {"pitch": 77, "velocity": 100, "note_on_time": 16.431, "note_off_time": 16.789}, {"pitch": 77, "velocity": 100, "note_on_time": 16.789, "note_off_time": 17.143}, {"pitch": 42, "velocity": 100, "note_on_time": 16.432, "note_off_time": 17.143}, {"pitch": 76, "velocity": 100, "note_on_time": 17.143, "note_off_time": 17.856}, {"pitch": 39, "velocity": 100, "note_on_time": 17.144, "note_off_time": 17.856}, {"pitch": 72, "velocity": 100, "note_on_time": 17.856, "note_off_time": 18.572}, {"pitch": 42, "velocity": 100, "note_on_time": 17.857, "note_off_time": 18.572}, {"pitch": 74, "velocity": 100, "note_on_time": 18.572, "note_off_time": 19.291}, {"pitch": 42, "velocity": 100, "note_on_time": 18.572, "note_off_time": 19.291}, {"pitch": 39, "velocity": 100, "note_on_time": 19.291, "note_off_time": 20.002}, {"pitch": 72, "velocity": 100, "note_on_time": 19.291, "note_off_time": 20.715}, {"pitch": 42, "velocity": 100, "note_on_time": 20.003, "note_off_time": 20.715}, {"pitch": 42, "velocity": 100, "note_on_time": 20.716, "note_off_time": 21.425}]</notes><options name="Option List">((4, 4), [0.5, 0.25], 3, 7, &lt;NoteRangePerHand.TWO_NOTES: 3&gt;, &lt;NoteRangePerHand.ONE_NOTE: 2&gt;, False, True, True, None)</options></target_notes><trials><trial trial_no="1" timestamp="2023_01_05-15_04_14"><notes name="Played Notes">[{"pitch": 67, "velocity": 84, "note_on_time": 3.567, "note_off_time": 3.763}, {"pitch": 67, "velocity": 74, "note_on_time": 3.897, "note_off_time": 4.269}, {"pitch": 69, "velocity": 97, "note_on_time": 4.265, "note_off_time": 4.971}, {"pitch": 67, "velocity": 83, "note_on_time": 4.956, "note_off_time": 5.707}, {"pitch": 72, "velocity": 87, "note_on_time": 5.682, "note_off_time": 6.438}, {"pitch": 71, "velocity": 92, "note_on_time": 6.391, "note_off_time": 7.912}, {"pitch": 67, "velocity": 86, "note_on_time": 7.874, "note_off_time": 8.058}, {"pitch": 67, "velocity": 84, "note_on_time": 8.206, "note_off_time": 8.563}, {"pitch": 69, "velocity": 86, "note_on_time": 8.558, "note_off_time": 9.258}, {"pitch": 67, "velocity": 77, "note_on_time": 9.228, "note_off_time": 9.99}, {"pitch": 74, "velocity": 90, "note_on_time": 9.943, "note_off_time": 10.698}, {"pitch": 72, "velocity": 91, "note_on_time": 10.658, "note_off_time": 11.93}, {"pitch": 67, "velocity": 77, "note_on_time": 12.101, "note_off_time": 12.326}, {"pitch": 67, "velocity": 60, "note_on_time": 12.451, "note_off_time": 12.856}, {"pitch": 79, "velocity": 97, "note_on_time": 12.85, "note_off_time": 13.614}, {"pitch": 76, "velocity": 88, "note_on_time": 13.543, "note_off_time": 14.319}, {"pitch": 72, "velocity": 51, "note_on_time": 14.296, "note_off_time": 15.004}, {"pitch": 71, "velocity": 96, "note_on_time": 14.948, "note_off_time": 15.693}, {"pitch": 69, "velocity": 81, "note_on_time": 15.666, "note_off_time": 16.358}, {"pitch": 77, "velocity": 89, "note_on_time": 16.362, "note_off_time": 16.558}, {"pitch": 77, "velocity": 94, "note_on_time": 16.715, "note_off_time": 17.133}, {"pitch": 76, "velocity": 95, "note_on_time": 17.08, "note_off_time": 17.838}, {"pitch": 72, "velocity": 83, "note_on_time": 17.794, "note_off_time": 18.587}, {"pitch": 74, "velocity": 91, "note_on_time": 18.576, "note_off_time": 19.285}]</notes><guidance name="Guidance Mode">None</guidance><error name="Error value">0.16522634030303038</error></trial></trials></MIDI>