<MIDI midiNo="2023_01_05-15_14_03"><target_notes><notes name="Note List">[{"pitch": 39, "velocity": 100, "note_on_time": 0.005, "note_off_time": 0.716}, {"pitch": 42, "velocity": 100, "note_on_time": 0.717, "note_off_time": 1.43}, {"pitch": 42, "velocity": 100, "note_on_time": 1.431, "note_off_time": 2.144}, {"pitch": 42, "velocity": 100, "note_on_time": 2.144, "note_off_time": 2.861}, {"pitch": 39, "velocity": 100, "note_on_time": 2.861, "note_off_time": 3.574}, {"pitch": 42, "velocity": 100, "note_on_time": 3.574, "note_off_time": 4.29}, {"pitch": 42, "velocity": 100, "note_on_time": 4.29, "note_off_time": 5.0}, {"pitch": 67, "velocity": 100, "note_on_time": 5.355, "note_off_time": 5.711}, {"pitch": 42, "velocity": 100, "note_on_time": 5.001, "note_off_time": 5.712}, {"pitch": 74, "velocity": 100, "note_on_time": 5.711, "note_off_time": 6.422}, {"pitch": 39, "velocity": 100, "note_on_time": 5.712, "note_off_time": 6.422}, {"pitch": 71, "velocity": 100, "note_on_time": 6.422, "note_off_time": 6.776}, {"pitch": 67, "velocity": 100, "note_on_time": 6.776, "note_off_time": 7.133}, {"pitch": 42, "velocity": 100, "note_on_time": 6.422, "note_off_time": 7.133}, {"pitch": 74, "velocity": 100, "note_on_time": 7.133, "note_off_time": 7.848}, {"pitch": 42, "velocity": 100, "note_on_time": 7.134, "note_off_time": 7.848}, {"pitch": 71, "velocity": 100, "note_on_time": 7.848, "note_off_time": 8.205}, {"pitch": 67, "velocity": 100, "note_on_time": 8.205, "note_off_time": 8.561}, {"pitch": 42, "velocity": 100, "note_on_time": 7.848, "note_off_time": 8.561}, {"pitch": 74, "velocity": 100, "note_on_time": 8.561, "note_off_time": 8.917}, {"pitch": 74, "velocity": 100, "note_on_time": 8.917, "note_off_time": 9.274}, {"pitch": 39, "velocity": 100, "note_on_time": 8.562, "note_off_time": 9.275}, {"pitch": 76, "velocity": 100, "note_on_time": 9.274, "note_off_time": 9.633}, {"pitch": 76, "velocity": 100, "note_on_time": 9.633, "note_off_time": 9.988}, {"pitch": 42, "velocity": 100, "note_on_time": 9.275, "note_off_time": 9.988}, {"pitch": 74, "velocity": 100, "note_on_time": 9.988, "note_off_time": 10.699}, {"pitch": 42, "velocity": 100, "note_on_time": 9.988, "note_off_time": 10.7}, {"pitch": 71, "velocity": 100, "note_on_time": 10.699, "note_off_time": 11.055}, {"pitch": 67, "velocity": 100, "note_on_time": 11.055, "note_off_time": 11.412}, {"pitch": 42, "velocity": 100, "note_on_time": 10.7, "note_off_time": 11.413}, {"pitch": 74, "velocity": 100, "note_on_time": 11.412, "note_off_time": 11.768}, {"pitch": 74, "velocity": 100, "note_on_time": 11.768, "note_off_time": 12.126}, {"pitch": 39, "velocity": 100, "note_on_time": 11.413, "note_off_time": 12.127}, {"pitch": 71, "velocity": 100, "note_on_time": 12.126, "note_off_time": 12.482}, {"pitch": 67, "velocity": 100, "note_on_time": 12.482, "note_off_time": 12.838}, {"pitch": 42, "velocity": 100, "note_on_time": 12.127, "note_off_time": 12.838}, {"pitch": 74, "velocity": 100, "note_on_time": 12.838, "note_off_time": 13.196}, {"pitch": 74, "velocity": 100, "note_on_time": 13.196, "note_off_time": 13.553}, {"pitch": 42, "velocity": 100, "note_on_time": 12.839, "note_off_time": 13.553}, {"pitch": 71, "velocity": 100, "note_on_time": 13.553, "note_off_time": 13.909}, {"pitch": 67, "velocity": 100, "note_on_time": 13.909, "note_off_time": 14.263}, {"pitch": 42, "velocity": 100, "note_on_time": 13.554, "note_off_time": 14.264}, {"pitch": 74, "velocity": 100, "note_on_time": 14.263, "note_off_time": 14.621}, {"pitch": 74, "velocity": 100, "note_on_time": 14.621, "note_off_time": 14.976}, {"pitch": 39, "velocity": 100, "note_on_time": 14.264, "note_off_time": 14.977}, {"pitch": 76, "velocity": 100, "note_on_time": 14.976, "note_off_time": 15.335}, {"pitch": 76, "velocity": 100, "note_on_time": 15.335, "note_off_time": 15.692}, {"pitch": 42, "velocity": 100, "note_on_time": 14.977, "note_off_time": 15.692}, {"pitch": 74, "velocity": 100, "note_on_time": 15.692, "note_off_time": 16.406}, {"pitch": 42, "velocity": 100, "note_on_time": 15.692, "note_off_time": 16.407}, {"pitch": 71, "velocity": 100, "note_on_time": 16.406, "note_off_time": 16.766}, {"pitch": 42, "velocity": 100, "note_on_time": 16.407, "note_off_time": 17.121}]</notes><options name="Option List">((4, 4), [0.5, 0.25], 3, 7, &lt;NoteRangePerHand.TWO_NOTES: 3&gt;, &lt;NoteRangePerHand.ONE_NOTE: 2&gt;, False, True, True, None)</options></target_notes><trials><trial trial_no="1" timestamp="2023_01_05-15_14_03"><notes name="Played Notes">[{"pitch": 67, "velocity": 78, "note_on_time": 5.352, "note_off_time": 5.747}, {"pitch": 74, "velocity": 86, "note_on_time": 5.725, "note_off_time": 6.454}, {"pitch": 71, "velocity": 94, "note_on_time": 6.404, "note_off_time": 6.803}, {"pitch": 67, "velocity": 76, "note_on_time": 6.743, "note_off_time": 7.132}, {"pitch": 74, "velocity": 90, "note_on_time": 7.119, "note_off_time": 7.854}, {"pitch": 71, "velocity": 86, "note_on_time": 7.789, "note_off_time": 8.179}, {"pitch": 67, "velocity": 78, "note_on_time": 8.151, "note_off_time": 8.509}, {"pitch": 74, "velocity": 89, "note_on_time": 8.502, "note_off_time": 8.762}, {"pitch": 74, "velocity": 84, "note_on_time": 8.863, "note_off_time": 9.223}, {"pitch": 76, "velocity": 90, "note_on_time": 9.177, "note_off_time": 9.365}, {"pitch": 76, "velocity": 87, "note_on_time": 9.529, "note_off_time": 10.008}, {"pitch": 74, "velocity": 91, "note_on_time": 9.938, "note_off_time": 10.725}, {"pitch": 69, "velocity": 82, "note_on_time": 10.653, "note_off_time": 10.898}, {"pitch": 71, "velocity": 101, "note_on_time": 11.027, "note_off_time": 11.357}, {"pitch": 67, "velocity": 66, "note_on_time": 11.264, "note_off_time": 11.551}, {"pitch": 74, "velocity": 84, "note_on_time": 11.673, "note_off_time": 11.874}, {"pitch": 74, "velocity": 85, "note_on_time": 11.976, "note_off_time": 12.509}, {"pitch": 71, "velocity": 84, "note_on_time": 12.45, "note_off_time": 12.803}, {"pitch": 67, "velocity": 76, "note_on_time": 12.767, "note_off_time": 13.248}, {"pitch": 74, "velocity": 85, "note_on_time": 13.253, "note_off_time": 13.577}, {"pitch": 74, "velocity": 88, "note_on_time": 13.668, "note_off_time": 14.094}, {"pitch": 71, "velocity": 97, "note_on_time": 14.019, "note_off_time": 14.402}, {"pitch": 67, "velocity": 76, "note_on_time": 14.347, "note_off_time": 14.811}, {"pitch": 74, "velocity": 88, "note_on_time": 14.822, "note_off_time": 15.066}, {"pitch": 74, "velocity": 88, "note_on_time": 15.163, "note_off_time": 15.615}, {"pitch": 76, "velocity": 86, "note_on_time": 15.561, "note_off_time": 15.965}, {"pitch": 74, "velocity": 85, "note_on_time": 15.912, "note_off_time": 16.23}]</notes><guidance name="Guidance Mode">None</guidance><error name="Error value">0.47951094973544905</error></trial></trials></MIDI>