<MIDI midiNo="2023_01_05-14_49_01"><target_notes><notes name="Note List">[{"pitch": 39, "velocity": 100, "note_on_time": 0.008, "note_off_time": 0.716}, {"pitch": 42, "velocity": 100, "note_on_time": 0.716, "note_off_time": 1.433}, {"pitch": 42, "velocity": 100, "note_on_time": 1.434, "note_off_time": 2.145}, {"pitch": 39, "velocity": 100, "note_on_time": 2.146, "note_off_time": 2.859}, {"pitch": 42, "velocity": 100, "note_on_time": 2.86, "note_off_time": 3.572}, {"pitch": 67, "velocity": 100, "note_on_time": 3.572, "note_off_time": 4.284}, {"pitch": 42, "velocity": 100, "note_on_time": 3.573, "note_off_time": 4.285}, {"pitch": 72, "velocity": 100, "note_on_time": 4.284, "note_off_time": 5.0}, {"pitch": 39, "velocity": 100, "note_on_time": 4.285, "note_off_time": 5.0}, {"pitch": 72, "velocity": 100, "note_on_time": 5.0, "note_off_time": 5.711}, {"pitch": 42, "velocity": 100, "note_on_time": 5.001, "note_off_time": 5.711}, {"pitch": 74, "velocity": 100, "note_on_time": 5.711, "note_off_time": 6.425}, {"pitch": 42, "velocity": 100, "note_on_time": 5.711, "note_off_time": 6.425}, {"pitch": 39, "velocity": 100, "note_on_time": 6.425, "note_off_time": 7.142}, {"pitch": 76, "velocity": 100, "note_on_time": 6.425, "note_off_time": 7.855}, {"pitch": 42, "velocity": 100, "note_on_time": 7.142, "note_off_time": 7.855}, {"pitch": 67, "velocity": 100, "note_on_time": 7.855, "note_off_time": 8.571}, {"pitch": 42, "velocity": 100, "note_on_time": 7.855, "note_off_time": 8.571}, {"pitch": 39, "velocity": 100, "note_on_time": 8.571, "note_off_time": 9.29}, {"pitch": 72, "velocity": 100, "note_on_time": 8.571, "note_off_time": 10.005}, {"pitch": 42, "velocity": 100, "note_on_time": 9.29, "note_off_time": 10.005}, {"pitch": 76, "velocity": 100, "note_on_time": 10.005, "note_off_time": 10.718}, {"pitch": 42, "velocity": 100, "note_on_time": 10.005, "note_off_time": 10.718}, {"pitch": 39, "velocity": 100, "note_on_time": 10.718, "note_off_time": 11.434}, {"pitch": 74, "velocity": 100, "note_on_time": 10.718, "note_off_time": 12.148}, {"pitch": 42, "velocity": 100, "note_on_time": 11.434, "note_off_time": 12.148}, {"pitch": 67, "velocity": 100, "note_on_time": 12.148, "note_off_time": 12.859}, {"pitch": 42, "velocity": 100, "note_on_time": 12.148, "note_off_time": 12.86}, {"pitch": 39, "velocity": 100, "note_on_time": 12.86, "note_off_time": 13.574}, {"pitch": 74, "velocity": 100, "note_on_time": 12.859, "note_off_time": 14.288}, {"pitch": 42, "velocity": 100, "note_on_time": 13.574, "note_off_time": 14.288}, {"pitch": 76, "velocity": 100, "note_on_time": 14.288, "note_off_time": 15.006}, {"pitch": 42, "velocity": 100, "note_on_time": 14.288, "note_off_time": 15.006}, {"pitch": 77, "velocity": 100, "note_on_time": 15.006, "note_off_time": 15.716}, {"pitch": 39, "velocity": 100, "note_on_time": 15.006, "note_off_time": 15.716}, {"pitch": 74, "velocity": 100, "note_on_time": 15.716, "note_off_time": 16.428}, {"pitch": 42, "velocity": 100, "note_on_time": 15.716, "note_off_time": 16.429}, {"pitch": 71, "velocity": 100, "note_on_time": 16.428, "note_off_time": 17.142}, {"pitch": 42, "velocity": 100, "note_on_time": 16.429, "note_off_time": 17.142}, {"pitch": 67, "velocity": 100, "note_on_time": 17.142, "note_off_time": 17.859}, {"pitch": 39, "velocity": 100, "note_on_time": 17.142, "note_off_time": 17.86}, {"pitch": 69, "velocity": 100, "note_on_time": 17.859, "note_off_time": 18.571}, {"pitch": 42, "velocity": 100, "note_on_time": 17.86, "note_off_time": 18.572}, {"pitch": 71, "velocity": 100, "note_on_time": 18.571, "note_off_time": 19.285}, {"pitch": 42, "velocity": 100, "note_on_time": 18.572, "note_off_time": 19.285}, {"pitch": 39, "velocity": 100, "note_on_time": 19.285, "note_off_time": 20.002}, {"pitch": 72, "velocity": 100, "note_on_time": 19.285, "note_off_time": 20.714}, {"pitch": 42, "velocity": 100, "note_on_time": 20.002, "note_off_time": 20.714}, {"pitch": 67, "velocity": 100, "note_on_time": 20.714, "note_off_time": 21.43}, {"pitch": 42, "velocity": 100, "note_on_time": 20.714, "note_off_time": 21.43}, {"pitch": 39, "velocity": 100, "note_on_time": 21.43, "note_off_time": 22.144}, {"pitch": 72, "velocity": 100, "note_on_time": 21.43, "note_off_time": 22.854}, {"pitch": 42, "velocity": 100, "note_on_time": 22.145, "note_off_time": 22.854}, {"pitch": 74, "velocity": 100, "note_on_time": 22.854, "note_off_time": 23.57}, {"pitch": 42, "velocity": 100, "note_on_time": 22.854, "note_off_time": 23.57}, {"pitch": 76, "velocity": 100, "note_on_time": 23.57, "note_off_time": 24.284}, {"pitch": 39, "velocity": 100, "note_on_time": 23.57, "note_off_time": 24.285}, {"pitch": 76, "velocity": 100, "note_on_time": 24.284, "note_off_time": 25.0}, {"pitch": 42, "velocity": 100, "note_on_time": 24.285, "note_off_time": 25.0}, {"pitch": 67, "velocity": 100, "note_on_time": 25.0, "note_off_time": 25.712}, {"pitch": 42, "velocity": 100, "note_on_time": 25.0, "note_off_time": 25.712}, {"pitch": 39, "velocity": 100, "note_on_time": 25.712, "note_off_time": 26.425}, {"pitch": 72, "velocity": 100, "note_on_time": 25.712, "note_off_time": 27.138}, {"pitch": 42, "velocity": 100, "note_on_time": 26.426, "note_off_time": 27.139}, {"pitch": 76, "velocity": 100, "note_on_time": 27.138, "note_off_time": 27.854}, {"pitch": 42, "velocity": 100, "note_on_time": 27.139, "note_off_time": 27.854}, {"pitch": 39, "velocity": 100, "note_on_time": 27.854, "note_off_time": 28.568}, {"pitch": 42, "velocity": 100, "note_on_time": 28.568, "note_off_time": 29.279}, {"pitch": 74, "velocity": 100, "note_on_time": 27.854, "note_off_time": 29.994}, {"pitch": 42, "velocity": 100, "note_on_time": 29.279, "note_off_time": 29.994}, {"pitch": 39, "velocity": 100, "note_on_time": 29.995, "note_off_time": 30.705}, {"pitch": 74, "velocity": 100, "note_on_time": 29.994, "note_off_time": 31.419}, {"pitch": 42, "velocity": 100, "note_on_time": 30.705, "note_off_time": 31.42}, {"pitch": 76, "velocity": 100, "note_on_time": 31.419, "note_off_time": 32.136}, {"pitch": 42, "velocity": 100, "note_on_time": 31.42, "note_off_time": 32.136}, {"pitch": 77, "velocity": 100, "note_on_time": 32.136, "note_off_time": 32.849}, {"pitch": 39, "velocity": 100, "note_on_time": 32.136, "note_off_time": 32.849}, {"pitch": 74, "velocity": 100, "note_on_time": 32.849, "note_off_time": 33.565}, {"pitch": 42, "velocity": 100, "note_on_time": 32.849, "note_off_time": 33.566}, {"pitch": 71, "velocity": 100, "note_on_time": 33.565, "note_off_time": 34.279}, {"pitch": 42, "velocity": 100, "note_on_time": 33.566, "note_off_time": 34.279}, {"pitch": 67, "velocity": 100, "note_on_time": 34.279, "note_off_time": 34.995}, {"pitch": 39, "velocity": 100, "note_on_time": 34.279, "note_off_time": 34.995}, {"pitch": 69, "velocity": 100, "note_on_time": 34.995, "note_off_time": 35.707}, {"pitch": 42, "velocity": 100, "note_on_time": 34.996, "note_off_time": 35.707}, {"pitch": 71, "velocity": 100, "note_on_time": 35.707, "note_off_time": 36.416}, {"pitch": 42, "velocity": 100, "note_on_time": 35.707, "note_off_time": 36.416}, {"pitch": 39, "velocity": 100, "note_on_time": 36.416, "note_off_time": 37.132}, {"pitch": 72, "velocity": 100, "note_on_time": 36.416, "note_off_time": 37.847}, {"pitch": 42, "velocity": 100, "note_on_time": 37.132, "note_off_time": 37.848}, {"pitch": 42, "velocity": 100, "note_on_time": 37.848, "note_off_time": 38.561}]</notes><options name="Option List">((4, 4), [0.5, 0.25], 3, 7, &lt;NoteRangePerHand.TWO_NOTES: 3&gt;, &lt;NoteRangePerHand.ONE_NOTE: 2&gt;, False, True, True, None)</options></target_notes><trials><trial trial_no="1" timestamp="2023_01_05-14_49_01"><notes name="Played Notes">[{"pitch": 67, "velocity": 72, "note_on_time": 3.54, "note_off_time": 4.308}, {"pitch": 72, "velocity": 78, "note_on_time": 4.254, "note_off_time": 4.699}, {"pitch": 72, "velocity": 77, "note_on_time": 4.89, "note_off_time": 5.692}, {"pitch": 74, "velocity": 92, "note_on_time": 5.656, "note_off_time": 6.408}, {"pitch": 76, "velocity": 90, "note_on_time": 6.372, "note_off_time": 7.876}, {"pitch": 67, "velocity": 66, "note_on_time": 7.818, "note_off_time": 8.562}, {"pitch": 72, "velocity": 86, "note_on_time": 8.551, "note_off_time": 10.046}, {"pitch": 76, "velocity": 73, "note_on_time": 10.001, "note_off_time": 10.775}, {"pitch": 74, "velocity": 97, "note_on_time": 10.733, "note_off_time": 12.184}, {"pitch": 67, "velocity": 64, "note_on_time": 12.136, "note_off_time": 12.841}, {"pitch": 74, "velocity": 78, "note_on_time": 12.816, "note_off_time": 14.274}, {"pitch": 76, "velocity": 84, "note_on_time": 14.249, "note_off_time": 14.992}, {"pitch": 77, "velocity": 94, "note_on_time": 14.97, "note_off_time": 15.705}, {"pitch": 74, "velocity": 91, "note_on_time": 15.662, "note_off_time": 16.404}, {"pitch": 71, "velocity": 85, "note_on_time": 16.402, "note_off_time": 17.16}, {"pitch": 67, "velocity": 77, "note_on_time": 17.145, "note_off_time": 17.889}, {"pitch": 69, "velocity": 85, "note_on_time": 17.846, "note_off_time": 18.591}, {"pitch": 71, "velocity": 89, "note_on_time": 18.539, "note_off_time": 19.318}, {"pitch": 72, "velocity": 95, "note_on_time": 19.244, "note_off_time": 20.749}, {"pitch": 67, "velocity": 85, "note_on_time": 20.705, "note_off_time": 21.428}, {"pitch": 72, "velocity": 93, "note_on_time": 21.425, "note_off_time": 22.785}, {"pitch": 74, "velocity": 84, "note_on_time": 22.76, "note_off_time": 23.475}, {"pitch": 76, "velocity": 87, "note_on_time": 23.462, "note_off_time": 23.92}, {"pitch": 76, "velocity": 83, "note_on_time": 24.164, "note_off_time": 24.952}, {"pitch": 67, "velocity": 52, "note_on_time": 24.855, "note_off_time": 25.635}, {"pitch": 72, "velocity": 91, "note_on_time": 25.605, "note_off_time": 27.242}, {"pitch": 76, "velocity": 84, "note_on_time": 27.194, "note_off_time": 27.976}, {"pitch": 74, "velocity": 96, "note_on_time": 27.919, "note_off_time": 29.703}, {"pitch": 74, "velocity": 95, "note_on_time": 29.961, "note_off_time": 31.39}, {"pitch": 76, "velocity": 85, "note_on_time": 31.374, "note_off_time": 32.25}, {"pitch": 77, "velocity": 79, "note_on_time": 32.282, "note_off_time": 32.419}, {"pitch": 79, "velocity": 67, "note_on_time": 32.279, "note_off_time": 32.476}, {"pitch": 77, "velocity": 54, "note_on_time": 33.259, "note_off_time": 33.788}, {"pitch": 74, "velocity": 74, "note_on_time": 33.737, "note_off_time": 34.22}, {"pitch": 69, "velocity": 73, "note_on_time": 34.214, "note_off_time": 34.486}, {"pitch": 67, "velocity": 81, "note_on_time": 34.712, "note_off_time": 35.67}, {"pitch": 69, "velocity": 82, "note_on_time": 35.656, "note_off_time": 36.318}, {"pitch": 71, "velocity": 88, "note_on_time": 36.271, "note_off_time": 36.891}, {"pitch": 72, "velocity": 87, "note_on_time": 36.904, "note_off_time": 37.511}]</notes><guidance name="Guidance Mode">None</guidance><error name="Error value">1.7049453579895668</error></trial></trials></MIDI>