<MIDI midiNo="2023_01_05-15_35_15"><target_notes><notes name="Note List">[{"pitch": 39, "velocity": 100, "note_on_time": 0.01, "note_off_time": 0.721}, {"pitch": 42, "velocity": 100, "note_on_time": 0.722, "note_off_time": 1.436}, {"pitch": 42, "velocity": 100, "note_on_time": 1.436, "note_off_time": 2.151}, {"pitch": 42, "velocity": 100, "note_on_time": 2.151, "note_off_time": 2.868}, {"pitch": 65, "velocity": 100, "note_on_time": 2.868, "note_off_time": 3.582}, {"pitch": 39, "velocity": 100, "note_on_time": 2.869, "note_off_time": 3.582}, {"pitch": 65, "velocity": 100, "note_on_time": 3.582, "note_off_time": 3.941}, {"pitch": 67, "velocity": 100, "note_on_time": 3.941, "note_off_time": 4.299}, {"pitch": 42, "velocity": 100, "note_on_time": 3.582, "note_off_time": 4.299}, {"pitch": 69, "velocity": 100, "note_on_time": 4.299, "note_off_time": 5.015}, {"pitch": 42, "velocity": 100, "note_on_time": 4.299, "note_off_time": 5.016}, {"pitch": 69, "velocity": 100, "note_on_time": 5.015, "note_off_time": 5.373}, {"pitch": 70, "velocity": 100, "note_on_time": 5.373, "note_off_time": 5.729}, {"pitch": 42, "velocity": 100, "note_on_time": 5.016, "note_off_time": 5.729}, {"pitch": 72, "velocity": 100, "note_on_time": 5.729, "note_off_time": 6.444}, {"pitch": 39, "velocity": 100, "note_on_time": 5.73, "note_off_time": 6.444}, {"pitch": 74, "velocity": 100, "note_on_time": 6.444, "note_off_time": 6.801}, {"pitch": 72, "velocity": 100, "note_on_time": 6.801, "note_off_time": 7.157}, {"pitch": 42, "velocity": 100, "note_on_time": 6.444, "note_off_time": 7.157}, {"pitch": 42, "velocity": 100, "note_on_time": 7.157, "note_off_time": 7.872}, {"pitch": 69, "velocity": 100, "note_on_time": 7.157, "note_off_time": 8.588}, {"pitch": 42, "velocity": 100, "note_on_time": 7.873, "note_off_time": 8.588}, {"pitch": 72, "velocity": 100, "note_on_time": 8.588, "note_off_time": 9.304}, {"pitch": 39, "velocity": 100, "note_on_time": 8.588, "note_off_time": 9.304}, {"pitch": 70, "velocity": 100, "note_on_time": 9.304, "note_off_time": 9.664}, {"pitch": 69, "velocity": 100, "note_on_time": 9.664, "note_off_time": 10.021}, {"pitch": 42, "velocity": 100, "note_on_time": 9.304, "note_off_time": 10.021}, {"pitch": 42, "velocity": 100, "note_on_time": 10.022, "note_off_time": 10.736}, {"pitch": 67, "velocity": 100, "note_on_time": 10.021, "note_off_time": 11.453}, {"pitch": 42, "velocity": 100, "note_on_time": 10.737, "note_off_time": 11.453}, {"pitch": 70, "velocity": 100, "note_on_time": 11.453, "note_off_time": 12.172}, {"pitch": 39, "velocity": 100, "note_on_time": 11.453, "note_off_time": 12.173}, {"pitch": 69, "velocity": 100, "note_on_time": 12.172, "note_off_time": 12.533}, {"pitch": 67, "velocity": 100, "note_on_time": 12.533, "note_off_time": 12.891}, {"pitch": 42, "velocity": 100, "note_on_time": 12.173, "note_off_time": 12.891}, {"pitch": 42, "velocity": 100, "note_on_time": 12.892, "note_off_time": 13.608}, {"pitch": 65, "velocity": 100, "note_on_time": 12.891, "note_off_time": 14.324}, {"pitch": 42, "velocity": 100, "note_on_time": 13.609, "note_off_time": 14.324}, {"pitch": 65, "velocity": 100, "note_on_time": 14.324, "note_off_time": 15.039}, {"pitch": 39, "velocity": 100, "note_on_time": 14.325, "note_off_time": 15.04}, {"pitch": 65, "velocity": 100, "note_on_time": 15.039, "note_off_time": 15.398}, {"pitch": 67, "velocity": 100, "note_on_time": 15.398, "note_off_time": 15.755}, {"pitch": 42, "velocity": 100, "note_on_time": 15.04, "note_off_time": 15.755}, {"pitch": 69, "velocity": 100, "note_on_time": 15.755, "note_off_time": 16.472}, {"pitch": 42, "velocity": 100, "note_on_time": 15.756, "note_off_time": 16.472}, {"pitch": 69, "velocity": 100, "note_on_time": 16.472, "note_off_time": 16.831}, {"pitch": 70, "velocity": 100, "note_on_time": 16.831, "note_off_time": 17.19}, {"pitch": 42, "velocity": 100, "note_on_time": 16.472, "note_off_time": 17.19}, {"pitch": 72, "velocity": 100, "note_on_time": 17.19, "note_off_time": 17.903}, {"pitch": 39, "velocity": 100, "note_on_time": 17.19, "note_off_time": 17.903}, {"pitch": 74, "velocity": 100, "note_on_time": 17.903, "note_off_time": 18.26}, {"pitch": 72, "velocity": 100, "note_on_time": 18.26, "note_off_time": 18.619}, {"pitch": 42, "velocity": 100, "note_on_time": 17.904, "note_off_time": 18.619}, {"pitch": 42, "velocity": 100, "note_on_time": 18.619, "note_off_time": 19.333}, {"pitch": 69, "velocity": 100, "note_on_time": 18.619, "note_off_time": 20.053}, {"pitch": 42, "velocity": 100, "note_on_time": 19.333, "note_off_time": 20.053}, {"pitch": 72, "velocity": 100, "note_on_time": 20.053, "note_off_time": 20.769}, {"pitch": 39, "velocity": 100, "note_on_time": 20.053, "note_off_time": 20.769}, {"pitch": 70, "velocity": 100, "note_on_time": 20.769, "note_off_time": 21.128}, {"pitch": 69, "velocity": 100, "note_on_time": 21.128, "note_off_time": 21.487}, {"pitch": 42, "velocity": 100, "note_on_time": 20.769, "note_off_time": 21.487}, {"pitch": 67, "velocity": 100, "note_on_time": 21.487, "note_off_time": 22.202}, {"pitch": 42, "velocity": 100, "note_on_time": 21.487, "note_off_time": 22.203}, {"pitch": 69, "velocity": 100, "note_on_time": 22.202, "note_off_time": 22.561}, {"pitch": 67, "velocity": 100, "note_on_time": 22.561, "note_off_time": 22.919}, {"pitch": 42, "velocity": 100, "note_on_time": 22.203, "note_off_time": 22.919}, {"pitch": 39, "velocity": 100, "note_on_time": 22.92, "note_off_time": 23.635}, {"pitch": 42, "velocity": 100, "note_on_time": 23.636, "note_off_time": 24.352}, {"pitch": 42, "velocity": 100, "note_on_time": 24.352, "note_off_time": 25.072}, {"pitch": 65, "velocity": 100, "note_on_time": 22.919, "note_off_time": 25.784}, {"pitch": 42, "velocity": 100, "note_on_time": 25.072, "note_off_time": 25.784}, {"pitch": 72, "velocity": 100, "note_on_time": 25.784, "note_off_time": 26.503}, {"pitch": 39, "velocity": 100, "note_on_time": 25.785, "note_off_time": 26.504}, {"pitch": 70, "velocity": 100, "note_on_time": 26.503, "note_off_time": 26.861}, {"pitch": 69, "velocity": 100, "note_on_time": 26.861, "note_off_time": 27.22}, {"pitch": 42, "velocity": 100, "note_on_time": 26.504, "note_off_time": 27.221}, {"pitch": 67, "velocity": 100, "note_on_time": 27.22, "note_off_time": 27.937}, {"pitch": 42, "velocity": 100, "note_on_time": 27.221, "note_off_time": 27.937}, {"pitch": 60, "velocity": 100, "note_on_time": 27.937, "note_off_time": 28.296}, {"pitch": 60, "velocity": 100, "note_on_time": 28.296, "note_off_time": 28.652}, {"pitch": 42, "velocity": 100, "note_on_time": 27.937, "note_off_time": 28.652}, {"pitch": 70, "velocity": 100, "note_on_time": 28.652, "note_off_time": 29.367}, {"pitch": 39, "velocity": 100, "note_on_time": 28.652, "note_off_time": 29.368}, {"pitch": 69, "velocity": 100, "note_on_time": 29.367, "note_off_time": 29.724}, {"pitch": 67, "velocity": 100, "note_on_time": 29.724, "note_off_time": 30.08}, {"pitch": 42, "velocity": 100, "note_on_time": 29.368, "note_off_time": 30.08}, {"pitch": 42, "velocity": 100, "note_on_time": 30.081, "note_off_time": 30.799}, {"pitch": 65, "velocity": 100, "note_on_time": 30.08, "note_off_time": 31.514}, {"pitch": 42, "velocity": 100, "note_on_time": 30.799, "note_off_time": 31.515}, {"pitch": 72, "velocity": 100, "note_on_time": 31.514, "note_off_time": 32.233}, {"pitch": 39, "velocity": 100, "note_on_time": 31.515, "note_off_time": 32.234}, {"pitch": 70, "velocity": 100, "note_on_time": 32.233, "note_off_time": 32.592}, {"pitch": 69, "velocity": 100, "note_on_time": 32.592, "note_off_time": 32.952}, {"pitch": 42, "velocity": 100, "note_on_time": 32.234, "note_off_time": 32.952}, {"pitch": 67, "velocity": 100, "note_on_time": 32.952, "note_off_time": 33.668}, {"pitch": 42, "velocity": 100, "note_on_time": 32.953, "note_off_time": 33.668}, {"pitch": 60, "velocity": 100, "note_on_time": 33.668, "note_off_time": 34.026}, {"pitch": 60, "velocity": 100, "note_on_time": 34.026, "note_off_time": 34.384}, {"pitch": 42, "velocity": 100, "note_on_time": 33.668, "note_off_time": 34.384}, {"pitch": 70, "velocity": 100, "note_on_time": 34.384, "note_off_time": 35.101}, {"pitch": 39, "velocity": 100, "note_on_time": 34.384, "note_off_time": 35.102}, {"pitch": 69, "velocity": 100, "note_on_time": 35.101, "note_off_time": 35.462}, {"pitch": 67, "velocity": 100, "note_on_time": 35.462, "note_off_time": 35.823}, {"pitch": 42, "velocity": 100, "note_on_time": 35.102, "note_off_time": 35.823}, {"pitch": 42, "velocity": 100, "note_on_time": 35.823, "note_off_time": 36.539}, {"pitch": 65, "velocity": 100, "note_on_time": 35.823, "note_off_time": 37.257}, {"pitch": 42, "velocity": 100, "note_on_time": 36.539, "note_off_time": 37.257}, {"pitch": 65, "velocity": 100, "note_on_time": 37.257, "note_off_time": 37.974}, {"pitch": 39, "velocity": 100, "note_on_time": 37.257, "note_off_time": 37.974}, {"pitch": 65, "velocity": 100, "note_on_time": 37.974, "note_off_time": 38.333}, {"pitch": 67, "velocity": 100, "note_on_time": 38.333, "note_off_time": 38.693}, {"pitch": 42, "velocity": 100, "note_on_time": 37.975, "note_off_time": 38.693}, {"pitch": 69, "velocity": 100, "note_on_time": 38.693, "note_off_time": 39.408}, {"pitch": 42, "velocity": 100, "note_on_time": 38.694, "note_off_time": 39.408}, {"pitch": 69, "velocity": 100, "note_on_time": 39.408, "note_off_time": 39.766}, {"pitch": 70, "velocity": 100, "note_on_time": 39.766, "note_off_time": 40.122}, {"pitch": 42, "velocity": 100, "note_on_time": 39.408, "note_off_time": 40.123}, {"pitch": 72, "velocity": 100, "note_on_time": 40.122, "note_off_time": 40.843}, {"pitch": 39, "velocity": 100, "note_on_time": 40.123, "note_off_time": 40.843}, {"pitch": 74, "velocity": 100, "note_on_time": 40.843, "note_off_time": 41.199}, {"pitch": 72, "velocity": 100, "note_on_time": 41.199, "note_off_time": 41.558}, {"pitch": 42, "velocity": 100, "note_on_time": 40.844, "note_off_time": 41.558}, {"pitch": 42, "velocity": 100, "note_on_time": 41.558, "note_off_time": 42.273}, {"pitch": 69, "velocity": 100, "note_on_time": 41.558, "note_off_time": 42.988}, {"pitch": 42, "velocity": 100, "note_on_time": 42.273, "note_off_time": 42.988}, {"pitch": 72, "velocity": 100, "note_on_time": 42.988, "note_off_time": 43.704}, {"pitch": 39, "velocity": 100, "note_on_time": 42.988, "note_off_time": 43.704}, {"pitch": 70, "velocity": 100, "note_on_time": 43.704, "note_off_time": 44.062}, {"pitch": 69, "velocity": 100, "note_on_time": 44.062, "note_off_time": 44.42}, {"pitch": 42, "velocity": 100, "note_on_time": 43.704, "note_off_time": 44.421}, {"pitch": 67, "velocity": 100, "note_on_time": 44.42, "note_off_time": 45.136}, {"pitch": 42, "velocity": 100, "note_on_time": 44.421, "note_off_time": 45.136}, {"pitch": 69, "velocity": 100, "note_on_time": 45.136, "note_off_time": 45.495}, {"pitch": 67, "velocity": 100, "note_on_time": 45.495, "note_off_time": 45.854}, {"pitch": 42, "velocity": 100, "note_on_time": 45.137, "note_off_time": 45.854}, {"pitch": 39, "velocity": 100, "note_on_time": 45.855, "note_off_time": 46.573}, {"pitch": 42, "velocity": 100, "note_on_time": 46.573, "note_off_time": 47.29}, {"pitch": 42, "velocity": 100, "note_on_time": 47.29, "note_off_time": 48.005}, {"pitch": 65, "velocity": 100, "note_on_time": 45.854, "note_off_time": 48.712}, {"pitch": 42, "velocity": 100, "note_on_time": 48.006, "note_off_time": 48.712}]</notes><options name="Option List">((4, 4), [0.5, 0.25], 3, 7, &lt;NoteRangePerHand.TWO_NOTES: 3&gt;, &lt;NoteRangePerHand.ONE_NOTE: 2&gt;, False, True, True, None)</options></target_notes><trials><trial trial_no="1" timestamp="2023_01_05-15_35_15"><notes name="Played Notes">[{"pitch": 65, "velocity": 88, "note_on_time": 2.843, "note_off_time": 3.344}, {"pitch": 65, "velocity": 90, "note_on_time": 3.552, "note_off_time": 3.899}, {"pitch": 67, "velocity": 78, "note_on_time": 3.876, "note_off_time": 4.249}, {"pitch": 69, "velocity": 95, "note_on_time": 4.221, "note_off_time": 4.606}, {"pitch": 69, "velocity": 91, "note_on_time": 4.907, "note_off_time": 5.261}, {"pitch": 70, "velocity": 87, "note_on_time": 5.247, "note_off_time": 5.665}, {"pitch": 72, "velocity": 81, "note_on_time": 5.63, "note_off_time": 6.321}, {"pitch": 74, "velocity": 93, "note_on_time": 6.336, "note_off_time": 6.751}, {"pitch": 72, "velocity": 91, "note_on_time": 6.712, "note_off_time": 7.124}, {"pitch": 69, "velocity": 97, "note_on_time": 7.099, "note_off_time": 8.548}, {"pitch": 74, "velocity": 82, "note_on_time": 8.601, "note_off_time": 8.912}, {"pitch": 72, "velocity": 95, "note_on_time": 8.881, "note_off_time": 9.382}, {"pitch": 70, "velocity": 81, "note_on_time": 9.358, "note_off_time": 9.656}, {"pitch": 69, "velocity": 93, "note_on_time": 9.632, "note_off_time": 10.03}, {"pitch": 67, "velocity": 90, "note_on_time": 9.992, "note_off_time": 11.404}, {"pitch": 70, "velocity": 80, "note_on_time": 11.389, "note_off_time": 12.096}, {"pitch": 69, "velocity": 90, "note_on_time": 12.092, "note_off_time": 12.467}, {"pitch": 67, "velocity": 85, "note_on_time": 12.447, "note_off_time": 12.849}, {"pitch": 65, "velocity": 96, "note_on_time": 12.807, "note_off_time": 14.135}, {"pitch": 65, "velocity": 96, "note_on_time": 14.329, "note_off_time": 14.937}, {"pitch": 65, "velocity": 96, "note_on_time": 15.058, "note_off_time": 15.429}, {"pitch": 67, "velocity": 92, "note_on_time": 15.407, "note_off_time": 15.794}, {"pitch": 69, "velocity": 89, "note_on_time": 15.769, "note_off_time": 16.298}, {"pitch": 69, "velocity": 81, "note_on_time": 16.43, "note_off_time": 16.795}, {"pitch": 70, "velocity": 91, "note_on_time": 16.778, "note_off_time": 17.197}, {"pitch": 72, "velocity": 89, "note_on_time": 17.179, "note_off_time": 17.897}, {"pitch": 74, "velocity": 84, "note_on_time": 17.894, "note_off_time": 18.273}, {"pitch": 72, "velocity": 93, "note_on_time": 18.234, "note_off_time": 18.6}, {"pitch": 69, "velocity": 89, "note_on_time": 18.609, "note_off_time": 20.017}, {"pitch": 72, "velocity": 88, "note_on_time": 20.03, "note_off_time": 20.744}, {"pitch": 70, "velocity": 75, "note_on_time": 20.68, "note_off_time": 21.028}, {"pitch": 69, "velocity": 91, "note_on_time": 21.018, "note_off_time": 21.439}, {"pitch": 67, "velocity": 94, "note_on_time": 21.414, "note_off_time": 22.088}, {"pitch": 69, "velocity": 90, "note_on_time": 22.334, "note_off_time": 22.638}, {"pitch": 67, "velocity": 66, "note_on_time": 22.557, "note_off_time": 22.93}, {"pitch": 65, "velocity": 100, "note_on_time": 22.923, "note_off_time": 25.816}, {"pitch": 72, "velocity": 89, "note_on_time": 25.814, "note_off_time": 26.614}, {"pitch": 70, "velocity": 84, "note_on_time": 26.55, "note_off_time": 26.845}, {"pitch": 69, "velocity": 86, "note_on_time": 26.838, "note_off_time": 27.246}, {"pitch": 67, "velocity": 85, "note_on_time": 27.217, "note_off_time": 27.929}, {"pitch": 60, "velocity": 95, "note_on_time": 27.896, "note_off_time": 28.148}, {"pitch": 60, "velocity": 91, "note_on_time": 28.231, "note_off_time": 28.442}, {"pitch": 70, "velocity": 79, "note_on_time": 28.632, "note_off_time": 29.325}, {"pitch": 69, "velocity": 91, "note_on_time": 29.284, "note_off_time": 29.657}, {"pitch": 67, "velocity": 85, "note_on_time": 29.629, "note_off_time": 30.069}, {"pitch": 65, "velocity": 93, "note_on_time": 30.01, "note_off_time": 31.535}, {"pitch": 72, "velocity": 88, "note_on_time": 31.533, "note_off_time": 32.306}, {"pitch": 70, "velocity": 91, "note_on_time": 32.248, "note_off_time": 32.569}, {"pitch": 69, "velocity": 87, "note_on_time": 32.548, "note_off_time": 32.961}, {"pitch": 67, "velocity": 83, "note_on_time": 32.951, "note_off_time": 33.674}, {"pitch": 60, "velocity": 92, "note_on_time": 33.65, "note_off_time": 33.88}, {"pitch": 60, "velocity": 76, "note_on_time": 33.989, "note_off_time": 34.212}, {"pitch": 71, "velocity": 70, "note_on_time": 34.421, "note_off_time": 34.556}, {"pitch": 70, "velocity": 103, "note_on_time": 34.654, "note_off_time": 35.063}, {"pitch": 69, "velocity": 88, "note_on_time": 35.03, "note_off_time": 35.354}, {"pitch": 67, "velocity": 86, "note_on_time": 35.335, "note_off_time": 35.726}, {"pitch": 65, "velocity": 92, "note_on_time": 35.679, "note_off_time": 36.99}, {"pitch": 65, "velocity": 91, "note_on_time": 37.208, "note_off_time": 37.785}, {"pitch": 65, "velocity": 84, "note_on_time": 37.951, "note_off_time": 38.298}, {"pitch": 67, "velocity": 80, "note_on_time": 38.286, "note_off_time": 38.688}, {"pitch": 69, "velocity": 83, "note_on_time": 38.652, "note_off_time": 39.162}, {"pitch": 69, "velocity": 81, "note_on_time": 39.361, "note_off_time": 39.723}, {"pitch": 70, "velocity": 83, "note_on_time": 39.697, "note_off_time": 40.109}, {"pitch": 72, "velocity": 84, "note_on_time": 40.1, "note_off_time": 40.773}, {"pitch": 74, "velocity": 78, "note_on_time": 40.784, "note_off_time": 41.237}, {"pitch": 72, "velocity": 74, "note_on_time": 41.166, "note_off_time": 41.577}, {"pitch": 69, "velocity": 78, "note_on_time": 41.541, "note_off_time": 43.003}, {"pitch": 72, "velocity": 92, "note_on_time": 43.0, "note_off_time": 43.702}, {"pitch": 70, "velocity": 74, "note_on_time": 43.697, "note_off_time": 44.062}, {"pitch": 69, "velocity": 87, "note_on_time": 44.036, "note_off_time": 44.448}, {"pitch": 67, "velocity": 84, "note_on_time": 44.416, "note_off_time": 45.085}, {"pitch": 69, "velocity": 89, "note_on_time": 45.136, "note_off_time": 45.527}, {"pitch": 67, "velocity": 90, "note_on_time": 45.485, "note_off_time": 45.89}]</notes><guidance name="Guidance Mode">None</guidance><error name="Error value">0.9013685277777777</error></trial></trials></MIDI>