<MIDI midiNo="2023_01_05-14_53_21"><target_notes><notes name="Note List">[{"pitch": 39, "velocity": 100, "note_on_time": 0.007, "note_off_time": 0.728}, {"pitch": 42, "velocity": 100, "note_on_time": 0.728, "note_off_time": 1.443}, {"pitch": 42, "velocity": 100, "note_on_time": 1.444, "note_off_time": 2.153}, {"pitch": 39, "velocity": 100, "note_on_time": 2.154, "note_off_time": 2.867}, {"pitch": 42, "velocity": 100, "note_on_time": 2.867, "note_off_time": 3.581}, {"pitch": 67, "velocity": 100, "note_on_time": 3.581, "note_off_time": 4.296}, {"pitch": 42, "velocity": 100, "note_on_time": 3.582, "note_off_time": 4.296}, {"pitch": 72, "velocity": 100, "note_on_time": 4.296, "note_off_time": 5.007}, {"pitch": 39, "velocity": 100, "note_on_time": 4.296, "note_off_time": 5.007}, {"pitch": 72, "velocity": 100, "note_on_time": 5.007, "note_off_time": 5.723}, {"pitch": 42, "velocity": 100, "note_on_time": 5.008, "note_off_time": 5.723}, {"pitch": 74, "velocity": 100, "note_on_time": 5.723, "note_off_time": 6.435}, {"pitch": 42, "velocity": 100, "note_on_time": 5.724, "note_off_time": 6.435}, {"pitch": 39, "velocity": 100, "note_on_time": 6.435, "note_off_time": 7.149}, {"pitch": 76, "velocity": 100, "note_on_time": 6.435, "note_off_time": 7.862}, {"pitch": 42, "velocity": 100, "note_on_time": 7.149, "note_off_time": 7.862}, {"pitch": 67, "velocity": 100, "note_on_time": 7.862, "note_off_time": 8.577}, {"pitch": 42, "velocity": 100, "note_on_time": 7.863, "note_off_time": 8.578}, {"pitch": 39, "velocity": 100, "note_on_time": 8.578, "note_off_time": 9.286}, {"pitch": 72, "velocity": 100, "note_on_time": 8.577, "note_off_time": 9.997}, {"pitch": 42, "velocity": 100, "note_on_time": 9.287, "note_off_time": 9.997}, {"pitch": 76, "velocity": 100, "note_on_time": 9.997, "note_off_time": 10.705}, {"pitch": 42, "velocity": 100, "note_on_time": 9.997, "note_off_time": 10.706}, {"pitch": 39, "velocity": 100, "note_on_time": 10.706, "note_off_time": 11.417}, {"pitch": 74, "velocity": 100, "note_on_time": 10.705, "note_off_time": 12.129}, {"pitch": 42, "velocity": 100, "note_on_time": 11.418, "note_off_time": 12.129}, {"pitch": 67, "velocity": 100, "note_on_time": 12.129, "note_off_time": 12.839}, {"pitch": 42, "velocity": 100, "note_on_time": 12.13, "note_off_time": 12.839}, {"pitch": 39, "velocity": 100, "note_on_time": 12.839, "note_off_time": 13.551}, {"pitch": 74, "velocity": 100, "note_on_time": 12.839, "note_off_time": 14.261}, {"pitch": 42, "velocity": 100, "note_on_time": 13.551, "note_off_time": 14.261}, {"pitch": 76, "velocity": 100, "note_on_time": 14.261, "note_off_time": 14.976}, {"pitch": 42, "velocity": 100, "note_on_time": 14.261, "note_off_time": 14.976}, {"pitch": 77, "velocity": 100, "note_on_time": 14.976, "note_off_time": 15.686}, {"pitch": 39, "velocity": 100, "note_on_time": 14.976, "note_off_time": 15.686}, {"pitch": 74, "velocity": 100, "note_on_time": 15.686, "note_off_time": 16.401}, {"pitch": 42, "velocity": 100, "note_on_time": 15.686, "note_off_time": 16.401}, {"pitch": 71, "velocity": 100, "note_on_time": 16.401, "note_off_time": 17.114}, {"pitch": 42, "velocity": 100, "note_on_time": 16.401, "note_off_time": 17.114}, {"pitch": 67, "velocity": 100, "note_on_time": 17.114, "note_off_time": 17.827}, {"pitch": 39, "velocity": 100, "note_on_time": 17.114, "note_off_time": 17.828}, {"pitch": 69, "velocity": 100, "note_on_time": 17.827, "note_off_time": 18.542}, {"pitch": 42, "velocity": 100, "note_on_time": 17.828, "note_off_time": 18.542}, {"pitch": 71, "velocity": 100, "note_on_time": 18.542, "note_off_time": 19.257}, {"pitch": 42, "velocity": 100, "note_on_time": 18.543, "note_off_time": 19.257}, {"pitch": 39, "velocity": 100, "note_on_time": 19.257, "note_off_time": 19.972}, {"pitch": 72, "velocity": 100, "note_on_time": 19.257, "note_off_time": 20.687}, {"pitch": 42, "velocity": 100, "note_on_time": 19.972, "note_off_time": 20.687}, {"pitch": 67, "velocity": 100, "note_on_time": 20.687, "note_off_time": 21.398}, {"pitch": 42, "velocity": 100, "note_on_time": 20.688, "note_off_time": 21.398}, {"pitch": 39, "velocity": 100, "note_on_time": 21.398, "note_off_time": 22.107}, {"pitch": 72, "velocity": 100, "note_on_time": 21.398, "note_off_time": 22.816}, {"pitch": 42, "velocity": 100, "note_on_time": 22.107, "note_off_time": 22.816}, {"pitch": 74, "velocity": 100, "note_on_time": 22.816, "note_off_time": 23.529}, {"pitch": 42, "velocity": 100, "note_on_time": 22.816, "note_off_time": 23.529}, {"pitch": 76, "velocity": 100, "note_on_time": 23.529, "note_off_time": 24.245}, {"pitch": 39, "velocity": 100, "note_on_time": 23.529, "note_off_time": 24.245}, {"pitch": 76, "velocity": 100, "note_on_time": 24.245, "note_off_time": 24.955}, {"pitch": 42, "velocity": 100, "note_on_time": 24.245, "note_off_time": 24.955}, {"pitch": 67, "velocity": 100, "note_on_time": 24.955, "note_off_time": 25.668}, {"pitch": 42, "velocity": 100, "note_on_time": 24.956, "note_off_time": 25.669}, {"pitch": 39, "velocity": 100, "note_on_time": 25.669, "note_off_time": 26.382}, {"pitch": 72, "velocity": 100, "note_on_time": 25.668, "note_off_time": 27.098}, {"pitch": 42, "velocity": 100, "note_on_time": 26.382, "note_off_time": 27.098}, {"pitch": 76, "velocity": 100, "note_on_time": 27.098, "note_off_time": 27.808}, {"pitch": 42, "velocity": 100, "note_on_time": 27.098, "note_off_time": 27.808}, {"pitch": 39, "velocity": 100, "note_on_time": 27.808, "note_off_time": 28.521}, {"pitch": 42, "velocity": 100, "note_on_time": 28.521, "note_off_time": 29.232}, {"pitch": 74, "velocity": 100, "note_on_time": 27.808, "note_off_time": 29.946}, {"pitch": 42, "velocity": 100, "note_on_time": 29.232, "note_off_time": 29.946}, {"pitch": 39, "velocity": 100, "note_on_time": 29.946, "note_off_time": 30.662}, {"pitch": 74, "velocity": 100, "note_on_time": 29.946, "note_off_time": 31.378}, {"pitch": 42, "velocity": 100, "note_on_time": 30.662, "note_off_time": 31.379}, {"pitch": 76, "velocity": 100, "note_on_time": 31.378, "note_off_time": 32.093}, {"pitch": 42, "velocity": 100, "note_on_time": 31.379, "note_off_time": 32.093}, {"pitch": 77, "velocity": 100, "note_on_time": 32.093, "note_off_time": 32.803}, {"pitch": 39, "velocity": 100, "note_on_time": 32.094, "note_off_time": 32.803}, {"pitch": 74, "velocity": 100, "note_on_time": 32.803, "note_off_time": 33.519}, {"pitch": 42, "velocity": 100, "note_on_time": 32.804, "note_off_time": 33.519}, {"pitch": 71, "velocity": 100, "note_on_time": 33.519, "note_off_time": 34.235}, {"pitch": 42, "velocity": 100, "note_on_time": 33.52, "note_off_time": 34.236}, {"pitch": 67, "velocity": 100, "note_on_time": 34.235, "note_off_time": 34.951}, {"pitch": 39, "velocity": 100, "note_on_time": 34.236, "note_off_time": 34.951}, {"pitch": 69, "velocity": 100, "note_on_time": 34.951, "note_off_time": 35.665}, {"pitch": 42, "velocity": 100, "note_on_time": 34.952, "note_off_time": 35.665}, {"pitch": 71, "velocity": 100, "note_on_time": 35.665, "note_off_time": 36.381}, {"pitch": 42, "velocity": 100, "note_on_time": 35.666, "note_off_time": 36.382}, {"pitch": 39, "velocity": 100, "note_on_time": 36.382, "note_off_time": 37.093}, {"pitch": 72, "velocity": 100, "note_on_time": 36.381, "note_off_time": 37.811}, {"pitch": 42, "velocity": 100, "note_on_time": 37.094, "note_off_time": 37.811}, {"pitch": 42, "velocity": 100, "note_on_time": 37.812, "note_off_time": 38.527}]</notes><options name="Option List">((4, 4), [0.5, 0.25], 3, 7, &lt;NoteRangePerHand.TWO_NOTES: 3&gt;, &lt;NoteRangePerHand.ONE_NOTE: 2&gt;, False, True, True, None)</options></target_notes><trials><trial trial_no="1" timestamp="2023_01_05-14_53_21"><notes name="Played Notes">[{"pitch": 67, "velocity": 84, "note_on_time": 3.547, "note_off_time": 4.29}, {"pitch": 72, "velocity": 85, "note_on_time": 4.266, "note_off_time": 4.628}, {"pitch": 72, "velocity": 95, "note_on_time": 4.906, "note_off_time": 5.7}, {"pitch": 74, "velocity": 98, "note_on_time": 5.656, "note_off_time": 6.397}, {"pitch": 76, "velocity": 91, "note_on_time": 6.361, "note_off_time": 7.941}, {"pitch": 67, "velocity": 75, "note_on_time": 7.831, "note_off_time": 8.571}, {"pitch": 72, "velocity": 72, "note_on_time": 8.553, "note_off_time": 10.008}, {"pitch": 76, "velocity": 90, "note_on_time": 9.97, "note_off_time": 10.696}, {"pitch": 74, "velocity": 95, "note_on_time": 10.658, "note_off_time": 12.187}, {"pitch": 67, "velocity": 72, "note_on_time": 12.103, "note_off_time": 12.811}, {"pitch": 74, "velocity": 88, "note_on_time": 12.785, "note_off_time": 14.232}, {"pitch": 76, "velocity": 46, "note_on_time": 14.192, "note_off_time": 14.91}, {"pitch": 77, "velocity": 90, "note_on_time": 14.874, "note_off_time": 15.619}, {"pitch": 74, "velocity": 90, "note_on_time": 15.561, "note_off_time": 16.312}, {"pitch": 71, "velocity": 76, "note_on_time": 16.277, "note_off_time": 17.01}, {"pitch": 67, "velocity": 84, "note_on_time": 16.963, "note_off_time": 17.775}, {"pitch": 69, "velocity": 95, "note_on_time": 17.726, "note_off_time": 18.567}, {"pitch": 71, "velocity": 91, "note_on_time": 18.501, "note_off_time": 19.223}, {"pitch": 72, "velocity": 93, "note_on_time": 19.189, "note_off_time": 20.758}, {"pitch": 67, "velocity": 82, "note_on_time": 20.686, "note_off_time": 21.404}, {"pitch": 72, "velocity": 94, "note_on_time": 21.384, "note_off_time": 22.81}, {"pitch": 74, "velocity": 67, "note_on_time": 22.788, "note_off_time": 23.525}, {"pitch": 76, "velocity": 95, "note_on_time": 23.496, "note_off_time": 24.006}, {"pitch": 76, "velocity": 90, "note_on_time": 24.205, "note_off_time": 24.985}, {"pitch": 67, "velocity": 72, "note_on_time": 24.959, "note_off_time": 25.689}, {"pitch": 72, "velocity": 92, "note_on_time": 25.659, "note_off_time": 27.136}, {"pitch": 76, "velocity": 87, "note_on_time": 27.119, "note_off_time": 27.877}, {"pitch": 74, "velocity": 94, "note_on_time": 27.824, "note_off_time": 29.508}, {"pitch": 74, "velocity": 91, "note_on_time": 29.892, "note_off_time": 31.406}, {"pitch": 76, "velocity": 78, "note_on_time": 31.362, "note_off_time": 32.088}, {"pitch": 77, "velocity": 91, "note_on_time": 32.071, "note_off_time": 32.84}, {"pitch": 74, "velocity": 91, "note_on_time": 32.785, "note_off_time": 33.494}, {"pitch": 69, "velocity": 78, "note_on_time": 33.499, "note_off_time": 33.989}, {"pitch": 67, "velocity": 63, "note_on_time": 34.183, "note_off_time": 34.887}, {"pitch": 69, "velocity": 87, "note_on_time": 34.85, "note_off_time": 35.569}, {"pitch": 71, "velocity": 92, "note_on_time": 35.526, "note_off_time": 36.304}]</notes><guidance name="Guidance Mode">None</guidance><error name="Error value">0.1618948546704605</error></trial></trials></MIDI>