<MIDI midiNo="2023_01_05-15_00_01"><target_notes><notes name="Note List">[{"pitch": 39, "velocity": 100, "note_on_time": 0.005, "note_off_time": 0.719}, {"pitch": 42, "velocity": 100, "note_on_time": 0.719, "note_off_time": 1.432}, {"pitch": 42, "velocity": 100, "note_on_time": 1.432, "note_off_time": 2.144}, {"pitch": 39, "velocity": 100, "note_on_time": 2.144, "note_off_time": 2.861}, {"pitch": 42, "velocity": 100, "note_on_time": 2.861, "note_off_time": 3.572}, {"pitch": 67, "velocity": 100, "note_on_time": 3.572, "note_off_time": 3.93}, {"pitch": 67, "velocity": 100, "note_on_time": 3.93, "note_off_time": 4.286}, {"pitch": 42, "velocity": 100, "note_on_time": 3.572, "note_off_time": 4.286}, {"pitch": 69, "velocity": 100, "note_on_time": 4.286, "note_off_time": 4.998}, {"pitch": 39, "velocity": 100, "note_on_time": 4.287, "note_off_time": 4.998}, {"pitch": 67, "velocity": 100, "note_on_time": 4.998, "note_off_time": 5.715}, {"pitch": 42, "velocity": 100, "note_on_time": 4.998, "note_off_time": 5.715}, {"pitch": 72, "velocity": 100, "note_on_time": 5.715, "note_off_time": 6.433}, {"pitch": 42, "velocity": 100, "note_on_time": 5.716, "note_off_time": 6.433}, {"pitch": 39, "velocity": 100, "note_on_time": 6.433, "note_off_time": 7.144}, {"pitch": 71, "velocity": 100, "note_on_time": 6.433, "note_off_time": 7.854}, {"pitch": 42, "velocity": 100, "note_on_time": 7.144, "note_off_time": 7.854}, {"pitch": 67, "velocity": 100, "note_on_time": 7.854, "note_off_time": 8.21}, {"pitch": 67, "velocity": 100, "note_on_time": 8.21, "note_off_time": 8.565}, {"pitch": 42, "velocity": 100, "note_on_time": 7.854, "note_off_time": 8.565}, {"pitch": 69, "velocity": 100, "note_on_time": 8.565, "note_off_time": 9.279}, {"pitch": 39, "velocity": 100, "note_on_time": 8.565, "note_off_time": 9.28}, {"pitch": 67, "velocity": 100, "note_on_time": 9.279, "note_off_time": 9.99}, {"pitch": 42, "velocity": 100, "note_on_time": 9.28, "note_off_time": 9.99}, {"pitch": 74, "velocity": 100, "note_on_time": 9.99, "note_off_time": 10.707}, {"pitch": 42, "velocity": 100, "note_on_time": 9.991, "note_off_time": 10.707}, {"pitch": 39, "velocity": 100, "note_on_time": 10.707, "note_off_time": 11.42}, {"pitch": 72, "velocity": 100, "note_on_time": 10.707, "note_off_time": 12.133}, {"pitch": 42, "velocity": 100, "note_on_time": 11.42, "note_off_time": 12.133}, {"pitch": 67, "velocity": 100, "note_on_time": 12.133, "note_off_time": 12.49}, {"pitch": 67, "velocity": 100, "note_on_time": 12.49, "note_off_time": 12.849}, {"pitch": 42, "velocity": 100, "note_on_time": 12.133, "note_off_time": 12.849}, {"pitch": 79, "velocity": 100, "note_on_time": 12.849, "note_off_time": 13.563}, {"pitch": 39, "velocity": 100, "note_on_time": 12.849, "note_off_time": 13.563}, {"pitch": 76, "velocity": 100, "note_on_time": 13.563, "note_off_time": 14.276}, {"pitch": 42, "velocity": 100, "note_on_time": 13.563, "note_off_time": 14.276}, {"pitch": 72, "velocity": 100, "note_on_time": 14.276, "note_off_time": 14.989}, {"pitch": 42, "velocity": 100, "note_on_time": 14.277, "note_off_time": 14.989}, {"pitch": 71, "velocity": 100, "note_on_time": 14.989, "note_off_time": 15.704}, {"pitch": 39, "velocity": 100, "note_on_time": 14.989, "note_off_time": 15.705}, {"pitch": 69, "velocity": 100, "note_on_time": 15.704, "note_off_time": 16.421}, {"pitch": 42, "velocity": 100, "note_on_time": 15.705, "note_off_time": 16.422}, {"pitch": 77, "velocity": 100, "note_on_time": 16.421, "note_off_time": 16.78}, {"pitch": 77, "velocity": 100, "note_on_time": 16.78, "note_off_time": 17.135}, {"pitch": 42, "velocity": 100, "note_on_time": 16.422, "note_off_time": 17.135}, {"pitch": 76, "velocity": 100, "note_on_time": 17.135, "note_off_time": 17.85}, {"pitch": 39, "velocity": 100, "note_on_time": 17.135, "note_off_time": 17.85}, {"pitch": 72, "velocity": 100, "note_on_time": 17.85, "note_off_time": 18.562}, {"pitch": 42, "velocity": 100, "note_on_time": 17.85, "note_off_time": 18.563}, {"pitch": 74, "velocity": 100, "note_on_time": 18.562, "note_off_time": 19.276}, {"pitch": 42, "velocity": 100, "note_on_time": 18.563, "note_off_time": 19.276}, {"pitch": 39, "velocity": 100, "note_on_time": 19.276, "note_off_time": 19.989}, {"pitch": 72, "velocity": 100, "note_on_time": 19.276, "note_off_time": 20.704}, {"pitch": 42, "velocity": 100, "note_on_time": 19.989, "note_off_time": 20.705}, {"pitch": 42, "velocity": 100, "note_on_time": 20.705, "note_off_time": 21.417}]</notes><options name="Option List">((4, 4), [0.5, 0.25], 3, 7, &lt;NoteRangePerHand.TWO_NOTES: 3&gt;, &lt;NoteRangePerHand.ONE_NOTE: 2&gt;, False, True, True, None)</options></target_notes><trials><trial trial_no="1" timestamp="2023_01_05-15_00_01"><notes name="Played Notes">[{"pitch": 67, "velocity": 79, "note_on_time": 3.606, "note_off_time": 3.873}, {"pitch": 67, "velocity": 72, "note_on_time": 4.082, "note_off_time": 4.353}, {"pitch": 69, "velocity": 90, "note_on_time": 4.323, "note_off_time": 5.027}, {"pitch": 67, "velocity": 83, "note_on_time": 5.003, "note_off_time": 5.786}, {"pitch": 71, "velocity": 83, "note_on_time": 5.746, "note_off_time": 6.201}, {"pitch": 71, "velocity": 40, "note_on_time": 6.954, "note_off_time": 7.078}, {"pitch": 72, "velocity": 41, "note_on_time": 6.95, "note_off_time": 7.821}, {"pitch": 69, "velocity": 74, "note_on_time": 7.818, "note_off_time": 7.865}, {"pitch": 71, "velocity": 63, "note_on_time": 7.814, "note_off_time": 8.92}, {"pitch": 69, "velocity": 54, "note_on_time": 9.376, "note_off_time": 9.413}, {"pitch": 67, "velocity": 57, "note_on_time": 9.614, "note_off_time": 9.882}, {"pitch": 67, "velocity": 78, "note_on_time": 9.974, "note_off_time": 10.207}, {"pitch": 69, "velocity": 93, "note_on_time": 10.156, "note_off_time": 10.866}, {"pitch": 67, "velocity": 84, "note_on_time": 10.811, "note_off_time": 11.723}, {"pitch": 72, "velocity": 65, "note_on_time": 11.675, "note_off_time": 11.997}, {"pitch": 74, "velocity": 66, "note_on_time": 12.045, "note_off_time": 12.627}, {"pitch": 72, "velocity": 77, "note_on_time": 13.638, "note_off_time": 15.032}, {"pitch": 67, "velocity": 74, "note_on_time": 15.006, "note_off_time": 15.328}, {"pitch": 67, "velocity": 72, "note_on_time": 15.473, "note_off_time": 15.716}, {"pitch": 77, "velocity": 69, "note_on_time": 15.777, "note_off_time": 16.041}, {"pitch": 79, "velocity": 86, "note_on_time": 16.114, "note_off_time": 16.839}, {"pitch": 76, "velocity": 85, "note_on_time": 16.8, "note_off_time": 17.69}, {"pitch": 72, "velocity": 61, "note_on_time": 17.571, "note_off_time": 18.447}, {"pitch": 71, "velocity": 84, "note_on_time": 18.386, "note_off_time": 19.194}, {"pitch": 69, "velocity": 83, "note_on_time": 19.172, "note_off_time": 19.955}, {"pitch": 77, "velocity": 88, "note_on_time": 19.974, "note_off_time": 20.392}, {"pitch": 77, "velocity": 77, "note_on_time": 20.52, "note_off_time": 20.837}]</notes><guidance name="Guidance Mode">None</guidance><error name="Error value">2.516486159999998</error></trial></trials></MIDI>