<MIDI midiNo="2023_01_05-14_43_32"><target_notes><notes name="Note List">[{"pitch": 39, "velocity": 100, "note_on_time": 0.006, "note_off_time": 0.714}, {"pitch": 42, "velocity": 100, "note_on_time": 0.714, "note_off_time": 1.431}, {"pitch": 42, "velocity": 100, "note_on_time": 1.431, "note_off_time": 2.144}, {"pitch": 42, "velocity": 100, "note_on_time": 2.144, "note_off_time": 2.861}, {"pitch": 60, "velocity": 100, "note_on_time": 2.861, "note_off_time": 3.573}, {"pitch": 39, "velocity": 100, "note_on_time": 2.862, "note_off_time": 3.573}, {"pitch": 64, "velocity": 100, "note_on_time": 3.573, "note_off_time": 4.287}, {"pitch": 42, "velocity": 100, "note_on_time": 3.573, "note_off_time": 4.287}, {"pitch": 60, "velocity": 100, "note_on_time": 4.287, "note_off_time": 5.003}, {"pitch": 42, "velocity": 100, "note_on_time": 4.287, "note_off_time": 5.003}, {"pitch": 64, "velocity": 100, "note_on_time": 5.003, "note_off_time": 5.719}, {"pitch": 42, "velocity": 100, "note_on_time": 5.003, "note_off_time": 5.72}, {"pitch": 39, "velocity": 100, "note_on_time": 5.72, "note_off_time": 6.433}, {"pitch": 67, "velocity": 100, "note_on_time": 5.719, "note_off_time": 7.149}, {"pitch": 42, "velocity": 100, "note_on_time": 6.433, "note_off_time": 7.149}, {"pitch": 64, "velocity": 100, "note_on_time": 7.149, "note_off_time": 7.863}, {"pitch": 42, "velocity": 100, "note_on_time": 7.15, "note_off_time": 7.863}, {"pitch": 60, "velocity": 100, "note_on_time": 7.863, "note_off_time": 8.573}, {"pitch": 42, "velocity": 100, "note_on_time": 7.863, "note_off_time": 8.573}, {"pitch": 39, "velocity": 100, "note_on_time": 8.574, "note_off_time": 9.287}, {"pitch": 67, "velocity": 100, "note_on_time": 8.573, "note_off_time": 10.001}, {"pitch": 42, "velocity": 100, "note_on_time": 9.287, "note_off_time": 10.001}, {"pitch": 42, "velocity": 100, "note_on_time": 10.002, "note_off_time": 10.717}, {"pitch": 60, "velocity": 100, "note_on_time": 10.001, "note_off_time": 11.43}, {"pitch": 42, "velocity": 100, "note_on_time": 10.717, "note_off_time": 11.43}, {"pitch": 39, "velocity": 100, "note_on_time": 11.43, "note_off_time": 12.143}, {"pitch": 42, "velocity": 100, "note_on_time": 12.143, "note_off_time": 12.856}, {"pitch": 42, "velocity": 100, "note_on_time": 12.856, "note_off_time": 13.568}, {"pitch": 64, "velocity": 100, "note_on_time": 11.43, "note_off_time": 14.277}, {"pitch": 42, "velocity": 100, "note_on_time": 13.568, "note_off_time": 14.277}, {"pitch": 67, "velocity": 100, "note_on_time": 14.277, "note_off_time": 14.993}, {"pitch": 39, "velocity": 100, "note_on_time": 14.278, "note_off_time": 14.993}, {"pitch": 64, "velocity": 100, "note_on_time": 14.993, "note_off_time": 15.708}, {"pitch": 42, "velocity": 100, "note_on_time": 14.994, "note_off_time": 15.708}, {"pitch": 67, "velocity": 100, "note_on_time": 15.708, "note_off_time": 16.421}, {"pitch": 42, "velocity": 100, "note_on_time": 15.709, "note_off_time": 16.421}, {"pitch": 64, "velocity": 100, "note_on_time": 16.421, "note_off_time": 17.135}, {"pitch": 42, "velocity": 100, "note_on_time": 16.421, "note_off_time": 17.135}, {"pitch": 39, "velocity": 100, "note_on_time": 17.135, "note_off_time": 17.849}, {"pitch": 60, "velocity": 100, "note_on_time": 17.135, "note_off_time": 18.565}, {"pitch": 42, "velocity": 100, "note_on_time": 17.85, "note_off_time": 18.565}, {"pitch": 64, "velocity": 100, "note_on_time": 18.565, "note_off_time": 19.278}, {"pitch": 42, "velocity": 100, "note_on_time": 18.566, "note_off_time": 19.278}, {"pitch": 67, "velocity": 100, "note_on_time": 19.278, "note_off_time": 19.994}, {"pitch": 42, "velocity": 100, "note_on_time": 19.278, "note_off_time": 19.994}, {"pitch": 39, "velocity": 100, "note_on_time": 19.995, "note_off_time": 20.708}, {"pitch": 64, "velocity": 100, "note_on_time": 19.994, "note_off_time": 21.424}, {"pitch": 42, "velocity": 100, "note_on_time": 20.708, "note_off_time": 21.424}, {"pitch": 42, "velocity": 100, "note_on_time": 21.424, "note_off_time": 22.137}, {"pitch": 67, "velocity": 100, "note_on_time": 21.424, "note_off_time": 22.855}, {"pitch": 42, "velocity": 100, "note_on_time": 22.138, "note_off_time": 22.855}, {"pitch": 39, "velocity": 100, "note_on_time": 22.855, "note_off_time": 23.569}, {"pitch": 42, "velocity": 100, "note_on_time": 23.569, "note_off_time": 24.281}, {"pitch": 42, "velocity": 100, "note_on_time": 24.282, "note_off_time": 24.994}, {"pitch": 60, "velocity": 100, "note_on_time": 22.855, "note_off_time": 25.709}, {"pitch": 42, "velocity": 100, "note_on_time": 24.995, "note_off_time": 25.71}]</notes><options name="Option List">((4, 4), [0.5, 0.25], 3, 7, &lt;NoteRangePerHand.TWO_NOTES: 3&gt;, &lt;NoteRangePerHand.ONE_NOTE: 2&gt;, False, True, True, None)</options></target_notes><trials><trial trial_no="1" timestamp="2023_01_05-14_43_32"><notes name="Played Notes">[{"pitch": 60, "velocity": 81, "note_on_time": 12.228, "note_off_time": 12.483}, {"pitch": 59, "velocity": 68, "note_on_time": 12.473, "note_off_time": 12.686}, {"pitch": 62, "velocity": 64, "note_on_time": 12.48, "note_off_time": 12.7}, {"pitch": 64, "velocity": 59, "note_on_time": 12.714, "note_off_time": 12.919}, {"pitch": 57, "velocity": 57, "note_on_time": 12.696, "note_off_time": 12.932}, {"pitch": 65, "velocity": 52, "note_on_time": 12.954, "note_off_time": 13.151}, {"pitch": 55, "velocity": 60, "note_on_time": 12.929, "note_off_time": 13.171}, {"pitch": 53, "velocity": 73, "note_on_time": 13.159, "note_off_time": 14.492}, {"pitch": 67, "velocity": 68, "note_on_time": 13.175, "note_off_time": 14.497}, {"pitch": 60, "velocity": 74, "note_on_time": 14.926, "note_off_time": 15.667}, {"pitch": 64, "velocity": 62, "note_on_time": 15.691, "note_off_time": 16.384}, {"pitch": 60, "velocity": 49, "note_on_time": 16.424, "note_off_time": 17.125}, {"pitch": 64, "velocity": 40, "note_on_time": 17.171, "note_off_time": 17.858}, {"pitch": 67, "velocity": 41, "note_on_time": 17.861, "note_off_time": 19.248}, {"pitch": 64, "velocity": 47, "note_on_time": 19.251, "note_off_time": 19.891}, {"pitch": 60, "velocity": 32, "note_on_time": 19.963, "note_off_time": 20.668}, {"pitch": 67, "velocity": 30, "note_on_time": 20.738, "note_off_time": 22.147}, {"pitch": 60, "velocity": 30, "note_on_time": 22.165, "note_off_time": 23.511}, {"pitch": 64, "velocity": 38, "note_on_time": 23.546, "note_off_time": 24.212}]</notes><guidance name="Guidance Mode">None</guidance><error name="Error value">1.3836669631578948</error></trial></trials></MIDI>