<MIDI midiNo="2023_01_05-15_10_33"><target_notes><notes name="Note List">[{"pitch": 39, "velocity": 100, "note_on_time": 0.005, "note_off_time": 0.723}, {"pitch": 42, "velocity": 100, "note_on_time": 0.723, "note_off_time": 1.439}, {"pitch": 42, "velocity": 100, "note_on_time": 1.439, "note_off_time": 2.149}, {"pitch": 42, "velocity": 100, "note_on_time": 2.149, "note_off_time": 2.867}, {"pitch": 39, "velocity": 100, "note_on_time": 2.867, "note_off_time": 3.581}, {"pitch": 42, "velocity": 100, "note_on_time": 3.582, "note_off_time": 4.293}, {"pitch": 42, "velocity": 100, "note_on_time": 4.294, "note_off_time": 5.008}, {"pitch": 62, "velocity": 100, "note_on_time": 5.366, "note_off_time": 5.72}, {"pitch": 42, "velocity": 100, "note_on_time": 5.009, "note_off_time": 5.72}, {"pitch": 62, "velocity": 100, "note_on_time": 5.72, "note_off_time": 6.434}, {"pitch": 39, "velocity": 100, "note_on_time": 5.72, "note_off_time": 6.434}, {"pitch": 62, "velocity": 100, "note_on_time": 6.434, "note_off_time": 6.792}, {"pitch": 62, "velocity": 100, "note_on_time": 6.792, "note_off_time": 7.149}, {"pitch": 42, "velocity": 100, "note_on_time": 6.434, "note_off_time": 7.149}, {"pitch": 62, "velocity": 100, "note_on_time": 7.149, "note_off_time": 7.859}, {"pitch": 42, "velocity": 100, "note_on_time": 7.149, "note_off_time": 7.86}, {"pitch": 62, "velocity": 100, "note_on_time": 7.859, "note_off_time": 8.218}, {"pitch": 62, "velocity": 100, "note_on_time": 8.218, "note_off_time": 8.576}, {"pitch": 42, "velocity": 100, "note_on_time": 7.86, "note_off_time": 8.577}, {"pitch": 62, "velocity": 100, "note_on_time": 8.576, "note_off_time": 8.937}, {"pitch": 62, "velocity": 100, "note_on_time": 8.937, "note_off_time": 9.293}, {"pitch": 39, "velocity": 100, "note_on_time": 8.577, "note_off_time": 9.293}, {"pitch": 62, "velocity": 100, "note_on_time": 9.293, "note_off_time": 9.65}, {"pitch": 62, "velocity": 100, "note_on_time": 9.65, "note_off_time": 10.009}, {"pitch": 42, "velocity": 100, "note_on_time": 9.294, "note_off_time": 10.009}, {"pitch": 62, "velocity": 100, "note_on_time": 10.009, "note_off_time": 10.725}, {"pitch": 42, "velocity": 100, "note_on_time": 10.009, "note_off_time": 10.725}, {"pitch": 62, "velocity": 100, "note_on_time": 10.725, "note_off_time": 11.085}, {"pitch": 62, "velocity": 100, "note_on_time": 11.085, "note_off_time": 11.444}, {"pitch": 42, "velocity": 100, "note_on_time": 10.726, "note_off_time": 11.444}, {"pitch": 62, "velocity": 100, "note_on_time": 11.444, "note_off_time": 11.8}, {"pitch": 62, "velocity": 100, "note_on_time": 11.8, "note_off_time": 12.154}, {"pitch": 39, "velocity": 100, "note_on_time": 11.445, "note_off_time": 12.154}, {"pitch": 62, "velocity": 100, "note_on_time": 12.154, "note_off_time": 12.509}, {"pitch": 62, "velocity": 100, "note_on_time": 12.509, "note_off_time": 12.866}, {"pitch": 42, "velocity": 100, "note_on_time": 12.155, "note_off_time": 12.867}, {"pitch": 62, "velocity": 100, "note_on_time": 12.866, "note_off_time": 13.224}, {"pitch": 62, "velocity": 100, "note_on_time": 13.224, "note_off_time": 13.579}, {"pitch": 42, "velocity": 100, "note_on_time": 12.867, "note_off_time": 13.579}, {"pitch": 62, "velocity": 100, "note_on_time": 13.579, "note_off_time": 13.936}, {"pitch": 62, "velocity": 100, "note_on_time": 13.936, "note_off_time": 14.295}, {"pitch": 42, "velocity": 100, "note_on_time": 13.579, "note_off_time": 14.295}, {"pitch": 62, "velocity": 100, "note_on_time": 14.295, "note_off_time": 14.655}, {"pitch": 62, "velocity": 100, "note_on_time": 14.655, "note_off_time": 15.013}, {"pitch": 39, "velocity": 100, "note_on_time": 14.295, "note_off_time": 15.013}, {"pitch": 62, "velocity": 100, "note_on_time": 15.013, "note_off_time": 15.368}, {"pitch": 62, "velocity": 100, "note_on_time": 15.368, "note_off_time": 15.724}, {"pitch": 42, "velocity": 100, "note_on_time": 15.013, "note_off_time": 15.724}, {"pitch": 62, "velocity": 100, "note_on_time": 15.724, "note_off_time": 16.439}, {"pitch": 42, "velocity": 100, "note_on_time": 15.724, "note_off_time": 16.44}, {"pitch": 62, "velocity": 100, "note_on_time": 16.439, "note_off_time": 16.795}, {"pitch": 42, "velocity": 100, "note_on_time": 16.44, "note_off_time": 17.155}]</notes><options name="Option List">((4, 4), [0.5, 0.25], 3, 7, &lt;NoteRangePerHand.TWO_NOTES: 3&gt;, &lt;NoteRangePerHand.ONE_NOTE: 2&gt;, False, True, True, None)</options></target_notes><trials><trial trial_no="1" timestamp="2023_01_05-15_10_33"><notes name="Played Notes">[{"pitch": 62, "velocity": 98, "note_on_time": 5.364, "note_off_time": 5.635}, {"pitch": 62, "velocity": 88, "note_on_time": 5.724, "note_off_time": 6.132}, {"pitch": 62, "velocity": 95, "note_on_time": 6.421, "note_off_time": 6.614}, {"pitch": 62, "velocity": 96, "note_on_time": 6.753, "note_off_time": 6.952}, {"pitch": 62, "velocity": 96, "note_on_time": 7.099, "note_off_time": 7.566}, {"pitch": 62, "velocity": 94, "note_on_time": 7.813, "note_off_time": 7.969}, {"pitch": 62, "velocity": 88, "note_on_time": 8.161, "note_off_time": 8.324}, {"pitch": 62, "velocity": 95, "note_on_time": 8.518, "note_off_time": 8.703}, {"pitch": 62, "velocity": 91, "note_on_time": 8.881, "note_off_time": 9.045}, {"pitch": 62, "velocity": 89, "note_on_time": 9.24, "note_off_time": 9.383}, {"pitch": 62, "velocity": 90, "note_on_time": 9.597, "note_off_time": 9.741}, {"pitch": 62, "velocity": 90, "note_on_time": 9.967, "note_off_time": 10.495}, {"pitch": 62, "velocity": 93, "note_on_time": 10.716, "note_off_time": 10.882}, {"pitch": 62, "velocity": 89, "note_on_time": 11.045, "note_off_time": 11.252}, {"pitch": 62, "velocity": 95, "note_on_time": 11.408, "note_off_time": 11.771}, {"pitch": 62, "velocity": 94, "note_on_time": 11.92, "note_off_time": 12.036}, {"pitch": 62, "velocity": 93, "note_on_time": 12.228, "note_off_time": 12.363}, {"pitch": 62, "velocity": 90, "note_on_time": 12.524, "note_off_time": 12.672}, {"pitch": 62, "velocity": 90, "note_on_time": 12.855, "note_off_time": 13.031}, {"pitch": 62, "velocity": 80, "note_on_time": 13.175, "note_off_time": 13.303}, {"pitch": 62, "velocity": 89, "note_on_time": 13.492, "note_off_time": 13.629}, {"pitch": 62, "velocity": 82, "note_on_time": 13.818, "note_off_time": 13.972}, {"pitch": 62, "velocity": 93, "note_on_time": 14.174, "note_off_time": 14.304}, {"pitch": 62, "velocity": 88, "note_on_time": 14.508, "note_off_time": 14.675}, {"pitch": 62, "velocity": 93, "note_on_time": 14.877, "note_off_time": 15.023}, {"pitch": 62, "velocity": 95, "note_on_time": 15.239, "note_off_time": 15.399}, {"pitch": 62, "velocity": 94, "note_on_time": 15.614, "note_off_time": 16.198}]</notes><guidance name="Guidance Mode">None</guidance><error name="Error value">0.25080312962962975</error></trial></trials></MIDI>