<MIDI midiNo="2023_01_05-15_29_57"><target_notes><notes name="Note List">[{"pitch": 39, "velocity": 100, "note_on_time": 0.011, "note_off_time": 0.725}, {"pitch": 42, "velocity": 100, "note_on_time": 0.725, "note_off_time": 1.442}, {"pitch": 42, "velocity": 100, "note_on_time": 1.443, "note_off_time": 2.16}, {"pitch": 42, "velocity": 100, "note_on_time": 2.161, "note_off_time": 2.879}, {"pitch": 65, "velocity": 100, "note_on_time": 2.878, "note_off_time": 3.59}, {"pitch": 39, "velocity": 100, "note_on_time": 2.879, "note_off_time": 3.59}, {"pitch": 65, "velocity": 100, "note_on_time": 3.59, "note_off_time": 3.949}, {"pitch": 67, "velocity": 100, "note_on_time": 3.949, "note_off_time": 4.307}, {"pitch": 42, "velocity": 100, "note_on_time": 3.591, "note_off_time": 4.307}, {"pitch": 69, "velocity": 100, "note_on_time": 4.307, "note_off_time": 5.019}, {"pitch": 42, "velocity": 100, "note_on_time": 4.307, "note_off_time": 5.02}, {"pitch": 69, "velocity": 100, "note_on_time": 5.019, "note_off_time": 5.378}, {"pitch": 70, "velocity": 100, "note_on_time": 5.378, "note_off_time": 5.737}, {"pitch": 42, "velocity": 100, "note_on_time": 5.02, "note_off_time": 5.738}, {"pitch": 72, "velocity": 100, "note_on_time": 5.737, "note_off_time": 6.453}, {"pitch": 39, "velocity": 100, "note_on_time": 5.738, "note_off_time": 6.454}, {"pitch": 74, "velocity": 100, "note_on_time": 6.453, "note_off_time": 6.811}, {"pitch": 72, "velocity": 100, "note_on_time": 6.811, "note_off_time": 7.169}, {"pitch": 42, "velocity": 100, "note_on_time": 6.454, "note_off_time": 7.17}, {"pitch": 42, "velocity": 100, "note_on_time": 7.17, "note_off_time": 7.882}, {"pitch": 69, "velocity": 100, "note_on_time": 7.169, "note_off_time": 8.602}, {"pitch": 42, "velocity": 100, "note_on_time": 7.882, "note_off_time": 8.602}, {"pitch": 72, "velocity": 100, "note_on_time": 8.602, "note_off_time": 9.317}, {"pitch": 39, "velocity": 100, "note_on_time": 8.603, "note_off_time": 9.317}, {"pitch": 70, "velocity": 100, "note_on_time": 9.317, "note_off_time": 9.674}, {"pitch": 69, "velocity": 100, "note_on_time": 9.674, "note_off_time": 10.031}, {"pitch": 42, "velocity": 100, "note_on_time": 9.317, "note_off_time": 10.031}, {"pitch": 42, "velocity": 100, "note_on_time": 10.032, "note_off_time": 10.747}, {"pitch": 67, "velocity": 100, "note_on_time": 10.031, "note_off_time": 11.46}, {"pitch": 42, "velocity": 100, "note_on_time": 10.747, "note_off_time": 11.461}, {"pitch": 70, "velocity": 100, "note_on_time": 11.46, "note_off_time": 12.176}, {"pitch": 39, "velocity": 100, "note_on_time": 11.461, "note_off_time": 12.176}, {"pitch": 69, "velocity": 100, "note_on_time": 12.176, "note_off_time": 12.536}, {"pitch": 67, "velocity": 100, "note_on_time": 12.536, "note_off_time": 12.893}, {"pitch": 42, "velocity": 100, "note_on_time": 12.176, "note_off_time": 12.894}, {"pitch": 42, "velocity": 100, "note_on_time": 12.894, "note_off_time": 13.609}, {"pitch": 65, "velocity": 100, "note_on_time": 12.893, "note_off_time": 14.325}, {"pitch": 42, "velocity": 100, "note_on_time": 13.61, "note_off_time": 14.326}, {"pitch": 65, "velocity": 100, "note_on_time": 14.325, "note_off_time": 15.044}, {"pitch": 39, "velocity": 100, "note_on_time": 14.326, "note_off_time": 15.044}, {"pitch": 65, "velocity": 100, "note_on_time": 15.044, "note_off_time": 15.404}, {"pitch": 67, "velocity": 100, "note_on_time": 15.404, "note_off_time": 15.759}, {"pitch": 42, "velocity": 100, "note_on_time": 15.044, "note_off_time": 15.759}, {"pitch": 69, "velocity": 100, "note_on_time": 15.759, "note_off_time": 16.475}, {"pitch": 42, "velocity": 100, "note_on_time": 15.759, "note_off_time": 16.475}, {"pitch": 69, "velocity": 100, "note_on_time": 16.475, "note_off_time": 16.831}, {"pitch": 70, "velocity": 100, "note_on_time": 16.831, "note_off_time": 17.189}, {"pitch": 42, "velocity": 100, "note_on_time": 16.476, "note_off_time": 17.189}, {"pitch": 72, "velocity": 100, "note_on_time": 17.189, "note_off_time": 17.909}, {"pitch": 39, "velocity": 100, "note_on_time": 17.189, "note_off_time": 17.909}, {"pitch": 74, "velocity": 100, "note_on_time": 17.909, "note_off_time": 18.266}, {"pitch": 72, "velocity": 100, "note_on_time": 18.266, "note_off_time": 18.628}, {"pitch": 42, "velocity": 100, "note_on_time": 17.909, "note_off_time": 18.628}, {"pitch": 42, "velocity": 100, "note_on_time": 18.628, "note_off_time": 19.344}, {"pitch": 69, "velocity": 100, "note_on_time": 18.628, "note_off_time": 20.06}, {"pitch": 42, "velocity": 100, "note_on_time": 19.344, "note_off_time": 20.06}, {"pitch": 72, "velocity": 100, "note_on_time": 20.06, "note_off_time": 20.775}, {"pitch": 39, "velocity": 100, "note_on_time": 20.06, "note_off_time": 20.775}, {"pitch": 70, "velocity": 100, "note_on_time": 20.775, "note_off_time": 21.132}, {"pitch": 69, "velocity": 100, "note_on_time": 21.132, "note_off_time": 21.493}, {"pitch": 42, "velocity": 100, "note_on_time": 20.775, "note_off_time": 21.493}, {"pitch": 67, "velocity": 100, "note_on_time": 21.493, "note_off_time": 22.215}, {"pitch": 42, "velocity": 100, "note_on_time": 21.493, "note_off_time": 22.215}, {"pitch": 69, "velocity": 100, "note_on_time": 22.215, "note_off_time": 22.577}, {"pitch": 67, "velocity": 100, "note_on_time": 22.577, "note_off_time": 22.937}, {"pitch": 42, "velocity": 100, "note_on_time": 22.215, "note_off_time": 22.937}, {"pitch": 39, "velocity": 100, "note_on_time": 22.937, "note_off_time": 23.656}, {"pitch": 42, "velocity": 100, "note_on_time": 23.656, "note_off_time": 24.372}, {"pitch": 42, "velocity": 100, "note_on_time": 24.372, "note_off_time": 25.089}, {"pitch": 65, "velocity": 100, "note_on_time": 22.937, "note_off_time": 25.806}, {"pitch": 42, "velocity": 100, "note_on_time": 25.089, "note_off_time": 25.806}, {"pitch": 72, "velocity": 100, "note_on_time": 25.806, "note_off_time": 26.522}, {"pitch": 39, "velocity": 100, "note_on_time": 25.806, "note_off_time": 26.523}, {"pitch": 70, "velocity": 100, "note_on_time": 26.522, "note_off_time": 26.878}, {"pitch": 69, "velocity": 100, "note_on_time": 26.878, "note_off_time": 27.236}, {"pitch": 42, "velocity": 100, "note_on_time": 26.523, "note_off_time": 27.236}, {"pitch": 67, "velocity": 100, "note_on_time": 27.236, "note_off_time": 27.952}, {"pitch": 42, "velocity": 100, "note_on_time": 27.237, "note_off_time": 27.953}, {"pitch": 60, "velocity": 100, "note_on_time": 27.952, "note_off_time": 28.311}, {"pitch": 60, "velocity": 100, "note_on_time": 28.311, "note_off_time": 28.669}, {"pitch": 42, "velocity": 100, "note_on_time": 27.953, "note_off_time": 28.67}, {"pitch": 70, "velocity": 100, "note_on_time": 28.669, "note_off_time": 29.385}, {"pitch": 39, "velocity": 100, "note_on_time": 28.67, "note_off_time": 29.385}, {"pitch": 69, "velocity": 100, "note_on_time": 29.385, "note_off_time": 29.742}, {"pitch": 67, "velocity": 100, "note_on_time": 29.742, "note_off_time": 30.101}, {"pitch": 42, "velocity": 100, "note_on_time": 29.386, "note_off_time": 30.102}, {"pitch": 42, "velocity": 100, "note_on_time": 30.102, "note_off_time": 30.816}, {"pitch": 65, "velocity": 100, "note_on_time": 30.101, "note_off_time": 31.533}, {"pitch": 42, "velocity": 100, "note_on_time": 30.816, "note_off_time": 31.533}, {"pitch": 72, "velocity": 100, "note_on_time": 31.533, "note_off_time": 32.249}, {"pitch": 39, "velocity": 100, "note_on_time": 31.533, "note_off_time": 32.25}, {"pitch": 70, "velocity": 100, "note_on_time": 32.249, "note_off_time": 32.608}, {"pitch": 69, "velocity": 100, "note_on_time": 32.608, "note_off_time": 32.967}, {"pitch": 42, "velocity": 100, "note_on_time": 32.25, "note_off_time": 32.967}, {"pitch": 67, "velocity": 100, "note_on_time": 32.967, "note_off_time": 33.682}, {"pitch": 42, "velocity": 100, "note_on_time": 32.967, "note_off_time": 33.683}, {"pitch": 60, "velocity": 100, "note_on_time": 33.682, "note_off_time": 34.041}, {"pitch": 60, "velocity": 100, "note_on_time": 34.041, "note_off_time": 34.399}, {"pitch": 42, "velocity": 100, "note_on_time": 33.683, "note_off_time": 34.4}, {"pitch": 70, "velocity": 100, "note_on_time": 34.399, "note_off_time": 35.115}, {"pitch": 39, "velocity": 100, "note_on_time": 34.4, "note_off_time": 35.115}, {"pitch": 69, "velocity": 100, "note_on_time": 35.115, "note_off_time": 35.471}, {"pitch": 67, "velocity": 100, "note_on_time": 35.471, "note_off_time": 35.83}, {"pitch": 42, "velocity": 100, "note_on_time": 35.115, "note_off_time": 35.83}, {"pitch": 42, "velocity": 100, "note_on_time": 35.831, "note_off_time": 36.545}, {"pitch": 65, "velocity": 100, "note_on_time": 35.83, "note_off_time": 37.263}, {"pitch": 42, "velocity": 100, "note_on_time": 36.546, "note_off_time": 37.263}, {"pitch": 65, "velocity": 100, "note_on_time": 37.263, "note_off_time": 37.974}, {"pitch": 39, "velocity": 100, "note_on_time": 37.263, "note_off_time": 37.975}, {"pitch": 65, "velocity": 100, "note_on_time": 37.974, "note_off_time": 38.331}, {"pitch": 67, "velocity": 100, "note_on_time": 38.331, "note_off_time": 38.69}, {"pitch": 42, "velocity": 100, "note_on_time": 37.975, "note_off_time": 38.69}, {"pitch": 69, "velocity": 100, "note_on_time": 38.69, "note_off_time": 39.404}, {"pitch": 42, "velocity": 100, "note_on_time": 38.69, "note_off_time": 39.405}, {"pitch": 69, "velocity": 100, "note_on_time": 39.404, "note_off_time": 39.764}, {"pitch": 70, "velocity": 100, "note_on_time": 39.764, "note_off_time": 40.122}, {"pitch": 42, "velocity": 100, "note_on_time": 39.405, "note_off_time": 40.122}, {"pitch": 72, "velocity": 100, "note_on_time": 40.122, "note_off_time": 40.84}, {"pitch": 39, "velocity": 100, "note_on_time": 40.122, "note_off_time": 40.84}, {"pitch": 74, "velocity": 100, "note_on_time": 40.84, "note_off_time": 41.198}, {"pitch": 72, "velocity": 100, "note_on_time": 41.198, "note_off_time": 41.555}, {"pitch": 42, "velocity": 100, "note_on_time": 40.84, "note_off_time": 41.555}, {"pitch": 42, "velocity": 100, "note_on_time": 41.555, "note_off_time": 42.277}, {"pitch": 69, "velocity": 100, "note_on_time": 41.555, "note_off_time": 42.996}, {"pitch": 42, "velocity": 100, "note_on_time": 42.277, "note_off_time": 42.996}, {"pitch": 72, "velocity": 100, "note_on_time": 42.996, "note_off_time": 43.711}, {"pitch": 39, "velocity": 100, "note_on_time": 42.996, "note_off_time": 43.711}, {"pitch": 70, "velocity": 100, "note_on_time": 43.711, "note_off_time": 44.068}, {"pitch": 69, "velocity": 100, "note_on_time": 44.068, "note_off_time": 44.427}, {"pitch": 42, "velocity": 100, "note_on_time": 43.711, "note_off_time": 44.427}, {"pitch": 67, "velocity": 100, "note_on_time": 44.427, "note_off_time": 45.143}, {"pitch": 42, "velocity": 100, "note_on_time": 44.427, "note_off_time": 45.143}, {"pitch": 69, "velocity": 100, "note_on_time": 45.143, "note_off_time": 45.499}, {"pitch": 67, "velocity": 100, "note_on_time": 45.499, "note_off_time": 45.857}, {"pitch": 42, "velocity": 100, "note_on_time": 45.144, "note_off_time": 45.857}, {"pitch": 39, "velocity": 100, "note_on_time": 45.857, "note_off_time": 46.572}, {"pitch": 42, "velocity": 100, "note_on_time": 46.572, "note_off_time": 47.288}, {"pitch": 42, "velocity": 100, "note_on_time": 47.288, "note_off_time": 47.998}, {"pitch": 65, "velocity": 100, "note_on_time": 45.857, "note_off_time": 48.714}, {"pitch": 42, "velocity": 100, "note_on_time": 47.999, "note_off_time": 48.715}]</notes><options name="Option List">((4, 4), [0.5, 0.25], 3, 7, &lt;NoteRangePerHand.TWO_NOTES: 3&gt;, &lt;NoteRangePerHand.ONE_NOTE: 2&gt;, False, True, True, None)</options></target_notes><trials><trial trial_no="1" timestamp="2023_01_05-15_29_57"><notes name="Played Notes">[{"pitch": 65, "velocity": 95, "note_on_time": 2.889, "note_off_time": 3.38}, {"pitch": 65, "velocity": 89, "note_on_time": 3.565, "note_off_time": 3.928}, {"pitch": 67, "velocity": 83, "note_on_time": 3.908, "note_off_time": 4.288}, {"pitch": 69, "velocity": 96, "note_on_time": 4.251, "note_off_time": 4.703}, {"pitch": 67, "velocity": 75, "note_on_time": 4.896, "note_off_time": 5.298}, {"pitch": 70, "velocity": 75, "note_on_time": 5.26, "note_off_time": 5.644}, {"pitch": 70, "velocity": 79, "note_on_time": 11.495, "note_off_time": 12.24}, {"pitch": 67, "velocity": 66, "note_on_time": 12.209, "note_off_time": 12.551}, {"pitch": 65, "velocity": 86, "note_on_time": 12.525, "note_off_time": 12.923}, {"pitch": 65, "velocity": 107, "note_on_time": 12.994, "note_off_time": 13.802}, {"pitch": 65, "velocity": 101, "note_on_time": 14.274, "note_off_time": 14.863}, {"pitch": 65, "velocity": 77, "note_on_time": 14.964, "note_off_time": 15.362}, {"pitch": 67, "velocity": 85, "note_on_time": 15.324, "note_off_time": 15.707}, {"pitch": 69, "velocity": 94, "note_on_time": 15.687, "note_off_time": 16.331}, {"pitch": 67, "velocity": 87, "note_on_time": 16.346, "note_off_time": 16.76}, {"pitch": 70, "velocity": 86, "note_on_time": 16.696, "note_off_time": 17.145}, {"pitch": 72, "velocity": 86, "note_on_time": 17.084, "note_off_time": 18.352}, {"pitch": 70, "velocity": 73, "note_on_time": 18.709, "note_off_time": 18.919}, {"pitch": 69, "velocity": 97, "note_on_time": 19.012, "note_off_time": 19.652}, {"pitch": 71, "velocity": 81, "note_on_time": 20.223, "note_off_time": 20.313}, {"pitch": 72, "velocity": 83, "note_on_time": 20.223, "note_off_time": 20.931}, {"pitch": 70, "velocity": 66, "note_on_time": 20.782, "note_off_time": 21.091}, {"pitch": 69, "velocity": 93, "note_on_time": 21.068, "note_off_time": 21.479}, {"pitch": 67, "velocity": 91, "note_on_time": 21.434, "note_off_time": 22.722}, {"pitch": 69, "velocity": 91, "note_on_time": 22.722, "note_off_time": 22.722}, {"pitch": 67, "velocity": 87, "note_on_time": 22.722, "note_off_time": 22.906}, {"pitch": 65, "velocity": 89, "note_on_time": 22.845, "note_off_time": 25.879}, {"pitch": 72, "velocity": 91, "note_on_time": 25.865, "note_off_time": 26.641}, {"pitch": 70, "velocity": 91, "note_on_time": 26.579, "note_off_time": 26.878}, {"pitch": 69, "velocity": 93, "note_on_time": 26.85, "note_off_time": 27.296}, {"pitch": 67, "velocity": 86, "note_on_time": 27.255, "note_off_time": 28.021}, {"pitch": 60, "velocity": 59, "note_on_time": 27.934, "note_off_time": 28.136}, {"pitch": 60, "velocity": 92, "note_on_time": 28.27, "note_off_time": 28.588}, {"pitch": 72, "velocity": 70, "note_on_time": 28.803, "note_off_time": 28.898}, {"pitch": 71, "velocity": 81, "note_on_time": 28.802, "note_off_time": 28.934}, {"pitch": 70, "velocity": 26, "note_on_time": 28.814, "note_off_time": 29.353}, {"pitch": 70, "velocity": 86, "note_on_time": 29.431, "note_off_time": 29.772}, {"pitch": 69, "velocity": 76, "note_on_time": 29.738, "note_off_time": 29.969}, {"pitch": 67, "velocity": 74, "note_on_time": 29.942, "note_off_time": 30.179}, {"pitch": 65, "velocity": 89, "note_on_time": 30.204, "note_off_time": 31.468}, {"pitch": 74, "velocity": 80, "note_on_time": 31.524, "note_off_time": 31.846}, {"pitch": 72, "velocity": 94, "note_on_time": 31.813, "note_off_time": 32.336}, {"pitch": 70, "velocity": 83, "note_on_time": 32.264, "note_off_time": 32.645}, {"pitch": 69, "velocity": 84, "note_on_time": 32.603, "note_off_time": 33.013}, {"pitch": 67, "velocity": 92, "note_on_time": 32.967, "note_off_time": 33.742}, {"pitch": 60, "velocity": 82, "note_on_time": 33.634, "note_off_time": 33.892}, {"pitch": 62, "velocity": 79, "note_on_time": 34.033, "note_off_time": 34.217}, {"pitch": 60, "velocity": 84, "note_on_time": 34.027, "note_off_time": 34.449}, {"pitch": 70, "velocity": 72, "note_on_time": 34.434, "note_off_time": 35.084}, {"pitch": 69, "velocity": 90, "note_on_time": 35.016, "note_off_time": 35.442}, {"pitch": 67, "velocity": 85, "note_on_time": 35.392, "note_off_time": 35.838}, {"pitch": 65, "velocity": 88, "note_on_time": 35.773, "note_off_time": 37.08}, {"pitch": 65, "velocity": 100, "note_on_time": 37.283, "note_off_time": 37.853}, {"pitch": 65, "velocity": 97, "note_on_time": 37.999, "note_off_time": 38.369}, {"pitch": 67, "velocity": 82, "note_on_time": 38.354, "note_off_time": 38.701}, {"pitch": 69, "velocity": 93, "note_on_time": 38.681, "note_off_time": 39.354}, {"pitch": 67, "velocity": 83, "note_on_time": 39.384, "note_off_time": 39.777}, {"pitch": 70, "velocity": 76, "note_on_time": 39.728, "note_off_time": 40.157}, {"pitch": 72, "velocity": 78, "note_on_time": 40.169, "note_off_time": 40.89}, {"pitch": 74, "velocity": 89, "note_on_time": 40.867, "note_off_time": 41.266}, {"pitch": 72, "velocity": 88, "note_on_time": 41.208, "note_off_time": 41.775}, {"pitch": 69, "velocity": 72, "note_on_time": 41.781, "note_off_time": 43.028}, {"pitch": 72, "velocity": 84, "note_on_time": 43.015, "note_off_time": 43.88}, {"pitch": 70, "velocity": 78, "note_on_time": 43.759, "note_off_time": 44.102}, {"pitch": 69, "velocity": 77, "note_on_time": 44.043, "note_off_time": 44.493}, {"pitch": 67, "velocity": 91, "note_on_time": 44.433, "note_off_time": 45.126}, {"pitch": 69, "velocity": 90, "note_on_time": 45.12, "note_off_time": 45.499}, {"pitch": 67, "velocity": 94, "note_on_time": 45.462, "note_off_time": 45.879}, {"pitch": 65, "velocity": 91, "note_on_time": 45.832, "note_off_time": 48.601}]</notes><guidance name="Guidance Mode">None</guidance><error name="Error value">1.0186165410628014</error></trial></trials></MIDI>