<MIDI midiNo="2023_01_05-15_32_34"><target_notes><notes name="Note List">[{"pitch": 39, "velocity": 100, "note_on_time": 0.011, "note_off_time": 0.732}, {"pitch": 42, "velocity": 100, "note_on_time": 0.733, "note_off_time": 1.448}, {"pitch": 42, "velocity": 100, "note_on_time": 1.449, "note_off_time": 2.164}, {"pitch": 42, "velocity": 100, "note_on_time": 2.164, "note_off_time": 2.877}, {"pitch": 65, "velocity": 100, "note_on_time": 2.877, "note_off_time": 3.593}, {"pitch": 39, "velocity": 100, "note_on_time": 2.878, "note_off_time": 3.593}, {"pitch": 65, "velocity": 100, "note_on_time": 3.593, "note_off_time": 3.949}, {"pitch": 67, "velocity": 100, "note_on_time": 3.949, "note_off_time": 4.304}, {"pitch": 42, "velocity": 100, "note_on_time": 3.593, "note_off_time": 4.304}, {"pitch": 69, "velocity": 100, "note_on_time": 4.304, "note_off_time": 5.021}, {"pitch": 42, "velocity": 100, "note_on_time": 4.305, "note_off_time": 5.021}, {"pitch": 69, "velocity": 100, "note_on_time": 5.021, "note_off_time": 5.377}, {"pitch": 70, "velocity": 100, "note_on_time": 5.377, "note_off_time": 5.736}, {"pitch": 42, "velocity": 100, "note_on_time": 5.021, "note_off_time": 5.736}, {"pitch": 72, "velocity": 100, "note_on_time": 5.736, "note_off_time": 6.451}, {"pitch": 39, "velocity": 100, "note_on_time": 5.736, "note_off_time": 6.452}, {"pitch": 74, "velocity": 100, "note_on_time": 6.451, "note_off_time": 6.809}, {"pitch": 72, "velocity": 100, "note_on_time": 6.809, "note_off_time": 7.167}, {"pitch": 42, "velocity": 100, "note_on_time": 6.452, "note_off_time": 7.167}, {"pitch": 42, "velocity": 100, "note_on_time": 7.167, "note_off_time": 7.884}, {"pitch": 69, "velocity": 100, "note_on_time": 7.167, "note_off_time": 8.602}, {"pitch": 42, "velocity": 100, "note_on_time": 7.884, "note_off_time": 8.602}, {"pitch": 72, "velocity": 100, "note_on_time": 8.602, "note_off_time": 9.316}, {"pitch": 39, "velocity": 100, "note_on_time": 8.603, "note_off_time": 9.316}, {"pitch": 70, "velocity": 100, "note_on_time": 9.316, "note_off_time": 9.672}, {"pitch": 69, "velocity": 100, "note_on_time": 9.672, "note_off_time": 10.029}, {"pitch": 42, "velocity": 100, "note_on_time": 9.316, "note_off_time": 10.03}, {"pitch": 42, "velocity": 100, "note_on_time": 10.03, "note_off_time": 10.744}, {"pitch": 67, "velocity": 100, "note_on_time": 10.029, "note_off_time": 11.457}, {"pitch": 42, "velocity": 100, "note_on_time": 10.744, "note_off_time": 11.457}, {"pitch": 70, "velocity": 100, "note_on_time": 11.457, "note_off_time": 12.174}, {"pitch": 39, "velocity": 100, "note_on_time": 11.457, "note_off_time": 12.175}, {"pitch": 69, "velocity": 100, "note_on_time": 12.174, "note_off_time": 12.531}, {"pitch": 67, "velocity": 100, "note_on_time": 12.531, "note_off_time": 12.89}, {"pitch": 42, "velocity": 100, "note_on_time": 12.175, "note_off_time": 12.891}, {"pitch": 42, "velocity": 100, "note_on_time": 12.891, "note_off_time": 13.608}, {"pitch": 65, "velocity": 100, "note_on_time": 12.89, "note_off_time": 14.323}, {"pitch": 42, "velocity": 100, "note_on_time": 13.609, "note_off_time": 14.323}, {"pitch": 65, "velocity": 100, "note_on_time": 14.323, "note_off_time": 15.043}, {"pitch": 39, "velocity": 100, "note_on_time": 14.323, "note_off_time": 15.044}, {"pitch": 65, "velocity": 100, "note_on_time": 15.043, "note_off_time": 15.403}, {"pitch": 67, "velocity": 100, "note_on_time": 15.403, "note_off_time": 15.762}, {"pitch": 42, "velocity": 100, "note_on_time": 15.044, "note_off_time": 15.762}, {"pitch": 69, "velocity": 100, "note_on_time": 15.762, "note_off_time": 16.482}, {"pitch": 42, "velocity": 100, "note_on_time": 15.763, "note_off_time": 16.482}, {"pitch": 69, "velocity": 100, "note_on_time": 16.482, "note_off_time": 16.842}, {"pitch": 70, "velocity": 100, "note_on_time": 16.842, "note_off_time": 17.201}, {"pitch": 42, "velocity": 100, "note_on_time": 16.482, "note_off_time": 17.201}, {"pitch": 72, "velocity": 100, "note_on_time": 17.201, "note_off_time": 17.918}, {"pitch": 39, "velocity": 100, "note_on_time": 17.201, "note_off_time": 17.918}, {"pitch": 74, "velocity": 100, "note_on_time": 17.918, "note_off_time": 18.278}, {"pitch": 72, "velocity": 100, "note_on_time": 18.278, "note_off_time": 18.636}, {"pitch": 42, "velocity": 100, "note_on_time": 17.918, "note_off_time": 18.637}, {"pitch": 42, "velocity": 100, "note_on_time": 18.637, "note_off_time": 19.351}, {"pitch": 69, "velocity": 100, "note_on_time": 18.636, "note_off_time": 20.068}, {"pitch": 42, "velocity": 100, "note_on_time": 19.352, "note_off_time": 20.068}, {"pitch": 72, "velocity": 100, "note_on_time": 20.068, "note_off_time": 20.787}, {"pitch": 39, "velocity": 100, "note_on_time": 20.069, "note_off_time": 20.787}, {"pitch": 70, "velocity": 100, "note_on_time": 20.787, "note_off_time": 21.147}, {"pitch": 69, "velocity": 100, "note_on_time": 21.147, "note_off_time": 21.504}, {"pitch": 42, "velocity": 100, "note_on_time": 20.787, "note_off_time": 21.504}, {"pitch": 67, "velocity": 100, "note_on_time": 21.504, "note_off_time": 22.22}, {"pitch": 42, "velocity": 100, "note_on_time": 21.505, "note_off_time": 22.22}, {"pitch": 69, "velocity": 100, "note_on_time": 22.22, "note_off_time": 22.58}, {"pitch": 67, "velocity": 100, "note_on_time": 22.58, "note_off_time": 22.935}, {"pitch": 42, "velocity": 100, "note_on_time": 22.22, "note_off_time": 22.936}, {"pitch": 39, "velocity": 100, "note_on_time": 22.936, "note_off_time": 23.654}, {"pitch": 42, "velocity": 100, "note_on_time": 23.654, "note_off_time": 24.369}, {"pitch": 42, "velocity": 100, "note_on_time": 24.369, "note_off_time": 25.085}, {"pitch": 65, "velocity": 100, "note_on_time": 22.935, "note_off_time": 25.802}, {"pitch": 42, "velocity": 100, "note_on_time": 25.085, "note_off_time": 25.802}, {"pitch": 72, "velocity": 100, "note_on_time": 25.802, "note_off_time": 26.517}, {"pitch": 39, "velocity": 100, "note_on_time": 25.802, "note_off_time": 26.517}, {"pitch": 70, "velocity": 100, "note_on_time": 26.517, "note_off_time": 26.875}, {"pitch": 69, "velocity": 100, "note_on_time": 26.875, "note_off_time": 27.232}, {"pitch": 42, "velocity": 100, "note_on_time": 26.518, "note_off_time": 27.233}, {"pitch": 67, "velocity": 100, "note_on_time": 27.232, "note_off_time": 27.946}, {"pitch": 42, "velocity": 100, "note_on_time": 27.233, "note_off_time": 27.946}, {"pitch": 60, "velocity": 100, "note_on_time": 27.946, "note_off_time": 28.306}, {"pitch": 60, "velocity": 100, "note_on_time": 28.306, "note_off_time": 28.664}, {"pitch": 42, "velocity": 100, "note_on_time": 27.946, "note_off_time": 28.664}, {"pitch": 70, "velocity": 100, "note_on_time": 28.664, "note_off_time": 29.383}, {"pitch": 39, "velocity": 100, "note_on_time": 28.664, "note_off_time": 29.383}, {"pitch": 69, "velocity": 100, "note_on_time": 29.383, "note_off_time": 29.743}, {"pitch": 67, "velocity": 100, "note_on_time": 29.743, "note_off_time": 30.099}, {"pitch": 42, "velocity": 100, "note_on_time": 29.383, "note_off_time": 30.1}, {"pitch": 42, "velocity": 100, "note_on_time": 30.1, "note_off_time": 30.817}, {"pitch": 65, "velocity": 100, "note_on_time": 30.099, "note_off_time": 31.533}, {"pitch": 42, "velocity": 100, "note_on_time": 30.818, "note_off_time": 31.533}, {"pitch": 72, "velocity": 100, "note_on_time": 31.533, "note_off_time": 32.25}, {"pitch": 39, "velocity": 100, "note_on_time": 31.533, "note_off_time": 32.25}, {"pitch": 70, "velocity": 100, "note_on_time": 32.25, "note_off_time": 32.605}, {"pitch": 69, "velocity": 100, "note_on_time": 32.605, "note_off_time": 32.965}, {"pitch": 42, "velocity": 100, "note_on_time": 32.25, "note_off_time": 32.966}, {"pitch": 67, "velocity": 100, "note_on_time": 32.965, "note_off_time": 33.679}, {"pitch": 42, "velocity": 100, "note_on_time": 32.966, "note_off_time": 33.679}, {"pitch": 60, "velocity": 100, "note_on_time": 33.679, "note_off_time": 34.035}, {"pitch": 60, "velocity": 100, "note_on_time": 34.035, "note_off_time": 34.392}, {"pitch": 42, "velocity": 100, "note_on_time": 33.68, "note_off_time": 34.392}, {"pitch": 70, "velocity": 100, "note_on_time": 34.392, "note_off_time": 35.108}, {"pitch": 39, "velocity": 100, "note_on_time": 34.393, "note_off_time": 35.109}, {"pitch": 69, "velocity": 100, "note_on_time": 35.108, "note_off_time": 35.467}, {"pitch": 67, "velocity": 100, "note_on_time": 35.467, "note_off_time": 35.826}, {"pitch": 42, "velocity": 100, "note_on_time": 35.109, "note_off_time": 35.827}, {"pitch": 42, "velocity": 100, "note_on_time": 35.827, "note_off_time": 36.544}, {"pitch": 65, "velocity": 100, "note_on_time": 35.826, "note_off_time": 37.26}, {"pitch": 42, "velocity": 100, "note_on_time": 36.544, "note_off_time": 37.26}, {"pitch": 65, "velocity": 100, "note_on_time": 37.26, "note_off_time": 37.976}, {"pitch": 39, "velocity": 100, "note_on_time": 37.26, "note_off_time": 37.977}, {"pitch": 65, "velocity": 100, "note_on_time": 37.976, "note_off_time": 38.333}, {"pitch": 67, "velocity": 100, "note_on_time": 38.333, "note_off_time": 38.691}, {"pitch": 42, "velocity": 100, "note_on_time": 37.977, "note_off_time": 38.691}, {"pitch": 69, "velocity": 100, "note_on_time": 38.691, "note_off_time": 39.408}, {"pitch": 42, "velocity": 100, "note_on_time": 38.692, "note_off_time": 39.409}, {"pitch": 69, "velocity": 100, "note_on_time": 39.408, "note_off_time": 39.769}, {"pitch": 70, "velocity": 100, "note_on_time": 39.769, "note_off_time": 40.128}, {"pitch": 42, "velocity": 100, "note_on_time": 39.409, "note_off_time": 40.128}, {"pitch": 72, "velocity": 100, "note_on_time": 40.128, "note_off_time": 40.842}, {"pitch": 39, "velocity": 100, "note_on_time": 40.128, "note_off_time": 40.842}, {"pitch": 74, "velocity": 100, "note_on_time": 40.842, "note_off_time": 41.199}, {"pitch": 72, "velocity": 100, "note_on_time": 41.199, "note_off_time": 41.554}, {"pitch": 42, "velocity": 100, "note_on_time": 40.842, "note_off_time": 41.555}, {"pitch": 42, "velocity": 100, "note_on_time": 41.555, "note_off_time": 42.27}, {"pitch": 69, "velocity": 100, "note_on_time": 41.554, "note_off_time": 42.987}, {"pitch": 42, "velocity": 100, "note_on_time": 42.271, "note_off_time": 42.988}, {"pitch": 72, "velocity": 100, "note_on_time": 42.987, "note_off_time": 43.708}, {"pitch": 39, "velocity": 100, "note_on_time": 42.988, "note_off_time": 43.708}, {"pitch": 70, "velocity": 100, "note_on_time": 43.708, "note_off_time": 44.066}, {"pitch": 69, "velocity": 100, "note_on_time": 44.066, "note_off_time": 44.424}, {"pitch": 42, "velocity": 100, "note_on_time": 43.708, "note_off_time": 44.425}, {"pitch": 67, "velocity": 100, "note_on_time": 44.424, "note_off_time": 45.141}, {"pitch": 42, "velocity": 100, "note_on_time": 44.425, "note_off_time": 45.141}, {"pitch": 69, "velocity": 100, "note_on_time": 45.141, "note_off_time": 45.5}, {"pitch": 67, "velocity": 100, "note_on_time": 45.5, "note_off_time": 45.859}, {"pitch": 42, "velocity": 100, "note_on_time": 45.141, "note_off_time": 45.859}, {"pitch": 39, "velocity": 100, "note_on_time": 45.859, "note_off_time": 46.576}, {"pitch": 42, "velocity": 100, "note_on_time": 46.576, "note_off_time": 47.291}, {"pitch": 42, "velocity": 100, "note_on_time": 47.291, "note_off_time": 48.006}, {"pitch": 65, "velocity": 100, "note_on_time": 45.859, "note_off_time": 48.722}, {"pitch": 42, "velocity": 100, "note_on_time": 48.006, "note_off_time": 48.722}]</notes><options name="Option List">((4, 4), [0.5, 0.25], 3, 7, &lt;NoteRangePerHand.TWO_NOTES: 3&gt;, &lt;NoteRangePerHand.ONE_NOTE: 2&gt;, False, True, True, None)</options></target_notes><trials><trial trial_no="1" timestamp="2023_01_05-15_32_34"><notes name="Played Notes">[{"pitch": 65, "velocity": 92, "note_on_time": 2.909, "note_off_time": 3.442}, {"pitch": 65, "velocity": 92, "note_on_time": 3.603, "note_off_time": 3.943}, {"pitch": 67, "velocity": 88, "note_on_time": 3.922, "note_off_time": 4.31}, {"pitch": 69, "velocity": 97, "note_on_time": 4.29, "note_off_time": 4.666}, {"pitch": 69, "velocity": 79, "note_on_time": 4.955, "note_off_time": 5.403}, {"pitch": 71, "velocity": 89, "note_on_time": 5.383, "note_off_time": 5.515}, {"pitch": 70, "velocity": 91, "note_on_time": 5.621, "note_off_time": 5.922}, {"pitch": 72, "velocity": 89, "note_on_time": 5.871, "note_off_time": 6.396}, {"pitch": 74, "velocity": 98, "note_on_time": 6.371, "note_off_time": 6.749}, {"pitch": 72, "velocity": 85, "note_on_time": 6.712, "note_off_time": 7.14}, {"pitch": 69, "velocity": 90, "note_on_time": 7.124, "note_off_time": 8.635}, {"pitch": 72, "velocity": 93, "note_on_time": 8.628, "note_off_time": 9.386}, {"pitch": 70, "velocity": 82, "note_on_time": 9.338, "note_off_time": 9.679}, {"pitch": 69, "velocity": 88, "note_on_time": 9.662, "note_off_time": 10.076}, {"pitch": 67, "velocity": 92, "note_on_time": 10.035, "note_off_time": 11.492}, {"pitch": 70, "velocity": 77, "note_on_time": 11.475, "note_off_time": 12.125}, {"pitch": 69, "velocity": 88, "note_on_time": 12.116, "note_off_time": 12.526}, {"pitch": 67, "velocity": 86, "note_on_time": 12.488, "note_off_time": 12.89}, {"pitch": 65, "velocity": 95, "note_on_time": 12.843, "note_off_time": 14.027}, {"pitch": 65, "velocity": 92, "note_on_time": 14.341, "note_off_time": 14.912}, {"pitch": 65, "velocity": 81, "note_on_time": 15.043, "note_off_time": 15.401}, {"pitch": 67, "velocity": 78, "note_on_time": 15.385, "note_off_time": 15.814}, {"pitch": 69, "velocity": 93, "note_on_time": 15.785, "note_off_time": 16.288}, {"pitch": 69, "velocity": 102, "note_on_time": 16.506, "note_off_time": 16.845}, {"pitch": 70, "velocity": 77, "note_on_time": 16.799, "note_off_time": 17.244}, {"pitch": 72, "velocity": 91, "note_on_time": 17.202, "note_off_time": 17.862}, {"pitch": 74, "velocity": 87, "note_on_time": 17.858, "note_off_time": 18.257}, {"pitch": 72, "velocity": 92, "note_on_time": 18.216, "note_off_time": 18.659}, {"pitch": 69, "velocity": 90, "note_on_time": 18.608, "note_off_time": 20.119}, {"pitch": 72, "velocity": 90, "note_on_time": 20.115, "note_off_time": 20.829}, {"pitch": 70, "velocity": 81, "note_on_time": 20.789, "note_off_time": 21.148}, {"pitch": 69, "velocity": 85, "note_on_time": 21.125, "note_off_time": 21.542}, {"pitch": 65, "velocity": 86, "note_on_time": 21.529, "note_off_time": 21.639}, {"pitch": 67, "velocity": 77, "note_on_time": 21.522, "note_off_time": 22.246}, {"pitch": 69, "velocity": 93, "note_on_time": 22.233, "note_off_time": 22.642}, {"pitch": 67, "velocity": 95, "note_on_time": 22.596, "note_off_time": 23.017}, {"pitch": 65, "velocity": 90, "note_on_time": 22.979, "note_off_time": 25.797}, {"pitch": 72, "velocity": 90, "note_on_time": 25.792, "note_off_time": 26.518}, {"pitch": 70, "velocity": 76, "note_on_time": 26.445, "note_off_time": 26.826}, {"pitch": 69, "velocity": 82, "note_on_time": 26.814, "note_off_time": 27.206}, {"pitch": 67, "velocity": 88, "note_on_time": 27.169, "note_off_time": 27.93}, {"pitch": 60, "velocity": 95, "note_on_time": 27.902, "note_off_time": 28.155}, {"pitch": 60, "velocity": 80, "note_on_time": 28.25, "note_off_time": 28.47}, {"pitch": 70, "velocity": 88, "note_on_time": 28.653, "note_off_time": 29.356}, {"pitch": 69, "velocity": 90, "note_on_time": 29.323, "note_off_time": 29.798}, {"pitch": 67, "velocity": 78, "note_on_time": 29.664, "note_off_time": 30.127}, {"pitch": 65, "velocity": 92, "note_on_time": 30.072, "note_off_time": 31.577}, {"pitch": 72, "velocity": 91, "note_on_time": 31.583, "note_off_time": 32.314}, {"pitch": 70, "velocity": 91, "note_on_time": 32.266, "note_off_time": 32.626}, {"pitch": 69, "velocity": 89, "note_on_time": 32.594, "note_off_time": 33.005}, {"pitch": 67, "velocity": 88, "note_on_time": 32.984, "note_off_time": 33.668}, {"pitch": 60, "velocity": 84, "note_on_time": 33.658, "note_off_time": 33.911}, {"pitch": 60, "velocity": 93, "note_on_time": 34.004, "note_off_time": 34.267}, {"pitch": 70, "velocity": 83, "note_on_time": 34.434, "note_off_time": 35.113}, {"pitch": 69, "velocity": 86, "note_on_time": 35.07, "note_off_time": 35.45}, {"pitch": 67, "velocity": 87, "note_on_time": 35.419, "note_off_time": 35.858}, {"pitch": 65, "velocity": 90, "note_on_time": 35.808, "note_off_time": 36.946}, {"pitch": 65, "velocity": 89, "note_on_time": 37.264, "note_off_time": 37.828}, {"pitch": 65, "velocity": 88, "note_on_time": 37.996, "note_off_time": 38.342}, {"pitch": 67, "velocity": 83, "note_on_time": 38.318, "note_off_time": 38.756}, {"pitch": 69, "velocity": 75, "note_on_time": 38.655, "note_off_time": 39.215}, {"pitch": 69, "velocity": 83, "note_on_time": 39.364, "note_off_time": 39.73}, {"pitch": 70, "velocity": 83, "note_on_time": 39.713, "note_off_time": 40.142}, {"pitch": 72, "velocity": 86, "note_on_time": 40.099, "note_off_time": 40.828}, {"pitch": 71, "velocity": 82, "note_on_time": 41.211, "note_off_time": 41.254}, {"pitch": 74, "velocity": 91, "note_on_time": 40.826, "note_off_time": 41.272}, {"pitch": 72, "velocity": 79, "note_on_time": 41.21, "note_off_time": 41.655}, {"pitch": 69, "velocity": 91, "note_on_time": 41.599, "note_off_time": 43.006}, {"pitch": 72, "velocity": 86, "note_on_time": 43.011, "note_off_time": 43.696}, {"pitch": 70, "velocity": 75, "note_on_time": 43.647, "note_off_time": 44.043}, {"pitch": 69, "velocity": 76, "note_on_time": 44.022, "note_off_time": 44.434}, {"pitch": 67, "velocity": 78, "note_on_time": 44.391, "note_off_time": 45.099}, {"pitch": 69, "velocity": 88, "note_on_time": 45.089, "note_off_time": 45.452}, {"pitch": 67, "velocity": 92, "note_on_time": 45.422, "note_off_time": 45.841}, {"pitch": 65, "velocity": 94, "note_on_time": 45.794, "note_off_time": 48.721}]</notes><guidance name="Guidance Mode">None</guidance><error name="Error value">1.658109902777773</error></trial></trials></MIDI>