<MIDI midiNo="2023_01_05-15_01_55"><target_notes><notes name="Note List">[{"pitch": 39, "velocity": 100, "note_on_time": 0.005, "note_off_time": 0.717}, {"pitch": 42, "velocity": 100, "note_on_time": 0.718, "note_off_time": 1.431}, {"pitch": 42, "velocity": 100, "note_on_time": 1.432, "note_off_time": 2.145}, {"pitch": 39, "velocity": 100, "note_on_time": 2.145, "note_off_time": 2.859}, {"pitch": 42, "velocity": 100, "note_on_time": 2.859, "note_off_time": 3.573}, {"pitch": 67, "velocity": 100, "note_on_time": 3.573, "note_off_time": 3.929}, {"pitch": 67, "velocity": 100, "note_on_time": 3.929, "note_off_time": 4.286}, {"pitch": 42, "velocity": 100, "note_on_time": 3.573, "note_off_time": 4.287}, {"pitch": 69, "velocity": 100, "note_on_time": 4.286, "note_off_time": 4.999}, {"pitch": 39, "velocity": 100, "note_on_time": 4.287, "note_off_time": 5.0}, {"pitch": 67, "velocity": 100, "note_on_time": 4.999, "note_off_time": 5.711}, {"pitch": 42, "velocity": 100, "note_on_time": 5.0, "note_off_time": 5.712}, {"pitch": 72, "velocity": 100, "note_on_time": 5.711, "note_off_time": 6.426}, {"pitch": 42, "velocity": 100, "note_on_time": 5.712, "note_off_time": 6.426}, {"pitch": 39, "velocity": 100, "note_on_time": 6.427, "note_off_time": 7.139}, {"pitch": 71, "velocity": 100, "note_on_time": 6.426, "note_off_time": 7.855}, {"pitch": 42, "velocity": 100, "note_on_time": 7.14, "note_off_time": 7.855}, {"pitch": 67, "velocity": 100, "note_on_time": 7.855, "note_off_time": 8.211}, {"pitch": 67, "velocity": 100, "note_on_time": 8.211, "note_off_time": 8.571}, {"pitch": 42, "velocity": 100, "note_on_time": 7.855, "note_off_time": 8.572}, {"pitch": 69, "velocity": 100, "note_on_time": 8.571, "note_off_time": 9.287}, {"pitch": 39, "velocity": 100, "note_on_time": 8.572, "note_off_time": 9.287}, {"pitch": 67, "velocity": 100, "note_on_time": 9.287, "note_off_time": 10.001}, {"pitch": 42, "velocity": 100, "note_on_time": 9.287, "note_off_time": 10.001}, {"pitch": 74, "velocity": 100, "note_on_time": 10.001, "note_off_time": 10.717}, {"pitch": 42, "velocity": 100, "note_on_time": 10.002, "note_off_time": 10.717}, {"pitch": 39, "velocity": 100, "note_on_time": 10.718, "note_off_time": 11.431}, {"pitch": 72, "velocity": 100, "note_on_time": 10.717, "note_off_time": 12.145}, {"pitch": 42, "velocity": 100, "note_on_time": 11.431, "note_off_time": 12.145}, {"pitch": 67, "velocity": 100, "note_on_time": 12.145, "note_off_time": 12.5}, {"pitch": 67, "velocity": 100, "note_on_time": 12.5, "note_off_time": 12.858}, {"pitch": 42, "velocity": 100, "note_on_time": 12.145, "note_off_time": 12.858}, {"pitch": 79, "velocity": 100, "note_on_time": 12.858, "note_off_time": 13.574}, {"pitch": 39, "velocity": 100, "note_on_time": 12.858, "note_off_time": 13.575}, {"pitch": 76, "velocity": 100, "note_on_time": 13.574, "note_off_time": 14.291}, {"pitch": 42, "velocity": 100, "note_on_time": 13.575, "note_off_time": 14.291}, {"pitch": 72, "velocity": 100, "note_on_time": 14.291, "note_off_time": 15.006}, {"pitch": 42, "velocity": 100, "note_on_time": 14.292, "note_off_time": 15.006}, {"pitch": 71, "velocity": 100, "note_on_time": 15.006, "note_off_time": 15.72}, {"pitch": 39, "velocity": 100, "note_on_time": 15.007, "note_off_time": 15.72}, {"pitch": 69, "velocity": 100, "note_on_time": 15.72, "note_off_time": 16.432}, {"pitch": 42, "velocity": 100, "note_on_time": 15.72, "note_off_time": 16.432}, {"pitch": 77, "velocity": 100, "note_on_time": 16.432, "note_off_time": 16.791}, {"pitch": 77, "velocity": 100, "note_on_time": 16.791, "note_off_time": 17.146}, {"pitch": 42, "velocity": 100, "note_on_time": 16.432, "note_off_time": 17.147}, {"pitch": 76, "velocity": 100, "note_on_time": 17.146, "note_off_time": 17.862}, {"pitch": 39, "velocity": 100, "note_on_time": 17.147, "note_off_time": 17.862}, {"pitch": 72, "velocity": 100, "note_on_time": 17.862, "note_off_time": 18.576}, {"pitch": 42, "velocity": 100, "note_on_time": 17.862, "note_off_time": 18.576}, {"pitch": 74, "velocity": 100, "note_on_time": 18.576, "note_off_time": 19.294}, {"pitch": 42, "velocity": 100, "note_on_time": 18.576, "note_off_time": 19.294}, {"pitch": 39, "velocity": 100, "note_on_time": 19.294, "note_off_time": 20.009}, {"pitch": 72, "velocity": 100, "note_on_time": 19.294, "note_off_time": 20.726}, {"pitch": 42, "velocity": 100, "note_on_time": 20.009, "note_off_time": 20.726}, {"pitch": 42, "velocity": 100, "note_on_time": 20.726, "note_off_time": 21.442}]</notes><options name="Option List">((4, 4), [0.5, 0.25], 3, 7, &lt;NoteRangePerHand.TWO_NOTES: 3&gt;, &lt;NoteRangePerHand.ONE_NOTE: 2&gt;, False, True, True, None)</options></target_notes><trials><trial trial_no="1" timestamp="2023_01_05-15_01_55"><notes name="Played Notes">[{"pitch": 67, "velocity": 87, "note_on_time": 3.61, "note_off_time": 3.835}, {"pitch": 67, "velocity": 78, "note_on_time": 3.932, "note_off_time": 4.341}, {"pitch": 69, "velocity": 99, "note_on_time": 4.306, "note_off_time": 5.022}, {"pitch": 67, "velocity": 88, "note_on_time": 4.965, "note_off_time": 5.699}, {"pitch": 72, "velocity": 98, "note_on_time": 5.741, "note_off_time": 6.497}, {"pitch": 71, "velocity": 93, "note_on_time": 6.449, "note_off_time": 7.865}, {"pitch": 67, "velocity": 82, "note_on_time": 7.838, "note_off_time": 8.045}, {"pitch": 67, "velocity": 71, "note_on_time": 8.165, "note_off_time": 8.555}, {"pitch": 69, "velocity": 95, "note_on_time": 8.517, "note_off_time": 9.246}, {"pitch": 67, "velocity": 89, "note_on_time": 9.211, "note_off_time": 10.038}, {"pitch": 74, "velocity": 91, "note_on_time": 10.001, "note_off_time": 10.763}, {"pitch": 72, "velocity": 95, "note_on_time": 10.728, "note_off_time": 12.176}, {"pitch": 67, "velocity": 75, "note_on_time": 12.117, "note_off_time": 12.303}, {"pitch": 67, "velocity": 69, "note_on_time": 12.425, "note_off_time": 12.804}, {"pitch": 77, "velocity": 90, "note_on_time": 12.814, "note_off_time": 13.088}, {"pitch": 81, "velocity": 59, "note_on_time": 13.227, "note_off_time": 13.271}, {"pitch": 79, "velocity": 86, "note_on_time": 13.217, "note_off_time": 13.817}, {"pitch": 76, "velocity": 47, "note_on_time": 13.763, "note_off_time": 14.397}, {"pitch": 74, "velocity": 88, "note_on_time": 14.35, "note_off_time": 14.635}, {"pitch": 72, "velocity": 93, "note_on_time": 14.598, "note_off_time": 15.161}, {"pitch": 71, "velocity": 82, "note_on_time": 15.133, "note_off_time": 15.874}, {"pitch": 69, "velocity": 83, "note_on_time": 15.795, "note_off_time": 16.598}, {"pitch": 76, "velocity": 81, "note_on_time": 16.595, "note_off_time": 16.688}, {"pitch": 77, "velocity": 77, "note_on_time": 16.594, "note_off_time": 16.85}, {"pitch": 77, "velocity": 95, "note_on_time": 16.937, "note_off_time": 17.306}, {"pitch": 76, "velocity": 85, "note_on_time": 17.245, "note_off_time": 17.961}, {"pitch": 72, "velocity": 72, "note_on_time": 17.915, "note_off_time": 18.122}, {"pitch": 74, "velocity": 83, "note_on_time": 17.921, "note_off_time": 18.364}, {"pitch": 72, "velocity": 92, "note_on_time": 18.452, "note_off_time": 18.82}, {"pitch": 74, "velocity": 93, "note_on_time": 18.779, "note_off_time": 19.509}, {"pitch": 72, "velocity": 101, "note_on_time": 19.44, "note_off_time": 21.195}]</notes><guidance name="Guidance Mode">None</guidance><error name="Error value">3.33020876363636</error></trial></trials></MIDI>