<MIDI midiNo="2023_01_05-15_08_29"><target_notes><notes name="Note List">[{"pitch": 39, "velocity": 100, "note_on_time": 0.004, "note_off_time": 0.723}, {"pitch": 42, "velocity": 100, "note_on_time": 0.724, "note_off_time": 1.438}, {"pitch": 42, "velocity": 100, "note_on_time": 1.438, "note_off_time": 2.152}, {"pitch": 42, "velocity": 100, "note_on_time": 2.152, "note_off_time": 2.866}, {"pitch": 39, "velocity": 100, "note_on_time": 2.866, "note_off_time": 3.581}, {"pitch": 42, "velocity": 100, "note_on_time": 3.581, "note_off_time": 4.292}, {"pitch": 42, "velocity": 100, "note_on_time": 4.293, "note_off_time": 5.008}, {"pitch": 67, "velocity": 100, "note_on_time": 5.363, "note_off_time": 5.718}, {"pitch": 42, "velocity": 100, "note_on_time": 5.008, "note_off_time": 5.718}, {"pitch": 74, "velocity": 100, "note_on_time": 5.718, "note_off_time": 6.433}, {"pitch": 39, "velocity": 100, "note_on_time": 5.718, "note_off_time": 6.433}, {"pitch": 71, "velocity": 100, "note_on_time": 6.433, "note_off_time": 6.79}, {"pitch": 67, "velocity": 100, "note_on_time": 6.79, "note_off_time": 7.148}, {"pitch": 42, "velocity": 100, "note_on_time": 6.433, "note_off_time": 7.148}, {"pitch": 74, "velocity": 100, "note_on_time": 7.148, "note_off_time": 7.859}, {"pitch": 42, "velocity": 100, "note_on_time": 7.149, "note_off_time": 7.859}, {"pitch": 71, "velocity": 100, "note_on_time": 7.859, "note_off_time": 8.216}, {"pitch": 67, "velocity": 100, "note_on_time": 8.216, "note_off_time": 8.577}, {"pitch": 42, "velocity": 100, "note_on_time": 7.86, "note_off_time": 8.577}, {"pitch": 74, "velocity": 100, "note_on_time": 8.577, "note_off_time": 8.933}, {"pitch": 74, "velocity": 100, "note_on_time": 8.933, "note_off_time": 9.291}, {"pitch": 39, "velocity": 100, "note_on_time": 8.577, "note_off_time": 9.291}, {"pitch": 76, "velocity": 100, "note_on_time": 9.291, "note_off_time": 9.649}, {"pitch": 76, "velocity": 100, "note_on_time": 9.649, "note_off_time": 10.007}, {"pitch": 42, "velocity": 100, "note_on_time": 9.291, "note_off_time": 10.007}, {"pitch": 74, "velocity": 100, "note_on_time": 10.007, "note_off_time": 10.721}, {"pitch": 42, "velocity": 100, "note_on_time": 10.007, "note_off_time": 10.721}, {"pitch": 71, "velocity": 100, "note_on_time": 10.721, "note_off_time": 11.077}, {"pitch": 67, "velocity": 100, "note_on_time": 11.077, "note_off_time": 11.434}, {"pitch": 42, "velocity": 100, "note_on_time": 10.721, "note_off_time": 11.435}, {"pitch": 74, "velocity": 100, "note_on_time": 11.434, "note_off_time": 11.793}, {"pitch": 74, "velocity": 100, "note_on_time": 11.793, "note_off_time": 12.15}, {"pitch": 39, "velocity": 100, "note_on_time": 11.435, "note_off_time": 12.151}, {"pitch": 71, "velocity": 100, "note_on_time": 12.15, "note_off_time": 12.504}, {"pitch": 67, "velocity": 100, "note_on_time": 12.504, "note_off_time": 12.86}, {"pitch": 42, "velocity": 100, "note_on_time": 12.151, "note_off_time": 12.861}, {"pitch": 74, "velocity": 100, "note_on_time": 12.86, "note_off_time": 13.218}, {"pitch": 74, "velocity": 100, "note_on_time": 13.218, "note_off_time": 13.574}, {"pitch": 42, "velocity": 100, "note_on_time": 12.861, "note_off_time": 13.575}, {"pitch": 71, "velocity": 100, "note_on_time": 13.574, "note_off_time": 13.928}, {"pitch": 67, "velocity": 100, "note_on_time": 13.928, "note_off_time": 14.287}, {"pitch": 42, "velocity": 100, "note_on_time": 13.575, "note_off_time": 14.287}, {"pitch": 74, "velocity": 100, "note_on_time": 14.287, "note_off_time": 14.642}, {"pitch": 74, "velocity": 100, "note_on_time": 14.642, "note_off_time": 15.001}, {"pitch": 39, "velocity": 100, "note_on_time": 14.287, "note_off_time": 15.001}, {"pitch": 76, "velocity": 100, "note_on_time": 15.001, "note_off_time": 15.358}, {"pitch": 76, "velocity": 100, "note_on_time": 15.358, "note_off_time": 15.719}, {"pitch": 42, "velocity": 100, "note_on_time": 15.001, "note_off_time": 15.719}, {"pitch": 74, "velocity": 100, "note_on_time": 15.719, "note_off_time": 16.436}, {"pitch": 42, "velocity": 100, "note_on_time": 15.719, "note_off_time": 16.436}, {"pitch": 71, "velocity": 100, "note_on_time": 16.436, "note_off_time": 16.793}, {"pitch": 42, "velocity": 100, "note_on_time": 16.437, "note_off_time": 17.152}]</notes><options name="Option List">((4, 4), [0.5, 0.25], 3, 7, &lt;NoteRangePerHand.TWO_NOTES: 3&gt;, &lt;NoteRangePerHand.ONE_NOTE: 2&gt;, False, True, True, None)</options></target_notes><trials><trial trial_no="1" timestamp="2023_01_05-15_08_29"><notes name="Played Notes">[{"pitch": 76, "velocity": 67, "note_on_time": 5.815, "note_off_time": 5.841}, {"pitch": 67, "velocity": 90, "note_on_time": 5.412, "note_off_time": 5.844}, {"pitch": 74, "velocity": 82, "note_on_time": 5.811, "note_off_time": 6.53}, {"pitch": 71, "velocity": 99, "note_on_time": 6.484, "note_off_time": 6.859}, {"pitch": 67, "velocity": 80, "note_on_time": 6.782, "note_off_time": 7.192}, {"pitch": 74, "velocity": 72, "note_on_time": 7.166, "note_off_time": 7.917}, {"pitch": 71, "velocity": 88, "note_on_time": 7.865, "note_off_time": 8.281}, {"pitch": 67, "velocity": 84, "note_on_time": 8.193, "note_off_time": 8.618}, {"pitch": 74, "velocity": 98, "note_on_time": 8.586, "note_off_time": 8.751}, {"pitch": 74, "velocity": 94, "note_on_time": 8.891, "note_off_time": 9.359}, {"pitch": 76, "velocity": 81, "note_on_time": 9.283, "note_off_time": 9.49}, {"pitch": 76, "velocity": 84, "note_on_time": 9.616, "note_off_time": 10.035}, {"pitch": 74, "velocity": 95, "note_on_time": 9.991, "note_off_time": 10.732}, {"pitch": 71, "velocity": 90, "note_on_time": 10.67, "note_off_time": 11.053}, {"pitch": 67, "velocity": 64, "note_on_time": 11.041, "note_off_time": 11.413}, {"pitch": 74, "velocity": 74, "note_on_time": 11.422, "note_off_time": 11.618}, {"pitch": 74, "velocity": 85, "note_on_time": 11.741, "note_off_time": 12.282}, {"pitch": 69, "velocity": 88, "note_on_time": 12.195, "note_off_time": 12.311}, {"pitch": 71, "velocity": 74, "note_on_time": 12.194, "note_off_time": 12.5}, {"pitch": 69, "velocity": 63, "note_on_time": 12.513, "note_off_time": 12.572}, {"pitch": 67, "velocity": 82, "note_on_time": 12.505, "note_off_time": 12.896}, {"pitch": 74, "velocity": 50, "note_on_time": 12.985, "note_off_time": 13.042}, {"pitch": 74, "velocity": 70, "note_on_time": 13.148, "note_off_time": 13.315}, {"pitch": 74, "velocity": 82, "note_on_time": 13.433, "note_off_time": 13.736}, {"pitch": 71, "velocity": 88, "note_on_time": 13.677, "note_off_time": 14.012}, {"pitch": 67, "velocity": 73, "note_on_time": 13.966, "note_off_time": 14.427}, {"pitch": 74, "velocity": 81, "note_on_time": 14.439, "note_off_time": 14.641}, {"pitch": 74, "velocity": 81, "note_on_time": 14.758, "note_off_time": 15.185}, {"pitch": 76, "velocity": 89, "note_on_time": 15.144, "note_off_time": 15.529}, {"pitch": 76, "velocity": 114, "note_on_time": 15.59, "note_off_time": 16.028}, {"pitch": 74, "velocity": 91, "note_on_time": 15.971, "note_off_time": 16.764}, {"pitch": 71, "velocity": 72, "note_on_time": 16.702, "note_off_time": 17.136}]</notes><guidance name="Guidance Mode">None</guidance><error name="Error value">1.0997143928571425</error></trial></trials></MIDI>