<MIDI midiNo="2023_01_05-15_01_16"><target_notes><notes name="Note List">[{"pitch": 39, "velocity": 100, "note_on_time": 0.005, "note_off_time": 0.727}, {"pitch": 42, "velocity": 100, "note_on_time": 0.727, "note_off_time": 1.443}, {"pitch": 42, "velocity": 100, "note_on_time": 1.443, "note_off_time": 2.157}, {"pitch": 39, "velocity": 100, "note_on_time": 2.157, "note_off_time": 2.873}, {"pitch": 42, "velocity": 100, "note_on_time": 2.873, "note_off_time": 3.588}, {"pitch": 62, "velocity": 100, "note_on_time": 3.588, "note_off_time": 3.945}, {"pitch": 62, "velocity": 100, "note_on_time": 3.945, "note_off_time": 4.302}, {"pitch": 42, "velocity": 100, "note_on_time": 3.588, "note_off_time": 4.302}, {"pitch": 62, "velocity": 100, "note_on_time": 4.302, "note_off_time": 5.018}, {"pitch": 39, "velocity": 100, "note_on_time": 4.302, "note_off_time": 5.019}, {"pitch": 62, "velocity": 100, "note_on_time": 5.018, "note_off_time": 5.733}, {"pitch": 42, "velocity": 100, "note_on_time": 5.019, "note_off_time": 5.733}, {"pitch": 62, "velocity": 100, "note_on_time": 5.733, "note_off_time": 6.449}, {"pitch": 42, "velocity": 100, "note_on_time": 5.734, "note_off_time": 6.449}, {"pitch": 39, "velocity": 100, "note_on_time": 6.449, "note_off_time": 7.163}, {"pitch": 62, "velocity": 100, "note_on_time": 6.449, "note_off_time": 7.874}, {"pitch": 42, "velocity": 100, "note_on_time": 7.163, "note_off_time": 7.874}, {"pitch": 62, "velocity": 100, "note_on_time": 7.874, "note_off_time": 8.231}, {"pitch": 62, "velocity": 100, "note_on_time": 8.231, "note_off_time": 8.589}, {"pitch": 42, "velocity": 100, "note_on_time": 7.874, "note_off_time": 8.589}, {"pitch": 62, "velocity": 100, "note_on_time": 8.589, "note_off_time": 9.303}, {"pitch": 39, "velocity": 100, "note_on_time": 8.59, "note_off_time": 9.304}, {"pitch": 62, "velocity": 100, "note_on_time": 9.303, "note_off_time": 10.021}, {"pitch": 42, "velocity": 100, "note_on_time": 9.304, "note_off_time": 10.021}, {"pitch": 62, "velocity": 100, "note_on_time": 10.021, "note_off_time": 10.736}, {"pitch": 42, "velocity": 100, "note_on_time": 10.022, "note_off_time": 10.736}, {"pitch": 39, "velocity": 100, "note_on_time": 10.736, "note_off_time": 11.449}, {"pitch": 62, "velocity": 100, "note_on_time": 10.736, "note_off_time": 12.159}, {"pitch": 42, "velocity": 100, "note_on_time": 11.449, "note_off_time": 12.159}, {"pitch": 62, "velocity": 100, "note_on_time": 12.159, "note_off_time": 12.516}, {"pitch": 62, "velocity": 100, "note_on_time": 12.516, "note_off_time": 12.876}, {"pitch": 42, "velocity": 100, "note_on_time": 12.159, "note_off_time": 12.876}, {"pitch": 62, "velocity": 100, "note_on_time": 12.876, "note_off_time": 13.593}, {"pitch": 39, "velocity": 100, "note_on_time": 12.876, "note_off_time": 13.594}, {"pitch": 62, "velocity": 100, "note_on_time": 13.593, "note_off_time": 14.305}, {"pitch": 42, "velocity": 100, "note_on_time": 13.594, "note_off_time": 14.305}, {"pitch": 62, "velocity": 100, "note_on_time": 14.305, "note_off_time": 15.018}, {"pitch": 42, "velocity": 100, "note_on_time": 14.306, "note_off_time": 15.018}, {"pitch": 62, "velocity": 100, "note_on_time": 15.018, "note_off_time": 15.731}, {"pitch": 39, "velocity": 100, "note_on_time": 15.018, "note_off_time": 15.731}, {"pitch": 62, "velocity": 100, "note_on_time": 15.731, "note_off_time": 16.443}, {"pitch": 42, "velocity": 100, "note_on_time": 15.731, "note_off_time": 16.444}, {"pitch": 62, "velocity": 100, "note_on_time": 16.443, "note_off_time": 16.8}, {"pitch": 62, "velocity": 100, "note_on_time": 16.8, "note_off_time": 17.158}, {"pitch": 42, "velocity": 100, "note_on_time": 16.444, "note_off_time": 17.159}, {"pitch": 62, "velocity": 100, "note_on_time": 17.158, "note_off_time": 17.873}, {"pitch": 39, "velocity": 100, "note_on_time": 17.159, "note_off_time": 17.874}, {"pitch": 62, "velocity": 100, "note_on_time": 17.873, "note_off_time": 18.588}, {"pitch": 42, "velocity": 100, "note_on_time": 17.874, "note_off_time": 18.588}, {"pitch": 62, "velocity": 100, "note_on_time": 18.588, "note_off_time": 19.303}, {"pitch": 42, "velocity": 100, "note_on_time": 18.589, "note_off_time": 19.303}, {"pitch": 39, "velocity": 100, "note_on_time": 19.304, "note_off_time": 20.016}, {"pitch": 62, "velocity": 100, "note_on_time": 19.303, "note_off_time": 20.727}, {"pitch": 42, "velocity": 100, "note_on_time": 20.017, "note_off_time": 20.727}, {"pitch": 42, "velocity": 100, "note_on_time": 20.727, "note_off_time": 21.442}]</notes><options name="Option List">((4, 4), [0.5, 0.25], 3, 7, &lt;NoteRangePerHand.TWO_NOTES: 3&gt;, &lt;NoteRangePerHand.ONE_NOTE: 2&gt;, False, True, True, None)</options></target_notes><trials><trial trial_no="1" timestamp="2023_01_05-15_01_16"><notes name="Played Notes">[{"pitch": 62, "velocity": 87, "note_on_time": 3.617, "note_off_time": 3.767}, {"pitch": 62, "velocity": 95, "note_on_time": 3.97, "note_off_time": 4.223}, {"pitch": 62, "velocity": 85, "note_on_time": 4.355, "note_off_time": 4.83}, {"pitch": 62, "velocity": 89, "note_on_time": 5.049, "note_off_time": 5.497}, {"pitch": 62, "velocity": 86, "note_on_time": 5.783, "note_off_time": 6.128}, {"pitch": 62, "velocity": 89, "note_on_time": 6.474, "note_off_time": 7.607}, {"pitch": 62, "velocity": 87, "note_on_time": 7.884, "note_off_time": 8.078}, {"pitch": 62, "velocity": 77, "note_on_time": 8.212, "note_off_time": 8.399}, {"pitch": 62, "velocity": 91, "note_on_time": 8.574, "note_off_time": 9.01}, {"pitch": 62, "velocity": 91, "note_on_time": 9.279, "note_off_time": 9.656}, {"pitch": 62, "velocity": 80, "note_on_time": 10.041, "note_off_time": 10.325}, {"pitch": 62, "velocity": 85, "note_on_time": 10.707, "note_off_time": 11.834}, {"pitch": 62, "velocity": 86, "note_on_time": 12.112, "note_off_time": 12.319}, {"pitch": 62, "velocity": 84, "note_on_time": 12.451, "note_off_time": 12.612}, {"pitch": 62, "velocity": 94, "note_on_time": 12.796, "note_off_time": 13.26}, {"pitch": 62, "velocity": 88, "note_on_time": 13.509, "note_off_time": 13.907}, {"pitch": 62, "velocity": 83, "note_on_time": 14.237, "note_off_time": 14.609}, {"pitch": 62, "velocity": 87, "note_on_time": 14.929, "note_off_time": 15.263}, {"pitch": 62, "velocity": 90, "note_on_time": 15.615, "note_off_time": 16.039}, {"pitch": 62, "velocity": 94, "note_on_time": 16.307, "note_off_time": 16.469}, {"pitch": 62, "velocity": 94, "note_on_time": 16.595, "note_off_time": 16.829}, {"pitch": 62, "velocity": 97, "note_on_time": 16.996, "note_off_time": 17.509}, {"pitch": 62, "velocity": 94, "note_on_time": 17.783, "note_off_time": 18.174}, {"pitch": 62, "velocity": 86, "note_on_time": 18.504, "note_off_time": 18.87}]</notes><guidance name="Guidance Mode">None</guidance><error name="Error value">0.3034165524242428</error></trial></trials></MIDI>