<MIDI midiNo="2023_01_05-15_23_49"><target_notes><notes name="Note List">[{"pitch": 39, "velocity": 100, "note_on_time": 0.007, "note_off_time": 0.722}, {"pitch": 42, "velocity": 100, "note_on_time": 0.722, "note_off_time": 1.437}, {"pitch": 42, "velocity": 100, "note_on_time": 1.437, "note_off_time": 2.152}, {"pitch": 42, "velocity": 100, "note_on_time": 2.152, "note_off_time": 2.867}, {"pitch": 39, "velocity": 100, "note_on_time": 2.867, "note_off_time": 3.58}, {"pitch": 42, "velocity": 100, "note_on_time": 3.581, "note_off_time": 4.294}, {"pitch": 42, "velocity": 100, "note_on_time": 4.294, "note_off_time": 5.016}, {"pitch": 62, "velocity": 100, "note_on_time": 5.015, "note_off_time": 5.376}, {"pitch": 67, "velocity": 100, "note_on_time": 5.376, "note_off_time": 5.735}, {"pitch": 42, "velocity": 100, "note_on_time": 5.016, "note_off_time": 5.735}, {"pitch": 71, "velocity": 100, "note_on_time": 5.735, "note_off_time": 6.452}, {"pitch": 39, "velocity": 100, "note_on_time": 5.735, "note_off_time": 6.452}, {"pitch": 71, "velocity": 100, "note_on_time": 6.452, "note_off_time": 6.811}, {"pitch": 69, "velocity": 100, "note_on_time": 6.811, "note_off_time": 7.169}, {"pitch": 42, "velocity": 100, "note_on_time": 6.452, "note_off_time": 7.17}, {"pitch": 67, "velocity": 100, "note_on_time": 7.169, "note_off_time": 7.886}, {"pitch": 42, "velocity": 100, "note_on_time": 7.17, "note_off_time": 7.886}, {"pitch": 69, "velocity": 100, "note_on_time": 7.886, "note_off_time": 8.243}, {"pitch": 67, "velocity": 100, "note_on_time": 8.243, "note_off_time": 8.603}, {"pitch": 42, "velocity": 100, "note_on_time": 7.886, "note_off_time": 8.603}, {"pitch": 64, "velocity": 100, "note_on_time": 8.603, "note_off_time": 8.959}, {"pitch": 39, "velocity": 100, "note_on_time": 8.603, "note_off_time": 9.316}, {"pitch": 42, "velocity": 100, "note_on_time": 9.317, "note_off_time": 10.031}, {"pitch": 67, "velocity": 100, "note_on_time": 8.959, "note_off_time": 10.75}, {"pitch": 42, "velocity": 100, "note_on_time": 10.032, "note_off_time": 10.75}, {"pitch": 62, "velocity": 100, "note_on_time": 10.75, "note_off_time": 11.109}, {"pitch": 67, "velocity": 100, "note_on_time": 11.109, "note_off_time": 11.468}, {"pitch": 42, "velocity": 100, "note_on_time": 10.751, "note_off_time": 11.469}, {"pitch": 71, "velocity": 100, "note_on_time": 11.468, "note_off_time": 12.183}, {"pitch": 39, "velocity": 100, "note_on_time": 11.469, "note_off_time": 12.183}, {"pitch": 67, "velocity": 100, "note_on_time": 12.183, "note_off_time": 12.543}, {"pitch": 71, "velocity": 100, "note_on_time": 12.543, "note_off_time": 12.898}, {"pitch": 42, "velocity": 100, "note_on_time": 12.183, "note_off_time": 12.899}, {"pitch": 74, "velocity": 100, "note_on_time": 12.898, "note_off_time": 13.615}, {"pitch": 42, "velocity": 100, "note_on_time": 12.899, "note_off_time": 13.616}, {"pitch": 72, "velocity": 100, "note_on_time": 13.615, "note_off_time": 13.974}, {"pitch": 71, "velocity": 100, "note_on_time": 13.974, "note_off_time": 14.332}, {"pitch": 42, "velocity": 100, "note_on_time": 13.616, "note_off_time": 14.332}, {"pitch": 39, "velocity": 100, "note_on_time": 14.332, "note_off_time": 15.051}, {"pitch": 42, "velocity": 100, "note_on_time": 15.051, "note_off_time": 15.767}, {"pitch": 69, "velocity": 100, "note_on_time": 14.332, "note_off_time": 16.487}, {"pitch": 42, "velocity": 100, "note_on_time": 15.767, "note_off_time": 16.487}, {"pitch": 74, "velocity": 100, "note_on_time": 16.487, "note_off_time": 16.842}, {"pitch": 72, "velocity": 100, "note_on_time": 16.842, "note_off_time": 17.199}, {"pitch": 42, "velocity": 100, "note_on_time": 16.487, "note_off_time": 17.2}, {"pitch": 71, "velocity": 100, "note_on_time": 17.199, "note_off_time": 17.916}, {"pitch": 39, "velocity": 100, "note_on_time": 17.2, "note_off_time": 17.916}, {"pitch": 71, "velocity": 100, "note_on_time": 17.916, "note_off_time": 18.271}, {"pitch": 69, "velocity": 100, "note_on_time": 18.271, "note_off_time": 18.629}, {"pitch": 42, "velocity": 100, "note_on_time": 17.916, "note_off_time": 18.629}, {"pitch": 67, "velocity": 100, "note_on_time": 18.629, "note_off_time": 19.346}, {"pitch": 42, "velocity": 100, "note_on_time": 18.629, "note_off_time": 19.346}, {"pitch": 69, "velocity": 100, "note_on_time": 19.346, "note_off_time": 19.706}, {"pitch": 71, "velocity": 100, "note_on_time": 19.706, "note_off_time": 20.062}, {"pitch": 42, "velocity": 100, "note_on_time": 19.346, "note_off_time": 20.062}, {"pitch": 74, "velocity": 100, "note_on_time": 20.062, "note_off_time": 20.422}, {"pitch": 39, "velocity": 100, "note_on_time": 20.062, "note_off_time": 20.781}, {"pitch": 42, "velocity": 100, "note_on_time": 20.781, "note_off_time": 21.496}, {"pitch": 72, "velocity": 100, "note_on_time": 20.422, "note_off_time": 22.211}, {"pitch": 42, "velocity": 100, "note_on_time": 21.496, "note_off_time": 22.211}, {"pitch": 64, "velocity": 100, "note_on_time": 22.211, "note_off_time": 22.568}, {"pitch": 64, "velocity": 100, "note_on_time": 22.568, "note_off_time": 22.925}, {"pitch": 42, "velocity": 100, "note_on_time": 22.212, "note_off_time": 22.925}, {"pitch": 62, "velocity": 100, "note_on_time": 22.925, "note_off_time": 23.642}, {"pitch": 39, "velocity": 100, "note_on_time": 22.925, "note_off_time": 23.642}, {"pitch": 66, "velocity": 100, "note_on_time": 23.642, "note_off_time": 23.998}, {"pitch": 67, "velocity": 100, "note_on_time": 23.998, "note_off_time": 24.359}, {"pitch": 42, "velocity": 100, "note_on_time": 23.642, "note_off_time": 24.359}, {"pitch": 69, "velocity": 100, "note_on_time": 24.359, "note_off_time": 25.073}, {"pitch": 42, "velocity": 100, "note_on_time": 24.359, "note_off_time": 25.073}, {"pitch": 71, "velocity": 100, "note_on_time": 25.073, "note_off_time": 25.43}, {"pitch": 69, "velocity": 100, "note_on_time": 25.43, "note_off_time": 25.787}, {"pitch": 42, "velocity": 100, "note_on_time": 25.073, "note_off_time": 25.787}, {"pitch": 39, "velocity": 100, "note_on_time": 25.787, "note_off_time": 26.504}, {"pitch": 42, "velocity": 100, "note_on_time": 26.504, "note_off_time": 27.22}, {"pitch": 67, "velocity": 100, "note_on_time": 25.787, "note_off_time": 27.939}, {"pitch": 42, "velocity": 100, "note_on_time": 27.221, "note_off_time": 27.939}, {"pitch": 42, "velocity": 100, "note_on_time": 27.939, "note_off_time": 28.657}]</notes><options name="Option List">((4, 4), [0.5, 0.25], 3, 7, &lt;NoteRangePerHand.TWO_NOTES: 3&gt;, &lt;NoteRangePerHand.ONE_NOTE: 2&gt;, False, True, True, None)</options></target_notes><trials><trial trial_no="1" timestamp="2023_01_05-15_23_49"><notes name="Played Notes">[{"pitch": 62, "velocity": 81, "note_on_time": 5.033, "note_off_time": 5.413}, {"pitch": 67, "velocity": 76, "note_on_time": 5.355, "note_off_time": 5.754}, {"pitch": 71, "velocity": 87, "note_on_time": 5.744, "note_off_time": 6.293}, {"pitch": 71, "velocity": 89, "note_on_time": 6.427, "note_off_time": 6.826}, {"pitch": 69, "velocity": 95, "note_on_time": 6.777, "note_off_time": 7.16}, {"pitch": 67, "velocity": 93, "note_on_time": 7.123, "note_off_time": 7.844}, {"pitch": 69, "velocity": 88, "note_on_time": 7.837, "note_off_time": 8.218}, {"pitch": 67, "velocity": 90, "note_on_time": 8.18, "note_off_time": 8.583}, {"pitch": 64, "velocity": 84, "note_on_time": 8.551, "note_off_time": 8.944}, {"pitch": 67, "velocity": 85, "note_on_time": 8.921, "note_off_time": 10.772}, {"pitch": 62, "velocity": 82, "note_on_time": 10.773, "note_off_time": 11.135}, {"pitch": 67, "velocity": 82, "note_on_time": 11.121, "note_off_time": 11.517}, {"pitch": 71, "velocity": 93, "note_on_time": 11.483, "note_off_time": 12.117}, {"pitch": 67, "velocity": 72, "note_on_time": 12.126, "note_off_time": 12.571}, {"pitch": 71, "velocity": 91, "note_on_time": 12.523, "note_off_time": 12.918}, {"pitch": 74, "velocity": 93, "note_on_time": 12.884, "note_off_time": 13.632}, {"pitch": 72, "velocity": 95, "note_on_time": 13.585, "note_off_time": 13.962}, {"pitch": 71, "velocity": 95, "note_on_time": 13.903, "note_off_time": 14.298}, {"pitch": 69, "velocity": 91, "note_on_time": 14.275, "note_off_time": 16.446}, {"pitch": 74, "velocity": 84, "note_on_time": 16.423, "note_off_time": 16.841}, {"pitch": 72, "velocity": 96, "note_on_time": 16.775, "note_off_time": 17.195}, {"pitch": 71, "velocity": 87, "note_on_time": 17.152, "note_off_time": 17.737}, {"pitch": 71, "velocity": 97, "note_on_time": 17.874, "note_off_time": 18.283}, {"pitch": 69, "velocity": 86, "note_on_time": 18.218, "note_off_time": 18.611}, {"pitch": 67, "velocity": 91, "note_on_time": 18.583, "note_off_time": 19.349}, {"pitch": 69, "velocity": 89, "note_on_time": 19.322, "note_off_time": 19.694}, {"pitch": 71, "velocity": 97, "note_on_time": 19.659, "note_off_time": 20.056}, {"pitch": 74, "velocity": 71, "note_on_time": 20.027, "note_off_time": 20.429}, {"pitch": 72, "velocity": 101, "note_on_time": 20.386, "note_off_time": 22.229}, {"pitch": 64, "velocity": 87, "note_on_time": 22.243, "note_off_time": 22.461}, {"pitch": 64, "velocity": 68, "note_on_time": 22.568, "note_off_time": 22.997}, {"pitch": 62, "velocity": 91, "note_on_time": 22.959, "note_off_time": 23.69}, {"pitch": 66, "velocity": 51, "note_on_time": 23.646, "note_off_time": 23.979}, {"pitch": 67, "velocity": 73, "note_on_time": 23.935, "note_off_time": 24.483}, {"pitch": 69, "velocity": 100, "note_on_time": 24.348, "note_off_time": 24.875}, {"pitch": 71, "velocity": 87, "note_on_time": 25.049, "note_off_time": 25.443}, {"pitch": 69, "velocity": 80, "note_on_time": 25.376, "note_off_time": 25.765}, {"pitch": 67, "velocity": 96, "note_on_time": 25.736, "note_off_time": 28.559}]</notes><guidance name="Guidance Mode">None</guidance><error name="Error value">0.09168719617224874</error></trial></trials></MIDI>