<MIDI midiNo="2023_01_05-15_38_42"><target_notes><notes name="Note List">[{"pitch": 39, "velocity": 100, "note_on_time": 0.01, "note_off_time": 0.726}, {"pitch": 42, "velocity": 100, "note_on_time": 0.726, "note_off_time": 1.442}, {"pitch": 42, "velocity": 100, "note_on_time": 1.442, "note_off_time": 2.158}, {"pitch": 42, "velocity": 100, "note_on_time": 2.158, "note_off_time": 2.873}, {"pitch": 65, "velocity": 100, "note_on_time": 2.873, "note_off_time": 3.59}, {"pitch": 39, "velocity": 100, "note_on_time": 2.873, "note_off_time": 3.591}, {"pitch": 65, "velocity": 100, "note_on_time": 3.59, "note_off_time": 3.949}, {"pitch": 67, "velocity": 100, "note_on_time": 3.949, "note_off_time": 4.306}, {"pitch": 42, "velocity": 100, "note_on_time": 3.591, "note_off_time": 4.306}, {"pitch": 69, "velocity": 100, "note_on_time": 4.306, "note_off_time": 5.025}, {"pitch": 42, "velocity": 100, "note_on_time": 4.306, "note_off_time": 5.025}, {"pitch": 69, "velocity": 100, "note_on_time": 5.025, "note_off_time": 5.382}, {"pitch": 70, "velocity": 100, "note_on_time": 5.382, "note_off_time": 5.739}, {"pitch": 42, "velocity": 100, "note_on_time": 5.025, "note_off_time": 5.739}, {"pitch": 72, "velocity": 100, "note_on_time": 5.739, "note_off_time": 6.455}, {"pitch": 39, "velocity": 100, "note_on_time": 5.739, "note_off_time": 6.456}, {"pitch": 74, "velocity": 100, "note_on_time": 6.455, "note_off_time": 6.812}, {"pitch": 72, "velocity": 100, "note_on_time": 6.812, "note_off_time": 7.171}, {"pitch": 42, "velocity": 100, "note_on_time": 6.456, "note_off_time": 7.171}, {"pitch": 42, "velocity": 100, "note_on_time": 7.171, "note_off_time": 7.888}, {"pitch": 69, "velocity": 100, "note_on_time": 7.171, "note_off_time": 8.608}, {"pitch": 42, "velocity": 100, "note_on_time": 7.888, "note_off_time": 8.608}, {"pitch": 72, "velocity": 100, "note_on_time": 8.608, "note_off_time": 9.323}, {"pitch": 39, "velocity": 100, "note_on_time": 8.608, "note_off_time": 9.323}, {"pitch": 70, "velocity": 100, "note_on_time": 9.323, "note_off_time": 9.682}, {"pitch": 69, "velocity": 100, "note_on_time": 9.682, "note_off_time": 10.042}, {"pitch": 42, "velocity": 100, "note_on_time": 9.324, "note_off_time": 10.042}, {"pitch": 42, "velocity": 100, "note_on_time": 10.043, "note_off_time": 10.759}, {"pitch": 67, "velocity": 100, "note_on_time": 10.042, "note_off_time": 11.475}, {"pitch": 42, "velocity": 100, "note_on_time": 10.759, "note_off_time": 11.476}, {"pitch": 70, "velocity": 100, "note_on_time": 11.475, "note_off_time": 12.189}, {"pitch": 39, "velocity": 100, "note_on_time": 11.476, "note_off_time": 12.189}, {"pitch": 69, "velocity": 100, "note_on_time": 12.189, "note_off_time": 12.547}, {"pitch": 67, "velocity": 100, "note_on_time": 12.547, "note_off_time": 12.907}, {"pitch": 42, "velocity": 100, "note_on_time": 12.189, "note_off_time": 12.908}, {"pitch": 42, "velocity": 100, "note_on_time": 12.908, "note_off_time": 13.622}, {"pitch": 65, "velocity": 100, "note_on_time": 12.907, "note_off_time": 14.339}, {"pitch": 42, "velocity": 100, "note_on_time": 13.622, "note_off_time": 14.339}, {"pitch": 65, "velocity": 100, "note_on_time": 14.339, "note_off_time": 15.054}, {"pitch": 39, "velocity": 100, "note_on_time": 14.339, "note_off_time": 15.054}, {"pitch": 65, "velocity": 100, "note_on_time": 15.054, "note_off_time": 15.414}, {"pitch": 67, "velocity": 100, "note_on_time": 15.414, "note_off_time": 15.77}, {"pitch": 42, "velocity": 100, "note_on_time": 15.054, "note_off_time": 15.77}, {"pitch": 69, "velocity": 100, "note_on_time": 15.77, "note_off_time": 16.487}, {"pitch": 42, "velocity": 100, "note_on_time": 15.77, "note_off_time": 16.488}, {"pitch": 69, "velocity": 100, "note_on_time": 16.487, "note_off_time": 16.845}, {"pitch": 70, "velocity": 100, "note_on_time": 16.845, "note_off_time": 17.202}, {"pitch": 42, "velocity": 100, "note_on_time": 16.488, "note_off_time": 17.202}, {"pitch": 72, "velocity": 100, "note_on_time": 17.202, "note_off_time": 17.923}, {"pitch": 39, "velocity": 100, "note_on_time": 17.202, "note_off_time": 17.923}, {"pitch": 74, "velocity": 100, "note_on_time": 17.923, "note_off_time": 18.281}, {"pitch": 72, "velocity": 100, "note_on_time": 18.281, "note_off_time": 18.644}, {"pitch": 42, "velocity": 100, "note_on_time": 17.924, "note_off_time": 18.645}, {"pitch": 42, "velocity": 100, "note_on_time": 18.645, "note_off_time": 19.361}, {"pitch": 69, "velocity": 100, "note_on_time": 18.644, "note_off_time": 20.075}, {"pitch": 42, "velocity": 100, "note_on_time": 19.361, "note_off_time": 20.075}, {"pitch": 72, "velocity": 100, "note_on_time": 20.075, "note_off_time": 20.793}, {"pitch": 39, "velocity": 100, "note_on_time": 20.076, "note_off_time": 20.793}, {"pitch": 70, "velocity": 100, "note_on_time": 20.793, "note_off_time": 21.153}, {"pitch": 69, "velocity": 100, "note_on_time": 21.153, "note_off_time": 21.513}, {"pitch": 42, "velocity": 100, "note_on_time": 20.793, "note_off_time": 21.514}, {"pitch": 67, "velocity": 100, "note_on_time": 21.513, "note_off_time": 22.232}, {"pitch": 42, "velocity": 100, "note_on_time": 21.514, "note_off_time": 22.232}, {"pitch": 69, "velocity": 100, "note_on_time": 22.232, "note_off_time": 22.589}, {"pitch": 67, "velocity": 100, "note_on_time": 22.589, "note_off_time": 22.948}, {"pitch": 42, "velocity": 100, "note_on_time": 22.232, "note_off_time": 22.948}, {"pitch": 39, "velocity": 100, "note_on_time": 22.949, "note_off_time": 23.665}, {"pitch": 42, "velocity": 100, "note_on_time": 23.665, "note_off_time": 24.381}, {"pitch": 42, "velocity": 100, "note_on_time": 24.381, "note_off_time": 25.097}, {"pitch": 65, "velocity": 100, "note_on_time": 22.948, "note_off_time": 25.81}, {"pitch": 42, "velocity": 100, "note_on_time": 25.097, "note_off_time": 25.811}, {"pitch": 72, "velocity": 100, "note_on_time": 25.81, "note_off_time": 26.526}, {"pitch": 39, "velocity": 100, "note_on_time": 25.811, "note_off_time": 26.527}, {"pitch": 70, "velocity": 100, "note_on_time": 26.526, "note_off_time": 26.886}, {"pitch": 69, "velocity": 100, "note_on_time": 26.886, "note_off_time": 27.244}, {"pitch": 42, "velocity": 100, "note_on_time": 26.527, "note_off_time": 27.244}, {"pitch": 67, "velocity": 100, "note_on_time": 27.244, "note_off_time": 27.961}, {"pitch": 42, "velocity": 100, "note_on_time": 27.245, "note_off_time": 27.961}, {"pitch": 60, "velocity": 100, "note_on_time": 27.961, "note_off_time": 28.319}, {"pitch": 60, "velocity": 100, "note_on_time": 28.319, "note_off_time": 28.678}, {"pitch": 42, "velocity": 100, "note_on_time": 27.962, "note_off_time": 28.678}, {"pitch": 70, "velocity": 100, "note_on_time": 28.678, "note_off_time": 29.39}, {"pitch": 39, "velocity": 100, "note_on_time": 28.679, "note_off_time": 29.39}, {"pitch": 69, "velocity": 100, "note_on_time": 29.39, "note_off_time": 29.749}, {"pitch": 67, "velocity": 100, "note_on_time": 29.749, "note_off_time": 30.108}, {"pitch": 42, "velocity": 100, "note_on_time": 29.39, "note_off_time": 30.108}, {"pitch": 42, "velocity": 100, "note_on_time": 30.109, "note_off_time": 30.828}, {"pitch": 65, "velocity": 100, "note_on_time": 30.108, "note_off_time": 31.542}, {"pitch": 42, "velocity": 100, "note_on_time": 30.828, "note_off_time": 31.542}, {"pitch": 72, "velocity": 100, "note_on_time": 31.542, "note_off_time": 32.258}, {"pitch": 39, "velocity": 100, "note_on_time": 31.542, "note_off_time": 32.258}, {"pitch": 70, "velocity": 100, "note_on_time": 32.258, "note_off_time": 32.615}, {"pitch": 69, "velocity": 100, "note_on_time": 32.615, "note_off_time": 32.974}, {"pitch": 42, "velocity": 100, "note_on_time": 32.258, "note_off_time": 32.974}, {"pitch": 67, "velocity": 100, "note_on_time": 32.974, "note_off_time": 33.686}, {"pitch": 42, "velocity": 100, "note_on_time": 32.974, "note_off_time": 33.686}, {"pitch": 60, "velocity": 100, "note_on_time": 33.686, "note_off_time": 34.045}, {"pitch": 60, "velocity": 100, "note_on_time": 34.045, "note_off_time": 34.401}, {"pitch": 42, "velocity": 100, "note_on_time": 33.687, "note_off_time": 34.402}, {"pitch": 70, "velocity": 100, "note_on_time": 34.401, "note_off_time": 35.121}, {"pitch": 39, "velocity": 100, "note_on_time": 34.402, "note_off_time": 35.121}, {"pitch": 69, "velocity": 100, "note_on_time": 35.121, "note_off_time": 35.482}, {"pitch": 67, "velocity": 100, "note_on_time": 35.482, "note_off_time": 35.841}, {"pitch": 42, "velocity": 100, "note_on_time": 35.121, "note_off_time": 35.841}, {"pitch": 42, "velocity": 100, "note_on_time": 35.841, "note_off_time": 36.557}, {"pitch": 65, "velocity": 100, "note_on_time": 35.841, "note_off_time": 37.271}, {"pitch": 42, "velocity": 100, "note_on_time": 36.557, "note_off_time": 37.271}, {"pitch": 65, "velocity": 100, "note_on_time": 37.271, "note_off_time": 37.984}, {"pitch": 39, "velocity": 100, "note_on_time": 37.271, "note_off_time": 37.984}, {"pitch": 65, "velocity": 100, "note_on_time": 37.984, "note_off_time": 38.343}, {"pitch": 67, "velocity": 100, "note_on_time": 38.343, "note_off_time": 38.7}, {"pitch": 42, "velocity": 100, "note_on_time": 37.984, "note_off_time": 38.7}, {"pitch": 69, "velocity": 100, "note_on_time": 38.7, "note_off_time": 39.415}, {"pitch": 42, "velocity": 100, "note_on_time": 38.701, "note_off_time": 39.416}, {"pitch": 69, "velocity": 100, "note_on_time": 39.415, "note_off_time": 39.771}, {"pitch": 70, "velocity": 100, "note_on_time": 39.771, "note_off_time": 40.128}, {"pitch": 42, "velocity": 100, "note_on_time": 39.416, "note_off_time": 40.129}, {"pitch": 72, "velocity": 100, "note_on_time": 40.128, "note_off_time": 40.844}, {"pitch": 39, "velocity": 100, "note_on_time": 40.129, "note_off_time": 40.844}, {"pitch": 74, "velocity": 100, "note_on_time": 40.844, "note_off_time": 41.2}, {"pitch": 72, "velocity": 100, "note_on_time": 41.2, "note_off_time": 41.558}, {"pitch": 42, "velocity": 100, "note_on_time": 40.845, "note_off_time": 41.558}, {"pitch": 42, "velocity": 100, "note_on_time": 41.559, "note_off_time": 42.273}, {"pitch": 69, "velocity": 100, "note_on_time": 41.558, "note_off_time": 42.991}, {"pitch": 42, "velocity": 100, "note_on_time": 42.273, "note_off_time": 42.991}, {"pitch": 72, "velocity": 100, "note_on_time": 42.991, "note_off_time": 43.711}, {"pitch": 39, "velocity": 100, "note_on_time": 42.991, "note_off_time": 43.711}, {"pitch": 70, "velocity": 100, "note_on_time": 43.711, "note_off_time": 44.066}, {"pitch": 69, "velocity": 100, "note_on_time": 44.066, "note_off_time": 44.424}, {"pitch": 42, "velocity": 100, "note_on_time": 43.711, "note_off_time": 44.425}, {"pitch": 67, "velocity": 100, "note_on_time": 44.424, "note_off_time": 45.138}, {"pitch": 42, "velocity": 100, "note_on_time": 44.425, "note_off_time": 45.138}, {"pitch": 69, "velocity": 100, "note_on_time": 45.138, "note_off_time": 45.497}, {"pitch": 67, "velocity": 100, "note_on_time": 45.497, "note_off_time": 45.856}, {"pitch": 42, "velocity": 100, "note_on_time": 45.138, "note_off_time": 45.856}, {"pitch": 39, "velocity": 100, "note_on_time": 45.856, "note_off_time": 46.57}, {"pitch": 42, "velocity": 100, "note_on_time": 46.57, "note_off_time": 47.278}, {"pitch": 42, "velocity": 100, "note_on_time": 47.278, "note_off_time": 47.993}, {"pitch": 65, "velocity": 100, "note_on_time": 45.856, "note_off_time": 48.708}, {"pitch": 42, "velocity": 100, "note_on_time": 47.993, "note_off_time": 48.708}]</notes><options name="Option List">((4, 4), [0.5, 0.25], 3, 7, &lt;NoteRangePerHand.TWO_NOTES: 3&gt;, &lt;NoteRangePerHand.ONE_NOTE: 2&gt;, False, True, True, None)</options></target_notes><trials><trial trial_no="1" timestamp="2023_01_05-15_38_42"><notes name="Played Notes">[{"pitch": 65, "velocity": 92, "note_on_time": 2.849, "note_off_time": 3.381}, {"pitch": 65, "velocity": 90, "note_on_time": 3.558, "note_off_time": 3.909}, {"pitch": 67, "velocity": 88, "note_on_time": 3.89, "note_off_time": 4.306}, {"pitch": 69, "velocity": 89, "note_on_time": 4.284, "note_off_time": 4.795}, {"pitch": 69, "velocity": 86, "note_on_time": 4.965, "note_off_time": 5.355}, {"pitch": 70, "velocity": 85, "note_on_time": 5.333, "note_off_time": 5.734}, {"pitch": 72, "velocity": 80, "note_on_time": 5.721, "note_off_time": 6.402}, {"pitch": 74, "velocity": 80, "note_on_time": 6.407, "note_off_time": 6.803}, {"pitch": 72, "velocity": 89, "note_on_time": 6.77, "note_off_time": 7.149}, {"pitch": 69, "velocity": 90, "note_on_time": 7.132, "note_off_time": 8.582}, {"pitch": 72, "velocity": 94, "note_on_time": 8.593, "note_off_time": 9.336}, {"pitch": 70, "velocity": 93, "note_on_time": 9.296, "note_off_time": 9.65}, {"pitch": 69, "velocity": 88, "note_on_time": 9.617, "note_off_time": 9.996}, {"pitch": 67, "velocity": 85, "note_on_time": 9.974, "note_off_time": 11.44}, {"pitch": 70, "velocity": 83, "note_on_time": 11.443, "note_off_time": 12.143}, {"pitch": 69, "velocity": 89, "note_on_time": 12.115, "note_off_time": 12.479}, {"pitch": 67, "velocity": 88, "note_on_time": 12.452, "note_off_time": 12.871}, {"pitch": 65, "velocity": 98, "note_on_time": 12.833, "note_off_time": 14.122}, {"pitch": 65, "velocity": 87, "note_on_time": 14.318, "note_off_time": 14.896}, {"pitch": 65, "velocity": 90, "note_on_time": 15.049, "note_off_time": 15.405}, {"pitch": 67, "velocity": 80, "note_on_time": 15.392, "note_off_time": 15.758}, {"pitch": 69, "velocity": 92, "note_on_time": 15.744, "note_off_time": 16.229}, {"pitch": 69, "velocity": 84, "note_on_time": 16.456, "note_off_time": 16.827}, {"pitch": 70, "velocity": 75, "note_on_time": 16.799, "note_off_time": 17.187}, {"pitch": 72, "velocity": 88, "note_on_time": 17.172, "note_off_time": 17.895}, {"pitch": 74, "velocity": 83, "note_on_time": 17.886, "note_off_time": 18.281}, {"pitch": 72, "velocity": 89, "note_on_time": 18.239, "note_off_time": 18.636}, {"pitch": 69, "velocity": 76, "note_on_time": 18.622, "note_off_time": 20.047}, {"pitch": 72, "velocity": 98, "note_on_time": 20.068, "note_off_time": 20.809}, {"pitch": 70, "velocity": 91, "note_on_time": 20.774, "note_off_time": 21.114}, {"pitch": 69, "velocity": 85, "note_on_time": 21.101, "note_off_time": 21.432}, {"pitch": 67, "velocity": 77, "note_on_time": 21.406, "note_off_time": 22.161}, {"pitch": 69, "velocity": 95, "note_on_time": 22.164, "note_off_time": 22.543}, {"pitch": 67, "velocity": 90, "note_on_time": 22.498, "note_off_time": 22.936}, {"pitch": 65, "velocity": 91, "note_on_time": 22.887, "note_off_time": 25.844}, {"pitch": 72, "velocity": 84, "note_on_time": 25.839, "note_off_time": 26.562}, {"pitch": 70, "velocity": 87, "note_on_time": 26.517, "note_off_time": 26.931}, {"pitch": 69, "velocity": 92, "note_on_time": 26.899, "note_off_time": 27.261}, {"pitch": 67, "velocity": 87, "note_on_time": 27.246, "note_off_time": 27.925}, {"pitch": 60, "velocity": 87, "note_on_time": 27.927, "note_off_time": 28.128}, {"pitch": 60, "velocity": 92, "note_on_time": 28.258, "note_off_time": 28.481}, {"pitch": 70, "velocity": 85, "note_on_time": 28.662, "note_off_time": 29.395}, {"pitch": 69, "velocity": 92, "note_on_time": 29.35, "note_off_time": 29.739}, {"pitch": 67, "velocity": 89, "note_on_time": 29.709, "note_off_time": 30.105}, {"pitch": 65, "velocity": 99, "note_on_time": 30.068, "note_off_time": 31.591}, {"pitch": 72, "velocity": 94, "note_on_time": 31.593, "note_off_time": 32.312}, {"pitch": 70, "velocity": 81, "note_on_time": 32.27, "note_off_time": 32.618}, {"pitch": 69, "velocity": 87, "note_on_time": 32.587, "note_off_time": 32.98}, {"pitch": 67, "velocity": 78, "note_on_time": 32.957, "note_off_time": 33.677}, {"pitch": 60, "velocity": 88, "note_on_time": 33.642, "note_off_time": 33.839}, {"pitch": 60, "velocity": 84, "note_on_time": 33.96, "note_off_time": 34.172}, {"pitch": 71, "velocity": 74, "note_on_time": 34.392, "note_off_time": 34.48}, {"pitch": 70, "velocity": 106, "note_on_time": 34.579, "note_off_time": 35.046}, {"pitch": 69, "velocity": 80, "note_on_time": 35.013, "note_off_time": 35.364}, {"pitch": 67, "velocity": 84, "note_on_time": 35.355, "note_off_time": 35.731}, {"pitch": 65, "velocity": 95, "note_on_time": 35.688, "note_off_time": 36.962}, {"pitch": 65, "velocity": 89, "note_on_time": 37.224, "note_off_time": 37.861}, {"pitch": 65, "velocity": 92, "note_on_time": 37.979, "note_off_time": 38.3}, {"pitch": 67, "velocity": 90, "note_on_time": 38.292, "note_off_time": 38.69}, {"pitch": 69, "velocity": 90, "note_on_time": 38.664, "note_off_time": 39.197}, {"pitch": 69, "velocity": 79, "note_on_time": 39.377, "note_off_time": 39.735}, {"pitch": 70, "velocity": 77, "note_on_time": 39.709, "note_off_time": 40.082}, {"pitch": 72, "velocity": 86, "note_on_time": 40.063, "note_off_time": 40.786}, {"pitch": 74, "velocity": 84, "note_on_time": 40.771, "note_off_time": 41.174}, {"pitch": 72, "velocity": 88, "note_on_time": 41.132, "note_off_time": 41.54}, {"pitch": 69, "velocity": 79, "note_on_time": 41.527, "note_off_time": 42.937}, {"pitch": 72, "velocity": 91, "note_on_time": 42.945, "note_off_time": 43.737}, {"pitch": 70, "velocity": 84, "note_on_time": 43.699, "note_off_time": 44.027}, {"pitch": 69, "velocity": 83, "note_on_time": 44.0, "note_off_time": 44.407}, {"pitch": 67, "velocity": 84, "note_on_time": 44.402, "note_off_time": 45.055}, {"pitch": 69, "velocity": 88, "note_on_time": 45.104, "note_off_time": 45.484}, {"pitch": 67, "velocity": 85, "note_on_time": 45.444, "note_off_time": 45.857}]</notes><guidance name="Guidance Mode">None</guidance><error name="Error value">0.5667876944444442</error></trial></trials></MIDI>