<MIDI midiNo="2023_01_05-15_15_39"><target_notes><notes name="Note List">[{"pitch": 39, "velocity": 100, "note_on_time": 0.004, "note_off_time": 0.718}, {"pitch": 42, "velocity": 100, "note_on_time": 0.719, "note_off_time": 1.433}, {"pitch": 42, "velocity": 100, "note_on_time": 1.433, "note_off_time": 2.151}, {"pitch": 42, "velocity": 100, "note_on_time": 2.151, "note_off_time": 2.868}, {"pitch": 39, "velocity": 100, "note_on_time": 2.868, "note_off_time": 3.585}, {"pitch": 42, "velocity": 100, "note_on_time": 3.586, "note_off_time": 4.301}, {"pitch": 42, "velocity": 100, "note_on_time": 4.301, "note_off_time": 5.017}, {"pitch": 67, "velocity": 100, "note_on_time": 5.375, "note_off_time": 5.737}, {"pitch": 42, "velocity": 100, "note_on_time": 5.017, "note_off_time": 5.737}, {"pitch": 74, "velocity": 100, "note_on_time": 5.737, "note_off_time": 6.452}, {"pitch": 39, "velocity": 100, "note_on_time": 5.737, "note_off_time": 6.452}, {"pitch": 71, "velocity": 100, "note_on_time": 6.452, "note_off_time": 6.811}, {"pitch": 67, "velocity": 100, "note_on_time": 6.811, "note_off_time": 7.17}, {"pitch": 42, "velocity": 100, "note_on_time": 6.453, "note_off_time": 7.17}, {"pitch": 74, "velocity": 100, "note_on_time": 7.17, "note_off_time": 7.885}, {"pitch": 42, "velocity": 100, "note_on_time": 7.171, "note_off_time": 7.885}, {"pitch": 71, "velocity": 100, "note_on_time": 7.885, "note_off_time": 8.244}, {"pitch": 67, "velocity": 100, "note_on_time": 8.244, "note_off_time": 8.604}, {"pitch": 42, "velocity": 100, "note_on_time": 7.885, "note_off_time": 8.604}, {"pitch": 74, "velocity": 100, "note_on_time": 8.604, "note_off_time": 8.962}, {"pitch": 74, "velocity": 100, "note_on_time": 8.962, "note_off_time": 9.319}, {"pitch": 39, "velocity": 100, "note_on_time": 8.604, "note_off_time": 9.319}, {"pitch": 76, "velocity": 100, "note_on_time": 9.319, "note_off_time": 9.676}, {"pitch": 76, "velocity": 100, "note_on_time": 9.676, "note_off_time": 10.035}, {"pitch": 42, "velocity": 100, "note_on_time": 9.32, "note_off_time": 10.036}, {"pitch": 74, "velocity": 100, "note_on_time": 10.035, "note_off_time": 10.749}, {"pitch": 42, "velocity": 100, "note_on_time": 10.036, "note_off_time": 10.749}, {"pitch": 71, "velocity": 100, "note_on_time": 10.749, "note_off_time": 11.105}, {"pitch": 67, "velocity": 100, "note_on_time": 11.105, "note_off_time": 11.464}, {"pitch": 42, "velocity": 100, "note_on_time": 10.75, "note_off_time": 11.464}, {"pitch": 74, "velocity": 100, "note_on_time": 11.464, "note_off_time": 11.824}, {"pitch": 74, "velocity": 100, "note_on_time": 11.824, "note_off_time": 12.18}, {"pitch": 39, "velocity": 100, "note_on_time": 11.464, "note_off_time": 12.181}, {"pitch": 71, "velocity": 100, "note_on_time": 12.18, "note_off_time": 12.538}, {"pitch": 67, "velocity": 100, "note_on_time": 12.538, "note_off_time": 12.896}, {"pitch": 42, "velocity": 100, "note_on_time": 12.181, "note_off_time": 12.896}, {"pitch": 74, "velocity": 100, "note_on_time": 12.896, "note_off_time": 13.253}, {"pitch": 74, "velocity": 100, "note_on_time": 13.253, "note_off_time": 13.61}, {"pitch": 42, "velocity": 100, "note_on_time": 12.896, "note_off_time": 13.61}, {"pitch": 71, "velocity": 100, "note_on_time": 13.61, "note_off_time": 13.969}, {"pitch": 67, "velocity": 100, "note_on_time": 13.969, "note_off_time": 14.328}, {"pitch": 42, "velocity": 100, "note_on_time": 13.61, "note_off_time": 14.328}, {"pitch": 74, "velocity": 100, "note_on_time": 14.328, "note_off_time": 14.689}, {"pitch": 74, "velocity": 100, "note_on_time": 14.689, "note_off_time": 15.044}, {"pitch": 39, "velocity": 100, "note_on_time": 14.328, "note_off_time": 15.045}, {"pitch": 76, "velocity": 100, "note_on_time": 15.044, "note_off_time": 15.404}, {"pitch": 76, "velocity": 100, "note_on_time": 15.404, "note_off_time": 15.761}, {"pitch": 42, "velocity": 100, "note_on_time": 15.045, "note_off_time": 15.761}, {"pitch": 74, "velocity": 100, "note_on_time": 15.761, "note_off_time": 16.481}, {"pitch": 42, "velocity": 100, "note_on_time": 15.762, "note_off_time": 16.481}, {"pitch": 71, "velocity": 100, "note_on_time": 16.481, "note_off_time": 16.838}, {"pitch": 42, "velocity": 100, "note_on_time": 16.482, "note_off_time": 17.196}]</notes><options name="Option List">((4, 4), [0.5, 0.25], 3, 7, &lt;NoteRangePerHand.TWO_NOTES: 3&gt;, &lt;NoteRangePerHand.ONE_NOTE: 2&gt;, False, True, True, None)</options></target_notes><trials><trial trial_no="1" timestamp="2023_01_05-15_15_39"><notes name="Played Notes">[{"pitch": 67, "velocity": 72, "note_on_time": 5.38, "note_off_time": 5.76}, {"pitch": 74, "velocity": 84, "note_on_time": 5.75, "note_off_time": 6.477}, {"pitch": 71, "velocity": 83, "note_on_time": 6.403, "note_off_time": 6.797}, {"pitch": 67, "velocity": 78, "note_on_time": 6.749, "note_off_time": 7.118}, {"pitch": 74, "velocity": 87, "note_on_time": 7.122, "note_off_time": 7.895}, {"pitch": 71, "velocity": 84, "note_on_time": 7.836, "note_off_time": 8.178}, {"pitch": 67, "velocity": 80, "note_on_time": 8.144, "note_off_time": 8.516}, {"pitch": 74, "velocity": 87, "note_on_time": 8.511, "note_off_time": 8.769}, {"pitch": 74, "velocity": 78, "note_on_time": 8.872, "note_off_time": 9.301}, {"pitch": 76, "velocity": 91, "note_on_time": 9.277, "note_off_time": 9.428}, {"pitch": 76, "velocity": 90, "note_on_time": 9.582, "note_off_time": 10.039}, {"pitch": 74, "velocity": 89, "note_on_time": 10.0, "note_off_time": 10.771}, {"pitch": 71, "velocity": 86, "note_on_time": 10.72, "note_off_time": 11.111}, {"pitch": 67, "velocity": 62, "note_on_time": 11.072, "note_off_time": 11.441}, {"pitch": 74, "velocity": 85, "note_on_time": 11.44, "note_off_time": 11.634}, {"pitch": 74, "velocity": 84, "note_on_time": 11.789, "note_off_time": 12.217}, {"pitch": 71, "velocity": 84, "note_on_time": 12.138, "note_off_time": 12.539}, {"pitch": 67, "velocity": 81, "note_on_time": 12.506, "note_off_time": 12.838}, {"pitch": 74, "velocity": 89, "note_on_time": 12.853, "note_off_time": 13.082}, {"pitch": 74, "velocity": 74, "note_on_time": 13.191, "note_off_time": 13.631}, {"pitch": 71, "velocity": 71, "note_on_time": 13.567, "note_off_time": 13.925}, {"pitch": 67, "velocity": 75, "note_on_time": 13.909, "note_off_time": 14.294}, {"pitch": 74, "velocity": 91, "note_on_time": 14.279, "note_off_time": 14.501}, {"pitch": 74, "velocity": 72, "note_on_time": 14.611, "note_off_time": 14.995}, {"pitch": 76, "velocity": 88, "note_on_time": 14.987, "note_off_time": 15.208}, {"pitch": 76, "velocity": 74, "note_on_time": 15.325, "note_off_time": 15.761}, {"pitch": 74, "velocity": 89, "note_on_time": 15.72, "note_off_time": 16.54}]</notes><guidance name="Guidance Mode">None</guidance><error name="Error value">0.13492362169312164</error></trial></trials></MIDI>