<MIDI midiNo="2023_01_05-14_56_23"><target_notes><notes name="Note List">[{"pitch": 39, "velocity": 100, "note_on_time": 0.008, "note_off_time": 0.716}, {"pitch": 42, "velocity": 100, "note_on_time": 0.717, "note_off_time": 1.432}, {"pitch": 42, "velocity": 100, "note_on_time": 1.432, "note_off_time": 2.144}, {"pitch": 39, "velocity": 100, "note_on_time": 2.144, "note_off_time": 2.861}, {"pitch": 42, "velocity": 100, "note_on_time": 2.861, "note_off_time": 3.573}, {"pitch": 67, "velocity": 100, "note_on_time": 3.573, "note_off_time": 4.287}, {"pitch": 42, "velocity": 100, "note_on_time": 3.573, "note_off_time": 4.287}, {"pitch": 72, "velocity": 100, "note_on_time": 4.287, "note_off_time": 5.003}, {"pitch": 39, "velocity": 100, "note_on_time": 4.288, "note_off_time": 5.003}, {"pitch": 72, "velocity": 100, "note_on_time": 5.003, "note_off_time": 5.713}, {"pitch": 42, "velocity": 100, "note_on_time": 5.003, "note_off_time": 5.713}, {"pitch": 74, "velocity": 100, "note_on_time": 5.713, "note_off_time": 6.429}, {"pitch": 42, "velocity": 100, "note_on_time": 5.713, "note_off_time": 6.429}, {"pitch": 39, "velocity": 100, "note_on_time": 6.429, "note_off_time": 7.143}, {"pitch": 76, "velocity": 100, "note_on_time": 6.429, "note_off_time": 7.855}, {"pitch": 42, "velocity": 100, "note_on_time": 7.144, "note_off_time": 7.855}, {"pitch": 67, "velocity": 100, "note_on_time": 7.855, "note_off_time": 8.57}, {"pitch": 42, "velocity": 100, "note_on_time": 7.856, "note_off_time": 8.57}, {"pitch": 39, "velocity": 100, "note_on_time": 8.57, "note_off_time": 9.283}, {"pitch": 72, "velocity": 100, "note_on_time": 8.57, "note_off_time": 9.998}, {"pitch": 42, "velocity": 100, "note_on_time": 9.283, "note_off_time": 9.998}, {"pitch": 76, "velocity": 100, "note_on_time": 9.998, "note_off_time": 10.713}, {"pitch": 42, "velocity": 100, "note_on_time": 9.998, "note_off_time": 10.713}, {"pitch": 39, "velocity": 100, "note_on_time": 10.713, "note_off_time": 11.424}, {"pitch": 74, "velocity": 100, "note_on_time": 10.713, "note_off_time": 12.14}, {"pitch": 42, "velocity": 100, "note_on_time": 11.425, "note_off_time": 12.14}, {"pitch": 67, "velocity": 100, "note_on_time": 12.14, "note_off_time": 12.854}, {"pitch": 42, "velocity": 100, "note_on_time": 12.14, "note_off_time": 12.854}, {"pitch": 39, "velocity": 100, "note_on_time": 12.855, "note_off_time": 13.566}, {"pitch": 74, "velocity": 100, "note_on_time": 12.854, "note_off_time": 14.279}, {"pitch": 42, "velocity": 100, "note_on_time": 13.566, "note_off_time": 14.279}, {"pitch": 76, "velocity": 100, "note_on_time": 14.279, "note_off_time": 14.997}, {"pitch": 42, "velocity": 100, "note_on_time": 14.279, "note_off_time": 14.997}, {"pitch": 77, "velocity": 100, "note_on_time": 14.997, "note_off_time": 15.711}, {"pitch": 39, "velocity": 100, "note_on_time": 14.998, "note_off_time": 15.711}, {"pitch": 74, "velocity": 100, "note_on_time": 15.711, "note_off_time": 16.425}, {"pitch": 42, "velocity": 100, "note_on_time": 15.711, "note_off_time": 16.425}, {"pitch": 71, "velocity": 100, "note_on_time": 16.425, "note_off_time": 17.138}, {"pitch": 42, "velocity": 100, "note_on_time": 16.426, "note_off_time": 17.138}, {"pitch": 67, "velocity": 100, "note_on_time": 17.138, "note_off_time": 17.851}, {"pitch": 39, "velocity": 100, "note_on_time": 17.138, "note_off_time": 17.851}, {"pitch": 69, "velocity": 100, "note_on_time": 17.851, "note_off_time": 18.564}, {"pitch": 42, "velocity": 100, "note_on_time": 17.852, "note_off_time": 18.564}, {"pitch": 71, "velocity": 100, "note_on_time": 18.564, "note_off_time": 19.275}, {"pitch": 42, "velocity": 100, "note_on_time": 18.564, "note_off_time": 19.275}, {"pitch": 39, "velocity": 100, "note_on_time": 19.275, "note_off_time": 19.989}, {"pitch": 72, "velocity": 100, "note_on_time": 19.275, "note_off_time": 20.703}, {"pitch": 42, "velocity": 100, "note_on_time": 19.99, "note_off_time": 20.703}, {"pitch": 67, "velocity": 100, "note_on_time": 20.703, "note_off_time": 21.415}, {"pitch": 42, "velocity": 100, "note_on_time": 20.703, "note_off_time": 21.415}, {"pitch": 39, "velocity": 100, "note_on_time": 21.415, "note_off_time": 22.133}, {"pitch": 72, "velocity": 100, "note_on_time": 21.415, "note_off_time": 22.847}, {"pitch": 42, "velocity": 100, "note_on_time": 22.134, "note_off_time": 22.847}, {"pitch": 74, "velocity": 100, "note_on_time": 22.847, "note_off_time": 23.561}, {"pitch": 42, "velocity": 100, "note_on_time": 22.847, "note_off_time": 23.561}, {"pitch": 76, "velocity": 100, "note_on_time": 23.561, "note_off_time": 24.273}, {"pitch": 39, "velocity": 100, "note_on_time": 23.561, "note_off_time": 24.273}, {"pitch": 76, "velocity": 100, "note_on_time": 24.273, "note_off_time": 24.984}, {"pitch": 42, "velocity": 100, "note_on_time": 24.273, "note_off_time": 24.984}, {"pitch": 67, "velocity": 100, "note_on_time": 24.984, "note_off_time": 25.697}, {"pitch": 42, "velocity": 100, "note_on_time": 24.984, "note_off_time": 25.698}, {"pitch": 39, "velocity": 100, "note_on_time": 25.698, "note_off_time": 26.409}, {"pitch": 72, "velocity": 100, "note_on_time": 25.697, "note_off_time": 27.119}, {"pitch": 42, "velocity": 100, "note_on_time": 26.409, "note_off_time": 27.12}, {"pitch": 76, "velocity": 100, "note_on_time": 27.119, "note_off_time": 27.83}, {"pitch": 42, "velocity": 100, "note_on_time": 27.12, "note_off_time": 27.831}, {"pitch": 39, "velocity": 100, "note_on_time": 27.831, "note_off_time": 28.548}, {"pitch": 42, "velocity": 100, "note_on_time": 28.548, "note_off_time": 29.263}, {"pitch": 74, "velocity": 100, "note_on_time": 27.83, "note_off_time": 29.978}, {"pitch": 42, "velocity": 100, "note_on_time": 29.264, "note_off_time": 29.978}, {"pitch": 39, "velocity": 100, "note_on_time": 29.979, "note_off_time": 30.692}, {"pitch": 74, "velocity": 100, "note_on_time": 29.978, "note_off_time": 31.407}, {"pitch": 42, "velocity": 100, "note_on_time": 30.693, "note_off_time": 31.407}, {"pitch": 76, "velocity": 100, "note_on_time": 31.407, "note_off_time": 32.122}, {"pitch": 42, "velocity": 100, "note_on_time": 31.408, "note_off_time": 32.122}, {"pitch": 77, "velocity": 100, "note_on_time": 32.122, "note_off_time": 32.836}, {"pitch": 39, "velocity": 100, "note_on_time": 32.123, "note_off_time": 32.836}, {"pitch": 74, "velocity": 100, "note_on_time": 32.836, "note_off_time": 33.552}, {"pitch": 42, "velocity": 100, "note_on_time": 32.837, "note_off_time": 33.552}, {"pitch": 71, "velocity": 100, "note_on_time": 33.552, "note_off_time": 34.267}, {"pitch": 42, "velocity": 100, "note_on_time": 33.552, "note_off_time": 34.267}, {"pitch": 67, "velocity": 100, "note_on_time": 34.267, "note_off_time": 34.983}, {"pitch": 39, "velocity": 100, "note_on_time": 34.267, "note_off_time": 34.983}, {"pitch": 69, "velocity": 100, "note_on_time": 34.983, "note_off_time": 35.696}, {"pitch": 42, "velocity": 100, "note_on_time": 34.983, "note_off_time": 35.696}, {"pitch": 71, "velocity": 100, "note_on_time": 35.696, "note_off_time": 36.412}, {"pitch": 42, "velocity": 100, "note_on_time": 35.696, "note_off_time": 36.412}, {"pitch": 39, "velocity": 100, "note_on_time": 36.413, "note_off_time": 37.129}, {"pitch": 72, "velocity": 100, "note_on_time": 36.412, "note_off_time": 37.842}, {"pitch": 42, "velocity": 100, "note_on_time": 37.129, "note_off_time": 37.843}, {"pitch": 42, "velocity": 100, "note_on_time": 37.843, "note_off_time": 38.55}]</notes><options name="Option List">((4, 4), [0.5, 0.25], 3, 7, &lt;NoteRangePerHand.TWO_NOTES: 3&gt;, &lt;NoteRangePerHand.ONE_NOTE: 2&gt;, False, True, True, None)</options></target_notes><trials><trial trial_no="1" timestamp="2023_01_05-14_56_23"><notes name="Played Notes">[{"pitch": 67, "velocity": 85, "note_on_time": 3.587, "note_off_time": 4.334}, {"pitch": 72, "velocity": 87, "note_on_time": 4.302, "note_off_time": 4.86}, {"pitch": 72, "velocity": 81, "note_on_time": 4.989, "note_off_time": 5.74}, {"pitch": 74, "velocity": 95, "note_on_time": 5.693, "note_off_time": 6.442}, {"pitch": 76, "velocity": 89, "note_on_time": 6.393, "note_off_time": 7.908}, {"pitch": 67, "velocity": 76, "note_on_time": 7.842, "note_off_time": 8.568}, {"pitch": 72, "velocity": 92, "note_on_time": 8.538, "note_off_time": 9.972}, {"pitch": 76, "velocity": 90, "note_on_time": 9.971, "note_off_time": 10.707}, {"pitch": 74, "velocity": 94, "note_on_time": 10.67, "note_off_time": 12.139}, {"pitch": 67, "velocity": 79, "note_on_time": 12.12, "note_off_time": 12.849}, {"pitch": 74, "velocity": 93, "note_on_time": 12.821, "note_off_time": 14.281}, {"pitch": 76, "velocity": 86, "note_on_time": 14.253, "note_off_time": 15.026}, {"pitch": 77, "velocity": 85, "note_on_time": 14.995, "note_off_time": 15.749}, {"pitch": 74, "velocity": 93, "note_on_time": 15.685, "note_off_time": 16.388}, {"pitch": 71, "velocity": 84, "note_on_time": 16.384, "note_off_time": 17.123}, {"pitch": 67, "velocity": 79, "note_on_time": 17.063, "note_off_time": 17.82}, {"pitch": 69, "velocity": 91, "note_on_time": 17.771, "note_off_time": 18.574}, {"pitch": 71, "velocity": 89, "note_on_time": 18.508, "note_off_time": 19.281}, {"pitch": 72, "velocity": 98, "note_on_time": 19.243, "note_off_time": 20.787}, {"pitch": 67, "velocity": 73, "note_on_time": 20.742, "note_off_time": 21.455}, {"pitch": 72, "velocity": 86, "note_on_time": 21.429, "note_off_time": 22.816}, {"pitch": 74, "velocity": 95, "note_on_time": 22.782, "note_off_time": 23.53}, {"pitch": 76, "velocity": 90, "note_on_time": 23.488, "note_off_time": 23.976}, {"pitch": 76, "velocity": 86, "note_on_time": 24.173, "note_off_time": 24.944}, {"pitch": 67, "velocity": 79, "note_on_time": 24.896, "note_off_time": 25.663}, {"pitch": 72, "velocity": 93, "note_on_time": 25.641, "note_off_time": 27.104}, {"pitch": 76, "velocity": 89, "note_on_time": 27.079, "note_off_time": 27.821}, {"pitch": 74, "velocity": 93, "note_on_time": 27.778, "note_off_time": 29.593}, {"pitch": 74, "velocity": 89, "note_on_time": 29.954, "note_off_time": 31.427}, {"pitch": 76, "velocity": 90, "note_on_time": 31.391, "note_off_time": 32.141}, {"pitch": 77, "velocity": 87, "note_on_time": 32.119, "note_off_time": 32.862}, {"pitch": 74, "velocity": 91, "note_on_time": 32.82, "note_off_time": 33.53}, {"pitch": 71, "velocity": 88, "note_on_time": 33.53, "note_off_time": 34.298}, {"pitch": 67, "velocity": 85, "note_on_time": 34.251, "note_off_time": 34.999}, {"pitch": 69, "velocity": 94, "note_on_time": 34.956, "note_off_time": 35.69}, {"pitch": 71, "velocity": 88, "note_on_time": 35.622, "note_off_time": 36.406}]</notes><guidance name="Guidance Mode">None</guidance><error name="Error value">0.12591986051841303</error></trial></trials></MIDI>