<MIDI midiNo="2023_01_05-15_21_53"><target_notes><notes name="Note List">[{"pitch": 39, "velocity": 100, "note_on_time": 0.006, "note_off_time": 0.728}, {"pitch": 42, "velocity": 100, "note_on_time": 0.728, "note_off_time": 1.445}, {"pitch": 42, "velocity": 100, "note_on_time": 1.445, "note_off_time": 2.16}, {"pitch": 42, "velocity": 100, "note_on_time": 2.161, "note_off_time": 2.878}, {"pitch": 39, "velocity": 100, "note_on_time": 2.878, "note_off_time": 3.591}, {"pitch": 42, "velocity": 100, "note_on_time": 3.592, "note_off_time": 4.308}, {"pitch": 42, "velocity": 100, "note_on_time": 4.309, "note_off_time": 5.025}, {"pitch": 62, "velocity": 100, "note_on_time": 5.025, "note_off_time": 5.384}, {"pitch": 67, "velocity": 100, "note_on_time": 5.384, "note_off_time": 5.744}, {"pitch": 42, "velocity": 100, "note_on_time": 5.025, "note_off_time": 5.744}, {"pitch": 71, "velocity": 100, "note_on_time": 5.744, "note_off_time": 6.458}, {"pitch": 39, "velocity": 100, "note_on_time": 5.744, "note_off_time": 6.458}, {"pitch": 71, "velocity": 100, "note_on_time": 6.458, "note_off_time": 6.817}, {"pitch": 69, "velocity": 100, "note_on_time": 6.817, "note_off_time": 7.176}, {"pitch": 42, "velocity": 100, "note_on_time": 6.458, "note_off_time": 7.177}, {"pitch": 67, "velocity": 100, "note_on_time": 7.176, "note_off_time": 7.891}, {"pitch": 42, "velocity": 100, "note_on_time": 7.177, "note_off_time": 7.892}, {"pitch": 69, "velocity": 100, "note_on_time": 7.891, "note_off_time": 8.251}, {"pitch": 67, "velocity": 100, "note_on_time": 8.251, "note_off_time": 8.61}, {"pitch": 42, "velocity": 100, "note_on_time": 7.892, "note_off_time": 8.61}, {"pitch": 64, "velocity": 100, "note_on_time": 8.61, "note_off_time": 8.969}, {"pitch": 39, "velocity": 100, "note_on_time": 8.611, "note_off_time": 9.328}, {"pitch": 42, "velocity": 100, "note_on_time": 9.328, "note_off_time": 10.045}, {"pitch": 67, "velocity": 100, "note_on_time": 8.969, "note_off_time": 10.764}, {"pitch": 42, "velocity": 100, "note_on_time": 10.045, "note_off_time": 10.764}, {"pitch": 62, "velocity": 100, "note_on_time": 10.764, "note_off_time": 11.125}, {"pitch": 67, "velocity": 100, "note_on_time": 11.125, "note_off_time": 11.484}, {"pitch": 42, "velocity": 100, "note_on_time": 10.765, "note_off_time": 11.484}, {"pitch": 71, "velocity": 100, "note_on_time": 11.484, "note_off_time": 12.202}, {"pitch": 39, "velocity": 100, "note_on_time": 11.484, "note_off_time": 12.202}, {"pitch": 67, "velocity": 100, "note_on_time": 12.202, "note_off_time": 12.559}, {"pitch": 71, "velocity": 100, "note_on_time": 12.559, "note_off_time": 12.919}, {"pitch": 42, "velocity": 100, "note_on_time": 12.202, "note_off_time": 12.92}, {"pitch": 74, "velocity": 100, "note_on_time": 12.919, "note_off_time": 13.636}, {"pitch": 42, "velocity": 100, "note_on_time": 12.92, "note_off_time": 13.636}, {"pitch": 72, "velocity": 100, "note_on_time": 13.636, "note_off_time": 13.996}, {"pitch": 71, "velocity": 100, "note_on_time": 13.996, "note_off_time": 14.355}, {"pitch": 42, "velocity": 100, "note_on_time": 13.637, "note_off_time": 14.355}, {"pitch": 39, "velocity": 100, "note_on_time": 14.355, "note_off_time": 15.075}, {"pitch": 42, "velocity": 100, "note_on_time": 15.075, "note_off_time": 15.794}, {"pitch": 69, "velocity": 100, "note_on_time": 14.355, "note_off_time": 16.508}, {"pitch": 42, "velocity": 100, "note_on_time": 15.794, "note_off_time": 16.508}, {"pitch": 74, "velocity": 100, "note_on_time": 16.508, "note_off_time": 16.867}, {"pitch": 72, "velocity": 100, "note_on_time": 16.867, "note_off_time": 17.226}, {"pitch": 42, "velocity": 100, "note_on_time": 16.508, "note_off_time": 17.226}, {"pitch": 71, "velocity": 100, "note_on_time": 17.226, "note_off_time": 17.944}, {"pitch": 39, "velocity": 100, "note_on_time": 17.226, "note_off_time": 17.945}, {"pitch": 71, "velocity": 100, "note_on_time": 17.944, "note_off_time": 18.303}, {"pitch": 69, "velocity": 100, "note_on_time": 18.303, "note_off_time": 18.662}, {"pitch": 42, "velocity": 100, "note_on_time": 17.945, "note_off_time": 18.662}, {"pitch": 67, "velocity": 100, "note_on_time": 18.662, "note_off_time": 19.377}, {"pitch": 42, "velocity": 100, "note_on_time": 18.662, "note_off_time": 19.377}, {"pitch": 69, "velocity": 100, "note_on_time": 19.377, "note_off_time": 19.734}, {"pitch": 71, "velocity": 100, "note_on_time": 19.734, "note_off_time": 20.095}, {"pitch": 42, "velocity": 100, "note_on_time": 19.377, "note_off_time": 20.095}, {"pitch": 74, "velocity": 100, "note_on_time": 20.095, "note_off_time": 20.453}, {"pitch": 39, "velocity": 100, "note_on_time": 20.095, "note_off_time": 20.81}, {"pitch": 42, "velocity": 100, "note_on_time": 20.81, "note_off_time": 21.526}, {"pitch": 72, "velocity": 100, "note_on_time": 20.453, "note_off_time": 22.245}, {"pitch": 42, "velocity": 100, "note_on_time": 21.526, "note_off_time": 22.245}, {"pitch": 64, "velocity": 100, "note_on_time": 22.245, "note_off_time": 22.604}, {"pitch": 64, "velocity": 100, "note_on_time": 22.604, "note_off_time": 22.964}, {"pitch": 42, "velocity": 100, "note_on_time": 22.246, "note_off_time": 22.964}, {"pitch": 62, "velocity": 100, "note_on_time": 22.964, "note_off_time": 23.681}, {"pitch": 39, "velocity": 100, "note_on_time": 22.964, "note_off_time": 23.681}, {"pitch": 66, "velocity": 100, "note_on_time": 23.681, "note_off_time": 24.037}, {"pitch": 67, "velocity": 100, "note_on_time": 24.037, "note_off_time": 24.396}, {"pitch": 42, "velocity": 100, "note_on_time": 23.681, "note_off_time": 24.396}, {"pitch": 69, "velocity": 100, "note_on_time": 24.396, "note_off_time": 25.113}, {"pitch": 42, "velocity": 100, "note_on_time": 24.396, "note_off_time": 25.114}, {"pitch": 71, "velocity": 100, "note_on_time": 25.113, "note_off_time": 25.471}, {"pitch": 69, "velocity": 100, "note_on_time": 25.471, "note_off_time": 25.831}, {"pitch": 42, "velocity": 100, "note_on_time": 25.114, "note_off_time": 25.831}, {"pitch": 39, "velocity": 100, "note_on_time": 25.831, "note_off_time": 26.546}, {"pitch": 42, "velocity": 100, "note_on_time": 26.546, "note_off_time": 27.265}, {"pitch": 67, "velocity": 100, "note_on_time": 25.831, "note_off_time": 27.98}, {"pitch": 42, "velocity": 100, "note_on_time": 27.265, "note_off_time": 27.981}, {"pitch": 42, "velocity": 100, "note_on_time": 27.981, "note_off_time": 28.696}]</notes><options name="Option List">((4, 4), [0.5, 0.25], 3, 7, &lt;NoteRangePerHand.TWO_NOTES: 3&gt;, &lt;NoteRangePerHand.ONE_NOTE: 2&gt;, False, True, True, None)</options></target_notes><trials><trial trial_no="1" timestamp="2023_01_05-15_21_53"><notes name="Played Notes">[{"pitch": 62, "velocity": 66, "note_on_time": 4.988, "note_off_time": 5.428}, {"pitch": 67, "velocity": 80, "note_on_time": 5.364, "note_off_time": 5.772}, {"pitch": 71, "velocity": 89, "note_on_time": 5.743, "note_off_time": 6.324}, {"pitch": 71, "velocity": 89, "note_on_time": 6.448, "note_off_time": 6.857}, {"pitch": 69, "velocity": 90, "note_on_time": 6.817, "note_off_time": 7.217}, {"pitch": 67, "velocity": 89, "note_on_time": 7.18, "note_off_time": 7.909}, {"pitch": 69, "velocity": 86, "note_on_time": 7.909, "note_off_time": 8.264}, {"pitch": 67, "velocity": 89, "note_on_time": 8.226, "note_off_time": 8.65}, {"pitch": 64, "velocity": 76, "note_on_time": 8.604, "note_off_time": 9.027}, {"pitch": 67, "velocity": 66, "note_on_time": 9.003, "note_off_time": 10.814}, {"pitch": 62, "velocity": 76, "note_on_time": 10.797, "note_off_time": 11.161}, {"pitch": 67, "velocity": 82, "note_on_time": 11.149, "note_off_time": 11.559}, {"pitch": 71, "velocity": 91, "note_on_time": 11.517, "note_off_time": 12.095}, {"pitch": 65, "velocity": 78, "note_on_time": 12.386, "note_off_time": 12.447}, {"pitch": 67, "velocity": 87, "note_on_time": 12.386, "note_off_time": 12.74}, {"pitch": 71, "velocity": 87, "note_on_time": 12.653, "note_off_time": 13.104}, {"pitch": 74, "velocity": 80, "note_on_time": 13.06, "note_off_time": 13.763}, {"pitch": 72, "velocity": 95, "note_on_time": 13.712, "note_off_time": 14.08}, {"pitch": 71, "velocity": 91, "note_on_time": 14.027, "note_off_time": 14.407}, {"pitch": 69, "velocity": 95, "note_on_time": 14.366, "note_off_time": 16.516}, {"pitch": 74, "velocity": 78, "note_on_time": 16.512, "note_off_time": 16.915}, {"pitch": 72, "velocity": 87, "note_on_time": 16.835, "note_off_time": 17.34}, {"pitch": 71, "velocity": 94, "note_on_time": 17.282, "note_off_time": 17.883}, {"pitch": 69, "velocity": 95, "note_on_time": 18.11, "note_off_time": 18.444}, {"pitch": 67, "velocity": 89, "note_on_time": 18.452, "note_off_time": 18.838}, {"pitch": 65, "velocity": 82, "note_on_time": 18.777, "note_off_time": 19.107}, {"pitch": 67, "velocity": 84, "note_on_time": 19.991, "note_off_time": 20.404}, {"pitch": 69, "velocity": 85, "note_on_time": 20.379, "note_off_time": 20.761}, {"pitch": 74, "velocity": 93, "note_on_time": 21.122, "note_off_time": 21.587}, {"pitch": 72, "velocity": 97, "note_on_time": 21.528, "note_off_time": 23.698}, {"pitch": 67, "velocity": 78, "note_on_time": 23.628, "note_off_time": 23.849}, {"pitch": 67, "velocity": 60, "note_on_time": 23.978, "note_off_time": 24.378}, {"pitch": 64, "velocity": 75, "note_on_time": 24.406, "note_off_time": 24.568}, {"pitch": 62, "velocity": 70, "note_on_time": 24.396, "note_off_time": 24.612}]</notes><guidance name="Guidance Mode">None</guidance><error name="Error value">0.996120523219814</error></trial></trials></MIDI>