<MIDI midiNo="2023_01_05-15_11_35"><target_notes><notes name="Note List">[{"pitch": 39, "velocity": 100, "note_on_time": 0.005, "note_off_time": 0.713}, {"pitch": 42, "velocity": 100, "note_on_time": 0.713, "note_off_time": 1.427}, {"pitch": 42, "velocity": 100, "note_on_time": 1.427, "note_off_time": 2.142}, {"pitch": 42, "velocity": 100, "note_on_time": 2.143, "note_off_time": 2.854}, {"pitch": 39, "velocity": 100, "note_on_time": 2.854, "note_off_time": 3.569}, {"pitch": 42, "velocity": 100, "note_on_time": 3.569, "note_off_time": 4.284}, {"pitch": 42, "velocity": 100, "note_on_time": 4.284, "note_off_time": 4.997}, {"pitch": 67, "velocity": 100, "note_on_time": 5.356, "note_off_time": 5.716}, {"pitch": 42, "velocity": 100, "note_on_time": 4.997, "note_off_time": 5.716}, {"pitch": 74, "velocity": 100, "note_on_time": 5.716, "note_off_time": 6.425}, {"pitch": 39, "velocity": 100, "note_on_time": 5.717, "note_off_time": 6.425}, {"pitch": 71, "velocity": 100, "note_on_time": 6.425, "note_off_time": 6.783}, {"pitch": 67, "velocity": 100, "note_on_time": 6.783, "note_off_time": 7.14}, {"pitch": 42, "velocity": 100, "note_on_time": 6.425, "note_off_time": 7.14}, {"pitch": 74, "velocity": 100, "note_on_time": 7.14, "note_off_time": 7.852}, {"pitch": 42, "velocity": 100, "note_on_time": 7.14, "note_off_time": 7.852}, {"pitch": 71, "velocity": 100, "note_on_time": 7.852, "note_off_time": 8.207}, {"pitch": 67, "velocity": 100, "note_on_time": 8.207, "note_off_time": 8.565}, {"pitch": 42, "velocity": 100, "note_on_time": 7.852, "note_off_time": 8.565}, {"pitch": 74, "velocity": 100, "note_on_time": 8.565, "note_off_time": 8.924}, {"pitch": 74, "velocity": 100, "note_on_time": 8.924, "note_off_time": 9.282}, {"pitch": 39, "velocity": 100, "note_on_time": 8.565, "note_off_time": 9.282}, {"pitch": 76, "velocity": 100, "note_on_time": 9.282, "note_off_time": 9.638}, {"pitch": 76, "velocity": 100, "note_on_time": 9.638, "note_off_time": 9.994}, {"pitch": 42, "velocity": 100, "note_on_time": 9.282, "note_off_time": 9.995}, {"pitch": 74, "velocity": 100, "note_on_time": 9.994, "note_off_time": 10.708}, {"pitch": 42, "velocity": 100, "note_on_time": 9.995, "note_off_time": 10.708}, {"pitch": 71, "velocity": 100, "note_on_time": 10.708, "note_off_time": 11.064}, {"pitch": 67, "velocity": 100, "note_on_time": 11.064, "note_off_time": 11.421}, {"pitch": 42, "velocity": 100, "note_on_time": 10.708, "note_off_time": 11.421}, {"pitch": 74, "velocity": 100, "note_on_time": 11.421, "note_off_time": 11.778}, {"pitch": 74, "velocity": 100, "note_on_time": 11.778, "note_off_time": 12.134}, {"pitch": 39, "velocity": 100, "note_on_time": 11.421, "note_off_time": 12.135}, {"pitch": 71, "velocity": 100, "note_on_time": 12.134, "note_off_time": 12.493}, {"pitch": 67, "velocity": 100, "note_on_time": 12.493, "note_off_time": 12.849}, {"pitch": 42, "velocity": 100, "note_on_time": 12.135, "note_off_time": 12.85}, {"pitch": 74, "velocity": 100, "note_on_time": 12.849, "note_off_time": 13.208}, {"pitch": 74, "velocity": 100, "note_on_time": 13.208, "note_off_time": 13.567}, {"pitch": 42, "velocity": 100, "note_on_time": 12.85, "note_off_time": 13.567}, {"pitch": 71, "velocity": 100, "note_on_time": 13.567, "note_off_time": 13.922}, {"pitch": 67, "velocity": 100, "note_on_time": 13.922, "note_off_time": 14.28}, {"pitch": 42, "velocity": 100, "note_on_time": 13.568, "note_off_time": 14.28}, {"pitch": 74, "velocity": 100, "note_on_time": 14.28, "note_off_time": 14.637}, {"pitch": 74, "velocity": 100, "note_on_time": 14.637, "note_off_time": 14.994}, {"pitch": 39, "velocity": 100, "note_on_time": 14.28, "note_off_time": 14.995}, {"pitch": 76, "velocity": 100, "note_on_time": 14.994, "note_off_time": 15.352}, {"pitch": 76, "velocity": 100, "note_on_time": 15.352, "note_off_time": 15.71}, {"pitch": 42, "velocity": 100, "note_on_time": 14.995, "note_off_time": 15.71}, {"pitch": 74, "velocity": 100, "note_on_time": 15.71, "note_off_time": 16.424}, {"pitch": 42, "velocity": 100, "note_on_time": 15.71, "note_off_time": 16.424}, {"pitch": 71, "velocity": 100, "note_on_time": 16.424, "note_off_time": 16.78}, {"pitch": 42, "velocity": 100, "note_on_time": 16.424, "note_off_time": 17.136}]</notes><options name="Option List">((4, 4), [0.5, 0.25], 3, 7, &lt;NoteRangePerHand.TWO_NOTES: 3&gt;, &lt;NoteRangePerHand.ONE_NOTE: 2&gt;, False, True, True, None)</options></target_notes><trials><trial trial_no="1" timestamp="2023_01_05-15_11_35"><notes name="Played Notes">[{"pitch": 67, "velocity": 77, "note_on_time": 5.366, "note_off_time": 5.766}, {"pitch": 74, "velocity": 80, "note_on_time": 5.724, "note_off_time": 6.417}, {"pitch": 71, "velocity": 92, "note_on_time": 6.375, "note_off_time": 6.782}, {"pitch": 67, "velocity": 80, "note_on_time": 6.723, "note_off_time": 7.111}, {"pitch": 74, "velocity": 95, "note_on_time": 7.087, "note_off_time": 7.794}, {"pitch": 71, "velocity": 90, "note_on_time": 7.75, "note_off_time": 8.123}, {"pitch": 67, "velocity": 82, "note_on_time": 8.065, "note_off_time": 8.455}, {"pitch": 74, "velocity": 90, "note_on_time": 8.45, "note_off_time": 8.689}, {"pitch": 74, "velocity": 80, "note_on_time": 8.802, "note_off_time": 9.18}, {"pitch": 76, "velocity": 90, "note_on_time": 9.136, "note_off_time": 9.388}, {"pitch": 76, "velocity": 73, "note_on_time": 9.515, "note_off_time": 9.939}, {"pitch": 74, "velocity": 89, "note_on_time": 9.907, "note_off_time": 10.681}, {"pitch": 71, "velocity": 84, "note_on_time": 10.644, "note_off_time": 11.065}, {"pitch": 67, "velocity": 66, "note_on_time": 10.986, "note_off_time": 11.369}, {"pitch": 74, "velocity": 91, "note_on_time": 11.358, "note_off_time": 11.614}, {"pitch": 74, "velocity": 78, "note_on_time": 11.724, "note_off_time": 12.131}, {"pitch": 71, "velocity": 87, "note_on_time": 12.071, "note_off_time": 12.51}, {"pitch": 67, "velocity": 79, "note_on_time": 12.449, "note_off_time": 12.812}, {"pitch": 74, "velocity": 89, "note_on_time": 12.83, "note_off_time": 13.061}, {"pitch": 74, "velocity": 81, "note_on_time": 13.175, "note_off_time": 13.629}, {"pitch": 71, "velocity": 87, "note_on_time": 13.539, "note_off_time": 14.025}, {"pitch": 67, "velocity": 70, "note_on_time": 13.884, "note_off_time": 14.281}, {"pitch": 74, "velocity": 60, "note_on_time": 14.266, "note_off_time": 14.455}, {"pitch": 74, "velocity": 87, "note_on_time": 14.597, "note_off_time": 15.036}, {"pitch": 76, "velocity": 92, "note_on_time": 14.991, "note_off_time": 15.447}, {"pitch": 74, "velocity": 86, "note_on_time": 15.38, "note_off_time": 15.8}, {"pitch": 74, "velocity": 83, "note_on_time": 15.85, "note_off_time": 16.64}]</notes><guidance name="Guidance Mode">None</guidance><error name="Error value">0.17029556084656086</error></trial></trials></MIDI>