<MIDI midiNo="2023_01_05-15_13_20"><target_notes><notes name="Note List">[{"pitch": 39, "velocity": 100, "note_on_time": 0.004, "note_off_time": 0.723}, {"pitch": 42, "velocity": 100, "note_on_time": 0.723, "note_off_time": 1.438}, {"pitch": 42, "velocity": 100, "note_on_time": 1.439, "note_off_time": 2.153}, {"pitch": 42, "velocity": 100, "note_on_time": 2.153, "note_off_time": 2.866}, {"pitch": 39, "velocity": 100, "note_on_time": 2.866, "note_off_time": 3.583}, {"pitch": 42, "velocity": 100, "note_on_time": 3.583, "note_off_time": 4.296}, {"pitch": 42, "velocity": 100, "note_on_time": 4.296, "note_off_time": 5.012}, {"pitch": 62, "velocity": 100, "note_on_time": 5.37, "note_off_time": 5.727}, {"pitch": 42, "velocity": 100, "note_on_time": 5.013, "note_off_time": 5.728}, {"pitch": 62, "velocity": 100, "note_on_time": 5.727, "note_off_time": 6.44}, {"pitch": 39, "velocity": 100, "note_on_time": 5.728, "note_off_time": 6.44}, {"pitch": 62, "velocity": 100, "note_on_time": 6.44, "note_off_time": 6.796}, {"pitch": 62, "velocity": 100, "note_on_time": 6.796, "note_off_time": 7.153}, {"pitch": 42, "velocity": 100, "note_on_time": 6.44, "note_off_time": 7.153}, {"pitch": 62, "velocity": 100, "note_on_time": 7.153, "note_off_time": 7.868}, {"pitch": 42, "velocity": 100, "note_on_time": 7.153, "note_off_time": 7.868}, {"pitch": 62, "velocity": 100, "note_on_time": 7.868, "note_off_time": 8.225}, {"pitch": 62, "velocity": 100, "note_on_time": 8.225, "note_off_time": 8.581}, {"pitch": 42, "velocity": 100, "note_on_time": 7.868, "note_off_time": 8.581}, {"pitch": 62, "velocity": 100, "note_on_time": 8.581, "note_off_time": 8.939}, {"pitch": 62, "velocity": 100, "note_on_time": 8.939, "note_off_time": 9.295}, {"pitch": 39, "velocity": 100, "note_on_time": 8.581, "note_off_time": 9.295}, {"pitch": 62, "velocity": 100, "note_on_time": 9.295, "note_off_time": 9.651}, {"pitch": 62, "velocity": 100, "note_on_time": 9.651, "note_off_time": 10.009}, {"pitch": 42, "velocity": 100, "note_on_time": 9.295, "note_off_time": 10.009}, {"pitch": 62, "velocity": 100, "note_on_time": 10.009, "note_off_time": 10.724}, {"pitch": 42, "velocity": 100, "note_on_time": 10.01, "note_off_time": 10.724}, {"pitch": 62, "velocity": 100, "note_on_time": 10.724, "note_off_time": 11.081}, {"pitch": 62, "velocity": 100, "note_on_time": 11.081, "note_off_time": 11.435}, {"pitch": 42, "velocity": 100, "note_on_time": 10.724, "note_off_time": 11.436}, {"pitch": 62, "velocity": 100, "note_on_time": 11.435, "note_off_time": 11.791}, {"pitch": 62, "velocity": 100, "note_on_time": 11.791, "note_off_time": 12.148}, {"pitch": 39, "velocity": 100, "note_on_time": 11.436, "note_off_time": 12.148}, {"pitch": 62, "velocity": 100, "note_on_time": 12.148, "note_off_time": 12.506}, {"pitch": 62, "velocity": 100, "note_on_time": 12.506, "note_off_time": 12.864}, {"pitch": 42, "velocity": 100, "note_on_time": 12.148, "note_off_time": 12.864}, {"pitch": 62, "velocity": 100, "note_on_time": 12.864, "note_off_time": 13.221}, {"pitch": 62, "velocity": 100, "note_on_time": 13.221, "note_off_time": 13.575}, {"pitch": 42, "velocity": 100, "note_on_time": 12.865, "note_off_time": 13.575}, {"pitch": 62, "velocity": 100, "note_on_time": 13.575, "note_off_time": 13.935}, {"pitch": 62, "velocity": 100, "note_on_time": 13.935, "note_off_time": 14.294}, {"pitch": 42, "velocity": 100, "note_on_time": 13.576, "note_off_time": 14.294}, {"pitch": 62, "velocity": 100, "note_on_time": 14.294, "note_off_time": 14.651}, {"pitch": 62, "velocity": 100, "note_on_time": 14.651, "note_off_time": 15.009}, {"pitch": 39, "velocity": 100, "note_on_time": 14.294, "note_off_time": 15.009}, {"pitch": 62, "velocity": 100, "note_on_time": 15.009, "note_off_time": 15.366}, {"pitch": 62, "velocity": 100, "note_on_time": 15.366, "note_off_time": 15.727}, {"pitch": 42, "velocity": 100, "note_on_time": 15.01, "note_off_time": 15.727}, {"pitch": 62, "velocity": 100, "note_on_time": 15.727, "note_off_time": 16.441}, {"pitch": 42, "velocity": 100, "note_on_time": 15.727, "note_off_time": 16.441}, {"pitch": 62, "velocity": 100, "note_on_time": 16.441, "note_off_time": 16.798}, {"pitch": 42, "velocity": 100, "note_on_time": 16.441, "note_off_time": 17.156}]</notes><options name="Option List">((4, 4), [0.5, 0.25], 3, 7, &lt;NoteRangePerHand.TWO_NOTES: 3&gt;, &lt;NoteRangePerHand.ONE_NOTE: 2&gt;, False, True, True, None)</options></target_notes><trials><trial trial_no="1" timestamp="2023_01_05-15_13_20"><notes name="Played Notes">[{"pitch": 62, "velocity": 87, "note_on_time": 5.459, "note_off_time": 5.723}, {"pitch": 62, "velocity": 94, "note_on_time": 5.863, "note_off_time": 6.292}, {"pitch": 62, "velocity": 88, "note_on_time": 6.454, "note_off_time": 6.642}, {"pitch": 62, "velocity": 87, "note_on_time": 6.815, "note_off_time": 6.982}, {"pitch": 62, "velocity": 91, "note_on_time": 7.159, "note_off_time": 7.654}, {"pitch": 62, "velocity": 90, "note_on_time": 7.874, "note_off_time": 8.045}, {"pitch": 62, "velocity": 84, "note_on_time": 8.205, "note_off_time": 8.418}, {"pitch": 62, "velocity": 94, "note_on_time": 8.611, "note_off_time": 8.804}, {"pitch": 62, "velocity": 90, "note_on_time": 8.952, "note_off_time": 9.084}, {"pitch": 62, "velocity": 88, "note_on_time": 9.297, "note_off_time": 9.451}, {"pitch": 62, "velocity": 86, "note_on_time": 9.612, "note_off_time": 9.753}, {"pitch": 62, "velocity": 92, "note_on_time": 9.996, "note_off_time": 10.517}, {"pitch": 62, "velocity": 90, "note_on_time": 10.72, "note_off_time": 10.864}, {"pitch": 62, "velocity": 85, "note_on_time": 11.035, "note_off_time": 11.252}, {"pitch": 62, "velocity": 93, "note_on_time": 11.428, "note_off_time": 11.591}, {"pitch": 62, "velocity": 82, "note_on_time": 11.775, "note_off_time": 11.893}, {"pitch": 62, "velocity": 89, "note_on_time": 12.118, "note_off_time": 12.28}, {"pitch": 62, "velocity": 85, "note_on_time": 12.45, "note_off_time": 12.591}, {"pitch": 62, "velocity": 85, "note_on_time": 12.795, "note_off_time": 12.946}, {"pitch": 62, "velocity": 90, "note_on_time": 13.158, "note_off_time": 13.277}, {"pitch": 62, "velocity": 89, "note_on_time": 13.499, "note_off_time": 13.617}, {"pitch": 62, "velocity": 92, "note_on_time": 13.866, "note_off_time": 13.999}, {"pitch": 62, "velocity": 93, "note_on_time": 14.231, "note_off_time": 14.366}, {"pitch": 62, "velocity": 90, "note_on_time": 14.555, "note_off_time": 14.703}, {"pitch": 62, "velocity": 85, "note_on_time": 14.891, "note_off_time": 15.071}, {"pitch": 62, "velocity": 89, "note_on_time": 15.248, "note_off_time": 15.447}, {"pitch": 62, "velocity": 94, "note_on_time": 15.644, "note_off_time": 16.318}]</notes><guidance name="Guidance Mode">None</guidance><error name="Error value">0.2530600158730158</error></trial></trials></MIDI>