<MIDI midiNo="2023_01_05-14_51_11"><target_notes><notes name="Note List">[{"pitch": 39, "velocity": 100, "note_on_time": 0.008, "note_off_time": 0.727}, {"pitch": 42, "velocity": 100, "note_on_time": 0.727, "note_off_time": 1.439}, {"pitch": 42, "velocity": 100, "note_on_time": 1.439, "note_off_time": 2.154}, {"pitch": 39, "velocity": 100, "note_on_time": 2.154, "note_off_time": 2.869}, {"pitch": 42, "velocity": 100, "note_on_time": 2.87, "note_off_time": 3.58}, {"pitch": 62, "velocity": 100, "note_on_time": 3.58, "note_off_time": 4.292}, {"pitch": 42, "velocity": 100, "note_on_time": 3.58, "note_off_time": 4.293}, {"pitch": 62, "velocity": 100, "note_on_time": 4.292, "note_off_time": 5.008}, {"pitch": 39, "velocity": 100, "note_on_time": 4.293, "note_off_time": 5.008}, {"pitch": 62, "velocity": 100, "note_on_time": 5.008, "note_off_time": 5.716}, {"pitch": 42, "velocity": 100, "note_on_time": 5.008, "note_off_time": 5.716}, {"pitch": 62, "velocity": 100, "note_on_time": 5.716, "note_off_time": 6.429}, {"pitch": 42, "velocity": 100, "note_on_time": 5.717, "note_off_time": 6.43}, {"pitch": 39, "velocity": 100, "note_on_time": 6.43, "note_off_time": 7.143}, {"pitch": 62, "velocity": 100, "note_on_time": 6.429, "note_off_time": 7.855}, {"pitch": 42, "velocity": 100, "note_on_time": 7.143, "note_off_time": 7.855}, {"pitch": 62, "velocity": 100, "note_on_time": 7.855, "note_off_time": 8.57}, {"pitch": 42, "velocity": 100, "note_on_time": 7.855, "note_off_time": 8.571}, {"pitch": 39, "velocity": 100, "note_on_time": 8.571, "note_off_time": 9.284}, {"pitch": 62, "velocity": 100, "note_on_time": 8.57, "note_off_time": 9.997}, {"pitch": 42, "velocity": 100, "note_on_time": 9.284, "note_off_time": 9.997}, {"pitch": 62, "velocity": 100, "note_on_time": 9.997, "note_off_time": 10.71}, {"pitch": 42, "velocity": 100, "note_on_time": 9.997, "note_off_time": 10.711}, {"pitch": 39, "velocity": 100, "note_on_time": 10.711, "note_off_time": 11.423}, {"pitch": 62, "velocity": 100, "note_on_time": 10.71, "note_off_time": 12.132}, {"pitch": 42, "velocity": 100, "note_on_time": 11.423, "note_off_time": 12.132}, {"pitch": 62, "velocity": 100, "note_on_time": 12.132, "note_off_time": 12.848}, {"pitch": 42, "velocity": 100, "note_on_time": 12.132, "note_off_time": 12.848}, {"pitch": 39, "velocity": 100, "note_on_time": 12.848, "note_off_time": 13.565}, {"pitch": 62, "velocity": 100, "note_on_time": 12.848, "note_off_time": 14.282}, {"pitch": 42, "velocity": 100, "note_on_time": 13.566, "note_off_time": 14.282}, {"pitch": 62, "velocity": 100, "note_on_time": 14.282, "note_off_time": 14.996}, {"pitch": 42, "velocity": 100, "note_on_time": 14.282, "note_off_time": 14.996}, {"pitch": 62, "velocity": 100, "note_on_time": 14.996, "note_off_time": 15.707}, {"pitch": 39, "velocity": 100, "note_on_time": 14.996, "note_off_time": 15.708}, {"pitch": 62, "velocity": 100, "note_on_time": 15.707, "note_off_time": 16.424}, {"pitch": 42, "velocity": 100, "note_on_time": 15.708, "note_off_time": 16.424}, {"pitch": 62, "velocity": 100, "note_on_time": 16.424, "note_off_time": 17.14}, {"pitch": 42, "velocity": 100, "note_on_time": 16.424, "note_off_time": 17.14}, {"pitch": 62, "velocity": 100, "note_on_time": 17.14, "note_off_time": 17.858}, {"pitch": 39, "velocity": 100, "note_on_time": 17.141, "note_off_time": 17.859}, {"pitch": 62, "velocity": 100, "note_on_time": 17.858, "note_off_time": 18.571}, {"pitch": 42, "velocity": 100, "note_on_time": 17.859, "note_off_time": 18.572}, {"pitch": 62, "velocity": 100, "note_on_time": 18.571, "note_off_time": 19.279}, {"pitch": 42, "velocity": 100, "note_on_time": 18.572, "note_off_time": 19.279}, {"pitch": 39, "velocity": 100, "note_on_time": 19.279, "note_off_time": 19.994}, {"pitch": 62, "velocity": 100, "note_on_time": 19.279, "note_off_time": 20.707}, {"pitch": 42, "velocity": 100, "note_on_time": 19.994, "note_off_time": 20.708}, {"pitch": 62, "velocity": 100, "note_on_time": 20.707, "note_off_time": 21.421}, {"pitch": 42, "velocity": 100, "note_on_time": 20.708, "note_off_time": 21.421}, {"pitch": 39, "velocity": 100, "note_on_time": 21.422, "note_off_time": 22.137}, {"pitch": 62, "velocity": 100, "note_on_time": 21.421, "note_off_time": 22.853}, {"pitch": 42, "velocity": 100, "note_on_time": 22.138, "note_off_time": 22.853}, {"pitch": 62, "velocity": 100, "note_on_time": 22.853, "note_off_time": 23.565}, {"pitch": 42, "velocity": 100, "note_on_time": 22.853, "note_off_time": 23.565}, {"pitch": 62, "velocity": 100, "note_on_time": 23.565, "note_off_time": 24.279}, {"pitch": 39, "velocity": 100, "note_on_time": 23.565, "note_off_time": 24.279}, {"pitch": 62, "velocity": 100, "note_on_time": 24.279, "note_off_time": 24.992}, {"pitch": 42, "velocity": 100, "note_on_time": 24.279, "note_off_time": 24.993}, {"pitch": 62, "velocity": 100, "note_on_time": 24.992, "note_off_time": 25.709}, {"pitch": 42, "velocity": 100, "note_on_time": 24.993, "note_off_time": 25.709}, {"pitch": 39, "velocity": 100, "note_on_time": 25.709, "note_off_time": 26.426}, {"pitch": 62, "velocity": 100, "note_on_time": 25.709, "note_off_time": 27.139}, {"pitch": 42, "velocity": 100, "note_on_time": 26.426, "note_off_time": 27.139}, {"pitch": 62, "velocity": 100, "note_on_time": 27.139, "note_off_time": 27.853}, {"pitch": 42, "velocity": 100, "note_on_time": 27.139, "note_off_time": 27.853}, {"pitch": 39, "velocity": 100, "note_on_time": 27.853, "note_off_time": 28.571}, {"pitch": 42, "velocity": 100, "note_on_time": 28.571, "note_off_time": 29.282}, {"pitch": 62, "velocity": 100, "note_on_time": 27.853, "note_off_time": 29.995}, {"pitch": 42, "velocity": 100, "note_on_time": 29.283, "note_off_time": 29.995}, {"pitch": 39, "velocity": 100, "note_on_time": 29.995, "note_off_time": 30.708}, {"pitch": 62, "velocity": 100, "note_on_time": 29.995, "note_off_time": 31.422}, {"pitch": 42, "velocity": 100, "note_on_time": 30.708, "note_off_time": 31.422}, {"pitch": 62, "velocity": 100, "note_on_time": 31.422, "note_off_time": 32.133}, {"pitch": 42, "velocity": 100, "note_on_time": 31.422, "note_off_time": 32.134}, {"pitch": 62, "velocity": 100, "note_on_time": 32.133, "note_off_time": 32.844}, {"pitch": 39, "velocity": 100, "note_on_time": 32.134, "note_off_time": 32.844}, {"pitch": 62, "velocity": 100, "note_on_time": 32.844, "note_off_time": 33.561}, {"pitch": 42, "velocity": 100, "note_on_time": 32.844, "note_off_time": 33.561}, {"pitch": 62, "velocity": 100, "note_on_time": 33.561, "note_off_time": 34.277}, {"pitch": 42, "velocity": 100, "note_on_time": 33.562, "note_off_time": 34.277}, {"pitch": 62, "velocity": 100, "note_on_time": 34.277, "note_off_time": 34.99}, {"pitch": 39, "velocity": 100, "note_on_time": 34.277, "note_off_time": 34.99}, {"pitch": 62, "velocity": 100, "note_on_time": 34.99, "note_off_time": 35.703}, {"pitch": 42, "velocity": 100, "note_on_time": 34.99, "note_off_time": 35.703}, {"pitch": 62, "velocity": 100, "note_on_time": 35.703, "note_off_time": 36.417}, {"pitch": 42, "velocity": 100, "note_on_time": 35.703, "note_off_time": 36.417}, {"pitch": 39, "velocity": 100, "note_on_time": 36.417, "note_off_time": 37.134}, {"pitch": 62, "velocity": 100, "note_on_time": 36.417, "note_off_time": 37.85}, {"pitch": 42, "velocity": 100, "note_on_time": 37.135, "note_off_time": 37.85}, {"pitch": 42, "velocity": 100, "note_on_time": 37.85, "note_off_time": 38.56}]</notes><options name="Option List">((4, 4), [0.5, 0.25], 3, 7, &lt;NoteRangePerHand.TWO_NOTES: 3&gt;, &lt;NoteRangePerHand.ONE_NOTE: 2&gt;, False, True, True, None)</options></target_notes><trials><trial trial_no="1" timestamp="2023_01_05-14_51_11"><notes name="Played Notes">[{"pitch": 62, "velocity": 83, "note_on_time": 3.579, "note_off_time": 3.998}, {"pitch": 62, "velocity": 84, "note_on_time": 4.259, "note_off_time": 4.714}, {"pitch": 62, "velocity": 83, "note_on_time": 4.925, "note_off_time": 5.329}, {"pitch": 62, "velocity": 84, "note_on_time": 5.647, "note_off_time": 6.036}, {"pitch": 62, "velocity": 85, "note_on_time": 6.363, "note_off_time": 7.571}, {"pitch": 62, "velocity": 84, "note_on_time": 7.827, "note_off_time": 8.106}, {"pitch": 62, "velocity": 81, "note_on_time": 8.502, "note_off_time": 9.592}, {"pitch": 62, "velocity": 82, "note_on_time": 9.923, "note_off_time": 10.235}, {"pitch": 62, "velocity": 85, "note_on_time": 10.622, "note_off_time": 11.722}, {"pitch": 62, "velocity": 81, "note_on_time": 12.068, "note_off_time": 12.367}, {"pitch": 62, "velocity": 86, "note_on_time": 12.764, "note_off_time": 13.911}, {"pitch": 62, "velocity": 85, "note_on_time": 14.214, "note_off_time": 14.627}, {"pitch": 62, "velocity": 86, "note_on_time": 14.966, "note_off_time": 15.306}, {"pitch": 62, "velocity": 77, "note_on_time": 15.626, "note_off_time": 16.007}, {"pitch": 62, "velocity": 82, "note_on_time": 16.353, "note_off_time": 16.756}, {"pitch": 62, "velocity": 80, "note_on_time": 17.059, "note_off_time": 17.427}, {"pitch": 62, "velocity": 79, "note_on_time": 17.738, "note_off_time": 18.127}, {"pitch": 62, "velocity": 79, "note_on_time": 18.505, "note_off_time": 18.876}, {"pitch": 62, "velocity": 87, "note_on_time": 19.248, "note_off_time": 20.46}, {"pitch": 62, "velocity": 78, "note_on_time": 20.672, "note_off_time": 20.948}, {"pitch": 62, "velocity": 86, "note_on_time": 21.374, "note_off_time": 22.509}, {"pitch": 62, "velocity": 83, "note_on_time": 22.791, "note_off_time": 23.092}, {"pitch": 62, "velocity": 86, "note_on_time": 23.487, "note_off_time": 23.875}, {"pitch": 62, "velocity": 86, "note_on_time": 24.148, "note_off_time": 24.508}, {"pitch": 62, "velocity": 75, "note_on_time": 24.886, "note_off_time": 25.276}, {"pitch": 62, "velocity": 80, "note_on_time": 25.614, "note_off_time": 26.769}, {"pitch": 62, "velocity": 84, "note_on_time": 27.103, "note_off_time": 27.352}, {"pitch": 62, "velocity": 82, "note_on_time": 27.789, "note_off_time": 29.368}, {"pitch": 62, "velocity": 85, "note_on_time": 29.939, "note_off_time": 31.14}, {"pitch": 62, "velocity": 79, "note_on_time": 31.382, "note_off_time": 31.74}, {"pitch": 62, "velocity": 85, "note_on_time": 32.059, "note_off_time": 32.494}, {"pitch": 62, "velocity": 80, "note_on_time": 32.762, "note_off_time": 33.143}, {"pitch": 62, "velocity": 78, "note_on_time": 33.453, "note_off_time": 33.859}, {"pitch": 62, "velocity": 84, "note_on_time": 34.134, "note_off_time": 34.583}, {"pitch": 62, "velocity": 81, "note_on_time": 34.897, "note_off_time": 35.321}, {"pitch": 62, "velocity": 78, "note_on_time": 35.638, "note_off_time": 35.982}]</notes><guidance name="Guidance Mode">None</guidance><error name="Error value">0.2966089716295246</error></trial></trials></MIDI>