<MIDI midiNo="2023_01_29-13_23_10"><target_notes><notes name="Note List">[{"pitch": 39, "velocity": 100, "note_on_time": 0.007, "note_off_time": 0.729}, {"pitch": 42, "velocity": 100, "note_on_time": 0.729, "note_off_time": 1.445}, {"pitch": 42, "velocity": 100, "note_on_time": 1.445, "note_off_time": 2.157}, {"pitch": 39, "velocity": 100, "note_on_time": 2.158, "note_off_time": 2.876}, {"pitch": 42, "velocity": 100, "note_on_time": 2.876, "note_off_time": 3.593}, {"pitch": 67, "velocity": 100, "note_on_time": 3.592, "note_off_time": 4.31}, {"pitch": 42, "velocity": 100, "note_on_time": 3.593, "note_off_time": 4.31}, {"pitch": 72, "velocity": 100, "note_on_time": 4.31, "note_off_time": 5.024}, {"pitch": 39, "velocity": 100, "note_on_time": 4.311, "note_off_time": 5.024}, {"pitch": 72, "velocity": 100, "note_on_time": 5.024, "note_off_time": 5.741}, {"pitch": 42, "velocity": 100, "note_on_time": 5.024, "note_off_time": 5.741}, {"pitch": 74, "velocity": 100, "note_on_time": 5.741, "note_off_time": 6.458}, {"pitch": 42, "velocity": 100, "note_on_time": 5.742, "note_off_time": 6.458}, {"pitch": 39, "velocity": 100, "note_on_time": 6.458, "note_off_time": 7.175}, {"pitch": 76, "velocity": 100, "note_on_time": 6.458, "note_off_time": 7.888}, {"pitch": 42, "velocity": 100, "note_on_time": 7.175, "note_off_time": 7.889}, {"pitch": 67, "velocity": 100, "note_on_time": 7.888, "note_off_time": 8.601}, {"pitch": 42, "velocity": 100, "note_on_time": 7.889, "note_off_time": 8.602}, {"pitch": 39, "velocity": 100, "note_on_time": 8.602, "note_off_time": 9.322}, {"pitch": 72, "velocity": 100, "note_on_time": 8.601, "note_off_time": 10.037}, {"pitch": 42, "velocity": 100, "note_on_time": 9.322, "note_off_time": 10.037}, {"pitch": 76, "velocity": 100, "note_on_time": 10.037, "note_off_time": 10.749}, {"pitch": 42, "velocity": 100, "note_on_time": 10.037, "note_off_time": 10.749}, {"pitch": 39, "velocity": 100, "note_on_time": 10.75, "note_off_time": 11.467}, {"pitch": 74, "velocity": 100, "note_on_time": 10.749, "note_off_time": 12.182}, {"pitch": 42, "velocity": 100, "note_on_time": 11.467, "note_off_time": 12.183}, {"pitch": 67, "velocity": 100, "note_on_time": 12.182, "note_off_time": 12.901}, {"pitch": 42, "velocity": 100, "note_on_time": 12.183, "note_off_time": 12.902}, {"pitch": 39, "velocity": 100, "note_on_time": 12.902, "note_off_time": 13.617}, {"pitch": 74, "velocity": 100, "note_on_time": 12.901, "note_off_time": 14.332}, {"pitch": 42, "velocity": 100, "note_on_time": 13.618, "note_off_time": 14.332}, {"pitch": 76, "velocity": 100, "note_on_time": 14.332, "note_off_time": 15.049}, {"pitch": 42, "velocity": 100, "note_on_time": 14.333, "note_off_time": 15.05}, {"pitch": 77, "velocity": 100, "note_on_time": 15.049, "note_off_time": 15.771}, {"pitch": 39, "velocity": 100, "note_on_time": 15.05, "note_off_time": 15.771}, {"pitch": 74, "velocity": 100, "note_on_time": 15.771, "note_off_time": 16.489}, {"pitch": 42, "velocity": 100, "note_on_time": 15.771, "note_off_time": 16.49}, {"pitch": 71, "velocity": 100, "note_on_time": 16.489, "note_off_time": 17.204}, {"pitch": 42, "velocity": 100, "note_on_time": 16.49, "note_off_time": 17.204}, {"pitch": 67, "velocity": 100, "note_on_time": 17.204, "note_off_time": 17.923}, {"pitch": 39, "velocity": 100, "note_on_time": 17.205, "note_off_time": 17.923}, {"pitch": 69, "velocity": 100, "note_on_time": 17.923, "note_off_time": 18.639}, {"pitch": 42, "velocity": 100, "note_on_time": 17.923, "note_off_time": 18.64}, {"pitch": 71, "velocity": 100, "note_on_time": 18.639, "note_off_time": 19.362}, {"pitch": 42, "velocity": 100, "note_on_time": 18.64, "note_off_time": 19.362}, {"pitch": 39, "velocity": 100, "note_on_time": 19.362, "note_off_time": 20.079}, {"pitch": 72, "velocity": 100, "note_on_time": 19.362, "note_off_time": 20.797}, {"pitch": 42, "velocity": 100, "note_on_time": 20.079, "note_off_time": 20.797}, {"pitch": 67, "velocity": 100, "note_on_time": 20.797, "note_off_time": 21.514}, {"pitch": 42, "velocity": 100, "note_on_time": 20.797, "note_off_time": 21.514}, {"pitch": 39, "velocity": 100, "note_on_time": 21.514, "note_off_time": 22.228}, {"pitch": 72, "velocity": 100, "note_on_time": 21.514, "note_off_time": 22.944}, {"pitch": 42, "velocity": 100, "note_on_time": 22.228, "note_off_time": 22.944}, {"pitch": 74, "velocity": 100, "note_on_time": 22.944, "note_off_time": 23.662}, {"pitch": 42, "velocity": 100, "note_on_time": 22.945, "note_off_time": 23.662}, {"pitch": 76, "velocity": 100, "note_on_time": 23.662, "note_off_time": 24.381}, {"pitch": 39, "velocity": 100, "note_on_time": 23.663, "note_off_time": 24.381}, {"pitch": 76, "velocity": 100, "note_on_time": 24.381, "note_off_time": 25.098}, {"pitch": 42, "velocity": 100, "note_on_time": 24.381, "note_off_time": 25.098}, {"pitch": 67, "velocity": 100, "note_on_time": 25.098, "note_off_time": 25.814}, {"pitch": 42, "velocity": 100, "note_on_time": 25.099, "note_off_time": 25.814}, {"pitch": 39, "velocity": 100, "note_on_time": 25.814, "note_off_time": 26.532}, {"pitch": 72, "velocity": 100, "note_on_time": 25.814, "note_off_time": 27.249}, {"pitch": 42, "velocity": 100, "note_on_time": 26.532, "note_off_time": 27.249}, {"pitch": 76, "velocity": 100, "note_on_time": 27.249, "note_off_time": 27.961}, {"pitch": 42, "velocity": 100, "note_on_time": 27.249, "note_off_time": 27.961}, {"pitch": 39, "velocity": 100, "note_on_time": 27.961, "note_off_time": 28.676}, {"pitch": 42, "velocity": 100, "note_on_time": 28.676, "note_off_time": 29.391}, {"pitch": 74, "velocity": 100, "note_on_time": 27.961, "note_off_time": 30.112}, {"pitch": 42, "velocity": 100, "note_on_time": 29.391, "note_off_time": 30.112}, {"pitch": 39, "velocity": 100, "note_on_time": 30.112, "note_off_time": 30.828}, {"pitch": 74, "velocity": 100, "note_on_time": 30.112, "note_off_time": 31.546}, {"pitch": 42, "velocity": 100, "note_on_time": 30.828, "note_off_time": 31.546}, {"pitch": 76, "velocity": 100, "note_on_time": 31.546, "note_off_time": 32.257}, {"pitch": 42, "velocity": 100, "note_on_time": 31.547, "note_off_time": 32.257}, {"pitch": 77, "velocity": 100, "note_on_time": 32.257, "note_off_time": 32.972}, {"pitch": 39, "velocity": 100, "note_on_time": 32.257, "note_off_time": 32.972}, {"pitch": 74, "velocity": 100, "note_on_time": 32.972, "note_off_time": 33.687}, {"pitch": 42, "velocity": 100, "note_on_time": 32.972, "note_off_time": 33.687}, {"pitch": 71, "velocity": 100, "note_on_time": 33.687, "note_off_time": 34.405}, {"pitch": 42, "velocity": 100, "note_on_time": 33.687, "note_off_time": 34.405}, {"pitch": 67, "velocity": 100, "note_on_time": 34.405, "note_off_time": 35.119}, {"pitch": 39, "velocity": 100, "note_on_time": 34.405, "note_off_time": 35.12}, {"pitch": 69, "velocity": 100, "note_on_time": 35.119, "note_off_time": 35.839}, {"pitch": 42, "velocity": 100, "note_on_time": 35.12, "note_off_time": 35.84}, {"pitch": 71, "velocity": 100, "note_on_time": 35.839, "note_off_time": 36.556}, {"pitch": 42, "velocity": 100, "note_on_time": 35.84, "note_off_time": 36.557}, {"pitch": 39, "velocity": 100, "note_on_time": 36.557, "note_off_time": 37.274}, {"pitch": 72, "velocity": 100, "note_on_time": 36.556, "note_off_time": 37.991}, {"pitch": 42, "velocity": 100, "note_on_time": 37.274, "note_off_time": 37.991}, {"pitch": 42, "velocity": 100, "note_on_time": 37.991, "note_off_time": 38.706}]</notes><options name="Option List">((4, 4), [0.5, 0.25], 3, 7, &lt;NoteRangePerHand.TWO_NOTES: 3&gt;, &lt;NoteRangePerHand.ONE_NOTE: 2&gt;, False, True, True, None)</options></target_notes><trials><trial trial_no="1" timestamp="2023_01_29-13_23_10"><notes name="Played Notes">[{"pitch": 67, "velocity": 58, "note_on_time": 2.714, "note_off_time": 3.253}, {"pitch": 72, "velocity": 66, "note_on_time": 3.201, "note_off_time": 3.639}, {"pitch": 72, "velocity": 58, "note_on_time": 3.761, "note_off_time": 4.282}, {"pitch": 74, "velocity": 53, "note_on_time": 4.272, "note_off_time": 4.764}, {"pitch": 76, "velocity": 62, "note_on_time": 4.76, "note_off_time": 5.903}, {"pitch": 67, "velocity": 51, "note_on_time": 5.846, "note_off_time": 6.334}, {"pitch": 71, "velocity": 54, "note_on_time": 6.32, "note_off_time": 6.69}, {"pitch": 67, "velocity": 45, "note_on_time": 6.784, "note_off_time": 7.107}, {"pitch": 72, "velocity": 60, "note_on_time": 7.096, "note_off_time": 7.84}, {"pitch": 76, "velocity": 58, "note_on_time": 7.865, "note_off_time": 8.34}, {"pitch": 74, "velocity": 66, "note_on_time": 8.363, "note_off_time": 9.435}, {"pitch": 72, "velocity": 56, "note_on_time": 10.104, "note_off_time": 10.378}, {"pitch": 67, "velocity": 48, "note_on_time": 9.35, "note_off_time": 11.202}, {"pitch": 74, "velocity": 52, "note_on_time": 10.919, "note_off_time": 11.693}, {"pitch": 76, "velocity": 55, "note_on_time": 11.728, "note_off_time": 12.143}, {"pitch": 77, "velocity": 50, "note_on_time": 12.168, "note_off_time": 12.701}, {"pitch": 76, "velocity": 56, "note_on_time": 12.664, "note_off_time": 13.026}, {"pitch": 77, "velocity": 65, "note_on_time": 13.165, "note_off_time": 13.659}, {"pitch": 74, "velocity": 64, "note_on_time": 13.614, "note_off_time": 14.077}, {"pitch": 71, "velocity": 66, "note_on_time": 14.07, "note_off_time": 14.56}, {"pitch": 67, "velocity": 38, "note_on_time": 14.554, "note_off_time": 15.047}, {"pitch": 71, "velocity": 62, "note_on_time": 15.014, "note_off_time": 15.343}, {"pitch": 67, "velocity": 60, "note_on_time": 15.647, "note_off_time": 16.052}, {"pitch": 69, "velocity": 60, "note_on_time": 16.034, "note_off_time": 16.464}, {"pitch": 71, "velocity": 58, "note_on_time": 16.46, "note_off_time": 16.898}, {"pitch": 72, "velocity": 48, "note_on_time": 16.928, "note_off_time": 17.88}, {"pitch": 67, "velocity": 41, "note_on_time": 17.89, "note_off_time": 18.464}, {"pitch": 72, "velocity": 41, "note_on_time": 18.42, "note_off_time": 18.7}, {"pitch": 72, "velocity": 47, "note_on_time": 18.901, "note_off_time": 19.413}, {"pitch": 74, "velocity": 23, "note_on_time": 19.424, "note_off_time": 19.918}, {"pitch": 76, "velocity": 52, "note_on_time": 19.931, "note_off_time": 21.48}, {"pitch": 67, "velocity": 33, "note_on_time": 20.972, "note_off_time": 21.613}, {"pitch": 67, "velocity": 39, "note_on_time": 21.809, "note_off_time": 22.155}, {"pitch": 69, "velocity": 31, "note_on_time": 22.171, "note_off_time": 22.559}, {"pitch": 67, "velocity": 43, "note_on_time": 22.724, "note_off_time": 22.983}, {"pitch": 71, "velocity": 36, "note_on_time": 23.018, "note_off_time": 23.445}, {"pitch": 67, "velocity": 53, "note_on_time": 24.399, "note_off_time": 24.711}, {"pitch": 72, "velocity": 38, "note_on_time": 24.686, "note_off_time": 25.062}, {"pitch": 74, "velocity": 44, "note_on_time": 25.101, "note_off_time": 25.396}, {"pitch": 72, "velocity": 50, "note_on_time": 25.635, "note_off_time": 25.905}, {"pitch": 67, "velocity": 50, "note_on_time": 25.923, "note_off_time": 26.12}, {"pitch": 71, "velocity": 52, "note_on_time": 26.195, "note_off_time": 26.283}, {"pitch": 67, "velocity": 15, "note_on_time": 27.762, "note_off_time": 28.199}, {"pitch": 67, "velocity": 34, "note_on_time": 28.649, "note_off_time": 28.845}, {"pitch": 72, "velocity": 40, "note_on_time": 28.682, "note_off_time": 28.851}, {"pitch": 74, "velocity": 69, "note_on_time": 29.198, "note_off_time": 29.33}, {"pitch": 67, "velocity": 61, "note_on_time": 29.187, "note_off_time": 29.396}, {"pitch": 76, "velocity": 70, "note_on_time": 29.592, "note_off_time": 29.957}, {"pitch": 67, "velocity": 68, "note_on_time": 29.594, "note_off_time": 30.035}, {"pitch": 76, "velocity": 66, "note_on_time": 30.264, "note_off_time": 30.756}, {"pitch": 67, "velocity": 72, "note_on_time": 30.256, "note_off_time": 30.766}, {"pitch": 72, "velocity": 73, "note_on_time": 30.272, "note_off_time": 30.77}, {"pitch": 67, "velocity": 67, "note_on_time": 34.209, "note_off_time": 34.584}, {"pitch": 76, "velocity": 68, "note_on_time": 34.209, "note_off_time": 34.663}, {"pitch": 72, "velocity": 76, "note_on_time": 34.218, "note_off_time": 34.673}, {"pitch": 96, "velocity": 96, "note_on_time": 36.736, "note_off_time": 37.117}]</notes><guidance name="Guidance Mode">None</guidance><error name="Error value">10.287969484115676</error></trial></trials></MIDI>