<MIDI midiNo="2023_01_29-13_10_51"><target_notes><notes name="Note List">[{"pitch": 39, "velocity": 100, "note_on_time": 0.007, "note_off_time": 0.716}, {"pitch": 42, "velocity": 100, "note_on_time": 0.716, "note_off_time": 1.432}, {"pitch": 42, "velocity": 100, "note_on_time": 1.433, "note_off_time": 2.144}, {"pitch": 42, "velocity": 100, "note_on_time": 2.144, "note_off_time": 2.861}, {"pitch": 64, "velocity": 100, "note_on_time": 2.86, "note_off_time": 3.576}, {"pitch": 39, "velocity": 100, "note_on_time": 2.861, "note_off_time": 3.577}, {"pitch": 64, "velocity": 100, "note_on_time": 3.576, "note_off_time": 4.29}, {"pitch": 42, "velocity": 100, "note_on_time": 3.577, "note_off_time": 4.29}, {"pitch": 65, "velocity": 100, "note_on_time": 4.29, "note_off_time": 5.008}, {"pitch": 42, "velocity": 100, "note_on_time": 4.29, "note_off_time": 5.008}, {"pitch": 67, "velocity": 100, "note_on_time": 5.008, "note_off_time": 5.724}, {"pitch": 42, "velocity": 100, "note_on_time": 5.008, "note_off_time": 5.725}, {"pitch": 67, "velocity": 100, "note_on_time": 5.724, "note_off_time": 6.439}, {"pitch": 39, "velocity": 100, "note_on_time": 5.725, "note_off_time": 6.439}, {"pitch": 65, "velocity": 100, "note_on_time": 6.439, "note_off_time": 7.156}, {"pitch": 42, "velocity": 100, "note_on_time": 6.439, "note_off_time": 7.156}, {"pitch": 64, "velocity": 100, "note_on_time": 7.156, "note_off_time": 7.869}, {"pitch": 42, "velocity": 100, "note_on_time": 7.157, "note_off_time": 7.869}, {"pitch": 62, "velocity": 100, "note_on_time": 7.869, "note_off_time": 8.585}, {"pitch": 42, "velocity": 100, "note_on_time": 7.87, "note_off_time": 8.586}, {"pitch": 60, "velocity": 100, "note_on_time": 8.585, "note_off_time": 9.303}, {"pitch": 39, "velocity": 100, "note_on_time": 8.586, "note_off_time": 9.303}, {"pitch": 60, "velocity": 100, "note_on_time": 9.303, "note_off_time": 10.021}, {"pitch": 42, "velocity": 100, "note_on_time": 9.303, "note_off_time": 10.021}, {"pitch": 62, "velocity": 100, "note_on_time": 10.021, "note_off_time": 10.739}, {"pitch": 42, "velocity": 100, "note_on_time": 10.022, "note_off_time": 10.739}, {"pitch": 64, "velocity": 100, "note_on_time": 10.739, "note_off_time": 11.456}, {"pitch": 42, "velocity": 100, "note_on_time": 10.739, "note_off_time": 11.457}, {"pitch": 64, "velocity": 100, "note_on_time": 11.456, "note_off_time": 12.172}, {"pitch": 39, "velocity": 100, "note_on_time": 11.457, "note_off_time": 12.172}, {"pitch": 62, "velocity": 100, "note_on_time": 12.172, "note_off_time": 12.889}, {"pitch": 42, "velocity": 100, "note_on_time": 12.173, "note_off_time": 12.89}, {"pitch": 42, "velocity": 100, "note_on_time": 12.89, "note_off_time": 13.607}, {"pitch": 62, "velocity": 100, "note_on_time": 12.889, "note_off_time": 14.323}, {"pitch": 42, "velocity": 100, "note_on_time": 13.607, "note_off_time": 14.323}, {"pitch": 64, "velocity": 100, "note_on_time": 14.323, "note_off_time": 15.037}, {"pitch": 39, "velocity": 100, "note_on_time": 14.323, "note_off_time": 15.037}, {"pitch": 64, "velocity": 100, "note_on_time": 15.037, "note_off_time": 15.753}, {"pitch": 42, "velocity": 100, "note_on_time": 15.037, "note_off_time": 15.754}, {"pitch": 65, "velocity": 100, "note_on_time": 15.753, "note_off_time": 16.471}, {"pitch": 42, "velocity": 100, "note_on_time": 15.754, "note_off_time": 16.471}, {"pitch": 67, "velocity": 100, "note_on_time": 16.471, "note_off_time": 17.187}, {"pitch": 42, "velocity": 100, "note_on_time": 16.471, "note_off_time": 17.188}, {"pitch": 67, "velocity": 100, "note_on_time": 17.187, "note_off_time": 17.899}, {"pitch": 39, "velocity": 100, "note_on_time": 17.188, "note_off_time": 17.9}, {"pitch": 65, "velocity": 100, "note_on_time": 17.899, "note_off_time": 18.617}, {"pitch": 42, "velocity": 100, "note_on_time": 17.9, "note_off_time": 18.617}, {"pitch": 64, "velocity": 100, "note_on_time": 18.617, "note_off_time": 19.33}, {"pitch": 42, "velocity": 100, "note_on_time": 18.617, "note_off_time": 19.331}, {"pitch": 62, "velocity": 100, "note_on_time": 19.33, "note_off_time": 20.042}, {"pitch": 42, "velocity": 100, "note_on_time": 19.331, "note_off_time": 20.042}, {"pitch": 60, "velocity": 100, "note_on_time": 20.042, "note_off_time": 20.758}, {"pitch": 39, "velocity": 100, "note_on_time": 20.043, "note_off_time": 20.758}, {"pitch": 60, "velocity": 100, "note_on_time": 20.758, "note_off_time": 21.474}, {"pitch": 42, "velocity": 100, "note_on_time": 20.758, "note_off_time": 21.475}, {"pitch": 62, "velocity": 100, "note_on_time": 21.474, "note_off_time": 22.192}, {"pitch": 42, "velocity": 100, "note_on_time": 21.475, "note_off_time": 22.192}, {"pitch": 64, "velocity": 100, "note_on_time": 22.192, "note_off_time": 22.906}, {"pitch": 42, "velocity": 100, "note_on_time": 22.192, "note_off_time": 22.906}, {"pitch": 62, "velocity": 100, "note_on_time": 22.906, "note_off_time": 23.613}, {"pitch": 39, "velocity": 100, "note_on_time": 22.906, "note_off_time": 23.613}, {"pitch": 60, "velocity": 100, "note_on_time": 23.613, "note_off_time": 24.33}, {"pitch": 42, "velocity": 100, "note_on_time": 23.613, "note_off_time": 24.331}, {"pitch": 42, "velocity": 100, "note_on_time": 24.331, "note_off_time": 25.049}, {"pitch": 60, "velocity": 100, "note_on_time": 24.33, "note_off_time": 25.771}, {"pitch": 42, "velocity": 100, "note_on_time": 25.05, "note_off_time": 25.771}]</notes><options name="Option List">((4, 4), [0.5, 0.25], 3, 7, &lt;NoteRangePerHand.TWO_NOTES: 3&gt;, &lt;NoteRangePerHand.ONE_NOTE: 2&gt;, False, True, True, None)</options></target_notes><trials><trial trial_no="1" timestamp="2023_01_29-13_10_51"><notes name="Played Notes">[{"pitch": 64, "velocity": 59, "note_on_time": 2.816, "note_off_time": 3.347}, {"pitch": 64, "velocity": 56, "note_on_time": 3.523, "note_off_time": 4.055}, {"pitch": 65, "velocity": 59, "note_on_time": 4.243, "note_off_time": 4.769}, {"pitch": 67, "velocity": 45, "note_on_time": 4.991, "note_off_time": 5.472}, {"pitch": 67, "velocity": 50, "note_on_time": 5.723, "note_off_time": 6.225}, {"pitch": 65, "velocity": 43, "note_on_time": 6.45, "note_off_time": 6.944}, {"pitch": 64, "velocity": 31, "note_on_time": 7.167, "note_off_time": 7.669}, {"pitch": 62, "velocity": 45, "note_on_time": 7.884, "note_off_time": 8.286}, {"pitch": 60, "velocity": 39, "note_on_time": 8.636, "note_off_time": 8.981}, {"pitch": 60, "velocity": 44, "note_on_time": 9.322, "note_off_time": 9.72}, {"pitch": 62, "velocity": 37, "note_on_time": 10.029, "note_off_time": 10.385}, {"pitch": 64, "velocity": 58, "note_on_time": 10.703, "note_off_time": 11.071}, {"pitch": 65, "velocity": 51, "note_on_time": 11.416, "note_off_time": 11.808}, {"pitch": 64, "velocity": 9, "note_on_time": 12.287, "note_off_time": 12.525}, {"pitch": 62, "velocity": 22, "note_on_time": 12.767, "note_off_time": 13.009}, {"pitch": 62, "velocity": 46, "note_on_time": 13.293, "note_off_time": 14.328}, {"pitch": 64, "velocity": 46, "note_on_time": 14.973, "note_off_time": 15.378}, {"pitch": 64, "velocity": 43, "note_on_time": 15.669, "note_off_time": 16.121}, {"pitch": 65, "velocity": 37, "note_on_time": 16.365, "note_off_time": 16.836}, {"pitch": 67, "velocity": 36, "note_on_time": 17.061, "note_off_time": 17.414}, {"pitch": 67, "velocity": 42, "note_on_time": 17.723, "note_off_time": 18.127}, {"pitch": 65, "velocity": 32, "note_on_time": 18.425, "note_off_time": 18.779}, {"pitch": 64, "velocity": 37, "note_on_time": 19.088, "note_off_time": 19.472}, {"pitch": 62, "velocity": 40, "note_on_time": 19.749, "note_off_time": 20.133}, {"pitch": 60, "velocity": 23, "note_on_time": 20.737, "note_off_time": 21.122}, {"pitch": 60, "velocity": 32, "note_on_time": 21.404, "note_off_time": 21.796}, {"pitch": 62, "velocity": 48, "note_on_time": 22.113, "note_off_time": 22.457}, {"pitch": 64, "velocity": 44, "note_on_time": 22.832, "note_off_time": 23.131}, {"pitch": 62, "velocity": 17, "note_on_time": 23.548, "note_off_time": 23.982}, {"pitch": 60, "velocity": 39, "note_on_time": 24.26, "note_off_time": 24.567}, {"pitch": 60, "velocity": 36, "note_on_time": 24.973, "note_off_time": 25.447}]</notes><guidance name="Guidance Mode">None</guidance><error name="Error value">0.6053203999999995</error></trial></trials></MIDI>