<MIDI midiNo="2023_01_29-13_03_48"><target_notes><notes name="Note List">[{"pitch": 39, "velocity": 100, "note_on_time": 0.005, "note_off_time": 0.719}, {"pitch": 42, "velocity": 100, "note_on_time": 0.72, "note_off_time": 1.433}, {"pitch": 42, "velocity": 100, "note_on_time": 1.433, "note_off_time": 2.152}, {"pitch": 42, "velocity": 100, "note_on_time": 2.152, "note_off_time": 2.869}, {"pitch": 39, "velocity": 100, "note_on_time": 2.869, "note_off_time": 3.587}, {"pitch": 42, "velocity": 100, "note_on_time": 3.587, "note_off_time": 4.302}, {"pitch": 42, "velocity": 100, "note_on_time": 4.302, "note_off_time": 5.022}, {"pitch": 60, "velocity": 100, "note_on_time": 2.869, "note_off_time": 5.74}, {"pitch": 42, "velocity": 100, "note_on_time": 5.022, "note_off_time": 5.74}, {"pitch": 39, "velocity": 100, "note_on_time": 5.741, "note_off_time": 6.458}, {"pitch": 42, "velocity": 100, "note_on_time": 6.458, "note_off_time": 7.174}, {"pitch": 42, "velocity": 100, "note_on_time": 7.175, "note_off_time": 7.889}, {"pitch": 59, "velocity": 100, "note_on_time": 5.74, "note_off_time": 8.604}, {"pitch": 42, "velocity": 100, "note_on_time": 7.89, "note_off_time": 8.604}, {"pitch": 60, "velocity": 100, "note_on_time": 8.604, "note_off_time": 9.321}, {"pitch": 39, "velocity": 100, "note_on_time": 8.604, "note_off_time": 9.321}, {"pitch": 59, "velocity": 100, "note_on_time": 9.321, "note_off_time": 10.038}, {"pitch": 42, "velocity": 100, "note_on_time": 9.322, "note_off_time": 10.039}, {"pitch": 60, "velocity": 100, "note_on_time": 10.038, "note_off_time": 10.754}, {"pitch": 42, "velocity": 100, "note_on_time": 10.039, "note_off_time": 10.754}, {"pitch": 59, "velocity": 100, "note_on_time": 10.754, "note_off_time": 11.468}, {"pitch": 42, "velocity": 100, "note_on_time": 10.754, "note_off_time": 11.468}, {"pitch": 39, "velocity": 100, "note_on_time": 11.468, "note_off_time": 12.186}, {"pitch": 60, "velocity": 100, "note_on_time": 11.468, "note_off_time": 12.902}, {"pitch": 42, "velocity": 100, "note_on_time": 12.187, "note_off_time": 12.903}, {"pitch": 42, "velocity": 100, "note_on_time": 12.903, "note_off_time": 13.62}, {"pitch": 60, "velocity": 100, "note_on_time": 12.902, "note_off_time": 14.337}, {"pitch": 42, "velocity": 100, "note_on_time": 13.62, "note_off_time": 14.337}, {"pitch": 39, "velocity": 100, "note_on_time": 14.337, "note_off_time": 15.054}, {"pitch": 42, "velocity": 100, "note_on_time": 15.054, "note_off_time": 15.77}, {"pitch": 42, "velocity": 100, "note_on_time": 15.77, "note_off_time": 16.487}, {"pitch": 60, "velocity": 100, "note_on_time": 14.337, "note_off_time": 17.202}, {"pitch": 42, "velocity": 100, "note_on_time": 16.487, "note_off_time": 17.202}, {"pitch": 39, "velocity": 100, "note_on_time": 17.202, "note_off_time": 17.919}, {"pitch": 42, "velocity": 100, "note_on_time": 17.92, "note_off_time": 18.638}, {"pitch": 42, "velocity": 100, "note_on_time": 18.638, "note_off_time": 19.355}, {"pitch": 59, "velocity": 100, "note_on_time": 17.202, "note_off_time": 20.073}, {"pitch": 42, "velocity": 100, "note_on_time": 19.355, "note_off_time": 20.073}, {"pitch": 60, "velocity": 100, "note_on_time": 20.073, "note_off_time": 20.789}, {"pitch": 39, "velocity": 100, "note_on_time": 20.073, "note_off_time": 20.789}, {"pitch": 59, "velocity": 100, "note_on_time": 20.789, "note_off_time": 21.506}, {"pitch": 42, "velocity": 100, "note_on_time": 20.789, "note_off_time": 21.506}, {"pitch": 60, "velocity": 100, "note_on_time": 21.506, "note_off_time": 22.224}, {"pitch": 42, "velocity": 100, "note_on_time": 21.507, "note_off_time": 22.225}, {"pitch": 59, "velocity": 100, "note_on_time": 22.224, "note_off_time": 22.941}, {"pitch": 42, "velocity": 100, "note_on_time": 22.225, "note_off_time": 22.941}, {"pitch": 39, "velocity": 100, "note_on_time": 22.941, "note_off_time": 23.659}, {"pitch": 60, "velocity": 100, "note_on_time": 22.941, "note_off_time": 24.373}, {"pitch": 42, "velocity": 100, "note_on_time": 23.659, "note_off_time": 24.374}, {"pitch": 42, "velocity": 100, "note_on_time": 24.374, "note_off_time": 25.087}, {"pitch": 60, "velocity": 100, "note_on_time": 24.373, "note_off_time": 25.804}, {"pitch": 42, "velocity": 100, "note_on_time": 25.087, "note_off_time": 25.804}]</notes><options name="Option List">((4, 4), [0.5, 0.25], 3, 7, &lt;NoteRangePerHand.TWO_NOTES: 3&gt;, &lt;NoteRangePerHand.ONE_NOTE: 2&gt;, False, True, True, None)</options></target_notes><trials><trial trial_no="1" timestamp="2023_01_29-13_03_48"><notes name="Played Notes">[{"pitch": 60, "velocity": 76, "note_on_time": 2.847, "note_off_time": 5.761}, {"pitch": 59, "velocity": 67, "note_on_time": 5.722, "note_off_time": 8.635}, {"pitch": 60, "velocity": 71, "note_on_time": 8.62, "note_off_time": 9.348}, {"pitch": 59, "velocity": 62, "note_on_time": 9.321, "note_off_time": 9.996}, {"pitch": 60, "velocity": 71, "note_on_time": 9.975, "note_off_time": 10.664}, {"pitch": 59, "velocity": 59, "note_on_time": 10.664, "note_off_time": 11.365}, {"pitch": 60, "velocity": 75, "note_on_time": 11.375, "note_off_time": 12.551}, {"pitch": 60, "velocity": 70, "note_on_time": 12.865, "note_off_time": 14.008}, {"pitch": 60, "velocity": 75, "note_on_time": 14.323, "note_off_time": 17.205}, {"pitch": 59, "velocity": 66, "note_on_time": 17.181, "note_off_time": 20.063}, {"pitch": 60, "velocity": 62, "note_on_time": 20.063, "note_off_time": 20.789}, {"pitch": 59, "velocity": 63, "note_on_time": 20.775, "note_off_time": 21.417}, {"pitch": 60, "velocity": 61, "note_on_time": 21.413, "note_off_time": 22.143}, {"pitch": 59, "velocity": 58, "note_on_time": 22.156, "note_off_time": 22.859}, {"pitch": 60, "velocity": 56, "note_on_time": 22.871, "note_off_time": 23.987}]</notes><guidance name="Guidance Mode">None</guidance><error name="Error value">0.21896618333333312</error></trial></trials></MIDI>