<MIDI midiNo="2023_01_29-13_54_20"><target_notes><notes name="Note List">[{"pitch": 39, "velocity": 100, "note_on_time": 0.005, "note_off_time": 0.807}, {"pitch": 42, "velocity": 100, "note_on_time": 0.808, "note_off_time": 1.6}, {"pitch": 42, "velocity": 100, "note_on_time": 1.6, "note_off_time": 2.394}, {"pitch": 42, "velocity": 100, "note_on_time": 2.394, "note_off_time": 3.187}, {"pitch": 39, "velocity": 100, "note_on_time": 3.187, "note_off_time": 3.979}, {"pitch": 42, "velocity": 100, "note_on_time": 3.98, "note_off_time": 4.771}, {"pitch": 42, "velocity": 100, "note_on_time": 4.771, "note_off_time": 5.565}, {"pitch": 67, "velocity": 100, "note_on_time": 5.968, "note_off_time": 6.372}, {"pitch": 42, "velocity": 100, "note_on_time": 5.565, "note_off_time": 6.372}, {"pitch": 74, "velocity": 100, "note_on_time": 6.372, "note_off_time": 7.165}, {"pitch": 39, "velocity": 100, "note_on_time": 6.372, "note_off_time": 7.165}, {"pitch": 71, "velocity": 100, "note_on_time": 7.165, "note_off_time": 7.566}, {"pitch": 67, "velocity": 100, "note_on_time": 7.566, "note_off_time": 7.972}, {"pitch": 42, "velocity": 100, "note_on_time": 7.165, "note_off_time": 7.972}, {"pitch": 74, "velocity": 100, "note_on_time": 7.972, "note_off_time": 8.767}, {"pitch": 42, "velocity": 100, "note_on_time": 7.973, "note_off_time": 8.768}, {"pitch": 71, "velocity": 100, "note_on_time": 8.767, "note_off_time": 9.173}, {"pitch": 67, "velocity": 100, "note_on_time": 9.173, "note_off_time": 9.576}, {"pitch": 42, "velocity": 100, "note_on_time": 8.768, "note_off_time": 9.577}, {"pitch": 74, "velocity": 100, "note_on_time": 9.576, "note_off_time": 9.981}, {"pitch": 74, "velocity": 100, "note_on_time": 9.981, "note_off_time": 10.387}, {"pitch": 39, "velocity": 100, "note_on_time": 9.577, "note_off_time": 10.388}, {"pitch": 76, "velocity": 100, "note_on_time": 10.387, "note_off_time": 10.793}, {"pitch": 76, "velocity": 100, "note_on_time": 10.793, "note_off_time": 11.197}, {"pitch": 42, "velocity": 100, "note_on_time": 10.388, "note_off_time": 11.197}, {"pitch": 74, "velocity": 100, "note_on_time": 11.197, "note_off_time": 11.99}, {"pitch": 42, "velocity": 100, "note_on_time": 11.198, "note_off_time": 11.99}, {"pitch": 71, "velocity": 100, "note_on_time": 11.99, "note_off_time": 12.397}, {"pitch": 67, "velocity": 100, "note_on_time": 12.397, "note_off_time": 12.802}, {"pitch": 42, "velocity": 100, "note_on_time": 11.99, "note_off_time": 12.803}, {"pitch": 74, "velocity": 100, "note_on_time": 12.802, "note_off_time": 13.206}, {"pitch": 74, "velocity": 100, "note_on_time": 13.206, "note_off_time": 13.611}, {"pitch": 39, "velocity": 100, "note_on_time": 12.803, "note_off_time": 13.611}, {"pitch": 71, "velocity": 100, "note_on_time": 13.611, "note_off_time": 14.014}, {"pitch": 67, "velocity": 100, "note_on_time": 14.014, "note_off_time": 14.418}, {"pitch": 42, "velocity": 100, "note_on_time": 13.612, "note_off_time": 14.418}, {"pitch": 74, "velocity": 100, "note_on_time": 14.418, "note_off_time": 14.823}, {"pitch": 74, "velocity": 100, "note_on_time": 14.823, "note_off_time": 15.23}, {"pitch": 42, "velocity": 100, "note_on_time": 14.419, "note_off_time": 15.231}, {"pitch": 71, "velocity": 100, "note_on_time": 15.23, "note_off_time": 15.635}, {"pitch": 67, "velocity": 100, "note_on_time": 15.635, "note_off_time": 16.04}, {"pitch": 42, "velocity": 100, "note_on_time": 15.231, "note_off_time": 16.041}, {"pitch": 74, "velocity": 100, "note_on_time": 16.04, "note_off_time": 16.444}, {"pitch": 74, "velocity": 100, "note_on_time": 16.444, "note_off_time": 16.846}, {"pitch": 39, "velocity": 100, "note_on_time": 16.041, "note_off_time": 16.846}, {"pitch": 76, "velocity": 100, "note_on_time": 16.846, "note_off_time": 17.248}, {"pitch": 76, "velocity": 100, "note_on_time": 17.248, "note_off_time": 17.651}, {"pitch": 42, "velocity": 100, "note_on_time": 16.847, "note_off_time": 17.651}, {"pitch": 74, "velocity": 100, "note_on_time": 17.651, "note_off_time": 18.445}, {"pitch": 42, "velocity": 100, "note_on_time": 17.652, "note_off_time": 18.445}, {"pitch": 71, "velocity": 100, "note_on_time": 18.445, "note_off_time": 18.852}, {"pitch": 42, "velocity": 100, "note_on_time": 18.446, "note_off_time": 19.26}]</notes><options name="Option List">((4, 4), [0.5, 0.25], 3, 7, &lt;NoteRangePerHand.TWO_NOTES: 3&gt;, &lt;NoteRangePerHand.ONE_NOTE: 2&gt;, False, True, True, None)</options></target_notes><trials><trial trial_no="1" timestamp="2023_01_29-13_54_20"><notes name="Played Notes">[{"pitch": 67, "velocity": 63, "note_on_time": 5.929, "note_off_time": 6.303}, {"pitch": 74, "velocity": 65, "note_on_time": 6.319, "note_off_time": 7.123}, {"pitch": 71, "velocity": 48, "note_on_time": 7.109, "note_off_time": 7.524}, {"pitch": 67, "velocity": 52, "note_on_time": 7.497, "note_off_time": 7.878}, {"pitch": 74, "velocity": 60, "note_on_time": 7.889, "note_off_time": 8.698}, {"pitch": 71, "velocity": 53, "note_on_time": 8.671, "note_off_time": 9.105}, {"pitch": 67, "velocity": 41, "note_on_time": 9.097, "note_off_time": 9.47}, {"pitch": 74, "velocity": 60, "note_on_time": 9.481, "note_off_time": 9.803}, {"pitch": 74, "velocity": 49, "note_on_time": 9.905, "note_off_time": 10.23}, {"pitch": 71, "velocity": 46, "note_on_time": 10.305, "note_off_time": 10.699}, {"pitch": 67, "velocity": 43, "note_on_time": 10.702, "note_off_time": 11.099}, {"pitch": 74, "velocity": 42, "note_on_time": 11.113, "note_off_time": 11.611}, {"pitch": 71, "velocity": 39, "note_on_time": 11.538, "note_off_time": 11.945}, {"pitch": 67, "velocity": 31, "note_on_time": 11.954, "note_off_time": 12.548}, {"pitch": 74, "velocity": 35, "note_on_time": 12.884, "note_off_time": 13.122}, {"pitch": 74, "velocity": 59, "note_on_time": 13.273, "note_off_time": 13.682}, {"pitch": 71, "velocity": 49, "note_on_time": 13.714, "note_off_time": 14.08}, {"pitch": 67, "velocity": 36, "note_on_time": 14.11, "note_off_time": 14.32}, {"pitch": 74, "velocity": 52, "note_on_time": 14.511, "note_off_time": 14.669}, {"pitch": 74, "velocity": 60, "note_on_time": 14.881, "note_off_time": 15.227}, {"pitch": 71, "velocity": 34, "note_on_time": 15.267, "note_off_time": 15.627}, {"pitch": 67, "velocity": 30, "note_on_time": 15.662, "note_off_time": 15.818}, {"pitch": 74, "velocity": 52, "note_on_time": 16.039, "note_off_time": 16.128}, {"pitch": 74, "velocity": 56, "note_on_time": 16.416, "note_off_time": 16.781}, {"pitch": 71, "velocity": 56, "note_on_time": 16.811, "note_off_time": 17.197}, {"pitch": 67, "velocity": 40, "note_on_time": 17.218, "note_off_time": 17.326}, {"pitch": 74, "velocity": 50, "note_on_time": 17.579, "note_off_time": 17.757}, {"pitch": 71, "velocity": 31, "note_on_time": 18.0, "note_off_time": 18.1}, {"pitch": 67, "velocity": 53, "note_on_time": 18.318, "note_off_time": 18.439}]</notes><guidance name="Guidance Mode">None</guidance><error name="Error value">0.4534490892857158</error></trial></trials></MIDI>