<MIDI midiNo="2023_01_29-13_32_28"><target_notes><notes name="Note List">[{"pitch": 39, "velocity": 100, "note_on_time": 0.005, "note_off_time": 0.717}, {"pitch": 42, "velocity": 100, "note_on_time": 0.717, "note_off_time": 1.434}, {"pitch": 42, "velocity": 100, "note_on_time": 1.434, "note_off_time": 2.15}, {"pitch": 42, "velocity": 100, "note_on_time": 2.15, "note_off_time": 2.868}, {"pitch": 60, "velocity": 100, "note_on_time": 2.868, "note_off_time": 3.583}, {"pitch": 39, "velocity": 100, "note_on_time": 2.868, "note_off_time": 3.584}, {"pitch": 65, "velocity": 100, "note_on_time": 3.583, "note_off_time": 4.298}, {"pitch": 42, "velocity": 100, "note_on_time": 3.584, "note_off_time": 4.298}, {"pitch": 64, "velocity": 100, "note_on_time": 4.298, "note_off_time": 5.014}, {"pitch": 42, "velocity": 100, "note_on_time": 4.298, "note_off_time": 5.014}, {"pitch": 65, "velocity": 100, "note_on_time": 5.014, "note_off_time": 5.728}, {"pitch": 42, "velocity": 100, "note_on_time": 5.014, "note_off_time": 5.729}, {"pitch": 67, "velocity": 100, "note_on_time": 5.728, "note_off_time": 6.444}, {"pitch": 39, "velocity": 100, "note_on_time": 5.729, "note_off_time": 6.445}, {"pitch": 62, "velocity": 100, "note_on_time": 6.444, "note_off_time": 7.16}, {"pitch": 42, "velocity": 100, "note_on_time": 6.445, "note_off_time": 7.16}, {"pitch": 42, "velocity": 100, "note_on_time": 7.16, "note_off_time": 7.874}, {"pitch": 67, "velocity": 100, "note_on_time": 7.16, "note_off_time": 8.588}, {"pitch": 42, "velocity": 100, "note_on_time": 7.875, "note_off_time": 8.589}, {"pitch": 65, "velocity": 100, "note_on_time": 8.588, "note_off_time": 9.303}, {"pitch": 39, "velocity": 100, "note_on_time": 8.589, "note_off_time": 9.303}, {"pitch": 64, "velocity": 100, "note_on_time": 9.303, "note_off_time": 10.018}, {"pitch": 42, "velocity": 100, "note_on_time": 9.304, "note_off_time": 10.018}, {"pitch": 62, "velocity": 100, "note_on_time": 10.018, "note_off_time": 10.732}, {"pitch": 42, "velocity": 100, "note_on_time": 10.018, "note_off_time": 10.733}, {"pitch": 64, "velocity": 100, "note_on_time": 10.732, "note_off_time": 11.45}, {"pitch": 42, "velocity": 100, "note_on_time": 10.733, "note_off_time": 11.45}, {"pitch": 39, "velocity": 100, "note_on_time": 11.45, "note_off_time": 12.167}, {"pitch": 42, "velocity": 100, "note_on_time": 12.168, "note_off_time": 12.88}, {"pitch": 42, "velocity": 100, "note_on_time": 12.88, "note_off_time": 13.598}, {"pitch": 65, "velocity": 100, "note_on_time": 11.45, "note_off_time": 14.314}, {"pitch": 42, "velocity": 100, "note_on_time": 13.599, "note_off_time": 14.314}, {"pitch": 60, "velocity": 100, "note_on_time": 14.314, "note_off_time": 15.032}, {"pitch": 39, "velocity": 100, "note_on_time": 14.314, "note_off_time": 15.032}, {"pitch": 65, "velocity": 100, "note_on_time": 15.032, "note_off_time": 15.748}, {"pitch": 42, "velocity": 100, "note_on_time": 15.033, "note_off_time": 15.748}, {"pitch": 64, "velocity": 100, "note_on_time": 15.748, "note_off_time": 16.464}, {"pitch": 42, "velocity": 100, "note_on_time": 15.748, "note_off_time": 16.465}, {"pitch": 65, "velocity": 100, "note_on_time": 16.465, "note_off_time": 17.178}, {"pitch": 42, "velocity": 100, "note_on_time": 16.465, "note_off_time": 17.178}, {"pitch": 67, "velocity": 100, "note_on_time": 17.178, "note_off_time": 17.894}, {"pitch": 39, "velocity": 100, "note_on_time": 17.179, "note_off_time": 17.894}, {"pitch": 62, "velocity": 100, "note_on_time": 17.894, "note_off_time": 18.611}, {"pitch": 42, "velocity": 100, "note_on_time": 17.894, "note_off_time": 18.611}, {"pitch": 42, "velocity": 100, "note_on_time": 18.612, "note_off_time": 19.321}, {"pitch": 67, "velocity": 100, "note_on_time": 18.611, "note_off_time": 20.036}, {"pitch": 42, "velocity": 100, "note_on_time": 19.322, "note_off_time": 20.037}, {"pitch": 65, "velocity": 100, "note_on_time": 20.036, "note_off_time": 20.755}, {"pitch": 39, "velocity": 100, "note_on_time": 20.037, "note_off_time": 20.755}, {"pitch": 64, "velocity": 100, "note_on_time": 20.755, "note_off_time": 21.469}, {"pitch": 42, "velocity": 100, "note_on_time": 20.755, "note_off_time": 21.47}, {"pitch": 62, "velocity": 100, "note_on_time": 21.469, "note_off_time": 22.188}, {"pitch": 42, "velocity": 100, "note_on_time": 21.47, "note_off_time": 22.188}, {"pitch": 64, "velocity": 100, "note_on_time": 22.188, "note_off_time": 22.902}, {"pitch": 42, "velocity": 100, "note_on_time": 22.188, "note_off_time": 22.902}, {"pitch": 39, "velocity": 100, "note_on_time": 22.902, "note_off_time": 23.619}, {"pitch": 42, "velocity": 100, "note_on_time": 23.619, "note_off_time": 24.336}, {"pitch": 42, "velocity": 100, "note_on_time": 24.336, "note_off_time": 25.051}, {"pitch": 65, "velocity": 100, "note_on_time": 22.902, "note_off_time": 25.765}, {"pitch": 42, "velocity": 100, "note_on_time": 25.051, "note_off_time": 25.765}]</notes><options name="Option List">((4, 4), [0.5, 0.25], 3, 7, &lt;NoteRangePerHand.TWO_NOTES: 3&gt;, &lt;NoteRangePerHand.ONE_NOTE: 2&gt;, False, True, True, None)</options></target_notes><trials><trial trial_no="1" timestamp="2023_01_29-13_32_28"><notes name="Played Notes">[{"pitch": 60, "velocity": 53, "note_on_time": 2.875, "note_off_time": 3.557}, {"pitch": 65, "velocity": 61, "note_on_time": 3.556, "note_off_time": 4.242}, {"pitch": 64, "velocity": 56, "note_on_time": 4.237, "note_off_time": 4.927}, {"pitch": 65, "velocity": 55, "note_on_time": 4.942, "note_off_time": 5.699}, {"pitch": 67, "velocity": 60, "note_on_time": 5.688, "note_off_time": 6.39}, {"pitch": 62, "velocity": 55, "note_on_time": 6.384, "note_off_time": 7.115}, {"pitch": 65, "velocity": 62, "note_on_time": 7.131, "note_off_time": 8.297}, {"pitch": 65, "velocity": 52, "note_on_time": 8.574, "note_off_time": 9.285}, {"pitch": 64, "velocity": 49, "note_on_time": 9.268, "note_off_time": 9.955}, {"pitch": 62, "velocity": 45, "note_on_time": 9.965, "note_off_time": 10.718}, {"pitch": 64, "velocity": 46, "note_on_time": 10.681, "note_off_time": 11.365}, {"pitch": 65, "velocity": 52, "note_on_time": 11.383, "note_off_time": 14.248}, {"pitch": 60, "velocity": 59, "note_on_time": 14.247, "note_off_time": 14.964}, {"pitch": 65, "velocity": 48, "note_on_time": 14.977, "note_off_time": 15.641}, {"pitch": 64, "velocity": 52, "note_on_time": 15.618, "note_off_time": 16.29}, {"pitch": 65, "velocity": 46, "note_on_time": 16.304, "note_off_time": 17.033}, {"pitch": 67, "velocity": 47, "note_on_time": 17.033, "note_off_time": 17.73}, {"pitch": 62, "velocity": 43, "note_on_time": 17.722, "note_off_time": 18.423}, {"pitch": 65, "velocity": 52, "note_on_time": 18.384, "note_off_time": 19.599}, {"pitch": 65, "velocity": 25, "note_on_time": 20.119, "note_off_time": 20.836}, {"pitch": 64, "velocity": 42, "note_on_time": 20.761, "note_off_time": 21.421}, {"pitch": 62, "velocity": 34, "note_on_time": 21.423, "note_off_time": 22.127}, {"pitch": 64, "velocity": 54, "note_on_time": 22.118, "note_off_time": 22.817}]</notes><guidance name="Guidance Mode">None</guidance><error name="Error value">0.34535714057971045</error></trial></trials></MIDI>