<MIDI midiNo="2023_01_29-13_30_41"><target_notes><notes name="Note List">[{"pitch": 39, "velocity": 100, "note_on_time": 0.005, "note_off_time": 0.72}, {"pitch": 42, "velocity": 100, "note_on_time": 0.72, "note_off_time": 1.435}, {"pitch": 42, "velocity": 100, "note_on_time": 1.435, "note_off_time": 2.153}, {"pitch": 42, "velocity": 100, "note_on_time": 2.154, "note_off_time": 2.87}, {"pitch": 60, "velocity": 100, "note_on_time": 2.87, "note_off_time": 3.585}, {"pitch": 39, "velocity": 100, "note_on_time": 2.87, "note_off_time": 3.585}, {"pitch": 65, "velocity": 100, "note_on_time": 3.585, "note_off_time": 4.301}, {"pitch": 42, "velocity": 100, "note_on_time": 3.585, "note_off_time": 4.301}, {"pitch": 64, "velocity": 100, "note_on_time": 4.301, "note_off_time": 5.014}, {"pitch": 42, "velocity": 100, "note_on_time": 4.301, "note_off_time": 5.014}, {"pitch": 65, "velocity": 100, "note_on_time": 5.014, "note_off_time": 5.73}, {"pitch": 42, "velocity": 100, "note_on_time": 5.014, "note_off_time": 5.73}, {"pitch": 67, "velocity": 100, "note_on_time": 5.73, "note_off_time": 6.448}, {"pitch": 39, "velocity": 100, "note_on_time": 5.73, "note_off_time": 6.448}, {"pitch": 62, "velocity": 100, "note_on_time": 6.448, "note_off_time": 7.163}, {"pitch": 42, "velocity": 100, "note_on_time": 6.448, "note_off_time": 7.164}, {"pitch": 42, "velocity": 100, "note_on_time": 7.164, "note_off_time": 7.884}, {"pitch": 67, "velocity": 100, "note_on_time": 7.163, "note_off_time": 8.603}, {"pitch": 42, "velocity": 100, "note_on_time": 7.884, "note_off_time": 8.603}, {"pitch": 65, "velocity": 100, "note_on_time": 8.603, "note_off_time": 9.321}, {"pitch": 39, "velocity": 100, "note_on_time": 8.604, "note_off_time": 9.322}, {"pitch": 64, "velocity": 100, "note_on_time": 9.321, "note_off_time": 10.04}, {"pitch": 42, "velocity": 100, "note_on_time": 9.322, "note_off_time": 10.04}, {"pitch": 62, "velocity": 100, "note_on_time": 10.04, "note_off_time": 10.755}, {"pitch": 42, "velocity": 100, "note_on_time": 10.04, "note_off_time": 10.755}, {"pitch": 64, "velocity": 100, "note_on_time": 10.755, "note_off_time": 11.469}, {"pitch": 42, "velocity": 100, "note_on_time": 10.755, "note_off_time": 11.469}, {"pitch": 39, "velocity": 100, "note_on_time": 11.47, "note_off_time": 12.188}, {"pitch": 42, "velocity": 100, "note_on_time": 12.188, "note_off_time": 12.899}, {"pitch": 42, "velocity": 100, "note_on_time": 12.899, "note_off_time": 13.613}, {"pitch": 65, "velocity": 100, "note_on_time": 11.469, "note_off_time": 14.327}, {"pitch": 42, "velocity": 100, "note_on_time": 13.614, "note_off_time": 14.327}, {"pitch": 60, "velocity": 100, "note_on_time": 14.327, "note_off_time": 15.041}, {"pitch": 39, "velocity": 100, "note_on_time": 14.327, "note_off_time": 15.042}, {"pitch": 65, "velocity": 100, "note_on_time": 15.041, "note_off_time": 15.759}, {"pitch": 42, "velocity": 100, "note_on_time": 15.042, "note_off_time": 15.759}, {"pitch": 64, "velocity": 100, "note_on_time": 15.759, "note_off_time": 16.478}, {"pitch": 42, "velocity": 100, "note_on_time": 15.759, "note_off_time": 16.478}, {"pitch": 65, "velocity": 100, "note_on_time": 16.478, "note_off_time": 17.192}, {"pitch": 42, "velocity": 100, "note_on_time": 16.479, "note_off_time": 17.192}, {"pitch": 67, "velocity": 100, "note_on_time": 17.192, "note_off_time": 17.907}, {"pitch": 39, "velocity": 100, "note_on_time": 17.192, "note_off_time": 17.907}, {"pitch": 62, "velocity": 100, "note_on_time": 17.907, "note_off_time": 18.627}, {"pitch": 42, "velocity": 100, "note_on_time": 17.907, "note_off_time": 18.628}, {"pitch": 42, "velocity": 100, "note_on_time": 18.628, "note_off_time": 19.343}, {"pitch": 67, "velocity": 100, "note_on_time": 18.627, "note_off_time": 20.054}, {"pitch": 42, "velocity": 100, "note_on_time": 19.343, "note_off_time": 20.054}, {"pitch": 65, "velocity": 100, "note_on_time": 20.054, "note_off_time": 20.769}, {"pitch": 39, "velocity": 100, "note_on_time": 20.055, "note_off_time": 20.77}, {"pitch": 64, "velocity": 100, "note_on_time": 20.769, "note_off_time": 21.483}, {"pitch": 42, "velocity": 100, "note_on_time": 20.77, "note_off_time": 21.483}, {"pitch": 62, "velocity": 100, "note_on_time": 21.483, "note_off_time": 22.201}, {"pitch": 42, "velocity": 100, "note_on_time": 21.483, "note_off_time": 22.202}, {"pitch": 64, "velocity": 100, "note_on_time": 22.201, "note_off_time": 22.918}, {"pitch": 42, "velocity": 100, "note_on_time": 22.202, "note_off_time": 22.918}, {"pitch": 39, "velocity": 100, "note_on_time": 22.919, "note_off_time": 23.636}, {"pitch": 42, "velocity": 100, "note_on_time": 23.636, "note_off_time": 24.352}, {"pitch": 42, "velocity": 100, "note_on_time": 24.352, "note_off_time": 25.073}, {"pitch": 65, "velocity": 100, "note_on_time": 22.918, "note_off_time": 25.791}, {"pitch": 42, "velocity": 100, "note_on_time": 25.073, "note_off_time": 25.791}]</notes><options name="Option List">((4, 4), [0.5, 0.25], 3, 7, &lt;NoteRangePerHand.TWO_NOTES: 3&gt;, &lt;NoteRangePerHand.ONE_NOTE: 2&gt;, False, True, True, None)</options></target_notes><trials><trial trial_no="1" timestamp="2023_01_29-13_30_41"><notes name="Played Notes">[{"pitch": 60, "velocity": 53, "note_on_time": 2.9, "note_off_time": 3.624}, {"pitch": 67, "velocity": 55, "note_on_time": 3.612, "note_off_time": 4.424}, {"pitch": 65, "velocity": 64, "note_on_time": 4.34, "note_off_time": 5.113}, {"pitch": 67, "velocity": 42, "note_on_time": 5.122, "note_off_time": 5.887}, {"pitch": 69, "velocity": 60, "note_on_time": 6.084, "note_off_time": 7.328}, {"pitch": 62, "velocity": 49, "note_on_time": 7.113, "note_off_time": 8.51}, {"pitch": 71, "velocity": 60, "note_on_time": 8.448, "note_off_time": 9.675}, {"pitch": 62, "velocity": 36, "note_on_time": 10.183, "note_off_time": 10.425}, {"pitch": 64, "velocity": 58, "note_on_time": 10.63, "note_off_time": 11.311}, {"pitch": 62, "velocity": 57, "note_on_time": 11.265, "note_off_time": 11.887}, {"pitch": 60, "velocity": 54, "note_on_time": 11.923, "note_off_time": 12.553}, {"pitch": 62, "velocity": 1, "note_on_time": 13.392, "note_off_time": 13.669}, {"pitch": 62, "velocity": 63, "note_on_time": 13.769, "note_off_time": 14.166}, {"pitch": 64, "velocity": 77, "note_on_time": 14.335, "note_off_time": 15.733}, {"pitch": 60, "velocity": 61, "note_on_time": 15.746, "note_off_time": 17.286}, {"pitch": 60, "velocity": 44, "note_on_time": 17.532, "note_off_time": 17.847}, {"pitch": 64, "velocity": 46, "note_on_time": 17.891, "note_off_time": 18.387}, {"pitch": 60, "velocity": 57, "note_on_time": 18.381, "note_off_time": 18.986}, {"pitch": 64, "velocity": 47, "note_on_time": 19.003, "note_off_time": 19.666}, {"pitch": 64, "velocity": 8, "note_on_time": 20.662, "note_off_time": 20.881}, {"pitch": 69, "velocity": 55, "note_on_time": 19.657, "note_off_time": 21.118}, {"pitch": 64, "velocity": 11, "note_on_time": 20.972, "note_off_time": 21.764}, {"pitch": 65, "velocity": 52, "note_on_time": 21.856, "note_off_time": 22.603}, {"pitch": 64, "velocity": 49, "note_on_time": 22.555, "note_off_time": 23.283}, {"pitch": 62, "velocity": 38, "note_on_time": 23.277, "note_off_time": 23.816}, {"pitch": 64, "velocity": 47, "note_on_time": 23.843, "note_off_time": 24.498}]</notes><guidance name="Guidance Mode">None</guidance><error name="Error value">2.0916955500000016</error></trial></trials></MIDI>