<MIDI midiNo="2023_01_29-13_27_50"><target_notes><notes name="Note List">[{"pitch": 39, "velocity": 100, "note_on_time": 0.007, "note_off_time": 0.713}, {"pitch": 42, "velocity": 100, "note_on_time": 0.713, "note_off_time": 1.426}, {"pitch": 42, "velocity": 100, "note_on_time": 1.426, "note_off_time": 2.143}, {"pitch": 39, "velocity": 100, "note_on_time": 2.144, "note_off_time": 2.856}, {"pitch": 42, "velocity": 100, "note_on_time": 2.856, "note_off_time": 3.571}, {"pitch": 67, "velocity": 100, "note_on_time": 3.571, "note_off_time": 4.288}, {"pitch": 42, "velocity": 100, "note_on_time": 3.571, "note_off_time": 4.289}, {"pitch": 72, "velocity": 100, "note_on_time": 4.288, "note_off_time": 5.006}, {"pitch": 39, "velocity": 100, "note_on_time": 4.289, "note_off_time": 5.006}, {"pitch": 72, "velocity": 100, "note_on_time": 5.006, "note_off_time": 5.724}, {"pitch": 42, "velocity": 100, "note_on_time": 5.007, "note_off_time": 5.724}, {"pitch": 74, "velocity": 100, "note_on_time": 5.724, "note_off_time": 6.442}, {"pitch": 42, "velocity": 100, "note_on_time": 5.724, "note_off_time": 6.442}, {"pitch": 39, "velocity": 100, "note_on_time": 6.443, "note_off_time": 7.156}, {"pitch": 76, "velocity": 100, "note_on_time": 6.442, "note_off_time": 7.87}, {"pitch": 42, "velocity": 100, "note_on_time": 7.157, "note_off_time": 7.87}, {"pitch": 67, "velocity": 100, "note_on_time": 7.87, "note_off_time": 8.585}, {"pitch": 42, "velocity": 100, "note_on_time": 7.87, "note_off_time": 8.585}, {"pitch": 39, "velocity": 100, "note_on_time": 8.586, "note_off_time": 9.305}, {"pitch": 72, "velocity": 100, "note_on_time": 8.585, "note_off_time": 10.021}, {"pitch": 42, "velocity": 100, "note_on_time": 9.306, "note_off_time": 10.021}, {"pitch": 76, "velocity": 100, "note_on_time": 10.021, "note_off_time": 10.738}, {"pitch": 42, "velocity": 100, "note_on_time": 10.022, "note_off_time": 10.738}, {"pitch": 39, "velocity": 100, "note_on_time": 10.738, "note_off_time": 11.454}, {"pitch": 74, "velocity": 100, "note_on_time": 10.738, "note_off_time": 12.172}, {"pitch": 42, "velocity": 100, "note_on_time": 11.454, "note_off_time": 12.173}, {"pitch": 67, "velocity": 100, "note_on_time": 12.172, "note_off_time": 12.892}, {"pitch": 42, "velocity": 100, "note_on_time": 12.173, "note_off_time": 12.892}, {"pitch": 39, "velocity": 100, "note_on_time": 12.892, "note_off_time": 13.61}, {"pitch": 74, "velocity": 100, "note_on_time": 12.892, "note_off_time": 14.323}, {"pitch": 42, "velocity": 100, "note_on_time": 13.61, "note_off_time": 14.323}, {"pitch": 76, "velocity": 100, "note_on_time": 14.323, "note_off_time": 15.044}, {"pitch": 42, "velocity": 100, "note_on_time": 14.324, "note_off_time": 15.045}, {"pitch": 77, "velocity": 100, "note_on_time": 15.044, "note_off_time": 15.762}, {"pitch": 39, "velocity": 100, "note_on_time": 15.045, "note_off_time": 15.762}, {"pitch": 74, "velocity": 100, "note_on_time": 15.762, "note_off_time": 16.478}, {"pitch": 42, "velocity": 100, "note_on_time": 15.762, "note_off_time": 16.478}, {"pitch": 71, "velocity": 100, "note_on_time": 16.478, "note_off_time": 17.197}, {"pitch": 42, "velocity": 100, "note_on_time": 16.479, "note_off_time": 17.197}, {"pitch": 67, "velocity": 100, "note_on_time": 17.197, "note_off_time": 17.913}, {"pitch": 39, "velocity": 100, "note_on_time": 17.197, "note_off_time": 17.914}, {"pitch": 69, "velocity": 100, "note_on_time": 17.913, "note_off_time": 18.628}, {"pitch": 42, "velocity": 100, "note_on_time": 17.914, "note_off_time": 18.629}, {"pitch": 71, "velocity": 100, "note_on_time": 18.628, "note_off_time": 19.344}, {"pitch": 42, "velocity": 100, "note_on_time": 18.629, "note_off_time": 19.344}, {"pitch": 39, "velocity": 100, "note_on_time": 19.344, "note_off_time": 20.058}, {"pitch": 72, "velocity": 100, "note_on_time": 19.344, "note_off_time": 20.773}, {"pitch": 42, "velocity": 100, "note_on_time": 20.058, "note_off_time": 20.773}, {"pitch": 67, "velocity": 100, "note_on_time": 20.773, "note_off_time": 21.49}, {"pitch": 42, "velocity": 100, "note_on_time": 20.773, "note_off_time": 21.49}, {"pitch": 39, "velocity": 100, "note_on_time": 21.49, "note_off_time": 22.204}, {"pitch": 72, "velocity": 100, "note_on_time": 21.49, "note_off_time": 22.924}, {"pitch": 42, "velocity": 100, "note_on_time": 22.205, "note_off_time": 22.924}, {"pitch": 74, "velocity": 100, "note_on_time": 22.924, "note_off_time": 23.638}, {"pitch": 42, "velocity": 100, "note_on_time": 22.925, "note_off_time": 23.639}, {"pitch": 76, "velocity": 100, "note_on_time": 23.638, "note_off_time": 24.354}, {"pitch": 39, "velocity": 100, "note_on_time": 23.639, "note_off_time": 24.354}, {"pitch": 76, "velocity": 100, "note_on_time": 24.354, "note_off_time": 25.069}, {"pitch": 42, "velocity": 100, "note_on_time": 24.354, "note_off_time": 25.069}, {"pitch": 67, "velocity": 100, "note_on_time": 25.069, "note_off_time": 25.782}, {"pitch": 42, "velocity": 100, "note_on_time": 25.07, "note_off_time": 25.782}, {"pitch": 39, "velocity": 100, "note_on_time": 25.783, "note_off_time": 26.498}, {"pitch": 72, "velocity": 100, "note_on_time": 25.782, "note_off_time": 27.219}, {"pitch": 42, "velocity": 100, "note_on_time": 26.498, "note_off_time": 27.22}, {"pitch": 76, "velocity": 100, "note_on_time": 27.219, "note_off_time": 27.938}, {"pitch": 42, "velocity": 100, "note_on_time": 27.22, "note_off_time": 27.938}, {"pitch": 39, "velocity": 100, "note_on_time": 27.938, "note_off_time": 28.653}, {"pitch": 42, "velocity": 100, "note_on_time": 28.653, "note_off_time": 29.368}, {"pitch": 74, "velocity": 100, "note_on_time": 27.938, "note_off_time": 30.085}, {"pitch": 42, "velocity": 100, "note_on_time": 29.368, "note_off_time": 30.085}, {"pitch": 39, "velocity": 100, "note_on_time": 30.086, "note_off_time": 30.802}, {"pitch": 74, "velocity": 100, "note_on_time": 30.085, "note_off_time": 31.517}, {"pitch": 42, "velocity": 100, "note_on_time": 30.802, "note_off_time": 31.517}, {"pitch": 76, "velocity": 100, "note_on_time": 31.517, "note_off_time": 32.23}, {"pitch": 42, "velocity": 100, "note_on_time": 31.518, "note_off_time": 32.23}, {"pitch": 77, "velocity": 100, "note_on_time": 32.23, "note_off_time": 32.948}, {"pitch": 39, "velocity": 100, "note_on_time": 32.231, "note_off_time": 32.949}, {"pitch": 74, "velocity": 100, "note_on_time": 32.948, "note_off_time": 33.663}, {"pitch": 42, "velocity": 100, "note_on_time": 32.949, "note_off_time": 33.664}, {"pitch": 71, "velocity": 100, "note_on_time": 33.663, "note_off_time": 34.381}, {"pitch": 42, "velocity": 100, "note_on_time": 33.664, "note_off_time": 34.381}, {"pitch": 67, "velocity": 100, "note_on_time": 34.381, "note_off_time": 35.096}, {"pitch": 39, "velocity": 100, "note_on_time": 34.382, "note_off_time": 35.097}, {"pitch": 69, "velocity": 100, "note_on_time": 35.096, "note_off_time": 35.811}, {"pitch": 42, "velocity": 100, "note_on_time": 35.097, "note_off_time": 35.811}, {"pitch": 71, "velocity": 100, "note_on_time": 35.811, "note_off_time": 36.528}, {"pitch": 42, "velocity": 100, "note_on_time": 35.811, "note_off_time": 36.528}, {"pitch": 39, "velocity": 100, "note_on_time": 36.528, "note_off_time": 37.246}, {"pitch": 72, "velocity": 100, "note_on_time": 36.528, "note_off_time": 37.962}, {"pitch": 42, "velocity": 100, "note_on_time": 37.246, "note_off_time": 37.963}, {"pitch": 42, "velocity": 100, "note_on_time": 37.963, "note_off_time": 38.68}]</notes><options name="Option List">((4, 4), [0.5, 0.25], 3, 7, &lt;NoteRangePerHand.TWO_NOTES: 3&gt;, &lt;NoteRangePerHand.ONE_NOTE: 2&gt;, False, True, True, None)</options></target_notes><trials><trial trial_no="1" timestamp="2023_01_29-13_27_50"><notes name="Played Notes">[{"pitch": 67, "velocity": 62, "note_on_time": 3.54, "note_off_time": 4.292}, {"pitch": 72, "velocity": 72, "note_on_time": 4.253, "note_off_time": 5.213}, {"pitch": 72, "velocity": 61, "note_on_time": 5.567, "note_off_time": 5.877}, {"pitch": 74, "velocity": 65, "note_on_time": 6.199, "note_off_time": 6.467}, {"pitch": 76, "velocity": 97, "note_on_time": 6.954, "note_off_time": 7.526}, {"pitch": 67, "velocity": 55, "note_on_time": 8.212, "note_off_time": 8.925}, {"pitch": 72, "velocity": 57, "note_on_time": 8.904, "note_off_time": 10.334}, {"pitch": 67, "velocity": 27, "note_on_time": 10.81, "note_off_time": 11.055}, {"pitch": 76, "velocity": 22, "note_on_time": 11.464, "note_off_time": 11.824}, {"pitch": 72, "velocity": 59, "note_on_time": 11.932, "note_off_time": 12.868}, {"pitch": 67, "velocity": 46, "note_on_time": 13.031, "note_off_time": 13.483}, {"pitch": 72, "velocity": 53, "note_on_time": 13.673, "note_off_time": 14.639}, {"pitch": 67, "velocity": 63, "note_on_time": 15.168, "note_off_time": 15.696}, {"pitch": 72, "velocity": 55, "note_on_time": 15.782, "note_off_time": 16.322}, {"pitch": 74, "velocity": 43, "note_on_time": 16.456, "note_off_time": 16.814}, {"pitch": 76, "velocity": 49, "note_on_time": 17.108, "note_off_time": 17.467}, {"pitch": 67, "velocity": 46, "note_on_time": 17.883, "note_off_time": 19.185}, {"pitch": 69, "velocity": 56, "note_on_time": 19.332, "note_off_time": 19.871}, {"pitch": 71, "velocity": 55, "note_on_time": 20.018, "note_off_time": 20.537}, {"pitch": 72, "velocity": 55, "note_on_time": 20.707, "note_off_time": 21.869}, {"pitch": 67, "velocity": 50, "note_on_time": 22.182, "note_off_time": 22.868}, {"pitch": 69, "velocity": 50, "note_on_time": 22.912, "note_off_time": 23.573}, {"pitch": 71, "velocity": 51, "note_on_time": 23.569, "note_off_time": 24.631}, {"pitch": 67, "velocity": 52, "note_on_time": 24.97, "note_off_time": 25.713}, {"pitch": 71, "velocity": 49, "note_on_time": 25.713, "note_off_time": 26.303}, {"pitch": 72, "velocity": 41, "note_on_time": 26.378, "note_off_time": 28.067}, {"pitch": 67, "velocity": 36, "note_on_time": 28.035, "note_off_time": 29.056}, {"pitch": 74, "velocity": 31, "note_on_time": 29.054, "note_off_time": 29.69}, {"pitch": 72, "velocity": 43, "note_on_time": 29.671, "note_off_time": 31.521}, {"pitch": 67, "velocity": 14, "note_on_time": 31.537, "note_off_time": 32.175}, {"pitch": 71, "velocity": 36, "note_on_time": 32.16, "note_off_time": 32.907}, {"pitch": 72, "velocity": 42, "note_on_time": 32.922, "note_off_time": 34.384}, {"pitch": 67, "velocity": 21, "note_on_time": 35.921, "note_off_time": 35.994}]</notes><guidance name="Guidance Mode">None</guidance><error name="Error value">1.2851431312556576</error></trial></trials></MIDI>