<MIDI midiNo="2023_01_29-13_09_09"><target_notes><notes name="Note List">[{"pitch": 39, "velocity": 100, "note_on_time": 0.006, "note_off_time": 0.715}, {"pitch": 42, "velocity": 100, "note_on_time": 0.715, "note_off_time": 1.432}, {"pitch": 42, "velocity": 100, "note_on_time": 1.432, "note_off_time": 2.149}, {"pitch": 42, "velocity": 100, "note_on_time": 2.149, "note_off_time": 2.864}, {"pitch": 64, "velocity": 100, "note_on_time": 2.863, "note_off_time": 3.582}, {"pitch": 39, "velocity": 100, "note_on_time": 2.864, "note_off_time": 3.582}, {"pitch": 64, "velocity": 100, "note_on_time": 3.582, "note_off_time": 4.299}, {"pitch": 42, "velocity": 100, "note_on_time": 3.583, "note_off_time": 4.3}, {"pitch": 65, "velocity": 100, "note_on_time": 4.299, "note_off_time": 5.015}, {"pitch": 42, "velocity": 100, "note_on_time": 4.3, "note_off_time": 5.015}, {"pitch": 67, "velocity": 100, "note_on_time": 5.015, "note_off_time": 5.732}, {"pitch": 42, "velocity": 100, "note_on_time": 5.015, "note_off_time": 5.732}, {"pitch": 67, "velocity": 100, "note_on_time": 5.732, "note_off_time": 6.448}, {"pitch": 39, "velocity": 100, "note_on_time": 5.733, "note_off_time": 6.449}, {"pitch": 65, "velocity": 100, "note_on_time": 6.448, "note_off_time": 7.156}, {"pitch": 42, "velocity": 100, "note_on_time": 6.449, "note_off_time": 7.156}, {"pitch": 64, "velocity": 100, "note_on_time": 7.156, "note_off_time": 7.87}, {"pitch": 42, "velocity": 100, "note_on_time": 7.156, "note_off_time": 7.87}, {"pitch": 62, "velocity": 100, "note_on_time": 7.87, "note_off_time": 8.589}, {"pitch": 42, "velocity": 100, "note_on_time": 7.87, "note_off_time": 8.589}, {"pitch": 60, "velocity": 100, "note_on_time": 8.589, "note_off_time": 9.302}, {"pitch": 39, "velocity": 100, "note_on_time": 8.589, "note_off_time": 9.303}, {"pitch": 60, "velocity": 100, "note_on_time": 9.302, "note_off_time": 10.016}, {"pitch": 42, "velocity": 100, "note_on_time": 9.303, "note_off_time": 10.016}, {"pitch": 62, "velocity": 100, "note_on_time": 10.016, "note_off_time": 10.734}, {"pitch": 42, "velocity": 100, "note_on_time": 10.017, "note_off_time": 10.734}, {"pitch": 64, "velocity": 100, "note_on_time": 10.734, "note_off_time": 11.446}, {"pitch": 42, "velocity": 100, "note_on_time": 10.734, "note_off_time": 11.446}, {"pitch": 64, "velocity": 100, "note_on_time": 11.446, "note_off_time": 12.161}, {"pitch": 39, "velocity": 100, "note_on_time": 11.446, "note_off_time": 12.162}, {"pitch": 62, "velocity": 100, "note_on_time": 12.161, "note_off_time": 12.881}, {"pitch": 42, "velocity": 100, "note_on_time": 12.162, "note_off_time": 12.881}, {"pitch": 42, "velocity": 100, "note_on_time": 12.881, "note_off_time": 13.593}, {"pitch": 62, "velocity": 100, "note_on_time": 12.881, "note_off_time": 14.308}, {"pitch": 42, "velocity": 100, "note_on_time": 13.593, "note_off_time": 14.308}, {"pitch": 64, "velocity": 100, "note_on_time": 14.308, "note_off_time": 15.019}, {"pitch": 39, "velocity": 100, "note_on_time": 14.308, "note_off_time": 15.02}, {"pitch": 64, "velocity": 100, "note_on_time": 15.019, "note_off_time": 15.735}, {"pitch": 42, "velocity": 100, "note_on_time": 15.02, "note_off_time": 15.735}, {"pitch": 65, "velocity": 100, "note_on_time": 15.735, "note_off_time": 16.45}, {"pitch": 42, "velocity": 100, "note_on_time": 15.735, "note_off_time": 16.45}, {"pitch": 67, "velocity": 100, "note_on_time": 16.45, "note_off_time": 17.166}, {"pitch": 42, "velocity": 100, "note_on_time": 16.45, "note_off_time": 17.166}, {"pitch": 67, "velocity": 100, "note_on_time": 17.166, "note_off_time": 17.877}, {"pitch": 39, "velocity": 100, "note_on_time": 17.166, "note_off_time": 17.878}, {"pitch": 65, "velocity": 100, "note_on_time": 17.877, "note_off_time": 18.595}, {"pitch": 42, "velocity": 100, "note_on_time": 17.878, "note_off_time": 18.595}, {"pitch": 64, "velocity": 100, "note_on_time": 18.595, "note_off_time": 19.307}, {"pitch": 42, "velocity": 100, "note_on_time": 18.596, "note_off_time": 19.307}, {"pitch": 62, "velocity": 100, "note_on_time": 19.307, "note_off_time": 20.025}, {"pitch": 42, "velocity": 100, "note_on_time": 19.307, "note_off_time": 20.025}, {"pitch": 60, "velocity": 100, "note_on_time": 20.025, "note_off_time": 20.739}, {"pitch": 39, "velocity": 100, "note_on_time": 20.025, "note_off_time": 20.739}, {"pitch": 60, "velocity": 100, "note_on_time": 20.739, "note_off_time": 21.453}, {"pitch": 42, "velocity": 100, "note_on_time": 20.739, "note_off_time": 21.453}, {"pitch": 62, "velocity": 100, "note_on_time": 21.453, "note_off_time": 22.17}, {"pitch": 42, "velocity": 100, "note_on_time": 21.453, "note_off_time": 22.17}, {"pitch": 64, "velocity": 100, "note_on_time": 22.17, "note_off_time": 22.887}, {"pitch": 42, "velocity": 100, "note_on_time": 22.17, "note_off_time": 22.887}, {"pitch": 62, "velocity": 100, "note_on_time": 22.887, "note_off_time": 23.603}, {"pitch": 39, "velocity": 100, "note_on_time": 22.887, "note_off_time": 23.603}, {"pitch": 60, "velocity": 100, "note_on_time": 23.603, "note_off_time": 24.319}, {"pitch": 42, "velocity": 100, "note_on_time": 23.603, "note_off_time": 24.319}, {"pitch": 42, "velocity": 100, "note_on_time": 24.319, "note_off_time": 25.034}, {"pitch": 60, "velocity": 100, "note_on_time": 24.319, "note_off_time": 25.752}, {"pitch": 42, "velocity": 100, "note_on_time": 25.034, "note_off_time": 25.753}]</notes><options name="Option List">((4, 4), [0.5, 0.25], 3, 7, &lt;NoteRangePerHand.TWO_NOTES: 3&gt;, &lt;NoteRangePerHand.ONE_NOTE: 2&gt;, False, True, True, None)</options></target_notes><trials><trial trial_no="1" timestamp="2023_01_29-13_09_09"><notes name="Played Notes">[{"pitch": 60, "velocity": 54, "note_on_time": 2.849, "note_off_time": 3.367}, {"pitch": 64, "velocity": 52, "note_on_time": 5.738, "note_off_time": 5.923}, {"pitch": 64, "velocity": 41, "note_on_time": 6.061, "note_off_time": 6.312}, {"pitch": 65, "velocity": 53, "note_on_time": 6.363, "note_off_time": 6.651}, {"pitch": 67, "velocity": 48, "note_on_time": 6.662, "note_off_time": 6.852}, {"pitch": 67, "velocity": 43, "note_on_time": 7.762, "note_off_time": 8.147}, {"pitch": 65, "velocity": 41, "note_on_time": 8.174, "note_off_time": 8.648}, {"pitch": 64, "velocity": 43, "note_on_time": 8.64, "note_off_time": 9.196}, {"pitch": 62, "velocity": 22, "note_on_time": 9.166, "note_off_time": 9.762}, {"pitch": 60, "velocity": 51, "note_on_time": 9.744, "note_off_time": 10.133}, {"pitch": 60, "velocity": 57, "note_on_time": 10.369, "note_off_time": 10.99}, {"pitch": 62, "velocity": 60, "note_on_time": 11.25, "note_off_time": 11.75}, {"pitch": 64, "velocity": 54, "note_on_time": 11.992, "note_off_time": 12.501}, {"pitch": 64, "velocity": 51, "note_on_time": 12.775, "note_off_time": 13.387}, {"pitch": 62, "velocity": 54, "note_on_time": 13.515, "note_off_time": 13.993}, {"pitch": 62, "velocity": 55, "note_on_time": 14.272, "note_off_time": 15.426}, {"pitch": 64, "velocity": 68, "note_on_time": 15.728, "note_off_time": 16.263}, {"pitch": 64, "velocity": 57, "note_on_time": 16.464, "note_off_time": 16.915}, {"pitch": 65, "velocity": 58, "note_on_time": 17.136, "note_off_time": 17.767}, {"pitch": 67, "velocity": 38, "note_on_time": 17.857, "note_off_time": 18.29}, {"pitch": 67, "velocity": 48, "note_on_time": 18.569, "note_off_time": 19.261}, {"pitch": 65, "velocity": 43, "note_on_time": 19.305, "note_off_time": 19.986}, {"pitch": 64, "velocity": 50, "note_on_time": 19.969, "note_off_time": 20.726}, {"pitch": 62, "velocity": 48, "note_on_time": 20.688, "note_off_time": 21.402}, {"pitch": 60, "velocity": 56, "note_on_time": 21.416, "note_off_time": 21.923}, {"pitch": 60, "velocity": 48, "note_on_time": 22.142, "note_off_time": 23.066}, {"pitch": 64, "velocity": 51, "note_on_time": 23.028, "note_off_time": 23.329}, {"pitch": 62, "velocity": 40, "note_on_time": 24.049, "note_off_time": 24.333}, {"pitch": 62, "velocity": 43, "note_on_time": 24.862, "note_off_time": 25.681}]</notes><guidance name="Guidance Mode">None</guidance><error name="Error value">1.3411091555555572</error></trial></trials></MIDI>