<MIDI midiNo="2023_01_29-13_51_06"><target_notes><notes name="Note List">[{"pitch": 39, "velocity": 100, "note_on_time": 0.005, "note_off_time": 0.801}, {"pitch": 42, "velocity": 100, "note_on_time": 0.802, "note_off_time": 1.598}, {"pitch": 42, "velocity": 100, "note_on_time": 1.598, "note_off_time": 2.392}, {"pitch": 42, "velocity": 100, "note_on_time": 2.392, "note_off_time": 3.198}, {"pitch": 39, "velocity": 100, "note_on_time": 3.198, "note_off_time": 3.991}, {"pitch": 42, "velocity": 100, "note_on_time": 3.991, "note_off_time": 4.783}, {"pitch": 42, "velocity": 100, "note_on_time": 4.783, "note_off_time": 5.574}, {"pitch": 67, "velocity": 100, "note_on_time": 5.978, "note_off_time": 6.384}, {"pitch": 42, "velocity": 100, "note_on_time": 5.575, "note_off_time": 6.384}, {"pitch": 74, "velocity": 100, "note_on_time": 6.384, "note_off_time": 7.19}, {"pitch": 39, "velocity": 100, "note_on_time": 6.385, "note_off_time": 7.19}, {"pitch": 71, "velocity": 100, "note_on_time": 7.19, "note_off_time": 7.595}, {"pitch": 67, "velocity": 100, "note_on_time": 7.595, "note_off_time": 7.998}, {"pitch": 42, "velocity": 100, "note_on_time": 7.191, "note_off_time": 7.998}, {"pitch": 74, "velocity": 100, "note_on_time": 7.998, "note_off_time": 8.792}, {"pitch": 42, "velocity": 100, "note_on_time": 7.998, "note_off_time": 8.792}, {"pitch": 71, "velocity": 100, "note_on_time": 8.792, "note_off_time": 9.198}, {"pitch": 67, "velocity": 100, "note_on_time": 9.198, "note_off_time": 9.602}, {"pitch": 42, "velocity": 100, "note_on_time": 8.792, "note_off_time": 9.603}, {"pitch": 74, "velocity": 100, "note_on_time": 9.602, "note_off_time": 10.006}, {"pitch": 74, "velocity": 100, "note_on_time": 10.006, "note_off_time": 10.411}, {"pitch": 39, "velocity": 100, "note_on_time": 9.603, "note_off_time": 10.411}, {"pitch": 76, "velocity": 100, "note_on_time": 10.411, "note_off_time": 10.816}, {"pitch": 76, "velocity": 100, "note_on_time": 10.816, "note_off_time": 11.222}, {"pitch": 42, "velocity": 100, "note_on_time": 10.411, "note_off_time": 11.223}, {"pitch": 74, "velocity": 100, "note_on_time": 11.222, "note_off_time": 12.014}, {"pitch": 42, "velocity": 100, "note_on_time": 11.223, "note_off_time": 12.014}, {"pitch": 71, "velocity": 100, "note_on_time": 12.014, "note_off_time": 12.419}, {"pitch": 67, "velocity": 100, "note_on_time": 12.419, "note_off_time": 12.823}, {"pitch": 42, "velocity": 100, "note_on_time": 12.015, "note_off_time": 12.823}, {"pitch": 74, "velocity": 100, "note_on_time": 12.823, "note_off_time": 13.227}, {"pitch": 74, "velocity": 100, "note_on_time": 13.227, "note_off_time": 13.632}, {"pitch": 39, "velocity": 100, "note_on_time": 12.824, "note_off_time": 13.632}, {"pitch": 71, "velocity": 100, "note_on_time": 13.632, "note_off_time": 14.036}, {"pitch": 67, "velocity": 100, "note_on_time": 14.036, "note_off_time": 14.443}, {"pitch": 42, "velocity": 100, "note_on_time": 13.632, "note_off_time": 14.443}, {"pitch": 74, "velocity": 100, "note_on_time": 14.443, "note_off_time": 14.848}, {"pitch": 74, "velocity": 100, "note_on_time": 14.848, "note_off_time": 15.255}, {"pitch": 42, "velocity": 100, "note_on_time": 14.444, "note_off_time": 15.256}, {"pitch": 71, "velocity": 100, "note_on_time": 15.255, "note_off_time": 15.66}, {"pitch": 67, "velocity": 100, "note_on_time": 15.66, "note_off_time": 16.066}, {"pitch": 42, "velocity": 100, "note_on_time": 15.256, "note_off_time": 16.066}, {"pitch": 74, "velocity": 100, "note_on_time": 16.066, "note_off_time": 16.471}, {"pitch": 74, "velocity": 100, "note_on_time": 16.471, "note_off_time": 16.877}, {"pitch": 39, "velocity": 100, "note_on_time": 16.067, "note_off_time": 16.877}, {"pitch": 76, "velocity": 100, "note_on_time": 16.877, "note_off_time": 17.284}, {"pitch": 76, "velocity": 100, "note_on_time": 17.284, "note_off_time": 17.69}, {"pitch": 42, "velocity": 100, "note_on_time": 16.878, "note_off_time": 17.691}, {"pitch": 74, "velocity": 100, "note_on_time": 17.69, "note_off_time": 18.483}, {"pitch": 42, "velocity": 100, "note_on_time": 17.691, "note_off_time": 18.483}, {"pitch": 71, "velocity": 100, "note_on_time": 18.483, "note_off_time": 18.886}, {"pitch": 42, "velocity": 100, "note_on_time": 18.483, "note_off_time": 19.29}]</notes><options name="Option List">((4, 4), [0.5, 0.25], 3, 7, &lt;NoteRangePerHand.TWO_NOTES: 3&gt;, &lt;NoteRangePerHand.ONE_NOTE: 2&gt;, False, True, True, None)</options></target_notes><trials><trial trial_no="1" timestamp="2023_01_29-13_51_06"><notes name="Played Notes">[{"pitch": 67, "velocity": 68, "note_on_time": 5.566, "note_off_time": 6.012}, {"pitch": 74, "velocity": 66, "note_on_time": 6.011, "note_off_time": 6.738}, {"pitch": 67, "velocity": 53, "note_on_time": 6.735, "note_off_time": 7.007}, {"pitch": 72, "velocity": 56, "note_on_time": 7.157, "note_off_time": 7.512}, {"pitch": 71, "velocity": 40, "note_on_time": 7.544, "note_off_time": 7.873}, {"pitch": 74, "velocity": 60, "note_on_time": 7.95, "note_off_time": 8.756}, {"pitch": 71, "velocity": 61, "note_on_time": 8.761, "note_off_time": 9.16}, {"pitch": 67, "velocity": 61, "note_on_time": 9.16, "note_off_time": 9.507}, {"pitch": 74, "velocity": 62, "note_on_time": 9.556, "note_off_time": 9.73}, {"pitch": 74, "velocity": 73, "note_on_time": 9.966, "note_off_time": 10.104}, {"pitch": 76, "velocity": 40, "note_on_time": 10.365, "note_off_time": 10.47}, {"pitch": 76, "velocity": 72, "note_on_time": 10.728, "note_off_time": 10.875}, {"pitch": 74, "velocity": 75, "note_on_time": 11.128, "note_off_time": 11.892}, {"pitch": 71, "velocity": 64, "note_on_time": 11.911, "note_off_time": 12.314}, {"pitch": 67, "velocity": 60, "note_on_time": 12.302, "note_off_time": 12.655}, {"pitch": 74, "velocity": 63, "note_on_time": 12.688, "note_off_time": 13.302}, {"pitch": 74, "velocity": 60, "note_on_time": 13.473, "note_off_time": 13.702}, {"pitch": 76, "velocity": 58, "note_on_time": 13.909, "note_off_time": 14.035}, {"pitch": 74, "velocity": 62, "note_on_time": 14.612, "note_off_time": 14.681}, {"pitch": 74, "velocity": 49, "note_on_time": 14.863, "note_off_time": 15.001}, {"pitch": 71, "velocity": 56, "note_on_time": 15.287, "note_off_time": 15.417}, {"pitch": 67, "velocity": 55, "note_on_time": 15.563, "note_off_time": 15.931}, {"pitch": 74, "velocity": 53, "note_on_time": 16.029, "note_off_time": 16.186}, {"pitch": 74, "velocity": 47, "note_on_time": 16.396, "note_off_time": 16.593}, {"pitch": 71, "velocity": 56, "note_on_time": 16.923, "note_off_time": 17.051}, {"pitch": 67, "velocity": 45, "note_on_time": 17.33, "note_off_time": 17.501}, {"pitch": 74, "velocity": 32, "note_on_time": 18.099, "note_off_time": 18.238}, {"pitch": 71, "velocity": 65, "note_on_time": 18.605, "note_off_time": 18.683}, {"pitch": 71, "velocity": 41, "note_on_time": 18.8, "note_off_time": 18.853}, {"pitch": 74, "velocity": 60, "note_on_time": 18.874, "note_off_time": 18.934}, {"pitch": 74, "velocity": 52, "note_on_time": 19.031, "note_off_time": 19.065}]</notes><guidance name="Guidance Mode">None</guidance><error name="Error value">1.2453945535714313</error></trial></trials></MIDI>