<MIDI midiNo="2023_01_29-13_44_20"><target_notes><notes name="Note List">[{"pitch": 39, "velocity": 100, "note_on_time": 0.005, "note_off_time": 0.713}, {"pitch": 42, "velocity": 100, "note_on_time": 0.713, "note_off_time": 1.433}, {"pitch": 42, "velocity": 100, "note_on_time": 1.433, "note_off_time": 2.148}, {"pitch": 42, "velocity": 100, "note_on_time": 2.149, "note_off_time": 2.866}, {"pitch": 39, "velocity": 100, "note_on_time": 2.866, "note_off_time": 3.58}, {"pitch": 42, "velocity": 100, "note_on_time": 3.58, "note_off_time": 4.297}, {"pitch": 42, "velocity": 100, "note_on_time": 4.297, "note_off_time": 5.012}, {"pitch": 62, "velocity": 100, "note_on_time": 5.37, "note_off_time": 5.726}, {"pitch": 42, "velocity": 100, "note_on_time": 5.012, "note_off_time": 5.726}, {"pitch": 62, "velocity": 100, "note_on_time": 5.726, "note_off_time": 6.439}, {"pitch": 39, "velocity": 100, "note_on_time": 5.726, "note_off_time": 6.439}, {"pitch": 62, "velocity": 100, "note_on_time": 6.439, "note_off_time": 6.796}, {"pitch": 62, "velocity": 100, "note_on_time": 6.796, "note_off_time": 7.154}, {"pitch": 42, "velocity": 100, "note_on_time": 6.439, "note_off_time": 7.154}, {"pitch": 62, "velocity": 100, "note_on_time": 7.154, "note_off_time": 7.868}, {"pitch": 42, "velocity": 100, "note_on_time": 7.154, "note_off_time": 7.868}, {"pitch": 62, "velocity": 100, "note_on_time": 7.868, "note_off_time": 8.224}, {"pitch": 62, "velocity": 100, "note_on_time": 8.224, "note_off_time": 8.584}, {"pitch": 42, "velocity": 100, "note_on_time": 7.868, "note_off_time": 8.584}, {"pitch": 62, "velocity": 100, "note_on_time": 8.584, "note_off_time": 8.943}, {"pitch": 62, "velocity": 100, "note_on_time": 8.943, "note_off_time": 9.303}, {"pitch": 39, "velocity": 100, "note_on_time": 8.585, "note_off_time": 9.303}, {"pitch": 62, "velocity": 100, "note_on_time": 9.303, "note_off_time": 9.662}, {"pitch": 62, "velocity": 100, "note_on_time": 9.662, "note_off_time": 10.02}, {"pitch": 42, "velocity": 100, "note_on_time": 9.303, "note_off_time": 10.021}, {"pitch": 62, "velocity": 100, "note_on_time": 10.02, "note_off_time": 10.74}, {"pitch": 42, "velocity": 100, "note_on_time": 10.021, "note_off_time": 10.74}, {"pitch": 62, "velocity": 100, "note_on_time": 10.74, "note_off_time": 11.099}, {"pitch": 62, "velocity": 100, "note_on_time": 11.099, "note_off_time": 11.456}, {"pitch": 42, "velocity": 100, "note_on_time": 10.74, "note_off_time": 11.456}, {"pitch": 62, "velocity": 100, "note_on_time": 11.456, "note_off_time": 11.817}, {"pitch": 62, "velocity": 100, "note_on_time": 11.817, "note_off_time": 12.172}, {"pitch": 39, "velocity": 100, "note_on_time": 11.456, "note_off_time": 12.172}, {"pitch": 62, "velocity": 100, "note_on_time": 12.172, "note_off_time": 12.529}, {"pitch": 62, "velocity": 100, "note_on_time": 12.529, "note_off_time": 12.886}, {"pitch": 42, "velocity": 100, "note_on_time": 12.172, "note_off_time": 12.886}, {"pitch": 62, "velocity": 100, "note_on_time": 12.886, "note_off_time": 13.248}, {"pitch": 62, "velocity": 100, "note_on_time": 13.248, "note_off_time": 13.605}, {"pitch": 42, "velocity": 100, "note_on_time": 12.887, "note_off_time": 13.605}, {"pitch": 62, "velocity": 100, "note_on_time": 13.605, "note_off_time": 13.962}, {"pitch": 62, "velocity": 100, "note_on_time": 13.962, "note_off_time": 14.321}, {"pitch": 42, "velocity": 100, "note_on_time": 13.605, "note_off_time": 14.321}, {"pitch": 62, "velocity": 100, "note_on_time": 14.321, "note_off_time": 14.679}, {"pitch": 62, "velocity": 100, "note_on_time": 14.679, "note_off_time": 15.037}, {"pitch": 39, "velocity": 100, "note_on_time": 14.321, "note_off_time": 15.037}, {"pitch": 62, "velocity": 100, "note_on_time": 15.037, "note_off_time": 15.395}, {"pitch": 62, "velocity": 100, "note_on_time": 15.395, "note_off_time": 15.754}, {"pitch": 42, "velocity": 100, "note_on_time": 15.038, "note_off_time": 15.754}, {"pitch": 62, "velocity": 100, "note_on_time": 15.754, "note_off_time": 16.474}, {"pitch": 42, "velocity": 100, "note_on_time": 15.754, "note_off_time": 16.474}, {"pitch": 62, "velocity": 100, "note_on_time": 16.474, "note_off_time": 16.835}, {"pitch": 42, "velocity": 100, "note_on_time": 16.475, "note_off_time": 17.195}]</notes><options name="Option List">((4, 4), [0.5, 0.25], 3, 7, &lt;NoteRangePerHand.TWO_NOTES: 3&gt;, &lt;NoteRangePerHand.ONE_NOTE: 2&gt;, False, True, True, None)</options></target_notes><trials><trial trial_no="1" timestamp="2023_01_29-13_44_20"><notes name="Played Notes">[{"pitch": 62, "velocity": 46, "note_on_time": 10.139, "note_off_time": 10.926}, {"pitch": 62, "velocity": 41, "note_on_time": 13.733, "note_off_time": 13.967}, {"pitch": 62, "velocity": 55, "note_on_time": 16.465, "note_off_time": 16.865}]</notes><guidance name="Guidance Mode">None</guidance><error name="Error value">1.2546237857142855</error></trial></trials></MIDI>