<MIDI midiNo="2023_01_29-13_35_29"><target_notes><notes name="Note List">[{"pitch": 39, "velocity": 100, "note_on_time": 0.005, "note_off_time": 0.713}, {"pitch": 42, "velocity": 100, "note_on_time": 0.713, "note_off_time": 1.428}, {"pitch": 42, "velocity": 100, "note_on_time": 1.428, "note_off_time": 2.143}, {"pitch": 42, "velocity": 100, "note_on_time": 2.143, "note_off_time": 2.857}, {"pitch": 60, "velocity": 100, "note_on_time": 2.856, "note_off_time": 3.575}, {"pitch": 39, "velocity": 100, "note_on_time": 2.857, "note_off_time": 3.575}, {"pitch": 65, "velocity": 100, "note_on_time": 3.575, "note_off_time": 4.295}, {"pitch": 42, "velocity": 100, "note_on_time": 3.576, "note_off_time": 4.296}, {"pitch": 64, "velocity": 100, "note_on_time": 4.295, "note_off_time": 5.012}, {"pitch": 42, "velocity": 100, "note_on_time": 4.296, "note_off_time": 5.012}, {"pitch": 65, "velocity": 100, "note_on_time": 5.012, "note_off_time": 5.725}, {"pitch": 42, "velocity": 100, "note_on_time": 5.012, "note_off_time": 5.725}, {"pitch": 67, "velocity": 100, "note_on_time": 5.725, "note_off_time": 6.445}, {"pitch": 39, "velocity": 100, "note_on_time": 5.725, "note_off_time": 6.445}, {"pitch": 62, "velocity": 100, "note_on_time": 6.445, "note_off_time": 7.162}, {"pitch": 42, "velocity": 100, "note_on_time": 6.445, "note_off_time": 7.162}, {"pitch": 42, "velocity": 100, "note_on_time": 7.162, "note_off_time": 7.879}, {"pitch": 67, "velocity": 100, "note_on_time": 7.162, "note_off_time": 8.595}, {"pitch": 42, "velocity": 100, "note_on_time": 7.879, "note_off_time": 8.595}, {"pitch": 65, "velocity": 100, "note_on_time": 8.595, "note_off_time": 9.312}, {"pitch": 39, "velocity": 100, "note_on_time": 8.595, "note_off_time": 9.312}, {"pitch": 64, "velocity": 100, "note_on_time": 9.312, "note_off_time": 10.029}, {"pitch": 42, "velocity": 100, "note_on_time": 9.313, "note_off_time": 10.03}, {"pitch": 62, "velocity": 100, "note_on_time": 10.029, "note_off_time": 10.746}, {"pitch": 42, "velocity": 100, "note_on_time": 10.03, "note_off_time": 10.746}, {"pitch": 64, "velocity": 100, "note_on_time": 10.746, "note_off_time": 11.463}, {"pitch": 42, "velocity": 100, "note_on_time": 10.746, "note_off_time": 11.463}, {"pitch": 39, "velocity": 100, "note_on_time": 11.464, "note_off_time": 12.183}, {"pitch": 42, "velocity": 100, "note_on_time": 12.183, "note_off_time": 12.9}, {"pitch": 42, "velocity": 100, "note_on_time": 12.901, "note_off_time": 13.619}, {"pitch": 65, "velocity": 100, "note_on_time": 11.463, "note_off_time": 14.339}, {"pitch": 42, "velocity": 100, "note_on_time": 13.619, "note_off_time": 14.339}, {"pitch": 60, "velocity": 100, "note_on_time": 14.339, "note_off_time": 15.059}, {"pitch": 39, "velocity": 100, "note_on_time": 14.34, "note_off_time": 15.059}, {"pitch": 65, "velocity": 100, "note_on_time": 15.059, "note_off_time": 15.777}, {"pitch": 42, "velocity": 100, "note_on_time": 15.06, "note_off_time": 15.777}, {"pitch": 64, "velocity": 100, "note_on_time": 15.777, "note_off_time": 16.492}, {"pitch": 42, "velocity": 100, "note_on_time": 15.778, "note_off_time": 16.492}, {"pitch": 65, "velocity": 100, "note_on_time": 16.492, "note_off_time": 17.208}, {"pitch": 42, "velocity": 100, "note_on_time": 16.493, "note_off_time": 17.208}, {"pitch": 67, "velocity": 100, "note_on_time": 17.208, "note_off_time": 17.923}, {"pitch": 39, "velocity": 100, "note_on_time": 17.208, "note_off_time": 17.923}, {"pitch": 62, "velocity": 100, "note_on_time": 17.923, "note_off_time": 18.639}, {"pitch": 42, "velocity": 100, "note_on_time": 17.923, "note_off_time": 18.639}, {"pitch": 42, "velocity": 100, "note_on_time": 18.64, "note_off_time": 19.359}, {"pitch": 67, "velocity": 100, "note_on_time": 18.639, "note_off_time": 20.074}, {"pitch": 42, "velocity": 100, "note_on_time": 19.359, "note_off_time": 20.074}, {"pitch": 65, "velocity": 100, "note_on_time": 20.074, "note_off_time": 20.791}, {"pitch": 39, "velocity": 100, "note_on_time": 20.074, "note_off_time": 20.791}, {"pitch": 64, "velocity": 100, "note_on_time": 20.791, "note_off_time": 21.505}, {"pitch": 42, "velocity": 100, "note_on_time": 20.792, "note_off_time": 21.505}, {"pitch": 62, "velocity": 100, "note_on_time": 21.505, "note_off_time": 22.226}, {"pitch": 42, "velocity": 100, "note_on_time": 21.505, "note_off_time": 22.227}, {"pitch": 64, "velocity": 100, "note_on_time": 22.226, "note_off_time": 22.946}, {"pitch": 42, "velocity": 100, "note_on_time": 22.227, "note_off_time": 22.947}, {"pitch": 39, "velocity": 100, "note_on_time": 22.947, "note_off_time": 23.663}, {"pitch": 42, "velocity": 100, "note_on_time": 23.663, "note_off_time": 24.382}, {"pitch": 42, "velocity": 100, "note_on_time": 24.383, "note_off_time": 25.097}, {"pitch": 65, "velocity": 100, "note_on_time": 22.946, "note_off_time": 25.814}, {"pitch": 42, "velocity": 100, "note_on_time": 25.098, "note_off_time": 25.814}]</notes><options name="Option List">((4, 4), [0.5, 0.25], 3, 7, &lt;NoteRangePerHand.TWO_NOTES: 3&gt;, &lt;NoteRangePerHand.ONE_NOTE: 2&gt;, False, True, True, None)</options></target_notes><trials><trial trial_no="1" timestamp="2023_01_29-13_35_29"><notes name="Played Notes">[{"pitch": 60, "velocity": 47, "note_on_time": 2.83, "note_off_time": 3.594}, {"pitch": 65, "velocity": 71, "note_on_time": 3.63, "note_off_time": 4.289}, {"pitch": 64, "velocity": 50, "note_on_time": 4.276, "note_off_time": 5.008}, {"pitch": 65, "velocity": 59, "note_on_time": 5.023, "note_off_time": 5.77}, {"pitch": 67, "velocity": 49, "note_on_time": 5.723, "note_off_time": 6.459}, {"pitch": 62, "velocity": 39, "note_on_time": 6.437, "note_off_time": 7.265}, {"pitch": 67, "velocity": 53, "note_on_time": 7.45, "note_off_time": 8.46}, {"pitch": 64, "velocity": 37, "note_on_time": 8.828, "note_off_time": 9.346}, {"pitch": 64, "velocity": 42, "note_on_time": 9.539, "note_off_time": 9.996}, {"pitch": 62, "velocity": 39, "note_on_time": 10.037, "note_off_time": 10.507}, {"pitch": 64, "velocity": 31, "note_on_time": 10.52, "note_off_time": 11.006}, {"pitch": 65, "velocity": 31, "note_on_time": 11.106, "note_off_time": 13.983}, {"pitch": 60, "velocity": 31, "note_on_time": 14.278, "note_off_time": 15.177}, {"pitch": 64, "velocity": 35, "note_on_time": 15.142, "note_off_time": 15.471}, {"pitch": 60, "velocity": 34, "note_on_time": 15.591, "note_off_time": 15.779}, {"pitch": 65, "velocity": 8, "note_on_time": 15.897, "note_off_time": 16.146}, {"pitch": 64, "velocity": 23, "note_on_time": 16.181, "note_off_time": 16.508}, {"pitch": 65, "velocity": 42, "note_on_time": 16.544, "note_off_time": 17.081}, {"pitch": 67, "velocity": 50, "note_on_time": 17.099, "note_off_time": 17.795}, {"pitch": 62, "velocity": 30, "note_on_time": 17.787, "note_off_time": 18.971}, {"pitch": 65, "velocity": 68, "note_on_time": 18.955, "note_off_time": 20.18}, {"pitch": 64, "velocity": 27, "note_on_time": 20.769, "note_off_time": 20.918}, {"pitch": 65, "velocity": 39, "note_on_time": 21.01, "note_off_time": 21.571}, {"pitch": 64, "velocity": 43, "note_on_time": 21.581, "note_off_time": 22.154}, {"pitch": 62, "velocity": 32, "note_on_time": 22.179, "note_off_time": 22.868}, {"pitch": 64, "velocity": 36, "note_on_time": 22.836, "note_off_time": 23.537}]</notes><guidance name="Guidance Mode">None</guidance><error name="Error value">2.089330923188405</error></trial></trials></MIDI>