<MIDI midiNo="2023_01_29-13_12_09"><target_notes><notes name="Note List">[{"pitch": 39, "velocity": 100, "note_on_time": 0.006, "note_off_time": 0.715}, {"pitch": 42, "velocity": 100, "note_on_time": 0.715, "note_off_time": 1.433}, {"pitch": 42, "velocity": 100, "note_on_time": 1.434, "note_off_time": 2.148}, {"pitch": 42, "velocity": 100, "note_on_time": 2.149, "note_off_time": 2.866}, {"pitch": 64, "velocity": 100, "note_on_time": 2.866, "note_off_time": 3.582}, {"pitch": 39, "velocity": 100, "note_on_time": 2.867, "note_off_time": 3.582}, {"pitch": 64, "velocity": 100, "note_on_time": 3.582, "note_off_time": 4.297}, {"pitch": 42, "velocity": 100, "note_on_time": 3.582, "note_off_time": 4.297}, {"pitch": 65, "velocity": 100, "note_on_time": 4.297, "note_off_time": 5.014}, {"pitch": 42, "velocity": 100, "note_on_time": 4.297, "note_off_time": 5.015}, {"pitch": 67, "velocity": 100, "note_on_time": 5.014, "note_off_time": 5.729}, {"pitch": 42, "velocity": 100, "note_on_time": 5.015, "note_off_time": 5.729}, {"pitch": 67, "velocity": 100, "note_on_time": 5.729, "note_off_time": 6.444}, {"pitch": 39, "velocity": 100, "note_on_time": 5.729, "note_off_time": 6.444}, {"pitch": 65, "velocity": 100, "note_on_time": 6.444, "note_off_time": 7.161}, {"pitch": 42, "velocity": 100, "note_on_time": 6.445, "note_off_time": 7.161}, {"pitch": 64, "velocity": 100, "note_on_time": 7.161, "note_off_time": 7.879}, {"pitch": 42, "velocity": 100, "note_on_time": 7.162, "note_off_time": 7.879}, {"pitch": 62, "velocity": 100, "note_on_time": 7.879, "note_off_time": 8.594}, {"pitch": 42, "velocity": 100, "note_on_time": 7.88, "note_off_time": 8.594}, {"pitch": 60, "velocity": 100, "note_on_time": 8.594, "note_off_time": 9.313}, {"pitch": 39, "velocity": 100, "note_on_time": 8.594, "note_off_time": 9.313}, {"pitch": 60, "velocity": 100, "note_on_time": 9.313, "note_off_time": 10.029}, {"pitch": 42, "velocity": 100, "note_on_time": 9.314, "note_off_time": 10.03}, {"pitch": 62, "velocity": 100, "note_on_time": 10.029, "note_off_time": 10.744}, {"pitch": 42, "velocity": 100, "note_on_time": 10.03, "note_off_time": 10.744}, {"pitch": 64, "velocity": 100, "note_on_time": 10.744, "note_off_time": 11.46}, {"pitch": 42, "velocity": 100, "note_on_time": 10.744, "note_off_time": 11.46}, {"pitch": 64, "velocity": 100, "note_on_time": 11.46, "note_off_time": 12.175}, {"pitch": 39, "velocity": 100, "note_on_time": 11.46, "note_off_time": 12.175}, {"pitch": 62, "velocity": 100, "note_on_time": 12.175, "note_off_time": 12.892}, {"pitch": 42, "velocity": 100, "note_on_time": 12.175, "note_off_time": 12.892}, {"pitch": 42, "velocity": 100, "note_on_time": 12.892, "note_off_time": 13.61}, {"pitch": 62, "velocity": 100, "note_on_time": 12.892, "note_off_time": 14.325}, {"pitch": 42, "velocity": 100, "note_on_time": 13.611, "note_off_time": 14.326}, {"pitch": 64, "velocity": 100, "note_on_time": 14.325, "note_off_time": 15.043}, {"pitch": 39, "velocity": 100, "note_on_time": 14.326, "note_off_time": 15.043}, {"pitch": 64, "velocity": 100, "note_on_time": 15.043, "note_off_time": 15.758}, {"pitch": 42, "velocity": 100, "note_on_time": 15.044, "note_off_time": 15.758}, {"pitch": 65, "velocity": 100, "note_on_time": 15.758, "note_off_time": 16.478}, {"pitch": 42, "velocity": 100, "note_on_time": 15.758, "note_off_time": 16.478}, {"pitch": 67, "velocity": 100, "note_on_time": 16.478, "note_off_time": 17.193}, {"pitch": 42, "velocity": 100, "note_on_time": 16.478, "note_off_time": 17.193}, {"pitch": 67, "velocity": 100, "note_on_time": 17.193, "note_off_time": 17.911}, {"pitch": 39, "velocity": 100, "note_on_time": 17.194, "note_off_time": 17.911}, {"pitch": 65, "velocity": 100, "note_on_time": 17.911, "note_off_time": 18.629}, {"pitch": 42, "velocity": 100, "note_on_time": 17.911, "note_off_time": 18.629}, {"pitch": 64, "velocity": 100, "note_on_time": 18.629, "note_off_time": 19.345}, {"pitch": 42, "velocity": 100, "note_on_time": 18.63, "note_off_time": 19.345}, {"pitch": 62, "velocity": 100, "note_on_time": 19.345, "note_off_time": 20.058}, {"pitch": 42, "velocity": 100, "note_on_time": 19.345, "note_off_time": 20.058}, {"pitch": 60, "velocity": 100, "note_on_time": 20.058, "note_off_time": 20.776}, {"pitch": 39, "velocity": 100, "note_on_time": 20.058, "note_off_time": 20.777}, {"pitch": 60, "velocity": 100, "note_on_time": 20.776, "note_off_time": 21.489}, {"pitch": 42, "velocity": 100, "note_on_time": 20.777, "note_off_time": 21.49}, {"pitch": 62, "velocity": 100, "note_on_time": 21.489, "note_off_time": 22.206}, {"pitch": 42, "velocity": 100, "note_on_time": 21.49, "note_off_time": 22.207}, {"pitch": 64, "velocity": 100, "note_on_time": 22.206, "note_off_time": 22.922}, {"pitch": 42, "velocity": 100, "note_on_time": 22.207, "note_off_time": 22.922}, {"pitch": 62, "velocity": 100, "note_on_time": 22.922, "note_off_time": 23.64}, {"pitch": 39, "velocity": 100, "note_on_time": 22.922, "note_off_time": 23.64}, {"pitch": 60, "velocity": 100, "note_on_time": 23.64, "note_off_time": 24.353}, {"pitch": 42, "velocity": 100, "note_on_time": 23.64, "note_off_time": 24.354}, {"pitch": 42, "velocity": 100, "note_on_time": 24.354, "note_off_time": 25.07}, {"pitch": 60, "velocity": 100, "note_on_time": 24.353, "note_off_time": 25.788}, {"pitch": 42, "velocity": 100, "note_on_time": 25.07, "note_off_time": 25.788}]</notes><options name="Option List">((4, 4), [0.5, 0.25], 3, 7, &lt;NoteRangePerHand.TWO_NOTES: 3&gt;, &lt;NoteRangePerHand.ONE_NOTE: 2&gt;, False, True, True, None)</options></target_notes><trials><trial trial_no="1" timestamp="2023_01_29-13_12_09"><notes name="Played Notes">[{"pitch": 64, "velocity": 50, "note_on_time": 2.896, "note_off_time": 3.315}, {"pitch": 64, "velocity": 54, "note_on_time": 3.528, "note_off_time": 3.996}, {"pitch": 65, "velocity": 54, "note_on_time": 4.235, "note_off_time": 4.707}, {"pitch": 67, "velocity": 42, "note_on_time": 4.951, "note_off_time": 5.423}, {"pitch": 67, "velocity": 46, "note_on_time": 5.693, "note_off_time": 6.122}, {"pitch": 65, "velocity": 9, "note_on_time": 6.451, "note_off_time": 6.837}, {"pitch": 64, "velocity": 55, "note_on_time": 7.117, "note_off_time": 7.568}, {"pitch": 62, "velocity": 35, "note_on_time": 7.861, "note_off_time": 8.255}, {"pitch": 60, "velocity": 49, "note_on_time": 8.582, "note_off_time": 8.99}, {"pitch": 60, "velocity": 41, "note_on_time": 9.317, "note_off_time": 9.733}, {"pitch": 62, "velocity": 30, "note_on_time": 10.038, "note_off_time": 10.439}, {"pitch": 64, "velocity": 46, "note_on_time": 10.747, "note_off_time": 11.191}, {"pitch": 62, "velocity": 39, "note_on_time": 11.457, "note_off_time": 12.591}, {"pitch": 60, "velocity": 23, "note_on_time": 13.246, "note_off_time": 13.393}, {"pitch": 60, "velocity": 23, "note_on_time": 13.596, "note_off_time": 13.788}, {"pitch": 62, "velocity": 54, "note_on_time": 14.459, "note_off_time": 14.604}, {"pitch": 64, "velocity": 31, "note_on_time": 14.894, "note_off_time": 15.06}, {"pitch": 64, "velocity": 41, "note_on_time": 15.352, "note_off_time": 15.691}, {"pitch": 65, "velocity": 43, "note_on_time": 15.819, "note_off_time": 16.151}, {"pitch": 67, "velocity": 43, "note_on_time": 16.265, "note_off_time": 16.497}, {"pitch": 67, "velocity": 38, "note_on_time": 16.711, "note_off_time": 17.092}, {"pitch": 65, "velocity": 33, "note_on_time": 17.261, "note_off_time": 17.575}, {"pitch": 64, "velocity": 38, "note_on_time": 17.807, "note_off_time": 18.169}, {"pitch": 62, "velocity": 33, "note_on_time": 18.409, "note_off_time": 18.676}, {"pitch": 60, "velocity": 45, "note_on_time": 19.001, "note_off_time": 19.349}, {"pitch": 60, "velocity": 39, "note_on_time": 19.586, "note_off_time": 20.015}, {"pitch": 62, "velocity": 30, "note_on_time": 20.177, "note_off_time": 20.419}, {"pitch": 64, "velocity": 33, "note_on_time": 20.691, "note_off_time": 20.989}, {"pitch": 62, "velocity": 24, "note_on_time": 21.342, "note_off_time": 21.845}, {"pitch": 60, "velocity": 40, "note_on_time": 22.127, "note_off_time": 22.412}, {"pitch": 60, "velocity": 46, "note_on_time": 22.7, "note_off_time": 24.203}]</notes><guidance name="Guidance Mode">None</guidance><error name="Error value">0.7122290999999988</error></trial></trials></MIDI>