<MIDI midiNo="2023_01_29-13_37_20"><target_notes><notes name="Note List">[{"pitch": 39, "velocity": 100, "note_on_time": 0.005, "note_off_time": 0.718}, {"pitch": 42, "velocity": 100, "note_on_time": 0.718, "note_off_time": 1.433}, {"pitch": 42, "velocity": 100, "note_on_time": 1.434, "note_off_time": 2.151}, {"pitch": 42, "velocity": 100, "note_on_time": 2.151, "note_off_time": 2.87}, {"pitch": 60, "velocity": 100, "note_on_time": 2.87, "note_off_time": 3.586}, {"pitch": 39, "velocity": 100, "note_on_time": 2.87, "note_off_time": 3.587}, {"pitch": 65, "velocity": 100, "note_on_time": 3.586, "note_off_time": 4.3}, {"pitch": 42, "velocity": 100, "note_on_time": 3.587, "note_off_time": 4.3}, {"pitch": 64, "velocity": 100, "note_on_time": 4.3, "note_off_time": 5.014}, {"pitch": 42, "velocity": 100, "note_on_time": 4.3, "note_off_time": 5.014}, {"pitch": 65, "velocity": 100, "note_on_time": 5.014, "note_off_time": 5.73}, {"pitch": 42, "velocity": 100, "note_on_time": 5.014, "note_off_time": 5.73}, {"pitch": 67, "velocity": 100, "note_on_time": 5.73, "note_off_time": 6.446}, {"pitch": 39, "velocity": 100, "note_on_time": 5.73, "note_off_time": 6.446}, {"pitch": 62, "velocity": 100, "note_on_time": 6.446, "note_off_time": 7.158}, {"pitch": 42, "velocity": 100, "note_on_time": 6.446, "note_off_time": 7.158}, {"pitch": 42, "velocity": 100, "note_on_time": 7.159, "note_off_time": 7.877}, {"pitch": 67, "velocity": 100, "note_on_time": 7.158, "note_off_time": 8.596}, {"pitch": 42, "velocity": 100, "note_on_time": 7.877, "note_off_time": 8.597}, {"pitch": 65, "velocity": 100, "note_on_time": 8.596, "note_off_time": 9.313}, {"pitch": 39, "velocity": 100, "note_on_time": 8.597, "note_off_time": 9.313}, {"pitch": 64, "velocity": 100, "note_on_time": 9.313, "note_off_time": 10.033}, {"pitch": 42, "velocity": 100, "note_on_time": 9.314, "note_off_time": 10.033}, {"pitch": 62, "velocity": 100, "note_on_time": 10.033, "note_off_time": 10.75}, {"pitch": 42, "velocity": 100, "note_on_time": 10.033, "note_off_time": 10.75}, {"pitch": 64, "velocity": 100, "note_on_time": 10.75, "note_off_time": 11.466}, {"pitch": 42, "velocity": 100, "note_on_time": 10.75, "note_off_time": 11.467}, {"pitch": 39, "velocity": 100, "note_on_time": 11.467, "note_off_time": 12.181}, {"pitch": 42, "velocity": 100, "note_on_time": 12.182, "note_off_time": 12.894}, {"pitch": 42, "velocity": 100, "note_on_time": 12.894, "note_off_time": 13.609}, {"pitch": 65, "velocity": 100, "note_on_time": 11.466, "note_off_time": 14.325}, {"pitch": 42, "velocity": 100, "note_on_time": 13.609, "note_off_time": 14.325}, {"pitch": 60, "velocity": 100, "note_on_time": 14.325, "note_off_time": 15.041}, {"pitch": 39, "velocity": 100, "note_on_time": 14.325, "note_off_time": 15.041}, {"pitch": 65, "velocity": 100, "note_on_time": 15.041, "note_off_time": 15.761}, {"pitch": 42, "velocity": 100, "note_on_time": 15.042, "note_off_time": 15.761}, {"pitch": 64, "velocity": 100, "note_on_time": 15.761, "note_off_time": 16.48}, {"pitch": 42, "velocity": 100, "note_on_time": 15.762, "note_off_time": 16.48}, {"pitch": 65, "velocity": 100, "note_on_time": 16.48, "note_off_time": 17.196}, {"pitch": 42, "velocity": 100, "note_on_time": 16.48, "note_off_time": 17.196}, {"pitch": 67, "velocity": 100, "note_on_time": 17.196, "note_off_time": 17.914}, {"pitch": 39, "velocity": 100, "note_on_time": 17.197, "note_off_time": 17.914}, {"pitch": 62, "velocity": 100, "note_on_time": 17.914, "note_off_time": 18.628}, {"pitch": 42, "velocity": 100, "note_on_time": 17.915, "note_off_time": 18.628}, {"pitch": 42, "velocity": 100, "note_on_time": 18.629, "note_off_time": 19.347}, {"pitch": 67, "velocity": 100, "note_on_time": 18.628, "note_off_time": 20.066}, {"pitch": 42, "velocity": 100, "note_on_time": 19.347, "note_off_time": 20.066}, {"pitch": 65, "velocity": 100, "note_on_time": 20.066, "note_off_time": 20.783}, {"pitch": 39, "velocity": 100, "note_on_time": 20.066, "note_off_time": 20.783}, {"pitch": 64, "velocity": 100, "note_on_time": 20.783, "note_off_time": 21.504}, {"pitch": 42, "velocity": 100, "note_on_time": 20.783, "note_off_time": 21.504}, {"pitch": 62, "velocity": 100, "note_on_time": 21.504, "note_off_time": 22.222}, {"pitch": 42, "velocity": 100, "note_on_time": 21.505, "note_off_time": 22.222}, {"pitch": 64, "velocity": 100, "note_on_time": 22.222, "note_off_time": 22.935}, {"pitch": 42, "velocity": 100, "note_on_time": 22.222, "note_off_time": 22.935}, {"pitch": 39, "velocity": 100, "note_on_time": 22.936, "note_off_time": 23.652}, {"pitch": 42, "velocity": 100, "note_on_time": 23.653, "note_off_time": 24.368}, {"pitch": 42, "velocity": 100, "note_on_time": 24.368, "note_off_time": 25.088}, {"pitch": 65, "velocity": 100, "note_on_time": 22.935, "note_off_time": 25.804}, {"pitch": 42, "velocity": 100, "note_on_time": 25.089, "note_off_time": 25.804}]</notes><options name="Option List">((4, 4), [0.5, 0.25], 3, 7, &lt;NoteRangePerHand.TWO_NOTES: 3&gt;, &lt;NoteRangePerHand.ONE_NOTE: 2&gt;, False, True, True, None)</options></target_notes><trials><trial trial_no="1" timestamp="2023_01_29-13_37_20"><notes name="Played Notes">[{"pitch": 60, "velocity": 43, "note_on_time": 2.857, "note_off_time": 3.563}, {"pitch": 65, "velocity": 44, "note_on_time": 3.568, "note_off_time": 4.267}, {"pitch": 64, "velocity": 44, "note_on_time": 4.263, "note_off_time": 4.964}, {"pitch": 65, "velocity": 46, "note_on_time": 4.978, "note_off_time": 5.739}, {"pitch": 67, "velocity": 48, "note_on_time": 5.708, "note_off_time": 6.451}, {"pitch": 62, "velocity": 36, "note_on_time": 6.438, "note_off_time": 7.141}, {"pitch": 67, "velocity": 41, "note_on_time": 7.141, "note_off_time": 8.53}, {"pitch": 65, "velocity": 38, "note_on_time": 8.567, "note_off_time": 9.259}, {"pitch": 64, "velocity": 39, "note_on_time": 9.253, "note_off_time": 9.933}, {"pitch": 62, "velocity": 27, "note_on_time": 9.969, "note_off_time": 10.724}, {"pitch": 64, "velocity": 41, "note_on_time": 10.697, "note_off_time": 11.378}, {"pitch": 65, "velocity": 40, "note_on_time": 11.392, "note_off_time": 14.302}, {"pitch": 60, "velocity": 37, "note_on_time": 14.311, "note_off_time": 15.017}, {"pitch": 65, "velocity": 31, "note_on_time": 15.023, "note_off_time": 15.698}, {"pitch": 64, "velocity": 38, "note_on_time": 15.678, "note_off_time": 16.358}, {"pitch": 65, "velocity": 45, "note_on_time": 16.358, "note_off_time": 17.101}, {"pitch": 67, "velocity": 45, "note_on_time": 17.07, "note_off_time": 17.849}, {"pitch": 62, "velocity": 40, "note_on_time": 17.759, "note_off_time": 18.485}, {"pitch": 67, "velocity": 45, "note_on_time": 18.46, "note_off_time": 20.037}, {"pitch": 65, "velocity": 36, "note_on_time": 20.086, "note_off_time": 20.773}, {"pitch": 64, "velocity": 42, "note_on_time": 20.772, "note_off_time": 21.448}, {"pitch": 62, "velocity": 29, "note_on_time": 21.469, "note_off_time": 22.233}, {"pitch": 64, "velocity": 32, "note_on_time": 22.199, "note_off_time": 22.924}, {"pitch": 65, "velocity": 33, "note_on_time": 22.951, "note_off_time": 25.457}]</notes><guidance name="Guidance Mode">None</guidance><error name="Error value">0.05618933333333274</error></trial></trials></MIDI>