<MIDI midiNo="2023_01_29-12_57_59"><target_notes><notes name="Note List">[{"pitch": 39, "velocity": 100, "note_on_time": 0.005, "note_off_time": 0.725}, {"pitch": 42, "velocity": 100, "note_on_time": 0.726, "note_off_time": 1.438}, {"pitch": 42, "velocity": 100, "note_on_time": 1.438, "note_off_time": 2.152}, {"pitch": 42, "velocity": 100, "note_on_time": 2.153, "note_off_time": 2.867}, {"pitch": 39, "velocity": 100, "note_on_time": 2.867, "note_off_time": 3.584}, {"pitch": 42, "velocity": 100, "note_on_time": 3.584, "note_off_time": 4.302}, {"pitch": 42, "velocity": 100, "note_on_time": 4.302, "note_off_time": 5.017}, {"pitch": 60, "velocity": 100, "note_on_time": 2.867, "note_off_time": 5.735}, {"pitch": 42, "velocity": 100, "note_on_time": 5.017, "note_off_time": 5.735}, {"pitch": 39, "velocity": 100, "note_on_time": 5.735, "note_off_time": 6.442}, {"pitch": 42, "velocity": 100, "note_on_time": 6.442, "note_off_time": 7.157}, {"pitch": 42, "velocity": 100, "note_on_time": 7.158, "note_off_time": 7.872}, {"pitch": 62, "velocity": 100, "note_on_time": 5.735, "note_off_time": 8.586}, {"pitch": 42, "velocity": 100, "note_on_time": 7.872, "note_off_time": 8.586}, {"pitch": 39, "velocity": 100, "note_on_time": 8.586, "note_off_time": 9.304}, {"pitch": 60, "velocity": 100, "note_on_time": 8.586, "note_off_time": 10.019}, {"pitch": 42, "velocity": 100, "note_on_time": 9.305, "note_off_time": 10.019}, {"pitch": 42, "velocity": 100, "note_on_time": 10.02, "note_off_time": 10.735}, {"pitch": 62, "velocity": 100, "note_on_time": 10.019, "note_off_time": 11.45}, {"pitch": 42, "velocity": 100, "note_on_time": 10.735, "note_off_time": 11.45}, {"pitch": 39, "velocity": 100, "note_on_time": 11.45, "note_off_time": 12.166}, {"pitch": 60, "velocity": 100, "note_on_time": 11.45, "note_off_time": 12.881}, {"pitch": 42, "velocity": 100, "note_on_time": 12.166, "note_off_time": 12.881}, {"pitch": 42, "velocity": 100, "note_on_time": 12.882, "note_off_time": 13.597}, {"pitch": 62, "velocity": 100, "note_on_time": 12.881, "note_off_time": 14.313}, {"pitch": 42, "velocity": 100, "note_on_time": 13.597, "note_off_time": 14.314}, {"pitch": 60, "velocity": 100, "note_on_time": 14.313, "note_off_time": 15.031}, {"pitch": 39, "velocity": 100, "note_on_time": 14.314, "note_off_time": 15.031}, {"pitch": 62, "velocity": 100, "note_on_time": 15.031, "note_off_time": 15.746}, {"pitch": 42, "velocity": 100, "note_on_time": 15.031, "note_off_time": 15.746}, {"pitch": 60, "velocity": 100, "note_on_time": 15.746, "note_off_time": 16.466}, {"pitch": 42, "velocity": 100, "note_on_time": 15.747, "note_off_time": 16.467}, {"pitch": 62, "velocity": 100, "note_on_time": 16.466, "note_off_time": 17.182}, {"pitch": 42, "velocity": 100, "note_on_time": 16.467, "note_off_time": 17.182}, {"pitch": 60, "velocity": 100, "note_on_time": 17.182, "note_off_time": 17.897}, {"pitch": 39, "velocity": 100, "note_on_time": 17.182, "note_off_time": 17.897}, {"pitch": 62, "velocity": 100, "note_on_time": 17.897, "note_off_time": 18.612}, {"pitch": 42, "velocity": 100, "note_on_time": 17.898, "note_off_time": 18.613}, {"pitch": 60, "velocity": 100, "note_on_time": 18.612, "note_off_time": 19.331}, {"pitch": 42, "velocity": 100, "note_on_time": 18.613, "note_off_time": 19.331}, {"pitch": 62, "velocity": 100, "note_on_time": 19.331, "note_off_time": 20.047}, {"pitch": 42, "velocity": 100, "note_on_time": 19.331, "note_off_time": 20.047}, {"pitch": 60, "velocity": 100, "note_on_time": 20.047, "note_off_time": 20.761}, {"pitch": 39, "velocity": 100, "note_on_time": 20.048, "note_off_time": 20.761}, {"pitch": 60, "velocity": 100, "note_on_time": 20.761, "note_off_time": 21.48}, {"pitch": 42, "velocity": 100, "note_on_time": 20.761, "note_off_time": 21.48}, {"pitch": 60, "velocity": 100, "note_on_time": 21.48, "note_off_time": 22.194}, {"pitch": 42, "velocity": 100, "note_on_time": 21.48, "note_off_time": 22.194}, {"pitch": 60, "velocity": 100, "note_on_time": 22.194, "note_off_time": 22.914}, {"pitch": 42, "velocity": 100, "note_on_time": 22.194, "note_off_time": 22.914}, {"pitch": 60, "velocity": 100, "note_on_time": 22.914, "note_off_time": 23.629}, {"pitch": 39, "velocity": 100, "note_on_time": 22.914, "note_off_time": 23.629}, {"pitch": 60, "velocity": 100, "note_on_time": 23.629, "note_off_time": 24.346}, {"pitch": 42, "velocity": 100, "note_on_time": 23.629, "note_off_time": 24.346}, {"pitch": 60, "velocity": 100, "note_on_time": 24.346, "note_off_time": 25.065}, {"pitch": 42, "velocity": 100, "note_on_time": 24.346, "note_off_time": 25.065}, {"pitch": 60, "velocity": 100, "note_on_time": 25.065, "note_off_time": 25.78}, {"pitch": 42, "velocity": 100, "note_on_time": 25.065, "note_off_time": 25.781}]</notes><options name="Option List">((4, 4), [0.5, 0.25], 3, 7, &lt;NoteRangePerHand.TWO_NOTES: 3&gt;, &lt;NoteRangePerHand.ONE_NOTE: 2&gt;, False, True, True, None)</options></target_notes><trials><trial trial_no="1" timestamp="2023_01_29-12_57_59"><notes name="Played Notes">[{"pitch": 60, "velocity": 74, "note_on_time": 2.908, "note_off_time": 5.354}, {"pitch": 62, "velocity": 85, "note_on_time": 5.681, "note_off_time": 8.504}, {"pitch": 60, "velocity": 76, "note_on_time": 8.551, "note_off_time": 9.98}, {"pitch": 62, "velocity": 64, "note_on_time": 9.978, "note_off_time": 11.412}, {"pitch": 60, "velocity": 66, "note_on_time": 11.398, "note_off_time": 12.883}, {"pitch": 62, "velocity": 65, "note_on_time": 12.868, "note_off_time": 14.348}, {"pitch": 60, "velocity": 61, "note_on_time": 14.317, "note_off_time": 15.038}, {"pitch": 62, "velocity": 61, "note_on_time": 14.996, "note_off_time": 15.679}, {"pitch": 60, "velocity": 61, "note_on_time": 15.647, "note_off_time": 16.349}, {"pitch": 62, "velocity": 63, "note_on_time": 16.329, "note_off_time": 17.071}, {"pitch": 60, "velocity": 55, "note_on_time": 17.046, "note_off_time": 17.78}, {"pitch": 62, "velocity": 60, "note_on_time": 17.749, "note_off_time": 18.431}, {"pitch": 60, "velocity": 57, "note_on_time": 18.417, "note_off_time": 19.231}, {"pitch": 62, "velocity": 64, "note_on_time": 19.205, "note_off_time": 19.979}, {"pitch": 60, "velocity": 67, "note_on_time": 19.945, "note_off_time": 20.661}, {"pitch": 62, "velocity": 62, "note_on_time": 20.643, "note_off_time": 21.331}, {"pitch": 60, "velocity": 55, "note_on_time": 21.316, "note_off_time": 22.094}, {"pitch": 62, "velocity": 57, "note_on_time": 22.072, "note_off_time": 22.847}, {"pitch": 60, "velocity": 56, "note_on_time": 22.827, "note_off_time": 23.478}, {"pitch": 60, "velocity": 56, "note_on_time": 23.615, "note_off_time": 24.138}, {"pitch": 60, "velocity": 64, "note_on_time": 24.337, "note_off_time": 24.832}, {"pitch": 60, "velocity": 56, "note_on_time": 25.106, "note_off_time": 25.546}]</notes><guidance name="Guidance Mode">None</guidance><error name="Error value">0.1421823636363641</error></trial></trials></MIDI>