<MIDI midiNo="2023_01_29-13_49_37"><target_notes><notes name="Note List">[{"pitch": 39, "velocity": 100, "note_on_time": 0.005, "note_off_time": 0.72}, {"pitch": 42, "velocity": 100, "note_on_time": 0.721, "note_off_time": 1.44}, {"pitch": 42, "velocity": 100, "note_on_time": 1.44, "note_off_time": 2.154}, {"pitch": 42, "velocity": 100, "note_on_time": 2.154, "note_off_time": 2.869}, {"pitch": 39, "velocity": 100, "note_on_time": 2.869, "note_off_time": 3.588}, {"pitch": 42, "velocity": 100, "note_on_time": 3.588, "note_off_time": 4.302}, {"pitch": 42, "velocity": 100, "note_on_time": 4.303, "note_off_time": 5.019}, {"pitch": 67, "velocity": 100, "note_on_time": 5.378, "note_off_time": 5.736}, {"pitch": 42, "velocity": 100, "note_on_time": 5.019, "note_off_time": 5.737}, {"pitch": 74, "velocity": 100, "note_on_time": 5.736, "note_off_time": 6.451}, {"pitch": 39, "velocity": 100, "note_on_time": 5.737, "note_off_time": 6.451}, {"pitch": 71, "velocity": 100, "note_on_time": 6.451, "note_off_time": 6.807}, {"pitch": 67, "velocity": 100, "note_on_time": 6.807, "note_off_time": 7.165}, {"pitch": 42, "velocity": 100, "note_on_time": 6.451, "note_off_time": 7.165}, {"pitch": 74, "velocity": 100, "note_on_time": 7.165, "note_off_time": 7.884}, {"pitch": 42, "velocity": 100, "note_on_time": 7.165, "note_off_time": 7.884}, {"pitch": 71, "velocity": 100, "note_on_time": 7.884, "note_off_time": 8.244}, {"pitch": 67, "velocity": 100, "note_on_time": 8.244, "note_off_time": 8.601}, {"pitch": 42, "velocity": 100, "note_on_time": 7.884, "note_off_time": 8.601}, {"pitch": 74, "velocity": 100, "note_on_time": 8.601, "note_off_time": 8.962}, {"pitch": 74, "velocity": 100, "note_on_time": 8.962, "note_off_time": 9.32}, {"pitch": 39, "velocity": 100, "note_on_time": 8.602, "note_off_time": 9.32}, {"pitch": 76, "velocity": 100, "note_on_time": 9.32, "note_off_time": 9.678}, {"pitch": 76, "velocity": 100, "note_on_time": 9.678, "note_off_time": 10.035}, {"pitch": 42, "velocity": 100, "note_on_time": 9.32, "note_off_time": 10.036}, {"pitch": 74, "velocity": 100, "note_on_time": 10.035, "note_off_time": 10.753}, {"pitch": 42, "velocity": 100, "note_on_time": 10.036, "note_off_time": 10.753}, {"pitch": 71, "velocity": 100, "note_on_time": 10.753, "note_off_time": 11.109}, {"pitch": 67, "velocity": 100, "note_on_time": 11.109, "note_off_time": 11.468}, {"pitch": 42, "velocity": 100, "note_on_time": 10.753, "note_off_time": 11.468}, {"pitch": 74, "velocity": 100, "note_on_time": 11.468, "note_off_time": 11.825}, {"pitch": 74, "velocity": 100, "note_on_time": 11.825, "note_off_time": 12.183}, {"pitch": 39, "velocity": 100, "note_on_time": 11.468, "note_off_time": 12.183}, {"pitch": 71, "velocity": 100, "note_on_time": 12.183, "note_off_time": 12.54}, {"pitch": 67, "velocity": 100, "note_on_time": 12.54, "note_off_time": 12.899}, {"pitch": 42, "velocity": 100, "note_on_time": 12.183, "note_off_time": 12.899}, {"pitch": 74, "velocity": 100, "note_on_time": 12.899, "note_off_time": 13.257}, {"pitch": 74, "velocity": 100, "note_on_time": 13.257, "note_off_time": 13.614}, {"pitch": 42, "velocity": 100, "note_on_time": 12.899, "note_off_time": 13.615}, {"pitch": 71, "velocity": 100, "note_on_time": 13.614, "note_off_time": 13.971}, {"pitch": 67, "velocity": 100, "note_on_time": 13.971, "note_off_time": 14.328}, {"pitch": 42, "velocity": 100, "note_on_time": 13.615, "note_off_time": 14.328}, {"pitch": 74, "velocity": 100, "note_on_time": 14.328, "note_off_time": 14.686}, {"pitch": 74, "velocity": 100, "note_on_time": 14.686, "note_off_time": 15.042}, {"pitch": 39, "velocity": 100, "note_on_time": 14.329, "note_off_time": 15.042}, {"pitch": 76, "velocity": 100, "note_on_time": 15.042, "note_off_time": 15.401}, {"pitch": 76, "velocity": 100, "note_on_time": 15.401, "note_off_time": 15.76}, {"pitch": 42, "velocity": 100, "note_on_time": 15.042, "note_off_time": 15.76}, {"pitch": 74, "velocity": 100, "note_on_time": 15.76, "note_off_time": 16.48}, {"pitch": 42, "velocity": 100, "note_on_time": 15.76, "note_off_time": 16.48}, {"pitch": 71, "velocity": 100, "note_on_time": 16.48, "note_off_time": 16.839}, {"pitch": 42, "velocity": 100, "note_on_time": 16.48, "note_off_time": 17.195}]</notes><options name="Option List">((4, 4), [0.5, 0.25], 3, 7, &lt;NoteRangePerHand.TWO_NOTES: 3&gt;, &lt;NoteRangePerHand.ONE_NOTE: 2&gt;, False, True, True, None)</options></target_notes><trials><trial trial_no="1" timestamp="2023_01_29-13_49_37"><notes name="Played Notes">[{"pitch": 67, "velocity": 46, "note_on_time": 5.047, "note_off_time": 5.735}, {"pitch": 74, "velocity": 57, "note_on_time": 5.714, "note_off_time": 7.103}, {"pitch": 71, "velocity": 66, "note_on_time": 6.974, "note_off_time": 7.572}, {"pitch": 67, "velocity": 55, "note_on_time": 7.558, "note_off_time": 8.181}, {"pitch": 74, "velocity": 50, "note_on_time": 8.181, "note_off_time": 9.14}, {"pitch": 71, "velocity": 60, "note_on_time": 9.113, "note_off_time": 9.641}, {"pitch": 67, "velocity": 49, "note_on_time": 9.629, "note_off_time": 10.154}, {"pitch": 74, "velocity": 56, "note_on_time": 10.161, "note_off_time": 10.47}, {"pitch": 74, "velocity": 48, "note_on_time": 10.645, "note_off_time": 11.009}, {"pitch": 76, "velocity": 38, "note_on_time": 11.206, "note_off_time": 11.39}, {"pitch": 76, "velocity": 50, "note_on_time": 11.701, "note_off_time": 12.132}, {"pitch": 74, "velocity": 30, "note_on_time": 12.249, "note_off_time": 13.256}, {"pitch": 71, "velocity": 52, "note_on_time": 13.121, "note_off_time": 13.671}, {"pitch": 67, "velocity": 60, "note_on_time": 13.638, "note_off_time": 14.248}, {"pitch": 74, "velocity": 33, "note_on_time": 14.272, "note_off_time": 14.835}, {"pitch": 74, "velocity": 57, "note_on_time": 15.007, "note_off_time": 15.533}, {"pitch": 71, "velocity": 64, "note_on_time": 16.185, "note_off_time": 16.666}]</notes><guidance name="Guidance Mode">None</guidance><error name="Error value">1.1084129369747897</error></trial></trials></MIDI>