<MIDI midiNo="2023_01_29-12_54_17"><target_notes><notes name="Note List">[{"pitch": 39, "velocity": 100, "note_on_time": 0.005, "note_off_time": 0.716}, {"pitch": 42, "velocity": 100, "note_on_time": 0.717, "note_off_time": 1.437}, {"pitch": 42, "velocity": 100, "note_on_time": 1.437, "note_off_time": 2.149}, {"pitch": 42, "velocity": 100, "note_on_time": 2.149, "note_off_time": 2.865}, {"pitch": 39, "velocity": 100, "note_on_time": 2.865, "note_off_time": 3.58}, {"pitch": 42, "velocity": 100, "note_on_time": 3.58, "note_off_time": 4.299}, {"pitch": 42, "velocity": 100, "note_on_time": 4.299, "note_off_time": 5.016}, {"pitch": 60, "velocity": 100, "note_on_time": 2.865, "note_off_time": 5.733}, {"pitch": 42, "velocity": 100, "note_on_time": 5.016, "note_off_time": 5.733}, {"pitch": 39, "velocity": 100, "note_on_time": 5.733, "note_off_time": 6.447}, {"pitch": 42, "velocity": 100, "note_on_time": 6.447, "note_off_time": 7.167}, {"pitch": 42, "velocity": 100, "note_on_time": 7.167, "note_off_time": 7.881}, {"pitch": 62, "velocity": 100, "note_on_time": 5.733, "note_off_time": 8.597}, {"pitch": 42, "velocity": 100, "note_on_time": 7.881, "note_off_time": 8.597}, {"pitch": 39, "velocity": 100, "note_on_time": 8.597, "note_off_time": 9.31}, {"pitch": 60, "velocity": 100, "note_on_time": 8.597, "note_off_time": 10.024}, {"pitch": 42, "velocity": 100, "note_on_time": 9.311, "note_off_time": 10.024}, {"pitch": 42, "velocity": 100, "note_on_time": 10.025, "note_off_time": 10.741}, {"pitch": 62, "velocity": 100, "note_on_time": 10.024, "note_off_time": 11.458}, {"pitch": 42, "velocity": 100, "note_on_time": 10.741, "note_off_time": 11.458}, {"pitch": 39, "velocity": 100, "note_on_time": 11.458, "note_off_time": 12.173}, {"pitch": 60, "velocity": 100, "note_on_time": 11.458, "note_off_time": 12.887}, {"pitch": 42, "velocity": 100, "note_on_time": 12.174, "note_off_time": 12.887}, {"pitch": 42, "velocity": 100, "note_on_time": 12.887, "note_off_time": 13.602}, {"pitch": 62, "velocity": 100, "note_on_time": 12.887, "note_off_time": 14.318}, {"pitch": 42, "velocity": 100, "note_on_time": 13.602, "note_off_time": 14.318}, {"pitch": 60, "velocity": 100, "note_on_time": 14.318, "note_off_time": 15.032}, {"pitch": 39, "velocity": 100, "note_on_time": 14.318, "note_off_time": 15.032}, {"pitch": 62, "velocity": 100, "note_on_time": 15.032, "note_off_time": 15.747}, {"pitch": 42, "velocity": 100, "note_on_time": 15.033, "note_off_time": 15.748}, {"pitch": 60, "velocity": 100, "note_on_time": 15.747, "note_off_time": 16.465}, {"pitch": 42, "velocity": 100, "note_on_time": 15.748, "note_off_time": 16.465}, {"pitch": 62, "velocity": 100, "note_on_time": 16.465, "note_off_time": 17.18}, {"pitch": 42, "velocity": 100, "note_on_time": 16.466, "note_off_time": 17.18}, {"pitch": 60, "velocity": 100, "note_on_time": 17.18, "note_off_time": 17.897}, {"pitch": 39, "velocity": 100, "note_on_time": 17.18, "note_off_time": 17.897}, {"pitch": 62, "velocity": 100, "note_on_time": 17.897, "note_off_time": 18.61}, {"pitch": 42, "velocity": 100, "note_on_time": 17.898, "note_off_time": 18.61}, {"pitch": 60, "velocity": 100, "note_on_time": 18.61, "note_off_time": 19.325}, {"pitch": 42, "velocity": 100, "note_on_time": 18.61, "note_off_time": 19.325}, {"pitch": 62, "velocity": 100, "note_on_time": 19.325, "note_off_time": 20.041}, {"pitch": 42, "velocity": 100, "note_on_time": 19.325, "note_off_time": 20.042}, {"pitch": 60, "velocity": 100, "note_on_time": 20.041, "note_off_time": 20.757}, {"pitch": 39, "velocity": 100, "note_on_time": 20.042, "note_off_time": 20.757}, {"pitch": 60, "velocity": 100, "note_on_time": 20.757, "note_off_time": 21.471}, {"pitch": 42, "velocity": 100, "note_on_time": 20.757, "note_off_time": 21.471}, {"pitch": 60, "velocity": 100, "note_on_time": 21.471, "note_off_time": 22.186}, {"pitch": 42, "velocity": 100, "note_on_time": 21.472, "note_off_time": 22.186}, {"pitch": 60, "velocity": 100, "note_on_time": 22.186, "note_off_time": 22.904}, {"pitch": 42, "velocity": 100, "note_on_time": 22.187, "note_off_time": 22.904}, {"pitch": 60, "velocity": 100, "note_on_time": 22.904, "note_off_time": 23.622}, {"pitch": 39, "velocity": 100, "note_on_time": 22.905, "note_off_time": 23.622}, {"pitch": 60, "velocity": 100, "note_on_time": 23.622, "note_off_time": 24.341}, {"pitch": 42, "velocity": 100, "note_on_time": 23.623, "note_off_time": 24.341}, {"pitch": 60, "velocity": 100, "note_on_time": 24.341, "note_off_time": 25.056}, {"pitch": 42, "velocity": 100, "note_on_time": 24.341, "note_off_time": 25.056}, {"pitch": 60, "velocity": 100, "note_on_time": 25.056, "note_off_time": 25.773}, {"pitch": 42, "velocity": 100, "note_on_time": 25.056, "note_off_time": 25.773}]</notes><options name="Option List">((4, 4), [0.5, 0.25], 3, 7, &lt;NoteRangePerHand.TWO_NOTES: 3&gt;, &lt;NoteRangePerHand.ONE_NOTE: 2&gt;, False, True, True, None)</options></target_notes><trials><trial trial_no="1" timestamp="2023_01_29-12_54_17"><notes name="Played Notes">[{"pitch": 60, "velocity": 76, "note_on_time": 5.724, "note_off_time": 8.513}, {"pitch": 62, "velocity": 58, "note_on_time": 8.493, "note_off_time": 11.461}, {"pitch": 60, "velocity": 67, "note_on_time": 11.432, "note_off_time": 12.992}, {"pitch": 62, "velocity": 68, "note_on_time": 12.905, "note_off_time": 15.062}, {"pitch": 60, "velocity": 46, "note_on_time": 15.073, "note_off_time": 16.28}]</notes><guidance name="Guidance Mode">None</guidance><error name="Error value">1.4823305818181813</error></trial></trials></MIDI>