<MIDI midiNo="2023_01_29-12_52_10"><target_notes><notes name="Note List">[{"pitch": 39, "velocity": 100, "note_on_time": 0.005, "note_off_time": 0.718}, {"pitch": 42, "velocity": 100, "note_on_time": 0.718, "note_off_time": 1.434}, {"pitch": 42, "velocity": 100, "note_on_time": 1.434, "note_off_time": 2.15}, {"pitch": 42, "velocity": 100, "note_on_time": 2.151, "note_off_time": 2.866}, {"pitch": 39, "velocity": 100, "note_on_time": 2.866, "note_off_time": 3.584}, {"pitch": 42, "velocity": 100, "note_on_time": 3.584, "note_off_time": 4.297}, {"pitch": 42, "velocity": 100, "note_on_time": 4.297, "note_off_time": 5.016}, {"pitch": 60, "velocity": 100, "note_on_time": 2.865, "note_off_time": 5.731}, {"pitch": 42, "velocity": 100, "note_on_time": 5.017, "note_off_time": 5.731}, {"pitch": 39, "velocity": 100, "note_on_time": 5.732, "note_off_time": 6.448}, {"pitch": 42, "velocity": 100, "note_on_time": 6.448, "note_off_time": 7.165}, {"pitch": 42, "velocity": 100, "note_on_time": 7.166, "note_off_time": 7.882}, {"pitch": 62, "velocity": 100, "note_on_time": 5.731, "note_off_time": 8.599}, {"pitch": 42, "velocity": 100, "note_on_time": 7.882, "note_off_time": 8.599}, {"pitch": 39, "velocity": 100, "note_on_time": 8.6, "note_off_time": 9.314}, {"pitch": 60, "velocity": 100, "note_on_time": 8.599, "note_off_time": 10.029}, {"pitch": 42, "velocity": 100, "note_on_time": 9.315, "note_off_time": 10.03}, {"pitch": 42, "velocity": 100, "note_on_time": 10.03, "note_off_time": 10.75}, {"pitch": 62, "velocity": 100, "note_on_time": 10.029, "note_off_time": 11.465}, {"pitch": 42, "velocity": 100, "note_on_time": 10.75, "note_off_time": 11.465}, {"pitch": 39, "velocity": 100, "note_on_time": 11.465, "note_off_time": 12.184}, {"pitch": 60, "velocity": 100, "note_on_time": 11.465, "note_off_time": 12.899}, {"pitch": 42, "velocity": 100, "note_on_time": 12.184, "note_off_time": 12.9}, {"pitch": 42, "velocity": 100, "note_on_time": 12.9, "note_off_time": 13.621}, {"pitch": 62, "velocity": 100, "note_on_time": 12.899, "note_off_time": 14.34}, {"pitch": 42, "velocity": 100, "note_on_time": 13.621, "note_off_time": 14.34}, {"pitch": 60, "velocity": 100, "note_on_time": 14.34, "note_off_time": 15.053}, {"pitch": 39, "velocity": 100, "note_on_time": 14.34, "note_off_time": 15.053}, {"pitch": 62, "velocity": 100, "note_on_time": 15.053, "note_off_time": 15.768}, {"pitch": 42, "velocity": 100, "note_on_time": 15.054, "note_off_time": 15.769}, {"pitch": 60, "velocity": 100, "note_on_time": 15.768, "note_off_time": 16.485}, {"pitch": 42, "velocity": 100, "note_on_time": 15.769, "note_off_time": 16.486}, {"pitch": 62, "velocity": 100, "note_on_time": 16.485, "note_off_time": 17.2}, {"pitch": 42, "velocity": 100, "note_on_time": 16.486, "note_off_time": 17.2}, {"pitch": 60, "velocity": 100, "note_on_time": 17.2, "note_off_time": 17.919}, {"pitch": 39, "velocity": 100, "note_on_time": 17.201, "note_off_time": 17.92}, {"pitch": 62, "velocity": 100, "note_on_time": 17.919, "note_off_time": 18.632}, {"pitch": 42, "velocity": 100, "note_on_time": 17.92, "note_off_time": 18.632}, {"pitch": 60, "velocity": 100, "note_on_time": 18.632, "note_off_time": 19.348}, {"pitch": 42, "velocity": 100, "note_on_time": 18.632, "note_off_time": 19.349}, {"pitch": 62, "velocity": 100, "note_on_time": 19.348, "note_off_time": 20.066}, {"pitch": 42, "velocity": 100, "note_on_time": 19.349, "note_off_time": 20.066}, {"pitch": 60, "velocity": 100, "note_on_time": 20.066, "note_off_time": 20.783}, {"pitch": 39, "velocity": 100, "note_on_time": 20.066, "note_off_time": 20.784}, {"pitch": 60, "velocity": 100, "note_on_time": 20.783, "note_off_time": 21.503}, {"pitch": 42, "velocity": 100, "note_on_time": 20.784, "note_off_time": 21.503}, {"pitch": 60, "velocity": 100, "note_on_time": 21.503, "note_off_time": 22.219}, {"pitch": 42, "velocity": 100, "note_on_time": 21.503, "note_off_time": 22.22}, {"pitch": 60, "velocity": 100, "note_on_time": 22.219, "note_off_time": 22.936}, {"pitch": 42, "velocity": 100, "note_on_time": 22.22, "note_off_time": 22.937}, {"pitch": 60, "velocity": 100, "note_on_time": 22.936, "note_off_time": 23.651}, {"pitch": 39, "velocity": 100, "note_on_time": 22.937, "note_off_time": 23.652}, {"pitch": 60, "velocity": 100, "note_on_time": 23.651, "note_off_time": 24.364}, {"pitch": 42, "velocity": 100, "note_on_time": 23.652, "note_off_time": 24.364}, {"pitch": 60, "velocity": 100, "note_on_time": 24.364, "note_off_time": 25.081}, {"pitch": 42, "velocity": 100, "note_on_time": 24.365, "note_off_time": 25.081}, {"pitch": 60, "velocity": 100, "note_on_time": 25.081, "note_off_time": 25.799}, {"pitch": 42, "velocity": 100, "note_on_time": 25.081, "note_off_time": 25.799}]</notes><options name="Option List">((4, 4), [0.5, 0.25], 3, 7, &lt;NoteRangePerHand.TWO_NOTES: 3&gt;, &lt;NoteRangePerHand.ONE_NOTE: 2&gt;, False, True, True, None)</options></target_notes><trials><trial trial_no="1" timestamp="2023_01_29-12_52_10"><notes name="Played Notes">[{"pitch": 60, "velocity": 46, "note_on_time": 18.637, "note_off_time": 18.739}, {"pitch": 55, "velocity": 25, "note_on_time": 18.871, "note_off_time": 18.977}, {"pitch": 58, "velocity": 36, "note_on_time": 19.022, "note_off_time": 19.191}, {"pitch": 53, "velocity": 9, "note_on_time": 19.285, "note_off_time": 19.373}, {"pitch": 58, "velocity": 40, "note_on_time": 19.387, "note_off_time": 19.603}, {"pitch": 55, "velocity": 8, "note_on_time": 19.676, "note_off_time": 19.755}, {"pitch": 48, "velocity": 42, "note_on_time": 22.059, "note_off_time": 22.126}, {"pitch": 51, "velocity": 54, "note_on_time": 22.193, "note_off_time": 22.301}, {"pitch": 53, "velocity": 68, "note_on_time": 22.34, "note_off_time": 22.425}, {"pitch": 55, "velocity": 57, "note_on_time": 22.476, "note_off_time": 22.588}, {"pitch": 53, "velocity": 51, "note_on_time": 22.609, "note_off_time": 22.712}, {"pitch": 51, "velocity": 40, "note_on_time": 22.729, "note_off_time": 22.825}, {"pitch": 48, "velocity": 41, "note_on_time": 22.909, "note_off_time": 22.968}, {"pitch": 53, "velocity": 61, "note_on_time": 22.992, "note_off_time": 23.106}, {"pitch": 51, "velocity": 49, "note_on_time": 23.24, "note_off_time": 23.321}, {"pitch": 52, "velocity": 60, "note_on_time": 23.366, "note_off_time": 23.43}]</notes><guidance name="Guidance Mode">None</guidance><error name="Error value">1.8924088272727266</error></trial></trials></MIDI>