<MIDI midiNo="2023_01_29-13_56_34"><target_notes><notes name="Note List">[{"pitch": 39, "velocity": 100, "note_on_time": 0.005, "note_off_time": 0.8}, {"pitch": 42, "velocity": 100, "note_on_time": 0.801, "note_off_time": 1.594}, {"pitch": 42, "velocity": 100, "note_on_time": 1.594, "note_off_time": 2.387}, {"pitch": 42, "velocity": 100, "note_on_time": 2.387, "note_off_time": 3.193}, {"pitch": 39, "velocity": 100, "note_on_time": 3.193, "note_off_time": 3.984}, {"pitch": 42, "velocity": 100, "note_on_time": 3.984, "note_off_time": 4.777}, {"pitch": 42, "velocity": 100, "note_on_time": 4.778, "note_off_time": 5.573}, {"pitch": 67, "velocity": 100, "note_on_time": 5.977, "note_off_time": 6.382}, {"pitch": 42, "velocity": 100, "note_on_time": 5.573, "note_off_time": 6.382}, {"pitch": 74, "velocity": 100, "note_on_time": 6.382, "note_off_time": 7.179}, {"pitch": 39, "velocity": 100, "note_on_time": 6.382, "note_off_time": 7.179}, {"pitch": 71, "velocity": 100, "note_on_time": 7.179, "note_off_time": 7.582}, {"pitch": 67, "velocity": 100, "note_on_time": 7.582, "note_off_time": 7.988}, {"pitch": 42, "velocity": 100, "note_on_time": 7.179, "note_off_time": 7.989}, {"pitch": 74, "velocity": 100, "note_on_time": 7.988, "note_off_time": 8.794}, {"pitch": 42, "velocity": 100, "note_on_time": 7.989, "note_off_time": 8.794}, {"pitch": 71, "velocity": 100, "note_on_time": 8.794, "note_off_time": 9.196}, {"pitch": 67, "velocity": 100, "note_on_time": 9.196, "note_off_time": 9.601}, {"pitch": 42, "velocity": 100, "note_on_time": 8.794, "note_off_time": 9.601}, {"pitch": 74, "velocity": 100, "note_on_time": 9.601, "note_off_time": 10.006}, {"pitch": 74, "velocity": 100, "note_on_time": 10.006, "note_off_time": 10.41}, {"pitch": 39, "velocity": 100, "note_on_time": 9.601, "note_off_time": 10.41}, {"pitch": 76, "velocity": 100, "note_on_time": 10.41, "note_off_time": 10.814}, {"pitch": 76, "velocity": 100, "note_on_time": 10.814, "note_off_time": 11.221}, {"pitch": 42, "velocity": 100, "note_on_time": 10.411, "note_off_time": 11.221}, {"pitch": 74, "velocity": 100, "note_on_time": 11.221, "note_off_time": 12.017}, {"pitch": 42, "velocity": 100, "note_on_time": 11.221, "note_off_time": 12.017}, {"pitch": 71, "velocity": 100, "note_on_time": 12.017, "note_off_time": 12.421}, {"pitch": 67, "velocity": 100, "note_on_time": 12.421, "note_off_time": 12.829}, {"pitch": 42, "velocity": 100, "note_on_time": 12.017, "note_off_time": 12.83}, {"pitch": 74, "velocity": 100, "note_on_time": 12.829, "note_off_time": 13.235}, {"pitch": 74, "velocity": 100, "note_on_time": 13.235, "note_off_time": 13.64}, {"pitch": 39, "velocity": 100, "note_on_time": 12.83, "note_off_time": 13.64}, {"pitch": 71, "velocity": 100, "note_on_time": 13.64, "note_off_time": 14.046}, {"pitch": 67, "velocity": 100, "note_on_time": 14.046, "note_off_time": 14.451}, {"pitch": 42, "velocity": 100, "note_on_time": 13.641, "note_off_time": 14.451}, {"pitch": 74, "velocity": 100, "note_on_time": 14.451, "note_off_time": 14.858}, {"pitch": 74, "velocity": 100, "note_on_time": 14.858, "note_off_time": 15.263}, {"pitch": 42, "velocity": 100, "note_on_time": 14.451, "note_off_time": 15.263}, {"pitch": 71, "velocity": 100, "note_on_time": 15.263, "note_off_time": 15.667}, {"pitch": 67, "velocity": 100, "note_on_time": 15.667, "note_off_time": 16.072}, {"pitch": 42, "velocity": 100, "note_on_time": 15.263, "note_off_time": 16.072}, {"pitch": 74, "velocity": 100, "note_on_time": 16.072, "note_off_time": 16.478}, {"pitch": 74, "velocity": 100, "note_on_time": 16.478, "note_off_time": 16.882}, {"pitch": 39, "velocity": 100, "note_on_time": 16.072, "note_off_time": 16.883}, {"pitch": 76, "velocity": 100, "note_on_time": 16.882, "note_off_time": 17.289}, {"pitch": 76, "velocity": 100, "note_on_time": 17.289, "note_off_time": 17.692}, {"pitch": 42, "velocity": 100, "note_on_time": 16.883, "note_off_time": 17.693}, {"pitch": 74, "velocity": 100, "note_on_time": 17.692, "note_off_time": 18.492}, {"pitch": 42, "velocity": 100, "note_on_time": 17.693, "note_off_time": 18.492}, {"pitch": 71, "velocity": 100, "note_on_time": 18.492, "note_off_time": 18.897}, {"pitch": 42, "velocity": 100, "note_on_time": 18.492, "note_off_time": 19.306}]</notes><options name="Option List">((4, 4), [0.5, 0.25], 3, 7, &lt;NoteRangePerHand.TWO_NOTES: 3&gt;, &lt;NoteRangePerHand.ONE_NOTE: 2&gt;, False, True, True, None)</options></target_notes><trials><trial trial_no="1" timestamp="2023_01_29-13_56_34"><notes name="Played Notes">[{"pitch": 67, "velocity": 56, "note_on_time": 5.891, "note_off_time": 6.283}, {"pitch": 74, "velocity": 52, "note_on_time": 6.301, "note_off_time": 7.082}, {"pitch": 71, "velocity": 53, "note_on_time": 7.07, "note_off_time": 7.483}, {"pitch": 67, "velocity": 51, "note_on_time": 7.452, "note_off_time": 7.865}, {"pitch": 74, "velocity": 54, "note_on_time": 7.882, "note_off_time": 8.709}, {"pitch": 71, "velocity": 57, "note_on_time": 8.705, "note_off_time": 9.117}, {"pitch": 67, "velocity": 46, "note_on_time": 9.088, "note_off_time": 9.467}, {"pitch": 74, "velocity": 61, "note_on_time": 9.477, "note_off_time": 9.579}, {"pitch": 74, "velocity": 33, "note_on_time": 9.909, "note_off_time": 10.203}, {"pitch": 76, "velocity": 61, "note_on_time": 10.257, "note_off_time": 10.391}, {"pitch": 76, "velocity": 61, "note_on_time": 10.651, "note_off_time": 10.926}, {"pitch": 74, "velocity": 43, "note_on_time": 11.094, "note_off_time": 11.967}, {"pitch": 71, "velocity": 58, "note_on_time": 11.966, "note_off_time": 12.363}, {"pitch": 67, "velocity": 50, "note_on_time": 12.352, "note_off_time": 12.729}, {"pitch": 74, "velocity": 53, "note_on_time": 12.749, "note_off_time": 12.971}, {"pitch": 74, "velocity": 46, "note_on_time": 13.191, "note_off_time": 13.531}, {"pitch": 71, "velocity": 36, "note_on_time": 13.912, "note_off_time": 14.294}, {"pitch": 67, "velocity": 49, "note_on_time": 14.263, "note_off_time": 14.626}, {"pitch": 74, "velocity": 43, "note_on_time": 14.72, "note_off_time": 14.911}, {"pitch": 74, "velocity": 45, "note_on_time": 15.106, "note_off_time": 15.502}, {"pitch": 71, "velocity": 49, "note_on_time": 15.507, "note_off_time": 15.88}, {"pitch": 67, "velocity": 41, "note_on_time": 15.869, "note_off_time": 16.325}, {"pitch": 74, "velocity": 52, "note_on_time": 16.338, "note_off_time": 16.557}, {"pitch": 74, "velocity": 52, "note_on_time": 16.729, "note_off_time": 17.02}, {"pitch": 76, "velocity": 59, "note_on_time": 17.144, "note_off_time": 17.298}, {"pitch": 76, "velocity": 64, "note_on_time": 17.516, "note_off_time": 17.845}, {"pitch": 74, "velocity": 39, "note_on_time": 17.979, "note_off_time": 18.651}, {"pitch": 71, "velocity": 55, "note_on_time": 18.867, "note_off_time": 19.24}]</notes><guidance name="Guidance Mode">None</guidance><error name="Error value">0.12346983928571517</error></trial></trials></MIDI>