<MIDI midiNo="2023_01_29-13_18_34"><target_notes><notes name="Note List">[{"pitch": 39, "velocity": 100, "note_on_time": 0.007, "note_off_time": 0.715}, {"pitch": 42, "velocity": 100, "note_on_time": 0.715, "note_off_time": 1.429}, {"pitch": 42, "velocity": 100, "note_on_time": 1.429, "note_off_time": 2.144}, {"pitch": 39, "velocity": 100, "note_on_time": 2.144, "note_off_time": 2.86}, {"pitch": 42, "velocity": 100, "note_on_time": 2.86, "note_off_time": 3.576}, {"pitch": 67, "velocity": 100, "note_on_time": 3.576, "note_off_time": 4.294}, {"pitch": 42, "velocity": 100, "note_on_time": 3.576, "note_off_time": 4.294}, {"pitch": 72, "velocity": 100, "note_on_time": 4.294, "note_off_time": 5.01}, {"pitch": 39, "velocity": 100, "note_on_time": 4.294, "note_off_time": 5.011}, {"pitch": 72, "velocity": 100, "note_on_time": 5.01, "note_off_time": 5.73}, {"pitch": 42, "velocity": 100, "note_on_time": 5.011, "note_off_time": 5.731}, {"pitch": 74, "velocity": 100, "note_on_time": 5.73, "note_off_time": 6.446}, {"pitch": 42, "velocity": 100, "note_on_time": 5.731, "note_off_time": 6.447}, {"pitch": 39, "velocity": 100, "note_on_time": 6.447, "note_off_time": 7.165}, {"pitch": 76, "velocity": 100, "note_on_time": 6.446, "note_off_time": 7.881}, {"pitch": 42, "velocity": 100, "note_on_time": 7.166, "note_off_time": 7.881}, {"pitch": 67, "velocity": 100, "note_on_time": 7.881, "note_off_time": 8.594}, {"pitch": 42, "velocity": 100, "note_on_time": 7.881, "note_off_time": 8.595}, {"pitch": 39, "velocity": 100, "note_on_time": 8.595, "note_off_time": 9.308}, {"pitch": 72, "velocity": 100, "note_on_time": 8.594, "note_off_time": 10.026}, {"pitch": 42, "velocity": 100, "note_on_time": 9.308, "note_off_time": 10.026}, {"pitch": 76, "velocity": 100, "note_on_time": 10.026, "note_off_time": 10.742}, {"pitch": 42, "velocity": 100, "note_on_time": 10.027, "note_off_time": 10.742}, {"pitch": 39, "velocity": 100, "note_on_time": 10.742, "note_off_time": 11.458}, {"pitch": 74, "velocity": 100, "note_on_time": 10.742, "note_off_time": 12.172}, {"pitch": 42, "velocity": 100, "note_on_time": 11.458, "note_off_time": 12.172}, {"pitch": 67, "velocity": 100, "note_on_time": 12.172, "note_off_time": 12.89}, {"pitch": 42, "velocity": 100, "note_on_time": 12.173, "note_off_time": 12.891}, {"pitch": 39, "velocity": 100, "note_on_time": 12.891, "note_off_time": 13.608}, {"pitch": 74, "velocity": 100, "note_on_time": 12.89, "note_off_time": 14.324}, {"pitch": 42, "velocity": 100, "note_on_time": 13.608, "note_off_time": 14.325}, {"pitch": 76, "velocity": 100, "note_on_time": 14.324, "note_off_time": 15.04}, {"pitch": 42, "velocity": 100, "note_on_time": 14.325, "note_off_time": 15.04}, {"pitch": 77, "velocity": 100, "note_on_time": 15.04, "note_off_time": 15.757}, {"pitch": 39, "velocity": 100, "note_on_time": 15.04, "note_off_time": 15.757}, {"pitch": 74, "velocity": 100, "note_on_time": 15.757, "note_off_time": 16.474}, {"pitch": 42, "velocity": 100, "note_on_time": 15.757, "note_off_time": 16.474}, {"pitch": 71, "velocity": 100, "note_on_time": 16.474, "note_off_time": 17.188}, {"pitch": 42, "velocity": 100, "note_on_time": 16.474, "note_off_time": 17.188}, {"pitch": 67, "velocity": 100, "note_on_time": 17.188, "note_off_time": 17.905}, {"pitch": 39, "velocity": 100, "note_on_time": 17.188, "note_off_time": 17.906}, {"pitch": 69, "velocity": 100, "note_on_time": 17.905, "note_off_time": 18.619}, {"pitch": 42, "velocity": 100, "note_on_time": 17.906, "note_off_time": 18.619}, {"pitch": 71, "velocity": 100, "note_on_time": 18.619, "note_off_time": 19.334}, {"pitch": 42, "velocity": 100, "note_on_time": 18.619, "note_off_time": 19.334}, {"pitch": 39, "velocity": 100, "note_on_time": 19.335, "note_off_time": 20.049}, {"pitch": 72, "velocity": 100, "note_on_time": 19.334, "note_off_time": 20.762}, {"pitch": 42, "velocity": 100, "note_on_time": 20.049, "note_off_time": 20.762}, {"pitch": 67, "velocity": 100, "note_on_time": 20.762, "note_off_time": 21.479}, {"pitch": 42, "velocity": 100, "note_on_time": 20.762, "note_off_time": 21.479}, {"pitch": 39, "velocity": 100, "note_on_time": 21.48, "note_off_time": 22.197}, {"pitch": 72, "velocity": 100, "note_on_time": 21.479, "note_off_time": 22.912}, {"pitch": 42, "velocity": 100, "note_on_time": 22.198, "note_off_time": 22.912}, {"pitch": 74, "velocity": 100, "note_on_time": 22.912, "note_off_time": 23.63}, {"pitch": 42, "velocity": 100, "note_on_time": 22.912, "note_off_time": 23.63}, {"pitch": 76, "velocity": 100, "note_on_time": 23.63, "note_off_time": 24.344}, {"pitch": 39, "velocity": 100, "note_on_time": 23.631, "note_off_time": 24.345}, {"pitch": 76, "velocity": 100, "note_on_time": 24.344, "note_off_time": 25.06}, {"pitch": 42, "velocity": 100, "note_on_time": 24.345, "note_off_time": 25.061}, {"pitch": 67, "velocity": 100, "note_on_time": 25.06, "note_off_time": 25.778}, {"pitch": 42, "velocity": 100, "note_on_time": 25.061, "note_off_time": 25.778}, {"pitch": 39, "velocity": 100, "note_on_time": 25.779, "note_off_time": 26.497}, {"pitch": 72, "velocity": 100, "note_on_time": 25.778, "note_off_time": 27.211}, {"pitch": 42, "velocity": 100, "note_on_time": 26.497, "note_off_time": 27.211}, {"pitch": 76, "velocity": 100, "note_on_time": 27.211, "note_off_time": 27.927}, {"pitch": 42, "velocity": 100, "note_on_time": 27.211, "note_off_time": 27.928}, {"pitch": 39, "velocity": 100, "note_on_time": 27.928, "note_off_time": 28.643}, {"pitch": 42, "velocity": 100, "note_on_time": 28.643, "note_off_time": 29.361}, {"pitch": 74, "velocity": 100, "note_on_time": 27.927, "note_off_time": 30.077}, {"pitch": 42, "velocity": 100, "note_on_time": 29.361, "note_off_time": 30.077}, {"pitch": 39, "velocity": 100, "note_on_time": 30.078, "note_off_time": 30.794}, {"pitch": 74, "velocity": 100, "note_on_time": 30.077, "note_off_time": 31.508}, {"pitch": 42, "velocity": 100, "note_on_time": 30.795, "note_off_time": 31.509}, {"pitch": 76, "velocity": 100, "note_on_time": 31.508, "note_off_time": 32.222}, {"pitch": 42, "velocity": 100, "note_on_time": 31.509, "note_off_time": 32.223}, {"pitch": 77, "velocity": 100, "note_on_time": 32.222, "note_off_time": 32.937}, {"pitch": 39, "velocity": 100, "note_on_time": 32.223, "note_off_time": 32.938}, {"pitch": 74, "velocity": 100, "note_on_time": 32.937, "note_off_time": 33.653}, {"pitch": 42, "velocity": 100, "note_on_time": 32.938, "note_off_time": 33.653}, {"pitch": 71, "velocity": 100, "note_on_time": 33.653, "note_off_time": 34.367}, {"pitch": 42, "velocity": 100, "note_on_time": 33.653, "note_off_time": 34.368}, {"pitch": 67, "velocity": 100, "note_on_time": 34.367, "note_off_time": 35.08}, {"pitch": 39, "velocity": 100, "note_on_time": 34.368, "note_off_time": 35.081}, {"pitch": 69, "velocity": 100, "note_on_time": 35.08, "note_off_time": 35.795}, {"pitch": 42, "velocity": 100, "note_on_time": 35.081, "note_off_time": 35.796}, {"pitch": 71, "velocity": 100, "note_on_time": 35.795, "note_off_time": 36.509}, {"pitch": 42, "velocity": 100, "note_on_time": 35.796, "note_off_time": 36.509}, {"pitch": 39, "velocity": 100, "note_on_time": 36.51, "note_off_time": 37.227}, {"pitch": 72, "velocity": 100, "note_on_time": 36.509, "note_off_time": 37.945}, {"pitch": 42, "velocity": 100, "note_on_time": 37.228, "note_off_time": 37.946}, {"pitch": 42, "velocity": 100, "note_on_time": 37.946, "note_off_time": 38.662}]</notes><options name="Option List">((4, 4), [0.5, 0.25], 3, 7, &lt;NoteRangePerHand.TWO_NOTES: 3&gt;, &lt;NoteRangePerHand.ONE_NOTE: 2&gt;, False, True, True, None)</options></target_notes><trials><trial trial_no="1" timestamp="2023_01_29-13_18_34"><notes name="Played Notes">[{"pitch": 67, "velocity": 37, "note_on_time": 3.611, "note_off_time": 4.278}, {"pitch": 72, "velocity": 60, "note_on_time": 4.261, "note_off_time": 5.157}, {"pitch": 72, "velocity": 63, "note_on_time": 5.681, "note_off_time": 6.337}, {"pitch": 76, "velocity": 50, "note_on_time": 6.861, "note_off_time": 7.01}, {"pitch": 76, "velocity": 51, "note_on_time": 7.411, "note_off_time": 8.196}, {"pitch": 77, "velocity": 12, "note_on_time": 10.445, "note_off_time": 10.704}, {"pitch": 76, "velocity": 42, "note_on_time": 11.143, "note_off_time": 12.294}, {"pitch": 69, "velocity": 64, "note_on_time": 12.054, "note_off_time": 12.391}, {"pitch": 67, "velocity": 52, "note_on_time": 12.549, "note_off_time": 13.243}, {"pitch": 72, "velocity": 31, "note_on_time": 13.27, "note_off_time": 14.469}, {"pitch": 74, "velocity": 60, "note_on_time": 14.495, "note_off_time": 14.784}, {"pitch": 76, "velocity": 66, "note_on_time": 15.004, "note_off_time": 15.529}, {"pitch": 72, "velocity": 70, "note_on_time": 15.52, "note_off_time": 15.826}, {"pitch": 76, "velocity": 60, "note_on_time": 16.103, "note_off_time": 16.36}, {"pitch": 74, "velocity": 60, "note_on_time": 16.393, "note_off_time": 17.62}, {"pitch": 67, "velocity": 58, "note_on_time": 17.612, "note_off_time": 18.188}, {"pitch": 74, "velocity": 58, "note_on_time": 18.196, "note_off_time": 19.11}, {"pitch": 76, "velocity": 53, "note_on_time": 19.099, "note_off_time": 19.448}, {"pitch": 77, "velocity": 46, "note_on_time": 19.688, "note_off_time": 20.053}, {"pitch": 76, "velocity": 57, "note_on_time": 20.274, "note_off_time": 20.557}, {"pitch": 77, "velocity": 1, "note_on_time": 20.999, "note_off_time": 21.173}, {"pitch": 77, "velocity": 51, "note_on_time": 21.321, "note_off_time": 22.133}, {"pitch": 74, "velocity": 47, "note_on_time": 21.894, "note_off_time": 23.667}, {"pitch": 69, "velocity": 31, "note_on_time": 24.718, "note_off_time": 24.857}, {"pitch": 71, "velocity": 60, "note_on_time": 23.279, "note_off_time": 25.516}, {"pitch": 67, "velocity": 49, "note_on_time": 25.215, "note_off_time": 25.935}, {"pitch": 69, "velocity": 65, "note_on_time": 25.889, "note_off_time": 26.521}, {"pitch": 71, "velocity": 53, "note_on_time": 26.502, "note_off_time": 27.127}, {"pitch": 72, "velocity": 53, "note_on_time": 27.136, "note_off_time": 28.43}, {"pitch": 67, "velocity": 45, "note_on_time": 28.429, "note_off_time": 29.831}, {"pitch": 74, "velocity": 46, "note_on_time": 29.719, "note_off_time": 29.903}, {"pitch": 67, "velocity": 36, "note_on_time": 30.486, "note_off_time": 31.449}, {"pitch": 67, "velocity": 47, "note_on_time": 31.623, "note_off_time": 31.998}, {"pitch": 72, "velocity": 53, "note_on_time": 32.009, "note_off_time": 32.788}, {"pitch": 74, "velocity": 68, "note_on_time": 32.799, "note_off_time": 33.316}, {"pitch": 67, "velocity": 60, "note_on_time": 33.82, "note_off_time": 34.251}, {"pitch": 72, "velocity": 42, "note_on_time": 34.255, "note_off_time": 34.929}, {"pitch": 74, "velocity": 38, "note_on_time": 34.948, "note_off_time": 35.789}, {"pitch": 76, "velocity": 54, "note_on_time": 35.789, "note_off_time": 36.674}, {"pitch": 67, "velocity": 35, "note_on_time": 37.732, "note_off_time": 38.089}]</notes><guidance name="Guidance Mode">None</guidance><error name="Error value">5.682537695590327</error></trial></trials></MIDI>