<MIDI midiNo="2023_01_29-13_05_49"><target_notes><notes name="Note List">[{"pitch": 39, "velocity": 100, "note_on_time": 0.005, "note_off_time": 0.725}, {"pitch": 42, "velocity": 100, "note_on_time": 0.725, "note_off_time": 1.441}, {"pitch": 42, "velocity": 100, "note_on_time": 1.441, "note_off_time": 2.156}, {"pitch": 42, "velocity": 100, "note_on_time": 2.156, "note_off_time": 2.871}, {"pitch": 64, "velocity": 100, "note_on_time": 2.87, "note_off_time": 3.59}, {"pitch": 39, "velocity": 100, "note_on_time": 2.871, "note_off_time": 3.59}, {"pitch": 62, "velocity": 100, "note_on_time": 3.59, "note_off_time": 4.303}, {"pitch": 42, "velocity": 100, "note_on_time": 3.59, "note_off_time": 4.303}, {"pitch": 60, "velocity": 100, "note_on_time": 4.303, "note_off_time": 5.019}, {"pitch": 42, "velocity": 100, "note_on_time": 4.303, "note_off_time": 5.019}, {"pitch": 62, "velocity": 100, "note_on_time": 5.019, "note_off_time": 5.732}, {"pitch": 42, "velocity": 100, "note_on_time": 5.019, "note_off_time": 5.732}, {"pitch": 64, "velocity": 100, "note_on_time": 5.732, "note_off_time": 6.446}, {"pitch": 39, "velocity": 100, "note_on_time": 5.732, "note_off_time": 6.446}, {"pitch": 64, "velocity": 100, "note_on_time": 6.446, "note_off_time": 7.163}, {"pitch": 42, "velocity": 100, "note_on_time": 6.446, "note_off_time": 7.163}, {"pitch": 42, "velocity": 100, "note_on_time": 7.164, "note_off_time": 7.877}, {"pitch": 64, "velocity": 100, "note_on_time": 7.163, "note_off_time": 8.594}, {"pitch": 42, "velocity": 100, "note_on_time": 7.877, "note_off_time": 8.594}, {"pitch": 62, "velocity": 100, "note_on_time": 8.594, "note_off_time": 9.311}, {"pitch": 39, "velocity": 100, "note_on_time": 8.594, "note_off_time": 9.311}, {"pitch": 62, "velocity": 100, "note_on_time": 9.311, "note_off_time": 10.025}, {"pitch": 42, "velocity": 100, "note_on_time": 9.311, "note_off_time": 10.025}, {"pitch": 42, "velocity": 100, "note_on_time": 10.025, "note_off_time": 10.739}, {"pitch": 62, "velocity": 100, "note_on_time": 10.025, "note_off_time": 11.454}, {"pitch": 42, "velocity": 100, "note_on_time": 10.74, "note_off_time": 11.454}, {"pitch": 64, "velocity": 100, "note_on_time": 11.454, "note_off_time": 12.167}, {"pitch": 39, "velocity": 100, "note_on_time": 11.455, "note_off_time": 12.167}, {"pitch": 64, "velocity": 100, "note_on_time": 12.167, "note_off_time": 12.882}, {"pitch": 42, "velocity": 100, "note_on_time": 12.167, "note_off_time": 12.883}, {"pitch": 42, "velocity": 100, "note_on_time": 12.883, "note_off_time": 13.6}, {"pitch": 64, "velocity": 100, "note_on_time": 12.882, "note_off_time": 14.314}, {"pitch": 42, "velocity": 100, "note_on_time": 13.6, "note_off_time": 14.314}, {"pitch": 64, "velocity": 100, "note_on_time": 14.314, "note_off_time": 15.028}, {"pitch": 39, "velocity": 100, "note_on_time": 14.315, "note_off_time": 15.028}, {"pitch": 62, "velocity": 100, "note_on_time": 15.028, "note_off_time": 15.744}, {"pitch": 42, "velocity": 100, "note_on_time": 15.028, "note_off_time": 15.744}, {"pitch": 60, "velocity": 100, "note_on_time": 15.744, "note_off_time": 16.462}, {"pitch": 42, "velocity": 100, "note_on_time": 15.745, "note_off_time": 16.462}, {"pitch": 62, "velocity": 100, "note_on_time": 16.462, "note_off_time": 17.178}, {"pitch": 42, "velocity": 100, "note_on_time": 16.463, "note_off_time": 17.178}, {"pitch": 64, "velocity": 100, "note_on_time": 17.178, "note_off_time": 17.896}, {"pitch": 39, "velocity": 100, "note_on_time": 17.178, "note_off_time": 17.896}, {"pitch": 64, "velocity": 100, "note_on_time": 17.896, "note_off_time": 18.61}, {"pitch": 42, "velocity": 100, "note_on_time": 17.896, "note_off_time": 18.61}, {"pitch": 64, "velocity": 100, "note_on_time": 18.61, "note_off_time": 19.325}, {"pitch": 42, "velocity": 100, "note_on_time": 18.611, "note_off_time": 19.325}, {"pitch": 60, "velocity": 100, "note_on_time": 19.325, "note_off_time": 20.041}, {"pitch": 42, "velocity": 100, "note_on_time": 19.326, "note_off_time": 20.041}, {"pitch": 62, "velocity": 100, "note_on_time": 20.041, "note_off_time": 20.757}, {"pitch": 39, "velocity": 100, "note_on_time": 20.041, "note_off_time": 20.757}, {"pitch": 62, "velocity": 100, "note_on_time": 20.757, "note_off_time": 21.474}, {"pitch": 42, "velocity": 100, "note_on_time": 20.757, "note_off_time": 21.474}, {"pitch": 64, "velocity": 100, "note_on_time": 21.474, "note_off_time": 22.189}, {"pitch": 42, "velocity": 100, "note_on_time": 21.474, "note_off_time": 22.189}, {"pitch": 62, "velocity": 100, "note_on_time": 22.189, "note_off_time": 22.906}, {"pitch": 42, "velocity": 100, "note_on_time": 22.189, "note_off_time": 22.907}, {"pitch": 39, "velocity": 100, "note_on_time": 22.907, "note_off_time": 23.621}, {"pitch": 42, "velocity": 100, "note_on_time": 23.621, "note_off_time": 24.336}, {"pitch": 42, "velocity": 100, "note_on_time": 24.336, "note_off_time": 25.055}, {"pitch": 60, "velocity": 100, "note_on_time": 22.906, "note_off_time": 25.772}, {"pitch": 42, "velocity": 100, "note_on_time": 25.055, "note_off_time": 25.772}]</notes><options name="Option List">((4, 4), [0.5, 0.25], 3, 7, &lt;NoteRangePerHand.TWO_NOTES: 3&gt;, &lt;NoteRangePerHand.ONE_NOTE: 2&gt;, False, True, True, None)</options></target_notes><trials><trial trial_no="1" timestamp="2023_01_29-13_05_49"><notes name="Played Notes">[{"pitch": 64, "velocity": 54, "note_on_time": 2.962, "note_off_time": 3.674}, {"pitch": 62, "velocity": 63, "note_on_time": 3.603, "note_off_time": 4.272}, {"pitch": 60, "velocity": 61, "note_on_time": 4.261, "note_off_time": 5.028}, {"pitch": 62, "velocity": 50, "note_on_time": 5.012, "note_off_time": 5.735}, {"pitch": 64, "velocity": 54, "note_on_time": 5.707, "note_off_time": 6.169}, {"pitch": 64, "velocity": 57, "note_on_time": 6.377, "note_off_time": 6.747}, {"pitch": 64, "velocity": 54, "note_on_time": 7.051, "note_off_time": 8.568}, {"pitch": 62, "velocity": 42, "note_on_time": 8.57, "note_off_time": 9.058}, {"pitch": 62, "velocity": 52, "note_on_time": 9.26, "note_off_time": 9.701}, {"pitch": 62, "velocity": 48, "note_on_time": 9.961, "note_off_time": 11.426}, {"pitch": 64, "velocity": 71, "note_on_time": 11.415, "note_off_time": 11.935}, {"pitch": 64, "velocity": 67, "note_on_time": 12.125, "note_off_time": 12.624}, {"pitch": 64, "velocity": 59, "note_on_time": 12.834, "note_off_time": 13.99}, {"pitch": 64, "velocity": 52, "note_on_time": 14.258, "note_off_time": 15.005}, {"pitch": 62, "velocity": 57, "note_on_time": 14.972, "note_off_time": 15.653}, {"pitch": 60, "velocity": 58, "note_on_time": 15.63, "note_off_time": 16.347}, {"pitch": 62, "velocity": 59, "note_on_time": 16.338, "note_off_time": 17.077}, {"pitch": 64, "velocity": 53, "note_on_time": 17.052, "note_off_time": 17.568}, {"pitch": 64, "velocity": 53, "note_on_time": 17.803, "note_off_time": 18.229}, {"pitch": 64, "velocity": 58, "note_on_time": 18.528, "note_off_time": 19.265}, {"pitch": 62, "velocity": 54, "note_on_time": 19.263, "note_off_time": 19.851}, {"pitch": 64, "velocity": 41, "note_on_time": 20.551, "note_off_time": 20.982}, {"pitch": 62, "velocity": 68, "note_on_time": 21.534, "note_off_time": 21.655}, {"pitch": 62, "velocity": 57, "note_on_time": 21.801, "note_off_time": 22.006}, {"pitch": 64, "velocity": 49, "note_on_time": 22.024, "note_off_time": 22.298}, {"pitch": 62, "velocity": 35, "note_on_time": 22.254, "note_off_time": 22.52}, {"pitch": 60, "velocity": 56, "note_on_time": 22.475, "note_off_time": 22.697}]</notes><guidance name="Guidance Mode">None</guidance><error name="Error value">0.5831169615384632</error></trial></trials></MIDI>