<MIDI midiNo="2023_01_29-13_26_14"><target_notes><notes name="Note List">[{"pitch": 39, "velocity": 100, "note_on_time": 0.008, "note_off_time": 0.719}, {"pitch": 42, "velocity": 100, "note_on_time": 0.72, "note_off_time": 1.437}, {"pitch": 42, "velocity": 100, "note_on_time": 1.437, "note_off_time": 2.153}, {"pitch": 39, "velocity": 100, "note_on_time": 2.153, "note_off_time": 2.872}, {"pitch": 42, "velocity": 100, "note_on_time": 2.872, "note_off_time": 3.59}, {"pitch": 62, "velocity": 100, "note_on_time": 3.589, "note_off_time": 4.307}, {"pitch": 42, "velocity": 100, "note_on_time": 3.59, "note_off_time": 4.307}, {"pitch": 62, "velocity": 100, "note_on_time": 4.307, "note_off_time": 5.022}, {"pitch": 39, "velocity": 100, "note_on_time": 4.307, "note_off_time": 5.023}, {"pitch": 62, "velocity": 100, "note_on_time": 5.022, "note_off_time": 5.736}, {"pitch": 42, "velocity": 100, "note_on_time": 5.023, "note_off_time": 5.736}, {"pitch": 62, "velocity": 100, "note_on_time": 5.736, "note_off_time": 6.452}, {"pitch": 42, "velocity": 100, "note_on_time": 5.736, "note_off_time": 6.452}, {"pitch": 39, "velocity": 100, "note_on_time": 6.453, "note_off_time": 7.167}, {"pitch": 62, "velocity": 100, "note_on_time": 6.452, "note_off_time": 7.886}, {"pitch": 42, "velocity": 100, "note_on_time": 7.167, "note_off_time": 7.886}, {"pitch": 62, "velocity": 100, "note_on_time": 7.886, "note_off_time": 8.599}, {"pitch": 42, "velocity": 100, "note_on_time": 7.886, "note_off_time": 8.599}, {"pitch": 39, "velocity": 100, "note_on_time": 8.599, "note_off_time": 9.317}, {"pitch": 62, "velocity": 100, "note_on_time": 8.599, "note_off_time": 10.033}, {"pitch": 42, "velocity": 100, "note_on_time": 9.317, "note_off_time": 10.033}, {"pitch": 62, "velocity": 100, "note_on_time": 10.033, "note_off_time": 10.751}, {"pitch": 42, "velocity": 100, "note_on_time": 10.033, "note_off_time": 10.751}, {"pitch": 39, "velocity": 100, "note_on_time": 10.752, "note_off_time": 11.471}, {"pitch": 62, "velocity": 100, "note_on_time": 10.751, "note_off_time": 12.188}, {"pitch": 42, "velocity": 100, "note_on_time": 11.471, "note_off_time": 12.188}, {"pitch": 62, "velocity": 100, "note_on_time": 12.188, "note_off_time": 12.904}, {"pitch": 42, "velocity": 100, "note_on_time": 12.188, "note_off_time": 12.904}, {"pitch": 39, "velocity": 100, "note_on_time": 12.905, "note_off_time": 13.62}, {"pitch": 62, "velocity": 100, "note_on_time": 12.904, "note_off_time": 14.331}, {"pitch": 42, "velocity": 100, "note_on_time": 13.62, "note_off_time": 14.331}, {"pitch": 62, "velocity": 100, "note_on_time": 14.331, "note_off_time": 15.051}, {"pitch": 42, "velocity": 100, "note_on_time": 14.331, "note_off_time": 15.051}, {"pitch": 62, "velocity": 100, "note_on_time": 15.051, "note_off_time": 15.766}, {"pitch": 39, "velocity": 100, "note_on_time": 15.051, "note_off_time": 15.766}, {"pitch": 62, "velocity": 100, "note_on_time": 15.766, "note_off_time": 16.485}, {"pitch": 42, "velocity": 100, "note_on_time": 15.767, "note_off_time": 16.485}, {"pitch": 62, "velocity": 100, "note_on_time": 16.485, "note_off_time": 17.201}, {"pitch": 42, "velocity": 100, "note_on_time": 16.485, "note_off_time": 17.201}, {"pitch": 62, "velocity": 100, "note_on_time": 17.201, "note_off_time": 17.915}, {"pitch": 39, "velocity": 100, "note_on_time": 17.201, "note_off_time": 17.915}, {"pitch": 62, "velocity": 100, "note_on_time": 17.915, "note_off_time": 18.629}, {"pitch": 42, "velocity": 100, "note_on_time": 17.916, "note_off_time": 18.63}, {"pitch": 62, "velocity": 100, "note_on_time": 18.629, "note_off_time": 19.343}, {"pitch": 42, "velocity": 100, "note_on_time": 18.63, "note_off_time": 19.343}, {"pitch": 39, "velocity": 100, "note_on_time": 19.344, "note_off_time": 20.062}, {"pitch": 62, "velocity": 100, "note_on_time": 19.343, "note_off_time": 20.775}, {"pitch": 42, "velocity": 100, "note_on_time": 20.062, "note_off_time": 20.775}, {"pitch": 62, "velocity": 100, "note_on_time": 20.775, "note_off_time": 21.492}, {"pitch": 42, "velocity": 100, "note_on_time": 20.776, "note_off_time": 21.493}, {"pitch": 39, "velocity": 100, "note_on_time": 21.493, "note_off_time": 22.211}, {"pitch": 62, "velocity": 100, "note_on_time": 21.492, "note_off_time": 22.926}, {"pitch": 42, "velocity": 100, "note_on_time": 22.211, "note_off_time": 22.926}, {"pitch": 62, "velocity": 100, "note_on_time": 22.926, "note_off_time": 23.64}, {"pitch": 42, "velocity": 100, "note_on_time": 22.926, "note_off_time": 23.64}, {"pitch": 62, "velocity": 100, "note_on_time": 23.64, "note_off_time": 24.354}, {"pitch": 39, "velocity": 100, "note_on_time": 23.64, "note_off_time": 24.354}, {"pitch": 62, "velocity": 100, "note_on_time": 24.354, "note_off_time": 25.07}, {"pitch": 42, "velocity": 100, "note_on_time": 24.354, "note_off_time": 25.07}, {"pitch": 62, "velocity": 100, "note_on_time": 25.07, "note_off_time": 25.785}, {"pitch": 42, "velocity": 100, "note_on_time": 25.071, "note_off_time": 25.785}, {"pitch": 39, "velocity": 100, "note_on_time": 25.786, "note_off_time": 26.502}, {"pitch": 62, "velocity": 100, "note_on_time": 25.785, "note_off_time": 27.218}, {"pitch": 42, "velocity": 100, "note_on_time": 26.502, "note_off_time": 27.218}, {"pitch": 62, "velocity": 100, "note_on_time": 27.218, "note_off_time": 27.934}, {"pitch": 42, "velocity": 100, "note_on_time": 27.218, "note_off_time": 27.934}, {"pitch": 39, "velocity": 100, "note_on_time": 27.934, "note_off_time": 28.65}, {"pitch": 42, "velocity": 100, "note_on_time": 28.651, "note_off_time": 29.367}, {"pitch": 62, "velocity": 100, "note_on_time": 27.934, "note_off_time": 30.079}, {"pitch": 42, "velocity": 100, "note_on_time": 29.367, "note_off_time": 30.079}, {"pitch": 39, "velocity": 100, "note_on_time": 30.08, "note_off_time": 30.794}, {"pitch": 62, "velocity": 100, "note_on_time": 30.079, "note_off_time": 31.511}, {"pitch": 42, "velocity": 100, "note_on_time": 30.795, "note_off_time": 31.511}, {"pitch": 62, "velocity": 100, "note_on_time": 31.511, "note_off_time": 32.229}, {"pitch": 42, "velocity": 100, "note_on_time": 31.512, "note_off_time": 32.229}, {"pitch": 62, "velocity": 100, "note_on_time": 32.229, "note_off_time": 32.945}, {"pitch": 39, "velocity": 100, "note_on_time": 32.229, "note_off_time": 32.945}, {"pitch": 62, "velocity": 100, "note_on_time": 32.945, "note_off_time": 33.66}, {"pitch": 42, "velocity": 100, "note_on_time": 32.945, "note_off_time": 33.661}, {"pitch": 62, "velocity": 100, "note_on_time": 33.66, "note_off_time": 34.376}, {"pitch": 42, "velocity": 100, "note_on_time": 33.661, "note_off_time": 34.376}, {"pitch": 62, "velocity": 100, "note_on_time": 34.376, "note_off_time": 35.091}, {"pitch": 39, "velocity": 100, "note_on_time": 34.376, "note_off_time": 35.091}, {"pitch": 62, "velocity": 100, "note_on_time": 35.091, "note_off_time": 35.807}, {"pitch": 42, "velocity": 100, "note_on_time": 35.091, "note_off_time": 35.807}, {"pitch": 62, "velocity": 100, "note_on_time": 35.807, "note_off_time": 36.521}, {"pitch": 42, "velocity": 100, "note_on_time": 35.808, "note_off_time": 36.521}, {"pitch": 39, "velocity": 100, "note_on_time": 36.521, "note_off_time": 37.233}, {"pitch": 62, "velocity": 100, "note_on_time": 36.521, "note_off_time": 37.953}, {"pitch": 42, "velocity": 100, "note_on_time": 37.233, "note_off_time": 37.953}, {"pitch": 42, "velocity": 100, "note_on_time": 37.953, "note_off_time": 38.668}]</notes><options name="Option List">((4, 4), [0.5, 0.25], 3, 7, &lt;NoteRangePerHand.TWO_NOTES: 3&gt;, &lt;NoteRangePerHand.ONE_NOTE: 2&gt;, False, True, True, None)</options></target_notes><trials><trial trial_no="1" timestamp="2023_01_29-13_26_14"><notes name="Played Notes">[{"pitch": 62, "velocity": 67, "note_on_time": 3.586, "note_off_time": 4.041}, {"pitch": 62, "velocity": 53, "note_on_time": 4.346, "note_off_time": 4.758}, {"pitch": 62, "velocity": 54, "note_on_time": 5.027, "note_off_time": 5.341}, {"pitch": 62, "velocity": 53, "note_on_time": 5.693, "note_off_time": 6.551}, {"pitch": 62, "velocity": 50, "note_on_time": 8.196, "note_off_time": 8.616}, {"pitch": 62, "velocity": 48, "note_on_time": 9.109, "note_off_time": 9.423}, {"pitch": 62, "velocity": 44, "note_on_time": 9.693, "note_off_time": 10.011}, {"pitch": 62, "velocity": 44, "note_on_time": 12.956, "note_off_time": 13.344}, {"pitch": 62, "velocity": 48, "note_on_time": 13.611, "note_off_time": 14.151}, {"pitch": 62, "velocity": 41, "note_on_time": 15.104, "note_off_time": 15.597}, {"pitch": 62, "velocity": 51, "note_on_time": 15.768, "note_off_time": 16.71}, {"pitch": 62, "velocity": 45, "note_on_time": 17.175, "note_off_time": 17.646}, {"pitch": 62, "velocity": 39, "note_on_time": 17.922, "note_off_time": 18.332}, {"pitch": 62, "velocity": 35, "note_on_time": 18.623, "note_off_time": 19.523}, {"pitch": 62, "velocity": 42, "note_on_time": 20.043, "note_off_time": 20.448}, {"pitch": 62, "velocity": 44, "note_on_time": 20.786, "note_off_time": 21.089}, {"pitch": 62, "velocity": 38, "note_on_time": 21.455, "note_off_time": 21.755}, {"pitch": 62, "velocity": 30, "note_on_time": 22.223, "note_off_time": 22.545}, {"pitch": 62, "velocity": 12, "note_on_time": 23.568, "note_off_time": 25.909}, {"pitch": 62, "velocity": 41, "note_on_time": 26.43, "note_off_time": 26.9}, {"pitch": 62, "velocity": 45, "note_on_time": 27.128, "note_off_time": 27.578}, {"pitch": 62, "velocity": 40, "note_on_time": 27.825, "note_off_time": 28.155}, {"pitch": 62, "velocity": 36, "note_on_time": 28.5, "note_off_time": 30.367}, {"pitch": 62, "velocity": 27, "note_on_time": 30.833, "note_off_time": 31.294}, {"pitch": 62, "velocity": 26, "note_on_time": 31.532, "note_off_time": 31.997}, {"pitch": 62, "velocity": 30, "note_on_time": 32.269, "note_off_time": 32.623}, {"pitch": 62, "velocity": 33, "note_on_time": 32.972, "note_off_time": 33.353}, {"pitch": 62, "velocity": 17, "note_on_time": 33.7, "note_off_time": 34.04}, {"pitch": 62, "velocity": 5, "note_on_time": 34.401, "note_off_time": 34.809}, {"pitch": 62, "velocity": 1, "note_on_time": 35.066, "note_off_time": 37.109}]</notes><guidance name="Guidance Mode">None</guidance><error name="Error value">0.8059315578947372</error></trial></trials></MIDI>