<MIDI midiNo="2023_01_29-13_45_55"><target_notes><notes name="Note List">[{"pitch": 39, "velocity": 100, "note_on_time": 0.004, "note_off_time": 0.716}, {"pitch": 42, "velocity": 100, "note_on_time": 0.716, "note_off_time": 1.425}, {"pitch": 42, "velocity": 100, "note_on_time": 1.425, "note_off_time": 2.147}, {"pitch": 42, "velocity": 100, "note_on_time": 2.147, "note_off_time": 2.86}, {"pitch": 39, "velocity": 100, "note_on_time": 2.86, "note_off_time": 3.58}, {"pitch": 42, "velocity": 100, "note_on_time": 3.58, "note_off_time": 4.295}, {"pitch": 42, "velocity": 100, "note_on_time": 4.296, "note_off_time": 5.015}, {"pitch": 67, "velocity": 100, "note_on_time": 5.373, "note_off_time": 5.729}, {"pitch": 42, "velocity": 100, "note_on_time": 5.015, "note_off_time": 5.729}, {"pitch": 74, "velocity": 100, "note_on_time": 5.729, "note_off_time": 6.443}, {"pitch": 39, "velocity": 100, "note_on_time": 5.729, "note_off_time": 6.443}, {"pitch": 71, "velocity": 100, "note_on_time": 6.443, "note_off_time": 6.799}, {"pitch": 67, "velocity": 100, "note_on_time": 6.799, "note_off_time": 7.155}, {"pitch": 42, "velocity": 100, "note_on_time": 6.444, "note_off_time": 7.155}, {"pitch": 74, "velocity": 100, "note_on_time": 7.155, "note_off_time": 7.87}, {"pitch": 42, "velocity": 100, "note_on_time": 7.156, "note_off_time": 7.87}, {"pitch": 71, "velocity": 100, "note_on_time": 7.87, "note_off_time": 8.228}, {"pitch": 67, "velocity": 100, "note_on_time": 8.228, "note_off_time": 8.585}, {"pitch": 42, "velocity": 100, "note_on_time": 7.87, "note_off_time": 8.585}, {"pitch": 74, "velocity": 100, "note_on_time": 8.585, "note_off_time": 8.943}, {"pitch": 74, "velocity": 100, "note_on_time": 8.943, "note_off_time": 9.297}, {"pitch": 39, "velocity": 100, "note_on_time": 8.585, "note_off_time": 9.297}, {"pitch": 76, "velocity": 100, "note_on_time": 9.297, "note_off_time": 9.658}, {"pitch": 76, "velocity": 100, "note_on_time": 9.658, "note_off_time": 10.014}, {"pitch": 42, "velocity": 100, "note_on_time": 9.297, "note_off_time": 10.015}, {"pitch": 74, "velocity": 100, "note_on_time": 10.014, "note_off_time": 10.73}, {"pitch": 42, "velocity": 100, "note_on_time": 10.015, "note_off_time": 10.73}, {"pitch": 71, "velocity": 100, "note_on_time": 10.73, "note_off_time": 11.088}, {"pitch": 67, "velocity": 100, "note_on_time": 11.088, "note_off_time": 11.446}, {"pitch": 42, "velocity": 100, "note_on_time": 10.73, "note_off_time": 11.446}, {"pitch": 74, "velocity": 100, "note_on_time": 11.446, "note_off_time": 11.804}, {"pitch": 74, "velocity": 100, "note_on_time": 11.804, "note_off_time": 12.164}, {"pitch": 39, "velocity": 100, "note_on_time": 11.446, "note_off_time": 12.164}, {"pitch": 71, "velocity": 100, "note_on_time": 12.164, "note_off_time": 12.524}, {"pitch": 67, "velocity": 100, "note_on_time": 12.524, "note_off_time": 12.881}, {"pitch": 42, "velocity": 100, "note_on_time": 12.165, "note_off_time": 12.881}, {"pitch": 74, "velocity": 100, "note_on_time": 12.881, "note_off_time": 13.239}, {"pitch": 74, "velocity": 100, "note_on_time": 13.239, "note_off_time": 13.598}, {"pitch": 42, "velocity": 100, "note_on_time": 12.881, "note_off_time": 13.598}, {"pitch": 71, "velocity": 100, "note_on_time": 13.598, "note_off_time": 13.956}, {"pitch": 67, "velocity": 100, "note_on_time": 13.956, "note_off_time": 14.315}, {"pitch": 42, "velocity": 100, "note_on_time": 13.598, "note_off_time": 14.315}, {"pitch": 74, "velocity": 100, "note_on_time": 14.315, "note_off_time": 14.675}, {"pitch": 74, "velocity": 100, "note_on_time": 14.675, "note_off_time": 15.034}, {"pitch": 39, "velocity": 100, "note_on_time": 14.316, "note_off_time": 15.034}, {"pitch": 76, "velocity": 100, "note_on_time": 15.034, "note_off_time": 15.392}, {"pitch": 76, "velocity": 100, "note_on_time": 15.392, "note_off_time": 15.75}, {"pitch": 42, "velocity": 100, "note_on_time": 15.034, "note_off_time": 15.75}, {"pitch": 74, "velocity": 100, "note_on_time": 15.75, "note_off_time": 16.47}, {"pitch": 42, "velocity": 100, "note_on_time": 15.75, "note_off_time": 16.47}, {"pitch": 71, "velocity": 100, "note_on_time": 16.47, "note_off_time": 16.828}, {"pitch": 42, "velocity": 100, "note_on_time": 16.47, "note_off_time": 17.189}]</notes><options name="Option List">((4, 4), [0.5, 0.25], 3, 7, &lt;NoteRangePerHand.TWO_NOTES: 3&gt;, &lt;NoteRangePerHand.ONE_NOTE: 2&gt;, False, True, True, None)</options></target_notes><trials><trial trial_no="1" timestamp="2023_01_29-13_45_55"><notes name="Played Notes">[{"pitch": 67, "velocity": 75, "note_on_time": 5.028, "note_off_time": 5.573}, {"pitch": 72, "velocity": 76, "note_on_time": 5.559, "note_off_time": 6.084}, {"pitch": 72, "velocity": 37, "note_on_time": 6.168, "note_off_time": 6.344}, {"pitch": 67, "velocity": 64, "note_on_time": 6.304, "note_off_time": 6.733}, {"pitch": 69, "velocity": 51, "note_on_time": 6.706, "note_off_time": 7.298}, {"pitch": 67, "velocity": 42, "note_on_time": 7.315, "note_off_time": 8.368}, {"pitch": 71, "velocity": 40, "note_on_time": 8.422, "note_off_time": 8.849}, {"pitch": 69, "velocity": 48, "note_on_time": 8.806, "note_off_time": 9.217}, {"pitch": 71, "velocity": 43, "note_on_time": 9.237, "note_off_time": 9.827}, {"pitch": 71, "velocity": 1, "note_on_time": 10.015, "note_off_time": 10.347}, {"pitch": 69, "velocity": 46, "note_on_time": 10.299, "note_off_time": 10.597}, {"pitch": 71, "velocity": 35, "note_on_time": 10.622, "note_off_time": 10.93}, {"pitch": 69, "velocity": 36, "note_on_time": 10.929, "note_off_time": 11.282}, {"pitch": 71, "velocity": 59, "note_on_time": 11.3, "note_off_time": 12.157}, {"pitch": 67, "velocity": 45, "note_on_time": 12.084, "note_off_time": 12.344}, {"pitch": 69, "velocity": 69, "note_on_time": 12.35, "note_off_time": 12.801}, {"pitch": 67, "velocity": 63, "note_on_time": 13.67, "note_off_time": 14.324}, {"pitch": 67, "velocity": 44, "note_on_time": 14.446, "note_off_time": 14.674}, {"pitch": 72, "velocity": 44, "note_on_time": 14.99, "note_off_time": 15.122}, {"pitch": 72, "velocity": 62, "note_on_time": 15.318, "note_off_time": 15.567}, {"pitch": 67, "velocity": 47, "note_on_time": 15.835, "note_off_time": 15.933}, {"pitch": 67, "velocity": 47, "note_on_time": 16.103, "note_off_time": 16.269}, {"pitch": 71, "velocity": 35, "note_on_time": 16.352, "note_off_time": 16.524}, {"pitch": 72, "velocity": 1, "note_on_time": 16.773, "note_off_time": 16.865}]</notes><guidance name="Guidance Mode">None</guidance><error name="Error value">1.2473503630952383</error></trial></trials></MIDI>