<MIDI midiNo="2023_01_29-12_56_47"><target_notes><notes name="Note List">[{"pitch": 39, "velocity": 100, "note_on_time": 0.005, "note_off_time": 0.719}, {"pitch": 42, "velocity": 100, "note_on_time": 0.719, "note_off_time": 1.437}, {"pitch": 42, "velocity": 100, "note_on_time": 1.437, "note_off_time": 2.154}, {"pitch": 42, "velocity": 100, "note_on_time": 2.154, "note_off_time": 2.869}, {"pitch": 39, "velocity": 100, "note_on_time": 2.869, "note_off_time": 3.584}, {"pitch": 42, "velocity": 100, "note_on_time": 3.584, "note_off_time": 4.3}, {"pitch": 42, "velocity": 100, "note_on_time": 4.3, "note_off_time": 5.016}, {"pitch": 62, "velocity": 100, "note_on_time": 2.868, "note_off_time": 5.73}, {"pitch": 42, "velocity": 100, "note_on_time": 5.016, "note_off_time": 5.73}, {"pitch": 39, "velocity": 100, "note_on_time": 5.73, "note_off_time": 6.446}, {"pitch": 42, "velocity": 100, "note_on_time": 6.446, "note_off_time": 7.157}, {"pitch": 42, "velocity": 100, "note_on_time": 7.157, "note_off_time": 7.873}, {"pitch": 62, "velocity": 100, "note_on_time": 5.73, "note_off_time": 8.591}, {"pitch": 42, "velocity": 100, "note_on_time": 7.873, "note_off_time": 8.591}, {"pitch": 39, "velocity": 100, "note_on_time": 8.591, "note_off_time": 9.306}, {"pitch": 62, "velocity": 100, "note_on_time": 8.591, "note_off_time": 10.021}, {"pitch": 42, "velocity": 100, "note_on_time": 9.306, "note_off_time": 10.021}, {"pitch": 42, "velocity": 100, "note_on_time": 10.021, "note_off_time": 10.734}, {"pitch": 62, "velocity": 100, "note_on_time": 10.021, "note_off_time": 11.45}, {"pitch": 42, "velocity": 100, "note_on_time": 10.734, "note_off_time": 11.451}, {"pitch": 39, "velocity": 100, "note_on_time": 11.451, "note_off_time": 12.167}, {"pitch": 62, "velocity": 100, "note_on_time": 11.45, "note_off_time": 12.881}, {"pitch": 42, "velocity": 100, "note_on_time": 12.167, "note_off_time": 12.881}, {"pitch": 42, "velocity": 100, "note_on_time": 12.881, "note_off_time": 13.596}, {"pitch": 62, "velocity": 100, "note_on_time": 12.881, "note_off_time": 14.31}, {"pitch": 42, "velocity": 100, "note_on_time": 13.596, "note_off_time": 14.31}, {"pitch": 62, "velocity": 100, "note_on_time": 14.31, "note_off_time": 15.025}, {"pitch": 39, "velocity": 100, "note_on_time": 14.31, "note_off_time": 15.025}, {"pitch": 62, "velocity": 100, "note_on_time": 15.025, "note_off_time": 15.74}, {"pitch": 42, "velocity": 100, "note_on_time": 15.025, "note_off_time": 15.741}, {"pitch": 62, "velocity": 100, "note_on_time": 15.74, "note_off_time": 16.46}, {"pitch": 42, "velocity": 100, "note_on_time": 15.741, "note_off_time": 16.46}, {"pitch": 62, "velocity": 100, "note_on_time": 16.46, "note_off_time": 17.175}, {"pitch": 42, "velocity": 100, "note_on_time": 16.46, "note_off_time": 17.176}, {"pitch": 62, "velocity": 100, "note_on_time": 17.175, "note_off_time": 17.892}, {"pitch": 39, "velocity": 100, "note_on_time": 17.176, "note_off_time": 17.892}, {"pitch": 62, "velocity": 100, "note_on_time": 17.892, "note_off_time": 18.608}, {"pitch": 42, "velocity": 100, "note_on_time": 17.892, "note_off_time": 18.608}, {"pitch": 62, "velocity": 100, "note_on_time": 18.608, "note_off_time": 19.322}, {"pitch": 42, "velocity": 100, "note_on_time": 18.609, "note_off_time": 19.322}, {"pitch": 62, "velocity": 100, "note_on_time": 19.322, "note_off_time": 20.037}, {"pitch": 42, "velocity": 100, "note_on_time": 19.322, "note_off_time": 20.038}, {"pitch": 62, "velocity": 100, "note_on_time": 20.038, "note_off_time": 20.757}, {"pitch": 39, "velocity": 100, "note_on_time": 20.038, "note_off_time": 20.757}, {"pitch": 62, "velocity": 100, "note_on_time": 20.757, "note_off_time": 21.471}, {"pitch": 42, "velocity": 100, "note_on_time": 20.757, "note_off_time": 21.472}, {"pitch": 62, "velocity": 100, "note_on_time": 21.471, "note_off_time": 22.189}, {"pitch": 42, "velocity": 100, "note_on_time": 21.472, "note_off_time": 22.189}, {"pitch": 62, "velocity": 100, "note_on_time": 22.189, "note_off_time": 22.906}, {"pitch": 42, "velocity": 100, "note_on_time": 22.189, "note_off_time": 22.906}, {"pitch": 62, "velocity": 100, "note_on_time": 22.906, "note_off_time": 23.621}, {"pitch": 39, "velocity": 100, "note_on_time": 22.907, "note_off_time": 23.622}, {"pitch": 62, "velocity": 100, "note_on_time": 23.621, "note_off_time": 24.342}, {"pitch": 42, "velocity": 100, "note_on_time": 23.622, "note_off_time": 24.342}, {"pitch": 62, "velocity": 100, "note_on_time": 24.342, "note_off_time": 25.056}, {"pitch": 42, "velocity": 100, "note_on_time": 24.342, "note_off_time": 25.057}, {"pitch": 62, "velocity": 100, "note_on_time": 25.056, "note_off_time": 25.77}, {"pitch": 42, "velocity": 100, "note_on_time": 25.057, "note_off_time": 25.771}]</notes><options name="Option List">((4, 4), [0.5, 0.25], 3, 7, &lt;NoteRangePerHand.TWO_NOTES: 3&gt;, &lt;NoteRangePerHand.ONE_NOTE: 2&gt;, False, True, True, None)</options></target_notes><trials><trial trial_no="1" timestamp="2023_01_29-12_56_47"><notes name="Played Notes">[{"pitch": 62, "velocity": 78, "note_on_time": 2.816, "note_off_time": 4.317}, {"pitch": 62, "velocity": 66, "note_on_time": 5.733, "note_off_time": 8.183}, {"pitch": 62, "velocity": 67, "note_on_time": 8.54, "note_off_time": 9.521}, {"pitch": 62, "velocity": 66, "note_on_time": 9.957, "note_off_time": 10.895}, {"pitch": 62, "velocity": 66, "note_on_time": 11.369, "note_off_time": 12.4}, {"pitch": 62, "velocity": 59, "note_on_time": 12.812, "note_off_time": 13.84}, {"pitch": 62, "velocity": 43, "note_on_time": 14.281, "note_off_time": 14.735}, {"pitch": 62, "velocity": 50, "note_on_time": 15.003, "note_off_time": 15.397}, {"pitch": 62, "velocity": 51, "note_on_time": 15.699, "note_off_time": 16.079}, {"pitch": 62, "velocity": 54, "note_on_time": 16.384, "note_off_time": 16.701}, {"pitch": 62, "velocity": 56, "note_on_time": 17.088, "note_off_time": 17.382}, {"pitch": 62, "velocity": 48, "note_on_time": 17.816, "note_off_time": 18.092}, {"pitch": 62, "velocity": 51, "note_on_time": 18.53, "note_off_time": 18.787}, {"pitch": 62, "velocity": 59, "note_on_time": 19.231, "note_off_time": 19.45}, {"pitch": 62, "velocity": 52, "note_on_time": 19.944, "note_off_time": 20.223}, {"pitch": 62, "velocity": 54, "note_on_time": 20.621, "note_off_time": 20.911}, {"pitch": 62, "velocity": 51, "note_on_time": 21.391, "note_off_time": 21.638}, {"pitch": 62, "velocity": 52, "note_on_time": 22.071, "note_off_time": 22.341}, {"pitch": 62, "velocity": 49, "note_on_time": 22.843, "note_off_time": 23.112}, {"pitch": 62, "velocity": 49, "note_on_time": 23.513, "note_off_time": 23.78}, {"pitch": 62, "velocity": 54, "note_on_time": 24.202, "note_off_time": 24.429}, {"pitch": 62, "velocity": 51, "note_on_time": 24.935, "note_off_time": 25.189}]</notes><guidance name="Guidance Mode">None</guidance><error name="Error value">0.2745772363636357</error></trial></trials></MIDI>