<MIDI midiNo="2023_01_29-13_24_43"><target_notes><notes name="Note List">[{"pitch": 39, "velocity": 100, "note_on_time": 0.007, "note_off_time": 0.727}, {"pitch": 42, "velocity": 100, "note_on_time": 0.727, "note_off_time": 1.443}, {"pitch": 42, "velocity": 100, "note_on_time": 1.443, "note_off_time": 2.158}, {"pitch": 39, "velocity": 100, "note_on_time": 2.158, "note_off_time": 2.874}, {"pitch": 42, "velocity": 100, "note_on_time": 2.874, "note_off_time": 3.59}, {"pitch": 62, "velocity": 100, "note_on_time": 3.59, "note_off_time": 4.308}, {"pitch": 42, "velocity": 100, "note_on_time": 3.59, "note_off_time": 4.308}, {"pitch": 62, "velocity": 100, "note_on_time": 4.308, "note_off_time": 5.022}, {"pitch": 39, "velocity": 100, "note_on_time": 4.309, "note_off_time": 5.022}, {"pitch": 62, "velocity": 100, "note_on_time": 5.022, "note_off_time": 5.736}, {"pitch": 42, "velocity": 100, "note_on_time": 5.022, "note_off_time": 5.737}, {"pitch": 62, "velocity": 100, "note_on_time": 5.736, "note_off_time": 6.45}, {"pitch": 42, "velocity": 100, "note_on_time": 5.737, "note_off_time": 6.45}, {"pitch": 39, "velocity": 100, "note_on_time": 6.45, "note_off_time": 7.166}, {"pitch": 62, "velocity": 100, "note_on_time": 6.45, "note_off_time": 7.882}, {"pitch": 42, "velocity": 100, "note_on_time": 7.167, "note_off_time": 7.882}, {"pitch": 62, "velocity": 100, "note_on_time": 7.882, "note_off_time": 8.598}, {"pitch": 42, "velocity": 100, "note_on_time": 7.882, "note_off_time": 8.598}, {"pitch": 39, "velocity": 100, "note_on_time": 8.598, "note_off_time": 9.315}, {"pitch": 62, "velocity": 100, "note_on_time": 8.598, "note_off_time": 10.03}, {"pitch": 42, "velocity": 100, "note_on_time": 9.315, "note_off_time": 10.031}, {"pitch": 62, "velocity": 100, "note_on_time": 10.03, "note_off_time": 10.747}, {"pitch": 42, "velocity": 100, "note_on_time": 10.031, "note_off_time": 10.747}, {"pitch": 39, "velocity": 100, "note_on_time": 10.747, "note_off_time": 11.461}, {"pitch": 62, "velocity": 100, "note_on_time": 10.747, "note_off_time": 12.177}, {"pitch": 42, "velocity": 100, "note_on_time": 11.461, "note_off_time": 12.178}, {"pitch": 62, "velocity": 100, "note_on_time": 12.177, "note_off_time": 12.894}, {"pitch": 42, "velocity": 100, "note_on_time": 12.178, "note_off_time": 12.894}, {"pitch": 39, "velocity": 100, "note_on_time": 12.894, "note_off_time": 13.609}, {"pitch": 62, "velocity": 100, "note_on_time": 12.894, "note_off_time": 14.324}, {"pitch": 42, "velocity": 100, "note_on_time": 13.61, "note_off_time": 14.325}, {"pitch": 62, "velocity": 100, "note_on_time": 14.324, "note_off_time": 15.042}, {"pitch": 42, "velocity": 100, "note_on_time": 14.325, "note_off_time": 15.042}, {"pitch": 62, "velocity": 100, "note_on_time": 15.042, "note_off_time": 15.759}, {"pitch": 39, "velocity": 100, "note_on_time": 15.043, "note_off_time": 15.76}, {"pitch": 62, "velocity": 100, "note_on_time": 15.759, "note_off_time": 16.477}, {"pitch": 42, "velocity": 100, "note_on_time": 15.76, "note_off_time": 16.477}, {"pitch": 62, "velocity": 100, "note_on_time": 16.477, "note_off_time": 17.193}, {"pitch": 42, "velocity": 100, "note_on_time": 16.477, "note_off_time": 17.193}, {"pitch": 62, "velocity": 100, "note_on_time": 17.193, "note_off_time": 17.905}, {"pitch": 39, "velocity": 100, "note_on_time": 17.193, "note_off_time": 17.905}, {"pitch": 62, "velocity": 100, "note_on_time": 17.905, "note_off_time": 18.626}, {"pitch": 42, "velocity": 100, "note_on_time": 17.905, "note_off_time": 18.626}, {"pitch": 62, "velocity": 100, "note_on_time": 18.626, "note_off_time": 19.343}, {"pitch": 42, "velocity": 100, "note_on_time": 18.626, "note_off_time": 19.343}, {"pitch": 39, "velocity": 100, "note_on_time": 19.344, "note_off_time": 20.058}, {"pitch": 62, "velocity": 100, "note_on_time": 19.343, "note_off_time": 20.772}, {"pitch": 42, "velocity": 100, "note_on_time": 20.058, "note_off_time": 20.773}, {"pitch": 62, "velocity": 100, "note_on_time": 20.772, "note_off_time": 21.489}, {"pitch": 42, "velocity": 100, "note_on_time": 20.773, "note_off_time": 21.489}, {"pitch": 39, "velocity": 100, "note_on_time": 21.489, "note_off_time": 22.205}, {"pitch": 62, "velocity": 100, "note_on_time": 21.489, "note_off_time": 22.921}, {"pitch": 42, "velocity": 100, "note_on_time": 22.206, "note_off_time": 22.922}, {"pitch": 62, "velocity": 100, "note_on_time": 22.921, "note_off_time": 23.637}, {"pitch": 42, "velocity": 100, "note_on_time": 22.922, "note_off_time": 23.637}, {"pitch": 62, "velocity": 100, "note_on_time": 23.637, "note_off_time": 24.353}, {"pitch": 39, "velocity": 100, "note_on_time": 23.637, "note_off_time": 24.353}, {"pitch": 62, "velocity": 100, "note_on_time": 24.353, "note_off_time": 25.071}, {"pitch": 42, "velocity": 100, "note_on_time": 24.354, "note_off_time": 25.072}, {"pitch": 62, "velocity": 100, "note_on_time": 25.071, "note_off_time": 25.787}, {"pitch": 42, "velocity": 100, "note_on_time": 25.072, "note_off_time": 25.787}, {"pitch": 39, "velocity": 100, "note_on_time": 25.787, "note_off_time": 26.504}, {"pitch": 62, "velocity": 100, "note_on_time": 25.787, "note_off_time": 27.221}, {"pitch": 42, "velocity": 100, "note_on_time": 26.504, "note_off_time": 27.221}, {"pitch": 62, "velocity": 100, "note_on_time": 27.221, "note_off_time": 27.938}, {"pitch": 42, "velocity": 100, "note_on_time": 27.221, "note_off_time": 27.938}, {"pitch": 39, "velocity": 100, "note_on_time": 27.939, "note_off_time": 28.655}, {"pitch": 42, "velocity": 100, "note_on_time": 28.655, "note_off_time": 29.373}, {"pitch": 62, "velocity": 100, "note_on_time": 27.938, "note_off_time": 30.085}, {"pitch": 42, "velocity": 100, "note_on_time": 29.374, "note_off_time": 30.085}, {"pitch": 39, "velocity": 100, "note_on_time": 30.086, "note_off_time": 30.802}, {"pitch": 62, "velocity": 100, "note_on_time": 30.085, "note_off_time": 31.517}, {"pitch": 42, "velocity": 100, "note_on_time": 30.802, "note_off_time": 31.517}, {"pitch": 62, "velocity": 100, "note_on_time": 31.517, "note_off_time": 32.23}, {"pitch": 42, "velocity": 100, "note_on_time": 31.517, "note_off_time": 32.231}, {"pitch": 62, "velocity": 100, "note_on_time": 32.23, "note_off_time": 32.948}, {"pitch": 39, "velocity": 100, "note_on_time": 32.231, "note_off_time": 32.948}, {"pitch": 62, "velocity": 100, "note_on_time": 32.948, "note_off_time": 33.666}, {"pitch": 42, "velocity": 100, "note_on_time": 32.948, "note_off_time": 33.666}, {"pitch": 62, "velocity": 100, "note_on_time": 33.666, "note_off_time": 34.384}, {"pitch": 42, "velocity": 100, "note_on_time": 33.667, "note_off_time": 34.384}, {"pitch": 62, "velocity": 100, "note_on_time": 34.384, "note_off_time": 35.105}, {"pitch": 39, "velocity": 100, "note_on_time": 34.384, "note_off_time": 35.105}, {"pitch": 62, "velocity": 100, "note_on_time": 35.105, "note_off_time": 35.819}, {"pitch": 42, "velocity": 100, "note_on_time": 35.105, "note_off_time": 35.819}, {"pitch": 62, "velocity": 100, "note_on_time": 35.819, "note_off_time": 36.536}, {"pitch": 42, "velocity": 100, "note_on_time": 35.819, "note_off_time": 36.536}, {"pitch": 39, "velocity": 100, "note_on_time": 36.536, "note_off_time": 37.257}, {"pitch": 62, "velocity": 100, "note_on_time": 36.536, "note_off_time": 37.971}, {"pitch": 42, "velocity": 100, "note_on_time": 37.257, "note_off_time": 37.971}, {"pitch": 42, "velocity": 100, "note_on_time": 37.972, "note_off_time": 38.686}]</notes><options name="Option List">((4, 4), [0.5, 0.25], 3, 7, &lt;NoteRangePerHand.TWO_NOTES: 3&gt;, &lt;NoteRangePerHand.ONE_NOTE: 2&gt;, False, True, True, None)</options></target_notes><trials><trial trial_no="1" timestamp="2023_01_29-13_24_43"><notes name="Played Notes">[{"pitch": 64, "velocity": 60, "note_on_time": 3.602, "note_off_time": 4.007}, {"pitch": 64, "velocity": 61, "note_on_time": 4.333, "note_off_time": 4.687}, {"pitch": 64, "velocity": 47, "note_on_time": 5.019, "note_off_time": 5.32}, {"pitch": 64, "velocity": 56, "note_on_time": 5.696, "note_off_time": 6.022}, {"pitch": 64, "velocity": 52, "note_on_time": 6.341, "note_off_time": 7.462}, {"pitch": 64, "velocity": 45, "note_on_time": 7.847, "note_off_time": 8.115}, {"pitch": 64, "velocity": 51, "note_on_time": 8.482, "note_off_time": 9.892}, {"pitch": 64, "velocity": 49, "note_on_time": 10.242, "note_off_time": 10.459}, {"pitch": 64, "velocity": 51, "note_on_time": 10.892, "note_off_time": 12.378}, {"pitch": 64, "velocity": 40, "note_on_time": 12.858, "note_off_time": 13.083}, {"pitch": 64, "velocity": 47, "note_on_time": 13.562, "note_off_time": 15.129}, {"pitch": 64, "velocity": 39, "note_on_time": 15.677, "note_off_time": 15.948}, {"pitch": 64, "velocity": 40, "note_on_time": 16.39, "note_off_time": 16.642}, {"pitch": 64, "velocity": 38, "note_on_time": 17.102, "note_off_time": 17.351}, {"pitch": 64, "velocity": 35, "note_on_time": 17.789, "note_off_time": 18.049}, {"pitch": 64, "velocity": 39, "note_on_time": 18.543, "note_off_time": 18.747}, {"pitch": 64, "velocity": 40, "note_on_time": 19.23, "note_off_time": 19.424}, {"pitch": 64, "velocity": 47, "note_on_time": 19.991, "note_off_time": 21.465}, {"pitch": 64, "velocity": 39, "note_on_time": 22.213, "note_off_time": 22.544}, {"pitch": 64, "velocity": 43, "note_on_time": 22.903, "note_off_time": 24.2}, {"pitch": 64, "velocity": 37, "note_on_time": 24.937, "note_off_time": 25.234}, {"pitch": 64, "velocity": 41, "note_on_time": 25.964, "note_off_time": 26.235}, {"pitch": 64, "velocity": 43, "note_on_time": 26.622, "note_off_time": 26.917}, {"pitch": 64, "velocity": 42, "note_on_time": 27.316, "note_off_time": 27.574}, {"pitch": 64, "velocity": 41, "note_on_time": 28.013, "note_off_time": 28.992}, {"pitch": 64, "velocity": 37, "note_on_time": 29.355, "note_off_time": 29.746}, {"pitch": 64, "velocity": 44, "note_on_time": 30.343, "note_off_time": 31.883}, {"pitch": 64, "velocity": 46, "note_on_time": 32.374, "note_off_time": 33.892}, {"pitch": 64, "velocity": 51, "note_on_time": 34.249, "note_off_time": 34.6}, {"pitch": 64, "velocity": 44, "note_on_time": 35.001, "note_off_time": 35.359}, {"pitch": 64, "velocity": 41, "note_on_time": 35.75, "note_off_time": 36.112}, {"pitch": 64, "velocity": 32, "note_on_time": 36.512, "note_off_time": 36.862}, {"pitch": 64, "velocity": 25, "note_on_time": 37.252, "note_off_time": 37.554}, {"pitch": 64, "velocity": 36, "note_on_time": 37.928, "note_off_time": 38.192}]</notes><guidance name="Guidance Mode">None</guidance><error name="Error value">1.443796629291831</error></trial></trials></MIDI>