<MIDI midiNo="2023_01_29-12_55_44"><target_notes><notes name="Note List">[{"pitch": 39, "velocity": 100, "note_on_time": 0.006, "note_off_time": 0.723}, {"pitch": 42, "velocity": 100, "note_on_time": 0.723, "note_off_time": 1.437}, {"pitch": 42, "velocity": 100, "note_on_time": 1.437, "note_off_time": 2.153}, {"pitch": 42, "velocity": 100, "note_on_time": 2.153, "note_off_time": 2.869}, {"pitch": 39, "velocity": 100, "note_on_time": 2.869, "note_off_time": 3.583}, {"pitch": 42, "velocity": 100, "note_on_time": 3.583, "note_off_time": 4.298}, {"pitch": 42, "velocity": 100, "note_on_time": 4.299, "note_off_time": 5.017}, {"pitch": 60, "velocity": 100, "note_on_time": 2.869, "note_off_time": 5.734}, {"pitch": 42, "velocity": 100, "note_on_time": 5.017, "note_off_time": 5.734}, {"pitch": 39, "velocity": 100, "note_on_time": 5.735, "note_off_time": 6.45}, {"pitch": 42, "velocity": 100, "note_on_time": 6.45, "note_off_time": 7.169}, {"pitch": 42, "velocity": 100, "note_on_time": 7.169, "note_off_time": 7.887}, {"pitch": 62, "velocity": 100, "note_on_time": 5.734, "note_off_time": 8.599}, {"pitch": 42, "velocity": 100, "note_on_time": 7.887, "note_off_time": 8.599}, {"pitch": 39, "velocity": 100, "note_on_time": 8.599, "note_off_time": 9.315}, {"pitch": 60, "velocity": 100, "note_on_time": 8.599, "note_off_time": 10.029}, {"pitch": 42, "velocity": 100, "note_on_time": 9.315, "note_off_time": 10.029}, {"pitch": 42, "velocity": 100, "note_on_time": 10.03, "note_off_time": 10.744}, {"pitch": 62, "velocity": 100, "note_on_time": 10.029, "note_off_time": 11.457}, {"pitch": 42, "velocity": 100, "note_on_time": 10.744, "note_off_time": 11.458}, {"pitch": 39, "velocity": 100, "note_on_time": 11.458, "note_off_time": 12.176}, {"pitch": 60, "velocity": 100, "note_on_time": 11.457, "note_off_time": 12.893}, {"pitch": 42, "velocity": 100, "note_on_time": 12.176, "note_off_time": 12.894}, {"pitch": 42, "velocity": 100, "note_on_time": 12.894, "note_off_time": 13.609}, {"pitch": 62, "velocity": 100, "note_on_time": 12.893, "note_off_time": 14.325}, {"pitch": 42, "velocity": 100, "note_on_time": 13.609, "note_off_time": 14.325}, {"pitch": 60, "velocity": 100, "note_on_time": 14.325, "note_off_time": 15.041}, {"pitch": 39, "velocity": 100, "note_on_time": 14.325, "note_off_time": 15.042}, {"pitch": 62, "velocity": 100, "note_on_time": 15.041, "note_off_time": 15.754}, {"pitch": 42, "velocity": 100, "note_on_time": 15.042, "note_off_time": 15.755}, {"pitch": 60, "velocity": 100, "note_on_time": 15.754, "note_off_time": 16.469}, {"pitch": 42, "velocity": 100, "note_on_time": 15.755, "note_off_time": 16.47}, {"pitch": 62, "velocity": 100, "note_on_time": 16.469, "note_off_time": 17.187}, {"pitch": 42, "velocity": 100, "note_on_time": 16.47, "note_off_time": 17.187}, {"pitch": 60, "velocity": 100, "note_on_time": 17.187, "note_off_time": 17.905}, {"pitch": 39, "velocity": 100, "note_on_time": 17.187, "note_off_time": 17.905}, {"pitch": 62, "velocity": 100, "note_on_time": 17.905, "note_off_time": 18.622}, {"pitch": 42, "velocity": 100, "note_on_time": 17.906, "note_off_time": 18.622}, {"pitch": 60, "velocity": 100, "note_on_time": 18.622, "note_off_time": 19.339}, {"pitch": 42, "velocity": 100, "note_on_time": 18.623, "note_off_time": 19.339}, {"pitch": 62, "velocity": 100, "note_on_time": 19.339, "note_off_time": 20.056}, {"pitch": 42, "velocity": 100, "note_on_time": 19.339, "note_off_time": 20.057}, {"pitch": 60, "velocity": 100, "note_on_time": 20.056, "note_off_time": 20.775}, {"pitch": 39, "velocity": 100, "note_on_time": 20.057, "note_off_time": 20.776}, {"pitch": 60, "velocity": 100, "note_on_time": 20.775, "note_off_time": 21.493}, {"pitch": 42, "velocity": 100, "note_on_time": 20.776, "note_off_time": 21.493}, {"pitch": 60, "velocity": 100, "note_on_time": 21.493, "note_off_time": 22.207}, {"pitch": 42, "velocity": 100, "note_on_time": 21.493, "note_off_time": 22.207}, {"pitch": 60, "velocity": 100, "note_on_time": 22.207, "note_off_time": 22.921}, {"pitch": 42, "velocity": 100, "note_on_time": 22.207, "note_off_time": 22.921}, {"pitch": 60, "velocity": 100, "note_on_time": 22.921, "note_off_time": 23.636}, {"pitch": 39, "velocity": 100, "note_on_time": 22.921, "note_off_time": 23.637}, {"pitch": 60, "velocity": 100, "note_on_time": 23.636, "note_off_time": 24.353}, {"pitch": 42, "velocity": 100, "note_on_time": 23.637, "note_off_time": 24.353}, {"pitch": 60, "velocity": 100, "note_on_time": 24.353, "note_off_time": 25.068}, {"pitch": 42, "velocity": 100, "note_on_time": 24.353, "note_off_time": 25.069}, {"pitch": 60, "velocity": 100, "note_on_time": 25.068, "note_off_time": 25.786}, {"pitch": 42, "velocity": 100, "note_on_time": 25.069, "note_off_time": 25.786}]</notes><options name="Option List">((4, 4), [0.5, 0.25], 3, 7, &lt;NoteRangePerHand.TWO_NOTES: 3&gt;, &lt;NoteRangePerHand.ONE_NOTE: 2&gt;, False, True, True, None)</options></target_notes><trials><trial trial_no="1" timestamp="2023_01_29-12_55_44"><notes name="Played Notes">[{"pitch": 60, "velocity": 77, "note_on_time": 2.801, "note_off_time": 5.687}, {"pitch": 64, "velocity": 76, "note_on_time": 5.656, "note_off_time": 6.281}, {"pitch": 60, "velocity": 84, "note_on_time": 8.533, "note_off_time": 9.983}, {"pitch": 62, "velocity": 69, "note_on_time": 9.993, "note_off_time": 11.421}, {"pitch": 60, "velocity": 73, "note_on_time": 11.409, "note_off_time": 12.867}, {"pitch": 62, "velocity": 69, "note_on_time": 12.858, "note_off_time": 14.332}, {"pitch": 60, "velocity": 71, "note_on_time": 14.311, "note_off_time": 14.97}, {"pitch": 62, "velocity": 67, "note_on_time": 14.948, "note_off_time": 15.617}, {"pitch": 60, "velocity": 59, "note_on_time": 15.597, "note_off_time": 16.322}, {"pitch": 62, "velocity": 67, "note_on_time": 16.298, "note_off_time": 17.03}, {"pitch": 60, "velocity": 62, "note_on_time": 17.013, "note_off_time": 17.749}, {"pitch": 62, "velocity": 60, "note_on_time": 17.717, "note_off_time": 18.464}, {"pitch": 60, "velocity": 62, "note_on_time": 18.472, "note_off_time": 19.253}, {"pitch": 62, "velocity": 62, "note_on_time": 19.246, "note_off_time": 19.98}, {"pitch": 60, "velocity": 64, "note_on_time": 19.982, "note_off_time": 20.448}, {"pitch": 60, "velocity": 69, "note_on_time": 20.704, "note_off_time": 21.079}, {"pitch": 60, "velocity": 67, "note_on_time": 21.418, "note_off_time": 21.774}, {"pitch": 60, "velocity": 64, "note_on_time": 22.175, "note_off_time": 22.442}, {"pitch": 60, "velocity": 52, "note_on_time": 22.888, "note_off_time": 23.21}, {"pitch": 60, "velocity": 59, "note_on_time": 23.576, "note_off_time": 23.884}, {"pitch": 60, "velocity": 52, "note_on_time": 24.303, "note_off_time": 24.595}, {"pitch": 60, "velocity": 63, "note_on_time": 25.009, "note_off_time": 25.319}]</notes><guidance name="Guidance Mode">None</guidance><error name="Error value">0.9570372060606072</error></trial></trials></MIDI>