<MIDI midiNo="2023_01_29-13_42_36"><target_notes><notes name="Note List">[{"pitch": 39, "velocity": 100, "note_on_time": 0.005, "note_off_time": 0.715}, {"pitch": 42, "velocity": 100, "note_on_time": 0.716, "note_off_time": 1.432}, {"pitch": 42, "velocity": 100, "note_on_time": 1.432, "note_off_time": 2.148}, {"pitch": 42, "velocity": 100, "note_on_time": 2.149, "note_off_time": 2.864}, {"pitch": 39, "velocity": 100, "note_on_time": 2.864, "note_off_time": 3.579}, {"pitch": 42, "velocity": 100, "note_on_time": 3.579, "note_off_time": 4.292}, {"pitch": 42, "velocity": 100, "note_on_time": 4.292, "note_off_time": 5.007}, {"pitch": 67, "velocity": 100, "note_on_time": 5.366, "note_off_time": 5.72}, {"pitch": 42, "velocity": 100, "note_on_time": 5.007, "note_off_time": 5.72}, {"pitch": 74, "velocity": 100, "note_on_time": 5.72, "note_off_time": 6.437}, {"pitch": 39, "velocity": 100, "note_on_time": 5.72, "note_off_time": 6.437}, {"pitch": 71, "velocity": 100, "note_on_time": 6.437, "note_off_time": 6.796}, {"pitch": 67, "velocity": 100, "note_on_time": 6.796, "note_off_time": 7.153}, {"pitch": 42, "velocity": 100, "note_on_time": 6.438, "note_off_time": 7.153}, {"pitch": 74, "velocity": 100, "note_on_time": 7.153, "note_off_time": 7.868}, {"pitch": 42, "velocity": 100, "note_on_time": 7.153, "note_off_time": 7.869}, {"pitch": 71, "velocity": 100, "note_on_time": 7.868, "note_off_time": 8.226}, {"pitch": 67, "velocity": 100, "note_on_time": 8.226, "note_off_time": 8.582}, {"pitch": 42, "velocity": 100, "note_on_time": 7.869, "note_off_time": 8.582}, {"pitch": 74, "velocity": 100, "note_on_time": 8.582, "note_off_time": 8.939}, {"pitch": 74, "velocity": 100, "note_on_time": 8.939, "note_off_time": 9.297}, {"pitch": 39, "velocity": 100, "note_on_time": 8.582, "note_off_time": 9.297}, {"pitch": 76, "velocity": 100, "note_on_time": 9.297, "note_off_time": 9.654}, {"pitch": 76, "velocity": 100, "note_on_time": 9.654, "note_off_time": 10.012}, {"pitch": 42, "velocity": 100, "note_on_time": 9.297, "note_off_time": 10.012}, {"pitch": 74, "velocity": 100, "note_on_time": 10.012, "note_off_time": 10.727}, {"pitch": 42, "velocity": 100, "note_on_time": 10.013, "note_off_time": 10.727}, {"pitch": 71, "velocity": 100, "note_on_time": 10.727, "note_off_time": 11.087}, {"pitch": 67, "velocity": 100, "note_on_time": 11.087, "note_off_time": 11.443}, {"pitch": 42, "velocity": 100, "note_on_time": 10.728, "note_off_time": 11.443}, {"pitch": 74, "velocity": 100, "note_on_time": 11.443, "note_off_time": 11.802}, {"pitch": 74, "velocity": 100, "note_on_time": 11.802, "note_off_time": 12.162}, {"pitch": 39, "velocity": 100, "note_on_time": 11.444, "note_off_time": 12.162}, {"pitch": 71, "velocity": 100, "note_on_time": 12.162, "note_off_time": 12.519}, {"pitch": 67, "velocity": 100, "note_on_time": 12.519, "note_off_time": 12.878}, {"pitch": 42, "velocity": 100, "note_on_time": 12.162, "note_off_time": 12.878}, {"pitch": 74, "velocity": 100, "note_on_time": 12.878, "note_off_time": 13.234}, {"pitch": 74, "velocity": 100, "note_on_time": 13.234, "note_off_time": 13.592}, {"pitch": 42, "velocity": 100, "note_on_time": 12.879, "note_off_time": 13.592}, {"pitch": 71, "velocity": 100, "note_on_time": 13.592, "note_off_time": 13.951}, {"pitch": 67, "velocity": 100, "note_on_time": 13.951, "note_off_time": 14.308}, {"pitch": 42, "velocity": 100, "note_on_time": 13.592, "note_off_time": 14.308}, {"pitch": 74, "velocity": 100, "note_on_time": 14.308, "note_off_time": 14.666}, {"pitch": 74, "velocity": 100, "note_on_time": 14.666, "note_off_time": 15.024}, {"pitch": 39, "velocity": 100, "note_on_time": 14.309, "note_off_time": 15.025}, {"pitch": 76, "velocity": 100, "note_on_time": 15.024, "note_off_time": 15.384}, {"pitch": 76, "velocity": 100, "note_on_time": 15.384, "note_off_time": 15.741}, {"pitch": 42, "velocity": 100, "note_on_time": 15.025, "note_off_time": 15.741}, {"pitch": 74, "velocity": 100, "note_on_time": 15.741, "note_off_time": 16.456}, {"pitch": 42, "velocity": 100, "note_on_time": 15.741, "note_off_time": 16.457}, {"pitch": 71, "velocity": 100, "note_on_time": 16.456, "note_off_time": 16.816}, {"pitch": 42, "velocity": 100, "note_on_time": 16.457, "note_off_time": 17.174}]</notes><options name="Option List">((4, 4), [0.5, 0.25], 3, 7, &lt;NoteRangePerHand.TWO_NOTES: 3&gt;, &lt;NoteRangePerHand.ONE_NOTE: 2&gt;, False, True, True, None)</options></target_notes><trials><trial trial_no="1" timestamp="2023_01_29-13_42_36"><notes name="Played Notes">[{"pitch": 67, "velocity": 47, "note_on_time": 6.09, "note_off_time": 6.464}, {"pitch": 72, "velocity": 56, "note_on_time": 6.453, "note_off_time": 7.169}, {"pitch": 69, "velocity": 55, "note_on_time": 7.153, "note_off_time": 7.503}, {"pitch": 71, "velocity": 46, "note_on_time": 7.513, "note_off_time": 7.881}, {"pitch": 67, "velocity": 67, "note_on_time": 7.879, "note_off_time": 8.612}, {"pitch": 72, "velocity": 49, "note_on_time": 8.635, "note_off_time": 8.924}, {"pitch": 71, "velocity": 39, "note_on_time": 8.964, "note_off_time": 9.394}, {"pitch": 69, "velocity": 43, "note_on_time": 9.373, "note_off_time": 9.596}, {"pitch": 71, "velocity": 39, "note_on_time": 9.7, "note_off_time": 10.134}, {"pitch": 72, "velocity": 52, "note_on_time": 10.104, "note_off_time": 10.395}, {"pitch": 71, "velocity": 34, "note_on_time": 10.445, "note_off_time": 10.832}, {"pitch": 67, "velocity": 62, "note_on_time": 10.864, "note_off_time": 11.509}, {"pitch": 71, "velocity": 42, "note_on_time": 11.539, "note_off_time": 11.907}, {"pitch": 69, "velocity": 48, "note_on_time": 11.877, "note_off_time": 12.211}, {"pitch": 71, "velocity": 47, "note_on_time": 12.296, "note_off_time": 12.567}, {"pitch": 72, "velocity": 46, "note_on_time": 12.618, "note_off_time": 12.972}, {"pitch": 71, "velocity": 37, "note_on_time": 12.993, "note_off_time": 13.359}, {"pitch": 69, "velocity": 38, "note_on_time": 13.374, "note_off_time": 13.715}, {"pitch": 71, "velocity": 38, "note_on_time": 13.737, "note_off_time": 14.069}, {"pitch": 72, "velocity": 41, "note_on_time": 14.082, "note_off_time": 14.4}, {"pitch": 71, "velocity": 40, "note_on_time": 14.433, "note_off_time": 14.826}, {"pitch": 69, "velocity": 58, "note_on_time": 14.79, "note_off_time": 15.114}, {"pitch": 71, "velocity": 40, "note_on_time": 15.149, "note_off_time": 15.438}, {"pitch": 72, "velocity": 46, "note_on_time": 15.481, "note_off_time": 15.825}, {"pitch": 71, "velocity": 47, "note_on_time": 15.831, "note_off_time": 16.282}, {"pitch": 69, "velocity": 38, "note_on_time": 16.249, "note_off_time": 16.589}]</notes><guidance name="Guidance Mode">None</guidance><error name="Error value">0.9518422637362635</error></trial></trials></MIDI>