<MIDI midiNo="2023_01_29-13_47_08"><target_notes><notes name="Note List">[{"pitch": 39, "velocity": 100, "note_on_time": 0.005, "note_off_time": 0.718}, {"pitch": 42, "velocity": 100, "note_on_time": 0.718, "note_off_time": 1.438}, {"pitch": 42, "velocity": 100, "note_on_time": 1.438, "note_off_time": 2.15}, {"pitch": 42, "velocity": 100, "note_on_time": 2.15, "note_off_time": 2.867}, {"pitch": 39, "velocity": 100, "note_on_time": 2.867, "note_off_time": 3.583}, {"pitch": 42, "velocity": 100, "note_on_time": 3.583, "note_off_time": 4.299}, {"pitch": 42, "velocity": 100, "note_on_time": 4.299, "note_off_time": 5.019}, {"pitch": 67, "velocity": 100, "note_on_time": 5.388, "note_off_time": 5.745}, {"pitch": 42, "velocity": 100, "note_on_time": 5.021, "note_off_time": 5.745}, {"pitch": 74, "velocity": 100, "note_on_time": 5.745, "note_off_time": 6.46}, {"pitch": 39, "velocity": 100, "note_on_time": 5.745, "note_off_time": 6.46}, {"pitch": 71, "velocity": 100, "note_on_time": 6.46, "note_off_time": 6.82}, {"pitch": 67, "velocity": 100, "note_on_time": 6.82, "note_off_time": 7.178}, {"pitch": 42, "velocity": 100, "note_on_time": 6.46, "note_off_time": 7.178}, {"pitch": 74, "velocity": 100, "note_on_time": 7.178, "note_off_time": 7.896}, {"pitch": 42, "velocity": 100, "note_on_time": 7.178, "note_off_time": 7.896}, {"pitch": 71, "velocity": 100, "note_on_time": 7.896, "note_off_time": 8.254}, {"pitch": 67, "velocity": 100, "note_on_time": 8.254, "note_off_time": 8.612}, {"pitch": 42, "velocity": 100, "note_on_time": 7.896, "note_off_time": 8.612}, {"pitch": 74, "velocity": 100, "note_on_time": 8.612, "note_off_time": 8.969}, {"pitch": 74, "velocity": 100, "note_on_time": 8.969, "note_off_time": 9.328}, {"pitch": 39, "velocity": 100, "note_on_time": 8.613, "note_off_time": 9.328}, {"pitch": 76, "velocity": 100, "note_on_time": 9.328, "note_off_time": 9.686}, {"pitch": 76, "velocity": 100, "note_on_time": 9.686, "note_off_time": 10.044}, {"pitch": 42, "velocity": 100, "note_on_time": 9.329, "note_off_time": 10.045}, {"pitch": 74, "velocity": 100, "note_on_time": 10.044, "note_off_time": 10.761}, {"pitch": 42, "velocity": 100, "note_on_time": 10.045, "note_off_time": 10.761}, {"pitch": 71, "velocity": 100, "note_on_time": 10.761, "note_off_time": 11.118}, {"pitch": 67, "velocity": 100, "note_on_time": 11.118, "note_off_time": 11.479}, {"pitch": 42, "velocity": 100, "note_on_time": 10.761, "note_off_time": 11.479}, {"pitch": 74, "velocity": 100, "note_on_time": 11.479, "note_off_time": 11.836}, {"pitch": 74, "velocity": 100, "note_on_time": 11.836, "note_off_time": 12.196}, {"pitch": 39, "velocity": 100, "note_on_time": 11.48, "note_off_time": 12.196}, {"pitch": 71, "velocity": 100, "note_on_time": 12.196, "note_off_time": 12.556}, {"pitch": 67, "velocity": 100, "note_on_time": 12.556, "note_off_time": 12.914}, {"pitch": 42, "velocity": 100, "note_on_time": 12.196, "note_off_time": 12.914}, {"pitch": 74, "velocity": 100, "note_on_time": 12.914, "note_off_time": 13.271}, {"pitch": 74, "velocity": 100, "note_on_time": 13.271, "note_off_time": 13.63}, {"pitch": 42, "velocity": 100, "note_on_time": 12.914, "note_off_time": 13.63}, {"pitch": 71, "velocity": 100, "note_on_time": 13.63, "note_off_time": 13.988}, {"pitch": 67, "velocity": 100, "note_on_time": 13.988, "note_off_time": 14.346}, {"pitch": 42, "velocity": 100, "note_on_time": 13.631, "note_off_time": 14.346}, {"pitch": 74, "velocity": 100, "note_on_time": 14.346, "note_off_time": 14.701}, {"pitch": 74, "velocity": 100, "note_on_time": 14.701, "note_off_time": 15.058}, {"pitch": 39, "velocity": 100, "note_on_time": 14.346, "note_off_time": 15.058}, {"pitch": 76, "velocity": 100, "note_on_time": 15.058, "note_off_time": 15.415}, {"pitch": 76, "velocity": 100, "note_on_time": 15.415, "note_off_time": 15.773}, {"pitch": 42, "velocity": 100, "note_on_time": 15.058, "note_off_time": 15.773}, {"pitch": 74, "velocity": 100, "note_on_time": 15.773, "note_off_time": 16.488}, {"pitch": 42, "velocity": 100, "note_on_time": 15.774, "note_off_time": 16.488}, {"pitch": 71, "velocity": 100, "note_on_time": 16.488, "note_off_time": 16.844}, {"pitch": 42, "velocity": 100, "note_on_time": 16.488, "note_off_time": 17.203}]</notes><options name="Option List">((4, 4), [0.5, 0.25], 3, 7, &lt;NoteRangePerHand.TWO_NOTES: 3&gt;, &lt;NoteRangePerHand.ONE_NOTE: 2&gt;, False, True, True, None)</options></target_notes><trials /></MIDI>