<MIDI midiNo="2023_01_29-13_06_53"><target_notes><notes name="Note List">[{"pitch": 39, "velocity": 100, "note_on_time": 0.005, "note_off_time": 0.712}, {"pitch": 42, "velocity": 100, "note_on_time": 0.712, "note_off_time": 1.425}, {"pitch": 42, "velocity": 100, "note_on_time": 1.425, "note_off_time": 2.141}, {"pitch": 42, "velocity": 100, "note_on_time": 2.141, "note_off_time": 2.858}, {"pitch": 64, "velocity": 100, "note_on_time": 2.858, "note_off_time": 3.57}, {"pitch": 39, "velocity": 100, "note_on_time": 2.859, "note_off_time": 3.57}, {"pitch": 62, "velocity": 100, "note_on_time": 3.57, "note_off_time": 4.285}, {"pitch": 42, "velocity": 100, "note_on_time": 3.57, "note_off_time": 4.286}, {"pitch": 60, "velocity": 100, "note_on_time": 4.285, "note_off_time": 5.001}, {"pitch": 42, "velocity": 100, "note_on_time": 4.286, "note_off_time": 5.002}, {"pitch": 62, "velocity": 100, "note_on_time": 5.001, "note_off_time": 5.716}, {"pitch": 42, "velocity": 100, "note_on_time": 5.002, "note_off_time": 5.717}, {"pitch": 64, "velocity": 100, "note_on_time": 5.716, "note_off_time": 6.435}, {"pitch": 39, "velocity": 100, "note_on_time": 5.717, "note_off_time": 6.435}, {"pitch": 64, "velocity": 100, "note_on_time": 6.435, "note_off_time": 7.148}, {"pitch": 42, "velocity": 100, "note_on_time": 6.435, "note_off_time": 7.149}, {"pitch": 42, "velocity": 100, "note_on_time": 7.149, "note_off_time": 7.864}, {"pitch": 64, "velocity": 100, "note_on_time": 7.148, "note_off_time": 8.58}, {"pitch": 42, "velocity": 100, "note_on_time": 7.864, "note_off_time": 8.581}, {"pitch": 62, "velocity": 100, "note_on_time": 8.58, "note_off_time": 9.296}, {"pitch": 39, "velocity": 100, "note_on_time": 8.581, "note_off_time": 9.297}, {"pitch": 62, "velocity": 100, "note_on_time": 9.296, "note_off_time": 10.013}, {"pitch": 42, "velocity": 100, "note_on_time": 9.297, "note_off_time": 10.013}, {"pitch": 42, "velocity": 100, "note_on_time": 10.013, "note_off_time": 10.731}, {"pitch": 62, "velocity": 100, "note_on_time": 10.013, "note_off_time": 11.447}, {"pitch": 42, "velocity": 100, "note_on_time": 10.732, "note_off_time": 11.448}, {"pitch": 64, "velocity": 100, "note_on_time": 11.447, "note_off_time": 12.163}, {"pitch": 39, "velocity": 100, "note_on_time": 11.448, "note_off_time": 12.164}, {"pitch": 64, "velocity": 100, "note_on_time": 12.163, "note_off_time": 12.885}, {"pitch": 42, "velocity": 100, "note_on_time": 12.164, "note_off_time": 12.885}, {"pitch": 42, "velocity": 100, "note_on_time": 12.885, "note_off_time": 13.6}, {"pitch": 64, "velocity": 100, "note_on_time": 12.885, "note_off_time": 14.317}, {"pitch": 42, "velocity": 100, "note_on_time": 13.601, "note_off_time": 14.317}, {"pitch": 64, "velocity": 100, "note_on_time": 14.317, "note_off_time": 15.035}, {"pitch": 39, "velocity": 100, "note_on_time": 14.317, "note_off_time": 15.036}, {"pitch": 62, "velocity": 100, "note_on_time": 15.035, "note_off_time": 15.752}, {"pitch": 42, "velocity": 100, "note_on_time": 15.036, "note_off_time": 15.752}, {"pitch": 60, "velocity": 100, "note_on_time": 15.752, "note_off_time": 16.468}, {"pitch": 42, "velocity": 100, "note_on_time": 15.752, "note_off_time": 16.468}, {"pitch": 62, "velocity": 100, "note_on_time": 16.468, "note_off_time": 17.184}, {"pitch": 42, "velocity": 100, "note_on_time": 16.468, "note_off_time": 17.184}, {"pitch": 64, "velocity": 100, "note_on_time": 17.184, "note_off_time": 17.903}, {"pitch": 39, "velocity": 100, "note_on_time": 17.185, "note_off_time": 17.904}, {"pitch": 64, "velocity": 100, "note_on_time": 17.903, "note_off_time": 18.621}, {"pitch": 42, "velocity": 100, "note_on_time": 17.904, "note_off_time": 18.621}, {"pitch": 64, "velocity": 100, "note_on_time": 18.621, "note_off_time": 19.339}, {"pitch": 42, "velocity": 100, "note_on_time": 18.621, "note_off_time": 19.339}, {"pitch": 60, "velocity": 100, "note_on_time": 19.339, "note_off_time": 20.056}, {"pitch": 42, "velocity": 100, "note_on_time": 19.34, "note_off_time": 20.056}, {"pitch": 62, "velocity": 100, "note_on_time": 20.056, "note_off_time": 20.771}, {"pitch": 39, "velocity": 100, "note_on_time": 20.056, "note_off_time": 20.772}, {"pitch": 62, "velocity": 100, "note_on_time": 20.771, "note_off_time": 21.487}, {"pitch": 42, "velocity": 100, "note_on_time": 20.772, "note_off_time": 21.488}, {"pitch": 64, "velocity": 100, "note_on_time": 21.487, "note_off_time": 22.204}, {"pitch": 42, "velocity": 100, "note_on_time": 21.488, "note_off_time": 22.205}, {"pitch": 62, "velocity": 100, "note_on_time": 22.204, "note_off_time": 22.924}, {"pitch": 42, "velocity": 100, "note_on_time": 22.205, "note_off_time": 22.925}, {"pitch": 39, "velocity": 100, "note_on_time": 22.925, "note_off_time": 23.641}, {"pitch": 42, "velocity": 100, "note_on_time": 23.641, "note_off_time": 24.356}, {"pitch": 42, "velocity": 100, "note_on_time": 24.356, "note_off_time": 25.072}, {"pitch": 60, "velocity": 100, "note_on_time": 22.924, "note_off_time": 25.788}, {"pitch": 42, "velocity": 100, "note_on_time": 25.072, "note_off_time": 25.788}]</notes><options name="Option List">((4, 4), [0.5, 0.25], 3, 7, &lt;NoteRangePerHand.TWO_NOTES: 3&gt;, &lt;NoteRangePerHand.ONE_NOTE: 2&gt;, False, True, True, None)</options></target_notes><trials><trial trial_no="1" timestamp="2023_01_29-13_06_53"><notes name="Played Notes">[{"pitch": 64, "velocity": 57, "note_on_time": 2.805, "note_off_time": 3.556}, {"pitch": 62, "velocity": 61, "note_on_time": 3.506, "note_off_time": 4.188}, {"pitch": 60, "velocity": 54, "note_on_time": 4.182, "note_off_time": 4.924}, {"pitch": 62, "velocity": 54, "note_on_time": 4.923, "note_off_time": 5.663}, {"pitch": 64, "velocity": 59, "note_on_time": 5.644, "note_off_time": 6.08}, {"pitch": 64, "velocity": 62, "note_on_time": 6.342, "note_off_time": 6.712}, {"pitch": 64, "velocity": 52, "note_on_time": 7.079, "note_off_time": 8.211}, {"pitch": 62, "velocity": 60, "note_on_time": 8.521, "note_off_time": 9.021}, {"pitch": 62, "velocity": 60, "note_on_time": 9.239, "note_off_time": 9.653}, {"pitch": 62, "velocity": 52, "note_on_time": 9.97, "note_off_time": 11.093}, {"pitch": 64, "velocity": 52, "note_on_time": 11.407, "note_off_time": 11.901}, {"pitch": 64, "velocity": 59, "note_on_time": 12.146, "note_off_time": 12.484}, {"pitch": 64, "velocity": 59, "note_on_time": 12.825, "note_off_time": 13.871}, {"pitch": 64, "velocity": 53, "note_on_time": 14.291, "note_off_time": 15.001}, {"pitch": 62, "velocity": 47, "note_on_time": 14.971, "note_off_time": 15.661}, {"pitch": 60, "velocity": 46, "note_on_time": 15.671, "note_off_time": 16.34}, {"pitch": 62, "velocity": 49, "note_on_time": 16.345, "note_off_time": 17.101}, {"pitch": 64, "velocity": 43, "note_on_time": 17.075, "note_off_time": 17.581}, {"pitch": 64, "velocity": 50, "note_on_time": 17.808, "note_off_time": 18.261}, {"pitch": 64, "velocity": 49, "note_on_time": 18.552, "note_off_time": 19.333}, {"pitch": 60, "velocity": 55, "note_on_time": 19.32, "note_off_time": 20.061}, {"pitch": 62, "velocity": 58, "note_on_time": 20.056, "note_off_time": 20.57}, {"pitch": 62, "velocity": 59, "note_on_time": 20.742, "note_off_time": 21.493}, {"pitch": 64, "velocity": 59, "note_on_time": 21.483, "note_off_time": 22.242}, {"pitch": 62, "velocity": 59, "note_on_time": 22.217, "note_off_time": 22.885}, {"pitch": 60, "velocity": 63, "note_on_time": 22.883, "note_off_time": 24.434}, {"pitch": 72, "velocity": 77, "note_on_time": 24.44, "note_off_time": 25.214}]</notes><guidance name="Guidance Mode">None</guidance><error name="Error value">0.9650367769230747</error></trial></trials></MIDI>