<MIDI midiNo="2023_01_29-13_53_03"><target_notes><notes name="Note List">[{"pitch": 39, "velocity": 100, "note_on_time": 0.005, "note_off_time": 0.804}, {"pitch": 42, "velocity": 100, "note_on_time": 0.804, "note_off_time": 1.597}, {"pitch": 42, "velocity": 100, "note_on_time": 1.597, "note_off_time": 2.393}, {"pitch": 42, "velocity": 100, "note_on_time": 2.394, "note_off_time": 3.186}, {"pitch": 39, "velocity": 100, "note_on_time": 3.186, "note_off_time": 3.979}, {"pitch": 42, "velocity": 100, "note_on_time": 3.979, "note_off_time": 4.771}, {"pitch": 42, "velocity": 100, "note_on_time": 4.771, "note_off_time": 5.565}, {"pitch": 62, "velocity": 100, "note_on_time": 5.969, "note_off_time": 6.375}, {"pitch": 42, "velocity": 100, "note_on_time": 5.565, "note_off_time": 6.376}, {"pitch": 62, "velocity": 100, "note_on_time": 6.375, "note_off_time": 7.169}, {"pitch": 39, "velocity": 100, "note_on_time": 6.376, "note_off_time": 7.169}, {"pitch": 62, "velocity": 100, "note_on_time": 7.169, "note_off_time": 7.575}, {"pitch": 62, "velocity": 100, "note_on_time": 7.575, "note_off_time": 7.978}, {"pitch": 42, "velocity": 100, "note_on_time": 7.169, "note_off_time": 7.978}, {"pitch": 62, "velocity": 100, "note_on_time": 7.978, "note_off_time": 8.775}, {"pitch": 42, "velocity": 100, "note_on_time": 7.978, "note_off_time": 8.776}, {"pitch": 62, "velocity": 100, "note_on_time": 8.775, "note_off_time": 9.18}, {"pitch": 62, "velocity": 100, "note_on_time": 9.18, "note_off_time": 9.585}, {"pitch": 42, "velocity": 100, "note_on_time": 8.776, "note_off_time": 9.586}, {"pitch": 62, "velocity": 100, "note_on_time": 9.585, "note_off_time": 9.99}, {"pitch": 62, "velocity": 100, "note_on_time": 9.99, "note_off_time": 10.394}, {"pitch": 39, "velocity": 100, "note_on_time": 9.586, "note_off_time": 10.395}, {"pitch": 62, "velocity": 100, "note_on_time": 10.394, "note_off_time": 10.801}, {"pitch": 62, "velocity": 100, "note_on_time": 10.801, "note_off_time": 11.205}, {"pitch": 42, "velocity": 100, "note_on_time": 10.395, "note_off_time": 11.206}, {"pitch": 62, "velocity": 100, "note_on_time": 11.205, "note_off_time": 12.004}, {"pitch": 42, "velocity": 100, "note_on_time": 11.206, "note_off_time": 12.004}, {"pitch": 62, "velocity": 100, "note_on_time": 12.004, "note_off_time": 12.412}, {"pitch": 62, "velocity": 100, "note_on_time": 12.412, "note_off_time": 12.818}, {"pitch": 42, "velocity": 100, "note_on_time": 12.005, "note_off_time": 12.819}, {"pitch": 62, "velocity": 100, "note_on_time": 12.818, "note_off_time": 13.223}, {"pitch": 62, "velocity": 100, "note_on_time": 13.223, "note_off_time": 13.628}, {"pitch": 39, "velocity": 100, "note_on_time": 12.819, "note_off_time": 13.628}, {"pitch": 62, "velocity": 100, "note_on_time": 13.628, "note_off_time": 14.033}, {"pitch": 62, "velocity": 100, "note_on_time": 14.033, "note_off_time": 14.439}, {"pitch": 42, "velocity": 100, "note_on_time": 13.628, "note_off_time": 14.439}, {"pitch": 62, "velocity": 100, "note_on_time": 14.439, "note_off_time": 14.843}, {"pitch": 62, "velocity": 100, "note_on_time": 14.843, "note_off_time": 15.247}, {"pitch": 42, "velocity": 100, "note_on_time": 14.439, "note_off_time": 15.247}, {"pitch": 62, "velocity": 100, "note_on_time": 15.247, "note_off_time": 15.654}, {"pitch": 62, "velocity": 100, "note_on_time": 15.654, "note_off_time": 16.057}, {"pitch": 42, "velocity": 100, "note_on_time": 15.247, "note_off_time": 16.057}, {"pitch": 62, "velocity": 100, "note_on_time": 16.057, "note_off_time": 16.464}, {"pitch": 62, "velocity": 100, "note_on_time": 16.464, "note_off_time": 16.869}, {"pitch": 39, "velocity": 100, "note_on_time": 16.057, "note_off_time": 16.869}, {"pitch": 62, "velocity": 100, "note_on_time": 16.869, "note_off_time": 17.274}, {"pitch": 62, "velocity": 100, "note_on_time": 17.274, "note_off_time": 17.677}, {"pitch": 42, "velocity": 100, "note_on_time": 16.869, "note_off_time": 17.677}, {"pitch": 62, "velocity": 100, "note_on_time": 17.677, "note_off_time": 18.47}, {"pitch": 42, "velocity": 100, "note_on_time": 17.678, "note_off_time": 18.471}, {"pitch": 62, "velocity": 100, "note_on_time": 18.47, "note_off_time": 18.875}, {"pitch": 42, "velocity": 100, "note_on_time": 18.471, "note_off_time": 19.28}]</notes><options name="Option List">((4, 4), [0.5, 0.25], 3, 7, &lt;NoteRangePerHand.TWO_NOTES: 3&gt;, &lt;NoteRangePerHand.ONE_NOTE: 2&gt;, False, True, True, None)</options></target_notes><trials><trial trial_no="1" timestamp="2023_01_29-13_53_03"><notes name="Played Notes">[{"pitch": 62, "velocity": 69, "note_on_time": 4.71, "note_off_time": 4.979}, {"pitch": 64, "velocity": 47, "note_on_time": 5.369, "note_off_time": 5.819}, {"pitch": 62, "velocity": 40, "note_on_time": 7.479, "note_off_time": 7.567}, {"pitch": 62, "velocity": 57, "note_on_time": 7.821, "note_off_time": 8.342}, {"pitch": 62, "velocity": 37, "note_on_time": 8.614, "note_off_time": 8.749}, {"pitch": 62, "velocity": 48, "note_on_time": 8.951, "note_off_time": 9.091}, {"pitch": 62, "velocity": 39, "note_on_time": 9.362, "note_off_time": 9.887}, {"pitch": 62, "velocity": 33, "note_on_time": 10.591, "note_off_time": 10.702}, {"pitch": 62, "velocity": 33, "note_on_time": 10.96, "note_off_time": 11.052}, {"pitch": 62, "velocity": 39, "note_on_time": 11.475, "note_off_time": 11.546}, {"pitch": 62, "velocity": 39, "note_on_time": 11.953, "note_off_time": 12.517}, {"pitch": 62, "velocity": 21, "note_on_time": 12.927, "note_off_time": 12.985}, {"pitch": 62, "velocity": 38, "note_on_time": 13.216, "note_off_time": 13.324}, {"pitch": 62, "velocity": 15, "note_on_time": 13.627, "note_off_time": 13.689}, {"pitch": 62, "velocity": 27, "note_on_time": 13.903, "note_off_time": 13.994}, {"pitch": 62, "velocity": 63, "note_on_time": 16.071, "note_off_time": 16.132}, {"pitch": 62, "velocity": 59, "note_on_time": 16.456, "note_off_time": 16.576}, {"pitch": 62, "velocity": 49, "note_on_time": 16.857, "note_off_time": 16.979}, {"pitch": 62, "velocity": 50, "note_on_time": 17.255, "note_off_time": 17.327}, {"pitch": 62, "velocity": 53, "note_on_time": 17.633, "note_off_time": 17.741}, {"pitch": 62, "velocity": 49, "note_on_time": 18.055, "note_off_time": 18.15}, {"pitch": 62, "velocity": 44, "note_on_time": 18.443, "note_off_time": 18.549}, {"pitch": 62, "velocity": 41, "note_on_time": 18.876, "note_off_time": 18.946}]</notes><guidance name="Guidance Mode">None</guidance><error name="Error value">0.6594511645962734</error></trial></trials></MIDI>