<MIDI midiNo="2023_01_29-13_13_46"><target_notes><notes name="Note List">[{"pitch": 39, "velocity": 100, "note_on_time": 0.006, "note_off_time": 0.714}, {"pitch": 42, "velocity": 100, "note_on_time": 0.714, "note_off_time": 1.43}, {"pitch": 42, "velocity": 100, "note_on_time": 1.43, "note_off_time": 2.147}, {"pitch": 42, "velocity": 100, "note_on_time": 2.147, "note_off_time": 2.864}, {"pitch": 64, "velocity": 100, "note_on_time": 2.864, "note_off_time": 3.577}, {"pitch": 39, "velocity": 100, "note_on_time": 2.865, "note_off_time": 3.577}, {"pitch": 64, "velocity": 100, "note_on_time": 3.577, "note_off_time": 4.293}, {"pitch": 42, "velocity": 100, "note_on_time": 3.578, "note_off_time": 4.293}, {"pitch": 65, "velocity": 100, "note_on_time": 4.293, "note_off_time": 5.01}, {"pitch": 42, "velocity": 100, "note_on_time": 4.293, "note_off_time": 5.01}, {"pitch": 67, "velocity": 100, "note_on_time": 5.01, "note_off_time": 5.731}, {"pitch": 42, "velocity": 100, "note_on_time": 5.01, "note_off_time": 5.731}, {"pitch": 67, "velocity": 100, "note_on_time": 5.731, "note_off_time": 6.445}, {"pitch": 39, "velocity": 100, "note_on_time": 5.731, "note_off_time": 6.445}, {"pitch": 65, "velocity": 100, "note_on_time": 6.445, "note_off_time": 7.163}, {"pitch": 42, "velocity": 100, "note_on_time": 6.446, "note_off_time": 7.163}, {"pitch": 64, "velocity": 100, "note_on_time": 7.163, "note_off_time": 7.879}, {"pitch": 42, "velocity": 100, "note_on_time": 7.164, "note_off_time": 7.879}, {"pitch": 62, "velocity": 100, "note_on_time": 7.879, "note_off_time": 8.597}, {"pitch": 42, "velocity": 100, "note_on_time": 7.879, "note_off_time": 8.597}, {"pitch": 60, "velocity": 100, "note_on_time": 8.597, "note_off_time": 9.31}, {"pitch": 39, "velocity": 100, "note_on_time": 8.598, "note_off_time": 9.31}, {"pitch": 60, "velocity": 100, "note_on_time": 9.31, "note_off_time": 10.024}, {"pitch": 42, "velocity": 100, "note_on_time": 9.311, "note_off_time": 10.025}, {"pitch": 62, "velocity": 100, "note_on_time": 10.024, "note_off_time": 10.741}, {"pitch": 42, "velocity": 100, "note_on_time": 10.025, "note_off_time": 10.741}, {"pitch": 64, "velocity": 100, "note_on_time": 10.741, "note_off_time": 11.458}, {"pitch": 42, "velocity": 100, "note_on_time": 10.742, "note_off_time": 11.459}, {"pitch": 64, "velocity": 100, "note_on_time": 11.458, "note_off_time": 12.175}, {"pitch": 39, "velocity": 100, "note_on_time": 11.459, "note_off_time": 12.175}, {"pitch": 62, "velocity": 100, "note_on_time": 12.175, "note_off_time": 12.892}, {"pitch": 42, "velocity": 100, "note_on_time": 12.175, "note_off_time": 12.892}, {"pitch": 42, "velocity": 100, "note_on_time": 12.893, "note_off_time": 13.609}, {"pitch": 62, "velocity": 100, "note_on_time": 12.892, "note_off_time": 14.325}, {"pitch": 42, "velocity": 100, "note_on_time": 13.609, "note_off_time": 14.325}, {"pitch": 64, "velocity": 100, "note_on_time": 14.325, "note_off_time": 15.04}, {"pitch": 39, "velocity": 100, "note_on_time": 14.325, "note_off_time": 15.04}, {"pitch": 64, "velocity": 100, "note_on_time": 15.04, "note_off_time": 15.756}, {"pitch": 42, "velocity": 100, "note_on_time": 15.04, "note_off_time": 15.756}, {"pitch": 65, "velocity": 100, "note_on_time": 15.756, "note_off_time": 16.471}, {"pitch": 42, "velocity": 100, "note_on_time": 15.756, "note_off_time": 16.471}, {"pitch": 67, "velocity": 100, "note_on_time": 16.471, "note_off_time": 17.185}, {"pitch": 42, "velocity": 100, "note_on_time": 16.471, "note_off_time": 17.185}, {"pitch": 67, "velocity": 100, "note_on_time": 17.185, "note_off_time": 17.906}, {"pitch": 39, "velocity": 100, "note_on_time": 17.186, "note_off_time": 17.906}, {"pitch": 65, "velocity": 100, "note_on_time": 17.906, "note_off_time": 18.626}, {"pitch": 42, "velocity": 100, "note_on_time": 17.906, "note_off_time": 18.626}, {"pitch": 64, "velocity": 100, "note_on_time": 18.626, "note_off_time": 19.338}, {"pitch": 42, "velocity": 100, "note_on_time": 18.626, "note_off_time": 19.338}, {"pitch": 62, "velocity": 100, "note_on_time": 19.338, "note_off_time": 20.055}, {"pitch": 42, "velocity": 100, "note_on_time": 19.339, "note_off_time": 20.055}, {"pitch": 60, "velocity": 100, "note_on_time": 20.055, "note_off_time": 20.773}, {"pitch": 39, "velocity": 100, "note_on_time": 20.056, "note_off_time": 20.773}, {"pitch": 60, "velocity": 100, "note_on_time": 20.773, "note_off_time": 21.489}, {"pitch": 42, "velocity": 100, "note_on_time": 20.773, "note_off_time": 21.489}, {"pitch": 62, "velocity": 100, "note_on_time": 21.489, "note_off_time": 22.208}, {"pitch": 42, "velocity": 100, "note_on_time": 21.489, "note_off_time": 22.209}, {"pitch": 64, "velocity": 100, "note_on_time": 22.208, "note_off_time": 22.929}, {"pitch": 42, "velocity": 100, "note_on_time": 22.209, "note_off_time": 22.93}, {"pitch": 62, "velocity": 100, "note_on_time": 22.929, "note_off_time": 23.646}, {"pitch": 39, "velocity": 100, "note_on_time": 22.93, "note_off_time": 23.646}, {"pitch": 60, "velocity": 100, "note_on_time": 23.646, "note_off_time": 24.364}, {"pitch": 42, "velocity": 100, "note_on_time": 23.646, "note_off_time": 24.364}, {"pitch": 42, "velocity": 100, "note_on_time": 24.364, "note_off_time": 25.08}, {"pitch": 60, "velocity": 100, "note_on_time": 24.364, "note_off_time": 25.798}, {"pitch": 42, "velocity": 100, "note_on_time": 25.08, "note_off_time": 25.798}]</notes><options name="Option List">((4, 4), [0.5, 0.25], 3, 7, &lt;NoteRangePerHand.TWO_NOTES: 3&gt;, &lt;NoteRangePerHand.ONE_NOTE: 2&gt;, False, True, True, None)</options></target_notes><trials><trial trial_no="1" timestamp="2023_01_29-13_13_46"><notes name="Played Notes">[{"pitch": 64, "velocity": 67, "note_on_time": 2.821, "note_off_time": 3.36}, {"pitch": 64, "velocity": 55, "note_on_time": 3.522, "note_off_time": 4.061}, {"pitch": 65, "velocity": 52, "note_on_time": 4.252, "note_off_time": 4.778}, {"pitch": 67, "velocity": 52, "note_on_time": 4.965, "note_off_time": 5.383}, {"pitch": 67, "velocity": 50, "note_on_time": 5.682, "note_off_time": 6.139}, {"pitch": 65, "velocity": 51, "note_on_time": 6.413, "note_off_time": 6.841}, {"pitch": 64, "velocity": 48, "note_on_time": 7.115, "note_off_time": 7.596}, {"pitch": 62, "velocity": 49, "note_on_time": 7.878, "note_off_time": 8.29}, {"pitch": 60, "velocity": 54, "note_on_time": 8.572, "note_off_time": 8.923}, {"pitch": 60, "velocity": 47, "note_on_time": 9.257, "note_off_time": 9.704}, {"pitch": 62, "velocity": 41, "note_on_time": 9.994, "note_off_time": 10.358}, {"pitch": 64, "velocity": 52, "note_on_time": 10.699, "note_off_time": 11.047}, {"pitch": 64, "velocity": 51, "note_on_time": 11.421, "note_off_time": 11.789}, {"pitch": 62, "velocity": 43, "note_on_time": 12.117, "note_off_time": 12.455}, {"pitch": 62, "velocity": 42, "note_on_time": 12.838, "note_off_time": 13.975}, {"pitch": 64, "velocity": 58, "note_on_time": 14.275, "note_off_time": 14.767}, {"pitch": 64, "velocity": 54, "note_on_time": 14.973, "note_off_time": 15.467}, {"pitch": 65, "velocity": 56, "note_on_time": 15.681, "note_off_time": 16.134}, {"pitch": 67, "velocity": 47, "note_on_time": 16.385, "note_off_time": 16.801}, {"pitch": 67, "velocity": 53, "note_on_time": 17.122, "note_off_time": 17.551}, {"pitch": 65, "velocity": 45, "note_on_time": 17.812, "note_off_time": 18.203}, {"pitch": 64, "velocity": 46, "note_on_time": 18.533, "note_off_time": 18.746}, {"pitch": 62, "velocity": 42, "note_on_time": 19.237, "note_off_time": 19.516}, {"pitch": 60, "velocity": 49, "note_on_time": 19.956, "note_off_time": 20.284}, {"pitch": 60, "velocity": 45, "note_on_time": 20.667, "note_off_time": 21.082}, {"pitch": 62, "velocity": 42, "note_on_time": 21.402, "note_off_time": 21.851}, {"pitch": 64, "velocity": 54, "note_on_time": 22.135, "note_off_time": 22.52}, {"pitch": 62, "velocity": 46, "note_on_time": 22.858, "note_off_time": 23.49}, {"pitch": 60, "velocity": 50, "note_on_time": 23.772, "note_off_time": 24.133}]</notes><guidance name="Guidance Mode">None</guidance><error name="Error value">0.3096247367816095</error></trial></trials></MIDI>