<MIDI midiNo="2023_01_29-13_52_33"><target_notes><notes name="Note List">[{"pitch": 39, "velocity": 100, "note_on_time": 0.005, "note_off_time": 0.8}, {"pitch": 42, "velocity": 100, "note_on_time": 0.8, "note_off_time": 1.598}, {"pitch": 42, "velocity": 100, "note_on_time": 1.598, "note_off_time": 2.392}, {"pitch": 42, "velocity": 100, "note_on_time": 2.392, "note_off_time": 3.185}, {"pitch": 39, "velocity": 100, "note_on_time": 3.185, "note_off_time": 3.977}, {"pitch": 42, "velocity": 100, "note_on_time": 3.977, "note_off_time": 4.771}, {"pitch": 42, "velocity": 100, "note_on_time": 4.771, "note_off_time": 5.564}, {"pitch": 62, "velocity": 100, "note_on_time": 5.966, "note_off_time": 6.37}, {"pitch": 42, "velocity": 100, "note_on_time": 5.564, "note_off_time": 6.37}, {"pitch": 62, "velocity": 100, "note_on_time": 6.37, "note_off_time": 7.162}, {"pitch": 39, "velocity": 100, "note_on_time": 6.37, "note_off_time": 7.162}, {"pitch": 62, "velocity": 100, "note_on_time": 7.162, "note_off_time": 7.566}, {"pitch": 62, "velocity": 100, "note_on_time": 7.566, "note_off_time": 7.969}, {"pitch": 42, "velocity": 100, "note_on_time": 7.163, "note_off_time": 7.969}, {"pitch": 62, "velocity": 100, "note_on_time": 7.969, "note_off_time": 8.762}, {"pitch": 42, "velocity": 100, "note_on_time": 7.969, "note_off_time": 8.762}, {"pitch": 62, "velocity": 100, "note_on_time": 8.762, "note_off_time": 9.164}, {"pitch": 62, "velocity": 100, "note_on_time": 9.164, "note_off_time": 9.569}, {"pitch": 42, "velocity": 100, "note_on_time": 8.762, "note_off_time": 9.569}, {"pitch": 62, "velocity": 100, "note_on_time": 9.569, "note_off_time": 9.974}, {"pitch": 62, "velocity": 100, "note_on_time": 9.974, "note_off_time": 10.378}, {"pitch": 39, "velocity": 100, "note_on_time": 9.569, "note_off_time": 10.378}, {"pitch": 62, "velocity": 100, "note_on_time": 10.378, "note_off_time": 10.782}, {"pitch": 62, "velocity": 100, "note_on_time": 10.782, "note_off_time": 11.184}, {"pitch": 42, "velocity": 100, "note_on_time": 10.379, "note_off_time": 11.184}, {"pitch": 62, "velocity": 100, "note_on_time": 11.184, "note_off_time": 11.989}, {"pitch": 42, "velocity": 100, "note_on_time": 11.184, "note_off_time": 11.989}, {"pitch": 62, "velocity": 100, "note_on_time": 11.989, "note_off_time": 12.393}, {"pitch": 62, "velocity": 100, "note_on_time": 12.393, "note_off_time": 12.795}, {"pitch": 42, "velocity": 100, "note_on_time": 11.989, "note_off_time": 12.796}, {"pitch": 62, "velocity": 100, "note_on_time": 12.795, "note_off_time": 13.199}, {"pitch": 62, "velocity": 100, "note_on_time": 13.199, "note_off_time": 13.605}, {"pitch": 39, "velocity": 100, "note_on_time": 12.796, "note_off_time": 13.605}, {"pitch": 62, "velocity": 100, "note_on_time": 13.605, "note_off_time": 14.007}, {"pitch": 62, "velocity": 100, "note_on_time": 14.007, "note_off_time": 14.413}, {"pitch": 42, "velocity": 100, "note_on_time": 13.605, "note_off_time": 14.413}, {"pitch": 62, "velocity": 100, "note_on_time": 14.413, "note_off_time": 14.817}, {"pitch": 62, "velocity": 100, "note_on_time": 14.817, "note_off_time": 15.223}, {"pitch": 42, "velocity": 100, "note_on_time": 14.414, "note_off_time": 15.223}, {"pitch": 62, "velocity": 100, "note_on_time": 15.223, "note_off_time": 15.626}, {"pitch": 62, "velocity": 100, "note_on_time": 15.626, "note_off_time": 16.029}, {"pitch": 42, "velocity": 100, "note_on_time": 15.223, "note_off_time": 16.029}, {"pitch": 62, "velocity": 100, "note_on_time": 16.029, "note_off_time": 16.434}, {"pitch": 62, "velocity": 100, "note_on_time": 16.434, "note_off_time": 16.839}, {"pitch": 39, "velocity": 100, "note_on_time": 16.03, "note_off_time": 16.839}, {"pitch": 62, "velocity": 100, "note_on_time": 16.839, "note_off_time": 17.244}, {"pitch": 62, "velocity": 100, "note_on_time": 17.244, "note_off_time": 17.65}, {"pitch": 42, "velocity": 100, "note_on_time": 16.84, "note_off_time": 17.65}, {"pitch": 62, "velocity": 100, "note_on_time": 17.65, "note_off_time": 18.443}, {"pitch": 42, "velocity": 100, "note_on_time": 17.651, "note_off_time": 18.443}, {"pitch": 62, "velocity": 100, "note_on_time": 18.443, "note_off_time": 18.848}, {"pitch": 42, "velocity": 100, "note_on_time": 18.444, "note_off_time": 19.257}]</notes><options name="Option List">((4, 4), [0.5, 0.25], 3, 7, &lt;NoteRangePerHand.TWO_NOTES: 3&gt;, &lt;NoteRangePerHand.ONE_NOTE: 2&gt;, False, True, True, None)</options></target_notes><trials><trial trial_no="1" timestamp="2023_01_29-13_52_33"><notes name="Played Notes">[{"pitch": 62, "velocity": 52, "note_on_time": 5.59, "note_off_time": 5.841}, {"pitch": 62, "velocity": 58, "note_on_time": 6.145, "note_off_time": 6.909}, {"pitch": 62, "velocity": 48, "note_on_time": 7.201, "note_off_time": 7.393}, {"pitch": 62, "velocity": 49, "note_on_time": 7.6, "note_off_time": 7.775}, {"pitch": 62, "velocity": 55, "note_on_time": 8.001, "note_off_time": 8.566}, {"pitch": 62, "velocity": 49, "note_on_time": 8.803, "note_off_time": 8.974}, {"pitch": 62, "velocity": 50, "note_on_time": 9.212, "note_off_time": 9.36}, {"pitch": 62, "velocity": 65, "note_on_time": 9.622, "note_off_time": 10.166}, {"pitch": 62, "velocity": 61, "note_on_time": 10.449, "note_off_time": 10.611}, {"pitch": 62, "velocity": 45, "note_on_time": 10.788, "note_off_time": 10.93}, {"pitch": 62, "velocity": 42, "note_on_time": 11.195, "note_off_time": 11.305}, {"pitch": 62, "velocity": 52, "note_on_time": 11.531, "note_off_time": 12.082}, {"pitch": 62, "velocity": 39, "note_on_time": 12.352, "note_off_time": 12.471}, {"pitch": 62, "velocity": 45, "note_on_time": 12.748, "note_off_time": 12.853}, {"pitch": 62, "velocity": 46, "note_on_time": 13.159, "note_off_time": 13.306}, {"pitch": 62, "velocity": 38, "note_on_time": 13.554, "note_off_time": 13.665}, {"pitch": 62, "velocity": 42, "note_on_time": 13.969, "note_off_time": 14.068}, {"pitch": 62, "velocity": 39, "note_on_time": 14.357, "note_off_time": 14.466}, {"pitch": 62, "velocity": 43, "note_on_time": 14.77, "note_off_time": 14.875}, {"pitch": 62, "velocity": 40, "note_on_time": 15.189, "note_off_time": 15.296}, {"pitch": 62, "velocity": 40, "note_on_time": 15.59, "note_off_time": 15.697}, {"pitch": 62, "velocity": 31, "note_on_time": 16.009, "note_off_time": 16.109}, {"pitch": 62, "velocity": 39, "note_on_time": 16.397, "note_off_time": 16.506}, {"pitch": 62, "velocity": 37, "note_on_time": 16.807, "note_off_time": 16.905}, {"pitch": 62, "velocity": 37, "note_on_time": 17.223, "note_off_time": 17.322}, {"pitch": 62, "velocity": 46, "note_on_time": 17.63, "note_off_time": 17.866}, {"pitch": 62, "velocity": 52, "note_on_time": 18.033, "note_off_time": 18.608}]</notes><guidance name="Guidance Mode">None</guidance><error name="Error value">0.329535056878307</error></trial></trials></MIDI>