<MIDI midiNo="2023_01_29-13_00_21"><target_notes><notes name="Note List">[{"pitch": 39, "velocity": 100, "note_on_time": 0.005, "note_off_time": 0.723}, {"pitch": 42, "velocity": 100, "note_on_time": 0.723, "note_off_time": 1.443}, {"pitch": 42, "velocity": 100, "note_on_time": 1.443, "note_off_time": 2.158}, {"pitch": 42, "velocity": 100, "note_on_time": 2.159, "note_off_time": 2.877}, {"pitch": 39, "velocity": 100, "note_on_time": 2.877, "note_off_time": 3.593}, {"pitch": 42, "velocity": 100, "note_on_time": 3.593, "note_off_time": 4.311}, {"pitch": 42, "velocity": 100, "note_on_time": 4.311, "note_off_time": 5.029}, {"pitch": 60, "velocity": 100, "note_on_time": 2.877, "note_off_time": 5.748}, {"pitch": 42, "velocity": 100, "note_on_time": 5.029, "note_off_time": 5.748}, {"pitch": 39, "velocity": 100, "note_on_time": 5.748, "note_off_time": 6.464}, {"pitch": 42, "velocity": 100, "note_on_time": 6.464, "note_off_time": 7.179}, {"pitch": 42, "velocity": 100, "note_on_time": 7.18, "note_off_time": 7.894}, {"pitch": 62, "velocity": 100, "note_on_time": 5.748, "note_off_time": 8.612}, {"pitch": 42, "velocity": 100, "note_on_time": 7.894, "note_off_time": 8.612}, {"pitch": 39, "velocity": 100, "note_on_time": 8.612, "note_off_time": 9.329}, {"pitch": 60, "velocity": 100, "note_on_time": 8.612, "note_off_time": 10.045}, {"pitch": 42, "velocity": 100, "note_on_time": 9.329, "note_off_time": 10.045}, {"pitch": 42, "velocity": 100, "note_on_time": 10.046, "note_off_time": 10.763}, {"pitch": 62, "velocity": 100, "note_on_time": 10.045, "note_off_time": 11.48}, {"pitch": 42, "velocity": 100, "note_on_time": 10.763, "note_off_time": 11.48}, {"pitch": 39, "velocity": 100, "note_on_time": 11.481, "note_off_time": 12.198}, {"pitch": 60, "velocity": 100, "note_on_time": 11.48, "note_off_time": 12.911}, {"pitch": 42, "velocity": 100, "note_on_time": 12.198, "note_off_time": 12.912}, {"pitch": 42, "velocity": 100, "note_on_time": 12.912, "note_off_time": 13.63}, {"pitch": 62, "velocity": 100, "note_on_time": 12.911, "note_off_time": 14.349}, {"pitch": 42, "velocity": 100, "note_on_time": 13.63, "note_off_time": 14.349}, {"pitch": 60, "velocity": 100, "note_on_time": 14.349, "note_off_time": 15.067}, {"pitch": 39, "velocity": 100, "note_on_time": 14.349, "note_off_time": 15.067}, {"pitch": 62, "velocity": 100, "note_on_time": 15.067, "note_off_time": 15.783}, {"pitch": 42, "velocity": 100, "note_on_time": 15.068, "note_off_time": 15.783}, {"pitch": 60, "velocity": 100, "note_on_time": 15.783, "note_off_time": 16.498}, {"pitch": 42, "velocity": 100, "note_on_time": 15.784, "note_off_time": 16.498}, {"pitch": 62, "velocity": 100, "note_on_time": 16.498, "note_off_time": 17.215}, {"pitch": 42, "velocity": 100, "note_on_time": 16.498, "note_off_time": 17.215}, {"pitch": 60, "velocity": 100, "note_on_time": 17.215, "note_off_time": 17.932}, {"pitch": 39, "velocity": 100, "note_on_time": 17.215, "note_off_time": 17.932}, {"pitch": 62, "velocity": 100, "note_on_time": 17.932, "note_off_time": 18.645}, {"pitch": 42, "velocity": 100, "note_on_time": 17.932, "note_off_time": 18.646}, {"pitch": 60, "velocity": 100, "note_on_time": 18.645, "note_off_time": 19.358}, {"pitch": 42, "velocity": 100, "note_on_time": 18.646, "note_off_time": 19.359}, {"pitch": 62, "velocity": 100, "note_on_time": 19.358, "note_off_time": 20.075}, {"pitch": 42, "velocity": 100, "note_on_time": 19.359, "note_off_time": 20.075}, {"pitch": 60, "velocity": 100, "note_on_time": 20.075, "note_off_time": 20.792}, {"pitch": 39, "velocity": 100, "note_on_time": 20.075, "note_off_time": 20.792}, {"pitch": 60, "velocity": 100, "note_on_time": 20.792, "note_off_time": 21.511}, {"pitch": 42, "velocity": 100, "note_on_time": 20.793, "note_off_time": 21.511}, {"pitch": 60, "velocity": 100, "note_on_time": 21.511, "note_off_time": 22.224}, {"pitch": 42, "velocity": 100, "note_on_time": 21.511, "note_off_time": 22.224}, {"pitch": 60, "velocity": 100, "note_on_time": 22.224, "note_off_time": 22.942}, {"pitch": 42, "velocity": 100, "note_on_time": 22.225, "note_off_time": 22.942}, {"pitch": 60, "velocity": 100, "note_on_time": 22.942, "note_off_time": 23.657}, {"pitch": 39, "velocity": 100, "note_on_time": 22.942, "note_off_time": 23.657}, {"pitch": 60, "velocity": 100, "note_on_time": 23.657, "note_off_time": 24.374}, {"pitch": 42, "velocity": 100, "note_on_time": 23.657, "note_off_time": 24.375}, {"pitch": 60, "velocity": 100, "note_on_time": 24.374, "note_off_time": 25.092}, {"pitch": 42, "velocity": 100, "note_on_time": 24.375, "note_off_time": 25.093}, {"pitch": 60, "velocity": 100, "note_on_time": 25.092, "note_off_time": 25.807}, {"pitch": 42, "velocity": 100, "note_on_time": 25.093, "note_off_time": 25.807}]</notes><options name="Option List">((4, 4), [0.5, 0.25], 3, 7, &lt;NoteRangePerHand.TWO_NOTES: 3&gt;, &lt;NoteRangePerHand.ONE_NOTE: 2&gt;, False, True, True, None)</options></target_notes><trials><trial trial_no="1" timestamp="2023_01_29-13_00_21"><notes name="Played Notes">[{"pitch": 60, "velocity": 60, "note_on_time": 2.888, "note_off_time": 5.731}, {"pitch": 62, "velocity": 63, "note_on_time": 5.741, "note_off_time": 8.582}, {"pitch": 60, "velocity": 64, "note_on_time": 8.578, "note_off_time": 9.978}, {"pitch": 62, "velocity": 59, "note_on_time": 9.969, "note_off_time": 11.428}, {"pitch": 60, "velocity": 59, "note_on_time": 11.426, "note_off_time": 12.878}, {"pitch": 62, "velocity": 64, "note_on_time": 12.878, "note_off_time": 14.349}, {"pitch": 60, "velocity": 69, "note_on_time": 14.337, "note_off_time": 15.042}, {"pitch": 62, "velocity": 59, "note_on_time": 15.021, "note_off_time": 15.693}, {"pitch": 60, "velocity": 65, "note_on_time": 15.688, "note_off_time": 16.445}, {"pitch": 62, "velocity": 52, "note_on_time": 16.428, "note_off_time": 17.153}, {"pitch": 60, "velocity": 54, "note_on_time": 17.151, "note_off_time": 17.918}, {"pitch": 62, "velocity": 53, "note_on_time": 17.889, "note_off_time": 18.578}, {"pitch": 60, "velocity": 57, "note_on_time": 18.578, "note_off_time": 19.329}, {"pitch": 62, "velocity": 63, "note_on_time": 19.296, "note_off_time": 20.05}, {"pitch": 60, "velocity": 66, "note_on_time": 20.043, "note_off_time": 20.548}, {"pitch": 60, "velocity": 59, "note_on_time": 20.723, "note_off_time": 21.183}, {"pitch": 60, "velocity": 51, "note_on_time": 21.437, "note_off_time": 21.907}, {"pitch": 60, "velocity": 52, "note_on_time": 22.207, "note_off_time": 22.642}, {"pitch": 60, "velocity": 59, "note_on_time": 22.949, "note_off_time": 23.304}, {"pitch": 60, "velocity": 52, "note_on_time": 23.638, "note_off_time": 23.987}, {"pitch": 60, "velocity": 50, "note_on_time": 24.368, "note_off_time": 24.661}, {"pitch": 60, "velocity": 55, "note_on_time": 25.047, "note_off_time": 25.47}]</notes><guidance name="Guidance Mode">None</guidance><error name="Error value">0.09857088181818197</error></trial></trials></MIDI>