<MIDI midiNo="2022_12_15-12_59_54"><target_notes><notes name="Note List">[{"pitch": 42, "velocity": 80, "note_on_time": 0.005, "note_off_time": 0.734}, {"pitch": 42, "velocity": 80, "note_on_time": 0.734, "note_off_time": 1.469}, {"pitch": 42, "velocity": 80, "note_on_time": 1.469, "note_off_time": 2.204}, {"pitch": 42, "velocity": 80, "note_on_time": 2.204, "note_off_time": 2.94}, {"pitch": 60, "velocity": 80, "note_on_time": 2.94, "note_off_time": 3.675}, {"pitch": 42, "velocity": 80, "note_on_time": 2.941, "note_off_time": 3.675}, {"pitch": 42, "velocity": 80, "note_on_time": 3.675, "note_off_time": 4.414}, {"pitch": 42, "velocity": 80, "note_on_time": 4.414, "note_off_time": 5.145}, {"pitch": 64, "velocity": 80, "note_on_time": 4.413, "note_off_time": 5.881}, {"pitch": 42, "velocity": 80, "note_on_time": 5.145, "note_off_time": 5.881}, {"pitch": 62, "velocity": 80, "note_on_time": 5.881, "note_off_time": 6.614}, {"pitch": 42, "velocity": 80, "note_on_time": 5.881, "note_off_time": 6.615}, {"pitch": 62, "velocity": 80, "note_on_time": 6.614, "note_off_time": 7.349}, {"pitch": 42, "velocity": 80, "note_on_time": 6.615, "note_off_time": 7.349}, {"pitch": 60, "velocity": 80, "note_on_time": 7.349, "note_off_time": 8.083}, {"pitch": 42, "velocity": 80, "note_on_time": 7.349, "note_off_time": 8.083}, {"pitch": 60, "velocity": 80, "note_on_time": 8.083, "note_off_time": 8.816}, {"pitch": 42, "velocity": 80, "note_on_time": 8.083, "note_off_time": 8.816}, {"pitch": 42, "velocity": 80, "note_on_time": 8.816, "note_off_time": 9.548}, {"pitch": 64, "velocity": 80, "note_on_time": 8.816, "note_off_time": 10.282}, {"pitch": 42, "velocity": 80, "note_on_time": 9.548, "note_off_time": 10.282}, {"pitch": 42, "velocity": 80, "note_on_time": 10.283, "note_off_time": 11.015}, {"pitch": 42, "velocity": 80, "note_on_time": 11.015, "note_off_time": 11.748}, {"pitch": 42, "velocity": 80, "note_on_time": 11.748, "note_off_time": 12.485}, {"pitch": 64, "velocity": 80, "note_on_time": 11.748, "note_off_time": 13.219}, {"pitch": 42, "velocity": 80, "note_on_time": 12.485, "note_off_time": 13.219}, {"pitch": 42, "velocity": 80, "note_on_time": 13.219, "note_off_time": 13.951}, {"pitch": 62, "velocity": 80, "note_on_time": 13.219, "note_off_time": 14.683}, {"pitch": 42, "velocity": 80, "note_on_time": 13.951, "note_off_time": 14.684}, {"pitch": 42, "velocity": 80, "note_on_time": 14.684, "note_off_time": 15.416}, {"pitch": 62, "velocity": 80, "note_on_time": 14.683, "note_off_time": 16.15}, {"pitch": 42, "velocity": 80, "note_on_time": 15.416, "note_off_time": 16.151}, {"pitch": 62, "velocity": 80, "note_on_time": 16.15, "note_off_time": 16.883}, {"pitch": 42, "velocity": 80, "note_on_time": 16.151, "note_off_time": 16.884}, {"pitch": 42, "velocity": 80, "note_on_time": 16.885, "note_off_time": 17.617}, {"pitch": 62, "velocity": 80, "note_on_time": 17.617, "note_off_time": 18.349}, {"pitch": 42, "velocity": 80, "note_on_time": 17.618, "note_off_time": 18.349}, {"pitch": 62, "velocity": 80, "note_on_time": 18.349, "note_off_time": 19.081}, {"pitch": 42, "velocity": 80, "note_on_time": 18.349, "note_off_time": 19.081}, {"pitch": 62, "velocity": 80, "note_on_time": 19.081, "note_off_time": 19.816}, {"pitch": 42, "velocity": 80, "note_on_time": 19.082, "note_off_time": 19.816}, {"pitch": 62, "velocity": 80, "note_on_time": 19.816, "note_off_time": 20.548}, {"pitch": 42, "velocity": 80, "note_on_time": 19.817, "note_off_time": 20.548}, {"pitch": 62, "velocity": 80, "note_on_time": 20.548, "note_off_time": 21.283}, {"pitch": 42, "velocity": 80, "note_on_time": 20.549, "note_off_time": 21.283}, {"pitch": 64, "velocity": 80, "note_on_time": 21.283, "note_off_time": 22.015}, {"pitch": 42, "velocity": 80, "note_on_time": 21.283, "note_off_time": 22.015}, {"pitch": 60, "velocity": 80, "note_on_time": 22.015, "note_off_time": 22.748}, {"pitch": 42, "velocity": 80, "note_on_time": 22.016, "note_off_time": 22.748}, {"pitch": 62, "velocity": 80, "note_on_time": 22.748, "note_off_time": 23.48}, {"pitch": 42, "velocity": 80, "note_on_time": 22.749, "note_off_time": 23.48}, {"pitch": 42, "velocity": 80, "note_on_time": 23.48, "note_off_time": 24.213}, {"pitch": 62, "velocity": 80, "note_on_time": 24.213, "note_off_time": 24.947}, {"pitch": 42, "velocity": 80, "note_on_time": 24.213, "note_off_time": 24.947}, {"pitch": 62, "velocity": 80, "note_on_time": 24.947, "note_off_time": 25.682}, {"pitch": 42, "velocity": 80, "note_on_time": 24.947, "note_off_time": 25.682}, {"pitch": 62, "velocity": 80, "note_on_time": 25.682, "note_off_time": 26.413}, {"pitch": 42, "velocity": 80, "note_on_time": 25.682, "note_off_time": 26.413}]</notes><options name="Option List">((4, 4), [0.5, 0.25], 3, 8, &lt;NoteRangePerHand.THREE_NOTES: 4&gt;, &lt;NoteRangePerHand.ONE_NOTE: 2&gt;, False, True, False, 83)</options></target_notes><trials><trial trial_no="1" timestamp="2022_12_15-12_59_26"><notes name="Played Notes">[{"pitch": 72, "velocity": 71, "note_on_time": 2.922, "note_off_time": 3.112}, {"pitch": 76, "velocity": 64, "note_on_time": 4.428, "note_off_time": 5.2}, {"pitch": 74, "velocity": 66, "note_on_time": 5.897, "note_off_time": 6.045}, {"pitch": 74, "velocity": 78, "note_on_time": 6.606, "note_off_time": 6.754}, {"pitch": 72, "velocity": 70, "note_on_time": 7.363, "note_off_time": 7.478}, {"pitch": 72, "velocity": 66, "note_on_time": 8.039, "note_off_time": 8.158}, {"pitch": 76, "velocity": 68, "note_on_time": 8.77, "note_off_time": 9.653}, {"pitch": 76, "velocity": 77, "note_on_time": 11.624, "note_off_time": 12.372}, {"pitch": 74, "velocity": 73, "note_on_time": 13.115, "note_off_time": 13.819}, {"pitch": 74, "velocity": 70, "note_on_time": 14.693, "note_off_time": 15.434}, {"pitch": 74, "velocity": 64, "note_on_time": 16.14, "note_off_time": 16.286}, {"pitch": 74, "velocity": 72, "note_on_time": 17.648, "note_off_time": 17.787}, {"pitch": 74, "velocity": 73, "note_on_time": 18.33, "note_off_time": 18.469}, {"pitch": 74, "velocity": 74, "note_on_time": 19.021, "note_off_time": 19.145}, {"pitch": 74, "velocity": 71, "note_on_time": 19.744, "note_off_time": 19.887}, {"pitch": 74, "velocity": 67, "note_on_time": 20.46, "note_off_time": 20.589}, {"pitch": 76, "velocity": 76, "note_on_time": 21.217, "note_off_time": 21.375}, {"pitch": 72, "velocity": 76, "note_on_time": 21.969, "note_off_time": 22.091}, {"pitch": 74, "velocity": 70, "note_on_time": 22.706, "note_off_time": 22.875}, {"pitch": 74, "velocity": 71, "note_on_time": 24.181, "note_off_time": 24.32}, {"pitch": 74, "velocity": 70, "note_on_time": 24.968, "note_off_time": 25.08}, {"pitch": 74, "velocity": 78, "note_on_time": 25.683, "note_off_time": 25.809}]</notes><guidance name="Guidance Mode">None</guidance><error name="Error value">1.1959578421052628</error></trial></trials></MIDI>