<MIDI midiNo="20220202-123727"><target_notes><notes name="Note List">[{"pitch": 60, "velocity": 100, "note_on_time": 2.423, "note_off_time": 3.631}, {"pitch": 60, "velocity": 100, "note_on_time": 3.631, "note_off_time": 4.236}, {"pitch": 62, "velocity": 100, "note_on_time": 4.236, "note_off_time": 4.841}, {"pitch": 60, "velocity": 100, "note_on_time": 4.841, "note_off_time": 6.05}, {"pitch": 60, "velocity": 100, "note_on_time": 6.05, "note_off_time": 6.655}, {"pitch": 60, "velocity": 100, "note_on_time": 6.655, "note_off_time": 7.258}, {"pitch": 60, "velocity": 100, "note_on_time": 7.258, "note_off_time": 7.863}, {"pitch": 62, "velocity": 100, "note_on_time": 7.863, "note_off_time": 8.468}, {"pitch": 62, "velocity": 100, "note_on_time": 8.468, "note_off_time": 9.072}, {"pitch": 62, "velocity": 100, "note_on_time": 9.073, "note_off_time": 9.677}, {"pitch": 60, "velocity": 100, "note_on_time": 9.677, "note_off_time": 10.282}, {"pitch": 60, "velocity": 100, "note_on_time": 10.282, "note_off_time": 10.887}, {"pitch": 60, "velocity": 100, "note_on_time": 10.887, "note_off_time": 11.491}, {"pitch": 60, "velocity": 100, "note_on_time": 11.491, "note_off_time": 12.095}, {"pitch": 60, "velocity": 100, "note_on_time": 12.095, "note_off_time": 12.7}, {"pitch": 60, "velocity": 100, "note_on_time": 12.701, "note_off_time": 13.305}, {"pitch": 60, "velocity": 100, "note_on_time": 13.305, "note_off_time": 13.909}, {"pitch": 60, "velocity": 100, "note_on_time": 13.909, "note_off_time": 14.511}, {"pitch": 62, "velocity": 100, "note_on_time": 14.511, "note_off_time": 15.115}, {"pitch": 62, "velocity": 100, "note_on_time": 15.115, "note_off_time": 15.719}, {"pitch": 60, "velocity": 100, "note_on_time": 15.72, "note_off_time": 16.324}, {"pitch": 60, "velocity": 100, "note_on_time": 16.324, "note_off_time": 16.926}, {"pitch": 60, "velocity": 100, "note_on_time": 17.53, "note_off_time": 18.135}, {"pitch": 60, "velocity": 100, "note_on_time": 18.135, "note_off_time": 18.739}, {"pitch": 60, "velocity": 100, "note_on_time": 18.74, "note_off_time": 19.344}]</notes><options name="Option List">((4, 4), [0.5, 0.25], 3, 7, &lt;NoteRangePerHand.TWO_NOTES: 3&gt;, &lt;NoteRangePerHand.ONE_NOTE: 2&gt;, False, True, True, 100)</options></target_notes><trials><trial trial_no="1" timestamp="20220202-123705"><notes name="Played Notes">[{"pitch": 52, "velocity": 100, "note_on_time": 10.494, "note_off_time": 10.659}, {"pitch": 52, "velocity": 100, "note_on_time": 10.812, "note_off_time": 10.911}, {"pitch": 60, "velocity": 100, "note_on_time": 11.208, "note_off_time": 11.253}, {"pitch": 60, "velocity": 100, "note_on_time": 11.435, "note_off_time": 11.536}, {"pitch": 64, "velocity": 100, "note_on_time": 11.677, "note_off_time": 11.808}, {"pitch": 64, "velocity": 100, "note_on_time": 11.969, "note_off_time": 11.999}, {"pitch": 62, "velocity": 100, "note_on_time": 11.928, "note_off_time": 12.103}, {"pitch": 60, "velocity": 100, "note_on_time": 12.167, "note_off_time": 12.248}]</notes><guidance name="Guidance Mode">None</guidance><error name="Error value">25.77509090909091</error></trial></trials></MIDI>