<MIDI midiNo="2022_12_01-13_07_00"><target_notes><notes name="Note List">[{"pitch": 42, "velocity": 80, "note_on_time": 0.004, "note_off_time": 0.416}, {"pitch": 42, "velocity": 80, "note_on_time": 0.416, "note_off_time": 0.821}, {"pitch": 42, "velocity": 80, "note_on_time": 0.822, "note_off_time": 1.227}, {"pitch": 42, "velocity": 80, "note_on_time": 1.227, "note_off_time": 1.635}, {"pitch": 64, "velocity": 80, "note_on_time": 1.635, "note_off_time": 2.042}, {"pitch": 42, "velocity": 80, "note_on_time": 1.636, "note_off_time": 2.042}, {"pitch": 64, "velocity": 80, "note_on_time": 2.042, "note_off_time": 2.447}, {"pitch": 42, "velocity": 80, "note_on_time": 2.042, "note_off_time": 2.447}, {"pitch": 64, "velocity": 80, "note_on_time": 2.447, "note_off_time": 2.849}, {"pitch": 42, "velocity": 80, "note_on_time": 2.447, "note_off_time": 2.849}, {"pitch": 64, "velocity": 80, "note_on_time": 2.849, "note_off_time": 3.25}, {"pitch": 42, "velocity": 80, "note_on_time": 2.849, "note_off_time": 3.251}, {"pitch": 42, "velocity": 80, "note_on_time": 3.251, "note_off_time": 3.655}, {"pitch": 62, "velocity": 80, "note_on_time": 3.25, "note_off_time": 4.055}, {"pitch": 42, "velocity": 80, "note_on_time": 3.655, "note_off_time": 4.055}, {"pitch": 42, "velocity": 80, "note_on_time": 4.056, "note_off_time": 4.461}, {"pitch": 42, "velocity": 80, "note_on_time": 4.461, "note_off_time": 4.864}, {"pitch": 62, "velocity": 80, "note_on_time": 4.864, "note_off_time": 5.271}, {"pitch": 42, "velocity": 80, "note_on_time": 4.864, "note_off_time": 5.272}, {"pitch": 60, "velocity": 80, "note_on_time": 5.271, "note_off_time": 5.678}, {"pitch": 42, "velocity": 80, "note_on_time": 5.272, "note_off_time": 5.678}, {"pitch": 62, "velocity": 80, "note_on_time": 5.678, "note_off_time": 6.082}, {"pitch": 42, "velocity": 80, "note_on_time": 5.679, "note_off_time": 6.083}, {"pitch": 60, "velocity": 80, "note_on_time": 6.082, "note_off_time": 6.487}, {"pitch": 42, "velocity": 80, "note_on_time": 6.083, "note_off_time": 6.487}, {"pitch": 62, "velocity": 80, "note_on_time": 6.487, "note_off_time": 6.893}, {"pitch": 42, "velocity": 80, "note_on_time": 6.488, "note_off_time": 6.893}, {"pitch": 62, "velocity": 80, "note_on_time": 6.893, "note_off_time": 7.296}, {"pitch": 42, "velocity": 80, "note_on_time": 6.893, "note_off_time": 7.296}, {"pitch": 64, "velocity": 80, "note_on_time": 7.296, "note_off_time": 7.698}, {"pitch": 42, "velocity": 80, "note_on_time": 7.297, "note_off_time": 7.698}, {"pitch": 60, "velocity": 80, "note_on_time": 7.698, "note_off_time": 8.104}, {"pitch": 42, "velocity": 80, "note_on_time": 7.698, "note_off_time": 8.104}, {"pitch": 64, "velocity": 80, "note_on_time": 8.104, "note_off_time": 8.511}, {"pitch": 42, "velocity": 80, "note_on_time": 8.105, "note_off_time": 8.511}, {"pitch": 42, "velocity": 80, "note_on_time": 8.511, "note_off_time": 8.916}, {"pitch": 42, "velocity": 80, "note_on_time": 8.916, "note_off_time": 9.321}, {"pitch": 60, "velocity": 80, "note_on_time": 8.916, "note_off_time": 9.723}, {"pitch": 42, "velocity": 80, "note_on_time": 9.321, "note_off_time": 9.724}, {"pitch": 62, "velocity": 80, "note_on_time": 9.723, "note_off_time": 10.127}, {"pitch": 42, "velocity": 80, "note_on_time": 9.724, "note_off_time": 10.128}, {"pitch": 64, "velocity": 80, "note_on_time": 10.127, "note_off_time": 10.533}, {"pitch": 42, "velocity": 80, "note_on_time": 10.128, "note_off_time": 10.534}, {"pitch": 64, "velocity": 80, "note_on_time": 10.533, "note_off_time": 10.941}, {"pitch": 42, "velocity": 80, "note_on_time": 10.534, "note_off_time": 10.941}, {"pitch": 60, "velocity": 80, "note_on_time": 10.941, "note_off_time": 11.346}, {"pitch": 42, "velocity": 80, "note_on_time": 10.941, "note_off_time": 11.346}, {"pitch": 42, "velocity": 80, "note_on_time": 11.346, "note_off_time": 11.752}, {"pitch": 64, "velocity": 80, "note_on_time": 11.346, "note_off_time": 12.158}, {"pitch": 42, "velocity": 80, "note_on_time": 11.753, "note_off_time": 12.158}, {"pitch": 60, "velocity": 80, "note_on_time": 12.158, "note_off_time": 12.563}, {"pitch": 42, "velocity": 80, "note_on_time": 12.159, "note_off_time": 12.564}, {"pitch": 62, "velocity": 80, "note_on_time": 12.563, "note_off_time": 12.967}, {"pitch": 42, "velocity": 80, "note_on_time": 12.564, "note_off_time": 12.968}, {"pitch": 42, "velocity": 80, "note_on_time": 12.968, "note_off_time": 13.374}, {"pitch": 62, "velocity": 80, "note_on_time": 13.374, "note_off_time": 13.779}, {"pitch": 42, "velocity": 80, "note_on_time": 13.374, "note_off_time": 13.779}, {"pitch": 62, "velocity": 80, "note_on_time": 13.779, "note_off_time": 14.187}, {"pitch": 42, "velocity": 80, "note_on_time": 13.779, "note_off_time": 14.187}, {"pitch": 62, "velocity": 80, "note_on_time": 14.187, "note_off_time": 14.593}, {"pitch": 42, "velocity": 80, "note_on_time": 14.187, "note_off_time": 14.593}]</notes><options name="Option List">((4, 4), [0.5, 0.25], 3, 8, &lt;NoteRangePerHand.THREE_NOTES: 4&gt;, &lt;NoteRangePerHand.ONE_NOTE: 2&gt;, False, True, False, 150)</options></target_notes><trials><trial trial_no="1" timestamp="2022_12_01-13_06_44"><notes name="Played Notes">[{"pitch": 64, "velocity": 71, "note_on_time": 1.612, "note_off_time": 1.814}, {"pitch": 64, "velocity": 78, "note_on_time": 2.022, "note_off_time": 2.238}, {"pitch": 64, "velocity": 77, "note_on_time": 2.441, "note_off_time": 2.64}, {"pitch": 64, "velocity": 74, "note_on_time": 2.86, "note_off_time": 3.08}, {"pitch": 62, "velocity": 81, "note_on_time": 3.288, "note_off_time": 4.196}, {"pitch": 62, "velocity": 85, "note_on_time": 4.548, "note_off_time": 4.798}, {"pitch": 60, "velocity": 84, "note_on_time": 4.928, "note_off_time": 5.14}, {"pitch": 62, "velocity": 79, "note_on_time": 5.341, "note_off_time": 5.591}, {"pitch": 60, "velocity": 80, "note_on_time": 5.763, "note_off_time": 5.957}, {"pitch": 62, "velocity": 80, "note_on_time": 6.167, "note_off_time": 6.318}, {"pitch": 62, "velocity": 80, "note_on_time": 6.534, "note_off_time": 6.735}, {"pitch": 64, "velocity": 78, "note_on_time": 6.929, "note_off_time": 7.126}, {"pitch": 60, "velocity": 85, "note_on_time": 7.315, "note_off_time": 7.446}, {"pitch": 64, "velocity": 78, "note_on_time": 7.696, "note_off_time": 8.24}, {"pitch": 60, "velocity": 88, "note_on_time": 8.816, "note_off_time": 9.62}, {"pitch": 62, "velocity": 80, "note_on_time": 9.805, "note_off_time": 10.0}, {"pitch": 64, "velocity": 80, "note_on_time": 10.187, "note_off_time": 10.365}, {"pitch": 64, "velocity": 79, "note_on_time": 10.561, "note_off_time": 10.741}, {"pitch": 60, "velocity": 88, "note_on_time": 10.938, "note_off_time": 11.092}, {"pitch": 64, "velocity": 76, "note_on_time": 11.3, "note_off_time": 12.018}, {"pitch": 60, "velocity": 86, "note_on_time": 12.188, "note_off_time": 12.435}, {"pitch": 62, "velocity": 75, "note_on_time": 12.604, "note_off_time": 13.039}, {"pitch": 62, "velocity": 86, "note_on_time": 13.777, "note_off_time": 13.909}, {"pitch": 62, "velocity": 80, "note_on_time": 14.129, "note_off_time": 14.27}]</notes><guidance name="Guidance Mode">None</guidance><error name="Error value">0.12327272727272712</error></trial></trials></MIDI>