<MIDI midiNo="2022_11_03-09_35_57"><target_notes><notes name="Note List">[{"pitch": 42, "velocity": 80, "note_on_time": 0.005, "note_off_time": 0.229}, {"pitch": 42, "velocity": 80, "note_on_time": 0.229, "note_off_time": 0.446}, {"pitch": 42, "velocity": 80, "note_on_time": 0.446, "note_off_time": 0.663}, {"pitch": 42, "velocity": 80, "note_on_time": 0.664, "note_off_time": 0.882}, {"pitch": 42, "velocity": 80, "note_on_time": 0.882, "note_off_time": 1.101}, {"pitch": 67, "velocity": 80, "note_on_time": 0.882, "note_off_time": 1.32}, {"pitch": 42, "velocity": 80, "note_on_time": 1.101, "note_off_time": 1.32}, {"pitch": 42, "velocity": 80, "note_on_time": 1.32, "note_off_time": 1.538}, {"pitch": 42, "velocity": 80, "note_on_time": 1.538, "note_off_time": 1.756}, {"pitch": 62, "velocity": 80, "note_on_time": 1.756, "note_off_time": 1.973}, {"pitch": 42, "velocity": 80, "note_on_time": 1.756, "note_off_time": 1.973}, {"pitch": 67, "velocity": 80, "note_on_time": 1.973, "note_off_time": 2.193}, {"pitch": 42, "velocity": 80, "note_on_time": 1.973, "note_off_time": 2.193}, {"pitch": 67, "velocity": 80, "note_on_time": 2.193, "note_off_time": 2.411}, {"pitch": 42, "velocity": 80, "note_on_time": 2.193, "note_off_time": 2.411}, {"pitch": 65, "velocity": 80, "note_on_time": 2.411, "note_off_time": 2.627}, {"pitch": 42, "velocity": 80, "note_on_time": 2.411, "note_off_time": 2.627}, {"pitch": 65, "velocity": 80, "note_on_time": 2.627, "note_off_time": 2.846}, {"pitch": 42, "velocity": 80, "note_on_time": 2.627, "note_off_time": 2.846}, {"pitch": 60, "velocity": 80, "note_on_time": 2.846, "note_off_time": 3.065}, {"pitch": 42, "velocity": 80, "note_on_time": 2.846, "note_off_time": 3.065}, {"pitch": 67, "velocity": 80, "note_on_time": 3.065, "note_off_time": 3.282}, {"pitch": 42, "velocity": 80, "note_on_time": 3.065, "note_off_time": 3.282}, {"pitch": 60, "velocity": 80, "note_on_time": 3.282, "note_off_time": 3.502}, {"pitch": 42, "velocity": 80, "note_on_time": 3.282, "note_off_time": 3.502}, {"pitch": 60, "velocity": 80, "note_on_time": 3.502, "note_off_time": 3.717}, {"pitch": 42, "velocity": 80, "note_on_time": 3.502, "note_off_time": 3.717}, {"pitch": 42, "velocity": 80, "note_on_time": 3.718, "note_off_time": 3.934}, {"pitch": 65, "velocity": 80, "note_on_time": 3.717, "note_off_time": 4.153}, {"pitch": 42, "velocity": 80, "note_on_time": 3.934, "note_off_time": 4.153}, {"pitch": 42, "velocity": 80, "note_on_time": 4.153, "note_off_time": 4.37}, {"pitch": 65, "velocity": 80, "note_on_time": 4.37, "note_off_time": 4.589}, {"pitch": 42, "velocity": 80, "note_on_time": 4.37, "note_off_time": 4.589}, {"pitch": 67, "velocity": 80, "note_on_time": 4.589, "note_off_time": 4.808}, {"pitch": 42, "velocity": 80, "note_on_time": 4.589, "note_off_time": 4.808}, {"pitch": 62, "velocity": 80, "note_on_time": 4.808, "note_off_time": 5.026}, {"pitch": 42, "velocity": 80, "note_on_time": 4.808, "note_off_time": 5.026}, {"pitch": 67, "velocity": 80, "note_on_time": 5.026, "note_off_time": 5.246}, {"pitch": 42, "velocity": 80, "note_on_time": 5.026, "note_off_time": 5.246}, {"pitch": 65, "velocity": 80, "note_on_time": 5.246, "note_off_time": 5.465}, {"pitch": 42, "velocity": 80, "note_on_time": 5.246, "note_off_time": 5.465}, {"pitch": 62, "velocity": 80, "note_on_time": 5.465, "note_off_time": 5.683}, {"pitch": 42, "velocity": 80, "note_on_time": 5.465, "note_off_time": 5.683}, {"pitch": 67, "velocity": 80, "note_on_time": 5.683, "note_off_time": 5.9}, {"pitch": 42, "velocity": 80, "note_on_time": 5.683, "note_off_time": 5.9}, {"pitch": 67, "velocity": 80, "note_on_time": 5.9, "note_off_time": 6.116}, {"pitch": 42, "velocity": 80, "note_on_time": 5.901, "note_off_time": 6.117}, {"pitch": 67, "velocity": 80, "note_on_time": 6.116, "note_off_time": 6.334}, {"pitch": 42, "velocity": 80, "note_on_time": 6.117, "note_off_time": 6.334}, {"pitch": 64, "velocity": 80, "note_on_time": 6.334, "note_off_time": 6.554}, {"pitch": 42, "velocity": 80, "note_on_time": 6.335, "note_off_time": 6.554}, {"pitch": 67, "velocity": 80, "note_on_time": 6.554, "note_off_time": 6.771}, {"pitch": 42, "velocity": 80, "note_on_time": 6.554, "note_off_time": 6.771}, {"pitch": 65, "velocity": 80, "note_on_time": 6.771, "note_off_time": 6.987}, {"pitch": 42, "velocity": 80, "note_on_time": 6.771, "note_off_time": 6.987}, {"pitch": 42, "velocity": 80, "note_on_time": 6.987, "note_off_time": 7.206}, {"pitch": 65, "velocity": 80, "note_on_time": 7.206, "note_off_time": 7.424}, {"pitch": 42, "velocity": 80, "note_on_time": 7.206, "note_off_time": 7.424}, {"pitch": 65, "velocity": 80, "note_on_time": 7.424, "note_off_time": 7.644}, {"pitch": 42, "velocity": 80, "note_on_time": 7.424, "note_off_time": 7.644}, {"pitch": 65, "velocity": 80, "note_on_time": 7.644, "note_off_time": 7.86}, {"pitch": 42, "velocity": 80, "note_on_time": 7.644, "note_off_time": 7.86}]</notes><options name="Option List">((4, 4), [0.5, 0.25], 3, 8, &lt;NoteRangePerHand.C_TO_G: 6&gt;, &lt;NoteRangePerHand.ONE_NOTE: 2&gt;, False, True, False, 281)</options></target_notes><trials><trial trial_no="1" timestamp="2022_11_03-09_36_11"><notes name="Played Notes">[{"pitch": 67, "velocity": 83, "note_on_time": 0.926, "note_off_time": 1.497}, {"pitch": 62, "velocity": 60, "note_on_time": 1.872, "note_off_time": 2.11}, {"pitch": 67, "velocity": 64, "note_on_time": 2.047, "note_off_time": 2.157}, {"pitch": 67, "velocity": 65, "note_on_time": 2.266, "note_off_time": 2.502}, {"pitch": 65, "velocity": 66, "note_on_time": 2.462, "note_off_time": 2.546}, {"pitch": 65, "velocity": 71, "note_on_time": 2.637, "note_off_time": 2.831}, {"pitch": 60, "velocity": 60, "note_on_time": 2.842, "note_off_time": 3.046}, {"pitch": 67, "velocity": 61, "note_on_time": 3.041, "note_off_time": 3.206}, {"pitch": 60, "velocity": 54, "note_on_time": 3.212, "note_off_time": 3.32}, {"pitch": 60, "velocity": 66, "note_on_time": 3.419, "note_off_time": 3.616}, {"pitch": 65, "velocity": 70, "note_on_time": 3.615, "note_off_time": 4.017}, {"pitch": 65, "velocity": 64, "note_on_time": 4.365, "note_off_time": 4.602}, {"pitch": 67, "velocity": 62, "note_on_time": 4.572, "note_off_time": 4.772}, {"pitch": 62, "velocity": 55, "note_on_time": 4.771, "note_off_time": 4.974}, {"pitch": 67, "velocity": 52, "note_on_time": 4.954, "note_off_time": 5.233}, {"pitch": 65, "velocity": 69, "note_on_time": 5.165, "note_off_time": 5.355}, {"pitch": 62, "velocity": 58, "note_on_time": 5.357, "note_off_time": 5.607}, {"pitch": 67, "velocity": 60, "note_on_time": 5.567, "note_off_time": 5.673}, {"pitch": 67, "velocity": 71, "note_on_time": 5.759, "note_off_time": 5.823}, {"pitch": 67, "velocity": 59, "note_on_time": 5.964, "note_off_time": 6.184}, {"pitch": 64, "velocity": 49, "note_on_time": 6.178, "note_off_time": 6.417}, {"pitch": 67, "velocity": 64, "note_on_time": 6.372, "note_off_time": 6.65}, {"pitch": 65, "velocity": 68, "note_on_time": 6.584, "note_off_time": 6.874}, {"pitch": 65, "velocity": 60, "note_on_time": 7.038, "note_off_time": 7.095}, {"pitch": 65, "velocity": 61, "note_on_time": 7.225, "note_off_time": 7.296}, {"pitch": 65, "velocity": 61, "note_on_time": 7.435, "note_off_time": 7.539}]</notes><guidance name="Guidance Mode">None</guidance><error name="Error value">0.025161173913043577</error></trial><trial trial_no="2" timestamp="2022_11_03-09_36_29"><notes name="Played Notes">[{"pitch": 67, "velocity": 71, "note_on_time": 0.858, "note_off_time": 1.432}, {"pitch": 62, "velocity": 51, "note_on_time": 1.78, "note_off_time": 2.042}, {"pitch": 67, "velocity": 54, "note_on_time": 1.979, "note_off_time": 2.082}, {"pitch": 67, "velocity": 62, "note_on_time": 2.19, "note_off_time": 2.449}, {"pitch": 65, "velocity": 70, "note_on_time": 2.399, "note_off_time": 2.478}, {"pitch": 65, "velocity": 69, "note_on_time": 2.607, "note_off_time": 2.818}, {"pitch": 60, "velocity": 65, "note_on_time": 2.818, "note_off_time": 3.033}, {"pitch": 67, "velocity": 60, "note_on_time": 3.038, "note_off_time": 3.221}, {"pitch": 60, "velocity": 65, "note_on_time": 3.205, "note_off_time": 3.309}, {"pitch": 60, "velocity": 59, "note_on_time": 3.442, "note_off_time": 3.699}, {"pitch": 65, "velocity": 56, "note_on_time": 3.652, "note_off_time": 4.096}, {"pitch": 65, "velocity": 53, "note_on_time": 4.419, "note_off_time": 4.692}, {"pitch": 67, "velocity": 62, "note_on_time": 4.614, "note_off_time": 4.856}, {"pitch": 62, "velocity": 54, "note_on_time": 4.85, "note_off_time": 5.079}, {"pitch": 67, "velocity": 52, "note_on_time": 5.041, "note_off_time": 5.347}, {"pitch": 65, "velocity": 62, "note_on_time": 5.26, "note_off_time": 5.45}, {"pitch": 62, "velocity": 58, "note_on_time": 5.449, "note_off_time": 5.697}, {"pitch": 67, "velocity": 57, "note_on_time": 5.656, "note_off_time": 5.764}, {"pitch": 67, "velocity": 62, "note_on_time": 5.856, "note_off_time": 5.934}, {"pitch": 67, "velocity": 63, "note_on_time": 6.068, "note_off_time": 6.355}, {"pitch": 64, "velocity": 59, "note_on_time": 6.308, "note_off_time": 6.531}, {"pitch": 67, "velocity": 46, "note_on_time": 6.517, "note_off_time": 6.799}, {"pitch": 65, "velocity": 64, "note_on_time": 6.755, "note_off_time": 7.043}, {"pitch": 65, "velocity": 59, "note_on_time": 7.196, "note_off_time": 7.272}, {"pitch": 65, "velocity": 58, "note_on_time": 7.414, "note_off_time": 7.483}, {"pitch": 65, "velocity": 56, "note_on_time": 7.603, "note_off_time": 7.736}]</notes><guidance name="Guidance Mode">None</guidance><error name="Error value">0.022498999999999825</error></trial><trial trial_no="3" timestamp="2022_11_03-09_36_46"><notes name="Played Notes">[{"pitch": 67, "velocity": 72, "note_on_time": 0.868, "note_off_time": 1.663}, {"pitch": 62, "velocity": 39, "note_on_time": 1.864, "note_off_time": 2.089}, {"pitch": 67, "velocity": 56, "note_on_time": 2.034, "note_off_time": 2.138}, {"pitch": 67, "velocity": 60, "note_on_time": 2.258, "note_off_time": 2.484}, {"pitch": 65, "velocity": 65, "note_on_time": 2.433, "note_off_time": 2.511}, {"pitch": 65, "velocity": 58, "note_on_time": 2.629, "note_off_time": 2.811}, {"pitch": 60, "velocity": 60, "note_on_time": 2.822, "note_off_time": 3.038}, {"pitch": 67, "velocity": 51, "note_on_time": 3.03, "note_off_time": 3.169}, {"pitch": 60, "velocity": 54, "note_on_time": 3.18, "note_off_time": 3.321}, {"pitch": 60, "velocity": 65, "note_on_time": 3.424, "note_off_time": 3.648}, {"pitch": 65, "velocity": 69, "note_on_time": 3.638, "note_off_time": 4.075}, {"pitch": 65, "velocity": 57, "note_on_time": 4.334, "note_off_time": 4.588}, {"pitch": 67, "velocity": 57, "note_on_time": 4.555, "note_off_time": 4.77}, {"pitch": 62, "velocity": 55, "note_on_time": 4.769, "note_off_time": 4.983}, {"pitch": 67, "velocity": 58, "note_on_time": 4.953, "note_off_time": 5.246}, {"pitch": 65, "velocity": 57, "note_on_time": 5.18, "note_off_time": 5.374}, {"pitch": 62, "velocity": 47, "note_on_time": 5.38, "note_off_time": 5.626}, {"pitch": 67, "velocity": 52, "note_on_time": 5.589, "note_off_time": 5.713}, {"pitch": 67, "velocity": 62, "note_on_time": 5.806, "note_off_time": 5.926}, {"pitch": 67, "velocity": 65, "note_on_time": 6.021, "note_off_time": 6.272}, {"pitch": 64, "velocity": 59, "note_on_time": 6.243, "note_off_time": 6.473}, {"pitch": 67, "velocity": 59, "note_on_time": 6.453, "note_off_time": 6.712}, {"pitch": 65, "velocity": 59, "note_on_time": 6.675, "note_off_time": 7.038}, {"pitch": 65, "velocity": 49, "note_on_time": 7.209, "note_off_time": 7.276}, {"pitch": 65, "velocity": 49, "note_on_time": 7.439, "note_off_time": 7.51}, {"pitch": 65, "velocity": 41, "note_on_time": 7.639, "note_off_time": 7.772}]</notes><guidance name="Guidance Mode">None</guidance><error name="Error value">0.028664913043478072</error></trial></trials></MIDI>