<MIDI midiNo="2022_12_22-13_54_59"><target_notes><notes name="Note List">[{"pitch": 42, "velocity": 80, "note_on_time": 0.004, "note_off_time": 0.297}, {"pitch": 42, "velocity": 80, "note_on_time": 0.297, "note_off_time": 0.592}, {"pitch": 42, "velocity": 80, "note_on_time": 0.592, "note_off_time": 0.886}, {"pitch": 42, "velocity": 80, "note_on_time": 0.887, "note_off_time": 1.168}, {"pitch": 62, "velocity": 80, "note_on_time": 1.168, "note_off_time": 1.449}, {"pitch": 42, "velocity": 80, "note_on_time": 1.168, "note_off_time": 1.449}, {"pitch": 62, "velocity": 80, "note_on_time": 1.449, "note_off_time": 1.744}, {"pitch": 42, "velocity": 80, "note_on_time": 1.449, "note_off_time": 1.744}, {"pitch": 64, "velocity": 80, "note_on_time": 1.744, "note_off_time": 2.038}, {"pitch": 42, "velocity": 80, "note_on_time": 1.744, "note_off_time": 2.038}, {"pitch": 62, "velocity": 80, "note_on_time": 2.038, "note_off_time": 2.332}, {"pitch": 42, "velocity": 80, "note_on_time": 2.038, "note_off_time": 2.332}, {"pitch": 42, "velocity": 80, "note_on_time": 2.333, "note_off_time": 2.613}, {"pitch": 60, "velocity": 80, "note_on_time": 2.332, "note_off_time": 2.895}, {"pitch": 42, "velocity": 80, "note_on_time": 2.613, "note_off_time": 2.895}, {"pitch": 42, "velocity": 80, "note_on_time": 2.895, "note_off_time": 3.188}, {"pitch": 64, "velocity": 80, "note_on_time": 3.188, "note_off_time": 3.482}, {"pitch": 42, "velocity": 80, "note_on_time": 3.188, "note_off_time": 3.482}, {"pitch": 60, "velocity": 80, "note_on_time": 3.482, "note_off_time": 3.778}, {"pitch": 42, "velocity": 80, "note_on_time": 3.483, "note_off_time": 3.778}, {"pitch": 60, "velocity": 80, "note_on_time": 3.778, "note_off_time": 4.073}, {"pitch": 42, "velocity": 80, "note_on_time": 3.778, "note_off_time": 4.073}, {"pitch": 62, "velocity": 80, "note_on_time": 4.073, "note_off_time": 4.353}, {"pitch": 42, "velocity": 80, "note_on_time": 4.073, "note_off_time": 4.354}, {"pitch": 60, "velocity": 80, "note_on_time": 4.353, "note_off_time": 4.648}, {"pitch": 42, "velocity": 80, "note_on_time": 4.354, "note_off_time": 4.648}, {"pitch": 62, "velocity": 80, "note_on_time": 4.648, "note_off_time": 4.944}, {"pitch": 42, "velocity": 80, "note_on_time": 4.648, "note_off_time": 4.944}, {"pitch": 62, "velocity": 80, "note_on_time": 4.944, "note_off_time": 5.225}, {"pitch": 42, "velocity": 80, "note_on_time": 4.945, "note_off_time": 5.226}, {"pitch": 60, "velocity": 80, "note_on_time": 5.225, "note_off_time": 5.521}, {"pitch": 42, "velocity": 80, "note_on_time": 5.226, "note_off_time": 5.521}, {"pitch": 64, "velocity": 80, "note_on_time": 5.521, "note_off_time": 5.816}, {"pitch": 42, "velocity": 80, "note_on_time": 5.521, "note_off_time": 5.817}, {"pitch": 64, "velocity": 80, "note_on_time": 5.816, "note_off_time": 6.11}, {"pitch": 42, "velocity": 80, "note_on_time": 5.817, "note_off_time": 6.11}, {"pitch": 64, "velocity": 80, "note_on_time": 6.11, "note_off_time": 6.403}, {"pitch": 42, "velocity": 80, "note_on_time": 6.11, "note_off_time": 6.403}, {"pitch": 64, "velocity": 80, "note_on_time": 6.403, "note_off_time": 6.699}, {"pitch": 42, "velocity": 80, "note_on_time": 6.403, "note_off_time": 6.699}, {"pitch": 60, "velocity": 80, "note_on_time": 6.699, "note_off_time": 6.994}, {"pitch": 42, "velocity": 80, "note_on_time": 6.699, "note_off_time": 6.995}, {"pitch": 42, "velocity": 80, "note_on_time": 6.995, "note_off_time": 7.29}, {"pitch": 62, "velocity": 80, "note_on_time": 6.994, "note_off_time": 7.571}, {"pitch": 42, "velocity": 80, "note_on_time": 7.291, "note_off_time": 7.571}, {"pitch": 42, "velocity": 80, "note_on_time": 7.572, "note_off_time": 7.868}, {"pitch": 42, "velocity": 80, "note_on_time": 7.868, "note_off_time": 8.149}, {"pitch": 60, "velocity": 80, "note_on_time": 8.149, "note_off_time": 8.445}, {"pitch": 42, "velocity": 80, "note_on_time": 8.15, "note_off_time": 8.445}, {"pitch": 42, "velocity": 80, "note_on_time": 8.445, "note_off_time": 8.739}, {"pitch": 42, "velocity": 80, "note_on_time": 8.74, "note_off_time": 9.021}, {"pitch": 60, "velocity": 80, "note_on_time": 9.021, "note_off_time": 9.315}, {"pitch": 42, "velocity": 80, "note_on_time": 9.021, "note_off_time": 9.316}, {"pitch": 42, "velocity": 80, "note_on_time": 9.316, "note_off_time": 9.597}, {"pitch": 60, "velocity": 80, "note_on_time": 9.597, "note_off_time": 9.892}, {"pitch": 42, "velocity": 80, "note_on_time": 9.597, "note_off_time": 9.893}, {"pitch": 60, "velocity": 80, "note_on_time": 9.892, "note_off_time": 10.188}, {"pitch": 42, "velocity": 80, "note_on_time": 9.893, "note_off_time": 10.188}, {"pitch": 60, "velocity": 80, "note_on_time": 10.188, "note_off_time": 10.482}, {"pitch": 42, "velocity": 80, "note_on_time": 10.188, "note_off_time": 10.482}]</notes><options name="Option List">((4, 4), [0.5, 0.25], 3, 8, &lt;NoteRangePerHand.THREE_NOTES: 4&gt;, &lt;NoteRangePerHand.ONE_NOTE: 2&gt;, False, True, False, 215)</options></target_notes><trials><trial trial_no="1" timestamp="2022_12_22-13_54_47"><notes name="Played Notes">[{"pitch": 62, "velocity": 88, "note_on_time": 1.241, "note_off_time": 1.356}, {"pitch": 62, "velocity": 89, "note_on_time": 1.517, "note_off_time": 1.672}, {"pitch": 64, "velocity": 89, "note_on_time": 1.801, "note_off_time": 1.951}, {"pitch": 62, "velocity": 89, "note_on_time": 2.092, "note_off_time": 2.24}, {"pitch": 60, "velocity": 98, "note_on_time": 2.374, "note_off_time": 2.833}, {"pitch": 64, "velocity": 96, "note_on_time": 3.063, "note_off_time": 3.307}, {"pitch": 60, "velocity": 96, "note_on_time": 3.467, "note_off_time": 3.591}, {"pitch": 60, "velocity": 102, "note_on_time": 3.776, "note_off_time": 3.903}, {"pitch": 62, "velocity": 85, "note_on_time": 4.077, "note_off_time": 4.249}, {"pitch": 60, "velocity": 100, "note_on_time": 4.393, "note_off_time": 4.567}, {"pitch": 62, "velocity": 92, "note_on_time": 4.698, "note_off_time": 4.845}, {"pitch": 62, "velocity": 93, "note_on_time": 5.011, "note_off_time": 5.159}, {"pitch": 60, "velocity": 98, "note_on_time": 5.302, "note_off_time": 5.436}, {"pitch": 64, "velocity": 92, "note_on_time": 5.595, "note_off_time": 5.812}, {"pitch": 64, "velocity": 95, "note_on_time": 6.092, "note_off_time": 6.212}, {"pitch": 64, "velocity": 92, "note_on_time": 6.355, "note_off_time": 6.467}, {"pitch": 64, "velocity": 91, "note_on_time": 6.645, "note_off_time": 6.844}, {"pitch": 62, "velocity": 88, "note_on_time": 7.006, "note_off_time": 7.263}, {"pitch": 62, "velocity": 89, "note_on_time": 7.768, "note_off_time": 8.281}, {"pitch": 60, "velocity": 94, "note_on_time": 8.465, "note_off_time": 8.73}, {"pitch": 60, "velocity": 102, "note_on_time": 9.3, "note_off_time": 9.609}, {"pitch": 60, "velocity": 99, "note_on_time": 10.014, "note_off_time": 10.107}, {"pitch": 60, "velocity": 103, "note_on_time": 10.286, "note_off_time": 10.379}]</notes><guidance name="Guidance Mode">None</guidance><error name="Error value">0.24151723809523812</error></trial><trial trial_no="2" timestamp="2022_12_22-13_55_10"><notes name="Played Notes">[{"pitch": 62, "velocity": 87, "note_on_time": 1.183, "note_off_time": 1.305}, {"pitch": 62, "velocity": 86, "note_on_time": 1.447, "note_off_time": 1.61}, {"pitch": 64, "velocity": 88, "note_on_time": 1.734, "note_off_time": 1.884}, {"pitch": 62, "velocity": 87, "note_on_time": 2.01, "note_off_time": 2.159}, {"pitch": 60, "velocity": 101, "note_on_time": 2.305, "note_off_time": 2.793}, {"pitch": 64, "velocity": 100, "note_on_time": 3.074, "note_off_time": 3.276}, {"pitch": 60, "velocity": 100, "note_on_time": 3.397, "note_off_time": 3.526}, {"pitch": 60, "velocity": 92, "note_on_time": 3.683, "note_off_time": 3.843}, {"pitch": 62, "velocity": 89, "note_on_time": 3.99, "note_off_time": 4.153}, {"pitch": 60, "velocity": 95, "note_on_time": 4.267, "note_off_time": 4.414}, {"pitch": 62, "velocity": 93, "note_on_time": 4.552, "note_off_time": 4.688}, {"pitch": 62, "velocity": 83, "note_on_time": 4.823, "note_off_time": 4.961}, {"pitch": 60, "velocity": 94, "note_on_time": 5.113, "note_off_time": 5.289}, {"pitch": 64, "velocity": 82, "note_on_time": 5.527, "note_off_time": 5.764}, {"pitch": 64, "velocity": 84, "note_on_time": 5.844, "note_off_time": 5.999}, {"pitch": 64, "velocity": 92, "note_on_time": 6.169, "note_off_time": 6.294}, {"pitch": 64, "velocity": 87, "note_on_time": 6.464, "note_off_time": 6.615}, {"pitch": 60, "velocity": 92, "note_on_time": 6.77, "note_off_time": 6.924}, {"pitch": 62, "velocity": 93, "note_on_time": 7.073, "note_off_time": 7.559}, {"pitch": 60, "velocity": 106, "note_on_time": 7.782, "note_off_time": 8.09}, {"pitch": 60, "velocity": 108, "note_on_time": 8.383, "note_off_time": 8.665}, {"pitch": 60, "velocity": 104, "note_on_time": 8.869, "note_off_time": 8.959}, {"pitch": 60, "velocity": 101, "note_on_time": 9.13, "note_off_time": 9.239}, {"pitch": 60, "velocity": 115, "note_on_time": 9.422, "note_off_time": 9.493}]</notes><guidance name="Guidance Mode">None</guidance><error name="Error value">0.05943842857142857</error></trial><trial trial_no="3" timestamp="2022_12_22-13_55_32"><notes name="Played Notes">[{"pitch": 62, "velocity": 86, "note_on_time": 1.212, "note_off_time": 1.331}, {"pitch": 62, "velocity": 95, "note_on_time": 1.485, "note_off_time": 1.631}, {"pitch": 64, "velocity": 93, "note_on_time": 1.774, "note_off_time": 1.915}, {"pitch": 62, "velocity": 91, "note_on_time": 2.055, "note_off_time": 2.193}, {"pitch": 60, "velocity": 73, "note_on_time": 2.577, "note_off_time": 3.092}, {"pitch": 64, "velocity": 100, "note_on_time": 3.284, "note_off_time": 3.617}, {"pitch": 60, "velocity": 95, "note_on_time": 3.818, "note_off_time": 3.978}, {"pitch": 60, "velocity": 83, "note_on_time": 4.123, "note_off_time": 4.228}, {"pitch": 62, "velocity": 82, "note_on_time": 4.448, "note_off_time": 4.62}, {"pitch": 60, "velocity": 88, "note_on_time": 4.742, "note_off_time": 4.917}, {"pitch": 62, "velocity": 73, "note_on_time": 5.207, "note_off_time": 5.369}, {"pitch": 62, "velocity": 84, "note_on_time": 5.532, "note_off_time": 5.71}, {"pitch": 60, "velocity": 88, "note_on_time": 5.924, "note_off_time": 6.109}, {"pitch": 64, "velocity": 90, "note_on_time": 6.385, "note_off_time": 6.577}, {"pitch": 64, "velocity": 84, "note_on_time": 6.719, "note_off_time": 6.849}, {"pitch": 64, "velocity": 80, "note_on_time": 7.027, "note_off_time": 7.152}, {"pitch": 64, "velocity": 83, "note_on_time": 7.344, "note_off_time": 7.477}, {"pitch": 60, "velocity": 94, "note_on_time": 7.855, "note_off_time": 8.019}, {"pitch": 62, "velocity": 93, "note_on_time": 8.191, "note_off_time": 8.617}, {"pitch": 60, "velocity": 100, "note_on_time": 8.913, "note_off_time": 9.092}, {"pitch": 60, "velocity": 98, "note_on_time": 9.459, "note_off_time": 9.602}, {"pitch": 60, "velocity": 84, "note_on_time": 9.916, "note_off_time": 10.013}, {"pitch": 60, "velocity": 95, "note_on_time": 10.162, "note_off_time": 10.256}]</notes><guidance name="Guidance Mode">None</guidance><error name="Error value">0.3251904761904763</error></trial></trials></MIDI>