<MIDI midiNo="2022_11_03-10_14_47"><target_notes><notes name="Note List">[{"pitch": 42, "velocity": 80, "note_on_time": 0.004, "note_off_time": 0.376}, {"pitch": 42, "velocity": 80, "note_on_time": 0.376, "note_off_time": 0.749}, {"pitch": 42, "velocity": 80, "note_on_time": 0.75, "note_off_time": 1.12}, {"pitch": 42, "velocity": 80, "note_on_time": 1.12, "note_off_time": 1.49}, {"pitch": 62, "velocity": 80, "note_on_time": 1.49, "note_off_time": 1.859}, {"pitch": 42, "velocity": 80, "note_on_time": 1.491, "note_off_time": 1.859}, {"pitch": 62, "velocity": 80, "note_on_time": 1.859, "note_off_time": 2.231}, {"pitch": 42, "velocity": 80, "note_on_time": 1.859, "note_off_time": 2.232}, {"pitch": 62, "velocity": 80, "note_on_time": 2.231, "note_off_time": 2.602}, {"pitch": 42, "velocity": 80, "note_on_time": 2.232, "note_off_time": 2.602}, {"pitch": 67, "velocity": 80, "note_on_time": 2.602, "note_off_time": 2.973}, {"pitch": 42, "velocity": 80, "note_on_time": 2.602, "note_off_time": 2.973}, {"pitch": 42, "velocity": 80, "note_on_time": 2.974, "note_off_time": 3.344}, {"pitch": 67, "velocity": 80, "note_on_time": 2.973, "note_off_time": 3.716}, {"pitch": 42, "velocity": 80, "note_on_time": 3.344, "note_off_time": 3.716}, {"pitch": 42, "velocity": 80, "note_on_time": 3.717, "note_off_time": 4.086}, {"pitch": 42, "velocity": 80, "note_on_time": 4.087, "note_off_time": 4.459}, {"pitch": 65, "velocity": 80, "note_on_time": 4.458, "note_off_time": 4.83}, {"pitch": 42, "velocity": 80, "note_on_time": 4.459, "note_off_time": 4.83}, {"pitch": 62, "velocity": 80, "note_on_time": 4.83, "note_off_time": 5.201}, {"pitch": 42, "velocity": 80, "note_on_time": 4.83, "note_off_time": 5.201}, {"pitch": 65, "velocity": 80, "note_on_time": 5.201, "note_off_time": 5.574}, {"pitch": 42, "velocity": 80, "note_on_time": 5.201, "note_off_time": 5.574}, {"pitch": 60, "velocity": 80, "note_on_time": 5.574, "note_off_time": 5.947}, {"pitch": 42, "velocity": 80, "note_on_time": 5.574, "note_off_time": 5.947}, {"pitch": 60, "velocity": 80, "note_on_time": 5.947, "note_off_time": 6.319}, {"pitch": 42, "velocity": 80, "note_on_time": 5.948, "note_off_time": 6.319}, {"pitch": 62, "velocity": 80, "note_on_time": 6.319, "note_off_time": 6.693}, {"pitch": 42, "velocity": 80, "note_on_time": 6.319, "note_off_time": 6.693}, {"pitch": 67, "velocity": 80, "note_on_time": 6.693, "note_off_time": 7.066}, {"pitch": 42, "velocity": 80, "note_on_time": 6.693, "note_off_time": 7.066}, {"pitch": 60, "velocity": 80, "note_on_time": 7.066, "note_off_time": 7.436}, {"pitch": 42, "velocity": 80, "note_on_time": 7.067, "note_off_time": 7.436}, {"pitch": 67, "velocity": 80, "note_on_time": 7.436, "note_off_time": 7.809}, {"pitch": 42, "velocity": 80, "note_on_time": 7.437, "note_off_time": 7.81}, {"pitch": 60, "velocity": 80, "note_on_time": 7.809, "note_off_time": 8.181}, {"pitch": 42, "velocity": 80, "note_on_time": 7.81, "note_off_time": 8.181}, {"pitch": 60, "velocity": 80, "note_on_time": 8.181, "note_off_time": 8.556}, {"pitch": 42, "velocity": 80, "note_on_time": 8.181, "note_off_time": 8.556}, {"pitch": 64, "velocity": 80, "note_on_time": 8.556, "note_off_time": 8.929}, {"pitch": 42, "velocity": 80, "note_on_time": 8.557, "note_off_time": 8.929}, {"pitch": 62, "velocity": 80, "note_on_time": 8.929, "note_off_time": 9.304}, {"pitch": 42, "velocity": 80, "note_on_time": 8.929, "note_off_time": 9.304}, {"pitch": 65, "velocity": 80, "note_on_time": 9.304, "note_off_time": 9.675}, {"pitch": 42, "velocity": 80, "note_on_time": 9.304, "note_off_time": 9.675}, {"pitch": 60, "velocity": 80, "note_on_time": 9.675, "note_off_time": 10.046}, {"pitch": 42, "velocity": 80, "note_on_time": 9.675, "note_off_time": 10.047}, {"pitch": 62, "velocity": 80, "note_on_time": 10.046, "note_off_time": 10.42}, {"pitch": 42, "velocity": 80, "note_on_time": 10.047, "note_off_time": 10.42}, {"pitch": 62, "velocity": 80, "note_on_time": 10.42, "note_off_time": 10.793}, {"pitch": 42, "velocity": 80, "note_on_time": 10.421, "note_off_time": 10.793}, {"pitch": 60, "velocity": 80, "note_on_time": 10.793, "note_off_time": 11.166}, {"pitch": 42, "velocity": 80, "note_on_time": 10.793, "note_off_time": 11.167}, {"pitch": 67, "velocity": 80, "note_on_time": 11.166, "note_off_time": 11.536}, {"pitch": 42, "velocity": 80, "note_on_time": 11.167, "note_off_time": 11.537}, {"pitch": 65, "velocity": 80, "note_on_time": 11.536, "note_off_time": 11.91}, {"pitch": 42, "velocity": 80, "note_on_time": 11.537, "note_off_time": 11.91}, {"pitch": 42, "velocity": 80, "note_on_time": 11.91, "note_off_time": 12.284}, {"pitch": 65, "velocity": 80, "note_on_time": 12.284, "note_off_time": 12.66}, {"pitch": 42, "velocity": 80, "note_on_time": 12.284, "note_off_time": 12.66}, {"pitch": 65, "velocity": 80, "note_on_time": 12.66, "note_off_time": 13.035}, {"pitch": 42, "velocity": 80, "note_on_time": 12.661, "note_off_time": 13.036}, {"pitch": 65, "velocity": 80, "note_on_time": 13.035, "note_off_time": 13.41}, {"pitch": 42, "velocity": 80, "note_on_time": 13.036, "note_off_time": 13.41}]</notes><options name="Option List">((4, 4), [0.5, 0.25], 3, 8, &lt;NoteRangePerHand.C_TO_G: 6&gt;, &lt;NoteRangePerHand.ONE_NOTE: 2&gt;, False, True, False, 166)</options></target_notes><trials><trial trial_no="1" timestamp="2022_11_03-10_14_33"><notes name="Played Notes">[{"pitch": 62, "velocity": 77, "note_on_time": 1.495, "note_off_time": 1.659}, {"pitch": 62, "velocity": 56, "note_on_time": 1.846, "note_off_time": 2.003}, {"pitch": 62, "velocity": 61, "note_on_time": 2.198, "note_off_time": 2.562}, {"pitch": 67, "velocity": 49, "note_on_time": 2.577, "note_off_time": 2.819}]</notes><guidance name="Guidance Mode">None</guidance><error name="Error value">1.3214449999999998</error></trial><trial trial_no="2" timestamp="2022_11_03-10_14_58"><notes name="Played Notes">[{"pitch": 62, "velocity": 74, "note_on_time": 2.982, "note_off_time": 3.133}, {"pitch": 62, "velocity": 72, "note_on_time": 3.33, "note_off_time": 3.469}, {"pitch": 62, "velocity": 61, "note_on_time": 3.695, "note_off_time": 4.044}, {"pitch": 67, "velocity": 68, "note_on_time": 4.038, "note_off_time": 4.163}, {"pitch": 67, "velocity": 78, "note_on_time": 4.394, "note_off_time": 4.892}, {"pitch": 65, "velocity": 73, "note_on_time": 5.933, "note_off_time": 6.205}, {"pitch": 62, "velocity": 59, "note_on_time": 6.309, "note_off_time": 6.656}, {"pitch": 65, "velocity": 71, "note_on_time": 6.655, "note_off_time": 6.997}, {"pitch": 60, "velocity": 70, "note_on_time": 7.022, "note_off_time": 7.152}, {"pitch": 60, "velocity": 77, "note_on_time": 7.358, "note_off_time": 7.814}, {"pitch": 62, "velocity": 57, "note_on_time": 7.781, "note_off_time": 8.15}, {"pitch": 67, "velocity": 70, "note_on_time": 8.133, "note_off_time": 8.534}, {"pitch": 60, "velocity": 52, "note_on_time": 8.542, "note_off_time": 8.91}, {"pitch": 67, "velocity": 68, "note_on_time": 8.9, "note_off_time": 9.276}, {"pitch": 60, "velocity": 60, "note_on_time": 9.28, "note_off_time": 9.415}, {"pitch": 60, "velocity": 74, "note_on_time": 9.697, "note_off_time": 10.05}, {"pitch": 64, "velocity": 76, "note_on_time": 10.069, "note_off_time": 10.428}, {"pitch": 62, "velocity": 60, "note_on_time": 10.446, "note_off_time": 10.793}, {"pitch": 65, "velocity": 77, "note_on_time": 10.805, "note_off_time": 11.176}, {"pitch": 60, "velocity": 63, "note_on_time": 11.188, "note_off_time": 11.553}, {"pitch": 62, "velocity": 71, "note_on_time": 11.543, "note_off_time": 11.683}, {"pitch": 62, "velocity": 70, "note_on_time": 11.887, "note_off_time": 12.297}, {"pitch": 60, "velocity": 69, "note_on_time": 12.278, "note_off_time": 12.612}, {"pitch": 67, "velocity": 70, "note_on_time": 12.615, "note_off_time": 13.036}, {"pitch": 65, "velocity": 74, "note_on_time": 12.982, "note_off_time": 13.166}]</notes><guidance name="Guidance Mode">None</guidance><error name="Error value">0.18414220000000006</error></trial><trial trial_no="3" timestamp="2022_11_03-10_15_33"><notes name="Played Notes">[{"pitch": 62, "velocity": 70, "note_on_time": 2.989, "note_off_time": 3.137}, {"pitch": 62, "velocity": 69, "note_on_time": 3.34, "note_off_time": 3.498}, {"pitch": 62, "velocity": 65, "note_on_time": 3.69, "note_off_time": 4.041}, {"pitch": 67, "velocity": 67, "note_on_time": 4.04, "note_off_time": 4.169}, {"pitch": 67, "velocity": 77, "note_on_time": 4.413, "note_off_time": 4.766}, {"pitch": 65, "velocity": 70, "note_on_time": 5.507, "note_off_time": 5.855}, {"pitch": 62, "velocity": 61, "note_on_time": 5.903, "note_off_time": 6.324}, {"pitch": 65, "velocity": 72, "note_on_time": 6.312, "note_off_time": 6.646}, {"pitch": 60, "velocity": 72, "note_on_time": 6.671, "note_off_time": 6.86}, {"pitch": 60, "velocity": 72, "note_on_time": 7.05, "note_off_time": 7.407}, {"pitch": 62, "velocity": 56, "note_on_time": 7.413, "note_off_time": 7.766}, {"pitch": 67, "velocity": 69, "note_on_time": 7.764, "note_off_time": 8.162}, {"pitch": 60, "velocity": 36, "note_on_time": 8.195, "note_off_time": 8.54}, {"pitch": 67, "velocity": 71, "note_on_time": 8.549, "note_off_time": 8.919}, {"pitch": 60, "velocity": 51, "note_on_time": 8.928, "note_off_time": 9.07}, {"pitch": 60, "velocity": 70, "note_on_time": 9.302, "note_off_time": 9.655}, {"pitch": 64, "velocity": 74, "note_on_time": 9.654, "note_off_time": 9.999}, {"pitch": 62, "velocity": 52, "note_on_time": 10.027, "note_off_time": 10.39}, {"pitch": 65, "velocity": 71, "note_on_time": 10.4, "note_off_time": 10.742}, {"pitch": 60, "velocity": 69, "note_on_time": 10.76, "note_off_time": 11.119}, {"pitch": 62, "velocity": 61, "note_on_time": 11.137, "note_off_time": 11.323}, {"pitch": 62, "velocity": 68, "note_on_time": 11.518, "note_off_time": 11.912}, {"pitch": 60, "velocity": 76, "note_on_time": 11.901, "note_off_time": 12.25}, {"pitch": 67, "velocity": 69, "note_on_time": 12.249, "note_off_time": 12.679}, {"pitch": 65, "velocity": 69, "note_on_time": 12.616, "note_off_time": 12.783}, {"pitch": 65, "velocity": 85, "note_on_time": 13.142, "note_off_time": 13.282}]</notes><guidance name="Guidance Mode">None</guidance><error name="Error value">0.13801780000000008</error></trial><trial trial_no="4" timestamp="2022_11_03-10_16_27"><notes name="Played Notes">[{"pitch": 62, "velocity": 78, "note_on_time": 1.502, "note_off_time": 1.669}, {"pitch": 62, "velocity": 78, "note_on_time": 1.85, "note_off_time": 1.981}, {"pitch": 62, "velocity": 63, "note_on_time": 2.179, "note_off_time": 2.562}, {"pitch": 67, "velocity": 69, "note_on_time": 2.537, "note_off_time": 2.707}, {"pitch": 67, "velocity": 73, "note_on_time": 2.931, "note_off_time": 3.393}, {"pitch": 65, "velocity": 72, "note_on_time": 4.073, "note_off_time": 4.423}, {"pitch": 62, "velocity": 68, "note_on_time": 4.446, "note_off_time": 4.8}, {"pitch": 65, "velocity": 75, "note_on_time": 4.798, "note_off_time": 5.151}, {"pitch": 60, "velocity": 62, "note_on_time": 5.166, "note_off_time": 5.3}, {"pitch": 60, "velocity": 64, "note_on_time": 5.53, "note_off_time": 5.968}, {"pitch": 62, "velocity": 61, "note_on_time": 5.925, "note_off_time": 6.302}, {"pitch": 67, "velocity": 71, "note_on_time": 6.28, "note_off_time": 6.69}, {"pitch": 60, "velocity": 55, "note_on_time": 6.662, "note_off_time": 7.059}, {"pitch": 67, "velocity": 70, "note_on_time": 7.05, "note_off_time": 7.451}, {"pitch": 60, "velocity": 56, "note_on_time": 7.427, "note_off_time": 7.591}, {"pitch": 60, "velocity": 75, "note_on_time": 7.81, "note_off_time": 8.171}, {"pitch": 64, "velocity": 68, "note_on_time": 8.182, "note_off_time": 8.543}, {"pitch": 62, "velocity": 51, "note_on_time": 8.553, "note_off_time": 8.9}, {"pitch": 65, "velocity": 65, "note_on_time": 8.901, "note_off_time": 9.273}, {"pitch": 60, "velocity": 72, "note_on_time": 9.272, "note_off_time": 9.669}, {"pitch": 62, "velocity": 66, "note_on_time": 9.655, "note_off_time": 9.783}, {"pitch": 62, "velocity": 70, "note_on_time": 9.998, "note_off_time": 10.41}, {"pitch": 60, "velocity": 64, "note_on_time": 10.402, "note_off_time": 10.752}, {"pitch": 67, "velocity": 72, "note_on_time": 10.739, "note_off_time": 11.129}, {"pitch": 65, "velocity": 70, "note_on_time": 11.071, "note_off_time": 11.283}, {"pitch": 65, "velocity": 71, "note_on_time": 11.536, "note_off_time": 11.687}, {"pitch": 65, "velocity": 75, "note_on_time": 11.898, "note_off_time": 12.091}, {"pitch": 65, "velocity": 79, "note_on_time": 12.287, "note_off_time": 12.597}]</notes><guidance name="Guidance Mode">None</guidance><error name="Error value">0.04022220000000006</error></trial></trials></MIDI>