<MIDI midiNo="2022_08_17-16_08_18"><target_notes><notes name="Note List">[{"pitch": 42, "velocity": 80, "note_on_time": 0.004, "note_off_time": 0.619}, {"pitch": 42, "velocity": 80, "note_on_time": 0.62, "note_off_time": 1.229}, {"pitch": 42, "velocity": 80, "note_on_time": 1.229, "note_off_time": 1.836}, {"pitch": 42, "velocity": 80, "note_on_time": 1.836, "note_off_time": 2.445}, {"pitch": 60, "velocity": 80, "note_on_time": 2.445, "note_off_time": 3.052}, {"pitch": 42, "velocity": 80, "note_on_time": 2.446, "note_off_time": 3.052}, {"pitch": 42, "velocity": 80, "note_on_time": 3.053, "note_off_time": 3.661}, {"pitch": 67, "velocity": 80, "note_on_time": 3.052, "note_off_time": 4.27}, {"pitch": 42, "velocity": 80, "note_on_time": 3.661, "note_off_time": 4.27}, {"pitch": 42, "velocity": 80, "note_on_time": 4.27, "note_off_time": 4.87}, {"pitch": 60, "velocity": 80, "note_on_time": 4.87, "note_off_time": 5.476}, {"pitch": 42, "velocity": 80, "note_on_time": 4.871, "note_off_time": 5.476}, {"pitch": 67, "velocity": 80, "note_on_time": 5.476, "note_off_time": 6.083}, {"pitch": 42, "velocity": 80, "note_on_time": 5.477, "note_off_time": 6.083}, {"pitch": 62, "velocity": 80, "note_on_time": 6.083, "note_off_time": 6.691}, {"pitch": 42, "velocity": 80, "note_on_time": 6.084, "note_off_time": 6.691}, {"pitch": 65, "velocity": 80, "note_on_time": 6.691, "note_off_time": 7.298}, {"pitch": 42, "velocity": 80, "note_on_time": 6.692, "note_off_time": 7.298}, {"pitch": 62, "velocity": 80, "note_on_time": 7.298, "note_off_time": 7.904}, {"pitch": 42, "velocity": 80, "note_on_time": 7.298, "note_off_time": 7.904}, {"pitch": 60, "velocity": 80, "note_on_time": 7.904, "note_off_time": 8.507}, {"pitch": 42, "velocity": 80, "note_on_time": 7.904, "note_off_time": 8.507}, {"pitch": 62, "velocity": 80, "note_on_time": 8.507, "note_off_time": 9.116}, {"pitch": 42, "velocity": 80, "note_on_time": 8.507, "note_off_time": 9.116}, {"pitch": 62, "velocity": 80, "note_on_time": 9.116, "note_off_time": 9.723}, {"pitch": 42, "velocity": 80, "note_on_time": 9.116, "note_off_time": 9.723}, {"pitch": 64, "velocity": 80, "note_on_time": 9.723, "note_off_time": 10.327}, {"pitch": 42, "velocity": 80, "note_on_time": 9.723, "note_off_time": 10.327}, {"pitch": 42, "velocity": 80, "note_on_time": 10.327, "note_off_time": 10.941}, {"pitch": 42, "velocity": 80, "note_on_time": 10.942, "note_off_time": 11.552}, {"pitch": 42, "velocity": 80, "note_on_time": 11.552, "note_off_time": 12.164}, {"pitch": 62, "velocity": 80, "note_on_time": 12.164, "note_off_time": 12.774}, {"pitch": 42, "velocity": 80, "note_on_time": 12.164, "note_off_time": 12.774}, {"pitch": 62, "velocity": 80, "note_on_time": 12.774, "note_off_time": 13.381}, {"pitch": 42, "velocity": 80, "note_on_time": 12.774, "note_off_time": 13.381}, {"pitch": 67, "velocity": 80, "note_on_time": 13.381, "note_off_time": 13.988}, {"pitch": 42, "velocity": 80, "note_on_time": 13.381, "note_off_time": 13.988}, {"pitch": 67, "velocity": 80, "note_on_time": 13.988, "note_off_time": 14.597}, {"pitch": 42, "velocity": 80, "note_on_time": 13.988, "note_off_time": 14.597}, {"pitch": 42, "velocity": 80, "note_on_time": 14.597, "note_off_time": 15.205}, {"pitch": 65, "velocity": 80, "note_on_time": 14.597, "note_off_time": 15.814}, {"pitch": 42, "velocity": 80, "note_on_time": 15.206, "note_off_time": 15.814}, {"pitch": 62, "velocity": 80, "note_on_time": 15.814, "note_off_time": 16.423}, {"pitch": 42, "velocity": 80, "note_on_time": 15.814, "note_off_time": 16.423}, {"pitch": 42, "velocity": 80, "note_on_time": 16.423, "note_off_time": 17.03}, {"pitch": 64, "velocity": 80, "note_on_time": 17.03, "note_off_time": 17.635}, {"pitch": 42, "velocity": 80, "note_on_time": 17.03, "note_off_time": 17.636}, {"pitch": 64, "velocity": 80, "note_on_time": 17.635, "note_off_time": 18.245}, {"pitch": 42, "velocity": 80, "note_on_time": 17.636, "note_off_time": 18.245}, {"pitch": 64, "velocity": 80, "note_on_time": 18.245, "note_off_time": 18.858}, {"pitch": 42, "velocity": 80, "note_on_time": 18.246, "note_off_time": 18.858}, {"pitch": 65, "velocity": 80, "note_on_time": 18.858, "note_off_time": 19.464}, {"pitch": 42, "velocity": 80, "note_on_time": 18.858, "note_off_time": 19.464}, {"pitch": 42, "velocity": 80, "note_on_time": 19.465, "note_off_time": 20.071}, {"pitch": 65, "velocity": 80, "note_on_time": 20.071, "note_off_time": 20.68}, {"pitch": 42, "velocity": 80, "note_on_time": 20.071, "note_off_time": 20.68}, {"pitch": 65, "velocity": 80, "note_on_time": 20.68, "note_off_time": 21.289}, {"pitch": 42, "velocity": 80, "note_on_time": 20.68, "note_off_time": 21.289}, {"pitch": 65, "velocity": 80, "note_on_time": 21.289, "note_off_time": 21.901}, {"pitch": 42, "velocity": 80, "note_on_time": 21.289, "note_off_time": 21.901}]</notes><options name="Option List">((4, 4), [0.5, 0.25], 3, 8, &lt;NoteRangePerHand.C_TO_G: 6&gt;, &lt;NoteRangePerHand.ONE_NOTE: 2&gt;, False, True, True, '100')</options></target_notes><trials><trial trial_no="1" timestamp="2022_08_17-16_07_55"><notes name="Played Notes">[{"pitch": 60, "velocity": 66, "note_on_time": 2.493, "note_off_time": 3.146}, {"pitch": 67, "velocity": 82, "note_on_time": 3.112, "note_off_time": 3.645}, {"pitch": 60, "velocity": 75, "note_on_time": 4.889, "note_off_time": 5.482}, {"pitch": 65, "velocity": 68, "note_on_time": 5.497, "note_off_time": 6.016}, {"pitch": 62, "velocity": 60, "note_on_time": 6.052, "note_off_time": 6.68}, {"pitch": 64, "velocity": 71, "note_on_time": 6.678, "note_off_time": 7.301}, {"pitch": 62, "velocity": 69, "note_on_time": 7.318, "note_off_time": 7.902}, {"pitch": 60, "velocity": 68, "note_on_time": 7.892, "note_off_time": 8.526}, {"pitch": 62, "velocity": 64, "note_on_time": 8.525, "note_off_time": 8.808}, {"pitch": 62, "velocity": 61, "note_on_time": 9.128, "note_off_time": 9.444}, {"pitch": 64, "velocity": 73, "note_on_time": 9.743, "note_off_time": 10.125}, {"pitch": 62, "velocity": 60, "note_on_time": 12.173, "note_off_time": 12.487}, {"pitch": 62, "velocity": 67, "note_on_time": 12.798, "note_off_time": 13.105}, {"pitch": 65, "velocity": 67, "note_on_time": 13.431, "note_off_time": 13.749}, {"pitch": 65, "velocity": 64, "note_on_time": 14.034, "note_off_time": 14.399}, {"pitch": 64, "velocity": 74, "note_on_time": 14.623, "note_off_time": 15.233}, {"pitch": 62, "velocity": 70, "note_on_time": 15.824, "note_off_time": 16.335}, {"pitch": 64, "velocity": 64, "note_on_time": 17.066, "note_off_time": 17.322}, {"pitch": 64, "velocity": 63, "note_on_time": 17.649, "note_off_time": 17.924}, {"pitch": 64, "velocity": 67, "note_on_time": 18.245, "note_off_time": 18.53}, {"pitch": 65, "velocity": 62, "note_on_time": 18.855, "note_off_time": 19.202}, {"pitch": 64, "velocity": 66, "note_on_time": 20.053, "note_off_time": 20.237}, {"pitch": 64, "velocity": 65, "note_on_time": 20.67, "note_off_time": 20.982}, {"pitch": 64, "velocity": 68, "note_on_time": 21.287, "note_off_time": 21.672}]</notes><guidance name="Guidance Mode">None</guidance><error name="Error value">0.40238095238095223</error></trial><trial trial_no="2" timestamp="2022_08_17-16_08_37"><notes name="Played Notes">[{"pitch": 60, "velocity": 67, "note_on_time": 2.486, "note_off_time": 3.134}, {"pitch": 67, "velocity": 75, "note_on_time": 3.068, "note_off_time": 3.651}, {"pitch": 60, "velocity": 65, "note_on_time": 4.858, "note_off_time": 5.479}, {"pitch": 65, "velocity": 63, "note_on_time": 5.483, "note_off_time": 5.995}, {"pitch": 62, "velocity": 42, "note_on_time": 6.058, "note_off_time": 6.665}, {"pitch": 64, "velocity": 68, "note_on_time": 6.661, "note_off_time": 7.248}, {"pitch": 62, "velocity": 63, "note_on_time": 7.322, "note_off_time": 7.745}, {"pitch": 60, "velocity": 70, "note_on_time": 7.993, "note_off_time": 8.32}, {"pitch": 62, "velocity": 57, "note_on_time": 8.59, "note_off_time": 8.89}, {"pitch": 62, "velocity": 62, "note_on_time": 9.168, "note_off_time": 9.49}, {"pitch": 64, "velocity": 76, "note_on_time": 9.767, "note_off_time": 10.122}, {"pitch": 62, "velocity": 64, "note_on_time": 12.203, "note_off_time": 12.508}, {"pitch": 62, "velocity": 67, "note_on_time": 12.828, "note_off_time": 13.077}, {"pitch": 65, "velocity": 65, "note_on_time": 13.434, "note_off_time": 13.74}, {"pitch": 65, "velocity": 66, "note_on_time": 14.032, "note_off_time": 14.339}, {"pitch": 64, "velocity": 69, "note_on_time": 14.62, "note_off_time": 15.032}, {"pitch": 62, "velocity": 66, "note_on_time": 15.836, "note_off_time": 16.15}, {"pitch": 60, "velocity": 70, "note_on_time": 17.032, "note_off_time": 17.375}, {"pitch": 64, "velocity": 71, "note_on_time": 17.663, "note_off_time": 18.002}, {"pitch": 64, "velocity": 63, "note_on_time": 18.301, "note_off_time": 18.706}]</notes><guidance name="Guidance Mode">None</guidance><error name="Error value">0.7503809523809525</error></trial><trial trial_no="3" timestamp="2022_08_17-16_09_47"><notes name="Played Notes">[{"pitch": 60, "velocity": 70, "note_on_time": 2.464, "note_off_time": 3.099}, {"pitch": 62, "velocity": 69, "note_on_time": 7.292, "note_off_time": 7.663}, {"pitch": 62, "velocity": 66, "note_on_time": 7.906, "note_off_time": 8.31}, {"pitch": 64, "velocity": 74, "note_on_time": 8.515, "note_off_time": 9.101}, {"pitch": 62, "velocity": 67, "note_on_time": 10.939, "note_off_time": 11.258}, {"pitch": 62, "velocity": 68, "note_on_time": 11.539, "note_off_time": 11.87}, {"pitch": 65, "velocity": 70, "note_on_time": 12.161, "note_off_time": 12.488}, {"pitch": 65, "velocity": 69, "note_on_time": 12.776, "note_off_time": 13.091}, {"pitch": 64, "velocity": 77, "note_on_time": 13.377, "note_off_time": 13.832}, {"pitch": 62, "velocity": 78, "note_on_time": 14.653, "note_off_time": 14.837}, {"pitch": 64, "velocity": 68, "note_on_time": 15.901, "note_off_time": 16.133}, {"pitch": 64, "velocity": 59, "note_on_time": 16.448, "note_off_time": 16.791}, {"pitch": 64, "velocity": 60, "note_on_time": 17.011, "note_off_time": 17.366}, {"pitch": 65, "velocity": 66, "note_on_time": 17.634, "note_off_time": 17.899}, {"pitch": 62, "velocity": 60, "note_on_time": 18.845, "note_off_time": 19.102}, {"pitch": 64, "velocity": 65, "note_on_time": 19.428, "note_off_time": 19.68}, {"pitch": 64, "velocity": 65, "note_on_time": 20.03, "note_off_time": 20.365}, {"pitch": 64, "velocity": 68, "note_on_time": 20.647, "note_off_time": 20.744}]</notes><guidance name="Guidance Mode">None</guidance><error name="Error value">1.488619047619049</error></trial><trial trial_no="4" timestamp="2022_08_17-16_10_32"><notes name="Played Notes">[{"pitch": 60, "velocity": 66, "note_on_time": 2.412, "note_off_time": 2.864}, {"pitch": 67, "velocity": 76, "note_on_time": 3.068, "note_off_time": 3.446}, {"pitch": 60, "velocity": 73, "note_on_time": 4.257, "note_off_time": 4.606}, {"pitch": 65, "velocity": 66, "note_on_time": 4.897, "note_off_time": 5.217}, {"pitch": 62, "velocity": 56, "note_on_time": 5.472, "note_off_time": 5.795}, {"pitch": 64, "velocity": 65, "note_on_time": 6.08, "note_off_time": 6.524}, {"pitch": 62, "velocity": 58, "note_on_time": 6.701, "note_off_time": 7.047}, {"pitch": 60, "velocity": 71, "note_on_time": 7.324, "note_off_time": 7.587}, {"pitch": 64, "velocity": 68, "note_on_time": 7.915, "note_off_time": 8.162}, {"pitch": 62, "velocity": 58, "note_on_time": 8.519, "note_off_time": 8.971}, {"pitch": 64, "velocity": 23, "note_on_time": 9.546, "note_off_time": 9.638}, {"pitch": 60, "velocity": 65, "note_on_time": 10.406, "note_off_time": 10.685}, {"pitch": 62, "velocity": 70, "note_on_time": 11.01, "note_off_time": 11.267}, {"pitch": 65, "velocity": 68, "note_on_time": 11.609, "note_off_time": 11.894}, {"pitch": 65, "velocity": 61, "note_on_time": 12.203, "note_off_time": 12.511}, {"pitch": 64, "velocity": 70, "note_on_time": 12.789, "note_off_time": 13.197}, {"pitch": 62, "velocity": 59, "note_on_time": 13.971, "note_off_time": 14.309}, {"pitch": 64, "velocity": 62, "note_on_time": 15.2, "note_off_time": 15.461}, {"pitch": 64, "velocity": 66, "note_on_time": 15.816, "note_off_time": 16.087}, {"pitch": 64, "velocity": 65, "note_on_time": 16.418, "note_off_time": 16.664}, {"pitch": 65, "velocity": 56, "note_on_time": 17.058, "note_off_time": 17.296}, {"pitch": 65, "velocity": 66, "note_on_time": 18.264, "note_off_time": 18.51}, {"pitch": 65, "velocity": 65, "note_on_time": 18.87, "note_off_time": 19.108}, {"pitch": 65, "velocity": 76, "note_on_time": 19.51, "note_off_time": 19.749}]</notes><guidance name="Guidance Mode">None</guidance><error name="Error value">0.47361904761904705</error></trial></trials></MIDI>