<MIDI midiNo="2022_11_03-10_43_51"><target_notes><notes name="Note List">[{"pitch": 42, "velocity": 80, "note_on_time": 0.003, "note_off_time": 0.226}, {"pitch": 42, "velocity": 80, "note_on_time": 0.226, "note_off_time": 0.442}, {"pitch": 42, "velocity": 80, "note_on_time": 0.442, "note_off_time": 0.662}, {"pitch": 42, "velocity": 80, "note_on_time": 0.662, "note_off_time": 0.881}, {"pitch": 42, "velocity": 80, "note_on_time": 0.881, "note_off_time": 1.1}, {"pitch": 62, "velocity": 80, "note_on_time": 0.881, "note_off_time": 1.318}, {"pitch": 42, "velocity": 80, "note_on_time": 1.1, "note_off_time": 1.318}, {"pitch": 42, "velocity": 80, "note_on_time": 1.318, "note_off_time": 1.535}, {"pitch": 42, "velocity": 80, "note_on_time": 1.535, "note_off_time": 1.754}, {"pitch": 67, "velocity": 80, "note_on_time": 1.754, "note_off_time": 1.97}, {"pitch": 42, "velocity": 80, "note_on_time": 1.754, "note_off_time": 1.97}, {"pitch": 67, "velocity": 80, "note_on_time": 1.97, "note_off_time": 2.188}, {"pitch": 42, "velocity": 80, "note_on_time": 1.97, "note_off_time": 2.188}, {"pitch": 62, "velocity": 80, "note_on_time": 2.188, "note_off_time": 2.406}, {"pitch": 42, "velocity": 80, "note_on_time": 2.188, "note_off_time": 2.406}, {"pitch": 65, "velocity": 80, "note_on_time": 2.406, "note_off_time": 2.623}, {"pitch": 42, "velocity": 80, "note_on_time": 2.406, "note_off_time": 2.623}, {"pitch": 60, "velocity": 80, "note_on_time": 2.623, "note_off_time": 2.84}, {"pitch": 42, "velocity": 80, "note_on_time": 2.623, "note_off_time": 2.84}, {"pitch": 65, "velocity": 80, "note_on_time": 2.84, "note_off_time": 3.062}, {"pitch": 42, "velocity": 80, "note_on_time": 2.84, "note_off_time": 3.062}, {"pitch": 60, "velocity": 80, "note_on_time": 3.062, "note_off_time": 3.277}, {"pitch": 42, "velocity": 80, "note_on_time": 3.062, "note_off_time": 3.277}, {"pitch": 65, "velocity": 80, "note_on_time": 3.277, "note_off_time": 3.496}, {"pitch": 42, "velocity": 80, "note_on_time": 3.277, "note_off_time": 3.496}, {"pitch": 64, "velocity": 80, "note_on_time": 3.496, "note_off_time": 3.711}, {"pitch": 42, "velocity": 80, "note_on_time": 3.496, "note_off_time": 3.711}, {"pitch": 62, "velocity": 80, "note_on_time": 3.711, "note_off_time": 3.928}, {"pitch": 42, "velocity": 80, "note_on_time": 3.711, "note_off_time": 3.928}, {"pitch": 65, "velocity": 80, "note_on_time": 3.928, "note_off_time": 4.146}, {"pitch": 42, "velocity": 80, "note_on_time": 3.928, "note_off_time": 4.146}, {"pitch": 64, "velocity": 80, "note_on_time": 4.146, "note_off_time": 4.364}, {"pitch": 42, "velocity": 80, "note_on_time": 4.146, "note_off_time": 4.364}, {"pitch": 62, "velocity": 80, "note_on_time": 4.364, "note_off_time": 4.584}, {"pitch": 42, "velocity": 80, "note_on_time": 4.364, "note_off_time": 4.584}, {"pitch": 65, "velocity": 80, "note_on_time": 4.584, "note_off_time": 4.803}, {"pitch": 42, "velocity": 80, "note_on_time": 4.584, "note_off_time": 4.803}, {"pitch": 64, "velocity": 80, "note_on_time": 4.803, "note_off_time": 5.02}, {"pitch": 42, "velocity": 80, "note_on_time": 4.803, "note_off_time": 5.02}, {"pitch": 67, "velocity": 80, "note_on_time": 5.02, "note_off_time": 5.236}, {"pitch": 42, "velocity": 80, "note_on_time": 5.02, "note_off_time": 5.236}, {"pitch": 60, "velocity": 80, "note_on_time": 5.236, "note_off_time": 5.454}, {"pitch": 42, "velocity": 80, "note_on_time": 5.236, "note_off_time": 5.454}, {"pitch": 42, "velocity": 80, "note_on_time": 5.454, "note_off_time": 5.673}, {"pitch": 65, "velocity": 80, "note_on_time": 5.454, "note_off_time": 5.89}, {"pitch": 42, "velocity": 80, "note_on_time": 5.673, "note_off_time": 5.89}, {"pitch": 64, "velocity": 80, "note_on_time": 5.89, "note_off_time": 6.107}, {"pitch": 42, "velocity": 80, "note_on_time": 5.89, "note_off_time": 6.107}, {"pitch": 64, "velocity": 80, "note_on_time": 6.107, "note_off_time": 6.324}, {"pitch": 42, "velocity": 80, "note_on_time": 6.107, "note_off_time": 6.324}, {"pitch": 42, "velocity": 80, "note_on_time": 6.324, "note_off_time": 6.541}, {"pitch": 42, "velocity": 80, "note_on_time": 6.541, "note_off_time": 6.759}, {"pitch": 42, "velocity": 80, "note_on_time": 6.759, "note_off_time": 6.976}, {"pitch": 42, "velocity": 80, "note_on_time": 6.976, "note_off_time": 7.192}, {"pitch": 64, "velocity": 80, "note_on_time": 7.192, "note_off_time": 7.411}, {"pitch": 42, "velocity": 80, "note_on_time": 7.192, "note_off_time": 7.411}, {"pitch": 64, "velocity": 80, "note_on_time": 7.411, "note_off_time": 7.629}, {"pitch": 42, "velocity": 80, "note_on_time": 7.411, "note_off_time": 7.629}, {"pitch": 64, "velocity": 80, "note_on_time": 7.629, "note_off_time": 7.845}, {"pitch": 42, "velocity": 80, "note_on_time": 7.629, "note_off_time": 7.845}]</notes><options name="Option List">((4, 4), [0.5, 0.25], 3, 8, &lt;NoteRangePerHand.C_TO_G: 6&gt;, &lt;NoteRangePerHand.ONE_NOTE: 2&gt;, False, True, False, '281')</options></target_notes><trials><trial trial_no="1" timestamp="2022_11_03-10_43_42"><notes name="Played Notes">[{"pitch": 62, "velocity": 88, "note_on_time": 0.916, "note_off_time": 1.609}, {"pitch": 67, "velocity": 75, "note_on_time": 1.642, "note_off_time": 1.744}, {"pitch": 67, "velocity": 81, "note_on_time": 1.889, "note_off_time": 2.152}, {"pitch": 62, "velocity": 55, "note_on_time": 2.138, "note_off_time": 2.355}, {"pitch": 65, "velocity": 85, "note_on_time": 2.364, "note_off_time": 2.592}, {"pitch": 60, "velocity": 68, "note_on_time": 2.61, "note_off_time": 2.85}, {"pitch": 65, "velocity": 74, "note_on_time": 2.865, "note_off_time": 3.062}, {"pitch": 60, "velocity": 69, "note_on_time": 3.082, "note_off_time": 3.327}, {"pitch": 65, "velocity": 76, "note_on_time": 3.319, "note_off_time": 3.58}, {"pitch": 64, "velocity": 74, "note_on_time": 3.556, "note_off_time": 3.881}, {"pitch": 62, "velocity": 70, "note_on_time": 3.825, "note_off_time": 4.047}, {"pitch": 67, "velocity": 76, "note_on_time": 4.065, "note_off_time": 4.377}, {"pitch": 65, "velocity": 71, "note_on_time": 4.314, "note_off_time": 4.629}, {"pitch": 62, "velocity": 42, "note_on_time": 4.627, "note_off_time": 4.648}, {"pitch": 64, "velocity": 91, "note_on_time": 4.641, "note_off_time": 4.917}, {"pitch": 62, "velocity": 77, "note_on_time": 4.87, "note_off_time": 5.071}, {"pitch": 67, "velocity": 71, "note_on_time": 5.14, "note_off_time": 5.279}, {"pitch": 67, "velocity": 61, "note_on_time": 5.407, "note_off_time": 5.772}, {"pitch": 65, "velocity": 75, "note_on_time": 5.654, "note_off_time": 5.859}, {"pitch": 60, "velocity": 73, "note_on_time": 5.896, "note_off_time": 6.147}, {"pitch": 64, "velocity": 83, "note_on_time": 6.115, "note_off_time": 6.475}, {"pitch": 65, "velocity": 73, "note_on_time": 6.462, "note_off_time": 6.831}, {"pitch": 64, "velocity": 91, "note_on_time": 6.826, "note_off_time": 7.143}, {"pitch": 64, "velocity": 84, "note_on_time": 7.297, "note_off_time": 7.719}]</notes><guidance name="Guidance Mode">None</guidance><error name="Error value">0.4394447142857142</error></trial><trial trial_no="2" timestamp="2022_11_03-10_44_27"><notes name="Played Notes">[{"pitch": 62, "velocity": 80, "note_on_time": 0.05, "note_off_time": 0.692}, {"pitch": 67, "velocity": 82, "note_on_time": 0.743, "note_off_time": 0.844}, {"pitch": 67, "velocity": 77, "note_on_time": 0.975, "note_off_time": 1.219}, {"pitch": 62, "velocity": 71, "note_on_time": 1.204, "note_off_time": 1.421}, {"pitch": 65, "velocity": 82, "note_on_time": 1.445, "note_off_time": 1.666}, {"pitch": 60, "velocity": 65, "note_on_time": 1.69, "note_off_time": 1.914}, {"pitch": 65, "velocity": 77, "note_on_time": 1.928, "note_off_time": 2.144}, {"pitch": 60, "velocity": 65, "note_on_time": 2.146, "note_off_time": 2.378}, {"pitch": 65, "velocity": 71, "note_on_time": 2.372, "note_off_time": 2.637}, {"pitch": 64, "velocity": 64, "note_on_time": 2.608, "note_off_time": 2.887}, {"pitch": 62, "velocity": 68, "note_on_time": 2.864, "note_off_time": 3.06}, {"pitch": 65, "velocity": 72, "note_on_time": 3.117, "note_off_time": 3.425}, {"pitch": 64, "velocity": 66, "note_on_time": 3.383, "note_off_time": 3.636}, {"pitch": 62, "velocity": 67, "note_on_time": 3.615, "note_off_time": 3.83}, {"pitch": 64, "velocity": 83, "note_on_time": 3.874, "note_off_time": 4.052}, {"pitch": 65, "velocity": 70, "note_on_time": 4.071, "note_off_time": 4.286}, {"pitch": 67, "velocity": 72, "note_on_time": 4.309, "note_off_time": 4.546}, {"pitch": 60, "velocity": 75, "note_on_time": 4.566, "note_off_time": 4.802}, {"pitch": 65, "velocity": 78, "note_on_time": 4.802, "note_off_time": 5.522}, {"pitch": 64, "velocity": 74, "note_on_time": 5.514, "note_off_time": 5.592}, {"pitch": 64, "velocity": 83, "note_on_time": 5.744, "note_off_time": 6.271}, {"pitch": 64, "velocity": 73, "note_on_time": 6.423, "note_off_time": 6.514}, {"pitch": 64, "velocity": 73, "note_on_time": 6.66, "note_off_time": 6.776}, {"pitch": 64, "velocity": 68, "note_on_time": 6.885, "note_off_time": 7.398}]</notes><guidance name="Guidance Mode">None</guidance><error name="Error value">0.10172604761904745</error></trial><trial trial_no="3" timestamp="2022_11_03-10_44_46"><notes name="Played Notes">[{"pitch": 62, "velocity": 69, "note_on_time": 5.113, "note_off_time": 5.744}, {"pitch": 67, "velocity": 59, "note_on_time": 5.81, "note_off_time": 5.888}, {"pitch": 67, "velocity": 69, "note_on_time": 6.013, "note_off_time": 6.261}, {"pitch": 62, "velocity": 65, "note_on_time": 6.251, "note_off_time": 6.47}, {"pitch": 65, "velocity": 73, "note_on_time": 6.481, "note_off_time": 6.715}, {"pitch": 64, "velocity": 73, "note_on_time": 6.68, "note_off_time": 6.967}, {"pitch": 60, "velocity": 64, "note_on_time": 6.955, "note_off_time": 7.189}, {"pitch": 65, "velocity": 67, "note_on_time": 7.199, "note_off_time": 7.38}, {"pitch": 60, "velocity": 62, "note_on_time": 7.417, "note_off_time": 7.635}]</notes><guidance name="Guidance Mode">None</guidance><error name="Error value">1.1737794285714287</error></trial><trial trial_no="4" timestamp="2022_11_03-10_45_47"><notes name="Played Notes">[{"pitch": 62, "velocity": 88, "note_on_time": 0.921, "note_off_time": 1.602}, {"pitch": 67, "velocity": 71, "note_on_time": 1.656, "note_off_time": 1.756}, {"pitch": 67, "velocity": 73, "note_on_time": 1.901, "note_off_time": 2.148}, {"pitch": 62, "velocity": 63, "note_on_time": 2.127, "note_off_time": 2.363}, {"pitch": 65, "velocity": 73, "note_on_time": 2.383, "note_off_time": 2.612}, {"pitch": 60, "velocity": 66, "note_on_time": 2.638, "note_off_time": 2.853}, {"pitch": 65, "velocity": 78, "note_on_time": 2.866, "note_off_time": 3.094}, {"pitch": 60, "velocity": 63, "note_on_time": 3.107, "note_off_time": 3.319}, {"pitch": 65, "velocity": 76, "note_on_time": 3.324, "note_off_time": 3.601}, {"pitch": 64, "velocity": 58, "note_on_time": 3.567, "note_off_time": 3.868}, {"pitch": 62, "velocity": 67, "note_on_time": 3.834, "note_off_time": 4.017}, {"pitch": 65, "velocity": 83, "note_on_time": 4.047, "note_off_time": 4.348}, {"pitch": 64, "velocity": 69, "note_on_time": 4.294, "note_off_time": 4.582}, {"pitch": 62, "velocity": 65, "note_on_time": 4.542, "note_off_time": 4.746}, {"pitch": 65, "velocity": 79, "note_on_time": 4.775, "note_off_time": 5.053}, {"pitch": 64, "velocity": 69, "note_on_time": 5.009, "note_off_time": 5.328}, {"pitch": 65, "velocity": 68, "note_on_time": 5.244, "note_off_time": 5.531}, {"pitch": 67, "velocity": 81, "note_on_time": 5.536, "note_off_time": 5.789}, {"pitch": 60, "velocity": 74, "note_on_time": 5.816, "note_off_time": 6.057}, {"pitch": 65, "velocity": 75, "note_on_time": 6.066, "note_off_time": 6.676}, {"pitch": 64, "velocity": 64, "note_on_time": 6.744, "note_off_time": 6.864}, {"pitch": 64, "velocity": 78, "note_on_time": 6.994, "note_off_time": 7.575}]</notes><guidance name="Guidance Mode">None</guidance><error name="Error value">0.3433018571428571</error></trial><trial trial_no="5" timestamp="2022_11_03-10_46_14"><notes name="Played Notes">[{"pitch": 62, "velocity": 79, "note_on_time": 1.375, "note_off_time": 2.19}, {"pitch": 67, "velocity": 67, "note_on_time": 2.616, "note_off_time": 2.698}, {"pitch": 67, "velocity": 60, "note_on_time": 2.806, "note_off_time": 3.025}, {"pitch": 62, "velocity": 57, "note_on_time": 3.025, "note_off_time": 3.206}, {"pitch": 65, "velocity": 72, "note_on_time": 3.235, "note_off_time": 3.431}, {"pitch": 64, "velocity": 69, "note_on_time": 3.411, "note_off_time": 3.655}, {"pitch": 60, "velocity": 31, "note_on_time": 3.684, "note_off_time": 3.793}, {"pitch": 65, "velocity": 68, "note_on_time": 3.838, "note_off_time": 4.014}, {"pitch": 60, "velocity": 63, "note_on_time": 4.031, "note_off_time": 4.231}, {"pitch": 65, "velocity": 71, "note_on_time": 4.229, "note_off_time": 4.437}, {"pitch": 60, "velocity": 65, "note_on_time": 4.441, "note_off_time": 4.602}, {"pitch": 65, "velocity": 65, "note_on_time": 4.633, "note_off_time": 4.879}, {"pitch": 64, "velocity": 60, "note_on_time": 4.776, "note_off_time": 5.113}, {"pitch": 62, "velocity": 65, "note_on_time": 5.061, "note_off_time": 5.278}, {"pitch": 65, "velocity": 78, "note_on_time": 5.295, "note_off_time": 5.546}, {"pitch": 64, "velocity": 64, "note_on_time": 5.482, "note_off_time": 5.738}, {"pitch": 62, "velocity": 61, "note_on_time": 5.698, "note_off_time": 5.834}, {"pitch": 65, "velocity": 83, "note_on_time": 5.874, "note_off_time": 6.177}, {"pitch": 67, "velocity": 73, "note_on_time": 6.136, "note_off_time": 6.685}, {"pitch": 60, "velocity": 58, "note_on_time": 6.7, "note_off_time": 6.905}, {"pitch": 65, "velocity": 87, "note_on_time": 6.925, "note_off_time": 7.445}, {"pitch": 64, "velocity": 60, "note_on_time": 7.48, "note_off_time": 7.563}]</notes><guidance name="Guidance Mode">None</guidance><error name="Error value">0.689904761904762</error></trial></trials></MIDI>