<MIDI midiNo="2022_10_26-14_37_41"><target_notes><notes name="Note List">[{"pitch": 42, "velocity": 80, "note_on_time": 0.003, "note_off_time": 0.229}, {"pitch": 42, "velocity": 80, "note_on_time": 0.229, "note_off_time": 0.447}, {"pitch": 42, "velocity": 80, "note_on_time": 0.447, "note_off_time": 0.665}, {"pitch": 42, "velocity": 80, "note_on_time": 0.665, "note_off_time": 0.883}, {"pitch": 42, "velocity": 80, "note_on_time": 0.883, "note_off_time": 1.101}, {"pitch": 42, "velocity": 80, "note_on_time": 1.101, "note_off_time": 1.319}, {"pitch": 42, "velocity": 80, "note_on_time": 1.319, "note_off_time": 1.536}, {"pitch": 42, "velocity": 80, "note_on_time": 1.536, "note_off_time": 1.756}, {"pitch": 42, "velocity": 80, "note_on_time": 1.757, "note_off_time": 1.973}, {"pitch": 42, "velocity": 80, "note_on_time": 1.973, "note_off_time": 2.191}, {"pitch": 42, "velocity": 80, "note_on_time": 2.191, "note_off_time": 2.407}, {"pitch": 42, "velocity": 80, "note_on_time": 2.407, "note_off_time": 2.627}, {"pitch": 42, "velocity": 80, "note_on_time": 2.627, "note_off_time": 2.845}, {"pitch": 42, "velocity": 80, "note_on_time": 2.845, "note_off_time": 3.066}, {"pitch": 42, "velocity": 80, "note_on_time": 3.066, "note_off_time": 3.285}, {"pitch": 42, "velocity": 80, "note_on_time": 3.285, "note_off_time": 3.503}, {"pitch": 42, "velocity": 80, "note_on_time": 3.503, "note_off_time": 3.722}, {"pitch": 42, "velocity": 80, "note_on_time": 3.722, "note_off_time": 3.939}, {"pitch": 42, "velocity": 80, "note_on_time": 3.939, "note_off_time": 4.156}, {"pitch": 42, "velocity": 80, "note_on_time": 4.156, "note_off_time": 4.373}, {"pitch": 42, "velocity": 80, "note_on_time": 4.373, "note_off_time": 4.591}, {"pitch": 42, "velocity": 80, "note_on_time": 4.591, "note_off_time": 4.812}, {"pitch": 42, "velocity": 80, "note_on_time": 4.812, "note_off_time": 5.029}, {"pitch": 42, "velocity": 80, "note_on_time": 5.029, "note_off_time": 5.248}, {"pitch": 42, "velocity": 80, "note_on_time": 5.248, "note_off_time": 5.464}, {"pitch": 42, "velocity": 80, "note_on_time": 5.464, "note_off_time": 5.683}, {"pitch": 42, "velocity": 80, "note_on_time": 5.683, "note_off_time": 5.901}, {"pitch": 42, "velocity": 80, "note_on_time": 5.901, "note_off_time": 6.12}, {"pitch": 42, "velocity": 80, "note_on_time": 6.12, "note_off_time": 6.337}, {"pitch": 42, "velocity": 80, "note_on_time": 6.337, "note_off_time": 6.556}, {"pitch": 42, "velocity": 80, "note_on_time": 6.556, "note_off_time": 6.772}, {"pitch": 42, "velocity": 80, "note_on_time": 6.772, "note_off_time": 6.991}, {"pitch": 42, "velocity": 80, "note_on_time": 6.991, "note_off_time": 7.208}, {"pitch": 42, "velocity": 80, "note_on_time": 7.208, "note_off_time": 7.427}, {"pitch": 42, "velocity": 80, "note_on_time": 7.427, "note_off_time": 7.646}, {"pitch": 42, "velocity": 80, "note_on_time": 7.646, "note_off_time": 7.863}, {"pitch": 42, "velocity": 80, "note_on_time": 7.864, "note_off_time": 8.082}, {"pitch": 42, "velocity": 80, "note_on_time": 8.082, "note_off_time": 8.3}, {"pitch": 42, "velocity": 80, "note_on_time": 8.3, "note_off_time": 8.52}, {"pitch": 42, "velocity": 80, "note_on_time": 8.52, "note_off_time": 8.738}]</notes><options name="Option List">((4, 4), [0.5, 0.25], 3, 8, &lt;NoteRangePerHand.C_TO_G: 6&gt;, &lt;NoteRangePerHand.ONE_NOTE: 2&gt;, False, True, True, 281)</options></target_notes><trials><trial trial_no="1" timestamp="2022_10_26-14_37_31"><notes name="Played Notes">[{"pitch": 60, "velocity": 91, "note_on_time": 0.941, "note_off_time": 1.149}, {"pitch": 64, "velocity": 77, "note_on_time": 1.838, "note_off_time": 1.915}, {"pitch": 64, "velocity": 78, "note_on_time": 2.056, "note_off_time": 2.251}, {"pitch": 60, "velocity": 69, "note_on_time": 2.286, "note_off_time": 2.551}, {"pitch": 64, "velocity": 69, "note_on_time": 2.524, "note_off_time": 2.758}, {"pitch": 67, "velocity": 74, "note_on_time": 2.769, "note_off_time": 3.0}, {"pitch": 62, "velocity": 57, "note_on_time": 3.004, "note_off_time": 3.237}, {"pitch": 60, "velocity": 70, "note_on_time": 3.255, "note_off_time": 3.472}, {"pitch": 67, "velocity": 71, "note_on_time": 3.491, "note_off_time": 3.692}, {"pitch": 60, "velocity": 78, "note_on_time": 3.722, "note_off_time": 4.054}, {"pitch": 64, "velocity": 72, "note_on_time": 4.187, "note_off_time": 4.434}, {"pitch": 64, "velocity": 76, "note_on_time": 4.637, "note_off_time": 4.95}, {"pitch": 60, "velocity": 81, "note_on_time": 5.471, "note_off_time": 5.812}, {"pitch": 64, "velocity": 72, "note_on_time": 6.343, "note_off_time": 6.437}, {"pitch": 64, "velocity": 81, "note_on_time": 6.572, "note_off_time": 6.749}, {"pitch": 65, "velocity": 78, "note_on_time": 6.783, "note_off_time": 7.093}, {"pitch": 65, "velocity": 89, "note_on_time": 7.418, "note_off_time": 7.526}, {"pitch": 65, "velocity": 82, "note_on_time": 7.653, "note_off_time": 7.747}, {"pitch": 65, "velocity": 93, "note_on_time": 7.881, "note_off_time": 8.045}]</notes><guidance name="Guidance Mode">None</guidance><error name="Error value">1.4021355000000002</error></trial><trial trial_no="2" timestamp="2022_10_26-14_37_56"><notes name="Played Notes">[{"pitch": 60, "velocity": 97, "note_on_time": 0.926, "note_off_time": 1.131}, {"pitch": 64, "velocity": 77, "note_on_time": 1.8, "note_off_time": 1.888}, {"pitch": 64, "velocity": 74, "note_on_time": 2.007, "note_off_time": 2.2}, {"pitch": 60, "velocity": 76, "note_on_time": 2.238, "note_off_time": 2.483}, {"pitch": 64, "velocity": 71, "note_on_time": 2.466, "note_off_time": 2.709}, {"pitch": 67, "velocity": 71, "note_on_time": 2.714, "note_off_time": 2.909}, {"pitch": 62, "velocity": 61, "note_on_time": 2.942, "note_off_time": 3.177}, {"pitch": 60, "velocity": 68, "note_on_time": 3.187, "note_off_time": 3.419}, {"pitch": 67, "velocity": 60, "note_on_time": 3.445, "note_off_time": 3.694}, {"pitch": 60, "velocity": 72, "note_on_time": 3.714, "note_off_time": 4.039}, {"pitch": 64, "velocity": 74, "note_on_time": 4.204, "note_off_time": 4.492}, {"pitch": 64, "velocity": 85, "note_on_time": 4.694, "note_off_time": 4.987}, {"pitch": 60, "velocity": 86, "note_on_time": 5.696, "note_off_time": 5.964}, {"pitch": 64, "velocity": 74, "note_on_time": 6.373, "note_off_time": 6.478}, {"pitch": 64, "velocity": 86, "note_on_time": 6.63, "note_off_time": 6.872}, {"pitch": 65, "velocity": 74, "note_on_time": 6.871, "note_off_time": 7.201}, {"pitch": 65, "velocity": 82, "note_on_time": 7.659, "note_off_time": 7.76}, {"pitch": 65, "velocity": 75, "note_on_time": 7.887, "note_off_time": 7.98}, {"pitch": 65, "velocity": 91, "note_on_time": 8.117, "note_off_time": 8.269}]</notes><guidance name="Guidance Mode">None</guidance><error name="Error value">0.9869047307692308</error></trial><trial trial_no="3" timestamp="2022_10_26-14_38_18"><notes name="Played Notes">[{"pitch": 60, "velocity": 88, "note_on_time": 0.948, "note_off_time": 1.217}, {"pitch": 64, "velocity": 72, "note_on_time": 1.835, "note_off_time": 1.935}, {"pitch": 64, "velocity": 67, "note_on_time": 2.057, "note_off_time": 2.169}, {"pitch": 60, "velocity": 76, "note_on_time": 2.297, "note_off_time": 2.421}, {"pitch": 64, "velocity": 72, "note_on_time": 2.531, "note_off_time": 2.682}, {"pitch": 67, "velocity": 73, "note_on_time": 2.777, "note_off_time": 2.954}, {"pitch": 62, "velocity": 57, "note_on_time": 3.047, "note_off_time": 3.24}, {"pitch": 60, "velocity": 73, "note_on_time": 3.314, "note_off_time": 3.437}, {"pitch": 64, "velocity": 84, "note_on_time": 3.6, "note_off_time": 3.662}, {"pitch": 67, "velocity": 74, "note_on_time": 3.855, "note_off_time": 3.978}, {"pitch": 60, "velocity": 73, "note_on_time": 4.147, "note_off_time": 4.395}, {"pitch": 64, "velocity": 73, "note_on_time": 4.564, "note_off_time": 4.812}, {"pitch": 64, "velocity": 82, "note_on_time": 5.075, "note_off_time": 5.352}, {"pitch": 60, "velocity": 69, "note_on_time": 5.889, "note_off_time": 6.382}, {"pitch": 64, "velocity": 78, "note_on_time": 6.824, "note_off_time": 6.932}, {"pitch": 64, "velocity": 67, "note_on_time": 7.034, "note_off_time": 7.164}, {"pitch": 65, "velocity": 77, "note_on_time": 7.262, "note_off_time": 7.576}, {"pitch": 65, "velocity": 86, "note_on_time": 7.841, "note_off_time": 7.952}, {"pitch": 65, "velocity": 81, "note_on_time": 8.089, "note_off_time": 8.18}, {"pitch": 65, "velocity": 87, "note_on_time": 8.322, "note_off_time": 8.49}]</notes><guidance name="Guidance Mode">None</guidance><error name="Error value">1.2781757307692312</error></trial></trials></MIDI>