<MIDI midiNo="2022_11_03-13_24_17"><target_notes><notes name="Note List">[{"pitch": 42, "velocity": 80, "note_on_time": 0.005, "note_off_time": 0.261}, {"pitch": 42, "velocity": 80, "note_on_time": 0.261, "note_off_time": 0.51}, {"pitch": 42, "velocity": 80, "note_on_time": 0.51, "note_off_time": 0.759}, {"pitch": 42, "velocity": 80, "note_on_time": 0.759, "note_off_time": 1.007}, {"pitch": 64, "velocity": 80, "note_on_time": 1.007, "note_off_time": 1.258}, {"pitch": 42, "velocity": 80, "note_on_time": 1.007, "note_off_time": 1.258}, {"pitch": 60, "velocity": 80, "note_on_time": 1.258, "note_off_time": 1.508}, {"pitch": 42, "velocity": 80, "note_on_time": 1.258, "note_off_time": 1.508}, {"pitch": 60, "velocity": 80, "note_on_time": 1.508, "note_off_time": 1.758}, {"pitch": 42, "velocity": 80, "note_on_time": 1.508, "note_off_time": 1.758}, {"pitch": 60, "velocity": 80, "note_on_time": 1.758, "note_off_time": 2.009}, {"pitch": 42, "velocity": 80, "note_on_time": 1.758, "note_off_time": 2.009}, {"pitch": 64, "velocity": 80, "note_on_time": 2.009, "note_off_time": 2.256}, {"pitch": 42, "velocity": 80, "note_on_time": 2.009, "note_off_time": 2.256}, {"pitch": 62, "velocity": 80, "note_on_time": 2.256, "note_off_time": 2.508}, {"pitch": 42, "velocity": 80, "note_on_time": 2.256, "note_off_time": 2.508}, {"pitch": 62, "velocity": 80, "note_on_time": 2.508, "note_off_time": 2.759}, {"pitch": 42, "velocity": 80, "note_on_time": 2.508, "note_off_time": 2.759}, {"pitch": 62, "velocity": 80, "note_on_time": 2.759, "note_off_time": 3.011}, {"pitch": 42, "velocity": 80, "note_on_time": 2.759, "note_off_time": 3.011}, {"pitch": 60, "velocity": 80, "note_on_time": 3.011, "note_off_time": 3.261}, {"pitch": 42, "velocity": 80, "note_on_time": 3.011, "note_off_time": 3.261}, {"pitch": 60, "velocity": 80, "note_on_time": 3.261, "note_off_time": 3.51}, {"pitch": 42, "velocity": 80, "note_on_time": 3.261, "note_off_time": 3.51}, {"pitch": 64, "velocity": 80, "note_on_time": 3.51, "note_off_time": 3.759}, {"pitch": 42, "velocity": 80, "note_on_time": 3.51, "note_off_time": 3.759}, {"pitch": 62, "velocity": 80, "note_on_time": 3.759, "note_off_time": 4.007}, {"pitch": 42, "velocity": 80, "note_on_time": 3.759, "note_off_time": 4.007}, {"pitch": 42, "velocity": 80, "note_on_time": 4.007, "note_off_time": 4.255}, {"pitch": 60, "velocity": 80, "note_on_time": 4.007, "note_off_time": 4.506}, {"pitch": 42, "velocity": 80, "note_on_time": 4.255, "note_off_time": 4.506}, {"pitch": 64, "velocity": 80, "note_on_time": 4.506, "note_off_time": 4.754}, {"pitch": 42, "velocity": 80, "note_on_time": 4.506, "note_off_time": 4.754}, {"pitch": 62, "velocity": 80, "note_on_time": 4.754, "note_off_time": 5.003}, {"pitch": 42, "velocity": 80, "note_on_time": 4.754, "note_off_time": 5.003}, {"pitch": 60, "velocity": 80, "note_on_time": 5.003, "note_off_time": 5.25}, {"pitch": 42, "velocity": 80, "note_on_time": 5.003, "note_off_time": 5.25}, {"pitch": 64, "velocity": 80, "note_on_time": 5.25, "note_off_time": 5.498}, {"pitch": 42, "velocity": 80, "note_on_time": 5.25, "note_off_time": 5.498}, {"pitch": 62, "velocity": 80, "note_on_time": 5.498, "note_off_time": 5.748}, {"pitch": 42, "velocity": 80, "note_on_time": 5.498, "note_off_time": 5.748}, {"pitch": 62, "velocity": 80, "note_on_time": 5.748, "note_off_time": 5.998}, {"pitch": 42, "velocity": 80, "note_on_time": 5.748, "note_off_time": 5.998}, {"pitch": 60, "velocity": 80, "note_on_time": 5.998, "note_off_time": 6.246}, {"pitch": 42, "velocity": 80, "note_on_time": 5.998, "note_off_time": 6.246}, {"pitch": 60, "velocity": 80, "note_on_time": 6.246, "note_off_time": 6.495}, {"pitch": 42, "velocity": 80, "note_on_time": 6.246, "note_off_time": 6.495}, {"pitch": 64, "velocity": 80, "note_on_time": 6.495, "note_off_time": 6.745}, {"pitch": 42, "velocity": 80, "note_on_time": 6.495, "note_off_time": 6.745}, {"pitch": 64, "velocity": 80, "note_on_time": 6.745, "note_off_time": 6.994}, {"pitch": 42, "velocity": 80, "note_on_time": 6.745, "note_off_time": 6.994}, {"pitch": 62, "velocity": 80, "note_on_time": 6.994, "note_off_time": 7.243}, {"pitch": 42, "velocity": 80, "note_on_time": 6.994, "note_off_time": 7.243}, {"pitch": 62, "velocity": 80, "note_on_time": 7.243, "note_off_time": 7.492}, {"pitch": 42, "velocity": 80, "note_on_time": 7.243, "note_off_time": 7.492}, {"pitch": 64, "velocity": 80, "note_on_time": 7.492, "note_off_time": 7.741}, {"pitch": 42, "velocity": 80, "note_on_time": 7.492, "note_off_time": 7.741}, {"pitch": 62, "velocity": 80, "note_on_time": 7.741, "note_off_time": 7.989}, {"pitch": 42, "velocity": 80, "note_on_time": 7.741, "note_off_time": 7.989}, {"pitch": 42, "velocity": 80, "note_on_time": 7.989, "note_off_time": 8.237}, {"pitch": 62, "velocity": 80, "note_on_time": 8.237, "note_off_time": 8.485}, {"pitch": 42, "velocity": 80, "note_on_time": 8.237, "note_off_time": 8.485}, {"pitch": 62, "velocity": 80, "note_on_time": 8.485, "note_off_time": 8.733}, {"pitch": 42, "velocity": 80, "note_on_time": 8.485, "note_off_time": 8.733}, {"pitch": 62, "velocity": 80, "note_on_time": 8.733, "note_off_time": 8.982}, {"pitch": 42, "velocity": 80, "note_on_time": 8.733, "note_off_time": 8.982}]</notes><options name="Option List">((4, 4), [0.5, 0.25], 3, 8, &lt;NoteRangePerHand.THREE_NOTES: 4&gt;, &lt;NoteRangePerHand.ONE_NOTE: 2&gt;, False, True, False, '248')</options></target_notes><trials><trial trial_no="1" timestamp="2022_11_03-13_24_07"><notes name="Played Notes">[{"pitch": 64, "velocity": 65, "note_on_time": 1.356, "note_off_time": 1.529}, {"pitch": 60, "velocity": 73, "note_on_time": 1.621, "note_off_time": 1.764}, {"pitch": 60, "velocity": 65, "note_on_time": 1.884, "note_off_time": 2.036}, {"pitch": 60, "velocity": 55, "note_on_time": 2.197, "note_off_time": 2.369}, {"pitch": 64, "velocity": 66, "note_on_time": 2.428, "note_off_time": 2.583}, {"pitch": 62, "velocity": 59, "note_on_time": 2.682, "note_off_time": 2.806}, {"pitch": 62, "velocity": 43, "note_on_time": 2.967, "note_off_time": 3.083}, {"pitch": 62, "velocity": 57, "note_on_time": 3.201, "note_off_time": 3.348}, {"pitch": 60, "velocity": 61, "note_on_time": 3.477, "note_off_time": 3.635}, {"pitch": 60, "velocity": 48, "note_on_time": 3.707, "note_off_time": 3.897}, {"pitch": 64, "velocity": 60, "note_on_time": 3.992, "note_off_time": 4.182}, {"pitch": 62, "velocity": 37, "note_on_time": 4.264, "note_off_time": 4.417}, {"pitch": 60, "velocity": 68, "note_on_time": 4.545, "note_off_time": 4.953}, {"pitch": 64, "velocity": 63, "note_on_time": 5.06, "note_off_time": 5.23}, {"pitch": 62, "velocity": 49, "note_on_time": 5.31, "note_off_time": 5.438}, {"pitch": 60, "velocity": 65, "note_on_time": 5.568, "note_off_time": 5.752}, {"pitch": 64, "velocity": 53, "note_on_time": 5.821, "note_off_time": 5.998}, {"pitch": 62, "velocity": 44, "note_on_time": 6.103, "note_off_time": 6.226}, {"pitch": 62, "velocity": 53, "note_on_time": 6.354, "note_off_time": 6.5}, {"pitch": 60, "velocity": 68, "note_on_time": 6.619, "note_off_time": 6.747}, {"pitch": 60, "velocity": 56, "note_on_time": 6.846, "note_off_time": 7.022}, {"pitch": 64, "velocity": 55, "note_on_time": 7.116, "note_off_time": 7.254}, {"pitch": 64, "velocity": 65, "note_on_time": 7.351, "note_off_time": 7.498}, {"pitch": 62, "velocity": 54, "note_on_time": 7.62, "note_off_time": 7.739}, {"pitch": 62, "velocity": 42, "note_on_time": 7.836, "note_off_time": 7.996}, {"pitch": 64, "velocity": 65, "note_on_time": 8.123, "note_off_time": 8.293}, {"pitch": 62, "velocity": 55, "note_on_time": 8.354, "note_off_time": 8.588}]</notes><guidance name="Guidance Mode">None</guidance><error name="Error value">0.30876481481481477</error></trial><trial trial_no="2" timestamp="2022_11_03-13_24_33"><notes name="Played Notes">[{"pitch": 64, "velocity": 62, "note_on_time": 0.608, "note_off_time": 0.775}, {"pitch": 60, "velocity": 63, "note_on_time": 0.867, "note_off_time": 1.009}, {"pitch": 60, "velocity": 54, "note_on_time": 1.159, "note_off_time": 1.309}, {"pitch": 60, "velocity": 46, "note_on_time": 1.426, "note_off_time": 1.61}, {"pitch": 64, "velocity": 56, "note_on_time": 1.69, "note_off_time": 1.849}, {"pitch": 62, "velocity": 61, "note_on_time": 1.946, "note_off_time": 2.085}, {"pitch": 62, "velocity": 46, "note_on_time": 2.218, "note_off_time": 2.364}, {"pitch": 62, "velocity": 64, "note_on_time": 2.471, "note_off_time": 2.633}, {"pitch": 60, "velocity": 71, "note_on_time": 2.763, "note_off_time": 2.91}, {"pitch": 60, "velocity": 52, "note_on_time": 2.986, "note_off_time": 3.184}, {"pitch": 64, "velocity": 67, "note_on_time": 3.28, "note_off_time": 3.441}, {"pitch": 62, "velocity": 62, "note_on_time": 3.522, "note_off_time": 3.639}, {"pitch": 60, "velocity": 77, "note_on_time": 3.787, "note_off_time": 4.143}, {"pitch": 64, "velocity": 65, "note_on_time": 4.286, "note_off_time": 4.486}, {"pitch": 62, "velocity": 67, "note_on_time": 4.54, "note_off_time": 4.665}, {"pitch": 60, "velocity": 73, "note_on_time": 4.807, "note_off_time": 4.98}, {"pitch": 64, "velocity": 66, "note_on_time": 5.046, "note_off_time": 5.229}, {"pitch": 62, "velocity": 56, "note_on_time": 5.284, "note_off_time": 5.42}, {"pitch": 62, "velocity": 51, "note_on_time": 5.548, "note_off_time": 5.687}, {"pitch": 60, "velocity": 72, "note_on_time": 5.814, "note_off_time": 5.937}, {"pitch": 60, "velocity": 64, "note_on_time": 6.045, "note_off_time": 6.233}, {"pitch": 62, "velocity": 77, "note_on_time": 6.347, "note_off_time": 6.472}, {"pitch": 64, "velocity": 66, "note_on_time": 6.579, "note_off_time": 6.758}, {"pitch": 62, "velocity": 59, "note_on_time": 6.863, "note_off_time": 6.941}, {"pitch": 64, "velocity": 42, "note_on_time": 7.045, "note_off_time": 7.146}, {"pitch": 62, "velocity": 70, "note_on_time": 7.156, "note_off_time": 7.36}, {"pitch": 62, "velocity": 1, "note_on_time": 7.467, "note_off_time": 7.53}, {"pitch": 64, "velocity": 52, "note_on_time": 7.706, "note_off_time": 7.899}, {"pitch": 62, "velocity": 55, "note_on_time": 7.922, "note_off_time": 8.163}, {"pitch": 62, "velocity": 49, "note_on_time": 8.433, "note_off_time": 8.58}, {"pitch": 62, "velocity": 75, "note_on_time": 8.673, "note_off_time": 8.827}]</notes><guidance name="Guidance Mode">None</guidance><error name="Error value">0.3819524074074072</error></trial><trial trial_no="3" timestamp="2022_11_03-13_24_53"><notes name="Played Notes">[{"pitch": 64, "velocity": 62, "note_on_time": 1.661, "note_off_time": 1.83}, {"pitch": 60, "velocity": 72, "note_on_time": 1.936, "note_off_time": 2.082}, {"pitch": 60, "velocity": 51, "note_on_time": 2.198, "note_off_time": 2.341}, {"pitch": 60, "velocity": 48, "note_on_time": 2.429, "note_off_time": 2.602}, {"pitch": 64, "velocity": 66, "note_on_time": 2.698, "note_off_time": 2.869}, {"pitch": 62, "velocity": 58, "note_on_time": 2.961, "note_off_time": 3.093}, {"pitch": 62, "velocity": 57, "note_on_time": 3.222, "note_off_time": 3.36}, {"pitch": 62, "velocity": 54, "note_on_time": 3.473, "note_off_time": 3.613}, {"pitch": 60, "velocity": 71, "note_on_time": 3.757, "note_off_time": 3.908}, {"pitch": 60, "velocity": 64, "note_on_time": 4.009, "note_off_time": 4.19}, {"pitch": 64, "velocity": 65, "note_on_time": 4.28, "note_off_time": 4.483}, {"pitch": 62, "velocity": 70, "note_on_time": 4.514, "note_off_time": 4.649}, {"pitch": 60, "velocity": 64, "note_on_time": 4.797, "note_off_time": 5.19}, {"pitch": 64, "velocity": 72, "note_on_time": 5.307, "note_off_time": 5.479}, {"pitch": 62, "velocity": 66, "note_on_time": 5.562, "note_off_time": 5.703}, {"pitch": 60, "velocity": 77, "note_on_time": 5.84, "note_off_time": 5.984}, {"pitch": 64, "velocity": 63, "note_on_time": 6.094, "note_off_time": 6.254}, {"pitch": 62, "velocity": 51, "note_on_time": 6.344, "note_off_time": 6.451}, {"pitch": 62, "velocity": 57, "note_on_time": 6.607, "note_off_time": 6.76}, {"pitch": 60, "velocity": 68, "note_on_time": 6.885, "note_off_time": 6.998}, {"pitch": 60, "velocity": 56, "note_on_time": 7.109, "note_off_time": 7.281}, {"pitch": 64, "velocity": 60, "note_on_time": 7.387, "note_off_time": 7.513}, {"pitch": 64, "velocity": 56, "note_on_time": 7.618, "note_off_time": 7.797}, {"pitch": 62, "velocity": 66, "note_on_time": 7.896, "note_off_time": 8.0}, {"pitch": 62, "velocity": 42, "note_on_time": 8.134, "note_off_time": 8.312}, {"pitch": 64, "velocity": 67, "note_on_time": 8.42, "note_off_time": 8.605}, {"pitch": 62, "velocity": 65, "note_on_time": 8.659, "note_off_time": 8.841}]</notes><guidance name="Guidance Mode">None</guidance><error name="Error value">0.3425425925925925</error></trial><trial trial_no="4" timestamp="2022_11_03-13_25_14"><notes name="Played Notes">[{"pitch": 64, "velocity": 67, "note_on_time": 1.042, "note_off_time": 1.183}, {"pitch": 60, "velocity": 71, "note_on_time": 1.305, "note_off_time": 1.438}, {"pitch": 60, "velocity": 62, "note_on_time": 1.569, "note_off_time": 1.698}, {"pitch": 60, "velocity": 67, "note_on_time": 1.805, "note_off_time": 1.96}, {"pitch": 64, "velocity": 56, "note_on_time": 2.056, "note_off_time": 2.219}, {"pitch": 62, "velocity": 65, "note_on_time": 2.326, "note_off_time": 2.443}, {"pitch": 62, "velocity": 52, "note_on_time": 2.59, "note_off_time": 2.71}, {"pitch": 62, "velocity": 45, "note_on_time": 2.837, "note_off_time": 2.997}, {"pitch": 60, "velocity": 67, "note_on_time": 3.105, "note_off_time": 3.236}, {"pitch": 60, "velocity": 65, "note_on_time": 3.344, "note_off_time": 3.512}, {"pitch": 64, "velocity": 61, "note_on_time": 3.602, "note_off_time": 3.758}, {"pitch": 62, "velocity": 69, "note_on_time": 3.839, "note_off_time": 3.975}, {"pitch": 60, "velocity": 81, "note_on_time": 4.101, "note_off_time": 4.434}, {"pitch": 64, "velocity": 64, "note_on_time": 4.609, "note_off_time": 4.83}, {"pitch": 62, "velocity": 69, "note_on_time": 4.853, "note_off_time": 4.995}, {"pitch": 60, "velocity": 68, "note_on_time": 5.1, "note_off_time": 5.267}, {"pitch": 64, "velocity": 55, "note_on_time": 5.352, "note_off_time": 5.537}, {"pitch": 62, "velocity": 59, "note_on_time": 5.584, "note_off_time": 5.714}, {"pitch": 62, "velocity": 64, "note_on_time": 5.825, "note_off_time": 5.963}, {"pitch": 60, "velocity": 68, "note_on_time": 6.094, "note_off_time": 6.218}, {"pitch": 60, "velocity": 70, "note_on_time": 6.316, "note_off_time": 6.476}, {"pitch": 64, "velocity": 62, "note_on_time": 6.572, "note_off_time": 6.719}, {"pitch": 64, "velocity": 66, "note_on_time": 6.818, "note_off_time": 6.99}, {"pitch": 62, "velocity": 80, "note_on_time": 7.1, "note_off_time": 7.226}, {"pitch": 62, "velocity": 66, "note_on_time": 7.321, "note_off_time": 7.508}, {"pitch": 64, "velocity": 57, "note_on_time": 7.594, "note_off_time": 7.775}, {"pitch": 62, "velocity": 56, "note_on_time": 7.837, "note_off_time": 8.178}, {"pitch": 62, "velocity": 56, "note_on_time": 8.401, "note_off_time": 8.55}, {"pitch": 62, "velocity": 59, "note_on_time": 8.636, "note_off_time": 8.778}]</notes><guidance name="Guidance Mode">None</guidance><error name="Error value">0.06380907407407421</error></trial><trial trial_no="5" timestamp="2022_11_03-13_25_35"><notes name="Played Notes">[{"pitch": 64, "velocity": 57, "note_on_time": 0.572, "note_off_time": 0.754}, {"pitch": 60, "velocity": 74, "note_on_time": 0.82, "note_off_time": 0.962}, {"pitch": 60, "velocity": 65, "note_on_time": 1.084, "note_off_time": 1.227}, {"pitch": 60, "velocity": 63, "note_on_time": 1.342, "note_off_time": 1.496}, {"pitch": 64, "velocity": 64, "note_on_time": 1.591, "note_off_time": 1.753}, {"pitch": 62, "velocity": 60, "note_on_time": 1.84, "note_off_time": 1.964}, {"pitch": 62, "velocity": 67, "note_on_time": 2.091, "note_off_time": 2.227}, {"pitch": 62, "velocity": 54, "note_on_time": 2.343, "note_off_time": 2.491}, {"pitch": 60, "velocity": 73, "note_on_time": 2.631, "note_off_time": 2.73}, {"pitch": 60, "velocity": 60, "note_on_time": 2.843, "note_off_time": 3.03}, {"pitch": 64, "velocity": 69, "note_on_time": 3.106, "note_off_time": 3.294}, {"pitch": 62, "velocity": 57, "note_on_time": 3.358, "note_off_time": 3.537}, {"pitch": 60, "velocity": 69, "note_on_time": 3.641, "note_off_time": 4.1}, {"pitch": 64, "velocity": 64, "note_on_time": 4.149, "note_off_time": 4.398}, {"pitch": 62, "velocity": 66, "note_on_time": 4.392, "note_off_time": 4.529}, {"pitch": 60, "velocity": 70, "note_on_time": 4.671, "note_off_time": 4.837}, {"pitch": 64, "velocity": 67, "note_on_time": 4.894, "note_off_time": 5.099}, {"pitch": 62, "velocity": 56, "note_on_time": 5.14, "note_off_time": 5.283}, {"pitch": 62, "velocity": 54, "note_on_time": 5.401, "note_off_time": 5.571}, {"pitch": 60, "velocity": 70, "note_on_time": 5.724, "note_off_time": 5.837}, {"pitch": 60, "velocity": 62, "note_on_time": 5.948, "note_off_time": 6.107}, {"pitch": 64, "velocity": 59, "note_on_time": 6.187, "note_off_time": 6.357}, {"pitch": 64, "velocity": 55, "note_on_time": 6.455, "note_off_time": 6.602}, {"pitch": 62, "velocity": 43, "note_on_time": 6.744, "note_off_time": 6.954}, {"pitch": 62, "velocity": 60, "note_on_time": 7.056, "note_off_time": 7.26}, {"pitch": 64, "velocity": 61, "note_on_time": 7.294, "note_off_time": 7.494}, {"pitch": 62, "velocity": 33, "note_on_time": 7.522, "note_off_time": 7.828}, {"pitch": 62, "velocity": 58, "note_on_time": 8.037, "note_off_time": 8.189}, {"pitch": 62, "velocity": 30, "note_on_time": 8.27, "note_off_time": 8.407}, {"pitch": 62, "velocity": 67, "note_on_time": 8.506, "note_off_time": 8.812}]</notes><guidance name="Guidance Mode">None</guidance><error name="Error value">0.023665740740740845</error></trial></trials></MIDI>