<MIDI midiNo="2022_12_08-12_53_56"><target_notes><notes name="Note List">[{"pitch": 42, "velocity": 80, "note_on_time": 0.005, "note_off_time": 0.226}, {"pitch": 42, "velocity": 80, "note_on_time": 0.226, "note_off_time": 0.444}, {"pitch": 42, "velocity": 80, "note_on_time": 0.444, "note_off_time": 0.662}, {"pitch": 42, "velocity": 80, "note_on_time": 0.662, "note_off_time": 0.879}, {"pitch": 65, "velocity": 80, "note_on_time": 0.879, "note_off_time": 1.097}, {"pitch": 42, "velocity": 80, "note_on_time": 0.879, "note_off_time": 1.097}, {"pitch": 64, "velocity": 80, "note_on_time": 1.097, "note_off_time": 1.316}, {"pitch": 42, "velocity": 80, "note_on_time": 1.097, "note_off_time": 1.317}, {"pitch": 65, "velocity": 80, "note_on_time": 1.316, "note_off_time": 1.535}, {"pitch": 42, "velocity": 80, "note_on_time": 1.317, "note_off_time": 1.535}, {"pitch": 67, "velocity": 80, "note_on_time": 1.535, "note_off_time": 1.754}, {"pitch": 42, "velocity": 80, "note_on_time": 1.535, "note_off_time": 1.754}, {"pitch": 64, "velocity": 80, "note_on_time": 1.754, "note_off_time": 1.973}, {"pitch": 42, "velocity": 80, "note_on_time": 1.754, "note_off_time": 1.973}, {"pitch": 64, "velocity": 80, "note_on_time": 1.973, "note_off_time": 2.192}, {"pitch": 42, "velocity": 80, "note_on_time": 1.973, "note_off_time": 2.192}, {"pitch": 64, "velocity": 80, "note_on_time": 2.192, "note_off_time": 2.41}, {"pitch": 42, "velocity": 80, "note_on_time": 2.192, "note_off_time": 2.41}, {"pitch": 62, "velocity": 80, "note_on_time": 2.41, "note_off_time": 2.628}, {"pitch": 42, "velocity": 80, "note_on_time": 2.41, "note_off_time": 2.628}, {"pitch": 60, "velocity": 80, "note_on_time": 2.628, "note_off_time": 2.844}, {"pitch": 42, "velocity": 80, "note_on_time": 2.628, "note_off_time": 2.844}, {"pitch": 42, "velocity": 80, "note_on_time": 2.844, "note_off_time": 3.061}, {"pitch": 62, "velocity": 80, "note_on_time": 2.844, "note_off_time": 3.279}, {"pitch": 42, "velocity": 80, "note_on_time": 3.061, "note_off_time": 3.279}, {"pitch": 42, "velocity": 80, "note_on_time": 3.279, "note_off_time": 3.497}, {"pitch": 60, "velocity": 80, "note_on_time": 3.497, "note_off_time": 3.716}, {"pitch": 42, "velocity": 80, "note_on_time": 3.497, "note_off_time": 3.716}, {"pitch": 62, "velocity": 80, "note_on_time": 3.716, "note_off_time": 3.933}, {"pitch": 42, "velocity": 80, "note_on_time": 3.716, "note_off_time": 3.933}, {"pitch": 67, "velocity": 80, "note_on_time": 3.933, "note_off_time": 4.15}, {"pitch": 42, "velocity": 80, "note_on_time": 3.933, "note_off_time": 4.15}, {"pitch": 65, "velocity": 80, "note_on_time": 4.15, "note_off_time": 4.37}, {"pitch": 42, "velocity": 80, "note_on_time": 4.15, "note_off_time": 4.37}, {"pitch": 42, "velocity": 80, "note_on_time": 4.37, "note_off_time": 4.587}, {"pitch": 65, "velocity": 80, "note_on_time": 4.37, "note_off_time": 4.806}, {"pitch": 42, "velocity": 80, "note_on_time": 4.587, "note_off_time": 4.806}, {"pitch": 60, "velocity": 80, "note_on_time": 4.806, "note_off_time": 5.024}, {"pitch": 42, "velocity": 80, "note_on_time": 4.806, "note_off_time": 5.024}, {"pitch": 62, "velocity": 80, "note_on_time": 5.024, "note_off_time": 5.242}, {"pitch": 42, "velocity": 80, "note_on_time": 5.024, "note_off_time": 5.242}, {"pitch": 64, "velocity": 80, "note_on_time": 5.242, "note_off_time": 5.46}, {"pitch": 42, "velocity": 80, "note_on_time": 5.242, "note_off_time": 5.46}, {"pitch": 62, "velocity": 80, "note_on_time": 5.46, "note_off_time": 5.678}, {"pitch": 42, "velocity": 80, "note_on_time": 5.46, "note_off_time": 5.678}, {"pitch": 62, "velocity": 80, "note_on_time": 5.678, "note_off_time": 5.897}, {"pitch": 42, "velocity": 80, "note_on_time": 5.678, "note_off_time": 5.897}, {"pitch": 64, "velocity": 80, "note_on_time": 5.897, "note_off_time": 6.113}, {"pitch": 42, "velocity": 80, "note_on_time": 5.897, "note_off_time": 6.113}, {"pitch": 64, "velocity": 80, "note_on_time": 6.113, "note_off_time": 6.332}, {"pitch": 42, "velocity": 80, "note_on_time": 6.113, "note_off_time": 6.332}, {"pitch": 65, "velocity": 80, "note_on_time": 6.332, "note_off_time": 6.551}, {"pitch": 42, "velocity": 80, "note_on_time": 6.332, "note_off_time": 6.551}, {"pitch": 64, "velocity": 80, "note_on_time": 6.551, "note_off_time": 6.768}, {"pitch": 42, "velocity": 80, "note_on_time": 6.551, "note_off_time": 6.768}, {"pitch": 62, "velocity": 80, "note_on_time": 6.768, "note_off_time": 6.988}, {"pitch": 42, "velocity": 80, "note_on_time": 6.769, "note_off_time": 6.988}, {"pitch": 42, "velocity": 80, "note_on_time": 6.988, "note_off_time": 7.209}, {"pitch": 62, "velocity": 80, "note_on_time": 7.209, "note_off_time": 7.428}, {"pitch": 42, "velocity": 80, "note_on_time": 7.209, "note_off_time": 7.428}, {"pitch": 62, "velocity": 80, "note_on_time": 7.428, "note_off_time": 7.644}, {"pitch": 42, "velocity": 80, "note_on_time": 7.428, "note_off_time": 7.645}, {"pitch": 62, "velocity": 80, "note_on_time": 7.645, "note_off_time": 7.863}, {"pitch": 42, "velocity": 80, "note_on_time": 7.645, "note_off_time": 7.863}]</notes><options name="Option List">((4, 4), [0.5, 0.25], 3, 8, &lt;NoteRangePerHand.C_TO_G: 6&gt;, &lt;NoteRangePerHand.ONE_NOTE: 2&gt;, False, True, False, 281)</options></target_notes><trials><trial trial_no="1" timestamp="2022_12_08-12_53_47"><notes name="Played Notes">[{"pitch": 65, "velocity": 63, "note_on_time": 0.861, "note_off_time": 1.092}, {"pitch": 64, "velocity": 63, "note_on_time": 1.108, "note_off_time": 1.345}, {"pitch": 65, "velocity": 64, "note_on_time": 1.345, "note_off_time": 1.567}, {"pitch": 67, "velocity": 72, "note_on_time": 1.561, "note_off_time": 1.793}, {"pitch": 64, "velocity": 65, "note_on_time": 1.795, "note_off_time": 1.884}, {"pitch": 64, "velocity": 76, "note_on_time": 2.009, "note_off_time": 2.086}, {"pitch": 64, "velocity": 74, "note_on_time": 2.218, "note_off_time": 2.422}, {"pitch": 62, "velocity": 68, "note_on_time": 2.439, "note_off_time": 2.644}, {"pitch": 60, "velocity": 67, "note_on_time": 2.674, "note_off_time": 2.859}, {"pitch": 62, "velocity": 72, "note_on_time": 2.888, "note_off_time": 3.243}, {"pitch": 60, "velocity": 71, "note_on_time": 3.559, "note_off_time": 3.751}, {"pitch": 62, "velocity": 58, "note_on_time": 3.784, "note_off_time": 4.005}, {"pitch": 67, "velocity": 71, "note_on_time": 3.986, "note_off_time": 4.213}, {"pitch": 65, "velocity": 73, "note_on_time": 4.204, "note_off_time": 4.287}, {"pitch": 65, "velocity": 76, "note_on_time": 4.432, "note_off_time": 4.835}, {"pitch": 60, "velocity": 67, "note_on_time": 4.853, "note_off_time": 5.031}, {"pitch": 62, "velocity": 68, "note_on_time": 5.051, "note_off_time": 5.292}, {"pitch": 64, "velocity": 76, "note_on_time": 5.283, "note_off_time": 5.448}, {"pitch": 62, "velocity": 66, "note_on_time": 5.493, "note_off_time": 5.576}, {"pitch": 62, "velocity": 54, "note_on_time": 5.705, "note_off_time": 5.924}, {"pitch": 64, "velocity": 40, "note_on_time": 5.939, "note_off_time": 6.004}, {"pitch": 64, "velocity": 59, "note_on_time": 6.141, "note_off_time": 6.348}, {"pitch": 65, "velocity": 58, "note_on_time": 6.353, "note_off_time": 6.59}, {"pitch": 64, "velocity": 65, "note_on_time": 6.578, "note_off_time": 6.779}, {"pitch": 62, "velocity": 57, "note_on_time": 6.792, "note_off_time": 7.039}, {"pitch": 62, "velocity": 55, "note_on_time": 7.232, "note_off_time": 7.305}, {"pitch": 62, "velocity": 56, "note_on_time": 7.451, "note_off_time": 7.54}, {"pitch": 62, "velocity": 59, "note_on_time": 7.672, "note_off_time": 7.831}]</notes><guidance name="Guidance Mode">None</guidance><error name="Error value">0.01212803999999999</error></trial><trial trial_no="2" timestamp="2022_12_08-12_54_05"><notes name="Played Notes">[{"pitch": 65, "velocity": 75, "note_on_time": 0.848, "note_off_time": 1.056}, {"pitch": 64, "velocity": 67, "note_on_time": 1.077, "note_off_time": 1.309}, {"pitch": 65, "velocity": 72, "note_on_time": 1.299, "note_off_time": 1.525}, {"pitch": 67, "velocity": 72, "note_on_time": 1.521, "note_off_time": 1.753}, {"pitch": 64, "velocity": 66, "note_on_time": 1.752, "note_off_time": 1.848}, {"pitch": 64, "velocity": 71, "note_on_time": 1.976, "note_off_time": 2.061}, {"pitch": 64, "velocity": 66, "note_on_time": 2.201, "note_off_time": 2.397}, {"pitch": 62, "velocity": 63, "note_on_time": 2.423, "note_off_time": 2.635}, {"pitch": 60, "velocity": 71, "note_on_time": 2.66, "note_off_time": 2.852}, {"pitch": 62, "velocity": 70, "note_on_time": 2.88, "note_off_time": 3.247}, {"pitch": 60, "velocity": 69, "note_on_time": 3.516, "note_off_time": 3.699}, {"pitch": 62, "velocity": 55, "note_on_time": 3.747, "note_off_time": 3.973}, {"pitch": 67, "velocity": 73, "note_on_time": 3.957, "note_off_time": 4.184}, {"pitch": 65, "velocity": 70, "note_on_time": 4.167, "note_off_time": 4.242}, {"pitch": 65, "velocity": 78, "note_on_time": 4.393, "note_off_time": 4.835}, {"pitch": 60, "velocity": 61, "note_on_time": 4.845, "note_off_time": 5.003}, {"pitch": 62, "velocity": 64, "note_on_time": 5.037, "note_off_time": 5.288}, {"pitch": 64, "velocity": 62, "note_on_time": 5.269, "note_off_time": 5.478}, {"pitch": 62, "velocity": 70, "note_on_time": 5.488, "note_off_time": 5.567}, {"pitch": 62, "velocity": 58, "note_on_time": 5.702, "note_off_time": 5.896}, {"pitch": 64, "velocity": 71, "note_on_time": 5.89, "note_off_time": 6.001}, {"pitch": 64, "velocity": 66, "note_on_time": 6.12, "note_off_time": 6.341}, {"pitch": 65, "velocity": 67, "note_on_time": 6.347, "note_off_time": 6.594}, {"pitch": 64, "velocity": 68, "note_on_time": 6.567, "note_off_time": 6.781}, {"pitch": 62, "velocity": 59, "note_on_time": 6.796, "note_off_time": 7.04}, {"pitch": 62, "velocity": 72, "note_on_time": 7.238, "note_off_time": 7.324}, {"pitch": 62, "velocity": 64, "note_on_time": 7.449, "note_off_time": 7.552}, {"pitch": 62, "velocity": 73, "note_on_time": 7.681, "note_off_time": 7.858}]</notes><guidance name="Guidance Mode">None</guidance><error name="Error value">0.013446199999999964</error></trial><trial trial_no="3" timestamp="2022_12_08-12_54_21"><notes name="Played Notes">[{"pitch": 65, "velocity": 77, "note_on_time": 0.86, "note_off_time": 1.056}, {"pitch": 64, "velocity": 69, "note_on_time": 1.084, "note_off_time": 1.328}, {"pitch": 65, "velocity": 71, "note_on_time": 1.318, "note_off_time": 1.568}, {"pitch": 67, "velocity": 70, "note_on_time": 1.547, "note_off_time": 1.793}, {"pitch": 64, "velocity": 69, "note_on_time": 1.773, "note_off_time": 1.883}, {"pitch": 64, "velocity": 70, "note_on_time": 1.995, "note_off_time": 2.088}, {"pitch": 64, "velocity": 66, "note_on_time": 2.224, "note_off_time": 2.461}, {"pitch": 62, "velocity": 55, "note_on_time": 2.467, "note_off_time": 2.686}, {"pitch": 60, "velocity": 68, "note_on_time": 2.702, "note_off_time": 2.933}, {"pitch": 62, "velocity": 59, "note_on_time": 2.931, "note_off_time": 3.509}, {"pitch": 60, "velocity": 67, "note_on_time": 3.553, "note_off_time": 3.732}, {"pitch": 62, "velocity": 60, "note_on_time": 3.754, "note_off_time": 3.99}, {"pitch": 67, "velocity": 71, "note_on_time": 3.968, "note_off_time": 4.207}, {"pitch": 65, "velocity": 70, "note_on_time": 4.188, "note_off_time": 4.257}, {"pitch": 65, "velocity": 80, "note_on_time": 4.407, "note_off_time": 4.834}, {"pitch": 60, "velocity": 67, "note_on_time": 4.825, "note_off_time": 5.01}, {"pitch": 62, "velocity": 63, "note_on_time": 5.029, "note_off_time": 5.278}, {"pitch": 64, "velocity": 64, "note_on_time": 5.264, "note_off_time": 5.46}, {"pitch": 62, "velocity": 72, "note_on_time": 5.458, "note_off_time": 5.558}, {"pitch": 62, "velocity": 66, "note_on_time": 5.683, "note_off_time": 5.894}, {"pitch": 64, "velocity": 62, "note_on_time": 5.894, "note_off_time": 6.0}, {"pitch": 64, "velocity": 60, "note_on_time": 6.12, "note_off_time": 6.347}, {"pitch": 65, "velocity": 67, "note_on_time": 6.35, "note_off_time": 6.606}, {"pitch": 64, "velocity": 68, "note_on_time": 6.581, "note_off_time": 6.83}, {"pitch": 62, "velocity": 66, "note_on_time": 6.807, "note_off_time": 7.068}, {"pitch": 62, "velocity": 87, "note_on_time": 7.261, "note_off_time": 7.349}, {"pitch": 62, "velocity": 79, "note_on_time": 7.474, "note_off_time": 7.573}]</notes><guidance name="Guidance Mode">None</guidance><error name="Error value">0.06265171999999995</error></trial></trials></MIDI>