<MIDI midiNo="2022_09_12-12_28_42"><target_notes><notes name="Note List">[{"pitch": 42, "velocity": 80, "note_on_time": 0.005, "note_off_time": 0.297}, {"pitch": 42, "velocity": 80, "note_on_time": 0.297, "note_off_time": 0.591}, {"pitch": 42, "velocity": 80, "note_on_time": 0.592, "note_off_time": 0.885}, {"pitch": 42, "velocity": 80, "note_on_time": 0.885, "note_off_time": 1.179}, {"pitch": 60, "velocity": 80, "note_on_time": 1.179, "note_off_time": 1.46}, {"pitch": 42, "velocity": 80, "note_on_time": 1.179, "note_off_time": 1.46}, {"pitch": 42, "velocity": 80, "note_on_time": 1.46, "note_off_time": 1.754}, {"pitch": 60, "velocity": 80, "note_on_time": 1.46, "note_off_time": 2.036}, {"pitch": 42, "velocity": 80, "note_on_time": 1.754, "note_off_time": 2.036}, {"pitch": 42, "velocity": 80, "note_on_time": 2.037, "note_off_time": 2.317}, {"pitch": 62, "velocity": 80, "note_on_time": 2.317, "note_off_time": 2.599}, {"pitch": 42, "velocity": 80, "note_on_time": 2.317, "note_off_time": 2.599}, {"pitch": 64, "velocity": 80, "note_on_time": 2.599, "note_off_time": 2.895}, {"pitch": 42, "velocity": 80, "note_on_time": 2.6, "note_off_time": 2.895}, {"pitch": 60, "velocity": 80, "note_on_time": 2.895, "note_off_time": 3.191}, {"pitch": 42, "velocity": 80, "note_on_time": 2.895, "note_off_time": 3.191}, {"pitch": 60, "velocity": 80, "note_on_time": 3.191, "note_off_time": 3.484}, {"pitch": 42, "velocity": 80, "note_on_time": 3.191, "note_off_time": 3.484}, {"pitch": 64, "velocity": 80, "note_on_time": 3.484, "note_off_time": 3.781}, {"pitch": 42, "velocity": 80, "note_on_time": 3.484, "note_off_time": 3.781}, {"pitch": 42, "velocity": 80, "note_on_time": 3.781, "note_off_time": 4.077}, {"pitch": 42, "velocity": 80, "note_on_time": 4.077, "note_off_time": 4.359}, {"pitch": 62, "velocity": 80, "note_on_time": 4.358, "note_off_time": 4.653}, {"pitch": 42, "velocity": 80, "note_on_time": 4.359, "note_off_time": 4.653}, {"pitch": 60, "velocity": 80, "note_on_time": 4.653, "note_off_time": 4.946}, {"pitch": 42, "velocity": 80, "note_on_time": 4.653, "note_off_time": 4.947}, {"pitch": 64, "velocity": 80, "note_on_time": 4.946, "note_off_time": 5.241}, {"pitch": 42, "velocity": 80, "note_on_time": 4.947, "note_off_time": 5.241}, {"pitch": 64, "velocity": 80, "note_on_time": 5.241, "note_off_time": 5.535}, {"pitch": 42, "velocity": 80, "note_on_time": 5.241, "note_off_time": 5.535}, {"pitch": 60, "velocity": 80, "note_on_time": 5.535, "note_off_time": 5.83}, {"pitch": 42, "velocity": 80, "note_on_time": 5.535, "note_off_time": 5.831}, {"pitch": 64, "velocity": 80, "note_on_time": 5.83, "note_off_time": 6.126}, {"pitch": 42, "velocity": 80, "note_on_time": 5.831, "note_off_time": 6.126}, {"pitch": 62, "velocity": 80, "note_on_time": 6.126, "note_off_time": 6.408}, {"pitch": 42, "velocity": 80, "note_on_time": 6.127, "note_off_time": 6.408}, {"pitch": 42, "velocity": 80, "note_on_time": 6.408, "note_off_time": 6.704}, {"pitch": 60, "velocity": 80, "note_on_time": 6.408, "note_off_time": 6.999}, {"pitch": 42, "velocity": 80, "note_on_time": 6.705, "note_off_time": 6.999}, {"pitch": 60, "velocity": 80, "note_on_time": 6.999, "note_off_time": 7.295}, {"pitch": 42, "velocity": 80, "note_on_time": 7.0, "note_off_time": 7.295}, {"pitch": 60, "velocity": 80, "note_on_time": 7.295, "note_off_time": 7.576}, {"pitch": 42, "velocity": 80, "note_on_time": 7.295, "note_off_time": 7.576}, {"pitch": 64, "velocity": 80, "note_on_time": 7.576, "note_off_time": 7.871}, {"pitch": 42, "velocity": 80, "note_on_time": 7.576, "note_off_time": 7.871}, {"pitch": 62, "velocity": 80, "note_on_time": 7.871, "note_off_time": 8.166}, {"pitch": 42, "velocity": 80, "note_on_time": 7.872, "note_off_time": 8.166}, {"pitch": 60, "velocity": 80, "note_on_time": 8.166, "note_off_time": 8.462}, {"pitch": 42, "velocity": 80, "note_on_time": 8.167, "note_off_time": 8.462}, {"pitch": 42, "velocity": 80, "note_on_time": 8.463, "note_off_time": 8.758}, {"pitch": 60, "velocity": 80, "note_on_time": 8.758, "note_off_time": 9.039}, {"pitch": 42, "velocity": 80, "note_on_time": 8.759, "note_off_time": 9.039}, {"pitch": 60, "velocity": 80, "note_on_time": 9.039, "note_off_time": 9.335}, {"pitch": 42, "velocity": 80, "note_on_time": 9.04, "note_off_time": 9.335}, {"pitch": 42, "velocity": 80, "note_on_time": 9.335, "note_off_time": 9.617}, {"pitch": 60, "velocity": 80, "note_on_time": 9.617, "note_off_time": 9.911}, {"pitch": 42, "velocity": 80, "note_on_time": 9.617, "note_off_time": 9.911}, {"pitch": 60, "velocity": 80, "note_on_time": 9.911, "note_off_time": 10.207}, {"pitch": 42, "velocity": 80, "note_on_time": 9.912, "note_off_time": 10.207}, {"pitch": 60, "velocity": 80, "note_on_time": 10.207, "note_off_time": 10.501}, {"pitch": 42, "velocity": 80, "note_on_time": 10.208, "note_off_time": 10.501}]</notes><options name="Option List">((4, 4), [0.5, 0.25], 3, 8, &lt;NoteRangePerHand.THREE_NOTES: 4&gt;, &lt;NoteRangePerHand.ONE_NOTE: 2&gt;, False, True, True, 215)</options></target_notes><trials><trial trial_no="1" timestamp="2022_09_12-12_28_31"><notes name="Played Notes">[{"pitch": 60, "velocity": 88, "note_on_time": 1.158, "note_off_time": 1.307}, {"pitch": 60, "velocity": 97, "note_on_time": 1.433, "note_off_time": 1.922}, {"pitch": 62, "velocity": 85, "note_on_time": 2.435, "note_off_time": 2.592}, {"pitch": 64, "velocity": 85, "note_on_time": 2.707, "note_off_time": 2.87}, {"pitch": 60, "velocity": 94, "note_on_time": 2.996, "note_off_time": 3.137}, {"pitch": 60, "velocity": 95, "note_on_time": 3.275, "note_off_time": 3.44}, {"pitch": 64, "velocity": 84, "note_on_time": 3.557, "note_off_time": 3.728}, {"pitch": 62, "velocity": 84, "note_on_time": 3.848, "note_off_time": 3.997}, {"pitch": 60, "velocity": 93, "note_on_time": 4.163, "note_off_time": 4.313}, {"pitch": 64, "velocity": 71, "note_on_time": 4.504, "note_off_time": 4.618}, {"pitch": 64, "velocity": 90, "note_on_time": 4.778, "note_off_time": 4.95}, {"pitch": 60, "velocity": 94, "note_on_time": 5.149, "note_off_time": 5.3}, {"pitch": 64, "velocity": 91, "note_on_time": 5.498, "note_off_time": 5.63}, {"pitch": 62, "velocity": 89, "note_on_time": 5.774, "note_off_time": 5.912}, {"pitch": 60, "velocity": 94, "note_on_time": 6.037, "note_off_time": 6.349}, {"pitch": 60, "velocity": 99, "note_on_time": 6.675, "note_off_time": 6.791}, {"pitch": 60, "velocity": 101, "note_on_time": 6.94, "note_off_time": 7.096}, {"pitch": 64, "velocity": 86, "note_on_time": 7.236, "note_off_time": 7.401}, {"pitch": 62, "velocity": 84, "note_on_time": 7.535, "note_off_time": 7.689}, {"pitch": 62, "velocity": 69, "note_on_time": 7.873, "note_off_time": 7.97}, {"pitch": 60, "velocity": 95, "note_on_time": 8.198, "note_off_time": 8.331}, {"pitch": 60, "velocity": 96, "note_on_time": 8.518, "note_off_time": 8.86}, {"pitch": 60, "velocity": 94, "note_on_time": 9.447, "note_off_time": 9.545}, {"pitch": 60, "velocity": 87, "note_on_time": 9.647, "note_off_time": 9.744}, {"pitch": 60, "velocity": 89, "note_on_time": 9.838, "note_off_time": 9.909}]</notes><guidance name="Guidance Mode">None</guidance><error name="Error value">0.13730877272727268</error></trial><trial trial_no="2" timestamp="2022_09_12-12_29_40"><notes name="Played Notes">[{"pitch": 60, "velocity": 89, "note_on_time": 1.067, "note_off_time": 1.206}, {"pitch": 60, "velocity": 101, "note_on_time": 1.35, "note_off_time": 1.846}, {"pitch": 62, "velocity": 86, "note_on_time": 2.362, "note_off_time": 2.491}, {"pitch": 64, "velocity": 79, "note_on_time": 2.606, "note_off_time": 2.773}, {"pitch": 60, "velocity": 94, "note_on_time": 2.895, "note_off_time": 3.029}, {"pitch": 60, "velocity": 98, "note_on_time": 3.167, "note_off_time": 3.304}, {"pitch": 64, "velocity": 87, "note_on_time": 3.435, "note_off_time": 3.612}, {"pitch": 62, "velocity": 79, "note_on_time": 3.707, "note_off_time": 3.842}, {"pitch": 60, "velocity": 88, "note_on_time": 3.997, "note_off_time": 4.153}, {"pitch": 64, "velocity": 83, "note_on_time": 4.265, "note_off_time": 4.408}, {"pitch": 64, "velocity": 80, "note_on_time": 4.533, "note_off_time": 4.686}, {"pitch": 60, "velocity": 94, "note_on_time": 4.814, "note_off_time": 4.988}, {"pitch": 64, "velocity": 87, "note_on_time": 5.148, "note_off_time": 5.282}, {"pitch": 62, "velocity": 84, "note_on_time": 5.433, "note_off_time": 5.574}, {"pitch": 60, "velocity": 87, "note_on_time": 5.716, "note_off_time": 6.027}, {"pitch": 60, "velocity": 96, "note_on_time": 6.348, "note_off_time": 6.467}, {"pitch": 60, "velocity": 98, "note_on_time": 6.615, "note_off_time": 6.753}, {"pitch": 64, "velocity": 81, "note_on_time": 6.967, "note_off_time": 7.092}, {"pitch": 62, "velocity": 87, "note_on_time": 7.265, "note_off_time": 7.391}, {"pitch": 60, "velocity": 92, "note_on_time": 7.541, "note_off_time": 7.683}, {"pitch": 60, "velocity": 93, "note_on_time": 8.14, "note_off_time": 8.249}, {"pitch": 60, "velocity": 96, "note_on_time": 8.403, "note_off_time": 8.525}, {"pitch": 60, "velocity": 95, "note_on_time": 8.955, "note_off_time": 9.062}, {"pitch": 60, "velocity": 95, "note_on_time": 9.205, "note_off_time": 9.311}, {"pitch": 60, "velocity": 103, "note_on_time": 9.454, "note_off_time": 9.568}]</notes><guidance name="Guidance Mode">None</guidance><error name="Error value">0.05499686363636353</error></trial><trial trial_no="3" timestamp="2022_09_12-12_30_02"><notes name="Played Notes">[{"pitch": 60, "velocity": 89, "note_on_time": 1.177, "note_off_time": 1.316}, {"pitch": 60, "velocity": 95, "note_on_time": 1.449, "note_off_time": 1.947}, {"pitch": 62, "velocity": 85, "note_on_time": 2.698, "note_off_time": 2.861}, {"pitch": 64, "velocity": 85, "note_on_time": 2.994, "note_off_time": 3.158}, {"pitch": 60, "velocity": 92, "note_on_time": 3.342, "note_off_time": 3.476}, {"pitch": 60, "velocity": 99, "note_on_time": 3.618, "note_off_time": 3.784}, {"pitch": 64, "velocity": 87, "note_on_time": 3.928, "note_off_time": 4.075}, {"pitch": 62, "velocity": 87, "note_on_time": 4.297, "note_off_time": 4.417}, {"pitch": 60, "velocity": 85, "note_on_time": 4.645, "note_off_time": 4.8}, {"pitch": 64, "velocity": 87, "note_on_time": 5.075, "note_off_time": 5.201}, {"pitch": 62, "velocity": 67, "note_on_time": 5.522, "note_off_time": 5.613}, {"pitch": 60, "velocity": 88, "note_on_time": 6.223, "note_off_time": 6.341}, {"pitch": 64, "velocity": 75, "note_on_time": 6.849, "note_off_time": 6.978}, {"pitch": 62, "velocity": 81, "note_on_time": 7.205, "note_off_time": 7.3}, {"pitch": 60, "velocity": 91, "note_on_time": 7.439, "note_off_time": 7.793}, {"pitch": 60, "velocity": 94, "note_on_time": 8.204, "note_off_time": 8.322}, {"pitch": 60, "velocity": 98, "note_on_time": 8.458, "note_off_time": 8.602}, {"pitch": 63, "velocity": 53, "note_on_time": 9.114, "note_off_time": 9.225}, {"pitch": 64, "velocity": 71, "note_on_time": 9.112, "note_off_time": 9.25}, {"pitch": 62, "velocity": 83, "note_on_time": 9.607, "note_off_time": 9.736}]</notes><guidance name="Guidance Mode">None</guidance><error name="Error value">0.7151457727272728</error></trial></trials></MIDI>