<MIDI midiNo="2022_11_10-11_10_48"><target_notes><notes name="Note List">[{"pitch": 42, "velocity": 80, "note_on_time": 0.004, "note_off_time": 0.73}, {"pitch": 42, "velocity": 80, "note_on_time": 0.73, "note_off_time": 1.462}, {"pitch": 42, "velocity": 80, "note_on_time": 1.463, "note_off_time": 2.19}, {"pitch": 42, "velocity": 80, "note_on_time": 2.19, "note_off_time": 2.918}, {"pitch": 62, "velocity": 80, "note_on_time": 2.917, "note_off_time": 3.646}, {"pitch": 42, "velocity": 80, "note_on_time": 2.918, "note_off_time": 3.646}, {"pitch": 64, "velocity": 80, "note_on_time": 3.646, "note_off_time": 4.374}, {"pitch": 42, "velocity": 80, "note_on_time": 3.646, "note_off_time": 4.374}, {"pitch": 62, "velocity": 80, "note_on_time": 4.374, "note_off_time": 5.102}, {"pitch": 42, "velocity": 80, "note_on_time": 4.374, "note_off_time": 5.102}, {"pitch": 62, "velocity": 80, "note_on_time": 5.102, "note_off_time": 5.83}, {"pitch": 42, "velocity": 80, "note_on_time": 5.102, "note_off_time": 5.83}, {"pitch": 62, "velocity": 80, "note_on_time": 5.83, "note_off_time": 6.559}, {"pitch": 42, "velocity": 80, "note_on_time": 5.83, "note_off_time": 6.559}, {"pitch": 60, "velocity": 80, "note_on_time": 6.559, "note_off_time": 7.286}, {"pitch": 42, "velocity": 80, "note_on_time": 6.559, "note_off_time": 7.287}, {"pitch": 62, "velocity": 80, "note_on_time": 7.286, "note_off_time": 8.017}, {"pitch": 42, "velocity": 80, "note_on_time": 7.287, "note_off_time": 8.017}, {"pitch": 60, "velocity": 80, "note_on_time": 8.017, "note_off_time": 8.744}, {"pitch": 42, "velocity": 80, "note_on_time": 8.018, "note_off_time": 8.745}, {"pitch": 60, "velocity": 80, "note_on_time": 8.744, "note_off_time": 9.474}, {"pitch": 42, "velocity": 80, "note_on_time": 8.745, "note_off_time": 9.474}, {"pitch": 64, "velocity": 80, "note_on_time": 9.474, "note_off_time": 10.202}, {"pitch": 42, "velocity": 80, "note_on_time": 9.474, "note_off_time": 10.202}, {"pitch": 64, "velocity": 80, "note_on_time": 10.202, "note_off_time": 10.93}, {"pitch": 42, "velocity": 80, "note_on_time": 10.203, "note_off_time": 10.93}, {"pitch": 62, "velocity": 80, "note_on_time": 10.93, "note_off_time": 11.663}, {"pitch": 42, "velocity": 80, "note_on_time": 10.931, "note_off_time": 11.664}, {"pitch": 60, "velocity": 80, "note_on_time": 11.663, "note_off_time": 12.394}, {"pitch": 42, "velocity": 80, "note_on_time": 11.664, "note_off_time": 12.394}, {"pitch": 42, "velocity": 80, "note_on_time": 12.395, "note_off_time": 13.123}, {"pitch": 64, "velocity": 80, "note_on_time": 12.394, "note_off_time": 13.854}, {"pitch": 42, "velocity": 80, "note_on_time": 13.123, "note_off_time": 13.855}, {"pitch": 62, "velocity": 80, "note_on_time": 13.854, "note_off_time": 14.585}, {"pitch": 42, "velocity": 80, "note_on_time": 13.855, "note_off_time": 14.585}, {"pitch": 42, "velocity": 80, "note_on_time": 14.585, "note_off_time": 15.312}, {"pitch": 60, "velocity": 80, "note_on_time": 14.585, "note_off_time": 16.043}, {"pitch": 42, "velocity": 80, "note_on_time": 15.313, "note_off_time": 16.043}, {"pitch": 42, "velocity": 80, "note_on_time": 16.043, "note_off_time": 16.775}, {"pitch": 42, "velocity": 80, "note_on_time": 16.775, "note_off_time": 17.506}, {"pitch": 42, "velocity": 80, "note_on_time": 17.507, "note_off_time": 18.234}, {"pitch": 62, "velocity": 80, "note_on_time": 17.506, "note_off_time": 18.964}, {"pitch": 42, "velocity": 80, "note_on_time": 18.234, "note_off_time": 18.964}, {"pitch": 42, "velocity": 80, "note_on_time": 18.965, "note_off_time": 19.693}, {"pitch": 42, "velocity": 80, "note_on_time": 19.693, "note_off_time": 20.423}, {"pitch": 60, "velocity": 80, "note_on_time": 20.423, "note_off_time": 21.154}, {"pitch": 42, "velocity": 80, "note_on_time": 20.424, "note_off_time": 21.154}, {"pitch": 42, "velocity": 80, "note_on_time": 21.154, "note_off_time": 21.886}, {"pitch": 42, "velocity": 80, "note_on_time": 21.886, "note_off_time": 22.615}, {"pitch": 42, "velocity": 80, "note_on_time": 22.615, "note_off_time": 23.345}, {"pitch": 42, "velocity": 80, "note_on_time": 23.345, "note_off_time": 24.077}, {"pitch": 60, "velocity": 80, "note_on_time": 24.077, "note_off_time": 24.811}, {"pitch": 42, "velocity": 80, "note_on_time": 24.077, "note_off_time": 24.811}, {"pitch": 60, "velocity": 80, "note_on_time": 24.811, "note_off_time": 25.544}, {"pitch": 42, "velocity": 80, "note_on_time": 24.812, "note_off_time": 25.544}, {"pitch": 60, "velocity": 80, "note_on_time": 25.544, "note_off_time": 26.274}, {"pitch": 42, "velocity": 80, "note_on_time": 25.545, "note_off_time": 26.275}]</notes><options name="Option List">((4, 4), [0.5, 0.25], 3, 8, &lt;NoteRangePerHand.THREE_NOTES: 4&gt;, &lt;NoteRangePerHand.ONE_NOTE: 2&gt;, False, True, False, '83')</options></target_notes><trials><trial trial_no="1" timestamp="2022_11_10-11_10_20"><notes name="Played Notes">[{"pitch": 62, "velocity": 74, "note_on_time": 2.971, "note_off_time": 3.248}, {"pitch": 64, "velocity": 77, "note_on_time": 3.701, "note_off_time": 3.988}, {"pitch": 62, "velocity": 79, "note_on_time": 4.444, "note_off_time": 4.735}, {"pitch": 62, "velocity": 63, "note_on_time": 5.248, "note_off_time": 5.491}, {"pitch": 62, "velocity": 87, "note_on_time": 6.063, "note_off_time": 6.319}, {"pitch": 60, "velocity": 79, "note_on_time": 6.908, "note_off_time": 7.211}, {"pitch": 62, "velocity": 71, "note_on_time": 7.699, "note_off_time": 7.993}, {"pitch": 60, "velocity": 62, "note_on_time": 8.724, "note_off_time": 8.973}, {"pitch": 60, "velocity": 60, "note_on_time": 9.677, "note_off_time": 9.922}, {"pitch": 64, "velocity": 67, "note_on_time": 10.493, "note_off_time": 10.725}, {"pitch": 64, "velocity": 69, "note_on_time": 11.583, "note_off_time": 11.827}, {"pitch": 62, "velocity": 70, "note_on_time": 12.421, "note_off_time": 12.674}, {"pitch": 60, "velocity": 81, "note_on_time": 13.195, "note_off_time": 13.467}, {"pitch": 62, "velocity": 72, "note_on_time": 13.987, "note_off_time": 14.269}, {"pitch": 62, "velocity": 74, "note_on_time": 15.483, "note_off_time": 15.68}, {"pitch": 60, "velocity": 71, "note_on_time": 16.274, "note_off_time": 16.462}, {"pitch": 62, "velocity": 74, "note_on_time": 19.118, "note_off_time": 19.512}, {"pitch": 60, "velocity": 69, "note_on_time": 21.772, "note_off_time": 21.971}, {"pitch": 60, "velocity": 82, "note_on_time": 24.882, "note_off_time": 25.075}, {"pitch": 60, "velocity": 77, "note_on_time": 25.552, "note_off_time": 25.734}]</notes><guidance name="Guidance Mode">None</guidance><error name="Error value">0.26653633333333365</error></trial><trial trial_no="2" timestamp="2022_11_10-11_11_07"><notes name="Played Notes">[{"pitch": 62, "velocity": 77, "note_on_time": 2.888, "note_off_time": 3.245}, {"pitch": 62, "velocity": 75, "note_on_time": 5.821, "note_off_time": 6.142}, {"pitch": 64, "velocity": 63, "note_on_time": 6.52, "note_off_time": 6.786}, {"pitch": 62, "velocity": 69, "note_on_time": 7.202, "note_off_time": 7.409}, {"pitch": 62, "velocity": 71, "note_on_time": 8.011, "note_off_time": 8.233}, {"pitch": 62, "velocity": 74, "note_on_time": 9.198, "note_off_time": 9.438}, {"pitch": 60, "velocity": 80, "note_on_time": 9.961, "note_off_time": 10.194}, {"pitch": 62, "velocity": 74, "note_on_time": 10.736, "note_off_time": 10.971}, {"pitch": 60, "velocity": 72, "note_on_time": 11.485, "note_off_time": 11.712}, {"pitch": 60, "velocity": 81, "note_on_time": 12.23, "note_off_time": 12.454}, {"pitch": 64, "velocity": 75, "note_on_time": 12.989, "note_off_time": 13.245}, {"pitch": 64, "velocity": 64, "note_on_time": 13.708, "note_off_time": 13.949}, {"pitch": 62, "velocity": 78, "note_on_time": 14.426, "note_off_time": 14.702}, {"pitch": 60, "velocity": 75, "note_on_time": 15.133, "note_off_time": 15.381}, {"pitch": 64, "velocity": 71, "note_on_time": 15.896, "note_off_time": 16.151}, {"pitch": 62, "velocity": 73, "note_on_time": 16.637, "note_off_time": 16.864}, {"pitch": 60, "velocity": 76, "note_on_time": 17.305, "note_off_time": 17.57}, {"pitch": 62, "velocity": 77, "note_on_time": 19.021, "note_off_time": 19.281}, {"pitch": 60, "velocity": 84, "note_on_time": 21.067, "note_off_time": 21.391}, {"pitch": 60, "velocity": 86, "note_on_time": 23.996, "note_off_time": 24.193}, {"pitch": 60, "velocity": 84, "note_on_time": 24.679, "note_off_time": 24.876}, {"pitch": 60, "velocity": 82, "note_on_time": 25.384, "note_off_time": 25.585}]</notes><guidance name="Guidance Mode">None</guidance><error name="Error value">0.6559091666666673</error></trial><trial trial_no="3" timestamp="2022_11_10-11_11_51"><notes name="Played Notes">[{"pitch": 62, "velocity": 77, "note_on_time": 2.877, "note_off_time": 3.168}, {"pitch": 64, "velocity": 84, "note_on_time": 3.615, "note_off_time": 3.86}, {"pitch": 62, "velocity": 75, "note_on_time": 4.337, "note_off_time": 4.563}, {"pitch": 62, "velocity": 76, "note_on_time": 5.072, "note_off_time": 5.31}, {"pitch": 62, "velocity": 81, "note_on_time": 5.818, "note_off_time": 6.036}, {"pitch": 60, "velocity": 79, "note_on_time": 6.515, "note_off_time": 6.747}, {"pitch": 62, "velocity": 77, "note_on_time": 7.274, "note_off_time": 7.488}, {"pitch": 60, "velocity": 75, "note_on_time": 8.063, "note_off_time": 8.295}, {"pitch": 62, "velocity": 72, "note_on_time": 8.746, "note_off_time": 8.971}, {"pitch": 64, "velocity": 70, "note_on_time": 9.411, "note_off_time": 9.626}, {"pitch": 64, "velocity": 70, "note_on_time": 10.124, "note_off_time": 10.334}, {"pitch": 62, "velocity": 78, "note_on_time": 10.861, "note_off_time": 11.102}, {"pitch": 60, "velocity": 76, "note_on_time": 11.568, "note_off_time": 11.79}, {"pitch": 64, "velocity": 74, "note_on_time": 12.269, "note_off_time": 12.48}, {"pitch": 62, "velocity": 74, "note_on_time": 13.027, "note_off_time": 13.244}, {"pitch": 60, "velocity": 77, "note_on_time": 13.771, "note_off_time": 13.972}, {"pitch": 62, "velocity": 73, "note_on_time": 15.981, "note_off_time": 16.211}, {"pitch": 60, "velocity": 77, "note_on_time": 18.257, "note_off_time": 18.487}, {"pitch": 60, "velocity": 79, "note_on_time": 21.085, "note_off_time": 21.286}, {"pitch": 60, "velocity": 74, "note_on_time": 21.804, "note_off_time": 21.988}, {"pitch": 60, "velocity": 80, "note_on_time": 22.471, "note_off_time": 22.661}]</notes><guidance name="Guidance Mode">None</guidance><error name="Error value">0.23284150000000053</error></trial></trials></MIDI>