<MIDI midiNo="2022_12_08-12_19_02"><target_notes><notes name="Note List">[{"pitch": 42, "velocity": 80, "note_on_time": 0.003, "note_off_time": 0.611}, {"pitch": 42, "velocity": 80, "note_on_time": 0.611, "note_off_time": 1.218}, {"pitch": 42, "velocity": 80, "note_on_time": 1.218, "note_off_time": 1.825}, {"pitch": 42, "velocity": 80, "note_on_time": 1.825, "note_off_time": 2.433}, {"pitch": 60, "velocity": 80, "note_on_time": 2.433, "note_off_time": 3.042}, {"pitch": 42, "velocity": 80, "note_on_time": 2.434, "note_off_time": 3.043}, {"pitch": 62, "velocity": 80, "note_on_time": 3.042, "note_off_time": 3.652}, {"pitch": 42, "velocity": 80, "note_on_time": 3.043, "note_off_time": 3.652}, {"pitch": 42, "velocity": 80, "note_on_time": 3.652, "note_off_time": 4.261}, {"pitch": 62, "velocity": 80, "note_on_time": 3.652, "note_off_time": 4.866}, {"pitch": 42, "velocity": 80, "note_on_time": 4.261, "note_off_time": 4.866}, {"pitch": 62, "velocity": 80, "note_on_time": 4.866, "note_off_time": 5.474}, {"pitch": 42, "velocity": 80, "note_on_time": 4.867, "note_off_time": 5.474}, {"pitch": 62, "velocity": 80, "note_on_time": 5.474, "note_off_time": 6.082}, {"pitch": 42, "velocity": 80, "note_on_time": 5.475, "note_off_time": 6.083}, {"pitch": 42, "velocity": 80, "note_on_time": 6.083, "note_off_time": 6.688}, {"pitch": 62, "velocity": 80, "note_on_time": 6.082, "note_off_time": 7.296}, {"pitch": 42, "velocity": 80, "note_on_time": 6.688, "note_off_time": 7.297}, {"pitch": 42, "velocity": 80, "note_on_time": 7.297, "note_off_time": 7.906}, {"pitch": 60, "velocity": 80, "note_on_time": 7.296, "note_off_time": 8.512}, {"pitch": 42, "velocity": 80, "note_on_time": 7.906, "note_off_time": 8.512}, {"pitch": 42, "velocity": 80, "note_on_time": 8.513, "note_off_time": 9.122}, {"pitch": 42, "velocity": 80, "note_on_time": 9.122, "note_off_time": 9.729}, {"pitch": 62, "velocity": 80, "note_on_time": 9.729, "note_off_time": 10.337}, {"pitch": 42, "velocity": 80, "note_on_time": 9.729, "note_off_time": 10.337}, {"pitch": 42, "velocity": 80, "note_on_time": 10.338, "note_off_time": 10.948}, {"pitch": 42, "velocity": 80, "note_on_time": 10.948, "note_off_time": 11.555}, {"pitch": 42, "velocity": 80, "note_on_time": 11.556, "note_off_time": 12.166}, {"pitch": 60, "velocity": 80, "note_on_time": 12.166, "note_off_time": 12.774}, {"pitch": 42, "velocity": 80, "note_on_time": 12.166, "note_off_time": 12.774}, {"pitch": 42, "velocity": 80, "note_on_time": 12.775, "note_off_time": 13.382}, {"pitch": 42, "velocity": 80, "note_on_time": 13.382, "note_off_time": 13.992}, {"pitch": 60, "velocity": 80, "note_on_time": 13.992, "note_off_time": 14.6}, {"pitch": 42, "velocity": 80, "note_on_time": 13.992, "note_off_time": 14.6}, {"pitch": 60, "velocity": 80, "note_on_time": 14.6, "note_off_time": 15.208}, {"pitch": 42, "velocity": 80, "note_on_time": 14.601, "note_off_time": 15.209}, {"pitch": 60, "velocity": 80, "note_on_time": 15.208, "note_off_time": 15.818}, {"pitch": 42, "velocity": 80, "note_on_time": 15.209, "note_off_time": 15.818}, {"pitch": 62, "velocity": 80, "note_on_time": 15.818, "note_off_time": 16.425}, {"pitch": 42, "velocity": 80, "note_on_time": 15.818, "note_off_time": 16.426}, {"pitch": 62, "velocity": 80, "note_on_time": 16.425, "note_off_time": 17.035}, {"pitch": 42, "velocity": 80, "note_on_time": 16.426, "note_off_time": 17.035}, {"pitch": 62, "velocity": 80, "note_on_time": 17.035, "note_off_time": 17.642}, {"pitch": 42, "velocity": 80, "note_on_time": 17.036, "note_off_time": 17.642}, {"pitch": 62, "velocity": 80, "note_on_time": 17.642, "note_off_time": 18.25}, {"pitch": 42, "velocity": 80, "note_on_time": 17.642, "note_off_time": 18.25}, {"pitch": 62, "velocity": 80, "note_on_time": 18.25, "note_off_time": 18.857}, {"pitch": 42, "velocity": 80, "note_on_time": 18.25, "note_off_time": 18.857}, {"pitch": 42, "velocity": 80, "note_on_time": 18.857, "note_off_time": 19.466}, {"pitch": 42, "velocity": 80, "note_on_time": 19.467, "note_off_time": 20.077}, {"pitch": 62, "velocity": 80, "note_on_time": 20.076, "note_off_time": 20.687}, {"pitch": 42, "velocity": 80, "note_on_time": 20.077, "note_off_time": 20.687}, {"pitch": 62, "velocity": 80, "note_on_time": 20.687, "note_off_time": 21.299}, {"pitch": 42, "velocity": 80, "note_on_time": 20.687, "note_off_time": 21.299}, {"pitch": 62, "velocity": 80, "note_on_time": 21.299, "note_off_time": 21.906}, {"pitch": 42, "velocity": 80, "note_on_time": 21.299, "note_off_time": 21.906}]</notes><options name="Option List">((4, 4), [0.25], 3, 8, &lt;NoteRangePerHand.TWO_NOTES: 3&gt;, &lt;NoteRangePerHand.ONE_NOTE: 2&gt;, False, True, False, '100')</options></target_notes><trials><trial trial_no="1" timestamp="2022_12_08-12_18_38"><notes name="Played Notes">[{"pitch": 60, "velocity": 14, "note_on_time": 2.489, "note_off_time": 3.068}, {"pitch": 62, "velocity": 40, "note_on_time": 3.097, "note_off_time": 3.505}, {"pitch": 62, "velocity": 45, "note_on_time": 3.694, "note_off_time": 4.638}, {"pitch": 62, "velocity": 59, "note_on_time": 4.869, "note_off_time": 5.233}, {"pitch": 62, "velocity": 58, "note_on_time": 5.46, "note_off_time": 5.922}, {"pitch": 62, "velocity": 48, "note_on_time": 6.092, "note_off_time": 7.114}, {"pitch": 60, "velocity": 44, "note_on_time": 7.299, "note_off_time": 8.297}, {"pitch": 62, "velocity": 44, "note_on_time": 9.706, "note_off_time": 10.291}, {"pitch": 60, "velocity": 44, "note_on_time": 12.157, "note_off_time": 12.7}, {"pitch": 60, "velocity": 24, "note_on_time": 14.028, "note_off_time": 14.398}, {"pitch": 60, "velocity": 53, "note_on_time": 14.625, "note_off_time": 15.021}, {"pitch": 60, "velocity": 57, "note_on_time": 15.227, "note_off_time": 15.636}, {"pitch": 62, "velocity": 60, "note_on_time": 15.84, "note_off_time": 16.199}, {"pitch": 62, "velocity": 60, "note_on_time": 16.442, "note_off_time": 16.772}, {"pitch": 62, "velocity": 59, "note_on_time": 17.054, "note_off_time": 17.405}, {"pitch": 62, "velocity": 50, "note_on_time": 17.635, "note_off_time": 18.006}, {"pitch": 62, "velocity": 54, "note_on_time": 18.265, "note_off_time": 18.802}, {"pitch": 62, "velocity": 53, "note_on_time": 20.036, "note_off_time": 20.396}, {"pitch": 62, "velocity": 58, "note_on_time": 20.665, "note_off_time": 21.115}, {"pitch": 62, "velocity": 58, "note_on_time": 21.314, "note_off_time": 21.725}]</notes><guidance name="Guidance Mode">None</guidance><error name="Error value">0.02358823529411719</error></trial></trials></MIDI>