<MIDI midiNo="2022_12_22-12_50_12"><target_notes><notes name="Note List">[{"pitch": 42, "velocity": 80, "note_on_time": 0.005, "note_off_time": 0.256}, {"pitch": 42, "velocity": 80, "note_on_time": 0.256, "note_off_time": 0.504}, {"pitch": 42, "velocity": 80, "note_on_time": 0.505, "note_off_time": 0.751}, {"pitch": 42, "velocity": 80, "note_on_time": 0.751, "note_off_time": 1.001}, {"pitch": 67, "velocity": 80, "note_on_time": 1.0, "note_off_time": 1.249}, {"pitch": 42, "velocity": 80, "note_on_time": 1.001, "note_off_time": 1.249}, {"pitch": 67, "velocity": 80, "note_on_time": 1.249, "note_off_time": 1.498}, {"pitch": 42, "velocity": 80, "note_on_time": 1.249, "note_off_time": 1.498}, {"pitch": 42, "velocity": 80, "note_on_time": 1.498, "note_off_time": 1.745}, {"pitch": 67, "velocity": 80, "note_on_time": 1.498, "note_off_time": 1.993}, {"pitch": 42, "velocity": 80, "note_on_time": 1.745, "note_off_time": 1.993}, {"pitch": 65, "velocity": 80, "note_on_time": 1.993, "note_off_time": 2.242}, {"pitch": 42, "velocity": 80, "note_on_time": 1.994, "note_off_time": 2.242}, {"pitch": 67, "velocity": 80, "note_on_time": 2.242, "note_off_time": 2.489}, {"pitch": 42, "velocity": 80, "note_on_time": 2.242, "note_off_time": 2.489}, {"pitch": 60, "velocity": 80, "note_on_time": 2.489, "note_off_time": 2.738}, {"pitch": 42, "velocity": 80, "note_on_time": 2.49, "note_off_time": 2.738}, {"pitch": 62, "velocity": 80, "note_on_time": 2.738, "note_off_time": 2.987}, {"pitch": 42, "velocity": 80, "note_on_time": 2.739, "note_off_time": 2.987}, {"pitch": 65, "velocity": 80, "note_on_time": 2.987, "note_off_time": 3.236}, {"pitch": 42, "velocity": 80, "note_on_time": 2.988, "note_off_time": 3.236}, {"pitch": 65, "velocity": 80, "note_on_time": 3.236, "note_off_time": 3.485}, {"pitch": 42, "velocity": 80, "note_on_time": 3.236, "note_off_time": 3.485}, {"pitch": 67, "velocity": 80, "note_on_time": 3.485, "note_off_time": 3.736}, {"pitch": 42, "velocity": 80, "note_on_time": 3.486, "note_off_time": 3.736}, {"pitch": 65, "velocity": 80, "note_on_time": 3.736, "note_off_time": 3.985}, {"pitch": 42, "velocity": 80, "note_on_time": 3.736, "note_off_time": 3.985}, {"pitch": 62, "velocity": 80, "note_on_time": 3.985, "note_off_time": 4.232}, {"pitch": 42, "velocity": 80, "note_on_time": 3.985, "note_off_time": 4.233}, {"pitch": 42, "velocity": 80, "note_on_time": 4.233, "note_off_time": 4.48}, {"pitch": 65, "velocity": 80, "note_on_time": 4.232, "note_off_time": 4.731}, {"pitch": 42, "velocity": 80, "note_on_time": 4.481, "note_off_time": 4.731}, {"pitch": 42, "velocity": 80, "note_on_time": 4.731, "note_off_time": 4.978}, {"pitch": 42, "velocity": 80, "note_on_time": 4.978, "note_off_time": 5.228}, {"pitch": 65, "velocity": 80, "note_on_time": 4.978, "note_off_time": 5.476}, {"pitch": 42, "velocity": 80, "note_on_time": 5.228, "note_off_time": 5.476}, {"pitch": 67, "velocity": 80, "note_on_time": 5.476, "note_off_time": 5.725}, {"pitch": 42, "velocity": 80, "note_on_time": 5.477, "note_off_time": 5.726}, {"pitch": 60, "velocity": 80, "note_on_time": 5.725, "note_off_time": 5.976}, {"pitch": 42, "velocity": 80, "note_on_time": 5.726, "note_off_time": 5.977}, {"pitch": 62, "velocity": 80, "note_on_time": 5.976, "note_off_time": 6.225}, {"pitch": 42, "velocity": 80, "note_on_time": 5.977, "note_off_time": 6.225}, {"pitch": 42, "velocity": 80, "note_on_time": 6.225, "note_off_time": 6.475}, {"pitch": 42, "velocity": 80, "note_on_time": 6.475, "note_off_time": 6.723}, {"pitch": 42, "velocity": 80, "note_on_time": 6.723, "note_off_time": 6.971}, {"pitch": 42, "velocity": 80, "note_on_time": 6.972, "note_off_time": 7.222}, {"pitch": 62, "velocity": 80, "note_on_time": 6.971, "note_off_time": 7.469}, {"pitch": 42, "velocity": 80, "note_on_time": 7.222, "note_off_time": 7.47}, {"pitch": 42, "velocity": 80, "note_on_time": 7.47, "note_off_time": 7.718}, {"pitch": 42, "velocity": 80, "note_on_time": 7.718, "note_off_time": 7.969}, {"pitch": 42, "velocity": 80, "note_on_time": 7.97, "note_off_time": 8.217}, {"pitch": 62, "velocity": 80, "note_on_time": 8.217, "note_off_time": 8.465}, {"pitch": 42, "velocity": 80, "note_on_time": 8.217, "note_off_time": 8.465}, {"pitch": 62, "velocity": 80, "note_on_time": 8.465, "note_off_time": 8.713}, {"pitch": 42, "velocity": 80, "note_on_time": 8.466, "note_off_time": 8.714}, {"pitch": 62, "velocity": 80, "note_on_time": 8.713, "note_off_time": 8.963}, {"pitch": 42, "velocity": 80, "note_on_time": 8.714, "note_off_time": 8.964}]</notes><options name="Option List">((4, 4), [0.5, 0.25], 3, 8, &lt;NoteRangePerHand.C_TO_G: 6&gt;, &lt;NoteRangePerHand.ONE_NOTE: 2&gt;, False, True, False, 248)</options></target_notes><trials><trial trial_no="1" timestamp="2022_12_22-12_50_02"><notes name="Played Notes">[{"pitch": 67, "velocity": 49, "note_on_time": 1.01, "note_off_time": 1.217}, {"pitch": 67, "velocity": 69, "note_on_time": 1.305, "note_off_time": 1.396}, {"pitch": 67, "velocity": 62, "note_on_time": 1.509, "note_off_time": 1.868}, {"pitch": 65, "velocity": 70, "note_on_time": 2.004, "note_off_time": 2.229}, {"pitch": 67, "velocity": 69, "note_on_time": 2.253, "note_off_time": 2.457}, {"pitch": 60, "velocity": 71, "note_on_time": 2.498, "note_off_time": 2.73}, {"pitch": 62, "velocity": 66, "note_on_time": 2.747, "note_off_time": 2.966}, {"pitch": 65, "velocity": 73, "note_on_time": 2.998, "note_off_time": 3.109}, {"pitch": 65, "velocity": 61, "note_on_time": 3.22, "note_off_time": 3.467}, {"pitch": 67, "velocity": 60, "note_on_time": 3.487, "note_off_time": 3.72}, {"pitch": 65, "velocity": 66, "note_on_time": 3.733, "note_off_time": 3.998}, {"pitch": 62, "velocity": 58, "note_on_time": 4.014, "note_off_time": 4.224}, {"pitch": 65, "velocity": 73, "note_on_time": 4.252, "note_off_time": 4.667}, {"pitch": 65, "velocity": 79, "note_on_time": 5.008, "note_off_time": 5.363}, {"pitch": 67, "velocity": 60, "note_on_time": 5.493, "note_off_time": 5.716}, {"pitch": 60, "velocity": 67, "note_on_time": 5.756, "note_off_time": 5.855}, {"pitch": 62, "velocity": 72, "note_on_time": 6.006, "note_off_time": 6.296}, {"pitch": 62, "velocity": 73, "note_on_time": 6.522, "note_off_time": 6.953}, {"pitch": 62, "velocity": 61, "note_on_time": 7.867, "note_off_time": 7.995}, {"pitch": 62, "velocity": 68, "note_on_time": 8.086, "note_off_time": 8.191}, {"pitch": 62, "velocity": 79, "note_on_time": 8.277, "note_off_time": 8.382}]</notes><guidance name="Guidance Mode">None</guidance><error name="Error value">0.05232472222222248</error></trial><trial trial_no="2" timestamp="2022_12_22-12_50_34"><notes name="Played Notes">[{"pitch": 67, "velocity": 63, "note_on_time": 0.986, "note_off_time": 1.09}, {"pitch": 67, "velocity": 58, "note_on_time": 1.255, "note_off_time": 1.343}, {"pitch": 67, "velocity": 78, "note_on_time": 1.506, "note_off_time": 1.888}, {"pitch": 65, "velocity": 72, "note_on_time": 2.033, "note_off_time": 2.252}, {"pitch": 67, "velocity": 68, "note_on_time": 2.259, "note_off_time": 2.465}, {"pitch": 60, "velocity": 69, "note_on_time": 2.48, "note_off_time": 2.738}, {"pitch": 62, "velocity": 63, "note_on_time": 2.745, "note_off_time": 2.938}, {"pitch": 65, "velocity": 59, "note_on_time": 2.965, "note_off_time": 3.085}, {"pitch": 65, "velocity": 56, "note_on_time": 3.208, "note_off_time": 3.441}, {"pitch": 67, "velocity": 64, "note_on_time": 3.459, "note_off_time": 3.705}, {"pitch": 65, "velocity": 82, "note_on_time": 3.69, "note_off_time": 3.951}, {"pitch": 62, "velocity": 67, "note_on_time": 3.964, "note_off_time": 4.19}, {"pitch": 65, "velocity": 72, "note_on_time": 4.201, "note_off_time": 4.643}, {"pitch": 65, "velocity": 77, "note_on_time": 5.021, "note_off_time": 5.433}, {"pitch": 67, "velocity": 72, "note_on_time": 5.448, "note_off_time": 5.69}, {"pitch": 60, "velocity": 76, "note_on_time": 5.711, "note_off_time": 5.958}, {"pitch": 62, "velocity": 68, "note_on_time": 5.969, "note_off_time": 6.185}, {"pitch": 62, "velocity": 80, "note_on_time": 6.672, "note_off_time": 7.306}, {"pitch": 62, "velocity": 73, "note_on_time": 8.131, "note_off_time": 8.246}, {"pitch": 62, "velocity": 52, "note_on_time": 8.358, "note_off_time": 8.481}, {"pitch": 62, "velocity": 75, "note_on_time": 8.649, "note_off_time": 8.848}]</notes><guidance name="Guidance Mode">None</guidance><error name="Error value">0.054747500000000074</error></trial><trial trial_no="3" timestamp="2022_12_22-12_50_52"><notes name="Played Notes">[{"pitch": 67, "velocity": 68, "note_on_time": 1.013, "note_off_time": 1.112}, {"pitch": 67, "velocity": 63, "note_on_time": 1.252, "note_off_time": 1.346}, {"pitch": 67, "velocity": 82, "note_on_time": 1.508, "note_off_time": 1.89}, {"pitch": 65, "velocity": 66, "note_on_time": 2.002, "note_off_time": 2.24}, {"pitch": 67, "velocity": 72, "note_on_time": 2.242, "note_off_time": 2.472}, {"pitch": 60, "velocity": 68, "note_on_time": 2.478, "note_off_time": 2.743}, {"pitch": 62, "velocity": 70, "note_on_time": 2.75, "note_off_time": 2.95}, {"pitch": 65, "velocity": 62, "note_on_time": 2.976, "note_off_time": 3.098}, {"pitch": 65, "velocity": 66, "note_on_time": 3.224, "note_off_time": 3.464}, {"pitch": 67, "velocity": 69, "note_on_time": 3.473, "note_off_time": 3.701}, {"pitch": 65, "velocity": 66, "note_on_time": 3.699, "note_off_time": 3.937}, {"pitch": 62, "velocity": 64, "note_on_time": 3.967, "note_off_time": 4.192}, {"pitch": 65, "velocity": 75, "note_on_time": 4.204, "note_off_time": 4.651}, {"pitch": 65, "velocity": 76, "note_on_time": 4.984, "note_off_time": 5.429}, {"pitch": 67, "velocity": 61, "note_on_time": 5.438, "note_off_time": 5.692}, {"pitch": 60, "velocity": 68, "note_on_time": 5.717, "note_off_time": 5.978}, {"pitch": 62, "velocity": 69, "note_on_time": 5.99, "note_off_time": 6.262}, {"pitch": 62, "velocity": 75, "note_on_time": 6.987, "note_off_time": 7.459}, {"pitch": 62, "velocity": 75, "note_on_time": 8.219, "note_off_time": 8.331}, {"pitch": 62, "velocity": 47, "note_on_time": 8.454, "note_off_time": 8.569}, {"pitch": 62, "velocity": 72, "note_on_time": 8.715, "note_off_time": 8.877}]</notes><guidance name="Guidance Mode">None</guidance><error name="Error value">0.020602499999999944</error></trial></trials></MIDI>