<MIDI midiNo="2022_11_13-13_08_31"><target_notes><notes name="Note List">[{"pitch": 42, "velocity": 80, "note_on_time": 0.004, "note_off_time": 0.23}, {"pitch": 42, "velocity": 80, "note_on_time": 0.231, "note_off_time": 0.448}, {"pitch": 42, "velocity": 80, "note_on_time": 0.448, "note_off_time": 0.665}, {"pitch": 42, "velocity": 80, "note_on_time": 0.665, "note_off_time": 0.883}, {"pitch": 62, "velocity": 80, "note_on_time": 0.883, "note_off_time": 1.103}, {"pitch": 42, "velocity": 80, "note_on_time": 0.883, "note_off_time": 1.103}, {"pitch": 65, "velocity": 80, "note_on_time": 1.103, "note_off_time": 1.322}, {"pitch": 42, "velocity": 80, "note_on_time": 1.103, "note_off_time": 1.322}, {"pitch": 65, "velocity": 80, "note_on_time": 1.322, "note_off_time": 1.538}, {"pitch": 42, "velocity": 80, "note_on_time": 1.322, "note_off_time": 1.538}, {"pitch": 60, "velocity": 80, "note_on_time": 1.538, "note_off_time": 1.757}, {"pitch": 42, "velocity": 80, "note_on_time": 1.538, "note_off_time": 1.757}, {"pitch": 64, "velocity": 80, "note_on_time": 1.757, "note_off_time": 1.975}, {"pitch": 42, "velocity": 80, "note_on_time": 1.757, "note_off_time": 1.975}, {"pitch": 62, "velocity": 80, "note_on_time": 1.975, "note_off_time": 2.195}, {"pitch": 42, "velocity": 80, "note_on_time": 1.976, "note_off_time": 2.195}, {"pitch": 65, "velocity": 80, "note_on_time": 2.195, "note_off_time": 2.417}, {"pitch": 42, "velocity": 80, "note_on_time": 2.196, "note_off_time": 2.417}, {"pitch": 67, "velocity": 80, "note_on_time": 2.417, "note_off_time": 2.636}, {"pitch": 42, "velocity": 80, "note_on_time": 2.418, "note_off_time": 2.636}, {"pitch": 42, "velocity": 80, "note_on_time": 2.636, "note_off_time": 2.854}, {"pitch": 60, "velocity": 80, "note_on_time": 2.636, "note_off_time": 3.073}, {"pitch": 42, "velocity": 80, "note_on_time": 2.854, "note_off_time": 3.073}, {"pitch": 42, "velocity": 80, "note_on_time": 3.073, "note_off_time": 3.291}, {"pitch": 42, "velocity": 80, "note_on_time": 3.291, "note_off_time": 3.509}, {"pitch": 62, "velocity": 80, "note_on_time": 3.509, "note_off_time": 3.729}, {"pitch": 42, "velocity": 80, "note_on_time": 3.509, "note_off_time": 3.729}, {"pitch": 42, "velocity": 80, "note_on_time": 3.729, "note_off_time": 3.949}, {"pitch": 42, "velocity": 80, "note_on_time": 3.949, "note_off_time": 4.167}, {"pitch": 42, "velocity": 80, "note_on_time": 4.167, "note_off_time": 4.385}, {"pitch": 64, "velocity": 80, "note_on_time": 4.385, "note_off_time": 4.604}, {"pitch": 42, "velocity": 80, "note_on_time": 4.385, "note_off_time": 4.604}, {"pitch": 67, "velocity": 80, "note_on_time": 4.604, "note_off_time": 4.823}, {"pitch": 42, "velocity": 80, "note_on_time": 4.604, "note_off_time": 4.823}, {"pitch": 42, "velocity": 80, "note_on_time": 4.823, "note_off_time": 5.041}, {"pitch": 65, "velocity": 80, "note_on_time": 4.823, "note_off_time": 5.261}, {"pitch": 42, "velocity": 80, "note_on_time": 5.041, "note_off_time": 5.261}, {"pitch": 42, "velocity": 80, "note_on_time": 5.261, "note_off_time": 5.478}, {"pitch": 65, "velocity": 80, "note_on_time": 5.261, "note_off_time": 5.695}, {"pitch": 42, "velocity": 80, "note_on_time": 5.478, "note_off_time": 5.695}, {"pitch": 42, "velocity": 80, "note_on_time": 5.696, "note_off_time": 5.913}, {"pitch": 62, "velocity": 80, "note_on_time": 5.913, "note_off_time": 6.131}, {"pitch": 42, "velocity": 80, "note_on_time": 5.914, "note_off_time": 6.131}, {"pitch": 67, "velocity": 80, "note_on_time": 6.131, "note_off_time": 6.35}, {"pitch": 42, "velocity": 80, "note_on_time": 6.131, "note_off_time": 6.35}, {"pitch": 64, "velocity": 80, "note_on_time": 6.35, "note_off_time": 6.57}, {"pitch": 42, "velocity": 80, "note_on_time": 6.35, "note_off_time": 6.57}, {"pitch": 60, "velocity": 80, "note_on_time": 6.57, "note_off_time": 6.786}, {"pitch": 42, "velocity": 80, "note_on_time": 6.57, "note_off_time": 6.786}, {"pitch": 64, "velocity": 80, "note_on_time": 6.786, "note_off_time": 7.007}, {"pitch": 42, "velocity": 80, "note_on_time": 6.786, "note_off_time": 7.007}, {"pitch": 42, "velocity": 80, "note_on_time": 7.007, "note_off_time": 7.224}, {"pitch": 64, "velocity": 80, "note_on_time": 7.224, "note_off_time": 7.443}, {"pitch": 42, "velocity": 80, "note_on_time": 7.224, "note_off_time": 7.443}, {"pitch": 64, "velocity": 80, "note_on_time": 7.443, "note_off_time": 7.661}, {"pitch": 42, "velocity": 80, "note_on_time": 7.443, "note_off_time": 7.661}, {"pitch": 64, "velocity": 80, "note_on_time": 7.661, "note_off_time": 7.88}, {"pitch": 42, "velocity": 80, "note_on_time": 7.661, "note_off_time": 7.88}]</notes><options name="Option List">((4, 4), [0.5, 0.25], 3, 8, &lt;NoteRangePerHand.C_TO_G: 6&gt;, &lt;NoteRangePerHand.ONE_NOTE: 2&gt;, False, True, False, 281)</options></target_notes><trials><trial trial_no="1" timestamp="2022_11_13-13_08_21"><notes name="Played Notes">[{"pitch": 62, "velocity": 73, "note_on_time": 0.913, "note_off_time": 1.081}, {"pitch": 65, "velocity": 77, "note_on_time": 1.12, "note_off_time": 1.247}, {"pitch": 65, "velocity": 73, "note_on_time": 1.35, "note_off_time": 1.492}, {"pitch": 60, "velocity": 82, "note_on_time": 1.57, "note_off_time": 1.689}, {"pitch": 64, "velocity": 75, "note_on_time": 1.806, "note_off_time": 1.975}, {"pitch": 62, "velocity": 83, "note_on_time": 2.014, "note_off_time": 2.114}, {"pitch": 65, "velocity": 79, "note_on_time": 2.249, "note_off_time": 2.356}, {"pitch": 67, "velocity": 88, "note_on_time": 2.463, "note_off_time": 2.557}, {"pitch": 60, "velocity": 98, "note_on_time": 2.692, "note_off_time": 2.947}, {"pitch": 62, "velocity": 91, "note_on_time": 3.523, "note_off_time": 3.776}, {"pitch": 64, "velocity": 90, "note_on_time": 4.285, "note_off_time": 4.525}, {"pitch": 67, "velocity": 68, "note_on_time": 4.52, "note_off_time": 4.686}, {"pitch": 64, "velocity": 88, "note_on_time": 4.773, "note_off_time": 5.02}, {"pitch": 65, "velocity": 85, "note_on_time": 4.77, "note_off_time": 5.07}, {"pitch": 65, "velocity": 101, "note_on_time": 5.22, "note_off_time": 5.45}, {"pitch": 62, "velocity": 91, "note_on_time": 5.714, "note_off_time": 5.899}, {"pitch": 67, "velocity": 87, "note_on_time": 6.172, "note_off_time": 6.427}, {"pitch": 64, "velocity": 79, "note_on_time": 6.383, "note_off_time": 6.6}, {"pitch": 60, "velocity": 86, "note_on_time": 6.61, "note_off_time": 6.782}, {"pitch": 64, "velocity": 86, "note_on_time": 6.84, "note_off_time": 6.957}, {"pitch": 64, "velocity": 91, "note_on_time": 7.214, "note_off_time": 7.304}, {"pitch": 64, "velocity": 84, "note_on_time": 7.44, "note_off_time": 7.513}, {"pitch": 64, "velocity": 94, "note_on_time": 7.661, "note_off_time": 7.773}]</notes><guidance name="Guidance Mode">None</guidance><error name="Error value">0.34108015789473656</error></trial><trial trial_no="2" timestamp="2022_11_13-13_08_39"><notes name="Played Notes">[{"pitch": 62, "velocity": 82, "note_on_time": 0.861, "note_off_time": 1.021}, {"pitch": 65, "velocity": 73, "note_on_time": 1.09, "note_off_time": 1.215}, {"pitch": 65, "velocity": 82, "note_on_time": 1.308, "note_off_time": 1.432}, {"pitch": 60, "velocity": 86, "note_on_time": 1.536, "note_off_time": 1.567}, {"pitch": 64, "velocity": 79, "note_on_time": 1.768, "note_off_time": 1.895}, {"pitch": 62, "velocity": 82, "note_on_time": 2.003, "note_off_time": 2.083}, {"pitch": 65, "velocity": 90, "note_on_time": 2.231, "note_off_time": 2.334}, {"pitch": 67, "velocity": 87, "note_on_time": 2.448, "note_off_time": 2.54}, {"pitch": 60, "velocity": 100, "note_on_time": 2.684, "note_off_time": 2.917}, {"pitch": 62, "velocity": 89, "note_on_time": 3.555, "note_off_time": 3.756}, {"pitch": 64, "velocity": 81, "note_on_time": 4.398, "note_off_time": 4.542}, {"pitch": 67, "velocity": 80, "note_on_time": 4.617, "note_off_time": 4.713}, {"pitch": 67, "velocity": 84, "note_on_time": 4.841, "note_off_time": 4.918}, {"pitch": 65, "velocity": 86, "note_on_time": 5.057, "note_off_time": 5.14}, {"pitch": 64, "velocity": 73, "note_on_time": 5.293, "note_off_time": 5.375}, {"pitch": 65, "velocity": 91, "note_on_time": 5.509, "note_off_time": 5.646}, {"pitch": 62, "velocity": 98, "note_on_time": 5.875, "note_off_time": 6.026}, {"pitch": 67, "velocity": 77, "note_on_time": 6.367, "note_off_time": 6.615}, {"pitch": 64, "velocity": 74, "note_on_time": 6.574, "note_off_time": 6.747}, {"pitch": 60, "velocity": 82, "note_on_time": 6.782, "note_off_time": 6.909}, {"pitch": 64, "velocity": 83, "note_on_time": 7.012, "note_off_time": 7.135}, {"pitch": 64, "velocity": 88, "note_on_time": 7.395, "note_off_time": 7.482}, {"pitch": 64, "velocity": 76, "note_on_time": 7.617, "note_off_time": 7.696}]</notes><guidance name="Guidance Mode">None</guidance><error name="Error value">0.5260704736842094</error></trial><trial trial_no="3" timestamp="2022_11_13-13_08_57"><notes name="Played Notes">[{"pitch": 62, "velocity": 73, "note_on_time": 0.877, "note_off_time": 1.119}, {"pitch": 65, "velocity": 73, "note_on_time": 1.089, "note_off_time": 1.223}, {"pitch": 65, "velocity": 76, "note_on_time": 1.318, "note_off_time": 1.453}, {"pitch": 60, "velocity": 89, "note_on_time": 1.535, "note_off_time": 1.656}, {"pitch": 64, "velocity": 74, "note_on_time": 1.77, "note_off_time": 1.887}, {"pitch": 62, "velocity": 82, "note_on_time": 1.961, "note_off_time": 2.067}, {"pitch": 65, "velocity": 87, "note_on_time": 2.196, "note_off_time": 2.3}, {"pitch": 67, "velocity": 85, "note_on_time": 2.411, "note_off_time": 2.507}, {"pitch": 60, "velocity": 92, "note_on_time": 2.641, "note_off_time": 2.885}, {"pitch": 62, "velocity": 87, "note_on_time": 3.526, "note_off_time": 3.734}, {"pitch": 64, "velocity": 85, "note_on_time": 4.341, "note_off_time": 4.479}, {"pitch": 67, "velocity": 85, "note_on_time": 4.56, "note_off_time": 4.674}, {"pitch": 65, "velocity": 93, "note_on_time": 4.794, "note_off_time": 5.071}, {"pitch": 65, "velocity": 97, "note_on_time": 5.229, "note_off_time": 5.443}, {"pitch": 62, "velocity": 89, "note_on_time": 5.846, "note_off_time": 5.969}, {"pitch": 67, "velocity": 83, "note_on_time": 6.083, "note_off_time": 6.211}, {"pitch": 64, "velocity": 80, "note_on_time": 6.31, "note_off_time": 6.406}, {"pitch": 60, "velocity": 76, "note_on_time": 6.533, "note_off_time": 6.628}, {"pitch": 64, "velocity": 86, "note_on_time": 6.765, "note_off_time": 6.903}, {"pitch": 64, "velocity": 95, "note_on_time": 7.183, "note_off_time": 7.277}, {"pitch": 64, "velocity": 91, "note_on_time": 7.415, "note_off_time": 7.483}, {"pitch": 64, "velocity": 91, "note_on_time": 7.639, "note_off_time": 7.717}]</notes><guidance name="Guidance Mode">None</guidance><error name="Error value">0.017594368421052543</error></trial></trials></MIDI>