<MIDI midiNo="2022_11_13-13_11_31"><target_notes><notes name="Note List">[{"pitch": 42, "velocity": 80, "note_on_time": 0.004, "note_off_time": 0.227}, {"pitch": 42, "velocity": 80, "note_on_time": 0.227, "note_off_time": 0.445}, {"pitch": 42, "velocity": 80, "note_on_time": 0.445, "note_off_time": 0.662}, {"pitch": 42, "velocity": 80, "note_on_time": 0.662, "note_off_time": 0.879}, {"pitch": 42, "velocity": 80, "note_on_time": 0.879, "note_off_time": 1.098}, {"pitch": 62, "velocity": 80, "note_on_time": 0.879, "note_off_time": 1.316}, {"pitch": 42, "velocity": 80, "note_on_time": 1.098, "note_off_time": 1.316}, {"pitch": 42, "velocity": 80, "note_on_time": 1.316, "note_off_time": 1.534}, {"pitch": 60, "velocity": 80, "note_on_time": 1.316, "note_off_time": 1.755}, {"pitch": 42, "velocity": 80, "note_on_time": 1.534, "note_off_time": 1.755}, {"pitch": 65, "velocity": 80, "note_on_time": 1.755, "note_off_time": 1.973}, {"pitch": 42, "velocity": 80, "note_on_time": 1.755, "note_off_time": 1.973}, {"pitch": 65, "velocity": 80, "note_on_time": 1.973, "note_off_time": 2.192}, {"pitch": 42, "velocity": 80, "note_on_time": 1.973, "note_off_time": 2.192}, {"pitch": 65, "velocity": 80, "note_on_time": 2.192, "note_off_time": 2.411}, {"pitch": 42, "velocity": 80, "note_on_time": 2.192, "note_off_time": 2.411}, {"pitch": 67, "velocity": 80, "note_on_time": 2.411, "note_off_time": 2.63}, {"pitch": 42, "velocity": 80, "note_on_time": 2.411, "note_off_time": 2.63}, {"pitch": 62, "velocity": 80, "note_on_time": 2.63, "note_off_time": 2.848}, {"pitch": 42, "velocity": 80, "note_on_time": 2.63, "note_off_time": 2.848}, {"pitch": 42, "velocity": 80, "note_on_time": 2.848, "note_off_time": 3.065}, {"pitch": 62, "velocity": 80, "note_on_time": 2.848, "note_off_time": 3.283}, {"pitch": 42, "velocity": 80, "note_on_time": 3.065, "note_off_time": 3.283}, {"pitch": 42, "velocity": 80, "note_on_time": 3.283, "note_off_time": 3.501}, {"pitch": 64, "velocity": 80, "note_on_time": 3.501, "note_off_time": 3.72}, {"pitch": 42, "velocity": 80, "note_on_time": 3.501, "note_off_time": 3.72}, {"pitch": 64, "velocity": 80, "note_on_time": 3.72, "note_off_time": 3.937}, {"pitch": 42, "velocity": 80, "note_on_time": 3.72, "note_off_time": 3.937}, {"pitch": 62, "velocity": 80, "note_on_time": 3.937, "note_off_time": 4.155}, {"pitch": 42, "velocity": 80, "note_on_time": 3.937, "note_off_time": 4.156}, {"pitch": 62, "velocity": 80, "note_on_time": 4.155, "note_off_time": 4.371}, {"pitch": 42, "velocity": 80, "note_on_time": 4.156, "note_off_time": 4.371}, {"pitch": 42, "velocity": 80, "note_on_time": 4.371, "note_off_time": 4.589}, {"pitch": 67, "velocity": 80, "note_on_time": 4.371, "note_off_time": 4.807}, {"pitch": 42, "velocity": 80, "note_on_time": 4.59, "note_off_time": 4.807}, {"pitch": 67, "velocity": 80, "note_on_time": 4.807, "note_off_time": 5.026}, {"pitch": 42, "velocity": 80, "note_on_time": 4.807, "note_off_time": 5.026}, {"pitch": 42, "velocity": 80, "note_on_time": 5.026, "note_off_time": 5.244}, {"pitch": 42, "velocity": 80, "note_on_time": 5.244, "note_off_time": 5.463}, {"pitch": 62, "velocity": 80, "note_on_time": 5.244, "note_off_time": 5.682}, {"pitch": 42, "velocity": 80, "note_on_time": 5.463, "note_off_time": 5.682}, {"pitch": 67, "velocity": 80, "note_on_time": 5.682, "note_off_time": 5.902}, {"pitch": 42, "velocity": 80, "note_on_time": 5.682, "note_off_time": 5.902}, {"pitch": 42, "velocity": 80, "note_on_time": 5.902, "note_off_time": 6.121}, {"pitch": 42, "velocity": 80, "note_on_time": 6.121, "note_off_time": 6.338}, {"pitch": 64, "velocity": 80, "note_on_time": 6.121, "note_off_time": 6.556}, {"pitch": 42, "velocity": 80, "note_on_time": 6.338, "note_off_time": 6.556}, {"pitch": 42, "velocity": 80, "note_on_time": 6.556, "note_off_time": 6.773}, {"pitch": 62, "velocity": 80, "note_on_time": 6.773, "note_off_time": 6.99}, {"pitch": 42, "velocity": 80, "note_on_time": 6.773, "note_off_time": 6.99}, {"pitch": 42, "velocity": 80, "note_on_time": 6.99, "note_off_time": 7.209}, {"pitch": 62, "velocity": 80, "note_on_time": 7.209, "note_off_time": 7.43}, {"pitch": 42, "velocity": 80, "note_on_time": 7.209, "note_off_time": 7.43}, {"pitch": 62, "velocity": 80, "note_on_time": 7.43, "note_off_time": 7.647}, {"pitch": 42, "velocity": 80, "note_on_time": 7.43, "note_off_time": 7.647}, {"pitch": 62, "velocity": 80, "note_on_time": 7.647, "note_off_time": 7.864}, {"pitch": 42, "velocity": 80, "note_on_time": 7.647, "note_off_time": 7.864}]</notes><options name="Option List">((4, 4), [0.5, 0.25], 3, 8, &lt;NoteRangePerHand.C_TO_G: 6&gt;, &lt;NoteRangePerHand.ONE_NOTE: 2&gt;, False, True, False, 281)</options></target_notes><trials><trial trial_no="1" timestamp="2022_11_13-13_11_22"><notes name="Played Notes">[{"pitch": 62, "velocity": 71, "note_on_time": 0.892, "note_off_time": 1.258}, {"pitch": 60, "velocity": 91, "note_on_time": 1.301, "note_off_time": 1.574}, {"pitch": 64, "velocity": 70, "note_on_time": 1.736, "note_off_time": 1.863}, {"pitch": 64, "velocity": 76, "note_on_time": 1.964, "note_off_time": 2.085}, {"pitch": 64, "velocity": 77, "note_on_time": 2.189, "note_off_time": 2.285}, {"pitch": 67, "velocity": 69, "note_on_time": 2.431, "note_off_time": 2.478}, {"pitch": 65, "velocity": 63, "note_on_time": 2.425, "note_off_time": 2.487}, {"pitch": 60, "velocity": 64, "note_on_time": 2.68, "note_off_time": 2.741}, {"pitch": 60, "velocity": 69, "note_on_time": 2.906, "note_off_time": 2.938}, {"pitch": 62, "velocity": 73, "note_on_time": 2.906, "note_off_time": 3.004}, {"pitch": 64, "velocity": 79, "note_on_time": 3.366, "note_off_time": 3.472}, {"pitch": 64, "velocity": 78, "note_on_time": 3.6, "note_off_time": 3.68}, {"pitch": 62, "velocity": 77, "note_on_time": 3.809, "note_off_time": 3.885}, {"pitch": 62, "velocity": 94, "note_on_time": 4.03, "note_off_time": 4.113}, {"pitch": 67, "velocity": 63, "note_on_time": 4.259, "note_off_time": 4.353}, {"pitch": 67, "velocity": 89, "note_on_time": 4.479, "note_off_time": 4.758}, {"pitch": 62, "velocity": 77, "note_on_time": 5.116, "note_off_time": 5.24}, {"pitch": 67, "velocity": 73, "note_on_time": 5.356, "note_off_time": 5.622}, {"pitch": 64, "velocity": 83, "note_on_time": 5.957, "note_off_time": 6.081}, {"pitch": 62, "velocity": 90, "note_on_time": 6.365, "note_off_time": 6.461}, {"pitch": 62, "velocity": 91, "note_on_time": 6.798, "note_off_time": 6.88}, {"pitch": 62, "velocity": 91, "note_on_time": 7.003, "note_off_time": 7.088}, {"pitch": 62, "velocity": 96, "note_on_time": 7.222, "note_off_time": 7.322}]</notes><guidance name="Guidance Mode">None</guidance><error name="Error value">0.6002966111111109</error></trial><trial trial_no="2" timestamp="2022_11_13-13_12_16"><notes name="Played Notes">[{"pitch": 62, "velocity": 81, "note_on_time": 0.876, "note_off_time": 1.29}, {"pitch": 60, "velocity": 92, "note_on_time": 1.31, "note_off_time": 1.574}, {"pitch": 65, "velocity": 72, "note_on_time": 1.747, "note_off_time": 1.862}, {"pitch": 65, "velocity": 73, "note_on_time": 1.963, "note_off_time": 2.083}, {"pitch": 65, "velocity": 83, "note_on_time": 2.201, "note_off_time": 2.306}, {"pitch": 67, "velocity": 86, "note_on_time": 2.421, "note_off_time": 2.502}, {"pitch": 62, "velocity": 89, "note_on_time": 2.65, "note_off_time": 2.733}, {"pitch": 62, "velocity": 96, "note_on_time": 2.865, "note_off_time": 2.973}, {"pitch": 64, "velocity": 86, "note_on_time": 3.402, "note_off_time": 3.522}, {"pitch": 64, "velocity": 91, "note_on_time": 3.621, "note_off_time": 3.734}, {"pitch": 62, "velocity": 93, "note_on_time": 3.839, "note_off_time": 3.934}, {"pitch": 62, "velocity": 91, "note_on_time": 4.058, "note_off_time": 4.139}, {"pitch": 67, "velocity": 89, "note_on_time": 4.281, "note_off_time": 4.383}, {"pitch": 67, "velocity": 90, "note_on_time": 4.776, "note_off_time": 4.887}, {"pitch": 62, "velocity": 91, "note_on_time": 5.226, "note_off_time": 5.344}, {"pitch": 67, "velocity": 92, "note_on_time": 5.681, "note_off_time": 5.824}, {"pitch": 64, "velocity": 93, "note_on_time": 6.275, "note_off_time": 6.404}, {"pitch": 62, "velocity": 89, "note_on_time": 6.729, "note_off_time": 6.811}, {"pitch": 62, "velocity": 94, "note_on_time": 7.127, "note_off_time": 7.208}, {"pitch": 62, "velocity": 91, "note_on_time": 7.349, "note_off_time": 7.423}, {"pitch": 62, "velocity": 98, "note_on_time": 7.567, "note_off_time": 7.64}]</notes><guidance name="Guidance Mode">None</guidance><error name="Error value">0.03945305555555556</error></trial><trial trial_no="3" timestamp="2022_11_13-13_12_40"><notes name="Played Notes">[{"pitch": 62, "velocity": 91, "note_on_time": 0.905, "note_off_time": 1.285}, {"pitch": 60, "velocity": 92, "note_on_time": 1.367, "note_off_time": 1.625}, {"pitch": 65, "velocity": 83, "note_on_time": 1.797, "note_off_time": 1.926}, {"pitch": 65, "velocity": 84, "note_on_time": 2.019, "note_off_time": 2.138}, {"pitch": 65, "velocity": 84, "note_on_time": 2.241, "note_off_time": 2.356}, {"pitch": 67, "velocity": 89, "note_on_time": 2.462, "note_off_time": 2.55}, {"pitch": 62, "velocity": 93, "note_on_time": 2.704, "note_off_time": 2.905}, {"pitch": 62, "velocity": 100, "note_on_time": 3.137, "note_off_time": 3.348}, {"pitch": 64, "velocity": 84, "note_on_time": 3.775, "note_off_time": 3.888}, {"pitch": 64, "velocity": 84, "note_on_time": 4.0, "note_off_time": 4.116}, {"pitch": 62, "velocity": 89, "note_on_time": 4.226, "note_off_time": 4.317}, {"pitch": 62, "velocity": 73, "note_on_time": 4.46, "note_off_time": 4.537}, {"pitch": 67, "velocity": 93, "note_on_time": 4.687, "note_off_time": 4.957}, {"pitch": 67, "velocity": 96, "note_on_time": 5.122, "note_off_time": 5.352}, {"pitch": 62, "velocity": 86, "note_on_time": 5.76, "note_off_time": 5.878}, {"pitch": 67, "velocity": 91, "note_on_time": 6.003, "note_off_time": 6.271}, {"pitch": 64, "velocity": 94, "note_on_time": 6.596, "note_off_time": 6.793}, {"pitch": 62, "velocity": 96, "note_on_time": 7.057, "note_off_time": 7.193}, {"pitch": 62, "velocity": 93, "note_on_time": 7.461, "note_off_time": 7.547}, {"pitch": 62, "velocity": 94, "note_on_time": 7.671, "note_off_time": 7.753}]</notes><guidance name="Guidance Mode">None</guidance><error name="Error value">0.13107438888888884</error></trial></trials></MIDI>