<MIDI midiNo="2022_12_01-10_51_03"><target_notes><notes name="Note List">[{"pitch": 42, "velocity": 80, "note_on_time": 0.004, "note_off_time": 0.23}, {"pitch": 42, "velocity": 80, "note_on_time": 0.23, "note_off_time": 0.448}, {"pitch": 42, "velocity": 80, "note_on_time": 0.448, "note_off_time": 0.667}, {"pitch": 42, "velocity": 80, "note_on_time": 0.667, "note_off_time": 0.885}, {"pitch": 65, "velocity": 80, "note_on_time": 0.885, "note_off_time": 1.103}, {"pitch": 42, "velocity": 80, "note_on_time": 0.885, "note_off_time": 1.103}, {"pitch": 62, "velocity": 80, "note_on_time": 1.103, "note_off_time": 1.322}, {"pitch": 42, "velocity": 80, "note_on_time": 1.103, "note_off_time": 1.322}, {"pitch": 60, "velocity": 80, "note_on_time": 1.322, "note_off_time": 1.541}, {"pitch": 42, "velocity": 80, "note_on_time": 1.322, "note_off_time": 1.541}, {"pitch": 67, "velocity": 80, "note_on_time": 1.541, "note_off_time": 1.76}, {"pitch": 42, "velocity": 80, "note_on_time": 1.541, "note_off_time": 1.76}, {"pitch": 42, "velocity": 80, "note_on_time": 1.76, "note_off_time": 1.977}, {"pitch": 67, "velocity": 80, "note_on_time": 1.76, "note_off_time": 2.195}, {"pitch": 42, "velocity": 80, "note_on_time": 1.977, "note_off_time": 2.195}, {"pitch": 62, "velocity": 80, "note_on_time": 2.195, "note_off_time": 2.411}, {"pitch": 42, "velocity": 80, "note_on_time": 2.195, "note_off_time": 2.411}, {"pitch": 42, "velocity": 80, "note_on_time": 2.411, "note_off_time": 2.628}, {"pitch": 62, "velocity": 80, "note_on_time": 2.628, "note_off_time": 2.846}, {"pitch": 42, "velocity": 80, "note_on_time": 2.628, "note_off_time": 2.846}, {"pitch": 67, "velocity": 80, "note_on_time": 2.846, "note_off_time": 3.064}, {"pitch": 42, "velocity": 80, "note_on_time": 2.846, "note_off_time": 3.064}, {"pitch": 62, "velocity": 80, "note_on_time": 3.064, "note_off_time": 3.283}, {"pitch": 42, "velocity": 80, "note_on_time": 3.064, "note_off_time": 3.283}, {"pitch": 64, "velocity": 80, "note_on_time": 3.283, "note_off_time": 3.501}, {"pitch": 42, "velocity": 80, "note_on_time": 3.283, "note_off_time": 3.501}, {"pitch": 60, "velocity": 80, "note_on_time": 3.501, "note_off_time": 3.719}, {"pitch": 42, "velocity": 80, "note_on_time": 3.501, "note_off_time": 3.719}, {"pitch": 64, "velocity": 80, "note_on_time": 3.719, "note_off_time": 3.936}, {"pitch": 42, "velocity": 80, "note_on_time": 3.719, "note_off_time": 3.936}, {"pitch": 67, "velocity": 80, "note_on_time": 3.936, "note_off_time": 4.155}, {"pitch": 42, "velocity": 80, "note_on_time": 3.936, "note_off_time": 4.155}, {"pitch": 64, "velocity": 80, "note_on_time": 4.155, "note_off_time": 4.374}, {"pitch": 42, "velocity": 80, "note_on_time": 4.155, "note_off_time": 4.374}, {"pitch": 60, "velocity": 80, "note_on_time": 4.374, "note_off_time": 4.594}, {"pitch": 42, "velocity": 80, "note_on_time": 4.374, "note_off_time": 4.594}, {"pitch": 67, "velocity": 80, "note_on_time": 4.594, "note_off_time": 4.813}, {"pitch": 42, "velocity": 80, "note_on_time": 4.594, "note_off_time": 4.813}, {"pitch": 65, "velocity": 80, "note_on_time": 4.813, "note_off_time": 5.043}, {"pitch": 42, "velocity": 80, "note_on_time": 4.813, "note_off_time": 5.043}, {"pitch": 67, "velocity": 80, "note_on_time": 5.043, "note_off_time": 5.263}, {"pitch": 42, "velocity": 80, "note_on_time": 5.044, "note_off_time": 5.263}, {"pitch": 42, "velocity": 80, "note_on_time": 5.263, "note_off_time": 5.481}, {"pitch": 60, "velocity": 80, "note_on_time": 5.263, "note_off_time": 5.698}, {"pitch": 42, "velocity": 80, "note_on_time": 5.481, "note_off_time": 5.698}, {"pitch": 42, "velocity": 80, "note_on_time": 5.699, "note_off_time": 5.916}, {"pitch": 42, "velocity": 80, "note_on_time": 5.917, "note_off_time": 6.136}, {"pitch": 67, "velocity": 80, "note_on_time": 6.136, "note_off_time": 6.355}, {"pitch": 42, "velocity": 80, "note_on_time": 6.136, "note_off_time": 6.355}, {"pitch": 62, "velocity": 80, "note_on_time": 6.355, "note_off_time": 6.572}, {"pitch": 42, "velocity": 80, "note_on_time": 6.355, "note_off_time": 6.572}, {"pitch": 67, "velocity": 80, "note_on_time": 6.572, "note_off_time": 6.793}, {"pitch": 42, "velocity": 80, "note_on_time": 6.572, "note_off_time": 6.793}, {"pitch": 62, "velocity": 80, "note_on_time": 6.793, "note_off_time": 7.011}, {"pitch": 42, "velocity": 80, "note_on_time": 6.793, "note_off_time": 7.011}, {"pitch": 42, "velocity": 80, "note_on_time": 7.012, "note_off_time": 7.228}, {"pitch": 62, "velocity": 80, "note_on_time": 7.228, "note_off_time": 7.448}, {"pitch": 42, "velocity": 80, "note_on_time": 7.228, "note_off_time": 7.448}, {"pitch": 62, "velocity": 80, "note_on_time": 7.448, "note_off_time": 7.668}, {"pitch": 42, "velocity": 80, "note_on_time": 7.448, "note_off_time": 7.668}, {"pitch": 62, "velocity": 80, "note_on_time": 7.668, "note_off_time": 7.884}, {"pitch": 42, "velocity": 80, "note_on_time": 7.668, "note_off_time": 7.884}]</notes><options name="Option List">((4, 4), [0.5, 0.25], 3, 8, &lt;NoteRangePerHand.C_TO_G: 6&gt;, &lt;NoteRangePerHand.ONE_NOTE: 2&gt;, False, True, False, '281')</options></target_notes><trials><trial trial_no="1" timestamp="2022_12_01-10_50_54"><notes name="Played Notes">[{"pitch": 65, "velocity": 65, "note_on_time": 0.922, "note_off_time": 1.173}, {"pitch": 62, "velocity": 63, "note_on_time": 1.131, "note_off_time": 1.37}, {"pitch": 60, "velocity": 71, "note_on_time": 1.344, "note_off_time": 1.597}, {"pitch": 67, "velocity": 74, "note_on_time": 1.563, "note_off_time": 1.665}, {"pitch": 67, "velocity": 67, "note_on_time": 1.792, "note_off_time": 2.272}, {"pitch": 62, "velocity": 73, "note_on_time": 2.225, "note_off_time": 2.481}, {"pitch": 62, "velocity": 76, "note_on_time": 2.719, "note_off_time": 2.945}, {"pitch": 67, "velocity": 74, "note_on_time": 2.916, "note_off_time": 3.184}, {"pitch": 62, "velocity": 72, "note_on_time": 3.146, "note_off_time": 3.412}, {"pitch": 64, "velocity": 67, "note_on_time": 3.384, "note_off_time": 3.618}, {"pitch": 60, "velocity": 71, "note_on_time": 3.616, "note_off_time": 3.879}, {"pitch": 64, "velocity": 70, "note_on_time": 3.828, "note_off_time": 4.1}, {"pitch": 67, "velocity": 76, "note_on_time": 4.084, "note_off_time": 4.334}, {"pitch": 64, "velocity": 70, "note_on_time": 4.273, "note_off_time": 4.565}, {"pitch": 60, "velocity": 68, "note_on_time": 4.574, "note_off_time": 4.802}, {"pitch": 67, "velocity": 74, "note_on_time": 4.781, "note_off_time": 5.043}, {"pitch": 65, "velocity": 73, "note_on_time": 5.016, "note_off_time": 5.236}, {"pitch": 67, "velocity": 78, "note_on_time": 5.233, "note_off_time": 5.505}, {"pitch": 60, "velocity": 77, "note_on_time": 5.484, "note_off_time": 5.705}, {"pitch": 67, "velocity": 75, "note_on_time": 6.393, "note_off_time": 6.646}, {"pitch": 62, "velocity": 73, "note_on_time": 6.61, "note_off_time": 6.854}, {"pitch": 67, "velocity": 80, "note_on_time": 6.834, "note_off_time": 7.085}, {"pitch": 62, "velocity": 76, "note_on_time": 7.051, "note_off_time": 7.283}, {"pitch": 62, "velocity": 73, "note_on_time": 7.518, "note_off_time": 7.592}, {"pitch": 62, "velocity": 72, "note_on_time": 7.714, "note_off_time": 7.801}]</notes><guidance name="Guidance Mode">None</guidance><error name="Error value">0.07578934782608689</error></trial><trial trial_no="2" timestamp="2022_12_01-10_51_18"><notes name="Played Notes">[{"pitch": 65, "velocity": 57, "note_on_time": 0.878, "note_off_time": 1.137}, {"pitch": 62, "velocity": 56, "note_on_time": 1.095, "note_off_time": 1.319}, {"pitch": 60, "velocity": 68, "note_on_time": 1.305, "note_off_time": 1.566}, {"pitch": 67, "velocity": 74, "note_on_time": 1.516, "note_off_time": 1.611}, {"pitch": 67, "velocity": 65, "note_on_time": 1.738, "note_off_time": 2.203}, {"pitch": 62, "velocity": 71, "note_on_time": 2.165, "note_off_time": 2.405}, {"pitch": 62, "velocity": 60, "note_on_time": 2.615, "note_off_time": 2.844}, {"pitch": 67, "velocity": 63, "note_on_time": 2.831, "note_off_time": 3.091}, {"pitch": 62, "velocity": 62, "note_on_time": 3.044, "note_off_time": 3.285}, {"pitch": 64, "velocity": 56, "note_on_time": 3.273, "note_off_time": 3.509}, {"pitch": 60, "velocity": 70, "note_on_time": 3.517, "note_off_time": 3.755}, {"pitch": 64, "velocity": 66, "note_on_time": 3.726, "note_off_time": 3.957}, {"pitch": 67, "velocity": 72, "note_on_time": 3.95, "note_off_time": 4.202}, {"pitch": 64, "velocity": 73, "note_on_time": 4.151, "note_off_time": 4.395}, {"pitch": 60, "velocity": 64, "note_on_time": 4.398, "note_off_time": 4.631}, {"pitch": 67, "velocity": 70, "note_on_time": 4.609, "note_off_time": 4.88}, {"pitch": 65, "velocity": 72, "note_on_time": 4.845, "note_off_time": 5.037}, {"pitch": 67, "velocity": 77, "note_on_time": 5.038, "note_off_time": 5.296}, {"pitch": 60, "velocity": 79, "note_on_time": 5.282, "note_off_time": 5.464}, {"pitch": 67, "velocity": 75, "note_on_time": 6.129, "note_off_time": 6.35}, {"pitch": 62, "velocity": 77, "note_on_time": 6.335, "note_off_time": 6.547}, {"pitch": 67, "velocity": 69, "note_on_time": 6.529, "note_off_time": 6.794}, {"pitch": 62, "velocity": 72, "note_on_time": 6.764, "note_off_time": 6.943}, {"pitch": 62, "velocity": 69, "note_on_time": 7.199, "note_off_time": 7.275}, {"pitch": 62, "velocity": 65, "note_on_time": 7.412, "note_off_time": 7.478}, {"pitch": 62, "velocity": 76, "note_on_time": 7.607, "note_off_time": 7.701}]</notes><guidance name="Guidance Mode">None</guidance><error name="Error value">0.013459521739130348</error></trial><trial trial_no="3" timestamp="2022_12_01-10_51_35"><notes name="Played Notes">[{"pitch": 65, "velocity": 64, "note_on_time": 0.906, "note_off_time": 1.151}, {"pitch": 62, "velocity": 62, "note_on_time": 1.126, "note_off_time": 1.351}, {"pitch": 60, "velocity": 68, "note_on_time": 1.33, "note_off_time": 1.573}, {"pitch": 67, "velocity": 73, "note_on_time": 1.535, "note_off_time": 1.637}, {"pitch": 67, "velocity": 66, "note_on_time": 1.761, "note_off_time": 2.241}, {"pitch": 62, "velocity": 66, "note_on_time": 2.191, "note_off_time": 2.435}, {"pitch": 62, "velocity": 71, "note_on_time": 2.64, "note_off_time": 2.84}, {"pitch": 67, "velocity": 73, "note_on_time": 2.823, "note_off_time": 3.106}, {"pitch": 62, "velocity": 70, "note_on_time": 3.066, "note_off_time": 3.314}, {"pitch": 64, "velocity": 70, "note_on_time": 3.29, "note_off_time": 3.501}, {"pitch": 60, "velocity": 71, "note_on_time": 3.509, "note_off_time": 3.785}, {"pitch": 64, "velocity": 69, "note_on_time": 3.741, "note_off_time": 3.976}, {"pitch": 67, "velocity": 76, "note_on_time": 3.961, "note_off_time": 4.207}, {"pitch": 64, "velocity": 65, "note_on_time": 4.162, "note_off_time": 4.402}, {"pitch": 60, "velocity": 72, "note_on_time": 4.41, "note_off_time": 4.641}, {"pitch": 67, "velocity": 72, "note_on_time": 4.623, "note_off_time": 4.897}, {"pitch": 65, "velocity": 71, "note_on_time": 4.866, "note_off_time": 5.061}, {"pitch": 67, "velocity": 74, "note_on_time": 5.062, "note_off_time": 5.36}, {"pitch": 60, "velocity": 77, "note_on_time": 5.326, "note_off_time": 5.577}, {"pitch": 67, "velocity": 74, "note_on_time": 6.17, "note_off_time": 6.372}, {"pitch": 62, "velocity": 65, "note_on_time": 6.348, "note_off_time": 6.607}, {"pitch": 67, "velocity": 76, "note_on_time": 6.578, "note_off_time": 6.827}, {"pitch": 62, "velocity": 76, "note_on_time": 6.777, "note_off_time": 7.002}, {"pitch": 62, "velocity": 76, "note_on_time": 7.256, "note_off_time": 7.325}, {"pitch": 62, "velocity": 74, "note_on_time": 7.474, "note_off_time": 7.55}, {"pitch": 62, "velocity": 79, "note_on_time": 7.692, "note_off_time": 7.789}]</notes><guidance name="Guidance Mode">None</guidance><error name="Error value">0.019362565217391194</error></trial><trial trial_no="4" timestamp="2022_12_01-10_51_54"><notes name="Played Notes">[{"pitch": 65, "velocity": 72, "note_on_time": 0.839, "note_off_time": 1.116}, {"pitch": 62, "velocity": 72, "note_on_time": 1.068, "note_off_time": 1.298}, {"pitch": 60, "velocity": 71, "note_on_time": 1.275, "note_off_time": 1.519}, {"pitch": 67, "velocity": 73, "note_on_time": 1.489, "note_off_time": 1.599}, {"pitch": 67, "velocity": 69, "note_on_time": 1.715, "note_off_time": 2.233}, {"pitch": 62, "velocity": 73, "note_on_time": 2.165, "note_off_time": 2.405}, {"pitch": 62, "velocity": 71, "note_on_time": 2.614, "note_off_time": 2.86}, {"pitch": 67, "velocity": 74, "note_on_time": 2.829, "note_off_time": 3.104}, {"pitch": 62, "velocity": 70, "note_on_time": 3.052, "note_off_time": 3.312}, {"pitch": 64, "velocity": 71, "note_on_time": 3.28, "note_off_time": 3.498}, {"pitch": 60, "velocity": 72, "note_on_time": 3.505, "note_off_time": 3.778}, {"pitch": 64, "velocity": 55, "note_on_time": 3.758, "note_off_time": 4.003}, {"pitch": 67, "velocity": 62, "note_on_time": 3.984, "note_off_time": 4.219}, {"pitch": 64, "velocity": 71, "note_on_time": 4.166, "note_off_time": 4.423}, {"pitch": 60, "velocity": 68, "note_on_time": 4.425, "note_off_time": 4.662}, {"pitch": 67, "velocity": 75, "note_on_time": 4.636, "note_off_time": 4.894}, {"pitch": 65, "velocity": 74, "note_on_time": 4.86, "note_off_time": 5.069}, {"pitch": 67, "velocity": 71, "note_on_time": 5.066, "note_off_time": 5.34}, {"pitch": 60, "velocity": 76, "note_on_time": 5.325, "note_off_time": 5.543}, {"pitch": 67, "velocity": 73, "note_on_time": 6.142, "note_off_time": 6.378}, {"pitch": 62, "velocity": 79, "note_on_time": 6.344, "note_off_time": 6.596}, {"pitch": 67, "velocity": 78, "note_on_time": 6.567, "note_off_time": 6.831}, {"pitch": 62, "velocity": 78, "note_on_time": 6.791, "note_off_time": 7.016}, {"pitch": 62, "velocity": 78, "note_on_time": 7.24, "note_off_time": 7.316}, {"pitch": 62, "velocity": 74, "note_on_time": 7.443, "note_off_time": 7.524}, {"pitch": 62, "velocity": 76, "note_on_time": 7.649, "note_off_time": 7.764}]</notes><guidance name="Guidance Mode">None</guidance><error name="Error value">0.01827360869565217</error></trial><trial trial_no="5" timestamp="2022_12_01-10_52_13"><notes name="Played Notes">[{"pitch": 65, "velocity": 59, "note_on_time": 0.91, "note_off_time": 1.154}, {"pitch": 62, "velocity": 60, "note_on_time": 1.121, "note_off_time": 1.338}, {"pitch": 60, "velocity": 62, "note_on_time": 1.342, "note_off_time": 1.588}, {"pitch": 67, "velocity": 72, "note_on_time": 1.539, "note_off_time": 1.652}, {"pitch": 67, "velocity": 69, "note_on_time": 1.784, "note_off_time": 2.295}, {"pitch": 62, "velocity": 65, "note_on_time": 2.22, "note_off_time": 2.466}, {"pitch": 62, "velocity": 58, "note_on_time": 2.656, "note_off_time": 2.885}, {"pitch": 67, "velocity": 70, "note_on_time": 2.871, "note_off_time": 3.146}, {"pitch": 62, "velocity": 66, "note_on_time": 3.097, "note_off_time": 3.329}, {"pitch": 64, "velocity": 69, "note_on_time": 3.3, "note_off_time": 3.518}, {"pitch": 60, "velocity": 67, "note_on_time": 3.525, "note_off_time": 3.764}, {"pitch": 64, "velocity": 68, "note_on_time": 3.745, "note_off_time": 3.997}, {"pitch": 67, "velocity": 69, "note_on_time": 3.975, "note_off_time": 4.231}, {"pitch": 64, "velocity": 63, "note_on_time": 4.193, "note_off_time": 4.424}, {"pitch": 60, "velocity": 63, "note_on_time": 4.436, "note_off_time": 4.656}, {"pitch": 67, "velocity": 73, "note_on_time": 4.647, "note_off_time": 4.859}, {"pitch": 65, "velocity": 71, "note_on_time": 4.864, "note_off_time": 5.071}, {"pitch": 67, "velocity": 74, "note_on_time": 5.07, "note_off_time": 5.352}, {"pitch": 60, "velocity": 72, "note_on_time": 5.327, "note_off_time": 5.521}, {"pitch": 67, "velocity": 67, "note_on_time": 6.216, "note_off_time": 6.448}, {"pitch": 62, "velocity": 70, "note_on_time": 6.427, "note_off_time": 6.65}, {"pitch": 67, "velocity": 74, "note_on_time": 6.615, "note_off_time": 6.887}, {"pitch": 64, "velocity": 54, "note_on_time": 6.876, "note_off_time": 6.936}, {"pitch": 62, "velocity": 55, "note_on_time": 6.871, "note_off_time": 7.052}, {"pitch": 62, "velocity": 72, "note_on_time": 7.297, "note_off_time": 7.367}, {"pitch": 62, "velocity": 71, "note_on_time": 7.508, "note_off_time": 7.585}, {"pitch": 62, "velocity": 77, "note_on_time": 7.708, "note_off_time": 7.822}]</notes><guidance name="Guidance Mode">None</guidance><error name="Error value">0.11862143478260842</error></trial></trials></MIDI>