<MIDI midiNo="2022_11_14-19_00_47"><target_notes><notes name="Note List">[{"pitch": 42, "velocity": 80, "note_on_time": 0.004, "note_off_time": 0.231}, {"pitch": 42, "velocity": 80, "note_on_time": 0.232, "note_off_time": 0.45}, {"pitch": 42, "velocity": 80, "note_on_time": 0.45, "note_off_time": 0.668}, {"pitch": 42, "velocity": 80, "note_on_time": 0.668, "note_off_time": 0.886}, {"pitch": 42, "velocity": 80, "note_on_time": 0.886, "note_off_time": 1.102}, {"pitch": 62, "velocity": 80, "note_on_time": 0.886, "note_off_time": 1.321}, {"pitch": 42, "velocity": 80, "note_on_time": 1.102, "note_off_time": 1.321}, {"pitch": 65, "velocity": 80, "note_on_time": 1.321, "note_off_time": 1.54}, {"pitch": 42, "velocity": 80, "note_on_time": 1.321, "note_off_time": 1.54}, {"pitch": 60, "velocity": 80, "note_on_time": 1.54, "note_off_time": 1.759}, {"pitch": 42, "velocity": 80, "note_on_time": 1.54, "note_off_time": 1.759}, {"pitch": 64, "velocity": 80, "note_on_time": 1.759, "note_off_time": 1.978}, {"pitch": 42, "velocity": 80, "note_on_time": 1.759, "note_off_time": 1.978}, {"pitch": 62, "velocity": 80, "note_on_time": 1.978, "note_off_time": 2.195}, {"pitch": 42, "velocity": 80, "note_on_time": 1.978, "note_off_time": 2.195}, {"pitch": 64, "velocity": 80, "note_on_time": 2.195, "note_off_time": 2.414}, {"pitch": 42, "velocity": 80, "note_on_time": 2.195, "note_off_time": 2.414}, {"pitch": 60, "velocity": 80, "note_on_time": 2.414, "note_off_time": 2.634}, {"pitch": 42, "velocity": 80, "note_on_time": 2.414, "note_off_time": 2.634}, {"pitch": 60, "velocity": 80, "note_on_time": 2.634, "note_off_time": 2.849}, {"pitch": 42, "velocity": 80, "note_on_time": 2.634, "note_off_time": 2.849}, {"pitch": 64, "velocity": 80, "note_on_time": 2.849, "note_off_time": 3.066}, {"pitch": 42, "velocity": 80, "note_on_time": 2.85, "note_off_time": 3.066}, {"pitch": 60, "velocity": 80, "note_on_time": 3.066, "note_off_time": 3.285}, {"pitch": 42, "velocity": 80, "note_on_time": 3.067, "note_off_time": 3.285}, {"pitch": 62, "velocity": 80, "note_on_time": 3.285, "note_off_time": 3.505}, {"pitch": 42, "velocity": 80, "note_on_time": 3.285, "note_off_time": 3.505}, {"pitch": 62, "velocity": 80, "note_on_time": 3.505, "note_off_time": 3.719}, {"pitch": 42, "velocity": 80, "note_on_time": 3.505, "note_off_time": 3.72}, {"pitch": 64, "velocity": 80, "note_on_time": 3.719, "note_off_time": 3.936}, {"pitch": 42, "velocity": 80, "note_on_time": 3.72, "note_off_time": 3.936}, {"pitch": 65, "velocity": 80, "note_on_time": 3.936, "note_off_time": 4.155}, {"pitch": 42, "velocity": 80, "note_on_time": 3.936, "note_off_time": 4.155}, {"pitch": 65, "velocity": 80, "note_on_time": 4.155, "note_off_time": 4.372}, {"pitch": 42, "velocity": 80, "note_on_time": 4.155, "note_off_time": 4.372}, {"pitch": 42, "velocity": 80, "note_on_time": 4.372, "note_off_time": 4.589}, {"pitch": 62, "velocity": 80, "note_on_time": 4.372, "note_off_time": 4.806}, {"pitch": 42, "velocity": 80, "note_on_time": 4.589, "note_off_time": 4.806}, {"pitch": 42, "velocity": 80, "note_on_time": 4.806, "note_off_time": 5.023}, {"pitch": 42, "velocity": 80, "note_on_time": 5.023, "note_off_time": 5.238}, {"pitch": 42, "velocity": 80, "note_on_time": 5.238, "note_off_time": 5.459}, {"pitch": 64, "velocity": 80, "note_on_time": 5.238, "note_off_time": 5.676}, {"pitch": 42, "velocity": 80, "note_on_time": 5.459, "note_off_time": 5.677}, {"pitch": 42, "velocity": 80, "note_on_time": 5.677, "note_off_time": 5.896}, {"pitch": 62, "velocity": 80, "note_on_time": 5.676, "note_off_time": 6.113}, {"pitch": 42, "velocity": 80, "note_on_time": 5.897, "note_off_time": 6.113}, {"pitch": 64, "velocity": 80, "note_on_time": 6.113, "note_off_time": 6.332}, {"pitch": 42, "velocity": 80, "note_on_time": 6.113, "note_off_time": 6.332}, {"pitch": 42, "velocity": 80, "note_on_time": 6.332, "note_off_time": 6.55}, {"pitch": 42, "velocity": 80, "note_on_time": 6.55, "note_off_time": 6.769}, {"pitch": 42, "velocity": 80, "note_on_time": 6.769, "note_off_time": 6.987}, {"pitch": 42, "velocity": 80, "note_on_time": 6.987, "note_off_time": 7.206}, {"pitch": 64, "velocity": 80, "note_on_time": 7.206, "note_off_time": 7.422}, {"pitch": 42, "velocity": 80, "note_on_time": 7.206, "note_off_time": 7.422}, {"pitch": 64, "velocity": 80, "note_on_time": 7.422, "note_off_time": 7.64}, {"pitch": 42, "velocity": 80, "note_on_time": 7.422, "note_off_time": 7.64}, {"pitch": 64, "velocity": 80, "note_on_time": 7.64, "note_off_time": 7.857}, {"pitch": 42, "velocity": 80, "note_on_time": 7.64, "note_off_time": 7.858}]</notes><options name="Option List">((4, 4), [0.5, 0.25], 3, 8, &lt;NoteRangePerHand.FOUR_NOTES: 5&gt;, &lt;NoteRangePerHand.ONE_NOTE: 2&gt;, False, True, False, 281)</options></target_notes><trials><trial trial_no="1" timestamp="2022_11_14-19_00_37"><notes name="Played Notes">[{"pitch": 62, "velocity": 64, "note_on_time": 0.905, "note_off_time": 1.362}, {"pitch": 65, "velocity": 78, "note_on_time": 1.406, "note_off_time": 1.746}, {"pitch": 60, "velocity": 73, "note_on_time": 1.759, "note_off_time": 2.054}, {"pitch": 64, "velocity": 63, "note_on_time": 2.093, "note_off_time": 2.423}, {"pitch": 62, "velocity": 63, "note_on_time": 2.437, "note_off_time": 2.664}, {"pitch": 64, "velocity": 68, "note_on_time": 2.692, "note_off_time": 2.929}, {"pitch": 60, "velocity": 72, "note_on_time": 2.935, "note_off_time": 3.137}, {"pitch": 60, "velocity": 79, "note_on_time": 3.246, "note_off_time": 3.455}, {"pitch": 64, "velocity": 66, "note_on_time": 3.485, "note_off_time": 3.745}, {"pitch": 60, "velocity": 74, "note_on_time": 3.75, "note_off_time": 3.984}, {"pitch": 62, "velocity": 64, "note_on_time": 4.001, "note_off_time": 4.249}, {"pitch": 62, "velocity": 68, "note_on_time": 4.373, "note_off_time": 4.63}, {"pitch": 64, "velocity": 68, "note_on_time": 4.625, "note_off_time": 4.909}, {"pitch": 65, "velocity": 74, "note_on_time": 4.889, "note_off_time": 4.991}, {"pitch": 65, "velocity": 61, "note_on_time": 5.131, "note_off_time": 5.383}, {"pitch": 62, "velocity": 74, "note_on_time": 5.38, "note_off_time": 5.66}, {"pitch": 64, "velocity": 76, "note_on_time": 5.879, "note_off_time": 6.41}, {"pitch": 62, "velocity": 73, "note_on_time": 6.399, "note_off_time": 6.857}, {"pitch": 64, "velocity": 65, "note_on_time": 6.872, "note_off_time": 7.13}, {"pitch": 64, "velocity": 79, "note_on_time": 7.421, "note_off_time": 7.522}, {"pitch": 64, "velocity": 78, "note_on_time": 7.691, "note_off_time": 7.789}]</notes><guidance name="Guidance Mode">None</guidance><error name="Error value">0.1758551052631579</error></trial><trial trial_no="2" timestamp="2022_11_14-19_00_55"><notes name="Played Notes">[{"pitch": 62, "velocity": 77, "note_on_time": 0.932, "note_off_time": 1.368}, {"pitch": 65, "velocity": 73, "note_on_time": 1.418, "note_off_time": 1.822}, {"pitch": 60, "velocity": 88, "note_on_time": 1.817, "note_off_time": 2.063}, {"pitch": 64, "velocity": 78, "note_on_time": 2.099, "note_off_time": 2.205}, {"pitch": 64, "velocity": 76, "note_on_time": 2.354, "note_off_time": 2.602}, {"pitch": 62, "velocity": 50, "note_on_time": 2.636, "note_off_time": 2.904}, {"pitch": 64, "velocity": 63, "note_on_time": 3.085, "note_off_time": 3.342}, {"pitch": 60, "velocity": 62, "note_on_time": 3.379, "note_off_time": 3.577}, {"pitch": 64, "velocity": 70, "note_on_time": 3.893, "note_off_time": 4.18}, {"pitch": 60, "velocity": 82, "note_on_time": 4.172, "note_off_time": 4.465}, {"pitch": 62, "velocity": 78, "note_on_time": 4.447, "note_off_time": 4.753}, {"pitch": 62, "velocity": 61, "note_on_time": 4.86, "note_off_time": 5.104}, {"pitch": 65, "velocity": 72, "note_on_time": 5.432, "note_off_time": 5.546}, {"pitch": 65, "velocity": 75, "note_on_time": 5.693, "note_off_time": 5.956}, {"pitch": 62, "velocity": 72, "note_on_time": 5.956, "note_off_time": 6.194}, {"pitch": 64, "velocity": 77, "note_on_time": 6.429, "note_off_time": 6.867}, {"pitch": 62, "velocity": 68, "note_on_time": 6.916, "note_off_time": 7.301}, {"pitch": 64, "velocity": 74, "note_on_time": 7.448, "note_off_time": 7.728}]</notes><guidance name="Guidance Mode">None</guidance><error name="Error value">0.9170096842105263</error></trial><trial trial_no="3" timestamp="2022_11_14-19_01_12"><notes name="Played Notes">[{"pitch": 62, "velocity": 76, "note_on_time": 0.959, "note_off_time": 1.369}, {"pitch": 65, "velocity": 86, "note_on_time": 1.4, "note_off_time": 1.787}, {"pitch": 60, "velocity": 82, "note_on_time": 1.754, "note_off_time": 2.066}, {"pitch": 64, "velocity": 75, "note_on_time": 2.054, "note_off_time": 2.31}, {"pitch": 62, "velocity": 74, "note_on_time": 2.292, "note_off_time": 2.549}, {"pitch": 64, "velocity": 80, "note_on_time": 2.54, "note_off_time": 2.78}, {"pitch": 60, "velocity": 85, "note_on_time": 2.777, "note_off_time": 2.945}, {"pitch": 60, "velocity": 80, "note_on_time": 3.04, "note_off_time": 3.282}, {"pitch": 64, "velocity": 79, "note_on_time": 3.281, "note_off_time": 3.525}, {"pitch": 60, "velocity": 81, "note_on_time": 3.534, "note_off_time": 3.767}, {"pitch": 62, "velocity": 81, "note_on_time": 3.782, "note_off_time": 3.915}, {"pitch": 62, "velocity": 79, "note_on_time": 4.03, "note_off_time": 4.307}, {"pitch": 64, "velocity": 84, "note_on_time": 4.317, "note_off_time": 4.503}, {"pitch": 65, "velocity": 88, "note_on_time": 4.62, "note_off_time": 4.762}, {"pitch": 65, "velocity": 69, "note_on_time": 4.875, "note_off_time": 5.18}, {"pitch": 62, "velocity": 87, "note_on_time": 5.153, "note_off_time": 5.484}, {"pitch": 64, "velocity": 76, "note_on_time": 5.871, "note_off_time": 6.134}, {"pitch": 62, "velocity": 84, "note_on_time": 6.138, "note_off_time": 6.398}, {"pitch": 64, "velocity": 81, "note_on_time": 6.397, "note_off_time": 6.523}, {"pitch": 64, "velocity": 77, "note_on_time": 7.307, "note_off_time": 7.408}, {"pitch": 64, "velocity": 71, "note_on_time": 7.568, "note_off_time": 7.661}]</notes><guidance name="Guidance Mode">None</guidance><error name="Error value">0.14002268421052622</error></trial></trials></MIDI>