<MIDI midiNo="2022_12_08-10_24_29"><target_notes><notes name="Note List">[{"pitch": 42, "velocity": 80, "note_on_time": 0.004, "note_off_time": 0.309}, {"pitch": 42, "velocity": 80, "note_on_time": 0.309, "note_off_time": 0.622}, {"pitch": 42, "velocity": 80, "note_on_time": 0.622, "note_off_time": 0.933}, {"pitch": 42, "velocity": 80, "note_on_time": 0.933, "note_off_time": 1.246}, {"pitch": 64, "velocity": 80, "note_on_time": 1.246, "note_off_time": 1.557}, {"pitch": 42, "velocity": 80, "note_on_time": 1.246, "note_off_time": 1.558}, {"pitch": 65, "velocity": 80, "note_on_time": 1.557, "note_off_time": 1.869}, {"pitch": 42, "velocity": 80, "note_on_time": 1.558, "note_off_time": 1.869}, {"pitch": 67, "velocity": 80, "note_on_time": 1.869, "note_off_time": 2.182}, {"pitch": 42, "velocity": 80, "note_on_time": 1.87, "note_off_time": 2.182}, {"pitch": 65, "velocity": 80, "note_on_time": 2.182, "note_off_time": 2.493}, {"pitch": 42, "velocity": 80, "note_on_time": 2.183, "note_off_time": 2.493}, {"pitch": 62, "velocity": 80, "note_on_time": 2.493, "note_off_time": 2.805}, {"pitch": 42, "velocity": 80, "note_on_time": 2.493, "note_off_time": 2.806}, {"pitch": 64, "velocity": 80, "note_on_time": 2.805, "note_off_time": 3.118}, {"pitch": 42, "velocity": 80, "note_on_time": 2.806, "note_off_time": 3.118}, {"pitch": 67, "velocity": 80, "note_on_time": 3.118, "note_off_time": 3.429}, {"pitch": 42, "velocity": 80, "note_on_time": 3.118, "note_off_time": 3.429}, {"pitch": 60, "velocity": 80, "note_on_time": 3.429, "note_off_time": 3.741}, {"pitch": 42, "velocity": 80, "note_on_time": 3.43, "note_off_time": 3.741}, {"pitch": 64, "velocity": 80, "note_on_time": 3.741, "note_off_time": 4.053}, {"pitch": 42, "velocity": 80, "note_on_time": 3.741, "note_off_time": 4.053}, {"pitch": 65, "velocity": 80, "note_on_time": 4.053, "note_off_time": 4.364}, {"pitch": 42, "velocity": 80, "note_on_time": 4.054, "note_off_time": 4.365}, {"pitch": 64, "velocity": 80, "note_on_time": 4.364, "note_off_time": 4.678}, {"pitch": 42, "velocity": 80, "note_on_time": 4.365, "note_off_time": 4.678}, {"pitch": 62, "velocity": 80, "note_on_time": 4.678, "note_off_time": 4.988}, {"pitch": 42, "velocity": 80, "note_on_time": 4.678, "note_off_time": 4.989}, {"pitch": 64, "velocity": 80, "note_on_time": 4.988, "note_off_time": 5.3}, {"pitch": 42, "velocity": 80, "note_on_time": 4.989, "note_off_time": 5.3}, {"pitch": 42, "velocity": 80, "note_on_time": 5.301, "note_off_time": 5.613}, {"pitch": 62, "velocity": 80, "note_on_time": 5.3, "note_off_time": 5.926}, {"pitch": 42, "velocity": 80, "note_on_time": 5.613, "note_off_time": 5.926}, {"pitch": 60, "velocity": 80, "note_on_time": 5.926, "note_off_time": 6.238}, {"pitch": 42, "velocity": 80, "note_on_time": 5.926, "note_off_time": 6.239}, {"pitch": 64, "velocity": 80, "note_on_time": 6.238, "note_off_time": 6.551}, {"pitch": 42, "velocity": 80, "note_on_time": 6.239, "note_off_time": 6.551}, {"pitch": 60, "velocity": 80, "note_on_time": 6.551, "note_off_time": 6.859}, {"pitch": 42, "velocity": 80, "note_on_time": 6.551, "note_off_time": 6.859}, {"pitch": 64, "velocity": 80, "note_on_time": 6.859, "note_off_time": 7.172}, {"pitch": 42, "velocity": 80, "note_on_time": 6.859, "note_off_time": 7.173}, {"pitch": 64, "velocity": 80, "note_on_time": 7.172, "note_off_time": 7.486}, {"pitch": 42, "velocity": 80, "note_on_time": 7.173, "note_off_time": 7.486}, {"pitch": 62, "velocity": 80, "note_on_time": 7.486, "note_off_time": 7.798}, {"pitch": 42, "velocity": 80, "note_on_time": 7.487, "note_off_time": 7.799}, {"pitch": 67, "velocity": 80, "note_on_time": 7.798, "note_off_time": 8.111}, {"pitch": 42, "velocity": 80, "note_on_time": 7.799, "note_off_time": 8.111}, {"pitch": 62, "velocity": 80, "note_on_time": 8.111, "note_off_time": 8.423}, {"pitch": 42, "velocity": 80, "note_on_time": 8.112, "note_off_time": 8.423}, {"pitch": 64, "velocity": 80, "note_on_time": 8.423, "note_off_time": 8.735}, {"pitch": 42, "velocity": 80, "note_on_time": 8.423, "note_off_time": 8.735}, {"pitch": 62, "velocity": 80, "note_on_time": 8.735, "note_off_time": 9.046}, {"pitch": 42, "velocity": 80, "note_on_time": 8.736, "note_off_time": 9.046}, {"pitch": 64, "velocity": 80, "note_on_time": 9.046, "note_off_time": 9.359}, {"pitch": 42, "velocity": 80, "note_on_time": 9.046, "note_off_time": 9.359}, {"pitch": 67, "velocity": 80, "note_on_time": 9.359, "note_off_time": 9.672}, {"pitch": 42, "velocity": 80, "note_on_time": 9.359, "note_off_time": 9.672}, {"pitch": 67, "velocity": 80, "note_on_time": 9.672, "note_off_time": 9.983}, {"pitch": 42, "velocity": 80, "note_on_time": 9.672, "note_off_time": 9.983}, {"pitch": 42, "velocity": 80, "note_on_time": 9.984, "note_off_time": 10.294}, {"pitch": 67, "velocity": 80, "note_on_time": 10.294, "note_off_time": 10.609}, {"pitch": 42, "velocity": 80, "note_on_time": 10.294, "note_off_time": 10.609}, {"pitch": 67, "velocity": 80, "note_on_time": 10.609, "note_off_time": 10.919}, {"pitch": 42, "velocity": 80, "note_on_time": 10.609, "note_off_time": 10.92}, {"pitch": 67, "velocity": 80, "note_on_time": 10.919, "note_off_time": 11.231}, {"pitch": 42, "velocity": 80, "note_on_time": 10.92, "note_off_time": 11.231}]</notes><options name="Option List">((4, 4), [0.5, 0.25], 3, 8, &lt;NoteRangePerHand.C_TO_G: 6&gt;, &lt;NoteRangePerHand.ONE_NOTE: 2&gt;, False, True, False, '200')</options></target_notes><trials><trial trial_no="1" timestamp="2022_12_08-10_24_16"><notes name="Played Notes">[{"pitch": 64, "velocity": 58, "note_on_time": 1.292, "note_off_time": 1.595}, {"pitch": 65, "velocity": 67, "note_on_time": 1.58, "note_off_time": 1.891}, {"pitch": 67, "velocity": 77, "note_on_time": 1.888, "note_off_time": 2.203}, {"pitch": 65, "velocity": 57, "note_on_time": 2.196, "note_off_time": 2.539}, {"pitch": 62, "velocity": 55, "note_on_time": 2.517, "note_off_time": 2.827}, {"pitch": 64, "velocity": 62, "note_on_time": 2.819, "note_off_time": 3.125}, {"pitch": 67, "velocity": 60, "note_on_time": 3.13, "note_off_time": 3.435}, {"pitch": 60, "velocity": 60, "note_on_time": 3.433, "note_off_time": 3.766}, {"pitch": 64, "velocity": 47, "note_on_time": 3.746, "note_off_time": 4.063}, {"pitch": 65, "velocity": 65, "note_on_time": 4.08, "note_off_time": 4.398}, {"pitch": 64, "velocity": 62, "note_on_time": 4.358, "note_off_time": 4.652}, {"pitch": 62, "velocity": 54, "note_on_time": 4.668, "note_off_time": 4.974}, {"pitch": 64, "velocity": 72, "note_on_time": 4.984, "note_off_time": 5.29}, {"pitch": 62, "velocity": 59, "note_on_time": 5.309, "note_off_time": 5.888}, {"pitch": 60, "velocity": 53, "note_on_time": 5.925, "note_off_time": 6.227}, {"pitch": 64, "velocity": 78, "note_on_time": 6.231, "note_off_time": 6.548}, {"pitch": 60, "velocity": 65, "note_on_time": 6.532, "note_off_time": 6.844}, {"pitch": 64, "velocity": 61, "note_on_time": 6.839, "note_off_time": 6.944}, {"pitch": 64, "velocity": 71, "note_on_time": 7.156, "note_off_time": 7.468}, {"pitch": 62, "velocity": 57, "note_on_time": 7.469, "note_off_time": 7.79}, {"pitch": 67, "velocity": 67, "note_on_time": 7.772, "note_off_time": 8.088}, {"pitch": 62, "velocity": 59, "note_on_time": 8.104, "note_off_time": 8.411}, {"pitch": 64, "velocity": 63, "note_on_time": 8.418, "note_off_time": 8.713}, {"pitch": 62, "velocity": 56, "note_on_time": 8.721, "note_off_time": 9.039}, {"pitch": 64, "velocity": 61, "note_on_time": 9.025, "note_off_time": 9.355}, {"pitch": 67, "velocity": 75, "note_on_time": 9.341, "note_off_time": 9.462}, {"pitch": 67, "velocity": 72, "note_on_time": 9.634, "note_off_time": 10.088}, {"pitch": 67, "velocity": 73, "note_on_time": 10.281, "note_off_time": 10.41}, {"pitch": 67, "velocity": 59, "note_on_time": 10.6, "note_off_time": 10.697}, {"pitch": 67, "velocity": 81, "note_on_time": 10.891, "note_off_time": 11.068}]</notes><guidance name="Guidance Mode">None</guidance><error name="Error value">0.014777777777777697</error></trial><trial trial_no="2" timestamp="2022_12_08-10_24_37"><notes name="Played Notes">[{"pitch": 64, "velocity": 60, "note_on_time": 1.302, "note_off_time": 1.56}, {"pitch": 65, "velocity": 68, "note_on_time": 1.569, "note_off_time": 1.877}, {"pitch": 67, "velocity": 69, "note_on_time": 1.9, "note_off_time": 2.21}, {"pitch": 65, "velocity": 66, "note_on_time": 2.201, "note_off_time": 2.472}, {"pitch": 62, "velocity": 55, "note_on_time": 2.477, "note_off_time": 2.827}, {"pitch": 64, "velocity": 72, "note_on_time": 2.812, "note_off_time": 3.119}, {"pitch": 67, "velocity": 71, "note_on_time": 3.109, "note_off_time": 3.403}, {"pitch": 60, "velocity": 55, "note_on_time": 3.395, "note_off_time": 3.776}, {"pitch": 64, "velocity": 66, "note_on_time": 3.761, "note_off_time": 4.044}, {"pitch": 65, "velocity": 64, "note_on_time": 4.055, "note_off_time": 4.4}, {"pitch": 64, "velocity": 64, "note_on_time": 4.359, "note_off_time": 4.704}, {"pitch": 62, "velocity": 54, "note_on_time": 4.704, "note_off_time": 4.972}, {"pitch": 64, "velocity": 63, "note_on_time": 4.976, "note_off_time": 5.292}, {"pitch": 62, "velocity": 61, "note_on_time": 5.306, "note_off_time": 5.925}, {"pitch": 60, "velocity": 73, "note_on_time": 5.928, "note_off_time": 6.258}, {"pitch": 64, "velocity": 74, "note_on_time": 6.253, "note_off_time": 6.533}, {"pitch": 60, "velocity": 70, "note_on_time": 6.538, "note_off_time": 6.886}, {"pitch": 64, "velocity": 72, "note_on_time": 6.874, "note_off_time": 6.985}, {"pitch": 64, "velocity": 68, "note_on_time": 7.165, "note_off_time": 7.499}, {"pitch": 62, "velocity": 61, "note_on_time": 7.502, "note_off_time": 7.798}, {"pitch": 67, "velocity": 68, "note_on_time": 7.787, "note_off_time": 8.115}, {"pitch": 62, "velocity": 60, "note_on_time": 8.126, "note_off_time": 8.423}, {"pitch": 64, "velocity": 65, "note_on_time": 8.412, "note_off_time": 8.739}, {"pitch": 62, "velocity": 41, "note_on_time": 8.729, "note_off_time": 9.061}, {"pitch": 64, "velocity": 70, "note_on_time": 9.064, "note_off_time": 9.376}, {"pitch": 67, "velocity": 67, "note_on_time": 9.36, "note_off_time": 9.503}, {"pitch": 67, "velocity": 76, "note_on_time": 9.661, "note_off_time": 9.983}, {"pitch": 67, "velocity": 65, "note_on_time": 10.317, "note_off_time": 10.426}, {"pitch": 67, "velocity": 73, "note_on_time": 10.628, "note_off_time": 10.75}, {"pitch": 67, "velocity": 73, "note_on_time": 10.935, "note_off_time": 11.097}]</notes><guidance name="Guidance Mode">None</guidance><error name="Error value">0.02455555555555536</error></trial></trials></MIDI>