<MIDI midiNo="2022_11_10-10_47_10"><target_notes><notes name="Note List">[{"pitch": 42, "velocity": 80, "note_on_time": 0.005, "note_off_time": 0.374}, {"pitch": 42, "velocity": 80, "note_on_time": 0.374, "note_off_time": 0.748}, {"pitch": 42, "velocity": 80, "note_on_time": 0.749, "note_off_time": 1.124}, {"pitch": 42, "velocity": 80, "note_on_time": 1.124, "note_off_time": 1.495}, {"pitch": 42, "velocity": 80, "note_on_time": 1.495, "note_off_time": 1.868}, {"pitch": 67, "velocity": 80, "note_on_time": 1.495, "note_off_time": 2.242}, {"pitch": 42, "velocity": 80, "note_on_time": 1.868, "note_off_time": 2.243}, {"pitch": 64, "velocity": 80, "note_on_time": 2.242, "note_off_time": 2.616}, {"pitch": 42, "velocity": 80, "note_on_time": 2.243, "note_off_time": 2.616}, {"pitch": 42, "velocity": 80, "note_on_time": 2.616, "note_off_time": 2.99}, {"pitch": 67, "velocity": 80, "note_on_time": 2.99, "note_off_time": 3.363}, {"pitch": 42, "velocity": 80, "note_on_time": 2.99, "note_off_time": 3.363}, {"pitch": 60, "velocity": 80, "note_on_time": 3.363, "note_off_time": 3.739}, {"pitch": 42, "velocity": 80, "note_on_time": 3.364, "note_off_time": 3.739}, {"pitch": 62, "velocity": 80, "note_on_time": 3.739, "note_off_time": 4.112}, {"pitch": 42, "velocity": 80, "note_on_time": 3.74, "note_off_time": 4.112}, {"pitch": 60, "velocity": 80, "note_on_time": 4.112, "note_off_time": 4.485}, {"pitch": 42, "velocity": 80, "note_on_time": 4.112, "note_off_time": 4.485}, {"pitch": 42, "velocity": 80, "note_on_time": 4.485, "note_off_time": 4.857}, {"pitch": 67, "velocity": 80, "note_on_time": 4.485, "note_off_time": 5.228}, {"pitch": 42, "velocity": 80, "note_on_time": 4.858, "note_off_time": 5.228}, {"pitch": 42, "velocity": 80, "note_on_time": 5.228, "note_off_time": 5.601}, {"pitch": 64, "velocity": 80, "note_on_time": 5.228, "note_off_time": 5.974}, {"pitch": 42, "velocity": 80, "note_on_time": 5.602, "note_off_time": 5.975}, {"pitch": 65, "velocity": 80, "note_on_time": 5.974, "note_off_time": 6.348}, {"pitch": 42, "velocity": 80, "note_on_time": 5.975, "note_off_time": 6.348}, {"pitch": 67, "velocity": 80, "note_on_time": 6.348, "note_off_time": 6.722}, {"pitch": 42, "velocity": 80, "note_on_time": 6.348, "note_off_time": 6.722}, {"pitch": 60, "velocity": 80, "note_on_time": 6.722, "note_off_time": 7.096}, {"pitch": 42, "velocity": 80, "note_on_time": 6.722, "note_off_time": 7.096}, {"pitch": 60, "velocity": 80, "note_on_time": 7.096, "note_off_time": 7.468}, {"pitch": 42, "velocity": 80, "note_on_time": 7.097, "note_off_time": 7.468}, {"pitch": 60, "velocity": 80, "note_on_time": 7.468, "note_off_time": 7.842}, {"pitch": 42, "velocity": 80, "note_on_time": 7.468, "note_off_time": 7.843}, {"pitch": 65, "velocity": 80, "note_on_time": 7.842, "note_off_time": 8.214}, {"pitch": 42, "velocity": 80, "note_on_time": 7.843, "note_off_time": 8.214}, {"pitch": 65, "velocity": 80, "note_on_time": 8.214, "note_off_time": 8.588}, {"pitch": 42, "velocity": 80, "note_on_time": 8.215, "note_off_time": 8.588}, {"pitch": 62, "velocity": 80, "note_on_time": 8.588, "note_off_time": 8.962}, {"pitch": 42, "velocity": 80, "note_on_time": 8.588, "note_off_time": 8.962}, {"pitch": 60, "velocity": 80, "note_on_time": 8.962, "note_off_time": 9.333}, {"pitch": 42, "velocity": 80, "note_on_time": 8.962, "note_off_time": 9.333}, {"pitch": 60, "velocity": 80, "note_on_time": 9.333, "note_off_time": 9.706}, {"pitch": 42, "velocity": 80, "note_on_time": 9.334, "note_off_time": 9.706}, {"pitch": 67, "velocity": 80, "note_on_time": 9.706, "note_off_time": 10.078}, {"pitch": 42, "velocity": 80, "note_on_time": 9.706, "note_off_time": 10.078}, {"pitch": 67, "velocity": 80, "note_on_time": 10.078, "note_off_time": 10.452}, {"pitch": 42, "velocity": 80, "note_on_time": 10.079, "note_off_time": 10.452}, {"pitch": 62, "velocity": 80, "note_on_time": 10.452, "note_off_time": 10.826}, {"pitch": 42, "velocity": 80, "note_on_time": 10.452, "note_off_time": 10.826}, {"pitch": 64, "velocity": 80, "note_on_time": 10.826, "note_off_time": 11.2}, {"pitch": 42, "velocity": 80, "note_on_time": 10.826, "note_off_time": 11.201}, {"pitch": 65, "velocity": 80, "note_on_time": 11.2, "note_off_time": 11.572}, {"pitch": 42, "velocity": 80, "note_on_time": 11.201, "note_off_time": 11.573}, {"pitch": 64, "velocity": 80, "note_on_time": 11.572, "note_off_time": 11.946}, {"pitch": 42, "velocity": 80, "note_on_time": 11.573, "note_off_time": 11.946}, {"pitch": 42, "velocity": 80, "note_on_time": 11.947, "note_off_time": 12.317}, {"pitch": 64, "velocity": 80, "note_on_time": 12.317, "note_off_time": 12.69}, {"pitch": 42, "velocity": 80, "note_on_time": 12.317, "note_off_time": 12.69}, {"pitch": 64, "velocity": 80, "note_on_time": 12.69, "note_off_time": 13.064}, {"pitch": 42, "velocity": 80, "note_on_time": 12.691, "note_off_time": 13.064}, {"pitch": 64, "velocity": 80, "note_on_time": 13.064, "note_off_time": 13.436}, {"pitch": 42, "velocity": 80, "note_on_time": 13.064, "note_off_time": 13.436}]</notes><options name="Option List">((4, 4), [0.5, 0.25], 3, 8, &lt;NoteRangePerHand.C_TO_G: 6&gt;, &lt;NoteRangePerHand.ONE_NOTE: 2&gt;, False, True, False, 166)</options></target_notes><trials><trial trial_no="1" timestamp="2022_11_10-10_46_55"><notes name="Played Notes">[{"pitch": 67, "velocity": 81, "note_on_time": 1.487, "note_off_time": 1.898}, {"pitch": 62, "velocity": 68, "note_on_time": 2.403, "note_off_time": 2.483}, {"pitch": 60, "velocity": 78, "note_on_time": 2.402, "note_off_time": 2.496}, {"pitch": 65, "velocity": 65, "note_on_time": 4.902, "note_off_time": 5.196}, {"pitch": 67, "velocity": 78, "note_on_time": 7.882, "note_off_time": 8.259}, {"pitch": 64, "velocity": 69, "note_on_time": 8.652, "note_off_time": 9.002}, {"pitch": 67, "velocity": 67, "note_on_time": 9.338, "note_off_time": 9.49}, {"pitch": 60, "velocity": 57, "note_on_time": 9.714, "note_off_time": 9.856}, {"pitch": 62, "velocity": 65, "note_on_time": 10.076, "note_off_time": 10.21}, {"pitch": 60, "velocity": 72, "note_on_time": 10.479, "note_off_time": 10.624}, {"pitch": 67, "velocity": 64, "note_on_time": 10.948, "note_off_time": 11.185}, {"pitch": 64, "velocity": 76, "note_on_time": 11.623, "note_off_time": 11.816}, {"pitch": 62, "velocity": 70, "note_on_time": 12.171, "note_off_time": 12.379}]</notes><guidance name="Guidance Mode">None</guidance><error name="Error value">1.161199375</error></trial><trial trial_no="2" timestamp="2022_11_10-10_47_42"><notes name="Played Notes">[{"pitch": 64, "velocity": 11, "note_on_time": 0.838, "note_off_time": 1.017}, {"pitch": 67, "velocity": 68, "note_on_time": 4.849, "note_off_time": 5.218}, {"pitch": 64, "velocity": 74, "note_on_time": 5.623, "note_off_time": 5.886}, {"pitch": 67, "velocity": 72, "note_on_time": 6.297, "note_off_time": 6.426}, {"pitch": 60, "velocity": 68, "note_on_time": 6.697, "note_off_time": 6.837}, {"pitch": 62, "velocity": 64, "note_on_time": 7.086, "note_off_time": 7.215}, {"pitch": 60, "velocity": 48, "note_on_time": 7.463, "note_off_time": 7.566}, {"pitch": 67, "velocity": 66, "note_on_time": 7.825, "note_off_time": 7.975}, {"pitch": 65, "velocity": 67, "note_on_time": 8.507, "note_off_time": 8.642}, {"pitch": 64, "velocity": 72, "note_on_time": 12.54, "note_off_time": 12.714}, {"pitch": 65, "velocity": 73, "note_on_time": 12.965, "note_off_time": 13.124}]</notes><guidance name="Guidance Mode">None</guidance><error name="Error value">1.2196531249999998</error></trial></trials></MIDI>