<MIDI midiNo="2022_11_14-18_39_53"><target_notes><notes name="Note List">[{"pitch": 42, "velocity": 80, "note_on_time": 0.004, "note_off_time": 0.222}, {"pitch": 42, "velocity": 80, "note_on_time": 0.223, "note_off_time": 0.439}, {"pitch": 42, "velocity": 80, "note_on_time": 0.439, "note_off_time": 0.657}, {"pitch": 42, "velocity": 80, "note_on_time": 0.657, "note_off_time": 0.874}, {"pitch": 42, "velocity": 80, "note_on_time": 0.874, "note_off_time": 1.094}, {"pitch": 65, "velocity": 80, "note_on_time": 0.874, "note_off_time": 1.312}, {"pitch": 42, "velocity": 80, "note_on_time": 1.094, "note_off_time": 1.312}, {"pitch": 42, "velocity": 80, "note_on_time": 1.312, "note_off_time": 1.529}, {"pitch": 42, "velocity": 80, "note_on_time": 1.529, "note_off_time": 1.748}, {"pitch": 62, "velocity": 80, "note_on_time": 1.748, "note_off_time": 1.966}, {"pitch": 42, "velocity": 80, "note_on_time": 1.748, "note_off_time": 1.966}, {"pitch": 62, "velocity": 80, "note_on_time": 1.966, "note_off_time": 2.186}, {"pitch": 42, "velocity": 80, "note_on_time": 1.966, "note_off_time": 2.186}, {"pitch": 60, "velocity": 80, "note_on_time": 2.186, "note_off_time": 2.404}, {"pitch": 42, "velocity": 80, "note_on_time": 2.186, "note_off_time": 2.404}, {"pitch": 64, "velocity": 80, "note_on_time": 2.404, "note_off_time": 2.621}, {"pitch": 42, "velocity": 80, "note_on_time": 2.404, "note_off_time": 2.621}, {"pitch": 65, "velocity": 80, "note_on_time": 2.621, "note_off_time": 2.839}, {"pitch": 42, "velocity": 80, "note_on_time": 2.621, "note_off_time": 2.839}, {"pitch": 62, "velocity": 80, "note_on_time": 2.839, "note_off_time": 3.058}, {"pitch": 42, "velocity": 80, "note_on_time": 2.839, "note_off_time": 3.058}, {"pitch": 65, "velocity": 80, "note_on_time": 3.058, "note_off_time": 3.275}, {"pitch": 42, "velocity": 80, "note_on_time": 3.058, "note_off_time": 3.275}, {"pitch": 62, "velocity": 80, "note_on_time": 3.275, "note_off_time": 3.492}, {"pitch": 42, "velocity": 80, "note_on_time": 3.275, "note_off_time": 3.492}, {"pitch": 62, "velocity": 80, "note_on_time": 3.492, "note_off_time": 3.71}, {"pitch": 42, "velocity": 80, "note_on_time": 3.492, "note_off_time": 3.71}, {"pitch": 42, "velocity": 80, "note_on_time": 3.71, "note_off_time": 3.927}, {"pitch": 65, "velocity": 80, "note_on_time": 3.71, "note_off_time": 4.148}, {"pitch": 42, "velocity": 80, "note_on_time": 3.927, "note_off_time": 4.148}, {"pitch": 62, "velocity": 80, "note_on_time": 4.148, "note_off_time": 4.369}, {"pitch": 42, "velocity": 80, "note_on_time": 4.148, "note_off_time": 4.369}, {"pitch": 64, "velocity": 80, "note_on_time": 4.369, "note_off_time": 4.587}, {"pitch": 42, "velocity": 80, "note_on_time": 4.369, "note_off_time": 4.587}, {"pitch": 65, "velocity": 80, "note_on_time": 4.587, "note_off_time": 4.804}, {"pitch": 42, "velocity": 80, "note_on_time": 4.587, "note_off_time": 4.804}, {"pitch": 65, "velocity": 80, "note_on_time": 4.804, "note_off_time": 5.025}, {"pitch": 42, "velocity": 80, "note_on_time": 4.804, "note_off_time": 5.025}, {"pitch": 60, "velocity": 80, "note_on_time": 5.025, "note_off_time": 5.243}, {"pitch": 42, "velocity": 80, "note_on_time": 5.025, "note_off_time": 5.243}, {"pitch": 42, "velocity": 80, "note_on_time": 5.243, "note_off_time": 5.462}, {"pitch": 60, "velocity": 80, "note_on_time": 5.243, "note_off_time": 5.681}, {"pitch": 42, "velocity": 80, "note_on_time": 5.462, "note_off_time": 5.681}, {"pitch": 42, "velocity": 80, "note_on_time": 5.681, "note_off_time": 5.898}, {"pitch": 42, "velocity": 80, "note_on_time": 5.898, "note_off_time": 6.116}, {"pitch": 64, "velocity": 80, "note_on_time": 6.116, "note_off_time": 6.334}, {"pitch": 42, "velocity": 80, "note_on_time": 6.116, "note_off_time": 6.334}, {"pitch": 65, "velocity": 80, "note_on_time": 6.334, "note_off_time": 6.553}, {"pitch": 42, "velocity": 80, "note_on_time": 6.334, "note_off_time": 6.553}, {"pitch": 60, "velocity": 80, "note_on_time": 6.553, "note_off_time": 6.773}, {"pitch": 42, "velocity": 80, "note_on_time": 6.554, "note_off_time": 6.773}, {"pitch": 62, "velocity": 80, "note_on_time": 6.773, "note_off_time": 6.993}, {"pitch": 42, "velocity": 80, "note_on_time": 6.774, "note_off_time": 6.993}, {"pitch": 42, "velocity": 80, "note_on_time": 6.993, "note_off_time": 7.21}, {"pitch": 62, "velocity": 80, "note_on_time": 7.21, "note_off_time": 7.428}, {"pitch": 42, "velocity": 80, "note_on_time": 7.211, "note_off_time": 7.428}, {"pitch": 62, "velocity": 80, "note_on_time": 7.428, "note_off_time": 7.646}, {"pitch": 42, "velocity": 80, "note_on_time": 7.428, "note_off_time": 7.646}, {"pitch": 62, "velocity": 80, "note_on_time": 7.646, "note_off_time": 7.864}, {"pitch": 42, "velocity": 80, "note_on_time": 7.646, "note_off_time": 7.864}]</notes><options name="Option List">((4, 4), [0.5, 0.25], 3, 8, &lt;NoteRangePerHand.FOUR_NOTES: 5&gt;, &lt;NoteRangePerHand.ONE_NOTE: 2&gt;, False, True, False, '281')</options></target_notes><trials><trial trial_no="1" timestamp="2022_11_14-18_39_44"><notes name="Played Notes">[{"pitch": 65, "velocity": 90, "note_on_time": 0.927, "note_off_time": 1.277}, {"pitch": 62, "velocity": 78, "note_on_time": 1.797, "note_off_time": 1.939}, {"pitch": 62, "velocity": 75, "note_on_time": 2.037, "note_off_time": 2.315}, {"pitch": 60, "velocity": 90, "note_on_time": 2.301, "note_off_time": 2.532}, {"pitch": 64, "velocity": 85, "note_on_time": 2.542, "note_off_time": 2.815}, {"pitch": 65, "velocity": 78, "note_on_time": 2.807, "note_off_time": 3.065}, {"pitch": 62, "velocity": 84, "note_on_time": 3.057, "note_off_time": 3.309}, {"pitch": 65, "velocity": 80, "note_on_time": 3.319, "note_off_time": 3.606}, {"pitch": 62, "velocity": 79, "note_on_time": 3.58, "note_off_time": 3.671}, {"pitch": 62, "velocity": 94, "note_on_time": 3.838, "note_off_time": 4.106}, {"pitch": 65, "velocity": 80, "note_on_time": 4.085, "note_off_time": 4.613}, {"pitch": 62, "velocity": 74, "note_on_time": 4.642, "note_off_time": 4.933}, {"pitch": 64, "velocity": 84, "note_on_time": 4.927, "note_off_time": 5.199}, {"pitch": 65, "velocity": 80, "note_on_time": 5.182, "note_off_time": 5.512}, {"pitch": 64, "velocity": 86, "note_on_time": 5.459, "note_off_time": 5.687}, {"pitch": 60, "velocity": 82, "note_on_time": 6.127, "note_off_time": 6.259}, {"pitch": 60, "velocity": 82, "note_on_time": 6.383, "note_off_time": 6.613}, {"pitch": 64, "velocity": 82, "note_on_time": 6.693, "note_off_time": 6.979}, {"pitch": 65, "velocity": 76, "note_on_time": 6.971, "note_off_time": 7.239}, {"pitch": 60, "velocity": 81, "note_on_time": 7.279, "note_off_time": 7.519}, {"pitch": 62, "velocity": 68, "note_on_time": 7.544, "note_off_time": 7.723}]</notes><guidance name="Guidance Mode">None</guidance><error name="Error value">0.5621048095238094</error></trial><trial trial_no="2" timestamp="2022_11_14-18_40_04"><notes name="Played Notes">[{"pitch": 65, "velocity": 85, "note_on_time": 0.906, "note_off_time": 1.308}, {"pitch": 62, "velocity": 79, "note_on_time": 1.767, "note_off_time": 2.033}, {"pitch": 60, "velocity": 84, "note_on_time": 2.006, "note_off_time": 2.208}, {"pitch": 60, "velocity": 88, "note_on_time": 2.337, "note_off_time": 2.802}, {"pitch": 64, "velocity": 71, "note_on_time": 2.982, "note_off_time": 3.302}, {"pitch": 65, "velocity": 70, "note_on_time": 3.278, "note_off_time": 3.507}, {"pitch": 62, "velocity": 69, "note_on_time": 3.514, "note_off_time": 3.717}, {"pitch": 65, "velocity": 65, "note_on_time": 3.74, "note_off_time": 4.006}, {"pitch": 62, "velocity": 73, "note_on_time": 3.999, "note_off_time": 4.253}, {"pitch": 62, "velocity": 71, "note_on_time": 4.344, "note_off_time": 4.588}, {"pitch": 65, "velocity": 73, "note_on_time": 4.582, "note_off_time": 4.964}, {"pitch": 62, "velocity": 49, "note_on_time": 4.886, "note_off_time": 5.457}, {"pitch": 65, "velocity": 70, "note_on_time": 5.587, "note_off_time": 5.787}, {"pitch": 65, "velocity": 64, "note_on_time": 6.062, "note_off_time": 6.392}, {"pitch": 60, "velocity": 74, "note_on_time": 6.376, "note_off_time": 6.777}, {"pitch": 60, "velocity": 79, "note_on_time": 7.046, "note_off_time": 7.463}]</notes><guidance name="Guidance Mode">None</guidance><error name="Error value">1.1788820476190476</error></trial><trial trial_no="3" timestamp="2022_11_14-18_40_22"><notes name="Played Notes">[{"pitch": 65, "velocity": 77, "note_on_time": 0.982, "note_off_time": 1.328}, {"pitch": 62, "velocity": 82, "note_on_time": 1.804, "note_off_time": 1.914}, {"pitch": 62, "velocity": 98, "note_on_time": 2.061, "note_off_time": 2.308}, {"pitch": 60, "velocity": 88, "note_on_time": 2.317, "note_off_time": 2.584}, {"pitch": 64, "velocity": 86, "note_on_time": 2.562, "note_off_time": 2.844}, {"pitch": 65, "velocity": 81, "note_on_time": 2.807, "note_off_time": 3.02}, {"pitch": 62, "velocity": 79, "note_on_time": 3.027, "note_off_time": 3.25}, {"pitch": 65, "velocity": 77, "note_on_time": 3.261, "note_off_time": 3.516}, {"pitch": 62, "velocity": 75, "note_on_time": 3.51, "note_off_time": 3.706}, {"pitch": 62, "velocity": 90, "note_on_time": 3.783, "note_off_time": 4.045}, {"pitch": 65, "velocity": 92, "note_on_time": 4.034, "note_off_time": 4.463}, {"pitch": 62, "velocity": 86, "note_on_time": 4.475, "note_off_time": 4.738}, {"pitch": 64, "velocity": 78, "note_on_time": 4.755, "note_off_time": 5.028}, {"pitch": 65, "velocity": 82, "note_on_time": 5.003, "note_off_time": 5.353}, {"pitch": 65, "velocity": 78, "note_on_time": 5.446, "note_off_time": 5.714}, {"pitch": 60, "velocity": 89, "note_on_time": 5.713, "note_off_time": 5.94}, {"pitch": 60, "velocity": 92, "note_on_time": 6.031, "note_off_time": 6.424}, {"pitch": 64, "velocity": 86, "note_on_time": 6.693, "note_off_time": 6.94}, {"pitch": 65, "velocity": 72, "note_on_time": 6.951, "note_off_time": 7.204}, {"pitch": 60, "velocity": 75, "note_on_time": 7.209, "note_off_time": 7.43}, {"pitch": 62, "velocity": 76, "note_on_time": 7.454, "note_off_time": 7.551}, {"pitch": 62, "velocity": 77, "note_on_time": 7.704, "note_off_time": 7.794}]</notes><guidance name="Guidance Mode">None</guidance><error name="Error value">0.1690864761904761</error></trial><trial trial_no="4" timestamp="2022_11_14-18_40_42"><notes name="Played Notes">[{"pitch": 65, "velocity": 70, "note_on_time": 0.944, "note_off_time": 1.325}, {"pitch": 62, "velocity": 81, "note_on_time": 1.809, "note_off_time": 1.913}, {"pitch": 62, "velocity": 90, "note_on_time": 2.06, "note_off_time": 2.332}, {"pitch": 60, "velocity": 84, "note_on_time": 2.321, "note_off_time": 2.57}, {"pitch": 64, "velocity": 84, "note_on_time": 2.563, "note_off_time": 2.837}, {"pitch": 65, "velocity": 80, "note_on_time": 2.811, "note_off_time": 3.043}, {"pitch": 62, "velocity": 74, "note_on_time": 3.048, "note_off_time": 3.278}, {"pitch": 65, "velocity": 69, "note_on_time": 3.287, "note_off_time": 3.545}, {"pitch": 62, "velocity": 73, "note_on_time": 3.537, "note_off_time": 3.669}, {"pitch": 62, "velocity": 80, "note_on_time": 3.777, "note_off_time": 4.031}, {"pitch": 65, "velocity": 78, "note_on_time": 4.021, "note_off_time": 4.533}, {"pitch": 62, "velocity": 82, "note_on_time": 4.565, "note_off_time": 4.848}, {"pitch": 64, "velocity": 77, "note_on_time": 4.851, "note_off_time": 5.177}, {"pitch": 65, "velocity": 79, "note_on_time": 5.128, "note_off_time": 5.231}, {"pitch": 65, "velocity": 85, "note_on_time": 5.387, "note_off_time": 5.666}, {"pitch": 60, "velocity": 82, "note_on_time": 5.668, "note_off_time": 5.785}, {"pitch": 60, "velocity": 90, "note_on_time": 5.937, "note_off_time": 6.321}, {"pitch": 64, "velocity": 80, "note_on_time": 6.578, "note_off_time": 6.867}, {"pitch": 65, "velocity": 76, "note_on_time": 6.839, "note_off_time": 7.122}, {"pitch": 60, "velocity": 94, "note_on_time": 7.16, "note_off_time": 7.291}, {"pitch": 62, "velocity": 84, "note_on_time": 7.429, "note_off_time": 7.808}]</notes><guidance name="Guidance Mode">None</guidance><error name="Error value">0.26779419047619046</error></trial><trial trial_no="5" timestamp="2022_11_14-18_41_03"><notes name="Played Notes">[{"pitch": 65, "velocity": 85, "note_on_time": 0.965, "note_off_time": 1.358}, {"pitch": 62, "velocity": 86, "note_on_time": 1.755, "note_off_time": 1.853}, {"pitch": 62, "velocity": 91, "note_on_time": 2.011, "note_off_time": 2.251}, {"pitch": 60, "velocity": 90, "note_on_time": 2.265, "note_off_time": 2.509}, {"pitch": 64, "velocity": 84, "note_on_time": 2.498, "note_off_time": 2.794}, {"pitch": 65, "velocity": 83, "note_on_time": 2.753, "note_off_time": 2.987}, {"pitch": 62, "velocity": 76, "note_on_time": 2.997, "note_off_time": 3.24}, {"pitch": 65, "velocity": 80, "note_on_time": 3.243, "note_off_time": 3.511}, {"pitch": 62, "velocity": 79, "note_on_time": 3.5, "note_off_time": 3.676}, {"pitch": 62, "velocity": 84, "note_on_time": 3.758, "note_off_time": 4.041}, {"pitch": 65, "velocity": 86, "note_on_time": 4.023, "note_off_time": 4.598}, {"pitch": 62, "velocity": 79, "note_on_time": 4.607, "note_off_time": 4.901}, {"pitch": 64, "velocity": 84, "note_on_time": 4.89, "note_off_time": 5.208}, {"pitch": 65, "velocity": 88, "note_on_time": 5.163, "note_off_time": 5.279}, {"pitch": 65, "velocity": 96, "note_on_time": 5.432, "note_off_time": 5.754}, {"pitch": 60, "velocity": 85, "note_on_time": 5.725, "note_off_time": 5.871}, {"pitch": 60, "velocity": 94, "note_on_time": 6.009, "note_off_time": 6.448}, {"pitch": 64, "velocity": 80, "note_on_time": 6.76, "note_off_time": 7.045}, {"pitch": 65, "velocity": 81, "note_on_time": 7.01, "note_off_time": 7.311}, {"pitch": 62, "velocity": 75, "note_on_time": 7.301, "note_off_time": 7.445}, {"pitch": 60, "velocity": 82, "note_on_time": 7.535, "note_off_time": 7.774}]</notes><guidance name="Guidance Mode">None</guidance><error name="Error value">0.27153995238095235</error></trial></trials></MIDI>