<MIDI midiNo="2022_09_08-11_52_08"><target_notes><notes name="Note List">[{"pitch": 42, "velocity": 80, "note_on_time": 0.004, "note_off_time": 0.606}, {"pitch": 42, "velocity": 80, "note_on_time": 0.607, "note_off_time": 1.213}, {"pitch": 42, "velocity": 80, "note_on_time": 1.214, "note_off_time": 1.82}, {"pitch": 42, "velocity": 80, "note_on_time": 1.821, "note_off_time": 2.427}, {"pitch": 60, "velocity": 80, "note_on_time": 2.427, "note_off_time": 3.031}, {"pitch": 42, "velocity": 80, "note_on_time": 2.427, "note_off_time": 3.032}, {"pitch": 42, "velocity": 80, "note_on_time": 3.032, "note_off_time": 3.642}, {"pitch": 64, "velocity": 80, "note_on_time": 3.031, "note_off_time": 4.248}, {"pitch": 42, "velocity": 80, "note_on_time": 3.642, "note_off_time": 4.249}, {"pitch": 60, "velocity": 80, "note_on_time": 4.248, "note_off_time": 4.856}, {"pitch": 42, "velocity": 80, "note_on_time": 4.249, "note_off_time": 4.857}, {"pitch": 62, "velocity": 80, "note_on_time": 4.857, "note_off_time": 5.462}, {"pitch": 42, "velocity": 80, "note_on_time": 4.857, "note_off_time": 5.462}, {"pitch": 62, "velocity": 80, "note_on_time": 5.462, "note_off_time": 6.069}, {"pitch": 42, "velocity": 80, "note_on_time": 5.462, "note_off_time": 6.069}, {"pitch": 64, "velocity": 80, "note_on_time": 6.069, "note_off_time": 6.675}, {"pitch": 42, "velocity": 80, "note_on_time": 6.069, "note_off_time": 6.675}, {"pitch": 64, "velocity": 80, "note_on_time": 6.675, "note_off_time": 7.282}, {"pitch": 42, "velocity": 80, "note_on_time": 6.675, "note_off_time": 7.282}, {"pitch": 64, "velocity": 80, "note_on_time": 7.282, "note_off_time": 7.888}, {"pitch": 42, "velocity": 80, "note_on_time": 7.283, "note_off_time": 7.889}, {"pitch": 42, "velocity": 80, "note_on_time": 7.889, "note_off_time": 8.498}, {"pitch": 42, "velocity": 80, "note_on_time": 8.498, "note_off_time": 9.108}, {"pitch": 42, "velocity": 80, "note_on_time": 9.109, "note_off_time": 9.714}, {"pitch": 62, "velocity": 80, "note_on_time": 9.714, "note_off_time": 10.322}, {"pitch": 42, "velocity": 80, "note_on_time": 9.714, "note_off_time": 10.323}, {"pitch": 64, "velocity": 80, "note_on_time": 10.322, "note_off_time": 10.93}, {"pitch": 42, "velocity": 80, "note_on_time": 10.323, "note_off_time": 10.931}, {"pitch": 64, "velocity": 80, "note_on_time": 10.93, "note_off_time": 11.538}, {"pitch": 42, "velocity": 80, "note_on_time": 10.931, "note_off_time": 11.539}, {"pitch": 62, "velocity": 80, "note_on_time": 11.538, "note_off_time": 12.145}, {"pitch": 42, "velocity": 80, "note_on_time": 11.539, "note_off_time": 12.146}, {"pitch": 62, "velocity": 80, "note_on_time": 12.145, "note_off_time": 12.751}, {"pitch": 42, "velocity": 80, "note_on_time": 12.146, "note_off_time": 12.751}, {"pitch": 42, "velocity": 80, "note_on_time": 12.752, "note_off_time": 13.356}, {"pitch": 42, "velocity": 80, "note_on_time": 13.357, "note_off_time": 13.965}, {"pitch": 64, "velocity": 80, "note_on_time": 13.965, "note_off_time": 14.571}, {"pitch": 42, "velocity": 80, "note_on_time": 13.966, "note_off_time": 14.572}, {"pitch": 62, "velocity": 80, "note_on_time": 14.571, "note_off_time": 15.18}, {"pitch": 42, "velocity": 80, "note_on_time": 14.572, "note_off_time": 15.181}, {"pitch": 42, "velocity": 80, "note_on_time": 15.181, "note_off_time": 15.785}, {"pitch": 60, "velocity": 80, "note_on_time": 15.18, "note_off_time": 16.389}, {"pitch": 42, "velocity": 80, "note_on_time": 15.785, "note_off_time": 16.39}, {"pitch": 60, "velocity": 80, "note_on_time": 16.389, "note_off_time": 16.996}, {"pitch": 42, "velocity": 80, "note_on_time": 16.39, "note_off_time": 16.996}, {"pitch": 62, "velocity": 80, "note_on_time": 16.996, "note_off_time": 17.603}, {"pitch": 42, "velocity": 80, "note_on_time": 16.996, "note_off_time": 17.603}, {"pitch": 62, "velocity": 80, "note_on_time": 17.603, "note_off_time": 18.214}, {"pitch": 42, "velocity": 80, "note_on_time": 17.604, "note_off_time": 18.215}, {"pitch": 60, "velocity": 80, "note_on_time": 18.214, "note_off_time": 18.821}, {"pitch": 42, "velocity": 80, "note_on_time": 18.215, "note_off_time": 18.821}, {"pitch": 60, "velocity": 80, "note_on_time": 18.821, "note_off_time": 19.428}, {"pitch": 42, "velocity": 80, "note_on_time": 18.821, "note_off_time": 19.428}, {"pitch": 42, "velocity": 80, "note_on_time": 19.428, "note_off_time": 20.033}, {"pitch": 60, "velocity": 80, "note_on_time": 20.032, "note_off_time": 20.642}, {"pitch": 42, "velocity": 80, "note_on_time": 20.033, "note_off_time": 20.642}, {"pitch": 60, "velocity": 80, "note_on_time": 20.642, "note_off_time": 21.249}, {"pitch": 42, "velocity": 80, "note_on_time": 20.643, "note_off_time": 21.249}, {"pitch": 60, "velocity": 80, "note_on_time": 21.249, "note_off_time": 21.857}, {"pitch": 42, "velocity": 80, "note_on_time": 21.25, "note_off_time": 21.858}]</notes><options name="Option List">((4, 4), [0.5, 0.25], 3, 8, &lt;NoteRangePerHand.THREE_NOTES: 4&gt;, &lt;NoteRangePerHand.ONE_NOTE: 2&gt;, False, True, True, '100')</options></target_notes><trials><trial trial_no="1" timestamp="2022_09_08-11_51_44"><notes name="Played Notes">[{"pitch": 60, "velocity": 82, "note_on_time": 2.496, "note_off_time": 2.747}, {"pitch": 64, "velocity": 86, "note_on_time": 3.037, "note_off_time": 3.789}, {"pitch": 60, "velocity": 85, "note_on_time": 4.111, "note_off_time": 4.293}, {"pitch": 62, "velocity": 94, "note_on_time": 4.654, "note_off_time": 4.778}, {"pitch": 62, "velocity": 88, "note_on_time": 5.204, "note_off_time": 5.34}, {"pitch": 64, "velocity": 88, "note_on_time": 5.712, "note_off_time": 5.861}, {"pitch": 64, "velocity": 92, "note_on_time": 6.275, "note_off_time": 6.423}, {"pitch": 62, "velocity": 88, "note_on_time": 8.86, "note_off_time": 9.045}, {"pitch": 64, "velocity": 84, "note_on_time": 9.402, "note_off_time": 9.559}, {"pitch": 64, "velocity": 88, "note_on_time": 9.943, "note_off_time": 10.122}, {"pitch": 62, "velocity": 80, "note_on_time": 10.477, "note_off_time": 10.622}, {"pitch": 62, "velocity": 84, "note_on_time": 11.061, "note_off_time": 11.255}, {"pitch": 64, "velocity": 80, "note_on_time": 12.61, "note_off_time": 12.772}, {"pitch": 62, "velocity": 77, "note_on_time": 13.167, "note_off_time": 13.321}, {"pitch": 60, "velocity": 83, "note_on_time": 13.848, "note_off_time": 14.897}, {"pitch": 60, "velocity": 90, "note_on_time": 15.113, "note_off_time": 15.291}, {"pitch": 62, "velocity": 89, "note_on_time": 15.629, "note_off_time": 15.808}, {"pitch": 62, "velocity": 90, "note_on_time": 16.186, "note_off_time": 16.359}, {"pitch": 60, "velocity": 88, "note_on_time": 16.694, "note_off_time": 16.893}, {"pitch": 60, "velocity": 85, "note_on_time": 17.28, "note_off_time": 17.516}, {"pitch": 60, "velocity": 74, "note_on_time": 18.736, "note_off_time": 18.946}, {"pitch": 60, "velocity": 72, "note_on_time": 19.329, "note_off_time": 19.529}, {"pitch": 60, "velocity": 82, "note_on_time": 19.923, "note_off_time": 20.131}]</notes><guidance name="Guidance Mode">None</guidance><error name="Error value">0.15057142857142858</error></trial><trial trial_no="2" timestamp="2022_09_08-11_52_46"><notes name="Played Notes">[{"pitch": 60, "velocity": 81, "note_on_time": 2.681, "note_off_time": 2.944}, {"pitch": 64, "velocity": 91, "note_on_time": 3.226, "note_off_time": 4.335}, {"pitch": 60, "velocity": 94, "note_on_time": 4.561, "note_off_time": 4.732}, {"pitch": 62, "velocity": 92, "note_on_time": 5.066, "note_off_time": 5.21}, {"pitch": 62, "velocity": 91, "note_on_time": 5.605, "note_off_time": 5.784}, {"pitch": 64, "velocity": 85, "note_on_time": 6.173, "note_off_time": 6.327}, {"pitch": 64, "velocity": 92, "note_on_time": 6.712, "note_off_time": 6.876}, {"pitch": 64, "velocity": 79, "note_on_time": 7.295, "note_off_time": 7.52}, {"pitch": 62, "velocity": 74, "note_on_time": 9.593, "note_off_time": 9.825}, {"pitch": 64, "velocity": 84, "note_on_time": 10.144, "note_off_time": 10.303}, {"pitch": 64, "velocity": 82, "note_on_time": 10.711, "note_off_time": 10.898}, {"pitch": 62, "velocity": 81, "note_on_time": 11.32, "note_off_time": 11.445}, {"pitch": 62, "velocity": 72, "note_on_time": 11.928, "note_off_time": 12.125}, {"pitch": 64, "velocity": 79, "note_on_time": 13.767, "note_off_time": 13.937}, {"pitch": 62, "velocity": 79, "note_on_time": 14.294, "note_off_time": 14.47}, {"pitch": 60, "velocity": 83, "note_on_time": 14.828, "note_off_time": 16.001}, {"pitch": 60, "velocity": 75, "note_on_time": 16.359, "note_off_time": 16.561}, {"pitch": 62, "velocity": 78, "note_on_time": 16.909, "note_off_time": 17.1}, {"pitch": 62, "velocity": 77, "note_on_time": 17.458, "note_off_time": 17.662}, {"pitch": 60, "velocity": 83, "note_on_time": 18.036, "note_off_time": 18.256}, {"pitch": 60, "velocity": 72, "note_on_time": 18.616, "note_off_time": 18.838}, {"pitch": 60, "velocity": 82, "note_on_time": 20.358, "note_off_time": 20.56}, {"pitch": 60, "velocity": 87, "note_on_time": 20.947, "note_off_time": 21.152}, {"pitch": 60, "velocity": 74, "note_on_time": 21.449, "note_off_time": 21.787}]</notes><guidance name="Guidance Mode">None</guidance><error name="Error value">0.0933333333333336</error></trial><trial trial_no="3" timestamp="2022_09_08-11_53_33"><notes name="Played Notes">[{"pitch": 60, "velocity": 85, "note_on_time": 3.001, "note_off_time": 3.241}]</notes><guidance name="Guidance Mode">None</guidance><error name="Error value">1.8095238095238102</error></trial><trial trial_no="4" timestamp="2022_09_08-11_54_16"><notes name="Played Notes">[{"pitch": 60, "velocity": 74, "note_on_time": 2.244, "note_off_time": 2.545}, {"pitch": 64, "velocity": 85, "note_on_time": 2.86, "note_off_time": 3.819}, {"pitch": 60, "velocity": 78, "note_on_time": 4.164, "note_off_time": 4.405}, {"pitch": 62, "velocity": 73, "note_on_time": 4.765, "note_off_time": 4.949}, {"pitch": 62, "velocity": 72, "note_on_time": 5.345, "note_off_time": 5.552}, {"pitch": 64, "velocity": 68, "note_on_time": 5.942, "note_off_time": 6.16}, {"pitch": 64, "velocity": 81, "note_on_time": 6.523, "note_off_time": 6.708}, {"pitch": 64, "velocity": 85, "note_on_time": 7.105, "note_off_time": 7.301}, {"pitch": 62, "velocity": 64, "note_on_time": 9.629, "note_off_time": 9.791}, {"pitch": 64, "velocity": 61, "note_on_time": 10.22, "note_off_time": 10.416}, {"pitch": 64, "velocity": 71, "note_on_time": 10.831, "note_off_time": 11.028}, {"pitch": 62, "velocity": 76, "note_on_time": 11.424, "note_off_time": 11.614}, {"pitch": 62, "velocity": 73, "note_on_time": 12.021, "note_off_time": 12.257}, {"pitch": 64, "velocity": 74, "note_on_time": 13.87, "note_off_time": 14.072}, {"pitch": 62, "velocity": 70, "note_on_time": 14.417, "note_off_time": 14.608}, {"pitch": 60, "velocity": 79, "note_on_time": 14.987, "note_off_time": 15.707}, {"pitch": 60, "velocity": 74, "note_on_time": 16.021, "note_off_time": 16.262}, {"pitch": 62, "velocity": 69, "note_on_time": 16.618, "note_off_time": 16.805}, {"pitch": 62, "velocity": 60, "note_on_time": 17.203, "note_off_time": 17.38}, {"pitch": 60, "velocity": 72, "note_on_time": 17.762, "note_off_time": 17.976}, {"pitch": 60, "velocity": 70, "note_on_time": 18.356, "note_off_time": 18.582}, {"pitch": 60, "velocity": 74, "note_on_time": 19.469, "note_off_time": 19.664}, {"pitch": 60, "velocity": 73, "note_on_time": 20.103, "note_off_time": 20.297}, {"pitch": 60, "velocity": 81, "note_on_time": 20.661, "note_off_time": 20.862}]</notes><guidance name="Guidance Mode">None</guidance><error name="Error value">0.04099999999999999</error></trial></trials></MIDI>