<MIDI midiNo="2022_10_27-13_30_15"><target_notes><notes name="Note List">[{"pitch": 42, "velocity": 80, "note_on_time": 0.004, "note_off_time": 0.266}, {"pitch": 42, "velocity": 80, "note_on_time": 0.266, "note_off_time": 0.53}, {"pitch": 42, "velocity": 80, "note_on_time": 0.531, "note_off_time": 0.795}, {"pitch": 42, "velocity": 80, "note_on_time": 0.796, "note_off_time": 1.062}, {"pitch": 67, "velocity": 80, "note_on_time": 1.062, "note_off_time": 1.325}, {"pitch": 42, "velocity": 80, "note_on_time": 1.062, "note_off_time": 1.325}, {"pitch": 65, "velocity": 80, "note_on_time": 1.325, "note_off_time": 1.59}, {"pitch": 42, "velocity": 80, "note_on_time": 1.325, "note_off_time": 1.59}, {"pitch": 65, "velocity": 80, "note_on_time": 1.59, "note_off_time": 1.854}, {"pitch": 42, "velocity": 80, "note_on_time": 1.59, "note_off_time": 1.855}, {"pitch": 64, "velocity": 80, "note_on_time": 1.854, "note_off_time": 2.119}, {"pitch": 42, "velocity": 80, "note_on_time": 1.855, "note_off_time": 2.119}, {"pitch": 67, "velocity": 80, "note_on_time": 2.119, "note_off_time": 2.384}, {"pitch": 42, "velocity": 80, "note_on_time": 2.119, "note_off_time": 2.384}, {"pitch": 67, "velocity": 80, "note_on_time": 2.384, "note_off_time": 2.65}, {"pitch": 42, "velocity": 80, "note_on_time": 2.384, "note_off_time": 2.65}, {"pitch": 62, "velocity": 80, "note_on_time": 2.65, "note_off_time": 2.913}, {"pitch": 42, "velocity": 80, "note_on_time": 2.651, "note_off_time": 2.913}, {"pitch": 65, "velocity": 80, "note_on_time": 2.913, "note_off_time": 3.178}, {"pitch": 42, "velocity": 80, "note_on_time": 2.913, "note_off_time": 3.178}, {"pitch": 64, "velocity": 80, "note_on_time": 3.178, "note_off_time": 3.442}, {"pitch": 42, "velocity": 80, "note_on_time": 3.178, "note_off_time": 3.442}, {"pitch": 62, "velocity": 80, "note_on_time": 3.442, "note_off_time": 3.705}, {"pitch": 42, "velocity": 80, "note_on_time": 3.443, "note_off_time": 3.706}, {"pitch": 60, "velocity": 80, "note_on_time": 3.705, "note_off_time": 3.969}, {"pitch": 42, "velocity": 80, "note_on_time": 3.706, "note_off_time": 3.969}, {"pitch": 67, "velocity": 80, "note_on_time": 3.969, "note_off_time": 4.235}, {"pitch": 42, "velocity": 80, "note_on_time": 3.97, "note_off_time": 4.236}, {"pitch": 64, "velocity": 80, "note_on_time": 4.235, "note_off_time": 4.5}, {"pitch": 42, "velocity": 80, "note_on_time": 4.236, "note_off_time": 4.501}, {"pitch": 64, "velocity": 80, "note_on_time": 4.5, "note_off_time": 4.764}, {"pitch": 42, "velocity": 80, "note_on_time": 4.501, "note_off_time": 4.764}, {"pitch": 60, "velocity": 80, "note_on_time": 4.764, "note_off_time": 5.027}, {"pitch": 42, "velocity": 80, "note_on_time": 4.765, "note_off_time": 5.027}, {"pitch": 62, "velocity": 80, "note_on_time": 5.027, "note_off_time": 5.291}, {"pitch": 42, "velocity": 80, "note_on_time": 5.027, "note_off_time": 5.291}, {"pitch": 62, "velocity": 80, "note_on_time": 5.291, "note_off_time": 5.554}, {"pitch": 42, "velocity": 80, "note_on_time": 5.291, "note_off_time": 5.554}, {"pitch": 65, "velocity": 80, "note_on_time": 5.554, "note_off_time": 5.819}, {"pitch": 42, "velocity": 80, "note_on_time": 5.554, "note_off_time": 5.819}, {"pitch": 65, "velocity": 80, "note_on_time": 5.819, "note_off_time": 6.084}, {"pitch": 42, "velocity": 80, "note_on_time": 5.82, "note_off_time": 6.084}, {"pitch": 65, "velocity": 80, "note_on_time": 6.084, "note_off_time": 6.348}, {"pitch": 42, "velocity": 80, "note_on_time": 6.084, "note_off_time": 6.348}, {"pitch": 62, "velocity": 80, "note_on_time": 6.348, "note_off_time": 6.614}, {"pitch": 42, "velocity": 80, "note_on_time": 6.348, "note_off_time": 6.614}, {"pitch": 42, "velocity": 80, "note_on_time": 6.615, "note_off_time": 6.876}, {"pitch": 64, "velocity": 80, "note_on_time": 6.876, "note_off_time": 7.14}, {"pitch": 42, "velocity": 80, "note_on_time": 6.876, "note_off_time": 7.14}, {"pitch": 62, "velocity": 80, "note_on_time": 7.14, "note_off_time": 7.403}, {"pitch": 42, "velocity": 80, "note_on_time": 7.14, "note_off_time": 7.403}, {"pitch": 65, "velocity": 80, "note_on_time": 7.403, "note_off_time": 7.666}, {"pitch": 42, "velocity": 80, "note_on_time": 7.403, "note_off_time": 7.666}, {"pitch": 64, "velocity": 80, "note_on_time": 7.666, "note_off_time": 7.93}, {"pitch": 42, "velocity": 80, "note_on_time": 7.667, "note_off_time": 7.931}, {"pitch": 42, "velocity": 80, "note_on_time": 7.932, "note_off_time": 8.194}, {"pitch": 64, "velocity": 80, "note_on_time": 7.93, "note_off_time": 8.459}, {"pitch": 42, "velocity": 80, "note_on_time": 8.194, "note_off_time": 8.459}, {"pitch": 42, "velocity": 80, "note_on_time": 8.459, "note_off_time": 8.723}, {"pitch": 64, "velocity": 80, "note_on_time": 8.723, "note_off_time": 8.99}, {"pitch": 42, "velocity": 80, "note_on_time": 8.723, "note_off_time": 8.99}, {"pitch": 64, "velocity": 80, "note_on_time": 8.99, "note_off_time": 9.254}, {"pitch": 42, "velocity": 80, "note_on_time": 8.991, "note_off_time": 9.254}, {"pitch": 64, "velocity": 80, "note_on_time": 9.254, "note_off_time": 9.519}, {"pitch": 42, "velocity": 80, "note_on_time": 9.255, "note_off_time": 9.519}]</notes><options name="Option List">((4, 4), [0.5, 0.25], 3, 8, &lt;NoteRangePerHand.C_TO_G: 6&gt;, &lt;NoteRangePerHand.ONE_NOTE: 2&gt;, False, True, False, 232)</options></target_notes><trials><trial trial_no="1" timestamp="2022_10_27-13_30_04"><notes name="Played Notes">[{"pitch": 79, "velocity": 80, "note_on_time": 1.095, "note_off_time": 1.259}, {"pitch": 77, "velocity": 85, "note_on_time": 1.385, "note_off_time": 1.501}, {"pitch": 77, "velocity": 81, "note_on_time": 1.673, "note_off_time": 1.818}, {"pitch": 76, "velocity": 78, "note_on_time": 1.946, "note_off_time": 2.068}, {"pitch": 79, "velocity": 70, "note_on_time": 2.227, "note_off_time": 2.327}, {"pitch": 79, "velocity": 83, "note_on_time": 2.489, "note_off_time": 2.652}, {"pitch": 74, "velocity": 83, "note_on_time": 2.78, "note_off_time": 2.89}, {"pitch": 77, "velocity": 80, "note_on_time": 3.046, "note_off_time": 3.198}, {"pitch": 76, "velocity": 82, "note_on_time": 3.34, "note_off_time": 3.487}, {"pitch": 74, "velocity": 73, "note_on_time": 3.61, "note_off_time": 3.742}, {"pitch": 72, "velocity": 82, "note_on_time": 3.902, "note_off_time": 4.016}, {"pitch": 79, "velocity": 86, "note_on_time": 4.168, "note_off_time": 4.308}, {"pitch": 76, "velocity": 83, "note_on_time": 4.455, "note_off_time": 4.56}, {"pitch": 76, "velocity": 79, "note_on_time": 4.748, "note_off_time": 4.896}, {"pitch": 72, "velocity": 88, "note_on_time": 5.025, "note_off_time": 5.141}, {"pitch": 74, "velocity": 88, "note_on_time": 5.31, "note_off_time": 5.423}, {"pitch": 76, "velocity": 86, "note_on_time": 5.6, "note_off_time": 5.716}, {"pitch": 77, "velocity": 78, "note_on_time": 5.879, "note_off_time": 6.002}, {"pitch": 77, "velocity": 75, "note_on_time": 6.206, "note_off_time": 6.328}, {"pitch": 76, "velocity": 67, "note_on_time": 6.493, "note_off_time": 6.633}]</notes><guidance name="Guidance Mode">None</guidance><error name="Error value">1.229226923076923</error></trial><trial trial_no="2" timestamp="2022_10_27-13_30_28"><notes name="Played Notes">[{"pitch": 79, "velocity": 83, "note_on_time": 1.078, "note_off_time": 1.24}, {"pitch": 77, "velocity": 85, "note_on_time": 1.374, "note_off_time": 1.485}, {"pitch": 77, "velocity": 83, "note_on_time": 1.651, "note_off_time": 1.79}, {"pitch": 76, "velocity": 83, "note_on_time": 1.923, "note_off_time": 2.043}, {"pitch": 79, "velocity": 80, "note_on_time": 2.193, "note_off_time": 2.313}, {"pitch": 79, "velocity": 79, "note_on_time": 2.461, "note_off_time": 2.633}, {"pitch": 74, "velocity": 83, "note_on_time": 2.761, "note_off_time": 2.869}, {"pitch": 77, "velocity": 83, "note_on_time": 3.036, "note_off_time": 3.184}, {"pitch": 76, "velocity": 81, "note_on_time": 3.326, "note_off_time": 3.48}, {"pitch": 74, "velocity": 71, "note_on_time": 3.617, "note_off_time": 3.751}, {"pitch": 72, "velocity": 85, "note_on_time": 3.912, "note_off_time": 4.04}, {"pitch": 79, "velocity": 84, "note_on_time": 4.201, "note_off_time": 4.352}, {"pitch": 76, "velocity": 75, "note_on_time": 4.498, "note_off_time": 4.611}, {"pitch": 76, "velocity": 80, "note_on_time": 4.78, "note_off_time": 4.926}, {"pitch": 72, "velocity": 86, "note_on_time": 5.07, "note_off_time": 5.177}, {"pitch": 74, "velocity": 84, "note_on_time": 5.37, "note_off_time": 5.486}, {"pitch": 74, "velocity": 91, "note_on_time": 5.703, "note_off_time": 5.799}, {"pitch": 76, "velocity": 51, "note_on_time": 5.992, "note_off_time": 6.063}, {"pitch": 77, "velocity": 51, "note_on_time": 5.996, "note_off_time": 6.084}, {"pitch": 76, "velocity": 90, "note_on_time": 6.321, "note_off_time": 6.413}, {"pitch": 76, "velocity": 51, "note_on_time": 6.808, "note_off_time": 6.883}, {"pitch": 74, "velocity": 69, "note_on_time": 7.062, "note_off_time": 7.192}, {"pitch": 74, "velocity": 80, "note_on_time": 7.38, "note_off_time": 7.501}, {"pitch": 76, "velocity": 74, "note_on_time": 7.68, "note_off_time": 7.804}]</notes><guidance name="Guidance Mode">None</guidance><error name="Error value">1.4712469230769236</error></trial><trial trial_no="3" timestamp="2022_10_27-13_30_50"><notes name="Played Notes">[{"pitch": 79, "velocity": 81, "note_on_time": 1.113, "note_off_time": 1.265}, {"pitch": 77, "velocity": 83, "note_on_time": 1.402, "note_off_time": 1.52}, {"pitch": 77, "velocity": 83, "note_on_time": 1.685, "note_off_time": 1.829}, {"pitch": 76, "velocity": 82, "note_on_time": 1.95, "note_off_time": 2.066}, {"pitch": 79, "velocity": 84, "note_on_time": 2.221, "note_off_time": 2.356}, {"pitch": 79, "velocity": 68, "note_on_time": 2.494, "note_off_time": 2.665}, {"pitch": 74, "velocity": 75, "note_on_time": 2.794, "note_off_time": 2.916}, {"pitch": 77, "velocity": 80, "note_on_time": 3.059, "note_off_time": 3.22}, {"pitch": 76, "velocity": 80, "note_on_time": 3.357, "note_off_time": 3.5}, {"pitch": 74, "velocity": 76, "note_on_time": 3.63, "note_off_time": 3.767}, {"pitch": 72, "velocity": 74, "note_on_time": 3.941, "note_off_time": 4.075}, {"pitch": 79, "velocity": 77, "note_on_time": 4.207, "note_off_time": 4.353}, {"pitch": 76, "velocity": 77, "note_on_time": 4.498, "note_off_time": 4.613}, {"pitch": 76, "velocity": 76, "note_on_time": 4.783, "note_off_time": 4.927}, {"pitch": 72, "velocity": 74, "note_on_time": 5.078, "note_off_time": 5.205}, {"pitch": 74, "velocity": 79, "note_on_time": 5.374, "note_off_time": 5.479}, {"pitch": 74, "velocity": 82, "note_on_time": 5.667, "note_off_time": 5.789}, {"pitch": 77, "velocity": 85, "note_on_time": 5.911, "note_off_time": 6.029}, {"pitch": 77, "velocity": 88, "note_on_time": 6.229, "note_off_time": 6.333}, {"pitch": 77, "velocity": 79, "note_on_time": 6.508, "note_off_time": 6.657}, {"pitch": 74, "velocity": 88, "note_on_time": 6.816, "note_off_time": 6.938}, {"pitch": 76, "velocity": 82, "note_on_time": 7.402, "note_off_time": 7.532}, {"pitch": 74, "velocity": 80, "note_on_time": 7.716, "note_off_time": 7.813}, {"pitch": 77, "velocity": 84, "note_on_time": 8.104, "note_off_time": 8.245}, {"pitch": 76, "velocity": 69, "note_on_time": 8.392, "note_off_time": 8.5}, {"pitch": 76, "velocity": 87, "note_on_time": 8.71, "note_off_time": 9.157}]</notes><guidance name="Guidance Mode">None</guidance><error name="Error value">1.2000453846153847</error></trial></trials></MIDI>