<MIDI midiNo="2022_11_10-11_40_17"><target_notes><notes name="Note List">[{"pitch": 42, "velocity": 80, "note_on_time": 0.004, "note_off_time": 0.731}, {"pitch": 42, "velocity": 80, "note_on_time": 0.731, "note_off_time": 1.457}, {"pitch": 42, "velocity": 80, "note_on_time": 1.458, "note_off_time": 2.186}, {"pitch": 42, "velocity": 80, "note_on_time": 2.186, "note_off_time": 2.916}, {"pitch": 60, "velocity": 80, "note_on_time": 2.915, "note_off_time": 3.643}, {"pitch": 42, "velocity": 80, "note_on_time": 2.916, "note_off_time": 3.644}, {"pitch": 60, "velocity": 80, "note_on_time": 3.643, "note_off_time": 4.374}, {"pitch": 42, "velocity": 80, "note_on_time": 3.644, "note_off_time": 4.375}, {"pitch": 60, "velocity": 80, "note_on_time": 4.374, "note_off_time": 5.103}, {"pitch": 42, "velocity": 80, "note_on_time": 4.375, "note_off_time": 5.103}, {"pitch": 62, "velocity": 80, "note_on_time": 5.103, "note_off_time": 5.834}, {"pitch": 42, "velocity": 80, "note_on_time": 5.103, "note_off_time": 5.835}, {"pitch": 62, "velocity": 80, "note_on_time": 5.834, "note_off_time": 6.565}, {"pitch": 42, "velocity": 80, "note_on_time": 5.835, "note_off_time": 6.565}, {"pitch": 62, "velocity": 80, "note_on_time": 6.565, "note_off_time": 7.295}, {"pitch": 42, "velocity": 80, "note_on_time": 6.565, "note_off_time": 7.295}, {"pitch": 60, "velocity": 80, "note_on_time": 7.295, "note_off_time": 8.025}, {"pitch": 42, "velocity": 80, "note_on_time": 7.295, "note_off_time": 8.025}, {"pitch": 62, "velocity": 80, "note_on_time": 8.025, "note_off_time": 8.755}, {"pitch": 42, "velocity": 80, "note_on_time": 8.025, "note_off_time": 8.755}, {"pitch": 64, "velocity": 80, "note_on_time": 8.755, "note_off_time": 9.486}, {"pitch": 42, "velocity": 80, "note_on_time": 8.755, "note_off_time": 9.486}, {"pitch": 62, "velocity": 80, "note_on_time": 9.486, "note_off_time": 10.214}, {"pitch": 42, "velocity": 80, "note_on_time": 9.486, "note_off_time": 10.215}, {"pitch": 62, "velocity": 80, "note_on_time": 10.214, "note_off_time": 10.94}, {"pitch": 42, "velocity": 80, "note_on_time": 10.215, "note_off_time": 10.94}, {"pitch": 60, "velocity": 80, "note_on_time": 10.94, "note_off_time": 11.673}, {"pitch": 42, "velocity": 80, "note_on_time": 10.94, "note_off_time": 11.674}, {"pitch": 60, "velocity": 80, "note_on_time": 11.673, "note_off_time": 12.403}, {"pitch": 42, "velocity": 80, "note_on_time": 11.674, "note_off_time": 12.404}, {"pitch": 42, "velocity": 80, "note_on_time": 12.404, "note_off_time": 13.136}, {"pitch": 42, "velocity": 80, "note_on_time": 13.136, "note_off_time": 13.866}, {"pitch": 42, "velocity": 80, "note_on_time": 13.866, "note_off_time": 14.6}, {"pitch": 62, "velocity": 80, "note_on_time": 14.6, "note_off_time": 15.332}, {"pitch": 42, "velocity": 80, "note_on_time": 14.601, "note_off_time": 15.332}, {"pitch": 64, "velocity": 80, "note_on_time": 15.332, "note_off_time": 16.062}, {"pitch": 42, "velocity": 80, "note_on_time": 15.332, "note_off_time": 16.062}, {"pitch": 64, "velocity": 80, "note_on_time": 16.062, "note_off_time": 16.791}, {"pitch": 42, "velocity": 80, "note_on_time": 16.062, "note_off_time": 16.791}, {"pitch": 62, "velocity": 80, "note_on_time": 16.791, "note_off_time": 17.518}, {"pitch": 42, "velocity": 80, "note_on_time": 16.791, "note_off_time": 17.519}, {"pitch": 42, "velocity": 80, "note_on_time": 17.519, "note_off_time": 18.255}, {"pitch": 64, "velocity": 80, "note_on_time": 17.518, "note_off_time": 18.991}, {"pitch": 42, "velocity": 80, "note_on_time": 18.255, "note_off_time": 18.991}, {"pitch": 42, "velocity": 80, "note_on_time": 18.991, "note_off_time": 19.726}, {"pitch": 42, "velocity": 80, "note_on_time": 19.726, "note_off_time": 20.456}, {"pitch": 60, "velocity": 80, "note_on_time": 20.456, "note_off_time": 21.189}, {"pitch": 42, "velocity": 80, "note_on_time": 20.457, "note_off_time": 21.189}, {"pitch": 62, "velocity": 80, "note_on_time": 21.189, "note_off_time": 21.92}, {"pitch": 42, "velocity": 80, "note_on_time": 21.19, "note_off_time": 21.92}, {"pitch": 60, "velocity": 80, "note_on_time": 21.92, "note_off_time": 22.651}, {"pitch": 42, "velocity": 80, "note_on_time": 21.921, "note_off_time": 22.651}, {"pitch": 60, "velocity": 80, "note_on_time": 22.651, "note_off_time": 23.38}, {"pitch": 42, "velocity": 80, "note_on_time": 22.652, "note_off_time": 23.38}, {"pitch": 42, "velocity": 80, "note_on_time": 23.38, "note_off_time": 24.114}, {"pitch": 60, "velocity": 80, "note_on_time": 24.114, "note_off_time": 24.845}, {"pitch": 42, "velocity": 80, "note_on_time": 24.114, "note_off_time": 24.846}, {"pitch": 60, "velocity": 80, "note_on_time": 24.845, "note_off_time": 25.578}, {"pitch": 42, "velocity": 80, "note_on_time": 24.846, "note_off_time": 25.578}, {"pitch": 60, "velocity": 80, "note_on_time": 25.578, "note_off_time": 26.31}, {"pitch": 42, "velocity": 80, "note_on_time": 25.578, "note_off_time": 26.31}]</notes><options name="Option List">((4, 4), [0.5, 0.25], 3, 8, &lt;NoteRangePerHand.THREE_NOTES: 4&gt;, &lt;NoteRangePerHand.ONE_NOTE: 2&gt;, False, True, False, 83)</options></target_notes><trials><trial trial_no="1" timestamp="2022_11_10-11_39_49"><notes name="Played Notes">[{"pitch": 60, "velocity": 79, "note_on_time": 2.92, "note_off_time": 3.241}, {"pitch": 60, "velocity": 77, "note_on_time": 3.65, "note_off_time": 3.971}, {"pitch": 60, "velocity": 82, "note_on_time": 4.385, "note_off_time": 4.664}, {"pitch": 62, "velocity": 76, "note_on_time": 5.083, "note_off_time": 5.36}, {"pitch": 62, "velocity": 68, "note_on_time": 5.773, "note_off_time": 6.041}, {"pitch": 62, "velocity": 56, "note_on_time": 6.479, "note_off_time": 6.74}, {"pitch": 60, "velocity": 80, "note_on_time": 7.184, "note_off_time": 7.555}, {"pitch": 62, "velocity": 79, "note_on_time": 7.904, "note_off_time": 8.229}, {"pitch": 64, "velocity": 76, "note_on_time": 8.604, "note_off_time": 8.968}, {"pitch": 62, "velocity": 76, "note_on_time": 9.35, "note_off_time": 9.608}, {"pitch": 62, "velocity": 80, "note_on_time": 10.06, "note_off_time": 10.336}, {"pitch": 60, "velocity": 83, "note_on_time": 10.801, "note_off_time": 11.072}, {"pitch": 60, "velocity": 84, "note_on_time": 11.508, "note_off_time": 11.748}, {"pitch": 62, "velocity": 73, "note_on_time": 13.829, "note_off_time": 14.1}, {"pitch": 64, "velocity": 73, "note_on_time": 14.53, "note_off_time": 14.827}, {"pitch": 64, "velocity": 76, "note_on_time": 15.274, "note_off_time": 15.573}, {"pitch": 62, "velocity": 77, "note_on_time": 15.971, "note_off_time": 16.285}, {"pitch": 64, "velocity": 78, "note_on_time": 16.635, "note_off_time": 17.798}, {"pitch": 60, "velocity": 92, "note_on_time": 18.24, "note_off_time": 18.78}, {"pitch": 62, "velocity": 68, "note_on_time": 18.958, "note_off_time": 19.259}, {"pitch": 60, "velocity": 76, "note_on_time": 19.633, "note_off_time": 19.905}, {"pitch": 60, "velocity": 84, "note_on_time": 20.284, "note_off_time": 20.519}, {"pitch": 60, "velocity": 74, "note_on_time": 21.806, "note_off_time": 22.04}, {"pitch": 60, "velocity": 74, "note_on_time": 22.512, "note_off_time": 22.758}, {"pitch": 60, "velocity": 74, "note_on_time": 23.2, "note_off_time": 23.41}]</notes><guidance name="Guidance Mode">None</guidance><error name="Error value">0.11114304545454591</error></trial><trial trial_no="2" timestamp="2022_11_10-11_40_27"><notes name="Played Notes">[{"pitch": 60, "velocity": 79, "note_on_time": 2.886, "note_off_time": 3.176}, {"pitch": 60, "velocity": 81, "note_on_time": 3.604, "note_off_time": 3.858}, {"pitch": 60, "velocity": 83, "note_on_time": 4.314, "note_off_time": 4.597}, {"pitch": 62, "velocity": 78, "note_on_time": 5.015, "note_off_time": 5.294}, {"pitch": 62, "velocity": 77, "note_on_time": 5.752, "note_off_time": 6.012}, {"pitch": 62, "velocity": 79, "note_on_time": 6.451, "note_off_time": 6.697}, {"pitch": 60, "velocity": 77, "note_on_time": 7.203, "note_off_time": 7.494}, {"pitch": 62, "velocity": 77, "note_on_time": 7.898, "note_off_time": 8.158}, {"pitch": 64, "velocity": 75, "note_on_time": 8.582, "note_off_time": 8.863}, {"pitch": 62, "velocity": 75, "note_on_time": 9.33, "note_off_time": 9.613}, {"pitch": 62, "velocity": 75, "note_on_time": 10.067, "note_off_time": 10.346}, {"pitch": 60, "velocity": 81, "note_on_time": 10.795, "note_off_time": 11.047}, {"pitch": 60, "velocity": 87, "note_on_time": 11.467, "note_off_time": 11.724}, {"pitch": 62, "velocity": 75, "note_on_time": 14.58, "note_off_time": 14.854}, {"pitch": 64, "velocity": 77, "note_on_time": 15.249, "note_off_time": 15.559}, {"pitch": 64, "velocity": 80, "note_on_time": 16.012, "note_off_time": 16.261}, {"pitch": 62, "velocity": 79, "note_on_time": 16.69, "note_off_time": 16.949}, {"pitch": 64, "velocity": 77, "note_on_time": 17.345, "note_off_time": 18.569}, {"pitch": 60, "velocity": 75, "note_on_time": 20.511, "note_off_time": 20.806}, {"pitch": 62, "velocity": 78, "note_on_time": 21.201, "note_off_time": 21.472}, {"pitch": 60, "velocity": 79, "note_on_time": 21.886, "note_off_time": 22.152}, {"pitch": 60, "velocity": 82, "note_on_time": 22.565, "note_off_time": 22.82}, {"pitch": 60, "velocity": 81, "note_on_time": 24.089, "note_off_time": 24.34}, {"pitch": 60, "velocity": 79, "note_on_time": 24.791, "note_off_time": 24.993}, {"pitch": 60, "velocity": 77, "note_on_time": 25.5, "note_off_time": 25.802}]</notes><guidance name="Guidance Mode">None</guidance><error name="Error value">0.054504954545454225</error></trial><trial trial_no="3" timestamp="2022_11_10-11_41_04"><notes name="Played Notes">[{"pitch": 60, "velocity": 84, "note_on_time": 2.908, "note_off_time": 3.186}, {"pitch": 60, "velocity": 82, "note_on_time": 3.597, "note_off_time": 3.873}, {"pitch": 60, "velocity": 85, "note_on_time": 4.322, "note_off_time": 4.581}, {"pitch": 62, "velocity": 80, "note_on_time": 5.002, "note_off_time": 5.255}, {"pitch": 62, "velocity": 77, "note_on_time": 5.753, "note_off_time": 6.011}, {"pitch": 62, "velocity": 72, "note_on_time": 6.474, "note_off_time": 6.723}, {"pitch": 60, "velocity": 82, "note_on_time": 7.24, "note_off_time": 7.532}, {"pitch": 62, "velocity": 78, "note_on_time": 7.966, "note_off_time": 8.22}, {"pitch": 64, "velocity": 74, "note_on_time": 8.67, "note_off_time": 8.928}, {"pitch": 62, "velocity": 73, "note_on_time": 9.412, "note_off_time": 9.668}, {"pitch": 62, "velocity": 74, "note_on_time": 10.102, "note_off_time": 10.337}, {"pitch": 60, "velocity": 81, "note_on_time": 10.842, "note_off_time": 11.11}, {"pitch": 60, "velocity": 89, "note_on_time": 11.559, "note_off_time": 11.815}, {"pitch": 62, "velocity": 73, "note_on_time": 13.871, "note_off_time": 14.139}, {"pitch": 64, "velocity": 67, "note_on_time": 14.576, "note_off_time": 14.868}, {"pitch": 64, "velocity": 46, "note_on_time": 15.398, "note_off_time": 15.677}, {"pitch": 62, "velocity": 81, "note_on_time": 16.117, "note_off_time": 16.435}, {"pitch": 64, "velocity": 72, "note_on_time": 16.811, "note_off_time": 18.044}, {"pitch": 60, "velocity": 77, "note_on_time": 19.732, "note_off_time": 20.032}, {"pitch": 62, "velocity": 72, "note_on_time": 20.453, "note_off_time": 20.727}, {"pitch": 60, "velocity": 78, "note_on_time": 21.143, "note_off_time": 21.44}, {"pitch": 60, "velocity": 78, "note_on_time": 21.881, "note_off_time": 22.119}, {"pitch": 60, "velocity": 74, "note_on_time": 23.344, "note_off_time": 23.62}, {"pitch": 60, "velocity": 79, "note_on_time": 24.039, "note_off_time": 24.327}, {"pitch": 60, "velocity": 84, "note_on_time": 24.749, "note_off_time": 25.116}]</notes><guidance name="Guidance Mode">None</guidance><error name="Error value">0.05071240909090924</error></trial></trials></MIDI>