<MIDI midiNo="2022_12_22-13_43_22"><target_notes><notes name="Note List">[{"pitch": 42, "velocity": 80, "note_on_time": 0.004, "note_off_time": 0.294}, {"pitch": 42, "velocity": 80, "note_on_time": 0.294, "note_off_time": 0.589}, {"pitch": 42, "velocity": 80, "note_on_time": 0.589, "note_off_time": 0.87}, {"pitch": 42, "velocity": 80, "note_on_time": 0.871, "note_off_time": 1.165}, {"pitch": 64, "velocity": 80, "note_on_time": 1.165, "note_off_time": 1.447}, {"pitch": 42, "velocity": 80, "note_on_time": 1.165, "note_off_time": 1.447}, {"pitch": 64, "velocity": 80, "note_on_time": 1.447, "note_off_time": 1.728}, {"pitch": 42, "velocity": 80, "note_on_time": 1.447, "note_off_time": 1.728}, {"pitch": 60, "velocity": 80, "note_on_time": 1.728, "note_off_time": 2.024}, {"pitch": 42, "velocity": 80, "note_on_time": 1.728, "note_off_time": 2.024}, {"pitch": 62, "velocity": 80, "note_on_time": 2.024, "note_off_time": 2.307}, {"pitch": 42, "velocity": 80, "note_on_time": 2.024, "note_off_time": 2.307}, {"pitch": 42, "velocity": 80, "note_on_time": 2.307, "note_off_time": 2.588}, {"pitch": 62, "velocity": 80, "note_on_time": 2.307, "note_off_time": 2.882}, {"pitch": 42, "velocity": 80, "note_on_time": 2.588, "note_off_time": 2.882}, {"pitch": 42, "velocity": 80, "note_on_time": 2.883, "note_off_time": 3.178}, {"pitch": 42, "velocity": 80, "note_on_time": 3.178, "note_off_time": 3.472}, {"pitch": 62, "velocity": 80, "note_on_time": 3.472, "note_off_time": 3.753}, {"pitch": 42, "velocity": 80, "note_on_time": 3.472, "note_off_time": 3.753}, {"pitch": 42, "velocity": 80, "note_on_time": 3.753, "note_off_time": 4.036}, {"pitch": 62, "velocity": 80, "note_on_time": 3.753, "note_off_time": 4.332}, {"pitch": 42, "velocity": 80, "note_on_time": 4.037, "note_off_time": 4.332}, {"pitch": 62, "velocity": 80, "note_on_time": 4.332, "note_off_time": 4.627}, {"pitch": 42, "velocity": 80, "note_on_time": 4.332, "note_off_time": 4.627}, {"pitch": 60, "velocity": 80, "note_on_time": 4.627, "note_off_time": 4.922}, {"pitch": 42, "velocity": 80, "note_on_time": 4.627, "note_off_time": 4.923}, {"pitch": 60, "velocity": 80, "note_on_time": 4.922, "note_off_time": 5.205}, {"pitch": 42, "velocity": 80, "note_on_time": 4.923, "note_off_time": 5.205}, {"pitch": 62, "velocity": 80, "note_on_time": 5.205, "note_off_time": 5.499}, {"pitch": 42, "velocity": 80, "note_on_time": 5.205, "note_off_time": 5.499}, {"pitch": 62, "velocity": 80, "note_on_time": 5.499, "note_off_time": 5.794}, {"pitch": 42, "velocity": 80, "note_on_time": 5.499, "note_off_time": 5.794}, {"pitch": 64, "velocity": 80, "note_on_time": 5.794, "note_off_time": 6.076}, {"pitch": 42, "velocity": 80, "note_on_time": 5.794, "note_off_time": 6.076}, {"pitch": 62, "velocity": 80, "note_on_time": 6.076, "note_off_time": 6.371}, {"pitch": 42, "velocity": 80, "note_on_time": 6.077, "note_off_time": 6.372}, {"pitch": 62, "velocity": 80, "note_on_time": 6.371, "note_off_time": 6.666}, {"pitch": 42, "velocity": 80, "note_on_time": 6.372, "note_off_time": 6.666}, {"pitch": 64, "velocity": 80, "note_on_time": 6.666, "note_off_time": 6.948}, {"pitch": 42, "velocity": 80, "note_on_time": 6.667, "note_off_time": 6.948}, {"pitch": 42, "velocity": 80, "note_on_time": 6.948, "note_off_time": 7.243}, {"pitch": 64, "velocity": 80, "note_on_time": 6.948, "note_off_time": 7.539}, {"pitch": 42, "velocity": 80, "note_on_time": 7.243, "note_off_time": 7.539}, {"pitch": 42, "velocity": 80, "note_on_time": 7.539, "note_off_time": 7.834}, {"pitch": 62, "velocity": 80, "note_on_time": 7.834, "note_off_time": 8.129}, {"pitch": 42, "velocity": 80, "note_on_time": 7.835, "note_off_time": 8.129}, {"pitch": 42, "velocity": 80, "note_on_time": 8.129, "note_off_time": 8.425}, {"pitch": 60, "velocity": 80, "note_on_time": 8.129, "note_off_time": 8.705}, {"pitch": 42, "velocity": 80, "note_on_time": 8.425, "note_off_time": 8.705}, {"pitch": 42, "velocity": 80, "note_on_time": 8.705, "note_off_time": 9.0}, {"pitch": 60, "velocity": 80, "note_on_time": 9.0, "note_off_time": 9.296}, {"pitch": 42, "velocity": 80, "note_on_time": 9.0, "note_off_time": 9.296}, {"pitch": 42, "velocity": 80, "note_on_time": 9.296, "note_off_time": 9.59}, {"pitch": 60, "velocity": 80, "note_on_time": 9.59, "note_off_time": 9.885}, {"pitch": 42, "velocity": 80, "note_on_time": 9.59, "note_off_time": 9.886}, {"pitch": 60, "velocity": 80, "note_on_time": 9.885, "note_off_time": 10.181}, {"pitch": 42, "velocity": 80, "note_on_time": 9.886, "note_off_time": 10.182}, {"pitch": 60, "velocity": 80, "note_on_time": 10.181, "note_off_time": 10.477}, {"pitch": 42, "velocity": 80, "note_on_time": 10.182, "note_off_time": 10.478}]</notes><options name="Option List">((4, 4), [0.5, 0.25], 3, 8, &lt;NoteRangePerHand.THREE_NOTES: 4&gt;, &lt;NoteRangePerHand.ONE_NOTE: 2&gt;, False, True, False, '215')</options></target_notes><trials><trial trial_no="1" timestamp="2022_12_22-13_43_10"><notes name="Played Notes">[{"pitch": 64, "velocity": 88, "note_on_time": 1.215, "note_off_time": 1.341}, {"pitch": 64, "velocity": 95, "note_on_time": 1.502, "note_off_time": 1.675}, {"pitch": 60, "velocity": 92, "note_on_time": 1.795, "note_off_time": 1.925}, {"pitch": 62, "velocity": 91, "note_on_time": 2.063, "note_off_time": 2.202}, {"pitch": 62, "velocity": 98, "note_on_time": 2.334, "note_off_time": 2.885}, {"pitch": 62, "velocity": 96, "note_on_time": 3.07, "note_off_time": 3.191}, {"pitch": 62, "velocity": 101, "note_on_time": 3.354, "note_off_time": 3.738}, {"pitch": 62, "velocity": 96, "note_on_time": 3.871, "note_off_time": 4.221}, {"pitch": 60, "velocity": 97, "note_on_time": 4.348, "note_off_time": 4.47}, {"pitch": 60, "velocity": 95, "note_on_time": 4.611, "note_off_time": 4.732}, {"pitch": 62, "velocity": 92, "note_on_time": 4.867, "note_off_time": 4.998}, {"pitch": 62, "velocity": 87, "note_on_time": 5.129, "note_off_time": 5.259}, {"pitch": 64, "velocity": 92, "note_on_time": 5.403, "note_off_time": 5.549}, {"pitch": 62, "velocity": 87, "note_on_time": 5.671, "note_off_time": 5.826}, {"pitch": 62, "velocity": 84, "note_on_time": 5.957, "note_off_time": 6.108}, {"pitch": 64, "velocity": 89, "note_on_time": 6.25, "note_off_time": 6.402}, {"pitch": 64, "velocity": 96, "note_on_time": 6.552, "note_off_time": 7.079}, {"pitch": 62, "velocity": 95, "note_on_time": 7.263, "note_off_time": 7.451}, {"pitch": 60, "velocity": 89, "note_on_time": 7.676, "note_off_time": 8.216}, {"pitch": 60, "velocity": 94, "note_on_time": 8.564, "note_off_time": 9.067}, {"pitch": 60, "velocity": 98, "note_on_time": 9.511, "note_off_time": 9.671}, {"pitch": 60, "velocity": 90, "note_on_time": 9.831, "note_off_time": 10.023}, {"pitch": 60, "velocity": 107, "note_on_time": 10.225, "note_off_time": 10.44}]</notes><guidance name="Guidance Mode">None</guidance><error name="Error value">0.08185345000000001</error></trial><trial trial_no="2" timestamp="2022_12_22-13_43_31"><notes name="Played Notes">[{"pitch": 64, "velocity": 92, "note_on_time": 1.209, "note_off_time": 1.357}, {"pitch": 64, "velocity": 93, "note_on_time": 1.514, "note_off_time": 1.656}, {"pitch": 62, "velocity": 97, "note_on_time": 1.869, "note_off_time": 2.058}, {"pitch": 62, "velocity": 86, "note_on_time": 2.876, "note_off_time": 3.045}, {"pitch": 62, "velocity": 96, "note_on_time": 3.207, "note_off_time": 3.632}, {"pitch": 62, "velocity": 86, "note_on_time": 4.013, "note_off_time": 4.169}, {"pitch": 62, "velocity": 89, "note_on_time": 4.328, "note_off_time": 4.469}, {"pitch": 62, "velocity": 82, "note_on_time": 4.628, "note_off_time": 4.781}, {"pitch": 60, "velocity": 91, "note_on_time": 4.91, "note_off_time": 5.036}, {"pitch": 60, "velocity": 89, "note_on_time": 5.221, "note_off_time": 5.355}, {"pitch": 62, "velocity": 71, "note_on_time": 5.511, "note_off_time": 5.658}, {"pitch": 62, "velocity": 89, "note_on_time": 5.803, "note_off_time": 5.956}, {"pitch": 64, "velocity": 93, "note_on_time": 6.107, "note_off_time": 6.253}, {"pitch": 62, "velocity": 90, "note_on_time": 6.406, "note_off_time": 6.588}, {"pitch": 62, "velocity": 76, "note_on_time": 6.714, "note_off_time": 6.876}, {"pitch": 64, "velocity": 85, "note_on_time": 7.011, "note_off_time": 7.16}, {"pitch": 64, "velocity": 93, "note_on_time": 7.317, "note_off_time": 7.83}, {"pitch": 62, "velocity": 90, "note_on_time": 8.063, "note_off_time": 8.199}, {"pitch": 60, "velocity": 92, "note_on_time": 8.401, "note_off_time": 8.855}, {"pitch": 60, "velocity": 95, "note_on_time": 9.196, "note_off_time": 9.61}, {"pitch": 60, "velocity": 94, "note_on_time": 9.926, "note_off_time": 10.036}, {"pitch": 60, "velocity": 94, "note_on_time": 10.286, "note_off_time": 10.378}]</notes><guidance name="Guidance Mode">None</guidance><error name="Error value">0.21078965</error></trial><trial trial_no="3" timestamp="2022_12_22-13_43_56"><notes name="Played Notes">[{"pitch": 64, "velocity": 85, "note_on_time": 1.168, "note_off_time": 1.29}, {"pitch": 64, "velocity": 88, "note_on_time": 1.446, "note_off_time": 1.604}, {"pitch": 60, "velocity": 90, "note_on_time": 1.727, "note_off_time": 1.866}, {"pitch": 62, "velocity": 84, "note_on_time": 2.019, "note_off_time": 2.149}, {"pitch": 62, "velocity": 92, "note_on_time": 2.313, "note_off_time": 2.93}, {"pitch": 62, "velocity": 88, "note_on_time": 3.131, "note_off_time": 3.253}, {"pitch": 62, "velocity": 94, "note_on_time": 3.436, "note_off_time": 3.834}, {"pitch": 62, "velocity": 90, "note_on_time": 4.04, "note_off_time": 4.202}, {"pitch": 60, "velocity": 86, "note_on_time": 4.32, "note_off_time": 4.48}, {"pitch": 60, "velocity": 93, "note_on_time": 4.63, "note_off_time": 4.763}, {"pitch": 62, "velocity": 85, "note_on_time": 4.933, "note_off_time": 5.057}, {"pitch": 62, "velocity": 88, "note_on_time": 5.204, "note_off_time": 5.345}, {"pitch": 64, "velocity": 84, "note_on_time": 5.516, "note_off_time": 5.685}, {"pitch": 62, "velocity": 86, "note_on_time": 5.814, "note_off_time": 5.968}, {"pitch": 62, "velocity": 80, "note_on_time": 6.137, "note_off_time": 6.295}, {"pitch": 64, "velocity": 93, "note_on_time": 6.452, "note_off_time": 6.614}, {"pitch": 62, "velocity": 84, "note_on_time": 6.735, "note_off_time": 6.853}, {"pitch": 64, "velocity": 90, "note_on_time": 7.012, "note_off_time": 7.421}, {"pitch": 62, "velocity": 93, "note_on_time": 7.902, "note_off_time": 8.106}, {"pitch": 60, "velocity": 64, "note_on_time": 8.606, "note_off_time": 9.105}, {"pitch": 60, "velocity": 98, "note_on_time": 9.406, "note_off_time": 9.638}, {"pitch": 60, "velocity": 92, "note_on_time": 9.953, "note_off_time": 10.057}, {"pitch": 60, "velocity": 88, "note_on_time": 10.221, "note_off_time": 10.315}]</notes><guidance name="Guidance Mode">None</guidance><error name="Error value">0.27128275000000013</error></trial><trial trial_no="4" timestamp="2022_12_22-13_44_23"><notes name="Played Notes">[{"pitch": 64, "velocity": 83, "note_on_time": 1.225, "note_off_time": 1.349}, {"pitch": 64, "velocity": 89, "note_on_time": 1.506, "note_off_time": 1.662}, {"pitch": 60, "velocity": 89, "note_on_time": 1.794, "note_off_time": 1.927}, {"pitch": 62, "velocity": 88, "note_on_time": 2.087, "note_off_time": 2.205}, {"pitch": 62, "velocity": 98, "note_on_time": 2.374, "note_off_time": 2.901}, {"pitch": 62, "velocity": 87, "note_on_time": 3.086, "note_off_time": 3.199}, {"pitch": 62, "velocity": 92, "note_on_time": 3.387, "note_off_time": 3.509}, {"pitch": 62, "velocity": 103, "note_on_time": 3.698, "note_off_time": 4.091}, {"pitch": 62, "velocity": 86, "note_on_time": 4.345, "note_off_time": 4.507}, {"pitch": 62, "velocity": 80, "note_on_time": 4.763, "note_off_time": 4.941}, {"pitch": 60, "velocity": 77, "note_on_time": 5.143, "note_off_time": 5.274}, {"pitch": 60, "velocity": 86, "note_on_time": 5.427, "note_off_time": 5.553}, {"pitch": 62, "velocity": 84, "note_on_time": 5.71, "note_off_time": 5.822}, {"pitch": 62, "velocity": 81, "note_on_time": 5.955, "note_off_time": 6.081}, {"pitch": 64, "velocity": 81, "note_on_time": 6.21, "note_off_time": 6.319}, {"pitch": 62, "velocity": 86, "note_on_time": 6.479, "note_off_time": 6.601}, {"pitch": 62, "velocity": 81, "note_on_time": 6.741, "note_off_time": 6.862}, {"pitch": 64, "velocity": 87, "note_on_time": 7.001, "note_off_time": 7.115}, {"pitch": 64, "velocity": 93, "note_on_time": 7.279, "note_off_time": 7.806}, {"pitch": 62, "velocity": 85, "note_on_time": 8.043, "note_off_time": 8.246}, {"pitch": 60, "velocity": 89, "note_on_time": 8.492, "note_off_time": 8.865}, {"pitch": 60, "velocity": 96, "note_on_time": 9.284, "note_off_time": 9.552}, {"pitch": 60, "velocity": 92, "note_on_time": 9.786, "note_off_time": 9.875}, {"pitch": 60, "velocity": 94, "note_on_time": 10.053, "note_off_time": 10.139}, {"pitch": 60, "velocity": 92, "note_on_time": 10.267, "note_off_time": 10.354}]</notes><guidance name="Guidance Mode">None</guidance><error name="Error value">0.6855948500000003</error></trial><trial trial_no="5" timestamp="2022_12_22-13_44_46"><notes name="Played Notes">[{"pitch": 64, "velocity": 84, "note_on_time": 1.219, "note_off_time": 1.347}, {"pitch": 64, "velocity": 86, "note_on_time": 1.514, "note_off_time": 1.676}, {"pitch": 60, "velocity": 88, "note_on_time": 1.812, "note_off_time": 1.935}, {"pitch": 62, "velocity": 87, "note_on_time": 2.101, "note_off_time": 2.223}, {"pitch": 62, "velocity": 90, "note_on_time": 2.398, "note_off_time": 2.913}, {"pitch": 62, "velocity": 85, "note_on_time": 3.095, "note_off_time": 3.221}, {"pitch": 62, "velocity": 91, "note_on_time": 3.387, "note_off_time": 3.873}, {"pitch": 62, "velocity": 94, "note_on_time": 4.03, "note_off_time": 4.239}, {"pitch": 60, "velocity": 91, "note_on_time": 4.326, "note_off_time": 4.442}, {"pitch": 60, "velocity": 90, "note_on_time": 4.597, "note_off_time": 4.758}, {"pitch": 62, "velocity": 90, "note_on_time": 4.912, "note_off_time": 5.078}, {"pitch": 62, "velocity": 76, "note_on_time": 5.199, "note_off_time": 5.367}, {"pitch": 64, "velocity": 84, "note_on_time": 5.517, "note_off_time": 5.695}, {"pitch": 62, "velocity": 84, "note_on_time": 5.835, "note_off_time": 6.055}, {"pitch": 62, "velocity": 90, "note_on_time": 6.21, "note_off_time": 6.416}, {"pitch": 64, "velocity": 86, "note_on_time": 6.555, "note_off_time": 6.777}, {"pitch": 64, "velocity": 91, "note_on_time": 7.042, "note_off_time": 7.647}, {"pitch": 62, "velocity": 90, "note_on_time": 7.865, "note_off_time": 8.042}, {"pitch": 60, "velocity": 77, "note_on_time": 8.258, "note_off_time": 8.813}, {"pitch": 60, "velocity": 89, "note_on_time": 8.982, "note_off_time": 9.499}, {"pitch": 60, "velocity": 98, "note_on_time": 9.687, "note_off_time": 9.874}, {"pitch": 60, "velocity": 94, "note_on_time": 9.996, "note_off_time": 10.096}, {"pitch": 60, "velocity": 105, "note_on_time": 10.274, "note_off_time": 10.376}]</notes><guidance name="Guidance Mode">None</guidance><error name="Error value">0.07577584999999996</error></trial></trials></MIDI>