<MIDI midiNo="2022_09_12-12_26_54"><target_notes><notes name="Note List">[{"pitch": 42, "velocity": 80, "note_on_time": 0.003, "note_off_time": 0.295}, {"pitch": 42, "velocity": 80, "note_on_time": 0.295, "note_off_time": 0.591}, {"pitch": 42, "velocity": 80, "note_on_time": 0.591, "note_off_time": 0.871}, {"pitch": 42, "velocity": 80, "note_on_time": 0.872, "note_off_time": 1.167}, {"pitch": 62, "velocity": 80, "note_on_time": 1.167, "note_off_time": 1.448}, {"pitch": 42, "velocity": 80, "note_on_time": 1.167, "note_off_time": 1.448}, {"pitch": 64, "velocity": 80, "note_on_time": 1.448, "note_off_time": 1.73}, {"pitch": 42, "velocity": 80, "note_on_time": 1.449, "note_off_time": 1.73}, {"pitch": 42, "velocity": 80, "note_on_time": 1.73, "note_off_time": 2.026}, {"pitch": 42, "velocity": 80, "note_on_time": 2.026, "note_off_time": 2.307}, {"pitch": 42, "velocity": 80, "note_on_time": 2.307, "note_off_time": 2.603}, {"pitch": 64, "velocity": 80, "note_on_time": 2.307, "note_off_time": 2.898}, {"pitch": 42, "velocity": 80, "note_on_time": 2.603, "note_off_time": 2.898}, {"pitch": 42, "velocity": 80, "note_on_time": 2.899, "note_off_time": 3.181}, {"pitch": 64, "velocity": 80, "note_on_time": 3.181, "note_off_time": 3.463}, {"pitch": 42, "velocity": 80, "note_on_time": 3.182, "note_off_time": 3.464}, {"pitch": 64, "velocity": 80, "note_on_time": 3.463, "note_off_time": 3.757}, {"pitch": 42, "velocity": 80, "note_on_time": 3.464, "note_off_time": 3.757}, {"pitch": 42, "velocity": 80, "note_on_time": 3.757, "note_off_time": 4.052}, {"pitch": 42, "velocity": 80, "note_on_time": 4.052, "note_off_time": 4.347}, {"pitch": 42, "velocity": 80, "note_on_time": 4.347, "note_off_time": 4.629}, {"pitch": 62, "velocity": 80, "note_on_time": 4.629, "note_off_time": 4.924}, {"pitch": 42, "velocity": 80, "note_on_time": 4.63, "note_off_time": 4.924}, {"pitch": 64, "velocity": 80, "note_on_time": 4.924, "note_off_time": 5.219}, {"pitch": 42, "velocity": 80, "note_on_time": 4.924, "note_off_time": 5.219}, {"pitch": 64, "velocity": 80, "note_on_time": 5.219, "note_off_time": 5.5}, {"pitch": 42, "velocity": 80, "note_on_time": 5.22, "note_off_time": 5.501}, {"pitch": 60, "velocity": 80, "note_on_time": 5.5, "note_off_time": 5.793}, {"pitch": 42, "velocity": 80, "note_on_time": 5.501, "note_off_time": 5.794}, {"pitch": 62, "velocity": 80, "note_on_time": 5.793, "note_off_time": 6.074}, {"pitch": 42, "velocity": 80, "note_on_time": 5.794, "note_off_time": 6.074}, {"pitch": 64, "velocity": 80, "note_on_time": 6.074, "note_off_time": 6.37}, {"pitch": 42, "velocity": 80, "note_on_time": 6.074, "note_off_time": 6.37}, {"pitch": 62, "velocity": 80, "note_on_time": 6.37, "note_off_time": 6.652}, {"pitch": 42, "velocity": 80, "note_on_time": 6.371, "note_off_time": 6.652}, {"pitch": 62, "velocity": 80, "note_on_time": 6.652, "note_off_time": 6.946}, {"pitch": 42, "velocity": 80, "note_on_time": 6.652, "note_off_time": 6.946}, {"pitch": 64, "velocity": 80, "note_on_time": 6.946, "note_off_time": 7.241}, {"pitch": 42, "velocity": 80, "note_on_time": 6.947, "note_off_time": 7.241}, {"pitch": 60, "velocity": 80, "note_on_time": 7.241, "note_off_time": 7.535}, {"pitch": 42, "velocity": 80, "note_on_time": 7.241, "note_off_time": 7.535}, {"pitch": 42, "velocity": 80, "note_on_time": 7.536, "note_off_time": 7.829}, {"pitch": 64, "velocity": 80, "note_on_time": 7.829, "note_off_time": 8.124}, {"pitch": 42, "velocity": 80, "note_on_time": 7.83, "note_off_time": 8.124}, {"pitch": 42, "velocity": 80, "note_on_time": 8.125, "note_off_time": 8.42}, {"pitch": 64, "velocity": 80, "note_on_time": 8.124, "note_off_time": 8.702}, {"pitch": 42, "velocity": 80, "note_on_time": 8.42, "note_off_time": 8.703}, {"pitch": 42, "velocity": 80, "note_on_time": 8.703, "note_off_time": 8.999}, {"pitch": 42, "velocity": 80, "note_on_time": 8.999, "note_off_time": 9.292}, {"pitch": 42, "velocity": 80, "note_on_time": 9.292, "note_off_time": 9.573}, {"pitch": 64, "velocity": 80, "note_on_time": 9.573, "note_off_time": 9.869}, {"pitch": 42, "velocity": 80, "note_on_time": 9.573, "note_off_time": 9.87}, {"pitch": 64, "velocity": 80, "note_on_time": 9.869, "note_off_time": 10.151}, {"pitch": 42, "velocity": 80, "note_on_time": 9.87, "note_off_time": 10.151}, {"pitch": 64, "velocity": 80, "note_on_time": 10.151, "note_off_time": 10.445}, {"pitch": 42, "velocity": 80, "note_on_time": 10.151, "note_off_time": 10.445}]</notes><options name="Option List">((4, 4), [0.5, 0.25], 3, 8, &lt;NoteRangePerHand.THREE_NOTES: 4&gt;, &lt;NoteRangePerHand.ONE_NOTE: 2&gt;, False, True, True, 215)</options></target_notes><trials><trial trial_no="1" timestamp="2022_09_12-12_26_43"><notes name="Played Notes">[{"pitch": 62, "velocity": 87, "note_on_time": 1.227, "note_off_time": 1.374}, {"pitch": 64, "velocity": 89, "note_on_time": 1.525, "note_off_time": 1.814}, {"pitch": 64, "velocity": 87, "note_on_time": 2.639, "note_off_time": 2.94}, {"pitch": 64, "velocity": 92, "note_on_time": 3.461, "note_off_time": 3.56}, {"pitch": 64, "velocity": 91, "note_on_time": 3.709, "note_off_time": 3.811}, {"pitch": 62, "velocity": 84, "note_on_time": 4.575, "note_off_time": 4.697}, {"pitch": 64, "velocity": 91, "note_on_time": 4.873, "note_off_time": 4.976}, {"pitch": 64, "velocity": 89, "note_on_time": 5.127, "note_off_time": 5.261}, {"pitch": 60, "velocity": 94, "note_on_time": 5.417, "note_off_time": 5.568}, {"pitch": 62, "velocity": 91, "note_on_time": 5.726, "note_off_time": 5.829}, {"pitch": 64, "velocity": 95, "note_on_time": 5.992, "note_off_time": 6.133}, {"pitch": 62, "velocity": 90, "note_on_time": 6.291, "note_off_time": 6.401}, {"pitch": 62, "velocity": 93, "note_on_time": 6.551, "note_off_time": 6.689}, {"pitch": 64, "velocity": 94, "note_on_time": 6.902, "note_off_time": 7.022}, {"pitch": 60, "velocity": 95, "note_on_time": 7.236, "note_off_time": 7.377}, {"pitch": 62, "velocity": 95, "note_on_time": 7.984, "note_off_time": 8.089}, {"pitch": 64, "velocity": 82, "note_on_time": 8.343, "note_off_time": 8.478}, {"pitch": 64, "velocity": 67, "note_on_time": 8.652, "note_off_time": 9.003}, {"pitch": 62, "velocity": 83, "note_on_time": 9.536, "note_off_time": 9.632}, {"pitch": 64, "velocity": 88, "note_on_time": 9.824, "note_off_time": 9.904}, {"pitch": 64, "velocity": 86, "note_on_time": 9.978, "note_off_time": 10.062}, {"pitch": 64, "velocity": 87, "note_on_time": 10.137, "note_off_time": 10.263}]</notes><guidance name="Guidance Mode">None</guidance><error name="Error value">0.7610710000000009</error></trial><trial trial_no="2" timestamp="2022_09_12-12_27_04"><notes name="Played Notes">[{"pitch": 62, "velocity": 82, "note_on_time": 1.258, "note_off_time": 1.432}, {"pitch": 64, "velocity": 86, "note_on_time": 1.561, "note_off_time": 1.706}, {"pitch": 64, "velocity": 74, "note_on_time": 2.3, "note_off_time": 2.651}, {"pitch": 64, "velocity": 81, "note_on_time": 3.378, "note_off_time": 3.503}, {"pitch": 64, "velocity": 84, "note_on_time": 3.699, "note_off_time": 3.802}, {"pitch": 62, "velocity": 78, "note_on_time": 4.922, "note_off_time": 5.057}, {"pitch": 64, "velocity": 87, "note_on_time": 5.24, "note_off_time": 5.353}, {"pitch": 64, "velocity": 90, "note_on_time": 5.513, "note_off_time": 5.661}, {"pitch": 60, "velocity": 92, "note_on_time": 5.811, "note_off_time": 5.976}, {"pitch": 62, "velocity": 92, "note_on_time": 6.15, "note_off_time": 6.256}, {"pitch": 64, "velocity": 92, "note_on_time": 6.406, "note_off_time": 6.57}, {"pitch": 62, "velocity": 87, "note_on_time": 6.736, "note_off_time": 6.852}, {"pitch": 62, "velocity": 91, "note_on_time": 7.015, "note_off_time": 7.151}, {"pitch": 64, "velocity": 91, "note_on_time": 7.318, "note_off_time": 7.446}, {"pitch": 60, "velocity": 91, "note_on_time": 7.642, "note_off_time": 7.785}, {"pitch": 64, "velocity": 84, "note_on_time": 8.255, "note_off_time": 8.391}, {"pitch": 64, "velocity": 86, "note_on_time": 9.314, "note_off_time": 9.526}, {"pitch": 64, "velocity": 88, "note_on_time": 10.085, "note_off_time": 10.18}, {"pitch": 64, "velocity": 85, "note_on_time": 10.304, "note_off_time": 10.396}]</notes><guidance name="Guidance Mode">None</guidance><error name="Error value">0.1731399411764709</error></trial><trial trial_no="3" timestamp="2022_09_12-12_27_26"><notes name="Played Notes">[{"pitch": 62, "velocity": 89, "note_on_time": 1.395, "note_off_time": 1.544}, {"pitch": 64, "velocity": 90, "note_on_time": 1.674, "note_off_time": 1.859}, {"pitch": 64, "velocity": 92, "note_on_time": 2.47, "note_off_time": 2.784}, {"pitch": 64, "velocity": 90, "note_on_time": 3.38, "note_off_time": 3.502}, {"pitch": 64, "velocity": 88, "note_on_time": 3.664, "note_off_time": 3.774}, {"pitch": 62, "velocity": 82, "note_on_time": 4.772, "note_off_time": 4.913}, {"pitch": 64, "velocity": 93, "note_on_time": 5.063, "note_off_time": 5.188}, {"pitch": 64, "velocity": 88, "note_on_time": 5.332, "note_off_time": 5.472}, {"pitch": 60, "velocity": 94, "note_on_time": 5.619, "note_off_time": 5.779}, {"pitch": 62, "velocity": 90, "note_on_time": 5.919, "note_off_time": 6.056}, {"pitch": 64, "velocity": 92, "note_on_time": 6.182, "note_off_time": 6.348}, {"pitch": 62, "velocity": 88, "note_on_time": 6.493, "note_off_time": 6.609}, {"pitch": 62, "velocity": 89, "note_on_time": 6.789, "note_off_time": 6.931}, {"pitch": 64, "velocity": 90, "note_on_time": 7.097, "note_off_time": 7.242}, {"pitch": 60, "velocity": 94, "note_on_time": 7.379, "note_off_time": 7.551}, {"pitch": 64, "velocity": 85, "note_on_time": 8.228, "note_off_time": 8.362}, {"pitch": 64, "velocity": 90, "note_on_time": 8.517, "note_off_time": 8.872}, {"pitch": 64, "velocity": 90, "note_on_time": 9.838, "note_off_time": 9.942}, {"pitch": 64, "velocity": 89, "note_on_time": 10.1, "note_off_time": 10.206}, {"pitch": 64, "velocity": 93, "note_on_time": 10.357, "note_off_time": 10.458}]</notes><guidance name="Guidance Mode">None</guidance><error name="Error value">0.04054158823529397</error></trial></trials></MIDI>