<MIDI midiNo="2022_11_23-16_40_24"><target_notes><notes name="Note List">[{"pitch": 42, "velocity": 80, "note_on_time": 0.004, "note_off_time": 0.236}, {"pitch": 42, "velocity": 80, "note_on_time": 0.236, "note_off_time": 0.47}, {"pitch": 42, "velocity": 80, "note_on_time": 0.47, "note_off_time": 0.701}, {"pitch": 42, "velocity": 80, "note_on_time": 0.701, "note_off_time": 0.935}, {"pitch": 64, "velocity": 80, "note_on_time": 0.935, "note_off_time": 1.167}, {"pitch": 42, "velocity": 80, "note_on_time": 0.936, "note_off_time": 1.168}, {"pitch": 64, "velocity": 80, "note_on_time": 1.167, "note_off_time": 1.399}, {"pitch": 42, "velocity": 80, "note_on_time": 1.168, "note_off_time": 1.4}, {"pitch": 67, "velocity": 80, "note_on_time": 1.399, "note_off_time": 1.631}, {"pitch": 42, "velocity": 80, "note_on_time": 1.4, "note_off_time": 1.631}, {"pitch": 67, "velocity": 80, "note_on_time": 1.631, "note_off_time": 1.864}, {"pitch": 42, "velocity": 80, "note_on_time": 1.631, "note_off_time": 1.864}, {"pitch": 42, "velocity": 80, "note_on_time": 1.865, "note_off_time": 2.097}, {"pitch": 60, "velocity": 80, "note_on_time": 1.864, "note_off_time": 2.331}, {"pitch": 42, "velocity": 80, "note_on_time": 2.098, "note_off_time": 2.332}, {"pitch": 42, "velocity": 80, "note_on_time": 2.332, "note_off_time": 2.563}, {"pitch": 64, "velocity": 80, "note_on_time": 2.563, "note_off_time": 2.798}, {"pitch": 42, "velocity": 80, "note_on_time": 2.563, "note_off_time": 2.799}, {"pitch": 65, "velocity": 80, "note_on_time": 2.798, "note_off_time": 3.032}, {"pitch": 42, "velocity": 80, "note_on_time": 2.799, "note_off_time": 3.033}, {"pitch": 64, "velocity": 80, "note_on_time": 3.032, "note_off_time": 3.265}, {"pitch": 42, "velocity": 80, "note_on_time": 3.033, "note_off_time": 3.265}, {"pitch": 64, "velocity": 80, "note_on_time": 3.265, "note_off_time": 3.499}, {"pitch": 42, "velocity": 80, "note_on_time": 3.265, "note_off_time": 3.499}, {"pitch": 67, "velocity": 80, "note_on_time": 3.499, "note_off_time": 3.732}, {"pitch": 42, "velocity": 80, "note_on_time": 3.499, "note_off_time": 3.733}, {"pitch": 42, "velocity": 80, "note_on_time": 3.733, "note_off_time": 3.965}, {"pitch": 67, "velocity": 80, "note_on_time": 3.732, "note_off_time": 4.198}, {"pitch": 42, "velocity": 80, "note_on_time": 3.965, "note_off_time": 4.198}, {"pitch": 42, "velocity": 80, "note_on_time": 4.199, "note_off_time": 4.431}, {"pitch": 60, "velocity": 80, "note_on_time": 4.43, "note_off_time": 4.662}, {"pitch": 42, "velocity": 80, "note_on_time": 4.431, "note_off_time": 4.662}, {"pitch": 64, "velocity": 80, "note_on_time": 4.662, "note_off_time": 4.894}, {"pitch": 42, "velocity": 80, "note_on_time": 4.662, "note_off_time": 4.895}, {"pitch": 60, "velocity": 80, "note_on_time": 4.894, "note_off_time": 5.128}, {"pitch": 42, "velocity": 80, "note_on_time": 4.895, "note_off_time": 5.128}, {"pitch": 62, "velocity": 80, "note_on_time": 5.128, "note_off_time": 5.361}, {"pitch": 42, "velocity": 80, "note_on_time": 5.129, "note_off_time": 5.361}, {"pitch": 64, "velocity": 80, "note_on_time": 5.361, "note_off_time": 5.595}, {"pitch": 42, "velocity": 80, "note_on_time": 5.361, "note_off_time": 5.595}, {"pitch": 62, "velocity": 80, "note_on_time": 5.595, "note_off_time": 5.829}, {"pitch": 42, "velocity": 80, "note_on_time": 5.596, "note_off_time": 5.829}, {"pitch": 65, "velocity": 80, "note_on_time": 5.829, "note_off_time": 6.062}, {"pitch": 42, "velocity": 80, "note_on_time": 5.829, "note_off_time": 6.062}, {"pitch": 62, "velocity": 80, "note_on_time": 6.062, "note_off_time": 6.296}, {"pitch": 42, "velocity": 80, "note_on_time": 6.062, "note_off_time": 6.296}, {"pitch": 67, "velocity": 80, "note_on_time": 6.296, "note_off_time": 6.529}, {"pitch": 42, "velocity": 80, "note_on_time": 6.297, "note_off_time": 6.53}, {"pitch": 67, "velocity": 80, "note_on_time": 6.529, "note_off_time": 6.762}, {"pitch": 42, "velocity": 80, "note_on_time": 6.53, "note_off_time": 6.763}, {"pitch": 42, "velocity": 80, "note_on_time": 6.763, "note_off_time": 6.997}, {"pitch": 42, "velocity": 80, "note_on_time": 6.997, "note_off_time": 7.23}, {"pitch": 42, "velocity": 80, "note_on_time": 7.231, "note_off_time": 7.465}, {"pitch": 42, "velocity": 80, "note_on_time": 7.465, "note_off_time": 7.697}, {"pitch": 67, "velocity": 80, "note_on_time": 7.697, "note_off_time": 7.931}, {"pitch": 42, "velocity": 80, "note_on_time": 7.697, "note_off_time": 7.931}, {"pitch": 67, "velocity": 80, "note_on_time": 7.931, "note_off_time": 8.166}, {"pitch": 42, "velocity": 80, "note_on_time": 7.932, "note_off_time": 8.166}, {"pitch": 67, "velocity": 80, "note_on_time": 8.166, "note_off_time": 8.4}, {"pitch": 42, "velocity": 80, "note_on_time": 8.166, "note_off_time": 8.4}]</notes><options name="Option List">((4, 4), [0.5, 0.25], 3, 8, &lt;NoteRangePerHand.C_TO_G: 6&gt;, &lt;NoteRangePerHand.ONE_NOTE: 2&gt;, False, True, True, '265')</options></target_notes><trials><trial trial_no="1" timestamp="2022_11_23-16_40_15"><notes name="Played Notes">[{"pitch": 64, "velocity": 78, "note_on_time": 0.99, "note_off_time": 1.098}, {"pitch": 64, "velocity": 70, "note_on_time": 1.234, "note_off_time": 1.355}, {"pitch": 67, "velocity": 76, "note_on_time": 1.488, "note_off_time": 1.589}, {"pitch": 67, "velocity": 66, "note_on_time": 1.71, "note_off_time": 1.827}, {"pitch": 60, "velocity": 74, "note_on_time": 1.941, "note_off_time": 2.192}, {"pitch": 64, "velocity": 86, "note_on_time": 2.802, "note_off_time": 3.041}, {"pitch": 65, "velocity": 88, "note_on_time": 3.244, "note_off_time": 3.346}, {"pitch": 64, "velocity": 86, "note_on_time": 3.51, "note_off_time": 3.627}, {"pitch": 64, "velocity": 40, "note_on_time": 3.77, "note_off_time": 3.796}, {"pitch": 64, "velocity": 92, "note_on_time": 3.894, "note_off_time": 4.067}, {"pitch": 67, "velocity": 73, "note_on_time": 4.185, "note_off_time": 4.33}, {"pitch": 67, "velocity": 84, "note_on_time": 4.454, "note_off_time": 4.902}, {"pitch": 60, "velocity": 84, "note_on_time": 5.323, "note_off_time": 5.454}, {"pitch": 64, "velocity": 78, "note_on_time": 5.568, "note_off_time": 5.716}, {"pitch": 60, "velocity": 81, "note_on_time": 5.807, "note_off_time": 5.909}, {"pitch": 62, "velocity": 66, "note_on_time": 6.043, "note_off_time": 6.162}, {"pitch": 64, "velocity": 83, "note_on_time": 6.294, "note_off_time": 6.401}, {"pitch": 62, "velocity": 81, "note_on_time": 6.534, "note_off_time": 6.634}, {"pitch": 65, "velocity": 88, "note_on_time": 6.766, "note_off_time": 6.885}, {"pitch": 62, "velocity": 76, "note_on_time": 7.0, "note_off_time": 7.1}, {"pitch": 67, "velocity": 78, "note_on_time": 7.236, "note_off_time": 7.348}, {"pitch": 67, "velocity": 66, "note_on_time": 7.462, "note_off_time": 7.562}, {"pitch": 67, "velocity": 91, "note_on_time": 8.18, "note_off_time": 8.285}]</notes><guidance name="Guidance Mode">None</guidance><error name="Error value">0.5146909523809523</error></trial><trial trial_no="2" timestamp="2022_11_23-16_40_46"><notes name="Played Notes">[{"pitch": 64, "velocity": 88, "note_on_time": 0.975, "note_off_time": 1.071}, {"pitch": 64, "velocity": 85, "note_on_time": 1.224, "note_off_time": 1.331}, {"pitch": 67, "velocity": 79, "note_on_time": 1.47, "note_off_time": 1.574}, {"pitch": 67, "velocity": 61, "note_on_time": 1.679, "note_off_time": 1.797}, {"pitch": 60, "velocity": 87, "note_on_time": 1.932, "note_off_time": 2.327}, {"pitch": 64, "velocity": 92, "note_on_time": 2.783, "note_off_time": 2.914}, {"pitch": 65, "velocity": 87, "note_on_time": 3.02, "note_off_time": 3.127}, {"pitch": 64, "velocity": 84, "note_on_time": 3.242, "note_off_time": 3.33}, {"pitch": 64, "velocity": 88, "note_on_time": 3.486, "note_off_time": 3.583}, {"pitch": 67, "velocity": 85, "note_on_time": 3.722, "note_off_time": 3.819}, {"pitch": 67, "velocity": 79, "note_on_time": 3.95, "note_off_time": 4.305}, {"pitch": 60, "velocity": 84, "note_on_time": 4.685, "note_off_time": 4.815}, {"pitch": 64, "velocity": 78, "note_on_time": 4.921, "note_off_time": 5.053}, {"pitch": 60, "velocity": 87, "note_on_time": 5.149, "note_off_time": 5.27}, {"pitch": 62, "velocity": 76, "note_on_time": 5.373, "note_off_time": 5.463}, {"pitch": 64, "velocity": 80, "note_on_time": 5.602, "note_off_time": 5.727}, {"pitch": 62, "velocity": 79, "note_on_time": 5.83, "note_off_time": 5.921}, {"pitch": 65, "velocity": 88, "note_on_time": 6.056, "note_off_time": 6.171}, {"pitch": 62, "velocity": 75, "note_on_time": 6.287, "note_off_time": 6.396}, {"pitch": 67, "velocity": 78, "note_on_time": 6.53, "note_off_time": 6.626}, {"pitch": 67, "velocity": 78, "note_on_time": 6.766, "note_off_time": 6.875}, {"pitch": 67, "velocity": 91, "note_on_time": 7.459, "note_off_time": 7.563}, {"pitch": 67, "velocity": 84, "note_on_time": 7.673, "note_off_time": 7.784}, {"pitch": 67, "velocity": 91, "note_on_time": 7.898, "note_off_time": 8.134}]</notes><guidance name="Guidance Mode">None</guidance><error name="Error value">0.040917380952380976</error></trial><trial trial_no="3" timestamp="2022_11_23-16_41_12"><notes name="Played Notes">[{"pitch": 64, "velocity": 86, "note_on_time": 0.99, "note_off_time": 1.083}, {"pitch": 64, "velocity": 68, "note_on_time": 1.202, "note_off_time": 1.303}, {"pitch": 67, "velocity": 78, "note_on_time": 1.453, "note_off_time": 1.541}, {"pitch": 67, "velocity": 65, "note_on_time": 1.659, "note_off_time": 1.762}, {"pitch": 60, "velocity": 88, "note_on_time": 1.908, "note_off_time": 2.128}, {"pitch": 64, "velocity": 92, "note_on_time": 2.464, "note_off_time": 2.637}, {"pitch": 65, "velocity": 90, "note_on_time": 2.973, "note_off_time": 3.123}, {"pitch": 64, "velocity": 75, "note_on_time": 3.177, "note_off_time": 3.275}, {"pitch": 64, "velocity": 67, "note_on_time": 3.406, "note_off_time": 3.52}, {"pitch": 67, "velocity": 77, "note_on_time": 3.672, "note_off_time": 3.773}, {"pitch": 67, "velocity": 79, "note_on_time": 3.933, "note_off_time": 4.143}, {"pitch": 60, "velocity": 89, "note_on_time": 4.883, "note_off_time": 5.008}, {"pitch": 64, "velocity": 84, "note_on_time": 5.345, "note_off_time": 5.457}, {"pitch": 60, "velocity": 85, "note_on_time": 5.578, "note_off_time": 5.683}, {"pitch": 62, "velocity": 82, "note_on_time": 5.793, "note_off_time": 5.89}, {"pitch": 64, "velocity": 80, "note_on_time": 6.016, "note_off_time": 6.105}, {"pitch": 62, "velocity": 81, "note_on_time": 6.272, "note_off_time": 6.366}, {"pitch": 65, "velocity": 79, "note_on_time": 6.515, "note_off_time": 6.605}, {"pitch": 62, "velocity": 78, "note_on_time": 6.748, "note_off_time": 6.848}, {"pitch": 67, "velocity": 80, "note_on_time": 6.976, "note_off_time": 7.071}, {"pitch": 67, "velocity": 80, "note_on_time": 7.224, "note_off_time": 7.335}, {"pitch": 67, "velocity": 78, "note_on_time": 7.905, "note_off_time": 8.003}, {"pitch": 67, "velocity": 84, "note_on_time": 8.133, "note_off_time": 8.236}]</notes><guidance name="Guidance Mode">None</guidance><error name="Error value">0.13665499999999994</error></trial></trials></MIDI>