<MIDI midiNo="2022_11_21-16_42_48"><target_notes><notes name="Note List">[{"pitch": 42, "velocity": 80, "note_on_time": 0.003, "note_off_time": 0.255}, {"pitch": 42, "velocity": 80, "note_on_time": 0.255, "note_off_time": 0.502}, {"pitch": 42, "velocity": 80, "note_on_time": 0.502, "note_off_time": 0.75}, {"pitch": 42, "velocity": 80, "note_on_time": 0.75, "note_off_time": 1.0}, {"pitch": 60, "velocity": 80, "note_on_time": 0.999, "note_off_time": 1.248}, {"pitch": 42, "velocity": 80, "note_on_time": 1.0, "note_off_time": 1.248}, {"pitch": 64, "velocity": 80, "note_on_time": 1.248, "note_off_time": 1.498}, {"pitch": 42, "velocity": 80, "note_on_time": 1.248, "note_off_time": 1.499}, {"pitch": 62, "velocity": 80, "note_on_time": 1.498, "note_off_time": 1.748}, {"pitch": 42, "velocity": 80, "note_on_time": 1.499, "note_off_time": 1.748}, {"pitch": 62, "velocity": 80, "note_on_time": 1.748, "note_off_time": 1.997}, {"pitch": 42, "velocity": 80, "note_on_time": 1.748, "note_off_time": 1.998}, {"pitch": 64, "velocity": 80, "note_on_time": 1.997, "note_off_time": 2.247}, {"pitch": 42, "velocity": 80, "note_on_time": 1.998, "note_off_time": 2.247}, {"pitch": 64, "velocity": 80, "note_on_time": 2.247, "note_off_time": 2.495}, {"pitch": 42, "velocity": 80, "note_on_time": 2.247, "note_off_time": 2.495}, {"pitch": 42, "velocity": 80, "note_on_time": 2.496, "note_off_time": 2.743}, {"pitch": 64, "velocity": 80, "note_on_time": 2.495, "note_off_time": 2.99}, {"pitch": 42, "velocity": 80, "note_on_time": 2.744, "note_off_time": 2.99}, {"pitch": 60, "velocity": 80, "note_on_time": 2.99, "note_off_time": 3.239}, {"pitch": 42, "velocity": 80, "note_on_time": 2.991, "note_off_time": 3.239}, {"pitch": 42, "velocity": 80, "note_on_time": 3.239, "note_off_time": 3.487}, {"pitch": 42, "velocity": 80, "note_on_time": 3.487, "note_off_time": 3.736}, {"pitch": 42, "velocity": 80, "note_on_time": 3.736, "note_off_time": 3.984}, {"pitch": 62, "velocity": 80, "note_on_time": 3.984, "note_off_time": 4.234}, {"pitch": 42, "velocity": 80, "note_on_time": 3.984, "note_off_time": 4.234}, {"pitch": 42, "velocity": 80, "note_on_time": 4.234, "note_off_time": 4.484}, {"pitch": 42, "velocity": 80, "note_on_time": 4.484, "note_off_time": 4.736}, {"pitch": 60, "velocity": 80, "note_on_time": 4.736, "note_off_time": 4.986}, {"pitch": 42, "velocity": 80, "note_on_time": 4.736, "note_off_time": 4.986}, {"pitch": 62, "velocity": 80, "note_on_time": 4.986, "note_off_time": 5.233}, {"pitch": 42, "velocity": 80, "note_on_time": 4.986, "note_off_time": 5.233}, {"pitch": 64, "velocity": 80, "note_on_time": 5.233, "note_off_time": 5.482}, {"pitch": 42, "velocity": 80, "note_on_time": 5.234, "note_off_time": 5.482}, {"pitch": 62, "velocity": 80, "note_on_time": 5.482, "note_off_time": 5.731}, {"pitch": 42, "velocity": 80, "note_on_time": 5.483, "note_off_time": 5.731}, {"pitch": 60, "velocity": 80, "note_on_time": 5.731, "note_off_time": 5.979}, {"pitch": 42, "velocity": 80, "note_on_time": 5.732, "note_off_time": 5.979}, {"pitch": 64, "velocity": 80, "note_on_time": 5.979, "note_off_time": 6.228}, {"pitch": 42, "velocity": 80, "note_on_time": 5.98, "note_off_time": 6.229}, {"pitch": 42, "velocity": 80, "note_on_time": 6.229, "note_off_time": 6.477}, {"pitch": 60, "velocity": 80, "note_on_time": 6.477, "note_off_time": 6.727}, {"pitch": 42, "velocity": 80, "note_on_time": 6.478, "note_off_time": 6.727}, {"pitch": 42, "velocity": 80, "note_on_time": 6.728, "note_off_time": 6.976}, {"pitch": 62, "velocity": 80, "note_on_time": 6.976, "note_off_time": 7.223}, {"pitch": 42, "velocity": 80, "note_on_time": 6.977, "note_off_time": 7.223}, {"pitch": 60, "velocity": 80, "note_on_time": 7.223, "note_off_time": 7.472}, {"pitch": 42, "velocity": 80, "note_on_time": 7.223, "note_off_time": 7.473}, {"pitch": 62, "velocity": 80, "note_on_time": 7.472, "note_off_time": 7.721}, {"pitch": 42, "velocity": 80, "note_on_time": 7.473, "note_off_time": 7.721}, {"pitch": 62, "velocity": 80, "note_on_time": 7.721, "note_off_time": 7.969}, {"pitch": 42, "velocity": 80, "note_on_time": 7.722, "note_off_time": 7.969}, {"pitch": 42, "velocity": 80, "note_on_time": 7.969, "note_off_time": 8.219}, {"pitch": 62, "velocity": 80, "note_on_time": 8.219, "note_off_time": 8.467}, {"pitch": 42, "velocity": 80, "note_on_time": 8.219, "note_off_time": 8.467}, {"pitch": 62, "velocity": 80, "note_on_time": 8.467, "note_off_time": 8.717}, {"pitch": 42, "velocity": 80, "note_on_time": 8.467, "note_off_time": 8.717}, {"pitch": 62, "velocity": 80, "note_on_time": 8.717, "note_off_time": 8.967}, {"pitch": 42, "velocity": 80, "note_on_time": 8.717, "note_off_time": 8.967}]</notes><options name="Option List">((4, 4), [0.5, 0.25], 3, 8, &lt;NoteRangePerHand.THREE_NOTES: 4&gt;, &lt;NoteRangePerHand.ONE_NOTE: 2&gt;, False, True, False, '248')</options></target_notes><trials><trial trial_no="1" timestamp="2022_11_21-16_42_37"><notes name="Played Notes">[{"pitch": 60, "velocity": 84, "note_on_time": 1.019, "note_off_time": 1.235}, {"pitch": 64, "velocity": 73, "note_on_time": 1.262, "note_off_time": 1.43}, {"pitch": 62, "velocity": 77, "note_on_time": 1.52, "note_off_time": 1.666}, {"pitch": 62, "velocity": 73, "note_on_time": 1.76, "note_off_time": 1.903}, {"pitch": 64, "velocity": 74, "note_on_time": 2.022, "note_off_time": 2.161}, {"pitch": 64, "velocity": 66, "note_on_time": 2.252, "note_off_time": 2.421}, {"pitch": 64, "velocity": 68, "note_on_time": 2.53, "note_off_time": 2.879}, {"pitch": 60, "velocity": 94, "note_on_time": 3.025, "note_off_time": 3.223}, {"pitch": 62, "velocity": 88, "note_on_time": 4.006, "note_off_time": 4.182}, {"pitch": 60, "velocity": 84, "note_on_time": 4.759, "note_off_time": 4.89}, {"pitch": 62, "velocity": 82, "note_on_time": 5.015, "note_off_time": 5.159}, {"pitch": 64, "velocity": 76, "note_on_time": 5.257, "note_off_time": 5.409}, {"pitch": 62, "velocity": 56, "note_on_time": 5.436, "note_off_time": 5.662}, {"pitch": 60, "velocity": 79, "note_on_time": 5.706, "note_off_time": 5.872}, {"pitch": 64, "velocity": 74, "note_on_time": 5.962, "note_off_time": 6.161}, {"pitch": 60, "velocity": 88, "note_on_time": 6.527, "note_off_time": 6.709}, {"pitch": 62, "velocity": 84, "note_on_time": 7.005, "note_off_time": 7.198}, {"pitch": 60, "velocity": 76, "note_on_time": 7.246, "note_off_time": 7.411}, {"pitch": 62, "velocity": 85, "note_on_time": 7.515, "note_off_time": 7.655}, {"pitch": 62, "velocity": 65, "note_on_time": 7.758, "note_off_time": 7.921}, {"pitch": 62, "velocity": 71, "note_on_time": 8.28, "note_off_time": 8.418}, {"pitch": 62, "velocity": 67, "note_on_time": 8.525, "note_off_time": 8.704}]</notes><guidance name="Guidance Mode">None</guidance><error name="Error value">0.08285525000000005</error></trial><trial trial_no="2" timestamp="2022_11_21-16_43_02"><notes name="Played Notes">[{"pitch": 60, "velocity": 88, "note_on_time": 1.031, "note_off_time": 1.199}, {"pitch": 64, "velocity": 79, "note_on_time": 1.273, "note_off_time": 1.413}, {"pitch": 62, "velocity": 75, "note_on_time": 1.547, "note_off_time": 1.666}, {"pitch": 62, "velocity": 66, "note_on_time": 1.784, "note_off_time": 1.914}, {"pitch": 64, "velocity": 78, "note_on_time": 2.044, "note_off_time": 2.186}, {"pitch": 64, "velocity": 69, "note_on_time": 2.275, "note_off_time": 2.436}, {"pitch": 64, "velocity": 71, "note_on_time": 2.536, "note_off_time": 2.889}, {"pitch": 60, "velocity": 98, "note_on_time": 3.028, "note_off_time": 3.211}, {"pitch": 62, "velocity": 82, "note_on_time": 3.992, "note_off_time": 4.156}, {"pitch": 60, "velocity": 81, "note_on_time": 4.764, "note_off_time": 4.88}, {"pitch": 62, "velocity": 76, "note_on_time": 5.023, "note_off_time": 5.154}, {"pitch": 64, "velocity": 76, "note_on_time": 5.279, "note_off_time": 5.44}, {"pitch": 62, "velocity": 75, "note_on_time": 5.516, "note_off_time": 5.638}, {"pitch": 60, "velocity": 82, "note_on_time": 5.744, "note_off_time": 5.872}, {"pitch": 64, "velocity": 76, "note_on_time": 5.999, "note_off_time": 6.177}, {"pitch": 60, "velocity": 84, "note_on_time": 6.533, "note_off_time": 6.696}, {"pitch": 62, "velocity": 79, "note_on_time": 6.994, "note_off_time": 7.164}, {"pitch": 60, "velocity": 82, "note_on_time": 7.234, "note_off_time": 7.361}, {"pitch": 62, "velocity": 74, "note_on_time": 7.494, "note_off_time": 7.619}, {"pitch": 62, "velocity": 68, "note_on_time": 7.735, "note_off_time": 7.904}, {"pitch": 62, "velocity": 75, "note_on_time": 8.265, "note_off_time": 8.391}, {"pitch": 62, "velocity": 70, "note_on_time": 8.52, "note_off_time": 8.673}, {"pitch": 62, "velocity": 87, "note_on_time": 8.756, "note_off_time": 8.92}]</notes><guidance name="Guidance Mode">None</guidance><error name="Error value">0.01826624999999995</error></trial><trial trial_no="3" timestamp="2022_11_21-16_43_24"><notes name="Played Notes">[{"pitch": 60, "velocity": 90, "note_on_time": 1.014, "note_off_time": 1.211}, {"pitch": 64, "velocity": 80, "note_on_time": 1.255, "note_off_time": 1.415}, {"pitch": 62, "velocity": 74, "note_on_time": 1.507, "note_off_time": 1.632}, {"pitch": 62, "velocity": 67, "note_on_time": 1.735, "note_off_time": 1.878}, {"pitch": 64, "velocity": 74, "note_on_time": 1.996, "note_off_time": 2.143}, {"pitch": 64, "velocity": 68, "note_on_time": 2.232, "note_off_time": 2.39}, {"pitch": 64, "velocity": 69, "note_on_time": 2.49, "note_off_time": 2.888}, {"pitch": 60, "velocity": 90, "note_on_time": 3.014, "note_off_time": 3.179}, {"pitch": 62, "velocity": 81, "note_on_time": 4.011, "note_off_time": 4.196}, {"pitch": 60, "velocity": 83, "note_on_time": 4.789, "note_off_time": 4.95}, {"pitch": 62, "velocity": 73, "note_on_time": 5.043, "note_off_time": 5.183}, {"pitch": 64, "velocity": 73, "note_on_time": 5.279, "note_off_time": 5.452}, {"pitch": 62, "velocity": 72, "note_on_time": 5.515, "note_off_time": 5.685}, {"pitch": 60, "velocity": 81, "note_on_time": 5.753, "note_off_time": 5.92}, {"pitch": 64, "velocity": 71, "note_on_time": 5.999, "note_off_time": 6.192}, {"pitch": 60, "velocity": 92, "note_on_time": 6.54, "note_off_time": 6.666}, {"pitch": 62, "velocity": 73, "note_on_time": 6.988, "note_off_time": 7.186}, {"pitch": 60, "velocity": 87, "note_on_time": 7.219, "note_off_time": 7.353}, {"pitch": 62, "velocity": 74, "note_on_time": 7.477, "note_off_time": 7.614}, {"pitch": 62, "velocity": 67, "note_on_time": 7.716, "note_off_time": 7.892}, {"pitch": 62, "velocity": 79, "note_on_time": 8.204, "note_off_time": 8.361}, {"pitch": 62, "velocity": 77, "note_on_time": 8.45, "note_off_time": 8.598}, {"pitch": 62, "velocity": 83, "note_on_time": 8.686, "note_off_time": 8.867}]</notes><guidance name="Guidance Mode">None</guidance><error name="Error value">0.017829249999999908</error></trial><trial trial_no="4" timestamp="2022_11_21-16_43_46"><notes name="Played Notes">[{"pitch": 60, "velocity": 77, "note_on_time": 0.996, "note_off_time": 1.2}, {"pitch": 64, "velocity": 73, "note_on_time": 1.26, "note_off_time": 1.437}, {"pitch": 62, "velocity": 82, "note_on_time": 1.504, "note_off_time": 1.641}, {"pitch": 62, "velocity": 71, "note_on_time": 1.739, "note_off_time": 1.886}, {"pitch": 64, "velocity": 70, "note_on_time": 1.981, "note_off_time": 2.139}, {"pitch": 64, "velocity": 72, "note_on_time": 2.224, "note_off_time": 2.361}, {"pitch": 64, "velocity": 70, "note_on_time": 2.479, "note_off_time": 2.85}, {"pitch": 60, "velocity": 85, "note_on_time": 2.969, "note_off_time": 3.159}, {"pitch": 62, "velocity": 84, "note_on_time": 3.98, "note_off_time": 4.155}, {"pitch": 60, "velocity": 88, "note_on_time": 4.848, "note_off_time": 5.031}, {"pitch": 64, "velocity": 59, "note_on_time": 5.098, "note_off_time": 5.309}, {"pitch": 62, "velocity": 69, "note_on_time": 5.358, "note_off_time": 5.487}, {"pitch": 62, "velocity": 47, "note_on_time": 5.581, "note_off_time": 5.821}, {"pitch": 60, "velocity": 36, "note_on_time": 5.883, "note_off_time": 5.957}, {"pitch": 64, "velocity": 68, "note_on_time": 6.171, "note_off_time": 6.362}, {"pitch": 60, "velocity": 81, "note_on_time": 6.741, "note_off_time": 6.899}, {"pitch": 62, "velocity": 66, "note_on_time": 7.207, "note_off_time": 7.382}, {"pitch": 60, "velocity": 74, "note_on_time": 7.45, "note_off_time": 7.583}, {"pitch": 62, "velocity": 69, "note_on_time": 7.717, "note_off_time": 7.842}, {"pitch": 62, "velocity": 64, "note_on_time": 7.955, "note_off_time": 8.128}, {"pitch": 62, "velocity": 67, "note_on_time": 8.458, "note_off_time": 8.608}, {"pitch": 62, "velocity": 72, "note_on_time": 8.705, "note_off_time": 8.859}]</notes><guidance name="Guidance Mode">None</guidance><error name="Error value">0.18941174999999993</error></trial></trials></MIDI>