<MIDI midiNo="20220202-151707"><target_notes><notes name="Note List">[{"pitch": 64, "velocity": 100, "note_on_time": 2.185, "note_off_time": 2.73}, {"pitch": 60, "velocity": 100, "note_on_time": 2.73, "note_off_time": 3.275}, {"pitch": 60, "velocity": 100, "note_on_time": 3.275, "note_off_time": 4.366}, {"pitch": 62, "velocity": 100, "note_on_time": 4.366, "note_off_time": 5.456}, {"pitch": 60, "velocity": 100, "note_on_time": 5.456, "note_off_time": 6.545}, {"pitch": 62, "velocity": 100, "note_on_time": 6.545, "note_off_time": 7.635}, {"pitch": 60, "velocity": 100, "note_on_time": 7.635, "note_off_time": 8.726}, {"pitch": 60, "velocity": 100, "note_on_time": 8.726, "note_off_time": 9.271}, {"pitch": 62, "velocity": 100, "note_on_time": 9.271, "note_off_time": 9.817}, {"pitch": 64, "velocity": 100, "note_on_time": 9.817, "note_off_time": 10.362}, {"pitch": 64, "velocity": 100, "note_on_time": 10.362, "note_off_time": 10.908}, {"pitch": 64, "velocity": 100, "note_on_time": 10.908, "note_off_time": 11.453}, {"pitch": 64, "velocity": 100, "note_on_time": 13.084, "note_off_time": 13.629}, {"pitch": 62, "velocity": 100, "note_on_time": 13.629, "note_off_time": 14.173}, {"pitch": 60, "velocity": 100, "note_on_time": 14.173, "note_off_time": 14.717}, {"pitch": 60, "velocity": 100, "note_on_time": 14.717, "note_off_time": 15.263}, {"pitch": 60, "velocity": 100, "note_on_time": 15.808, "note_off_time": 16.353}, {"pitch": 60, "velocity": 100, "note_on_time": 16.353, "note_off_time": 16.898}, {"pitch": 60, "velocity": 100, "note_on_time": 16.898, "note_off_time": 17.442}]</notes><options name="Option List">((4, 4), [0.5, 0.25], 3, 7, &lt;NoteRangePerHand.THREE_NOTES: 4&gt;, &lt;NoteRangePerHand.ONE_NOTE: 2&gt;, False, True, True, 111)</options></target_notes><trials><trial trial_no="1" timestamp="20220202-151647"><notes name="Played Notes">[{"pitch": 64, "velocity": 100, "note_on_time": 2.152, "note_off_time": 2.606}, {"pitch": 60, "velocity": 100, "note_on_time": 2.71, "note_off_time": 3.189}, {"pitch": 60, "velocity": 100, "note_on_time": 3.263, "note_off_time": 4.369}, {"pitch": 62, "velocity": 100, "note_on_time": 4.335, "note_off_time": 5.459}, {"pitch": 60, "velocity": 100, "note_on_time": 5.441, "note_off_time": 6.549}, {"pitch": 62, "velocity": 100, "note_on_time": 6.504, "note_off_time": 7.609}, {"pitch": 60, "velocity": 100, "note_on_time": 7.609, "note_off_time": 8.543}, {"pitch": 60, "velocity": 100, "note_on_time": 8.71, "note_off_time": 9.276}, {"pitch": 62, "velocity": 100, "note_on_time": 9.21, "note_off_time": 9.776}, {"pitch": 64, "velocity": 100, "note_on_time": 9.779, "note_off_time": 10.222}, {"pitch": 64, "velocity": 100, "note_on_time": 10.317, "note_off_time": 10.791}, {"pitch": 64, "velocity": 100, "note_on_time": 10.896, "note_off_time": 11.353}, {"pitch": 64, "velocity": 100, "note_on_time": 13.057, "note_off_time": 13.576}, {"pitch": 62, "velocity": 100, "note_on_time": 13.572, "note_off_time": 14.102}, {"pitch": 60, "velocity": 100, "note_on_time": 14.097, "note_off_time": 14.514}, {"pitch": 60, "velocity": 100, "note_on_time": 14.654, "note_off_time": 15.101}, {"pitch": 60, "velocity": 100, "note_on_time": 15.784, "note_off_time": 16.059}, {"pitch": 60, "velocity": 100, "note_on_time": 16.315, "note_off_time": 16.622}, {"pitch": 60, "velocity": 100, "note_on_time": 16.82, "note_off_time": 17.223}]</notes><guidance name="Guidance Mode">None</guidance><error name="Error value">16.823363750000002</error></trial><trial trial_no="2" timestamp="20220202-151732"><notes name="Played Notes">[{"pitch": 64, "velocity": 100, "note_on_time": 2.231, "note_off_time": 2.732}, {"pitch": 60, "velocity": 100, "note_on_time": 2.753, "note_off_time": 3.155}, {"pitch": 60, "velocity": 100, "note_on_time": 3.268, "note_off_time": 4.312}, {"pitch": 62, "velocity": 100, "note_on_time": 4.314, "note_off_time": 5.435}, {"pitch": 60, "velocity": 100, "note_on_time": 5.428, "note_off_time": 6.611}, {"pitch": 62, "velocity": 100, "note_on_time": 6.574, "note_off_time": 7.645}, {"pitch": 60, "velocity": 100, "note_on_time": 7.637, "note_off_time": 8.597}, {"pitch": 60, "velocity": 100, "note_on_time": 8.691, "note_off_time": 9.239}, {"pitch": 62, "velocity": 100, "note_on_time": 9.253, "note_off_time": 9.785}, {"pitch": 64, "velocity": 100, "note_on_time": 9.764, "note_off_time": 10.168}, {"pitch": 64, "velocity": 100, "note_on_time": 10.295, "note_off_time": 10.748}, {"pitch": 64, "velocity": 100, "note_on_time": 10.873, "note_off_time": 11.444}, {"pitch": 64, "velocity": 100, "note_on_time": 13.072, "note_off_time": 13.643}, {"pitch": 62, "velocity": 100, "note_on_time": 13.606, "note_off_time": 14.158}, {"pitch": 60, "velocity": 100, "note_on_time": 14.148, "note_off_time": 14.543}, {"pitch": 60, "velocity": 100, "note_on_time": 14.662, "note_off_time": 15.138}, {"pitch": 60, "velocity": 100, "note_on_time": 15.803, "note_off_time": 16.135}, {"pitch": 60, "velocity": 100, "note_on_time": 16.316, "note_off_time": 16.645}, {"pitch": 60, "velocity": 100, "note_on_time": 16.823, "note_off_time": 17.252}]</notes><guidance name="Guidance Mode">None</guidance><error name="Error value">16.803193750000002</error></trial></trials></MIDI>