<MIDI midiNo="2022_04_28-15_45_13"><target_notes><notes name="Note List">[{"pitch": 39, "velocity": 100, "note_on_time": 0.004, "note_off_time": 0.276}, {"pitch": 42, "velocity": 100, "note_on_time": 0.276, "note_off_time": 0.544}, {"pitch": 42, "velocity": 100, "note_on_time": 0.544, "note_off_time": 0.826}, {"pitch": 42, "velocity": 100, "note_on_time": 0.826, "note_off_time": 1.106}, {"pitch": 64, "velocity": 100, "note_on_time": 1.106, "note_off_time": 1.246}, {"pitch": 62, "velocity": 100, "note_on_time": 1.246, "note_off_time": 1.386}, {"pitch": 39, "velocity": 100, "note_on_time": 1.106, "note_off_time": 1.386}, {"pitch": 64, "velocity": 100, "note_on_time": 1.386, "note_off_time": 1.664}, {"pitch": 42, "velocity": 100, "note_on_time": 1.386, "note_off_time": 1.665}, {"pitch": 65, "velocity": 100, "note_on_time": 1.664, "note_off_time": 1.944}, {"pitch": 42, "velocity": 100, "note_on_time": 1.665, "note_off_time": 1.944}, {"pitch": 60, "velocity": 100, "note_on_time": 1.944, "note_off_time": 2.225}, {"pitch": 42, "velocity": 100, "note_on_time": 1.945, "note_off_time": 2.226}, {"pitch": 65, "velocity": 100, "note_on_time": 2.225, "note_off_time": 2.504}, {"pitch": 39, "velocity": 100, "note_on_time": 2.226, "note_off_time": 2.505}, {"pitch": 42, "velocity": 100, "note_on_time": 2.505, "note_off_time": 2.784}, {"pitch": 64, "velocity": 100, "note_on_time": 2.783, "note_off_time": 2.925}, {"pitch": 67, "velocity": 100, "note_on_time": 2.925, "note_off_time": 3.066}, {"pitch": 42, "velocity": 100, "note_on_time": 2.784, "note_off_time": 3.066}, {"pitch": 67, "velocity": 100, "note_on_time": 3.066, "note_off_time": 3.348}, {"pitch": 42, "velocity": 100, "note_on_time": 3.066, "note_off_time": 3.348}, {"pitch": 62, "velocity": 100, "note_on_time": 3.348, "note_off_time": 3.488}, {"pitch": 60, "velocity": 100, "note_on_time": 3.488, "note_off_time": 3.628}, {"pitch": 39, "velocity": 100, "note_on_time": 3.348, "note_off_time": 3.628}, {"pitch": 62, "velocity": 100, "note_on_time": 3.628, "note_off_time": 3.768}, {"pitch": 67, "velocity": 100, "note_on_time": 3.768, "note_off_time": 3.908}, {"pitch": 42, "velocity": 100, "note_on_time": 3.628, "note_off_time": 3.909}, {"pitch": 64, "velocity": 100, "note_on_time": 3.908, "note_off_time": 4.189}, {"pitch": 42, "velocity": 100, "note_on_time": 3.909, "note_off_time": 4.189}, {"pitch": 65, "velocity": 100, "note_on_time": 4.189, "note_off_time": 4.468}, {"pitch": 42, "velocity": 100, "note_on_time": 4.19, "note_off_time": 4.469}, {"pitch": 64, "velocity": 100, "note_on_time": 4.468, "note_off_time": 4.609}, {"pitch": 65, "velocity": 100, "note_on_time": 4.609, "note_off_time": 4.749}, {"pitch": 39, "velocity": 100, "note_on_time": 4.469, "note_off_time": 4.749}, {"pitch": 64, "velocity": 100, "note_on_time": 4.749, "note_off_time": 4.891}, {"pitch": 64, "velocity": 100, "note_on_time": 4.891, "note_off_time": 5.03}, {"pitch": 42, "velocity": 100, "note_on_time": 4.749, "note_off_time": 5.03}, {"pitch": 62, "velocity": 100, "note_on_time": 5.03, "note_off_time": 5.31}, {"pitch": 42, "velocity": 100, "note_on_time": 5.03, "note_off_time": 5.311}, {"pitch": 62, "velocity": 100, "note_on_time": 5.31, "note_off_time": 5.592}, {"pitch": 42, "velocity": 100, "note_on_time": 5.311, "note_off_time": 5.593}, {"pitch": 39, "velocity": 100, "note_on_time": 5.593, "note_off_time": 5.873}, {"pitch": 65, "velocity": 100, "note_on_time": 5.592, "note_off_time": 6.153}, {"pitch": 42, "velocity": 100, "note_on_time": 5.874, "note_off_time": 6.153}, {"pitch": 42, "velocity": 100, "note_on_time": 6.153, "note_off_time": 6.434}, {"pitch": 67, "velocity": 100, "note_on_time": 6.433, "note_off_time": 6.713}, {"pitch": 42, "velocity": 100, "note_on_time": 6.434, "note_off_time": 6.713}, {"pitch": 67, "velocity": 100, "note_on_time": 6.713, "note_off_time": 6.996}, {"pitch": 39, "velocity": 100, "note_on_time": 6.713, "note_off_time": 6.996}, {"pitch": 42, "velocity": 100, "note_on_time": 6.996, "note_off_time": 7.277}, {"pitch": 62, "velocity": 100, "note_on_time": 6.996, "note_off_time": 7.558}, {"pitch": 42, "velocity": 100, "note_on_time": 7.277, "note_off_time": 7.558}, {"pitch": 42, "velocity": 100, "note_on_time": 7.559, "note_off_time": 7.839}, {"pitch": 65, "velocity": 100, "note_on_time": 7.839, "note_off_time": 8.119}, {"pitch": 39, "velocity": 100, "note_on_time": 7.839, "note_off_time": 8.119}, {"pitch": 65, "velocity": 100, "note_on_time": 8.119, "note_off_time": 8.4}, {"pitch": 42, "velocity": 100, "note_on_time": 8.119, "note_off_time": 8.4}, {"pitch": 42, "velocity": 100, "note_on_time": 8.4, "note_off_time": 8.677}, {"pitch": 62, "velocity": 100, "note_on_time": 8.4, "note_off_time": 8.955}, {"pitch": 42, "velocity": 100, "note_on_time": 8.677, "note_off_time": 8.956}, {"pitch": 39, "velocity": 100, "note_on_time": 8.956, "note_off_time": 9.236}, {"pitch": 62, "velocity": 100, "note_on_time": 9.236, "note_off_time": 9.517}, {"pitch": 42, "velocity": 100, "note_on_time": 9.236, "note_off_time": 9.517}, {"pitch": 62, "velocity": 100, "note_on_time": 9.517, "note_off_time": 9.797}, {"pitch": 42, "velocity": 100, "note_on_time": 9.517, "note_off_time": 9.797}, {"pitch": 62, "velocity": 100, "note_on_time": 9.797, "note_off_time": 10.08}, {"pitch": 42, "velocity": 100, "note_on_time": 9.797, "note_off_time": 10.08}]</notes><options name="Option List">((4, 4), [0.5, 0.25, 0.125], 3, 8, &lt;NoteRangePerHand.C_TO_G: 6&gt;, &lt;NoteRangePerHand.ONE_NOTE: 2&gt;, False, True, True, '225')</options></target_notes><trials><trial trial_no="1" timestamp="2022_04_28-15_45_01"><notes name="Played Notes">[{"pitch": 64, "velocity": 82, "note_on_time": 1.108, "note_off_time": 1.225}, {"pitch": 62, "velocity": 64, "note_on_time": 1.241, "note_off_time": 1.378}, {"pitch": 64, "velocity": 72, "note_on_time": 1.362, "note_off_time": 1.569}, {"pitch": 65, "velocity": 88, "note_on_time": 1.653, "note_off_time": 1.906}, {"pitch": 60, "velocity": 87, "note_on_time": 1.928, "note_off_time": 2.134}, {"pitch": 65, "velocity": 82, "note_on_time": 2.226, "note_off_time": 2.485}, {"pitch": 64, "velocity": 83, "note_on_time": 2.524, "note_off_time": 2.632}, {"pitch": 67, "velocity": 87, "note_on_time": 2.674, "note_off_time": 2.79}, {"pitch": 64, "velocity": 59, "note_on_time": 2.89, "note_off_time": 2.934}, {"pitch": 67, "velocity": 84, "note_on_time": 2.927, "note_off_time": 3.084}, {"pitch": 62, "velocity": 82, "note_on_time": 3.347, "note_off_time": 3.48}, {"pitch": 60, "velocity": 61, "note_on_time": 3.507, "note_off_time": 3.633}, {"pitch": 67, "velocity": 59, "note_on_time": 3.648, "note_off_time": 3.822}, {"pitch": 64, "velocity": 74, "note_on_time": 3.936, "note_off_time": 4.131}, {"pitch": 65, "velocity": 73, "note_on_time": 4.207, "note_off_time": 4.384}, {"pitch": 64, "velocity": 84, "note_on_time": 4.496, "note_off_time": 4.637}, {"pitch": 65, "velocity": 70, "note_on_time": 4.647, "note_off_time": 4.753}, {"pitch": 64, "velocity": 68, "note_on_time": 4.76, "note_off_time": 4.882}, {"pitch": 64, "velocity": 81, "note_on_time": 5.034, "note_off_time": 5.249}, {"pitch": 62, "velocity": 67, "note_on_time": 5.325, "note_off_time": 5.476}, {"pitch": 67, "velocity": 62, "note_on_time": 5.598, "note_off_time": 5.657}, {"pitch": 64, "velocity": 54, "note_on_time": 5.658, "note_off_time": 5.712}, {"pitch": 65, "velocity": 78, "note_on_time": 5.673, "note_off_time": 6.02}, {"pitch": 67, "velocity": 75, "note_on_time": 6.072, "note_off_time": 6.254}, {"pitch": 67, "velocity": 70, "note_on_time": 6.373, "note_off_time": 6.536}, {"pitch": 62, "velocity": 81, "note_on_time": 6.547, "note_off_time": 6.724}, {"pitch": 65, "velocity": 65, "note_on_time": 6.794, "note_off_time": 6.919}, {"pitch": 65, "velocity": 82, "note_on_time": 7.061, "note_off_time": 7.2}, {"pitch": 62, "velocity": 67, "note_on_time": 7.329, "note_off_time": 7.544}, {"pitch": 62, "velocity": 92, "note_on_time": 8.138, "note_off_time": 8.23}, {"pitch": 62, "velocity": 88, "note_on_time": 8.415, "note_off_time": 8.503}, {"pitch": 62, "velocity": 96, "note_on_time": 8.675, "note_off_time": 8.784}, {"pitch": 62, "velocity": 103, "note_on_time": 9.829, "note_off_time": 9.91}]</notes><guidance name="Guidance Mode">None</guidance><error name="Error value">0.9030684523809512</error></trial><trial trial_no="2" timestamp="2022_04_28-15_48_03"><notes name="Played Notes">[{"pitch": 64, "velocity": 67, "note_on_time": 1.137, "note_off_time": 1.263}, {"pitch": 62, "velocity": 56, "note_on_time": 1.275, "note_off_time": 1.39}, {"pitch": 64, "velocity": 70, "note_on_time": 1.412, "note_off_time": 1.602}, {"pitch": 65, "velocity": 75, "note_on_time": 1.687, "note_off_time": 1.911}, {"pitch": 60, "velocity": 75, "note_on_time": 1.963, "note_off_time": 2.161}, {"pitch": 65, "velocity": 73, "note_on_time": 2.241, "note_off_time": 2.474}, {"pitch": 64, "velocity": 79, "note_on_time": 2.767, "note_off_time": 2.988}, {"pitch": 67, "velocity": 72, "note_on_time": 3.06, "note_off_time": 3.35}, {"pitch": 67, "velocity": 68, "note_on_time": 3.428, "note_off_time": 3.468}, {"pitch": 64, "velocity": 54, "note_on_time": 3.41, "note_off_time": 3.695}, {"pitch": 62, "velocity": 63, "note_on_time": 3.7, "note_off_time": 3.842}, {"pitch": 62, "velocity": 42, "note_on_time": 3.978, "note_off_time": 4.018}, {"pitch": 65, "velocity": 76, "note_on_time": 4.012, "note_off_time": 4.127}, {"pitch": 67, "velocity": 72, "note_on_time": 4.3, "note_off_time": 4.436}, {"pitch": 64, "velocity": 73, "note_on_time": 4.536, "note_off_time": 4.702}, {"pitch": 65, "velocity": 54, "note_on_time": 4.763, "note_off_time": 4.933}, {"pitch": 64, "velocity": 57, "note_on_time": 5.048, "note_off_time": 5.095}, {"pitch": 64, "velocity": 60, "note_on_time": 5.198, "note_off_time": 5.253}, {"pitch": 62, "velocity": 45, "note_on_time": 5.32, "note_off_time": 5.554}, {"pitch": 60, "velocity": 60, "note_on_time": 5.556, "note_off_time": 5.627}, {"pitch": 65, "velocity": 73, "note_on_time": 5.648, "note_off_time": 5.779}, {"pitch": 67, "velocity": 77, "note_on_time": 5.925, "note_off_time": 6.102}, {"pitch": 65, "velocity": 71, "note_on_time": 6.457, "note_off_time": 6.517}, {"pitch": 67, "velocity": 56, "note_on_time": 6.504, "note_off_time": 6.672}, {"pitch": 62, "velocity": 66, "note_on_time": 6.715, "note_off_time": 6.862}, {"pitch": 65, "velocity": 66, "note_on_time": 6.935, "note_off_time": 7.061}, {"pitch": 65, "velocity": 76, "note_on_time": 7.195, "note_off_time": 7.329}, {"pitch": 62, "velocity": 67, "note_on_time": 7.41, "note_off_time": 7.534}, {"pitch": 62, "velocity": 64, "note_on_time": 7.905, "note_off_time": 7.985}, {"pitch": 62, "velocity": 90, "note_on_time": 8.226, "note_off_time": 8.323}, {"pitch": 62, "velocity": 89, "note_on_time": 8.5, "note_off_time": 8.605}, {"pitch": 62, "velocity": 83, "note_on_time": 9.193, "note_off_time": 9.289}, {"pitch": 62, "velocity": 95, "note_on_time": 9.885, "note_off_time": 9.955}]</notes><guidance name="Guidance Mode">None</guidance><error name="Error value">1.1229863412698409</error></trial><trial trial_no="3" timestamp="2022_04_28-15_48_38"><notes name="Played Notes">[{"pitch": 64, "velocity": 69, "note_on_time": 1.107, "note_off_time": 1.393}, {"pitch": 62, "velocity": 52, "note_on_time": 1.403, "note_off_time": 1.716}, {"pitch": 64, "velocity": 65, "note_on_time": 1.685, "note_off_time": 1.913}, {"pitch": 65, "velocity": 67, "note_on_time": 1.966, "note_off_time": 2.227}, {"pitch": 60, "velocity": 60, "note_on_time": 2.262, "note_off_time": 2.467}, {"pitch": 65, "velocity": 40, "note_on_time": 2.528, "note_off_time": 2.686}, {"pitch": 64, "velocity": 67, "note_on_time": 2.802, "note_off_time": 2.977}, {"pitch": 67, "velocity": 74, "note_on_time": 3.042, "note_off_time": 3.137}, {"pitch": 62, "velocity": 67, "note_on_time": 3.322, "note_off_time": 3.403}, {"pitch": 64, "velocity": 60, "note_on_time": 3.428, "note_off_time": 3.506}, {"pitch": 62, "velocity": 71, "note_on_time": 3.516, "note_off_time": 3.646}, {"pitch": 65, "velocity": 72, "note_on_time": 3.698, "note_off_time": 3.872}, {"pitch": 67, "velocity": 72, "note_on_time": 3.97, "note_off_time": 4.202}, {"pitch": 64, "velocity": 68, "note_on_time": 4.418, "note_off_time": 4.566}, {"pitch": 65, "velocity": 62, "note_on_time": 4.609, "note_off_time": 4.724}, {"pitch": 64, "velocity": 70, "note_on_time": 4.768, "note_off_time": 4.911}, {"pitch": 62, "velocity": 53, "note_on_time": 4.958, "note_off_time": 5.056}, {"pitch": 62, "velocity": 48, "note_on_time": 5.134, "note_off_time": 5.213}, {"pitch": 62, "velocity": 52, "note_on_time": 5.319, "note_off_time": 5.397}, {"pitch": 65, "velocity": 64, "note_on_time": 5.437, "note_off_time": 5.595}, {"pitch": 65, "velocity": 74, "note_on_time": 5.691, "note_off_time": 5.826}, {"pitch": 67, "velocity": 69, "note_on_time": 5.861, "note_off_time": 5.995}, {"pitch": 62, "velocity": 68, "note_on_time": 6.134, "note_off_time": 6.357}, {"pitch": 65, "velocity": 58, "note_on_time": 6.703, "note_off_time": 6.838}, {"pitch": 65, "velocity": 57, "note_on_time": 6.988, "note_off_time": 7.18}, {"pitch": 62, "velocity": 90, "note_on_time": 8.111, "note_off_time": 8.237}, {"pitch": 62, "velocity": 87, "note_on_time": 8.398, "note_off_time": 8.508}, {"pitch": 62, "velocity": 100, "note_on_time": 8.655, "note_off_time": 8.757}]</notes><guidance name="Guidance Mode">None</guidance><error name="Error value">0.6100510952380952</error></trial></trials></MIDI>