<MIDI midiNo="2022_12_22-11_18_26"><target_notes><notes name="Note List">[{"pitch": 42, "velocity": 80, "note_on_time": 0.004, "note_off_time": 0.731}, {"pitch": 42, "velocity": 80, "note_on_time": 0.731, "note_off_time": 1.465}, {"pitch": 42, "velocity": 80, "note_on_time": 1.465, "note_off_time": 2.192}, {"pitch": 42, "velocity": 80, "note_on_time": 2.192, "note_off_time": 2.927}, {"pitch": 62, "velocity": 80, "note_on_time": 2.927, "note_off_time": 3.657}, {"pitch": 42, "velocity": 80, "note_on_time": 2.928, "note_off_time": 3.657}, {"pitch": 62, "velocity": 80, "note_on_time": 3.657, "note_off_time": 4.389}, {"pitch": 42, "velocity": 80, "note_on_time": 3.658, "note_off_time": 4.389}, {"pitch": 60, "velocity": 80, "note_on_time": 4.389, "note_off_time": 5.124}, {"pitch": 42, "velocity": 80, "note_on_time": 4.389, "note_off_time": 5.124}, {"pitch": 64, "velocity": 80, "note_on_time": 5.124, "note_off_time": 5.855}, {"pitch": 42, "velocity": 80, "note_on_time": 5.124, "note_off_time": 5.856}, {"pitch": 60, "velocity": 80, "note_on_time": 5.855, "note_off_time": 6.586}, {"pitch": 42, "velocity": 80, "note_on_time": 5.856, "note_off_time": 6.586}, {"pitch": 42, "velocity": 80, "note_on_time": 6.587, "note_off_time": 7.322}, {"pitch": 42, "velocity": 80, "note_on_time": 7.322, "note_off_time": 8.055}, {"pitch": 42, "velocity": 80, "note_on_time": 8.055, "note_off_time": 8.785}, {"pitch": 64, "velocity": 80, "note_on_time": 8.785, "note_off_time": 9.52}, {"pitch": 42, "velocity": 80, "note_on_time": 8.785, "note_off_time": 9.52}, {"pitch": 42, "velocity": 80, "note_on_time": 9.52, "note_off_time": 10.254}, {"pitch": 42, "velocity": 80, "note_on_time": 10.254, "note_off_time": 10.987}, {"pitch": 42, "velocity": 80, "note_on_time": 10.987, "note_off_time": 11.719}, {"pitch": 62, "velocity": 80, "note_on_time": 11.719, "note_off_time": 12.449}, {"pitch": 42, "velocity": 80, "note_on_time": 11.719, "note_off_time": 12.449}, {"pitch": 62, "velocity": 80, "note_on_time": 12.449, "note_off_time": 13.182}, {"pitch": 42, "velocity": 80, "note_on_time": 12.449, "note_off_time": 13.182}, {"pitch": 60, "velocity": 80, "note_on_time": 13.182, "note_off_time": 13.914}, {"pitch": 42, "velocity": 80, "note_on_time": 13.182, "note_off_time": 13.914}, {"pitch": 62, "velocity": 80, "note_on_time": 13.914, "note_off_time": 14.645}, {"pitch": 42, "velocity": 80, "note_on_time": 13.914, "note_off_time": 14.645}, {"pitch": 62, "velocity": 80, "note_on_time": 14.645, "note_off_time": 15.373}, {"pitch": 42, "velocity": 80, "note_on_time": 14.645, "note_off_time": 15.373}, {"pitch": 62, "velocity": 80, "note_on_time": 15.373, "note_off_time": 16.106}, {"pitch": 42, "velocity": 80, "note_on_time": 15.374, "note_off_time": 16.107}, {"pitch": 60, "velocity": 80, "note_on_time": 16.106, "note_off_time": 16.841}, {"pitch": 42, "velocity": 80, "note_on_time": 16.107, "note_off_time": 16.841}, {"pitch": 62, "velocity": 80, "note_on_time": 16.841, "note_off_time": 17.571}, {"pitch": 42, "velocity": 80, "note_on_time": 16.842, "note_off_time": 17.572}, {"pitch": 60, "velocity": 80, "note_on_time": 17.571, "note_off_time": 18.303}, {"pitch": 42, "velocity": 80, "note_on_time": 17.572, "note_off_time": 18.303}, {"pitch": 64, "velocity": 80, "note_on_time": 18.303, "note_off_time": 19.033}, {"pitch": 42, "velocity": 80, "note_on_time": 18.304, "note_off_time": 19.033}, {"pitch": 64, "velocity": 80, "note_on_time": 19.033, "note_off_time": 19.765}, {"pitch": 42, "velocity": 80, "note_on_time": 19.033, "note_off_time": 19.765}, {"pitch": 64, "velocity": 80, "note_on_time": 19.765, "note_off_time": 20.499}, {"pitch": 42, "velocity": 80, "note_on_time": 19.766, "note_off_time": 20.499}, {"pitch": 60, "velocity": 80, "note_on_time": 20.499, "note_off_time": 21.229}, {"pitch": 42, "velocity": 80, "note_on_time": 20.499, "note_off_time": 21.23}, {"pitch": 60, "velocity": 80, "note_on_time": 21.229, "note_off_time": 21.961}, {"pitch": 42, "velocity": 80, "note_on_time": 21.23, "note_off_time": 21.961}, {"pitch": 60, "velocity": 80, "note_on_time": 21.961, "note_off_time": 22.694}, {"pitch": 42, "velocity": 80, "note_on_time": 21.961, "note_off_time": 22.694}, {"pitch": 64, "velocity": 80, "note_on_time": 22.694, "note_off_time": 23.428}, {"pitch": 42, "velocity": 80, "note_on_time": 22.695, "note_off_time": 23.428}, {"pitch": 42, "velocity": 80, "note_on_time": 23.429, "note_off_time": 24.157}, {"pitch": 64, "velocity": 80, "note_on_time": 24.157, "note_off_time": 24.89}, {"pitch": 42, "velocity": 80, "note_on_time": 24.157, "note_off_time": 24.89}, {"pitch": 64, "velocity": 80, "note_on_time": 24.89, "note_off_time": 25.62}, {"pitch": 42, "velocity": 80, "note_on_time": 24.89, "note_off_time": 25.62}, {"pitch": 64, "velocity": 80, "note_on_time": 25.62, "note_off_time": 26.352}, {"pitch": 42, "velocity": 80, "note_on_time": 25.62, "note_off_time": 26.352}]</notes><options name="Option List">((4, 4), [0.5, 0.25], 3, 8, &lt;NoteRangePerHand.THREE_NOTES: 4&gt;, &lt;NoteRangePerHand.ONE_NOTE: 2&gt;, False, True, False, 83)</options></target_notes><trials><trial trial_no="1" timestamp="2022_12_22-11_17_58"><notes name="Played Notes">[{"pitch": 62, "velocity": 48, "note_on_time": 2.956, "note_off_time": 3.246}, {"pitch": 62, "velocity": 53, "note_on_time": 3.629, "note_off_time": 3.957}, {"pitch": 60, "velocity": 55, "note_on_time": 4.309, "note_off_time": 4.675}, {"pitch": 64, "velocity": 49, "note_on_time": 5.067, "note_off_time": 5.412}, {"pitch": 60, "velocity": 64, "note_on_time": 5.81, "note_off_time": 6.173}, {"pitch": 64, "velocity": 48, "note_on_time": 8.815, "note_off_time": 9.049}, {"pitch": 62, "velocity": 44, "note_on_time": 11.736, "note_off_time": 11.987}, {"pitch": 62, "velocity": 46, "note_on_time": 12.443, "note_off_time": 12.705}, {"pitch": 60, "velocity": 48, "note_on_time": 13.057, "note_off_time": 13.485}, {"pitch": 62, "velocity": 50, "note_on_time": 13.873, "note_off_time": 14.183}, {"pitch": 62, "velocity": 48, "note_on_time": 14.599, "note_off_time": 14.86}, {"pitch": 62, "velocity": 50, "note_on_time": 15.293, "note_off_time": 15.581}, {"pitch": 60, "velocity": 44, "note_on_time": 16.057, "note_off_time": 16.314}, {"pitch": 62, "velocity": 55, "note_on_time": 16.784, "note_off_time": 17.02}, {"pitch": 60, "velocity": 58, "note_on_time": 17.535, "note_off_time": 17.848}, {"pitch": 64, "velocity": 52, "note_on_time": 18.261, "note_off_time": 18.501}, {"pitch": 64, "velocity": 42, "note_on_time": 18.974, "note_off_time": 19.244}, {"pitch": 64, "velocity": 52, "note_on_time": 19.681, "note_off_time": 19.961}, {"pitch": 60, "velocity": 62, "note_on_time": 20.442, "note_off_time": 20.746}, {"pitch": 60, "velocity": 49, "note_on_time": 21.182, "note_off_time": 21.434}, {"pitch": 60, "velocity": 49, "note_on_time": 21.915, "note_off_time": 22.228}, {"pitch": 64, "velocity": 55, "note_on_time": 22.661, "note_off_time": 22.907}, {"pitch": 64, "velocity": 43, "note_on_time": 24.162, "note_off_time": 24.482}, {"pitch": 64, "velocity": 55, "note_on_time": 24.829, "note_off_time": 25.145}, {"pitch": 64, "velocity": 53, "note_on_time": 25.503, "note_off_time": 25.714}]</notes><guidance name="Guidance Mode">None</guidance><error name="Error value">0.040518954545454226</error></trial><trial trial_no="2" timestamp="2022_12_22-11_18_31"><notes name="Played Notes">[{"pitch": 62, "velocity": 55, "note_on_time": 2.871, "note_off_time": 3.209}, {"pitch": 62, "velocity": 49, "note_on_time": 3.66, "note_off_time": 3.986}, {"pitch": 60, "velocity": 46, "note_on_time": 4.39, "note_off_time": 4.725}, {"pitch": 64, "velocity": 53, "note_on_time": 5.087, "note_off_time": 5.39}, {"pitch": 60, "velocity": 50, "note_on_time": 5.78, "note_off_time": 6.086}, {"pitch": 64, "velocity": 50, "note_on_time": 8.704, "note_off_time": 8.963}, {"pitch": 62, "velocity": 44, "note_on_time": 11.723, "note_off_time": 11.999}, {"pitch": 62, "velocity": 38, "note_on_time": 12.405, "note_off_time": 12.724}, {"pitch": 60, "velocity": 39, "note_on_time": 13.086, "note_off_time": 13.461}, {"pitch": 62, "velocity": 48, "note_on_time": 13.794, "note_off_time": 14.063}, {"pitch": 62, "velocity": 40, "note_on_time": 14.535, "note_off_time": 14.766}, {"pitch": 62, "velocity": 49, "note_on_time": 15.262, "note_off_time": 15.528}, {"pitch": 60, "velocity": 53, "note_on_time": 16.071, "note_off_time": 16.363}, {"pitch": 62, "velocity": 56, "note_on_time": 16.812, "note_off_time": 17.144}, {"pitch": 60, "velocity": 46, "note_on_time": 17.551, "note_off_time": 17.853}, {"pitch": 64, "velocity": 52, "note_on_time": 18.277, "note_off_time": 18.554}, {"pitch": 64, "velocity": 36, "note_on_time": 18.966, "note_off_time": 19.22}, {"pitch": 64, "velocity": 47, "note_on_time": 19.656, "note_off_time": 19.908}, {"pitch": 60, "velocity": 48, "note_on_time": 20.406, "note_off_time": 20.699}, {"pitch": 60, "velocity": 38, "note_on_time": 21.118, "note_off_time": 21.402}, {"pitch": 60, "velocity": 46, "note_on_time": 21.956, "note_off_time": 22.268}, {"pitch": 64, "velocity": 44, "note_on_time": 22.642, "note_off_time": 22.901}, {"pitch": 64, "velocity": 52, "note_on_time": 24.044, "note_off_time": 24.286}, {"pitch": 64, "velocity": 46, "note_on_time": 24.753, "note_off_time": 24.995}, {"pitch": 64, "velocity": 45, "note_on_time": 25.525, "note_off_time": 25.736}]</notes><guidance name="Guidance Mode">None</guidance><error name="Error value">0.040716500000000086</error></trial><trial trial_no="3" timestamp="2022_12_22-11_19_07"><notes name="Played Notes">[{"pitch": 62, "velocity": 46, "note_on_time": 2.977, "note_off_time": 3.269}, {"pitch": 62, "velocity": 47, "note_on_time": 3.664, "note_off_time": 3.976}, {"pitch": 60, "velocity": 41, "note_on_time": 4.359, "note_off_time": 4.619}, {"pitch": 64, "velocity": 51, "note_on_time": 5.005, "note_off_time": 5.234}, {"pitch": 60, "velocity": 58, "note_on_time": 5.744, "note_off_time": 6.083}, {"pitch": 64, "velocity": 26, "note_on_time": 8.753, "note_off_time": 8.993}, {"pitch": 62, "velocity": 53, "note_on_time": 11.667, "note_off_time": 11.998}, {"pitch": 62, "velocity": 47, "note_on_time": 12.41, "note_off_time": 12.693}, {"pitch": 60, "velocity": 49, "note_on_time": 13.112, "note_off_time": 13.403}, {"pitch": 62, "velocity": 52, "note_on_time": 13.853, "note_off_time": 14.139}, {"pitch": 62, "velocity": 55, "note_on_time": 14.599, "note_off_time": 14.818}, {"pitch": 62, "velocity": 43, "note_on_time": 15.289, "note_off_time": 15.583}, {"pitch": 60, "velocity": 48, "note_on_time": 16.014, "note_off_time": 16.272}, {"pitch": 62, "velocity": 49, "note_on_time": 16.743, "note_off_time": 17.014}, {"pitch": 60, "velocity": 48, "note_on_time": 17.521, "note_off_time": 17.826}, {"pitch": 64, "velocity": 42, "note_on_time": 18.269, "note_off_time": 18.525}, {"pitch": 64, "velocity": 41, "note_on_time": 18.938, "note_off_time": 19.218}, {"pitch": 64, "velocity": 44, "note_on_time": 19.7, "note_off_time": 19.999}, {"pitch": 60, "velocity": 56, "note_on_time": 20.704, "note_off_time": 21.008}, {"pitch": 60, "velocity": 43, "note_on_time": 21.373, "note_off_time": 21.652}, {"pitch": 60, "velocity": 43, "note_on_time": 21.983, "note_off_time": 22.296}, {"pitch": 64, "velocity": 54, "note_on_time": 22.708, "note_off_time": 22.94}, {"pitch": 64, "velocity": 44, "note_on_time": 24.103, "note_off_time": 24.404}, {"pitch": 64, "velocity": 52, "note_on_time": 24.765, "note_off_time": 25.033}, {"pitch": 64, "velocity": 55, "note_on_time": 25.473, "note_off_time": 25.72}]</notes><guidance name="Guidance Mode">None</guidance><error name="Error value">0.0531710454545453</error></trial></trials></MIDI>