<MIDI midiNo="2022_12_22-10_53_45"><target_notes><notes name="Note List">[{"pitch": 42, "velocity": 80, "note_on_time": 0.004, "note_off_time": 0.563}, {"pitch": 42, "velocity": 80, "note_on_time": 0.563, "note_off_time": 1.124}, {"pitch": 42, "velocity": 80, "note_on_time": 1.124, "note_off_time": 1.684}, {"pitch": 42, "velocity": 80, "note_on_time": 1.684, "note_off_time": 2.244}, {"pitch": 62, "velocity": 80, "note_on_time": 2.244, "note_off_time": 2.804}, {"pitch": 42, "velocity": 80, "note_on_time": 2.244, "note_off_time": 2.804}, {"pitch": 62, "velocity": 80, "note_on_time": 2.804, "note_off_time": 3.365}, {"pitch": 42, "velocity": 80, "note_on_time": 2.804, "note_off_time": 3.366}, {"pitch": 60, "velocity": 80, "note_on_time": 3.365, "note_off_time": 3.929}, {"pitch": 42, "velocity": 80, "note_on_time": 3.366, "note_off_time": 3.929}, {"pitch": 64, "velocity": 80, "note_on_time": 3.929, "note_off_time": 4.489}, {"pitch": 42, "velocity": 80, "note_on_time": 3.929, "note_off_time": 4.49}, {"pitch": 60, "velocity": 80, "note_on_time": 4.489, "note_off_time": 5.049}, {"pitch": 42, "velocity": 80, "note_on_time": 4.49, "note_off_time": 5.049}, {"pitch": 42, "velocity": 80, "note_on_time": 5.049, "note_off_time": 5.609}, {"pitch": 42, "velocity": 80, "note_on_time": 5.61, "note_off_time": 6.171}, {"pitch": 42, "velocity": 80, "note_on_time": 6.171, "note_off_time": 6.733}, {"pitch": 64, "velocity": 80, "note_on_time": 6.732, "note_off_time": 7.292}, {"pitch": 42, "velocity": 80, "note_on_time": 6.733, "note_off_time": 7.292}, {"pitch": 42, "velocity": 80, "note_on_time": 7.293, "note_off_time": 7.851}, {"pitch": 42, "velocity": 80, "note_on_time": 7.851, "note_off_time": 8.412}, {"pitch": 42, "velocity": 80, "note_on_time": 8.413, "note_off_time": 8.973}, {"pitch": 62, "velocity": 80, "note_on_time": 8.973, "note_off_time": 9.533}, {"pitch": 42, "velocity": 80, "note_on_time": 8.973, "note_off_time": 9.534}, {"pitch": 62, "velocity": 80, "note_on_time": 9.533, "note_off_time": 10.092}, {"pitch": 42, "velocity": 80, "note_on_time": 9.534, "note_off_time": 10.092}, {"pitch": 60, "velocity": 80, "note_on_time": 10.092, "note_off_time": 10.652}, {"pitch": 42, "velocity": 80, "note_on_time": 10.093, "note_off_time": 10.653}, {"pitch": 62, "velocity": 80, "note_on_time": 10.652, "note_off_time": 11.215}, {"pitch": 42, "velocity": 80, "note_on_time": 10.653, "note_off_time": 11.215}, {"pitch": 62, "velocity": 80, "note_on_time": 11.215, "note_off_time": 11.775}, {"pitch": 42, "velocity": 80, "note_on_time": 11.215, "note_off_time": 11.776}, {"pitch": 62, "velocity": 80, "note_on_time": 11.775, "note_off_time": 12.335}, {"pitch": 42, "velocity": 80, "note_on_time": 11.776, "note_off_time": 12.335}, {"pitch": 60, "velocity": 80, "note_on_time": 12.335, "note_off_time": 12.898}, {"pitch": 42, "velocity": 80, "note_on_time": 12.335, "note_off_time": 12.899}, {"pitch": 62, "velocity": 80, "note_on_time": 12.898, "note_off_time": 13.457}, {"pitch": 42, "velocity": 80, "note_on_time": 12.899, "note_off_time": 13.457}, {"pitch": 60, "velocity": 80, "note_on_time": 13.457, "note_off_time": 14.016}, {"pitch": 42, "velocity": 80, "note_on_time": 13.457, "note_off_time": 14.017}, {"pitch": 64, "velocity": 80, "note_on_time": 14.016, "note_off_time": 14.575}, {"pitch": 42, "velocity": 80, "note_on_time": 14.017, "note_off_time": 14.575}, {"pitch": 64, "velocity": 80, "note_on_time": 14.575, "note_off_time": 15.135}, {"pitch": 42, "velocity": 80, "note_on_time": 14.575, "note_off_time": 15.136}, {"pitch": 64, "velocity": 80, "note_on_time": 15.135, "note_off_time": 15.698}, {"pitch": 42, "velocity": 80, "note_on_time": 15.136, "note_off_time": 15.699}, {"pitch": 60, "velocity": 80, "note_on_time": 15.698, "note_off_time": 16.261}, {"pitch": 42, "velocity": 80, "note_on_time": 15.699, "note_off_time": 16.261}, {"pitch": 60, "velocity": 80, "note_on_time": 16.261, "note_off_time": 16.82}, {"pitch": 42, "velocity": 80, "note_on_time": 16.261, "note_off_time": 16.82}, {"pitch": 60, "velocity": 80, "note_on_time": 16.82, "note_off_time": 17.381}, {"pitch": 42, "velocity": 80, "note_on_time": 16.82, "note_off_time": 17.381}, {"pitch": 64, "velocity": 80, "note_on_time": 17.381, "note_off_time": 17.943}, {"pitch": 42, "velocity": 80, "note_on_time": 17.382, "note_off_time": 17.944}, {"pitch": 42, "velocity": 80, "note_on_time": 17.944, "note_off_time": 18.515}, {"pitch": 64, "velocity": 80, "note_on_time": 18.515, "note_off_time": 19.072}, {"pitch": 42, "velocity": 80, "note_on_time": 18.515, "note_off_time": 19.072}, {"pitch": 64, "velocity": 80, "note_on_time": 19.072, "note_off_time": 19.632}, {"pitch": 42, "velocity": 80, "note_on_time": 19.073, "note_off_time": 19.632}, {"pitch": 64, "velocity": 80, "note_on_time": 19.632, "note_off_time": 20.194}, {"pitch": 42, "velocity": 80, "note_on_time": 19.632, "note_off_time": 20.194}]</notes><options name="Option List">((4, 4), [0.5, 0.25], 3, 8, &lt;NoteRangePerHand.THREE_NOTES: 4&gt;, &lt;NoteRangePerHand.ONE_NOTE: 2&gt;, False, True, False, '108')</options></target_notes><trials><trial trial_no="1" timestamp="2022_12_22-10_53_24"><notes name="Played Notes">[{"pitch": 62, "velocity": 60, "note_on_time": 2.322, "note_off_time": 2.596}, {"pitch": 62, "velocity": 62, "note_on_time": 2.921, "note_off_time": 3.199}, {"pitch": 60, "velocity": 58, "note_on_time": 3.462, "note_off_time": 3.816}, {"pitch": 64, "velocity": 70, "note_on_time": 4.023, "note_off_time": 4.398}, {"pitch": 60, "velocity": 69, "note_on_time": 4.69, "note_off_time": 4.99}, {"pitch": 64, "velocity": 47, "note_on_time": 6.727, "note_off_time": 6.982}, {"pitch": 62, "velocity": 64, "note_on_time": 8.986, "note_off_time": 9.218}, {"pitch": 62, "velocity": 59, "note_on_time": 9.579, "note_off_time": 9.85}, {"pitch": 60, "velocity": 62, "note_on_time": 10.088, "note_off_time": 10.414}, {"pitch": 62, "velocity": 66, "note_on_time": 10.664, "note_off_time": 10.938}, {"pitch": 62, "velocity": 57, "note_on_time": 11.267, "note_off_time": 11.466}, {"pitch": 62, "velocity": 64, "note_on_time": 11.812, "note_off_time": 12.064}, {"pitch": 60, "velocity": 65, "note_on_time": 12.321, "note_off_time": 12.639}, {"pitch": 62, "velocity": 65, "note_on_time": 12.912, "note_off_time": 13.19}, {"pitch": 60, "velocity": 54, "note_on_time": 13.472, "note_off_time": 13.892}, {"pitch": 64, "velocity": 60, "note_on_time": 14.045, "note_off_time": 14.359}, {"pitch": 64, "velocity": 51, "note_on_time": 14.604, "note_off_time": 14.856}, {"pitch": 64, "velocity": 58, "note_on_time": 15.164, "note_off_time": 15.439}, {"pitch": 60, "velocity": 65, "note_on_time": 15.706, "note_off_time": 15.985}, {"pitch": 60, "velocity": 58, "note_on_time": 16.265, "note_off_time": 16.481}, {"pitch": 60, "velocity": 64, "note_on_time": 16.827, "note_off_time": 17.074}, {"pitch": 64, "velocity": 53, "note_on_time": 17.395, "note_off_time": 17.635}, {"pitch": 64, "velocity": 61, "note_on_time": 18.487, "note_off_time": 18.714}, {"pitch": 64, "velocity": 62, "note_on_time": 19.057, "note_off_time": 19.338}, {"pitch": 64, "velocity": 55, "note_on_time": 19.614, "note_off_time": 19.804}]</notes><guidance name="Guidance Mode">None</guidance><error name="Error value">0.03372750000000047</error></trial><trial trial_no="2" timestamp="2022_12_22-10_54_02"><notes name="Played Notes">[{"pitch": 62, "velocity": 54, "note_on_time": 2.316, "note_off_time": 2.542}, {"pitch": 62, "velocity": 61, "note_on_time": 2.881, "note_off_time": 3.161}, {"pitch": 60, "velocity": 65, "note_on_time": 3.427, "note_off_time": 3.667}, {"pitch": 64, "velocity": 61, "note_on_time": 3.975, "note_off_time": 4.296}, {"pitch": 60, "velocity": 69, "note_on_time": 4.55, "note_off_time": 4.853}, {"pitch": 64, "velocity": 56, "note_on_time": 6.767, "note_off_time": 6.991}, {"pitch": 62, "velocity": 58, "note_on_time": 8.998, "note_off_time": 9.23}, {"pitch": 62, "velocity": 61, "note_on_time": 9.572, "note_off_time": 9.82}, {"pitch": 60, "velocity": 70, "note_on_time": 10.111, "note_off_time": 10.424}, {"pitch": 62, "velocity": 56, "note_on_time": 10.683, "note_off_time": 10.93}, {"pitch": 62, "velocity": 61, "note_on_time": 11.255, "note_off_time": 11.464}, {"pitch": 62, "velocity": 58, "note_on_time": 11.811, "note_off_time": 12.079}, {"pitch": 60, "velocity": 52, "note_on_time": 12.32, "note_off_time": 12.685}, {"pitch": 62, "velocity": 59, "note_on_time": 12.928, "note_off_time": 13.205}, {"pitch": 60, "velocity": 61, "note_on_time": 13.468, "note_off_time": 13.866}, {"pitch": 64, "velocity": 58, "note_on_time": 14.065, "note_off_time": 14.326}, {"pitch": 64, "velocity": 62, "note_on_time": 14.625, "note_off_time": 14.825}, {"pitch": 64, "velocity": 60, "note_on_time": 15.195, "note_off_time": 15.396}, {"pitch": 60, "velocity": 65, "note_on_time": 15.742, "note_off_time": 16.009}, {"pitch": 60, "velocity": 60, "note_on_time": 16.31, "note_off_time": 16.509}, {"pitch": 60, "velocity": 60, "note_on_time": 16.905, "note_off_time": 17.126}, {"pitch": 64, "velocity": 61, "note_on_time": 17.453, "note_off_time": 17.665}, {"pitch": 64, "velocity": 62, "note_on_time": 18.556, "note_off_time": 18.78}, {"pitch": 64, "velocity": 57, "note_on_time": 19.071, "note_off_time": 19.309}, {"pitch": 64, "velocity": 58, "note_on_time": 19.622, "note_off_time": 19.818}]</notes><guidance name="Guidance Mode">None</guidance><error name="Error value">0.0192929545454542</error></trial><trial trial_no="3" timestamp="2022_12_22-10_54_32"><notes name="Played Notes">[{"pitch": 62, "velocity": 56, "note_on_time": 2.234, "note_off_time": 2.512}, {"pitch": 62, "velocity": 58, "note_on_time": 2.829, "note_off_time": 3.09}, {"pitch": 60, "velocity": 52, "note_on_time": 3.412, "note_off_time": 3.68}, {"pitch": 64, "velocity": 61, "note_on_time": 3.976, "note_off_time": 4.219}, {"pitch": 60, "velocity": 71, "note_on_time": 4.51, "note_off_time": 4.814}, {"pitch": 64, "velocity": 62, "note_on_time": 6.763, "note_off_time": 7.0}, {"pitch": 62, "velocity": 52, "note_on_time": 8.982, "note_off_time": 9.174}, {"pitch": 62, "velocity": 54, "note_on_time": 9.564, "note_off_time": 9.807}, {"pitch": 60, "velocity": 55, "note_on_time": 10.066, "note_off_time": 10.426}, {"pitch": 62, "velocity": 55, "note_on_time": 10.646, "note_off_time": 10.88}, {"pitch": 62, "velocity": 51, "note_on_time": 11.233, "note_off_time": 11.445}, {"pitch": 62, "velocity": 57, "note_on_time": 11.776, "note_off_time": 12.036}, {"pitch": 60, "velocity": 55, "note_on_time": 12.294, "note_off_time": 12.621}, {"pitch": 62, "velocity": 60, "note_on_time": 12.929, "note_off_time": 13.222}, {"pitch": 60, "velocity": 60, "note_on_time": 13.512, "note_off_time": 13.838}, {"pitch": 64, "velocity": 52, "note_on_time": 14.105, "note_off_time": 14.367}, {"pitch": 64, "velocity": 60, "note_on_time": 14.615, "note_off_time": 14.8}, {"pitch": 64, "velocity": 67, "note_on_time": 15.223, "note_off_time": 15.457}, {"pitch": 60, "velocity": 66, "note_on_time": 15.736, "note_off_time": 16.037}, {"pitch": 60, "velocity": 71, "note_on_time": 16.302, "note_off_time": 16.529}, {"pitch": 60, "velocity": 59, "note_on_time": 16.874, "note_off_time": 17.116}, {"pitch": 64, "velocity": 59, "note_on_time": 17.425, "note_off_time": 17.66}, {"pitch": 64, "velocity": 61, "note_on_time": 18.508, "note_off_time": 18.747}, {"pitch": 64, "velocity": 61, "note_on_time": 19.056, "note_off_time": 19.296}, {"pitch": 64, "velocity": 55, "note_on_time": 19.608, "note_off_time": 19.814}]</notes><guidance name="Guidance Mode">None</guidance><error name="Error value">0.03056568181818148</error></trial><trial trial_no="4" timestamp="2022_12_22-10_55_21"><notes name="Played Notes">[{"pitch": 62, "velocity": 58, "note_on_time": 2.294, "note_off_time": 2.519}, {"pitch": 62, "velocity": 61, "note_on_time": 2.855, "note_off_time": 3.13}, {"pitch": 60, "velocity": 56, "note_on_time": 3.415, "note_off_time": 3.707}, {"pitch": 64, "velocity": 65, "note_on_time": 3.939, "note_off_time": 4.366}, {"pitch": 60, "velocity": 66, "note_on_time": 4.518, "note_off_time": 4.878}, {"pitch": 64, "velocity": 51, "note_on_time": 6.752, "note_off_time": 7.055}, {"pitch": 62, "velocity": 57, "note_on_time": 8.972, "note_off_time": 9.247}, {"pitch": 62, "velocity": 62, "note_on_time": 9.541, "note_off_time": 9.82}, {"pitch": 60, "velocity": 62, "note_on_time": 10.081, "note_off_time": 10.394}, {"pitch": 62, "velocity": 67, "note_on_time": 10.636, "note_off_time": 10.871}, {"pitch": 62, "velocity": 61, "note_on_time": 11.241, "note_off_time": 11.458}, {"pitch": 62, "velocity": 63, "note_on_time": 11.802, "note_off_time": 12.084}, {"pitch": 60, "velocity": 55, "note_on_time": 12.325, "note_off_time": 12.684}, {"pitch": 62, "velocity": 61, "note_on_time": 12.92, "note_off_time": 13.205}, {"pitch": 60, "velocity": 55, "note_on_time": 13.511, "note_off_time": 13.776}, {"pitch": 64, "velocity": 57, "note_on_time": 14.023, "note_off_time": 14.273}, {"pitch": 64, "velocity": 48, "note_on_time": 14.562, "note_off_time": 14.822}, {"pitch": 64, "velocity": 64, "note_on_time": 15.165, "note_off_time": 15.419}, {"pitch": 60, "velocity": 64, "note_on_time": 15.724, "note_off_time": 15.998}, {"pitch": 60, "velocity": 64, "note_on_time": 16.274, "note_off_time": 16.522}, {"pitch": 60, "velocity": 61, "note_on_time": 16.828, "note_off_time": 17.088}, {"pitch": 64, "velocity": 67, "note_on_time": 17.402, "note_off_time": 17.772}, {"pitch": 64, "velocity": 60, "note_on_time": 18.5, "note_off_time": 18.778}, {"pitch": 64, "velocity": 55, "note_on_time": 19.059, "note_off_time": 19.289}, {"pitch": 64, "velocity": 60, "note_on_time": 19.615, "note_off_time": 19.801}]</notes><guidance name="Guidance Mode">None</guidance><error name="Error value">0.01928795454545469</error></trial><trial trial_no="5" timestamp="2022_12_22-10_55_54"><notes name="Played Notes">[{"pitch": 62, "velocity": 49, "note_on_time": 2.258, "note_off_time": 2.502}, {"pitch": 62, "velocity": 57, "note_on_time": 2.829, "note_off_time": 3.13}, {"pitch": 60, "velocity": 59, "note_on_time": 3.374, "note_off_time": 3.663}, {"pitch": 64, "velocity": 65, "note_on_time": 3.949, "note_off_time": 4.289}, {"pitch": 60, "velocity": 63, "note_on_time": 4.497, "note_off_time": 4.793}, {"pitch": 64, "velocity": 58, "note_on_time": 6.736, "note_off_time": 7.013}, {"pitch": 62, "velocity": 54, "note_on_time": 8.931, "note_off_time": 9.175}, {"pitch": 62, "velocity": 65, "note_on_time": 9.498, "note_off_time": 9.818}, {"pitch": 60, "velocity": 60, "note_on_time": 10.112, "note_off_time": 10.389}, {"pitch": 62, "velocity": 58, "note_on_time": 10.643, "note_off_time": 10.852}, {"pitch": 62, "velocity": 57, "note_on_time": 11.233, "note_off_time": 11.427}, {"pitch": 62, "velocity": 60, "note_on_time": 11.753, "note_off_time": 12.008}, {"pitch": 60, "velocity": 58, "note_on_time": 12.285, "note_off_time": 12.605}, {"pitch": 62, "velocity": 63, "note_on_time": 12.858, "note_off_time": 13.117}, {"pitch": 64, "velocity": 60, "note_on_time": 13.434, "note_off_time": 13.743}, {"pitch": 64, "velocity": 56, "note_on_time": 14.028, "note_off_time": 14.316}, {"pitch": 64, "velocity": 40, "note_on_time": 14.724, "note_off_time": 14.953}, {"pitch": 64, "velocity": 33, "note_on_time": 15.236, "note_off_time": 15.4}, {"pitch": 60, "velocity": 53, "note_on_time": 15.76, "note_off_time": 15.985}, {"pitch": 60, "velocity": 58, "note_on_time": 16.29, "note_off_time": 16.512}, {"pitch": 60, "velocity": 56, "note_on_time": 16.835, "note_off_time": 17.06}, {"pitch": 64, "velocity": 59, "note_on_time": 17.399, "note_off_time": 17.63}, {"pitch": 64, "velocity": 56, "note_on_time": 18.47, "note_off_time": 18.738}, {"pitch": 64, "velocity": 53, "note_on_time": 19.004, "note_off_time": 19.277}, {"pitch": 64, "velocity": 50, "note_on_time": 19.591, "note_off_time": 19.777}]</notes><guidance name="Guidance Mode">None</guidance><error name="Error value">0.07793431818181792</error></trial></trials></MIDI>