<MIDI midiNo="2022_10_27-10_53_55"><target_notes><notes name="Note List">[{"pitch": 42, "velocity": 80, "note_on_time": 0.004, "note_off_time": 0.523}, {"pitch": 42, "velocity": 80, "note_on_time": 0.524, "note_off_time": 1.052}, {"pitch": 42, "velocity": 80, "note_on_time": 1.052, "note_off_time": 1.58}, {"pitch": 42, "velocity": 80, "note_on_time": 1.58, "note_off_time": 2.108}, {"pitch": 60, "velocity": 80, "note_on_time": 2.108, "note_off_time": 2.632}, {"pitch": 42, "velocity": 80, "note_on_time": 2.108, "note_off_time": 2.632}, {"pitch": 60, "velocity": 80, "note_on_time": 2.632, "note_off_time": 3.161}, {"pitch": 42, "velocity": 80, "note_on_time": 2.633, "note_off_time": 3.161}, {"pitch": 60, "velocity": 80, "note_on_time": 3.161, "note_off_time": 3.69}, {"pitch": 42, "velocity": 80, "note_on_time": 3.161, "note_off_time": 3.69}, {"pitch": 60, "velocity": 80, "note_on_time": 3.69, "note_off_time": 4.221}, {"pitch": 42, "velocity": 80, "note_on_time": 3.69, "note_off_time": 4.222}, {"pitch": 60, "velocity": 80, "note_on_time": 4.221, "note_off_time": 4.749}, {"pitch": 42, "velocity": 80, "note_on_time": 4.222, "note_off_time": 4.749}, {"pitch": 42, "velocity": 80, "note_on_time": 4.749, "note_off_time": 5.278}, {"pitch": 62, "velocity": 80, "note_on_time": 5.278, "note_off_time": 5.807}, {"pitch": 42, "velocity": 80, "note_on_time": 5.278, "note_off_time": 5.808}, {"pitch": 60, "velocity": 80, "note_on_time": 5.807, "note_off_time": 6.336}, {"pitch": 42, "velocity": 80, "note_on_time": 5.808, "note_off_time": 6.336}, {"pitch": 60, "velocity": 80, "note_on_time": 6.336, "note_off_time": 6.868}, {"pitch": 42, "velocity": 80, "note_on_time": 6.337, "note_off_time": 6.868}, {"pitch": 62, "velocity": 80, "note_on_time": 6.868, "note_off_time": 7.398}, {"pitch": 42, "velocity": 80, "note_on_time": 6.868, "note_off_time": 7.398}, {"pitch": 60, "velocity": 80, "note_on_time": 7.398, "note_off_time": 7.927}, {"pitch": 42, "velocity": 80, "note_on_time": 7.399, "note_off_time": 7.927}, {"pitch": 62, "velocity": 80, "note_on_time": 7.927, "note_off_time": 8.457}, {"pitch": 42, "velocity": 80, "note_on_time": 7.927, "note_off_time": 8.458}, {"pitch": 60, "velocity": 80, "note_on_time": 8.457, "note_off_time": 8.985}, {"pitch": 42, "velocity": 80, "note_on_time": 8.458, "note_off_time": 8.986}, {"pitch": 42, "velocity": 80, "note_on_time": 8.986, "note_off_time": 9.517}, {"pitch": 42, "velocity": 80, "note_on_time": 9.517, "note_off_time": 10.044}, {"pitch": 60, "velocity": 80, "note_on_time": 10.044, "note_off_time": 10.572}, {"pitch": 42, "velocity": 80, "note_on_time": 10.044, "note_off_time": 10.573}, {"pitch": 62, "velocity": 80, "note_on_time": 10.572, "note_off_time": 11.102}, {"pitch": 42, "velocity": 80, "note_on_time": 10.573, "note_off_time": 11.102}, {"pitch": 60, "velocity": 80, "note_on_time": 11.102, "note_off_time": 11.633}, {"pitch": 42, "velocity": 80, "note_on_time": 11.103, "note_off_time": 11.634}, {"pitch": 62, "velocity": 80, "note_on_time": 11.633, "note_off_time": 12.161}, {"pitch": 42, "velocity": 80, "note_on_time": 11.634, "note_off_time": 12.162}, {"pitch": 62, "velocity": 80, "note_on_time": 12.161, "note_off_time": 12.694}, {"pitch": 42, "velocity": 80, "note_on_time": 12.162, "note_off_time": 12.694}, {"pitch": 62, "velocity": 80, "note_on_time": 12.694, "note_off_time": 13.226}, {"pitch": 42, "velocity": 80, "note_on_time": 12.695, "note_off_time": 13.227}, {"pitch": 60, "velocity": 80, "note_on_time": 13.226, "note_off_time": 13.754}, {"pitch": 42, "velocity": 80, "note_on_time": 13.227, "note_off_time": 13.754}, {"pitch": 60, "velocity": 80, "note_on_time": 13.754, "note_off_time": 14.281}, {"pitch": 42, "velocity": 80, "note_on_time": 13.754, "note_off_time": 14.281}, {"pitch": 60, "velocity": 80, "note_on_time": 14.281, "note_off_time": 14.812}, {"pitch": 42, "velocity": 80, "note_on_time": 14.282, "note_off_time": 14.812}, {"pitch": 62, "velocity": 80, "note_on_time": 14.812, "note_off_time": 15.339}, {"pitch": 42, "velocity": 80, "note_on_time": 14.812, "note_off_time": 15.34}, {"pitch": 60, "velocity": 80, "note_on_time": 15.339, "note_off_time": 15.867}, {"pitch": 42, "velocity": 80, "note_on_time": 15.34, "note_off_time": 15.867}, {"pitch": 62, "velocity": 80, "note_on_time": 15.867, "note_off_time": 16.399}, {"pitch": 42, "velocity": 80, "note_on_time": 15.867, "note_off_time": 16.399}, {"pitch": 60, "velocity": 80, "note_on_time": 16.399, "note_off_time": 16.927}, {"pitch": 42, "velocity": 80, "note_on_time": 16.399, "note_off_time": 16.928}, {"pitch": 42, "velocity": 80, "note_on_time": 16.928, "note_off_time": 17.456}, {"pitch": 60, "velocity": 80, "note_on_time": 17.456, "note_off_time": 17.986}, {"pitch": 42, "velocity": 80, "note_on_time": 17.456, "note_off_time": 17.987}, {"pitch": 60, "velocity": 80, "note_on_time": 17.986, "note_off_time": 18.518}, {"pitch": 42, "velocity": 80, "note_on_time": 17.987, "note_off_time": 18.519}, {"pitch": 60, "velocity": 80, "note_on_time": 18.518, "note_off_time": 19.046}, {"pitch": 42, "velocity": 80, "note_on_time": 18.519, "note_off_time": 19.046}]</notes><options name="Option List">((4, 4), [0.25], 3, 8, &lt;NoteRangePerHand.TWO_NOTES: 3&gt;, &lt;NoteRangePerHand.ONE_NOTE: 2&gt;, False, True, False, '116')</options></target_notes><trials><trial trial_no="1" timestamp="2022_10_27-10_53_35"><notes name="Played Notes">[{"pitch": 60, "velocity": 59, "note_on_time": 2.076, "note_off_time": 2.251}, {"pitch": 60, "velocity": 67, "note_on_time": 2.58, "note_off_time": 2.755}, {"pitch": 60, "velocity": 62, "note_on_time": 3.108, "note_off_time": 3.273}, {"pitch": 60, "velocity": 63, "note_on_time": 3.651, "note_off_time": 3.806}, {"pitch": 60, "velocity": 66, "note_on_time": 4.162, "note_off_time": 4.42}, {"pitch": 62, "velocity": 57, "note_on_time": 5.33, "note_off_time": 5.524}, {"pitch": 60, "velocity": 59, "note_on_time": 5.88, "note_off_time": 6.028}, {"pitch": 60, "velocity": 60, "note_on_time": 6.362, "note_off_time": 6.526}, {"pitch": 62, "velocity": 61, "note_on_time": 6.866, "note_off_time": 7.055}, {"pitch": 60, "velocity": 49, "note_on_time": 7.365, "note_off_time": 7.557}, {"pitch": 62, "velocity": 50, "note_on_time": 7.868, "note_off_time": 8.066}, {"pitch": 60, "velocity": 66, "note_on_time": 8.397, "note_off_time": 8.59}, {"pitch": 60, "velocity": 64, "note_on_time": 10.364, "note_off_time": 10.538}, {"pitch": 62, "velocity": 53, "note_on_time": 10.871, "note_off_time": 11.098}, {"pitch": 60, "velocity": 57, "note_on_time": 11.391, "note_off_time": 11.571}, {"pitch": 62, "velocity": 37, "note_on_time": 11.91, "note_off_time": 12.09}, {"pitch": 62, "velocity": 55, "note_on_time": 12.43, "note_off_time": 12.607}, {"pitch": 62, "velocity": 53, "note_on_time": 12.935, "note_off_time": 13.106}, {"pitch": 62, "velocity": 47, "note_on_time": 13.452, "note_off_time": 13.61}, {"pitch": 60, "velocity": 55, "note_on_time": 13.985, "note_off_time": 14.163}, {"pitch": 60, "velocity": 55, "note_on_time": 14.473, "note_off_time": 14.669}, {"pitch": 60, "velocity": 59, "note_on_time": 14.978, "note_off_time": 15.135}, {"pitch": 62, "velocity": 7, "note_on_time": 15.444, "note_off_time": 15.662}, {"pitch": 60, "velocity": 50, "note_on_time": 15.945, "note_off_time": 16.119}, {"pitch": 62, "velocity": 62, "note_on_time": 16.412, "note_off_time": 16.612}, {"pitch": 60, "velocity": 60, "note_on_time": 16.925, "note_off_time": 17.131}, {"pitch": 60, "velocity": 61, "note_on_time": 18.025, "note_off_time": 18.216}, {"pitch": 60, "velocity": 56, "note_on_time": 18.53, "note_off_time": 18.717}]</notes><guidance name="Guidance Mode">None</guidance><error name="Error value">0.3820689199999995</error></trial><trial trial_no="2" timestamp="2022_10_27-10_54_04"><notes name="Played Notes">[{"pitch": 60, "velocity": 56, "note_on_time": 2.122, "note_off_time": 2.29}, {"pitch": 60, "velocity": 59, "note_on_time": 2.606, "note_off_time": 2.772}, {"pitch": 60, "velocity": 52, "note_on_time": 3.129, "note_off_time": 3.29}, {"pitch": 60, "velocity": 55, "note_on_time": 3.652, "note_off_time": 3.814}, {"pitch": 60, "velocity": 54, "note_on_time": 4.178, "note_off_time": 4.361}, {"pitch": 62, "velocity": 56, "note_on_time": 5.209, "note_off_time": 5.425}, {"pitch": 60, "velocity": 59, "note_on_time": 5.748, "note_off_time": 5.931}, {"pitch": 60, "velocity": 54, "note_on_time": 6.258, "note_off_time": 6.427}, {"pitch": 62, "velocity": 62, "note_on_time": 6.809, "note_off_time": 7.002}, {"pitch": 60, "velocity": 59, "note_on_time": 7.36, "note_off_time": 7.531}, {"pitch": 62, "velocity": 35, "note_on_time": 7.876, "note_off_time": 8.085}, {"pitch": 60, "velocity": 62, "note_on_time": 8.45, "note_off_time": 8.63}, {"pitch": 60, "velocity": 46, "note_on_time": 10.565, "note_off_time": 10.75}, {"pitch": 62, "velocity": 50, "note_on_time": 11.095, "note_off_time": 11.285}, {"pitch": 60, "velocity": 61, "note_on_time": 11.633, "note_off_time": 11.802}, {"pitch": 62, "velocity": 48, "note_on_time": 12.152, "note_off_time": 12.352}, {"pitch": 62, "velocity": 53, "note_on_time": 12.656, "note_off_time": 12.849}, {"pitch": 62, "velocity": 53, "note_on_time": 13.172, "note_off_time": 13.368}, {"pitch": 60, "velocity": 52, "note_on_time": 13.704, "note_off_time": 13.849}, {"pitch": 60, "velocity": 53, "note_on_time": 14.21, "note_off_time": 14.399}, {"pitch": 60, "velocity": 56, "note_on_time": 14.721, "note_off_time": 14.927}, {"pitch": 62, "velocity": 62, "note_on_time": 15.283, "note_off_time": 15.471}, {"pitch": 60, "velocity": 58, "note_on_time": 15.812, "note_off_time": 16.002}, {"pitch": 62, "velocity": 54, "note_on_time": 16.339, "note_off_time": 16.544}, {"pitch": 60, "velocity": 54, "note_on_time": 16.865, "note_off_time": 17.039}, {"pitch": 60, "velocity": 64, "note_on_time": 18.162, "note_off_time": 18.34}, {"pitch": 60, "velocity": 57, "note_on_time": 18.739, "note_off_time": 18.914}]</notes><guidance name="Guidance Mode">None</guidance><error name="Error value">0.10035324000000001</error></trial><trial trial_no="3" timestamp="2022_10_27-10_54_31"><notes name="Played Notes">[{"pitch": 60, "velocity": 58, "note_on_time": 1.997, "note_off_time": 2.193}, {"pitch": 60, "velocity": 61, "note_on_time": 2.539, "note_off_time": 2.699}, {"pitch": 60, "velocity": 61, "note_on_time": 3.058, "note_off_time": 3.237}, {"pitch": 60, "velocity": 57, "note_on_time": 3.604, "note_off_time": 3.768}, {"pitch": 60, "velocity": 61, "note_on_time": 4.165, "note_off_time": 4.321}, {"pitch": 62, "velocity": 55, "note_on_time": 5.262, "note_off_time": 5.467}, {"pitch": 60, "velocity": 61, "note_on_time": 5.824, "note_off_time": 5.986}, {"pitch": 60, "velocity": 57, "note_on_time": 6.382, "note_off_time": 6.56}, {"pitch": 62, "velocity": 61, "note_on_time": 6.904, "note_off_time": 7.08}, {"pitch": 60, "velocity": 63, "note_on_time": 7.453, "note_off_time": 7.616}, {"pitch": 62, "velocity": 58, "note_on_time": 7.972, "note_off_time": 8.17}, {"pitch": 60, "velocity": 64, "note_on_time": 8.517, "note_off_time": 8.689}, {"pitch": 60, "velocity": 57, "note_on_time": 10.102, "note_off_time": 10.269}, {"pitch": 62, "velocity": 49, "note_on_time": 10.615, "note_off_time": 10.815}, {"pitch": 60, "velocity": 62, "note_on_time": 11.139, "note_off_time": 11.311}, {"pitch": 62, "velocity": 51, "note_on_time": 11.64, "note_off_time": 11.835}, {"pitch": 62, "velocity": 62, "note_on_time": 12.182, "note_off_time": 12.342}, {"pitch": 62, "velocity": 65, "note_on_time": 12.722, "note_off_time": 12.893}, {"pitch": 60, "velocity": 66, "note_on_time": 13.252, "note_off_time": 13.408}, {"pitch": 60, "velocity": 52, "note_on_time": 13.77, "note_off_time": 13.936}, {"pitch": 60, "velocity": 66, "note_on_time": 14.234, "note_off_time": 14.415}, {"pitch": 62, "velocity": 63, "note_on_time": 14.736, "note_off_time": 14.924}, {"pitch": 60, "velocity": 62, "note_on_time": 15.259, "note_off_time": 15.419}, {"pitch": 62, "velocity": 60, "note_on_time": 15.782, "note_off_time": 15.971}, {"pitch": 60, "velocity": 64, "note_on_time": 16.307, "note_off_time": 16.482}, {"pitch": 60, "velocity": 61, "note_on_time": 17.405, "note_off_time": 17.578}, {"pitch": 60, "velocity": 64, "note_on_time": 17.961, "note_off_time": 18.11}, {"pitch": 60, "velocity": 65, "note_on_time": 18.482, "note_off_time": 18.617}]</notes><guidance name="Guidance Mode">None</guidance><error name="Error value">0.025138279999999975</error></trial><trial trial_no="4" timestamp="2022_10_27-10_55_01"><notes name="Played Notes">[{"pitch": 60, "velocity": 60, "note_on_time": 1.643, "note_off_time": 1.829}, {"pitch": 60, "velocity": 60, "note_on_time": 2.165, "note_off_time": 2.341}, {"pitch": 60, "velocity": 62, "note_on_time": 2.694, "note_off_time": 2.867}, {"pitch": 60, "velocity": 59, "note_on_time": 3.2, "note_off_time": 3.35}, {"pitch": 60, "velocity": 66, "note_on_time": 3.732, "note_off_time": 3.926}, {"pitch": 62, "velocity": 57, "note_on_time": 4.81, "note_off_time": 4.988}, {"pitch": 60, "velocity": 59, "note_on_time": 5.352, "note_off_time": 5.527}, {"pitch": 60, "velocity": 57, "note_on_time": 5.888, "note_off_time": 6.046}, {"pitch": 62, "velocity": 61, "note_on_time": 6.411, "note_off_time": 6.592}, {"pitch": 60, "velocity": 55, "note_on_time": 6.947, "note_off_time": 7.128}, {"pitch": 62, "velocity": 55, "note_on_time": 7.488, "note_off_time": 7.686}, {"pitch": 60, "velocity": 62, "note_on_time": 7.965, "note_off_time": 8.154}, {"pitch": 60, "velocity": 64, "note_on_time": 9.61, "note_off_time": 9.771}, {"pitch": 62, "velocity": 54, "note_on_time": 10.124, "note_off_time": 10.318}, {"pitch": 60, "velocity": 56, "note_on_time": 10.666, "note_off_time": 10.837}, {"pitch": 62, "velocity": 44, "note_on_time": 11.212, "note_off_time": 11.37}, {"pitch": 62, "velocity": 54, "note_on_time": 11.76, "note_off_time": 11.932}, {"pitch": 62, "velocity": 66, "note_on_time": 12.311, "note_off_time": 12.456}, {"pitch": 60, "velocity": 57, "note_on_time": 12.87, "note_off_time": 13.028}, {"pitch": 60, "velocity": 52, "note_on_time": 13.347, "note_off_time": 13.517}, {"pitch": 60, "velocity": 66, "note_on_time": 13.874, "note_off_time": 14.033}, {"pitch": 62, "velocity": 58, "note_on_time": 14.401, "note_off_time": 14.589}, {"pitch": 60, "velocity": 54, "note_on_time": 14.898, "note_off_time": 15.074}, {"pitch": 62, "velocity": 39, "note_on_time": 15.378, "note_off_time": 15.577}, {"pitch": 60, "velocity": 64, "note_on_time": 15.877, "note_off_time": 16.057}, {"pitch": 60, "velocity": 49, "note_on_time": 16.963, "note_off_time": 17.171}, {"pitch": 60, "velocity": 61, "note_on_time": 17.485, "note_off_time": 17.67}, {"pitch": 60, "velocity": 63, "note_on_time": 18.015, "note_off_time": 18.166}]</notes><guidance name="Guidance Mode">None</guidance><error name="Error value">0.027156119999999867</error></trial><trial trial_no="5" timestamp="2022_10_27-10_55_29"><notes name="Played Notes">[{"pitch": 60, "velocity": 57, "note_on_time": 1.151, "note_off_time": 1.325}, {"pitch": 60, "velocity": 60, "note_on_time": 1.679, "note_off_time": 1.851}, {"pitch": 60, "velocity": 59, "note_on_time": 2.245, "note_off_time": 2.412}, {"pitch": 60, "velocity": 64, "note_on_time": 2.785, "note_off_time": 2.951}, {"pitch": 60, "velocity": 71, "note_on_time": 3.335, "note_off_time": 3.519}, {"pitch": 62, "velocity": 59, "note_on_time": 4.539, "note_off_time": 4.746}, {"pitch": 60, "velocity": 61, "note_on_time": 5.092, "note_off_time": 5.272}, {"pitch": 60, "velocity": 61, "note_on_time": 5.673, "note_off_time": 5.829}, {"pitch": 62, "velocity": 49, "note_on_time": 6.483, "note_off_time": 6.628}, {"pitch": 60, "velocity": 61, "note_on_time": 7.07, "note_off_time": 7.219}, {"pitch": 62, "velocity": 55, "note_on_time": 7.623, "note_off_time": 7.814}, {"pitch": 60, "velocity": 37, "note_on_time": 8.181, "note_off_time": 8.397}, {"pitch": 60, "velocity": 64, "note_on_time": 9.926, "note_off_time": 10.129}, {"pitch": 62, "velocity": 55, "note_on_time": 10.495, "note_off_time": 10.697}, {"pitch": 60, "velocity": 53, "note_on_time": 11.027, "note_off_time": 11.214}, {"pitch": 62, "velocity": 56, "note_on_time": 11.558, "note_off_time": 11.752}, {"pitch": 62, "velocity": 53, "note_on_time": 12.073, "note_off_time": 12.246}, {"pitch": 62, "velocity": 56, "note_on_time": 12.556, "note_off_time": 12.761}, {"pitch": 60, "velocity": 54, "note_on_time": 13.11, "note_off_time": 13.286}, {"pitch": 60, "velocity": 54, "note_on_time": 13.612, "note_off_time": 13.79}, {"pitch": 60, "velocity": 58, "note_on_time": 14.133, "note_off_time": 14.315}, {"pitch": 62, "velocity": 60, "note_on_time": 14.682, "note_off_time": 14.872}, {"pitch": 60, "velocity": 63, "note_on_time": 15.205, "note_off_time": 15.396}, {"pitch": 62, "velocity": 46, "note_on_time": 15.707, "note_off_time": 15.946}, {"pitch": 60, "velocity": 66, "note_on_time": 16.24, "note_off_time": 16.44}, {"pitch": 60, "velocity": 61, "note_on_time": 17.31, "note_off_time": 17.497}, {"pitch": 60, "velocity": 63, "note_on_time": 17.831, "note_off_time": 18.016}, {"pitch": 60, "velocity": 62, "note_on_time": 18.379, "note_off_time": 18.513}]</notes><guidance name="Guidance Mode">None</guidance><error name="Error value">0.053098280000000185</error></trial></trials></MIDI>