<MIDI midiNo="2022_11_03-11_07_55"><target_notes><notes name="Note List">[{"pitch": 42, "velocity": 80, "note_on_time": 0.004, "note_off_time": 0.22}, {"pitch": 42, "velocity": 80, "note_on_time": 0.22, "note_off_time": 0.439}, {"pitch": 42, "velocity": 80, "note_on_time": 0.439, "note_off_time": 0.657}, {"pitch": 42, "velocity": 80, "note_on_time": 0.657, "note_off_time": 0.876}, {"pitch": 42, "velocity": 80, "note_on_time": 0.876, "note_off_time": 1.092}, {"pitch": 62, "velocity": 80, "note_on_time": 0.876, "note_off_time": 1.311}, {"pitch": 42, "velocity": 80, "note_on_time": 1.092, "note_off_time": 1.311}, {"pitch": 42, "velocity": 80, "note_on_time": 1.311, "note_off_time": 1.529}, {"pitch": 42, "velocity": 80, "note_on_time": 1.529, "note_off_time": 1.747}, {"pitch": 67, "velocity": 80, "note_on_time": 1.747, "note_off_time": 1.964}, {"pitch": 42, "velocity": 80, "note_on_time": 1.747, "note_off_time": 1.964}, {"pitch": 67, "velocity": 80, "note_on_time": 1.964, "note_off_time": 2.184}, {"pitch": 42, "velocity": 80, "note_on_time": 1.964, "note_off_time": 2.184}, {"pitch": 62, "velocity": 80, "note_on_time": 2.184, "note_off_time": 2.401}, {"pitch": 42, "velocity": 80, "note_on_time": 2.184, "note_off_time": 2.401}, {"pitch": 65, "velocity": 80, "note_on_time": 2.401, "note_off_time": 2.618}, {"pitch": 42, "velocity": 80, "note_on_time": 2.401, "note_off_time": 2.618}, {"pitch": 60, "velocity": 80, "note_on_time": 2.618, "note_off_time": 2.836}, {"pitch": 42, "velocity": 80, "note_on_time": 2.618, "note_off_time": 2.836}, {"pitch": 65, "velocity": 80, "note_on_time": 2.836, "note_off_time": 3.054}, {"pitch": 42, "velocity": 80, "note_on_time": 2.836, "note_off_time": 3.054}, {"pitch": 60, "velocity": 80, "note_on_time": 3.054, "note_off_time": 3.272}, {"pitch": 42, "velocity": 80, "note_on_time": 3.054, "note_off_time": 3.272}, {"pitch": 65, "velocity": 80, "note_on_time": 3.272, "note_off_time": 3.489}, {"pitch": 42, "velocity": 80, "note_on_time": 3.272, "note_off_time": 3.489}, {"pitch": 64, "velocity": 80, "note_on_time": 3.489, "note_off_time": 3.707}, {"pitch": 42, "velocity": 80, "note_on_time": 3.489, "note_off_time": 3.707}, {"pitch": 62, "velocity": 80, "note_on_time": 3.707, "note_off_time": 3.924}, {"pitch": 42, "velocity": 80, "note_on_time": 3.707, "note_off_time": 3.924}, {"pitch": 65, "velocity": 80, "note_on_time": 3.924, "note_off_time": 4.143}, {"pitch": 42, "velocity": 80, "note_on_time": 3.924, "note_off_time": 4.143}, {"pitch": 64, "velocity": 80, "note_on_time": 4.143, "note_off_time": 4.359}, {"pitch": 42, "velocity": 80, "note_on_time": 4.143, "note_off_time": 4.359}, {"pitch": 62, "velocity": 80, "note_on_time": 4.359, "note_off_time": 4.577}, {"pitch": 42, "velocity": 80, "note_on_time": 4.359, "note_off_time": 4.577}, {"pitch": 65, "velocity": 80, "note_on_time": 4.577, "note_off_time": 4.792}, {"pitch": 42, "velocity": 80, "note_on_time": 4.577, "note_off_time": 4.792}, {"pitch": 64, "velocity": 80, "note_on_time": 4.792, "note_off_time": 5.009}, {"pitch": 42, "velocity": 80, "note_on_time": 4.792, "note_off_time": 5.009}, {"pitch": 67, "velocity": 80, "note_on_time": 5.009, "note_off_time": 5.228}, {"pitch": 42, "velocity": 80, "note_on_time": 5.009, "note_off_time": 5.228}, {"pitch": 60, "velocity": 80, "note_on_time": 5.228, "note_off_time": 5.446}, {"pitch": 42, "velocity": 80, "note_on_time": 5.228, "note_off_time": 5.447}, {"pitch": 42, "velocity": 80, "note_on_time": 5.447, "note_off_time": 5.665}, {"pitch": 65, "velocity": 80, "note_on_time": 5.446, "note_off_time": 5.882}, {"pitch": 42, "velocity": 80, "note_on_time": 5.665, "note_off_time": 5.882}, {"pitch": 64, "velocity": 80, "note_on_time": 5.882, "note_off_time": 6.101}, {"pitch": 42, "velocity": 80, "note_on_time": 5.882, "note_off_time": 6.102}, {"pitch": 64, "velocity": 80, "note_on_time": 6.101, "note_off_time": 6.32}, {"pitch": 42, "velocity": 80, "note_on_time": 6.102, "note_off_time": 6.32}, {"pitch": 42, "velocity": 80, "note_on_time": 6.32, "note_off_time": 6.537}, {"pitch": 42, "velocity": 80, "note_on_time": 6.537, "note_off_time": 6.755}, {"pitch": 42, "velocity": 80, "note_on_time": 6.755, "note_off_time": 6.971}, {"pitch": 42, "velocity": 80, "note_on_time": 6.972, "note_off_time": 7.19}, {"pitch": 64, "velocity": 80, "note_on_time": 7.189, "note_off_time": 7.407}, {"pitch": 42, "velocity": 80, "note_on_time": 7.19, "note_off_time": 7.407}, {"pitch": 64, "velocity": 80, "note_on_time": 7.407, "note_off_time": 7.625}, {"pitch": 42, "velocity": 80, "note_on_time": 7.407, "note_off_time": 7.625}, {"pitch": 64, "velocity": 80, "note_on_time": 7.625, "note_off_time": 7.843}, {"pitch": 42, "velocity": 80, "note_on_time": 7.625, "note_off_time": 7.843}]</notes><options name="Option List">((4, 4), [0.5, 0.25], 3, 8, &lt;NoteRangePerHand.C_TO_G: 6&gt;, &lt;NoteRangePerHand.ONE_NOTE: 2&gt;, False, True, False, 281)</options></target_notes><trials><trial trial_no="1" timestamp="2022_11_03-11_07_46"><notes name="Played Notes">[{"pitch": 62, "velocity": 81, "note_on_time": 0.891, "note_off_time": 1.273}, {"pitch": 67, "velocity": 72, "note_on_time": 1.764, "note_off_time": 1.869}, {"pitch": 67, "velocity": 62, "note_on_time": 1.981, "note_off_time": 2.235}, {"pitch": 62, "velocity": 69, "note_on_time": 2.214, "note_off_time": 2.413}, {"pitch": 65, "velocity": 72, "note_on_time": 2.435, "note_off_time": 2.646}, {"pitch": 60, "velocity": 67, "note_on_time": 2.661, "note_off_time": 2.883}, {"pitch": 65, "velocity": 71, "note_on_time": 2.89, "note_off_time": 3.104}, {"pitch": 60, "velocity": 60, "note_on_time": 3.115, "note_off_time": 3.329}, {"pitch": 65, "velocity": 67, "note_on_time": 3.327, "note_off_time": 3.579}, {"pitch": 64, "velocity": 57, "note_on_time": 3.573, "note_off_time": 3.807}, {"pitch": 62, "velocity": 56, "note_on_time": 3.818, "note_off_time": 4.02}, {"pitch": 65, "velocity": 68, "note_on_time": 4.046, "note_off_time": 4.323}, {"pitch": 64, "velocity": 59, "note_on_time": 4.293, "note_off_time": 4.562}, {"pitch": 62, "velocity": 64, "note_on_time": 4.54, "note_off_time": 4.767}, {"pitch": 65, "velocity": 74, "note_on_time": 4.782, "note_off_time": 5.064}, {"pitch": 64, "velocity": 61, "note_on_time": 5.002, "note_off_time": 5.288}, {"pitch": 62, "velocity": 66, "note_on_time": 5.248, "note_off_time": 5.495}, {"pitch": 67, "velocity": 68, "note_on_time": 5.488, "note_off_time": 5.71}, {"pitch": 60, "velocity": 64, "note_on_time": 5.745, "note_off_time": 5.956}, {"pitch": 65, "velocity": 80, "note_on_time": 5.956, "note_off_time": 6.414}, {"pitch": 64, "velocity": 76, "note_on_time": 6.417, "note_off_time": 6.551}, {"pitch": 64, "velocity": 74, "note_on_time": 6.674, "note_off_time": 6.8}, {"pitch": 64, "velocity": 82, "note_on_time": 7.406, "note_off_time": 7.481}, {"pitch": 64, "velocity": 64, "note_on_time": 7.606, "note_off_time": 7.708}]</notes><guidance name="Guidance Mode">None</guidance><error name="Error value">0.29424766666666646</error></trial><trial trial_no="2" timestamp="2022_11_03-11_08_04"><notes name="Played Notes">[{"pitch": 62, "velocity": 84, "note_on_time": 0.906, "note_off_time": 1.46}, {"pitch": 65, "velocity": 83, "note_on_time": 1.593, "note_off_time": 1.682}, {"pitch": 65, "velocity": 64, "note_on_time": 1.818, "note_off_time": 1.983}, {"pitch": 67, "velocity": 52, "note_on_time": 2.078, "note_off_time": 2.199}, {"pitch": 60, "velocity": 67, "note_on_time": 2.245, "note_off_time": 2.463}, {"pitch": 65, "velocity": 81, "note_on_time": 2.486, "note_off_time": 2.702}, {"pitch": 60, "velocity": 67, "note_on_time": 2.711, "note_off_time": 2.915}, {"pitch": 65, "velocity": 67, "note_on_time": 2.927, "note_off_time": 3.138}, {"pitch": 60, "velocity": 66, "note_on_time": 3.147, "note_off_time": 3.365}, {"pitch": 65, "velocity": 62, "note_on_time": 3.372, "note_off_time": 3.604}, {"pitch": 64, "velocity": 68, "note_on_time": 3.598, "note_off_time": 3.854}, {"pitch": 62, "velocity": 64, "note_on_time": 3.833, "note_off_time": 4.033}, {"pitch": 65, "velocity": 58, "note_on_time": 4.064, "note_off_time": 4.313}, {"pitch": 60, "velocity": 58, "note_on_time": 4.318, "note_off_time": 4.574}, {"pitch": 65, "velocity": 51, "note_on_time": 4.584, "note_off_time": 4.768}, {"pitch": 64, "velocity": 52, "note_on_time": 4.679, "note_off_time": 5.101}, {"pitch": 60, "velocity": 63, "note_on_time": 5.7, "note_off_time": 5.905}, {"pitch": 65, "velocity": 65, "note_on_time": 5.912, "note_off_time": 6.414}, {"pitch": 64, "velocity": 64, "note_on_time": 6.382, "note_off_time": 6.459}, {"pitch": 64, "velocity": 77, "note_on_time": 6.612, "note_off_time": 6.736}, {"pitch": 64, "velocity": 71, "note_on_time": 7.233, "note_off_time": 7.313}, {"pitch": 64, "velocity": 73, "note_on_time": 7.456, "note_off_time": 7.552}]</notes><guidance name="Guidance Mode">None</guidance><error name="Error value">0.9308593333333334</error></trial><trial trial_no="3" timestamp="2022_11_03-11_08_21"><notes name="Played Notes">[{"pitch": 62, "velocity": 81, "note_on_time": 0.839, "note_off_time": 1.463}, {"pitch": 67, "velocity": 79, "note_on_time": 1.497, "note_off_time": 1.595}, {"pitch": 67, "velocity": 81, "note_on_time": 1.734, "note_off_time": 2.002}, {"pitch": 62, "velocity": 69, "note_on_time": 1.976, "note_off_time": 2.196}, {"pitch": 65, "velocity": 73, "note_on_time": 2.204, "note_off_time": 2.413}, {"pitch": 60, "velocity": 75, "note_on_time": 2.418, "note_off_time": 2.685}, {"pitch": 65, "velocity": 66, "note_on_time": 2.671, "note_off_time": 2.896}, {"pitch": 60, "velocity": 72, "note_on_time": 2.896, "note_off_time": 3.158}, {"pitch": 65, "velocity": 70, "note_on_time": 3.152, "note_off_time": 3.425}, {"pitch": 64, "velocity": 60, "note_on_time": 3.368, "note_off_time": 3.653}, {"pitch": 62, "velocity": 72, "note_on_time": 3.627, "note_off_time": 3.853}, {"pitch": 65, "velocity": 70, "note_on_time": 3.862, "note_off_time": 4.136}, {"pitch": 64, "velocity": 68, "note_on_time": 4.096, "note_off_time": 4.393}, {"pitch": 62, "velocity": 69, "note_on_time": 4.371, "note_off_time": 4.618}, {"pitch": 65, "velocity": 76, "note_on_time": 4.627, "note_off_time": 4.897}, {"pitch": 64, "velocity": 64, "note_on_time": 4.848, "note_off_time": 5.256}, {"pitch": 62, "velocity": 61, "note_on_time": 5.132, "note_off_time": 5.405}, {"pitch": 65, "velocity": 64, "note_on_time": 5.444, "note_off_time": 5.718}, {"pitch": 64, "velocity": 59, "note_on_time": 5.682, "note_off_time": 5.849}, {"pitch": 60, "velocity": 59, "note_on_time": 5.899, "note_off_time": 6.138}, {"pitch": 65, "velocity": 77, "note_on_time": 6.137, "note_off_time": 6.564}, {"pitch": 62, "velocity": 80, "note_on_time": 6.609, "note_off_time": 6.711}, {"pitch": 64, "velocity": 68, "note_on_time": 6.826, "note_off_time": 7.267}, {"pitch": 60, "velocity": 60, "note_on_time": 7.371, "note_off_time": 7.503}, {"pitch": 60, "velocity": 64, "note_on_time": 7.658, "note_off_time": 7.707}]</notes><guidance name="Guidance Mode">None</guidance><error name="Error value">0.5425831904761906</error></trial></trials></MIDI>