<MIDI midiNo="2022_09_12-11_02_16"><target_notes><notes name="Note List">[{"pitch": 42, "velocity": 80, "note_on_time": 0.004, "note_off_time": 0.38}, {"pitch": 42, "velocity": 80, "note_on_time": 0.38, "note_off_time": 0.753}, {"pitch": 42, "velocity": 80, "note_on_time": 0.753, "note_off_time": 1.128}, {"pitch": 42, "velocity": 80, "note_on_time": 1.128, "note_off_time": 1.5}, {"pitch": 62, "velocity": 80, "note_on_time": 1.5, "note_off_time": 1.873}, {"pitch": 42, "velocity": 80, "note_on_time": 1.501, "note_off_time": 1.874}, {"pitch": 60, "velocity": 80, "note_on_time": 1.873, "note_off_time": 2.248}, {"pitch": 42, "velocity": 80, "note_on_time": 1.874, "note_off_time": 2.248}, {"pitch": 42, "velocity": 80, "note_on_time": 2.249, "note_off_time": 2.624}, {"pitch": 64, "velocity": 80, "note_on_time": 2.623, "note_off_time": 2.996}, {"pitch": 42, "velocity": 80, "note_on_time": 2.624, "note_off_time": 2.997}, {"pitch": 62, "velocity": 80, "note_on_time": 2.996, "note_off_time": 3.372}, {"pitch": 42, "velocity": 80, "note_on_time": 2.997, "note_off_time": 3.372}, {"pitch": 42, "velocity": 80, "note_on_time": 3.373, "note_off_time": 3.747}, {"pitch": 64, "velocity": 80, "note_on_time": 3.747, "note_off_time": 4.121}, {"pitch": 42, "velocity": 80, "note_on_time": 3.747, "note_off_time": 4.121}, {"pitch": 42, "velocity": 80, "note_on_time": 4.122, "note_off_time": 4.495}, {"pitch": 42, "velocity": 80, "note_on_time": 4.495, "note_off_time": 4.869}, {"pitch": 62, "velocity": 80, "note_on_time": 4.495, "note_off_time": 5.241}, {"pitch": 42, "velocity": 80, "note_on_time": 4.869, "note_off_time": 5.241}, {"pitch": 42, "velocity": 80, "note_on_time": 5.242, "note_off_time": 5.616}, {"pitch": 42, "velocity": 80, "note_on_time": 5.617, "note_off_time": 5.988}, {"pitch": 60, "velocity": 80, "note_on_time": 5.988, "note_off_time": 6.362}, {"pitch": 42, "velocity": 80, "note_on_time": 5.989, "note_off_time": 6.362}, {"pitch": 42, "velocity": 80, "note_on_time": 6.362, "note_off_time": 6.734}, {"pitch": 42, "velocity": 80, "note_on_time": 6.734, "note_off_time": 7.108}, {"pitch": 64, "velocity": 80, "note_on_time": 6.734, "note_off_time": 7.484}, {"pitch": 42, "velocity": 80, "note_on_time": 7.109, "note_off_time": 7.484}, {"pitch": 62, "velocity": 80, "note_on_time": 7.484, "note_off_time": 7.857}, {"pitch": 42, "velocity": 80, "note_on_time": 7.484, "note_off_time": 7.857}, {"pitch": 62, "velocity": 80, "note_on_time": 7.857, "note_off_time": 8.231}, {"pitch": 42, "velocity": 80, "note_on_time": 7.857, "note_off_time": 8.231}, {"pitch": 42, "velocity": 80, "note_on_time": 8.231, "note_off_time": 8.605}, {"pitch": 64, "velocity": 80, "note_on_time": 8.231, "note_off_time": 8.98}, {"pitch": 42, "velocity": 80, "note_on_time": 8.605, "note_off_time": 8.98}, {"pitch": 60, "velocity": 80, "note_on_time": 8.98, "note_off_time": 9.353}, {"pitch": 42, "velocity": 80, "note_on_time": 8.98, "note_off_time": 9.353}, {"pitch": 62, "velocity": 80, "note_on_time": 9.353, "note_off_time": 9.726}, {"pitch": 42, "velocity": 80, "note_on_time": 9.353, "note_off_time": 9.726}, {"pitch": 64, "velocity": 80, "note_on_time": 9.726, "note_off_time": 10.1}, {"pitch": 42, "velocity": 80, "note_on_time": 9.726, "note_off_time": 10.1}, {"pitch": 62, "velocity": 80, "note_on_time": 10.1, "note_off_time": 10.473}, {"pitch": 42, "velocity": 80, "note_on_time": 10.1, "note_off_time": 10.473}, {"pitch": 62, "velocity": 80, "note_on_time": 10.473, "note_off_time": 10.847}, {"pitch": 42, "velocity": 80, "note_on_time": 10.473, "note_off_time": 10.848}, {"pitch": 42, "velocity": 80, "note_on_time": 10.848, "note_off_time": 11.221}, {"pitch": 62, "velocity": 80, "note_on_time": 10.847, "note_off_time": 11.595}, {"pitch": 42, "velocity": 80, "note_on_time": 11.221, "note_off_time": 11.596}, {"pitch": 42, "velocity": 80, "note_on_time": 11.596, "note_off_time": 11.969}, {"pitch": 42, "velocity": 80, "note_on_time": 11.969, "note_off_time": 12.346}, {"pitch": 62, "velocity": 80, "note_on_time": 12.346, "note_off_time": 12.719}, {"pitch": 42, "velocity": 80, "note_on_time": 12.346, "note_off_time": 12.719}, {"pitch": 62, "velocity": 80, "note_on_time": 12.719, "note_off_time": 13.093}, {"pitch": 42, "velocity": 80, "note_on_time": 12.719, "note_off_time": 13.093}, {"pitch": 62, "velocity": 80, "note_on_time": 13.093, "note_off_time": 13.467}, {"pitch": 42, "velocity": 80, "note_on_time": 13.093, "note_off_time": 13.467}]</notes><options name="Option List">((4, 4), [0.5, 0.25], 3, 8, &lt;NoteRangePerHand.THREE_NOTES: 4&gt;, &lt;NoteRangePerHand.ONE_NOTE: 2&gt;, False, True, True, '166')</options></target_notes><trials><trial trial_no="1" timestamp="2022_09_12-11_02_01"><notes name="Played Notes">[{"pitch": 57, "velocity": 38, "note_on_time": 6.093, "note_off_time": 6.288}, {"pitch": 53, "velocity": 61, "note_on_time": 6.376, "note_off_time": 6.491}, {"pitch": 57, "velocity": 61, "note_on_time": 6.429, "note_off_time": 6.545}, {"pitch": 59, "velocity": 28, "note_on_time": 6.435, "note_off_time": 6.595}, {"pitch": 57, "velocity": 62, "note_on_time": 6.695, "note_off_time": 6.798}, {"pitch": 59, "velocity": 27, "note_on_time": 6.711, "note_off_time": 6.813}, {"pitch": 53, "velocity": 52, "note_on_time": 6.807, "note_off_time": 6.874}, {"pitch": 57, "velocity": 61, "note_on_time": 6.947, "note_off_time": 7.09}, {"pitch": 59, "velocity": 49, "note_on_time": 6.957, "note_off_time": 7.128}, {"pitch": 53, "velocity": 45, "note_on_time": 6.984, "note_off_time": 7.188}, {"pitch": 55, "velocity": 42, "note_on_time": 7.133, "note_off_time": 7.271}, {"pitch": 57, "velocity": 59, "note_on_time": 7.27, "note_off_time": 7.387}, {"pitch": 59, "velocity": 27, "note_on_time": 7.319, "note_off_time": 7.435}, {"pitch": 53, "velocity": 53, "note_on_time": 7.308, "note_off_time": 7.561}, {"pitch": 55, "velocity": 56, "note_on_time": 7.461, "note_off_time": 7.592}, {"pitch": 57, "velocity": 51, "note_on_time": 7.563, "note_off_time": 7.675}, {"pitch": 53, "velocity": 25, "note_on_time": 7.653, "note_off_time": 7.815}, {"pitch": 59, "velocity": 23, "note_on_time": 7.596, "note_off_time": 7.821}, {"pitch": 57, "velocity": 53, "note_on_time": 8.177, "note_off_time": 8.38}, {"pitch": 55, "velocity": 49, "note_on_time": 8.412, "note_off_time": 8.609}, {"pitch": 57, "velocity": 52, "note_on_time": 8.711, "note_off_time": 8.893}, {"pitch": 57, "velocity": 41, "note_on_time": 9.143, "note_off_time": 9.288}, {"pitch": 57, "velocity": 46, "note_on_time": 9.43, "note_off_time": 9.574}, {"pitch": 57, "velocity": 55, "note_on_time": 9.767, "note_off_time": 9.869}, {"pitch": 57, "velocity": 49, "note_on_time": 10.012, "note_off_time": 10.106}, {"pitch": 57, "velocity": 52, "note_on_time": 10.246, "note_off_time": 10.361}]</notes><guidance name="Guidance Mode">None</guidance><error name="Error value">3.0535952941176454</error></trial></trials></MIDI>