<MIDI midiNo="2022_12_01-12_36_14"><target_notes><notes name="Note List">[{"pitch": 42, "velocity": 80, "note_on_time": 0.004, "note_off_time": 0.76}, {"pitch": 42, "velocity": 80, "note_on_time": 0.761, "note_off_time": 1.522}, {"pitch": 42, "velocity": 80, "note_on_time": 1.523, "note_off_time": 2.285}, {"pitch": 42, "velocity": 80, "note_on_time": 2.286, "note_off_time": 3.048}, {"pitch": 62, "velocity": 80, "note_on_time": 3.048, "note_off_time": 3.813}, {"pitch": 42, "velocity": 80, "note_on_time": 3.048, "note_off_time": 3.814}, {"pitch": 62, "velocity": 80, "note_on_time": 3.813, "note_off_time": 4.565}, {"pitch": 42, "velocity": 80, "note_on_time": 3.814, "note_off_time": 4.565}, {"pitch": 42, "velocity": 80, "note_on_time": 4.566, "note_off_time": 5.329}, {"pitch": 60, "velocity": 80, "note_on_time": 4.565, "note_off_time": 6.095}, {"pitch": 42, "velocity": 80, "note_on_time": 5.329, "note_off_time": 6.095}, {"pitch": 60, "velocity": 80, "note_on_time": 6.095, "note_off_time": 6.857}, {"pitch": 42, "velocity": 80, "note_on_time": 6.095, "note_off_time": 6.857}, {"pitch": 62, "velocity": 80, "note_on_time": 6.857, "note_off_time": 7.62}, {"pitch": 42, "velocity": 80, "note_on_time": 6.857, "note_off_time": 7.621}, {"pitch": 60, "velocity": 80, "note_on_time": 7.62, "note_off_time": 8.384}, {"pitch": 42, "velocity": 80, "note_on_time": 7.621, "note_off_time": 8.385}, {"pitch": 60, "velocity": 80, "note_on_time": 8.384, "note_off_time": 9.149}, {"pitch": 42, "velocity": 80, "note_on_time": 8.385, "note_off_time": 9.149}, {"pitch": 42, "velocity": 80, "note_on_time": 9.149, "note_off_time": 9.911}, {"pitch": 62, "velocity": 80, "note_on_time": 9.149, "note_off_time": 10.674}, {"pitch": 42, "velocity": 80, "note_on_time": 9.911, "note_off_time": 10.674}, {"pitch": 42, "velocity": 80, "note_on_time": 10.674, "note_off_time": 11.437}, {"pitch": 60, "velocity": 80, "note_on_time": 10.674, "note_off_time": 12.199}, {"pitch": 42, "velocity": 80, "note_on_time": 11.438, "note_off_time": 12.199}, {"pitch": 42, "velocity": 80, "note_on_time": 12.199, "note_off_time": 12.962}, {"pitch": 62, "velocity": 80, "note_on_time": 12.199, "note_off_time": 13.714}, {"pitch": 42, "velocity": 80, "note_on_time": 12.963, "note_off_time": 13.714}, {"pitch": 42, "velocity": 80, "note_on_time": 13.714, "note_off_time": 14.477}, {"pitch": 42, "velocity": 80, "note_on_time": 14.478, "note_off_time": 15.24}, {"pitch": 62, "velocity": 80, "note_on_time": 15.239, "note_off_time": 16.001}, {"pitch": 42, "velocity": 80, "note_on_time": 15.24, "note_off_time": 16.001}, {"pitch": 42, "velocity": 80, "note_on_time": 16.002, "note_off_time": 16.765}, {"pitch": 62, "velocity": 80, "note_on_time": 16.001, "note_off_time": 17.527}, {"pitch": 42, "velocity": 80, "note_on_time": 16.765, "note_off_time": 17.527}, {"pitch": 62, "velocity": 80, "note_on_time": 17.527, "note_off_time": 18.29}, {"pitch": 42, "velocity": 80, "note_on_time": 17.527, "note_off_time": 18.29}, {"pitch": 42, "velocity": 80, "note_on_time": 18.29, "note_off_time": 19.053}, {"pitch": 62, "velocity": 80, "note_on_time": 18.29, "note_off_time": 19.816}, {"pitch": 42, "velocity": 80, "note_on_time": 19.054, "note_off_time": 19.816}, {"pitch": 62, "velocity": 80, "note_on_time": 19.816, "note_off_time": 20.579}, {"pitch": 42, "velocity": 80, "note_on_time": 19.816, "note_off_time": 20.58}, {"pitch": 62, "velocity": 80, "note_on_time": 20.579, "note_off_time": 21.345}, {"pitch": 42, "velocity": 80, "note_on_time": 20.58, "note_off_time": 21.345}, {"pitch": 62, "velocity": 80, "note_on_time": 21.345, "note_off_time": 22.11}, {"pitch": 42, "velocity": 80, "note_on_time": 21.346, "note_off_time": 22.11}, {"pitch": 60, "velocity": 80, "note_on_time": 22.11, "note_off_time": 22.873}, {"pitch": 42, "velocity": 80, "note_on_time": 22.11, "note_off_time": 22.874}, {"pitch": 60, "velocity": 80, "note_on_time": 22.873, "note_off_time": 23.638}, {"pitch": 42, "velocity": 80, "note_on_time": 22.874, "note_off_time": 23.638}, {"pitch": 60, "velocity": 80, "note_on_time": 23.638, "note_off_time": 24.398}, {"pitch": 42, "velocity": 80, "note_on_time": 23.638, "note_off_time": 24.399}, {"pitch": 42, "velocity": 80, "note_on_time": 24.399, "note_off_time": 25.16}, {"pitch": 60, "velocity": 80, "note_on_time": 25.16, "note_off_time": 25.923}, {"pitch": 42, "velocity": 80, "note_on_time": 25.16, "note_off_time": 25.924}, {"pitch": 60, "velocity": 80, "note_on_time": 25.923, "note_off_time": 26.685}, {"pitch": 42, "velocity": 80, "note_on_time": 25.924, "note_off_time": 26.686}, {"pitch": 60, "velocity": 80, "note_on_time": 26.685, "note_off_time": 27.448}, {"pitch": 42, "velocity": 80, "note_on_time": 26.686, "note_off_time": 27.448}]</notes><options name="Option List">((4, 4), [0.25], 3, 8, &lt;NoteRangePerHand.TWO_NOTES: 3&gt;, &lt;NoteRangePerHand.ONE_NOTE: 2&gt;, False, True, False, 80)</options></target_notes><trials><trial trial_no="1" timestamp="2022_12_01-12_35_45"><notes name="Played Notes">[{"pitch": 62, "velocity": 49, "note_on_time": 3.17, "note_off_time": 3.581}, {"pitch": 62, "velocity": 68, "note_on_time": 3.759, "note_off_time": 4.409}, {"pitch": 60, "velocity": 65, "note_on_time": 4.514, "note_off_time": 5.677}, {"pitch": 60, "velocity": 71, "note_on_time": 6.025, "note_off_time": 6.437}, {"pitch": 62, "velocity": 62, "note_on_time": 6.732, "note_off_time": 7.273}, {"pitch": 60, "velocity": 64, "note_on_time": 7.498, "note_off_time": 7.85}, {"pitch": 60, "velocity": 70, "note_on_time": 8.288, "note_off_time": 8.598}, {"pitch": 62, "velocity": 63, "note_on_time": 9.05, "note_off_time": 10.556}, {"pitch": 60, "velocity": 62, "note_on_time": 10.698, "note_off_time": 12.115}, {"pitch": 62, "velocity": 80, "note_on_time": 12.278, "note_off_time": 13.722}, {"pitch": 62, "velocity": 69, "note_on_time": 15.127, "note_off_time": 15.571}, {"pitch": 62, "velocity": 66, "note_on_time": 15.792, "note_off_time": 17.213}, {"pitch": 62, "velocity": 61, "note_on_time": 17.561, "note_off_time": 18.072}, {"pitch": 62, "velocity": 73, "note_on_time": 18.344, "note_off_time": 20.31}, {"pitch": 62, "velocity": 69, "note_on_time": 20.512, "note_off_time": 20.819}, {"pitch": 62, "velocity": 70, "note_on_time": 21.18, "note_off_time": 21.505}, {"pitch": 62, "velocity": 58, "note_on_time": 21.973, "note_off_time": 22.447}, {"pitch": 60, "velocity": 65, "note_on_time": 22.852, "note_off_time": 23.196}, {"pitch": 60, "velocity": 72, "note_on_time": 23.552, "note_off_time": 23.879}, {"pitch": 60, "velocity": 61, "note_on_time": 24.303, "note_off_time": 25.512}, {"pitch": 60, "velocity": 71, "note_on_time": 25.926, "note_off_time": 26.366}, {"pitch": 60, "velocity": 57, "note_on_time": 26.601, "note_off_time": 27.049}]</notes><guidance name="Guidance Mode">None</guidance><error name="Error value">0.19875000000000012</error></trial></trials></MIDI>