<MIDI midiNo="2022_09_29-13_08_34"><target_notes><notes name="Note List">[{"pitch": 42, "velocity": 80, "note_on_time": 0.004, "note_off_time": 0.294}, {"pitch": 42, "velocity": 80, "note_on_time": 0.294, "note_off_time": 0.589}, {"pitch": 42, "velocity": 80, "note_on_time": 0.589, "note_off_time": 0.885}, {"pitch": 42, "velocity": 80, "note_on_time": 0.885, "note_off_time": 1.167}, {"pitch": 42, "velocity": 80, "note_on_time": 1.167, "note_off_time": 1.449}, {"pitch": 62, "velocity": 80, "note_on_time": 1.167, "note_off_time": 1.743}, {"pitch": 42, "velocity": 80, "note_on_time": 1.449, "note_off_time": 1.743}, {"pitch": 42, "velocity": 80, "note_on_time": 1.743, "note_off_time": 2.024}, {"pitch": 62, "velocity": 80, "note_on_time": 2.024, "note_off_time": 2.319}, {"pitch": 42, "velocity": 80, "note_on_time": 2.025, "note_off_time": 2.319}, {"pitch": 62, "velocity": 80, "note_on_time": 2.319, "note_off_time": 2.614}, {"pitch": 42, "velocity": 80, "note_on_time": 2.319, "note_off_time": 2.614}, {"pitch": 42, "velocity": 80, "note_on_time": 2.614, "note_off_time": 2.91}, {"pitch": 42, "velocity": 80, "note_on_time": 2.91, "note_off_time": 3.206}, {"pitch": 64, "velocity": 80, "note_on_time": 2.909, "note_off_time": 3.499}, {"pitch": 42, "velocity": 80, "note_on_time": 3.206, "note_off_time": 3.499}, {"pitch": 60, "velocity": 80, "note_on_time": 3.499, "note_off_time": 3.782}, {"pitch": 42, "velocity": 80, "note_on_time": 3.5, "note_off_time": 3.782}, {"pitch": 60, "velocity": 80, "note_on_time": 3.782, "note_off_time": 4.076}, {"pitch": 42, "velocity": 80, "note_on_time": 3.782, "note_off_time": 4.077}, {"pitch": 60, "velocity": 80, "note_on_time": 4.076, "note_off_time": 4.37}, {"pitch": 42, "velocity": 80, "note_on_time": 4.077, "note_off_time": 4.37}, {"pitch": 60, "velocity": 80, "note_on_time": 4.37, "note_off_time": 4.652}, {"pitch": 42, "velocity": 80, "note_on_time": 4.37, "note_off_time": 4.652}, {"pitch": 42, "velocity": 80, "note_on_time": 4.652, "note_off_time": 4.948}, {"pitch": 64, "velocity": 80, "note_on_time": 4.652, "note_off_time": 5.228}, {"pitch": 42, "velocity": 80, "note_on_time": 4.948, "note_off_time": 5.228}, {"pitch": 42, "velocity": 80, "note_on_time": 5.228, "note_off_time": 5.521}, {"pitch": 42, "velocity": 80, "note_on_time": 5.522, "note_off_time": 5.818}, {"pitch": 42, "velocity": 80, "note_on_time": 5.818, "note_off_time": 6.114}, {"pitch": 60, "velocity": 80, "note_on_time": 5.817, "note_off_time": 6.408}, {"pitch": 42, "velocity": 80, "note_on_time": 6.114, "note_off_time": 6.408}, {"pitch": 64, "velocity": 80, "note_on_time": 6.408, "note_off_time": 6.705}, {"pitch": 42, "velocity": 80, "note_on_time": 6.408, "note_off_time": 6.705}, {"pitch": 62, "velocity": 80, "note_on_time": 6.705, "note_off_time": 7.0}, {"pitch": 42, "velocity": 80, "note_on_time": 6.705, "note_off_time": 7.0}, {"pitch": 62, "velocity": 80, "note_on_time": 7.0, "note_off_time": 7.294}, {"pitch": 42, "velocity": 80, "note_on_time": 7.0, "note_off_time": 7.294}, {"pitch": 62, "velocity": 80, "note_on_time": 7.294, "note_off_time": 7.59}, {"pitch": 42, "velocity": 80, "note_on_time": 7.294, "note_off_time": 7.59}, {"pitch": 62, "velocity": 80, "note_on_time": 7.59, "note_off_time": 7.884}, {"pitch": 42, "velocity": 80, "note_on_time": 7.59, "note_off_time": 7.885}, {"pitch": 60, "velocity": 80, "note_on_time": 7.884, "note_off_time": 8.18}, {"pitch": 42, "velocity": 80, "note_on_time": 7.885, "note_off_time": 8.18}, {"pitch": 60, "velocity": 80, "note_on_time": 8.18, "note_off_time": 8.461}, {"pitch": 42, "velocity": 80, "note_on_time": 8.18, "note_off_time": 8.461}, {"pitch": 62, "velocity": 80, "note_on_time": 8.461, "note_off_time": 8.743}, {"pitch": 42, "velocity": 80, "note_on_time": 8.461, "note_off_time": 8.743}, {"pitch": 60, "velocity": 80, "note_on_time": 8.743, "note_off_time": 9.037}, {"pitch": 42, "velocity": 80, "note_on_time": 8.744, "note_off_time": 9.037}, {"pitch": 62, "velocity": 80, "note_on_time": 9.037, "note_off_time": 9.332}, {"pitch": 42, "velocity": 80, "note_on_time": 9.037, "note_off_time": 9.333}, {"pitch": 42, "velocity": 80, "note_on_time": 9.333, "note_off_time": 9.615}, {"pitch": 62, "velocity": 80, "note_on_time": 9.615, "note_off_time": 9.897}, {"pitch": 42, "velocity": 80, "note_on_time": 9.615, "note_off_time": 9.897}, {"pitch": 62, "velocity": 80, "note_on_time": 9.897, "note_off_time": 10.192}, {"pitch": 42, "velocity": 80, "note_on_time": 9.898, "note_off_time": 10.192}, {"pitch": 62, "velocity": 80, "note_on_time": 10.192, "note_off_time": 10.473}, {"pitch": 42, "velocity": 80, "note_on_time": 10.192, "note_off_time": 10.473}]</notes><options name="Option List">((4, 4), [0.5, 0.25], 3, 8, &lt;NoteRangePerHand.THREE_NOTES: 4&gt;, &lt;NoteRangePerHand.ONE_NOTE: 2&gt;, False, True, False, 215)</options></target_notes><trials><trial trial_no="1" timestamp="2022_09_29-13_08_22"><notes name="Played Notes">[{"pitch": 62, "velocity": 94, "note_on_time": 1.187, "note_off_time": 2.037}, {"pitch": 62, "velocity": 93, "note_on_time": 2.319, "note_off_time": 2.454}, {"pitch": 62, "velocity": 94, "note_on_time": 2.609, "note_off_time": 2.747}, {"pitch": 64, "velocity": 94, "note_on_time": 2.916, "note_off_time": 3.338}, {"pitch": 60, "velocity": 95, "note_on_time": 3.464, "note_off_time": 3.592}, {"pitch": 60, "velocity": 97, "note_on_time": 3.773, "note_off_time": 3.904}, {"pitch": 60, "velocity": 100, "note_on_time": 4.079, "note_off_time": 4.222}, {"pitch": 60, "velocity": 89, "note_on_time": 4.333, "note_off_time": 4.473}, {"pitch": 64, "velocity": 94, "note_on_time": 4.665, "note_off_time": 5.114}, {"pitch": 60, "velocity": 93, "note_on_time": 5.245, "note_off_time": 5.629}, {"pitch": 64, "velocity": 88, "note_on_time": 5.69, "note_off_time": 5.893}, {"pitch": 62, "velocity": 69, "note_on_time": 5.976, "note_off_time": 6.112}, {"pitch": 62, "velocity": 69, "note_on_time": 6.326, "note_off_time": 6.437}, {"pitch": 62, "velocity": 68, "note_on_time": 6.617, "note_off_time": 6.803}, {"pitch": 60, "velocity": 90, "note_on_time": 6.953, "note_off_time": 7.178}, {"pitch": 60, "velocity": 85, "note_on_time": 7.268, "note_off_time": 7.432}, {"pitch": 64, "velocity": 87, "note_on_time": 7.592, "note_off_time": 7.753}, {"pitch": 62, "velocity": 77, "note_on_time": 7.867, "note_off_time": 8.014}, {"pitch": 60, "velocity": 80, "note_on_time": 8.173, "note_off_time": 8.283}, {"pitch": 62, "velocity": 70, "note_on_time": 8.485, "note_off_time": 8.603}, {"pitch": 62, "velocity": 90, "note_on_time": 9.024, "note_off_time": 9.122}, {"pitch": 62, "velocity": 91, "note_on_time": 9.306, "note_off_time": 9.411}, {"pitch": 62, "velocity": 95, "note_on_time": 9.594, "note_off_time": 9.769}]</notes><guidance name="Guidance Mode">None</guidance><error name="Error value">0.18368964999999993</error></trial><trial trial_no="2" timestamp="2022_09_29-13_08_48"><notes name="Played Notes">[{"pitch": 62, "velocity": 98, "note_on_time": 1.105, "note_off_time": 1.857}, {"pitch": 62, "velocity": 89, "note_on_time": 2.024, "note_off_time": 2.149}, {"pitch": 62, "velocity": 96, "note_on_time": 2.326, "note_off_time": 2.512}, {"pitch": 64, "velocity": 85, "note_on_time": 2.712, "note_off_time": 2.842}, {"pitch": 60, "velocity": 90, "note_on_time": 2.913, "note_off_time": 3.057}, {"pitch": 60, "velocity": 89, "note_on_time": 3.202, "note_off_time": 3.329}, {"pitch": 60, "velocity": 88, "note_on_time": 3.482, "note_off_time": 3.604}, {"pitch": 60, "velocity": 66, "note_on_time": 3.796, "note_off_time": 3.874}, {"pitch": 64, "velocity": 74, "note_on_time": 4.074, "note_off_time": 4.52}, {"pitch": 60, "velocity": 95, "note_on_time": 4.666, "note_off_time": 5.196}, {"pitch": 64, "velocity": 83, "note_on_time": 5.249, "note_off_time": 5.457}, {"pitch": 62, "velocity": 75, "note_on_time": 5.528, "note_off_time": 5.705}, {"pitch": 62, "velocity": 85, "note_on_time": 5.831, "note_off_time": 5.951}, {"pitch": 62, "velocity": 88, "note_on_time": 6.133, "note_off_time": 6.243}, {"pitch": 62, "velocity": 88, "note_on_time": 6.431, "note_off_time": 6.568}, {"pitch": 60, "velocity": 89, "note_on_time": 6.726, "note_off_time": 6.86}, {"pitch": 60, "velocity": 89, "note_on_time": 7.029, "note_off_time": 7.141}, {"pitch": 64, "velocity": 36, "note_on_time": 7.406, "note_off_time": 7.514}, {"pitch": 62, "velocity": 82, "note_on_time": 7.65, "note_off_time": 7.741}, {"pitch": 60, "velocity": 90, "note_on_time": 7.96, "note_off_time": 8.085}, {"pitch": 62, "velocity": 82, "note_on_time": 8.208, "note_off_time": 8.371}, {"pitch": 62, "velocity": 90, "note_on_time": 8.763, "note_off_time": 8.857}, {"pitch": 62, "velocity": 89, "note_on_time": 9.044, "note_off_time": 9.14}, {"pitch": 62, "velocity": 100, "note_on_time": 9.338, "note_off_time": 9.482}]</notes><guidance name="Guidance Mode">None</guidance><error name="Error value">0.24598275000000053</error></trial><trial trial_no="3" timestamp="2022_09_29-13_09_15"><notes name="Played Notes">[{"pitch": 62, "velocity": 93, "note_on_time": 1.167, "note_off_time": 2.087}, {"pitch": 62, "velocity": 94, "note_on_time": 2.299, "note_off_time": 2.421}, {"pitch": 62, "velocity": 90, "note_on_time": 2.59, "note_off_time": 2.752}, {"pitch": 64, "velocity": 90, "note_on_time": 3.175, "note_off_time": 3.599}, {"pitch": 60, "velocity": 93, "note_on_time": 3.634, "note_off_time": 3.75}, {"pitch": 60, "velocity": 92, "note_on_time": 3.909, "note_off_time": 4.05}, {"pitch": 60, "velocity": 85, "note_on_time": 4.257, "note_off_time": 4.423}, {"pitch": 64, "velocity": 77, "note_on_time": 4.597, "note_off_time": 5.232}, {"pitch": 60, "velocity": 99, "note_on_time": 5.833, "note_off_time": 6.259}, {"pitch": 64, "velocity": 86, "note_on_time": 6.365, "note_off_time": 6.584}, {"pitch": 62, "velocity": 83, "note_on_time": 6.645, "note_off_time": 6.816}, {"pitch": 62, "velocity": 90, "note_on_time": 6.948, "note_off_time": 7.075}, {"pitch": 62, "velocity": 88, "note_on_time": 7.233, "note_off_time": 7.359}, {"pitch": 60, "velocity": 93, "note_on_time": 7.544, "note_off_time": 7.684}, {"pitch": 60, "velocity": 89, "note_on_time": 7.866, "note_off_time": 7.974}, {"pitch": 62, "velocity": 79, "note_on_time": 8.141, "note_off_time": 8.317}, {"pitch": 60, "velocity": 88, "note_on_time": 8.413, "note_off_time": 8.583}, {"pitch": 62, "velocity": 91, "note_on_time": 8.744, "note_off_time": 9.272}, {"pitch": 60, "velocity": 67, "note_on_time": 9.874, "note_off_time": 9.956}, {"pitch": 62, "velocity": 88, "note_on_time": 10.173, "note_off_time": 10.263}]</notes><guidance name="Guidance Mode">None</guidance><error name="Error value">0.28342585</error></trial></trials></MIDI>