<MIDI midiNo="2022_11_21-19_01_53"><target_notes><notes name="Note List">[{"pitch": 42, "velocity": 80, "note_on_time": 0.004, "note_off_time": 0.38}, {"pitch": 42, "velocity": 80, "note_on_time": 0.381, "note_off_time": 0.755}, {"pitch": 42, "velocity": 80, "note_on_time": 0.755, "note_off_time": 1.13}, {"pitch": 42, "velocity": 80, "note_on_time": 1.131, "note_off_time": 1.504}, {"pitch": 62, "velocity": 80, "note_on_time": 1.504, "note_off_time": 1.879}, {"pitch": 42, "velocity": 80, "note_on_time": 1.505, "note_off_time": 1.879}, {"pitch": 60, "velocity": 80, "note_on_time": 1.879, "note_off_time": 2.251}, {"pitch": 42, "velocity": 80, "note_on_time": 1.879, "note_off_time": 2.251}, {"pitch": 60, "velocity": 80, "note_on_time": 2.251, "note_off_time": 2.623}, {"pitch": 42, "velocity": 80, "note_on_time": 2.251, "note_off_time": 2.623}, {"pitch": 64, "velocity": 80, "note_on_time": 2.623, "note_off_time": 2.999}, {"pitch": 42, "velocity": 80, "note_on_time": 2.623, "note_off_time": 2.999}, {"pitch": 64, "velocity": 80, "note_on_time": 2.999, "note_off_time": 3.371}, {"pitch": 42, "velocity": 80, "note_on_time": 2.999, "note_off_time": 3.372}, {"pitch": 62, "velocity": 80, "note_on_time": 3.371, "note_off_time": 3.745}, {"pitch": 42, "velocity": 80, "note_on_time": 3.372, "note_off_time": 3.745}, {"pitch": 60, "velocity": 80, "note_on_time": 3.745, "note_off_time": 4.117}, {"pitch": 42, "velocity": 80, "note_on_time": 3.745, "note_off_time": 4.117}, {"pitch": 64, "velocity": 80, "note_on_time": 4.117, "note_off_time": 4.492}, {"pitch": 42, "velocity": 80, "note_on_time": 4.118, "note_off_time": 4.492}, {"pitch": 64, "velocity": 80, "note_on_time": 4.492, "note_off_time": 4.865}, {"pitch": 42, "velocity": 80, "note_on_time": 4.493, "note_off_time": 4.866}, {"pitch": 64, "velocity": 80, "note_on_time": 4.865, "note_off_time": 5.24}, {"pitch": 42, "velocity": 80, "note_on_time": 4.866, "note_off_time": 5.24}, {"pitch": 64, "velocity": 80, "note_on_time": 5.24, "note_off_time": 5.616}, {"pitch": 42, "velocity": 80, "note_on_time": 5.24, "note_off_time": 5.616}, {"pitch": 62, "velocity": 80, "note_on_time": 5.616, "note_off_time": 5.99}, {"pitch": 42, "velocity": 80, "note_on_time": 5.617, "note_off_time": 5.991}, {"pitch": 60, "velocity": 80, "note_on_time": 5.99, "note_off_time": 6.365}, {"pitch": 42, "velocity": 80, "note_on_time": 5.991, "note_off_time": 6.365}, {"pitch": 62, "velocity": 80, "note_on_time": 6.365, "note_off_time": 6.74}, {"pitch": 42, "velocity": 80, "note_on_time": 6.365, "note_off_time": 6.74}, {"pitch": 42, "velocity": 80, "note_on_time": 6.74, "note_off_time": 7.114}, {"pitch": 62, "velocity": 80, "note_on_time": 7.114, "note_off_time": 7.487}, {"pitch": 42, "velocity": 80, "note_on_time": 7.114, "note_off_time": 7.488}, {"pitch": 42, "velocity": 80, "note_on_time": 7.488, "note_off_time": 7.861}, {"pitch": 60, "velocity": 80, "note_on_time": 7.487, "note_off_time": 8.237}, {"pitch": 42, "velocity": 80, "note_on_time": 7.861, "note_off_time": 8.237}, {"pitch": 42, "velocity": 80, "note_on_time": 8.237, "note_off_time": 8.61}, {"pitch": 64, "velocity": 80, "note_on_time": 8.61, "note_off_time": 8.983}, {"pitch": 42, "velocity": 80, "note_on_time": 8.61, "note_off_time": 8.983}, {"pitch": 62, "velocity": 80, "note_on_time": 8.983, "note_off_time": 9.355}, {"pitch": 42, "velocity": 80, "note_on_time": 8.984, "note_off_time": 9.355}, {"pitch": 60, "velocity": 80, "note_on_time": 9.355, "note_off_time": 9.728}, {"pitch": 42, "velocity": 80, "note_on_time": 9.355, "note_off_time": 9.729}, {"pitch": 60, "velocity": 80, "note_on_time": 9.728, "note_off_time": 10.101}, {"pitch": 42, "velocity": 80, "note_on_time": 9.729, "note_off_time": 10.101}, {"pitch": 60, "velocity": 80, "note_on_time": 10.101, "note_off_time": 10.475}, {"pitch": 42, "velocity": 80, "note_on_time": 10.101, "note_off_time": 10.475}, {"pitch": 62, "velocity": 80, "note_on_time": 10.475, "note_off_time": 10.848}, {"pitch": 42, "velocity": 80, "note_on_time": 10.475, "note_off_time": 10.848}, {"pitch": 62, "velocity": 80, "note_on_time": 10.848, "note_off_time": 11.221}, {"pitch": 42, "velocity": 80, "note_on_time": 10.849, "note_off_time": 11.221}, {"pitch": 62, "velocity": 80, "note_on_time": 11.221, "note_off_time": 11.594}, {"pitch": 42, "velocity": 80, "note_on_time": 11.221, "note_off_time": 11.594}, {"pitch": 42, "velocity": 80, "note_on_time": 11.595, "note_off_time": 11.97}, {"pitch": 42, "velocity": 80, "note_on_time": 11.97, "note_off_time": 12.342}, {"pitch": 62, "velocity": 80, "note_on_time": 12.342, "note_off_time": 12.716}, {"pitch": 42, "velocity": 80, "note_on_time": 12.342, "note_off_time": 12.717}, {"pitch": 62, "velocity": 80, "note_on_time": 12.716, "note_off_time": 13.092}, {"pitch": 42, "velocity": 80, "note_on_time": 12.717, "note_off_time": 13.092}, {"pitch": 62, "velocity": 80, "note_on_time": 13.092, "note_off_time": 13.469}, {"pitch": 42, "velocity": 80, "note_on_time": 13.092, "note_off_time": 13.469}]</notes><options name="Option List">((4, 4), [0.5, 0.25], 3, 8, &lt;NoteRangePerHand.THREE_NOTES: 4&gt;, &lt;NoteRangePerHand.ONE_NOTE: 2&gt;, False, True, False, '166')</options></target_notes><trials><trial trial_no="1" timestamp="2022_11_21-19_01_34"><notes name="Played Notes">[{"pitch": 62, "velocity": 77, "note_on_time": 1.56, "note_off_time": 1.796}, {"pitch": 60, "velocity": 77, "note_on_time": 1.852, "note_off_time": 2.035}, {"pitch": 60, "velocity": 84, "note_on_time": 2.205, "note_off_time": 2.617}, {"pitch": 64, "velocity": 73, "note_on_time": 2.55, "note_off_time": 2.752}, {"pitch": 64, "velocity": 78, "note_on_time": 2.9, "note_off_time": 3.29}, {"pitch": 62, "velocity": 74, "note_on_time": 3.244, "note_off_time": 3.536}, {"pitch": 60, "velocity": 75, "note_on_time": 3.546, "note_off_time": 3.996}, {"pitch": 64, "velocity": 75, "note_on_time": 3.913, "note_off_time": 4.087}, {"pitch": 64, "velocity": 61, "note_on_time": 4.23, "note_off_time": 4.39}, {"pitch": 64, "velocity": 79, "note_on_time": 4.54, "note_off_time": 4.709}, {"pitch": 64, "velocity": 79, "note_on_time": 4.872, "note_off_time": 5.118}, {"pitch": 62, "velocity": 75, "note_on_time": 5.199, "note_off_time": 5.364}, {"pitch": 60, "velocity": 78, "note_on_time": 5.545, "note_off_time": 5.715}, {"pitch": 62, "velocity": 74, "note_on_time": 5.908, "note_off_time": 6.107}, {"pitch": 62, "velocity": 68, "note_on_time": 6.658, "note_off_time": 6.984}, {"pitch": 60, "velocity": 74, "note_on_time": 7.145, "note_off_time": 7.804}, {"pitch": 64, "velocity": 80, "note_on_time": 8.266, "note_off_time": 8.668}, {"pitch": 62, "velocity": 59, "note_on_time": 8.714, "note_off_time": 9.013}, {"pitch": 60, "velocity": 34, "note_on_time": 9.277, "note_off_time": 9.459}, {"pitch": 60, "velocity": 74, "note_on_time": 9.619, "note_off_time": 9.784}, {"pitch": 60, "velocity": 70, "note_on_time": 9.98, "note_off_time": 10.212}, {"pitch": 62, "velocity": 53, "note_on_time": 10.432, "note_off_time": 10.634}, {"pitch": 62, "velocity": 63, "note_on_time": 10.806, "note_off_time": 10.974}, {"pitch": 62, "velocity": 71, "note_on_time": 11.202, "note_off_time": 11.42}, {"pitch": 62, "velocity": 72, "note_on_time": 12.106, "note_off_time": 12.241}, {"pitch": 62, "velocity": 66, "note_on_time": 12.467, "note_off_time": 12.644}, {"pitch": 62, "velocity": 58, "note_on_time": 12.85, "note_off_time": 13.347}]</notes><guidance name="Guidance Mode">None</guidance><error name="Error value">0.05009729166666646</error></trial><trial trial_no="2" timestamp="2022_11_21-19_02_09"><notes name="Played Notes">[{"pitch": 62, "velocity": 81, "note_on_time": 1.527, "note_off_time": 1.9}, {"pitch": 60, "velocity": 72, "note_on_time": 1.867, "note_off_time": 2.007}, {"pitch": 60, "velocity": 83, "note_on_time": 2.222, "note_off_time": 2.59}, {"pitch": 64, "velocity": 77, "note_on_time": 2.59, "note_off_time": 2.746}, {"pitch": 64, "velocity": 84, "note_on_time": 2.951, "note_off_time": 3.355}, {"pitch": 62, "velocity": 68, "note_on_time": 3.29, "note_off_time": 3.66}, {"pitch": 60, "velocity": 87, "note_on_time": 3.66, "note_off_time": 4.064}, {"pitch": 64, "velocity": 77, "note_on_time": 4.075, "note_off_time": 4.286}, {"pitch": 64, "velocity": 74, "note_on_time": 4.43, "note_off_time": 4.583}, {"pitch": 64, "velocity": 72, "note_on_time": 4.816, "note_off_time": 4.966}, {"pitch": 64, "velocity": 79, "note_on_time": 5.179, "note_off_time": 5.365}, {"pitch": 62, "velocity": 73, "note_on_time": 5.569, "note_off_time": 5.745}, {"pitch": 60, "velocity": 78, "note_on_time": 5.945, "note_off_time": 6.126}, {"pitch": 62, "velocity": 59, "note_on_time": 6.344, "note_off_time": 6.545}, {"pitch": 62, "velocity": 80, "note_on_time": 7.139, "note_off_time": 7.345}, {"pitch": 61, "velocity": 24, "note_on_time": 7.595, "note_off_time": 7.643}, {"pitch": 60, "velocity": 76, "note_on_time": 7.609, "note_off_time": 7.797}, {"pitch": 60, "velocity": 1, "note_on_time": 8.05, "note_off_time": 8.62}, {"pitch": 64, "velocity": 76, "note_on_time": 9.191, "note_off_time": 9.581}, {"pitch": 62, "velocity": 61, "note_on_time": 9.687, "note_off_time": 9.817}, {"pitch": 60, "velocity": 74, "note_on_time": 10.072, "note_off_time": 10.232}, {"pitch": 60, "velocity": 77, "note_on_time": 10.441, "note_off_time": 10.585}, {"pitch": 60, "velocity": 77, "note_on_time": 10.825, "note_off_time": 11.032}, {"pitch": 62, "velocity": 70, "note_on_time": 11.211, "note_off_time": 11.361}, {"pitch": 62, "velocity": 64, "note_on_time": 11.622, "note_off_time": 11.751}, {"pitch": 62, "velocity": 77, "note_on_time": 11.995, "note_off_time": 12.141}, {"pitch": 62, "velocity": 72, "note_on_time": 13.108, "note_off_time": 13.273}]</notes><guidance name="Guidance Mode">None</guidance><error name="Error value">1.048347083333332</error></trial><trial trial_no="3" timestamp="2022_11_21-19_02_40"><notes name="Played Notes">[{"pitch": 62, "velocity": 72, "note_on_time": 1.512, "note_off_time": 1.765}, {"pitch": 60, "velocity": 79, "note_on_time": 1.858, "note_off_time": 2.039}, {"pitch": 60, "velocity": 79, "note_on_time": 2.243, "note_off_time": 2.502}, {"pitch": 64, "velocity": 73, "note_on_time": 2.623, "note_off_time": 2.834}, {"pitch": 64, "velocity": 68, "note_on_time": 3.001, "note_off_time": 3.205}, {"pitch": 62, "velocity": 68, "note_on_time": 3.429, "note_off_time": 3.638}, {"pitch": 60, "velocity": 71, "note_on_time": 3.778, "note_off_time": 4.006}, {"pitch": 64, "velocity": 71, "note_on_time": 4.152, "note_off_time": 4.331}, {"pitch": 64, "velocity": 64, "note_on_time": 4.54, "note_off_time": 4.691}, {"pitch": 64, "velocity": 67, "note_on_time": 4.911, "note_off_time": 5.079}, {"pitch": 64, "velocity": 62, "note_on_time": 5.249, "note_off_time": 5.454}, {"pitch": 62, "velocity": 62, "note_on_time": 5.66, "note_off_time": 5.833}, {"pitch": 60, "velocity": 70, "note_on_time": 5.999, "note_off_time": 6.18}, {"pitch": 62, "velocity": 67, "note_on_time": 6.389, "note_off_time": 6.508}, {"pitch": 60, "velocity": 72, "note_on_time": 7.203, "note_off_time": 7.36}, {"pitch": 62, "velocity": 59, "note_on_time": 7.898, "note_off_time": 8.144}, {"pitch": 60, "velocity": 77, "note_on_time": 8.224, "note_off_time": 8.479}, {"pitch": 64, "velocity": 65, "note_on_time": 9.148, "note_off_time": 9.499}, {"pitch": 62, "velocity": 64, "note_on_time": 9.594, "note_off_time": 9.776}, {"pitch": 60, "velocity": 75, "note_on_time": 9.947, "note_off_time": 10.123}, {"pitch": 60, "velocity": 74, "note_on_time": 10.331, "note_off_time": 10.477}, {"pitch": 60, "velocity": 78, "note_on_time": 10.697, "note_off_time": 10.887}, {"pitch": 62, "velocity": 66, "note_on_time": 11.083, "note_off_time": 11.259}, {"pitch": 62, "velocity": 64, "note_on_time": 11.479, "note_off_time": 11.619}, {"pitch": 62, "velocity": 72, "note_on_time": 11.872, "note_off_time": 12.05}, {"pitch": 64, "velocity": 74, "note_on_time": 12.808, "note_off_time": 12.954}, {"pitch": 64, "velocity": 69, "note_on_time": 13.186, "note_off_time": 13.337}]</notes><guidance name="Guidance Mode">None</guidance><error name="Error value">0.4805414583333334</error></trial></trials></MIDI>