<MIDI midiNo="2022_12_08-12_40_39"><target_notes><notes name="Note List">[{"pitch": 42, "velocity": 80, "note_on_time": 0.004, "note_off_time": 0.219}, {"pitch": 42, "velocity": 80, "note_on_time": 0.219, "note_off_time": 0.437}, {"pitch": 42, "velocity": 80, "note_on_time": 0.437, "note_off_time": 0.656}, {"pitch": 42, "velocity": 80, "note_on_time": 0.656, "note_off_time": 0.874}, {"pitch": 64, "velocity": 80, "note_on_time": 0.874, "note_off_time": 1.094}, {"pitch": 42, "velocity": 80, "note_on_time": 0.874, "note_off_time": 1.094}, {"pitch": 67, "velocity": 80, "note_on_time": 1.094, "note_off_time": 1.314}, {"pitch": 42, "velocity": 80, "note_on_time": 1.094, "note_off_time": 1.315}, {"pitch": 64, "velocity": 80, "note_on_time": 1.315, "note_off_time": 1.533}, {"pitch": 42, "velocity": 80, "note_on_time": 1.315, "note_off_time": 1.533}, {"pitch": 67, "velocity": 80, "note_on_time": 1.533, "note_off_time": 1.753}, {"pitch": 42, "velocity": 80, "note_on_time": 1.533, "note_off_time": 1.753}, {"pitch": 62, "velocity": 80, "note_on_time": 1.753, "note_off_time": 1.971}, {"pitch": 42, "velocity": 80, "note_on_time": 1.753, "note_off_time": 1.971}, {"pitch": 67, "velocity": 80, "note_on_time": 1.971, "note_off_time": 2.191}, {"pitch": 42, "velocity": 80, "note_on_time": 1.971, "note_off_time": 2.191}, {"pitch": 67, "velocity": 80, "note_on_time": 2.191, "note_off_time": 2.411}, {"pitch": 42, "velocity": 80, "note_on_time": 2.191, "note_off_time": 2.411}, {"pitch": 64, "velocity": 80, "note_on_time": 2.411, "note_off_time": 2.628}, {"pitch": 42, "velocity": 80, "note_on_time": 2.411, "note_off_time": 2.628}, {"pitch": 60, "velocity": 80, "note_on_time": 2.628, "note_off_time": 2.847}, {"pitch": 42, "velocity": 80, "note_on_time": 2.628, "note_off_time": 2.847}, {"pitch": 62, "velocity": 80, "note_on_time": 2.847, "note_off_time": 3.065}, {"pitch": 42, "velocity": 80, "note_on_time": 2.847, "note_off_time": 3.065}, {"pitch": 60, "velocity": 80, "note_on_time": 3.065, "note_off_time": 3.282}, {"pitch": 42, "velocity": 80, "note_on_time": 3.065, "note_off_time": 3.282}, {"pitch": 65, "velocity": 80, "note_on_time": 3.282, "note_off_time": 3.501}, {"pitch": 42, "velocity": 80, "note_on_time": 3.282, "note_off_time": 3.501}, {"pitch": 65, "velocity": 80, "note_on_time": 3.501, "note_off_time": 3.718}, {"pitch": 42, "velocity": 80, "note_on_time": 3.501, "note_off_time": 3.718}, {"pitch": 42, "velocity": 80, "note_on_time": 3.718, "note_off_time": 3.938}, {"pitch": 62, "velocity": 80, "note_on_time": 3.718, "note_off_time": 4.157}, {"pitch": 42, "velocity": 80, "note_on_time": 3.938, "note_off_time": 4.157}, {"pitch": 42, "velocity": 80, "note_on_time": 4.157, "note_off_time": 4.375}, {"pitch": 62, "velocity": 80, "note_on_time": 4.375, "note_off_time": 4.594}, {"pitch": 42, "velocity": 80, "note_on_time": 4.375, "note_off_time": 4.594}, {"pitch": 65, "velocity": 80, "note_on_time": 4.594, "note_off_time": 4.813}, {"pitch": 42, "velocity": 80, "note_on_time": 4.594, "note_off_time": 4.813}, {"pitch": 60, "velocity": 80, "note_on_time": 4.813, "note_off_time": 5.03}, {"pitch": 42, "velocity": 80, "note_on_time": 4.813, "note_off_time": 5.03}, {"pitch": 62, "velocity": 80, "note_on_time": 5.03, "note_off_time": 5.249}, {"pitch": 42, "velocity": 80, "note_on_time": 5.03, "note_off_time": 5.249}, {"pitch": 42, "velocity": 80, "note_on_time": 5.249, "note_off_time": 5.468}, {"pitch": 67, "velocity": 80, "note_on_time": 5.249, "note_off_time": 5.688}, {"pitch": 42, "velocity": 80, "note_on_time": 5.468, "note_off_time": 5.688}, {"pitch": 42, "velocity": 80, "note_on_time": 5.688, "note_off_time": 5.906}, {"pitch": 67, "velocity": 80, "note_on_time": 5.906, "note_off_time": 6.123}, {"pitch": 42, "velocity": 80, "note_on_time": 5.906, "note_off_time": 6.123}, {"pitch": 65, "velocity": 80, "note_on_time": 6.123, "note_off_time": 6.343}, {"pitch": 42, "velocity": 80, "note_on_time": 6.124, "note_off_time": 6.343}, {"pitch": 60, "velocity": 80, "note_on_time": 6.343, "note_off_time": 6.561}, {"pitch": 42, "velocity": 80, "note_on_time": 6.343, "note_off_time": 6.561}, {"pitch": 67, "velocity": 80, "note_on_time": 6.561, "note_off_time": 6.778}, {"pitch": 42, "velocity": 80, "note_on_time": 6.561, "note_off_time": 6.778}, {"pitch": 64, "velocity": 80, "note_on_time": 6.778, "note_off_time": 6.996}, {"pitch": 42, "velocity": 80, "note_on_time": 6.778, "note_off_time": 6.996}, {"pitch": 42, "velocity": 80, "note_on_time": 6.996, "note_off_time": 7.212}, {"pitch": 64, "velocity": 80, "note_on_time": 7.212, "note_off_time": 7.432}, {"pitch": 42, "velocity": 80, "note_on_time": 7.212, "note_off_time": 7.432}, {"pitch": 64, "velocity": 80, "note_on_time": 7.432, "note_off_time": 7.651}, {"pitch": 42, "velocity": 80, "note_on_time": 7.432, "note_off_time": 7.651}, {"pitch": 64, "velocity": 80, "note_on_time": 7.651, "note_off_time": 7.868}, {"pitch": 42, "velocity": 80, "note_on_time": 7.651, "note_off_time": 7.868}]</notes><options name="Option List">((4, 4), [0.5, 0.25], 3, 8, &lt;NoteRangePerHand.C_TO_G: 6&gt;, &lt;NoteRangePerHand.ONE_NOTE: 2&gt;, False, True, False, '281')</options></target_notes><trials><trial trial_no="1" timestamp="2022_12_08-12_40_30"><notes name="Played Notes">[{"pitch": 64, "velocity": 68, "note_on_time": 0.909, "note_off_time": 1.063}, {"pitch": 67, "velocity": 64, "note_on_time": 1.11, "note_off_time": 1.342}, {"pitch": 64, "velocity": 64, "note_on_time": 1.343, "note_off_time": 1.549}, {"pitch": 67, "velocity": 65, "note_on_time": 1.563, "note_off_time": 1.792}, {"pitch": 62, "velocity": 64, "note_on_time": 1.787, "note_off_time": 2.019}, {"pitch": 67, "velocity": 70, "note_on_time": 2.023, "note_off_time": 2.109}, {"pitch": 67, "velocity": 78, "note_on_time": 2.248, "note_off_time": 2.466}, {"pitch": 64, "velocity": 65, "note_on_time": 2.467, "note_off_time": 2.657}, {"pitch": 60, "velocity": 71, "note_on_time": 2.679, "note_off_time": 2.897}, {"pitch": 62, "velocity": 60, "note_on_time": 2.911, "note_off_time": 3.108}, {"pitch": 60, "velocity": 62, "note_on_time": 3.124, "note_off_time": 3.337}, {"pitch": 65, "velocity": 76, "note_on_time": 3.336, "note_off_time": 3.414}, {"pitch": 65, "velocity": 72, "note_on_time": 3.542, "note_off_time": 3.742}, {"pitch": 62, "velocity": 67, "note_on_time": 3.758, "note_off_time": 4.165}, {"pitch": 62, "velocity": 68, "note_on_time": 4.387, "note_off_time": 4.589}, {"pitch": 65, "velocity": 56, "note_on_time": 4.613, "note_off_time": 4.794}, {"pitch": 60, "velocity": 58, "note_on_time": 4.836, "note_off_time": 4.993}, {"pitch": 62, "velocity": 72, "note_on_time": 5.035, "note_off_time": 5.258}, {"pitch": 67, "velocity": 77, "note_on_time": 5.258, "note_off_time": 5.671}, {"pitch": 67, "velocity": 73, "note_on_time": 5.889, "note_off_time": 6.123}, {"pitch": 65, "velocity": 63, "note_on_time": 6.115, "note_off_time": 6.335}, {"pitch": 60, "velocity": 68, "note_on_time": 6.345, "note_off_time": 6.567}, {"pitch": 67, "velocity": 66, "note_on_time": 6.568, "note_off_time": 6.802}, {"pitch": 64, "velocity": 64, "note_on_time": 6.794, "note_off_time": 7.076}, {"pitch": 64, "velocity": 71, "note_on_time": 7.233, "note_off_time": 7.317}, {"pitch": 64, "velocity": 72, "note_on_time": 7.465, "note_off_time": 7.552}, {"pitch": 64, "velocity": 68, "note_on_time": 7.678, "note_off_time": 7.848}]</notes><guidance name="Guidance Mode">None</guidance><error name="Error value">0.011224374999999967</error></trial><trial trial_no="2" timestamp="2022_12_08-12_40_45"><notes name="Played Notes">[{"pitch": 64, "velocity": 77, "note_on_time": 0.893, "note_off_time": 1.056}, {"pitch": 67, "velocity": 59, "note_on_time": 1.101, "note_off_time": 1.332}, {"pitch": 64, "velocity": 60, "note_on_time": 1.333, "note_off_time": 1.544}, {"pitch": 67, "velocity": 69, "note_on_time": 1.55, "note_off_time": 1.786}, {"pitch": 62, "velocity": 58, "note_on_time": 1.796, "note_off_time": 1.986}, {"pitch": 67, "velocity": 75, "note_on_time": 1.995, "note_off_time": 2.083}, {"pitch": 67, "velocity": 67, "note_on_time": 2.204, "note_off_time": 2.45}, {"pitch": 64, "velocity": 56, "note_on_time": 2.45, "note_off_time": 2.64}, {"pitch": 60, "velocity": 70, "note_on_time": 2.673, "note_off_time": 2.874}, {"pitch": 62, "velocity": 59, "note_on_time": 2.892, "note_off_time": 3.1}, {"pitch": 60, "velocity": 51, "note_on_time": 3.116, "note_off_time": 3.333}, {"pitch": 65, "velocity": 69, "note_on_time": 3.333, "note_off_time": 3.404}, {"pitch": 65, "velocity": 70, "note_on_time": 3.544, "note_off_time": 3.737}, {"pitch": 62, "velocity": 57, "note_on_time": 3.766, "note_off_time": 4.158}, {"pitch": 62, "velocity": 61, "note_on_time": 4.366, "note_off_time": 4.587}, {"pitch": 65, "velocity": 54, "note_on_time": 4.597, "note_off_time": 4.775}, {"pitch": 60, "velocity": 55, "note_on_time": 4.82, "note_off_time": 5.008}, {"pitch": 62, "velocity": 63, "note_on_time": 5.022, "note_off_time": 5.255}, {"pitch": 67, "velocity": 61, "note_on_time": 5.252, "note_off_time": 5.678}, {"pitch": 67, "velocity": 67, "note_on_time": 5.93, "note_off_time": 6.15}, {"pitch": 65, "velocity": 65, "note_on_time": 6.136, "note_off_time": 6.301}, {"pitch": 60, "velocity": 62, "note_on_time": 6.353, "note_off_time": 6.565}, {"pitch": 67, "velocity": 61, "note_on_time": 6.58, "note_off_time": 6.796}, {"pitch": 64, "velocity": 63, "note_on_time": 6.805, "note_off_time": 7.082}, {"pitch": 64, "velocity": 68, "note_on_time": 7.239, "note_off_time": 7.318}, {"pitch": 64, "velocity": 72, "note_on_time": 7.455, "note_off_time": 7.546}, {"pitch": 64, "velocity": 73, "note_on_time": 7.673, "note_off_time": 7.868}]</notes><guidance name="Guidance Mode">None</guidance><error name="Error value">0.013925041666666577</error></trial><trial trial_no="3" timestamp="2022_12_08-12_40_59"><notes name="Played Notes">[{"pitch": 64, "velocity": 68, "note_on_time": 0.915, "note_off_time": 1.093}, {"pitch": 67, "velocity": 71, "note_on_time": 1.125, "note_off_time": 1.348}, {"pitch": 64, "velocity": 62, "note_on_time": 1.353, "note_off_time": 1.554}, {"pitch": 67, "velocity": 67, "note_on_time": 1.564, "note_off_time": 1.777}, {"pitch": 62, "velocity": 63, "note_on_time": 1.787, "note_off_time": 1.999}, {"pitch": 67, "velocity": 74, "note_on_time": 1.998, "note_off_time": 2.089}, {"pitch": 67, "velocity": 69, "note_on_time": 2.206, "note_off_time": 2.427}, {"pitch": 64, "velocity": 59, "note_on_time": 2.433, "note_off_time": 2.624}, {"pitch": 60, "velocity": 70, "note_on_time": 2.659, "note_off_time": 2.853}, {"pitch": 62, "velocity": 59, "note_on_time": 2.874, "note_off_time": 3.091}, {"pitch": 60, "velocity": 60, "note_on_time": 3.104, "note_off_time": 3.299}, {"pitch": 65, "velocity": 72, "note_on_time": 3.302, "note_off_time": 3.385}, {"pitch": 65, "velocity": 69, "note_on_time": 3.509, "note_off_time": 3.717}, {"pitch": 62, "velocity": 68, "note_on_time": 3.734, "note_off_time": 4.078}, {"pitch": 62, "velocity": 72, "note_on_time": 4.346, "note_off_time": 4.555}, {"pitch": 65, "velocity": 64, "note_on_time": 4.569, "note_off_time": 4.772}, {"pitch": 60, "velocity": 64, "note_on_time": 4.798, "note_off_time": 4.989}, {"pitch": 62, "velocity": 67, "note_on_time": 5.019, "note_off_time": 5.259}, {"pitch": 67, "velocity": 72, "note_on_time": 5.254, "note_off_time": 5.632}, {"pitch": 67, "velocity": 69, "note_on_time": 5.885, "note_off_time": 6.117}, {"pitch": 65, "velocity": 61, "note_on_time": 6.122, "note_off_time": 6.294}, {"pitch": 60, "velocity": 60, "note_on_time": 6.353, "note_off_time": 6.57}, {"pitch": 67, "velocity": 69, "note_on_time": 6.566, "note_off_time": 6.777}, {"pitch": 64, "velocity": 60, "note_on_time": 6.791, "note_off_time": 7.051}, {"pitch": 64, "velocity": 72, "note_on_time": 7.228, "note_off_time": 7.314}, {"pitch": 64, "velocity": 65, "note_on_time": 7.441, "note_off_time": 7.538}, {"pitch": 64, "velocity": 71, "note_on_time": 7.669, "note_off_time": 7.858}]</notes><guidance name="Guidance Mode">None</guidance><error name="Error value">0.01189295833333319</error></trial><trial trial_no="4" timestamp="2022_12_08-12_41_28"><notes name="Played Notes">[{"pitch": 64, "velocity": 64, "note_on_time": 0.872, "note_off_time": 1.081}, {"pitch": 67, "velocity": 67, "note_on_time": 1.101, "note_off_time": 1.311}, {"pitch": 64, "velocity": 65, "note_on_time": 1.315, "note_off_time": 1.542}, {"pitch": 67, "velocity": 62, "note_on_time": 1.552, "note_off_time": 1.771}, {"pitch": 62, "velocity": 72, "note_on_time": 1.77, "note_off_time": 1.962}, {"pitch": 65, "velocity": 77, "note_on_time": 1.984, "note_off_time": 2.087}, {"pitch": 65, "velocity": 64, "note_on_time": 2.193, "note_off_time": 2.399}, {"pitch": 62, "velocity": 70, "note_on_time": 2.426, "note_off_time": 2.513}, {"pitch": 60, "velocity": 75, "note_on_time": 2.665, "note_off_time": 2.856}, {"pitch": 62, "velocity": 66, "note_on_time": 2.87, "note_off_time": 3.065}, {"pitch": 60, "velocity": 66, "note_on_time": 3.091, "note_off_time": 3.304}, {"pitch": 65, "velocity": 75, "note_on_time": 3.314, "note_off_time": 3.391}, {"pitch": 65, "velocity": 74, "note_on_time": 3.537, "note_off_time": 3.725}, {"pitch": 62, "velocity": 63, "note_on_time": 3.75, "note_off_time": 4.159}, {"pitch": 62, "velocity": 66, "note_on_time": 4.381, "note_off_time": 4.614}, {"pitch": 65, "velocity": 59, "note_on_time": 4.624, "note_off_time": 4.809}, {"pitch": 60, "velocity": 61, "note_on_time": 4.855, "note_off_time": 5.053}, {"pitch": 62, "velocity": 61, "note_on_time": 5.061, "note_off_time": 5.278}, {"pitch": 67, "velocity": 72, "note_on_time": 5.282, "note_off_time": 5.67}, {"pitch": 67, "velocity": 73, "note_on_time": 5.867, "note_off_time": 6.102}, {"pitch": 65, "velocity": 68, "note_on_time": 6.091, "note_off_time": 6.321}, {"pitch": 60, "velocity": 62, "note_on_time": 6.343, "note_off_time": 6.57}, {"pitch": 67, "velocity": 64, "note_on_time": 6.579, "note_off_time": 6.803}, {"pitch": 64, "velocity": 54, "note_on_time": 6.817, "note_off_time": 7.097}, {"pitch": 64, "velocity": 59, "note_on_time": 7.243, "note_off_time": 7.322}, {"pitch": 64, "velocity": 59, "note_on_time": 7.444, "note_off_time": 7.54}, {"pitch": 64, "velocity": 67, "note_on_time": 7.664, "note_off_time": 7.821}]</notes><guidance name="Guidance Mode">None</guidance><error name="Error value">0.14051604166666665</error></trial></trials></MIDI>