<MIDI midiNo="2022_11_13-12_56_09"><target_notes><notes name="Note List">[{"pitch": 42, "velocity": 80, "note_on_time": 0.004, "note_off_time": 0.313}, {"pitch": 42, "velocity": 80, "note_on_time": 0.314, "note_off_time": 0.625}, {"pitch": 42, "velocity": 80, "note_on_time": 0.625, "note_off_time": 0.936}, {"pitch": 42, "velocity": 80, "note_on_time": 0.936, "note_off_time": 1.25}, {"pitch": 42, "velocity": 80, "note_on_time": 1.25, "note_off_time": 1.561}, {"pitch": 62, "velocity": 80, "note_on_time": 1.25, "note_off_time": 1.874}, {"pitch": 42, "velocity": 80, "note_on_time": 1.561, "note_off_time": 1.875}, {"pitch": 42, "velocity": 80, "note_on_time": 1.875, "note_off_time": 2.185}, {"pitch": 60, "velocity": 80, "note_on_time": 1.874, "note_off_time": 2.498}, {"pitch": 42, "velocity": 80, "note_on_time": 2.186, "note_off_time": 2.498}, {"pitch": 65, "velocity": 80, "note_on_time": 2.498, "note_off_time": 2.809}, {"pitch": 42, "velocity": 80, "note_on_time": 2.498, "note_off_time": 2.809}, {"pitch": 65, "velocity": 80, "note_on_time": 2.809, "note_off_time": 3.123}, {"pitch": 42, "velocity": 80, "note_on_time": 2.809, "note_off_time": 3.123}, {"pitch": 65, "velocity": 80, "note_on_time": 3.123, "note_off_time": 3.434}, {"pitch": 42, "velocity": 80, "note_on_time": 3.123, "note_off_time": 3.434}, {"pitch": 67, "velocity": 80, "note_on_time": 3.434, "note_off_time": 3.746}, {"pitch": 42, "velocity": 80, "note_on_time": 3.434, "note_off_time": 3.746}, {"pitch": 62, "velocity": 80, "note_on_time": 3.746, "note_off_time": 4.058}, {"pitch": 42, "velocity": 80, "note_on_time": 3.746, "note_off_time": 4.059}, {"pitch": 42, "velocity": 80, "note_on_time": 4.059, "note_off_time": 4.372}, {"pitch": 62, "velocity": 80, "note_on_time": 4.058, "note_off_time": 4.683}, {"pitch": 42, "velocity": 80, "note_on_time": 4.373, "note_off_time": 4.683}, {"pitch": 42, "velocity": 80, "note_on_time": 4.683, "note_off_time": 4.995}, {"pitch": 64, "velocity": 80, "note_on_time": 4.995, "note_off_time": 5.307}, {"pitch": 42, "velocity": 80, "note_on_time": 4.995, "note_off_time": 5.307}, {"pitch": 64, "velocity": 80, "note_on_time": 5.307, "note_off_time": 5.619}, {"pitch": 42, "velocity": 80, "note_on_time": 5.307, "note_off_time": 5.62}, {"pitch": 62, "velocity": 80, "note_on_time": 5.619, "note_off_time": 5.931}, {"pitch": 42, "velocity": 80, "note_on_time": 5.62, "note_off_time": 5.931}, {"pitch": 62, "velocity": 80, "note_on_time": 5.931, "note_off_time": 6.243}, {"pitch": 42, "velocity": 80, "note_on_time": 5.931, "note_off_time": 6.243}, {"pitch": 42, "velocity": 80, "note_on_time": 6.243, "note_off_time": 6.555}, {"pitch": 67, "velocity": 80, "note_on_time": 6.243, "note_off_time": 6.867}, {"pitch": 42, "velocity": 80, "note_on_time": 6.555, "note_off_time": 6.867}, {"pitch": 67, "velocity": 80, "note_on_time": 6.867, "note_off_time": 7.181}, {"pitch": 42, "velocity": 80, "note_on_time": 6.868, "note_off_time": 7.181}, {"pitch": 42, "velocity": 80, "note_on_time": 7.181, "note_off_time": 7.493}, {"pitch": 42, "velocity": 80, "note_on_time": 7.493, "note_off_time": 7.805}, {"pitch": 62, "velocity": 80, "note_on_time": 7.493, "note_off_time": 8.117}, {"pitch": 42, "velocity": 80, "note_on_time": 7.805, "note_off_time": 8.117}, {"pitch": 67, "velocity": 80, "note_on_time": 8.117, "note_off_time": 8.429}, {"pitch": 42, "velocity": 80, "note_on_time": 8.117, "note_off_time": 8.429}, {"pitch": 42, "velocity": 80, "note_on_time": 8.429, "note_off_time": 8.742}, {"pitch": 42, "velocity": 80, "note_on_time": 8.742, "note_off_time": 9.055}, {"pitch": 64, "velocity": 80, "note_on_time": 8.742, "note_off_time": 9.37}, {"pitch": 42, "velocity": 80, "note_on_time": 9.055, "note_off_time": 9.37}, {"pitch": 42, "velocity": 80, "note_on_time": 9.371, "note_off_time": 9.683}, {"pitch": 62, "velocity": 80, "note_on_time": 9.682, "note_off_time": 9.993}, {"pitch": 42, "velocity": 80, "note_on_time": 9.683, "note_off_time": 9.994}, {"pitch": 42, "velocity": 80, "note_on_time": 9.994, "note_off_time": 10.305}, {"pitch": 62, "velocity": 80, "note_on_time": 10.305, "note_off_time": 10.619}, {"pitch": 42, "velocity": 80, "note_on_time": 10.305, "note_off_time": 10.62}, {"pitch": 62, "velocity": 80, "note_on_time": 10.619, "note_off_time": 10.933}, {"pitch": 42, "velocity": 80, "note_on_time": 10.62, "note_off_time": 10.934}, {"pitch": 62, "velocity": 80, "note_on_time": 10.933, "note_off_time": 11.246}, {"pitch": 42, "velocity": 80, "note_on_time": 10.934, "note_off_time": 11.246}]</notes><options name="Option List">((4, 4), [0.5, 0.25], 3, 8, &lt;NoteRangePerHand.C_TO_G: 6&gt;, &lt;NoteRangePerHand.ONE_NOTE: 2&gt;, False, True, False, '197')</options></target_notes><trials><trial trial_no="1" timestamp="2022_11_13-12_55_56"><notes name="Played Notes">[{"pitch": 62, "velocity": 71, "note_on_time": 1.252, "note_off_time": 1.913}, {"pitch": 60, "velocity": 90, "note_on_time": 1.894, "note_off_time": 2.563}, {"pitch": 65, "velocity": 89, "note_on_time": 2.532, "note_off_time": 2.681}, {"pitch": 65, "velocity": 85, "note_on_time": 2.843, "note_off_time": 3.037}, {"pitch": 65, "velocity": 89, "note_on_time": 3.171, "note_off_time": 3.496}, {"pitch": 67, "velocity": 83, "note_on_time": 3.469, "note_off_time": 3.779}, {"pitch": 62, "velocity": 60, "note_on_time": 3.771, "note_off_time": 4.121}, {"pitch": 62, "velocity": 93, "note_on_time": 4.359, "note_off_time": 4.865}, {"pitch": 64, "velocity": 91, "note_on_time": 5.349, "note_off_time": 5.568}, {"pitch": 64, "velocity": 85, "note_on_time": 5.681, "note_off_time": 5.881}, {"pitch": 62, "velocity": 82, "note_on_time": 5.949, "note_off_time": 6.105}, {"pitch": 62, "velocity": 81, "note_on_time": 6.238, "note_off_time": 6.407}, {"pitch": 67, "velocity": 77, "note_on_time": 6.52, "note_off_time": 6.719}, {"pitch": 67, "velocity": 86, "note_on_time": 7.17, "note_off_time": 7.671}, {"pitch": 62, "velocity": 84, "note_on_time": 8.404, "note_off_time": 8.708}, {"pitch": 67, "velocity": 88, "note_on_time": 8.735, "note_off_time": 9.08}, {"pitch": 64, "velocity": 78, "note_on_time": 9.388, "note_off_time": 9.703}, {"pitch": 62, "velocity": 84, "note_on_time": 10.026, "note_off_time": 10.251}, {"pitch": 62, "velocity": 78, "note_on_time": 10.874, "note_off_time": 11.009}]</notes><guidance name="Guidance Mode">None</guidance><error name="Error value">0.24639777777777783</error></trial><trial trial_no="2" timestamp="2022_11_13-12_56_21"><notes name="Played Notes">[{"pitch": 62, "velocity": 69, "note_on_time": 1.285, "note_off_time": 1.992}, {"pitch": 60, "velocity": 84, "note_on_time": 1.951, "note_off_time": 2.579}, {"pitch": 65, "velocity": 92, "note_on_time": 2.557, "note_off_time": 2.727}, {"pitch": 65, "velocity": 88, "note_on_time": 2.871, "note_off_time": 3.238}, {"pitch": 67, "velocity": 85, "note_on_time": 3.173, "note_off_time": 3.455}, {"pitch": 60, "velocity": 61, "note_on_time": 4.46, "note_off_time": 4.681}, {"pitch": 62, "velocity": 78, "note_on_time": 4.773, "note_off_time": 5.054}, {"pitch": 64, "velocity": 88, "note_on_time": 5.632, "note_off_time": 5.793}, {"pitch": 64, "velocity": 85, "note_on_time": 5.948, "note_off_time": 6.318}, {"pitch": 62, "velocity": 81, "note_on_time": 6.25, "note_off_time": 6.413}, {"pitch": 62, "velocity": 79, "note_on_time": 6.56, "note_off_time": 6.712}, {"pitch": 67, "velocity": 89, "note_on_time": 6.869, "note_off_time": 7.409}, {"pitch": 67, "velocity": 88, "note_on_time": 7.535, "note_off_time": 7.903}, {"pitch": 62, "velocity": 68, "note_on_time": 8.22, "note_off_time": 8.703}, {"pitch": 67, "velocity": 93, "note_on_time": 8.819, "note_off_time": 9.16}, {"pitch": 64, "velocity": 72, "note_on_time": 9.669, "note_off_time": 9.92}, {"pitch": 62, "velocity": 78, "note_on_time": 10.294, "note_off_time": 10.519}, {"pitch": 62, "velocity": 81, "note_on_time": 10.841, "note_off_time": 10.962}, {"pitch": 62, "velocity": 86, "note_on_time": 11.143, "note_off_time": 11.229}]</notes><guidance name="Guidance Mode">None</guidance><error name="Error value">0.3058484444444444</error></trial><trial trial_no="3" timestamp="2022_11_13-12_56_57"><notes name="Played Notes">[{"pitch": 62, "velocity": 71, "note_on_time": 1.28, "note_off_time": 1.888}, {"pitch": 60, "velocity": 75, "note_on_time": 1.895, "note_off_time": 2.378}, {"pitch": 65, "velocity": 86, "note_on_time": 2.492, "note_off_time": 2.654}, {"pitch": 65, "velocity": 90, "note_on_time": 2.819, "note_off_time": 2.97}, {"pitch": 65, "velocity": 89, "note_on_time": 3.142, "note_off_time": 3.354}, {"pitch": 67, "velocity": 85, "note_on_time": 3.449, "note_off_time": 3.563}, {"pitch": 62, "velocity": 80, "note_on_time": 3.78, "note_off_time": 4.084}, {"pitch": 62, "velocity": 98, "note_on_time": 4.306, "note_off_time": 4.777}, {"pitch": 64, "velocity": 90, "note_on_time": 5.307, "note_off_time": 5.452}, {"pitch": 64, "velocity": 92, "note_on_time": 5.632, "note_off_time": 5.754}, {"pitch": 62, "velocity": 90, "note_on_time": 5.923, "note_off_time": 6.039}, {"pitch": 62, "velocity": 82, "note_on_time": 6.231, "note_off_time": 6.345}, {"pitch": 67, "velocity": 87, "note_on_time": 6.526, "note_off_time": 6.972}, {"pitch": 67, "velocity": 98, "note_on_time": 7.183, "note_off_time": 7.436}, {"pitch": 62, "velocity": 84, "note_on_time": 8.018, "note_off_time": 8.151}, {"pitch": 67, "velocity": 84, "note_on_time": 8.348, "note_off_time": 8.852}, {"pitch": 64, "velocity": 91, "note_on_time": 9.101, "note_off_time": 9.657}, {"pitch": 62, "velocity": 93, "note_on_time": 9.755, "note_off_time": 10.03}, {"pitch": 62, "velocity": 80, "note_on_time": 10.569, "note_off_time": 10.693}, {"pitch": 62, "velocity": 88, "note_on_time": 10.881, "note_off_time": 10.98}]</notes><guidance name="Guidance Mode">None</guidance><error name="Error value">0.16204177777777776</error></trial><trial trial_no="4" timestamp="2022_11_13-12_57_21"><notes name="Played Notes">[{"pitch": 62, "velocity": 43, "note_on_time": 1.319, "note_off_time": 1.93}, {"pitch": 60, "velocity": 82, "note_on_time": 1.914, "note_off_time": 2.554}, {"pitch": 65, "velocity": 71, "note_on_time": 2.536, "note_off_time": 2.687}, {"pitch": 65, "velocity": 87, "note_on_time": 2.844, "note_off_time": 3.012}, {"pitch": 65, "velocity": 94, "note_on_time": 3.168, "note_off_time": 3.459}, {"pitch": 67, "velocity": 81, "note_on_time": 3.468, "note_off_time": 3.739}, {"pitch": 62, "velocity": 82, "note_on_time": 3.761, "note_off_time": 4.015}, {"pitch": 62, "velocity": 101, "note_on_time": 4.088, "note_off_time": 4.562}, {"pitch": 64, "velocity": 88, "note_on_time": 4.953, "note_off_time": 5.14}, {"pitch": 64, "velocity": 90, "note_on_time": 5.288, "note_off_time": 5.499}, {"pitch": 62, "velocity": 84, "note_on_time": 5.597, "note_off_time": 5.769}, {"pitch": 62, "velocity": 86, "note_on_time": 5.916, "note_off_time": 6.03}, {"pitch": 67, "velocity": 90, "note_on_time": 6.242, "note_off_time": 6.759}, {"pitch": 67, "velocity": 98, "note_on_time": 6.891, "note_off_time": 7.168}, {"pitch": 62, "velocity": 76, "note_on_time": 7.498, "note_off_time": 7.963}, {"pitch": 67, "velocity": 91, "note_on_time": 8.082, "note_off_time": 8.472}, {"pitch": 64, "velocity": 93, "note_on_time": 8.693, "note_off_time": 9.016}, {"pitch": 62, "velocity": 87, "note_on_time": 9.322, "note_off_time": 9.613}, {"pitch": 62, "velocity": 90, "note_on_time": 10.251, "note_off_time": 10.359}, {"pitch": 62, "velocity": 93, "note_on_time": 10.546, "note_off_time": 10.634}, {"pitch": 62, "velocity": 94, "note_on_time": 10.845, "note_off_time": 10.962}]</notes><guidance name="Guidance Mode">None</guidance><error name="Error value">0.04980933333333321</error></trial><trial trial_no="5" timestamp="2022_11_13-12_57_43"><notes name="Played Notes">[{"pitch": 62, "velocity": 68, "note_on_time": 1.267, "note_off_time": 1.942}, {"pitch": 60, "velocity": 87, "note_on_time": 1.924, "note_off_time": 2.562}, {"pitch": 65, "velocity": 81, "note_on_time": 2.542, "note_off_time": 2.68}, {"pitch": 65, "velocity": 86, "note_on_time": 2.84, "note_off_time": 3.005}, {"pitch": 65, "velocity": 95, "note_on_time": 3.165, "note_off_time": 3.452}, {"pitch": 67, "velocity": 82, "note_on_time": 3.447, "note_off_time": 3.723}, {"pitch": 62, "velocity": 65, "note_on_time": 3.775, "note_off_time": 4.127}, {"pitch": 62, "velocity": 94, "note_on_time": 4.276, "note_off_time": 4.718}, {"pitch": 64, "velocity": 85, "note_on_time": 5.016, "note_off_time": 5.174}, {"pitch": 64, "velocity": 87, "note_on_time": 5.313, "note_off_time": 5.458}, {"pitch": 62, "velocity": 93, "note_on_time": 5.602, "note_off_time": 5.739}, {"pitch": 62, "velocity": 93, "note_on_time": 5.922, "note_off_time": 6.005}, {"pitch": 69, "velocity": 73, "note_on_time": 6.256, "note_off_time": 6.352}, {"pitch": 67, "velocity": 57, "note_on_time": 6.245, "note_off_time": 6.763}, {"pitch": 67, "velocity": 87, "note_on_time": 6.881, "note_off_time": 7.302}, {"pitch": 62, "velocity": 86, "note_on_time": 7.515, "note_off_time": 7.723}, {"pitch": 67, "velocity": 92, "note_on_time": 7.84, "note_off_time": 8.236}, {"pitch": 64, "velocity": 68, "note_on_time": 8.47, "note_off_time": 8.733}, {"pitch": 62, "velocity": 88, "note_on_time": 9.05, "note_off_time": 9.299}, {"pitch": 62, "velocity": 90, "note_on_time": 9.679, "note_off_time": 9.773}, {"pitch": 62, "velocity": 95, "note_on_time": 9.969, "note_off_time": 10.047}, {"pitch": 62, "velocity": 91, "note_on_time": 10.29, "note_off_time": 10.389}]</notes><guidance name="Guidance Mode">None</guidance><error name="Error value">0.22367555555555563</error></trial></trials></MIDI>