<MIDI midiNo="2022_11_21-18_07_49"><target_notes><notes name="Note List">[{"pitch": 42, "velocity": 80, "note_on_time": 0.004, "note_off_time": 0.35}, {"pitch": 42, "velocity": 80, "note_on_time": 0.35, "note_off_time": 0.693}, {"pitch": 42, "velocity": 80, "note_on_time": 0.693, "note_off_time": 1.035}, {"pitch": 42, "velocity": 80, "note_on_time": 1.035, "note_off_time": 1.378}, {"pitch": 42, "velocity": 80, "note_on_time": 1.378, "note_off_time": 1.722}, {"pitch": 60, "velocity": 80, "note_on_time": 1.378, "note_off_time": 2.061}, {"pitch": 42, "velocity": 80, "note_on_time": 1.722, "note_off_time": 2.062}, {"pitch": 42, "velocity": 80, "note_on_time": 2.062, "note_off_time": 2.404}, {"pitch": 64, "velocity": 80, "note_on_time": 2.404, "note_off_time": 2.745}, {"pitch": 42, "velocity": 80, "note_on_time": 2.404, "note_off_time": 2.745}, {"pitch": 67, "velocity": 80, "note_on_time": 2.745, "note_off_time": 3.089}, {"pitch": 42, "velocity": 80, "note_on_time": 2.745, "note_off_time": 3.089}, {"pitch": 67, "velocity": 80, "note_on_time": 3.089, "note_off_time": 3.435}, {"pitch": 42, "velocity": 80, "note_on_time": 3.09, "note_off_time": 3.435}, {"pitch": 65, "velocity": 80, "note_on_time": 3.435, "note_off_time": 3.778}, {"pitch": 42, "velocity": 80, "note_on_time": 3.435, "note_off_time": 3.778}, {"pitch": 62, "velocity": 80, "note_on_time": 3.778, "note_off_time": 4.121}, {"pitch": 42, "velocity": 80, "note_on_time": 3.778, "note_off_time": 4.121}, {"pitch": 64, "velocity": 80, "note_on_time": 4.121, "note_off_time": 4.463}, {"pitch": 42, "velocity": 80, "note_on_time": 4.121, "note_off_time": 4.464}, {"pitch": 60, "velocity": 80, "note_on_time": 4.463, "note_off_time": 4.808}, {"pitch": 42, "velocity": 80, "note_on_time": 4.464, "note_off_time": 4.808}, {"pitch": 42, "velocity": 80, "note_on_time": 4.809, "note_off_time": 5.148}, {"pitch": 65, "velocity": 80, "note_on_time": 4.808, "note_off_time": 5.491}, {"pitch": 42, "velocity": 80, "note_on_time": 5.149, "note_off_time": 5.491}, {"pitch": 62, "velocity": 80, "note_on_time": 5.491, "note_off_time": 5.834}, {"pitch": 42, "velocity": 80, "note_on_time": 5.492, "note_off_time": 5.834}, {"pitch": 62, "velocity": 80, "note_on_time": 5.834, "note_off_time": 6.177}, {"pitch": 42, "velocity": 80, "note_on_time": 5.835, "note_off_time": 6.177}, {"pitch": 60, "velocity": 80, "note_on_time": 6.177, "note_off_time": 6.517}, {"pitch": 42, "velocity": 80, "note_on_time": 6.177, "note_off_time": 6.517}, {"pitch": 60, "velocity": 80, "note_on_time": 6.517, "note_off_time": 6.859}, {"pitch": 42, "velocity": 80, "note_on_time": 6.518, "note_off_time": 6.859}, {"pitch": 65, "velocity": 80, "note_on_time": 6.859, "note_off_time": 7.202}, {"pitch": 42, "velocity": 80, "note_on_time": 6.86, "note_off_time": 7.202}, {"pitch": 42, "velocity": 80, "note_on_time": 7.202, "note_off_time": 7.546}, {"pitch": 42, "velocity": 80, "note_on_time": 7.546, "note_off_time": 7.888}, {"pitch": 42, "velocity": 80, "note_on_time": 7.888, "note_off_time": 8.229}, {"pitch": 65, "velocity": 80, "note_on_time": 8.229, "note_off_time": 8.569}, {"pitch": 42, "velocity": 80, "note_on_time": 8.229, "note_off_time": 8.569}, {"pitch": 67, "velocity": 80, "note_on_time": 8.569, "note_off_time": 8.913}, {"pitch": 42, "velocity": 80, "note_on_time": 8.57, "note_off_time": 8.913}, {"pitch": 62, "velocity": 80, "note_on_time": 8.913, "note_off_time": 9.255}, {"pitch": 42, "velocity": 80, "note_on_time": 8.914, "note_off_time": 9.255}, {"pitch": 62, "velocity": 80, "note_on_time": 9.255, "note_off_time": 9.597}, {"pitch": 42, "velocity": 80, "note_on_time": 9.255, "note_off_time": 9.597}, {"pitch": 42, "velocity": 80, "note_on_time": 9.598, "note_off_time": 9.941}, {"pitch": 64, "velocity": 80, "note_on_time": 9.597, "note_off_time": 10.283}, {"pitch": 42, "velocity": 80, "note_on_time": 9.942, "note_off_time": 10.283}, {"pitch": 42, "velocity": 80, "note_on_time": 10.284, "note_off_time": 10.624}, {"pitch": 42, "velocity": 80, "note_on_time": 10.624, "note_off_time": 10.969}, {"pitch": 42, "velocity": 80, "note_on_time": 10.969, "note_off_time": 11.309}, {"pitch": 64, "velocity": 80, "note_on_time": 11.308, "note_off_time": 11.648}, {"pitch": 42, "velocity": 80, "note_on_time": 11.309, "note_off_time": 11.649}, {"pitch": 64, "velocity": 80, "note_on_time": 11.648, "note_off_time": 11.989}, {"pitch": 42, "velocity": 80, "note_on_time": 11.649, "note_off_time": 11.989}, {"pitch": 64, "velocity": 80, "note_on_time": 11.989, "note_off_time": 12.331}, {"pitch": 42, "velocity": 80, "note_on_time": 11.989, "note_off_time": 12.332}]</notes><options name="Option List">((4, 4), [0.5, 0.25], 3, 8, &lt;NoteRangePerHand.C_TO_G: 6&gt;, &lt;NoteRangePerHand.ONE_NOTE: 2&gt;, False, True, False, 182)</options></target_notes><trials><trial trial_no="1" timestamp="2022_11_21-18_07_36"><notes name="Played Notes">[{"pitch": 60, "velocity": 102, "note_on_time": 1.398, "note_off_time": 1.791}, {"pitch": 64, "velocity": 90, "note_on_time": 2.412, "note_off_time": 2.764}, {"pitch": 67, "velocity": 98, "note_on_time": 2.771, "note_off_time": 2.874}, {"pitch": 67, "velocity": 92, "note_on_time": 3.104, "note_off_time": 3.437}, {"pitch": 65, "velocity": 93, "note_on_time": 3.444, "note_off_time": 3.77}, {"pitch": 62, "velocity": 83, "note_on_time": 3.783, "note_off_time": 4.118}, {"pitch": 64, "velocity": 90, "note_on_time": 4.127, "note_off_time": 4.468}, {"pitch": 60, "velocity": 85, "note_on_time": 4.482, "note_off_time": 4.795}, {"pitch": 65, "velocity": 96, "note_on_time": 4.793, "note_off_time": 5.32}, {"pitch": 62, "velocity": 96, "note_on_time": 5.537, "note_off_time": 5.612}, {"pitch": 62, "velocity": 91, "note_on_time": 5.864, "note_off_time": 6.021}, {"pitch": 62, "velocity": 51, "note_on_time": 6.159, "note_off_time": 6.205}, {"pitch": 60, "velocity": 107, "note_on_time": 6.196, "note_off_time": 6.287}, {"pitch": 60, "velocity": 104, "note_on_time": 6.536, "note_off_time": 6.644}, {"pitch": 65, "velocity": 102, "note_on_time": 6.884, "note_off_time": 7.199}, {"pitch": 65, "velocity": 100, "note_on_time": 8.25, "note_off_time": 8.551}, {"pitch": 67, "velocity": 83, "note_on_time": 8.569, "note_off_time": 8.928}, {"pitch": 62, "velocity": 90, "note_on_time": 8.922, "note_off_time": 8.997}, {"pitch": 62, "velocity": 91, "note_on_time": 9.25, "note_off_time": 9.58}, {"pitch": 64, "velocity": 94, "note_on_time": 9.601, "note_off_time": 9.984}, {"pitch": 64, "velocity": 98, "note_on_time": 10.926, "note_off_time": 11.026}, {"pitch": 64, "velocity": 98, "note_on_time": 11.283, "note_off_time": 11.361}, {"pitch": 64, "velocity": 88, "note_on_time": 11.619, "note_off_time": 11.755}]</notes><guidance name="Guidance Mode">None</guidance><error name="Error value">0.13627842105263185</error></trial></trials></MIDI>