<MIDI midiNo="2022_09_12-12_03_28"><target_notes><notes name="Note List">[{"pitch": 42, "velocity": 80, "note_on_time": 0.004, "note_off_time": 0.419}, {"pitch": 42, "velocity": 80, "note_on_time": 0.419, "note_off_time": 0.825}, {"pitch": 42, "velocity": 80, "note_on_time": 0.825, "note_off_time": 1.231}, {"pitch": 42, "velocity": 80, "note_on_time": 1.231, "note_off_time": 1.635}, {"pitch": 42, "velocity": 80, "note_on_time": 1.636, "note_off_time": 2.039}, {"pitch": 60, "velocity": 80, "note_on_time": 1.635, "note_off_time": 2.443}, {"pitch": 42, "velocity": 80, "note_on_time": 2.039, "note_off_time": 2.444}, {"pitch": 42, "velocity": 80, "note_on_time": 2.444, "note_off_time": 2.847}, {"pitch": 42, "velocity": 80, "note_on_time": 2.847, "note_off_time": 3.252}, {"pitch": 60, "velocity": 80, "note_on_time": 3.252, "note_off_time": 3.657}, {"pitch": 42, "velocity": 80, "note_on_time": 3.253, "note_off_time": 3.658}, {"pitch": 64, "velocity": 80, "note_on_time": 3.657, "note_off_time": 4.062}, {"pitch": 42, "velocity": 80, "note_on_time": 3.658, "note_off_time": 4.062}, {"pitch": 64, "velocity": 80, "note_on_time": 4.062, "note_off_time": 4.467}, {"pitch": 42, "velocity": 80, "note_on_time": 4.063, "note_off_time": 4.468}, {"pitch": 62, "velocity": 80, "note_on_time": 4.467, "note_off_time": 4.873}, {"pitch": 42, "velocity": 80, "note_on_time": 4.468, "note_off_time": 4.874}, {"pitch": 62, "velocity": 80, "note_on_time": 4.873, "note_off_time": 5.277}, {"pitch": 42, "velocity": 80, "note_on_time": 4.874, "note_off_time": 5.278}, {"pitch": 62, "velocity": 80, "note_on_time": 5.277, "note_off_time": 5.68}, {"pitch": 42, "velocity": 80, "note_on_time": 5.278, "note_off_time": 5.68}, {"pitch": 60, "velocity": 80, "note_on_time": 5.68, "note_off_time": 6.085}, {"pitch": 42, "velocity": 80, "note_on_time": 5.681, "note_off_time": 6.085}, {"pitch": 60, "velocity": 80, "note_on_time": 6.085, "note_off_time": 6.488}, {"pitch": 42, "velocity": 80, "note_on_time": 6.086, "note_off_time": 6.488}, {"pitch": 60, "velocity": 80, "note_on_time": 6.488, "note_off_time": 6.891}, {"pitch": 42, "velocity": 80, "note_on_time": 6.489, "note_off_time": 6.891}, {"pitch": 62, "velocity": 80, "note_on_time": 6.891, "note_off_time": 7.295}, {"pitch": 42, "velocity": 80, "note_on_time": 6.892, "note_off_time": 7.295}, {"pitch": 62, "velocity": 80, "note_on_time": 7.295, "note_off_time": 7.704}, {"pitch": 42, "velocity": 80, "note_on_time": 7.295, "note_off_time": 7.704}, {"pitch": 42, "velocity": 80, "note_on_time": 7.704, "note_off_time": 8.109}, {"pitch": 42, "velocity": 80, "note_on_time": 8.109, "note_off_time": 8.514}, {"pitch": 64, "velocity": 80, "note_on_time": 8.109, "note_off_time": 8.924}, {"pitch": 42, "velocity": 80, "note_on_time": 8.514, "note_off_time": 8.924}, {"pitch": 42, "velocity": 80, "note_on_time": 8.924, "note_off_time": 9.331}, {"pitch": 42, "velocity": 80, "note_on_time": 9.332, "note_off_time": 9.738}, {"pitch": 62, "velocity": 80, "note_on_time": 9.738, "note_off_time": 10.141}, {"pitch": 42, "velocity": 80, "note_on_time": 9.739, "note_off_time": 10.141}, {"pitch": 62, "velocity": 80, "note_on_time": 10.141, "note_off_time": 10.546}, {"pitch": 42, "velocity": 80, "note_on_time": 10.142, "note_off_time": 10.546}, {"pitch": 62, "velocity": 80, "note_on_time": 10.546, "note_off_time": 10.953}, {"pitch": 42, "velocity": 80, "note_on_time": 10.546, "note_off_time": 10.953}, {"pitch": 62, "velocity": 80, "note_on_time": 10.953, "note_off_time": 11.358}, {"pitch": 42, "velocity": 80, "note_on_time": 10.954, "note_off_time": 11.358}, {"pitch": 62, "velocity": 80, "note_on_time": 11.358, "note_off_time": 11.763}, {"pitch": 42, "velocity": 80, "note_on_time": 11.358, "note_off_time": 11.763}, {"pitch": 64, "velocity": 80, "note_on_time": 11.763, "note_off_time": 12.168}, {"pitch": 42, "velocity": 80, "note_on_time": 11.764, "note_off_time": 12.169}, {"pitch": 60, "velocity": 80, "note_on_time": 12.168, "note_off_time": 12.572}, {"pitch": 42, "velocity": 80, "note_on_time": 12.169, "note_off_time": 12.572}, {"pitch": 60, "velocity": 80, "note_on_time": 12.572, "note_off_time": 12.976}, {"pitch": 42, "velocity": 80, "note_on_time": 12.572, "note_off_time": 12.976}, {"pitch": 42, "velocity": 80, "note_on_time": 12.976, "note_off_time": 13.379}, {"pitch": 60, "velocity": 80, "note_on_time": 13.379, "note_off_time": 13.785}, {"pitch": 42, "velocity": 80, "note_on_time": 13.38, "note_off_time": 13.786}, {"pitch": 60, "velocity": 80, "note_on_time": 13.785, "note_off_time": 14.193}, {"pitch": 42, "velocity": 80, "note_on_time": 13.786, "note_off_time": 14.193}, {"pitch": 60, "velocity": 80, "note_on_time": 14.193, "note_off_time": 14.597}, {"pitch": 42, "velocity": 80, "note_on_time": 14.193, "note_off_time": 14.597}]</notes><options name="Option List">((4, 4), [0.5, 0.25], 3, 8, &lt;NoteRangePerHand.THREE_NOTES: 4&gt;, &lt;NoteRangePerHand.ONE_NOTE: 2&gt;, False, True, True, '150')</options></target_notes><trials><trial trial_no="1" timestamp="2022_09_12-12_03_11"><notes name="Played Notes">[{"pitch": 60, "velocity": 78, "note_on_time": 1.74, "note_off_time": 2.153}, {"pitch": 60, "velocity": 83, "note_on_time": 3.267, "note_off_time": 3.453}, {"pitch": 64, "velocity": 71, "note_on_time": 3.699, "note_off_time": 3.85}, {"pitch": 64, "velocity": 85, "note_on_time": 4.073, "note_off_time": 4.244}, {"pitch": 62, "velocity": 80, "note_on_time": 4.453, "note_off_time": 4.603}, {"pitch": 62, "velocity": 79, "note_on_time": 4.853, "note_off_time": 4.98}, {"pitch": 62, "velocity": 82, "note_on_time": 5.275, "note_off_time": 5.415}, {"pitch": 60, "velocity": 89, "note_on_time": 5.678, "note_off_time": 5.833}, {"pitch": 60, "velocity": 94, "note_on_time": 6.066, "note_off_time": 6.207}, {"pitch": 60, "velocity": 94, "note_on_time": 6.471, "note_off_time": 6.619}, {"pitch": 62, "velocity": 87, "note_on_time": 6.885, "note_off_time": 7.015}, {"pitch": 62, "velocity": 81, "note_on_time": 7.297, "note_off_time": 7.447}, {"pitch": 64, "velocity": 84, "note_on_time": 8.093, "note_off_time": 8.467}, {"pitch": 64, "velocity": 78, "note_on_time": 9.511, "note_off_time": 9.665}, {"pitch": 64, "velocity": 81, "note_on_time": 9.906, "note_off_time": 10.053}, {"pitch": 64, "velocity": 82, "note_on_time": 10.306, "note_off_time": 10.463}, {"pitch": 64, "velocity": 83, "note_on_time": 10.709, "note_off_time": 10.88}, {"pitch": 64, "velocity": 78, "note_on_time": 11.098, "note_off_time": 11.261}, {"pitch": 62, "velocity": 61, "note_on_time": 13.019, "note_off_time": 13.155}, {"pitch": 60, "velocity": 90, "note_on_time": 13.391, "note_off_time": 13.534}, {"pitch": 60, "velocity": 87, "note_on_time": 13.75, "note_off_time": 13.913}, {"pitch": 60, "velocity": 76, "note_on_time": 14.439, "note_off_time": 14.592}]</notes><guidance name="Guidance Mode">None</guidance><error name="Error value">0.47533333333333344</error></trial><trial trial_no="2" timestamp="2022_09_12-12_03_40"><notes name="Played Notes">[{"pitch": 62, "velocity": 83, "note_on_time": 1.764, "note_off_time": 2.266}, {"pitch": 60, "velocity": 79, "note_on_time": 3.445, "note_off_time": 3.624}, {"pitch": 64, "velocity": 79, "note_on_time": 4.253, "note_off_time": 4.401}, {"pitch": 64, "velocity": 74, "note_on_time": 4.625, "note_off_time": 4.801}, {"pitch": 62, "velocity": 73, "note_on_time": 5.068, "note_off_time": 5.209}, {"pitch": 62, "velocity": 75, "note_on_time": 5.436, "note_off_time": 5.56}, {"pitch": 62, "velocity": 82, "note_on_time": 5.841, "note_off_time": 5.99}, {"pitch": 60, "velocity": 89, "note_on_time": 6.275, "note_off_time": 6.417}, {"pitch": 60, "velocity": 89, "note_on_time": 6.643, "note_off_time": 6.786}, {"pitch": 60, "velocity": 85, "note_on_time": 7.038, "note_off_time": 7.184}, {"pitch": 60, "velocity": 83, "note_on_time": 7.425, "note_off_time": 7.557}, {"pitch": 62, "velocity": 79, "note_on_time": 7.866, "note_off_time": 7.983}, {"pitch": 62, "velocity": 79, "note_on_time": 8.261, "note_off_time": 8.413}, {"pitch": 64, "velocity": 83, "note_on_time": 9.034, "note_off_time": 9.457}, {"pitch": 64, "velocity": 83, "note_on_time": 10.579, "note_off_time": 10.708}, {"pitch": 62, "velocity": 48, "note_on_time": 11.057, "note_off_time": 11.194}, {"pitch": 62, "velocity": 72, "note_on_time": 11.409, "note_off_time": 11.523}, {"pitch": 62, "velocity": 69, "note_on_time": 11.798, "note_off_time": 11.941}, {"pitch": 62, "velocity": 79, "note_on_time": 12.227, "note_off_time": 12.388}, {"pitch": 64, "velocity": 81, "note_on_time": 12.716, "note_off_time": 12.886}, {"pitch": 60, "velocity": 87, "note_on_time": 13.169, "note_off_time": 13.317}, {"pitch": 60, "velocity": 88, "note_on_time": 13.58, "note_off_time": 13.745}]</notes><guidance name="Guidance Mode">None</guidance><error name="Error value">1.0255238095238097</error></trial><trial trial_no="3" timestamp="2022_09_12-12_04_09"><notes name="Played Notes">[{"pitch": 60, "velocity": 85, "note_on_time": 1.71, "note_off_time": 2.258}, {"pitch": 60, "velocity": 84, "note_on_time": 3.29, "note_off_time": 3.461}, {"pitch": 64, "velocity": 78, "note_on_time": 3.684, "note_off_time": 3.85}, {"pitch": 64, "velocity": 76, "note_on_time": 4.089, "note_off_time": 4.26}, {"pitch": 62, "velocity": 77, "note_on_time": 4.501, "note_off_time": 4.643}, {"pitch": 62, "velocity": 76, "note_on_time": 4.89, "note_off_time": 5.029}, {"pitch": 62, "velocity": 79, "note_on_time": 5.29, "note_off_time": 5.437}, {"pitch": 60, "velocity": 88, "note_on_time": 5.678, "note_off_time": 5.829}, {"pitch": 60, "velocity": 88, "note_on_time": 6.063, "note_off_time": 6.215}, {"pitch": 60, "velocity": 93, "note_on_time": 6.462, "note_off_time": 6.617}, {"pitch": 62, "velocity": 82, "note_on_time": 6.899, "note_off_time": 7.009}, {"pitch": 62, "velocity": 79, "note_on_time": 7.313, "note_off_time": 7.436}, {"pitch": 64, "velocity": 61, "note_on_time": 8.235, "note_off_time": 8.313}, {"pitch": 64, "velocity": 27, "note_on_time": 8.528, "note_off_time": 8.95}, {"pitch": 62, "velocity": 82, "note_on_time": 9.906, "note_off_time": 10.05}, {"pitch": 62, "velocity": 79, "note_on_time": 10.279, "note_off_time": 10.42}, {"pitch": 62, "velocity": 74, "note_on_time": 10.707, "note_off_time": 10.845}, {"pitch": 62, "velocity": 78, "note_on_time": 11.109, "note_off_time": 11.25}, {"pitch": 62, "velocity": 84, "note_on_time": 11.525, "note_off_time": 11.675}, {"pitch": 64, "velocity": 81, "note_on_time": 11.91, "note_off_time": 12.088}, {"pitch": 60, "velocity": 90, "note_on_time": 12.304, "note_off_time": 12.465}, {"pitch": 60, "velocity": 92, "note_on_time": 12.682, "note_off_time": 12.835}, {"pitch": 60, "velocity": 4, "note_on_time": 13.639, "note_off_time": 13.78}, {"pitch": 60, "velocity": 94, "note_on_time": 13.994, "note_off_time": 14.145}, {"pitch": 60, "velocity": 92, "note_on_time": 14.412, "note_off_time": 14.58}]</notes><guidance name="Guidance Mode">None</guidance><error name="Error value">0.501142857142856</error></trial><trial trial_no="4" timestamp="2022_09_12-12_04_46"><notes name="Played Notes">[{"pitch": 60, "velocity": 85, "note_on_time": 1.671, "note_off_time": 2.163}, {"pitch": 60, "velocity": 92, "note_on_time": 3.147, "note_off_time": 3.341}, {"pitch": 64, "velocity": 72, "note_on_time": 3.546, "note_off_time": 3.707}, {"pitch": 64, "velocity": 83, "note_on_time": 3.932, "note_off_time": 4.114}, {"pitch": 62, "velocity": 82, "note_on_time": 4.3, "note_off_time": 4.43}, {"pitch": 62, "velocity": 75, "note_on_time": 4.678, "note_off_time": 4.795}, {"pitch": 62, "velocity": 84, "note_on_time": 5.073, "note_off_time": 5.203}, {"pitch": 60, "velocity": 90, "note_on_time": 5.439, "note_off_time": 5.577}, {"pitch": 60, "velocity": 91, "note_on_time": 5.791, "note_off_time": 5.93}, {"pitch": 60, "velocity": 94, "note_on_time": 6.174, "note_off_time": 6.326}, {"pitch": 62, "velocity": 90, "note_on_time": 6.636, "note_off_time": 6.743}, {"pitch": 62, "velocity": 85, "note_on_time": 6.987, "note_off_time": 7.114}, {"pitch": 64, "velocity": 83, "note_on_time": 7.863, "note_off_time": 8.266}, {"pitch": 62, "velocity": 78, "note_on_time": 9.398, "note_off_time": 9.518}, {"pitch": 62, "velocity": 81, "note_on_time": 9.749, "note_off_time": 9.872}, {"pitch": 62, "velocity": 81, "note_on_time": 10.105, "note_off_time": 10.228}, {"pitch": 62, "velocity": 78, "note_on_time": 10.467, "note_off_time": 10.593}, {"pitch": 62, "velocity": 82, "note_on_time": 10.864, "note_off_time": 11.003}, {"pitch": 64, "velocity": 84, "note_on_time": 11.236, "note_off_time": 11.387}, {"pitch": 60, "velocity": 95, "note_on_time": 11.608, "note_off_time": 11.747}, {"pitch": 60, "velocity": 96, "note_on_time": 11.963, "note_off_time": 12.108}, {"pitch": 60, "velocity": 89, "note_on_time": 12.744, "note_off_time": 12.868}, {"pitch": 60, "velocity": 95, "note_on_time": 13.08, "note_off_time": 13.205}, {"pitch": 60, "velocity": 101, "note_on_time": 13.435, "note_off_time": 13.518}]</notes><guidance name="Guidance Mode">None</guidance><error name="Error value">0.04342857142857174</error></trial><trial trial_no="5" timestamp="2022_09_12-12_05_17"><notes name="Played Notes">[{"pitch": 60, "velocity": 83, "note_on_time": 1.63, "note_off_time": 2.046}, {"pitch": 60, "velocity": 92, "note_on_time": 2.991, "note_off_time": 3.152}, {"pitch": 64, "velocity": 76, "note_on_time": 3.467, "note_off_time": 3.598}, {"pitch": 64, "velocity": 79, "note_on_time": 3.8, "note_off_time": 3.968}, {"pitch": 62, "velocity": 73, "note_on_time": 4.265, "note_off_time": 4.425}, {"pitch": 62, "velocity": 82, "note_on_time": 4.824, "note_off_time": 4.952}, {"pitch": 62, "velocity": 81, "note_on_time": 5.28, "note_off_time": 5.408}, {"pitch": 60, "velocity": 88, "note_on_time": 5.717, "note_off_time": 5.842}, {"pitch": 60, "velocity": 94, "note_on_time": 6.061, "note_off_time": 6.215}, {"pitch": 60, "velocity": 90, "note_on_time": 6.456, "note_off_time": 6.627}, {"pitch": 62, "velocity": 84, "note_on_time": 6.891, "note_off_time": 7.017}, {"pitch": 62, "velocity": 87, "note_on_time": 7.283, "note_off_time": 7.418}, {"pitch": 64, "velocity": 80, "note_on_time": 8.076, "note_off_time": 8.489}, {"pitch": 64, "velocity": 84, "note_on_time": 9.476, "note_off_time": 9.616}, {"pitch": 64, "velocity": 85, "note_on_time": 9.853, "note_off_time": 9.996}, {"pitch": 62, "velocity": 79, "note_on_time": 10.502, "note_off_time": 10.622}, {"pitch": 62, "velocity": 75, "note_on_time": 10.857, "note_off_time": 11.006}, {"pitch": 62, "velocity": 79, "note_on_time": 11.344, "note_off_time": 11.474}, {"pitch": 64, "velocity": 79, "note_on_time": 11.802, "note_off_time": 11.969}, {"pitch": 60, "velocity": 84, "note_on_time": 12.236, "note_off_time": 12.39}, {"pitch": 60, "velocity": 88, "note_on_time": 12.63, "note_off_time": 12.791}, {"pitch": 60, "velocity": 88, "note_on_time": 13.648, "note_off_time": 13.788}, {"pitch": 60, "velocity": 89, "note_on_time": 13.994, "note_off_time": 14.113}, {"pitch": 60, "velocity": 94, "note_on_time": 14.341, "note_off_time": 14.436}]</notes><guidance name="Guidance Mode">None</guidance><error name="Error value">0.18271428571428583</error></trial><trial trial_no="6" timestamp="2022_09_12-12_06_13"><notes name="Played Notes">[{"pitch": 60, "velocity": 89, "note_on_time": 1.64, "note_off_time": 1.997}, {"pitch": 60, "velocity": 82, "note_on_time": 2.938, "note_off_time": 3.126}]</notes><guidance name="Guidance Mode">None</guidance><error name="Error value">1.5047619047619052</error></trial><trial trial_no="7" timestamp="2022_09_12-12_06_42"><notes name="Played Notes">[{"pitch": 60, "velocity": 87, "note_on_time": 1.257, "note_off_time": 1.667}, {"pitch": 60, "velocity": 92, "note_on_time": 2.188, "note_off_time": 2.371}, {"pitch": 64, "velocity": 72, "note_on_time": 2.566, "note_off_time": 2.706}, {"pitch": 64, "velocity": 84, "note_on_time": 2.828, "note_off_time": 3.008}, {"pitch": 62, "velocity": 87, "note_on_time": 3.14, "note_off_time": 3.272}, {"pitch": 62, "velocity": 86, "note_on_time": 3.417, "note_off_time": 3.533}, {"pitch": 62, "velocity": 87, "note_on_time": 3.671, "note_off_time": 3.826}, {"pitch": 60, "velocity": 92, "note_on_time": 3.972, "note_off_time": 4.107}, {"pitch": 60, "velocity": 95, "note_on_time": 4.234, "note_off_time": 4.36}, {"pitch": 60, "velocity": 101, "note_on_time": 4.506, "note_off_time": 4.672}, {"pitch": 62, "velocity": 90, "note_on_time": 4.834, "note_off_time": 4.934}, {"pitch": 62, "velocity": 94, "note_on_time": 5.094, "note_off_time": 5.249}, {"pitch": 64, "velocity": 92, "note_on_time": 5.721, "note_off_time": 6.062}, {"pitch": 62, "velocity": 86, "note_on_time": 6.832, "note_off_time": 6.927}, {"pitch": 62, "velocity": 93, "note_on_time": 7.078, "note_off_time": 7.186}, {"pitch": 62, "velocity": 93, "note_on_time": 7.332, "note_off_time": 7.455}, {"pitch": 62, "velocity": 89, "note_on_time": 7.61, "note_off_time": 7.727}, {"pitch": 62, "velocity": 85, "note_on_time": 7.895, "note_off_time": 8.031}, {"pitch": 64, "velocity": 95, "note_on_time": 8.327, "note_off_time": 8.458}, {"pitch": 60, "velocity": 95, "note_on_time": 8.645, "note_off_time": 8.772}, {"pitch": 60, "velocity": 99, "note_on_time": 8.911, "note_off_time": 9.031}, {"pitch": 60, "velocity": 98, "note_on_time": 9.557, "note_off_time": 9.682}, {"pitch": 60, "velocity": 102, "note_on_time": 9.818, "note_off_time": 9.918}, {"pitch": 60, "velocity": 112, "note_on_time": 10.061, "note_off_time": 10.203}]</notes><guidance name="Guidance Mode">None</guidance><error name="Error value">0.04579147619047608</error></trial></trials></MIDI>