<MIDI midiNo="2022_11_10-11_14_54"><target_notes><notes name="Note List">[{"pitch": 42, "velocity": 80, "note_on_time": 0.004, "note_off_time": 0.737}, {"pitch": 42, "velocity": 80, "note_on_time": 0.737, "note_off_time": 1.473}, {"pitch": 42, "velocity": 80, "note_on_time": 1.473, "note_off_time": 2.203}, {"pitch": 42, "velocity": 80, "note_on_time": 2.203, "note_off_time": 2.936}, {"pitch": 64, "velocity": 80, "note_on_time": 2.936, "note_off_time": 3.669}, {"pitch": 42, "velocity": 80, "note_on_time": 2.936, "note_off_time": 3.669}, {"pitch": 62, "velocity": 80, "note_on_time": 3.669, "note_off_time": 4.4}, {"pitch": 42, "velocity": 80, "note_on_time": 3.669, "note_off_time": 4.4}, {"pitch": 64, "velocity": 80, "note_on_time": 4.4, "note_off_time": 5.13}, {"pitch": 42, "velocity": 80, "note_on_time": 4.4, "note_off_time": 5.13}, {"pitch": 64, "velocity": 80, "note_on_time": 5.13, "note_off_time": 5.862}, {"pitch": 42, "velocity": 80, "note_on_time": 5.13, "note_off_time": 5.862}, {"pitch": 64, "velocity": 80, "note_on_time": 5.862, "note_off_time": 6.588}, {"pitch": 42, "velocity": 80, "note_on_time": 5.862, "note_off_time": 6.588}, {"pitch": 62, "velocity": 80, "note_on_time": 6.588, "note_off_time": 7.319}, {"pitch": 42, "velocity": 80, "note_on_time": 6.588, "note_off_time": 7.319}, {"pitch": 60, "velocity": 80, "note_on_time": 7.319, "note_off_time": 8.05}, {"pitch": 42, "velocity": 80, "note_on_time": 7.319, "note_off_time": 8.05}, {"pitch": 62, "velocity": 80, "note_on_time": 8.05, "note_off_time": 8.782}, {"pitch": 42, "velocity": 80, "note_on_time": 8.05, "note_off_time": 8.782}, {"pitch": 60, "velocity": 80, "note_on_time": 8.782, "note_off_time": 9.513}, {"pitch": 42, "velocity": 80, "note_on_time": 8.782, "note_off_time": 9.513}, {"pitch": 60, "velocity": 80, "note_on_time": 9.513, "note_off_time": 10.243}, {"pitch": 42, "velocity": 80, "note_on_time": 9.513, "note_off_time": 10.243}, {"pitch": 64, "velocity": 80, "note_on_time": 10.243, "note_off_time": 10.975}, {"pitch": 42, "velocity": 80, "note_on_time": 10.243, "note_off_time": 10.975}, {"pitch": 60, "velocity": 80, "note_on_time": 10.975, "note_off_time": 11.704}, {"pitch": 42, "velocity": 80, "note_on_time": 10.975, "note_off_time": 11.704}, {"pitch": 64, "velocity": 80, "note_on_time": 11.704, "note_off_time": 12.433}, {"pitch": 42, "velocity": 80, "note_on_time": 11.704, "note_off_time": 12.433}, {"pitch": 64, "velocity": 80, "note_on_time": 12.433, "note_off_time": 13.162}, {"pitch": 42, "velocity": 80, "note_on_time": 12.433, "note_off_time": 13.162}, {"pitch": 62, "velocity": 80, "note_on_time": 13.162, "note_off_time": 13.893}, {"pitch": 42, "velocity": 80, "note_on_time": 13.162, "note_off_time": 13.893}, {"pitch": 64, "velocity": 80, "note_on_time": 13.893, "note_off_time": 14.621}, {"pitch": 42, "velocity": 80, "note_on_time": 13.893, "note_off_time": 14.621}, {"pitch": 42, "velocity": 80, "note_on_time": 14.621, "note_off_time": 15.352}, {"pitch": 64, "velocity": 80, "note_on_time": 14.621, "note_off_time": 16.084}, {"pitch": 42, "velocity": 80, "note_on_time": 15.352, "note_off_time": 16.084}, {"pitch": 42, "velocity": 80, "note_on_time": 16.084, "note_off_time": 16.818}, {"pitch": 42, "velocity": 80, "note_on_time": 16.818, "note_off_time": 17.546}, {"pitch": 64, "velocity": 80, "note_on_time": 17.546, "note_off_time": 18.277}, {"pitch": 42, "velocity": 80, "note_on_time": 17.546, "note_off_time": 18.277}, {"pitch": 42, "velocity": 80, "note_on_time": 18.277, "note_off_time": 19.009}, {"pitch": 60, "velocity": 80, "note_on_time": 18.277, "note_off_time": 19.739}, {"pitch": 42, "velocity": 80, "note_on_time": 19.009, "note_off_time": 19.739}, {"pitch": 64, "velocity": 80, "note_on_time": 19.739, "note_off_time": 20.467}, {"pitch": 42, "velocity": 80, "note_on_time": 19.739, "note_off_time": 20.467}, {"pitch": 62, "velocity": 80, "note_on_time": 20.467, "note_off_time": 21.194}, {"pitch": 42, "velocity": 80, "note_on_time": 20.467, "note_off_time": 21.194}, {"pitch": 64, "velocity": 80, "note_on_time": 21.194, "note_off_time": 21.928}, {"pitch": 42, "velocity": 80, "note_on_time": 21.194, "note_off_time": 21.928}, {"pitch": 62, "velocity": 80, "note_on_time": 21.928, "note_off_time": 22.659}, {"pitch": 42, "velocity": 80, "note_on_time": 21.928, "note_off_time": 22.659}, {"pitch": 60, "velocity": 80, "note_on_time": 22.659, "note_off_time": 23.393}, {"pitch": 42, "velocity": 80, "note_on_time": 22.659, "note_off_time": 23.393}, {"pitch": 42, "velocity": 80, "note_on_time": 23.393, "note_off_time": 24.126}, {"pitch": 60, "velocity": 80, "note_on_time": 24.126, "note_off_time": 24.857}, {"pitch": 42, "velocity": 80, "note_on_time": 24.126, "note_off_time": 24.857}, {"pitch": 60, "velocity": 80, "note_on_time": 24.857, "note_off_time": 25.585}, {"pitch": 42, "velocity": 80, "note_on_time": 24.857, "note_off_time": 25.585}, {"pitch": 60, "velocity": 80, "note_on_time": 25.585, "note_off_time": 26.315}, {"pitch": 42, "velocity": 80, "note_on_time": 25.585, "note_off_time": 26.315}]</notes><options name="Option List">((4, 4), [0.5, 0.25], 3, 8, &lt;NoteRangePerHand.THREE_NOTES: 4&gt;, &lt;NoteRangePerHand.ONE_NOTE: 2&gt;, False, True, False, '83')</options></target_notes><trials><trial trial_no="1" timestamp="2022_11_10-11_14_26"><notes name="Played Notes">[{"pitch": 62, "velocity": 75, "note_on_time": 3.594, "note_off_time": 4.15}, {"pitch": 64, "velocity": 79, "note_on_time": 5.358, "note_off_time": 5.966}, {"pitch": 62, "velocity": 84, "note_on_time": 6.329, "note_off_time": 6.83}, {"pitch": 64, "velocity": 71, "note_on_time": 7.296, "note_off_time": 7.82}, {"pitch": 64, "velocity": 73, "note_on_time": 8.214, "note_off_time": 8.57}, {"pitch": 64, "velocity": 68, "note_on_time": 9.208, "note_off_time": 9.72}, {"pitch": 62, "velocity": 78, "note_on_time": 10.096, "note_off_time": 10.573}, {"pitch": 60, "velocity": 76, "note_on_time": 11.008, "note_off_time": 11.473}, {"pitch": 62, "velocity": 77, "note_on_time": 11.89, "note_off_time": 12.436}, {"pitch": 60, "velocity": 79, "note_on_time": 12.828, "note_off_time": 13.271}, {"pitch": 60, "velocity": 84, "note_on_time": 13.679, "note_off_time": 14.076}, {"pitch": 62, "velocity": 74, "note_on_time": 14.914, "note_off_time": 15.426}, {"pitch": 64, "velocity": 66, "note_on_time": 16.294, "note_off_time": 16.787}, {"pitch": 60, "velocity": 77, "note_on_time": 17.123, "note_off_time": 17.669}, {"pitch": 64, "velocity": 76, "note_on_time": 18.008, "note_off_time": 18.561}, {"pitch": 64, "velocity": 78, "note_on_time": 18.882, "note_off_time": 19.339}, {"pitch": 62, "velocity": 78, "note_on_time": 19.758, "note_off_time": 20.223}, {"pitch": 64, "velocity": 79, "note_on_time": 20.572, "note_off_time": 20.995}, {"pitch": 64, "velocity": 72, "note_on_time": 21.505, "note_off_time": 22.217}, {"pitch": 64, "velocity": 80, "note_on_time": 23.569, "note_off_time": 24.01}, {"pitch": 60, "velocity": 78, "note_on_time": 24.451, "note_off_time": 24.808}, {"pitch": 64, "velocity": 66, "note_on_time": 25.641, "note_off_time": 26.11}]</notes><guidance name="Guidance Mode">None</guidance><error name="Error value">1.0498977083333334</error></trial><trial trial_no="2" timestamp="2022_11_10-11_15_12"><notes name="Played Notes">[{"pitch": 64, "velocity": 72, "note_on_time": 2.901, "note_off_time": 3.432}, {"pitch": 62, "velocity": 75, "note_on_time": 3.827, "note_off_time": 4.333}, {"pitch": 64, "velocity": 82, "note_on_time": 4.682, "note_off_time": 5.244}, {"pitch": 64, "velocity": 74, "note_on_time": 5.574, "note_off_time": 6.173}, {"pitch": 64, "velocity": 77, "note_on_time": 6.636, "note_off_time": 7.127}, {"pitch": 62, "velocity": 75, "note_on_time": 7.476, "note_off_time": 7.964}, {"pitch": 60, "velocity": 80, "note_on_time": 8.329, "note_off_time": 8.873}, {"pitch": 62, "velocity": 78, "note_on_time": 9.219, "note_off_time": 9.725}, {"pitch": 60, "velocity": 82, "note_on_time": 10.103, "note_off_time": 10.683}, {"pitch": 60, "velocity": 83, "note_on_time": 11.023, "note_off_time": 11.628}, {"pitch": 64, "velocity": 81, "note_on_time": 11.912, "note_off_time": 12.511}, {"pitch": 60, "velocity": 78, "note_on_time": 12.807, "note_off_time": 13.43}, {"pitch": 64, "velocity": 78, "note_on_time": 13.733, "note_off_time": 14.36}, {"pitch": 64, "velocity": 81, "note_on_time": 14.627, "note_off_time": 15.212}, {"pitch": 62, "velocity": 69, "note_on_time": 15.514, "note_off_time": 16.051}, {"pitch": 64, "velocity": 81, "note_on_time": 16.365, "note_off_time": 16.879}, {"pitch": 64, "velocity": 79, "note_on_time": 17.265, "note_off_time": 18.065}, {"pitch": 64, "velocity": 74, "note_on_time": 19.178, "note_off_time": 19.719}, {"pitch": 60, "velocity": 71, "note_on_time": 20.08, "note_off_time": 20.868}, {"pitch": 64, "velocity": 77, "note_on_time": 21.231, "note_off_time": 21.861}, {"pitch": 62, "velocity": 74, "note_on_time": 22.195, "note_off_time": 22.785}, {"pitch": 64, "velocity": 73, "note_on_time": 23.076, "note_off_time": 23.685}, {"pitch": 62, "velocity": 75, "note_on_time": 23.961, "note_off_time": 24.397}, {"pitch": 60, "velocity": 84, "note_on_time": 24.782, "note_off_time": 25.328}]</notes><guidance name="Guidance Mode">None</guidance><error name="Error value">0.5035037499999999</error></trial><trial trial_no="3" timestamp="2022_11_10-11_15_51"><notes name="Played Notes">[{"pitch": 64, "velocity": 74, "note_on_time": 1.493, "note_off_time": 2.109}, {"pitch": 62, "velocity": 79, "note_on_time": 2.379, "note_off_time": 3.061}, {"pitch": 64, "velocity": 77, "note_on_time": 3.309, "note_off_time": 3.986}, {"pitch": 64, "velocity": 78, "note_on_time": 4.208, "note_off_time": 4.814}, {"pitch": 64, "velocity": 77, "note_on_time": 5.175, "note_off_time": 5.773}, {"pitch": 62, "velocity": 76, "note_on_time": 6.066, "note_off_time": 6.539}, {"pitch": 60, "velocity": 78, "note_on_time": 6.923, "note_off_time": 7.507}, {"pitch": 62, "velocity": 75, "note_on_time": 7.805, "note_off_time": 8.376}, {"pitch": 60, "velocity": 83, "note_on_time": 8.718, "note_off_time": 9.201}, {"pitch": 60, "velocity": 81, "note_on_time": 9.599, "note_off_time": 10.077}, {"pitch": 64, "velocity": 78, "note_on_time": 10.421, "note_off_time": 11.021}, {"pitch": 60, "velocity": 88, "note_on_time": 11.279, "note_off_time": 11.836}, {"pitch": 64, "velocity": 72, "note_on_time": 12.199, "note_off_time": 12.789}, {"pitch": 64, "velocity": 68, "note_on_time": 13.03, "note_off_time": 13.534}, {"pitch": 62, "velocity": 78, "note_on_time": 13.849, "note_off_time": 14.43}, {"pitch": 64, "velocity": 78, "note_on_time": 14.683, "note_off_time": 15.263}, {"pitch": 64, "velocity": 78, "note_on_time": 15.686, "note_off_time": 16.698}, {"pitch": 64, "velocity": 72, "note_on_time": 17.458, "note_off_time": 18.053}, {"pitch": 60, "velocity": 89, "note_on_time": 18.307, "note_off_time": 19.04}, {"pitch": 64, "velocity": 76, "note_on_time": 19.294, "note_off_time": 19.945}, {"pitch": 62, "velocity": 81, "note_on_time": 20.178, "note_off_time": 20.798}, {"pitch": 64, "velocity": 79, "note_on_time": 21.017, "note_off_time": 21.602}, {"pitch": 62, "velocity": 70, "note_on_time": 21.889, "note_off_time": 22.459}, {"pitch": 60, "velocity": 85, "note_on_time": 22.75, "note_off_time": 23.317}, {"pitch": 60, "velocity": 79, "note_on_time": 24.592, "note_off_time": 25.172}, {"pitch": 60, "velocity": 77, "note_on_time": 25.452, "note_off_time": 25.962}]</notes><guidance name="Guidance Mode">None</guidance><error name="Error value">0.28148479166666657</error></trial><trial trial_no="4" timestamp="2022_11_10-11_16_28"><notes name="Played Notes">[{"pitch": 64, "velocity": 77, "note_on_time": 4.184, "note_off_time": 4.842}, {"pitch": 62, "velocity": 80, "note_on_time": 5.065, "note_off_time": 5.744}, {"pitch": 64, "velocity": 71, "note_on_time": 5.938, "note_off_time": 6.655}, {"pitch": 64, "velocity": 74, "note_on_time": 6.843, "note_off_time": 7.541}, {"pitch": 64, "velocity": 76, "note_on_time": 7.759, "note_off_time": 8.397}, {"pitch": 62, "velocity": 82, "note_on_time": 8.607, "note_off_time": 9.167}, {"pitch": 60, "velocity": 89, "note_on_time": 9.439, "note_off_time": 10.049}, {"pitch": 62, "velocity": 76, "note_on_time": 10.287, "note_off_time": 11.077}, {"pitch": 60, "velocity": 84, "note_on_time": 11.207, "note_off_time": 11.761}, {"pitch": 60, "velocity": 83, "note_on_time": 12.055, "note_off_time": 12.555}, {"pitch": 64, "velocity": 79, "note_on_time": 12.88, "note_off_time": 13.532}, {"pitch": 60, "velocity": 75, "note_on_time": 13.743, "note_off_time": 14.412}, {"pitch": 64, "velocity": 78, "note_on_time": 15.048, "note_off_time": 15.624}, {"pitch": 64, "velocity": 68, "note_on_time": 15.907, "note_off_time": 16.458}, {"pitch": 62, "velocity": 80, "note_on_time": 16.736, "note_off_time": 17.474}, {"pitch": 64, "velocity": 59, "note_on_time": 17.56, "note_off_time": 18.209}, {"pitch": 64, "velocity": 75, "note_on_time": 18.416, "note_off_time": 19.317}, {"pitch": 64, "velocity": 74, "note_on_time": 19.965, "note_off_time": 20.521}, {"pitch": 60, "velocity": 85, "note_on_time": 20.811, "note_off_time": 21.43}, {"pitch": 64, "velocity": 70, "note_on_time": 21.71, "note_off_time": 22.288}, {"pitch": 64, "velocity": 79, "note_on_time": 22.538, "note_off_time": 23.098}, {"pitch": 62, "velocity": 77, "note_on_time": 23.38, "note_off_time": 23.95}, {"pitch": 64, "velocity": 79, "note_on_time": 24.241, "note_off_time": 24.83}, {"pitch": 62, "velocity": 87, "note_on_time": 25.106, "note_off_time": 25.621}]</notes><guidance name="Guidance Mode">None</guidance><error name="Error value">0.5043370833333332</error></trial><trial trial_no="5" timestamp="2022_11_10-11_17_08"><notes name="Played Notes">[{"pitch": 64, "velocity": 80, "note_on_time": 1.985, "note_off_time": 2.663}, {"pitch": 62, "velocity": 79, "note_on_time": 2.844, "note_off_time": 3.507}, {"pitch": 64, "velocity": 70, "note_on_time": 3.679, "note_off_time": 4.264}, {"pitch": 64, "velocity": 79, "note_on_time": 4.468, "note_off_time": 5.075}, {"pitch": 64, "velocity": 79, "note_on_time": 5.374, "note_off_time": 5.928}, {"pitch": 62, "velocity": 78, "note_on_time": 6.179, "note_off_time": 6.649}, {"pitch": 60, "velocity": 77, "note_on_time": 6.989, "note_off_time": 7.475}, {"pitch": 62, "velocity": 80, "note_on_time": 7.777, "note_off_time": 8.371}, {"pitch": 60, "velocity": 88, "note_on_time": 8.587, "note_off_time": 9.053}, {"pitch": 60, "velocity": 85, "note_on_time": 9.393, "note_off_time": 9.819}, {"pitch": 64, "velocity": 76, "note_on_time": 10.182, "note_off_time": 10.711}, {"pitch": 60, "velocity": 77, "note_on_time": 10.982, "note_off_time": 11.673}, {"pitch": 64, "velocity": 78, "note_on_time": 11.926, "note_off_time": 12.444}, {"pitch": 64, "velocity": 71, "note_on_time": 12.708, "note_off_time": 13.182}, {"pitch": 62, "velocity": 82, "note_on_time": 13.488, "note_off_time": 13.982}, {"pitch": 64, "velocity": 78, "note_on_time": 14.299, "note_off_time": 14.794}, {"pitch": 64, "velocity": 71, "note_on_time": 15.121, "note_off_time": 16.023}, {"pitch": 64, "velocity": 69, "note_on_time": 16.731, "note_off_time": 17.188}, {"pitch": 60, "velocity": 84, "note_on_time": 17.554, "note_off_time": 18.303}, {"pitch": 64, "velocity": 73, "note_on_time": 18.524, "note_off_time": 19.073}, {"pitch": 62, "velocity": 79, "note_on_time": 19.369, "note_off_time": 19.874}, {"pitch": 64, "velocity": 74, "note_on_time": 20.149, "note_off_time": 20.634}, {"pitch": 62, "velocity": 70, "note_on_time": 20.977, "note_off_time": 21.494}, {"pitch": 60, "velocity": 76, "note_on_time": 21.76, "note_off_time": 22.288}, {"pitch": 60, "velocity": 84, "note_on_time": 23.324, "note_off_time": 23.779}, {"pitch": 60, "velocity": 78, "note_on_time": 24.087, "note_off_time": 24.519}, {"pitch": 60, "velocity": 81, "note_on_time": 24.832, "note_off_time": 25.26}]</notes><guidance name="Guidance Mode">None</guidance><error name="Error value">0.1646696249999994</error></trial></trials></MIDI>