<MIDI midiNo="2022_10_02-13_10_49"><target_notes><notes name="Note List">[{"pitch": 42, "velocity": 80, "note_on_time": 0.004, "note_off_time": 0.272}, {"pitch": 42, "velocity": 80, "note_on_time": 0.272, "note_off_time": 0.536}, {"pitch": 42, "velocity": 80, "note_on_time": 0.537, "note_off_time": 0.801}, {"pitch": 42, "velocity": 80, "note_on_time": 0.801, "note_off_time": 1.064}, {"pitch": 64, "velocity": 80, "note_on_time": 1.064, "note_off_time": 1.33}, {"pitch": 42, "velocity": 80, "note_on_time": 1.064, "note_off_time": 1.33}, {"pitch": 64, "velocity": 80, "note_on_time": 1.33, "note_off_time": 1.596}, {"pitch": 42, "velocity": 80, "note_on_time": 1.33, "note_off_time": 1.596}, {"pitch": 60, "velocity": 80, "note_on_time": 1.596, "note_off_time": 1.861}, {"pitch": 42, "velocity": 80, "note_on_time": 1.596, "note_off_time": 1.861}, {"pitch": 64, "velocity": 80, "note_on_time": 1.861, "note_off_time": 2.128}, {"pitch": 42, "velocity": 80, "note_on_time": 1.861, "note_off_time": 2.128}, {"pitch": 60, "velocity": 80, "note_on_time": 2.128, "note_off_time": 2.392}, {"pitch": 42, "velocity": 80, "note_on_time": 2.129, "note_off_time": 2.392}, {"pitch": 64, "velocity": 80, "note_on_time": 2.392, "note_off_time": 2.655}, {"pitch": 42, "velocity": 80, "note_on_time": 2.392, "note_off_time": 2.655}, {"pitch": 64, "velocity": 80, "note_on_time": 2.655, "note_off_time": 2.919}, {"pitch": 42, "velocity": 80, "note_on_time": 2.656, "note_off_time": 2.919}, {"pitch": 62, "velocity": 80, "note_on_time": 2.919, "note_off_time": 3.184}, {"pitch": 42, "velocity": 80, "note_on_time": 2.92, "note_off_time": 3.184}, {"pitch": 62, "velocity": 80, "note_on_time": 3.184, "note_off_time": 3.448}, {"pitch": 42, "velocity": 80, "note_on_time": 3.185, "note_off_time": 3.449}, {"pitch": 62, "velocity": 80, "note_on_time": 3.448, "note_off_time": 3.716}, {"pitch": 42, "velocity": 80, "note_on_time": 3.449, "note_off_time": 3.716}, {"pitch": 42, "velocity": 80, "note_on_time": 3.716, "note_off_time": 3.981}, {"pitch": 64, "velocity": 80, "note_on_time": 3.981, "note_off_time": 4.245}, {"pitch": 42, "velocity": 80, "note_on_time": 3.981, "note_off_time": 4.245}, {"pitch": 64, "velocity": 80, "note_on_time": 4.245, "note_off_time": 4.511}, {"pitch": 42, "velocity": 80, "note_on_time": 4.246, "note_off_time": 4.511}, {"pitch": 60, "velocity": 80, "note_on_time": 4.511, "note_off_time": 4.776}, {"pitch": 42, "velocity": 80, "note_on_time": 4.511, "note_off_time": 4.776}, {"pitch": 62, "velocity": 80, "note_on_time": 4.776, "note_off_time": 5.038}, {"pitch": 42, "velocity": 80, "note_on_time": 4.776, "note_off_time": 5.038}, {"pitch": 60, "velocity": 80, "note_on_time": 5.038, "note_off_time": 5.307}, {"pitch": 42, "velocity": 80, "note_on_time": 5.038, "note_off_time": 5.307}, {"pitch": 64, "velocity": 80, "note_on_time": 5.307, "note_off_time": 5.571}, {"pitch": 42, "velocity": 80, "note_on_time": 5.307, "note_off_time": 5.571}, {"pitch": 62, "velocity": 80, "note_on_time": 5.571, "note_off_time": 5.834}, {"pitch": 42, "velocity": 80, "note_on_time": 5.571, "note_off_time": 5.835}, {"pitch": 62, "velocity": 80, "note_on_time": 5.834, "note_off_time": 6.098}, {"pitch": 42, "velocity": 80, "note_on_time": 5.835, "note_off_time": 6.098}, {"pitch": 62, "velocity": 80, "note_on_time": 6.098, "note_off_time": 6.364}, {"pitch": 42, "velocity": 80, "note_on_time": 6.098, "note_off_time": 6.364}, {"pitch": 64, "velocity": 80, "note_on_time": 6.364, "note_off_time": 6.629}, {"pitch": 42, "velocity": 80, "note_on_time": 6.364, "note_off_time": 6.629}, {"pitch": 64, "velocity": 80, "note_on_time": 6.629, "note_off_time": 6.894}, {"pitch": 42, "velocity": 80, "note_on_time": 6.629, "note_off_time": 6.894}, {"pitch": 42, "velocity": 80, "note_on_time": 6.895, "note_off_time": 7.158}, {"pitch": 42, "velocity": 80, "note_on_time": 7.158, "note_off_time": 7.426}, {"pitch": 62, "velocity": 80, "note_on_time": 7.425, "note_off_time": 7.689}, {"pitch": 42, "velocity": 80, "note_on_time": 7.426, "note_off_time": 7.689}, {"pitch": 64, "velocity": 80, "note_on_time": 7.689, "note_off_time": 7.953}, {"pitch": 42, "velocity": 80, "note_on_time": 7.69, "note_off_time": 7.953}, {"pitch": 60, "velocity": 80, "note_on_time": 7.953, "note_off_time": 8.217}, {"pitch": 42, "velocity": 80, "note_on_time": 7.954, "note_off_time": 8.217}, {"pitch": 42, "velocity": 80, "note_on_time": 8.217, "note_off_time": 8.482}, {"pitch": 42, "velocity": 80, "note_on_time": 8.483, "note_off_time": 8.747}, {"pitch": 60, "velocity": 80, "note_on_time": 8.747, "note_off_time": 9.012}, {"pitch": 42, "velocity": 80, "note_on_time": 8.747, "note_off_time": 9.012}, {"pitch": 60, "velocity": 80, "note_on_time": 9.012, "note_off_time": 9.277}, {"pitch": 42, "velocity": 80, "note_on_time": 9.013, "note_off_time": 9.277}, {"pitch": 60, "velocity": 80, "note_on_time": 9.277, "note_off_time": 9.541}, {"pitch": 42, "velocity": 80, "note_on_time": 9.278, "note_off_time": 9.541}]</notes><options name="Option List">((4, 4), [0.25], 3, 8, &lt;NoteRangePerHand.THREE_NOTES: 4&gt;, &lt;NoteRangePerHand.ONE_NOTE: 2&gt;, False, True, True, '232')</options></target_notes><trials><trial trial_no="1" timestamp="2022_10_02-13_10_38"><notes name="Played Notes">[{"pitch": 64, "velocity": 64, "note_on_time": 1.088, "note_off_time": 1.221}, {"pitch": 64, "velocity": 54, "note_on_time": 1.361, "note_off_time": 1.578}, {"pitch": 60, "velocity": 64, "note_on_time": 1.637, "note_off_time": 1.815}, {"pitch": 64, "velocity": 54, "note_on_time": 1.894, "note_off_time": 2.09}, {"pitch": 60, "velocity": 62, "note_on_time": 2.152, "note_off_time": 2.295}, {"pitch": 64, "velocity": 61, "note_on_time": 2.423, "note_off_time": 2.543}, {"pitch": 64, "velocity": 51, "note_on_time": 2.659, "note_off_time": 2.811}, {"pitch": 62, "velocity": 67, "note_on_time": 2.939, "note_off_time": 3.04}, {"pitch": 62, "velocity": 51, "note_on_time": 3.174, "note_off_time": 3.306}, {"pitch": 62, "velocity": 55, "note_on_time": 3.467, "note_off_time": 3.622}, {"pitch": 64, "velocity": 69, "note_on_time": 4.248, "note_off_time": 4.387}, {"pitch": 64, "velocity": 50, "note_on_time": 4.518, "note_off_time": 4.705}, {"pitch": 60, "velocity": 55, "note_on_time": 4.789, "note_off_time": 4.992}, {"pitch": 62, "velocity": 45, "note_on_time": 5.057, "note_off_time": 5.301}, {"pitch": 60, "velocity": 60, "note_on_time": 5.312, "note_off_time": 5.494}, {"pitch": 64, "velocity": 54, "note_on_time": 5.583, "note_off_time": 5.8}, {"pitch": 62, "velocity": 45, "note_on_time": 5.856, "note_off_time": 6.001}, {"pitch": 62, "velocity": 56, "note_on_time": 6.165, "note_off_time": 6.299}, {"pitch": 62, "velocity": 56, "note_on_time": 6.428, "note_off_time": 6.574}, {"pitch": 64, "velocity": 46, "note_on_time": 6.666, "note_off_time": 6.803}, {"pitch": 64, "velocity": 53, "note_on_time": 6.937, "note_off_time": 7.103}, {"pitch": 62, "velocity": 66, "note_on_time": 7.962, "note_off_time": 8.159}, {"pitch": 64, "velocity": 62, "note_on_time": 8.222, "note_off_time": 8.416}, {"pitch": 60, "velocity": 58, "note_on_time": 8.493, "note_off_time": 8.673}]</notes><guidance name="Guidance Mode">None</guidance><error name="Error value">0.26419416666666673</error></trial><trial trial_no="2" timestamp="2022_10_02-13_11_22"><notes name="Played Notes">[{"pitch": 64, "velocity": 62, "note_on_time": 1.114, "note_off_time": 1.24}, {"pitch": 64, "velocity": 51, "note_on_time": 1.388, "note_off_time": 1.601}, {"pitch": 60, "velocity": 62, "note_on_time": 1.679, "note_off_time": 1.861}, {"pitch": 64, "velocity": 58, "note_on_time": 1.951, "note_off_time": 2.159}, {"pitch": 60, "velocity": 54, "note_on_time": 2.197, "note_off_time": 2.396}, {"pitch": 64, "velocity": 59, "note_on_time": 2.484, "note_off_time": 2.61}, {"pitch": 64, "velocity": 49, "note_on_time": 2.747, "note_off_time": 2.954}, {"pitch": 62, "velocity": 60, "note_on_time": 3.027, "note_off_time": 3.156}, {"pitch": 62, "velocity": 51, "note_on_time": 3.295, "note_off_time": 3.444}, {"pitch": 62, "velocity": 60, "note_on_time": 3.558, "note_off_time": 3.723}, {"pitch": 62, "velocity": 63, "note_on_time": 4.015, "note_off_time": 4.15}, {"pitch": 62, "velocity": 65, "note_on_time": 4.276, "note_off_time": 4.46}, {"pitch": 60, "velocity": 56, "note_on_time": 4.553, "note_off_time": 4.732}, {"pitch": 62, "velocity": 52, "note_on_time": 4.781, "note_off_time": 5.06}, {"pitch": 60, "velocity": 60, "note_on_time": 5.066, "note_off_time": 5.288}, {"pitch": 64, "velocity": 50, "note_on_time": 5.333, "note_off_time": 5.549}, {"pitch": 62, "velocity": 41, "note_on_time": 5.589, "note_off_time": 5.751}, {"pitch": 62, "velocity": 50, "note_on_time": 5.872, "note_off_time": 6.003}, {"pitch": 62, "velocity": 57, "note_on_time": 6.12, "note_off_time": 6.251}, {"pitch": 64, "velocity": 63, "note_on_time": 6.389, "note_off_time": 6.519}, {"pitch": 64, "velocity": 51, "note_on_time": 6.643, "note_off_time": 6.815}, {"pitch": 62, "velocity": 67, "note_on_time": 7.456, "note_off_time": 7.676}, {"pitch": 64, "velocity": 62, "note_on_time": 7.707, "note_off_time": 7.94}, {"pitch": 60, "velocity": 61, "note_on_time": 7.952, "note_off_time": 8.12}, {"pitch": 60, "velocity": 66, "note_on_time": 8.722, "note_off_time": 8.881}, {"pitch": 60, "velocity": 63, "note_on_time": 8.994, "note_off_time": 9.139}, {"pitch": 60, "velocity": 57, "note_on_time": 9.259, "note_off_time": 9.429}]</notes><guidance name="Guidance Mode">None</guidance><error name="Error value">0.10102750000000005</error></trial><trial trial_no="3" timestamp="2022_10_02-13_11_55"><notes name="Played Notes">[{"pitch": 64, "velocity": 66, "note_on_time": 1.078, "note_off_time": 1.202}, {"pitch": 64, "velocity": 44, "note_on_time": 1.339, "note_off_time": 1.602}, {"pitch": 60, "velocity": 70, "note_on_time": 1.627, "note_off_time": 1.826}, {"pitch": 64, "velocity": 51, "note_on_time": 1.896, "note_off_time": 2.112}, {"pitch": 60, "velocity": 66, "note_on_time": 2.162, "note_off_time": 2.346}, {"pitch": 64, "velocity": 66, "note_on_time": 2.438, "note_off_time": 2.58}, {"pitch": 64, "velocity": 60, "note_on_time": 2.697, "note_off_time": 2.888}, {"pitch": 62, "velocity": 56, "note_on_time": 2.974, "note_off_time": 3.071}, {"pitch": 62, "velocity": 54, "note_on_time": 3.208, "note_off_time": 3.347}, {"pitch": 62, "velocity": 56, "note_on_time": 3.488, "note_off_time": 3.692}, {"pitch": 64, "velocity": 52, "note_on_time": 3.981, "note_off_time": 4.163}, {"pitch": 64, "velocity": 65, "note_on_time": 4.261, "note_off_time": 4.452}, {"pitch": 60, "velocity": 65, "note_on_time": 4.549, "note_off_time": 4.725}, {"pitch": 62, "velocity": 48, "note_on_time": 4.772, "note_off_time": 5.017}, {"pitch": 60, "velocity": 56, "note_on_time": 5.067, "note_off_time": 5.272}, {"pitch": 64, "velocity": 56, "note_on_time": 5.327, "note_off_time": 5.546}, {"pitch": 62, "velocity": 55, "note_on_time": 5.581, "note_off_time": 5.72}, {"pitch": 62, "velocity": 56, "note_on_time": 5.871, "note_off_time": 5.998}, {"pitch": 62, "velocity": 60, "note_on_time": 6.124, "note_off_time": 6.289}, {"pitch": 64, "velocity": 65, "note_on_time": 6.417, "note_off_time": 6.541}, {"pitch": 64, "velocity": 58, "note_on_time": 6.674, "note_off_time": 6.858}, {"pitch": 62, "velocity": 74, "note_on_time": 7.458, "note_off_time": 7.679}, {"pitch": 64, "velocity": 66, "note_on_time": 7.718, "note_off_time": 7.945}, {"pitch": 60, "velocity": 68, "note_on_time": 7.976, "note_off_time": 8.162}, {"pitch": 60, "velocity": 68, "note_on_time": 8.752, "note_off_time": 8.891}, {"pitch": 60, "velocity": 62, "note_on_time": 9.033, "note_off_time": 9.153}, {"pitch": 60, "velocity": 66, "note_on_time": 9.29, "note_off_time": 9.449}]</notes><guidance name="Guidance Mode">None</guidance><error name="Error value">0.01633083333333336</error></trial></trials></MIDI>