<MIDI midiNo="2022_10_26-14_00_43"><target_notes><notes name="Note List">[{"pitch": 42, "velocity": 80, "note_on_time": 0.004, "note_off_time": 0.279}, {"pitch": 42, "velocity": 80, "note_on_time": 0.279, "note_off_time": 0.544}, {"pitch": 42, "velocity": 80, "note_on_time": 0.544, "note_off_time": 0.811}, {"pitch": 42, "velocity": 80, "note_on_time": 0.811, "note_off_time": 1.075}, {"pitch": 60, "velocity": 80, "note_on_time": 1.075, "note_off_time": 1.339}, {"pitch": 42, "velocity": 80, "note_on_time": 1.076, "note_off_time": 1.339}, {"pitch": 64, "velocity": 80, "note_on_time": 1.339, "note_off_time": 1.606}, {"pitch": 42, "velocity": 80, "note_on_time": 1.339, "note_off_time": 1.607}, {"pitch": 60, "velocity": 80, "note_on_time": 1.607, "note_off_time": 1.87}, {"pitch": 42, "velocity": 80, "note_on_time": 1.607, "note_off_time": 1.87}, {"pitch": 67, "velocity": 80, "note_on_time": 1.87, "note_off_time": 2.136}, {"pitch": 42, "velocity": 80, "note_on_time": 1.871, "note_off_time": 2.136}, {"pitch": 65, "velocity": 80, "note_on_time": 2.136, "note_off_time": 2.4}, {"pitch": 42, "velocity": 80, "note_on_time": 2.137, "note_off_time": 2.4}, {"pitch": 65, "velocity": 80, "note_on_time": 2.4, "note_off_time": 2.663}, {"pitch": 42, "velocity": 80, "note_on_time": 2.401, "note_off_time": 2.663}, {"pitch": 60, "velocity": 80, "note_on_time": 2.663, "note_off_time": 2.931}, {"pitch": 42, "velocity": 80, "note_on_time": 2.663, "note_off_time": 2.931}, {"pitch": 64, "velocity": 80, "note_on_time": 2.931, "note_off_time": 3.198}, {"pitch": 42, "velocity": 80, "note_on_time": 2.931, "note_off_time": 3.198}, {"pitch": 62, "velocity": 80, "note_on_time": 3.198, "note_off_time": 3.463}, {"pitch": 42, "velocity": 80, "note_on_time": 3.198, "note_off_time": 3.464}, {"pitch": 64, "velocity": 80, "note_on_time": 3.463, "note_off_time": 3.726}, {"pitch": 42, "velocity": 80, "note_on_time": 3.464, "note_off_time": 3.726}, {"pitch": 65, "velocity": 80, "note_on_time": 3.726, "note_off_time": 3.992}, {"pitch": 42, "velocity": 80, "note_on_time": 3.727, "note_off_time": 3.992}, {"pitch": 60, "velocity": 80, "note_on_time": 3.992, "note_off_time": 4.257}, {"pitch": 42, "velocity": 80, "note_on_time": 3.993, "note_off_time": 4.257}, {"pitch": 67, "velocity": 80, "note_on_time": 4.257, "note_off_time": 4.523}, {"pitch": 42, "velocity": 80, "note_on_time": 4.257, "note_off_time": 4.523}, {"pitch": 42, "velocity": 80, "note_on_time": 4.523, "note_off_time": 4.785}, {"pitch": 64, "velocity": 80, "note_on_time": 4.523, "note_off_time": 5.049}, {"pitch": 42, "velocity": 80, "note_on_time": 4.786, "note_off_time": 5.049}, {"pitch": 42, "velocity": 80, "note_on_time": 5.05, "note_off_time": 5.315}, {"pitch": 60, "velocity": 80, "note_on_time": 5.315, "note_off_time": 5.581}, {"pitch": 42, "velocity": 80, "note_on_time": 5.316, "note_off_time": 5.581}, {"pitch": 42, "velocity": 80, "note_on_time": 5.581, "note_off_time": 5.846}, {"pitch": 67, "velocity": 80, "note_on_time": 5.581, "note_off_time": 6.11}, {"pitch": 42, "velocity": 80, "note_on_time": 5.847, "note_off_time": 6.11}, {"pitch": 60, "velocity": 80, "note_on_time": 6.11, "note_off_time": 6.374}, {"pitch": 42, "velocity": 80, "note_on_time": 6.11, "note_off_time": 6.374}, {"pitch": 64, "velocity": 80, "note_on_time": 6.374, "note_off_time": 6.638}, {"pitch": 42, "velocity": 80, "note_on_time": 6.375, "note_off_time": 6.638}, {"pitch": 60, "velocity": 80, "note_on_time": 6.638, "note_off_time": 6.903}, {"pitch": 42, "velocity": 80, "note_on_time": 6.638, "note_off_time": 6.903}, {"pitch": 62, "velocity": 80, "note_on_time": 6.903, "note_off_time": 7.168}, {"pitch": 42, "velocity": 80, "note_on_time": 6.904, "note_off_time": 7.168}, {"pitch": 67, "velocity": 80, "note_on_time": 7.168, "note_off_time": 7.432}, {"pitch": 42, "velocity": 80, "note_on_time": 7.17, "note_off_time": 7.432}, {"pitch": 60, "velocity": 80, "note_on_time": 7.432, "note_off_time": 7.699}, {"pitch": 42, "velocity": 80, "note_on_time": 7.433, "note_off_time": 7.699}, {"pitch": 64, "velocity": 80, "note_on_time": 7.699, "note_off_time": 7.964}, {"pitch": 42, "velocity": 80, "note_on_time": 7.699, "note_off_time": 7.965}, {"pitch": 67, "velocity": 80, "note_on_time": 7.964, "note_off_time": 8.228}, {"pitch": 42, "velocity": 80, "note_on_time": 7.965, "note_off_time": 8.229}, {"pitch": 65, "velocity": 80, "note_on_time": 8.228, "note_off_time": 8.495}, {"pitch": 42, "velocity": 80, "note_on_time": 8.229, "note_off_time": 8.496}, {"pitch": 42, "velocity": 80, "note_on_time": 8.496, "note_off_time": 8.758}, {"pitch": 65, "velocity": 80, "note_on_time": 8.758, "note_off_time": 9.023}, {"pitch": 42, "velocity": 80, "note_on_time": 8.759, "note_off_time": 9.023}, {"pitch": 65, "velocity": 80, "note_on_time": 9.023, "note_off_time": 9.284}, {"pitch": 42, "velocity": 80, "note_on_time": 9.023, "note_off_time": 9.284}, {"pitch": 65, "velocity": 80, "note_on_time": 9.284, "note_off_time": 9.552}, {"pitch": 42, "velocity": 80, "note_on_time": 9.284, "note_off_time": 9.553}]</notes><options name="Option List">((4, 4), [0.5, 0.25], 3, 8, &lt;NoteRangePerHand.C_TO_G: 6&gt;, &lt;NoteRangePerHand.ONE_NOTE: 2&gt;, False, True, True, '232')</options></target_notes><trials><trial trial_no="1" timestamp="2022_10_26-14_00_32"><notes name="Played Notes">[{"pitch": 60, "velocity": 68, "note_on_time": 1.102, "note_off_time": 1.411}, {"pitch": 64, "velocity": 82, "note_on_time": 1.374, "note_off_time": 1.692}, {"pitch": 60, "velocity": 85, "note_on_time": 1.668, "note_off_time": 1.929}, {"pitch": 67, "velocity": 74, "note_on_time": 1.923, "note_off_time": 2.177}, {"pitch": 65, "velocity": 75, "note_on_time": 2.172, "note_off_time": 2.287}, {"pitch": 65, "velocity": 78, "note_on_time": 2.422, "note_off_time": 2.668}, {"pitch": 60, "velocity": 76, "note_on_time": 2.686, "note_off_time": 2.96}, {"pitch": 64, "velocity": 84, "note_on_time": 2.945, "note_off_time": 3.243}, {"pitch": 62, "velocity": 80, "note_on_time": 3.22, "note_off_time": 3.505}, {"pitch": 64, "velocity": 78, "note_on_time": 3.473, "note_off_time": 3.743}, {"pitch": 65, "velocity": 83, "note_on_time": 3.736, "note_off_time": 4.017}, {"pitch": 60, "velocity": 79, "note_on_time": 4.006, "note_off_time": 4.255}, {"pitch": 67, "velocity": 78, "note_on_time": 4.258, "note_off_time": 4.517}, {"pitch": 64, "velocity": 91, "note_on_time": 4.513, "note_off_time": 4.841}, {"pitch": 60, "velocity": 78, "note_on_time": 5.335, "note_off_time": 5.575}, {"pitch": 67, "velocity": 81, "note_on_time": 5.59, "note_off_time": 6.047}, {"pitch": 60, "velocity": 67, "note_on_time": 6.071, "note_off_time": 6.332}, {"pitch": 64, "velocity": 71, "note_on_time": 6.351, "note_off_time": 6.629}, {"pitch": 60, "velocity": 77, "note_on_time": 6.621, "note_off_time": 6.914}, {"pitch": 62, "velocity": 75, "note_on_time": 6.892, "note_off_time": 7.168}, {"pitch": 67, "velocity": 78, "note_on_time": 7.156, "note_off_time": 7.458}, {"pitch": 60, "velocity": 83, "note_on_time": 7.43, "note_off_time": 7.705}, {"pitch": 64, "velocity": 84, "note_on_time": 7.675, "note_off_time": 7.933}, {"pitch": 67, "velocity": 84, "note_on_time": 7.931, "note_off_time": 8.219}, {"pitch": 65, "velocity": 82, "note_on_time": 8.195, "note_off_time": 8.505}, {"pitch": 65, "velocity": 98, "note_on_time": 8.807, "note_off_time": 8.904}, {"pitch": 65, "velocity": 93, "note_on_time": 9.059, "note_off_time": 9.172}, {"pitch": 65, "velocity": 108, "note_on_time": 9.34, "note_off_time": 9.453}]</notes><guidance name="Guidance Mode">None</guidance><error name="Error value">0.016866400000000087</error></trial><trial trial_no="2" timestamp="2022_10_26-14_01_01"><notes name="Played Notes">[{"pitch": 60, "velocity": 80, "note_on_time": 1.081, "note_off_time": 1.385}, {"pitch": 64, "velocity": 76, "note_on_time": 1.349, "note_off_time": 1.64}, {"pitch": 60, "velocity": 79, "note_on_time": 1.627, "note_off_time": 1.888}, {"pitch": 67, "velocity": 71, "note_on_time": 1.886, "note_off_time": 2.16}, {"pitch": 65, "velocity": 73, "note_on_time": 2.14, "note_off_time": 2.228}, {"pitch": 65, "velocity": 75, "note_on_time": 2.386, "note_off_time": 2.643}, {"pitch": 60, "velocity": 77, "note_on_time": 2.646, "note_off_time": 2.906}, {"pitch": 64, "velocity": 77, "note_on_time": 2.893, "note_off_time": 3.185}, {"pitch": 62, "velocity": 78, "note_on_time": 3.168, "note_off_time": 3.464}, {"pitch": 64, "velocity": 79, "note_on_time": 3.436, "note_off_time": 3.703}, {"pitch": 65, "velocity": 75, "note_on_time": 3.697, "note_off_time": 3.972}, {"pitch": 60, "velocity": 76, "note_on_time": 3.964, "note_off_time": 4.246}, {"pitch": 67, "velocity": 77, "note_on_time": 4.231, "note_off_time": 4.48}, {"pitch": 64, "velocity": 83, "note_on_time": 4.472, "note_off_time": 4.899}, {"pitch": 60, "velocity": 77, "note_on_time": 5.293, "note_off_time": 5.503}, {"pitch": 67, "velocity": 81, "note_on_time": 5.562, "note_off_time": 6.101}, {"pitch": 60, "velocity": 71, "note_on_time": 6.096, "note_off_time": 6.391}, {"pitch": 64, "velocity": 84, "note_on_time": 6.374, "note_off_time": 6.629}, {"pitch": 60, "velocity": 77, "note_on_time": 6.623, "note_off_time": 6.883}, {"pitch": 62, "velocity": 75, "note_on_time": 6.88, "note_off_time": 7.153}, {"pitch": 67, "velocity": 73, "note_on_time": 7.138, "note_off_time": 7.422}, {"pitch": 60, "velocity": 77, "note_on_time": 7.396, "note_off_time": 7.669}, {"pitch": 64, "velocity": 76, "note_on_time": 7.644, "note_off_time": 7.932}, {"pitch": 67, "velocity": 77, "note_on_time": 7.92, "note_off_time": 8.211}, {"pitch": 65, "velocity": 79, "note_on_time": 8.192, "note_off_time": 8.504}, {"pitch": 65, "velocity": 91, "note_on_time": 8.756, "note_off_time": 8.847}, {"pitch": 65, "velocity": 93, "note_on_time": 9.01, "note_off_time": 9.104}, {"pitch": 65, "velocity": 104, "note_on_time": 9.274, "note_off_time": 9.386}]</notes><guidance name="Guidance Mode">None</guidance><error name="Error value">0.012967199999999846</error></trial><trial trial_no="3" timestamp="2022_10_26-14_01_28"><notes name="Played Notes">[{"pitch": 60, "velocity": 82, "note_on_time": 1.067, "note_off_time": 1.366}, {"pitch": 64, "velocity": 70, "note_on_time": 1.336, "note_off_time": 1.629}, {"pitch": 60, "velocity": 76, "note_on_time": 1.614, "note_off_time": 1.856}, {"pitch": 67, "velocity": 70, "note_on_time": 1.862, "note_off_time": 2.129}, {"pitch": 65, "velocity": 73, "note_on_time": 2.121, "note_off_time": 2.219}, {"pitch": 65, "velocity": 72, "note_on_time": 2.351, "note_off_time": 2.643}, {"pitch": 60, "velocity": 81, "note_on_time": 2.633, "note_off_time": 2.932}, {"pitch": 64, "velocity": 72, "note_on_time": 2.908, "note_off_time": 3.191}, {"pitch": 62, "velocity": 74, "note_on_time": 3.183, "note_off_time": 3.48}, {"pitch": 64, "velocity": 79, "note_on_time": 3.449, "note_off_time": 3.686}, {"pitch": 65, "velocity": 75, "note_on_time": 3.697, "note_off_time": 3.987}, {"pitch": 60, "velocity": 79, "note_on_time": 3.971, "note_off_time": 4.263}, {"pitch": 67, "velocity": 77, "note_on_time": 4.25, "note_off_time": 4.51}, {"pitch": 64, "velocity": 91, "note_on_time": 4.503, "note_off_time": 4.983}, {"pitch": 60, "velocity": 69, "note_on_time": 5.327, "note_off_time": 5.571}, {"pitch": 67, "velocity": 77, "note_on_time": 5.6, "note_off_time": 6.111}, {"pitch": 60, "velocity": 69, "note_on_time": 6.105, "note_off_time": 6.379}, {"pitch": 64, "velocity": 80, "note_on_time": 6.356, "note_off_time": 6.601}, {"pitch": 60, "velocity": 84, "note_on_time": 6.604, "note_off_time": 6.896}, {"pitch": 62, "velocity": 80, "note_on_time": 6.88, "note_off_time": 7.13}, {"pitch": 67, "velocity": 79, "note_on_time": 7.133, "note_off_time": 7.4}, {"pitch": 60, "velocity": 81, "note_on_time": 7.4, "note_off_time": 7.694}, {"pitch": 64, "velocity": 72, "note_on_time": 7.676, "note_off_time": 7.952}, {"pitch": 67, "velocity": 82, "note_on_time": 7.947, "note_off_time": 8.21}, {"pitch": 65, "velocity": 78, "note_on_time": 8.203, "note_off_time": 8.49}, {"pitch": 65, "velocity": 92, "note_on_time": 8.755, "note_off_time": 8.841}, {"pitch": 65, "velocity": 92, "note_on_time": 9.012, "note_off_time": 9.109}, {"pitch": 65, "velocity": 108, "note_on_time": 9.27, "note_off_time": 9.362}]</notes><guidance name="Guidance Mode">None</guidance><error name="Error value">0.01514640000000008</error></trial><trial trial_no="4" timestamp="2022_10_26-14_01_51"><notes name="Played Notes">[{"pitch": 60, "velocity": 79, "note_on_time": 1.098, "note_off_time": 1.397}, {"pitch": 64, "velocity": 66, "note_on_time": 1.36, "note_off_time": 1.655}, {"pitch": 60, "velocity": 79, "note_on_time": 1.632, "note_off_time": 1.911}, {"pitch": 67, "velocity": 69, "note_on_time": 1.899, "note_off_time": 2.154}, {"pitch": 65, "velocity": 67, "note_on_time": 2.15, "note_off_time": 2.244}, {"pitch": 65, "velocity": 76, "note_on_time": 2.391, "note_off_time": 2.663}, {"pitch": 60, "velocity": 71, "note_on_time": 2.661, "note_off_time": 2.934}, {"pitch": 64, "velocity": 73, "note_on_time": 2.913, "note_off_time": 3.163}, {"pitch": 62, "velocity": 69, "note_on_time": 3.163, "note_off_time": 3.453}, {"pitch": 64, "velocity": 69, "note_on_time": 3.424, "note_off_time": 3.669}, {"pitch": 65, "velocity": 69, "note_on_time": 3.689, "note_off_time": 3.986}, {"pitch": 60, "velocity": 72, "note_on_time": 3.971, "note_off_time": 4.287}, {"pitch": 67, "velocity": 73, "note_on_time": 4.272, "note_off_time": 4.541}, {"pitch": 64, "velocity": 83, "note_on_time": 4.528, "note_off_time": 4.863}, {"pitch": 60, "velocity": 72, "note_on_time": 5.328, "note_off_time": 5.605}, {"pitch": 67, "velocity": 77, "note_on_time": 5.603, "note_off_time": 6.114}, {"pitch": 60, "velocity": 72, "note_on_time": 6.104, "note_off_time": 6.4}, {"pitch": 64, "velocity": 76, "note_on_time": 6.376, "note_off_time": 6.643}, {"pitch": 60, "velocity": 70, "note_on_time": 6.643, "note_off_time": 6.917}, {"pitch": 62, "velocity": 66, "note_on_time": 6.906, "note_off_time": 7.184}, {"pitch": 67, "velocity": 71, "note_on_time": 7.179, "note_off_time": 7.449}, {"pitch": 60, "velocity": 71, "note_on_time": 7.437, "note_off_time": 7.725}, {"pitch": 64, "velocity": 68, "note_on_time": 7.699, "note_off_time": 7.974}, {"pitch": 67, "velocity": 73, "note_on_time": 7.962, "note_off_time": 8.227}, {"pitch": 65, "velocity": 71, "note_on_time": 8.22, "note_off_time": 8.495}, {"pitch": 65, "velocity": 91, "note_on_time": 8.793, "note_off_time": 8.881}, {"pitch": 65, "velocity": 92, "note_on_time": 9.037, "note_off_time": 9.139}, {"pitch": 65, "velocity": 102, "note_on_time": 9.315, "note_off_time": 9.405}]</notes><guidance name="Guidance Mode">None</guidance><error name="Error value">0.014007199999999864</error></trial></trials></MIDI>