<MIDI midiNo="2022_11_10-11_26_31"><target_notes><notes name="Note List">[{"pitch": 42, "velocity": 80, "note_on_time": 0.005, "note_off_time": 0.732}, {"pitch": 42, "velocity": 80, "note_on_time": 0.732, "note_off_time": 1.458}, {"pitch": 42, "velocity": 80, "note_on_time": 1.458, "note_off_time": 2.188}, {"pitch": 42, "velocity": 80, "note_on_time": 2.188, "note_off_time": 2.922}, {"pitch": 42, "velocity": 80, "note_on_time": 2.922, "note_off_time": 3.653}, {"pitch": 60, "velocity": 80, "note_on_time": 2.921, "note_off_time": 4.383}, {"pitch": 42, "velocity": 80, "note_on_time": 3.653, "note_off_time": 4.383}, {"pitch": 42, "velocity": 80, "note_on_time": 4.383, "note_off_time": 5.115}, {"pitch": 42, "velocity": 80, "note_on_time": 5.115, "note_off_time": 5.848}, {"pitch": 60, "velocity": 80, "note_on_time": 5.848, "note_off_time": 6.577}, {"pitch": 42, "velocity": 80, "note_on_time": 5.848, "note_off_time": 6.577}, {"pitch": 60, "velocity": 80, "note_on_time": 6.577, "note_off_time": 7.305}, {"pitch": 42, "velocity": 80, "note_on_time": 6.577, "note_off_time": 7.306}, {"pitch": 64, "velocity": 80, "note_on_time": 7.305, "note_off_time": 8.035}, {"pitch": 42, "velocity": 80, "note_on_time": 7.306, "note_off_time": 8.035}, {"pitch": 60, "velocity": 80, "note_on_time": 8.035, "note_off_time": 8.771}, {"pitch": 42, "velocity": 80, "note_on_time": 8.035, "note_off_time": 8.771}, {"pitch": 64, "velocity": 80, "note_on_time": 8.771, "note_off_time": 9.501}, {"pitch": 42, "velocity": 80, "note_on_time": 8.771, "note_off_time": 9.501}, {"pitch": 62, "velocity": 80, "note_on_time": 9.501, "note_off_time": 10.227}, {"pitch": 42, "velocity": 80, "note_on_time": 9.501, "note_off_time": 10.227}, {"pitch": 60, "velocity": 80, "note_on_time": 10.227, "note_off_time": 10.955}, {"pitch": 42, "velocity": 80, "note_on_time": 10.228, "note_off_time": 10.956}, {"pitch": 64, "velocity": 80, "note_on_time": 10.955, "note_off_time": 11.684}, {"pitch": 42, "velocity": 80, "note_on_time": 10.956, "note_off_time": 11.685}, {"pitch": 60, "velocity": 80, "note_on_time": 11.684, "note_off_time": 12.418}, {"pitch": 42, "velocity": 80, "note_on_time": 11.685, "note_off_time": 12.419}, {"pitch": 42, "velocity": 80, "note_on_time": 12.419, "note_off_time": 13.151}, {"pitch": 42, "velocity": 80, "note_on_time": 13.151, "note_off_time": 13.882}, {"pitch": 42, "velocity": 80, "note_on_time": 13.883, "note_off_time": 14.615}, {"pitch": 60, "velocity": 80, "note_on_time": 14.615, "note_off_time": 15.345}, {"pitch": 42, "velocity": 80, "note_on_time": 14.615, "note_off_time": 15.345}, {"pitch": 62, "velocity": 80, "note_on_time": 15.345, "note_off_time": 16.077}, {"pitch": 42, "velocity": 80, "note_on_time": 15.345, "note_off_time": 16.077}, {"pitch": 64, "velocity": 80, "note_on_time": 16.077, "note_off_time": 16.807}, {"pitch": 42, "velocity": 80, "note_on_time": 16.077, "note_off_time": 16.807}, {"pitch": 64, "velocity": 80, "note_on_time": 16.807, "note_off_time": 17.538}, {"pitch": 42, "velocity": 80, "note_on_time": 16.807, "note_off_time": 17.538}, {"pitch": 62, "velocity": 80, "note_on_time": 17.538, "note_off_time": 18.266}, {"pitch": 42, "velocity": 80, "note_on_time": 17.538, "note_off_time": 18.266}, {"pitch": 42, "velocity": 80, "note_on_time": 18.267, "note_off_time": 18.996}, {"pitch": 64, "velocity": 80, "note_on_time": 18.266, "note_off_time": 19.73}, {"pitch": 42, "velocity": 80, "note_on_time": 18.997, "note_off_time": 19.73}, {"pitch": 42, "velocity": 80, "note_on_time": 19.73, "note_off_time": 20.459}, {"pitch": 42, "velocity": 80, "note_on_time": 20.46, "note_off_time": 21.189}, {"pitch": 64, "velocity": 80, "note_on_time": 20.459, "note_off_time": 21.92}, {"pitch": 42, "velocity": 80, "note_on_time": 21.19, "note_off_time": 21.921}, {"pitch": 42, "velocity": 80, "note_on_time": 21.921, "note_off_time": 22.648}, {"pitch": 42, "velocity": 80, "note_on_time": 22.648, "note_off_time": 23.378}, {"pitch": 42, "velocity": 80, "note_on_time": 23.378, "note_off_time": 24.111}, {"pitch": 64, "velocity": 80, "note_on_time": 24.11, "note_off_time": 24.842}, {"pitch": 42, "velocity": 80, "note_on_time": 24.111, "note_off_time": 24.843}, {"pitch": 64, "velocity": 80, "note_on_time": 24.842, "note_off_time": 25.569}, {"pitch": 42, "velocity": 80, "note_on_time": 24.843, "note_off_time": 25.569}, {"pitch": 64, "velocity": 80, "note_on_time": 25.569, "note_off_time": 26.301}, {"pitch": 42, "velocity": 80, "note_on_time": 25.569, "note_off_time": 26.301}]</notes><options name="Option List">((4, 4), [0.5, 0.25], 3, 8, &lt;NoteRangePerHand.THREE_NOTES: 4&gt;, &lt;NoteRangePerHand.ONE_NOTE: 2&gt;, False, True, False, 83)</options></target_notes><trials><trial trial_no="1" timestamp="2022_11_10-11_26_04"><notes name="Played Notes">[{"pitch": 60, "velocity": 84, "note_on_time": 2.905, "note_off_time": 3.847}, {"pitch": 60, "velocity": 80, "note_on_time": 5.846, "note_off_time": 6.229}, {"pitch": 60, "velocity": 76, "note_on_time": 6.588, "note_off_time": 6.842}, {"pitch": 64, "velocity": 83, "note_on_time": 7.297, "note_off_time": 7.538}, {"pitch": 60, "velocity": 79, "note_on_time": 8.023, "note_off_time": 8.247}, {"pitch": 64, "velocity": 76, "note_on_time": 8.717, "note_off_time": 8.962}, {"pitch": 62, "velocity": 81, "note_on_time": 9.407, "note_off_time": 9.65}, {"pitch": 60, "velocity": 84, "note_on_time": 10.113, "note_off_time": 10.377}, {"pitch": 62, "velocity": 75, "note_on_time": 11.099, "note_off_time": 11.199}, {"pitch": 64, "velocity": 36, "note_on_time": 11.24, "note_off_time": 11.388}, {"pitch": 60, "velocity": 80, "note_on_time": 11.89, "note_off_time": 12.191}, {"pitch": 60, "velocity": 92, "note_on_time": 13.882, "note_off_time": 14.229}, {"pitch": 62, "velocity": 79, "note_on_time": 14.636, "note_off_time": 14.955}, {"pitch": 64, "velocity": 74, "note_on_time": 15.339, "note_off_time": 15.658}, {"pitch": 64, "velocity": 68, "note_on_time": 16.069, "note_off_time": 16.331}, {"pitch": 62, "velocity": 79, "note_on_time": 16.781, "note_off_time": 17.064}, {"pitch": 64, "velocity": 79, "note_on_time": 17.47, "note_off_time": 18.485}, {"pitch": 64, "velocity": 78, "note_on_time": 19.674, "note_off_time": 20.679}, {"pitch": 64, "velocity": 76, "note_on_time": 23.325, "note_off_time": 23.671}, {"pitch": 64, "velocity": 76, "note_on_time": 24.019, "note_off_time": 24.328}, {"pitch": 64, "velocity": 84, "note_on_time": 24.747, "note_off_time": 25.202}]</notes><guidance name="Guidance Mode">None</guidance><error name="Error value">0.2617379411764704</error></trial></trials></MIDI>