<MIDI midiNo="2022_08_17-16_20_41"><target_notes><notes name="Note List">[{"pitch": 42, "velocity": 80, "note_on_time": 0.004, "note_off_time": 1.214}, {"pitch": 42, "velocity": 80, "note_on_time": 1.214, "note_off_time": 2.426}, {"pitch": 42, "velocity": 80, "note_on_time": 2.426, "note_off_time": 3.638}, {"pitch": 42, "velocity": 80, "note_on_time": 3.638, "note_off_time": 4.848}, {"pitch": 67, "velocity": 80, "note_on_time": 4.848, "note_off_time": 6.059}, {"pitch": 42, "velocity": 80, "note_on_time": 4.848, "note_off_time": 6.059}, {"pitch": 65, "velocity": 80, "note_on_time": 6.059, "note_off_time": 7.271}, {"pitch": 42, "velocity": 80, "note_on_time": 6.059, "note_off_time": 7.271}, {"pitch": 42, "velocity": 80, "note_on_time": 7.271, "note_off_time": 8.471}, {"pitch": 62, "velocity": 80, "note_on_time": 7.271, "note_off_time": 9.681}, {"pitch": 42, "velocity": 80, "note_on_time": 8.471, "note_off_time": 9.681}, {"pitch": 65, "velocity": 80, "note_on_time": 9.681, "note_off_time": 10.893}, {"pitch": 42, "velocity": 80, "note_on_time": 9.681, "note_off_time": 10.893}, {"pitch": 64, "velocity": 80, "note_on_time": 10.893, "note_off_time": 12.101}, {"pitch": 42, "velocity": 80, "note_on_time": 10.893, "note_off_time": 12.101}, {"pitch": 65, "velocity": 80, "note_on_time": 12.101, "note_off_time": 13.317}, {"pitch": 42, "velocity": 80, "note_on_time": 12.101, "note_off_time": 13.317}, {"pitch": 64, "velocity": 80, "note_on_time": 13.317, "note_off_time": 14.519}, {"pitch": 42, "velocity": 80, "note_on_time": 13.317, "note_off_time": 14.519}, {"pitch": 42, "velocity": 80, "note_on_time": 14.52, "note_off_time": 15.722}, {"pitch": 62, "velocity": 80, "note_on_time": 14.519, "note_off_time": 16.931}, {"pitch": 42, "velocity": 80, "note_on_time": 15.722, "note_off_time": 16.931}, {"pitch": 42, "velocity": 80, "note_on_time": 16.931, "note_off_time": 18.146}, {"pitch": 42, "velocity": 80, "note_on_time": 18.147, "note_off_time": 19.351}, {"pitch": 42, "velocity": 80, "note_on_time": 19.352, "note_off_time": 20.554}, {"pitch": 62, "velocity": 80, "note_on_time": 19.351, "note_off_time": 21.77}, {"pitch": 42, "velocity": 80, "note_on_time": 20.554, "note_off_time": 21.77}, {"pitch": 42, "velocity": 80, "note_on_time": 21.77, "note_off_time": 22.971}, {"pitch": 42, "velocity": 80, "note_on_time": 22.971, "note_off_time": 24.177}, {"pitch": 42, "velocity": 80, "note_on_time": 24.178, "note_off_time": 25.38}, {"pitch": 64, "velocity": 80, "note_on_time": 24.177, "note_off_time": 26.583}, {"pitch": 42, "velocity": 80, "note_on_time": 25.38, "note_off_time": 26.583}, {"pitch": 42, "velocity": 80, "note_on_time": 26.583, "note_off_time": 27.79}, {"pitch": 42, "velocity": 80, "note_on_time": 27.79, "note_off_time": 28.996}, {"pitch": 42, "velocity": 80, "note_on_time": 28.996, "note_off_time": 30.197}, {"pitch": 67, "velocity": 80, "note_on_time": 28.996, "note_off_time": 31.399}, {"pitch": 42, "velocity": 80, "note_on_time": 30.197, "note_off_time": 31.399}, {"pitch": 42, "velocity": 80, "note_on_time": 31.4, "note_off_time": 32.604}, {"pitch": 42, "velocity": 80, "note_on_time": 32.604, "note_off_time": 33.82}, {"pitch": 67, "velocity": 80, "note_on_time": 33.819, "note_off_time": 35.035}, {"pitch": 42, "velocity": 80, "note_on_time": 33.82, "note_off_time": 35.035}, {"pitch": 60, "velocity": 80, "note_on_time": 35.035, "note_off_time": 36.239}, {"pitch": 42, "velocity": 80, "note_on_time": 35.035, "note_off_time": 36.239}, {"pitch": 67, "velocity": 80, "note_on_time": 36.239, "note_off_time": 37.443}, {"pitch": 42, "velocity": 80, "note_on_time": 36.24, "note_off_time": 37.443}, {"pitch": 64, "velocity": 80, "note_on_time": 37.443, "note_off_time": 38.649}, {"pitch": 42, "velocity": 80, "note_on_time": 37.444, "note_off_time": 38.649}, {"pitch": 42, "velocity": 80, "note_on_time": 38.65, "note_off_time": 39.854}, {"pitch": 64, "velocity": 80, "note_on_time": 39.854, "note_off_time": 41.056}, {"pitch": 42, "velocity": 80, "note_on_time": 39.854, "note_off_time": 41.056}, {"pitch": 64, "velocity": 80, "note_on_time": 41.056, "note_off_time": 42.271}, {"pitch": 42, "velocity": 80, "note_on_time": 41.056, "note_off_time": 42.272}, {"pitch": 64, "velocity": 80, "note_on_time": 42.271, "note_off_time": 43.486}, {"pitch": 42, "velocity": 80, "note_on_time": 42.272, "note_off_time": 43.486}]</notes><options name="Option List">((4, 4), [0.5, 0.25], 3, 8, &lt;NoteRangePerHand.C_TO_G: 6&gt;, &lt;NoteRangePerHand.ONE_NOTE: 2&gt;, False, True, True, '50')</options></target_notes><trials><trial trial_no="1" timestamp="2022_08_17-16_19_56"><notes name="Played Notes">[{"pitch": 67, "velocity": 71, "note_on_time": 4.855, "note_off_time": 6.019}, {"pitch": 65, "velocity": 79, "note_on_time": 6.022, "note_off_time": 7.173}, {"pitch": 62, "velocity": 71, "note_on_time": 7.193, "note_off_time": 8.432}, {"pitch": 65, "velocity": 70, "note_on_time": 9.666, "note_off_time": 10.852}, {"pitch": 64, "velocity": 70, "note_on_time": 10.855, "note_off_time": 12.056}, {"pitch": 65, "velocity": 64, "note_on_time": 12.079, "note_off_time": 13.3}, {"pitch": 64, "velocity": 65, "note_on_time": 13.27, "note_off_time": 14.462}, {"pitch": 62, "velocity": 63, "note_on_time": 14.459, "note_off_time": 15.468}, {"pitch": 62, "velocity": 66, "note_on_time": 19.334, "note_off_time": 21.221}, {"pitch": 64, "velocity": 65, "note_on_time": 24.114, "note_off_time": 26.379}, {"pitch": 67, "velocity": 71, "note_on_time": 28.959, "note_off_time": 31.438}, {"pitch": 67, "velocity": 61, "note_on_time": 33.794, "note_off_time": 34.878}, {"pitch": 60, "velocity": 66, "note_on_time": 34.898, "note_off_time": 36.175}, {"pitch": 67, "velocity": 59, "note_on_time": 36.165, "note_off_time": 37.406}, {"pitch": 64, "velocity": 67, "note_on_time": 37.396, "note_off_time": 38.473}, {"pitch": 64, "velocity": 62, "note_on_time": 39.75, "note_off_time": 40.601}, {"pitch": 64, "velocity": 65, "note_on_time": 40.931, "note_off_time": 41.704}, {"pitch": 64, "velocity": 68, "note_on_time": 42.177, "note_off_time": 43.085}]</notes><guidance name="Guidance Mode">None</guidance><error name="Error value">0.04466666666666672</error></trial><trial trial_no="2" timestamp="2022_08_17-16_20_47"><notes name="Played Notes">[{"pitch": 67, "velocity": 66, "note_on_time": 4.8, "note_off_time": 5.982}, {"pitch": 65, "velocity": 69, "note_on_time": 5.992, "note_off_time": 7.151}, {"pitch": 67, "velocity": 3, "note_on_time": 7.238, "note_off_time": 7.404}, {"pitch": 64, "velocity": 1, "note_on_time": 7.26, "note_off_time": 7.64}, {"pitch": 62, "velocity": 43, "note_on_time": 7.481, "note_off_time": 8.29}, {"pitch": 64, "velocity": 64, "note_on_time": 9.661, "note_off_time": 9.904}, {"pitch": 65, "velocity": 53, "note_on_time": 9.918, "note_off_time": 10.755}, {"pitch": 64, "velocity": 55, "note_on_time": 10.76, "note_off_time": 11.891}, {"pitch": 65, "velocity": 77, "note_on_time": 12.073, "note_off_time": 13.258}, {"pitch": 64, "velocity": 65, "note_on_time": 13.252, "note_off_time": 14.41}, {"pitch": 62, "velocity": 60, "note_on_time": 14.408, "note_off_time": 15.564}, {"pitch": 62, "velocity": 67, "note_on_time": 19.304, "note_off_time": 21.696}, {"pitch": 64, "velocity": 67, "note_on_time": 24.167, "note_off_time": 26.516}, {"pitch": 67, "velocity": 72, "note_on_time": 28.846, "note_off_time": 31.239}, {"pitch": 67, "velocity": 71, "note_on_time": 33.803, "note_off_time": 35.014}, {"pitch": 60, "velocity": 68, "note_on_time": 35.032, "note_off_time": 36.197}, {"pitch": 67, "velocity": 67, "note_on_time": 36.174, "note_off_time": 37.383}, {"pitch": 64, "velocity": 64, "note_on_time": 37.394, "note_off_time": 38.345}, {"pitch": 64, "velocity": 71, "note_on_time": 39.764, "note_off_time": 40.618}, {"pitch": 64, "velocity": 69, "note_on_time": 40.958, "note_off_time": 41.835}, {"pitch": 64, "velocity": 70, "note_on_time": 42.216, "note_off_time": 43.129}]</notes><guidance name="Guidance Mode">None</guidance><error name="Error value">2.720400000000001</error></trial><trial trial_no="3" timestamp="2022_08_17-16_21_46"><notes name="Played Notes">[{"pitch": 65, "velocity": 62, "note_on_time": 4.843, "note_off_time": 6.033}, {"pitch": 64, "velocity": 68, "note_on_time": 6.042, "note_off_time": 7.224}, {"pitch": 62, "velocity": 63, "note_on_time": 7.229, "note_off_time": 8.411}, {"pitch": 65, "velocity": 45, "note_on_time": 9.748, "note_off_time": 10.852}, {"pitch": 64, "velocity": 57, "note_on_time": 10.85, "note_off_time": 11.974}, {"pitch": 65, "velocity": 57, "note_on_time": 11.988, "note_off_time": 13.257}, {"pitch": 64, "velocity": 63, "note_on_time": 13.229, "note_off_time": 14.447}, {"pitch": 62, "velocity": 61, "note_on_time": 14.461, "note_off_time": 15.47}, {"pitch": 62, "velocity": 67, "note_on_time": 19.287, "note_off_time": 21.106}, {"pitch": 64, "velocity": 67, "note_on_time": 24.112, "note_off_time": 26.251}, {"pitch": 67, "velocity": 73, "note_on_time": 28.949, "note_off_time": 31.277}, {"pitch": 67, "velocity": 66, "note_on_time": 33.766, "note_off_time": 34.897}, {"pitch": 60, "velocity": 59, "note_on_time": 34.95, "note_off_time": 36.133}, {"pitch": 67, "velocity": 63, "note_on_time": 36.123, "note_off_time": 37.388}, {"pitch": 64, "velocity": 67, "note_on_time": 37.388, "note_off_time": 38.457}, {"pitch": 64, "velocity": 68, "note_on_time": 39.803, "note_off_time": 40.703}, {"pitch": 64, "velocity": 70, "note_on_time": 40.982, "note_off_time": 41.715}]</notes><guidance name="Guidance Mode">None</guidance><error name="Error value">0.32000000000000106</error></trial><trial trial_no="4" timestamp="2022_08_17-16_23_01"><notes name="Played Notes">[{"pitch": 67, "velocity": 67, "note_on_time": 4.847, "note_off_time": 5.975}, {"pitch": 65, "velocity": 65, "note_on_time": 5.991, "note_off_time": 7.144}, {"pitch": 62, "velocity": 69, "note_on_time": 7.153, "note_off_time": 8.408}, {"pitch": 65, "velocity": 64, "note_on_time": 9.585, "note_off_time": 10.778}, {"pitch": 64, "velocity": 68, "note_on_time": 10.783, "note_off_time": 11.985}, {"pitch": 65, "velocity": 61, "note_on_time": 12.019, "note_off_time": 13.108}, {"pitch": 64, "velocity": 62, "note_on_time": 13.117, "note_off_time": 14.385}, {"pitch": 62, "velocity": 58, "note_on_time": 14.406, "note_off_time": 15.998}, {"pitch": 62, "velocity": 60, "note_on_time": 19.289, "note_off_time": 21.669}, {"pitch": 64, "velocity": 71, "note_on_time": 24.073, "note_off_time": 26.57}, {"pitch": 67, "velocity": 67, "note_on_time": 28.883, "note_off_time": 31.372}, {"pitch": 67, "velocity": 64, "note_on_time": 33.701, "note_off_time": 34.857}, {"pitch": 60, "velocity": 59, "note_on_time": 34.883, "note_off_time": 36.117}, {"pitch": 67, "velocity": 60, "note_on_time": 36.067, "note_off_time": 37.264}, {"pitch": 64, "velocity": 68, "note_on_time": 37.265, "note_off_time": 38.34}, {"pitch": 64, "velocity": 68, "note_on_time": 39.737, "note_off_time": 40.61}, {"pitch": 64, "velocity": 58, "note_on_time": 40.901, "note_off_time": 41.683}, {"pitch": 64, "velocity": 72, "note_on_time": 42.116, "note_off_time": 43.342}]</notes><guidance name="Guidance Mode">None</guidance><error name="Error value">0.04273333333333393</error></trial><trial trial_no="5" timestamp="2022_08_17-16_23_57"><notes name="Played Notes">[{"pitch": 67, "velocity": 67, "note_on_time": 4.881, "note_off_time": 6.014}, {"pitch": 65, "velocity": 70, "note_on_time": 6.016, "note_off_time": 7.164}, {"pitch": 62, "velocity": 58, "note_on_time": 7.194, "note_off_time": 8.333}, {"pitch": 65, "velocity": 54, "note_on_time": 9.649, "note_off_time": 10.775}, {"pitch": 64, "velocity": 62, "note_on_time": 10.78, "note_off_time": 11.957}, {"pitch": 65, "velocity": 61, "note_on_time": 12.022, "note_off_time": 13.209}, {"pitch": 64, "velocity": 68, "note_on_time": 13.208, "note_off_time": 14.359}, {"pitch": 62, "velocity": 59, "note_on_time": 14.371, "note_off_time": 16.332}, {"pitch": 62, "velocity": 54, "note_on_time": 19.282, "note_off_time": 21.661}, {"pitch": 64, "velocity": 64, "note_on_time": 24.069, "note_off_time": 26.532}, {"pitch": 67, "velocity": 70, "note_on_time": 28.902, "note_off_time": 31.312}, {"pitch": 67, "velocity": 69, "note_on_time": 33.687, "note_off_time": 34.892}, {"pitch": 60, "velocity": 70, "note_on_time": 34.914, "note_off_time": 36.153}, {"pitch": 67, "velocity": 76, "note_on_time": 36.136, "note_off_time": 37.363}, {"pitch": 64, "velocity": 68, "note_on_time": 37.362, "note_off_time": 38.268}, {"pitch": 64, "velocity": 62, "note_on_time": 39.767, "note_off_time": 40.626}, {"pitch": 64, "velocity": 66, "note_on_time": 40.957, "note_off_time": 41.729}]</notes><guidance name="Guidance Mode">None</guidance><error name="Error value">0.18406666666666716</error></trial><trial trial_no="6" timestamp="2022_08_17-16_25_17"><notes name="Played Notes">[{"pitch": 67, "velocity": 64, "note_on_time": 4.811, "note_off_time": 6.002}, {"pitch": 65, "velocity": 60, "note_on_time": 6.006, "note_off_time": 7.141}, {"pitch": 62, "velocity": 62, "note_on_time": 7.167, "note_off_time": 8.664}, {"pitch": 65, "velocity": 62, "note_on_time": 9.558, "note_off_time": 10.811}, {"pitch": 64, "velocity": 68, "note_on_time": 10.807, "note_off_time": 11.924}, {"pitch": 65, "velocity": 68, "note_on_time": 11.948, "note_off_time": 13.227}, {"pitch": 64, "velocity": 68, "note_on_time": 13.225, "note_off_time": 14.476}, {"pitch": 62, "velocity": 65, "note_on_time": 14.485, "note_off_time": 16.688}, {"pitch": 62, "velocity": 58, "note_on_time": 19.306, "note_off_time": 21.686}, {"pitch": 64, "velocity": 66, "note_on_time": 24.147, "note_off_time": 26.449}, {"pitch": 67, "velocity": 70, "note_on_time": 28.946, "note_off_time": 31.303}, {"pitch": 67, "velocity": 68, "note_on_time": 33.764, "note_off_time": 34.897}, {"pitch": 60, "velocity": 67, "note_on_time": 34.918, "note_off_time": 36.138}, {"pitch": 67, "velocity": 64, "note_on_time": 36.111, "note_off_time": 37.248}, {"pitch": 64, "velocity": 54, "note_on_time": 37.281, "note_off_time": 38.315}, {"pitch": 64, "velocity": 60, "note_on_time": 39.799, "note_off_time": 40.649}, {"pitch": 64, "velocity": 64, "note_on_time": 40.962, "note_off_time": 41.743}]</notes><guidance name="Guidance Mode">None</guidance><error name="Error value">3.9833333333333347</error></trial></trials></MIDI>