<MIDI midiNo="2022_12_22-10_42_29"><target_notes><notes name="Note List">[{"pitch": 42, "velocity": 80, "note_on_time": 0.005, "note_off_time": 1.043}, {"pitch": 42, "velocity": 80, "note_on_time": 1.043, "note_off_time": 2.082}, {"pitch": 42, "velocity": 80, "note_on_time": 2.082, "note_off_time": 3.119}, {"pitch": 42, "velocity": 80, "note_on_time": 3.12, "note_off_time": 4.157}, {"pitch": 60, "velocity": 80, "note_on_time": 4.157, "note_off_time": 5.193}, {"pitch": 42, "velocity": 80, "note_on_time": 4.158, "note_off_time": 5.193}, {"pitch": 62, "velocity": 80, "note_on_time": 5.193, "note_off_time": 6.231}, {"pitch": 42, "velocity": 80, "note_on_time": 5.194, "note_off_time": 6.231}, {"pitch": 62, "velocity": 80, "note_on_time": 6.231, "note_off_time": 7.271}, {"pitch": 42, "velocity": 80, "note_on_time": 6.231, "note_off_time": 7.272}, {"pitch": 64, "velocity": 80, "note_on_time": 7.271, "note_off_time": 8.312}, {"pitch": 42, "velocity": 80, "note_on_time": 7.272, "note_off_time": 8.313}, {"pitch": 60, "velocity": 80, "note_on_time": 8.312, "note_off_time": 9.352}, {"pitch": 42, "velocity": 80, "note_on_time": 8.313, "note_off_time": 9.352}, {"pitch": 60, "velocity": 80, "note_on_time": 9.352, "note_off_time": 10.394}, {"pitch": 42, "velocity": 80, "note_on_time": 9.353, "note_off_time": 10.394}, {"pitch": 62, "velocity": 80, "note_on_time": 10.394, "note_off_time": 11.43}, {"pitch": 42, "velocity": 80, "note_on_time": 10.394, "note_off_time": 11.431}, {"pitch": 64, "velocity": 80, "note_on_time": 11.43, "note_off_time": 12.467}, {"pitch": 42, "velocity": 80, "note_on_time": 11.431, "note_off_time": 12.467}, {"pitch": 64, "velocity": 80, "note_on_time": 12.467, "note_off_time": 13.505}, {"pitch": 42, "velocity": 80, "note_on_time": 12.468, "note_off_time": 13.505}, {"pitch": 60, "velocity": 80, "note_on_time": 13.505, "note_off_time": 14.543}, {"pitch": 42, "velocity": 80, "note_on_time": 13.506, "note_off_time": 14.543}, {"pitch": 62, "velocity": 80, "note_on_time": 14.543, "note_off_time": 15.585}, {"pitch": 42, "velocity": 80, "note_on_time": 14.543, "note_off_time": 15.585}, {"pitch": 60, "velocity": 80, "note_on_time": 15.585, "note_off_time": 16.627}, {"pitch": 42, "velocity": 80, "note_on_time": 15.585, "note_off_time": 16.627}, {"pitch": 60, "velocity": 80, "note_on_time": 16.627, "note_off_time": 17.667}, {"pitch": 42, "velocity": 80, "note_on_time": 16.627, "note_off_time": 17.667}, {"pitch": 60, "velocity": 80, "note_on_time": 17.667, "note_off_time": 18.704}, {"pitch": 42, "velocity": 80, "note_on_time": 17.667, "note_off_time": 18.704}, {"pitch": 64, "velocity": 80, "note_on_time": 18.704, "note_off_time": 19.747}, {"pitch": 42, "velocity": 80, "note_on_time": 18.704, "note_off_time": 19.747}, {"pitch": 62, "velocity": 80, "note_on_time": 19.747, "note_off_time": 20.789}, {"pitch": 42, "velocity": 80, "note_on_time": 19.748, "note_off_time": 20.789}, {"pitch": 42, "velocity": 80, "note_on_time": 20.789, "note_off_time": 21.828}, {"pitch": 64, "velocity": 80, "note_on_time": 20.789, "note_off_time": 22.877}, {"pitch": 42, "velocity": 80, "note_on_time": 21.829, "note_off_time": 22.877}, {"pitch": 42, "velocity": 80, "note_on_time": 22.877, "note_off_time": 23.921}, {"pitch": 62, "velocity": 80, "note_on_time": 23.921, "note_off_time": 24.965}, {"pitch": 42, "velocity": 80, "note_on_time": 23.921, "note_off_time": 24.965}, {"pitch": 64, "velocity": 80, "note_on_time": 24.965, "note_off_time": 26.011}, {"pitch": 42, "velocity": 80, "note_on_time": 24.965, "note_off_time": 26.011}, {"pitch": 64, "velocity": 80, "note_on_time": 26.011, "note_off_time": 27.055}, {"pitch": 42, "velocity": 80, "note_on_time": 26.011, "note_off_time": 27.056}, {"pitch": 64, "velocity": 80, "note_on_time": 27.055, "note_off_time": 28.099}, {"pitch": 42, "velocity": 80, "note_on_time": 27.056, "note_off_time": 28.1}, {"pitch": 64, "velocity": 80, "note_on_time": 28.099, "note_off_time": 29.142}, {"pitch": 42, "velocity": 80, "note_on_time": 28.1, "note_off_time": 29.142}, {"pitch": 64, "velocity": 80, "note_on_time": 29.142, "note_off_time": 30.182}, {"pitch": 42, "velocity": 80, "note_on_time": 29.142, "note_off_time": 30.182}, {"pitch": 62, "velocity": 80, "note_on_time": 30.182, "note_off_time": 31.223}, {"pitch": 42, "velocity": 80, "note_on_time": 30.183, "note_off_time": 31.223}, {"pitch": 62, "velocity": 80, "note_on_time": 31.223, "note_off_time": 32.266}, {"pitch": 42, "velocity": 80, "note_on_time": 31.223, "note_off_time": 32.266}, {"pitch": 42, "velocity": 80, "note_on_time": 32.266, "note_off_time": 33.312}, {"pitch": 42, "velocity": 80, "note_on_time": 33.312, "note_off_time": 34.354}, {"pitch": 62, "velocity": 80, "note_on_time": 34.353, "note_off_time": 35.397}, {"pitch": 42, "velocity": 80, "note_on_time": 34.354, "note_off_time": 35.398}, {"pitch": 62, "velocity": 80, "note_on_time": 35.397, "note_off_time": 36.443}, {"pitch": 42, "velocity": 80, "note_on_time": 35.398, "note_off_time": 36.443}, {"pitch": 62, "velocity": 80, "note_on_time": 36.443, "note_off_time": 37.494}, {"pitch": 42, "velocity": 80, "note_on_time": 36.443, "note_off_time": 37.494}]</notes><options name="Option List">((4, 4), [0.5, 0.25], 3, 8, &lt;NoteRangePerHand.THREE_NOTES: 4&gt;, &lt;NoteRangePerHand.ONE_NOTE: 2&gt;, False, True, False, 58)</options></target_notes><trials><trial trial_no="1" timestamp="2022_12_22-10_41_50"><notes name="Played Notes">[{"pitch": 60, "velocity": 55, "note_on_time": 4.177, "note_off_time": 4.928}, {"pitch": 62, "velocity": 56, "note_on_time": 5.222, "note_off_time": 5.624}, {"pitch": 62, "velocity": 49, "note_on_time": 6.203, "note_off_time": 6.701}, {"pitch": 64, "velocity": 60, "note_on_time": 7.212, "note_off_time": 7.701}, {"pitch": 60, "velocity": 62, "note_on_time": 8.239, "note_off_time": 8.682}, {"pitch": 60, "velocity": 62, "note_on_time": 9.231, "note_off_time": 9.664}, {"pitch": 62, "velocity": 59, "note_on_time": 10.349, "note_off_time": 10.756}, {"pitch": 64, "velocity": 49, "note_on_time": 11.283, "note_off_time": 11.774}, {"pitch": 64, "velocity": 55, "note_on_time": 12.325, "note_off_time": 12.823}, {"pitch": 60, "velocity": 47, "note_on_time": 13.383, "note_off_time": 13.907}, {"pitch": 62, "velocity": 40, "note_on_time": 14.49, "note_off_time": 14.986}, {"pitch": 60, "velocity": 44, "note_on_time": 15.431, "note_off_time": 15.985}, {"pitch": 60, "velocity": 50, "note_on_time": 16.481, "note_off_time": 16.975}, {"pitch": 60, "velocity": 56, "note_on_time": 17.514, "note_off_time": 18.035}, {"pitch": 64, "velocity": 51, "note_on_time": 18.64, "note_off_time": 19.241}, {"pitch": 62, "velocity": 53, "note_on_time": 19.658, "note_off_time": 20.052}, {"pitch": 64, "velocity": 49, "note_on_time": 20.692, "note_off_time": 22.186}, {"pitch": 62, "velocity": 52, "note_on_time": 23.865, "note_off_time": 24.317}, {"pitch": 64, "velocity": 53, "note_on_time": 24.924, "note_off_time": 25.364}, {"pitch": 64, "velocity": 47, "note_on_time": 25.952, "note_off_time": 26.351}, {"pitch": 64, "velocity": 33, "note_on_time": 26.927, "note_off_time": 27.399}, {"pitch": 64, "velocity": 56, "note_on_time": 28.005, "note_off_time": 28.443}, {"pitch": 64, "velocity": 55, "note_on_time": 29.063, "note_off_time": 29.448}, {"pitch": 62, "velocity": 39, "note_on_time": 30.088, "note_off_time": 30.523}, {"pitch": 62, "velocity": 58, "note_on_time": 31.212, "note_off_time": 31.634}, {"pitch": 62, "velocity": 41, "note_on_time": 34.307, "note_off_time": 34.774}, {"pitch": 62, "velocity": 53, "note_on_time": 35.301, "note_off_time": 35.719}, {"pitch": 62, "velocity": 46, "note_on_time": 36.297, "note_off_time": 36.554}]</notes><guidance name="Guidance Mode">None</guidance><error name="Error value">0.042377840000000014</error></trial></trials></MIDI>