<MIDI midiNo="2022_11_23-16_33_37"><target_notes><notes name="Note List">[{"pitch": 42, "velocity": 80, "note_on_time": 0.004, "note_off_time": 0.381}, {"pitch": 42, "velocity": 80, "note_on_time": 0.381, "note_off_time": 0.754}, {"pitch": 42, "velocity": 80, "note_on_time": 0.755, "note_off_time": 1.128}, {"pitch": 42, "velocity": 80, "note_on_time": 1.128, "note_off_time": 1.502}, {"pitch": 62, "velocity": 80, "note_on_time": 1.501, "note_off_time": 1.873}, {"pitch": 42, "velocity": 80, "note_on_time": 1.502, "note_off_time": 1.873}, {"pitch": 42, "velocity": 80, "note_on_time": 1.873, "note_off_time": 2.249}, {"pitch": 42, "velocity": 80, "note_on_time": 2.249, "note_off_time": 2.623}, {"pitch": 42, "velocity": 80, "note_on_time": 2.623, "note_off_time": 2.996}, {"pitch": 65, "velocity": 80, "note_on_time": 2.996, "note_off_time": 3.368}, {"pitch": 42, "velocity": 80, "note_on_time": 2.996, "note_off_time": 3.369}, {"pitch": 62, "velocity": 80, "note_on_time": 3.368, "note_off_time": 3.74}, {"pitch": 42, "velocity": 80, "note_on_time": 3.369, "note_off_time": 3.74}, {"pitch": 62, "velocity": 80, "note_on_time": 3.74, "note_off_time": 4.113}, {"pitch": 42, "velocity": 80, "note_on_time": 3.741, "note_off_time": 4.113}, {"pitch": 67, "velocity": 80, "note_on_time": 4.113, "note_off_time": 4.482}, {"pitch": 42, "velocity": 80, "note_on_time": 4.113, "note_off_time": 4.483}, {"pitch": 42, "velocity": 80, "note_on_time": 4.483, "note_off_time": 4.857}, {"pitch": 60, "velocity": 80, "note_on_time": 4.482, "note_off_time": 5.227}, {"pitch": 42, "velocity": 80, "note_on_time": 4.857, "note_off_time": 5.228}, {"pitch": 67, "velocity": 80, "note_on_time": 5.227, "note_off_time": 5.6}, {"pitch": 42, "velocity": 80, "note_on_time": 5.228, "note_off_time": 5.6}, {"pitch": 42, "velocity": 80, "note_on_time": 5.601, "note_off_time": 5.973}, {"pitch": 42, "velocity": 80, "note_on_time": 5.973, "note_off_time": 6.345}, {"pitch": 65, "velocity": 80, "note_on_time": 5.973, "note_off_time": 6.716}, {"pitch": 42, "velocity": 80, "note_on_time": 6.345, "note_off_time": 6.717}, {"pitch": 42, "velocity": 80, "note_on_time": 6.717, "note_off_time": 7.091}, {"pitch": 64, "velocity": 80, "note_on_time": 6.716, "note_off_time": 7.463}, {"pitch": 42, "velocity": 80, "note_on_time": 7.091, "note_off_time": 7.463}, {"pitch": 42, "velocity": 80, "note_on_time": 7.463, "note_off_time": 7.834}, {"pitch": 62, "velocity": 80, "note_on_time": 7.463, "note_off_time": 8.206}, {"pitch": 42, "velocity": 80, "note_on_time": 7.834, "note_off_time": 8.206}, {"pitch": 42, "velocity": 80, "note_on_time": 8.207, "note_off_time": 8.578}, {"pitch": 42, "velocity": 80, "note_on_time": 8.578, "note_off_time": 8.947}, {"pitch": 42, "velocity": 80, "note_on_time": 8.948, "note_off_time": 9.317}, {"pitch": 65, "velocity": 80, "note_on_time": 8.947, "note_off_time": 9.69}, {"pitch": 42, "velocity": 80, "note_on_time": 9.317, "note_off_time": 9.69}, {"pitch": 42, "velocity": 80, "note_on_time": 9.69, "note_off_time": 10.065}, {"pitch": 42, "velocity": 80, "note_on_time": 10.065, "note_off_time": 10.441}, {"pitch": 67, "velocity": 80, "note_on_time": 10.44, "note_off_time": 10.818}, {"pitch": 42, "velocity": 80, "note_on_time": 10.441, "note_off_time": 10.818}, {"pitch": 65, "velocity": 80, "note_on_time": 10.818, "note_off_time": 11.193}, {"pitch": 42, "velocity": 80, "note_on_time": 10.818, "note_off_time": 11.194}, {"pitch": 60, "velocity": 80, "note_on_time": 11.193, "note_off_time": 11.566}, {"pitch": 42, "velocity": 80, "note_on_time": 11.194, "note_off_time": 11.567}, {"pitch": 65, "velocity": 80, "note_on_time": 11.566, "note_off_time": 11.938}, {"pitch": 42, "velocity": 80, "note_on_time": 11.567, "note_off_time": 11.938}, {"pitch": 42, "velocity": 80, "note_on_time": 11.938, "note_off_time": 12.31}, {"pitch": 65, "velocity": 80, "note_on_time": 12.31, "note_off_time": 12.683}, {"pitch": 42, "velocity": 80, "note_on_time": 12.31, "note_off_time": 12.683}, {"pitch": 65, "velocity": 80, "note_on_time": 12.683, "note_off_time": 13.056}, {"pitch": 42, "velocity": 80, "note_on_time": 12.683, "note_off_time": 13.056}, {"pitch": 65, "velocity": 80, "note_on_time": 13.056, "note_off_time": 13.431}, {"pitch": 42, "velocity": 80, "note_on_time": 13.056, "note_off_time": 13.431}]</notes><options name="Option List">((4, 4), [0.5, 0.25], 3, 8, &lt;NoteRangePerHand.C_TO_G: 6&gt;, &lt;NoteRangePerHand.ONE_NOTE: 2&gt;, False, True, True, '166')</options></target_notes><trials><trial trial_no="1" timestamp="2022_11_23-16_33_22"><notes name="Played Notes">[{"pitch": 62, "velocity": 56, "note_on_time": 1.511, "note_off_time": 1.944}, {"pitch": 65, "velocity": 68, "note_on_time": 3.018, "note_off_time": 3.315}, {"pitch": 62, "velocity": 52, "note_on_time": 3.399, "note_off_time": 3.556}, {"pitch": 62, "velocity": 59, "note_on_time": 3.775, "note_off_time": 3.925}, {"pitch": 67, "velocity": 64, "note_on_time": 4.134, "note_off_time": 4.286}, {"pitch": 60, "velocity": 59, "note_on_time": 4.502, "note_off_time": 4.928}, {"pitch": 67, "velocity": 62, "note_on_time": 5.255, "note_off_time": 5.66}, {"pitch": 65, "velocity": 65, "note_on_time": 6.048, "note_off_time": 6.326}, {"pitch": 64, "velocity": 67, "note_on_time": 6.351, "note_off_time": 6.656}, {"pitch": 62, "velocity": 66, "note_on_time": 7.494, "note_off_time": 8.146}, {"pitch": 65, "velocity": 71, "note_on_time": 9.001, "note_off_time": 9.78}, {"pitch": 67, "velocity": 61, "note_on_time": 10.479, "note_off_time": 10.75}, {"pitch": 65, "velocity": 60, "note_on_time": 10.827, "note_off_time": 11.098}, {"pitch": 60, "velocity": 50, "note_on_time": 11.187, "note_off_time": 11.477}, {"pitch": 65, "velocity": 62, "note_on_time": 11.541, "note_off_time": 11.73}, {"pitch": 65, "velocity": 64, "note_on_time": 12.323, "note_off_time": 12.481}, {"pitch": 65, "velocity": 67, "note_on_time": 12.688, "note_off_time": 12.841}, {"pitch": 65, "velocity": 70, "note_on_time": 13.047, "note_off_time": 13.234}]</notes><guidance name="Guidance Mode">None</guidance><error name="Error value">0.08169566666666667</error></trial><trial trial_no="2" timestamp="2022_11_23-16_33_57"><notes name="Played Notes">[{"pitch": 62, "velocity": 80, "note_on_time": 1.463, "note_off_time": 1.784}, {"pitch": 65, "velocity": 78, "note_on_time": 3.001, "note_off_time": 3.191}, {"pitch": 62, "velocity": 69, "note_on_time": 3.368, "note_off_time": 3.495}, {"pitch": 62, "velocity": 69, "note_on_time": 3.718, "note_off_time": 3.859}, {"pitch": 67, "velocity": 73, "note_on_time": 4.089, "note_off_time": 4.226}, {"pitch": 60, "velocity": 72, "note_on_time": 4.45, "note_off_time": 4.674}, {"pitch": 67, "velocity": 78, "note_on_time": 5.238, "note_off_time": 5.561}, {"pitch": 65, "velocity": 83, "note_on_time": 5.981, "note_off_time": 6.394}, {"pitch": 64, "velocity": 82, "note_on_time": 6.72, "note_off_time": 7.188}, {"pitch": 62, "velocity": 68, "note_on_time": 7.453, "note_off_time": 7.964}, {"pitch": 65, "velocity": 76, "note_on_time": 8.954, "note_off_time": 9.419}, {"pitch": 67, "velocity": 72, "note_on_time": 10.463, "note_off_time": 10.647}, {"pitch": 65, "velocity": 68, "note_on_time": 10.814, "note_off_time": 11.002}, {"pitch": 60, "velocity": 71, "note_on_time": 11.183, "note_off_time": 11.322}, {"pitch": 65, "velocity": 76, "note_on_time": 11.529, "note_off_time": 11.685}, {"pitch": 65, "velocity": 77, "note_on_time": 12.321, "note_off_time": 12.455}, {"pitch": 65, "velocity": 72, "note_on_time": 12.681, "note_off_time": 12.825}, {"pitch": 65, "velocity": 82, "note_on_time": 13.039, "note_off_time": 13.265}]</notes><guidance name="Guidance Mode">None</guidance><error name="Error value">0.03043633333333345</error></trial><trial trial_no="3" timestamp="2022_11_23-16_34_25"><notes name="Played Notes">[{"pitch": 62, "velocity": 76, "note_on_time": 1.5, "note_off_time": 1.836}, {"pitch": 65, "velocity": 61, "note_on_time": 3.013, "note_off_time": 3.244}, {"pitch": 62, "velocity": 62, "note_on_time": 3.38, "note_off_time": 3.545}, {"pitch": 62, "velocity": 68, "note_on_time": 3.749, "note_off_time": 3.907}, {"pitch": 67, "velocity": 69, "note_on_time": 4.106, "note_off_time": 4.285}, {"pitch": 60, "velocity": 69, "note_on_time": 4.501, "note_off_time": 4.862}, {"pitch": 67, "velocity": 66, "note_on_time": 5.268, "note_off_time": 5.655}, {"pitch": 65, "velocity": 61, "note_on_time": 5.954, "note_off_time": 6.263}, {"pitch": 64, "velocity": 54, "note_on_time": 6.352, "note_off_time": 6.992}, {"pitch": 62, "velocity": 70, "note_on_time": 7.418, "note_off_time": 8.087}, {"pitch": 65, "velocity": 72, "note_on_time": 8.917, "note_off_time": 9.603}, {"pitch": 67, "velocity": 71, "note_on_time": 10.441, "note_off_time": 10.632}, {"pitch": 65, "velocity": 60, "note_on_time": 10.794, "note_off_time": 11.01}, {"pitch": 60, "velocity": 58, "note_on_time": 11.168, "note_off_time": 11.32}, {"pitch": 65, "velocity": 65, "note_on_time": 11.523, "note_off_time": 11.691}, {"pitch": 65, "velocity": 73, "note_on_time": 12.337, "note_off_time": 12.48}, {"pitch": 65, "velocity": 77, "note_on_time": 12.711, "note_off_time": 12.86}, {"pitch": 65, "velocity": 72, "note_on_time": 13.057, "note_off_time": 13.233}]</notes><guidance name="Guidance Mode">None</guidance><error name="Error value">0.07635500000000009</error></trial></trials></MIDI>