<MIDI midiNo="2022_08_17-14_15_18"><target_notes><notes name="Note List">[{"pitch": 42, "velocity": 80, "note_on_time": 0.003, "note_off_time": 0.766}, {"pitch": 42, "velocity": 80, "note_on_time": 0.766, "note_off_time": 1.517}, {"pitch": 42, "velocity": 80, "note_on_time": 1.517, "note_off_time": 2.281}, {"pitch": 42, "velocity": 80, "note_on_time": 2.281, "note_off_time": 3.046}, {"pitch": 62, "velocity": 80, "note_on_time": 3.046, "note_off_time": 3.81}, {"pitch": 42, "velocity": 80, "note_on_time": 3.046, "note_off_time": 3.81}, {"pitch": 42, "velocity": 80, "note_on_time": 3.81, "note_off_time": 4.571}, {"pitch": 60, "velocity": 80, "note_on_time": 4.57, "note_off_time": 5.335}, {"pitch": 42, "velocity": 80, "note_on_time": 4.571, "note_off_time": 5.335}, {"pitch": 42, "velocity": 80, "note_on_time": 5.336, "note_off_time": 6.099}, {"pitch": 62, "velocity": 80, "note_on_time": 6.099, "note_off_time": 6.85}, {"pitch": 42, "velocity": 80, "note_on_time": 6.1, "note_off_time": 6.85}, {"pitch": 60, "velocity": 80, "note_on_time": 6.85, "note_off_time": 7.601}, {"pitch": 42, "velocity": 80, "note_on_time": 6.851, "note_off_time": 7.602}, {"pitch": 60, "velocity": 80, "note_on_time": 7.601, "note_off_time": 8.353}, {"pitch": 42, "velocity": 80, "note_on_time": 7.602, "note_off_time": 8.353}, {"pitch": 42, "velocity": 80, "note_on_time": 8.353, "note_off_time": 9.106}, {"pitch": 60, "velocity": 80, "note_on_time": 9.106, "note_off_time": 9.87}, {"pitch": 42, "velocity": 80, "note_on_time": 9.106, "note_off_time": 9.871}, {"pitch": 60, "velocity": 80, "note_on_time": 9.87, "note_off_time": 10.634}, {"pitch": 42, "velocity": 80, "note_on_time": 9.871, "note_off_time": 10.634}, {"pitch": 62, "velocity": 80, "note_on_time": 10.634, "note_off_time": 11.397}, {"pitch": 42, "velocity": 80, "note_on_time": 10.635, "note_off_time": 11.397}, {"pitch": 60, "velocity": 80, "note_on_time": 11.397, "note_off_time": 12.163}, {"pitch": 42, "velocity": 80, "note_on_time": 11.398, "note_off_time": 12.163}, {"pitch": 62, "velocity": 80, "note_on_time": 12.163, "note_off_time": 12.928}, {"pitch": 42, "velocity": 80, "note_on_time": 12.164, "note_off_time": 12.928}, {"pitch": 42, "velocity": 80, "note_on_time": 12.929, "note_off_time": 13.692}, {"pitch": 42, "velocity": 80, "note_on_time": 13.692, "note_off_time": 14.456}, {"pitch": 62, "velocity": 80, "note_on_time": 14.456, "note_off_time": 15.221}, {"pitch": 42, "velocity": 80, "note_on_time": 14.456, "note_off_time": 15.222}, {"pitch": 62, "velocity": 80, "note_on_time": 15.221, "note_off_time": 15.984}, {"pitch": 42, "velocity": 80, "note_on_time": 15.222, "note_off_time": 15.985}, {"pitch": 62, "velocity": 80, "note_on_time": 15.984, "note_off_time": 16.745}, {"pitch": 42, "velocity": 80, "note_on_time": 15.985, "note_off_time": 16.745}, {"pitch": 62, "velocity": 80, "note_on_time": 16.745, "note_off_time": 17.508}, {"pitch": 42, "velocity": 80, "note_on_time": 16.745, "note_off_time": 17.509}, {"pitch": 42, "velocity": 80, "note_on_time": 17.509, "note_off_time": 18.27}, {"pitch": 62, "velocity": 80, "note_on_time": 18.269, "note_off_time": 19.031}, {"pitch": 42, "velocity": 80, "note_on_time": 18.27, "note_off_time": 19.032}, {"pitch": 62, "velocity": 80, "note_on_time": 19.031, "note_off_time": 19.795}, {"pitch": 42, "velocity": 80, "note_on_time": 19.032, "note_off_time": 19.796}, {"pitch": 62, "velocity": 80, "note_on_time": 19.795, "note_off_time": 20.561}, {"pitch": 42, "velocity": 80, "note_on_time": 19.796, "note_off_time": 20.561}, {"pitch": 60, "velocity": 80, "note_on_time": 20.561, "note_off_time": 21.324}, {"pitch": 42, "velocity": 80, "note_on_time": 20.561, "note_off_time": 21.324}, {"pitch": 62, "velocity": 80, "note_on_time": 21.324, "note_off_time": 22.088}, {"pitch": 42, "velocity": 80, "note_on_time": 21.324, "note_off_time": 22.088}, {"pitch": 42, "velocity": 80, "note_on_time": 22.088, "note_off_time": 22.854}, {"pitch": 42, "velocity": 80, "note_on_time": 22.855, "note_off_time": 23.616}, {"pitch": 42, "velocity": 80, "note_on_time": 23.617, "note_off_time": 24.382}, {"pitch": 42, "velocity": 80, "note_on_time": 24.382, "note_off_time": 25.147}, {"pitch": 62, "velocity": 80, "note_on_time": 25.146, "note_off_time": 25.91}, {"pitch": 42, "velocity": 80, "note_on_time": 25.147, "note_off_time": 25.91}, {"pitch": 62, "velocity": 80, "note_on_time": 25.91, "note_off_time": 26.675}, {"pitch": 42, "velocity": 80, "note_on_time": 25.91, "note_off_time": 26.675}, {"pitch": 62, "velocity": 80, "note_on_time": 26.675, "note_off_time": 27.44}, {"pitch": 42, "velocity": 80, "note_on_time": 26.675, "note_off_time": 27.441}]</notes><options name="Option List">((4, 4), [0.25], 3, 8, &lt;NoteRangePerHand.TWO_NOTES: 3&gt;, &lt;NoteRangePerHand.ONE_NOTE: 2&gt;, False, True, True, '80')</options></target_notes><trials><trial trial_no="1" timestamp="2022_08_17-14_14_49"><notes name="Played Notes">[{"pitch": 62, "velocity": 51, "note_on_time": 3.05, "note_off_time": 3.29}, {"pitch": 60, "velocity": 71, "note_on_time": 4.508, "note_off_time": 4.75}, {"pitch": 62, "velocity": 63, "note_on_time": 6.122, "note_off_time": 6.302}, {"pitch": 60, "velocity": 59, "note_on_time": 6.83, "note_off_time": 6.96}, {"pitch": 60, "velocity": 64, "note_on_time": 7.568, "note_off_time": 7.709}, {"pitch": 60, "velocity": 72, "note_on_time": 9.108, "note_off_time": 9.229}, {"pitch": 60, "velocity": 62, "note_on_time": 9.799, "note_off_time": 9.903}, {"pitch": 62, "velocity": 52, "note_on_time": 10.563, "note_off_time": 10.72}, {"pitch": 60, "velocity": 59, "note_on_time": 11.262, "note_off_time": 11.372}, {"pitch": 62, "velocity": 53, "note_on_time": 11.997, "note_off_time": 12.071}, {"pitch": 62, "velocity": 48, "note_on_time": 14.449, "note_off_time": 14.62}, {"pitch": 62, "velocity": 52, "note_on_time": 15.171, "note_off_time": 15.298}, {"pitch": 62, "velocity": 49, "note_on_time": 15.904, "note_off_time": 16.05}, {"pitch": 62, "velocity": 52, "note_on_time": 16.617, "note_off_time": 16.756}, {"pitch": 62, "velocity": 50, "note_on_time": 18.278, "note_off_time": 18.451}, {"pitch": 62, "velocity": 63, "note_on_time": 18.942, "note_off_time": 19.058}, {"pitch": 62, "velocity": 55, "note_on_time": 19.659, "note_off_time": 19.792}, {"pitch": 60, "velocity": 69, "note_on_time": 20.436, "note_off_time": 20.567}, {"pitch": 62, "velocity": 59, "note_on_time": 21.16, "note_off_time": 21.283}, {"pitch": 62, "velocity": 52, "note_on_time": 25.137, "note_off_time": 25.302}, {"pitch": 62, "velocity": 55, "note_on_time": 25.829, "note_off_time": 25.991}, {"pitch": 62, "velocity": 51, "note_on_time": 26.611, "note_off_time": 26.802}]</notes><guidance name="Guidance Mode">None</guidance><error name="Error value">0.06963157894736849</error></trial></trials></MIDI>