<MIDI midiNo="20220202-151952"><target_notes><notes name="Note List">[{"pitch": 60, "velocity": 100, "note_on_time": 1.746, "note_off_time": 2.183}, {"pitch": 62, "velocity": 100, "note_on_time": 3.492, "note_off_time": 3.926}, {"pitch": 64, "velocity": 100, "note_on_time": 3.926, "note_off_time": 4.362}, {"pitch": 64, "velocity": 100, "note_on_time": 4.362, "note_off_time": 4.799}, {"pitch": 64, "velocity": 100, "note_on_time": 4.799, "note_off_time": 5.234}, {"pitch": 62, "velocity": 100, "note_on_time": 5.234, "note_off_time": 6.105}, {"pitch": 64, "velocity": 100, "note_on_time": 6.105, "note_off_time": 6.541}, {"pitch": 62, "velocity": 100, "note_on_time": 6.542, "note_off_time": 6.976}, {"pitch": 64, "velocity": 100, "note_on_time": 6.977, "note_off_time": 7.848}, {"pitch": 64, "velocity": 100, "note_on_time": 8.719, "note_off_time": 9.155}, {"pitch": 60, "velocity": 100, "note_on_time": 9.156, "note_off_time": 9.592}, {"pitch": 64, "velocity": 100, "note_on_time": 9.592, "note_off_time": 10.027}, {"pitch": 64, "velocity": 100, "note_on_time": 10.028, "note_off_time": 10.464}, {"pitch": 62, "velocity": 100, "note_on_time": 10.464, "note_off_time": 10.9}, {"pitch": 60, "velocity": 100, "note_on_time": 10.9, "note_off_time": 11.337}, {"pitch": 62, "velocity": 100, "note_on_time": 11.337, "note_off_time": 11.772}, {"pitch": 64, "velocity": 100, "note_on_time": 11.773, "note_off_time": 12.208}, {"pitch": 64, "velocity": 100, "note_on_time": 12.644, "note_off_time": 13.081}, {"pitch": 64, "velocity": 100, "note_on_time": 13.081, "note_off_time": 13.516}, {"pitch": 64, "velocity": 100, "note_on_time": 13.517, "note_off_time": 13.952}]</notes><options name="Option List">((4, 4), [0.5, 0.25], 3, 7, &lt;NoteRangePerHand.THREE_NOTES: 4&gt;, &lt;NoteRangePerHand.ONE_NOTE: 2&gt;, False, True, True, 139)</options></target_notes><trials><trial trial_no="1" timestamp="20220202-151935"><notes name="Played Notes">[{"pitch": 60, "velocity": 100, "note_on_time": 1.767, "note_off_time": 2.177}, {"pitch": 62, "velocity": 100, "note_on_time": 3.461, "note_off_time": 3.871}, {"pitch": 64, "velocity": 100, "note_on_time": 3.877, "note_off_time": 4.092}, {"pitch": 64, "velocity": 100, "note_on_time": 4.313, "note_off_time": 4.554}, {"pitch": 64, "velocity": 100, "note_on_time": 4.758, "note_off_time": 5.03}, {"pitch": 62, "velocity": 100, "note_on_time": 5.221, "note_off_time": 6.053}, {"pitch": 64, "velocity": 100, "note_on_time": 6.092, "note_off_time": 6.525}, {"pitch": 62, "velocity": 100, "note_on_time": 6.501, "note_off_time": 6.955}, {"pitch": 64, "velocity": 100, "note_on_time": 6.946, "note_off_time": 7.875}, {"pitch": 64, "velocity": 100, "note_on_time": 8.751, "note_off_time": 9.144}, {"pitch": 60, "velocity": 100, "note_on_time": 9.134, "note_off_time": 9.602}, {"pitch": 64, "velocity": 100, "note_on_time": 9.564, "note_off_time": 9.809}, {"pitch": 64, "velocity": 100, "note_on_time": 9.988, "note_off_time": 10.323}, {"pitch": 62, "velocity": 100, "note_on_time": 10.393, "note_off_time": 10.881}, {"pitch": 60, "velocity": 100, "note_on_time": 10.876, "note_off_time": 11.344}, {"pitch": 62, "velocity": 100, "note_on_time": 11.303, "note_off_time": 11.743}, {"pitch": 64, "velocity": 100, "note_on_time": 11.719, "note_off_time": 12.112}, {"pitch": 64, "velocity": 100, "note_on_time": 12.657, "note_off_time": 12.833}, {"pitch": 64, "velocity": 100, "note_on_time": 13.096, "note_off_time": 13.307}, {"pitch": 64, "velocity": 100, "note_on_time": 13.507, "note_off_time": 13.807}]</notes><guidance name="Guidance Mode">None</guidance><error name="Error value">17.946599999999997</error></trial></trials></MIDI>