<MIDI midiNo="20220202-151521"><target_notes><notes name="Note List">[{"pitch": 64, "velocity": 100, "note_on_time": 2.423, "note_off_time": 3.027}, {"pitch": 60, "velocity": 100, "note_on_time": 3.027, "note_off_time": 3.632}, {"pitch": 62, "velocity": 100, "note_on_time": 3.632, "note_off_time": 4.236}, {"pitch": 62, "velocity": 100, "note_on_time": 4.236, "note_off_time": 4.841}, {"pitch": 64, "velocity": 100, "note_on_time": 4.841, "note_off_time": 5.445}, {"pitch": 64, "velocity": 100, "note_on_time": 5.445, "note_off_time": 6.049}, {"pitch": 64, "velocity": 100, "note_on_time": 6.049, "note_off_time": 6.653}, {"pitch": 64, "velocity": 100, "note_on_time": 6.653, "note_off_time": 7.259}, {"pitch": 64, "velocity": 100, "note_on_time": 7.259, "note_off_time": 7.863}, {"pitch": 62, "velocity": 100, "note_on_time": 9.675, "note_off_time": 10.278}, {"pitch": 60, "velocity": 100, "note_on_time": 10.278, "note_off_time": 10.883}, {"pitch": 60, "velocity": 100, "note_on_time": 10.883, "note_off_time": 11.488}, {"pitch": 60, "velocity": 100, "note_on_time": 11.488, "note_off_time": 12.093}, {"pitch": 60, "velocity": 100, "note_on_time": 12.093, "note_off_time": 12.698}, {"pitch": 60, "velocity": 100, "note_on_time": 12.698, "note_off_time": 13.303}, {"pitch": 60, "velocity": 100, "note_on_time": 13.303, "note_off_time": 13.907}, {"pitch": 62, "velocity": 100, "note_on_time": 13.907, "note_off_time": 14.512}, {"pitch": 60, "velocity": 100, "note_on_time": 14.512, "note_off_time": 15.112}, {"pitch": 60, "velocity": 100, "note_on_time": 15.112, "note_off_time": 15.717}, {"pitch": 64, "velocity": 100, "note_on_time": 15.717, "note_off_time": 16.321}, {"pitch": 60, "velocity": 100, "note_on_time": 16.321, "note_off_time": 16.925}, {"pitch": 60, "velocity": 100, "note_on_time": 17.53, "note_off_time": 18.135}, {"pitch": 60, "velocity": 100, "note_on_time": 18.135, "note_off_time": 18.736}, {"pitch": 60, "velocity": 100, "note_on_time": 18.736, "note_off_time": 19.34}]</notes><options name="Option List">((4, 4), [0.5, 0.25], 3, 7, &lt;NoteRangePerHand.THREE_NOTES: 4&gt;, &lt;NoteRangePerHand.ONE_NOTE: 2&gt;, False, True, True, 100)</options></target_notes><trials><trial trial_no="1" timestamp="20220202-151459"><notes name="Played Notes">[{"pitch": 64, "velocity": 100, "note_on_time": 2.423, "note_off_time": 2.883}, {"pitch": 60, "velocity": 100, "note_on_time": 3.028, "note_off_time": 3.503}, {"pitch": 62, "velocity": 100, "note_on_time": 3.603, "note_off_time": 4.006}, {"pitch": 62, "velocity": 100, "note_on_time": 4.181, "note_off_time": 4.663}, {"pitch": 64, "velocity": 100, "note_on_time": 4.797, "note_off_time": 5.248}, {"pitch": 64, "velocity": 100, "note_on_time": 5.404, "note_off_time": 5.796}, {"pitch": 64, "velocity": 100, "note_on_time": 5.992, "note_off_time": 6.324}, {"pitch": 64, "velocity": 100, "note_on_time": 6.573, "note_off_time": 7.024}, {"pitch": 64, "velocity": 100, "note_on_time": 7.204, "note_off_time": 7.701}, {"pitch": 62, "velocity": 100, "note_on_time": 9.635, "note_off_time": 10.11}, {"pitch": 60, "velocity": 100, "note_on_time": 10.204, "note_off_time": 10.696}, {"pitch": 60, "velocity": 100, "note_on_time": 10.816, "note_off_time": 11.288}, {"pitch": 60, "velocity": 100, "note_on_time": 11.423, "note_off_time": 11.901}, {"pitch": 60, "velocity": 100, "note_on_time": 12.057, "note_off_time": 12.467}, {"pitch": 60, "velocity": 100, "note_on_time": 12.631, "note_off_time": 13.085}, {"pitch": 60, "velocity": 100, "note_on_time": 13.238, "note_off_time": 13.756}, {"pitch": 62, "velocity": 100, "note_on_time": 13.844, "note_off_time": 14.364}, {"pitch": 60, "velocity": 100, "note_on_time": 14.473, "note_off_time": 14.916}, {"pitch": 60, "velocity": 100, "note_on_time": 15.06, "note_off_time": 15.552}, {"pitch": 64, "velocity": 100, "note_on_time": 15.676, "note_off_time": 16.179}, {"pitch": 60, "velocity": 100, "note_on_time": 16.275, "note_off_time": 16.796}, {"pitch": 60, "velocity": 100, "note_on_time": 17.489, "note_off_time": 17.926}, {"pitch": 60, "velocity": 100, "note_on_time": 18.115, "note_off_time": 18.512}, {"pitch": 60, "velocity": 100, "note_on_time": 18.729, "note_off_time": 19.186}]</notes><guidance name="Guidance Mode">None</guidance><error name="Error value">22.713238095238097</error></trial></trials></MIDI>