<MIDI midiNo="2022_10_02-13_14_38"><target_notes><notes name="Note List">[{"pitch": 42, "velocity": 80, "note_on_time": 0.004, "note_off_time": 0.24}, {"pitch": 42, "velocity": 80, "note_on_time": 0.24, "note_off_time": 0.474}, {"pitch": 42, "velocity": 80, "note_on_time": 0.475, "note_off_time": 0.709}, {"pitch": 42, "velocity": 80, "note_on_time": 0.709, "note_off_time": 0.942}, {"pitch": 60, "velocity": 80, "note_on_time": 0.942, "note_off_time": 1.174}, {"pitch": 42, "velocity": 80, "note_on_time": 0.942, "note_off_time": 1.175}, {"pitch": 42, "velocity": 80, "note_on_time": 1.175, "note_off_time": 1.409}, {"pitch": 42, "velocity": 80, "note_on_time": 1.409, "note_off_time": 1.644}, {"pitch": 42, "velocity": 80, "note_on_time": 1.645, "note_off_time": 1.879}, {"pitch": 60, "velocity": 80, "note_on_time": 1.879, "note_off_time": 2.111}, {"pitch": 42, "velocity": 80, "note_on_time": 1.879, "note_off_time": 2.112}, {"pitch": 42, "velocity": 80, "note_on_time": 2.112, "note_off_time": 2.348}, {"pitch": 60, "velocity": 80, "note_on_time": 2.348, "note_off_time": 2.584}, {"pitch": 42, "velocity": 80, "note_on_time": 2.348, "note_off_time": 2.584}, {"pitch": 42, "velocity": 80, "note_on_time": 2.584, "note_off_time": 2.818}, {"pitch": 64, "velocity": 80, "note_on_time": 2.817, "note_off_time": 3.051}, {"pitch": 42, "velocity": 80, "note_on_time": 2.818, "note_off_time": 3.051}, {"pitch": 60, "velocity": 80, "note_on_time": 3.051, "note_off_time": 3.286}, {"pitch": 42, "velocity": 80, "note_on_time": 3.052, "note_off_time": 3.286}, {"pitch": 62, "velocity": 80, "note_on_time": 3.286, "note_off_time": 3.519}, {"pitch": 42, "velocity": 80, "note_on_time": 3.286, "note_off_time": 3.519}, {"pitch": 60, "velocity": 80, "note_on_time": 3.519, "note_off_time": 3.752}, {"pitch": 42, "velocity": 80, "note_on_time": 3.52, "note_off_time": 3.753}, {"pitch": 62, "velocity": 80, "note_on_time": 3.752, "note_off_time": 3.986}, {"pitch": 42, "velocity": 80, "note_on_time": 3.753, "note_off_time": 3.986}, {"pitch": 42, "velocity": 80, "note_on_time": 3.986, "note_off_time": 4.22}, {"pitch": 42, "velocity": 80, "note_on_time": 4.221, "note_off_time": 4.457}, {"pitch": 64, "velocity": 80, "note_on_time": 4.457, "note_off_time": 4.689}, {"pitch": 42, "velocity": 80, "note_on_time": 4.458, "note_off_time": 4.689}, {"pitch": 60, "velocity": 80, "note_on_time": 4.689, "note_off_time": 4.922}, {"pitch": 42, "velocity": 80, "note_on_time": 4.689, "note_off_time": 4.922}, {"pitch": 64, "velocity": 80, "note_on_time": 4.922, "note_off_time": 5.156}, {"pitch": 42, "velocity": 80, "note_on_time": 4.922, "note_off_time": 5.156}, {"pitch": 62, "velocity": 80, "note_on_time": 5.156, "note_off_time": 5.392}, {"pitch": 42, "velocity": 80, "note_on_time": 5.156, "note_off_time": 5.392}, {"pitch": 64, "velocity": 80, "note_on_time": 5.392, "note_off_time": 5.626}, {"pitch": 42, "velocity": 80, "note_on_time": 5.392, "note_off_time": 5.626}, {"pitch": 64, "velocity": 80, "note_on_time": 5.626, "note_off_time": 5.859}, {"pitch": 42, "velocity": 80, "note_on_time": 5.626, "note_off_time": 5.859}, {"pitch": 62, "velocity": 80, "note_on_time": 5.859, "note_off_time": 6.093}, {"pitch": 42, "velocity": 80, "note_on_time": 5.859, "note_off_time": 6.093}, {"pitch": 60, "velocity": 80, "note_on_time": 6.093, "note_off_time": 6.326}, {"pitch": 42, "velocity": 80, "note_on_time": 6.093, "note_off_time": 6.326}, {"pitch": 62, "velocity": 80, "note_on_time": 6.326, "note_off_time": 6.559}, {"pitch": 42, "velocity": 80, "note_on_time": 6.326, "note_off_time": 6.559}, {"pitch": 64, "velocity": 80, "note_on_time": 6.559, "note_off_time": 6.791}, {"pitch": 42, "velocity": 80, "note_on_time": 6.559, "note_off_time": 6.792}, {"pitch": 62, "velocity": 80, "note_on_time": 6.791, "note_off_time": 7.024}, {"pitch": 42, "velocity": 80, "note_on_time": 6.792, "note_off_time": 7.024}, {"pitch": 42, "velocity": 80, "note_on_time": 7.024, "note_off_time": 7.254}, {"pitch": 42, "velocity": 80, "note_on_time": 7.254, "note_off_time": 7.488}, {"pitch": 42, "velocity": 80, "note_on_time": 7.488, "note_off_time": 7.72}, {"pitch": 62, "velocity": 80, "note_on_time": 7.72, "note_off_time": 7.953}, {"pitch": 42, "velocity": 80, "note_on_time": 7.721, "note_off_time": 7.954}, {"pitch": 62, "velocity": 80, "note_on_time": 7.953, "note_off_time": 8.188}, {"pitch": 42, "velocity": 80, "note_on_time": 7.954, "note_off_time": 8.189}, {"pitch": 62, "velocity": 80, "note_on_time": 8.188, "note_off_time": 8.422}, {"pitch": 42, "velocity": 80, "note_on_time": 8.189, "note_off_time": 8.422}]</notes><options name="Option List">((4, 4), [0.25], 3, 8, &lt;NoteRangePerHand.THREE_NOTES: 4&gt;, &lt;NoteRangePerHand.ONE_NOTE: 2&gt;, False, True, True, '265')</options></target_notes><trials><trial trial_no="1" timestamp="2022_10_02-13_14_29"><notes name="Played Notes">[{"pitch": 60, "velocity": 55, "note_on_time": 0.969, "note_off_time": 1.168}, {"pitch": 60, "velocity": 54, "note_on_time": 1.891, "note_off_time": 2.088}, {"pitch": 60, "velocity": 66, "note_on_time": 2.385, "note_off_time": 2.565}, {"pitch": 64, "velocity": 55, "note_on_time": 2.83, "note_off_time": 3.033}, {"pitch": 60, "velocity": 48, "note_on_time": 3.075, "note_off_time": 3.264}, {"pitch": 62, "velocity": 42, "note_on_time": 3.311, "note_off_time": 3.563}, {"pitch": 60, "velocity": 65, "note_on_time": 3.552, "note_off_time": 3.788}, {"pitch": 64, "velocity": 56, "note_on_time": 3.819, "note_off_time": 4.008}, {"pitch": 64, "velocity": 34, "note_on_time": 4.13, "note_off_time": 4.4}, {"pitch": 64, "velocity": 42, "note_on_time": 4.534, "note_off_time": 4.763}, {"pitch": 62, "velocity": 50, "note_on_time": 4.787, "note_off_time": 5.058}, {"pitch": 64, "velocity": 46, "note_on_time": 5.092, "note_off_time": 5.401}, {"pitch": 62, "velocity": 39, "note_on_time": 5.387, "note_off_time": 5.569}]</notes><guidance name="Guidance Mode">None</guidance><error name="Error value">0.693285</error></trial><trial trial_no="2" timestamp="2022_10_02-13_14_55"><notes name="Played Notes">[{"pitch": 60, "velocity": 61, "note_on_time": 0.977, "note_off_time": 1.176}, {"pitch": 60, "velocity": 60, "note_on_time": 1.869, "note_off_time": 2.036}, {"pitch": 60, "velocity": 64, "note_on_time": 2.353, "note_off_time": 2.541}, {"pitch": 64, "velocity": 49, "note_on_time": 2.812, "note_off_time": 3.013}, {"pitch": 60, "velocity": 33, "note_on_time": 3.028, "note_off_time": 3.237}, {"pitch": 62, "velocity": 42, "note_on_time": 3.293, "note_off_time": 3.509}, {"pitch": 64, "velocity": 55, "note_on_time": 3.543, "note_off_time": 3.781}, {"pitch": 62, "velocity": 45, "note_on_time": 3.768, "note_off_time": 3.925}, {"pitch": 62, "velocity": 27, "note_on_time": 4.118, "note_off_time": 4.284}]</notes><guidance name="Guidance Mode">None</guidance><error name="Error value">0.9035252631578949</error></trial><trial trial_no="3" timestamp="2022_10_02-13_15_33"><notes name="Played Notes">[{"pitch": 60, "velocity": 60, "note_on_time": 0.947, "note_off_time": 1.158}, {"pitch": 60, "velocity": 59, "note_on_time": 1.903, "note_off_time": 2.076}, {"pitch": 60, "velocity": 50, "note_on_time": 2.374, "note_off_time": 2.575}, {"pitch": 64, "velocity": 55, "note_on_time": 2.829, "note_off_time": 3.011}, {"pitch": 60, "velocity": 52, "note_on_time": 3.07, "note_off_time": 3.283}, {"pitch": 62, "velocity": 46, "note_on_time": 3.286, "note_off_time": 3.471}, {"pitch": 64, "velocity": 48, "note_on_time": 3.511, "note_off_time": 3.653}, {"pitch": 64, "velocity": 61, "note_on_time": 3.761, "note_off_time": 3.891}, {"pitch": 64, "velocity": 21, "note_on_time": 4.058, "note_off_time": 4.122}, {"pitch": 62, "velocity": 42, "note_on_time": 4.321, "note_off_time": 4.488}, {"pitch": 64, "velocity": 51, "note_on_time": 4.588, "note_off_time": 4.742}, {"pitch": 64, "velocity": 62, "note_on_time": 4.847, "note_off_time": 5.042}, {"pitch": 62, "velocity": 43, "note_on_time": 5.103, "note_off_time": 5.376}, {"pitch": 60, "velocity": 55, "note_on_time": 5.358, "note_off_time": 5.557}, {"pitch": 62, "velocity": 31, "note_on_time": 5.623, "note_off_time": 5.864}, {"pitch": 64, "velocity": 53, "note_on_time": 5.863, "note_off_time": 6.316}, {"pitch": 62, "velocity": 40, "note_on_time": 6.341, "note_off_time": 6.515}, {"pitch": 62, "velocity": 54, "note_on_time": 7.205, "note_off_time": 7.332}, {"pitch": 62, "velocity": 48, "note_on_time": 7.444, "note_off_time": 7.589}, {"pitch": 62, "velocity": 56, "note_on_time": 7.709, "note_off_time": 7.913}]</notes><guidance name="Guidance Mode">None</guidance><error name="Error value">0.4852592105263157</error></trial></trials></MIDI>