<MIDI midiNo="2022_11_03-13_31_18"><target_notes><notes name="Note List">[{"pitch": 42, "velocity": 80, "note_on_time": 0.004, "note_off_time": 0.364}, {"pitch": 42, "velocity": 80, "note_on_time": 0.364, "note_off_time": 0.723}, {"pitch": 42, "velocity": 80, "note_on_time": 0.723, "note_off_time": 1.081}, {"pitch": 42, "velocity": 80, "note_on_time": 1.082, "note_off_time": 1.441}, {"pitch": 42, "velocity": 80, "note_on_time": 1.441, "note_off_time": 1.802}, {"pitch": 60, "velocity": 80, "note_on_time": 1.441, "note_off_time": 2.158}, {"pitch": 42, "velocity": 80, "note_on_time": 1.802, "note_off_time": 2.158}, {"pitch": 42, "velocity": 80, "note_on_time": 2.158, "note_off_time": 2.518}, {"pitch": 42, "velocity": 80, "note_on_time": 2.518, "note_off_time": 2.865}, {"pitch": 42, "velocity": 80, "note_on_time": 2.865, "note_off_time": 3.224}, {"pitch": 60, "velocity": 80, "note_on_time": 2.865, "note_off_time": 3.583}, {"pitch": 42, "velocity": 80, "note_on_time": 3.224, "note_off_time": 3.583}, {"pitch": 42, "velocity": 80, "note_on_time": 3.584, "note_off_time": 3.941}, {"pitch": 42, "velocity": 80, "note_on_time": 3.941, "note_off_time": 4.3}, {"pitch": 42, "velocity": 80, "note_on_time": 4.3, "note_off_time": 4.658}, {"pitch": 62, "velocity": 80, "note_on_time": 4.3, "note_off_time": 5.017}, {"pitch": 42, "velocity": 80, "note_on_time": 4.658, "note_off_time": 5.017}, {"pitch": 64, "velocity": 80, "note_on_time": 5.017, "note_off_time": 5.372}, {"pitch": 42, "velocity": 80, "note_on_time": 5.017, "note_off_time": 5.372}, {"pitch": 64, "velocity": 80, "note_on_time": 5.372, "note_off_time": 5.729}, {"pitch": 42, "velocity": 80, "note_on_time": 5.372, "note_off_time": 5.73}, {"pitch": 62, "velocity": 80, "note_on_time": 5.729, "note_off_time": 6.085}, {"pitch": 42, "velocity": 80, "note_on_time": 5.73, "note_off_time": 6.085}, {"pitch": 62, "velocity": 80, "note_on_time": 6.085, "note_off_time": 6.445}, {"pitch": 42, "velocity": 80, "note_on_time": 6.085, "note_off_time": 6.445}, {"pitch": 62, "velocity": 80, "note_on_time": 6.445, "note_off_time": 6.804}, {"pitch": 42, "velocity": 80, "note_on_time": 6.446, "note_off_time": 6.804}, {"pitch": 64, "velocity": 80, "note_on_time": 6.804, "note_off_time": 7.16}, {"pitch": 42, "velocity": 80, "note_on_time": 6.804, "note_off_time": 7.16}, {"pitch": 60, "velocity": 80, "note_on_time": 7.16, "note_off_time": 7.52}, {"pitch": 42, "velocity": 80, "note_on_time": 7.16, "note_off_time": 7.52}, {"pitch": 42, "velocity": 80, "note_on_time": 7.52, "note_off_time": 7.879}, {"pitch": 64, "velocity": 80, "note_on_time": 7.878, "note_off_time": 8.237}, {"pitch": 42, "velocity": 80, "note_on_time": 7.879, "note_off_time": 8.237}, {"pitch": 64, "velocity": 80, "note_on_time": 8.237, "note_off_time": 8.595}, {"pitch": 42, "velocity": 80, "note_on_time": 8.237, "note_off_time": 8.595}, {"pitch": 62, "velocity": 80, "note_on_time": 8.595, "note_off_time": 8.952}, {"pitch": 42, "velocity": 80, "note_on_time": 8.595, "note_off_time": 8.953}, {"pitch": 60, "velocity": 80, "note_on_time": 8.952, "note_off_time": 9.312}, {"pitch": 42, "velocity": 80, "note_on_time": 8.953, "note_off_time": 9.313}, {"pitch": 64, "velocity": 80, "note_on_time": 9.312, "note_off_time": 9.66}, {"pitch": 42, "velocity": 80, "note_on_time": 9.313, "note_off_time": 9.66}, {"pitch": 64, "velocity": 80, "note_on_time": 9.66, "note_off_time": 10.017}, {"pitch": 42, "velocity": 80, "note_on_time": 9.66, "note_off_time": 10.017}, {"pitch": 62, "velocity": 80, "note_on_time": 10.017, "note_off_time": 10.374}, {"pitch": 42, "velocity": 80, "note_on_time": 10.017, "note_off_time": 10.374}, {"pitch": 60, "velocity": 80, "note_on_time": 10.374, "note_off_time": 10.733}, {"pitch": 42, "velocity": 80, "note_on_time": 10.375, "note_off_time": 10.733}, {"pitch": 42, "velocity": 80, "note_on_time": 10.733, "note_off_time": 11.093}, {"pitch": 42, "velocity": 80, "note_on_time": 11.093, "note_off_time": 11.453}, {"pitch": 42, "velocity": 80, "note_on_time": 11.453, "note_off_time": 11.807}, {"pitch": 60, "velocity": 80, "note_on_time": 11.807, "note_off_time": 12.164}, {"pitch": 42, "velocity": 80, "note_on_time": 11.807, "note_off_time": 12.164}, {"pitch": 60, "velocity": 80, "note_on_time": 12.164, "note_off_time": 12.519}, {"pitch": 42, "velocity": 80, "note_on_time": 12.164, "note_off_time": 12.519}, {"pitch": 60, "velocity": 80, "note_on_time": 12.519, "note_off_time": 12.877}, {"pitch": 42, "velocity": 80, "note_on_time": 12.519, "note_off_time": 12.877}]</notes><options name="Option List">((4, 4), [0.5, 0.25], 3, 8, &lt;NoteRangePerHand.THREE_NOTES: 4&gt;, &lt;NoteRangePerHand.ONE_NOTE: 2&gt;, False, True, False, '174')</options></target_notes><trials><trial trial_no="1" timestamp="2022_11_03-13_31_04"><notes name="Played Notes">[{"pitch": 60, "velocity": 66, "note_on_time": 1.429, "note_off_time": 2.187}, {"pitch": 60, "velocity": 77, "note_on_time": 2.896, "note_off_time": 3.674}, {"pitch": 62, "velocity": 63, "note_on_time": 4.346, "note_off_time": 4.999}, {"pitch": 64, "velocity": 58, "note_on_time": 5.047, "note_off_time": 5.23}, {"pitch": 64, "velocity": 54, "note_on_time": 5.376, "note_off_time": 5.586}, {"pitch": 62, "velocity": 48, "note_on_time": 5.774, "note_off_time": 6.003}, {"pitch": 62, "velocity": 52, "note_on_time": 6.115, "note_off_time": 6.294}, {"pitch": 62, "velocity": 47, "note_on_time": 6.425, "note_off_time": 6.628}, {"pitch": 64, "velocity": 57, "note_on_time": 6.771, "note_off_time": 6.949}, {"pitch": 60, "velocity": 63, "note_on_time": 7.128, "note_off_time": 7.403}, {"pitch": 62, "velocity": 38, "note_on_time": 7.862, "note_off_time": 7.898}, {"pitch": 62, "velocity": 36, "note_on_time": 7.959, "note_off_time": 8.011}, {"pitch": 64, "velocity": 43, "note_on_time": 7.918, "note_off_time": 8.212}, {"pitch": 64, "velocity": 28, "note_on_time": 8.253, "note_off_time": 8.458}, {"pitch": 62, "velocity": 54, "note_on_time": 8.586, "note_off_time": 8.805}, {"pitch": 60, "velocity": 68, "note_on_time": 8.948, "note_off_time": 9.11}, {"pitch": 64, "velocity": 58, "note_on_time": 9.274, "note_off_time": 9.471}, {"pitch": 64, "velocity": 55, "note_on_time": 9.615, "note_off_time": 9.831}, {"pitch": 62, "velocity": 56, "note_on_time": 9.989, "note_off_time": 10.192}, {"pitch": 60, "velocity": 54, "note_on_time": 10.321, "note_off_time": 10.514}, {"pitch": 60, "velocity": 74, "note_on_time": 11.828, "note_off_time": 12.03}, {"pitch": 60, "velocity": 70, "note_on_time": 12.183, "note_off_time": 12.357}, {"pitch": 60, "velocity": 70, "note_on_time": 12.526, "note_off_time": 12.741}]</notes><guidance name="Guidance Mode">None</guidance><error name="Error value">0.23434716666666588</error></trial><trial trial_no="2" timestamp="2022_11_03-13_31_28"><notes name="Played Notes">[{"pitch": 60, "velocity": 78, "note_on_time": 1.432, "note_off_time": 2.153}, {"pitch": 60, "velocity": 91, "note_on_time": 2.86, "note_off_time": 3.658}, {"pitch": 62, "velocity": 74, "note_on_time": 4.304, "note_off_time": 4.526}, {"pitch": 62, "velocity": 49, "note_on_time": 4.637, "note_off_time": 4.88}, {"pitch": 64, "velocity": 64, "note_on_time": 4.979, "note_off_time": 5.205}, {"pitch": 62, "velocity": 55, "note_on_time": 5.337, "note_off_time": 5.588}, {"pitch": 62, "velocity": 9, "note_on_time": 5.888, "note_off_time": 6.09}, {"pitch": 62, "velocity": 1, "note_on_time": 6.513, "note_off_time": 6.642}, {"pitch": 64, "velocity": 14, "note_on_time": 6.783, "note_off_time": 6.972}, {"pitch": 60, "velocity": 67, "note_on_time": 7.134, "note_off_time": 7.512}, {"pitch": 62, "velocity": 69, "note_on_time": 7.863, "note_off_time": 7.919}, {"pitch": 64, "velocity": 15, "note_on_time": 7.894, "note_off_time": 8.071}, {"pitch": 64, "velocity": 63, "note_on_time": 8.168, "note_off_time": 8.389}, {"pitch": 62, "velocity": 61, "note_on_time": 8.543, "note_off_time": 8.739}, {"pitch": 60, "velocity": 57, "note_on_time": 8.889, "note_off_time": 9.066}, {"pitch": 64, "velocity": 46, "note_on_time": 9.216, "note_off_time": 9.404}, {"pitch": 64, "velocity": 48, "note_on_time": 9.525, "note_off_time": 9.756}, {"pitch": 62, "velocity": 53, "note_on_time": 9.947, "note_off_time": 10.148}, {"pitch": 60, "velocity": 62, "note_on_time": 10.296, "note_off_time": 10.588}, {"pitch": 60, "velocity": 57, "note_on_time": 11.46, "note_off_time": 11.634}, {"pitch": 60, "velocity": 61, "note_on_time": 11.781, "note_off_time": 11.961}, {"pitch": 60, "velocity": 64, "note_on_time": 12.128, "note_off_time": 12.384}]</notes><guidance name="Guidance Mode">None</guidance><error name="Error value">0.2561228333333322</error></trial><trial trial_no="3" timestamp="2022_11_03-13_31_51"><notes name="Played Notes">[{"pitch": 60, "velocity": 59, "note_on_time": 1.5, "note_off_time": 2.186}, {"pitch": 60, "velocity": 66, "note_on_time": 2.775, "note_off_time": 3.525}, {"pitch": 62, "velocity": 70, "note_on_time": 4.294, "note_off_time": 4.813}, {"pitch": 64, "velocity": 65, "note_on_time": 4.976, "note_off_time": 5.171}, {"pitch": 64, "velocity": 64, "note_on_time": 5.3, "note_off_time": 5.504}, {"pitch": 62, "velocity": 54, "note_on_time": 5.678, "note_off_time": 5.921}, {"pitch": 62, "velocity": 54, "note_on_time": 6.033, "note_off_time": 6.24}, {"pitch": 62, "velocity": 54, "note_on_time": 6.385, "note_off_time": 6.639}, {"pitch": 64, "velocity": 61, "note_on_time": 6.726, "note_off_time": 6.926}, {"pitch": 60, "velocity": 64, "note_on_time": 7.098, "note_off_time": 7.372}, {"pitch": 64, "velocity": 58, "note_on_time": 7.867, "note_off_time": 8.084}, {"pitch": 64, "velocity": 50, "note_on_time": 8.196, "note_off_time": 8.433}, {"pitch": 62, "velocity": 61, "note_on_time": 8.549, "note_off_time": 8.83}, {"pitch": 60, "velocity": 59, "note_on_time": 8.881, "note_off_time": 9.07}, {"pitch": 64, "velocity": 60, "note_on_time": 9.23, "note_off_time": 9.456}, {"pitch": 64, "velocity": 58, "note_on_time": 9.555, "note_off_time": 9.779}, {"pitch": 62, "velocity": 53, "note_on_time": 9.922, "note_off_time": 10.185}, {"pitch": 60, "velocity": 52, "note_on_time": 10.278, "note_off_time": 10.586}, {"pitch": 60, "velocity": 71, "note_on_time": 11.434, "note_off_time": 11.605}, {"pitch": 60, "velocity": 70, "note_on_time": 11.783, "note_off_time": 11.944}, {"pitch": 60, "velocity": 65, "note_on_time": 12.099, "note_off_time": 12.329}]</notes><guidance name="Guidance Mode">None</guidance><error name="Error value">0.043545944444444325</error></trial><trial trial_no="4" timestamp="2022_11_03-13_32_15"><notes name="Played Notes">[{"pitch": 60, "velocity": 78, "note_on_time": 1.41, "note_off_time": 2.16}, {"pitch": 60, "velocity": 71, "note_on_time": 2.842, "note_off_time": 3.677}, {"pitch": 62, "velocity": 65, "note_on_time": 4.298, "note_off_time": 4.909}, {"pitch": 64, "velocity": 49, "note_on_time": 4.979, "note_off_time": 5.194}, {"pitch": 64, "velocity": 52, "note_on_time": 5.328, "note_off_time": 5.554}, {"pitch": 62, "velocity": 72, "note_on_time": 5.711, "note_off_time": 5.988}, {"pitch": 62, "velocity": 36, "note_on_time": 6.064, "note_off_time": 6.241}, {"pitch": 62, "velocity": 54, "note_on_time": 6.398, "note_off_time": 6.659}, {"pitch": 64, "velocity": 64, "note_on_time": 6.768, "note_off_time": 6.975}, {"pitch": 60, "velocity": 69, "note_on_time": 7.143, "note_off_time": 7.494}, {"pitch": 64, "velocity": 69, "note_on_time": 7.882, "note_off_time": 8.066}, {"pitch": 64, "velocity": 57, "note_on_time": 8.189, "note_off_time": 8.458}, {"pitch": 62, "velocity": 60, "note_on_time": 8.562, "note_off_time": 8.836}, {"pitch": 60, "velocity": 72, "note_on_time": 8.914, "note_off_time": 9.082}, {"pitch": 64, "velocity": 70, "note_on_time": 9.24, "note_off_time": 9.47}, {"pitch": 64, "velocity": 68, "note_on_time": 9.593, "note_off_time": 9.813}, {"pitch": 62, "velocity": 57, "note_on_time": 9.943, "note_off_time": 10.267}, {"pitch": 60, "velocity": 55, "note_on_time": 10.307, "note_off_time": 10.514}, {"pitch": 60, "velocity": 81, "note_on_time": 11.478, "note_off_time": 11.674}, {"pitch": 60, "velocity": 57, "note_on_time": 11.787, "note_off_time": 11.958}, {"pitch": 60, "velocity": 79, "note_on_time": 12.124, "note_off_time": 12.484}]</notes><guidance name="Guidance Mode">None</guidance><error name="Error value">0.037808722222222056</error></trial></trials></MIDI>