<MIDI midiNo="2022_12_15-12_41_26"><target_notes><notes name="Note List">[{"pitch": 42, "velocity": 80, "note_on_time": 0.005, "note_off_time": 0.574}, {"pitch": 42, "velocity": 80, "note_on_time": 0.574, "note_off_time": 1.135}, {"pitch": 42, "velocity": 80, "note_on_time": 1.135, "note_off_time": 1.693}, {"pitch": 42, "velocity": 80, "note_on_time": 1.694, "note_off_time": 2.257}, {"pitch": 62, "velocity": 80, "note_on_time": 2.256, "note_off_time": 2.821}, {"pitch": 42, "velocity": 80, "note_on_time": 2.257, "note_off_time": 2.821}, {"pitch": 64, "velocity": 80, "note_on_time": 2.821, "note_off_time": 3.384}, {"pitch": 42, "velocity": 80, "note_on_time": 2.821, "note_off_time": 3.384}, {"pitch": 62, "velocity": 80, "note_on_time": 3.384, "note_off_time": 3.947}, {"pitch": 42, "velocity": 80, "note_on_time": 3.384, "note_off_time": 3.947}, {"pitch": 62, "velocity": 80, "note_on_time": 3.947, "note_off_time": 4.508}, {"pitch": 42, "velocity": 80, "note_on_time": 3.947, "note_off_time": 4.508}, {"pitch": 60, "velocity": 80, "note_on_time": 4.508, "note_off_time": 5.072}, {"pitch": 42, "velocity": 80, "note_on_time": 4.509, "note_off_time": 5.072}, {"pitch": 42, "velocity": 80, "note_on_time": 5.072, "note_off_time": 5.633}, {"pitch": 42, "velocity": 80, "note_on_time": 5.633, "note_off_time": 6.194}, {"pitch": 42, "velocity": 80, "note_on_time": 6.194, "note_off_time": 6.756}, {"pitch": 42, "velocity": 80, "note_on_time": 6.756, "note_off_time": 7.317}, {"pitch": 60, "velocity": 80, "note_on_time": 6.756, "note_off_time": 7.878}, {"pitch": 42, "velocity": 80, "note_on_time": 7.318, "note_off_time": 7.878}, {"pitch": 42, "velocity": 80, "note_on_time": 7.879, "note_off_time": 8.439}, {"pitch": 60, "velocity": 80, "note_on_time": 7.878, "note_off_time": 8.998}, {"pitch": 42, "velocity": 80, "note_on_time": 8.439, "note_off_time": 8.998}, {"pitch": 42, "velocity": 80, "note_on_time": 8.998, "note_off_time": 9.561}, {"pitch": 62, "velocity": 80, "note_on_time": 8.998, "note_off_time": 10.126}, {"pitch": 42, "velocity": 80, "note_on_time": 9.561, "note_off_time": 10.126}, {"pitch": 42, "velocity": 80, "note_on_time": 10.126, "note_off_time": 10.685}, {"pitch": 42, "velocity": 80, "note_on_time": 10.685, "note_off_time": 11.247}, {"pitch": 62, "velocity": 80, "note_on_time": 11.247, "note_off_time": 11.805}, {"pitch": 42, "velocity": 80, "note_on_time": 11.247, "note_off_time": 11.805}, {"pitch": 62, "velocity": 80, "note_on_time": 11.805, "note_off_time": 12.367}, {"pitch": 42, "velocity": 80, "note_on_time": 11.806, "note_off_time": 12.368}, {"pitch": 60, "velocity": 80, "note_on_time": 12.367, "note_off_time": 12.928}, {"pitch": 42, "velocity": 80, "note_on_time": 12.368, "note_off_time": 12.928}, {"pitch": 62, "velocity": 80, "note_on_time": 12.928, "note_off_time": 13.49}, {"pitch": 42, "velocity": 80, "note_on_time": 12.928, "note_off_time": 13.49}, {"pitch": 42, "velocity": 80, "note_on_time": 13.49, "note_off_time": 14.055}, {"pitch": 64, "velocity": 80, "note_on_time": 13.49, "note_off_time": 14.617}, {"pitch": 42, "velocity": 80, "note_on_time": 14.055, "note_off_time": 14.618}, {"pitch": 42, "velocity": 80, "note_on_time": 14.618, "note_off_time": 15.18}, {"pitch": 64, "velocity": 80, "note_on_time": 14.617, "note_off_time": 15.744}, {"pitch": 42, "velocity": 80, "note_on_time": 15.18, "note_off_time": 15.744}, {"pitch": 60, "velocity": 80, "note_on_time": 15.744, "note_off_time": 16.308}, {"pitch": 42, "velocity": 80, "note_on_time": 15.745, "note_off_time": 16.309}, {"pitch": 64, "velocity": 80, "note_on_time": 16.308, "note_off_time": 16.868}, {"pitch": 42, "velocity": 80, "note_on_time": 16.309, "note_off_time": 16.868}, {"pitch": 64, "velocity": 80, "note_on_time": 16.868, "note_off_time": 17.429}, {"pitch": 42, "velocity": 80, "note_on_time": 16.868, "note_off_time": 17.43}, {"pitch": 60, "velocity": 80, "note_on_time": 17.429, "note_off_time": 17.99}, {"pitch": 42, "velocity": 80, "note_on_time": 17.43, "note_off_time": 17.99}, {"pitch": 42, "velocity": 80, "note_on_time": 17.99, "note_off_time": 18.55}, {"pitch": 60, "velocity": 80, "note_on_time": 18.55, "note_off_time": 19.109}, {"pitch": 42, "velocity": 80, "note_on_time": 18.55, "note_off_time": 19.109}, {"pitch": 60, "velocity": 80, "note_on_time": 19.109, "note_off_time": 19.674}, {"pitch": 42, "velocity": 80, "note_on_time": 19.109, "note_off_time": 19.675}, {"pitch": 60, "velocity": 80, "note_on_time": 19.674, "note_off_time": 20.235}, {"pitch": 42, "velocity": 80, "note_on_time": 19.675, "note_off_time": 20.235}]</notes><options name="Option List">((4, 4), [0.5, 0.25], 3, 8, &lt;NoteRangePerHand.THREE_NOTES: 4&gt;, &lt;NoteRangePerHand.ONE_NOTE: 2&gt;, False, True, False, '108')</options></target_notes><trials><trial trial_no="1" timestamp="2022_12_15-12_41_05"><notes name="Played Notes">[{"pitch": 74, "velocity": 69, "note_on_time": 2.209, "note_off_time": 2.384}, {"pitch": 76, "velocity": 57, "note_on_time": 2.798, "note_off_time": 3.005}, {"pitch": 74, "velocity": 64, "note_on_time": 3.356, "note_off_time": 3.497}, {"pitch": 74, "velocity": 64, "note_on_time": 3.928, "note_off_time": 4.069}, {"pitch": 72, "velocity": 70, "note_on_time": 4.51, "note_off_time": 4.682}, {"pitch": 72, "velocity": 68, "note_on_time": 6.754, "note_off_time": 7.306}, {"pitch": 72, "velocity": 69, "note_on_time": 7.878, "note_off_time": 8.411}, {"pitch": 74, "velocity": 76, "note_on_time": 9.004, "note_off_time": 9.522}, {"pitch": 74, "velocity": 64, "note_on_time": 11.21, "note_off_time": 11.353}, {"pitch": 74, "velocity": 65, "note_on_time": 11.778, "note_off_time": 11.915}, {"pitch": 72, "velocity": 64, "note_on_time": 12.383, "note_off_time": 12.536}, {"pitch": 74, "velocity": 71, "note_on_time": 12.939, "note_off_time": 13.056}, {"pitch": 76, "velocity": 72, "note_on_time": 13.459, "note_off_time": 13.958}, {"pitch": 76, "velocity": 63, "note_on_time": 14.622, "note_off_time": 15.083}, {"pitch": 72, "velocity": 62, "note_on_time": 15.747, "note_off_time": 15.946}, {"pitch": 76, "velocity": 56, "note_on_time": 16.258, "note_off_time": 16.418}, {"pitch": 76, "velocity": 66, "note_on_time": 16.805, "note_off_time": 16.995}, {"pitch": 72, "velocity": 70, "note_on_time": 17.348, "note_off_time": 17.554}, {"pitch": 72, "velocity": 76, "note_on_time": 18.517, "note_off_time": 18.661}, {"pitch": 72, "velocity": 80, "note_on_time": 19.097, "note_off_time": 19.237}, {"pitch": 72, "velocity": 77, "note_on_time": 19.623, "note_off_time": 19.755}]</notes><guidance name="Guidance Mode">None</guidance><error name="Error value">1.1936547222222222</error></trial><trial trial_no="2" timestamp="2022_12_15-12_41_37"><notes name="Played Notes">[{"pitch": 74, "velocity": 62, "note_on_time": 2.256, "note_off_time": 2.442}, {"pitch": 76, "velocity": 61, "note_on_time": 2.801, "note_off_time": 3.015}, {"pitch": 74, "velocity": 61, "note_on_time": 3.369, "note_off_time": 3.522}, {"pitch": 74, "velocity": 67, "note_on_time": 3.939, "note_off_time": 4.111}, {"pitch": 72, "velocity": 74, "note_on_time": 4.491, "note_off_time": 4.662}, {"pitch": 72, "velocity": 70, "note_on_time": 6.71, "note_off_time": 7.216}, {"pitch": 72, "velocity": 69, "note_on_time": 7.857, "note_off_time": 8.375}, {"pitch": 74, "velocity": 61, "note_on_time": 8.94, "note_off_time": 9.537}, {"pitch": 74, "velocity": 25, "note_on_time": 11.368, "note_off_time": 11.464}, {"pitch": 74, "velocity": 27, "note_on_time": 11.864, "note_off_time": 12.016}, {"pitch": 72, "velocity": 59, "note_on_time": 12.394, "note_off_time": 12.553}, {"pitch": 74, "velocity": 53, "note_on_time": 12.937, "note_off_time": 13.092}, {"pitch": 76, "velocity": 68, "note_on_time": 13.485, "note_off_time": 14.005}, {"pitch": 76, "velocity": 69, "note_on_time": 14.63, "note_off_time": 15.084}, {"pitch": 72, "velocity": 59, "note_on_time": 15.753, "note_off_time": 15.929}, {"pitch": 76, "velocity": 52, "note_on_time": 16.308, "note_off_time": 16.487}, {"pitch": 76, "velocity": 66, "note_on_time": 16.85, "note_off_time": 17.029}, {"pitch": 72, "velocity": 68, "note_on_time": 17.428, "note_off_time": 17.631}, {"pitch": 72, "velocity": 53, "note_on_time": 18.531, "note_off_time": 18.667}, {"pitch": 72, "velocity": 45, "note_on_time": 19.078, "note_off_time": 19.166}, {"pitch": 72, "velocity": 52, "note_on_time": 19.613, "note_off_time": 19.758}]</notes><guidance name="Guidance Mode">None</guidance><error name="Error value">1.1965986111111109</error></trial><trial trial_no="3" timestamp="2022_12_15-12_42_11"><notes name="Played Notes">[{"pitch": 74, "velocity": 58, "note_on_time": 2.248, "note_off_time": 2.406}, {"pitch": 76, "velocity": 49, "note_on_time": 2.822, "note_off_time": 2.997}, {"pitch": 74, "velocity": 60, "note_on_time": 3.371, "note_off_time": 3.5}, {"pitch": 74, "velocity": 65, "note_on_time": 3.908, "note_off_time": 4.049}, {"pitch": 72, "velocity": 68, "note_on_time": 4.501, "note_off_time": 4.624}, {"pitch": 72, "velocity": 63, "note_on_time": 6.731, "note_off_time": 7.271}, {"pitch": 72, "velocity": 67, "note_on_time": 7.889, "note_off_time": 8.411}, {"pitch": 74, "velocity": 56, "note_on_time": 8.954, "note_off_time": 9.477}, {"pitch": 74, "velocity": 59, "note_on_time": 11.229, "note_off_time": 11.383}, {"pitch": 74, "velocity": 60, "note_on_time": 11.796, "note_off_time": 11.945}, {"pitch": 72, "velocity": 52, "note_on_time": 12.353, "note_off_time": 12.508}, {"pitch": 74, "velocity": 73, "note_on_time": 12.915, "note_off_time": 13.048}, {"pitch": 76, "velocity": 71, "note_on_time": 13.471, "note_off_time": 14.029}, {"pitch": 76, "velocity": 63, "note_on_time": 14.568, "note_off_time": 15.045}, {"pitch": 72, "velocity": 65, "note_on_time": 15.688, "note_off_time": 15.853}, {"pitch": 76, "velocity": 56, "note_on_time": 16.258, "note_off_time": 16.399}, {"pitch": 76, "velocity": 60, "note_on_time": 16.83, "note_off_time": 17.013}, {"pitch": 72, "velocity": 64, "note_on_time": 17.366, "note_off_time": 17.506}, {"pitch": 72, "velocity": 61, "note_on_time": 18.513, "note_off_time": 18.644}, {"pitch": 72, "velocity": 57, "note_on_time": 19.105, "note_off_time": 19.239}, {"pitch": 72, "velocity": 65, "note_on_time": 19.639, "note_off_time": 19.743}]</notes><guidance name="Guidance Mode">None</guidance><error name="Error value">1.1900930555555558</error></trial><trial trial_no="4" timestamp="2022_12_15-12_42_40"><notes name="Played Notes">[{"pitch": 74, "velocity": 54, "note_on_time": 2.289, "note_off_time": 2.443}, {"pitch": 76, "velocity": 49, "note_on_time": 2.834, "note_off_time": 3.034}, {"pitch": 74, "velocity": 59, "note_on_time": 3.365, "note_off_time": 3.49}, {"pitch": 74, "velocity": 64, "note_on_time": 3.919, "note_off_time": 4.056}, {"pitch": 72, "velocity": 55, "note_on_time": 4.489, "note_off_time": 4.615}, {"pitch": 72, "velocity": 70, "note_on_time": 6.761, "note_off_time": 7.338}, {"pitch": 72, "velocity": 67, "note_on_time": 7.867, "note_off_time": 8.431}, {"pitch": 74, "velocity": 66, "note_on_time": 8.968, "note_off_time": 9.525}, {"pitch": 74, "velocity": 60, "note_on_time": 11.262, "note_off_time": 11.397}, {"pitch": 74, "velocity": 66, "note_on_time": 11.836, "note_off_time": 11.967}, {"pitch": 72, "velocity": 53, "note_on_time": 12.378, "note_off_time": 12.528}, {"pitch": 74, "velocity": 60, "note_on_time": 12.923, "note_off_time": 13.043}, {"pitch": 76, "velocity": 56, "note_on_time": 13.479, "note_off_time": 14.073}, {"pitch": 76, "velocity": 61, "note_on_time": 14.604, "note_off_time": 15.219}, {"pitch": 72, "velocity": 53, "note_on_time": 15.74, "note_off_time": 15.955}, {"pitch": 76, "velocity": 63, "note_on_time": 16.292, "note_off_time": 16.45}, {"pitch": 76, "velocity": 65, "note_on_time": 16.844, "note_off_time": 17.044}, {"pitch": 72, "velocity": 58, "note_on_time": 17.377, "note_off_time": 17.582}, {"pitch": 72, "velocity": 56, "note_on_time": 18.547, "note_off_time": 18.704}, {"pitch": 72, "velocity": 61, "note_on_time": 19.142, "note_off_time": 19.27}, {"pitch": 72, "velocity": 61, "note_on_time": 19.665, "note_off_time": 19.811}]</notes><guidance name="Guidance Mode">None</guidance><error name="Error value">1.1905680555555558</error></trial><trial trial_no="5" timestamp="2022_12_15-12_43_10"><notes name="Played Notes">[{"pitch": 74, "velocity": 51, "note_on_time": 2.206, "note_off_time": 2.386}, {"pitch": 76, "velocity": 47, "note_on_time": 2.79, "note_off_time": 2.969}, {"pitch": 74, "velocity": 30, "note_on_time": 3.373, "note_off_time": 3.481}, {"pitch": 74, "velocity": 43, "note_on_time": 3.913, "note_off_time": 4.064}, {"pitch": 72, "velocity": 59, "note_on_time": 4.462, "note_off_time": 4.587}, {"pitch": 72, "velocity": 52, "note_on_time": 6.706, "note_off_time": 7.24}, {"pitch": 72, "velocity": 55, "note_on_time": 7.78, "note_off_time": 8.409}, {"pitch": 74, "velocity": 58, "note_on_time": 8.939, "note_off_time": 9.668}, {"pitch": 74, "velocity": 62, "note_on_time": 11.189, "note_off_time": 11.327}, {"pitch": 74, "velocity": 57, "note_on_time": 11.777, "note_off_time": 11.947}, {"pitch": 72, "velocity": 52, "note_on_time": 12.335, "note_off_time": 12.495}, {"pitch": 74, "velocity": 49, "note_on_time": 12.92, "note_off_time": 13.094}, {"pitch": 76, "velocity": 52, "note_on_time": 13.455, "note_off_time": 14.01}, {"pitch": 76, "velocity": 54, "note_on_time": 14.607, "note_off_time": 15.073}, {"pitch": 72, "velocity": 49, "note_on_time": 15.724, "note_off_time": 15.904}, {"pitch": 76, "velocity": 55, "note_on_time": 16.264, "note_off_time": 16.419}, {"pitch": 76, "velocity": 55, "note_on_time": 16.804, "note_off_time": 16.997}, {"pitch": 72, "velocity": 64, "note_on_time": 17.362, "note_off_time": 17.561}, {"pitch": 72, "velocity": 61, "note_on_time": 18.539, "note_off_time": 18.679}, {"pitch": 72, "velocity": 62, "note_on_time": 19.091, "note_off_time": 19.213}, {"pitch": 72, "velocity": 59, "note_on_time": 19.612, "note_off_time": 19.744}]</notes><guidance name="Guidance Mode">None</guidance><error name="Error value">1.1934325000000006</error></trial></trials></MIDI>