<MIDI midiNo="2022_11_10-11_47_42"><target_notes><notes name="Note List">[{"pitch": 42, "velocity": 80, "note_on_time": 0.004, "note_off_time": 0.739}, {"pitch": 42, "velocity": 80, "note_on_time": 0.739, "note_off_time": 1.47}, {"pitch": 42, "velocity": 80, "note_on_time": 1.47, "note_off_time": 2.203}, {"pitch": 42, "velocity": 80, "note_on_time": 2.203, "note_off_time": 2.936}, {"pitch": 42, "velocity": 80, "note_on_time": 2.937, "note_off_time": 3.666}, {"pitch": 60, "velocity": 80, "note_on_time": 2.936, "note_off_time": 4.398}, {"pitch": 42, "velocity": 80, "note_on_time": 3.667, "note_off_time": 4.398}, {"pitch": 42, "velocity": 80, "note_on_time": 4.398, "note_off_time": 5.131}, {"pitch": 42, "velocity": 80, "note_on_time": 5.131, "note_off_time": 5.865}, {"pitch": 60, "velocity": 80, "note_on_time": 5.865, "note_off_time": 6.594}, {"pitch": 42, "velocity": 80, "note_on_time": 5.866, "note_off_time": 6.594}, {"pitch": 60, "velocity": 80, "note_on_time": 6.594, "note_off_time": 7.325}, {"pitch": 42, "velocity": 80, "note_on_time": 6.594, "note_off_time": 7.325}, {"pitch": 64, "velocity": 80, "note_on_time": 7.325, "note_off_time": 8.056}, {"pitch": 42, "velocity": 80, "note_on_time": 7.325, "note_off_time": 8.056}, {"pitch": 60, "velocity": 80, "note_on_time": 8.056, "note_off_time": 8.781}, {"pitch": 42, "velocity": 80, "note_on_time": 8.057, "note_off_time": 8.782}, {"pitch": 64, "velocity": 80, "note_on_time": 8.781, "note_off_time": 9.513}, {"pitch": 42, "velocity": 80, "note_on_time": 8.782, "note_off_time": 9.513}, {"pitch": 62, "velocity": 80, "note_on_time": 9.513, "note_off_time": 10.241}, {"pitch": 42, "velocity": 80, "note_on_time": 9.513, "note_off_time": 10.242}, {"pitch": 60, "velocity": 80, "note_on_time": 10.241, "note_off_time": 10.974}, {"pitch": 42, "velocity": 80, "note_on_time": 10.242, "note_off_time": 10.974}, {"pitch": 64, "velocity": 80, "note_on_time": 10.974, "note_off_time": 11.704}, {"pitch": 42, "velocity": 80, "note_on_time": 10.974, "note_off_time": 11.704}, {"pitch": 60, "velocity": 80, "note_on_time": 11.704, "note_off_time": 12.433}, {"pitch": 42, "velocity": 80, "note_on_time": 11.704, "note_off_time": 12.434}, {"pitch": 42, "velocity": 80, "note_on_time": 12.434, "note_off_time": 13.162}, {"pitch": 42, "velocity": 80, "note_on_time": 13.162, "note_off_time": 13.894}, {"pitch": 42, "velocity": 80, "note_on_time": 13.894, "note_off_time": 14.622}, {"pitch": 60, "velocity": 80, "note_on_time": 14.622, "note_off_time": 15.353}, {"pitch": 42, "velocity": 80, "note_on_time": 14.622, "note_off_time": 15.353}, {"pitch": 62, "velocity": 80, "note_on_time": 15.353, "note_off_time": 16.084}, {"pitch": 42, "velocity": 80, "note_on_time": 15.353, "note_off_time": 16.085}, {"pitch": 64, "velocity": 80, "note_on_time": 16.084, "note_off_time": 16.814}, {"pitch": 42, "velocity": 80, "note_on_time": 16.085, "note_off_time": 16.814}, {"pitch": 64, "velocity": 80, "note_on_time": 16.814, "note_off_time": 17.545}, {"pitch": 42, "velocity": 80, "note_on_time": 16.815, "note_off_time": 17.546}, {"pitch": 62, "velocity": 80, "note_on_time": 17.545, "note_off_time": 18.276}, {"pitch": 42, "velocity": 80, "note_on_time": 17.546, "note_off_time": 18.277}, {"pitch": 42, "velocity": 80, "note_on_time": 18.277, "note_off_time": 19.009}, {"pitch": 64, "velocity": 80, "note_on_time": 18.276, "note_off_time": 19.741}, {"pitch": 42, "velocity": 80, "note_on_time": 19.009, "note_off_time": 19.741}, {"pitch": 42, "velocity": 80, "note_on_time": 19.741, "note_off_time": 20.472}, {"pitch": 42, "velocity": 80, "note_on_time": 20.473, "note_off_time": 21.203}, {"pitch": 64, "velocity": 80, "note_on_time": 20.472, "note_off_time": 21.932}, {"pitch": 42, "velocity": 80, "note_on_time": 21.203, "note_off_time": 21.933}, {"pitch": 42, "velocity": 80, "note_on_time": 21.933, "note_off_time": 22.666}, {"pitch": 42, "velocity": 80, "note_on_time": 22.666, "note_off_time": 23.398}, {"pitch": 42, "velocity": 80, "note_on_time": 23.398, "note_off_time": 24.128}, {"pitch": 64, "velocity": 80, "note_on_time": 24.127, "note_off_time": 24.857}, {"pitch": 42, "velocity": 80, "note_on_time": 24.128, "note_off_time": 24.857}, {"pitch": 64, "velocity": 80, "note_on_time": 24.857, "note_off_time": 25.586}, {"pitch": 42, "velocity": 80, "note_on_time": 24.858, "note_off_time": 25.586}, {"pitch": 64, "velocity": 80, "note_on_time": 25.586, "note_off_time": 26.318}, {"pitch": 42, "velocity": 80, "note_on_time": 25.586, "note_off_time": 26.319}]</notes><options name="Option List">((4, 4), [0.5, 0.25], 3, 8, &lt;NoteRangePerHand.THREE_NOTES: 4&gt;, &lt;NoteRangePerHand.ONE_NOTE: 2&gt;, False, True, False, 83)</options></target_notes><trials><trial trial_no="1" timestamp="2022_11_10-11_47_14"><notes name="Played Notes">[{"pitch": 60, "velocity": 77, "note_on_time": 2.861, "note_off_time": 3.868}, {"pitch": 60, "velocity": 77, "note_on_time": 5.137, "note_off_time": 5.36}, {"pitch": 60, "velocity": 79, "note_on_time": 5.836, "note_off_time": 6.052}, {"pitch": 64, "velocity": 74, "note_on_time": 6.581, "note_off_time": 6.803}, {"pitch": 60, "velocity": 81, "note_on_time": 7.316, "note_off_time": 7.512}, {"pitch": 64, "velocity": 70, "note_on_time": 7.995, "note_off_time": 8.211}, {"pitch": 62, "velocity": 75, "note_on_time": 8.676, "note_off_time": 8.881}, {"pitch": 60, "velocity": 74, "note_on_time": 9.407, "note_off_time": 9.605}, {"pitch": 64, "velocity": 73, "note_on_time": 10.132, "note_off_time": 10.339}, {"pitch": 60, "velocity": 79, "note_on_time": 10.85, "note_off_time": 11.036}, {"pitch": 60, "velocity": 77, "note_on_time": 13.15, "note_off_time": 13.411}, {"pitch": 62, "velocity": 76, "note_on_time": 13.851, "note_off_time": 14.083}, {"pitch": 64, "velocity": 71, "note_on_time": 14.533, "note_off_time": 14.78}, {"pitch": 64, "velocity": 72, "note_on_time": 15.268, "note_off_time": 15.499}, {"pitch": 62, "velocity": 70, "note_on_time": 15.977, "note_off_time": 16.217}, {"pitch": 64, "velocity": 75, "note_on_time": 16.683, "note_off_time": 17.826}, {"pitch": 64, "velocity": 72, "note_on_time": 18.944, "note_off_time": 19.972}, {"pitch": 64, "velocity": 67, "note_on_time": 22.657, "note_off_time": 22.907}, {"pitch": 64, "velocity": 77, "note_on_time": 23.359, "note_off_time": 23.591}, {"pitch": 64, "velocity": 75, "note_on_time": 24.066, "note_off_time": 24.348}]</notes><guidance name="Guidance Mode">None</guidance><error name="Error value">0.09996794117647084</error></trial><trial trial_no="2" timestamp="2022_11_10-11_47_53"><notes name="Played Notes">[{"pitch": 60, "velocity": 87, "note_on_time": 2.893, "note_off_time": 3.234}, {"pitch": 60, "velocity": 85, "note_on_time": 5.112, "note_off_time": 5.411}, {"pitch": 60, "velocity": 87, "note_on_time": 5.837, "note_off_time": 6.133}, {"pitch": 64, "velocity": 77, "note_on_time": 6.553, "note_off_time": 6.839}, {"pitch": 60, "velocity": 78, "note_on_time": 7.278, "note_off_time": 7.54}, {"pitch": 64, "velocity": 75, "note_on_time": 7.989, "note_off_time": 8.273}, {"pitch": 62, "velocity": 75, "note_on_time": 8.695, "note_off_time": 8.941}, {"pitch": 60, "velocity": 83, "note_on_time": 9.411, "note_off_time": 9.672}, {"pitch": 64, "velocity": 73, "note_on_time": 10.155, "note_off_time": 10.414}, {"pitch": 60, "velocity": 84, "note_on_time": 10.913, "note_off_time": 11.195}, {"pitch": 60, "velocity": 81, "note_on_time": 13.157, "note_off_time": 13.476}, {"pitch": 62, "velocity": 77, "note_on_time": 13.855, "note_off_time": 14.137}, {"pitch": 64, "velocity": 75, "note_on_time": 14.572, "note_off_time": 14.877}, {"pitch": 64, "velocity": 77, "note_on_time": 15.335, "note_off_time": 15.596}, {"pitch": 62, "velocity": 73, "note_on_time": 16.026, "note_off_time": 16.304}, {"pitch": 64, "velocity": 77, "note_on_time": 16.746, "note_off_time": 17.795}, {"pitch": 64, "velocity": 73, "note_on_time": 19.012, "note_off_time": 19.899}, {"pitch": 64, "velocity": 76, "note_on_time": 21.961, "note_off_time": 22.292}, {"pitch": 64, "velocity": 80, "note_on_time": 22.631, "note_off_time": 22.894}, {"pitch": 64, "velocity": 77, "note_on_time": 23.326, "note_off_time": 23.683}]</notes><guidance name="Guidance Mode">None</guidance><error name="Error value">0.1395508823529416</error></trial><trial trial_no="3" timestamp="2022_11_10-11_48_32"><notes name="Played Notes">[{"pitch": 60, "velocity": 76, "note_on_time": 2.917, "note_off_time": 3.976}, {"pitch": 60, "velocity": 71, "note_on_time": 5.856, "note_off_time": 6.131}, {"pitch": 60, "velocity": 74, "note_on_time": 6.555, "note_off_time": 6.797}, {"pitch": 64, "velocity": 68, "note_on_time": 7.227, "note_off_time": 7.479}, {"pitch": 60, "velocity": 72, "note_on_time": 7.993, "note_off_time": 8.234}, {"pitch": 64, "velocity": 65, "note_on_time": 8.758, "note_off_time": 9.031}, {"pitch": 62, "velocity": 67, "note_on_time": 9.429, "note_off_time": 9.675}, {"pitch": 60, "velocity": 76, "note_on_time": 10.164, "note_off_time": 10.429}, {"pitch": 64, "velocity": 67, "note_on_time": 10.89, "note_off_time": 11.12}, {"pitch": 60, "velocity": 72, "note_on_time": 11.628, "note_off_time": 11.89}, {"pitch": 60, "velocity": 75, "note_on_time": 13.859, "note_off_time": 14.133}, {"pitch": 62, "velocity": 73, "note_on_time": 14.579, "note_off_time": 14.837}, {"pitch": 64, "velocity": 72, "note_on_time": 15.283, "note_off_time": 15.557}, {"pitch": 64, "velocity": 73, "note_on_time": 16.048, "note_off_time": 16.289}, {"pitch": 62, "velocity": 73, "note_on_time": 16.761, "note_off_time": 17.007}, {"pitch": 64, "velocity": 74, "note_on_time": 17.502, "note_off_time": 18.503}, {"pitch": 64, "velocity": 70, "note_on_time": 19.692, "note_off_time": 20.611}, {"pitch": 64, "velocity": 70, "note_on_time": 22.605, "note_off_time": 22.933}, {"pitch": 64, "velocity": 72, "note_on_time": 23.319, "note_off_time": 23.616}, {"pitch": 64, "velocity": 74, "note_on_time": 24.052, "note_off_time": 24.456}]</notes><guidance name="Guidance Mode">None</guidance><error name="Error value">0.10493476470588213</error></trial></trials></MIDI>