<MIDI midiNo="2022_12_22-11_20_36"><target_notes><notes name="Note List">[{"pitch": 42, "velocity": 80, "note_on_time": 0.004, "note_off_time": 0.738}, {"pitch": 42, "velocity": 80, "note_on_time": 0.739, "note_off_time": 1.469}, {"pitch": 42, "velocity": 80, "note_on_time": 1.469, "note_off_time": 2.2}, {"pitch": 42, "velocity": 80, "note_on_time": 2.201, "note_off_time": 2.935}, {"pitch": 62, "velocity": 80, "note_on_time": 2.935, "note_off_time": 3.667}, {"pitch": 42, "velocity": 80, "note_on_time": 2.935, "note_off_time": 3.667}, {"pitch": 60, "velocity": 80, "note_on_time": 3.667, "note_off_time": 4.398}, {"pitch": 42, "velocity": 80, "note_on_time": 3.667, "note_off_time": 4.398}, {"pitch": 62, "velocity": 80, "note_on_time": 4.398, "note_off_time": 5.13}, {"pitch": 42, "velocity": 80, "note_on_time": 4.398, "note_off_time": 5.13}, {"pitch": 62, "velocity": 80, "note_on_time": 5.13, "note_off_time": 5.862}, {"pitch": 42, "velocity": 80, "note_on_time": 5.13, "note_off_time": 5.863}, {"pitch": 64, "velocity": 80, "note_on_time": 5.862, "note_off_time": 6.592}, {"pitch": 42, "velocity": 80, "note_on_time": 5.863, "note_off_time": 6.592}, {"pitch": 60, "velocity": 80, "note_on_time": 6.592, "note_off_time": 7.326}, {"pitch": 42, "velocity": 80, "note_on_time": 6.593, "note_off_time": 7.326}, {"pitch": 64, "velocity": 80, "note_on_time": 7.326, "note_off_time": 8.058}, {"pitch": 42, "velocity": 80, "note_on_time": 7.327, "note_off_time": 8.058}, {"pitch": 60, "velocity": 80, "note_on_time": 8.058, "note_off_time": 8.792}, {"pitch": 42, "velocity": 80, "note_on_time": 8.058, "note_off_time": 8.793}, {"pitch": 64, "velocity": 80, "note_on_time": 8.792, "note_off_time": 9.524}, {"pitch": 42, "velocity": 80, "note_on_time": 8.793, "note_off_time": 9.524}, {"pitch": 64, "velocity": 80, "note_on_time": 9.524, "note_off_time": 10.26}, {"pitch": 42, "velocity": 80, "note_on_time": 9.524, "note_off_time": 10.26}, {"pitch": 62, "velocity": 80, "note_on_time": 10.26, "note_off_time": 10.989}, {"pitch": 42, "velocity": 80, "note_on_time": 10.26, "note_off_time": 10.989}, {"pitch": 64, "velocity": 80, "note_on_time": 10.989, "note_off_time": 11.722}, {"pitch": 42, "velocity": 80, "note_on_time": 10.99, "note_off_time": 11.722}, {"pitch": 42, "velocity": 80, "note_on_time": 11.722, "note_off_time": 12.453}, {"pitch": 60, "velocity": 80, "note_on_time": 11.722, "note_off_time": 13.186}, {"pitch": 42, "velocity": 80, "note_on_time": 12.453, "note_off_time": 13.186}, {"pitch": 42, "velocity": 80, "note_on_time": 13.186, "note_off_time": 13.913}, {"pitch": 42, "velocity": 80, "note_on_time": 13.913, "note_off_time": 14.646}, {"pitch": 64, "velocity": 80, "note_on_time": 14.646, "note_off_time": 15.377}, {"pitch": 42, "velocity": 80, "note_on_time": 14.646, "note_off_time": 15.377}, {"pitch": 60, "velocity": 80, "note_on_time": 15.377, "note_off_time": 16.111}, {"pitch": 42, "velocity": 80, "note_on_time": 15.378, "note_off_time": 16.111}, {"pitch": 42, "velocity": 80, "note_on_time": 16.111, "note_off_time": 16.842}, {"pitch": 60, "velocity": 80, "note_on_time": 16.111, "note_off_time": 17.575}, {"pitch": 42, "velocity": 80, "note_on_time": 16.843, "note_off_time": 17.575}, {"pitch": 42, "velocity": 80, "note_on_time": 17.575, "note_off_time": 18.306}, {"pitch": 62, "velocity": 80, "note_on_time": 17.575, "note_off_time": 19.035}, {"pitch": 42, "velocity": 80, "note_on_time": 18.306, "note_off_time": 19.036}, {"pitch": 42, "velocity": 80, "note_on_time": 19.036, "note_off_time": 19.764}, {"pitch": 42, "velocity": 80, "note_on_time": 19.764, "note_off_time": 20.492}, {"pitch": 60, "velocity": 80, "note_on_time": 20.492, "note_off_time": 21.225}, {"pitch": 42, "velocity": 80, "note_on_time": 20.492, "note_off_time": 21.225}, {"pitch": 42, "velocity": 80, "note_on_time": 21.226, "note_off_time": 21.958}, {"pitch": 42, "velocity": 80, "note_on_time": 21.958, "note_off_time": 22.691}, {"pitch": 62, "velocity": 80, "note_on_time": 22.691, "note_off_time": 23.421}, {"pitch": 42, "velocity": 80, "note_on_time": 22.691, "note_off_time": 23.422}, {"pitch": 42, "velocity": 80, "note_on_time": 23.422, "note_off_time": 24.155}, {"pitch": 62, "velocity": 80, "note_on_time": 24.154, "note_off_time": 24.888}, {"pitch": 42, "velocity": 80, "note_on_time": 24.155, "note_off_time": 24.888}, {"pitch": 62, "velocity": 80, "note_on_time": 24.888, "note_off_time": 25.618}, {"pitch": 42, "velocity": 80, "note_on_time": 24.888, "note_off_time": 25.618}, {"pitch": 62, "velocity": 80, "note_on_time": 25.618, "note_off_time": 26.347}, {"pitch": 42, "velocity": 80, "note_on_time": 25.618, "note_off_time": 26.347}]</notes><options name="Option List">((4, 4), [0.5, 0.25], 3, 8, &lt;NoteRangePerHand.THREE_NOTES: 4&gt;, &lt;NoteRangePerHand.ONE_NOTE: 2&gt;, False, True, False, 83)</options></target_notes><trials><trial trial_no="1" timestamp="2022_12_22-11_20_08"><notes name="Played Notes">[{"pitch": 62, "velocity": 46, "note_on_time": 2.897, "note_off_time": 3.237}, {"pitch": 60, "velocity": 50, "note_on_time": 3.636, "note_off_time": 3.998}, {"pitch": 62, "velocity": 50, "note_on_time": 4.389, "note_off_time": 4.643}, {"pitch": 62, "velocity": 53, "note_on_time": 5.087, "note_off_time": 5.316}, {"pitch": 64, "velocity": 61, "note_on_time": 5.791, "note_off_time": 6.104}, {"pitch": 60, "velocity": 50, "note_on_time": 6.578, "note_off_time": 6.959}, {"pitch": 64, "velocity": 49, "note_on_time": 7.325, "note_off_time": 7.671}, {"pitch": 60, "velocity": 55, "note_on_time": 8.072, "note_off_time": 8.415}, {"pitch": 64, "velocity": 59, "note_on_time": 8.753, "note_off_time": 9.047}, {"pitch": 64, "velocity": 47, "note_on_time": 9.474, "note_off_time": 9.834}, {"pitch": 62, "velocity": 53, "note_on_time": 10.193, "note_off_time": 10.53}, {"pitch": 64, "velocity": 60, "note_on_time": 10.894, "note_off_time": 11.222}, {"pitch": 60, "velocity": 46, "note_on_time": 11.621, "note_off_time": 12.636}, {"pitch": 64, "velocity": 51, "note_on_time": 14.603, "note_off_time": 14.966}, {"pitch": 60, "velocity": 51, "note_on_time": 15.32, "note_off_time": 15.623}, {"pitch": 60, "velocity": 51, "note_on_time": 15.998, "note_off_time": 17.225}, {"pitch": 62, "velocity": 49, "note_on_time": 17.551, "note_off_time": 19.136}, {"pitch": 60, "velocity": 51, "note_on_time": 20.537, "note_off_time": 20.951}, {"pitch": 62, "velocity": 51, "note_on_time": 22.658, "note_off_time": 23.057}, {"pitch": 62, "velocity": 42, "note_on_time": 24.18, "note_off_time": 24.464}, {"pitch": 62, "velocity": 52, "note_on_time": 24.846, "note_off_time": 25.128}, {"pitch": 62, "velocity": 47, "note_on_time": 25.534, "note_off_time": 25.777}]</notes><guidance name="Guidance Mode">None</guidance><error name="Error value">0.04392342105263157</error></trial><trial trial_no="2" timestamp="2022_12_22-11_20_42"><notes name="Played Notes">[{"pitch": 62, "velocity": 54, "note_on_time": 2.922, "note_off_time": 3.242}, {"pitch": 60, "velocity": 47, "note_on_time": 3.625, "note_off_time": 4.026}, {"pitch": 62, "velocity": 50, "note_on_time": 4.357, "note_off_time": 4.665}, {"pitch": 62, "velocity": 52, "note_on_time": 5.095, "note_off_time": 5.411}, {"pitch": 64, "velocity": 54, "note_on_time": 5.865, "note_off_time": 6.193}, {"pitch": 60, "velocity": 44, "note_on_time": 6.589, "note_off_time": 6.962}, {"pitch": 64, "velocity": 37, "note_on_time": 7.333, "note_off_time": 7.807}, {"pitch": 60, "velocity": 37, "note_on_time": 8.056, "note_off_time": 8.479}, {"pitch": 62, "velocity": 46, "note_on_time": 8.783, "note_off_time": 9.1}, {"pitch": 62, "velocity": 33, "note_on_time": 9.585, "note_off_time": 9.77}, {"pitch": 62, "velocity": 15, "note_on_time": 10.61, "note_off_time": 10.928}, {"pitch": 60, "velocity": 62, "note_on_time": 11.475, "note_off_time": 12.147}, {"pitch": 60, "velocity": 62, "note_on_time": 13.933, "note_off_time": 15.218}, {"pitch": 62, "velocity": 52, "note_on_time": 15.358, "note_off_time": 17.864}, {"pitch": 60, "velocity": 60, "note_on_time": 18.301, "note_off_time": 20.105}, {"pitch": 60, "velocity": 55, "note_on_time": 20.551, "note_off_time": 20.761}, {"pitch": 62, "velocity": 47, "note_on_time": 21.311, "note_off_time": 21.609}, {"pitch": 62, "velocity": 28, "note_on_time": 21.978, "note_off_time": 22.204}, {"pitch": 62, "velocity": 23, "note_on_time": 22.654, "note_off_time": 22.826}, {"pitch": 62, "velocity": 30, "note_on_time": 23.329, "note_off_time": 23.5}]</notes><guidance name="Guidance Mode">None</guidance><error name="Error value">0.6877780000000002</error></trial><trial trial_no="3" timestamp="2022_12_22-11_21_22"><notes name="Played Notes">[{"pitch": 62, "velocity": 67, "note_on_time": 2.886, "note_off_time": 3.288}, {"pitch": 60, "velocity": 70, "note_on_time": 3.614, "note_off_time": 4.089}, {"pitch": 62, "velocity": 62, "note_on_time": 4.346, "note_off_time": 4.619}, {"pitch": 62, "velocity": 62, "note_on_time": 5.039, "note_off_time": 5.336}, {"pitch": 64, "velocity": 65, "note_on_time": 5.74, "note_off_time": 6.095}, {"pitch": 60, "velocity": 62, "note_on_time": 6.482, "note_off_time": 6.845}, {"pitch": 64, "velocity": 50, "note_on_time": 7.225, "note_off_time": 7.548}, {"pitch": 60, "velocity": 62, "note_on_time": 7.953, "note_off_time": 8.275}, {"pitch": 62, "velocity": 62, "note_on_time": 8.697, "note_off_time": 8.962}, {"pitch": 64, "velocity": 62, "note_on_time": 9.565, "note_off_time": 9.843}, {"pitch": 62, "velocity": 54, "note_on_time": 10.211, "note_off_time": 10.468}, {"pitch": 64, "velocity": 58, "note_on_time": 10.842, "note_off_time": 11.201}, {"pitch": 60, "velocity": 72, "note_on_time": 11.578, "note_off_time": 14.192}, {"pitch": 64, "velocity": 64, "note_on_time": 14.616, "note_off_time": 14.917}, {"pitch": 60, "velocity": 64, "note_on_time": 15.337, "note_off_time": 15.647}, {"pitch": 60, "velocity": 57, "note_on_time": 15.978, "note_off_time": 17.1}, {"pitch": 62, "velocity": 60, "note_on_time": 17.491, "note_off_time": 19.959}, {"pitch": 60, "velocity": 64, "note_on_time": 20.435, "note_off_time": 22.464}, {"pitch": 62, "velocity": 64, "note_on_time": 22.697, "note_off_time": 24.273}, {"pitch": 62, "velocity": 64, "note_on_time": 24.847, "note_off_time": 25.182}, {"pitch": 62, "velocity": 57, "note_on_time": 25.569, "note_off_time": 25.902}]</notes><guidance name="Guidance Mode">None</guidance><error name="Error value">0.19081142105263152</error></trial></trials></MIDI>