<MIDI midiNo="2022_12_22-12_22_13"><target_notes><notes name="Note List">[{"pitch": 42, "velocity": 80, "note_on_time": 0.004, "note_off_time": 0.253}, {"pitch": 42, "velocity": 80, "note_on_time": 0.254, "note_off_time": 0.504}, {"pitch": 42, "velocity": 80, "note_on_time": 0.505, "note_off_time": 0.752}, {"pitch": 42, "velocity": 80, "note_on_time": 0.753, "note_off_time": 1.002}, {"pitch": 62, "velocity": 80, "note_on_time": 1.001, "note_off_time": 1.251}, {"pitch": 42, "velocity": 80, "note_on_time": 1.002, "note_off_time": 1.251}, {"pitch": 60, "velocity": 80, "note_on_time": 1.251, "note_off_time": 1.501}, {"pitch": 42, "velocity": 80, "note_on_time": 1.252, "note_off_time": 1.502}, {"pitch": 64, "velocity": 80, "note_on_time": 1.501, "note_off_time": 1.752}, {"pitch": 42, "velocity": 80, "note_on_time": 1.502, "note_off_time": 1.752}, {"pitch": 60, "velocity": 80, "note_on_time": 1.752, "note_off_time": 2.002}, {"pitch": 42, "velocity": 80, "note_on_time": 1.752, "note_off_time": 2.002}, {"pitch": 67, "velocity": 80, "note_on_time": 2.002, "note_off_time": 2.251}, {"pitch": 42, "velocity": 80, "note_on_time": 2.002, "note_off_time": 2.251}, {"pitch": 65, "velocity": 80, "note_on_time": 2.251, "note_off_time": 2.5}, {"pitch": 42, "velocity": 80, "note_on_time": 2.251, "note_off_time": 2.5}, {"pitch": 67, "velocity": 80, "note_on_time": 2.5, "note_off_time": 2.75}, {"pitch": 42, "velocity": 80, "note_on_time": 2.5, "note_off_time": 2.75}, {"pitch": 64, "velocity": 80, "note_on_time": 2.75, "note_off_time": 2.999}, {"pitch": 42, "velocity": 80, "note_on_time": 2.75, "note_off_time": 3.004}, {"pitch": 42, "velocity": 80, "note_on_time": 3.004, "note_off_time": 3.249}, {"pitch": 64, "velocity": 80, "note_on_time": 2.999, "note_off_time": 3.498}, {"pitch": 42, "velocity": 80, "note_on_time": 3.25, "note_off_time": 3.498}, {"pitch": 42, "velocity": 80, "note_on_time": 3.498, "note_off_time": 3.749}, {"pitch": 42, "velocity": 80, "note_on_time": 3.75, "note_off_time": 3.998}, {"pitch": 60, "velocity": 80, "note_on_time": 3.998, "note_off_time": 4.247}, {"pitch": 42, "velocity": 80, "note_on_time": 3.998, "note_off_time": 4.248}, {"pitch": 64, "velocity": 80, "note_on_time": 4.247, "note_off_time": 4.497}, {"pitch": 42, "velocity": 80, "note_on_time": 4.248, "note_off_time": 4.498}, {"pitch": 65, "velocity": 80, "note_on_time": 4.497, "note_off_time": 4.745}, {"pitch": 42, "velocity": 80, "note_on_time": 4.498, "note_off_time": 4.745}, {"pitch": 65, "velocity": 80, "note_on_time": 4.745, "note_off_time": 4.996}, {"pitch": 42, "velocity": 80, "note_on_time": 4.746, "note_off_time": 4.997}, {"pitch": 62, "velocity": 80, "note_on_time": 4.996, "note_off_time": 5.245}, {"pitch": 42, "velocity": 80, "note_on_time": 4.997, "note_off_time": 5.245}, {"pitch": 60, "velocity": 80, "note_on_time": 5.245, "note_off_time": 5.493}, {"pitch": 42, "velocity": 80, "note_on_time": 5.245, "note_off_time": 5.494}, {"pitch": 65, "velocity": 80, "note_on_time": 5.493, "note_off_time": 5.741}, {"pitch": 42, "velocity": 80, "note_on_time": 5.494, "note_off_time": 5.742}, {"pitch": 64, "velocity": 80, "note_on_time": 5.741, "note_off_time": 5.989}, {"pitch": 42, "velocity": 80, "note_on_time": 5.742, "note_off_time": 5.989}, {"pitch": 64, "velocity": 80, "note_on_time": 5.989, "note_off_time": 6.238}, {"pitch": 42, "velocity": 80, "note_on_time": 5.99, "note_off_time": 6.238}, {"pitch": 42, "velocity": 80, "note_on_time": 6.238, "note_off_time": 6.488}, {"pitch": 65, "velocity": 80, "note_on_time": 6.238, "note_off_time": 6.737}, {"pitch": 42, "velocity": 80, "note_on_time": 6.488, "note_off_time": 6.737}, {"pitch": 42, "velocity": 80, "note_on_time": 6.738, "note_off_time": 6.987}, {"pitch": 67, "velocity": 80, "note_on_time": 6.986, "note_off_time": 7.234}, {"pitch": 42, "velocity": 80, "note_on_time": 6.987, "note_off_time": 7.234}, {"pitch": 42, "velocity": 80, "note_on_time": 7.235, "note_off_time": 7.483}, {"pitch": 42, "velocity": 80, "note_on_time": 7.484, "note_off_time": 7.73}, {"pitch": 42, "velocity": 80, "note_on_time": 7.73, "note_off_time": 7.98}, {"pitch": 42, "velocity": 80, "note_on_time": 7.98, "note_off_time": 8.23}, {"pitch": 67, "velocity": 80, "note_on_time": 8.229, "note_off_time": 8.477}, {"pitch": 42, "velocity": 80, "note_on_time": 8.23, "note_off_time": 8.477}, {"pitch": 67, "velocity": 80, "note_on_time": 8.477, "note_off_time": 8.725}, {"pitch": 42, "velocity": 80, "note_on_time": 8.477, "note_off_time": 8.725}, {"pitch": 67, "velocity": 80, "note_on_time": 8.725, "note_off_time": 8.972}, {"pitch": 42, "velocity": 80, "note_on_time": 8.725, "note_off_time": 8.972}]</notes><options name="Option List">((4, 4), [0.5, 0.25], 3, 8, &lt;NoteRangePerHand.C_TO_G: 6&gt;, &lt;NoteRangePerHand.ONE_NOTE: 2&gt;, False, True, False, 248)</options></target_notes><trials><trial trial_no="1" timestamp="2022_12_22-12_22_03"><notes name="Played Notes">[{"pitch": 62, "velocity": 64, "note_on_time": 0.974, "note_off_time": 1.238}, {"pitch": 60, "velocity": 71, "note_on_time": 1.246, "note_off_time": 1.496}, {"pitch": 64, "velocity": 58, "note_on_time": 1.512, "note_off_time": 1.735}, {"pitch": 60, "velocity": 67, "note_on_time": 1.739, "note_off_time": 1.987}, {"pitch": 67, "velocity": 61, "note_on_time": 2.016, "note_off_time": 2.256}, {"pitch": 65, "velocity": 75, "note_on_time": 2.253, "note_off_time": 2.398}, {"pitch": 67, "velocity": 62, "note_on_time": 2.506, "note_off_time": 2.754}, {"pitch": 64, "velocity": 64, "note_on_time": 2.749, "note_off_time": 2.979}, {"pitch": 64, "velocity": 74, "note_on_time": 3.277, "note_off_time": 3.767}, {"pitch": 60, "velocity": 70, "note_on_time": 4.244, "note_off_time": 4.485}, {"pitch": 64, "velocity": 59, "note_on_time": 4.495, "note_off_time": 4.712}, {"pitch": 65, "velocity": 73, "note_on_time": 4.733, "note_off_time": 4.846}, {"pitch": 65, "velocity": 69, "note_on_time": 4.992, "note_off_time": 5.22}, {"pitch": 62, "velocity": 69, "note_on_time": 5.236, "note_off_time": 5.47}, {"pitch": 60, "velocity": 70, "note_on_time": 5.48, "note_off_time": 5.719}, {"pitch": 65, "velocity": 75, "note_on_time": 5.747, "note_off_time": 5.97}, {"pitch": 64, "velocity": 72, "note_on_time": 5.971, "note_off_time": 6.155}, {"pitch": 64, "velocity": 74, "note_on_time": 6.531, "note_off_time": 6.736}, {"pitch": 65, "velocity": 73, "note_on_time": 6.735, "note_off_time": 7.061}, {"pitch": 67, "velocity": 67, "note_on_time": 7.504, "note_off_time": 7.759}, {"pitch": 67, "velocity": 59, "note_on_time": 8.255, "note_off_time": 8.336}, {"pitch": 67, "velocity": 66, "note_on_time": 8.481, "note_off_time": 8.581}, {"pitch": 67, "velocity": 79, "note_on_time": 8.734, "note_off_time": 8.851}]</notes><guidance name="Guidance Mode">None</guidance><error name="Error value">0.06850325000000004</error></trial></trials></MIDI>