<MIDI midiNo="2022_10_27-14_18_33"><target_notes><notes name="Note List">[{"pitch": 42, "velocity": 80, "note_on_time": 0.004, "note_off_time": 0.29}, {"pitch": 42, "velocity": 80, "note_on_time": 0.29, "note_off_time": 0.585}, {"pitch": 42, "velocity": 80, "note_on_time": 0.585, "note_off_time": 0.88}, {"pitch": 42, "velocity": 80, "note_on_time": 0.88, "note_off_time": 1.175}, {"pitch": 42, "velocity": 80, "note_on_time": 1.175, "note_off_time": 1.455}, {"pitch": 62, "velocity": 80, "note_on_time": 1.175, "note_off_time": 1.751}, {"pitch": 42, "velocity": 80, "note_on_time": 1.456, "note_off_time": 1.751}, {"pitch": 42, "velocity": 80, "note_on_time": 1.751, "note_off_time": 2.047}, {"pitch": 42, "velocity": 80, "note_on_time": 2.047, "note_off_time": 2.328}, {"pitch": 67, "velocity": 80, "note_on_time": 2.327, "note_off_time": 2.611}, {"pitch": 42, "velocity": 80, "note_on_time": 2.328, "note_off_time": 2.611}, {"pitch": 64, "velocity": 80, "note_on_time": 2.611, "note_off_time": 2.903}, {"pitch": 42, "velocity": 80, "note_on_time": 2.611, "note_off_time": 2.903}, {"pitch": 64, "velocity": 80, "note_on_time": 2.903, "note_off_time": 3.199}, {"pitch": 42, "velocity": 80, "note_on_time": 2.904, "note_off_time": 3.199}, {"pitch": 67, "velocity": 80, "note_on_time": 3.199, "note_off_time": 3.492}, {"pitch": 42, "velocity": 80, "note_on_time": 3.199, "note_off_time": 3.493}, {"pitch": 65, "velocity": 80, "note_on_time": 3.492, "note_off_time": 3.786}, {"pitch": 42, "velocity": 80, "note_on_time": 3.493, "note_off_time": 3.786}, {"pitch": 65, "velocity": 80, "note_on_time": 3.786, "note_off_time": 4.067}, {"pitch": 42, "velocity": 80, "note_on_time": 3.786, "note_off_time": 4.067}, {"pitch": 65, "velocity": 80, "note_on_time": 4.067, "note_off_time": 4.363}, {"pitch": 42, "velocity": 80, "note_on_time": 4.067, "note_off_time": 4.363}, {"pitch": 62, "velocity": 80, "note_on_time": 4.363, "note_off_time": 4.646}, {"pitch": 42, "velocity": 80, "note_on_time": 4.363, "note_off_time": 4.646}, {"pitch": 60, "velocity": 80, "note_on_time": 4.646, "note_off_time": 4.942}, {"pitch": 42, "velocity": 80, "note_on_time": 4.646, "note_off_time": 4.942}, {"pitch": 60, "velocity": 80, "note_on_time": 4.942, "note_off_time": 5.224}, {"pitch": 42, "velocity": 80, "note_on_time": 4.942, "note_off_time": 5.224}, {"pitch": 42, "velocity": 80, "note_on_time": 5.225, "note_off_time": 5.519}, {"pitch": 60, "velocity": 80, "note_on_time": 5.224, "note_off_time": 5.815}, {"pitch": 42, "velocity": 80, "note_on_time": 5.519, "note_off_time": 5.815}, {"pitch": 42, "velocity": 80, "note_on_time": 5.815, "note_off_time": 6.11}, {"pitch": 65, "velocity": 80, "note_on_time": 5.815, "note_off_time": 6.404}, {"pitch": 42, "velocity": 80, "note_on_time": 6.111, "note_off_time": 6.404}, {"pitch": 42, "velocity": 80, "note_on_time": 6.405, "note_off_time": 6.7}, {"pitch": 60, "velocity": 80, "note_on_time": 6.7, "note_off_time": 6.981}, {"pitch": 42, "velocity": 80, "note_on_time": 6.701, "note_off_time": 6.981}, {"pitch": 60, "velocity": 80, "note_on_time": 6.981, "note_off_time": 7.276}, {"pitch": 42, "velocity": 80, "note_on_time": 6.981, "note_off_time": 7.276}, {"pitch": 65, "velocity": 80, "note_on_time": 7.276, "note_off_time": 7.571}, {"pitch": 42, "velocity": 80, "note_on_time": 7.276, "note_off_time": 7.571}, {"pitch": 42, "velocity": 80, "note_on_time": 7.571, "note_off_time": 7.852}, {"pitch": 65, "velocity": 80, "note_on_time": 7.571, "note_off_time": 8.134}, {"pitch": 42, "velocity": 80, "note_on_time": 7.853, "note_off_time": 8.134}, {"pitch": 65, "velocity": 80, "note_on_time": 8.134, "note_off_time": 8.429}, {"pitch": 42, "velocity": 80, "note_on_time": 8.134, "note_off_time": 8.43}, {"pitch": 42, "velocity": 80, "note_on_time": 8.43, "note_off_time": 8.724}, {"pitch": 60, "velocity": 80, "note_on_time": 8.429, "note_off_time": 9.007}, {"pitch": 42, "velocity": 80, "note_on_time": 8.725, "note_off_time": 9.007}, {"pitch": 42, "velocity": 80, "note_on_time": 9.008, "note_off_time": 9.301}, {"pitch": 42, "velocity": 80, "note_on_time": 9.302, "note_off_time": 9.584}, {"pitch": 60, "velocity": 80, "note_on_time": 9.584, "note_off_time": 9.88}, {"pitch": 42, "velocity": 80, "note_on_time": 9.584, "note_off_time": 9.88}, {"pitch": 60, "velocity": 80, "note_on_time": 9.88, "note_off_time": 10.175}, {"pitch": 42, "velocity": 80, "note_on_time": 9.88, "note_off_time": 10.175}, {"pitch": 60, "velocity": 80, "note_on_time": 10.175, "note_off_time": 10.47}, {"pitch": 42, "velocity": 80, "note_on_time": 10.175, "note_off_time": 10.47}]</notes><options name="Option List">((4, 4), [0.5, 0.25], 3, 8, &lt;NoteRangePerHand.C_TO_G: 6&gt;, &lt;NoteRangePerHand.ONE_NOTE: 2&gt;, False, True, False, 215)</options></target_notes><trials><trial trial_no="1" timestamp="2022_10_27-14_18_19"><notes name="Played Notes">[{"pitch": 74, "velocity": 78, "note_on_time": 1.215, "note_off_time": 1.712}, {"pitch": 79, "velocity": 78, "note_on_time": 2.111, "note_off_time": 2.287}, {"pitch": 76, "velocity": 43, "note_on_time": 2.439, "note_off_time": 2.563}, {"pitch": 76, "velocity": 55, "note_on_time": 2.678, "note_off_time": 2.834}, {"pitch": 79, "velocity": 80, "note_on_time": 2.985, "note_off_time": 3.166}, {"pitch": 77, "velocity": 71, "note_on_time": 3.268, "note_off_time": 3.404}, {"pitch": 77, "velocity": 79, "note_on_time": 3.564, "note_off_time": 3.679}, {"pitch": 77, "velocity": 74, "note_on_time": 3.84, "note_off_time": 3.984}, {"pitch": 74, "velocity": 79, "note_on_time": 4.126, "note_off_time": 4.284}, {"pitch": 72, "velocity": 74, "note_on_time": 4.419, "note_off_time": 4.532}, {"pitch": 72, "velocity": 78, "note_on_time": 4.72, "note_off_time": 4.79}, {"pitch": 72, "velocity": 88, "note_on_time": 5.015, "note_off_time": 5.39}, {"pitch": 77, "velocity": 79, "note_on_time": 5.587, "note_off_time": 6.08}, {"pitch": 72, "velocity": 39, "note_on_time": 6.225, "note_off_time": 6.371}, {"pitch": 72, "velocity": 67, "note_on_time": 6.509, "note_off_time": 6.637}, {"pitch": 77, "velocity": 69, "note_on_time": 6.799, "note_off_time": 6.933}, {"pitch": 77, "velocity": 82, "note_on_time": 7.098, "note_off_time": 7.515}, {"pitch": 77, "velocity": 78, "note_on_time": 7.692, "note_off_time": 7.862}, {"pitch": 72, "velocity": 73, "note_on_time": 7.976, "note_off_time": 8.323}, {"pitch": 72, "velocity": 70, "note_on_time": 9.127, "note_off_time": 9.246}, {"pitch": 72, "velocity": 70, "note_on_time": 9.438, "note_off_time": 9.541}, {"pitch": 72, "velocity": 73, "note_on_time": 9.719, "note_off_time": 9.802}]</notes><guidance name="Guidance Mode">None</guidance><error name="Error value">1.1988475263157896</error></trial><trial trial_no="2" timestamp="2022_10_27-14_18_46"><notes name="Played Notes">[{"pitch": 74, "velocity": 78, "note_on_time": 1.2, "note_off_time": 1.79}, {"pitch": 79, "velocity": 77, "note_on_time": 2.069, "note_off_time": 2.262}, {"pitch": 76, "velocity": 76, "note_on_time": 2.381, "note_off_time": 2.519}, {"pitch": 76, "velocity": 78, "note_on_time": 2.679, "note_off_time": 2.807}, {"pitch": 79, "velocity": 79, "note_on_time": 2.966, "note_off_time": 3.098}, {"pitch": 77, "velocity": 75, "note_on_time": 3.263, "note_off_time": 3.356}, {"pitch": 77, "velocity": 72, "note_on_time": 3.545, "note_off_time": 3.676}, {"pitch": 74, "velocity": 74, "note_on_time": 3.837, "note_off_time": 3.952}, {"pitch": 74, "velocity": 55, "note_on_time": 4.151, "note_off_time": 4.218}, {"pitch": 72, "velocity": 60, "note_on_time": 4.314, "note_off_time": 4.442}, {"pitch": 72, "velocity": 76, "note_on_time": 4.608, "note_off_time": 4.727}, {"pitch": 72, "velocity": 65, "note_on_time": 4.921, "note_off_time": 5.389}, {"pitch": 77, "velocity": 75, "note_on_time": 5.613, "note_off_time": 6.164}, {"pitch": 72, "velocity": 68, "note_on_time": 6.433, "note_off_time": 6.575}, {"pitch": 72, "velocity": 68, "note_on_time": 6.777, "note_off_time": 6.889}, {"pitch": 77, "velocity": 79, "note_on_time": 7.062, "note_off_time": 7.183}, {"pitch": 77, "velocity": 83, "note_on_time": 7.346, "note_off_time": 7.784}, {"pitch": 77, "velocity": 82, "note_on_time": 7.983, "note_off_time": 8.161}, {"pitch": 72, "velocity": 76, "note_on_time": 8.289, "note_off_time": 8.644}, {"pitch": 72, "velocity": 68, "note_on_time": 9.582, "note_off_time": 9.721}, {"pitch": 72, "velocity": 69, "note_on_time": 9.944, "note_off_time": 10.041}, {"pitch": 72, "velocity": 81, "note_on_time": 10.25, "note_off_time": 10.362}]</notes><guidance name="Guidance Mode">None</guidance><error name="Error value">1.2189455263157898</error></trial><trial trial_no="3" timestamp="2022_10_27-14_19_07"><notes name="Played Notes">[{"pitch": 74, "velocity": 78, "note_on_time": 1.195, "note_off_time": 1.659}, {"pitch": 79, "velocity": 77, "note_on_time": 2.12, "note_off_time": 2.278}, {"pitch": 76, "velocity": 72, "note_on_time": 2.4, "note_off_time": 2.52}, {"pitch": 76, "velocity": 71, "note_on_time": 2.699, "note_off_time": 2.836}, {"pitch": 79, "velocity": 81, "note_on_time": 3.008, "note_off_time": 3.147}, {"pitch": 77, "velocity": 76, "note_on_time": 3.294, "note_off_time": 3.415}, {"pitch": 77, "velocity": 71, "note_on_time": 3.597, "note_off_time": 3.72}, {"pitch": 74, "velocity": 73, "note_on_time": 3.877, "note_off_time": 3.993}, {"pitch": 72, "velocity": 70, "note_on_time": 4.159, "note_off_time": 4.269}, {"pitch": 72, "velocity": 75, "note_on_time": 4.471, "note_off_time": 4.567}, {"pitch": 72, "velocity": 78, "note_on_time": 4.784, "note_off_time": 5.226}, {"pitch": 77, "velocity": 79, "note_on_time": 5.647, "note_off_time": 6.079}, {"pitch": 72, "velocity": 68, "note_on_time": 6.53, "note_off_time": 6.653}, {"pitch": 72, "velocity": 68, "note_on_time": 6.827, "note_off_time": 6.926}, {"pitch": 77, "velocity": 79, "note_on_time": 7.122, "note_off_time": 7.245}, {"pitch": 77, "velocity": 77, "note_on_time": 7.416, "note_off_time": 7.835}, {"pitch": 77, "velocity": 76, "note_on_time": 8.035, "note_off_time": 8.218}, {"pitch": 72, "velocity": 75, "note_on_time": 8.361, "note_off_time": 8.742}, {"pitch": 72, "velocity": 65, "note_on_time": 9.646, "note_off_time": 9.762}, {"pitch": 72, "velocity": 65, "note_on_time": 9.948, "note_off_time": 10.058}, {"pitch": 72, "velocity": 78, "note_on_time": 10.273, "note_off_time": 10.391}]</notes><guidance name="Guidance Mode">None</guidance><error name="Error value">1.2285135789473687</error></trial><trial trial_no="4" timestamp="2022_10_27-17_03_57"><notes name="Played Notes">[{"pitch": 62, "velocity": 77, "note_on_time": 1.663, "note_off_time": 1.978}, {"pitch": 67, "velocity": 67, "note_on_time": 3.854, "note_off_time": 3.999}, {"pitch": 64, "velocity": 51, "note_on_time": 4.16, "note_off_time": 4.238}, {"pitch": 64, "velocity": 49, "note_on_time": 4.396, "note_off_time": 4.475}, {"pitch": 67, "velocity": 51, "note_on_time": 4.61, "note_off_time": 4.721}, {"pitch": 65, "velocity": 45, "note_on_time": 4.853, "note_off_time": 4.936}, {"pitch": 65, "velocity": 47, "note_on_time": 5.059, "note_off_time": 5.185}, {"pitch": 62, "velocity": 30, "note_on_time": 5.272, "note_off_time": 5.384}, {"pitch": 62, "velocity": 21, "note_on_time": 5.945, "note_off_time": 6.012}, {"pitch": 62, "velocity": 29, "note_on_time": 6.4, "note_off_time": 6.54}, {"pitch": 64, "velocity": 53, "note_on_time": 6.531, "note_off_time": 6.63}, {"pitch": 62, "velocity": 39, "note_on_time": 6.651, "note_off_time": 6.783}, {"pitch": 64, "velocity": 52, "note_on_time": 6.75, "note_off_time": 6.876}, {"pitch": 62, "velocity": 23, "note_on_time": 7.522, "note_off_time": 7.63}, {"pitch": 60, "velocity": 31, "note_on_time": 7.839, "note_off_time": 7.93}, {"pitch": 60, "velocity": 51, "note_on_time": 8.075, "note_off_time": 8.16}, {"pitch": 60, "velocity": 57, "note_on_time": 8.294, "note_off_time": 8.425}, {"pitch": 60, "velocity": 46, "note_on_time": 9.216, "note_off_time": 9.411}, {"pitch": 60, "velocity": 20, "note_on_time": 9.607, "note_off_time": 9.75}, {"pitch": 60, "velocity": 49, "note_on_time": 9.916, "note_off_time": 10.146}]</notes><guidance name="Guidance Mode">None</guidance><error name="Error value">0.6872468421052631</error></trial><trial trial_no="5" timestamp="2022_10_27-17_04_17"><notes name="Played Notes">[{"pitch": 62, "velocity": 63, "note_on_time": 1.189, "note_off_time": 1.513}, {"pitch": 67, "velocity": 67, "note_on_time": 2.32, "note_off_time": 2.588}, {"pitch": 64, "velocity": 44, "note_on_time": 2.582, "note_off_time": 2.736}, {"pitch": 64, "velocity": 60, "note_on_time": 2.894, "note_off_time": 3.137}, {"pitch": 67, "velocity": 46, "note_on_time": 3.187, "note_off_time": 3.435}, {"pitch": 65, "velocity": 47, "note_on_time": 3.476, "note_off_time": 3.627}, {"pitch": 65, "velocity": 41, "note_on_time": 3.778, "note_off_time": 3.912}, {"pitch": 65, "velocity": 49, "note_on_time": 4.075, "note_off_time": 4.312}, {"pitch": 62, "velocity": 33, "note_on_time": 4.371, "note_off_time": 4.622}, {"pitch": 60, "velocity": 57, "note_on_time": 4.646, "note_off_time": 4.776}, {"pitch": 60, "velocity": 45, "note_on_time": 4.961, "note_off_time": 5.113}, {"pitch": 60, "velocity": 61, "note_on_time": 5.275, "note_off_time": 5.69}, {"pitch": 65, "velocity": 42, "note_on_time": 5.82, "note_off_time": 6.303}, {"pitch": 60, "velocity": 53, "note_on_time": 6.417, "note_off_time": 6.618}, {"pitch": 60, "velocity": 62, "note_on_time": 6.716, "note_off_time": 6.986}, {"pitch": 65, "velocity": 44, "note_on_time": 7.006, "note_off_time": 7.156}, {"pitch": 65, "velocity": 45, "note_on_time": 7.301, "note_off_time": 7.65}, {"pitch": 65, "velocity": 40, "note_on_time": 7.767, "note_off_time": 8.05}, {"pitch": 60, "velocity": 34, "note_on_time": 8.133, "note_off_time": 8.636}, {"pitch": 60, "velocity": 70, "note_on_time": 9.342, "note_off_time": 9.481}, {"pitch": 60, "velocity": 61, "note_on_time": 9.62, "note_off_time": 9.744}, {"pitch": 60, "velocity": 66, "note_on_time": 9.913, "note_off_time": 10.066}]</notes><guidance name="Guidance Mode">None</guidance><error name="Error value">0.04253900000000031</error></trial><trial trial_no="6" timestamp="2022_10_27-17_04_41"><notes name="Played Notes">[{"pitch": 62, "velocity": 58, "note_on_time": 1.852, "note_off_time": 2.209}, {"pitch": 67, "velocity": 74, "note_on_time": 2.359, "note_off_time": 2.619}, {"pitch": 64, "velocity": 57, "note_on_time": 2.618, "note_off_time": 2.739}, {"pitch": 64, "velocity": 59, "note_on_time": 2.932, "note_off_time": 3.18}, {"pitch": 67, "velocity": 49, "note_on_time": 3.208, "note_off_time": 3.413}, {"pitch": 65, "velocity": 38, "note_on_time": 3.489, "note_off_time": 3.623}, {"pitch": 65, "velocity": 38, "note_on_time": 3.775, "note_off_time": 3.893}, {"pitch": 65, "velocity": 40, "note_on_time": 4.049, "note_off_time": 4.268}, {"pitch": 62, "velocity": 37, "note_on_time": 4.34, "note_off_time": 4.6}, {"pitch": 60, "velocity": 43, "note_on_time": 4.617, "note_off_time": 4.714}, {"pitch": 60, "velocity": 38, "note_on_time": 4.913, "note_off_time": 5.046}, {"pitch": 60, "velocity": 50, "note_on_time": 5.232, "note_off_time": 5.594}, {"pitch": 65, "velocity": 40, "note_on_time": 5.806, "note_off_time": 6.382}, {"pitch": 60, "velocity": 38, "note_on_time": 6.609, "note_off_time": 6.706}, {"pitch": 60, "velocity": 39, "note_on_time": 6.915, "note_off_time": 7.252}, {"pitch": 65, "velocity": 40, "note_on_time": 7.249, "note_off_time": 7.912}, {"pitch": 65, "velocity": 45, "note_on_time": 8.182, "note_off_time": 8.446}, {"pitch": 60, "velocity": 34, "note_on_time": 8.467, "note_off_time": 8.791}, {"pitch": 60, "velocity": 47, "note_on_time": 9.598, "note_off_time": 9.71}, {"pitch": 60, "velocity": 58, "note_on_time": 9.917, "note_off_time": 10.006}, {"pitch": 60, "velocity": 51, "note_on_time": 10.214, "note_off_time": 10.356}]</notes><guidance name="Guidance Mode">None</guidance><error name="Error value">0.13266968421052633</error></trial><trial trial_no="7" timestamp="2022_10_27-17_05_06"><notes name="Played Notes">[{"pitch": 62, "velocity": 38, "note_on_time": 1.199, "note_off_time": 1.908}, {"pitch": 67, "velocity": 64, "note_on_time": 2.273, "note_off_time": 2.603}, {"pitch": 64, "velocity": 49, "note_on_time": 2.6, "note_off_time": 2.754}, {"pitch": 64, "velocity": 34, "note_on_time": 2.927, "note_off_time": 3.181}, {"pitch": 67, "velocity": 25, "note_on_time": 3.231, "note_off_time": 3.449}, {"pitch": 65, "velocity": 35, "note_on_time": 3.512, "note_off_time": 3.655}, {"pitch": 65, "velocity": 31, "note_on_time": 3.797, "note_off_time": 3.929}, {"pitch": 65, "velocity": 33, "note_on_time": 4.095, "note_off_time": 4.327}, {"pitch": 62, "velocity": 22, "note_on_time": 4.389, "note_off_time": 4.622}, {"pitch": 60, "velocity": 35, "note_on_time": 4.977, "note_off_time": 5.089}, {"pitch": 60, "velocity": 53, "note_on_time": 5.274, "note_off_time": 5.634}, {"pitch": 65, "velocity": 40, "note_on_time": 5.834, "note_off_time": 6.39}, {"pitch": 60, "velocity": 29, "note_on_time": 6.715, "note_off_time": 6.82}, {"pitch": 60, "velocity": 35, "note_on_time": 7.025, "note_off_time": 7.556}, {"pitch": 65, "velocity": 31, "note_on_time": 7.863, "note_off_time": 8.302}, {"pitch": 65, "velocity": 32, "note_on_time": 8.455, "note_off_time": 8.648}, {"pitch": 60, "velocity": 35, "note_on_time": 8.768, "note_off_time": 9.299}, {"pitch": 60, "velocity": 20, "note_on_time": 9.669, "note_off_time": 9.739}, {"pitch": 60, "velocity": 44, "note_on_time": 10.223, "note_off_time": 10.344}]</notes><guidance name="Guidance Mode">None</guidance><error name="Error value">0.27807257894736864</error></trial></trials></MIDI>