<MIDI midiNo="2022_10_02-13_45_03"><target_notes><notes name="Note List">[{"pitch": 42, "velocity": 80, "note_on_time": 0.004, "note_off_time": 0.257}, {"pitch": 42, "velocity": 80, "note_on_time": 0.257, "note_off_time": 0.51}, {"pitch": 42, "velocity": 80, "note_on_time": 0.51, "note_off_time": 0.758}, {"pitch": 42, "velocity": 80, "note_on_time": 0.758, "note_off_time": 1.005}, {"pitch": 62, "velocity": 80, "note_on_time": 1.005, "note_off_time": 1.255}, {"pitch": 42, "velocity": 80, "note_on_time": 1.005, "note_off_time": 1.255}, {"pitch": 42, "velocity": 80, "note_on_time": 1.255, "note_off_time": 1.504}, {"pitch": 42, "velocity": 80, "note_on_time": 1.504, "note_off_time": 1.753}, {"pitch": 42, "velocity": 80, "note_on_time": 1.753, "note_off_time": 2.001}, {"pitch": 62, "velocity": 80, "note_on_time": 2.001, "note_off_time": 2.249}, {"pitch": 42, "velocity": 80, "note_on_time": 2.001, "note_off_time": 2.249}, {"pitch": 60, "velocity": 80, "note_on_time": 2.249, "note_off_time": 2.499}, {"pitch": 42, "velocity": 80, "note_on_time": 2.249, "note_off_time": 2.5}, {"pitch": 42, "velocity": 80, "note_on_time": 2.5, "note_off_time": 2.749}, {"pitch": 64, "velocity": 80, "note_on_time": 2.749, "note_off_time": 3.0}, {"pitch": 42, "velocity": 80, "note_on_time": 2.749, "note_off_time": 3.0}, {"pitch": 64, "velocity": 80, "note_on_time": 3.0, "note_off_time": 3.248}, {"pitch": 42, "velocity": 80, "note_on_time": 3.001, "note_off_time": 3.248}, {"pitch": 60, "velocity": 80, "note_on_time": 3.248, "note_off_time": 3.497}, {"pitch": 42, "velocity": 80, "note_on_time": 3.248, "note_off_time": 3.497}, {"pitch": 64, "velocity": 80, "note_on_time": 3.497, "note_off_time": 3.746}, {"pitch": 42, "velocity": 80, "note_on_time": 3.497, "note_off_time": 3.747}, {"pitch": 62, "velocity": 80, "note_on_time": 3.746, "note_off_time": 3.996}, {"pitch": 42, "velocity": 80, "note_on_time": 3.747, "note_off_time": 3.996}, {"pitch": 60, "velocity": 80, "note_on_time": 3.996, "note_off_time": 4.246}, {"pitch": 42, "velocity": 80, "note_on_time": 3.997, "note_off_time": 4.246}, {"pitch": 62, "velocity": 80, "note_on_time": 4.246, "note_off_time": 4.493}, {"pitch": 42, "velocity": 80, "note_on_time": 4.246, "note_off_time": 4.494}, {"pitch": 60, "velocity": 80, "note_on_time": 4.493, "note_off_time": 4.743}, {"pitch": 42, "velocity": 80, "note_on_time": 4.494, "note_off_time": 4.743}, {"pitch": 60, "velocity": 80, "note_on_time": 4.743, "note_off_time": 4.991}, {"pitch": 42, "velocity": 80, "note_on_time": 4.744, "note_off_time": 4.991}, {"pitch": 62, "velocity": 80, "note_on_time": 4.991, "note_off_time": 5.24}, {"pitch": 42, "velocity": 80, "note_on_time": 4.991, "note_off_time": 5.24}, {"pitch": 64, "velocity": 80, "note_on_time": 5.24, "note_off_time": 5.489}, {"pitch": 42, "velocity": 80, "note_on_time": 5.241, "note_off_time": 5.49}, {"pitch": 62, "velocity": 80, "note_on_time": 5.489, "note_off_time": 5.738}, {"pitch": 42, "velocity": 80, "note_on_time": 5.49, "note_off_time": 5.738}, {"pitch": 64, "velocity": 80, "note_on_time": 5.738, "note_off_time": 5.986}, {"pitch": 42, "velocity": 80, "note_on_time": 5.738, "note_off_time": 5.987}, {"pitch": 62, "velocity": 80, "note_on_time": 5.986, "note_off_time": 6.235}, {"pitch": 42, "velocity": 80, "note_on_time": 5.987, "note_off_time": 6.235}, {"pitch": 42, "velocity": 80, "note_on_time": 6.235, "note_off_time": 6.485}, {"pitch": 60, "velocity": 80, "note_on_time": 6.485, "note_off_time": 6.733}, {"pitch": 42, "velocity": 80, "note_on_time": 6.485, "note_off_time": 6.734}, {"pitch": 62, "velocity": 80, "note_on_time": 6.733, "note_off_time": 6.982}, {"pitch": 42, "velocity": 80, "note_on_time": 6.734, "note_off_time": 6.983}, {"pitch": 60, "velocity": 80, "note_on_time": 6.982, "note_off_time": 7.231}, {"pitch": 42, "velocity": 80, "note_on_time": 6.983, "note_off_time": 7.231}, {"pitch": 62, "velocity": 80, "note_on_time": 7.231, "note_off_time": 7.478}, {"pitch": 42, "velocity": 80, "note_on_time": 7.232, "note_off_time": 7.479}, {"pitch": 60, "velocity": 80, "note_on_time": 7.478, "note_off_time": 7.729}, {"pitch": 42, "velocity": 80, "note_on_time": 7.479, "note_off_time": 7.73}, {"pitch": 42, "velocity": 80, "note_on_time": 7.73, "note_off_time": 7.981}, {"pitch": 42, "velocity": 80, "note_on_time": 7.981, "note_off_time": 8.233}, {"pitch": 60, "velocity": 80, "note_on_time": 8.233, "note_off_time": 8.482}, {"pitch": 42, "velocity": 80, "note_on_time": 8.233, "note_off_time": 8.482}, {"pitch": 60, "velocity": 80, "note_on_time": 8.482, "note_off_time": 8.731}, {"pitch": 42, "velocity": 80, "note_on_time": 8.483, "note_off_time": 8.731}, {"pitch": 60, "velocity": 80, "note_on_time": 8.731, "note_off_time": 8.979}, {"pitch": 42, "velocity": 80, "note_on_time": 8.732, "note_off_time": 8.979}]</notes><options name="Option List">((4, 4), [0.25], 3, 8, &lt;NoteRangePerHand.THREE_NOTES: 4&gt;, &lt;NoteRangePerHand.ONE_NOTE: 2&gt;, False, True, True, 248)</options></target_notes><trials><trial trial_no="1" timestamp="2022_10_02-13_44_53"><notes name="Played Notes">[{"pitch": 62, "velocity": 62, "note_on_time": 1.002, "note_off_time": 1.233}, {"pitch": 62, "velocity": 58, "note_on_time": 1.755, "note_off_time": 2.036}, {"pitch": 60, "velocity": 58, "note_on_time": 2.038, "note_off_time": 2.189}, {"pitch": 64, "velocity": 68, "note_on_time": 2.496, "note_off_time": 2.639}, {"pitch": 64, "velocity": 53, "note_on_time": 2.762, "note_off_time": 3.01}, {"pitch": 60, "velocity": 67, "note_on_time": 3.028, "note_off_time": 3.253}, {"pitch": 64, "velocity": 58, "note_on_time": 3.284, "note_off_time": 3.614}, {"pitch": 62, "velocity": 60, "note_on_time": 3.559, "note_off_time": 3.843}, {"pitch": 60, "velocity": 61, "note_on_time": 3.821, "note_off_time": 4.031}, {"pitch": 62, "velocity": 55, "note_on_time": 4.071, "note_off_time": 4.295}, {"pitch": 60, "velocity": 63, "note_on_time": 4.307, "note_off_time": 4.444}, {"pitch": 60, "velocity": 55, "note_on_time": 4.579, "note_off_time": 4.811}, {"pitch": 62, "velocity": 51, "note_on_time": 4.805, "note_off_time": 5.112}, {"pitch": 64, "velocity": 61, "note_on_time": 5.091, "note_off_time": 5.38}, {"pitch": 62, "velocity": 59, "note_on_time": 5.352, "note_off_time": 5.509}, {"pitch": 64, "velocity": 66, "note_on_time": 5.64, "note_off_time": 5.879}, {"pitch": 62, "velocity": 60, "note_on_time": 5.858, "note_off_time": 6.018}, {"pitch": 60, "velocity": 60, "note_on_time": 6.633, "note_off_time": 6.897}, {"pitch": 62, "velocity": 59, "note_on_time": 6.896, "note_off_time": 7.169}, {"pitch": 60, "velocity": 60, "note_on_time": 7.157, "note_off_time": 7.395}, {"pitch": 62, "velocity": 50, "note_on_time": 7.413, "note_off_time": 7.698}, {"pitch": 60, "velocity": 70, "note_on_time": 7.693, "note_off_time": 7.91}, {"pitch": 60, "velocity": 66, "note_on_time": 8.733, "note_off_time": 8.918}]</notes><guidance name="Guidance Mode">None</guidance><error name="Error value">0.24636659090909085</error></trial></trials></MIDI>