<MIDI midiNo="20220202-152725"><target_notes><notes name="Note List">[{"pitch": 64, "velocity": 100, "note_on_time": 1.224, "note_off_time": 1.528}, {"pitch": 69, "velocity": 100, "note_on_time": 1.528, "note_off_time": 1.832}, {"pitch": 64, "velocity": 100, "note_on_time": 1.832, "note_off_time": 2.137}, {"pitch": 64, "velocity": 100, "note_on_time": 2.138, "note_off_time": 2.442}, {"pitch": 64, "velocity": 100, "note_on_time": 2.443, "note_off_time": 2.746}, {"pitch": 67, "velocity": 100, "note_on_time": 2.746, "note_off_time": 3.354}, {"pitch": 60, "velocity": 100, "note_on_time": 3.354, "note_off_time": 3.658}, {"pitch": 62, "velocity": 100, "note_on_time": 3.658, "note_off_time": 4.266}, {"pitch": 62, "velocity": 100, "note_on_time": 4.876, "note_off_time": 5.485}, {"pitch": 60, "velocity": 100, "note_on_time": 6.093, "note_off_time": 6.397}, {"pitch": 67, "velocity": 100, "note_on_time": 6.397, "note_off_time": 6.701}, {"pitch": 69, "velocity": 100, "note_on_time": 6.701, "note_off_time": 7.006}, {"pitch": 64, "velocity": 100, "note_on_time": 7.006, "note_off_time": 7.311}, {"pitch": 60, "velocity": 100, "note_on_time": 7.311, "note_off_time": 7.615}, {"pitch": 62, "velocity": 100, "note_on_time": 7.616, "note_off_time": 7.921}, {"pitch": 69, "velocity": 100, "note_on_time": 7.921, "note_off_time": 8.226}, {"pitch": 71, "velocity": 100, "note_on_time": 8.227, "note_off_time": 8.532}, {"pitch": 71, "velocity": 100, "note_on_time": 8.837, "note_off_time": 9.141}, {"pitch": 71, "velocity": 100, "note_on_time": 9.141, "note_off_time": 9.444}, {"pitch": 71, "velocity": 100, "note_on_time": 9.445, "note_off_time": 9.749}]</notes><options name="Option List">((4, 4), [0.5, 0.25], 3, 7, &lt;NoteRangePerHand.C_DUR: 7&gt;, &lt;NoteRangePerHand.ONE_NOTE: 2&gt;, False, True, True, 200)</options></target_notes><trials><trial trial_no="1" timestamp="20220202-152712"><notes name="Played Notes">[{"pitch": 64, "velocity": 100, "note_on_time": 1.211, "note_off_time": 1.523}, {"pitch": 69, "velocity": 100, "note_on_time": 1.502, "note_off_time": 1.817}, {"pitch": 64, "velocity": 100, "note_on_time": 1.8, "note_off_time": 1.911}, {"pitch": 64, "velocity": 100, "note_on_time": 2.12, "note_off_time": 2.235}, {"pitch": 64, "velocity": 100, "note_on_time": 2.42, "note_off_time": 2.701}, {"pitch": 67, "velocity": 100, "note_on_time": 2.698, "note_off_time": 3.307}, {"pitch": 60, "velocity": 100, "note_on_time": 3.301, "note_off_time": 3.582}, {"pitch": 62, "velocity": 100, "note_on_time": 3.612, "note_off_time": 4.116}, {"pitch": 62, "velocity": 100, "note_on_time": 4.892, "note_off_time": 5.334}, {"pitch": 60, "velocity": 100, "note_on_time": 6.127, "note_off_time": 6.663}, {"pitch": 67, "velocity": 100, "note_on_time": 6.4, "note_off_time": 6.762}, {"pitch": 69, "velocity": 100, "note_on_time": 6.725, "note_off_time": 7.02}, {"pitch": 64, "velocity": 100, "note_on_time": 7.003, "note_off_time": 7.342}, {"pitch": 60, "velocity": 100, "note_on_time": 7.33, "note_off_time": 7.648}, {"pitch": 62, "velocity": 100, "note_on_time": 7.609, "note_off_time": 7.933}, {"pitch": 69, "velocity": 100, "note_on_time": 7.899, "note_off_time": 8.23}, {"pitch": 71, "velocity": 100, "note_on_time": 8.193, "note_off_time": 8.422}, {"pitch": 71, "velocity": 100, "note_on_time": 8.849, "note_off_time": 8.976}, {"pitch": 71, "velocity": 100, "note_on_time": 9.146, "note_off_time": 9.252}, {"pitch": 71, "velocity": 100, "note_on_time": 9.412, "note_off_time": 9.678}]</notes><guidance name="Guidance Mode">None</guidance><error name="Error value">17.81879411764706</error></trial><trial trial_no="2" timestamp="20220202-152730"><notes name="Played Notes">[{"pitch": 64, "velocity": 100, "note_on_time": 1.231, "note_off_time": 1.567}, {"pitch": 69, "velocity": 100, "note_on_time": 1.531, "note_off_time": 1.869}, {"pitch": 64, "velocity": 100, "note_on_time": 1.829, "note_off_time": 1.955}, {"pitch": 64, "velocity": 100, "note_on_time": 2.154, "note_off_time": 2.332}, {"pitch": 64, "velocity": 100, "note_on_time": 2.456, "note_off_time": 2.745}, {"pitch": 67, "velocity": 100, "note_on_time": 2.728, "note_off_time": 3.34}, {"pitch": 60, "velocity": 100, "note_on_time": 3.304, "note_off_time": 3.631}, {"pitch": 62, "velocity": 100, "note_on_time": 3.627, "note_off_time": 4.086}, {"pitch": 62, "velocity": 100, "note_on_time": 4.856, "note_off_time": 5.393}, {"pitch": 60, "velocity": 100, "note_on_time": 6.085, "note_off_time": 6.412}, {"pitch": 60, "velocity": 100, "note_on_time": 6.457, "note_off_time": 6.584}, {"pitch": 67, "velocity": 100, "note_on_time": 6.368, "note_off_time": 6.709}, {"pitch": 69, "velocity": 100, "note_on_time": 6.681, "note_off_time": 7.068}, {"pitch": 64, "velocity": 100, "note_on_time": 6.978, "note_off_time": 7.316}, {"pitch": 60, "velocity": 100, "note_on_time": 7.3, "note_off_time": 7.622}, {"pitch": 62, "velocity": 100, "note_on_time": 7.575, "note_off_time": 7.883}, {"pitch": 69, "velocity": 100, "note_on_time": 7.885, "note_off_time": 8.184}, {"pitch": 71, "velocity": 100, "note_on_time": 8.148, "note_off_time": 8.494}, {"pitch": 71, "velocity": 100, "note_on_time": 8.836, "note_off_time": 8.978}, {"pitch": 71, "velocity": 100, "note_on_time": 9.151, "note_off_time": 9.287}, {"pitch": 71, "velocity": 100, "note_on_time": 9.466, "note_off_time": 9.679}]</notes><guidance name="Guidance Mode">None</guidance><error name="Error value">17.861264705882352</error></trial></trials></MIDI>