<MIDI midiNo="2022_12_22-10_25_32"><target_notes><notes name="Note List">[{"pitch": 42, "velocity": 80, "note_on_time": 0.003, "note_off_time": 0.378}, {"pitch": 42, "velocity": 80, "note_on_time": 0.378, "note_off_time": 0.751}, {"pitch": 42, "velocity": 80, "note_on_time": 0.751, "note_off_time": 1.124}, {"pitch": 42, "velocity": 80, "note_on_time": 1.124, "note_off_time": 1.499}, {"pitch": 42, "velocity": 80, "note_on_time": 1.499, "note_off_time": 1.875}, {"pitch": 60, "velocity": 80, "note_on_time": 1.499, "note_off_time": 2.247}, {"pitch": 42, "velocity": 80, "note_on_time": 1.875, "note_off_time": 2.247}, {"pitch": 42, "velocity": 80, "note_on_time": 2.247, "note_off_time": 2.62}, {"pitch": 64, "velocity": 80, "note_on_time": 2.619, "note_off_time": 2.994}, {"pitch": 42, "velocity": 80, "note_on_time": 2.62, "note_off_time": 2.995}, {"pitch": 64, "velocity": 80, "note_on_time": 2.994, "note_off_time": 3.367}, {"pitch": 42, "velocity": 80, "note_on_time": 2.995, "note_off_time": 3.367}, {"pitch": 62, "velocity": 80, "note_on_time": 3.367, "note_off_time": 3.742}, {"pitch": 42, "velocity": 80, "note_on_time": 3.368, "note_off_time": 3.742}, {"pitch": 60, "velocity": 80, "note_on_time": 3.742, "note_off_time": 4.115}, {"pitch": 42, "velocity": 80, "note_on_time": 3.743, "note_off_time": 4.115}, {"pitch": 64, "velocity": 80, "note_on_time": 4.115, "note_off_time": 4.488}, {"pitch": 42, "velocity": 80, "note_on_time": 4.116, "note_off_time": 4.488}, {"pitch": 42, "velocity": 80, "note_on_time": 4.489, "note_off_time": 4.861}, {"pitch": 62, "velocity": 80, "note_on_time": 4.488, "note_off_time": 5.232}, {"pitch": 42, "velocity": 80, "note_on_time": 4.861, "note_off_time": 5.232}, {"pitch": 42, "velocity": 80, "note_on_time": 5.233, "note_off_time": 5.609}, {"pitch": 60, "velocity": 80, "note_on_time": 5.609, "note_off_time": 5.981}, {"pitch": 42, "velocity": 80, "note_on_time": 5.609, "note_off_time": 5.981}, {"pitch": 42, "velocity": 80, "note_on_time": 5.981, "note_off_time": 6.353}, {"pitch": 62, "velocity": 80, "note_on_time": 5.981, "note_off_time": 6.725}, {"pitch": 42, "velocity": 80, "note_on_time": 6.353, "note_off_time": 6.726}, {"pitch": 62, "velocity": 80, "note_on_time": 6.725, "note_off_time": 7.1}, {"pitch": 42, "velocity": 80, "note_on_time": 6.726, "note_off_time": 7.1}, {"pitch": 62, "velocity": 80, "note_on_time": 7.1, "note_off_time": 7.472}, {"pitch": 42, "velocity": 80, "note_on_time": 7.1, "note_off_time": 7.473}, {"pitch": 42, "velocity": 80, "note_on_time": 7.473, "note_off_time": 7.846}, {"pitch": 64, "velocity": 80, "note_on_time": 7.472, "note_off_time": 8.219}, {"pitch": 42, "velocity": 80, "note_on_time": 7.846, "note_off_time": 8.22}, {"pitch": 42, "velocity": 80, "note_on_time": 8.22, "note_off_time": 8.59}, {"pitch": 60, "velocity": 80, "note_on_time": 8.219, "note_off_time": 8.961}, {"pitch": 42, "velocity": 80, "note_on_time": 8.591, "note_off_time": 8.962}, {"pitch": 60, "velocity": 80, "note_on_time": 8.961, "note_off_time": 9.334}, {"pitch": 42, "velocity": 80, "note_on_time": 8.962, "note_off_time": 9.335}, {"pitch": 42, "velocity": 80, "note_on_time": 9.335, "note_off_time": 9.706}, {"pitch": 64, "velocity": 80, "note_on_time": 9.334, "note_off_time": 10.08}, {"pitch": 42, "velocity": 80, "note_on_time": 9.706, "note_off_time": 10.08}, {"pitch": 42, "velocity": 80, "note_on_time": 10.08, "note_off_time": 10.452}, {"pitch": 42, "velocity": 80, "note_on_time": 10.452, "note_off_time": 10.827}, {"pitch": 62, "velocity": 80, "note_on_time": 10.452, "note_off_time": 11.2}, {"pitch": 42, "velocity": 80, "note_on_time": 10.827, "note_off_time": 11.2}, {"pitch": 64, "velocity": 80, "note_on_time": 11.2, "note_off_time": 11.572}, {"pitch": 42, "velocity": 80, "note_on_time": 11.2, "note_off_time": 11.573}, {"pitch": 64, "velocity": 80, "note_on_time": 11.572, "note_off_time": 11.946}, {"pitch": 42, "velocity": 80, "note_on_time": 11.573, "note_off_time": 11.947}, {"pitch": 42, "velocity": 80, "note_on_time": 11.947, "note_off_time": 12.319}, {"pitch": 64, "velocity": 80, "note_on_time": 12.319, "note_off_time": 12.692}, {"pitch": 42, "velocity": 80, "note_on_time": 12.32, "note_off_time": 12.692}, {"pitch": 64, "velocity": 80, "note_on_time": 12.692, "note_off_time": 13.064}, {"pitch": 42, "velocity": 80, "note_on_time": 12.692, "note_off_time": 13.065}, {"pitch": 64, "velocity": 80, "note_on_time": 13.064, "note_off_time": 13.436}, {"pitch": 42, "velocity": 80, "note_on_time": 13.065, "note_off_time": 13.437}]</notes><options name="Option List">((4, 4), [0.5, 0.25], 3, 8, &lt;NoteRangePerHand.THREE_NOTES: 4&gt;, &lt;NoteRangePerHand.ONE_NOTE: 2&gt;, False, True, False, '166')</options></target_notes><trials><trial trial_no="1" timestamp="2022_12_22-10_25_17"><notes name="Played Notes">[{"pitch": 60, "velocity": 54, "note_on_time": 2.993, "note_off_time": 3.903}, {"pitch": 64, "velocity": 84, "note_on_time": 4.043, "note_off_time": 4.251}, {"pitch": 64, "velocity": 61, "note_on_time": 4.4, "note_off_time": 4.818}, {"pitch": 62, "velocity": 70, "note_on_time": 4.761, "note_off_time": 5.107}, {"pitch": 60, "velocity": 64, "note_on_time": 5.15, "note_off_time": 5.453}, {"pitch": 64, "velocity": 75, "note_on_time": 5.521, "note_off_time": 6.066}, {"pitch": 62, "velocity": 73, "note_on_time": 6.183, "note_off_time": 7.065}, {"pitch": 60, "velocity": 74, "note_on_time": 7.273, "note_off_time": 7.964}, {"pitch": 62, "velocity": 77, "note_on_time": 8.13, "note_off_time": 9.002}, {"pitch": 62, "velocity": 70, "note_on_time": 9.294, "note_off_time": 9.464}, {"pitch": 62, "velocity": 77, "note_on_time": 9.65, "note_off_time": 9.856}, {"pitch": 64, "velocity": 78, "note_on_time": 10.017, "note_off_time": 10.741}, {"pitch": 62, "velocity": 55, "note_on_time": 10.804, "note_off_time": 11.202}, {"pitch": 60, "velocity": 72, "note_on_time": 11.226, "note_off_time": 12.075}, {"pitch": 60, "velocity": 54, "note_on_time": 12.45, "note_off_time": 12.927}]</notes><guidance name="Guidance Mode">None</guidance><error name="Error value">0.7709941666666664</error></trial><trial trial_no="2" timestamp="2022_12_22-10_25_45"><notes name="Played Notes">[{"pitch": 60, "velocity": 64, "note_on_time": 1.442, "note_off_time": 2.269}, {"pitch": 64, "velocity": 68, "note_on_time": 2.639, "note_off_time": 2.841}, {"pitch": 64, "velocity": 49, "note_on_time": 3.007, "note_off_time": 3.339}, {"pitch": 62, "velocity": 62, "note_on_time": 3.368, "note_off_time": 3.654}, {"pitch": 60, "velocity": 69, "note_on_time": 3.711, "note_off_time": 3.986}, {"pitch": 64, "velocity": 76, "note_on_time": 4.081, "note_off_time": 4.665}, {"pitch": 62, "velocity": 77, "note_on_time": 4.756, "note_off_time": 5.686}, {"pitch": 60, "velocity": 64, "note_on_time": 6.348, "note_off_time": 6.988}, {"pitch": 62, "velocity": 59, "note_on_time": 7.375, "note_off_time": 8.071}, {"pitch": 62, "velocity": 67, "note_on_time": 8.392, "note_off_time": 8.57}, {"pitch": 62, "velocity": 60, "note_on_time": 8.739, "note_off_time": 8.948}, {"pitch": 64, "velocity": 71, "note_on_time": 9.088, "note_off_time": 9.776}, {"pitch": 62, "velocity": 74, "note_on_time": 9.794, "note_off_time": 10.518}, {"pitch": 60, "velocity": 46, "note_on_time": 10.822, "note_off_time": 11.53}, {"pitch": 60, "velocity": 70, "note_on_time": 11.92, "note_off_time": 12.222}, {"pitch": 62, "velocity": 69, "note_on_time": 12.257, "note_off_time": 12.652}]</notes><guidance name="Guidance Mode">None</guidance><error name="Error value">0.816716111111111</error></trial><trial trial_no="3" timestamp="2022_12_22-10_26_12"><notes name="Played Notes">[{"pitch": 60, "velocity": 70, "note_on_time": 1.473, "note_off_time": 2.503}, {"pitch": 64, "velocity": 62, "note_on_time": 2.985, "note_off_time": 3.095}, {"pitch": 64, "velocity": 62, "note_on_time": 3.281, "note_off_time": 3.572}, {"pitch": 62, "velocity": 62, "note_on_time": 3.651, "note_off_time": 4.036}, {"pitch": 60, "velocity": 64, "note_on_time": 4.293, "note_off_time": 4.918}, {"pitch": 64, "velocity": 68, "note_on_time": 5.062, "note_off_time": 5.375}, {"pitch": 62, "velocity": 63, "note_on_time": 5.542, "note_off_time": 6.208}, {"pitch": 60, "velocity": 69, "note_on_time": 6.558, "note_off_time": 7.475}, {"pitch": 62, "velocity": 70, "note_on_time": 7.74, "note_off_time": 8.512}, {"pitch": 64, "velocity": 71, "note_on_time": 8.762, "note_off_time": 8.95}, {"pitch": 64, "velocity": 64, "note_on_time": 9.153, "note_off_time": 9.442}, {"pitch": 64, "velocity": 61, "note_on_time": 10.227, "note_off_time": 10.905}, {"pitch": 60, "velocity": 39, "note_on_time": 11.007, "note_off_time": 12.039}, {"pitch": 62, "velocity": 59, "note_on_time": 12.338, "note_off_time": 12.575}, {"pitch": 64, "velocity": 57, "note_on_time": 12.767, "note_off_time": 13.148}]</notes><guidance name="Guidance Mode">None</guidance><error name="Error value">0.8474074999999999</error></trial></trials></MIDI>