<MIDI midiNo="2022_11_21-17_44_49"><target_notes><notes name="Note List">[{"pitch": 42, "velocity": 80, "note_on_time": 0.004, "note_off_time": 0.374}, {"pitch": 42, "velocity": 80, "note_on_time": 0.374, "note_off_time": 0.751}, {"pitch": 42, "velocity": 80, "note_on_time": 0.751, "note_off_time": 1.125}, {"pitch": 42, "velocity": 80, "note_on_time": 1.125, "note_off_time": 1.499}, {"pitch": 67, "velocity": 80, "note_on_time": 1.499, "note_off_time": 1.873}, {"pitch": 42, "velocity": 80, "note_on_time": 1.499, "note_off_time": 1.873}, {"pitch": 67, "velocity": 80, "note_on_time": 1.873, "note_off_time": 2.244}, {"pitch": 42, "velocity": 80, "note_on_time": 1.873, "note_off_time": 2.245}, {"pitch": 65, "velocity": 80, "note_on_time": 2.244, "note_off_time": 2.618}, {"pitch": 42, "velocity": 80, "note_on_time": 2.245, "note_off_time": 2.618}, {"pitch": 64, "velocity": 80, "note_on_time": 2.618, "note_off_time": 2.989}, {"pitch": 42, "velocity": 80, "note_on_time": 2.618, "note_off_time": 2.989}, {"pitch": 64, "velocity": 80, "note_on_time": 2.989, "note_off_time": 3.363}, {"pitch": 42, "velocity": 80, "note_on_time": 2.989, "note_off_time": 3.364}, {"pitch": 65, "velocity": 80, "note_on_time": 3.363, "note_off_time": 3.738}, {"pitch": 42, "velocity": 80, "note_on_time": 3.364, "note_off_time": 3.738}, {"pitch": 65, "velocity": 80, "note_on_time": 3.738, "note_off_time": 4.113}, {"pitch": 42, "velocity": 80, "note_on_time": 3.738, "note_off_time": 4.113}, {"pitch": 65, "velocity": 80, "note_on_time": 4.113, "note_off_time": 4.486}, {"pitch": 42, "velocity": 80, "note_on_time": 4.113, "note_off_time": 4.486}, {"pitch": 65, "velocity": 80, "note_on_time": 4.486, "note_off_time": 4.86}, {"pitch": 42, "velocity": 80, "note_on_time": 4.486, "note_off_time": 4.86}, {"pitch": 64, "velocity": 80, "note_on_time": 4.86, "note_off_time": 5.233}, {"pitch": 42, "velocity": 80, "note_on_time": 4.86, "note_off_time": 5.234}, {"pitch": 65, "velocity": 80, "note_on_time": 5.233, "note_off_time": 5.607}, {"pitch": 42, "velocity": 80, "note_on_time": 5.234, "note_off_time": 5.607}, {"pitch": 62, "velocity": 80, "note_on_time": 5.607, "note_off_time": 5.979}, {"pitch": 42, "velocity": 80, "note_on_time": 5.607, "note_off_time": 5.979}, {"pitch": 67, "velocity": 80, "note_on_time": 5.979, "note_off_time": 6.353}, {"pitch": 42, "velocity": 80, "note_on_time": 5.979, "note_off_time": 6.353}, {"pitch": 67, "velocity": 80, "note_on_time": 6.353, "note_off_time": 6.727}, {"pitch": 42, "velocity": 80, "note_on_time": 6.354, "note_off_time": 6.727}, {"pitch": 62, "velocity": 80, "note_on_time": 6.727, "note_off_time": 7.102}, {"pitch": 42, "velocity": 80, "note_on_time": 6.727, "note_off_time": 7.102}, {"pitch": 62, "velocity": 80, "note_on_time": 7.102, "note_off_time": 7.476}, {"pitch": 42, "velocity": 80, "note_on_time": 7.102, "note_off_time": 7.476}, {"pitch": 60, "velocity": 80, "note_on_time": 7.476, "note_off_time": 7.849}, {"pitch": 42, "velocity": 80, "note_on_time": 7.476, "note_off_time": 7.849}, {"pitch": 64, "velocity": 80, "note_on_time": 7.849, "note_off_time": 8.223}, {"pitch": 42, "velocity": 80, "note_on_time": 7.849, "note_off_time": 8.223}, {"pitch": 67, "velocity": 80, "note_on_time": 8.223, "note_off_time": 8.599}, {"pitch": 42, "velocity": 80, "note_on_time": 8.223, "note_off_time": 8.599}, {"pitch": 65, "velocity": 80, "note_on_time": 8.599, "note_off_time": 8.976}, {"pitch": 42, "velocity": 80, "note_on_time": 8.6, "note_off_time": 8.976}, {"pitch": 62, "velocity": 80, "note_on_time": 8.976, "note_off_time": 9.348}, {"pitch": 42, "velocity": 80, "note_on_time": 8.976, "note_off_time": 9.348}, {"pitch": 60, "velocity": 80, "note_on_time": 9.348, "note_off_time": 9.72}, {"pitch": 42, "velocity": 80, "note_on_time": 9.349, "note_off_time": 9.72}, {"pitch": 67, "velocity": 80, "note_on_time": 9.72, "note_off_time": 10.093}, {"pitch": 42, "velocity": 80, "note_on_time": 9.721, "note_off_time": 10.093}, {"pitch": 64, "velocity": 80, "note_on_time": 10.093, "note_off_time": 10.468}, {"pitch": 42, "velocity": 80, "note_on_time": 10.094, "note_off_time": 10.468}, {"pitch": 62, "velocity": 80, "note_on_time": 10.468, "note_off_time": 10.841}, {"pitch": 42, "velocity": 80, "note_on_time": 10.469, "note_off_time": 10.842}, {"pitch": 62, "velocity": 80, "note_on_time": 10.841, "note_off_time": 11.216}, {"pitch": 42, "velocity": 80, "note_on_time": 10.842, "note_off_time": 11.216}, {"pitch": 65, "velocity": 80, "note_on_time": 11.216, "note_off_time": 11.588}, {"pitch": 42, "velocity": 80, "note_on_time": 11.216, "note_off_time": 11.588}, {"pitch": 60, "velocity": 80, "note_on_time": 11.588, "note_off_time": 11.963}, {"pitch": 42, "velocity": 80, "note_on_time": 11.589, "note_off_time": 11.964}, {"pitch": 42, "velocity": 80, "note_on_time": 11.964, "note_off_time": 12.335}, {"pitch": 60, "velocity": 80, "note_on_time": 12.335, "note_off_time": 12.709}, {"pitch": 42, "velocity": 80, "note_on_time": 12.335, "note_off_time": 12.71}, {"pitch": 60, "velocity": 80, "note_on_time": 12.709, "note_off_time": 13.082}, {"pitch": 42, "velocity": 80, "note_on_time": 12.71, "note_off_time": 13.082}, {"pitch": 60, "velocity": 80, "note_on_time": 13.082, "note_off_time": 13.455}, {"pitch": 42, "velocity": 80, "note_on_time": 13.082, "note_off_time": 13.455}]</notes><options name="Option List">((4, 4), [0.5, 0.25], 3, 8, &lt;NoteRangePerHand.C_TO_G: 6&gt;, &lt;NoteRangePerHand.ONE_NOTE: 2&gt;, False, True, False, '166')</options></target_notes><trials><trial trial_no="1" timestamp="2022_11_21-17_44_33"><notes name="Played Notes">[{"pitch": 67, "velocity": 92, "note_on_time": 1.544, "note_off_time": 1.627}, {"pitch": 67, "velocity": 91, "note_on_time": 1.894, "note_off_time": 2.265}, {"pitch": 65, "velocity": 83, "note_on_time": 2.264, "note_off_time": 2.667}, {"pitch": 64, "velocity": 85, "note_on_time": 2.63, "note_off_time": 2.717}, {"pitch": 64, "velocity": 86, "note_on_time": 3.012, "note_off_time": 3.36}, {"pitch": 65, "velocity": 82, "note_on_time": 3.372, "note_off_time": 3.49}, {"pitch": 65, "velocity": 99, "note_on_time": 3.732, "note_off_time": 3.833}, {"pitch": 65, "velocity": 88, "note_on_time": 4.094, "note_off_time": 4.174}, {"pitch": 65, "velocity": 102, "note_on_time": 4.464, "note_off_time": 4.582}, {"pitch": 65, "velocity": 83, "note_on_time": 4.829, "note_off_time": 5.169}, {"pitch": 62, "velocity": 67, "note_on_time": 5.179, "note_off_time": 5.568}, {"pitch": 64, "velocity": 77, "note_on_time": 5.58, "note_off_time": 5.937}, {"pitch": 62, "velocity": 78, "note_on_time": 5.949, "note_off_time": 6.289}, {"pitch": 67, "velocity": 91, "note_on_time": 6.353, "note_off_time": 6.483}, {"pitch": 67, "velocity": 87, "note_on_time": 6.701, "note_off_time": 6.81}, {"pitch": 62, "velocity": 79, "note_on_time": 7.086, "note_off_time": 7.187}, {"pitch": 62, "velocity": 82, "note_on_time": 7.425, "note_off_time": 7.509}, {"pitch": 60, "velocity": 79, "note_on_time": 7.823, "note_off_time": 8.176}, {"pitch": 64, "velocity": 75, "note_on_time": 8.186, "note_off_time": 8.587}, {"pitch": 67, "velocity": 74, "note_on_time": 8.581, "note_off_time": 8.954}, {"pitch": 65, "velocity": 81, "note_on_time": 8.947, "note_off_time": 9.314}, {"pitch": 62, "velocity": 73, "note_on_time": 9.329, "note_off_time": 9.729}, {"pitch": 60, "velocity": 73, "note_on_time": 9.72, "note_off_time": 10.106}, {"pitch": 67, "velocity": 74, "note_on_time": 10.086, "note_off_time": 10.465}, {"pitch": 62, "velocity": 74, "note_on_time": 10.458, "note_off_time": 10.799}, {"pitch": 64, "velocity": 80, "note_on_time": 10.816, "note_off_time": 11.001}, {"pitch": 62, "velocity": 91, "note_on_time": 11.179, "note_off_time": 11.29}, {"pitch": 62, "velocity": 84, "note_on_time": 11.6, "note_off_time": 11.909}, {"pitch": 65, "velocity": 82, "note_on_time": 11.922, "note_off_time": 12.272}, {"pitch": 60, "velocity": 72, "note_on_time": 12.282, "note_off_time": 12.427}, {"pitch": 60, "velocity": 93, "note_on_time": 13.032, "note_off_time": 13.161}]</notes><guidance name="Guidance Mode">None</guidance><error name="Error value">0.82691642857143</error></trial><trial trial_no="2" timestamp="2022_11_21-17_45_08"><notes name="Played Notes">[{"pitch": 67, "velocity": 92, "note_on_time": 1.529, "note_off_time": 1.611}, {"pitch": 67, "velocity": 95, "note_on_time": 1.883, "note_off_time": 2.232}, {"pitch": 65, "velocity": 90, "note_on_time": 2.233, "note_off_time": 2.707}, {"pitch": 64, "velocity": 78, "note_on_time": 2.67, "note_off_time": 3.224}, {"pitch": 67, "velocity": 95, "note_on_time": 4.474, "note_off_time": 4.564}]</notes><guidance name="Guidance Mode">None</guidance><error name="Error value">1.300179107142857</error></trial><trial trial_no="3" timestamp="2022_11_21-17_45_29"><notes name="Played Notes">[{"pitch": 67, "velocity": 94, "note_on_time": 1.503, "note_off_time": 1.58}, {"pitch": 67, "velocity": 91, "note_on_time": 1.86, "note_off_time": 2.234}, {"pitch": 65, "velocity": 83, "note_on_time": 2.222, "note_off_time": 2.604}, {"pitch": 64, "velocity": 79, "note_on_time": 2.595, "note_off_time": 2.683}, {"pitch": 64, "velocity": 92, "note_on_time": 2.972, "note_off_time": 3.365}, {"pitch": 65, "velocity": 95, "note_on_time": 3.353, "note_off_time": 3.434}, {"pitch": 65, "velocity": 101, "note_on_time": 3.71, "note_off_time": 3.786}, {"pitch": 65, "velocity": 104, "note_on_time": 4.076, "note_off_time": 4.15}, {"pitch": 65, "velocity": 99, "note_on_time": 4.453, "note_off_time": 4.801}, {"pitch": 62, "velocity": 78, "note_on_time": 4.819, "note_off_time": 5.197}, {"pitch": 65, "velocity": 73, "note_on_time": 5.193, "note_off_time": 5.542}, {"pitch": 62, "velocity": 73, "note_on_time": 5.55, "note_off_time": 5.916}, {"pitch": 67, "velocity": 78, "note_on_time": 5.915, "note_off_time": 6.018}, {"pitch": 67, "velocity": 95, "note_on_time": 6.3, "note_off_time": 6.554}, {"pitch": 62, "velocity": 81, "note_on_time": 6.668, "note_off_time": 6.744}, {"pitch": 62, "velocity": 90, "note_on_time": 7.03, "note_off_time": 7.113}, {"pitch": 60, "velocity": 88, "note_on_time": 7.408, "note_off_time": 7.774}, {"pitch": 64, "velocity": 81, "note_on_time": 7.783, "note_off_time": 8.192}, {"pitch": 67, "velocity": 76, "note_on_time": 8.192, "note_off_time": 8.55}, {"pitch": 65, "velocity": 86, "note_on_time": 8.546, "note_off_time": 8.943}, {"pitch": 62, "velocity": 75, "note_on_time": 8.948, "note_off_time": 9.299}, {"pitch": 60, "velocity": 82, "note_on_time": 9.289, "note_off_time": 9.696}, {"pitch": 67, "velocity": 74, "note_on_time": 9.68, "note_off_time": 10.032}, {"pitch": 64, "velocity": 79, "note_on_time": 10.034, "note_off_time": 10.344}, {"pitch": 62, "velocity": 76, "note_on_time": 10.401, "note_off_time": 10.492}, {"pitch": 62, "velocity": 88, "note_on_time": 10.759, "note_off_time": 11.108}, {"pitch": 65, "velocity": 81, "note_on_time": 11.116, "note_off_time": 11.509}, {"pitch": 60, "velocity": 87, "note_on_time": 11.521, "note_off_time": 11.627}, {"pitch": 60, "velocity": 86, "note_on_time": 12.195, "note_off_time": 12.299}, {"pitch": 60, "velocity": 94, "note_on_time": 12.631, "note_off_time": 12.722}, {"pitch": 60, "velocity": 95, "note_on_time": 13.023, "note_off_time": 13.143}]</notes><guidance name="Guidance Mode">None</guidance><error name="Error value">0.054503750000000184</error></trial><trial trial_no="4" timestamp="2022_11_21-17_45_54"><notes name="Played Notes">[{"pitch": 67, "velocity": 99, "note_on_time": 1.536, "note_off_time": 1.608}, {"pitch": 67, "velocity": 82, "note_on_time": 1.894, "note_off_time": 2.285}, {"pitch": 65, "velocity": 86, "note_on_time": 2.27, "note_off_time": 2.638}, {"pitch": 64, "velocity": 87, "note_on_time": 2.621, "note_off_time": 2.714}, {"pitch": 64, "velocity": 94, "note_on_time": 2.983, "note_off_time": 3.254}, {"pitch": 65, "velocity": 77, "note_on_time": 3.325, "note_off_time": 3.425}, {"pitch": 65, "velocity": 102, "note_on_time": 3.736, "note_off_time": 3.812}, {"pitch": 65, "velocity": 99, "note_on_time": 4.093, "note_off_time": 4.163}, {"pitch": 65, "velocity": 97, "note_on_time": 4.472, "note_off_time": 4.816}, {"pitch": 62, "velocity": 79, "note_on_time": 4.825, "note_off_time": 5.203}, {"pitch": 65, "velocity": 82, "note_on_time": 5.199, "note_off_time": 5.547}, {"pitch": 62, "velocity": 79, "note_on_time": 5.559, "note_off_time": 5.947}, {"pitch": 67, "velocity": 82, "note_on_time": 5.941, "note_off_time": 6.033}, {"pitch": 67, "velocity": 90, "note_on_time": 6.297, "note_off_time": 6.386}, {"pitch": 62, "velocity": 87, "note_on_time": 6.69, "note_off_time": 6.773}, {"pitch": 62, "velocity": 86, "note_on_time": 7.047, "note_off_time": 7.137}, {"pitch": 60, "velocity": 88, "note_on_time": 7.407, "note_off_time": 7.829}, {"pitch": 64, "velocity": 87, "note_on_time": 7.799, "note_off_time": 8.184}, {"pitch": 67, "velocity": 82, "note_on_time": 8.191, "note_off_time": 8.558}, {"pitch": 65, "velocity": 86, "note_on_time": 8.559, "note_off_time": 8.93}, {"pitch": 62, "velocity": 76, "note_on_time": 8.947, "note_off_time": 9.312}, {"pitch": 60, "velocity": 74, "note_on_time": 9.288, "note_off_time": 9.715}, {"pitch": 67, "velocity": 77, "note_on_time": 9.691, "note_off_time": 10.035}, {"pitch": 62, "velocity": 80, "note_on_time": 10.045, "note_off_time": 10.213}, {"pitch": 62, "velocity": 89, "note_on_time": 10.464, "note_off_time": 10.534}, {"pitch": 67, "velocity": 85, "note_on_time": 11.19, "note_off_time": 11.507}, {"pitch": 64, "velocity": 78, "note_on_time": 11.539, "note_off_time": 11.962}, {"pitch": 62, "velocity": 80, "note_on_time": 11.941, "note_off_time": 12.029}, {"pitch": 62, "velocity": 77, "note_on_time": 12.307, "note_off_time": 12.65}, {"pitch": 65, "velocity": 80, "note_on_time": 12.67, "note_off_time": 13.042}, {"pitch": 60, "velocity": 87, "note_on_time": 13.058, "note_off_time": 13.186}]</notes><guidance name="Guidance Mode">None</guidance><error name="Error value">0.29391660714285717</error></trial></trials></MIDI>