<MIDI midiNo="2022_12_08-11_36_28"><target_notes><notes name="Note List">[{"pitch": 42, "velocity": 80, "note_on_time": 0.004, "note_off_time": 0.309}, {"pitch": 42, "velocity": 80, "note_on_time": 0.309, "note_off_time": 0.621}, {"pitch": 42, "velocity": 80, "note_on_time": 0.621, "note_off_time": 0.933}, {"pitch": 42, "velocity": 80, "note_on_time": 0.934, "note_off_time": 1.244}, {"pitch": 67, "velocity": 80, "note_on_time": 1.243, "note_off_time": 1.555}, {"pitch": 42, "velocity": 80, "note_on_time": 1.244, "note_off_time": 1.555}, {"pitch": 60, "velocity": 80, "note_on_time": 1.555, "note_off_time": 1.866}, {"pitch": 42, "velocity": 80, "note_on_time": 1.555, "note_off_time": 1.866}, {"pitch": 67, "velocity": 80, "note_on_time": 1.866, "note_off_time": 2.177}, {"pitch": 42, "velocity": 80, "note_on_time": 1.867, "note_off_time": 2.177}, {"pitch": 67, "velocity": 80, "note_on_time": 2.177, "note_off_time": 2.489}, {"pitch": 42, "velocity": 80, "note_on_time": 2.177, "note_off_time": 2.489}, {"pitch": 67, "velocity": 80, "note_on_time": 2.489, "note_off_time": 2.801}, {"pitch": 42, "velocity": 80, "note_on_time": 2.489, "note_off_time": 2.801}, {"pitch": 64, "velocity": 80, "note_on_time": 2.801, "note_off_time": 3.112}, {"pitch": 42, "velocity": 80, "note_on_time": 2.801, "note_off_time": 3.112}, {"pitch": 62, "velocity": 80, "note_on_time": 3.112, "note_off_time": 3.423}, {"pitch": 42, "velocity": 80, "note_on_time": 3.113, "note_off_time": 3.424}, {"pitch": 42, "velocity": 80, "note_on_time": 3.424, "note_off_time": 3.737}, {"pitch": 62, "velocity": 80, "note_on_time": 3.737, "note_off_time": 4.048}, {"pitch": 42, "velocity": 80, "note_on_time": 3.737, "note_off_time": 4.048}, {"pitch": 42, "velocity": 80, "note_on_time": 4.048, "note_off_time": 4.36}, {"pitch": 65, "velocity": 80, "note_on_time": 4.048, "note_off_time": 4.67}, {"pitch": 42, "velocity": 80, "note_on_time": 4.36, "note_off_time": 4.67}, {"pitch": 60, "velocity": 80, "note_on_time": 4.67, "note_off_time": 4.982}, {"pitch": 42, "velocity": 80, "note_on_time": 4.67, "note_off_time": 4.982}, {"pitch": 60, "velocity": 80, "note_on_time": 4.982, "note_off_time": 5.294}, {"pitch": 42, "velocity": 80, "note_on_time": 4.982, "note_off_time": 5.294}, {"pitch": 60, "velocity": 80, "note_on_time": 5.294, "note_off_time": 5.607}, {"pitch": 42, "velocity": 80, "note_on_time": 5.294, "note_off_time": 5.607}, {"pitch": 64, "velocity": 80, "note_on_time": 5.607, "note_off_time": 5.918}, {"pitch": 42, "velocity": 80, "note_on_time": 5.607, "note_off_time": 5.918}, {"pitch": 64, "velocity": 80, "note_on_time": 5.918, "note_off_time": 6.231}, {"pitch": 42, "velocity": 80, "note_on_time": 5.918, "note_off_time": 6.231}, {"pitch": 62, "velocity": 80, "note_on_time": 6.231, "note_off_time": 6.541}, {"pitch": 42, "velocity": 80, "note_on_time": 6.231, "note_off_time": 6.542}, {"pitch": 65, "velocity": 80, "note_on_time": 6.541, "note_off_time": 6.854}, {"pitch": 42, "velocity": 80, "note_on_time": 6.542, "note_off_time": 6.854}, {"pitch": 42, "velocity": 80, "note_on_time": 6.854, "note_off_time": 7.166}, {"pitch": 60, "velocity": 80, "note_on_time": 6.854, "note_off_time": 7.477}, {"pitch": 42, "velocity": 80, "note_on_time": 7.166, "note_off_time": 7.477}, {"pitch": 67, "velocity": 80, "note_on_time": 7.477, "note_off_time": 7.789}, {"pitch": 42, "velocity": 80, "note_on_time": 7.478, "note_off_time": 7.789}, {"pitch": 60, "velocity": 80, "note_on_time": 7.789, "note_off_time": 8.103}, {"pitch": 42, "velocity": 80, "note_on_time": 7.789, "note_off_time": 8.104}, {"pitch": 42, "velocity": 80, "note_on_time": 8.104, "note_off_time": 8.414}, {"pitch": 60, "velocity": 80, "note_on_time": 8.103, "note_off_time": 8.726}, {"pitch": 42, "velocity": 80, "note_on_time": 8.414, "note_off_time": 8.726}, {"pitch": 42, "velocity": 80, "note_on_time": 8.726, "note_off_time": 9.037}, {"pitch": 62, "velocity": 80, "note_on_time": 8.726, "note_off_time": 9.351}, {"pitch": 42, "velocity": 80, "note_on_time": 9.037, "note_off_time": 9.351}, {"pitch": 42, "velocity": 80, "note_on_time": 9.351, "note_off_time": 9.663}, {"pitch": 67, "velocity": 80, "note_on_time": 9.663, "note_off_time": 9.974}, {"pitch": 42, "velocity": 80, "note_on_time": 9.664, "note_off_time": 9.974}, {"pitch": 42, "velocity": 80, "note_on_time": 9.974, "note_off_time": 10.288}, {"pitch": 67, "velocity": 80, "note_on_time": 10.288, "note_off_time": 10.599}, {"pitch": 42, "velocity": 80, "note_on_time": 10.288, "note_off_time": 10.599}, {"pitch": 67, "velocity": 80, "note_on_time": 10.599, "note_off_time": 10.913}, {"pitch": 42, "velocity": 80, "note_on_time": 10.6, "note_off_time": 10.913}, {"pitch": 67, "velocity": 80, "note_on_time": 10.913, "note_off_time": 11.225}, {"pitch": 42, "velocity": 80, "note_on_time": 10.913, "note_off_time": 11.225}]</notes><options name="Option List">((4, 4), [0.5, 0.25], 3, 8, &lt;NoteRangePerHand.C_TO_G: 6&gt;, &lt;NoteRangePerHand.ONE_NOTE: 2&gt;, False, True, False, '200')</options></target_notes><trials><trial trial_no="1" timestamp="2022_12_08-11_36_15"><notes name="Played Notes">[{"pitch": 67, "velocity": 89, "note_on_time": 1.277, "note_off_time": 1.441}, {"pitch": 60, "velocity": 86, "note_on_time": 1.591, "note_off_time": 1.708}, {"pitch": 60, "velocity": 89, "note_on_time": 1.922, "note_off_time": 2.045}, {"pitch": 67, "velocity": 83, "note_on_time": 2.219, "note_off_time": 2.362}, {"pitch": 67, "velocity": 83, "note_on_time": 2.536, "note_off_time": 2.677}, {"pitch": 67, "velocity": 77, "note_on_time": 2.838, "note_off_time": 2.989}, {"pitch": 64, "velocity": 94, "note_on_time": 3.148, "note_off_time": 3.3}, {"pitch": 62, "velocity": 99, "note_on_time": 3.43, "note_off_time": 3.584}, {"pitch": 62, "velocity": 88, "note_on_time": 4.061, "note_off_time": 4.2}, {"pitch": 65, "velocity": 95, "note_on_time": 4.376, "note_off_time": 4.834}, {"pitch": 60, "velocity": 90, "note_on_time": 5.027, "note_off_time": 5.217}, {"pitch": 60, "velocity": 88, "note_on_time": 5.325, "note_off_time": 5.453}, {"pitch": 60, "velocity": 90, "note_on_time": 5.65, "note_off_time": 5.778}, {"pitch": 64, "velocity": 91, "note_on_time": 5.931, "note_off_time": 6.053}, {"pitch": 64, "velocity": 91, "note_on_time": 6.26, "note_off_time": 6.415}, {"pitch": 62, "velocity": 86, "note_on_time": 6.57, "note_off_time": 6.709}, {"pitch": 65, "velocity": 97, "note_on_time": 6.906, "note_off_time": 7.044}, {"pitch": 60, "velocity": 95, "note_on_time": 7.185, "note_off_time": 7.651}, {"pitch": 67, "velocity": 85, "note_on_time": 7.84, "note_off_time": 8.015}, {"pitch": 60, "velocity": 95, "note_on_time": 8.138, "note_off_time": 8.256}, {"pitch": 60, "velocity": 96, "note_on_time": 8.431, "note_off_time": 8.597}, {"pitch": 60, "velocity": 79, "note_on_time": 8.741, "note_off_time": 9.083}, {"pitch": 62, "velocity": 87, "note_on_time": 9.141, "note_off_time": 9.671}, {"pitch": 67, "velocity": 85, "note_on_time": 10.304, "note_off_time": 10.442}, {"pitch": 67, "velocity": 86, "note_on_time": 10.638, "note_off_time": 10.744}, {"pitch": 67, "velocity": 85, "note_on_time": 10.94, "note_off_time": 11.052}]</notes><guidance name="Guidance Mode">None</guidance><error name="Error value">0.34822727272727266</error></trial><trial trial_no="2" timestamp="2022_12_08-11_36_35"><notes name="Played Notes">[{"pitch": 67, "velocity": 84, "note_on_time": 1.228, "note_off_time": 1.392}, {"pitch": 60, "velocity": 88, "note_on_time": 1.546, "note_off_time": 1.652}, {"pitch": 60, "velocity": 88, "note_on_time": 1.863, "note_off_time": 1.986}, {"pitch": 67, "velocity": 84, "note_on_time": 2.167, "note_off_time": 2.327}, {"pitch": 67, "velocity": 85, "note_on_time": 2.514, "note_off_time": 2.676}, {"pitch": 67, "velocity": 78, "note_on_time": 2.841, "note_off_time": 2.982}, {"pitch": 64, "velocity": 90, "note_on_time": 3.134, "note_off_time": 3.3}, {"pitch": 62, "velocity": 93, "note_on_time": 3.441, "note_off_time": 3.632}, {"pitch": 62, "velocity": 93, "note_on_time": 4.027, "note_off_time": 4.148}, {"pitch": 65, "velocity": 93, "note_on_time": 4.335, "note_off_time": 4.792}, {"pitch": 60, "velocity": 92, "note_on_time": 4.989, "note_off_time": 5.109}, {"pitch": 60, "velocity": 89, "note_on_time": 5.321, "note_off_time": 5.429}, {"pitch": 60, "velocity": 89, "note_on_time": 5.629, "note_off_time": 5.748}, {"pitch": 64, "velocity": 84, "note_on_time": 5.949, "note_off_time": 6.075}, {"pitch": 64, "velocity": 84, "note_on_time": 6.264, "note_off_time": 6.421}, {"pitch": 62, "velocity": 88, "note_on_time": 6.602, "note_off_time": 6.726}, {"pitch": 65, "velocity": 92, "note_on_time": 6.906, "note_off_time": 7.032}, {"pitch": 60, "velocity": 95, "note_on_time": 7.181, "note_off_time": 7.625}, {"pitch": 67, "velocity": 79, "note_on_time": 7.812, "note_off_time": 7.96}, {"pitch": 60, "velocity": 94, "note_on_time": 8.124, "note_off_time": 8.242}, {"pitch": 60, "velocity": 94, "note_on_time": 8.424, "note_off_time": 8.824}, {"pitch": 62, "velocity": 96, "note_on_time": 9.003, "note_off_time": 9.491}, {"pitch": 67, "velocity": 86, "note_on_time": 9.965, "note_off_time": 10.112}, {"pitch": 67, "velocity": 91, "note_on_time": 10.509, "note_off_time": 10.649}, {"pitch": 67, "velocity": 91, "note_on_time": 10.813, "note_off_time": 10.943}]</notes><guidance name="Guidance Mode">None</guidance><error name="Error value">0.8969545454545453</error></trial><trial trial_no="3" timestamp="2022_12_08-11_37_02"><notes name="Played Notes">[{"pitch": 67, "velocity": 85, "note_on_time": 1.231, "note_off_time": 1.394}, {"pitch": 60, "velocity": 80, "note_on_time": 1.559, "note_off_time": 1.681}, {"pitch": 60, "velocity": 79, "note_on_time": 1.896, "note_off_time": 2.013}, {"pitch": 67, "velocity": 78, "note_on_time": 2.212, "note_off_time": 2.336}, {"pitch": 67, "velocity": 78, "note_on_time": 2.526, "note_off_time": 2.653}, {"pitch": 67, "velocity": 67, "note_on_time": 2.845, "note_off_time": 2.991}, {"pitch": 64, "velocity": 90, "note_on_time": 3.149, "note_off_time": 3.326}, {"pitch": 62, "velocity": 93, "note_on_time": 3.472, "note_off_time": 3.705}, {"pitch": 62, "velocity": 90, "note_on_time": 4.088, "note_off_time": 4.229}, {"pitch": 65, "velocity": 95, "note_on_time": 4.383, "note_off_time": 4.887}, {"pitch": 60, "velocity": 95, "note_on_time": 5.032, "note_off_time": 5.158}, {"pitch": 60, "velocity": 90, "note_on_time": 5.353, "note_off_time": 5.46}, {"pitch": 60, "velocity": 87, "note_on_time": 5.674, "note_off_time": 5.8}, {"pitch": 64, "velocity": 81, "note_on_time": 5.978, "note_off_time": 6.099}, {"pitch": 64, "velocity": 83, "note_on_time": 6.29, "note_off_time": 6.456}, {"pitch": 62, "velocity": 79, "note_on_time": 6.602, "note_off_time": 6.733}, {"pitch": 65, "velocity": 89, "note_on_time": 6.908, "note_off_time": 7.066}, {"pitch": 60, "velocity": 81, "note_on_time": 7.195, "note_off_time": 7.682}, {"pitch": 60, "velocity": 67, "note_on_time": 7.888, "note_off_time": 7.938}, {"pitch": 67, "velocity": 79, "note_on_time": 8.025, "note_off_time": 8.235}, {"pitch": 60, "velocity": 82, "note_on_time": 8.303, "note_off_time": 8.437}, {"pitch": 60, "velocity": 83, "note_on_time": 8.602, "note_off_time": 8.895}, {"pitch": 62, "velocity": 84, "note_on_time": 9.175, "note_off_time": 9.487}, {"pitch": 67, "velocity": 88, "note_on_time": 9.995, "note_off_time": 10.113}, {"pitch": 67, "velocity": 89, "note_on_time": 10.516, "note_off_time": 10.632}, {"pitch": 67, "velocity": 83, "note_on_time": 10.797, "note_off_time": 10.91}, {"pitch": 67, "velocity": 89, "note_on_time": 11.113, "note_off_time": 11.218}]</notes><guidance name="Guidance Mode">None</guidance><error name="Error value">0.31172727272727274</error></trial></trials></MIDI>