<MIDI midiNo="2022_12_22-10_33_34"><target_notes><notes name="Note List">[{"pitch": 42, "velocity": 80, "note_on_time": 0.004, "note_off_time": 0.902}, {"pitch": 42, "velocity": 80, "note_on_time": 0.903, "note_off_time": 1.805}, {"pitch": 42, "velocity": 80, "note_on_time": 1.805, "note_off_time": 2.705}, {"pitch": 42, "velocity": 80, "note_on_time": 2.705, "note_off_time": 3.606}, {"pitch": 62, "velocity": 80, "note_on_time": 3.606, "note_off_time": 4.506}, {"pitch": 42, "velocity": 80, "note_on_time": 3.606, "note_off_time": 4.507}, {"pitch": 42, "velocity": 80, "note_on_time": 4.507, "note_off_time": 5.412}, {"pitch": 62, "velocity": 80, "note_on_time": 4.506, "note_off_time": 6.315}, {"pitch": 42, "velocity": 80, "note_on_time": 5.412, "note_off_time": 6.315}, {"pitch": 42, "velocity": 80, "note_on_time": 6.315, "note_off_time": 7.221}, {"pitch": 42, "velocity": 80, "note_on_time": 7.221, "note_off_time": 8.122}, {"pitch": 60, "velocity": 80, "note_on_time": 7.221, "note_off_time": 9.025}, {"pitch": 42, "velocity": 80, "note_on_time": 8.122, "note_off_time": 9.025}, {"pitch": 42, "velocity": 80, "note_on_time": 9.025, "note_off_time": 9.928}, {"pitch": 42, "velocity": 80, "note_on_time": 9.929, "note_off_time": 10.832}, {"pitch": 62, "velocity": 80, "note_on_time": 10.832, "note_off_time": 11.737}, {"pitch": 42, "velocity": 80, "note_on_time": 10.832, "note_off_time": 11.737}, {"pitch": 62, "velocity": 80, "note_on_time": 11.737, "note_off_time": 12.641}, {"pitch": 42, "velocity": 80, "note_on_time": 11.737, "note_off_time": 12.641}, {"pitch": 60, "velocity": 80, "note_on_time": 12.641, "note_off_time": 13.545}, {"pitch": 42, "velocity": 80, "note_on_time": 12.641, "note_off_time": 13.545}, {"pitch": 60, "velocity": 80, "note_on_time": 13.545, "note_off_time": 14.448}, {"pitch": 42, "velocity": 80, "note_on_time": 13.546, "note_off_time": 14.448}, {"pitch": 64, "velocity": 80, "note_on_time": 14.448, "note_off_time": 15.35}, {"pitch": 42, "velocity": 80, "note_on_time": 14.448, "note_off_time": 15.351}, {"pitch": 64, "velocity": 80, "note_on_time": 15.35, "note_off_time": 16.254}, {"pitch": 42, "velocity": 80, "note_on_time": 15.351, "note_off_time": 16.254}, {"pitch": 64, "velocity": 80, "note_on_time": 16.254, "note_off_time": 17.155}, {"pitch": 42, "velocity": 80, "note_on_time": 16.255, "note_off_time": 17.155}, {"pitch": 64, "velocity": 80, "note_on_time": 17.155, "note_off_time": 18.058}, {"pitch": 42, "velocity": 80, "note_on_time": 17.155, "note_off_time": 18.058}, {"pitch": 64, "velocity": 80, "note_on_time": 18.058, "note_off_time": 18.96}, {"pitch": 42, "velocity": 80, "note_on_time": 18.058, "note_off_time": 18.96}, {"pitch": 64, "velocity": 80, "note_on_time": 18.96, "note_off_time": 19.864}, {"pitch": 42, "velocity": 80, "note_on_time": 18.96, "note_off_time": 19.865}, {"pitch": 62, "velocity": 80, "note_on_time": 19.864, "note_off_time": 20.767}, {"pitch": 42, "velocity": 80, "note_on_time": 19.865, "note_off_time": 20.767}, {"pitch": 42, "velocity": 80, "note_on_time": 20.767, "note_off_time": 21.667}, {"pitch": 64, "velocity": 80, "note_on_time": 21.667, "note_off_time": 22.566}, {"pitch": 42, "velocity": 80, "note_on_time": 21.667, "note_off_time": 22.567}, {"pitch": 62, "velocity": 80, "note_on_time": 22.566, "note_off_time": 23.468}, {"pitch": 42, "velocity": 80, "note_on_time": 22.567, "note_off_time": 23.469}, {"pitch": 42, "velocity": 80, "note_on_time": 23.469, "note_off_time": 24.373}, {"pitch": 64, "velocity": 80, "note_on_time": 23.468, "note_off_time": 25.275}, {"pitch": 42, "velocity": 80, "note_on_time": 24.374, "note_off_time": 25.275}, {"pitch": 62, "velocity": 80, "note_on_time": 25.275, "note_off_time": 26.176}, {"pitch": 42, "velocity": 80, "note_on_time": 25.276, "note_off_time": 26.176}, {"pitch": 42, "velocity": 80, "note_on_time": 26.176, "note_off_time": 27.079}, {"pitch": 42, "velocity": 80, "note_on_time": 27.079, "note_off_time": 27.981}, {"pitch": 42, "velocity": 80, "note_on_time": 27.981, "note_off_time": 28.884}, {"pitch": 42, "velocity": 80, "note_on_time": 28.884, "note_off_time": 29.785}, {"pitch": 62, "velocity": 80, "note_on_time": 29.785, "note_off_time": 30.69}, {"pitch": 42, "velocity": 80, "note_on_time": 29.785, "note_off_time": 30.69}, {"pitch": 62, "velocity": 80, "note_on_time": 30.69, "note_off_time": 31.594}, {"pitch": 42, "velocity": 80, "note_on_time": 30.69, "note_off_time": 31.594}, {"pitch": 62, "velocity": 80, "note_on_time": 31.594, "note_off_time": 32.498}, {"pitch": 42, "velocity": 80, "note_on_time": 31.594, "note_off_time": 32.498}]</notes><options name="Option List">((4, 4), [0.5, 0.25], 3, 8, &lt;NoteRangePerHand.THREE_NOTES: 4&gt;, &lt;NoteRangePerHand.ONE_NOTE: 2&gt;, False, True, False, '67')</options></target_notes><trials><trial trial_no="1" timestamp="2022_12_22-10_33_00"><notes name="Played Notes">[{"pitch": 62, "velocity": 66, "note_on_time": 3.733, "note_off_time": 4.205}, {"pitch": 62, "velocity": 61, "note_on_time": 4.586, "note_off_time": 5.512}, {"pitch": 60, "velocity": 44, "note_on_time": 7.1, "note_off_time": 7.68}, {"pitch": 62, "velocity": 64, "note_on_time": 9.864, "note_off_time": 10.246}, {"pitch": 62, "velocity": 63, "note_on_time": 10.736, "note_off_time": 11.152}, {"pitch": 60, "velocity": 69, "note_on_time": 11.627, "note_off_time": 12.063}, {"pitch": 60, "velocity": 66, "note_on_time": 12.495, "note_off_time": 13.006}, {"pitch": 64, "velocity": 56, "note_on_time": 13.438, "note_off_time": 13.844}, {"pitch": 64, "velocity": 63, "note_on_time": 14.234, "note_off_time": 14.746}, {"pitch": 64, "velocity": 62, "note_on_time": 15.256, "note_off_time": 15.628}, {"pitch": 64, "velocity": 56, "note_on_time": 16.15, "note_off_time": 16.566}, {"pitch": 64, "velocity": 60, "note_on_time": 17.076, "note_off_time": 17.435}, {"pitch": 64, "velocity": 69, "note_on_time": 18.038, "note_off_time": 18.389}, {"pitch": 62, "velocity": 54, "note_on_time": 18.963, "note_off_time": 19.277}, {"pitch": 64, "velocity": 54, "note_on_time": 20.69, "note_off_time": 21.081}, {"pitch": 62, "velocity": 58, "note_on_time": 21.521, "note_off_time": 21.873}, {"pitch": 64, "velocity": 50, "note_on_time": 22.399, "note_off_time": 23.064}, {"pitch": 64, "velocity": 52, "note_on_time": 24.349, "note_off_time": 24.757}, {"pitch": 62, "velocity": 40, "note_on_time": 28.807, "note_off_time": 29.248}, {"pitch": 62, "velocity": 47, "note_on_time": 29.683, "note_off_time": 30.058}, {"pitch": 62, "velocity": 56, "note_on_time": 30.66, "note_off_time": 30.971}]</notes><guidance name="Guidance Mode">None</guidance><error name="Error value">0.16199055555555567</error></trial><trial trial_no="2" timestamp="2022_12_22-10_33_45"><notes name="Played Notes">[{"pitch": 62, "velocity": 67, "note_on_time": 3.666, "note_off_time": 4.086}, {"pitch": 62, "velocity": 61, "note_on_time": 4.539, "note_off_time": 5.206}, {"pitch": 60, "velocity": 62, "note_on_time": 7.189, "note_off_time": 8.148}, {"pitch": 62, "velocity": 60, "note_on_time": 10.839, "note_off_time": 11.208}, {"pitch": 62, "velocity": 64, "note_on_time": 11.672, "note_off_time": 12.048}, {"pitch": 60, "velocity": 64, "note_on_time": 12.536, "note_off_time": 12.955}, {"pitch": 60, "velocity": 64, "note_on_time": 13.423, "note_off_time": 13.945}, {"pitch": 64, "velocity": 64, "note_on_time": 14.29, "note_off_time": 14.751}, {"pitch": 64, "velocity": 56, "note_on_time": 15.223, "note_off_time": 15.667}, {"pitch": 64, "velocity": 62, "note_on_time": 16.119, "note_off_time": 16.569}, {"pitch": 64, "velocity": 58, "note_on_time": 17.074, "note_off_time": 17.416}, {"pitch": 64, "velocity": 59, "note_on_time": 17.952, "note_off_time": 18.312}, {"pitch": 64, "velocity": 64, "note_on_time": 18.926, "note_off_time": 19.35}, {"pitch": 62, "velocity": 69, "note_on_time": 19.868, "note_off_time": 20.229}, {"pitch": 64, "velocity": 60, "note_on_time": 21.702, "note_off_time": 22.153}, {"pitch": 62, "velocity": 65, "note_on_time": 22.604, "note_off_time": 22.948}, {"pitch": 64, "velocity": 55, "note_on_time": 23.537, "note_off_time": 24.793}, {"pitch": 62, "velocity": 59, "note_on_time": 25.558, "note_off_time": 25.959}, {"pitch": 62, "velocity": 55, "note_on_time": 28.854, "note_off_time": 29.183}, {"pitch": 62, "velocity": 49, "note_on_time": 29.737, "note_off_time": 30.07}, {"pitch": 62, "velocity": 58, "note_on_time": 30.635, "note_off_time": 30.861}]</notes><guidance name="Guidance Mode">None</guidance><error name="Error value">0.11174877777777811</error></trial><trial trial_no="3" timestamp="2022_12_22-10_34_29"><notes name="Played Notes">[{"pitch": 62, "velocity": 55, "note_on_time": 3.662, "note_off_time": 4.013}, {"pitch": 62, "velocity": 59, "note_on_time": 4.504, "note_off_time": 5.401}, {"pitch": 60, "velocity": 66, "note_on_time": 6.239, "note_off_time": 7.613}, {"pitch": 62, "velocity": 62, "note_on_time": 9.9, "note_off_time": 10.291}, {"pitch": 62, "velocity": 56, "note_on_time": 10.808, "note_off_time": 11.156}, {"pitch": 60, "velocity": 55, "note_on_time": 11.635, "note_off_time": 12.019}, {"pitch": 60, "velocity": 69, "note_on_time": 12.445, "note_off_time": 12.934}, {"pitch": 64, "velocity": 51, "note_on_time": 13.51, "note_off_time": 13.926}, {"pitch": 64, "velocity": 45, "note_on_time": 14.368, "note_off_time": 14.719}, {"pitch": 64, "velocity": 57, "note_on_time": 15.226, "note_off_time": 15.593}, {"pitch": 64, "velocity": 57, "note_on_time": 16.092, "note_off_time": 16.455}, {"pitch": 64, "velocity": 57, "note_on_time": 17.004, "note_off_time": 17.336}, {"pitch": 64, "velocity": 50, "note_on_time": 17.984, "note_off_time": 18.267}, {"pitch": 62, "velocity": 59, "note_on_time": 18.875, "note_off_time": 19.204}, {"pitch": 64, "velocity": 55, "note_on_time": 20.661, "note_off_time": 21.07}, {"pitch": 62, "velocity": 60, "note_on_time": 21.589, "note_off_time": 21.829}, {"pitch": 64, "velocity": 60, "note_on_time": 22.445, "note_off_time": 23.754}, {"pitch": 62, "velocity": 60, "note_on_time": 24.398, "note_off_time": 24.623}, {"pitch": 62, "velocity": 57, "note_on_time": 28.873, "note_off_time": 29.159}, {"pitch": 62, "velocity": 51, "note_on_time": 29.704, "note_off_time": 29.995}, {"pitch": 62, "velocity": 53, "note_on_time": 30.609, "note_off_time": 30.819}]</notes><guidance name="Guidance Mode">None</guidance><error name="Error value">0.10809188888888885</error></trial></trials></MIDI>