<MIDI midiNo="2022_11_14-18_57_48"><target_notes><notes name="Note List">[{"pitch": 42, "velocity": 80, "note_on_time": 0.004, "note_off_time": 0.225}, {"pitch": 42, "velocity": 80, "note_on_time": 0.226, "note_off_time": 0.444}, {"pitch": 42, "velocity": 80, "note_on_time": 0.444, "note_off_time": 0.662}, {"pitch": 42, "velocity": 80, "note_on_time": 0.662, "note_off_time": 0.881}, {"pitch": 42, "velocity": 80, "note_on_time": 0.881, "note_off_time": 1.1}, {"pitch": 60, "velocity": 80, "note_on_time": 0.881, "note_off_time": 1.317}, {"pitch": 42, "velocity": 80, "note_on_time": 1.1, "note_off_time": 1.317}, {"pitch": 62, "velocity": 80, "note_on_time": 1.317, "note_off_time": 1.534}, {"pitch": 42, "velocity": 80, "note_on_time": 1.317, "note_off_time": 1.534}, {"pitch": 42, "velocity": 80, "note_on_time": 1.534, "note_off_time": 1.752}, {"pitch": 60, "velocity": 80, "note_on_time": 1.752, "note_off_time": 1.971}, {"pitch": 42, "velocity": 80, "note_on_time": 1.752, "note_off_time": 1.971}, {"pitch": 62, "velocity": 80, "note_on_time": 1.971, "note_off_time": 2.188}, {"pitch": 42, "velocity": 80, "note_on_time": 1.971, "note_off_time": 2.188}, {"pitch": 60, "velocity": 80, "note_on_time": 2.188, "note_off_time": 2.408}, {"pitch": 42, "velocity": 80, "note_on_time": 2.188, "note_off_time": 2.408}, {"pitch": 62, "velocity": 80, "note_on_time": 2.408, "note_off_time": 2.626}, {"pitch": 42, "velocity": 80, "note_on_time": 2.408, "note_off_time": 2.626}, {"pitch": 64, "velocity": 80, "note_on_time": 2.626, "note_off_time": 2.845}, {"pitch": 42, "velocity": 80, "note_on_time": 2.626, "note_off_time": 2.845}, {"pitch": 42, "velocity": 80, "note_on_time": 2.845, "note_off_time": 3.062}, {"pitch": 65, "velocity": 80, "note_on_time": 3.062, "note_off_time": 3.281}, {"pitch": 42, "velocity": 80, "note_on_time": 3.062, "note_off_time": 3.281}, {"pitch": 42, "velocity": 80, "note_on_time": 3.281, "note_off_time": 3.499}, {"pitch": 62, "velocity": 80, "note_on_time": 3.499, "note_off_time": 3.715}, {"pitch": 42, "velocity": 80, "note_on_time": 3.499, "note_off_time": 3.715}, {"pitch": 65, "velocity": 80, "note_on_time": 3.715, "note_off_time": 3.934}, {"pitch": 42, "velocity": 80, "note_on_time": 3.716, "note_off_time": 3.934}, {"pitch": 62, "velocity": 80, "note_on_time": 3.934, "note_off_time": 4.15}, {"pitch": 42, "velocity": 80, "note_on_time": 3.934, "note_off_time": 4.15}, {"pitch": 64, "velocity": 80, "note_on_time": 4.15, "note_off_time": 4.369}, {"pitch": 42, "velocity": 80, "note_on_time": 4.15, "note_off_time": 4.369}, {"pitch": 64, "velocity": 80, "note_on_time": 4.369, "note_off_time": 4.586}, {"pitch": 42, "velocity": 80, "note_on_time": 4.369, "note_off_time": 4.586}, {"pitch": 42, "velocity": 80, "note_on_time": 4.586, "note_off_time": 4.802}, {"pitch": 42, "velocity": 80, "note_on_time": 4.802, "note_off_time": 5.021}, {"pitch": 42, "velocity": 80, "note_on_time": 5.021, "note_off_time": 5.241}, {"pitch": 65, "velocity": 80, "note_on_time": 5.241, "note_off_time": 5.458}, {"pitch": 42, "velocity": 80, "note_on_time": 5.241, "note_off_time": 5.458}, {"pitch": 62, "velocity": 80, "note_on_time": 5.458, "note_off_time": 5.678}, {"pitch": 42, "velocity": 80, "note_on_time": 5.458, "note_off_time": 5.678}, {"pitch": 60, "velocity": 80, "note_on_time": 5.678, "note_off_time": 5.895}, {"pitch": 42, "velocity": 80, "note_on_time": 5.679, "note_off_time": 5.895}, {"pitch": 60, "velocity": 80, "note_on_time": 5.895, "note_off_time": 6.113}, {"pitch": 42, "velocity": 80, "note_on_time": 5.895, "note_off_time": 6.113}, {"pitch": 62, "velocity": 80, "note_on_time": 6.113, "note_off_time": 6.331}, {"pitch": 42, "velocity": 80, "note_on_time": 6.113, "note_off_time": 6.332}, {"pitch": 64, "velocity": 80, "note_on_time": 6.331, "note_off_time": 6.55}, {"pitch": 42, "velocity": 80, "note_on_time": 6.332, "note_off_time": 6.55}, {"pitch": 60, "velocity": 80, "note_on_time": 6.55, "note_off_time": 6.768}, {"pitch": 42, "velocity": 80, "note_on_time": 6.551, "note_off_time": 6.768}, {"pitch": 60, "velocity": 80, "note_on_time": 6.768, "note_off_time": 6.986}, {"pitch": 42, "velocity": 80, "note_on_time": 6.769, "note_off_time": 6.986}, {"pitch": 42, "velocity": 80, "note_on_time": 6.986, "note_off_time": 7.204}, {"pitch": 60, "velocity": 80, "note_on_time": 7.204, "note_off_time": 7.421}, {"pitch": 42, "velocity": 80, "note_on_time": 7.204, "note_off_time": 7.421}, {"pitch": 60, "velocity": 80, "note_on_time": 7.421, "note_off_time": 7.638}, {"pitch": 42, "velocity": 80, "note_on_time": 7.421, "note_off_time": 7.638}, {"pitch": 60, "velocity": 80, "note_on_time": 7.638, "note_off_time": 7.859}, {"pitch": 42, "velocity": 80, "note_on_time": 7.639, "note_off_time": 7.859}]</notes><options name="Option List">((4, 4), [0.5, 0.25], 3, 8, &lt;NoteRangePerHand.FOUR_NOTES: 5&gt;, &lt;NoteRangePerHand.ONE_NOTE: 2&gt;, False, True, False, 281)</options></target_notes><trials><trial trial_no="1" timestamp="2022_11_14-18_57_39"><notes name="Played Notes">[{"pitch": 60, "velocity": 79, "note_on_time": 0.939, "note_off_time": 1.221}, {"pitch": 62, "velocity": 82, "note_on_time": 1.202, "note_off_time": 1.471}, {"pitch": 60, "velocity": 79, "note_on_time": 1.866, "note_off_time": 2.122}, {"pitch": 62, "velocity": 69, "note_on_time": 2.134, "note_off_time": 2.369}, {"pitch": 60, "velocity": 75, "note_on_time": 2.368, "note_off_time": 2.607}, {"pitch": 62, "velocity": 69, "note_on_time": 2.613, "note_off_time": 2.913}, {"pitch": 64, "velocity": 72, "note_on_time": 2.891, "note_off_time": 3.063}, {"pitch": 65, "velocity": 85, "note_on_time": 3.37, "note_off_time": 3.588}, {"pitch": 62, "velocity": 74, "note_on_time": 3.87, "note_off_time": 4.088}, {"pitch": 65, "velocity": 79, "note_on_time": 4.101, "note_off_time": 4.348}, {"pitch": 62, "velocity": 79, "note_on_time": 4.345, "note_off_time": 4.593}, {"pitch": 64, "velocity": 80, "note_on_time": 4.585, "note_off_time": 4.705}, {"pitch": 64, "velocity": 92, "note_on_time": 4.877, "note_off_time": 5.147}, {"pitch": 65, "velocity": 91, "note_on_time": 5.461, "note_off_time": 5.699}, {"pitch": 62, "velocity": 80, "note_on_time": 5.692, "note_off_time": 5.925}, {"pitch": 60, "velocity": 92, "note_on_time": 5.924, "note_off_time": 6.024}, {"pitch": 60, "velocity": 90, "note_on_time": 6.188, "note_off_time": 6.423}, {"pitch": 62, "velocity": 80, "note_on_time": 6.442, "note_off_time": 6.687}, {"pitch": 64, "velocity": 78, "note_on_time": 6.686, "note_off_time": 6.924}, {"pitch": 60, "velocity": 82, "note_on_time": 6.92, "note_off_time": 7.016}, {"pitch": 60, "velocity": 86, "note_on_time": 7.186, "note_off_time": 7.312}, {"pitch": 60, "velocity": 84, "note_on_time": 7.595, "note_off_time": 7.688}]</notes><guidance name="Guidance Mode">None</guidance><error name="Error value">0.186676238095238</error></trial><trial trial_no="2" timestamp="2022_11_14-18_58_00"><notes name="Played Notes">[{"pitch": 60, "velocity": 76, "note_on_time": 0.909, "note_off_time": 1.295}, {"pitch": 62, "velocity": 79, "note_on_time": 1.36, "note_off_time": 1.64}, {"pitch": 60, "velocity": 83, "note_on_time": 1.838, "note_off_time": 2.073}, {"pitch": 62, "velocity": 79, "note_on_time": 2.054, "note_off_time": 2.28}, {"pitch": 60, "velocity": 81, "note_on_time": 2.272, "note_off_time": 2.491}, {"pitch": 62, "velocity": 75, "note_on_time": 2.489, "note_off_time": 2.774}, {"pitch": 64, "velocity": 82, "note_on_time": 2.742, "note_off_time": 2.962}, {"pitch": 65, "velocity": 92, "note_on_time": 3.186, "note_off_time": 3.442}, {"pitch": 62, "velocity": 80, "note_on_time": 3.649, "note_off_time": 3.866}, {"pitch": 65, "velocity": 81, "note_on_time": 3.876, "note_off_time": 4.106}, {"pitch": 62, "velocity": 80, "note_on_time": 4.111, "note_off_time": 4.342}, {"pitch": 64, "velocity": 80, "note_on_time": 4.348, "note_off_time": 4.583}, {"pitch": 64, "velocity": 35, "note_on_time": 4.654, "note_off_time": 4.693}, {"pitch": 64, "velocity": 101, "note_on_time": 4.783, "note_off_time": 5.145}, {"pitch": 65, "velocity": 79, "note_on_time": 5.366, "note_off_time": 5.617}, {"pitch": 62, "velocity": 79, "note_on_time": 5.6, "note_off_time": 5.853}, {"pitch": 60, "velocity": 91, "note_on_time": 5.844, "note_off_time": 5.953}, {"pitch": 60, "velocity": 79, "note_on_time": 6.108, "note_off_time": 6.37}, {"pitch": 62, "velocity": 68, "note_on_time": 6.362, "note_off_time": 6.617}, {"pitch": 64, "velocity": 68, "note_on_time": 6.626, "note_off_time": 6.835}, {"pitch": 60, "velocity": 85, "note_on_time": 6.863, "note_off_time": 6.963}, {"pitch": 60, "velocity": 77, "note_on_time": 7.141, "note_off_time": 7.377}, {"pitch": 60, "velocity": 81, "note_on_time": 7.67, "note_off_time": 7.765}]</notes><guidance name="Guidance Mode">None</guidance><error name="Error value">1.1012249523809516</error></trial><trial trial_no="3" timestamp="2022_11_14-18_58_18"><notes name="Played Notes">[{"pitch": 60, "velocity": 72, "note_on_time": 0.909, "note_off_time": 1.317}, {"pitch": 62, "velocity": 83, "note_on_time": 1.433, "note_off_time": 1.711}, {"pitch": 60, "velocity": 78, "note_on_time": 1.894, "note_off_time": 2.099}, {"pitch": 62, "velocity": 70, "note_on_time": 2.093, "note_off_time": 2.318}, {"pitch": 60, "velocity": 76, "note_on_time": 2.311, "note_off_time": 2.531}, {"pitch": 62, "velocity": 68, "note_on_time": 2.531, "note_off_time": 2.802}, {"pitch": 64, "velocity": 82, "note_on_time": 2.771, "note_off_time": 2.977}, {"pitch": 65, "velocity": 88, "note_on_time": 3.227, "note_off_time": 3.417}, {"pitch": 62, "velocity": 78, "note_on_time": 3.675, "note_off_time": 3.905}, {"pitch": 65, "velocity": 80, "note_on_time": 3.911, "note_off_time": 4.126}, {"pitch": 62, "velocity": 81, "note_on_time": 4.143, "note_off_time": 4.39}, {"pitch": 64, "velocity": 71, "note_on_time": 4.388, "note_off_time": 4.492}, {"pitch": 64, "velocity": 88, "note_on_time": 4.615, "note_off_time": 4.905}, {"pitch": 65, "velocity": 82, "note_on_time": 5.1, "note_off_time": 5.335}, {"pitch": 62, "velocity": 78, "note_on_time": 5.32, "note_off_time": 5.596}, {"pitch": 60, "velocity": 82, "note_on_time": 5.584, "note_off_time": 5.709}, {"pitch": 60, "velocity": 79, "note_on_time": 5.832, "note_off_time": 6.045}, {"pitch": 62, "velocity": 73, "note_on_time": 6.083, "note_off_time": 6.322}, {"pitch": 64, "velocity": 67, "note_on_time": 6.329, "note_off_time": 6.498}, {"pitch": 60, "velocity": 81, "note_on_time": 6.548, "note_off_time": 6.648}, {"pitch": 60, "velocity": 81, "note_on_time": 6.803, "note_off_time": 6.949}, {"pitch": 60, "velocity": 77, "note_on_time": 7.28, "note_off_time": 7.371}, {"pitch": 60, "velocity": 74, "note_on_time": 7.54, "note_off_time": 7.62}]</notes><guidance name="Guidance Mode">None</guidance><error name="Error value">0.1026718571428571</error></trial></trials></MIDI>