<MIDI midiNo="2022_12_08-10_30_45"><target_notes><notes name="Note List">[{"pitch": 42, "velocity": 80, "note_on_time": 0.004, "note_off_time": 0.362}, {"pitch": 42, "velocity": 80, "note_on_time": 0.363, "note_off_time": 0.723}, {"pitch": 42, "velocity": 80, "note_on_time": 0.723, "note_off_time": 1.081}, {"pitch": 42, "velocity": 80, "note_on_time": 1.082, "note_off_time": 1.439}, {"pitch": 42, "velocity": 80, "note_on_time": 1.44, "note_off_time": 1.798}, {"pitch": 62, "velocity": 80, "note_on_time": 1.439, "note_off_time": 2.158}, {"pitch": 42, "velocity": 80, "note_on_time": 1.798, "note_off_time": 2.158}, {"pitch": 42, "velocity": 80, "note_on_time": 2.159, "note_off_time": 2.515}, {"pitch": 42, "velocity": 80, "note_on_time": 2.515, "note_off_time": 2.873}, {"pitch": 62, "velocity": 80, "note_on_time": 2.873, "note_off_time": 3.232}, {"pitch": 42, "velocity": 80, "note_on_time": 2.873, "note_off_time": 3.232}, {"pitch": 62, "velocity": 80, "note_on_time": 3.232, "note_off_time": 3.59}, {"pitch": 42, "velocity": 80, "note_on_time": 3.233, "note_off_time": 3.59}, {"pitch": 42, "velocity": 80, "note_on_time": 3.59, "note_off_time": 3.949}, {"pitch": 62, "velocity": 80, "note_on_time": 3.59, "note_off_time": 4.306}, {"pitch": 42, "velocity": 80, "note_on_time": 3.949, "note_off_time": 4.306}, {"pitch": 42, "velocity": 80, "note_on_time": 4.307, "note_off_time": 4.665}, {"pitch": 64, "velocity": 80, "note_on_time": 4.306, "note_off_time": 5.024}, {"pitch": 42, "velocity": 80, "note_on_time": 4.665, "note_off_time": 5.024}, {"pitch": 42, "velocity": 80, "note_on_time": 5.025, "note_off_time": 5.383}, {"pitch": 42, "velocity": 80, "note_on_time": 5.384, "note_off_time": 5.743}, {"pitch": 42, "velocity": 80, "note_on_time": 5.743, "note_off_time": 6.098}, {"pitch": 64, "velocity": 80, "note_on_time": 5.743, "note_off_time": 6.458}, {"pitch": 42, "velocity": 80, "note_on_time": 6.099, "note_off_time": 6.459}, {"pitch": 60, "velocity": 80, "note_on_time": 6.458, "note_off_time": 6.819}, {"pitch": 42, "velocity": 80, "note_on_time": 6.459, "note_off_time": 6.82}, {"pitch": 64, "velocity": 80, "note_on_time": 6.819, "note_off_time": 7.179}, {"pitch": 42, "velocity": 80, "note_on_time": 6.82, "note_off_time": 7.179}, {"pitch": 60, "velocity": 80, "note_on_time": 7.179, "note_off_time": 7.535}, {"pitch": 42, "velocity": 80, "note_on_time": 7.18, "note_off_time": 7.535}, {"pitch": 65, "velocity": 80, "note_on_time": 7.535, "note_off_time": 7.894}, {"pitch": 42, "velocity": 80, "note_on_time": 7.536, "note_off_time": 7.894}, {"pitch": 67, "velocity": 80, "note_on_time": 7.894, "note_off_time": 8.253}, {"pitch": 42, "velocity": 80, "note_on_time": 7.894, "note_off_time": 8.253}, {"pitch": 67, "velocity": 80, "note_on_time": 8.253, "note_off_time": 8.611}, {"pitch": 42, "velocity": 80, "note_on_time": 8.253, "note_off_time": 8.611}, {"pitch": 64, "velocity": 80, "note_on_time": 8.611, "note_off_time": 8.971}, {"pitch": 42, "velocity": 80, "note_on_time": 8.611, "note_off_time": 8.971}, {"pitch": 67, "velocity": 80, "note_on_time": 8.971, "note_off_time": 9.332}, {"pitch": 42, "velocity": 80, "note_on_time": 8.971, "note_off_time": 9.332}, {"pitch": 62, "velocity": 80, "note_on_time": 9.332, "note_off_time": 9.691}, {"pitch": 42, "velocity": 80, "note_on_time": 9.333, "note_off_time": 9.691}, {"pitch": 62, "velocity": 80, "note_on_time": 9.691, "note_off_time": 10.038}, {"pitch": 42, "velocity": 80, "note_on_time": 9.692, "note_off_time": 10.039}, {"pitch": 60, "velocity": 80, "note_on_time": 10.038, "note_off_time": 10.398}, {"pitch": 42, "velocity": 80, "note_on_time": 10.039, "note_off_time": 10.399}, {"pitch": 67, "velocity": 80, "note_on_time": 10.399, "note_off_time": 10.756}, {"pitch": 42, "velocity": 80, "note_on_time": 10.399, "note_off_time": 10.757}, {"pitch": 67, "velocity": 80, "note_on_time": 10.756, "note_off_time": 11.114}, {"pitch": 42, "velocity": 80, "note_on_time": 10.757, "note_off_time": 11.115}, {"pitch": 64, "velocity": 80, "note_on_time": 11.114, "note_off_time": 11.473}, {"pitch": 42, "velocity": 80, "note_on_time": 11.115, "note_off_time": 11.473}, {"pitch": 42, "velocity": 80, "note_on_time": 11.474, "note_off_time": 11.833}, {"pitch": 64, "velocity": 80, "note_on_time": 11.833, "note_off_time": 12.19}, {"pitch": 42, "velocity": 80, "note_on_time": 11.834, "note_off_time": 12.19}, {"pitch": 64, "velocity": 80, "note_on_time": 12.19, "note_off_time": 12.549}, {"pitch": 42, "velocity": 80, "note_on_time": 12.19, "note_off_time": 12.549}, {"pitch": 64, "velocity": 80, "note_on_time": 12.549, "note_off_time": 12.908}, {"pitch": 42, "velocity": 80, "note_on_time": 12.549, "note_off_time": 12.908}]</notes><options name="Option List">((4, 4), [0.5, 0.25], 3, 8, &lt;NoteRangePerHand.C_TO_G: 6&gt;, &lt;NoteRangePerHand.ONE_NOTE: 2&gt;, False, True, False, '174')</options></target_notes><trials><trial trial_no="1" timestamp="2022_12_08-10_30_30"><notes name="Played Notes">[{"pitch": 62, "velocity": 42, "note_on_time": 1.461, "note_off_time": 2.066}, {"pitch": 62, "velocity": 52, "note_on_time": 2.88, "note_off_time": 3.039}, {"pitch": 62, "velocity": 51, "note_on_time": 3.232, "note_off_time": 3.363}, {"pitch": 62, "velocity": 60, "note_on_time": 3.62, "note_off_time": 4.083}, {"pitch": 64, "velocity": 68, "note_on_time": 4.324, "note_off_time": 4.852}, {"pitch": 64, "velocity": 70, "note_on_time": 5.758, "note_off_time": 6.235}, {"pitch": 60, "velocity": 49, "note_on_time": 6.458, "note_off_time": 6.799}, {"pitch": 64, "velocity": 70, "note_on_time": 6.799, "note_off_time": 7.158}, {"pitch": 60, "velocity": 62, "note_on_time": 7.154, "note_off_time": 7.486}, {"pitch": 65, "velocity": 62, "note_on_time": 7.497, "note_off_time": 7.879}, {"pitch": 67, "velocity": 69, "note_on_time": 7.875, "note_off_time": 7.996}, {"pitch": 67, "velocity": 71, "note_on_time": 8.199, "note_off_time": 8.578}, {"pitch": 64, "velocity": 62, "note_on_time": 8.587, "note_off_time": 8.94}, {"pitch": 67, "velocity": 56, "note_on_time": 8.957, "note_off_time": 9.296}, {"pitch": 62, "velocity": 57, "note_on_time": 9.326, "note_off_time": 9.42}, {"pitch": 62, "velocity": 48, "note_on_time": 9.696, "note_off_time": 10.038}, {"pitch": 60, "velocity": 64, "note_on_time": 10.025, "note_off_time": 10.401}, {"pitch": 67, "velocity": 72, "note_on_time": 10.392, "note_off_time": 10.52}, {"pitch": 67, "velocity": 73, "note_on_time": 10.755, "note_off_time": 11.099}, {"pitch": 64, "velocity": 66, "note_on_time": 11.096, "note_off_time": 11.489}, {"pitch": 64, "velocity": 72, "note_on_time": 11.786, "note_off_time": 11.917}, {"pitch": 64, "velocity": 71, "note_on_time": 12.175, "note_off_time": 12.299}, {"pitch": 64, "velocity": 79, "note_on_time": 12.539, "note_off_time": 12.708}]</notes><guidance name="Guidance Mode">None</guidance><error name="Error value">0.024031649999999793</error></trial><trial trial_no="2" timestamp="2022_12_08-10_30_53"><notes name="Played Notes">[{"pitch": 62, "velocity": 59, "note_on_time": 1.437, "note_off_time": 1.955}, {"pitch": 62, "velocity": 57, "note_on_time": 2.894, "note_off_time": 3.051}, {"pitch": 62, "velocity": 60, "note_on_time": 3.253, "note_off_time": 3.375}, {"pitch": 62, "velocity": 68, "note_on_time": 3.628, "note_off_time": 4.087}, {"pitch": 64, "velocity": 67, "note_on_time": 4.32, "note_off_time": 4.879}, {"pitch": 64, "velocity": 70, "note_on_time": 5.724, "note_off_time": 6.206}, {"pitch": 60, "velocity": 50, "note_on_time": 6.493, "note_off_time": 6.805}, {"pitch": 64, "velocity": 59, "note_on_time": 6.805, "note_off_time": 7.172}, {"pitch": 60, "velocity": 71, "note_on_time": 7.16, "note_off_time": 7.523}, {"pitch": 65, "velocity": 57, "note_on_time": 7.538, "note_off_time": 7.888}, {"pitch": 67, "velocity": 58, "note_on_time": 7.874, "note_off_time": 7.975}, {"pitch": 67, "velocity": 65, "note_on_time": 8.247, "note_off_time": 8.592}, {"pitch": 64, "velocity": 59, "note_on_time": 8.604, "note_off_time": 8.965}, {"pitch": 67, "velocity": 55, "note_on_time": 8.977, "note_off_time": 9.285}, {"pitch": 62, "velocity": 51, "note_on_time": 9.311, "note_off_time": 9.418}, {"pitch": 62, "velocity": 56, "note_on_time": 9.692, "note_off_time": 10.025}, {"pitch": 60, "velocity": 62, "note_on_time": 10.026, "note_off_time": 10.404}, {"pitch": 67, "velocity": 69, "note_on_time": 10.393, "note_off_time": 10.519}, {"pitch": 67, "velocity": 70, "note_on_time": 10.773, "note_off_time": 11.1}, {"pitch": 64, "velocity": 67, "note_on_time": 11.096, "note_off_time": 11.324}, {"pitch": 64, "velocity": 64, "note_on_time": 11.81, "note_off_time": 11.934}, {"pitch": 64, "velocity": 71, "note_on_time": 12.187, "note_off_time": 12.309}, {"pitch": 64, "velocity": 76, "note_on_time": 12.539, "note_off_time": 12.694}]</notes><guidance name="Guidance Mode">None</guidance><error name="Error value">0.029131649999999943</error></trial><trial trial_no="3" timestamp="2022_12_08-10_31_11"><notes name="Played Notes">[{"pitch": 62, "velocity": 66, "note_on_time": 1.417, "note_off_time": 2.022}, {"pitch": 62, "velocity": 55, "note_on_time": 2.845, "note_off_time": 3.004}, {"pitch": 62, "velocity": 56, "note_on_time": 3.236, "note_off_time": 3.35}, {"pitch": 62, "velocity": 73, "note_on_time": 3.594, "note_off_time": 4.09}, {"pitch": 64, "velocity": 76, "note_on_time": 4.313, "note_off_time": 4.88}, {"pitch": 64, "velocity": 64, "note_on_time": 5.736, "note_off_time": 6.269}, {"pitch": 60, "velocity": 52, "note_on_time": 6.453, "note_off_time": 6.799}, {"pitch": 64, "velocity": 63, "note_on_time": 6.799, "note_off_time": 7.161}, {"pitch": 60, "velocity": 66, "note_on_time": 7.165, "note_off_time": 7.501}, {"pitch": 65, "velocity": 56, "note_on_time": 7.521, "note_off_time": 7.896}, {"pitch": 67, "velocity": 77, "note_on_time": 7.87, "note_off_time": 7.996}, {"pitch": 67, "velocity": 77, "note_on_time": 8.238, "note_off_time": 8.57}, {"pitch": 64, "velocity": 66, "note_on_time": 8.576, "note_off_time": 8.94}, {"pitch": 67, "velocity": 72, "note_on_time": 8.95, "note_off_time": 9.259}, {"pitch": 62, "velocity": 58, "note_on_time": 9.322, "note_off_time": 9.415}, {"pitch": 62, "velocity": 57, "note_on_time": 9.688, "note_off_time": 10.013}, {"pitch": 60, "velocity": 49, "note_on_time": 10.029, "note_off_time": 10.362}, {"pitch": 67, "velocity": 76, "note_on_time": 10.37, "note_off_time": 10.511}, {"pitch": 67, "velocity": 74, "note_on_time": 10.743, "note_off_time": 11.097}, {"pitch": 64, "velocity": 64, "note_on_time": 11.078, "note_off_time": 11.45}, {"pitch": 64, "velocity": 61, "note_on_time": 11.845, "note_off_time": 11.979}, {"pitch": 64, "velocity": 60, "note_on_time": 12.186, "note_off_time": 12.317}, {"pitch": 64, "velocity": 81, "note_on_time": 12.561, "note_off_time": 12.694}]</notes><guidance name="Guidance Mode">None</guidance><error name="Error value">0.025531650000000093</error></trial><trial trial_no="4" timestamp="2022_12_08-10_31_33"><notes name="Played Notes">[{"pitch": 62, "velocity": 60, "note_on_time": 1.415, "note_off_time": 1.999}, {"pitch": 62, "velocity": 59, "note_on_time": 2.895, "note_off_time": 3.018}, {"pitch": 62, "velocity": 61, "note_on_time": 3.248, "note_off_time": 3.372}, {"pitch": 62, "velocity": 68, "note_on_time": 3.615, "note_off_time": 4.123}, {"pitch": 64, "velocity": 76, "note_on_time": 4.3, "note_off_time": 5.146}, {"pitch": 64, "velocity": 66, "note_on_time": 5.717, "note_off_time": 6.055}, {"pitch": 60, "velocity": 57, "note_on_time": 6.053, "note_off_time": 6.399}, {"pitch": 64, "velocity": 50, "note_on_time": 6.426, "note_off_time": 6.672}, {"pitch": 64, "velocity": 43, "note_on_time": 6.806, "note_off_time": 6.878}, {"pitch": 64, "velocity": 76, "note_on_time": 7.117, "note_off_time": 7.389}, {"pitch": 65, "velocity": 24, "note_on_time": 7.53, "note_off_time": 7.769}, {"pitch": 67, "velocity": 66, "note_on_time": 7.822, "note_off_time": 7.96}, {"pitch": 67, "velocity": 71, "note_on_time": 8.196, "note_off_time": 8.493}, {"pitch": 64, "velocity": 64, "note_on_time": 8.535, "note_off_time": 8.903}, {"pitch": 67, "velocity": 66, "note_on_time": 8.917, "note_off_time": 9.212}, {"pitch": 62, "velocity": 70, "note_on_time": 9.263, "note_off_time": 9.394}, {"pitch": 62, "velocity": 67, "note_on_time": 9.648, "note_off_time": 9.985}, {"pitch": 60, "velocity": 59, "note_on_time": 10.002, "note_off_time": 10.362}, {"pitch": 67, "velocity": 69, "note_on_time": 10.352, "note_off_time": 10.492}, {"pitch": 67, "velocity": 67, "note_on_time": 10.749, "note_off_time": 11.098}, {"pitch": 64, "velocity": 66, "note_on_time": 11.076, "note_off_time": 11.368}, {"pitch": 64, "velocity": 62, "note_on_time": 11.804, "note_off_time": 11.93}, {"pitch": 64, "velocity": 64, "note_on_time": 12.178, "note_off_time": 12.297}, {"pitch": 64, "velocity": 78, "note_on_time": 12.525, "note_off_time": 12.689}]</notes><guidance name="Guidance Mode">None</guidance><error name="Error value">0.52851435</error></trial><trial trial_no="5" timestamp="2022_12_08-10_31_55"><notes name="Played Notes">[{"pitch": 62, "velocity": 54, "note_on_time": 1.432, "note_off_time": 2.03}, {"pitch": 62, "velocity": 60, "note_on_time": 2.869, "note_off_time": 3.006}, {"pitch": 62, "velocity": 61, "note_on_time": 3.259, "note_off_time": 3.372}, {"pitch": 62, "velocity": 61, "note_on_time": 3.603, "note_off_time": 4.086}, {"pitch": 64, "velocity": 70, "note_on_time": 4.306, "note_off_time": 4.914}, {"pitch": 64, "velocity": 63, "note_on_time": 5.76, "note_off_time": 6.429}, {"pitch": 60, "velocity": 55, "note_on_time": 6.461, "note_off_time": 6.799}, {"pitch": 64, "velocity": 73, "note_on_time": 6.809, "note_off_time": 7.194}, {"pitch": 60, "velocity": 53, "note_on_time": 7.172, "note_off_time": 7.5}, {"pitch": 65, "velocity": 67, "note_on_time": 7.488, "note_off_time": 7.845}, {"pitch": 67, "velocity": 54, "note_on_time": 7.863, "note_off_time": 7.981}, {"pitch": 67, "velocity": 69, "note_on_time": 8.201, "note_off_time": 8.521}, {"pitch": 64, "velocity": 55, "note_on_time": 8.543, "note_off_time": 8.877}, {"pitch": 67, "velocity": 58, "note_on_time": 8.889, "note_off_time": 9.207}, {"pitch": 62, "velocity": 50, "note_on_time": 9.252, "note_off_time": 9.341}, {"pitch": 62, "velocity": 60, "note_on_time": 9.604, "note_off_time": 9.98}, {"pitch": 60, "velocity": 66, "note_on_time": 9.988, "note_off_time": 10.331}, {"pitch": 67, "velocity": 70, "note_on_time": 10.324, "note_off_time": 10.487}, {"pitch": 67, "velocity": 74, "note_on_time": 10.704, "note_off_time": 10.987}, {"pitch": 64, "velocity": 57, "note_on_time": 11.006, "note_off_time": 11.268}, {"pitch": 64, "velocity": 64, "note_on_time": 11.761, "note_off_time": 11.897}, {"pitch": 64, "velocity": 73, "note_on_time": 12.12, "note_off_time": 12.252}, {"pitch": 64, "velocity": 74, "note_on_time": 12.481, "note_off_time": 12.742}]</notes><guidance name="Guidance Mode">None</guidance><error name="Error value">0.027064349999999914</error></trial></trials></MIDI>