<MIDI midiNo="2022_11_10-11_05_26"><target_notes><notes name="Note List">[{"pitch": 42, "velocity": 80, "note_on_time": 0.004, "note_off_time": 0.575}, {"pitch": 42, "velocity": 80, "note_on_time": 0.575, "note_off_time": 1.135}, {"pitch": 42, "velocity": 80, "note_on_time": 1.136, "note_off_time": 1.697}, {"pitch": 42, "velocity": 80, "note_on_time": 1.697, "note_off_time": 2.257}, {"pitch": 60, "velocity": 80, "note_on_time": 2.257, "note_off_time": 2.817}, {"pitch": 42, "velocity": 80, "note_on_time": 2.257, "note_off_time": 2.817}, {"pitch": 60, "velocity": 80, "note_on_time": 2.817, "note_off_time": 3.377}, {"pitch": 42, "velocity": 80, "note_on_time": 2.817, "note_off_time": 3.378}, {"pitch": 60, "velocity": 80, "note_on_time": 3.377, "note_off_time": 3.938}, {"pitch": 42, "velocity": 80, "note_on_time": 3.378, "note_off_time": 3.938}, {"pitch": 62, "velocity": 80, "note_on_time": 3.938, "note_off_time": 4.498}, {"pitch": 42, "velocity": 80, "note_on_time": 3.939, "note_off_time": 4.499}, {"pitch": 62, "velocity": 80, "note_on_time": 4.498, "note_off_time": 5.058}, {"pitch": 42, "velocity": 80, "note_on_time": 4.499, "note_off_time": 5.058}, {"pitch": 62, "velocity": 80, "note_on_time": 5.058, "note_off_time": 5.63}, {"pitch": 42, "velocity": 80, "note_on_time": 5.059, "note_off_time": 5.63}, {"pitch": 60, "velocity": 80, "note_on_time": 5.63, "note_off_time": 6.193}, {"pitch": 42, "velocity": 80, "note_on_time": 5.63, "note_off_time": 6.193}, {"pitch": 62, "velocity": 80, "note_on_time": 6.193, "note_off_time": 6.754}, {"pitch": 42, "velocity": 80, "note_on_time": 6.193, "note_off_time": 6.754}, {"pitch": 64, "velocity": 80, "note_on_time": 6.754, "note_off_time": 7.315}, {"pitch": 42, "velocity": 80, "note_on_time": 6.755, "note_off_time": 7.315}, {"pitch": 62, "velocity": 80, "note_on_time": 7.315, "note_off_time": 7.873}, {"pitch": 42, "velocity": 80, "note_on_time": 7.315, "note_off_time": 7.873}, {"pitch": 62, "velocity": 80, "note_on_time": 7.873, "note_off_time": 8.434}, {"pitch": 42, "velocity": 80, "note_on_time": 7.874, "note_off_time": 8.434}, {"pitch": 60, "velocity": 80, "note_on_time": 8.434, "note_off_time": 8.993}, {"pitch": 42, "velocity": 80, "note_on_time": 8.435, "note_off_time": 8.993}, {"pitch": 60, "velocity": 80, "note_on_time": 8.993, "note_off_time": 9.551}, {"pitch": 42, "velocity": 80, "note_on_time": 8.993, "note_off_time": 9.551}, {"pitch": 42, "velocity": 80, "note_on_time": 9.551, "note_off_time": 10.113}, {"pitch": 42, "velocity": 80, "note_on_time": 10.114, "note_off_time": 10.674}, {"pitch": 42, "velocity": 80, "note_on_time": 10.674, "note_off_time": 11.235}, {"pitch": 62, "velocity": 80, "note_on_time": 11.235, "note_off_time": 11.796}, {"pitch": 42, "velocity": 80, "note_on_time": 11.236, "note_off_time": 11.796}, {"pitch": 64, "velocity": 80, "note_on_time": 11.796, "note_off_time": 12.357}, {"pitch": 42, "velocity": 80, "note_on_time": 11.796, "note_off_time": 12.357}, {"pitch": 64, "velocity": 80, "note_on_time": 12.357, "note_off_time": 12.917}, {"pitch": 42, "velocity": 80, "note_on_time": 12.357, "note_off_time": 12.917}, {"pitch": 62, "velocity": 80, "note_on_time": 12.917, "note_off_time": 13.478}, {"pitch": 42, "velocity": 80, "note_on_time": 12.917, "note_off_time": 13.478}, {"pitch": 42, "velocity": 80, "note_on_time": 13.478, "note_off_time": 14.038}, {"pitch": 64, "velocity": 80, "note_on_time": 13.478, "note_off_time": 14.599}, {"pitch": 42, "velocity": 80, "note_on_time": 14.038, "note_off_time": 14.599}, {"pitch": 42, "velocity": 80, "note_on_time": 14.6, "note_off_time": 15.161}, {"pitch": 42, "velocity": 80, "note_on_time": 15.161, "note_off_time": 15.725}, {"pitch": 60, "velocity": 80, "note_on_time": 15.725, "note_off_time": 16.287}, {"pitch": 42, "velocity": 80, "note_on_time": 15.725, "note_off_time": 16.288}, {"pitch": 62, "velocity": 80, "note_on_time": 16.287, "note_off_time": 16.847}, {"pitch": 42, "velocity": 80, "note_on_time": 16.288, "note_off_time": 16.847}, {"pitch": 60, "velocity": 80, "note_on_time": 16.847, "note_off_time": 17.406}, {"pitch": 42, "velocity": 80, "note_on_time": 16.848, "note_off_time": 17.406}, {"pitch": 60, "velocity": 80, "note_on_time": 17.406, "note_off_time": 17.969}, {"pitch": 42, "velocity": 80, "note_on_time": 17.407, "note_off_time": 17.969}, {"pitch": 42, "velocity": 80, "note_on_time": 17.97, "note_off_time": 18.527}, {"pitch": 60, "velocity": 80, "note_on_time": 18.527, "note_off_time": 19.088}, {"pitch": 42, "velocity": 80, "note_on_time": 18.527, "note_off_time": 19.088}, {"pitch": 60, "velocity": 80, "note_on_time": 19.088, "note_off_time": 19.645}, {"pitch": 42, "velocity": 80, "note_on_time": 19.088, "note_off_time": 19.645}, {"pitch": 60, "velocity": 80, "note_on_time": 19.645, "note_off_time": 20.204}, {"pitch": 42, "velocity": 80, "note_on_time": 19.646, "note_off_time": 20.204}]</notes><options name="Option List">((4, 4), [0.5, 0.25], 3, 8, &lt;NoteRangePerHand.THREE_NOTES: 4&gt;, &lt;NoteRangePerHand.ONE_NOTE: 2&gt;, False, True, False, 108)</options></target_notes><trials><trial trial_no="1" timestamp="2022_11_10-11_05_04"><notes name="Played Notes">[{"pitch": 60, "velocity": 79, "note_on_time": 2.283, "note_off_time": 2.447}, {"pitch": 60, "velocity": 71, "note_on_time": 2.797, "note_off_time": 2.988}, {"pitch": 60, "velocity": 77, "note_on_time": 3.358, "note_off_time": 3.529}, {"pitch": 62, "velocity": 74, "note_on_time": 3.88, "note_off_time": 4.036}, {"pitch": 62, "velocity": 79, "note_on_time": 4.527, "note_off_time": 4.65}, {"pitch": 62, "velocity": 77, "note_on_time": 5.032, "note_off_time": 5.203}, {"pitch": 60, "velocity": 76, "note_on_time": 5.778, "note_off_time": 5.958}, {"pitch": 62, "velocity": 77, "note_on_time": 6.29, "note_off_time": 6.508}, {"pitch": 64, "velocity": 78, "note_on_time": 6.821, "note_off_time": 7.039}, {"pitch": 62, "velocity": 74, "note_on_time": 7.445, "note_off_time": 7.593}, {"pitch": 62, "velocity": 70, "note_on_time": 7.943, "note_off_time": 8.122}, {"pitch": 60, "velocity": 88, "note_on_time": 8.44, "note_off_time": 8.591}, {"pitch": 60, "velocity": 84, "note_on_time": 8.928, "note_off_time": 9.096}, {"pitch": 62, "velocity": 78, "note_on_time": 11.179, "note_off_time": 11.389}, {"pitch": 64, "velocity": 73, "note_on_time": 11.695, "note_off_time": 11.877}, {"pitch": 64, "velocity": 66, "note_on_time": 12.27, "note_off_time": 12.469}, {"pitch": 62, "velocity": 76, "note_on_time": 12.805, "note_off_time": 12.986}, {"pitch": 64, "velocity": 71, "note_on_time": 13.361, "note_off_time": 13.522}, {"pitch": 60, "velocity": 84, "note_on_time": 15.092, "note_off_time": 15.29}, {"pitch": 62, "velocity": 69, "note_on_time": 15.644, "note_off_time": 15.849}, {"pitch": 60, "velocity": 88, "note_on_time": 16.167, "note_off_time": 16.332}, {"pitch": 60, "velocity": 80, "note_on_time": 16.71, "note_off_time": 16.872}, {"pitch": 60, "velocity": 84, "note_on_time": 17.892, "note_off_time": 18.072}, {"pitch": 60, "velocity": 86, "note_on_time": 18.416, "note_off_time": 18.562}, {"pitch": 60, "velocity": 88, "note_on_time": 18.943, "note_off_time": 19.109}]</notes><guidance name="Guidance Mode">None</guidance><error name="Error value">0.06876749999999957</error></trial><trial trial_no="2" timestamp="2022_11_10-11_05_35"><notes name="Played Notes">[{"pitch": 60, "velocity": 83, "note_on_time": 2.258, "note_off_time": 2.468}, {"pitch": 60, "velocity": 87, "note_on_time": 2.826, "note_off_time": 2.991}, {"pitch": 60, "velocity": 84, "note_on_time": 3.363, "note_off_time": 3.556}, {"pitch": 62, "velocity": 78, "note_on_time": 3.908, "note_off_time": 4.095}, {"pitch": 62, "velocity": 70, "note_on_time": 4.463, "note_off_time": 4.649}, {"pitch": 62, "velocity": 77, "note_on_time": 4.992, "note_off_time": 5.173}, {"pitch": 60, "velocity": 81, "note_on_time": 5.576, "note_off_time": 5.78}, {"pitch": 62, "velocity": 74, "note_on_time": 6.143, "note_off_time": 6.336}, {"pitch": 64, "velocity": 79, "note_on_time": 6.704, "note_off_time": 6.892}, {"pitch": 62, "velocity": 84, "note_on_time": 7.33, "note_off_time": 7.529}, {"pitch": 64, "velocity": 48, "note_on_time": 7.893, "note_off_time": 7.958}, {"pitch": 60, "velocity": 68, "note_on_time": 8.687, "note_off_time": 8.852}, {"pitch": 60, "velocity": 81, "note_on_time": 9.235, "note_off_time": 9.42}, {"pitch": 62, "velocity": 77, "note_on_time": 11.783, "note_off_time": 11.981}, {"pitch": 64, "velocity": 75, "note_on_time": 12.307, "note_off_time": 12.527}, {"pitch": 62, "velocity": 67, "note_on_time": 12.877, "note_off_time": 13.093}, {"pitch": 62, "velocity": 26, "note_on_time": 14.232, "note_off_time": 14.289}, {"pitch": 60, "velocity": 86, "note_on_time": 16.255, "note_off_time": 16.448}, {"pitch": 62, "velocity": 72, "note_on_time": 16.792, "note_off_time": 16.969}, {"pitch": 60, "velocity": 80, "note_on_time": 17.328, "note_off_time": 17.521}, {"pitch": 60, "velocity": 76, "note_on_time": 17.879, "note_off_time": 18.046}, {"pitch": 60, "velocity": 75, "note_on_time": 18.98, "note_off_time": 19.155}, {"pitch": 60, "velocity": 84, "note_on_time": 19.521, "note_off_time": 19.684}]</notes><guidance name="Guidance Mode">None</guidance><error name="Error value">0.3337777272727265</error></trial><trial trial_no="3" timestamp="2022_11_10-11_06_10"><notes name="Played Notes">[{"pitch": 60, "velocity": 84, "note_on_time": 2.244, "note_off_time": 2.41}, {"pitch": 60, "velocity": 85, "note_on_time": 2.799, "note_off_time": 2.95}, {"pitch": 60, "velocity": 81, "note_on_time": 3.321, "note_off_time": 3.481}, {"pitch": 62, "velocity": 78, "note_on_time": 3.864, "note_off_time": 4.013}, {"pitch": 62, "velocity": 76, "note_on_time": 4.416, "note_off_time": 4.576}, {"pitch": 62, "velocity": 74, "note_on_time": 4.965, "note_off_time": 5.116}, {"pitch": 60, "velocity": 82, "note_on_time": 5.525, "note_off_time": 5.721}, {"pitch": 62, "velocity": 75, "note_on_time": 6.069, "note_off_time": 6.248}, {"pitch": 64, "velocity": 78, "note_on_time": 6.624, "note_off_time": 6.824}, {"pitch": 62, "velocity": 78, "note_on_time": 7.217, "note_off_time": 7.389}, {"pitch": 62, "velocity": 73, "note_on_time": 7.773, "note_off_time": 7.941}, {"pitch": 60, "velocity": 82, "note_on_time": 8.326, "note_off_time": 8.489}, {"pitch": 60, "velocity": 82, "note_on_time": 8.883, "note_off_time": 9.035}, {"pitch": 62, "velocity": 76, "note_on_time": 10.674, "note_off_time": 10.848}, {"pitch": 64, "velocity": 73, "note_on_time": 11.149, "note_off_time": 11.348}, {"pitch": 62, "velocity": 77, "note_on_time": 11.725, "note_off_time": 11.922}, {"pitch": 60, "velocity": 83, "note_on_time": 12.672, "note_off_time": 12.864}, {"pitch": 62, "velocity": 70, "note_on_time": 14.55, "note_off_time": 14.728}, {"pitch": 60, "velocity": 81, "note_on_time": 16.228, "note_off_time": 16.376}, {"pitch": 62, "velocity": 74, "note_on_time": 16.776, "note_off_time": 16.96}, {"pitch": 60, "velocity": 72, "note_on_time": 17.349, "note_off_time": 17.502}, {"pitch": 60, "velocity": 85, "note_on_time": 17.89, "note_off_time": 18.051}, {"pitch": 60, "velocity": 84, "note_on_time": 18.966, "note_off_time": 19.133}, {"pitch": 60, "velocity": 82, "note_on_time": 19.543, "note_off_time": 19.704}]</notes><guidance name="Guidance Mode">None</guidance><error name="Error value">0.34350977272727246</error></trial><trial trial_no="4" timestamp="2022_11_10-11_06_43"><notes name="Played Notes">[{"pitch": 60, "velocity": 82, "note_on_time": 2.239, "note_off_time": 2.407}, {"pitch": 60, "velocity": 84, "note_on_time": 2.788, "note_off_time": 2.94}, {"pitch": 60, "velocity": 81, "note_on_time": 3.327, "note_off_time": 3.499}, {"pitch": 62, "velocity": 75, "note_on_time": 3.89, "note_off_time": 4.057}, {"pitch": 62, "velocity": 74, "note_on_time": 4.452, "note_off_time": 4.614}, {"pitch": 62, "velocity": 71, "note_on_time": 5.003, "note_off_time": 5.165}, {"pitch": 60, "velocity": 80, "note_on_time": 5.575, "note_off_time": 5.752}, {"pitch": 62, "velocity": 79, "note_on_time": 6.115, "note_off_time": 6.286}, {"pitch": 64, "velocity": 74, "note_on_time": 6.673, "note_off_time": 6.879}, {"pitch": 62, "velocity": 77, "note_on_time": 7.272, "note_off_time": 7.441}, {"pitch": 62, "velocity": 83, "note_on_time": 7.802, "note_off_time": 7.989}, {"pitch": 60, "velocity": 78, "note_on_time": 8.345, "note_off_time": 8.518}, {"pitch": 60, "velocity": 84, "note_on_time": 8.882, "note_off_time": 9.027}, {"pitch": 62, "velocity": 74, "note_on_time": 10.591, "note_off_time": 10.8}, {"pitch": 64, "velocity": 73, "note_on_time": 11.114, "note_off_time": 11.284}, {"pitch": 64, "velocity": 71, "note_on_time": 11.696, "note_off_time": 11.864}, {"pitch": 62, "velocity": 75, "note_on_time": 12.235, "note_off_time": 12.446}, {"pitch": 64, "velocity": 74, "note_on_time": 12.789, "note_off_time": 12.952}, {"pitch": 60, "velocity": 79, "note_on_time": 14.583, "note_off_time": 14.753}, {"pitch": 62, "velocity": 72, "note_on_time": 15.108, "note_off_time": 15.29}, {"pitch": 60, "velocity": 83, "note_on_time": 15.624, "note_off_time": 15.8}, {"pitch": 60, "velocity": 79, "note_on_time": 16.158, "note_off_time": 16.326}, {"pitch": 60, "velocity": 82, "note_on_time": 17.242, "note_off_time": 17.388}, {"pitch": 60, "velocity": 81, "note_on_time": 17.82, "note_off_time": 17.968}, {"pitch": 60, "velocity": 81, "note_on_time": 18.403, "note_off_time": 18.578}]</notes><guidance name="Guidance Mode">None</guidance><error name="Error value">0.06196931818181772</error></trial><trial trial_no="5" timestamp="2022_11_10-11_07_17"><notes name="Played Notes">[{"pitch": 60, "velocity": 87, "note_on_time": 2.226, "note_off_time": 2.377}, {"pitch": 60, "velocity": 88, "note_on_time": 2.854, "note_off_time": 2.976}, {"pitch": 60, "velocity": 92, "note_on_time": 3.349, "note_off_time": 3.507}, {"pitch": 62, "velocity": 87, "note_on_time": 3.904, "note_off_time": 4.057}, {"pitch": 62, "velocity": 88, "note_on_time": 4.494, "note_off_time": 4.666}, {"pitch": 62, "velocity": 76, "note_on_time": 5.079, "note_off_time": 5.219}, {"pitch": 60, "velocity": 79, "note_on_time": 5.663, "note_off_time": 5.831}, {"pitch": 62, "velocity": 81, "note_on_time": 6.226, "note_off_time": 6.38}, {"pitch": 64, "velocity": 77, "note_on_time": 6.96, "note_off_time": 7.12}, {"pitch": 62, "velocity": 77, "note_on_time": 7.536, "note_off_time": 7.703}, {"pitch": 62, "velocity": 68, "note_on_time": 8.172, "note_off_time": 8.331}, {"pitch": 60, "velocity": 81, "note_on_time": 8.884, "note_off_time": 9.031}, {"pitch": 60, "velocity": 85, "note_on_time": 9.419, "note_off_time": 9.568}, {"pitch": 62, "velocity": 69, "note_on_time": 11.327, "note_off_time": 11.457}, {"pitch": 64, "velocity": 79, "note_on_time": 11.804, "note_off_time": 11.981}, {"pitch": 64, "velocity": 79, "note_on_time": 12.355, "note_off_time": 12.535}, {"pitch": 62, "velocity": 39, "note_on_time": 13.028, "note_off_time": 13.156}, {"pitch": 64, "velocity": 78, "note_on_time": 13.752, "note_off_time": 13.947}, {"pitch": 60, "velocity": 85, "note_on_time": 15.639, "note_off_time": 15.813}, {"pitch": 62, "velocity": 77, "note_on_time": 16.194, "note_off_time": 16.366}, {"pitch": 60, "velocity": 82, "note_on_time": 16.727, "note_off_time": 16.882}, {"pitch": 60, "velocity": 85, "note_on_time": 17.275, "note_off_time": 17.418}, {"pitch": 60, "velocity": 73, "note_on_time": 18.968, "note_off_time": 19.082}, {"pitch": 60, "velocity": 85, "note_on_time": 19.466, "note_off_time": 19.62}]</notes><guidance name="Guidance Mode">None</guidance><error name="Error value">0.15235840909090878</error></trial></trials></MIDI>