<MIDI midiNo="2022_09_12-11_09_47"><target_notes><notes name="Note List">[{"pitch": 42, "velocity": 80, "note_on_time": 0.003, "note_off_time": 0.608}, {"pitch": 42, "velocity": 80, "note_on_time": 0.608, "note_off_time": 1.215}, {"pitch": 42, "velocity": 80, "note_on_time": 1.215, "note_off_time": 1.82}, {"pitch": 42, "velocity": 80, "note_on_time": 1.82, "note_off_time": 2.424}, {"pitch": 62, "velocity": 80, "note_on_time": 2.424, "note_off_time": 3.029}, {"pitch": 42, "velocity": 80, "note_on_time": 2.424, "note_off_time": 3.029}, {"pitch": 42, "velocity": 80, "note_on_time": 3.029, "note_off_time": 3.635}, {"pitch": 64, "velocity": 80, "note_on_time": 3.029, "note_off_time": 4.239}, {"pitch": 42, "velocity": 80, "note_on_time": 3.635, "note_off_time": 4.239}, {"pitch": 60, "velocity": 80, "note_on_time": 4.239, "note_off_time": 4.844}, {"pitch": 42, "velocity": 80, "note_on_time": 4.239, "note_off_time": 4.844}, {"pitch": 42, "velocity": 80, "note_on_time": 4.844, "note_off_time": 5.447}, {"pitch": 62, "velocity": 80, "note_on_time": 4.844, "note_off_time": 6.053}, {"pitch": 42, "velocity": 80, "note_on_time": 5.447, "note_off_time": 6.053}, {"pitch": 42, "velocity": 80, "note_on_time": 6.053, "note_off_time": 6.661}, {"pitch": 42, "velocity": 80, "note_on_time": 6.661, "note_off_time": 7.267}, {"pitch": 60, "velocity": 80, "note_on_time": 7.267, "note_off_time": 7.872}, {"pitch": 42, "velocity": 80, "note_on_time": 7.267, "note_off_time": 7.872}, {"pitch": 60, "velocity": 80, "note_on_time": 7.872, "note_off_time": 8.477}, {"pitch": 42, "velocity": 80, "note_on_time": 7.872, "note_off_time": 8.477}, {"pitch": 60, "velocity": 80, "note_on_time": 8.477, "note_off_time": 9.083}, {"pitch": 42, "velocity": 80, "note_on_time": 8.477, "note_off_time": 9.083}, {"pitch": 60, "velocity": 80, "note_on_time": 9.083, "note_off_time": 9.685}, {"pitch": 42, "velocity": 80, "note_on_time": 9.083, "note_off_time": 9.685}, {"pitch": 62, "velocity": 80, "note_on_time": 9.685, "note_off_time": 10.291}, {"pitch": 42, "velocity": 80, "note_on_time": 9.685, "note_off_time": 10.291}, {"pitch": 62, "velocity": 80, "note_on_time": 10.291, "note_off_time": 10.899}, {"pitch": 42, "velocity": 80, "note_on_time": 10.291, "note_off_time": 10.899}, {"pitch": 42, "velocity": 80, "note_on_time": 10.899, "note_off_time": 11.505}, {"pitch": 62, "velocity": 80, "note_on_time": 11.505, "note_off_time": 12.109}, {"pitch": 42, "velocity": 80, "note_on_time": 11.505, "note_off_time": 12.109}, {"pitch": 42, "velocity": 80, "note_on_time": 12.109, "note_off_time": 12.717}, {"pitch": 64, "velocity": 80, "note_on_time": 12.109, "note_off_time": 13.326}, {"pitch": 42, "velocity": 80, "note_on_time": 12.717, "note_off_time": 13.326}, {"pitch": 42, "velocity": 80, "note_on_time": 13.326, "note_off_time": 13.934}, {"pitch": 42, "velocity": 80, "note_on_time": 13.934, "note_off_time": 14.542}, {"pitch": 60, "velocity": 80, "note_on_time": 14.542, "note_off_time": 15.149}, {"pitch": 42, "velocity": 80, "note_on_time": 14.542, "note_off_time": 15.149}, {"pitch": 62, "velocity": 80, "note_on_time": 15.149, "note_off_time": 15.756}, {"pitch": 42, "velocity": 80, "note_on_time": 15.149, "note_off_time": 15.756}, {"pitch": 62, "velocity": 80, "note_on_time": 15.756, "note_off_time": 16.362}, {"pitch": 42, "velocity": 80, "note_on_time": 15.756, "note_off_time": 16.362}, {"pitch": 60, "velocity": 80, "note_on_time": 16.362, "note_off_time": 16.969}, {"pitch": 42, "velocity": 80, "note_on_time": 16.362, "note_off_time": 16.969}, {"pitch": 62, "velocity": 80, "note_on_time": 16.969, "note_off_time": 17.575}, {"pitch": 42, "velocity": 80, "note_on_time": 16.969, "note_off_time": 17.575}, {"pitch": 60, "velocity": 80, "note_on_time": 17.575, "note_off_time": 18.18}, {"pitch": 42, "velocity": 80, "note_on_time": 17.575, "note_off_time": 18.18}, {"pitch": 64, "velocity": 80, "note_on_time": 18.18, "note_off_time": 18.787}, {"pitch": 42, "velocity": 80, "note_on_time": 18.18, "note_off_time": 18.787}, {"pitch": 60, "velocity": 80, "note_on_time": 18.787, "note_off_time": 19.393}, {"pitch": 42, "velocity": 80, "note_on_time": 18.787, "note_off_time": 19.393}, {"pitch": 42, "velocity": 80, "note_on_time": 19.393, "note_off_time": 20.003}, {"pitch": 60, "velocity": 80, "note_on_time": 20.003, "note_off_time": 20.612}, {"pitch": 42, "velocity": 80, "note_on_time": 20.003, "note_off_time": 20.612}, {"pitch": 60, "velocity": 80, "note_on_time": 20.612, "note_off_time": 21.221}, {"pitch": 42, "velocity": 80, "note_on_time": 20.612, "note_off_time": 21.221}, {"pitch": 60, "velocity": 80, "note_on_time": 21.221, "note_off_time": 21.828}, {"pitch": 42, "velocity": 80, "note_on_time": 21.221, "note_off_time": 21.828}]</notes><options name="Option List">((4, 4), [0.5, 0.25], 3, 8, &lt;NoteRangePerHand.THREE_NOTES: 4&gt;, &lt;NoteRangePerHand.ONE_NOTE: 2&gt;, False, True, True, '100')</options></target_notes><trials /></MIDI>