<MIDI midiNo="2022_10_26-13_52_18"><target_notes><notes name="Note List">[{"pitch": 42, "velocity": 80, "note_on_time": 0.004, "note_off_time": 0.607}, {"pitch": 42, "velocity": 80, "note_on_time": 0.607, "note_off_time": 1.216}, {"pitch": 42, "velocity": 80, "note_on_time": 1.216, "note_off_time": 1.823}, {"pitch": 42, "velocity": 80, "note_on_time": 1.823, "note_off_time": 2.43}, {"pitch": 60, "velocity": 80, "note_on_time": 2.43, "note_off_time": 3.038}, {"pitch": 42, "velocity": 80, "note_on_time": 2.43, "note_off_time": 3.039}, {"pitch": 60, "velocity": 80, "note_on_time": 3.038, "note_off_time": 3.645}, {"pitch": 42, "velocity": 80, "note_on_time": 3.039, "note_off_time": 3.645}, {"pitch": 62, "velocity": 80, "note_on_time": 3.645, "note_off_time": 4.25}, {"pitch": 42, "velocity": 80, "note_on_time": 3.645, "note_off_time": 4.25}, {"pitch": 62, "velocity": 80, "note_on_time": 4.25, "note_off_time": 4.854}, {"pitch": 42, "velocity": 80, "note_on_time": 4.251, "note_off_time": 4.854}, {"pitch": 62, "velocity": 80, "note_on_time": 4.854, "note_off_time": 5.462}, {"pitch": 42, "velocity": 80, "note_on_time": 4.854, "note_off_time": 5.462}, {"pitch": 60, "velocity": 80, "note_on_time": 5.462, "note_off_time": 6.067}, {"pitch": 42, "velocity": 80, "note_on_time": 5.462, "note_off_time": 6.067}, {"pitch": 42, "velocity": 80, "note_on_time": 6.067, "note_off_time": 6.669}, {"pitch": 42, "velocity": 80, "note_on_time": 6.669, "note_off_time": 7.277}, {"pitch": 62, "velocity": 80, "note_on_time": 7.277, "note_off_time": 7.886}, {"pitch": 42, "velocity": 80, "note_on_time": 7.277, "note_off_time": 7.887}, {"pitch": 62, "velocity": 80, "note_on_time": 7.886, "note_off_time": 8.494}, {"pitch": 42, "velocity": 80, "note_on_time": 7.887, "note_off_time": 8.494}, {"pitch": 60, "velocity": 80, "note_on_time": 8.494, "note_off_time": 9.099}, {"pitch": 42, "velocity": 80, "note_on_time": 8.494, "note_off_time": 9.1}, {"pitch": 60, "velocity": 80, "note_on_time": 9.099, "note_off_time": 9.706}, {"pitch": 42, "velocity": 80, "note_on_time": 9.1, "note_off_time": 9.707}, {"pitch": 60, "velocity": 80, "note_on_time": 9.706, "note_off_time": 10.31}, {"pitch": 42, "velocity": 80, "note_on_time": 9.707, "note_off_time": 10.31}, {"pitch": 60, "velocity": 80, "note_on_time": 10.31, "note_off_time": 10.921}, {"pitch": 42, "velocity": 80, "note_on_time": 10.31, "note_off_time": 10.921}, {"pitch": 60, "velocity": 80, "note_on_time": 10.921, "note_off_time": 11.53}, {"pitch": 42, "velocity": 80, "note_on_time": 10.921, "note_off_time": 11.531}, {"pitch": 62, "velocity": 80, "note_on_time": 11.53, "note_off_time": 12.139}, {"pitch": 42, "velocity": 80, "note_on_time": 11.531, "note_off_time": 12.139}, {"pitch": 60, "velocity": 80, "note_on_time": 12.139, "note_off_time": 12.745}, {"pitch": 42, "velocity": 80, "note_on_time": 12.139, "note_off_time": 12.746}, {"pitch": 42, "velocity": 80, "note_on_time": 12.746, "note_off_time": 13.353}, {"pitch": 62, "velocity": 80, "note_on_time": 12.745, "note_off_time": 13.96}, {"pitch": 42, "velocity": 80, "note_on_time": 13.353, "note_off_time": 13.96}, {"pitch": 60, "velocity": 80, "note_on_time": 13.96, "note_off_time": 14.564}, {"pitch": 42, "velocity": 80, "note_on_time": 13.961, "note_off_time": 14.564}, {"pitch": 62, "velocity": 80, "note_on_time": 14.564, "note_off_time": 15.173}, {"pitch": 42, "velocity": 80, "note_on_time": 14.565, "note_off_time": 15.175}, {"pitch": 60, "velocity": 80, "note_on_time": 15.173, "note_off_time": 15.78}, {"pitch": 42, "velocity": 80, "note_on_time": 15.176, "note_off_time": 15.781}, {"pitch": 60, "velocity": 80, "note_on_time": 15.78, "note_off_time": 16.386}, {"pitch": 42, "velocity": 80, "note_on_time": 15.781, "note_off_time": 16.386}, {"pitch": 60, "velocity": 80, "note_on_time": 16.386, "note_off_time": 16.996}, {"pitch": 42, "velocity": 80, "note_on_time": 16.386, "note_off_time": 16.996}, {"pitch": 60, "velocity": 80, "note_on_time": 16.996, "note_off_time": 17.602}, {"pitch": 42, "velocity": 80, "note_on_time": 16.996, "note_off_time": 17.603}, {"pitch": 42, "velocity": 80, "note_on_time": 17.603, "note_off_time": 18.211}, {"pitch": 62, "velocity": 80, "note_on_time": 17.602, "note_off_time": 18.818}, {"pitch": 42, "velocity": 80, "note_on_time": 18.211, "note_off_time": 18.818}, {"pitch": 62, "velocity": 80, "note_on_time": 18.818, "note_off_time": 19.423}, {"pitch": 42, "velocity": 80, "note_on_time": 18.819, "note_off_time": 19.423}, {"pitch": 42, "velocity": 80, "note_on_time": 19.423, "note_off_time": 20.032}, {"pitch": 62, "velocity": 80, "note_on_time": 20.031, "note_off_time": 20.64}, {"pitch": 42, "velocity": 80, "note_on_time": 20.032, "note_off_time": 20.641}, {"pitch": 62, "velocity": 80, "note_on_time": 20.64, "note_off_time": 21.243}, {"pitch": 42, "velocity": 80, "note_on_time": 20.641, "note_off_time": 21.243}, {"pitch": 62, "velocity": 80, "note_on_time": 21.243, "note_off_time": 21.848}, {"pitch": 42, "velocity": 80, "note_on_time": 21.243, "note_off_time": 21.849}]</notes><options name="Option List">((4, 4), [0.5, 0.25], 3, 8, &lt;NoteRangePerHand.TWO_NOTES: 3&gt;, &lt;NoteRangePerHand.ONE_NOTE: 2&gt;, False, True, True, 100)</options></target_notes><trials><trial trial_no="1" timestamp="2022_10_26-13_51_55"><notes name="Played Notes">[{"pitch": 60, "velocity": 66, "note_on_time": 2.455, "note_off_time": 2.609}, {"pitch": 60, "velocity": 85, "note_on_time": 3.003, "note_off_time": 3.436}, {"pitch": 62, "velocity": 74, "note_on_time": 3.61, "note_off_time": 3.808}, {"pitch": 62, "velocity": 83, "note_on_time": 4.158, "note_off_time": 4.364}, {"pitch": 62, "velocity": 82, "note_on_time": 4.803, "note_off_time": 5.345}, {"pitch": 60, "velocity": 84, "note_on_time": 5.408, "note_off_time": 5.942}, {"pitch": 62, "velocity": 80, "note_on_time": 7.893, "note_off_time": 7.893}, {"pitch": 62, "velocity": 79, "note_on_time": 7.893, "note_off_time": 8.242}, {"pitch": 60, "velocity": 78, "note_on_time": 8.425, "note_off_time": 8.69}, {"pitch": 60, "velocity": 88, "note_on_time": 9.064, "note_off_time": 9.346}, {"pitch": 60, "velocity": 79, "note_on_time": 9.661, "note_off_time": 9.923}, {"pitch": 60, "velocity": 84, "note_on_time": 10.272, "note_off_time": 10.526}, {"pitch": 60, "velocity": 78, "note_on_time": 10.924, "note_off_time": 11.279}, {"pitch": 62, "velocity": 79, "note_on_time": 11.533, "note_off_time": 11.813}, {"pitch": 60, "velocity": 78, "note_on_time": 12.143, "note_off_time": 12.332}, {"pitch": 62, "velocity": 85, "note_on_time": 12.73, "note_off_time": 13.68}, {"pitch": 60, "velocity": 82, "note_on_time": 13.983, "note_off_time": 14.22}, {"pitch": 62, "velocity": 72, "note_on_time": 14.58, "note_off_time": 14.835}, {"pitch": 60, "velocity": 82, "note_on_time": 15.162, "note_off_time": 15.365}, {"pitch": 60, "velocity": 80, "note_on_time": 15.763, "note_off_time": 15.983}, {"pitch": 60, "velocity": 80, "note_on_time": 16.354, "note_off_time": 16.577}, {"pitch": 60, "velocity": 81, "note_on_time": 17.003, "note_off_time": 17.158}, {"pitch": 62, "velocity": 86, "note_on_time": 17.609, "note_off_time": 18.491}, {"pitch": 62, "velocity": 85, "note_on_time": 18.848, "note_off_time": 19.235}, {"pitch": 62, "velocity": 87, "note_on_time": 20.006, "note_off_time": 20.201}, {"pitch": 62, "velocity": 81, "note_on_time": 20.587, "note_off_time": 20.789}, {"pitch": 62, "velocity": 91, "note_on_time": 21.203, "note_off_time": 21.389}]</notes><guidance name="Guidance Mode">None</guidance><error name="Error value">0.0794166666666667</error></trial></trials></MIDI>