<MIDI midiNo="2022_12_22-12_30_05"><target_notes><notes name="Note List">[{"pitch": 42, "velocity": 80, "note_on_time": 0.003, "note_off_time": 0.258}, {"pitch": 42, "velocity": 80, "note_on_time": 0.258, "note_off_time": 0.508}, {"pitch": 42, "velocity": 80, "note_on_time": 0.508, "note_off_time": 0.757}, {"pitch": 42, "velocity": 80, "note_on_time": 0.757, "note_off_time": 1.006}, {"pitch": 67, "velocity": 80, "note_on_time": 1.006, "note_off_time": 1.254}, {"pitch": 42, "velocity": 80, "note_on_time": 1.006, "note_off_time": 1.254}, {"pitch": 42, "velocity": 80, "note_on_time": 1.254, "note_off_time": 1.503}, {"pitch": 42, "velocity": 80, "note_on_time": 1.503, "note_off_time": 1.754}, {"pitch": 67, "velocity": 80, "note_on_time": 1.754, "note_off_time": 2.006}, {"pitch": 42, "velocity": 80, "note_on_time": 1.754, "note_off_time": 2.006}, {"pitch": 42, "velocity": 80, "note_on_time": 2.006, "note_off_time": 2.257}, {"pitch": 60, "velocity": 80, "note_on_time": 2.006, "note_off_time": 2.509}, {"pitch": 42, "velocity": 80, "note_on_time": 2.257, "note_off_time": 2.509}, {"pitch": 42, "velocity": 80, "note_on_time": 2.509, "note_off_time": 2.759}, {"pitch": 42, "velocity": 80, "note_on_time": 2.759, "note_off_time": 3.005}, {"pitch": 60, "velocity": 80, "note_on_time": 3.005, "note_off_time": 3.256}, {"pitch": 42, "velocity": 80, "note_on_time": 3.005, "note_off_time": 3.256}, {"pitch": 42, "velocity": 80, "note_on_time": 3.256, "note_off_time": 3.506}, {"pitch": 42, "velocity": 80, "note_on_time": 3.506, "note_off_time": 3.757}, {"pitch": 65, "velocity": 80, "note_on_time": 3.757, "note_off_time": 4.004}, {"pitch": 42, "velocity": 80, "note_on_time": 3.757, "note_off_time": 4.004}, {"pitch": 62, "velocity": 80, "note_on_time": 4.004, "note_off_time": 4.254}, {"pitch": 42, "velocity": 80, "note_on_time": 4.004, "note_off_time": 4.254}, {"pitch": 67, "velocity": 80, "note_on_time": 4.254, "note_off_time": 4.502}, {"pitch": 42, "velocity": 80, "note_on_time": 4.254, "note_off_time": 4.502}, {"pitch": 65, "velocity": 80, "note_on_time": 4.502, "note_off_time": 4.75}, {"pitch": 42, "velocity": 80, "note_on_time": 4.502, "note_off_time": 4.75}, {"pitch": 64, "velocity": 80, "note_on_time": 4.75, "note_off_time": 4.999}, {"pitch": 42, "velocity": 80, "note_on_time": 4.75, "note_off_time": 4.999}, {"pitch": 60, "velocity": 80, "note_on_time": 4.999, "note_off_time": 5.25}, {"pitch": 42, "velocity": 80, "note_on_time": 4.999, "note_off_time": 5.25}, {"pitch": 64, "velocity": 80, "note_on_time": 5.25, "note_off_time": 5.497}, {"pitch": 42, "velocity": 80, "note_on_time": 5.25, "note_off_time": 5.497}, {"pitch": 67, "velocity": 80, "note_on_time": 5.497, "note_off_time": 5.748}, {"pitch": 42, "velocity": 80, "note_on_time": 5.497, "note_off_time": 5.748}, {"pitch": 62, "velocity": 80, "note_on_time": 5.748, "note_off_time": 5.996}, {"pitch": 42, "velocity": 80, "note_on_time": 5.748, "note_off_time": 5.996}, {"pitch": 42, "velocity": 80, "note_on_time": 5.996, "note_off_time": 6.244}, {"pitch": 67, "velocity": 80, "note_on_time": 5.996, "note_off_time": 6.494}, {"pitch": 42, "velocity": 80, "note_on_time": 6.244, "note_off_time": 6.494}, {"pitch": 42, "velocity": 80, "note_on_time": 6.494, "note_off_time": 6.744}, {"pitch": 42, "velocity": 80, "note_on_time": 6.744, "note_off_time": 6.993}, {"pitch": 42, "velocity": 80, "note_on_time": 6.993, "note_off_time": 7.242}, {"pitch": 60, "velocity": 80, "note_on_time": 6.993, "note_off_time": 7.49}, {"pitch": 42, "velocity": 80, "note_on_time": 7.242, "note_off_time": 7.49}, {"pitch": 42, "velocity": 80, "note_on_time": 7.49, "note_off_time": 7.74}, {"pitch": 42, "velocity": 80, "note_on_time": 7.74, "note_off_time": 7.99}, {"pitch": 42, "velocity": 80, "note_on_time": 7.99, "note_off_time": 8.24}, {"pitch": 60, "velocity": 80, "note_on_time": 8.24, "note_off_time": 8.488}, {"pitch": 42, "velocity": 80, "note_on_time": 8.24, "note_off_time": 8.488}, {"pitch": 60, "velocity": 80, "note_on_time": 8.488, "note_off_time": 8.737}, {"pitch": 42, "velocity": 80, "note_on_time": 8.488, "note_off_time": 8.737}, {"pitch": 60, "velocity": 80, "note_on_time": 8.737, "note_off_time": 8.986}, {"pitch": 42, "velocity": 80, "note_on_time": 8.737, "note_off_time": 8.986}]</notes><options name="Option List">((4, 4), [0.5, 0.25], 3, 8, &lt;NoteRangePerHand.C_TO_G: 6&gt;, &lt;NoteRangePerHand.ONE_NOTE: 2&gt;, False, True, False, 248)</options></target_notes><trials><trial trial_no="1" timestamp="2022_12_22-12_29_54"><notes name="Played Notes">[{"pitch": 67, "velocity": 76, "note_on_time": 1.329, "note_off_time": 1.433}, {"pitch": 67, "velocity": 79, "note_on_time": 1.596, "note_off_time": 1.821}, {"pitch": 60, "velocity": 74, "note_on_time": 1.839, "note_off_time": 2.292}, {"pitch": 60, "velocity": 73, "note_on_time": 2.663, "note_off_time": 2.9}, {"pitch": 65, "velocity": 90, "note_on_time": 2.894, "note_off_time": 3.146}, {"pitch": 62, "velocity": 19, "note_on_time": 3.318, "note_off_time": 3.577}, {"pitch": 67, "velocity": 73, "note_on_time": 3.585, "note_off_time": 3.845}, {"pitch": 65, "velocity": 58, "note_on_time": 3.828, "note_off_time": 4.06}, {"pitch": 64, "velocity": 74, "note_on_time": 4.083, "note_off_time": 4.313}, {"pitch": 60, "velocity": 82, "note_on_time": 4.342, "note_off_time": 4.576}, {"pitch": 64, "velocity": 72, "note_on_time": 4.576, "note_off_time": 4.821}, {"pitch": 67, "velocity": 68, "note_on_time": 4.834, "note_off_time": 5.04}, {"pitch": 62, "velocity": 57, "note_on_time": 5.057, "note_off_time": 5.305}, {"pitch": 67, "velocity": 65, "note_on_time": 5.312, "note_off_time": 5.59}, {"pitch": 65, "velocity": 74, "note_on_time": 5.588, "note_off_time": 5.645}, {"pitch": 60, "velocity": 65, "note_on_time": 5.893, "note_off_time": 6.263}, {"pitch": 60, "velocity": 74, "note_on_time": 6.874, "note_off_time": 6.964}, {"pitch": 60, "velocity": 66, "note_on_time": 7.1, "note_off_time": 7.172}, {"pitch": 60, "velocity": 84, "note_on_time": 7.376, "note_off_time": 7.548}]</notes><guidance name="Guidance Mode">None</guidance><error name="Error value">0.26087699999999947</error></trial><trial trial_no="2" timestamp="2022_12_22-12_30_19"><notes name="Played Notes">[{"pitch": 67, "velocity": 64, "note_on_time": 1.55, "note_off_time": 1.65}, {"pitch": 67, "velocity": 70, "note_on_time": 1.822, "note_off_time": 2.042}, {"pitch": 60, "velocity": 82, "note_on_time": 2.079, "note_off_time": 2.592}, {"pitch": 60, "velocity": 71, "note_on_time": 3.171, "note_off_time": 3.409}, {"pitch": 65, "velocity": 70, "note_on_time": 3.415, "note_off_time": 3.63}, {"pitch": 62, "velocity": 61, "note_on_time": 3.667, "note_off_time": 3.885}, {"pitch": 67, "velocity": 66, "note_on_time": 3.899, "note_off_time": 4.168}, {"pitch": 65, "velocity": 71, "note_on_time": 4.162, "note_off_time": 4.279}, {"pitch": 64, "velocity": 86, "note_on_time": 4.467, "note_off_time": 4.897}, {"pitch": 60, "velocity": 73, "note_on_time": 4.935, "note_off_time": 5.154}, {"pitch": 64, "velocity": 62, "note_on_time": 5.197, "note_off_time": 5.422}, {"pitch": 67, "velocity": 70, "note_on_time": 5.452, "note_off_time": 5.679}, {"pitch": 62, "velocity": 68, "note_on_time": 5.684, "note_off_time": 5.941}, {"pitch": 67, "velocity": 66, "note_on_time": 5.961, "note_off_time": 6.515}, {"pitch": 60, "velocity": 75, "note_on_time": 7.061, "note_off_time": 7.589}, {"pitch": 60, "velocity": 67, "note_on_time": 8.22, "note_off_time": 8.329}, {"pitch": 60, "velocity": 66, "note_on_time": 8.467, "note_off_time": 8.572}, {"pitch": 60, "velocity": 82, "note_on_time": 8.724, "note_off_time": 8.897}]</notes><guidance name="Guidance Mode">None</guidance><error name="Error value">0.11242166666666664</error></trial><trial trial_no="3" timestamp="2022_12_22-12_30_39"><notes name="Played Notes">[{"pitch": 67, "velocity": 77, "note_on_time": 1.395, "note_off_time": 1.537}, {"pitch": 67, "velocity": 79, "note_on_time": 1.951, "note_off_time": 2.171}, {"pitch": 60, "velocity": 85, "note_on_time": 2.204, "note_off_time": 2.647}, {"pitch": 60, "velocity": 82, "note_on_time": 3.193, "note_off_time": 3.446}, {"pitch": 65, "velocity": 72, "note_on_time": 3.448, "note_off_time": 3.646}, {"pitch": 62, "velocity": 67, "note_on_time": 3.675, "note_off_time": 3.899}, {"pitch": 67, "velocity": 63, "note_on_time": 3.909, "note_off_time": 4.164}, {"pitch": 65, "velocity": 71, "note_on_time": 4.15, "note_off_time": 4.409}, {"pitch": 64, "velocity": 66, "note_on_time": 4.401, "note_off_time": 4.641}, {"pitch": 60, "velocity": 71, "note_on_time": 4.653, "note_off_time": 4.914}, {"pitch": 64, "velocity": 63, "note_on_time": 4.91, "note_off_time": 5.134}, {"pitch": 67, "velocity": 71, "note_on_time": 5.148, "note_off_time": 5.384}, {"pitch": 62, "velocity": 72, "note_on_time": 5.397, "note_off_time": 5.663}, {"pitch": 67, "velocity": 76, "note_on_time": 5.68, "note_off_time": 6.278}, {"pitch": 60, "velocity": 75, "note_on_time": 6.924, "note_off_time": 7.317}, {"pitch": 60, "velocity": 87, "note_on_time": 7.931, "note_off_time": 8.06}, {"pitch": 60, "velocity": 68, "note_on_time": 8.163, "note_off_time": 8.276}, {"pitch": 60, "velocity": 75, "note_on_time": 8.409, "note_off_time": 8.627}]</notes><guidance name="Guidance Mode">None</guidance><error name="Error value">0.08506233333333348</error></trial><trial trial_no="4" timestamp="2022_12_22-12_31_08"><notes name="Played Notes">[{"pitch": 67, "velocity": 61, "note_on_time": 1.782, "note_off_time": 2.158}, {"pitch": 67, "velocity": 65, "note_on_time": 2.354, "note_off_time": 2.558}, {"pitch": 60, "velocity": 75, "note_on_time": 2.592, "note_off_time": 2.946}, {"pitch": 60, "velocity": 71, "note_on_time": 3.567, "note_off_time": 3.845}, {"pitch": 65, "velocity": 69, "note_on_time": 3.834, "note_off_time": 4.051}, {"pitch": 62, "velocity": 71, "note_on_time": 4.065, "note_off_time": 4.299}, {"pitch": 67, "velocity": 67, "note_on_time": 4.308, "note_off_time": 4.585}, {"pitch": 65, "velocity": 70, "note_on_time": 4.559, "note_off_time": 4.81}, {"pitch": 64, "velocity": 65, "note_on_time": 4.806, "note_off_time": 5.028}, {"pitch": 60, "velocity": 67, "note_on_time": 5.067, "note_off_time": 5.327}, {"pitch": 64, "velocity": 64, "note_on_time": 5.321, "note_off_time": 5.559}, {"pitch": 67, "velocity": 73, "note_on_time": 5.564, "note_off_time": 5.808}, {"pitch": 62, "velocity": 65, "note_on_time": 5.824, "note_off_time": 6.057}, {"pitch": 67, "velocity": 76, "note_on_time": 6.066, "note_off_time": 6.651}, {"pitch": 60, "velocity": 69, "note_on_time": 6.875, "note_off_time": 7.483}, {"pitch": 60, "velocity": 77, "note_on_time": 8.105, "note_off_time": 8.21}, {"pitch": 60, "velocity": 64, "note_on_time": 8.353, "note_off_time": 8.456}, {"pitch": 60, "velocity": 79, "note_on_time": 8.596, "note_off_time": 8.789}]</notes><guidance name="Guidance Mode">None</guidance><error name="Error value">0.05909700000000003</error></trial><trial trial_no="5" timestamp="2022_12_22-12_31_43"><notes name="Played Notes">[{"pitch": 67, "velocity": 60, "note_on_time": 1.776, "note_off_time": 1.888}, {"pitch": 67, "velocity": 63, "note_on_time": 2.047, "note_off_time": 2.245}, {"pitch": 60, "velocity": 80, "note_on_time": 2.458, "note_off_time": 3.02}, {"pitch": 60, "velocity": 76, "note_on_time": 3.382, "note_off_time": 3.639}, {"pitch": 65, "velocity": 69, "note_on_time": 3.618, "note_off_time": 3.846}, {"pitch": 62, "velocity": 70, "note_on_time": 3.877, "note_off_time": 4.12}, {"pitch": 67, "velocity": 67, "note_on_time": 4.12, "note_off_time": 4.395}, {"pitch": 65, "velocity": 68, "note_on_time": 4.38, "note_off_time": 4.641}, {"pitch": 64, "velocity": 58, "note_on_time": 4.658, "note_off_time": 4.962}, {"pitch": 60, "velocity": 76, "note_on_time": 5.157, "note_off_time": 5.42}, {"pitch": 64, "velocity": 73, "note_on_time": 5.414, "note_off_time": 5.661}, {"pitch": 67, "velocity": 74, "note_on_time": 5.66, "note_off_time": 5.906}, {"pitch": 62, "velocity": 68, "note_on_time": 5.908, "note_off_time": 6.13}, {"pitch": 67, "velocity": 71, "note_on_time": 6.148, "note_off_time": 6.71}, {"pitch": 60, "velocity": 82, "note_on_time": 7.05, "note_off_time": 7.549}, {"pitch": 60, "velocity": 79, "note_on_time": 8.35, "note_off_time": 8.465}, {"pitch": 60, "velocity": 68, "note_on_time": 8.589, "note_off_time": 8.693}]</notes><guidance name="Guidance Mode">None</guidance><error name="Error value">0.19432033333333334</error></trial></trials></MIDI>