<MIDI midiNo="2022_11_03-13_26_21"><target_notes><notes name="Note List">[{"pitch": 42, "velocity": 80, "note_on_time": 0.004, "note_off_time": 0.261}, {"pitch": 42, "velocity": 80, "note_on_time": 0.261, "note_off_time": 0.511}, {"pitch": 42, "velocity": 80, "note_on_time": 0.511, "note_off_time": 0.761}, {"pitch": 42, "velocity": 80, "note_on_time": 0.761, "note_off_time": 1.012}, {"pitch": 64, "velocity": 80, "note_on_time": 1.012, "note_off_time": 1.259}, {"pitch": 42, "velocity": 80, "note_on_time": 1.012, "note_off_time": 1.259}, {"pitch": 60, "velocity": 80, "note_on_time": 1.259, "note_off_time": 1.508}, {"pitch": 42, "velocity": 80, "note_on_time": 1.259, "note_off_time": 1.508}, {"pitch": 60, "velocity": 80, "note_on_time": 1.508, "note_off_time": 1.758}, {"pitch": 42, "velocity": 80, "note_on_time": 1.509, "note_off_time": 1.758}, {"pitch": 60, "velocity": 80, "note_on_time": 1.758, "note_off_time": 2.006}, {"pitch": 42, "velocity": 80, "note_on_time": 1.758, "note_off_time": 2.006}, {"pitch": 64, "velocity": 80, "note_on_time": 2.006, "note_off_time": 2.258}, {"pitch": 42, "velocity": 80, "note_on_time": 2.007, "note_off_time": 2.258}, {"pitch": 62, "velocity": 80, "note_on_time": 2.258, "note_off_time": 2.506}, {"pitch": 42, "velocity": 80, "note_on_time": 2.258, "note_off_time": 2.507}, {"pitch": 62, "velocity": 80, "note_on_time": 2.506, "note_off_time": 2.756}, {"pitch": 42, "velocity": 80, "note_on_time": 2.507, "note_off_time": 2.756}, {"pitch": 62, "velocity": 80, "note_on_time": 2.756, "note_off_time": 3.004}, {"pitch": 42, "velocity": 80, "note_on_time": 2.756, "note_off_time": 3.004}, {"pitch": 60, "velocity": 80, "note_on_time": 3.004, "note_off_time": 3.254}, {"pitch": 42, "velocity": 80, "note_on_time": 3.004, "note_off_time": 3.254}, {"pitch": 60, "velocity": 80, "note_on_time": 3.254, "note_off_time": 3.502}, {"pitch": 42, "velocity": 80, "note_on_time": 3.255, "note_off_time": 3.502}, {"pitch": 64, "velocity": 80, "note_on_time": 3.502, "note_off_time": 3.75}, {"pitch": 42, "velocity": 80, "note_on_time": 3.503, "note_off_time": 3.75}, {"pitch": 62, "velocity": 80, "note_on_time": 3.75, "note_off_time": 4.001}, {"pitch": 42, "velocity": 80, "note_on_time": 3.75, "note_off_time": 4.001}, {"pitch": 42, "velocity": 80, "note_on_time": 4.001, "note_off_time": 4.249}, {"pitch": 60, "velocity": 80, "note_on_time": 4.001, "note_off_time": 4.497}, {"pitch": 42, "velocity": 80, "note_on_time": 4.249, "note_off_time": 4.497}, {"pitch": 64, "velocity": 80, "note_on_time": 4.497, "note_off_time": 4.744}, {"pitch": 42, "velocity": 80, "note_on_time": 4.497, "note_off_time": 4.744}, {"pitch": 62, "velocity": 80, "note_on_time": 4.744, "note_off_time": 4.994}, {"pitch": 42, "velocity": 80, "note_on_time": 4.744, "note_off_time": 4.994}, {"pitch": 60, "velocity": 80, "note_on_time": 4.994, "note_off_time": 5.242}, {"pitch": 42, "velocity": 80, "note_on_time": 4.994, "note_off_time": 5.243}, {"pitch": 64, "velocity": 80, "note_on_time": 5.242, "note_off_time": 5.492}, {"pitch": 42, "velocity": 80, "note_on_time": 5.243, "note_off_time": 5.492}, {"pitch": 62, "velocity": 80, "note_on_time": 5.492, "note_off_time": 5.742}, {"pitch": 42, "velocity": 80, "note_on_time": 5.493, "note_off_time": 5.743}, {"pitch": 62, "velocity": 80, "note_on_time": 5.742, "note_off_time": 5.991}, {"pitch": 42, "velocity": 80, "note_on_time": 5.743, "note_off_time": 5.992}, {"pitch": 60, "velocity": 80, "note_on_time": 5.991, "note_off_time": 6.24}, {"pitch": 42, "velocity": 80, "note_on_time": 5.992, "note_off_time": 6.241}, {"pitch": 60, "velocity": 80, "note_on_time": 6.24, "note_off_time": 6.489}, {"pitch": 42, "velocity": 80, "note_on_time": 6.241, "note_off_time": 6.49}, {"pitch": 64, "velocity": 80, "note_on_time": 6.489, "note_off_time": 6.739}, {"pitch": 42, "velocity": 80, "note_on_time": 6.49, "note_off_time": 6.739}, {"pitch": 64, "velocity": 80, "note_on_time": 6.739, "note_off_time": 6.988}, {"pitch": 42, "velocity": 80, "note_on_time": 6.739, "note_off_time": 6.988}, {"pitch": 62, "velocity": 80, "note_on_time": 6.988, "note_off_time": 7.235}, {"pitch": 42, "velocity": 80, "note_on_time": 6.989, "note_off_time": 7.235}, {"pitch": 62, "velocity": 80, "note_on_time": 7.235, "note_off_time": 7.485}, {"pitch": 42, "velocity": 80, "note_on_time": 7.236, "note_off_time": 7.485}, {"pitch": 64, "velocity": 80, "note_on_time": 7.485, "note_off_time": 7.736}, {"pitch": 42, "velocity": 80, "note_on_time": 7.485, "note_off_time": 7.737}, {"pitch": 62, "velocity": 80, "note_on_time": 7.736, "note_off_time": 7.988}, {"pitch": 42, "velocity": 80, "note_on_time": 7.737, "note_off_time": 7.989}, {"pitch": 42, "velocity": 80, "note_on_time": 7.989, "note_off_time": 8.239}, {"pitch": 62, "velocity": 80, "note_on_time": 8.239, "note_off_time": 8.489}, {"pitch": 42, "velocity": 80, "note_on_time": 8.24, "note_off_time": 8.489}, {"pitch": 62, "velocity": 80, "note_on_time": 8.489, "note_off_time": 8.736}, {"pitch": 42, "velocity": 80, "note_on_time": 8.49, "note_off_time": 8.736}, {"pitch": 62, "velocity": 80, "note_on_time": 8.736, "note_off_time": 8.985}, {"pitch": 42, "velocity": 80, "note_on_time": 8.737, "note_off_time": 8.986}]</notes><options name="Option List">((4, 4), [0.5, 0.25], 3, 8, &lt;NoteRangePerHand.THREE_NOTES: 4&gt;, &lt;NoteRangePerHand.ONE_NOTE: 2&gt;, False, True, False, 248)</options></target_notes><trials><trial trial_no="1" timestamp="2022_11_03-13_26_11"><notes name="Played Notes">[{"pitch": 64, "velocity": 71, "note_on_time": 1.024, "note_off_time": 1.187}, {"pitch": 60, "velocity": 81, "note_on_time": 1.264, "note_off_time": 1.407}, {"pitch": 60, "velocity": 61, "note_on_time": 1.511, "note_off_time": 1.701}, {"pitch": 60, "velocity": 27, "note_on_time": 1.758, "note_off_time": 1.963}, {"pitch": 64, "velocity": 51, "note_on_time": 2.026, "note_off_time": 2.259}, {"pitch": 62, "velocity": 66, "note_on_time": 2.265, "note_off_time": 2.389}, {"pitch": 62, "velocity": 55, "note_on_time": 2.495, "note_off_time": 2.632}, {"pitch": 62, "velocity": 54, "note_on_time": 2.753, "note_off_time": 2.945}, {"pitch": 60, "velocity": 74, "note_on_time": 3.026, "note_off_time": 3.145}, {"pitch": 60, "velocity": 73, "note_on_time": 3.237, "note_off_time": 3.42}, {"pitch": 64, "velocity": 59, "note_on_time": 3.482, "note_off_time": 3.73}, {"pitch": 62, "velocity": 72, "note_on_time": 3.732, "note_off_time": 3.862}, {"pitch": 60, "velocity": 60, "note_on_time": 3.97, "note_off_time": 4.374}, {"pitch": 64, "velocity": 65, "note_on_time": 4.454, "note_off_time": 4.66}, {"pitch": 62, "velocity": 65, "note_on_time": 4.687, "note_off_time": 4.849}, {"pitch": 60, "velocity": 72, "note_on_time": 4.956, "note_off_time": 5.128}, {"pitch": 64, "velocity": 60, "note_on_time": 5.186, "note_off_time": 5.386}, {"pitch": 62, "velocity": 54, "note_on_time": 5.408, "note_off_time": 5.544}, {"pitch": 62, "velocity": 47, "note_on_time": 5.66, "note_off_time": 5.828}, {"pitch": 60, "velocity": 61, "note_on_time": 5.97, "note_off_time": 6.085}, {"pitch": 60, "velocity": 55, "note_on_time": 6.203, "note_off_time": 6.391}, {"pitch": 64, "velocity": 52, "note_on_time": 6.468, "note_off_time": 6.603}, {"pitch": 64, "velocity": 52, "note_on_time": 6.706, "note_off_time": 6.862}, {"pitch": 62, "velocity": 59, "note_on_time": 6.976, "note_off_time": 7.095}, {"pitch": 62, "velocity": 54, "note_on_time": 7.203, "note_off_time": 7.371}, {"pitch": 64, "velocity": 66, "note_on_time": 7.445, "note_off_time": 7.685}, {"pitch": 62, "velocity": 65, "note_on_time": 7.688, "note_off_time": 7.988}, {"pitch": 62, "velocity": 60, "note_on_time": 8.194, "note_off_time": 8.323}, {"pitch": 62, "velocity": 50, "note_on_time": 8.449, "note_off_time": 8.575}, {"pitch": 62, "velocity": 56, "note_on_time": 8.69, "note_off_time": 8.898}]</notes><guidance name="Guidance Mode">None</guidance><error name="Error value">0.01512796296296284</error></trial></trials></MIDI>