<MIDI midiNo="2022_12_08-11_52_51"><target_notes><notes name="Note List">[{"pitch": 42, "velocity": 80, "note_on_time": 0.005, "note_off_time": 0.35}, {"pitch": 42, "velocity": 80, "note_on_time": 0.35, "note_off_time": 0.695}, {"pitch": 42, "velocity": 80, "note_on_time": 0.695, "note_off_time": 1.04}, {"pitch": 42, "velocity": 80, "note_on_time": 1.04, "note_off_time": 1.382}, {"pitch": 60, "velocity": 80, "note_on_time": 1.382, "note_off_time": 1.726}, {"pitch": 42, "velocity": 80, "note_on_time": 1.382, "note_off_time": 1.726}, {"pitch": 64, "velocity": 80, "note_on_time": 1.726, "note_off_time": 2.067}, {"pitch": 42, "velocity": 80, "note_on_time": 1.727, "note_off_time": 2.067}, {"pitch": 65, "velocity": 80, "note_on_time": 2.067, "note_off_time": 2.411}, {"pitch": 42, "velocity": 80, "note_on_time": 2.067, "note_off_time": 2.411}, {"pitch": 65, "velocity": 80, "note_on_time": 2.411, "note_off_time": 2.753}, {"pitch": 42, "velocity": 80, "note_on_time": 2.411, "note_off_time": 2.753}, {"pitch": 64, "velocity": 80, "note_on_time": 2.753, "note_off_time": 3.095}, {"pitch": 42, "velocity": 80, "note_on_time": 2.753, "note_off_time": 3.096}, {"pitch": 62, "velocity": 80, "note_on_time": 3.095, "note_off_time": 3.439}, {"pitch": 42, "velocity": 80, "note_on_time": 3.096, "note_off_time": 3.439}, {"pitch": 42, "velocity": 80, "note_on_time": 3.439, "note_off_time": 3.784}, {"pitch": 42, "velocity": 80, "note_on_time": 3.784, "note_off_time": 4.127}, {"pitch": 60, "velocity": 80, "note_on_time": 4.127, "note_off_time": 4.471}, {"pitch": 42, "velocity": 80, "note_on_time": 4.127, "note_off_time": 4.471}, {"pitch": 67, "velocity": 80, "note_on_time": 4.471, "note_off_time": 4.814}, {"pitch": 42, "velocity": 80, "note_on_time": 4.471, "note_off_time": 4.814}, {"pitch": 60, "velocity": 80, "note_on_time": 4.814, "note_off_time": 5.158}, {"pitch": 42, "velocity": 80, "note_on_time": 4.815, "note_off_time": 5.158}, {"pitch": 60, "velocity": 80, "note_on_time": 5.158, "note_off_time": 5.501}, {"pitch": 42, "velocity": 80, "note_on_time": 5.159, "note_off_time": 5.501}, {"pitch": 42, "velocity": 80, "note_on_time": 5.501, "note_off_time": 5.844}, {"pitch": 67, "velocity": 80, "note_on_time": 5.501, "note_off_time": 6.186}, {"pitch": 42, "velocity": 80, "note_on_time": 5.844, "note_off_time": 6.187}, {"pitch": 42, "velocity": 80, "note_on_time": 6.187, "note_off_time": 6.528}, {"pitch": 42, "velocity": 80, "note_on_time": 6.528, "note_off_time": 6.87}, {"pitch": 67, "velocity": 80, "note_on_time": 6.87, "note_off_time": 7.213}, {"pitch": 42, "velocity": 80, "note_on_time": 6.87, "note_off_time": 7.213}, {"pitch": 67, "velocity": 80, "note_on_time": 7.213, "note_off_time": 7.557}, {"pitch": 42, "velocity": 80, "note_on_time": 7.213, "note_off_time": 7.557}, {"pitch": 62, "velocity": 80, "note_on_time": 7.557, "note_off_time": 7.902}, {"pitch": 42, "velocity": 80, "note_on_time": 7.557, "note_off_time": 7.903}, {"pitch": 60, "velocity": 80, "note_on_time": 7.902, "note_off_time": 8.242}, {"pitch": 42, "velocity": 80, "note_on_time": 7.903, "note_off_time": 8.242}, {"pitch": 62, "velocity": 80, "note_on_time": 8.242, "note_off_time": 8.585}, {"pitch": 42, "velocity": 80, "note_on_time": 8.242, "note_off_time": 8.585}, {"pitch": 67, "velocity": 80, "note_on_time": 8.585, "note_off_time": 8.931}, {"pitch": 42, "velocity": 80, "note_on_time": 8.586, "note_off_time": 8.931}, {"pitch": 64, "velocity": 80, "note_on_time": 8.931, "note_off_time": 9.274}, {"pitch": 42, "velocity": 80, "note_on_time": 8.931, "note_off_time": 9.274}, {"pitch": 64, "velocity": 80, "note_on_time": 9.274, "note_off_time": 9.616}, {"pitch": 42, "velocity": 80, "note_on_time": 9.275, "note_off_time": 9.616}, {"pitch": 65, "velocity": 80, "note_on_time": 9.616, "note_off_time": 9.96}, {"pitch": 42, "velocity": 80, "note_on_time": 9.617, "note_off_time": 9.96}, {"pitch": 60, "velocity": 80, "note_on_time": 9.96, "note_off_time": 10.302}, {"pitch": 42, "velocity": 80, "note_on_time": 9.96, "note_off_time": 10.302}, {"pitch": 65, "velocity": 80, "note_on_time": 10.302, "note_off_time": 10.645}, {"pitch": 42, "velocity": 80, "note_on_time": 10.303, "note_off_time": 10.645}, {"pitch": 67, "velocity": 80, "note_on_time": 10.645, "note_off_time": 10.99}, {"pitch": 42, "velocity": 80, "note_on_time": 10.645, "note_off_time": 10.99}, {"pitch": 42, "velocity": 80, "note_on_time": 10.99, "note_off_time": 11.332}, {"pitch": 67, "velocity": 80, "note_on_time": 11.332, "note_off_time": 11.675}, {"pitch": 42, "velocity": 80, "note_on_time": 11.332, "note_off_time": 11.675}, {"pitch": 67, "velocity": 80, "note_on_time": 11.675, "note_off_time": 12.019}, {"pitch": 42, "velocity": 80, "note_on_time": 11.676, "note_off_time": 12.019}, {"pitch": 67, "velocity": 80, "note_on_time": 12.019, "note_off_time": 12.362}, {"pitch": 42, "velocity": 80, "note_on_time": 12.02, "note_off_time": 12.362}]</notes><options name="Option List">((4, 4), [0.5, 0.25], 3, 8, &lt;NoteRangePerHand.C_TO_G: 6&gt;, &lt;NoteRangePerHand.ONE_NOTE: 2&gt;, False, True, False, '182')</options></target_notes><trials><trial trial_no="1" timestamp="2022_12_08-11_52_37"><notes name="Played Notes">[{"pitch": 60, "velocity": 87, "note_on_time": 1.402, "note_off_time": 1.528}, {"pitch": 64, "velocity": 84, "note_on_time": 1.726, "note_off_time": 1.887}, {"pitch": 65, "velocity": 91, "note_on_time": 2.081, "note_off_time": 2.23}, {"pitch": 65, "velocity": 83, "note_on_time": 2.448, "note_off_time": 2.63}, {"pitch": 64, "velocity": 93, "note_on_time": 2.786, "note_off_time": 2.97}, {"pitch": 62, "velocity": 97, "note_on_time": 3.112, "note_off_time": 3.256}, {"pitch": 60, "velocity": 84, "note_on_time": 4.171, "note_off_time": 4.322}, {"pitch": 67, "velocity": 84, "note_on_time": 4.492, "note_off_time": 4.636}, {"pitch": 60, "velocity": 89, "note_on_time": 4.834, "note_off_time": 4.949}, {"pitch": 60, "velocity": 84, "note_on_time": 5.192, "note_off_time": 5.305}, {"pitch": 67, "velocity": 81, "note_on_time": 5.518, "note_off_time": 6.123}, {"pitch": 67, "velocity": 85, "note_on_time": 6.89, "note_off_time": 7.045}, {"pitch": 67, "velocity": 73, "note_on_time": 7.204, "note_off_time": 7.379}, {"pitch": 62, "velocity": 80, "note_on_time": 7.561, "note_off_time": 7.778}, {"pitch": 60, "velocity": 77, "note_on_time": 7.897, "note_off_time": 8.029}, {"pitch": 62, "velocity": 80, "note_on_time": 8.264, "note_off_time": 8.457}, {"pitch": 67, "velocity": 77, "note_on_time": 8.6, "note_off_time": 8.781}, {"pitch": 64, "velocity": 79, "note_on_time": 8.913, "note_off_time": 9.081}, {"pitch": 64, "velocity": 94, "note_on_time": 9.266, "note_off_time": 9.436}, {"pitch": 65, "velocity": 89, "note_on_time": 9.599, "note_off_time": 9.761}, {"pitch": 60, "velocity": 78, "note_on_time": 9.957, "note_off_time": 10.084}, {"pitch": 65, "velocity": 81, "note_on_time": 10.301, "note_off_time": 10.49}, {"pitch": 67, "velocity": 91, "note_on_time": 10.627, "note_off_time": 10.751}, {"pitch": 67, "velocity": 71, "note_on_time": 11.017, "note_off_time": 11.209}, {"pitch": 67, "velocity": 78, "note_on_time": 11.336, "note_off_time": 11.468}, {"pitch": 67, "velocity": 95, "note_on_time": 11.66, "note_off_time": 11.821}]</notes><guidance name="Guidance Mode">None</guidance><error name="Error value">0.03152043478260867</error></trial><trial trial_no="2" timestamp="2022_12_08-11_52_56"><notes name="Played Notes">[{"pitch": 60, "velocity": 91, "note_on_time": 1.378, "note_off_time": 1.512}, {"pitch": 64, "velocity": 85, "note_on_time": 1.695, "note_off_time": 1.875}, {"pitch": 65, "velocity": 88, "note_on_time": 2.064, "note_off_time": 2.199}, {"pitch": 65, "velocity": 76, "note_on_time": 2.388, "note_off_time": 2.563}, {"pitch": 62, "velocity": 86, "note_on_time": 2.73, "note_off_time": 2.978}, {"pitch": 60, "velocity": 79, "note_on_time": 3.095, "note_off_time": 3.19}, {"pitch": 64, "velocity": 78, "note_on_time": 4.137, "note_off_time": 4.256}, {"pitch": 67, "velocity": 70, "note_on_time": 4.35, "note_off_time": 4.513}, {"pitch": 60, "velocity": 68, "note_on_time": 4.62, "note_off_time": 4.724}, {"pitch": 67, "velocity": 80, "note_on_time": 4.84, "note_off_time": 4.975}, {"pitch": 67, "velocity": 86, "note_on_time": 5.141, "note_off_time": 5.253}, {"pitch": 67, "velocity": 90, "note_on_time": 5.475, "note_off_time": 5.761}, {"pitch": 67, "velocity": 88, "note_on_time": 6.852, "note_off_time": 7.011}, {"pitch": 60, "velocity": 84, "note_on_time": 7.207, "note_off_time": 7.332}, {"pitch": 62, "velocity": 73, "note_on_time": 7.529, "note_off_time": 7.644}, {"pitch": 60, "velocity": 60, "note_on_time": 7.908, "note_off_time": 7.996}, {"pitch": 64, "velocity": 71, "note_on_time": 8.24, "note_off_time": 8.368}, {"pitch": 64, "velocity": 47, "note_on_time": 8.631, "note_off_time": 8.672}, {"pitch": 65, "velocity": 59, "note_on_time": 8.929, "note_off_time": 9.043}, {"pitch": 67, "velocity": 90, "note_on_time": 10.314, "note_off_time": 10.446}, {"pitch": 67, "velocity": 84, "note_on_time": 10.619, "note_off_time": 10.745}, {"pitch": 67, "velocity": 90, "note_on_time": 10.97, "note_off_time": 11.139}]</notes><guidance name="Guidance Mode">None</guidance><error name="Error value">0.6665082608695652</error></trial><trial trial_no="3" timestamp="2022_12_08-11_53_20"><notes name="Played Notes">[{"pitch": 60, "velocity": 90, "note_on_time": 1.362, "note_off_time": 1.495}, {"pitch": 64, "velocity": 85, "note_on_time": 1.685, "note_off_time": 1.861}, {"pitch": 65, "velocity": 87, "note_on_time": 2.049, "note_off_time": 2.192}, {"pitch": 65, "velocity": 76, "note_on_time": 2.381, "note_off_time": 2.554}, {"pitch": 62, "velocity": 82, "note_on_time": 2.703, "note_off_time": 2.838}, {"pitch": 60, "velocity": 64, "note_on_time": 3.046, "note_off_time": 3.106}, {"pitch": 60, "velocity": 87, "note_on_time": 4.096, "note_off_time": 4.262}, {"pitch": 67, "velocity": 82, "note_on_time": 4.412, "note_off_time": 4.564}, {"pitch": 60, "velocity": 84, "note_on_time": 4.78, "note_off_time": 4.9}, {"pitch": 60, "velocity": 75, "note_on_time": 5.157, "note_off_time": 5.247}, {"pitch": 67, "velocity": 81, "note_on_time": 5.484, "note_off_time": 5.976}, {"pitch": 67, "velocity": 76, "note_on_time": 6.873, "note_off_time": 7.06}, {"pitch": 64, "velocity": 70, "note_on_time": 7.2, "note_off_time": 7.348}, {"pitch": 62, "velocity": 72, "note_on_time": 7.586, "note_off_time": 7.725}, {"pitch": 64, "velocity": 76, "note_on_time": 7.904, "note_off_time": 8.032}, {"pitch": 67, "velocity": 70, "note_on_time": 8.258, "note_off_time": 8.411}, {"pitch": 62, "velocity": 67, "note_on_time": 8.629, "note_off_time": 8.736}, {"pitch": 64, "velocity": 68, "note_on_time": 8.954, "note_off_time": 9.041}, {"pitch": 67, "velocity": 83, "note_on_time": 10.629, "note_off_time": 10.766}, {"pitch": 67, "velocity": 81, "note_on_time": 10.95, "note_off_time": 11.086}, {"pitch": 67, "velocity": 93, "note_on_time": 11.306, "note_off_time": 11.472}]</notes><guidance name="Guidance Mode">None</guidance><error name="Error value">0.5403186956521739</error></trial><trial trial_no="4" timestamp="2022_12_08-11_53_43"><notes name="Played Notes">[{"pitch": 60, "velocity": 88, "note_on_time": 1.371, "note_off_time": 1.502}, {"pitch": 64, "velocity": 79, "note_on_time": 1.667, "note_off_time": 1.871}, {"pitch": 65, "velocity": 85, "note_on_time": 2.022, "note_off_time": 2.153}, {"pitch": 65, "velocity": 81, "note_on_time": 2.363, "note_off_time": 2.523}, {"pitch": 64, "velocity": 86, "note_on_time": 2.713, "note_off_time": 2.891}, {"pitch": 62, "velocity": 93, "note_on_time": 3.048, "note_off_time": 3.196}, {"pitch": 60, "velocity": 88, "note_on_time": 4.089, "note_off_time": 4.227}, {"pitch": 67, "velocity": 82, "note_on_time": 4.421, "note_off_time": 4.569}, {"pitch": 60, "velocity": 81, "note_on_time": 4.77, "note_off_time": 4.874}, {"pitch": 60, "velocity": 81, "note_on_time": 5.135, "note_off_time": 5.254}, {"pitch": 67, "velocity": 82, "note_on_time": 5.445, "note_off_time": 6.007}, {"pitch": 67, "velocity": 78, "note_on_time": 6.812, "note_off_time": 6.963}, {"pitch": 67, "velocity": 76, "note_on_time": 7.168, "note_off_time": 7.331}, {"pitch": 62, "velocity": 75, "note_on_time": 7.498, "note_off_time": 7.742}, {"pitch": 60, "velocity": 79, "note_on_time": 7.845, "note_off_time": 7.971}, {"pitch": 62, "velocity": 77, "note_on_time": 8.207, "note_off_time": 8.38}, {"pitch": 67, "velocity": 74, "note_on_time": 8.522, "note_off_time": 8.685}, {"pitch": 64, "velocity": 86, "note_on_time": 8.865, "note_off_time": 9.004}, {"pitch": 64, "velocity": 79, "note_on_time": 9.208, "note_off_time": 9.377}, {"pitch": 65, "velocity": 81, "note_on_time": 9.556, "note_off_time": 9.744}, {"pitch": 60, "velocity": 72, "note_on_time": 9.872, "note_off_time": 9.991}, {"pitch": 65, "velocity": 73, "note_on_time": 10.207, "note_off_time": 10.377}, {"pitch": 67, "velocity": 88, "note_on_time": 10.559, "note_off_time": 10.687}, {"pitch": 67, "velocity": 73, "note_on_time": 11.232, "note_off_time": 11.34}, {"pitch": 67, "velocity": 82, "note_on_time": 11.592, "note_off_time": 11.706}, {"pitch": 67, "velocity": 91, "note_on_time": 11.939, "note_off_time": 12.096}]</notes><guidance name="Guidance Mode">None</guidance><error name="Error value">0.022243043478260706</error></trial><trial trial_no="5" timestamp="2022_12_08-11_54_04"><notes name="Played Notes">[{"pitch": 60, "velocity": 63, "note_on_time": 1.393, "note_off_time": 1.517}, {"pitch": 65, "velocity": 55, "note_on_time": 1.736, "note_off_time": 1.886}, {"pitch": 67, "velocity": 49, "note_on_time": 2.104, "note_off_time": 2.18}, {"pitch": 60, "velocity": 82, "note_on_time": 4.091, "note_off_time": 4.231}, {"pitch": 67, "velocity": 75, "note_on_time": 4.43, "note_off_time": 4.561}, {"pitch": 60, "velocity": 89, "note_on_time": 4.778, "note_off_time": 4.882}, {"pitch": 60, "velocity": 79, "note_on_time": 5.148, "note_off_time": 5.254}, {"pitch": 67, "velocity": 82, "note_on_time": 5.494, "note_off_time": 6.017}, {"pitch": 67, "velocity": 74, "note_on_time": 6.878, "note_off_time": 7.046}, {"pitch": 62, "velocity": 77, "note_on_time": 7.22, "note_off_time": 7.39}, {"pitch": 60, "velocity": 71, "note_on_time": 7.574, "note_off_time": 7.698}, {"pitch": 62, "velocity": 79, "note_on_time": 7.923, "note_off_time": 8.061}, {"pitch": 67, "velocity": 72, "note_on_time": 8.257, "note_off_time": 8.431}, {"pitch": 64, "velocity": 82, "note_on_time": 8.592, "note_off_time": 8.717}, {"pitch": 64, "velocity": 88, "note_on_time": 8.954, "note_off_time": 9.089}, {"pitch": 65, "velocity": 91, "note_on_time": 9.272, "note_off_time": 9.399}, {"pitch": 60, "velocity": 82, "note_on_time": 9.667, "note_off_time": 9.81}, {"pitch": 64, "velocity": 68, "note_on_time": 9.977, "note_off_time": 10.088}, {"pitch": 62, "velocity": 43, "note_on_time": 10.296, "note_off_time": 10.368}, {"pitch": 67, "velocity": 74, "note_on_time": 10.871, "note_off_time": 10.996}, {"pitch": 67, "velocity": 89, "note_on_time": 11.211, "note_off_time": 11.312}, {"pitch": 67, "velocity": 91, "note_on_time": 11.544, "note_off_time": 11.638}]</notes><guidance name="Guidance Mode">None</guidance><error name="Error value">0.5226086956521738</error></trial></trials></MIDI>