<MIDI midiNo="2022_10_27-13_50_28"><target_notes><notes name="Note List">[{"pitch": 42, "velocity": 80, "note_on_time": 0.004, "note_off_time": 0.294}, {"pitch": 42, "velocity": 80, "note_on_time": 0.294, "note_off_time": 0.589}, {"pitch": 42, "velocity": 80, "note_on_time": 0.589, "note_off_time": 0.871}, {"pitch": 42, "velocity": 80, "note_on_time": 0.871, "note_off_time": 1.166}, {"pitch": 60, "velocity": 80, "note_on_time": 1.166, "note_off_time": 1.46}, {"pitch": 42, "velocity": 80, "note_on_time": 1.167, "note_off_time": 1.461}, {"pitch": 64, "velocity": 80, "note_on_time": 1.46, "note_off_time": 1.755}, {"pitch": 42, "velocity": 80, "note_on_time": 1.461, "note_off_time": 1.755}, {"pitch": 62, "velocity": 80, "note_on_time": 1.755, "note_off_time": 2.051}, {"pitch": 42, "velocity": 80, "note_on_time": 1.756, "note_off_time": 2.051}, {"pitch": 60, "velocity": 80, "note_on_time": 2.051, "note_off_time": 2.346}, {"pitch": 42, "velocity": 80, "note_on_time": 2.051, "note_off_time": 2.346}, {"pitch": 42, "velocity": 80, "note_on_time": 2.346, "note_off_time": 2.628}, {"pitch": 65, "velocity": 80, "note_on_time": 2.346, "note_off_time": 2.921}, {"pitch": 42, "velocity": 80, "note_on_time": 2.628, "note_off_time": 2.921}, {"pitch": 42, "velocity": 80, "note_on_time": 2.921, "note_off_time": 3.216}, {"pitch": 42, "velocity": 80, "note_on_time": 3.216, "note_off_time": 3.51}, {"pitch": 62, "velocity": 80, "note_on_time": 3.509, "note_off_time": 3.804}, {"pitch": 42, "velocity": 80, "note_on_time": 3.51, "note_off_time": 3.804}, {"pitch": 60, "velocity": 80, "note_on_time": 3.804, "note_off_time": 4.086}, {"pitch": 42, "velocity": 80, "note_on_time": 3.805, "note_off_time": 4.086}, {"pitch": 42, "velocity": 80, "note_on_time": 4.086, "note_off_time": 4.366}, {"pitch": 65, "velocity": 80, "note_on_time": 4.086, "note_off_time": 4.662}, {"pitch": 42, "velocity": 80, "note_on_time": 4.367, "note_off_time": 4.662}, {"pitch": 67, "velocity": 80, "note_on_time": 4.662, "note_off_time": 4.957}, {"pitch": 42, "velocity": 80, "note_on_time": 4.663, "note_off_time": 4.958}, {"pitch": 42, "velocity": 80, "note_on_time": 4.958, "note_off_time": 5.254}, {"pitch": 60, "velocity": 80, "note_on_time": 5.254, "note_off_time": 5.537}, {"pitch": 42, "velocity": 80, "note_on_time": 5.254, "note_off_time": 5.538}, {"pitch": 65, "velocity": 80, "note_on_time": 5.537, "note_off_time": 5.819}, {"pitch": 42, "velocity": 80, "note_on_time": 5.538, "note_off_time": 5.819}, {"pitch": 42, "velocity": 80, "note_on_time": 5.82, "note_off_time": 6.112}, {"pitch": 65, "velocity": 80, "note_on_time": 5.819, "note_off_time": 6.406}, {"pitch": 42, "velocity": 80, "note_on_time": 6.112, "note_off_time": 6.407}, {"pitch": 42, "velocity": 80, "note_on_time": 6.407, "note_off_time": 6.687}, {"pitch": 42, "velocity": 80, "note_on_time": 6.688, "note_off_time": 6.969}, {"pitch": 62, "velocity": 80, "note_on_time": 6.969, "note_off_time": 7.25}, {"pitch": 42, "velocity": 80, "note_on_time": 6.969, "note_off_time": 7.251}, {"pitch": 67, "velocity": 80, "note_on_time": 7.25, "note_off_time": 7.545}, {"pitch": 42, "velocity": 80, "note_on_time": 7.251, "note_off_time": 7.545}, {"pitch": 65, "velocity": 80, "note_on_time": 7.545, "note_off_time": 7.839}, {"pitch": 42, "velocity": 80, "note_on_time": 7.545, "note_off_time": 7.839}, {"pitch": 60, "velocity": 80, "note_on_time": 7.839, "note_off_time": 8.135}, {"pitch": 42, "velocity": 80, "note_on_time": 7.839, "note_off_time": 8.135}, {"pitch": 60, "velocity": 80, "note_on_time": 8.135, "note_off_time": 8.428}, {"pitch": 42, "velocity": 80, "note_on_time": 8.135, "note_off_time": 8.429}, {"pitch": 64, "velocity": 80, "note_on_time": 8.428, "note_off_time": 8.709}, {"pitch": 42, "velocity": 80, "note_on_time": 8.429, "note_off_time": 8.71}, {"pitch": 67, "velocity": 80, "note_on_time": 8.709, "note_off_time": 9.004}, {"pitch": 42, "velocity": 80, "note_on_time": 8.71, "note_off_time": 9.004}, {"pitch": 67, "velocity": 80, "note_on_time": 9.004, "note_off_time": 9.299}, {"pitch": 42, "velocity": 80, "note_on_time": 9.004, "note_off_time": 9.299}, {"pitch": 42, "velocity": 80, "note_on_time": 9.3, "note_off_time": 9.582}, {"pitch": 67, "velocity": 80, "note_on_time": 9.582, "note_off_time": 9.877}, {"pitch": 42, "velocity": 80, "note_on_time": 9.583, "note_off_time": 9.877}, {"pitch": 67, "velocity": 80, "note_on_time": 9.877, "note_off_time": 10.172}, {"pitch": 42, "velocity": 80, "note_on_time": 9.877, "note_off_time": 10.173}, {"pitch": 67, "velocity": 80, "note_on_time": 10.172, "note_off_time": 10.468}, {"pitch": 42, "velocity": 80, "note_on_time": 10.173, "note_off_time": 10.469}]</notes><options name="Option List">((4, 4), [0.5, 0.25], 3, 8, &lt;NoteRangePerHand.C_TO_G: 6&gt;, &lt;NoteRangePerHand.ONE_NOTE: 2&gt;, False, True, False, 215)</options></target_notes><trials><trial trial_no="1" timestamp="2022_10_27-13_50_16"><notes name="Played Notes">[{"pitch": 72, "velocity": 68, "note_on_time": 1.188, "note_off_time": 1.327}, {"pitch": 76, "velocity": 70, "note_on_time": 1.485, "note_off_time": 1.672}, {"pitch": 74, "velocity": 68, "note_on_time": 1.767, "note_off_time": 1.932}, {"pitch": 72, "velocity": 71, "note_on_time": 2.051, "note_off_time": 2.182}, {"pitch": 77, "velocity": 84, "note_on_time": 2.347, "note_off_time": 2.814}, {"pitch": 74, "velocity": 72, "note_on_time": 3.537, "note_off_time": 3.708}, {"pitch": 72, "velocity": 76, "note_on_time": 3.817, "note_off_time": 3.929}, {"pitch": 77, "velocity": 86, "note_on_time": 4.128, "note_off_time": 4.487}, {"pitch": 79, "velocity": 74, "note_on_time": 4.689, "note_off_time": 5.028}, {"pitch": 72, "velocity": 66, "note_on_time": 5.271, "note_off_time": 5.406}, {"pitch": 77, "velocity": 84, "note_on_time": 5.568, "note_off_time": 5.676}, {"pitch": 77, "velocity": 81, "note_on_time": 5.858, "note_off_time": 6.272}, {"pitch": 74, "velocity": 78, "note_on_time": 7.029, "note_off_time": 7.16}, {"pitch": 79, "velocity": 77, "note_on_time": 7.299, "note_off_time": 7.461}, {"pitch": 77, "velocity": 75, "note_on_time": 7.603, "note_off_time": 7.756}, {"pitch": 72, "velocity": 73, "note_on_time": 7.875, "note_off_time": 7.987}, {"pitch": 72, "velocity": 67, "note_on_time": 8.168, "note_off_time": 8.297}, {"pitch": 76, "velocity": 74, "note_on_time": 8.442, "note_off_time": 8.587}, {"pitch": 79, "velocity": 79, "note_on_time": 8.73, "note_off_time": 8.867}, {"pitch": 79, "velocity": 76, "note_on_time": 9.014, "note_off_time": 9.181}, {"pitch": 79, "velocity": 82, "note_on_time": 9.575, "note_off_time": 9.705}, {"pitch": 79, "velocity": 77, "note_on_time": 9.873, "note_off_time": 10.0}, {"pitch": 79, "velocity": 79, "note_on_time": 10.145, "note_off_time": 10.271}]</notes><guidance name="Guidance Mode">None</guidance><error name="Error value">1.1681206499999999</error></trial></trials></MIDI>