<MIDI midiNo="2022_11_03-09_34_40"><target_notes><notes name="Note List">[{"pitch": 42, "velocity": 80, "note_on_time": 0.005, "note_off_time": 0.225}, {"pitch": 42, "velocity": 80, "note_on_time": 0.225, "note_off_time": 0.441}, {"pitch": 42, "velocity": 80, "note_on_time": 0.441, "note_off_time": 0.659}, {"pitch": 42, "velocity": 80, "note_on_time": 0.659, "note_off_time": 0.878}, {"pitch": 67, "velocity": 80, "note_on_time": 0.878, "note_off_time": 1.095}, {"pitch": 42, "velocity": 80, "note_on_time": 0.878, "note_off_time": 1.095}, {"pitch": 62, "velocity": 80, "note_on_time": 1.095, "note_off_time": 1.313}, {"pitch": 42, "velocity": 80, "note_on_time": 1.095, "note_off_time": 1.313}, {"pitch": 64, "velocity": 80, "note_on_time": 1.313, "note_off_time": 1.532}, {"pitch": 42, "velocity": 80, "note_on_time": 1.314, "note_off_time": 1.533}, {"pitch": 64, "velocity": 80, "note_on_time": 1.532, "note_off_time": 1.75}, {"pitch": 42, "velocity": 80, "note_on_time": 1.533, "note_off_time": 1.75}, {"pitch": 42, "velocity": 80, "note_on_time": 1.75, "note_off_time": 1.968}, {"pitch": 64, "velocity": 80, "note_on_time": 1.75, "note_off_time": 2.183}, {"pitch": 42, "velocity": 80, "note_on_time": 1.968, "note_off_time": 2.184}, {"pitch": 42, "velocity": 80, "note_on_time": 2.184, "note_off_time": 2.401}, {"pitch": 64, "velocity": 80, "note_on_time": 2.183, "note_off_time": 2.622}, {"pitch": 42, "velocity": 80, "note_on_time": 2.402, "note_off_time": 2.622}, {"pitch": 64, "velocity": 80, "note_on_time": 2.622, "note_off_time": 2.839}, {"pitch": 42, "velocity": 80, "note_on_time": 2.623, "note_off_time": 2.839}, {"pitch": 67, "velocity": 80, "note_on_time": 2.839, "note_off_time": 3.058}, {"pitch": 42, "velocity": 80, "note_on_time": 2.839, "note_off_time": 3.058}, {"pitch": 65, "velocity": 80, "note_on_time": 3.058, "note_off_time": 3.279}, {"pitch": 42, "velocity": 80, "note_on_time": 3.058, "note_off_time": 3.279}, {"pitch": 64, "velocity": 80, "note_on_time": 3.279, "note_off_time": 3.497}, {"pitch": 42, "velocity": 80, "note_on_time": 3.279, "note_off_time": 3.497}, {"pitch": 67, "velocity": 80, "note_on_time": 3.497, "note_off_time": 3.714}, {"pitch": 42, "velocity": 80, "note_on_time": 3.497, "note_off_time": 3.714}, {"pitch": 65, "velocity": 80, "note_on_time": 3.714, "note_off_time": 3.934}, {"pitch": 42, "velocity": 80, "note_on_time": 3.714, "note_off_time": 3.934}, {"pitch": 67, "velocity": 80, "note_on_time": 3.934, "note_off_time": 4.151}, {"pitch": 42, "velocity": 80, "note_on_time": 3.934, "note_off_time": 4.151}, {"pitch": 67, "velocity": 80, "note_on_time": 4.151, "note_off_time": 4.37}, {"pitch": 42, "velocity": 80, "note_on_time": 4.151, "note_off_time": 4.37}, {"pitch": 62, "velocity": 80, "note_on_time": 4.37, "note_off_time": 4.588}, {"pitch": 42, "velocity": 80, "note_on_time": 4.37, "note_off_time": 4.588}, {"pitch": 64, "velocity": 80, "note_on_time": 4.588, "note_off_time": 4.806}, {"pitch": 42, "velocity": 80, "note_on_time": 4.588, "note_off_time": 4.806}, {"pitch": 62, "velocity": 80, "note_on_time": 4.806, "note_off_time": 5.022}, {"pitch": 42, "velocity": 80, "note_on_time": 4.806, "note_off_time": 5.023}, {"pitch": 62, "velocity": 80, "note_on_time": 5.023, "note_off_time": 5.242}, {"pitch": 42, "velocity": 80, "note_on_time": 5.023, "note_off_time": 5.242}, {"pitch": 65, "velocity": 80, "note_on_time": 5.242, "note_off_time": 5.46}, {"pitch": 42, "velocity": 80, "note_on_time": 5.242, "note_off_time": 5.46}, {"pitch": 62, "velocity": 80, "note_on_time": 5.46, "note_off_time": 5.678}, {"pitch": 42, "velocity": 80, "note_on_time": 5.46, "note_off_time": 5.678}, {"pitch": 64, "velocity": 80, "note_on_time": 5.678, "note_off_time": 5.896}, {"pitch": 42, "velocity": 80, "note_on_time": 5.678, "note_off_time": 5.896}, {"pitch": 62, "velocity": 80, "note_on_time": 5.896, "note_off_time": 6.111}, {"pitch": 42, "velocity": 80, "note_on_time": 5.896, "note_off_time": 6.111}, {"pitch": 67, "velocity": 80, "note_on_time": 6.111, "note_off_time": 6.327}, {"pitch": 42, "velocity": 80, "note_on_time": 6.111, "note_off_time": 6.327}, {"pitch": 67, "velocity": 80, "note_on_time": 6.327, "note_off_time": 6.545}, {"pitch": 42, "velocity": 80, "note_on_time": 6.327, "note_off_time": 6.545}, {"pitch": 65, "velocity": 80, "note_on_time": 6.545, "note_off_time": 6.763}, {"pitch": 42, "velocity": 80, "note_on_time": 6.545, "note_off_time": 6.763}, {"pitch": 65, "velocity": 80, "note_on_time": 6.763, "note_off_time": 6.981}, {"pitch": 42, "velocity": 80, "note_on_time": 6.764, "note_off_time": 6.981}, {"pitch": 42, "velocity": 80, "note_on_time": 6.981, "note_off_time": 7.199}, {"pitch": 65, "velocity": 80, "note_on_time": 7.199, "note_off_time": 7.419}, {"pitch": 42, "velocity": 80, "note_on_time": 7.199, "note_off_time": 7.419}, {"pitch": 65, "velocity": 80, "note_on_time": 7.419, "note_off_time": 7.637}, {"pitch": 42, "velocity": 80, "note_on_time": 7.419, "note_off_time": 7.637}, {"pitch": 65, "velocity": 80, "note_on_time": 7.637, "note_off_time": 7.857}, {"pitch": 42, "velocity": 80, "note_on_time": 7.637, "note_off_time": 7.857}]</notes><options name="Option List">((4, 4), [0.5, 0.25], 3, 8, &lt;NoteRangePerHand.C_TO_G: 6&gt;, &lt;NoteRangePerHand.ONE_NOTE: 2&gt;, False, True, False, 281)</options></target_notes><trials><trial trial_no="1" timestamp="2022_11_03-09_34_31"><notes name="Played Notes">[{"pitch": 67, "velocity": 65, "note_on_time": 0.914, "note_off_time": 1.203}, {"pitch": 62, "velocity": 65, "note_on_time": 1.101, "note_off_time": 1.343}, {"pitch": 64, "velocity": 70, "note_on_time": 1.313, "note_off_time": 1.392}, {"pitch": 64, "velocity": 64, "note_on_time": 1.489, "note_off_time": 1.575}, {"pitch": 64, "velocity": 75, "note_on_time": 1.708, "note_off_time": 2.004}, {"pitch": 64, "velocity": 52, "note_on_time": 2.129, "note_off_time": 2.408}, {"pitch": 64, "velocity": 59, "note_on_time": 2.568, "note_off_time": 2.814}, {"pitch": 67, "velocity": 59, "note_on_time": 2.777, "note_off_time": 3.121}, {"pitch": 65, "velocity": 68, "note_on_time": 3.005, "note_off_time": 3.224}, {"pitch": 64, "velocity": 60, "note_on_time": 3.195, "note_off_time": 3.463}, {"pitch": 67, "velocity": 60, "note_on_time": 3.429, "note_off_time": 3.658}, {"pitch": 65, "velocity": 66, "note_on_time": 3.621, "note_off_time": 3.878}, {"pitch": 67, "velocity": 59, "note_on_time": 3.844, "note_off_time": 3.937}, {"pitch": 67, "velocity": 56, "note_on_time": 4.062, "note_off_time": 4.331}, {"pitch": 62, "velocity": 56, "note_on_time": 4.314, "note_off_time": 4.527}, {"pitch": 64, "velocity": 61, "note_on_time": 4.526, "note_off_time": 4.758}, {"pitch": 62, "velocity": 54, "note_on_time": 4.738, "note_off_time": 4.833}, {"pitch": 62, "velocity": 45, "note_on_time": 4.945, "note_off_time": 5.162}, {"pitch": 65, "velocity": 70, "note_on_time": 5.15, "note_off_time": 5.368}, {"pitch": 62, "velocity": 54, "note_on_time": 5.342, "note_off_time": 5.535}, {"pitch": 64, "velocity": 58, "note_on_time": 5.556, "note_off_time": 5.739}, {"pitch": 62, "velocity": 54, "note_on_time": 5.72, "note_off_time": 5.98}, {"pitch": 67, "velocity": 57, "note_on_time": 5.936, "note_off_time": 5.998}, {"pitch": 67, "velocity": 62, "note_on_time": 6.093, "note_off_time": 6.358}, {"pitch": 65, "velocity": 77, "note_on_time": 6.302, "note_off_time": 6.417}, {"pitch": 65, "velocity": 67, "note_on_time": 6.504, "note_off_time": 6.781}, {"pitch": 65, "velocity": 66, "note_on_time": 6.965, "note_off_time": 7.03}, {"pitch": 65, "velocity": 62, "note_on_time": 7.172, "note_off_time": 7.245}, {"pitch": 65, "velocity": 55, "note_on_time": 7.353, "note_off_time": 7.501}]</notes><guidance name="Guidance Mode">None</guidance><error name="Error value">0.017833115384615524</error></trial><trial trial_no="2" timestamp="2022_11_03-09_34_47"><notes name="Played Notes">[{"pitch": 67, "velocity": 55, "note_on_time": 0.872, "note_off_time": 1.288}, {"pitch": 62, "velocity": 56, "note_on_time": 1.103, "note_off_time": 1.356}, {"pitch": 64, "velocity": 67, "note_on_time": 1.313, "note_off_time": 1.4}, {"pitch": 64, "velocity": 67, "note_on_time": 1.493, "note_off_time": 1.601}, {"pitch": 64, "velocity": 62, "note_on_time": 1.709, "note_off_time": 2.01}, {"pitch": 64, "velocity": 65, "note_on_time": 2.109, "note_off_time": 2.405}, {"pitch": 64, "velocity": 57, "note_on_time": 2.55, "note_off_time": 2.817}, {"pitch": 67, "velocity": 64, "note_on_time": 2.757, "note_off_time": 3.076}, {"pitch": 65, "velocity": 72, "note_on_time": 2.983, "note_off_time": 3.212}, {"pitch": 64, "velocity": 60, "note_on_time": 3.181, "note_off_time": 3.441}, {"pitch": 65, "velocity": 57, "note_on_time": 3.436, "note_off_time": 3.505}, {"pitch": 67, "velocity": 37, "note_on_time": 3.52, "note_off_time": 3.774}, {"pitch": 65, "velocity": 72, "note_on_time": 3.708, "note_off_time": 3.863}, {"pitch": 67, "velocity": 60, "note_on_time": 3.886, "note_off_time": 4.006}, {"pitch": 67, "velocity": 59, "note_on_time": 4.136, "note_off_time": 4.198}, {"pitch": 67, "velocity": 56, "note_on_time": 4.317, "note_off_time": 4.5}, {"pitch": 62, "velocity": 60, "note_on_time": 4.474, "note_off_time": 4.708}, {"pitch": 64, "velocity": 63, "note_on_time": 4.69, "note_off_time": 4.908}, {"pitch": 62, "velocity": 58, "note_on_time": 4.889, "note_off_time": 5.014}, {"pitch": 62, "velocity": 38, "note_on_time": 5.095, "note_off_time": 5.218}, {"pitch": 65, "velocity": 67, "note_on_time": 5.287, "note_off_time": 5.5}, {"pitch": 62, "velocity": 59, "note_on_time": 5.486, "note_off_time": 5.673}, {"pitch": 64, "velocity": 63, "note_on_time": 5.692, "note_off_time": 5.869}, {"pitch": 62, "velocity": 61, "note_on_time": 5.851, "note_off_time": 6.111}, {"pitch": 67, "velocity": 54, "note_on_time": 6.074, "note_off_time": 6.158}, {"pitch": 67, "velocity": 65, "note_on_time": 6.257, "note_off_time": 6.544}, {"pitch": 65, "velocity": 71, "note_on_time": 6.486, "note_off_time": 6.587}, {"pitch": 65, "velocity": 56, "note_on_time": 6.701, "note_off_time": 7.012}, {"pitch": 65, "velocity": 64, "note_on_time": 7.198, "note_off_time": 7.291}, {"pitch": 65, "velocity": 59, "note_on_time": 7.427, "note_off_time": 7.496}, {"pitch": 65, "velocity": 59, "note_on_time": 7.642, "note_off_time": 7.789}]</notes><guidance name="Guidance Mode">None</guidance><error name="Error value">0.4495970384615384</error></trial><trial trial_no="3" timestamp="2022_11_03-09_35_05"><notes name="Played Notes">[{"pitch": 67, "velocity": 59, "note_on_time": 0.878, "note_off_time": 1.275}, {"pitch": 62, "velocity": 45, "note_on_time": 1.121, "note_off_time": 1.358}, {"pitch": 64, "velocity": 70, "note_on_time": 1.319, "note_off_time": 1.413}, {"pitch": 64, "velocity": 72, "note_on_time": 1.503, "note_off_time": 1.61}, {"pitch": 64, "velocity": 68, "note_on_time": 1.738, "note_off_time": 2.055}, {"pitch": 64, "velocity": 59, "note_on_time": 2.159, "note_off_time": 2.446}, {"pitch": 64, "velocity": 53, "note_on_time": 2.576, "note_off_time": 2.82}, {"pitch": 67, "velocity": 58, "note_on_time": 2.791, "note_off_time": 3.102}, {"pitch": 65, "velocity": 62, "note_on_time": 3.029, "note_off_time": 3.217}, {"pitch": 64, "velocity": 54, "note_on_time": 3.222, "note_off_time": 3.457}, {"pitch": 67, "velocity": 61, "note_on_time": 3.434, "note_off_time": 3.666}, {"pitch": 65, "velocity": 71, "note_on_time": 3.634, "note_off_time": 3.895}, {"pitch": 67, "velocity": 58, "note_on_time": 3.861, "note_off_time": 3.958}, {"pitch": 67, "velocity": 69, "note_on_time": 4.063, "note_off_time": 4.284}, {"pitch": 62, "velocity": 66, "note_on_time": 4.288, "note_off_time": 4.476}, {"pitch": 64, "velocity": 60, "note_on_time": 4.493, "note_off_time": 4.7}, {"pitch": 62, "velocity": 63, "note_on_time": 4.679, "note_off_time": 4.775}, {"pitch": 62, "velocity": 52, "note_on_time": 4.881, "note_off_time": 5.079}, {"pitch": 65, "velocity": 62, "note_on_time": 5.076, "note_off_time": 5.251}, {"pitch": 62, "velocity": 51, "note_on_time": 5.234, "note_off_time": 5.434}, {"pitch": 64, "velocity": 54, "note_on_time": 5.46, "note_off_time": 5.633}, {"pitch": 62, "velocity": 56, "note_on_time": 5.62, "note_off_time": 5.896}, {"pitch": 67, "velocity": 53, "note_on_time": 5.839, "note_off_time": 5.909}, {"pitch": 67, "velocity": 57, "note_on_time": 6.012, "note_off_time": 6.243}, {"pitch": 65, "velocity": 75, "note_on_time": 6.228, "note_off_time": 6.343}, {"pitch": 65, "velocity": 65, "note_on_time": 6.432, "note_off_time": 6.757}, {"pitch": 65, "velocity": 63, "note_on_time": 6.941, "note_off_time": 7.009}, {"pitch": 65, "velocity": 55, "note_on_time": 7.144, "note_off_time": 7.215}, {"pitch": 65, "velocity": 46, "note_on_time": 7.355, "note_off_time": 7.507}]</notes><guidance name="Guidance Mode">None</guidance><error name="Error value">0.021181038461538532</error></trial></trials></MIDI>