<MIDI midiNo="2022_10_26-14_04_09"><target_notes><notes name="Note List">[{"pitch": 42, "velocity": 80, "note_on_time": 0.004, "note_off_time": 0.241}, {"pitch": 42, "velocity": 80, "note_on_time": 0.241, "note_off_time": 0.473}, {"pitch": 42, "velocity": 80, "note_on_time": 0.473, "note_off_time": 0.705}, {"pitch": 42, "velocity": 80, "note_on_time": 0.705, "note_off_time": 0.937}, {"pitch": 65, "velocity": 80, "note_on_time": 0.937, "note_off_time": 1.172}, {"pitch": 42, "velocity": 80, "note_on_time": 0.937, "note_off_time": 1.172}, {"pitch": 67, "velocity": 80, "note_on_time": 1.172, "note_off_time": 1.403}, {"pitch": 42, "velocity": 80, "note_on_time": 1.172, "note_off_time": 1.404}, {"pitch": 64, "velocity": 80, "note_on_time": 1.403, "note_off_time": 1.638}, {"pitch": 42, "velocity": 80, "note_on_time": 1.404, "note_off_time": 1.639}, {"pitch": 42, "velocity": 80, "note_on_time": 1.639, "note_off_time": 1.87}, {"pitch": 62, "velocity": 80, "note_on_time": 1.87, "note_off_time": 2.101}, {"pitch": 42, "velocity": 80, "note_on_time": 1.87, "note_off_time": 2.101}, {"pitch": 64, "velocity": 80, "note_on_time": 2.101, "note_off_time": 2.335}, {"pitch": 42, "velocity": 80, "note_on_time": 2.102, "note_off_time": 2.335}, {"pitch": 42, "velocity": 80, "note_on_time": 2.335, "note_off_time": 2.569}, {"pitch": 42, "velocity": 80, "note_on_time": 2.569, "note_off_time": 2.8}, {"pitch": 67, "velocity": 80, "note_on_time": 2.8, "note_off_time": 3.035}, {"pitch": 42, "velocity": 80, "note_on_time": 2.8, "note_off_time": 3.036}, {"pitch": 62, "velocity": 80, "note_on_time": 3.035, "note_off_time": 3.269}, {"pitch": 42, "velocity": 80, "note_on_time": 3.036, "note_off_time": 3.269}, {"pitch": 62, "velocity": 80, "note_on_time": 3.269, "note_off_time": 3.504}, {"pitch": 42, "velocity": 80, "note_on_time": 3.269, "note_off_time": 3.505}, {"pitch": 64, "velocity": 80, "note_on_time": 3.504, "note_off_time": 3.737}, {"pitch": 42, "velocity": 80, "note_on_time": 3.505, "note_off_time": 3.737}, {"pitch": 60, "velocity": 80, "note_on_time": 3.737, "note_off_time": 3.969}, {"pitch": 42, "velocity": 80, "note_on_time": 3.737, "note_off_time": 3.969}, {"pitch": 64, "velocity": 80, "note_on_time": 3.969, "note_off_time": 4.201}, {"pitch": 42, "velocity": 80, "note_on_time": 3.969, "note_off_time": 4.201}, {"pitch": 64, "velocity": 80, "note_on_time": 4.201, "note_off_time": 4.433}, {"pitch": 42, "velocity": 80, "note_on_time": 4.201, "note_off_time": 4.434}, {"pitch": 67, "velocity": 80, "note_on_time": 4.433, "note_off_time": 4.666}, {"pitch": 42, "velocity": 80, "note_on_time": 4.434, "note_off_time": 4.667}, {"pitch": 60, "velocity": 80, "note_on_time": 4.666, "note_off_time": 4.899}, {"pitch": 42, "velocity": 80, "note_on_time": 4.667, "note_off_time": 4.9}, {"pitch": 62, "velocity": 80, "note_on_time": 4.899, "note_off_time": 5.133}, {"pitch": 42, "velocity": 80, "note_on_time": 4.9, "note_off_time": 5.134}, {"pitch": 62, "velocity": 80, "note_on_time": 5.133, "note_off_time": 5.366}, {"pitch": 42, "velocity": 80, "note_on_time": 5.134, "note_off_time": 5.367}, {"pitch": 67, "velocity": 80, "note_on_time": 5.366, "note_off_time": 5.598}, {"pitch": 42, "velocity": 80, "note_on_time": 5.367, "note_off_time": 5.599}, {"pitch": 42, "velocity": 80, "note_on_time": 5.599, "note_off_time": 5.831}, {"pitch": 65, "velocity": 80, "note_on_time": 5.598, "note_off_time": 6.062}, {"pitch": 42, "velocity": 80, "note_on_time": 5.831, "note_off_time": 6.062}, {"pitch": 42, "velocity": 80, "note_on_time": 6.062, "note_off_time": 6.295}, {"pitch": 62, "velocity": 80, "note_on_time": 6.295, "note_off_time": 6.526}, {"pitch": 42, "velocity": 80, "note_on_time": 6.296, "note_off_time": 6.527}, {"pitch": 62, "velocity": 80, "note_on_time": 6.526, "note_off_time": 6.762}, {"pitch": 42, "velocity": 80, "note_on_time": 6.527, "note_off_time": 6.762}, {"pitch": 67, "velocity": 80, "note_on_time": 6.762, "note_off_time": 6.995}, {"pitch": 42, "velocity": 80, "note_on_time": 6.762, "note_off_time": 6.996}, {"pitch": 62, "velocity": 80, "note_on_time": 6.995, "note_off_time": 7.227}, {"pitch": 42, "velocity": 80, "note_on_time": 6.997, "note_off_time": 7.227}, {"pitch": 60, "velocity": 80, "note_on_time": 7.227, "note_off_time": 7.46}, {"pitch": 42, "velocity": 80, "note_on_time": 7.227, "note_off_time": 7.461}, {"pitch": 42, "velocity": 80, "note_on_time": 7.461, "note_off_time": 7.693}, {"pitch": 60, "velocity": 80, "note_on_time": 7.693, "note_off_time": 7.926}, {"pitch": 42, "velocity": 80, "note_on_time": 7.694, "note_off_time": 7.926}, {"pitch": 60, "velocity": 80, "note_on_time": 7.926, "note_off_time": 8.161}, {"pitch": 42, "velocity": 80, "note_on_time": 7.926, "note_off_time": 8.161}, {"pitch": 60, "velocity": 80, "note_on_time": 8.161, "note_off_time": 8.394}, {"pitch": 42, "velocity": 80, "note_on_time": 8.161, "note_off_time": 8.394}]</notes><options name="Option List">((4, 4), [0.5, 0.25], 3, 8, &lt;NoteRangePerHand.C_TO_G: 6&gt;, &lt;NoteRangePerHand.ONE_NOTE: 2&gt;, False, True, True, '265')</options></target_notes><trials><trial trial_no="1" timestamp="2022_10_26-14_03_59"><notes name="Played Notes">[{"pitch": 65, "velocity": 66, "note_on_time": 0.93, "note_off_time": 1.201}, {"pitch": 67, "velocity": 67, "note_on_time": 1.185, "note_off_time": 1.42}, {"pitch": 64, "velocity": 83, "note_on_time": 1.429, "note_off_time": 1.538}, {"pitch": 62, "velocity": 68, "note_on_time": 1.939, "note_off_time": 2.14}, {"pitch": 64, "velocity": 80, "note_on_time": 2.149, "note_off_time": 2.286}, {"pitch": 67, "velocity": 72, "note_on_time": 2.829, "note_off_time": 3.046}, {"pitch": 62, "velocity": 75, "note_on_time": 3.056, "note_off_time": 3.17}, {"pitch": 62, "velocity": 80, "note_on_time": 3.325, "note_off_time": 3.548}, {"pitch": 64, "velocity": 85, "note_on_time": 3.562, "note_off_time": 3.756}, {"pitch": 60, "velocity": 85, "note_on_time": 3.781, "note_off_time": 3.995}, {"pitch": 64, "velocity": 68, "note_on_time": 3.998, "note_off_time": 4.087}, {"pitch": 64, "velocity": 82, "note_on_time": 4.236, "note_off_time": 4.47}, {"pitch": 67, "velocity": 78, "note_on_time": 4.458, "note_off_time": 4.675}, {"pitch": 60, "velocity": 89, "note_on_time": 4.721, "note_off_time": 4.927}, {"pitch": 62, "velocity": 78, "note_on_time": 4.937, "note_off_time": 5.009}, {"pitch": 62, "velocity": 89, "note_on_time": 5.164, "note_off_time": 5.398}, {"pitch": 67, "velocity": 81, "note_on_time": 5.395, "note_off_time": 5.629}, {"pitch": 65, "velocity": 88, "note_on_time": 5.633, "note_off_time": 5.87}, {"pitch": 62, "velocity": 79, "note_on_time": 6.267, "note_off_time": 6.363}, {"pitch": 62, "velocity": 70, "note_on_time": 6.515, "note_off_time": 6.738}, {"pitch": 67, "velocity": 82, "note_on_time": 6.741, "note_off_time": 7.019}, {"pitch": 62, "velocity": 83, "note_on_time": 6.995, "note_off_time": 7.239}, {"pitch": 60, "velocity": 96, "note_on_time": 7.229, "note_off_time": 7.457}, {"pitch": 60, "velocity": 99, "note_on_time": 7.7, "note_off_time": 7.795}, {"pitch": 60, "velocity": 92, "note_on_time": 7.923, "note_off_time": 8.02}, {"pitch": 60, "velocity": 102, "note_on_time": 8.147, "note_off_time": 8.285}]</notes><guidance name="Guidance Mode">None</guidance><error name="Error value">0.017272391304347667</error></trial><trial trial_no="2" timestamp="2022_10_26-14_04_24"><notes name="Played Notes">[{"pitch": 64, "velocity": 76, "note_on_time": 0.967, "note_off_time": 1.218}, {"pitch": 67, "velocity": 75, "note_on_time": 1.216, "note_off_time": 1.455}, {"pitch": 64, "velocity": 81, "note_on_time": 1.451, "note_off_time": 1.619}]</notes><guidance name="Guidance Mode">None</guidance><error name="Error value">1.2362591304347827</error></trial><trial trial_no="3" timestamp="2022_10_26-14_04_46"><notes name="Played Notes">[{"pitch": 64, "velocity": 64, "note_on_time": 0.948, "note_off_time": 1.047}, {"pitch": 67, "velocity": 75, "note_on_time": 1.215, "note_off_time": 1.365}, {"pitch": 64, "velocity": 47, "note_on_time": 1.399, "note_off_time": 1.588}, {"pitch": 62, "velocity": 72, "note_on_time": 1.879, "note_off_time": 2.104}, {"pitch": 64, "velocity": 88, "note_on_time": 2.104, "note_off_time": 2.273}, {"pitch": 67, "velocity": 62, "note_on_time": 2.794, "note_off_time": 3.059}, {"pitch": 62, "velocity": 75, "note_on_time": 3.047, "note_off_time": 3.131}, {"pitch": 62, "velocity": 86, "note_on_time": 3.274, "note_off_time": 3.51}, {"pitch": 64, "velocity": 71, "note_on_time": 3.507, "note_off_time": 3.737}, {"pitch": 60, "velocity": 80, "note_on_time": 3.738, "note_off_time": 3.987}, {"pitch": 64, "velocity": 80, "note_on_time": 3.958, "note_off_time": 4.059}, {"pitch": 64, "velocity": 86, "note_on_time": 4.199, "note_off_time": 4.439}, {"pitch": 67, "velocity": 79, "note_on_time": 4.439, "note_off_time": 4.694}, {"pitch": 60, "velocity": 81, "note_on_time": 4.676, "note_off_time": 4.914}, {"pitch": 62, "velocity": 81, "note_on_time": 4.901, "note_off_time": 4.989}, {"pitch": 62, "velocity": 87, "note_on_time": 5.131, "note_off_time": 5.353}, {"pitch": 67, "velocity": 80, "note_on_time": 5.358, "note_off_time": 5.596}, {"pitch": 65, "velocity": 91, "note_on_time": 5.593, "note_off_time": 5.824}, {"pitch": 62, "velocity": 63, "note_on_time": 6.274, "note_off_time": 6.368}, {"pitch": 62, "velocity": 86, "note_on_time": 6.529, "note_off_time": 6.749}, {"pitch": 67, "velocity": 77, "note_on_time": 6.756, "note_off_time": 7.008}, {"pitch": 62, "velocity": 81, "note_on_time": 7.01, "note_off_time": 7.217}, {"pitch": 60, "velocity": 94, "note_on_time": 7.228, "note_off_time": 7.449}, {"pitch": 60, "velocity": 92, "note_on_time": 7.727, "note_off_time": 7.812}, {"pitch": 60, "velocity": 91, "note_on_time": 7.945, "note_off_time": 8.039}, {"pitch": 60, "velocity": 101, "note_on_time": 8.187, "note_off_time": 8.318}]</notes><guidance name="Guidance Mode">None</guidance><error name="Error value">0.059004999999999926</error></trial><trial trial_no="4" timestamp="2022_10_26-14_05_09"><notes name="Played Notes">[{"pitch": 65, "velocity": 72, "note_on_time": 0.92, "note_off_time": 1.157}, {"pitch": 67, "velocity": 77, "note_on_time": 1.152, "note_off_time": 1.418}, {"pitch": 64, "velocity": 92, "note_on_time": 1.391, "note_off_time": 1.567}, {"pitch": 62, "velocity": 72, "note_on_time": 1.866, "note_off_time": 2.114}, {"pitch": 64, "velocity": 84, "note_on_time": 2.105, "note_off_time": 2.285}, {"pitch": 67, "velocity": 80, "note_on_time": 2.595, "note_off_time": 2.854}, {"pitch": 62, "velocity": 63, "note_on_time": 2.853, "note_off_time": 2.903}, {"pitch": 62, "velocity": 78, "note_on_time": 3.088, "note_off_time": 3.309}, {"pitch": 64, "velocity": 63, "note_on_time": 3.32, "note_off_time": 3.552}, {"pitch": 60, "velocity": 77, "note_on_time": 3.544, "note_off_time": 3.782}, {"pitch": 64, "velocity": 83, "note_on_time": 3.765, "note_off_time": 3.871}, {"pitch": 64, "velocity": 82, "note_on_time": 3.998, "note_off_time": 4.244}, {"pitch": 67, "velocity": 75, "note_on_time": 4.235, "note_off_time": 4.498}, {"pitch": 60, "velocity": 76, "note_on_time": 4.47, "note_off_time": 4.705}, {"pitch": 62, "velocity": 70, "note_on_time": 4.693, "note_off_time": 4.802}, {"pitch": 62, "velocity": 76, "note_on_time": 4.935, "note_off_time": 5.143}, {"pitch": 67, "velocity": 78, "note_on_time": 5.15, "note_off_time": 5.411}, {"pitch": 65, "velocity": 87, "note_on_time": 5.39, "note_off_time": 5.607}, {"pitch": 62, "velocity": 75, "note_on_time": 6.035, "note_off_time": 6.129}, {"pitch": 62, "velocity": 75, "note_on_time": 6.297, "note_off_time": 6.521}, {"pitch": 67, "velocity": 76, "note_on_time": 6.53, "note_off_time": 6.792}, {"pitch": 62, "velocity": 76, "note_on_time": 6.781, "note_off_time": 7.004}, {"pitch": 60, "velocity": 90, "note_on_time": 7.01, "note_off_time": 7.253}, {"pitch": 60, "velocity": 88, "note_on_time": 7.613, "note_off_time": 7.716}, {"pitch": 60, "velocity": 93, "note_on_time": 7.862, "note_off_time": 7.967}, {"pitch": 60, "velocity": 101, "note_on_time": 8.104, "note_off_time": 8.259}]</notes><guidance name="Guidance Mode">None</guidance><error name="Error value">0.028584130434782303</error></trial></trials></MIDI>