<MIDI midiNo="2022_12_22-13_51_34"><target_notes><notes name="Note List">[{"pitch": 42, "velocity": 80, "note_on_time": 0.004, "note_off_time": 0.287}, {"pitch": 42, "velocity": 80, "note_on_time": 0.287, "note_off_time": 0.583}, {"pitch": 42, "velocity": 80, "note_on_time": 0.583, "note_off_time": 0.864}, {"pitch": 42, "velocity": 80, "note_on_time": 0.864, "note_off_time": 1.16}, {"pitch": 42, "velocity": 80, "note_on_time": 1.16, "note_off_time": 1.455}, {"pitch": 62, "velocity": 80, "note_on_time": 1.159, "note_off_time": 1.75}, {"pitch": 42, "velocity": 80, "note_on_time": 1.455, "note_off_time": 1.75}, {"pitch": 42, "velocity": 80, "note_on_time": 1.75, "note_off_time": 2.045}, {"pitch": 42, "velocity": 80, "note_on_time": 2.045, "note_off_time": 2.326}, {"pitch": 64, "velocity": 80, "note_on_time": 2.326, "note_off_time": 2.62}, {"pitch": 42, "velocity": 80, "note_on_time": 2.326, "note_off_time": 2.62}, {"pitch": 62, "velocity": 80, "note_on_time": 2.62, "note_off_time": 2.915}, {"pitch": 42, "velocity": 80, "note_on_time": 2.621, "note_off_time": 2.915}, {"pitch": 62, "velocity": 80, "note_on_time": 2.915, "note_off_time": 3.209}, {"pitch": 42, "velocity": 80, "note_on_time": 2.915, "note_off_time": 3.209}, {"pitch": 62, "velocity": 80, "note_on_time": 3.209, "note_off_time": 3.505}, {"pitch": 42, "velocity": 80, "note_on_time": 3.209, "note_off_time": 3.505}, {"pitch": 64, "velocity": 80, "note_on_time": 3.505, "note_off_time": 3.801}, {"pitch": 42, "velocity": 80, "note_on_time": 3.506, "note_off_time": 3.801}, {"pitch": 60, "velocity": 80, "note_on_time": 3.801, "note_off_time": 4.096}, {"pitch": 42, "velocity": 80, "note_on_time": 3.801, "note_off_time": 4.097}, {"pitch": 60, "velocity": 80, "note_on_time": 4.096, "note_off_time": 4.392}, {"pitch": 42, "velocity": 80, "note_on_time": 4.097, "note_off_time": 4.392}, {"pitch": 64, "velocity": 80, "note_on_time": 4.392, "note_off_time": 4.673}, {"pitch": 42, "velocity": 80, "note_on_time": 4.393, "note_off_time": 4.674}, {"pitch": 60, "velocity": 80, "note_on_time": 4.673, "note_off_time": 4.955}, {"pitch": 42, "velocity": 80, "note_on_time": 4.674, "note_off_time": 4.955}, {"pitch": 42, "velocity": 80, "note_on_time": 4.956, "note_off_time": 5.248}, {"pitch": 64, "velocity": 80, "note_on_time": 4.955, "note_off_time": 5.542}, {"pitch": 42, "velocity": 80, "note_on_time": 5.249, "note_off_time": 5.542}, {"pitch": 60, "velocity": 80, "note_on_time": 5.542, "note_off_time": 5.838}, {"pitch": 42, "velocity": 80, "note_on_time": 5.543, "note_off_time": 5.838}, {"pitch": 60, "velocity": 80, "note_on_time": 5.838, "note_off_time": 6.134}, {"pitch": 42, "velocity": 80, "note_on_time": 5.839, "note_off_time": 6.134}, {"pitch": 62, "velocity": 80, "note_on_time": 6.134, "note_off_time": 6.415}, {"pitch": 42, "velocity": 80, "note_on_time": 6.134, "note_off_time": 6.415}, {"pitch": 42, "velocity": 80, "note_on_time": 6.416, "note_off_time": 6.711}, {"pitch": 62, "velocity": 80, "note_on_time": 6.415, "note_off_time": 7.005}, {"pitch": 42, "velocity": 80, "note_on_time": 6.711, "note_off_time": 7.005}, {"pitch": 42, "velocity": 80, "note_on_time": 7.006, "note_off_time": 7.299}, {"pitch": 64, "velocity": 80, "note_on_time": 7.005, "note_off_time": 7.594}, {"pitch": 42, "velocity": 80, "note_on_time": 7.299, "note_off_time": 7.594}, {"pitch": 42, "velocity": 80, "note_on_time": 7.594, "note_off_time": 7.889}, {"pitch": 42, "velocity": 80, "note_on_time": 7.889, "note_off_time": 8.171}, {"pitch": 62, "velocity": 80, "note_on_time": 8.171, "note_off_time": 8.465}, {"pitch": 42, "velocity": 80, "note_on_time": 8.171, "note_off_time": 8.466}, {"pitch": 62, "velocity": 80, "note_on_time": 8.465, "note_off_time": 8.759}, {"pitch": 42, "velocity": 80, "note_on_time": 8.466, "note_off_time": 8.759}, {"pitch": 60, "velocity": 80, "note_on_time": 8.759, "note_off_time": 9.055}, {"pitch": 42, "velocity": 80, "note_on_time": 8.759, "note_off_time": 9.055}, {"pitch": 64, "velocity": 80, "note_on_time": 9.055, "note_off_time": 9.35}, {"pitch": 42, "velocity": 80, "note_on_time": 9.055, "note_off_time": 9.35}, {"pitch": 42, "velocity": 80, "note_on_time": 9.351, "note_off_time": 9.631}, {"pitch": 64, "velocity": 80, "note_on_time": 9.631, "note_off_time": 9.927}, {"pitch": 42, "velocity": 80, "note_on_time": 9.632, "note_off_time": 9.927}, {"pitch": 64, "velocity": 80, "note_on_time": 9.927, "note_off_time": 10.221}, {"pitch": 42, "velocity": 80, "note_on_time": 9.927, "note_off_time": 10.221}, {"pitch": 64, "velocity": 80, "note_on_time": 10.221, "note_off_time": 10.503}, {"pitch": 42, "velocity": 80, "note_on_time": 10.221, "note_off_time": 10.503}]</notes><options name="Option List">((4, 4), [0.5, 0.25], 3, 8, &lt;NoteRangePerHand.THREE_NOTES: 4&gt;, &lt;NoteRangePerHand.ONE_NOTE: 2&gt;, False, True, False, 215)</options></target_notes><trials><trial trial_no="1" timestamp="2022_12_22-13_51_22"><notes name="Played Notes">[{"pitch": 62, "velocity": 91, "note_on_time": 1.198, "note_off_time": 1.893}, {"pitch": 64, "velocity": 94, "note_on_time": 2.105, "note_off_time": 2.277}, {"pitch": 62, "velocity": 90, "note_on_time": 2.404, "note_off_time": 2.545}, {"pitch": 62, "velocity": 91, "note_on_time": 2.69, "note_off_time": 2.818}, {"pitch": 62, "velocity": 92, "note_on_time": 2.977, "note_off_time": 3.137}, {"pitch": 64, "velocity": 91, "note_on_time": 3.275, "note_off_time": 3.432}, {"pitch": 60, "velocity": 84, "note_on_time": 3.536, "note_off_time": 3.668}, {"pitch": 60, "velocity": 92, "note_on_time": 3.824, "note_off_time": 3.952}, {"pitch": 64, "velocity": 85, "note_on_time": 4.117, "note_off_time": 4.275}, {"pitch": 60, "velocity": 86, "note_on_time": 4.412, "note_off_time": 4.548}, {"pitch": 64, "velocity": 93, "note_on_time": 4.773, "note_off_time": 5.271}, {"pitch": 60, "velocity": 96, "note_on_time": 5.419, "note_off_time": 5.542}, {"pitch": 60, "velocity": 94, "note_on_time": 5.719, "note_off_time": 5.854}, {"pitch": 62, "velocity": 88, "note_on_time": 6.202, "note_off_time": 6.374}, {"pitch": 62, "velocity": 93, "note_on_time": 6.511, "note_off_time": 6.936}, {"pitch": 64, "velocity": 90, "note_on_time": 7.148, "note_off_time": 7.669}, {"pitch": 62, "velocity": 83, "note_on_time": 8.026, "note_off_time": 8.156}, {"pitch": 62, "velocity": 87, "note_on_time": 8.33, "note_off_time": 8.513}, {"pitch": 60, "velocity": 90, "note_on_time": 8.647, "note_off_time": 8.817}, {"pitch": 64, "velocity": 85, "note_on_time": 8.986, "note_off_time": 9.246}, {"pitch": 64, "velocity": 88, "note_on_time": 9.821, "note_off_time": 9.977}, {"pitch": 64, "velocity": 81, "note_on_time": 10.12, "note_off_time": 10.229}]</notes><guidance name="Guidance Mode">None</guidance><error name="Error value">0.12416895000000013</error></trial><trial trial_no="2" timestamp="2022_12_22-13_51_45"><notes name="Played Notes">[{"pitch": 62, "velocity": 93, "note_on_time": 1.334, "note_off_time": 1.859}, {"pitch": 64, "velocity": 86, "note_on_time": 1.996, "note_off_time": 2.214}, {"pitch": 62, "velocity": 89, "note_on_time": 2.346, "note_off_time": 2.533}, {"pitch": 62, "velocity": 83, "note_on_time": 2.662, "note_off_time": 2.818}, {"pitch": 62, "velocity": 87, "note_on_time": 2.959, "note_off_time": 3.13}, {"pitch": 64, "velocity": 92, "note_on_time": 3.248, "note_off_time": 3.429}, {"pitch": 60, "velocity": 86, "note_on_time": 3.538, "note_off_time": 3.672}, {"pitch": 60, "velocity": 90, "note_on_time": 3.835, "note_off_time": 3.974}, {"pitch": 64, "velocity": 84, "note_on_time": 4.114, "note_off_time": 4.27}, {"pitch": 60, "velocity": 87, "note_on_time": 4.411, "note_off_time": 4.559}, {"pitch": 64, "velocity": 86, "note_on_time": 4.7, "note_off_time": 5.182}, {"pitch": 60, "velocity": 90, "note_on_time": 5.361, "note_off_time": 5.472}, {"pitch": 60, "velocity": 88, "note_on_time": 5.669, "note_off_time": 5.822}, {"pitch": 62, "velocity": 79, "note_on_time": 5.955, "note_off_time": 6.12}, {"pitch": 62, "velocity": 96, "note_on_time": 6.268, "note_off_time": 6.772}, {"pitch": 64, "velocity": 94, "note_on_time": 6.943, "note_off_time": 7.273}, {"pitch": 62, "velocity": 98, "note_on_time": 7.669, "note_off_time": 7.826}, {"pitch": 62, "velocity": 91, "note_on_time": 7.975, "note_off_time": 8.178}, {"pitch": 60, "velocity": 87, "note_on_time": 8.29, "note_off_time": 8.463}, {"pitch": 64, "velocity": 93, "note_on_time": 8.619, "note_off_time": 9.03}, {"pitch": 64, "velocity": 88, "note_on_time": 9.327, "note_off_time": 9.419}, {"pitch": 64, "velocity": 75, "note_on_time": 9.659, "note_off_time": 9.744}, {"pitch": 64, "velocity": 91, "note_on_time": 9.963, "note_off_time": 10.065}]</notes><guidance name="Guidance Mode">None</guidance><error name="Error value">0.08335515000000016</error></trial><trial trial_no="3" timestamp="2022_12_22-13_52_05"><notes name="Played Notes">[{"pitch": 62, "velocity": 91, "note_on_time": 1.183, "note_off_time": 1.648}, {"pitch": 64, "velocity": 101, "note_on_time": 1.956, "note_off_time": 2.146}, {"pitch": 62, "velocity": 91, "note_on_time": 2.261, "note_off_time": 2.411}, {"pitch": 62, "velocity": 91, "note_on_time": 2.567, "note_off_time": 2.696}, {"pitch": 62, "velocity": 81, "note_on_time": 2.833, "note_off_time": 3.0}, {"pitch": 64, "velocity": 85, "note_on_time": 3.136, "note_off_time": 3.302}, {"pitch": 60, "velocity": 79, "note_on_time": 3.444, "note_off_time": 3.572}, {"pitch": 60, "velocity": 87, "note_on_time": 3.754, "note_off_time": 3.903}, {"pitch": 64, "velocity": 73, "note_on_time": 4.047, "note_off_time": 4.228}, {"pitch": 60, "velocity": 84, "note_on_time": 4.352, "note_off_time": 4.516}, {"pitch": 64, "velocity": 79, "note_on_time": 4.664, "note_off_time": 5.208}, {"pitch": 60, "velocity": 84, "note_on_time": 5.313, "note_off_time": 5.429}, {"pitch": 60, "velocity": 92, "note_on_time": 5.621, "note_off_time": 5.781}, {"pitch": 62, "velocity": 89, "note_on_time": 5.964, "note_off_time": 6.132}, {"pitch": 62, "velocity": 84, "note_on_time": 6.293, "note_off_time": 6.861}, {"pitch": 64, "velocity": 94, "note_on_time": 7.023, "note_off_time": 7.428}, {"pitch": 62, "velocity": 91, "note_on_time": 7.609, "note_off_time": 7.772}, {"pitch": 62, "velocity": 99, "note_on_time": 7.922, "note_off_time": 8.129}, {"pitch": 60, "velocity": 93, "note_on_time": 8.264, "note_off_time": 8.446}, {"pitch": 62, "velocity": 46, "note_on_time": 8.652, "note_off_time": 8.944}, {"pitch": 64, "velocity": 44, "note_on_time": 8.881, "note_off_time": 9.39}, {"pitch": 64, "velocity": 98, "note_on_time": 9.645, "note_off_time": 9.758}, {"pitch": 64, "velocity": 93, "note_on_time": 9.911, "note_off_time": 10.053}, {"pitch": 64, "velocity": 94, "note_on_time": 10.195, "note_off_time": 10.329}]</notes><guidance name="Guidance Mode">None</guidance><error name="Error value">0.3947189500000003</error></trial></trials></MIDI>