<MIDI midiNo="2022_12_22-12_19_17"><target_notes><notes name="Note List">[{"pitch": 42, "velocity": 80, "note_on_time": 0.004, "note_off_time": 0.258}, {"pitch": 42, "velocity": 80, "note_on_time": 0.259, "note_off_time": 0.509}, {"pitch": 42, "velocity": 80, "note_on_time": 0.509, "note_off_time": 0.759}, {"pitch": 42, "velocity": 80, "note_on_time": 0.759, "note_off_time": 1.005}, {"pitch": 62, "velocity": 80, "note_on_time": 1.005, "note_off_time": 1.254}, {"pitch": 42, "velocity": 80, "note_on_time": 1.005, "note_off_time": 1.255}, {"pitch": 60, "velocity": 80, "note_on_time": 1.254, "note_off_time": 1.505}, {"pitch": 42, "velocity": 80, "note_on_time": 1.255, "note_off_time": 1.505}, {"pitch": 64, "velocity": 80, "note_on_time": 1.505, "note_off_time": 1.752}, {"pitch": 42, "velocity": 80, "note_on_time": 1.505, "note_off_time": 1.753}, {"pitch": 60, "velocity": 80, "note_on_time": 1.752, "note_off_time": 2.002}, {"pitch": 42, "velocity": 80, "note_on_time": 1.753, "note_off_time": 2.002}, {"pitch": 67, "velocity": 80, "note_on_time": 2.002, "note_off_time": 2.252}, {"pitch": 42, "velocity": 80, "note_on_time": 2.002, "note_off_time": 2.252}, {"pitch": 65, "velocity": 80, "note_on_time": 2.252, "note_off_time": 2.501}, {"pitch": 42, "velocity": 80, "note_on_time": 2.252, "note_off_time": 2.502}, {"pitch": 67, "velocity": 80, "note_on_time": 2.501, "note_off_time": 2.751}, {"pitch": 42, "velocity": 80, "note_on_time": 2.502, "note_off_time": 2.751}, {"pitch": 64, "velocity": 80, "note_on_time": 2.751, "note_off_time": 3.001}, {"pitch": 42, "velocity": 80, "note_on_time": 2.752, "note_off_time": 3.001}, {"pitch": 42, "velocity": 80, "note_on_time": 3.001, "note_off_time": 3.249}, {"pitch": 64, "velocity": 80, "note_on_time": 3.001, "note_off_time": 3.497}, {"pitch": 42, "velocity": 80, "note_on_time": 3.249, "note_off_time": 3.497}, {"pitch": 42, "velocity": 80, "note_on_time": 3.498, "note_off_time": 3.747}, {"pitch": 42, "velocity": 80, "note_on_time": 3.747, "note_off_time": 3.995}, {"pitch": 60, "velocity": 80, "note_on_time": 3.995, "note_off_time": 4.245}, {"pitch": 42, "velocity": 80, "note_on_time": 3.995, "note_off_time": 4.246}, {"pitch": 64, "velocity": 80, "note_on_time": 4.245, "note_off_time": 4.495}, {"pitch": 42, "velocity": 80, "note_on_time": 4.246, "note_off_time": 4.495}, {"pitch": 65, "velocity": 80, "note_on_time": 4.495, "note_off_time": 4.742}, {"pitch": 42, "velocity": 80, "note_on_time": 4.495, "note_off_time": 4.743}, {"pitch": 65, "velocity": 80, "note_on_time": 4.742, "note_off_time": 4.991}, {"pitch": 42, "velocity": 80, "note_on_time": 4.743, "note_off_time": 4.991}, {"pitch": 62, "velocity": 80, "note_on_time": 4.991, "note_off_time": 5.239}, {"pitch": 42, "velocity": 80, "note_on_time": 4.991, "note_off_time": 5.24}, {"pitch": 60, "velocity": 80, "note_on_time": 5.239, "note_off_time": 5.489}, {"pitch": 42, "velocity": 80, "note_on_time": 5.241, "note_off_time": 5.489}, {"pitch": 65, "velocity": 80, "note_on_time": 5.489, "note_off_time": 5.737}, {"pitch": 42, "velocity": 80, "note_on_time": 5.489, "note_off_time": 5.737}, {"pitch": 64, "velocity": 80, "note_on_time": 5.737, "note_off_time": 5.988}, {"pitch": 42, "velocity": 80, "note_on_time": 5.737, "note_off_time": 5.988}, {"pitch": 64, "velocity": 80, "note_on_time": 5.988, "note_off_time": 6.236}, {"pitch": 42, "velocity": 80, "note_on_time": 5.989, "note_off_time": 6.237}, {"pitch": 42, "velocity": 80, "note_on_time": 6.237, "note_off_time": 6.485}, {"pitch": 65, "velocity": 80, "note_on_time": 6.236, "note_off_time": 6.732}, {"pitch": 42, "velocity": 80, "note_on_time": 6.485, "note_off_time": 6.733}, {"pitch": 42, "velocity": 80, "note_on_time": 6.733, "note_off_time": 6.982}, {"pitch": 67, "velocity": 80, "note_on_time": 6.982, "note_off_time": 7.232}, {"pitch": 42, "velocity": 80, "note_on_time": 6.982, "note_off_time": 7.232}, {"pitch": 42, "velocity": 80, "note_on_time": 7.233, "note_off_time": 7.482}, {"pitch": 42, "velocity": 80, "note_on_time": 7.482, "note_off_time": 7.73}, {"pitch": 42, "velocity": 80, "note_on_time": 7.73, "note_off_time": 7.98}, {"pitch": 42, "velocity": 80, "note_on_time": 7.98, "note_off_time": 8.23}, {"pitch": 67, "velocity": 80, "note_on_time": 8.229, "note_off_time": 8.481}, {"pitch": 42, "velocity": 80, "note_on_time": 8.23, "note_off_time": 8.481}, {"pitch": 67, "velocity": 80, "note_on_time": 8.481, "note_off_time": 8.731}, {"pitch": 42, "velocity": 80, "note_on_time": 8.481, "note_off_time": 8.731}, {"pitch": 67, "velocity": 80, "note_on_time": 8.731, "note_off_time": 8.981}, {"pitch": 42, "velocity": 80, "note_on_time": 8.731, "note_off_time": 8.981}]</notes><options name="Option List">((4, 4), [0.5, 0.25], 3, 8, &lt;NoteRangePerHand.C_TO_G: 6&gt;, &lt;NoteRangePerHand.ONE_NOTE: 2&gt;, False, True, False, '248')</options></target_notes><trials><trial trial_no="1" timestamp="2022_12_22-12_19_07"><notes name="Played Notes">[{"pitch": 62, "velocity": 73, "note_on_time": 1.019, "note_off_time": 1.239}, {"pitch": 60, "velocity": 69, "note_on_time": 1.24, "note_off_time": 1.484}, {"pitch": 64, "velocity": 61, "note_on_time": 1.498, "note_off_time": 1.748}, {"pitch": 60, "velocity": 68, "note_on_time": 1.753, "note_off_time": 2.012}, {"pitch": 67, "velocity": 64, "note_on_time": 2.006, "note_off_time": 2.305}, {"pitch": 65, "velocity": 63, "note_on_time": 2.281, "note_off_time": 2.532}, {"pitch": 67, "velocity": 72, "note_on_time": 2.548, "note_off_time": 2.8}, {"pitch": 64, "velocity": 60, "note_on_time": 2.784, "note_off_time": 2.897}, {"pitch": 64, "velocity": 63, "note_on_time": 3.01, "note_off_time": 3.463}, {"pitch": 60, "velocity": 86, "note_on_time": 3.682, "note_off_time": 4.159}, {"pitch": 64, "velocity": 56, "note_on_time": 4.136, "note_off_time": 4.302}, {"pitch": 65, "velocity": 67, "note_on_time": 4.396, "note_off_time": 4.521}, {"pitch": 65, "velocity": 60, "note_on_time": 4.66, "note_off_time": 5.005}, {"pitch": 62, "velocity": 45, "note_on_time": 4.975, "note_off_time": 5.235}, {"pitch": 60, "velocity": 76, "note_on_time": 5.247, "note_off_time": 5.49}, {"pitch": 65, "velocity": 58, "note_on_time": 5.536, "note_off_time": 5.776}, {"pitch": 64, "velocity": 53, "note_on_time": 5.744, "note_off_time": 5.93}, {"pitch": 64, "velocity": 67, "note_on_time": 6.016, "note_off_time": 6.203}, {"pitch": 65, "velocity": 69, "note_on_time": 6.234, "note_off_time": 6.426}, {"pitch": 67, "velocity": 65, "note_on_time": 6.467, "note_off_time": 6.598}, {"pitch": 67, "velocity": 59, "note_on_time": 7.703, "note_off_time": 7.812}, {"pitch": 67, "velocity": 62, "note_on_time": 7.921, "note_off_time": 8.034}, {"pitch": 67, "velocity": 63, "note_on_time": 8.171, "note_off_time": 8.349}]</notes><guidance name="Guidance Mode">None</guidance><error name="Error value">0.07391625000000002</error></trial><trial trial_no="2" timestamp="2022_12_22-12_19_51"><notes name="Played Notes">[{"pitch": 62, "velocity": 68, "note_on_time": 1.023, "note_off_time": 1.241}, {"pitch": 60, "velocity": 73, "note_on_time": 1.241, "note_off_time": 1.463}, {"pitch": 64, "velocity": 62, "note_on_time": 1.471, "note_off_time": 1.719}, {"pitch": 60, "velocity": 68, "note_on_time": 1.724, "note_off_time": 1.99}, {"pitch": 67, "velocity": 72, "note_on_time": 1.99, "note_off_time": 2.252}, {"pitch": 65, "velocity": 82, "note_on_time": 2.237, "note_off_time": 2.418}, {"pitch": 67, "velocity": 67, "note_on_time": 2.493, "note_off_time": 2.774}, {"pitch": 64, "velocity": 68, "note_on_time": 2.747, "note_off_time": 2.843}, {"pitch": 64, "velocity": 64, "note_on_time": 2.981, "note_off_time": 3.359}, {"pitch": 60, "velocity": 75, "note_on_time": 3.952, "note_off_time": 4.224}, {"pitch": 64, "velocity": 65, "note_on_time": 4.191, "note_off_time": 4.408}, {"pitch": 65, "velocity": 68, "note_on_time": 4.458, "note_off_time": 4.575}, {"pitch": 65, "velocity": 62, "note_on_time": 4.688, "note_off_time": 4.984}, {"pitch": 62, "velocity": 73, "note_on_time": 4.979, "note_off_time": 5.211}, {"pitch": 60, "velocity": 73, "note_on_time": 5.21, "note_off_time": 5.425}, {"pitch": 65, "velocity": 47, "note_on_time": 5.454, "note_off_time": 5.707}, {"pitch": 64, "velocity": 76, "note_on_time": 5.716, "note_off_time": 5.883}, {"pitch": 64, "velocity": 76, "note_on_time": 5.981, "note_off_time": 6.18}, {"pitch": 65, "velocity": 84, "note_on_time": 6.189, "note_off_time": 6.788}, {"pitch": 67, "velocity": 84, "note_on_time": 7.251, "note_off_time": 7.546}, {"pitch": 67, "velocity": 67, "note_on_time": 8.184, "note_off_time": 8.299}, {"pitch": 67, "velocity": 77, "note_on_time": 8.462, "note_off_time": 8.567}, {"pitch": 67, "velocity": 82, "note_on_time": 8.697, "note_off_time": 8.819}]</notes><guidance name="Guidance Mode">None</guidance><error name="Error value">0.0474162500000002</error></trial><trial trial_no="3" timestamp="2022_12_22-12_20_11"><notes name="Played Notes">[{"pitch": 62, "velocity": 69, "note_on_time": 1.007, "note_off_time": 1.27}, {"pitch": 60, "velocity": 77, "note_on_time": 1.266, "note_off_time": 1.503}, {"pitch": 64, "velocity": 56, "note_on_time": 1.521, "note_off_time": 1.739}, {"pitch": 60, "velocity": 78, "note_on_time": 1.748, "note_off_time": 2.002}, {"pitch": 67, "velocity": 70, "note_on_time": 2.004, "note_off_time": 2.264}, {"pitch": 65, "velocity": 82, "note_on_time": 2.248, "note_off_time": 2.443}, {"pitch": 67, "velocity": 67, "note_on_time": 2.502, "note_off_time": 2.751}, {"pitch": 64, "velocity": 68, "note_on_time": 2.751, "note_off_time": 2.855}, {"pitch": 64, "velocity": 77, "note_on_time": 3.252, "note_off_time": 3.674}, {"pitch": 60, "velocity": 79, "note_on_time": 4.25, "note_off_time": 4.504}, {"pitch": 64, "velocity": 63, "note_on_time": 4.501, "note_off_time": 4.706}, {"pitch": 65, "velocity": 70, "note_on_time": 4.723, "note_off_time": 4.88}, {"pitch": 64, "velocity": 71, "note_on_time": 4.991, "note_off_time": 5.093}, {"pitch": 64, "velocity": 48, "note_on_time": 5.218, "note_off_time": 5.454}, {"pitch": 62, "velocity": 66, "note_on_time": 6.223, "note_off_time": 6.416}, {"pitch": 60, "velocity": 48, "note_on_time": 6.47, "note_off_time": 6.623}, {"pitch": 65, "velocity": 59, "note_on_time": 6.748, "note_off_time": 6.956}, {"pitch": 64, "velocity": 49, "note_on_time": 7.006, "note_off_time": 7.114}, {"pitch": 64, "velocity": 49, "note_on_time": 7.218, "note_off_time": 7.454}, {"pitch": 65, "velocity": 60, "note_on_time": 7.476, "note_off_time": 7.675}, {"pitch": 67, "velocity": 78, "note_on_time": 7.971, "note_off_time": 8.179}]</notes><guidance name="Guidance Mode">None</guidance><error name="Error value">0.62211625</error></trial><trial trial_no="4" timestamp="2022_12_22-12_20_32"><notes name="Played Notes">[{"pitch": 62, "velocity": 69, "note_on_time": 0.97, "note_off_time": 1.213}, {"pitch": 60, "velocity": 64, "note_on_time": 1.211, "note_off_time": 1.47}, {"pitch": 64, "velocity": 72, "note_on_time": 1.476, "note_off_time": 1.739}, {"pitch": 60, "velocity": 70, "note_on_time": 1.716, "note_off_time": 1.97}, {"pitch": 67, "velocity": 60, "note_on_time": 1.979, "note_off_time": 2.24}, {"pitch": 64, "velocity": 76, "note_on_time": 2.24, "note_off_time": 2.491}, {"pitch": 67, "velocity": 1, "note_on_time": 2.584, "note_off_time": 2.864}, {"pitch": 64, "velocity": 62, "note_on_time": 2.85, "note_off_time": 3.278}, {"pitch": 64, "velocity": 66, "note_on_time": 3.365, "note_off_time": 3.669}, {"pitch": 60, "velocity": 76, "note_on_time": 4.271, "note_off_time": 4.517}, {"pitch": 64, "velocity": 66, "note_on_time": 4.5, "note_off_time": 4.691}, {"pitch": 65, "velocity": 72, "note_on_time": 4.721, "note_off_time": 4.834}, {"pitch": 65, "velocity": 59, "note_on_time": 4.987, "note_off_time": 5.219}, {"pitch": 62, "velocity": 67, "note_on_time": 5.236, "note_off_time": 5.447}, {"pitch": 60, "velocity": 61, "note_on_time": 5.472, "note_off_time": 5.681}, {"pitch": 65, "velocity": 62, "note_on_time": 5.71, "note_off_time": 5.958}, {"pitch": 64, "velocity": 65, "note_on_time": 5.976, "note_off_time": 6.097}, {"pitch": 64, "velocity": 64, "note_on_time": 6.239, "note_off_time": 6.445}, {"pitch": 65, "velocity": 85, "note_on_time": 6.464, "note_off_time": 6.799}, {"pitch": 67, "velocity": 69, "note_on_time": 7.283, "note_off_time": 7.53}, {"pitch": 67, "velocity": 74, "note_on_time": 8.349, "note_off_time": 8.453}, {"pitch": 67, "velocity": 69, "note_on_time": 8.639, "note_off_time": 8.752}]</notes><guidance name="Guidance Mode">None</guidance><error name="Error value">0.15954024999999997</error></trial><trial trial_no="5" timestamp="2022_12_22-12_20_56"><notes name="Played Notes">[{"pitch": 62, "velocity": 70, "note_on_time": 1.015, "note_off_time": 1.246}, {"pitch": 60, "velocity": 66, "note_on_time": 1.244, "note_off_time": 1.494}, {"pitch": 64, "velocity": 63, "note_on_time": 1.51, "note_off_time": 1.742}, {"pitch": 60, "velocity": 70, "note_on_time": 1.746, "note_off_time": 1.984}, {"pitch": 67, "velocity": 59, "note_on_time": 1.994, "note_off_time": 2.279}, {"pitch": 65, "velocity": 79, "note_on_time": 2.25, "note_off_time": 2.375}, {"pitch": 67, "velocity": 70, "note_on_time": 2.515, "note_off_time": 2.744}, {"pitch": 64, "velocity": 61, "note_on_time": 2.741, "note_off_time": 3.005}, {"pitch": 64, "velocity": 74, "note_on_time": 3.266, "note_off_time": 3.749}, {"pitch": 60, "velocity": 67, "note_on_time": 4.266, "note_off_time": 4.523}, {"pitch": 64, "velocity": 62, "note_on_time": 4.509, "note_off_time": 4.716}, {"pitch": 65, "velocity": 65, "note_on_time": 4.748, "note_off_time": 4.858}, {"pitch": 65, "velocity": 62, "note_on_time": 4.989, "note_off_time": 5.22}, {"pitch": 64, "velocity": 65, "note_on_time": 5.208, "note_off_time": 5.4}, {"pitch": 62, "velocity": 67, "note_on_time": 5.518, "note_off_time": 5.691}, {"pitch": 60, "velocity": 61, "note_on_time": 5.702, "note_off_time": 5.965}, {"pitch": 65, "velocity": 77, "note_on_time": 5.96, "note_off_time": 6.194}, {"pitch": 64, "velocity": 59, "note_on_time": 6.185, "note_off_time": 6.379}, {"pitch": 67, "velocity": 52, "note_on_time": 6.522, "note_off_time": 6.587}, {"pitch": 64, "velocity": 59, "note_on_time": 6.672, "note_off_time": 6.893}, {"pitch": 65, "velocity": 74, "note_on_time": 6.909, "note_off_time": 7.21}, {"pitch": 67, "velocity": 70, "note_on_time": 7.417, "note_off_time": 7.719}, {"pitch": 67, "velocity": 63, "note_on_time": 8.241, "note_off_time": 8.315}, {"pitch": 67, "velocity": 64, "note_on_time": 8.474, "note_off_time": 8.57}, {"pitch": 67, "velocity": 67, "note_on_time": 8.703, "note_off_time": 8.842}]</notes><guidance name="Guidance Mode">None</guidance><error name="Error value">0.9358032500000003</error></trial></trials></MIDI>