<MIDI midiNo="2022_12_08-10_20_48"><target_notes><notes name="Note List">[{"pitch": 42, "velocity": 80, "note_on_time": 0.004, "note_off_time": 0.266}, {"pitch": 42, "velocity": 80, "note_on_time": 0.266, "note_off_time": 0.532}, {"pitch": 42, "velocity": 80, "note_on_time": 0.533, "note_off_time": 0.8}, {"pitch": 42, "velocity": 80, "note_on_time": 0.8, "note_off_time": 1.067}, {"pitch": 64, "velocity": 80, "note_on_time": 1.066, "note_off_time": 1.33}, {"pitch": 42, "velocity": 80, "note_on_time": 1.067, "note_off_time": 1.33}, {"pitch": 67, "velocity": 80, "note_on_time": 1.33, "note_off_time": 1.595}, {"pitch": 42, "velocity": 80, "note_on_time": 1.33, "note_off_time": 1.595}, {"pitch": 62, "velocity": 80, "note_on_time": 1.595, "note_off_time": 1.859}, {"pitch": 42, "velocity": 80, "note_on_time": 1.596, "note_off_time": 1.859}, {"pitch": 64, "velocity": 80, "note_on_time": 1.859, "note_off_time": 2.124}, {"pitch": 42, "velocity": 80, "note_on_time": 1.859, "note_off_time": 2.124}, {"pitch": 67, "velocity": 80, "note_on_time": 2.124, "note_off_time": 2.389}, {"pitch": 42, "velocity": 80, "note_on_time": 2.124, "note_off_time": 2.389}, {"pitch": 42, "velocity": 80, "note_on_time": 2.389, "note_off_time": 2.656}, {"pitch": 62, "velocity": 80, "note_on_time": 2.389, "note_off_time": 2.92}, {"pitch": 42, "velocity": 80, "note_on_time": 2.656, "note_off_time": 2.92}, {"pitch": 42, "velocity": 80, "note_on_time": 2.921, "note_off_time": 3.184}, {"pitch": 62, "velocity": 80, "note_on_time": 3.184, "note_off_time": 3.45}, {"pitch": 42, "velocity": 80, "note_on_time": 3.185, "note_off_time": 3.451}, {"pitch": 62, "velocity": 80, "note_on_time": 3.45, "note_off_time": 3.717}, {"pitch": 42, "velocity": 80, "note_on_time": 3.451, "note_off_time": 3.717}, {"pitch": 67, "velocity": 80, "note_on_time": 3.717, "note_off_time": 3.982}, {"pitch": 42, "velocity": 80, "note_on_time": 3.717, "note_off_time": 3.983}, {"pitch": 64, "velocity": 80, "note_on_time": 3.982, "note_off_time": 4.246}, {"pitch": 42, "velocity": 80, "note_on_time": 3.983, "note_off_time": 4.247}, {"pitch": 62, "velocity": 80, "note_on_time": 4.246, "note_off_time": 4.513}, {"pitch": 42, "velocity": 80, "note_on_time": 4.247, "note_off_time": 4.514}, {"pitch": 62, "velocity": 80, "note_on_time": 4.513, "note_off_time": 4.779}, {"pitch": 42, "velocity": 80, "note_on_time": 4.514, "note_off_time": 4.779}, {"pitch": 67, "velocity": 80, "note_on_time": 4.779, "note_off_time": 5.043}, {"pitch": 42, "velocity": 80, "note_on_time": 4.779, "note_off_time": 5.043}, {"pitch": 62, "velocity": 80, "note_on_time": 5.043, "note_off_time": 5.308}, {"pitch": 42, "velocity": 80, "note_on_time": 5.043, "note_off_time": 5.308}, {"pitch": 64, "velocity": 80, "note_on_time": 5.308, "note_off_time": 5.572}, {"pitch": 42, "velocity": 80, "note_on_time": 5.308, "note_off_time": 5.572}, {"pitch": 42, "velocity": 80, "note_on_time": 5.573, "note_off_time": 5.838}, {"pitch": 64, "velocity": 80, "note_on_time": 5.572, "note_off_time": 6.101}, {"pitch": 42, "velocity": 80, "note_on_time": 5.839, "note_off_time": 6.101}, {"pitch": 42, "velocity": 80, "note_on_time": 6.101, "note_off_time": 6.367}, {"pitch": 62, "velocity": 80, "note_on_time": 6.366, "note_off_time": 6.634}, {"pitch": 42, "velocity": 80, "note_on_time": 6.367, "note_off_time": 6.634}, {"pitch": 42, "velocity": 80, "note_on_time": 6.634, "note_off_time": 6.9}, {"pitch": 67, "velocity": 80, "note_on_time": 6.634, "note_off_time": 7.165}, {"pitch": 42, "velocity": 80, "note_on_time": 6.9, "note_off_time": 7.165}, {"pitch": 67, "velocity": 80, "note_on_time": 7.165, "note_off_time": 7.431}, {"pitch": 42, "velocity": 80, "note_on_time": 7.165, "note_off_time": 7.432}, {"pitch": 60, "velocity": 80, "note_on_time": 7.432, "note_off_time": 7.695}, {"pitch": 42, "velocity": 80, "note_on_time": 7.432, "note_off_time": 7.695}, {"pitch": 42, "velocity": 80, "note_on_time": 7.695, "note_off_time": 7.962}, {"pitch": 42, "velocity": 80, "note_on_time": 7.962, "note_off_time": 8.225}, {"pitch": 42, "velocity": 80, "note_on_time": 8.225, "note_off_time": 8.491}, {"pitch": 42, "velocity": 80, "note_on_time": 8.491, "note_off_time": 8.756}, {"pitch": 60, "velocity": 80, "note_on_time": 8.756, "note_off_time": 9.02}, {"pitch": 42, "velocity": 80, "note_on_time": 8.757, "note_off_time": 9.02}, {"pitch": 60, "velocity": 80, "note_on_time": 9.02, "note_off_time": 9.287}, {"pitch": 42, "velocity": 80, "note_on_time": 9.021, "note_off_time": 9.287}, {"pitch": 60, "velocity": 80, "note_on_time": 9.287, "note_off_time": 9.551}, {"pitch": 42, "velocity": 80, "note_on_time": 9.287, "note_off_time": 9.551}]</notes><options name="Option List">((4, 4), [0.5, 0.25], 3, 8, &lt;NoteRangePerHand.C_TO_G: 6&gt;, &lt;NoteRangePerHand.ONE_NOTE: 2&gt;, False, True, False, '232')</options></target_notes><trials><trial trial_no="1" timestamp="2022_12_08-10_20_37"><notes name="Played Notes">[{"pitch": 64, "velocity": 71, "note_on_time": 1.112, "note_off_time": 1.383}, {"pitch": 67, "velocity": 67, "note_on_time": 1.378, "note_off_time": 1.628}, {"pitch": 62, "velocity": 63, "note_on_time": 1.626, "note_off_time": 1.927}, {"pitch": 64, "velocity": 67, "note_on_time": 1.899, "note_off_time": 2.213}, {"pitch": 67, "velocity": 73, "note_on_time": 2.188, "note_off_time": 2.435}, {"pitch": 62, "velocity": 69, "note_on_time": 2.436, "note_off_time": 2.864}, {"pitch": 62, "velocity": 60, "note_on_time": 3.193, "note_off_time": 3.313}, {"pitch": 62, "velocity": 49, "note_on_time": 3.453, "note_off_time": 3.695}, {"pitch": 67, "velocity": 52, "note_on_time": 3.71, "note_off_time": 3.958}, {"pitch": 64, "velocity": 53, "note_on_time": 3.967, "note_off_time": 4.209}, {"pitch": 62, "velocity": 62, "note_on_time": 4.345, "note_off_time": 4.522}, {"pitch": 62, "velocity": 65, "note_on_time": 4.591, "note_off_time": 4.903}, {"pitch": 67, "velocity": 72, "note_on_time": 4.925, "note_off_time": 5.144}, {"pitch": 62, "velocity": 59, "note_on_time": 5.15, "note_off_time": 5.373}, {"pitch": 64, "velocity": 62, "note_on_time": 5.436, "note_off_time": 5.566}, {"pitch": 64, "velocity": 55, "note_on_time": 5.675, "note_off_time": 6.127}, {"pitch": 60, "velocity": 64, "note_on_time": 6.432, "note_off_time": 6.58}, {"pitch": 62, "velocity": 39, "note_on_time": 6.724, "note_off_time": 6.794}, {"pitch": 67, "velocity": 66, "note_on_time": 7.177, "note_off_time": 7.302}, {"pitch": 67, "velocity": 70, "note_on_time": 7.459, "note_off_time": 7.657}, {"pitch": 60, "velocity": 46, "note_on_time": 7.735, "note_off_time": 8.061}, {"pitch": 60, "velocity": 59, "note_on_time": 8.714, "note_off_time": 8.843}, {"pitch": 60, "velocity": 72, "note_on_time": 9.049, "note_off_time": 9.166}, {"pitch": 60, "velocity": 89, "note_on_time": 9.309, "note_off_time": 9.484}]</notes><guidance name="Guidance Mode">None</guidance><error name="Error value">0.40762900000000024</error></trial><trial trial_no="2" timestamp="2022_12_08-10_20_58"><notes name="Played Notes">[{"pitch": 64, "velocity": 59, "note_on_time": 1.11, "note_off_time": 1.372}, {"pitch": 67, "velocity": 69, "note_on_time": 1.367, "note_off_time": 1.607}, {"pitch": 62, "velocity": 62, "note_on_time": 1.628, "note_off_time": 1.896}, {"pitch": 64, "velocity": 72, "note_on_time": 1.879, "note_off_time": 2.166}, {"pitch": 67, "velocity": 81, "note_on_time": 2.16, "note_off_time": 2.404}, {"pitch": 62, "velocity": 73, "note_on_time": 2.413, "note_off_time": 2.887}, {"pitch": 62, "velocity": 44, "note_on_time": 3.169, "note_off_time": 3.298}, {"pitch": 62, "velocity": 53, "note_on_time": 3.45, "note_off_time": 3.675}, {"pitch": 67, "velocity": 62, "note_on_time": 3.684, "note_off_time": 3.934}, {"pitch": 64, "velocity": 69, "note_on_time": 3.944, "note_off_time": 4.234}, {"pitch": 62, "velocity": 56, "note_on_time": 4.239, "note_off_time": 4.362}, {"pitch": 62, "velocity": 54, "note_on_time": 4.494, "note_off_time": 4.767}, {"pitch": 67, "velocity": 67, "note_on_time": 4.778, "note_off_time": 5.036}, {"pitch": 62, "velocity": 55, "note_on_time": 5.039, "note_off_time": 5.315}, {"pitch": 64, "velocity": 64, "note_on_time": 5.306, "note_off_time": 5.441}, {"pitch": 64, "velocity": 54, "note_on_time": 5.547, "note_off_time": 6.075}, {"pitch": 62, "velocity": 49, "note_on_time": 6.394, "note_off_time": 6.643}, {"pitch": 67, "velocity": 60, "note_on_time": 6.634, "note_off_time": 6.771}, {"pitch": 67, "velocity": 66, "note_on_time": 6.924, "note_off_time": 7.067}, {"pitch": 67, "velocity": 48, "note_on_time": 7.227, "note_off_time": 7.287}, {"pitch": 62, "velocity": 47, "note_on_time": 7.681, "note_off_time": 8.004}, {"pitch": 60, "velocity": 32, "note_on_time": 8.513, "note_off_time": 8.596}, {"pitch": 60, "velocity": 66, "note_on_time": 8.783, "note_off_time": 8.904}, {"pitch": 60, "velocity": 68, "note_on_time": 9.042, "note_off_time": 9.179}, {"pitch": 60, "velocity": 77, "note_on_time": 9.328, "note_off_time": 9.453}]</notes><guidance name="Guidance Mode">None</guidance><error name="Error value">0.48006900000000025</error></trial><trial trial_no="3" timestamp="2022_12_08-10_21_19"><notes name="Played Notes">[{"pitch": 64, "velocity": 52, "note_on_time": 1.131, "note_off_time": 1.423}, {"pitch": 67, "velocity": 67, "note_on_time": 1.389, "note_off_time": 1.668}, {"pitch": 62, "velocity": 77, "note_on_time": 1.661, "note_off_time": 1.97}, {"pitch": 64, "velocity": 71, "note_on_time": 1.929, "note_off_time": 2.225}, {"pitch": 67, "velocity": 67, "note_on_time": 2.207, "note_off_time": 2.53}, {"pitch": 62, "velocity": 59, "note_on_time": 2.483, "note_off_time": 2.988}, {"pitch": 62, "velocity": 55, "note_on_time": 3.491, "note_off_time": 3.597}, {"pitch": 62, "velocity": 61, "note_on_time": 3.762, "note_off_time": 4.016}, {"pitch": 67, "velocity": 60, "note_on_time": 4.026, "note_off_time": 4.303}, {"pitch": 64, "velocity": 72, "note_on_time": 4.289, "note_off_time": 4.579}, {"pitch": 62, "velocity": 67, "note_on_time": 4.57, "note_off_time": 4.726}, {"pitch": 62, "velocity": 53, "note_on_time": 4.853, "note_off_time": 5.1}, {"pitch": 67, "velocity": 68, "note_on_time": 5.109, "note_off_time": 5.379}, {"pitch": 62, "velocity": 60, "note_on_time": 5.366, "note_off_time": 5.708}, {"pitch": 64, "velocity": 63, "note_on_time": 5.718, "note_off_time": 5.845}, {"pitch": 64, "velocity": 61, "note_on_time": 5.986, "note_off_time": 6.578}, {"pitch": 62, "velocity": 61, "note_on_time": 7.0, "note_off_time": 7.254}, {"pitch": 67, "velocity": 69, "note_on_time": 7.249, "note_off_time": 7.572}, {"pitch": 67, "velocity": 75, "note_on_time": 7.787, "note_off_time": 8.068}, {"pitch": 62, "velocity": 54, "note_on_time": 8.085, "note_off_time": 8.144}, {"pitch": 60, "velocity": 23, "note_on_time": 8.231, "note_off_time": 8.75}, {"pitch": 60, "velocity": 71, "note_on_time": 9.258, "note_off_time": 9.357}]</notes><guidance name="Guidance Mode">None</guidance><error name="Error value">0.19015400000000005</error></trial></trials></MIDI>