<MIDI midiNo="2022_12_08-12_06_56"><target_notes><notes name="Note List">[{"pitch": 42, "velocity": 80, "note_on_time": 0.004, "note_off_time": 0.343}, {"pitch": 42, "velocity": 80, "note_on_time": 0.343, "note_off_time": 0.688}, {"pitch": 42, "velocity": 80, "note_on_time": 0.688, "note_off_time": 1.032}, {"pitch": 42, "velocity": 80, "note_on_time": 1.032, "note_off_time": 1.377}, {"pitch": 42, "velocity": 80, "note_on_time": 1.377, "note_off_time": 1.72}, {"pitch": 67, "velocity": 80, "note_on_time": 1.377, "note_off_time": 2.064}, {"pitch": 42, "velocity": 80, "note_on_time": 1.721, "note_off_time": 2.064}, {"pitch": 42, "velocity": 80, "note_on_time": 2.065, "note_off_time": 2.406}, {"pitch": 65, "velocity": 80, "note_on_time": 2.064, "note_off_time": 2.751}, {"pitch": 42, "velocity": 80, "note_on_time": 2.406, "note_off_time": 2.752}, {"pitch": 62, "velocity": 80, "note_on_time": 2.751, "note_off_time": 3.095}, {"pitch": 42, "velocity": 80, "note_on_time": 2.752, "note_off_time": 3.095}, {"pitch": 65, "velocity": 80, "note_on_time": 3.095, "note_off_time": 3.437}, {"pitch": 42, "velocity": 80, "note_on_time": 3.095, "note_off_time": 3.438}, {"pitch": 64, "velocity": 80, "note_on_time": 3.437, "note_off_time": 3.78}, {"pitch": 42, "velocity": 80, "note_on_time": 3.438, "note_off_time": 3.781}, {"pitch": 64, "velocity": 80, "note_on_time": 3.78, "note_off_time": 4.122}, {"pitch": 42, "velocity": 80, "note_on_time": 3.782, "note_off_time": 4.122}, {"pitch": 60, "velocity": 80, "note_on_time": 4.122, "note_off_time": 4.464}, {"pitch": 42, "velocity": 80, "note_on_time": 4.123, "note_off_time": 4.464}, {"pitch": 65, "velocity": 80, "note_on_time": 4.464, "note_off_time": 4.806}, {"pitch": 42, "velocity": 80, "note_on_time": 4.464, "note_off_time": 4.806}, {"pitch": 62, "velocity": 80, "note_on_time": 4.806, "note_off_time": 5.15}, {"pitch": 42, "velocity": 80, "note_on_time": 4.806, "note_off_time": 5.15}, {"pitch": 64, "velocity": 80, "note_on_time": 5.15, "note_off_time": 5.494}, {"pitch": 42, "velocity": 80, "note_on_time": 5.151, "note_off_time": 5.494}, {"pitch": 65, "velocity": 80, "note_on_time": 5.494, "note_off_time": 5.837}, {"pitch": 42, "velocity": 80, "note_on_time": 5.495, "note_off_time": 5.837}, {"pitch": 65, "velocity": 80, "note_on_time": 5.837, "note_off_time": 6.18}, {"pitch": 42, "velocity": 80, "note_on_time": 5.837, "note_off_time": 6.18}, {"pitch": 64, "velocity": 80, "note_on_time": 6.18, "note_off_time": 6.524}, {"pitch": 42, "velocity": 80, "note_on_time": 6.18, "note_off_time": 6.525}, {"pitch": 67, "velocity": 80, "note_on_time": 6.524, "note_off_time": 6.866}, {"pitch": 42, "velocity": 80, "note_on_time": 6.525, "note_off_time": 6.866}, {"pitch": 60, "velocity": 80, "note_on_time": 6.866, "note_off_time": 7.21}, {"pitch": 42, "velocity": 80, "note_on_time": 6.866, "note_off_time": 7.21}, {"pitch": 42, "velocity": 80, "note_on_time": 7.211, "note_off_time": 7.551}, {"pitch": 65, "velocity": 80, "note_on_time": 7.551, "note_off_time": 7.896}, {"pitch": 42, "velocity": 80, "note_on_time": 7.551, "note_off_time": 7.896}, {"pitch": 65, "velocity": 80, "note_on_time": 7.896, "note_off_time": 8.238}, {"pitch": 42, "velocity": 80, "note_on_time": 7.896, "note_off_time": 8.238}, {"pitch": 62, "velocity": 80, "note_on_time": 8.238, "note_off_time": 8.581}, {"pitch": 42, "velocity": 80, "note_on_time": 8.239, "note_off_time": 8.582}, {"pitch": 67, "velocity": 80, "note_on_time": 8.581, "note_off_time": 8.926}, {"pitch": 42, "velocity": 80, "note_on_time": 8.582, "note_off_time": 8.926}, {"pitch": 42, "velocity": 80, "note_on_time": 8.926, "note_off_time": 9.269}, {"pitch": 67, "velocity": 80, "note_on_time": 8.926, "note_off_time": 9.611}, {"pitch": 42, "velocity": 80, "note_on_time": 9.269, "note_off_time": 9.611}, {"pitch": 42, "velocity": 80, "note_on_time": 9.611, "note_off_time": 9.953}, {"pitch": 64, "velocity": 80, "note_on_time": 9.611, "note_off_time": 10.295}, {"pitch": 42, "velocity": 80, "note_on_time": 9.954, "note_off_time": 10.295}, {"pitch": 64, "velocity": 80, "note_on_time": 10.295, "note_off_time": 10.639}, {"pitch": 42, "velocity": 80, "note_on_time": 10.296, "note_off_time": 10.639}, {"pitch": 64, "velocity": 80, "note_on_time": 10.639, "note_off_time": 10.983}, {"pitch": 42, "velocity": 80, "note_on_time": 10.639, "note_off_time": 10.984}, {"pitch": 42, "velocity": 80, "note_on_time": 10.984, "note_off_time": 11.328}, {"pitch": 64, "velocity": 80, "note_on_time": 11.328, "note_off_time": 11.67}, {"pitch": 42, "velocity": 80, "note_on_time": 11.329, "note_off_time": 11.67}, {"pitch": 64, "velocity": 80, "note_on_time": 11.67, "note_off_time": 12.011}, {"pitch": 42, "velocity": 80, "note_on_time": 11.671, "note_off_time": 12.011}, {"pitch": 64, "velocity": 80, "note_on_time": 12.011, "note_off_time": 12.352}, {"pitch": 42, "velocity": 80, "note_on_time": 12.011, "note_off_time": 12.352}]</notes><options name="Option List">((4, 4), [0.5, 0.25], 3, 8, &lt;NoteRangePerHand.C_TO_G: 6&gt;, &lt;NoteRangePerHand.ONE_NOTE: 2&gt;, False, True, False, 182)</options></target_notes><trials><trial trial_no="1" timestamp="2022_12_08-12_06_42"><notes name="Played Notes">[{"pitch": 67, "velocity": 73, "note_on_time": 1.398, "note_off_time": 1.974}, {"pitch": 65, "velocity": 77, "note_on_time": 2.077, "note_off_time": 2.638}, {"pitch": 62, "velocity": 73, "note_on_time": 2.754, "note_off_time": 3.081}, {"pitch": 65, "velocity": 77, "note_on_time": 3.105, "note_off_time": 3.407}, {"pitch": 64, "velocity": 79, "note_on_time": 3.456, "note_off_time": 3.557}, {"pitch": 64, "velocity": 71, "note_on_time": 3.806, "note_off_time": 3.975}, {"pitch": 60, "velocity": 72, "note_on_time": 4.158, "note_off_time": 4.311}, {"pitch": 65, "velocity": 71, "note_on_time": 4.503, "note_off_time": 4.661}, {"pitch": 62, "velocity": 66, "note_on_time": 4.843, "note_off_time": 5.007}, {"pitch": 64, "velocity": 78, "note_on_time": 5.179, "note_off_time": 5.33}, {"pitch": 65, "velocity": 82, "note_on_time": 5.526, "note_off_time": 5.655}, {"pitch": 65, "velocity": 77, "note_on_time": 5.888, "note_off_time": 6.053}, {"pitch": 64, "velocity": 79, "note_on_time": 6.21, "note_off_time": 6.349}, {"pitch": 67, "velocity": 82, "note_on_time": 6.536, "note_off_time": 6.691}, {"pitch": 60, "velocity": 89, "note_on_time": 6.869, "note_off_time": 7.0}, {"pitch": 65, "velocity": 83, "note_on_time": 7.539, "note_off_time": 7.665}, {"pitch": 65, "velocity": 76, "note_on_time": 7.882, "note_off_time": 8.033}, {"pitch": 62, "velocity": 74, "note_on_time": 8.231, "note_off_time": 8.365}, {"pitch": 67, "velocity": 80, "note_on_time": 8.559, "note_off_time": 8.677}, {"pitch": 67, "velocity": 86, "note_on_time": 8.907, "note_off_time": 9.464}, {"pitch": 64, "velocity": 83, "note_on_time": 9.6, "note_off_time": 10.257}, {"pitch": 64, "velocity": 96, "note_on_time": 10.325, "note_off_time": 10.439}, {"pitch": 64, "velocity": 91, "note_on_time": 10.658, "note_off_time": 10.879}, {"pitch": 64, "velocity": 86, "note_on_time": 11.301, "note_off_time": 11.408}, {"pitch": 64, "velocity": 92, "note_on_time": 11.63, "note_off_time": 11.738}, {"pitch": 64, "velocity": 97, "note_on_time": 11.966, "note_off_time": 12.111}]</notes><guidance name="Guidance Mode">None</guidance><error name="Error value">0.01775086956521727</error></trial><trial trial_no="2" timestamp="2022_12_08-12_07_01"><notes name="Played Notes">[{"pitch": 67, "velocity": 82, "note_on_time": 1.4, "note_off_time": 1.956}, {"pitch": 65, "velocity": 79, "note_on_time": 2.064, "note_off_time": 2.617}, {"pitch": 62, "velocity": 75, "note_on_time": 2.721, "note_off_time": 3.115}, {"pitch": 65, "velocity": 79, "note_on_time": 3.088, "note_off_time": 3.361}, {"pitch": 64, "velocity": 77, "note_on_time": 3.434, "note_off_time": 3.551}, {"pitch": 64, "velocity": 67, "note_on_time": 3.77, "note_off_time": 4.026}, {"pitch": 60, "velocity": 67, "note_on_time": 4.108, "note_off_time": 4.373}, {"pitch": 65, "velocity": 70, "note_on_time": 4.469, "note_off_time": 4.708}, {"pitch": 62, "velocity": 71, "note_on_time": 4.807, "note_off_time": 5.132}, {"pitch": 64, "velocity": 79, "note_on_time": 5.136, "note_off_time": 5.43}, {"pitch": 65, "velocity": 79, "note_on_time": 5.48, "note_off_time": 5.604}, {"pitch": 65, "velocity": 76, "note_on_time": 5.805, "note_off_time": 5.993}, {"pitch": 64, "velocity": 71, "note_on_time": 6.174, "note_off_time": 6.405}, {"pitch": 67, "velocity": 69, "note_on_time": 6.513, "note_off_time": 6.691}, {"pitch": 60, "velocity": 88, "note_on_time": 6.842, "note_off_time": 7.192}, {"pitch": 65, "velocity": 80, "note_on_time": 7.548, "note_off_time": 7.688}, {"pitch": 65, "velocity": 72, "note_on_time": 7.878, "note_off_time": 8.073}, {"pitch": 62, "velocity": 77, "note_on_time": 8.24, "note_off_time": 8.471}, {"pitch": 67, "velocity": 82, "note_on_time": 8.571, "note_off_time": 8.695}, {"pitch": 67, "velocity": 77, "note_on_time": 8.916, "note_off_time": 9.528}, {"pitch": 64, "velocity": 88, "note_on_time": 9.613, "note_off_time": 10.132}, {"pitch": 64, "velocity": 72, "note_on_time": 10.266, "note_off_time": 10.472}, {"pitch": 64, "velocity": 87, "note_on_time": 10.659, "note_off_time": 10.841}, {"pitch": 64, "velocity": 79, "note_on_time": 11.333, "note_off_time": 11.478}, {"pitch": 64, "velocity": 78, "note_on_time": 11.653, "note_off_time": 11.794}, {"pitch": 64, "velocity": 76, "note_on_time": 11.988, "note_off_time": 12.248}]</notes><guidance name="Guidance Mode">None</guidance><error name="Error value">0.018128260869565167</error></trial><trial trial_no="3" timestamp="2022_12_08-12_07_20"><notes name="Played Notes">[{"pitch": 67, "velocity": 73, "note_on_time": 1.373, "note_off_time": 1.977}, {"pitch": 65, "velocity": 84, "note_on_time": 2.083, "note_off_time": 2.656}, {"pitch": 62, "velocity": 73, "note_on_time": 2.744, "note_off_time": 3.077}, {"pitch": 65, "velocity": 72, "note_on_time": 3.115, "note_off_time": 3.394}, {"pitch": 64, "velocity": 72, "note_on_time": 3.454, "note_off_time": 3.558}, {"pitch": 64, "velocity": 70, "note_on_time": 3.796, "note_off_time": 4.101}, {"pitch": 60, "velocity": 50, "note_on_time": 4.172, "note_off_time": 4.453}, {"pitch": 65, "velocity": 70, "note_on_time": 4.524, "note_off_time": 4.814}, {"pitch": 62, "velocity": 65, "note_on_time": 4.843, "note_off_time": 5.194}, {"pitch": 64, "velocity": 76, "note_on_time": 5.169, "note_off_time": 5.476}, {"pitch": 65, "velocity": 80, "note_on_time": 5.509, "note_off_time": 5.604}, {"pitch": 65, "velocity": 65, "note_on_time": 5.845, "note_off_time": 6.031}, {"pitch": 64, "velocity": 75, "note_on_time": 6.179, "note_off_time": 6.408}, {"pitch": 67, "velocity": 74, "note_on_time": 6.506, "note_off_time": 6.664}, {"pitch": 60, "velocity": 85, "note_on_time": 6.83, "note_off_time": 7.13}, {"pitch": 65, "velocity": 79, "note_on_time": 7.522, "note_off_time": 7.652}, {"pitch": 65, "velocity": 79, "note_on_time": 7.84, "note_off_time": 8.01}, {"pitch": 62, "velocity": 81, "note_on_time": 8.2, "note_off_time": 8.428}, {"pitch": 67, "velocity": 80, "note_on_time": 8.551, "note_off_time": 8.72}, {"pitch": 67, "velocity": 75, "note_on_time": 8.904, "note_off_time": 9.429}, {"pitch": 64, "velocity": 81, "note_on_time": 9.576, "note_off_time": 10.213}, {"pitch": 64, "velocity": 77, "note_on_time": 10.311, "note_off_time": 10.484}, {"pitch": 64, "velocity": 90, "note_on_time": 10.653, "note_off_time": 10.805}, {"pitch": 64, "velocity": 86, "note_on_time": 11.312, "note_off_time": 11.454}, {"pitch": 64, "velocity": 82, "note_on_time": 11.613, "note_off_time": 11.753}, {"pitch": 64, "velocity": 88, "note_on_time": 11.969, "note_off_time": 12.073}]</notes><guidance name="Guidance Mode">None</guidance><error name="Error value">0.021867391304347932</error></trial><trial trial_no="4" timestamp="2022_12_08-12_08_13"><notes name="Played Notes">[{"pitch": 60, "velocity": 76, "note_on_time": 1.377, "note_off_time": 1.544}, {"pitch": 64, "velocity": 79, "note_on_time": 1.709, "note_off_time": 1.953}, {"pitch": 65, "velocity": 83, "note_on_time": 2.092, "note_off_time": 2.243}, {"pitch": 65, "velocity": 78, "note_on_time": 2.43, "note_off_time": 2.621}, {"pitch": 64, "velocity": 86, "note_on_time": 2.759, "note_off_time": 2.975}, {"pitch": 62, "velocity": 92, "note_on_time": 3.087, "note_off_time": 3.262}, {"pitch": 60, "velocity": 79, "note_on_time": 4.078, "note_off_time": 4.221}, {"pitch": 67, "velocity": 81, "note_on_time": 4.415, "note_off_time": 4.555}, {"pitch": 60, "velocity": 83, "note_on_time": 4.764, "note_off_time": 4.888}, {"pitch": 60, "velocity": 84, "note_on_time": 5.144, "note_off_time": 5.269}, {"pitch": 67, "velocity": 79, "note_on_time": 5.485, "note_off_time": 6.046}, {"pitch": 67, "velocity": 79, "note_on_time": 6.89, "note_off_time": 7.014}, {"pitch": 67, "velocity": 70, "note_on_time": 7.194, "note_off_time": 7.334}, {"pitch": 62, "velocity": 77, "note_on_time": 7.555, "note_off_time": 7.767}, {"pitch": 60, "velocity": 67, "note_on_time": 7.902, "note_off_time": 8.032}, {"pitch": 62, "velocity": 77, "note_on_time": 8.27, "note_off_time": 8.447}, {"pitch": 67, "velocity": 77, "note_on_time": 8.588, "note_off_time": 8.766}, {"pitch": 64, "velocity": 91, "note_on_time": 8.927, "note_off_time": 9.067}, {"pitch": 64, "velocity": 83, "note_on_time": 9.269, "note_off_time": 9.457}, {"pitch": 65, "velocity": 75, "note_on_time": 9.599, "note_off_time": 9.759}, {"pitch": 60, "velocity": 76, "note_on_time": 9.928, "note_off_time": 10.063}, {"pitch": 65, "velocity": 80, "note_on_time": 10.248, "note_off_time": 10.437}, {"pitch": 67, "velocity": 82, "note_on_time": 10.631, "note_off_time": 10.798}, {"pitch": 67, "velocity": 79, "note_on_time": 11.299, "note_off_time": 11.403}, {"pitch": 67, "velocity": 73, "note_on_time": 11.628, "note_off_time": 11.708}, {"pitch": 67, "velocity": 88, "note_on_time": 11.967, "note_off_time": 12.044}]</notes><guidance name="Guidance Mode">None</guidance><error name="Error value">1.4949569565217387</error></trial><trial trial_no="5" timestamp="2022_12_08-12_08_38"><notes name="Played Notes">[{"pitch": 60, "velocity": 71, "note_on_time": 1.397, "note_off_time": 1.545}, {"pitch": 67, "velocity": 66, "note_on_time": 1.764, "note_off_time": 1.827}, {"pitch": 64, "velocity": 37, "note_on_time": 2.135, "note_off_time": 2.208}, {"pitch": 67, "velocity": 68, "note_on_time": 3.147, "note_off_time": 3.201}, {"pitch": 60, "velocity": 56, "note_on_time": 3.195, "note_off_time": 3.347}, {"pitch": 67, "velocity": 64, "note_on_time": 3.502, "note_off_time": 3.601}, {"pitch": 60, "velocity": 84, "note_on_time": 3.784, "note_off_time": 3.903}, {"pitch": 60, "velocity": 73, "note_on_time": 4.121, "note_off_time": 4.227}, {"pitch": 67, "velocity": 81, "note_on_time": 4.445, "note_off_time": 4.945}, {"pitch": 67, "velocity": 77, "note_on_time": 5.843, "note_off_time": 6.003}, {"pitch": 62, "velocity": 71, "note_on_time": 6.163, "note_off_time": 6.328}, {"pitch": 60, "velocity": 79, "note_on_time": 6.52, "note_off_time": 6.685}, {"pitch": 62, "velocity": 76, "note_on_time": 6.871, "note_off_time": 7.018}, {"pitch": 67, "velocity": 74, "note_on_time": 7.206, "note_off_time": 7.375}, {"pitch": 64, "velocity": 81, "note_on_time": 7.555, "note_off_time": 7.686}, {"pitch": 64, "velocity": 81, "note_on_time": 7.899, "note_off_time": 8.059}, {"pitch": 65, "velocity": 88, "note_on_time": 8.241, "note_off_time": 8.398}, {"pitch": 60, "velocity": 74, "note_on_time": 8.588, "note_off_time": 8.734}, {"pitch": 65, "velocity": 75, "note_on_time": 8.954, "note_off_time": 9.14}, {"pitch": 67, "velocity": 73, "note_on_time": 9.256, "note_off_time": 9.437}, {"pitch": 67, "velocity": 86, "note_on_time": 9.931, "note_off_time": 10.038}, {"pitch": 67, "velocity": 87, "note_on_time": 10.234, "note_off_time": 10.342}, {"pitch": 67, "velocity": 92, "note_on_time": 10.557, "note_off_time": 10.701}]</notes><guidance name="Guidance Mode">None</guidance><error name="Error value">1.2792191304347824</error></trial><trial trial_no="6" timestamp="2022_12_08-12_09_04"><notes name="Played Notes">[{"pitch": 60, "velocity": 81, "note_on_time": 1.368, "note_off_time": 1.503}, {"pitch": 64, "velocity": 76, "note_on_time": 1.682, "note_off_time": 1.848}, {"pitch": 65, "velocity": 70, "note_on_time": 2.097, "note_off_time": 2.278}, {"pitch": 65, "velocity": 66, "note_on_time": 2.407, "note_off_time": 2.582}, {"pitch": 64, "velocity": 82, "note_on_time": 2.735, "note_off_time": 2.921}, {"pitch": 62, "velocity": 93, "note_on_time": 3.073, "note_off_time": 3.24}, {"pitch": 60, "velocity": 84, "note_on_time": 4.093, "note_off_time": 4.277}, {"pitch": 67, "velocity": 81, "note_on_time": 4.445, "note_off_time": 4.601}, {"pitch": 60, "velocity": 89, "note_on_time": 4.806, "note_off_time": 4.959}, {"pitch": 60, "velocity": 87, "note_on_time": 5.167, "note_off_time": 5.329}, {"pitch": 67, "velocity": 84, "note_on_time": 5.487, "note_off_time": 6.035}, {"pitch": 69, "velocity": 46, "note_on_time": 6.901, "note_off_time": 6.988}, {"pitch": 64, "velocity": 87, "note_on_time": 7.321, "note_off_time": 7.416}, {"pitch": 62, "velocity": 71, "note_on_time": 7.599, "note_off_time": 7.736}, {"pitch": 62, "velocity": 53, "note_on_time": 7.919, "note_off_time": 7.977}, {"pitch": 64, "velocity": 68, "note_on_time": 8.093, "note_off_time": 8.24}, {"pitch": 67, "velocity": 73, "note_on_time": 8.415, "note_off_time": 8.553}, {"pitch": 64, "velocity": 77, "note_on_time": 8.717, "note_off_time": 8.841}, {"pitch": 64, "velocity": 84, "note_on_time": 9.029, "note_off_time": 9.249}, {"pitch": 65, "velocity": 77, "note_on_time": 9.611, "note_off_time": 9.771}, {"pitch": 60, "velocity": 79, "note_on_time": 9.925, "note_off_time": 10.047}, {"pitch": 65, "velocity": 78, "note_on_time": 10.272, "note_off_time": 10.436}, {"pitch": 67, "velocity": 90, "note_on_time": 10.616, "note_off_time": 10.806}, {"pitch": 67, "velocity": 87, "note_on_time": 11.304, "note_off_time": 11.433}, {"pitch": 67, "velocity": 92, "note_on_time": 11.648, "note_off_time": 11.763}, {"pitch": 67, "velocity": 101, "note_on_time": 11.972, "note_off_time": 12.122}]</notes><guidance name="Guidance Mode">None</guidance><error name="Error value">1.4850743478260877</error></trial></trials></MIDI>