<MIDI midiNo="2022_12_08-11_45_08"><target_notes><notes name="Note List">[{"pitch": 42, "velocity": 80, "note_on_time": 0.003, "note_off_time": 0.338}, {"pitch": 42, "velocity": 80, "note_on_time": 0.339, "note_off_time": 0.682}, {"pitch": 42, "velocity": 80, "note_on_time": 0.682, "note_off_time": 1.025}, {"pitch": 42, "velocity": 80, "note_on_time": 1.025, "note_off_time": 1.369}, {"pitch": 65, "velocity": 80, "note_on_time": 1.368, "note_off_time": 1.712}, {"pitch": 42, "velocity": 80, "note_on_time": 1.369, "note_off_time": 1.712}, {"pitch": 62, "velocity": 80, "note_on_time": 1.712, "note_off_time": 2.057}, {"pitch": 42, "velocity": 80, "note_on_time": 1.712, "note_off_time": 2.057}, {"pitch": 65, "velocity": 80, "note_on_time": 2.057, "note_off_time": 2.402}, {"pitch": 42, "velocity": 80, "note_on_time": 2.057, "note_off_time": 2.402}, {"pitch": 60, "velocity": 80, "note_on_time": 2.402, "note_off_time": 2.745}, {"pitch": 42, "velocity": 80, "note_on_time": 2.402, "note_off_time": 2.745}, {"pitch": 42, "velocity": 80, "note_on_time": 2.745, "note_off_time": 3.09}, {"pitch": 62, "velocity": 80, "note_on_time": 2.745, "note_off_time": 3.433}, {"pitch": 42, "velocity": 80, "note_on_time": 3.09, "note_off_time": 3.433}, {"pitch": 65, "velocity": 80, "note_on_time": 3.433, "note_off_time": 3.776}, {"pitch": 42, "velocity": 80, "note_on_time": 3.433, "note_off_time": 3.776}, {"pitch": 65, "velocity": 80, "note_on_time": 3.776, "note_off_time": 4.121}, {"pitch": 42, "velocity": 80, "note_on_time": 3.776, "note_off_time": 4.121}, {"pitch": 42, "velocity": 80, "note_on_time": 4.121, "note_off_time": 4.465}, {"pitch": 64, "velocity": 80, "note_on_time": 4.121, "note_off_time": 4.804}, {"pitch": 42, "velocity": 80, "note_on_time": 4.465, "note_off_time": 4.804}, {"pitch": 42, "velocity": 80, "note_on_time": 4.805, "note_off_time": 5.146}, {"pitch": 42, "velocity": 80, "note_on_time": 5.146, "note_off_time": 5.49}, {"pitch": 65, "velocity": 80, "note_on_time": 5.49, "note_off_time": 5.821}, {"pitch": 42, "velocity": 80, "note_on_time": 5.491, "note_off_time": 5.821}, {"pitch": 65, "velocity": 80, "note_on_time": 5.821, "note_off_time": 6.162}, {"pitch": 42, "velocity": 80, "note_on_time": 5.821, "note_off_time": 6.162}, {"pitch": 65, "velocity": 80, "note_on_time": 6.162, "note_off_time": 6.506}, {"pitch": 42, "velocity": 80, "note_on_time": 6.162, "note_off_time": 6.507}, {"pitch": 62, "velocity": 80, "note_on_time": 6.506, "note_off_time": 6.85}, {"pitch": 42, "velocity": 80, "note_on_time": 6.507, "note_off_time": 6.85}, {"pitch": 65, "velocity": 80, "note_on_time": 6.85, "note_off_time": 7.194}, {"pitch": 42, "velocity": 80, "note_on_time": 6.85, "note_off_time": 7.194}, {"pitch": 65, "velocity": 80, "note_on_time": 7.194, "note_off_time": 7.536}, {"pitch": 42, "velocity": 80, "note_on_time": 7.194, "note_off_time": 7.536}, {"pitch": 42, "velocity": 80, "note_on_time": 7.537, "note_off_time": 7.88}, {"pitch": 62, "velocity": 80, "note_on_time": 7.88, "note_off_time": 8.221}, {"pitch": 42, "velocity": 80, "note_on_time": 7.88, "note_off_time": 8.221}, {"pitch": 60, "velocity": 80, "note_on_time": 8.221, "note_off_time": 8.566}, {"pitch": 42, "velocity": 80, "note_on_time": 8.222, "note_off_time": 8.566}, {"pitch": 67, "velocity": 80, "note_on_time": 8.566, "note_off_time": 8.911}, {"pitch": 42, "velocity": 80, "note_on_time": 8.567, "note_off_time": 8.911}, {"pitch": 65, "velocity": 80, "note_on_time": 8.911, "note_off_time": 9.253}, {"pitch": 42, "velocity": 80, "note_on_time": 8.911, "note_off_time": 9.253}, {"pitch": 62, "velocity": 80, "note_on_time": 9.253, "note_off_time": 9.595}, {"pitch": 42, "velocity": 80, "note_on_time": 9.253, "note_off_time": 9.595}, {"pitch": 42, "velocity": 80, "note_on_time": 9.595, "note_off_time": 9.937}, {"pitch": 62, "velocity": 80, "note_on_time": 9.595, "note_off_time": 10.281}, {"pitch": 42, "velocity": 80, "note_on_time": 9.937, "note_off_time": 10.281}, {"pitch": 42, "velocity": 80, "note_on_time": 10.281, "note_off_time": 10.623}, {"pitch": 42, "velocity": 80, "note_on_time": 10.623, "note_off_time": 10.965}, {"pitch": 42, "velocity": 80, "note_on_time": 10.965, "note_off_time": 11.308}, {"pitch": 62, "velocity": 80, "note_on_time": 11.308, "note_off_time": 11.65}, {"pitch": 42, "velocity": 80, "note_on_time": 11.309, "note_off_time": 11.65}, {"pitch": 62, "velocity": 80, "note_on_time": 11.65, "note_off_time": 11.992}, {"pitch": 42, "velocity": 80, "note_on_time": 11.65, "note_off_time": 11.992}, {"pitch": 62, "velocity": 80, "note_on_time": 11.992, "note_off_time": 12.337}, {"pitch": 42, "velocity": 80, "note_on_time": 11.992, "note_off_time": 12.337}]</notes><options name="Option List">((4, 4), [0.5, 0.25], 3, 8, &lt;NoteRangePerHand.C_TO_G: 6&gt;, &lt;NoteRangePerHand.ONE_NOTE: 2&gt;, False, True, False, '182')</options></target_notes><trials><trial trial_no="1" timestamp="2022_12_08-11_44_53"><notes name="Played Notes">[{"pitch": 65, "velocity": 95, "note_on_time": 1.383, "note_off_time": 1.568}, {"pitch": 62, "velocity": 91, "note_on_time": 1.729, "note_off_time": 1.915}, {"pitch": 65, "velocity": 90, "note_on_time": 2.076, "note_off_time": 2.259}, {"pitch": 60, "velocity": 85, "note_on_time": 2.421, "note_off_time": 2.542}, {"pitch": 62, "velocity": 87, "note_on_time": 2.764, "note_off_time": 3.269}, {"pitch": 65, "velocity": 95, "note_on_time": 3.465, "note_off_time": 3.611}, {"pitch": 65, "velocity": 85, "note_on_time": 3.813, "note_off_time": 3.992}, {"pitch": 64, "velocity": 100, "note_on_time": 4.168, "note_off_time": 4.736}, {"pitch": 65, "velocity": 89, "note_on_time": 5.856, "note_off_time": 6.001}, {"pitch": 65, "velocity": 84, "note_on_time": 6.196, "note_off_time": 6.357}, {"pitch": 62, "velocity": 86, "note_on_time": 6.512, "note_off_time": 6.672}, {"pitch": 65, "velocity": 92, "note_on_time": 6.864, "note_off_time": 7.019}, {"pitch": 65, "velocity": 98, "note_on_time": 7.216, "note_off_time": 7.337}, {"pitch": 62, "velocity": 90, "note_on_time": 7.872, "note_off_time": 8.027}, {"pitch": 60, "velocity": 83, "note_on_time": 8.22, "note_off_time": 8.363}, {"pitch": 67, "velocity": 65, "note_on_time": 8.608, "note_off_time": 8.803}, {"pitch": 65, "velocity": 86, "note_on_time": 8.922, "note_off_time": 9.052}, {"pitch": 62, "velocity": 86, "note_on_time": 9.257, "note_off_time": 9.377}, {"pitch": 62, "velocity": 99, "note_on_time": 9.595, "note_off_time": 10.019}, {"pitch": 62, "velocity": 99, "note_on_time": 11.281, "note_off_time": 11.366}, {"pitch": 62, "velocity": 101, "note_on_time": 11.613, "note_off_time": 11.705}, {"pitch": 62, "velocity": 105, "note_on_time": 11.961, "note_off_time": 12.153}]</notes><guidance name="Guidance Mode">None</guidance><error name="Error value">0.08568050000000002</error></trial><trial trial_no="2" timestamp="2022_12_08-11_45_14"><notes name="Played Notes">[{"pitch": 65, "velocity": 83, "note_on_time": 1.37, "note_off_time": 1.55}, {"pitch": 62, "velocity": 88, "note_on_time": 1.7, "note_off_time": 1.876}, {"pitch": 65, "velocity": 82, "note_on_time": 2.008, "note_off_time": 2.203}, {"pitch": 60, "velocity": 92, "note_on_time": 2.371, "note_off_time": 2.497}, {"pitch": 62, "velocity": 96, "note_on_time": 2.741, "note_off_time": 3.228}, {"pitch": 65, "velocity": 74, "note_on_time": 3.534, "note_off_time": 3.702}, {"pitch": 65, "velocity": 84, "note_on_time": 3.86, "note_off_time": 3.999}, {"pitch": 62, "velocity": 72, "note_on_time": 4.199, "note_off_time": 4.348}, {"pitch": 64, "velocity": 76, "note_on_time": 4.409, "note_off_time": 4.729}, {"pitch": 65, "velocity": 89, "note_on_time": 5.519, "note_off_time": 5.66}, {"pitch": 65, "velocity": 89, "note_on_time": 5.866, "note_off_time": 6.008}, {"pitch": 65, "velocity": 87, "note_on_time": 6.174, "note_off_time": 6.323}, {"pitch": 62, "velocity": 85, "note_on_time": 6.525, "note_off_time": 6.677}, {"pitch": 65, "velocity": 98, "note_on_time": 6.879, "note_off_time": 7.06}, {"pitch": 62, "velocity": 87, "note_on_time": 7.592, "note_off_time": 7.776}, {"pitch": 60, "velocity": 87, "note_on_time": 7.916, "note_off_time": 8.058}, {"pitch": 67, "velocity": 83, "note_on_time": 8.25, "note_off_time": 8.427}, {"pitch": 65, "velocity": 82, "note_on_time": 8.59, "note_off_time": 8.733}, {"pitch": 62, "velocity": 78, "note_on_time": 8.951, "note_off_time": 9.141}, {"pitch": 62, "velocity": 102, "note_on_time": 9.29, "note_off_time": 9.79}, {"pitch": 62, "velocity": 96, "note_on_time": 10.955, "note_off_time": 11.049}, {"pitch": 62, "velocity": 102, "note_on_time": 11.294, "note_off_time": 11.378}, {"pitch": 62, "velocity": 108, "note_on_time": 11.639, "note_off_time": 11.77}]</notes><guidance name="Guidance Mode">None</guidance><error name="Error value">0.31859749999999976</error></trial><trial trial_no="3" timestamp="2022_12_08-11_45_34"><notes name="Played Notes">[{"pitch": 65, "velocity": 85, "note_on_time": 1.369, "note_off_time": 1.527}, {"pitch": 62, "velocity": 88, "note_on_time": 1.7, "note_off_time": 1.848}, {"pitch": 65, "velocity": 86, "note_on_time": 2.041, "note_off_time": 2.222}, {"pitch": 60, "velocity": 91, "note_on_time": 2.391, "note_off_time": 2.509}, {"pitch": 62, "velocity": 95, "note_on_time": 2.744, "note_off_time": 3.067}, {"pitch": 65, "velocity": 94, "note_on_time": 3.488, "note_off_time": 3.625}, {"pitch": 65, "velocity": 91, "note_on_time": 3.82, "note_off_time": 3.987}, {"pitch": 64, "velocity": 98, "note_on_time": 4.163, "note_off_time": 4.655}, {"pitch": 65, "velocity": 89, "note_on_time": 5.533, "note_off_time": 5.649}, {"pitch": 65, "velocity": 90, "note_on_time": 5.869, "note_off_time": 6.015}, {"pitch": 62, "velocity": 90, "note_on_time": 6.196, "note_off_time": 6.309}, {"pitch": 62, "velocity": 81, "note_on_time": 6.516, "note_off_time": 6.623}, {"pitch": 65, "velocity": 89, "note_on_time": 6.843, "note_off_time": 6.996}, {"pitch": 65, "velocity": 85, "note_on_time": 7.188, "note_off_time": 7.354}, {"pitch": 62, "velocity": 87, "note_on_time": 7.854, "note_off_time": 8.011}, {"pitch": 60, "velocity": 82, "note_on_time": 8.184, "note_off_time": 8.308}, {"pitch": 67, "velocity": 81, "note_on_time": 8.535, "note_off_time": 8.677}, {"pitch": 65, "velocity": 79, "note_on_time": 8.838, "note_off_time": 8.974}, {"pitch": 62, "velocity": 78, "note_on_time": 9.16, "note_off_time": 9.317}, {"pitch": 62, "velocity": 93, "note_on_time": 9.548, "note_off_time": 10.143}, {"pitch": 62, "velocity": 96, "note_on_time": 11.293, "note_off_time": 11.377}, {"pitch": 62, "velocity": 99, "note_on_time": 11.61, "note_off_time": 11.699}, {"pitch": 62, "velocity": 107, "note_on_time": 11.956, "note_off_time": 12.115}]</notes><guidance name="Guidance Mode">None</guidance><error name="Error value">0.07456349999999987</error></trial></trials></MIDI>