<MIDI midiNo="2022_11_03-10_11_32"><target_notes><notes name="Note List">[{"pitch": 42, "velocity": 80, "note_on_time": 0.005, "note_off_time": 0.759}, {"pitch": 42, "velocity": 80, "note_on_time": 0.759, "note_off_time": 1.523}, {"pitch": 42, "velocity": 80, "note_on_time": 1.524, "note_off_time": 2.285}, {"pitch": 42, "velocity": 80, "note_on_time": 2.285, "note_off_time": 3.051}, {"pitch": 60, "velocity": 80, "note_on_time": 3.051, "note_off_time": 3.814}, {"pitch": 42, "velocity": 80, "note_on_time": 3.051, "note_off_time": 3.814}, {"pitch": 60, "velocity": 80, "note_on_time": 3.814, "note_off_time": 4.576}, {"pitch": 42, "velocity": 80, "note_on_time": 3.815, "note_off_time": 4.576}, {"pitch": 62, "velocity": 80, "note_on_time": 4.576, "note_off_time": 5.34}, {"pitch": 42, "velocity": 80, "note_on_time": 4.577, "note_off_time": 5.34}, {"pitch": 60, "velocity": 80, "note_on_time": 5.34, "note_off_time": 6.102}, {"pitch": 42, "velocity": 80, "note_on_time": 5.34, "note_off_time": 6.102}, {"pitch": 60, "velocity": 80, "note_on_time": 6.102, "note_off_time": 6.865}, {"pitch": 42, "velocity": 80, "note_on_time": 6.103, "note_off_time": 6.865}, {"pitch": 60, "velocity": 80, "note_on_time": 6.865, "note_off_time": 7.629}, {"pitch": 42, "velocity": 80, "note_on_time": 6.866, "note_off_time": 7.629}, {"pitch": 62, "velocity": 80, "note_on_time": 7.629, "note_off_time": 8.391}, {"pitch": 42, "velocity": 80, "note_on_time": 7.629, "note_off_time": 8.391}, {"pitch": 62, "velocity": 80, "note_on_time": 8.391, "note_off_time": 9.15}, {"pitch": 42, "velocity": 80, "note_on_time": 8.391, "note_off_time": 9.15}, {"pitch": 60, "velocity": 80, "note_on_time": 9.15, "note_off_time": 9.911}, {"pitch": 42, "velocity": 80, "note_on_time": 9.151, "note_off_time": 9.912}, {"pitch": 62, "velocity": 80, "note_on_time": 9.911, "note_off_time": 10.677}, {"pitch": 42, "velocity": 80, "note_on_time": 9.912, "note_off_time": 10.677}, {"pitch": 60, "velocity": 80, "note_on_time": 10.677, "note_off_time": 11.438}, {"pitch": 42, "velocity": 80, "note_on_time": 10.678, "note_off_time": 11.438}, {"pitch": 60, "velocity": 80, "note_on_time": 11.438, "note_off_time": 12.202}, {"pitch": 42, "velocity": 80, "note_on_time": 11.439, "note_off_time": 12.203}, {"pitch": 60, "velocity": 80, "note_on_time": 12.202, "note_off_time": 12.966}, {"pitch": 42, "velocity": 80, "note_on_time": 12.203, "note_off_time": 12.967}, {"pitch": 42, "velocity": 80, "note_on_time": 12.967, "note_off_time": 13.728}, {"pitch": 42, "velocity": 80, "note_on_time": 13.729, "note_off_time": 14.49}, {"pitch": 42, "velocity": 80, "note_on_time": 14.491, "note_off_time": 15.254}, {"pitch": 62, "velocity": 80, "note_on_time": 15.254, "note_off_time": 16.014}, {"pitch": 42, "velocity": 80, "note_on_time": 15.255, "note_off_time": 16.015}, {"pitch": 62, "velocity": 80, "note_on_time": 16.014, "note_off_time": 16.777}, {"pitch": 42, "velocity": 80, "note_on_time": 16.015, "note_off_time": 16.777}, {"pitch": 42, "velocity": 80, "note_on_time": 16.777, "note_off_time": 17.543}, {"pitch": 42, "velocity": 80, "note_on_time": 17.544, "note_off_time": 18.308}, {"pitch": 60, "velocity": 80, "note_on_time": 18.308, "note_off_time": 19.073}, {"pitch": 42, "velocity": 80, "note_on_time": 18.308, "note_off_time": 19.074}, {"pitch": 42, "velocity": 80, "note_on_time": 19.074, "note_off_time": 19.825}, {"pitch": 42, "velocity": 80, "note_on_time": 19.825, "note_off_time": 20.59}, {"pitch": 42, "velocity": 80, "note_on_time": 20.59, "note_off_time": 21.353}, {"pitch": 60, "velocity": 80, "note_on_time": 21.352, "note_off_time": 22.114}, {"pitch": 42, "velocity": 80, "note_on_time": 21.353, "note_off_time": 22.114}, {"pitch": 60, "velocity": 80, "note_on_time": 22.114, "note_off_time": 22.88}, {"pitch": 42, "velocity": 80, "note_on_time": 22.114, "note_off_time": 22.88}, {"pitch": 60, "velocity": 80, "note_on_time": 22.88, "note_off_time": 23.64}, {"pitch": 42, "velocity": 80, "note_on_time": 22.88, "note_off_time": 23.64}, {"pitch": 60, "velocity": 80, "note_on_time": 23.64, "note_off_time": 24.403}, {"pitch": 42, "velocity": 80, "note_on_time": 23.641, "note_off_time": 24.403}, {"pitch": 42, "velocity": 80, "note_on_time": 24.404, "note_off_time": 25.165}, {"pitch": 60, "velocity": 80, "note_on_time": 25.165, "note_off_time": 25.916}, {"pitch": 42, "velocity": 80, "note_on_time": 25.165, "note_off_time": 25.917}, {"pitch": 60, "velocity": 80, "note_on_time": 25.916, "note_off_time": 26.681}, {"pitch": 42, "velocity": 80, "note_on_time": 25.917, "note_off_time": 26.681}, {"pitch": 60, "velocity": 80, "note_on_time": 26.681, "note_off_time": 27.442}, {"pitch": 42, "velocity": 80, "note_on_time": 26.681, "note_off_time": 27.442}]</notes><options name="Option List">((4, 4), [0.25], 3, 8, &lt;NoteRangePerHand.TWO_NOTES: 3&gt;, &lt;NoteRangePerHand.ONE_NOTE: 2&gt;, False, True, False, '80')</options></target_notes><trials><trial trial_no="1" timestamp="2022_11_03-10_11_03"><notes name="Played Notes">[{"pitch": 60, "velocity": 76, "note_on_time": 3.059, "note_off_time": 3.558}, {"pitch": 60, "velocity": 66, "note_on_time": 3.779, "note_off_time": 4.658}, {"pitch": 62, "velocity": 62, "note_on_time": 4.658, "note_off_time": 5.193}, {"pitch": 60, "velocity": 72, "note_on_time": 5.305, "note_off_time": 5.793}, {"pitch": 60, "velocity": 76, "note_on_time": 6.052, "note_off_time": 6.446}, {"pitch": 60, "velocity": 81, "note_on_time": 6.788, "note_off_time": 7.304}, {"pitch": 62, "velocity": 65, "note_on_time": 7.556, "note_off_time": 7.996}, {"pitch": 62, "velocity": 65, "note_on_time": 8.288, "note_off_time": 8.766}, {"pitch": 60, "velocity": 65, "note_on_time": 9.102, "note_off_time": 9.638}, {"pitch": 62, "velocity": 62, "note_on_time": 9.884, "note_off_time": 10.357}, {"pitch": 60, "velocity": 64, "note_on_time": 10.623, "note_off_time": 11.11}, {"pitch": 60, "velocity": 65, "note_on_time": 11.412, "note_off_time": 11.742}, {"pitch": 60, "velocity": 78, "note_on_time": 12.138, "note_off_time": 12.586}, {"pitch": 62, "velocity": 66, "note_on_time": 15.222, "note_off_time": 15.629}, {"pitch": 62, "velocity": 66, "note_on_time": 15.97, "note_off_time": 16.357}, {"pitch": 60, "velocity": 73, "note_on_time": 18.248, "note_off_time": 18.641}, {"pitch": 60, "velocity": 66, "note_on_time": 21.299, "note_off_time": 21.84}, {"pitch": 60, "velocity": 71, "note_on_time": 22.09, "note_off_time": 22.603}, {"pitch": 60, "velocity": 57, "note_on_time": 22.842, "note_off_time": 23.305}, {"pitch": 60, "velocity": 69, "note_on_time": 23.601, "note_off_time": 24.071}, {"pitch": 60, "velocity": 79, "note_on_time": 25.105, "note_off_time": 25.577}, {"pitch": 60, "velocity": 66, "note_on_time": 25.882, "note_off_time": 26.31}, {"pitch": 60, "velocity": 67, "note_on_time": 26.645, "note_off_time": 27.222}]</notes><guidance name="Guidance Mode">None</guidance><error name="Error value">0.03730000000000007</error></trial></trials></MIDI>