<MIDI midiNo="2022_10_26-14_11_30"><target_notes><notes name="Note List">[{"pitch": 42, "velocity": 80, "note_on_time": 0.004, "note_off_time": 0.232}, {"pitch": 42, "velocity": 80, "note_on_time": 0.232, "note_off_time": 0.449}, {"pitch": 42, "velocity": 80, "note_on_time": 0.449, "note_off_time": 0.666}, {"pitch": 42, "velocity": 80, "note_on_time": 0.666, "note_off_time": 0.883}, {"pitch": 62, "velocity": 80, "note_on_time": 0.883, "note_off_time": 1.101}, {"pitch": 42, "velocity": 80, "note_on_time": 0.883, "note_off_time": 1.101}, {"pitch": 62, "velocity": 80, "note_on_time": 1.101, "note_off_time": 1.321}, {"pitch": 42, "velocity": 80, "note_on_time": 1.101, "note_off_time": 1.321}, {"pitch": 62, "velocity": 80, "note_on_time": 1.321, "note_off_time": 1.538}, {"pitch": 42, "velocity": 80, "note_on_time": 1.321, "note_off_time": 1.539}, {"pitch": 64, "velocity": 80, "note_on_time": 1.538, "note_off_time": 1.758}, {"pitch": 42, "velocity": 80, "note_on_time": 1.539, "note_off_time": 1.76}, {"pitch": 65, "velocity": 80, "note_on_time": 1.758, "note_off_time": 1.974}, {"pitch": 42, "velocity": 80, "note_on_time": 1.76, "note_off_time": 1.974}, {"pitch": 60, "velocity": 80, "note_on_time": 1.974, "note_off_time": 2.193}, {"pitch": 42, "velocity": 80, "note_on_time": 1.974, "note_off_time": 2.193}, {"pitch": 64, "velocity": 80, "note_on_time": 2.193, "note_off_time": 2.411}, {"pitch": 42, "velocity": 80, "note_on_time": 2.193, "note_off_time": 2.411}, {"pitch": 64, "velocity": 80, "note_on_time": 2.411, "note_off_time": 2.63}, {"pitch": 42, "velocity": 80, "note_on_time": 2.411, "note_off_time": 2.63}, {"pitch": 64, "velocity": 80, "note_on_time": 2.63, "note_off_time": 2.848}, {"pitch": 42, "velocity": 80, "note_on_time": 2.63, "note_off_time": 2.848}, {"pitch": 60, "velocity": 80, "note_on_time": 2.848, "note_off_time": 3.065}, {"pitch": 42, "velocity": 80, "note_on_time": 2.848, "note_off_time": 3.065}, {"pitch": 65, "velocity": 80, "note_on_time": 3.065, "note_off_time": 3.283}, {"pitch": 42, "velocity": 80, "note_on_time": 3.065, "note_off_time": 3.283}, {"pitch": 60, "velocity": 80, "note_on_time": 3.283, "note_off_time": 3.5}, {"pitch": 42, "velocity": 80, "note_on_time": 3.283, "note_off_time": 3.5}, {"pitch": 42, "velocity": 80, "note_on_time": 3.5, "note_off_time": 3.719}, {"pitch": 60, "velocity": 80, "note_on_time": 3.5, "note_off_time": 3.937}, {"pitch": 42, "velocity": 80, "note_on_time": 3.719, "note_off_time": 3.937}, {"pitch": 60, "velocity": 80, "note_on_time": 3.937, "note_off_time": 4.155}, {"pitch": 42, "velocity": 80, "note_on_time": 3.937, "note_off_time": 4.155}, {"pitch": 42, "velocity": 80, "note_on_time": 4.155, "note_off_time": 4.374}, {"pitch": 65, "velocity": 80, "note_on_time": 4.374, "note_off_time": 4.591}, {"pitch": 42, "velocity": 80, "note_on_time": 4.374, "note_off_time": 4.591}, {"pitch": 64, "velocity": 80, "note_on_time": 4.591, "note_off_time": 4.809}, {"pitch": 42, "velocity": 80, "note_on_time": 4.591, "note_off_time": 4.809}, {"pitch": 65, "velocity": 80, "note_on_time": 4.809, "note_off_time": 5.029}, {"pitch": 42, "velocity": 80, "note_on_time": 4.809, "note_off_time": 5.029}, {"pitch": 67, "velocity": 80, "note_on_time": 5.029, "note_off_time": 5.245}, {"pitch": 42, "velocity": 80, "note_on_time": 5.029, "note_off_time": 5.245}, {"pitch": 62, "velocity": 80, "note_on_time": 5.245, "note_off_time": 5.465}, {"pitch": 42, "velocity": 80, "note_on_time": 5.245, "note_off_time": 5.465}, {"pitch": 60, "velocity": 80, "note_on_time": 5.465, "note_off_time": 5.683}, {"pitch": 42, "velocity": 80, "note_on_time": 5.466, "note_off_time": 5.683}, {"pitch": 67, "velocity": 80, "note_on_time": 5.683, "note_off_time": 5.9}, {"pitch": 42, "velocity": 80, "note_on_time": 5.683, "note_off_time": 5.9}, {"pitch": 67, "velocity": 80, "note_on_time": 5.9, "note_off_time": 6.118}, {"pitch": 42, "velocity": 80, "note_on_time": 5.901, "note_off_time": 6.118}, {"pitch": 64, "velocity": 80, "note_on_time": 6.118, "note_off_time": 6.336}, {"pitch": 42, "velocity": 80, "note_on_time": 6.118, "note_off_time": 6.336}, {"pitch": 67, "velocity": 80, "note_on_time": 6.336, "note_off_time": 6.553}, {"pitch": 42, "velocity": 80, "note_on_time": 6.336, "note_off_time": 6.554}, {"pitch": 62, "velocity": 80, "note_on_time": 6.553, "note_off_time": 6.769}, {"pitch": 42, "velocity": 80, "note_on_time": 6.554, "note_off_time": 6.77}, {"pitch": 62, "velocity": 80, "note_on_time": 6.769, "note_off_time": 6.986}, {"pitch": 42, "velocity": 80, "note_on_time": 6.77, "note_off_time": 6.987}, {"pitch": 42, "velocity": 80, "note_on_time": 6.987, "note_off_time": 7.203}, {"pitch": 62, "velocity": 80, "note_on_time": 7.203, "note_off_time": 7.422}, {"pitch": 42, "velocity": 80, "note_on_time": 7.203, "note_off_time": 7.422}, {"pitch": 62, "velocity": 80, "note_on_time": 7.422, "note_off_time": 7.641}, {"pitch": 42, "velocity": 80, "note_on_time": 7.422, "note_off_time": 7.641}, {"pitch": 62, "velocity": 80, "note_on_time": 7.641, "note_off_time": 7.859}, {"pitch": 42, "velocity": 80, "note_on_time": 7.642, "note_off_time": 7.859}]</notes><options name="Option List">((4, 4), [0.5, 0.25], 3, 8, &lt;NoteRangePerHand.C_TO_G: 6&gt;, &lt;NoteRangePerHand.ONE_NOTE: 2&gt;, False, True, True, 281)</options></target_notes><trials><trial trial_no="1" timestamp="2022_10_26-14_11_21"><notes name="Played Notes">[{"pitch": 62, "velocity": 72, "note_on_time": 0.872, "note_off_time": 0.937}, {"pitch": 62, "velocity": 73, "note_on_time": 1.088, "note_off_time": 1.166}, {"pitch": 62, "velocity": 81, "note_on_time": 1.311, "note_off_time": 1.558}, {"pitch": 64, "velocity": 53, "note_on_time": 1.554, "note_off_time": 1.755}, {"pitch": 65, "velocity": 80, "note_on_time": 1.757, "note_off_time": 1.977}, {"pitch": 60, "velocity": 85, "note_on_time": 1.967, "note_off_time": 2.15}, {"pitch": 64, "velocity": 80, "note_on_time": 2.192, "note_off_time": 2.261}, {"pitch": 64, "velocity": 82, "note_on_time": 2.416, "note_off_time": 2.479}, {"pitch": 64, "velocity": 85, "note_on_time": 2.629, "note_off_time": 2.845}, {"pitch": 60, "velocity": 68, "note_on_time": 2.845, "note_off_time": 3.093}, {"pitch": 65, "velocity": 80, "note_on_time": 3.075, "note_off_time": 3.289}, {"pitch": 60, "velocity": 90, "note_on_time": 3.298, "note_off_time": 3.366}, {"pitch": 60, "velocity": 100, "note_on_time": 3.499, "note_off_time": 3.758}, {"pitch": 60, "velocity": 95, "note_on_time": 3.927, "note_off_time": 4.162}, {"pitch": 65, "velocity": 82, "note_on_time": 4.381, "note_off_time": 4.609}, {"pitch": 64, "velocity": 78, "note_on_time": 4.609, "note_off_time": 4.863}, {"pitch": 65, "velocity": 73, "note_on_time": 4.86, "note_off_time": 5.047}, {"pitch": 67, "velocity": 72, "note_on_time": 5.058, "note_off_time": 5.265}, {"pitch": 62, "velocity": 71, "note_on_time": 5.256, "note_off_time": 5.498}, {"pitch": 60, "velocity": 84, "note_on_time": 5.483, "note_off_time": 5.646}, {"pitch": 67, "velocity": 74, "note_on_time": 5.69, "note_off_time": 5.773}, {"pitch": 67, "velocity": 70, "note_on_time": 5.891, "note_off_time": 6.115}, {"pitch": 64, "velocity": 79, "note_on_time": 6.11, "note_off_time": 6.328}, {"pitch": 67, "velocity": 80, "note_on_time": 6.324, "note_off_time": 6.539}, {"pitch": 62, "velocity": 81, "note_on_time": 6.536, "note_off_time": 6.622}, {"pitch": 62, "velocity": 89, "note_on_time": 6.751, "note_off_time": 6.895}, {"pitch": 62, "velocity": 93, "note_on_time": 7.208, "note_off_time": 7.289}, {"pitch": 62, "velocity": 85, "note_on_time": 7.406, "note_off_time": 7.487}, {"pitch": 62, "velocity": 114, "note_on_time": 7.634, "note_off_time": 7.754}]</notes><guidance name="Guidance Mode">None</guidance><error name="Error value">0.012740269230769234</error></trial></trials></MIDI>