<MIDI midiNo="2022_11_03-10_22_36"><target_notes><notes name="Note List">[{"pitch": 42, "velocity": 80, "note_on_time": 0.004, "note_off_time": 0.246}, {"pitch": 42, "velocity": 80, "note_on_time": 0.246, "note_off_time": 0.48}, {"pitch": 42, "velocity": 80, "note_on_time": 0.48, "note_off_time": 0.713}, {"pitch": 42, "velocity": 80, "note_on_time": 0.713, "note_off_time": 0.947}, {"pitch": 60, "velocity": 80, "note_on_time": 0.946, "note_off_time": 1.18}, {"pitch": 42, "velocity": 80, "note_on_time": 0.947, "note_off_time": 1.18}, {"pitch": 60, "velocity": 80, "note_on_time": 1.18, "note_off_time": 1.412}, {"pitch": 42, "velocity": 80, "note_on_time": 1.18, "note_off_time": 1.413}, {"pitch": 65, "velocity": 80, "note_on_time": 1.412, "note_off_time": 1.645}, {"pitch": 42, "velocity": 80, "note_on_time": 1.413, "note_off_time": 1.646}, {"pitch": 67, "velocity": 80, "note_on_time": 1.645, "note_off_time": 1.877}, {"pitch": 42, "velocity": 80, "note_on_time": 1.646, "note_off_time": 1.878}, {"pitch": 64, "velocity": 80, "note_on_time": 1.877, "note_off_time": 2.111}, {"pitch": 42, "velocity": 80, "note_on_time": 1.878, "note_off_time": 2.111}, {"pitch": 42, "velocity": 80, "note_on_time": 2.111, "note_off_time": 2.344}, {"pitch": 62, "velocity": 80, "note_on_time": 2.111, "note_off_time": 2.578}, {"pitch": 42, "velocity": 80, "note_on_time": 2.344, "note_off_time": 2.579}, {"pitch": 42, "velocity": 80, "note_on_time": 2.579, "note_off_time": 2.813}, {"pitch": 67, "velocity": 80, "note_on_time": 2.813, "note_off_time": 3.049}, {"pitch": 42, "velocity": 80, "note_on_time": 2.813, "note_off_time": 3.049}, {"pitch": 42, "velocity": 80, "note_on_time": 3.049, "note_off_time": 3.281}, {"pitch": 42, "velocity": 80, "note_on_time": 3.282, "note_off_time": 3.515}, {"pitch": 42, "velocity": 80, "note_on_time": 3.516, "note_off_time": 3.749}, {"pitch": 62, "velocity": 80, "note_on_time": 3.748, "note_off_time": 3.982}, {"pitch": 42, "velocity": 80, "note_on_time": 3.749, "note_off_time": 3.982}, {"pitch": 65, "velocity": 80, "note_on_time": 3.982, "note_off_time": 4.214}, {"pitch": 42, "velocity": 80, "note_on_time": 3.983, "note_off_time": 4.214}, {"pitch": 62, "velocity": 80, "note_on_time": 4.214, "note_off_time": 4.447}, {"pitch": 42, "velocity": 80, "note_on_time": 4.215, "note_off_time": 4.447}, {"pitch": 62, "velocity": 80, "note_on_time": 4.447, "note_off_time": 4.68}, {"pitch": 42, "velocity": 80, "note_on_time": 4.448, "note_off_time": 4.681}, {"pitch": 60, "velocity": 80, "note_on_time": 4.68, "note_off_time": 4.912}, {"pitch": 42, "velocity": 80, "note_on_time": 4.681, "note_off_time": 4.913}, {"pitch": 42, "velocity": 80, "note_on_time": 4.913, "note_off_time": 5.147}, {"pitch": 42, "velocity": 80, "note_on_time": 5.147, "note_off_time": 5.379}, {"pitch": 42, "velocity": 80, "note_on_time": 5.379, "note_off_time": 5.613}, {"pitch": 65, "velocity": 80, "note_on_time": 5.613, "note_off_time": 5.846}, {"pitch": 42, "velocity": 80, "note_on_time": 5.613, "note_off_time": 5.846}, {"pitch": 65, "velocity": 80, "note_on_time": 5.846, "note_off_time": 6.081}, {"pitch": 42, "velocity": 80, "note_on_time": 5.846, "note_off_time": 6.081}, {"pitch": 67, "velocity": 80, "note_on_time": 6.081, "note_off_time": 6.315}, {"pitch": 42, "velocity": 80, "note_on_time": 6.081, "note_off_time": 6.315}, {"pitch": 62, "velocity": 80, "note_on_time": 6.315, "note_off_time": 6.549}, {"pitch": 42, "velocity": 80, "note_on_time": 6.315, "note_off_time": 6.549}, {"pitch": 60, "velocity": 80, "note_on_time": 6.549, "note_off_time": 6.785}, {"pitch": 42, "velocity": 80, "note_on_time": 6.549, "note_off_time": 6.785}, {"pitch": 42, "velocity": 80, "note_on_time": 6.786, "note_off_time": 7.018}, {"pitch": 64, "velocity": 80, "note_on_time": 6.785, "note_off_time": 7.254}, {"pitch": 42, "velocity": 80, "note_on_time": 7.018, "note_off_time": 7.254}, {"pitch": 62, "velocity": 80, "note_on_time": 7.254, "note_off_time": 7.486}, {"pitch": 42, "velocity": 80, "note_on_time": 7.255, "note_off_time": 7.486}, {"pitch": 42, "velocity": 80, "note_on_time": 7.487, "note_off_time": 7.72}, {"pitch": 62, "velocity": 80, "note_on_time": 7.719, "note_off_time": 7.952}, {"pitch": 42, "velocity": 80, "note_on_time": 7.72, "note_off_time": 7.952}, {"pitch": 62, "velocity": 80, "note_on_time": 7.952, "note_off_time": 8.185}, {"pitch": 42, "velocity": 80, "note_on_time": 7.952, "note_off_time": 8.185}, {"pitch": 62, "velocity": 80, "note_on_time": 8.185, "note_off_time": 8.419}, {"pitch": 42, "velocity": 80, "note_on_time": 8.186, "note_off_time": 8.419}]</notes><options name="Option List">((4, 4), [0.5, 0.25], 3, 8, &lt;NoteRangePerHand.C_TO_G: 6&gt;, &lt;NoteRangePerHand.ONE_NOTE: 2&gt;, False, True, False, '265')</options></target_notes><trials><trial trial_no="1" timestamp="2022_11_03-10_22_26"><notes name="Played Notes">[{"pitch": 60, "velocity": 72, "note_on_time": 0.985, "note_off_time": 1.076}, {"pitch": 60, "velocity": 74, "note_on_time": 1.212, "note_off_time": 1.436}, {"pitch": 65, "velocity": 77, "note_on_time": 1.445, "note_off_time": 1.673}, {"pitch": 67, "velocity": 74, "note_on_time": 1.684, "note_off_time": 1.965}, {"pitch": 64, "velocity": 69, "note_on_time": 1.915, "note_off_time": 2.105}, {"pitch": 62, "velocity": 69, "note_on_time": 2.146, "note_off_time": 2.65}, {"pitch": 67, "velocity": 75, "note_on_time": 2.755, "note_off_time": 2.918}, {"pitch": 62, "velocity": 54, "note_on_time": 3.709, "note_off_time": 3.951}, {"pitch": 65, "velocity": 80, "note_on_time": 3.957, "note_off_time": 4.134}, {"pitch": 62, "velocity": 60, "note_on_time": 4.194, "note_off_time": 4.3}, {"pitch": 62, "velocity": 73, "note_on_time": 4.452, "note_off_time": 4.689}, {"pitch": 60, "velocity": 82, "note_on_time": 4.711, "note_off_time": 4.842}, {"pitch": 65, "velocity": 74, "note_on_time": 5.551, "note_off_time": 5.636}, {"pitch": 65, "velocity": 49, "note_on_time": 5.766, "note_off_time": 5.956}, {"pitch": 67, "velocity": 69, "note_on_time": 6.008, "note_off_time": 6.28}, {"pitch": 62, "velocity": 76, "note_on_time": 6.247, "note_off_time": 6.473}, {"pitch": 60, "velocity": 70, "note_on_time": 6.492, "note_off_time": 6.613}, {"pitch": 64, "velocity": 74, "note_on_time": 6.719, "note_off_time": 7.389}, {"pitch": 62, "velocity": 74, "note_on_time": 7.405, "note_off_time": 7.478}, {"pitch": 62, "velocity": 81, "note_on_time": 7.972, "note_off_time": 8.06}, {"pitch": 62, "velocity": 75, "note_on_time": 8.207, "note_off_time": 8.308}]</notes><guidance name="Guidance Mode">None</guidance><error name="Error value">0.10230789473684211</error></trial><trial trial_no="2" timestamp="2022_11_03-10_22_55"><notes name="Played Notes">[{"pitch": 60, "velocity": 66, "note_on_time": 0.71, "note_off_time": 0.776}, {"pitch": 60, "velocity": 82, "note_on_time": 0.934, "note_off_time": 1.227}, {"pitch": 62, "velocity": 39, "note_on_time": 1.19, "note_off_time": 1.388}, {"pitch": 65, "velocity": 82, "note_on_time": 1.414, "note_off_time": 1.711}, {"pitch": 62, "velocity": 79, "note_on_time": 1.743, "note_off_time": 1.843}, {"pitch": 62, "velocity": 70, "note_on_time": 1.974, "note_off_time": 2.539}, {"pitch": 67, "velocity": 77, "note_on_time": 2.704, "note_off_time": 2.81}, {"pitch": 62, "velocity": 59, "note_on_time": 3.451, "note_off_time": 3.668}, {"pitch": 65, "velocity": 81, "note_on_time": 3.683, "note_off_time": 3.942}, {"pitch": 62, "velocity": 60, "note_on_time": 3.928, "note_off_time": 4.031}, {"pitch": 62, "velocity": 69, "note_on_time": 4.184, "note_off_time": 4.415}, {"pitch": 60, "velocity": 62, "note_on_time": 4.44, "note_off_time": 4.546}, {"pitch": 65, "velocity": 87, "note_on_time": 5.395, "note_off_time": 5.47}, {"pitch": 65, "velocity": 74, "note_on_time": 5.611, "note_off_time": 5.793}, {"pitch": 67, "velocity": 71, "note_on_time": 5.825, "note_off_time": 6.126}, {"pitch": 62, "velocity": 68, "note_on_time": 6.072, "note_off_time": 6.314}, {"pitch": 60, "velocity": 63, "note_on_time": 6.324, "note_off_time": 6.48}, {"pitch": 64, "velocity": 66, "note_on_time": 6.532, "note_off_time": 7.129}, {"pitch": 62, "velocity": 79, "note_on_time": 7.232, "note_off_time": 7.325}, {"pitch": 62, "velocity": 71, "note_on_time": 7.812, "note_off_time": 7.891}, {"pitch": 62, "velocity": 66, "note_on_time": 8.0, "note_off_time": 8.103}]</notes><guidance name="Guidance Mode">None</guidance><error name="Error value">0.2731321052631578</error></trial><trial trial_no="3" timestamp="2022_11_03-10_23_21"><notes name="Played Notes">[{"pitch": 60, "velocity": 80, "note_on_time": 0.758, "note_off_time": 0.853}, {"pitch": 60, "velocity": 88, "note_on_time": 1.008, "note_off_time": 1.265}, {"pitch": 65, "velocity": 78, "note_on_time": 1.233, "note_off_time": 1.447}, {"pitch": 67, "velocity": 78, "note_on_time": 1.463, "note_off_time": 1.732}, {"pitch": 64, "velocity": 90, "note_on_time": 1.705, "note_off_time": 1.952}, {"pitch": 62, "velocity": 64, "note_on_time": 1.966, "note_off_time": 2.511}, {"pitch": 65, "velocity": 61, "note_on_time": 2.71, "note_off_time": 2.745}, {"pitch": 67, "velocity": 66, "note_on_time": 2.755, "note_off_time": 2.927}, {"pitch": 62, "velocity": 59, "note_on_time": 3.423, "note_off_time": 3.635}, {"pitch": 65, "velocity": 74, "note_on_time": 3.655, "note_off_time": 3.91}, {"pitch": 62, "velocity": 62, "note_on_time": 3.903, "note_off_time": 3.985}, {"pitch": 62, "velocity": 75, "note_on_time": 4.143, "note_off_time": 4.369}, {"pitch": 60, "velocity": 71, "note_on_time": 4.396, "note_off_time": 4.533}, {"pitch": 65, "velocity": 71, "note_on_time": 5.375, "note_off_time": 5.454}, {"pitch": 65, "velocity": 68, "note_on_time": 5.597, "note_off_time": 5.794}, {"pitch": 67, "velocity": 64, "note_on_time": 5.82, "note_off_time": 6.039}, {"pitch": 62, "velocity": 74, "note_on_time": 6.061, "note_off_time": 6.305}, {"pitch": 60, "velocity": 53, "note_on_time": 6.317, "note_off_time": 6.482}, {"pitch": 64, "velocity": 72, "note_on_time": 6.522, "note_off_time": 7.175}, {"pitch": 62, "velocity": 72, "note_on_time": 7.197, "note_off_time": 7.287}, {"pitch": 62, "velocity": 64, "note_on_time": 7.66, "note_off_time": 7.732}, {"pitch": 62, "velocity": 73, "note_on_time": 7.885, "note_off_time": 7.996}, {"pitch": 62, "velocity": 76, "note_on_time": 8.138, "note_off_time": 8.347}]</notes><guidance name="Guidance Mode">None</guidance><error name="Error value">0.13503184210526326</error></trial></trials></MIDI>