<MIDI midiNo="2022_11_14-18_41_35"><target_notes><notes name="Note List">[{"pitch": 42, "velocity": 80, "note_on_time": 0.003, "note_off_time": 0.224}, {"pitch": 42, "velocity": 80, "note_on_time": 0.224, "note_off_time": 0.441}, {"pitch": 42, "velocity": 80, "note_on_time": 0.441, "note_off_time": 0.658}, {"pitch": 42, "velocity": 80, "note_on_time": 0.658, "note_off_time": 0.876}, {"pitch": 42, "velocity": 80, "note_on_time": 0.876, "note_off_time": 1.092}, {"pitch": 65, "velocity": 80, "note_on_time": 0.875, "note_off_time": 1.309}, {"pitch": 42, "velocity": 80, "note_on_time": 1.092, "note_off_time": 1.309}, {"pitch": 42, "velocity": 80, "note_on_time": 1.309, "note_off_time": 1.529}, {"pitch": 42, "velocity": 80, "note_on_time": 1.529, "note_off_time": 1.746}, {"pitch": 62, "velocity": 80, "note_on_time": 1.746, "note_off_time": 1.963}, {"pitch": 42, "velocity": 80, "note_on_time": 1.746, "note_off_time": 1.963}, {"pitch": 62, "velocity": 80, "note_on_time": 1.963, "note_off_time": 2.184}, {"pitch": 42, "velocity": 80, "note_on_time": 1.963, "note_off_time": 2.184}, {"pitch": 60, "velocity": 80, "note_on_time": 2.184, "note_off_time": 2.4}, {"pitch": 42, "velocity": 80, "note_on_time": 2.184, "note_off_time": 2.4}, {"pitch": 64, "velocity": 80, "note_on_time": 2.4, "note_off_time": 2.619}, {"pitch": 42, "velocity": 80, "note_on_time": 2.4, "note_off_time": 2.619}, {"pitch": 65, "velocity": 80, "note_on_time": 2.619, "note_off_time": 2.838}, {"pitch": 42, "velocity": 80, "note_on_time": 2.619, "note_off_time": 2.838}, {"pitch": 62, "velocity": 80, "note_on_time": 2.838, "note_off_time": 3.056}, {"pitch": 42, "velocity": 80, "note_on_time": 2.838, "note_off_time": 3.056}, {"pitch": 65, "velocity": 80, "note_on_time": 3.056, "note_off_time": 3.274}, {"pitch": 42, "velocity": 80, "note_on_time": 3.056, "note_off_time": 3.274}, {"pitch": 62, "velocity": 80, "note_on_time": 3.274, "note_off_time": 3.491}, {"pitch": 42, "velocity": 80, "note_on_time": 3.274, "note_off_time": 3.491}, {"pitch": 62, "velocity": 80, "note_on_time": 3.491, "note_off_time": 3.707}, {"pitch": 42, "velocity": 80, "note_on_time": 3.491, "note_off_time": 3.707}, {"pitch": 42, "velocity": 80, "note_on_time": 3.707, "note_off_time": 3.924}, {"pitch": 65, "velocity": 80, "note_on_time": 3.707, "note_off_time": 4.141}, {"pitch": 42, "velocity": 80, "note_on_time": 3.924, "note_off_time": 4.141}, {"pitch": 62, "velocity": 80, "note_on_time": 4.141, "note_off_time": 4.358}, {"pitch": 42, "velocity": 80, "note_on_time": 4.141, "note_off_time": 4.358}, {"pitch": 64, "velocity": 80, "note_on_time": 4.358, "note_off_time": 4.575}, {"pitch": 42, "velocity": 80, "note_on_time": 4.358, "note_off_time": 4.575}, {"pitch": 65, "velocity": 80, "note_on_time": 4.575, "note_off_time": 4.791}, {"pitch": 42, "velocity": 80, "note_on_time": 4.575, "note_off_time": 4.791}, {"pitch": 65, "velocity": 80, "note_on_time": 4.791, "note_off_time": 5.008}, {"pitch": 42, "velocity": 80, "note_on_time": 4.791, "note_off_time": 5.008}, {"pitch": 60, "velocity": 80, "note_on_time": 5.008, "note_off_time": 5.226}, {"pitch": 42, "velocity": 80, "note_on_time": 5.008, "note_off_time": 5.226}, {"pitch": 42, "velocity": 80, "note_on_time": 5.226, "note_off_time": 5.445}, {"pitch": 60, "velocity": 80, "note_on_time": 5.226, "note_off_time": 5.666}, {"pitch": 42, "velocity": 80, "note_on_time": 5.445, "note_off_time": 5.666}, {"pitch": 42, "velocity": 80, "note_on_time": 5.666, "note_off_time": 5.884}, {"pitch": 42, "velocity": 80, "note_on_time": 5.884, "note_off_time": 6.1}, {"pitch": 64, "velocity": 80, "note_on_time": 6.1, "note_off_time": 6.318}, {"pitch": 42, "velocity": 80, "note_on_time": 6.1, "note_off_time": 6.319}, {"pitch": 65, "velocity": 80, "note_on_time": 6.318, "note_off_time": 6.536}, {"pitch": 42, "velocity": 80, "note_on_time": 6.319, "note_off_time": 6.536}, {"pitch": 60, "velocity": 80, "note_on_time": 6.536, "note_off_time": 6.754}, {"pitch": 42, "velocity": 80, "note_on_time": 6.536, "note_off_time": 6.754}, {"pitch": 62, "velocity": 80, "note_on_time": 6.754, "note_off_time": 6.973}, {"pitch": 42, "velocity": 80, "note_on_time": 6.754, "note_off_time": 6.973}, {"pitch": 42, "velocity": 80, "note_on_time": 6.974, "note_off_time": 7.192}, {"pitch": 62, "velocity": 80, "note_on_time": 7.192, "note_off_time": 7.409}, {"pitch": 42, "velocity": 80, "note_on_time": 7.192, "note_off_time": 7.409}, {"pitch": 62, "velocity": 80, "note_on_time": 7.409, "note_off_time": 7.627}, {"pitch": 42, "velocity": 80, "note_on_time": 7.409, "note_off_time": 7.627}, {"pitch": 62, "velocity": 80, "note_on_time": 7.627, "note_off_time": 7.844}, {"pitch": 42, "velocity": 80, "note_on_time": 7.627, "note_off_time": 7.844}]</notes><options name="Option List">((4, 4), [0.5, 0.25], 3, 8, &lt;NoteRangePerHand.FOUR_NOTES: 5&gt;, &lt;NoteRangePerHand.ONE_NOTE: 2&gt;, False, True, False, 281)</options></target_notes><trials><trial trial_no="1" timestamp="2022_11_14-18_41_26"><notes name="Played Notes">[{"pitch": 65, "velocity": 80, "note_on_time": 0.966, "note_off_time": 1.38}, {"pitch": 62, "velocity": 84, "note_on_time": 1.681, "note_off_time": 1.78}, {"pitch": 62, "velocity": 91, "note_on_time": 1.934, "note_off_time": 2.173}, {"pitch": 60, "velocity": 85, "note_on_time": 2.186, "note_off_time": 2.451}, {"pitch": 64, "velocity": 78, "note_on_time": 2.429, "note_off_time": 2.73}, {"pitch": 65, "velocity": 81, "note_on_time": 2.699, "note_off_time": 2.915}, {"pitch": 62, "velocity": 72, "note_on_time": 2.927, "note_off_time": 3.165}, {"pitch": 65, "velocity": 77, "note_on_time": 3.179, "note_off_time": 3.446}, {"pitch": 62, "velocity": 75, "note_on_time": 3.427, "note_off_time": 3.513}, {"pitch": 62, "velocity": 88, "note_on_time": 3.668, "note_off_time": 3.896}, {"pitch": 65, "velocity": 82, "note_on_time": 3.883, "note_off_time": 4.394}, {"pitch": 62, "velocity": 81, "note_on_time": 4.393, "note_off_time": 4.648}, {"pitch": 64, "velocity": 76, "note_on_time": 4.658, "note_off_time": 4.949}, {"pitch": 65, "velocity": 78, "note_on_time": 4.904, "note_off_time": 5.061}, {"pitch": 65, "velocity": 84, "note_on_time": 5.161, "note_off_time": 5.427}, {"pitch": 60, "velocity": 90, "note_on_time": 5.418, "note_off_time": 5.539}, {"pitch": 60, "velocity": 88, "note_on_time": 5.706, "note_off_time": 6.082}, {"pitch": 64, "velocity": 83, "note_on_time": 6.292, "note_off_time": 6.546}, {"pitch": 65, "velocity": 74, "note_on_time": 6.532, "note_off_time": 6.782}, {"pitch": 60, "velocity": 87, "note_on_time": 6.777, "note_off_time": 6.875}, {"pitch": 62, "velocity": 69, "note_on_time": 7.021, "note_off_time": 7.202}, {"pitch": 60, "velocity": 84, "note_on_time": 7.256, "note_off_time": 7.351}, {"pitch": 62, "velocity": 73, "note_on_time": 7.538, "note_off_time": 7.623}]</notes><guidance name="Guidance Mode">None</guidance><error name="Error value">0.1703949047619047</error></trial></trials></MIDI>