<MIDI midiNo="2022_10_27-13_42_36"><target_notes><notes name="Note List">[{"pitch": 42, "velocity": 80, "note_on_time": 0.004, "note_off_time": 0.287}, {"pitch": 42, "velocity": 80, "note_on_time": 0.287, "note_off_time": 0.581}, {"pitch": 42, "velocity": 80, "note_on_time": 0.581, "note_off_time": 0.876}, {"pitch": 42, "velocity": 80, "note_on_time": 0.876, "note_off_time": 1.171}, {"pitch": 62, "velocity": 80, "note_on_time": 1.17, "note_off_time": 1.465}, {"pitch": 42, "velocity": 80, "note_on_time": 1.171, "note_off_time": 1.465}, {"pitch": 42, "velocity": 80, "note_on_time": 1.465, "note_off_time": 1.758}, {"pitch": 62, "velocity": 80, "note_on_time": 1.465, "note_off_time": 2.039}, {"pitch": 42, "velocity": 80, "note_on_time": 1.759, "note_off_time": 2.04}, {"pitch": 42, "velocity": 80, "note_on_time": 2.04, "note_off_time": 2.333}, {"pitch": 42, "velocity": 80, "note_on_time": 2.333, "note_off_time": 2.628}, {"pitch": 62, "velocity": 80, "note_on_time": 2.332, "note_off_time": 2.924}, {"pitch": 42, "velocity": 80, "note_on_time": 2.628, "note_off_time": 2.924}, {"pitch": 42, "velocity": 80, "note_on_time": 2.924, "note_off_time": 3.219}, {"pitch": 42, "velocity": 80, "note_on_time": 3.219, "note_off_time": 3.512}, {"pitch": 67, "velocity": 80, "note_on_time": 3.512, "note_off_time": 3.806}, {"pitch": 42, "velocity": 80, "note_on_time": 3.512, "note_off_time": 3.807}, {"pitch": 65, "velocity": 80, "note_on_time": 3.806, "note_off_time": 4.102}, {"pitch": 42, "velocity": 80, "note_on_time": 3.807, "note_off_time": 4.103}, {"pitch": 42, "velocity": 80, "note_on_time": 4.103, "note_off_time": 4.397}, {"pitch": 65, "velocity": 80, "note_on_time": 4.102, "note_off_time": 4.692}, {"pitch": 42, "velocity": 80, "note_on_time": 4.397, "note_off_time": 4.692}, {"pitch": 42, "velocity": 80, "note_on_time": 4.693, "note_off_time": 4.974}, {"pitch": 62, "velocity": 80, "note_on_time": 4.692, "note_off_time": 5.268}, {"pitch": 42, "velocity": 80, "note_on_time": 4.974, "note_off_time": 5.268}, {"pitch": 42, "velocity": 80, "note_on_time": 5.268, "note_off_time": 5.561}, {"pitch": 42, "velocity": 80, "note_on_time": 5.561, "note_off_time": 5.845}, {"pitch": 67, "velocity": 80, "note_on_time": 5.845, "note_off_time": 6.127}, {"pitch": 42, "velocity": 80, "note_on_time": 5.846, "note_off_time": 6.127}, {"pitch": 67, "velocity": 80, "note_on_time": 6.127, "note_off_time": 6.423}, {"pitch": 42, "velocity": 80, "note_on_time": 6.128, "note_off_time": 6.423}, {"pitch": 67, "velocity": 80, "note_on_time": 6.423, "note_off_time": 6.717}, {"pitch": 42, "velocity": 80, "note_on_time": 6.423, "note_off_time": 6.717}, {"pitch": 42, "velocity": 80, "note_on_time": 6.717, "note_off_time": 7.011}, {"pitch": 67, "velocity": 80, "note_on_time": 7.011, "note_off_time": 7.306}, {"pitch": 42, "velocity": 80, "note_on_time": 7.011, "note_off_time": 7.306}, {"pitch": 60, "velocity": 80, "note_on_time": 7.306, "note_off_time": 7.601}, {"pitch": 42, "velocity": 80, "note_on_time": 7.306, "note_off_time": 7.601}, {"pitch": 65, "velocity": 80, "note_on_time": 7.601, "note_off_time": 7.895}, {"pitch": 42, "velocity": 80, "note_on_time": 7.602, "note_off_time": 7.895}, {"pitch": 60, "velocity": 80, "note_on_time": 7.895, "note_off_time": 8.188}, {"pitch": 42, "velocity": 80, "note_on_time": 7.896, "note_off_time": 8.189}, {"pitch": 62, "velocity": 80, "note_on_time": 8.188, "note_off_time": 8.484}, {"pitch": 42, "velocity": 80, "note_on_time": 8.189, "note_off_time": 8.484}, {"pitch": 65, "velocity": 80, "note_on_time": 8.484, "note_off_time": 8.778}, {"pitch": 42, "velocity": 80, "note_on_time": 8.485, "note_off_time": 8.778}, {"pitch": 42, "velocity": 80, "note_on_time": 8.778, "note_off_time": 9.061}, {"pitch": 42, "velocity": 80, "note_on_time": 9.061, "note_off_time": 9.341}, {"pitch": 42, "velocity": 80, "note_on_time": 9.341, "note_off_time": 9.623}, {"pitch": 65, "velocity": 80, "note_on_time": 9.623, "note_off_time": 9.904}, {"pitch": 42, "velocity": 80, "note_on_time": 9.623, "note_off_time": 9.904}, {"pitch": 65, "velocity": 80, "note_on_time": 9.904, "note_off_time": 10.198}, {"pitch": 42, "velocity": 80, "note_on_time": 9.904, "note_off_time": 10.198}, {"pitch": 65, "velocity": 80, "note_on_time": 10.198, "note_off_time": 10.493}, {"pitch": 42, "velocity": 80, "note_on_time": 10.199, "note_off_time": 10.493}]</notes><options name="Option List">((4, 4), [0.5, 0.25], 3, 8, &lt;NoteRangePerHand.C_TO_G: 6&gt;, &lt;NoteRangePerHand.ONE_NOTE: 2&gt;, False, True, False, 215)</options></target_notes><trials><trial trial_no="1" timestamp="2022_10_27-13_42_25"><notes name="Played Notes">[{"pitch": 74, "velocity": 79, "note_on_time": 1.181, "note_off_time": 1.272}, {"pitch": 74, "velocity": 87, "note_on_time": 1.473, "note_off_time": 1.72}, {"pitch": 74, "velocity": 80, "note_on_time": 2.35, "note_off_time": 2.799}, {"pitch": 79, "velocity": 82, "note_on_time": 3.496, "note_off_time": 3.648}, {"pitch": 77, "velocity": 89, "note_on_time": 3.795, "note_off_time": 3.906}, {"pitch": 77, "velocity": 92, "note_on_time": 4.108, "note_off_time": 4.363}, {"pitch": 74, "velocity": 85, "note_on_time": 4.683, "note_off_time": 5.107}, {"pitch": 79, "velocity": 84, "note_on_time": 5.843, "note_off_time": 5.98}, {"pitch": 79, "velocity": 80, "note_on_time": 6.16, "note_off_time": 6.282}, {"pitch": 79, "velocity": 95, "note_on_time": 6.461, "note_off_time": 6.67}, {"pitch": 79, "velocity": 84, "note_on_time": 7.308, "note_off_time": 7.47}, {"pitch": 72, "velocity": 81, "note_on_time": 7.614, "note_off_time": 7.729}, {"pitch": 77, "velocity": 88, "note_on_time": 7.905, "note_off_time": 8.02}, {"pitch": 72, "velocity": 78, "note_on_time": 8.206, "note_off_time": 8.316}, {"pitch": 74, "velocity": 85, "note_on_time": 8.485, "note_off_time": 8.595}, {"pitch": 77, "velocity": 92, "note_on_time": 8.785, "note_off_time": 8.899}, {"pitch": 77, "velocity": 94, "note_on_time": 9.928, "note_off_time": 10.061}, {"pitch": 77, "velocity": 92, "note_on_time": 10.227, "note_off_time": 10.339}]</notes><guidance name="Guidance Mode">None</guidance><error name="Error value">1.419980562499999</error></trial></trials></MIDI>