<MIDI midiNo="2022_11_13-12_47_46"><target_notes><notes name="Note List">[{"pitch": 42, "velocity": 80, "note_on_time": 0.004, "note_off_time": 0.18}, {"pitch": 42, "velocity": 80, "note_on_time": 0.18, "note_off_time": 0.351}, {"pitch": 42, "velocity": 80, "note_on_time": 0.352, "note_off_time": 0.523}, {"pitch": 42, "velocity": 80, "note_on_time": 0.523, "note_off_time": 0.697}, {"pitch": 62, "velocity": 80, "note_on_time": 0.697, "note_off_time": 0.869}, {"pitch": 42, "velocity": 80, "note_on_time": 0.697, "note_off_time": 0.869}, {"pitch": 65, "velocity": 80, "note_on_time": 0.869, "note_off_time": 1.04}, {"pitch": 42, "velocity": 80, "note_on_time": 0.869, "note_off_time": 1.04}, {"pitch": 65, "velocity": 80, "note_on_time": 1.04, "note_off_time": 1.213}, {"pitch": 42, "velocity": 80, "note_on_time": 1.04, "note_off_time": 1.213}, {"pitch": 60, "velocity": 80, "note_on_time": 1.213, "note_off_time": 1.386}, {"pitch": 42, "velocity": 80, "note_on_time": 1.214, "note_off_time": 1.386}, {"pitch": 64, "velocity": 80, "note_on_time": 1.386, "note_off_time": 1.558}, {"pitch": 42, "velocity": 80, "note_on_time": 1.386, "note_off_time": 1.558}, {"pitch": 62, "velocity": 80, "note_on_time": 1.558, "note_off_time": 1.728}, {"pitch": 42, "velocity": 80, "note_on_time": 1.559, "note_off_time": 1.728}, {"pitch": 65, "velocity": 80, "note_on_time": 1.728, "note_off_time": 1.899}, {"pitch": 42, "velocity": 80, "note_on_time": 1.729, "note_off_time": 1.899}, {"pitch": 67, "velocity": 80, "note_on_time": 1.899, "note_off_time": 2.071}, {"pitch": 42, "velocity": 80, "note_on_time": 1.899, "note_off_time": 2.071}, {"pitch": 42, "velocity": 80, "note_on_time": 2.072, "note_off_time": 2.243}, {"pitch": 60, "velocity": 80, "note_on_time": 2.071, "note_off_time": 2.413}, {"pitch": 42, "velocity": 80, "note_on_time": 2.243, "note_off_time": 2.414}, {"pitch": 42, "velocity": 80, "note_on_time": 2.414, "note_off_time": 2.585}, {"pitch": 42, "velocity": 80, "note_on_time": 2.585, "note_off_time": 2.755}, {"pitch": 62, "velocity": 80, "note_on_time": 2.755, "note_off_time": 2.926}, {"pitch": 42, "velocity": 80, "note_on_time": 2.756, "note_off_time": 2.927}, {"pitch": 42, "velocity": 80, "note_on_time": 2.927, "note_off_time": 3.099}, {"pitch": 42, "velocity": 80, "note_on_time": 3.099, "note_off_time": 3.271}, {"pitch": 42, "velocity": 80, "note_on_time": 3.271, "note_off_time": 3.442}, {"pitch": 64, "velocity": 80, "note_on_time": 3.442, "note_off_time": 3.614}, {"pitch": 42, "velocity": 80, "note_on_time": 3.443, "note_off_time": 3.614}, {"pitch": 67, "velocity": 80, "note_on_time": 3.614, "note_off_time": 3.788}, {"pitch": 42, "velocity": 80, "note_on_time": 3.615, "note_off_time": 3.788}, {"pitch": 42, "velocity": 80, "note_on_time": 3.788, "note_off_time": 3.96}, {"pitch": 65, "velocity": 80, "note_on_time": 3.788, "note_off_time": 4.133}, {"pitch": 42, "velocity": 80, "note_on_time": 3.961, "note_off_time": 4.133}, {"pitch": 42, "velocity": 80, "note_on_time": 4.133, "note_off_time": 4.304}, {"pitch": 65, "velocity": 80, "note_on_time": 4.133, "note_off_time": 4.476}, {"pitch": 42, "velocity": 80, "note_on_time": 4.304, "note_off_time": 4.477}, {"pitch": 42, "velocity": 80, "note_on_time": 4.477, "note_off_time": 4.649}, {"pitch": 62, "velocity": 80, "note_on_time": 4.649, "note_off_time": 4.82}, {"pitch": 42, "velocity": 80, "note_on_time": 4.65, "note_off_time": 4.82}, {"pitch": 67, "velocity": 80, "note_on_time": 4.82, "note_off_time": 4.992}, {"pitch": 42, "velocity": 80, "note_on_time": 4.82, "note_off_time": 4.992}, {"pitch": 64, "velocity": 80, "note_on_time": 4.992, "note_off_time": 5.162}, {"pitch": 42, "velocity": 80, "note_on_time": 4.992, "note_off_time": 5.163}, {"pitch": 60, "velocity": 80, "note_on_time": 5.162, "note_off_time": 5.335}, {"pitch": 42, "velocity": 80, "note_on_time": 5.163, "note_off_time": 5.335}, {"pitch": 64, "velocity": 80, "note_on_time": 5.335, "note_off_time": 5.507}, {"pitch": 42, "velocity": 80, "note_on_time": 5.335, "note_off_time": 5.507}, {"pitch": 42, "velocity": 80, "note_on_time": 5.507, "note_off_time": 5.677}, {"pitch": 64, "velocity": 80, "note_on_time": 5.677, "note_off_time": 5.848}, {"pitch": 42, "velocity": 80, "note_on_time": 5.678, "note_off_time": 5.848}, {"pitch": 64, "velocity": 80, "note_on_time": 5.848, "note_off_time": 6.019}, {"pitch": 42, "velocity": 80, "note_on_time": 5.848, "note_off_time": 6.019}, {"pitch": 64, "velocity": 80, "note_on_time": 6.019, "note_off_time": 6.189}, {"pitch": 42, "velocity": 80, "note_on_time": 6.019, "note_off_time": 6.189}]</notes><options name="Option List">((4, 4), [0.5, 0.25], 3, 8, &lt;NoteRangePerHand.C_TO_G: 6&gt;, &lt;NoteRangePerHand.ONE_NOTE: 2&gt;, False, True, False, '365')</options></target_notes><trials><trial trial_no="1" timestamp="2022_11_13-12_47_38"><notes name="Played Notes">[{"pitch": 62, "velocity": 79, "note_on_time": 0.716, "note_off_time": 0.945}, {"pitch": 65, "velocity": 80, "note_on_time": 0.889, "note_off_time": 0.992}, {"pitch": 65, "velocity": 88, "note_on_time": 1.085, "note_off_time": 1.233}, {"pitch": 60, "velocity": 84, "note_on_time": 1.256, "note_off_time": 1.37}, {"pitch": 64, "velocity": 90, "note_on_time": 1.431, "note_off_time": 1.613}, {"pitch": 62, "velocity": 82, "note_on_time": 1.612, "note_off_time": 1.728}, {"pitch": 62, "velocity": 87, "note_on_time": 1.81, "note_off_time": 1.893}, {"pitch": 64, "velocity": 73, "note_on_time": 1.838, "note_off_time": 2.043}, {"pitch": 65, "velocity": 77, "note_on_time": 2.027, "note_off_time": 2.074}, {"pitch": 65, "velocity": 80, "note_on_time": 2.143, "note_off_time": 2.224}, {"pitch": 60, "velocity": 93, "note_on_time": 2.298, "note_off_time": 2.532}, {"pitch": 62, "velocity": 94, "note_on_time": 2.97, "note_off_time": 3.175}, {"pitch": 64, "velocity": 36, "note_on_time": 3.477, "note_off_time": 3.524}, {"pitch": 64, "velocity": 94, "note_on_time": 3.604, "note_off_time": 3.821}, {"pitch": 67, "velocity": 71, "note_on_time": 3.781, "note_off_time": 4.013}, {"pitch": 65, "velocity": 91, "note_on_time": 3.97, "note_off_time": 4.095}, {"pitch": 65, "velocity": 106, "note_on_time": 4.165, "note_off_time": 4.463}, {"pitch": 62, "velocity": 94, "note_on_time": 4.568, "note_off_time": 4.783}, {"pitch": 67, "velocity": 89, "note_on_time": 5.027, "note_off_time": 5.26}, {"pitch": 64, "velocity": 76, "note_on_time": 5.196, "note_off_time": 5.398}, {"pitch": 60, "velocity": 71, "note_on_time": 5.393, "note_off_time": 5.53}, {"pitch": 64, "velocity": 86, "note_on_time": 5.556, "note_off_time": 5.674}, {"pitch": 64, "velocity": 97, "note_on_time": 5.886, "note_off_time": 5.96}, {"pitch": 64, "velocity": 83, "note_on_time": 6.061, "note_off_time": 6.134}]</notes><guidance name="Guidance Mode">None</guidance><error name="Error value">1.1026080526315787</error></trial><trial trial_no="2" timestamp="2022_11_13-12_48_02"><notes name="Played Notes">[{"pitch": 62, "velocity": 79, "note_on_time": 0.688, "note_off_time": 0.825}, {"pitch": 65, "velocity": 80, "note_on_time": 0.876, "note_off_time": 0.964}, {"pitch": 65, "velocity": 89, "note_on_time": 1.047, "note_off_time": 1.176}, {"pitch": 60, "velocity": 84, "note_on_time": 1.218, "note_off_time": 1.335}, {"pitch": 64, "velocity": 88, "note_on_time": 1.405, "note_off_time": 1.633}, {"pitch": 62, "velocity": 74, "note_on_time": 1.601, "note_off_time": 1.698}, {"pitch": 62, "velocity": 88, "note_on_time": 1.78, "note_off_time": 1.862}, {"pitch": 65, "velocity": 58, "note_on_time": 1.83, "note_off_time": 1.938}, {"pitch": 65, "velocity": 64, "note_on_time": 2.031, "note_off_time": 2.076}, {"pitch": 67, "velocity": 74, "note_on_time": 2.029, "note_off_time": 2.286}, {"pitch": 60, "velocity": 66, "note_on_time": 2.256, "note_off_time": 2.396}, {"pitch": 62, "velocity": 94, "note_on_time": 2.878, "note_off_time": 2.998}, {"pitch": 64, "velocity": 86, "note_on_time": 3.274, "note_off_time": 3.441}, {"pitch": 67, "velocity": 78, "note_on_time": 3.45, "note_off_time": 3.701}, {"pitch": 65, "velocity": 92, "note_on_time": 3.663, "note_off_time": 3.844}, {"pitch": 65, "velocity": 98, "note_on_time": 4.024, "note_off_time": 4.277}, {"pitch": 62, "velocity": 86, "note_on_time": 4.384, "note_off_time": 4.578}, {"pitch": 67, "velocity": 84, "note_on_time": 4.754, "note_off_time": 4.936}, {"pitch": 65, "velocity": 42, "note_on_time": 4.973, "note_off_time": 4.991}, {"pitch": 64, "velocity": 57, "note_on_time": 4.957, "note_off_time": 5.169}, {"pitch": 60, "velocity": 82, "note_on_time": 5.149, "note_off_time": 5.286}, {"pitch": 64, "velocity": 92, "note_on_time": 5.319, "note_off_time": 5.412}, {"pitch": 64, "velocity": 94, "note_on_time": 5.661, "note_off_time": 5.731}, {"pitch": 64, "velocity": 83, "note_on_time": 5.839, "note_off_time": 5.915}, {"pitch": 64, "velocity": 83, "note_on_time": 6.025, "note_off_time": 6.102}]</notes><guidance name="Guidance Mode">None</guidance><error name="Error value">0.6531746842105262</error></trial><trial trial_no="3" timestamp="2022_11_13-12_48_19"><notes name="Played Notes">[{"pitch": 62, "velocity": 73, "note_on_time": 0.696, "note_off_time": 0.936}, {"pitch": 65, "velocity": 57, "note_on_time": 0.896, "note_off_time": 0.952}, {"pitch": 67, "velocity": 42, "note_on_time": 0.883, "note_off_time": 0.969}, {"pitch": 67, "velocity": 76, "note_on_time": 1.061, "note_off_time": 1.234}, {"pitch": 62, "velocity": 62, "note_on_time": 1.262, "note_off_time": 1.316}, {"pitch": 60, "velocity": 64, "note_on_time": 1.253, "note_off_time": 1.327}, {"pitch": 65, "velocity": 61, "note_on_time": 1.445, "note_off_time": 1.574}, {"pitch": 64, "velocity": 58, "note_on_time": 1.438, "note_off_time": 1.698}, {"pitch": 62, "velocity": 73, "note_on_time": 1.606, "note_off_time": 1.71}, {"pitch": 67, "velocity": 72, "note_on_time": 1.817, "note_off_time": 1.978}, {"pitch": 69, "velocity": 31, "note_on_time": 2.114, "note_off_time": 2.184}, {"pitch": 67, "velocity": 86, "note_on_time": 2.054, "note_off_time": 2.232}, {"pitch": 60, "velocity": 75, "note_on_time": 2.48, "note_off_time": 2.64}, {"pitch": 62, "velocity": 64, "note_on_time": 3.181, "note_off_time": 3.4}, {"pitch": 64, "velocity": 76, "note_on_time": 3.86, "note_off_time": 4.043}, {"pitch": 67, "velocity": 70, "note_on_time": 4.04, "note_off_time": 4.21}, {"pitch": 65, "velocity": 84, "note_on_time": 4.242, "note_off_time": 4.427}, {"pitch": 65, "velocity": 97, "note_on_time": 4.606, "note_off_time": 4.811}, {"pitch": 62, "velocity": 79, "note_on_time": 5.171, "note_off_time": 5.293}, {"pitch": 67, "velocity": 76, "note_on_time": 5.355, "note_off_time": 5.569}, {"pitch": 64, "velocity": 75, "note_on_time": 5.534, "note_off_time": 5.737}, {"pitch": 60, "velocity": 83, "note_on_time": 5.726, "note_off_time": 5.862}, {"pitch": 64, "velocity": 78, "note_on_time": 5.904, "note_off_time": 5.996}]</notes><guidance name="Guidance Mode">None</guidance><error name="Error value">1.7897726842105268</error></trial><trial trial_no="4" timestamp="2022_11_13-12_48_36"><notes name="Played Notes">[{"pitch": 62, "velocity": 76, "note_on_time": 0.732, "note_off_time": 0.919}, {"pitch": 65, "velocity": 80, "note_on_time": 0.902, "note_off_time": 0.998}, {"pitch": 65, "velocity": 82, "note_on_time": 1.089, "note_off_time": 1.221}, {"pitch": 60, "velocity": 81, "note_on_time": 1.253, "note_off_time": 1.375}, {"pitch": 64, "velocity": 76, "note_on_time": 1.425, "note_off_time": 1.601}, {"pitch": 62, "velocity": 79, "note_on_time": 1.599, "note_off_time": 1.691}, {"pitch": 65, "velocity": 83, "note_on_time": 1.794, "note_off_time": 1.889}, {"pitch": 67, "velocity": 86, "note_on_time": 1.973, "note_off_time": 2.064}, {"pitch": 60, "velocity": 94, "note_on_time": 2.169, "note_off_time": 2.392}, {"pitch": 62, "velocity": 90, "note_on_time": 2.856, "note_off_time": 3.007}, {"pitch": 64, "velocity": 92, "note_on_time": 3.585, "note_off_time": 3.767}, {"pitch": 67, "velocity": 78, "note_on_time": 3.757, "note_off_time": 3.922}, {"pitch": 65, "velocity": 92, "note_on_time": 3.987, "note_off_time": 4.203}, {"pitch": 65, "velocity": 95, "note_on_time": 4.374, "note_off_time": 4.547}, {"pitch": 62, "velocity": 86, "note_on_time": 4.88, "note_off_time": 5.038}, {"pitch": 67, "velocity": 78, "note_on_time": 5.072, "note_off_time": 5.283}, {"pitch": 64, "velocity": 75, "note_on_time": 5.257, "note_off_time": 5.444}, {"pitch": 60, "velocity": 88, "note_on_time": 5.443, "note_off_time": 5.57}, {"pitch": 64, "velocity": 92, "note_on_time": 5.628, "note_off_time": 5.71}, {"pitch": 64, "velocity": 91, "note_on_time": 5.946, "note_off_time": 6.024}]</notes><guidance name="Guidance Mode">None</guidance><error name="Error value">0.20466963157894735</error></trial><trial trial_no="5" timestamp="2022_11_13-12_48_52"><notes name="Played Notes">[{"pitch": 62, "velocity": 70, "note_on_time": 0.712, "note_off_time": 0.934}, {"pitch": 67, "velocity": 60, "note_on_time": 0.883, "note_off_time": 0.994}, {"pitch": 67, "velocity": 83, "note_on_time": 1.067, "note_off_time": 1.211}, {"pitch": 62, "velocity": 67, "note_on_time": 1.267, "note_off_time": 1.311}, {"pitch": 60, "velocity": 68, "note_on_time": 1.259, "note_off_time": 1.328}, {"pitch": 65, "velocity": 65, "note_on_time": 1.47, "note_off_time": 1.766}, {"pitch": 64, "velocity": 43, "note_on_time": 1.71, "note_off_time": 2.002}, {"pitch": 67, "velocity": 48, "note_on_time": 1.945, "note_off_time": 2.276}, {"pitch": 60, "velocity": 89, "note_on_time": 2.223, "note_off_time": 2.376}, {"pitch": 62, "velocity": 86, "note_on_time": 3.05, "note_off_time": 3.171}, {"pitch": 64, "velocity": 85, "note_on_time": 3.444, "note_off_time": 3.634}, {"pitch": 67, "velocity": 75, "note_on_time": 3.631, "note_off_time": 3.843}, {"pitch": 65, "velocity": 87, "note_on_time": 3.805, "note_off_time": 3.916}, {"pitch": 65, "velocity": 84, "note_on_time": 3.998, "note_off_time": 4.176}, {"pitch": 62, "velocity": 87, "note_on_time": 4.637, "note_off_time": 4.799}, {"pitch": 67, "velocity": 77, "note_on_time": 4.819, "note_off_time": 5.025}, {"pitch": 64, "velocity": 49, "note_on_time": 5.019, "note_off_time": 5.257}, {"pitch": 60, "velocity": 77, "note_on_time": 5.204, "note_off_time": 5.329}, {"pitch": 64, "velocity": 68, "note_on_time": 5.369, "note_off_time": 5.46}, {"pitch": 64, "velocity": 83, "note_on_time": 5.682, "note_off_time": 5.753}, {"pitch": 64, "velocity": 77, "note_on_time": 5.859, "note_off_time": 5.933}, {"pitch": 64, "velocity": 80, "note_on_time": 6.026, "note_off_time": 6.108}]</notes><guidance name="Guidance Mode">None</guidance><error name="Error value">0.3714624736842105</error></trial></trials></MIDI>