<MIDI midiNo="2022_11_21-16_40_51"><target_notes><notes name="Note List">[{"pitch": 42, "velocity": 80, "note_on_time": 0.004, "note_off_time": 0.261}, {"pitch": 42, "velocity": 80, "note_on_time": 0.262, "note_off_time": 0.512}, {"pitch": 42, "velocity": 80, "note_on_time": 0.512, "note_off_time": 0.761}, {"pitch": 42, "velocity": 80, "note_on_time": 0.761, "note_off_time": 1.012}, {"pitch": 62, "velocity": 80, "note_on_time": 1.012, "note_off_time": 1.265}, {"pitch": 42, "velocity": 80, "note_on_time": 1.012, "note_off_time": 1.265}, {"pitch": 62, "velocity": 80, "note_on_time": 1.265, "note_off_time": 1.514}, {"pitch": 42, "velocity": 80, "note_on_time": 1.265, "note_off_time": 1.515}, {"pitch": 60, "velocity": 80, "note_on_time": 1.514, "note_off_time": 1.764}, {"pitch": 42, "velocity": 80, "note_on_time": 1.515, "note_off_time": 1.764}, {"pitch": 60, "velocity": 80, "note_on_time": 1.764, "note_off_time": 2.014}, {"pitch": 42, "velocity": 80, "note_on_time": 1.764, "note_off_time": 2.014}, {"pitch": 64, "velocity": 80, "note_on_time": 2.014, "note_off_time": 2.264}, {"pitch": 42, "velocity": 80, "note_on_time": 2.014, "note_off_time": 2.264}, {"pitch": 62, "velocity": 80, "note_on_time": 2.264, "note_off_time": 2.513}, {"pitch": 42, "velocity": 80, "note_on_time": 2.264, "note_off_time": 2.513}, {"pitch": 62, "velocity": 80, "note_on_time": 2.513, "note_off_time": 2.763}, {"pitch": 42, "velocity": 80, "note_on_time": 2.514, "note_off_time": 2.763}, {"pitch": 64, "velocity": 80, "note_on_time": 2.763, "note_off_time": 3.011}, {"pitch": 42, "velocity": 80, "note_on_time": 2.763, "note_off_time": 3.011}, {"pitch": 42, "velocity": 80, "note_on_time": 3.011, "note_off_time": 3.259}, {"pitch": 60, "velocity": 80, "note_on_time": 3.011, "note_off_time": 3.506}, {"pitch": 42, "velocity": 80, "note_on_time": 3.26, "note_off_time": 3.507}, {"pitch": 42, "velocity": 80, "note_on_time": 3.507, "note_off_time": 3.756}, {"pitch": 42, "velocity": 80, "note_on_time": 3.756, "note_off_time": 4.005}, {"pitch": 62, "velocity": 80, "note_on_time": 4.005, "note_off_time": 4.255}, {"pitch": 42, "velocity": 80, "note_on_time": 4.005, "note_off_time": 4.255}, {"pitch": 60, "velocity": 80, "note_on_time": 4.255, "note_off_time": 4.503}, {"pitch": 42, "velocity": 80, "note_on_time": 4.256, "note_off_time": 4.503}, {"pitch": 60, "velocity": 80, "note_on_time": 4.503, "note_off_time": 4.754}, {"pitch": 42, "velocity": 80, "note_on_time": 4.503, "note_off_time": 4.754}, {"pitch": 60, "velocity": 80, "note_on_time": 4.754, "note_off_time": 5.001}, {"pitch": 42, "velocity": 80, "note_on_time": 4.755, "note_off_time": 5.001}, {"pitch": 60, "velocity": 80, "note_on_time": 5.001, "note_off_time": 5.251}, {"pitch": 42, "velocity": 80, "note_on_time": 5.002, "note_off_time": 5.252}, {"pitch": 64, "velocity": 80, "note_on_time": 5.251, "note_off_time": 5.5}, {"pitch": 42, "velocity": 80, "note_on_time": 5.252, "note_off_time": 5.5}, {"pitch": 64, "velocity": 80, "note_on_time": 5.5, "note_off_time": 5.751}, {"pitch": 42, "velocity": 80, "note_on_time": 5.5, "note_off_time": 5.751}, {"pitch": 64, "velocity": 80, "note_on_time": 5.751, "note_off_time": 5.999}, {"pitch": 42, "velocity": 80, "note_on_time": 5.751, "note_off_time": 6.0}, {"pitch": 42, "velocity": 80, "note_on_time": 6.0, "note_off_time": 6.247}, {"pitch": 64, "velocity": 80, "note_on_time": 5.999, "note_off_time": 6.495}, {"pitch": 42, "velocity": 80, "note_on_time": 6.247, "note_off_time": 6.495}, {"pitch": 42, "velocity": 80, "note_on_time": 6.496, "note_off_time": 6.744}, {"pitch": 42, "velocity": 80, "note_on_time": 6.744, "note_off_time": 6.994}, {"pitch": 60, "velocity": 80, "note_on_time": 6.994, "note_off_time": 7.242}, {"pitch": 42, "velocity": 80, "note_on_time": 6.995, "note_off_time": 7.242}, {"pitch": 64, "velocity": 80, "note_on_time": 7.242, "note_off_time": 7.488}, {"pitch": 42, "velocity": 80, "note_on_time": 7.243, "note_off_time": 7.488}, {"pitch": 62, "velocity": 80, "note_on_time": 7.488, "note_off_time": 7.736}, {"pitch": 42, "velocity": 80, "note_on_time": 7.488, "note_off_time": 7.736}, {"pitch": 64, "velocity": 80, "note_on_time": 7.736, "note_off_time": 7.985}, {"pitch": 42, "velocity": 80, "note_on_time": 7.736, "note_off_time": 7.985}, {"pitch": 42, "velocity": 80, "note_on_time": 7.985, "note_off_time": 8.233}, {"pitch": 64, "velocity": 80, "note_on_time": 8.233, "note_off_time": 8.481}, {"pitch": 42, "velocity": 80, "note_on_time": 8.234, "note_off_time": 8.481}, {"pitch": 64, "velocity": 80, "note_on_time": 8.481, "note_off_time": 8.73}, {"pitch": 42, "velocity": 80, "note_on_time": 8.482, "note_off_time": 8.73}, {"pitch": 64, "velocity": 80, "note_on_time": 8.73, "note_off_time": 8.98}, {"pitch": 42, "velocity": 80, "note_on_time": 8.731, "note_off_time": 8.98}]</notes><options name="Option List">((4, 4), [0.5, 0.25], 3, 8, &lt;NoteRangePerHand.THREE_NOTES: 4&gt;, &lt;NoteRangePerHand.ONE_NOTE: 2&gt;, False, True, False, 248)</options></target_notes><trials><trial trial_no="1" timestamp="2022_11_21-16_40_40"><notes name="Played Notes">[{"pitch": 62, "velocity": 74, "note_on_time": 0.997, "note_off_time": 1.129}, {"pitch": 62, "velocity": 60, "note_on_time": 1.254, "note_off_time": 1.418}, {"pitch": 60, "velocity": 76, "note_on_time": 1.505, "note_off_time": 1.618}, {"pitch": 60, "velocity": 65, "note_on_time": 1.733, "note_off_time": 1.894}, {"pitch": 64, "velocity": 68, "note_on_time": 1.981, "note_off_time": 2.13}, {"pitch": 62, "velocity": 56, "note_on_time": 2.188, "note_off_time": 2.318}, {"pitch": 62, "velocity": 57, "note_on_time": 2.425, "note_off_time": 2.571}, {"pitch": 64, "velocity": 70, "note_on_time": 2.7, "note_off_time": 2.834}, {"pitch": 60, "velocity": 76, "note_on_time": 2.975, "note_off_time": 3.594}, {"pitch": 62, "velocity": 72, "note_on_time": 4.067, "note_off_time": 4.228}, {"pitch": 60, "velocity": 74, "note_on_time": 4.313, "note_off_time": 4.422}, {"pitch": 60, "velocity": 61, "note_on_time": 4.564, "note_off_time": 4.693}, {"pitch": 60, "velocity": 69, "note_on_time": 4.804, "note_off_time": 4.919}, {"pitch": 60, "velocity": 66, "note_on_time": 5.061, "note_off_time": 5.215}, {"pitch": 64, "velocity": 68, "note_on_time": 5.319, "note_off_time": 5.438}, {"pitch": 64, "velocity": 49, "note_on_time": 5.559, "note_off_time": 5.693}, {"pitch": 64, "velocity": 57, "note_on_time": 5.812, "note_off_time": 5.954}, {"pitch": 64, "velocity": 52, "note_on_time": 6.117, "note_off_time": 6.717}, {"pitch": 60, "velocity": 75, "note_on_time": 7.321, "note_off_time": 7.487}, {"pitch": 64, "velocity": 70, "note_on_time": 7.569, "note_off_time": 7.711}, {"pitch": 62, "velocity": 62, "note_on_time": 7.823, "note_off_time": 7.97}, {"pitch": 64, "velocity": 74, "note_on_time": 8.086, "note_off_time": 8.244}, {"pitch": 64, "velocity": 74, "note_on_time": 8.626, "note_off_time": 8.771}]</notes><guidance name="Guidance Mode">None</guidance><error name="Error value">0.1434534090909092</error></trial></trials></MIDI>