<MIDI midiNo="2022_12_08-10_38_22"><target_notes><notes name="Note List">[{"pitch": 42, "velocity": 80, "note_on_time": 0.003, "note_off_time": 0.249}, {"pitch": 42, "velocity": 80, "note_on_time": 0.25, "note_off_time": 0.498}, {"pitch": 42, "velocity": 80, "note_on_time": 0.498, "note_off_time": 0.746}, {"pitch": 42, "velocity": 80, "note_on_time": 0.747, "note_off_time": 0.996}, {"pitch": 60, "velocity": 80, "note_on_time": 0.995, "note_off_time": 1.245}, {"pitch": 42, "velocity": 80, "note_on_time": 0.996, "note_off_time": 1.245}, {"pitch": 42, "velocity": 80, "note_on_time": 1.245, "note_off_time": 1.493}, {"pitch": 42, "velocity": 80, "note_on_time": 1.493, "note_off_time": 1.742}, {"pitch": 60, "velocity": 80, "note_on_time": 1.742, "note_off_time": 1.992}, {"pitch": 42, "velocity": 80, "note_on_time": 1.742, "note_off_time": 1.993}, {"pitch": 64, "velocity": 80, "note_on_time": 1.992, "note_off_time": 2.238}, {"pitch": 42, "velocity": 80, "note_on_time": 1.993, "note_off_time": 2.238}, {"pitch": 60, "velocity": 80, "note_on_time": 2.238, "note_off_time": 2.487}, {"pitch": 42, "velocity": 80, "note_on_time": 2.238, "note_off_time": 2.488}, {"pitch": 67, "velocity": 80, "note_on_time": 2.487, "note_off_time": 2.735}, {"pitch": 42, "velocity": 80, "note_on_time": 2.488, "note_off_time": 2.735}, {"pitch": 67, "velocity": 80, "note_on_time": 2.735, "note_off_time": 2.984}, {"pitch": 42, "velocity": 80, "note_on_time": 2.735, "note_off_time": 2.984}, {"pitch": 64, "velocity": 80, "note_on_time": 2.984, "note_off_time": 3.232}, {"pitch": 42, "velocity": 80, "note_on_time": 2.984, "note_off_time": 3.233}, {"pitch": 64, "velocity": 80, "note_on_time": 3.232, "note_off_time": 3.482}, {"pitch": 42, "velocity": 80, "note_on_time": 3.233, "note_off_time": 3.482}, {"pitch": 64, "velocity": 80, "note_on_time": 3.482, "note_off_time": 3.73}, {"pitch": 42, "velocity": 80, "note_on_time": 3.482, "note_off_time": 3.73}, {"pitch": 62, "velocity": 80, "note_on_time": 3.73, "note_off_time": 3.98}, {"pitch": 42, "velocity": 80, "note_on_time": 3.73, "note_off_time": 3.98}, {"pitch": 65, "velocity": 80, "note_on_time": 3.98, "note_off_time": 4.23}, {"pitch": 42, "velocity": 80, "note_on_time": 3.98, "note_off_time": 4.231}, {"pitch": 67, "velocity": 80, "note_on_time": 4.23, "note_off_time": 4.481}, {"pitch": 42, "velocity": 80, "note_on_time": 4.231, "note_off_time": 4.481}, {"pitch": 60, "velocity": 80, "note_on_time": 4.481, "note_off_time": 4.732}, {"pitch": 42, "velocity": 80, "note_on_time": 4.481, "note_off_time": 4.733}, {"pitch": 65, "velocity": 80, "note_on_time": 4.732, "note_off_time": 4.982}, {"pitch": 42, "velocity": 80, "note_on_time": 4.733, "note_off_time": 4.983}, {"pitch": 60, "velocity": 80, "note_on_time": 4.982, "note_off_time": 5.231}, {"pitch": 42, "velocity": 80, "note_on_time": 4.983, "note_off_time": 5.232}, {"pitch": 65, "velocity": 80, "note_on_time": 5.231, "note_off_time": 5.48}, {"pitch": 42, "velocity": 80, "note_on_time": 5.232, "note_off_time": 5.48}, {"pitch": 67, "velocity": 80, "note_on_time": 5.48, "note_off_time": 5.731}, {"pitch": 42, "velocity": 80, "note_on_time": 5.481, "note_off_time": 5.731}, {"pitch": 62, "velocity": 80, "note_on_time": 5.731, "note_off_time": 5.98}, {"pitch": 42, "velocity": 80, "note_on_time": 5.732, "note_off_time": 5.98}, {"pitch": 42, "velocity": 80, "note_on_time": 5.981, "note_off_time": 6.23}, {"pitch": 64, "velocity": 80, "note_on_time": 5.98, "note_off_time": 6.479}, {"pitch": 42, "velocity": 80, "note_on_time": 6.23, "note_off_time": 6.48}, {"pitch": 42, "velocity": 80, "note_on_time": 6.48, "note_off_time": 6.729}, {"pitch": 42, "velocity": 80, "note_on_time": 6.729, "note_off_time": 6.978}, {"pitch": 64, "velocity": 80, "note_on_time": 6.978, "note_off_time": 7.231}, {"pitch": 42, "velocity": 80, "note_on_time": 6.978, "note_off_time": 7.231}, {"pitch": 42, "velocity": 80, "note_on_time": 7.231, "note_off_time": 7.481}, {"pitch": 42, "velocity": 80, "note_on_time": 7.482, "note_off_time": 7.731}, {"pitch": 42, "velocity": 80, "note_on_time": 7.732, "note_off_time": 7.98}, {"pitch": 42, "velocity": 80, "note_on_time": 7.98, "note_off_time": 8.23}, {"pitch": 64, "velocity": 80, "note_on_time": 8.23, "note_off_time": 8.479}, {"pitch": 42, "velocity": 80, "note_on_time": 8.23, "note_off_time": 8.479}, {"pitch": 64, "velocity": 80, "note_on_time": 8.479, "note_off_time": 8.726}, {"pitch": 42, "velocity": 80, "note_on_time": 8.48, "note_off_time": 8.727}, {"pitch": 64, "velocity": 80, "note_on_time": 8.726, "note_off_time": 8.976}, {"pitch": 42, "velocity": 80, "note_on_time": 8.727, "note_off_time": 8.977}]</notes><options name="Option List">((4, 4), [0.5, 0.25], 3, 8, &lt;NoteRangePerHand.C_TO_G: 6&gt;, &lt;NoteRangePerHand.ONE_NOTE: 2&gt;, False, True, False, 248)</options></target_notes><trials><trial trial_no="1" timestamp="2022_12_08-10_38_12"><notes name="Played Notes">[{"pitch": 60, "velocity": 64, "note_on_time": 1.157, "note_off_time": 1.236}, {"pitch": 60, "velocity": 60, "note_on_time": 2.07, "note_off_time": 2.316}, {"pitch": 64, "velocity": 70, "note_on_time": 2.334, "note_off_time": 2.589}, {"pitch": 60, "velocity": 38, "note_on_time": 2.605, "note_off_time": 2.805}, {"pitch": 67, "velocity": 61, "note_on_time": 2.828, "note_off_time": 2.937}, {"pitch": 67, "velocity": 62, "note_on_time": 3.068, "note_off_time": 3.336}, {"pitch": 64, "velocity": 59, "note_on_time": 3.32, "note_off_time": 3.422}, {"pitch": 64, "velocity": 64, "note_on_time": 3.56, "note_off_time": 3.667}, {"pitch": 64, "velocity": 66, "note_on_time": 3.803, "note_off_time": 4.01}, {"pitch": 62, "velocity": 41, "note_on_time": 4.038, "note_off_time": 4.277}, {"pitch": 65, "velocity": 71, "note_on_time": 4.291, "note_off_time": 4.524}, {"pitch": 67, "velocity": 77, "note_on_time": 4.524, "note_off_time": 4.755}, {"pitch": 60, "velocity": 68, "note_on_time": 4.773, "note_off_time": 5.018}, {"pitch": 65, "velocity": 67, "note_on_time": 5.017, "note_off_time": 5.249}, {"pitch": 60, "velocity": 68, "note_on_time": 5.242, "note_off_time": 5.48}, {"pitch": 65, "velocity": 64, "note_on_time": 5.485, "note_off_time": 5.742}, {"pitch": 67, "velocity": 77, "note_on_time": 5.742, "note_off_time": 5.988}, {"pitch": 62, "velocity": 69, "note_on_time": 5.976, "note_off_time": 6.198}, {"pitch": 64, "velocity": 62, "note_on_time": 6.209, "note_off_time": 6.731}, {"pitch": 64, "velocity": 61, "note_on_time": 7.224, "note_off_time": 7.436}, {"pitch": 64, "velocity": 75, "note_on_time": 8.421, "note_off_time": 8.538}, {"pitch": 64, "velocity": 74, "note_on_time": 8.68, "note_off_time": 8.777}]</notes><guidance name="Guidance Mode">None</guidance><error name="Error value">0.0838597500000001</error></trial></trials></MIDI>