<MIDI midiNo="2022_10_02-13_41_40"><target_notes><notes name="Note List">[{"pitch": 42, "velocity": 80, "note_on_time": 0.005, "note_off_time": 0.359}, {"pitch": 42, "velocity": 80, "note_on_time": 0.36, "note_off_time": 0.717}, {"pitch": 42, "velocity": 80, "note_on_time": 0.718, "note_off_time": 1.077}, {"pitch": 42, "velocity": 80, "note_on_time": 1.078, "note_off_time": 1.437}, {"pitch": 62, "velocity": 80, "note_on_time": 1.436, "note_off_time": 1.796}, {"pitch": 42, "velocity": 80, "note_on_time": 1.437, "note_off_time": 1.796}, {"pitch": 42, "velocity": 80, "note_on_time": 1.797, "note_off_time": 2.153}, {"pitch": 42, "velocity": 80, "note_on_time": 2.154, "note_off_time": 2.512}, {"pitch": 42, "velocity": 80, "note_on_time": 2.513, "note_off_time": 2.869}, {"pitch": 62, "velocity": 80, "note_on_time": 2.869, "note_off_time": 3.225}, {"pitch": 42, "velocity": 80, "note_on_time": 2.87, "note_off_time": 3.226}, {"pitch": 60, "velocity": 80, "note_on_time": 3.226, "note_off_time": 3.583}, {"pitch": 42, "velocity": 80, "note_on_time": 3.226, "note_off_time": 3.583}, {"pitch": 42, "velocity": 80, "note_on_time": 3.583, "note_off_time": 3.942}, {"pitch": 64, "velocity": 80, "note_on_time": 3.942, "note_off_time": 4.298}, {"pitch": 42, "velocity": 80, "note_on_time": 3.943, "note_off_time": 4.298}, {"pitch": 64, "velocity": 80, "note_on_time": 4.298, "note_off_time": 4.654}, {"pitch": 42, "velocity": 80, "note_on_time": 4.299, "note_off_time": 4.654}, {"pitch": 60, "velocity": 80, "note_on_time": 4.654, "note_off_time": 5.014}, {"pitch": 42, "velocity": 80, "note_on_time": 4.654, "note_off_time": 5.015}, {"pitch": 64, "velocity": 80, "note_on_time": 5.014, "note_off_time": 5.374}, {"pitch": 42, "velocity": 80, "note_on_time": 5.015, "note_off_time": 5.375}, {"pitch": 62, "velocity": 80, "note_on_time": 5.374, "note_off_time": 5.734}, {"pitch": 42, "velocity": 80, "note_on_time": 5.375, "note_off_time": 5.734}, {"pitch": 60, "velocity": 80, "note_on_time": 5.734, "note_off_time": 6.092}, {"pitch": 42, "velocity": 80, "note_on_time": 5.735, "note_off_time": 6.092}, {"pitch": 62, "velocity": 80, "note_on_time": 6.092, "note_off_time": 6.45}, {"pitch": 42, "velocity": 80, "note_on_time": 6.092, "note_off_time": 6.45}, {"pitch": 60, "velocity": 80, "note_on_time": 6.45, "note_off_time": 6.807}, {"pitch": 42, "velocity": 80, "note_on_time": 6.45, "note_off_time": 6.807}, {"pitch": 60, "velocity": 80, "note_on_time": 6.807, "note_off_time": 7.165}, {"pitch": 42, "velocity": 80, "note_on_time": 6.807, "note_off_time": 7.165}, {"pitch": 62, "velocity": 80, "note_on_time": 7.165, "note_off_time": 7.524}, {"pitch": 42, "velocity": 80, "note_on_time": 7.165, "note_off_time": 7.524}, {"pitch": 64, "velocity": 80, "note_on_time": 7.524, "note_off_time": 7.882}, {"pitch": 42, "velocity": 80, "note_on_time": 7.524, "note_off_time": 7.882}, {"pitch": 62, "velocity": 80, "note_on_time": 7.882, "note_off_time": 8.24}, {"pitch": 42, "velocity": 80, "note_on_time": 7.882, "note_off_time": 8.24}, {"pitch": 64, "velocity": 80, "note_on_time": 8.24, "note_off_time": 8.6}, {"pitch": 42, "velocity": 80, "note_on_time": 8.24, "note_off_time": 8.6}, {"pitch": 62, "velocity": 80, "note_on_time": 8.6, "note_off_time": 8.96}, {"pitch": 42, "velocity": 80, "note_on_time": 8.6, "note_off_time": 8.96}, {"pitch": 42, "velocity": 80, "note_on_time": 8.961, "note_off_time": 9.32}, {"pitch": 60, "velocity": 80, "note_on_time": 9.32, "note_off_time": 9.678}, {"pitch": 42, "velocity": 80, "note_on_time": 9.32, "note_off_time": 9.678}, {"pitch": 62, "velocity": 80, "note_on_time": 9.678, "note_off_time": 10.035}, {"pitch": 42, "velocity": 80, "note_on_time": 9.678, "note_off_time": 10.035}, {"pitch": 60, "velocity": 80, "note_on_time": 10.035, "note_off_time": 10.392}, {"pitch": 42, "velocity": 80, "note_on_time": 10.035, "note_off_time": 10.392}, {"pitch": 62, "velocity": 80, "note_on_time": 10.392, "note_off_time": 10.752}, {"pitch": 42, "velocity": 80, "note_on_time": 10.392, "note_off_time": 10.753}, {"pitch": 60, "velocity": 80, "note_on_time": 10.752, "note_off_time": 11.11}, {"pitch": 42, "velocity": 80, "note_on_time": 10.753, "note_off_time": 11.11}, {"pitch": 42, "velocity": 80, "note_on_time": 11.111, "note_off_time": 11.464}, {"pitch": 42, "velocity": 80, "note_on_time": 11.465, "note_off_time": 11.823}, {"pitch": 60, "velocity": 80, "note_on_time": 11.823, "note_off_time": 12.181}, {"pitch": 42, "velocity": 80, "note_on_time": 11.824, "note_off_time": 12.182}, {"pitch": 60, "velocity": 80, "note_on_time": 12.181, "note_off_time": 12.537}, {"pitch": 42, "velocity": 80, "note_on_time": 12.182, "note_off_time": 12.537}, {"pitch": 60, "velocity": 80, "note_on_time": 12.537, "note_off_time": 12.894}, {"pitch": 42, "velocity": 80, "note_on_time": 12.537, "note_off_time": 12.894}]</notes><options name="Option List">((4, 4), [0.25], 3, 8, &lt;NoteRangePerHand.THREE_NOTES: 4&gt;, &lt;NoteRangePerHand.ONE_NOTE: 2&gt;, False, True, True, '174')</options></target_notes><trials><trial trial_no="1" timestamp="2022_10_02-13_41_26"><notes name="Played Notes">[{"pitch": 62, "velocity": 54, "note_on_time": 1.419, "note_off_time": 1.748}, {"pitch": 62, "velocity": 64, "note_on_time": 2.899, "note_off_time": 3.188}, {"pitch": 60, "velocity": 59, "note_on_time": 3.197, "note_off_time": 3.398}, {"pitch": 64, "velocity": 64, "note_on_time": 3.591, "note_off_time": 3.948}, {"pitch": 62, "velocity": 49, "note_on_time": 3.973, "note_off_time": 4.504}, {"pitch": 64, "velocity": 37, "note_on_time": 4.473, "note_off_time": 4.622}, {"pitch": 60, "velocity": 42, "note_on_time": 5.741, "note_off_time": 6.073}, {"pitch": 62, "velocity": 48, "note_on_time": 6.098, "note_off_time": 6.343}, {"pitch": 60, "velocity": 56, "note_on_time": 6.42, "note_off_time": 6.57}, {"pitch": 60, "velocity": 60, "note_on_time": 6.778, "note_off_time": 7.065}, {"pitch": 62, "velocity": 53, "note_on_time": 7.146, "note_off_time": 7.501}, {"pitch": 64, "velocity": 52, "note_on_time": 7.488, "note_off_time": 7.88}, {"pitch": 62, "velocity": 55, "note_on_time": 7.872, "note_off_time": 8.255}, {"pitch": 64, "velocity": 58, "note_on_time": 8.239, "note_off_time": 8.628}, {"pitch": 62, "velocity": 53, "note_on_time": 8.61, "note_off_time": 8.982}, {"pitch": 60, "velocity": 52, "note_on_time": 9.324, "note_off_time": 9.691}, {"pitch": 62, "velocity": 51, "note_on_time": 9.697, "note_off_time": 10.033}, {"pitch": 60, "velocity": 61, "note_on_time": 10.026, "note_off_time": 10.421}, {"pitch": 62, "velocity": 42, "note_on_time": 10.423, "note_off_time": 10.764}, {"pitch": 60, "velocity": 57, "note_on_time": 10.731, "note_off_time": 10.984}, {"pitch": 60, "velocity": 61, "note_on_time": 11.547, "note_off_time": 11.748}, {"pitch": 60, "velocity": 52, "note_on_time": 11.859, "note_off_time": 12.027}, {"pitch": 60, "velocity": 67, "note_on_time": 12.201, "note_off_time": 12.452}]</notes><guidance name="Guidance Mode">None</guidance><error name="Error value">0.2155987727272726</error></trial><trial trial_no="2" timestamp="2022_10_02-13_41_57"><notes name="Played Notes">[{"pitch": 62, "velocity": 66, "note_on_time": 1.444, "note_off_time": 1.755}, {"pitch": 62, "velocity": 69, "note_on_time": 2.887, "note_off_time": 3.203}, {"pitch": 60, "velocity": 67, "note_on_time": 3.215, "note_off_time": 3.419}, {"pitch": 64, "velocity": 70, "note_on_time": 3.945, "note_off_time": 4.097}, {"pitch": 64, "velocity": 59, "note_on_time": 4.28, "note_off_time": 4.633}, {"pitch": 60, "velocity": 68, "note_on_time": 4.642, "note_off_time": 4.988}, {"pitch": 64, "velocity": 60, "note_on_time": 4.997, "note_off_time": 5.377}, {"pitch": 62, "velocity": 63, "note_on_time": 5.355, "note_off_time": 5.727}, {"pitch": 60, "velocity": 65, "note_on_time": 5.713, "note_off_time": 6.027}, {"pitch": 62, "velocity": 59, "note_on_time": 6.065, "note_off_time": 6.438}, {"pitch": 60, "velocity": 64, "note_on_time": 6.418, "note_off_time": 6.557}, {"pitch": 60, "velocity": 65, "note_on_time": 6.78, "note_off_time": 7.189}, {"pitch": 62, "velocity": 56, "note_on_time": 7.169, "note_off_time": 7.521}, {"pitch": 64, "velocity": 64, "note_on_time": 7.483, "note_off_time": 7.862}, {"pitch": 62, "velocity": 60, "note_on_time": 7.858, "note_off_time": 8.226}, {"pitch": 64, "velocity": 70, "note_on_time": 8.205, "note_off_time": 8.564}, {"pitch": 62, "velocity": 61, "note_on_time": 8.564, "note_off_time": 8.869}, {"pitch": 60, "velocity": 51, "note_on_time": 9.307, "note_off_time": 9.683}, {"pitch": 62, "velocity": 59, "note_on_time": 9.673, "note_off_time": 9.99}, {"pitch": 60, "velocity": 65, "note_on_time": 9.987, "note_off_time": 10.396}, {"pitch": 62, "velocity": 58, "note_on_time": 10.389, "note_off_time": 10.752}, {"pitch": 60, "velocity": 65, "note_on_time": 10.725, "note_off_time": 10.964}, {"pitch": 60, "velocity": 65, "note_on_time": 11.786, "note_off_time": 11.997}, {"pitch": 60, "velocity": 56, "note_on_time": 12.131, "note_off_time": 12.321}, {"pitch": 60, "velocity": 71, "note_on_time": 12.49, "note_off_time": 12.73}]</notes><guidance name="Guidance Mode">None</guidance><error name="Error value">0.02502877272727234</error></trial><trial trial_no="3" timestamp="2022_10_02-13_42_33"><notes name="Played Notes">[{"pitch": 62, "velocity": 66, "note_on_time": 1.452, "note_off_time": 1.737}, {"pitch": 62, "velocity": 70, "note_on_time": 2.539, "note_off_time": 2.899}, {"pitch": 60, "velocity": 71, "note_on_time": 2.91, "note_off_time": 3.092}, {"pitch": 64, "velocity": 66, "note_on_time": 3.567, "note_off_time": 3.743}, {"pitch": 64, "velocity": 61, "note_on_time": 3.916, "note_off_time": 4.233}, {"pitch": 60, "velocity": 62, "note_on_time": 4.289, "note_off_time": 4.606}, {"pitch": 64, "velocity": 63, "note_on_time": 4.631, "note_off_time": 4.995}, {"pitch": 62, "velocity": 62, "note_on_time": 4.982, "note_off_time": 5.354}, {"pitch": 60, "velocity": 67, "note_on_time": 5.348, "note_off_time": 5.733}, {"pitch": 62, "velocity": 56, "note_on_time": 5.75, "note_off_time": 6.059}, {"pitch": 60, "velocity": 68, "note_on_time": 6.031, "note_off_time": 6.221}, {"pitch": 60, "velocity": 68, "note_on_time": 6.447, "note_off_time": 6.795}, {"pitch": 62, "velocity": 59, "note_on_time": 6.804, "note_off_time": 7.122}, {"pitch": 64, "velocity": 58, "note_on_time": 7.133, "note_off_time": 7.493}, {"pitch": 62, "velocity": 49, "note_on_time": 7.505, "note_off_time": 7.877}, {"pitch": 64, "velocity": 68, "note_on_time": 7.855, "note_off_time": 8.217}, {"pitch": 62, "velocity": 56, "note_on_time": 8.21, "note_off_time": 8.589}, {"pitch": 60, "velocity": 52, "note_on_time": 8.946, "note_off_time": 9.309}, {"pitch": 62, "velocity": 64, "note_on_time": 9.296, "note_off_time": 9.652}, {"pitch": 60, "velocity": 65, "note_on_time": 9.652, "note_off_time": 10.059}, {"pitch": 62, "velocity": 64, "note_on_time": 10.036, "note_off_time": 10.365}, {"pitch": 60, "velocity": 68, "note_on_time": 10.355, "note_off_time": 10.727}, {"pitch": 60, "velocity": 69, "note_on_time": 11.44, "note_off_time": 11.658}, {"pitch": 60, "velocity": 72, "note_on_time": 11.804, "note_off_time": 11.996}, {"pitch": 60, "velocity": 71, "note_on_time": 12.154, "note_off_time": 12.433}]</notes><guidance name="Guidance Mode">None</guidance><error name="Error value">0.03995013636363597</error></trial><trial trial_no="4" timestamp="2022_10_02-13_42_59"><notes name="Played Notes">[{"pitch": 62, "velocity": 68, "note_on_time": 1.41, "note_off_time": 1.695}, {"pitch": 62, "velocity": 65, "note_on_time": 2.891, "note_off_time": 3.229}, {"pitch": 60, "velocity": 71, "note_on_time": 3.209, "note_off_time": 3.55}, {"pitch": 64, "velocity": 70, "note_on_time": 3.934, "note_off_time": 4.138}, {"pitch": 64, "velocity": 67, "note_on_time": 4.293, "note_off_time": 4.584}, {"pitch": 60, "velocity": 61, "note_on_time": 4.625, "note_off_time": 4.98}, {"pitch": 64, "velocity": 66, "note_on_time": 5.006, "note_off_time": 5.399}, {"pitch": 62, "velocity": 57, "note_on_time": 5.367, "note_off_time": 5.757}, {"pitch": 60, "velocity": 68, "note_on_time": 5.731, "note_off_time": 6.097}, {"pitch": 62, "velocity": 64, "note_on_time": 6.089, "note_off_time": 6.469}, {"pitch": 60, "velocity": 68, "note_on_time": 6.459, "note_off_time": 6.813}, {"pitch": 62, "velocity": 57, "note_on_time": 6.806, "note_off_time": 7.185}, {"pitch": 64, "velocity": 60, "note_on_time": 7.15, "note_off_time": 7.533}, {"pitch": 62, "velocity": 59, "note_on_time": 7.516, "note_off_time": 7.884}, {"pitch": 64, "velocity": 56, "note_on_time": 7.876, "note_off_time": 8.243}, {"pitch": 62, "velocity": 59, "note_on_time": 8.221, "note_off_time": 8.579}, {"pitch": 60, "velocity": 64, "note_on_time": 8.574, "note_off_time": 8.996}, {"pitch": 60, "velocity": 53, "note_on_time": 9.256, "note_off_time": 9.654}, {"pitch": 62, "velocity": 60, "note_on_time": 9.637, "note_off_time": 9.996}, {"pitch": 60, "velocity": 68, "note_on_time": 10.745, "note_off_time": 10.921}, {"pitch": 60, "velocity": 67, "note_on_time": 11.1, "note_off_time": 11.276}, {"pitch": 60, "velocity": 73, "note_on_time": 11.457, "note_off_time": 11.781}]</notes><guidance name="Guidance Mode">None</guidance><error name="Error value">0.2622307272727272</error></trial><trial trial_no="5" timestamp="2022_10_02-13_43_25"><notes name="Played Notes">[{"pitch": 62, "velocity": 66, "note_on_time": 1.437, "note_off_time": 1.732}, {"pitch": 62, "velocity": 66, "note_on_time": 2.884, "note_off_time": 3.234}, {"pitch": 60, "velocity": 68, "note_on_time": 3.229, "note_off_time": 3.427}, {"pitch": 64, "velocity": 64, "note_on_time": 3.955, "note_off_time": 4.128}, {"pitch": 64, "velocity": 66, "note_on_time": 4.316, "note_off_time": 4.621}, {"pitch": 60, "velocity": 66, "note_on_time": 4.662, "note_off_time": 4.979}, {"pitch": 64, "velocity": 58, "note_on_time": 5.008, "note_off_time": 5.404}, {"pitch": 62, "velocity": 61, "note_on_time": 5.368, "note_off_time": 5.755}, {"pitch": 60, "velocity": 70, "note_on_time": 5.727, "note_off_time": 6.095}, {"pitch": 62, "velocity": 55, "note_on_time": 6.085, "note_off_time": 6.464}, {"pitch": 60, "velocity": 68, "note_on_time": 6.431, "note_off_time": 6.585}, {"pitch": 60, "velocity": 59, "note_on_time": 6.783, "note_off_time": 7.193}, {"pitch": 62, "velocity": 63, "note_on_time": 7.162, "note_off_time": 7.545}, {"pitch": 64, "velocity": 59, "note_on_time": 7.526, "note_off_time": 7.886}, {"pitch": 62, "velocity": 61, "note_on_time": 7.877, "note_off_time": 8.23}, {"pitch": 64, "velocity": 59, "note_on_time": 8.225, "note_off_time": 8.629}, {"pitch": 62, "velocity": 64, "note_on_time": 8.589, "note_off_time": 8.862}, {"pitch": 60, "velocity": 59, "note_on_time": 9.341, "note_off_time": 9.689}, {"pitch": 62, "velocity": 64, "note_on_time": 9.666, "note_off_time": 9.984}, {"pitch": 60, "velocity": 67, "note_on_time": 9.993, "note_off_time": 10.382}, {"pitch": 62, "velocity": 51, "note_on_time": 10.386, "note_off_time": 10.769}, {"pitch": 60, "velocity": 70, "note_on_time": 10.754, "note_off_time": 11.142}, {"pitch": 60, "velocity": 70, "note_on_time": 12.176, "note_off_time": 12.381}, {"pitch": 60, "velocity": 66, "note_on_time": 12.519, "note_off_time": 12.721}]</notes><guidance name="Guidance Mode">None</guidance><error name="Error value">0.08061181818181783</error></trial><trial trial_no="6" timestamp="2022_10_02-13_43_58"><notes name="Played Notes">[{"pitch": 62, "velocity": 63, "note_on_time": 1.436, "note_off_time": 1.762}, {"pitch": 62, "velocity": 68, "note_on_time": 2.886, "note_off_time": 3.276}, {"pitch": 60, "velocity": 59, "note_on_time": 3.253, "note_off_time": 3.425}, {"pitch": 64, "velocity": 69, "note_on_time": 3.922, "note_off_time": 4.103}, {"pitch": 64, "velocity": 65, "note_on_time": 4.307, "note_off_time": 4.602}, {"pitch": 60, "velocity": 64, "note_on_time": 4.647, "note_off_time": 4.991}, {"pitch": 64, "velocity": 63, "note_on_time": 5.014, "note_off_time": 5.407}, {"pitch": 62, "velocity": 65, "note_on_time": 5.363, "note_off_time": 5.715}, {"pitch": 60, "velocity": 61, "note_on_time": 5.704, "note_off_time": 6.043}, {"pitch": 62, "velocity": 64, "note_on_time": 6.054, "note_off_time": 6.435}, {"pitch": 60, "velocity": 62, "note_on_time": 6.431, "note_off_time": 6.851}, {"pitch": 62, "velocity": 58, "note_on_time": 6.809, "note_off_time": 7.178}, {"pitch": 64, "velocity": 60, "note_on_time": 7.176, "note_off_time": 7.568}, {"pitch": 62, "velocity": 60, "note_on_time": 7.526, "note_off_time": 7.926}, {"pitch": 64, "velocity": 61, "note_on_time": 7.898, "note_off_time": 8.262}, {"pitch": 62, "velocity": 61, "note_on_time": 8.23, "note_off_time": 8.536}, {"pitch": 60, "velocity": 67, "note_on_time": 8.964, "note_off_time": 9.319}, {"pitch": 62, "velocity": 64, "note_on_time": 9.313, "note_off_time": 9.653}, {"pitch": 60, "velocity": 64, "note_on_time": 9.651, "note_off_time": 10.049}, {"pitch": 62, "velocity": 55, "note_on_time": 10.025, "note_off_time": 10.404}, {"pitch": 60, "velocity": 65, "note_on_time": 10.368, "note_off_time": 10.818}, {"pitch": 60, "velocity": 67, "note_on_time": 11.464, "note_off_time": 11.677}, {"pitch": 60, "velocity": 73, "note_on_time": 11.793, "note_off_time": 12.007}, {"pitch": 60, "velocity": 73, "note_on_time": 12.147, "note_off_time": 12.436}]</notes><guidance name="Guidance Mode">None</guidance><error name="Error value">0.0823216363636364</error></trial></trials></MIDI>