<MIDI midiNo="2022_11_10-11_28_56"><target_notes><notes name="Note List">[{"pitch": 42, "velocity": 80, "note_on_time": 0.004, "note_off_time": 0.732}, {"pitch": 42, "velocity": 80, "note_on_time": 0.732, "note_off_time": 1.463}, {"pitch": 42, "velocity": 80, "note_on_time": 1.463, "note_off_time": 2.195}, {"pitch": 42, "velocity": 80, "note_on_time": 2.195, "note_off_time": 2.924}, {"pitch": 60, "velocity": 80, "note_on_time": 2.924, "note_off_time": 3.656}, {"pitch": 42, "velocity": 80, "note_on_time": 2.925, "note_off_time": 3.656}, {"pitch": 62, "velocity": 80, "note_on_time": 3.656, "note_off_time": 4.385}, {"pitch": 42, "velocity": 80, "note_on_time": 3.656, "note_off_time": 4.385}, {"pitch": 62, "velocity": 80, "note_on_time": 4.385, "note_off_time": 5.115}, {"pitch": 42, "velocity": 80, "note_on_time": 4.385, "note_off_time": 5.115}, {"pitch": 60, "velocity": 80, "note_on_time": 5.115, "note_off_time": 5.845}, {"pitch": 42, "velocity": 80, "note_on_time": 5.115, "note_off_time": 5.845}, {"pitch": 64, "velocity": 80, "note_on_time": 5.845, "note_off_time": 6.574}, {"pitch": 42, "velocity": 80, "note_on_time": 5.846, "note_off_time": 6.574}, {"pitch": 64, "velocity": 80, "note_on_time": 6.574, "note_off_time": 7.303}, {"pitch": 42, "velocity": 80, "note_on_time": 6.574, "note_off_time": 7.304}, {"pitch": 60, "velocity": 80, "note_on_time": 7.303, "note_off_time": 8.031}, {"pitch": 42, "velocity": 80, "note_on_time": 7.304, "note_off_time": 8.031}, {"pitch": 60, "velocity": 80, "note_on_time": 8.031, "note_off_time": 8.764}, {"pitch": 42, "velocity": 80, "note_on_time": 8.032, "note_off_time": 8.764}, {"pitch": 60, "velocity": 80, "note_on_time": 8.764, "note_off_time": 9.493}, {"pitch": 42, "velocity": 80, "note_on_time": 8.764, "note_off_time": 9.494}, {"pitch": 42, "velocity": 80, "note_on_time": 9.494, "note_off_time": 10.223}, {"pitch": 60, "velocity": 80, "note_on_time": 10.222, "note_off_time": 10.955}, {"pitch": 42, "velocity": 80, "note_on_time": 10.223, "note_off_time": 10.955}, {"pitch": 60, "velocity": 80, "note_on_time": 10.955, "note_off_time": 11.685}, {"pitch": 42, "velocity": 80, "note_on_time": 10.955, "note_off_time": 11.686}, {"pitch": 64, "velocity": 80, "note_on_time": 11.685, "note_off_time": 12.415}, {"pitch": 42, "velocity": 80, "note_on_time": 11.686, "note_off_time": 12.416}, {"pitch": 62, "velocity": 80, "note_on_time": 12.415, "note_off_time": 13.144}, {"pitch": 42, "velocity": 80, "note_on_time": 12.416, "note_off_time": 13.144}, {"pitch": 64, "velocity": 80, "note_on_time": 13.144, "note_off_time": 13.874}, {"pitch": 42, "velocity": 80, "note_on_time": 13.145, "note_off_time": 13.875}, {"pitch": 62, "velocity": 80, "note_on_time": 13.874, "note_off_time": 14.606}, {"pitch": 42, "velocity": 80, "note_on_time": 13.875, "note_off_time": 14.607}, {"pitch": 60, "velocity": 80, "note_on_time": 14.606, "note_off_time": 15.333}, {"pitch": 42, "velocity": 80, "note_on_time": 14.607, "note_off_time": 15.333}, {"pitch": 62, "velocity": 80, "note_on_time": 15.333, "note_off_time": 16.064}, {"pitch": 42, "velocity": 80, "note_on_time": 15.334, "note_off_time": 16.065}, {"pitch": 60, "velocity": 80, "note_on_time": 16.064, "note_off_time": 16.792}, {"pitch": 42, "velocity": 80, "note_on_time": 16.065, "note_off_time": 16.792}, {"pitch": 64, "velocity": 80, "note_on_time": 16.792, "note_off_time": 17.525}, {"pitch": 42, "velocity": 80, "note_on_time": 16.792, "note_off_time": 17.525}, {"pitch": 60, "velocity": 80, "note_on_time": 17.525, "note_off_time": 18.256}, {"pitch": 42, "velocity": 80, "note_on_time": 17.525, "note_off_time": 18.256}, {"pitch": 42, "velocity": 80, "note_on_time": 18.257, "note_off_time": 18.985}, {"pitch": 60, "velocity": 80, "note_on_time": 18.256, "note_off_time": 19.713}, {"pitch": 42, "velocity": 80, "note_on_time": 18.985, "note_off_time": 19.713}, {"pitch": 60, "velocity": 80, "note_on_time": 19.713, "note_off_time": 20.443}, {"pitch": 42, "velocity": 80, "note_on_time": 19.713, "note_off_time": 20.443}, {"pitch": 42, "velocity": 80, "note_on_time": 20.444, "note_off_time": 21.174}, {"pitch": 62, "velocity": 80, "note_on_time": 20.443, "note_off_time": 21.906}, {"pitch": 42, "velocity": 80, "note_on_time": 21.174, "note_off_time": 21.906}, {"pitch": 42, "velocity": 80, "note_on_time": 21.907, "note_off_time": 22.638}, {"pitch": 60, "velocity": 80, "note_on_time": 22.638, "note_off_time": 23.37}, {"pitch": 42, "velocity": 80, "note_on_time": 22.639, "note_off_time": 23.37}, {"pitch": 42, "velocity": 80, "note_on_time": 23.371, "note_off_time": 24.1}, {"pitch": 60, "velocity": 80, "note_on_time": 24.1, "note_off_time": 24.833}, {"pitch": 42, "velocity": 80, "note_on_time": 24.101, "note_off_time": 24.834}, {"pitch": 60, "velocity": 80, "note_on_time": 24.833, "note_off_time": 25.562}, {"pitch": 42, "velocity": 80, "note_on_time": 24.834, "note_off_time": 25.562}, {"pitch": 60, "velocity": 80, "note_on_time": 25.562, "note_off_time": 26.291}, {"pitch": 42, "velocity": 80, "note_on_time": 25.562, "note_off_time": 26.291}]</notes><options name="Option List">((4, 4), [0.5, 0.25], 3, 8, &lt;NoteRangePerHand.THREE_NOTES: 4&gt;, &lt;NoteRangePerHand.ONE_NOTE: 2&gt;, False, True, False, '83')</options></target_notes><trials><trial trial_no="1" timestamp="2022_11_10-11_28_28"><notes name="Played Notes">[{"pitch": 60, "velocity": 85, "note_on_time": 2.939, "note_off_time": 3.241}, {"pitch": 62, "velocity": 79, "note_on_time": 3.649, "note_off_time": 3.97}, {"pitch": 62, "velocity": 75, "note_on_time": 4.395, "note_off_time": 4.681}, {"pitch": 60, "velocity": 86, "note_on_time": 5.11, "note_off_time": 5.4}, {"pitch": 64, "velocity": 78, "note_on_time": 5.849, "note_off_time": 6.123}, {"pitch": 64, "velocity": 77, "note_on_time": 6.545, "note_off_time": 6.795}, {"pitch": 60, "velocity": 75, "note_on_time": 7.254, "note_off_time": 7.523}, {"pitch": 60, "velocity": 82, "note_on_time": 7.941, "note_off_time": 8.164}, {"pitch": 60, "velocity": 89, "note_on_time": 8.595, "note_off_time": 8.795}, {"pitch": 60, "velocity": 81, "note_on_time": 10.063, "note_off_time": 10.314}, {"pitch": 60, "velocity": 81, "note_on_time": 10.811, "note_off_time": 11.049}, {"pitch": 64, "velocity": 62, "note_on_time": 11.771, "note_off_time": 11.991}, {"pitch": 62, "velocity": 75, "note_on_time": 12.477, "note_off_time": 12.704}, {"pitch": 64, "velocity": 72, "note_on_time": 13.206, "note_off_time": 13.454}, {"pitch": 62, "velocity": 75, "note_on_time": 13.955, "note_off_time": 14.161}, {"pitch": 60, "velocity": 82, "note_on_time": 14.643, "note_off_time": 14.879}, {"pitch": 62, "velocity": 77, "note_on_time": 15.324, "note_off_time": 15.561}, {"pitch": 60, "velocity": 83, "note_on_time": 16.052, "note_off_time": 16.277}, {"pitch": 64, "velocity": 76, "note_on_time": 16.734, "note_off_time": 16.958}, {"pitch": 60, "velocity": 87, "note_on_time": 17.437, "note_off_time": 17.709}, {"pitch": 60, "velocity": 74, "note_on_time": 18.138, "note_off_time": 19.086}, {"pitch": 60, "velocity": 78, "note_on_time": 19.61, "note_off_time": 19.986}, {"pitch": 62, "velocity": 77, "note_on_time": 20.653, "note_off_time": 20.897}, {"pitch": 60, "velocity": 88, "note_on_time": 22.593, "note_off_time": 22.939}, {"pitch": 60, "velocity": 79, "note_on_time": 24.764, "note_off_time": 25.076}, {"pitch": 60, "velocity": 78, "note_on_time": 25.486, "note_off_time": 25.754}]</notes><guidance name="Guidance Mode">None</guidance><error name="Error value">0.12510229166666623</error></trial><trial trial_no="2" timestamp="2022_11_10-11_29_05"><notes name="Played Notes">[{"pitch": 60, "velocity": 89, "note_on_time": 2.937, "note_off_time": 3.252}, {"pitch": 62, "velocity": 81, "note_on_time": 3.655, "note_off_time": 3.957}, {"pitch": 62, "velocity": 79, "note_on_time": 4.395, "note_off_time": 4.656}, {"pitch": 60, "velocity": 86, "note_on_time": 5.098, "note_off_time": 5.352}, {"pitch": 64, "velocity": 83, "note_on_time": 5.799, "note_off_time": 6.053}, {"pitch": 64, "velocity": 78, "note_on_time": 6.537, "note_off_time": 6.751}, {"pitch": 60, "velocity": 77, "note_on_time": 7.242, "note_off_time": 7.487}, {"pitch": 60, "velocity": 82, "note_on_time": 7.938, "note_off_time": 8.174}, {"pitch": 60, "velocity": 85, "note_on_time": 8.69, "note_off_time": 8.913}, {"pitch": 60, "velocity": 78, "note_on_time": 10.173, "note_off_time": 10.441}, {"pitch": 60, "velocity": 83, "note_on_time": 10.966, "note_off_time": 11.251}, {"pitch": 64, "velocity": 80, "note_on_time": 11.921, "note_off_time": 12.154}, {"pitch": 62, "velocity": 74, "note_on_time": 12.636, "note_off_time": 12.914}, {"pitch": 64, "velocity": 68, "note_on_time": 13.678, "note_off_time": 13.952}, {"pitch": 62, "velocity": 76, "note_on_time": 14.502, "note_off_time": 14.811}, {"pitch": 60, "velocity": 79, "note_on_time": 15.331, "note_off_time": 15.625}, {"pitch": 62, "velocity": 71, "note_on_time": 16.046, "note_off_time": 16.306}, {"pitch": 60, "velocity": 84, "note_on_time": 16.774, "note_off_time": 17.075}, {"pitch": 64, "velocity": 77, "note_on_time": 17.587, "note_off_time": 17.888}, {"pitch": 60, "velocity": 82, "note_on_time": 18.329, "note_off_time": 18.618}, {"pitch": 60, "velocity": 88, "note_on_time": 19.016, "note_off_time": 19.98}, {"pitch": 60, "velocity": 86, "note_on_time": 20.374, "note_off_time": 20.745}, {"pitch": 62, "velocity": 77, "note_on_time": 21.159, "note_off_time": 22.239}, {"pitch": 60, "velocity": 77, "note_on_time": 23.305, "note_off_time": 23.67}, {"pitch": 60, "velocity": 82, "note_on_time": 24.806, "note_off_time": 25.119}, {"pitch": 60, "velocity": 82, "note_on_time": 25.49, "note_off_time": 25.793}]</notes><guidance name="Guidance Mode">None</guidance><error name="Error value">0.1322545416666668</error></trial><trial trial_no="3" timestamp="2022_11_10-11_29_42"><notes name="Played Notes">[{"pitch": 60, "velocity": 84, "note_on_time": 2.904, "note_off_time": 3.264}, {"pitch": 62, "velocity": 79, "note_on_time": 3.639, "note_off_time": 3.956}, {"pitch": 62, "velocity": 77, "note_on_time": 4.353, "note_off_time": 4.667}, {"pitch": 60, "velocity": 86, "note_on_time": 5.062, "note_off_time": 5.349}, {"pitch": 64, "velocity": 76, "note_on_time": 5.78, "note_off_time": 6.104}, {"pitch": 64, "velocity": 81, "note_on_time": 6.507, "note_off_time": 6.776}, {"pitch": 60, "velocity": 79, "note_on_time": 7.23, "note_off_time": 7.504}, {"pitch": 60, "velocity": 85, "note_on_time": 7.922, "note_off_time": 8.178}, {"pitch": 60, "velocity": 78, "note_on_time": 8.669, "note_off_time": 8.892}, {"pitch": 60, "velocity": 87, "note_on_time": 10.134, "note_off_time": 10.408}, {"pitch": 60, "velocity": 90, "note_on_time": 10.802, "note_off_time": 11.089}, {"pitch": 64, "velocity": 79, "note_on_time": 11.53, "note_off_time": 11.848}, {"pitch": 62, "velocity": 82, "note_on_time": 12.292, "note_off_time": 12.585}, {"pitch": 64, "velocity": 75, "note_on_time": 13.004, "note_off_time": 13.3}, {"pitch": 62, "velocity": 80, "note_on_time": 13.727, "note_off_time": 13.969}, {"pitch": 60, "velocity": 80, "note_on_time": 14.47, "note_off_time": 14.765}, {"pitch": 62, "velocity": 78, "note_on_time": 15.256, "note_off_time": 15.546}, {"pitch": 60, "velocity": 81, "note_on_time": 15.969, "note_off_time": 16.27}, {"pitch": 64, "velocity": 74, "note_on_time": 16.711, "note_off_time": 17.021}, {"pitch": 60, "velocity": 82, "note_on_time": 17.462, "note_off_time": 17.746}, {"pitch": 60, "velocity": 75, "note_on_time": 18.291, "note_off_time": 19.461}, {"pitch": 60, "velocity": 84, "note_on_time": 19.72, "note_off_time": 20.034}, {"pitch": 62, "velocity": 72, "note_on_time": 20.527, "note_off_time": 20.687}, {"pitch": 62, "velocity": 8, "note_on_time": 21.066, "note_off_time": 21.971}, {"pitch": 60, "velocity": 85, "note_on_time": 22.546, "note_off_time": 22.875}, {"pitch": 60, "velocity": 80, "note_on_time": 24.013, "note_off_time": 24.338}, {"pitch": 60, "velocity": 82, "note_on_time": 24.689, "note_off_time": 25.011}, {"pitch": 60, "velocity": 78, "note_on_time": 25.414, "note_off_time": 25.821}]</notes><guidance name="Guidance Mode">None</guidance><error name="Error value">0.9798143750000017</error></trial><trial trial_no="4" timestamp="2022_11_10-11_30_19"><notes name="Played Notes">[{"pitch": 60, "velocity": 90, "note_on_time": 2.956, "note_off_time": 3.324}, {"pitch": 62, "velocity": 73, "note_on_time": 3.676, "note_off_time": 4.008}, {"pitch": 62, "velocity": 79, "note_on_time": 4.384, "note_off_time": 4.698}, {"pitch": 60, "velocity": 84, "note_on_time": 5.098, "note_off_time": 5.392}, {"pitch": 64, "velocity": 76, "note_on_time": 5.797, "note_off_time": 6.103}, {"pitch": 64, "velocity": 76, "note_on_time": 6.518, "note_off_time": 6.793}, {"pitch": 60, "velocity": 78, "note_on_time": 7.205, "note_off_time": 7.517}, {"pitch": 60, "velocity": 88, "note_on_time": 7.92, "note_off_time": 8.159}, {"pitch": 60, "velocity": 87, "note_on_time": 8.639, "note_off_time": 8.856}, {"pitch": 60, "velocity": 87, "note_on_time": 10.147, "note_off_time": 10.467}, {"pitch": 60, "velocity": 82, "note_on_time": 10.84, "note_off_time": 11.141}, {"pitch": 64, "velocity": 71, "note_on_time": 11.543, "note_off_time": 11.85}, {"pitch": 62, "velocity": 69, "note_on_time": 12.258, "note_off_time": 12.571}, {"pitch": 64, "velocity": 81, "note_on_time": 12.935, "note_off_time": 13.27}, {"pitch": 62, "velocity": 73, "note_on_time": 13.721, "note_off_time": 14.017}, {"pitch": 60, "velocity": 82, "note_on_time": 14.485, "note_off_time": 14.809}, {"pitch": 62, "velocity": 79, "note_on_time": 15.206, "note_off_time": 15.523}, {"pitch": 60, "velocity": 82, "note_on_time": 15.931, "note_off_time": 16.229}, {"pitch": 64, "velocity": 76, "note_on_time": 16.625, "note_off_time": 16.923}, {"pitch": 60, "velocity": 80, "note_on_time": 17.383, "note_off_time": 17.671}, {"pitch": 60, "velocity": 84, "note_on_time": 18.108, "note_off_time": 19.226}, {"pitch": 60, "velocity": 82, "note_on_time": 19.672, "note_off_time": 20.206}, {"pitch": 62, "velocity": 76, "note_on_time": 21.086, "note_off_time": 22.103}, {"pitch": 60, "velocity": 78, "note_on_time": 22.613, "note_off_time": 23.023}, {"pitch": 60, "velocity": 72, "note_on_time": 24.169, "note_off_time": 24.46}, {"pitch": 60, "velocity": 81, "note_on_time": 24.836, "note_off_time": 25.13}, {"pitch": 60, "velocity": 84, "note_on_time": 25.483, "note_off_time": 25.924}]</notes><guidance name="Guidance Mode">None</guidance><error name="Error value">0.08888487499999974</error></trial><trial trial_no="5" timestamp="2022_11_10-11_30_56"><notes name="Played Notes">[{"pitch": 60, "velocity": 86, "note_on_time": 2.898, "note_off_time": 3.198}, {"pitch": 62, "velocity": 79, "note_on_time": 3.608, "note_off_time": 3.888}, {"pitch": 62, "velocity": 74, "note_on_time": 4.334, "note_off_time": 4.578}, {"pitch": 60, "velocity": 82, "note_on_time": 5.046, "note_off_time": 5.295}, {"pitch": 64, "velocity": 83, "note_on_time": 5.753, "note_off_time": 6.008}, {"pitch": 64, "velocity": 71, "note_on_time": 6.48, "note_off_time": 6.708}, {"pitch": 60, "velocity": 72, "note_on_time": 7.178, "note_off_time": 7.423}, {"pitch": 60, "velocity": 85, "note_on_time": 7.86, "note_off_time": 8.086}, {"pitch": 60, "velocity": 83, "note_on_time": 8.612, "note_off_time": 8.857}, {"pitch": 60, "velocity": 77, "note_on_time": 10.126, "note_off_time": 10.41}, {"pitch": 60, "velocity": 82, "note_on_time": 10.828, "note_off_time": 11.084}, {"pitch": 64, "velocity": 67, "note_on_time": 11.537, "note_off_time": 11.828}, {"pitch": 62, "velocity": 75, "note_on_time": 12.274, "note_off_time": 12.55}, {"pitch": 64, "velocity": 75, "note_on_time": 13.013, "note_off_time": 13.279}, {"pitch": 62, "velocity": 74, "note_on_time": 13.726, "note_off_time": 13.964}, {"pitch": 60, "velocity": 79, "note_on_time": 14.458, "note_off_time": 14.74}, {"pitch": 62, "velocity": 70, "note_on_time": 15.223, "note_off_time": 15.477}, {"pitch": 60, "velocity": 81, "note_on_time": 15.929, "note_off_time": 16.207}, {"pitch": 64, "velocity": 75, "note_on_time": 16.666, "note_off_time": 16.936}, {"pitch": 60, "velocity": 77, "note_on_time": 17.379, "note_off_time": 17.627}, {"pitch": 60, "velocity": 83, "note_on_time": 18.048, "note_off_time": 19.196}, {"pitch": 60, "velocity": 79, "note_on_time": 19.643, "note_off_time": 19.973}, {"pitch": 62, "velocity": 79, "note_on_time": 20.455, "note_off_time": 20.937}, {"pitch": 64, "velocity": 47, "note_on_time": 21.004, "note_off_time": 21.977}, {"pitch": 60, "velocity": 73, "note_on_time": 22.621, "note_off_time": 23.072}, {"pitch": 60, "velocity": 83, "note_on_time": 24.053, "note_off_time": 24.346}, {"pitch": 60, "velocity": 85, "note_on_time": 24.753, "note_off_time": 25.025}, {"pitch": 60, "velocity": 83, "note_on_time": 25.452, "note_off_time": 25.871}]</notes><guidance name="Guidance Mode">None</guidance><error name="Error value">1.045185624999999</error></trial></trials></MIDI>