<MIDI midiNo="2022_10_26-14_13_51"><target_notes><notes name="Note List">[{"pitch": 42, "velocity": 80, "note_on_time": 0.004, "note_off_time": 0.226}, {"pitch": 42, "velocity": 80, "note_on_time": 0.226, "note_off_time": 0.443}, {"pitch": 42, "velocity": 80, "note_on_time": 0.443, "note_off_time": 0.66}, {"pitch": 42, "velocity": 80, "note_on_time": 0.66, "note_off_time": 0.877}, {"pitch": 60, "velocity": 80, "note_on_time": 0.877, "note_off_time": 1.096}, {"pitch": 42, "velocity": 80, "note_on_time": 0.877, "note_off_time": 1.096}, {"pitch": 42, "velocity": 80, "note_on_time": 1.096, "note_off_time": 1.314}, {"pitch": 42, "velocity": 80, "note_on_time": 1.314, "note_off_time": 1.53}, {"pitch": 42, "velocity": 80, "note_on_time": 1.53, "note_off_time": 1.748}, {"pitch": 64, "velocity": 80, "note_on_time": 1.748, "note_off_time": 1.966}, {"pitch": 42, "velocity": 80, "note_on_time": 1.748, "note_off_time": 1.966}, {"pitch": 64, "velocity": 80, "note_on_time": 1.966, "note_off_time": 2.185}, {"pitch": 42, "velocity": 80, "note_on_time": 1.966, "note_off_time": 2.185}, {"pitch": 60, "velocity": 80, "note_on_time": 2.185, "note_off_time": 2.402}, {"pitch": 42, "velocity": 80, "note_on_time": 2.185, "note_off_time": 2.402}, {"pitch": 64, "velocity": 80, "note_on_time": 2.402, "note_off_time": 2.62}, {"pitch": 42, "velocity": 80, "note_on_time": 2.402, "note_off_time": 2.62}, {"pitch": 67, "velocity": 80, "note_on_time": 2.62, "note_off_time": 2.837}, {"pitch": 42, "velocity": 80, "note_on_time": 2.62, "note_off_time": 2.837}, {"pitch": 62, "velocity": 80, "note_on_time": 2.837, "note_off_time": 3.052}, {"pitch": 42, "velocity": 80, "note_on_time": 2.837, "note_off_time": 3.053}, {"pitch": 60, "velocity": 80, "note_on_time": 3.052, "note_off_time": 3.27}, {"pitch": 42, "velocity": 80, "note_on_time": 3.053, "note_off_time": 3.27}, {"pitch": 67, "velocity": 80, "note_on_time": 3.27, "note_off_time": 3.488}, {"pitch": 42, "velocity": 80, "note_on_time": 3.27, "note_off_time": 3.489}, {"pitch": 42, "velocity": 80, "note_on_time": 3.489, "note_off_time": 3.704}, {"pitch": 60, "velocity": 80, "note_on_time": 3.488, "note_off_time": 3.922}, {"pitch": 42, "velocity": 80, "note_on_time": 3.705, "note_off_time": 3.923}, {"pitch": 42, "velocity": 80, "note_on_time": 3.923, "note_off_time": 4.14}, {"pitch": 64, "velocity": 80, "note_on_time": 3.922, "note_off_time": 4.357}, {"pitch": 42, "velocity": 80, "note_on_time": 4.141, "note_off_time": 4.357}, {"pitch": 42, "velocity": 80, "note_on_time": 4.357, "note_off_time": 4.576}, {"pitch": 64, "velocity": 80, "note_on_time": 4.357, "note_off_time": 4.794}, {"pitch": 42, "velocity": 80, "note_on_time": 4.576, "note_off_time": 4.794}, {"pitch": 42, "velocity": 80, "note_on_time": 4.794, "note_off_time": 5.011}, {"pitch": 42, "velocity": 80, "note_on_time": 5.011, "note_off_time": 5.23}, {"pitch": 42, "velocity": 80, "note_on_time": 5.23, "note_off_time": 5.449}, {"pitch": 60, "velocity": 80, "note_on_time": 5.23, "note_off_time": 5.665}, {"pitch": 42, "velocity": 80, "note_on_time": 5.449, "note_off_time": 5.665}, {"pitch": 42, "velocity": 80, "note_on_time": 5.665, "note_off_time": 5.886}, {"pitch": 64, "velocity": 80, "note_on_time": 5.886, "note_off_time": 6.103}, {"pitch": 42, "velocity": 80, "note_on_time": 5.886, "note_off_time": 6.103}, {"pitch": 64, "velocity": 80, "note_on_time": 6.103, "note_off_time": 6.318}, {"pitch": 42, "velocity": 80, "note_on_time": 6.103, "note_off_time": 6.318}, {"pitch": 42, "velocity": 80, "note_on_time": 6.318, "note_off_time": 6.534}, {"pitch": 65, "velocity": 80, "note_on_time": 6.318, "note_off_time": 6.751}, {"pitch": 42, "velocity": 80, "note_on_time": 6.534, "note_off_time": 6.751}, {"pitch": 42, "velocity": 80, "note_on_time": 6.751, "note_off_time": 6.97}, {"pitch": 42, "velocity": 80, "note_on_time": 6.97, "note_off_time": 7.188}, {"pitch": 65, "velocity": 80, "note_on_time": 7.188, "note_off_time": 7.406}, {"pitch": 42, "velocity": 80, "note_on_time": 7.188, "note_off_time": 7.406}, {"pitch": 65, "velocity": 80, "note_on_time": 7.406, "note_off_time": 7.623}, {"pitch": 42, "velocity": 80, "note_on_time": 7.406, "note_off_time": 7.623}, {"pitch": 65, "velocity": 80, "note_on_time": 7.623, "note_off_time": 7.841}, {"pitch": 42, "velocity": 80, "note_on_time": 7.624, "note_off_time": 7.841}]</notes><options name="Option List">((4, 4), [0.5, 0.25], 3, 8, &lt;NoteRangePerHand.C_TO_G: 6&gt;, &lt;NoteRangePerHand.ONE_NOTE: 2&gt;, False, True, True, '281')</options></target_notes><trials><trial trial_no="1" timestamp="2022_10_26-14_13_42"><notes name="Played Notes">[{"pitch": 60, "velocity": 95, "note_on_time": 0.903, "note_off_time": 1.135}, {"pitch": 64, "velocity": 87, "note_on_time": 1.748, "note_off_time": 1.842}, {"pitch": 64, "velocity": 84, "note_on_time": 1.974, "note_off_time": 2.192}, {"pitch": 60, "velocity": 84, "note_on_time": 2.191, "note_off_time": 2.451}, {"pitch": 64, "velocity": 85, "note_on_time": 2.415, "note_off_time": 2.643}, {"pitch": 67, "velocity": 84, "note_on_time": 2.645, "note_off_time": 2.885}, {"pitch": 62, "velocity": 75, "note_on_time": 2.87, "note_off_time": 3.093}, {"pitch": 60, "velocity": 82, "note_on_time": 3.086, "note_off_time": 3.312}, {"pitch": 67, "velocity": 80, "note_on_time": 3.306, "note_off_time": 3.531}, {"pitch": 60, "velocity": 89, "note_on_time": 3.522, "note_off_time": 3.95}, {"pitch": 64, "velocity": 92, "note_on_time": 3.936, "note_off_time": 4.21}, {"pitch": 64, "velocity": 101, "note_on_time": 4.382, "note_off_time": 4.673}, {"pitch": 60, "velocity": 100, "note_on_time": 5.217, "note_off_time": 5.535}, {"pitch": 64, "velocity": 90, "note_on_time": 6.092, "note_off_time": 6.201}, {"pitch": 64, "velocity": 81, "note_on_time": 6.315, "note_off_time": 6.491}, {"pitch": 65, "velocity": 91, "note_on_time": 6.529, "note_off_time": 6.802}, {"pitch": 65, "velocity": 97, "note_on_time": 7.238, "note_off_time": 7.329}, {"pitch": 65, "velocity": 91, "note_on_time": 7.451, "note_off_time": 7.54}, {"pitch": 65, "velocity": 105, "note_on_time": 7.68, "note_off_time": 7.83}]</notes><guidance name="Guidance Mode">None</guidance><error name="Error value">0.033217312499999964</error></trial><trial trial_no="2" timestamp="2022_10_26-14_14_01"><notes name="Played Notes">[{"pitch": 60, "velocity": 97, "note_on_time": 0.881, "note_off_time": 1.098}, {"pitch": 64, "velocity": 87, "note_on_time": 1.777, "note_off_time": 1.859}, {"pitch": 64, "velocity": 87, "note_on_time": 1.987, "note_off_time": 2.177}, {"pitch": 60, "velocity": 88, "note_on_time": 2.189, "note_off_time": 2.449}, {"pitch": 64, "velocity": 83, "note_on_time": 2.409, "note_off_time": 2.646}, {"pitch": 67, "velocity": 82, "note_on_time": 2.642, "note_off_time": 2.879}, {"pitch": 62, "velocity": 75, "note_on_time": 2.871, "note_off_time": 3.08}, {"pitch": 60, "velocity": 79, "note_on_time": 3.084, "note_off_time": 3.291}, {"pitch": 67, "velocity": 83, "note_on_time": 3.297, "note_off_time": 3.495}, {"pitch": 60, "velocity": 90, "note_on_time": 3.503, "note_off_time": 3.888}, {"pitch": 64, "velocity": 91, "note_on_time": 3.92, "note_off_time": 4.197}, {"pitch": 64, "velocity": 98, "note_on_time": 4.361, "note_off_time": 4.616}, {"pitch": 60, "velocity": 98, "note_on_time": 5.239, "note_off_time": 5.485}, {"pitch": 64, "velocity": 84, "note_on_time": 5.83, "note_off_time": 5.942}, {"pitch": 64, "velocity": 92, "note_on_time": 6.074, "note_off_time": 6.314}, {"pitch": 65, "velocity": 92, "note_on_time": 6.31, "note_off_time": 6.537}, {"pitch": 65, "velocity": 103, "note_on_time": 6.942, "note_off_time": 7.039}, {"pitch": 65, "velocity": 91, "note_on_time": 7.161, "note_off_time": 7.252}, {"pitch": 65, "velocity": 110, "note_on_time": 7.395, "note_off_time": 7.538}]</notes><guidance name="Guidance Mode">None</guidance><error name="Error value">0.03158943749999977</error></trial><trial trial_no="3" timestamp="2022_10_26-14_14_21"><notes name="Played Notes">[{"pitch": 60, "velocity": 93, "note_on_time": 0.922, "note_off_time": 1.097}, {"pitch": 64, "velocity": 81, "note_on_time": 1.784, "note_off_time": 1.86}, {"pitch": 64, "velocity": 81, "note_on_time": 1.997, "note_off_time": 2.202}, {"pitch": 60, "velocity": 85, "note_on_time": 2.22, "note_off_time": 2.466}, {"pitch": 64, "velocity": 79, "note_on_time": 2.435, "note_off_time": 2.684}, {"pitch": 67, "velocity": 81, "note_on_time": 2.675, "note_off_time": 2.914}, {"pitch": 62, "velocity": 74, "note_on_time": 2.904, "note_off_time": 3.124}, {"pitch": 60, "velocity": 81, "note_on_time": 3.133, "note_off_time": 3.353}, {"pitch": 67, "velocity": 75, "note_on_time": 3.353, "note_off_time": 3.581}, {"pitch": 60, "velocity": 79, "note_on_time": 3.58, "note_off_time": 3.903}, {"pitch": 64, "velocity": 81, "note_on_time": 3.993, "note_off_time": 4.275}, {"pitch": 64, "velocity": 85, "note_on_time": 4.428, "note_off_time": 4.797}, {"pitch": 60, "velocity": 95, "note_on_time": 5.192, "note_off_time": 5.579}, {"pitch": 64, "velocity": 79, "note_on_time": 6.123, "note_off_time": 6.23}, {"pitch": 64, "velocity": 66, "note_on_time": 6.326, "note_off_time": 6.479}, {"pitch": 65, "velocity": 87, "note_on_time": 6.55, "note_off_time": 6.826}, {"pitch": 65, "velocity": 95, "note_on_time": 7.216, "note_off_time": 7.313}, {"pitch": 65, "velocity": 83, "note_on_time": 7.434, "note_off_time": 7.525}, {"pitch": 65, "velocity": 92, "note_on_time": 7.662, "note_off_time": 7.81}]</notes><guidance name="Guidance Mode">None</guidance><error name="Error value">0.04545868749999993</error></trial></trials></MIDI>