<MIDI midiNo="20220202-152629"><target_notes><notes name="Note List">[{"pitch": 62, "velocity": 100, "note_on_time": 1.221, "note_off_time": 1.83}, {"pitch": 67, "velocity": 100, "note_on_time": 2.437, "note_off_time": 2.742}, {"pitch": 65, "velocity": 100, "note_on_time": 3.657, "note_off_time": 3.961}, {"pitch": 64, "velocity": 100, "note_on_time": 4.267, "note_off_time": 4.571}, {"pitch": 64, "velocity": 100, "note_on_time": 4.571, "note_off_time": 4.876}, {"pitch": 65, "velocity": 100, "note_on_time": 4.876, "note_off_time": 5.485}, {"pitch": 60, "velocity": 100, "note_on_time": 5.485, "note_off_time": 5.789}, {"pitch": 67, "velocity": 100, "note_on_time": 6.094, "note_off_time": 6.398}, {"pitch": 62, "velocity": 100, "note_on_time": 6.702, "note_off_time": 7.007}, {"pitch": 60, "velocity": 100, "note_on_time": 7.007, "note_off_time": 7.311}, {"pitch": 67, "velocity": 100, "note_on_time": 7.311, "note_off_time": 7.616}, {"pitch": 62, "velocity": 100, "note_on_time": 7.616, "note_off_time": 7.921}, {"pitch": 67, "velocity": 100, "note_on_time": 7.921, "note_off_time": 8.226}, {"pitch": 62, "velocity": 100, "note_on_time": 8.226, "note_off_time": 8.531}, {"pitch": 62, "velocity": 100, "note_on_time": 8.836, "note_off_time": 9.14}, {"pitch": 62, "velocity": 100, "note_on_time": 9.14, "note_off_time": 9.445}, {"pitch": 62, "velocity": 100, "note_on_time": 9.445, "note_off_time": 9.75}]</notes><options name="Option List">((4, 4), [0.5, 0.25], 3, 7, &lt;NoteRangePerHand.C_TO_G: 6&gt;, &lt;NoteRangePerHand.ONE_NOTE: 2&gt;, False, True, True, 200)</options></target_notes><trials><trial trial_no="1" timestamp="20220202-152617"><notes name="Played Notes">[{"pitch": 62, "velocity": 100, "note_on_time": 1.247, "note_off_time": 1.75}, {"pitch": 67, "velocity": 100, "note_on_time": 2.446, "note_off_time": 2.831}, {"pitch": 64, "velocity": 100, "note_on_time": 3.679, "note_off_time": 3.724}, {"pitch": 65, "velocity": 100, "note_on_time": 3.667, "note_off_time": 3.869}, {"pitch": 64, "velocity": 100, "note_on_time": 4.248, "note_off_time": 4.361}, {"pitch": 64, "velocity": 100, "note_on_time": 4.544, "note_off_time": 4.678}, {"pitch": 65, "velocity": 100, "note_on_time": 4.842, "note_off_time": 5.378}, {"pitch": 60, "velocity": 100, "note_on_time": 5.426, "note_off_time": 5.98}, {"pitch": 67, "velocity": 100, "note_on_time": 6.395, "note_off_time": 6.674}, {"pitch": 62, "velocity": 100, "note_on_time": 6.693, "note_off_time": 6.801}, {"pitch": 60, "velocity": 100, "note_on_time": 7.004, "note_off_time": 7.076}, {"pitch": 67, "velocity": 100, "note_on_time": 7.298, "note_off_time": 7.401}, {"pitch": 62, "velocity": 100, "note_on_time": 7.569, "note_off_time": 7.663}, {"pitch": 67, "velocity": 100, "note_on_time": 7.902, "note_off_time": 8.023}, {"pitch": 62, "velocity": 100, "note_on_time": 8.168, "note_off_time": 8.303}, {"pitch": 62, "velocity": 100, "note_on_time": 8.843, "note_off_time": 8.946}, {"pitch": 62, "velocity": 100, "note_on_time": 9.168, "note_off_time": 9.275}, {"pitch": 62, "velocity": 100, "note_on_time": 9.477, "note_off_time": 9.61}]</notes><guidance name="Guidance Mode">None</guidance><error name="Error value">15.532714285714285</error></trial><trial trial_no="2" timestamp="20220202-152636"><notes name="Played Notes">[{"pitch": 62, "velocity": 100, "note_on_time": 1.242, "note_off_time": 1.744}, {"pitch": 67, "velocity": 100, "note_on_time": 2.443, "note_off_time": 2.774}, {"pitch": 65, "velocity": 100, "note_on_time": 3.682, "note_off_time": 3.977}, {"pitch": 64, "velocity": 100, "note_on_time": 4.257, "note_off_time": 4.376}, {"pitch": 64, "velocity": 100, "note_on_time": 4.56, "note_off_time": 4.697}, {"pitch": 65, "velocity": 100, "note_on_time": 4.883, "note_off_time": 5.356}, {"pitch": 60, "velocity": 100, "note_on_time": 5.446, "note_off_time": 5.757}, {"pitch": 67, "velocity": 100, "note_on_time": 6.058, "note_off_time": 6.526}, {"pitch": 62, "velocity": 100, "note_on_time": 6.671, "note_off_time": 6.988}, {"pitch": 60, "velocity": 100, "note_on_time": 6.978, "note_off_time": 7.288}, {"pitch": 67, "velocity": 100, "note_on_time": 7.291, "note_off_time": 7.585}, {"pitch": 62, "velocity": 100, "note_on_time": 7.572, "note_off_time": 7.687}, {"pitch": 67, "velocity": 100, "note_on_time": 7.893, "note_off_time": 8.232}, {"pitch": 62, "velocity": 100, "note_on_time": 8.179, "note_off_time": 8.331}, {"pitch": 62, "velocity": 100, "note_on_time": 8.836, "note_off_time": 8.943}, {"pitch": 62, "velocity": 100, "note_on_time": 9.142, "note_off_time": 9.258}, {"pitch": 62, "velocity": 100, "note_on_time": 9.429, "note_off_time": 9.551}]</notes><guidance name="Guidance Mode">None</guidance><error name="Error value">14.893642857142858</error></trial></trials></MIDI>