<MIDI midiNo="2022_12_01-13_20_04"><target_notes><notes name="Note List">[{"pitch": 42, "velocity": 80, "note_on_time": 0.004, "note_off_time": 0.419}, {"pitch": 42, "velocity": 80, "note_on_time": 0.419, "note_off_time": 0.825}, {"pitch": 42, "velocity": 80, "note_on_time": 0.825, "note_off_time": 1.227}, {"pitch": 42, "velocity": 80, "note_on_time": 1.227, "note_off_time": 1.631}, {"pitch": 62, "velocity": 80, "note_on_time": 1.63, "note_off_time": 2.038}, {"pitch": 42, "velocity": 80, "note_on_time": 1.631, "note_off_time": 2.038}, {"pitch": 60, "velocity": 80, "note_on_time": 2.038, "note_off_time": 2.444}, {"pitch": 42, "velocity": 80, "note_on_time": 2.039, "note_off_time": 2.444}, {"pitch": 64, "velocity": 80, "note_on_time": 2.444, "note_off_time": 2.848}, {"pitch": 42, "velocity": 80, "note_on_time": 2.445, "note_off_time": 2.848}, {"pitch": 60, "velocity": 80, "note_on_time": 2.848, "note_off_time": 3.255}, {"pitch": 42, "velocity": 80, "note_on_time": 2.848, "note_off_time": 3.255}, {"pitch": 42, "velocity": 80, "note_on_time": 3.255, "note_off_time": 3.658}, {"pitch": 62, "velocity": 80, "note_on_time": 3.255, "note_off_time": 4.063}, {"pitch": 42, "velocity": 80, "note_on_time": 3.659, "note_off_time": 4.063}, {"pitch": 42, "velocity": 80, "note_on_time": 4.063, "note_off_time": 4.469}, {"pitch": 42, "velocity": 80, "note_on_time": 4.469, "note_off_time": 4.876}, {"pitch": 42, "velocity": 80, "note_on_time": 4.876, "note_off_time": 5.278}, {"pitch": 60, "velocity": 80, "note_on_time": 4.876, "note_off_time": 5.683}, {"pitch": 42, "velocity": 80, "note_on_time": 5.279, "note_off_time": 5.684}, {"pitch": 42, "velocity": 80, "note_on_time": 5.684, "note_off_time": 6.088}, {"pitch": 62, "velocity": 80, "note_on_time": 5.683, "note_off_time": 6.493}, {"pitch": 42, "velocity": 80, "note_on_time": 6.088, "note_off_time": 6.493}, {"pitch": 62, "velocity": 80, "note_on_time": 6.493, "note_off_time": 6.896}, {"pitch": 42, "velocity": 80, "note_on_time": 6.493, "note_off_time": 6.896}, {"pitch": 62, "velocity": 80, "note_on_time": 6.896, "note_off_time": 7.301}, {"pitch": 42, "velocity": 80, "note_on_time": 6.896, "note_off_time": 7.301}, {"pitch": 62, "velocity": 80, "note_on_time": 7.301, "note_off_time": 7.703}, {"pitch": 42, "velocity": 80, "note_on_time": 7.301, "note_off_time": 7.703}, {"pitch": 64, "velocity": 80, "note_on_time": 7.703, "note_off_time": 8.107}, {"pitch": 42, "velocity": 80, "note_on_time": 7.703, "note_off_time": 8.108}, {"pitch": 62, "velocity": 80, "note_on_time": 8.107, "note_off_time": 8.513}, {"pitch": 42, "velocity": 80, "note_on_time": 8.108, "note_off_time": 8.513}, {"pitch": 60, "velocity": 80, "note_on_time": 8.513, "note_off_time": 8.92}, {"pitch": 42, "velocity": 80, "note_on_time": 8.514, "note_off_time": 8.921}, {"pitch": 64, "velocity": 80, "note_on_time": 8.92, "note_off_time": 9.323}, {"pitch": 42, "velocity": 80, "note_on_time": 8.921, "note_off_time": 9.323}, {"pitch": 42, "velocity": 80, "note_on_time": 9.323, "note_off_time": 9.728}, {"pitch": 64, "velocity": 80, "note_on_time": 9.728, "note_off_time": 10.134}, {"pitch": 42, "velocity": 80, "note_on_time": 9.728, "note_off_time": 10.135}, {"pitch": 62, "velocity": 80, "note_on_time": 10.134, "note_off_time": 10.54}, {"pitch": 42, "velocity": 80, "note_on_time": 10.135, "note_off_time": 10.54}, {"pitch": 64, "velocity": 80, "note_on_time": 10.54, "note_off_time": 10.948}, {"pitch": 42, "velocity": 80, "note_on_time": 10.54, "note_off_time": 10.948}, {"pitch": 64, "velocity": 80, "note_on_time": 10.948, "note_off_time": 11.351}, {"pitch": 42, "velocity": 80, "note_on_time": 10.948, "note_off_time": 11.351}, {"pitch": 64, "velocity": 80, "note_on_time": 11.351, "note_off_time": 11.757}, {"pitch": 42, "velocity": 80, "note_on_time": 11.352, "note_off_time": 11.757}, {"pitch": 64, "velocity": 80, "note_on_time": 11.757, "note_off_time": 12.162}, {"pitch": 42, "velocity": 80, "note_on_time": 11.758, "note_off_time": 12.163}, {"pitch": 62, "velocity": 80, "note_on_time": 12.162, "note_off_time": 12.568}, {"pitch": 42, "velocity": 80, "note_on_time": 12.163, "note_off_time": 12.568}, {"pitch": 42, "velocity": 80, "note_on_time": 12.568, "note_off_time": 12.973}, {"pitch": 42, "velocity": 80, "note_on_time": 12.973, "note_off_time": 13.378}, {"pitch": 62, "velocity": 80, "note_on_time": 13.378, "note_off_time": 13.782}, {"pitch": 42, "velocity": 80, "note_on_time": 13.378, "note_off_time": 13.783}, {"pitch": 62, "velocity": 80, "note_on_time": 13.782, "note_off_time": 14.187}, {"pitch": 42, "velocity": 80, "note_on_time": 13.783, "note_off_time": 14.188}, {"pitch": 62, "velocity": 80, "note_on_time": 14.187, "note_off_time": 14.589}, {"pitch": 42, "velocity": 80, "note_on_time": 14.188, "note_off_time": 14.589}]</notes><options name="Option List">((4, 4), [0.5, 0.25], 3, 8, &lt;NoteRangePerHand.THREE_NOTES: 4&gt;, &lt;NoteRangePerHand.ONE_NOTE: 2&gt;, False, True, False, 150)</options></target_notes><trials><trial trial_no="1" timestamp="2022_12_01-13_19_48"><notes name="Played Notes">[{"pitch": 62, "velocity": 65, "note_on_time": 1.591, "note_off_time": 1.842}, {"pitch": 60, "velocity": 77, "note_on_time": 2.009, "note_off_time": 2.293}, {"pitch": 64, "velocity": 70, "note_on_time": 2.405, "note_off_time": 2.672}, {"pitch": 60, "velocity": 76, "note_on_time": 2.817, "note_off_time": 3.031}, {"pitch": 62, "velocity": 76, "note_on_time": 3.235, "note_off_time": 4.104}, {"pitch": 60, "velocity": 82, "note_on_time": 4.466, "note_off_time": 5.209}, {"pitch": 62, "velocity": 72, "note_on_time": 5.668, "note_off_time": 6.326}, {"pitch": 62, "velocity": 73, "note_on_time": 6.714, "note_off_time": 6.889}, {"pitch": 62, "velocity": 74, "note_on_time": 7.091, "note_off_time": 7.305}, {"pitch": 62, "velocity": 77, "note_on_time": 7.473, "note_off_time": 7.712}, {"pitch": 64, "velocity": 71, "note_on_time": 7.863, "note_off_time": 8.117}, {"pitch": 62, "velocity": 65, "note_on_time": 8.252, "note_off_time": 8.489}, {"pitch": 60, "velocity": 74, "note_on_time": 8.655, "note_off_time": 8.851}, {"pitch": 64, "velocity": 71, "note_on_time": 9.01, "note_off_time": 9.478}, {"pitch": 64, "velocity": 78, "note_on_time": 10.115, "note_off_time": 10.326}, {"pitch": 62, "velocity": 71, "note_on_time": 10.477, "note_off_time": 10.703}, {"pitch": 64, "velocity": 68, "note_on_time": 10.855, "note_off_time": 11.057}, {"pitch": 64, "velocity": 71, "note_on_time": 11.269, "note_off_time": 11.472}, {"pitch": 64, "velocity": 67, "note_on_time": 11.651, "note_off_time": 11.842}, {"pitch": 64, "velocity": 66, "note_on_time": 12.04, "note_off_time": 12.217}, {"pitch": 62, "velocity": 74, "note_on_time": 12.435, "note_off_time": 12.686}, {"pitch": 62, "velocity": 77, "note_on_time": 13.464, "note_off_time": 13.633}, {"pitch": 62, "velocity": 72, "note_on_time": 13.878, "note_off_time": 14.056}]</notes><guidance name="Guidance Mode">None</guidance><error name="Error value">0.1512857142857143</error></trial><trial trial_no="2" timestamp="2022_12_01-13_20_12"><notes name="Played Notes">[{"pitch": 62, "velocity": 69, "note_on_time": 1.602, "note_off_time": 1.832}, {"pitch": 60, "velocity": 77, "note_on_time": 1.976, "note_off_time": 2.224}, {"pitch": 64, "velocity": 77, "note_on_time": 2.361, "note_off_time": 2.593}, {"pitch": 60, "velocity": 77, "note_on_time": 2.765, "note_off_time": 2.994}, {"pitch": 62, "velocity": 70, "note_on_time": 3.173, "note_off_time": 3.952}, {"pitch": 60, "velocity": 68, "note_on_time": 4.824, "note_off_time": 5.94}, {"pitch": 62, "velocity": 72, "note_on_time": 6.326, "note_off_time": 7.23}, {"pitch": 62, "velocity": 72, "note_on_time": 7.704, "note_off_time": 7.895}, {"pitch": 62, "velocity": 76, "note_on_time": 8.052, "note_off_time": 8.295}, {"pitch": 62, "velocity": 73, "note_on_time": 8.447, "note_off_time": 8.651}, {"pitch": 64, "velocity": 75, "note_on_time": 8.822, "note_off_time": 9.05}, {"pitch": 62, "velocity": 72, "note_on_time": 9.224, "note_off_time": 9.482}, {"pitch": 60, "velocity": 65, "note_on_time": 9.64, "note_off_time": 9.882}, {"pitch": 64, "velocity": 65, "note_on_time": 10.037, "note_off_time": 10.61}, {"pitch": 64, "velocity": 75, "note_on_time": 11.129, "note_off_time": 11.361}, {"pitch": 62, "velocity": 71, "note_on_time": 11.494, "note_off_time": 11.736}, {"pitch": 64, "velocity": 72, "note_on_time": 11.906, "note_off_time": 12.106}, {"pitch": 64, "velocity": 68, "note_on_time": 12.292, "note_off_time": 12.508}, {"pitch": 64, "velocity": 70, "note_on_time": 12.714, "note_off_time": 12.898}, {"pitch": 64, "velocity": 70, "note_on_time": 13.1, "note_off_time": 13.287}, {"pitch": 62, "velocity": 74, "note_on_time": 13.502, "note_off_time": 14.019}]</notes><guidance name="Guidance Mode">None</guidance><error name="Error value">0.3836190476190479</error></trial><trial trial_no="3" timestamp="2022_12_01-13_20_41"><notes name="Played Notes">[{"pitch": 62, "velocity": 75, "note_on_time": 1.635, "note_off_time": 1.874}, {"pitch": 60, "velocity": 73, "note_on_time": 2.021, "note_off_time": 2.25}, {"pitch": 64, "velocity": 75, "note_on_time": 2.428, "note_off_time": 2.653}, {"pitch": 60, "velocity": 79, "note_on_time": 2.838, "note_off_time": 3.0}, {"pitch": 62, "velocity": 74, "note_on_time": 3.246, "note_off_time": 4.008}, {"pitch": 60, "velocity": 75, "note_on_time": 4.84, "note_off_time": 5.402}, {"pitch": 62, "velocity": 72, "note_on_time": 6.051, "note_off_time": 6.622}, {"pitch": 62, "velocity": 77, "note_on_time": 7.28, "note_off_time": 7.495}, {"pitch": 62, "velocity": 74, "note_on_time": 7.661, "note_off_time": 7.881}, {"pitch": 62, "velocity": 78, "note_on_time": 8.037, "note_off_time": 8.291}, {"pitch": 64, "velocity": 74, "note_on_time": 8.456, "note_off_time": 8.69}, {"pitch": 62, "velocity": 77, "note_on_time": 8.857, "note_off_time": 9.085}, {"pitch": 60, "velocity": 82, "note_on_time": 9.24, "note_off_time": 9.442}, {"pitch": 64, "velocity": 73, "note_on_time": 9.645, "note_off_time": 10.16}, {"pitch": 64, "velocity": 72, "note_on_time": 10.927, "note_off_time": 11.147}, {"pitch": 62, "velocity": 74, "note_on_time": 11.309, "note_off_time": 11.559}, {"pitch": 64, "velocity": 73, "note_on_time": 11.72, "note_off_time": 11.91}, {"pitch": 64, "velocity": 78, "note_on_time": 12.111, "note_off_time": 12.296}, {"pitch": 64, "velocity": 73, "note_on_time": 12.512, "note_off_time": 12.699}, {"pitch": 64, "velocity": 77, "note_on_time": 12.93, "note_off_time": 13.121}, {"pitch": 62, "velocity": 71, "note_on_time": 13.374, "note_off_time": 13.685}]</notes><guidance name="Guidance Mode">None</guidance><error name="Error value">0.27185714285714285</error></trial></trials></MIDI>