<MIDI midiNo="2022_11_14-18_45_03"><target_notes><notes name="Note List">[{"pitch": 42, "velocity": 80, "note_on_time": 0.004, "note_off_time": 0.232}, {"pitch": 42, "velocity": 80, "note_on_time": 0.232, "note_off_time": 0.448}, {"pitch": 42, "velocity": 80, "note_on_time": 0.448, "note_off_time": 0.668}, {"pitch": 42, "velocity": 80, "note_on_time": 0.668, "note_off_time": 0.884}, {"pitch": 42, "velocity": 80, "note_on_time": 0.884, "note_off_time": 1.103}, {"pitch": 62, "velocity": 80, "note_on_time": 0.884, "note_off_time": 1.321}, {"pitch": 42, "velocity": 80, "note_on_time": 1.103, "note_off_time": 1.321}, {"pitch": 65, "velocity": 80, "note_on_time": 1.321, "note_off_time": 1.539}, {"pitch": 42, "velocity": 80, "note_on_time": 1.321, "note_off_time": 1.539}, {"pitch": 60, "velocity": 80, "note_on_time": 1.539, "note_off_time": 1.757}, {"pitch": 42, "velocity": 80, "note_on_time": 1.539, "note_off_time": 1.757}, {"pitch": 64, "velocity": 80, "note_on_time": 1.757, "note_off_time": 1.974}, {"pitch": 42, "velocity": 80, "note_on_time": 1.757, "note_off_time": 1.974}, {"pitch": 62, "velocity": 80, "note_on_time": 1.974, "note_off_time": 2.193}, {"pitch": 42, "velocity": 80, "note_on_time": 1.974, "note_off_time": 2.193}, {"pitch": 64, "velocity": 80, "note_on_time": 2.193, "note_off_time": 2.414}, {"pitch": 42, "velocity": 80, "note_on_time": 2.193, "note_off_time": 2.414}, {"pitch": 60, "velocity": 80, "note_on_time": 2.414, "note_off_time": 2.629}, {"pitch": 42, "velocity": 80, "note_on_time": 2.414, "note_off_time": 2.629}, {"pitch": 60, "velocity": 80, "note_on_time": 2.629, "note_off_time": 2.848}, {"pitch": 42, "velocity": 80, "note_on_time": 2.629, "note_off_time": 2.848}, {"pitch": 64, "velocity": 80, "note_on_time": 2.848, "note_off_time": 3.064}, {"pitch": 42, "velocity": 80, "note_on_time": 2.848, "note_off_time": 3.064}, {"pitch": 60, "velocity": 80, "note_on_time": 3.064, "note_off_time": 3.282}, {"pitch": 42, "velocity": 80, "note_on_time": 3.064, "note_off_time": 3.282}, {"pitch": 62, "velocity": 80, "note_on_time": 3.282, "note_off_time": 3.501}, {"pitch": 42, "velocity": 80, "note_on_time": 3.282, "note_off_time": 3.501}, {"pitch": 62, "velocity": 80, "note_on_time": 3.501, "note_off_time": 3.718}, {"pitch": 42, "velocity": 80, "note_on_time": 3.501, "note_off_time": 3.718}, {"pitch": 64, "velocity": 80, "note_on_time": 3.718, "note_off_time": 3.935}, {"pitch": 42, "velocity": 80, "note_on_time": 3.718, "note_off_time": 3.935}, {"pitch": 65, "velocity": 80, "note_on_time": 3.935, "note_off_time": 4.152}, {"pitch": 42, "velocity": 80, "note_on_time": 3.935, "note_off_time": 4.152}, {"pitch": 65, "velocity": 80, "note_on_time": 4.152, "note_off_time": 4.369}, {"pitch": 42, "velocity": 80, "note_on_time": 4.153, "note_off_time": 4.369}, {"pitch": 42, "velocity": 80, "note_on_time": 4.369, "note_off_time": 4.586}, {"pitch": 62, "velocity": 80, "note_on_time": 4.369, "note_off_time": 4.803}, {"pitch": 42, "velocity": 80, "note_on_time": 4.586, "note_off_time": 4.803}, {"pitch": 42, "velocity": 80, "note_on_time": 4.803, "note_off_time": 5.022}, {"pitch": 42, "velocity": 80, "note_on_time": 5.022, "note_off_time": 5.24}, {"pitch": 42, "velocity": 80, "note_on_time": 5.24, "note_off_time": 5.457}, {"pitch": 64, "velocity": 80, "note_on_time": 5.24, "note_off_time": 5.674}, {"pitch": 42, "velocity": 80, "note_on_time": 5.457, "note_off_time": 5.674}, {"pitch": 42, "velocity": 80, "note_on_time": 5.674, "note_off_time": 5.892}, {"pitch": 62, "velocity": 80, "note_on_time": 5.674, "note_off_time": 6.11}, {"pitch": 42, "velocity": 80, "note_on_time": 5.892, "note_off_time": 6.11}, {"pitch": 64, "velocity": 80, "note_on_time": 6.11, "note_off_time": 6.327}, {"pitch": 42, "velocity": 80, "note_on_time": 6.11, "note_off_time": 6.327}, {"pitch": 42, "velocity": 80, "note_on_time": 6.328, "note_off_time": 6.545}, {"pitch": 42, "velocity": 80, "note_on_time": 6.546, "note_off_time": 6.763}, {"pitch": 42, "velocity": 80, "note_on_time": 6.763, "note_off_time": 6.98}, {"pitch": 42, "velocity": 80, "note_on_time": 6.98, "note_off_time": 7.2}, {"pitch": 64, "velocity": 80, "note_on_time": 7.2, "note_off_time": 7.418}, {"pitch": 42, "velocity": 80, "note_on_time": 7.2, "note_off_time": 7.418}, {"pitch": 64, "velocity": 80, "note_on_time": 7.418, "note_off_time": 7.636}, {"pitch": 42, "velocity": 80, "note_on_time": 7.418, "note_off_time": 7.636}, {"pitch": 64, "velocity": 80, "note_on_time": 7.636, "note_off_time": 7.853}, {"pitch": 42, "velocity": 80, "note_on_time": 7.636, "note_off_time": 7.853}]</notes><options name="Option List">((4, 4), [0.5, 0.25], 3, 8, &lt;NoteRangePerHand.FOUR_NOTES: 5&gt;, &lt;NoteRangePerHand.ONE_NOTE: 2&gt;, False, True, False, 281)</options></target_notes><trials><trial trial_no="1" timestamp="2022_11_14-18_44_53"><notes name="Played Notes">[{"pitch": 62, "velocity": 56, "note_on_time": 0.979, "note_off_time": 1.305}, {"pitch": 65, "velocity": 55, "note_on_time": 1.298, "note_off_time": 1.53}, {"pitch": 60, "velocity": 51, "note_on_time": 2.05, "note_off_time": 2.414}, {"pitch": 64, "velocity": 69, "note_on_time": 2.439, "note_off_time": 2.738}, {"pitch": 62, "velocity": 60, "note_on_time": 2.736, "note_off_time": 2.987}, {"pitch": 64, "velocity": 61, "note_on_time": 3.024, "note_off_time": 3.299}, {"pitch": 60, "velocity": 75, "note_on_time": 3.314, "note_off_time": 3.49}, {"pitch": 60, "velocity": 76, "note_on_time": 3.616, "note_off_time": 3.897}, {"pitch": 64, "velocity": 68, "note_on_time": 3.897, "note_off_time": 4.166}, {"pitch": 60, "velocity": 78, "note_on_time": 4.176, "note_off_time": 4.457}, {"pitch": 62, "velocity": 74, "note_on_time": 4.446, "note_off_time": 4.558}, {"pitch": 62, "velocity": 80, "note_on_time": 4.721, "note_off_time": 5.02}, {"pitch": 64, "velocity": 71, "note_on_time": 4.996, "note_off_time": 5.34}, {"pitch": 65, "velocity": 79, "note_on_time": 5.285, "note_off_time": 5.4}, {"pitch": 65, "velocity": 83, "note_on_time": 5.57, "note_off_time": 5.871}, {"pitch": 62, "velocity": 82, "note_on_time": 5.86, "note_off_time": 6.332}, {"pitch": 64, "velocity": 80, "note_on_time": 6.76, "note_off_time": 7.072}, {"pitch": 62, "velocity": 77, "note_on_time": 7.072, "note_off_time": 7.627}]</notes><guidance name="Guidance Mode">None</guidance><error name="Error value">0.9425133157894736</error></trial></trials></MIDI>