<MIDI midiNo="2022_11_21-18_05_10"><target_notes><notes name="Note List">[{"pitch": 42, "velocity": 80, "note_on_time": 0.003, "note_off_time": 0.335}, {"pitch": 42, "velocity": 80, "note_on_time": 0.335, "note_off_time": 0.676}, {"pitch": 42, "velocity": 80, "note_on_time": 0.676, "note_off_time": 1.018}, {"pitch": 42, "velocity": 80, "note_on_time": 1.018, "note_off_time": 1.362}, {"pitch": 42, "velocity": 80, "note_on_time": 1.362, "note_off_time": 1.704}, {"pitch": 60, "velocity": 80, "note_on_time": 1.362, "note_off_time": 2.046}, {"pitch": 42, "velocity": 80, "note_on_time": 1.704, "note_off_time": 2.046}, {"pitch": 42, "velocity": 80, "note_on_time": 2.046, "note_off_time": 2.387}, {"pitch": 64, "velocity": 80, "note_on_time": 2.387, "note_off_time": 2.73}, {"pitch": 42, "velocity": 80, "note_on_time": 2.387, "note_off_time": 2.73}, {"pitch": 67, "velocity": 80, "note_on_time": 2.73, "note_off_time": 3.07}, {"pitch": 42, "velocity": 80, "note_on_time": 2.73, "note_off_time": 3.07}, {"pitch": 67, "velocity": 80, "note_on_time": 3.07, "note_off_time": 3.414}, {"pitch": 42, "velocity": 80, "note_on_time": 3.07, "note_off_time": 3.414}, {"pitch": 65, "velocity": 80, "note_on_time": 3.414, "note_off_time": 3.757}, {"pitch": 42, "velocity": 80, "note_on_time": 3.414, "note_off_time": 3.758}, {"pitch": 62, "velocity": 80, "note_on_time": 3.758, "note_off_time": 4.099}, {"pitch": 42, "velocity": 80, "note_on_time": 3.758, "note_off_time": 4.099}, {"pitch": 64, "velocity": 80, "note_on_time": 4.099, "note_off_time": 4.442}, {"pitch": 42, "velocity": 80, "note_on_time": 4.099, "note_off_time": 4.442}, {"pitch": 60, "velocity": 80, "note_on_time": 4.442, "note_off_time": 4.785}, {"pitch": 42, "velocity": 80, "note_on_time": 4.442, "note_off_time": 4.786}, {"pitch": 42, "velocity": 80, "note_on_time": 4.786, "note_off_time": 5.128}, {"pitch": 65, "velocity": 80, "note_on_time": 4.785, "note_off_time": 5.47}, {"pitch": 42, "velocity": 80, "note_on_time": 5.128, "note_off_time": 5.47}, {"pitch": 62, "velocity": 80, "note_on_time": 5.47, "note_off_time": 5.81}, {"pitch": 42, "velocity": 80, "note_on_time": 5.47, "note_off_time": 5.81}, {"pitch": 62, "velocity": 80, "note_on_time": 5.81, "note_off_time": 6.153}, {"pitch": 42, "velocity": 80, "note_on_time": 5.81, "note_off_time": 6.153}, {"pitch": 60, "velocity": 80, "note_on_time": 6.153, "note_off_time": 6.496}, {"pitch": 42, "velocity": 80, "note_on_time": 6.153, "note_off_time": 6.496}, {"pitch": 60, "velocity": 80, "note_on_time": 6.496, "note_off_time": 6.837}, {"pitch": 42, "velocity": 80, "note_on_time": 6.496, "note_off_time": 6.837}, {"pitch": 65, "velocity": 80, "note_on_time": 6.837, "note_off_time": 7.182}, {"pitch": 42, "velocity": 80, "note_on_time": 6.837, "note_off_time": 7.182}, {"pitch": 42, "velocity": 80, "note_on_time": 7.182, "note_off_time": 7.524}, {"pitch": 42, "velocity": 80, "note_on_time": 7.524, "note_off_time": 7.87}, {"pitch": 42, "velocity": 80, "note_on_time": 7.87, "note_off_time": 8.212}, {"pitch": 65, "velocity": 80, "note_on_time": 8.212, "note_off_time": 8.552}, {"pitch": 42, "velocity": 80, "note_on_time": 8.212, "note_off_time": 8.552}, {"pitch": 67, "velocity": 80, "note_on_time": 8.552, "note_off_time": 8.894}, {"pitch": 42, "velocity": 80, "note_on_time": 8.552, "note_off_time": 8.894}, {"pitch": 62, "velocity": 80, "note_on_time": 8.894, "note_off_time": 9.238}, {"pitch": 42, "velocity": 80, "note_on_time": 8.894, "note_off_time": 9.238}, {"pitch": 62, "velocity": 80, "note_on_time": 9.238, "note_off_time": 9.578}, {"pitch": 42, "velocity": 80, "note_on_time": 9.238, "note_off_time": 9.578}, {"pitch": 42, "velocity": 80, "note_on_time": 9.578, "note_off_time": 9.921}, {"pitch": 64, "velocity": 80, "note_on_time": 9.578, "note_off_time": 10.265}, {"pitch": 42, "velocity": 80, "note_on_time": 9.921, "note_off_time": 10.265}, {"pitch": 42, "velocity": 80, "note_on_time": 10.265, "note_off_time": 10.607}, {"pitch": 42, "velocity": 80, "note_on_time": 10.607, "note_off_time": 10.949}, {"pitch": 42, "velocity": 80, "note_on_time": 10.949, "note_off_time": 11.291}, {"pitch": 64, "velocity": 80, "note_on_time": 11.291, "note_off_time": 11.634}, {"pitch": 42, "velocity": 80, "note_on_time": 11.291, "note_off_time": 11.634}, {"pitch": 64, "velocity": 80, "note_on_time": 11.634, "note_off_time": 11.977}, {"pitch": 42, "velocity": 80, "note_on_time": 11.634, "note_off_time": 11.977}, {"pitch": 64, "velocity": 80, "note_on_time": 11.977, "note_off_time": 12.32}, {"pitch": 42, "velocity": 80, "note_on_time": 11.977, "note_off_time": 12.32}]</notes><options name="Option List">((4, 4), [0.5, 0.25], 3, 8, &lt;NoteRangePerHand.C_TO_G: 6&gt;, &lt;NoteRangePerHand.ONE_NOTE: 2&gt;, False, True, False, '182')</options></target_notes><trials><trial trial_no="1" timestamp="2022_11_21-18_04_56"><notes name="Played Notes">[{"pitch": 60, "velocity": 93, "note_on_time": 1.449, "note_off_time": 1.857}, {"pitch": 64, "velocity": 81, "note_on_time": 2.186, "note_off_time": 2.555}, {"pitch": 67, "velocity": 88, "note_on_time": 2.552, "note_off_time": 2.656}, {"pitch": 67, "velocity": 92, "note_on_time": 2.912, "note_off_time": 3.267}, {"pitch": 65, "velocity": 86, "note_on_time": 3.28, "note_off_time": 3.629}, {"pitch": 64, "velocity": 71, "note_on_time": 3.646, "note_off_time": 4.016}, {"pitch": 65, "velocity": 85, "note_on_time": 4.021, "note_off_time": 4.371}, {"pitch": 62, "velocity": 80, "note_on_time": 4.394, "note_off_time": 4.761}, {"pitch": 64, "velocity": 84, "note_on_time": 4.754, "note_off_time": 5.34}, {"pitch": 62, "velocity": 95, "note_on_time": 5.607, "note_off_time": 5.702}, {"pitch": 62, "velocity": 91, "note_on_time": 5.962, "note_off_time": 6.073}, {"pitch": 60, "velocity": 97, "note_on_time": 6.313, "note_off_time": 6.408}, {"pitch": 60, "velocity": 98, "note_on_time": 6.667, "note_off_time": 6.771}, {"pitch": 65, "velocity": 102, "note_on_time": 7.02, "note_off_time": 7.297}, {"pitch": 65, "velocity": 98, "note_on_time": 8.464, "note_off_time": 8.784}, {"pitch": 67, "velocity": 78, "note_on_time": 8.797, "note_off_time": 9.172}, {"pitch": 62, "velocity": 89, "note_on_time": 9.184, "note_off_time": 9.276}, {"pitch": 62, "velocity": 89, "note_on_time": 9.554, "note_off_time": 9.908}, {"pitch": 64, "velocity": 101, "note_on_time": 9.931, "note_off_time": 10.375}, {"pitch": 64, "velocity": 97, "note_on_time": 11.412, "note_off_time": 11.508}, {"pitch": 64, "velocity": 98, "note_on_time": 11.76, "note_off_time": 11.859}, {"pitch": 64, "velocity": 94, "note_on_time": 12.133, "note_off_time": 12.315}]</notes><guidance name="Guidance Mode">None</guidance><error name="Error value">0.2791026315789471</error></trial><trial trial_no="2" timestamp="2022_11_21-18_05_29"><notes name="Played Notes">[{"pitch": 60, "velocity": 95, "note_on_time": 1.229, "note_off_time": 1.613}, {"pitch": 64, "velocity": 94, "note_on_time": 2.331, "note_off_time": 2.677}, {"pitch": 67, "velocity": 81, "note_on_time": 2.703, "note_off_time": 2.82}, {"pitch": 67, "velocity": 96, "note_on_time": 3.045, "note_off_time": 3.423}, {"pitch": 65, "velocity": 90, "note_on_time": 3.426, "note_off_time": 3.841}, {"pitch": 62, "velocity": 94, "note_on_time": 3.852, "note_off_time": 4.223}, {"pitch": 65, "velocity": 88, "note_on_time": 4.223, "note_off_time": 4.59}, {"pitch": 60, "velocity": 100, "note_on_time": 4.619, "note_off_time": 4.998}, {"pitch": 64, "velocity": 97, "note_on_time": 5.021, "note_off_time": 5.167}, {"pitch": 65, "velocity": 96, "note_on_time": 5.242, "note_off_time": 5.882}, {"pitch": 62, "velocity": 100, "note_on_time": 6.156, "note_off_time": 6.251}, {"pitch": 62, "velocity": 93, "note_on_time": 6.525, "note_off_time": 6.665}, {"pitch": 60, "velocity": 100, "note_on_time": 6.875, "note_off_time": 6.999}, {"pitch": 60, "velocity": 100, "note_on_time": 7.241, "note_off_time": 7.384}, {"pitch": 65, "velocity": 100, "note_on_time": 7.62, "note_off_time": 7.968}, {"pitch": 65, "velocity": 99, "note_on_time": 9.233, "note_off_time": 9.581}, {"pitch": 67, "velocity": 87, "note_on_time": 9.597, "note_off_time": 9.964}, {"pitch": 62, "velocity": 94, "note_on_time": 9.977, "note_off_time": 10.071}, {"pitch": 62, "velocity": 100, "note_on_time": 10.338, "note_off_time": 10.449}, {"pitch": 64, "velocity": 98, "note_on_time": 10.809, "note_off_time": 11.339}]</notes><guidance name="Guidance Mode">None</guidance><error name="Error value">0.8174021052631577</error></trial><trial trial_no="3" timestamp="2022_11_21-18_05_59"><notes name="Played Notes">[{"pitch": 60, "velocity": 99, "note_on_time": 1.538, "note_off_time": 1.894}, {"pitch": 64, "velocity": 95, "note_on_time": 2.3, "note_off_time": 2.658}, {"pitch": 67, "velocity": 95, "note_on_time": 2.674, "note_off_time": 2.79}, {"pitch": 67, "velocity": 98, "note_on_time": 3.057, "note_off_time": 3.406}, {"pitch": 65, "velocity": 91, "note_on_time": 3.423, "note_off_time": 3.792}, {"pitch": 62, "velocity": 87, "note_on_time": 3.8, "note_off_time": 4.181}, {"pitch": 64, "velocity": 90, "note_on_time": 4.172, "note_off_time": 4.529}, {"pitch": 60, "velocity": 94, "note_on_time": 4.543, "note_off_time": 4.911}, {"pitch": 65, "velocity": 97, "note_on_time": 4.911, "note_off_time": 5.432}, {"pitch": 62, "velocity": 97, "note_on_time": 5.677, "note_off_time": 5.763}, {"pitch": 62, "velocity": 94, "note_on_time": 6.027, "note_off_time": 6.149}, {"pitch": 60, "velocity": 105, "note_on_time": 6.392, "note_off_time": 6.477}, {"pitch": 60, "velocity": 99, "note_on_time": 6.754, "note_off_time": 6.872}, {"pitch": 65, "velocity": 106, "note_on_time": 7.121, "note_off_time": 7.347}, {"pitch": 65, "velocity": 90, "note_on_time": 8.525, "note_off_time": 8.873}, {"pitch": 67, "velocity": 82, "note_on_time": 8.888, "note_off_time": 9.272}, {"pitch": 62, "velocity": 89, "note_on_time": 9.257, "note_off_time": 9.358}, {"pitch": 62, "velocity": 87, "note_on_time": 9.644, "note_off_time": 9.934}, {"pitch": 64, "velocity": 87, "note_on_time": 9.978, "note_off_time": 10.539}, {"pitch": 64, "velocity": 96, "note_on_time": 11.435, "note_off_time": 11.539}, {"pitch": 64, "velocity": 99, "note_on_time": 11.8, "note_off_time": 11.879}]</notes><guidance name="Guidance Mode">None</guidance><error name="Error value">0.1335942105263157</error></trial><trial trial_no="4" timestamp="2022_11_21-18_06_28"><notes name="Played Notes">[{"pitch": 60, "velocity": 99, "note_on_time": 1.26, "note_off_time": 1.568}, {"pitch": 65, "velocity": 97, "note_on_time": 2.512, "note_off_time": 2.662}, {"pitch": 65, "velocity": 48, "note_on_time": 2.782, "note_off_time": 2.887}, {"pitch": 67, "velocity": 90, "note_on_time": 2.895, "note_off_time": 3.015}, {"pitch": 67, "velocity": 98, "note_on_time": 3.242, "note_off_time": 3.613}, {"pitch": 65, "velocity": 98, "note_on_time": 3.625, "note_off_time": 3.943}, {"pitch": 62, "velocity": 84, "note_on_time": 3.967, "note_off_time": 4.366}, {"pitch": 65, "velocity": 92, "note_on_time": 4.362, "note_off_time": 4.689}, {"pitch": 60, "velocity": 76, "note_on_time": 4.733, "note_off_time": 5.133}, {"pitch": 65, "velocity": 93, "note_on_time": 5.119, "note_off_time": 5.582}, {"pitch": 62, "velocity": 96, "note_on_time": 6.43, "note_off_time": 6.539}, {"pitch": 62, "velocity": 94, "note_on_time": 6.797, "note_off_time": 6.923}, {"pitch": 60, "velocity": 100, "note_on_time": 7.161, "note_off_time": 7.271}, {"pitch": 60, "velocity": 98, "note_on_time": 7.518, "note_off_time": 7.644}, {"pitch": 65, "velocity": 103, "note_on_time": 7.901, "note_off_time": 8.175}, {"pitch": 65, "velocity": 95, "note_on_time": 9.264, "note_off_time": 9.618}, {"pitch": 67, "velocity": 82, "note_on_time": 9.63, "note_off_time": 10.012}, {"pitch": 62, "velocity": 91, "note_on_time": 10.011, "note_off_time": 10.109}, {"pitch": 62, "velocity": 86, "note_on_time": 10.374, "note_off_time": 10.839}, {"pitch": 64, "velocity": 75, "note_on_time": 10.857, "note_off_time": 11.509}]</notes><guidance name="Guidance Mode">None</guidance><error name="Error value">1.0674552631578946</error></trial><trial trial_no="5" timestamp="2022_11_21-18_06_52"><notes name="Played Notes">[{"pitch": 60, "velocity": 99, "note_on_time": 1.729, "note_off_time": 2.098}, {"pitch": 64, "velocity": 81, "note_on_time": 3.21, "note_off_time": 3.589}, {"pitch": 67, "velocity": 91, "note_on_time": 3.597, "note_off_time": 3.712}, {"pitch": 67, "velocity": 90, "note_on_time": 3.964, "note_off_time": 4.324}, {"pitch": 65, "velocity": 85, "note_on_time": 4.333, "note_off_time": 4.706}, {"pitch": 62, "velocity": 83, "note_on_time": 4.707, "note_off_time": 5.068}, {"pitch": 64, "velocity": 75, "note_on_time": 5.078, "note_off_time": 5.45}, {"pitch": 60, "velocity": 83, "note_on_time": 5.452, "note_off_time": 5.848}, {"pitch": 65, "velocity": 100, "note_on_time": 5.837, "note_off_time": 6.228}, {"pitch": 62, "velocity": 94, "note_on_time": 6.94, "note_off_time": 7.042}, {"pitch": 62, "velocity": 89, "note_on_time": 7.312, "note_off_time": 7.625}, {"pitch": 60, "velocity": 92, "note_on_time": 7.656, "note_off_time": 7.766}, {"pitch": 60, "velocity": 91, "note_on_time": 8.042, "note_off_time": 8.403}, {"pitch": 65, "velocity": 92, "note_on_time": 8.419, "note_off_time": 8.88}, {"pitch": 65, "velocity": 92, "note_on_time": 9.821, "note_off_time": 10.19}, {"pitch": 67, "velocity": 81, "note_on_time": 10.194, "note_off_time": 10.582}, {"pitch": 62, "velocity": 88, "note_on_time": 10.563, "note_off_time": 10.653}, {"pitch": 62, "velocity": 86, "note_on_time": 10.93, "note_off_time": 11.293}, {"pitch": 64, "velocity": 88, "note_on_time": 11.31, "note_off_time": 11.679}]</notes><guidance name="Guidance Mode">None</guidance><error name="Error value">0.312487894736842</error></trial></trials></MIDI>