<MIDI midiNo="2022_10_27-14_11_34"><target_notes><notes name="Note List">[{"pitch": 42, "velocity": 80, "note_on_time": 0.003, "note_off_time": 0.299}, {"pitch": 42, "velocity": 80, "note_on_time": 0.299, "note_off_time": 0.582}, {"pitch": 42, "velocity": 80, "note_on_time": 0.582, "note_off_time": 0.877}, {"pitch": 42, "velocity": 80, "note_on_time": 0.878, "note_off_time": 1.16}, {"pitch": 42, "velocity": 80, "note_on_time": 1.161, "note_off_time": 1.456}, {"pitch": 67, "velocity": 80, "note_on_time": 1.16, "note_off_time": 1.739}, {"pitch": 42, "velocity": 80, "note_on_time": 1.456, "note_off_time": 1.74}, {"pitch": 42, "velocity": 80, "note_on_time": 1.74, "note_off_time": 2.021}, {"pitch": 64, "velocity": 80, "note_on_time": 2.02, "note_off_time": 2.316}, {"pitch": 42, "velocity": 80, "note_on_time": 2.021, "note_off_time": 2.317}, {"pitch": 42, "velocity": 80, "note_on_time": 2.317, "note_off_time": 2.612}, {"pitch": 64, "velocity": 80, "note_on_time": 2.316, "note_off_time": 2.907}, {"pitch": 42, "velocity": 80, "note_on_time": 2.612, "note_off_time": 2.907}, {"pitch": 42, "velocity": 80, "note_on_time": 2.908, "note_off_time": 3.203}, {"pitch": 67, "velocity": 80, "note_on_time": 2.907, "note_off_time": 3.486}, {"pitch": 42, "velocity": 80, "note_on_time": 3.204, "note_off_time": 3.486}, {"pitch": 42, "velocity": 80, "note_on_time": 3.486, "note_off_time": 3.782}, {"pitch": 64, "velocity": 80, "note_on_time": 3.486, "note_off_time": 4.077}, {"pitch": 42, "velocity": 80, "note_on_time": 3.782, "note_off_time": 4.077}, {"pitch": 42, "velocity": 80, "note_on_time": 4.078, "note_off_time": 4.373}, {"pitch": 60, "velocity": 80, "note_on_time": 4.373, "note_off_time": 4.669}, {"pitch": 42, "velocity": 80, "note_on_time": 4.373, "note_off_time": 4.669}, {"pitch": 60, "velocity": 80, "note_on_time": 4.669, "note_off_time": 4.964}, {"pitch": 42, "velocity": 80, "note_on_time": 4.67, "note_off_time": 4.964}, {"pitch": 42, "velocity": 80, "note_on_time": 4.965, "note_off_time": 5.261}, {"pitch": 42, "velocity": 80, "note_on_time": 5.261, "note_off_time": 5.556}, {"pitch": 42, "velocity": 80, "note_on_time": 5.556, "note_off_time": 5.838}, {"pitch": 42, "velocity": 80, "note_on_time": 5.839, "note_off_time": 6.134}, {"pitch": 64, "velocity": 80, "note_on_time": 5.838, "note_off_time": 6.428}, {"pitch": 42, "velocity": 80, "note_on_time": 6.134, "note_off_time": 6.428}, {"pitch": 42, "velocity": 80, "note_on_time": 6.429, "note_off_time": 6.723}, {"pitch": 42, "velocity": 80, "note_on_time": 6.723, "note_off_time": 7.017}, {"pitch": 62, "velocity": 80, "note_on_time": 7.017, "note_off_time": 7.313}, {"pitch": 42, "velocity": 80, "note_on_time": 7.017, "note_off_time": 7.313}, {"pitch": 67, "velocity": 80, "note_on_time": 7.313, "note_off_time": 7.609}, {"pitch": 42, "velocity": 80, "note_on_time": 7.314, "note_off_time": 7.609}, {"pitch": 64, "velocity": 80, "note_on_time": 7.609, "note_off_time": 7.905}, {"pitch": 42, "velocity": 80, "note_on_time": 7.61, "note_off_time": 7.905}, {"pitch": 64, "velocity": 80, "note_on_time": 7.905, "note_off_time": 8.187}, {"pitch": 42, "velocity": 80, "note_on_time": 7.905, "note_off_time": 8.188}, {"pitch": 42, "velocity": 80, "note_on_time": 8.188, "note_off_time": 8.483}, {"pitch": 65, "velocity": 80, "note_on_time": 8.187, "note_off_time": 8.778}, {"pitch": 42, "velocity": 80, "note_on_time": 8.483, "note_off_time": 8.779}, {"pitch": 64, "velocity": 80, "note_on_time": 8.778, "note_off_time": 9.06}, {"pitch": 42, "velocity": 80, "note_on_time": 8.779, "note_off_time": 9.06}, {"pitch": 42, "velocity": 80, "note_on_time": 9.061, "note_off_time": 9.355}, {"pitch": 42, "velocity": 80, "note_on_time": 9.355, "note_off_time": 9.649}, {"pitch": 64, "velocity": 80, "note_on_time": 9.649, "note_off_time": 9.931}, {"pitch": 42, "velocity": 80, "note_on_time": 9.649, "note_off_time": 9.931}, {"pitch": 64, "velocity": 80, "note_on_time": 9.931, "note_off_time": 10.226}, {"pitch": 42, "velocity": 80, "note_on_time": 9.932, "note_off_time": 10.227}, {"pitch": 64, "velocity": 80, "note_on_time": 10.226, "note_off_time": 10.508}, {"pitch": 42, "velocity": 80, "note_on_time": 10.227, "note_off_time": 10.509}]</notes><options name="Option List">((4, 4), [0.5, 0.25], 3, 8, &lt;NoteRangePerHand.C_TO_G: 6&gt;, &lt;NoteRangePerHand.ONE_NOTE: 2&gt;, False, True, False, 215)</options></target_notes><trials><trial trial_no="1" timestamp="2022_10_27-14_11_22"><notes name="Played Notes">[{"pitch": 79, "velocity": 80, "note_on_time": 1.195, "note_off_time": 1.584}, {"pitch": 76, "velocity": 75, "note_on_time": 2.055, "note_off_time": 2.19}, {"pitch": 76, "velocity": 74, "note_on_time": 2.364, "note_off_time": 2.809}, {"pitch": 79, "velocity": 76, "note_on_time": 2.939, "note_off_time": 3.45}, {"pitch": 76, "velocity": 72, "note_on_time": 3.517, "note_off_time": 4.114}, {"pitch": 72, "velocity": 72, "note_on_time": 4.38, "note_off_time": 4.521}, {"pitch": 72, "velocity": 71, "note_on_time": 4.715, "note_off_time": 5.102}, {"pitch": 76, "velocity": 70, "note_on_time": 5.828, "note_off_time": 6.408}, {"pitch": 74, "velocity": 74, "note_on_time": 7.003, "note_off_time": 7.249}, {"pitch": 79, "velocity": 71, "note_on_time": 7.293, "note_off_time": 7.459}, {"pitch": 76, "velocity": 77, "note_on_time": 7.587, "note_off_time": 7.726}, {"pitch": 76, "velocity": 80, "note_on_time": 7.891, "note_off_time": 8.025}, {"pitch": 77, "velocity": 84, "note_on_time": 8.191, "note_off_time": 8.617}, {"pitch": 76, "velocity": 77, "note_on_time": 8.774, "note_off_time": 9.039}, {"pitch": 76, "velocity": 78, "note_on_time": 9.606, "note_off_time": 9.729}, {"pitch": 76, "velocity": 75, "note_on_time": 9.901, "note_off_time": 10.033}, {"pitch": 76, "velocity": 82, "note_on_time": 10.191, "note_off_time": 10.3}]</notes><guidance name="Guidance Mode">None</guidance><error name="Error value">1.2401304999999998</error></trial><trial trial_no="2" timestamp="2022_10_27-14_11_43"><notes name="Played Notes">[{"pitch": 79, "velocity": 77, "note_on_time": 1.187, "note_off_time": 1.616}, {"pitch": 76, "velocity": 72, "note_on_time": 2.04, "note_off_time": 2.167}, {"pitch": 76, "velocity": 72, "note_on_time": 2.348, "note_off_time": 2.639}, {"pitch": 79, "velocity": 79, "note_on_time": 2.9, "note_off_time": 3.205}, {"pitch": 76, "velocity": 66, "note_on_time": 3.493, "note_off_time": 3.972}, {"pitch": 72, "velocity": 73, "note_on_time": 4.333, "note_off_time": 4.45}, {"pitch": 72, "velocity": 76, "note_on_time": 4.649, "note_off_time": 4.85}, {"pitch": 76, "velocity": 73, "note_on_time": 5.796, "note_off_time": 6.205}, {"pitch": 74, "velocity": 68, "note_on_time": 6.971, "note_off_time": 7.129}, {"pitch": 79, "velocity": 74, "note_on_time": 7.223, "note_off_time": 7.366}, {"pitch": 76, "velocity": 71, "note_on_time": 7.522, "note_off_time": 7.652}, {"pitch": 76, "velocity": 72, "note_on_time": 7.823, "note_off_time": 7.949}, {"pitch": 77, "velocity": 79, "note_on_time": 8.123, "note_off_time": 8.397}, {"pitch": 76, "velocity": 77, "note_on_time": 8.704, "note_off_time": 8.93}, {"pitch": 76, "velocity": 79, "note_on_time": 9.57, "note_off_time": 9.69}, {"pitch": 76, "velocity": 75, "note_on_time": 9.858, "note_off_time": 9.984}, {"pitch": 76, "velocity": 74, "note_on_time": 10.135, "note_off_time": 10.244}]</notes><guidance name="Guidance Mode">None</guidance><error name="Error value">1.2405295</error></trial><trial trial_no="3" timestamp="2022_10_27-14_12_02"><notes name="Played Notes">[{"pitch": 79, "velocity": 80, "note_on_time": 1.185, "note_off_time": 1.604}, {"pitch": 76, "velocity": 75, "note_on_time": 2.018, "note_off_time": 2.169}, {"pitch": 76, "velocity": 82, "note_on_time": 2.329, "note_off_time": 2.638}, {"pitch": 79, "velocity": 70, "note_on_time": 2.893, "note_off_time": 3.263}, {"pitch": 76, "velocity": 70, "note_on_time": 3.48, "note_off_time": 3.879}, {"pitch": 72, "velocity": 74, "note_on_time": 4.336, "note_off_time": 4.452}, {"pitch": 72, "velocity": 75, "note_on_time": 4.645, "note_off_time": 4.897}, {"pitch": 76, "velocity": 73, "note_on_time": 5.799, "note_off_time": 6.181}, {"pitch": 74, "velocity": 74, "note_on_time": 6.942, "note_off_time": 7.118}, {"pitch": 79, "velocity": 77, "note_on_time": 7.246, "note_off_time": 7.405}, {"pitch": 76, "velocity": 73, "note_on_time": 7.541, "note_off_time": 7.68}, {"pitch": 76, "velocity": 76, "note_on_time": 7.839, "note_off_time": 7.968}, {"pitch": 77, "velocity": 82, "note_on_time": 8.13, "note_off_time": 8.465}, {"pitch": 76, "velocity": 69, "note_on_time": 8.695, "note_off_time": 8.842}, {"pitch": 76, "velocity": 75, "note_on_time": 9.56, "note_off_time": 9.697}, {"pitch": 76, "velocity": 74, "note_on_time": 9.857, "note_off_time": 9.99}, {"pitch": 76, "velocity": 78, "note_on_time": 10.145, "note_off_time": 10.245}]</notes><guidance name="Guidance Mode">None</guidance><error name="Error value">1.2369482142857144</error></trial></trials></MIDI>