<MIDI midiNo="2022_12_01-10_46_20"><target_notes><notes name="Note List">[{"pitch": 42, "velocity": 80, "note_on_time": 0.005, "note_off_time": 0.315}, {"pitch": 42, "velocity": 80, "note_on_time": 0.315, "note_off_time": 0.627}, {"pitch": 42, "velocity": 80, "note_on_time": 0.627, "note_off_time": 0.936}, {"pitch": 42, "velocity": 80, "note_on_time": 0.936, "note_off_time": 1.247}, {"pitch": 67, "velocity": 80, "note_on_time": 1.247, "note_off_time": 1.557}, {"pitch": 42, "velocity": 80, "note_on_time": 1.248, "note_off_time": 1.557}, {"pitch": 62, "velocity": 80, "note_on_time": 1.557, "note_off_time": 1.868}, {"pitch": 42, "velocity": 80, "note_on_time": 1.557, "note_off_time": 1.868}, {"pitch": 62, "velocity": 80, "note_on_time": 1.868, "note_off_time": 2.18}, {"pitch": 42, "velocity": 80, "note_on_time": 1.868, "note_off_time": 2.18}, {"pitch": 62, "velocity": 80, "note_on_time": 2.18, "note_off_time": 2.49}, {"pitch": 42, "velocity": 80, "note_on_time": 2.181, "note_off_time": 2.49}, {"pitch": 60, "velocity": 80, "note_on_time": 2.49, "note_off_time": 2.801}, {"pitch": 42, "velocity": 80, "note_on_time": 2.49, "note_off_time": 2.801}, {"pitch": 60, "velocity": 80, "note_on_time": 2.801, "note_off_time": 3.111}, {"pitch": 42, "velocity": 80, "note_on_time": 2.801, "note_off_time": 3.112}, {"pitch": 67, "velocity": 80, "note_on_time": 3.111, "note_off_time": 3.423}, {"pitch": 42, "velocity": 80, "note_on_time": 3.112, "note_off_time": 3.423}, {"pitch": 62, "velocity": 80, "note_on_time": 3.423, "note_off_time": 3.734}, {"pitch": 42, "velocity": 80, "note_on_time": 3.424, "note_off_time": 3.735}, {"pitch": 42, "velocity": 80, "note_on_time": 3.735, "note_off_time": 4.044}, {"pitch": 62, "velocity": 80, "note_on_time": 3.734, "note_off_time": 4.355}, {"pitch": 42, "velocity": 80, "note_on_time": 4.044, "note_off_time": 4.355}, {"pitch": 42, "velocity": 80, "note_on_time": 4.355, "note_off_time": 4.665}, {"pitch": 42, "velocity": 80, "note_on_time": 4.665, "note_off_time": 4.976}, {"pitch": 42, "velocity": 80, "note_on_time": 4.977, "note_off_time": 5.288}, {"pitch": 62, "velocity": 80, "note_on_time": 4.976, "note_off_time": 5.601}, {"pitch": 42, "velocity": 80, "note_on_time": 5.288, "note_off_time": 5.601}, {"pitch": 42, "velocity": 80, "note_on_time": 5.601, "note_off_time": 5.914}, {"pitch": 42, "velocity": 80, "note_on_time": 5.914, "note_off_time": 6.222}, {"pitch": 60, "velocity": 80, "note_on_time": 6.222, "note_off_time": 6.533}, {"pitch": 42, "velocity": 80, "note_on_time": 6.223, "note_off_time": 6.534}, {"pitch": 42, "velocity": 80, "note_on_time": 6.534, "note_off_time": 6.844}, {"pitch": 64, "velocity": 80, "note_on_time": 6.533, "note_off_time": 7.157}, {"pitch": 42, "velocity": 80, "note_on_time": 6.844, "note_off_time": 7.157}, {"pitch": 64, "velocity": 80, "note_on_time": 7.157, "note_off_time": 7.468}, {"pitch": 42, "velocity": 80, "note_on_time": 7.158, "note_off_time": 7.468}, {"pitch": 60, "velocity": 80, "note_on_time": 7.468, "note_off_time": 7.78}, {"pitch": 42, "velocity": 80, "note_on_time": 7.469, "note_off_time": 7.78}, {"pitch": 67, "velocity": 80, "note_on_time": 7.78, "note_off_time": 8.09}, {"pitch": 42, "velocity": 80, "note_on_time": 7.78, "note_off_time": 8.09}, {"pitch": 60, "velocity": 80, "note_on_time": 8.09, "note_off_time": 8.401}, {"pitch": 42, "velocity": 80, "note_on_time": 8.091, "note_off_time": 8.401}, {"pitch": 67, "velocity": 80, "note_on_time": 8.401, "note_off_time": 8.711}, {"pitch": 42, "velocity": 80, "note_on_time": 8.402, "note_off_time": 8.711}, {"pitch": 60, "velocity": 80, "note_on_time": 8.711, "note_off_time": 9.021}, {"pitch": 42, "velocity": 80, "note_on_time": 8.711, "note_off_time": 9.021}, {"pitch": 64, "velocity": 80, "note_on_time": 9.021, "note_off_time": 9.332}, {"pitch": 42, "velocity": 80, "note_on_time": 9.021, "note_off_time": 9.333}, {"pitch": 67, "velocity": 80, "note_on_time": 9.332, "note_off_time": 9.643}, {"pitch": 42, "velocity": 80, "note_on_time": 9.333, "note_off_time": 9.643}, {"pitch": 64, "velocity": 80, "note_on_time": 9.643, "note_off_time": 9.955}, {"pitch": 42, "velocity": 80, "note_on_time": 9.643, "note_off_time": 9.955}, {"pitch": 42, "velocity": 80, "note_on_time": 9.955, "note_off_time": 10.268}, {"pitch": 64, "velocity": 80, "note_on_time": 10.268, "note_off_time": 10.579}, {"pitch": 42, "velocity": 80, "note_on_time": 10.268, "note_off_time": 10.579}, {"pitch": 64, "velocity": 80, "note_on_time": 10.579, "note_off_time": 10.892}, {"pitch": 42, "velocity": 80, "note_on_time": 10.58, "note_off_time": 10.892}, {"pitch": 64, "velocity": 80, "note_on_time": 10.892, "note_off_time": 11.203}, {"pitch": 42, "velocity": 80, "note_on_time": 10.892, "note_off_time": 11.203}]</notes><options name="Option List">((4, 4), [0.5, 0.25], 3, 8, &lt;NoteRangePerHand.C_TO_G: 6&gt;, &lt;NoteRangePerHand.ONE_NOTE: 2&gt;, False, True, False, '197')</options></target_notes><trials><trial trial_no="1" timestamp="2022_12_01-10_46_07"><notes name="Played Notes">[{"pitch": 67, "velocity": 68, "note_on_time": 1.203, "note_off_time": 1.561}, {"pitch": 62, "velocity": 69, "note_on_time": 1.515, "note_off_time": 1.631}, {"pitch": 62, "velocity": 74, "note_on_time": 1.794, "note_off_time": 1.88}, {"pitch": 62, "velocity": 70, "note_on_time": 2.101, "note_off_time": 2.194}, {"pitch": 60, "velocity": 83, "note_on_time": 2.401, "note_off_time": 2.52}, {"pitch": 60, "velocity": 78, "note_on_time": 2.696, "note_off_time": 3.036}, {"pitch": 67, "velocity": 69, "note_on_time": 2.981, "note_off_time": 3.365}, {"pitch": 62, "velocity": 69, "note_on_time": 3.282, "note_off_time": 3.475}, {"pitch": 62, "velocity": 77, "note_on_time": 3.657, "note_off_time": 4.019}, {"pitch": 62, "velocity": 67, "note_on_time": 4.96, "note_off_time": 5.326}, {"pitch": 60, "velocity": 69, "note_on_time": 6.257, "note_off_time": 6.615}, {"pitch": 64, "velocity": 64, "note_on_time": 6.568, "note_off_time": 7.001}, {"pitch": 64, "velocity": 62, "note_on_time": 7.13, "note_off_time": 7.444}, {"pitch": 60, "velocity": 77, "note_on_time": 7.445, "note_off_time": 7.757}, {"pitch": 67, "velocity": 73, "note_on_time": 7.718, "note_off_time": 8.052}, {"pitch": 60, "velocity": 76, "note_on_time": 8.026, "note_off_time": 8.366}, {"pitch": 67, "velocity": 70, "note_on_time": 8.331, "note_off_time": 8.694}, {"pitch": 60, "velocity": 82, "note_on_time": 8.666, "note_off_time": 8.994}, {"pitch": 64, "velocity": 72, "note_on_time": 8.964, "note_off_time": 9.28}, {"pitch": 67, "velocity": 77, "note_on_time": 9.267, "note_off_time": 9.634}, {"pitch": 64, "velocity": 76, "note_on_time": 9.567, "note_off_time": 9.969}, {"pitch": 64, "velocity": 73, "note_on_time": 10.245, "note_off_time": 10.35}, {"pitch": 64, "velocity": 75, "note_on_time": 10.539, "note_off_time": 10.633}, {"pitch": 64, "velocity": 79, "note_on_time": 10.829, "note_off_time": 10.995}]</notes><guidance name="Guidance Mode">None</guidance><error name="Error value">0.025864761904761772</error></trial><trial trial_no="2" timestamp="2022_12_01-10_47_03"><notes name="Played Notes">[{"pitch": 67, "velocity": 62, "note_on_time": 1.271, "note_off_time": 1.648}, {"pitch": 62, "velocity": 65, "note_on_time": 1.6, "note_off_time": 1.728}, {"pitch": 62, "velocity": 70, "note_on_time": 1.908, "note_off_time": 2.005}, {"pitch": 62, "velocity": 78, "note_on_time": 2.225, "note_off_time": 2.411}, {"pitch": 60, "velocity": 75, "note_on_time": 2.536, "note_off_time": 2.661}, {"pitch": 60, "velocity": 77, "note_on_time": 2.841, "note_off_time": 3.081}, {"pitch": 67, "velocity": 76, "note_on_time": 3.132, "note_off_time": 3.263}, {"pitch": 62, "velocity": 69, "note_on_time": 3.438, "note_off_time": 3.603}, {"pitch": 62, "velocity": 68, "note_on_time": 3.775, "note_off_time": 4.146}, {"pitch": 62, "velocity": 75, "note_on_time": 5.015, "note_off_time": 5.443}, {"pitch": 60, "velocity": 73, "note_on_time": 6.259, "note_off_time": 6.628}, {"pitch": 64, "velocity": 68, "note_on_time": 6.565, "note_off_time": 6.971}, {"pitch": 64, "velocity": 76, "note_on_time": 7.129, "note_off_time": 7.466}, {"pitch": 60, "velocity": 76, "note_on_time": 7.464, "note_off_time": 7.768}, {"pitch": 67, "velocity": 70, "note_on_time": 7.748, "note_off_time": 8.067}, {"pitch": 60, "velocity": 72, "note_on_time": 8.059, "note_off_time": 8.418}, {"pitch": 67, "velocity": 71, "note_on_time": 8.392, "note_off_time": 8.734}, {"pitch": 60, "velocity": 70, "note_on_time": 8.715, "note_off_time": 9.055}, {"pitch": 64, "velocity": 70, "note_on_time": 9.015, "note_off_time": 9.348}, {"pitch": 67, "velocity": 72, "note_on_time": 9.322, "note_off_time": 9.705}, {"pitch": 64, "velocity": 71, "note_on_time": 9.645, "note_off_time": 9.951}, {"pitch": 64, "velocity": 67, "note_on_time": 10.298, "note_off_time": 10.397}, {"pitch": 64, "velocity": 75, "note_on_time": 10.581, "note_off_time": 10.673}, {"pitch": 64, "velocity": 76, "note_on_time": 10.884, "note_off_time": 11.065}]</notes><guidance name="Guidance Mode">None</guidance><error name="Error value">0.018349714285714292</error></trial><trial trial_no="3" timestamp="2022_12_01-10_47_25"><notes name="Played Notes">[{"pitch": 67, "velocity": 59, "note_on_time": 1.237, "note_off_time": 1.592}, {"pitch": 62, "velocity": 61, "note_on_time": 1.555, "note_off_time": 1.685}, {"pitch": 62, "velocity": 63, "note_on_time": 1.869, "note_off_time": 1.963}, {"pitch": 62, "velocity": 64, "note_on_time": 2.177, "note_off_time": 2.454}, {"pitch": 60, "velocity": 70, "note_on_time": 2.463, "note_off_time": 2.618}, {"pitch": 60, "velocity": 75, "note_on_time": 2.786, "note_off_time": 3.143}, {"pitch": 67, "velocity": 68, "note_on_time": 3.093, "note_off_time": 3.487}, {"pitch": 62, "velocity": 58, "note_on_time": 3.426, "note_off_time": 3.587}, {"pitch": 62, "velocity": 66, "note_on_time": 3.799, "note_off_time": 4.047}, {"pitch": 62, "velocity": 68, "note_on_time": 5.02, "note_off_time": 5.411}, {"pitch": 60, "velocity": 61, "note_on_time": 6.247, "note_off_time": 6.594}, {"pitch": 64, "velocity": 70, "note_on_time": 6.529, "note_off_time": 6.961}, {"pitch": 64, "velocity": 61, "note_on_time": 7.138, "note_off_time": 7.43}, {"pitch": 60, "velocity": 64, "note_on_time": 7.446, "note_off_time": 7.755}, {"pitch": 67, "velocity": 64, "note_on_time": 7.734, "note_off_time": 8.042}, {"pitch": 60, "velocity": 65, "note_on_time": 8.056, "note_off_time": 8.394}, {"pitch": 67, "velocity": 59, "note_on_time": 8.359, "note_off_time": 8.686}, {"pitch": 60, "velocity": 68, "note_on_time": 8.682, "note_off_time": 9.039}, {"pitch": 64, "velocity": 60, "note_on_time": 9.005, "note_off_time": 9.32}, {"pitch": 67, "velocity": 65, "note_on_time": 9.307, "note_off_time": 9.681}, {"pitch": 64, "velocity": 64, "note_on_time": 9.616, "note_off_time": 10.021}, {"pitch": 64, "velocity": 59, "note_on_time": 10.26, "note_off_time": 10.355}, {"pitch": 64, "velocity": 68, "note_on_time": 10.561, "note_off_time": 10.665}, {"pitch": 64, "velocity": 70, "note_on_time": 10.868, "note_off_time": 11.027}]</notes><guidance name="Guidance Mode">None</guidance><error name="Error value">0.015260952380952344</error></trial><trial trial_no="4" timestamp="2022_12_01-10_47_56"><notes name="Played Notes">[{"pitch": 67, "velocity": 65, "note_on_time": 1.251, "note_off_time": 1.582}, {"pitch": 62, "velocity": 61, "note_on_time": 1.539, "note_off_time": 1.676}, {"pitch": 62, "velocity": 66, "note_on_time": 1.841, "note_off_time": 1.924}, {"pitch": 62, "velocity": 69, "note_on_time": 2.165, "note_off_time": 2.478}, {"pitch": 60, "velocity": 75, "note_on_time": 2.459, "note_off_time": 2.603}, {"pitch": 60, "velocity": 76, "note_on_time": 2.764, "note_off_time": 3.127}, {"pitch": 67, "velocity": 67, "note_on_time": 3.085, "note_off_time": 3.475}, {"pitch": 62, "velocity": 61, "note_on_time": 3.393, "note_off_time": 3.544}, {"pitch": 62, "velocity": 59, "note_on_time": 3.751, "note_off_time": 4.03}, {"pitch": 62, "velocity": 70, "note_on_time": 5.001, "note_off_time": 5.442}, {"pitch": 60, "velocity": 57, "note_on_time": 6.24, "note_off_time": 6.627}, {"pitch": 64, "velocity": 63, "note_on_time": 6.565, "note_off_time": 7.012}, {"pitch": 64, "velocity": 69, "note_on_time": 7.182, "note_off_time": 7.466}, {"pitch": 60, "velocity": 68, "note_on_time": 7.469, "note_off_time": 7.815}, {"pitch": 67, "velocity": 66, "note_on_time": 7.782, "note_off_time": 8.096}, {"pitch": 60, "velocity": 69, "note_on_time": 8.098, "note_off_time": 8.438}, {"pitch": 67, "velocity": 67, "note_on_time": 8.403, "note_off_time": 8.725}, {"pitch": 60, "velocity": 79, "note_on_time": 8.715, "note_off_time": 9.061}, {"pitch": 64, "velocity": 73, "note_on_time": 9.028, "note_off_time": 9.351}, {"pitch": 67, "velocity": 75, "note_on_time": 9.333, "note_off_time": 9.699}, {"pitch": 64, "velocity": 68, "note_on_time": 9.641, "note_off_time": 10.044}, {"pitch": 64, "velocity": 67, "note_on_time": 10.304, "note_off_time": 10.386}, {"pitch": 64, "velocity": 66, "note_on_time": 10.593, "note_off_time": 10.707}, {"pitch": 64, "velocity": 71, "note_on_time": 10.909, "note_off_time": 11.053}]</notes><guidance name="Guidance Mode">None</guidance><error name="Error value">0.016289142857142908</error></trial><trial trial_no="5" timestamp="2022_12_01-10_48_16"><notes name="Played Notes">[{"pitch": 67, "velocity": 56, "note_on_time": 1.254, "note_off_time": 1.634}, {"pitch": 62, "velocity": 57, "note_on_time": 1.572, "note_off_time": 1.728}, {"pitch": 62, "velocity": 51, "note_on_time": 1.882, "note_off_time": 1.983}, {"pitch": 62, "velocity": 57, "note_on_time": 2.165, "note_off_time": 2.361}, {"pitch": 60, "velocity": 55, "note_on_time": 2.486, "note_off_time": 2.609}, {"pitch": 60, "velocity": 71, "note_on_time": 2.782, "note_off_time": 3.151}, {"pitch": 67, "velocity": 63, "note_on_time": 3.101, "note_off_time": 3.457}, {"pitch": 62, "velocity": 53, "note_on_time": 3.401, "note_off_time": 3.547}, {"pitch": 62, "velocity": 52, "note_on_time": 3.741, "note_off_time": 4.052}, {"pitch": 62, "velocity": 57, "note_on_time": 5.016, "note_off_time": 5.451}, {"pitch": 60, "velocity": 54, "note_on_time": 6.262, "note_off_time": 6.64}, {"pitch": 64, "velocity": 55, "note_on_time": 6.577, "note_off_time": 7.004}, {"pitch": 64, "velocity": 61, "note_on_time": 7.191, "note_off_time": 7.467}, {"pitch": 60, "velocity": 56, "note_on_time": 7.487, "note_off_time": 7.793}, {"pitch": 67, "velocity": 64, "note_on_time": 7.767, "note_off_time": 8.083}, {"pitch": 60, "velocity": 68, "note_on_time": 8.076, "note_off_time": 8.421}, {"pitch": 67, "velocity": 68, "note_on_time": 8.386, "note_off_time": 8.696}, {"pitch": 60, "velocity": 64, "note_on_time": 8.708, "note_off_time": 9.058}, {"pitch": 64, "velocity": 58, "note_on_time": 9.029, "note_off_time": 9.34}, {"pitch": 67, "velocity": 61, "note_on_time": 9.335, "note_off_time": 9.729}, {"pitch": 64, "velocity": 58, "note_on_time": 9.673, "note_off_time": 10.061}, {"pitch": 64, "velocity": 58, "note_on_time": 10.292, "note_off_time": 10.399}, {"pitch": 64, "velocity": 59, "note_on_time": 10.575, "note_off_time": 10.701}, {"pitch": 64, "velocity": 65, "note_on_time": 10.873, "note_off_time": 11.028}]</notes><guidance name="Guidance Mode">None</guidance><error name="Error value">0.017587809523809467</error></trial></trials></MIDI>