<MIDI midiNo="2022_10_27-11_00_43"><target_notes><notes name="Note List">[{"pitch": 42, "velocity": 80, "note_on_time": 0.004, "note_off_time": 0.537}, {"pitch": 42, "velocity": 80, "note_on_time": 0.538, "note_off_time": 1.068}, {"pitch": 42, "velocity": 80, "note_on_time": 1.068, "note_off_time": 1.598}, {"pitch": 42, "velocity": 80, "note_on_time": 1.598, "note_off_time": 2.126}, {"pitch": 62, "velocity": 80, "note_on_time": 2.126, "note_off_time": 2.645}, {"pitch": 42, "velocity": 80, "note_on_time": 2.126, "note_off_time": 2.645}, {"pitch": 62, "velocity": 80, "note_on_time": 2.645, "note_off_time": 3.173}, {"pitch": 42, "velocity": 80, "note_on_time": 2.645, "note_off_time": 3.173}, {"pitch": 42, "velocity": 80, "note_on_time": 3.174, "note_off_time": 3.702}, {"pitch": 42, "velocity": 80, "note_on_time": 3.703, "note_off_time": 4.233}, {"pitch": 60, "velocity": 80, "note_on_time": 4.233, "note_off_time": 4.763}, {"pitch": 42, "velocity": 80, "note_on_time": 4.234, "note_off_time": 4.764}, {"pitch": 42, "velocity": 80, "note_on_time": 4.764, "note_off_time": 5.294}, {"pitch": 62, "velocity": 80, "note_on_time": 5.294, "note_off_time": 5.823}, {"pitch": 42, "velocity": 80, "note_on_time": 5.294, "note_off_time": 5.823}, {"pitch": 42, "velocity": 80, "note_on_time": 5.823, "note_off_time": 6.352}, {"pitch": 62, "velocity": 80, "note_on_time": 6.352, "note_off_time": 6.884}, {"pitch": 42, "velocity": 80, "note_on_time": 6.353, "note_off_time": 6.884}, {"pitch": 42, "velocity": 80, "note_on_time": 6.885, "note_off_time": 7.414}, {"pitch": 42, "velocity": 80, "note_on_time": 7.414, "note_off_time": 7.946}, {"pitch": 42, "velocity": 80, "note_on_time": 7.946, "note_off_time": 8.475}, {"pitch": 62, "velocity": 80, "note_on_time": 8.475, "note_off_time": 9.005}, {"pitch": 42, "velocity": 80, "note_on_time": 8.475, "note_off_time": 9.006}, {"pitch": 60, "velocity": 80, "note_on_time": 9.005, "note_off_time": 9.537}, {"pitch": 42, "velocity": 80, "note_on_time": 9.006, "note_off_time": 9.537}, {"pitch": 42, "velocity": 80, "note_on_time": 9.537, "note_off_time": 10.064}, {"pitch": 42, "velocity": 80, "note_on_time": 10.065, "note_off_time": 10.594}, {"pitch": 60, "velocity": 80, "note_on_time": 10.594, "note_off_time": 11.122}, {"pitch": 42, "velocity": 80, "note_on_time": 10.594, "note_off_time": 11.122}, {"pitch": 62, "velocity": 80, "note_on_time": 11.122, "note_off_time": 11.648}, {"pitch": 42, "velocity": 80, "note_on_time": 11.123, "note_off_time": 11.648}, {"pitch": 60, "velocity": 80, "note_on_time": 11.648, "note_off_time": 12.18}, {"pitch": 42, "velocity": 80, "note_on_time": 11.649, "note_off_time": 12.18}, {"pitch": 60, "velocity": 80, "note_on_time": 12.18, "note_off_time": 12.709}, {"pitch": 42, "velocity": 80, "note_on_time": 12.18, "note_off_time": 12.71}, {"pitch": 62, "velocity": 80, "note_on_time": 12.709, "note_off_time": 13.238}, {"pitch": 42, "velocity": 80, "note_on_time": 12.71, "note_off_time": 13.238}, {"pitch": 42, "velocity": 80, "note_on_time": 13.238, "note_off_time": 13.766}, {"pitch": 42, "velocity": 80, "note_on_time": 13.767, "note_off_time": 14.294}, {"pitch": 42, "velocity": 80, "note_on_time": 14.294, "note_off_time": 14.822}, {"pitch": 60, "velocity": 80, "note_on_time": 14.822, "note_off_time": 15.351}, {"pitch": 42, "velocity": 80, "note_on_time": 14.822, "note_off_time": 15.351}, {"pitch": 62, "velocity": 80, "note_on_time": 15.351, "note_off_time": 15.881}, {"pitch": 42, "velocity": 80, "note_on_time": 15.351, "note_off_time": 15.881}, {"pitch": 60, "velocity": 80, "note_on_time": 15.881, "note_off_time": 16.41}, {"pitch": 42, "velocity": 80, "note_on_time": 15.882, "note_off_time": 16.41}, {"pitch": 62, "velocity": 80, "note_on_time": 16.41, "note_off_time": 16.938}, {"pitch": 42, "velocity": 80, "note_on_time": 16.41, "note_off_time": 16.939}, {"pitch": 42, "velocity": 80, "note_on_time": 16.939, "note_off_time": 17.468}, {"pitch": 62, "velocity": 80, "note_on_time": 17.468, "note_off_time": 17.999}, {"pitch": 42, "velocity": 80, "note_on_time": 17.468, "note_off_time": 17.999}, {"pitch": 62, "velocity": 80, "note_on_time": 17.999, "note_off_time": 18.532}, {"pitch": 42, "velocity": 80, "note_on_time": 17.999, "note_off_time": 18.532}, {"pitch": 62, "velocity": 80, "note_on_time": 18.532, "note_off_time": 19.062}, {"pitch": 42, "velocity": 80, "note_on_time": 18.533, "note_off_time": 19.062}]</notes><options name="Option List">((4, 4), [0.25], 3, 8, &lt;NoteRangePerHand.TWO_NOTES: 3&gt;, &lt;NoteRangePerHand.ONE_NOTE: 2&gt;, False, True, False, 116)</options></target_notes><trials><trial trial_no="1" timestamp="2022_10_27-11_00_23"><notes name="Played Notes">[{"pitch": 62, "velocity": 57, "note_on_time": 2.156, "note_off_time": 2.343}, {"pitch": 62, "velocity": 66, "note_on_time": 2.696, "note_off_time": 2.874}, {"pitch": 60, "velocity": 59, "note_on_time": 5.313, "note_off_time": 5.479}, {"pitch": 62, "velocity": 72, "note_on_time": 6.428, "note_off_time": 6.595}, {"pitch": 62, "velocity": 61, "note_on_time": 7.625, "note_off_time": 7.787}, {"pitch": 62, "velocity": 57, "note_on_time": 9.909, "note_off_time": 10.066}, {"pitch": 60, "velocity": 58, "note_on_time": 10.415, "note_off_time": 10.575}, {"pitch": 60, "velocity": 53, "note_on_time": 12.645, "note_off_time": 12.803}, {"pitch": 62, "velocity": 47, "note_on_time": 13.116, "note_off_time": 13.314}, {"pitch": 60, "velocity": 50, "note_on_time": 13.634, "note_off_time": 13.789}, {"pitch": 60, "velocity": 44, "note_on_time": 14.092, "note_off_time": 14.289}, {"pitch": 62, "velocity": 52, "note_on_time": 14.59, "note_off_time": 14.817}, {"pitch": 60, "velocity": 56, "note_on_time": 16.81, "note_off_time": 16.976}, {"pitch": 62, "velocity": 50, "note_on_time": 17.287, "note_off_time": 17.487}, {"pitch": 60, "velocity": 52, "note_on_time": 17.8, "note_off_time": 17.964}, {"pitch": 64, "velocity": 37, "note_on_time": 18.338, "note_off_time": 18.42}, {"pitch": 62, "velocity": 33, "note_on_time": 18.32, "note_off_time": 18.466}]</notes><guidance name="Guidance Mode">None</guidance><error name="Error value">0.4453968124999998</error></trial></trials></MIDI>