<MIDI midiNo="2022_08_17-10_39_27"><target_notes><notes name="Note List">[{"pitch": 42, "velocity": 80, "note_on_time": 0.003, "note_off_time": 1.511}, {"pitch": 42, "velocity": 80, "note_on_time": 1.511, "note_off_time": 3.019}, {"pitch": 42, "velocity": 80, "note_on_time": 3.019, "note_off_time": 4.528}, {"pitch": 42, "velocity": 80, "note_on_time": 4.529, "note_off_time": 6.038}, {"pitch": 42, "velocity": 80, "note_on_time": 6.038, "note_off_time": 7.54}, {"pitch": 62, "velocity": 80, "note_on_time": 6.037, "note_off_time": 9.051}, {"pitch": 42, "velocity": 80, "note_on_time": 7.54, "note_off_time": 9.051}, {"pitch": 42, "velocity": 80, "note_on_time": 9.052, "note_off_time": 10.557}, {"pitch": 42, "velocity": 80, "note_on_time": 10.558, "note_off_time": 12.068}, {"pitch": 60, "velocity": 80, "note_on_time": 12.067, "note_off_time": 13.574}, {"pitch": 42, "velocity": 80, "note_on_time": 12.068, "note_off_time": 13.574}, {"pitch": 62, "velocity": 80, "note_on_time": 13.574, "note_off_time": 15.079}, {"pitch": 42, "velocity": 80, "note_on_time": 13.574, "note_off_time": 15.079}, {"pitch": 62, "velocity": 80, "note_on_time": 15.079, "note_off_time": 16.586}, {"pitch": 42, "velocity": 80, "note_on_time": 15.079, "note_off_time": 16.586}, {"pitch": 60, "velocity": 80, "note_on_time": 16.586, "note_off_time": 18.097}, {"pitch": 42, "velocity": 80, "note_on_time": 16.586, "note_off_time": 18.097}, {"pitch": 62, "velocity": 80, "note_on_time": 18.097, "note_off_time": 19.6}, {"pitch": 42, "velocity": 80, "note_on_time": 18.097, "note_off_time": 19.6}, {"pitch": 62, "velocity": 80, "note_on_time": 19.6, "note_off_time": 21.106}, {"pitch": 42, "velocity": 80, "note_on_time": 19.601, "note_off_time": 21.107}, {"pitch": 62, "velocity": 80, "note_on_time": 21.106, "note_off_time": 22.61}, {"pitch": 42, "velocity": 80, "note_on_time": 21.107, "note_off_time": 22.61}, {"pitch": 60, "velocity": 80, "note_on_time": 22.61, "note_off_time": 24.117}, {"pitch": 42, "velocity": 80, "note_on_time": 22.61, "note_off_time": 24.117}, {"pitch": 60, "velocity": 80, "note_on_time": 24.117, "note_off_time": 25.627}, {"pitch": 42, "velocity": 80, "note_on_time": 24.117, "note_off_time": 25.627}, {"pitch": 60, "velocity": 80, "note_on_time": 25.627, "note_off_time": 27.135}, {"pitch": 42, "velocity": 80, "note_on_time": 25.628, "note_off_time": 27.135}, {"pitch": 60, "velocity": 80, "note_on_time": 27.135, "note_off_time": 28.638}, {"pitch": 42, "velocity": 80, "note_on_time": 27.136, "note_off_time": 28.638}, {"pitch": 42, "velocity": 80, "note_on_time": 28.638, "note_off_time": 30.149}, {"pitch": 60, "velocity": 80, "note_on_time": 30.149, "note_off_time": 31.655}, {"pitch": 42, "velocity": 80, "note_on_time": 30.149, "note_off_time": 31.655}, {"pitch": 42, "velocity": 80, "note_on_time": 31.655, "note_off_time": 33.16}, {"pitch": 60, "velocity": 80, "note_on_time": 31.655, "note_off_time": 34.668}, {"pitch": 42, "velocity": 80, "note_on_time": 33.161, "note_off_time": 34.668}, {"pitch": 42, "velocity": 80, "note_on_time": 34.669, "note_off_time": 36.17}, {"pitch": 62, "velocity": 80, "note_on_time": 36.17, "note_off_time": 37.68}, {"pitch": 42, "velocity": 80, "note_on_time": 36.17, "note_off_time": 37.68}, {"pitch": 62, "velocity": 80, "note_on_time": 37.68, "note_off_time": 39.19}, {"pitch": 42, "velocity": 80, "note_on_time": 37.68, "note_off_time": 39.191}, {"pitch": 42, "velocity": 80, "note_on_time": 39.191, "note_off_time": 40.697}, {"pitch": 62, "velocity": 80, "note_on_time": 39.19, "note_off_time": 42.205}, {"pitch": 42, "velocity": 80, "note_on_time": 40.697, "note_off_time": 42.205}, {"pitch": 62, "velocity": 80, "note_on_time": 42.205, "note_off_time": 43.713}, {"pitch": 42, "velocity": 80, "note_on_time": 42.205, "note_off_time": 43.713}, {"pitch": 60, "velocity": 80, "note_on_time": 43.713, "note_off_time": 45.217}, {"pitch": 42, "velocity": 80, "note_on_time": 43.714, "note_off_time": 45.218}, {"pitch": 62, "velocity": 80, "note_on_time": 45.217, "note_off_time": 46.727}, {"pitch": 42, "velocity": 80, "note_on_time": 45.218, "note_off_time": 46.727}, {"pitch": 62, "velocity": 80, "note_on_time": 46.727, "note_off_time": 48.233}, {"pitch": 42, "velocity": 80, "note_on_time": 46.727, "note_off_time": 48.234}, {"pitch": 42, "velocity": 80, "note_on_time": 48.234, "note_off_time": 49.744}, {"pitch": 62, "velocity": 80, "note_on_time": 49.744, "note_off_time": 51.251}, {"pitch": 42, "velocity": 80, "note_on_time": 49.744, "note_off_time": 51.251}, {"pitch": 62, "velocity": 80, "note_on_time": 51.251, "note_off_time": 52.755}, {"pitch": 42, "velocity": 80, "note_on_time": 51.251, "note_off_time": 52.755}, {"pitch": 62, "velocity": 80, "note_on_time": 52.755, "note_off_time": 54.258}, {"pitch": 42, "velocity": 80, "note_on_time": 52.755, "note_off_time": 54.258}]</notes><options name="Option List">((4, 4), [0.5, 0.25], 3, 8, &lt;NoteRangePerHand.TWO_NOTES: 3&gt;, &lt;NoteRangePerHand.ONE_NOTE: 2&gt;, False, True, True, 40)</options></target_notes><trials><trial trial_no="1" timestamp="2022_08_17-10_48_58"><notes name="Played Notes">[{"pitch": 48, "velocity": 51, "note_on_time": 5.414, "note_off_time": 5.53}, {"pitch": 60, "velocity": 29, "note_on_time": 8.667, "note_off_time": 8.839}, {"pitch": 60, "velocity": 33, "note_on_time": 39.369, "note_off_time": 39.553}, {"pitch": 62, "velocity": 33, "note_on_time": 45.773, "note_off_time": 46.405}, {"pitch": 60, "velocity": 40, "note_on_time": 46.529, "note_off_time": 47.885}, {"pitch": 62, "velocity": 23, "note_on_time": 47.925, "note_off_time": 49.051}, {"pitch": 62, "velocity": 33, "note_on_time": 49.859, "note_off_time": 51.467}, {"pitch": 60, "velocity": 40, "note_on_time": 51.391, "note_off_time": 52.792}, {"pitch": 62, "velocity": 41, "note_on_time": 52.844, "note_off_time": 53.819}]</notes><guidance name="Guidance Mode">None</guidance><error name="Error value">2.2133809523809527</error></trial></trials></MIDI>