<MIDI midiNo="2022_11_10-11_18_25"><target_notes><notes name="Note List">[{"pitch": 42, "velocity": 80, "note_on_time": 0.004, "note_off_time": 0.735}, {"pitch": 42, "velocity": 80, "note_on_time": 0.735, "note_off_time": 1.468}, {"pitch": 42, "velocity": 80, "note_on_time": 1.469, "note_off_time": 2.196}, {"pitch": 42, "velocity": 80, "note_on_time": 2.196, "note_off_time": 2.922}, {"pitch": 64, "velocity": 80, "note_on_time": 2.922, "note_off_time": 3.652}, {"pitch": 42, "velocity": 80, "note_on_time": 2.922, "note_off_time": 3.652}, {"pitch": 62, "velocity": 80, "note_on_time": 3.652, "note_off_time": 4.38}, {"pitch": 42, "velocity": 80, "note_on_time": 3.653, "note_off_time": 4.38}, {"pitch": 64, "velocity": 80, "note_on_time": 4.38, "note_off_time": 5.113}, {"pitch": 42, "velocity": 80, "note_on_time": 4.381, "note_off_time": 5.114}, {"pitch": 64, "velocity": 80, "note_on_time": 5.113, "note_off_time": 5.843}, {"pitch": 42, "velocity": 80, "note_on_time": 5.114, "note_off_time": 5.843}, {"pitch": 64, "velocity": 80, "note_on_time": 5.843, "note_off_time": 6.572}, {"pitch": 42, "velocity": 80, "note_on_time": 5.843, "note_off_time": 6.572}, {"pitch": 62, "velocity": 80, "note_on_time": 6.572, "note_off_time": 7.302}, {"pitch": 42, "velocity": 80, "note_on_time": 6.572, "note_off_time": 7.302}, {"pitch": 60, "velocity": 80, "note_on_time": 7.302, "note_off_time": 8.035}, {"pitch": 42, "velocity": 80, "note_on_time": 7.302, "note_off_time": 8.035}, {"pitch": 62, "velocity": 80, "note_on_time": 8.035, "note_off_time": 8.766}, {"pitch": 42, "velocity": 80, "note_on_time": 8.035, "note_off_time": 8.767}, {"pitch": 60, "velocity": 80, "note_on_time": 8.766, "note_off_time": 9.501}, {"pitch": 42, "velocity": 80, "note_on_time": 8.767, "note_off_time": 9.502}, {"pitch": 60, "velocity": 80, "note_on_time": 9.501, "note_off_time": 10.233}, {"pitch": 42, "velocity": 80, "note_on_time": 9.502, "note_off_time": 10.233}, {"pitch": 64, "velocity": 80, "note_on_time": 10.233, "note_off_time": 10.965}, {"pitch": 42, "velocity": 80, "note_on_time": 10.234, "note_off_time": 10.965}, {"pitch": 60, "velocity": 80, "note_on_time": 10.965, "note_off_time": 11.694}, {"pitch": 42, "velocity": 80, "note_on_time": 10.966, "note_off_time": 11.695}, {"pitch": 64, "velocity": 80, "note_on_time": 11.694, "note_off_time": 12.424}, {"pitch": 42, "velocity": 80, "note_on_time": 11.695, "note_off_time": 12.425}, {"pitch": 64, "velocity": 80, "note_on_time": 12.424, "note_off_time": 13.156}, {"pitch": 42, "velocity": 80, "note_on_time": 12.425, "note_off_time": 13.156}, {"pitch": 62, "velocity": 80, "note_on_time": 13.156, "note_off_time": 13.886}, {"pitch": 42, "velocity": 80, "note_on_time": 13.156, "note_off_time": 13.886}, {"pitch": 64, "velocity": 80, "note_on_time": 13.886, "note_off_time": 14.616}, {"pitch": 42, "velocity": 80, "note_on_time": 13.886, "note_off_time": 14.616}, {"pitch": 42, "velocity": 80, "note_on_time": 14.617, "note_off_time": 15.35}, {"pitch": 64, "velocity": 80, "note_on_time": 14.616, "note_off_time": 16.081}, {"pitch": 42, "velocity": 80, "note_on_time": 15.35, "note_off_time": 16.081}, {"pitch": 42, "velocity": 80, "note_on_time": 16.082, "note_off_time": 16.813}, {"pitch": 42, "velocity": 80, "note_on_time": 16.814, "note_off_time": 17.544}, {"pitch": 64, "velocity": 80, "note_on_time": 17.544, "note_off_time": 18.274}, {"pitch": 42, "velocity": 80, "note_on_time": 17.544, "note_off_time": 18.275}, {"pitch": 42, "velocity": 80, "note_on_time": 18.275, "note_off_time": 19.006}, {"pitch": 60, "velocity": 80, "note_on_time": 18.274, "note_off_time": 19.739}, {"pitch": 42, "velocity": 80, "note_on_time": 19.006, "note_off_time": 19.739}, {"pitch": 64, "velocity": 80, "note_on_time": 19.739, "note_off_time": 20.472}, {"pitch": 42, "velocity": 80, "note_on_time": 19.739, "note_off_time": 20.472}, {"pitch": 62, "velocity": 80, "note_on_time": 20.472, "note_off_time": 21.205}, {"pitch": 42, "velocity": 80, "note_on_time": 20.472, "note_off_time": 21.206}, {"pitch": 64, "velocity": 80, "note_on_time": 21.205, "note_off_time": 21.937}, {"pitch": 42, "velocity": 80, "note_on_time": 21.206, "note_off_time": 21.938}, {"pitch": 62, "velocity": 80, "note_on_time": 21.937, "note_off_time": 22.666}, {"pitch": 42, "velocity": 80, "note_on_time": 21.938, "note_off_time": 22.667}, {"pitch": 60, "velocity": 80, "note_on_time": 22.666, "note_off_time": 23.394}, {"pitch": 42, "velocity": 80, "note_on_time": 22.667, "note_off_time": 23.394}, {"pitch": 42, "velocity": 80, "note_on_time": 23.394, "note_off_time": 24.128}, {"pitch": 60, "velocity": 80, "note_on_time": 24.127, "note_off_time": 24.86}, {"pitch": 42, "velocity": 80, "note_on_time": 24.128, "note_off_time": 24.86}, {"pitch": 60, "velocity": 80, "note_on_time": 24.86, "note_off_time": 25.589}, {"pitch": 42, "velocity": 80, "note_on_time": 24.861, "note_off_time": 25.59}, {"pitch": 60, "velocity": 80, "note_on_time": 25.589, "note_off_time": 26.319}, {"pitch": 42, "velocity": 80, "note_on_time": 25.59, "note_off_time": 26.32}]</notes><options name="Option List">((4, 4), [0.5, 0.25], 3, 8, &lt;NoteRangePerHand.THREE_NOTES: 4&gt;, &lt;NoteRangePerHand.ONE_NOTE: 2&gt;, False, True, False, 83)</options></target_notes><trials><trial trial_no="1" timestamp="2022_11_10-11_17_57"><notes name="Played Notes">[{"pitch": 64, "velocity": 74, "note_on_time": 2.929, "note_off_time": 3.341}, {"pitch": 62, "velocity": 86, "note_on_time": 3.717, "note_off_time": 4.044}, {"pitch": 64, "velocity": 70, "note_on_time": 4.433, "note_off_time": 4.855}, {"pitch": 64, "velocity": 79, "note_on_time": 5.189, "note_off_time": 5.54}, {"pitch": 64, "velocity": 76, "note_on_time": 5.944, "note_off_time": 6.312}, {"pitch": 62, "velocity": 75, "note_on_time": 6.676, "note_off_time": 7.052}, {"pitch": 60, "velocity": 78, "note_on_time": 7.431, "note_off_time": 7.864}, {"pitch": 62, "velocity": 69, "note_on_time": 8.293, "note_off_time": 8.726}, {"pitch": 60, "velocity": 41, "note_on_time": 9.071, "note_off_time": 9.148}, {"pitch": 60, "velocity": 76, "note_on_time": 9.908, "note_off_time": 10.354}, {"pitch": 64, "velocity": 67, "note_on_time": 11.114, "note_off_time": 11.539}, {"pitch": 60, "velocity": 82, "note_on_time": 12.026, "note_off_time": 12.461}, {"pitch": 62, "velocity": 83, "note_on_time": 12.996, "note_off_time": 13.434}, {"pitch": 62, "velocity": 86, "note_on_time": 13.806, "note_off_time": 14.203}, {"pitch": 62, "velocity": 69, "note_on_time": 14.929, "note_off_time": 15.362}, {"pitch": 64, "velocity": 78, "note_on_time": 15.875, "note_off_time": 16.323}, {"pitch": 64, "velocity": 71, "note_on_time": 16.783, "note_off_time": 17.531}, {"pitch": 64, "velocity": 70, "note_on_time": 18.349, "note_off_time": 18.703}, {"pitch": 60, "velocity": 79, "note_on_time": 19.109, "note_off_time": 19.439}, {"pitch": 64, "velocity": 72, "note_on_time": 19.864, "note_off_time": 20.197}, {"pitch": 62, "velocity": 82, "note_on_time": 21.185, "note_off_time": 21.546}, {"pitch": 64, "velocity": 78, "note_on_time": 21.93, "note_off_time": 22.213}, {"pitch": 62, "velocity": 79, "note_on_time": 22.663, "note_off_time": 22.955}, {"pitch": 60, "velocity": 82, "note_on_time": 23.348, "note_off_time": 23.69}, {"pitch": 60, "velocity": 79, "note_on_time": 24.874, "note_off_time": 25.179}, {"pitch": 60, "velocity": 79, "note_on_time": 25.619, "note_off_time": 25.951}]</notes><guidance name="Guidance Mode">None</guidance><error name="Error value">0.36868404166666674</error></trial></trials></MIDI>