<MIDI midiNo="2022_08_17-16_39_01"><target_notes><notes name="Note List">[{"pitch": 42, "velocity": 80, "note_on_time": 0.004, "note_off_time": 1.21}, {"pitch": 42, "velocity": 80, "note_on_time": 1.211, "note_off_time": 2.422}, {"pitch": 42, "velocity": 80, "note_on_time": 2.423, "note_off_time": 3.626}, {"pitch": 42, "velocity": 80, "note_on_time": 3.626, "note_off_time": 4.828}, {"pitch": 42, "velocity": 80, "note_on_time": 4.828, "note_off_time": 6.032}, {"pitch": 60, "velocity": 80, "note_on_time": 4.828, "note_off_time": 7.237}, {"pitch": 42, "velocity": 80, "note_on_time": 6.032, "note_off_time": 7.237}, {"pitch": 42, "velocity": 80, "note_on_time": 7.237, "note_off_time": 8.452}, {"pitch": 42, "velocity": 80, "note_on_time": 8.452, "note_off_time": 9.656}, {"pitch": 62, "velocity": 80, "note_on_time": 9.656, "note_off_time": 10.857}, {"pitch": 42, "velocity": 80, "note_on_time": 9.656, "note_off_time": 10.857}, {"pitch": 60, "velocity": 80, "note_on_time": 10.857, "note_off_time": 12.072}, {"pitch": 42, "velocity": 80, "note_on_time": 10.858, "note_off_time": 12.072}, {"pitch": 64, "velocity": 80, "note_on_time": 12.072, "note_off_time": 13.288}, {"pitch": 42, "velocity": 80, "note_on_time": 12.072, "note_off_time": 13.288}, {"pitch": 60, "velocity": 80, "note_on_time": 13.288, "note_off_time": 14.492}, {"pitch": 42, "velocity": 80, "note_on_time": 13.288, "note_off_time": 14.492}, {"pitch": 42, "velocity": 80, "note_on_time": 14.493, "note_off_time": 15.696}, {"pitch": 67, "velocity": 80, "note_on_time": 14.492, "note_off_time": 16.899}, {"pitch": 42, "velocity": 80, "note_on_time": 15.697, "note_off_time": 16.9}, {"pitch": 42, "velocity": 80, "note_on_time": 16.9, "note_off_time": 18.115}, {"pitch": 42, "velocity": 80, "note_on_time": 18.116, "note_off_time": 19.331}, {"pitch": 60, "velocity": 80, "note_on_time": 19.331, "note_off_time": 20.535}, {"pitch": 42, "velocity": 80, "note_on_time": 19.332, "note_off_time": 20.535}, {"pitch": 42, "velocity": 80, "note_on_time": 20.536, "note_off_time": 21.742}, {"pitch": 64, "velocity": 80, "note_on_time": 21.742, "note_off_time": 22.943}, {"pitch": 42, "velocity": 80, "note_on_time": 21.743, "note_off_time": 22.943}, {"pitch": 62, "velocity": 80, "note_on_time": 22.943, "note_off_time": 24.144}, {"pitch": 42, "velocity": 80, "note_on_time": 22.944, "note_off_time": 24.144}, {"pitch": 64, "velocity": 80, "note_on_time": 24.144, "note_off_time": 25.347}, {"pitch": 42, "velocity": 80, "note_on_time": 24.144, "note_off_time": 25.347}, {"pitch": 42, "velocity": 80, "note_on_time": 25.347, "note_off_time": 26.548}, {"pitch": 42, "velocity": 80, "note_on_time": 26.549, "note_off_time": 27.755}, {"pitch": 42, "velocity": 80, "note_on_time": 27.755, "note_off_time": 28.961}, {"pitch": 60, "velocity": 80, "note_on_time": 28.961, "note_off_time": 30.166}, {"pitch": 42, "velocity": 80, "note_on_time": 28.961, "note_off_time": 30.166}, {"pitch": 60, "velocity": 80, "note_on_time": 30.166, "note_off_time": 31.373}, {"pitch": 42, "velocity": 80, "note_on_time": 30.166, "note_off_time": 31.373}, {"pitch": 62, "velocity": 80, "note_on_time": 31.373, "note_off_time": 32.575}, {"pitch": 42, "velocity": 80, "note_on_time": 31.374, "note_off_time": 32.575}, {"pitch": 60, "velocity": 80, "note_on_time": 32.575, "note_off_time": 33.781}, {"pitch": 42, "velocity": 80, "note_on_time": 32.576, "note_off_time": 33.781}, {"pitch": 42, "velocity": 80, "note_on_time": 33.781, "note_off_time": 34.986}, {"pitch": 65, "velocity": 80, "note_on_time": 33.781, "note_off_time": 36.189}, {"pitch": 42, "velocity": 80, "note_on_time": 34.986, "note_off_time": 36.189}, {"pitch": 67, "velocity": 80, "note_on_time": 36.189, "note_off_time": 37.392}, {"pitch": 42, "velocity": 80, "note_on_time": 36.19, "note_off_time": 37.392}, {"pitch": 60, "velocity": 80, "note_on_time": 37.392, "note_off_time": 38.599}, {"pitch": 42, "velocity": 80, "note_on_time": 37.393, "note_off_time": 38.599}, {"pitch": 42, "velocity": 80, "note_on_time": 38.599, "note_off_time": 39.801}, {"pitch": 60, "velocity": 80, "note_on_time": 39.801, "note_off_time": 41.009}, {"pitch": 42, "velocity": 80, "note_on_time": 39.802, "note_off_time": 41.009}, {"pitch": 60, "velocity": 80, "note_on_time": 41.009, "note_off_time": 42.211}, {"pitch": 42, "velocity": 80, "note_on_time": 41.009, "note_off_time": 42.211}, {"pitch": 60, "velocity": 80, "note_on_time": 42.211, "note_off_time": 43.423}, {"pitch": 42, "velocity": 80, "note_on_time": 42.212, "note_off_time": 43.423}]</notes><options name="Option List">((4, 4), [0.5, 0.25], 3, 8, &lt;NoteRangePerHand.C_TO_G: 6&gt;, &lt;NoteRangePerHand.ONE_NOTE: 2&gt;, False, True, True, 50)</options></target_notes><trials><trial trial_no="1" timestamp="2022_08_17-16_38_17"><notes name="Played Notes">[{"pitch": 60, "velocity": 71, "note_on_time": 4.896, "note_off_time": 7.228}, {"pitch": 62, "velocity": 69, "note_on_time": 9.674, "note_off_time": 10.799}, {"pitch": 60, "velocity": 74, "note_on_time": 10.802, "note_off_time": 11.984}, {"pitch": 64, "velocity": 64, "note_on_time": 11.985, "note_off_time": 13.185}, {"pitch": 60, "velocity": 64, "note_on_time": 13.198, "note_off_time": 14.431}, {"pitch": 67, "velocity": 71, "note_on_time": 14.416, "note_off_time": 16.954}, {"pitch": 60, "velocity": 68, "note_on_time": 19.279, "note_off_time": 20.314}, {"pitch": 64, "velocity": 61, "note_on_time": 21.644, "note_off_time": 22.818}, {"pitch": 62, "velocity": 58, "note_on_time": 22.843, "note_off_time": 24.044}, {"pitch": 64, "velocity": 66, "note_on_time": 24.025, "note_off_time": 24.953}, {"pitch": 60, "velocity": 66, "note_on_time": 28.888, "note_off_time": 29.676}, {"pitch": 60, "velocity": 68, "note_on_time": 30.117, "note_off_time": 30.802}, {"pitch": 62, "velocity": 57, "note_on_time": 31.359, "note_off_time": 32.568}, {"pitch": 60, "velocity": 70, "note_on_time": 32.57, "note_off_time": 33.713}, {"pitch": 65, "velocity": 69, "note_on_time": 33.745, "note_off_time": 35.444}, {"pitch": 67, "velocity": 70, "note_on_time": 36.165, "note_off_time": 37.313}, {"pitch": 60, "velocity": 74, "note_on_time": 37.331, "note_off_time": 38.166}, {"pitch": 60, "velocity": 71, "note_on_time": 39.737, "note_off_time": 40.462}, {"pitch": 60, "velocity": 68, "note_on_time": 40.954, "note_off_time": 41.604}, {"pitch": 60, "velocity": 67, "note_on_time": 42.188, "note_off_time": 42.845}]</notes><guidance name="Guidance Mode">None</guidance><error name="Error value">0.03176470588235289</error></trial></trials></MIDI>