<MIDI midiNo="2022_12_08-11_33_28"><target_notes><notes name="Note List">[{"pitch": 42, "velocity": 80, "note_on_time": 0.004, "note_off_time": 0.275}, {"pitch": 42, "velocity": 80, "note_on_time": 0.275, "note_off_time": 0.539}, {"pitch": 42, "velocity": 80, "note_on_time": 0.54, "note_off_time": 0.804}, {"pitch": 42, "velocity": 80, "note_on_time": 0.805, "note_off_time": 1.071}, {"pitch": 62, "velocity": 80, "note_on_time": 1.07, "note_off_time": 1.335}, {"pitch": 42, "velocity": 80, "note_on_time": 1.071, "note_off_time": 1.335}, {"pitch": 67, "velocity": 80, "note_on_time": 1.335, "note_off_time": 1.601}, {"pitch": 42, "velocity": 80, "note_on_time": 1.335, "note_off_time": 1.601}, {"pitch": 60, "velocity": 80, "note_on_time": 1.601, "note_off_time": 1.868}, {"pitch": 42, "velocity": 80, "note_on_time": 1.601, "note_off_time": 1.868}, {"pitch": 67, "velocity": 80, "note_on_time": 1.868, "note_off_time": 2.133}, {"pitch": 42, "velocity": 80, "note_on_time": 1.868, "note_off_time": 2.133}, {"pitch": 42, "velocity": 80, "note_on_time": 2.133, "note_off_time": 2.398}, {"pitch": 67, "velocity": 80, "note_on_time": 2.133, "note_off_time": 2.662}, {"pitch": 42, "velocity": 80, "note_on_time": 2.398, "note_off_time": 2.662}, {"pitch": 42, "velocity": 80, "note_on_time": 2.662, "note_off_time": 2.927}, {"pitch": 42, "velocity": 80, "note_on_time": 2.927, "note_off_time": 3.192}, {"pitch": 42, "velocity": 80, "note_on_time": 3.193, "note_off_time": 3.456}, {"pitch": 60, "velocity": 80, "note_on_time": 3.192, "note_off_time": 3.722}, {"pitch": 42, "velocity": 80, "note_on_time": 3.456, "note_off_time": 3.722}, {"pitch": 64, "velocity": 80, "note_on_time": 3.722, "note_off_time": 3.987}, {"pitch": 42, "velocity": 80, "note_on_time": 3.722, "note_off_time": 3.987}, {"pitch": 65, "velocity": 80, "note_on_time": 3.987, "note_off_time": 4.252}, {"pitch": 42, "velocity": 80, "note_on_time": 3.987, "note_off_time": 4.253}, {"pitch": 60, "velocity": 80, "note_on_time": 4.252, "note_off_time": 4.516}, {"pitch": 42, "velocity": 80, "note_on_time": 4.253, "note_off_time": 4.516}, {"pitch": 60, "velocity": 80, "note_on_time": 4.516, "note_off_time": 4.783}, {"pitch": 42, "velocity": 80, "note_on_time": 4.516, "note_off_time": 4.783}, {"pitch": 64, "velocity": 80, "note_on_time": 4.783, "note_off_time": 5.048}, {"pitch": 42, "velocity": 80, "note_on_time": 4.784, "note_off_time": 5.048}, {"pitch": 64, "velocity": 80, "note_on_time": 5.048, "note_off_time": 5.314}, {"pitch": 42, "velocity": 80, "note_on_time": 5.048, "note_off_time": 5.314}, {"pitch": 60, "velocity": 80, "note_on_time": 5.314, "note_off_time": 5.578}, {"pitch": 42, "velocity": 80, "note_on_time": 5.314, "note_off_time": 5.578}, {"pitch": 42, "velocity": 80, "note_on_time": 5.578, "note_off_time": 5.842}, {"pitch": 65, "velocity": 80, "note_on_time": 5.842, "note_off_time": 6.109}, {"pitch": 42, "velocity": 80, "note_on_time": 5.842, "note_off_time": 6.109}, {"pitch": 65, "velocity": 80, "note_on_time": 6.109, "note_off_time": 6.374}, {"pitch": 42, "velocity": 80, "note_on_time": 6.109, "note_off_time": 6.374}, {"pitch": 64, "velocity": 80, "note_on_time": 6.374, "note_off_time": 6.64}, {"pitch": 42, "velocity": 80, "note_on_time": 6.374, "note_off_time": 6.64}, {"pitch": 60, "velocity": 80, "note_on_time": 6.64, "note_off_time": 6.907}, {"pitch": 42, "velocity": 80, "note_on_time": 6.64, "note_off_time": 6.907}, {"pitch": 42, "velocity": 80, "note_on_time": 6.907, "note_off_time": 7.173}, {"pitch": 67, "velocity": 80, "note_on_time": 6.907, "note_off_time": 7.439}, {"pitch": 42, "velocity": 80, "note_on_time": 7.173, "note_off_time": 7.439}, {"pitch": 62, "velocity": 80, "note_on_time": 7.439, "note_off_time": 7.705}, {"pitch": 42, "velocity": 80, "note_on_time": 7.439, "note_off_time": 7.705}, {"pitch": 62, "velocity": 80, "note_on_time": 7.705, "note_off_time": 7.971}, {"pitch": 42, "velocity": 80, "note_on_time": 7.706, "note_off_time": 7.971}, {"pitch": 65, "velocity": 80, "note_on_time": 7.971, "note_off_time": 8.235}, {"pitch": 42, "velocity": 80, "note_on_time": 7.972, "note_off_time": 8.235}, {"pitch": 62, "velocity": 80, "note_on_time": 8.235, "note_off_time": 8.499}, {"pitch": 42, "velocity": 80, "note_on_time": 8.236, "note_off_time": 8.5}, {"pitch": 42, "velocity": 80, "note_on_time": 8.5, "note_off_time": 8.765}, {"pitch": 62, "velocity": 80, "note_on_time": 8.765, "note_off_time": 9.032}, {"pitch": 42, "velocity": 80, "note_on_time": 8.765, "note_off_time": 9.032}, {"pitch": 62, "velocity": 80, "note_on_time": 9.032, "note_off_time": 9.298}, {"pitch": 42, "velocity": 80, "note_on_time": 9.032, "note_off_time": 9.299}, {"pitch": 62, "velocity": 80, "note_on_time": 9.298, "note_off_time": 9.561}, {"pitch": 42, "velocity": 80, "note_on_time": 9.299, "note_off_time": 9.562}]</notes><options name="Option List">((4, 4), [0.5, 0.25], 3, 8, &lt;NoteRangePerHand.C_TO_G: 6&gt;, &lt;NoteRangePerHand.ONE_NOTE: 2&gt;, False, True, False, '232')</options></target_notes><trials><trial trial_no="1" timestamp="2022_12_08-11_33_17"><notes name="Played Notes">[{"pitch": 62, "velocity": 94, "note_on_time": 1.124, "note_off_time": 1.291}, {"pitch": 67, "velocity": 90, "note_on_time": 1.664, "note_off_time": 1.817}, {"pitch": 60, "velocity": 88, "note_on_time": 1.948, "note_off_time": 2.074}, {"pitch": 67, "velocity": 80, "note_on_time": 2.244, "note_off_time": 2.421}, {"pitch": 67, "velocity": 86, "note_on_time": 2.543, "note_off_time": 2.8}, {"pitch": 60, "velocity": 88, "note_on_time": 3.426, "note_off_time": 3.571}, {"pitch": 64, "velocity": 84, "note_on_time": 3.715, "note_off_time": 3.87}, {"pitch": 65, "velocity": 89, "note_on_time": 4.022, "note_off_time": 4.174}, {"pitch": 60, "velocity": 94, "note_on_time": 4.295, "note_off_time": 4.421}, {"pitch": 60, "velocity": 96, "note_on_time": 4.612, "note_off_time": 4.734}, {"pitch": 64, "velocity": 92, "note_on_time": 4.889, "note_off_time": 5.027}, {"pitch": 64, "velocity": 87, "note_on_time": 5.185, "note_off_time": 5.346}, {"pitch": 60, "velocity": 94, "note_on_time": 5.453, "note_off_time": 5.574}, {"pitch": 65, "velocity": 95, "note_on_time": 6.113, "note_off_time": 6.256}, {"pitch": 65, "velocity": 84, "note_on_time": 6.45, "note_off_time": 6.622}, {"pitch": 64, "velocity": 94, "note_on_time": 6.753, "note_off_time": 6.891}, {"pitch": 60, "velocity": 98, "note_on_time": 7.09, "note_off_time": 7.269}, {"pitch": 67, "velocity": 86, "note_on_time": 7.422, "note_off_time": 7.855}, {"pitch": 62, "velocity": 80, "note_on_time": 8.1, "note_off_time": 8.259}, {"pitch": 62, "velocity": 81, "note_on_time": 8.405, "note_off_time": 8.55}, {"pitch": 65, "velocity": 92, "note_on_time": 8.704, "note_off_time": 8.86}, {"pitch": 62, "velocity": 88, "note_on_time": 9.03, "note_off_time": 9.166}]</notes><guidance name="Guidance Mode">None</guidance><error name="Error value">0.2891772727272729</error></trial><trial trial_no="2" timestamp="2022_12_08-11_33_39"><notes name="Played Notes">[{"pitch": 62, "velocity": 98, "note_on_time": 1.015, "note_off_time": 1.171}, {"pitch": 67, "velocity": 87, "note_on_time": 1.319, "note_off_time": 1.435}, {"pitch": 60, "velocity": 90, "note_on_time": 1.625, "note_off_time": 1.745}, {"pitch": 67, "velocity": 91, "note_on_time": 1.905, "note_off_time": 2.021}, {"pitch": 67, "velocity": 91, "note_on_time": 2.204, "note_off_time": 2.37}, {"pitch": 60, "velocity": 90, "note_on_time": 2.795, "note_off_time": 2.925}, {"pitch": 64, "velocity": 86, "note_on_time": 3.07, "note_off_time": 3.182}, {"pitch": 65, "velocity": 95, "note_on_time": 3.347, "note_off_time": 3.485}, {"pitch": 60, "velocity": 94, "note_on_time": 3.652, "note_off_time": 3.782}, {"pitch": 60, "velocity": 92, "note_on_time": 3.969, "note_off_time": 4.078}, {"pitch": 64, "velocity": 100, "note_on_time": 4.245, "note_off_time": 4.373}, {"pitch": 64, "velocity": 97, "note_on_time": 4.56, "note_off_time": 4.69}, {"pitch": 60, "velocity": 89, "note_on_time": 4.886, "note_off_time": 5.032}, {"pitch": 67, "velocity": 92, "note_on_time": 5.368, "note_off_time": 5.482}, {"pitch": 65, "velocity": 106, "note_on_time": 5.642, "note_off_time": 5.771}, {"pitch": 65, "velocity": 87, "note_on_time": 5.929, "note_off_time": 6.04}, {"pitch": 64, "velocity": 86, "note_on_time": 6.186, "note_off_time": 6.29}, {"pitch": 60, "velocity": 68, "note_on_time": 6.575, "note_off_time": 6.72}, {"pitch": 67, "velocity": 83, "note_on_time": 6.867, "note_off_time": 7.242}, {"pitch": 62, "velocity": 91, "note_on_time": 7.506, "note_off_time": 7.618}, {"pitch": 62, "velocity": 77, "note_on_time": 7.767, "note_off_time": 7.904}, {"pitch": 65, "velocity": 87, "note_on_time": 8.065, "note_off_time": 8.218}, {"pitch": 62, "velocity": 88, "note_on_time": 8.35, "note_off_time": 8.445}, {"pitch": 62, "velocity": 99, "note_on_time": 8.858, "note_off_time": 8.941}, {"pitch": 62, "velocity": 99, "note_on_time": 9.128, "note_off_time": 9.203}]</notes><guidance name="Guidance Mode">None</guidance><error name="Error value">0.42981363636363645</error></trial><trial trial_no="3" timestamp="2022_12_08-11_34_01"><notes name="Played Notes">[{"pitch": 60, "velocity": 79, "note_on_time": 1.166, "note_off_time": 1.323}, {"pitch": 62, "velocity": 36, "note_on_time": 1.395, "note_off_time": 1.45}, {"pitch": 67, "velocity": 67, "note_on_time": 1.576, "note_off_time": 1.701}, {"pitch": 60, "velocity": 83, "note_on_time": 1.825, "note_off_time": 1.925}, {"pitch": 67, "velocity": 89, "note_on_time": 2.08, "note_off_time": 2.203}, {"pitch": 67, "velocity": 89, "note_on_time": 2.377, "note_off_time": 2.602}, {"pitch": 60, "velocity": 97, "note_on_time": 3.001, "note_off_time": 3.133}, {"pitch": 64, "velocity": 67, "note_on_time": 3.261, "note_off_time": 3.391}, {"pitch": 65, "velocity": 90, "note_on_time": 3.543, "note_off_time": 3.677}, {"pitch": 60, "velocity": 98, "note_on_time": 3.82, "note_off_time": 3.922}, {"pitch": 60, "velocity": 89, "note_on_time": 4.122, "note_off_time": 4.241}, {"pitch": 64, "velocity": 91, "note_on_time": 4.389, "note_off_time": 4.482}, {"pitch": 64, "velocity": 99, "note_on_time": 4.673, "note_off_time": 4.808}, {"pitch": 60, "velocity": 94, "note_on_time": 4.936, "note_off_time": 5.04}, {"pitch": 65, "velocity": 93, "note_on_time": 5.549, "note_off_time": 5.67}, {"pitch": 65, "velocity": 82, "note_on_time": 5.851, "note_off_time": 5.985}, {"pitch": 64, "velocity": 78, "note_on_time": 6.17, "note_off_time": 6.304}, {"pitch": 60, "velocity": 85, "note_on_time": 6.42, "note_off_time": 6.532}, {"pitch": 67, "velocity": 85, "note_on_time": 6.729, "note_off_time": 7.152}, {"pitch": 62, "velocity": 88, "note_on_time": 7.364, "note_off_time": 7.459}, {"pitch": 62, "velocity": 77, "note_on_time": 7.643, "note_off_time": 7.784}, {"pitch": 65, "velocity": 90, "note_on_time": 7.95, "note_off_time": 8.088}, {"pitch": 62, "velocity": 91, "note_on_time": 8.215, "note_off_time": 8.259}, {"pitch": 62, "velocity": 93, "note_on_time": 8.604, "note_off_time": 8.685}, {"pitch": 62, "velocity": 93, "note_on_time": 8.875, "note_off_time": 8.948}, {"pitch": 62, "velocity": 106, "note_on_time": 9.139, "note_off_time": 9.266}]</notes><guidance name="Guidance Mode">None</guidance><error name="Error value">0.2714390909090911</error></trial></trials></MIDI>