<MIDI midiNo="2022_04_28-15_39_47"><target_notes><notes name="Note List">[{"pitch": 39, "velocity": 100, "note_on_time": 0.004, "note_off_time": 0.414}, {"pitch": 42, "velocity": 100, "note_on_time": 0.414, "note_off_time": 0.821}, {"pitch": 42, "velocity": 100, "note_on_time": 0.822, "note_off_time": 1.225}, {"pitch": 42, "velocity": 100, "note_on_time": 1.225, "note_off_time": 1.628}, {"pitch": 64, "velocity": 100, "note_on_time": 1.628, "note_off_time": 1.832}, {"pitch": 65, "velocity": 100, "note_on_time": 1.832, "note_off_time": 2.034}, {"pitch": 39, "velocity": 100, "note_on_time": 1.628, "note_off_time": 2.035}, {"pitch": 42, "velocity": 100, "note_on_time": 2.035, "note_off_time": 2.437}, {"pitch": 60, "velocity": 100, "note_on_time": 2.034, "note_off_time": 2.843}, {"pitch": 42, "velocity": 100, "note_on_time": 2.438, "note_off_time": 2.844}, {"pitch": 64, "velocity": 100, "note_on_time": 2.843, "note_off_time": 3.047}, {"pitch": 62, "velocity": 100, "note_on_time": 3.047, "note_off_time": 3.251}, {"pitch": 42, "velocity": 100, "note_on_time": 2.844, "note_off_time": 3.251}, {"pitch": 39, "velocity": 100, "note_on_time": 3.251, "note_off_time": 3.656}, {"pitch": 60, "velocity": 100, "note_on_time": 3.251, "note_off_time": 4.061}, {"pitch": 42, "velocity": 100, "note_on_time": 3.656, "note_off_time": 4.061}, {"pitch": 42, "velocity": 100, "note_on_time": 4.061, "note_off_time": 4.467}, {"pitch": 42, "velocity": 100, "note_on_time": 4.468, "note_off_time": 4.875}, {"pitch": 64, "velocity": 100, "note_on_time": 4.875, "note_off_time": 5.282}, {"pitch": 39, "velocity": 100, "note_on_time": 4.875, "note_off_time": 5.282}, {"pitch": 67, "velocity": 100, "note_on_time": 5.282, "note_off_time": 5.688}, {"pitch": 42, "velocity": 100, "note_on_time": 5.282, "note_off_time": 5.688}, {"pitch": 65, "velocity": 100, "note_on_time": 5.688, "note_off_time": 5.891}, {"pitch": 64, "velocity": 100, "note_on_time": 5.891, "note_off_time": 6.093}, {"pitch": 42, "velocity": 100, "note_on_time": 5.688, "note_off_time": 6.093}, {"pitch": 62, "velocity": 100, "note_on_time": 6.093, "note_off_time": 6.497}, {"pitch": 42, "velocity": 100, "note_on_time": 6.093, "note_off_time": 6.497}, {"pitch": 64, "velocity": 100, "note_on_time": 6.497, "note_off_time": 6.903}, {"pitch": 39, "velocity": 100, "note_on_time": 6.497, "note_off_time": 6.904}, {"pitch": 67, "velocity": 100, "note_on_time": 6.903, "note_off_time": 7.307}, {"pitch": 42, "velocity": 100, "note_on_time": 6.904, "note_off_time": 7.307}, {"pitch": 42, "velocity": 100, "note_on_time": 7.308, "note_off_time": 7.714}, {"pitch": 60, "velocity": 100, "note_on_time": 7.713, "note_off_time": 8.118}, {"pitch": 42, "velocity": 100, "note_on_time": 7.714, "note_off_time": 8.118}, {"pitch": 65, "velocity": 100, "note_on_time": 8.118, "note_off_time": 8.526}, {"pitch": 39, "velocity": 100, "note_on_time": 8.118, "note_off_time": 8.526}, {"pitch": 42, "velocity": 100, "note_on_time": 8.526, "note_off_time": 8.93}, {"pitch": 42, "velocity": 100, "note_on_time": 8.931, "note_off_time": 9.336}, {"pitch": 42, "velocity": 100, "note_on_time": 9.337, "note_off_time": 9.742}, {"pitch": 60, "velocity": 100, "note_on_time": 9.742, "note_off_time": 9.944}, {"pitch": 67, "velocity": 100, "note_on_time": 9.944, "note_off_time": 10.146}, {"pitch": 39, "velocity": 100, "note_on_time": 9.743, "note_off_time": 10.147}, {"pitch": 67, "velocity": 100, "note_on_time": 10.146, "note_off_time": 10.552}, {"pitch": 42, "velocity": 100, "note_on_time": 10.147, "note_off_time": 10.553}, {"pitch": 67, "velocity": 100, "note_on_time": 10.552, "note_off_time": 10.957}, {"pitch": 42, "velocity": 100, "note_on_time": 10.553, "note_off_time": 10.957}, {"pitch": 67, "velocity": 100, "note_on_time": 10.957, "note_off_time": 11.158}, {"pitch": 65, "velocity": 100, "note_on_time": 11.158, "note_off_time": 11.36}, {"pitch": 42, "velocity": 100, "note_on_time": 10.957, "note_off_time": 11.36}, {"pitch": 39, "velocity": 100, "note_on_time": 11.361, "note_off_time": 11.768}, {"pitch": 60, "velocity": 100, "note_on_time": 11.36, "note_off_time": 12.173}, {"pitch": 42, "velocity": 100, "note_on_time": 11.768, "note_off_time": 12.174}, {"pitch": 42, "velocity": 100, "note_on_time": 12.174, "note_off_time": 12.579}, {"pitch": 42, "velocity": 100, "note_on_time": 12.579, "note_off_time": 12.984}, {"pitch": 39, "velocity": 100, "note_on_time": 12.984, "note_off_time": 13.391}, {"pitch": 60, "velocity": 100, "note_on_time": 13.391, "note_off_time": 13.797}, {"pitch": 42, "velocity": 100, "note_on_time": 13.391, "note_off_time": 13.797}, {"pitch": 60, "velocity": 100, "note_on_time": 13.797, "note_off_time": 14.201}, {"pitch": 42, "velocity": 100, "note_on_time": 13.797, "note_off_time": 14.201}, {"pitch": 60, "velocity": 100, "note_on_time": 14.201, "note_off_time": 14.607}, {"pitch": 42, "velocity": 100, "note_on_time": 14.202, "note_off_time": 14.608}]</notes><options name="Option List">((4, 4), [0.5, 0.25, 0.125], 3, 8, &lt;NoteRangePerHand.C_TO_G: 6&gt;, &lt;NoteRangePerHand.ONE_NOTE: 2&gt;, False, True, True, '150')</options></target_notes><trials><trial trial_no="1" timestamp="2022_04_28-15_39_31"><notes name="Played Notes">[{"pitch": 64, "velocity": 59, "note_on_time": 1.616, "note_off_time": 1.871}, {"pitch": 65, "velocity": 65, "note_on_time": 1.809, "note_off_time": 2.004}, {"pitch": 60, "velocity": 74, "note_on_time": 2.028, "note_off_time": 2.435}, {"pitch": 64, "velocity": 65, "note_on_time": 2.467, "note_off_time": 2.63}, {"pitch": 62, "velocity": 41, "note_on_time": 2.629, "note_off_time": 2.835}, {"pitch": 60, "velocity": 79, "note_on_time": 2.858, "note_off_time": 3.563}, {"pitch": 64, "velocity": 78, "note_on_time": 4.012, "note_off_time": 4.348}, {"pitch": 67, "velocity": 67, "note_on_time": 4.447, "note_off_time": 4.81}, {"pitch": 65, "velocity": 69, "note_on_time": 4.875, "note_off_time": 5.068}, {"pitch": 64, "velocity": 70, "note_on_time": 5.054, "note_off_time": 5.254}, {"pitch": 62, "velocity": 68, "note_on_time": 5.284, "note_off_time": 5.627}, {"pitch": 64, "velocity": 61, "note_on_time": 5.687, "note_off_time": 5.91}, {"pitch": 67, "velocity": 60, "note_on_time": 5.905, "note_off_time": 6.167}, {"pitch": 60, "velocity": 65, "note_on_time": 6.162, "note_off_time": 6.387}, {"pitch": 65, "velocity": 78, "note_on_time": 6.548, "note_off_time": 6.781}, {"pitch": 60, "velocity": 70, "note_on_time": 7.277, "note_off_time": 7.732}, {"pitch": 67, "velocity": 60, "note_on_time": 7.721, "note_off_time": 7.866}, {"pitch": 67, "velocity": 71, "note_on_time": 7.947, "note_off_time": 8.07}, {"pitch": 67, "velocity": 78, "note_on_time": 8.149, "note_off_time": 8.39}, {"pitch": 67, "velocity": 62, "note_on_time": 8.499, "note_off_time": 8.865}, {"pitch": 65, "velocity": 65, "note_on_time": 8.968, "note_off_time": 9.193}, {"pitch": 60, "velocity": 63, "note_on_time": 9.175, "note_off_time": 9.357}, {"pitch": 60, "velocity": 30, "note_on_time": 9.927, "note_off_time": 10.267}, {"pitch": 60, "velocity": 87, "note_on_time": 10.359, "note_off_time": 10.65}, {"pitch": 60, "velocity": 84, "note_on_time": 10.821, "note_off_time": 11.078}]</notes><guidance name="Guidance Mode">None</guidance><error name="Error value">0.3076111111111115</error></trial><trial trial_no="2" timestamp="2022_04_28-15_42_01"><notes name="Played Notes">[{"pitch": 64, "velocity": 64, "note_on_time": 1.618, "note_off_time": 1.881}, {"pitch": 65, "velocity": 61, "note_on_time": 1.814, "note_off_time": 2.019}, {"pitch": 60, "velocity": 67, "note_on_time": 2.057, "note_off_time": 2.622}, {"pitch": 64, "velocity": 60, "note_on_time": 2.85, "note_off_time": 3.026}, {"pitch": 62, "velocity": 49, "note_on_time": 3.046, "note_off_time": 3.276}, {"pitch": 60, "velocity": 74, "note_on_time": 3.291, "note_off_time": 4.388}, {"pitch": 64, "velocity": 64, "note_on_time": 4.844, "note_off_time": 5.216}, {"pitch": 67, "velocity": 60, "note_on_time": 5.253, "note_off_time": 5.619}, {"pitch": 65, "velocity": 62, "note_on_time": 5.676, "note_off_time": 5.883}, {"pitch": 64, "velocity": 59, "note_on_time": 5.858, "note_off_time": 6.041}, {"pitch": 62, "velocity": 63, "note_on_time": 6.079, "note_off_time": 6.391}, {"pitch": 64, "velocity": 67, "note_on_time": 6.471, "note_off_time": 6.896}, {"pitch": 67, "velocity": 55, "note_on_time": 6.905, "note_off_time": 7.28}, {"pitch": 60, "velocity": 53, "note_on_time": 7.364, "note_off_time": 7.655}, {"pitch": 65, "velocity": 78, "note_on_time": 8.484, "note_off_time": 8.699}, {"pitch": 60, "velocity": 67, "note_on_time": 9.706, "note_off_time": 10.131}, {"pitch": 67, "velocity": 57, "note_on_time": 10.135, "note_off_time": 10.222}, {"pitch": 67, "velocity": 65, "note_on_time": 10.33, "note_off_time": 10.459}, {"pitch": 67, "velocity": 61, "note_on_time": 10.559, "note_off_time": 10.829}, {"pitch": 67, "velocity": 63, "note_on_time": 10.986, "note_off_time": 11.056}, {"pitch": 65, "velocity": 69, "note_on_time": 11.069, "note_off_time": 11.328}, {"pitch": 60, "velocity": 70, "note_on_time": 11.476, "note_off_time": 12.042}, {"pitch": 60, "velocity": 68, "note_on_time": 13.361, "note_off_time": 13.674}, {"pitch": 60, "velocity": 65, "note_on_time": 13.825, "note_off_time": 14.105}]</notes><guidance name="Guidance Mode">None</guidance><error name="Error value">0.2540833333333335</error></trial><trial trial_no="3" timestamp="2022_04_28-15_42_50"><notes name="Played Notes">[{"pitch": 64, "velocity": 52, "note_on_time": 1.629, "note_off_time": 1.832}, {"pitch": 65, "velocity": 56, "note_on_time": 1.813, "note_off_time": 2.045}, {"pitch": 60, "velocity": 69, "note_on_time": 2.051, "note_off_time": 2.664}, {"pitch": 64, "velocity": 46, "note_on_time": 2.839, "note_off_time": 3.061}, {"pitch": 62, "velocity": 49, "note_on_time": 3.052, "note_off_time": 3.276}, {"pitch": 60, "velocity": 68, "note_on_time": 3.293, "note_off_time": 4.301}, {"pitch": 64, "velocity": 70, "note_on_time": 4.864, "note_off_time": 5.288}, {"pitch": 67, "velocity": 59, "note_on_time": 5.303, "note_off_time": 5.735}, {"pitch": 65, "velocity": 63, "note_on_time": 5.713, "note_off_time": 5.896}, {"pitch": 64, "velocity": 61, "note_on_time": 5.878, "note_off_time": 6.1}, {"pitch": 62, "velocity": 60, "note_on_time": 6.094, "note_off_time": 6.377}, {"pitch": 64, "velocity": 78, "note_on_time": 6.485, "note_off_time": 6.912}, {"pitch": 67, "velocity": 77, "note_on_time": 6.914, "note_off_time": 7.315}, {"pitch": 60, "velocity": 66, "note_on_time": 7.711, "note_off_time": 8.123}, {"pitch": 65, "velocity": 61, "note_on_time": 8.135, "note_off_time": 8.829}, {"pitch": 60, "velocity": 62, "note_on_time": 9.726, "note_off_time": 9.932}, {"pitch": 67, "velocity": 58, "note_on_time": 9.918, "note_off_time": 10.038}, {"pitch": 67, "velocity": 62, "note_on_time": 10.142, "note_off_time": 10.395}, {"pitch": 67, "velocity": 65, "note_on_time": 10.545, "note_off_time": 10.836}, {"pitch": 67, "velocity": 62, "note_on_time": 10.971, "note_off_time": 11.175}, {"pitch": 65, "velocity": 63, "note_on_time": 11.179, "note_off_time": 11.335}, {"pitch": 60, "velocity": 62, "note_on_time": 11.4, "note_off_time": 12.264}, {"pitch": 60, "velocity": 58, "note_on_time": 13.415, "note_off_time": 13.66}, {"pitch": 60, "velocity": 52, "note_on_time": 13.806, "note_off_time": 14.078}]</notes><guidance name="Guidance Mode">None</guidance><error name="Error value">0.13236111111111104</error></trial></trials></MIDI>