<MIDI midiNo="2022_10_27-11_14_49"><target_notes><notes name="Note List">[{"pitch": 42, "velocity": 80, "note_on_time": 0.004, "note_off_time": 0.536}, {"pitch": 42, "velocity": 80, "note_on_time": 0.536, "note_off_time": 1.064}, {"pitch": 42, "velocity": 80, "note_on_time": 1.064, "note_off_time": 1.594}, {"pitch": 42, "velocity": 80, "note_on_time": 1.595, "note_off_time": 2.126}, {"pitch": 60, "velocity": 80, "note_on_time": 2.125, "note_off_time": 2.656}, {"pitch": 42, "velocity": 80, "note_on_time": 2.126, "note_off_time": 2.656}, {"pitch": 42, "velocity": 80, "note_on_time": 2.656, "note_off_time": 3.183}, {"pitch": 42, "velocity": 80, "note_on_time": 3.184, "note_off_time": 3.712}, {"pitch": 42, "velocity": 80, "note_on_time": 3.712, "note_off_time": 4.243}, {"pitch": 60, "velocity": 80, "note_on_time": 4.243, "note_off_time": 4.773}, {"pitch": 42, "velocity": 80, "note_on_time": 4.243, "note_off_time": 4.773}, {"pitch": 42, "velocity": 80, "note_on_time": 4.774, "note_off_time": 5.304}, {"pitch": 42, "velocity": 80, "note_on_time": 5.304, "note_off_time": 5.83}, {"pitch": 62, "velocity": 80, "note_on_time": 5.83, "note_off_time": 6.36}, {"pitch": 42, "velocity": 80, "note_on_time": 5.83, "note_off_time": 6.36}, {"pitch": 60, "velocity": 80, "note_on_time": 6.36, "note_off_time": 6.887}, {"pitch": 42, "velocity": 80, "note_on_time": 6.361, "note_off_time": 6.887}, {"pitch": 62, "velocity": 80, "note_on_time": 6.887, "note_off_time": 7.416}, {"pitch": 42, "velocity": 80, "note_on_time": 6.887, "note_off_time": 7.416}, {"pitch": 62, "velocity": 80, "note_on_time": 7.416, "note_off_time": 7.947}, {"pitch": 42, "velocity": 80, "note_on_time": 7.416, "note_off_time": 7.947}, {"pitch": 60, "velocity": 80, "note_on_time": 7.947, "note_off_time": 8.475}, {"pitch": 42, "velocity": 80, "note_on_time": 7.948, "note_off_time": 8.475}, {"pitch": 62, "velocity": 80, "note_on_time": 8.475, "note_off_time": 9.007}, {"pitch": 42, "velocity": 80, "note_on_time": 8.475, "note_off_time": 9.007}, {"pitch": 62, "velocity": 80, "note_on_time": 9.007, "note_off_time": 9.537}, {"pitch": 42, "velocity": 80, "note_on_time": 9.007, "note_off_time": 9.537}, {"pitch": 60, "velocity": 80, "note_on_time": 9.537, "note_off_time": 10.064}, {"pitch": 42, "velocity": 80, "note_on_time": 9.537, "note_off_time": 10.064}, {"pitch": 62, "velocity": 80, "note_on_time": 10.064, "note_off_time": 10.597}, {"pitch": 42, "velocity": 80, "note_on_time": 10.065, "note_off_time": 10.598}, {"pitch": 62, "velocity": 80, "note_on_time": 10.597, "note_off_time": 11.127}, {"pitch": 42, "velocity": 80, "note_on_time": 10.598, "note_off_time": 11.127}, {"pitch": 62, "velocity": 80, "note_on_time": 11.127, "note_off_time": 11.654}, {"pitch": 42, "velocity": 80, "note_on_time": 11.127, "note_off_time": 11.655}, {"pitch": 62, "velocity": 80, "note_on_time": 11.654, "note_off_time": 12.182}, {"pitch": 42, "velocity": 80, "note_on_time": 11.655, "note_off_time": 12.182}, {"pitch": 62, "velocity": 80, "note_on_time": 12.182, "note_off_time": 12.711}, {"pitch": 42, "velocity": 80, "note_on_time": 12.183, "note_off_time": 12.711}, {"pitch": 62, "velocity": 80, "note_on_time": 12.711, "note_off_time": 13.239}, {"pitch": 42, "velocity": 80, "note_on_time": 12.711, "note_off_time": 13.24}, {"pitch": 42, "velocity": 80, "note_on_time": 13.24, "note_off_time": 13.77}, {"pitch": 42, "velocity": 80, "note_on_time": 13.771, "note_off_time": 14.299}, {"pitch": 42, "velocity": 80, "note_on_time": 14.3, "note_off_time": 14.828}, {"pitch": 62, "velocity": 80, "note_on_time": 14.828, "note_off_time": 15.357}, {"pitch": 42, "velocity": 80, "note_on_time": 14.828, "note_off_time": 15.357}, {"pitch": 42, "velocity": 80, "note_on_time": 15.358, "note_off_time": 15.887}, {"pitch": 62, "velocity": 80, "note_on_time": 15.886, "note_off_time": 16.416}, {"pitch": 42, "velocity": 80, "note_on_time": 15.887, "note_off_time": 16.416}, {"pitch": 42, "velocity": 80, "note_on_time": 16.416, "note_off_time": 16.945}, {"pitch": 42, "velocity": 80, "note_on_time": 16.946, "note_off_time": 17.475}, {"pitch": 62, "velocity": 80, "note_on_time": 17.475, "note_off_time": 18.002}, {"pitch": 42, "velocity": 80, "note_on_time": 17.476, "note_off_time": 18.003}, {"pitch": 62, "velocity": 80, "note_on_time": 18.002, "note_off_time": 18.534}, {"pitch": 42, "velocity": 80, "note_on_time": 18.003, "note_off_time": 18.535}, {"pitch": 62, "velocity": 80, "note_on_time": 18.534, "note_off_time": 19.06}, {"pitch": 42, "velocity": 80, "note_on_time": 18.535, "note_off_time": 19.061}]</notes><options name="Option List">((4, 4), [0.25], 3, 8, &lt;NoteRangePerHand.TWO_NOTES: 3&gt;, &lt;NoteRangePerHand.ONE_NOTE: 2&gt;, False, True, False, 116)</options></target_notes><trials><trial trial_no="1" timestamp="2022_10_27-11_14_28"><notes name="Played Notes">[{"pitch": 60, "velocity": 61, "note_on_time": 2.114, "note_off_time": 2.304}, {"pitch": 60, "velocity": 64, "note_on_time": 4.308, "note_off_time": 4.511}, {"pitch": 62, "velocity": 54, "note_on_time": 6.4, "note_off_time": 6.594}, {"pitch": 60, "velocity": 56, "note_on_time": 6.958, "note_off_time": 7.112}, {"pitch": 62, "velocity": 58, "note_on_time": 7.461, "note_off_time": 7.615}, {"pitch": 62, "velocity": 61, "note_on_time": 7.948, "note_off_time": 8.104}, {"pitch": 60, "velocity": 56, "note_on_time": 8.485, "note_off_time": 8.649}, {"pitch": 62, "velocity": 60, "note_on_time": 8.982, "note_off_time": 9.155}, {"pitch": 62, "velocity": 54, "note_on_time": 9.489, "note_off_time": 9.653}, {"pitch": 60, "velocity": 55, "note_on_time": 9.983, "note_off_time": 10.16}, {"pitch": 62, "velocity": 52, "note_on_time": 10.493, "note_off_time": 10.659}, {"pitch": 62, "velocity": 57, "note_on_time": 10.974, "note_off_time": 11.134}, {"pitch": 62, "velocity": 61, "note_on_time": 11.468, "note_off_time": 11.626}, {"pitch": 62, "velocity": 58, "note_on_time": 11.976, "note_off_time": 12.132}, {"pitch": 62, "velocity": 63, "note_on_time": 12.483, "note_off_time": 12.623}, {"pitch": 62, "velocity": 66, "note_on_time": 13.002, "note_off_time": 13.168}, {"pitch": 62, "velocity": 61, "note_on_time": 14.939, "note_off_time": 15.094}, {"pitch": 62, "velocity": 71, "note_on_time": 16.151, "note_off_time": 16.308}, {"pitch": 62, "velocity": 61, "note_on_time": 17.187, "note_off_time": 17.344}, {"pitch": 62, "velocity": 64, "note_on_time": 17.746, "note_off_time": 17.871}, {"pitch": 62, "velocity": 65, "note_on_time": 18.295, "note_off_time": 18.395}]</notes><guidance name="Guidance Mode">None</guidance><error name="Error value">0.10059572222222236</error></trial><trial trial_no="2" timestamp="2022_10_27-11_15_00"><notes name="Played Notes">[{"pitch": 60, "velocity": 69, "note_on_time": 2.07, "note_off_time": 2.273}, {"pitch": 60, "velocity": 64, "note_on_time": 4.261, "note_off_time": 4.43}, {"pitch": 62, "velocity": 51, "note_on_time": 6.168, "note_off_time": 6.352}, {"pitch": 60, "velocity": 57, "note_on_time": 6.699, "note_off_time": 6.852}, {"pitch": 62, "velocity": 61, "note_on_time": 7.211, "note_off_time": 7.368}, {"pitch": 62, "velocity": 49, "note_on_time": 7.676, "note_off_time": 7.859}, {"pitch": 60, "velocity": 56, "note_on_time": 8.241, "note_off_time": 8.394}, {"pitch": 62, "velocity": 59, "note_on_time": 8.785, "note_off_time": 8.947}, {"pitch": 62, "velocity": 54, "note_on_time": 9.3, "note_off_time": 9.478}, {"pitch": 60, "velocity": 61, "note_on_time": 9.828, "note_off_time": 9.996}, {"pitch": 62, "velocity": 51, "note_on_time": 10.344, "note_off_time": 10.508}, {"pitch": 62, "velocity": 53, "note_on_time": 10.849, "note_off_time": 11.017}, {"pitch": 62, "velocity": 55, "note_on_time": 11.38, "note_off_time": 11.53}, {"pitch": 62, "velocity": 56, "note_on_time": 11.894, "note_off_time": 12.055}, {"pitch": 62, "velocity": 53, "note_on_time": 12.424, "note_off_time": 12.562}, {"pitch": 62, "velocity": 54, "note_on_time": 12.933, "note_off_time": 13.083}, {"pitch": 62, "velocity": 62, "note_on_time": 14.906, "note_off_time": 15.063}, {"pitch": 62, "velocity": 62, "note_on_time": 16.023, "note_off_time": 16.16}, {"pitch": 62, "velocity": 59, "note_on_time": 17.367, "note_off_time": 17.534}, {"pitch": 62, "velocity": 64, "note_on_time": 17.949, "note_off_time": 18.085}, {"pitch": 62, "velocity": 57, "note_on_time": 18.544, "note_off_time": 18.647}]</notes><guidance name="Guidance Mode">None</guidance><error name="Error value">0.06757094444444428</error></trial><trial trial_no="3" timestamp="2022_10_27-11_15_30"><notes name="Played Notes">[{"pitch": 60, "velocity": 59, "note_on_time": 2.059, "note_off_time": 2.247}, {"pitch": 60, "velocity": 52, "note_on_time": 4.112, "note_off_time": 4.304}, {"pitch": 64, "velocity": 41, "note_on_time": 6.38, "note_off_time": 6.483}, {"pitch": 62, "velocity": 36, "note_on_time": 6.37, "note_off_time": 6.514}, {"pitch": 60, "velocity": 53, "note_on_time": 7.097, "note_off_time": 7.229}, {"pitch": 62, "velocity": 46, "note_on_time": 7.607, "note_off_time": 7.786}, {"pitch": 62, "velocity": 64, "note_on_time": 8.157, "note_off_time": 8.325}, {"pitch": 60, "velocity": 72, "note_on_time": 8.718, "note_off_time": 8.898}, {"pitch": 62, "velocity": 54, "note_on_time": 9.34, "note_off_time": 9.493}, {"pitch": 62, "velocity": 65, "note_on_time": 9.879, "note_off_time": 10.054}, {"pitch": 60, "velocity": 64, "note_on_time": 10.437, "note_off_time": 10.6}, {"pitch": 62, "velocity": 53, "note_on_time": 10.998, "note_off_time": 11.182}, {"pitch": 62, "velocity": 60, "note_on_time": 11.531, "note_off_time": 11.684}, {"pitch": 62, "velocity": 46, "note_on_time": 12.087, "note_off_time": 12.236}, {"pitch": 62, "velocity": 60, "note_on_time": 12.633, "note_off_time": 12.797}, {"pitch": 62, "velocity": 54, "note_on_time": 13.171, "note_off_time": 13.319}, {"pitch": 62, "velocity": 65, "note_on_time": 13.73, "note_off_time": 13.896}, {"pitch": 62, "velocity": 64, "note_on_time": 15.822, "note_off_time": 15.995}, {"pitch": 62, "velocity": 61, "note_on_time": 17.011, "note_off_time": 17.165}, {"pitch": 62, "velocity": 67, "note_on_time": 18.084, "note_off_time": 18.244}, {"pitch": 62, "velocity": 65, "note_on_time": 18.685, "note_off_time": 18.818}]</notes><guidance name="Guidance Mode">None</guidance><error name="Error value">0.45677038888888877</error></trial></trials></MIDI>