<MIDI midiNo="2022_11_10-10_59_28"><target_notes><notes name="Note List">[{"pitch": 42, "velocity": 80, "note_on_time": 0.004, "note_off_time": 0.909}, {"pitch": 42, "velocity": 80, "note_on_time": 0.909, "note_off_time": 1.809}, {"pitch": 42, "velocity": 80, "note_on_time": 1.809, "note_off_time": 2.707}, {"pitch": 42, "velocity": 80, "note_on_time": 2.707, "note_off_time": 3.61}, {"pitch": 42, "velocity": 80, "note_on_time": 3.61, "note_off_time": 4.509}, {"pitch": 62, "velocity": 80, "note_on_time": 3.61, "note_off_time": 5.408}, {"pitch": 42, "velocity": 80, "note_on_time": 4.509, "note_off_time": 5.408}, {"pitch": 42, "velocity": 80, "note_on_time": 5.408, "note_off_time": 6.309}, {"pitch": 64, "velocity": 80, "note_on_time": 6.308, "note_off_time": 7.21}, {"pitch": 42, "velocity": 80, "note_on_time": 6.309, "note_off_time": 7.211}, {"pitch": 62, "velocity": 80, "note_on_time": 7.21, "note_off_time": 8.107}, {"pitch": 42, "velocity": 80, "note_on_time": 7.211, "note_off_time": 8.108}, {"pitch": 60, "velocity": 80, "note_on_time": 8.107, "note_off_time": 9.012}, {"pitch": 42, "velocity": 80, "note_on_time": 8.108, "note_off_time": 9.012}, {"pitch": 42, "velocity": 80, "note_on_time": 9.013, "note_off_time": 9.913}, {"pitch": 62, "velocity": 80, "note_on_time": 9.012, "note_off_time": 10.814}, {"pitch": 42, "velocity": 80, "note_on_time": 9.913, "note_off_time": 10.814}, {"pitch": 64, "velocity": 80, "note_on_time": 10.814, "note_off_time": 11.716}, {"pitch": 42, "velocity": 80, "note_on_time": 10.814, "note_off_time": 11.716}, {"pitch": 60, "velocity": 80, "note_on_time": 11.716, "note_off_time": 12.617}, {"pitch": 42, "velocity": 80, "note_on_time": 11.717, "note_off_time": 12.617}, {"pitch": 60, "velocity": 80, "note_on_time": 12.617, "note_off_time": 13.521}, {"pitch": 42, "velocity": 80, "note_on_time": 12.618, "note_off_time": 13.521}, {"pitch": 60, "velocity": 80, "note_on_time": 13.521, "note_off_time": 14.423}, {"pitch": 42, "velocity": 80, "note_on_time": 13.521, "note_off_time": 14.423}, {"pitch": 62, "velocity": 80, "note_on_time": 14.423, "note_off_time": 15.327}, {"pitch": 42, "velocity": 80, "note_on_time": 14.423, "note_off_time": 15.327}, {"pitch": 60, "velocity": 80, "note_on_time": 15.327, "note_off_time": 16.231}, {"pitch": 42, "velocity": 80, "note_on_time": 15.328, "note_off_time": 16.231}, {"pitch": 64, "velocity": 80, "note_on_time": 16.231, "note_off_time": 17.132}, {"pitch": 42, "velocity": 80, "note_on_time": 16.231, "note_off_time": 17.132}, {"pitch": 64, "velocity": 80, "note_on_time": 17.132, "note_off_time": 18.03}, {"pitch": 42, "velocity": 80, "note_on_time": 17.132, "note_off_time": 18.03}, {"pitch": 64, "velocity": 80, "note_on_time": 18.03, "note_off_time": 18.932}, {"pitch": 42, "velocity": 80, "note_on_time": 18.031, "note_off_time": 18.932}, {"pitch": 62, "velocity": 80, "note_on_time": 18.932, "note_off_time": 19.832}, {"pitch": 42, "velocity": 80, "note_on_time": 18.933, "note_off_time": 19.832}, {"pitch": 64, "velocity": 80, "note_on_time": 19.832, "note_off_time": 20.73}, {"pitch": 42, "velocity": 80, "note_on_time": 19.833, "note_off_time": 20.73}, {"pitch": 62, "velocity": 80, "note_on_time": 20.73, "note_off_time": 21.631}, {"pitch": 42, "velocity": 80, "note_on_time": 20.73, "note_off_time": 21.631}, {"pitch": 64, "velocity": 80, "note_on_time": 21.631, "note_off_time": 22.53}, {"pitch": 42, "velocity": 80, "note_on_time": 21.631, "note_off_time": 22.53}, {"pitch": 42, "velocity": 80, "note_on_time": 22.53, "note_off_time": 23.432}, {"pitch": 42, "velocity": 80, "note_on_time": 23.433, "note_off_time": 24.334}, {"pitch": 42, "velocity": 80, "note_on_time": 24.334, "note_off_time": 25.236}, {"pitch": 62, "velocity": 80, "note_on_time": 25.236, "note_off_time": 26.139}, {"pitch": 42, "velocity": 80, "note_on_time": 25.236, "note_off_time": 26.139}, {"pitch": 64, "velocity": 80, "note_on_time": 26.139, "note_off_time": 27.041}, {"pitch": 42, "velocity": 80, "note_on_time": 26.139, "note_off_time": 27.041}, {"pitch": 60, "velocity": 80, "note_on_time": 27.041, "note_off_time": 27.943}, {"pitch": 42, "velocity": 80, "note_on_time": 27.041, "note_off_time": 27.943}, {"pitch": 60, "velocity": 80, "note_on_time": 27.943, "note_off_time": 28.844}, {"pitch": 42, "velocity": 80, "note_on_time": 27.943, "note_off_time": 28.844}, {"pitch": 42, "velocity": 80, "note_on_time": 28.844, "note_off_time": 29.742}, {"pitch": 60, "velocity": 80, "note_on_time": 29.742, "note_off_time": 30.642}, {"pitch": 42, "velocity": 80, "note_on_time": 29.742, "note_off_time": 30.642}, {"pitch": 60, "velocity": 80, "note_on_time": 30.642, "note_off_time": 31.545}, {"pitch": 42, "velocity": 80, "note_on_time": 30.643, "note_off_time": 31.545}, {"pitch": 60, "velocity": 80, "note_on_time": 31.545, "note_off_time": 32.447}, {"pitch": 42, "velocity": 80, "note_on_time": 31.545, "note_off_time": 32.447}]</notes><options name="Option List">((4, 4), [0.5, 0.25], 3, 8, &lt;NoteRangePerHand.THREE_NOTES: 4&gt;, &lt;NoteRangePerHand.ONE_NOTE: 2&gt;, False, True, False, '67')</options></target_notes><trials><trial trial_no="1" timestamp="2022_11_10-10_58_54"><notes name="Played Notes">[{"pitch": 62, "velocity": 62, "note_on_time": 3.674, "note_off_time": 4.232}, {"pitch": 64, "velocity": 59, "note_on_time": 5.366, "note_off_time": 5.941}, {"pitch": 62, "velocity": 72, "note_on_time": 6.272, "note_off_time": 6.698}, {"pitch": 60, "velocity": 70, "note_on_time": 7.169, "note_off_time": 7.648}, {"pitch": 62, "velocity": 65, "note_on_time": 8.076, "note_off_time": 8.512}, {"pitch": 62, "velocity": 59, "note_on_time": 10.017, "note_off_time": 10.465}, {"pitch": 60, "velocity": 74, "note_on_time": 10.896, "note_off_time": 11.122}, {"pitch": 60, "velocity": 83, "note_on_time": 11.382, "note_off_time": 11.576}, {"pitch": 60, "velocity": 75, "note_on_time": 11.853, "note_off_time": 12.209}, {"pitch": 62, "velocity": 66, "note_on_time": 12.872, "note_off_time": 13.353}, {"pitch": 60, "velocity": 72, "note_on_time": 13.812, "note_off_time": 14.283}, {"pitch": 64, "velocity": 70, "note_on_time": 14.748, "note_off_time": 14.997}, {"pitch": 64, "velocity": 70, "note_on_time": 15.362, "note_off_time": 15.597}, {"pitch": 64, "velocity": 70, "note_on_time": 16.016, "note_off_time": 16.47}, {"pitch": 62, "velocity": 56, "note_on_time": 17.189, "note_off_time": 17.693}, {"pitch": 64, "velocity": 61, "note_on_time": 18.07, "note_off_time": 18.477}, {"pitch": 62, "velocity": 64, "note_on_time": 19.019, "note_off_time": 19.475}, {"pitch": 64, "velocity": 65, "note_on_time": 20.008, "note_off_time": 20.39}, {"pitch": 62, "velocity": 70, "note_on_time": 22.47, "note_off_time": 22.937}, {"pitch": 64, "velocity": 60, "note_on_time": 23.416, "note_off_time": 23.909}, {"pitch": 60, "velocity": 69, "note_on_time": 24.325, "note_off_time": 24.521}, {"pitch": 60, "velocity": 71, "note_on_time": 24.762, "note_off_time": 24.968}, {"pitch": 60, "velocity": 81, "note_on_time": 26.162, "note_off_time": 26.325}, {"pitch": 60, "velocity": 75, "note_on_time": 26.572, "note_off_time": 26.721}, {"pitch": 60, "velocity": 71, "note_on_time": 27.072, "note_off_time": 27.352}]</notes><guidance name="Guidance Mode">None</guidance><error name="Error value">0.3228913636363636</error></trial><trial trial_no="2" timestamp="2022_11_10-10_59_46"><notes name="Played Notes">[{"pitch": 62, "velocity": 75, "note_on_time": 3.585, "note_off_time": 4.037}, {"pitch": 64, "velocity": 76, "note_on_time": 5.392, "note_off_time": 5.844}, {"pitch": 62, "velocity": 77, "note_on_time": 6.329, "note_off_time": 6.681}, {"pitch": 60, "velocity": 72, "note_on_time": 7.217, "note_off_time": 7.587}, {"pitch": 62, "velocity": 71, "note_on_time": 8.053, "note_off_time": 8.776}, {"pitch": 64, "velocity": 63, "note_on_time": 9.852, "note_off_time": 10.279}, {"pitch": 60, "velocity": 78, "note_on_time": 10.739, "note_off_time": 10.92}, {"pitch": 60, "velocity": 81, "note_on_time": 11.197, "note_off_time": 11.372}, {"pitch": 60, "velocity": 73, "note_on_time": 11.887, "note_off_time": 12.245}, {"pitch": 62, "velocity": 64, "note_on_time": 14.434, "note_off_time": 15.034}, {"pitch": 60, "velocity": 77, "note_on_time": 15.352, "note_off_time": 15.992}, {"pitch": 64, "velocity": 74, "note_on_time": 16.322, "note_off_time": 16.755}, {"pitch": 64, "velocity": 72, "note_on_time": 17.171, "note_off_time": 17.535}, {"pitch": 64, "velocity": 67, "note_on_time": 18.078, "note_off_time": 18.382}, {"pitch": 62, "velocity": 65, "note_on_time": 18.961, "note_off_time": 19.343}, {"pitch": 64, "velocity": 65, "note_on_time": 19.859, "note_off_time": 20.219}, {"pitch": 62, "velocity": 75, "note_on_time": 20.732, "note_off_time": 21.068}, {"pitch": 64, "velocity": 76, "note_on_time": 21.581, "note_off_time": 21.824}, {"pitch": 62, "velocity": 75, "note_on_time": 24.323, "note_off_time": 24.846}, {"pitch": 64, "velocity": 68, "note_on_time": 25.2, "note_off_time": 25.72}, {"pitch": 60, "velocity": 78, "note_on_time": 26.077, "note_off_time": 26.282}, {"pitch": 60, "velocity": 86, "note_on_time": 26.565, "note_off_time": 26.804}, {"pitch": 60, "velocity": 76, "note_on_time": 28.153, "note_off_time": 28.413}, {"pitch": 60, "velocity": 81, "note_on_time": 28.673, "note_off_time": 28.868}, {"pitch": 60, "velocity": 80, "note_on_time": 29.137, "note_off_time": 29.447}]</notes><guidance name="Guidance Mode">None</guidance><error name="Error value">0.2651286363636362</error></trial><trial trial_no="3" timestamp="2022_11_10-11_00_51"><notes name="Played Notes">[{"pitch": 62, "velocity": 76, "note_on_time": 3.547, "note_off_time": 3.879}, {"pitch": 64, "velocity": 64, "note_on_time": 5.394, "note_off_time": 5.84}, {"pitch": 62, "velocity": 73, "note_on_time": 7.244, "note_off_time": 7.637}, {"pitch": 60, "velocity": 81, "note_on_time": 8.111, "note_off_time": 8.549}, {"pitch": 62, "velocity": 77, "note_on_time": 8.939, "note_off_time": 9.722}, {"pitch": 64, "velocity": 73, "note_on_time": 11.676, "note_off_time": 12.188}, {"pitch": 60, "velocity": 68, "note_on_time": 12.607, "note_off_time": 12.996}, {"pitch": 60, "velocity": 82, "note_on_time": 13.485, "note_off_time": 13.961}, {"pitch": 60, "velocity": 79, "note_on_time": 14.397, "note_off_time": 14.812}, {"pitch": 62, "velocity": 77, "note_on_time": 16.226, "note_off_time": 16.795}, {"pitch": 60, "velocity": 78, "note_on_time": 17.137, "note_off_time": 17.639}, {"pitch": 64, "velocity": 82, "note_on_time": 18.01, "note_off_time": 18.471}, {"pitch": 64, "velocity": 69, "note_on_time": 18.922, "note_off_time": 19.393}, {"pitch": 64, "velocity": 70, "note_on_time": 20.712, "note_off_time": 21.175}, {"pitch": 62, "velocity": 72, "note_on_time": 21.604, "note_off_time": 22.0}, {"pitch": 64, "velocity": 72, "note_on_time": 22.462, "note_off_time": 22.859}, {"pitch": 62, "velocity": 64, "note_on_time": 23.372, "note_off_time": 23.729}, {"pitch": 64, "velocity": 73, "note_on_time": 24.202, "note_off_time": 24.536}, {"pitch": 62, "velocity": 74, "note_on_time": 27.01, "note_off_time": 27.452}, {"pitch": 64, "velocity": 76, "note_on_time": 27.939, "note_off_time": 28.389}, {"pitch": 60, "velocity": 73, "note_on_time": 28.822, "note_off_time": 29.197}, {"pitch": 60, "velocity": 79, "note_on_time": 29.727, "note_off_time": 30.046}, {"pitch": 60, "velocity": 74, "note_on_time": 31.54, "note_off_time": 32.022}]</notes><guidance name="Guidance Mode">None</guidance><error name="Error value">0.43316409090909075</error></trial></trials></MIDI>