<MIDI midiNo="2022_11_21-17_41_11"><target_notes><notes name="Note List">[{"pitch": 42, "velocity": 80, "note_on_time": 0.004, "note_off_time": 0.767}, {"pitch": 42, "velocity": 80, "note_on_time": 0.767, "note_off_time": 1.53}, {"pitch": 42, "velocity": 80, "note_on_time": 1.53, "note_off_time": 2.292}, {"pitch": 42, "velocity": 80, "note_on_time": 2.293, "note_off_time": 3.056}, {"pitch": 62, "velocity": 80, "note_on_time": 3.055, "note_off_time": 3.819}, {"pitch": 42, "velocity": 80, "note_on_time": 3.056, "note_off_time": 3.819}, {"pitch": 42, "velocity": 80, "note_on_time": 3.819, "note_off_time": 4.582}, {"pitch": 42, "velocity": 80, "note_on_time": 4.583, "note_off_time": 5.345}, {"pitch": 42, "velocity": 80, "note_on_time": 5.346, "note_off_time": 6.105}, {"pitch": 60, "velocity": 80, "note_on_time": 6.105, "note_off_time": 6.866}, {"pitch": 42, "velocity": 80, "note_on_time": 6.105, "note_off_time": 6.866}, {"pitch": 62, "velocity": 80, "note_on_time": 6.866, "note_off_time": 7.618}, {"pitch": 42, "velocity": 80, "note_on_time": 6.866, "note_off_time": 7.618}, {"pitch": 62, "velocity": 80, "note_on_time": 7.618, "note_off_time": 8.382}, {"pitch": 42, "velocity": 80, "note_on_time": 7.618, "note_off_time": 8.382}, {"pitch": 62, "velocity": 80, "note_on_time": 8.382, "note_off_time": 9.133}, {"pitch": 42, "velocity": 80, "note_on_time": 8.382, "note_off_time": 9.133}, {"pitch": 60, "velocity": 80, "note_on_time": 9.133, "note_off_time": 9.894}, {"pitch": 42, "velocity": 80, "note_on_time": 9.133, "note_off_time": 9.894}, {"pitch": 42, "velocity": 80, "note_on_time": 9.894, "note_off_time": 10.657}, {"pitch": 42, "velocity": 80, "note_on_time": 10.657, "note_off_time": 11.42}, {"pitch": 42, "velocity": 80, "note_on_time": 11.42, "note_off_time": 12.182}, {"pitch": 62, "velocity": 80, "note_on_time": 12.182, "note_off_time": 12.943}, {"pitch": 42, "velocity": 80, "note_on_time": 12.183, "note_off_time": 12.944}, {"pitch": 60, "velocity": 80, "note_on_time": 12.943, "note_off_time": 13.707}, {"pitch": 42, "velocity": 80, "note_on_time": 12.944, "note_off_time": 13.707}, {"pitch": 62, "velocity": 80, "note_on_time": 13.707, "note_off_time": 14.468}, {"pitch": 42, "velocity": 80, "note_on_time": 13.707, "note_off_time": 14.468}, {"pitch": 62, "velocity": 80, "note_on_time": 14.468, "note_off_time": 15.232}, {"pitch": 42, "velocity": 80, "note_on_time": 14.469, "note_off_time": 15.232}, {"pitch": 62, "velocity": 80, "note_on_time": 15.232, "note_off_time": 15.997}, {"pitch": 42, "velocity": 80, "note_on_time": 15.233, "note_off_time": 15.998}, {"pitch": 42, "velocity": 80, "note_on_time": 15.998, "note_off_time": 16.761}, {"pitch": 62, "velocity": 80, "note_on_time": 16.761, "note_off_time": 17.518}, {"pitch": 42, "velocity": 80, "note_on_time": 16.761, "note_off_time": 17.519}, {"pitch": 60, "velocity": 80, "note_on_time": 17.518, "note_off_time": 18.281}, {"pitch": 42, "velocity": 80, "note_on_time": 17.519, "note_off_time": 18.282}, {"pitch": 60, "velocity": 80, "note_on_time": 18.281, "note_off_time": 19.035}, {"pitch": 42, "velocity": 80, "note_on_time": 18.282, "note_off_time": 19.035}, {"pitch": 60, "velocity": 80, "note_on_time": 19.035, "note_off_time": 19.799}, {"pitch": 42, "velocity": 80, "note_on_time": 19.036, "note_off_time": 19.799}, {"pitch": 42, "velocity": 80, "note_on_time": 19.799, "note_off_time": 20.561}, {"pitch": 42, "velocity": 80, "note_on_time": 20.561, "note_off_time": 21.324}, {"pitch": 60, "velocity": 80, "note_on_time": 21.324, "note_off_time": 22.084}, {"pitch": 42, "velocity": 80, "note_on_time": 21.324, "note_off_time": 22.084}, {"pitch": 42, "velocity": 80, "note_on_time": 22.084, "note_off_time": 22.845}, {"pitch": 42, "velocity": 80, "note_on_time": 22.845, "note_off_time": 23.608}, {"pitch": 42, "velocity": 80, "note_on_time": 23.608, "note_off_time": 24.372}, {"pitch": 42, "velocity": 80, "note_on_time": 24.373, "note_off_time": 25.138}, {"pitch": 60, "velocity": 80, "note_on_time": 25.138, "note_off_time": 25.898}, {"pitch": 42, "velocity": 80, "note_on_time": 25.138, "note_off_time": 25.899}, {"pitch": 60, "velocity": 80, "note_on_time": 25.898, "note_off_time": 26.663}, {"pitch": 42, "velocity": 80, "note_on_time": 25.899, "note_off_time": 26.663}, {"pitch": 60, "velocity": 80, "note_on_time": 26.663, "note_off_time": 27.427}, {"pitch": 42, "velocity": 80, "note_on_time": 26.663, "note_off_time": 27.427}]</notes><options name="Option List">((4, 4), [0.25], 3, 8, &lt;NoteRangePerHand.TWO_NOTES: 3&gt;, &lt;NoteRangePerHand.ONE_NOTE: 2&gt;, False, True, False, '80')</options></target_notes><trials><trial trial_no="1" timestamp="2022_11_21-17_40_42"><notes name="Played Notes">[{"pitch": 62, "velocity": 71, "note_on_time": 2.987, "note_off_time": 3.507}, {"pitch": 60, "velocity": 59, "note_on_time": 6.097, "note_off_time": 6.519}, {"pitch": 62, "velocity": 77, "note_on_time": 18.248, "note_off_time": 18.605}, {"pitch": 60, "velocity": 81, "note_on_time": 21.294, "note_off_time": 21.598}, {"pitch": 62, "velocity": 74, "note_on_time": 22.055, "note_off_time": 22.334}, {"pitch": 62, "velocity": 63, "note_on_time": 22.816, "note_off_time": 23.039}, {"pitch": 62, "velocity": 69, "note_on_time": 23.585, "note_off_time": 23.853}, {"pitch": 60, "velocity": 85, "note_on_time": 24.358, "note_off_time": 24.645}]</notes><guidance name="Guidance Mode">None</guidance><error name="Error value">1.4926875</error></trial></trials></MIDI>