<MIDI midiNo="2022_11_13-12_37_30"><target_notes><notes name="Note List">[{"pitch": 42, "velocity": 80, "note_on_time": 0.003, "note_off_time": 0.246}, {"pitch": 42, "velocity": 80, "note_on_time": 0.246, "note_off_time": 0.481}, {"pitch": 42, "velocity": 80, "note_on_time": 0.481, "note_off_time": 0.714}, {"pitch": 42, "velocity": 80, "note_on_time": 0.714, "note_off_time": 0.949}, {"pitch": 65, "velocity": 80, "note_on_time": 0.949, "note_off_time": 1.184}, {"pitch": 42, "velocity": 80, "note_on_time": 0.95, "note_off_time": 1.184}, {"pitch": 65, "velocity": 80, "note_on_time": 1.184, "note_off_time": 1.417}, {"pitch": 42, "velocity": 80, "note_on_time": 1.185, "note_off_time": 1.417}, {"pitch": 64, "velocity": 80, "note_on_time": 1.417, "note_off_time": 1.65}, {"pitch": 42, "velocity": 80, "note_on_time": 1.418, "note_off_time": 1.651}, {"pitch": 64, "velocity": 80, "note_on_time": 1.65, "note_off_time": 1.883}, {"pitch": 42, "velocity": 80, "note_on_time": 1.651, "note_off_time": 1.884}, {"pitch": 62, "velocity": 80, "note_on_time": 1.883, "note_off_time": 2.115}, {"pitch": 42, "velocity": 80, "note_on_time": 1.884, "note_off_time": 2.115}, {"pitch": 42, "velocity": 80, "note_on_time": 2.115, "note_off_time": 2.348}, {"pitch": 42, "velocity": 80, "note_on_time": 2.348, "note_off_time": 2.582}, {"pitch": 42, "velocity": 80, "note_on_time": 2.583, "note_off_time": 2.816}, {"pitch": 42, "velocity": 80, "note_on_time": 2.816, "note_off_time": 3.051}, {"pitch": 64, "velocity": 80, "note_on_time": 2.816, "note_off_time": 3.286}, {"pitch": 42, "velocity": 80, "note_on_time": 3.051, "note_off_time": 3.287}, {"pitch": 65, "velocity": 80, "note_on_time": 3.286, "note_off_time": 3.522}, {"pitch": 42, "velocity": 80, "note_on_time": 3.287, "note_off_time": 3.522}, {"pitch": 62, "velocity": 80, "note_on_time": 3.522, "note_off_time": 3.756}, {"pitch": 42, "velocity": 80, "note_on_time": 3.522, "note_off_time": 3.757}, {"pitch": 42, "velocity": 80, "note_on_time": 3.757, "note_off_time": 3.99}, {"pitch": 62, "velocity": 80, "note_on_time": 3.756, "note_off_time": 4.226}, {"pitch": 42, "velocity": 80, "note_on_time": 3.99, "note_off_time": 4.227}, {"pitch": 42, "velocity": 80, "note_on_time": 4.227, "note_off_time": 4.46}, {"pitch": 64, "velocity": 80, "note_on_time": 4.226, "note_off_time": 4.694}, {"pitch": 42, "velocity": 80, "note_on_time": 4.46, "note_off_time": 4.694}, {"pitch": 64, "velocity": 80, "note_on_time": 4.694, "note_off_time": 4.929}, {"pitch": 42, "velocity": 80, "note_on_time": 4.695, "note_off_time": 4.93}, {"pitch": 67, "velocity": 80, "note_on_time": 4.929, "note_off_time": 5.163}, {"pitch": 42, "velocity": 80, "note_on_time": 4.93, "note_off_time": 5.163}, {"pitch": 62, "velocity": 80, "note_on_time": 5.163, "note_off_time": 5.398}, {"pitch": 42, "velocity": 80, "note_on_time": 5.163, "note_off_time": 5.398}, {"pitch": 64, "velocity": 80, "note_on_time": 5.398, "note_off_time": 5.63}, {"pitch": 42, "velocity": 80, "note_on_time": 5.399, "note_off_time": 5.63}, {"pitch": 67, "velocity": 80, "note_on_time": 5.63, "note_off_time": 5.864}, {"pitch": 42, "velocity": 80, "note_on_time": 5.631, "note_off_time": 5.864}, {"pitch": 60, "velocity": 80, "note_on_time": 5.864, "note_off_time": 6.101}, {"pitch": 42, "velocity": 80, "note_on_time": 5.864, "note_off_time": 6.101}, {"pitch": 62, "velocity": 80, "note_on_time": 6.101, "note_off_time": 6.335}, {"pitch": 42, "velocity": 80, "note_on_time": 6.101, "note_off_time": 6.335}, {"pitch": 62, "velocity": 80, "note_on_time": 6.335, "note_off_time": 6.569}, {"pitch": 42, "velocity": 80, "note_on_time": 6.336, "note_off_time": 6.569}, {"pitch": 42, "velocity": 80, "note_on_time": 6.57, "note_off_time": 6.801}, {"pitch": 64, "velocity": 80, "note_on_time": 6.569, "note_off_time": 7.034}, {"pitch": 42, "velocity": 80, "note_on_time": 6.802, "note_off_time": 7.034}, {"pitch": 42, "velocity": 80, "note_on_time": 7.035, "note_off_time": 7.268}, {"pitch": 42, "velocity": 80, "note_on_time": 7.268, "note_off_time": 7.503}, {"pitch": 42, "velocity": 80, "note_on_time": 7.503, "note_off_time": 7.736}, {"pitch": 64, "velocity": 80, "note_on_time": 7.736, "note_off_time": 7.971}, {"pitch": 42, "velocity": 80, "note_on_time": 7.737, "note_off_time": 7.971}, {"pitch": 64, "velocity": 80, "note_on_time": 7.971, "note_off_time": 8.205}, {"pitch": 42, "velocity": 80, "note_on_time": 7.971, "note_off_time": 8.206}, {"pitch": 64, "velocity": 80, "note_on_time": 8.205, "note_off_time": 8.441}, {"pitch": 42, "velocity": 80, "note_on_time": 8.206, "note_off_time": 8.441}]</notes><options name="Option List">((4, 4), [0.5, 0.25], 3, 8, &lt;NoteRangePerHand.C_TO_G: 6&gt;, &lt;NoteRangePerHand.ONE_NOTE: 2&gt;, False, True, False, '265')</options></target_notes><trials><trial trial_no="1" timestamp="2022_11_13-12_37_20"><notes name="Played Notes">[{"pitch": 65, "velocity": 81, "note_on_time": 0.96, "note_off_time": 1.081}, {"pitch": 65, "velocity": 71, "note_on_time": 1.193, "note_off_time": 1.47}, {"pitch": 64, "velocity": 77, "note_on_time": 1.425, "note_off_time": 1.523}, {"pitch": 64, "velocity": 81, "note_on_time": 1.653, "note_off_time": 1.755}, {"pitch": 62, "velocity": 80, "note_on_time": 1.904, "note_off_time": 2.068}, {"pitch": 64, "velocity": 90, "note_on_time": 2.827, "note_off_time": 3.293}, {"pitch": 65, "velocity": 90, "note_on_time": 3.291, "note_off_time": 3.55}, {"pitch": 62, "velocity": 78, "note_on_time": 3.537, "note_off_time": 3.719}, {"pitch": 62, "velocity": 96, "note_on_time": 3.807, "note_off_time": 4.22}, {"pitch": 64, "velocity": 92, "note_on_time": 4.228, "note_off_time": 4.562}, {"pitch": 64, "velocity": 93, "note_on_time": 4.7, "note_off_time": 4.929}, {"pitch": 67, "velocity": 54, "note_on_time": 4.948, "note_off_time": 5.174}, {"pitch": 62, "velocity": 70, "note_on_time": 5.188, "note_off_time": 5.439}, {"pitch": 64, "velocity": 79, "note_on_time": 5.407, "note_off_time": 5.597}, {"pitch": 67, "velocity": 81, "note_on_time": 5.635, "note_off_time": 5.825}, {"pitch": 60, "velocity": 79, "note_on_time": 5.868, "note_off_time": 6.141}, {"pitch": 62, "velocity": 85, "note_on_time": 6.105, "note_off_time": 6.378}, {"pitch": 64, "velocity": 92, "note_on_time": 6.338, "note_off_time": 6.537}, {"pitch": 64, "velocity": 84, "note_on_time": 7.695, "note_off_time": 7.81}, {"pitch": 64, "velocity": 76, "note_on_time": 7.937, "note_off_time": 8.035}, {"pitch": 64, "velocity": 95, "note_on_time": 8.181, "note_off_time": 8.315}]</notes><guidance name="Guidance Mode">None</guidance><error name="Error value">0.14394447368421037</error></trial><trial trial_no="2" timestamp="2022_11_13-12_37_41"><notes name="Played Notes">[{"pitch": 65, "velocity": 84, "note_on_time": 0.953, "note_off_time": 1.071}, {"pitch": 65, "velocity": 76, "note_on_time": 1.195, "note_off_time": 1.474}, {"pitch": 64, "velocity": 83, "note_on_time": 1.43, "note_off_time": 1.54}, {"pitch": 64, "velocity": 78, "note_on_time": 1.664, "note_off_time": 1.756}, {"pitch": 62, "velocity": 86, "note_on_time": 1.923, "note_off_time": 2.19}, {"pitch": 64, "velocity": 93, "note_on_time": 3.091, "note_off_time": 3.528}, {"pitch": 65, "velocity": 88, "note_on_time": 3.562, "note_off_time": 3.706}, {"pitch": 62, "velocity": 90, "note_on_time": 3.808, "note_off_time": 3.956}, {"pitch": 62, "velocity": 101, "note_on_time": 4.036, "note_off_time": 4.204}, {"pitch": 64, "velocity": 98, "note_on_time": 4.268, "note_off_time": 4.642}, {"pitch": 64, "velocity": 89, "note_on_time": 4.735, "note_off_time": 4.953}, {"pitch": 67, "velocity": 79, "note_on_time": 4.968, "note_off_time": 5.209}, {"pitch": 62, "velocity": 73, "note_on_time": 5.2, "note_off_time": 5.47}, {"pitch": 64, "velocity": 90, "note_on_time": 5.418, "note_off_time": 5.665}, {"pitch": 67, "velocity": 91, "note_on_time": 5.665, "note_off_time": 5.975}, {"pitch": 60, "velocity": 96, "note_on_time": 6.103, "note_off_time": 6.374}, {"pitch": 62, "velocity": 85, "note_on_time": 6.345, "note_off_time": 6.623}, {"pitch": 64, "velocity": 93, "note_on_time": 6.578, "note_off_time": 6.829}, {"pitch": 64, "velocity": 86, "note_on_time": 7.728, "note_off_time": 7.836}, {"pitch": 64, "velocity": 92, "note_on_time": 7.974, "note_off_time": 8.067}, {"pitch": 64, "velocity": 95, "note_on_time": 8.218, "note_off_time": 8.376}]</notes><guidance name="Guidance Mode">None</guidance><error name="Error value">0.11272999999999996</error></trial><trial trial_no="3" timestamp="2022_11_13-12_38_01"><notes name="Played Notes">[{"pitch": 65, "velocity": 76, "note_on_time": 0.941, "note_off_time": 1.058}, {"pitch": 65, "velocity": 75, "note_on_time": 1.172, "note_off_time": 1.443}, {"pitch": 64, "velocity": 83, "note_on_time": 1.406, "note_off_time": 1.517}, {"pitch": 64, "velocity": 76, "note_on_time": 1.634, "note_off_time": 1.744}, {"pitch": 62, "velocity": 79, "note_on_time": 1.893, "note_off_time": 2.073}, {"pitch": 64, "velocity": 91, "note_on_time": 2.824, "note_off_time": 3.305}, {"pitch": 65, "velocity": 95, "note_on_time": 3.3, "note_off_time": 3.552}, {"pitch": 62, "velocity": 74, "note_on_time": 3.544, "note_off_time": 3.727}, {"pitch": 62, "velocity": 94, "note_on_time": 3.823, "note_off_time": 4.177}, {"pitch": 64, "velocity": 92, "note_on_time": 4.249, "note_off_time": 4.548}, {"pitch": 64, "velocity": 91, "note_on_time": 4.692, "note_off_time": 4.928}, {"pitch": 67, "velocity": 69, "note_on_time": 4.935, "note_off_time": 5.178}, {"pitch": 62, "velocity": 74, "note_on_time": 5.173, "note_off_time": 5.431}, {"pitch": 64, "velocity": 75, "note_on_time": 5.39, "note_off_time": 5.664}, {"pitch": 67, "velocity": 85, "note_on_time": 5.638, "note_off_time": 5.825}, {"pitch": 60, "velocity": 81, "note_on_time": 5.839, "note_off_time": 6.11}, {"pitch": 62, "velocity": 88, "note_on_time": 6.087, "note_off_time": 6.36}, {"pitch": 64, "velocity": 92, "note_on_time": 6.314, "note_off_time": 6.755}, {"pitch": 64, "velocity": 87, "note_on_time": 7.714, "note_off_time": 7.818}, {"pitch": 64, "velocity": 93, "note_on_time": 7.959, "note_off_time": 8.052}, {"pitch": 64, "velocity": 94, "note_on_time": 8.208, "note_off_time": 8.353}]</notes><guidance name="Guidance Mode">None</guidance><error name="Error value">0.09701894736842097</error></trial></trials></MIDI>