<MIDI midiNo="2022_11_03-11_00_07"><target_notes><notes name="Note List">[{"pitch": 42, "velocity": 80, "note_on_time": 0.004, "note_off_time": 0.22}, {"pitch": 42, "velocity": 80, "note_on_time": 0.22, "note_off_time": 0.438}, {"pitch": 42, "velocity": 80, "note_on_time": 0.438, "note_off_time": 0.656}, {"pitch": 42, "velocity": 80, "note_on_time": 0.656, "note_off_time": 0.875}, {"pitch": 62, "velocity": 80, "note_on_time": 0.875, "note_off_time": 1.094}, {"pitch": 42, "velocity": 80, "note_on_time": 0.875, "note_off_time": 1.094}, {"pitch": 65, "velocity": 80, "note_on_time": 1.094, "note_off_time": 1.31}, {"pitch": 42, "velocity": 80, "note_on_time": 1.094, "note_off_time": 1.31}, {"pitch": 60, "velocity": 80, "note_on_time": 1.31, "note_off_time": 1.529}, {"pitch": 42, "velocity": 80, "note_on_time": 1.31, "note_off_time": 1.529}, {"pitch": 64, "velocity": 80, "note_on_time": 1.529, "note_off_time": 1.746}, {"pitch": 42, "velocity": 80, "note_on_time": 1.53, "note_off_time": 1.746}, {"pitch": 64, "velocity": 80, "note_on_time": 1.746, "note_off_time": 1.963}, {"pitch": 42, "velocity": 80, "note_on_time": 1.746, "note_off_time": 1.963}, {"pitch": 65, "velocity": 80, "note_on_time": 1.963, "note_off_time": 2.18}, {"pitch": 42, "velocity": 80, "note_on_time": 1.964, "note_off_time": 2.18}, {"pitch": 67, "velocity": 80, "note_on_time": 2.18, "note_off_time": 2.398}, {"pitch": 42, "velocity": 80, "note_on_time": 2.18, "note_off_time": 2.398}, {"pitch": 62, "velocity": 80, "note_on_time": 2.398, "note_off_time": 2.617}, {"pitch": 42, "velocity": 80, "note_on_time": 2.398, "note_off_time": 2.617}, {"pitch": 62, "velocity": 80, "note_on_time": 2.617, "note_off_time": 2.835}, {"pitch": 42, "velocity": 80, "note_on_time": 2.617, "note_off_time": 2.835}, {"pitch": 64, "velocity": 80, "note_on_time": 2.835, "note_off_time": 3.053}, {"pitch": 42, "velocity": 80, "note_on_time": 2.835, "note_off_time": 3.053}, {"pitch": 64, "velocity": 80, "note_on_time": 3.053, "note_off_time": 3.27}, {"pitch": 42, "velocity": 80, "note_on_time": 3.053, "note_off_time": 3.27}, {"pitch": 64, "velocity": 80, "note_on_time": 3.27, "note_off_time": 3.489}, {"pitch": 42, "velocity": 80, "note_on_time": 3.27, "note_off_time": 3.489}, {"pitch": 67, "velocity": 80, "note_on_time": 3.489, "note_off_time": 3.705}, {"pitch": 42, "velocity": 80, "note_on_time": 3.489, "note_off_time": 3.705}, {"pitch": 62, "velocity": 80, "note_on_time": 3.705, "note_off_time": 3.922}, {"pitch": 42, "velocity": 80, "note_on_time": 3.705, "note_off_time": 3.922}, {"pitch": 42, "velocity": 80, "note_on_time": 3.922, "note_off_time": 4.139}, {"pitch": 60, "velocity": 80, "note_on_time": 3.922, "note_off_time": 4.355}, {"pitch": 42, "velocity": 80, "note_on_time": 4.139, "note_off_time": 4.355}, {"pitch": 67, "velocity": 80, "note_on_time": 4.355, "note_off_time": 4.577}, {"pitch": 42, "velocity": 80, "note_on_time": 4.355, "note_off_time": 4.577}, {"pitch": 67, "velocity": 80, "note_on_time": 4.577, "note_off_time": 4.795}, {"pitch": 42, "velocity": 80, "note_on_time": 4.577, "note_off_time": 4.795}, {"pitch": 65, "velocity": 80, "note_on_time": 4.795, "note_off_time": 5.014}, {"pitch": 42, "velocity": 80, "note_on_time": 4.796, "note_off_time": 5.014}, {"pitch": 64, "velocity": 80, "note_on_time": 5.014, "note_off_time": 5.234}, {"pitch": 42, "velocity": 80, "note_on_time": 5.014, "note_off_time": 5.234}, {"pitch": 60, "velocity": 80, "note_on_time": 5.234, "note_off_time": 5.449}, {"pitch": 42, "velocity": 80, "note_on_time": 5.234, "note_off_time": 5.449}, {"pitch": 64, "velocity": 80, "note_on_time": 5.449, "note_off_time": 5.667}, {"pitch": 42, "velocity": 80, "note_on_time": 5.45, "note_off_time": 5.667}, {"pitch": 67, "velocity": 80, "note_on_time": 5.667, "note_off_time": 5.883}, {"pitch": 42, "velocity": 80, "note_on_time": 5.667, "note_off_time": 5.883}, {"pitch": 62, "velocity": 80, "note_on_time": 5.883, "note_off_time": 6.098}, {"pitch": 42, "velocity": 80, "note_on_time": 5.883, "note_off_time": 6.098}, {"pitch": 42, "velocity": 80, "note_on_time": 6.098, "note_off_time": 6.316}, {"pitch": 64, "velocity": 80, "note_on_time": 6.098, "note_off_time": 6.532}, {"pitch": 42, "velocity": 80, "note_on_time": 6.317, "note_off_time": 6.532}, {"pitch": 42, "velocity": 80, "note_on_time": 6.532, "note_off_time": 6.75}, {"pitch": 60, "velocity": 80, "note_on_time": 6.532, "note_off_time": 6.967}, {"pitch": 42, "velocity": 80, "note_on_time": 6.75, "note_off_time": 6.967}, {"pitch": 42, "velocity": 80, "note_on_time": 6.967, "note_off_time": 7.185}, {"pitch": 60, "velocity": 80, "note_on_time": 7.185, "note_off_time": 7.405}, {"pitch": 42, "velocity": 80, "note_on_time": 7.185, "note_off_time": 7.405}, {"pitch": 60, "velocity": 80, "note_on_time": 7.405, "note_off_time": 7.623}, {"pitch": 42, "velocity": 80, "note_on_time": 7.406, "note_off_time": 7.623}, {"pitch": 60, "velocity": 80, "note_on_time": 7.623, "note_off_time": 7.842}, {"pitch": 42, "velocity": 80, "note_on_time": 7.623, "note_off_time": 7.842}]</notes><options name="Option List">((4, 4), [0.5, 0.25], 3, 8, &lt;NoteRangePerHand.C_TO_G: 6&gt;, &lt;NoteRangePerHand.ONE_NOTE: 2&gt;, False, True, False, '281')</options></target_notes><trials><trial trial_no="1" timestamp="2022_11_03-10_59_57"><notes name="Played Notes">[{"pitch": 62, "velocity": 69, "note_on_time": 0.857, "note_off_time": 1.109}, {"pitch": 65, "velocity": 85, "note_on_time": 1.118, "note_off_time": 1.33}, {"pitch": 60, "velocity": 70, "note_on_time": 1.345, "note_off_time": 1.464}, {"pitch": 60, "velocity": 19, "note_on_time": 1.638, "note_off_time": 1.713}, {"pitch": 64, "velocity": 71, "note_on_time": 1.786, "note_off_time": 1.914}, {"pitch": 64, "velocity": 56, "note_on_time": 2.034, "note_off_time": 2.241}, {"pitch": 65, "velocity": 58, "note_on_time": 2.254, "note_off_time": 2.478}, {"pitch": 67, "velocity": 53, "note_on_time": 2.512, "note_off_time": 2.648}, {"pitch": 62, "velocity": 74, "note_on_time": 2.749, "note_off_time": 2.851}, {"pitch": 62, "velocity": 73, "note_on_time": 3.012, "note_off_time": 3.088}, {"pitch": 64, "velocity": 78, "note_on_time": 3.262, "note_off_time": 3.354}, {"pitch": 64, "velocity": 69, "note_on_time": 3.52, "note_off_time": 3.599}, {"pitch": 64, "velocity": 83, "note_on_time": 3.764, "note_off_time": 4.002}, {"pitch": 67, "velocity": 67, "note_on_time": 4.023, "note_off_time": 4.219}, {"pitch": 64, "velocity": 59, "note_on_time": 4.246, "note_off_time": 4.391}, {"pitch": 62, "velocity": 51, "note_on_time": 4.453, "note_off_time": 4.704}, {"pitch": 60, "velocity": 70, "note_on_time": 4.729, "note_off_time": 5.215}, {"pitch": 67, "velocity": 65, "note_on_time": 5.269, "note_off_time": 5.335}, {"pitch": 67, "velocity": 70, "note_on_time": 5.476, "note_off_time": 5.664}, {"pitch": 65, "velocity": 73, "note_on_time": 5.713, "note_off_time": 5.974}, {"pitch": 64, "velocity": 67, "note_on_time": 5.976, "note_off_time": 6.2}, {"pitch": 60, "velocity": 60, "note_on_time": 6.245, "note_off_time": 6.462}, {"pitch": 64, "velocity": 65, "note_on_time": 6.483, "note_off_time": 6.682}, {"pitch": 67, "velocity": 63, "note_on_time": 6.736, "note_off_time": 7.005}, {"pitch": 62, "velocity": 59, "note_on_time": 7.034, "note_off_time": 7.146}, {"pitch": 64, "velocity": 46, "note_on_time": 7.283, "note_off_time": 7.679}]</notes><guidance name="Guidance Mode">None</guidance><error name="Error value">0.97697356</error></trial><trial trial_no="2" timestamp="2022_11_03-11_00_57"><notes name="Played Notes">[{"pitch": 62, "velocity": 61, "note_on_time": 0.938, "note_off_time": 1.157}, {"pitch": 65, "velocity": 78, "note_on_time": 1.169, "note_off_time": 1.354}, {"pitch": 60, "velocity": 68, "note_on_time": 1.398, "note_off_time": 1.6}, {"pitch": 64, "velocity": 61, "note_on_time": 1.644, "note_off_time": 1.72}, {"pitch": 65, "velocity": 67, "note_on_time": 1.915, "note_off_time": 2.061}, {"pitch": 67, "velocity": 71, "note_on_time": 2.18, "note_off_time": 2.303}, {"pitch": 62, "velocity": 60, "note_on_time": 2.454, "note_off_time": 2.588}, {"pitch": 62, "velocity": 59, "note_on_time": 2.716, "note_off_time": 2.775}, {"pitch": 64, "velocity": 69, "note_on_time": 2.934, "note_off_time": 3.027}, {"pitch": 64, "velocity": 78, "note_on_time": 3.192, "note_off_time": 3.294}, {"pitch": 64, "velocity": 68, "note_on_time": 3.439, "note_off_time": 3.675}, {"pitch": 67, "velocity": 74, "note_on_time": 3.679, "note_off_time": 3.936}, {"pitch": 62, "velocity": 54, "note_on_time": 3.935, "note_off_time": 4.162}, {"pitch": 60, "velocity": 72, "note_on_time": 4.174, "note_off_time": 4.735}, {"pitch": 67, "velocity": 69, "note_on_time": 4.722, "note_off_time": 4.814}, {"pitch": 67, "velocity": 72, "note_on_time": 4.974, "note_off_time": 5.289}, {"pitch": 65, "velocity": 65, "note_on_time": 5.232, "note_off_time": 5.483}, {"pitch": 64, "velocity": 63, "note_on_time": 5.463, "note_off_time": 5.692}, {"pitch": 60, "velocity": 54, "note_on_time": 5.732, "note_off_time": 5.89}, {"pitch": 64, "velocity": 64, "note_on_time": 5.951, "note_off_time": 6.125}, {"pitch": 67, "velocity": 57, "note_on_time": 6.214, "note_off_time": 6.417}, {"pitch": 62, "velocity": 70, "note_on_time": 6.44, "note_off_time": 6.656}, {"pitch": 64, "velocity": 78, "note_on_time": 6.678, "note_off_time": 7.107}, {"pitch": 60, "velocity": 75, "note_on_time": 7.138, "note_off_time": 7.531}, {"pitch": 60, "velocity": 76, "note_on_time": 7.654, "note_off_time": 7.742}]</notes><guidance name="Guidance Mode">None</guidance><error name="Error value">0.19712251999999988</error></trial></trials></MIDI>