<MIDI midiNo="2022_09_29-12_25_36"><target_notes><notes name="Note List">[{"pitch": 42, "velocity": 80, "note_on_time": 0.005, "note_off_time": 0.234}, {"pitch": 42, "velocity": 80, "note_on_time": 0.234, "note_off_time": 0.451}, {"pitch": 42, "velocity": 80, "note_on_time": 0.451, "note_off_time": 0.67}, {"pitch": 42, "velocity": 80, "note_on_time": 0.67, "note_off_time": 0.888}, {"pitch": 64, "velocity": 80, "note_on_time": 0.888, "note_off_time": 1.104}, {"pitch": 42, "velocity": 80, "note_on_time": 0.888, "note_off_time": 1.104}, {"pitch": 62, "velocity": 80, "note_on_time": 1.104, "note_off_time": 1.324}, {"pitch": 42, "velocity": 80, "note_on_time": 1.104, "note_off_time": 1.324}, {"pitch": 64, "velocity": 80, "note_on_time": 1.324, "note_off_time": 1.54}, {"pitch": 42, "velocity": 80, "note_on_time": 1.324, "note_off_time": 1.54}, {"pitch": 62, "velocity": 80, "note_on_time": 1.54, "note_off_time": 1.756}, {"pitch": 42, "velocity": 80, "note_on_time": 1.54, "note_off_time": 1.756}, {"pitch": 64, "velocity": 80, "note_on_time": 1.756, "note_off_time": 1.974}, {"pitch": 42, "velocity": 80, "note_on_time": 1.756, "note_off_time": 1.974}, {"pitch": 64, "velocity": 80, "note_on_time": 1.974, "note_off_time": 2.192}, {"pitch": 42, "velocity": 80, "note_on_time": 1.974, "note_off_time": 2.192}, {"pitch": 64, "velocity": 80, "note_on_time": 2.192, "note_off_time": 2.413}, {"pitch": 42, "velocity": 80, "note_on_time": 2.193, "note_off_time": 2.413}, {"pitch": 62, "velocity": 80, "note_on_time": 2.413, "note_off_time": 2.631}, {"pitch": 42, "velocity": 80, "note_on_time": 2.413, "note_off_time": 2.631}, {"pitch": 62, "velocity": 80, "note_on_time": 2.631, "note_off_time": 2.85}, {"pitch": 42, "velocity": 80, "note_on_time": 2.631, "note_off_time": 2.851}, {"pitch": 62, "velocity": 80, "note_on_time": 2.85, "note_off_time": 3.069}, {"pitch": 42, "velocity": 80, "note_on_time": 2.851, "note_off_time": 3.069}, {"pitch": 64, "velocity": 80, "note_on_time": 3.069, "note_off_time": 3.286}, {"pitch": 42, "velocity": 80, "note_on_time": 3.069, "note_off_time": 3.286}, {"pitch": 64, "velocity": 80, "note_on_time": 3.286, "note_off_time": 3.503}, {"pitch": 42, "velocity": 80, "note_on_time": 3.287, "note_off_time": 3.503}, {"pitch": 62, "velocity": 80, "note_on_time": 3.503, "note_off_time": 3.72}, {"pitch": 42, "velocity": 80, "note_on_time": 3.503, "note_off_time": 3.72}, {"pitch": 60, "velocity": 80, "note_on_time": 3.72, "note_off_time": 3.938}, {"pitch": 42, "velocity": 80, "note_on_time": 3.72, "note_off_time": 3.938}, {"pitch": 62, "velocity": 80, "note_on_time": 3.938, "note_off_time": 4.158}, {"pitch": 42, "velocity": 80, "note_on_time": 3.938, "note_off_time": 4.158}, {"pitch": 62, "velocity": 80, "note_on_time": 4.158, "note_off_time": 4.375}, {"pitch": 42, "velocity": 80, "note_on_time": 4.158, "note_off_time": 4.375}, {"pitch": 60, "velocity": 80, "note_on_time": 4.375, "note_off_time": 4.594}, {"pitch": 42, "velocity": 80, "note_on_time": 4.375, "note_off_time": 4.594}, {"pitch": 60, "velocity": 80, "note_on_time": 4.594, "note_off_time": 4.812}, {"pitch": 42, "velocity": 80, "note_on_time": 4.594, "note_off_time": 4.812}, {"pitch": 60, "velocity": 80, "note_on_time": 4.812, "note_off_time": 5.029}, {"pitch": 42, "velocity": 80, "note_on_time": 4.812, "note_off_time": 5.029}, {"pitch": 62, "velocity": 80, "note_on_time": 5.029, "note_off_time": 5.246}, {"pitch": 42, "velocity": 80, "note_on_time": 5.029, "note_off_time": 5.246}, {"pitch": 42, "velocity": 80, "note_on_time": 5.246, "note_off_time": 5.466}, {"pitch": 64, "velocity": 80, "note_on_time": 5.246, "note_off_time": 5.685}, {"pitch": 42, "velocity": 80, "note_on_time": 5.466, "note_off_time": 5.685}, {"pitch": 60, "velocity": 80, "note_on_time": 5.685, "note_off_time": 5.902}, {"pitch": 42, "velocity": 80, "note_on_time": 5.685, "note_off_time": 5.902}, {"pitch": 64, "velocity": 80, "note_on_time": 5.902, "note_off_time": 6.119}, {"pitch": 42, "velocity": 80, "note_on_time": 5.902, "note_off_time": 6.119}, {"pitch": 42, "velocity": 80, "note_on_time": 6.119, "note_off_time": 6.337}, {"pitch": 60, "velocity": 80, "note_on_time": 6.119, "note_off_time": 6.554}, {"pitch": 42, "velocity": 80, "note_on_time": 6.337, "note_off_time": 6.554}, {"pitch": 42, "velocity": 80, "note_on_time": 6.554, "note_off_time": 6.772}, {"pitch": 62, "velocity": 80, "note_on_time": 6.772, "note_off_time": 6.99}, {"pitch": 42, "velocity": 80, "note_on_time": 6.772, "note_off_time": 6.99}, {"pitch": 42, "velocity": 80, "note_on_time": 6.99, "note_off_time": 7.209}, {"pitch": 62, "velocity": 80, "note_on_time": 7.209, "note_off_time": 7.428}, {"pitch": 42, "velocity": 80, "note_on_time": 7.209, "note_off_time": 7.428}, {"pitch": 62, "velocity": 80, "note_on_time": 7.428, "note_off_time": 7.645}, {"pitch": 42, "velocity": 80, "note_on_time": 7.428, "note_off_time": 7.645}, {"pitch": 62, "velocity": 80, "note_on_time": 7.645, "note_off_time": 7.864}, {"pitch": 42, "velocity": 80, "note_on_time": 7.645, "note_off_time": 7.864}]</notes><options name="Option List">((4, 4), [0.5, 0.25], 3, 8, &lt;NoteRangePerHand.THREE_NOTES: 4&gt;, &lt;NoteRangePerHand.ONE_NOTE: 2&gt;, False, True, False, '280')</options></target_notes><trials><trial trial_no="1" timestamp="2022_09_29-12_25_26"><notes name="Played Notes">[{"pitch": 64, "velocity": 84, "note_on_time": 0.884, "note_off_time": 1.139}, {"pitch": 62, "velocity": 79, "note_on_time": 1.129, "note_off_time": 1.359}, {"pitch": 64, "velocity": 84, "note_on_time": 1.343, "note_off_time": 1.568}, {"pitch": 62, "velocity": 88, "note_on_time": 1.56, "note_off_time": 1.715}, {"pitch": 64, "velocity": 79, "note_on_time": 1.764, "note_off_time": 1.887}, {"pitch": 64, "velocity": 82, "note_on_time": 1.968, "note_off_time": 2.079}, {"pitch": 64, "velocity": 81, "note_on_time": 2.167, "note_off_time": 2.324}, {"pitch": 62, "velocity": 85, "note_on_time": 2.387, "note_off_time": 2.507}, {"pitch": 62, "velocity": 76, "note_on_time": 2.614, "note_off_time": 2.731}, {"pitch": 62, "velocity": 82, "note_on_time": 2.853, "note_off_time": 2.962}, {"pitch": 64, "velocity": 87, "note_on_time": 3.069, "note_off_time": 3.172}, {"pitch": 64, "velocity": 80, "note_on_time": 3.27, "note_off_time": 3.404}, {"pitch": 62, "velocity": 90, "note_on_time": 3.495, "note_off_time": 3.733}, {"pitch": 60, "velocity": 82, "note_on_time": 3.729, "note_off_time": 3.834}, {"pitch": 60, "velocity": 82, "note_on_time": 3.937, "note_off_time": 4.041}, {"pitch": 62, "velocity": 88, "note_on_time": 4.138, "note_off_time": 4.255}, {"pitch": 62, "velocity": 81, "note_on_time": 4.367, "note_off_time": 4.506}, {"pitch": 60, "velocity": 87, "note_on_time": 4.592, "note_off_time": 4.696}, {"pitch": 60, "velocity": 80, "note_on_time": 4.799, "note_off_time": 4.908}, {"pitch": 60, "velocity": 84, "note_on_time": 5.016, "note_off_time": 5.125}, {"pitch": 62, "velocity": 89, "note_on_time": 5.247, "note_off_time": 5.422}, {"pitch": 64, "velocity": 86, "note_on_time": 5.454, "note_off_time": 5.76}, {"pitch": 60, "velocity": 88, "note_on_time": 5.865, "note_off_time": 5.978}, {"pitch": 64, "velocity": 86, "note_on_time": 6.078, "note_off_time": 6.397}, {"pitch": 60, "velocity": 71, "note_on_time": 6.498, "note_off_time": 6.824}, {"pitch": 60, "velocity": 89, "note_on_time": 6.981, "note_off_time": 7.08}, {"pitch": 62, "velocity": 95, "note_on_time": 7.248, "note_off_time": 7.342}, {"pitch": 62, "velocity": 74, "note_on_time": 7.449, "note_off_time": 7.568}, {"pitch": 62, "velocity": 78, "note_on_time": 7.663, "note_off_time": 7.781}]</notes><guidance name="Guidance Mode">None</guidance><error name="Error value">0.22287420000000052</error></trial><trial trial_no="2" timestamp="2022_09_29-12_25_49"><notes name="Played Notes">[{"pitch": 64, "velocity": 86, "note_on_time": 0.822, "note_off_time": 1.083}, {"pitch": 62, "velocity": 84, "note_on_time": 1.077, "note_off_time": 1.317}, {"pitch": 64, "velocity": 77, "note_on_time": 1.314, "note_off_time": 1.553}, {"pitch": 62, "velocity": 86, "note_on_time": 1.547, "note_off_time": 1.707}, {"pitch": 64, "velocity": 78, "note_on_time": 1.762, "note_off_time": 1.879}, {"pitch": 64, "velocity": 79, "note_on_time": 1.968, "note_off_time": 2.091}, {"pitch": 64, "velocity": 74, "note_on_time": 2.193, "note_off_time": 2.33}, {"pitch": 62, "velocity": 89, "note_on_time": 2.422, "note_off_time": 2.538}, {"pitch": 62, "velocity": 77, "note_on_time": 2.647, "note_off_time": 2.741}, {"pitch": 62, "velocity": 77, "note_on_time": 2.864, "note_off_time": 2.97}, {"pitch": 64, "velocity": 88, "note_on_time": 3.095, "note_off_time": 3.207}, {"pitch": 64, "velocity": 88, "note_on_time": 3.311, "note_off_time": 3.451}, {"pitch": 62, "velocity": 88, "note_on_time": 3.543, "note_off_time": 3.724}, {"pitch": 60, "velocity": 92, "note_on_time": 3.748, "note_off_time": 3.951}, {"pitch": 62, "velocity": 90, "note_on_time": 3.959, "note_off_time": 4.114}, {"pitch": 62, "velocity": 108, "note_on_time": 4.186, "note_off_time": 4.32}, {"pitch": 60, "velocity": 82, "note_on_time": 4.44, "note_off_time": 4.554}, {"pitch": 60, "velocity": 85, "note_on_time": 4.65, "note_off_time": 4.757}, {"pitch": 60, "velocity": 88, "note_on_time": 4.883, "note_off_time": 5.013}, {"pitch": 62, "velocity": 81, "note_on_time": 5.105, "note_off_time": 5.206}, {"pitch": 64, "velocity": 94, "note_on_time": 5.343, "note_off_time": 5.63}, {"pitch": 60, "velocity": 91, "note_on_time": 5.819, "note_off_time": 5.934}, {"pitch": 62, "velocity": 56, "note_on_time": 6.019, "note_off_time": 6.3}, {"pitch": 60, "velocity": 84, "note_on_time": 6.453, "note_off_time": 6.581}, {"pitch": 64, "velocity": 84, "note_on_time": 6.687, "note_off_time": 7.195}, {"pitch": 60, "velocity": 72, "note_on_time": 7.308, "note_off_time": 7.448}, {"pitch": 62, "velocity": 60, "note_on_time": 7.583, "note_off_time": 7.614}, {"pitch": 60, "velocity": 82, "note_on_time": 7.647, "note_off_time": 7.757}]</notes><guidance name="Guidance Mode">None</guidance><error name="Error value">0.21517179999999997</error></trial><trial trial_no="3" timestamp="2022_09_29-12_26_11"><notes name="Played Notes">[{"pitch": 64, "velocity": 75, "note_on_time": 0.831, "note_off_time": 1.066}, {"pitch": 62, "velocity": 69, "note_on_time": 1.039, "note_off_time": 1.284}, {"pitch": 64, "velocity": 78, "note_on_time": 1.294, "note_off_time": 1.539}, {"pitch": 62, "velocity": 81, "note_on_time": 1.532, "note_off_time": 1.691}, {"pitch": 64, "velocity": 79, "note_on_time": 1.76, "note_off_time": 1.886}, {"pitch": 64, "velocity": 77, "note_on_time": 1.988, "note_off_time": 2.102}, {"pitch": 64, "velocity": 79, "note_on_time": 2.189, "note_off_time": 2.309}, {"pitch": 62, "velocity": 80, "note_on_time": 2.406, "note_off_time": 2.524}, {"pitch": 62, "velocity": 79, "note_on_time": 2.618, "note_off_time": 2.734}, {"pitch": 62, "velocity": 77, "note_on_time": 2.839, "note_off_time": 2.945}, {"pitch": 64, "velocity": 85, "note_on_time": 3.063, "note_off_time": 3.17}, {"pitch": 64, "velocity": 82, "note_on_time": 3.265, "note_off_time": 3.396}, {"pitch": 62, "velocity": 90, "note_on_time": 3.506, "note_off_time": 3.719}, {"pitch": 60, "velocity": 93, "note_on_time": 3.728, "note_off_time": 3.855}, {"pitch": 62, "velocity": 86, "note_on_time": 3.952, "note_off_time": 4.052}, {"pitch": 62, "velocity": 82, "note_on_time": 4.157, "note_off_time": 4.259}, {"pitch": 60, "velocity": 90, "note_on_time": 4.372, "note_off_time": 4.465}, {"pitch": 60, "velocity": 76, "note_on_time": 4.569, "note_off_time": 4.682}, {"pitch": 60, "velocity": 92, "note_on_time": 4.83, "note_off_time": 4.939}, {"pitch": 62, "velocity": 90, "note_on_time": 5.043, "note_off_time": 5.132}, {"pitch": 64, "velocity": 91, "note_on_time": 5.237, "note_off_time": 5.619}, {"pitch": 60, "velocity": 84, "note_on_time": 5.682, "note_off_time": 5.826}, {"pitch": 64, "velocity": 82, "note_on_time": 5.907, "note_off_time": 6.271}, {"pitch": 60, "velocity": 43, "note_on_time": 6.361, "note_off_time": 6.47}, {"pitch": 64, "velocity": 95, "note_on_time": 6.585, "note_off_time": 7.218}, {"pitch": 60, "velocity": 62, "note_on_time": 7.43, "note_off_time": 7.506}, {"pitch": 60, "velocity": 85, "note_on_time": 7.6, "note_off_time": 7.706}]</notes><guidance name="Guidance Mode">None</guidance><error name="Error value">0.20916580000000004</error></trial><trial trial_no="4" timestamp="2022_09_29-12_26_33"><notes name="Played Notes">[{"pitch": 64, "velocity": 78, "note_on_time": 0.889, "note_off_time": 1.109}, {"pitch": 62, "velocity": 69, "note_on_time": 1.112, "note_off_time": 1.35}, {"pitch": 64, "velocity": 78, "note_on_time": 1.344, "note_off_time": 1.584}, {"pitch": 62, "velocity": 89, "note_on_time": 1.582, "note_off_time": 1.731}, {"pitch": 64, "velocity": 80, "note_on_time": 1.796, "note_off_time": 1.913}, {"pitch": 64, "velocity": 79, "note_on_time": 2.006, "note_off_time": 2.138}, {"pitch": 64, "velocity": 78, "note_on_time": 2.221, "note_off_time": 2.354}, {"pitch": 62, "velocity": 85, "note_on_time": 2.435, "note_off_time": 2.542}, {"pitch": 62, "velocity": 77, "note_on_time": 2.643, "note_off_time": 2.763}, {"pitch": 62, "velocity": 80, "note_on_time": 2.866, "note_off_time": 2.977}, {"pitch": 64, "velocity": 93, "note_on_time": 3.092, "note_off_time": 3.19}, {"pitch": 64, "velocity": 78, "note_on_time": 3.294, "note_off_time": 3.422}, {"pitch": 62, "velocity": 88, "note_on_time": 3.535, "note_off_time": 3.748}, {"pitch": 60, "velocity": 85, "note_on_time": 3.756, "note_off_time": 3.887}, {"pitch": 62, "velocity": 87, "note_on_time": 3.968, "note_off_time": 4.069}, {"pitch": 62, "velocity": 83, "note_on_time": 4.179, "note_off_time": 4.292}, {"pitch": 60, "velocity": 93, "note_on_time": 4.389, "note_off_time": 4.491}, {"pitch": 60, "velocity": 81, "note_on_time": 4.6, "note_off_time": 4.714}, {"pitch": 60, "velocity": 89, "note_on_time": 4.834, "note_off_time": 4.943}, {"pitch": 62, "velocity": 89, "note_on_time": 5.06, "note_off_time": 5.15}, {"pitch": 64, "velocity": 91, "note_on_time": 5.272, "note_off_time": 5.667}, {"pitch": 60, "velocity": 88, "note_on_time": 5.738, "note_off_time": 5.955}, {"pitch": 64, "velocity": 93, "note_on_time": 5.962, "note_off_time": 6.319}, {"pitch": 60, "velocity": 95, "note_on_time": 6.363, "note_off_time": 7.092}, {"pitch": 64, "velocity": 93, "note_on_time": 7.25, "note_off_time": 7.616}, {"pitch": 62, "velocity": 91, "note_on_time": 7.691, "note_off_time": 7.775}]</notes><guidance name="Guidance Mode">None</guidance><error name="Error value">0.15349720000000006</error></trial><trial trial_no="5" timestamp="2022_09_29-12_26_55"><notes name="Played Notes">[{"pitch": 64, "velocity": 88, "note_on_time": 0.835, "note_off_time": 1.086}, {"pitch": 62, "velocity": 87, "note_on_time": 1.083, "note_off_time": 1.306}, {"pitch": 64, "velocity": 84, "note_on_time": 1.318, "note_off_time": 1.548}, {"pitch": 62, "velocity": 88, "note_on_time": 1.545, "note_off_time": 1.679}, {"pitch": 64, "velocity": 80, "note_on_time": 1.755, "note_off_time": 1.871}, {"pitch": 64, "velocity": 84, "note_on_time": 1.992, "note_off_time": 2.102}, {"pitch": 64, "velocity": 83, "note_on_time": 2.194, "note_off_time": 2.338}, {"pitch": 62, "velocity": 86, "note_on_time": 2.412, "note_off_time": 2.523}, {"pitch": 62, "velocity": 81, "note_on_time": 2.629, "note_off_time": 2.734}, {"pitch": 62, "velocity": 86, "note_on_time": 2.855, "note_off_time": 2.964}, {"pitch": 64, "velocity": 91, "note_on_time": 3.068, "note_off_time": 3.163}, {"pitch": 64, "velocity": 82, "note_on_time": 3.27, "note_off_time": 3.398}, {"pitch": 62, "velocity": 82, "note_on_time": 3.502, "note_off_time": 3.706}, {"pitch": 60, "velocity": 87, "note_on_time": 3.708, "note_off_time": 3.852}, {"pitch": 62, "velocity": 87, "note_on_time": 3.921, "note_off_time": 4.028}, {"pitch": 62, "velocity": 82, "note_on_time": 4.132, "note_off_time": 4.247}, {"pitch": 60, "velocity": 89, "note_on_time": 4.351, "note_off_time": 4.455}, {"pitch": 60, "velocity": 75, "note_on_time": 4.561, "note_off_time": 4.671}, {"pitch": 60, "velocity": 89, "note_on_time": 4.804, "note_off_time": 4.903}, {"pitch": 62, "velocity": 88, "note_on_time": 5.015, "note_off_time": 5.11}, {"pitch": 64, "velocity": 86, "note_on_time": 5.232, "note_off_time": 5.603}, {"pitch": 60, "velocity": 94, "note_on_time": 5.796, "note_off_time": 5.993}, {"pitch": 62, "velocity": 89, "note_on_time": 6.076, "note_off_time": 6.303}, {"pitch": 64, "velocity": 85, "note_on_time": 6.393, "note_off_time": 6.655}, {"pitch": 60, "velocity": 81, "note_on_time": 6.795, "note_off_time": 7.281}, {"pitch": 60, "velocity": 55, "note_on_time": 7.552, "note_off_time": 7.596}, {"pitch": 64, "velocity": 74, "note_on_time": 7.714, "note_off_time": 7.801}]</notes><guidance name="Guidance Mode">None</guidance><error name="Error value">0.26418300000000006</error></trial></trials></MIDI>