<MIDI midiNo="2022_12_22-13_35_16"><target_notes><notes name="Note List">[{"pitch": 42, "velocity": 80, "note_on_time": 0.004, "note_off_time": 0.29}, {"pitch": 42, "velocity": 80, "note_on_time": 0.29, "note_off_time": 0.585}, {"pitch": 42, "velocity": 80, "note_on_time": 0.585, "note_off_time": 0.879}, {"pitch": 42, "velocity": 80, "note_on_time": 0.879, "note_off_time": 1.174}, {"pitch": 62, "velocity": 80, "note_on_time": 1.174, "note_off_time": 1.455}, {"pitch": 42, "velocity": 80, "note_on_time": 1.174, "note_off_time": 1.455}, {"pitch": 62, "velocity": 80, "note_on_time": 1.455, "note_off_time": 1.75}, {"pitch": 42, "velocity": 80, "note_on_time": 1.455, "note_off_time": 1.75}, {"pitch": 64, "velocity": 80, "note_on_time": 1.75, "note_off_time": 2.045}, {"pitch": 42, "velocity": 80, "note_on_time": 1.75, "note_off_time": 2.045}, {"pitch": 62, "velocity": 80, "note_on_time": 2.045, "note_off_time": 2.326}, {"pitch": 42, "velocity": 80, "note_on_time": 2.045, "note_off_time": 2.326}, {"pitch": 42, "velocity": 80, "note_on_time": 2.326, "note_off_time": 2.621}, {"pitch": 60, "velocity": 80, "note_on_time": 2.326, "note_off_time": 2.916}, {"pitch": 42, "velocity": 80, "note_on_time": 2.621, "note_off_time": 2.916}, {"pitch": 42, "velocity": 80, "note_on_time": 2.916, "note_off_time": 3.197}, {"pitch": 64, "velocity": 80, "note_on_time": 3.197, "note_off_time": 3.481}, {"pitch": 42, "velocity": 80, "note_on_time": 3.197, "note_off_time": 3.481}, {"pitch": 60, "velocity": 80, "note_on_time": 3.481, "note_off_time": 3.777}, {"pitch": 42, "velocity": 80, "note_on_time": 3.481, "note_off_time": 3.777}, {"pitch": 60, "velocity": 80, "note_on_time": 3.777, "note_off_time": 4.071}, {"pitch": 42, "velocity": 80, "note_on_time": 3.777, "note_off_time": 4.071}, {"pitch": 62, "velocity": 80, "note_on_time": 4.071, "note_off_time": 4.352}, {"pitch": 42, "velocity": 80, "note_on_time": 4.071, "note_off_time": 4.352}, {"pitch": 60, "velocity": 80, "note_on_time": 4.352, "note_off_time": 4.647}, {"pitch": 42, "velocity": 80, "note_on_time": 4.352, "note_off_time": 4.647}, {"pitch": 62, "velocity": 80, "note_on_time": 4.647, "note_off_time": 4.943}, {"pitch": 42, "velocity": 80, "note_on_time": 4.647, "note_off_time": 4.943}, {"pitch": 62, "velocity": 80, "note_on_time": 4.943, "note_off_time": 5.224}, {"pitch": 42, "velocity": 80, "note_on_time": 4.943, "note_off_time": 5.224}, {"pitch": 60, "velocity": 80, "note_on_time": 5.224, "note_off_time": 5.506}, {"pitch": 42, "velocity": 80, "note_on_time": 5.224, "note_off_time": 5.506}, {"pitch": 64, "velocity": 80, "note_on_time": 5.506, "note_off_time": 5.788}, {"pitch": 42, "velocity": 80, "note_on_time": 5.506, "note_off_time": 5.788}, {"pitch": 64, "velocity": 80, "note_on_time": 5.788, "note_off_time": 6.069}, {"pitch": 42, "velocity": 80, "note_on_time": 5.788, "note_off_time": 6.069}, {"pitch": 64, "velocity": 80, "note_on_time": 6.069, "note_off_time": 6.364}, {"pitch": 42, "velocity": 80, "note_on_time": 6.069, "note_off_time": 6.364}, {"pitch": 64, "velocity": 80, "note_on_time": 6.364, "note_off_time": 6.646}, {"pitch": 42, "velocity": 80, "note_on_time": 6.364, "note_off_time": 6.646}, {"pitch": 60, "velocity": 80, "note_on_time": 6.646, "note_off_time": 6.926}, {"pitch": 42, "velocity": 80, "note_on_time": 6.646, "note_off_time": 6.926}, {"pitch": 42, "velocity": 80, "note_on_time": 6.926, "note_off_time": 7.207}, {"pitch": 62, "velocity": 80, "note_on_time": 6.926, "note_off_time": 7.503}, {"pitch": 42, "velocity": 80, "note_on_time": 7.207, "note_off_time": 7.503}, {"pitch": 42, "velocity": 80, "note_on_time": 7.503, "note_off_time": 7.798}, {"pitch": 42, "velocity": 80, "note_on_time": 7.798, "note_off_time": 8.093}, {"pitch": 60, "velocity": 80, "note_on_time": 8.093, "note_off_time": 8.374}, {"pitch": 42, "velocity": 80, "note_on_time": 8.093, "note_off_time": 8.374}, {"pitch": 42, "velocity": 80, "note_on_time": 8.374, "note_off_time": 8.669}, {"pitch": 42, "velocity": 80, "note_on_time": 8.669, "note_off_time": 8.95}, {"pitch": 60, "velocity": 80, "note_on_time": 8.95, "note_off_time": 9.243}, {"pitch": 42, "velocity": 80, "note_on_time": 8.95, "note_off_time": 9.243}, {"pitch": 42, "velocity": 80, "note_on_time": 9.243, "note_off_time": 9.539}, {"pitch": 60, "velocity": 80, "note_on_time": 9.539, "note_off_time": 9.821}, {"pitch": 42, "velocity": 80, "note_on_time": 9.539, "note_off_time": 9.821}, {"pitch": 60, "velocity": 80, "note_on_time": 9.821, "note_off_time": 10.102}, {"pitch": 42, "velocity": 80, "note_on_time": 9.821, "note_off_time": 10.102}, {"pitch": 60, "velocity": 80, "note_on_time": 10.102, "note_off_time": 10.385}, {"pitch": 42, "velocity": 80, "note_on_time": 10.102, "note_off_time": 10.385}]</notes><options name="Option List">((4, 4), [0.5, 0.25], 3, 8, &lt;NoteRangePerHand.THREE_NOTES: 4&gt;, &lt;NoteRangePerHand.ONE_NOTE: 2&gt;, False, True, False, 215)</options></target_notes><trials><trial trial_no="1" timestamp="2022_12_22-13_35_04"><notes name="Played Notes">[{"pitch": 62, "velocity": 89, "note_on_time": 0.627, "note_off_time": 0.728}, {"pitch": 62, "velocity": 89, "note_on_time": 0.862, "note_off_time": 1.006}, {"pitch": 64, "velocity": 84, "note_on_time": 1.113, "note_off_time": 1.241}, {"pitch": 62, "velocity": 90, "note_on_time": 1.328, "note_off_time": 1.482}, {"pitch": 60, "velocity": 102, "note_on_time": 1.57, "note_off_time": 2.116}, {"pitch": 64, "velocity": 90, "note_on_time": 2.311, "note_off_time": 2.467}, {"pitch": 60, "velocity": 99, "note_on_time": 2.578, "note_off_time": 2.687}, {"pitch": 60, "velocity": 101, "note_on_time": 2.825, "note_off_time": 2.976}, {"pitch": 62, "velocity": 93, "note_on_time": 3.078, "note_off_time": 3.25}, {"pitch": 60, "velocity": 99, "note_on_time": 3.319, "note_off_time": 3.487}, {"pitch": 62, "velocity": 88, "note_on_time": 3.559, "note_off_time": 3.721}, {"pitch": 62, "velocity": 94, "note_on_time": 3.843, "note_off_time": 4.02}, {"pitch": 60, "velocity": 86, "note_on_time": 4.091, "note_off_time": 4.274}, {"pitch": 64, "velocity": 94, "note_on_time": 4.466, "note_off_time": 4.701}, {"pitch": 64, "velocity": 86, "note_on_time": 4.802, "note_off_time": 4.973}, {"pitch": 64, "velocity": 91, "note_on_time": 5.17, "note_off_time": 5.337}, {"pitch": 60, "velocity": 79, "note_on_time": 5.67, "note_off_time": 5.867}, {"pitch": 62, "velocity": 97, "note_on_time": 6.093, "note_off_time": 6.564}, {"pitch": 60, "velocity": 92, "note_on_time": 7.069, "note_off_time": 7.325}, {"pitch": 60, "velocity": 103, "note_on_time": 8.108, "note_off_time": 8.38}, {"pitch": 60, "velocity": 106, "note_on_time": 8.875, "note_off_time": 8.982}, {"pitch": 60, "velocity": 92, "note_on_time": 9.07, "note_off_time": 9.183}, {"pitch": 60, "velocity": 118, "note_on_time": 9.323, "note_off_time": 9.457}]</notes><guidance name="Guidance Mode">None</guidance><error name="Error value">0.13860428571428568</error></trial><trial trial_no="2" timestamp="2022_12_22-13_35_33"><notes name="Played Notes">[{"pitch": 62, "velocity": 79, "note_on_time": 0.58, "note_off_time": 0.677}, {"pitch": 62, "velocity": 85, "note_on_time": 0.798, "note_off_time": 0.936}, {"pitch": 64, "velocity": 94, "note_on_time": 1.04, "note_off_time": 1.16}, {"pitch": 62, "velocity": 94, "note_on_time": 1.247, "note_off_time": 1.401}, {"pitch": 60, "velocity": 103, "note_on_time": 1.494, "note_off_time": 1.953}, {"pitch": 64, "velocity": 95, "note_on_time": 2.232, "note_off_time": 2.415}, {"pitch": 60, "velocity": 95, "note_on_time": 2.502, "note_off_time": 2.626}, {"pitch": 60, "velocity": 102, "note_on_time": 2.763, "note_off_time": 2.907}, {"pitch": 62, "velocity": 77, "note_on_time": 3.022, "note_off_time": 3.184}, {"pitch": 60, "velocity": 92, "note_on_time": 3.264, "note_off_time": 3.401}, {"pitch": 62, "velocity": 88, "note_on_time": 3.522, "note_off_time": 3.645}, {"pitch": 62, "velocity": 86, "note_on_time": 3.783, "note_off_time": 3.888}, {"pitch": 60, "velocity": 95, "note_on_time": 4.063, "note_off_time": 4.183}, {"pitch": 64, "velocity": 95, "note_on_time": 4.371, "note_off_time": 4.551}, {"pitch": 64, "velocity": 89, "note_on_time": 4.668, "note_off_time": 4.792}, {"pitch": 64, "velocity": 95, "note_on_time": 4.957, "note_off_time": 5.068}, {"pitch": 64, "velocity": 97, "note_on_time": 5.214, "note_off_time": 5.361}, {"pitch": 60, "velocity": 98, "note_on_time": 5.51, "note_off_time": 5.639}, {"pitch": 62, "velocity": 93, "note_on_time": 5.818, "note_off_time": 6.369}, {"pitch": 60, "velocity": 100, "note_on_time": 6.804, "note_off_time": 7.358}, {"pitch": 60, "velocity": 103, "note_on_time": 7.688, "note_off_time": 8.199}, {"pitch": 60, "velocity": 99, "note_on_time": 8.414, "note_off_time": 8.502}, {"pitch": 60, "velocity": 111, "note_on_time": 8.641, "note_off_time": 8.739}, {"pitch": 60, "velocity": 107, "note_on_time": 8.886, "note_off_time": 9.0}]</notes><guidance name="Guidance Mode">None</guidance><error name="Error value">0.04674385714285708</error></trial><trial trial_no="3" timestamp="2022_12_22-13_35_57"><notes name="Played Notes">[{"pitch": 62, "velocity": 86, "note_on_time": 0.837, "note_off_time": 0.941}, {"pitch": 62, "velocity": 82, "note_on_time": 1.07, "note_off_time": 1.211}, {"pitch": 64, "velocity": 84, "note_on_time": 1.32, "note_off_time": 1.463}, {"pitch": 62, "velocity": 90, "note_on_time": 1.535, "note_off_time": 1.685}, {"pitch": 60, "velocity": 101, "note_on_time": 1.783, "note_off_time": 2.27}, {"pitch": 64, "velocity": 93, "note_on_time": 2.498, "note_off_time": 2.678}, {"pitch": 60, "velocity": 96, "note_on_time": 2.773, "note_off_time": 2.87}, {"pitch": 60, "velocity": 102, "note_on_time": 3.041, "note_off_time": 3.187}, {"pitch": 62, "velocity": 90, "note_on_time": 3.303, "note_off_time": 3.485}, {"pitch": 60, "velocity": 99, "note_on_time": 3.59, "note_off_time": 3.745}, {"pitch": 62, "velocity": 90, "note_on_time": 3.874, "note_off_time": 4.029}, {"pitch": 62, "velocity": 87, "note_on_time": 4.168, "note_off_time": 4.298}, {"pitch": 60, "velocity": 97, "note_on_time": 4.428, "note_off_time": 4.575}, {"pitch": 64, "velocity": 92, "note_on_time": 4.7, "note_off_time": 4.857}, {"pitch": 64, "velocity": 87, "note_on_time": 4.978, "note_off_time": 5.106}, {"pitch": 64, "velocity": 95, "note_on_time": 5.271, "note_off_time": 5.42}, {"pitch": 64, "velocity": 86, "note_on_time": 5.579, "note_off_time": 5.704}, {"pitch": 60, "velocity": 93, "note_on_time": 5.861, "note_off_time": 6.008}, {"pitch": 62, "velocity": 91, "note_on_time": 6.192, "note_off_time": 6.766}, {"pitch": 60, "velocity": 104, "note_on_time": 6.968, "note_off_time": 7.294}, {"pitch": 60, "velocity": 108, "note_on_time": 7.559, "note_off_time": 7.885}, {"pitch": 60, "velocity": 104, "note_on_time": 8.099, "note_off_time": 8.174}, {"pitch": 60, "velocity": 104, "note_on_time": 8.344, "note_off_time": 8.432}, {"pitch": 60, "velocity": 110, "note_on_time": 8.606, "note_off_time": 8.705}]</notes><guidance name="Guidance Mode">None</guidance><error name="Error value">0.05396061904761907</error></trial><trial trial_no="4" timestamp="2022_12_22-13_36_18"><notes name="Played Notes">[{"pitch": 62, "velocity": 82, "note_on_time": 0.721, "note_off_time": 0.84}, {"pitch": 62, "velocity": 77, "note_on_time": 0.965, "note_off_time": 1.117}, {"pitch": 64, "velocity": 90, "note_on_time": 1.209, "note_off_time": 1.343}, {"pitch": 62, "velocity": 82, "note_on_time": 1.44, "note_off_time": 1.579}, {"pitch": 60, "velocity": 103, "note_on_time": 1.702, "note_off_time": 2.204}, {"pitch": 64, "velocity": 88, "note_on_time": 2.451, "note_off_time": 2.613}, {"pitch": 60, "velocity": 92, "note_on_time": 2.732, "note_off_time": 2.835}, {"pitch": 60, "velocity": 89, "note_on_time": 2.962, "note_off_time": 3.093}, {"pitch": 62, "velocity": 85, "note_on_time": 3.229, "note_off_time": 3.387}, {"pitch": 60, "velocity": 92, "note_on_time": 3.496, "note_off_time": 3.639}, {"pitch": 62, "velocity": 84, "note_on_time": 3.759, "note_off_time": 3.884}, {"pitch": 64, "velocity": 51, "note_on_time": 4.07, "note_off_time": 4.131}, {"pitch": 62, "velocity": 88, "note_on_time": 4.196, "note_off_time": 4.491}, {"pitch": 60, "velocity": 94, "note_on_time": 4.652, "note_off_time": 4.833}, {"pitch": 64, "velocity": 95, "note_on_time": 4.977, "note_off_time": 5.174}, {"pitch": 64, "velocity": 94, "note_on_time": 5.334, "note_off_time": 5.474}, {"pitch": 64, "velocity": 93, "note_on_time": 5.647, "note_off_time": 5.738}, {"pitch": 64, "velocity": 100, "note_on_time": 5.925, "note_off_time": 6.061}, {"pitch": 60, "velocity": 93, "note_on_time": 6.231, "note_off_time": 6.377}, {"pitch": 62, "velocity": 97, "note_on_time": 6.526, "note_off_time": 7.066}, {"pitch": 60, "velocity": 82, "note_on_time": 7.498, "note_off_time": 7.75}, {"pitch": 60, "velocity": 100, "note_on_time": 8.134, "note_off_time": 8.365}, {"pitch": 60, "velocity": 105, "note_on_time": 8.661, "note_off_time": 8.742}, {"pitch": 60, "velocity": 103, "note_on_time": 8.926, "note_off_time": 9.02}, {"pitch": 60, "velocity": 103, "note_on_time": 9.191, "note_off_time": 9.298}]</notes><guidance name="Guidance Mode">None</guidance><error name="Error value">0.16843023809523802</error></trial><trial trial_no="5" timestamp="2022_12_22-13_36_40"><notes name="Played Notes">[{"pitch": 62, "velocity": 86, "note_on_time": 0.637, "note_off_time": 0.743}, {"pitch": 62, "velocity": 81, "note_on_time": 0.872, "note_off_time": 1.012}, {"pitch": 64, "velocity": 85, "note_on_time": 1.117, "note_off_time": 1.256}, {"pitch": 62, "velocity": 88, "note_on_time": 1.328, "note_off_time": 1.478}, {"pitch": 60, "velocity": 101, "note_on_time": 1.581, "note_off_time": 2.083}, {"pitch": 64, "velocity": 87, "note_on_time": 2.298, "note_off_time": 2.461}, {"pitch": 60, "velocity": 91, "note_on_time": 2.562, "note_off_time": 2.664}, {"pitch": 60, "velocity": 94, "note_on_time": 2.803, "note_off_time": 2.946}, {"pitch": 62, "velocity": 84, "note_on_time": 3.065, "note_off_time": 3.231}, {"pitch": 60, "velocity": 90, "note_on_time": 3.326, "note_off_time": 3.489}, {"pitch": 62, "velocity": 85, "note_on_time": 3.583, "note_off_time": 3.695}, {"pitch": 62, "velocity": 91, "note_on_time": 3.846, "note_off_time": 3.96}, {"pitch": 60, "velocity": 87, "note_on_time": 4.077, "note_off_time": 4.226}, {"pitch": 64, "velocity": 89, "note_on_time": 4.363, "note_off_time": 4.552}, {"pitch": 64, "velocity": 90, "note_on_time": 4.749, "note_off_time": 4.899}, {"pitch": 64, "velocity": 95, "note_on_time": 5.053, "note_off_time": 5.211}, {"pitch": 60, "velocity": 89, "note_on_time": 5.494, "note_off_time": 5.656}, {"pitch": 62, "velocity": 95, "note_on_time": 5.933, "note_off_time": 6.421}, {"pitch": 60, "velocity": 96, "note_on_time": 6.637, "note_off_time": 6.778}, {"pitch": 60, "velocity": 100, "note_on_time": 7.198, "note_off_time": 7.401}, {"pitch": 60, "velocity": 93, "note_on_time": 7.672, "note_off_time": 7.772}, {"pitch": 60, "velocity": 94, "note_on_time": 7.953, "note_off_time": 8.052}, {"pitch": 60, "velocity": 100, "note_on_time": 8.233, "note_off_time": 8.334}]</notes><guidance name="Guidance Mode">None</guidance><error name="Error value">0.13429723809523808</error></trial></trials></MIDI>