<MIDI midiNo="2022_11_21-16_44_27"><target_notes><notes name="Note List">[{"pitch": 42, "velocity": 80, "note_on_time": 0.003, "note_off_time": 0.26}, {"pitch": 42, "velocity": 80, "note_on_time": 0.26, "note_off_time": 0.509}, {"pitch": 42, "velocity": 80, "note_on_time": 0.51, "note_off_time": 0.758}, {"pitch": 42, "velocity": 80, "note_on_time": 0.758, "note_off_time": 1.009}, {"pitch": 60, "velocity": 80, "note_on_time": 1.009, "note_off_time": 1.26}, {"pitch": 42, "velocity": 80, "note_on_time": 1.009, "note_off_time": 1.26}, {"pitch": 64, "velocity": 80, "note_on_time": 1.26, "note_off_time": 1.51}, {"pitch": 42, "velocity": 80, "note_on_time": 1.26, "note_off_time": 1.511}, {"pitch": 62, "velocity": 80, "note_on_time": 1.51, "note_off_time": 1.758}, {"pitch": 42, "velocity": 80, "note_on_time": 1.511, "note_off_time": 1.759}, {"pitch": 62, "velocity": 80, "note_on_time": 1.758, "note_off_time": 2.007}, {"pitch": 42, "velocity": 80, "note_on_time": 1.759, "note_off_time": 2.008}, {"pitch": 64, "velocity": 80, "note_on_time": 2.007, "note_off_time": 2.257}, {"pitch": 42, "velocity": 80, "note_on_time": 2.008, "note_off_time": 2.257}, {"pitch": 64, "velocity": 80, "note_on_time": 2.257, "note_off_time": 2.506}, {"pitch": 42, "velocity": 80, "note_on_time": 2.257, "note_off_time": 2.507}, {"pitch": 42, "velocity": 80, "note_on_time": 2.507, "note_off_time": 2.754}, {"pitch": 64, "velocity": 80, "note_on_time": 2.506, "note_off_time": 3.004}, {"pitch": 42, "velocity": 80, "note_on_time": 2.755, "note_off_time": 3.005}, {"pitch": 60, "velocity": 80, "note_on_time": 3.004, "note_off_time": 3.255}, {"pitch": 42, "velocity": 80, "note_on_time": 3.005, "note_off_time": 3.255}, {"pitch": 42, "velocity": 80, "note_on_time": 3.256, "note_off_time": 3.504}, {"pitch": 42, "velocity": 80, "note_on_time": 3.504, "note_off_time": 3.753}, {"pitch": 42, "velocity": 80, "note_on_time": 3.753, "note_off_time": 4.002}, {"pitch": 62, "velocity": 80, "note_on_time": 4.002, "note_off_time": 4.25}, {"pitch": 42, "velocity": 80, "note_on_time": 4.002, "note_off_time": 4.25}, {"pitch": 42, "velocity": 80, "note_on_time": 4.251, "note_off_time": 4.501}, {"pitch": 42, "velocity": 80, "note_on_time": 4.501, "note_off_time": 4.75}, {"pitch": 60, "velocity": 80, "note_on_time": 4.75, "note_off_time": 4.998}, {"pitch": 42, "velocity": 80, "note_on_time": 4.751, "note_off_time": 4.998}, {"pitch": 62, "velocity": 80, "note_on_time": 4.998, "note_off_time": 5.248}, {"pitch": 42, "velocity": 80, "note_on_time": 4.998, "note_off_time": 5.249}, {"pitch": 64, "velocity": 80, "note_on_time": 5.248, "note_off_time": 5.5}, {"pitch": 42, "velocity": 80, "note_on_time": 5.249, "note_off_time": 5.501}, {"pitch": 62, "velocity": 80, "note_on_time": 5.5, "note_off_time": 5.746}, {"pitch": 42, "velocity": 80, "note_on_time": 5.501, "note_off_time": 5.746}, {"pitch": 60, "velocity": 80, "note_on_time": 5.746, "note_off_time": 5.995}, {"pitch": 42, "velocity": 80, "note_on_time": 5.746, "note_off_time": 5.996}, {"pitch": 64, "velocity": 80, "note_on_time": 5.995, "note_off_time": 6.245}, {"pitch": 42, "velocity": 80, "note_on_time": 5.996, "note_off_time": 6.245}, {"pitch": 42, "velocity": 80, "note_on_time": 6.245, "note_off_time": 6.494}, {"pitch": 60, "velocity": 80, "note_on_time": 6.494, "note_off_time": 6.744}, {"pitch": 42, "velocity": 80, "note_on_time": 6.494, "note_off_time": 6.744}, {"pitch": 42, "velocity": 80, "note_on_time": 6.745, "note_off_time": 6.993}, {"pitch": 62, "velocity": 80, "note_on_time": 6.993, "note_off_time": 7.242}, {"pitch": 42, "velocity": 80, "note_on_time": 6.993, "note_off_time": 7.242}, {"pitch": 60, "velocity": 80, "note_on_time": 7.242, "note_off_time": 7.489}, {"pitch": 42, "velocity": 80, "note_on_time": 7.242, "note_off_time": 7.489}, {"pitch": 62, "velocity": 80, "note_on_time": 7.489, "note_off_time": 7.739}, {"pitch": 42, "velocity": 80, "note_on_time": 7.489, "note_off_time": 7.739}, {"pitch": 62, "velocity": 80, "note_on_time": 7.739, "note_off_time": 7.988}, {"pitch": 42, "velocity": 80, "note_on_time": 7.739, "note_off_time": 7.988}, {"pitch": 42, "velocity": 80, "note_on_time": 7.988, "note_off_time": 8.24}, {"pitch": 62, "velocity": 80, "note_on_time": 8.24, "note_off_time": 8.488}, {"pitch": 42, "velocity": 80, "note_on_time": 8.24, "note_off_time": 8.488}, {"pitch": 62, "velocity": 80, "note_on_time": 8.488, "note_off_time": 8.735}, {"pitch": 42, "velocity": 80, "note_on_time": 8.488, "note_off_time": 8.736}, {"pitch": 62, "velocity": 80, "note_on_time": 8.735, "note_off_time": 8.984}, {"pitch": 42, "velocity": 80, "note_on_time": 8.736, "note_off_time": 8.984}]</notes><options name="Option List">((4, 4), [0.5, 0.25], 3, 8, &lt;NoteRangePerHand.THREE_NOTES: 4&gt;, &lt;NoteRangePerHand.ONE_NOTE: 2&gt;, False, True, False, 248)</options></target_notes><trials><trial trial_no="1" timestamp="2022_11_21-16_44_17"><notes name="Played Notes">[{"pitch": 60, "velocity": 93, "note_on_time": 0.992, "note_off_time": 1.172}, {"pitch": 64, "velocity": 77, "note_on_time": 1.226, "note_off_time": 1.379}, {"pitch": 62, "velocity": 75, "note_on_time": 1.466, "note_off_time": 1.58}, {"pitch": 62, "velocity": 64, "note_on_time": 1.687, "note_off_time": 1.828}, {"pitch": 64, "velocity": 82, "note_on_time": 1.954, "note_off_time": 2.085}, {"pitch": 64, "velocity": 71, "note_on_time": 2.184, "note_off_time": 2.333}, {"pitch": 64, "velocity": 73, "note_on_time": 2.441, "note_off_time": 2.87}, {"pitch": 60, "velocity": 78, "note_on_time": 2.95, "note_off_time": 3.126}, {"pitch": 62, "velocity": 73, "note_on_time": 4.011, "note_off_time": 4.205}, {"pitch": 60, "velocity": 82, "note_on_time": 5.032, "note_off_time": 5.176}, {"pitch": 62, "velocity": 70, "note_on_time": 5.279, "note_off_time": 5.447}, {"pitch": 64, "velocity": 59, "note_on_time": 5.492, "note_off_time": 5.717}, {"pitch": 62, "velocity": 59, "note_on_time": 5.713, "note_off_time": 5.968}, {"pitch": 60, "velocity": 78, "note_on_time": 5.957, "note_off_time": 6.139}, {"pitch": 64, "velocity": 71, "note_on_time": 6.215, "note_off_time": 6.385}, {"pitch": 62, "velocity": 53, "note_on_time": 6.647, "note_off_time": 6.753}, {"pitch": 60, "velocity": 57, "note_on_time": 6.821, "note_off_time": 7.028}, {"pitch": 62, "velocity": 66, "note_on_time": 7.223, "note_off_time": 7.338}, {"pitch": 60, "velocity": 72, "note_on_time": 7.537, "note_off_time": 7.709}, {"pitch": 62, "velocity": 59, "note_on_time": 7.742, "note_off_time": 7.873}, {"pitch": 62, "velocity": 61, "note_on_time": 8.003, "note_off_time": 8.14}, {"pitch": 62, "velocity": 63, "note_on_time": 8.466, "note_off_time": 8.626}, {"pitch": 62, "velocity": 69, "note_on_time": 8.723, "note_off_time": 8.867}]</notes><guidance name="Guidance Mode">None</guidance><error name="Error value">0.21637275</error></trial></trials></MIDI>