<MIDI midiNo="2022_10_02-13_30_10"><target_notes><notes name="Note List">[{"pitch": 42, "velocity": 80, "note_on_time": 0.004, "note_off_time": 0.194}, {"pitch": 42, "velocity": 80, "note_on_time": 0.194, "note_off_time": 0.396}, {"pitch": 42, "velocity": 80, "note_on_time": 0.396, "note_off_time": 0.597}, {"pitch": 42, "velocity": 80, "note_on_time": 0.597, "note_off_time": 0.8}, {"pitch": 62, "velocity": 80, "note_on_time": 0.8, "note_off_time": 0.989}, {"pitch": 42, "velocity": 80, "note_on_time": 0.8, "note_off_time": 0.989}, {"pitch": 64, "velocity": 80, "note_on_time": 0.989, "note_off_time": 1.191}, {"pitch": 42, "velocity": 80, "note_on_time": 0.99, "note_off_time": 1.191}, {"pitch": 64, "velocity": 80, "note_on_time": 1.191, "note_off_time": 1.379}, {"pitch": 42, "velocity": 80, "note_on_time": 1.191, "note_off_time": 1.379}, {"pitch": 64, "velocity": 80, "note_on_time": 1.379, "note_off_time": 1.58}, {"pitch": 42, "velocity": 80, "note_on_time": 1.379, "note_off_time": 1.58}, {"pitch": 62, "velocity": 80, "note_on_time": 1.58, "note_off_time": 1.77}, {"pitch": 42, "velocity": 80, "note_on_time": 1.58, "note_off_time": 1.77}, {"pitch": 64, "velocity": 80, "note_on_time": 1.77, "note_off_time": 1.972}, {"pitch": 42, "velocity": 80, "note_on_time": 1.77, "note_off_time": 1.972}, {"pitch": 64, "velocity": 80, "note_on_time": 1.972, "note_off_time": 2.161}, {"pitch": 42, "velocity": 80, "note_on_time": 1.973, "note_off_time": 2.161}, {"pitch": 62, "velocity": 80, "note_on_time": 2.161, "note_off_time": 2.364}, {"pitch": 42, "velocity": 80, "note_on_time": 2.161, "note_off_time": 2.364}, {"pitch": 60, "velocity": 80, "note_on_time": 2.364, "note_off_time": 2.567}, {"pitch": 42, "velocity": 80, "note_on_time": 2.365, "note_off_time": 2.567}, {"pitch": 60, "velocity": 80, "note_on_time": 2.567, "note_off_time": 2.77}, {"pitch": 42, "velocity": 80, "note_on_time": 2.568, "note_off_time": 2.77}, {"pitch": 62, "velocity": 80, "note_on_time": 2.77, "note_off_time": 2.958}, {"pitch": 42, "velocity": 80, "note_on_time": 2.771, "note_off_time": 2.958}, {"pitch": 42, "velocity": 80, "note_on_time": 2.959, "note_off_time": 3.146}, {"pitch": 60, "velocity": 80, "note_on_time": 3.146, "note_off_time": 3.349}, {"pitch": 42, "velocity": 80, "note_on_time": 3.147, "note_off_time": 3.349}, {"pitch": 42, "velocity": 80, "note_on_time": 3.35, "note_off_time": 3.539}, {"pitch": 64, "velocity": 80, "note_on_time": 3.539, "note_off_time": 3.74}, {"pitch": 42, "velocity": 80, "note_on_time": 3.54, "note_off_time": 3.74}, {"pitch": 64, "velocity": 80, "note_on_time": 3.74, "note_off_time": 3.94}, {"pitch": 42, "velocity": 80, "note_on_time": 3.74, "note_off_time": 3.94}, {"pitch": 64, "velocity": 80, "note_on_time": 3.94, "note_off_time": 4.128}, {"pitch": 42, "velocity": 80, "note_on_time": 3.941, "note_off_time": 4.128}, {"pitch": 62, "velocity": 80, "note_on_time": 4.128, "note_off_time": 4.329}, {"pitch": 42, "velocity": 80, "note_on_time": 4.129, "note_off_time": 4.329}, {"pitch": 42, "velocity": 80, "note_on_time": 4.329, "note_off_time": 4.531}, {"pitch": 42, "velocity": 80, "note_on_time": 4.531, "note_off_time": 4.731}, {"pitch": 64, "velocity": 80, "note_on_time": 4.731, "note_off_time": 4.931}, {"pitch": 42, "velocity": 80, "note_on_time": 4.732, "note_off_time": 4.932}, {"pitch": 60, "velocity": 80, "note_on_time": 4.931, "note_off_time": 5.133}, {"pitch": 42, "velocity": 80, "note_on_time": 4.932, "note_off_time": 5.134}, {"pitch": 42, "velocity": 80, "note_on_time": 5.134, "note_off_time": 5.334}, {"pitch": 62, "velocity": 80, "note_on_time": 5.334, "note_off_time": 5.536}, {"pitch": 42, "velocity": 80, "note_on_time": 5.334, "note_off_time": 5.536}, {"pitch": 64, "velocity": 80, "note_on_time": 5.536, "note_off_time": 5.739}, {"pitch": 42, "velocity": 80, "note_on_time": 5.537, "note_off_time": 5.739}, {"pitch": 60, "velocity": 80, "note_on_time": 5.739, "note_off_time": 5.942}, {"pitch": 42, "velocity": 80, "note_on_time": 5.739, "note_off_time": 5.942}, {"pitch": 60, "velocity": 80, "note_on_time": 5.942, "note_off_time": 6.13}, {"pitch": 42, "velocity": 80, "note_on_time": 5.943, "note_off_time": 6.13}, {"pitch": 64, "velocity": 80, "note_on_time": 6.13, "note_off_time": 6.331}, {"pitch": 42, "velocity": 80, "note_on_time": 6.131, "note_off_time": 6.331}, {"pitch": 42, "velocity": 80, "note_on_time": 6.331, "note_off_time": 6.532}, {"pitch": 64, "velocity": 80, "note_on_time": 6.532, "note_off_time": 6.735}, {"pitch": 42, "velocity": 80, "note_on_time": 6.533, "note_off_time": 6.735}, {"pitch": 64, "velocity": 80, "note_on_time": 6.735, "note_off_time": 6.937}, {"pitch": 42, "velocity": 80, "note_on_time": 6.735, "note_off_time": 6.937}, {"pitch": 64, "velocity": 80, "note_on_time": 6.937, "note_off_time": 7.14}, {"pitch": 42, "velocity": 80, "note_on_time": 6.937, "note_off_time": 7.14}]</notes><options name="Option List">((4, 4), [0.25], 3, 8, &lt;NoteRangePerHand.THREE_NOTES: 4&gt;, &lt;NoteRangePerHand.ONE_NOTE: 2&gt;, False, True, True, '322')</options></target_notes><trials><trial trial_no="1" timestamp="2022_10_02-13_30_01"><notes name="Played Notes">[{"pitch": 62, "velocity": 61, "note_on_time": 0.781, "note_off_time": 1.05}, {"pitch": 64, "velocity": 68, "note_on_time": 1.045, "note_off_time": 1.164}, {"pitch": 64, "velocity": 53, "note_on_time": 1.25, "note_off_time": 1.374}, {"pitch": 64, "velocity": 62, "note_on_time": 1.475, "note_off_time": 1.717}, {"pitch": 62, "velocity": 61, "note_on_time": 1.694, "note_off_time": 1.804}, {"pitch": 64, "velocity": 60, "note_on_time": 1.915, "note_off_time": 2.039}, {"pitch": 64, "velocity": 65, "note_on_time": 2.143, "note_off_time": 2.331}, {"pitch": 62, "velocity": 51, "note_on_time": 2.369, "note_off_time": 2.567}, {"pitch": 60, "velocity": 56, "note_on_time": 2.666, "note_off_time": 2.842}, {"pitch": 60, "velocity": 71, "note_on_time": 3.717, "note_off_time": 4.176}]</notes><guidance name="Guidance Mode">None</guidance><error name="Error value">1.0484504347826087</error></trial><trial trial_no="2" timestamp="2022_10_02-13_30_28"><notes name="Played Notes">[{"pitch": 62, "velocity": 67, "note_on_time": 0.825, "note_off_time": 1.087}, {"pitch": 64, "velocity": 70, "note_on_time": 1.075, "note_off_time": 1.206}, {"pitch": 64, "velocity": 46, "note_on_time": 1.285, "note_off_time": 1.417}, {"pitch": 64, "velocity": 58, "note_on_time": 1.509, "note_off_time": 1.754}, {"pitch": 62, "velocity": 65, "note_on_time": 1.719, "note_off_time": 1.869}, {"pitch": 64, "velocity": 60, "note_on_time": 1.941, "note_off_time": 2.085}, {"pitch": 64, "velocity": 47, "note_on_time": 2.155, "note_off_time": 2.371}, {"pitch": 60, "velocity": 62, "note_on_time": 2.367, "note_off_time": 2.515}, {"pitch": 64, "velocity": 61, "note_on_time": 2.603, "note_off_time": 2.803}, {"pitch": 60, "velocity": 61, "note_on_time": 3.161, "note_off_time": 3.268}, {"pitch": 64, "velocity": 55, "note_on_time": 3.433, "note_off_time": 3.543}, {"pitch": 64, "velocity": 47, "note_on_time": 3.66, "note_off_time": 3.847}, {"pitch": 62, "velocity": 58, "note_on_time": 3.851, "note_off_time": 3.995}, {"pitch": 64, "velocity": 60, "note_on_time": 4.085, "note_off_time": 4.256}, {"pitch": 64, "velocity": 39, "note_on_time": 4.332, "note_off_time": 4.522}, {"pitch": 60, "velocity": 57, "note_on_time": 4.577, "note_off_time": 4.716}, {"pitch": 60, "velocity": 66, "note_on_time": 5.036, "note_off_time": 5.232}, {"pitch": 64, "velocity": 56, "note_on_time": 6.246, "note_off_time": 6.377}, {"pitch": 64, "velocity": 56, "note_on_time": 6.467, "note_off_time": 6.57}, {"pitch": 64, "velocity": 65, "note_on_time": 6.675, "note_off_time": 6.847}]</notes><guidance name="Guidance Mode">None</guidance><error name="Error value">0.4881015217391304</error></trial><trial trial_no="3" timestamp="2022_10_02-13_31_08"><notes name="Played Notes">[{"pitch": 62, "velocity": 68, "note_on_time": 0.8, "note_off_time": 1.065}, {"pitch": 64, "velocity": 71, "note_on_time": 1.039, "note_off_time": 1.158}, {"pitch": 64, "velocity": 46, "note_on_time": 1.223, "note_off_time": 1.348}, {"pitch": 64, "velocity": 52, "note_on_time": 1.424, "note_off_time": 1.655}, {"pitch": 62, "velocity": 72, "note_on_time": 1.64, "note_off_time": 1.792}, {"pitch": 64, "velocity": 66, "note_on_time": 1.858, "note_off_time": 2.052}, {"pitch": 62, "velocity": 72, "note_on_time": 2.049, "note_off_time": 2.262}, {"pitch": 60, "velocity": 61, "note_on_time": 2.267, "note_off_time": 2.36}, {"pitch": 60, "velocity": 60, "note_on_time": 2.464, "note_off_time": 2.603}, {"pitch": 60, "velocity": 72, "note_on_time": 3.2, "note_off_time": 3.406}, {"pitch": 64, "velocity": 64, "note_on_time": 3.411, "note_off_time": 3.537}, {"pitch": 64, "velocity": 54, "note_on_time": 3.614, "note_off_time": 3.797}, {"pitch": 62, "velocity": 63, "note_on_time": 3.816, "note_off_time": 3.982}, {"pitch": 62, "velocity": 69, "note_on_time": 4.691, "note_off_time": 4.852}, {"pitch": 64, "velocity": 63, "note_on_time": 4.881, "note_off_time": 5.11}, {"pitch": 62, "velocity": 63, "note_on_time": 5.094, "note_off_time": 5.201}, {"pitch": 62, "velocity": 47, "note_on_time": 5.287, "note_off_time": 5.403}, {"pitch": 60, "velocity": 58, "note_on_time": 5.928, "note_off_time": 6.139}, {"pitch": 64, "velocity": 61, "note_on_time": 6.299, "note_off_time": 6.425}, {"pitch": 64, "velocity": 46, "note_on_time": 6.504, "note_off_time": 6.624}, {"pitch": 64, "velocity": 56, "note_on_time": 6.714, "note_off_time": 6.914}]</notes><guidance name="Guidance Mode">None</guidance><error name="Error value">0.512405652173913</error></trial><trial trial_no="4" timestamp="2022_10_02-13_31_42"><notes name="Played Notes">[{"pitch": 62, "velocity": 61, "note_on_time": 0.753, "note_off_time": 0.981}, {"pitch": 64, "velocity": 65, "note_on_time": 0.969, "note_off_time": 1.102}, {"pitch": 64, "velocity": 48, "note_on_time": 1.183, "note_off_time": 1.306}, {"pitch": 64, "velocity": 58, "note_on_time": 1.388, "note_off_time": 1.579}, {"pitch": 62, "velocity": 63, "note_on_time": 1.571, "note_off_time": 1.731}, {"pitch": 64, "velocity": 61, "note_on_time": 1.789, "note_off_time": 1.91}, {"pitch": 64, "velocity": 53, "note_on_time": 1.986, "note_off_time": 2.241}, {"pitch": 60, "velocity": 71, "note_on_time": 2.216, "note_off_time": 2.414}, {"pitch": 64, "velocity": 68, "note_on_time": 2.42, "note_off_time": 2.608}, {"pitch": 60, "velocity": 66, "note_on_time": 3.168, "note_off_time": 3.356}, {"pitch": 64, "velocity": 61, "note_on_time": 3.408, "note_off_time": 3.533}, {"pitch": 64, "velocity": 42, "note_on_time": 3.6, "note_off_time": 3.719}, {"pitch": 64, "velocity": 51, "note_on_time": 3.798, "note_off_time": 3.994}, {"pitch": 62, "velocity": 70, "note_on_time": 3.987, "note_off_time": 4.147}, {"pitch": 64, "velocity": 62, "note_on_time": 4.68, "note_off_time": 4.898}, {"pitch": 60, "velocity": 53, "note_on_time": 4.903, "note_off_time": 5.079}, {"pitch": 64, "velocity": 61, "note_on_time": 5.131, "note_off_time": 5.268}, {"pitch": 64, "velocity": 62, "note_on_time": 5.523, "note_off_time": 5.712}, {"pitch": 64, "velocity": 63, "note_on_time": 6.331, "note_off_time": 6.453}, {"pitch": 64, "velocity": 55, "note_on_time": 6.539, "note_off_time": 6.645}, {"pitch": 64, "velocity": 49, "note_on_time": 6.724, "note_off_time": 6.902}]</notes><guidance name="Guidance Mode">None</guidance><error name="Error value">0.6469565217391303</error></trial><trial trial_no="5" timestamp="2022_10_02-13_32_06"><notes name="Played Notes">[{"pitch": 64, "velocity": 64, "note_on_time": 0.771, "note_off_time": 0.945}, {"pitch": 64, "velocity": 36, "note_on_time": 1.031, "note_off_time": 1.137}, {"pitch": 64, "velocity": 58, "note_on_time": 1.235, "note_off_time": 1.349}, {"pitch": 64, "velocity": 36, "note_on_time": 1.42, "note_off_time": 1.553}, {"pitch": 64, "velocity": 33, "note_on_time": 1.614, "note_off_time": 1.921}, {"pitch": 60, "velocity": 50, "note_on_time": 1.969, "note_off_time": 2.158}, {"pitch": 60, "velocity": 18, "note_on_time": 2.427, "note_off_time": 2.506}, {"pitch": 60, "velocity": 66, "note_on_time": 3.552, "note_off_time": 3.763}, {"pitch": 64, "velocity": 62, "note_on_time": 3.766, "note_off_time": 3.88}, {"pitch": 64, "velocity": 51, "note_on_time": 3.973, "note_off_time": 4.169}, {"pitch": 62, "velocity": 54, "note_on_time": 4.162, "note_off_time": 4.278}, {"pitch": 64, "velocity": 58, "note_on_time": 4.771, "note_off_time": 4.986}, {"pitch": 60, "velocity": 64, "note_on_time": 5.023, "note_off_time": 5.19}, {"pitch": 64, "velocity": 54, "note_on_time": 5.61, "note_off_time": 5.891}, {"pitch": 62, "velocity": 43, "note_on_time": 5.845, "note_off_time": 5.928}, {"pitch": 62, "velocity": 48, "note_on_time": 6.064, "note_off_time": 6.183}, {"pitch": 60, "velocity": 50, "note_on_time": 6.45, "note_off_time": 6.64}, {"pitch": 64, "velocity": 54, "note_on_time": 6.836, "note_off_time": 6.969}, {"pitch": 64, "velocity": 38, "note_on_time": 7.028, "note_off_time": 7.162}]</notes><guidance name="Guidance Mode">None</guidance><error name="Error value">0.6576665217391305</error></trial><trial trial_no="6" timestamp="2022_10_02-13_32_34"><notes name="Played Notes">[{"pitch": 62, "velocity": 63, "note_on_time": 0.818, "note_off_time": 1.026}, {"pitch": 64, "velocity": 67, "note_on_time": 1.026, "note_off_time": 1.144}, {"pitch": 64, "velocity": 54, "note_on_time": 1.238, "note_off_time": 1.328}, {"pitch": 64, "velocity": 53, "note_on_time": 1.441, "note_off_time": 1.647}, {"pitch": 62, "velocity": 64, "note_on_time": 1.656, "note_off_time": 1.785}, {"pitch": 60, "velocity": 64, "note_on_time": 1.849, "note_off_time": 1.981}, {"pitch": 60, "velocity": 55, "note_on_time": 2.063, "note_off_time": 2.151}, {"pitch": 60, "velocity": 52, "note_on_time": 2.271, "note_off_time": 2.445}, {"pitch": 62, "velocity": 60, "note_on_time": 2.482, "note_off_time": 2.675}, {"pitch": 60, "velocity": 58, "note_on_time": 2.885, "note_off_time": 3.066}, {"pitch": 64, "velocity": 52, "note_on_time": 3.307, "note_off_time": 3.412}, {"pitch": 64, "velocity": 54, "note_on_time": 3.52, "note_off_time": 3.663}, {"pitch": 62, "velocity": 47, "note_on_time": 3.757, "note_off_time": 3.883}, {"pitch": 64, "velocity": 56, "note_on_time": 4.585, "note_off_time": 4.759}, {"pitch": 60, "velocity": 40, "note_on_time": 4.805, "note_off_time": 4.994}, {"pitch": 60, "velocity": 51, "note_on_time": 5.442, "note_off_time": 5.683}, {"pitch": 62, "velocity": 49, "note_on_time": 5.686, "note_off_time": 5.81}, {"pitch": 64, "velocity": 27, "note_on_time": 6.434, "note_off_time": 6.56}, {"pitch": 64, "velocity": 54, "note_on_time": 6.663, "note_off_time": 6.756}, {"pitch": 64, "velocity": 52, "note_on_time": 6.874, "note_off_time": 7.018}]</notes><guidance name="Guidance Mode">None</guidance><error name="Error value">0.5537963043478259</error></trial></trials></MIDI>