<MIDI midiNo="2022_12_15-12_32_09"><target_notes><notes name="Note List">[{"pitch": 42, "velocity": 80, "note_on_time": 0.004, "note_off_time": 0.733}, {"pitch": 42, "velocity": 80, "note_on_time": 0.733, "note_off_time": 1.47}, {"pitch": 42, "velocity": 80, "note_on_time": 1.471, "note_off_time": 2.208}, {"pitch": 42, "velocity": 80, "note_on_time": 2.209, "note_off_time": 2.942}, {"pitch": 60, "velocity": 80, "note_on_time": 2.942, "note_off_time": 3.671}, {"pitch": 42, "velocity": 80, "note_on_time": 2.943, "note_off_time": 3.671}, {"pitch": 60, "velocity": 80, "note_on_time": 3.671, "note_off_time": 4.408}, {"pitch": 42, "velocity": 80, "note_on_time": 3.671, "note_off_time": 4.408}, {"pitch": 62, "velocity": 80, "note_on_time": 4.408, "note_off_time": 5.139}, {"pitch": 42, "velocity": 80, "note_on_time": 4.408, "note_off_time": 5.139}, {"pitch": 60, "velocity": 80, "note_on_time": 5.139, "note_off_time": 5.87}, {"pitch": 42, "velocity": 80, "note_on_time": 5.139, "note_off_time": 5.871}, {"pitch": 60, "velocity": 80, "note_on_time": 5.87, "note_off_time": 6.604}, {"pitch": 42, "velocity": 80, "note_on_time": 5.871, "note_off_time": 6.604}, {"pitch": 42, "velocity": 80, "note_on_time": 6.604, "note_off_time": 7.337}, {"pitch": 42, "velocity": 80, "note_on_time": 7.337, "note_off_time": 8.069}, {"pitch": 64, "velocity": 80, "note_on_time": 8.069, "note_off_time": 8.801}, {"pitch": 42, "velocity": 80, "note_on_time": 8.069, "note_off_time": 8.801}, {"pitch": 64, "velocity": 80, "note_on_time": 8.801, "note_off_time": 9.534}, {"pitch": 42, "velocity": 80, "note_on_time": 8.802, "note_off_time": 9.534}, {"pitch": 60, "velocity": 80, "note_on_time": 9.534, "note_off_time": 10.269}, {"pitch": 42, "velocity": 80, "note_on_time": 9.534, "note_off_time": 10.269}, {"pitch": 42, "velocity": 80, "note_on_time": 10.269, "note_off_time": 11.005}, {"pitch": 42, "velocity": 80, "note_on_time": 11.006, "note_off_time": 11.737}, {"pitch": 62, "velocity": 80, "note_on_time": 11.737, "note_off_time": 12.468}, {"pitch": 42, "velocity": 80, "note_on_time": 11.737, "note_off_time": 12.469}, {"pitch": 62, "velocity": 80, "note_on_time": 12.468, "note_off_time": 13.201}, {"pitch": 42, "velocity": 80, "note_on_time": 12.469, "note_off_time": 13.201}, {"pitch": 60, "velocity": 80, "note_on_time": 13.201, "note_off_time": 13.931}, {"pitch": 42, "velocity": 80, "note_on_time": 13.201, "note_off_time": 13.931}, {"pitch": 64, "velocity": 80, "note_on_time": 13.931, "note_off_time": 14.659}, {"pitch": 42, "velocity": 80, "note_on_time": 13.931, "note_off_time": 14.659}, {"pitch": 60, "velocity": 80, "note_on_time": 14.659, "note_off_time": 15.391}, {"pitch": 42, "velocity": 80, "note_on_time": 14.659, "note_off_time": 15.392}, {"pitch": 60, "velocity": 80, "note_on_time": 15.391, "note_off_time": 16.122}, {"pitch": 42, "velocity": 80, "note_on_time": 15.392, "note_off_time": 16.122}, {"pitch": 64, "velocity": 80, "note_on_time": 16.122, "note_off_time": 16.856}, {"pitch": 42, "velocity": 80, "note_on_time": 16.122, "note_off_time": 16.856}, {"pitch": 64, "velocity": 80, "note_on_time": 16.856, "note_off_time": 17.588}, {"pitch": 42, "velocity": 80, "note_on_time": 16.856, "note_off_time": 17.588}, {"pitch": 42, "velocity": 80, "note_on_time": 17.589, "note_off_time": 18.32}, {"pitch": 64, "velocity": 80, "note_on_time": 17.588, "note_off_time": 19.052}, {"pitch": 42, "velocity": 80, "note_on_time": 18.32, "note_off_time": 19.053}, {"pitch": 42, "velocity": 80, "note_on_time": 19.053, "note_off_time": 19.786}, {"pitch": 62, "velocity": 80, "note_on_time": 19.786, "note_off_time": 20.517}, {"pitch": 42, "velocity": 80, "note_on_time": 19.786, "note_off_time": 20.518}, {"pitch": 42, "velocity": 80, "note_on_time": 20.518, "note_off_time": 21.249}, {"pitch": 62, "velocity": 80, "note_on_time": 20.517, "note_off_time": 21.982}, {"pitch": 42, "velocity": 80, "note_on_time": 21.249, "note_off_time": 21.982}, {"pitch": 42, "velocity": 80, "note_on_time": 21.982, "note_off_time": 22.713}, {"pitch": 64, "velocity": 80, "note_on_time": 22.713, "note_off_time": 23.444}, {"pitch": 42, "velocity": 80, "note_on_time": 22.713, "note_off_time": 23.444}, {"pitch": 42, "velocity": 80, "note_on_time": 23.444, "note_off_time": 24.181}, {"pitch": 64, "velocity": 80, "note_on_time": 24.18, "note_off_time": 24.91}, {"pitch": 42, "velocity": 80, "note_on_time": 24.181, "note_off_time": 24.911}, {"pitch": 64, "velocity": 80, "note_on_time": 24.91, "note_off_time": 25.642}, {"pitch": 42, "velocity": 80, "note_on_time": 24.911, "note_off_time": 25.642}, {"pitch": 64, "velocity": 80, "note_on_time": 25.642, "note_off_time": 26.376}, {"pitch": 42, "velocity": 80, "note_on_time": 25.643, "note_off_time": 26.376}]</notes><options name="Option List">((4, 4), [0.5, 0.25], 3, 8, &lt;NoteRangePerHand.THREE_NOTES: 4&gt;, &lt;NoteRangePerHand.ONE_NOTE: 2&gt;, False, True, False, '83')</options></target_notes><trials><trial trial_no="1" timestamp="2022_12_15-12_31_41"><notes name="Played Notes">[{"pitch": 60, "velocity": 45, "note_on_time": 2.943, "note_off_time": 3.173}, {"pitch": 60, "velocity": 55, "note_on_time": 3.674, "note_off_time": 3.865}, {"pitch": 62, "velocity": 39, "note_on_time": 4.443, "note_off_time": 4.671}, {"pitch": 60, "velocity": 47, "note_on_time": 5.168, "note_off_time": 5.348}, {"pitch": 60, "velocity": 70, "note_on_time": 5.928, "note_off_time": 6.125}, {"pitch": 62, "velocity": 68, "note_on_time": 8.149, "note_off_time": 8.21}, {"pitch": 64, "velocity": 67, "note_on_time": 8.793, "note_off_time": 8.942}, {"pitch": 60, "velocity": 59, "note_on_time": 9.484, "note_off_time": 9.627}, {"pitch": 62, "velocity": 52, "note_on_time": 11.7, "note_off_time": 11.891}, {"pitch": 62, "velocity": 60, "note_on_time": 12.418, "note_off_time": 12.604}, {"pitch": 60, "velocity": 53, "note_on_time": 13.176, "note_off_time": 13.33}, {"pitch": 64, "velocity": 53, "note_on_time": 13.881, "note_off_time": 14.05}, {"pitch": 60, "velocity": 28, "note_on_time": 14.646, "note_off_time": 14.83}, {"pitch": 60, "velocity": 47, "note_on_time": 15.383, "note_off_time": 15.5}, {"pitch": 64, "velocity": 50, "note_on_time": 16.108, "note_off_time": 16.275}, {"pitch": 64, "velocity": 52, "note_on_time": 16.82, "note_off_time": 16.916}, {"pitch": 64, "velocity": 55, "note_on_time": 17.562, "note_off_time": 18.277}, {"pitch": 62, "velocity": 55, "note_on_time": 19.77, "note_off_time": 19.927}, {"pitch": 62, "velocity": 52, "note_on_time": 20.482, "note_off_time": 21.291}, {"pitch": 64, "velocity": 56, "note_on_time": 22.793, "note_off_time": 22.975}, {"pitch": 64, "velocity": 53, "note_on_time": 24.128, "note_off_time": 24.28}, {"pitch": 64, "velocity": 48, "note_on_time": 24.858, "note_off_time": 25.001}, {"pitch": 64, "velocity": 56, "note_on_time": 25.572, "note_off_time": 25.699}]</notes><guidance name="Guidance Mode">None</guidance><error name="Error value">0.08847084999999996</error></trial><trial trial_no="2" timestamp="2022_12_15-12_32_19"><notes name="Played Notes">[{"pitch": 60, "velocity": 56, "note_on_time": 2.979, "note_off_time": 3.118}, {"pitch": 60, "velocity": 77, "note_on_time": 3.674, "note_off_time": 3.796}, {"pitch": 62, "velocity": 56, "note_on_time": 4.33, "note_off_time": 4.486}, {"pitch": 60, "velocity": 55, "note_on_time": 5.061, "note_off_time": 5.201}, {"pitch": 60, "velocity": 60, "note_on_time": 5.821, "note_off_time": 5.955}, {"pitch": 64, "velocity": 55, "note_on_time": 8.038, "note_off_time": 8.203}, {"pitch": 64, "velocity": 52, "note_on_time": 8.842, "note_off_time": 9.003}, {"pitch": 60, "velocity": 55, "note_on_time": 9.51, "note_off_time": 9.675}, {"pitch": 62, "velocity": 41, "note_on_time": 11.677, "note_off_time": 11.849}, {"pitch": 62, "velocity": 37, "note_on_time": 12.422, "note_off_time": 12.592}, {"pitch": 60, "velocity": 41, "note_on_time": 13.149, "note_off_time": 13.245}, {"pitch": 64, "velocity": 46, "note_on_time": 13.856, "note_off_time": 13.997}, {"pitch": 60, "velocity": 43, "note_on_time": 14.649, "note_off_time": 14.733}, {"pitch": 60, "velocity": 48, "note_on_time": 15.341, "note_off_time": 15.467}, {"pitch": 64, "velocity": 44, "note_on_time": 16.105, "note_off_time": 16.279}, {"pitch": 64, "velocity": 50, "note_on_time": 16.833, "note_off_time": 16.984}, {"pitch": 64, "velocity": 55, "note_on_time": 17.558, "note_off_time": 18.354}, {"pitch": 62, "velocity": 65, "note_on_time": 19.737, "note_off_time": 19.833}, {"pitch": 62, "velocity": 64, "note_on_time": 20.452, "note_off_time": 21.153}, {"pitch": 64, "velocity": 54, "note_on_time": 22.692, "note_off_time": 22.878}, {"pitch": 64, "velocity": 56, "note_on_time": 24.179, "note_off_time": 24.305}, {"pitch": 64, "velocity": 57, "note_on_time": 24.971, "note_off_time": 25.059}, {"pitch": 64, "velocity": 48, "note_on_time": 25.697, "note_off_time": 25.819}]</notes><guidance name="Guidance Mode">None</guidance><error name="Error value">0.03602084999999926</error></trial><trial trial_no="3" timestamp="2022_12_15-12_33_00"><notes name="Played Notes">[{"pitch": 60, "velocity": 46, "note_on_time": 2.912, "note_off_time": 3.157}, {"pitch": 60, "velocity": 52, "note_on_time": 3.62, "note_off_time": 3.851}, {"pitch": 62, "velocity": 49, "note_on_time": 4.341, "note_off_time": 4.614}, {"pitch": 60, "velocity": 45, "note_on_time": 5.101, "note_off_time": 5.299}, {"pitch": 60, "velocity": 56, "note_on_time": 5.809, "note_off_time": 6.005}, {"pitch": 64, "velocity": 51, "note_on_time": 7.982, "note_off_time": 8.15}, {"pitch": 64, "velocity": 53, "note_on_time": 8.768, "note_off_time": 8.957}, {"pitch": 60, "velocity": 53, "note_on_time": 9.518, "note_off_time": 9.697}, {"pitch": 62, "velocity": 48, "note_on_time": 11.708, "note_off_time": 11.858}, {"pitch": 62, "velocity": 47, "note_on_time": 12.417, "note_off_time": 12.572}, {"pitch": 60, "velocity": 41, "note_on_time": 13.161, "note_off_time": 13.252}, {"pitch": 64, "velocity": 49, "note_on_time": 13.93, "note_off_time": 14.067}, {"pitch": 60, "velocity": 44, "note_on_time": 14.672, "note_off_time": 14.787}, {"pitch": 60, "velocity": 49, "note_on_time": 15.318, "note_off_time": 15.446}, {"pitch": 64, "velocity": 41, "note_on_time": 16.099, "note_off_time": 16.267}, {"pitch": 64, "velocity": 48, "note_on_time": 16.804, "note_off_time": 16.93}, {"pitch": 64, "velocity": 54, "note_on_time": 17.509, "note_off_time": 18.303}, {"pitch": 62, "velocity": 44, "note_on_time": 19.76, "note_off_time": 19.908}, {"pitch": 62, "velocity": 56, "note_on_time": 20.483, "note_off_time": 21.216}, {"pitch": 64, "velocity": 62, "note_on_time": 22.735, "note_off_time": 22.873}, {"pitch": 64, "velocity": 64, "note_on_time": 24.199, "note_off_time": 24.331}, {"pitch": 64, "velocity": 57, "note_on_time": 24.9, "note_off_time": 25.042}, {"pitch": 64, "velocity": 53, "note_on_time": 25.648, "note_off_time": 25.798}]</notes><guidance name="Guidance Mode">None</guidance><error name="Error value">0.034331750000000036</error></trial><trial trial_no="4" timestamp="2022_12_15-12_33_34"><notes name="Played Notes">[{"pitch": 60, "velocity": 34, "note_on_time": 2.936, "note_off_time": 3.109}, {"pitch": 60, "velocity": 44, "note_on_time": 3.633, "note_off_time": 3.777}, {"pitch": 62, "velocity": 41, "note_on_time": 4.378, "note_off_time": 4.544}, {"pitch": 60, "velocity": 58, "note_on_time": 5.095, "note_off_time": 5.215}, {"pitch": 60, "velocity": 56, "note_on_time": 5.816, "note_off_time": 5.977}, {"pitch": 64, "velocity": 53, "note_on_time": 7.97, "note_off_time": 8.113}, {"pitch": 64, "velocity": 51, "note_on_time": 8.744, "note_off_time": 8.864}, {"pitch": 60, "velocity": 55, "note_on_time": 9.506, "note_off_time": 9.604}, {"pitch": 62, "velocity": 36, "note_on_time": 11.657, "note_off_time": 11.816}, {"pitch": 62, "velocity": 40, "note_on_time": 12.393, "note_off_time": 12.561}, {"pitch": 60, "velocity": 51, "note_on_time": 13.099, "note_off_time": 13.182}, {"pitch": 64, "velocity": 51, "note_on_time": 13.854, "note_off_time": 14.019}, {"pitch": 60, "velocity": 53, "note_on_time": 14.608, "note_off_time": 14.743}, {"pitch": 60, "velocity": 53, "note_on_time": 15.351, "note_off_time": 15.492}, {"pitch": 64, "velocity": 57, "note_on_time": 16.085, "note_off_time": 16.258}, {"pitch": 64, "velocity": 48, "note_on_time": 16.836, "note_off_time": 16.978}, {"pitch": 64, "velocity": 59, "note_on_time": 17.553, "note_off_time": 18.316}, {"pitch": 62, "velocity": 45, "note_on_time": 19.709, "note_off_time": 19.847}, {"pitch": 62, "velocity": 55, "note_on_time": 20.412, "note_off_time": 21.743}, {"pitch": 64, "velocity": 60, "note_on_time": 22.707, "note_off_time": 22.824}, {"pitch": 64, "velocity": 55, "note_on_time": 24.143, "note_off_time": 24.3}, {"pitch": 64, "velocity": 53, "note_on_time": 24.894, "note_off_time": 24.983}, {"pitch": 64, "velocity": 55, "note_on_time": 25.57, "note_off_time": 25.7}]</notes><guidance name="Guidance Mode">None</guidance><error name="Error value">0.02902274999999972</error></trial><trial trial_no="5" timestamp="2022_12_15-12_34_11"><notes name="Played Notes">[{"pitch": 60, "velocity": 54, "note_on_time": 2.924, "note_off_time": 3.074}, {"pitch": 60, "velocity": 53, "note_on_time": 3.674, "note_off_time": 3.815}, {"pitch": 62, "velocity": 51, "note_on_time": 4.401, "note_off_time": 4.552}, {"pitch": 60, "velocity": 42, "note_on_time": 5.121, "note_off_time": 5.219}, {"pitch": 60, "velocity": 55, "note_on_time": 5.84, "note_off_time": 5.998}, {"pitch": 64, "velocity": 63, "note_on_time": 8.03, "note_off_time": 8.185}, {"pitch": 64, "velocity": 57, "note_on_time": 8.782, "note_off_time": 8.931}, {"pitch": 60, "velocity": 71, "note_on_time": 9.528, "note_off_time": 9.647}, {"pitch": 62, "velocity": 54, "note_on_time": 11.711, "note_off_time": 11.869}, {"pitch": 62, "velocity": 52, "note_on_time": 12.416, "note_off_time": 12.56}, {"pitch": 60, "velocity": 61, "note_on_time": 13.144, "note_off_time": 13.291}, {"pitch": 64, "velocity": 63, "note_on_time": 13.914, "note_off_time": 14.062}, {"pitch": 60, "velocity": 57, "note_on_time": 14.677, "note_off_time": 14.779}, {"pitch": 60, "velocity": 59, "note_on_time": 15.383, "note_off_time": 15.52}, {"pitch": 64, "velocity": 57, "note_on_time": 16.14, "note_off_time": 16.273}, {"pitch": 64, "velocity": 59, "note_on_time": 16.834, "note_off_time": 16.97}, {"pitch": 64, "velocity": 64, "note_on_time": 17.562, "note_off_time": 18.298}, {"pitch": 62, "velocity": 54, "note_on_time": 19.779, "note_off_time": 19.9}, {"pitch": 62, "velocity": 60, "note_on_time": 20.549, "note_off_time": 21.772}, {"pitch": 64, "velocity": 57, "note_on_time": 22.718, "note_off_time": 22.836}, {"pitch": 64, "velocity": 47, "note_on_time": 24.157, "note_off_time": 24.297}, {"pitch": 64, "velocity": 53, "note_on_time": 24.904, "note_off_time": 25.035}, {"pitch": 64, "velocity": 49, "note_on_time": 25.67, "note_off_time": 25.797}]</notes><guidance name="Guidance Mode">None</guidance><error name="Error value">0.02454264999999991</error></trial></trials></MIDI>