<MIDI midiNo="2022_11_10-11_43_11"><target_notes><notes name="Note List">[{"pitch": 42, "velocity": 80, "note_on_time": 0.004, "note_off_time": 0.733}, {"pitch": 42, "velocity": 80, "note_on_time": 0.734, "note_off_time": 1.462}, {"pitch": 42, "velocity": 80, "note_on_time": 1.462, "note_off_time": 2.192}, {"pitch": 42, "velocity": 80, "note_on_time": 2.192, "note_off_time": 2.923}, {"pitch": 62, "velocity": 80, "note_on_time": 2.923, "note_off_time": 3.652}, {"pitch": 42, "velocity": 80, "note_on_time": 2.923, "note_off_time": 3.653}, {"pitch": 64, "velocity": 80, "note_on_time": 3.652, "note_off_time": 4.382}, {"pitch": 42, "velocity": 80, "note_on_time": 3.653, "note_off_time": 4.382}, {"pitch": 62, "velocity": 80, "note_on_time": 4.382, "note_off_time": 5.114}, {"pitch": 42, "velocity": 80, "note_on_time": 4.382, "note_off_time": 5.115}, {"pitch": 62, "velocity": 80, "note_on_time": 5.114, "note_off_time": 5.843}, {"pitch": 42, "velocity": 80, "note_on_time": 5.115, "note_off_time": 5.844}, {"pitch": 62, "velocity": 80, "note_on_time": 5.843, "note_off_time": 6.574}, {"pitch": 42, "velocity": 80, "note_on_time": 5.844, "note_off_time": 6.574}, {"pitch": 60, "velocity": 80, "note_on_time": 6.574, "note_off_time": 7.305}, {"pitch": 42, "velocity": 80, "note_on_time": 6.575, "note_off_time": 7.305}, {"pitch": 62, "velocity": 80, "note_on_time": 7.305, "note_off_time": 8.037}, {"pitch": 42, "velocity": 80, "note_on_time": 7.305, "note_off_time": 8.037}, {"pitch": 60, "velocity": 80, "note_on_time": 8.037, "note_off_time": 8.766}, {"pitch": 42, "velocity": 80, "note_on_time": 8.037, "note_off_time": 8.767}, {"pitch": 60, "velocity": 80, "note_on_time": 8.766, "note_off_time": 9.496}, {"pitch": 42, "velocity": 80, "note_on_time": 8.767, "note_off_time": 9.496}, {"pitch": 64, "velocity": 80, "note_on_time": 9.496, "note_off_time": 10.226}, {"pitch": 42, "velocity": 80, "note_on_time": 9.496, "note_off_time": 10.226}, {"pitch": 64, "velocity": 80, "note_on_time": 10.226, "note_off_time": 10.957}, {"pitch": 42, "velocity": 80, "note_on_time": 10.226, "note_off_time": 10.958}, {"pitch": 62, "velocity": 80, "note_on_time": 10.957, "note_off_time": 11.687}, {"pitch": 42, "velocity": 80, "note_on_time": 10.958, "note_off_time": 11.688}, {"pitch": 60, "velocity": 80, "note_on_time": 11.687, "note_off_time": 12.419}, {"pitch": 42, "velocity": 80, "note_on_time": 11.688, "note_off_time": 12.419}, {"pitch": 42, "velocity": 80, "note_on_time": 12.42, "note_off_time": 13.151}, {"pitch": 64, "velocity": 80, "note_on_time": 12.419, "note_off_time": 13.882}, {"pitch": 42, "velocity": 80, "note_on_time": 13.151, "note_off_time": 13.882}, {"pitch": 62, "velocity": 80, "note_on_time": 13.882, "note_off_time": 14.613}, {"pitch": 42, "velocity": 80, "note_on_time": 13.882, "note_off_time": 14.614}, {"pitch": 42, "velocity": 80, "note_on_time": 14.614, "note_off_time": 15.345}, {"pitch": 60, "velocity": 80, "note_on_time": 14.613, "note_off_time": 16.075}, {"pitch": 42, "velocity": 80, "note_on_time": 15.345, "note_off_time": 16.075}, {"pitch": 42, "velocity": 80, "note_on_time": 16.076, "note_off_time": 16.807}, {"pitch": 42, "velocity": 80, "note_on_time": 16.807, "note_off_time": 17.54}, {"pitch": 42, "velocity": 80, "note_on_time": 17.541, "note_off_time": 18.273}, {"pitch": 62, "velocity": 80, "note_on_time": 17.54, "note_off_time": 19.004}, {"pitch": 42, "velocity": 80, "note_on_time": 18.274, "note_off_time": 19.004}, {"pitch": 42, "velocity": 80, "note_on_time": 19.004, "note_off_time": 19.733}, {"pitch": 42, "velocity": 80, "note_on_time": 19.733, "note_off_time": 20.468}, {"pitch": 60, "velocity": 80, "note_on_time": 20.468, "note_off_time": 21.192}, {"pitch": 42, "velocity": 80, "note_on_time": 20.468, "note_off_time": 21.192}, {"pitch": 42, "velocity": 80, "note_on_time": 21.192, "note_off_time": 21.924}, {"pitch": 42, "velocity": 80, "note_on_time": 21.925, "note_off_time": 22.655}, {"pitch": 42, "velocity": 80, "note_on_time": 22.655, "note_off_time": 23.386}, {"pitch": 42, "velocity": 80, "note_on_time": 23.386, "note_off_time": 24.115}, {"pitch": 60, "velocity": 80, "note_on_time": 24.115, "note_off_time": 24.845}, {"pitch": 42, "velocity": 80, "note_on_time": 24.115, "note_off_time": 24.845}, {"pitch": 60, "velocity": 80, "note_on_time": 24.845, "note_off_time": 25.579}, {"pitch": 42, "velocity": 80, "note_on_time": 24.845, "note_off_time": 25.579}, {"pitch": 60, "velocity": 80, "note_on_time": 25.579, "note_off_time": 26.308}, {"pitch": 42, "velocity": 80, "note_on_time": 25.579, "note_off_time": 26.308}]</notes><options name="Option List">((4, 4), [0.5, 0.25], 3, 8, &lt;NoteRangePerHand.THREE_NOTES: 4&gt;, &lt;NoteRangePerHand.ONE_NOTE: 2&gt;, False, True, False, 83)</options></target_notes><trials><trial trial_no="1" timestamp="2022_11_10-11_42_43"><notes name="Played Notes">[{"pitch": 62, "velocity": 69, "note_on_time": 2.944, "note_off_time": 3.308}, {"pitch": 64, "velocity": 74, "note_on_time": 3.688, "note_off_time": 4.04}, {"pitch": 62, "velocity": 73, "note_on_time": 4.412, "note_off_time": 4.751}, {"pitch": 62, "velocity": 80, "note_on_time": 5.144, "note_off_time": 5.458}, {"pitch": 62, "velocity": 77, "note_on_time": 5.902, "note_off_time": 6.178}, {"pitch": 60, "velocity": 81, "note_on_time": 6.593, "note_off_time": 6.888}, {"pitch": 62, "velocity": 79, "note_on_time": 7.291, "note_off_time": 7.564}, {"pitch": 60, "velocity": 84, "note_on_time": 8.011, "note_off_time": 8.297}, {"pitch": 60, "velocity": 80, "note_on_time": 8.771, "note_off_time": 9.067}, {"pitch": 64, "velocity": 78, "note_on_time": 9.568, "note_off_time": 9.856}, {"pitch": 64, "velocity": 73, "note_on_time": 10.27, "note_off_time": 10.542}, {"pitch": 62, "velocity": 73, "note_on_time": 10.956, "note_off_time": 11.206}, {"pitch": 60, "velocity": 77, "note_on_time": 11.642, "note_off_time": 11.902}, {"pitch": 64, "velocity": 78, "note_on_time": 12.298, "note_off_time": 13.267}, {"pitch": 62, "velocity": 67, "note_on_time": 13.815, "note_off_time": 14.165}, {"pitch": 60, "velocity": 77, "note_on_time": 14.529, "note_off_time": 15.509}, {"pitch": 62, "velocity": 76, "note_on_time": 17.499, "note_off_time": 18.373}, {"pitch": 60, "velocity": 84, "note_on_time": 20.456, "note_off_time": 20.786}, {"pitch": 60, "velocity": 78, "note_on_time": 23.369, "note_off_time": 23.623}, {"pitch": 60, "velocity": 74, "note_on_time": 24.049, "note_off_time": 24.291}, {"pitch": 60, "velocity": 73, "note_on_time": 24.759, "note_off_time": 25.073}]</notes><guidance name="Guidance Mode">None</guidance><error name="Error value">0.07667272222222227</error></trial><trial trial_no="2" timestamp="2022_11_10-11_43_21"><notes name="Played Notes">[{"pitch": 62, "velocity": 83, "note_on_time": 2.914, "note_off_time": 3.229}, {"pitch": 64, "velocity": 75, "note_on_time": 3.672, "note_off_time": 3.979}, {"pitch": 62, "velocity": 81, "note_on_time": 4.408, "note_off_time": 4.728}, {"pitch": 62, "velocity": 78, "note_on_time": 5.117, "note_off_time": 5.445}, {"pitch": 62, "velocity": 83, "note_on_time": 5.868, "note_off_time": 6.186}, {"pitch": 60, "velocity": 81, "note_on_time": 6.554, "note_off_time": 6.856}, {"pitch": 62, "velocity": 76, "note_on_time": 7.293, "note_off_time": 7.625}, {"pitch": 60, "velocity": 83, "note_on_time": 8.017, "note_off_time": 8.303}, {"pitch": 60, "velocity": 85, "note_on_time": 8.719, "note_off_time": 9.031}, {"pitch": 64, "velocity": 73, "note_on_time": 9.466, "note_off_time": 9.758}, {"pitch": 64, "velocity": 76, "note_on_time": 10.235, "note_off_time": 10.494}, {"pitch": 62, "velocity": 79, "note_on_time": 10.936, "note_off_time": 11.218}, {"pitch": 60, "velocity": 78, "note_on_time": 11.651, "note_off_time": 11.926}, {"pitch": 62, "velocity": 73, "note_on_time": 12.412, "note_off_time": 13.318}, {"pitch": 60, "velocity": 74, "note_on_time": 14.075, "note_off_time": 14.44}, {"pitch": 60, "velocity": 88, "note_on_time": 15.935, "note_off_time": 16.787}, {"pitch": 62, "velocity": 79, "note_on_time": 18.257, "note_off_time": 19.167}, {"pitch": 60, "velocity": 83, "note_on_time": 20.453, "note_off_time": 20.892}, {"pitch": 60, "velocity": 84, "note_on_time": 23.337, "note_off_time": 23.633}, {"pitch": 60, "velocity": 81, "note_on_time": 24.018, "note_off_time": 24.324}, {"pitch": 60, "velocity": 75, "note_on_time": 24.721, "note_off_time": 25.1}]</notes><guidance name="Guidance Mode">None</guidance><error name="Error value">0.31750105555555574</error></trial><trial trial_no="3" timestamp="2022_11_10-11_43_59"><notes name="Played Notes">[{"pitch": 62, "velocity": 84, "note_on_time": 2.865, "note_off_time": 3.178}, {"pitch": 64, "velocity": 76, "note_on_time": 3.598, "note_off_time": 3.873}, {"pitch": 62, "velocity": 73, "note_on_time": 4.315, "note_off_time": 4.601}, {"pitch": 62, "velocity": 75, "note_on_time": 5.012, "note_off_time": 5.272}, {"pitch": 62, "velocity": 83, "note_on_time": 5.729, "note_off_time": 5.951}, {"pitch": 60, "velocity": 74, "note_on_time": 6.424, "note_off_time": 6.672}, {"pitch": 62, "velocity": 81, "note_on_time": 7.162, "note_off_time": 7.417}, {"pitch": 60, "velocity": 79, "note_on_time": 7.903, "note_off_time": 8.153}, {"pitch": 60, "velocity": 82, "note_on_time": 8.627, "note_off_time": 8.893}, {"pitch": 64, "velocity": 68, "note_on_time": 9.369, "note_off_time": 9.648}, {"pitch": 64, "velocity": 70, "note_on_time": 10.084, "note_off_time": 10.356}, {"pitch": 62, "velocity": 69, "note_on_time": 10.802, "note_off_time": 11.101}, {"pitch": 60, "velocity": 73, "note_on_time": 11.525, "note_off_time": 11.815}, {"pitch": 64, "velocity": 72, "note_on_time": 12.294, "note_off_time": 13.337}, {"pitch": 62, "velocity": 72, "note_on_time": 13.81, "note_off_time": 14.24}, {"pitch": 60, "velocity": 71, "note_on_time": 14.604, "note_off_time": 15.537}, {"pitch": 62, "velocity": 75, "note_on_time": 17.395, "note_off_time": 18.221}, {"pitch": 60, "velocity": 75, "note_on_time": 20.359, "note_off_time": 20.852}, {"pitch": 60, "velocity": 85, "note_on_time": 23.977, "note_off_time": 24.244}, {"pitch": 60, "velocity": 87, "note_on_time": 24.666, "note_off_time": 24.928}, {"pitch": 60, "velocity": 88, "note_on_time": 25.325, "note_off_time": 25.676}]</notes><guidance name="Guidance Mode">None</guidance><error name="Error value">0.033542388888888684</error></trial></trials></MIDI>