<MIDI midiNo="2022_12_22-12_09_56"><target_notes><notes name="Note List">[{"pitch": 42, "velocity": 80, "note_on_time": 0.004, "note_off_time": 0.368}, {"pitch": 42, "velocity": 80, "note_on_time": 0.369, "note_off_time": 0.739}, {"pitch": 42, "velocity": 80, "note_on_time": 0.74, "note_off_time": 1.112}, {"pitch": 42, "velocity": 80, "note_on_time": 1.112, "note_off_time": 1.488}, {"pitch": 65, "velocity": 80, "note_on_time": 1.487, "note_off_time": 1.859}, {"pitch": 42, "velocity": 80, "note_on_time": 1.488, "note_off_time": 1.859}, {"pitch": 60, "velocity": 80, "note_on_time": 1.859, "note_off_time": 2.233}, {"pitch": 42, "velocity": 80, "note_on_time": 1.86, "note_off_time": 2.233}, {"pitch": 62, "velocity": 80, "note_on_time": 2.233, "note_off_time": 2.608}, {"pitch": 42, "velocity": 80, "note_on_time": 2.233, "note_off_time": 2.608}, {"pitch": 62, "velocity": 80, "note_on_time": 2.608, "note_off_time": 2.983}, {"pitch": 42, "velocity": 80, "note_on_time": 2.608, "note_off_time": 2.983}, {"pitch": 65, "velocity": 80, "note_on_time": 2.983, "note_off_time": 3.353}, {"pitch": 42, "velocity": 80, "note_on_time": 2.983, "note_off_time": 3.353}, {"pitch": 62, "velocity": 80, "note_on_time": 3.353, "note_off_time": 3.729}, {"pitch": 42, "velocity": 80, "note_on_time": 3.353, "note_off_time": 3.729}, {"pitch": 67, "velocity": 80, "note_on_time": 3.729, "note_off_time": 4.104}, {"pitch": 42, "velocity": 80, "note_on_time": 3.729, "note_off_time": 4.104}, {"pitch": 65, "velocity": 80, "note_on_time": 4.104, "note_off_time": 4.477}, {"pitch": 42, "velocity": 80, "note_on_time": 4.104, "note_off_time": 4.478}, {"pitch": 60, "velocity": 80, "note_on_time": 4.477, "note_off_time": 4.85}, {"pitch": 42, "velocity": 80, "note_on_time": 4.478, "note_off_time": 4.85}, {"pitch": 60, "velocity": 80, "note_on_time": 4.85, "note_off_time": 5.224}, {"pitch": 42, "velocity": 80, "note_on_time": 4.85, "note_off_time": 5.225}, {"pitch": 60, "velocity": 80, "note_on_time": 5.224, "note_off_time": 5.599}, {"pitch": 42, "velocity": 80, "note_on_time": 5.225, "note_off_time": 5.599}, {"pitch": 64, "velocity": 80, "note_on_time": 5.599, "note_off_time": 5.973}, {"pitch": 42, "velocity": 80, "note_on_time": 5.599, "note_off_time": 5.973}, {"pitch": 64, "velocity": 80, "note_on_time": 5.973, "note_off_time": 6.345}, {"pitch": 42, "velocity": 80, "note_on_time": 5.974, "note_off_time": 6.346}, {"pitch": 62, "velocity": 80, "note_on_time": 6.345, "note_off_time": 6.719}, {"pitch": 42, "velocity": 80, "note_on_time": 6.346, "note_off_time": 6.72}, {"pitch": 62, "velocity": 80, "note_on_time": 6.719, "note_off_time": 7.091}, {"pitch": 42, "velocity": 80, "note_on_time": 6.72, "note_off_time": 7.092}, {"pitch": 67, "velocity": 80, "note_on_time": 7.091, "note_off_time": 7.468}, {"pitch": 42, "velocity": 80, "note_on_time": 7.092, "note_off_time": 7.469}, {"pitch": 60, "velocity": 80, "note_on_time": 7.468, "note_off_time": 7.841}, {"pitch": 42, "velocity": 80, "note_on_time": 7.469, "note_off_time": 7.842}, {"pitch": 65, "velocity": 80, "note_on_time": 7.841, "note_off_time": 8.217}, {"pitch": 42, "velocity": 80, "note_on_time": 7.842, "note_off_time": 8.218}, {"pitch": 67, "velocity": 80, "note_on_time": 8.217, "note_off_time": 8.59}, {"pitch": 42, "velocity": 80, "note_on_time": 8.218, "note_off_time": 8.59}, {"pitch": 67, "velocity": 80, "note_on_time": 8.59, "note_off_time": 8.965}, {"pitch": 42, "velocity": 80, "note_on_time": 8.59, "note_off_time": 8.966}, {"pitch": 60, "velocity": 80, "note_on_time": 8.965, "note_off_time": 9.339}, {"pitch": 42, "velocity": 80, "note_on_time": 8.966, "note_off_time": 9.339}, {"pitch": 67, "velocity": 80, "note_on_time": 9.339, "note_off_time": 9.715}, {"pitch": 42, "velocity": 80, "note_on_time": 9.34, "note_off_time": 9.715}, {"pitch": 60, "velocity": 80, "note_on_time": 9.715, "note_off_time": 10.09}, {"pitch": 42, "velocity": 80, "note_on_time": 9.715, "note_off_time": 10.09}, {"pitch": 42, "velocity": 80, "note_on_time": 10.09, "note_off_time": 10.462}, {"pitch": 42, "velocity": 80, "note_on_time": 10.463, "note_off_time": 10.837}, {"pitch": 60, "velocity": 80, "note_on_time": 10.462, "note_off_time": 11.209}, {"pitch": 42, "velocity": 80, "note_on_time": 10.837, "note_off_time": 11.209}, {"pitch": 42, "velocity": 80, "note_on_time": 11.209, "note_off_time": 11.583}, {"pitch": 42, "velocity": 80, "note_on_time": 11.583, "note_off_time": 11.955}, {"pitch": 42, "velocity": 80, "note_on_time": 11.955, "note_off_time": 12.326}, {"pitch": 60, "velocity": 80, "note_on_time": 12.326, "note_off_time": 12.701}, {"pitch": 42, "velocity": 80, "note_on_time": 12.326, "note_off_time": 12.701}, {"pitch": 60, "velocity": 80, "note_on_time": 12.701, "note_off_time": 13.074}, {"pitch": 42, "velocity": 80, "note_on_time": 12.702, "note_off_time": 13.074}, {"pitch": 60, "velocity": 80, "note_on_time": 13.074, "note_off_time": 13.448}, {"pitch": 42, "velocity": 80, "note_on_time": 13.074, "note_off_time": 13.448}]</notes><options name="Option List">((4, 4), [0.5, 0.25], 3, 8, &lt;NoteRangePerHand.C_TO_G: 6&gt;, &lt;NoteRangePerHand.ONE_NOTE: 2&gt;, False, True, False, '166')</options></target_notes><trials><trial trial_no="1" timestamp="2022_12_22-12_09_41"><notes name="Played Notes">[{"pitch": 65, "velocity": 56, "note_on_time": 1.493, "note_off_time": 1.824}, {"pitch": 60, "velocity": 51, "note_on_time": 1.817, "note_off_time": 2.245}, {"pitch": 62, "velocity": 64, "note_on_time": 2.232, "note_off_time": 2.417}, {"pitch": 62, "velocity": 74, "note_on_time": 2.597, "note_off_time": 2.959}, {"pitch": 65, "velocity": 76, "note_on_time": 2.958, "note_off_time": 3.333}, {"pitch": 62, "velocity": 66, "note_on_time": 3.339, "note_off_time": 3.724}, {"pitch": 67, "velocity": 55, "note_on_time": 3.728, "note_off_time": 4.113}, {"pitch": 65, "velocity": 74, "note_on_time": 4.101, "note_off_time": 4.443}, {"pitch": 60, "velocity": 69, "note_on_time": 4.484, "note_off_time": 4.619}, {"pitch": 60, "velocity": 73, "note_on_time": 4.818, "note_off_time": 4.938}, {"pitch": 60, "velocity": 81, "note_on_time": 5.191, "note_off_time": 5.589}, {"pitch": 64, "velocity": 65, "note_on_time": 5.568, "note_off_time": 5.717}, {"pitch": 64, "velocity": 71, "note_on_time": 5.936, "note_off_time": 6.272}, {"pitch": 62, "velocity": 66, "note_on_time": 6.302, "note_off_time": 6.459}, {"pitch": 62, "velocity": 71, "note_on_time": 6.705, "note_off_time": 7.053}, {"pitch": 67, "velocity": 68, "note_on_time": 7.061, "note_off_time": 7.411}, {"pitch": 60, "velocity": 63, "note_on_time": 7.445, "note_off_time": 7.818}, {"pitch": 65, "velocity": 68, "note_on_time": 7.817, "note_off_time": 8.188}, {"pitch": 67, "velocity": 60, "note_on_time": 8.191, "note_off_time": 8.363}, {"pitch": 67, "velocity": 55, "note_on_time": 8.564, "note_off_time": 8.906}, {"pitch": 60, "velocity": 67, "note_on_time": 8.939, "note_off_time": 9.29}, {"pitch": 67, "velocity": 61, "note_on_time": 9.305, "note_off_time": 9.713}, {"pitch": 60, "velocity": 64, "note_on_time": 9.723, "note_off_time": 9.909}, {"pitch": 60, "velocity": 74, "note_on_time": 10.534, "note_off_time": 11.556}, {"pitch": 60, "velocity": 77, "note_on_time": 12.335, "note_off_time": 12.472}, {"pitch": 60, "velocity": 84, "note_on_time": 12.696, "note_off_time": 12.83}, {"pitch": 60, "velocity": 84, "note_on_time": 13.063, "note_off_time": 13.268}]</notes><guidance name="Guidance Mode">None</guidance><error name="Error value">0.021671041666666873</error></trial><trial trial_no="2" timestamp="2022_12_22-12_10_18"><notes name="Played Notes">[{"pitch": 65, "velocity": 72, "note_on_time": 1.499, "note_off_time": 1.852}, {"pitch": 60, "velocity": 81, "note_on_time": 1.882, "note_off_time": 2.234}, {"pitch": 62, "velocity": 71, "note_on_time": 2.238, "note_off_time": 2.356}, {"pitch": 62, "velocity": 71, "note_on_time": 2.605, "note_off_time": 2.964}, {"pitch": 65, "velocity": 68, "note_on_time": 2.979, "note_off_time": 3.336}, {"pitch": 62, "velocity": 57, "note_on_time": 3.365, "note_off_time": 3.76}, {"pitch": 67, "velocity": 71, "note_on_time": 3.747, "note_off_time": 4.124}, {"pitch": 65, "velocity": 80, "note_on_time": 4.117, "note_off_time": 4.44}, {"pitch": 60, "velocity": 76, "note_on_time": 4.477, "note_off_time": 4.607}, {"pitch": 60, "velocity": 73, "note_on_time": 4.841, "note_off_time": 4.969}, {"pitch": 60, "velocity": 73, "note_on_time": 5.184, "note_off_time": 5.595}, {"pitch": 64, "velocity": 65, "note_on_time": 5.605, "note_off_time": 5.738}, {"pitch": 64, "velocity": 67, "note_on_time": 5.958, "note_off_time": 6.307}, {"pitch": 62, "velocity": 59, "note_on_time": 6.342, "note_off_time": 6.459}, {"pitch": 62, "velocity": 76, "note_on_time": 6.692, "note_off_time": 7.054}, {"pitch": 67, "velocity": 77, "note_on_time": 7.057, "note_off_time": 7.44}, {"pitch": 60, "velocity": 71, "note_on_time": 7.455, "note_off_time": 7.838}, {"pitch": 65, "velocity": 72, "note_on_time": 7.837, "note_off_time": 8.198}, {"pitch": 67, "velocity": 62, "note_on_time": 8.212, "note_off_time": 8.352}, {"pitch": 67, "velocity": 77, "note_on_time": 8.585, "note_off_time": 8.936}, {"pitch": 60, "velocity": 79, "note_on_time": 8.954, "note_off_time": 9.318}, {"pitch": 67, "velocity": 71, "note_on_time": 9.317, "note_off_time": 9.673}, {"pitch": 60, "velocity": 71, "note_on_time": 9.691, "note_off_time": 9.826}, {"pitch": 60, "velocity": 77, "note_on_time": 10.455, "note_off_time": 11.353}, {"pitch": 60, "velocity": 89, "note_on_time": 12.314, "note_off_time": 12.456}, {"pitch": 60, "velocity": 62, "note_on_time": 12.678, "note_off_time": 12.801}, {"pitch": 60, "velocity": 81, "note_on_time": 13.053, "note_off_time": 13.219}]</notes><guidance name="Guidance Mode">None</guidance><error name="Error value">0.01831895833333344</error></trial><trial trial_no="3" timestamp="2022_12_22-12_10_55"><notes name="Played Notes">[{"pitch": 65, "velocity": 57, "note_on_time": 1.485, "note_off_time": 1.827}, {"pitch": 60, "velocity": 80, "note_on_time": 1.838, "note_off_time": 2.201}, {"pitch": 62, "velocity": 71, "note_on_time": 2.197, "note_off_time": 2.323}, {"pitch": 62, "velocity": 72, "note_on_time": 2.565, "note_off_time": 2.961}, {"pitch": 65, "velocity": 75, "note_on_time": 2.95, "note_off_time": 3.304}, {"pitch": 62, "velocity": 65, "note_on_time": 3.316, "note_off_time": 3.715}, {"pitch": 67, "velocity": 68, "note_on_time": 3.71, "note_off_time": 4.112}, {"pitch": 65, "velocity": 84, "note_on_time": 4.079, "note_off_time": 4.442}, {"pitch": 60, "velocity": 74, "note_on_time": 4.448, "note_off_time": 4.595}, {"pitch": 60, "velocity": 70, "note_on_time": 4.806, "note_off_time": 4.951}, {"pitch": 60, "velocity": 73, "note_on_time": 5.195, "note_off_time": 5.589}, {"pitch": 64, "velocity": 67, "note_on_time": 5.552, "note_off_time": 5.661}, {"pitch": 64, "velocity": 78, "note_on_time": 5.927, "note_off_time": 6.302}, {"pitch": 62, "velocity": 73, "note_on_time": 6.317, "note_off_time": 6.46}, {"pitch": 62, "velocity": 74, "note_on_time": 6.674, "note_off_time": 7.055}, {"pitch": 67, "velocity": 66, "note_on_time": 7.046, "note_off_time": 7.456}, {"pitch": 60, "velocity": 57, "note_on_time": 7.468, "note_off_time": 7.841}, {"pitch": 65, "velocity": 82, "note_on_time": 7.829, "note_off_time": 8.187}, {"pitch": 67, "velocity": 59, "note_on_time": 8.184, "note_off_time": 8.364}, {"pitch": 67, "velocity": 70, "note_on_time": 8.54, "note_off_time": 8.914}, {"pitch": 60, "velocity": 70, "note_on_time": 8.919, "note_off_time": 9.285}, {"pitch": 67, "velocity": 67, "note_on_time": 9.3, "note_off_time": 9.672}, {"pitch": 60, "velocity": 76, "note_on_time": 9.682, "note_off_time": 9.81}, {"pitch": 60, "velocity": 79, "note_on_time": 10.428, "note_off_time": 11.09}, {"pitch": 60, "velocity": 71, "note_on_time": 12.243, "note_off_time": 12.376}, {"pitch": 60, "velocity": 72, "note_on_time": 12.666, "note_off_time": 12.793}, {"pitch": 60, "velocity": 80, "note_on_time": 13.027, "note_off_time": 13.21}]</notes><guidance name="Guidance Mode">None</guidance><error name="Error value">0.017050625000000357</error></trial></trials></MIDI>