<MIDI midiNo="2022_09_29-12_27_42"><target_notes><notes name="Note List">[{"pitch": 42, "velocity": 80, "note_on_time": 0.004, "note_off_time": 0.224}, {"pitch": 42, "velocity": 80, "note_on_time": 0.224, "note_off_time": 0.442}, {"pitch": 42, "velocity": 80, "note_on_time": 0.442, "note_off_time": 0.661}, {"pitch": 42, "velocity": 80, "note_on_time": 0.661, "note_off_time": 0.877}, {"pitch": 64, "velocity": 80, "note_on_time": 0.877, "note_off_time": 1.099}, {"pitch": 42, "velocity": 80, "note_on_time": 0.877, "note_off_time": 1.099}, {"pitch": 62, "velocity": 80, "note_on_time": 1.099, "note_off_time": 1.317}, {"pitch": 42, "velocity": 80, "note_on_time": 1.099, "note_off_time": 1.317}, {"pitch": 64, "velocity": 80, "note_on_time": 1.317, "note_off_time": 1.534}, {"pitch": 42, "velocity": 80, "note_on_time": 1.317, "note_off_time": 1.534}, {"pitch": 62, "velocity": 80, "note_on_time": 1.534, "note_off_time": 1.751}, {"pitch": 42, "velocity": 80, "note_on_time": 1.534, "note_off_time": 1.751}, {"pitch": 64, "velocity": 80, "note_on_time": 1.751, "note_off_time": 1.968}, {"pitch": 42, "velocity": 80, "note_on_time": 1.751, "note_off_time": 1.968}, {"pitch": 64, "velocity": 80, "note_on_time": 1.968, "note_off_time": 2.185}, {"pitch": 42, "velocity": 80, "note_on_time": 1.968, "note_off_time": 2.185}, {"pitch": 64, "velocity": 80, "note_on_time": 2.185, "note_off_time": 2.404}, {"pitch": 42, "velocity": 80, "note_on_time": 2.185, "note_off_time": 2.404}, {"pitch": 62, "velocity": 80, "note_on_time": 2.404, "note_off_time": 2.621}, {"pitch": 42, "velocity": 80, "note_on_time": 2.404, "note_off_time": 2.621}, {"pitch": 62, "velocity": 80, "note_on_time": 2.621, "note_off_time": 2.84}, {"pitch": 42, "velocity": 80, "note_on_time": 2.621, "note_off_time": 2.84}, {"pitch": 62, "velocity": 80, "note_on_time": 2.84, "note_off_time": 3.057}, {"pitch": 42, "velocity": 80, "note_on_time": 2.84, "note_off_time": 3.057}, {"pitch": 64, "velocity": 80, "note_on_time": 3.057, "note_off_time": 3.276}, {"pitch": 42, "velocity": 80, "note_on_time": 3.057, "note_off_time": 3.276}, {"pitch": 64, "velocity": 80, "note_on_time": 3.276, "note_off_time": 3.493}, {"pitch": 42, "velocity": 80, "note_on_time": 3.276, "note_off_time": 3.493}, {"pitch": 62, "velocity": 80, "note_on_time": 3.493, "note_off_time": 3.71}, {"pitch": 42, "velocity": 80, "note_on_time": 3.493, "note_off_time": 3.71}, {"pitch": 60, "velocity": 80, "note_on_time": 3.71, "note_off_time": 3.941}, {"pitch": 42, "velocity": 80, "note_on_time": 3.71, "note_off_time": 3.941}, {"pitch": 62, "velocity": 80, "note_on_time": 3.941, "note_off_time": 4.158}, {"pitch": 42, "velocity": 80, "note_on_time": 3.941, "note_off_time": 4.158}, {"pitch": 62, "velocity": 80, "note_on_time": 4.158, "note_off_time": 4.378}, {"pitch": 42, "velocity": 80, "note_on_time": 4.158, "note_off_time": 4.378}, {"pitch": 60, "velocity": 80, "note_on_time": 4.378, "note_off_time": 4.597}, {"pitch": 42, "velocity": 80, "note_on_time": 4.378, "note_off_time": 4.597}, {"pitch": 60, "velocity": 80, "note_on_time": 4.597, "note_off_time": 4.815}, {"pitch": 42, "velocity": 80, "note_on_time": 4.597, "note_off_time": 4.815}, {"pitch": 60, "velocity": 80, "note_on_time": 4.815, "note_off_time": 5.033}, {"pitch": 42, "velocity": 80, "note_on_time": 4.815, "note_off_time": 5.033}, {"pitch": 62, "velocity": 80, "note_on_time": 5.033, "note_off_time": 5.252}, {"pitch": 42, "velocity": 80, "note_on_time": 5.033, "note_off_time": 5.252}, {"pitch": 42, "velocity": 80, "note_on_time": 5.252, "note_off_time": 5.47}, {"pitch": 64, "velocity": 80, "note_on_time": 5.252, "note_off_time": 5.688}, {"pitch": 42, "velocity": 80, "note_on_time": 5.47, "note_off_time": 5.688}, {"pitch": 60, "velocity": 80, "note_on_time": 5.688, "note_off_time": 5.904}, {"pitch": 42, "velocity": 80, "note_on_time": 5.688, "note_off_time": 5.904}, {"pitch": 64, "velocity": 80, "note_on_time": 5.904, "note_off_time": 6.121}, {"pitch": 42, "velocity": 80, "note_on_time": 5.904, "note_off_time": 6.121}, {"pitch": 42, "velocity": 80, "note_on_time": 6.121, "note_off_time": 6.339}, {"pitch": 60, "velocity": 80, "note_on_time": 6.121, "note_off_time": 6.557}, {"pitch": 42, "velocity": 80, "note_on_time": 6.339, "note_off_time": 6.557}, {"pitch": 42, "velocity": 80, "note_on_time": 6.557, "note_off_time": 6.777}, {"pitch": 62, "velocity": 80, "note_on_time": 6.777, "note_off_time": 6.998}, {"pitch": 42, "velocity": 80, "note_on_time": 6.777, "note_off_time": 6.998}, {"pitch": 42, "velocity": 80, "note_on_time": 6.998, "note_off_time": 7.217}, {"pitch": 62, "velocity": 80, "note_on_time": 7.217, "note_off_time": 7.433}, {"pitch": 42, "velocity": 80, "note_on_time": 7.217, "note_off_time": 7.433}, {"pitch": 62, "velocity": 80, "note_on_time": 7.433, "note_off_time": 7.652}, {"pitch": 42, "velocity": 80, "note_on_time": 7.433, "note_off_time": 7.652}, {"pitch": 62, "velocity": 80, "note_on_time": 7.652, "note_off_time": 7.869}, {"pitch": 42, "velocity": 80, "note_on_time": 7.653, "note_off_time": 7.869}]</notes><options name="Option List">((4, 4), [0.5, 0.25], 3, 8, &lt;NoteRangePerHand.THREE_NOTES: 4&gt;, &lt;NoteRangePerHand.ONE_NOTE: 2&gt;, False, True, False, 280)</options></target_notes><trials><trial trial_no="1" timestamp="2022_09_29-12_27_33"><notes name="Played Notes">[{"pitch": 64, "velocity": 77, "note_on_time": 0.861, "note_off_time": 1.122}, {"pitch": 62, "velocity": 77, "note_on_time": 1.092, "note_off_time": 1.329}, {"pitch": 64, "velocity": 81, "note_on_time": 1.33, "note_off_time": 1.565}, {"pitch": 62, "velocity": 83, "note_on_time": 1.553, "note_off_time": 1.704}, {"pitch": 64, "velocity": 76, "note_on_time": 1.765, "note_off_time": 1.888}, {"pitch": 64, "velocity": 64, "note_on_time": 1.984, "note_off_time": 2.094}, {"pitch": 64, "velocity": 87, "note_on_time": 2.211, "note_off_time": 2.349}, {"pitch": 62, "velocity": 85, "note_on_time": 2.425, "note_off_time": 2.536}, {"pitch": 62, "velocity": 74, "note_on_time": 2.637, "note_off_time": 2.737}, {"pitch": 62, "velocity": 71, "note_on_time": 2.851, "note_off_time": 2.959}, {"pitch": 64, "velocity": 88, "note_on_time": 3.077, "note_off_time": 3.182}, {"pitch": 64, "velocity": 86, "note_on_time": 3.291, "note_off_time": 3.425}, {"pitch": 62, "velocity": 91, "note_on_time": 3.519, "note_off_time": 3.737}, {"pitch": 60, "velocity": 87, "note_on_time": 3.737, "note_off_time": 3.872}, {"pitch": 62, "velocity": 89, "note_on_time": 3.954, "note_off_time": 4.048}, {"pitch": 62, "velocity": 87, "note_on_time": 4.162, "note_off_time": 4.267}, {"pitch": 60, "velocity": 90, "note_on_time": 4.375, "note_off_time": 4.485}, {"pitch": 60, "velocity": 81, "note_on_time": 4.59, "note_off_time": 4.687}, {"pitch": 60, "velocity": 90, "note_on_time": 4.825, "note_off_time": 4.917}, {"pitch": 62, "velocity": 92, "note_on_time": 5.039, "note_off_time": 5.143}, {"pitch": 64, "velocity": 91, "note_on_time": 5.271, "note_off_time": 5.666}, {"pitch": 60, "velocity": 57, "note_on_time": 5.756, "note_off_time": 5.798}, {"pitch": 60, "velocity": 92, "note_on_time": 5.934, "note_off_time": 6.048}, {"pitch": 64, "velocity": 71, "note_on_time": 6.091, "note_off_time": 6.428}, {"pitch": 60, "velocity": 90, "note_on_time": 6.467, "note_off_time": 6.998}, {"pitch": 64, "velocity": 80, "note_on_time": 7.197, "note_off_time": 7.349}, {"pitch": 62, "velocity": 94, "note_on_time": 7.423, "note_off_time": 7.527}, {"pitch": 62, "velocity": 79, "note_on_time": 7.623, "note_off_time": 7.751}]</notes><guidance name="Guidance Mode">None</guidance><error name="Error value">0.1958058000000001</error></trial></trials></MIDI>