<MIDI midiNo="2022_12_01-13_23_29"><target_notes><notes name="Note List">[{"pitch": 42, "velocity": 80, "note_on_time": 0.004, "note_off_time": 0.415}, {"pitch": 42, "velocity": 80, "note_on_time": 0.415, "note_off_time": 0.82}, {"pitch": 42, "velocity": 80, "note_on_time": 0.82, "note_off_time": 1.225}, {"pitch": 42, "velocity": 80, "note_on_time": 1.225, "note_off_time": 1.629}, {"pitch": 62, "velocity": 80, "note_on_time": 1.629, "note_off_time": 2.032}, {"pitch": 42, "velocity": 80, "note_on_time": 1.63, "note_off_time": 2.033}, {"pitch": 60, "velocity": 80, "note_on_time": 2.032, "note_off_time": 2.436}, {"pitch": 42, "velocity": 80, "note_on_time": 2.033, "note_off_time": 2.437}, {"pitch": 42, "velocity": 80, "note_on_time": 2.437, "note_off_time": 2.843}, {"pitch": 60, "velocity": 80, "note_on_time": 2.843, "note_off_time": 3.25}, {"pitch": 42, "velocity": 80, "note_on_time": 2.843, "note_off_time": 3.25}, {"pitch": 62, "velocity": 80, "note_on_time": 3.25, "note_off_time": 3.655}, {"pitch": 42, "velocity": 80, "note_on_time": 3.25, "note_off_time": 3.655}, {"pitch": 60, "velocity": 80, "note_on_time": 3.655, "note_off_time": 4.063}, {"pitch": 42, "velocity": 80, "note_on_time": 3.655, "note_off_time": 4.063}, {"pitch": 64, "velocity": 80, "note_on_time": 4.063, "note_off_time": 4.468}, {"pitch": 42, "velocity": 80, "note_on_time": 4.063, "note_off_time": 4.468}, {"pitch": 62, "velocity": 80, "note_on_time": 4.468, "note_off_time": 4.873}, {"pitch": 42, "velocity": 80, "note_on_time": 4.469, "note_off_time": 4.873}, {"pitch": 60, "velocity": 80, "note_on_time": 4.873, "note_off_time": 5.278}, {"pitch": 42, "velocity": 80, "note_on_time": 4.873, "note_off_time": 5.278}, {"pitch": 62, "velocity": 80, "note_on_time": 5.278, "note_off_time": 5.682}, {"pitch": 42, "velocity": 80, "note_on_time": 5.278, "note_off_time": 5.683}, {"pitch": 64, "velocity": 80, "note_on_time": 5.682, "note_off_time": 6.085}, {"pitch": 42, "velocity": 80, "note_on_time": 5.683, "note_off_time": 6.085}, {"pitch": 60, "velocity": 80, "note_on_time": 6.085, "note_off_time": 6.491}, {"pitch": 42, "velocity": 80, "note_on_time": 6.086, "note_off_time": 6.491}, {"pitch": 60, "velocity": 80, "note_on_time": 6.491, "note_off_time": 6.894}, {"pitch": 42, "velocity": 80, "note_on_time": 6.491, "note_off_time": 6.894}, {"pitch": 64, "velocity": 80, "note_on_time": 6.894, "note_off_time": 7.299}, {"pitch": 42, "velocity": 80, "note_on_time": 6.894, "note_off_time": 7.299}, {"pitch": 60, "velocity": 80, "note_on_time": 7.299, "note_off_time": 7.702}, {"pitch": 42, "velocity": 80, "note_on_time": 7.3, "note_off_time": 7.703}, {"pitch": 60, "velocity": 80, "note_on_time": 7.702, "note_off_time": 8.106}, {"pitch": 42, "velocity": 80, "note_on_time": 7.703, "note_off_time": 8.106}, {"pitch": 60, "velocity": 80, "note_on_time": 8.106, "note_off_time": 8.507}, {"pitch": 42, "velocity": 80, "note_on_time": 8.106, "note_off_time": 8.507}, {"pitch": 64, "velocity": 80, "note_on_time": 8.507, "note_off_time": 8.911}, {"pitch": 42, "velocity": 80, "note_on_time": 8.51, "note_off_time": 8.911}, {"pitch": 42, "velocity": 80, "note_on_time": 8.912, "note_off_time": 9.316}, {"pitch": 64, "velocity": 80, "note_on_time": 8.911, "note_off_time": 9.723}, {"pitch": 42, "velocity": 80, "note_on_time": 9.316, "note_off_time": 9.723}, {"pitch": 64, "velocity": 80, "note_on_time": 9.723, "note_off_time": 10.126}, {"pitch": 42, "velocity": 80, "note_on_time": 9.723, "note_off_time": 10.126}, {"pitch": 60, "velocity": 80, "note_on_time": 10.126, "note_off_time": 10.527}, {"pitch": 42, "velocity": 80, "note_on_time": 10.126, "note_off_time": 10.528}, {"pitch": 62, "velocity": 80, "note_on_time": 10.527, "note_off_time": 10.933}, {"pitch": 42, "velocity": 80, "note_on_time": 10.528, "note_off_time": 10.933}, {"pitch": 62, "velocity": 80, "note_on_time": 10.933, "note_off_time": 11.338}, {"pitch": 42, "velocity": 80, "note_on_time": 10.934, "note_off_time": 11.338}, {"pitch": 62, "velocity": 80, "note_on_time": 11.338, "note_off_time": 11.743}, {"pitch": 42, "velocity": 80, "note_on_time": 11.339, "note_off_time": 11.743}, {"pitch": 62, "velocity": 80, "note_on_time": 11.743, "note_off_time": 12.147}, {"pitch": 42, "velocity": 80, "note_on_time": 11.743, "note_off_time": 12.147}, {"pitch": 64, "velocity": 80, "note_on_time": 12.147, "note_off_time": 12.551}, {"pitch": 42, "velocity": 80, "note_on_time": 12.148, "note_off_time": 12.551}, {"pitch": 64, "velocity": 80, "note_on_time": 12.551, "note_off_time": 12.956}, {"pitch": 42, "velocity": 80, "note_on_time": 12.551, "note_off_time": 12.956}, {"pitch": 42, "velocity": 80, "note_on_time": 12.957, "note_off_time": 13.363}, {"pitch": 64, "velocity": 80, "note_on_time": 13.363, "note_off_time": 13.765}, {"pitch": 42, "velocity": 80, "note_on_time": 13.363, "note_off_time": 13.765}, {"pitch": 64, "velocity": 80, "note_on_time": 13.765, "note_off_time": 14.17}, {"pitch": 42, "velocity": 80, "note_on_time": 13.765, "note_off_time": 14.17}, {"pitch": 64, "velocity": 80, "note_on_time": 14.17, "note_off_time": 14.574}, {"pitch": 42, "velocity": 80, "note_on_time": 14.171, "note_off_time": 14.574}]</notes><options name="Option List">((4, 4), [0.5, 0.25], 3, 8, &lt;NoteRangePerHand.THREE_NOTES: 4&gt;, &lt;NoteRangePerHand.ONE_NOTE: 2&gt;, False, True, False, 150)</options></target_notes><trials><trial trial_no="1" timestamp="2022_12_01-13_23_13"><notes name="Played Notes">[{"pitch": 62, "velocity": 75, "note_on_time": 1.601, "note_off_time": 1.869}, {"pitch": 60, "velocity": 80, "note_on_time": 1.981, "note_off_time": 2.298}, {"pitch": 60, "velocity": 79, "note_on_time": 3.07, "note_off_time": 3.266}, {"pitch": 62, "velocity": 76, "note_on_time": 3.471, "note_off_time": 3.758}, {"pitch": 60, "velocity": 79, "note_on_time": 3.881, "note_off_time": 4.131}, {"pitch": 64, "velocity": 71, "note_on_time": 4.272, "note_off_time": 4.534}, {"pitch": 62, "velocity": 75, "note_on_time": 4.673, "note_off_time": 4.923}, {"pitch": 60, "velocity": 79, "note_on_time": 5.065, "note_off_time": 5.304}, {"pitch": 62, "velocity": 75, "note_on_time": 5.448, "note_off_time": 5.695}, {"pitch": 64, "velocity": 74, "note_on_time": 5.841, "note_off_time": 6.061}, {"pitch": 60, "velocity": 82, "note_on_time": 6.239, "note_off_time": 6.536}, {"pitch": 60, "velocity": 79, "note_on_time": 6.958, "note_off_time": 7.152}, {"pitch": 64, "velocity": 71, "note_on_time": 7.345, "note_off_time": 7.573}, {"pitch": 60, "velocity": 77, "note_on_time": 7.719, "note_off_time": 7.928}, {"pitch": 60, "velocity": 83, "note_on_time": 8.121, "note_off_time": 8.328}, {"pitch": 60, "velocity": 81, "note_on_time": 8.528, "note_off_time": 8.765}, {"pitch": 64, "velocity": 83, "note_on_time": 8.921, "note_off_time": 9.112}, {"pitch": 64, "velocity": 79, "note_on_time": 9.312, "note_off_time": 10.031}, {"pitch": 64, "velocity": 75, "note_on_time": 10.538, "note_off_time": 10.713}, {"pitch": 60, "velocity": 82, "note_on_time": 10.888, "note_off_time": 11.118}, {"pitch": 62, "velocity": 70, "note_on_time": 11.285, "note_off_time": 11.475}, {"pitch": 62, "velocity": 69, "note_on_time": 11.658, "note_off_time": 11.861}, {"pitch": 62, "velocity": 69, "note_on_time": 12.094, "note_off_time": 12.305}, {"pitch": 62, "velocity": 62, "note_on_time": 12.496, "note_off_time": 12.731}, {"pitch": 64, "velocity": 74, "note_on_time": 12.945, "note_off_time": 13.146}, {"pitch": 64, "velocity": 74, "note_on_time": 13.324, "note_off_time": 13.547}]</notes><guidance name="Guidance Mode">None</guidance><error name="Error value">0.3110000000000003</error></trial><trial trial_no="2" timestamp="2022_12_01-13_23_36"><notes name="Played Notes">[{"pitch": 62, "velocity": 70, "note_on_time": 1.631, "note_off_time": 1.873}, {"pitch": 60, "velocity": 82, "note_on_time": 2.031, "note_off_time": 2.333}, {"pitch": 60, "velocity": 82, "note_on_time": 2.984, "note_off_time": 3.179}, {"pitch": 62, "velocity": 79, "note_on_time": 3.386, "note_off_time": 3.632}, {"pitch": 60, "velocity": 82, "note_on_time": 3.807, "note_off_time": 4.037}, {"pitch": 64, "velocity": 68, "note_on_time": 4.202, "note_off_time": 4.434}, {"pitch": 62, "velocity": 77, "note_on_time": 4.604, "note_off_time": 4.822}, {"pitch": 60, "velocity": 82, "note_on_time": 4.986, "note_off_time": 5.223}, {"pitch": 62, "velocity": 74, "note_on_time": 5.387, "note_off_time": 5.635}, {"pitch": 64, "velocity": 73, "note_on_time": 5.796, "note_off_time": 6.029}, {"pitch": 60, "velocity": 76, "note_on_time": 6.227, "note_off_time": 6.443}, {"pitch": 60, "velocity": 84, "note_on_time": 6.645, "note_off_time": 6.896}, {"pitch": 64, "velocity": 70, "note_on_time": 7.12, "note_off_time": 7.327}, {"pitch": 60, "velocity": 81, "note_on_time": 7.479, "note_off_time": 7.719}, {"pitch": 60, "velocity": 88, "note_on_time": 7.899, "note_off_time": 8.126}, {"pitch": 60, "velocity": 78, "note_on_time": 8.313, "note_off_time": 8.535}, {"pitch": 64, "velocity": 66, "note_on_time": 8.698, "note_off_time": 8.891}, {"pitch": 64, "velocity": 73, "note_on_time": 9.111, "note_off_time": 9.677}, {"pitch": 64, "velocity": 78, "note_on_time": 10.251, "note_off_time": 10.445}, {"pitch": 60, "velocity": 77, "note_on_time": 10.774, "note_off_time": 10.953}, {"pitch": 62, "velocity": 69, "note_on_time": 11.12, "note_off_time": 11.328}, {"pitch": 62, "velocity": 75, "note_on_time": 11.495, "note_off_time": 11.745}, {"pitch": 62, "velocity": 80, "note_on_time": 11.902, "note_off_time": 12.111}, {"pitch": 62, "velocity": 78, "note_on_time": 12.266, "note_off_time": 12.496}, {"pitch": 64, "velocity": 69, "note_on_time": 12.648, "note_off_time": 12.86}, {"pitch": 64, "velocity": 77, "note_on_time": 13.025, "note_off_time": 13.3}, {"pitch": 64, "velocity": 75, "note_on_time": 13.9, "note_off_time": 14.077}, {"pitch": 64, "velocity": 69, "note_on_time": 14.231, "note_off_time": 14.432}]</notes><guidance name="Guidance Mode">None</guidance><error name="Error value">0.10030769230769228</error></trial><trial trial_no="3" timestamp="2022_12_01-13_23_59"><notes name="Played Notes">[{"pitch": 62, "velocity": 84, "note_on_time": 1.54, "note_off_time": 1.772}, {"pitch": 60, "velocity": 90, "note_on_time": 1.934, "note_off_time": 2.139}, {"pitch": 60, "velocity": 85, "note_on_time": 2.787, "note_off_time": 2.978}, {"pitch": 62, "velocity": 78, "note_on_time": 3.169, "note_off_time": 3.398}, {"pitch": 60, "velocity": 83, "note_on_time": 3.551, "note_off_time": 3.771}, {"pitch": 64, "velocity": 73, "note_on_time": 3.947, "note_off_time": 4.171}, {"pitch": 62, "velocity": 79, "note_on_time": 4.342, "note_off_time": 4.525}, {"pitch": 60, "velocity": 80, "note_on_time": 4.717, "note_off_time": 4.946}, {"pitch": 62, "velocity": 78, "note_on_time": 5.084, "note_off_time": 5.299}, {"pitch": 64, "velocity": 73, "note_on_time": 5.48, "note_off_time": 5.653}, {"pitch": 60, "velocity": 76, "note_on_time": 5.849, "note_off_time": 6.05}, {"pitch": 60, "velocity": 84, "note_on_time": 6.252, "note_off_time": 6.459}, {"pitch": 64, "velocity": 67, "note_on_time": 6.622, "note_off_time": 6.829}, {"pitch": 60, "velocity": 76, "note_on_time": 6.98, "note_off_time": 7.184}, {"pitch": 60, "velocity": 85, "note_on_time": 7.367, "note_off_time": 7.609}, {"pitch": 60, "velocity": 85, "note_on_time": 7.8, "note_off_time": 8.035}, {"pitch": 64, "velocity": 52, "note_on_time": 8.248, "note_off_time": 8.476}, {"pitch": 64, "velocity": 76, "note_on_time": 8.617, "note_off_time": 9.066}, {"pitch": 64, "velocity": 78, "note_on_time": 9.599, "note_off_time": 9.783}, {"pitch": 60, "velocity": 81, "note_on_time": 9.931, "note_off_time": 10.147}, {"pitch": 62, "velocity": 80, "note_on_time": 10.298, "note_off_time": 10.495}, {"pitch": 62, "velocity": 77, "note_on_time": 10.649, "note_off_time": 10.95}, {"pitch": 62, "velocity": 78, "note_on_time": 11.02, "note_off_time": 11.203}, {"pitch": 62, "velocity": 80, "note_on_time": 11.365, "note_off_time": 11.561}, {"pitch": 64, "velocity": 73, "note_on_time": 11.708, "note_off_time": 11.882}, {"pitch": 64, "velocity": 82, "note_on_time": 12.066, "note_off_time": 12.255}, {"pitch": 64, "velocity": 76, "note_on_time": 12.774, "note_off_time": 12.973}, {"pitch": 64, "velocity": 76, "note_on_time": 13.134, "note_off_time": 13.277}, {"pitch": 64, "velocity": 74, "note_on_time": 13.473, "note_off_time": 13.729}]</notes><guidance name="Guidance Mode">None</guidance><error name="Error value">0.042500000000000045</error></trial></trials></MIDI>