<MIDI midiNo="2022_12_08-12_25_49"><target_notes><notes name="Note List">[{"pitch": 42, "velocity": 80, "note_on_time": 0.004, "note_off_time": 0.243}, {"pitch": 42, "velocity": 80, "note_on_time": 0.243, "note_off_time": 0.476}, {"pitch": 42, "velocity": 80, "note_on_time": 0.477, "note_off_time": 0.709}, {"pitch": 42, "velocity": 80, "note_on_time": 0.709, "note_off_time": 0.944}, {"pitch": 67, "velocity": 80, "note_on_time": 0.944, "note_off_time": 1.179}, {"pitch": 42, "velocity": 80, "note_on_time": 0.944, "note_off_time": 1.179}, {"pitch": 64, "velocity": 80, "note_on_time": 1.179, "note_off_time": 1.412}, {"pitch": 42, "velocity": 80, "note_on_time": 1.18, "note_off_time": 1.412}, {"pitch": 65, "velocity": 80, "note_on_time": 1.412, "note_off_time": 1.646}, {"pitch": 42, "velocity": 80, "note_on_time": 1.412, "note_off_time": 1.647}, {"pitch": 62, "velocity": 80, "note_on_time": 1.646, "note_off_time": 1.878}, {"pitch": 42, "velocity": 80, "note_on_time": 1.647, "note_off_time": 1.878}, {"pitch": 60, "velocity": 80, "note_on_time": 1.878, "note_off_time": 2.11}, {"pitch": 42, "velocity": 80, "note_on_time": 1.878, "note_off_time": 2.11}, {"pitch": 65, "velocity": 80, "note_on_time": 2.11, "note_off_time": 2.343}, {"pitch": 42, "velocity": 80, "note_on_time": 2.11, "note_off_time": 2.344}, {"pitch": 42, "velocity": 80, "note_on_time": 2.344, "note_off_time": 2.577}, {"pitch": 62, "velocity": 80, "note_on_time": 2.577, "note_off_time": 2.811}, {"pitch": 42, "velocity": 80, "note_on_time": 2.577, "note_off_time": 2.811}, {"pitch": 60, "velocity": 80, "note_on_time": 2.811, "note_off_time": 3.044}, {"pitch": 42, "velocity": 80, "note_on_time": 2.811, "note_off_time": 3.045}, {"pitch": 60, "velocity": 80, "note_on_time": 3.044, "note_off_time": 3.278}, {"pitch": 42, "velocity": 80, "note_on_time": 3.045, "note_off_time": 3.278}, {"pitch": 67, "velocity": 80, "note_on_time": 3.278, "note_off_time": 3.512}, {"pitch": 42, "velocity": 80, "note_on_time": 3.279, "note_off_time": 3.512}, {"pitch": 67, "velocity": 80, "note_on_time": 3.512, "note_off_time": 3.746}, {"pitch": 42, "velocity": 80, "note_on_time": 3.512, "note_off_time": 3.746}, {"pitch": 65, "velocity": 80, "note_on_time": 3.746, "note_off_time": 3.979}, {"pitch": 42, "velocity": 80, "note_on_time": 3.746, "note_off_time": 3.98}, {"pitch": 64, "velocity": 80, "note_on_time": 3.979, "note_off_time": 4.215}, {"pitch": 42, "velocity": 80, "note_on_time": 3.98, "note_off_time": 4.215}, {"pitch": 64, "velocity": 80, "note_on_time": 4.215, "note_off_time": 4.449}, {"pitch": 42, "velocity": 80, "note_on_time": 4.216, "note_off_time": 4.45}, {"pitch": 62, "velocity": 80, "note_on_time": 4.449, "note_off_time": 4.682}, {"pitch": 42, "velocity": 80, "note_on_time": 4.45, "note_off_time": 4.682}, {"pitch": 64, "velocity": 80, "note_on_time": 4.682, "note_off_time": 4.914}, {"pitch": 42, "velocity": 80, "note_on_time": 4.683, "note_off_time": 4.914}, {"pitch": 42, "velocity": 80, "note_on_time": 4.915, "note_off_time": 5.146}, {"pitch": 62, "velocity": 80, "note_on_time": 4.914, "note_off_time": 5.381}, {"pitch": 42, "velocity": 80, "note_on_time": 5.146, "note_off_time": 5.381}, {"pitch": 42, "velocity": 80, "note_on_time": 5.382, "note_off_time": 5.615}, {"pitch": 62, "velocity": 80, "note_on_time": 5.615, "note_off_time": 5.848}, {"pitch": 42, "velocity": 80, "note_on_time": 5.616, "note_off_time": 5.848}, {"pitch": 62, "velocity": 80, "note_on_time": 5.848, "note_off_time": 6.081}, {"pitch": 42, "velocity": 80, "note_on_time": 5.849, "note_off_time": 6.081}, {"pitch": 64, "velocity": 80, "note_on_time": 6.081, "note_off_time": 6.316}, {"pitch": 42, "velocity": 80, "note_on_time": 6.082, "note_off_time": 6.316}, {"pitch": 62, "velocity": 80, "note_on_time": 6.316, "note_off_time": 6.548}, {"pitch": 42, "velocity": 80, "note_on_time": 6.316, "note_off_time": 6.548}, {"pitch": 65, "velocity": 80, "note_on_time": 6.548, "note_off_time": 6.782}, {"pitch": 42, "velocity": 80, "note_on_time": 6.548, "note_off_time": 6.782}, {"pitch": 64, "velocity": 80, "note_on_time": 6.782, "note_off_time": 7.016}, {"pitch": 42, "velocity": 80, "note_on_time": 6.782, "note_off_time": 7.017}, {"pitch": 62, "velocity": 80, "note_on_time": 7.016, "note_off_time": 7.252}, {"pitch": 42, "velocity": 80, "note_on_time": 7.017, "note_off_time": 7.252}, {"pitch": 64, "velocity": 80, "note_on_time": 7.252, "note_off_time": 7.485}, {"pitch": 42, "velocity": 80, "note_on_time": 7.252, "note_off_time": 7.485}, {"pitch": 42, "velocity": 80, "note_on_time": 7.486, "note_off_time": 7.721}, {"pitch": 64, "velocity": 80, "note_on_time": 7.721, "note_off_time": 7.953}, {"pitch": 42, "velocity": 80, "note_on_time": 7.721, "note_off_time": 7.954}, {"pitch": 64, "velocity": 80, "note_on_time": 7.953, "note_off_time": 8.186}, {"pitch": 42, "velocity": 80, "note_on_time": 7.954, "note_off_time": 8.186}, {"pitch": 64, "velocity": 80, "note_on_time": 8.186, "note_off_time": 8.42}, {"pitch": 42, "velocity": 80, "note_on_time": 8.187, "note_off_time": 8.42}]</notes><options name="Option List">((4, 4), [0.5, 0.25], 3, 8, &lt;NoteRangePerHand.C_TO_G: 6&gt;, &lt;NoteRangePerHand.ONE_NOTE: 2&gt;, False, True, False, '265')</options></target_notes><trials><trial trial_no="1" timestamp="2022_12_08-12_25_39"><notes name="Played Notes">[{"pitch": 67, "velocity": 65, "note_on_time": 0.974, "note_off_time": 1.21}, {"pitch": 64, "velocity": 56, "note_on_time": 1.22, "note_off_time": 1.468}, {"pitch": 65, "velocity": 75, "note_on_time": 1.457, "note_off_time": 1.656}, {"pitch": 62, "velocity": 64, "note_on_time": 1.686, "note_off_time": 1.909}, {"pitch": 60, "velocity": 64, "note_on_time": 1.936, "note_off_time": 2.118}, {"pitch": 65, "velocity": 79, "note_on_time": 2.164, "note_off_time": 2.442}, {"pitch": 62, "velocity": 68, "note_on_time": 2.6, "note_off_time": 2.835}, {"pitch": 60, "velocity": 66, "note_on_time": 2.845, "note_off_time": 2.942}, {"pitch": 60, "velocity": 64, "note_on_time": 3.058, "note_off_time": 3.238}, {"pitch": 67, "velocity": 68, "note_on_time": 3.293, "note_off_time": 3.401}, {"pitch": 67, "velocity": 66, "note_on_time": 3.514, "note_off_time": 3.745}, {"pitch": 65, "velocity": 68, "note_on_time": 3.76, "note_off_time": 3.978}, {"pitch": 64, "velocity": 76, "note_on_time": 3.976, "note_off_time": 4.083}, {"pitch": 64, "velocity": 60, "note_on_time": 4.211, "note_off_time": 4.435}, {"pitch": 62, "velocity": 69, "note_on_time": 4.446, "note_off_time": 4.687}, {"pitch": 64, "velocity": 66, "note_on_time": 4.692, "note_off_time": 4.898}, {"pitch": 62, "velocity": 71, "note_on_time": 4.918, "note_off_time": 5.424}, {"pitch": 62, "velocity": 84, "note_on_time": 5.665, "note_off_time": 5.754}, {"pitch": 62, "velocity": 65, "note_on_time": 5.908, "note_off_time": 6.136}, {"pitch": 64, "velocity": 71, "note_on_time": 6.128, "note_off_time": 6.351}, {"pitch": 62, "velocity": 68, "note_on_time": 6.351, "note_off_time": 6.587}, {"pitch": 65, "velocity": 75, "note_on_time": 6.584, "note_off_time": 6.836}, {"pitch": 64, "velocity": 70, "note_on_time": 6.811, "note_off_time": 7.022}, {"pitch": 62, "velocity": 73, "note_on_time": 7.036, "note_off_time": 7.275}, {"pitch": 64, "velocity": 73, "note_on_time": 7.271, "note_off_time": 7.575}, {"pitch": 64, "velocity": 76, "note_on_time": 7.738, "note_off_time": 7.839}, {"pitch": 64, "velocity": 65, "note_on_time": 7.985, "note_off_time": 8.087}]</notes><guidance name="Guidance Mode">None</guidance><error name="Error value">0.062417400000000074</error></trial><trial trial_no="2" timestamp="2022_12_08-12_26_00"><notes name="Played Notes">[{"pitch": 67, "velocity": 70, "note_on_time": 0.941, "note_off_time": 1.161}, {"pitch": 64, "velocity": 59, "note_on_time": 1.164, "note_off_time": 1.409}, {"pitch": 65, "velocity": 70, "note_on_time": 1.398, "note_off_time": 1.593}, {"pitch": 62, "velocity": 67, "note_on_time": 1.617, "note_off_time": 1.848}, {"pitch": 60, "velocity": 70, "note_on_time": 1.868, "note_off_time": 2.083}, {"pitch": 65, "velocity": 81, "note_on_time": 2.104, "note_off_time": 2.372}, {"pitch": 62, "velocity": 66, "note_on_time": 2.557, "note_off_time": 2.788}, {"pitch": 60, "velocity": 60, "note_on_time": 2.797, "note_off_time": 2.878}, {"pitch": 60, "velocity": 65, "note_on_time": 3.014, "note_off_time": 3.173}, {"pitch": 67, "velocity": 77, "note_on_time": 3.247, "note_off_time": 3.392}, {"pitch": 67, "velocity": 82, "note_on_time": 3.469, "note_off_time": 3.768}, {"pitch": 65, "velocity": 72, "note_on_time": 3.739, "note_off_time": 3.91}, {"pitch": 64, "velocity": 81, "note_on_time": 3.972, "note_off_time": 4.076}, {"pitch": 64, "velocity": 66, "note_on_time": 4.188, "note_off_time": 4.396}, {"pitch": 62, "velocity": 64, "note_on_time": 4.422, "note_off_time": 4.633}, {"pitch": 64, "velocity": 74, "note_on_time": 4.671, "note_off_time": 4.879}, {"pitch": 62, "velocity": 66, "note_on_time": 4.902, "note_off_time": 5.404}, {"pitch": 62, "velocity": 73, "note_on_time": 5.622, "note_off_time": 5.707}, {"pitch": 62, "velocity": 62, "note_on_time": 5.863, "note_off_time": 6.096}, {"pitch": 64, "velocity": 67, "note_on_time": 6.096, "note_off_time": 6.309}, {"pitch": 62, "velocity": 63, "note_on_time": 6.318, "note_off_time": 6.565}, {"pitch": 65, "velocity": 74, "note_on_time": 6.573, "note_off_time": 6.799}, {"pitch": 64, "velocity": 65, "note_on_time": 6.79, "note_off_time": 6.995}, {"pitch": 62, "velocity": 68, "note_on_time": 7.015, "note_off_time": 7.252}, {"pitch": 64, "velocity": 68, "note_on_time": 7.252, "note_off_time": 7.551}, {"pitch": 64, "velocity": 78, "note_on_time": 7.744, "note_off_time": 7.845}, {"pitch": 64, "velocity": 70, "note_on_time": 7.987, "note_off_time": 8.088}]</notes><guidance name="Guidance Mode">None</guidance><error name="Error value">0.06322420000000012</error></trial><trial trial_no="3" timestamp="2022_12_08-12_26_16"><notes name="Played Notes">[{"pitch": 67, "velocity": 70, "note_on_time": 0.948, "note_off_time": 1.195}, {"pitch": 64, "velocity": 60, "note_on_time": 1.188, "note_off_time": 1.456}, {"pitch": 65, "velocity": 71, "note_on_time": 1.429, "note_off_time": 1.63}, {"pitch": 62, "velocity": 64, "note_on_time": 1.661, "note_off_time": 1.884}, {"pitch": 60, "velocity": 57, "note_on_time": 1.907, "note_off_time": 2.133}, {"pitch": 65, "velocity": 74, "note_on_time": 2.128, "note_off_time": 2.412}, {"pitch": 62, "velocity": 62, "note_on_time": 2.578, "note_off_time": 2.806}, {"pitch": 60, "velocity": 68, "note_on_time": 2.815, "note_off_time": 2.911}, {"pitch": 60, "velocity": 68, "note_on_time": 3.042, "note_off_time": 3.25}, {"pitch": 67, "velocity": 73, "note_on_time": 3.268, "note_off_time": 3.359}, {"pitch": 67, "velocity": 72, "note_on_time": 3.49, "note_off_time": 3.646}, {"pitch": 65, "velocity": 74, "note_on_time": 3.739, "note_off_time": 3.981}, {"pitch": 64, "velocity": 78, "note_on_time": 3.98, "note_off_time": 4.084}, {"pitch": 64, "velocity": 62, "note_on_time": 4.203, "note_off_time": 4.415}, {"pitch": 62, "velocity": 64, "note_on_time": 4.434, "note_off_time": 4.681}, {"pitch": 64, "velocity": 73, "note_on_time": 4.681, "note_off_time": 4.852}, {"pitch": 62, "velocity": 69, "note_on_time": 4.9, "note_off_time": 5.352}, {"pitch": 62, "velocity": 72, "note_on_time": 5.648, "note_off_time": 5.74}, {"pitch": 62, "velocity": 74, "note_on_time": 5.905, "note_off_time": 6.131}, {"pitch": 64, "velocity": 73, "note_on_time": 6.127, "note_off_time": 6.363}, {"pitch": 62, "velocity": 70, "note_on_time": 6.36, "note_off_time": 6.588}, {"pitch": 65, "velocity": 79, "note_on_time": 6.592, "note_off_time": 6.814}, {"pitch": 64, "velocity": 66, "note_on_time": 6.801, "note_off_time": 7.024}, {"pitch": 62, "velocity": 69, "note_on_time": 7.034, "note_off_time": 7.266}, {"pitch": 64, "velocity": 67, "note_on_time": 7.272, "note_off_time": 7.547}, {"pitch": 64, "velocity": 71, "note_on_time": 7.73, "note_off_time": 7.828}, {"pitch": 64, "velocity": 64, "note_on_time": 7.956, "note_off_time": 8.064}]</notes><guidance name="Guidance Mode">None</guidance><error name="Error value">0.0613705999999999</error></trial></trials></MIDI>