<MIDI midiNo="2022_11_03-13_53_30"><target_notes><notes name="Note List">[{"pitch": 42, "velocity": 80, "note_on_time": 0.004, "note_off_time": 0.247}, {"pitch": 42, "velocity": 80, "note_on_time": 0.247, "note_off_time": 0.497}, {"pitch": 42, "velocity": 80, "note_on_time": 0.498, "note_off_time": 0.747}, {"pitch": 42, "velocity": 80, "note_on_time": 0.747, "note_off_time": 0.997}, {"pitch": 62, "velocity": 80, "note_on_time": 0.996, "note_off_time": 1.246}, {"pitch": 42, "velocity": 80, "note_on_time": 0.997, "note_off_time": 1.246}, {"pitch": 64, "velocity": 80, "note_on_time": 1.246, "note_off_time": 1.496}, {"pitch": 42, "velocity": 80, "note_on_time": 1.247, "note_off_time": 1.496}, {"pitch": 62, "velocity": 80, "note_on_time": 1.496, "note_off_time": 1.745}, {"pitch": 42, "velocity": 80, "note_on_time": 1.496, "note_off_time": 1.745}, {"pitch": 60, "velocity": 80, "note_on_time": 1.745, "note_off_time": 1.994}, {"pitch": 42, "velocity": 80, "note_on_time": 1.746, "note_off_time": 1.994}, {"pitch": 42, "velocity": 80, "note_on_time": 1.994, "note_off_time": 2.244}, {"pitch": 64, "velocity": 80, "note_on_time": 1.994, "note_off_time": 2.492}, {"pitch": 42, "velocity": 80, "note_on_time": 2.244, "note_off_time": 2.492}, {"pitch": 42, "velocity": 80, "note_on_time": 2.493, "note_off_time": 2.742}, {"pitch": 62, "velocity": 80, "note_on_time": 2.492, "note_off_time": 2.99}, {"pitch": 42, "velocity": 80, "note_on_time": 2.743, "note_off_time": 2.991}, {"pitch": 62, "velocity": 80, "note_on_time": 2.99, "note_off_time": 3.242}, {"pitch": 42, "velocity": 80, "note_on_time": 2.991, "note_off_time": 3.242}, {"pitch": 62, "velocity": 80, "note_on_time": 3.242, "note_off_time": 3.492}, {"pitch": 42, "velocity": 80, "note_on_time": 3.242, "note_off_time": 3.492}, {"pitch": 62, "velocity": 80, "note_on_time": 3.492, "note_off_time": 3.741}, {"pitch": 42, "velocity": 80, "note_on_time": 3.492, "note_off_time": 3.742}, {"pitch": 62, "velocity": 80, "note_on_time": 3.741, "note_off_time": 3.987}, {"pitch": 42, "velocity": 80, "note_on_time": 3.742, "note_off_time": 3.988}, {"pitch": 62, "velocity": 80, "note_on_time": 3.987, "note_off_time": 4.235}, {"pitch": 42, "velocity": 80, "note_on_time": 3.988, "note_off_time": 4.236}, {"pitch": 60, "velocity": 80, "note_on_time": 4.235, "note_off_time": 4.483}, {"pitch": 42, "velocity": 80, "note_on_time": 4.236, "note_off_time": 4.483}, {"pitch": 64, "velocity": 80, "note_on_time": 4.483, "note_off_time": 4.73}, {"pitch": 42, "velocity": 80, "note_on_time": 4.484, "note_off_time": 4.731}, {"pitch": 60, "velocity": 80, "note_on_time": 4.73, "note_off_time": 4.981}, {"pitch": 42, "velocity": 80, "note_on_time": 4.731, "note_off_time": 4.981}, {"pitch": 62, "velocity": 80, "note_on_time": 4.981, "note_off_time": 5.229}, {"pitch": 42, "velocity": 80, "note_on_time": 4.981, "note_off_time": 5.229}, {"pitch": 60, "velocity": 80, "note_on_time": 5.229, "note_off_time": 5.477}, {"pitch": 42, "velocity": 80, "note_on_time": 5.23, "note_off_time": 5.477}, {"pitch": 42, "velocity": 80, "note_on_time": 5.477, "note_off_time": 5.727}, {"pitch": 60, "velocity": 80, "note_on_time": 5.727, "note_off_time": 5.976}, {"pitch": 42, "velocity": 80, "note_on_time": 5.727, "note_off_time": 5.976}, {"pitch": 64, "velocity": 80, "note_on_time": 5.976, "note_off_time": 6.226}, {"pitch": 42, "velocity": 80, "note_on_time": 5.977, "note_off_time": 6.227}, {"pitch": 64, "velocity": 80, "note_on_time": 6.226, "note_off_time": 6.475}, {"pitch": 42, "velocity": 80, "note_on_time": 6.227, "note_off_time": 6.475}, {"pitch": 62, "velocity": 80, "note_on_time": 6.475, "note_off_time": 6.725}, {"pitch": 42, "velocity": 80, "note_on_time": 6.476, "note_off_time": 6.726}, {"pitch": 60, "velocity": 80, "note_on_time": 6.725, "note_off_time": 6.974}, {"pitch": 42, "velocity": 80, "note_on_time": 6.726, "note_off_time": 6.975}, {"pitch": 60, "velocity": 80, "note_on_time": 6.974, "note_off_time": 7.223}, {"pitch": 42, "velocity": 80, "note_on_time": 6.975, "note_off_time": 7.224}, {"pitch": 60, "velocity": 80, "note_on_time": 7.223, "note_off_time": 7.473}, {"pitch": 42, "velocity": 80, "note_on_time": 7.224, "note_off_time": 7.473}, {"pitch": 64, "velocity": 80, "note_on_time": 7.473, "note_off_time": 7.722}, {"pitch": 42, "velocity": 80, "note_on_time": 7.474, "note_off_time": 7.722}, {"pitch": 62, "velocity": 80, "note_on_time": 7.722, "note_off_time": 7.97}, {"pitch": 42, "velocity": 80, "note_on_time": 7.722, "note_off_time": 7.97}, {"pitch": 42, "velocity": 80, "note_on_time": 7.97, "note_off_time": 8.219}, {"pitch": 62, "velocity": 80, "note_on_time": 8.219, "note_off_time": 8.468}, {"pitch": 42, "velocity": 80, "note_on_time": 8.22, "note_off_time": 8.468}, {"pitch": 62, "velocity": 80, "note_on_time": 8.468, "note_off_time": 8.72}, {"pitch": 42, "velocity": 80, "note_on_time": 8.468, "note_off_time": 8.72}, {"pitch": 62, "velocity": 80, "note_on_time": 8.72, "note_off_time": 8.969}, {"pitch": 42, "velocity": 80, "note_on_time": 8.72, "note_off_time": 8.969}]</notes><options name="Option List">((4, 4), [0.5, 0.25], 3, 8, &lt;NoteRangePerHand.THREE_NOTES: 4&gt;, &lt;NoteRangePerHand.ONE_NOTE: 2&gt;, False, True, False, 248)</options></target_notes><trials><trial trial_no="1" timestamp="2022_11_03-13_53_19"><notes name="Played Notes">[{"pitch": 62, "velocity": 78, "note_on_time": 1.056, "note_off_time": 1.218}, {"pitch": 64, "velocity": 60, "note_on_time": 1.292, "note_off_time": 1.43}, {"pitch": 62, "velocity": 54, "note_on_time": 1.524, "note_off_time": 1.651}, {"pitch": 60, "velocity": 58, "note_on_time": 1.78, "note_off_time": 1.872}, {"pitch": 64, "velocity": 48, "note_on_time": 2.03, "note_off_time": 2.37}, {"pitch": 62, "velocity": 61, "note_on_time": 2.483, "note_off_time": 2.779}, {"pitch": 60, "velocity": 45, "note_on_time": 2.963, "note_off_time": 3.041}, {"pitch": 62, "velocity": 47, "note_on_time": 3.091, "note_off_time": 3.25}, {"pitch": 62, "velocity": 67, "note_on_time": 3.337, "note_off_time": 3.45}, {"pitch": 62, "velocity": 71, "note_on_time": 3.548, "note_off_time": 3.67}, {"pitch": 62, "velocity": 51, "note_on_time": 3.777, "note_off_time": 3.903}, {"pitch": 62, "velocity": 67, "note_on_time": 4.002, "note_off_time": 4.125}, {"pitch": 60, "velocity": 45, "note_on_time": 4.273, "note_off_time": 4.369}, {"pitch": 64, "velocity": 64, "note_on_time": 4.571, "note_off_time": 4.719}, {"pitch": 60, "velocity": 76, "note_on_time": 4.845, "note_off_time": 4.959}, {"pitch": 62, "velocity": 70, "note_on_time": 5.097, "note_off_time": 5.218}, {"pitch": 60, "velocity": 30, "note_on_time": 5.355, "note_off_time": 5.47}, {"pitch": 60, "velocity": 37, "note_on_time": 5.812, "note_off_time": 5.946}, {"pitch": 64, "velocity": 54, "note_on_time": 6.126, "note_off_time": 6.242}, {"pitch": 64, "velocity": 60, "note_on_time": 6.342, "note_off_time": 6.471}, {"pitch": 62, "velocity": 51, "note_on_time": 6.551, "note_off_time": 6.685}, {"pitch": 62, "velocity": 24, "note_on_time": 6.828, "note_off_time": 6.921}, {"pitch": 60, "velocity": 59, "note_on_time": 6.976, "note_off_time": 7.05}, {"pitch": 62, "velocity": 49, "note_on_time": 7.166, "note_off_time": 7.312}, {"pitch": 62, "velocity": 73, "note_on_time": 8.285, "note_off_time": 8.375}, {"pitch": 62, "velocity": 61, "note_on_time": 8.477, "note_off_time": 8.591}, {"pitch": 62, "velocity": 49, "note_on_time": 8.732, "note_off_time": 8.907}]</notes><guidance name="Guidance Mode">None</guidance><error name="Error value">0.5207896000000001</error></trial><trial trial_no="2" timestamp="2022_11_03-13_53_39"><notes name="Played Notes">[{"pitch": 62, "velocity": 57, "note_on_time": 1.012, "note_off_time": 1.14}, {"pitch": 64, "velocity": 51, "note_on_time": 1.255, "note_off_time": 1.377}, {"pitch": 62, "velocity": 52, "note_on_time": 1.487, "note_off_time": 1.618}, {"pitch": 60, "velocity": 62, "note_on_time": 1.743, "note_off_time": 1.863}, {"pitch": 64, "velocity": 48, "note_on_time": 1.987, "note_off_time": 2.313}, {"pitch": 62, "velocity": 59, "note_on_time": 2.468, "note_off_time": 2.814}, {"pitch": 62, "velocity": 52, "note_on_time": 2.956, "note_off_time": 3.067}, {"pitch": 62, "velocity": 48, "note_on_time": 3.215, "note_off_time": 3.337}, {"pitch": 62, "velocity": 62, "note_on_time": 3.459, "note_off_time": 3.578}, {"pitch": 62, "velocity": 55, "note_on_time": 3.71, "note_off_time": 3.817}, {"pitch": 62, "velocity": 59, "note_on_time": 3.954, "note_off_time": 4.082}, {"pitch": 60, "velocity": 47, "note_on_time": 4.235, "note_off_time": 4.359}, {"pitch": 64, "velocity": 46, "note_on_time": 4.472, "note_off_time": 4.593}, {"pitch": 60, "velocity": 49, "note_on_time": 4.724, "note_off_time": 4.857}, {"pitch": 62, "velocity": 75, "note_on_time": 5.058, "note_off_time": 5.176}, {"pitch": 60, "velocity": 65, "note_on_time": 5.267, "note_off_time": 5.398}, {"pitch": 60, "velocity": 55, "note_on_time": 5.746, "note_off_time": 5.86}, {"pitch": 64, "velocity": 57, "note_on_time": 5.983, "note_off_time": 6.081}, {"pitch": 64, "velocity": 61, "note_on_time": 6.228, "note_off_time": 6.332}, {"pitch": 64, "velocity": 25, "note_on_time": 6.783, "note_off_time": 6.846}, {"pitch": 62, "velocity": 77, "note_on_time": 6.832, "note_off_time": 6.944}, {"pitch": 60, "velocity": 65, "note_on_time": 7.071, "note_off_time": 7.18}, {"pitch": 60, "velocity": 55, "note_on_time": 7.296, "note_off_time": 7.42}, {"pitch": 60, "velocity": 51, "note_on_time": 7.531, "note_off_time": 7.627}, {"pitch": 64, "velocity": 52, "note_on_time": 7.764, "note_off_time": 7.909}, {"pitch": 62, "velocity": 41, "note_on_time": 8.023, "note_off_time": 8.235}, {"pitch": 62, "velocity": 62, "note_on_time": 8.645, "note_off_time": 8.756}, {"pitch": 62, "velocity": 58, "note_on_time": 8.859, "note_off_time": 8.984}]</notes><guidance name="Guidance Mode">None</guidance><error name="Error value">0.1635781999999999</error></trial><trial trial_no="3" timestamp="2022_11_03-13_54_08"><notes name="Played Notes">[{"pitch": 62, "velocity": 43, "note_on_time": 1.043, "note_off_time": 1.143}, {"pitch": 64, "velocity": 43, "note_on_time": 1.296, "note_off_time": 1.385}, {"pitch": 62, "velocity": 66, "note_on_time": 1.514, "note_off_time": 1.645}, {"pitch": 60, "velocity": 54, "note_on_time": 1.776, "note_off_time": 1.908}, {"pitch": 64, "velocity": 53, "note_on_time": 2.02, "note_off_time": 2.268}, {"pitch": 62, "velocity": 52, "note_on_time": 2.502, "note_off_time": 2.797}, {"pitch": 62, "velocity": 57, "note_on_time": 2.997, "note_off_time": 3.103}, {"pitch": 62, "velocity": 55, "note_on_time": 3.243, "note_off_time": 3.35}, {"pitch": 62, "velocity": 47, "note_on_time": 3.491, "note_off_time": 3.596}, {"pitch": 62, "velocity": 47, "note_on_time": 3.736, "note_off_time": 3.839}, {"pitch": 62, "velocity": 46, "note_on_time": 3.972, "note_off_time": 4.095}, {"pitch": 60, "velocity": 56, "note_on_time": 4.234, "note_off_time": 4.348}, {"pitch": 64, "velocity": 66, "note_on_time": 4.48, "note_off_time": 4.6}, {"pitch": 60, "velocity": 57, "note_on_time": 4.727, "note_off_time": 4.824}, {"pitch": 62, "velocity": 76, "note_on_time": 5.004, "note_off_time": 5.147}, {"pitch": 60, "velocity": 50, "note_on_time": 5.228, "note_off_time": 5.423}, {"pitch": 60, "velocity": 59, "note_on_time": 5.74, "note_off_time": 5.842}, {"pitch": 64, "velocity": 59, "note_on_time": 5.981, "note_off_time": 6.088}, {"pitch": 64, "velocity": 46, "note_on_time": 6.229, "note_off_time": 6.339}, {"pitch": 62, "velocity": 56, "note_on_time": 6.47, "note_off_time": 6.606}, {"pitch": 60, "velocity": 51, "note_on_time": 6.73, "note_off_time": 6.805}, {"pitch": 60, "velocity": 59, "note_on_time": 6.967, "note_off_time": 7.074}, {"pitch": 60, "velocity": 50, "note_on_time": 7.2, "note_off_time": 7.318}, {"pitch": 64, "velocity": 62, "note_on_time": 7.451, "note_off_time": 7.574}, {"pitch": 62, "velocity": 62, "note_on_time": 7.708, "note_off_time": 7.869}, {"pitch": 62, "velocity": 61, "note_on_time": 8.229, "note_off_time": 8.35}, {"pitch": 62, "velocity": 56, "note_on_time": 8.478, "note_off_time": 8.588}, {"pitch": 62, "velocity": 64, "note_on_time": 8.709, "note_off_time": 8.886}]</notes><guidance name="Guidance Mode">None</guidance><error name="Error value">0.01274860000000011</error></trial></trials></MIDI>