<MIDI midiNo="2022_08_17-12_21_45"><target_notes><notes name="Note List">[{"pitch": 42, "velocity": 80, "note_on_time": 0.004, "note_off_time": 0.244}, {"pitch": 42, "velocity": 80, "note_on_time": 0.244, "note_off_time": 0.479}, {"pitch": 42, "velocity": 80, "note_on_time": 0.479, "note_off_time": 0.712}, {"pitch": 42, "velocity": 80, "note_on_time": 0.713, "note_off_time": 0.945}, {"pitch": 42, "velocity": 80, "note_on_time": 0.945, "note_off_time": 1.178}, {"pitch": 64, "velocity": 80, "note_on_time": 0.944, "note_off_time": 1.412}, {"pitch": 42, "velocity": 80, "note_on_time": 1.178, "note_off_time": 1.412}, {"pitch": 42, "velocity": 80, "note_on_time": 1.412, "note_off_time": 1.644}, {"pitch": 60, "velocity": 80, "note_on_time": 1.412, "note_off_time": 1.878}, {"pitch": 42, "velocity": 80, "note_on_time": 1.645, "note_off_time": 1.878}, {"pitch": 62, "velocity": 80, "note_on_time": 1.878, "note_off_time": 2.111}, {"pitch": 42, "velocity": 80, "note_on_time": 1.878, "note_off_time": 2.111}, {"pitch": 60, "velocity": 80, "note_on_time": 2.111, "note_off_time": 2.347}, {"pitch": 42, "velocity": 80, "note_on_time": 2.111, "note_off_time": 2.347}, {"pitch": 67, "velocity": 80, "note_on_time": 2.347, "note_off_time": 2.579}, {"pitch": 42, "velocity": 80, "note_on_time": 2.347, "note_off_time": 2.579}, {"pitch": 60, "velocity": 80, "note_on_time": 2.579, "note_off_time": 2.813}, {"pitch": 42, "velocity": 80, "note_on_time": 2.58, "note_off_time": 2.814}, {"pitch": 42, "velocity": 80, "note_on_time": 2.814, "note_off_time": 3.049}, {"pitch": 60, "velocity": 80, "note_on_time": 2.813, "note_off_time": 3.283}, {"pitch": 42, "velocity": 80, "note_on_time": 3.049, "note_off_time": 3.283}, {"pitch": 42, "velocity": 80, "note_on_time": 3.284, "note_off_time": 3.519}, {"pitch": 65, "velocity": 80, "note_on_time": 3.283, "note_off_time": 3.756}, {"pitch": 42, "velocity": 80, "note_on_time": 3.519, "note_off_time": 3.756}, {"pitch": 42, "velocity": 80, "note_on_time": 3.756, "note_off_time": 3.99}, {"pitch": 65, "velocity": 80, "note_on_time": 3.756, "note_off_time": 4.223}, {"pitch": 42, "velocity": 80, "note_on_time": 3.991, "note_off_time": 4.224}, {"pitch": 42, "velocity": 80, "note_on_time": 4.224, "note_off_time": 4.456}, {"pitch": 65, "velocity": 80, "note_on_time": 4.456, "note_off_time": 4.69}, {"pitch": 42, "velocity": 80, "note_on_time": 4.456, "note_off_time": 4.69}, {"pitch": 65, "velocity": 80, "note_on_time": 4.69, "note_off_time": 4.923}, {"pitch": 42, "velocity": 80, "note_on_time": 4.691, "note_off_time": 4.923}, {"pitch": 67, "velocity": 80, "note_on_time": 4.923, "note_off_time": 5.158}, {"pitch": 42, "velocity": 80, "note_on_time": 4.923, "note_off_time": 5.158}, {"pitch": 60, "velocity": 80, "note_on_time": 5.158, "note_off_time": 5.393}, {"pitch": 42, "velocity": 80, "note_on_time": 5.159, "note_off_time": 5.393}, {"pitch": 65, "velocity": 80, "note_on_time": 5.393, "note_off_time": 5.627}, {"pitch": 42, "velocity": 80, "note_on_time": 5.394, "note_off_time": 5.627}, {"pitch": 64, "velocity": 80, "note_on_time": 5.627, "note_off_time": 5.861}, {"pitch": 42, "velocity": 80, "note_on_time": 5.627, "note_off_time": 5.862}, {"pitch": 42, "velocity": 80, "note_on_time": 5.862, "note_off_time": 6.093}, {"pitch": 42, "velocity": 80, "note_on_time": 6.093, "note_off_time": 6.327}, {"pitch": 42, "velocity": 80, "note_on_time": 6.327, "note_off_time": 6.56}, {"pitch": 62, "velocity": 80, "note_on_time": 6.56, "note_off_time": 6.797}, {"pitch": 42, "velocity": 80, "note_on_time": 6.56, "note_off_time": 6.797}, {"pitch": 42, "velocity": 80, "note_on_time": 6.797, "note_off_time": 7.031}, {"pitch": 64, "velocity": 80, "note_on_time": 6.797, "note_off_time": 7.265}, {"pitch": 42, "velocity": 80, "note_on_time": 7.031, "note_off_time": 7.266}, {"pitch": 42, "velocity": 80, "note_on_time": 7.266, "note_off_time": 7.497}, {"pitch": 42, "velocity": 80, "note_on_time": 7.497, "note_off_time": 7.73}, {"pitch": 64, "velocity": 80, "note_on_time": 7.73, "note_off_time": 7.963}, {"pitch": 42, "velocity": 80, "note_on_time": 7.73, "note_off_time": 7.963}, {"pitch": 64, "velocity": 80, "note_on_time": 7.963, "note_off_time": 8.195}, {"pitch": 42, "velocity": 80, "note_on_time": 7.963, "note_off_time": 8.195}, {"pitch": 64, "velocity": 80, "note_on_time": 8.195, "note_off_time": 8.43}, {"pitch": 42, "velocity": 80, "note_on_time": 8.195, "note_off_time": 8.43}]</notes><options name="Option List">((4, 4), [0.5, 0.25], 3, 8, &lt;NoteRangePerHand.C_TO_G: 6&gt;, &lt;NoteRangePerHand.ONE_NOTE: 2&gt;, False, True, True, '265')</options></target_notes><trials><trial trial_no="1" timestamp="2022_08_17-12_23_19"><notes name="Played Notes">[{"pitch": 64, "velocity": 57, "note_on_time": 0.97, "note_off_time": 1.431}, {"pitch": 60, "velocity": 70, "note_on_time": 1.437, "note_off_time": 1.853}, {"pitch": 62, "velocity": 51, "note_on_time": 1.875, "note_off_time": 2.086}, {"pitch": 60, "velocity": 54, "note_on_time": 2.086, "note_off_time": 2.302}, {"pitch": 67, "velocity": 58, "note_on_time": 2.314, "note_off_time": 2.484}, {"pitch": 60, "velocity": 67, "note_on_time": 2.522, "note_off_time": 2.611}, {"pitch": 60, "velocity": 74, "note_on_time": 2.755, "note_off_time": 3.239}, {"pitch": 65, "velocity": 73, "note_on_time": 3.226, "note_off_time": 3.52}, {"pitch": 65, "velocity": 73, "note_on_time": 3.715, "note_off_time": 4.004}, {"pitch": 65, "velocity": 74, "note_on_time": 4.19, "note_off_time": 4.334}, {"pitch": 65, "velocity": 54, "note_on_time": 4.437, "note_off_time": 4.551}, {"pitch": 67, "velocity": 71, "note_on_time": 4.686, "note_off_time": 4.829}, {"pitch": 60, "velocity": 66, "note_on_time": 4.907, "note_off_time": 5.033}, {"pitch": 65, "velocity": 55, "note_on_time": 5.148, "note_off_time": 5.31}, {"pitch": 64, "velocity": 52, "note_on_time": 5.372, "note_off_time": 5.491}, {"pitch": 62, "velocity": 71, "note_on_time": 6.336, "note_off_time": 6.411}, {"pitch": 64, "velocity": 76, "note_on_time": 6.578, "note_off_time": 6.898}, {"pitch": 64, "velocity": 71, "note_on_time": 7.524, "note_off_time": 7.619}, {"pitch": 64, "velocity": 66, "note_on_time": 7.75, "note_off_time": 7.85}, {"pitch": 64, "velocity": 79, "note_on_time": 7.999, "note_off_time": 8.148}]</notes><guidance name="Guidance Mode">None</guidance><error name="Error value">0.031319705882352916</error></trial><trial trial_no="2" timestamp="2022_08_17-12_23_38"><notes name="Played Notes">[{"pitch": 64, "velocity": 65, "note_on_time": 0.98, "note_off_time": 1.44}, {"pitch": 60, "velocity": 72, "note_on_time": 1.458, "note_off_time": 1.881}, {"pitch": 62, "velocity": 61, "note_on_time": 1.883, "note_off_time": 2.093}, {"pitch": 60, "velocity": 58, "note_on_time": 2.111, "note_off_time": 2.368}, {"pitch": 67, "velocity": 61, "note_on_time": 2.353, "note_off_time": 2.53}, {"pitch": 60, "velocity": 58, "note_on_time": 2.552, "note_off_time": 2.646}, {"pitch": 60, "velocity": 67, "note_on_time": 2.815, "note_off_time": 3.302}, {"pitch": 65, "velocity": 67, "note_on_time": 3.299, "note_off_time": 3.611}, {"pitch": 65, "velocity": 74, "note_on_time": 3.801, "note_off_time": 4.108}, {"pitch": 65, "velocity": 69, "note_on_time": 4.494, "note_off_time": 4.582}, {"pitch": 65, "velocity": 75, "note_on_time": 4.759, "note_off_time": 4.957}, {"pitch": 67, "velocity": 63, "note_on_time": 5.043, "note_off_time": 5.159}, {"pitch": 60, "velocity": 63, "note_on_time": 5.289, "note_off_time": 5.432}, {"pitch": 65, "velocity": 65, "note_on_time": 5.547, "note_off_time": 5.648}, {"pitch": 64, "velocity": 64, "note_on_time": 5.818, "note_off_time": 6.045}, {"pitch": 62, "velocity": 60, "note_on_time": 6.816, "note_off_time": 6.939}, {"pitch": 64, "velocity": 66, "note_on_time": 7.167, "note_off_time": 7.49}, {"pitch": 64, "velocity": 71, "note_on_time": 8.183, "note_off_time": 8.295}]</notes><guidance name="Guidance Mode">None</guidance><error name="Error value">0.18176147058823516</error></trial><trial trial_no="3" timestamp="2022_08_17-12_23_58"><notes name="Played Notes">[{"pitch": 64, "velocity": 59, "note_on_time": 0.995, "note_off_time": 1.421}, {"pitch": 60, "velocity": 71, "note_on_time": 1.455, "note_off_time": 1.895}, {"pitch": 62, "velocity": 48, "note_on_time": 1.907, "note_off_time": 2.127}, {"pitch": 60, "velocity": 57, "note_on_time": 2.142, "note_off_time": 2.376}, {"pitch": 67, "velocity": 63, "note_on_time": 2.385, "note_off_time": 2.563}, {"pitch": 60, "velocity": 59, "note_on_time": 2.6, "note_off_time": 2.701}, {"pitch": 60, "velocity": 60, "note_on_time": 2.838, "note_off_time": 3.307}, {"pitch": 65, "velocity": 69, "note_on_time": 3.3, "note_off_time": 3.559}, {"pitch": 65, "velocity": 77, "note_on_time": 3.776, "note_off_time": 4.075}, {"pitch": 65, "velocity": 65, "note_on_time": 4.451, "note_off_time": 4.536}, {"pitch": 65, "velocity": 62, "note_on_time": 4.711, "note_off_time": 4.853}, {"pitch": 67, "velocity": 67, "note_on_time": 4.957, "note_off_time": 5.091}, {"pitch": 60, "velocity": 56, "note_on_time": 5.183, "note_off_time": 5.31}, {"pitch": 65, "velocity": 64, "note_on_time": 5.419, "note_off_time": 5.499}, {"pitch": 64, "velocity": 67, "note_on_time": 5.656, "note_off_time": 5.88}, {"pitch": 62, "velocity": 55, "note_on_time": 6.587, "note_off_time": 6.708}, {"pitch": 64, "velocity": 59, "note_on_time": 6.818, "note_off_time": 7.097}, {"pitch": 64, "velocity": 57, "note_on_time": 7.56, "note_off_time": 7.669}, {"pitch": 64, "velocity": 62, "note_on_time": 7.808, "note_off_time": 7.905}, {"pitch": 64, "velocity": 72, "note_on_time": 8.063, "note_off_time": 8.178}]</notes><guidance name="Guidance Mode">None</guidance><error name="Error value">0.02413323529411758</error></trial></trials></MIDI>