<MIDI midiNo="20220202-151911"><target_notes><notes name="Note List">[{"pitch": 64, "velocity": 100, "note_on_time": 1.87, "note_off_time": 2.336}, {"pitch": 60, "velocity": 100, "note_on_time": 3.734, "note_off_time": 4.2}, {"pitch": 60, "velocity": 100, "note_on_time": 4.2, "note_off_time": 4.666}, {"pitch": 62, "velocity": 100, "note_on_time": 4.666, "note_off_time": 5.133}, {"pitch": 62, "velocity": 100, "note_on_time": 5.133, "note_off_time": 5.6}, {"pitch": 60, "velocity": 100, "note_on_time": 5.6, "note_off_time": 6.531}, {"pitch": 62, "velocity": 100, "note_on_time": 7.461, "note_off_time": 7.927}, {"pitch": 64, "velocity": 100, "note_on_time": 7.927, "note_off_time": 8.859}, {"pitch": 60, "velocity": 100, "note_on_time": 8.859, "note_off_time": 9.326}, {"pitch": 60, "velocity": 100, "note_on_time": 9.326, "note_off_time": 9.788}, {"pitch": 62, "velocity": 100, "note_on_time": 9.788, "note_off_time": 10.253}, {"pitch": 62, "velocity": 100, "note_on_time": 10.254, "note_off_time": 10.72}, {"pitch": 62, "velocity": 100, "note_on_time": 10.72, "note_off_time": 11.186}, {"pitch": 60, "velocity": 100, "note_on_time": 11.187, "note_off_time": 12.119}, {"pitch": 60, "velocity": 100, "note_on_time": 13.518, "note_off_time": 13.985}, {"pitch": 60, "velocity": 100, "note_on_time": 13.985, "note_off_time": 14.452}, {"pitch": 60, "velocity": 100, "note_on_time": 14.452, "note_off_time": 14.918}]</notes><options name="Option List">((4, 4), [0.5, 0.25], 3, 7, &lt;NoteRangePerHand.THREE_NOTES: 4&gt;, &lt;NoteRangePerHand.ONE_NOTE: 2&gt;, False, True, True, 130)</options></target_notes><trials><trial trial_no="1" timestamp="20220202-151854"><notes name="Played Notes">[{"pitch": 64, "velocity": 100, "note_on_time": 1.858, "note_off_time": 2.207}, {"pitch": 60, "velocity": 100, "note_on_time": 3.712, "note_off_time": 3.931}, {"pitch": 60, "velocity": 100, "note_on_time": 4.15, "note_off_time": 4.403}, {"pitch": 62, "velocity": 100, "note_on_time": 4.615, "note_off_time": 4.825}, {"pitch": 62, "velocity": 100, "note_on_time": 5.077, "note_off_time": 5.329}, {"pitch": 60, "velocity": 100, "note_on_time": 5.568, "note_off_time": 6.474}, {"pitch": 62, "velocity": 100, "note_on_time": 7.507, "note_off_time": 7.746}, {"pitch": 64, "velocity": 100, "note_on_time": 7.91, "note_off_time": 8.735}, {"pitch": 60, "velocity": 100, "note_on_time": 8.814, "note_off_time": 9.119}, {"pitch": 60, "velocity": 100, "note_on_time": 9.275, "note_off_time": 9.596}, {"pitch": 62, "velocity": 100, "note_on_time": 9.724, "note_off_time": 10.073}, {"pitch": 62, "velocity": 100, "note_on_time": 10.214, "note_off_time": 10.533}, {"pitch": 62, "velocity": 100, "note_on_time": 10.675, "note_off_time": 11.033}, {"pitch": 60, "velocity": 100, "note_on_time": 11.129, "note_off_time": 12.061}, {"pitch": 60, "velocity": 100, "note_on_time": 13.486, "note_off_time": 13.686}, {"pitch": 60, "velocity": 100, "note_on_time": 13.928, "note_off_time": 14.142}, {"pitch": 60, "velocity": 100, "note_on_time": 14.4, "note_off_time": 14.641}]</notes><guidance name="Guidance Mode">None</guidance><error name="Error value">15.404315285714292</error></trial></trials></MIDI>