<MIDI midiNo="2022_08_17-14_57_50"><target_notes><notes name="Note List">[{"pitch": 42, "velocity": 80, "note_on_time": 0.004, "note_off_time": 0.417}, {"pitch": 42, "velocity": 80, "note_on_time": 0.417, "note_off_time": 0.825}, {"pitch": 42, "velocity": 80, "note_on_time": 0.825, "note_off_time": 1.232}, {"pitch": 42, "velocity": 80, "note_on_time": 1.232, "note_off_time": 1.638}, {"pitch": 67, "velocity": 80, "note_on_time": 1.638, "note_off_time": 2.045}, {"pitch": 42, "velocity": 80, "note_on_time": 1.638, "note_off_time": 2.045}, {"pitch": 62, "velocity": 80, "note_on_time": 2.045, "note_off_time": 2.448}, {"pitch": 42, "velocity": 80, "note_on_time": 2.045, "note_off_time": 2.449}, {"pitch": 67, "velocity": 80, "note_on_time": 2.448, "note_off_time": 2.856}, {"pitch": 42, "velocity": 80, "note_on_time": 2.449, "note_off_time": 2.856}, {"pitch": 65, "velocity": 80, "note_on_time": 2.856, "note_off_time": 3.261}, {"pitch": 42, "velocity": 80, "note_on_time": 2.856, "note_off_time": 3.261}, {"pitch": 64, "velocity": 80, "note_on_time": 3.261, "note_off_time": 3.667}, {"pitch": 42, "velocity": 80, "note_on_time": 3.261, "note_off_time": 3.668}, {"pitch": 42, "velocity": 80, "note_on_time": 3.668, "note_off_time": 4.073}, {"pitch": 42, "velocity": 80, "note_on_time": 4.073, "note_off_time": 4.478}, {"pitch": 42, "velocity": 80, "note_on_time": 4.479, "note_off_time": 4.885}, {"pitch": 67, "velocity": 80, "note_on_time": 4.885, "note_off_time": 5.289}, {"pitch": 42, "velocity": 80, "note_on_time": 4.885, "note_off_time": 5.29}, {"pitch": 42, "velocity": 80, "note_on_time": 5.29, "note_off_time": 5.696}, {"pitch": 42, "velocity": 80, "note_on_time": 5.696, "note_off_time": 6.1}, {"pitch": 42, "velocity": 80, "note_on_time": 6.1, "note_off_time": 6.506}, {"pitch": 42, "velocity": 80, "note_on_time": 6.506, "note_off_time": 6.914}, {"pitch": 67, "velocity": 80, "note_on_time": 6.506, "note_off_time": 7.317}, {"pitch": 42, "velocity": 80, "note_on_time": 6.914, "note_off_time": 7.318}, {"pitch": 65, "velocity": 80, "note_on_time": 7.317, "note_off_time": 7.724}, {"pitch": 42, "velocity": 80, "note_on_time": 7.318, "note_off_time": 7.724}, {"pitch": 67, "velocity": 80, "note_on_time": 7.724, "note_off_time": 8.129}, {"pitch": 42, "velocity": 80, "note_on_time": 7.724, "note_off_time": 8.13}, {"pitch": 65, "velocity": 80, "note_on_time": 8.129, "note_off_time": 8.536}, {"pitch": 42, "velocity": 80, "note_on_time": 8.13, "note_off_time": 8.537}, {"pitch": 60, "velocity": 80, "note_on_time": 8.536, "note_off_time": 8.941}, {"pitch": 42, "velocity": 80, "note_on_time": 8.537, "note_off_time": 8.941}, {"pitch": 64, "velocity": 80, "note_on_time": 8.941, "note_off_time": 9.344}, {"pitch": 42, "velocity": 80, "note_on_time": 8.941, "note_off_time": 9.345}, {"pitch": 60, "velocity": 80, "note_on_time": 9.344, "note_off_time": 9.751}, {"pitch": 42, "velocity": 80, "note_on_time": 9.345, "note_off_time": 9.751}, {"pitch": 64, "velocity": 80, "note_on_time": 9.751, "note_off_time": 10.157}, {"pitch": 42, "velocity": 80, "note_on_time": 9.751, "note_off_time": 10.157}, {"pitch": 60, "velocity": 80, "note_on_time": 10.157, "note_off_time": 10.562}, {"pitch": 42, "velocity": 80, "note_on_time": 10.158, "note_off_time": 10.562}, {"pitch": 64, "velocity": 80, "note_on_time": 10.562, "note_off_time": 10.967}, {"pitch": 42, "velocity": 80, "note_on_time": 10.563, "note_off_time": 10.968}, {"pitch": 64, "velocity": 80, "note_on_time": 10.967, "note_off_time": 11.371}, {"pitch": 42, "velocity": 80, "note_on_time": 10.968, "note_off_time": 11.371}, {"pitch": 60, "velocity": 80, "note_on_time": 11.371, "note_off_time": 11.777}, {"pitch": 42, "velocity": 80, "note_on_time": 11.372, "note_off_time": 11.778}, {"pitch": 65, "velocity": 80, "note_on_time": 11.777, "note_off_time": 12.182}, {"pitch": 42, "velocity": 80, "note_on_time": 11.778, "note_off_time": 12.182}, {"pitch": 42, "velocity": 80, "note_on_time": 12.183, "note_off_time": 12.588}, {"pitch": 65, "velocity": 80, "note_on_time": 12.182, "note_off_time": 12.995}, {"pitch": 42, "velocity": 80, "note_on_time": 12.588, "note_off_time": 12.995}, {"pitch": 42, "velocity": 80, "note_on_time": 12.995, "note_off_time": 13.401}, {"pitch": 65, "velocity": 80, "note_on_time": 13.401, "note_off_time": 13.807}, {"pitch": 42, "velocity": 80, "note_on_time": 13.401, "note_off_time": 13.807}, {"pitch": 65, "velocity": 80, "note_on_time": 13.807, "note_off_time": 14.213}, {"pitch": 42, "velocity": 80, "note_on_time": 13.807, "note_off_time": 14.214}, {"pitch": 65, "velocity": 80, "note_on_time": 14.213, "note_off_time": 14.619}, {"pitch": 42, "velocity": 80, "note_on_time": 14.214, "note_off_time": 14.619}]</notes><options name="Option List">((4, 4), [0.5, 0.25], 3, 8, &lt;NoteRangePerHand.C_TO_G: 6&gt;, &lt;NoteRangePerHand.ONE_NOTE: 2&gt;, False, True, True, '150')</options></target_notes><trials><trial trial_no="1" timestamp="2022_08_17-14_57_34"><notes name="Played Notes">[{"pitch": 67, "velocity": 62, "note_on_time": 1.643, "note_off_time": 2.063}, {"pitch": 62, "velocity": 62, "note_on_time": 2.068, "note_off_time": 2.458}, {"pitch": 67, "velocity": 72, "note_on_time": 2.468, "note_off_time": 2.899}, {"pitch": 65, "velocity": 65, "note_on_time": 2.881, "note_off_time": 3.268}, {"pitch": 64, "velocity": 78, "note_on_time": 3.254, "note_off_time": 3.454}, {"pitch": 67, "velocity": 77, "note_on_time": 4.898, "note_off_time": 5.114}, {"pitch": 67, "velocity": 71, "note_on_time": 6.531, "note_off_time": 7.316}, {"pitch": 65, "velocity": 73, "note_on_time": 7.327, "note_off_time": 7.722}, {"pitch": 67, "velocity": 74, "note_on_time": 7.738, "note_off_time": 8.119}, {"pitch": 65, "velocity": 57, "note_on_time": 8.095, "note_off_time": 8.624}, {"pitch": 60, "velocity": 52, "note_on_time": 8.621, "note_off_time": 9.022}, {"pitch": 64, "velocity": 55, "note_on_time": 9.0, "note_off_time": 9.378}, {"pitch": 60, "velocity": 73, "note_on_time": 9.398, "note_off_time": 9.767}, {"pitch": 64, "velocity": 70, "note_on_time": 9.776, "note_off_time": 10.192}, {"pitch": 60, "velocity": 67, "note_on_time": 10.202, "note_off_time": 10.583}, {"pitch": 64, "velocity": 74, "note_on_time": 10.57, "note_off_time": 10.694}, {"pitch": 64, "velocity": 72, "note_on_time": 10.952, "note_off_time": 11.055}, {"pitch": 60, "velocity": 78, "note_on_time": 11.359, "note_off_time": 11.715}, {"pitch": 65, "velocity": 68, "note_on_time": 11.756, "note_off_time": 12.058}, {"pitch": 65, "velocity": 60, "note_on_time": 12.167, "note_off_time": 12.743}, {"pitch": 65, "velocity": 79, "note_on_time": 13.36, "note_off_time": 13.495}, {"pitch": 65, "velocity": 72, "note_on_time": 13.779, "note_off_time": 13.896}, {"pitch": 65, "velocity": 75, "note_on_time": 14.184, "note_off_time": 14.298}]</notes><guidance name="Guidance Mode">None</guidance><error name="Error value">0.024949999999999962</error></trial><trial trial_no="2" timestamp="2022_08_17-14_58_04"><notes name="Played Notes">[{"pitch": 67, "velocity": 65, "note_on_time": 1.655, "note_off_time": 2.042}, {"pitch": 62, "velocity": 65, "note_on_time": 2.048, "note_off_time": 2.439}, {"pitch": 67, "velocity": 72, "note_on_time": 2.442, "note_off_time": 2.844}, {"pitch": 65, "velocity": 56, "note_on_time": 2.843, "note_off_time": 3.24}, {"pitch": 64, "velocity": 75, "note_on_time": 3.228, "note_off_time": 3.512}, {"pitch": 67, "velocity": 69, "note_on_time": 4.877, "note_off_time": 5.158}, {"pitch": 67, "velocity": 67, "note_on_time": 6.543, "note_off_time": 7.293}, {"pitch": 65, "velocity": 64, "note_on_time": 7.312, "note_off_time": 7.685}, {"pitch": 67, "velocity": 69, "note_on_time": 7.712, "note_off_time": 8.117}, {"pitch": 65, "velocity": 70, "note_on_time": 8.11, "note_off_time": 8.531}, {"pitch": 60, "velocity": 64, "note_on_time": 8.515, "note_off_time": 8.929}, {"pitch": 64, "velocity": 54, "note_on_time": 8.942, "note_off_time": 9.305}, {"pitch": 60, "velocity": 66, "note_on_time": 9.324, "note_off_time": 9.737}, {"pitch": 64, "velocity": 63, "note_on_time": 9.753, "note_off_time": 10.141}, {"pitch": 60, "velocity": 59, "note_on_time": 10.155, "note_off_time": 10.552}, {"pitch": 64, "velocity": 67, "note_on_time": 10.535, "note_off_time": 10.649}, {"pitch": 64, "velocity": 74, "note_on_time": 10.933, "note_off_time": 11.014}, {"pitch": 60, "velocity": 70, "note_on_time": 11.356, "note_off_time": 11.742}, {"pitch": 65, "velocity": 69, "note_on_time": 11.754, "note_off_time": 11.941}, {"pitch": 65, "velocity": 77, "note_on_time": 12.158, "note_off_time": 12.659}, {"pitch": 65, "velocity": 75, "note_on_time": 13.412, "note_off_time": 13.538}, {"pitch": 65, "velocity": 79, "note_on_time": 13.824, "note_off_time": 13.935}, {"pitch": 65, "velocity": 88, "note_on_time": 14.237, "note_off_time": 14.344}]</notes><guidance name="Guidance Mode">None</guidance><error name="Error value">0.019399999999999883</error></trial><trial trial_no="3" timestamp="2022_08_17-14_58_32"><notes name="Played Notes">[{"pitch": 67, "velocity": 62, "note_on_time": 1.661, "note_off_time": 2.172}, {"pitch": 62, "velocity": 64, "note_on_time": 2.148, "note_off_time": 2.49}, {"pitch": 67, "velocity": 64, "note_on_time": 2.493, "note_off_time": 2.896}, {"pitch": 65, "velocity": 62, "note_on_time": 2.897, "note_off_time": 3.376}, {"pitch": 64, "velocity": 72, "note_on_time": 3.371, "note_off_time": 3.801}, {"pitch": 67, "velocity": 67, "note_on_time": 4.855, "note_off_time": 5.355}, {"pitch": 65, "velocity": 57, "note_on_time": 6.566, "note_off_time": 6.968}, {"pitch": 65, "velocity": 81, "note_on_time": 7.431, "note_off_time": 7.807}, {"pitch": 67, "velocity": 71, "note_on_time": 7.831, "note_off_time": 8.194}, {"pitch": 65, "velocity": 73, "note_on_time": 8.197, "note_off_time": 8.712}, {"pitch": 60, "velocity": 52, "note_on_time": 8.704, "note_off_time": 9.067}, {"pitch": 64, "velocity": 56, "note_on_time": 9.083, "note_off_time": 9.435}, {"pitch": 60, "velocity": 64, "note_on_time": 9.471, "note_off_time": 9.883}, {"pitch": 64, "velocity": 62, "note_on_time": 9.879, "note_off_time": 10.253}, {"pitch": 60, "velocity": 58, "note_on_time": 10.289, "note_off_time": 10.666}, {"pitch": 64, "velocity": 74, "note_on_time": 10.664, "note_off_time": 10.735}, {"pitch": 64, "velocity": 61, "note_on_time": 11.074, "note_off_time": 11.134}, {"pitch": 60, "velocity": 62, "note_on_time": 11.735, "note_off_time": 11.795}, {"pitch": 65, "velocity": 72, "note_on_time": 12.117, "note_off_time": 12.202}, {"pitch": 65, "velocity": 68, "note_on_time": 12.457, "note_off_time": 12.98}, {"pitch": 65, "velocity": 66, "note_on_time": 13.773, "note_off_time": 13.877}, {"pitch": 65, "velocity": 62, "note_on_time": 14.188, "note_off_time": 14.272}]</notes><guidance name="Guidance Mode">None</guidance><error name="Error value">0.18044999999999997</error></trial><trial trial_no="4" timestamp="2022_08_17-14_59_06"><notes name="Played Notes">[{"pitch": 67, "velocity": 64, "note_on_time": 1.618, "note_off_time": 2.021}, {"pitch": 62, "velocity": 61, "note_on_time": 2.032, "note_off_time": 2.405}, {"pitch": 67, "velocity": 73, "note_on_time": 2.415, "note_off_time": 2.832}, {"pitch": 65, "velocity": 67, "note_on_time": 2.825, "note_off_time": 3.221}, {"pitch": 64, "velocity": 70, "note_on_time": 3.223, "note_off_time": 3.387}, {"pitch": 67, "velocity": 70, "note_on_time": 4.868, "note_off_time": 5.097}, {"pitch": 67, "velocity": 75, "note_on_time": 6.528, "note_off_time": 7.267}, {"pitch": 65, "velocity": 65, "note_on_time": 7.28, "note_off_time": 7.684}, {"pitch": 67, "velocity": 78, "note_on_time": 7.698, "note_off_time": 8.139}, {"pitch": 65, "velocity": 60, "note_on_time": 8.111, "note_off_time": 8.508}, {"pitch": 60, "velocity": 68, "note_on_time": 8.471, "note_off_time": 8.932}, {"pitch": 64, "velocity": 66, "note_on_time": 8.947, "note_off_time": 9.332}, {"pitch": 60, "velocity": 69, "note_on_time": 9.356, "note_off_time": 9.745}, {"pitch": 64, "velocity": 61, "note_on_time": 9.764, "note_off_time": 10.155}, {"pitch": 60, "velocity": 64, "note_on_time": 10.168, "note_off_time": 10.582}, {"pitch": 64, "velocity": 62, "note_on_time": 10.573, "note_off_time": 10.697}, {"pitch": 64, "velocity": 75, "note_on_time": 10.968, "note_off_time": 11.068}, {"pitch": 60, "velocity": 72, "note_on_time": 11.379, "note_off_time": 11.51}, {"pitch": 65, "velocity": 69, "note_on_time": 11.794, "note_off_time": 11.914}, {"pitch": 65, "velocity": 69, "note_on_time": 12.205, "note_off_time": 12.727}, {"pitch": 65, "velocity": 66, "note_on_time": 13.392, "note_off_time": 13.515}, {"pitch": 65, "velocity": 74, "note_on_time": 13.804, "note_off_time": 13.931}, {"pitch": 65, "velocity": 73, "note_on_time": 14.206, "note_off_time": 14.27}]</notes><guidance name="Guidance Mode">None</guidance><error name="Error value">0.021899999999999985</error></trial><trial trial_no="5" timestamp="2022_08_17-14_59_36"><notes name="Played Notes">[{"pitch": 67, "velocity": 68, "note_on_time": 1.655, "note_off_time": 2.05}, {"pitch": 62, "velocity": 63, "note_on_time": 2.056, "note_off_time": 2.435}, {"pitch": 67, "velocity": 69, "note_on_time": 2.449, "note_off_time": 2.848}, {"pitch": 65, "velocity": 65, "note_on_time": 2.833, "note_off_time": 3.252}, {"pitch": 64, "velocity": 74, "note_on_time": 3.243, "note_off_time": 3.372}, {"pitch": 67, "velocity": 64, "note_on_time": 4.887, "note_off_time": 5.074}, {"pitch": 67, "velocity": 63, "note_on_time": 6.56, "note_off_time": 7.342}, {"pitch": 65, "velocity": 73, "note_on_time": 7.334, "note_off_time": 7.728}, {"pitch": 67, "velocity": 73, "note_on_time": 7.75, "note_off_time": 8.163}, {"pitch": 65, "velocity": 62, "note_on_time": 8.154, "note_off_time": 8.574}, {"pitch": 60, "velocity": 65, "note_on_time": 8.563, "note_off_time": 8.931}, {"pitch": 64, "velocity": 68, "note_on_time": 8.954, "note_off_time": 9.349}, {"pitch": 60, "velocity": 63, "note_on_time": 9.374, "note_off_time": 9.759}, {"pitch": 64, "velocity": 62, "note_on_time": 9.771, "note_off_time": 10.161}, {"pitch": 60, "velocity": 65, "note_on_time": 10.184, "note_off_time": 10.576}, {"pitch": 64, "velocity": 64, "note_on_time": 10.569, "note_off_time": 10.718}, {"pitch": 64, "velocity": 64, "note_on_time": 10.961, "note_off_time": 11.379}, {"pitch": 60, "velocity": 61, "note_on_time": 11.396, "note_off_time": 11.752}, {"pitch": 65, "velocity": 64, "note_on_time": 11.762, "note_off_time": 12.087}, {"pitch": 65, "velocity": 78, "note_on_time": 12.307, "note_off_time": 12.715}, {"pitch": 65, "velocity": 71, "note_on_time": 13.755, "note_off_time": 13.852}, {"pitch": 65, "velocity": 73, "note_on_time": 14.15, "note_off_time": 14.23}, {"pitch": 65, "velocity": 72, "note_on_time": 14.497, "note_off_time": 14.558}]</notes><guidance name="Guidance Mode">None</guidance><error name="Error value">0.03969999999999994</error></trial><trial trial_no="6" timestamp="2022_08_17-15_00_07"><notes name="Played Notes">[{"pitch": 67, "velocity": 63, "note_on_time": 1.67, "note_off_time": 2.041}, {"pitch": 62, "velocity": 69, "note_on_time": 2.059, "note_off_time": 2.448}, {"pitch": 67, "velocity": 62, "note_on_time": 2.496, "note_off_time": 2.868}, {"pitch": 65, "velocity": 61, "note_on_time": 2.872, "note_off_time": 3.287}, {"pitch": 64, "velocity": 76, "note_on_time": 3.288, "note_off_time": 3.605}, {"pitch": 67, "velocity": 69, "note_on_time": 4.9, "note_off_time": 5.223}, {"pitch": 67, "velocity": 71, "note_on_time": 6.543, "note_off_time": 7.309}, {"pitch": 65, "velocity": 67, "note_on_time": 7.325, "note_off_time": 7.741}, {"pitch": 67, "velocity": 73, "note_on_time": 7.762, "note_off_time": 8.123}, {"pitch": 65, "velocity": 69, "note_on_time": 8.127, "note_off_time": 8.567}, {"pitch": 60, "velocity": 66, "note_on_time": 8.555, "note_off_time": 8.949}, {"pitch": 64, "velocity": 64, "note_on_time": 8.963, "note_off_time": 9.356}, {"pitch": 60, "velocity": 62, "note_on_time": 9.383, "note_off_time": 9.745}, {"pitch": 64, "velocity": 53, "note_on_time": 9.773, "note_off_time": 10.154}, {"pitch": 60, "velocity": 46, "note_on_time": 10.197, "note_off_time": 10.636}, {"pitch": 64, "velocity": 67, "note_on_time": 10.605, "note_off_time": 10.714}, {"pitch": 64, "velocity": 68, "note_on_time": 10.98, "note_off_time": 11.392}, {"pitch": 60, "velocity": 65, "note_on_time": 11.415, "note_off_time": 11.809}, {"pitch": 65, "velocity": 72, "note_on_time": 11.803, "note_off_time": 11.99}, {"pitch": 65, "velocity": 73, "note_on_time": 12.214, "note_off_time": 12.701}, {"pitch": 65, "velocity": 83, "note_on_time": 13.773, "note_off_time": 13.889}, {"pitch": 65, "velocity": 85, "note_on_time": 14.145, "note_off_time": 14.237}, {"pitch": 65, "velocity": 78, "note_on_time": 14.535, "note_off_time": 14.589}]</notes><guidance name="Guidance Mode">None</guidance><error name="Error value">1.7788499999999998</error></trial></trials></MIDI>