<MIDI midiNo="2022_11_21-19_44_43"><target_notes><notes name="Note List">[{"pitch": 42, "velocity": 80, "note_on_time": 0.003, "note_off_time": 0.414}, {"pitch": 42, "velocity": 80, "note_on_time": 0.414, "note_off_time": 0.824}, {"pitch": 42, "velocity": 80, "note_on_time": 0.824, "note_off_time": 1.235}, {"pitch": 42, "velocity": 80, "note_on_time": 1.235, "note_off_time": 1.65}, {"pitch": 42, "velocity": 80, "note_on_time": 1.65, "note_off_time": 2.063}, {"pitch": 62, "velocity": 80, "note_on_time": 1.65, "note_off_time": 2.472}, {"pitch": 42, "velocity": 80, "note_on_time": 2.063, "note_off_time": 2.472}, {"pitch": 42, "velocity": 80, "note_on_time": 2.472, "note_off_time": 2.887}, {"pitch": 42, "velocity": 80, "note_on_time": 2.887, "note_off_time": 3.298}, {"pitch": 62, "velocity": 80, "note_on_time": 3.298, "note_off_time": 3.711}, {"pitch": 42, "velocity": 80, "note_on_time": 3.298, "note_off_time": 3.711}, {"pitch": 42, "velocity": 80, "note_on_time": 3.711, "note_off_time": 4.125}, {"pitch": 42, "velocity": 80, "note_on_time": 4.125, "note_off_time": 4.538}, {"pitch": 42, "velocity": 80, "note_on_time": 4.538, "note_off_time": 4.949}, {"pitch": 60, "velocity": 80, "note_on_time": 4.949, "note_off_time": 5.362}, {"pitch": 42, "velocity": 80, "note_on_time": 4.949, "note_off_time": 5.362}, {"pitch": 60, "velocity": 80, "note_on_time": 5.362, "note_off_time": 5.777}, {"pitch": 42, "velocity": 80, "note_on_time": 5.362, "note_off_time": 5.777}, {"pitch": 60, "velocity": 80, "note_on_time": 5.777, "note_off_time": 6.192}, {"pitch": 42, "velocity": 80, "note_on_time": 5.777, "note_off_time": 6.192}, {"pitch": 62, "velocity": 80, "note_on_time": 6.192, "note_off_time": 6.604}, {"pitch": 42, "velocity": 80, "note_on_time": 6.192, "note_off_time": 6.604}, {"pitch": 64, "velocity": 80, "note_on_time": 6.604, "note_off_time": 7.011}, {"pitch": 42, "velocity": 80, "note_on_time": 6.604, "note_off_time": 7.011}, {"pitch": 60, "velocity": 80, "note_on_time": 7.011, "note_off_time": 7.418}, {"pitch": 42, "velocity": 80, "note_on_time": 7.011, "note_off_time": 7.418}, {"pitch": 64, "velocity": 80, "note_on_time": 7.418, "note_off_time": 7.82}, {"pitch": 42, "velocity": 80, "note_on_time": 7.419, "note_off_time": 7.82}, {"pitch": 62, "velocity": 80, "note_on_time": 7.82, "note_off_time": 8.226}, {"pitch": 42, "velocity": 80, "note_on_time": 7.82, "note_off_time": 8.226}, {"pitch": 42, "velocity": 80, "note_on_time": 8.227, "note_off_time": 8.63}, {"pitch": 60, "velocity": 80, "note_on_time": 8.226, "note_off_time": 9.035}, {"pitch": 42, "velocity": 80, "note_on_time": 8.63, "note_off_time": 9.035}, {"pitch": 42, "velocity": 80, "note_on_time": 9.035, "note_off_time": 9.444}, {"pitch": 42, "velocity": 80, "note_on_time": 9.444, "note_off_time": 9.85}, {"pitch": 64, "velocity": 80, "note_on_time": 9.85, "note_off_time": 10.252}, {"pitch": 42, "velocity": 80, "note_on_time": 9.851, "note_off_time": 10.253}, {"pitch": 62, "velocity": 80, "note_on_time": 10.252, "note_off_time": 10.659}, {"pitch": 42, "velocity": 80, "note_on_time": 10.253, "note_off_time": 10.659}, {"pitch": 64, "velocity": 80, "note_on_time": 10.659, "note_off_time": 11.062}, {"pitch": 42, "velocity": 80, "note_on_time": 10.659, "note_off_time": 11.062}, {"pitch": 60, "velocity": 80, "note_on_time": 11.062, "note_off_time": 11.466}, {"pitch": 42, "velocity": 80, "note_on_time": 11.063, "note_off_time": 11.466}, {"pitch": 64, "velocity": 80, "note_on_time": 11.466, "note_off_time": 11.872}, {"pitch": 42, "velocity": 80, "note_on_time": 11.467, "note_off_time": 11.873}, {"pitch": 62, "velocity": 80, "note_on_time": 11.872, "note_off_time": 12.279}, {"pitch": 42, "velocity": 80, "note_on_time": 11.873, "note_off_time": 12.28}, {"pitch": 60, "velocity": 80, "note_on_time": 12.279, "note_off_time": 12.684}, {"pitch": 42, "velocity": 80, "note_on_time": 12.28, "note_off_time": 12.684}, {"pitch": 60, "velocity": 80, "note_on_time": 12.684, "note_off_time": 13.09}, {"pitch": 42, "velocity": 80, "note_on_time": 12.685, "note_off_time": 13.09}, {"pitch": 42, "velocity": 80, "note_on_time": 13.09, "note_off_time": 13.496}, {"pitch": 60, "velocity": 80, "note_on_time": 13.496, "note_off_time": 13.9}, {"pitch": 42, "velocity": 80, "note_on_time": 13.496, "note_off_time": 13.9}, {"pitch": 60, "velocity": 80, "note_on_time": 13.9, "note_off_time": 14.303}, {"pitch": 42, "velocity": 80, "note_on_time": 13.901, "note_off_time": 14.303}, {"pitch": 60, "velocity": 80, "note_on_time": 14.303, "note_off_time": 14.709}, {"pitch": 42, "velocity": 80, "note_on_time": 14.304, "note_off_time": 14.709}]</notes><options name="Option List">((4, 4), [0.5, 0.25], 3, 8, &lt;NoteRangePerHand.THREE_NOTES: 4&gt;, &lt;NoteRangePerHand.ONE_NOTE: 2&gt;, False, True, False, 150)</options></target_notes><trials><trial trial_no="1" timestamp="2022_11_21-19_44_27"><notes name="Played Notes">[{"pitch": 62, "velocity": 80, "note_on_time": 1.628, "note_off_time": 2.335}, {"pitch": 62, "velocity": 79, "note_on_time": 3.3, "note_off_time": 3.735}, {"pitch": 60, "velocity": 89, "note_on_time": 4.872, "note_off_time": 5.065}, {"pitch": 60, "velocity": 82, "note_on_time": 5.286, "note_off_time": 5.445}, {"pitch": 60, "velocity": 58, "note_on_time": 5.686, "note_off_time": 5.942}, {"pitch": 62, "velocity": 78, "note_on_time": 6.132, "note_off_time": 6.381}, {"pitch": 64, "velocity": 69, "note_on_time": 6.546, "note_off_time": 6.773}, {"pitch": 60, "velocity": 79, "note_on_time": 6.934, "note_off_time": 7.126}, {"pitch": 64, "velocity": 72, "note_on_time": 7.358, "note_off_time": 7.607}, {"pitch": 62, "velocity": 71, "note_on_time": 7.766, "note_off_time": 7.939}, {"pitch": 60, "velocity": 85, "note_on_time": 8.155, "note_off_time": 8.455}, {"pitch": 64, "velocity": 76, "note_on_time": 9.859, "note_off_time": 10.219}, {"pitch": 62, "velocity": 59, "note_on_time": 10.256, "note_off_time": 10.445}, {"pitch": 64, "velocity": 76, "note_on_time": 10.635, "note_off_time": 11.015}, {"pitch": 60, "velocity": 82, "note_on_time": 11.015, "note_off_time": 11.206}, {"pitch": 64, "velocity": 72, "note_on_time": 11.398, "note_off_time": 11.727}, {"pitch": 62, "velocity": 71, "note_on_time": 11.815, "note_off_time": 12.157}, {"pitch": 60, "velocity": 79, "note_on_time": 12.189, "note_off_time": 12.355}, {"pitch": 60, "velocity": 84, "note_on_time": 12.586, "note_off_time": 12.76}, {"pitch": 60, "velocity": 71, "note_on_time": 13.328, "note_off_time": 13.531}, {"pitch": 60, "velocity": 74, "note_on_time": 13.748, "note_off_time": 13.894}, {"pitch": 60, "velocity": 87, "note_on_time": 14.145, "note_off_time": 14.322}]</notes><guidance name="Guidance Mode">None</guidance><error name="Error value">0.027421052631578968</error></trial><trial trial_no="2" timestamp="2022_11_21-19_44_50"><notes name="Played Notes">[{"pitch": 62, "velocity": 77, "note_on_time": 1.635, "note_off_time": 2.312}, {"pitch": 62, "velocity": 73, "note_on_time": 3.27, "note_off_time": 3.681}, {"pitch": 60, "velocity": 84, "note_on_time": 4.96, "note_off_time": 5.127}, {"pitch": 60, "velocity": 85, "note_on_time": 5.333, "note_off_time": 5.688}, {"pitch": 62, "velocity": 65, "note_on_time": 5.743, "note_off_time": 6.033}, {"pitch": 64, "velocity": 46, "note_on_time": 6.196, "note_off_time": 6.271}, {"pitch": 64, "velocity": 21, "note_on_time": 6.349, "note_off_time": 6.419}, {"pitch": 60, "velocity": 72, "note_on_time": 6.693, "note_off_time": 6.84}, {"pitch": 64, "velocity": 68, "note_on_time": 7.08, "note_off_time": 7.266}, {"pitch": 62, "velocity": 60, "note_on_time": 7.483, "note_off_time": 7.696}, {"pitch": 64, "velocity": 67, "note_on_time": 7.855, "note_off_time": 8.094}, {"pitch": 60, "velocity": 83, "note_on_time": 8.2, "note_off_time": 8.767}, {"pitch": 64, "velocity": 76, "note_on_time": 9.701, "note_off_time": 10.092}, {"pitch": 62, "velocity": 58, "note_on_time": 10.111, "note_off_time": 10.29}, {"pitch": 64, "velocity": 73, "note_on_time": 10.474, "note_off_time": 10.893}, {"pitch": 60, "velocity": 80, "note_on_time": 10.883, "note_off_time": 11.075}, {"pitch": 64, "velocity": 67, "note_on_time": 11.291, "note_off_time": 11.572}, {"pitch": 62, "velocity": 65, "note_on_time": 11.686, "note_off_time": 11.935}, {"pitch": 60, "velocity": 84, "note_on_time": 12.098, "note_off_time": 12.259}, {"pitch": 60, "velocity": 90, "note_on_time": 12.512, "note_off_time": 12.672}, {"pitch": 60, "velocity": 88, "note_on_time": 13.471, "note_off_time": 13.643}, {"pitch": 60, "velocity": 68, "note_on_time": 13.849, "note_off_time": 13.983}, {"pitch": 60, "velocity": 89, "note_on_time": 14.247, "note_off_time": 14.379}]</notes><guidance name="Guidance Mode">None</guidance><error name="Error value">0.4615263157894727</error></trial><trial trial_no="3" timestamp="2022_11_21-19_45_12"><notes name="Played Notes">[{"pitch": 62, "velocity": 75, "note_on_time": 1.631, "note_off_time": 2.312}, {"pitch": 62, "velocity": 63, "note_on_time": 3.313, "note_off_time": 3.543}, {"pitch": 60, "velocity": 79, "note_on_time": 4.873, "note_off_time": 5.062}, {"pitch": 60, "velocity": 78, "note_on_time": 5.292, "note_off_time": 5.434}, {"pitch": 60, "velocity": 67, "note_on_time": 5.709, "note_off_time": 5.863}, {"pitch": 62, "velocity": 66, "note_on_time": 6.121, "note_off_time": 6.311}, {"pitch": 64, "velocity": 68, "note_on_time": 6.527, "note_off_time": 6.73}, {"pitch": 60, "velocity": 78, "note_on_time": 6.925, "note_off_time": 7.086}, {"pitch": 64, "velocity": 62, "note_on_time": 7.334, "note_off_time": 7.515}, {"pitch": 62, "velocity": 60, "note_on_time": 7.715, "note_off_time": 7.852}, {"pitch": 60, "velocity": 81, "note_on_time": 8.114, "note_off_time": 8.269}, {"pitch": 64, "velocity": 76, "note_on_time": 9.706, "note_off_time": 9.894}, {"pitch": 62, "velocity": 56, "note_on_time": 10.141, "note_off_time": 10.256}, {"pitch": 64, "velocity": 62, "note_on_time": 10.517, "note_off_time": 10.658}, {"pitch": 60, "velocity": 74, "note_on_time": 10.897, "note_off_time": 11.065}, {"pitch": 64, "velocity": 72, "note_on_time": 11.336, "note_off_time": 11.497}, {"pitch": 62, "velocity": 62, "note_on_time": 11.718, "note_off_time": 11.883}, {"pitch": 60, "velocity": 74, "note_on_time": 12.116, "note_off_time": 12.252}, {"pitch": 60, "velocity": 82, "note_on_time": 12.51, "note_off_time": 12.64}, {"pitch": 60, "velocity": 83, "note_on_time": 13.384, "note_off_time": 13.534}, {"pitch": 60, "velocity": 71, "note_on_time": 13.768, "note_off_time": 13.879}, {"pitch": 60, "velocity": 82, "note_on_time": 14.157, "note_off_time": 14.261}]</notes><guidance name="Guidance Mode">None</guidance><error name="Error value">0.024210526315789637</error></trial></trials></MIDI>