<MIDI midiNo="2022_11_13-12_49_22"><target_notes><notes name="Note List">[{"pitch": 42, "velocity": 80, "note_on_time": 0.003, "note_off_time": 0.17}, {"pitch": 42, "velocity": 80, "note_on_time": 0.17, "note_off_time": 0.342}, {"pitch": 42, "velocity": 80, "note_on_time": 0.342, "note_off_time": 0.516}, {"pitch": 42, "velocity": 80, "note_on_time": 0.516, "note_off_time": 0.687}, {"pitch": 62, "velocity": 80, "note_on_time": 0.687, "note_off_time": 0.86}, {"pitch": 42, "velocity": 80, "note_on_time": 0.688, "note_off_time": 0.86}, {"pitch": 65, "velocity": 80, "note_on_time": 0.86, "note_off_time": 1.033}, {"pitch": 42, "velocity": 80, "note_on_time": 0.861, "note_off_time": 1.034}, {"pitch": 65, "velocity": 80, "note_on_time": 1.033, "note_off_time": 1.206}, {"pitch": 42, "velocity": 80, "note_on_time": 1.034, "note_off_time": 1.206}, {"pitch": 60, "velocity": 80, "note_on_time": 1.206, "note_off_time": 1.378}, {"pitch": 42, "velocity": 80, "note_on_time": 1.206, "note_off_time": 1.378}, {"pitch": 64, "velocity": 80, "note_on_time": 1.378, "note_off_time": 1.549}, {"pitch": 42, "velocity": 80, "note_on_time": 1.378, "note_off_time": 1.549}, {"pitch": 62, "velocity": 80, "note_on_time": 1.549, "note_off_time": 1.72}, {"pitch": 42, "velocity": 80, "note_on_time": 1.553, "note_off_time": 1.721}, {"pitch": 65, "velocity": 80, "note_on_time": 1.72, "note_off_time": 1.89}, {"pitch": 42, "velocity": 80, "note_on_time": 1.721, "note_off_time": 1.89}, {"pitch": 67, "velocity": 80, "note_on_time": 1.89, "note_off_time": 2.062}, {"pitch": 42, "velocity": 80, "note_on_time": 1.89, "note_off_time": 2.062}, {"pitch": 42, "velocity": 80, "note_on_time": 2.063, "note_off_time": 2.234}, {"pitch": 60, "velocity": 80, "note_on_time": 2.062, "note_off_time": 2.406}, {"pitch": 42, "velocity": 80, "note_on_time": 2.234, "note_off_time": 2.406}, {"pitch": 42, "velocity": 80, "note_on_time": 2.406, "note_off_time": 2.578}, {"pitch": 42, "velocity": 80, "note_on_time": 2.578, "note_off_time": 2.751}, {"pitch": 62, "velocity": 80, "note_on_time": 2.75, "note_off_time": 2.923}, {"pitch": 42, "velocity": 80, "note_on_time": 2.751, "note_off_time": 2.923}, {"pitch": 42, "velocity": 80, "note_on_time": 2.924, "note_off_time": 3.094}, {"pitch": 42, "velocity": 80, "note_on_time": 3.094, "note_off_time": 3.265}, {"pitch": 42, "velocity": 80, "note_on_time": 3.265, "note_off_time": 3.436}, {"pitch": 64, "velocity": 80, "note_on_time": 3.436, "note_off_time": 3.608}, {"pitch": 42, "velocity": 80, "note_on_time": 3.437, "note_off_time": 3.608}, {"pitch": 67, "velocity": 80, "note_on_time": 3.608, "note_off_time": 3.779}, {"pitch": 42, "velocity": 80, "note_on_time": 3.608, "note_off_time": 3.779}, {"pitch": 42, "velocity": 80, "note_on_time": 3.78, "note_off_time": 3.953}, {"pitch": 65, "velocity": 80, "note_on_time": 3.779, "note_off_time": 4.124}, {"pitch": 42, "velocity": 80, "note_on_time": 3.953, "note_off_time": 4.125}, {"pitch": 42, "velocity": 80, "note_on_time": 4.125, "note_off_time": 4.297}, {"pitch": 65, "velocity": 80, "note_on_time": 4.124, "note_off_time": 4.469}, {"pitch": 42, "velocity": 80, "note_on_time": 4.297, "note_off_time": 4.469}, {"pitch": 42, "velocity": 80, "note_on_time": 4.469, "note_off_time": 4.641}, {"pitch": 62, "velocity": 80, "note_on_time": 4.641, "note_off_time": 4.812}, {"pitch": 42, "velocity": 80, "note_on_time": 4.642, "note_off_time": 4.812}, {"pitch": 67, "velocity": 80, "note_on_time": 4.812, "note_off_time": 4.983}, {"pitch": 42, "velocity": 80, "note_on_time": 4.813, "note_off_time": 4.984}, {"pitch": 64, "velocity": 80, "note_on_time": 4.983, "note_off_time": 5.154}, {"pitch": 42, "velocity": 80, "note_on_time": 4.984, "note_off_time": 5.154}, {"pitch": 60, "velocity": 80, "note_on_time": 5.154, "note_off_time": 5.326}, {"pitch": 42, "velocity": 80, "note_on_time": 5.154, "note_off_time": 5.326}, {"pitch": 64, "velocity": 80, "note_on_time": 5.326, "note_off_time": 5.498}, {"pitch": 42, "velocity": 80, "note_on_time": 5.326, "note_off_time": 5.498}, {"pitch": 42, "velocity": 80, "note_on_time": 5.498, "note_off_time": 5.67}, {"pitch": 64, "velocity": 80, "note_on_time": 5.669, "note_off_time": 5.841}, {"pitch": 42, "velocity": 80, "note_on_time": 5.67, "note_off_time": 5.841}, {"pitch": 64, "velocity": 80, "note_on_time": 5.841, "note_off_time": 6.014}, {"pitch": 42, "velocity": 80, "note_on_time": 5.842, "note_off_time": 6.014}, {"pitch": 64, "velocity": 80, "note_on_time": 6.014, "note_off_time": 6.187}, {"pitch": 42, "velocity": 80, "note_on_time": 6.015, "note_off_time": 6.187}]</notes><options name="Option List">((4, 4), [0.5, 0.25], 3, 8, &lt;NoteRangePerHand.C_TO_G: 6&gt;, &lt;NoteRangePerHand.ONE_NOTE: 2&gt;, False, True, False, 365)</options></target_notes><trials><trial trial_no="1" timestamp="2022_11_13-12_49_14"><notes name="Played Notes">[{"pitch": 62, "velocity": 79, "note_on_time": 0.834, "note_off_time": 1.071}, {"pitch": 65, "velocity": 84, "note_on_time": 1.012, "note_off_time": 1.114}, {"pitch": 65, "velocity": 89, "note_on_time": 1.194, "note_off_time": 1.348}, {"pitch": 60, "velocity": 87, "note_on_time": 1.381, "note_off_time": 1.502}, {"pitch": 64, "velocity": 84, "note_on_time": 1.568, "note_off_time": 1.793}, {"pitch": 62, "velocity": 79, "note_on_time": 1.766, "note_off_time": 1.889}, {"pitch": 65, "velocity": 71, "note_on_time": 1.978, "note_off_time": 2.093}, {"pitch": 67, "velocity": 70, "note_on_time": 2.211, "note_off_time": 2.381}, {"pitch": 60, "velocity": 93, "note_on_time": 2.397, "note_off_time": 2.582}, {"pitch": 62, "velocity": 93, "note_on_time": 3.081, "note_off_time": 3.213}, {"pitch": 64, "velocity": 86, "note_on_time": 3.477, "note_off_time": 3.667}, {"pitch": 67, "velocity": 78, "note_on_time": 3.662, "note_off_time": 3.882}, {"pitch": 65, "velocity": 95, "note_on_time": 3.843, "note_off_time": 4.019}, {"pitch": 65, "velocity": 101, "note_on_time": 4.226, "note_off_time": 4.385}, {"pitch": 62, "velocity": 80, "note_on_time": 4.655, "note_off_time": 4.802}, {"pitch": 67, "velocity": 84, "note_on_time": 5.016, "note_off_time": 5.237}, {"pitch": 64, "velocity": 74, "note_on_time": 5.204, "note_off_time": 5.418}, {"pitch": 60, "velocity": 85, "note_on_time": 5.386, "note_off_time": 5.501}, {"pitch": 64, "velocity": 88, "note_on_time": 5.569, "note_off_time": 5.661}, {"pitch": 64, "velocity": 88, "note_on_time": 5.906, "note_off_time": 5.972}, {"pitch": 64, "velocity": 81, "note_on_time": 6.08, "note_off_time": 6.156}]</notes><guidance name="Guidance Mode">None</guidance><error name="Error value">0.11979057894736847</error></trial></trials></MIDI>