<MIDI midiNo="2022_11_03-13_08_14"><target_notes><notes name="Note List">[{"pitch": 42, "velocity": 80, "note_on_time": 0.004, "note_off_time": 0.38}, {"pitch": 42, "velocity": 80, "note_on_time": 0.381, "note_off_time": 0.753}, {"pitch": 42, "velocity": 80, "note_on_time": 0.754, "note_off_time": 1.126}, {"pitch": 42, "velocity": 80, "note_on_time": 1.127, "note_off_time": 1.498}, {"pitch": 60, "velocity": 80, "note_on_time": 1.498, "note_off_time": 1.873}, {"pitch": 42, "velocity": 80, "note_on_time": 1.498, "note_off_time": 1.873}, {"pitch": 60, "velocity": 80, "note_on_time": 1.873, "note_off_time": 2.247}, {"pitch": 42, "velocity": 80, "note_on_time": 1.873, "note_off_time": 2.247}, {"pitch": 67, "velocity": 80, "note_on_time": 2.247, "note_off_time": 2.619}, {"pitch": 42, "velocity": 80, "note_on_time": 2.247, "note_off_time": 2.619}, {"pitch": 65, "velocity": 80, "note_on_time": 2.619, "note_off_time": 2.994}, {"pitch": 42, "velocity": 80, "note_on_time": 2.62, "note_off_time": 2.994}, {"pitch": 64, "velocity": 80, "note_on_time": 2.994, "note_off_time": 3.365}, {"pitch": 42, "velocity": 80, "note_on_time": 2.994, "note_off_time": 3.365}, {"pitch": 64, "velocity": 80, "note_on_time": 3.365, "note_off_time": 3.738}, {"pitch": 42, "velocity": 80, "note_on_time": 3.366, "note_off_time": 3.738}, {"pitch": 42, "velocity": 80, "note_on_time": 3.738, "note_off_time": 4.111}, {"pitch": 60, "velocity": 80, "note_on_time": 4.11, "note_off_time": 4.483}, {"pitch": 42, "velocity": 80, "note_on_time": 4.111, "note_off_time": 4.484}, {"pitch": 62, "velocity": 80, "note_on_time": 4.483, "note_off_time": 4.857}, {"pitch": 42, "velocity": 80, "note_on_time": 4.484, "note_off_time": 4.857}, {"pitch": 42, "velocity": 80, "note_on_time": 4.857, "note_off_time": 5.23}, {"pitch": 42, "velocity": 80, "note_on_time": 5.23, "note_off_time": 5.603}, {"pitch": 42, "velocity": 80, "note_on_time": 5.603, "note_off_time": 5.977}, {"pitch": 42, "velocity": 80, "note_on_time": 5.978, "note_off_time": 6.351}, {"pitch": 62, "velocity": 80, "note_on_time": 5.977, "note_off_time": 6.726}, {"pitch": 42, "velocity": 80, "note_on_time": 6.351, "note_off_time": 6.727}, {"pitch": 42, "velocity": 80, "note_on_time": 6.727, "note_off_time": 7.097}, {"pitch": 42, "velocity": 80, "note_on_time": 7.098, "note_off_time": 7.474}, {"pitch": 65, "velocity": 80, "note_on_time": 7.474, "note_off_time": 7.847}, {"pitch": 42, "velocity": 80, "note_on_time": 7.474, "note_off_time": 7.848}, {"pitch": 62, "velocity": 80, "note_on_time": 7.847, "note_off_time": 8.219}, {"pitch": 42, "velocity": 80, "note_on_time": 7.848, "note_off_time": 8.219}, {"pitch": 42, "velocity": 80, "note_on_time": 8.22, "note_off_time": 8.594}, {"pitch": 62, "velocity": 80, "note_on_time": 8.219, "note_off_time": 8.97}, {"pitch": 42, "velocity": 80, "note_on_time": 8.594, "note_off_time": 8.97}, {"pitch": 64, "velocity": 80, "note_on_time": 8.97, "note_off_time": 9.344}, {"pitch": 42, "velocity": 80, "note_on_time": 8.971, "note_off_time": 9.344}, {"pitch": 42, "velocity": 80, "note_on_time": 9.345, "note_off_time": 9.719}, {"pitch": 62, "velocity": 80, "note_on_time": 9.344, "note_off_time": 10.094}, {"pitch": 42, "velocity": 80, "note_on_time": 9.72, "note_off_time": 10.094}, {"pitch": 42, "velocity": 80, "note_on_time": 10.095, "note_off_time": 10.466}, {"pitch": 67, "velocity": 80, "note_on_time": 10.466, "note_off_time": 10.839}, {"pitch": 42, "velocity": 80, "note_on_time": 10.466, "note_off_time": 10.839}, {"pitch": 42, "velocity": 80, "note_on_time": 10.839, "note_off_time": 11.214}, {"pitch": 60, "velocity": 80, "note_on_time": 10.839, "note_off_time": 11.589}, {"pitch": 42, "velocity": 80, "note_on_time": 11.215, "note_off_time": 11.59}, {"pitch": 42, "velocity": 80, "note_on_time": 11.59, "note_off_time": 11.962}, {"pitch": 42, "velocity": 80, "note_on_time": 11.963, "note_off_time": 12.334}, {"pitch": 60, "velocity": 80, "note_on_time": 12.334, "note_off_time": 12.708}, {"pitch": 42, "velocity": 80, "note_on_time": 12.335, "note_off_time": 12.708}, {"pitch": 60, "velocity": 80, "note_on_time": 12.708, "note_off_time": 13.081}, {"pitch": 42, "velocity": 80, "note_on_time": 12.709, "note_off_time": 13.081}, {"pitch": 60, "velocity": 80, "note_on_time": 13.081, "note_off_time": 13.457}, {"pitch": 42, "velocity": 80, "note_on_time": 13.082, "note_off_time": 13.457}]</notes><options name="Option List">((4, 4), [0.5, 0.25], 3, 8, &lt;NoteRangePerHand.C_TO_G: 6&gt;, &lt;NoteRangePerHand.ONE_NOTE: 2&gt;, False, True, False, 166)</options></target_notes><trials><trial trial_no="1" timestamp="2022_11_03-13_07_59"><notes name="Played Notes">[{"pitch": 60, "velocity": 66, "note_on_time": 1.504, "note_off_time": 1.697}, {"pitch": 60, "velocity": 55, "note_on_time": 1.853, "note_off_time": 2.096}, {"pitch": 67, "velocity": 68, "note_on_time": 2.232, "note_off_time": 2.466}, {"pitch": 65, "velocity": 20, "note_on_time": 2.64, "note_off_time": 2.82}, {"pitch": 64, "velocity": 40, "note_on_time": 3.028, "note_off_time": 3.237}, {"pitch": 64, "velocity": 80, "note_on_time": 3.381, "note_off_time": 3.698}, {"pitch": 60, "velocity": 53, "note_on_time": 4.08, "note_off_time": 4.325}, {"pitch": 62, "velocity": 66, "note_on_time": 4.478, "note_off_time": 4.953}, {"pitch": 62, "velocity": 50, "note_on_time": 6.009, "note_off_time": 6.885}, {"pitch": 64, "velocity": 51, "note_on_time": 7.53, "note_off_time": 7.792}, {"pitch": 60, "velocity": 61, "note_on_time": 7.869, "note_off_time": 8.077}, {"pitch": 60, "velocity": 49, "note_on_time": 8.234, "note_off_time": 8.784}, {"pitch": 62, "velocity": 40, "note_on_time": 8.98, "note_off_time": 9.275}, {"pitch": 60, "velocity": 66, "note_on_time": 9.411, "note_off_time": 10.178}, {"pitch": 65, "velocity": 27, "note_on_time": 10.472, "note_off_time": 10.677}, {"pitch": 62, "velocity": 47, "note_on_time": 10.841, "note_off_time": 11.068}, {"pitch": 60, "velocity": 59, "note_on_time": 11.067, "note_off_time": 11.228}, {"pitch": 60, "velocity": 60, "note_on_time": 11.355, "note_off_time": 12.017}, {"pitch": 60, "velocity": 47, "note_on_time": 12.37, "note_off_time": 12.55}, {"pitch": 60, "velocity": 74, "note_on_time": 12.72, "note_off_time": 12.93}, {"pitch": 60, "velocity": 81, "note_on_time": 13.086, "note_off_time": 13.402}]</notes><guidance name="Guidance Mode">None</guidance><error name="Error value">0.9781734375</error></trial><trial trial_no="2" timestamp="2022_11_03-13_08_27"><notes name="Played Notes">[{"pitch": 60, "velocity": 63, "note_on_time": 1.502, "note_off_time": 1.687}, {"pitch": 60, "velocity": 65, "note_on_time": 1.854, "note_off_time": 2.11}, {"pitch": 67, "velocity": 67, "note_on_time": 2.235, "note_off_time": 2.557}, {"pitch": 65, "velocity": 42, "note_on_time": 2.682, "note_off_time": 2.926}, {"pitch": 64, "velocity": 41, "note_on_time": 2.683, "note_off_time": 2.942}, {"pitch": 62, "velocity": 57, "note_on_time": 2.974, "note_off_time": 3.188}, {"pitch": 64, "velocity": 29, "note_on_time": 3.207, "note_off_time": 3.92}, {"pitch": 60, "velocity": 51, "note_on_time": 4.153, "note_off_time": 4.384}, {"pitch": 62, "velocity": 70, "note_on_time": 4.467, "note_off_time": 4.802}, {"pitch": 62, "velocity": 75, "note_on_time": 5.98, "note_off_time": 7.214}, {"pitch": 67, "velocity": 17, "note_on_time": 7.459, "note_off_time": 7.741}, {"pitch": 64, "velocity": 20, "note_on_time": 8.176, "note_off_time": 8.441}, {"pitch": 62, "velocity": 37, "note_on_time": 8.334, "note_off_time": 8.5}, {"pitch": 62, "velocity": 20, "note_on_time": 8.595, "note_off_time": 9.062}, {"pitch": 62, "velocity": 66, "note_on_time": 9.35, "note_off_time": 9.588}, {"pitch": 62, "velocity": 46, "note_on_time": 10.965, "note_off_time": 11.07}, {"pitch": 64, "velocity": 52, "note_on_time": 11.088, "note_off_time": 11.375}, {"pitch": 60, "velocity": 44, "note_on_time": 11.439, "note_off_time": 12.253}, {"pitch": 60, "velocity": 75, "note_on_time": 12.997, "note_off_time": 13.18}]</notes><guidance name="Guidance Mode">None</guidance><error name="Error value">0.9168053125</error></trial><trial trial_no="3" timestamp="2022_11_03-13_08_52"><notes name="Played Notes">[{"pitch": 60, "velocity": 70, "note_on_time": 1.515, "note_off_time": 1.711}, {"pitch": 60, "velocity": 51, "note_on_time": 1.845, "note_off_time": 2.115}, {"pitch": 64, "velocity": 38, "note_on_time": 2.269, "note_off_time": 2.542}, {"pitch": 60, "velocity": 62, "note_on_time": 2.78, "note_off_time": 3.001}, {"pitch": 64, "velocity": 51, "note_on_time": 3.108, "note_off_time": 3.168}, {"pitch": 62, "velocity": 50, "note_on_time": 3.096, "note_off_time": 3.77}, {"pitch": 60, "velocity": 10, "note_on_time": 4.113, "note_off_time": 4.356}, {"pitch": 62, "velocity": 66, "note_on_time": 4.467, "note_off_time": 5.153}, {"pitch": 62, "velocity": 45, "note_on_time": 5.907, "note_off_time": 6.961}, {"pitch": 64, "velocity": 55, "note_on_time": 7.443, "note_off_time": 7.679}, {"pitch": 62, "velocity": 60, "note_on_time": 7.806, "note_off_time": 8.01}, {"pitch": 62, "velocity": 59, "note_on_time": 8.162, "note_off_time": 8.495}]</notes><guidance name="Guidance Mode">None</guidance><error name="Error value">1.0583337499999999</error></trial></trials></MIDI>