<MIDI midiNo="2022_11_21-16_17_08"><target_notes><notes name="Note List">[{"pitch": 42, "velocity": 80, "note_on_time": 0.004, "note_off_time": 0.756}, {"pitch": 42, "velocity": 80, "note_on_time": 0.756, "note_off_time": 1.521}, {"pitch": 42, "velocity": 80, "note_on_time": 1.522, "note_off_time": 2.285}, {"pitch": 42, "velocity": 80, "note_on_time": 2.285, "note_off_time": 3.046}, {"pitch": 60, "velocity": 80, "note_on_time": 3.045, "note_off_time": 3.809}, {"pitch": 42, "velocity": 80, "note_on_time": 3.046, "note_off_time": 3.81}, {"pitch": 42, "velocity": 80, "note_on_time": 3.81, "note_off_time": 4.574}, {"pitch": 42, "velocity": 80, "note_on_time": 4.574, "note_off_time": 5.337}, {"pitch": 60, "velocity": 80, "note_on_time": 5.337, "note_off_time": 6.098}, {"pitch": 42, "velocity": 80, "note_on_time": 5.337, "note_off_time": 6.099}, {"pitch": 62, "velocity": 80, "note_on_time": 6.098, "note_off_time": 6.86}, {"pitch": 42, "velocity": 80, "note_on_time": 6.099, "note_off_time": 6.86}, {"pitch": 42, "velocity": 80, "note_on_time": 6.861, "note_off_time": 7.619}, {"pitch": 62, "velocity": 80, "note_on_time": 7.619, "note_off_time": 8.384}, {"pitch": 42, "velocity": 80, "note_on_time": 7.619, "note_off_time": 8.384}, {"pitch": 42, "velocity": 80, "note_on_time": 8.384, "note_off_time": 9.135}, {"pitch": 62, "velocity": 80, "note_on_time": 9.135, "note_off_time": 9.897}, {"pitch": 42, "velocity": 80, "note_on_time": 9.136, "note_off_time": 9.897}, {"pitch": 60, "velocity": 80, "note_on_time": 9.897, "note_off_time": 10.66}, {"pitch": 42, "velocity": 80, "note_on_time": 9.897, "note_off_time": 10.66}, {"pitch": 62, "velocity": 80, "note_on_time": 10.66, "note_off_time": 11.422}, {"pitch": 42, "velocity": 80, "note_on_time": 10.66, "note_off_time": 11.422}, {"pitch": 60, "velocity": 80, "note_on_time": 11.422, "note_off_time": 12.184}, {"pitch": 42, "velocity": 80, "note_on_time": 11.422, "note_off_time": 12.185}, {"pitch": 60, "velocity": 80, "note_on_time": 12.184, "note_off_time": 12.947}, {"pitch": 42, "velocity": 80, "note_on_time": 12.185, "note_off_time": 12.947}, {"pitch": 60, "velocity": 80, "note_on_time": 12.947, "note_off_time": 13.713}, {"pitch": 42, "velocity": 80, "note_on_time": 12.947, "note_off_time": 13.713}, {"pitch": 60, "velocity": 80, "note_on_time": 13.713, "note_off_time": 14.474}, {"pitch": 42, "velocity": 80, "note_on_time": 13.713, "note_off_time": 14.474}, {"pitch": 62, "velocity": 80, "note_on_time": 14.474, "note_off_time": 15.234}, {"pitch": 42, "velocity": 80, "note_on_time": 14.475, "note_off_time": 15.234}, {"pitch": 62, "velocity": 80, "note_on_time": 15.234, "note_off_time": 15.994}, {"pitch": 42, "velocity": 80, "note_on_time": 15.235, "note_off_time": 15.994}, {"pitch": 60, "velocity": 80, "note_on_time": 15.994, "note_off_time": 16.757}, {"pitch": 42, "velocity": 80, "note_on_time": 15.995, "note_off_time": 16.757}, {"pitch": 60, "velocity": 80, "note_on_time": 16.757, "note_off_time": 17.517}, {"pitch": 42, "velocity": 80, "note_on_time": 16.757, "note_off_time": 17.517}, {"pitch": 62, "velocity": 80, "note_on_time": 17.517, "note_off_time": 18.279}, {"pitch": 42, "velocity": 80, "note_on_time": 17.517, "note_off_time": 18.279}, {"pitch": 60, "velocity": 80, "note_on_time": 18.279, "note_off_time": 19.039}, {"pitch": 42, "velocity": 80, "note_on_time": 18.28, "note_off_time": 19.04}, {"pitch": 60, "velocity": 80, "note_on_time": 19.039, "note_off_time": 19.805}, {"pitch": 42, "velocity": 80, "note_on_time": 19.04, "note_off_time": 19.805}, {"pitch": 62, "velocity": 80, "note_on_time": 19.805, "note_off_time": 20.569}, {"pitch": 42, "velocity": 80, "note_on_time": 19.805, "note_off_time": 20.569}, {"pitch": 62, "velocity": 80, "note_on_time": 20.569, "note_off_time": 21.328}, {"pitch": 42, "velocity": 80, "note_on_time": 20.569, "note_off_time": 21.328}, {"pitch": 60, "velocity": 80, "note_on_time": 21.328, "note_off_time": 22.091}, {"pitch": 42, "velocity": 80, "note_on_time": 21.329, "note_off_time": 22.091}, {"pitch": 62, "velocity": 80, "note_on_time": 22.091, "note_off_time": 22.855}, {"pitch": 42, "velocity": 80, "note_on_time": 22.092, "note_off_time": 22.855}, {"pitch": 62, "velocity": 80, "note_on_time": 22.855, "note_off_time": 23.618}, {"pitch": 42, "velocity": 80, "note_on_time": 22.855, "note_off_time": 23.618}, {"pitch": 62, "velocity": 80, "note_on_time": 23.618, "note_off_time": 24.379}, {"pitch": 42, "velocity": 80, "note_on_time": 23.618, "note_off_time": 24.379}, {"pitch": 42, "velocity": 80, "note_on_time": 24.379, "note_off_time": 25.143}, {"pitch": 62, "velocity": 80, "note_on_time": 25.143, "note_off_time": 25.906}, {"pitch": 42, "velocity": 80, "note_on_time": 25.144, "note_off_time": 25.907}, {"pitch": 62, "velocity": 80, "note_on_time": 25.906, "note_off_time": 26.669}, {"pitch": 42, "velocity": 80, "note_on_time": 25.907, "note_off_time": 26.669}, {"pitch": 62, "velocity": 80, "note_on_time": 26.669, "note_off_time": 27.433}, {"pitch": 42, "velocity": 80, "note_on_time": 26.67, "note_off_time": 27.433}]</notes><options name="Option List">((4, 4), [0.25], 3, 8, &lt;NoteRangePerHand.TWO_NOTES: 3&gt;, &lt;NoteRangePerHand.ONE_NOTE: 2&gt;, False, True, False, '80')</options></target_notes><trials><trial trial_no="1" timestamp="2022_11_21-16_16_39"><notes name="Played Notes">[{"pitch": 60, "velocity": 79, "note_on_time": 2.991, "note_off_time": 3.414}, {"pitch": 60, "velocity": 65, "note_on_time": 5.812, "note_off_time": 5.813}, {"pitch": 62, "velocity": 61, "note_on_time": 6.08, "note_off_time": 6.494}, {"pitch": 62, "velocity": 53, "note_on_time": 7.549, "note_off_time": 7.998}, {"pitch": 62, "velocity": 69, "note_on_time": 9.074, "note_off_time": 9.686}, {"pitch": 60, "velocity": 71, "note_on_time": 9.865, "note_off_time": 10.369}, {"pitch": 62, "velocity": 73, "note_on_time": 10.644, "note_off_time": 11.185}, {"pitch": 60, "velocity": 60, "note_on_time": 11.396, "note_off_time": 11.911}, {"pitch": 60, "velocity": 77, "note_on_time": 12.176, "note_off_time": 12.668}, {"pitch": 60, "velocity": 71, "note_on_time": 12.942, "note_off_time": 13.379}, {"pitch": 60, "velocity": 74, "note_on_time": 13.678, "note_off_time": 14.216}, {"pitch": 62, "velocity": 69, "note_on_time": 14.464, "note_off_time": 15.005}, {"pitch": 62, "velocity": 74, "note_on_time": 15.226, "note_off_time": 15.784}, {"pitch": 60, "velocity": 64, "note_on_time": 15.965, "note_off_time": 16.433}, {"pitch": 60, "velocity": 76, "note_on_time": 16.731, "note_off_time": 17.371}, {"pitch": 62, "velocity": 67, "note_on_time": 17.554, "note_off_time": 18.096}, {"pitch": 60, "velocity": 68, "note_on_time": 18.293, "note_off_time": 18.751}, {"pitch": 60, "velocity": 65, "note_on_time": 19.09, "note_off_time": 19.521}, {"pitch": 62, "velocity": 74, "note_on_time": 19.805, "note_off_time": 20.309}, {"pitch": 62, "velocity": 72, "note_on_time": 20.53, "note_off_time": 21.08}, {"pitch": 60, "velocity": 74, "note_on_time": 21.243, "note_off_time": 21.657}, {"pitch": 62, "velocity": 71, "note_on_time": 21.997, "note_off_time": 22.438}, {"pitch": 62, "velocity": 65, "note_on_time": 22.711, "note_off_time": 23.231}, {"pitch": 62, "velocity": 75, "note_on_time": 23.476, "note_off_time": 23.931}, {"pitch": 62, "velocity": 67, "note_on_time": 25.097, "note_off_time": 25.566}, {"pitch": 62, "velocity": 64, "note_on_time": 25.881, "note_off_time": 26.365}, {"pitch": 62, "velocity": 65, "note_on_time": 26.683, "note_off_time": 27.057}]</notes><guidance name="Guidance Mode">None</guidance><error name="Error value">0.07525000000000016</error></trial></trials></MIDI>