<MIDI midiNo="2022_11_21-18_13_09"><target_notes><notes name="Note List">[{"pitch": 42, "velocity": 80, "note_on_time": 0.004, "note_off_time": 0.347}, {"pitch": 42, "velocity": 80, "note_on_time": 0.347, "note_off_time": 0.69}, {"pitch": 42, "velocity": 80, "note_on_time": 0.69, "note_off_time": 1.034}, {"pitch": 42, "velocity": 80, "note_on_time": 1.034, "note_off_time": 1.376}, {"pitch": 64, "velocity": 80, "note_on_time": 1.376, "note_off_time": 1.719}, {"pitch": 42, "velocity": 80, "note_on_time": 1.376, "note_off_time": 1.719}, {"pitch": 62, "velocity": 80, "note_on_time": 1.719, "note_off_time": 2.062}, {"pitch": 42, "velocity": 80, "note_on_time": 1.719, "note_off_time": 2.062}, {"pitch": 62, "velocity": 80, "note_on_time": 2.062, "note_off_time": 2.404}, {"pitch": 42, "velocity": 80, "note_on_time": 2.063, "note_off_time": 2.404}, {"pitch": 62, "velocity": 80, "note_on_time": 2.404, "note_off_time": 2.744}, {"pitch": 42, "velocity": 80, "note_on_time": 2.404, "note_off_time": 2.744}, {"pitch": 60, "velocity": 80, "note_on_time": 2.744, "note_off_time": 3.088}, {"pitch": 42, "velocity": 80, "note_on_time": 2.744, "note_off_time": 3.089}, {"pitch": 62, "velocity": 80, "note_on_time": 3.088, "note_off_time": 3.433}, {"pitch": 42, "velocity": 80, "note_on_time": 3.089, "note_off_time": 3.434}, {"pitch": 60, "velocity": 80, "note_on_time": 3.433, "note_off_time": 3.773}, {"pitch": 42, "velocity": 80, "note_on_time": 3.434, "note_off_time": 3.773}, {"pitch": 65, "velocity": 80, "note_on_time": 3.773, "note_off_time": 4.114}, {"pitch": 42, "velocity": 80, "note_on_time": 3.773, "note_off_time": 4.114}, {"pitch": 62, "velocity": 80, "note_on_time": 4.114, "note_off_time": 4.456}, {"pitch": 42, "velocity": 80, "note_on_time": 4.114, "note_off_time": 4.456}, {"pitch": 60, "velocity": 80, "note_on_time": 4.456, "note_off_time": 4.796}, {"pitch": 42, "velocity": 80, "note_on_time": 4.457, "note_off_time": 4.796}, {"pitch": 62, "velocity": 80, "note_on_time": 4.796, "note_off_time": 5.139}, {"pitch": 42, "velocity": 80, "note_on_time": 4.797, "note_off_time": 5.139}, {"pitch": 62, "velocity": 80, "note_on_time": 5.139, "note_off_time": 5.481}, {"pitch": 42, "velocity": 80, "note_on_time": 5.14, "note_off_time": 5.481}, {"pitch": 42, "velocity": 80, "note_on_time": 5.482, "note_off_time": 5.823}, {"pitch": 65, "velocity": 80, "note_on_time": 5.481, "note_off_time": 6.168}, {"pitch": 42, "velocity": 80, "note_on_time": 5.823, "note_off_time": 6.168}, {"pitch": 62, "velocity": 80, "note_on_time": 6.168, "note_off_time": 6.514}, {"pitch": 42, "velocity": 80, "note_on_time": 6.168, "note_off_time": 6.514}, {"pitch": 42, "velocity": 80, "note_on_time": 6.514, "note_off_time": 6.857}, {"pitch": 64, "velocity": 80, "note_on_time": 6.857, "note_off_time": 7.199}, {"pitch": 42, "velocity": 80, "note_on_time": 6.857, "note_off_time": 7.2}, {"pitch": 60, "velocity": 80, "note_on_time": 7.199, "note_off_time": 7.54}, {"pitch": 42, "velocity": 80, "note_on_time": 7.2, "note_off_time": 7.541}, {"pitch": 67, "velocity": 80, "note_on_time": 7.54, "note_off_time": 7.882}, {"pitch": 42, "velocity": 80, "note_on_time": 7.541, "note_off_time": 7.882}, {"pitch": 65, "velocity": 80, "note_on_time": 7.882, "note_off_time": 8.225}, {"pitch": 42, "velocity": 80, "note_on_time": 7.882, "note_off_time": 8.225}, {"pitch": 64, "velocity": 80, "note_on_time": 8.225, "note_off_time": 8.566}, {"pitch": 42, "velocity": 80, "note_on_time": 8.226, "note_off_time": 8.566}, {"pitch": 67, "velocity": 80, "note_on_time": 8.566, "note_off_time": 8.912}, {"pitch": 42, "velocity": 80, "note_on_time": 8.566, "note_off_time": 8.912}, {"pitch": 62, "velocity": 80, "note_on_time": 8.912, "note_off_time": 9.254}, {"pitch": 42, "velocity": 80, "note_on_time": 8.913, "note_off_time": 9.255}, {"pitch": 64, "velocity": 80, "note_on_time": 9.254, "note_off_time": 9.597}, {"pitch": 42, "velocity": 80, "note_on_time": 9.255, "note_off_time": 9.598}, {"pitch": 42, "velocity": 80, "note_on_time": 9.598, "note_off_time": 9.94}, {"pitch": 67, "velocity": 80, "note_on_time": 9.597, "note_off_time": 10.285}, {"pitch": 42, "velocity": 80, "note_on_time": 9.94, "note_off_time": 10.285}, {"pitch": 42, "velocity": 80, "note_on_time": 10.285, "note_off_time": 10.628}, {"pitch": 64, "velocity": 80, "note_on_time": 10.285, "note_off_time": 10.969}, {"pitch": 42, "velocity": 80, "note_on_time": 10.628, "note_off_time": 10.969}, {"pitch": 42, "velocity": 80, "note_on_time": 10.969, "note_off_time": 11.312}, {"pitch": 64, "velocity": 80, "note_on_time": 11.312, "note_off_time": 11.653}, {"pitch": 42, "velocity": 80, "note_on_time": 11.312, "note_off_time": 11.654}, {"pitch": 64, "velocity": 80, "note_on_time": 11.653, "note_off_time": 11.995}, {"pitch": 42, "velocity": 80, "note_on_time": 11.654, "note_off_time": 11.995}, {"pitch": 64, "velocity": 80, "note_on_time": 11.995, "note_off_time": 12.337}, {"pitch": 42, "velocity": 80, "note_on_time": 11.995, "note_off_time": 12.338}]</notes><options name="Option List">((4, 4), [0.5, 0.25], 3, 8, &lt;NoteRangePerHand.C_TO_G: 6&gt;, &lt;NoteRangePerHand.ONE_NOTE: 2&gt;, False, True, False, 182)</options></target_notes><trials><trial trial_no="1" timestamp="2022_11_21-18_12_55"><notes name="Played Notes">[{"pitch": 64, "velocity": 85, "note_on_time": 1.355, "note_off_time": 1.703}, {"pitch": 62, "velocity": 89, "note_on_time": 1.694, "note_off_time": 1.763}, {"pitch": 62, "velocity": 97, "note_on_time": 2.031, "note_off_time": 2.099}, {"pitch": 62, "velocity": 92, "note_on_time": 2.355, "note_off_time": 2.433}, {"pitch": 60, "velocity": 98, "note_on_time": 2.736, "note_off_time": 3.05}, {"pitch": 62, "velocity": 83, "note_on_time": 3.073, "note_off_time": 3.419}, {"pitch": 60, "velocity": 84, "note_on_time": 3.422, "note_off_time": 3.769}, {"pitch": 65, "velocity": 83, "note_on_time": 3.739, "note_off_time": 4.095}, {"pitch": 62, "velocity": 83, "note_on_time": 4.101, "note_off_time": 4.415}, {"pitch": 60, "velocity": 86, "note_on_time": 4.425, "note_off_time": 4.744}, {"pitch": 62, "velocity": 92, "note_on_time": 4.778, "note_off_time": 4.857}, {"pitch": 62, "velocity": 91, "note_on_time": 5.106, "note_off_time": 5.176}, {"pitch": 65, "velocity": 111, "note_on_time": 5.455, "note_off_time": 5.958}, {"pitch": 62, "velocity": 96, "note_on_time": 6.13, "note_off_time": 6.467}, {"pitch": 64, "velocity": 90, "note_on_time": 6.491, "note_off_time": 6.83}, {"pitch": 60, "velocity": 100, "note_on_time": 6.847, "note_off_time": 7.197}, {"pitch": 67, "velocity": 88, "note_on_time": 7.193, "note_off_time": 7.533}, {"pitch": 65, "velocity": 91, "note_on_time": 7.545, "note_off_time": 7.902}, {"pitch": 64, "velocity": 91, "note_on_time": 7.904, "note_off_time": 8.253}, {"pitch": 67, "velocity": 88, "note_on_time": 8.252, "note_off_time": 8.577}, {"pitch": 62, "velocity": 80, "note_on_time": 8.58, "note_off_time": 8.939}, {"pitch": 64, "velocity": 84, "note_on_time": 8.927, "note_off_time": 9.251}, {"pitch": 67, "velocity": 93, "note_on_time": 9.259, "note_off_time": 9.935}, {"pitch": 64, "velocity": 94, "note_on_time": 9.928, "note_off_time": 10.237}, {"pitch": 64, "velocity": 100, "note_on_time": 10.944, "note_off_time": 11.015}, {"pitch": 64, "velocity": 95, "note_on_time": 11.287, "note_off_time": 11.349}, {"pitch": 64, "velocity": 107, "note_on_time": 11.628, "note_off_time": 11.702}]</notes><guidance name="Guidance Mode">None</guidance><error name="Error value">0.02935875</error></trial></trials></MIDI>