<MIDI midiNo="2022_12_01-13_26_46"><target_notes><notes name="Note List">[{"pitch": 42, "velocity": 80, "note_on_time": 0.004, "note_off_time": 0.42}, {"pitch": 42, "velocity": 80, "note_on_time": 0.42, "note_off_time": 0.824}, {"pitch": 42, "velocity": 80, "note_on_time": 0.824, "note_off_time": 1.227}, {"pitch": 42, "velocity": 80, "note_on_time": 1.227, "note_off_time": 1.632}, {"pitch": 64, "velocity": 80, "note_on_time": 1.632, "note_off_time": 2.035}, {"pitch": 42, "velocity": 80, "note_on_time": 1.633, "note_off_time": 2.036}, {"pitch": 64, "velocity": 80, "note_on_time": 2.035, "note_off_time": 2.439}, {"pitch": 42, "velocity": 80, "note_on_time": 2.036, "note_off_time": 2.439}, {"pitch": 64, "velocity": 80, "note_on_time": 2.439, "note_off_time": 2.846}, {"pitch": 42, "velocity": 80, "note_on_time": 2.439, "note_off_time": 2.846}, {"pitch": 64, "velocity": 80, "note_on_time": 2.846, "note_off_time": 3.247}, {"pitch": 42, "velocity": 80, "note_on_time": 2.846, "note_off_time": 3.247}, {"pitch": 42, "velocity": 80, "note_on_time": 3.248, "note_off_time": 3.652}, {"pitch": 62, "velocity": 80, "note_on_time": 3.247, "note_off_time": 4.057}, {"pitch": 42, "velocity": 80, "note_on_time": 3.652, "note_off_time": 4.057}, {"pitch": 42, "velocity": 80, "note_on_time": 4.057, "note_off_time": 4.461}, {"pitch": 42, "velocity": 80, "note_on_time": 4.462, "note_off_time": 4.867}, {"pitch": 62, "velocity": 80, "note_on_time": 4.867, "note_off_time": 5.269}, {"pitch": 42, "velocity": 80, "note_on_time": 4.867, "note_off_time": 5.269}, {"pitch": 60, "velocity": 80, "note_on_time": 5.269, "note_off_time": 5.672}, {"pitch": 42, "velocity": 80, "note_on_time": 5.27, "note_off_time": 5.672}, {"pitch": 62, "velocity": 80, "note_on_time": 5.672, "note_off_time": 6.077}, {"pitch": 42, "velocity": 80, "note_on_time": 5.673, "note_off_time": 6.077}, {"pitch": 60, "velocity": 80, "note_on_time": 6.077, "note_off_time": 6.48}, {"pitch": 42, "velocity": 80, "note_on_time": 6.077, "note_off_time": 6.481}, {"pitch": 62, "velocity": 80, "note_on_time": 6.48, "note_off_time": 6.888}, {"pitch": 42, "velocity": 80, "note_on_time": 6.481, "note_off_time": 6.889}, {"pitch": 62, "velocity": 80, "note_on_time": 6.888, "note_off_time": 7.294}, {"pitch": 42, "velocity": 80, "note_on_time": 6.889, "note_off_time": 7.295}, {"pitch": 64, "velocity": 80, "note_on_time": 7.294, "note_off_time": 7.699}, {"pitch": 42, "velocity": 80, "note_on_time": 7.295, "note_off_time": 7.699}, {"pitch": 60, "velocity": 80, "note_on_time": 7.699, "note_off_time": 8.103}, {"pitch": 42, "velocity": 80, "note_on_time": 7.7, "note_off_time": 8.103}, {"pitch": 64, "velocity": 80, "note_on_time": 8.103, "note_off_time": 8.508}, {"pitch": 42, "velocity": 80, "note_on_time": 8.104, "note_off_time": 8.508}, {"pitch": 42, "velocity": 80, "note_on_time": 8.509, "note_off_time": 8.913}, {"pitch": 42, "velocity": 80, "note_on_time": 8.913, "note_off_time": 9.317}, {"pitch": 60, "velocity": 80, "note_on_time": 8.913, "note_off_time": 9.722}, {"pitch": 42, "velocity": 80, "note_on_time": 9.318, "note_off_time": 9.722}, {"pitch": 62, "velocity": 80, "note_on_time": 9.722, "note_off_time": 10.129}, {"pitch": 42, "velocity": 80, "note_on_time": 9.722, "note_off_time": 10.129}, {"pitch": 64, "velocity": 80, "note_on_time": 10.129, "note_off_time": 10.531}, {"pitch": 42, "velocity": 80, "note_on_time": 10.129, "note_off_time": 10.531}, {"pitch": 64, "velocity": 80, "note_on_time": 10.531, "note_off_time": 10.937}, {"pitch": 42, "velocity": 80, "note_on_time": 10.531, "note_off_time": 10.937}, {"pitch": 60, "velocity": 80, "note_on_time": 10.937, "note_off_time": 11.34}, {"pitch": 42, "velocity": 80, "note_on_time": 10.937, "note_off_time": 11.34}, {"pitch": 42, "velocity": 80, "note_on_time": 11.34, "note_off_time": 11.745}, {"pitch": 64, "velocity": 80, "note_on_time": 11.34, "note_off_time": 12.147}, {"pitch": 42, "velocity": 80, "note_on_time": 11.745, "note_off_time": 12.148}, {"pitch": 60, "velocity": 80, "note_on_time": 12.147, "note_off_time": 12.55}, {"pitch": 42, "velocity": 80, "note_on_time": 12.148, "note_off_time": 12.551}, {"pitch": 62, "velocity": 80, "note_on_time": 12.55, "note_off_time": 12.956}, {"pitch": 42, "velocity": 80, "note_on_time": 12.551, "note_off_time": 12.956}, {"pitch": 42, "velocity": 80, "note_on_time": 12.957, "note_off_time": 13.36}, {"pitch": 62, "velocity": 80, "note_on_time": 13.36, "note_off_time": 13.764}, {"pitch": 42, "velocity": 80, "note_on_time": 13.36, "note_off_time": 13.764}, {"pitch": 62, "velocity": 80, "note_on_time": 13.764, "note_off_time": 14.169}, {"pitch": 42, "velocity": 80, "note_on_time": 13.764, "note_off_time": 14.17}, {"pitch": 62, "velocity": 80, "note_on_time": 14.169, "note_off_time": 14.574}, {"pitch": 42, "velocity": 80, "note_on_time": 14.17, "note_off_time": 14.574}]</notes><options name="Option List">((4, 4), [0.5, 0.25], 3, 8, &lt;NoteRangePerHand.THREE_NOTES: 4&gt;, &lt;NoteRangePerHand.ONE_NOTE: 2&gt;, False, True, False, 150)</options></target_notes><trials><trial trial_no="1" timestamp="2022_12_01-13_26_29"><notes name="Played Notes">[{"pitch": 64, "velocity": 70, "note_on_time": 1.592, "note_off_time": 1.798}, {"pitch": 64, "velocity": 64, "note_on_time": 1.974, "note_off_time": 2.209}, {"pitch": 64, "velocity": 69, "note_on_time": 2.389, "note_off_time": 2.598}, {"pitch": 64, "velocity": 74, "note_on_time": 2.796, "note_off_time": 3.016}, {"pitch": 62, "velocity": 75, "note_on_time": 3.21, "note_off_time": 3.794}, {"pitch": 62, "velocity": 68, "note_on_time": 4.78, "note_off_time": 4.991}, {"pitch": 60, "velocity": 80, "note_on_time": 5.154, "note_off_time": 5.367}, {"pitch": 62, "velocity": 73, "note_on_time": 5.556, "note_off_time": 5.791}, {"pitch": 60, "velocity": 73, "note_on_time": 5.936, "note_off_time": 6.166}, {"pitch": 62, "velocity": 78, "note_on_time": 6.361, "note_off_time": 6.549}, {"pitch": 62, "velocity": 75, "note_on_time": 6.76, "note_off_time": 6.974}, {"pitch": 64, "velocity": 77, "note_on_time": 7.147, "note_off_time": 7.365}, {"pitch": 60, "velocity": 82, "note_on_time": 7.513, "note_off_time": 7.728}, {"pitch": 64, "velocity": 79, "note_on_time": 7.903, "note_off_time": 8.244}, {"pitch": 60, "velocity": 82, "note_on_time": 8.976, "note_off_time": 9.529}, {"pitch": 62, "velocity": 79, "note_on_time": 9.99, "note_off_time": 10.223}, {"pitch": 64, "velocity": 76, "note_on_time": 10.371, "note_off_time": 10.557}, {"pitch": 64, "velocity": 80, "note_on_time": 10.723, "note_off_time": 10.932}, {"pitch": 60, "velocity": 85, "note_on_time": 11.107, "note_off_time": 11.295}, {"pitch": 64, "velocity": 72, "note_on_time": 11.468, "note_off_time": 12.162}, {"pitch": 60, "velocity": 79, "note_on_time": 12.552, "note_off_time": 12.777}, {"pitch": 62, "velocity": 80, "note_on_time": 12.938, "note_off_time": 13.241}, {"pitch": 62, "velocity": 81, "note_on_time": 13.888, "note_off_time": 14.076}, {"pitch": 62, "velocity": 79, "note_on_time": 14.242, "note_off_time": 14.459}]</notes><guidance name="Guidance Mode">None</guidance><error name="Error value">0.11672727272727272</error></trial><trial trial_no="2" timestamp="2022_12_01-13_26_53"><notes name="Played Notes">[{"pitch": 64, "velocity": 66, "note_on_time": 3.429, "note_off_time": 3.551}, {"pitch": 64, "velocity": 59, "note_on_time": 3.698, "note_off_time": 3.85}, {"pitch": 64, "velocity": 84, "note_on_time": 4.001, "note_off_time": 4.172}, {"pitch": 62, "velocity": 83, "note_on_time": 4.291, "note_off_time": 4.924}, {"pitch": 62, "velocity": 75, "note_on_time": 5.751, "note_off_time": 5.912}, {"pitch": 60, "velocity": 85, "note_on_time": 6.063, "note_off_time": 6.231}, {"pitch": 62, "velocity": 77, "note_on_time": 6.374, "note_off_time": 6.523}, {"pitch": 60, "velocity": 69, "note_on_time": 6.75, "note_off_time": 6.911}, {"pitch": 62, "velocity": 79, "note_on_time": 7.052, "note_off_time": 7.196}, {"pitch": 62, "velocity": 87, "note_on_time": 7.372, "note_off_time": 7.514}, {"pitch": 64, "velocity": 66, "note_on_time": 7.676, "note_off_time": 7.863}, {"pitch": 62, "velocity": 72, "note_on_time": 8.19, "note_off_time": 8.406}, {"pitch": 60, "velocity": 72, "note_on_time": 8.587, "note_off_time": 8.701}, {"pitch": 64, "velocity": 77, "note_on_time": 8.846, "note_off_time": 9.097}, {"pitch": 60, "velocity": 83, "note_on_time": 9.411, "note_off_time": 10.047}, {"pitch": 62, "velocity": 64, "note_on_time": 10.472, "note_off_time": 10.656}, {"pitch": 64, "velocity": 76, "note_on_time": 10.877, "note_off_time": 11.029}, {"pitch": 64, "velocity": 81, "note_on_time": 11.185, "note_off_time": 11.345}, {"pitch": 60, "velocity": 84, "note_on_time": 11.472, "note_off_time": 11.595}, {"pitch": 64, "velocity": 82, "note_on_time": 11.767, "note_off_time": 12.425}, {"pitch": 60, "velocity": 79, "note_on_time": 12.658, "note_off_time": 12.822}, {"pitch": 62, "velocity": 80, "note_on_time": 12.954, "note_off_time": 13.181}, {"pitch": 62, "velocity": 82, "note_on_time": 13.755, "note_off_time": 13.858}, {"pitch": 62, "velocity": 82, "note_on_time": 14.015, "note_off_time": 14.121}, {"pitch": 62, "velocity": 86, "note_on_time": 14.289, "note_off_time": 14.363}]</notes><guidance name="Guidance Mode">None</guidance><error name="Error value">0.48790909090909096</error></trial><trial trial_no="3" timestamp="2022_12_01-13_27_39"><notes name="Played Notes">[{"pitch": 64, "velocity": 72, "note_on_time": 1.614, "note_off_time": 1.781}, {"pitch": 64, "velocity": 67, "note_on_time": 1.954, "note_off_time": 2.176}, {"pitch": 64, "velocity": 64, "note_on_time": 2.366, "note_off_time": 2.552}, {"pitch": 64, "velocity": 76, "note_on_time": 2.753, "note_off_time": 2.938}, {"pitch": 62, "velocity": 83, "note_on_time": 3.128, "note_off_time": 3.713}, {"pitch": 62, "velocity": 81, "note_on_time": 4.602, "note_off_time": 4.791}, {"pitch": 60, "velocity": 78, "note_on_time": 4.96, "note_off_time": 5.161}, {"pitch": 62, "velocity": 74, "note_on_time": 5.337, "note_off_time": 5.56}, {"pitch": 60, "velocity": 78, "note_on_time": 5.716, "note_off_time": 5.934}, {"pitch": 62, "velocity": 79, "note_on_time": 6.11, "note_off_time": 6.262}, {"pitch": 62, "velocity": 83, "note_on_time": 6.466, "note_off_time": 6.64}, {"pitch": 64, "velocity": 75, "note_on_time": 6.817, "note_off_time": 7.031}, {"pitch": 60, "velocity": 89, "note_on_time": 7.192, "note_off_time": 7.378}, {"pitch": 64, "velocity": 78, "note_on_time": 7.604, "note_off_time": 7.86}, {"pitch": 64, "velocity": 76, "note_on_time": 8.561, "note_off_time": 8.778}, {"pitch": 60, "velocity": 74, "note_on_time": 8.748, "note_off_time": 9.353}, {"pitch": 62, "velocity": 82, "note_on_time": 9.607, "note_off_time": 9.84}, {"pitch": 60, "velocity": 39, "note_on_time": 10.086, "note_off_time": 10.142}, {"pitch": 64, "velocity": 86, "note_on_time": 10.271, "note_off_time": 10.426}, {"pitch": 64, "velocity": 78, "note_on_time": 10.608, "note_off_time": 10.773}, {"pitch": 60, "velocity": 88, "note_on_time": 10.963, "note_off_time": 11.114}, {"pitch": 62, "velocity": 72, "note_on_time": 11.307, "note_off_time": 11.811}, {"pitch": 60, "velocity": 70, "note_on_time": 12.498, "note_off_time": 12.695}, {"pitch": 62, "velocity": 77, "note_on_time": 12.878, "note_off_time": 13.047}, {"pitch": 62, "velocity": 73, "note_on_time": 13.292, "note_off_time": 13.453}, {"pitch": 62, "velocity": 80, "note_on_time": 13.643, "note_off_time": 13.842}, {"pitch": 62, "velocity": 78, "note_on_time": 14.027, "note_off_time": 14.574}]</notes><guidance name="Guidance Mode">None</guidance><error name="Error value">0.5071363636363635</error></trial></trials></MIDI>