<MIDI midiNo="2022_12_22-12_48_31"><target_notes><notes name="Note List">[{"pitch": 42, "velocity": 80, "note_on_time": 0.004, "note_off_time": 0.254}, {"pitch": 42, "velocity": 80, "note_on_time": 0.255, "note_off_time": 0.502}, {"pitch": 42, "velocity": 80, "note_on_time": 0.502, "note_off_time": 0.751}, {"pitch": 42, "velocity": 80, "note_on_time": 0.751, "note_off_time": 1.0}, {"pitch": 64, "velocity": 80, "note_on_time": 0.999, "note_off_time": 1.249}, {"pitch": 42, "velocity": 80, "note_on_time": 1.0, "note_off_time": 1.25}, {"pitch": 65, "velocity": 80, "note_on_time": 1.249, "note_off_time": 1.5}, {"pitch": 42, "velocity": 80, "note_on_time": 1.25, "note_off_time": 1.501}, {"pitch": 60, "velocity": 80, "note_on_time": 1.5, "note_off_time": 1.747}, {"pitch": 42, "velocity": 80, "note_on_time": 1.501, "note_off_time": 1.747}, {"pitch": 60, "velocity": 80, "note_on_time": 1.747, "note_off_time": 1.997}, {"pitch": 42, "velocity": 80, "note_on_time": 1.747, "note_off_time": 1.998}, {"pitch": 65, "velocity": 80, "note_on_time": 1.997, "note_off_time": 2.246}, {"pitch": 42, "velocity": 80, "note_on_time": 1.998, "note_off_time": 2.246}, {"pitch": 67, "velocity": 80, "note_on_time": 2.246, "note_off_time": 2.494}, {"pitch": 42, "velocity": 80, "note_on_time": 2.246, "note_off_time": 2.494}, {"pitch": 65, "velocity": 80, "note_on_time": 2.494, "note_off_time": 2.742}, {"pitch": 42, "velocity": 80, "note_on_time": 2.494, "note_off_time": 2.743}, {"pitch": 60, "velocity": 80, "note_on_time": 2.742, "note_off_time": 2.993}, {"pitch": 42, "velocity": 80, "note_on_time": 2.743, "note_off_time": 2.993}, {"pitch": 64, "velocity": 80, "note_on_time": 2.993, "note_off_time": 3.241}, {"pitch": 42, "velocity": 80, "note_on_time": 2.993, "note_off_time": 3.242}, {"pitch": 67, "velocity": 80, "note_on_time": 3.241, "note_off_time": 3.491}, {"pitch": 42, "velocity": 80, "note_on_time": 3.242, "note_off_time": 3.491}, {"pitch": 42, "velocity": 80, "note_on_time": 3.491, "note_off_time": 3.74}, {"pitch": 65, "velocity": 80, "note_on_time": 3.491, "note_off_time": 3.987}, {"pitch": 42, "velocity": 80, "note_on_time": 3.74, "note_off_time": 3.987}, {"pitch": 62, "velocity": 80, "note_on_time": 3.987, "note_off_time": 4.235}, {"pitch": 42, "velocity": 80, "note_on_time": 3.987, "note_off_time": 4.235}, {"pitch": 65, "velocity": 80, "note_on_time": 4.235, "note_off_time": 4.484}, {"pitch": 42, "velocity": 80, "note_on_time": 4.236, "note_off_time": 4.484}, {"pitch": 67, "velocity": 80, "note_on_time": 4.484, "note_off_time": 4.732}, {"pitch": 42, "velocity": 80, "note_on_time": 4.485, "note_off_time": 4.732}, {"pitch": 64, "velocity": 80, "note_on_time": 4.732, "note_off_time": 4.981}, {"pitch": 42, "velocity": 80, "note_on_time": 4.732, "note_off_time": 4.981}, {"pitch": 67, "velocity": 80, "note_on_time": 4.981, "note_off_time": 5.229}, {"pitch": 42, "velocity": 80, "note_on_time": 4.982, "note_off_time": 5.229}, {"pitch": 67, "velocity": 80, "note_on_time": 5.229, "note_off_time": 5.477}, {"pitch": 42, "velocity": 80, "note_on_time": 5.23, "note_off_time": 5.477}, {"pitch": 64, "velocity": 80, "note_on_time": 5.477, "note_off_time": 5.725}, {"pitch": 42, "velocity": 80, "note_on_time": 5.477, "note_off_time": 5.725}, {"pitch": 42, "velocity": 80, "note_on_time": 5.725, "note_off_time": 5.975}, {"pitch": 62, "velocity": 80, "note_on_time": 5.975, "note_off_time": 6.223}, {"pitch": 42, "velocity": 80, "note_on_time": 5.976, "note_off_time": 6.223}, {"pitch": 42, "velocity": 80, "note_on_time": 6.223, "note_off_time": 6.473}, {"pitch": 42, "velocity": 80, "note_on_time": 6.473, "note_off_time": 6.722}, {"pitch": 42, "velocity": 80, "note_on_time": 6.723, "note_off_time": 6.974}, {"pitch": 67, "velocity": 80, "note_on_time": 6.973, "note_off_time": 7.224}, {"pitch": 42, "velocity": 80, "note_on_time": 6.974, "note_off_time": 7.225}, {"pitch": 42, "velocity": 80, "note_on_time": 7.225, "note_off_time": 7.473}, {"pitch": 42, "velocity": 80, "note_on_time": 7.474, "note_off_time": 7.721}, {"pitch": 42, "velocity": 80, "note_on_time": 7.721, "note_off_time": 7.972}, {"pitch": 42, "velocity": 80, "note_on_time": 7.972, "note_off_time": 8.221}, {"pitch": 67, "velocity": 80, "note_on_time": 8.22, "note_off_time": 8.47}, {"pitch": 42, "velocity": 80, "note_on_time": 8.221, "note_off_time": 8.47}, {"pitch": 67, "velocity": 80, "note_on_time": 8.47, "note_off_time": 8.719}, {"pitch": 42, "velocity": 80, "note_on_time": 8.47, "note_off_time": 8.719}, {"pitch": 67, "velocity": 80, "note_on_time": 8.719, "note_off_time": 8.967}, {"pitch": 42, "velocity": 80, "note_on_time": 8.719, "note_off_time": 8.967}]</notes><options name="Option List">((4, 4), [0.5, 0.25], 3, 8, &lt;NoteRangePerHand.C_TO_G: 6&gt;, &lt;NoteRangePerHand.ONE_NOTE: 2&gt;, False, True, False, 248)</options></target_notes><trials><trial trial_no="1" timestamp="2022_12_22-12_48_20"><notes name="Played Notes">[{"pitch": 64, "velocity": 55, "note_on_time": 1.035, "note_off_time": 1.277}, {"pitch": 65, "velocity": 69, "note_on_time": 1.276, "note_off_time": 1.426}, {"pitch": 60, "velocity": 49, "note_on_time": 1.557, "note_off_time": 1.686}, {"pitch": 60, "velocity": 72, "note_on_time": 1.789, "note_off_time": 2.049}, {"pitch": 65, "velocity": 70, "note_on_time": 2.031, "note_off_time": 2.256}, {"pitch": 67, "velocity": 68, "note_on_time": 2.28, "note_off_time": 2.522}, {"pitch": 65, "velocity": 73, "note_on_time": 2.521, "note_off_time": 2.745}, {"pitch": 60, "velocity": 68, "note_on_time": 2.762, "note_off_time": 3.053}, {"pitch": 64, "velocity": 76, "note_on_time": 3.056, "note_off_time": 3.286}, {"pitch": 67, "velocity": 65, "note_on_time": 3.305, "note_off_time": 3.553}, {"pitch": 65, "velocity": 81, "note_on_time": 3.526, "note_off_time": 4.036}, {"pitch": 62, "velocity": 68, "note_on_time": 4.457, "note_off_time": 4.717}, {"pitch": 65, "velocity": 78, "note_on_time": 4.708, "note_off_time": 4.949}, {"pitch": 67, "velocity": 59, "note_on_time": 4.981, "note_off_time": 5.217}, {"pitch": 62, "velocity": 53, "note_on_time": 5.311, "note_off_time": 5.357}, {"pitch": 64, "velocity": 73, "note_on_time": 5.354, "note_off_time": 5.679}, {"pitch": 67, "velocity": 66, "note_on_time": 5.69, "note_off_time": 5.842}, {"pitch": 67, "velocity": 68, "note_on_time": 5.929, "note_off_time": 6.246}, {"pitch": 64, "velocity": 55, "note_on_time": 6.255, "note_off_time": 6.517}, {"pitch": 62, "velocity": 57, "note_on_time": 7.039, "note_off_time": 7.302}, {"pitch": 67, "velocity": 68, "note_on_time": 7.555, "note_off_time": 7.83}, {"pitch": 67, "velocity": 71, "note_on_time": 8.304, "note_off_time": 8.405}, {"pitch": 67, "velocity": 63, "note_on_time": 8.5, "note_off_time": 8.587}, {"pitch": 67, "velocity": 79, "note_on_time": 8.747, "note_off_time": 8.873}]</notes><guidance name="Guidance Mode">None</guidance><error name="Error value">0.5722032499999999</error></trial><trial trial_no="2" timestamp="2022_12_22-12_48_49"><notes name="Played Notes">[{"pitch": 64, "velocity": 62, "note_on_time": 1.008, "note_off_time": 1.259}, {"pitch": 65, "velocity": 86, "note_on_time": 1.276, "note_off_time": 1.551}, {"pitch": 60, "velocity": 68, "note_on_time": 1.536, "note_off_time": 1.675}, {"pitch": 60, "velocity": 77, "note_on_time": 1.772, "note_off_time": 2.023}, {"pitch": 64, "velocity": 66, "note_on_time": 2.032, "note_off_time": 2.086}, {"pitch": 65, "velocity": 75, "note_on_time": 2.109, "note_off_time": 2.305}, {"pitch": 67, "velocity": 64, "note_on_time": 2.317, "note_off_time": 2.533}, {"pitch": 64, "velocity": 49, "note_on_time": 2.549, "note_off_time": 2.807}, {"pitch": 60, "velocity": 61, "note_on_time": 3.099, "note_off_time": 3.342}, {"pitch": 64, "velocity": 49, "note_on_time": 3.561, "note_off_time": 3.626}, {"pitch": 65, "velocity": 41, "note_on_time": 3.807, "note_off_time": 3.926}, {"pitch": 67, "velocity": 51, "note_on_time": 3.957, "note_off_time": 4.256}, {"pitch": 65, "velocity": 67, "note_on_time": 4.38, "note_off_time": 4.619}, {"pitch": 62, "velocity": 1, "note_on_time": 5.43, "note_off_time": 5.694}, {"pitch": 65, "velocity": 63, "note_on_time": 5.698, "note_off_time": 5.942}, {"pitch": 67, "velocity": 42, "note_on_time": 6.016, "note_off_time": 6.223}, {"pitch": 65, "velocity": 76, "note_on_time": 6.228, "note_off_time": 6.34}, {"pitch": 67, "velocity": 74, "note_on_time": 6.765, "note_off_time": 6.868}, {"pitch": 67, "velocity": 50, "note_on_time": 6.979, "note_off_time": 7.223}, {"pitch": 64, "velocity": 64, "note_on_time": 7.218, "note_off_time": 7.427}, {"pitch": 62, "velocity": 54, "note_on_time": 7.492, "note_off_time": 7.686}, {"pitch": 67, "velocity": 56, "note_on_time": 7.706, "note_off_time": 8.012}, {"pitch": 67, "velocity": 69, "note_on_time": 8.614, "note_off_time": 8.724}]</notes><guidance name="Guidance Mode">None</guidance><error name="Error value">1.1681805000000007</error></trial><trial trial_no="3" timestamp="2022_12_22-12_49_13"><notes name="Played Notes">[{"pitch": 64, "velocity": 60, "note_on_time": 1.021, "note_off_time": 1.238}, {"pitch": 65, "velocity": 54, "note_on_time": 1.249, "note_off_time": 1.485}, {"pitch": 60, "velocity": 74, "note_on_time": 1.52, "note_off_time": 1.638}, {"pitch": 60, "velocity": 64, "note_on_time": 1.748, "note_off_time": 2.022}, {"pitch": 65, "velocity": 70, "note_on_time": 2.015, "note_off_time": 2.253}, {"pitch": 67, "velocity": 76, "note_on_time": 2.261, "note_off_time": 2.508}, {"pitch": 65, "velocity": 67, "note_on_time": 2.501, "note_off_time": 2.722}, {"pitch": 60, "velocity": 74, "note_on_time": 2.76, "note_off_time": 2.995}, {"pitch": 65, "velocity": 77, "note_on_time": 2.992, "note_off_time": 3.172}, {"pitch": 64, "velocity": 47, "note_on_time": 3.237, "note_off_time": 3.333}, {"pitch": 67, "velocity": 55, "note_on_time": 3.368, "note_off_time": 3.745}, {"pitch": 65, "velocity": 68, "note_on_time": 3.954, "note_off_time": 4.429}, {"pitch": 62, "velocity": 68, "note_on_time": 4.935, "note_off_time": 5.137}, {"pitch": 65, "velocity": 64, "note_on_time": 5.148, "note_off_time": 5.414}, {"pitch": 67, "velocity": 51, "note_on_time": 5.452, "note_off_time": 5.691}, {"pitch": 62, "velocity": 55, "note_on_time": 5.71, "note_off_time": 5.962}, {"pitch": 67, "velocity": 56, "note_on_time": 5.991, "note_off_time": 6.101}, {"pitch": 67, "velocity": 59, "note_on_time": 6.199, "note_off_time": 6.429}, {"pitch": 64, "velocity": 53, "note_on_time": 6.416, "note_off_time": 6.679}, {"pitch": 62, "velocity": 62, "note_on_time": 6.763, "note_off_time": 6.977}, {"pitch": 65, "velocity": 71, "note_on_time": 7.0, "note_off_time": 7.064}, {"pitch": 67, "velocity": 61, "note_on_time": 7.465, "note_off_time": 7.731}, {"pitch": 67, "velocity": 69, "note_on_time": 8.161, "note_off_time": 8.258}, {"pitch": 67, "velocity": 53, "note_on_time": 8.424, "note_off_time": 8.499}, {"pitch": 67, "velocity": 72, "note_on_time": 8.664, "note_off_time": 8.797}]</notes><guidance name="Guidance Mode">None</guidance><error name="Error value">0.5158272500000002</error></trial></trials></MIDI>