<MIDI midiNo="2022_08_17-14_27_17"><target_notes><notes name="Note List">[{"pitch": 42, "velocity": 80, "note_on_time": 0.003, "note_off_time": 0.471}, {"pitch": 42, "velocity": 80, "note_on_time": 0.471, "note_off_time": 0.925}, {"pitch": 42, "velocity": 80, "note_on_time": 0.925, "note_off_time": 1.393}, {"pitch": 42, "velocity": 80, "note_on_time": 1.393, "note_off_time": 1.846}, {"pitch": 62, "velocity": 80, "note_on_time": 1.846, "note_off_time": 2.3}, {"pitch": 42, "velocity": 80, "note_on_time": 1.846, "note_off_time": 2.3}, {"pitch": 42, "velocity": 80, "note_on_time": 2.3, "note_off_time": 2.768}, {"pitch": 64, "velocity": 80, "note_on_time": 2.3, "note_off_time": 3.221}, {"pitch": 42, "velocity": 80, "note_on_time": 2.768, "note_off_time": 3.221}, {"pitch": 64, "velocity": 80, "note_on_time": 3.221, "note_off_time": 3.675}, {"pitch": 42, "velocity": 80, "note_on_time": 3.222, "note_off_time": 3.675}, {"pitch": 42, "velocity": 80, "note_on_time": 3.675, "note_off_time": 4.14}, {"pitch": 60, "velocity": 80, "note_on_time": 3.675, "note_off_time": 4.607}, {"pitch": 42, "velocity": 80, "note_on_time": 4.14, "note_off_time": 4.608}, {"pitch": 64, "velocity": 80, "note_on_time": 4.607, "note_off_time": 5.062}, {"pitch": 42, "velocity": 80, "note_on_time": 4.608, "note_off_time": 5.063}, {"pitch": 67, "velocity": 80, "note_on_time": 5.062, "note_off_time": 5.527}, {"pitch": 42, "velocity": 80, "note_on_time": 5.063, "note_off_time": 5.527}, {"pitch": 64, "velocity": 80, "note_on_time": 5.527, "note_off_time": 5.981}, {"pitch": 42, "velocity": 80, "note_on_time": 5.528, "note_off_time": 5.982}, {"pitch": 65, "velocity": 80, "note_on_time": 5.981, "note_off_time": 6.435}, {"pitch": 42, "velocity": 80, "note_on_time": 5.982, "note_off_time": 6.435}, {"pitch": 42, "velocity": 80, "note_on_time": 6.435, "note_off_time": 6.89}, {"pitch": 60, "velocity": 80, "note_on_time": 6.435, "note_off_time": 7.346}, {"pitch": 42, "velocity": 80, "note_on_time": 6.891, "note_off_time": 7.346}, {"pitch": 67, "velocity": 80, "note_on_time": 7.346, "note_off_time": 7.8}, {"pitch": 42, "velocity": 80, "note_on_time": 7.346, "note_off_time": 7.8}, {"pitch": 42, "velocity": 80, "note_on_time": 7.8, "note_off_time": 8.253}, {"pitch": 65, "velocity": 80, "note_on_time": 7.8, "note_off_time": 8.706}, {"pitch": 42, "velocity": 80, "note_on_time": 8.253, "note_off_time": 8.707}, {"pitch": 42, "velocity": 80, "note_on_time": 8.707, "note_off_time": 9.174}, {"pitch": 60, "velocity": 80, "note_on_time": 9.174, "note_off_time": 9.641}, {"pitch": 42, "velocity": 80, "note_on_time": 9.174, "note_off_time": 9.641}, {"pitch": 42, "velocity": 80, "note_on_time": 9.641, "note_off_time": 10.094}, {"pitch": 67, "velocity": 80, "note_on_time": 9.641, "note_off_time": 10.547}, {"pitch": 42, "velocity": 80, "note_on_time": 10.094, "note_off_time": 10.547}, {"pitch": 62, "velocity": 80, "note_on_time": 10.547, "note_off_time": 11.014}, {"pitch": 42, "velocity": 80, "note_on_time": 10.548, "note_off_time": 11.014}, {"pitch": 60, "velocity": 80, "note_on_time": 11.014, "note_off_time": 11.467}, {"pitch": 42, "velocity": 80, "note_on_time": 11.015, "note_off_time": 11.471}, {"pitch": 42, "velocity": 80, "note_on_time": 11.472, "note_off_time": 11.934}, {"pitch": 60, "velocity": 80, "note_on_time": 11.468, "note_off_time": 12.4}, {"pitch": 42, "velocity": 80, "note_on_time": 11.934, "note_off_time": 12.401}, {"pitch": 42, "velocity": 80, "note_on_time": 12.401, "note_off_time": 12.867}, {"pitch": 42, "velocity": 80, "note_on_time": 12.868, "note_off_time": 13.322}, {"pitch": 65, "velocity": 80, "note_on_time": 12.867, "note_off_time": 13.787}, {"pitch": 42, "velocity": 80, "note_on_time": 13.322, "note_off_time": 13.788}, {"pitch": 42, "velocity": 80, "note_on_time": 13.788, "note_off_time": 14.256}, {"pitch": 42, "velocity": 80, "note_on_time": 14.257, "note_off_time": 14.723}, {"pitch": 42, "velocity": 80, "note_on_time": 14.723, "note_off_time": 15.179}, {"pitch": 65, "velocity": 80, "note_on_time": 15.178, "note_off_time": 15.645}, {"pitch": 42, "velocity": 80, "note_on_time": 15.179, "note_off_time": 15.645}, {"pitch": 65, "velocity": 80, "note_on_time": 15.645, "note_off_time": 16.098}, {"pitch": 42, "velocity": 80, "note_on_time": 15.645, "note_off_time": 16.098}, {"pitch": 65, "velocity": 80, "note_on_time": 16.098, "note_off_time": 16.564}, {"pitch": 42, "velocity": 80, "note_on_time": 16.099, "note_off_time": 16.565}]</notes><options name="Option List">((4, 4), [0.5, 0.25], 3, 8, &lt;NoteRangePerHand.C_TO_G: 6&gt;, &lt;NoteRangePerHand.ONE_NOTE: 2&gt;, False, True, True, '133')</options></target_notes><trials><trial trial_no="1" timestamp="2022_08_17-14_26_59"><notes name="Played Notes">[{"pitch": 62, "velocity": 68, "note_on_time": 1.874, "note_off_time": 2.092}, {"pitch": 64, "velocity": 64, "note_on_time": 2.312, "note_off_time": 2.835}, {"pitch": 64, "velocity": 72, "note_on_time": 3.183, "note_off_time": 3.301}, {"pitch": 60, "velocity": 56, "note_on_time": 3.632, "note_off_time": 4.227}, {"pitch": 64, "velocity": 63, "note_on_time": 4.575, "note_off_time": 4.688}, {"pitch": 67, "velocity": 72, "note_on_time": 5.015, "note_off_time": 5.145}, {"pitch": 64, "velocity": 77, "note_on_time": 5.57, "note_off_time": 5.679}, {"pitch": 65, "velocity": 56, "note_on_time": 6.012, "note_off_time": 6.13}, {"pitch": 60, "velocity": 62, "note_on_time": 6.434, "note_off_time": 7.091}, {"pitch": 67, "velocity": 72, "note_on_time": 7.41, "note_off_time": 7.559}, {"pitch": 65, "velocity": 65, "note_on_time": 7.819, "note_off_time": 8.375}, {"pitch": 60, "velocity": 82, "note_on_time": 9.033, "note_off_time": 9.142}, {"pitch": 67, "velocity": 68, "note_on_time": 9.475, "note_off_time": 10.255}, {"pitch": 62, "velocity": 53, "note_on_time": 10.46, "note_off_time": 10.519}, {"pitch": 60, "velocity": 60, "note_on_time": 10.871, "note_off_time": 10.945}, {"pitch": 60, "velocity": 60, "note_on_time": 11.272, "note_off_time": 11.772}, {"pitch": 65, "velocity": 74, "note_on_time": 12.39, "note_off_time": 13.062}, {"pitch": 65, "velocity": 60, "note_on_time": 13.439, "note_off_time": 13.524}, {"pitch": 65, "velocity": 77, "note_on_time": 14.209, "note_off_time": 14.272}, {"pitch": 65, "velocity": 79, "note_on_time": 14.63, "note_off_time": 14.698}, {"pitch": 65, "velocity": 67, "note_on_time": 15.042, "note_off_time": 15.111}]</notes><guidance name="Guidance Mode">None</guidance><error name="Error value">0.22730347058823439</error></trial><trial trial_no="2" timestamp="2022_08_17-14_27_31"><notes name="Played Notes">[{"pitch": 62, "velocity": 51, "note_on_time": 1.929, "note_off_time": 2.052}, {"pitch": 64, "velocity": 55, "note_on_time": 2.351, "note_off_time": 2.875}, {"pitch": 64, "velocity": 71, "note_on_time": 3.187, "note_off_time": 3.271}, {"pitch": 60, "velocity": 62, "note_on_time": 3.639, "note_off_time": 4.213}, {"pitch": 64, "velocity": 65, "note_on_time": 4.549, "note_off_time": 4.678}, {"pitch": 67, "velocity": 66, "note_on_time": 4.984, "note_off_time": 5.12}, {"pitch": 64, "velocity": 55, "note_on_time": 5.45, "note_off_time": 5.597}, {"pitch": 65, "velocity": 77, "note_on_time": 5.889, "note_off_time": 5.992}, {"pitch": 60, "velocity": 60, "note_on_time": 6.335, "note_off_time": 6.953}, {"pitch": 67, "velocity": 63, "note_on_time": 7.31, "note_off_time": 7.469}, {"pitch": 65, "velocity": 62, "note_on_time": 7.739, "note_off_time": 8.254}, {"pitch": 60, "velocity": 76, "note_on_time": 8.807, "note_off_time": 8.903}, {"pitch": 67, "velocity": 65, "note_on_time": 9.347, "note_off_time": 10.012}, {"pitch": 62, "velocity": 62, "note_on_time": 10.395, "note_off_time": 10.482}, {"pitch": 60, "velocity": 59, "note_on_time": 10.892, "note_off_time": 10.963}, {"pitch": 60, "velocity": 67, "note_on_time": 11.322, "note_off_time": 11.387}, {"pitch": 60, "velocity": 65, "note_on_time": 11.749, "note_off_time": 12.375}, {"pitch": 65, "velocity": 44, "note_on_time": 14.335, "note_off_time": 14.395}, {"pitch": 65, "velocity": 59, "note_on_time": 14.738, "note_off_time": 14.781}, {"pitch": 65, "velocity": 61, "note_on_time": 15.165, "note_off_time": 15.203}]</notes><guidance name="Guidance Mode">None</guidance><error name="Error value">0.18606629411764697</error></trial><trial trial_no="3" timestamp="2022_08_17-14_28_16"><notes name="Played Notes">[{"pitch": 62, "velocity": 68, "note_on_time": 1.848, "note_off_time": 1.972}, {"pitch": 64, "velocity": 62, "note_on_time": 2.286, "note_off_time": 2.801}, {"pitch": 64, "velocity": 70, "note_on_time": 3.215, "note_off_time": 3.312}, {"pitch": 60, "velocity": 63, "note_on_time": 3.698, "note_off_time": 4.334}, {"pitch": 64, "velocity": 77, "note_on_time": 4.599, "note_off_time": 4.672}, {"pitch": 67, "velocity": 66, "note_on_time": 5.029, "note_off_time": 5.171}, {"pitch": 64, "velocity": 64, "note_on_time": 5.504, "note_off_time": 5.58}, {"pitch": 65, "velocity": 78, "note_on_time": 5.958, "note_off_time": 6.033}, {"pitch": 60, "velocity": 60, "note_on_time": 6.411, "note_off_time": 7.074}, {"pitch": 67, "velocity": 59, "note_on_time": 7.411, "note_off_time": 7.543}, {"pitch": 65, "velocity": 65, "note_on_time": 7.815, "note_off_time": 8.281}, {"pitch": 60, "velocity": 81, "note_on_time": 9.139, "note_off_time": 9.227}, {"pitch": 67, "velocity": 76, "note_on_time": 9.678, "note_off_time": 10.188}, {"pitch": 62, "velocity": 71, "note_on_time": 10.665, "note_off_time": 10.717}, {"pitch": 60, "velocity": 80, "note_on_time": 11.074, "note_off_time": 11.161}, {"pitch": 60, "velocity": 75, "note_on_time": 11.494, "note_off_time": 12.026}, {"pitch": 65, "velocity": 77, "note_on_time": 12.849, "note_off_time": 13.615}, {"pitch": 65, "velocity": 83, "note_on_time": 14.701, "note_off_time": 14.81}, {"pitch": 65, "velocity": 78, "note_on_time": 15.168, "note_off_time": 15.268}, {"pitch": 65, "velocity": 77, "note_on_time": 15.616, "note_off_time": 15.682}]</notes><guidance name="Guidance Mode">None</guidance><error name="Error value">0.056889823529411666</error></trial></trials></MIDI>