<MIDI midiNo="2022_10_26-14_09_11"><target_notes><notes name="Note List">[{"pitch": 42, "velocity": 80, "note_on_time": 0.004, "note_off_time": 0.311}, {"pitch": 42, "velocity": 80, "note_on_time": 0.311, "note_off_time": 0.621}, {"pitch": 42, "velocity": 80, "note_on_time": 0.621, "note_off_time": 0.932}, {"pitch": 42, "velocity": 80, "note_on_time": 0.932, "note_off_time": 1.244}, {"pitch": 62, "velocity": 80, "note_on_time": 1.244, "note_off_time": 1.555}, {"pitch": 42, "velocity": 80, "note_on_time": 1.245, "note_off_time": 1.555}, {"pitch": 62, "velocity": 80, "note_on_time": 1.555, "note_off_time": 1.866}, {"pitch": 42, "velocity": 80, "note_on_time": 1.555, "note_off_time": 1.867}, {"pitch": 62, "velocity": 80, "note_on_time": 1.866, "note_off_time": 2.179}, {"pitch": 42, "velocity": 80, "note_on_time": 1.867, "note_off_time": 2.179}, {"pitch": 64, "velocity": 80, "note_on_time": 2.179, "note_off_time": 2.489}, {"pitch": 42, "velocity": 80, "note_on_time": 2.179, "note_off_time": 2.489}, {"pitch": 65, "velocity": 80, "note_on_time": 2.489, "note_off_time": 2.798}, {"pitch": 42, "velocity": 80, "note_on_time": 2.489, "note_off_time": 2.798}, {"pitch": 60, "velocity": 80, "note_on_time": 2.798, "note_off_time": 3.109}, {"pitch": 42, "velocity": 80, "note_on_time": 2.798, "note_off_time": 3.109}, {"pitch": 64, "velocity": 80, "note_on_time": 3.109, "note_off_time": 3.421}, {"pitch": 42, "velocity": 80, "note_on_time": 3.109, "note_off_time": 3.421}, {"pitch": 64, "velocity": 80, "note_on_time": 3.421, "note_off_time": 3.73}, {"pitch": 42, "velocity": 80, "note_on_time": 3.422, "note_off_time": 3.73}, {"pitch": 64, "velocity": 80, "note_on_time": 3.73, "note_off_time": 4.042}, {"pitch": 42, "velocity": 80, "note_on_time": 3.731, "note_off_time": 4.043}, {"pitch": 60, "velocity": 80, "note_on_time": 4.042, "note_off_time": 4.354}, {"pitch": 42, "velocity": 80, "note_on_time": 4.043, "note_off_time": 4.354}, {"pitch": 65, "velocity": 80, "note_on_time": 4.354, "note_off_time": 4.663}, {"pitch": 42, "velocity": 80, "note_on_time": 4.354, "note_off_time": 4.663}, {"pitch": 60, "velocity": 80, "note_on_time": 4.663, "note_off_time": 4.976}, {"pitch": 42, "velocity": 80, "note_on_time": 4.663, "note_off_time": 4.976}, {"pitch": 42, "velocity": 80, "note_on_time": 4.977, "note_off_time": 5.287}, {"pitch": 60, "velocity": 80, "note_on_time": 4.976, "note_off_time": 5.596}, {"pitch": 42, "velocity": 80, "note_on_time": 5.288, "note_off_time": 5.596}, {"pitch": 60, "velocity": 80, "note_on_time": 5.596, "note_off_time": 5.907}, {"pitch": 42, "velocity": 80, "note_on_time": 5.596, "note_off_time": 5.907}, {"pitch": 42, "velocity": 80, "note_on_time": 5.908, "note_off_time": 6.219}, {"pitch": 65, "velocity": 80, "note_on_time": 6.219, "note_off_time": 6.528}, {"pitch": 42, "velocity": 80, "note_on_time": 6.22, "note_off_time": 6.528}, {"pitch": 64, "velocity": 80, "note_on_time": 6.528, "note_off_time": 6.84}, {"pitch": 42, "velocity": 80, "note_on_time": 6.528, "note_off_time": 6.84}, {"pitch": 65, "velocity": 80, "note_on_time": 6.84, "note_off_time": 7.149}, {"pitch": 42, "velocity": 80, "note_on_time": 6.84, "note_off_time": 7.149}, {"pitch": 67, "velocity": 80, "note_on_time": 7.149, "note_off_time": 7.463}, {"pitch": 42, "velocity": 80, "note_on_time": 7.15, "note_off_time": 7.463}, {"pitch": 62, "velocity": 80, "note_on_time": 7.463, "note_off_time": 7.773}, {"pitch": 42, "velocity": 80, "note_on_time": 7.463, "note_off_time": 7.773}, {"pitch": 60, "velocity": 80, "note_on_time": 7.773, "note_off_time": 8.083}, {"pitch": 42, "velocity": 80, "note_on_time": 7.773, "note_off_time": 8.083}, {"pitch": 67, "velocity": 80, "note_on_time": 8.083, "note_off_time": 8.395}, {"pitch": 42, "velocity": 80, "note_on_time": 8.083, "note_off_time": 8.395}, {"pitch": 67, "velocity": 80, "note_on_time": 8.395, "note_off_time": 8.707}, {"pitch": 42, "velocity": 80, "note_on_time": 8.395, "note_off_time": 8.708}, {"pitch": 64, "velocity": 80, "note_on_time": 8.707, "note_off_time": 9.018}, {"pitch": 42, "velocity": 80, "note_on_time": 8.708, "note_off_time": 9.018}, {"pitch": 67, "velocity": 80, "note_on_time": 9.018, "note_off_time": 9.329}, {"pitch": 42, "velocity": 80, "note_on_time": 9.018, "note_off_time": 9.329}, {"pitch": 62, "velocity": 80, "note_on_time": 9.329, "note_off_time": 9.642}, {"pitch": 42, "velocity": 80, "note_on_time": 9.329, "note_off_time": 9.642}, {"pitch": 62, "velocity": 80, "note_on_time": 9.642, "note_off_time": 9.952}, {"pitch": 42, "velocity": 80, "note_on_time": 9.643, "note_off_time": 9.953}, {"pitch": 42, "velocity": 80, "note_on_time": 9.953, "note_off_time": 10.262}, {"pitch": 62, "velocity": 80, "note_on_time": 10.262, "note_off_time": 10.572}, {"pitch": 42, "velocity": 80, "note_on_time": 10.263, "note_off_time": 10.572}, {"pitch": 62, "velocity": 80, "note_on_time": 10.572, "note_off_time": 10.885}, {"pitch": 42, "velocity": 80, "note_on_time": 10.572, "note_off_time": 10.885}, {"pitch": 62, "velocity": 80, "note_on_time": 10.885, "note_off_time": 11.196}, {"pitch": 42, "velocity": 80, "note_on_time": 10.885, "note_off_time": 11.197}]</notes><options name="Option List">((4, 4), [0.5, 0.25], 3, 8, &lt;NoteRangePerHand.C_TO_G: 6&gt;, &lt;NoteRangePerHand.ONE_NOTE: 2&gt;, False, True, True, '197')</options></target_notes><trials><trial trial_no="1" timestamp="2022_10_26-14_08_58"><notes name="Played Notes">[{"pitch": 62, "velocity": 70, "note_on_time": 1.273, "note_off_time": 1.383}, {"pitch": 62, "velocity": 75, "note_on_time": 1.561, "note_off_time": 1.676}, {"pitch": 62, "velocity": 82, "note_on_time": 1.874, "note_off_time": 2.227}, {"pitch": 64, "velocity": 71, "note_on_time": 2.187, "note_off_time": 2.48}, {"pitch": 65, "velocity": 71, "note_on_time": 2.496, "note_off_time": 2.802}, {"pitch": 60, "velocity": 74, "note_on_time": 2.793, "note_off_time": 3.106}, {"pitch": 64, "velocity": 73, "note_on_time": 3.081, "note_off_time": 3.172}, {"pitch": 64, "velocity": 78, "note_on_time": 3.397, "note_off_time": 3.516}, {"pitch": 64, "velocity": 83, "note_on_time": 3.714, "note_off_time": 4.017}, {"pitch": 60, "velocity": 73, "note_on_time": 4.023, "note_off_time": 4.367}, {"pitch": 65, "velocity": 69, "note_on_time": 4.341, "note_off_time": 4.67}, {"pitch": 60, "velocity": 77, "note_on_time": 4.656, "note_off_time": 4.765}, {"pitch": 60, "velocity": 90, "note_on_time": 4.977, "note_off_time": 5.355}, {"pitch": 60, "velocity": 89, "note_on_time": 5.607, "note_off_time": 5.896}, {"pitch": 65, "velocity": 73, "note_on_time": 6.215, "note_off_time": 6.509}, {"pitch": 64, "velocity": 70, "note_on_time": 6.521, "note_off_time": 6.803}, {"pitch": 65, "velocity": 69, "note_on_time": 6.827, "note_off_time": 7.114}, {"pitch": 67, "velocity": 68, "note_on_time": 7.131, "note_off_time": 7.441}, {"pitch": 62, "velocity": 65, "note_on_time": 7.445, "note_off_time": 7.78}, {"pitch": 60, "velocity": 75, "note_on_time": 7.779, "note_off_time": 8.059}, {"pitch": 67, "velocity": 70, "note_on_time": 8.076, "note_off_time": 8.202}, {"pitch": 67, "velocity": 78, "note_on_time": 8.394, "note_off_time": 8.713}, {"pitch": 64, "velocity": 72, "note_on_time": 8.709, "note_off_time": 9.035}, {"pitch": 67, "velocity": 74, "note_on_time": 9.025, "note_off_time": 9.334}, {"pitch": 62, "velocity": 68, "note_on_time": 9.334, "note_off_time": 9.426}, {"pitch": 62, "velocity": 83, "note_on_time": 9.63, "note_off_time": 9.852}, {"pitch": 62, "velocity": 77, "note_on_time": 10.266, "note_off_time": 10.357}, {"pitch": 62, "velocity": 88, "note_on_time": 10.558, "note_off_time": 10.652}, {"pitch": 62, "velocity": 96, "note_on_time": 10.872, "note_off_time": 11.017}]</notes><guidance name="Guidance Mode">None</guidance><error name="Error value">0.011523692307692252</error></trial><trial trial_no="2" timestamp="2022_10_26-14_09_29"><notes name="Played Notes">[{"pitch": 62, "velocity": 75, "note_on_time": 1.311, "note_off_time": 1.406}, {"pitch": 62, "velocity": 72, "note_on_time": 1.594, "note_off_time": 1.712}, {"pitch": 62, "velocity": 82, "note_on_time": 1.92, "note_off_time": 2.269}, {"pitch": 64, "velocity": 71, "note_on_time": 2.22, "note_off_time": 2.514}, {"pitch": 65, "velocity": 78, "note_on_time": 2.527, "note_off_time": 2.827}, {"pitch": 60, "velocity": 74, "note_on_time": 2.824, "note_off_time": 3.144}, {"pitch": 64, "velocity": 74, "note_on_time": 3.118, "note_off_time": 3.216}, {"pitch": 64, "velocity": 84, "note_on_time": 3.439, "note_off_time": 3.548}, {"pitch": 64, "velocity": 84, "note_on_time": 3.745, "note_off_time": 4.047}, {"pitch": 60, "velocity": 79, "note_on_time": 4.057, "note_off_time": 4.384}, {"pitch": 65, "velocity": 73, "note_on_time": 4.37, "note_off_time": 4.678}, {"pitch": 60, "velocity": 77, "note_on_time": 4.659, "note_off_time": 4.755}, {"pitch": 60, "velocity": 91, "note_on_time": 4.977, "note_off_time": 5.344}, {"pitch": 60, "velocity": 88, "note_on_time": 5.612, "note_off_time": 5.908}, {"pitch": 65, "velocity": 66, "note_on_time": 6.218, "note_off_time": 6.483}, {"pitch": 64, "velocity": 64, "note_on_time": 6.493, "note_off_time": 6.852}, {"pitch": 65, "velocity": 75, "note_on_time": 6.852, "note_off_time": 7.154}, {"pitch": 67, "velocity": 72, "note_on_time": 7.157, "note_off_time": 7.478}, {"pitch": 62, "velocity": 68, "note_on_time": 7.482, "note_off_time": 7.789}, {"pitch": 60, "velocity": 76, "note_on_time": 7.794, "note_off_time": 8.116}, {"pitch": 67, "velocity": 73, "note_on_time": 8.096, "note_off_time": 8.207}, {"pitch": 67, "velocity": 74, "note_on_time": 8.403, "note_off_time": 8.728}, {"pitch": 64, "velocity": 76, "note_on_time": 8.719, "note_off_time": 9.045}, {"pitch": 67, "velocity": 72, "note_on_time": 9.037, "note_off_time": 9.35}, {"pitch": 62, "velocity": 79, "note_on_time": 9.342, "note_off_time": 9.443}, {"pitch": 62, "velocity": 81, "note_on_time": 9.659, "note_off_time": 9.874}, {"pitch": 62, "velocity": 82, "note_on_time": 10.278, "note_off_time": 10.364}, {"pitch": 62, "velocity": 88, "note_on_time": 10.577, "note_off_time": 10.671}, {"pitch": 62, "velocity": 96, "note_on_time": 10.893, "note_off_time": 11.017}]</notes><guidance name="Guidance Mode">None</guidance><error name="Error value">0.013144307692307771</error></trial><trial trial_no="3" timestamp="2022_10_26-14_09_59"><notes name="Played Notes">[{"pitch": 62, "velocity": 87, "note_on_time": 1.268, "note_off_time": 1.366}, {"pitch": 62, "velocity": 78, "note_on_time": 1.56, "note_off_time": 1.659}, {"pitch": 62, "velocity": 80, "note_on_time": 1.866, "note_off_time": 2.188}, {"pitch": 64, "velocity": 67, "note_on_time": 2.161, "note_off_time": 2.477}, {"pitch": 65, "velocity": 78, "note_on_time": 2.492, "note_off_time": 2.793}, {"pitch": 60, "velocity": 77, "note_on_time": 2.798, "note_off_time": 3.126}, {"pitch": 64, "velocity": 72, "note_on_time": 3.097, "note_off_time": 3.161}, {"pitch": 64, "velocity": 78, "note_on_time": 3.415, "note_off_time": 3.494}, {"pitch": 64, "velocity": 77, "note_on_time": 3.737, "note_off_time": 4.044}, {"pitch": 60, "velocity": 74, "note_on_time": 4.055, "note_off_time": 4.388}, {"pitch": 65, "velocity": 72, "note_on_time": 4.357, "note_off_time": 4.664}, {"pitch": 60, "velocity": 74, "note_on_time": 4.672, "note_off_time": 4.756}, {"pitch": 60, "velocity": 91, "note_on_time": 4.992, "note_off_time": 5.368}, {"pitch": 60, "velocity": 94, "note_on_time": 5.607, "note_off_time": 5.896}, {"pitch": 65, "velocity": 81, "note_on_time": 6.212, "note_off_time": 6.51}, {"pitch": 64, "velocity": 65, "note_on_time": 6.518, "note_off_time": 6.812}, {"pitch": 65, "velocity": 72, "note_on_time": 6.825, "note_off_time": 7.139}, {"pitch": 67, "velocity": 73, "note_on_time": 7.137, "note_off_time": 7.459}, {"pitch": 62, "velocity": 73, "note_on_time": 7.456, "note_off_time": 7.774}, {"pitch": 60, "velocity": 78, "note_on_time": 7.786, "note_off_time": 8.094}, {"pitch": 67, "velocity": 73, "note_on_time": 8.083, "note_off_time": 8.193}, {"pitch": 67, "velocity": 78, "note_on_time": 8.386, "note_off_time": 8.689}, {"pitch": 64, "velocity": 70, "note_on_time": 8.688, "note_off_time": 9.005}, {"pitch": 67, "velocity": 71, "note_on_time": 8.988, "note_off_time": 9.296}, {"pitch": 62, "velocity": 76, "note_on_time": 9.315, "note_off_time": 9.433}, {"pitch": 62, "velocity": 82, "note_on_time": 9.638, "note_off_time": 9.868}, {"pitch": 62, "velocity": 87, "note_on_time": 10.259, "note_off_time": 10.34}, {"pitch": 62, "velocity": 83, "note_on_time": 10.557, "note_off_time": 10.641}, {"pitch": 62, "velocity": 89, "note_on_time": 10.875, "note_off_time": 11.032}]</notes><guidance name="Guidance Mode">None</guidance><error name="Error value">0.010764923076923082</error></trial><trial trial_no="4" timestamp="2022_10_26-14_10_22"><notes name="Played Notes">[{"pitch": 62, "velocity": 75, "note_on_time": 1.267, "note_off_time": 1.368}, {"pitch": 62, "velocity": 75, "note_on_time": 1.557, "note_off_time": 1.662}, {"pitch": 62, "velocity": 81, "note_on_time": 1.877, "note_off_time": 2.217}, {"pitch": 64, "velocity": 70, "note_on_time": 2.176, "note_off_time": 2.471}, {"pitch": 65, "velocity": 72, "note_on_time": 2.489, "note_off_time": 2.81}, {"pitch": 60, "velocity": 78, "note_on_time": 2.807, "note_off_time": 3.104}, {"pitch": 64, "velocity": 71, "note_on_time": 3.094, "note_off_time": 3.169}, {"pitch": 64, "velocity": 81, "note_on_time": 3.417, "note_off_time": 3.512}, {"pitch": 64, "velocity": 82, "note_on_time": 3.73, "note_off_time": 4.03}, {"pitch": 60, "velocity": 72, "note_on_time": 4.044, "note_off_time": 4.378}, {"pitch": 65, "velocity": 66, "note_on_time": 4.359, "note_off_time": 4.663}, {"pitch": 60, "velocity": 67, "note_on_time": 4.668, "note_off_time": 4.767}, {"pitch": 60, "velocity": 89, "note_on_time": 4.99, "note_off_time": 5.388}, {"pitch": 60, "velocity": 84, "note_on_time": 5.607, "note_off_time": 5.902}, {"pitch": 65, "velocity": 74, "note_on_time": 6.214, "note_off_time": 6.504}, {"pitch": 64, "velocity": 68, "note_on_time": 6.526, "note_off_time": 6.842}, {"pitch": 65, "velocity": 68, "note_on_time": 6.852, "note_off_time": 7.129}, {"pitch": 67, "velocity": 68, "note_on_time": 7.146, "note_off_time": 7.463}, {"pitch": 62, "velocity": 65, "note_on_time": 7.463, "note_off_time": 7.8}, {"pitch": 60, "velocity": 77, "note_on_time": 7.799, "note_off_time": 8.099}, {"pitch": 67, "velocity": 70, "note_on_time": 8.094, "note_off_time": 8.194}, {"pitch": 67, "velocity": 80, "note_on_time": 8.392, "note_off_time": 8.746}, {"pitch": 64, "velocity": 71, "note_on_time": 8.718, "note_off_time": 9.035}, {"pitch": 67, "velocity": 71, "note_on_time": 9.03, "note_off_time": 9.335}, {"pitch": 62, "velocity": 66, "note_on_time": 9.333, "note_off_time": 9.432}, {"pitch": 62, "velocity": 77, "note_on_time": 9.65, "note_off_time": 9.868}, {"pitch": 62, "velocity": 79, "note_on_time": 10.247, "note_off_time": 10.346}, {"pitch": 62, "velocity": 80, "note_on_time": 10.559, "note_off_time": 10.659}, {"pitch": 62, "velocity": 96, "note_on_time": 10.88, "note_off_time": 10.989}]</notes><guidance name="Guidance Mode">None</guidance><error name="Error value">0.012764923076923161</error></trial></trials></MIDI>