<MIDI midiNo="2022_08_17-12_43_05"><target_notes><notes name="Note List">[{"pitch": 42, "velocity": 80, "note_on_time": 0.004, "note_off_time": 0.248}, {"pitch": 42, "velocity": 80, "note_on_time": 0.248, "note_off_time": 0.499}, {"pitch": 42, "velocity": 80, "note_on_time": 0.499, "note_off_time": 0.748}, {"pitch": 42, "velocity": 80, "note_on_time": 0.749, "note_off_time": 0.998}, {"pitch": 60, "velocity": 80, "note_on_time": 0.998, "note_off_time": 1.249}, {"pitch": 42, "velocity": 80, "note_on_time": 0.999, "note_off_time": 1.249}, {"pitch": 64, "velocity": 80, "note_on_time": 1.249, "note_off_time": 1.5}, {"pitch": 42, "velocity": 80, "note_on_time": 1.25, "note_off_time": 1.5}, {"pitch": 42, "velocity": 80, "note_on_time": 1.5, "note_off_time": 1.751}, {"pitch": 64, "velocity": 80, "note_on_time": 1.5, "note_off_time": 2.001}, {"pitch": 42, "velocity": 80, "note_on_time": 1.751, "note_off_time": 2.002}, {"pitch": 42, "velocity": 80, "note_on_time": 2.002, "note_off_time": 2.252}, {"pitch": 65, "velocity": 80, "note_on_time": 2.001, "note_off_time": 2.501}, {"pitch": 42, "velocity": 80, "note_on_time": 2.252, "note_off_time": 2.501}, {"pitch": 42, "velocity": 80, "note_on_time": 2.501, "note_off_time": 2.751}, {"pitch": 42, "velocity": 80, "note_on_time": 2.751, "note_off_time": 3.001}, {"pitch": 64, "velocity": 80, "note_on_time": 3.001, "note_off_time": 3.253}, {"pitch": 42, "velocity": 80, "note_on_time": 3.001, "note_off_time": 3.253}, {"pitch": 64, "velocity": 80, "note_on_time": 3.253, "note_off_time": 3.501}, {"pitch": 42, "velocity": 80, "note_on_time": 3.254, "note_off_time": 3.501}, {"pitch": 67, "velocity": 80, "note_on_time": 3.501, "note_off_time": 3.752}, {"pitch": 42, "velocity": 80, "note_on_time": 3.502, "note_off_time": 3.753}, {"pitch": 62, "velocity": 80, "note_on_time": 3.752, "note_off_time": 4.001}, {"pitch": 42, "velocity": 80, "note_on_time": 3.753, "note_off_time": 4.001}, {"pitch": 42, "velocity": 80, "note_on_time": 4.002, "note_off_time": 4.252}, {"pitch": 67, "velocity": 80, "note_on_time": 4.001, "note_off_time": 4.503}, {"pitch": 42, "velocity": 80, "note_on_time": 4.253, "note_off_time": 4.503}, {"pitch": 64, "velocity": 80, "note_on_time": 4.503, "note_off_time": 4.753}, {"pitch": 42, "velocity": 80, "note_on_time": 4.503, "note_off_time": 4.753}, {"pitch": 42, "velocity": 80, "note_on_time": 4.753, "note_off_time": 5.002}, {"pitch": 42, "velocity": 80, "note_on_time": 5.002, "note_off_time": 5.252}, {"pitch": 65, "velocity": 80, "note_on_time": 5.002, "note_off_time": 5.502}, {"pitch": 42, "velocity": 80, "note_on_time": 5.252, "note_off_time": 5.502}, {"pitch": 42, "velocity": 80, "note_on_time": 5.502, "note_off_time": 5.751}, {"pitch": 42, "velocity": 80, "note_on_time": 5.751, "note_off_time": 6.0}, {"pitch": 65, "velocity": 80, "note_on_time": 6.0, "note_off_time": 6.25}, {"pitch": 42, "velocity": 80, "note_on_time": 6.0, "note_off_time": 6.25}, {"pitch": 42, "velocity": 80, "note_on_time": 6.25, "note_off_time": 6.499}, {"pitch": 60, "velocity": 80, "note_on_time": 6.25, "note_off_time": 6.747}, {"pitch": 42, "velocity": 80, "note_on_time": 6.499, "note_off_time": 6.747}, {"pitch": 42, "velocity": 80, "note_on_time": 6.747, "note_off_time": 6.998}, {"pitch": 67, "velocity": 80, "note_on_time": 6.998, "note_off_time": 7.248}, {"pitch": 42, "velocity": 80, "note_on_time": 6.999, "note_off_time": 7.248}, {"pitch": 64, "velocity": 80, "note_on_time": 7.248, "note_off_time": 7.5}, {"pitch": 42, "velocity": 80, "note_on_time": 7.248, "note_off_time": 7.5}, {"pitch": 42, "velocity": 80, "note_on_time": 7.5, "note_off_time": 7.749}, {"pitch": 60, "velocity": 80, "note_on_time": 7.5, "note_off_time": 7.998}, {"pitch": 42, "velocity": 80, "note_on_time": 7.75, "note_off_time": 7.998}, {"pitch": 42, "velocity": 80, "note_on_time": 7.999, "note_off_time": 8.248}, {"pitch": 60, "velocity": 80, "note_on_time": 8.248, "note_off_time": 8.498}, {"pitch": 42, "velocity": 80, "note_on_time": 8.248, "note_off_time": 8.498}, {"pitch": 60, "velocity": 80, "note_on_time": 8.498, "note_off_time": 8.748}, {"pitch": 42, "velocity": 80, "note_on_time": 8.498, "note_off_time": 8.748}, {"pitch": 60, "velocity": 80, "note_on_time": 8.748, "note_off_time": 8.998}, {"pitch": 42, "velocity": 80, "note_on_time": 8.748, "note_off_time": 8.998}]</notes><options name="Option List">((4, 4), [0.5, 0.25], 3, 8, &lt;NoteRangePerHand.C_TO_G: 6&gt;, &lt;NoteRangePerHand.ONE_NOTE: 2&gt;, False, True, True, '248')</options></target_notes><trials><trial trial_no="1" timestamp="2022_08_17-12_42_54"><notes name="Played Notes">[{"pitch": 60, "velocity": 66, "note_on_time": 1.018, "note_off_time": 1.193}, {"pitch": 64, "velocity": 61, "note_on_time": 1.259, "note_off_time": 1.338}, {"pitch": 64, "velocity": 67, "note_on_time": 1.525, "note_off_time": 1.998}, {"pitch": 65, "velocity": 73, "note_on_time": 2.021, "note_off_time": 2.415}, {"pitch": 64, "velocity": 66, "note_on_time": 2.863, "note_off_time": 2.94}, {"pitch": 64, "velocity": 69, "note_on_time": 3.144, "note_off_time": 3.21}, {"pitch": 67, "velocity": 71, "note_on_time": 3.384, "note_off_time": 3.467}, {"pitch": 62, "velocity": 65, "note_on_time": 3.637, "note_off_time": 3.703}, {"pitch": 67, "velocity": 58, "note_on_time": 3.905, "note_off_time": 4.178}, {"pitch": 64, "velocity": 62, "note_on_time": 4.497, "note_off_time": 4.624}, {"pitch": 65, "velocity": 67, "note_on_time": 4.933, "note_off_time": 5.238}, {"pitch": 65, "velocity": 73, "note_on_time": 5.749, "note_off_time": 5.829}, {"pitch": 60, "velocity": 79, "note_on_time": 6.021, "note_off_time": 6.464}, {"pitch": 67, "velocity": 57, "note_on_time": 6.756, "note_off_time": 6.828}, {"pitch": 64, "velocity": 69, "note_on_time": 7.015, "note_off_time": 7.1}, {"pitch": 60, "velocity": 67, "note_on_time": 7.28, "note_off_time": 7.624}, {"pitch": 60, "velocity": 68, "note_on_time": 7.883, "note_off_time": 7.962}, {"pitch": 60, "velocity": 76, "note_on_time": 8.132, "note_off_time": 8.219}, {"pitch": 60, "velocity": 79, "note_on_time": 8.383, "note_off_time": 8.455}]</notes><guidance name="Guidance Mode">None</guidance><error name="Error value">0.04794156250000001</error></trial><trial trial_no="2" timestamp="2022_08_17-12_43_14"><notes name="Played Notes">[{"pitch": 60, "velocity": 68, "note_on_time": 1.026, "note_off_time": 1.288}, {"pitch": 64, "velocity": 67, "note_on_time": 1.272, "note_off_time": 1.35}, {"pitch": 64, "velocity": 69, "note_on_time": 1.516, "note_off_time": 2.05}, {"pitch": 65, "velocity": 78, "note_on_time": 2.064, "note_off_time": 2.425}, {"pitch": 64, "velocity": 63, "note_on_time": 3.008, "note_off_time": 3.085}, {"pitch": 64, "velocity": 68, "note_on_time": 3.268, "note_off_time": 3.362}, {"pitch": 67, "velocity": 70, "note_on_time": 3.535, "note_off_time": 3.614}, {"pitch": 62, "velocity": 69, "note_on_time": 3.768, "note_off_time": 3.849}, {"pitch": 67, "velocity": 68, "note_on_time": 4.037, "note_off_time": 4.363}, {"pitch": 64, "velocity": 73, "note_on_time": 4.554, "note_off_time": 4.853}, {"pitch": 65, "velocity": 77, "note_on_time": 5.248, "note_off_time": 5.529}, {"pitch": 65, "velocity": 76, "note_on_time": 6.255, "note_off_time": 6.351}, {"pitch": 60, "velocity": 74, "note_on_time": 6.538, "note_off_time": 6.903}, {"pitch": 67, "velocity": 79, "note_on_time": 7.291, "note_off_time": 7.386}, {"pitch": 64, "velocity": 73, "note_on_time": 7.541, "note_off_time": 7.619}, {"pitch": 60, "velocity": 64, "note_on_time": 7.815, "note_off_time": 8.167}, {"pitch": 60, "velocity": 73, "note_on_time": 8.515, "note_off_time": 8.594}, {"pitch": 60, "velocity": 70, "note_on_time": 8.759, "note_off_time": 8.822}]</notes><guidance name="Guidance Mode">None</guidance><error name="Error value">0.11461531250000015</error></trial><trial trial_no="3" timestamp="2022_08_17-12_43_34"><notes name="Played Notes">[{"pitch": 60, "velocity": 64, "note_on_time": 1.053, "note_off_time": 1.306}, {"pitch": 64, "velocity": 63, "note_on_time": 1.315, "note_off_time": 1.39}, {"pitch": 64, "velocity": 60, "note_on_time": 1.584, "note_off_time": 2.118}, {"pitch": 65, "velocity": 69, "note_on_time": 2.122, "note_off_time": 2.492}, {"pitch": 64, "velocity": 62, "note_on_time": 3.101, "note_off_time": 3.184}, {"pitch": 64, "velocity": 65, "note_on_time": 3.357, "note_off_time": 3.46}, {"pitch": 67, "velocity": 63, "note_on_time": 3.617, "note_off_time": 3.676}, {"pitch": 62, "velocity": 61, "note_on_time": 3.857, "note_off_time": 3.93}, {"pitch": 67, "velocity": 57, "note_on_time": 4.124, "note_off_time": 4.444}, {"pitch": 64, "velocity": 57, "note_on_time": 4.644, "note_off_time": 4.919}, {"pitch": 65, "velocity": 71, "note_on_time": 5.174, "note_off_time": 5.493}, {"pitch": 65, "velocity": 69, "note_on_time": 6.034, "note_off_time": 6.11}, {"pitch": 60, "velocity": 64, "note_on_time": 6.311, "note_off_time": 6.68}, {"pitch": 67, "velocity": 64, "note_on_time": 7.07, "note_off_time": 7.151}, {"pitch": 64, "velocity": 62, "note_on_time": 7.332, "note_off_time": 7.405}, {"pitch": 60, "velocity": 64, "note_on_time": 7.603, "note_off_time": 7.973}, {"pitch": 60, "velocity": 70, "note_on_time": 8.284, "note_off_time": 8.368}, {"pitch": 60, "velocity": 64, "note_on_time": 8.53, "note_off_time": 8.6}, {"pitch": 60, "velocity": 73, "note_on_time": 8.779, "note_off_time": 8.845}]</notes><guidance name="Guidance Mode">None</guidance><error name="Error value">0.03343593749999994</error></trial><trial trial_no="4" timestamp="2022_08_17-12_43_52"><notes name="Played Notes">[{"pitch": 60, "velocity": 60, "note_on_time": 1.066, "note_off_time": 1.322}, {"pitch": 64, "velocity": 66, "note_on_time": 1.316, "note_off_time": 1.412}, {"pitch": 64, "velocity": 59, "note_on_time": 1.57, "note_off_time": 2.107}, {"pitch": 65, "velocity": 67, "note_on_time": 2.123, "note_off_time": 2.502}, {"pitch": 64, "velocity": 61, "note_on_time": 3.044, "note_off_time": 3.112}, {"pitch": 64, "velocity": 58, "note_on_time": 3.31, "note_off_time": 3.383}, {"pitch": 67, "velocity": 65, "note_on_time": 3.564, "note_off_time": 3.641}, {"pitch": 62, "velocity": 57, "note_on_time": 3.814, "note_off_time": 3.876}, {"pitch": 67, "velocity": 61, "note_on_time": 4.068, "note_off_time": 4.342}, {"pitch": 65, "velocity": 78, "note_on_time": 4.559, "note_off_time": 4.872}, {"pitch": 64, "velocity": 70, "note_on_time": 5.332, "note_off_time": 5.51}, {"pitch": 65, "velocity": 66, "note_on_time": 6.087, "note_off_time": 6.196}, {"pitch": 60, "velocity": 70, "note_on_time": 6.412, "note_off_time": 6.728}, {"pitch": 67, "velocity": 70, "note_on_time": 7.144, "note_off_time": 7.224}, {"pitch": 64, "velocity": 68, "note_on_time": 7.416, "note_off_time": 7.503}, {"pitch": 60, "velocity": 60, "note_on_time": 7.705, "note_off_time": 8.033}, {"pitch": 60, "velocity": 72, "note_on_time": 8.374, "note_off_time": 8.457}, {"pitch": 60, "velocity": 72, "note_on_time": 8.628, "note_off_time": 8.696}, {"pitch": 60, "velocity": 74, "note_on_time": 8.884, "note_off_time": 8.93}]</notes><guidance name="Guidance Mode">None</guidance><error name="Error value">0.18441156250000004</error></trial><trial trial_no="5" timestamp="2022_08_17-12_44_11"><notes name="Played Notes">[{"pitch": 60, "velocity": 51, "note_on_time": 1.036, "note_off_time": 1.25}, {"pitch": 64, "velocity": 56, "note_on_time": 1.283, "note_off_time": 1.364}, {"pitch": 64, "velocity": 56, "note_on_time": 1.548, "note_off_time": 1.911}, {"pitch": 65, "velocity": 66, "note_on_time": 2.093, "note_off_time": 2.518}, {"pitch": 64, "velocity": 63, "note_on_time": 3.032, "note_off_time": 3.103}, {"pitch": 64, "velocity": 59, "note_on_time": 3.284, "note_off_time": 3.351}, {"pitch": 67, "velocity": 59, "note_on_time": 3.554, "note_off_time": 3.615}, {"pitch": 62, "velocity": 64, "note_on_time": 3.797, "note_off_time": 3.86}, {"pitch": 67, "velocity": 64, "note_on_time": 4.069, "note_off_time": 4.323}, {"pitch": 64, "velocity": 59, "note_on_time": 4.612, "note_off_time": 4.887}, {"pitch": 65, "velocity": 67, "note_on_time": 5.345, "note_off_time": 5.637}, {"pitch": 65, "velocity": 74, "note_on_time": 6.176, "note_off_time": 6.274}, {"pitch": 60, "velocity": 64, "note_on_time": 6.459, "note_off_time": 6.882}, {"pitch": 67, "velocity": 65, "note_on_time": 7.311, "note_off_time": 7.388}, {"pitch": 64, "velocity": 62, "note_on_time": 7.559, "note_off_time": 7.634}, {"pitch": 60, "velocity": 61, "note_on_time": 7.827, "note_off_time": 8.133}, {"pitch": 60, "velocity": 72, "note_on_time": 8.52, "note_off_time": 8.61}, {"pitch": 60, "velocity": 72, "note_on_time": 8.772, "note_off_time": 8.858}]</notes><guidance name="Guidance Mode">None</guidance><error name="Error value">0.1322784375</error></trial><trial trial_no="6" timestamp="2022_08_17-12_44_42"><notes name="Played Notes">[{"pitch": 60, "velocity": 60, "note_on_time": 1.039, "note_off_time": 1.271}, {"pitch": 64, "velocity": 63, "note_on_time": 1.28, "note_off_time": 1.389}, {"pitch": 64, "velocity": 60, "note_on_time": 1.542, "note_off_time": 1.878}, {"pitch": 65, "velocity": 78, "note_on_time": 2.077, "note_off_time": 2.639}, {"pitch": 64, "velocity": 63, "note_on_time": 3.056, "note_off_time": 3.126}, {"pitch": 64, "velocity": 61, "note_on_time": 3.301, "note_off_time": 3.403}, {"pitch": 67, "velocity": 60, "note_on_time": 3.565, "note_off_time": 3.64}, {"pitch": 62, "velocity": 62, "note_on_time": 3.8, "note_off_time": 3.899}, {"pitch": 67, "velocity": 70, "note_on_time": 4.066, "note_off_time": 4.391}, {"pitch": 64, "velocity": 66, "note_on_time": 4.567, "note_off_time": 4.839}, {"pitch": 65, "velocity": 77, "note_on_time": 5.116, "note_off_time": 5.532}, {"pitch": 65, "velocity": 65, "note_on_time": 6.266, "note_off_time": 6.374}, {"pitch": 60, "velocity": 74, "note_on_time": 6.542, "note_off_time": 6.98}, {"pitch": 67, "velocity": 65, "note_on_time": 7.339, "note_off_time": 7.438}, {"pitch": 64, "velocity": 67, "note_on_time": 7.587, "note_off_time": 7.668}, {"pitch": 60, "velocity": 66, "note_on_time": 7.854, "note_off_time": 8.236}, {"pitch": 60, "velocity": 66, "note_on_time": 8.462, "note_off_time": 8.551}, {"pitch": 60, "velocity": 66, "note_on_time": 8.718, "note_off_time": 8.792}]</notes><guidance name="Guidance Mode">None</guidance><error name="Error value">2.124598125</error></trial></trials></MIDI>