<MIDI midiNo="2022_11_13-13_10_02"><target_notes><notes name="Note List">[{"pitch": 42, "velocity": 80, "note_on_time": 0.004, "note_off_time": 0.227}, {"pitch": 42, "velocity": 80, "note_on_time": 0.227, "note_off_time": 0.445}, {"pitch": 42, "velocity": 80, "note_on_time": 0.445, "note_off_time": 0.663}, {"pitch": 42, "velocity": 80, "note_on_time": 0.663, "note_off_time": 0.881}, {"pitch": 42, "velocity": 80, "note_on_time": 0.881, "note_off_time": 1.1}, {"pitch": 60, "velocity": 80, "note_on_time": 0.881, "note_off_time": 1.319}, {"pitch": 42, "velocity": 80, "note_on_time": 1.1, "note_off_time": 1.319}, {"pitch": 42, "velocity": 80, "note_on_time": 1.319, "note_off_time": 1.536}, {"pitch": 60, "velocity": 80, "note_on_time": 1.536, "note_off_time": 1.755}, {"pitch": 42, "velocity": 80, "note_on_time": 1.536, "note_off_time": 1.755}, {"pitch": 60, "velocity": 80, "note_on_time": 1.755, "note_off_time": 1.973}, {"pitch": 42, "velocity": 80, "note_on_time": 1.755, "note_off_time": 1.973}, {"pitch": 42, "velocity": 80, "note_on_time": 1.973, "note_off_time": 2.191}, {"pitch": 64, "velocity": 80, "note_on_time": 1.973, "note_off_time": 2.41}, {"pitch": 42, "velocity": 80, "note_on_time": 2.191, "note_off_time": 2.41}, {"pitch": 42, "velocity": 80, "note_on_time": 2.41, "note_off_time": 2.629}, {"pitch": 65, "velocity": 80, "note_on_time": 2.629, "note_off_time": 2.848}, {"pitch": 42, "velocity": 80, "note_on_time": 2.629, "note_off_time": 2.848}, {"pitch": 62, "velocity": 80, "note_on_time": 2.848, "note_off_time": 3.065}, {"pitch": 42, "velocity": 80, "note_on_time": 2.848, "note_off_time": 3.065}, {"pitch": 65, "velocity": 80, "note_on_time": 3.065, "note_off_time": 3.282}, {"pitch": 42, "velocity": 80, "note_on_time": 3.065, "note_off_time": 3.282}, {"pitch": 64, "velocity": 80, "note_on_time": 3.282, "note_off_time": 3.5}, {"pitch": 42, "velocity": 80, "note_on_time": 3.282, "note_off_time": 3.5}, {"pitch": 64, "velocity": 80, "note_on_time": 3.5, "note_off_time": 3.717}, {"pitch": 42, "velocity": 80, "note_on_time": 3.5, "note_off_time": 3.717}, {"pitch": 64, "velocity": 80, "note_on_time": 3.717, "note_off_time": 3.937}, {"pitch": 42, "velocity": 80, "note_on_time": 3.717, "note_off_time": 3.937}, {"pitch": 65, "velocity": 80, "note_on_time": 3.937, "note_off_time": 4.155}, {"pitch": 42, "velocity": 80, "note_on_time": 3.937, "note_off_time": 4.155}, {"pitch": 60, "velocity": 80, "note_on_time": 4.155, "note_off_time": 4.374}, {"pitch": 42, "velocity": 80, "note_on_time": 4.155, "note_off_time": 4.374}, {"pitch": 67, "velocity": 80, "note_on_time": 4.374, "note_off_time": 4.593}, {"pitch": 42, "velocity": 80, "note_on_time": 4.374, "note_off_time": 4.593}, {"pitch": 62, "velocity": 80, "note_on_time": 4.593, "note_off_time": 4.81}, {"pitch": 42, "velocity": 80, "note_on_time": 4.593, "note_off_time": 4.81}, {"pitch": 60, "velocity": 80, "note_on_time": 4.81, "note_off_time": 5.027}, {"pitch": 42, "velocity": 80, "note_on_time": 4.81, "note_off_time": 5.027}, {"pitch": 42, "velocity": 80, "note_on_time": 5.027, "note_off_time": 5.246}, {"pitch": 42, "velocity": 80, "note_on_time": 5.246, "note_off_time": 5.464}, {"pitch": 62, "velocity": 80, "note_on_time": 5.246, "note_off_time": 5.681}, {"pitch": 42, "velocity": 80, "note_on_time": 5.464, "note_off_time": 5.681}, {"pitch": 42, "velocity": 80, "note_on_time": 5.681, "note_off_time": 5.899}, {"pitch": 42, "velocity": 80, "note_on_time": 5.899, "note_off_time": 6.117}, {"pitch": 64, "velocity": 80, "note_on_time": 6.117, "note_off_time": 6.336}, {"pitch": 42, "velocity": 80, "note_on_time": 6.117, "note_off_time": 6.336}, {"pitch": 42, "velocity": 80, "note_on_time": 6.336, "note_off_time": 6.556}, {"pitch": 42, "velocity": 80, "note_on_time": 6.556, "note_off_time": 6.774}, {"pitch": 64, "velocity": 80, "note_on_time": 6.774, "note_off_time": 6.991}, {"pitch": 42, "velocity": 80, "note_on_time": 6.775, "note_off_time": 6.991}, {"pitch": 42, "velocity": 80, "note_on_time": 6.991, "note_off_time": 7.211}, {"pitch": 64, "velocity": 80, "note_on_time": 7.211, "note_off_time": 7.429}, {"pitch": 42, "velocity": 80, "note_on_time": 7.211, "note_off_time": 7.429}, {"pitch": 64, "velocity": 80, "note_on_time": 7.429, "note_off_time": 7.648}, {"pitch": 42, "velocity": 80, "note_on_time": 7.429, "note_off_time": 7.648}, {"pitch": 64, "velocity": 80, "note_on_time": 7.648, "note_off_time": 7.867}, {"pitch": 42, "velocity": 80, "note_on_time": 7.648, "note_off_time": 7.867}]</notes><options name="Option List">((4, 4), [0.5, 0.25], 3, 8, &lt;NoteRangePerHand.C_TO_G: 6&gt;, &lt;NoteRangePerHand.ONE_NOTE: 2&gt;, False, True, False, 281)</options></target_notes><trials><trial trial_no="1" timestamp="2022_11_13-13_09_53"><notes name="Played Notes">[{"pitch": 60, "velocity": 90, "note_on_time": 0.902, "note_off_time": 1.168}, {"pitch": 60, "velocity": 92, "note_on_time": 1.514, "note_off_time": 1.693}, {"pitch": 60, "velocity": 90, "note_on_time": 1.947, "note_off_time": 2.094}, {"pitch": 64, "velocity": 92, "note_on_time": 2.18, "note_off_time": 2.418}, {"pitch": 65, "velocity": 87, "note_on_time": 2.809, "note_off_time": 2.986}, {"pitch": 62, "velocity": 82, "note_on_time": 3.045, "note_off_time": 3.186}, {"pitch": 65, "velocity": 88, "note_on_time": 3.267, "note_off_time": 3.372}, {"pitch": 64, "velocity": 88, "note_on_time": 3.492, "note_off_time": 3.581}, {"pitch": 64, "velocity": 81, "note_on_time": 3.705, "note_off_time": 3.794}, {"pitch": 64, "velocity": 83, "note_on_time": 3.927, "note_off_time": 4.02}, {"pitch": 65, "velocity": 88, "note_on_time": 4.147, "note_off_time": 4.223}, {"pitch": 60, "velocity": 94, "note_on_time": 4.383, "note_off_time": 4.461}, {"pitch": 67, "velocity": 85, "note_on_time": 4.593, "note_off_time": 4.68}, {"pitch": 62, "velocity": 45, "note_on_time": 4.857, "note_off_time": 4.903}, {"pitch": 64, "velocity": 56, "note_on_time": 4.857, "note_off_time": 4.911}, {"pitch": 62, "velocity": 63, "note_on_time": 5.077, "note_off_time": 5.158}, {"pitch": 60, "velocity": 82, "note_on_time": 5.17, "note_off_time": 5.258}, {"pitch": 64, "velocity": 91, "note_on_time": 5.367, "note_off_time": 5.493}, {"pitch": 64, "velocity": 81, "note_on_time": 6.12, "note_off_time": 6.214}, {"pitch": 64, "velocity": 96, "note_on_time": 6.362, "note_off_time": 6.453}, {"pitch": 64, "velocity": 93, "note_on_time": 6.928, "note_off_time": 7.007}, {"pitch": 64, "velocity": 92, "note_on_time": 7.144, "note_off_time": 7.216}, {"pitch": 64, "velocity": 90, "note_on_time": 7.361, "note_off_time": 7.422}]</notes><guidance name="Guidance Mode">None</guidance><error name="Error value">0.46769061111111154</error></trial><trial trial_no="2" timestamp="2022_11_13-13_10_15"><notes name="Played Notes">[{"pitch": 60, "velocity": 92, "note_on_time": 0.877, "note_off_time": 1.294}, {"pitch": 60, "velocity": 98, "note_on_time": 1.529, "note_off_time": 1.707}, {"pitch": 60, "velocity": 91, "note_on_time": 1.95, "note_off_time": 2.044}, {"pitch": 64, "velocity": 94, "note_on_time": 2.21, "note_off_time": 2.461}, {"pitch": 65, "velocity": 89, "note_on_time": 2.818, "note_off_time": 2.922}, {"pitch": 62, "velocity": 90, "note_on_time": 3.053, "note_off_time": 3.148}, {"pitch": 65, "velocity": 87, "note_on_time": 3.272, "note_off_time": 3.357}, {"pitch": 64, "velocity": 84, "note_on_time": 3.507, "note_off_time": 3.59}, {"pitch": 64, "velocity": 86, "note_on_time": 3.727, "note_off_time": 3.812}, {"pitch": 65, "velocity": 89, "note_on_time": 3.951, "note_off_time": 4.027}, {"pitch": 60, "velocity": 90, "note_on_time": 4.165, "note_off_time": 4.217}, {"pitch": 67, "velocity": 87, "note_on_time": 4.385, "note_off_time": 4.468}, {"pitch": 64, "velocity": 80, "note_on_time": 4.607, "note_off_time": 4.682}, {"pitch": 60, "velocity": 91, "note_on_time": 4.848, "note_off_time": 5.023}, {"pitch": 64, "velocity": 84, "note_on_time": 5.476, "note_off_time": 5.588}, {"pitch": 64, "velocity": 95, "note_on_time": 5.975, "note_off_time": 6.045}, {"pitch": 64, "velocity": 96, "note_on_time": 6.402, "note_off_time": 6.471}, {"pitch": 64, "velocity": 90, "note_on_time": 6.812, "note_off_time": 6.886}, {"pitch": 64, "velocity": 93, "note_on_time": 7.029, "note_off_time": 7.096}, {"pitch": 64, "velocity": 94, "note_on_time": 7.248, "note_off_time": 7.302}]</notes><guidance name="Guidance Mode">None</guidance><error name="Error value">0.24410599999999985</error></trial><trial trial_no="3" timestamp="2022_11_13-13_10_39"><notes name="Played Notes">[{"pitch": 60, "velocity": 92, "note_on_time": 0.896, "note_off_time": 1.346}, {"pitch": 60, "velocity": 96, "note_on_time": 1.588, "note_off_time": 1.759}, {"pitch": 60, "velocity": 87, "note_on_time": 1.99, "note_off_time": 2.085}, {"pitch": 64, "velocity": 70, "note_on_time": 2.252, "note_off_time": 2.402}, {"pitch": 62, "velocity": 65, "note_on_time": 2.248, "note_off_time": 2.531}, {"pitch": 64, "velocity": 73, "note_on_time": 2.805, "note_off_time": 2.918}, {"pitch": 60, "velocity": 84, "note_on_time": 3.05, "note_off_time": 3.146}, {"pitch": 64, "velocity": 61, "note_on_time": 3.258, "note_off_time": 3.351}, {"pitch": 65, "velocity": 59, "note_on_time": 3.502, "note_off_time": 3.575}, {"pitch": 64, "velocity": 73, "note_on_time": 3.692, "note_off_time": 3.785}, {"pitch": 64, "velocity": 72, "note_on_time": 3.894, "note_off_time": 3.988}, {"pitch": 65, "velocity": 39, "note_on_time": 4.169, "note_off_time": 4.225}, {"pitch": 60, "velocity": 90, "note_on_time": 4.37, "note_off_time": 4.413}, {"pitch": 67, "velocity": 78, "note_on_time": 4.58, "note_off_time": 4.664}, {"pitch": 62, "velocity": 78, "note_on_time": 4.809, "note_off_time": 4.883}, {"pitch": 60, "velocity": 68, "note_on_time": 5.042, "note_off_time": 5.103}, {"pitch": 60, "velocity": 88, "note_on_time": 5.253, "note_off_time": 5.34}, {"pitch": 62, "velocity": 86, "note_on_time": 5.436, "note_off_time": 5.603}, {"pitch": 62, "velocity": 94, "note_on_time": 5.935, "note_off_time": 6.02}, {"pitch": 64, "velocity": 92, "note_on_time": 6.337, "note_off_time": 6.406}, {"pitch": 64, "velocity": 83, "note_on_time": 6.571, "note_off_time": 6.638}, {"pitch": 64, "velocity": 86, "note_on_time": 6.784, "note_off_time": 6.847}]</notes><guidance name="Guidance Mode">None</guidance><error name="Error value">0.819983722222222</error></trial></trials></MIDI>