<MIDI midiNo="2022_08_17-19_20_38"><target_notes><notes name="Note List">[{"pitch": 42, "velocity": 80, "note_on_time": 0.004, "note_off_time": 1.218}, {"pitch": 42, "velocity": 80, "note_on_time": 1.218, "note_off_time": 2.421}, {"pitch": 42, "velocity": 80, "note_on_time": 2.421, "note_off_time": 3.633}, {"pitch": 42, "velocity": 80, "note_on_time": 3.633, "note_off_time": 4.834}, {"pitch": 42, "velocity": 80, "note_on_time": 4.835, "note_off_time": 6.04}, {"pitch": 60, "velocity": 80, "note_on_time": 4.834, "note_off_time": 7.243}, {"pitch": 42, "velocity": 80, "note_on_time": 6.04, "note_off_time": 7.243}, {"pitch": 42, "velocity": 80, "note_on_time": 7.244, "note_off_time": 8.445}, {"pitch": 42, "velocity": 80, "note_on_time": 8.445, "note_off_time": 9.66}, {"pitch": 62, "velocity": 80, "note_on_time": 9.66, "note_off_time": 10.866}, {"pitch": 42, "velocity": 80, "note_on_time": 9.661, "note_off_time": 10.866}, {"pitch": 60, "velocity": 80, "note_on_time": 10.866, "note_off_time": 12.069}, {"pitch": 42, "velocity": 80, "note_on_time": 10.867, "note_off_time": 12.069}, {"pitch": 64, "velocity": 80, "note_on_time": 12.069, "note_off_time": 13.269}, {"pitch": 42, "velocity": 80, "note_on_time": 12.069, "note_off_time": 13.27}, {"pitch": 60, "velocity": 80, "note_on_time": 13.269, "note_off_time": 14.474}, {"pitch": 42, "velocity": 80, "note_on_time": 13.27, "note_off_time": 14.474}, {"pitch": 42, "velocity": 80, "note_on_time": 14.475, "note_off_time": 15.678}, {"pitch": 67, "velocity": 80, "note_on_time": 14.474, "note_off_time": 16.88}, {"pitch": 42, "velocity": 80, "note_on_time": 15.678, "note_off_time": 16.88}, {"pitch": 42, "velocity": 80, "note_on_time": 16.88, "note_off_time": 18.087}, {"pitch": 42, "velocity": 80, "note_on_time": 18.087, "note_off_time": 19.302}, {"pitch": 60, "velocity": 80, "note_on_time": 19.302, "note_off_time": 20.505}, {"pitch": 42, "velocity": 80, "note_on_time": 19.302, "note_off_time": 20.505}, {"pitch": 42, "velocity": 80, "note_on_time": 20.505, "note_off_time": 21.71}, {"pitch": 64, "velocity": 80, "note_on_time": 21.71, "note_off_time": 22.913}, {"pitch": 42, "velocity": 80, "note_on_time": 21.71, "note_off_time": 22.913}, {"pitch": 62, "velocity": 80, "note_on_time": 22.913, "note_off_time": 24.119}, {"pitch": 42, "velocity": 80, "note_on_time": 22.913, "note_off_time": 24.119}, {"pitch": 64, "velocity": 80, "note_on_time": 24.119, "note_off_time": 25.321}, {"pitch": 42, "velocity": 80, "note_on_time": 24.119, "note_off_time": 25.321}, {"pitch": 42, "velocity": 80, "note_on_time": 25.322, "note_off_time": 26.524}, {"pitch": 42, "velocity": 80, "note_on_time": 26.524, "note_off_time": 27.727}, {"pitch": 42, "velocity": 80, "note_on_time": 27.727, "note_off_time": 28.928}, {"pitch": 60, "velocity": 80, "note_on_time": 28.927, "note_off_time": 30.131}, {"pitch": 42, "velocity": 80, "note_on_time": 28.928, "note_off_time": 30.131}, {"pitch": 60, "velocity": 80, "note_on_time": 30.131, "note_off_time": 31.341}, {"pitch": 42, "velocity": 80, "note_on_time": 30.131, "note_off_time": 31.341}, {"pitch": 62, "velocity": 80, "note_on_time": 31.341, "note_off_time": 32.545}, {"pitch": 42, "velocity": 80, "note_on_time": 31.341, "note_off_time": 32.545}, {"pitch": 60, "velocity": 80, "note_on_time": 32.545, "note_off_time": 33.746}, {"pitch": 42, "velocity": 80, "note_on_time": 32.546, "note_off_time": 33.746}, {"pitch": 42, "velocity": 80, "note_on_time": 33.746, "note_off_time": 34.96}, {"pitch": 65, "velocity": 80, "note_on_time": 33.746, "note_off_time": 36.163}, {"pitch": 42, "velocity": 80, "note_on_time": 34.96, "note_off_time": 36.163}, {"pitch": 67, "velocity": 80, "note_on_time": 36.163, "note_off_time": 37.363}, {"pitch": 42, "velocity": 80, "note_on_time": 36.163, "note_off_time": 37.363}, {"pitch": 60, "velocity": 80, "note_on_time": 37.363, "note_off_time": 38.564}, {"pitch": 42, "velocity": 80, "note_on_time": 37.364, "note_off_time": 38.565}, {"pitch": 42, "velocity": 80, "note_on_time": 38.565, "note_off_time": 39.766}, {"pitch": 60, "velocity": 80, "note_on_time": 39.766, "note_off_time": 40.972}, {"pitch": 42, "velocity": 80, "note_on_time": 39.766, "note_off_time": 40.972}, {"pitch": 60, "velocity": 80, "note_on_time": 40.972, "note_off_time": 42.175}, {"pitch": 42, "velocity": 80, "note_on_time": 40.973, "note_off_time": 42.175}, {"pitch": 60, "velocity": 80, "note_on_time": 42.175, "note_off_time": 43.379}, {"pitch": 42, "velocity": 80, "note_on_time": 42.175, "note_off_time": 43.379}]</notes><options name="Option List">((4, 4), [0.5, 0.25], 3, 8, &lt;NoteRangePerHand.C_TO_G: 6&gt;, &lt;NoteRangePerHand.ONE_NOTE: 2&gt;, False, True, True, 50)</options></target_notes><trials><trial trial_no="1" timestamp="2022_08_17-19_19_54"><notes name="Played Notes">[{"pitch": 60, "velocity": 89, "note_on_time": 4.876, "note_off_time": 7.181}, {"pitch": 62, "velocity": 77, "note_on_time": 9.535, "note_off_time": 10.852}, {"pitch": 60, "velocity": 79, "note_on_time": 10.875, "note_off_time": 12.148}, {"pitch": 64, "velocity": 64, "note_on_time": 12.137, "note_off_time": 13.192}, {"pitch": 60, "velocity": 74, "note_on_time": 13.212, "note_off_time": 14.411}, {"pitch": 67, "velocity": 87, "note_on_time": 14.38, "note_off_time": 16.618}, {"pitch": 60, "velocity": 81, "note_on_time": 19.254, "note_off_time": 20.172}, {"pitch": 64, "velocity": 74, "note_on_time": 21.682, "note_off_time": 22.874}, {"pitch": 62, "velocity": 65, "note_on_time": 22.887, "note_off_time": 24.069}, {"pitch": 64, "velocity": 72, "note_on_time": 24.072, "note_off_time": 25.095}, {"pitch": 60, "velocity": 82, "note_on_time": 28.865, "note_off_time": 29.689}, {"pitch": 60, "velocity": 83, "note_on_time": 30.051, "note_off_time": 30.797}, {"pitch": 62, "velocity": 75, "note_on_time": 31.313, "note_off_time": 32.081}, {"pitch": 60, "velocity": 78, "note_on_time": 32.554, "note_off_time": 33.29}, {"pitch": 65, "velocity": 77, "note_on_time": 33.765, "note_off_time": 36.09}, {"pitch": 67, "velocity": 78, "note_on_time": 36.117, "note_off_time": 37.291}, {"pitch": 60, "velocity": 80, "note_on_time": 37.298, "note_off_time": 38.25}, {"pitch": 60, "velocity": 74, "note_on_time": 39.742, "note_off_time": 40.378}, {"pitch": 60, "velocity": 76, "note_on_time": 40.922, "note_off_time": 41.589}, {"pitch": 60, "velocity": 77, "note_on_time": 42.129, "note_off_time": 42.835}]</notes><guidance name="Guidance Mode">None</guidance><error name="Error value">0.05264705882352918</error></trial><trial trial_no="2" timestamp="2022_08_17-19_20_48"><notes name="Played Notes">[{"pitch": 60, "velocity": 82, "note_on_time": 4.885, "note_off_time": 7.135}, {"pitch": 62, "velocity": 70, "note_on_time": 9.688, "note_off_time": 10.878}, {"pitch": 60, "velocity": 78, "note_on_time": 10.863, "note_off_time": 12.044}, {"pitch": 64, "velocity": 75, "note_on_time": 12.038, "note_off_time": 13.206}, {"pitch": 62, "velocity": 67, "note_on_time": 13.222, "note_off_time": 14.398}, {"pitch": 67, "velocity": 77, "note_on_time": 14.421, "note_off_time": 16.739}, {"pitch": 60, "velocity": 71, "note_on_time": 19.297, "note_off_time": 20.482}, {"pitch": 64, "velocity": 69, "note_on_time": 21.697, "note_off_time": 22.884}, {"pitch": 62, "velocity": 68, "note_on_time": 22.883, "note_off_time": 24.075}, {"pitch": 64, "velocity": 71, "note_on_time": 24.061, "note_off_time": 24.478}, {"pitch": 60, "velocity": 81, "note_on_time": 28.87, "note_off_time": 29.513}, {"pitch": 60, "velocity": 71, "note_on_time": 30.118, "note_off_time": 30.67}, {"pitch": 62, "velocity": 68, "note_on_time": 31.337, "note_off_time": 31.977}, {"pitch": 60, "velocity": 68, "note_on_time": 32.592, "note_off_time": 33.103}, {"pitch": 65, "velocity": 64, "note_on_time": 33.738, "note_off_time": 36.148}, {"pitch": 67, "velocity": 76, "note_on_time": 36.136, "note_off_time": 37.324}, {"pitch": 60, "velocity": 78, "note_on_time": 37.35, "note_off_time": 38.131}, {"pitch": 60, "velocity": 82, "note_on_time": 39.756, "note_off_time": 40.325}, {"pitch": 60, "velocity": 79, "note_on_time": 40.932, "note_off_time": 41.518}, {"pitch": 60, "velocity": 68, "note_on_time": 42.17, "note_off_time": 42.686}]</notes><guidance name="Guidance Mode">None</guidance><error name="Error value">0.08535294117646963</error></trial><trial trial_no="3" timestamp="2022_08_17-19_21_36"><notes name="Played Notes">[{"pitch": 60, "velocity": 82, "note_on_time": 4.853, "note_off_time": 7.192}, {"pitch": 62, "velocity": 76, "note_on_time": 9.591, "note_off_time": 10.742}, {"pitch": 60, "velocity": 79, "note_on_time": 10.754, "note_off_time": 12.009}, {"pitch": 64, "velocity": 67, "note_on_time": 12.005, "note_off_time": 13.183}, {"pitch": 62, "velocity": 63, "note_on_time": 13.166, "note_off_time": 14.42}, {"pitch": 67, "velocity": 76, "note_on_time": 14.413, "note_off_time": 16.762}, {"pitch": 60, "velocity": 79, "note_on_time": 19.18, "note_off_time": 20.366}, {"pitch": 64, "velocity": 73, "note_on_time": 21.665, "note_off_time": 22.805}, {"pitch": 62, "velocity": 64, "note_on_time": 22.808, "note_off_time": 24.065}, {"pitch": 64, "velocity": 70, "note_on_time": 24.069, "note_off_time": 24.637}, {"pitch": 60, "velocity": 72, "note_on_time": 28.908, "note_off_time": 29.486}, {"pitch": 60, "velocity": 69, "note_on_time": 30.106, "note_off_time": 30.763}, {"pitch": 62, "velocity": 61, "note_on_time": 31.379, "note_off_time": 31.91}, {"pitch": 60, "velocity": 68, "note_on_time": 32.565, "note_off_time": 33.046}, {"pitch": 65, "velocity": 73, "note_on_time": 33.752, "note_off_time": 36.175}, {"pitch": 67, "velocity": 67, "note_on_time": 36.174, "note_off_time": 37.37}, {"pitch": 60, "velocity": 70, "note_on_time": 37.362, "note_off_time": 38.508}, {"pitch": 60, "velocity": 78, "note_on_time": 39.689, "note_off_time": 40.46}, {"pitch": 60, "velocity": 74, "note_on_time": 40.986, "note_off_time": 41.661}, {"pitch": 60, "velocity": 80, "note_on_time": 42.208, "note_off_time": 42.664}]</notes><guidance name="Guidance Mode">None</guidance><error name="Error value">0.10817647058823537</error></trial><trial trial_no="4" timestamp="2022_08_17-19_23_13"><notes name="Played Notes">[{"pitch": 60, "velocity": 74, "note_on_time": 4.769, "note_off_time": 6.09}, {"pitch": 64, "velocity": 77, "note_on_time": 6.041, "note_off_time": 7.036}, {"pitch": 64, "velocity": 76, "note_on_time": 7.273, "note_off_time": 8.393}, {"pitch": 62, "velocity": 70, "note_on_time": 8.444, "note_off_time": 9.208}, {"pitch": 62, "velocity": 76, "note_on_time": 9.628, "note_off_time": 11.532}, {"pitch": 62, "velocity": 78, "note_on_time": 12.05, "note_off_time": 13.17}, {"pitch": 65, "velocity": 76, "note_on_time": 13.195, "note_off_time": 13.853}, {"pitch": 65, "velocity": 79, "note_on_time": 14.345, "note_off_time": 15.131}, {"pitch": 65, "velocity": 74, "note_on_time": 18.105, "note_off_time": 19.227}, {"pitch": 64, "velocity": 72, "note_on_time": 19.248, "note_off_time": 20.44}, {"pitch": 67, "velocity": 72, "note_on_time": 20.449, "note_off_time": 21.659}, {"pitch": 62, "velocity": 73, "note_on_time": 21.662, "note_off_time": 22.845}, {"pitch": 67, "velocity": 71, "note_on_time": 22.86, "note_off_time": 23.757}, {"pitch": 67, "velocity": 72, "note_on_time": 24.075, "note_off_time": 25.29}, {"pitch": 62, "velocity": 69, "note_on_time": 25.303, "note_off_time": 26.458}, {"pitch": 64, "velocity": 68, "note_on_time": 26.468, "note_off_time": 26.84}, {"pitch": 65, "velocity": 52, "note_on_time": 26.854, "note_off_time": 27.675}, {"pitch": 64, "velocity": 72, "note_on_time": 27.695, "note_off_time": 28.946}, {"pitch": 67, "velocity": 73, "note_on_time": 28.971, "note_off_time": 30.192}, {"pitch": 64, "velocity": 69, "note_on_time": 30.189, "note_off_time": 31.367}, {"pitch": 67, "velocity": 71, "note_on_time": 31.362, "note_off_time": 32.481}, {"pitch": 60, "velocity": 75, "note_on_time": 32.501, "note_off_time": 33.711}, {"pitch": 64, "velocity": 74, "note_on_time": 33.695, "note_off_time": 34.941}, {"pitch": 67, "velocity": 78, "note_on_time": 34.961, "note_off_time": 36.12}, {"pitch": 60, "velocity": 78, "note_on_time": 36.139, "note_off_time": 37.383}, {"pitch": 65, "velocity": 78, "note_on_time": 37.372, "note_off_time": 38.152}, {"pitch": 65, "velocity": 80, "note_on_time": 39.746, "note_off_time": 40.533}, {"pitch": 65, "velocity": 81, "note_on_time": 40.976, "note_off_time": 41.733}, {"pitch": 65, "velocity": 83, "note_on_time": 42.184, "note_off_time": 42.928}]</notes><guidance name="Guidance Mode">None</guidance><error name="Error value">11.517058823529418</error></trial><trial trial_no="5" timestamp="2022_08_17-19_24_11"><notes name="Played Notes">[{"pitch": 60, "velocity": 75, "note_on_time": 4.786, "note_off_time": 6.0}, {"pitch": 64, "velocity": 78, "note_on_time": 5.969, "note_off_time": 6.843}, {"pitch": 64, "velocity": 69, "note_on_time": 7.151, "note_off_time": 8.359}, {"pitch": 62, "velocity": 72, "note_on_time": 8.382, "note_off_time": 9.22}, {"pitch": 62, "velocity": 68, "note_on_time": 9.609, "note_off_time": 11.363}, {"pitch": 62, "velocity": 71, "note_on_time": 12.042, "note_off_time": 13.16}, {"pitch": 65, "velocity": 75, "note_on_time": 13.166, "note_off_time": 14.009}, {"pitch": 65, "velocity": 74, "note_on_time": 14.416, "note_off_time": 15.155}, {"pitch": 65, "velocity": 82, "note_on_time": 18.09, "note_off_time": 19.331}, {"pitch": 64, "velocity": 79, "note_on_time": 19.325, "note_off_time": 20.475}, {"pitch": 67, "velocity": 74, "note_on_time": 20.498, "note_off_time": 21.642}, {"pitch": 62, "velocity": 66, "note_on_time": 21.645, "note_off_time": 22.81}, {"pitch": 67, "velocity": 74, "note_on_time": 22.832, "note_off_time": 23.695}, {"pitch": 67, "velocity": 72, "note_on_time": 24.08, "note_off_time": 25.167}, {"pitch": 64, "velocity": 65, "note_on_time": 25.218, "note_off_time": 26.437}, {"pitch": 65, "velocity": 68, "note_on_time": 26.45, "note_off_time": 27.652}, {"pitch": 64, "velocity": 76, "note_on_time": 27.648, "note_off_time": 28.785}, {"pitch": 67, "velocity": 74, "note_on_time": 28.824, "note_off_time": 30.105}, {"pitch": 64, "velocity": 73, "note_on_time": 30.096, "note_off_time": 31.255}, {"pitch": 67, "velocity": 78, "note_on_time": 31.257, "note_off_time": 32.441}, {"pitch": 60, "velocity": 79, "note_on_time": 32.497, "note_off_time": 33.746}, {"pitch": 64, "velocity": 85, "note_on_time": 33.722, "note_off_time": 34.942}, {"pitch": 67, "velocity": 77, "note_on_time": 34.948, "note_off_time": 36.073}, {"pitch": 60, "velocity": 80, "note_on_time": 36.094, "note_off_time": 37.366}, {"pitch": 65, "velocity": 71, "note_on_time": 37.379, "note_off_time": 38.17}, {"pitch": 65, "velocity": 77, "note_on_time": 39.773, "note_off_time": 40.484}, {"pitch": 65, "velocity": 72, "note_on_time": 40.967, "note_off_time": 41.673}, {"pitch": 65, "velocity": 73, "note_on_time": 42.2, "note_off_time": 42.917}]</notes><guidance name="Guidance Mode">None</guidance><error name="Error value">12.131823529411768</error></trial><trial trial_no="6" timestamp="2022_08_17-19_25_09"><notes name="Played Notes">[{"pitch": 60, "velocity": 79, "note_on_time": 4.782, "note_off_time": 6.031}, {"pitch": 64, "velocity": 76, "note_on_time": 5.992, "note_off_time": 6.821}, {"pitch": 64, "velocity": 75, "note_on_time": 7.175, "note_off_time": 8.403}, {"pitch": 62, "velocity": 69, "note_on_time": 8.401, "note_off_time": 9.173}, {"pitch": 62, "velocity": 75, "note_on_time": 9.591, "note_off_time": 11.386}, {"pitch": 62, "velocity": 67, "note_on_time": 11.978, "note_off_time": 13.138}, {"pitch": 65, "velocity": 70, "note_on_time": 13.128, "note_off_time": 13.925}, {"pitch": 65, "velocity": 70, "note_on_time": 14.302, "note_off_time": 15.48}, {"pitch": 65, "velocity": 76, "note_on_time": 18.02, "note_off_time": 19.235}, {"pitch": 64, "velocity": 74, "note_on_time": 19.227, "note_off_time": 20.353}, {"pitch": 67, "velocity": 63, "note_on_time": 20.407, "note_off_time": 21.577}, {"pitch": 62, "velocity": 62, "note_on_time": 21.59, "note_off_time": 22.797}, {"pitch": 67, "velocity": 74, "note_on_time": 22.805, "note_off_time": 23.565}, {"pitch": 67, "velocity": 70, "note_on_time": 24.069, "note_off_time": 25.259}, {"pitch": 64, "velocity": 69, "note_on_time": 25.258, "note_off_time": 26.417}, {"pitch": 65, "velocity": 67, "note_on_time": 26.494, "note_off_time": 27.753}, {"pitch": 64, "velocity": 71, "note_on_time": 27.764, "note_off_time": 28.902}, {"pitch": 67, "velocity": 71, "note_on_time": 28.933, "note_off_time": 30.091}, {"pitch": 64, "velocity": 74, "note_on_time": 30.081, "note_off_time": 31.23}, {"pitch": 67, "velocity": 71, "note_on_time": 31.234, "note_off_time": 32.485}, {"pitch": 60, "velocity": 75, "note_on_time": 32.497, "note_off_time": 33.67}, {"pitch": 64, "velocity": 70, "note_on_time": 33.637, "note_off_time": 34.909}, {"pitch": 67, "velocity": 72, "note_on_time": 34.931, "note_off_time": 36.092}, {"pitch": 60, "velocity": 74, "note_on_time": 36.105, "note_off_time": 37.384}, {"pitch": 65, "velocity": 91, "note_on_time": 37.378, "note_off_time": 39.677}, {"pitch": 65, "velocity": 74, "note_on_time": 39.844, "note_off_time": 40.799}, {"pitch": 65, "velocity": 71, "note_on_time": 41.023, "note_off_time": 41.997}, {"pitch": 65, "velocity": 82, "note_on_time": 42.247, "note_off_time": 43.236}]</notes><guidance name="Guidance Mode">None</guidance><error name="Error value">12.137470588235296</error></trial></trials></MIDI>