<MIDI midiNo="2022_12_01-11_05_39"><target_notes><notes name="Note List">[{"pitch": 42, "velocity": 80, "note_on_time": 0.004, "note_off_time": 0.22}, {"pitch": 42, "velocity": 80, "note_on_time": 0.22, "note_off_time": 0.438}, {"pitch": 42, "velocity": 80, "note_on_time": 0.438, "note_off_time": 0.654}, {"pitch": 42, "velocity": 80, "note_on_time": 0.654, "note_off_time": 0.873}, {"pitch": 67, "velocity": 80, "note_on_time": 0.873, "note_off_time": 1.092}, {"pitch": 42, "velocity": 80, "note_on_time": 0.873, "note_off_time": 1.092}, {"pitch": 62, "velocity": 80, "note_on_time": 1.092, "note_off_time": 1.311}, {"pitch": 42, "velocity": 80, "note_on_time": 1.092, "note_off_time": 1.311}, {"pitch": 62, "velocity": 80, "note_on_time": 1.311, "note_off_time": 1.529}, {"pitch": 42, "velocity": 80, "note_on_time": 1.311, "note_off_time": 1.529}, {"pitch": 62, "velocity": 80, "note_on_time": 1.529, "note_off_time": 1.748}, {"pitch": 42, "velocity": 80, "note_on_time": 1.529, "note_off_time": 1.748}, {"pitch": 60, "velocity": 80, "note_on_time": 1.748, "note_off_time": 1.968}, {"pitch": 42, "velocity": 80, "note_on_time": 1.748, "note_off_time": 1.968}, {"pitch": 60, "velocity": 80, "note_on_time": 1.968, "note_off_time": 2.185}, {"pitch": 42, "velocity": 80, "note_on_time": 1.968, "note_off_time": 2.185}, {"pitch": 67, "velocity": 80, "note_on_time": 2.185, "note_off_time": 2.403}, {"pitch": 42, "velocity": 80, "note_on_time": 2.185, "note_off_time": 2.403}, {"pitch": 62, "velocity": 80, "note_on_time": 2.403, "note_off_time": 2.62}, {"pitch": 42, "velocity": 80, "note_on_time": 2.403, "note_off_time": 2.62}, {"pitch": 42, "velocity": 80, "note_on_time": 2.62, "note_off_time": 2.84}, {"pitch": 62, "velocity": 80, "note_on_time": 2.62, "note_off_time": 3.056}, {"pitch": 42, "velocity": 80, "note_on_time": 2.84, "note_off_time": 3.056}, {"pitch": 42, "velocity": 80, "note_on_time": 3.056, "note_off_time": 3.277}, {"pitch": 42, "velocity": 80, "note_on_time": 3.277, "note_off_time": 3.492}, {"pitch": 42, "velocity": 80, "note_on_time": 3.492, "note_off_time": 3.712}, {"pitch": 62, "velocity": 80, "note_on_time": 3.492, "note_off_time": 3.928}, {"pitch": 42, "velocity": 80, "note_on_time": 3.712, "note_off_time": 3.928}, {"pitch": 42, "velocity": 80, "note_on_time": 3.928, "note_off_time": 4.147}, {"pitch": 42, "velocity": 80, "note_on_time": 4.147, "note_off_time": 4.365}, {"pitch": 60, "velocity": 80, "note_on_time": 4.365, "note_off_time": 4.583}, {"pitch": 42, "velocity": 80, "note_on_time": 4.365, "note_off_time": 4.583}, {"pitch": 42, "velocity": 80, "note_on_time": 4.583, "note_off_time": 4.802}, {"pitch": 64, "velocity": 80, "note_on_time": 4.583, "note_off_time": 5.021}, {"pitch": 42, "velocity": 80, "note_on_time": 4.802, "note_off_time": 5.021}, {"pitch": 64, "velocity": 80, "note_on_time": 5.021, "note_off_time": 5.237}, {"pitch": 42, "velocity": 80, "note_on_time": 5.021, "note_off_time": 5.237}, {"pitch": 60, "velocity": 80, "note_on_time": 5.237, "note_off_time": 5.456}, {"pitch": 42, "velocity": 80, "note_on_time": 5.237, "note_off_time": 5.456}, {"pitch": 67, "velocity": 80, "note_on_time": 5.456, "note_off_time": 5.674}, {"pitch": 42, "velocity": 80, "note_on_time": 5.456, "note_off_time": 5.674}, {"pitch": 60, "velocity": 80, "note_on_time": 5.674, "note_off_time": 5.892}, {"pitch": 42, "velocity": 80, "note_on_time": 5.674, "note_off_time": 5.892}, {"pitch": 67, "velocity": 80, "note_on_time": 5.892, "note_off_time": 6.111}, {"pitch": 42, "velocity": 80, "note_on_time": 5.892, "note_off_time": 6.111}, {"pitch": 60, "velocity": 80, "note_on_time": 6.111, "note_off_time": 6.33}, {"pitch": 42, "velocity": 80, "note_on_time": 6.111, "note_off_time": 6.33}, {"pitch": 64, "velocity": 80, "note_on_time": 6.33, "note_off_time": 6.547}, {"pitch": 42, "velocity": 80, "note_on_time": 6.331, "note_off_time": 6.547}, {"pitch": 67, "velocity": 80, "note_on_time": 6.547, "note_off_time": 6.764}, {"pitch": 42, "velocity": 80, "note_on_time": 6.547, "note_off_time": 6.764}, {"pitch": 64, "velocity": 80, "note_on_time": 6.764, "note_off_time": 6.98}, {"pitch": 42, "velocity": 80, "note_on_time": 6.764, "note_off_time": 6.98}, {"pitch": 42, "velocity": 80, "note_on_time": 6.98, "note_off_time": 7.197}, {"pitch": 64, "velocity": 80, "note_on_time": 7.197, "note_off_time": 7.414}, {"pitch": 42, "velocity": 80, "note_on_time": 7.197, "note_off_time": 7.414}, {"pitch": 64, "velocity": 80, "note_on_time": 7.414, "note_off_time": 7.632}, {"pitch": 42, "velocity": 80, "note_on_time": 7.415, "note_off_time": 7.632}, {"pitch": 64, "velocity": 80, "note_on_time": 7.632, "note_off_time": 7.85}, {"pitch": 42, "velocity": 80, "note_on_time": 7.632, "note_off_time": 7.85}]</notes><options name="Option List">((4, 4), [0.5, 0.25], 3, 8, &lt;NoteRangePerHand.C_TO_G: 6&gt;, &lt;NoteRangePerHand.ONE_NOTE: 2&gt;, False, True, False, 281)</options></target_notes><trials><trial trial_no="1" timestamp="2022_12_01-11_05_30"><notes name="Played Notes">[{"pitch": 67, "velocity": 66, "note_on_time": 0.856, "note_off_time": 1.11}, {"pitch": 62, "velocity": 61, "note_on_time": 1.074, "note_off_time": 1.173}, {"pitch": 62, "velocity": 64, "note_on_time": 1.308, "note_off_time": 1.378}, {"pitch": 62, "velocity": 75, "note_on_time": 1.519, "note_off_time": 1.613}, {"pitch": 60, "velocity": 77, "note_on_time": 1.732, "note_off_time": 1.809}, {"pitch": 60, "velocity": 70, "note_on_time": 1.963, "note_off_time": 2.282}, {"pitch": 67, "velocity": 66, "note_on_time": 2.184, "note_off_time": 2.462}, {"pitch": 62, "velocity": 69, "note_on_time": 2.402, "note_off_time": 2.514}, {"pitch": 62, "velocity": 61, "note_on_time": 2.622, "note_off_time": 2.88}, {"pitch": 62, "velocity": 73, "note_on_time": 3.514, "note_off_time": 3.888}, {"pitch": 60, "velocity": 65, "note_on_time": 4.378, "note_off_time": 4.653}, {"pitch": 64, "velocity": 71, "note_on_time": 4.616, "note_off_time": 4.957}, {"pitch": 64, "velocity": 70, "note_on_time": 5.069, "note_off_time": 5.263}, {"pitch": 60, "velocity": 69, "note_on_time": 5.282, "note_off_time": 5.509}, {"pitch": 67, "velocity": 74, "note_on_time": 5.5, "note_off_time": 5.735}, {"pitch": 60, "velocity": 75, "note_on_time": 5.732, "note_off_time": 5.967}, {"pitch": 67, "velocity": 81, "note_on_time": 5.953, "note_off_time": 6.2}, {"pitch": 60, "velocity": 75, "note_on_time": 6.185, "note_off_time": 6.426}, {"pitch": 64, "velocity": 70, "note_on_time": 6.412, "note_off_time": 6.661}, {"pitch": 67, "velocity": 73, "note_on_time": 6.642, "note_off_time": 6.911}, {"pitch": 64, "velocity": 75, "note_on_time": 6.867, "note_off_time": 7.181}, {"pitch": 64, "velocity": 76, "note_on_time": 7.339, "note_off_time": 7.419}, {"pitch": 64, "velocity": 66, "note_on_time": 7.563, "note_off_time": 7.636}]</notes><guidance name="Guidance Mode">None</guidance><error name="Error value">0.07247480952380939</error></trial><trial trial_no="2" timestamp="2022_12_01-11_05_48"><notes name="Played Notes">[{"pitch": 67, "velocity": 62, "note_on_time": 0.889, "note_off_time": 1.13}, {"pitch": 62, "velocity": 60, "note_on_time": 1.107, "note_off_time": 1.203}, {"pitch": 62, "velocity": 59, "note_on_time": 1.329, "note_off_time": 1.411}, {"pitch": 62, "velocity": 61, "note_on_time": 1.569, "note_off_time": 1.705}, {"pitch": 60, "velocity": 70, "note_on_time": 1.766, "note_off_time": 1.869}, {"pitch": 60, "velocity": 49, "note_on_time": 2.016, "note_off_time": 2.272}, {"pitch": 67, "velocity": 63, "note_on_time": 2.241, "note_off_time": 2.493}, {"pitch": 62, "velocity": 62, "note_on_time": 2.46, "note_off_time": 2.577}, {"pitch": 62, "velocity": 62, "note_on_time": 2.685, "note_off_time": 2.932}, {"pitch": 62, "velocity": 55, "note_on_time": 3.528, "note_off_time": 3.806}, {"pitch": 60, "velocity": 71, "note_on_time": 4.37, "note_off_time": 4.665}, {"pitch": 64, "velocity": 62, "note_on_time": 4.618, "note_off_time": 4.951}, {"pitch": 64, "velocity": 60, "note_on_time": 5.061, "note_off_time": 5.258}, {"pitch": 60, "velocity": 53, "note_on_time": 5.286, "note_off_time": 5.521}, {"pitch": 67, "velocity": 69, "note_on_time": 5.505, "note_off_time": 5.695}, {"pitch": 60, "velocity": 68, "note_on_time": 5.715, "note_off_time": 5.951}, {"pitch": 67, "velocity": 62, "note_on_time": 5.926, "note_off_time": 6.201}, {"pitch": 60, "velocity": 71, "note_on_time": 6.182, "note_off_time": 6.417}, {"pitch": 64, "velocity": 64, "note_on_time": 6.406, "note_off_time": 6.671}, {"pitch": 67, "velocity": 66, "note_on_time": 6.658, "note_off_time": 6.931}, {"pitch": 64, "velocity": 66, "note_on_time": 6.886, "note_off_time": 7.246}, {"pitch": 64, "velocity": 71, "note_on_time": 7.411, "note_off_time": 7.479}, {"pitch": 64, "velocity": 55, "note_on_time": 7.627, "note_off_time": 7.694}]</notes><guidance name="Guidance Mode">None</guidance><error name="Error value">0.07330404761904752</error></trial><trial trial_no="3" timestamp="2022_12_01-11_06_07"><notes name="Played Notes">[{"pitch": 67, "velocity": 64, "note_on_time": 0.899, "note_off_time": 1.133}, {"pitch": 62, "velocity": 56, "note_on_time": 1.132, "note_off_time": 1.223}, {"pitch": 62, "velocity": 61, "note_on_time": 1.368, "note_off_time": 1.435}, {"pitch": 62, "velocity": 63, "note_on_time": 1.601, "note_off_time": 1.701}, {"pitch": 60, "velocity": 74, "note_on_time": 1.814, "note_off_time": 1.903}, {"pitch": 60, "velocity": 64, "note_on_time": 2.038, "note_off_time": 2.28}, {"pitch": 67, "velocity": 66, "note_on_time": 2.253, "note_off_time": 2.506}, {"pitch": 62, "velocity": 64, "note_on_time": 2.474, "note_off_time": 2.585}, {"pitch": 62, "velocity": 62, "note_on_time": 2.738, "note_off_time": 2.991}, {"pitch": 62, "velocity": 66, "note_on_time": 3.551, "note_off_time": 3.872}, {"pitch": 60, "velocity": 62, "note_on_time": 4.387, "note_off_time": 4.642}, {"pitch": 64, "velocity": 61, "note_on_time": 4.63, "note_off_time": 4.965}, {"pitch": 64, "velocity": 44, "note_on_time": 5.107, "note_off_time": 5.306}, {"pitch": 60, "velocity": 61, "note_on_time": 5.326, "note_off_time": 5.565}, {"pitch": 67, "velocity": 71, "note_on_time": 5.552, "note_off_time": 5.785}, {"pitch": 60, "velocity": 73, "note_on_time": 5.796, "note_off_time": 6.042}, {"pitch": 67, "velocity": 69, "note_on_time": 6.009, "note_off_time": 6.268}, {"pitch": 60, "velocity": 76, "note_on_time": 6.264, "note_off_time": 6.5}, {"pitch": 64, "velocity": 68, "note_on_time": 6.493, "note_off_time": 6.742}, {"pitch": 67, "velocity": 71, "note_on_time": 6.74, "note_off_time": 7.021}, {"pitch": 64, "velocity": 67, "note_on_time": 6.974, "note_off_time": 7.308}, {"pitch": 64, "velocity": 66, "note_on_time": 7.476, "note_off_time": 7.552}, {"pitch": 64, "velocity": 65, "note_on_time": 7.687, "note_off_time": 7.764}]</notes><guidance name="Guidance Mode">None</guidance><error name="Error value">0.07839928571428566</error></trial></trials></MIDI>