<MIDI midiNo="2022_09_29-12_50_30"><target_notes><notes name="Note List">[{"pitch": 42, "velocity": 80, "note_on_time": 0.004, "note_off_time": 0.295}, {"pitch": 42, "velocity": 80, "note_on_time": 0.295, "note_off_time": 0.578}, {"pitch": 42, "velocity": 80, "note_on_time": 0.578, "note_off_time": 0.859}, {"pitch": 42, "velocity": 80, "note_on_time": 0.859, "note_off_time": 1.153}, {"pitch": 62, "velocity": 80, "note_on_time": 1.153, "note_off_time": 1.447}, {"pitch": 42, "velocity": 80, "note_on_time": 1.153, "note_off_time": 1.447}, {"pitch": 42, "velocity": 80, "note_on_time": 1.448, "note_off_time": 1.741}, {"pitch": 62, "velocity": 80, "note_on_time": 1.447, "note_off_time": 2.022}, {"pitch": 42, "velocity": 80, "note_on_time": 1.742, "note_off_time": 2.022}, {"pitch": 62, "velocity": 80, "note_on_time": 2.022, "note_off_time": 2.317}, {"pitch": 42, "velocity": 80, "note_on_time": 2.023, "note_off_time": 2.317}, {"pitch": 60, "velocity": 80, "note_on_time": 2.317, "note_off_time": 2.611}, {"pitch": 42, "velocity": 80, "note_on_time": 2.318, "note_off_time": 2.611}, {"pitch": 60, "velocity": 80, "note_on_time": 2.611, "note_off_time": 2.892}, {"pitch": 42, "velocity": 80, "note_on_time": 2.611, "note_off_time": 2.892}, {"pitch": 62, "velocity": 80, "note_on_time": 2.892, "note_off_time": 3.173}, {"pitch": 42, "velocity": 80, "note_on_time": 2.892, "note_off_time": 3.173}, {"pitch": 62, "velocity": 80, "note_on_time": 3.173, "note_off_time": 3.456}, {"pitch": 42, "velocity": 80, "note_on_time": 3.174, "note_off_time": 3.456}, {"pitch": 60, "velocity": 80, "note_on_time": 3.456, "note_off_time": 3.75}, {"pitch": 42, "velocity": 80, "note_on_time": 3.456, "note_off_time": 3.75}, {"pitch": 42, "velocity": 80, "note_on_time": 3.751, "note_off_time": 4.045}, {"pitch": 60, "velocity": 80, "note_on_time": 3.75, "note_off_time": 4.34}, {"pitch": 42, "velocity": 80, "note_on_time": 4.045, "note_off_time": 4.34}, {"pitch": 64, "velocity": 80, "note_on_time": 4.34, "note_off_time": 4.622}, {"pitch": 42, "velocity": 80, "note_on_time": 4.34, "note_off_time": 4.622}, {"pitch": 42, "velocity": 80, "note_on_time": 4.623, "note_off_time": 4.917}, {"pitch": 62, "velocity": 80, "note_on_time": 4.622, "note_off_time": 5.198}, {"pitch": 42, "velocity": 80, "note_on_time": 4.917, "note_off_time": 5.198}, {"pitch": 42, "velocity": 80, "note_on_time": 5.199, "note_off_time": 5.479}, {"pitch": 62, "velocity": 80, "note_on_time": 5.479, "note_off_time": 5.774}, {"pitch": 42, "velocity": 80, "note_on_time": 5.48, "note_off_time": 5.774}, {"pitch": 60, "velocity": 80, "note_on_time": 5.774, "note_off_time": 6.055}, {"pitch": 42, "velocity": 80, "note_on_time": 5.775, "note_off_time": 6.055}, {"pitch": 64, "velocity": 80, "note_on_time": 6.055, "note_off_time": 6.35}, {"pitch": 42, "velocity": 80, "note_on_time": 6.055, "note_off_time": 6.35}, {"pitch": 42, "velocity": 80, "note_on_time": 6.35, "note_off_time": 6.632}, {"pitch": 42, "velocity": 80, "note_on_time": 6.632, "note_off_time": 6.928}, {"pitch": 64, "velocity": 80, "note_on_time": 6.928, "note_off_time": 7.209}, {"pitch": 42, "velocity": 80, "note_on_time": 6.928, "note_off_time": 7.21}, {"pitch": 64, "velocity": 80, "note_on_time": 7.209, "note_off_time": 7.505}, {"pitch": 42, "velocity": 80, "note_on_time": 7.21, "note_off_time": 7.505}, {"pitch": 64, "velocity": 80, "note_on_time": 7.505, "note_off_time": 7.8}, {"pitch": 42, "velocity": 80, "note_on_time": 7.505, "note_off_time": 7.801}, {"pitch": 62, "velocity": 80, "note_on_time": 7.8, "note_off_time": 8.095}, {"pitch": 42, "velocity": 80, "note_on_time": 7.801, "note_off_time": 8.096}, {"pitch": 60, "velocity": 80, "note_on_time": 8.095, "note_off_time": 8.376}, {"pitch": 42, "velocity": 80, "note_on_time": 8.096, "note_off_time": 8.377}, {"pitch": 64, "velocity": 80, "note_on_time": 8.376, "note_off_time": 8.671}, {"pitch": 42, "velocity": 80, "note_on_time": 8.377, "note_off_time": 8.672}, {"pitch": 62, "velocity": 80, "note_on_time": 8.671, "note_off_time": 8.967}, {"pitch": 42, "velocity": 80, "note_on_time": 8.672, "note_off_time": 8.967}, {"pitch": 62, "velocity": 80, "note_on_time": 8.967, "note_off_time": 9.248}, {"pitch": 42, "velocity": 80, "note_on_time": 8.967, "note_off_time": 9.248}, {"pitch": 42, "velocity": 80, "note_on_time": 9.249, "note_off_time": 9.543}, {"pitch": 62, "velocity": 80, "note_on_time": 9.543, "note_off_time": 9.838}, {"pitch": 42, "velocity": 80, "note_on_time": 9.543, "note_off_time": 9.839}, {"pitch": 62, "velocity": 80, "note_on_time": 9.838, "note_off_time": 10.132}, {"pitch": 42, "velocity": 80, "note_on_time": 9.839, "note_off_time": 10.132}, {"pitch": 62, "velocity": 80, "note_on_time": 10.132, "note_off_time": 10.428}, {"pitch": 42, "velocity": 80, "note_on_time": 10.133, "note_off_time": 10.428}]</notes><options name="Option List">((4, 4), [0.5, 0.25], 3, 8, &lt;NoteRangePerHand.THREE_NOTES: 4&gt;, &lt;NoteRangePerHand.ONE_NOTE: 2&gt;, False, True, False, 215)</options></target_notes><trials><trial trial_no="1" timestamp="2022_09_29-12_50_18"><notes name="Played Notes">[{"pitch": 62, "velocity": 84, "note_on_time": 1.153, "note_off_time": 1.252}, {"pitch": 62, "velocity": 92, "note_on_time": 1.418, "note_off_time": 1.879}, {"pitch": 62, "velocity": 88, "note_on_time": 2.016, "note_off_time": 2.176}, {"pitch": 60, "velocity": 92, "note_on_time": 2.305, "note_off_time": 2.421}, {"pitch": 60, "velocity": 90, "note_on_time": 2.59, "note_off_time": 2.722}, {"pitch": 62, "velocity": 84, "note_on_time": 2.891, "note_off_time": 3.003}, {"pitch": 62, "velocity": 81, "note_on_time": 3.173, "note_off_time": 3.299}, {"pitch": 60, "velocity": 87, "note_on_time": 3.473, "note_off_time": 3.576}, {"pitch": 60, "velocity": 91, "note_on_time": 3.735, "note_off_time": 4.248}, {"pitch": 64, "velocity": 86, "note_on_time": 4.335, "note_off_time": 4.486}, {"pitch": 62, "velocity": 88, "note_on_time": 4.633, "note_off_time": 5.594}, {"pitch": 64, "velocity": 83, "note_on_time": 5.808, "note_off_time": 5.943}, {"pitch": 60, "velocity": 78, "note_on_time": 6.192, "note_off_time": 6.298}, {"pitch": 64, "velocity": 84, "note_on_time": 6.4, "note_off_time": 6.555}, {"pitch": 64, "velocity": 79, "note_on_time": 7.177, "note_off_time": 7.296}, {"pitch": 64, "velocity": 91, "note_on_time": 7.475, "note_off_time": 7.596}, {"pitch": 64, "velocity": 86, "note_on_time": 7.763, "note_off_time": 7.926}, {"pitch": 62, "velocity": 87, "note_on_time": 8.095, "note_off_time": 8.264}, {"pitch": 60, "velocity": 87, "note_on_time": 8.368, "note_off_time": 8.573}, {"pitch": 64, "velocity": 75, "note_on_time": 8.679, "note_off_time": 8.938}, {"pitch": 62, "velocity": 74, "note_on_time": 8.965, "note_off_time": 9.114}, {"pitch": 62, "velocity": 73, "note_on_time": 9.24, "note_off_time": 9.888}, {"pitch": 62, "velocity": 90, "note_on_time": 10.117, "note_off_time": 10.236}]</notes><guidance name="Guidance Mode">None</guidance><error name="Error value">0.20251722727272742</error></trial></trials></MIDI>