<MIDI midiNo="2022_12_01-12_43_03"><target_notes><notes name="Note List">[{"pitch": 42, "velocity": 80, "note_on_time": 0.004, "note_off_time": 0.61}, {"pitch": 42, "velocity": 80, "note_on_time": 0.61, "note_off_time": 1.216}, {"pitch": 42, "velocity": 80, "note_on_time": 1.216, "note_off_time": 1.822}, {"pitch": 42, "velocity": 80, "note_on_time": 1.823, "note_off_time": 2.431}, {"pitch": 60, "velocity": 80, "note_on_time": 2.431, "note_off_time": 3.035}, {"pitch": 42, "velocity": 80, "note_on_time": 2.431, "note_off_time": 3.036}, {"pitch": 64, "velocity": 80, "note_on_time": 3.035, "note_off_time": 3.641}, {"pitch": 42, "velocity": 80, "note_on_time": 3.036, "note_off_time": 3.641}, {"pitch": 60, "velocity": 80, "note_on_time": 3.641, "note_off_time": 4.251}, {"pitch": 42, "velocity": 80, "note_on_time": 3.642, "note_off_time": 4.251}, {"pitch": 42, "velocity": 80, "note_on_time": 4.251, "note_off_time": 4.859}, {"pitch": 64, "velocity": 80, "note_on_time": 4.859, "note_off_time": 5.467}, {"pitch": 42, "velocity": 80, "note_on_time": 4.859, "note_off_time": 5.467}, {"pitch": 64, "velocity": 80, "note_on_time": 5.467, "note_off_time": 6.073}, {"pitch": 42, "velocity": 80, "note_on_time": 5.467, "note_off_time": 6.073}, {"pitch": 42, "velocity": 80, "note_on_time": 6.074, "note_off_time": 6.678}, {"pitch": 62, "velocity": 80, "note_on_time": 6.073, "note_off_time": 7.286}, {"pitch": 42, "velocity": 80, "note_on_time": 6.679, "note_off_time": 7.286}, {"pitch": 64, "velocity": 80, "note_on_time": 7.286, "note_off_time": 7.892}, {"pitch": 42, "velocity": 80, "note_on_time": 7.286, "note_off_time": 7.893}, {"pitch": 62, "velocity": 80, "note_on_time": 7.892, "note_off_time": 8.5}, {"pitch": 42, "velocity": 80, "note_on_time": 7.893, "note_off_time": 8.5}, {"pitch": 64, "velocity": 80, "note_on_time": 8.5, "note_off_time": 9.112}, {"pitch": 42, "velocity": 80, "note_on_time": 8.5, "note_off_time": 9.112}, {"pitch": 64, "velocity": 80, "note_on_time": 9.112, "note_off_time": 9.716}, {"pitch": 42, "velocity": 80, "note_on_time": 9.112, "note_off_time": 9.716}, {"pitch": 42, "velocity": 80, "note_on_time": 9.717, "note_off_time": 10.323}, {"pitch": 60, "velocity": 80, "note_on_time": 9.716, "note_off_time": 10.931}, {"pitch": 42, "velocity": 80, "note_on_time": 10.323, "note_off_time": 10.932}, {"pitch": 42, "velocity": 80, "note_on_time": 10.932, "note_off_time": 11.537}, {"pitch": 64, "velocity": 80, "note_on_time": 10.931, "note_off_time": 12.142}, {"pitch": 42, "velocity": 80, "note_on_time": 11.537, "note_off_time": 12.143}, {"pitch": 64, "velocity": 80, "note_on_time": 12.142, "note_off_time": 12.748}, {"pitch": 42, "velocity": 80, "note_on_time": 12.143, "note_off_time": 12.749}, {"pitch": 64, "velocity": 80, "note_on_time": 12.748, "note_off_time": 13.357}, {"pitch": 42, "velocity": 80, "note_on_time": 12.749, "note_off_time": 13.357}, {"pitch": 60, "velocity": 80, "note_on_time": 13.357, "note_off_time": 13.964}, {"pitch": 42, "velocity": 80, "note_on_time": 13.358, "note_off_time": 13.964}, {"pitch": 62, "velocity": 80, "note_on_time": 13.964, "note_off_time": 14.571}, {"pitch": 42, "velocity": 80, "note_on_time": 13.964, "note_off_time": 14.572}, {"pitch": 60, "velocity": 80, "note_on_time": 14.571, "note_off_time": 15.179}, {"pitch": 42, "velocity": 80, "note_on_time": 14.572, "note_off_time": 15.179}, {"pitch": 42, "velocity": 80, "note_on_time": 15.179, "note_off_time": 15.784}, {"pitch": 62, "velocity": 80, "note_on_time": 15.179, "note_off_time": 16.393}, {"pitch": 42, "velocity": 80, "note_on_time": 15.785, "note_off_time": 16.393}, {"pitch": 64, "velocity": 80, "note_on_time": 16.393, "note_off_time": 16.996}, {"pitch": 42, "velocity": 80, "note_on_time": 16.393, "note_off_time": 16.996}, {"pitch": 64, "velocity": 80, "note_on_time": 16.996, "note_off_time": 17.604}, {"pitch": 42, "velocity": 80, "note_on_time": 16.996, "note_off_time": 17.604}, {"pitch": 60, "velocity": 80, "note_on_time": 17.604, "note_off_time": 18.213}, {"pitch": 42, "velocity": 80, "note_on_time": 17.605, "note_off_time": 18.214}, {"pitch": 64, "velocity": 80, "note_on_time": 18.213, "note_off_time": 18.82}, {"pitch": 42, "velocity": 80, "note_on_time": 18.214, "note_off_time": 18.82}, {"pitch": 64, "velocity": 80, "note_on_time": 18.82, "note_off_time": 19.425}, {"pitch": 42, "velocity": 80, "note_on_time": 18.82, "note_off_time": 19.425}, {"pitch": 42, "velocity": 80, "note_on_time": 19.425, "note_off_time": 20.031}, {"pitch": 64, "velocity": 80, "note_on_time": 20.031, "note_off_time": 20.638}, {"pitch": 42, "velocity": 80, "note_on_time": 20.031, "note_off_time": 20.639}, {"pitch": 64, "velocity": 80, "note_on_time": 20.638, "note_off_time": 21.244}, {"pitch": 42, "velocity": 80, "note_on_time": 20.639, "note_off_time": 21.245}, {"pitch": 64, "velocity": 80, "note_on_time": 21.244, "note_off_time": 21.85}, {"pitch": 42, "velocity": 80, "note_on_time": 21.245, "note_off_time": 21.85}]</notes><options name="Option List">((4, 4), [0.5, 0.25], 3, 8, &lt;NoteRangePerHand.THREE_NOTES: 4&gt;, &lt;NoteRangePerHand.ONE_NOTE: 2&gt;, False, True, False, '100')</options></target_notes><trials><trial trial_no="1" timestamp="2022_12_01-12_42_39"><notes name="Played Notes">[{"pitch": 60, "velocity": 65, "note_on_time": 2.428, "note_off_time": 2.935}, {"pitch": 64, "velocity": 70, "note_on_time": 3.072, "note_off_time": 3.529}, {"pitch": 60, "velocity": 74, "note_on_time": 3.631, "note_off_time": 4.252}, {"pitch": 64, "velocity": 72, "note_on_time": 4.798, "note_off_time": 5.09}, {"pitch": 64, "velocity": 68, "note_on_time": 5.376, "note_off_time": 5.745}, {"pitch": 62, "velocity": 69, "note_on_time": 5.964, "note_off_time": 6.95}, {"pitch": 64, "velocity": 73, "note_on_time": 7.303, "note_off_time": 7.716}, {"pitch": 62, "velocity": 75, "note_on_time": 7.899, "note_off_time": 8.297}, {"pitch": 64, "velocity": 76, "note_on_time": 8.454, "note_off_time": 8.73}, {"pitch": 64, "velocity": 76, "note_on_time": 9.048, "note_off_time": 9.341}, {"pitch": 60, "velocity": 79, "note_on_time": 9.641, "note_off_time": 10.533}, {"pitch": 64, "velocity": 76, "note_on_time": 10.843, "note_off_time": 11.746}, {"pitch": 64, "velocity": 81, "note_on_time": 12.062, "note_off_time": 12.307}, {"pitch": 64, "velocity": 75, "note_on_time": 12.598, "note_off_time": 12.961}, {"pitch": 60, "velocity": 66, "note_on_time": 13.168, "note_off_time": 13.529}, {"pitch": 62, "velocity": 75, "note_on_time": 13.763, "note_off_time": 14.102}, {"pitch": 60, "velocity": 73, "note_on_time": 14.29, "note_off_time": 14.596}, {"pitch": 62, "velocity": 69, "note_on_time": 14.87, "note_off_time": 15.842}, {"pitch": 64, "velocity": 76, "note_on_time": 15.994, "note_off_time": 16.438}, {"pitch": 64, "velocity": 73, "note_on_time": 16.856, "note_off_time": 17.183}, {"pitch": 60, "velocity": 82, "note_on_time": 17.467, "note_off_time": 17.767}, {"pitch": 64, "velocity": 75, "note_on_time": 18.002, "note_off_time": 18.203}, {"pitch": 64, "velocity": 74, "note_on_time": 18.641, "note_off_time": 18.885}, {"pitch": 64, "velocity": 76, "note_on_time": 19.833, "note_off_time": 20.139}, {"pitch": 64, "velocity": 74, "note_on_time": 20.473, "note_off_time": 20.775}, {"pitch": 64, "velocity": 67, "note_on_time": 21.083, "note_off_time": 21.719}]</notes><guidance name="Guidance Mode">None</guidance><error name="Error value">0.04682608695652137</error></trial><trial trial_no="2" timestamp="2022_12_01-12_43_11"><notes name="Played Notes">[{"pitch": 60, "velocity": 84, "note_on_time": 2.352, "note_off_time": 2.773}, {"pitch": 64, "velocity": 72, "note_on_time": 2.939, "note_off_time": 3.358}, {"pitch": 60, "velocity": 76, "note_on_time": 3.543, "note_off_time": 4.115}, {"pitch": 64, "velocity": 76, "note_on_time": 4.841, "note_off_time": 5.108}, {"pitch": 64, "velocity": 68, "note_on_time": 5.422, "note_off_time": 5.77}, {"pitch": 62, "velocity": 73, "note_on_time": 5.967, "note_off_time": 6.852}, {"pitch": 64, "velocity": 73, "note_on_time": 7.281, "note_off_time": 7.662}, {"pitch": 62, "velocity": 72, "note_on_time": 7.849, "note_off_time": 8.244}, {"pitch": 64, "velocity": 77, "note_on_time": 8.436, "note_off_time": 8.675}, {"pitch": 64, "velocity": 69, "note_on_time": 9.015, "note_off_time": 9.305}, {"pitch": 60, "velocity": 69, "note_on_time": 9.585, "note_off_time": 10.433}, {"pitch": 64, "velocity": 77, "note_on_time": 10.854, "note_off_time": 11.738}, {"pitch": 64, "velocity": 75, "note_on_time": 12.098, "note_off_time": 12.376}, {"pitch": 64, "velocity": 70, "note_on_time": 12.735, "note_off_time": 13.056}, {"pitch": 60, "velocity": 82, "note_on_time": 13.35, "note_off_time": 13.657}, {"pitch": 62, "velocity": 69, "note_on_time": 13.927, "note_off_time": 14.285}, {"pitch": 64, "velocity": 72, "note_on_time": 14.518, "note_off_time": 14.949}, {"pitch": 62, "velocity": 76, "note_on_time": 15.655, "note_off_time": 16.016}, {"pitch": 64, "velocity": 71, "note_on_time": 16.184, "note_off_time": 16.733}, {"pitch": 64, "velocity": 81, "note_on_time": 17.216, "note_off_time": 17.511}, {"pitch": 60, "velocity": 76, "note_on_time": 17.75, "note_off_time": 18.012}, {"pitch": 64, "velocity": 78, "note_on_time": 18.296, "note_off_time": 18.505}, {"pitch": 64, "velocity": 73, "note_on_time": 18.858, "note_off_time": 19.035}, {"pitch": 64, "velocity": 76, "note_on_time": 20.01, "note_off_time": 20.253}, {"pitch": 64, "velocity": 71, "note_on_time": 20.572, "note_off_time": 20.816}, {"pitch": 64, "velocity": 73, "note_on_time": 21.106, "note_off_time": 21.75}]</notes><guidance name="Guidance Mode">None</guidance><error name="Error value">0.15417391304347838</error></trial><trial trial_no="3" timestamp="2022_12_01-12_43_47"><notes name="Played Notes">[{"pitch": 60, "velocity": 70, "note_on_time": 2.393, "note_off_time": 2.82}, {"pitch": 64, "velocity": 77, "note_on_time": 2.963, "note_off_time": 3.322}, {"pitch": 60, "velocity": 74, "note_on_time": 3.584, "note_off_time": 4.277}, {"pitch": 64, "velocity": 71, "note_on_time": 4.884, "note_off_time": 5.114}, {"pitch": 64, "velocity": 64, "note_on_time": 5.503, "note_off_time": 5.759}, {"pitch": 62, "velocity": 69, "note_on_time": 6.074, "note_off_time": 6.967}, {"pitch": 64, "velocity": 71, "note_on_time": 7.262, "note_off_time": 7.668}, {"pitch": 62, "velocity": 72, "note_on_time": 7.867, "note_off_time": 8.258}, {"pitch": 64, "velocity": 76, "note_on_time": 8.457, "note_off_time": 8.665}, {"pitch": 64, "velocity": 68, "note_on_time": 9.058, "note_off_time": 9.408}, {"pitch": 60, "velocity": 68, "note_on_time": 9.616, "note_off_time": 10.52}, {"pitch": 64, "velocity": 71, "note_on_time": 10.913, "note_off_time": 12.008}, {"pitch": 64, "velocity": 72, "note_on_time": 12.338, "note_off_time": 12.831}, {"pitch": 64, "velocity": 74, "note_on_time": 13.401, "note_off_time": 13.771}, {"pitch": 60, "velocity": 82, "note_on_time": 14.015, "note_off_time": 14.368}, {"pitch": 62, "velocity": 69, "note_on_time": 14.626, "note_off_time": 15.027}, {"pitch": 60, "velocity": 77, "note_on_time": 15.208, "note_off_time": 15.947}, {"pitch": 62, "velocity": 72, "note_on_time": 16.178, "note_off_time": 16.583}, {"pitch": 64, "velocity": 68, "note_on_time": 17.374, "note_off_time": 17.917}, {"pitch": 64, "velocity": 73, "note_on_time": 18.416, "note_off_time": 18.729}, {"pitch": 60, "velocity": 79, "note_on_time": 18.89, "note_off_time": 19.214}, {"pitch": 64, "velocity": 74, "note_on_time": 19.404, "note_off_time": 19.647}, {"pitch": 64, "velocity": 70, "note_on_time": 19.975, "note_off_time": 20.499}, {"pitch": 64, "velocity": 78, "note_on_time": 21.362, "note_off_time": 21.658}]</notes><guidance name="Guidance Mode">None</guidance><error name="Error value">0.2657391304347829</error></trial></trials></MIDI>