<MIDI midiNo="2022_12_08-10_40_03"><target_notes><notes name="Note List">[{"pitch": 42, "velocity": 80, "note_on_time": 0.004, "note_off_time": 0.193}, {"pitch": 42, "velocity": 80, "note_on_time": 0.194, "note_off_time": 0.381}, {"pitch": 42, "velocity": 80, "note_on_time": 0.381, "note_off_time": 0.585}, {"pitch": 42, "velocity": 80, "note_on_time": 0.585, "note_off_time": 0.786}, {"pitch": 67, "velocity": 80, "note_on_time": 0.786, "note_off_time": 0.987}, {"pitch": 42, "velocity": 80, "note_on_time": 0.786, "note_off_time": 0.987}, {"pitch": 65, "velocity": 80, "note_on_time": 0.987, "note_off_time": 1.189}, {"pitch": 42, "velocity": 80, "note_on_time": 0.987, "note_off_time": 1.189}, {"pitch": 60, "velocity": 80, "note_on_time": 1.189, "note_off_time": 1.39}, {"pitch": 42, "velocity": 80, "note_on_time": 1.189, "note_off_time": 1.39}, {"pitch": 65, "velocity": 80, "note_on_time": 1.39, "note_off_time": 1.593}, {"pitch": 42, "velocity": 80, "note_on_time": 1.39, "note_off_time": 1.593}, {"pitch": 62, "velocity": 80, "note_on_time": 1.593, "note_off_time": 1.782}, {"pitch": 42, "velocity": 80, "note_on_time": 1.593, "note_off_time": 1.782}, {"pitch": 67, "velocity": 80, "note_on_time": 1.782, "note_off_time": 1.97}, {"pitch": 42, "velocity": 80, "note_on_time": 1.782, "note_off_time": 1.97}, {"pitch": 62, "velocity": 80, "note_on_time": 1.97, "note_off_time": 2.172}, {"pitch": 42, "velocity": 80, "note_on_time": 1.97, "note_off_time": 2.172}, {"pitch": 60, "velocity": 80, "note_on_time": 2.172, "note_off_time": 2.374}, {"pitch": 42, "velocity": 80, "note_on_time": 2.172, "note_off_time": 2.374}, {"pitch": 64, "velocity": 80, "note_on_time": 2.374, "note_off_time": 2.575}, {"pitch": 42, "velocity": 80, "note_on_time": 2.375, "note_off_time": 2.576}, {"pitch": 42, "velocity": 80, "note_on_time": 2.576, "note_off_time": 2.764}, {"pitch": 64, "velocity": 80, "note_on_time": 2.575, "note_off_time": 2.965}, {"pitch": 42, "velocity": 80, "note_on_time": 2.764, "note_off_time": 2.965}, {"pitch": 42, "velocity": 80, "note_on_time": 2.966, "note_off_time": 3.169}, {"pitch": 67, "velocity": 80, "note_on_time": 3.168, "note_off_time": 3.37}, {"pitch": 42, "velocity": 80, "note_on_time": 3.169, "note_off_time": 3.37}, {"pitch": 65, "velocity": 80, "note_on_time": 3.37, "note_off_time": 3.558}, {"pitch": 42, "velocity": 80, "note_on_time": 3.371, "note_off_time": 3.559}, {"pitch": 62, "velocity": 80, "note_on_time": 3.558, "note_off_time": 3.747}, {"pitch": 42, "velocity": 80, "note_on_time": 3.559, "note_off_time": 3.747}, {"pitch": 65, "velocity": 80, "note_on_time": 3.747, "note_off_time": 3.949}, {"pitch": 42, "velocity": 80, "note_on_time": 3.747, "note_off_time": 3.95}, {"pitch": 60, "velocity": 80, "note_on_time": 3.949, "note_off_time": 4.152}, {"pitch": 42, "velocity": 80, "note_on_time": 3.95, "note_off_time": 4.152}, {"pitch": 42, "velocity": 80, "note_on_time": 4.152, "note_off_time": 4.354}, {"pitch": 64, "velocity": 80, "note_on_time": 4.152, "note_off_time": 4.556}, {"pitch": 42, "velocity": 80, "note_on_time": 4.354, "note_off_time": 4.556}, {"pitch": 42, "velocity": 80, "note_on_time": 4.556, "note_off_time": 4.745}, {"pitch": 60, "velocity": 80, "note_on_time": 4.745, "note_off_time": 4.933}, {"pitch": 42, "velocity": 80, "note_on_time": 4.745, "note_off_time": 4.933}, {"pitch": 62, "velocity": 80, "note_on_time": 4.933, "note_off_time": 5.136}, {"pitch": 42, "velocity": 80, "note_on_time": 4.934, "note_off_time": 5.136}, {"pitch": 64, "velocity": 80, "note_on_time": 5.136, "note_off_time": 5.338}, {"pitch": 42, "velocity": 80, "note_on_time": 5.136, "note_off_time": 5.338}, {"pitch": 62, "velocity": 80, "note_on_time": 5.338, "note_off_time": 5.541}, {"pitch": 42, "velocity": 80, "note_on_time": 5.338, "note_off_time": 5.541}, {"pitch": 60, "velocity": 80, "note_on_time": 5.541, "note_off_time": 5.73}, {"pitch": 42, "velocity": 80, "note_on_time": 5.542, "note_off_time": 5.73}, {"pitch": 64, "velocity": 80, "note_on_time": 5.73, "note_off_time": 5.917}, {"pitch": 42, "velocity": 80, "note_on_time": 5.73, "note_off_time": 5.917}, {"pitch": 64, "velocity": 80, "note_on_time": 5.917, "note_off_time": 6.105}, {"pitch": 42, "velocity": 80, "note_on_time": 5.917, "note_off_time": 6.106}, {"pitch": 65, "velocity": 80, "note_on_time": 6.105, "note_off_time": 6.293}, {"pitch": 42, "velocity": 80, "note_on_time": 6.106, "note_off_time": 6.293}, {"pitch": 42, "velocity": 80, "note_on_time": 6.293, "note_off_time": 6.495}, {"pitch": 65, "velocity": 80, "note_on_time": 6.495, "note_off_time": 6.696}, {"pitch": 42, "velocity": 80, "note_on_time": 6.495, "note_off_time": 6.696}, {"pitch": 65, "velocity": 80, "note_on_time": 6.696, "note_off_time": 6.885}, {"pitch": 42, "velocity": 80, "note_on_time": 6.697, "note_off_time": 6.885}, {"pitch": 65, "velocity": 80, "note_on_time": 6.885, "note_off_time": 7.087}, {"pitch": 42, "velocity": 80, "note_on_time": 6.885, "note_off_time": 7.087}]</notes><options name="Option List">((4, 4), [0.5, 0.25], 3, 8, &lt;NoteRangePerHand.C_TO_G: 6&gt;, &lt;NoteRangePerHand.ONE_NOTE: 2&gt;, False, True, False, '322')</options></target_notes><trials><trial trial_no="1" timestamp="2022_12_08-10_39_54"><notes name="Played Notes">[{"pitch": 67, "velocity": 81, "note_on_time": 0.794, "note_off_time": 1.0}, {"pitch": 65, "velocity": 61, "note_on_time": 1.002, "note_off_time": 1.214}, {"pitch": 60, "velocity": 73, "note_on_time": 1.198, "note_off_time": 1.378}, {"pitch": 65, "velocity": 62, "note_on_time": 1.39, "note_off_time": 1.599}, {"pitch": 62, "velocity": 64, "note_on_time": 1.591, "note_off_time": 1.767}, {"pitch": 65, "velocity": 75, "note_on_time": 1.785, "note_off_time": 2.017}, {"pitch": 62, "velocity": 56, "note_on_time": 1.97, "note_off_time": 2.188}, {"pitch": 60, "velocity": 72, "note_on_time": 2.18, "note_off_time": 2.371}, {"pitch": 62, "velocity": 73, "note_on_time": 2.38, "note_off_time": 2.518}, {"pitch": 64, "velocity": 70, "note_on_time": 2.521, "note_off_time": 2.648}, {"pitch": 64, "velocity": 65, "note_on_time": 3.21, "note_off_time": 3.282}, {"pitch": 67, "velocity": 64, "note_on_time": 3.395, "note_off_time": 3.617}, {"pitch": 64, "velocity": 71, "note_on_time": 3.575, "note_off_time": 3.846}, {"pitch": 62, "velocity": 68, "note_on_time": 3.811, "note_off_time": 4.036}, {"pitch": 60, "velocity": 68, "note_on_time": 4.042, "note_off_time": 4.229}, {"pitch": 64, "velocity": 70, "note_on_time": 4.229, "note_off_time": 4.544}, {"pitch": 60, "velocity": 74, "note_on_time": 4.794, "note_off_time": 4.902}, {"pitch": 62, "velocity": 81, "note_on_time": 5.02, "note_off_time": 5.247}, {"pitch": 64, "velocity": 72, "note_on_time": 5.222, "note_off_time": 5.494}, {"pitch": 62, "velocity": 79, "note_on_time": 5.463, "note_off_time": 5.675}, {"pitch": 60, "velocity": 79, "note_on_time": 5.676, "note_off_time": 5.824}, {"pitch": 64, "velocity": 69, "note_on_time": 5.836, "note_off_time": 6.037}, {"pitch": 65, "velocity": 65, "note_on_time": 6.062, "note_off_time": 6.167}, {"pitch": 65, "velocity": 53, "note_on_time": 6.255, "note_off_time": 6.664}, {"pitch": 65, "velocity": 70, "note_on_time": 6.928, "note_off_time": 7.024}]</notes><guidance name="Guidance Mode">None</guidance><error name="Error value">0.3998879166666667</error></trial><trial trial_no="2" timestamp="2022_12_08-10_40_10"><notes name="Played Notes">[{"pitch": 67, "velocity": 78, "note_on_time": 0.814, "note_off_time": 1.003}, {"pitch": 65, "velocity": 61, "note_on_time": 1.0, "note_off_time": 1.239}, {"pitch": 60, "velocity": 82, "note_on_time": 1.226, "note_off_time": 1.401}, {"pitch": 65, "velocity": 72, "note_on_time": 1.416, "note_off_time": 1.612}, {"pitch": 62, "velocity": 72, "note_on_time": 1.601, "note_off_time": 1.784}, {"pitch": 65, "velocity": 78, "note_on_time": 1.793, "note_off_time": 2.02}, {"pitch": 62, "velocity": 53, "note_on_time": 1.991, "note_off_time": 2.211}, {"pitch": 60, "velocity": 78, "note_on_time": 2.197, "note_off_time": 2.39}, {"pitch": 64, "velocity": 88, "note_on_time": 2.399, "note_off_time": 2.514}, {"pitch": 64, "velocity": 93, "note_on_time": 2.591, "note_off_time": 2.89}, {"pitch": 67, "velocity": 66, "note_on_time": 3.154, "note_off_time": 3.408}, {"pitch": 64, "velocity": 39, "note_on_time": 3.362, "note_off_time": 3.419}, {"pitch": 65, "velocity": 69, "note_on_time": 3.395, "note_off_time": 3.7}, {"pitch": 62, "velocity": 61, "note_on_time": 3.66, "note_off_time": 3.822}, {"pitch": 65, "velocity": 62, "note_on_time": 3.82, "note_off_time": 4.018}, {"pitch": 60, "velocity": 66, "note_on_time": 4.081, "note_off_time": 4.259}, {"pitch": 64, "velocity": 79, "note_on_time": 4.261, "note_off_time": 4.565}, {"pitch": 60, "velocity": 58, "note_on_time": 4.866, "note_off_time": 5.062}, {"pitch": 62, "velocity": 70, "note_on_time": 5.06, "note_off_time": 5.271}, {"pitch": 64, "velocity": 66, "note_on_time": 5.261, "note_off_time": 5.521}, {"pitch": 62, "velocity": 76, "note_on_time": 5.496, "note_off_time": 5.707}, {"pitch": 60, "velocity": 70, "note_on_time": 5.7, "note_off_time": 5.878}, {"pitch": 64, "velocity": 77, "note_on_time": 5.888, "note_off_time": 5.992}, {"pitch": 64, "velocity": 44, "note_on_time": 6.119, "note_off_time": 6.313}, {"pitch": 65, "velocity": 74, "note_on_time": 6.324, "note_off_time": 6.493}, {"pitch": 65, "velocity": 82, "note_on_time": 6.762, "note_off_time": 6.878}, {"pitch": 65, "velocity": 57, "note_on_time": 6.946, "note_off_time": 7.034}]</notes><guidance name="Guidance Mode">None</guidance><error name="Error value">0.682984791666667</error></trial><trial trial_no="3" timestamp="2022_12_08-10_40_28"><notes name="Played Notes">[{"pitch": 67, "velocity": 78, "note_on_time": 0.812, "note_off_time": 1.015}, {"pitch": 65, "velocity": 75, "note_on_time": 1.01, "note_off_time": 1.24}, {"pitch": 60, "velocity": 79, "note_on_time": 1.203, "note_off_time": 1.394}, {"pitch": 65, "velocity": 73, "note_on_time": 1.399, "note_off_time": 1.625}, {"pitch": 62, "velocity": 69, "note_on_time": 1.614, "note_off_time": 1.816}, {"pitch": 67, "velocity": 80, "note_on_time": 1.81, "note_off_time": 2.015}, {"pitch": 62, "velocity": 75, "note_on_time": 1.99, "note_off_time": 2.205}, {"pitch": 60, "velocity": 83, "note_on_time": 2.198, "note_off_time": 2.348}, {"pitch": 64, "velocity": 72, "note_on_time": 2.385, "note_off_time": 2.523}, {"pitch": 64, "velocity": 88, "note_on_time": 2.597, "note_off_time": 2.822}, {"pitch": 67, "velocity": 78, "note_on_time": 3.199, "note_off_time": 3.415}, {"pitch": 65, "velocity": 67, "note_on_time": 3.387, "note_off_time": 3.65}, {"pitch": 62, "velocity": 47, "note_on_time": 3.632, "note_off_time": 3.817}, {"pitch": 65, "velocity": 76, "note_on_time": 3.831, "note_off_time": 4.043}, {"pitch": 60, "velocity": 81, "note_on_time": 4.036, "note_off_time": 4.199}, {"pitch": 64, "velocity": 74, "note_on_time": 4.207, "note_off_time": 4.566}, {"pitch": 60, "velocity": 69, "note_on_time": 4.774, "note_off_time": 4.932}, {"pitch": 62, "velocity": 62, "note_on_time": 4.96, "note_off_time": 5.168}, {"pitch": 64, "velocity": 74, "note_on_time": 5.163, "note_off_time": 5.397}, {"pitch": 62, "velocity": 78, "note_on_time": 5.378, "note_off_time": 5.572}, {"pitch": 60, "velocity": 85, "note_on_time": 5.57, "note_off_time": 5.744}, {"pitch": 64, "velocity": 78, "note_on_time": 5.753, "note_off_time": 5.864}, {"pitch": 64, "velocity": 73, "note_on_time": 5.973, "note_off_time": 6.167}, {"pitch": 65, "velocity": 86, "note_on_time": 6.178, "note_off_time": 6.435}, {"pitch": 65, "velocity": 81, "note_on_time": 6.63, "note_off_time": 6.74}, {"pitch": 65, "velocity": 70, "note_on_time": 6.828, "note_off_time": 6.906}, {"pitch": 65, "velocity": 82, "note_on_time": 6.993, "note_off_time": 7.129}]</notes><guidance name="Guidance Mode">None</guidance><error name="Error value">0.020748541666666717</error></trial><trial trial_no="4" timestamp="2022_12_08-10_40_47"><notes name="Played Notes">[{"pitch": 67, "velocity": 73, "note_on_time": 0.808, "note_off_time": 1.051}, {"pitch": 65, "velocity": 70, "note_on_time": 1.018, "note_off_time": 1.24}, {"pitch": 60, "velocity": 71, "note_on_time": 1.21, "note_off_time": 1.404}, {"pitch": 65, "velocity": 76, "note_on_time": 1.411, "note_off_time": 1.622}, {"pitch": 62, "velocity": 69, "note_on_time": 1.613, "note_off_time": 1.809}, {"pitch": 67, "velocity": 82, "note_on_time": 1.807, "note_off_time": 2.027}, {"pitch": 62, "velocity": 72, "note_on_time": 1.999, "note_off_time": 2.36}, {"pitch": 64, "velocity": 60, "note_on_time": 2.36, "note_off_time": 2.463}, {"pitch": 64, "velocity": 61, "note_on_time": 2.568, "note_off_time": 2.929}, {"pitch": 67, "velocity": 70, "note_on_time": 3.198, "note_off_time": 3.509}, {"pitch": 62, "velocity": 33, "note_on_time": 3.448, "note_off_time": 3.614}, {"pitch": 60, "velocity": 77, "note_on_time": 3.711, "note_off_time": 3.866}, {"pitch": 62, "velocity": 71, "note_on_time": 3.912, "note_off_time": 4.097}, {"pitch": 60, "velocity": 65, "note_on_time": 4.168, "note_off_time": 4.342}, {"pitch": 64, "velocity": 58, "note_on_time": 4.325, "note_off_time": 4.713}, {"pitch": 60, "velocity": 67, "note_on_time": 4.961, "note_off_time": 5.132}, {"pitch": 62, "velocity": 72, "note_on_time": 5.145, "note_off_time": 5.379}, {"pitch": 64, "velocity": 77, "note_on_time": 5.384, "note_off_time": 5.601}, {"pitch": 62, "velocity": 70, "note_on_time": 5.577, "note_off_time": 5.788}, {"pitch": 60, "velocity": 81, "note_on_time": 5.784, "note_off_time": 5.975}, {"pitch": 64, "velocity": 69, "note_on_time": 5.981, "note_off_time": 6.077}, {"pitch": 64, "velocity": 79, "note_on_time": 6.198, "note_off_time": 6.373}, {"pitch": 65, "velocity": 82, "note_on_time": 6.39, "note_off_time": 6.672}, {"pitch": 65, "velocity": 78, "note_on_time": 6.846, "note_off_time": 6.927}, {"pitch": 65, "velocity": 78, "note_on_time": 7.018, "note_off_time": 7.099}]</notes><guidance name="Guidance Mode">None</guidance><error name="Error value">0.25054041666666677</error></trial><trial trial_no="5" timestamp="2022_12_08-10_41_04"><notes name="Played Notes">[{"pitch": 67, "velocity": 77, "note_on_time": 0.807, "note_off_time": 1.034}, {"pitch": 65, "velocity": 71, "note_on_time": 1.032, "note_off_time": 1.264}, {"pitch": 60, "velocity": 78, "note_on_time": 1.231, "note_off_time": 1.41}, {"pitch": 65, "velocity": 69, "note_on_time": 1.418, "note_off_time": 1.65}, {"pitch": 62, "velocity": 70, "note_on_time": 1.623, "note_off_time": 1.808}, {"pitch": 67, "velocity": 80, "note_on_time": 1.806, "note_off_time": 2.054}, {"pitch": 62, "velocity": 64, "note_on_time": 2.005, "note_off_time": 2.223}, {"pitch": 60, "velocity": 79, "note_on_time": 2.208, "note_off_time": 2.403}, {"pitch": 64, "velocity": 81, "note_on_time": 2.406, "note_off_time": 2.521}, {"pitch": 64, "velocity": 94, "note_on_time": 2.594, "note_off_time": 2.802}, {"pitch": 67, "velocity": 82, "note_on_time": 3.155, "note_off_time": 3.368}, {"pitch": 65, "velocity": 74, "note_on_time": 3.337, "note_off_time": 3.581}, {"pitch": 62, "velocity": 63, "note_on_time": 3.554, "note_off_time": 3.75}, {"pitch": 65, "velocity": 78, "note_on_time": 3.761, "note_off_time": 3.985}, {"pitch": 60, "velocity": 88, "note_on_time": 3.995, "note_off_time": 4.155}, {"pitch": 64, "velocity": 70, "note_on_time": 4.172, "note_off_time": 4.498}, {"pitch": 60, "velocity": 61, "note_on_time": 4.72, "note_off_time": 4.901}, {"pitch": 62, "velocity": 71, "note_on_time": 4.926, "note_off_time": 5.147}, {"pitch": 64, "velocity": 68, "note_on_time": 5.156, "note_off_time": 5.399}, {"pitch": 62, "velocity": 61, "note_on_time": 5.379, "note_off_time": 5.559}, {"pitch": 60, "velocity": 72, "note_on_time": 5.571, "note_off_time": 5.769}, {"pitch": 64, "velocity": 69, "note_on_time": 5.772, "note_off_time": 5.868}, {"pitch": 64, "velocity": 70, "note_on_time": 5.976, "note_off_time": 6.15}, {"pitch": 65, "velocity": 79, "note_on_time": 6.167, "note_off_time": 6.442}, {"pitch": 65, "velocity": 74, "note_on_time": 6.619, "note_off_time": 6.734}, {"pitch": 65, "velocity": 62, "note_on_time": 6.82, "note_off_time": 6.902}, {"pitch": 65, "velocity": 80, "note_on_time": 6.994, "note_off_time": 7.138}]</notes><guidance name="Guidance Mode">None</guidance><error name="Error value">0.02047104166666679</error></trial></trials></MIDI>