<MIDI midiNo="2022_12_01-11_03_11"><target_notes><notes name="Note List">[{"pitch": 42, "velocity": 80, "note_on_time": 0.004, "note_off_time": 0.22}, {"pitch": 42, "velocity": 80, "note_on_time": 0.22, "note_off_time": 0.438}, {"pitch": 42, "velocity": 80, "note_on_time": 0.438, "note_off_time": 0.656}, {"pitch": 42, "velocity": 80, "note_on_time": 0.656, "note_off_time": 0.874}, {"pitch": 67, "velocity": 80, "note_on_time": 0.874, "note_off_time": 1.092}, {"pitch": 42, "velocity": 80, "note_on_time": 0.874, "note_off_time": 1.092}, {"pitch": 62, "velocity": 80, "note_on_time": 1.092, "note_off_time": 1.31}, {"pitch": 42, "velocity": 80, "note_on_time": 1.092, "note_off_time": 1.31}, {"pitch": 67, "velocity": 80, "note_on_time": 1.31, "note_off_time": 1.525}, {"pitch": 42, "velocity": 80, "note_on_time": 1.31, "note_off_time": 1.525}, {"pitch": 60, "velocity": 80, "note_on_time": 1.525, "note_off_time": 1.742}, {"pitch": 42, "velocity": 80, "note_on_time": 1.525, "note_off_time": 1.742}, {"pitch": 60, "velocity": 80, "note_on_time": 1.742, "note_off_time": 1.958}, {"pitch": 42, "velocity": 80, "note_on_time": 1.742, "note_off_time": 1.958}, {"pitch": 42, "velocity": 80, "note_on_time": 1.958, "note_off_time": 2.176}, {"pitch": 65, "velocity": 80, "note_on_time": 1.958, "note_off_time": 2.395}, {"pitch": 42, "velocity": 80, "note_on_time": 2.177, "note_off_time": 2.395}, {"pitch": 62, "velocity": 80, "note_on_time": 2.395, "note_off_time": 2.612}, {"pitch": 42, "velocity": 80, "note_on_time": 2.395, "note_off_time": 2.612}, {"pitch": 67, "velocity": 80, "note_on_time": 2.612, "note_off_time": 2.83}, {"pitch": 42, "velocity": 80, "note_on_time": 2.612, "note_off_time": 2.83}, {"pitch": 65, "velocity": 80, "note_on_time": 2.83, "note_off_time": 3.048}, {"pitch": 42, "velocity": 80, "note_on_time": 2.83, "note_off_time": 3.048}, {"pitch": 67, "velocity": 80, "note_on_time": 3.048, "note_off_time": 3.264}, {"pitch": 42, "velocity": 80, "note_on_time": 3.048, "note_off_time": 3.264}, {"pitch": 65, "velocity": 80, "note_on_time": 3.264, "note_off_time": 3.481}, {"pitch": 42, "velocity": 80, "note_on_time": 3.264, "note_off_time": 3.481}, {"pitch": 67, "velocity": 80, "note_on_time": 3.481, "note_off_time": 3.7}, {"pitch": 42, "velocity": 80, "note_on_time": 3.481, "note_off_time": 3.7}, {"pitch": 42, "velocity": 80, "note_on_time": 3.7, "note_off_time": 3.918}, {"pitch": 60, "velocity": 80, "note_on_time": 3.7, "note_off_time": 4.135}, {"pitch": 42, "velocity": 80, "note_on_time": 3.918, "note_off_time": 4.135}, {"pitch": 62, "velocity": 80, "note_on_time": 4.135, "note_off_time": 4.353}, {"pitch": 42, "velocity": 80, "note_on_time": 4.135, "note_off_time": 4.353}, {"pitch": 64, "velocity": 80, "note_on_time": 4.353, "note_off_time": 4.572}, {"pitch": 42, "velocity": 80, "note_on_time": 4.353, "note_off_time": 4.572}, {"pitch": 42, "velocity": 80, "note_on_time": 4.572, "note_off_time": 4.79}, {"pitch": 64, "velocity": 80, "note_on_time": 4.572, "note_off_time": 5.007}, {"pitch": 42, "velocity": 80, "note_on_time": 4.79, "note_off_time": 5.007}, {"pitch": 42, "velocity": 80, "note_on_time": 5.007, "note_off_time": 5.227}, {"pitch": 67, "velocity": 80, "note_on_time": 5.227, "note_off_time": 5.444}, {"pitch": 42, "velocity": 80, "note_on_time": 5.227, "note_off_time": 5.444}, {"pitch": 65, "velocity": 80, "note_on_time": 5.444, "note_off_time": 5.663}, {"pitch": 42, "velocity": 80, "note_on_time": 5.444, "note_off_time": 5.663}, {"pitch": 64, "velocity": 80, "note_on_time": 5.663, "note_off_time": 5.882}, {"pitch": 42, "velocity": 80, "note_on_time": 5.663, "note_off_time": 5.882}, {"pitch": 60, "velocity": 80, "note_on_time": 5.882, "note_off_time": 6.099}, {"pitch": 42, "velocity": 80, "note_on_time": 5.883, "note_off_time": 6.099}, {"pitch": 67, "velocity": 80, "note_on_time": 6.099, "note_off_time": 6.317}, {"pitch": 42, "velocity": 80, "note_on_time": 6.099, "note_off_time": 6.317}, {"pitch": 64, "velocity": 80, "note_on_time": 6.317, "note_off_time": 6.535}, {"pitch": 42, "velocity": 80, "note_on_time": 6.317, "note_off_time": 6.535}, {"pitch": 62, "velocity": 80, "note_on_time": 6.535, "note_off_time": 6.752}, {"pitch": 42, "velocity": 80, "note_on_time": 6.535, "note_off_time": 6.752}, {"pitch": 42, "velocity": 80, "note_on_time": 6.752, "note_off_time": 6.97}, {"pitch": 42, "velocity": 80, "note_on_time": 6.97, "note_off_time": 7.188}, {"pitch": 62, "velocity": 80, "note_on_time": 7.188, "note_off_time": 7.406}, {"pitch": 42, "velocity": 80, "note_on_time": 7.188, "note_off_time": 7.406}, {"pitch": 62, "velocity": 80, "note_on_time": 7.406, "note_off_time": 7.623}, {"pitch": 42, "velocity": 80, "note_on_time": 7.406, "note_off_time": 7.623}, {"pitch": 62, "velocity": 80, "note_on_time": 7.623, "note_off_time": 7.842}, {"pitch": 42, "velocity": 80, "note_on_time": 7.623, "note_off_time": 7.842}]</notes><options name="Option List">((4, 4), [0.5, 0.25], 3, 8, &lt;NoteRangePerHand.C_TO_G: 6&gt;, &lt;NoteRangePerHand.ONE_NOTE: 2&gt;, False, True, False, 281)</options></target_notes><trials><trial trial_no="1" timestamp="2022_12_01-11_03_01"><notes name="Played Notes">[{"pitch": 67, "velocity": 55, "note_on_time": 0.901, "note_off_time": 1.137}, {"pitch": 62, "velocity": 57, "note_on_time": 1.136, "note_off_time": 1.38}, {"pitch": 67, "velocity": 68, "note_on_time": 1.341, "note_off_time": 1.558}, {"pitch": 60, "velocity": 68, "note_on_time": 1.54, "note_off_time": 1.641}, {"pitch": 60, "velocity": 70, "note_on_time": 1.787, "note_off_time": 2.025}, {"pitch": 65, "velocity": 71, "note_on_time": 2.006, "note_off_time": 2.473}, {"pitch": 62, "velocity": 73, "note_on_time": 2.453, "note_off_time": 2.703}, {"pitch": 67, "velocity": 71, "note_on_time": 2.671, "note_off_time": 2.916}, {"pitch": 65, "velocity": 66, "note_on_time": 2.876, "note_off_time": 3.13}, {"pitch": 67, "velocity": 66, "note_on_time": 3.13, "note_off_time": 3.375}, {"pitch": 65, "velocity": 73, "note_on_time": 3.335, "note_off_time": 3.552}, {"pitch": 67, "velocity": 71, "note_on_time": 3.555, "note_off_time": 3.78}, {"pitch": 60, "velocity": 73, "note_on_time": 3.788, "note_off_time": 4.225}, {"pitch": 62, "velocity": 62, "note_on_time": 4.213, "note_off_time": 4.49}, {"pitch": 64, "velocity": 65, "note_on_time": 4.465, "note_off_time": 4.551}, {"pitch": 64, "velocity": 67, "note_on_time": 4.693, "note_off_time": 4.931}, {"pitch": 67, "velocity": 70, "note_on_time": 5.464, "note_off_time": 5.735}, {"pitch": 65, "velocity": 72, "note_on_time": 5.674, "note_off_time": 5.922}, {"pitch": 64, "velocity": 62, "note_on_time": 5.874, "note_off_time": 6.094}, {"pitch": 60, "velocity": 72, "note_on_time": 6.1, "note_off_time": 6.338}, {"pitch": 67, "velocity": 67, "note_on_time": 6.326, "note_off_time": 6.576}, {"pitch": 64, "velocity": 67, "note_on_time": 6.524, "note_off_time": 6.82}, {"pitch": 62, "velocity": 72, "note_on_time": 6.787, "note_off_time": 6.971}, {"pitch": 62, "velocity": 65, "note_on_time": 7.428, "note_off_time": 7.492}, {"pitch": 62, "velocity": 67, "note_on_time": 7.622, "note_off_time": 7.698}]</notes><guidance name="Guidance Mode">None</guidance><error name="Error value">0.07466491304347823</error></trial><trial trial_no="2" timestamp="2022_12_01-11_03_22"><notes name="Played Notes">[{"pitch": 67, "velocity": 58, "note_on_time": 0.894, "note_off_time": 1.112}, {"pitch": 62, "velocity": 56, "note_on_time": 1.108, "note_off_time": 1.373}, {"pitch": 67, "velocity": 61, "note_on_time": 1.323, "note_off_time": 1.541}, {"pitch": 60, "velocity": 61, "note_on_time": 1.525, "note_off_time": 1.619}, {"pitch": 60, "velocity": 68, "note_on_time": 1.756, "note_off_time": 2.003}, {"pitch": 65, "velocity": 70, "note_on_time": 1.99, "note_off_time": 2.481}, {"pitch": 62, "velocity": 59, "note_on_time": 2.439, "note_off_time": 2.686}, {"pitch": 67, "velocity": 63, "note_on_time": 2.649, "note_off_time": 2.904}, {"pitch": 65, "velocity": 72, "note_on_time": 2.864, "note_off_time": 3.089}, {"pitch": 67, "velocity": 69, "note_on_time": 3.083, "note_off_time": 3.366}, {"pitch": 65, "velocity": 69, "note_on_time": 3.319, "note_off_time": 3.53}, {"pitch": 67, "velocity": 69, "note_on_time": 3.534, "note_off_time": 3.77}, {"pitch": 60, "velocity": 68, "note_on_time": 3.767, "note_off_time": 4.203}, {"pitch": 62, "velocity": 66, "note_on_time": 4.196, "note_off_time": 4.452}, {"pitch": 64, "velocity": 68, "note_on_time": 4.409, "note_off_time": 4.539}, {"pitch": 64, "velocity": 64, "note_on_time": 4.651, "note_off_time": 4.799}, {"pitch": 67, "velocity": 61, "note_on_time": 5.304, "note_off_time": 5.583}, {"pitch": 65, "velocity": 60, "note_on_time": 5.506, "note_off_time": 5.742}, {"pitch": 64, "velocity": 61, "note_on_time": 5.704, "note_off_time": 5.939}, {"pitch": 60, "velocity": 67, "note_on_time": 5.942, "note_off_time": 6.184}, {"pitch": 67, "velocity": 65, "note_on_time": 6.165, "note_off_time": 6.425}, {"pitch": 64, "velocity": 62, "note_on_time": 6.371, "note_off_time": 6.688}, {"pitch": 62, "velocity": 62, "note_on_time": 6.626, "note_off_time": 6.91}, {"pitch": 62, "velocity": 68, "note_on_time": 7.26, "note_off_time": 7.324}, {"pitch": 62, "velocity": 72, "note_on_time": 7.439, "note_off_time": 7.513}, {"pitch": 62, "velocity": 74, "note_on_time": 7.652, "note_off_time": 7.754}]</notes><guidance name="Guidance Mode">None</guidance><error name="Error value">0.014012739130434887</error></trial></trials></MIDI>