<MIDI midiNo="2022_12_22-12_07_28"><target_notes><notes name="Note List">[{"pitch": 42, "velocity": 80, "note_on_time": 0.004, "note_off_time": 0.612}, {"pitch": 42, "velocity": 80, "note_on_time": 0.613, "note_off_time": 1.218}, {"pitch": 42, "velocity": 80, "note_on_time": 1.218, "note_off_time": 1.823}, {"pitch": 42, "velocity": 80, "note_on_time": 1.823, "note_off_time": 2.429}, {"pitch": 62, "velocity": 80, "note_on_time": 2.429, "note_off_time": 3.036}, {"pitch": 42, "velocity": 80, "note_on_time": 2.429, "note_off_time": 3.036}, {"pitch": 60, "velocity": 80, "note_on_time": 3.036, "note_off_time": 3.642}, {"pitch": 42, "velocity": 80, "note_on_time": 3.037, "note_off_time": 3.643}, {"pitch": 62, "velocity": 80, "note_on_time": 3.642, "note_off_time": 4.249}, {"pitch": 42, "velocity": 80, "note_on_time": 3.643, "note_off_time": 4.25}, {"pitch": 62, "velocity": 80, "note_on_time": 4.249, "note_off_time": 4.859}, {"pitch": 42, "velocity": 80, "note_on_time": 4.25, "note_off_time": 4.86}, {"pitch": 62, "velocity": 80, "note_on_time": 4.859, "note_off_time": 5.464}, {"pitch": 42, "velocity": 80, "note_on_time": 4.86, "note_off_time": 5.464}, {"pitch": 42, "velocity": 80, "note_on_time": 5.464, "note_off_time": 6.071}, {"pitch": 42, "velocity": 80, "note_on_time": 6.072, "note_off_time": 6.679}, {"pitch": 60, "velocity": 80, "note_on_time": 6.679, "note_off_time": 7.285}, {"pitch": 42, "velocity": 80, "note_on_time": 6.679, "note_off_time": 7.285}, {"pitch": 62, "velocity": 80, "note_on_time": 7.285, "note_off_time": 7.896}, {"pitch": 42, "velocity": 80, "note_on_time": 7.286, "note_off_time": 7.896}, {"pitch": 60, "velocity": 80, "note_on_time": 7.896, "note_off_time": 8.502}, {"pitch": 42, "velocity": 80, "note_on_time": 7.896, "note_off_time": 8.502}, {"pitch": 62, "velocity": 80, "note_on_time": 8.502, "note_off_time": 9.109}, {"pitch": 42, "velocity": 80, "note_on_time": 8.502, "note_off_time": 9.109}, {"pitch": 62, "velocity": 80, "note_on_time": 9.109, "note_off_time": 9.714}, {"pitch": 42, "velocity": 80, "note_on_time": 9.11, "note_off_time": 9.714}, {"pitch": 42, "velocity": 80, "note_on_time": 9.715, "note_off_time": 10.326}, {"pitch": 60, "velocity": 80, "note_on_time": 9.714, "note_off_time": 10.935}, {"pitch": 42, "velocity": 80, "note_on_time": 10.326, "note_off_time": 10.935}, {"pitch": 42, "velocity": 80, "note_on_time": 10.935, "note_off_time": 11.541}, {"pitch": 42, "velocity": 80, "note_on_time": 11.542, "note_off_time": 12.15}, {"pitch": 62, "velocity": 80, "note_on_time": 12.149, "note_off_time": 12.756}, {"pitch": 42, "velocity": 80, "note_on_time": 12.15, "note_off_time": 12.756}, {"pitch": 42, "velocity": 80, "note_on_time": 12.756, "note_off_time": 13.365}, {"pitch": 60, "velocity": 80, "note_on_time": 12.756, "note_off_time": 13.973}, {"pitch": 42, "velocity": 80, "note_on_time": 13.365, "note_off_time": 13.974}, {"pitch": 60, "velocity": 80, "note_on_time": 13.973, "note_off_time": 14.582}, {"pitch": 42, "velocity": 80, "note_on_time": 13.974, "note_off_time": 14.582}, {"pitch": 62, "velocity": 80, "note_on_time": 14.582, "note_off_time": 15.184}, {"pitch": 42, "velocity": 80, "note_on_time": 14.583, "note_off_time": 15.184}, {"pitch": 60, "velocity": 80, "note_on_time": 15.184, "note_off_time": 15.792}, {"pitch": 42, "velocity": 80, "note_on_time": 15.185, "note_off_time": 15.792}, {"pitch": 60, "velocity": 80, "note_on_time": 15.792, "note_off_time": 16.402}, {"pitch": 42, "velocity": 80, "note_on_time": 15.792, "note_off_time": 16.403}, {"pitch": 62, "velocity": 80, "note_on_time": 16.402, "note_off_time": 17.011}, {"pitch": 42, "velocity": 80, "note_on_time": 16.403, "note_off_time": 17.011}, {"pitch": 60, "velocity": 80, "note_on_time": 17.011, "note_off_time": 17.619}, {"pitch": 42, "velocity": 80, "note_on_time": 17.011, "note_off_time": 17.619}, {"pitch": 60, "velocity": 80, "note_on_time": 17.619, "note_off_time": 18.224}, {"pitch": 42, "velocity": 80, "note_on_time": 17.619, "note_off_time": 18.224}, {"pitch": 60, "velocity": 80, "note_on_time": 18.224, "note_off_time": 18.837}, {"pitch": 42, "velocity": 80, "note_on_time": 18.224, "note_off_time": 18.837}, {"pitch": 60, "velocity": 80, "note_on_time": 18.837, "note_off_time": 19.441}, {"pitch": 42, "velocity": 80, "note_on_time": 18.837, "note_off_time": 19.441}, {"pitch": 42, "velocity": 80, "note_on_time": 19.442, "note_off_time": 20.047}, {"pitch": 60, "velocity": 80, "note_on_time": 20.046, "note_off_time": 20.655}, {"pitch": 42, "velocity": 80, "note_on_time": 20.047, "note_off_time": 20.656}, {"pitch": 60, "velocity": 80, "note_on_time": 20.655, "note_off_time": 21.263}, {"pitch": 42, "velocity": 80, "note_on_time": 20.656, "note_off_time": 21.264}, {"pitch": 60, "velocity": 80, "note_on_time": 21.263, "note_off_time": 21.87}, {"pitch": 42, "velocity": 80, "note_on_time": 21.264, "note_off_time": 21.87}]</notes><options name="Option List">((4, 4), [0.5, 0.25], 3, 8, &lt;NoteRangePerHand.TWO_NOTES: 3&gt;, &lt;NoteRangePerHand.ONE_NOTE: 2&gt;, False, True, True, 100)</options></target_notes><trials><trial trial_no="1" timestamp="2022_12_22-12_07_04"><notes name="Played Notes">[{"pitch": 62, "velocity": 31, "note_on_time": 2.451, "note_off_time": 2.874}, {"pitch": 60, "velocity": 67, "note_on_time": 3.032, "note_off_time": 3.564}, {"pitch": 62, "velocity": 64, "note_on_time": 3.663, "note_off_time": 3.888}, {"pitch": 62, "velocity": 63, "note_on_time": 4.207, "note_off_time": 4.515}, {"pitch": 62, "velocity": 76, "note_on_time": 4.827, "note_off_time": 5.077}, {"pitch": 60, "velocity": 71, "note_on_time": 6.598, "note_off_time": 6.957}, {"pitch": 62, "velocity": 66, "note_on_time": 7.25, "note_off_time": 7.746}, {"pitch": 60, "velocity": 69, "note_on_time": 7.85, "note_off_time": 8.492}, {"pitch": 62, "velocity": 64, "note_on_time": 8.504, "note_off_time": 8.75}, {"pitch": 62, "velocity": 71, "note_on_time": 9.065, "note_off_time": 9.386}, {"pitch": 60, "velocity": 77, "note_on_time": 9.694, "note_off_time": 10.739}, {"pitch": 62, "velocity": 59, "note_on_time": 12.155, "note_off_time": 12.53}, {"pitch": 60, "velocity": 66, "note_on_time": 12.728, "note_off_time": 13.582}, {"pitch": 60, "velocity": 66, "note_on_time": 13.93, "note_off_time": 14.321}, {"pitch": 62, "velocity": 63, "note_on_time": 14.547, "note_off_time": 15.066}, {"pitch": 60, "velocity": 61, "note_on_time": 15.129, "note_off_time": 15.504}, {"pitch": 60, "velocity": 71, "note_on_time": 15.75, "note_off_time": 16.396}, {"pitch": 62, "velocity": 65, "note_on_time": 16.402, "note_off_time": 16.828}, {"pitch": 60, "velocity": 69, "note_on_time": 16.963, "note_off_time": 17.295}, {"pitch": 60, "velocity": 75, "note_on_time": 17.587, "note_off_time": 17.842}, {"pitch": 60, "velocity": 71, "note_on_time": 18.185, "note_off_time": 18.488}, {"pitch": 60, "velocity": 79, "note_on_time": 18.79, "note_off_time": 19.1}, {"pitch": 60, "velocity": 67, "note_on_time": 20.026, "note_off_time": 20.294}, {"pitch": 60, "velocity": 67, "note_on_time": 20.613, "note_off_time": 20.918}, {"pitch": 60, "velocity": 74, "note_on_time": 21.182, "note_off_time": 21.574}]</notes><guidance name="Guidance Mode">None</guidance><error name="Error value">0.030772727272727576</error></trial></trials></MIDI>