<MIDI midiNo="2022_11_23-17_04_41"><target_notes><notes name="Note List">[{"pitch": 42, "velocity": 80, "note_on_time": 0.004, "note_off_time": 0.176}, {"pitch": 42, "velocity": 80, "note_on_time": 0.176, "note_off_time": 0.348}, {"pitch": 42, "velocity": 80, "note_on_time": 0.348, "note_off_time": 0.517}, {"pitch": 42, "velocity": 80, "note_on_time": 0.518, "note_off_time": 0.689}, {"pitch": 65, "velocity": 80, "note_on_time": 0.689, "note_off_time": 0.86}, {"pitch": 42, "velocity": 80, "note_on_time": 0.689, "note_off_time": 0.86}, {"pitch": 67, "velocity": 80, "note_on_time": 0.86, "note_off_time": 1.032}, {"pitch": 42, "velocity": 80, "note_on_time": 0.861, "note_off_time": 1.033}, {"pitch": 42, "velocity": 80, "note_on_time": 1.033, "note_off_time": 1.205}, {"pitch": 62, "velocity": 80, "note_on_time": 1.032, "note_off_time": 1.374}, {"pitch": 42, "velocity": 80, "note_on_time": 1.205, "note_off_time": 1.374}, {"pitch": 67, "velocity": 80, "note_on_time": 1.374, "note_off_time": 1.546}, {"pitch": 42, "velocity": 80, "note_on_time": 1.375, "note_off_time": 1.546}, {"pitch": 64, "velocity": 80, "note_on_time": 1.546, "note_off_time": 1.716}, {"pitch": 42, "velocity": 80, "note_on_time": 1.547, "note_off_time": 1.717}, {"pitch": 64, "velocity": 80, "note_on_time": 1.716, "note_off_time": 1.887}, {"pitch": 42, "velocity": 80, "note_on_time": 1.717, "note_off_time": 1.887}, {"pitch": 62, "velocity": 80, "note_on_time": 1.887, "note_off_time": 2.058}, {"pitch": 42, "velocity": 80, "note_on_time": 1.887, "note_off_time": 2.059}, {"pitch": 42, "velocity": 80, "note_on_time": 2.059, "note_off_time": 2.228}, {"pitch": 65, "velocity": 80, "note_on_time": 2.058, "note_off_time": 2.398}, {"pitch": 42, "velocity": 80, "note_on_time": 2.228, "note_off_time": 2.399}, {"pitch": 42, "velocity": 80, "note_on_time": 2.399, "note_off_time": 2.568}, {"pitch": 42, "velocity": 80, "note_on_time": 2.569, "note_off_time": 2.738}, {"pitch": 64, "velocity": 80, "note_on_time": 2.738, "note_off_time": 2.91}, {"pitch": 42, "velocity": 80, "note_on_time": 2.738, "note_off_time": 2.91}, {"pitch": 65, "velocity": 80, "note_on_time": 2.91, "note_off_time": 3.082}, {"pitch": 42, "velocity": 80, "note_on_time": 2.91, "note_off_time": 3.082}, {"pitch": 67, "velocity": 80, "note_on_time": 3.082, "note_off_time": 3.251}, {"pitch": 42, "velocity": 80, "note_on_time": 3.083, "note_off_time": 3.251}, {"pitch": 67, "velocity": 80, "note_on_time": 3.251, "note_off_time": 3.42}, {"pitch": 42, "velocity": 80, "note_on_time": 3.251, "note_off_time": 3.421}, {"pitch": 62, "velocity": 80, "note_on_time": 3.42, "note_off_time": 3.592}, {"pitch": 42, "velocity": 80, "note_on_time": 3.421, "note_off_time": 3.592}, {"pitch": 42, "velocity": 80, "note_on_time": 3.593, "note_off_time": 3.762}, {"pitch": 60, "velocity": 80, "note_on_time": 3.592, "note_off_time": 3.934}, {"pitch": 42, "velocity": 80, "note_on_time": 3.763, "note_off_time": 3.934}, {"pitch": 42, "velocity": 80, "note_on_time": 3.934, "note_off_time": 4.105}, {"pitch": 67, "velocity": 80, "note_on_time": 4.105, "note_off_time": 4.276}, {"pitch": 42, "velocity": 80, "note_on_time": 4.105, "note_off_time": 4.276}, {"pitch": 62, "velocity": 80, "note_on_time": 4.276, "note_off_time": 4.446}, {"pitch": 42, "velocity": 80, "note_on_time": 4.277, "note_off_time": 4.446}, {"pitch": 60, "velocity": 80, "note_on_time": 4.446, "note_off_time": 4.617}, {"pitch": 42, "velocity": 80, "note_on_time": 4.446, "note_off_time": 4.618}, {"pitch": 65, "velocity": 80, "note_on_time": 4.617, "note_off_time": 4.787}, {"pitch": 42, "velocity": 80, "note_on_time": 4.618, "note_off_time": 4.787}, {"pitch": 42, "velocity": 80, "note_on_time": 4.787, "note_off_time": 4.956}, {"pitch": 60, "velocity": 80, "note_on_time": 4.787, "note_off_time": 5.126}, {"pitch": 42, "velocity": 80, "note_on_time": 4.957, "note_off_time": 5.127}, {"pitch": 67, "velocity": 80, "note_on_time": 5.126, "note_off_time": 5.298}, {"pitch": 42, "velocity": 80, "note_on_time": 5.127, "note_off_time": 5.298}, {"pitch": 42, "velocity": 80, "note_on_time": 5.298, "note_off_time": 5.469}, {"pitch": 42, "velocity": 80, "note_on_time": 5.469, "note_off_time": 5.639}, {"pitch": 67, "velocity": 80, "note_on_time": 5.639, "note_off_time": 5.81}, {"pitch": 42, "velocity": 80, "note_on_time": 5.64, "note_off_time": 5.811}, {"pitch": 67, "velocity": 80, "note_on_time": 5.81, "note_off_time": 5.983}, {"pitch": 42, "velocity": 80, "note_on_time": 5.811, "note_off_time": 5.983}, {"pitch": 67, "velocity": 80, "note_on_time": 5.983, "note_off_time": 6.152}, {"pitch": 42, "velocity": 80, "note_on_time": 5.983, "note_off_time": 6.152}]</notes><options name="Option List">((4, 4), [0.5, 0.25], 3, 8, &lt;NoteRangePerHand.C_TO_G: 6&gt;, &lt;NoteRangePerHand.ONE_NOTE: 2&gt;, False, True, True, '365')</options></target_notes><trials><trial trial_no="1" timestamp="2022_11_23-17_04_34"><notes name="Played Notes">[{"pitch": 65, "velocity": 96, "note_on_time": 0.76, "note_off_time": 0.942}, {"pitch": 67, "velocity": 74, "note_on_time": 0.931, "note_off_time": 1.151}, {"pitch": 62, "velocity": 80, "note_on_time": 1.135, "note_off_time": 1.304}, {"pitch": 67, "velocity": 79, "note_on_time": 1.481, "note_off_time": 1.687}, {"pitch": 64, "velocity": 79, "note_on_time": 1.672, "note_off_time": 1.75}, {"pitch": 64, "velocity": 78, "note_on_time": 1.837, "note_off_time": 1.981}, {"pitch": 62, "velocity": 78, "note_on_time": 2.027, "note_off_time": 2.128}, {"pitch": 65, "velocity": 92, "note_on_time": 2.221, "note_off_time": 2.433}, {"pitch": 64, "velocity": 92, "note_on_time": 2.612, "note_off_time": 2.776}, {"pitch": 65, "velocity": 78, "note_on_time": 2.765, "note_off_time": 2.958}, {"pitch": 67, "velocity": 73, "note_on_time": 2.966, "note_off_time": 3.142}, {"pitch": 67, "velocity": 83, "note_on_time": 3.357, "note_off_time": 3.539}, {"pitch": 62, "velocity": 80, "note_on_time": 3.72, "note_off_time": 3.873}, {"pitch": 60, "velocity": 84, "note_on_time": 4.08, "note_off_time": 4.274}, {"pitch": 67, "velocity": 82, "note_on_time": 4.856, "note_off_time": 5.045}, {"pitch": 62, "velocity": 82, "note_on_time": 5.044, "note_off_time": 5.18}, {"pitch": 60, "velocity": 84, "note_on_time": 5.228, "note_off_time": 5.348}, {"pitch": 65, "velocity": 82, "note_on_time": 5.417, "note_off_time": 5.554}, {"pitch": 60, "velocity": 89, "note_on_time": 5.6, "note_off_time": 5.721}, {"pitch": 67, "velocity": 90, "note_on_time": 5.951, "note_off_time": 6.115}]</notes><guidance name="Guidance Mode">None</guidance><error name="Error value">0.52809255</error></trial><trial trial_no="2" timestamp="2022_11_23-17_04_50"><notes name="Played Notes">[{"pitch": 65, "velocity": 94, "note_on_time": 0.763, "note_off_time": 0.946}, {"pitch": 67, "velocity": 75, "note_on_time": 0.941, "note_off_time": 1.149}, {"pitch": 62, "velocity": 85, "note_on_time": 1.135, "note_off_time": 1.276}, {"pitch": 67, "velocity": 84, "note_on_time": 1.464, "note_off_time": 1.663}, {"pitch": 64, "velocity": 77, "note_on_time": 1.654, "note_off_time": 1.719}, {"pitch": 64, "velocity": 72, "note_on_time": 1.823, "note_off_time": 1.936}, {"pitch": 62, "velocity": 82, "note_on_time": 1.998, "note_off_time": 2.081}, {"pitch": 65, "velocity": 95, "note_on_time": 2.186, "note_off_time": 2.385}, {"pitch": 64, "velocity": 90, "note_on_time": 2.624, "note_off_time": 2.791}, {"pitch": 65, "velocity": 80, "note_on_time": 2.788, "note_off_time": 2.979}, {"pitch": 67, "velocity": 80, "note_on_time": 2.981, "note_off_time": 3.084}, {"pitch": 67, "velocity": 86, "note_on_time": 3.155, "note_off_time": 3.256}, {"pitch": 64, "velocity": 88, "note_on_time": 3.356, "note_off_time": 3.489}, {"pitch": 62, "velocity": 84, "note_on_time": 3.72, "note_off_time": 3.87}, {"pitch": 67, "velocity": 90, "note_on_time": 4.37, "note_off_time": 4.6}, {"pitch": 62, "velocity": 80, "note_on_time": 4.754, "note_off_time": 4.9}, {"pitch": 60, "velocity": 79, "note_on_time": 5.094, "note_off_time": 5.23}, {"pitch": 65, "velocity": 87, "note_on_time": 5.418, "note_off_time": 5.56}, {"pitch": 60, "velocity": 86, "note_on_time": 5.781, "note_off_time": 5.911}, {"pitch": 60, "velocity": 25, "note_on_time": 6.053, "note_off_time": 6.106}]</notes><guidance name="Guidance Mode">None</guidance><error name="Error value">0.5367085</error></trial><trial trial_no="3" timestamp="2022_11_23-17_05_11"><notes name="Played Notes">[{"pitch": 65, "velocity": 90, "note_on_time": 0.771, "note_off_time": 0.925}, {"pitch": 67, "velocity": 70, "note_on_time": 0.913, "note_off_time": 1.173}, {"pitch": 62, "velocity": 84, "note_on_time": 1.146, "note_off_time": 1.308}, {"pitch": 67, "velocity": 80, "note_on_time": 1.507, "note_off_time": 1.718}, {"pitch": 64, "velocity": 70, "note_on_time": 1.72, "note_off_time": 1.777}, {"pitch": 64, "velocity": 74, "note_on_time": 1.892, "note_off_time": 2.026}, {"pitch": 62, "velocity": 80, "note_on_time": 2.078, "note_off_time": 2.175}, {"pitch": 65, "velocity": 87, "note_on_time": 2.253, "note_off_time": 2.484}, {"pitch": 64, "velocity": 91, "note_on_time": 2.912, "note_off_time": 3.124}, {"pitch": 65, "velocity": 85, "note_on_time": 3.1, "note_off_time": 3.267}, {"pitch": 67, "velocity": 73, "note_on_time": 3.276, "note_off_time": 3.374}, {"pitch": 67, "velocity": 69, "note_on_time": 3.503, "note_off_time": 3.617}, {"pitch": 62, "velocity": 77, "note_on_time": 3.704, "note_off_time": 3.97}, {"pitch": 60, "velocity": 94, "note_on_time": 4.114, "note_off_time": 4.306}, {"pitch": 67, "velocity": 90, "note_on_time": 4.502, "note_off_time": 4.792}, {"pitch": 62, "velocity": 86, "note_on_time": 4.811, "note_off_time": 5.018}, {"pitch": 60, "velocity": 80, "note_on_time": 5.042, "note_off_time": 5.162}, {"pitch": 65, "velocity": 88, "note_on_time": 5.261, "note_off_time": 5.409}, {"pitch": 60, "velocity": 98, "note_on_time": 5.512, "note_off_time": 5.618}]</notes><guidance name="Guidance Mode">None</guidance><error name="Error value">0.42112765</error></trial><trial trial_no="4" timestamp="2022_11_23-17_05_29"><notes name="Played Notes">[{"pitch": 65, "velocity": 98, "note_on_time": 0.757, "note_off_time": 0.913}, {"pitch": 67, "velocity": 83, "note_on_time": 0.919, "note_off_time": 1.141}, {"pitch": 62, "velocity": 89, "note_on_time": 1.127, "note_off_time": 1.294}, {"pitch": 67, "velocity": 84, "note_on_time": 1.503, "note_off_time": 1.697}, {"pitch": 64, "velocity": 76, "note_on_time": 1.701, "note_off_time": 1.781}, {"pitch": 64, "velocity": 74, "note_on_time": 1.881, "note_off_time": 2.006}, {"pitch": 62, "velocity": 80, "note_on_time": 2.06, "note_off_time": 2.145}, {"pitch": 65, "velocity": 95, "note_on_time": 2.253, "note_off_time": 2.447}, {"pitch": 64, "velocity": 100, "note_on_time": 2.982, "note_off_time": 3.188}, {"pitch": 65, "velocity": 84, "note_on_time": 3.163, "note_off_time": 3.338}, {"pitch": 67, "velocity": 73, "note_on_time": 3.347, "note_off_time": 3.413}, {"pitch": 67, "velocity": 86, "note_on_time": 3.525, "note_off_time": 3.62}, {"pitch": 62, "velocity": 85, "note_on_time": 3.724, "note_off_time": 3.806}, {"pitch": 60, "velocity": 93, "note_on_time": 4.047, "note_off_time": 4.182}, {"pitch": 67, "velocity": 86, "note_on_time": 4.446, "note_off_time": 4.615}, {"pitch": 62, "velocity": 88, "note_on_time": 4.656, "note_off_time": 4.784}, {"pitch": 60, "velocity": 81, "note_on_time": 4.833, "note_off_time": 4.922}, {"pitch": 65, "velocity": 81, "note_on_time": 5.033, "note_off_time": 5.134}, {"pitch": 60, "velocity": 75, "note_on_time": 5.216, "note_off_time": 5.33}, {"pitch": 67, "velocity": 91, "note_on_time": 5.574, "note_off_time": 5.727}, {"pitch": 67, "velocity": 75, "note_on_time": 5.985, "note_off_time": 6.051}]</notes><guidance name="Guidance Mode">None</guidance><error name="Error value">0.1532436</error></trial><trial trial_no="5" timestamp="2022_11_23-17_05_45"><notes name="Played Notes">[{"pitch": 65, "velocity": 100, "note_on_time": 0.76, "note_off_time": 0.937}, {"pitch": 67, "velocity": 83, "note_on_time": 0.933, "note_off_time": 1.163}, {"pitch": 62, "velocity": 91, "note_on_time": 1.14, "note_off_time": 1.294}, {"pitch": 67, "velocity": 88, "note_on_time": 1.515, "note_off_time": 1.721}, {"pitch": 64, "velocity": 84, "note_on_time": 1.71, "note_off_time": 1.798}, {"pitch": 64, "velocity": 78, "note_on_time": 1.897, "note_off_time": 2.027}, {"pitch": 62, "velocity": 86, "note_on_time": 2.077, "note_off_time": 2.174}, {"pitch": 65, "velocity": 98, "note_on_time": 2.28, "note_off_time": 2.493}, {"pitch": 64, "velocity": 94, "note_on_time": 2.95, "note_off_time": 3.202}, {"pitch": 65, "velocity": 81, "note_on_time": 3.164, "note_off_time": 3.326}, {"pitch": 67, "velocity": 80, "note_on_time": 3.336, "note_off_time": 3.465}, {"pitch": 64, "velocity": 75, "note_on_time": 3.552, "note_off_time": 3.6}, {"pitch": 67, "velocity": 49, "note_on_time": 3.677, "note_off_time": 3.851}, {"pitch": 62, "velocity": 86, "note_on_time": 4.019, "note_off_time": 4.205}, {"pitch": 60, "velocity": 88, "note_on_time": 4.388, "note_off_time": 4.568}, {"pitch": 67, "velocity": 89, "note_on_time": 4.761, "note_off_time": 4.911}, {"pitch": 62, "velocity": 74, "note_on_time": 4.939, "note_off_time": 5.073}, {"pitch": 60, "velocity": 76, "note_on_time": 5.123, "note_off_time": 5.246}, {"pitch": 65, "velocity": 91, "note_on_time": 5.32, "note_off_time": 5.429}, {"pitch": 60, "velocity": 87, "note_on_time": 5.504, "note_off_time": 5.588}, {"pitch": 67, "velocity": 87, "note_on_time": 5.694, "note_off_time": 5.806}]</notes><guidance name="Guidance Mode">None</guidance><error name="Error value">0.52998935</error></trial></trials></MIDI>