<MIDI midiNo="2022_08_17-16_28_59"><target_notes><notes name="Note List">[{"pitch": 42, "velocity": 80, "note_on_time": 0.004, "note_off_time": 1.22}, {"pitch": 42, "velocity": 80, "note_on_time": 1.22, "note_off_time": 2.424}, {"pitch": 42, "velocity": 80, "note_on_time": 2.425, "note_off_time": 3.627}, {"pitch": 42, "velocity": 80, "note_on_time": 3.627, "note_off_time": 4.843}, {"pitch": 62, "velocity": 80, "note_on_time": 4.842, "note_off_time": 6.045}, {"pitch": 42, "velocity": 80, "note_on_time": 4.843, "note_off_time": 6.045}, {"pitch": 64, "velocity": 80, "note_on_time": 6.045, "note_off_time": 7.246}, {"pitch": 42, "velocity": 80, "note_on_time": 6.045, "note_off_time": 7.247}, {"pitch": 62, "velocity": 80, "note_on_time": 7.246, "note_off_time": 8.455}, {"pitch": 42, "velocity": 80, "note_on_time": 7.247, "note_off_time": 8.455}, {"pitch": 64, "velocity": 80, "note_on_time": 8.455, "note_off_time": 9.659}, {"pitch": 42, "velocity": 80, "note_on_time": 8.455, "note_off_time": 9.659}, {"pitch": 60, "velocity": 80, "note_on_time": 9.659, "note_off_time": 10.864}, {"pitch": 42, "velocity": 80, "note_on_time": 9.659, "note_off_time": 10.864}, {"pitch": 65, "velocity": 80, "note_on_time": 10.864, "note_off_time": 12.067}, {"pitch": 42, "velocity": 80, "note_on_time": 10.864, "note_off_time": 12.067}, {"pitch": 67, "velocity": 80, "note_on_time": 12.067, "note_off_time": 13.273}, {"pitch": 42, "velocity": 80, "note_on_time": 12.068, "note_off_time": 13.273}, {"pitch": 64, "velocity": 80, "note_on_time": 13.273, "note_off_time": 14.487}, {"pitch": 42, "velocity": 80, "note_on_time": 13.274, "note_off_time": 14.487}, {"pitch": 65, "velocity": 80, "note_on_time": 14.487, "note_off_time": 15.702}, {"pitch": 42, "velocity": 80, "note_on_time": 14.487, "note_off_time": 15.703}, {"pitch": 42, "velocity": 80, "note_on_time": 15.703, "note_off_time": 16.904}, {"pitch": 42, "velocity": 80, "note_on_time": 16.905, "note_off_time": 18.108}, {"pitch": 42, "velocity": 80, "note_on_time": 18.109, "note_off_time": 19.311}, {"pitch": 62, "velocity": 80, "note_on_time": 19.31, "note_off_time": 20.513}, {"pitch": 42, "velocity": 80, "note_on_time": 19.311, "note_off_time": 20.514}, {"pitch": 64, "velocity": 80, "note_on_time": 20.513, "note_off_time": 21.718}, {"pitch": 42, "velocity": 80, "note_on_time": 20.514, "note_off_time": 21.719}, {"pitch": 62, "velocity": 80, "note_on_time": 21.718, "note_off_time": 22.921}, {"pitch": 42, "velocity": 80, "note_on_time": 21.719, "note_off_time": 22.921}, {"pitch": 60, "velocity": 80, "note_on_time": 22.921, "note_off_time": 24.126}, {"pitch": 42, "velocity": 80, "note_on_time": 22.921, "note_off_time": 24.127}, {"pitch": 62, "velocity": 80, "note_on_time": 24.126, "note_off_time": 25.342}, {"pitch": 42, "velocity": 80, "note_on_time": 24.127, "note_off_time": 25.342}, {"pitch": 62, "velocity": 80, "note_on_time": 25.342, "note_off_time": 26.543}, {"pitch": 42, "velocity": 80, "note_on_time": 25.342, "note_off_time": 26.543}, {"pitch": 64, "velocity": 80, "note_on_time": 26.543, "note_off_time": 27.758}, {"pitch": 42, "velocity": 80, "note_on_time": 26.544, "note_off_time": 27.758}, {"pitch": 65, "velocity": 80, "note_on_time": 27.758, "note_off_time": 28.961}, {"pitch": 42, "velocity": 80, "note_on_time": 27.758, "note_off_time": 28.962}, {"pitch": 42, "velocity": 80, "note_on_time": 28.962, "note_off_time": 30.165}, {"pitch": 64, "velocity": 80, "note_on_time": 28.961, "note_off_time": 31.368}, {"pitch": 42, "velocity": 80, "note_on_time": 30.165, "note_off_time": 31.368}, {"pitch": 42, "velocity": 80, "note_on_time": 31.368, "note_off_time": 32.57}, {"pitch": 42, "velocity": 80, "note_on_time": 32.57, "note_off_time": 33.771}, {"pitch": 60, "velocity": 80, "note_on_time": 33.771, "note_off_time": 34.975}, {"pitch": 42, "velocity": 80, "note_on_time": 33.772, "note_off_time": 34.975}, {"pitch": 42, "velocity": 80, "note_on_time": 34.975, "note_off_time": 36.19}, {"pitch": 42, "velocity": 80, "note_on_time": 36.19, "note_off_time": 37.395}, {"pitch": 62, "velocity": 80, "note_on_time": 37.395, "note_off_time": 38.597}, {"pitch": 42, "velocity": 80, "note_on_time": 37.395, "note_off_time": 38.598}, {"pitch": 42, "velocity": 80, "note_on_time": 38.598, "note_off_time": 39.801}, {"pitch": 62, "velocity": 80, "note_on_time": 39.801, "note_off_time": 41.016}, {"pitch": 42, "velocity": 80, "note_on_time": 39.801, "note_off_time": 41.016}, {"pitch": 62, "velocity": 80, "note_on_time": 41.016, "note_off_time": 42.219}, {"pitch": 42, "velocity": 80, "note_on_time": 41.016, "note_off_time": 42.219}, {"pitch": 62, "velocity": 80, "note_on_time": 42.219, "note_off_time": 43.424}, {"pitch": 42, "velocity": 80, "note_on_time": 42.22, "note_off_time": 43.424}]</notes><options name="Option List">((4, 4), [0.5, 0.25], 3, 8, &lt;NoteRangePerHand.C_TO_G: 6&gt;, &lt;NoteRangePerHand.ONE_NOTE: 2&gt;, False, True, True, '50')</options></target_notes><trials><trial trial_no="1" timestamp="2022_08_17-16_28_14"><notes name="Played Notes">[{"pitch": 62, "velocity": 68, "note_on_time": 4.853, "note_off_time": 6.054}, {"pitch": 64, "velocity": 63, "note_on_time": 6.059, "note_off_time": 7.209}, {"pitch": 62, "velocity": 58, "note_on_time": 7.24, "note_off_time": 8.432}, {"pitch": 64, "velocity": 70, "note_on_time": 8.432, "note_off_time": 9.622}, {"pitch": 60, "velocity": 64, "note_on_time": 9.638, "note_off_time": 10.832}, {"pitch": 65, "velocity": 76, "note_on_time": 10.837, "note_off_time": 11.99}, {"pitch": 67, "velocity": 70, "note_on_time": 12.011, "note_off_time": 13.24}, {"pitch": 64, "velocity": 69, "note_on_time": 13.241, "note_off_time": 14.43}, {"pitch": 65, "velocity": 70, "note_on_time": 14.43, "note_off_time": 15.378}, {"pitch": 62, "velocity": 57, "note_on_time": 19.284, "note_off_time": 20.402}, {"pitch": 64, "velocity": 65, "note_on_time": 20.402, "note_off_time": 21.701}, {"pitch": 62, "velocity": 60, "note_on_time": 21.732, "note_off_time": 22.838}, {"pitch": 60, "velocity": 61, "note_on_time": 22.85, "note_off_time": 24.081}, {"pitch": 62, "velocity": 63, "note_on_time": 24.099, "note_off_time": 25.04}, {"pitch": 62, "velocity": 57, "note_on_time": 25.343, "note_off_time": 26.49}, {"pitch": 64, "velocity": 52, "note_on_time": 26.535, "note_off_time": 27.739}, {"pitch": 65, "velocity": 64, "note_on_time": 27.745, "note_off_time": 28.914}, {"pitch": 64, "velocity": 66, "note_on_time": 28.924, "note_off_time": 31.262}, {"pitch": 60, "velocity": 62, "note_on_time": 33.766, "note_off_time": 34.896}, {"pitch": 62, "velocity": 67, "note_on_time": 37.378, "note_off_time": 38.196}, {"pitch": 62, "velocity": 65, "note_on_time": 39.744, "note_off_time": 40.562}, {"pitch": 62, "velocity": 65, "note_on_time": 40.939, "note_off_time": 41.686}, {"pitch": 62, "velocity": 61, "note_on_time": 42.155, "note_off_time": 43.214}]</notes><guidance name="Guidance Mode">None</guidance><error name="Error value">0.034800000000000206</error></trial><trial trial_no="2" timestamp="2022_08_17-16_29_05"><notes name="Played Notes">[{"pitch": 62, "velocity": 64, "note_on_time": 4.866, "note_off_time": 6.059}, {"pitch": 64, "velocity": 67, "note_on_time": 6.054, "note_off_time": 7.172}, {"pitch": 62, "velocity": 60, "note_on_time": 7.186, "note_off_time": 8.411}, {"pitch": 64, "velocity": 64, "note_on_time": 8.405, "note_off_time": 9.637}, {"pitch": 60, "velocity": 68, "note_on_time": 9.648, "note_off_time": 10.859}, {"pitch": 65, "velocity": 72, "note_on_time": 10.862, "note_off_time": 12.084}, {"pitch": 67, "velocity": 63, "note_on_time": 12.033, "note_off_time": 13.207}, {"pitch": 64, "velocity": 64, "note_on_time": 13.222, "note_off_time": 14.456}, {"pitch": 65, "velocity": 61, "note_on_time": 14.465, "note_off_time": 15.437}, {"pitch": 62, "velocity": 52, "note_on_time": 19.371, "note_off_time": 20.47}, {"pitch": 64, "velocity": 64, "note_on_time": 20.466, "note_off_time": 21.645}, {"pitch": 62, "velocity": 60, "note_on_time": 21.663, "note_off_time": 22.834}, {"pitch": 60, "velocity": 66, "note_on_time": 22.855, "note_off_time": 24.07}, {"pitch": 62, "velocity": 64, "note_on_time": 24.085, "note_off_time": 24.885}, {"pitch": 62, "velocity": 68, "note_on_time": 25.336, "note_off_time": 26.096}, {"pitch": 64, "velocity": 68, "note_on_time": 26.572, "note_off_time": 27.657}, {"pitch": 65, "velocity": 64, "note_on_time": 27.725, "note_off_time": 28.897}, {"pitch": 64, "velocity": 68, "note_on_time": 28.899, "note_off_time": 30.079}, {"pitch": 60, "velocity": 67, "note_on_time": 33.717, "note_off_time": 34.404}, {"pitch": 62, "velocity": 67, "note_on_time": 37.384, "note_off_time": 37.963}, {"pitch": 62, "velocity": 66, "note_on_time": 39.741, "note_off_time": 40.472}, {"pitch": 62, "velocity": 69, "note_on_time": 40.966, "note_off_time": 41.649}, {"pitch": 62, "velocity": 73, "note_on_time": 42.195, "note_off_time": 42.825}]</notes><guidance name="Guidance Mode">None</guidance><error name="Error value">0.041649999999999875</error></trial><trial trial_no="3" timestamp="2022_08_17-16_29_58"><notes name="Played Notes">[{"pitch": 62, "velocity": 66, "note_on_time": 4.865, "note_off_time": 6.033}, {"pitch": 64, "velocity": 67, "note_on_time": 6.027, "note_off_time": 7.209}, {"pitch": 62, "velocity": 64, "note_on_time": 7.224, "note_off_time": 8.452}, {"pitch": 64, "velocity": 66, "note_on_time": 8.428, "note_off_time": 9.648}, {"pitch": 60, "velocity": 71, "note_on_time": 9.656, "note_off_time": 10.784}, {"pitch": 65, "velocity": 74, "note_on_time": 10.784, "note_off_time": 12.05}, {"pitch": 67, "velocity": 68, "note_on_time": 12.069, "note_off_time": 13.264}, {"pitch": 64, "velocity": 70, "note_on_time": 13.283, "note_off_time": 14.472}, {"pitch": 65, "velocity": 71, "note_on_time": 14.47, "note_off_time": 15.661}, {"pitch": 62, "velocity": 67, "note_on_time": 19.28, "note_off_time": 20.464}, {"pitch": 64, "velocity": 70, "note_on_time": 20.463, "note_off_time": 21.641}, {"pitch": 62, "velocity": 61, "note_on_time": 21.662, "note_off_time": 22.86}, {"pitch": 60, "velocity": 67, "note_on_time": 22.87, "note_off_time": 24.142}, {"pitch": 62, "velocity": 63, "note_on_time": 24.131, "note_off_time": 25.042}, {"pitch": 62, "velocity": 67, "note_on_time": 25.441, "note_off_time": 26.6}, {"pitch": 64, "velocity": 70, "note_on_time": 26.59, "note_off_time": 27.623}, {"pitch": 65, "velocity": 76, "note_on_time": 27.71, "note_off_time": 28.996}, {"pitch": 64, "velocity": 78, "note_on_time": 28.995, "note_off_time": 30.022}, {"pitch": 60, "velocity": 74, "note_on_time": 33.727, "note_off_time": 34.518}, {"pitch": 62, "velocity": 60, "note_on_time": 37.349, "note_off_time": 38.037}, {"pitch": 62, "velocity": 66, "note_on_time": 39.765, "note_off_time": 40.768}, {"pitch": 62, "velocity": 64, "note_on_time": 40.971, "note_off_time": 41.942}, {"pitch": 62, "velocity": 74, "note_on_time": 42.234, "note_off_time": 43.201}]</notes><guidance name="Guidance Mode">None</guidance><error name="Error value">0.04274999999999971</error></trial></trials></MIDI>