<MIDI midiNo="2022_08_17-16_37_32"><target_notes><notes name="Note List">[{"pitch": 42, "velocity": 80, "note_on_time": 0.004, "note_off_time": 1.213}, {"pitch": 42, "velocity": 80, "note_on_time": 1.213, "note_off_time": 2.416}, {"pitch": 42, "velocity": 80, "note_on_time": 2.416, "note_off_time": 3.619}, {"pitch": 42, "velocity": 80, "note_on_time": 3.619, "note_off_time": 4.828}, {"pitch": 42, "velocity": 80, "note_on_time": 4.828, "note_off_time": 6.043}, {"pitch": 60, "velocity": 80, "note_on_time": 4.828, "note_off_time": 7.249}, {"pitch": 42, "velocity": 80, "note_on_time": 6.043, "note_off_time": 7.249}, {"pitch": 42, "velocity": 80, "note_on_time": 7.249, "note_off_time": 8.452}, {"pitch": 42, "velocity": 80, "note_on_time": 8.452, "note_off_time": 9.654}, {"pitch": 42, "velocity": 80, "note_on_time": 9.654, "note_off_time": 10.861}, {"pitch": 65, "velocity": 80, "note_on_time": 9.653, "note_off_time": 12.063}, {"pitch": 42, "velocity": 80, "note_on_time": 10.862, "note_off_time": 12.063}, {"pitch": 42, "velocity": 80, "note_on_time": 12.063, "note_off_time": 13.267}, {"pitch": 65, "velocity": 80, "note_on_time": 13.267, "note_off_time": 14.471}, {"pitch": 42, "velocity": 80, "note_on_time": 13.267, "note_off_time": 14.472}, {"pitch": 42, "velocity": 80, "note_on_time": 14.472, "note_off_time": 15.687}, {"pitch": 60, "velocity": 80, "note_on_time": 14.471, "note_off_time": 16.889}, {"pitch": 42, "velocity": 80, "note_on_time": 15.687, "note_off_time": 16.89}, {"pitch": 42, "velocity": 80, "note_on_time": 16.89, "note_off_time": 18.106}, {"pitch": 60, "velocity": 80, "note_on_time": 18.106, "note_off_time": 19.307}, {"pitch": 42, "velocity": 80, "note_on_time": 18.106, "note_off_time": 19.307}, {"pitch": 42, "velocity": 80, "note_on_time": 19.307, "note_off_time": 20.511}, {"pitch": 64, "velocity": 80, "note_on_time": 19.307, "note_off_time": 21.716}, {"pitch": 42, "velocity": 80, "note_on_time": 20.511, "note_off_time": 21.716}, {"pitch": 42, "velocity": 80, "note_on_time": 21.716, "note_off_time": 22.919}, {"pitch": 42, "velocity": 80, "note_on_time": 22.919, "note_off_time": 24.123}, {"pitch": 42, "velocity": 80, "note_on_time": 24.123, "note_off_time": 25.325}, {"pitch": 64, "velocity": 80, "note_on_time": 24.123, "note_off_time": 26.54}, {"pitch": 42, "velocity": 80, "note_on_time": 25.325, "note_off_time": 26.541}, {"pitch": 42, "velocity": 80, "note_on_time": 26.541, "note_off_time": 27.743}, {"pitch": 67, "velocity": 80, "note_on_time": 26.54, "note_off_time": 28.946}, {"pitch": 42, "velocity": 80, "note_on_time": 27.744, "note_off_time": 28.946}, {"pitch": 60, "velocity": 80, "note_on_time": 28.946, "note_off_time": 30.152}, {"pitch": 42, "velocity": 80, "note_on_time": 28.947, "note_off_time": 30.153}, {"pitch": 42, "velocity": 80, "note_on_time": 30.153, "note_off_time": 31.355}, {"pitch": 42, "velocity": 80, "note_on_time": 31.355, "note_off_time": 32.558}, {"pitch": 42, "velocity": 80, "note_on_time": 32.558, "note_off_time": 33.77}, {"pitch": 67, "velocity": 80, "note_on_time": 33.77, "note_off_time": 34.975}, {"pitch": 42, "velocity": 80, "note_on_time": 33.77, "note_off_time": 34.975}, {"pitch": 65, "velocity": 80, "note_on_time": 34.975, "note_off_time": 36.18}, {"pitch": 42, "velocity": 80, "note_on_time": 34.975, "note_off_time": 36.181}, {"pitch": 65, "velocity": 80, "note_on_time": 36.18, "note_off_time": 37.394}, {"pitch": 42, "velocity": 80, "note_on_time": 36.181, "note_off_time": 37.394}, {"pitch": 64, "velocity": 80, "note_on_time": 37.394, "note_off_time": 38.596}, {"pitch": 42, "velocity": 80, "note_on_time": 37.395, "note_off_time": 38.596}, {"pitch": 42, "velocity": 80, "note_on_time": 38.597, "note_off_time": 39.813}, {"pitch": 64, "velocity": 80, "note_on_time": 39.812, "note_off_time": 41.027}, {"pitch": 42, "velocity": 80, "note_on_time": 39.813, "note_off_time": 41.027}, {"pitch": 64, "velocity": 80, "note_on_time": 41.027, "note_off_time": 42.242}, {"pitch": 42, "velocity": 80, "note_on_time": 41.028, "note_off_time": 42.243}, {"pitch": 64, "velocity": 80, "note_on_time": 42.242, "note_off_time": 43.444}, {"pitch": 42, "velocity": 80, "note_on_time": 42.243, "note_off_time": 43.445}]</notes><options name="Option List">((4, 4), [0.5, 0.25], 3, 8, &lt;NoteRangePerHand.C_TO_G: 6&gt;, &lt;NoteRangePerHand.ONE_NOTE: 2&gt;, False, True, True, '50')</options></target_notes><trials /></MIDI>