<MIDI midiNo="2022_10_27-10_33_00"><target_notes><notes name="Note List">[{"pitch": 42, "velocity": 80, "note_on_time": 0.004, "note_off_time": 0.471}, {"pitch": 42, "velocity": 80, "note_on_time": 0.471, "note_off_time": 0.937}, {"pitch": 42, "velocity": 80, "note_on_time": 0.937, "note_off_time": 1.39}, {"pitch": 42, "velocity": 80, "note_on_time": 1.39, "note_off_time": 1.857}, {"pitch": 60, "velocity": 80, "note_on_time": 1.857, "note_off_time": 2.323}, {"pitch": 42, "velocity": 80, "note_on_time": 1.857, "note_off_time": 2.324}, {"pitch": 42, "velocity": 80, "note_on_time": 2.324, "note_off_time": 2.79}, {"pitch": 42, "velocity": 80, "note_on_time": 2.79, "note_off_time": 3.257}, {"pitch": 42, "velocity": 80, "note_on_time": 3.257, "note_off_time": 3.724}, {"pitch": 62, "velocity": 80, "note_on_time": 3.723, "note_off_time": 4.188}, {"pitch": 42, "velocity": 80, "note_on_time": 3.724, "note_off_time": 4.188}, {"pitch": 62, "velocity": 80, "note_on_time": 4.188, "note_off_time": 4.655}, {"pitch": 42, "velocity": 80, "note_on_time": 4.188, "note_off_time": 4.655}, {"pitch": 62, "velocity": 80, "note_on_time": 4.655, "note_off_time": 5.108}, {"pitch": 42, "velocity": 80, "note_on_time": 4.655, "note_off_time": 5.108}, {"pitch": 42, "velocity": 80, "note_on_time": 5.108, "note_off_time": 5.576}, {"pitch": 62, "velocity": 80, "note_on_time": 5.575, "note_off_time": 6.031}, {"pitch": 42, "velocity": 80, "note_on_time": 5.576, "note_off_time": 6.031}, {"pitch": 62, "velocity": 80, "note_on_time": 6.031, "note_off_time": 6.498}, {"pitch": 42, "velocity": 80, "note_on_time": 6.032, "note_off_time": 6.499}, {"pitch": 62, "velocity": 80, "note_on_time": 6.498, "note_off_time": 6.966}, {"pitch": 42, "velocity": 80, "note_on_time": 6.499, "note_off_time": 6.967}, {"pitch": 62, "velocity": 80, "note_on_time": 6.966, "note_off_time": 7.433}, {"pitch": 42, "velocity": 80, "note_on_time": 6.967, "note_off_time": 7.434}, {"pitch": 60, "velocity": 80, "note_on_time": 7.433, "note_off_time": 7.901}, {"pitch": 42, "velocity": 80, "note_on_time": 7.434, "note_off_time": 7.901}, {"pitch": 62, "velocity": 80, "note_on_time": 7.901, "note_off_time": 8.369}, {"pitch": 42, "velocity": 80, "note_on_time": 7.901, "note_off_time": 8.369}, {"pitch": 60, "velocity": 80, "note_on_time": 8.369, "note_off_time": 8.835}, {"pitch": 42, "velocity": 80, "note_on_time": 8.369, "note_off_time": 8.835}, {"pitch": 62, "velocity": 80, "note_on_time": 8.835, "note_off_time": 9.288}, {"pitch": 42, "velocity": 80, "note_on_time": 8.835, "note_off_time": 9.289}, {"pitch": 60, "velocity": 80, "note_on_time": 9.288, "note_off_time": 9.755}, {"pitch": 42, "velocity": 80, "note_on_time": 9.289, "note_off_time": 9.756}, {"pitch": 60, "velocity": 80, "note_on_time": 9.755, "note_off_time": 10.22}, {"pitch": 42, "velocity": 80, "note_on_time": 9.756, "note_off_time": 10.221}, {"pitch": 62, "velocity": 80, "note_on_time": 10.22, "note_off_time": 10.685}, {"pitch": 42, "velocity": 80, "note_on_time": 10.221, "note_off_time": 10.686}, {"pitch": 62, "velocity": 80, "note_on_time": 10.685, "note_off_time": 11.149}, {"pitch": 42, "velocity": 80, "note_on_time": 10.686, "note_off_time": 11.15}, {"pitch": 60, "velocity": 80, "note_on_time": 11.149, "note_off_time": 11.617}, {"pitch": 42, "velocity": 80, "note_on_time": 11.15, "note_off_time": 11.618}, {"pitch": 62, "velocity": 80, "note_on_time": 11.617, "note_off_time": 12.083}, {"pitch": 42, "velocity": 80, "note_on_time": 11.618, "note_off_time": 12.083}, {"pitch": 62, "velocity": 80, "note_on_time": 12.083, "note_off_time": 12.551}, {"pitch": 42, "velocity": 80, "note_on_time": 12.083, "note_off_time": 12.551}, {"pitch": 60, "velocity": 80, "note_on_time": 12.551, "note_off_time": 13.005}, {"pitch": 42, "velocity": 80, "note_on_time": 12.552, "note_off_time": 13.005}, {"pitch": 62, "velocity": 80, "note_on_time": 13.005, "note_off_time": 13.472}, {"pitch": 42, "velocity": 80, "note_on_time": 13.006, "note_off_time": 13.472}, {"pitch": 60, "velocity": 80, "note_on_time": 13.472, "note_off_time": 13.938}, {"pitch": 42, "velocity": 80, "note_on_time": 13.473, "note_off_time": 13.938}, {"pitch": 60, "velocity": 80, "note_on_time": 13.938, "note_off_time": 14.402}, {"pitch": 42, "velocity": 80, "note_on_time": 13.939, "note_off_time": 14.403}, {"pitch": 62, "velocity": 80, "note_on_time": 14.402, "note_off_time": 14.87}, {"pitch": 42, "velocity": 80, "note_on_time": 14.403, "note_off_time": 14.87}, {"pitch": 42, "velocity": 80, "note_on_time": 14.871, "note_off_time": 15.323}, {"pitch": 62, "velocity": 80, "note_on_time": 15.323, "note_off_time": 15.789}, {"pitch": 42, "velocity": 80, "note_on_time": 15.324, "note_off_time": 15.789}, {"pitch": 62, "velocity": 80, "note_on_time": 15.789, "note_off_time": 16.255}, {"pitch": 42, "velocity": 80, "note_on_time": 15.79, "note_off_time": 16.255}, {"pitch": 62, "velocity": 80, "note_on_time": 16.255, "note_off_time": 16.72}, {"pitch": 42, "velocity": 80, "note_on_time": 16.255, "note_off_time": 16.72}]</notes><options name="Option List">((4, 4), [0.25], 3, 8, &lt;NoteRangePerHand.TWO_NOTES: 3&gt;, &lt;NoteRangePerHand.ONE_NOTE: 2&gt;, False, True, False, '133')</options></target_notes><trials><trial trial_no="1" timestamp="2022_10_27-10_32_42"><notes name="Played Notes">[{"pitch": 60, "velocity": 38, "note_on_time": 2.078, "note_off_time": 2.314}, {"pitch": 62, "velocity": 44, "note_on_time": 3.535, "note_off_time": 3.765}, {"pitch": 62, "velocity": 52, "note_on_time": 4.104, "note_off_time": 4.291}, {"pitch": 62, "velocity": 67, "note_on_time": 4.698, "note_off_time": 4.874}, {"pitch": 62, "velocity": 49, "note_on_time": 5.865, "note_off_time": 6.044}, {"pitch": 62, "velocity": 52, "note_on_time": 6.418, "note_off_time": 6.578}, {"pitch": 62, "velocity": 51, "note_on_time": 6.933, "note_off_time": 7.107}, {"pitch": 60, "velocity": 55, "note_on_time": 8.183, "note_off_time": 8.368}, {"pitch": 62, "velocity": 51, "note_on_time": 8.764, "note_off_time": 8.935}, {"pitch": 60, "velocity": 47, "note_on_time": 9.303, "note_off_time": 9.489}, {"pitch": 62, "velocity": 54, "note_on_time": 9.859, "note_off_time": 10.033}, {"pitch": 60, "velocity": 57, "note_on_time": 10.434, "note_off_time": 10.591}, {"pitch": 60, "velocity": 55, "note_on_time": 10.981, "note_off_time": 11.173}, {"pitch": 62, "velocity": 51, "note_on_time": 11.537, "note_off_time": 11.723}, {"pitch": 62, "velocity": 67, "note_on_time": 12.087, "note_off_time": 12.268}, {"pitch": 60, "velocity": 55, "note_on_time": 12.652, "note_off_time": 12.831}, {"pitch": 62, "velocity": 54, "note_on_time": 13.154, "note_off_time": 13.337}, {"pitch": 62, "velocity": 60, "note_on_time": 13.69, "note_off_time": 13.873}, {"pitch": 60, "velocity": 49, "note_on_time": 14.201, "note_off_time": 14.406}, {"pitch": 62, "velocity": 58, "note_on_time": 14.769, "note_off_time": 14.971}, {"pitch": 60, "velocity": 59, "note_on_time": 15.298, "note_off_time": 15.484}, {"pitch": 60, "velocity": 58, "note_on_time": 15.791, "note_off_time": 15.978}, {"pitch": 62, "velocity": 60, "note_on_time": 16.33, "note_off_time": 16.569}]</notes><guidance name="Guidance Mode">None</guidance><error name="Error value">0.4667129583333334</error></trial><trial trial_no="2" timestamp="2022_10_27-10_33_14"><notes name="Played Notes">[{"pitch": 60, "velocity": 46, "note_on_time": 2.197, "note_off_time": 2.406}, {"pitch": 62, "velocity": 41, "note_on_time": 3.692, "note_off_time": 3.868}, {"pitch": 62, "velocity": 52, "note_on_time": 4.193, "note_off_time": 4.357}, {"pitch": 62, "velocity": 63, "note_on_time": 4.693, "note_off_time": 4.879}, {"pitch": 62, "velocity": 67, "note_on_time": 5.902, "note_off_time": 6.06}, {"pitch": 62, "velocity": 48, "note_on_time": 6.407, "note_off_time": 6.564}, {"pitch": 62, "velocity": 52, "note_on_time": 6.863, "note_off_time": 7.053}, {"pitch": 62, "velocity": 64, "note_on_time": 7.386, "note_off_time": 7.543}, {"pitch": 60, "velocity": 62, "note_on_time": 8.374, "note_off_time": 8.563}, {"pitch": 62, "velocity": 55, "note_on_time": 8.904, "note_off_time": 9.069}, {"pitch": 60, "velocity": 57, "note_on_time": 9.401, "note_off_time": 9.585}, {"pitch": 62, "velocity": 57, "note_on_time": 9.925, "note_off_time": 10.125}, {"pitch": 60, "velocity": 52, "note_on_time": 10.419, "note_off_time": 10.615}, {"pitch": 60, "velocity": 55, "note_on_time": 10.9, "note_off_time": 11.105}, {"pitch": 62, "velocity": 46, "note_on_time": 11.387, "note_off_time": 11.597}, {"pitch": 62, "velocity": 63, "note_on_time": 11.898, "note_off_time": 12.104}, {"pitch": 60, "velocity": 56, "note_on_time": 12.422, "note_off_time": 12.601}, {"pitch": 62, "velocity": 59, "note_on_time": 12.913, "note_off_time": 13.089}, {"pitch": 62, "velocity": 59, "note_on_time": 13.373, "note_off_time": 13.574}, {"pitch": 60, "velocity": 64, "note_on_time": 13.888, "note_off_time": 14.089}, {"pitch": 62, "velocity": 54, "note_on_time": 14.442, "note_off_time": 14.637}, {"pitch": 60, "velocity": 59, "note_on_time": 14.903, "note_off_time": 15.093}, {"pitch": 60, "velocity": 55, "note_on_time": 15.38, "note_off_time": 15.582}, {"pitch": 62, "velocity": 50, "note_on_time": 15.852, "note_off_time": 16.121}]</notes><guidance name="Guidance Mode">None</guidance><error name="Error value">0.4278584583333335</error></trial><trial trial_no="3" timestamp="2022_10_27-10_33_40"><notes name="Played Notes">[{"pitch": 60, "velocity": 54, "note_on_time": 1.973, "note_off_time": 2.181}, {"pitch": 62, "velocity": 58, "note_on_time": 3.194, "note_off_time": 3.385}, {"pitch": 62, "velocity": 56, "note_on_time": 3.713, "note_off_time": 3.885}, {"pitch": 62, "velocity": 61, "note_on_time": 4.227, "note_off_time": 4.44}, {"pitch": 62, "velocity": 51, "note_on_time": 5.343, "note_off_time": 5.552}, {"pitch": 62, "velocity": 62, "note_on_time": 5.838, "note_off_time": 6.029}, {"pitch": 62, "velocity": 68, "note_on_time": 6.348, "note_off_time": 6.534}, {"pitch": 62, "velocity": 67, "note_on_time": 6.87, "note_off_time": 7.062}, {"pitch": 60, "velocity": 55, "note_on_time": 7.413, "note_off_time": 7.616}, {"pitch": 62, "velocity": 61, "note_on_time": 7.94, "note_off_time": 8.142}, {"pitch": 60, "velocity": 52, "note_on_time": 8.458, "note_off_time": 8.654}, {"pitch": 62, "velocity": 61, "note_on_time": 8.926, "note_off_time": 9.128}, {"pitch": 60, "velocity": 70, "note_on_time": 9.448, "note_off_time": 9.613}, {"pitch": 60, "velocity": 68, "note_on_time": 9.968, "note_off_time": 10.178}, {"pitch": 62, "velocity": 59, "note_on_time": 10.482, "note_off_time": 10.675}, {"pitch": 62, "velocity": 63, "note_on_time": 11.02, "note_off_time": 11.213}, {"pitch": 60, "velocity": 67, "note_on_time": 11.539, "note_off_time": 11.718}, {"pitch": 62, "velocity": 49, "note_on_time": 12.071, "note_off_time": 12.252}, {"pitch": 62, "velocity": 68, "note_on_time": 12.55, "note_off_time": 12.765}, {"pitch": 60, "velocity": 66, "note_on_time": 13.07, "note_off_time": 13.261}, {"pitch": 62, "velocity": 68, "note_on_time": 13.589, "note_off_time": 13.777}, {"pitch": 60, "velocity": 62, "note_on_time": 14.07, "note_off_time": 14.246}, {"pitch": 60, "velocity": 60, "note_on_time": 14.568, "note_off_time": 14.783}, {"pitch": 62, "velocity": 62, "note_on_time": 15.08, "note_off_time": 15.286}, {"pitch": 62, "velocity": 54, "note_on_time": 16.141, "note_off_time": 16.321}]</notes><guidance name="Guidance Mode">None</guidance><error name="Error value">0.20816004166666696</error></trial></trials></MIDI>