<MIDI midiNo="2022_12_22-11_01_08"><target_notes><notes name="Note List">[{"pitch": 42, "velocity": 80, "note_on_time": 0.004, "note_off_time": 0.73}, {"pitch": 42, "velocity": 80, "note_on_time": 0.73, "note_off_time": 1.458}, {"pitch": 42, "velocity": 80, "note_on_time": 1.458, "note_off_time": 2.191}, {"pitch": 42, "velocity": 80, "note_on_time": 2.191, "note_off_time": 2.921}, {"pitch": 62, "velocity": 80, "note_on_time": 2.921, "note_off_time": 3.653}, {"pitch": 42, "velocity": 80, "note_on_time": 2.921, "note_off_time": 3.653}, {"pitch": 60, "velocity": 80, "note_on_time": 3.653, "note_off_time": 4.383}, {"pitch": 42, "velocity": 80, "note_on_time": 3.653, "note_off_time": 4.383}, {"pitch": 62, "velocity": 80, "note_on_time": 4.383, "note_off_time": 5.111}, {"pitch": 42, "velocity": 80, "note_on_time": 4.383, "note_off_time": 5.111}, {"pitch": 62, "velocity": 80, "note_on_time": 5.111, "note_off_time": 5.839}, {"pitch": 42, "velocity": 80, "note_on_time": 5.111, "note_off_time": 5.839}, {"pitch": 64, "velocity": 80, "note_on_time": 5.839, "note_off_time": 6.574}, {"pitch": 42, "velocity": 80, "note_on_time": 5.839, "note_off_time": 6.574}, {"pitch": 60, "velocity": 80, "note_on_time": 6.574, "note_off_time": 7.306}, {"pitch": 42, "velocity": 80, "note_on_time": 6.574, "note_off_time": 7.306}, {"pitch": 64, "velocity": 80, "note_on_time": 7.306, "note_off_time": 8.041}, {"pitch": 42, "velocity": 80, "note_on_time": 7.306, "note_off_time": 8.041}, {"pitch": 60, "velocity": 80, "note_on_time": 8.041, "note_off_time": 8.772}, {"pitch": 42, "velocity": 80, "note_on_time": 8.041, "note_off_time": 8.772}, {"pitch": 64, "velocity": 80, "note_on_time": 8.772, "note_off_time": 9.504}, {"pitch": 42, "velocity": 80, "note_on_time": 8.772, "note_off_time": 9.504}, {"pitch": 64, "velocity": 80, "note_on_time": 9.504, "note_off_time": 10.232}, {"pitch": 42, "velocity": 80, "note_on_time": 9.504, "note_off_time": 10.232}, {"pitch": 62, "velocity": 80, "note_on_time": 10.232, "note_off_time": 10.964}, {"pitch": 42, "velocity": 80, "note_on_time": 10.232, "note_off_time": 10.964}, {"pitch": 64, "velocity": 80, "note_on_time": 10.964, "note_off_time": 11.696}, {"pitch": 42, "velocity": 80, "note_on_time": 10.964, "note_off_time": 11.696}, {"pitch": 42, "velocity": 80, "note_on_time": 11.696, "note_off_time": 12.427}, {"pitch": 60, "velocity": 80, "note_on_time": 11.696, "note_off_time": 13.161}, {"pitch": 42, "velocity": 80, "note_on_time": 12.427, "note_off_time": 13.161}, {"pitch": 42, "velocity": 80, "note_on_time": 13.161, "note_off_time": 13.896}, {"pitch": 42, "velocity": 80, "note_on_time": 13.896, "note_off_time": 14.628}, {"pitch": 64, "velocity": 80, "note_on_time": 14.628, "note_off_time": 15.358}, {"pitch": 42, "velocity": 80, "note_on_time": 14.628, "note_off_time": 15.358}, {"pitch": 60, "velocity": 80, "note_on_time": 15.358, "note_off_time": 16.089}, {"pitch": 42, "velocity": 80, "note_on_time": 15.358, "note_off_time": 16.089}, {"pitch": 42, "velocity": 80, "note_on_time": 16.089, "note_off_time": 16.821}, {"pitch": 60, "velocity": 80, "note_on_time": 16.089, "note_off_time": 17.553}, {"pitch": 42, "velocity": 80, "note_on_time": 16.821, "note_off_time": 17.553}, {"pitch": 42, "velocity": 80, "note_on_time": 17.553, "note_off_time": 18.289}, {"pitch": 62, "velocity": 80, "note_on_time": 17.553, "note_off_time": 19.021}, {"pitch": 42, "velocity": 80, "note_on_time": 18.289, "note_off_time": 19.021}, {"pitch": 42, "velocity": 80, "note_on_time": 19.021, "note_off_time": 19.752}, {"pitch": 42, "velocity": 80, "note_on_time": 19.752, "note_off_time": 20.484}, {"pitch": 60, "velocity": 80, "note_on_time": 20.484, "note_off_time": 21.215}, {"pitch": 42, "velocity": 80, "note_on_time": 20.484, "note_off_time": 21.215}, {"pitch": 42, "velocity": 80, "note_on_time": 21.215, "note_off_time": 21.944}, {"pitch": 42, "velocity": 80, "note_on_time": 21.944, "note_off_time": 22.68}, {"pitch": 62, "velocity": 80, "note_on_time": 22.68, "note_off_time": 23.415}, {"pitch": 42, "velocity": 80, "note_on_time": 22.68, "note_off_time": 23.415}, {"pitch": 42, "velocity": 80, "note_on_time": 23.415, "note_off_time": 24.145}, {"pitch": 62, "velocity": 80, "note_on_time": 24.145, "note_off_time": 24.88}, {"pitch": 42, "velocity": 80, "note_on_time": 24.145, "note_off_time": 24.88}, {"pitch": 62, "velocity": 80, "note_on_time": 24.88, "note_off_time": 25.613}, {"pitch": 42, "velocity": 80, "note_on_time": 24.88, "note_off_time": 25.613}, {"pitch": 62, "velocity": 80, "note_on_time": 25.613, "note_off_time": 26.345}, {"pitch": 42, "velocity": 80, "note_on_time": 25.613, "note_off_time": 26.345}]</notes><options name="Option List">((4, 4), [0.5, 0.25], 3, 8, &lt;NoteRangePerHand.THREE_NOTES: 4&gt;, &lt;NoteRangePerHand.ONE_NOTE: 2&gt;, False, True, False, 83)</options></target_notes><trials><trial trial_no="1" timestamp="2022_12_22-11_00_40"><notes name="Played Notes">[{"pitch": 62, "velocity": 37, "note_on_time": 2.009, "note_off_time": 2.373}, {"pitch": 60, "velocity": 59, "note_on_time": 2.682, "note_off_time": 3.145}, {"pitch": 62, "velocity": 57, "note_on_time": 3.387, "note_off_time": 3.698}, {"pitch": 62, "velocity": 52, "note_on_time": 4.12, "note_off_time": 4.429}, {"pitch": 64, "velocity": 58, "note_on_time": 4.787, "note_off_time": 5.262}, {"pitch": 60, "velocity": 51, "note_on_time": 5.58, "note_off_time": 6.123}, {"pitch": 64, "velocity": 52, "note_on_time": 6.342, "note_off_time": 6.876}, {"pitch": 60, "velocity": 49, "note_on_time": 7.101, "note_off_time": 7.673}, {"pitch": 64, "velocity": 59, "note_on_time": 7.907, "note_off_time": 8.236}, {"pitch": 64, "velocity": 44, "note_on_time": 8.642, "note_off_time": 9.015}, {"pitch": 62, "velocity": 46, "note_on_time": 9.354, "note_off_time": 9.715}, {"pitch": 64, "velocity": 55, "note_on_time": 10.075, "note_off_time": 10.528}, {"pitch": 60, "velocity": 56, "note_on_time": 10.978, "note_off_time": 12.104}, {"pitch": 62, "velocity": 43, "note_on_time": 14.046, "note_off_time": 14.303}, {"pitch": 64, "velocity": 44, "note_on_time": 14.41, "note_off_time": 14.779}, {"pitch": 60, "velocity": 64, "note_on_time": 15.018, "note_off_time": 15.425}, {"pitch": 60, "velocity": 58, "note_on_time": 15.699, "note_off_time": 16.628}, {"pitch": 62, "velocity": 58, "note_on_time": 17.164, "note_off_time": 18.723}, {"pitch": 60, "velocity": 51, "note_on_time": 19.208, "note_off_time": 19.774}, {"pitch": 64, "velocity": 45, "note_on_time": 20.753, "note_off_time": 21.128}, {"pitch": 62, "velocity": 59, "note_on_time": 21.543, "note_off_time": 21.889}, {"pitch": 62, "velocity": 54, "note_on_time": 22.169, "note_off_time": 22.491}, {"pitch": 62, "velocity": 46, "note_on_time": 22.949, "note_off_time": 23.387}, {"pitch": 62, "velocity": 37, "note_on_time": 23.679, "note_off_time": 23.855}]</notes><guidance name="Guidance Mode">None</guidance><error name="Error value">1.715344473684211</error></trial><trial trial_no="2" timestamp="2022_12_22-11_01_38"><notes name="Played Notes">[{"pitch": 62, "velocity": 54, "note_on_time": 3.616, "note_off_time": 4.045}, {"pitch": 60, "velocity": 58, "note_on_time": 4.268, "note_off_time": 4.699}, {"pitch": 62, "velocity": 60, "note_on_time": 4.962, "note_off_time": 5.269}, {"pitch": 62, "velocity": 64, "note_on_time": 5.675, "note_off_time": 6.026}, {"pitch": 64, "velocity": 56, "note_on_time": 6.362, "note_off_time": 6.846}, {"pitch": 60, "velocity": 59, "note_on_time": 7.086, "note_off_time": 7.663}, {"pitch": 64, "velocity": 42, "note_on_time": 7.916, "note_off_time": 8.34}, {"pitch": 60, "velocity": 53, "note_on_time": 8.625, "note_off_time": 9.167}, {"pitch": 62, "velocity": 51, "note_on_time": 9.391, "note_off_time": 9.719}, {"pitch": 62, "velocity": 54, "note_on_time": 10.14, "note_off_time": 10.562}, {"pitch": 64, "velocity": 1, "note_on_time": 11.716, "note_off_time": 12.195}, {"pitch": 60, "velocity": 70, "note_on_time": 12.722, "note_off_time": 14.086}, {"pitch": 62, "velocity": 61, "note_on_time": 15.892, "note_off_time": 16.303}, {"pitch": 60, "velocity": 71, "note_on_time": 16.981, "note_off_time": 17.276}, {"pitch": 60, "velocity": 67, "note_on_time": 17.622, "note_off_time": 18.526}, {"pitch": 62, "velocity": 59, "note_on_time": 18.766, "note_off_time": 19.768}, {"pitch": 60, "velocity": 56, "note_on_time": 20.741, "note_off_time": 21.156}, {"pitch": 62, "velocity": 62, "note_on_time": 22.658, "note_off_time": 23.119}, {"pitch": 62, "velocity": 55, "note_on_time": 23.903, "note_off_time": 24.203}, {"pitch": 62, "velocity": 49, "note_on_time": 24.586, "note_off_time": 24.899}, {"pitch": 62, "velocity": 60, "note_on_time": 25.258, "note_off_time": 25.51}]</notes><guidance name="Guidance Mode">None</guidance><error name="Error value">0.41215315789473744</error></trial><trial trial_no="3" timestamp="2022_12_22-11_02_16"><notes name="Played Notes">[{"pitch": 62, "velocity": 59, "note_on_time": 2.345, "note_off_time": 2.743}, {"pitch": 60, "velocity": 52, "note_on_time": 3.061, "note_off_time": 3.52}, {"pitch": 62, "velocity": 58, "note_on_time": 3.755, "note_off_time": 4.078}, {"pitch": 62, "velocity": 57, "note_on_time": 4.488, "note_off_time": 4.846}, {"pitch": 64, "velocity": 45, "note_on_time": 5.239, "note_off_time": 5.683}, {"pitch": 60, "velocity": 52, "note_on_time": 5.93, "note_off_time": 6.423}, {"pitch": 64, "velocity": 52, "note_on_time": 6.648, "note_off_time": 7.087}, {"pitch": 60, "velocity": 46, "note_on_time": 7.389, "note_off_time": 7.938}, {"pitch": 64, "velocity": 55, "note_on_time": 8.151, "note_off_time": 8.494}, {"pitch": 64, "velocity": 38, "note_on_time": 8.899, "note_off_time": 9.248}, {"pitch": 62, "velocity": 57, "note_on_time": 9.583, "note_off_time": 9.942}, {"pitch": 64, "velocity": 48, "note_on_time": 10.273, "note_off_time": 10.703}, {"pitch": 60, "velocity": 57, "note_on_time": 10.971, "note_off_time": 12.382}, {"pitch": 64, "velocity": 55, "note_on_time": 14.339, "note_off_time": 14.754}, {"pitch": 60, "velocity": 64, "note_on_time": 14.986, "note_off_time": 15.376}, {"pitch": 60, "velocity": 59, "note_on_time": 15.672, "note_off_time": 16.707}, {"pitch": 62, "velocity": 48, "note_on_time": 17.097, "note_off_time": 18.612}, {"pitch": 60, "velocity": 59, "note_on_time": 20.485, "note_off_time": 20.777}, {"pitch": 62, "velocity": 46, "note_on_time": 22.433, "note_off_time": 22.962}, {"pitch": 62, "velocity": 54, "note_on_time": 23.721, "note_off_time": 24.039}, {"pitch": 62, "velocity": 56, "note_on_time": 24.364, "note_off_time": 24.675}, {"pitch": 62, "velocity": 54, "note_on_time": 24.994, "note_off_time": 25.249}]</notes><guidance name="Guidance Mode">None</guidance><error name="Error value">0.10249763157894738</error></trial><trial trial_no="4" timestamp="2022_12_22-11_02_56"><notes name="Played Notes">[{"pitch": 62, "velocity": 45, "note_on_time": 2.372, "note_off_time": 2.749}, {"pitch": 60, "velocity": 50, "note_on_time": 3.075, "note_off_time": 3.538}, {"pitch": 62, "velocity": 50, "note_on_time": 3.757, "note_off_time": 4.081}, {"pitch": 62, "velocity": 53, "note_on_time": 4.488, "note_off_time": 4.794}, {"pitch": 64, "velocity": 55, "note_on_time": 5.167, "note_off_time": 5.577}, {"pitch": 60, "velocity": 53, "note_on_time": 5.885, "note_off_time": 6.236}, {"pitch": 64, "velocity": 55, "note_on_time": 6.578, "note_off_time": 6.947}, {"pitch": 60, "velocity": 62, "note_on_time": 7.293, "note_off_time": 7.693}, {"pitch": 64, "velocity": 54, "note_on_time": 8.037, "note_off_time": 8.357}, {"pitch": 64, "velocity": 49, "note_on_time": 8.745, "note_off_time": 9.089}, {"pitch": 62, "velocity": 52, "note_on_time": 9.446, "note_off_time": 9.751}, {"pitch": 64, "velocity": 53, "note_on_time": 10.15, "note_off_time": 10.481}, {"pitch": 60, "velocity": 60, "note_on_time": 10.844, "note_off_time": 12.279}, {"pitch": 62, "velocity": 56, "note_on_time": 14.157, "note_off_time": 14.522}, {"pitch": 60, "velocity": 62, "note_on_time": 15.125, "note_off_time": 15.466}, {"pitch": 60, "velocity": 62, "note_on_time": 15.807, "note_off_time": 17.249}, {"pitch": 62, "velocity": 57, "note_on_time": 17.67, "note_off_time": 18.878}, {"pitch": 60, "velocity": 50, "note_on_time": 20.909, "note_off_time": 21.283}, {"pitch": 62, "velocity": 1, "note_on_time": 23.025, "note_off_time": 23.271}, {"pitch": 62, "velocity": 27, "note_on_time": 23.455, "note_off_time": 23.801}, {"pitch": 62, "velocity": 61, "note_on_time": 24.831, "note_off_time": 25.158}, {"pitch": 62, "velocity": 55, "note_on_time": 25.479, "note_off_time": 25.762}]</notes><guidance name="Guidance Mode">None</guidance><error name="Error value">0.23840384210526347</error></trial></trials></MIDI>