<MIDI midiNo="2022_11_03-09_13_12"><target_notes><notes name="Note List">[{"pitch": 42, "velocity": 80, "note_on_time": 0.004, "note_off_time": 0.224}, {"pitch": 42, "velocity": 80, "note_on_time": 0.224, "note_off_time": 0.441}, {"pitch": 42, "velocity": 80, "note_on_time": 0.441, "note_off_time": 0.658}, {"pitch": 42, "velocity": 80, "note_on_time": 0.658, "note_off_time": 0.875}, {"pitch": 67, "velocity": 80, "note_on_time": 0.875, "note_off_time": 1.095}, {"pitch": 42, "velocity": 80, "note_on_time": 0.875, "note_off_time": 1.095}, {"pitch": 62, "velocity": 80, "note_on_time": 1.095, "note_off_time": 1.313}, {"pitch": 42, "velocity": 80, "note_on_time": 1.096, "note_off_time": 1.313}, {"pitch": 64, "velocity": 80, "note_on_time": 1.313, "note_off_time": 1.53}, {"pitch": 42, "velocity": 80, "note_on_time": 1.313, "note_off_time": 1.53}, {"pitch": 64, "velocity": 80, "note_on_time": 1.53, "note_off_time": 1.748}, {"pitch": 42, "velocity": 80, "note_on_time": 1.53, "note_off_time": 1.748}, {"pitch": 42, "velocity": 80, "note_on_time": 1.748, "note_off_time": 1.966}, {"pitch": 64, "velocity": 80, "note_on_time": 1.748, "note_off_time": 2.183}, {"pitch": 42, "velocity": 80, "note_on_time": 1.966, "note_off_time": 2.183}, {"pitch": 42, "velocity": 80, "note_on_time": 2.183, "note_off_time": 2.4}, {"pitch": 64, "velocity": 80, "note_on_time": 2.183, "note_off_time": 2.617}, {"pitch": 42, "velocity": 80, "note_on_time": 2.4, "note_off_time": 2.617}, {"pitch": 64, "velocity": 80, "note_on_time": 2.617, "note_off_time": 2.835}, {"pitch": 42, "velocity": 80, "note_on_time": 2.617, "note_off_time": 2.835}, {"pitch": 67, "velocity": 80, "note_on_time": 2.835, "note_off_time": 3.052}, {"pitch": 42, "velocity": 80, "note_on_time": 2.835, "note_off_time": 3.052}, {"pitch": 65, "velocity": 80, "note_on_time": 3.052, "note_off_time": 3.271}, {"pitch": 42, "velocity": 80, "note_on_time": 3.053, "note_off_time": 3.271}, {"pitch": 64, "velocity": 80, "note_on_time": 3.271, "note_off_time": 3.488}, {"pitch": 42, "velocity": 80, "note_on_time": 3.271, "note_off_time": 3.488}, {"pitch": 67, "velocity": 80, "note_on_time": 3.488, "note_off_time": 3.707}, {"pitch": 42, "velocity": 80, "note_on_time": 3.488, "note_off_time": 3.707}, {"pitch": 65, "velocity": 80, "note_on_time": 3.707, "note_off_time": 3.925}, {"pitch": 42, "velocity": 80, "note_on_time": 3.707, "note_off_time": 3.925}, {"pitch": 67, "velocity": 80, "note_on_time": 3.925, "note_off_time": 4.144}, {"pitch": 42, "velocity": 80, "note_on_time": 3.925, "note_off_time": 4.145}, {"pitch": 67, "velocity": 80, "note_on_time": 4.144, "note_off_time": 4.362}, {"pitch": 42, "velocity": 80, "note_on_time": 4.145, "note_off_time": 4.362}, {"pitch": 62, "velocity": 80, "note_on_time": 4.362, "note_off_time": 4.579}, {"pitch": 42, "velocity": 80, "note_on_time": 4.362, "note_off_time": 4.579}, {"pitch": 64, "velocity": 80, "note_on_time": 4.579, "note_off_time": 4.796}, {"pitch": 42, "velocity": 80, "note_on_time": 4.579, "note_off_time": 4.796}, {"pitch": 62, "velocity": 80, "note_on_time": 4.796, "note_off_time": 5.013}, {"pitch": 42, "velocity": 80, "note_on_time": 4.796, "note_off_time": 5.013}, {"pitch": 62, "velocity": 80, "note_on_time": 5.013, "note_off_time": 5.23}, {"pitch": 42, "velocity": 80, "note_on_time": 5.013, "note_off_time": 5.23}, {"pitch": 65, "velocity": 80, "note_on_time": 5.23, "note_off_time": 5.448}, {"pitch": 42, "velocity": 80, "note_on_time": 5.23, "note_off_time": 5.448}, {"pitch": 62, "velocity": 80, "note_on_time": 5.448, "note_off_time": 5.667}, {"pitch": 42, "velocity": 80, "note_on_time": 5.448, "note_off_time": 5.667}, {"pitch": 64, "velocity": 80, "note_on_time": 5.667, "note_off_time": 5.885}, {"pitch": 42, "velocity": 80, "note_on_time": 5.668, "note_off_time": 5.885}, {"pitch": 62, "velocity": 80, "note_on_time": 5.885, "note_off_time": 6.104}, {"pitch": 42, "velocity": 80, "note_on_time": 5.885, "note_off_time": 6.104}, {"pitch": 67, "velocity": 80, "note_on_time": 6.104, "note_off_time": 6.323}, {"pitch": 42, "velocity": 80, "note_on_time": 6.104, "note_off_time": 6.323}, {"pitch": 67, "velocity": 80, "note_on_time": 6.323, "note_off_time": 6.54}, {"pitch": 42, "velocity": 80, "note_on_time": 6.324, "note_off_time": 6.54}, {"pitch": 65, "velocity": 80, "note_on_time": 6.54, "note_off_time": 6.757}, {"pitch": 42, "velocity": 80, "note_on_time": 6.54, "note_off_time": 6.757}, {"pitch": 65, "velocity": 80, "note_on_time": 6.757, "note_off_time": 6.975}, {"pitch": 42, "velocity": 80, "note_on_time": 6.757, "note_off_time": 6.975}, {"pitch": 42, "velocity": 80, "note_on_time": 6.975, "note_off_time": 7.194}, {"pitch": 65, "velocity": 80, "note_on_time": 7.194, "note_off_time": 7.411}, {"pitch": 42, "velocity": 80, "note_on_time": 7.195, "note_off_time": 7.411}, {"pitch": 65, "velocity": 80, "note_on_time": 7.411, "note_off_time": 7.628}, {"pitch": 42, "velocity": 80, "note_on_time": 7.411, "note_off_time": 7.628}, {"pitch": 65, "velocity": 80, "note_on_time": 7.628, "note_off_time": 7.845}, {"pitch": 42, "velocity": 80, "note_on_time": 7.628, "note_off_time": 7.845}]</notes><options name="Option List">((4, 4), [0.5, 0.25], 3, 8, &lt;NoteRangePerHand.C_TO_G: 6&gt;, &lt;NoteRangePerHand.ONE_NOTE: 2&gt;, False, True, False, '281')</options></target_notes><trials><trial trial_no="1" timestamp="2022_11_03-09_13_03"><notes name="Played Notes">[{"pitch": 67, "velocity": 61, "note_on_time": 0.887, "note_off_time": 1.311}, {"pitch": 62, "velocity": 59, "note_on_time": 1.093, "note_off_time": 1.351}, {"pitch": 64, "velocity": 78, "note_on_time": 1.301, "note_off_time": 1.393}, {"pitch": 64, "velocity": 72, "note_on_time": 1.478, "note_off_time": 1.591}, {"pitch": 64, "velocity": 63, "note_on_time": 1.684, "note_off_time": 1.994}, {"pitch": 64, "velocity": 79, "note_on_time": 2.075, "note_off_time": 2.367}, {"pitch": 64, "velocity": 59, "note_on_time": 2.551, "note_off_time": 2.803}, {"pitch": 67, "velocity": 57, "note_on_time": 2.749, "note_off_time": 3.052}, {"pitch": 65, "velocity": 77, "note_on_time": 2.981, "note_off_time": 3.222}, {"pitch": 64, "velocity": 75, "note_on_time": 3.181, "note_off_time": 3.463}, {"pitch": 67, "velocity": 68, "note_on_time": 3.427, "note_off_time": 3.708}, {"pitch": 65, "velocity": 70, "note_on_time": 3.645, "note_off_time": 3.931}, {"pitch": 67, "velocity": 67, "note_on_time": 3.883, "note_off_time": 3.978}, {"pitch": 67, "velocity": 63, "note_on_time": 4.099, "note_off_time": 4.361}, {"pitch": 62, "velocity": 68, "note_on_time": 4.341, "note_off_time": 4.566}, {"pitch": 64, "velocity": 61, "note_on_time": 4.549, "note_off_time": 4.811}, {"pitch": 62, "velocity": 60, "note_on_time": 4.766, "note_off_time": 4.858}, {"pitch": 62, "velocity": 54, "note_on_time": 4.963, "note_off_time": 5.228}, {"pitch": 65, "velocity": 69, "note_on_time": 5.205, "note_off_time": 5.465}, {"pitch": 62, "velocity": 51, "note_on_time": 5.417, "note_off_time": 5.642}, {"pitch": 64, "velocity": 62, "note_on_time": 5.641, "note_off_time": 5.851}, {"pitch": 62, "velocity": 56, "note_on_time": 5.833, "note_off_time": 6.135}, {"pitch": 67, "velocity": 65, "note_on_time": 6.048, "note_off_time": 6.161}, {"pitch": 67, "velocity": 71, "note_on_time": 6.245, "note_off_time": 6.538}, {"pitch": 65, "velocity": 77, "note_on_time": 6.482, "note_off_time": 6.608}, {"pitch": 65, "velocity": 68, "note_on_time": 6.697, "note_off_time": 6.973}, {"pitch": 65, "velocity": 67, "note_on_time": 7.219, "note_off_time": 7.326}, {"pitch": 65, "velocity": 65, "note_on_time": 7.431, "note_off_time": 7.528}, {"pitch": 65, "velocity": 62, "note_on_time": 7.63, "note_off_time": 7.772}]</notes><guidance name="Guidance Mode">None</guidance><error name="Error value">0.02013373076923073</error></trial><trial trial_no="2" timestamp="2022_11_03-09_13_19"><notes name="Played Notes">[{"pitch": 67, "velocity": 61, "note_on_time": 0.936, "note_off_time": 1.352}, {"pitch": 62, "velocity": 53, "note_on_time": 1.169, "note_off_time": 1.453}, {"pitch": 64, "velocity": 68, "note_on_time": 1.401, "note_off_time": 1.486}, {"pitch": 64, "velocity": 74, "note_on_time": 1.573, "note_off_time": 1.671}, {"pitch": 64, "velocity": 65, "note_on_time": 1.795, "note_off_time": 2.093}, {"pitch": 64, "velocity": 70, "note_on_time": 2.204, "note_off_time": 2.497}, {"pitch": 64, "velocity": 58, "note_on_time": 2.623, "note_off_time": 2.898}, {"pitch": 67, "velocity": 68, "note_on_time": 2.849, "note_off_time": 3.193}, {"pitch": 65, "velocity": 72, "note_on_time": 3.069, "note_off_time": 3.276}, {"pitch": 64, "velocity": 69, "note_on_time": 3.256, "note_off_time": 3.515}, {"pitch": 67, "velocity": 73, "note_on_time": 3.483, "note_off_time": 3.737}, {"pitch": 65, "velocity": 79, "note_on_time": 3.688, "note_off_time": 3.938}, {"pitch": 67, "velocity": 72, "note_on_time": 3.898, "note_off_time": 4.001}, {"pitch": 67, "velocity": 63, "note_on_time": 4.115, "note_off_time": 4.35}, {"pitch": 62, "velocity": 61, "note_on_time": 4.341, "note_off_time": 4.578}, {"pitch": 64, "velocity": 60, "note_on_time": 4.578, "note_off_time": 4.825}, {"pitch": 62, "velocity": 63, "note_on_time": 4.787, "note_off_time": 4.898}, {"pitch": 62, "velocity": 47, "note_on_time": 5.002, "note_off_time": 5.25}, {"pitch": 65, "velocity": 67, "note_on_time": 5.24, "note_off_time": 5.44}, {"pitch": 62, "velocity": 51, "note_on_time": 5.436, "note_off_time": 5.663}, {"pitch": 64, "velocity": 59, "note_on_time": 5.679, "note_off_time": 5.85}, {"pitch": 62, "velocity": 58, "note_on_time": 5.844, "note_off_time": 6.134}, {"pitch": 67, "velocity": 62, "note_on_time": 6.08, "note_off_time": 6.19}, {"pitch": 67, "velocity": 67, "note_on_time": 6.29, "note_off_time": 6.591}, {"pitch": 65, "velocity": 73, "note_on_time": 6.524, "note_off_time": 6.662}, {"pitch": 65, "velocity": 76, "note_on_time": 6.744, "note_off_time": 6.983}, {"pitch": 65, "velocity": 65, "note_on_time": 7.258, "note_off_time": 7.347}, {"pitch": 65, "velocity": 62, "note_on_time": 7.459, "note_off_time": 7.553}, {"pitch": 65, "velocity": 52, "note_on_time": 7.662, "note_off_time": 7.818}]</notes><guidance name="Guidance Mode">None</guidance><error name="Error value">0.019747346153846136</error></trial><trial trial_no="3" timestamp="2022_11_03-09_13_38"><notes name="Played Notes">[{"pitch": 67, "velocity": 50, "note_on_time": 0.89, "note_off_time": 1.224}, {"pitch": 62, "velocity": 52, "note_on_time": 1.122, "note_off_time": 1.391}, {"pitch": 64, "velocity": 70, "note_on_time": 1.341, "note_off_time": 1.42}, {"pitch": 64, "velocity": 67, "note_on_time": 1.523, "note_off_time": 1.615}, {"pitch": 64, "velocity": 74, "note_on_time": 1.751, "note_off_time": 2.077}, {"pitch": 64, "velocity": 78, "note_on_time": 2.163, "note_off_time": 2.459}, {"pitch": 64, "velocity": 64, "note_on_time": 2.618, "note_off_time": 2.872}, {"pitch": 67, "velocity": 65, "note_on_time": 2.818, "note_off_time": 3.146}, {"pitch": 65, "velocity": 80, "note_on_time": 3.056, "note_off_time": 3.266}, {"pitch": 64, "velocity": 78, "note_on_time": 3.256, "note_off_time": 3.498}, {"pitch": 67, "velocity": 73, "note_on_time": 3.462, "note_off_time": 3.713}, {"pitch": 65, "velocity": 80, "note_on_time": 3.663, "note_off_time": 3.948}, {"pitch": 67, "velocity": 65, "note_on_time": 3.899, "note_off_time": 4.007}, {"pitch": 67, "velocity": 59, "note_on_time": 4.128, "note_off_time": 4.373}, {"pitch": 62, "velocity": 66, "note_on_time": 4.372, "note_off_time": 4.628}, {"pitch": 64, "velocity": 64, "note_on_time": 4.6, "note_off_time": 4.86}, {"pitch": 62, "velocity": 60, "note_on_time": 4.814, "note_off_time": 4.925}, {"pitch": 62, "velocity": 54, "note_on_time": 5.032, "note_off_time": 5.161}, {"pitch": 65, "velocity": 65, "note_on_time": 5.242, "note_off_time": 5.468}, {"pitch": 62, "velocity": 61, "note_on_time": 5.453, "note_off_time": 5.682}, {"pitch": 64, "velocity": 68, "note_on_time": 5.671, "note_off_time": 5.86}, {"pitch": 62, "velocity": 67, "note_on_time": 5.855, "note_off_time": 6.134}, {"pitch": 67, "velocity": 64, "note_on_time": 6.065, "note_off_time": 6.189}, {"pitch": 67, "velocity": 74, "note_on_time": 6.278, "note_off_time": 6.554}, {"pitch": 65, "velocity": 78, "note_on_time": 6.516, "note_off_time": 6.673}, {"pitch": 65, "velocity": 73, "note_on_time": 6.758, "note_off_time": 7.057}, {"pitch": 65, "velocity": 66, "note_on_time": 7.264, "note_off_time": 7.339}, {"pitch": 65, "velocity": 64, "note_on_time": 7.488, "note_off_time": 7.567}, {"pitch": 65, "velocity": 56, "note_on_time": 7.698, "note_off_time": 7.822}]</notes><guidance name="Guidance Mode">None</guidance><error name="Error value">0.017784038461538473</error></trial><trial trial_no="4" timestamp="2022_11_03-09_13_57"><notes name="Played Notes">[{"pitch": 67, "velocity": 46, "note_on_time": 0.894, "note_off_time": 1.188}, {"pitch": 62, "velocity": 45, "note_on_time": 1.139, "note_off_time": 1.395}, {"pitch": 64, "velocity": 62, "note_on_time": 1.352, "note_off_time": 1.411}, {"pitch": 64, "velocity": 61, "note_on_time": 1.533, "note_off_time": 1.633}, {"pitch": 64, "velocity": 72, "note_on_time": 1.78, "note_off_time": 2.101}, {"pitch": 64, "velocity": 49, "note_on_time": 2.223, "note_off_time": 2.514}, {"pitch": 64, "velocity": 52, "note_on_time": 2.641, "note_off_time": 2.904}, {"pitch": 67, "velocity": 61, "note_on_time": 2.849, "note_off_time": 3.136}, {"pitch": 65, "velocity": 77, "note_on_time": 3.068, "note_off_time": 3.278}, {"pitch": 64, "velocity": 64, "note_on_time": 3.255, "note_off_time": 3.514}, {"pitch": 67, "velocity": 67, "note_on_time": 3.495, "note_off_time": 3.728}, {"pitch": 65, "velocity": 72, "note_on_time": 3.686, "note_off_time": 3.945}, {"pitch": 67, "velocity": 70, "note_on_time": 3.902, "note_off_time": 4.009}, {"pitch": 67, "velocity": 62, "note_on_time": 4.134, "note_off_time": 4.347}, {"pitch": 62, "velocity": 62, "note_on_time": 4.358, "note_off_time": 4.579}, {"pitch": 64, "velocity": 61, "note_on_time": 4.578, "note_off_time": 4.803}, {"pitch": 62, "velocity": 62, "note_on_time": 4.78, "note_off_time": 4.887}, {"pitch": 62, "velocity": 47, "note_on_time": 5.007, "note_off_time": 5.252}, {"pitch": 65, "velocity": 73, "note_on_time": 5.229, "note_off_time": 5.409}, {"pitch": 62, "velocity": 62, "note_on_time": 5.426, "note_off_time": 5.657}, {"pitch": 64, "velocity": 59, "note_on_time": 5.669, "note_off_time": 5.847}, {"pitch": 62, "velocity": 59, "note_on_time": 5.862, "note_off_time": 6.131}, {"pitch": 67, "velocity": 65, "note_on_time": 6.077, "note_off_time": 6.193}, {"pitch": 67, "velocity": 67, "note_on_time": 6.296, "note_off_time": 6.596}, {"pitch": 65, "velocity": 73, "note_on_time": 6.548, "note_off_time": 6.679}, {"pitch": 65, "velocity": 68, "note_on_time": 6.772, "note_off_time": 7.088}, {"pitch": 65, "velocity": 66, "note_on_time": 7.273, "note_off_time": 7.354}, {"pitch": 65, "velocity": 77, "note_on_time": 7.489, "note_off_time": 7.561}, {"pitch": 65, "velocity": 79, "note_on_time": 7.696, "note_off_time": 7.82}]</notes><guidance name="Guidance Mode">None</guidance><error name="Error value">0.01870357692307678</error></trial><trial trial_no="5" timestamp="2022_11_03-09_14_12"><notes name="Played Notes">[{"pitch": 67, "velocity": 55, "note_on_time": 6.14, "note_off_time": 6.376}, {"pitch": 62, "velocity": 64, "note_on_time": 6.33, "note_off_time": 6.601}, {"pitch": 64, "velocity": 61, "note_on_time": 6.563, "note_off_time": 6.617}, {"pitch": 64, "velocity": 51, "note_on_time": 6.738, "note_off_time": 6.827}, {"pitch": 64, "velocity": 72, "note_on_time": 6.976, "note_off_time": 7.289}, {"pitch": 64, "velocity": 50, "note_on_time": 7.401, "note_off_time": 7.665}]</notes><guidance name="Guidance Mode">None</guidance><error name="Error value">1.1685028846153847</error></trial></trials></MIDI>