<MIDI midiNo="2022_12_08-12_04_48"><target_notes><notes name="Note List">[{"pitch": 42, "velocity": 80, "note_on_time": 0.004, "note_off_time": 0.341}, {"pitch": 42, "velocity": 80, "note_on_time": 0.342, "note_off_time": 0.685}, {"pitch": 42, "velocity": 80, "note_on_time": 0.685, "note_off_time": 1.026}, {"pitch": 42, "velocity": 80, "note_on_time": 1.026, "note_off_time": 1.37}, {"pitch": 65, "velocity": 80, "note_on_time": 1.37, "note_off_time": 1.71}, {"pitch": 42, "velocity": 80, "note_on_time": 1.37, "note_off_time": 1.711}, {"pitch": 62, "velocity": 80, "note_on_time": 1.71, "note_off_time": 2.054}, {"pitch": 42, "velocity": 80, "note_on_time": 1.711, "note_off_time": 2.055}, {"pitch": 65, "velocity": 80, "note_on_time": 2.054, "note_off_time": 2.398}, {"pitch": 42, "velocity": 80, "note_on_time": 2.055, "note_off_time": 2.398}, {"pitch": 60, "velocity": 80, "note_on_time": 2.398, "note_off_time": 2.742}, {"pitch": 42, "velocity": 80, "note_on_time": 2.398, "note_off_time": 2.742}, {"pitch": 42, "velocity": 80, "note_on_time": 2.742, "note_off_time": 3.085}, {"pitch": 62, "velocity": 80, "note_on_time": 2.742, "note_off_time": 3.431}, {"pitch": 42, "velocity": 80, "note_on_time": 3.086, "note_off_time": 3.431}, {"pitch": 65, "velocity": 80, "note_on_time": 3.431, "note_off_time": 3.773}, {"pitch": 42, "velocity": 80, "note_on_time": 3.431, "note_off_time": 3.773}, {"pitch": 65, "velocity": 80, "note_on_time": 3.773, "note_off_time": 4.114}, {"pitch": 42, "velocity": 80, "note_on_time": 3.773, "note_off_time": 4.114}, {"pitch": 42, "velocity": 80, "note_on_time": 4.115, "note_off_time": 4.459}, {"pitch": 64, "velocity": 80, "note_on_time": 4.114, "note_off_time": 4.8}, {"pitch": 42, "velocity": 80, "note_on_time": 4.46, "note_off_time": 4.801}, {"pitch": 42, "velocity": 80, "note_on_time": 4.801, "note_off_time": 5.143}, {"pitch": 42, "velocity": 80, "note_on_time": 5.143, "note_off_time": 5.487}, {"pitch": 65, "velocity": 80, "note_on_time": 5.487, "note_off_time": 5.829}, {"pitch": 42, "velocity": 80, "note_on_time": 5.487, "note_off_time": 5.829}, {"pitch": 65, "velocity": 80, "note_on_time": 5.829, "note_off_time": 6.172}, {"pitch": 42, "velocity": 80, "note_on_time": 5.829, "note_off_time": 6.172}, {"pitch": 65, "velocity": 80, "note_on_time": 6.172, "note_off_time": 6.519}, {"pitch": 42, "velocity": 80, "note_on_time": 6.173, "note_off_time": 6.519}, {"pitch": 62, "velocity": 80, "note_on_time": 6.519, "note_off_time": 6.861}, {"pitch": 42, "velocity": 80, "note_on_time": 6.52, "note_off_time": 6.861}, {"pitch": 65, "velocity": 80, "note_on_time": 6.861, "note_off_time": 7.203}, {"pitch": 42, "velocity": 80, "note_on_time": 6.861, "note_off_time": 7.204}, {"pitch": 65, "velocity": 80, "note_on_time": 7.203, "note_off_time": 7.547}, {"pitch": 42, "velocity": 80, "note_on_time": 7.204, "note_off_time": 7.547}, {"pitch": 42, "velocity": 80, "note_on_time": 7.547, "note_off_time": 7.89}, {"pitch": 62, "velocity": 80, "note_on_time": 7.89, "note_off_time": 8.235}, {"pitch": 42, "velocity": 80, "note_on_time": 7.891, "note_off_time": 8.236}, {"pitch": 60, "velocity": 80, "note_on_time": 8.235, "note_off_time": 8.577}, {"pitch": 42, "velocity": 80, "note_on_time": 8.236, "note_off_time": 8.577}, {"pitch": 67, "velocity": 80, "note_on_time": 8.577, "note_off_time": 8.92}, {"pitch": 42, "velocity": 80, "note_on_time": 8.578, "note_off_time": 8.92}, {"pitch": 65, "velocity": 80, "note_on_time": 8.92, "note_off_time": 9.265}, {"pitch": 42, "velocity": 80, "note_on_time": 8.92, "note_off_time": 9.265}, {"pitch": 62, "velocity": 80, "note_on_time": 9.265, "note_off_time": 9.607}, {"pitch": 42, "velocity": 80, "note_on_time": 9.266, "note_off_time": 9.607}, {"pitch": 42, "velocity": 80, "note_on_time": 9.608, "note_off_time": 9.95}, {"pitch": 62, "velocity": 80, "note_on_time": 9.607, "note_off_time": 10.293}, {"pitch": 42, "velocity": 80, "note_on_time": 9.95, "note_off_time": 10.293}, {"pitch": 42, "velocity": 80, "note_on_time": 10.293, "note_off_time": 10.637}, {"pitch": 42, "velocity": 80, "note_on_time": 10.638, "note_off_time": 10.981}, {"pitch": 42, "velocity": 80, "note_on_time": 10.982, "note_off_time": 11.324}, {"pitch": 62, "velocity": 80, "note_on_time": 11.324, "note_off_time": 11.666}, {"pitch": 42, "velocity": 80, "note_on_time": 11.324, "note_off_time": 11.666}, {"pitch": 62, "velocity": 80, "note_on_time": 11.666, "note_off_time": 12.009}, {"pitch": 42, "velocity": 80, "note_on_time": 11.666, "note_off_time": 12.009}, {"pitch": 62, "velocity": 80, "note_on_time": 12.009, "note_off_time": 12.355}, {"pitch": 42, "velocity": 80, "note_on_time": 12.01, "note_off_time": 12.356}]</notes><options name="Option List">((4, 4), [0.5, 0.25], 3, 8, &lt;NoteRangePerHand.C_TO_G: 6&gt;, &lt;NoteRangePerHand.ONE_NOTE: 2&gt;, False, True, False, 182)</options></target_notes><trials><trial trial_no="1" timestamp="2022_12_08-12_04_34"><notes name="Played Notes">[{"pitch": 65, "velocity": 87, "note_on_time": 1.325, "note_off_time": 1.522}, {"pitch": 62, "velocity": 81, "note_on_time": 1.661, "note_off_time": 1.846}, {"pitch": 65, "velocity": 76, "note_on_time": 1.997, "note_off_time": 2.187}, {"pitch": 60, "velocity": 87, "note_on_time": 2.359, "note_off_time": 2.497}, {"pitch": 62, "velocity": 86, "note_on_time": 2.715, "note_off_time": 3.317}, {"pitch": 65, "velocity": 88, "note_on_time": 3.46, "note_off_time": 3.617}, {"pitch": 65, "velocity": 88, "note_on_time": 3.812, "note_off_time": 3.963}, {"pitch": 64, "velocity": 92, "note_on_time": 4.162, "note_off_time": 4.715}, {"pitch": 65, "velocity": 89, "note_on_time": 5.494, "note_off_time": 5.638}, {"pitch": 65, "velocity": 86, "note_on_time": 5.85, "note_off_time": 6.016}, {"pitch": 62, "velocity": 89, "note_on_time": 6.188, "note_off_time": 6.335}, {"pitch": 65, "velocity": 91, "note_on_time": 6.529, "note_off_time": 6.665}, {"pitch": 65, "velocity": 96, "note_on_time": 6.888, "note_off_time": 7.056}, {"pitch": 62, "velocity": 88, "note_on_time": 7.555, "note_off_time": 7.726}, {"pitch": 60, "velocity": 81, "note_on_time": 7.89, "note_off_time": 8.041}, {"pitch": 67, "velocity": 55, "note_on_time": 8.332, "note_off_time": 8.496}, {"pitch": 65, "velocity": 70, "note_on_time": 8.63, "note_off_time": 8.753}, {"pitch": 62, "velocity": 82, "note_on_time": 8.949, "note_off_time": 9.357}, {"pitch": 62, "velocity": 71, "note_on_time": 9.583, "note_off_time": 10.049}, {"pitch": 62, "velocity": 88, "note_on_time": 11.287, "note_off_time": 11.377}, {"pitch": 62, "velocity": 96, "note_on_time": 11.608, "note_off_time": 11.693}, {"pitch": 62, "velocity": 97, "note_on_time": 11.937, "note_off_time": 12.069}]</notes><guidance name="Guidance Mode">None</guidance><error name="Error value">0.10708050000000016</error></trial><trial trial_no="2" timestamp="2022_12_08-12_04_54"><notes name="Played Notes">[{"pitch": 65, "velocity": 73, "note_on_time": 1.394, "note_off_time": 1.53}, {"pitch": 62, "velocity": 80, "note_on_time": 1.714, "note_off_time": 1.856}, {"pitch": 65, "velocity": 75, "note_on_time": 2.04, "note_off_time": 2.199}, {"pitch": 60, "velocity": 76, "note_on_time": 2.396, "note_off_time": 2.516}, {"pitch": 62, "velocity": 86, "note_on_time": 2.725, "note_off_time": 3.268}, {"pitch": 65, "velocity": 88, "note_on_time": 3.445, "note_off_time": 3.561}, {"pitch": 65, "velocity": 81, "note_on_time": 3.786, "note_off_time": 3.933}, {"pitch": 64, "velocity": 88, "note_on_time": 4.134, "note_off_time": 4.6}, {"pitch": 65, "velocity": 84, "note_on_time": 5.5, "note_off_time": 5.616}, {"pitch": 65, "velocity": 81, "note_on_time": 5.848, "note_off_time": 5.972}, {"pitch": 62, "velocity": 77, "note_on_time": 6.191, "note_off_time": 6.342}, {"pitch": 65, "velocity": 83, "note_on_time": 6.54, "note_off_time": 6.652}, {"pitch": 65, "velocity": 84, "note_on_time": 6.902, "note_off_time": 7.089}, {"pitch": 62, "velocity": 87, "note_on_time": 7.583, "note_off_time": 7.805}, {"pitch": 60, "velocity": 75, "note_on_time": 7.923, "note_off_time": 8.052}, {"pitch": 67, "velocity": 74, "note_on_time": 8.266, "note_off_time": 8.414}, {"pitch": 65, "velocity": 77, "note_on_time": 8.597, "note_off_time": 8.739}, {"pitch": 62, "velocity": 83, "note_on_time": 8.949, "note_off_time": 9.092}, {"pitch": 62, "velocity": 89, "note_on_time": 9.249, "note_off_time": 9.648}, {"pitch": 62, "velocity": 87, "note_on_time": 10.628, "note_off_time": 10.718}, {"pitch": 62, "velocity": 92, "note_on_time": 10.949, "note_off_time": 11.042}, {"pitch": 62, "velocity": 96, "note_on_time": 11.283, "note_off_time": 11.452}]</notes><guidance name="Guidance Mode">None</guidance><error name="Error value">0.09623249999999994</error></trial><trial trial_no="3" timestamp="2022_12_08-12_05_15"><notes name="Played Notes">[{"pitch": 65, "velocity": 84, "note_on_time": 1.385, "note_off_time": 1.56}, {"pitch": 62, "velocity": 80, "note_on_time": 1.714, "note_off_time": 1.858}, {"pitch": 65, "velocity": 81, "note_on_time": 2.033, "note_off_time": 2.209}, {"pitch": 60, "velocity": 81, "note_on_time": 2.375, "note_off_time": 2.492}, {"pitch": 62, "velocity": 79, "note_on_time": 2.714, "note_off_time": 3.258}, {"pitch": 65, "velocity": 83, "note_on_time": 3.452, "note_off_time": 3.724}, {"pitch": 65, "velocity": 74, "note_on_time": 3.818, "note_off_time": 4.015}, {"pitch": 64, "velocity": 90, "note_on_time": 4.146, "note_off_time": 4.628}, {"pitch": 65, "velocity": 86, "note_on_time": 5.476, "note_off_time": 5.603}, {"pitch": 65, "velocity": 83, "note_on_time": 5.814, "note_off_time": 5.973}, {"pitch": 62, "velocity": 80, "note_on_time": 6.179, "note_off_time": 6.342}, {"pitch": 65, "velocity": 88, "note_on_time": 6.523, "note_off_time": 6.637}, {"pitch": 65, "velocity": 85, "note_on_time": 6.898, "note_off_time": 7.085}, {"pitch": 65, "velocity": 83, "note_on_time": 7.919, "note_off_time": 8.041}, {"pitch": 62, "velocity": 59, "note_on_time": 8.265, "note_off_time": 8.389}, {"pitch": 60, "velocity": 60, "note_on_time": 8.562, "note_off_time": 8.636}, {"pitch": 67, "velocity": 75, "note_on_time": 8.904, "note_off_time": 9.071}, {"pitch": 65, "velocity": 66, "note_on_time": 9.22, "note_off_time": 9.333}, {"pitch": 62, "velocity": 83, "note_on_time": 9.539, "note_off_time": 9.653}, {"pitch": 62, "velocity": 93, "note_on_time": 9.914, "note_off_time": 10.21}, {"pitch": 62, "velocity": 85, "note_on_time": 11.007, "note_off_time": 11.114}, {"pitch": 62, "velocity": 97, "note_on_time": 11.325, "note_off_time": 11.423}, {"pitch": 62, "velocity": 101, "note_on_time": 11.648, "note_off_time": 11.808}]</notes><guidance name="Guidance Mode">None</guidance><error name="Error value">0.19786650000000006</error></trial></trials></MIDI>