<MIDI midiNo="2022_10_27-13_26_26"><target_notes><notes name="Note List">[{"pitch": 42, "velocity": 80, "note_on_time": 0.004, "note_off_time": 0.615}, {"pitch": 42, "velocity": 80, "note_on_time": 0.615, "note_off_time": 1.222}, {"pitch": 42, "velocity": 80, "note_on_time": 1.222, "note_off_time": 1.828}, {"pitch": 42, "velocity": 80, "note_on_time": 1.828, "note_off_time": 2.435}, {"pitch": 60, "velocity": 80, "note_on_time": 2.434, "note_off_time": 3.042}, {"pitch": 42, "velocity": 80, "note_on_time": 2.435, "note_off_time": 3.042}, {"pitch": 67, "velocity": 80, "note_on_time": 3.042, "note_off_time": 3.648}, {"pitch": 42, "velocity": 80, "note_on_time": 3.042, "note_off_time": 3.649}, {"pitch": 67, "velocity": 80, "note_on_time": 3.648, "note_off_time": 4.254}, {"pitch": 42, "velocity": 80, "note_on_time": 3.649, "note_off_time": 4.255}, {"pitch": 64, "velocity": 80, "note_on_time": 4.254, "note_off_time": 4.863}, {"pitch": 42, "velocity": 80, "note_on_time": 4.255, "note_off_time": 4.863}, {"pitch": 67, "velocity": 80, "note_on_time": 4.863, "note_off_time": 5.468}, {"pitch": 42, "velocity": 80, "note_on_time": 4.863, "note_off_time": 5.468}, {"pitch": 62, "velocity": 80, "note_on_time": 5.468, "note_off_time": 6.077}, {"pitch": 42, "velocity": 80, "note_on_time": 5.469, "note_off_time": 6.077}, {"pitch": 64, "velocity": 80, "note_on_time": 6.077, "note_off_time": 6.68}, {"pitch": 42, "velocity": 80, "note_on_time": 6.078, "note_off_time": 6.681}, {"pitch": 64, "velocity": 80, "note_on_time": 6.68, "note_off_time": 7.289}, {"pitch": 42, "velocity": 80, "note_on_time": 6.681, "note_off_time": 7.289}, {"pitch": 65, "velocity": 80, "note_on_time": 7.289, "note_off_time": 7.896}, {"pitch": 42, "velocity": 80, "note_on_time": 7.289, "note_off_time": 7.896}, {"pitch": 60, "velocity": 80, "note_on_time": 7.896, "note_off_time": 8.504}, {"pitch": 42, "velocity": 80, "note_on_time": 7.897, "note_off_time": 8.504}, {"pitch": 60, "velocity": 80, "note_on_time": 8.504, "note_off_time": 9.109}, {"pitch": 42, "velocity": 80, "note_on_time": 8.505, "note_off_time": 9.11}, {"pitch": 67, "velocity": 80, "note_on_time": 9.109, "note_off_time": 9.717}, {"pitch": 42, "velocity": 80, "note_on_time": 9.11, "note_off_time": 9.717}, {"pitch": 64, "velocity": 80, "note_on_time": 9.717, "note_off_time": 10.322}, {"pitch": 42, "velocity": 80, "note_on_time": 9.717, "note_off_time": 10.322}, {"pitch": 64, "velocity": 80, "note_on_time": 10.322, "note_off_time": 10.929}, {"pitch": 42, "velocity": 80, "note_on_time": 10.323, "note_off_time": 10.929}, {"pitch": 60, "velocity": 80, "note_on_time": 10.929, "note_off_time": 11.533}, {"pitch": 42, "velocity": 80, "note_on_time": 10.93, "note_off_time": 11.534}, {"pitch": 64, "velocity": 80, "note_on_time": 11.533, "note_off_time": 12.142}, {"pitch": 42, "velocity": 80, "note_on_time": 11.534, "note_off_time": 12.142}, {"pitch": 64, "velocity": 80, "note_on_time": 12.142, "note_off_time": 12.75}, {"pitch": 42, "velocity": 80, "note_on_time": 12.142, "note_off_time": 12.75}, {"pitch": 62, "velocity": 80, "note_on_time": 12.75, "note_off_time": 13.357}, {"pitch": 42, "velocity": 80, "note_on_time": 12.75, "note_off_time": 13.357}, {"pitch": 62, "velocity": 80, "note_on_time": 13.357, "note_off_time": 13.967}, {"pitch": 42, "velocity": 80, "note_on_time": 13.358, "note_off_time": 13.967}, {"pitch": 67, "velocity": 80, "note_on_time": 13.967, "note_off_time": 14.575}, {"pitch": 42, "velocity": 80, "note_on_time": 13.968, "note_off_time": 14.575}, {"pitch": 64, "velocity": 80, "note_on_time": 14.575, "note_off_time": 15.18}, {"pitch": 42, "velocity": 80, "note_on_time": 14.575, "note_off_time": 15.181}, {"pitch": 62, "velocity": 80, "note_on_time": 15.18, "note_off_time": 15.783}, {"pitch": 42, "velocity": 80, "note_on_time": 15.181, "note_off_time": 15.784}, {"pitch": 67, "velocity": 80, "note_on_time": 15.783, "note_off_time": 16.391}, {"pitch": 42, "velocity": 80, "note_on_time": 15.784, "note_off_time": 16.392}, {"pitch": 42, "velocity": 80, "note_on_time": 16.392, "note_off_time": 17.002}, {"pitch": 65, "velocity": 80, "note_on_time": 17.002, "note_off_time": 17.609}, {"pitch": 42, "velocity": 80, "note_on_time": 17.003, "note_off_time": 17.61}, {"pitch": 67, "velocity": 80, "note_on_time": 17.609, "note_off_time": 18.218}, {"pitch": 42, "velocity": 80, "note_on_time": 17.61, "note_off_time": 18.218}, {"pitch": 42, "velocity": 80, "note_on_time": 18.218, "note_off_time": 18.827}, {"pitch": 67, "velocity": 80, "note_on_time": 18.826, "note_off_time": 19.43}, {"pitch": 42, "velocity": 80, "note_on_time": 18.827, "note_off_time": 19.431}, {"pitch": 42, "velocity": 80, "note_on_time": 19.431, "note_off_time": 20.039}, {"pitch": 67, "velocity": 80, "note_on_time": 20.039, "note_off_time": 20.644}, {"pitch": 42, "velocity": 80, "note_on_time": 20.039, "note_off_time": 20.644}, {"pitch": 67, "velocity": 80, "note_on_time": 20.644, "note_off_time": 21.251}, {"pitch": 42, "velocity": 80, "note_on_time": 20.644, "note_off_time": 21.251}, {"pitch": 67, "velocity": 80, "note_on_time": 21.251, "note_off_time": 21.857}, {"pitch": 42, "velocity": 80, "note_on_time": 21.251, "note_off_time": 21.857}]</notes><options name="Option List">((4, 4), [0.5, 0.25], 3, 8, &lt;NoteRangePerHand.C_TO_G: 6&gt;, &lt;NoteRangePerHand.ONE_NOTE: 2&gt;, False, True, False, '100')</options></target_notes><trials /></MIDI>