<MIDI midiNo="2022_11_21-19_41_30"><target_notes><notes name="Note List">[{"pitch": 42, "velocity": 80, "note_on_time": 0.004, "note_off_time": 0.415}, {"pitch": 42, "velocity": 80, "note_on_time": 0.415, "note_off_time": 0.82}, {"pitch": 42, "velocity": 80, "note_on_time": 0.82, "note_off_time": 1.226}, {"pitch": 42, "velocity": 80, "note_on_time": 1.227, "note_off_time": 1.631}, {"pitch": 60, "velocity": 80, "note_on_time": 1.631, "note_off_time": 2.035}, {"pitch": 42, "velocity": 80, "note_on_time": 1.631, "note_off_time": 2.035}, {"pitch": 42, "velocity": 80, "note_on_time": 2.036, "note_off_time": 2.44}, {"pitch": 64, "velocity": 80, "note_on_time": 2.035, "note_off_time": 2.844}, {"pitch": 42, "velocity": 80, "note_on_time": 2.44, "note_off_time": 2.844}, {"pitch": 42, "velocity": 80, "note_on_time": 2.844, "note_off_time": 3.251}, {"pitch": 62, "velocity": 80, "note_on_time": 3.251, "note_off_time": 3.657}, {"pitch": 42, "velocity": 80, "note_on_time": 3.251, "note_off_time": 3.657}, {"pitch": 62, "velocity": 80, "note_on_time": 3.657, "note_off_time": 4.059}, {"pitch": 42, "velocity": 80, "note_on_time": 3.657, "note_off_time": 4.059}, {"pitch": 60, "velocity": 80, "note_on_time": 4.059, "note_off_time": 4.465}, {"pitch": 42, "velocity": 80, "note_on_time": 4.06, "note_off_time": 4.465}, {"pitch": 60, "velocity": 80, "note_on_time": 4.465, "note_off_time": 4.867}, {"pitch": 42, "velocity": 80, "note_on_time": 4.465, "note_off_time": 4.868}, {"pitch": 62, "velocity": 80, "note_on_time": 4.867, "note_off_time": 5.273}, {"pitch": 42, "velocity": 80, "note_on_time": 4.868, "note_off_time": 5.273}, {"pitch": 60, "velocity": 80, "note_on_time": 5.273, "note_off_time": 5.678}, {"pitch": 42, "velocity": 80, "note_on_time": 5.274, "note_off_time": 5.678}, {"pitch": 62, "velocity": 80, "note_on_time": 5.678, "note_off_time": 6.083}, {"pitch": 42, "velocity": 80, "note_on_time": 5.678, "note_off_time": 6.083}, {"pitch": 62, "velocity": 80, "note_on_time": 6.083, "note_off_time": 6.489}, {"pitch": 42, "velocity": 80, "note_on_time": 6.083, "note_off_time": 6.489}, {"pitch": 62, "velocity": 80, "note_on_time": 6.489, "note_off_time": 6.905}, {"pitch": 42, "velocity": 80, "note_on_time": 6.489, "note_off_time": 6.906}, {"pitch": 42, "velocity": 80, "note_on_time": 6.906, "note_off_time": 7.308}, {"pitch": 62, "velocity": 80, "note_on_time": 6.905, "note_off_time": 7.712}, {"pitch": 42, "velocity": 80, "note_on_time": 7.309, "note_off_time": 7.713}, {"pitch": 64, "velocity": 80, "note_on_time": 7.712, "note_off_time": 8.121}, {"pitch": 42, "velocity": 80, "note_on_time": 7.713, "note_off_time": 8.121}, {"pitch": 60, "velocity": 80, "note_on_time": 8.121, "note_off_time": 8.523}, {"pitch": 42, "velocity": 80, "note_on_time": 8.121, "note_off_time": 8.524}, {"pitch": 60, "velocity": 80, "note_on_time": 8.523, "note_off_time": 8.928}, {"pitch": 42, "velocity": 80, "note_on_time": 8.524, "note_off_time": 8.928}, {"pitch": 42, "velocity": 80, "note_on_time": 8.929, "note_off_time": 9.334}, {"pitch": 60, "velocity": 80, "note_on_time": 9.334, "note_off_time": 9.739}, {"pitch": 42, "velocity": 80, "note_on_time": 9.334, "note_off_time": 9.739}, {"pitch": 64, "velocity": 80, "note_on_time": 9.739, "note_off_time": 10.145}, {"pitch": 42, "velocity": 80, "note_on_time": 9.739, "note_off_time": 10.145}, {"pitch": 62, "velocity": 80, "note_on_time": 10.145, "note_off_time": 10.551}, {"pitch": 42, "velocity": 80, "note_on_time": 10.145, "note_off_time": 10.551}, {"pitch": 62, "velocity": 80, "note_on_time": 10.551, "note_off_time": 10.956}, {"pitch": 42, "velocity": 80, "note_on_time": 10.551, "note_off_time": 10.956}, {"pitch": 64, "velocity": 80, "note_on_time": 10.956, "note_off_time": 11.357}, {"pitch": 42, "velocity": 80, "note_on_time": 10.956, "note_off_time": 11.357}, {"pitch": 64, "velocity": 80, "note_on_time": 11.357, "note_off_time": 11.762}, {"pitch": 42, "velocity": 80, "note_on_time": 11.358, "note_off_time": 11.763}, {"pitch": 64, "velocity": 80, "note_on_time": 11.762, "note_off_time": 12.166}, {"pitch": 42, "velocity": 80, "note_on_time": 11.763, "note_off_time": 12.166}, {"pitch": 62, "velocity": 80, "note_on_time": 12.166, "note_off_time": 12.574}, {"pitch": 42, "velocity": 80, "note_on_time": 12.166, "note_off_time": 12.574}, {"pitch": 60, "velocity": 80, "note_on_time": 12.574, "note_off_time": 12.979}, {"pitch": 42, "velocity": 80, "note_on_time": 12.574, "note_off_time": 12.979}, {"pitch": 42, "velocity": 80, "note_on_time": 12.979, "note_off_time": 13.382}, {"pitch": 60, "velocity": 80, "note_on_time": 13.382, "note_off_time": 13.787}, {"pitch": 42, "velocity": 80, "note_on_time": 13.382, "note_off_time": 13.787}, {"pitch": 60, "velocity": 80, "note_on_time": 13.787, "note_off_time": 14.189}, {"pitch": 42, "velocity": 80, "note_on_time": 13.787, "note_off_time": 14.189}, {"pitch": 60, "velocity": 80, "note_on_time": 14.189, "note_off_time": 14.595}, {"pitch": 42, "velocity": 80, "note_on_time": 14.189, "note_off_time": 14.596}]</notes><options name="Option List">((4, 4), [0.5, 0.25], 3, 8, &lt;NoteRangePerHand.THREE_NOTES: 4&gt;, &lt;NoteRangePerHand.ONE_NOTE: 2&gt;, False, True, False, 150)</options></target_notes><trials><trial trial_no="1" timestamp="2022_11_21-19_41_14"><notes name="Played Notes">[{"pitch": 60, "velocity": 80, "note_on_time": 1.625, "note_off_time": 2.087}, {"pitch": 64, "velocity": 68, "note_on_time": 2.185, "note_off_time": 3.369}, {"pitch": 62, "velocity": 77, "note_on_time": 4.111, "note_off_time": 4.263}, {"pitch": 62, "velocity": 73, "note_on_time": 4.512, "note_off_time": 4.795}, {"pitch": 60, "velocity": 83, "note_on_time": 4.873, "note_off_time": 5.033}, {"pitch": 60, "velocity": 77, "note_on_time": 5.275, "note_off_time": 5.473}, {"pitch": 62, "velocity": 65, "note_on_time": 5.685, "note_off_time": 5.879}, {"pitch": 60, "velocity": 69, "note_on_time": 6.079, "note_off_time": 6.276}, {"pitch": 64, "velocity": 63, "note_on_time": 6.479, "note_off_time": 6.643}, {"pitch": 62, "velocity": 72, "note_on_time": 6.829, "note_off_time": 6.954}, {"pitch": 62, "velocity": 73, "note_on_time": 7.271, "note_off_time": 7.434}, {"pitch": 62, "velocity": 64, "note_on_time": 7.683, "note_off_time": 7.86}, {"pitch": 62, "velocity": 25, "note_on_time": 8.24, "note_off_time": 8.328}, {"pitch": 64, "velocity": 62, "note_on_time": 9.171, "note_off_time": 9.358}, {"pitch": 60, "velocity": 76, "note_on_time": 9.532, "note_off_time": 9.69}, {"pitch": 60, "velocity": 82, "note_on_time": 9.895, "note_off_time": 10.072}, {"pitch": 60, "velocity": 77, "note_on_time": 10.587, "note_off_time": 10.732}, {"pitch": 60, "velocity": 61, "note_on_time": 11.005, "note_off_time": 11.07}, {"pitch": 64, "velocity": 70, "note_on_time": 11.355, "note_off_time": 11.605}, {"pitch": 62, "velocity": 54, "note_on_time": 11.752, "note_off_time": 11.871}, {"pitch": 62, "velocity": 68, "note_on_time": 12.146, "note_off_time": 12.351}, {"pitch": 64, "velocity": 73, "note_on_time": 12.516, "note_off_time": 12.735}, {"pitch": 64, "velocity": 66, "note_on_time": 12.914, "note_off_time": 13.096}, {"pitch": 62, "velocity": 49, "note_on_time": 13.501, "note_off_time": 13.638}, {"pitch": 60, "velocity": 60, "note_on_time": 13.855, "note_off_time": 14.107}]</notes><guidance name="Guidance Mode">None</guidance><error name="Error value">0.6444166666666667</error></trial><trial trial_no="2" timestamp="2022_11_21-19_41_36"><notes name="Played Notes">[{"pitch": 60, "velocity": 82, "note_on_time": 1.629, "note_off_time": 2.026}, {"pitch": 64, "velocity": 66, "note_on_time": 2.013, "note_off_time": 2.319}, {"pitch": 62, "velocity": 77, "note_on_time": 3.651, "note_off_time": 3.851}, {"pitch": 62, "velocity": 78, "note_on_time": 4.067, "note_off_time": 4.413}, {"pitch": 60, "velocity": 80, "note_on_time": 4.45, "note_off_time": 4.617}, {"pitch": 60, "velocity": 82, "note_on_time": 4.851, "note_off_time": 5.113}, {"pitch": 62, "velocity": 71, "note_on_time": 5.245, "note_off_time": 5.508}, {"pitch": 60, "velocity": 75, "note_on_time": 5.626, "note_off_time": 5.826}, {"pitch": 62, "velocity": 74, "note_on_time": 6.052, "note_off_time": 6.247}, {"pitch": 62, "velocity": 69, "note_on_time": 6.472, "note_off_time": 6.658}, {"pitch": 62, "velocity": 80, "note_on_time": 6.871, "note_off_time": 7.103}, {"pitch": 62, "velocity": 84, "note_on_time": 7.312, "note_off_time": 7.642}, {"pitch": 64, "velocity": 73, "note_on_time": 8.193, "note_off_time": 8.611}, {"pitch": 60, "velocity": 85, "note_on_time": 8.661, "note_off_time": 8.775}, {"pitch": 60, "velocity": 85, "note_on_time": 9.013, "note_off_time": 9.228}, {"pitch": 60, "velocity": 81, "note_on_time": 9.704, "note_off_time": 9.943}, {"pitch": 64, "velocity": 74, "note_on_time": 10.115, "note_off_time": 10.372}, {"pitch": 62, "velocity": 74, "note_on_time": 10.483, "note_off_time": 10.64}, {"pitch": 62, "velocity": 74, "note_on_time": 10.882, "note_off_time": 11.154}, {"pitch": 64, "velocity": 73, "note_on_time": 11.304, "note_off_time": 11.649}, {"pitch": 62, "velocity": 65, "note_on_time": 11.693, "note_off_time": 11.85}, {"pitch": 62, "velocity": 61, "note_on_time": 12.116, "note_off_time": 12.418}, {"pitch": 62, "velocity": 64, "note_on_time": 12.524, "note_off_time": 12.693}, {"pitch": 60, "velocity": 82, "note_on_time": 12.926, "note_off_time": 13.469}, {"pitch": 60, "velocity": 81, "note_on_time": 14.218, "note_off_time": 14.384}]</notes><guidance name="Guidance Mode">None</guidance><error name="Error value">0.24237500000000003</error></trial><trial trial_no="3" timestamp="2022_11_21-19_42_05"><notes name="Played Notes">[{"pitch": 60, "velocity": 79, "note_on_time": 1.613, "note_off_time": 2.056}, {"pitch": 64, "velocity": 72, "note_on_time": 2.044, "note_off_time": 2.714}, {"pitch": 62, "velocity": 79, "note_on_time": 3.655, "note_off_time": 3.846}, {"pitch": 62, "velocity": 72, "note_on_time": 4.073, "note_off_time": 4.489}, {"pitch": 60, "velocity": 82, "note_on_time": 4.457, "note_off_time": 4.615}, {"pitch": 60, "velocity": 82, "note_on_time": 4.876, "note_off_time": 5.134}, {"pitch": 62, "velocity": 77, "note_on_time": 5.283, "note_off_time": 5.513}, {"pitch": 60, "velocity": 75, "note_on_time": 5.682, "note_off_time": 5.889}, {"pitch": 62, "velocity": 73, "note_on_time": 6.098, "note_off_time": 6.286}, {"pitch": 62, "velocity": 67, "note_on_time": 6.519, "note_off_time": 6.707}, {"pitch": 62, "velocity": 59, "note_on_time": 6.905, "note_off_time": 7.128}, {"pitch": 60, "velocity": 72, "note_on_time": 7.421, "note_off_time": 7.563}, {"pitch": 62, "velocity": 35, "note_on_time": 7.606, "note_off_time": 8.61}, {"pitch": 64, "velocity": 74, "note_on_time": 9.115, "note_off_time": 9.465}, {"pitch": 60, "velocity": 82, "note_on_time": 9.498, "note_off_time": 9.675}, {"pitch": 60, "velocity": 75, "note_on_time": 9.885, "note_off_time": 10.068}, {"pitch": 60, "velocity": 77, "note_on_time": 10.679, "note_off_time": 10.869}, {"pitch": 64, "velocity": 64, "note_on_time": 11.174, "note_off_time": 11.453}, {"pitch": 62, "velocity": 54, "note_on_time": 11.503, "note_off_time": 11.66}, {"pitch": 62, "velocity": 65, "note_on_time": 11.893, "note_off_time": 12.159}, {"pitch": 64, "velocity": 70, "note_on_time": 12.235, "note_off_time": 12.573}, {"pitch": 62, "velocity": 61, "note_on_time": 12.587, "note_off_time": 12.74}, {"pitch": 62, "velocity": 58, "note_on_time": 12.967, "note_off_time": 13.189}, {"pitch": 62, "velocity": 59, "note_on_time": 13.356, "note_off_time": 13.577}, {"pitch": 60, "velocity": 79, "note_on_time": 13.768, "note_off_time": 14.087}]</notes><guidance name="Guidance Mode">None</guidance><error name="Error value">1.4258749999999998</error></trial></trials></MIDI>