<MIDI midiNo="2022_12_22-13_56_34"><target_notes><notes name="Note List">[{"pitch": 42, "velocity": 80, "note_on_time": 0.006, "note_off_time": 0.293}, {"pitch": 42, "velocity": 80, "note_on_time": 0.293, "note_off_time": 0.575}, {"pitch": 42, "velocity": 80, "note_on_time": 0.576, "note_off_time": 0.87}, {"pitch": 42, "velocity": 80, "note_on_time": 0.87, "note_off_time": 1.166}, {"pitch": 60, "velocity": 80, "note_on_time": 1.165, "note_off_time": 1.46}, {"pitch": 42, "velocity": 80, "note_on_time": 1.166, "note_off_time": 1.461}, {"pitch": 42, "velocity": 80, "note_on_time": 1.461, "note_off_time": 1.756}, {"pitch": 62, "velocity": 80, "note_on_time": 1.46, "note_off_time": 2.036}, {"pitch": 42, "velocity": 80, "note_on_time": 1.756, "note_off_time": 2.037}, {"pitch": 64, "velocity": 80, "note_on_time": 2.036, "note_off_time": 2.317}, {"pitch": 42, "velocity": 80, "note_on_time": 2.037, "note_off_time": 2.317}, {"pitch": 60, "velocity": 80, "note_on_time": 2.317, "note_off_time": 2.598}, {"pitch": 42, "velocity": 80, "note_on_time": 2.317, "note_off_time": 2.599}, {"pitch": 60, "velocity": 80, "note_on_time": 2.598, "note_off_time": 2.881}, {"pitch": 42, "velocity": 80, "note_on_time": 2.599, "note_off_time": 2.881}, {"pitch": 64, "velocity": 80, "note_on_time": 2.881, "note_off_time": 3.162}, {"pitch": 42, "velocity": 80, "note_on_time": 2.881, "note_off_time": 3.162}, {"pitch": 64, "velocity": 80, "note_on_time": 3.162, "note_off_time": 3.458}, {"pitch": 42, "velocity": 80, "note_on_time": 3.163, "note_off_time": 3.458}, {"pitch": 64, "velocity": 80, "note_on_time": 3.458, "note_off_time": 3.741}, {"pitch": 42, "velocity": 80, "note_on_time": 3.458, "note_off_time": 3.741}, {"pitch": 64, "velocity": 80, "note_on_time": 3.741, "note_off_time": 4.036}, {"pitch": 42, "velocity": 80, "note_on_time": 3.742, "note_off_time": 4.037}, {"pitch": 64, "velocity": 80, "note_on_time": 4.036, "note_off_time": 4.329}, {"pitch": 42, "velocity": 80, "note_on_time": 4.037, "note_off_time": 4.33}, {"pitch": 60, "velocity": 80, "note_on_time": 4.33, "note_off_time": 4.614}, {"pitch": 42, "velocity": 80, "note_on_time": 4.33, "note_off_time": 4.614}, {"pitch": 42, "velocity": 80, "note_on_time": 4.615, "note_off_time": 4.895}, {"pitch": 64, "velocity": 80, "note_on_time": 4.614, "note_off_time": 5.191}, {"pitch": 42, "velocity": 80, "note_on_time": 4.896, "note_off_time": 5.191}, {"pitch": 64, "velocity": 80, "note_on_time": 5.191, "note_off_time": 5.473}, {"pitch": 42, "velocity": 80, "note_on_time": 5.192, "note_off_time": 5.473}, {"pitch": 60, "velocity": 80, "note_on_time": 5.473, "note_off_time": 5.755}, {"pitch": 42, "velocity": 80, "note_on_time": 5.473, "note_off_time": 5.756}, {"pitch": 42, "velocity": 80, "note_on_time": 5.756, "note_off_time": 6.051}, {"pitch": 62, "velocity": 80, "note_on_time": 5.755, "note_off_time": 6.331}, {"pitch": 42, "velocity": 80, "note_on_time": 6.051, "note_off_time": 6.332}, {"pitch": 42, "velocity": 80, "note_on_time": 6.332, "note_off_time": 6.627}, {"pitch": 42, "velocity": 80, "note_on_time": 6.627, "note_off_time": 6.921}, {"pitch": 60, "velocity": 80, "note_on_time": 6.921, "note_off_time": 7.204}, {"pitch": 42, "velocity": 80, "note_on_time": 6.922, "note_off_time": 7.204}, {"pitch": 62, "velocity": 80, "note_on_time": 7.204, "note_off_time": 7.499}, {"pitch": 42, "velocity": 80, "note_on_time": 7.204, "note_off_time": 7.5}, {"pitch": 60, "velocity": 80, "note_on_time": 7.499, "note_off_time": 7.795}, {"pitch": 42, "velocity": 80, "note_on_time": 7.5, "note_off_time": 7.796}, {"pitch": 62, "velocity": 80, "note_on_time": 7.795, "note_off_time": 8.077}, {"pitch": 42, "velocity": 80, "note_on_time": 7.796, "note_off_time": 8.077}, {"pitch": 62, "velocity": 80, "note_on_time": 8.077, "note_off_time": 8.358}, {"pitch": 42, "velocity": 80, "note_on_time": 8.077, "note_off_time": 8.358}, {"pitch": 60, "velocity": 80, "note_on_time": 8.358, "note_off_time": 8.64}, {"pitch": 42, "velocity": 80, "note_on_time": 8.358, "note_off_time": 8.64}, {"pitch": 42, "velocity": 80, "note_on_time": 8.64, "note_off_time": 8.922}, {"pitch": 62, "velocity": 80, "note_on_time": 8.64, "note_off_time": 9.203}, {"pitch": 42, "velocity": 80, "note_on_time": 8.922, "note_off_time": 9.203}, {"pitch": 42, "velocity": 80, "note_on_time": 9.203, "note_off_time": 9.499}, {"pitch": 62, "velocity": 80, "note_on_time": 9.499, "note_off_time": 9.794}, {"pitch": 42, "velocity": 80, "note_on_time": 9.5, "note_off_time": 9.795}, {"pitch": 62, "velocity": 80, "note_on_time": 9.794, "note_off_time": 10.075}, {"pitch": 42, "velocity": 80, "note_on_time": 9.795, "note_off_time": 10.076}, {"pitch": 62, "velocity": 80, "note_on_time": 10.075, "note_off_time": 10.371}, {"pitch": 42, "velocity": 80, "note_on_time": 10.076, "note_off_time": 10.371}]</notes><options name="Option List">((4, 4), [0.5, 0.25], 3, 8, &lt;NoteRangePerHand.THREE_NOTES: 4&gt;, &lt;NoteRangePerHand.ONE_NOTE: 2&gt;, False, True, False, 215)</options></target_notes><trials><trial trial_no="1" timestamp="2022_12_22-13_56_22"><notes name="Played Notes">[{"pitch": 60, "velocity": 96, "note_on_time": 1.498, "note_off_time": 1.681}, {"pitch": 62, "velocity": 93, "note_on_time": 1.813, "note_off_time": 2.3}, {"pitch": 64, "velocity": 93, "note_on_time": 2.47, "note_off_time": 2.653}, {"pitch": 60, "velocity": 92, "note_on_time": 2.76, "note_off_time": 2.865}, {"pitch": 60, "velocity": 94, "note_on_time": 3.031, "note_off_time": 3.16}, {"pitch": 64, "velocity": 87, "note_on_time": 3.313, "note_off_time": 3.456}, {"pitch": 64, "velocity": 92, "note_on_time": 3.619, "note_off_time": 3.743}, {"pitch": 64, "velocity": 92, "note_on_time": 3.895, "note_off_time": 4.011}, {"pitch": 64, "velocity": 92, "note_on_time": 4.194, "note_off_time": 4.291}, {"pitch": 64, "velocity": 95, "note_on_time": 4.484, "note_off_time": 4.62}, {"pitch": 60, "velocity": 92, "note_on_time": 4.78, "note_off_time": 4.89}, {"pitch": 64, "velocity": 90, "note_on_time": 5.083, "note_off_time": 5.472}, {"pitch": 64, "velocity": 96, "note_on_time": 5.68, "note_off_time": 5.869}, {"pitch": 60, "velocity": 94, "note_on_time": 6.017, "note_off_time": 6.145}, {"pitch": 62, "velocity": 98, "note_on_time": 6.345, "note_off_time": 6.872}, {"pitch": 60, "velocity": 93, "note_on_time": 7.446, "note_off_time": 7.592}, {"pitch": 62, "velocity": 85, "note_on_time": 7.722, "note_off_time": 7.883}, {"pitch": 60, "velocity": 84, "note_on_time": 8.081, "note_off_time": 8.241}, {"pitch": 62, "velocity": 92, "note_on_time": 8.434, "note_off_time": 8.752}, {"pitch": 62, "velocity": 89, "note_on_time": 8.976, "note_off_time": 9.175}, {"pitch": 60, "velocity": 82, "note_on_time": 9.367, "note_off_time": 9.555}, {"pitch": 62, "velocity": 85, "note_on_time": 9.66, "note_off_time": 10.091}]</notes><guidance name="Guidance Mode">None</guidance><error name="Error value">0.3751238181818182</error></trial><trial trial_no="2" timestamp="2022_12_22-13_56_45"><notes name="Played Notes">[{"pitch": 60, "velocity": 82, "note_on_time": 1.169, "note_off_time": 1.293}, {"pitch": 62, "velocity": 95, "note_on_time": 1.481, "note_off_time": 1.947}, {"pitch": 64, "velocity": 93, "note_on_time": 2.097, "note_off_time": 2.312}, {"pitch": 60, "velocity": 92, "note_on_time": 2.414, "note_off_time": 2.575}, {"pitch": 60, "velocity": 92, "note_on_time": 2.735, "note_off_time": 2.882}, {"pitch": 64, "velocity": 86, "note_on_time": 3.029, "note_off_time": 3.163}, {"pitch": 64, "velocity": 93, "note_on_time": 3.314, "note_off_time": 3.447}, {"pitch": 64, "velocity": 87, "note_on_time": 3.614, "note_off_time": 3.726}, {"pitch": 64, "velocity": 87, "note_on_time": 3.901, "note_off_time": 4.006}, {"pitch": 64, "velocity": 92, "note_on_time": 4.204, "note_off_time": 4.348}, {"pitch": 60, "velocity": 92, "note_on_time": 4.509, "note_off_time": 4.636}, {"pitch": 64, "velocity": 91, "note_on_time": 4.814, "note_off_time": 5.226}, {"pitch": 64, "velocity": 100, "note_on_time": 5.396, "note_off_time": 5.603}, {"pitch": 60, "velocity": 82, "note_on_time": 5.7, "note_off_time": 5.863}, {"pitch": 62, "velocity": 94, "note_on_time": 6.026, "note_off_time": 6.708}, {"pitch": 60, "velocity": 96, "note_on_time": 6.964, "note_off_time": 7.11}, {"pitch": 62, "velocity": 94, "note_on_time": 7.283, "note_off_time": 7.489}, {"pitch": 60, "velocity": 88, "note_on_time": 7.564, "note_off_time": 7.752}, {"pitch": 62, "velocity": 92, "note_on_time": 7.907, "note_off_time": 8.1}, {"pitch": 62, "velocity": 88, "note_on_time": 8.246, "note_off_time": 8.418}, {"pitch": 60, "velocity": 89, "note_on_time": 8.545, "note_off_time": 8.717}, {"pitch": 62, "velocity": 92, "note_on_time": 8.849, "note_off_time": 9.379}, {"pitch": 62, "velocity": 89, "note_on_time": 9.656, "note_off_time": 9.762}, {"pitch": 62, "velocity": 96, "note_on_time": 9.962, "note_off_time": 10.064}, {"pitch": 62, "velocity": 96, "note_on_time": 10.243, "note_off_time": 10.344}]</notes><guidance name="Guidance Mode">None</guidance><error name="Error value">0.03817395454545459</error></trial><trial trial_no="3" timestamp="2022_12_22-13_57_03"><notes name="Played Notes">[{"pitch": 60, "velocity": 89, "note_on_time": 1.201, "note_off_time": 1.367}, {"pitch": 62, "velocity": 103, "note_on_time": 1.514, "note_off_time": 1.984}, {"pitch": 64, "velocity": 94, "note_on_time": 2.142, "note_off_time": 2.32}, {"pitch": 60, "velocity": 97, "note_on_time": 2.438, "note_off_time": 2.585}, {"pitch": 60, "velocity": 100, "note_on_time": 2.742, "note_off_time": 2.918}, {"pitch": 64, "velocity": 89, "note_on_time": 3.036, "note_off_time": 3.174}, {"pitch": 64, "velocity": 96, "note_on_time": 3.332, "note_off_time": 3.454}, {"pitch": 64, "velocity": 94, "note_on_time": 3.628, "note_off_time": 3.745}, {"pitch": 64, "velocity": 99, "note_on_time": 3.938, "note_off_time": 4.04}, {"pitch": 60, "velocity": 95, "note_on_time": 4.293, "note_off_time": 4.471}, {"pitch": 62, "velocity": 100, "note_on_time": 4.647, "note_off_time": 4.841}, {"pitch": 64, "velocity": 78, "note_on_time": 4.98, "note_off_time": 5.414}, {"pitch": 64, "velocity": 98, "note_on_time": 5.651, "note_off_time": 5.827}, {"pitch": 60, "velocity": 88, "note_on_time": 5.957, "note_off_time": 6.124}, {"pitch": 62, "velocity": 94, "note_on_time": 6.295, "note_off_time": 6.951}, {"pitch": 60, "velocity": 99, "note_on_time": 7.099, "note_off_time": 7.253}, {"pitch": 62, "velocity": 94, "note_on_time": 7.409, "note_off_time": 7.545}, {"pitch": 60, "velocity": 85, "note_on_time": 7.684, "note_off_time": 7.846}, {"pitch": 62, "velocity": 88, "note_on_time": 8.01, "note_off_time": 8.161}, {"pitch": 62, "velocity": 94, "note_on_time": 8.341, "note_off_time": 8.519}, {"pitch": 60, "velocity": 95, "note_on_time": 8.663, "note_off_time": 8.803}, {"pitch": 62, "velocity": 99, "note_on_time": 8.991, "note_off_time": 9.504}, {"pitch": 62, "velocity": 94, "note_on_time": 9.756, "note_off_time": 9.848}, {"pitch": 62, "velocity": 94, "note_on_time": 10.065, "note_off_time": 10.159}, {"pitch": 62, "velocity": 97, "note_on_time": 10.336, "note_off_time": 10.435}]</notes><guidance name="Guidance Mode">None</guidance><error name="Error value">0.1489592272727272</error></trial></trials></MIDI>