<MIDI midiNo="2022_10_02-12_38_23"><target_notes><notes name="Note List">[{"pitch": 42, "velocity": 80, "note_on_time": 0.004, "note_off_time": 0.617}, {"pitch": 42, "velocity": 80, "note_on_time": 0.617, "note_off_time": 1.22}, {"pitch": 42, "velocity": 80, "note_on_time": 1.22, "note_off_time": 1.822}, {"pitch": 42, "velocity": 80, "note_on_time": 1.822, "note_off_time": 2.426}, {"pitch": 60, "velocity": 80, "note_on_time": 2.426, "note_off_time": 3.041}, {"pitch": 42, "velocity": 80, "note_on_time": 2.426, "note_off_time": 3.041}, {"pitch": 60, "velocity": 80, "note_on_time": 3.041, "note_off_time": 3.646}, {"pitch": 42, "velocity": 80, "note_on_time": 3.041, "note_off_time": 3.646}, {"pitch": 42, "velocity": 80, "note_on_time": 3.646, "note_off_time": 4.26}, {"pitch": 42, "velocity": 80, "note_on_time": 4.26, "note_off_time": 4.874}, {"pitch": 62, "velocity": 80, "note_on_time": 4.874, "note_off_time": 5.478}, {"pitch": 42, "velocity": 80, "note_on_time": 4.874, "note_off_time": 5.478}, {"pitch": 62, "velocity": 80, "note_on_time": 5.478, "note_off_time": 6.081}, {"pitch": 42, "velocity": 80, "note_on_time": 5.478, "note_off_time": 6.081}, {"pitch": 42, "velocity": 80, "note_on_time": 6.081, "note_off_time": 6.696}, {"pitch": 42, "velocity": 80, "note_on_time": 6.696, "note_off_time": 7.299}, {"pitch": 60, "velocity": 80, "note_on_time": 7.299, "note_off_time": 7.915}, {"pitch": 42, "velocity": 80, "note_on_time": 7.299, "note_off_time": 7.915}, {"pitch": 60, "velocity": 80, "note_on_time": 7.915, "note_off_time": 8.53}, {"pitch": 42, "velocity": 80, "note_on_time": 7.915, "note_off_time": 8.53}, {"pitch": 62, "velocity": 80, "note_on_time": 8.53, "note_off_time": 9.136}, {"pitch": 42, "velocity": 80, "note_on_time": 8.53, "note_off_time": 9.136}, {"pitch": 62, "velocity": 80, "note_on_time": 9.136, "note_off_time": 9.739}, {"pitch": 42, "velocity": 80, "note_on_time": 9.136, "note_off_time": 9.739}, {"pitch": 62, "velocity": 80, "note_on_time": 9.739, "note_off_time": 10.341}, {"pitch": 42, "velocity": 80, "note_on_time": 9.739, "note_off_time": 10.341}, {"pitch": 42, "velocity": 80, "note_on_time": 10.341, "note_off_time": 10.956}, {"pitch": 62, "velocity": 80, "note_on_time": 10.956, "note_off_time": 11.569}, {"pitch": 42, "velocity": 80, "note_on_time": 10.956, "note_off_time": 11.569}, {"pitch": 42, "velocity": 80, "note_on_time": 11.569, "note_off_time": 12.174}, {"pitch": 60, "velocity": 80, "note_on_time": 12.174, "note_off_time": 12.778}, {"pitch": 42, "velocity": 80, "note_on_time": 12.174, "note_off_time": 12.778}, {"pitch": 60, "velocity": 80, "note_on_time": 12.778, "note_off_time": 13.379}, {"pitch": 42, "velocity": 80, "note_on_time": 12.778, "note_off_time": 13.379}, {"pitch": 60, "velocity": 80, "note_on_time": 13.379, "note_off_time": 13.98}, {"pitch": 42, "velocity": 80, "note_on_time": 13.379, "note_off_time": 13.98}, {"pitch": 42, "velocity": 80, "note_on_time": 13.98, "note_off_time": 14.586}, {"pitch": 62, "velocity": 80, "note_on_time": 14.586, "note_off_time": 15.189}, {"pitch": 42, "velocity": 80, "note_on_time": 14.586, "note_off_time": 15.189}, {"pitch": 62, "velocity": 80, "note_on_time": 15.189, "note_off_time": 15.793}, {"pitch": 42, "velocity": 80, "note_on_time": 15.189, "note_off_time": 15.793}, {"pitch": 42, "velocity": 80, "note_on_time": 15.793, "note_off_time": 16.399}, {"pitch": 62, "velocity": 80, "note_on_time": 16.399, "note_off_time": 17.0}, {"pitch": 42, "velocity": 80, "note_on_time": 16.399, "note_off_time": 17.0}, {"pitch": 62, "velocity": 80, "note_on_time": 17.0, "note_off_time": 17.603}, {"pitch": 42, "velocity": 80, "note_on_time": 17.0, "note_off_time": 17.603}, {"pitch": 62, "velocity": 80, "note_on_time": 17.603, "note_off_time": 18.204}, {"pitch": 42, "velocity": 80, "note_on_time": 17.603, "note_off_time": 18.204}, {"pitch": 62, "velocity": 80, "note_on_time": 18.204, "note_off_time": 18.806}, {"pitch": 42, "velocity": 80, "note_on_time": 18.204, "note_off_time": 18.806}, {"pitch": 60, "velocity": 80, "note_on_time": 18.806, "note_off_time": 19.422}, {"pitch": 42, "velocity": 80, "note_on_time": 18.806, "note_off_time": 19.422}, {"pitch": 42, "velocity": 80, "note_on_time": 19.422, "note_off_time": 20.023}, {"pitch": 60, "velocity": 80, "note_on_time": 20.023, "note_off_time": 20.625}, {"pitch": 42, "velocity": 80, "note_on_time": 20.023, "note_off_time": 20.625}, {"pitch": 60, "velocity": 80, "note_on_time": 20.625, "note_off_time": 21.229}, {"pitch": 42, "velocity": 80, "note_on_time": 20.625, "note_off_time": 21.229}, {"pitch": 60, "velocity": 80, "note_on_time": 21.229, "note_off_time": 21.83}, {"pitch": 42, "velocity": 80, "note_on_time": 21.229, "note_off_time": 21.83}]</notes><options name="Option List">((4, 4), [0.25], 3, 8, &lt;NoteRangePerHand.TWO_NOTES: 3&gt;, &lt;NoteRangePerHand.ONE_NOTE: 2&gt;, False, True, True, '100')</options></target_notes><trials><trial trial_no="1" timestamp="2022_10_02-12_38_00"><notes name="Played Notes">[{"pitch": 60, "velocity": 51, "note_on_time": 2.383, "note_off_time": 2.776}, {"pitch": 60, "velocity": 54, "note_on_time": 3.025, "note_off_time": 3.437}, {"pitch": 62, "velocity": 41, "note_on_time": 4.876, "note_off_time": 5.198}, {"pitch": 62, "velocity": 46, "note_on_time": 5.458, "note_off_time": 5.867}, {"pitch": 60, "velocity": 40, "note_on_time": 7.254, "note_off_time": 7.633}, {"pitch": 60, "velocity": 38, "note_on_time": 7.886, "note_off_time": 8.325}, {"pitch": 62, "velocity": 26, "note_on_time": 8.542, "note_off_time": 8.839}, {"pitch": 62, "velocity": 27, "note_on_time": 9.123, "note_off_time": 9.459}, {"pitch": 62, "velocity": 42, "note_on_time": 9.708, "note_off_time": 10.056}, {"pitch": 62, "velocity": 44, "note_on_time": 10.974, "note_off_time": 11.281}, {"pitch": 60, "velocity": 38, "note_on_time": 12.182, "note_off_time": 12.498}, {"pitch": 60, "velocity": 36, "note_on_time": 12.789, "note_off_time": 13.077}, {"pitch": 60, "velocity": 44, "note_on_time": 13.394, "note_off_time": 13.727}, {"pitch": 62, "velocity": 36, "note_on_time": 14.591, "note_off_time": 14.882}, {"pitch": 62, "velocity": 39, "note_on_time": 15.169, "note_off_time": 15.507}, {"pitch": 62, "velocity": 34, "note_on_time": 16.395, "note_off_time": 16.727}, {"pitch": 62, "velocity": 29, "note_on_time": 16.97, "note_off_time": 17.287}, {"pitch": 62, "velocity": 27, "note_on_time": 17.573, "note_off_time": 17.881}, {"pitch": 62, "velocity": 34, "note_on_time": 18.177, "note_off_time": 18.461}, {"pitch": 60, "velocity": 30, "note_on_time": 18.768, "note_off_time": 19.205}, {"pitch": 60, "velocity": 33, "note_on_time": 19.996, "note_off_time": 20.285}, {"pitch": 60, "velocity": 27, "note_on_time": 20.628, "note_off_time": 20.86}, {"pitch": 60, "velocity": 37, "note_on_time": 21.194, "note_off_time": 21.512}]</notes><guidance name="Guidance Mode">None</guidance><error name="Error value">0.02544999999999986</error></trial><trial trial_no="2" timestamp="2022_10_02-12_59_12"><notes name="Played Notes">[{"pitch": 60, "velocity": 65, "note_on_time": 2.493, "note_off_time": 2.742}, {"pitch": 60, "velocity": 64, "note_on_time": 3.098, "note_off_time": 3.33}, {"pitch": 62, "velocity": 67, "note_on_time": 4.245, "note_off_time": 4.491}, {"pitch": 62, "velocity": 63, "note_on_time": 4.901, "note_off_time": 5.214}, {"pitch": 60, "velocity": 58, "note_on_time": 6.108, "note_off_time": 6.364}, {"pitch": 60, "velocity": 56, "note_on_time": 6.689, "note_off_time": 6.975}, {"pitch": 62, "velocity": 65, "note_on_time": 7.296, "note_off_time": 7.549}, {"pitch": 62, "velocity": 70, "note_on_time": 7.9, "note_off_time": 8.117}, {"pitch": 62, "velocity": 64, "note_on_time": 8.514, "note_off_time": 8.776}, {"pitch": 62, "velocity": 68, "note_on_time": 9.703, "note_off_time": 9.939}, {"pitch": 60, "velocity": 61, "note_on_time": 10.935, "note_off_time": 11.175}, {"pitch": 60, "velocity": 59, "note_on_time": 11.524, "note_off_time": 11.782}, {"pitch": 60, "velocity": 77, "note_on_time": 12.133, "note_off_time": 12.37}, {"pitch": 62, "velocity": 73, "note_on_time": 13.381, "note_off_time": 13.567}, {"pitch": 62, "velocity": 55, "note_on_time": 13.985, "note_off_time": 14.313}, {"pitch": 62, "velocity": 68, "note_on_time": 15.168, "note_off_time": 15.428}, {"pitch": 62, "velocity": 63, "note_on_time": 15.786, "note_off_time": 16.106}, {"pitch": 62, "velocity": 60, "note_on_time": 16.394, "note_off_time": 16.686}, {"pitch": 62, "velocity": 63, "note_on_time": 16.979, "note_off_time": 17.302}, {"pitch": 60, "velocity": 67, "note_on_time": 17.62, "note_off_time": 17.869}, {"pitch": 60, "velocity": 60, "note_on_time": 18.837, "note_off_time": 19.11}, {"pitch": 60, "velocity": 71, "note_on_time": 19.413, "note_off_time": 19.66}, {"pitch": 60, "velocity": 75, "note_on_time": 20.037, "note_off_time": 20.288}]</notes><guidance name="Guidance Mode">None</guidance><error name="Error value">0.08149999999999977</error></trial></trials></MIDI>