<MIDI midiNo="2022_11_21-16_20_57"><target_notes><notes name="Note List">[{"pitch": 42, "velocity": 80, "note_on_time": 0.004, "note_off_time": 0.37}, {"pitch": 42, "velocity": 80, "note_on_time": 0.37, "note_off_time": 0.747}, {"pitch": 42, "velocity": 80, "note_on_time": 0.748, "note_off_time": 1.121}, {"pitch": 42, "velocity": 80, "note_on_time": 1.121, "note_off_time": 1.492}, {"pitch": 64, "velocity": 80, "note_on_time": 1.491, "note_off_time": 1.863}, {"pitch": 42, "velocity": 80, "note_on_time": 1.492, "note_off_time": 1.864}, {"pitch": 64, "velocity": 80, "note_on_time": 1.863, "note_off_time": 2.237}, {"pitch": 42, "velocity": 80, "note_on_time": 1.864, "note_off_time": 2.237}, {"pitch": 62, "velocity": 80, "note_on_time": 2.237, "note_off_time": 2.613}, {"pitch": 42, "velocity": 80, "note_on_time": 2.237, "note_off_time": 2.614}, {"pitch": 42, "velocity": 80, "note_on_time": 2.614, "note_off_time": 2.987}, {"pitch": 64, "velocity": 80, "note_on_time": 2.987, "note_off_time": 3.36}, {"pitch": 42, "velocity": 80, "note_on_time": 2.988, "note_off_time": 3.36}, {"pitch": 42, "velocity": 80, "note_on_time": 3.36, "note_off_time": 3.735}, {"pitch": 42, "velocity": 80, "note_on_time": 3.736, "note_off_time": 4.107}, {"pitch": 42, "velocity": 80, "note_on_time": 4.107, "note_off_time": 4.481}, {"pitch": 60, "velocity": 80, "note_on_time": 4.481, "note_off_time": 4.853}, {"pitch": 42, "velocity": 80, "note_on_time": 4.481, "note_off_time": 4.853}, {"pitch": 62, "velocity": 80, "note_on_time": 4.853, "note_off_time": 5.225}, {"pitch": 42, "velocity": 80, "note_on_time": 4.854, "note_off_time": 5.225}, {"pitch": 62, "velocity": 80, "note_on_time": 5.225, "note_off_time": 5.599}, {"pitch": 42, "velocity": 80, "note_on_time": 5.226, "note_off_time": 5.599}, {"pitch": 42, "velocity": 80, "note_on_time": 5.599, "note_off_time": 5.972}, {"pitch": 60, "velocity": 80, "note_on_time": 5.972, "note_off_time": 6.346}, {"pitch": 42, "velocity": 80, "note_on_time": 5.972, "note_off_time": 6.346}, {"pitch": 64, "velocity": 80, "note_on_time": 6.346, "note_off_time": 6.719}, {"pitch": 42, "velocity": 80, "note_on_time": 6.347, "note_off_time": 6.719}, {"pitch": 42, "velocity": 80, "note_on_time": 6.72, "note_off_time": 7.089}, {"pitch": 64, "velocity": 80, "note_on_time": 6.719, "note_off_time": 7.461}, {"pitch": 42, "velocity": 80, "note_on_time": 7.089, "note_off_time": 7.461}, {"pitch": 60, "velocity": 80, "note_on_time": 7.461, "note_off_time": 7.836}, {"pitch": 42, "velocity": 80, "note_on_time": 7.461, "note_off_time": 7.837}, {"pitch": 60, "velocity": 80, "note_on_time": 7.836, "note_off_time": 8.211}, {"pitch": 42, "velocity": 80, "note_on_time": 7.837, "note_off_time": 8.211}, {"pitch": 64, "velocity": 80, "note_on_time": 8.211, "note_off_time": 8.584}, {"pitch": 42, "velocity": 80, "note_on_time": 8.211, "note_off_time": 8.584}, {"pitch": 62, "velocity": 80, "note_on_time": 8.584, "note_off_time": 8.958}, {"pitch": 42, "velocity": 80, "note_on_time": 8.584, "note_off_time": 8.958}, {"pitch": 62, "velocity": 80, "note_on_time": 8.958, "note_off_time": 9.331}, {"pitch": 42, "velocity": 80, "note_on_time": 8.959, "note_off_time": 9.331}, {"pitch": 42, "velocity": 80, "note_on_time": 9.331, "note_off_time": 9.704}, {"pitch": 62, "velocity": 80, "note_on_time": 9.331, "note_off_time": 10.081}, {"pitch": 42, "velocity": 80, "note_on_time": 9.705, "note_off_time": 10.081}, {"pitch": 42, "velocity": 80, "note_on_time": 10.081, "note_off_time": 10.453}, {"pitch": 42, "velocity": 80, "note_on_time": 10.453, "note_off_time": 10.827}, {"pitch": 60, "velocity": 80, "note_on_time": 10.453, "note_off_time": 11.2}, {"pitch": 42, "velocity": 80, "note_on_time": 10.827, "note_off_time": 11.201}, {"pitch": 42, "velocity": 80, "note_on_time": 11.201, "note_off_time": 11.576}, {"pitch": 42, "velocity": 80, "note_on_time": 11.576, "note_off_time": 11.95}, {"pitch": 42, "velocity": 80, "note_on_time": 11.95, "note_off_time": 12.325}, {"pitch": 60, "velocity": 80, "note_on_time": 12.325, "note_off_time": 12.699}, {"pitch": 42, "velocity": 80, "note_on_time": 12.325, "note_off_time": 12.699}, {"pitch": 60, "velocity": 80, "note_on_time": 12.699, "note_off_time": 13.071}, {"pitch": 42, "velocity": 80, "note_on_time": 12.7, "note_off_time": 13.071}, {"pitch": 60, "velocity": 80, "note_on_time": 13.071, "note_off_time": 13.444}, {"pitch": 42, "velocity": 80, "note_on_time": 13.071, "note_off_time": 13.444}]</notes><options name="Option List">((4, 4), [0.5, 0.25], 3, 8, &lt;NoteRangePerHand.THREE_NOTES: 4&gt;, &lt;NoteRangePerHand.ONE_NOTE: 2&gt;, False, True, False, '166')</options></target_notes><trials><trial trial_no="1" timestamp="2022_11_21-16_20_43"><notes name="Played Notes">[{"pitch": 64, "velocity": 79, "note_on_time": 1.455, "note_off_time": 1.677}, {"pitch": 64, "velocity": 69, "note_on_time": 1.835, "note_off_time": 2.089}, {"pitch": 62, "velocity": 84, "note_on_time": 2.219, "note_off_time": 2.54}, {"pitch": 64, "velocity": 78, "note_on_time": 3.007, "note_off_time": 3.305}, {"pitch": 60, "velocity": 74, "note_on_time": 4.515, "note_off_time": 4.725}, {"pitch": 62, "velocity": 73, "note_on_time": 4.886, "note_off_time": 5.083}, {"pitch": 62, "velocity": 74, "note_on_time": 5.233, "note_off_time": 5.516}, {"pitch": 60, "velocity": 85, "note_on_time": 6.038, "note_off_time": 6.202}, {"pitch": 64, "velocity": 65, "note_on_time": 6.378, "note_off_time": 6.589}, {"pitch": 64, "velocity": 76, "note_on_time": 6.744, "note_off_time": 7.379}, {"pitch": 60, "velocity": 83, "note_on_time": 7.503, "note_off_time": 7.698}, {"pitch": 60, "velocity": 73, "note_on_time": 7.836, "note_off_time": 8.058}, {"pitch": 64, "velocity": 72, "note_on_time": 8.222, "note_off_time": 8.423}, {"pitch": 62, "velocity": 71, "note_on_time": 8.577, "note_off_time": 8.792}, {"pitch": 62, "velocity": 71, "note_on_time": 8.946, "note_off_time": 9.171}, {"pitch": 62, "velocity": 79, "note_on_time": 9.327, "note_off_time": 9.949}, {"pitch": 60, "velocity": 77, "note_on_time": 10.485, "note_off_time": 10.976}, {"pitch": 60, "velocity": 72, "note_on_time": 11.87, "note_off_time": 12.131}, {"pitch": 60, "velocity": 83, "note_on_time": 12.295, "note_off_time": 12.5}, {"pitch": 60, "velocity": 90, "note_on_time": 12.671, "note_off_time": 13.033}]</notes><guidance name="Guidance Mode">None</guidance><error name="Error value">0.058659705882353017</error></trial><trial trial_no="2" timestamp="2022_11_21-16_21_16"><notes name="Played Notes">[{"pitch": 64, "velocity": 78, "note_on_time": 1.501, "note_off_time": 1.728}, {"pitch": 64, "velocity": 64, "note_on_time": 1.858, "note_off_time": 2.11}, {"pitch": 62, "velocity": 80, "note_on_time": 2.277, "note_off_time": 2.576}, {"pitch": 64, "velocity": 75, "note_on_time": 3.091, "note_off_time": 3.363}, {"pitch": 60, "velocity": 84, "note_on_time": 4.475, "note_off_time": 4.684}, {"pitch": 62, "velocity": 70, "note_on_time": 4.848, "note_off_time": 5.04}, {"pitch": 62, "velocity": 86, "note_on_time": 5.204, "note_off_time": 5.463}, {"pitch": 60, "velocity": 78, "note_on_time": 5.98, "note_off_time": 6.166}, {"pitch": 64, "velocity": 72, "note_on_time": 6.341, "note_off_time": 6.558}, {"pitch": 64, "velocity": 75, "note_on_time": 6.705, "note_off_time": 7.284}, {"pitch": 60, "velocity": 79, "note_on_time": 7.463, "note_off_time": 7.685}, {"pitch": 60, "velocity": 77, "note_on_time": 7.825, "note_off_time": 8.005}, {"pitch": 64, "velocity": 72, "note_on_time": 8.189, "note_off_time": 8.395}, {"pitch": 62, "velocity": 78, "note_on_time": 8.558, "note_off_time": 8.752}, {"pitch": 62, "velocity": 69, "note_on_time": 8.927, "note_off_time": 9.137}, {"pitch": 62, "velocity": 75, "note_on_time": 9.302, "note_off_time": 9.917}, {"pitch": 60, "velocity": 74, "note_on_time": 10.476, "note_off_time": 11.039}, {"pitch": 60, "velocity": 72, "note_on_time": 11.94, "note_off_time": 12.191}, {"pitch": 60, "velocity": 76, "note_on_time": 12.315, "note_off_time": 12.523}, {"pitch": 60, "velocity": 90, "note_on_time": 12.684, "note_off_time": 12.95}]</notes><guidance name="Guidance Mode">None</guidance><error name="Error value">0.04758147058823565</error></trial><trial trial_no="3" timestamp="2022_11_21-16_21_42"><notes name="Played Notes">[{"pitch": 64, "velocity": 60, "note_on_time": 1.456, "note_off_time": 1.683}, {"pitch": 64, "velocity": 70, "note_on_time": 1.842, "note_off_time": 2.071}, {"pitch": 62, "velocity": 77, "note_on_time": 2.228, "note_off_time": 2.527}, {"pitch": 64, "velocity": 72, "note_on_time": 3.041, "note_off_time": 3.313}, {"pitch": 60, "velocity": 77, "note_on_time": 4.433, "note_off_time": 4.618}, {"pitch": 62, "velocity": 72, "note_on_time": 4.81, "note_off_time": 5.008}, {"pitch": 62, "velocity": 74, "note_on_time": 5.179, "note_off_time": 5.458}, {"pitch": 60, "velocity": 78, "note_on_time": 5.996, "note_off_time": 6.179}, {"pitch": 64, "velocity": 71, "note_on_time": 6.364, "note_off_time": 6.567}, {"pitch": 64, "velocity": 69, "note_on_time": 6.74, "note_off_time": 7.351}, {"pitch": 60, "velocity": 78, "note_on_time": 7.48, "note_off_time": 7.699}, {"pitch": 60, "velocity": 82, "note_on_time": 7.852, "note_off_time": 8.04}, {"pitch": 64, "velocity": 73, "note_on_time": 8.222, "note_off_time": 8.436}, {"pitch": 62, "velocity": 75, "note_on_time": 8.586, "note_off_time": 8.774}, {"pitch": 62, "velocity": 67, "note_on_time": 8.938, "note_off_time": 9.148}, {"pitch": 62, "velocity": 84, "note_on_time": 9.326, "note_off_time": 9.949}, {"pitch": 60, "velocity": 79, "note_on_time": 10.514, "note_off_time": 11.074}, {"pitch": 60, "velocity": 77, "note_on_time": 11.934, "note_off_time": 12.177}, {"pitch": 60, "velocity": 74, "note_on_time": 12.313, "note_off_time": 12.513}, {"pitch": 60, "velocity": 90, "note_on_time": 12.68, "note_off_time": 12.966}]</notes><guidance name="Guidance Mode">None</guidance><error name="Error value">0.054123823529411905</error></trial></trials></MIDI>