<MIDI midiNo="2022_11_21-19_21_27"><target_notes><notes name="Note List">[{"pitch": 42, "velocity": 80, "note_on_time": 0.003, "note_off_time": 0.322}, {"pitch": 42, "velocity": 80, "note_on_time": 0.322, "note_off_time": 0.638}, {"pitch": 42, "velocity": 80, "note_on_time": 0.638, "note_off_time": 0.948}, {"pitch": 42, "velocity": 80, "note_on_time": 0.948, "note_off_time": 1.257}, {"pitch": 62, "velocity": 80, "note_on_time": 1.257, "note_off_time": 1.569}, {"pitch": 42, "velocity": 80, "note_on_time": 1.258, "note_off_time": 1.57}, {"pitch": 60, "velocity": 80, "note_on_time": 1.569, "note_off_time": 1.88}, {"pitch": 42, "velocity": 80, "note_on_time": 1.57, "note_off_time": 1.88}, {"pitch": 64, "velocity": 80, "note_on_time": 1.88, "note_off_time": 2.193}, {"pitch": 42, "velocity": 80, "note_on_time": 1.88, "note_off_time": 2.194}, {"pitch": 62, "velocity": 80, "note_on_time": 2.193, "note_off_time": 2.505}, {"pitch": 42, "velocity": 80, "note_on_time": 2.194, "note_off_time": 2.505}, {"pitch": 64, "velocity": 80, "note_on_time": 2.505, "note_off_time": 2.815}, {"pitch": 42, "velocity": 80, "note_on_time": 2.505, "note_off_time": 2.816}, {"pitch": 64, "velocity": 80, "note_on_time": 2.815, "note_off_time": 3.127}, {"pitch": 42, "velocity": 80, "note_on_time": 2.816, "note_off_time": 3.127}, {"pitch": 64, "velocity": 80, "note_on_time": 3.127, "note_off_time": 3.436}, {"pitch": 42, "velocity": 80, "note_on_time": 3.128, "note_off_time": 3.436}, {"pitch": 64, "velocity": 80, "note_on_time": 3.436, "note_off_time": 3.748}, {"pitch": 42, "velocity": 80, "note_on_time": 3.436, "note_off_time": 3.748}, {"pitch": 60, "velocity": 80, "note_on_time": 3.748, "note_off_time": 4.062}, {"pitch": 42, "velocity": 80, "note_on_time": 3.748, "note_off_time": 4.062}, {"pitch": 42, "velocity": 80, "note_on_time": 4.063, "note_off_time": 4.374}, {"pitch": 42, "velocity": 80, "note_on_time": 4.374, "note_off_time": 4.685}, {"pitch": 42, "velocity": 80, "note_on_time": 4.685, "note_off_time": 4.996}, {"pitch": 64, "velocity": 80, "note_on_time": 4.996, "note_off_time": 5.309}, {"pitch": 42, "velocity": 80, "note_on_time": 4.996, "note_off_time": 5.309}, {"pitch": 64, "velocity": 80, "note_on_time": 5.309, "note_off_time": 5.618}, {"pitch": 42, "velocity": 80, "note_on_time": 5.31, "note_off_time": 5.618}, {"pitch": 64, "velocity": 80, "note_on_time": 5.618, "note_off_time": 5.929}, {"pitch": 42, "velocity": 80, "note_on_time": 5.618, "note_off_time": 5.929}, {"pitch": 64, "velocity": 80, "note_on_time": 5.929, "note_off_time": 6.242}, {"pitch": 42, "velocity": 80, "note_on_time": 5.929, "note_off_time": 6.242}, {"pitch": 42, "velocity": 80, "note_on_time": 6.242, "note_off_time": 6.552}, {"pitch": 60, "velocity": 80, "note_on_time": 6.242, "note_off_time": 6.864}, {"pitch": 42, "velocity": 80, "note_on_time": 6.552, "note_off_time": 6.864}, {"pitch": 42, "velocity": 80, "note_on_time": 6.865, "note_off_time": 7.176}, {"pitch": 60, "velocity": 80, "note_on_time": 6.864, "note_off_time": 7.488}, {"pitch": 42, "velocity": 80, "note_on_time": 7.176, "note_off_time": 7.488}, {"pitch": 60, "velocity": 80, "note_on_time": 7.488, "note_off_time": 7.798}, {"pitch": 42, "velocity": 80, "note_on_time": 7.489, "note_off_time": 7.798}, {"pitch": 64, "velocity": 80, "note_on_time": 7.798, "note_off_time": 8.107}, {"pitch": 42, "velocity": 80, "note_on_time": 7.798, "note_off_time": 8.107}, {"pitch": 64, "velocity": 80, "note_on_time": 8.107, "note_off_time": 8.42}, {"pitch": 42, "velocity": 80, "note_on_time": 8.107, "note_off_time": 8.42}, {"pitch": 62, "velocity": 80, "note_on_time": 8.42, "note_off_time": 8.732}, {"pitch": 42, "velocity": 80, "note_on_time": 8.421, "note_off_time": 8.733}, {"pitch": 60, "velocity": 80, "note_on_time": 8.732, "note_off_time": 9.043}, {"pitch": 42, "velocity": 80, "note_on_time": 8.733, "note_off_time": 9.044}, {"pitch": 62, "velocity": 80, "note_on_time": 9.043, "note_off_time": 9.353}, {"pitch": 42, "velocity": 80, "note_on_time": 9.044, "note_off_time": 9.353}, {"pitch": 60, "velocity": 80, "note_on_time": 9.353, "note_off_time": 9.666}, {"pitch": 42, "velocity": 80, "note_on_time": 9.353, "note_off_time": 9.667}, {"pitch": 60, "velocity": 80, "note_on_time": 9.666, "note_off_time": 9.978}, {"pitch": 42, "velocity": 80, "note_on_time": 9.667, "note_off_time": 9.978}, {"pitch": 42, "velocity": 80, "note_on_time": 9.978, "note_off_time": 10.289}, {"pitch": 60, "velocity": 80, "note_on_time": 10.289, "note_off_time": 10.601}, {"pitch": 42, "velocity": 80, "note_on_time": 10.289, "note_off_time": 10.601}, {"pitch": 60, "velocity": 80, "note_on_time": 10.601, "note_off_time": 10.912}, {"pitch": 42, "velocity": 80, "note_on_time": 10.601, "note_off_time": 10.913}, {"pitch": 60, "velocity": 80, "note_on_time": 10.912, "note_off_time": 11.222}, {"pitch": 42, "velocity": 80, "note_on_time": 10.913, "note_off_time": 11.222}]</notes><options name="Option List">((4, 4), [0.5, 0.25], 3, 8, &lt;NoteRangePerHand.THREE_NOTES: 4&gt;, &lt;NoteRangePerHand.ONE_NOTE: 2&gt;, False, True, False, '195')</options></target_notes><trials><trial trial_no="1" timestamp="2022_11_21-19_21_14"><notes name="Played Notes">[{"pitch": 62, "velocity": 79, "note_on_time": 1.284, "note_off_time": 1.534}, {"pitch": 60, "velocity": 76, "note_on_time": 1.572, "note_off_time": 1.873}, {"pitch": 64, "velocity": 73, "note_on_time": 1.873, "note_off_time": 2.178}, {"pitch": 62, "velocity": 72, "note_on_time": 2.176, "note_off_time": 2.313}, {"pitch": 64, "velocity": 76, "note_on_time": 2.485, "note_off_time": 2.62}, {"pitch": 64, "velocity": 66, "note_on_time": 2.808, "note_off_time": 2.94}, {"pitch": 64, "velocity": 71, "note_on_time": 3.115, "note_off_time": 3.258}, {"pitch": 64, "velocity": 83, "note_on_time": 3.425, "note_off_time": 3.574}, {"pitch": 60, "velocity": 91, "note_on_time": 3.738, "note_off_time": 3.86}, {"pitch": 64, "velocity": 79, "note_on_time": 5.027, "note_off_time": 5.152}, {"pitch": 64, "velocity": 73, "note_on_time": 5.314, "note_off_time": 5.437}, {"pitch": 64, "velocity": 70, "note_on_time": 5.619, "note_off_time": 5.76}, {"pitch": 64, "velocity": 81, "note_on_time": 5.931, "note_off_time": 6.075}, {"pitch": 60, "velocity": 89, "note_on_time": 6.239, "note_off_time": 6.462}, {"pitch": 60, "velocity": 93, "note_on_time": 6.841, "note_off_time": 7.16}, {"pitch": 60, "velocity": 90, "note_on_time": 7.478, "note_off_time": 7.697}, {"pitch": 64, "velocity": 82, "note_on_time": 7.763, "note_off_time": 7.959}, {"pitch": 64, "velocity": 63, "note_on_time": 8.055, "note_off_time": 8.225}, {"pitch": 62, "velocity": 74, "note_on_time": 8.364, "note_off_time": 8.544}, {"pitch": 60, "velocity": 59, "note_on_time": 8.737, "note_off_time": 8.913}, {"pitch": 62, "velocity": 74, "note_on_time": 9.034, "note_off_time": 9.204}, {"pitch": 60, "velocity": 65, "note_on_time": 9.336, "note_off_time": 9.479}, {"pitch": 60, "velocity": 74, "note_on_time": 9.646, "note_off_time": 9.804}, {"pitch": 60, "velocity": 89, "note_on_time": 10.301, "note_off_time": 10.421}, {"pitch": 60, "velocity": 83, "note_on_time": 10.593, "note_off_time": 10.694}, {"pitch": 60, "velocity": 100, "note_on_time": 10.891, "note_off_time": 10.975}]</notes><guidance name="Guidance Mode">None</guidance><error name="Error value">0.01590973913043476</error></trial><trial trial_no="2" timestamp="2022_11_21-19_21_37"><notes name="Played Notes">[{"pitch": 62, "velocity": 87, "note_on_time": 1.317, "note_off_time": 1.551}, {"pitch": 60, "velocity": 85, "note_on_time": 1.634, "note_off_time": 1.816}, {"pitch": 64, "velocity": 84, "note_on_time": 1.967, "note_off_time": 2.125}, {"pitch": 62, "velocity": 71, "note_on_time": 2.279, "note_off_time": 2.382}, {"pitch": 64, "velocity": 72, "note_on_time": 2.6, "note_off_time": 2.751}, {"pitch": 64, "velocity": 64, "note_on_time": 2.92, "note_off_time": 3.041}, {"pitch": 64, "velocity": 70, "note_on_time": 3.227, "note_off_time": 3.361}, {"pitch": 64, "velocity": 78, "note_on_time": 3.532, "note_off_time": 3.678}, {"pitch": 60, "velocity": 83, "note_on_time": 3.867, "note_off_time": 4.041}, {"pitch": 64, "velocity": 84, "note_on_time": 4.995, "note_off_time": 5.122}, {"pitch": 64, "velocity": 72, "note_on_time": 5.308, "note_off_time": 5.427}, {"pitch": 64, "velocity": 76, "note_on_time": 5.604, "note_off_time": 5.735}, {"pitch": 64, "velocity": 79, "note_on_time": 5.931, "note_off_time": 6.075}, {"pitch": 60, "velocity": 84, "note_on_time": 6.255, "note_off_time": 6.38}, {"pitch": 60, "velocity": 77, "note_on_time": 6.816, "note_off_time": 6.941}, {"pitch": 60, "velocity": 73, "note_on_time": 7.539, "note_off_time": 7.658}, {"pitch": 64, "velocity": 68, "note_on_time": 7.849, "note_off_time": 7.966}, {"pitch": 64, "velocity": 71, "note_on_time": 8.172, "note_off_time": 8.34}, {"pitch": 62, "velocity": 67, "note_on_time": 8.5, "note_off_time": 8.654}, {"pitch": 64, "velocity": 67, "note_on_time": 8.846, "note_off_time": 8.94}, {"pitch": 60, "velocity": 77, "note_on_time": 9.152, "note_off_time": 9.282}, {"pitch": 62, "velocity": 60, "note_on_time": 9.477, "note_off_time": 9.633}, {"pitch": 60, "velocity": 66, "note_on_time": 9.82, "note_off_time": 9.958}, {"pitch": 60, "velocity": 69, "note_on_time": 10.127, "note_off_time": 10.303}, {"pitch": 60, "velocity": 88, "note_on_time": 10.867, "note_off_time": 10.978}]</notes><guidance name="Guidance Mode">None</guidance><error name="Error value">0.22431443478260865</error></trial><trial trial_no="3" timestamp="2022_11_21-19_22_00"><notes name="Played Notes">[{"pitch": 62, "velocity": 82, "note_on_time": 1.299, "note_off_time": 1.591}, {"pitch": 60, "velocity": 82, "note_on_time": 1.592, "note_off_time": 1.829}, {"pitch": 64, "velocity": 75, "note_on_time": 1.914, "note_off_time": 2.183}, {"pitch": 62, "velocity": 71, "note_on_time": 2.218, "note_off_time": 2.351}, {"pitch": 64, "velocity": 79, "note_on_time": 2.515, "note_off_time": 2.668}, {"pitch": 64, "velocity": 70, "note_on_time": 2.846, "note_off_time": 2.975}, {"pitch": 64, "velocity": 75, "note_on_time": 3.142, "note_off_time": 3.315}, {"pitch": 60, "velocity": 89, "note_on_time": 3.451, "note_off_time": 3.619}, {"pitch": 64, "velocity": 84, "note_on_time": 4.73, "note_off_time": 4.906}, {"pitch": 64, "velocity": 72, "note_on_time": 5.042, "note_off_time": 5.185}, {"pitch": 64, "velocity": 76, "note_on_time": 5.352, "note_off_time": 5.483}, {"pitch": 64, "velocity": 74, "note_on_time": 5.657, "note_off_time": 5.827}, {"pitch": 60, "velocity": 79, "note_on_time": 5.982, "note_off_time": 6.148}, {"pitch": 60, "velocity": 82, "note_on_time": 6.421, "note_off_time": 6.742}, {"pitch": 60, "velocity": 79, "note_on_time": 7.096, "note_off_time": 7.398}, {"pitch": 64, "velocity": 75, "note_on_time": 7.495, "note_off_time": 7.592}, {"pitch": 64, "velocity": 67, "note_on_time": 7.826, "note_off_time": 7.967}, {"pitch": 62, "velocity": 68, "note_on_time": 8.192, "note_off_time": 8.311}, {"pitch": 60, "velocity": 61, "note_on_time": 8.595, "note_off_time": 8.711}, {"pitch": 62, "velocity": 77, "note_on_time": 9.188, "note_off_time": 9.27}, {"pitch": 60, "velocity": 63, "note_on_time": 9.515, "note_off_time": 9.67}, {"pitch": 60, "velocity": 62, "note_on_time": 9.808, "note_off_time": 9.938}, {"pitch": 60, "velocity": 81, "note_on_time": 10.484, "note_off_time": 10.597}, {"pitch": 60, "velocity": 71, "note_on_time": 10.776, "note_off_time": 10.889}, {"pitch": 60, "velocity": 82, "note_on_time": 11.042, "note_off_time": 11.065}]</notes><guidance name="Guidance Mode">None</guidance><error name="Error value">0.10445495652173918</error></trial><trial trial_no="4" timestamp="2022_11_21-19_22_23"><notes name="Played Notes">[{"pitch": 62, "velocity": 74, "note_on_time": 1.273, "note_off_time": 1.55}, {"pitch": 60, "velocity": 73, "note_on_time": 1.567, "note_off_time": 1.897}, {"pitch": 64, "velocity": 71, "note_on_time": 1.897, "note_off_time": 2.072}, {"pitch": 62, "velocity": 64, "note_on_time": 2.185, "note_off_time": 2.301}, {"pitch": 62, "velocity": 64, "note_on_time": 2.506, "note_off_time": 2.605}, {"pitch": 64, "velocity": 75, "note_on_time": 2.768, "note_off_time": 2.91}, {"pitch": 64, "velocity": 78, "note_on_time": 3.132, "note_off_time": 3.246}, {"pitch": 64, "velocity": 64, "note_on_time": 3.452, "note_off_time": 3.604}, {"pitch": 64, "velocity": 74, "note_on_time": 3.797, "note_off_time": 3.935}, {"pitch": 60, "velocity": 79, "note_on_time": 4.108, "note_off_time": 4.304}, {"pitch": 64, "velocity": 73, "note_on_time": 5.067, "note_off_time": 5.199}, {"pitch": 64, "velocity": 68, "note_on_time": 5.399, "note_off_time": 5.508}, {"pitch": 64, "velocity": 68, "note_on_time": 5.7, "note_off_time": 5.827}, {"pitch": 64, "velocity": 77, "note_on_time": 6.017, "note_off_time": 6.16}, {"pitch": 60, "velocity": 77, "note_on_time": 6.34, "note_off_time": 6.461}, {"pitch": 60, "velocity": 87, "note_on_time": 6.848, "note_off_time": 7.008}, {"pitch": 60, "velocity": 85, "note_on_time": 7.458, "note_off_time": 7.702}, {"pitch": 64, "velocity": 71, "note_on_time": 7.769, "note_off_time": 7.897}, {"pitch": 64, "velocity": 65, "note_on_time": 8.09, "note_off_time": 8.293}, {"pitch": 62, "velocity": 64, "note_on_time": 8.402, "note_off_time": 8.576}, {"pitch": 60, "velocity": 86, "note_on_time": 8.751, "note_off_time": 8.874}, {"pitch": 62, "velocity": 57, "note_on_time": 9.14, "note_off_time": 9.372}, {"pitch": 60, "velocity": 64, "note_on_time": 9.447, "note_off_time": 9.621}, {"pitch": 60, "velocity": 70, "note_on_time": 9.76, "note_off_time": 9.9}, {"pitch": 60, "velocity": 85, "note_on_time": 10.33, "note_off_time": 10.45}, {"pitch": 60, "velocity": 72, "note_on_time": 10.628, "note_off_time": 10.73}, {"pitch": 60, "velocity": 85, "note_on_time": 10.918, "note_off_time": 11.007}]</notes><guidance name="Guidance Mode">None</guidance><error name="Error value">0.3547191304347832</error></trial><trial trial_no="5" timestamp="2022_11_21-19_22_46"><notes name="Played Notes">[{"pitch": 62, "velocity": 82, "note_on_time": 1.302, "note_off_time": 1.575}, {"pitch": 60, "velocity": 75, "note_on_time": 1.601, "note_off_time": 1.827}, {"pitch": 64, "velocity": 71, "note_on_time": 1.911, "note_off_time": 2.105}, {"pitch": 62, "velocity": 62, "note_on_time": 2.222, "note_off_time": 2.38}, {"pitch": 64, "velocity": 71, "note_on_time": 2.528, "note_off_time": 2.664}, {"pitch": 64, "velocity": 68, "note_on_time": 2.851, "note_off_time": 2.964}, {"pitch": 64, "velocity": 66, "note_on_time": 3.146, "note_off_time": 3.273}, {"pitch": 64, "velocity": 71, "note_on_time": 3.453, "note_off_time": 3.623}, {"pitch": 60, "velocity": 82, "note_on_time": 3.768, "note_off_time": 3.932}, {"pitch": 64, "velocity": 80, "note_on_time": 5.067, "note_off_time": 5.227}, {"pitch": 64, "velocity": 74, "note_on_time": 5.384, "note_off_time": 5.5}, {"pitch": 64, "velocity": 66, "note_on_time": 5.678, "note_off_time": 5.82}, {"pitch": 64, "velocity": 74, "note_on_time": 5.985, "note_off_time": 6.167}, {"pitch": 60, "velocity": 72, "note_on_time": 6.345, "note_off_time": 6.625}, {"pitch": 60, "velocity": 80, "note_on_time": 6.986, "note_off_time": 7.342}, {"pitch": 60, "velocity": 78, "note_on_time": 7.695, "note_off_time": 7.885}, {"pitch": 64, "velocity": 67, "note_on_time": 7.986, "note_off_time": 8.108}, {"pitch": 64, "velocity": 74, "note_on_time": 8.293, "note_off_time": 8.516}, {"pitch": 62, "velocity": 64, "note_on_time": 8.65, "note_off_time": 8.833}, {"pitch": 60, "velocity": 74, "note_on_time": 8.976, "note_off_time": 9.092}, {"pitch": 60, "velocity": 47, "note_on_time": 9.195, "note_off_time": 9.32}, {"pitch": 62, "velocity": 52, "note_on_time": 9.494, "note_off_time": 9.736}, {"pitch": 60, "velocity": 72, "note_on_time": 9.807, "note_off_time": 10.23}, {"pitch": 60, "velocity": 76, "note_on_time": 10.306, "note_off_time": 10.584}]</notes><guidance name="Guidance Mode">None</guidance><error name="Error value">0.22760539130434804</error></trial></trials></MIDI>