<MIDI midiNo="2022_11_21-19_13_17"><target_notes><notes name="Note List">[{"pitch": 42, "velocity": 80, "note_on_time": 0.004, "note_off_time": 0.408}, {"pitch": 42, "velocity": 80, "note_on_time": 0.408, "note_off_time": 0.814}, {"pitch": 42, "velocity": 80, "note_on_time": 0.814, "note_off_time": 1.219}, {"pitch": 42, "velocity": 80, "note_on_time": 1.22, "note_off_time": 1.623}, {"pitch": 42, "velocity": 80, "note_on_time": 1.624, "note_off_time": 2.03}, {"pitch": 62, "velocity": 80, "note_on_time": 1.623, "note_off_time": 2.435}, {"pitch": 42, "velocity": 80, "note_on_time": 2.03, "note_off_time": 2.435}, {"pitch": 42, "velocity": 80, "note_on_time": 2.436, "note_off_time": 2.84}, {"pitch": 62, "velocity": 80, "note_on_time": 2.435, "note_off_time": 3.247}, {"pitch": 42, "velocity": 80, "note_on_time": 2.84, "note_off_time": 3.247}, {"pitch": 60, "velocity": 80, "note_on_time": 3.247, "note_off_time": 3.651}, {"pitch": 42, "velocity": 80, "note_on_time": 3.247, "note_off_time": 3.651}, {"pitch": 64, "velocity": 80, "note_on_time": 3.651, "note_off_time": 4.056}, {"pitch": 42, "velocity": 80, "note_on_time": 3.651, "note_off_time": 4.057}, {"pitch": 64, "velocity": 80, "note_on_time": 4.056, "note_off_time": 4.461}, {"pitch": 42, "velocity": 80, "note_on_time": 4.057, "note_off_time": 4.461}, {"pitch": 64, "velocity": 80, "note_on_time": 4.461, "note_off_time": 4.864}, {"pitch": 42, "velocity": 80, "note_on_time": 4.462, "note_off_time": 4.864}, {"pitch": 42, "velocity": 80, "note_on_time": 4.864, "note_off_time": 5.271}, {"pitch": 62, "velocity": 80, "note_on_time": 4.864, "note_off_time": 5.674}, {"pitch": 42, "velocity": 80, "note_on_time": 5.271, "note_off_time": 5.674}, {"pitch": 42, "velocity": 80, "note_on_time": 5.674, "note_off_time": 6.077}, {"pitch": 42, "velocity": 80, "note_on_time": 6.077, "note_off_time": 6.482}, {"pitch": 64, "velocity": 80, "note_on_time": 6.482, "note_off_time": 6.887}, {"pitch": 42, "velocity": 80, "note_on_time": 6.482, "note_off_time": 6.887}, {"pitch": 62, "velocity": 80, "note_on_time": 6.887, "note_off_time": 7.294}, {"pitch": 42, "velocity": 80, "note_on_time": 6.888, "note_off_time": 7.294}, {"pitch": 62, "velocity": 80, "note_on_time": 7.294, "note_off_time": 7.698}, {"pitch": 42, "velocity": 80, "note_on_time": 7.294, "note_off_time": 7.698}, {"pitch": 62, "velocity": 80, "note_on_time": 7.698, "note_off_time": 8.102}, {"pitch": 42, "velocity": 80, "note_on_time": 7.698, "note_off_time": 8.102}, {"pitch": 42, "velocity": 80, "note_on_time": 8.103, "note_off_time": 8.507}, {"pitch": 64, "velocity": 80, "note_on_time": 8.102, "note_off_time": 8.912}, {"pitch": 42, "velocity": 80, "note_on_time": 8.507, "note_off_time": 8.912}, {"pitch": 42, "velocity": 80, "note_on_time": 8.912, "note_off_time": 9.318}, {"pitch": 42, "velocity": 80, "note_on_time": 9.318, "note_off_time": 9.723}, {"pitch": 62, "velocity": 80, "note_on_time": 9.723, "note_off_time": 10.129}, {"pitch": 42, "velocity": 80, "note_on_time": 9.724, "note_off_time": 10.129}, {"pitch": 64, "velocity": 80, "note_on_time": 10.129, "note_off_time": 10.534}, {"pitch": 42, "velocity": 80, "note_on_time": 10.13, "note_off_time": 10.534}, {"pitch": 60, "velocity": 80, "note_on_time": 10.534, "note_off_time": 10.937}, {"pitch": 42, "velocity": 80, "note_on_time": 10.535, "note_off_time": 10.937}, {"pitch": 62, "velocity": 80, "note_on_time": 10.937, "note_off_time": 11.342}, {"pitch": 42, "velocity": 80, "note_on_time": 10.937, "note_off_time": 11.343}, {"pitch": 60, "velocity": 80, "note_on_time": 11.342, "note_off_time": 11.747}, {"pitch": 42, "velocity": 80, "note_on_time": 11.343, "note_off_time": 11.747}, {"pitch": 64, "velocity": 80, "note_on_time": 11.747, "note_off_time": 12.149}, {"pitch": 42, "velocity": 80, "note_on_time": 11.748, "note_off_time": 12.149}, {"pitch": 60, "velocity": 80, "note_on_time": 12.149, "note_off_time": 12.557}, {"pitch": 42, "velocity": 80, "note_on_time": 12.149, "note_off_time": 12.557}, {"pitch": 60, "velocity": 80, "note_on_time": 12.557, "note_off_time": 12.959}, {"pitch": 42, "velocity": 80, "note_on_time": 12.558, "note_off_time": 12.959}, {"pitch": 42, "velocity": 80, "note_on_time": 12.959, "note_off_time": 13.365}, {"pitch": 60, "velocity": 80, "note_on_time": 13.365, "note_off_time": 13.767}, {"pitch": 42, "velocity": 80, "note_on_time": 13.365, "note_off_time": 13.768}, {"pitch": 60, "velocity": 80, "note_on_time": 13.767, "note_off_time": 14.172}, {"pitch": 42, "velocity": 80, "note_on_time": 13.768, "note_off_time": 14.172}, {"pitch": 60, "velocity": 80, "note_on_time": 14.172, "note_off_time": 14.576}, {"pitch": 42, "velocity": 80, "note_on_time": 14.173, "note_off_time": 14.576}]</notes><options name="Option List">((4, 4), [0.5, 0.25], 3, 8, &lt;NoteRangePerHand.THREE_NOTES: 4&gt;, &lt;NoteRangePerHand.ONE_NOTE: 2&gt;, False, True, False, '150')</options></target_notes><trials><trial trial_no="1" timestamp="2022_11_21-19_13_00"><notes name="Played Notes">[{"pitch": 62, "velocity": 75, "note_on_time": 1.613, "note_off_time": 2.175}, {"pitch": 62, "velocity": 80, "note_on_time": 2.516, "note_off_time": 3.066}, {"pitch": 60, "velocity": 92, "note_on_time": 3.367, "note_off_time": 3.855}, {"pitch": 64, "velocity": 76, "note_on_time": 3.781, "note_off_time": 4.0}, {"pitch": 64, "velocity": 84, "note_on_time": 4.16, "note_off_time": 4.394}, {"pitch": 64, "velocity": 78, "note_on_time": 4.535, "note_off_time": 4.942}, {"pitch": 62, "velocity": 78, "note_on_time": 4.93, "note_off_time": 5.203}, {"pitch": 64, "velocity": 86, "note_on_time": 6.075, "note_off_time": 6.506}, {"pitch": 62, "velocity": 74, "note_on_time": 6.449, "note_off_time": 6.616}, {"pitch": 62, "velocity": 74, "note_on_time": 6.844, "note_off_time": 7.027}, {"pitch": 62, "velocity": 83, "note_on_time": 7.234, "note_off_time": 7.471}, {"pitch": 64, "velocity": 86, "note_on_time": 7.672, "note_off_time": 7.943}, {"pitch": 62, "velocity": 79, "note_on_time": 9.331, "note_off_time": 9.629}, {"pitch": 64, "velocity": 73, "note_on_time": 9.721, "note_off_time": 9.97}, {"pitch": 60, "velocity": 85, "note_on_time": 10.095, "note_off_time": 10.365}, {"pitch": 62, "velocity": 72, "note_on_time": 10.498, "note_off_time": 10.721}, {"pitch": 60, "velocity": 81, "note_on_time": 10.862, "note_off_time": 11.032}, {"pitch": 64, "velocity": 73, "note_on_time": 11.303, "note_off_time": 11.567}, {"pitch": 60, "velocity": 77, "note_on_time": 11.751, "note_off_time": 11.94}, {"pitch": 60, "velocity": 90, "note_on_time": 12.147, "note_off_time": 12.33}, {"pitch": 60, "velocity": 88, "note_on_time": 12.973, "note_off_time": 13.16}, {"pitch": 60, "velocity": 89, "note_on_time": 13.406, "note_off_time": 13.565}, {"pitch": 60, "velocity": 97, "note_on_time": 13.78, "note_off_time": 13.948}]</notes><guidance name="Guidance Mode">None</guidance><error name="Error value">0.05324999999999983</error></trial><trial trial_no="2" timestamp="2022_11_21-19_13_26"><notes name="Played Notes">[{"pitch": 62, "velocity": 75, "note_on_time": 1.631, "note_off_time": 2.305}, {"pitch": 62, "velocity": 81, "note_on_time": 2.871, "note_off_time": 3.303}, {"pitch": 60, "velocity": 88, "note_on_time": 4.078, "note_off_time": 4.414}, {"pitch": 64, "velocity": 80, "note_on_time": 4.503, "note_off_time": 4.666}, {"pitch": 64, "velocity": 83, "note_on_time": 4.866, "note_off_time": 5.163}, {"pitch": 64, "velocity": 80, "note_on_time": 5.244, "note_off_time": 5.54}, {"pitch": 62, "velocity": 75, "note_on_time": 5.67, "note_off_time": 6.136}, {"pitch": 64, "velocity": 90, "note_on_time": 6.859, "note_off_time": 7.257}, {"pitch": 62, "velocity": 69, "note_on_time": 7.278, "note_off_time": 7.401}, {"pitch": 62, "velocity": 70, "note_on_time": 7.651, "note_off_time": 7.825}, {"pitch": 62, "velocity": 73, "note_on_time": 8.066, "note_off_time": 8.403}, {"pitch": 64, "velocity": 83, "note_on_time": 8.485, "note_off_time": 8.812}, {"pitch": 62, "velocity": 63, "note_on_time": 8.885, "note_off_time": 9.038}, {"pitch": 64, "velocity": 73, "note_on_time": 9.292, "note_off_time": 9.452}, {"pitch": 60, "velocity": 77, "note_on_time": 9.709, "note_off_time": 9.91}, {"pitch": 64, "velocity": 26, "note_on_time": 10.188, "note_off_time": 10.361}, {"pitch": 62, "velocity": 75, "note_on_time": 10.527, "note_off_time": 10.898}, {"pitch": 60, "velocity": 66, "note_on_time": 11.103, "note_off_time": 11.371}, {"pitch": 64, "velocity": 30, "note_on_time": 11.588, "note_off_time": 11.84}, {"pitch": 60, "velocity": 62, "note_on_time": 12.023, "note_off_time": 12.21}, {"pitch": 60, "velocity": 68, "note_on_time": 12.384, "note_off_time": 12.645}, {"pitch": 60, "velocity": 79, "note_on_time": 13.738, "note_off_time": 13.959}, {"pitch": 60, "velocity": 77, "note_on_time": 14.156, "note_off_time": 14.296}]</notes><guidance name="Guidance Mode">None</guidance><error name="Error value">0.41445</error></trial><trial trial_no="3" timestamp="2022_11_21-19_13_56"><notes name="Played Notes">[{"pitch": 62, "velocity": 79, "note_on_time": 1.637, "note_off_time": 2.264}, {"pitch": 62, "velocity": 84, "note_on_time": 2.496, "note_off_time": 3.129}, {"pitch": 60, "velocity": 88, "note_on_time": 3.396, "note_off_time": 3.871}, {"pitch": 64, "velocity": 79, "note_on_time": 3.792, "note_off_time": 3.984}, {"pitch": 64, "velocity": 74, "note_on_time": 4.185, "note_off_time": 4.363}, {"pitch": 64, "velocity": 75, "note_on_time": 4.576, "note_off_time": 4.851}, {"pitch": 62, "velocity": 69, "note_on_time": 4.993, "note_off_time": 5.276}, {"pitch": 64, "velocity": 85, "note_on_time": 6.476, "note_off_time": 6.874}, {"pitch": 62, "velocity": 71, "note_on_time": 6.855, "note_off_time": 7.018}, {"pitch": 62, "velocity": 67, "note_on_time": 7.254, "note_off_time": 7.426}, {"pitch": 62, "velocity": 71, "note_on_time": 7.654, "note_off_time": 7.912}, {"pitch": 64, "velocity": 77, "note_on_time": 8.062, "note_off_time": 8.77}, {"pitch": 62, "velocity": 80, "note_on_time": 9.759, "note_off_time": 10.103}, {"pitch": 60, "velocity": 71, "note_on_time": 10.161, "note_off_time": 10.235}, {"pitch": 64, "velocity": 58, "note_on_time": 10.268, "note_off_time": 10.627}, {"pitch": 60, "velocity": 72, "note_on_time": 10.677, "note_off_time": 11.1}, {"pitch": 62, "velocity": 57, "note_on_time": 11.13, "note_off_time": 11.471}, {"pitch": 60, "velocity": 72, "note_on_time": 11.567, "note_off_time": 11.961}, {"pitch": 64, "velocity": 74, "note_on_time": 11.959, "note_off_time": 12.29}, {"pitch": 60, "velocity": 75, "note_on_time": 12.35, "note_off_time": 12.507}, {"pitch": 60, "velocity": 84, "note_on_time": 12.745, "note_off_time": 12.91}, {"pitch": 60, "velocity": 87, "note_on_time": 13.137, "note_off_time": 13.31}, {"pitch": 60, "velocity": 79, "note_on_time": 13.857, "note_off_time": 14.027}, {"pitch": 60, "velocity": 66, "note_on_time": 14.246, "note_off_time": 14.391}]</notes><guidance name="Guidance Mode">None</guidance><error name="Error value">0.1944499999999998</error></trial><trial trial_no="4" timestamp="2022_11_21-19_14_26"><notes name="Played Notes">[{"pitch": 62, "velocity": 78, "note_on_time": 1.619, "note_off_time": 1.912}, {"pitch": 62, "velocity": 78, "note_on_time": 2.835, "note_off_time": 3.491}, {"pitch": 60, "velocity": 87, "note_on_time": 4.101, "note_off_time": 4.519}, {"pitch": 64, "velocity": 77, "note_on_time": 4.478, "note_off_time": 4.676}, {"pitch": 64, "velocity": 70, "note_on_time": 4.87, "note_off_time": 5.053}, {"pitch": 64, "velocity": 75, "note_on_time": 5.266, "note_off_time": 5.685}, {"pitch": 62, "velocity": 70, "note_on_time": 5.705, "note_off_time": 6.053}, {"pitch": 64, "velocity": 79, "note_on_time": 7.303, "note_off_time": 7.714}, {"pitch": 62, "velocity": 65, "note_on_time": 7.696, "note_off_time": 7.868}, {"pitch": 62, "velocity": 65, "note_on_time": 8.093, "note_off_time": 8.262}, {"pitch": 62, "velocity": 75, "note_on_time": 8.487, "note_off_time": 8.729}, {"pitch": 64, "velocity": 84, "note_on_time": 8.903, "note_off_time": 9.645}, {"pitch": 62, "velocity": 77, "note_on_time": 10.901, "note_off_time": 11.24}, {"pitch": 64, "velocity": 79, "note_on_time": 11.304, "note_off_time": 11.673}, {"pitch": 60, "velocity": 82, "note_on_time": 11.683, "note_off_time": 12.121}, {"pitch": 62, "velocity": 77, "note_on_time": 12.093, "note_off_time": 12.422}, {"pitch": 60, "velocity": 76, "note_on_time": 12.465, "note_off_time": 12.86}, {"pitch": 64, "velocity": 77, "note_on_time": 12.87, "note_off_time": 13.242}, {"pitch": 60, "velocity": 75, "note_on_time": 13.245, "note_off_time": 13.435}, {"pitch": 60, "velocity": 87, "note_on_time": 13.65, "note_off_time": 13.999}]</notes><guidance name="Guidance Mode">None</guidance><error name="Error value">0.4588500000000001</error></trial><trial trial_no="5" timestamp="2022_11_21-19_14_51"><notes name="Played Notes">[{"pitch": 62, "velocity": 77, "note_on_time": 1.652, "note_off_time": 2.354}, {"pitch": 62, "velocity": 81, "note_on_time": 2.745, "note_off_time": 3.473}, {"pitch": 60, "velocity": 90, "note_on_time": 3.824, "note_off_time": 4.384}, {"pitch": 64, "velocity": 74, "note_on_time": 4.41, "note_off_time": 4.661}, {"pitch": 64, "velocity": 82, "note_on_time": 4.831, "note_off_time": 5.048}, {"pitch": 64, "velocity": 75, "note_on_time": 5.263, "note_off_time": 5.653}, {"pitch": 62, "velocity": 76, "note_on_time": 5.711, "note_off_time": 6.515}, {"pitch": 64, "velocity": 82, "note_on_time": 7.297, "note_off_time": 7.738}, {"pitch": 62, "velocity": 61, "note_on_time": 7.716, "note_off_time": 7.903}, {"pitch": 62, "velocity": 73, "note_on_time": 8.104, "note_off_time": 8.483}, {"pitch": 64, "velocity": 77, "note_on_time": 8.505, "note_off_time": 9.12}, {"pitch": 62, "velocity": 77, "note_on_time": 10.118, "note_off_time": 10.542}, {"pitch": 64, "velocity": 71, "note_on_time": 10.56, "note_off_time": 10.898}, {"pitch": 60, "velocity": 73, "note_on_time": 10.919, "note_off_time": 11.304}, {"pitch": 62, "velocity": 73, "note_on_time": 11.347, "note_off_time": 11.657}, {"pitch": 60, "velocity": 74, "note_on_time": 11.739, "note_off_time": 12.042}, {"pitch": 64, "velocity": 83, "note_on_time": 12.18, "note_off_time": 12.546}, {"pitch": 60, "velocity": 69, "note_on_time": 12.575, "note_off_time": 12.791}, {"pitch": 60, "velocity": 94, "note_on_time": 12.987, "note_off_time": 13.308}, {"pitch": 60, "velocity": 82, "note_on_time": 13.942, "note_off_time": 14.166}, {"pitch": 60, "velocity": 87, "note_on_time": 14.34, "note_off_time": 14.493}]</notes><guidance name="Guidance Mode">None</guidance><error name="Error value">0.19390000000000007</error></trial></trials></MIDI>