<MIDI midiNo="2022_11_03-13_52_04"><target_notes><notes name="Note List">[{"pitch": 42, "velocity": 80, "note_on_time": 0.005, "note_off_time": 0.253}, {"pitch": 42, "velocity": 80, "note_on_time": 0.253, "note_off_time": 0.502}, {"pitch": 42, "velocity": 80, "note_on_time": 0.502, "note_off_time": 0.75}, {"pitch": 42, "velocity": 80, "note_on_time": 0.75, "note_off_time": 0.999}, {"pitch": 42, "velocity": 80, "note_on_time": 0.999, "note_off_time": 1.248}, {"pitch": 60, "velocity": 80, "note_on_time": 0.999, "note_off_time": 1.498}, {"pitch": 42, "velocity": 80, "note_on_time": 1.248, "note_off_time": 1.498}, {"pitch": 42, "velocity": 80, "note_on_time": 1.499, "note_off_time": 1.748}, {"pitch": 62, "velocity": 80, "note_on_time": 1.498, "note_off_time": 1.997}, {"pitch": 42, "velocity": 80, "note_on_time": 1.748, "note_off_time": 1.998}, {"pitch": 64, "velocity": 80, "note_on_time": 1.997, "note_off_time": 2.247}, {"pitch": 42, "velocity": 80, "note_on_time": 1.998, "note_off_time": 2.247}, {"pitch": 42, "velocity": 80, "note_on_time": 2.247, "note_off_time": 2.494}, {"pitch": 60, "velocity": 80, "note_on_time": 2.494, "note_off_time": 2.742}, {"pitch": 42, "velocity": 80, "note_on_time": 2.495, "note_off_time": 2.742}, {"pitch": 62, "velocity": 80, "note_on_time": 2.742, "note_off_time": 2.99}, {"pitch": 42, "velocity": 80, "note_on_time": 2.743, "note_off_time": 2.99}, {"pitch": 62, "velocity": 80, "note_on_time": 2.99, "note_off_time": 3.238}, {"pitch": 42, "velocity": 80, "note_on_time": 2.991, "note_off_time": 3.238}, {"pitch": 60, "velocity": 80, "note_on_time": 3.238, "note_off_time": 3.485}, {"pitch": 42, "velocity": 80, "note_on_time": 3.238, "note_off_time": 3.485}, {"pitch": 60, "velocity": 80, "note_on_time": 3.485, "note_off_time": 3.733}, {"pitch": 42, "velocity": 80, "note_on_time": 3.485, "note_off_time": 3.734}, {"pitch": 60, "velocity": 80, "note_on_time": 3.733, "note_off_time": 3.983}, {"pitch": 42, "velocity": 80, "note_on_time": 3.734, "note_off_time": 3.983}, {"pitch": 64, "velocity": 80, "note_on_time": 3.983, "note_off_time": 4.233}, {"pitch": 42, "velocity": 80, "note_on_time": 3.983, "note_off_time": 4.233}, {"pitch": 64, "velocity": 80, "note_on_time": 4.233, "note_off_time": 4.483}, {"pitch": 42, "velocity": 80, "note_on_time": 4.233, "note_off_time": 4.484}, {"pitch": 62, "velocity": 80, "note_on_time": 4.483, "note_off_time": 4.731}, {"pitch": 42, "velocity": 80, "note_on_time": 4.484, "note_off_time": 4.731}, {"pitch": 60, "velocity": 80, "note_on_time": 4.731, "note_off_time": 4.979}, {"pitch": 42, "velocity": 80, "note_on_time": 4.732, "note_off_time": 4.979}, {"pitch": 60, "velocity": 80, "note_on_time": 4.979, "note_off_time": 5.228}, {"pitch": 42, "velocity": 80, "note_on_time": 4.98, "note_off_time": 5.228}, {"pitch": 60, "velocity": 80, "note_on_time": 5.228, "note_off_time": 5.477}, {"pitch": 42, "velocity": 80, "note_on_time": 5.228, "note_off_time": 5.477}, {"pitch": 64, "velocity": 80, "note_on_time": 5.477, "note_off_time": 5.725}, {"pitch": 42, "velocity": 80, "note_on_time": 5.478, "note_off_time": 5.725}, {"pitch": 64, "velocity": 80, "note_on_time": 5.725, "note_off_time": 5.974}, {"pitch": 42, "velocity": 80, "note_on_time": 5.725, "note_off_time": 5.974}, {"pitch": 60, "velocity": 80, "note_on_time": 5.974, "note_off_time": 6.224}, {"pitch": 42, "velocity": 80, "note_on_time": 5.975, "note_off_time": 6.224}, {"pitch": 64, "velocity": 80, "note_on_time": 6.224, "note_off_time": 6.475}, {"pitch": 42, "velocity": 80, "note_on_time": 6.224, "note_off_time": 6.475}, {"pitch": 64, "velocity": 80, "note_on_time": 6.475, "note_off_time": 6.724}, {"pitch": 42, "velocity": 80, "note_on_time": 6.475, "note_off_time": 6.724}, {"pitch": 64, "velocity": 80, "note_on_time": 6.724, "note_off_time": 6.974}, {"pitch": 42, "velocity": 80, "note_on_time": 6.724, "note_off_time": 6.975}, {"pitch": 62, "velocity": 80, "note_on_time": 6.974, "note_off_time": 7.223}, {"pitch": 42, "velocity": 80, "note_on_time": 6.975, "note_off_time": 7.223}, {"pitch": 42, "velocity": 80, "note_on_time": 7.224, "note_off_time": 7.472}, {"pitch": 42, "velocity": 80, "note_on_time": 7.472, "note_off_time": 7.722}, {"pitch": 42, "velocity": 80, "note_on_time": 7.723, "note_off_time": 7.971}, {"pitch": 42, "velocity": 80, "note_on_time": 7.972, "note_off_time": 8.221}, {"pitch": 62, "velocity": 80, "note_on_time": 8.22, "note_off_time": 8.47}, {"pitch": 42, "velocity": 80, "note_on_time": 8.221, "note_off_time": 8.47}, {"pitch": 62, "velocity": 80, "note_on_time": 8.47, "note_off_time": 8.719}, {"pitch": 42, "velocity": 80, "note_on_time": 8.471, "note_off_time": 8.719}, {"pitch": 62, "velocity": 80, "note_on_time": 8.719, "note_off_time": 8.968}, {"pitch": 42, "velocity": 80, "note_on_time": 8.72, "note_off_time": 8.968}]</notes><options name="Option List">((4, 4), [0.5, 0.25], 3, 8, &lt;NoteRangePerHand.THREE_NOTES: 4&gt;, &lt;NoteRangePerHand.ONE_NOTE: 2&gt;, False, True, False, 248)</options></target_notes><trials><trial trial_no="1" timestamp="2022_11_03-13_51_53"><notes name="Played Notes">[{"pitch": 60, "velocity": 79, "note_on_time": 1.004, "note_off_time": 1.387}, {"pitch": 62, "velocity": 64, "note_on_time": 1.531, "note_off_time": 1.813}, {"pitch": 64, "velocity": 59, "note_on_time": 2.021, "note_off_time": 2.177}, {"pitch": 60, "velocity": 44, "note_on_time": 2.511, "note_off_time": 2.632}, {"pitch": 62, "velocity": 44, "note_on_time": 2.767, "note_off_time": 2.839}, {"pitch": 62, "velocity": 49, "note_on_time": 3.017, "note_off_time": 3.066}, {"pitch": 60, "velocity": 73, "note_on_time": 3.122, "note_off_time": 3.184}, {"pitch": 60, "velocity": 37, "note_on_time": 3.242, "note_off_time": 3.345}, {"pitch": 60, "velocity": 23, "note_on_time": 3.429, "note_off_time": 3.627}, {"pitch": 60, "velocity": 17, "note_on_time": 3.799, "note_off_time": 3.888}, {"pitch": 64, "velocity": 54, "note_on_time": 4.024, "note_off_time": 4.164}, {"pitch": 64, "velocity": 64, "note_on_time": 4.268, "note_off_time": 4.387}, {"pitch": 62, "velocity": 63, "note_on_time": 4.504, "note_off_time": 4.632}, {"pitch": 60, "velocity": 44, "note_on_time": 4.81, "note_off_time": 4.875}, {"pitch": 60, "velocity": 44, "note_on_time": 5.083, "note_off_time": 5.172}, {"pitch": 60, "velocity": 51, "note_on_time": 5.305, "note_off_time": 5.43}, {"pitch": 62, "velocity": 53, "note_on_time": 5.565, "note_off_time": 5.692}, {"pitch": 60, "velocity": 41, "note_on_time": 6.112, "note_off_time": 6.209}, {"pitch": 64, "velocity": 56, "note_on_time": 6.53, "note_off_time": 6.65}, {"pitch": 64, "velocity": 55, "note_on_time": 6.75, "note_off_time": 6.882}, {"pitch": 64, "velocity": 52, "note_on_time": 6.992, "note_off_time": 7.117}, {"pitch": 60, "velocity": 55, "note_on_time": 7.241, "note_off_time": 7.383}, {"pitch": 62, "velocity": 14, "note_on_time": 8.178, "note_off_time": 8.294}, {"pitch": 62, "velocity": 57, "note_on_time": 8.406, "note_off_time": 8.558}, {"pitch": 62, "velocity": 55, "note_on_time": 8.674, "note_off_time": 8.879}]</notes><guidance name="Guidance Mode">None</guidance><error name="Error value">0.34092386363636373</error></trial><trial trial_no="2" timestamp="2022_11_03-13_52_13"><notes name="Played Notes">[{"pitch": 60, "velocity": 64, "note_on_time": 1.055, "note_off_time": 1.577}, {"pitch": 62, "velocity": 76, "note_on_time": 1.583, "note_off_time": 1.839}, {"pitch": 64, "velocity": 68, "note_on_time": 2.095, "note_off_time": 2.226}, {"pitch": 60, "velocity": 68, "note_on_time": 2.577, "note_off_time": 2.699}, {"pitch": 62, "velocity": 59, "note_on_time": 2.8, "note_off_time": 2.917}, {"pitch": 62, "velocity": 85, "note_on_time": 3.087, "note_off_time": 3.235}, {"pitch": 60, "velocity": 66, "note_on_time": 3.334, "note_off_time": 3.431}, {"pitch": 60, "velocity": 70, "note_on_time": 3.573, "note_off_time": 3.692}, {"pitch": 60, "velocity": 70, "note_on_time": 3.799, "note_off_time": 3.941}, {"pitch": 64, "velocity": 58, "note_on_time": 4.072, "note_off_time": 4.193}, {"pitch": 64, "velocity": 70, "note_on_time": 4.305, "note_off_time": 4.454}, {"pitch": 62, "velocity": 56, "note_on_time": 4.54, "note_off_time": 4.681}, {"pitch": 60, "velocity": 62, "note_on_time": 4.771, "note_off_time": 4.902}, {"pitch": 60, "velocity": 67, "note_on_time": 5.022, "note_off_time": 5.146}, {"pitch": 60, "velocity": 58, "note_on_time": 5.26, "note_off_time": 5.411}, {"pitch": 64, "velocity": 68, "note_on_time": 5.517, "note_off_time": 5.634}, {"pitch": 64, "velocity": 54, "note_on_time": 5.737, "note_off_time": 5.9}, {"pitch": 62, "velocity": 45, "note_on_time": 6.024, "note_off_time": 6.308}, {"pitch": 64, "velocity": 27, "note_on_time": 6.539, "note_off_time": 6.597}, {"pitch": 62, "velocity": 62, "note_on_time": 6.609, "note_off_time": 6.695}, {"pitch": 62, "velocity": 66, "note_on_time": 6.794, "note_off_time": 6.872}, {"pitch": 64, "velocity": 16, "note_on_time": 6.994, "note_off_time": 7.095}, {"pitch": 64, "velocity": 55, "note_on_time": 7.192, "note_off_time": 7.293}, {"pitch": 62, "velocity": 51, "note_on_time": 7.437, "note_off_time": 7.692}, {"pitch": 62, "velocity": 48, "note_on_time": 8.444, "note_off_time": 8.58}, {"pitch": 62, "velocity": 53, "note_on_time": 8.689, "note_off_time": 8.795}]</notes><guidance name="Guidance Mode">None</guidance><error name="Error value">0.4370761363636364</error></trial><trial trial_no="3" timestamp="2022_11_03-13_52_33"><notes name="Played Notes">[{"pitch": 60, "velocity": 68, "note_on_time": 1.025, "note_off_time": 1.547}, {"pitch": 62, "velocity": 61, "note_on_time": 1.526, "note_off_time": 1.905}, {"pitch": 64, "velocity": 65, "note_on_time": 2.067, "note_off_time": 2.21}, {"pitch": 60, "velocity": 52, "note_on_time": 2.565, "note_off_time": 2.679}, {"pitch": 62, "velocity": 61, "note_on_time": 2.8, "note_off_time": 2.929}, {"pitch": 62, "velocity": 51, "note_on_time": 3.064, "note_off_time": 3.202}, {"pitch": 60, "velocity": 48, "note_on_time": 3.301, "note_off_time": 3.441}, {"pitch": 60, "velocity": 51, "note_on_time": 3.559, "note_off_time": 3.673}, {"pitch": 60, "velocity": 54, "note_on_time": 3.784, "note_off_time": 3.918}, {"pitch": 64, "velocity": 60, "note_on_time": 4.038, "note_off_time": 4.154}, {"pitch": 64, "velocity": 56, "note_on_time": 4.257, "note_off_time": 4.388}, {"pitch": 62, "velocity": 59, "note_on_time": 4.5, "note_off_time": 4.627}, {"pitch": 60, "velocity": 52, "note_on_time": 4.751, "note_off_time": 4.88}, {"pitch": 60, "velocity": 70, "note_on_time": 5.001, "note_off_time": 5.137}, {"pitch": 64, "velocity": 20, "note_on_time": 5.26, "note_off_time": 5.417}, {"pitch": 64, "velocity": 68, "note_on_time": 5.503, "note_off_time": 5.639}, {"pitch": 60, "velocity": 68, "note_on_time": 5.778, "note_off_time": 5.849}, {"pitch": 64, "velocity": 42, "note_on_time": 6.041, "note_off_time": 6.212}, {"pitch": 64, "velocity": 79, "note_on_time": 6.297, "note_off_time": 6.407}, {"pitch": 64, "velocity": 47, "note_on_time": 6.513, "note_off_time": 6.665}, {"pitch": 62, "velocity": 79, "note_on_time": 6.845, "note_off_time": 7.109}, {"pitch": 62, "velocity": 64, "note_on_time": 7.758, "note_off_time": 7.878}, {"pitch": 62, "velocity": 58, "note_on_time": 7.984, "note_off_time": 8.11}, {"pitch": 62, "velocity": 65, "note_on_time": 8.251, "note_off_time": 8.44}]</notes><guidance name="Guidance Mode">None</guidance><error name="Error value">0.08969954545454563</error></trial></trials></MIDI>