<MIDI midiNo="2022_11_03-09_05_04"><target_notes><notes name="Note List">[{"pitch": 42, "velocity": 80, "note_on_time": 0.004, "note_off_time": 0.373}, {"pitch": 42, "velocity": 80, "note_on_time": 0.373, "note_off_time": 0.746}, {"pitch": 42, "velocity": 80, "note_on_time": 0.746, "note_off_time": 1.12}, {"pitch": 42, "velocity": 80, "note_on_time": 1.12, "note_off_time": 1.496}, {"pitch": 42, "velocity": 80, "note_on_time": 1.496, "note_off_time": 1.868}, {"pitch": 60, "velocity": 80, "note_on_time": 1.496, "note_off_time": 2.245}, {"pitch": 42, "velocity": 80, "note_on_time": 1.868, "note_off_time": 2.245}, {"pitch": 42, "velocity": 80, "note_on_time": 2.245, "note_off_time": 2.622}, {"pitch": 64, "velocity": 80, "note_on_time": 2.622, "note_off_time": 2.996}, {"pitch": 42, "velocity": 80, "note_on_time": 2.622, "note_off_time": 2.996}, {"pitch": 65, "velocity": 80, "note_on_time": 2.996, "note_off_time": 3.37}, {"pitch": 42, "velocity": 80, "note_on_time": 2.996, "note_off_time": 3.371}, {"pitch": 42, "velocity": 80, "note_on_time": 3.371, "note_off_time": 3.742}, {"pitch": 60, "velocity": 80, "note_on_time": 3.37, "note_off_time": 4.116}, {"pitch": 42, "velocity": 80, "note_on_time": 3.743, "note_off_time": 4.117}, {"pitch": 42, "velocity": 80, "note_on_time": 4.117, "note_off_time": 4.49}, {"pitch": 65, "velocity": 80, "note_on_time": 4.49, "note_off_time": 4.865}, {"pitch": 42, "velocity": 80, "note_on_time": 4.49, "note_off_time": 4.865}, {"pitch": 60, "velocity": 80, "note_on_time": 4.865, "note_off_time": 5.235}, {"pitch": 42, "velocity": 80, "note_on_time": 4.865, "note_off_time": 5.235}, {"pitch": 65, "velocity": 80, "note_on_time": 5.235, "note_off_time": 5.609}, {"pitch": 42, "velocity": 80, "note_on_time": 5.235, "note_off_time": 5.609}, {"pitch": 60, "velocity": 80, "note_on_time": 5.609, "note_off_time": 5.982}, {"pitch": 42, "velocity": 80, "note_on_time": 5.609, "note_off_time": 5.982}, {"pitch": 42, "velocity": 80, "note_on_time": 5.983, "note_off_time": 6.356}, {"pitch": 60, "velocity": 80, "note_on_time": 5.982, "note_off_time": 6.728}, {"pitch": 42, "velocity": 80, "note_on_time": 6.356, "note_off_time": 6.728}, {"pitch": 42, "velocity": 80, "note_on_time": 6.728, "note_off_time": 7.103}, {"pitch": 42, "velocity": 80, "note_on_time": 7.103, "note_off_time": 7.477}, {"pitch": 60, "velocity": 80, "note_on_time": 7.477, "note_off_time": 7.854}, {"pitch": 42, "velocity": 80, "note_on_time": 7.477, "note_off_time": 7.854}, {"pitch": 65, "velocity": 80, "note_on_time": 7.854, "note_off_time": 8.231}, {"pitch": 42, "velocity": 80, "note_on_time": 7.854, "note_off_time": 8.231}, {"pitch": 67, "velocity": 80, "note_on_time": 8.231, "note_off_time": 8.605}, {"pitch": 42, "velocity": 80, "note_on_time": 8.231, "note_off_time": 8.605}, {"pitch": 64, "velocity": 80, "note_on_time": 8.605, "note_off_time": 8.977}, {"pitch": 42, "velocity": 80, "note_on_time": 8.605, "note_off_time": 8.977}, {"pitch": 62, "velocity": 80, "note_on_time": 8.977, "note_off_time": 9.349}, {"pitch": 42, "velocity": 80, "note_on_time": 8.977, "note_off_time": 9.35}, {"pitch": 42, "velocity": 80, "note_on_time": 9.35, "note_off_time": 9.726}, {"pitch": 42, "velocity": 80, "note_on_time": 9.727, "note_off_time": 10.101}, {"pitch": 42, "velocity": 80, "note_on_time": 10.101, "note_off_time": 10.474}, {"pitch": 60, "velocity": 80, "note_on_time": 10.474, "note_off_time": 10.846}, {"pitch": 42, "velocity": 80, "note_on_time": 10.475, "note_off_time": 10.846}, {"pitch": 67, "velocity": 80, "note_on_time": 10.846, "note_off_time": 11.22}, {"pitch": 42, "velocity": 80, "note_on_time": 10.846, "note_off_time": 11.22}, {"pitch": 67, "velocity": 80, "note_on_time": 11.22, "note_off_time": 11.593}, {"pitch": 42, "velocity": 80, "note_on_time": 11.221, "note_off_time": 11.593}, {"pitch": 67, "velocity": 80, "note_on_time": 11.593, "note_off_time": 11.965}, {"pitch": 42, "velocity": 80, "note_on_time": 11.593, "note_off_time": 11.966}, {"pitch": 42, "velocity": 80, "note_on_time": 11.966, "note_off_time": 12.339}, {"pitch": 67, "velocity": 80, "note_on_time": 12.339, "note_off_time": 12.713}, {"pitch": 42, "velocity": 80, "note_on_time": 12.34, "note_off_time": 12.713}, {"pitch": 67, "velocity": 80, "note_on_time": 12.713, "note_off_time": 13.086}, {"pitch": 42, "velocity": 80, "note_on_time": 12.714, "note_off_time": 13.086}, {"pitch": 67, "velocity": 80, "note_on_time": 13.086, "note_off_time": 13.459}, {"pitch": 42, "velocity": 80, "note_on_time": 13.086, "note_off_time": 13.46}]</notes><options name="Option List">((4, 4), [0.5, 0.25], 3, 8, &lt;NoteRangePerHand.C_TO_G: 6&gt;, &lt;NoteRangePerHand.ONE_NOTE: 2&gt;, False, True, False, '166')</options></target_notes><trials><trial trial_no="1" timestamp="2022_11_03-09_04_49"><notes name="Played Notes">[{"pitch": 60, "velocity": 75, "note_on_time": 1.52, "note_off_time": 2.036}, {"pitch": 64, "velocity": 71, "note_on_time": 2.605, "note_off_time": 3.017}, {"pitch": 65, "velocity": 81, "note_on_time": 2.986, "note_off_time": 3.403}, {"pitch": 60, "velocity": 60, "note_on_time": 3.356, "note_off_time": 3.884}, {"pitch": 65, "velocity": 71, "note_on_time": 4.51, "note_off_time": 4.932}, {"pitch": 60, "velocity": 64, "note_on_time": 4.876, "note_off_time": 5.081}, {"pitch": 65, "velocity": 69, "note_on_time": 5.241, "note_off_time": 5.627}, {"pitch": 60, "velocity": 65, "note_on_time": 5.593, "note_off_time": 5.801}, {"pitch": 60, "velocity": 62, "note_on_time": 5.965, "note_off_time": 6.43}, {"pitch": 60, "velocity": 58, "note_on_time": 7.508, "note_off_time": 7.923}, {"pitch": 65, "velocity": 63, "note_on_time": 7.883, "note_off_time": 8.26}, {"pitch": 67, "velocity": 78, "note_on_time": 8.248, "note_off_time": 8.691}, {"pitch": 64, "velocity": 70, "note_on_time": 8.608, "note_off_time": 9.04}, {"pitch": 62, "velocity": 60, "note_on_time": 8.97, "note_off_time": 9.475}, {"pitch": 60, "velocity": 58, "note_on_time": 10.474, "note_off_time": 10.936}, {"pitch": 67, "velocity": 61, "note_on_time": 10.859, "note_off_time": 11.082}, {"pitch": 67, "velocity": 60, "note_on_time": 11.21, "note_off_time": 11.403}, {"pitch": 67, "velocity": 60, "note_on_time": 11.58, "note_off_time": 11.799}, {"pitch": 67, "velocity": 59, "note_on_time": 12.345, "note_off_time": 12.538}, {"pitch": 67, "velocity": 67, "note_on_time": 12.705, "note_off_time": 12.896}, {"pitch": 67, "velocity": 60, "note_on_time": 13.085, "note_off_time": 13.282}]</notes><guidance name="Guidance Mode">None</guidance><error name="Error value">0.022542500000000045</error></trial><trial trial_no="2" timestamp="2022_11_03-09_05_13"><notes name="Played Notes">[{"pitch": 60, "velocity": 61, "note_on_time": 1.534, "note_off_time": 2.121}, {"pitch": 64, "velocity": 67, "note_on_time": 2.613, "note_off_time": 3.038}, {"pitch": 65, "velocity": 76, "note_on_time": 3.011, "note_off_time": 3.48}, {"pitch": 60, "velocity": 66, "note_on_time": 3.39, "note_off_time": 3.891}, {"pitch": 65, "velocity": 68, "note_on_time": 4.51, "note_off_time": 4.903}, {"pitch": 60, "velocity": 58, "note_on_time": 4.86, "note_off_time": 5.032}, {"pitch": 65, "velocity": 61, "note_on_time": 5.238, "note_off_time": 5.625}, {"pitch": 60, "velocity": 59, "note_on_time": 5.583, "note_off_time": 5.746}, {"pitch": 60, "velocity": 49, "note_on_time": 5.972, "note_off_time": 6.484}, {"pitch": 60, "velocity": 45, "note_on_time": 7.517, "note_off_time": 7.906}, {"pitch": 65, "velocity": 61, "note_on_time": 7.877, "note_off_time": 8.299}, {"pitch": 67, "velocity": 72, "note_on_time": 8.261, "note_off_time": 8.684}, {"pitch": 64, "velocity": 62, "note_on_time": 8.608, "note_off_time": 9.036}, {"pitch": 62, "velocity": 43, "note_on_time": 8.971, "note_off_time": 9.443}, {"pitch": 60, "velocity": 50, "note_on_time": 10.492, "note_off_time": 10.993}, {"pitch": 67, "velocity": 60, "note_on_time": 10.881, "note_off_time": 11.096}, {"pitch": 67, "velocity": 61, "note_on_time": 11.191, "note_off_time": 11.409}, {"pitch": 67, "velocity": 69, "note_on_time": 11.581, "note_off_time": 11.828}, {"pitch": 67, "velocity": 58, "note_on_time": 12.374, "note_off_time": 12.535}, {"pitch": 67, "velocity": 51, "note_on_time": 12.743, "note_off_time": 12.886}, {"pitch": 67, "velocity": 55, "note_on_time": 13.13, "note_off_time": 13.258}]</notes><guidance name="Guidance Mode">None</guidance><error name="Error value">0.032906944444444454</error></trial><trial trial_no="3" timestamp="2022_11_03-09_05_39"><notes name="Played Notes">[{"pitch": 60, "velocity": 70, "note_on_time": 1.518, "note_off_time": 1.987}, {"pitch": 64, "velocity": 71, "note_on_time": 2.615, "note_off_time": 3.061}, {"pitch": 65, "velocity": 78, "note_on_time": 3.002, "note_off_time": 3.472}, {"pitch": 60, "velocity": 64, "note_on_time": 3.395, "note_off_time": 3.817}, {"pitch": 65, "velocity": 63, "note_on_time": 4.53, "note_off_time": 4.972}, {"pitch": 60, "velocity": 59, "note_on_time": 4.901, "note_off_time": 5.055}, {"pitch": 65, "velocity": 54, "note_on_time": 5.266, "note_off_time": 5.638}, {"pitch": 60, "velocity": 61, "note_on_time": 5.593, "note_off_time": 5.725}, {"pitch": 60, "velocity": 60, "note_on_time": 5.995, "note_off_time": 6.563}, {"pitch": 60, "velocity": 52, "note_on_time": 7.476, "note_off_time": 7.962}, {"pitch": 65, "velocity": 78, "note_on_time": 7.882, "note_off_time": 8.313}, {"pitch": 67, "velocity": 77, "note_on_time": 8.251, "note_off_time": 8.668}, {"pitch": 64, "velocity": 66, "note_on_time": 8.598, "note_off_time": 9.002}, {"pitch": 62, "velocity": 39, "note_on_time": 8.946, "note_off_time": 9.489}, {"pitch": 60, "velocity": 56, "note_on_time": 10.462, "note_off_time": 10.891}, {"pitch": 67, "velocity": 55, "note_on_time": 10.847, "note_off_time": 10.985}, {"pitch": 67, "velocity": 63, "note_on_time": 11.186, "note_off_time": 11.32}, {"pitch": 67, "velocity": 61, "note_on_time": 11.55, "note_off_time": 11.733}, {"pitch": 67, "velocity": 73, "note_on_time": 12.343, "note_off_time": 12.448}, {"pitch": 67, "velocity": 67, "note_on_time": 12.713, "note_off_time": 12.841}, {"pitch": 67, "velocity": 62, "note_on_time": 13.076, "note_off_time": 13.177}]</notes><guidance name="Guidance Mode">None</guidance><error name="Error value">0.029042500000000155</error></trial></trials></MIDI>