<MIDI midiNo="2022_11_03-10_56_53"><target_notes><notes name="Note List">[{"pitch": 42, "velocity": 80, "note_on_time": 0.004, "note_off_time": 0.227}, {"pitch": 42, "velocity": 80, "note_on_time": 0.227, "note_off_time": 0.445}, {"pitch": 42, "velocity": 80, "note_on_time": 0.445, "note_off_time": 0.664}, {"pitch": 42, "velocity": 80, "note_on_time": 0.664, "note_off_time": 0.883}, {"pitch": 65, "velocity": 80, "note_on_time": 0.883, "note_off_time": 1.1}, {"pitch": 42, "velocity": 80, "note_on_time": 0.883, "note_off_time": 1.1}, {"pitch": 62, "velocity": 80, "note_on_time": 1.1, "note_off_time": 1.318}, {"pitch": 42, "velocity": 80, "note_on_time": 1.101, "note_off_time": 1.318}, {"pitch": 67, "velocity": 80, "note_on_time": 1.318, "note_off_time": 1.537}, {"pitch": 42, "velocity": 80, "note_on_time": 1.318, "note_off_time": 1.537}, {"pitch": 64, "velocity": 80, "note_on_time": 1.537, "note_off_time": 1.756}, {"pitch": 42, "velocity": 80, "note_on_time": 1.537, "note_off_time": 1.757}, {"pitch": 60, "velocity": 80, "note_on_time": 1.756, "note_off_time": 1.974}, {"pitch": 42, "velocity": 80, "note_on_time": 1.757, "note_off_time": 1.974}, {"pitch": 67, "velocity": 80, "note_on_time": 1.974, "note_off_time": 2.194}, {"pitch": 42, "velocity": 80, "note_on_time": 1.975, "note_off_time": 2.194}, {"pitch": 67, "velocity": 80, "note_on_time": 2.194, "note_off_time": 2.412}, {"pitch": 42, "velocity": 80, "note_on_time": 2.194, "note_off_time": 2.413}, {"pitch": 64, "velocity": 80, "note_on_time": 2.412, "note_off_time": 2.63}, {"pitch": 42, "velocity": 80, "note_on_time": 2.414, "note_off_time": 2.63}, {"pitch": 64, "velocity": 80, "note_on_time": 2.63, "note_off_time": 2.847}, {"pitch": 42, "velocity": 80, "note_on_time": 2.633, "note_off_time": 2.847}, {"pitch": 42, "velocity": 80, "note_on_time": 2.847, "note_off_time": 3.064}, {"pitch": 60, "velocity": 80, "note_on_time": 2.847, "note_off_time": 3.28}, {"pitch": 42, "velocity": 80, "note_on_time": 3.064, "note_off_time": 3.28}, {"pitch": 42, "velocity": 80, "note_on_time": 3.28, "note_off_time": 3.498}, {"pitch": 64, "velocity": 80, "note_on_time": 3.497, "note_off_time": 3.714}, {"pitch": 42, "velocity": 80, "note_on_time": 3.498, "note_off_time": 3.714}, {"pitch": 65, "velocity": 80, "note_on_time": 3.714, "note_off_time": 3.931}, {"pitch": 42, "velocity": 80, "note_on_time": 3.714, "note_off_time": 3.931}, {"pitch": 65, "velocity": 80, "note_on_time": 3.931, "note_off_time": 4.148}, {"pitch": 42, "velocity": 80, "note_on_time": 3.931, "note_off_time": 4.148}, {"pitch": 60, "velocity": 80, "note_on_time": 4.148, "note_off_time": 4.366}, {"pitch": 42, "velocity": 80, "note_on_time": 4.148, "note_off_time": 4.366}, {"pitch": 42, "velocity": 80, "note_on_time": 4.366, "note_off_time": 4.585}, {"pitch": 64, "velocity": 80, "note_on_time": 4.366, "note_off_time": 4.804}, {"pitch": 42, "velocity": 80, "note_on_time": 4.585, "note_off_time": 4.804}, {"pitch": 42, "velocity": 80, "note_on_time": 4.805, "note_off_time": 5.021}, {"pitch": 67, "velocity": 80, "note_on_time": 4.804, "note_off_time": 5.24}, {"pitch": 42, "velocity": 80, "note_on_time": 5.021, "note_off_time": 5.24}, {"pitch": 65, "velocity": 80, "note_on_time": 5.24, "note_off_time": 5.457}, {"pitch": 42, "velocity": 80, "note_on_time": 5.24, "note_off_time": 5.457}, {"pitch": 64, "velocity": 80, "note_on_time": 5.457, "note_off_time": 5.673}, {"pitch": 42, "velocity": 80, "note_on_time": 5.457, "note_off_time": 5.673}, {"pitch": 65, "velocity": 80, "note_on_time": 5.673, "note_off_time": 5.891}, {"pitch": 42, "velocity": 80, "note_on_time": 5.673, "note_off_time": 5.891}, {"pitch": 64, "velocity": 80, "note_on_time": 5.891, "note_off_time": 6.109}, {"pitch": 42, "velocity": 80, "note_on_time": 5.891, "note_off_time": 6.109}, {"pitch": 64, "velocity": 80, "note_on_time": 6.109, "note_off_time": 6.327}, {"pitch": 42, "velocity": 80, "note_on_time": 6.11, "note_off_time": 6.327}, {"pitch": 62, "velocity": 80, "note_on_time": 6.327, "note_off_time": 6.543}, {"pitch": 42, "velocity": 80, "note_on_time": 6.328, "note_off_time": 6.543}, {"pitch": 67, "velocity": 80, "note_on_time": 6.543, "note_off_time": 6.762}, {"pitch": 42, "velocity": 80, "note_on_time": 6.543, "note_off_time": 6.762}, {"pitch": 67, "velocity": 80, "note_on_time": 6.762, "note_off_time": 6.978}, {"pitch": 42, "velocity": 80, "note_on_time": 6.763, "note_off_time": 6.978}, {"pitch": 42, "velocity": 80, "note_on_time": 6.978, "note_off_time": 7.197}, {"pitch": 67, "velocity": 80, "note_on_time": 7.197, "note_off_time": 7.415}, {"pitch": 42, "velocity": 80, "note_on_time": 7.197, "note_off_time": 7.415}, {"pitch": 67, "velocity": 80, "note_on_time": 7.415, "note_off_time": 7.633}, {"pitch": 42, "velocity": 80, "note_on_time": 7.415, "note_off_time": 7.633}, {"pitch": 67, "velocity": 80, "note_on_time": 7.633, "note_off_time": 7.85}, {"pitch": 42, "velocity": 80, "note_on_time": 7.633, "note_off_time": 7.85}]</notes><options name="Option List">((4, 4), [0.5, 0.25], 3, 8, &lt;NoteRangePerHand.C_TO_G: 6&gt;, &lt;NoteRangePerHand.ONE_NOTE: 2&gt;, False, True, False, 281)</options></target_notes><trials><trial trial_no="1" timestamp="2022_11_03-10_56_44"><notes name="Played Notes">[{"pitch": 65, "velocity": 73, "note_on_time": 0.928, "note_off_time": 1.172}, {"pitch": 62, "velocity": 67, "note_on_time": 1.186, "note_off_time": 1.415}, {"pitch": 67, "velocity": 68, "note_on_time": 1.399, "note_off_time": 1.695}, {"pitch": 64, "velocity": 61, "note_on_time": 1.66, "note_off_time": 1.895}, {"pitch": 60, "velocity": 72, "note_on_time": 1.911, "note_off_time": 2.193}, {"pitch": 67, "velocity": 77, "note_on_time": 2.167, "note_off_time": 2.278}, {"pitch": 67, "velocity": 78, "note_on_time": 2.442, "note_off_time": 2.701}, {"pitch": 64, "velocity": 61, "note_on_time": 2.686, "note_off_time": 2.785}, {"pitch": 64, "velocity": 82, "note_on_time": 2.936, "note_off_time": 3.161}, {"pitch": 60, "velocity": 70, "note_on_time": 3.187, "note_off_time": 3.849}, {"pitch": 64, "velocity": 76, "note_on_time": 3.957, "note_off_time": 4.199}, {"pitch": 65, "velocity": 82, "note_on_time": 4.209, "note_off_time": 4.324}, {"pitch": 65, "velocity": 81, "note_on_time": 4.442, "note_off_time": 4.61}, {"pitch": 60, "velocity": 52, "note_on_time": 4.76, "note_off_time": 4.867}, {"pitch": 64, "velocity": 76, "note_on_time": 4.969, "note_off_time": 5.475}, {"pitch": 67, "velocity": 76, "note_on_time": 5.487, "note_off_time": 6.017}, {"pitch": 65, "velocity": 77, "note_on_time": 5.966, "note_off_time": 6.205}, {"pitch": 64, "velocity": 70, "note_on_time": 6.203, "note_off_time": 6.455}, {"pitch": 65, "velocity": 71, "note_on_time": 6.464, "note_off_time": 6.773}, {"pitch": 64, "velocity": 58, "note_on_time": 6.723, "note_off_time": 6.828}, {"pitch": 64, "velocity": 73, "note_on_time": 7.0, "note_off_time": 7.26}, {"pitch": 62, "velocity": 67, "note_on_time": 7.266, "note_off_time": 7.498}, {"pitch": 67, "velocity": 68, "note_on_time": 7.496, "note_off_time": 7.602}]</notes><guidance name="Guidance Mode">None</guidance><error name="Error value">0.32313145833333334</error></trial><trial trial_no="2" timestamp="2022_11_03-10_57_10"><notes name="Played Notes">[{"pitch": 65, "velocity": 82, "note_on_time": 0.921, "note_off_time": 1.183}, {"pitch": 62, "velocity": 76, "note_on_time": 1.174, "note_off_time": 1.448}, {"pitch": 67, "velocity": 71, "note_on_time": 1.406, "note_off_time": 1.721}, {"pitch": 64, "velocity": 72, "note_on_time": 1.664, "note_off_time": 1.956}, {"pitch": 60, "velocity": 68, "note_on_time": 1.945, "note_off_time": 2.068}, {"pitch": 67, "velocity": 59, "note_on_time": 2.256, "note_off_time": 2.32}, {"pitch": 67, "velocity": 63, "note_on_time": 2.449, "note_off_time": 2.613}, {"pitch": 64, "velocity": 66, "note_on_time": 2.693, "note_off_time": 2.823}, {"pitch": 64, "velocity": 81, "note_on_time": 2.968, "note_off_time": 3.177}, {"pitch": 60, "velocity": 72, "note_on_time": 3.207, "note_off_time": 3.799}, {"pitch": 62, "velocity": 70, "note_on_time": 3.915, "note_off_time": 4.153}, {"pitch": 65, "velocity": 75, "note_on_time": 4.155, "note_off_time": 4.267}, {"pitch": 65, "velocity": 69, "note_on_time": 4.393, "note_off_time": 4.618}, {"pitch": 60, "velocity": 74, "note_on_time": 4.629, "note_off_time": 4.903}, {"pitch": 64, "velocity": 79, "note_on_time": 4.874, "note_off_time": 5.353}, {"pitch": 67, "velocity": 78, "note_on_time": 5.363, "note_off_time": 5.953}, {"pitch": 65, "velocity": 62, "note_on_time": 5.838, "note_off_time": 6.071}, {"pitch": 64, "velocity": 71, "note_on_time": 6.072, "note_off_time": 6.326}, {"pitch": 65, "velocity": 73, "note_on_time": 6.314, "note_off_time": 6.569}, {"pitch": 64, "velocity": 70, "note_on_time": 6.553, "note_off_time": 6.662}, {"pitch": 64, "velocity": 73, "note_on_time": 6.792, "note_off_time": 7.003}, {"pitch": 60, "velocity": 31, "note_on_time": 7.078, "note_off_time": 7.122}, {"pitch": 62, "velocity": 78, "note_on_time": 7.169, "note_off_time": 7.292}, {"pitch": 67, "velocity": 71, "note_on_time": 7.403, "note_off_time": 7.513}]</notes><guidance name="Guidance Mode">None</guidance><error name="Error value">0.4862128749999996</error></trial><trial trial_no="3" timestamp="2022_11_03-10_57_57"><notes name="Played Notes">[{"pitch": 65, "velocity": 79, "note_on_time": 0.925, "note_off_time": 1.14}, {"pitch": 62, "velocity": 69, "note_on_time": 1.15, "note_off_time": 1.371}, {"pitch": 67, "velocity": 65, "note_on_time": 1.375, "note_off_time": 1.689}, {"pitch": 64, "velocity": 74, "note_on_time": 1.638, "note_off_time": 1.89}, {"pitch": 60, "velocity": 74, "note_on_time": 1.888, "note_off_time": 2.083}, {"pitch": 67, "velocity": 79, "note_on_time": 2.117, "note_off_time": 2.239}, {"pitch": 67, "velocity": 69, "note_on_time": 2.372, "note_off_time": 2.613}, {"pitch": 64, "velocity": 72, "note_on_time": 2.61, "note_off_time": 2.739}, {"pitch": 64, "velocity": 85, "note_on_time": 2.887, "note_off_time": 3.08}, {"pitch": 60, "velocity": 81, "note_on_time": 3.112, "note_off_time": 3.631}, {"pitch": 62, "velocity": 66, "note_on_time": 3.756, "note_off_time": 3.95}, {"pitch": 65, "velocity": 54, "note_on_time": 4.109, "note_off_time": 4.147}, {"pitch": 65, "velocity": 75, "note_on_time": 4.257, "note_off_time": 4.364}, {"pitch": 60, "velocity": 77, "note_on_time": 4.515, "note_off_time": 4.644}, {"pitch": 64, "velocity": 88, "note_on_time": 4.762, "note_off_time": 5.273}, {"pitch": 67, "velocity": 80, "note_on_time": 5.293, "note_off_time": 5.8}, {"pitch": 65, "velocity": 72, "note_on_time": 5.761, "note_off_time": 5.985}, {"pitch": 64, "velocity": 68, "note_on_time": 5.994, "note_off_time": 6.251}, {"pitch": 65, "velocity": 72, "note_on_time": 6.238, "note_off_time": 6.545}, {"pitch": 64, "velocity": 64, "note_on_time": 6.516, "note_off_time": 6.615}, {"pitch": 64, "velocity": 71, "note_on_time": 6.786, "note_off_time": 7.025}, {"pitch": 62, "velocity": 66, "note_on_time": 7.038, "note_off_time": 7.246}, {"pitch": 67, "velocity": 72, "note_on_time": 7.263, "note_off_time": 7.367}, {"pitch": 67, "velocity": 76, "note_on_time": 7.504, "note_off_time": 7.659}]</notes><guidance name="Guidance Mode">None</guidance><error name="Error value">0.3620462083333334</error></trial></trials></MIDI>