<MIDI midiNo="2022_11_03-10_39_18"><target_notes><notes name="Note List">[{"pitch": 42, "velocity": 80, "note_on_time": 0.004, "note_off_time": 0.171}, {"pitch": 42, "velocity": 80, "note_on_time": 0.171, "note_off_time": 0.342}, {"pitch": 42, "velocity": 80, "note_on_time": 0.342, "note_off_time": 0.514}, {"pitch": 42, "velocity": 80, "note_on_time": 0.514, "note_off_time": 0.685}, {"pitch": 60, "velocity": 80, "note_on_time": 0.684, "note_off_time": 0.854}, {"pitch": 42, "velocity": 80, "note_on_time": 0.685, "note_off_time": 0.855}, {"pitch": 64, "velocity": 80, "note_on_time": 0.854, "note_off_time": 1.025}, {"pitch": 42, "velocity": 80, "note_on_time": 0.855, "note_off_time": 1.025}, {"pitch": 65, "velocity": 80, "note_on_time": 1.025, "note_off_time": 1.197}, {"pitch": 42, "velocity": 80, "note_on_time": 1.025, "note_off_time": 1.197}, {"pitch": 60, "velocity": 80, "note_on_time": 1.197, "note_off_time": 1.368}, {"pitch": 42, "velocity": 80, "note_on_time": 1.197, "note_off_time": 1.368}, {"pitch": 42, "velocity": 80, "note_on_time": 1.368, "note_off_time": 1.542}, {"pitch": 60, "velocity": 80, "note_on_time": 1.368, "note_off_time": 1.714}, {"pitch": 42, "velocity": 80, "note_on_time": 1.543, "note_off_time": 1.714}, {"pitch": 42, "velocity": 80, "note_on_time": 1.715, "note_off_time": 1.886}, {"pitch": 65, "velocity": 80, "note_on_time": 1.886, "note_off_time": 2.059}, {"pitch": 42, "velocity": 80, "note_on_time": 1.886, "note_off_time": 2.059}, {"pitch": 64, "velocity": 80, "note_on_time": 2.059, "note_off_time": 2.23}, {"pitch": 42, "velocity": 80, "note_on_time": 2.059, "note_off_time": 2.23}, {"pitch": 67, "velocity": 80, "note_on_time": 2.23, "note_off_time": 2.401}, {"pitch": 42, "velocity": 80, "note_on_time": 2.231, "note_off_time": 2.401}, {"pitch": 62, "velocity": 80, "note_on_time": 2.401, "note_off_time": 2.574}, {"pitch": 42, "velocity": 80, "note_on_time": 2.402, "note_off_time": 2.574}, {"pitch": 62, "velocity": 80, "note_on_time": 2.574, "note_off_time": 2.748}, {"pitch": 42, "velocity": 80, "note_on_time": 2.574, "note_off_time": 2.748}, {"pitch": 62, "velocity": 80, "note_on_time": 2.748, "note_off_time": 2.921}, {"pitch": 42, "velocity": 80, "note_on_time": 2.748, "note_off_time": 2.922}, {"pitch": 42, "velocity": 80, "note_on_time": 2.922, "note_off_time": 3.092}, {"pitch": 42, "velocity": 80, "note_on_time": 3.092, "note_off_time": 3.263}, {"pitch": 42, "velocity": 80, "note_on_time": 3.263, "note_off_time": 3.434}, {"pitch": 65, "velocity": 80, "note_on_time": 3.434, "note_off_time": 3.606}, {"pitch": 42, "velocity": 80, "note_on_time": 3.434, "note_off_time": 3.606}, {"pitch": 42, "velocity": 80, "note_on_time": 3.606, "note_off_time": 3.778}, {"pitch": 42, "velocity": 80, "note_on_time": 3.778, "note_off_time": 3.948}, {"pitch": 42, "velocity": 80, "note_on_time": 3.949, "note_off_time": 4.121}, {"pitch": 64, "velocity": 80, "note_on_time": 4.12, "note_off_time": 4.292}, {"pitch": 42, "velocity": 80, "note_on_time": 4.121, "note_off_time": 4.292}, {"pitch": 65, "velocity": 80, "note_on_time": 4.292, "note_off_time": 4.463}, {"pitch": 42, "velocity": 80, "note_on_time": 4.292, "note_off_time": 4.463}, {"pitch": 65, "velocity": 80, "note_on_time": 4.463, "note_off_time": 4.636}, {"pitch": 42, "velocity": 80, "note_on_time": 4.463, "note_off_time": 4.637}, {"pitch": 64, "velocity": 80, "note_on_time": 4.637, "note_off_time": 4.807}, {"pitch": 42, "velocity": 80, "note_on_time": 4.637, "note_off_time": 4.807}, {"pitch": 42, "velocity": 80, "note_on_time": 4.807, "note_off_time": 4.976}, {"pitch": 64, "velocity": 80, "note_on_time": 4.807, "note_off_time": 5.146}, {"pitch": 42, "velocity": 80, "note_on_time": 4.976, "note_off_time": 5.146}, {"pitch": 42, "velocity": 80, "note_on_time": 5.146, "note_off_time": 5.316}, {"pitch": 42, "velocity": 80, "note_on_time": 5.316, "note_off_time": 5.489}, {"pitch": 42, "velocity": 80, "note_on_time": 5.489, "note_off_time": 5.66}, {"pitch": 64, "velocity": 80, "note_on_time": 5.66, "note_off_time": 5.832}, {"pitch": 42, "velocity": 80, "note_on_time": 5.66, "note_off_time": 5.832}, {"pitch": 64, "velocity": 80, "note_on_time": 5.832, "note_off_time": 6.003}, {"pitch": 42, "velocity": 80, "note_on_time": 5.832, "note_off_time": 6.003}, {"pitch": 64, "velocity": 80, "note_on_time": 6.003, "note_off_time": 6.173}, {"pitch": 42, "velocity": 80, "note_on_time": 6.003, "note_off_time": 6.173}]</notes><options name="Option List">((4, 4), [0.5, 0.25], 3, 8, &lt;NoteRangePerHand.C_TO_G: 6&gt;, &lt;NoteRangePerHand.ONE_NOTE: 2&gt;, False, True, False, '365')</options></target_notes><trials><trial trial_no="1" timestamp="2022_11_03-10_39_10"><notes name="Played Notes">[{"pitch": 60, "velocity": 84, "note_on_time": 0.742, "note_off_time": 0.957}, {"pitch": 64, "velocity": 76, "note_on_time": 0.918, "note_off_time": 1.116}, {"pitch": 65, "velocity": 85, "note_on_time": 1.105, "note_off_time": 1.262}, {"pitch": 60, "velocity": 78, "note_on_time": 1.281, "note_off_time": 1.377}, {"pitch": 60, "velocity": 80, "note_on_time": 1.489, "note_off_time": 2.046}, {"pitch": 65, "velocity": 69, "note_on_time": 2.045, "note_off_time": 2.225}, {"pitch": 64, "velocity": 73, "note_on_time": 2.22, "note_off_time": 2.386}, {"pitch": 67, "velocity": 79, "note_on_time": 2.415, "note_off_time": 2.562}, {"pitch": 62, "velocity": 90, "note_on_time": 2.798, "note_off_time": 2.871}, {"pitch": 62, "velocity": 81, "note_on_time": 2.99, "note_off_time": 3.405}, {"pitch": 65, "velocity": 93, "note_on_time": 3.66, "note_off_time": 3.756}, {"pitch": 64, "velocity": 73, "note_on_time": 4.222, "note_off_time": 4.406}, {"pitch": 65, "velocity": 80, "note_on_time": 4.428, "note_off_time": 4.507}, {"pitch": 65, "velocity": 83, "note_on_time": 4.613, "note_off_time": 4.733}, {"pitch": 64, "velocity": 79, "note_on_time": 4.799, "note_off_time": 4.883}, {"pitch": 64, "velocity": 79, "note_on_time": 4.988, "note_off_time": 5.572}, {"pitch": 64, "velocity": 71, "note_on_time": 5.698, "note_off_time": 5.757}, {"pitch": 64, "velocity": 79, "note_on_time": 5.878, "note_off_time": 5.951}]</notes><guidance name="Guidance Mode">None</guidance><error name="Error value">0.17023152941176467</error></trial><trial trial_no="2" timestamp="2022_11_03-10_39_31"><notes name="Played Notes">[{"pitch": 60, "velocity": 79, "note_on_time": 0.727, "note_off_time": 0.954}, {"pitch": 64, "velocity": 75, "note_on_time": 0.908, "note_off_time": 1.119}, {"pitch": 65, "velocity": 79, "note_on_time": 1.095, "note_off_time": 1.245}, {"pitch": 60, "velocity": 76, "note_on_time": 1.27, "note_off_time": 1.35}, {"pitch": 60, "velocity": 76, "note_on_time": 1.464, "note_off_time": 1.995}, {"pitch": 65, "velocity": 76, "note_on_time": 2.03, "note_off_time": 2.204}, {"pitch": 64, "velocity": 78, "note_on_time": 2.204, "note_off_time": 2.377}, {"pitch": 67, "velocity": 80, "note_on_time": 2.399, "note_off_time": 2.517}, {"pitch": 62, "velocity": 70, "note_on_time": 2.582, "note_off_time": 2.652}, {"pitch": 62, "velocity": 80, "note_on_time": 2.771, "note_off_time": 2.842}, {"pitch": 62, "velocity": 81, "note_on_time": 2.969, "note_off_time": 3.098}, {"pitch": 65, "velocity": 92, "note_on_time": 3.658, "note_off_time": 3.739}, {"pitch": 64, "velocity": 67, "note_on_time": 4.231, "note_off_time": 4.348}, {"pitch": 65, "velocity": 88, "note_on_time": 4.415, "note_off_time": 4.495}, {"pitch": 65, "velocity": 81, "note_on_time": 4.605, "note_off_time": 4.714}, {"pitch": 64, "velocity": 79, "note_on_time": 4.797, "note_off_time": 4.879}, {"pitch": 64, "velocity": 84, "note_on_time": 4.985, "note_off_time": 5.464}, {"pitch": 64, "velocity": 87, "note_on_time": 5.68, "note_off_time": 5.753}, {"pitch": 64, "velocity": 80, "note_on_time": 5.87, "note_off_time": 5.961}]</notes><guidance name="Guidance Mode">None</guidance><error name="Error value">0.10581100000000007</error></trial><trial trial_no="3" timestamp="2022_11_03-10_39_46"><notes name="Played Notes">[{"pitch": 60, "velocity": 84, "note_on_time": 0.672, "note_off_time": 0.86}, {"pitch": 64, "velocity": 78, "note_on_time": 0.848, "note_off_time": 1.032}, {"pitch": 65, "velocity": 78, "note_on_time": 1.032, "note_off_time": 1.164}, {"pitch": 60, "velocity": 76, "note_on_time": 1.214, "note_off_time": 1.311}, {"pitch": 60, "velocity": 77, "note_on_time": 1.416, "note_off_time": 1.989}, {"pitch": 65, "velocity": 67, "note_on_time": 2.031, "note_off_time": 2.199}, {"pitch": 64, "velocity": 72, "note_on_time": 2.208, "note_off_time": 2.367}, {"pitch": 67, "velocity": 74, "note_on_time": 2.403, "note_off_time": 2.523}, {"pitch": 62, "velocity": 82, "note_on_time": 2.582, "note_off_time": 2.658}, {"pitch": 62, "velocity": 80, "note_on_time": 2.764, "note_off_time": 2.838}, {"pitch": 62, "velocity": 82, "note_on_time": 2.963, "note_off_time": 3.069}, {"pitch": 65, "velocity": 79, "note_on_time": 3.652, "note_off_time": 3.747}, {"pitch": 64, "velocity": 59, "note_on_time": 4.177, "note_off_time": 4.346}, {"pitch": 65, "velocity": 76, "note_on_time": 4.367, "note_off_time": 4.436}, {"pitch": 65, "velocity": 70, "note_on_time": 4.548, "note_off_time": 4.66}, {"pitch": 64, "velocity": 75, "note_on_time": 4.733, "note_off_time": 4.806}, {"pitch": 64, "velocity": 83, "note_on_time": 4.915, "note_off_time": 5.362}, {"pitch": 64, "velocity": 83, "note_on_time": 5.72, "note_off_time": 5.792}, {"pitch": 64, "velocity": 79, "note_on_time": 5.912, "note_off_time": 5.998}]</notes><guidance name="Guidance Mode">None</guidance><error name="Error value">0.10422276470588243</error></trial><trial trial_no="4" timestamp="2022_11_03-10_40_01"><notes name="Played Notes">[{"pitch": 60, "velocity": 45, "note_on_time": 0.725, "note_off_time": 0.907}, {"pitch": 64, "velocity": 87, "note_on_time": 0.91, "note_off_time": 1.119}, {"pitch": 65, "velocity": 78, "note_on_time": 1.098, "note_off_time": 1.238}, {"pitch": 60, "velocity": 75, "note_on_time": 1.273, "note_off_time": 1.363}, {"pitch": 60, "velocity": 74, "note_on_time": 1.46, "note_off_time": 2.022}, {"pitch": 65, "velocity": 79, "note_on_time": 2.063, "note_off_time": 2.269}, {"pitch": 62, "velocity": 59, "note_on_time": 2.262, "note_off_time": 2.454}, {"pitch": 67, "velocity": 75, "note_on_time": 2.47, "note_off_time": 2.588}, {"pitch": 62, "velocity": 72, "note_on_time": 2.664, "note_off_time": 2.737}, {"pitch": 62, "velocity": 69, "note_on_time": 2.862, "note_off_time": 2.923}, {"pitch": 62, "velocity": 81, "note_on_time": 3.055, "note_off_time": 3.512}, {"pitch": 65, "velocity": 85, "note_on_time": 3.782, "note_off_time": 3.876}, {"pitch": 64, "velocity": 71, "note_on_time": 4.542, "note_off_time": 4.694}, {"pitch": 65, "velocity": 74, "note_on_time": 4.732, "note_off_time": 4.808}, {"pitch": 65, "velocity": 64, "note_on_time": 4.921, "note_off_time": 5.075}, {"pitch": 64, "velocity": 68, "note_on_time": 5.131, "note_off_time": 5.21}, {"pitch": 64, "velocity": 77, "note_on_time": 5.344, "note_off_time": 5.678}]</notes><guidance name="Guidance Mode">None</guidance><error name="Error value">0.4177021176470589</error></trial><trial trial_no="5" timestamp="2022_11_03-10_40_24"><notes name="Played Notes">[{"pitch": 60, "velocity": 78, "note_on_time": 0.715, "note_off_time": 0.932}, {"pitch": 64, "velocity": 76, "note_on_time": 0.896, "note_off_time": 1.153}, {"pitch": 65, "velocity": 71, "note_on_time": 1.092, "note_off_time": 1.235}, {"pitch": 60, "velocity": 76, "note_on_time": 1.258, "note_off_time": 1.339}, {"pitch": 60, "velocity": 82, "note_on_time": 1.457, "note_off_time": 1.996}, {"pitch": 65, "velocity": 74, "note_on_time": 2.034, "note_off_time": 2.22}, {"pitch": 64, "velocity": 67, "note_on_time": 2.195, "note_off_time": 2.404}, {"pitch": 67, "velocity": 75, "note_on_time": 2.415, "note_off_time": 2.536}, {"pitch": 62, "velocity": 68, "note_on_time": 2.633, "note_off_time": 2.695}, {"pitch": 62, "velocity": 70, "note_on_time": 2.827, "note_off_time": 2.889}, {"pitch": 62, "velocity": 86, "note_on_time": 3.02, "note_off_time": 3.124}, {"pitch": 65, "velocity": 89, "note_on_time": 3.77, "note_off_time": 3.865}, {"pitch": 64, "velocity": 68, "note_on_time": 4.315, "note_off_time": 4.416}, {"pitch": 65, "velocity": 84, "note_on_time": 4.515, "note_off_time": 4.603}, {"pitch": 65, "velocity": 70, "note_on_time": 4.695, "note_off_time": 4.849}, {"pitch": 64, "velocity": 76, "note_on_time": 4.911, "note_off_time": 4.988}, {"pitch": 64, "velocity": 79, "note_on_time": 5.091, "note_off_time": 5.618}, {"pitch": 64, "velocity": 86, "note_on_time": 5.757, "note_off_time": 5.829}, {"pitch": 64, "velocity": 91, "note_on_time": 5.943, "note_off_time": 6.034}]</notes><guidance name="Guidance Mode">None</guidance><error name="Error value">0.11791488235294116</error></trial></trials></MIDI>