<MIDI midiNo="2022_11_03-11_01_54"><target_notes><notes name="Note List">[{"pitch": 42, "velocity": 80, "note_on_time": 0.004, "note_off_time": 0.233}, {"pitch": 42, "velocity": 80, "note_on_time": 0.233, "note_off_time": 0.45}, {"pitch": 42, "velocity": 80, "note_on_time": 0.45, "note_off_time": 0.667}, {"pitch": 42, "velocity": 80, "note_on_time": 0.667, "note_off_time": 0.886}, {"pitch": 62, "velocity": 80, "note_on_time": 0.885, "note_off_time": 1.104}, {"pitch": 42, "velocity": 80, "note_on_time": 0.886, "note_off_time": 1.104}, {"pitch": 65, "velocity": 80, "note_on_time": 1.104, "note_off_time": 1.321}, {"pitch": 42, "velocity": 80, "note_on_time": 1.104, "note_off_time": 1.321}, {"pitch": 60, "velocity": 80, "note_on_time": 1.321, "note_off_time": 1.538}, {"pitch": 42, "velocity": 80, "note_on_time": 1.321, "note_off_time": 1.538}, {"pitch": 64, "velocity": 80, "note_on_time": 1.538, "note_off_time": 1.756}, {"pitch": 42, "velocity": 80, "note_on_time": 1.538, "note_off_time": 1.756}, {"pitch": 64, "velocity": 80, "note_on_time": 1.756, "note_off_time": 1.973}, {"pitch": 42, "velocity": 80, "note_on_time": 1.756, "note_off_time": 1.973}, {"pitch": 65, "velocity": 80, "note_on_time": 1.973, "note_off_time": 2.19}, {"pitch": 42, "velocity": 80, "note_on_time": 1.973, "note_off_time": 2.19}, {"pitch": 67, "velocity": 80, "note_on_time": 2.19, "note_off_time": 2.408}, {"pitch": 42, "velocity": 80, "note_on_time": 2.19, "note_off_time": 2.408}, {"pitch": 62, "velocity": 80, "note_on_time": 2.408, "note_off_time": 2.626}, {"pitch": 42, "velocity": 80, "note_on_time": 2.408, "note_off_time": 2.626}, {"pitch": 62, "velocity": 80, "note_on_time": 2.626, "note_off_time": 2.844}, {"pitch": 42, "velocity": 80, "note_on_time": 2.626, "note_off_time": 2.844}, {"pitch": 64, "velocity": 80, "note_on_time": 2.844, "note_off_time": 3.062}, {"pitch": 42, "velocity": 80, "note_on_time": 2.844, "note_off_time": 3.062}, {"pitch": 64, "velocity": 80, "note_on_time": 3.062, "note_off_time": 3.28}, {"pitch": 42, "velocity": 80, "note_on_time": 3.062, "note_off_time": 3.28}, {"pitch": 64, "velocity": 80, "note_on_time": 3.28, "note_off_time": 3.496}, {"pitch": 42, "velocity": 80, "note_on_time": 3.28, "note_off_time": 3.496}, {"pitch": 67, "velocity": 80, "note_on_time": 3.496, "note_off_time": 3.712}, {"pitch": 42, "velocity": 80, "note_on_time": 3.496, "note_off_time": 3.712}, {"pitch": 62, "velocity": 80, "note_on_time": 3.712, "note_off_time": 3.931}, {"pitch": 42, "velocity": 80, "note_on_time": 3.712, "note_off_time": 3.931}, {"pitch": 42, "velocity": 80, "note_on_time": 3.932, "note_off_time": 4.148}, {"pitch": 60, "velocity": 80, "note_on_time": 3.931, "note_off_time": 4.365}, {"pitch": 42, "velocity": 80, "note_on_time": 4.148, "note_off_time": 4.365}, {"pitch": 67, "velocity": 80, "note_on_time": 4.365, "note_off_time": 4.582}, {"pitch": 42, "velocity": 80, "note_on_time": 4.365, "note_off_time": 4.582}, {"pitch": 67, "velocity": 80, "note_on_time": 4.582, "note_off_time": 4.799}, {"pitch": 42, "velocity": 80, "note_on_time": 4.582, "note_off_time": 4.799}, {"pitch": 65, "velocity": 80, "note_on_time": 4.799, "note_off_time": 5.018}, {"pitch": 42, "velocity": 80, "note_on_time": 4.799, "note_off_time": 5.018}, {"pitch": 64, "velocity": 80, "note_on_time": 5.018, "note_off_time": 5.236}, {"pitch": 42, "velocity": 80, "note_on_time": 5.018, "note_off_time": 5.236}, {"pitch": 60, "velocity": 80, "note_on_time": 5.236, "note_off_time": 5.454}, {"pitch": 42, "velocity": 80, "note_on_time": 5.236, "note_off_time": 5.454}, {"pitch": 64, "velocity": 80, "note_on_time": 5.454, "note_off_time": 5.672}, {"pitch": 42, "velocity": 80, "note_on_time": 5.454, "note_off_time": 5.672}, {"pitch": 67, "velocity": 80, "note_on_time": 5.672, "note_off_time": 5.89}, {"pitch": 42, "velocity": 80, "note_on_time": 5.672, "note_off_time": 5.89}, {"pitch": 62, "velocity": 80, "note_on_time": 5.89, "note_off_time": 6.107}, {"pitch": 42, "velocity": 80, "note_on_time": 5.891, "note_off_time": 6.107}, {"pitch": 42, "velocity": 80, "note_on_time": 6.107, "note_off_time": 6.323}, {"pitch": 64, "velocity": 80, "note_on_time": 6.107, "note_off_time": 6.54}, {"pitch": 42, "velocity": 80, "note_on_time": 6.323, "note_off_time": 6.54}, {"pitch": 42, "velocity": 80, "note_on_time": 6.54, "note_off_time": 6.756}, {"pitch": 60, "velocity": 80, "note_on_time": 6.54, "note_off_time": 6.975}, {"pitch": 42, "velocity": 80, "note_on_time": 6.757, "note_off_time": 6.975}, {"pitch": 42, "velocity": 80, "note_on_time": 6.975, "note_off_time": 7.192}, {"pitch": 60, "velocity": 80, "note_on_time": 7.192, "note_off_time": 7.41}, {"pitch": 42, "velocity": 80, "note_on_time": 7.192, "note_off_time": 7.41}, {"pitch": 60, "velocity": 80, "note_on_time": 7.41, "note_off_time": 7.627}, {"pitch": 42, "velocity": 80, "note_on_time": 7.41, "note_off_time": 7.627}, {"pitch": 60, "velocity": 80, "note_on_time": 7.627, "note_off_time": 7.843}, {"pitch": 42, "velocity": 80, "note_on_time": 7.627, "note_off_time": 7.843}]</notes><options name="Option List">((4, 4), [0.5, 0.25], 3, 8, &lt;NoteRangePerHand.C_TO_G: 6&gt;, &lt;NoteRangePerHand.ONE_NOTE: 2&gt;, False, True, False, '281')</options></target_notes><trials><trial trial_no="1" timestamp="2022_11_03-11_01_44"><notes name="Played Notes">[{"pitch": 62, "velocity": 74, "note_on_time": 0.926, "note_off_time": 1.148}, {"pitch": 65, "velocity": 86, "note_on_time": 1.151, "note_off_time": 1.362}, {"pitch": 60, "velocity": 76, "note_on_time": 1.381, "note_off_time": 1.616}, {"pitch": 64, "velocity": 70, "note_on_time": 1.621, "note_off_time": 1.71}, {"pitch": 64, "velocity": 69, "note_on_time": 1.86, "note_off_time": 2.083}, {"pitch": 65, "velocity": 78, "note_on_time": 2.109, "note_off_time": 2.285}, {"pitch": 67, "velocity": 63, "note_on_time": 2.32, "note_off_time": 2.539}, {"pitch": 62, "velocity": 69, "note_on_time": 2.579, "note_off_time": 2.683}, {"pitch": 64, "velocity": 81, "note_on_time": 2.896, "note_off_time": 2.986}, {"pitch": 64, "velocity": 68, "note_on_time": 3.111, "note_off_time": 3.212}, {"pitch": 64, "velocity": 71, "note_on_time": 3.352, "note_off_time": 3.536}, {"pitch": 67, "velocity": 59, "note_on_time": 3.579, "note_off_time": 3.802}, {"pitch": 64, "velocity": 61, "note_on_time": 3.82, "note_off_time": 3.885}, {"pitch": 62, "velocity": 74, "note_on_time": 4.069, "note_off_time": 4.261}, {"pitch": 60, "velocity": 77, "note_on_time": 4.3, "note_off_time": 4.694}, {"pitch": 67, "velocity": 74, "note_on_time": 4.765, "note_off_time": 4.875}, {"pitch": 67, "velocity": 63, "note_on_time": 5.004, "note_off_time": 5.293}, {"pitch": 65, "velocity": 72, "note_on_time": 5.243, "note_off_time": 5.478}, {"pitch": 64, "velocity": 67, "note_on_time": 5.475, "note_off_time": 5.707}, {"pitch": 60, "velocity": 60, "note_on_time": 5.74, "note_off_time": 5.959}, {"pitch": 64, "velocity": 68, "note_on_time": 5.973, "note_off_time": 6.121}, {"pitch": 67, "velocity": 64, "note_on_time": 6.198, "note_off_time": 6.375}, {"pitch": 64, "velocity": 56, "note_on_time": 6.427, "note_off_time": 6.591}, {"pitch": 62, "velocity": 56, "note_on_time": 6.685, "note_off_time": 6.873}, {"pitch": 60, "velocity": 56, "note_on_time": 6.918, "note_off_time": 7.138}, {"pitch": 64, "velocity": 62, "note_on_time": 7.163, "note_off_time": 7.581}]</notes><guidance name="Guidance Mode">None</guidance><error name="Error value">0.32828436</error></trial></trials></MIDI>