<MIDI midiNo="2022_11_21-19_43_08"><target_notes><notes name="Note List">[{"pitch": 42, "velocity": 80, "note_on_time": 0.004, "note_off_time": 0.41}, {"pitch": 42, "velocity": 80, "note_on_time": 0.41, "note_off_time": 0.815}, {"pitch": 42, "velocity": 80, "note_on_time": 0.815, "note_off_time": 1.22}, {"pitch": 42, "velocity": 80, "note_on_time": 1.22, "note_off_time": 1.625}, {"pitch": 62, "velocity": 80, "note_on_time": 1.625, "note_off_time": 2.031}, {"pitch": 42, "velocity": 80, "note_on_time": 1.625, "note_off_time": 2.032}, {"pitch": 60, "velocity": 80, "note_on_time": 2.031, "note_off_time": 2.436}, {"pitch": 42, "velocity": 80, "note_on_time": 2.032, "note_off_time": 2.436}, {"pitch": 64, "velocity": 80, "note_on_time": 2.436, "note_off_time": 2.842}, {"pitch": 42, "velocity": 80, "note_on_time": 2.437, "note_off_time": 2.842}, {"pitch": 62, "velocity": 80, "note_on_time": 2.842, "note_off_time": 3.244}, {"pitch": 42, "velocity": 80, "note_on_time": 2.842, "note_off_time": 3.244}, {"pitch": 64, "velocity": 80, "note_on_time": 3.244, "note_off_time": 3.647}, {"pitch": 42, "velocity": 80, "note_on_time": 3.244, "note_off_time": 3.647}, {"pitch": 64, "velocity": 80, "note_on_time": 3.647, "note_off_time": 4.053}, {"pitch": 42, "velocity": 80, "note_on_time": 3.647, "note_off_time": 4.054}, {"pitch": 64, "velocity": 80, "note_on_time": 4.053, "note_off_time": 4.458}, {"pitch": 42, "velocity": 80, "note_on_time": 4.054, "note_off_time": 4.458}, {"pitch": 64, "velocity": 80, "note_on_time": 4.458, "note_off_time": 4.86}, {"pitch": 42, "velocity": 80, "note_on_time": 4.459, "note_off_time": 4.86}, {"pitch": 60, "velocity": 80, "note_on_time": 4.86, "note_off_time": 5.268}, {"pitch": 42, "velocity": 80, "note_on_time": 4.86, "note_off_time": 5.268}, {"pitch": 42, "velocity": 80, "note_on_time": 5.268, "note_off_time": 5.673}, {"pitch": 42, "velocity": 80, "note_on_time": 5.673, "note_off_time": 6.079}, {"pitch": 42, "velocity": 80, "note_on_time": 6.079, "note_off_time": 6.482}, {"pitch": 64, "velocity": 80, "note_on_time": 6.482, "note_off_time": 6.887}, {"pitch": 42, "velocity": 80, "note_on_time": 6.482, "note_off_time": 6.887}, {"pitch": 64, "velocity": 80, "note_on_time": 6.887, "note_off_time": 7.294}, {"pitch": 42, "velocity": 80, "note_on_time": 6.887, "note_off_time": 7.295}, {"pitch": 64, "velocity": 80, "note_on_time": 7.294, "note_off_time": 7.697}, {"pitch": 42, "velocity": 80, "note_on_time": 7.295, "note_off_time": 7.697}, {"pitch": 64, "velocity": 80, "note_on_time": 7.697, "note_off_time": 8.104}, {"pitch": 42, "velocity": 80, "note_on_time": 7.698, "note_off_time": 8.104}, {"pitch": 42, "velocity": 80, "note_on_time": 8.104, "note_off_time": 8.508}, {"pitch": 60, "velocity": 80, "note_on_time": 8.104, "note_off_time": 8.913}, {"pitch": 42, "velocity": 80, "note_on_time": 8.509, "note_off_time": 8.913}, {"pitch": 42, "velocity": 80, "note_on_time": 8.913, "note_off_time": 9.317}, {"pitch": 60, "velocity": 80, "note_on_time": 8.913, "note_off_time": 9.722}, {"pitch": 42, "velocity": 80, "note_on_time": 9.318, "note_off_time": 9.722}, {"pitch": 60, "velocity": 80, "note_on_time": 9.722, "note_off_time": 10.127}, {"pitch": 42, "velocity": 80, "note_on_time": 9.723, "note_off_time": 10.127}, {"pitch": 64, "velocity": 80, "note_on_time": 10.127, "note_off_time": 10.531}, {"pitch": 42, "velocity": 80, "note_on_time": 10.128, "note_off_time": 10.531}, {"pitch": 64, "velocity": 80, "note_on_time": 10.531, "note_off_time": 10.936}, {"pitch": 42, "velocity": 80, "note_on_time": 10.532, "note_off_time": 10.936}, {"pitch": 62, "velocity": 80, "note_on_time": 10.936, "note_off_time": 11.34}, {"pitch": 42, "velocity": 80, "note_on_time": 10.936, "note_off_time": 11.34}, {"pitch": 60, "velocity": 80, "note_on_time": 11.34, "note_off_time": 11.743}, {"pitch": 42, "velocity": 80, "note_on_time": 11.34, "note_off_time": 11.744}, {"pitch": 62, "velocity": 80, "note_on_time": 11.743, "note_off_time": 12.15}, {"pitch": 42, "velocity": 80, "note_on_time": 11.744, "note_off_time": 12.15}, {"pitch": 60, "velocity": 80, "note_on_time": 12.15, "note_off_time": 12.555}, {"pitch": 42, "velocity": 80, "note_on_time": 12.15, "note_off_time": 12.556}, {"pitch": 60, "velocity": 80, "note_on_time": 12.555, "note_off_time": 12.961}, {"pitch": 42, "velocity": 80, "note_on_time": 12.556, "note_off_time": 12.961}, {"pitch": 42, "velocity": 80, "note_on_time": 12.961, "note_off_time": 13.365}, {"pitch": 60, "velocity": 80, "note_on_time": 13.364, "note_off_time": 13.771}, {"pitch": 42, "velocity": 80, "note_on_time": 13.365, "note_off_time": 13.771}, {"pitch": 60, "velocity": 80, "note_on_time": 13.771, "note_off_time": 14.178}, {"pitch": 42, "velocity": 80, "note_on_time": 13.771, "note_off_time": 14.178}, {"pitch": 60, "velocity": 80, "note_on_time": 14.178, "note_off_time": 14.583}, {"pitch": 42, "velocity": 80, "note_on_time": 14.179, "note_off_time": 14.583}]</notes><options name="Option List">((4, 4), [0.5, 0.25], 3, 8, &lt;NoteRangePerHand.THREE_NOTES: 4&gt;, &lt;NoteRangePerHand.ONE_NOTE: 2&gt;, False, True, False, 150)</options></target_notes><trials><trial trial_no="1" timestamp="2022_11_21-19_42_52"><notes name="Played Notes">[{"pitch": 62, "velocity": 71, "note_on_time": 1.661, "note_off_time": 2.0}, {"pitch": 60, "velocity": 73, "note_on_time": 2.024, "note_off_time": 2.484}, {"pitch": 64, "velocity": 68, "note_on_time": 2.445, "note_off_time": 2.804}, {"pitch": 62, "velocity": 64, "note_on_time": 2.814, "note_off_time": 2.995}, {"pitch": 64, "velocity": 70, "note_on_time": 3.223, "note_off_time": 3.418}, {"pitch": 64, "velocity": 67, "note_on_time": 3.64, "note_off_time": 3.784}, {"pitch": 64, "velocity": 69, "note_on_time": 4.014, "note_off_time": 4.198}, {"pitch": 64, "velocity": 74, "note_on_time": 4.43, "note_off_time": 4.813}, {"pitch": 60, "velocity": 89, "note_on_time": 4.837, "note_off_time": 5.046}, {"pitch": 64, "velocity": 73, "note_on_time": 6.464, "note_off_time": 6.656}, {"pitch": 64, "velocity": 71, "note_on_time": 6.851, "note_off_time": 7.027}, {"pitch": 64, "velocity": 66, "note_on_time": 7.237, "note_off_time": 7.417}, {"pitch": 64, "velocity": 79, "note_on_time": 7.664, "note_off_time": 7.87}, {"pitch": 60, "velocity": 84, "note_on_time": 8.075, "note_off_time": 8.441}, {"pitch": 60, "velocity": 88, "note_on_time": 9.015, "note_off_time": 9.569}, {"pitch": 60, "velocity": 82, "note_on_time": 9.936, "note_off_time": 10.344}, {"pitch": 64, "velocity": 74, "note_on_time": 10.377, "note_off_time": 10.558}, {"pitch": 64, "velocity": 78, "note_on_time": 10.754, "note_off_time": 11.16}, {"pitch": 62, "velocity": 66, "note_on_time": 11.145, "note_off_time": 11.433}, {"pitch": 60, "velocity": 76, "note_on_time": 11.525, "note_off_time": 11.839}, {"pitch": 62, "velocity": 76, "note_on_time": 11.927, "note_off_time": 12.18}, {"pitch": 60, "velocity": 72, "note_on_time": 12.361, "note_off_time": 12.518}, {"pitch": 60, "velocity": 79, "note_on_time": 12.753, "note_off_time": 12.886}, {"pitch": 60, "velocity": 84, "note_on_time": 13.128, "note_off_time": 13.298}, {"pitch": 60, "velocity": 86, "note_on_time": 13.833, "note_off_time": 13.972}, {"pitch": 60, "velocity": 81, "note_on_time": 14.168, "note_off_time": 14.282}]</notes><guidance name="Guidance Mode">None</guidance><error name="Error value">0.06300000000000006</error></trial><trial trial_no="2" timestamp="2022_11_21-19_43_15"><notes name="Played Notes">[{"pitch": 62, "velocity": 69, "note_on_time": 1.644, "note_off_time": 2.04}, {"pitch": 60, "velocity": 81, "note_on_time": 2.04, "note_off_time": 2.486}, {"pitch": 64, "velocity": 68, "note_on_time": 2.457, "note_off_time": 2.738}, {"pitch": 62, "velocity": 62, "note_on_time": 2.823, "note_off_time": 2.978}, {"pitch": 62, "velocity": 64, "note_on_time": 3.254, "note_off_time": 3.402}, {"pitch": 64, "velocity": 79, "note_on_time": 3.623, "note_off_time": 3.852}, {"pitch": 64, "velocity": 70, "note_on_time": 4.048, "note_off_time": 4.22}, {"pitch": 64, "velocity": 64, "note_on_time": 4.416, "note_off_time": 4.6}, {"pitch": 64, "velocity": 60, "note_on_time": 4.872, "note_off_time": 5.086}, {"pitch": 60, "velocity": 83, "note_on_time": 5.284, "note_off_time": 5.564}, {"pitch": 64, "velocity": 73, "note_on_time": 6.929, "note_off_time": 7.105}, {"pitch": 64, "velocity": 71, "note_on_time": 7.31, "note_off_time": 7.465}, {"pitch": 64, "velocity": 68, "note_on_time": 7.723, "note_off_time": 7.901}, {"pitch": 64, "velocity": 72, "note_on_time": 8.133, "note_off_time": 8.331}, {"pitch": 60, "velocity": 60, "note_on_time": 8.534, "note_off_time": 8.72}, {"pitch": 60, "velocity": 87, "note_on_time": 9.171, "note_off_time": 9.594}, {"pitch": 60, "velocity": 82, "note_on_time": 10.016, "note_off_time": 10.366}, {"pitch": 64, "velocity": 76, "note_on_time": 10.398, "note_off_time": 10.558}, {"pitch": 64, "velocity": 70, "note_on_time": 10.784, "note_off_time": 11.206}, {"pitch": 62, "velocity": 66, "note_on_time": 11.202, "note_off_time": 11.391}, {"pitch": 60, "velocity": 81, "note_on_time": 11.571, "note_off_time": 11.784}, {"pitch": 62, "velocity": 62, "note_on_time": 11.941, "note_off_time": 12.179}, {"pitch": 60, "velocity": 79, "note_on_time": 12.322, "note_off_time": 12.489}, {"pitch": 60, "velocity": 72, "note_on_time": 12.709, "note_off_time": 12.838}, {"pitch": 60, "velocity": 81, "note_on_time": 13.069, "note_off_time": 13.196}, {"pitch": 60, "velocity": 77, "note_on_time": 13.54, "note_off_time": 13.709}, {"pitch": 60, "velocity": 58, "note_on_time": 13.947, "note_off_time": 14.044}, {"pitch": 60, "velocity": 69, "note_on_time": 14.291, "note_off_time": 14.42}]</notes><guidance name="Guidance Mode">None</guidance><error name="Error value">0.4170869565217382</error></trial><trial trial_no="3" timestamp="2022_11_21-19_43_39"><notes name="Played Notes">[{"pitch": 30, "velocity": 1, "note_on_time": 0.128, "note_off_time": 0.186}, {"pitch": 62, "velocity": 69, "note_on_time": 1.611, "note_off_time": 2.056}, {"pitch": 60, "velocity": 78, "note_on_time": 2.026, "note_off_time": 2.462}, {"pitch": 64, "velocity": 67, "note_on_time": 2.435, "note_off_time": 2.889}, {"pitch": 62, "velocity": 67, "note_on_time": 2.849, "note_off_time": 3.057}, {"pitch": 64, "velocity": 67, "note_on_time": 3.245, "note_off_time": 3.445}, {"pitch": 64, "velocity": 62, "note_on_time": 3.647, "note_off_time": 3.849}, {"pitch": 64, "velocity": 65, "note_on_time": 4.061, "note_off_time": 4.23}, {"pitch": 64, "velocity": 68, "note_on_time": 4.469, "note_off_time": 4.685}, {"pitch": 60, "velocity": 80, "note_on_time": 4.889, "note_off_time": 5.156}, {"pitch": 64, "velocity": 74, "note_on_time": 6.501, "note_off_time": 6.733}, {"pitch": 64, "velocity": 67, "note_on_time": 6.916, "note_off_time": 7.091}, {"pitch": 64, "velocity": 61, "note_on_time": 7.278, "note_off_time": 7.469}, {"pitch": 64, "velocity": 71, "note_on_time": 7.705, "note_off_time": 7.883}, {"pitch": 60, "velocity": 82, "note_on_time": 8.138, "note_off_time": 8.734}, {"pitch": 60, "velocity": 83, "note_on_time": 9.054, "note_off_time": 9.765}, {"pitch": 60, "velocity": 80, "note_on_time": 10.189, "note_off_time": 10.46}, {"pitch": 64, "velocity": 78, "note_on_time": 10.609, "note_off_time": 10.794}, {"pitch": 64, "velocity": 67, "note_on_time": 10.987, "note_off_time": 11.442}, {"pitch": 62, "velocity": 62, "note_on_time": 11.418, "note_off_time": 11.844}, {"pitch": 60, "velocity": 79, "note_on_time": 11.805, "note_off_time": 11.999}, {"pitch": 62, "velocity": 64, "note_on_time": 12.214, "note_off_time": 12.547}, {"pitch": 60, "velocity": 84, "note_on_time": 12.598, "note_off_time": 12.795}, {"pitch": 60, "velocity": 77, "note_on_time": 13.031, "note_off_time": 13.245}, {"pitch": 60, "velocity": 76, "note_on_time": 13.788, "note_off_time": 13.968}, {"pitch": 60, "velocity": 76, "note_on_time": 14.175, "note_off_time": 14.361}]</notes><guidance name="Guidance Mode">None</guidance><error name="Error value">0.8313478260869558</error></trial></trials></MIDI>