<MIDI midiNo="2022_10_27-13_52_54"><target_notes><notes name="Note List">[{"pitch": 42, "velocity": 80, "note_on_time": 0.003, "note_off_time": 0.591}, {"pitch": 42, "velocity": 80, "note_on_time": 0.591, "note_off_time": 1.164}, {"pitch": 42, "velocity": 80, "note_on_time": 1.164, "note_off_time": 1.74}, {"pitch": 42, "velocity": 80, "note_on_time": 1.74, "note_off_time": 2.315}, {"pitch": 64, "velocity": 80, "note_on_time": 2.315, "note_off_time": 2.892}, {"pitch": 42, "velocity": 80, "note_on_time": 2.316, "note_off_time": 2.892}, {"pitch": 60, "velocity": 80, "note_on_time": 2.892, "note_off_time": 3.47}, {"pitch": 42, "velocity": 80, "note_on_time": 2.892, "note_off_time": 3.47}, {"pitch": 64, "velocity": 80, "note_on_time": 3.47, "note_off_time": 4.046}, {"pitch": 42, "velocity": 80, "note_on_time": 3.471, "note_off_time": 4.047}, {"pitch": 65, "velocity": 80, "note_on_time": 4.046, "note_off_time": 4.62}, {"pitch": 42, "velocity": 80, "note_on_time": 4.047, "note_off_time": 4.621}, {"pitch": 60, "velocity": 80, "note_on_time": 4.62, "note_off_time": 5.195}, {"pitch": 42, "velocity": 80, "note_on_time": 4.621, "note_off_time": 5.196}, {"pitch": 67, "velocity": 80, "note_on_time": 5.195, "note_off_time": 5.772}, {"pitch": 42, "velocity": 80, "note_on_time": 5.196, "note_off_time": 5.772}, {"pitch": 62, "velocity": 80, "note_on_time": 5.772, "note_off_time": 6.349}, {"pitch": 42, "velocity": 80, "note_on_time": 5.772, "note_off_time": 6.349}, {"pitch": 60, "velocity": 80, "note_on_time": 6.349, "note_off_time": 6.929}, {"pitch": 42, "velocity": 80, "note_on_time": 6.349, "note_off_time": 6.93}, {"pitch": 65, "velocity": 80, "note_on_time": 6.929, "note_off_time": 7.504}, {"pitch": 42, "velocity": 80, "note_on_time": 6.93, "note_off_time": 7.504}, {"pitch": 64, "velocity": 80, "note_on_time": 7.504, "note_off_time": 8.082}, {"pitch": 42, "velocity": 80, "note_on_time": 7.504, "note_off_time": 8.082}, {"pitch": 62, "velocity": 80, "note_on_time": 8.082, "note_off_time": 8.656}, {"pitch": 42, "velocity": 80, "note_on_time": 8.082, "note_off_time": 8.656}, {"pitch": 60, "velocity": 80, "note_on_time": 8.656, "note_off_time": 9.235}, {"pitch": 42, "velocity": 80, "note_on_time": 8.656, "note_off_time": 9.236}, {"pitch": 60, "velocity": 80, "note_on_time": 9.235, "note_off_time": 9.808}, {"pitch": 42, "velocity": 80, "note_on_time": 9.236, "note_off_time": 9.809}, {"pitch": 42, "velocity": 80, "note_on_time": 9.809, "note_off_time": 10.383}, {"pitch": 60, "velocity": 80, "note_on_time": 9.808, "note_off_time": 10.957}, {"pitch": 42, "velocity": 80, "note_on_time": 10.384, "note_off_time": 10.958}, {"pitch": 65, "velocity": 80, "note_on_time": 10.957, "note_off_time": 11.535}, {"pitch": 42, "velocity": 80, "note_on_time": 10.958, "note_off_time": 11.535}, {"pitch": 67, "velocity": 80, "note_on_time": 11.535, "note_off_time": 12.114}, {"pitch": 42, "velocity": 80, "note_on_time": 11.536, "note_off_time": 12.114}, {"pitch": 65, "velocity": 80, "note_on_time": 12.114, "note_off_time": 12.694}, {"pitch": 42, "velocity": 80, "note_on_time": 12.115, "note_off_time": 12.694}, {"pitch": 42, "velocity": 80, "note_on_time": 12.694, "note_off_time": 13.271}, {"pitch": 64, "velocity": 80, "note_on_time": 12.694, "note_off_time": 13.847}, {"pitch": 42, "velocity": 80, "note_on_time": 13.271, "note_off_time": 13.848}, {"pitch": 65, "velocity": 80, "note_on_time": 13.847, "note_off_time": 14.424}, {"pitch": 42, "velocity": 80, "note_on_time": 13.848, "note_off_time": 14.424}, {"pitch": 64, "velocity": 80, "note_on_time": 14.424, "note_off_time": 14.998}, {"pitch": 42, "velocity": 80, "note_on_time": 14.424, "note_off_time": 14.999}, {"pitch": 62, "velocity": 80, "note_on_time": 14.998, "note_off_time": 15.574}, {"pitch": 42, "velocity": 80, "note_on_time": 14.999, "note_off_time": 15.574}, {"pitch": 60, "velocity": 80, "note_on_time": 15.574, "note_off_time": 16.152}, {"pitch": 42, "velocity": 80, "note_on_time": 15.574, "note_off_time": 16.152}, {"pitch": 42, "velocity": 80, "note_on_time": 16.153, "note_off_time": 16.728}, {"pitch": 65, "velocity": 80, "note_on_time": 16.152, "note_off_time": 17.305}, {"pitch": 42, "velocity": 80, "note_on_time": 16.728, "note_off_time": 17.306}, {"pitch": 42, "velocity": 80, "note_on_time": 17.306, "note_off_time": 17.879}, {"pitch": 42, "velocity": 80, "note_on_time": 17.879, "note_off_time": 18.456}, {"pitch": 42, "velocity": 80, "note_on_time": 18.456, "note_off_time": 19.03}, {"pitch": 65, "velocity": 80, "note_on_time": 19.029, "note_off_time": 19.603}, {"pitch": 42, "velocity": 80, "note_on_time": 19.03, "note_off_time": 19.603}, {"pitch": 65, "velocity": 80, "note_on_time": 19.603, "note_off_time": 20.181}, {"pitch": 42, "velocity": 80, "note_on_time": 19.603, "note_off_time": 20.181}, {"pitch": 65, "velocity": 80, "note_on_time": 20.181, "note_off_time": 20.754}, {"pitch": 42, "velocity": 80, "note_on_time": 20.181, "note_off_time": 20.755}]</notes><options name="Option List">((4, 4), [0.5, 0.25], 3, 8, &lt;NoteRangePerHand.C_TO_G: 6&gt;, &lt;NoteRangePerHand.ONE_NOTE: 2&gt;, False, True, False, 105)</options></target_notes><trials><trial trial_no="1" timestamp="2022_10_27-13_53_00"><notes name="Played Notes">[{"pitch": 76, "velocity": 67, "note_on_time": 2.266, "note_off_time": 2.86}, {"pitch": 72, "velocity": 65, "note_on_time": 2.857, "note_off_time": 3.414}, {"pitch": 76, "velocity": 67, "note_on_time": 3.437, "note_off_time": 3.972}, {"pitch": 77, "velocity": 69, "note_on_time": 3.997, "note_off_time": 4.582}, {"pitch": 72, "velocity": 65, "note_on_time": 4.6, "note_off_time": 5.126}, {"pitch": 79, "velocity": 71, "note_on_time": 5.147, "note_off_time": 5.727}, {"pitch": 74, "velocity": 66, "note_on_time": 5.722, "note_off_time": 6.292}, {"pitch": 72, "velocity": 65, "note_on_time": 6.323, "note_off_time": 6.872}, {"pitch": 77, "velocity": 72, "note_on_time": 6.889, "note_off_time": 7.407}, {"pitch": 76, "velocity": 64, "note_on_time": 7.452, "note_off_time": 8.007}, {"pitch": 74, "velocity": 68, "note_on_time": 8.016, "note_off_time": 8.6}, {"pitch": 72, "velocity": 61, "note_on_time": 8.595, "note_off_time": 8.795}, {"pitch": 72, "velocity": 63, "note_on_time": 9.199, "note_off_time": 9.45}, {"pitch": 72, "velocity": 66, "note_on_time": 9.757, "note_off_time": 10.55}, {"pitch": 77, "velocity": 71, "note_on_time": 10.923, "note_off_time": 11.473}, {"pitch": 79, "velocity": 66, "note_on_time": 11.504, "note_off_time": 11.958}, {"pitch": 77, "velocity": 67, "note_on_time": 12.042, "note_off_time": 12.635}, {"pitch": 76, "velocity": 67, "note_on_time": 12.645, "note_off_time": 13.425}, {"pitch": 77, "velocity": 71, "note_on_time": 13.823, "note_off_time": 14.363}, {"pitch": 76, "velocity": 65, "note_on_time": 14.365, "note_off_time": 14.924}, {"pitch": 74, "velocity": 73, "note_on_time": 14.918, "note_off_time": 15.494}, {"pitch": 72, "velocity": 65, "note_on_time": 15.498, "note_off_time": 16.09}, {"pitch": 77, "velocity": 73, "note_on_time": 16.095, "note_off_time": 17.06}, {"pitch": 77, "velocity": 70, "note_on_time": 18.985, "note_off_time": 19.18}, {"pitch": 77, "velocity": 71, "note_on_time": 19.573, "note_off_time": 19.698}, {"pitch": 77, "velocity": 74, "note_on_time": 20.16, "note_off_time": 20.31}]</notes><guidance name="Guidance Mode">None</guidance><error name="Error value">1.1514537391304347</error></trial><trial trial_no="2" timestamp="2022_10_27-13_53_31"><notes name="Played Notes">[{"pitch": 76, "velocity": 67, "note_on_time": 2.295, "note_off_time": 2.928}, {"pitch": 72, "velocity": 64, "note_on_time": 2.88, "note_off_time": 3.468}, {"pitch": 76, "velocity": 61, "note_on_time": 3.448, "note_off_time": 4.076}, {"pitch": 77, "velocity": 68, "note_on_time": 4.035, "note_off_time": 4.653}, {"pitch": 72, "velocity": 64, "note_on_time": 4.595, "note_off_time": 5.18}, {"pitch": 79, "velocity": 74, "note_on_time": 5.147, "note_off_time": 5.773}, {"pitch": 74, "velocity": 64, "note_on_time": 5.73, "note_off_time": 6.332}, {"pitch": 72, "velocity": 66, "note_on_time": 6.311, "note_off_time": 6.88}, {"pitch": 77, "velocity": 74, "note_on_time": 6.88, "note_off_time": 7.522}, {"pitch": 76, "velocity": 65, "note_on_time": 7.466, "note_off_time": 8.046}, {"pitch": 74, "velocity": 64, "note_on_time": 8.03, "note_off_time": 8.638}, {"pitch": 72, "velocity": 65, "note_on_time": 8.607, "note_off_time": 8.868}, {"pitch": 72, "velocity": 65, "note_on_time": 9.159, "note_off_time": 9.489}, {"pitch": 72, "velocity": 68, "note_on_time": 9.744, "note_off_time": 10.882}, {"pitch": 77, "velocity": 66, "note_on_time": 10.89, "note_off_time": 11.46}, {"pitch": 79, "velocity": 70, "note_on_time": 11.473, "note_off_time": 12.037}, {"pitch": 77, "velocity": 73, "note_on_time": 12.036, "note_off_time": 12.662}, {"pitch": 76, "velocity": 65, "note_on_time": 12.655, "note_off_time": 13.818}, {"pitch": 77, "velocity": 68, "note_on_time": 13.812, "note_off_time": 14.396}, {"pitch": 76, "velocity": 64, "note_on_time": 14.363, "note_off_time": 14.957}, {"pitch": 74, "velocity": 63, "note_on_time": 14.948, "note_off_time": 15.567}, {"pitch": 72, "velocity": 62, "note_on_time": 15.545, "note_off_time": 16.132}, {"pitch": 77, "velocity": 67, "note_on_time": 16.128, "note_off_time": 17.268}, {"pitch": 77, "velocity": 69, "note_on_time": 19.031, "note_off_time": 19.366}, {"pitch": 77, "velocity": 69, "note_on_time": 19.551, "note_off_time": 19.927}, {"pitch": 77, "velocity": 76, "note_on_time": 20.133, "note_off_time": 20.577}]</notes><guidance name="Guidance Mode">None</guidance><error name="Error value">1.148323304347826</error></trial><trial trial_no="3" timestamp="2022_10_27-13_54_00"><notes name="Played Notes">[{"pitch": 76, "velocity": 65, "note_on_time": 2.281, "note_off_time": 2.885}, {"pitch": 72, "velocity": 59, "note_on_time": 2.84, "note_off_time": 3.438}, {"pitch": 76, "velocity": 66, "note_on_time": 3.413, "note_off_time": 4.03}, {"pitch": 77, "velocity": 68, "note_on_time": 4.014, "note_off_time": 4.624}, {"pitch": 72, "velocity": 63, "note_on_time": 4.591, "note_off_time": 5.163}, {"pitch": 79, "velocity": 70, "note_on_time": 5.16, "note_off_time": 5.748}, {"pitch": 74, "velocity": 73, "note_on_time": 5.718, "note_off_time": 6.269}, {"pitch": 72, "velocity": 64, "note_on_time": 6.27, "note_off_time": 6.838}, {"pitch": 77, "velocity": 74, "note_on_time": 6.841, "note_off_time": 7.46}, {"pitch": 76, "velocity": 57, "note_on_time": 7.427, "note_off_time": 8.019}, {"pitch": 72, "velocity": 62, "note_on_time": 8.553, "note_off_time": 8.743}, {"pitch": 74, "velocity": 65, "note_on_time": 7.993, "note_off_time": 9.137}, {"pitch": 72, "velocity": 65, "note_on_time": 9.141, "note_off_time": 9.36}, {"pitch": 72, "velocity": 74, "note_on_time": 9.694, "note_off_time": 10.287}, {"pitch": 77, "velocity": 71, "note_on_time": 10.87, "note_off_time": 11.434}, {"pitch": 79, "velocity": 67, "note_on_time": 11.463, "note_off_time": 12.004}, {"pitch": 77, "velocity": 67, "note_on_time": 12.015, "note_off_time": 12.627}, {"pitch": 76, "velocity": 68, "note_on_time": 12.63, "note_off_time": 13.448}, {"pitch": 77, "velocity": 72, "note_on_time": 13.764, "note_off_time": 14.304}, {"pitch": 76, "velocity": 63, "note_on_time": 14.295, "note_off_time": 14.906}, {"pitch": 74, "velocity": 68, "note_on_time": 14.871, "note_off_time": 15.494}, {"pitch": 72, "velocity": 62, "note_on_time": 15.464, "note_off_time": 16.089}, {"pitch": 77, "velocity": 70, "note_on_time": 16.086, "note_off_time": 16.716}, {"pitch": 77, "velocity": 72, "note_on_time": 18.978, "note_off_time": 19.192}, {"pitch": 77, "velocity": 71, "note_on_time": 19.548, "note_off_time": 19.723}, {"pitch": 77, "velocity": 74, "note_on_time": 20.094, "note_off_time": 20.198}]</notes><guidance name="Guidance Mode">None</guidance><error name="Error value">1.150292</error></trial><trial trial_no="4" timestamp="2022_10_27-13_54_31"><notes name="Played Notes">[{"pitch": 76, "velocity": 64, "note_on_time": 2.32, "note_off_time": 2.955}, {"pitch": 72, "velocity": 64, "note_on_time": 2.935, "note_off_time": 3.51}, {"pitch": 76, "velocity": 62, "note_on_time": 3.504, "note_off_time": 4.092}, {"pitch": 77, "velocity": 61, "note_on_time": 4.064, "note_off_time": 4.671}, {"pitch": 72, "velocity": 62, "note_on_time": 4.633, "note_off_time": 5.233}, {"pitch": 79, "velocity": 67, "note_on_time": 5.205, "note_off_time": 5.81}, {"pitch": 74, "velocity": 63, "note_on_time": 5.763, "note_off_time": 6.374}, {"pitch": 72, "velocity": 56, "note_on_time": 6.358, "note_off_time": 6.966}, {"pitch": 77, "velocity": 61, "note_on_time": 6.945, "note_off_time": 7.546}, {"pitch": 76, "velocity": 62, "note_on_time": 7.511, "note_off_time": 8.133}, {"pitch": 74, "velocity": 60, "note_on_time": 8.085, "note_off_time": 8.701}, {"pitch": 72, "velocity": 47, "note_on_time": 8.636, "note_off_time": 8.899}, {"pitch": 72, "velocity": 62, "note_on_time": 9.212, "note_off_time": 9.446}, {"pitch": 72, "velocity": 71, "note_on_time": 9.797, "note_off_time": 10.935}, {"pitch": 77, "velocity": 74, "note_on_time": 10.931, "note_off_time": 11.482}, {"pitch": 79, "velocity": 62, "note_on_time": 11.496, "note_off_time": 12.032}, {"pitch": 77, "velocity": 67, "note_on_time": 12.047, "note_off_time": 12.667}, {"pitch": 76, "velocity": 60, "note_on_time": 12.639, "note_off_time": 13.784}, {"pitch": 77, "velocity": 67, "note_on_time": 13.793, "note_off_time": 14.388}, {"pitch": 76, "velocity": 66, "note_on_time": 14.373, "note_off_time": 14.956}, {"pitch": 74, "velocity": 64, "note_on_time": 14.924, "note_off_time": 15.531}, {"pitch": 72, "velocity": 62, "note_on_time": 15.509, "note_off_time": 16.036}, {"pitch": 77, "velocity": 76, "note_on_time": 16.074, "note_off_time": 17.078}, {"pitch": 77, "velocity": 63, "note_on_time": 19.013, "note_off_time": 19.289}, {"pitch": 77, "velocity": 72, "note_on_time": 19.567, "note_off_time": 19.859}, {"pitch": 77, "velocity": 74, "note_on_time": 20.108, "note_off_time": 20.406}]</notes><guidance name="Guidance Mode">None</guidance><error name="Error value">1.1480746086956524</error></trial><trial trial_no="5" timestamp="2022_10_27-13_55_01"><notes name="Played Notes">[{"pitch": 76, "velocity": 56, "note_on_time": 2.319, "note_off_time": 2.921}, {"pitch": 72, "velocity": 58, "note_on_time": 2.877, "note_off_time": 3.482}, {"pitch": 76, "velocity": 59, "note_on_time": 3.474, "note_off_time": 4.046}, {"pitch": 77, "velocity": 67, "note_on_time": 4.035, "note_off_time": 4.613}, {"pitch": 72, "velocity": 60, "note_on_time": 4.614, "note_off_time": 5.166}, {"pitch": 79, "velocity": 66, "note_on_time": 5.181, "note_off_time": 5.794}, {"pitch": 74, "velocity": 62, "note_on_time": 5.754, "note_off_time": 6.326}, {"pitch": 72, "velocity": 58, "note_on_time": 6.307, "note_off_time": 6.899}, {"pitch": 77, "velocity": 69, "note_on_time": 6.886, "note_off_time": 7.464}, {"pitch": 76, "velocity": 58, "note_on_time": 7.447, "note_off_time": 8.069}, {"pitch": 74, "velocity": 62, "note_on_time": 8.045, "note_off_time": 8.635}, {"pitch": 72, "velocity": 59, "note_on_time": 8.623, "note_off_time": 8.896}, {"pitch": 72, "velocity": 62, "note_on_time": 9.21, "note_off_time": 9.423}, {"pitch": 72, "velocity": 68, "note_on_time": 9.787, "note_off_time": 10.602}, {"pitch": 77, "velocity": 64, "note_on_time": 10.977, "note_off_time": 11.563}, {"pitch": 79, "velocity": 59, "note_on_time": 11.572, "note_off_time": 12.048}, {"pitch": 77, "velocity": 60, "note_on_time": 12.083, "note_off_time": 12.66}, {"pitch": 76, "velocity": 58, "note_on_time": 12.677, "note_off_time": 13.414}, {"pitch": 77, "velocity": 64, "note_on_time": 13.795, "note_off_time": 14.371}, {"pitch": 76, "velocity": 59, "note_on_time": 14.375, "note_off_time": 14.969}, {"pitch": 74, "velocity": 62, "note_on_time": 14.961, "note_off_time": 15.547}, {"pitch": 72, "velocity": 61, "note_on_time": 15.529, "note_off_time": 16.071}, {"pitch": 77, "velocity": 69, "note_on_time": 16.09, "note_off_time": 17.087}, {"pitch": 77, "velocity": 65, "note_on_time": 18.968, "note_off_time": 19.241}, {"pitch": 77, "velocity": 72, "note_on_time": 19.552, "note_off_time": 19.728}, {"pitch": 77, "velocity": 79, "note_on_time": 20.113, "note_off_time": 20.232}]</notes><guidance name="Guidance Mode">None</guidance><error name="Error value">1.1483977391304347</error></trial></trials></MIDI>