<MIDI midiNo="2022_11_03-13_50_19"><target_notes><notes name="Note List">[{"pitch": 42, "velocity": 80, "note_on_time": 0.004, "note_off_time": 0.254}, {"pitch": 42, "velocity": 80, "note_on_time": 0.254, "note_off_time": 0.501}, {"pitch": 42, "velocity": 80, "note_on_time": 0.501, "note_off_time": 0.749}, {"pitch": 42, "velocity": 80, "note_on_time": 0.749, "note_off_time": 0.999}, {"pitch": 42, "velocity": 80, "note_on_time": 0.999, "note_off_time": 1.25}, {"pitch": 60, "velocity": 80, "note_on_time": 0.999, "note_off_time": 1.501}, {"pitch": 42, "velocity": 80, "note_on_time": 1.25, "note_off_time": 1.501}, {"pitch": 42, "velocity": 80, "note_on_time": 1.502, "note_off_time": 1.75}, {"pitch": 42, "velocity": 80, "note_on_time": 1.75, "note_off_time": 2.001}, {"pitch": 42, "velocity": 80, "note_on_time": 2.001, "note_off_time": 2.249}, {"pitch": 60, "velocity": 80, "note_on_time": 2.001, "note_off_time": 2.499}, {"pitch": 42, "velocity": 80, "note_on_time": 2.249, "note_off_time": 2.499}, {"pitch": 42, "velocity": 80, "note_on_time": 2.5, "note_off_time": 2.75}, {"pitch": 42, "velocity": 80, "note_on_time": 2.751, "note_off_time": 3.002}, {"pitch": 42, "velocity": 80, "note_on_time": 3.002, "note_off_time": 3.251}, {"pitch": 62, "velocity": 80, "note_on_time": 3.001, "note_off_time": 3.5}, {"pitch": 42, "velocity": 80, "note_on_time": 3.251, "note_off_time": 3.5}, {"pitch": 64, "velocity": 80, "note_on_time": 3.5, "note_off_time": 3.748}, {"pitch": 42, "velocity": 80, "note_on_time": 3.5, "note_off_time": 3.749}, {"pitch": 64, "velocity": 80, "note_on_time": 3.748, "note_off_time": 3.999}, {"pitch": 42, "velocity": 80, "note_on_time": 3.749, "note_off_time": 3.999}, {"pitch": 62, "velocity": 80, "note_on_time": 3.999, "note_off_time": 4.247}, {"pitch": 42, "velocity": 80, "note_on_time": 3.999, "note_off_time": 4.247}, {"pitch": 62, "velocity": 80, "note_on_time": 4.247, "note_off_time": 4.495}, {"pitch": 42, "velocity": 80, "note_on_time": 4.247, "note_off_time": 4.496}, {"pitch": 62, "velocity": 80, "note_on_time": 4.495, "note_off_time": 4.745}, {"pitch": 42, "velocity": 80, "note_on_time": 4.496, "note_off_time": 4.745}, {"pitch": 64, "velocity": 80, "note_on_time": 4.745, "note_off_time": 4.996}, {"pitch": 42, "velocity": 80, "note_on_time": 4.746, "note_off_time": 4.996}, {"pitch": 60, "velocity": 80, "note_on_time": 4.996, "note_off_time": 5.246}, {"pitch": 42, "velocity": 80, "note_on_time": 4.996, "note_off_time": 5.246}, {"pitch": 42, "velocity": 80, "note_on_time": 5.246, "note_off_time": 5.495}, {"pitch": 64, "velocity": 80, "note_on_time": 5.495, "note_off_time": 5.743}, {"pitch": 42, "velocity": 80, "note_on_time": 5.495, "note_off_time": 5.743}, {"pitch": 64, "velocity": 80, "note_on_time": 5.743, "note_off_time": 5.994}, {"pitch": 42, "velocity": 80, "note_on_time": 5.743, "note_off_time": 5.994}, {"pitch": 62, "velocity": 80, "note_on_time": 5.994, "note_off_time": 6.242}, {"pitch": 42, "velocity": 80, "note_on_time": 5.994, "note_off_time": 6.242}, {"pitch": 60, "velocity": 80, "note_on_time": 6.242, "note_off_time": 6.488}, {"pitch": 42, "velocity": 80, "note_on_time": 6.242, "note_off_time": 6.488}, {"pitch": 64, "velocity": 80, "note_on_time": 6.488, "note_off_time": 6.735}, {"pitch": 42, "velocity": 80, "note_on_time": 6.488, "note_off_time": 6.735}, {"pitch": 64, "velocity": 80, "note_on_time": 6.735, "note_off_time": 6.984}, {"pitch": 42, "velocity": 80, "note_on_time": 6.736, "note_off_time": 6.984}, {"pitch": 62, "velocity": 80, "note_on_time": 6.984, "note_off_time": 7.231}, {"pitch": 42, "velocity": 80, "note_on_time": 6.985, "note_off_time": 7.232}, {"pitch": 60, "velocity": 80, "note_on_time": 7.231, "note_off_time": 7.484}, {"pitch": 42, "velocity": 80, "note_on_time": 7.232, "note_off_time": 7.484}, {"pitch": 42, "velocity": 80, "note_on_time": 7.484, "note_off_time": 7.731}, {"pitch": 42, "velocity": 80, "note_on_time": 7.732, "note_off_time": 7.979}, {"pitch": 42, "velocity": 80, "note_on_time": 7.979, "note_off_time": 8.227}, {"pitch": 60, "velocity": 80, "note_on_time": 8.227, "note_off_time": 8.475}, {"pitch": 42, "velocity": 80, "note_on_time": 8.228, "note_off_time": 8.475}, {"pitch": 60, "velocity": 80, "note_on_time": 8.475, "note_off_time": 8.724}, {"pitch": 42, "velocity": 80, "note_on_time": 8.475, "note_off_time": 8.725}, {"pitch": 60, "velocity": 80, "note_on_time": 8.724, "note_off_time": 8.973}, {"pitch": 42, "velocity": 80, "note_on_time": 8.725, "note_off_time": 8.974}]</notes><options name="Option List">((4, 4), [0.5, 0.25], 3, 8, &lt;NoteRangePerHand.THREE_NOTES: 4&gt;, &lt;NoteRangePerHand.ONE_NOTE: 2&gt;, False, True, False, 248)</options></target_notes><trials><trial trial_no="1" timestamp="2022_11_03-13_50_08"><notes name="Played Notes">[{"pitch": 60, "velocity": 70, "note_on_time": 0.978, "note_off_time": 1.444}, {"pitch": 60, "velocity": 70, "note_on_time": 2.036, "note_off_time": 2.523}, {"pitch": 62, "velocity": 70, "note_on_time": 3.007, "note_off_time": 3.425}, {"pitch": 64, "velocity": 57, "note_on_time": 3.538, "note_off_time": 3.686}, {"pitch": 64, "velocity": 54, "note_on_time": 3.783, "note_off_time": 3.95}, {"pitch": 62, "velocity": 60, "note_on_time": 4.034, "note_off_time": 4.186}, {"pitch": 62, "velocity": 57, "note_on_time": 4.282, "note_off_time": 4.436}, {"pitch": 62, "velocity": 58, "note_on_time": 4.52, "note_off_time": 4.671}, {"pitch": 64, "velocity": 55, "note_on_time": 4.775, "note_off_time": 4.936}, {"pitch": 60, "velocity": 73, "note_on_time": 5.021, "note_off_time": 5.247}, {"pitch": 64, "velocity": 48, "note_on_time": 5.512, "note_off_time": 5.666}, {"pitch": 64, "velocity": 61, "note_on_time": 5.758, "note_off_time": 5.902}, {"pitch": 62, "velocity": 67, "note_on_time": 5.999, "note_off_time": 6.164}, {"pitch": 60, "velocity": 45, "note_on_time": 6.276, "note_off_time": 6.399}, {"pitch": 64, "velocity": 64, "note_on_time": 6.498, "note_off_time": 6.622}, {"pitch": 64, "velocity": 51, "note_on_time": 6.728, "note_off_time": 6.895}, {"pitch": 62, "velocity": 57, "note_on_time": 6.984, "note_off_time": 7.18}, {"pitch": 60, "velocity": 63, "note_on_time": 7.24, "note_off_time": 7.402}, {"pitch": 60, "velocity": 67, "note_on_time": 7.98, "note_off_time": 8.115}, {"pitch": 60, "velocity": 59, "note_on_time": 8.229, "note_off_time": 8.376}, {"pitch": 60, "velocity": 82, "note_on_time": 8.468, "note_off_time": 8.734}]</notes><guidance name="Guidance Mode">None</guidance><error name="Error value">0.02915805555555563</error></trial><trial trial_no="2" timestamp="2022_11_03-13_50_28"><notes name="Played Notes">[{"pitch": 60, "velocity": 73, "note_on_time": 1.015, "note_off_time": 1.476}, {"pitch": 60, "velocity": 79, "note_on_time": 2.033, "note_off_time": 2.521}, {"pitch": 62, "velocity": 73, "note_on_time": 3.028, "note_off_time": 3.427}, {"pitch": 64, "velocity": 65, "note_on_time": 3.529, "note_off_time": 3.669}, {"pitch": 64, "velocity": 73, "note_on_time": 3.754, "note_off_time": 3.91}, {"pitch": 62, "velocity": 67, "note_on_time": 4.006, "note_off_time": 4.138}, {"pitch": 62, "velocity": 58, "note_on_time": 4.246, "note_off_time": 4.376}, {"pitch": 62, "velocity": 76, "note_on_time": 4.476, "note_off_time": 4.664}, {"pitch": 64, "velocity": 66, "note_on_time": 4.718, "note_off_time": 4.906}, {"pitch": 60, "velocity": 77, "note_on_time": 4.983, "note_off_time": 5.269}, {"pitch": 64, "velocity": 68, "note_on_time": 5.482, "note_off_time": 5.639}, {"pitch": 64, "velocity": 79, "note_on_time": 5.716, "note_off_time": 5.914}, {"pitch": 62, "velocity": 65, "note_on_time": 5.981, "note_off_time": 6.127}, {"pitch": 60, "velocity": 79, "note_on_time": 6.203, "note_off_time": 6.362}, {"pitch": 64, "velocity": 64, "note_on_time": 6.452, "note_off_time": 6.594}, {"pitch": 64, "velocity": 61, "note_on_time": 6.701, "note_off_time": 6.87}, {"pitch": 62, "velocity": 64, "note_on_time": 6.945, "note_off_time": 7.114}, {"pitch": 60, "velocity": 62, "note_on_time": 7.181, "note_off_time": 7.406}, {"pitch": 60, "velocity": 78, "note_on_time": 8.031, "note_off_time": 8.168}, {"pitch": 60, "velocity": 71, "note_on_time": 8.269, "note_off_time": 8.397}, {"pitch": 60, "velocity": 74, "note_on_time": 8.493, "note_off_time": 8.716}]</notes><guidance name="Guidance Mode">None</guidance><error name="Error value">0.021469722222222234</error></trial><trial trial_no="3" timestamp="2022_11_03-13_50_45"><notes name="Played Notes">[{"pitch": 60, "velocity": 76, "note_on_time": 1.022, "note_off_time": 1.489}, {"pitch": 60, "velocity": 81, "note_on_time": 2.056, "note_off_time": 2.575}, {"pitch": 62, "velocity": 71, "note_on_time": 3.076, "note_off_time": 3.484}, {"pitch": 64, "velocity": 66, "note_on_time": 3.552, "note_off_time": 3.664}, {"pitch": 64, "velocity": 48, "note_on_time": 3.794, "note_off_time": 3.94}, {"pitch": 62, "velocity": 62, "note_on_time": 4.058, "note_off_time": 4.196}, {"pitch": 62, "velocity": 63, "note_on_time": 4.298, "note_off_time": 4.45}, {"pitch": 62, "velocity": 56, "note_on_time": 4.535, "note_off_time": 4.694}, {"pitch": 64, "velocity": 50, "note_on_time": 4.803, "note_off_time": 4.948}, {"pitch": 62, "velocity": 68, "note_on_time": 5.03, "note_off_time": 5.274}, {"pitch": 62, "velocity": 1, "note_on_time": 5.672, "note_off_time": 5.785}, {"pitch": 64, "velocity": 70, "note_on_time": 5.858, "note_off_time": 5.976}, {"pitch": 62, "velocity": 66, "note_on_time": 6.006, "note_off_time": 6.188}, {"pitch": 60, "velocity": 62, "note_on_time": 6.267, "note_off_time": 6.374}, {"pitch": 64, "velocity": 52, "note_on_time": 6.528, "note_off_time": 6.668}, {"pitch": 64, "velocity": 72, "note_on_time": 6.754, "note_off_time": 6.874}, {"pitch": 62, "velocity": 60, "note_on_time": 6.958, "note_off_time": 7.107}, {"pitch": 60, "velocity": 58, "note_on_time": 7.222, "note_off_time": 7.373}, {"pitch": 60, "velocity": 70, "note_on_time": 7.788, "note_off_time": 7.939}, {"pitch": 60, "velocity": 43, "note_on_time": 8.008, "note_off_time": 8.139}, {"pitch": 60, "velocity": 77, "note_on_time": 8.277, "note_off_time": 8.539}]</notes><guidance name="Guidance Mode">None</guidance><error name="Error value">0.17051083333333325</error></trial></trials></MIDI>