<MIDI midiNo="20220202-151353"><target_notes><notes name="Note List">[{"pitch": 60, "velocity": 100, "note_on_time": 2.424, "note_off_time": 3.028}, {"pitch": 62, "velocity": 100, "note_on_time": 4.238, "note_off_time": 4.841}, {"pitch": 62, "velocity": 100, "note_on_time": 4.841, "note_off_time": 5.446}, {"pitch": 60, "velocity": 100, "note_on_time": 5.446, "note_off_time": 6.05}, {"pitch": 62, "velocity": 100, "note_on_time": 7.256, "note_off_time": 7.861}, {"pitch": 60, "velocity": 100, "note_on_time": 7.861, "note_off_time": 9.069}, {"pitch": 60, "velocity": 100, "note_on_time": 9.673, "note_off_time": 10.278}, {"pitch": 60, "velocity": 100, "note_on_time": 10.279, "note_off_time": 10.883}, {"pitch": 60, "velocity": 100, "note_on_time": 10.883, "note_off_time": 11.488}, {"pitch": 60, "velocity": 100, "note_on_time": 11.488, "note_off_time": 12.093}, {"pitch": 62, "velocity": 100, "note_on_time": 12.093, "note_off_time": 12.697}, {"pitch": 60, "velocity": 100, "note_on_time": 12.698, "note_off_time": 13.302}, {"pitch": 62, "velocity": 100, "note_on_time": 13.302, "note_off_time": 13.906}, {"pitch": 62, "velocity": 100, "note_on_time": 13.907, "note_off_time": 14.512}, {"pitch": 62, "velocity": 100, "note_on_time": 14.512, "note_off_time": 15.115}, {"pitch": 60, "velocity": 100, "note_on_time": 15.115, "note_off_time": 15.72}, {"pitch": 60, "velocity": 100, "note_on_time": 15.72, "note_off_time": 16.324}, {"pitch": 60, "velocity": 100, "note_on_time": 16.324, "note_off_time": 16.929}, {"pitch": 60, "velocity": 100, "note_on_time": 17.534, "note_off_time": 18.137}, {"pitch": 60, "velocity": 100, "note_on_time": 18.138, "note_off_time": 18.742}, {"pitch": 60, "velocity": 100, "note_on_time": 18.742, "note_off_time": 19.345}]</notes><options name="Option List">((4, 4), [0.5, 0.25], 3, 7, &lt;NoteRangePerHand.THREE_NOTES: 4&gt;, &lt;NoteRangePerHand.ONE_NOTE: 2&gt;, False, True, True, 100)</options></target_notes><trials><trial trial_no="1" timestamp="20220202-151331"><notes name="Played Notes">[{"pitch": 60, "velocity": 100, "note_on_time": 2.36, "note_off_time": 2.939}, {"pitch": 62, "velocity": 100, "note_on_time": 4.232, "note_off_time": 4.563}, {"pitch": 62, "velocity": 100, "note_on_time": 4.857, "note_off_time": 5.299}, {"pitch": 60, "velocity": 100, "note_on_time": 5.436, "note_off_time": 5.913}, {"pitch": 62, "velocity": 100, "note_on_time": 7.266, "note_off_time": 7.64}, {"pitch": 60, "velocity": 100, "note_on_time": 7.83, "note_off_time": 9.592}, {"pitch": 60, "velocity": 100, "note_on_time": 10.267, "note_off_time": 10.459}, {"pitch": 60, "velocity": 100, "note_on_time": 10.878, "note_off_time": 11.04}, {"pitch": 60, "velocity": 100, "note_on_time": 11.467, "note_off_time": 11.643}, {"pitch": 60, "velocity": 100, "note_on_time": 12.106, "note_off_time": 12.326}, {"pitch": 62, "velocity": 100, "note_on_time": 12.66, "note_off_time": 12.913}, {"pitch": 60, "velocity": 100, "note_on_time": 13.243, "note_off_time": 13.546}, {"pitch": 62, "velocity": 100, "note_on_time": 13.838, "note_off_time": 14.118}, {"pitch": 62, "velocity": 100, "note_on_time": 14.447, "note_off_time": 14.733}, {"pitch": 62, "velocity": 100, "note_on_time": 15.039, "note_off_time": 15.352}, {"pitch": 60, "velocity": 100, "note_on_time": 15.593, "note_off_time": 15.935}, {"pitch": 60, "velocity": 100, "note_on_time": 16.215, "note_off_time": 16.508}, {"pitch": 60, "velocity": 100, "note_on_time": 16.847, "note_off_time": 17.112}, {"pitch": 60, "velocity": 100, "note_on_time": 18.163, "note_off_time": 18.355}, {"pitch": 60, "velocity": 100, "note_on_time": 18.748, "note_off_time": 18.956}]</notes><guidance name="Guidance Mode">None</guidance><error name="Error value">21.292444444444445</error></trial><trial trial_no="2" timestamp="20220202-151353"><notes name="Played Notes">[{"pitch": 60, "velocity": 100, "note_on_time": 2.475, "note_off_time": 2.943}, {"pitch": 62, "velocity": 100, "note_on_time": 4.202, "note_off_time": 4.54}, {"pitch": 62, "velocity": 100, "note_on_time": 4.831, "note_off_time": 5.267}, {"pitch": 60, "velocity": 100, "note_on_time": 5.408, "note_off_time": 5.841}, {"pitch": 62, "velocity": 100, "note_on_time": 7.255, "note_off_time": 7.544}, {"pitch": 60, "velocity": 100, "note_on_time": 7.829, "note_off_time": 9.511}, {"pitch": 60, "velocity": 100, "note_on_time": 10.275, "note_off_time": 10.558}, {"pitch": 60, "velocity": 100, "note_on_time": 10.965, "note_off_time": 11.204}, {"pitch": 60, "velocity": 100, "note_on_time": 11.448, "note_off_time": 11.701}, {"pitch": 60, "velocity": 100, "note_on_time": 11.99, "note_off_time": 12.295}, {"pitch": 62, "velocity": 100, "note_on_time": 12.599, "note_off_time": 12.895}, {"pitch": 60, "velocity": 100, "note_on_time": 13.188, "note_off_time": 13.568}, {"pitch": 62, "velocity": 100, "note_on_time": 13.751, "note_off_time": 14.127}, {"pitch": 62, "velocity": 100, "note_on_time": 14.377, "note_off_time": 14.744}, {"pitch": 62, "velocity": 100, "note_on_time": 14.955, "note_off_time": 15.415}, {"pitch": 60, "velocity": 100, "note_on_time": 15.572, "note_off_time": 15.923}, {"pitch": 60, "velocity": 100, "note_on_time": 16.149, "note_off_time": 16.523}, {"pitch": 60, "velocity": 100, "note_on_time": 16.765, "note_off_time": 17.138}, {"pitch": 60, "velocity": 100, "note_on_time": 18.076, "note_off_time": 18.293}, {"pitch": 60, "velocity": 100, "note_on_time": 18.643, "note_off_time": 18.852}]</notes><guidance name="Guidance Mode">None</guidance><error name="Error value">20.884944444444447</error></trial></trials></MIDI>