<MIDI midiNo="2022_08_17-12_35_01"><target_notes><notes name="Note List">[{"pitch": 42, "velocity": 80, "note_on_time": 0.004, "note_off_time": 0.261}, {"pitch": 42, "velocity": 80, "note_on_time": 0.262, "note_off_time": 0.509}, {"pitch": 42, "velocity": 80, "note_on_time": 0.51, "note_off_time": 0.758}, {"pitch": 42, "velocity": 80, "note_on_time": 0.758, "note_off_time": 1.006}, {"pitch": 60, "velocity": 80, "note_on_time": 1.006, "note_off_time": 1.256}, {"pitch": 42, "velocity": 80, "note_on_time": 1.006, "note_off_time": 1.256}, {"pitch": 42, "velocity": 80, "note_on_time": 1.257, "note_off_time": 1.507}, {"pitch": 64, "velocity": 80, "note_on_time": 1.506, "note_off_time": 1.754}, {"pitch": 42, "velocity": 80, "note_on_time": 1.507, "note_off_time": 1.755}, {"pitch": 64, "velocity": 80, "note_on_time": 1.754, "note_off_time": 2.004}, {"pitch": 42, "velocity": 80, "note_on_time": 1.755, "note_off_time": 2.004}, {"pitch": 64, "velocity": 80, "note_on_time": 2.004, "note_off_time": 2.254}, {"pitch": 42, "velocity": 80, "note_on_time": 2.005, "note_off_time": 2.254}, {"pitch": 62, "velocity": 80, "note_on_time": 2.254, "note_off_time": 2.504}, {"pitch": 42, "velocity": 80, "note_on_time": 2.254, "note_off_time": 2.504}, {"pitch": 64, "velocity": 80, "note_on_time": 2.504, "note_off_time": 2.754}, {"pitch": 42, "velocity": 80, "note_on_time": 2.504, "note_off_time": 2.754}, {"pitch": 65, "velocity": 80, "note_on_time": 2.754, "note_off_time": 3.003}, {"pitch": 42, "velocity": 80, "note_on_time": 2.754, "note_off_time": 3.004}, {"pitch": 67, "velocity": 80, "note_on_time": 3.003, "note_off_time": 3.255}, {"pitch": 42, "velocity": 80, "note_on_time": 3.004, "note_off_time": 3.255}, {"pitch": 60, "velocity": 80, "note_on_time": 3.255, "note_off_time": 3.505}, {"pitch": 42, "velocity": 80, "note_on_time": 3.255, "note_off_time": 3.505}, {"pitch": 60, "velocity": 80, "note_on_time": 3.505, "note_off_time": 3.752}, {"pitch": 42, "velocity": 80, "note_on_time": 3.505, "note_off_time": 3.753}, {"pitch": 60, "velocity": 80, "note_on_time": 3.752, "note_off_time": 4.004}, {"pitch": 42, "velocity": 80, "note_on_time": 3.753, "note_off_time": 4.004}, {"pitch": 67, "velocity": 80, "note_on_time": 4.004, "note_off_time": 4.255}, {"pitch": 42, "velocity": 80, "note_on_time": 4.005, "note_off_time": 4.255}, {"pitch": 42, "velocity": 80, "note_on_time": 4.255, "note_off_time": 4.504}, {"pitch": 42, "velocity": 80, "note_on_time": 4.505, "note_off_time": 4.754}, {"pitch": 42, "velocity": 80, "note_on_time": 4.754, "note_off_time": 5.002}, {"pitch": 42, "velocity": 80, "note_on_time": 5.002, "note_off_time": 5.252}, {"pitch": 65, "velocity": 80, "note_on_time": 5.002, "note_off_time": 5.502}, {"pitch": 42, "velocity": 80, "note_on_time": 5.252, "note_off_time": 5.502}, {"pitch": 42, "velocity": 80, "note_on_time": 5.502, "note_off_time": 5.751}, {"pitch": 62, "velocity": 80, "note_on_time": 5.751, "note_off_time": 6.0}, {"pitch": 42, "velocity": 80, "note_on_time": 5.752, "note_off_time": 6.001}, {"pitch": 42, "velocity": 80, "note_on_time": 6.001, "note_off_time": 6.25}, {"pitch": 67, "velocity": 80, "note_on_time": 6.0, "note_off_time": 6.5}, {"pitch": 42, "velocity": 80, "note_on_time": 6.25, "note_off_time": 6.501}, {"pitch": 60, "velocity": 80, "note_on_time": 6.5, "note_off_time": 6.75}, {"pitch": 42, "velocity": 80, "note_on_time": 6.501, "note_off_time": 6.751}, {"pitch": 60, "velocity": 80, "note_on_time": 6.75, "note_off_time": 6.999}, {"pitch": 42, "velocity": 80, "note_on_time": 6.751, "note_off_time": 6.999}, {"pitch": 67, "velocity": 80, "note_on_time": 6.999, "note_off_time": 7.25}, {"pitch": 42, "velocity": 80, "note_on_time": 7.0, "note_off_time": 7.25}, {"pitch": 42, "velocity": 80, "note_on_time": 7.25, "note_off_time": 7.498}, {"pitch": 42, "velocity": 80, "note_on_time": 7.498, "note_off_time": 7.75}, {"pitch": 42, "velocity": 80, "note_on_time": 7.75, "note_off_time": 8.0}, {"pitch": 42, "velocity": 80, "note_on_time": 8.0, "note_off_time": 8.25}, {"pitch": 67, "velocity": 80, "note_on_time": 8.25, "note_off_time": 8.499}, {"pitch": 42, "velocity": 80, "note_on_time": 8.25, "note_off_time": 8.5}, {"pitch": 67, "velocity": 80, "note_on_time": 8.499, "note_off_time": 8.75}, {"pitch": 42, "velocity": 80, "note_on_time": 8.5, "note_off_time": 8.75}, {"pitch": 67, "velocity": 80, "note_on_time": 8.75, "note_off_time": 8.999}, {"pitch": 42, "velocity": 80, "note_on_time": 8.751, "note_off_time": 8.999}]</notes><options name="Option List">((4, 4), [0.5, 0.25], 3, 8, &lt;NoteRangePerHand.C_TO_G: 6&gt;, &lt;NoteRangePerHand.ONE_NOTE: 2&gt;, False, True, True, '248')</options></target_notes><trials><trial trial_no="1" timestamp="2022_08_17-12_34_51"><notes name="Played Notes">[{"pitch": 60, "velocity": 74, "note_on_time": 1.053, "note_off_time": 1.264}, {"pitch": 64, "velocity": 71, "note_on_time": 1.589, "note_off_time": 1.671}, {"pitch": 64, "velocity": 67, "note_on_time": 1.856, "note_off_time": 1.932}, {"pitch": 64, "velocity": 68, "note_on_time": 2.11, "note_off_time": 2.194}, {"pitch": 62, "velocity": 55, "note_on_time": 2.355, "note_off_time": 2.416}, {"pitch": 64, "velocity": 72, "note_on_time": 2.599, "note_off_time": 2.682}, {"pitch": 65, "velocity": 66, "note_on_time": 2.847, "note_off_time": 2.921}, {"pitch": 67, "velocity": 61, "note_on_time": 3.099, "note_off_time": 3.166}, {"pitch": 60, "velocity": 58, "note_on_time": 3.358, "note_off_time": 3.429}, {"pitch": 60, "velocity": 61, "note_on_time": 3.623, "note_off_time": 3.689}, {"pitch": 60, "velocity": 65, "note_on_time": 3.855, "note_off_time": 3.929}, {"pitch": 67, "velocity": 73, "note_on_time": 4.102, "note_off_time": 4.2}, {"pitch": 65, "velocity": 75, "note_on_time": 5.01, "note_off_time": 5.232}, {"pitch": 62, "velocity": 71, "note_on_time": 5.547, "note_off_time": 5.616}, {"pitch": 67, "velocity": 68, "note_on_time": 5.973, "note_off_time": 6.296}, {"pitch": 60, "velocity": 69, "note_on_time": 6.513, "note_off_time": 6.634}, {"pitch": 60, "velocity": 64, "note_on_time": 6.769, "note_off_time": 6.856}, {"pitch": 67, "velocity": 65, "note_on_time": 7.026, "note_off_time": 7.149}, {"pitch": 67, "velocity": 77, "note_on_time": 8.189, "note_off_time": 8.285}, {"pitch": 67, "velocity": 77, "note_on_time": 8.451, "note_off_time": 8.535}, {"pitch": 67, "velocity": 79, "note_on_time": 8.71, "note_off_time": 8.798}]</notes><guidance name="Guidance Mode">None</guidance><error name="Error value">0.04262916666666688</error></trial><trial trial_no="2" timestamp="2022_08_17-12_35_13"><notes name="Played Notes">[{"pitch": 60, "velocity": 79, "note_on_time": 1.057, "note_off_time": 1.237}, {"pitch": 64, "velocity": 71, "note_on_time": 1.568, "note_off_time": 1.654}, {"pitch": 64, "velocity": 73, "note_on_time": 1.821, "note_off_time": 1.9}, {"pitch": 64, "velocity": 76, "note_on_time": 2.094, "note_off_time": 2.176}, {"pitch": 62, "velocity": 70, "note_on_time": 2.346, "note_off_time": 2.407}, {"pitch": 64, "velocity": 74, "note_on_time": 2.596, "note_off_time": 2.658}, {"pitch": 65, "velocity": 68, "note_on_time": 2.846, "note_off_time": 2.951}, {"pitch": 67, "velocity": 73, "note_on_time": 3.119, "note_off_time": 3.193}, {"pitch": 60, "velocity": 65, "note_on_time": 3.381, "note_off_time": 3.463}, {"pitch": 60, "velocity": 66, "note_on_time": 3.665, "note_off_time": 3.726}, {"pitch": 60, "velocity": 65, "note_on_time": 3.91, "note_off_time": 3.973}, {"pitch": 67, "velocity": 75, "note_on_time": 4.171, "note_off_time": 4.274}, {"pitch": 65, "velocity": 84, "note_on_time": 5.279, "note_off_time": 5.607}, {"pitch": 62, "velocity": 82, "note_on_time": 6.09, "note_off_time": 6.159}, {"pitch": 67, "velocity": 84, "note_on_time": 6.362, "note_off_time": 6.626}, {"pitch": 60, "velocity": 76, "note_on_time": 6.844, "note_off_time": 7.135}, {"pitch": 60, "velocity": 81, "note_on_time": 7.224, "note_off_time": 7.335}, {"pitch": 67, "velocity": 77, "note_on_time": 7.467, "note_off_time": 7.609}, {"pitch": 67, "velocity": 71, "note_on_time": 8.701, "note_off_time": 8.789}]</notes><guidance name="Guidance Mode">None</guidance><error name="Error value">0.17308305555555567</error></trial><trial trial_no="3" timestamp="2022_08_17-12_35_36"><notes name="Played Notes">[{"pitch": 60, "velocity": 79, "note_on_time": 1.039, "note_off_time": 1.304}, {"pitch": 64, "velocity": 66, "note_on_time": 1.565, "note_off_time": 1.658}, {"pitch": 64, "velocity": 73, "note_on_time": 1.823, "note_off_time": 1.899}, {"pitch": 64, "velocity": 69, "note_on_time": 2.09, "note_off_time": 2.181}, {"pitch": 62, "velocity": 63, "note_on_time": 2.33, "note_off_time": 2.399}, {"pitch": 64, "velocity": 68, "note_on_time": 2.581, "note_off_time": 2.674}, {"pitch": 65, "velocity": 63, "note_on_time": 2.834, "note_off_time": 2.903}, {"pitch": 67, "velocity": 69, "note_on_time": 3.091, "note_off_time": 3.17}, {"pitch": 60, "velocity": 71, "note_on_time": 3.353, "note_off_time": 3.437}, {"pitch": 60, "velocity": 64, "note_on_time": 3.637, "note_off_time": 3.703}, {"pitch": 60, "velocity": 65, "note_on_time": 3.886, "note_off_time": 3.953}, {"pitch": 67, "velocity": 79, "note_on_time": 4.127, "note_off_time": 4.298}, {"pitch": 65, "velocity": 71, "note_on_time": 5.254, "note_off_time": 5.594}, {"pitch": 62, "velocity": 69, "note_on_time": 5.974, "note_off_time": 6.05}, {"pitch": 67, "velocity": 76, "note_on_time": 6.265, "note_off_time": 6.656}, {"pitch": 60, "velocity": 75, "note_on_time": 6.786, "note_off_time": 6.896}, {"pitch": 60, "velocity": 71, "note_on_time": 7.033, "note_off_time": 7.114}, {"pitch": 67, "velocity": 69, "note_on_time": 7.293, "note_off_time": 7.547}, {"pitch": 67, "velocity": 78, "note_on_time": 8.443, "note_off_time": 8.539}, {"pitch": 67, "velocity": 64, "note_on_time": 8.683, "note_off_time": 8.758}]</notes><guidance name="Guidance Mode">None</guidance><error name="Error value">0.09824750000000002</error></trial></trials></MIDI>