<MIDI midiNo="2022_12_22-11_14_12"><target_notes><notes name="Note List">[{"pitch": 42, "velocity": 80, "note_on_time": 0.004, "note_off_time": 0.739}, {"pitch": 42, "velocity": 80, "note_on_time": 0.739, "note_off_time": 1.472}, {"pitch": 42, "velocity": 80, "note_on_time": 1.472, "note_off_time": 2.204}, {"pitch": 42, "velocity": 80, "note_on_time": 2.204, "note_off_time": 2.936}, {"pitch": 62, "velocity": 80, "note_on_time": 2.936, "note_off_time": 3.664}, {"pitch": 42, "velocity": 80, "note_on_time": 2.937, "note_off_time": 3.664}, {"pitch": 42, "velocity": 80, "note_on_time": 3.664, "note_off_time": 4.399}, {"pitch": 60, "velocity": 80, "note_on_time": 3.664, "note_off_time": 5.13}, {"pitch": 42, "velocity": 80, "note_on_time": 4.399, "note_off_time": 5.13}, {"pitch": 42, "velocity": 80, "note_on_time": 5.13, "note_off_time": 5.86}, {"pitch": 64, "velocity": 80, "note_on_time": 5.859, "note_off_time": 6.593}, {"pitch": 42, "velocity": 80, "note_on_time": 5.86, "note_off_time": 6.594}, {"pitch": 60, "velocity": 80, "note_on_time": 6.593, "note_off_time": 7.323}, {"pitch": 42, "velocity": 80, "note_on_time": 6.594, "note_off_time": 7.324}, {"pitch": 64, "velocity": 80, "note_on_time": 7.323, "note_off_time": 8.058}, {"pitch": 42, "velocity": 80, "note_on_time": 7.324, "note_off_time": 8.058}, {"pitch": 64, "velocity": 80, "note_on_time": 8.058, "note_off_time": 8.785}, {"pitch": 42, "velocity": 80, "note_on_time": 8.058, "note_off_time": 8.785}, {"pitch": 64, "velocity": 80, "note_on_time": 8.785, "note_off_time": 9.517}, {"pitch": 42, "velocity": 80, "note_on_time": 8.785, "note_off_time": 9.517}, {"pitch": 62, "velocity": 80, "note_on_time": 9.517, "note_off_time": 10.247}, {"pitch": 42, "velocity": 80, "note_on_time": 9.517, "note_off_time": 10.247}, {"pitch": 62, "velocity": 80, "note_on_time": 10.247, "note_off_time": 10.98}, {"pitch": 42, "velocity": 80, "note_on_time": 10.248, "note_off_time": 10.981}, {"pitch": 62, "velocity": 80, "note_on_time": 10.98, "note_off_time": 11.712}, {"pitch": 42, "velocity": 80, "note_on_time": 10.981, "note_off_time": 11.713}, {"pitch": 64, "velocity": 80, "note_on_time": 11.712, "note_off_time": 12.443}, {"pitch": 42, "velocity": 80, "note_on_time": 11.713, "note_off_time": 12.444}, {"pitch": 62, "velocity": 80, "note_on_time": 12.443, "note_off_time": 13.177}, {"pitch": 42, "velocity": 80, "note_on_time": 12.444, "note_off_time": 13.177}, {"pitch": 64, "velocity": 80, "note_on_time": 13.177, "note_off_time": 13.908}, {"pitch": 42, "velocity": 80, "note_on_time": 13.177, "note_off_time": 13.908}, {"pitch": 62, "velocity": 80, "note_on_time": 13.908, "note_off_time": 14.643}, {"pitch": 42, "velocity": 80, "note_on_time": 13.908, "note_off_time": 14.644}, {"pitch": 62, "velocity": 80, "note_on_time": 14.643, "note_off_time": 15.375}, {"pitch": 42, "velocity": 80, "note_on_time": 14.644, "note_off_time": 15.375}, {"pitch": 42, "velocity": 80, "note_on_time": 15.375, "note_off_time": 16.104}, {"pitch": 60, "velocity": 80, "note_on_time": 15.375, "note_off_time": 16.836}, {"pitch": 42, "velocity": 80, "note_on_time": 16.104, "note_off_time": 16.836}, {"pitch": 64, "velocity": 80, "note_on_time": 16.836, "note_off_time": 17.571}, {"pitch": 42, "velocity": 80, "note_on_time": 16.836, "note_off_time": 17.571}, {"pitch": 60, "velocity": 80, "note_on_time": 17.571, "note_off_time": 18.301}, {"pitch": 42, "velocity": 80, "note_on_time": 17.571, "note_off_time": 18.302}, {"pitch": 64, "velocity": 80, "note_on_time": 18.301, "note_off_time": 19.034}, {"pitch": 42, "velocity": 80, "note_on_time": 18.302, "note_off_time": 19.034}, {"pitch": 60, "velocity": 80, "note_on_time": 19.034, "note_off_time": 19.764}, {"pitch": 42, "velocity": 80, "note_on_time": 19.034, "note_off_time": 19.764}, {"pitch": 62, "velocity": 80, "note_on_time": 19.764, "note_off_time": 20.496}, {"pitch": 42, "velocity": 80, "note_on_time": 19.764, "note_off_time": 20.497}, {"pitch": 62, "velocity": 80, "note_on_time": 20.496, "note_off_time": 21.228}, {"pitch": 42, "velocity": 80, "note_on_time": 20.497, "note_off_time": 21.228}, {"pitch": 62, "velocity": 80, "note_on_time": 21.228, "note_off_time": 21.961}, {"pitch": 42, "velocity": 80, "note_on_time": 21.229, "note_off_time": 21.962}, {"pitch": 62, "velocity": 80, "note_on_time": 21.961, "note_off_time": 22.694}, {"pitch": 42, "velocity": 80, "note_on_time": 21.962, "note_off_time": 22.695}, {"pitch": 60, "velocity": 80, "note_on_time": 22.694, "note_off_time": 23.426}, {"pitch": 42, "velocity": 80, "note_on_time": 22.695, "note_off_time": 23.426}, {"pitch": 42, "velocity": 80, "note_on_time": 23.427, "note_off_time": 24.16}, {"pitch": 60, "velocity": 80, "note_on_time": 24.16, "note_off_time": 24.892}, {"pitch": 42, "velocity": 80, "note_on_time": 24.16, "note_off_time": 24.893}, {"pitch": 60, "velocity": 80, "note_on_time": 24.892, "note_off_time": 25.623}, {"pitch": 42, "velocity": 80, "note_on_time": 24.893, "note_off_time": 25.623}, {"pitch": 60, "velocity": 80, "note_on_time": 25.623, "note_off_time": 26.358}, {"pitch": 42, "velocity": 80, "note_on_time": 25.623, "note_off_time": 26.358}]</notes><options name="Option List">((4, 4), [0.5, 0.25], 3, 8, &lt;NoteRangePerHand.THREE_NOTES: 4&gt;, &lt;NoteRangePerHand.ONE_NOTE: 2&gt;, False, True, False, 83)</options></target_notes><trials><trial trial_no="1" timestamp="2022_12_22-11_13_44"><notes name="Played Notes">[{"pitch": 62, "velocity": 54, "note_on_time": 2.874, "note_off_time": 3.211}, {"pitch": 60, "velocity": 65, "note_on_time": 3.582, "note_off_time": 4.68}, {"pitch": 64, "velocity": 65, "note_on_time": 5.922, "note_off_time": 6.244}, {"pitch": 60, "velocity": 58, "note_on_time": 6.633, "note_off_time": 7.062}, {"pitch": 64, "velocity": 51, "note_on_time": 7.337, "note_off_time": 7.642}, {"pitch": 64, "velocity": 41, "note_on_time": 8.043, "note_off_time": 8.311}, {"pitch": 64, "velocity": 46, "note_on_time": 8.769, "note_off_time": 9.053}, {"pitch": 62, "velocity": 46, "note_on_time": 9.489, "note_off_time": 9.81}, {"pitch": 62, "velocity": 50, "note_on_time": 10.213, "note_off_time": 10.527}, {"pitch": 62, "velocity": 47, "note_on_time": 10.961, "note_off_time": 11.258}, {"pitch": 64, "velocity": 44, "note_on_time": 11.667, "note_off_time": 12.017}, {"pitch": 62, "velocity": 58, "note_on_time": 12.393, "note_off_time": 12.756}, {"pitch": 64, "velocity": 50, "note_on_time": 13.144, "note_off_time": 13.432}, {"pitch": 62, "velocity": 52, "note_on_time": 13.854, "note_off_time": 14.162}, {"pitch": 62, "velocity": 56, "note_on_time": 14.578, "note_off_time": 14.832}, {"pitch": 60, "velocity": 54, "note_on_time": 15.311, "note_off_time": 16.435}, {"pitch": 64, "velocity": 55, "note_on_time": 16.849, "note_off_time": 17.217}, {"pitch": 60, "velocity": 53, "note_on_time": 18.202, "note_off_time": 18.631}, {"pitch": 62, "velocity": 54, "note_on_time": 19.908, "note_off_time": 20.233}, {"pitch": 62, "velocity": 60, "note_on_time": 20.603, "note_off_time": 20.916}, {"pitch": 62, "velocity": 53, "note_on_time": 21.319, "note_off_time": 21.611}, {"pitch": 62, "velocity": 54, "note_on_time": 21.972, "note_off_time": 22.278}, {"pitch": 60, "velocity": 62, "note_on_time": 22.662, "note_off_time": 23.024}, {"pitch": 60, "velocity": 64, "note_on_time": 24.125, "note_off_time": 24.447}, {"pitch": 60, "velocity": 61, "note_on_time": 24.856, "note_off_time": 25.129}, {"pitch": 60, "velocity": 53, "note_on_time": 25.54, "note_off_time": 25.796}]</notes><guidance name="Guidance Mode">None</guidance><error name="Error value">0.26464000000000043</error></trial><trial trial_no="2" timestamp="2022_12_22-11_14_21"><notes name="Played Notes">[{"pitch": 62, "velocity": 54, "note_on_time": 2.916, "note_off_time": 3.277}, {"pitch": 60, "velocity": 61, "note_on_time": 3.648, "note_off_time": 4.504}, {"pitch": 64, "velocity": 60, "note_on_time": 5.858, "note_off_time": 6.181}, {"pitch": 60, "velocity": 59, "note_on_time": 6.611, "note_off_time": 7.019}, {"pitch": 64, "velocity": 60, "note_on_time": 7.296, "note_off_time": 7.61}, {"pitch": 64, "velocity": 62, "note_on_time": 7.995, "note_off_time": 8.262}, {"pitch": 64, "velocity": 54, "note_on_time": 8.754, "note_off_time": 9.044}, {"pitch": 62, "velocity": 49, "note_on_time": 9.481, "note_off_time": 9.825}, {"pitch": 62, "velocity": 47, "note_on_time": 10.258, "note_off_time": 10.568}, {"pitch": 62, "velocity": 52, "note_on_time": 11.032, "note_off_time": 11.313}, {"pitch": 64, "velocity": 53, "note_on_time": 11.727, "note_off_time": 12.072}, {"pitch": 62, "velocity": 59, "note_on_time": 12.421, "note_off_time": 12.786}, {"pitch": 64, "velocity": 53, "note_on_time": 13.124, "note_off_time": 13.488}, {"pitch": 62, "velocity": 59, "note_on_time": 13.812, "note_off_time": 14.172}, {"pitch": 62, "velocity": 54, "note_on_time": 14.595, "note_off_time": 14.928}, {"pitch": 60, "velocity": 59, "note_on_time": 15.302, "note_off_time": 16.333}, {"pitch": 64, "velocity": 57, "note_on_time": 16.807, "note_off_time": 17.093}, {"pitch": 60, "velocity": 64, "note_on_time": 17.504, "note_off_time": 17.945}, {"pitch": 64, "velocity": 59, "note_on_time": 18.275, "note_off_time": 18.632}, {"pitch": 60, "velocity": 57, "note_on_time": 19.004, "note_off_time": 19.446}, {"pitch": 62, "velocity": 52, "note_on_time": 19.741, "note_off_time": 20.086}, {"pitch": 62, "velocity": 48, "note_on_time": 20.494, "note_off_time": 20.803}, {"pitch": 62, "velocity": 48, "note_on_time": 21.221, "note_off_time": 21.538}, {"pitch": 62, "velocity": 58, "note_on_time": 21.966, "note_off_time": 22.246}, {"pitch": 60, "velocity": 67, "note_on_time": 22.703, "note_off_time": 22.984}, {"pitch": 60, "velocity": 59, "note_on_time": 24.064, "note_off_time": 24.4}, {"pitch": 60, "velocity": 54, "note_on_time": 24.757, "note_off_time": 25.138}, {"pitch": 60, "velocity": 61, "note_on_time": 25.502, "note_off_time": 25.81}]</notes><guidance name="Guidance Mode">None</guidance><error name="Error value">0.03343923999999964</error></trial></trials></MIDI>