<MIDI midiNo="2022_12_01-12_49_33"><target_notes><notes name="Note List">[{"pitch": 42, "velocity": 80, "note_on_time": 0.004, "note_off_time": 0.408}, {"pitch": 42, "velocity": 80, "note_on_time": 0.408, "note_off_time": 0.812}, {"pitch": 42, "velocity": 80, "note_on_time": 0.812, "note_off_time": 1.218}, {"pitch": 42, "velocity": 80, "note_on_time": 1.218, "note_off_time": 1.626}, {"pitch": 62, "velocity": 80, "note_on_time": 1.626, "note_off_time": 2.03}, {"pitch": 42, "velocity": 80, "note_on_time": 1.626, "note_off_time": 2.03}, {"pitch": 60, "velocity": 80, "note_on_time": 2.03, "note_off_time": 2.436}, {"pitch": 42, "velocity": 80, "note_on_time": 2.031, "note_off_time": 2.436}, {"pitch": 64, "velocity": 80, "note_on_time": 2.436, "note_off_time": 2.84}, {"pitch": 42, "velocity": 80, "note_on_time": 2.436, "note_off_time": 2.84}, {"pitch": 60, "velocity": 80, "note_on_time": 2.84, "note_off_time": 3.245}, {"pitch": 42, "velocity": 80, "note_on_time": 2.841, "note_off_time": 3.245}, {"pitch": 42, "velocity": 80, "note_on_time": 3.246, "note_off_time": 3.647}, {"pitch": 62, "velocity": 80, "note_on_time": 3.245, "note_off_time": 4.052}, {"pitch": 42, "velocity": 80, "note_on_time": 3.647, "note_off_time": 4.053}, {"pitch": 42, "velocity": 80, "note_on_time": 4.053, "note_off_time": 4.46}, {"pitch": 42, "velocity": 80, "note_on_time": 4.461, "note_off_time": 4.864}, {"pitch": 42, "velocity": 80, "note_on_time": 4.864, "note_off_time": 5.268}, {"pitch": 60, "velocity": 80, "note_on_time": 4.863, "note_off_time": 5.677}, {"pitch": 42, "velocity": 80, "note_on_time": 5.268, "note_off_time": 5.677}, {"pitch": 42, "velocity": 80, "note_on_time": 5.677, "note_off_time": 6.084}, {"pitch": 62, "velocity": 80, "note_on_time": 5.677, "note_off_time": 6.488}, {"pitch": 42, "velocity": 80, "note_on_time": 6.085, "note_off_time": 6.488}, {"pitch": 62, "velocity": 80, "note_on_time": 6.488, "note_off_time": 6.892}, {"pitch": 42, "velocity": 80, "note_on_time": 6.489, "note_off_time": 6.892}, {"pitch": 62, "velocity": 80, "note_on_time": 6.892, "note_off_time": 7.297}, {"pitch": 42, "velocity": 80, "note_on_time": 6.893, "note_off_time": 7.297}, {"pitch": 62, "velocity": 80, "note_on_time": 7.297, "note_off_time": 7.709}, {"pitch": 42, "velocity": 80, "note_on_time": 7.297, "note_off_time": 7.709}, {"pitch": 64, "velocity": 80, "note_on_time": 7.709, "note_off_time": 8.118}, {"pitch": 42, "velocity": 80, "note_on_time": 7.709, "note_off_time": 8.118}, {"pitch": 62, "velocity": 80, "note_on_time": 8.118, "note_off_time": 8.53}, {"pitch": 42, "velocity": 80, "note_on_time": 8.118, "note_off_time": 8.53}, {"pitch": 60, "velocity": 80, "note_on_time": 8.53, "note_off_time": 8.939}, {"pitch": 42, "velocity": 80, "note_on_time": 8.53, "note_off_time": 8.939}, {"pitch": 64, "velocity": 80, "note_on_time": 8.939, "note_off_time": 9.343}, {"pitch": 42, "velocity": 80, "note_on_time": 8.939, "note_off_time": 9.343}, {"pitch": 42, "velocity": 80, "note_on_time": 9.343, "note_off_time": 9.748}, {"pitch": 64, "velocity": 80, "note_on_time": 9.748, "note_off_time": 10.153}, {"pitch": 42, "velocity": 80, "note_on_time": 9.748, "note_off_time": 10.153}, {"pitch": 62, "velocity": 80, "note_on_time": 10.153, "note_off_time": 10.559}, {"pitch": 42, "velocity": 80, "note_on_time": 10.153, "note_off_time": 10.559}, {"pitch": 64, "velocity": 80, "note_on_time": 10.559, "note_off_time": 10.965}, {"pitch": 42, "velocity": 80, "note_on_time": 10.559, "note_off_time": 10.965}, {"pitch": 64, "velocity": 80, "note_on_time": 10.965, "note_off_time": 11.378}, {"pitch": 42, "velocity": 80, "note_on_time": 10.965, "note_off_time": 11.378}, {"pitch": 64, "velocity": 80, "note_on_time": 11.378, "note_off_time": 11.791}, {"pitch": 42, "velocity": 80, "note_on_time": 11.378, "note_off_time": 11.791}, {"pitch": 64, "velocity": 80, "note_on_time": 11.791, "note_off_time": 12.194}, {"pitch": 42, "velocity": 80, "note_on_time": 11.791, "note_off_time": 12.194}, {"pitch": 62, "velocity": 80, "note_on_time": 12.194, "note_off_time": 12.597}, {"pitch": 42, "velocity": 80, "note_on_time": 12.194, "note_off_time": 12.598}, {"pitch": 42, "velocity": 80, "note_on_time": 12.598, "note_off_time": 13.004}, {"pitch": 42, "velocity": 80, "note_on_time": 13.005, "note_off_time": 13.41}, {"pitch": 62, "velocity": 80, "note_on_time": 13.41, "note_off_time": 13.815}, {"pitch": 42, "velocity": 80, "note_on_time": 13.411, "note_off_time": 13.816}, {"pitch": 62, "velocity": 80, "note_on_time": 13.815, "note_off_time": 14.22}, {"pitch": 42, "velocity": 80, "note_on_time": 13.816, "note_off_time": 14.22}, {"pitch": 62, "velocity": 80, "note_on_time": 14.22, "note_off_time": 14.624}, {"pitch": 42, "velocity": 80, "note_on_time": 14.22, "note_off_time": 14.624}]</notes><options name="Option List">((4, 4), [0.5, 0.25], 3, 8, &lt;NoteRangePerHand.THREE_NOTES: 4&gt;, &lt;NoteRangePerHand.ONE_NOTE: 2&gt;, False, True, False, '150')</options></target_notes><trials><trial trial_no="1" timestamp="2022_12_01-12_49_17"><notes name="Played Notes">[{"pitch": 62, "velocity": 73, "note_on_time": 1.595, "note_off_time": 1.838}, {"pitch": 60, "velocity": 77, "note_on_time": 1.985, "note_off_time": 2.215}, {"pitch": 64, "velocity": 79, "note_on_time": 2.352, "note_off_time": 2.6}, {"pitch": 60, "velocity": 78, "note_on_time": 2.772, "note_off_time": 2.975}, {"pitch": 62, "velocity": 77, "note_on_time": 3.157, "note_off_time": 3.879}, {"pitch": 60, "velocity": 80, "note_on_time": 4.475, "note_off_time": 5.097}, {"pitch": 62, "velocity": 83, "note_on_time": 5.628, "note_off_time": 6.259}, {"pitch": 62, "velocity": 79, "note_on_time": 6.829, "note_off_time": 7.02}, {"pitch": 62, "velocity": 75, "note_on_time": 7.234, "note_off_time": 7.444}, {"pitch": 62, "velocity": 72, "note_on_time": 7.674, "note_off_time": 7.879}, {"pitch": 64, "velocity": 72, "note_on_time": 8.095, "note_off_time": 8.332}, {"pitch": 62, "velocity": 76, "note_on_time": 8.512, "note_off_time": 8.719}, {"pitch": 60, "velocity": 74, "note_on_time": 8.909, "note_off_time": 9.145}, {"pitch": 64, "velocity": 73, "note_on_time": 9.318, "note_off_time": 9.683}, {"pitch": 62, "velocity": 54, "note_on_time": 10.659, "note_off_time": 10.796}, {"pitch": 64, "velocity": 21, "note_on_time": 10.782, "note_off_time": 11.034}, {"pitch": 62, "velocity": 79, "note_on_time": 11.121, "note_off_time": 11.298}, {"pitch": 64, "velocity": 77, "note_on_time": 11.512, "note_off_time": 11.689}, {"pitch": 64, "velocity": 83, "note_on_time": 11.866, "note_off_time": 12.11}, {"pitch": 64, "velocity": 79, "note_on_time": 12.27, "note_off_time": 12.476}, {"pitch": 64, "velocity": 73, "note_on_time": 12.643, "note_off_time": 12.867}, {"pitch": 62, "velocity": 73, "note_on_time": 13.006, "note_off_time": 13.481}, {"pitch": 62, "velocity": 79, "note_on_time": 14.308, "note_off_time": 14.507}]</notes><guidance name="Guidance Mode">None</guidance><error name="Error value">0.37009523809523814</error></trial><trial trial_no="2" timestamp="2022_12_01-12_49_43"><notes name="Played Notes">[{"pitch": 62, "velocity": 78, "note_on_time": 1.575, "note_off_time": 1.857}, {"pitch": 60, "velocity": 84, "note_on_time": 2.032, "note_off_time": 2.269}, {"pitch": 64, "velocity": 80, "note_on_time": 2.434, "note_off_time": 2.697}, {"pitch": 60, "velocity": 79, "note_on_time": 2.851, "note_off_time": 3.048}, {"pitch": 62, "velocity": 77, "note_on_time": 3.249, "note_off_time": 3.955}, {"pitch": 60, "velocity": 79, "note_on_time": 5.001, "note_off_time": 5.801}, {"pitch": 62, "velocity": 80, "note_on_time": 6.271, "note_off_time": 7.087}, {"pitch": 62, "velocity": 79, "note_on_time": 7.342, "note_off_time": 7.54}, {"pitch": 62, "velocity": 83, "note_on_time": 7.734, "note_off_time": 7.966}, {"pitch": 62, "velocity": 73, "note_on_time": 8.133, "note_off_time": 8.365}, {"pitch": 64, "velocity": 81, "note_on_time": 8.507, "note_off_time": 8.762}, {"pitch": 62, "velocity": 76, "note_on_time": 8.901, "note_off_time": 9.161}, {"pitch": 60, "velocity": 77, "note_on_time": 9.288, "note_off_time": 9.53}, {"pitch": 64, "velocity": 76, "note_on_time": 9.706, "note_off_time": 10.227}, {"pitch": 64, "velocity": 78, "note_on_time": 10.788, "note_off_time": 11.072}, {"pitch": 62, "velocity": 72, "note_on_time": 11.223, "note_off_time": 11.521}, {"pitch": 64, "velocity": 70, "note_on_time": 11.635, "note_off_time": 11.824}, {"pitch": 64, "velocity": 68, "note_on_time": 12.04, "note_off_time": 12.285}, {"pitch": 64, "velocity": 75, "note_on_time": 12.481, "note_off_time": 12.745}, {"pitch": 64, "velocity": 72, "note_on_time": 12.915, "note_off_time": 13.187}, {"pitch": 62, "velocity": 77, "note_on_time": 13.338, "note_off_time": 13.84}]</notes><guidance name="Guidance Mode">None</guidance><error name="Error value">0.2702380952380951</error></trial><trial trial_no="3" timestamp="2022_12_01-12_50_13"><notes name="Played Notes">[{"pitch": 62, "velocity": 78, "note_on_time": 1.578, "note_off_time": 1.794}, {"pitch": 60, "velocity": 83, "note_on_time": 1.971, "note_off_time": 2.212}, {"pitch": 64, "velocity": 86, "note_on_time": 2.457, "note_off_time": 2.657}, {"pitch": 62, "velocity": 74, "note_on_time": 2.818, "note_off_time": 3.06}, {"pitch": 60, "velocity": 77, "note_on_time": 3.084, "note_off_time": 3.242}, {"pitch": 62, "velocity": 79, "note_on_time": 3.389, "note_off_time": 4.316}, {"pitch": 60, "velocity": 87, "note_on_time": 5.025, "note_off_time": 5.726}, {"pitch": 62, "velocity": 79, "note_on_time": 6.267, "note_off_time": 6.99}, {"pitch": 62, "velocity": 80, "note_on_time": 7.17, "note_off_time": 7.417}, {"pitch": 62, "velocity": 86, "note_on_time": 7.577, "note_off_time": 7.793}, {"pitch": 62, "velocity": 82, "note_on_time": 7.957, "note_off_time": 8.252}, {"pitch": 64, "velocity": 76, "note_on_time": 8.373, "note_off_time": 8.614}, {"pitch": 62, "velocity": 74, "note_on_time": 8.758, "note_off_time": 9.016}, {"pitch": 60, "velocity": 81, "note_on_time": 9.143, "note_off_time": 9.398}, {"pitch": 64, "velocity": 80, "note_on_time": 9.534, "note_off_time": 10.268}, {"pitch": 64, "velocity": 80, "note_on_time": 10.784, "note_off_time": 11.043}, {"pitch": 60, "velocity": 63, "note_on_time": 11.203, "note_off_time": 11.288}, {"pitch": 62, "velocity": 82, "note_on_time": 11.404, "note_off_time": 11.679}, {"pitch": 60, "velocity": 74, "note_on_time": 11.839, "note_off_time": 12.015}, {"pitch": 64, "velocity": 72, "note_on_time": 12.159, "note_off_time": 12.283}, {"pitch": 64, "velocity": 71, "note_on_time": 12.457, "note_off_time": 12.686}, {"pitch": 64, "velocity": 78, "note_on_time": 12.848, "note_off_time": 13.083}, {"pitch": 64, "velocity": 78, "note_on_time": 13.254, "note_off_time": 13.46}, {"pitch": 62, "velocity": 86, "note_on_time": 13.593, "note_off_time": 14.099}]</notes><guidance name="Guidance Mode">None</guidance><error name="Error value">0.8886666666666677</error></trial><trial trial_no="4" timestamp="2022_12_01-12_50_47"><notes name="Played Notes">[{"pitch": 62, "velocity": 73, "note_on_time": 1.576, "note_off_time": 1.839}, {"pitch": 60, "velocity": 73, "note_on_time": 2.035, "note_off_time": 2.301}, {"pitch": 64, "velocity": 80, "note_on_time": 2.442, "note_off_time": 2.731}, {"pitch": 60, "velocity": 77, "note_on_time": 2.859, "note_off_time": 3.1}, {"pitch": 62, "velocity": 77, "note_on_time": 3.264, "note_off_time": 3.954}, {"pitch": 60, "velocity": 89, "note_on_time": 4.696, "note_off_time": 5.604}, {"pitch": 62, "velocity": 81, "note_on_time": 5.933, "note_off_time": 6.877}, {"pitch": 62, "velocity": 75, "note_on_time": 7.047, "note_off_time": 7.289}, {"pitch": 62, "velocity": 77, "note_on_time": 7.462, "note_off_time": 7.7}, {"pitch": 62, "velocity": 84, "note_on_time": 7.856, "note_off_time": 8.147}, {"pitch": 64, "velocity": 74, "note_on_time": 8.255, "note_off_time": 8.508}, {"pitch": 62, "velocity": 80, "note_on_time": 8.653, "note_off_time": 8.91}, {"pitch": 60, "velocity": 73, "note_on_time": 9.046, "note_off_time": 9.288}, {"pitch": 64, "velocity": 75, "note_on_time": 9.445, "note_off_time": 10.106}, {"pitch": 64, "velocity": 76, "note_on_time": 10.469, "note_off_time": 10.745}, {"pitch": 62, "velocity": 76, "note_on_time": 10.859, "note_off_time": 11.129}, {"pitch": 64, "velocity": 74, "note_on_time": 11.245, "note_off_time": 11.46}, {"pitch": 64, "velocity": 75, "note_on_time": 11.632, "note_off_time": 11.843}, {"pitch": 64, "velocity": 69, "note_on_time": 12.011, "note_off_time": 12.25}, {"pitch": 64, "velocity": 75, "note_on_time": 12.434, "note_off_time": 12.645}, {"pitch": 62, "velocity": 84, "note_on_time": 12.819, "note_off_time": 13.434}, {"pitch": 62, "velocity": 80, "note_on_time": 14.057, "note_off_time": 14.342}]</notes><guidance name="Guidance Mode">None</guidance><error name="Error value">0.23723809523809525</error></trial><trial trial_no="5" timestamp="2022_12_01-12_51_15"><notes name="Played Notes">[{"pitch": 62, "velocity": 76, "note_on_time": 1.615, "note_off_time": 1.858}, {"pitch": 60, "velocity": 78, "note_on_time": 1.995, "note_off_time": 2.266}, {"pitch": 64, "velocity": 80, "note_on_time": 2.403, "note_off_time": 2.708}, {"pitch": 60, "velocity": 81, "note_on_time": 2.814, "note_off_time": 3.066}, {"pitch": 62, "velocity": 79, "note_on_time": 3.207, "note_off_time": 4.095}, {"pitch": 62, "velocity": 57, "note_on_time": 4.83, "note_off_time": 4.928}, {"pitch": 60, "velocity": 85, "note_on_time": 4.882, "note_off_time": 5.749}, {"pitch": 62, "velocity": 84, "note_on_time": 6.147, "note_off_time": 7.032}, {"pitch": 62, "velocity": 79, "note_on_time": 7.274, "note_off_time": 7.504}, {"pitch": 62, "velocity": 76, "note_on_time": 7.686, "note_off_time": 7.909}, {"pitch": 62, "velocity": 84, "note_on_time": 8.064, "note_off_time": 8.345}, {"pitch": 64, "velocity": 73, "note_on_time": 8.469, "note_off_time": 8.732}, {"pitch": 62, "velocity": 79, "note_on_time": 8.897, "note_off_time": 9.155}, {"pitch": 60, "velocity": 78, "note_on_time": 9.29, "note_off_time": 9.537}, {"pitch": 64, "velocity": 75, "note_on_time": 9.691, "note_off_time": 10.293}, {"pitch": 64, "velocity": 73, "note_on_time": 10.827, "note_off_time": 11.062}, {"pitch": 62, "velocity": 77, "note_on_time": 11.22, "note_off_time": 11.497}, {"pitch": 64, "velocity": 75, "note_on_time": 11.633, "note_off_time": 11.838}, {"pitch": 64, "velocity": 76, "note_on_time": 12.01, "note_off_time": 12.264}, {"pitch": 64, "velocity": 74, "note_on_time": 12.429, "note_off_time": 12.61}, {"pitch": 64, "velocity": 77, "note_on_time": 12.812, "note_off_time": 13.0}, {"pitch": 62, "velocity": 77, "note_on_time": 13.185, "note_off_time": 13.842}, {"pitch": 62, "velocity": 75, "note_on_time": 14.156, "note_off_time": 14.43}]</notes><guidance name="Guidance Mode">None</guidance><error name="Error value">2.5710952380952383</error></trial></trials></MIDI>