<MIDI midiNo="2022_09_12-11_54_53"><target_notes><notes name="Note List">[{"pitch": 42, "velocity": 80, "note_on_time": 0.003, "note_off_time": 0.295}, {"pitch": 42, "velocity": 80, "note_on_time": 0.295, "note_off_time": 0.576}, {"pitch": 42, "velocity": 80, "note_on_time": 0.576, "note_off_time": 0.856}, {"pitch": 42, "velocity": 80, "note_on_time": 0.856, "note_off_time": 1.151}, {"pitch": 42, "velocity": 80, "note_on_time": 1.151, "note_off_time": 1.432}, {"pitch": 62, "velocity": 80, "note_on_time": 1.151, "note_off_time": 1.714}, {"pitch": 42, "velocity": 80, "note_on_time": 1.432, "note_off_time": 1.714}, {"pitch": 62, "velocity": 80, "note_on_time": 1.714, "note_off_time": 2.009}, {"pitch": 42, "velocity": 80, "note_on_time": 1.714, "note_off_time": 2.009}, {"pitch": 42, "velocity": 80, "note_on_time": 2.009, "note_off_time": 2.303}, {"pitch": 60, "velocity": 80, "note_on_time": 2.303, "note_off_time": 2.584}, {"pitch": 42, "velocity": 80, "note_on_time": 2.303, "note_off_time": 2.584}, {"pitch": 62, "velocity": 80, "note_on_time": 2.584, "note_off_time": 2.879}, {"pitch": 42, "velocity": 80, "note_on_time": 2.584, "note_off_time": 2.879}, {"pitch": 60, "velocity": 80, "note_on_time": 2.879, "note_off_time": 3.175}, {"pitch": 42, "velocity": 80, "note_on_time": 2.879, "note_off_time": 3.175}, {"pitch": 64, "velocity": 80, "note_on_time": 3.175, "note_off_time": 3.46}, {"pitch": 42, "velocity": 80, "note_on_time": 3.175, "note_off_time": 3.46}, {"pitch": 62, "velocity": 80, "note_on_time": 3.46, "note_off_time": 3.742}, {"pitch": 42, "velocity": 80, "note_on_time": 3.46, "note_off_time": 3.742}, {"pitch": 60, "velocity": 80, "note_on_time": 3.742, "note_off_time": 4.023}, {"pitch": 42, "velocity": 80, "note_on_time": 3.742, "note_off_time": 4.023}, {"pitch": 64, "velocity": 80, "note_on_time": 4.023, "note_off_time": 4.318}, {"pitch": 42, "velocity": 80, "note_on_time": 4.023, "note_off_time": 4.318}, {"pitch": 60, "velocity": 80, "note_on_time": 4.318, "note_off_time": 4.601}, {"pitch": 42, "velocity": 80, "note_on_time": 4.318, "note_off_time": 4.601}, {"pitch": 64, "velocity": 80, "note_on_time": 4.601, "note_off_time": 4.882}, {"pitch": 42, "velocity": 80, "note_on_time": 4.601, "note_off_time": 4.882}, {"pitch": 64, "velocity": 80, "note_on_time": 4.882, "note_off_time": 5.177}, {"pitch": 42, "velocity": 80, "note_on_time": 4.882, "note_off_time": 5.177}, {"pitch": 60, "velocity": 80, "note_on_time": 5.177, "note_off_time": 5.472}, {"pitch": 42, "velocity": 80, "note_on_time": 5.177, "note_off_time": 5.472}, {"pitch": 62, "velocity": 80, "note_on_time": 5.472, "note_off_time": 5.754}, {"pitch": 42, "velocity": 80, "note_on_time": 5.472, "note_off_time": 5.754}, {"pitch": 42, "velocity": 80, "note_on_time": 5.754, "note_off_time": 6.035}, {"pitch": 62, "velocity": 80, "note_on_time": 5.754, "note_off_time": 6.329}, {"pitch": 42, "velocity": 80, "note_on_time": 6.035, "note_off_time": 6.329}, {"pitch": 42, "velocity": 80, "note_on_time": 6.329, "note_off_time": 6.624}, {"pitch": 60, "velocity": 80, "note_on_time": 6.624, "note_off_time": 6.918}, {"pitch": 42, "velocity": 80, "note_on_time": 6.624, "note_off_time": 6.918}, {"pitch": 42, "velocity": 80, "note_on_time": 6.918, "note_off_time": 7.213}, {"pitch": 60, "velocity": 80, "note_on_time": 6.918, "note_off_time": 7.508}, {"pitch": 42, "velocity": 80, "note_on_time": 7.213, "note_off_time": 7.508}, {"pitch": 42, "velocity": 80, "note_on_time": 7.508, "note_off_time": 7.803}, {"pitch": 42, "velocity": 80, "note_on_time": 7.803, "note_off_time": 8.085}, {"pitch": 62, "velocity": 80, "note_on_time": 8.085, "note_off_time": 8.366}, {"pitch": 42, "velocity": 80, "note_on_time": 8.085, "note_off_time": 8.366}, {"pitch": 62, "velocity": 80, "note_on_time": 8.366, "note_off_time": 8.66}, {"pitch": 42, "velocity": 80, "note_on_time": 8.366, "note_off_time": 8.66}, {"pitch": 42, "velocity": 80, "note_on_time": 8.66, "note_off_time": 8.943}, {"pitch": 64, "velocity": 80, "note_on_time": 8.943, "note_off_time": 9.238}, {"pitch": 42, "velocity": 80, "note_on_time": 8.943, "note_off_time": 9.238}, {"pitch": 42, "velocity": 80, "note_on_time": 9.238, "note_off_time": 9.518}, {"pitch": 64, "velocity": 80, "note_on_time": 9.518, "note_off_time": 9.814}, {"pitch": 42, "velocity": 80, "note_on_time": 9.518, "note_off_time": 9.814}, {"pitch": 64, "velocity": 80, "note_on_time": 9.814, "note_off_time": 10.109}, {"pitch": 42, "velocity": 80, "note_on_time": 9.814, "note_off_time": 10.109}, {"pitch": 64, "velocity": 80, "note_on_time": 10.109, "note_off_time": 10.404}, {"pitch": 42, "velocity": 80, "note_on_time": 10.109, "note_off_time": 10.404}]</notes><options name="Option List">((4, 4), [0.5, 0.25], 3, 8, &lt;NoteRangePerHand.THREE_NOTES: 4&gt;, &lt;NoteRangePerHand.ONE_NOTE: 2&gt;, False, True, True, '215')</options></target_notes><trials><trial trial_no="1" timestamp="2022_09_12-11_54_41"><notes name="Played Notes">[{"pitch": 62, "velocity": 79, "note_on_time": 2.358, "note_off_time": 2.749}, {"pitch": 62, "velocity": 84, "note_on_time": 3.072, "note_off_time": 3.185}, {"pitch": 60, "velocity": 83, "note_on_time": 3.974, "note_off_time": 4.121}, {"pitch": 62, "velocity": 81, "note_on_time": 4.281, "note_off_time": 4.424}, {"pitch": 60, "velocity": 82, "note_on_time": 4.604, "note_off_time": 4.741}, {"pitch": 64, "velocity": 75, "note_on_time": 4.879, "note_off_time": 5.03}, {"pitch": 62, "velocity": 76, "note_on_time": 5.222, "note_off_time": 5.354}, {"pitch": 60, "velocity": 84, "note_on_time": 5.525, "note_off_time": 5.667}, {"pitch": 62, "velocity": 69, "note_on_time": 6.252, "note_off_time": 6.402}, {"pitch": 60, "velocity": 92, "note_on_time": 7.482, "note_off_time": 7.631}, {"pitch": 64, "velocity": 84, "note_on_time": 8.12, "note_off_time": 8.25}, {"pitch": 64, "velocity": 86, "note_on_time": 8.451, "note_off_time": 8.591}, {"pitch": 60, "velocity": 92, "note_on_time": 8.845, "note_off_time": 8.987}, {"pitch": 62, "velocity": 88, "note_on_time": 9.259, "note_off_time": 9.375}, {"pitch": 62, "velocity": 86, "note_on_time": 9.654, "note_off_time": 9.976}]</notes><guidance name="Guidance Mode">None</guidance><error name="Error value">0.9044172499999998</error></trial><trial trial_no="2" timestamp="2022_09_12-11_55_11"><notes name="Played Notes">[{"pitch": 62, "velocity": 91, "note_on_time": 1.963, "note_off_time": 2.318}, {"pitch": 62, "velocity": 85, "note_on_time": 2.659, "note_off_time": 2.779}, {"pitch": 60, "velocity": 90, "note_on_time": 3.432, "note_off_time": 3.583}, {"pitch": 62, "velocity": 86, "note_on_time": 3.74, "note_off_time": 3.878}, {"pitch": 60, "velocity": 88, "note_on_time": 4.015, "note_off_time": 4.165}, {"pitch": 64, "velocity": 82, "note_on_time": 4.292, "note_off_time": 4.441}, {"pitch": 62, "velocity": 78, "note_on_time": 4.639, "note_off_time": 4.765}, {"pitch": 60, "velocity": 91, "note_on_time": 4.916, "note_off_time": 5.067}, {"pitch": 64, "velocity": 60, "note_on_time": 5.371, "note_off_time": 5.502}, {"pitch": 60, "velocity": 88, "note_on_time": 5.865, "note_off_time": 6.016}, {"pitch": 62, "velocity": 84, "note_on_time": 6.249, "note_off_time": 6.352}, {"pitch": 64, "velocity": 79, "note_on_time": 6.823, "note_off_time": 6.932}, {"pitch": 60, "velocity": 95, "note_on_time": 7.644, "note_off_time": 7.785}, {"pitch": 62, "velocity": 85, "note_on_time": 7.979, "note_off_time": 8.098}, {"pitch": 62, "velocity": 87, "note_on_time": 8.312, "note_off_time": 8.705}, {"pitch": 60, "velocity": 84, "note_on_time": 9.377, "note_off_time": 9.51}, {"pitch": 60, "velocity": 98, "note_on_time": 9.679, "note_off_time": 9.985}]</notes><guidance name="Guidance Mode">None</guidance><error name="Error value">0.6775000000000002</error></trial><trial trial_no="3" timestamp="2022_09_12-11_55_48"><notes name="Played Notes">[{"pitch": 62, "velocity": 72, "note_on_time": 1.296, "note_off_time": 1.73}, {"pitch": 62, "velocity": 85, "note_on_time": 1.892, "note_off_time": 2.124}, {"pitch": 60, "velocity": 82, "note_on_time": 2.957, "note_off_time": 3.106}, {"pitch": 62, "velocity": 87, "note_on_time": 3.24, "note_off_time": 3.375}, {"pitch": 60, "velocity": 82, "note_on_time": 3.502, "note_off_time": 3.646}, {"pitch": 64, "velocity": 84, "note_on_time": 3.783, "note_off_time": 3.936}, {"pitch": 62, "velocity": 77, "note_on_time": 4.116, "note_off_time": 4.242}, {"pitch": 60, "velocity": 90, "note_on_time": 4.409, "note_off_time": 4.54}, {"pitch": 64, "velocity": 84, "note_on_time": 4.731, "note_off_time": 4.859}, {"pitch": 60, "velocity": 78, "note_on_time": 5.135, "note_off_time": 5.27}, {"pitch": 62, "velocity": 83, "note_on_time": 5.611, "note_off_time": 5.725}, {"pitch": 64, "velocity": 79, "note_on_time": 5.907, "note_off_time": 6.013}, {"pitch": 64, "velocity": 79, "note_on_time": 6.153, "note_off_time": 6.267}, {"pitch": 60, "velocity": 85, "note_on_time": 7.153, "note_off_time": 7.297}, {"pitch": 62, "velocity": 77, "note_on_time": 7.481, "note_off_time": 7.587}, {"pitch": 62, "velocity": 86, "note_on_time": 7.789, "note_off_time": 8.12}, {"pitch": 60, "velocity": 87, "note_on_time": 8.842, "note_off_time": 8.985}, {"pitch": 60, "velocity": 88, "note_on_time": 9.085, "note_off_time": 9.461}, {"pitch": 62, "velocity": 81, "note_on_time": 10.167, "note_off_time": 10.263}]</notes><guidance name="Guidance Mode">None</guidance><error name="Error value">0.8735034499999998</error></trial><trial trial_no="4" timestamp="2022_09_12-11_56_11"><notes name="Played Notes">[{"pitch": 62, "velocity": 84, "note_on_time": 1.449, "note_off_time": 1.842}, {"pitch": 62, "velocity": 90, "note_on_time": 2.086, "note_off_time": 2.217}, {"pitch": 60, "velocity": 91, "note_on_time": 3.266, "note_off_time": 3.402}, {"pitch": 62, "velocity": 87, "note_on_time": 3.552, "note_off_time": 3.678}, {"pitch": 60, "velocity": 88, "note_on_time": 3.81, "note_off_time": 3.949}, {"pitch": 64, "velocity": 82, "note_on_time": 4.075, "note_off_time": 4.217}, {"pitch": 62, "velocity": 76, "note_on_time": 4.645, "note_off_time": 4.757}, {"pitch": 60, "velocity": 94, "note_on_time": 4.954, "note_off_time": 5.089}, {"pitch": 64, "velocity": 75, "note_on_time": 5.574, "note_off_time": 5.705}, {"pitch": 60, "velocity": 82, "note_on_time": 5.947, "note_off_time": 6.098}, {"pitch": 64, "velocity": 88, "note_on_time": 6.348, "note_off_time": 6.451}, {"pitch": 64, "velocity": 90, "note_on_time": 6.643, "note_off_time": 6.787}, {"pitch": 60, "velocity": 91, "note_on_time": 6.992, "note_off_time": 7.155}, {"pitch": 62, "velocity": 79, "note_on_time": 7.382, "note_off_time": 7.501}, {"pitch": 62, "velocity": 87, "note_on_time": 7.722, "note_off_time": 7.987}, {"pitch": 60, "velocity": 91, "note_on_time": 8.746, "note_off_time": 8.873}, {"pitch": 60, "velocity": 92, "note_on_time": 9.026, "note_off_time": 9.451}]</notes><guidance name="Guidance Mode">None</guidance><error name="Error value">0.8376465499999998</error></trial><trial trial_no="5" timestamp="2022_09_12-11_56_37"><notes name="Played Notes">[{"pitch": 62, "velocity": 86, "note_on_time": 1.427, "note_off_time": 1.785}, {"pitch": 62, "velocity": 79, "note_on_time": 2.358, "note_off_time": 2.497}, {"pitch": 60, "velocity": 82, "note_on_time": 2.997, "note_off_time": 3.145}, {"pitch": 62, "velocity": 80, "note_on_time": 3.298, "note_off_time": 3.438}, {"pitch": 60, "velocity": 85, "note_on_time": 3.565, "note_off_time": 3.713}, {"pitch": 64, "velocity": 71, "note_on_time": 3.835, "note_off_time": 3.993}, {"pitch": 62, "velocity": 68, "note_on_time": 4.176, "note_off_time": 4.295}, {"pitch": 60, "velocity": 85, "note_on_time": 4.473, "note_off_time": 4.629}, {"pitch": 64, "velocity": 78, "note_on_time": 4.783, "note_off_time": 4.938}, {"pitch": 60, "velocity": 84, "note_on_time": 5.093, "note_off_time": 5.258}, {"pitch": 64, "velocity": 80, "note_on_time": 5.658, "note_off_time": 5.777}, {"pitch": 64, "velocity": 79, "note_on_time": 5.965, "note_off_time": 6.088}, {"pitch": 60, "velocity": 82, "note_on_time": 6.273, "note_off_time": 6.422}, {"pitch": 62, "velocity": 84, "note_on_time": 6.777, "note_off_time": 6.904}, {"pitch": 62, "velocity": 82, "note_on_time": 7.178, "note_off_time": 7.5}, {"pitch": 60, "velocity": 86, "note_on_time": 8.228, "note_off_time": 8.359}, {"pitch": 60, "velocity": 95, "note_on_time": 8.533, "note_off_time": 8.946}, {"pitch": 62, "velocity": 79, "note_on_time": 9.625, "note_off_time": 9.728}, {"pitch": 62, "velocity": 81, "note_on_time": 9.903, "note_off_time": 10.029}]</notes><guidance name="Guidance Mode">None</guidance><error name="Error value">0.6936793000000001</error></trial><trial trial_no="6" timestamp="2022_09_12-11_57_22"><notes name="Played Notes">[{"pitch": 62, "velocity": 79, "note_on_time": 1.303, "note_off_time": 1.614}, {"pitch": 62, "velocity": 83, "note_on_time": 1.785, "note_off_time": 1.981}, {"pitch": 60, "velocity": 87, "note_on_time": 2.365, "note_off_time": 2.509}, {"pitch": 62, "velocity": 88, "note_on_time": 2.657, "note_off_time": 2.789}, {"pitch": 64, "velocity": 41, "note_on_time": 3.413, "note_off_time": 3.57}, {"pitch": 60, "velocity": 89, "note_on_time": 3.881, "note_off_time": 4.035}, {"pitch": 62, "velocity": 78, "note_on_time": 4.763, "note_off_time": 4.884}, {"pitch": 60, "velocity": 85, "note_on_time": 5.038, "note_off_time": 5.162}, {"pitch": 64, "velocity": 80, "note_on_time": 5.346, "note_off_time": 5.489}, {"pitch": 60, "velocity": 74, "note_on_time": 5.999, "note_off_time": 6.133}, {"pitch": 64, "velocity": 73, "note_on_time": 6.611, "note_off_time": 6.733}, {"pitch": 64, "velocity": 76, "note_on_time": 6.917, "note_off_time": 7.075}, {"pitch": 60, "velocity": 86, "note_on_time": 7.377, "note_off_time": 7.521}, {"pitch": 62, "velocity": 77, "note_on_time": 7.695, "note_off_time": 7.801}, {"pitch": 62, "velocity": 83, "note_on_time": 8.002, "note_off_time": 8.292}, {"pitch": 60, "velocity": 87, "note_on_time": 8.911, "note_off_time": 9.05}, {"pitch": 60, "velocity": 94, "note_on_time": 9.232, "note_off_time": 9.557}, {"pitch": 62, "velocity": 65, "note_on_time": 10.341, "note_off_time": 10.428}]</notes><guidance name="Guidance Mode">None</guidance><error name="Error value">0.9166672499999999</error></trial></trials></MIDI>