<MIDI midiNo="2022_10_26-14_28_14"><target_notes><notes name="Note List">[{"pitch": 42, "velocity": 80, "note_on_time": 0.004, "note_off_time": 0.218}, {"pitch": 42, "velocity": 80, "note_on_time": 0.219, "note_off_time": 0.436}, {"pitch": 42, "velocity": 80, "note_on_time": 0.436, "note_off_time": 0.654}, {"pitch": 42, "velocity": 80, "note_on_time": 0.654, "note_off_time": 0.872}, {"pitch": 65, "velocity": 80, "note_on_time": 0.872, "note_off_time": 1.088}, {"pitch": 42, "velocity": 80, "note_on_time": 0.872, "note_off_time": 1.088}, {"pitch": 42, "velocity": 80, "note_on_time": 1.088, "note_off_time": 1.303}, {"pitch": 42, "velocity": 80, "note_on_time": 1.303, "note_off_time": 1.519}, {"pitch": 42, "velocity": 80, "note_on_time": 1.519, "note_off_time": 1.737}, {"pitch": 67, "velocity": 80, "note_on_time": 1.737, "note_off_time": 1.954}, {"pitch": 42, "velocity": 80, "note_on_time": 1.737, "note_off_time": 1.954}, {"pitch": 42, "velocity": 80, "note_on_time": 1.954, "note_off_time": 2.171}, {"pitch": 64, "velocity": 80, "note_on_time": 1.954, "note_off_time": 2.389}, {"pitch": 42, "velocity": 80, "note_on_time": 2.171, "note_off_time": 2.389}, {"pitch": 42, "velocity": 80, "note_on_time": 2.389, "note_off_time": 2.607}, {"pitch": 62, "velocity": 80, "note_on_time": 2.607, "note_off_time": 2.826}, {"pitch": 42, "velocity": 80, "note_on_time": 2.607, "note_off_time": 2.826}, {"pitch": 65, "velocity": 80, "note_on_time": 2.826, "note_off_time": 3.043}, {"pitch": 42, "velocity": 80, "note_on_time": 2.826, "note_off_time": 3.043}, {"pitch": 62, "velocity": 80, "note_on_time": 3.043, "note_off_time": 3.261}, {"pitch": 42, "velocity": 80, "note_on_time": 3.043, "note_off_time": 3.261}, {"pitch": 65, "velocity": 80, "note_on_time": 3.261, "note_off_time": 3.478}, {"pitch": 42, "velocity": 80, "note_on_time": 3.261, "note_off_time": 3.478}, {"pitch": 65, "velocity": 80, "note_on_time": 3.478, "note_off_time": 3.697}, {"pitch": 42, "velocity": 80, "note_on_time": 3.479, "note_off_time": 3.697}, {"pitch": 67, "velocity": 80, "note_on_time": 3.697, "note_off_time": 3.914}, {"pitch": 42, "velocity": 80, "note_on_time": 3.697, "note_off_time": 3.914}, {"pitch": 62, "velocity": 80, "note_on_time": 3.914, "note_off_time": 4.132}, {"pitch": 42, "velocity": 80, "note_on_time": 3.914, "note_off_time": 4.132}, {"pitch": 65, "velocity": 80, "note_on_time": 4.132, "note_off_time": 4.348}, {"pitch": 42, "velocity": 80, "note_on_time": 4.132, "note_off_time": 4.348}, {"pitch": 67, "velocity": 80, "note_on_time": 4.348, "note_off_time": 4.565}, {"pitch": 42, "velocity": 80, "note_on_time": 4.348, "note_off_time": 4.565}, {"pitch": 42, "velocity": 80, "note_on_time": 4.565, "note_off_time": 4.785}, {"pitch": 64, "velocity": 80, "note_on_time": 4.565, "note_off_time": 5.006}, {"pitch": 42, "velocity": 80, "note_on_time": 4.785, "note_off_time": 5.006}, {"pitch": 65, "velocity": 80, "note_on_time": 5.006, "note_off_time": 5.223}, {"pitch": 42, "velocity": 80, "note_on_time": 5.006, "note_off_time": 5.223}, {"pitch": 65, "velocity": 80, "note_on_time": 5.223, "note_off_time": 5.441}, {"pitch": 42, "velocity": 80, "note_on_time": 5.223, "note_off_time": 5.441}, {"pitch": 42, "velocity": 80, "note_on_time": 5.441, "note_off_time": 5.66}, {"pitch": 67, "velocity": 80, "note_on_time": 5.441, "note_off_time": 5.88}, {"pitch": 42, "velocity": 80, "note_on_time": 5.66, "note_off_time": 5.88}, {"pitch": 42, "velocity": 80, "note_on_time": 5.88, "note_off_time": 6.097}, {"pitch": 60, "velocity": 80, "note_on_time": 6.097, "note_off_time": 6.314}, {"pitch": 42, "velocity": 80, "note_on_time": 6.097, "note_off_time": 6.314}, {"pitch": 67, "velocity": 80, "note_on_time": 6.314, "note_off_time": 6.532}, {"pitch": 42, "velocity": 80, "note_on_time": 6.314, "note_off_time": 6.532}, {"pitch": 64, "velocity": 80, "note_on_time": 6.532, "note_off_time": 6.749}, {"pitch": 42, "velocity": 80, "note_on_time": 6.532, "note_off_time": 6.749}, {"pitch": 65, "velocity": 80, "note_on_time": 6.749, "note_off_time": 6.968}, {"pitch": 42, "velocity": 80, "note_on_time": 6.749, "note_off_time": 6.968}, {"pitch": 42, "velocity": 80, "note_on_time": 6.968, "note_off_time": 7.184}, {"pitch": 65, "velocity": 80, "note_on_time": 7.184, "note_off_time": 7.401}, {"pitch": 42, "velocity": 80, "note_on_time": 7.185, "note_off_time": 7.401}, {"pitch": 65, "velocity": 80, "note_on_time": 7.401, "note_off_time": 7.618}, {"pitch": 42, "velocity": 80, "note_on_time": 7.401, "note_off_time": 7.618}, {"pitch": 65, "velocity": 80, "note_on_time": 7.618, "note_off_time": 7.833}, {"pitch": 42, "velocity": 80, "note_on_time": 7.618, "note_off_time": 7.833}]</notes><options name="Option List">((4, 4), [0.5, 0.25], 3, 8, &lt;NoteRangePerHand.C_TO_G: 6&gt;, &lt;NoteRangePerHand.ONE_NOTE: 2&gt;, False, True, True, 281)</options></target_notes><trials><trial trial_no="1" timestamp="2022_10_26-14_28_05"><notes name="Played Notes">[{"pitch": 65, "velocity": 81, "note_on_time": 0.894, "note_off_time": 1.135}, {"pitch": 67, "velocity": 77, "note_on_time": 1.735, "note_off_time": 1.976}, {"pitch": 64, "velocity": 88, "note_on_time": 1.955, "note_off_time": 2.259}, {"pitch": 62, "velocity": 74, "note_on_time": 2.642, "note_off_time": 2.867}, {"pitch": 65, "velocity": 77, "note_on_time": 2.875, "note_off_time": 3.084}, {"pitch": 62, "velocity": 73, "note_on_time": 3.086, "note_off_time": 3.274}, {"pitch": 65, "velocity": 76, "note_on_time": 3.271, "note_off_time": 3.38}, {"pitch": 65, "velocity": 73, "note_on_time": 3.489, "note_off_time": 3.721}, {"pitch": 67, "velocity": 76, "note_on_time": 3.722, "note_off_time": 3.939}, {"pitch": 62, "velocity": 71, "note_on_time": 3.941, "note_off_time": 4.156}, {"pitch": 65, "velocity": 79, "note_on_time": 4.156, "note_off_time": 4.384}, {"pitch": 67, "velocity": 80, "note_on_time": 4.389, "note_off_time": 4.593}, {"pitch": 64, "velocity": 84, "note_on_time": 4.591, "note_off_time": 4.963}, {"pitch": 65, "velocity": 83, "note_on_time": 5.286, "note_off_time": 5.397}, {"pitch": 65, "velocity": 78, "note_on_time": 5.49, "note_off_time": 5.683}, {"pitch": 67, "velocity": 90, "note_on_time": 5.721, "note_off_time": 6.084}, {"pitch": 60, "velocity": 72, "note_on_time": 6.46, "note_off_time": 6.68}, {"pitch": 67, "velocity": 75, "note_on_time": 6.686, "note_off_time": 6.907}, {"pitch": 64, "velocity": 74, "note_on_time": 6.893, "note_off_time": 7.102}, {"pitch": 65, "velocity": 79, "note_on_time": 7.116, "note_off_time": 7.441}, {"pitch": 65, "velocity": 94, "note_on_time": 7.637, "note_off_time": 7.737}]</notes><guidance name="Guidance Mode">None</guidance><error name="Error value">0.15136695</error></trial></trials></MIDI>