<MIDI midiNo="2022_08_17-12_54_54"><target_notes><notes name="Note List">[{"pitch": 42, "velocity": 80, "note_on_time": 0.004, "note_off_time": 0.251}, {"pitch": 42, "velocity": 80, "note_on_time": 0.251, "note_off_time": 0.502}, {"pitch": 42, "velocity": 80, "note_on_time": 0.502, "note_off_time": 0.751}, {"pitch": 42, "velocity": 80, "note_on_time": 0.752, "note_off_time": 1.0}, {"pitch": 60, "velocity": 80, "note_on_time": 1.0, "note_off_time": 1.247}, {"pitch": 42, "velocity": 80, "note_on_time": 1.0, "note_off_time": 1.247}, {"pitch": 42, "velocity": 80, "note_on_time": 1.247, "note_off_time": 1.498}, {"pitch": 64, "velocity": 80, "note_on_time": 1.497, "note_off_time": 1.747}, {"pitch": 42, "velocity": 80, "note_on_time": 1.498, "note_off_time": 1.748}, {"pitch": 64, "velocity": 80, "note_on_time": 1.747, "note_off_time": 1.996}, {"pitch": 42, "velocity": 80, "note_on_time": 1.748, "note_off_time": 1.996}, {"pitch": 64, "velocity": 80, "note_on_time": 1.996, "note_off_time": 2.245}, {"pitch": 42, "velocity": 80, "note_on_time": 1.997, "note_off_time": 2.246}, {"pitch": 62, "velocity": 80, "note_on_time": 2.245, "note_off_time": 2.497}, {"pitch": 42, "velocity": 80, "note_on_time": 2.246, "note_off_time": 2.497}, {"pitch": 64, "velocity": 80, "note_on_time": 2.497, "note_off_time": 2.747}, {"pitch": 42, "velocity": 80, "note_on_time": 2.498, "note_off_time": 2.747}, {"pitch": 65, "velocity": 80, "note_on_time": 2.747, "note_off_time": 2.996}, {"pitch": 42, "velocity": 80, "note_on_time": 2.747, "note_off_time": 2.996}, {"pitch": 67, "velocity": 80, "note_on_time": 2.996, "note_off_time": 3.246}, {"pitch": 42, "velocity": 80, "note_on_time": 2.997, "note_off_time": 3.246}, {"pitch": 60, "velocity": 80, "note_on_time": 3.246, "note_off_time": 3.494}, {"pitch": 42, "velocity": 80, "note_on_time": 3.246, "note_off_time": 3.494}, {"pitch": 60, "velocity": 80, "note_on_time": 3.494, "note_off_time": 3.742}, {"pitch": 42, "velocity": 80, "note_on_time": 3.494, "note_off_time": 3.742}, {"pitch": 60, "velocity": 80, "note_on_time": 3.742, "note_off_time": 3.991}, {"pitch": 42, "velocity": 80, "note_on_time": 3.743, "note_off_time": 3.991}, {"pitch": 67, "velocity": 80, "note_on_time": 3.991, "note_off_time": 4.24}, {"pitch": 42, "velocity": 80, "note_on_time": 3.991, "note_off_time": 4.241}, {"pitch": 42, "velocity": 80, "note_on_time": 4.241, "note_off_time": 4.49}, {"pitch": 42, "velocity": 80, "note_on_time": 4.49, "note_off_time": 4.74}, {"pitch": 42, "velocity": 80, "note_on_time": 4.741, "note_off_time": 4.99}, {"pitch": 42, "velocity": 80, "note_on_time": 4.991, "note_off_time": 5.24}, {"pitch": 65, "velocity": 80, "note_on_time": 4.99, "note_off_time": 5.49}, {"pitch": 42, "velocity": 80, "note_on_time": 5.24, "note_off_time": 5.49}, {"pitch": 42, "velocity": 80, "note_on_time": 5.49, "note_off_time": 5.739}, {"pitch": 62, "velocity": 80, "note_on_time": 5.739, "note_off_time": 5.989}, {"pitch": 42, "velocity": 80, "note_on_time": 5.739, "note_off_time": 5.989}, {"pitch": 42, "velocity": 80, "note_on_time": 5.989, "note_off_time": 6.239}, {"pitch": 67, "velocity": 80, "note_on_time": 5.989, "note_off_time": 6.489}, {"pitch": 42, "velocity": 80, "note_on_time": 6.239, "note_off_time": 6.489}, {"pitch": 60, "velocity": 80, "note_on_time": 6.489, "note_off_time": 6.74}, {"pitch": 42, "velocity": 80, "note_on_time": 6.489, "note_off_time": 6.74}, {"pitch": 60, "velocity": 80, "note_on_time": 6.74, "note_off_time": 6.991}, {"pitch": 42, "velocity": 80, "note_on_time": 6.74, "note_off_time": 6.992}, {"pitch": 67, "velocity": 80, "note_on_time": 6.991, "note_off_time": 7.241}, {"pitch": 42, "velocity": 80, "note_on_time": 6.992, "note_off_time": 7.242}, {"pitch": 42, "velocity": 80, "note_on_time": 7.242, "note_off_time": 7.49}, {"pitch": 42, "velocity": 80, "note_on_time": 7.49, "note_off_time": 7.739}, {"pitch": 42, "velocity": 80, "note_on_time": 7.74, "note_off_time": 7.989}, {"pitch": 42, "velocity": 80, "note_on_time": 7.989, "note_off_time": 8.237}, {"pitch": 67, "velocity": 80, "note_on_time": 8.237, "note_off_time": 8.488}, {"pitch": 42, "velocity": 80, "note_on_time": 8.238, "note_off_time": 8.488}, {"pitch": 67, "velocity": 80, "note_on_time": 8.488, "note_off_time": 8.736}, {"pitch": 42, "velocity": 80, "note_on_time": 8.489, "note_off_time": 8.737}, {"pitch": 67, "velocity": 80, "note_on_time": 8.736, "note_off_time": 8.987}, {"pitch": 42, "velocity": 80, "note_on_time": 8.737, "note_off_time": 8.987}]</notes><options name="Option List">((4, 4), [0.5, 0.25], 3, 8, &lt;NoteRangePerHand.C_TO_G: 6&gt;, &lt;NoteRangePerHand.ONE_NOTE: 2&gt;, False, True, True, 248)</options></target_notes><trials><trial trial_no="1" timestamp="2022_08_17-12_54_45"><notes name="Played Notes">[{"pitch": 60, "velocity": 69, "note_on_time": 1.078, "note_off_time": 1.311}, {"pitch": 64, "velocity": 70, "note_on_time": 1.549, "note_off_time": 1.665}, {"pitch": 64, "velocity": 67, "note_on_time": 1.833, "note_off_time": 1.919}, {"pitch": 64, "velocity": 66, "note_on_time": 2.097, "note_off_time": 2.199}, {"pitch": 62, "velocity": 62, "note_on_time": 2.365, "note_off_time": 2.445}, {"pitch": 64, "velocity": 68, "note_on_time": 2.614, "note_off_time": 2.69}, {"pitch": 65, "velocity": 63, "note_on_time": 2.87, "note_off_time": 2.965}, {"pitch": 67, "velocity": 66, "note_on_time": 3.129, "note_off_time": 3.222}, {"pitch": 60, "velocity": 64, "note_on_time": 3.398, "note_off_time": 3.481}, {"pitch": 60, "velocity": 60, "note_on_time": 3.682, "note_off_time": 3.753}, {"pitch": 60, "velocity": 59, "note_on_time": 3.93, "note_off_time": 4.008}, {"pitch": 67, "velocity": 72, "note_on_time": 4.228, "note_off_time": 4.451}, {"pitch": 65, "velocity": 70, "note_on_time": 5.262, "note_off_time": 5.623}, {"pitch": 62, "velocity": 65, "note_on_time": 6.018, "note_off_time": 6.093}, {"pitch": 67, "velocity": 72, "note_on_time": 6.29, "note_off_time": 6.622}, {"pitch": 60, "velocity": 68, "note_on_time": 6.887, "note_off_time": 6.979}, {"pitch": 60, "velocity": 52, "note_on_time": 7.138, "note_off_time": 7.211}, {"pitch": 67, "velocity": 61, "note_on_time": 7.405, "note_off_time": 7.722}, {"pitch": 67, "velocity": 57, "note_on_time": 8.51, "note_off_time": 8.587}, {"pitch": 67, "velocity": 68, "note_on_time": 8.762, "note_off_time": 8.847}]</notes><guidance name="Guidance Mode">None</guidance><error name="Error value">0.10572083333333357</error></trial><trial trial_no="2" timestamp="2022_08_17-12_55_04"><notes name="Played Notes">[{"pitch": 60, "velocity": 67, "note_on_time": 1.085, "note_off_time": 1.26}, {"pitch": 64, "velocity": 68, "note_on_time": 1.582, "note_off_time": 1.683}, {"pitch": 64, "velocity": 64, "note_on_time": 1.85, "note_off_time": 1.926}, {"pitch": 64, "velocity": 65, "note_on_time": 2.117, "note_off_time": 2.203}, {"pitch": 64, "velocity": 53, "note_on_time": 2.371, "note_off_time": 2.44}, {"pitch": 62, "velocity": 63, "note_on_time": 2.622, "note_off_time": 2.704}, {"pitch": 64, "velocity": 61, "note_on_time": 2.875, "note_off_time": 2.949}, {"pitch": 65, "velocity": 64, "note_on_time": 3.124, "note_off_time": 3.214}, {"pitch": 67, "velocity": 60, "note_on_time": 3.386, "note_off_time": 3.455}, {"pitch": 60, "velocity": 57, "note_on_time": 3.649, "note_off_time": 3.732}, {"pitch": 60, "velocity": 55, "note_on_time": 3.909, "note_off_time": 3.982}, {"pitch": 60, "velocity": 46, "note_on_time": 4.154, "note_off_time": 4.224}, {"pitch": 67, "velocity": 61, "note_on_time": 4.432, "note_off_time": 4.635}, {"pitch": 65, "velocity": 61, "note_on_time": 5.544, "note_off_time": 5.645}, {"pitch": 62, "velocity": 65, "note_on_time": 5.805, "note_off_time": 5.872}, {"pitch": 67, "velocity": 66, "note_on_time": 6.052, "note_off_time": 6.367}, {"pitch": 60, "velocity": 64, "note_on_time": 6.541, "note_off_time": 6.633}, {"pitch": 60, "velocity": 56, "note_on_time": 6.797, "note_off_time": 6.871}, {"pitch": 67, "velocity": 62, "note_on_time": 7.052, "note_off_time": 7.285}, {"pitch": 67, "velocity": 66, "note_on_time": 7.986, "note_off_time": 8.064}, {"pitch": 67, "velocity": 66, "note_on_time": 8.231, "note_off_time": 8.302}, {"pitch": 67, "velocity": 73, "note_on_time": 8.505, "note_off_time": 8.576}]</notes><guidance name="Guidance Mode">None</guidance><error name="Error value">0.2343875000000001</error></trial><trial trial_no="3" timestamp="2022_08_17-12_55_23"><notes name="Played Notes">[{"pitch": 60, "velocity": 71, "note_on_time": 1.082, "note_off_time": 1.339}, {"pitch": 64, "velocity": 64, "note_on_time": 1.573, "note_off_time": 1.684}, {"pitch": 64, "velocity": 71, "note_on_time": 1.849, "note_off_time": 1.957}, {"pitch": 64, "velocity": 71, "note_on_time": 2.119, "note_off_time": 2.223}, {"pitch": 62, "velocity": 67, "note_on_time": 2.378, "note_off_time": 2.473}, {"pitch": 64, "velocity": 68, "note_on_time": 2.634, "note_off_time": 2.726}, {"pitch": 65, "velocity": 62, "note_on_time": 2.901, "note_off_time": 2.99}, {"pitch": 67, "velocity": 64, "note_on_time": 3.194, "note_off_time": 3.274}, {"pitch": 60, "velocity": 60, "note_on_time": 3.488, "note_off_time": 3.574}, {"pitch": 60, "velocity": 59, "note_on_time": 3.767, "note_off_time": 3.84}, {"pitch": 60, "velocity": 58, "note_on_time": 4.026, "note_off_time": 4.099}, {"pitch": 67, "velocity": 71, "note_on_time": 4.294, "note_off_time": 4.455}, {"pitch": 65, "velocity": 66, "note_on_time": 5.251, "note_off_time": 5.637}, {"pitch": 62, "velocity": 70, "note_on_time": 5.973, "note_off_time": 6.045}, {"pitch": 67, "velocity": 72, "note_on_time": 6.243, "note_off_time": 6.651}, {"pitch": 60, "velocity": 69, "note_on_time": 6.935, "note_off_time": 7.037}, {"pitch": 60, "velocity": 53, "note_on_time": 7.2, "note_off_time": 7.256}, {"pitch": 67, "velocity": 68, "note_on_time": 7.46, "note_off_time": 7.77}, {"pitch": 67, "velocity": 68, "note_on_time": 8.664, "note_off_time": 8.763}]</notes><guidance name="Guidance Mode">None</guidance><error name="Error value">0.17136222222222225</error></trial></trials></MIDI>