<MIDI midiNo="2022_12_08-11_27_44"><target_notes><notes name="Note List">[{"pitch": 42, "velocity": 80, "note_on_time": 0.006, "note_off_time": 0.619}, {"pitch": 42, "velocity": 80, "note_on_time": 0.619, "note_off_time": 1.229}, {"pitch": 42, "velocity": 80, "note_on_time": 1.229, "note_off_time": 1.837}, {"pitch": 42, "velocity": 80, "note_on_time": 1.837, "note_off_time": 2.444}, {"pitch": 62, "velocity": 80, "note_on_time": 2.444, "note_off_time": 3.052}, {"pitch": 42, "velocity": 80, "note_on_time": 2.444, "note_off_time": 3.052}, {"pitch": 42, "velocity": 80, "note_on_time": 3.052, "note_off_time": 3.661}, {"pitch": 42, "velocity": 80, "note_on_time": 3.662, "note_off_time": 4.269}, {"pitch": 42, "velocity": 80, "note_on_time": 4.269, "note_off_time": 4.876}, {"pitch": 60, "velocity": 80, "note_on_time": 4.876, "note_off_time": 5.485}, {"pitch": 42, "velocity": 80, "note_on_time": 4.876, "note_off_time": 5.486}, {"pitch": 60, "velocity": 80, "note_on_time": 5.485, "note_off_time": 6.095}, {"pitch": 42, "velocity": 80, "note_on_time": 5.486, "note_off_time": 6.096}, {"pitch": 62, "velocity": 80, "note_on_time": 6.095, "note_off_time": 6.703}, {"pitch": 42, "velocity": 80, "note_on_time": 6.096, "note_off_time": 6.703}, {"pitch": 60, "velocity": 80, "note_on_time": 6.703, "note_off_time": 7.314}, {"pitch": 42, "velocity": 80, "note_on_time": 6.703, "note_off_time": 7.315}, {"pitch": 60, "velocity": 80, "note_on_time": 7.315, "note_off_time": 7.926}, {"pitch": 42, "velocity": 80, "note_on_time": 7.315, "note_off_time": 7.926}, {"pitch": 62, "velocity": 80, "note_on_time": 7.926, "note_off_time": 8.539}, {"pitch": 42, "velocity": 80, "note_on_time": 7.926, "note_off_time": 8.54}, {"pitch": 60, "velocity": 80, "note_on_time": 8.539, "note_off_time": 9.146}, {"pitch": 42, "velocity": 80, "note_on_time": 8.54, "note_off_time": 9.146}, {"pitch": 60, "velocity": 80, "note_on_time": 9.146, "note_off_time": 9.755}, {"pitch": 42, "velocity": 80, "note_on_time": 9.146, "note_off_time": 9.756}, {"pitch": 42, "velocity": 80, "note_on_time": 9.756, "note_off_time": 10.365}, {"pitch": 62, "velocity": 80, "note_on_time": 9.755, "note_off_time": 10.977}, {"pitch": 42, "velocity": 80, "note_on_time": 10.366, "note_off_time": 10.977}, {"pitch": 42, "velocity": 80, "note_on_time": 10.977, "note_off_time": 11.586}, {"pitch": 42, "velocity": 80, "note_on_time": 11.586, "note_off_time": 12.194}, {"pitch": 62, "velocity": 80, "note_on_time": 12.194, "note_off_time": 12.807}, {"pitch": 42, "velocity": 80, "note_on_time": 12.195, "note_off_time": 12.807}, {"pitch": 60, "velocity": 80, "note_on_time": 12.807, "note_off_time": 13.416}, {"pitch": 42, "velocity": 80, "note_on_time": 12.807, "note_off_time": 13.416}, {"pitch": 42, "velocity": 80, "note_on_time": 13.416, "note_off_time": 14.024}, {"pitch": 62, "velocity": 80, "note_on_time": 13.416, "note_off_time": 14.63}, {"pitch": 42, "velocity": 80, "note_on_time": 14.024, "note_off_time": 14.63}, {"pitch": 62, "velocity": 80, "note_on_time": 14.63, "note_off_time": 15.237}, {"pitch": 42, "velocity": 80, "note_on_time": 14.63, "note_off_time": 15.238}, {"pitch": 60, "velocity": 80, "note_on_time": 15.237, "note_off_time": 15.847}, {"pitch": 42, "velocity": 80, "note_on_time": 15.238, "note_off_time": 15.847}, {"pitch": 62, "velocity": 80, "note_on_time": 15.847, "note_off_time": 16.453}, {"pitch": 42, "velocity": 80, "note_on_time": 15.847, "note_off_time": 16.453}, {"pitch": 62, "velocity": 80, "note_on_time": 16.453, "note_off_time": 17.063}, {"pitch": 42, "velocity": 80, "note_on_time": 16.453, "note_off_time": 17.063}, {"pitch": 42, "velocity": 80, "note_on_time": 17.063, "note_off_time": 17.674}, {"pitch": 62, "velocity": 80, "note_on_time": 17.063, "note_off_time": 18.282}, {"pitch": 42, "velocity": 80, "note_on_time": 17.674, "note_off_time": 18.282}, {"pitch": 42, "velocity": 80, "note_on_time": 18.283, "note_off_time": 18.894}, {"pitch": 42, "velocity": 80, "note_on_time": 18.894, "note_off_time": 19.502}, {"pitch": 42, "velocity": 80, "note_on_time": 19.502, "note_off_time": 20.112}, {"pitch": 62, "velocity": 80, "note_on_time": 20.112, "note_off_time": 20.724}, {"pitch": 42, "velocity": 80, "note_on_time": 20.112, "note_off_time": 20.724}, {"pitch": 62, "velocity": 80, "note_on_time": 20.724, "note_off_time": 21.333}, {"pitch": 42, "velocity": 80, "note_on_time": 20.724, "note_off_time": 21.334}, {"pitch": 62, "velocity": 80, "note_on_time": 21.333, "note_off_time": 21.943}, {"pitch": 42, "velocity": 80, "note_on_time": 21.334, "note_off_time": 21.944}]</notes><options name="Option List">((4, 4), [0.25], 3, 8, &lt;NoteRangePerHand.TWO_NOTES: 3&gt;, &lt;NoteRangePerHand.ONE_NOTE: 2&gt;, False, True, False, '100')</options></target_notes><trials><trial trial_no="1" timestamp="2022_12_08-11_27_21"><notes name="Played Notes">[{"pitch": 62, "velocity": 70, "note_on_time": 2.496, "note_off_time": 2.837}, {"pitch": 60, "velocity": 82, "note_on_time": 4.845, "note_off_time": 5.137}, {"pitch": 60, "velocity": 69, "note_on_time": 5.43, "note_off_time": 5.783}, {"pitch": 62, "velocity": 66, "note_on_time": 6.094, "note_off_time": 6.32}, {"pitch": 60, "velocity": 64, "note_on_time": 6.674, "note_off_time": 6.97}, {"pitch": 60, "velocity": 60, "note_on_time": 7.247, "note_off_time": 7.526}, {"pitch": 62, "velocity": 61, "note_on_time": 7.877, "note_off_time": 8.065}, {"pitch": 60, "velocity": 71, "note_on_time": 8.484, "note_off_time": 8.634}, {"pitch": 60, "velocity": 80, "note_on_time": 9.06, "note_off_time": 9.334}, {"pitch": 62, "velocity": 78, "note_on_time": 9.685, "note_off_time": 10.561}, {"pitch": 62, "velocity": 70, "note_on_time": 12.229, "note_off_time": 12.531}, {"pitch": 60, "velocity": 57, "note_on_time": 12.799, "note_off_time": 13.06}, {"pitch": 62, "velocity": 64, "note_on_time": 13.379, "note_off_time": 13.991}, {"pitch": 62, "velocity": 55, "note_on_time": 14.625, "note_off_time": 14.905}, {"pitch": 60, "velocity": 68, "note_on_time": 15.209, "note_off_time": 15.471}, {"pitch": 62, "velocity": 72, "note_on_time": 15.826, "note_off_time": 15.992}, {"pitch": 62, "velocity": 68, "note_on_time": 16.435, "note_off_time": 16.621}, {"pitch": 62, "velocity": 73, "note_on_time": 17.02, "note_off_time": 18.138}, {"pitch": 62, "velocity": 77, "note_on_time": 20.111, "note_off_time": 20.361}, {"pitch": 62, "velocity": 71, "note_on_time": 20.66, "note_off_time": 20.946}, {"pitch": 62, "velocity": 82, "note_on_time": 21.252, "note_off_time": 21.855}]</notes><guidance name="Guidance Mode">None</guidance><error name="Error value">0.03944444444444469</error></trial></trials></MIDI>