<MIDI midiNo="2022_10_27-10_10_33"><target_notes><notes name="Note List">[{"pitch": 42, "velocity": 80, "note_on_time": 0.004, "note_off_time": 0.619}, {"pitch": 42, "velocity": 80, "note_on_time": 0.619, "note_off_time": 1.225}, {"pitch": 42, "velocity": 80, "note_on_time": 1.226, "note_off_time": 1.83}, {"pitch": 42, "velocity": 80, "note_on_time": 1.83, "note_off_time": 2.436}, {"pitch": 62, "velocity": 80, "note_on_time": 2.436, "note_off_time": 3.045}, {"pitch": 42, "velocity": 80, "note_on_time": 2.436, "note_off_time": 3.045}, {"pitch": 60, "velocity": 80, "note_on_time": 3.045, "note_off_time": 3.652}, {"pitch": 42, "velocity": 80, "note_on_time": 3.045, "note_off_time": 3.652}, {"pitch": 60, "velocity": 80, "note_on_time": 3.652, "note_off_time": 4.26}, {"pitch": 42, "velocity": 80, "note_on_time": 3.652, "note_off_time": 4.26}, {"pitch": 42, "velocity": 80, "note_on_time": 4.26, "note_off_time": 4.869}, {"pitch": 62, "velocity": 80, "note_on_time": 4.869, "note_off_time": 5.48}, {"pitch": 42, "velocity": 80, "note_on_time": 4.87, "note_off_time": 5.48}, {"pitch": 60, "velocity": 80, "note_on_time": 5.48, "note_off_time": 6.081}, {"pitch": 42, "velocity": 80, "note_on_time": 5.48, "note_off_time": 6.081}, {"pitch": 60, "velocity": 80, "note_on_time": 6.081, "note_off_time": 6.692}, {"pitch": 42, "velocity": 80, "note_on_time": 6.082, "note_off_time": 6.692}, {"pitch": 62, "velocity": 80, "note_on_time": 6.692, "note_off_time": 7.299}, {"pitch": 42, "velocity": 80, "note_on_time": 6.693, "note_off_time": 7.299}, {"pitch": 62, "velocity": 80, "note_on_time": 7.299, "note_off_time": 7.908}, {"pitch": 42, "velocity": 80, "note_on_time": 7.299, "note_off_time": 7.908}, {"pitch": 62, "velocity": 80, "note_on_time": 7.908, "note_off_time": 8.516}, {"pitch": 42, "velocity": 80, "note_on_time": 7.909, "note_off_time": 8.516}, {"pitch": 60, "velocity": 80, "note_on_time": 8.516, "note_off_time": 9.125}, {"pitch": 42, "velocity": 80, "note_on_time": 8.517, "note_off_time": 9.126}, {"pitch": 60, "velocity": 80, "note_on_time": 9.125, "note_off_time": 9.733}, {"pitch": 42, "velocity": 80, "note_on_time": 9.126, "note_off_time": 9.733}, {"pitch": 62, "velocity": 80, "note_on_time": 9.733, "note_off_time": 10.337}, {"pitch": 42, "velocity": 80, "note_on_time": 9.733, "note_off_time": 10.338}, {"pitch": 60, "velocity": 80, "note_on_time": 10.337, "note_off_time": 10.941}, {"pitch": 42, "velocity": 80, "note_on_time": 10.338, "note_off_time": 10.941}, {"pitch": 60, "velocity": 80, "note_on_time": 10.941, "note_off_time": 11.546}, {"pitch": 42, "velocity": 80, "note_on_time": 10.942, "note_off_time": 11.546}, {"pitch": 60, "velocity": 80, "note_on_time": 11.546, "note_off_time": 12.155}, {"pitch": 42, "velocity": 80, "note_on_time": 11.546, "note_off_time": 12.155}, {"pitch": 62, "velocity": 80, "note_on_time": 12.155, "note_off_time": 12.762}, {"pitch": 42, "velocity": 80, "note_on_time": 12.156, "note_off_time": 12.762}, {"pitch": 62, "velocity": 80, "note_on_time": 12.762, "note_off_time": 13.369}, {"pitch": 42, "velocity": 80, "note_on_time": 12.762, "note_off_time": 13.369}, {"pitch": 62, "velocity": 80, "note_on_time": 13.369, "note_off_time": 13.98}, {"pitch": 42, "velocity": 80, "note_on_time": 13.369, "note_off_time": 13.98}, {"pitch": 60, "velocity": 80, "note_on_time": 13.98, "note_off_time": 14.588}, {"pitch": 42, "velocity": 80, "note_on_time": 13.98, "note_off_time": 14.589}, {"pitch": 62, "velocity": 80, "note_on_time": 14.588, "note_off_time": 15.195}, {"pitch": 42, "velocity": 80, "note_on_time": 14.589, "note_off_time": 15.195}, {"pitch": 62, "velocity": 80, "note_on_time": 15.195, "note_off_time": 15.803}, {"pitch": 42, "velocity": 80, "note_on_time": 15.195, "note_off_time": 15.803}, {"pitch": 60, "velocity": 80, "note_on_time": 15.803, "note_off_time": 16.408}, {"pitch": 42, "velocity": 80, "note_on_time": 15.803, "note_off_time": 16.408}, {"pitch": 62, "velocity": 80, "note_on_time": 16.408, "note_off_time": 17.015}, {"pitch": 42, "velocity": 80, "note_on_time": 16.409, "note_off_time": 17.015}, {"pitch": 62, "velocity": 80, "note_on_time": 17.015, "note_off_time": 17.621}, {"pitch": 42, "velocity": 80, "note_on_time": 17.015, "note_off_time": 17.621}, {"pitch": 62, "velocity": 80, "note_on_time": 17.621, "note_off_time": 18.228}, {"pitch": 42, "velocity": 80, "note_on_time": 17.622, "note_off_time": 18.228}, {"pitch": 60, "velocity": 80, "note_on_time": 18.228, "note_off_time": 18.837}, {"pitch": 42, "velocity": 80, "note_on_time": 18.229, "note_off_time": 18.837}, {"pitch": 42, "velocity": 80, "note_on_time": 18.838, "note_off_time": 19.444}, {"pitch": 42, "velocity": 80, "note_on_time": 19.445, "note_off_time": 20.055}, {"pitch": 60, "velocity": 80, "note_on_time": 20.054, "note_off_time": 20.662}, {"pitch": 42, "velocity": 80, "note_on_time": 20.055, "note_off_time": 20.662}, {"pitch": 60, "velocity": 80, "note_on_time": 20.662, "note_off_time": 21.27}, {"pitch": 42, "velocity": 80, "note_on_time": 20.663, "note_off_time": 21.27}, {"pitch": 60, "velocity": 80, "note_on_time": 21.27, "note_off_time": 21.877}, {"pitch": 42, "velocity": 80, "note_on_time": 21.27, "note_off_time": 21.877}]</notes><options name="Option List">((4, 4), [0.25], 3, 8, &lt;NoteRangePerHand.TWO_NOTES: 3&gt;, &lt;NoteRangePerHand.ONE_NOTE: 2&gt;, False, True, False, '80')</options></target_notes><trials><trial trial_no="1" timestamp="2022_10_27-10_10_09"><notes name="Played Notes">[{"pitch": 50, "velocity": 46, "note_on_time": 3.591, "note_off_time": 3.744}, {"pitch": 48, "velocity": 43, "note_on_time": 4.115, "note_off_time": 4.288}, {"pitch": 48, "velocity": 51, "note_on_time": 4.616, "note_off_time": 4.79}, {"pitch": 50, "velocity": 35, "note_on_time": 5.202, "note_off_time": 5.328}, {"pitch": 60, "velocity": 36, "note_on_time": 6.468, "note_off_time": 6.724}, {"pitch": 62, "velocity": 29, "note_on_time": 18.637, "note_off_time": 18.867}, {"pitch": 60, "velocity": 1, "note_on_time": 19.427, "note_off_time": 19.771}, {"pitch": 60, "velocity": 61, "note_on_time": 19.978, "note_off_time": 20.186}, {"pitch": 60, "velocity": 58, "note_on_time": 20.562, "note_off_time": 20.763}]</notes><guidance name="Guidance Mode">None</guidance><error name="Error value">1.3890384615384619</error></trial><trial trial_no="2" timestamp="2022_10_27-10_11_02"><notes name="Played Notes">[{"pitch": 62, "velocity": 1, "note_on_time": 2.513, "note_off_time": 2.929}, {"pitch": 62, "velocity": 56, "note_on_time": 3.152, "note_off_time": 3.428}, {"pitch": 60, "velocity": 60, "note_on_time": 3.813, "note_off_time": 4.026}, {"pitch": 60, "velocity": 67, "note_on_time": 4.32, "note_off_time": 4.495}, {"pitch": 62, "velocity": 40, "note_on_time": 5.209, "note_off_time": 5.439}, {"pitch": 60, "velocity": 51, "note_on_time": 5.766, "note_off_time": 5.942}, {"pitch": 60, "velocity": 57, "note_on_time": 6.297, "note_off_time": 6.515}, {"pitch": 62, "velocity": 48, "note_on_time": 6.879, "note_off_time": 7.116}, {"pitch": 62, "velocity": 45, "note_on_time": 7.445, "note_off_time": 7.653}, {"pitch": 62, "velocity": 48, "note_on_time": 8.015, "note_off_time": 8.236}, {"pitch": 60, "velocity": 55, "note_on_time": 8.601, "note_off_time": 8.795}, {"pitch": 60, "velocity": 55, "note_on_time": 9.135, "note_off_time": 9.347}, {"pitch": 62, "velocity": 51, "note_on_time": 9.692, "note_off_time": 9.902}, {"pitch": 60, "velocity": 52, "note_on_time": 10.249, "note_off_time": 10.444}, {"pitch": 60, "velocity": 52, "note_on_time": 10.787, "note_off_time": 10.954}, {"pitch": 60, "velocity": 47, "note_on_time": 11.374, "note_off_time": 11.601}, {"pitch": 62, "velocity": 48, "note_on_time": 11.97, "note_off_time": 12.185}, {"pitch": 62, "velocity": 40, "note_on_time": 12.503, "note_off_time": 12.7}, {"pitch": 62, "velocity": 46, "note_on_time": 13.09, "note_off_time": 13.314}, {"pitch": 60, "velocity": 58, "note_on_time": 13.672, "note_off_time": 13.865}, {"pitch": 62, "velocity": 50, "note_on_time": 14.275, "note_off_time": 14.483}, {"pitch": 62, "velocity": 49, "note_on_time": 14.805, "note_off_time": 15.02}, {"pitch": 60, "velocity": 45, "note_on_time": 15.367, "note_off_time": 15.571}, {"pitch": 62, "velocity": 51, "note_on_time": 15.922, "note_off_time": 16.115}, {"pitch": 62, "velocity": 51, "note_on_time": 16.483, "note_off_time": 16.694}, {"pitch": 62, "velocity": 47, "note_on_time": 17.027, "note_off_time": 17.233}, {"pitch": 60, "velocity": 57, "note_on_time": 17.587, "note_off_time": 17.777}, {"pitch": 60, "velocity": 5, "note_on_time": 19.333, "note_off_time": 19.558}, {"pitch": 60, "velocity": 59, "note_on_time": 19.865, "note_off_time": 20.057}, {"pitch": 60, "velocity": 62, "note_on_time": 20.451, "note_off_time": 20.656}]</notes><guidance name="Guidance Mode">None</guidance><error name="Error value">0.509423076923077</error></trial><trial trial_no="3" timestamp="2022_10_27-10_12_03"><notes name="Played Notes">[{"pitch": 62, "velocity": 49, "note_on_time": 2.443, "note_off_time": 2.658}, {"pitch": 60, "velocity": 42, "note_on_time": 3.02, "note_off_time": 3.192}, {"pitch": 60, "velocity": 55, "note_on_time": 3.612, "note_off_time": 3.793}, {"pitch": 62, "velocity": 1, "note_on_time": 4.296, "note_off_time": 4.542}, {"pitch": 60, "velocity": 23, "note_on_time": 5.402, "note_off_time": 5.594}, {"pitch": 60, "velocity": 46, "note_on_time": 5.942, "note_off_time": 6.15}, {"pitch": 62, "velocity": 47, "note_on_time": 6.532, "note_off_time": 6.752}, {"pitch": 62, "velocity": 42, "note_on_time": 7.114, "note_off_time": 7.284}, {"pitch": 62, "velocity": 40, "note_on_time": 7.674, "note_off_time": 7.869}, {"pitch": 60, "velocity": 52, "note_on_time": 8.236, "note_off_time": 8.408}, {"pitch": 60, "velocity": 59, "note_on_time": 8.792, "note_off_time": 9.009}, {"pitch": 62, "velocity": 42, "note_on_time": 9.373, "note_off_time": 9.571}, {"pitch": 60, "velocity": 40, "note_on_time": 9.919, "note_off_time": 10.109}, {"pitch": 60, "velocity": 48, "note_on_time": 10.464, "note_off_time": 10.666}, {"pitch": 60, "velocity": 49, "note_on_time": 10.999, "note_off_time": 11.197}, {"pitch": 62, "velocity": 17, "note_on_time": 11.939, "note_off_time": 12.152}, {"pitch": 62, "velocity": 57, "note_on_time": 12.472, "note_off_time": 12.699}, {"pitch": 62, "velocity": 54, "note_on_time": 13.057, "note_off_time": 13.274}, {"pitch": 60, "velocity": 46, "note_on_time": 13.628, "note_off_time": 13.837}, {"pitch": 62, "velocity": 44, "note_on_time": 14.182, "note_off_time": 14.377}, {"pitch": 62, "velocity": 48, "note_on_time": 14.775, "note_off_time": 14.966}, {"pitch": 60, "velocity": 50, "note_on_time": 15.341, "note_off_time": 15.532}, {"pitch": 62, "velocity": 45, "note_on_time": 15.929, "note_off_time": 16.133}, {"pitch": 62, "velocity": 42, "note_on_time": 16.554, "note_off_time": 16.742}, {"pitch": 62, "velocity": 38, "note_on_time": 17.084, "note_off_time": 17.282}, {"pitch": 60, "velocity": 57, "note_on_time": 17.616, "note_off_time": 17.798}, {"pitch": 60, "velocity": 55, "note_on_time": 19.474, "note_off_time": 19.67}, {"pitch": 60, "velocity": 38, "note_on_time": 20.055, "note_off_time": 20.229}, {"pitch": 60, "velocity": 58, "note_on_time": 20.582, "note_off_time": 20.76}]</notes><guidance name="Guidance Mode">None</guidance><error name="Error value">0.08919230769230756</error></trial></trials></MIDI>