<MIDI midiNo="2022_10_27-13_40_18"><target_notes><notes name="Note List">[{"pitch": 42, "velocity": 80, "note_on_time": 0.003, "note_off_time": 0.229}, {"pitch": 42, "velocity": 80, "note_on_time": 0.23, "note_off_time": 0.448}, {"pitch": 42, "velocity": 80, "note_on_time": 0.448, "note_off_time": 0.667}, {"pitch": 42, "velocity": 80, "note_on_time": 0.667, "note_off_time": 0.884}, {"pitch": 62, "velocity": 80, "note_on_time": 0.884, "note_off_time": 1.102}, {"pitch": 42, "velocity": 80, "note_on_time": 0.884, "note_off_time": 1.102}, {"pitch": 42, "velocity": 80, "note_on_time": 1.102, "note_off_time": 1.319}, {"pitch": 62, "velocity": 80, "note_on_time": 1.102, "note_off_time": 1.536}, {"pitch": 42, "velocity": 80, "note_on_time": 1.319, "note_off_time": 1.536}, {"pitch": 42, "velocity": 80, "note_on_time": 1.536, "note_off_time": 1.753}, {"pitch": 42, "velocity": 80, "note_on_time": 1.753, "note_off_time": 1.97}, {"pitch": 62, "velocity": 80, "note_on_time": 1.753, "note_off_time": 2.187}, {"pitch": 42, "velocity": 80, "note_on_time": 1.97, "note_off_time": 2.187}, {"pitch": 42, "velocity": 80, "note_on_time": 2.187, "note_off_time": 2.407}, {"pitch": 42, "velocity": 80, "note_on_time": 2.407, "note_off_time": 2.624}, {"pitch": 67, "velocity": 80, "note_on_time": 2.624, "note_off_time": 2.843}, {"pitch": 42, "velocity": 80, "note_on_time": 2.624, "note_off_time": 2.843}, {"pitch": 65, "velocity": 80, "note_on_time": 2.843, "note_off_time": 3.061}, {"pitch": 42, "velocity": 80, "note_on_time": 2.844, "note_off_time": 3.061}, {"pitch": 42, "velocity": 80, "note_on_time": 3.061, "note_off_time": 3.28}, {"pitch": 65, "velocity": 80, "note_on_time": 3.061, "note_off_time": 3.496}, {"pitch": 42, "velocity": 80, "note_on_time": 3.28, "note_off_time": 3.496}, {"pitch": 42, "velocity": 80, "note_on_time": 3.496, "note_off_time": 3.713}, {"pitch": 62, "velocity": 80, "note_on_time": 3.496, "note_off_time": 3.931}, {"pitch": 42, "velocity": 80, "note_on_time": 3.713, "note_off_time": 3.931}, {"pitch": 42, "velocity": 80, "note_on_time": 3.931, "note_off_time": 4.15}, {"pitch": 42, "velocity": 80, "note_on_time": 4.15, "note_off_time": 4.381}, {"pitch": 67, "velocity": 80, "note_on_time": 4.381, "note_off_time": 4.6}, {"pitch": 42, "velocity": 80, "note_on_time": 4.381, "note_off_time": 4.6}, {"pitch": 67, "velocity": 80, "note_on_time": 4.6, "note_off_time": 4.818}, {"pitch": 42, "velocity": 80, "note_on_time": 4.601, "note_off_time": 4.818}, {"pitch": 67, "velocity": 80, "note_on_time": 4.818, "note_off_time": 5.036}, {"pitch": 42, "velocity": 80, "note_on_time": 4.818, "note_off_time": 5.036}, {"pitch": 42, "velocity": 80, "note_on_time": 5.036, "note_off_time": 5.253}, {"pitch": 67, "velocity": 80, "note_on_time": 5.253, "note_off_time": 5.47}, {"pitch": 42, "velocity": 80, "note_on_time": 5.253, "note_off_time": 5.47}, {"pitch": 60, "velocity": 80, "note_on_time": 5.47, "note_off_time": 5.686}, {"pitch": 42, "velocity": 80, "note_on_time": 5.47, "note_off_time": 5.686}, {"pitch": 65, "velocity": 80, "note_on_time": 5.686, "note_off_time": 5.904}, {"pitch": 42, "velocity": 80, "note_on_time": 5.686, "note_off_time": 5.904}, {"pitch": 60, "velocity": 80, "note_on_time": 5.904, "note_off_time": 6.123}, {"pitch": 42, "velocity": 80, "note_on_time": 5.904, "note_off_time": 6.123}, {"pitch": 62, "velocity": 80, "note_on_time": 6.123, "note_off_time": 6.339}, {"pitch": 42, "velocity": 80, "note_on_time": 6.123, "note_off_time": 6.339}, {"pitch": 65, "velocity": 80, "note_on_time": 6.339, "note_off_time": 6.555}, {"pitch": 42, "velocity": 80, "note_on_time": 6.339, "note_off_time": 6.555}, {"pitch": 42, "velocity": 80, "note_on_time": 6.556, "note_off_time": 6.772}, {"pitch": 42, "velocity": 80, "note_on_time": 6.773, "note_off_time": 6.989}, {"pitch": 42, "velocity": 80, "note_on_time": 6.989, "note_off_time": 7.207}, {"pitch": 65, "velocity": 80, "note_on_time": 7.206, "note_off_time": 7.423}, {"pitch": 42, "velocity": 80, "note_on_time": 7.207, "note_off_time": 7.423}, {"pitch": 65, "velocity": 80, "note_on_time": 7.423, "note_off_time": 7.641}, {"pitch": 42, "velocity": 80, "note_on_time": 7.423, "note_off_time": 7.641}, {"pitch": 65, "velocity": 80, "note_on_time": 7.641, "note_off_time": 7.872}, {"pitch": 42, "velocity": 80, "note_on_time": 7.642, "note_off_time": 7.872}]</notes><options name="Option List">((4, 4), [0.5, 0.25], 3, 8, &lt;NoteRangePerHand.C_TO_G: 6&gt;, &lt;NoteRangePerHand.ONE_NOTE: 2&gt;, False, True, False, '280')</options></target_notes><trials><trial trial_no="1" timestamp="2022_10_27-13_40_08"><notes name="Played Notes">[{"pitch": 74, "velocity": 93, "note_on_time": 0.93, "note_off_time": 1.023}, {"pitch": 74, "velocity": 91, "note_on_time": 1.191, "note_off_time": 1.548}, {"pitch": 74, "velocity": 73, "note_on_time": 2.132, "note_off_time": 2.439}, {"pitch": 79, "velocity": 83, "note_on_time": 3.034, "note_off_time": 3.219}, {"pitch": 77, "velocity": 81, "note_on_time": 3.344, "note_off_time": 3.507}, {"pitch": 77, "velocity": 87, "note_on_time": 3.646, "note_off_time": 4.017}, {"pitch": 74, "velocity": 90, "note_on_time": 4.209, "note_off_time": 4.594}, {"pitch": 79, "velocity": 85, "note_on_time": 5.317, "note_off_time": 5.464}, {"pitch": 79, "velocity": 85, "note_on_time": 5.62, "note_off_time": 5.751}, {"pitch": 79, "velocity": 85, "note_on_time": 5.909, "note_off_time": 6.086}, {"pitch": 79, "velocity": 82, "note_on_time": 6.483, "note_off_time": 6.668}, {"pitch": 72, "velocity": 83, "note_on_time": 6.783, "note_off_time": 6.911}, {"pitch": 77, "velocity": 85, "note_on_time": 7.051, "note_off_time": 7.204}, {"pitch": 74, "velocity": 85, "note_on_time": 7.345, "note_off_time": 7.443}, {"pitch": 74, "velocity": 72, "note_on_time": 7.707, "note_off_time": 7.829}]</notes><guidance name="Guidance Mode">None</guidance><error name="Error value">1.350955625</error></trial><trial trial_no="2" timestamp="2022_10_27-13_40_32"><notes name="Played Notes">[{"pitch": 74, "velocity": 88, "note_on_time": 0.963, "note_off_time": 1.055}, {"pitch": 74, "velocity": 92, "note_on_time": 1.208, "note_off_time": 1.529}, {"pitch": 74, "velocity": 84, "note_on_time": 1.993, "note_off_time": 2.361}, {"pitch": 79, "velocity": 79, "note_on_time": 3.15, "note_off_time": 3.361}, {"pitch": 77, "velocity": 74, "note_on_time": 3.409, "note_off_time": 3.543}, {"pitch": 77, "velocity": 70, "note_on_time": 3.666, "note_off_time": 4.008}, {"pitch": 74, "velocity": 82, "note_on_time": 4.151, "note_off_time": 4.601}, {"pitch": 79, "velocity": 74, "note_on_time": 5.382, "note_off_time": 5.502}, {"pitch": 79, "velocity": 67, "note_on_time": 5.614, "note_off_time": 5.723}, {"pitch": 79, "velocity": 70, "note_on_time": 5.906, "note_off_time": 6.052}, {"pitch": 79, "velocity": 85, "note_on_time": 6.193, "note_off_time": 6.347}, {"pitch": 72, "velocity": 73, "note_on_time": 6.487, "note_off_time": 6.63}, {"pitch": 76, "velocity": 83, "note_on_time": 6.752, "note_off_time": 6.875}]</notes><guidance name="Guidance Mode">None</guidance><error name="Error value">1.39233</error></trial><trial trial_no="3" timestamp="2022_10_27-13_40_54"><notes name="Played Notes">[{"pitch": 74, "velocity": 89, "note_on_time": 1.005, "note_off_time": 1.118}, {"pitch": 74, "velocity": 95, "note_on_time": 1.265, "note_off_time": 1.618}, {"pitch": 74, "velocity": 87, "note_on_time": 1.792, "note_off_time": 2.156}, {"pitch": 79, "velocity": 73, "note_on_time": 2.305, "note_off_time": 2.473}, {"pitch": 77, "velocity": 85, "note_on_time": 2.58, "note_off_time": 2.725}, {"pitch": 77, "velocity": 84, "note_on_time": 2.837, "note_off_time": 3.014}, {"pitch": 77, "velocity": 59, "note_on_time": 3.127, "note_off_time": 3.297}, {"pitch": 74, "velocity": 77, "note_on_time": 3.358, "note_off_time": 3.477}, {"pitch": 77, "velocity": 79, "note_on_time": 3.653, "note_off_time": 3.759}, {"pitch": 79, "velocity": 91, "note_on_time": 4.221, "note_off_time": 4.34}, {"pitch": 79, "velocity": 81, "note_on_time": 4.468, "note_off_time": 4.591}, {"pitch": 79, "velocity": 85, "note_on_time": 4.751, "note_off_time": 4.903}, {"pitch": 79, "velocity": 71, "note_on_time": 5.01, "note_off_time": 5.2}, {"pitch": 72, "velocity": 79, "note_on_time": 5.293, "note_off_time": 5.443}, {"pitch": 77, "velocity": 81, "note_on_time": 5.541, "note_off_time": 5.695}, {"pitch": 72, "velocity": 85, "note_on_time": 5.812, "note_off_time": 5.951}, {"pitch": 74, "velocity": 95, "note_on_time": 6.097, "note_off_time": 6.208}, {"pitch": 76, "velocity": 88, "note_on_time": 6.385, "note_off_time": 6.502}, {"pitch": 77, "velocity": 79, "note_on_time": 7.351, "note_off_time": 7.466}, {"pitch": 77, "velocity": 81, "note_on_time": 7.599, "note_off_time": 7.698}]</notes><guidance name="Guidance Mode">None</guidance><error name="Error value">1.9639643750000002</error></trial><trial trial_no="4" timestamp="2022_10_27-13_41_10"><notes name="Played Notes">[{"pitch": 74, "velocity": 91, "note_on_time": 1.002, "note_off_time": 1.103}, {"pitch": 74, "velocity": 95, "note_on_time": 1.265, "note_off_time": 1.66}, {"pitch": 74, "velocity": 85, "note_on_time": 2.075, "note_off_time": 2.492}, {"pitch": 79, "velocity": 74, "note_on_time": 3.166, "note_off_time": 3.377}, {"pitch": 77, "velocity": 76, "note_on_time": 3.474, "note_off_time": 3.595}, {"pitch": 77, "velocity": 80, "note_on_time": 3.72, "note_off_time": 3.991}, {"pitch": 74, "velocity": 89, "note_on_time": 4.17, "note_off_time": 4.565}, {"pitch": 79, "velocity": 67, "note_on_time": 5.28, "note_off_time": 5.389}, {"pitch": 79, "velocity": 75, "note_on_time": 5.524, "note_off_time": 5.664}, {"pitch": 79, "velocity": 84, "note_on_time": 5.81, "note_off_time": 5.951}, {"pitch": 79, "velocity": 87, "note_on_time": 6.38, "note_off_time": 6.565}, {"pitch": 72, "velocity": 80, "note_on_time": 6.634, "note_off_time": 6.794}, {"pitch": 77, "velocity": 82, "note_on_time": 6.887, "note_off_time": 7.058}, {"pitch": 72, "velocity": 81, "note_on_time": 7.137, "note_off_time": 7.259}, {"pitch": 74, "velocity": 88, "note_on_time": 7.446, "note_off_time": 7.577}, {"pitch": 77, "velocity": 93, "note_on_time": 7.719, "note_off_time": 7.854}]</notes><guidance name="Guidance Mode">None</guidance><error name="Error value">1.363455625</error></trial><trial trial_no="5" timestamp="2022_10_27-13_41_28"><notes name="Played Notes">[{"pitch": 74, "velocity": 91, "note_on_time": 0.901, "note_off_time": 1.01}, {"pitch": 74, "velocity": 84, "note_on_time": 1.142, "note_off_time": 1.253}, {"pitch": 74, "velocity": 95, "note_on_time": 1.841, "note_off_time": 2.045}, {"pitch": 79, "velocity": 92, "note_on_time": 2.647, "note_off_time": 2.796}, {"pitch": 77, "velocity": 77, "note_on_time": 2.889, "note_off_time": 2.986}, {"pitch": 77, "velocity": 84, "note_on_time": 3.095, "note_off_time": 3.268}, {"pitch": 74, "velocity": 100, "note_on_time": 3.516, "note_off_time": 3.758}, {"pitch": 79, "velocity": 100, "note_on_time": 4.292, "note_off_time": 4.407}, {"pitch": 79, "velocity": 91, "note_on_time": 4.526, "note_off_time": 4.621}, {"pitch": 79, "velocity": 95, "note_on_time": 4.747, "note_off_time": 4.907}, {"pitch": 79, "velocity": 91, "note_on_time": 5.182, "note_off_time": 5.341}, {"pitch": 72, "velocity": 89, "note_on_time": 5.423, "note_off_time": 5.52}, {"pitch": 77, "velocity": 84, "note_on_time": 5.646, "note_off_time": 5.759}, {"pitch": 72, "velocity": 87, "note_on_time": 5.876, "note_off_time": 5.969}, {"pitch": 74, "velocity": 84, "note_on_time": 6.091, "note_off_time": 6.198}, {"pitch": 77, "velocity": 91, "note_on_time": 6.316, "note_off_time": 6.426}, {"pitch": 77, "velocity": 100, "note_on_time": 7.038, "note_off_time": 7.128}, {"pitch": 77, "velocity": 92, "note_on_time": 7.254, "note_off_time": 7.336}, {"pitch": 77, "velocity": 104, "note_on_time": 7.484, "note_off_time": 7.585}]</notes><guidance name="Guidance Mode">None</guidance><error name="Error value">1.2191696874999998</error></trial></trials></MIDI>