<MIDI midiNo="2022_11_03-13_33_11"><target_notes><notes name="Note List">[{"pitch": 42, "velocity": 80, "note_on_time": 0.004, "note_off_time": 0.251}, {"pitch": 42, "velocity": 80, "note_on_time": 0.251, "note_off_time": 0.502}, {"pitch": 42, "velocity": 80, "note_on_time": 0.502, "note_off_time": 0.751}, {"pitch": 42, "velocity": 80, "note_on_time": 0.751, "note_off_time": 0.998}, {"pitch": 42, "velocity": 80, "note_on_time": 0.998, "note_off_time": 1.247}, {"pitch": 60, "velocity": 80, "note_on_time": 0.998, "note_off_time": 1.495}, {"pitch": 42, "velocity": 80, "note_on_time": 1.247, "note_off_time": 1.496}, {"pitch": 42, "velocity": 80, "note_on_time": 1.496, "note_off_time": 1.745}, {"pitch": 42, "velocity": 80, "note_on_time": 1.745, "note_off_time": 1.992}, {"pitch": 42, "velocity": 80, "note_on_time": 1.993, "note_off_time": 2.24}, {"pitch": 60, "velocity": 80, "note_on_time": 1.992, "note_off_time": 2.489}, {"pitch": 42, "velocity": 80, "note_on_time": 2.241, "note_off_time": 2.489}, {"pitch": 42, "velocity": 80, "note_on_time": 2.489, "note_off_time": 2.738}, {"pitch": 42, "velocity": 80, "note_on_time": 2.738, "note_off_time": 2.987}, {"pitch": 42, "velocity": 80, "note_on_time": 2.987, "note_off_time": 3.237}, {"pitch": 62, "velocity": 80, "note_on_time": 2.986, "note_off_time": 3.486}, {"pitch": 42, "velocity": 80, "note_on_time": 3.237, "note_off_time": 3.486}, {"pitch": 64, "velocity": 80, "note_on_time": 3.486, "note_off_time": 3.734}, {"pitch": 42, "velocity": 80, "note_on_time": 3.486, "note_off_time": 3.735}, {"pitch": 64, "velocity": 80, "note_on_time": 3.734, "note_off_time": 3.985}, {"pitch": 42, "velocity": 80, "note_on_time": 3.735, "note_off_time": 3.986}, {"pitch": 62, "velocity": 80, "note_on_time": 3.985, "note_off_time": 4.235}, {"pitch": 42, "velocity": 80, "note_on_time": 3.986, "note_off_time": 4.235}, {"pitch": 62, "velocity": 80, "note_on_time": 4.235, "note_off_time": 4.486}, {"pitch": 42, "velocity": 80, "note_on_time": 4.236, "note_off_time": 4.486}, {"pitch": 62, "velocity": 80, "note_on_time": 4.486, "note_off_time": 4.734}, {"pitch": 42, "velocity": 80, "note_on_time": 4.486, "note_off_time": 4.735}, {"pitch": 64, "velocity": 80, "note_on_time": 4.734, "note_off_time": 4.984}, {"pitch": 42, "velocity": 80, "note_on_time": 4.735, "note_off_time": 4.984}, {"pitch": 60, "velocity": 80, "note_on_time": 4.984, "note_off_time": 5.232}, {"pitch": 42, "velocity": 80, "note_on_time": 4.984, "note_off_time": 5.232}, {"pitch": 42, "velocity": 80, "note_on_time": 5.233, "note_off_time": 5.482}, {"pitch": 64, "velocity": 80, "note_on_time": 5.481, "note_off_time": 5.729}, {"pitch": 42, "velocity": 80, "note_on_time": 5.482, "note_off_time": 5.73}, {"pitch": 64, "velocity": 80, "note_on_time": 5.729, "note_off_time": 5.978}, {"pitch": 42, "velocity": 80, "note_on_time": 5.73, "note_off_time": 5.978}, {"pitch": 62, "velocity": 80, "note_on_time": 5.978, "note_off_time": 6.226}, {"pitch": 42, "velocity": 80, "note_on_time": 5.979, "note_off_time": 6.226}, {"pitch": 60, "velocity": 80, "note_on_time": 6.226, "note_off_time": 6.475}, {"pitch": 42, "velocity": 80, "note_on_time": 6.227, "note_off_time": 6.475}, {"pitch": 64, "velocity": 80, "note_on_time": 6.475, "note_off_time": 6.725}, {"pitch": 42, "velocity": 80, "note_on_time": 6.475, "note_off_time": 6.725}, {"pitch": 64, "velocity": 80, "note_on_time": 6.725, "note_off_time": 6.974}, {"pitch": 42, "velocity": 80, "note_on_time": 6.725, "note_off_time": 6.975}, {"pitch": 62, "velocity": 80, "note_on_time": 6.974, "note_off_time": 7.222}, {"pitch": 42, "velocity": 80, "note_on_time": 6.975, "note_off_time": 7.222}, {"pitch": 60, "velocity": 80, "note_on_time": 7.222, "note_off_time": 7.471}, {"pitch": 42, "velocity": 80, "note_on_time": 7.222, "note_off_time": 7.471}, {"pitch": 42, "velocity": 80, "note_on_time": 7.471, "note_off_time": 7.72}, {"pitch": 42, "velocity": 80, "note_on_time": 7.721, "note_off_time": 7.97}, {"pitch": 42, "velocity": 80, "note_on_time": 7.971, "note_off_time": 8.219}, {"pitch": 60, "velocity": 80, "note_on_time": 8.218, "note_off_time": 8.467}, {"pitch": 42, "velocity": 80, "note_on_time": 8.219, "note_off_time": 8.468}, {"pitch": 60, "velocity": 80, "note_on_time": 8.467, "note_off_time": 8.717}, {"pitch": 42, "velocity": 80, "note_on_time": 8.468, "note_off_time": 8.718}, {"pitch": 60, "velocity": 80, "note_on_time": 8.717, "note_off_time": 8.967}, {"pitch": 42, "velocity": 80, "note_on_time": 8.718, "note_off_time": 8.967}]</notes><options name="Option List">((4, 4), [0.5, 0.25], 3, 8, &lt;NoteRangePerHand.THREE_NOTES: 4&gt;, &lt;NoteRangePerHand.ONE_NOTE: 2&gt;, False, True, False, 248)</options></target_notes><trials><trial trial_no="1" timestamp="2022_11_03-13_33_00"><notes name="Played Notes">[{"pitch": 60, "velocity": 74, "note_on_time": 1.036, "note_off_time": 1.503}, {"pitch": 60, "velocity": 79, "note_on_time": 2.001, "note_off_time": 2.561}, {"pitch": 62, "velocity": 64, "note_on_time": 2.941, "note_off_time": 3.379}, {"pitch": 64, "velocity": 57, "note_on_time": 3.498, "note_off_time": 3.611}, {"pitch": 64, "velocity": 47, "note_on_time": 3.724, "note_off_time": 3.9}, {"pitch": 62, "velocity": 66, "note_on_time": 3.988, "note_off_time": 4.12}, {"pitch": 62, "velocity": 58, "note_on_time": 4.227, "note_off_time": 4.366}, {"pitch": 62, "velocity": 66, "note_on_time": 4.494, "note_off_time": 4.665}, {"pitch": 64, "velocity": 61, "note_on_time": 4.732, "note_off_time": 4.938}, {"pitch": 60, "velocity": 64, "note_on_time": 5.019, "note_off_time": 5.218}, {"pitch": 64, "velocity": 71, "note_on_time": 5.522, "note_off_time": 5.665}, {"pitch": 64, "velocity": 71, "note_on_time": 5.759, "note_off_time": 5.929}, {"pitch": 62, "velocity": 60, "note_on_time": 6.024, "note_off_time": 6.202}, {"pitch": 60, "velocity": 58, "note_on_time": 6.276, "note_off_time": 6.409}, {"pitch": 64, "velocity": 65, "note_on_time": 6.504, "note_off_time": 6.648}, {"pitch": 64, "velocity": 64, "note_on_time": 6.742, "note_off_time": 6.911}, {"pitch": 62, "velocity": 56, "note_on_time": 6.996, "note_off_time": 7.174}, {"pitch": 60, "velocity": 49, "note_on_time": 7.273, "note_off_time": 7.38}, {"pitch": 60, "velocity": 60, "note_on_time": 8.095, "note_off_time": 8.347}, {"pitch": 60, "velocity": 80, "note_on_time": 8.433, "note_off_time": 8.558}, {"pitch": 60, "velocity": 56, "note_on_time": 8.673, "note_off_time": 8.839}]</notes><guidance name="Guidance Mode">None</guidance><error name="Error value">0.03247472222222203</error></trial></trials></MIDI>