<MIDI midiNo="20220202-152036"><target_notes><notes name="Note List">[{"pitch": 60, "velocity": 100, "note_on_time": 1.622, "note_off_time": 2.027}, {"pitch": 60, "velocity": 100, "note_on_time": 2.027, "note_off_time": 2.432}, {"pitch": 62, "velocity": 100, "note_on_time": 2.433, "note_off_time": 2.838}, {"pitch": 60, "velocity": 100, "note_on_time": 2.838, "note_off_time": 3.241}, {"pitch": 62, "velocity": 100, "note_on_time": 3.241, "note_off_time": 4.05}, {"pitch": 64, "velocity": 100, "note_on_time": 4.856, "note_off_time": 5.258}, {"pitch": 64, "velocity": 100, "note_on_time": 5.259, "note_off_time": 5.664}, {"pitch": 60, "velocity": 100, "note_on_time": 5.664, "note_off_time": 6.069}, {"pitch": 64, "velocity": 100, "note_on_time": 6.069, "note_off_time": 6.473}, {"pitch": 64, "velocity": 100, "note_on_time": 6.473, "note_off_time": 6.877}, {"pitch": 60, "velocity": 100, "note_on_time": 6.877, "note_off_time": 7.283}, {"pitch": 62, "velocity": 100, "note_on_time": 7.283, "note_off_time": 7.688}, {"pitch": 64, "velocity": 100, "note_on_time": 7.688, "note_off_time": 8.093}, {"pitch": 64, "velocity": 100, "note_on_time": 8.093, "note_off_time": 8.497}, {"pitch": 62, "velocity": 100, "note_on_time": 8.497, "note_off_time": 8.902}, {"pitch": 62, "velocity": 100, "note_on_time": 8.902, "note_off_time": 9.306}, {"pitch": 62, "velocity": 100, "note_on_time": 9.306, "note_off_time": 9.711}, {"pitch": 60, "velocity": 100, "note_on_time": 9.711, "note_off_time": 10.52}, {"pitch": 60, "velocity": 100, "note_on_time": 11.733, "note_off_time": 12.136}, {"pitch": 60, "velocity": 100, "note_on_time": 12.137, "note_off_time": 12.542}, {"pitch": 60, "velocity": 100, "note_on_time": 12.542, "note_off_time": 12.947}]</notes><options name="Option List">((4, 4), [0.5, 0.25], 3, 7, &lt;NoteRangePerHand.THREE_NOTES: 4&gt;, &lt;NoteRangePerHand.ONE_NOTE: 2&gt;, False, True, True, 150)</options></target_notes><trials><trial trial_no="1" timestamp="20220202-152021"><notes name="Played Notes">[{"pitch": 60, "velocity": 100, "note_on_time": 1.612, "note_off_time": 2.082}, {"pitch": 62, "velocity": 100, "note_on_time": 3.234, "note_off_time": 3.618}, {"pitch": 64, "velocity": 100, "note_on_time": 3.627, "note_off_time": 3.795}, {"pitch": 64, "velocity": 100, "note_on_time": 4.039, "note_off_time": 4.216}, {"pitch": 64, "velocity": 100, "note_on_time": 4.43, "note_off_time": 4.674}, {"pitch": 62, "velocity": 100, "note_on_time": 4.845, "note_off_time": 5.535}, {"pitch": 64, "velocity": 100, "note_on_time": 5.644, "note_off_time": 6.002}, {"pitch": 62, "velocity": 100, "note_on_time": 6.056, "note_off_time": 6.452}, {"pitch": 64, "velocity": 100, "note_on_time": 6.467, "note_off_time": 7.322}, {"pitch": 64, "velocity": 100, "note_on_time": 8.087, "note_off_time": 8.459}, {"pitch": 60, "velocity": 100, "note_on_time": 8.455, "note_off_time": 8.9}, {"pitch": 64, "velocity": 100, "note_on_time": 8.866, "note_off_time": 9.028}, {"pitch": 64, "velocity": 100, "note_on_time": 9.245, "note_off_time": 9.561}, {"pitch": 62, "velocity": 100, "note_on_time": 9.682, "note_off_time": 10.118}, {"pitch": 60, "velocity": 100, "note_on_time": 10.102, "note_off_time": 10.551}, {"pitch": 62, "velocity": 100, "note_on_time": 10.507, "note_off_time": 10.915}, {"pitch": 64, "velocity": 100, "note_on_time": 10.897, "note_off_time": 11.193}, {"pitch": 64, "velocity": 100, "note_on_time": 11.739, "note_off_time": 11.895}, {"pitch": 64, "velocity": 100, "note_on_time": 12.148, "note_off_time": 12.338}, {"pitch": 64, "velocity": 100, "note_on_time": 12.538, "note_off_time": 12.83}]</notes><guidance name="Guidance Mode">None</guidance><error name="Error value">21.287444444444446</error></trial><trial trial_no="2" timestamp="20220202-152051"><notes name="Played Notes">[{"pitch": 60, "velocity": 100, "note_on_time": 1.623, "note_off_time": 1.841}, {"pitch": 60, "velocity": 100, "note_on_time": 2.03, "note_off_time": 2.309}, {"pitch": 62, "velocity": 100, "note_on_time": 2.443, "note_off_time": 2.687}, {"pitch": 60, "velocity": 100, "note_on_time": 2.838, "note_off_time": 3.104}, {"pitch": 62, "velocity": 100, "note_on_time": 3.257, "note_off_time": 3.969}, {"pitch": 64, "velocity": 100, "note_on_time": 4.853, "note_off_time": 5.096}, {"pitch": 64, "velocity": 100, "note_on_time": 5.243, "note_off_time": 5.55}, {"pitch": 60, "velocity": 100, "note_on_time": 5.66, "note_off_time": 5.892}, {"pitch": 64, "velocity": 100, "note_on_time": 6.041, "note_off_time": 6.319}, {"pitch": 64, "velocity": 100, "note_on_time": 6.462, "note_off_time": 6.776}, {"pitch": 60, "velocity": 100, "note_on_time": 6.863, "note_off_time": 7.22}, {"pitch": 62, "velocity": 100, "note_on_time": 7.28, "note_off_time": 7.544}, {"pitch": 64, "velocity": 100, "note_on_time": 7.645, "note_off_time": 7.932}, {"pitch": 64, "velocity": 100, "note_on_time": 8.063, "note_off_time": 8.352}, {"pitch": 62, "velocity": 100, "note_on_time": 8.455, "note_off_time": 8.676}, {"pitch": 62, "velocity": 100, "note_on_time": 8.841, "note_off_time": 9.02}, {"pitch": 62, "velocity": 100, "note_on_time": 9.258, "note_off_time": 9.519}, {"pitch": 60, "velocity": 100, "note_on_time": 9.675, "note_off_time": 10.433}, {"pitch": 60, "velocity": 100, "note_on_time": 11.729, "note_off_time": 11.896}, {"pitch": 60, "velocity": 100, "note_on_time": 12.124, "note_off_time": 12.29}, {"pitch": 60, "velocity": 100, "note_on_time": 12.511, "note_off_time": 12.71}]</notes><guidance name="Guidance Mode">None</guidance><error name="Error value">19.496944444444445</error></trial></trials></MIDI>