<MIDI midiNo="20220202-152343"><target_notes><notes name="Note List">[{"pitch": 64, "velocity": 100, "note_on_time": 1.442, "note_off_time": 1.8}, {"pitch": 62, "velocity": 100, "note_on_time": 1.8, "note_off_time": 2.16}, {"pitch": 60, "velocity": 100, "note_on_time": 2.161, "note_off_time": 2.52}, {"pitch": 64, "velocity": 100, "note_on_time": 2.52, "note_off_time": 2.88}, {"pitch": 64, "velocity": 100, "note_on_time": 2.88, "note_off_time": 3.241}, {"pitch": 60, "velocity": 100, "note_on_time": 4.319, "note_off_time": 5.037}, {"pitch": 64, "velocity": 100, "note_on_time": 5.037, "note_off_time": 5.397}, {"pitch": 64, "velocity": 100, "note_on_time": 5.756, "note_off_time": 6.112}, {"pitch": 62, "velocity": 100, "note_on_time": 6.112, "note_off_time": 6.472}, {"pitch": 60, "velocity": 100, "note_on_time": 6.472, "note_off_time": 6.832}, {"pitch": 62, "velocity": 100, "note_on_time": 6.832, "note_off_time": 7.192}, {"pitch": 62, "velocity": 100, "note_on_time": 7.192, "note_off_time": 7.552}, {"pitch": 62, "velocity": 100, "note_on_time": 7.552, "note_off_time": 7.912}, {"pitch": 60, "velocity": 100, "note_on_time": 7.912, "note_off_time": 8.272}, {"pitch": 62, "velocity": 100, "note_on_time": 8.272, "note_off_time": 8.631}, {"pitch": 60, "velocity": 100, "note_on_time": 8.631, "note_off_time": 8.991}, {"pitch": 60, "velocity": 100, "note_on_time": 8.991, "note_off_time": 9.351}, {"pitch": 62, "velocity": 100, "note_on_time": 9.351, "note_off_time": 9.71}, {"pitch": 62, "velocity": 100, "note_on_time": 9.71, "note_off_time": 10.07}, {"pitch": 62, "velocity": 100, "note_on_time": 10.428, "note_off_time": 10.786}, {"pitch": 62, "velocity": 100, "note_on_time": 10.786, "note_off_time": 11.145}, {"pitch": 62, "velocity": 100, "note_on_time": 11.145, "note_off_time": 11.505}]</notes><options name="Option List">((4, 4), [0.5, 0.25], 3, 7, &lt;NoteRangePerHand.THREE_NOTES: 4&gt;, &lt;NoteRangePerHand.ONE_NOTE: 2&gt;, False, True, True, 169)</options></target_notes><trials><trial trial_no="1" timestamp="20220202-152329"><notes name="Played Notes">[{"pitch": 64, "velocity": 100, "note_on_time": 1.469, "note_off_time": 1.869}, {"pitch": 62, "velocity": 100, "note_on_time": 1.836, "note_off_time": 2.244}, {"pitch": 60, "velocity": 100, "note_on_time": 2.215, "note_off_time": 2.574}, {"pitch": 64, "velocity": 100, "note_on_time": 2.547, "note_off_time": 2.777}, {"pitch": 64, "velocity": 100, "note_on_time": 2.891, "note_off_time": 3.117}, {"pitch": 60, "velocity": 100, "note_on_time": 4.329, "note_off_time": 5.054}, {"pitch": 64, "velocity": 100, "note_on_time": 5.021, "note_off_time": 5.215}, {"pitch": 64, "velocity": 100, "note_on_time": 5.765, "note_off_time": 6.123}, {"pitch": 62, "velocity": 100, "note_on_time": 6.095, "note_off_time": 6.493}, {"pitch": 60, "velocity": 100, "note_on_time": 6.47, "note_off_time": 6.836}, {"pitch": 62, "velocity": 100, "note_on_time": 6.804, "note_off_time": 7.023}, {"pitch": 62, "velocity": 100, "note_on_time": 7.18, "note_off_time": 7.319}, {"pitch": 62, "velocity": 100, "note_on_time": 7.518, "note_off_time": 7.906}, {"pitch": 60, "velocity": 100, "note_on_time": 7.89, "note_off_time": 8.279}, {"pitch": 62, "velocity": 100, "note_on_time": 8.254, "note_off_time": 8.596}, {"pitch": 60, "velocity": 100, "note_on_time": 8.615, "note_off_time": 8.776}, {"pitch": 60, "velocity": 100, "note_on_time": 8.978, "note_off_time": 9.379}, {"pitch": 62, "velocity": 100, "note_on_time": 9.331, "note_off_time": 9.474}, {"pitch": 62, "velocity": 100, "note_on_time": 9.679, "note_off_time": 9.86}, {"pitch": 62, "velocity": 100, "note_on_time": 10.415, "note_off_time": 10.528}, {"pitch": 62, "velocity": 100, "note_on_time": 10.781, "note_off_time": 10.915}, {"pitch": 62, "velocity": 100, "note_on_time": 11.148, "note_off_time": 11.386}]</notes><guidance name="Guidance Mode">None</guidance><error name="Error value">20.131500763157895</error></trial><trial trial_no="2" timestamp="20220202-152357"><notes name="Played Notes">[{"pitch": 64, "velocity": 100, "note_on_time": 1.44, "note_off_time": 1.829}, {"pitch": 62, "velocity": 100, "note_on_time": 1.795, "note_off_time": 2.194}, {"pitch": 60, "velocity": 100, "note_on_time": 2.155, "note_off_time": 2.564}, {"pitch": 64, "velocity": 100, "note_on_time": 2.514, "note_off_time": 2.792}, {"pitch": 64, "velocity": 100, "note_on_time": 2.897, "note_off_time": 3.151}, {"pitch": 60, "velocity": 100, "note_on_time": 4.308, "note_off_time": 5.063}, {"pitch": 64, "velocity": 100, "note_on_time": 5.026, "note_off_time": 5.349}, {"pitch": 64, "velocity": 100, "note_on_time": 5.738, "note_off_time": 6.106}, {"pitch": 62, "velocity": 100, "note_on_time": 6.075, "note_off_time": 6.446}, {"pitch": 60, "velocity": 100, "note_on_time": 6.434, "note_off_time": 6.832}, {"pitch": 62, "velocity": 100, "note_on_time": 6.791, "note_off_time": 7.045}, {"pitch": 62, "velocity": 100, "note_on_time": 7.188, "note_off_time": 7.368}, {"pitch": 62, "velocity": 100, "note_on_time": 7.552, "note_off_time": 7.913}, {"pitch": 60, "velocity": 100, "note_on_time": 7.893, "note_off_time": 8.275}, {"pitch": 62, "velocity": 100, "note_on_time": 8.229, "note_off_time": 8.587}, {"pitch": 60, "velocity": 100, "note_on_time": 8.585, "note_off_time": 8.797}, {"pitch": 60, "velocity": 100, "note_on_time": 8.94, "note_off_time": 9.31}, {"pitch": 62, "velocity": 100, "note_on_time": 9.275, "note_off_time": 9.504}, {"pitch": 62, "velocity": 100, "note_on_time": 9.67, "note_off_time": 9.926}, {"pitch": 62, "velocity": 100, "note_on_time": 10.403, "note_off_time": 10.555}, {"pitch": 62, "velocity": 100, "note_on_time": 10.752, "note_off_time": 10.911}, {"pitch": 62, "velocity": 100, "note_on_time": 11.112, "note_off_time": 11.367}]</notes><guidance name="Guidance Mode">None</guidance><error name="Error value">19.840109447368423</error></trial></trials></MIDI>