<MIDI midiNo="2022_11_03-09_07_30"><target_notes><notes name="Note List">[{"pitch": 42, "velocity": 80, "note_on_time": 0.004, "note_off_time": 0.271}, {"pitch": 42, "velocity": 80, "note_on_time": 0.271, "note_off_time": 0.534}, {"pitch": 42, "velocity": 80, "note_on_time": 0.534, "note_off_time": 0.798}, {"pitch": 42, "velocity": 80, "note_on_time": 0.798, "note_off_time": 1.062}, {"pitch": 67, "velocity": 80, "note_on_time": 1.062, "note_off_time": 1.326}, {"pitch": 42, "velocity": 80, "note_on_time": 1.062, "note_off_time": 1.327}, {"pitch": 42, "velocity": 80, "note_on_time": 1.327, "note_off_time": 1.59}, {"pitch": 67, "velocity": 80, "note_on_time": 1.326, "note_off_time": 1.854}, {"pitch": 42, "velocity": 80, "note_on_time": 1.591, "note_off_time": 1.855}, {"pitch": 60, "velocity": 80, "note_on_time": 1.854, "note_off_time": 2.12}, {"pitch": 42, "velocity": 80, "note_on_time": 1.855, "note_off_time": 2.12}, {"pitch": 65, "velocity": 80, "note_on_time": 2.12, "note_off_time": 2.384}, {"pitch": 42, "velocity": 80, "note_on_time": 2.12, "note_off_time": 2.385}, {"pitch": 67, "velocity": 80, "note_on_time": 2.384, "note_off_time": 2.649}, {"pitch": 42, "velocity": 80, "note_on_time": 2.385, "note_off_time": 2.649}, {"pitch": 67, "velocity": 80, "note_on_time": 2.649, "note_off_time": 2.913}, {"pitch": 42, "velocity": 80, "note_on_time": 2.649, "note_off_time": 2.913}, {"pitch": 67, "velocity": 80, "note_on_time": 2.913, "note_off_time": 3.178}, {"pitch": 42, "velocity": 80, "note_on_time": 2.913, "note_off_time": 3.178}, {"pitch": 42, "velocity": 80, "note_on_time": 3.178, "note_off_time": 3.443}, {"pitch": 65, "velocity": 80, "note_on_time": 3.178, "note_off_time": 3.708}, {"pitch": 42, "velocity": 80, "note_on_time": 3.444, "note_off_time": 3.708}, {"pitch": 42, "velocity": 80, "note_on_time": 3.708, "note_off_time": 3.974}, {"pitch": 42, "velocity": 80, "note_on_time": 3.974, "note_off_time": 4.24}, {"pitch": 62, "velocity": 80, "note_on_time": 4.24, "note_off_time": 4.505}, {"pitch": 42, "velocity": 80, "note_on_time": 4.24, "note_off_time": 4.505}, {"pitch": 42, "velocity": 80, "note_on_time": 4.505, "note_off_time": 4.769}, {"pitch": 42, "velocity": 80, "note_on_time": 4.769, "note_off_time": 5.033}, {"pitch": 42, "velocity": 80, "note_on_time": 5.033, "note_off_time": 5.297}, {"pitch": 67, "velocity": 80, "note_on_time": 5.297, "note_off_time": 5.563}, {"pitch": 42, "velocity": 80, "note_on_time": 5.297, "note_off_time": 5.563}, {"pitch": 62, "velocity": 80, "note_on_time": 5.563, "note_off_time": 5.829}, {"pitch": 42, "velocity": 80, "note_on_time": 5.563, "note_off_time": 5.829}, {"pitch": 62, "velocity": 80, "note_on_time": 5.829, "note_off_time": 6.093}, {"pitch": 42, "velocity": 80, "note_on_time": 5.829, "note_off_time": 6.093}, {"pitch": 64, "velocity": 80, "note_on_time": 6.093, "note_off_time": 6.358}, {"pitch": 42, "velocity": 80, "note_on_time": 6.093, "note_off_time": 6.358}, {"pitch": 62, "velocity": 80, "note_on_time": 6.358, "note_off_time": 6.622}, {"pitch": 42, "velocity": 80, "note_on_time": 6.358, "note_off_time": 6.622}, {"pitch": 42, "velocity": 80, "note_on_time": 6.623, "note_off_time": 6.886}, {"pitch": 67, "velocity": 80, "note_on_time": 6.622, "note_off_time": 7.152}, {"pitch": 42, "velocity": 80, "note_on_time": 6.886, "note_off_time": 7.152}, {"pitch": 42, "velocity": 80, "note_on_time": 7.152, "note_off_time": 7.415}, {"pitch": 64, "velocity": 80, "note_on_time": 7.415, "note_off_time": 7.679}, {"pitch": 42, "velocity": 80, "note_on_time": 7.415, "note_off_time": 7.679}, {"pitch": 64, "velocity": 80, "note_on_time": 7.679, "note_off_time": 7.945}, {"pitch": 42, "velocity": 80, "note_on_time": 7.679, "note_off_time": 7.945}, {"pitch": 65, "velocity": 80, "note_on_time": 7.945, "note_off_time": 8.211}, {"pitch": 42, "velocity": 80, "note_on_time": 7.946, "note_off_time": 8.211}, {"pitch": 60, "velocity": 80, "note_on_time": 8.211, "note_off_time": 8.475}, {"pitch": 42, "velocity": 80, "note_on_time": 8.211, "note_off_time": 8.475}, {"pitch": 42, "velocity": 80, "note_on_time": 8.475, "note_off_time": 8.739}, {"pitch": 60, "velocity": 80, "note_on_time": 8.739, "note_off_time": 9.003}, {"pitch": 42, "velocity": 80, "note_on_time": 8.739, "note_off_time": 9.003}, {"pitch": 60, "velocity": 80, "note_on_time": 9.003, "note_off_time": 9.267}, {"pitch": 42, "velocity": 80, "note_on_time": 9.004, "note_off_time": 9.267}, {"pitch": 60, "velocity": 80, "note_on_time": 9.267, "note_off_time": 9.533}, {"pitch": 42, "velocity": 80, "note_on_time": 9.267, "note_off_time": 9.533}]</notes><options name="Option List">((4, 4), [0.5, 0.25], 3, 8, &lt;NoteRangePerHand.C_TO_G: 6&gt;, &lt;NoteRangePerHand.ONE_NOTE: 2&gt;, False, True, False, '232')</options></target_notes><trials><trial trial_no="1" timestamp="2022_11_03-09_07_19"><notes name="Played Notes">[{"pitch": 67, "velocity": 66, "note_on_time": 1.111, "note_off_time": 1.231}, {"pitch": 67, "velocity": 75, "note_on_time": 1.398, "note_off_time": 1.808}, {"pitch": 60, "velocity": 71, "note_on_time": 1.925, "note_off_time": 2.268}, {"pitch": 65, "velocity": 78, "note_on_time": 2.201, "note_off_time": 2.464}, {"pitch": 67, "velocity": 73, "note_on_time": 2.42, "note_off_time": 2.525}, {"pitch": 67, "velocity": 72, "note_on_time": 2.667, "note_off_time": 2.777}, {"pitch": 67, "velocity": 69, "note_on_time": 2.898, "note_off_time": 2.994}, {"pitch": 65, "velocity": 64, "note_on_time": 3.183, "note_off_time": 3.685}, {"pitch": 62, "velocity": 60, "note_on_time": 4.243, "note_off_time": 4.549}, {"pitch": 67, "velocity": 62, "note_on_time": 5.306, "note_off_time": 5.551}, {"pitch": 62, "velocity": 70, "note_on_time": 5.56, "note_off_time": 5.688}, {"pitch": 62, "velocity": 62, "note_on_time": 5.827, "note_off_time": 6.091}, {"pitch": 64, "velocity": 68, "note_on_time": 6.082, "note_off_time": 6.345}, {"pitch": 62, "velocity": 69, "note_on_time": 6.317, "note_off_time": 6.662}, {"pitch": 67, "velocity": 59, "note_on_time": 6.577, "note_off_time": 7.006}, {"pitch": 64, "velocity": 59, "note_on_time": 7.446, "note_off_time": 7.565}, {"pitch": 64, "velocity": 54, "note_on_time": 7.71, "note_off_time": 8.006}, {"pitch": 65, "velocity": 55, "note_on_time": 7.983, "note_off_time": 8.268}, {"pitch": 60, "velocity": 48, "note_on_time": 8.207, "note_off_time": 8.537}, {"pitch": 60, "velocity": 67, "note_on_time": 8.742, "note_off_time": 8.872}, {"pitch": 60, "velocity": 64, "note_on_time": 9.001, "note_off_time": 9.125}, {"pitch": 60, "velocity": 54, "note_on_time": 9.245, "note_off_time": 9.434}]</notes><guidance name="Guidance Mode">None</guidance><error name="Error value">0.022984210526315666</error></trial><trial trial_no="2" timestamp="2022_11_03-09_07_38"><notes name="Played Notes">[{"pitch": 67, "velocity": 66, "note_on_time": 1.078, "note_off_time": 1.197}, {"pitch": 67, "velocity": 70, "note_on_time": 1.378, "note_off_time": 1.793}, {"pitch": 60, "velocity": 71, "note_on_time": 1.922, "note_off_time": 2.249}, {"pitch": 65, "velocity": 80, "note_on_time": 2.191, "note_off_time": 2.428}, {"pitch": 67, "velocity": 82, "note_on_time": 2.408, "note_off_time": 2.49}, {"pitch": 67, "velocity": 79, "note_on_time": 2.654, "note_off_time": 2.748}, {"pitch": 67, "velocity": 71, "note_on_time": 2.913, "note_off_time": 3.014}, {"pitch": 65, "velocity": 71, "note_on_time": 3.195, "note_off_time": 3.564}, {"pitch": 62, "velocity": 58, "note_on_time": 4.226, "note_off_time": 4.362}, {"pitch": 67, "velocity": 61, "note_on_time": 5.324, "note_off_time": 5.618}, {"pitch": 62, "velocity": 62, "note_on_time": 5.582, "note_off_time": 5.709}, {"pitch": 62, "velocity": 59, "note_on_time": 5.845, "note_off_time": 6.112}, {"pitch": 64, "velocity": 67, "note_on_time": 6.091, "note_off_time": 6.397}, {"pitch": 62, "velocity": 64, "note_on_time": 6.345, "note_off_time": 6.674}, {"pitch": 67, "velocity": 59, "note_on_time": 6.596, "note_off_time": 7.047}, {"pitch": 64, "velocity": 58, "note_on_time": 7.459, "note_off_time": 7.573}, {"pitch": 64, "velocity": 50, "note_on_time": 7.697, "note_off_time": 7.991}, {"pitch": 65, "velocity": 66, "note_on_time": 7.967, "note_off_time": 8.259}, {"pitch": 60, "velocity": 64, "note_on_time": 8.211, "note_off_time": 8.524}, {"pitch": 60, "velocity": 67, "note_on_time": 8.732, "note_off_time": 8.851}, {"pitch": 60, "velocity": 60, "note_on_time": 8.978, "note_off_time": 9.115}, {"pitch": 60, "velocity": 62, "note_on_time": 9.225, "note_off_time": 9.376}]</notes><guidance name="Guidance Mode">None</guidance><error name="Error value">0.021849473684210283</error></trial><trial trial_no="3" timestamp="2022_11_03-09_07_56"><notes name="Played Notes">[{"pitch": 67, "velocity": 77, "note_on_time": 1.078, "note_off_time": 1.177}, {"pitch": 67, "velocity": 70, "note_on_time": 1.361, "note_off_time": 1.767}, {"pitch": 60, "velocity": 71, "note_on_time": 1.895, "note_off_time": 2.237}, {"pitch": 65, "velocity": 77, "note_on_time": 2.164, "note_off_time": 2.446}, {"pitch": 67, "velocity": 63, "note_on_time": 2.398, "note_off_time": 2.493}, {"pitch": 67, "velocity": 68, "note_on_time": 2.632, "note_off_time": 2.707}, {"pitch": 67, "velocity": 72, "note_on_time": 2.871, "note_off_time": 2.935}, {"pitch": 65, "velocity": 67, "note_on_time": 3.172, "note_off_time": 3.581}, {"pitch": 62, "velocity": 42, "note_on_time": 4.239, "note_off_time": 4.487}, {"pitch": 67, "velocity": 53, "note_on_time": 5.318, "note_off_time": 5.612}, {"pitch": 62, "velocity": 62, "note_on_time": 5.569, "note_off_time": 5.692}, {"pitch": 62, "velocity": 59, "note_on_time": 5.83, "note_off_time": 6.099}, {"pitch": 64, "velocity": 74, "note_on_time": 6.081, "note_off_time": 6.38}, {"pitch": 62, "velocity": 65, "note_on_time": 6.336, "note_off_time": 6.683}, {"pitch": 67, "velocity": 59, "note_on_time": 6.598, "note_off_time": 7.075}, {"pitch": 64, "velocity": 52, "note_on_time": 7.429, "note_off_time": 7.53}, {"pitch": 64, "velocity": 53, "note_on_time": 7.681, "note_off_time": 7.95}, {"pitch": 65, "velocity": 65, "note_on_time": 7.94, "note_off_time": 8.234}, {"pitch": 60, "velocity": 60, "note_on_time": 8.193, "note_off_time": 8.494}, {"pitch": 60, "velocity": 65, "note_on_time": 8.716, "note_off_time": 8.847}, {"pitch": 60, "velocity": 60, "note_on_time": 8.996, "note_off_time": 9.129}, {"pitch": 60, "velocity": 52, "note_on_time": 9.255, "note_off_time": 9.407}]</notes><guidance name="Guidance Mode">None</guidance><error name="Error value">0.018931578947368417</error></trial></trials></MIDI>