<MIDI midiNo="2022_09_12-11_49_54"><target_notes><notes name="Note List">[{"pitch": 42, "velocity": 80, "note_on_time": 0.004, "note_off_time": 0.317}, {"pitch": 42, "velocity": 80, "note_on_time": 0.317, "note_off_time": 0.628}, {"pitch": 42, "velocity": 80, "note_on_time": 0.628, "note_off_time": 0.94}, {"pitch": 42, "velocity": 80, "note_on_time": 0.94, "note_off_time": 1.248}, {"pitch": 64, "velocity": 80, "note_on_time": 1.248, "note_off_time": 1.56}, {"pitch": 42, "velocity": 80, "note_on_time": 1.248, "note_off_time": 1.56}, {"pitch": 62, "velocity": 80, "note_on_time": 1.56, "note_off_time": 1.872}, {"pitch": 42, "velocity": 80, "note_on_time": 1.56, "note_off_time": 1.873}, {"pitch": 64, "velocity": 80, "note_on_time": 1.873, "note_off_time": 2.187}, {"pitch": 42, "velocity": 80, "note_on_time": 1.873, "note_off_time": 2.188}, {"pitch": 62, "velocity": 80, "note_on_time": 2.187, "note_off_time": 2.498}, {"pitch": 42, "velocity": 80, "note_on_time": 2.188, "note_off_time": 2.498}, {"pitch": 60, "velocity": 80, "note_on_time": 2.498, "note_off_time": 2.809}, {"pitch": 42, "velocity": 80, "note_on_time": 2.499, "note_off_time": 2.81}, {"pitch": 42, "velocity": 80, "note_on_time": 2.81, "note_off_time": 3.121}, {"pitch": 42, "velocity": 80, "note_on_time": 3.122, "note_off_time": 3.434}, {"pitch": 42, "velocity": 80, "note_on_time": 3.434, "note_off_time": 3.745}, {"pitch": 62, "velocity": 80, "note_on_time": 3.745, "note_off_time": 4.056}, {"pitch": 42, "velocity": 80, "note_on_time": 3.745, "note_off_time": 4.056}, {"pitch": 42, "velocity": 80, "note_on_time": 4.056, "note_off_time": 4.369}, {"pitch": 64, "velocity": 80, "note_on_time": 4.056, "note_off_time": 4.682}, {"pitch": 42, "velocity": 80, "note_on_time": 4.369, "note_off_time": 4.682}, {"pitch": 60, "velocity": 80, "note_on_time": 4.682, "note_off_time": 4.992}, {"pitch": 42, "velocity": 80, "note_on_time": 4.683, "note_off_time": 4.992}, {"pitch": 42, "velocity": 80, "note_on_time": 4.992, "note_off_time": 5.303}, {"pitch": 62, "velocity": 80, "note_on_time": 4.992, "note_off_time": 5.616}, {"pitch": 42, "velocity": 80, "note_on_time": 5.303, "note_off_time": 5.616}, {"pitch": 42, "velocity": 80, "note_on_time": 5.617, "note_off_time": 5.927}, {"pitch": 62, "velocity": 80, "note_on_time": 5.927, "note_off_time": 6.239}, {"pitch": 42, "velocity": 80, "note_on_time": 5.927, "note_off_time": 6.239}, {"pitch": 62, "velocity": 80, "note_on_time": 6.239, "note_off_time": 6.55}, {"pitch": 42, "velocity": 80, "note_on_time": 6.239, "note_off_time": 6.55}, {"pitch": 62, "velocity": 80, "note_on_time": 6.55, "note_off_time": 6.862}, {"pitch": 42, "velocity": 80, "note_on_time": 6.55, "note_off_time": 6.862}, {"pitch": 62, "velocity": 80, "note_on_time": 6.862, "note_off_time": 7.172}, {"pitch": 42, "velocity": 80, "note_on_time": 6.862, "note_off_time": 7.172}, {"pitch": 60, "velocity": 80, "note_on_time": 7.172, "note_off_time": 7.483}, {"pitch": 42, "velocity": 80, "note_on_time": 7.172, "note_off_time": 7.483}, {"pitch": 64, "velocity": 80, "note_on_time": 7.483, "note_off_time": 7.796}, {"pitch": 42, "velocity": 80, "note_on_time": 7.483, "note_off_time": 7.796}, {"pitch": 62, "velocity": 80, "note_on_time": 7.796, "note_off_time": 8.11}, {"pitch": 42, "velocity": 80, "note_on_time": 7.797, "note_off_time": 8.11}, {"pitch": 60, "velocity": 80, "note_on_time": 8.11, "note_off_time": 8.421}, {"pitch": 42, "velocity": 80, "note_on_time": 8.111, "note_off_time": 8.422}, {"pitch": 64, "velocity": 80, "note_on_time": 8.421, "note_off_time": 8.732}, {"pitch": 42, "velocity": 80, "note_on_time": 8.422, "note_off_time": 8.732}, {"pitch": 42, "velocity": 80, "note_on_time": 8.733, "note_off_time": 9.043}, {"pitch": 64, "velocity": 80, "note_on_time": 8.732, "note_off_time": 9.355}, {"pitch": 42, "velocity": 80, "note_on_time": 9.044, "note_off_time": 9.355}, {"pitch": 42, "velocity": 80, "note_on_time": 9.356, "note_off_time": 9.668}, {"pitch": 42, "velocity": 80, "note_on_time": 9.669, "note_off_time": 9.976}, {"pitch": 42, "velocity": 80, "note_on_time": 9.977, "note_off_time": 10.288}, {"pitch": 64, "velocity": 80, "note_on_time": 10.288, "note_off_time": 10.598}, {"pitch": 42, "velocity": 80, "note_on_time": 10.289, "note_off_time": 10.598}, {"pitch": 64, "velocity": 80, "note_on_time": 10.598, "note_off_time": 10.91}, {"pitch": 42, "velocity": 80, "note_on_time": 10.599, "note_off_time": 10.911}, {"pitch": 64, "velocity": 80, "note_on_time": 10.91, "note_off_time": 11.222}, {"pitch": 42, "velocity": 80, "note_on_time": 10.911, "note_off_time": 11.222}]</notes><options name="Option List">((4, 4), [0.5, 0.25], 3, 8, &lt;NoteRangePerHand.THREE_NOTES: 4&gt;, &lt;NoteRangePerHand.ONE_NOTE: 2&gt;, False, True, True, '200')</options></target_notes><trials><trial trial_no="1" timestamp="2022_09_12-11_49_42"><notes name="Played Notes">[{"pitch": 64, "velocity": 80, "note_on_time": 1.278, "note_off_time": 1.462}, {"pitch": 62, "velocity": 84, "note_on_time": 1.619, "note_off_time": 1.756}, {"pitch": 64, "velocity": 85, "note_on_time": 1.907, "note_off_time": 2.06}, {"pitch": 62, "velocity": 87, "note_on_time": 2.199, "note_off_time": 2.341}, {"pitch": 60, "velocity": 91, "note_on_time": 2.483, "note_off_time": 2.641}, {"pitch": 64, "velocity": 71, "note_on_time": 3.594, "note_off_time": 3.734}, {"pitch": 62, "velocity": 86, "note_on_time": 3.907, "note_off_time": 4.196}, {"pitch": 60, "velocity": 89, "note_on_time": 5.089, "note_off_time": 5.238}, {"pitch": 62, "velocity": 61, "note_on_time": 5.567, "note_off_time": 6.028}, {"pitch": 62, "velocity": 92, "note_on_time": 6.358, "note_off_time": 6.459}, {"pitch": 62, "velocity": 93, "note_on_time": 6.604, "note_off_time": 6.701}, {"pitch": 62, "velocity": 91, "note_on_time": 6.882, "note_off_time": 7.001}, {"pitch": 62, "velocity": 79, "note_on_time": 7.198, "note_off_time": 7.346}, {"pitch": 60, "velocity": 84, "note_on_time": 8.081, "note_off_time": 8.24}, {"pitch": 64, "velocity": 76, "note_on_time": 8.48, "note_off_time": 8.605}, {"pitch": 62, "velocity": 83, "note_on_time": 8.797, "note_off_time": 8.932}, {"pitch": 60, "velocity": 79, "note_on_time": 9.071, "note_off_time": 9.212}, {"pitch": 64, "velocity": 83, "note_on_time": 9.394, "note_off_time": 9.532}, {"pitch": 64, "velocity": 89, "note_on_time": 9.727, "note_off_time": 10.214}, {"pitch": 64, "velocity": 81, "note_on_time": 11.04, "note_off_time": 11.159}]</notes><guidance name="Guidance Mode">None</guidance><error name="Error value">0.41110526315789475</error></trial><trial trial_no="2" timestamp="2022_09_12-11_50_04"><notes name="Played Notes">[{"pitch": 64, "velocity": 83, "note_on_time": 1.326, "note_off_time": 1.487}, {"pitch": 62, "velocity": 83, "note_on_time": 1.614, "note_off_time": 1.781}, {"pitch": 64, "velocity": 78, "note_on_time": 1.909, "note_off_time": 2.072}, {"pitch": 60, "velocity": 87, "note_on_time": 2.266, "note_off_time": 2.448}, {"pitch": 62, "velocity": 87, "note_on_time": 3.858, "note_off_time": 3.979}, {"pitch": 64, "velocity": 88, "note_on_time": 4.121, "note_off_time": 4.645}, {"pitch": 60, "velocity": 85, "note_on_time": 4.983, "note_off_time": 5.156}, {"pitch": 62, "velocity": 84, "note_on_time": 5.309, "note_off_time": 5.857}, {"pitch": 62, "velocity": 86, "note_on_time": 6.803, "note_off_time": 6.943}, {"pitch": 62, "velocity": 91, "note_on_time": 7.093, "note_off_time": 7.211}, {"pitch": 62, "velocity": 84, "note_on_time": 7.387, "note_off_time": 7.513}, {"pitch": 62, "velocity": 87, "note_on_time": 7.713, "note_off_time": 7.84}, {"pitch": 60, "velocity": 85, "note_on_time": 7.997, "note_off_time": 8.164}, {"pitch": 64, "velocity": 87, "note_on_time": 8.316, "note_off_time": 8.475}, {"pitch": 62, "velocity": 82, "note_on_time": 8.676, "note_off_time": 8.804}, {"pitch": 60, "velocity": 89, "note_on_time": 8.957, "note_off_time": 9.127}, {"pitch": 64, "velocity": 83, "note_on_time": 9.293, "note_off_time": 9.447}, {"pitch": 64, "velocity": 91, "note_on_time": 9.629, "note_off_time": 10.048}, {"pitch": 64, "velocity": 93, "note_on_time": 10.978, "note_off_time": 11.11}]</notes><guidance name="Guidance Mode">None</guidance><error name="Error value">0.39394736842105277</error></trial><trial trial_no="3" timestamp="2022_09_12-11_50_27"><notes name="Played Notes">[{"pitch": 64, "velocity": 88, "note_on_time": 1.284, "note_off_time": 1.436}, {"pitch": 62, "velocity": 87, "note_on_time": 1.575, "note_off_time": 1.718}, {"pitch": 64, "velocity": 87, "note_on_time": 1.873, "note_off_time": 2.031}, {"pitch": 62, "velocity": 82, "note_on_time": 2.192, "note_off_time": 2.315}, {"pitch": 60, "velocity": 89, "note_on_time": 2.468, "note_off_time": 2.613}, {"pitch": 62, "velocity": 81, "note_on_time": 3.911, "note_off_time": 4.055}, {"pitch": 64, "velocity": 85, "note_on_time": 4.2, "note_off_time": 4.615}, {"pitch": 60, "velocity": 95, "note_on_time": 5.039, "note_off_time": 5.169}, {"pitch": 62, "velocity": 85, "note_on_time": 5.327, "note_off_time": 5.772}, {"pitch": 62, "velocity": 87, "note_on_time": 6.523, "note_off_time": 6.621}, {"pitch": 62, "velocity": 88, "note_on_time": 6.8, "note_off_time": 6.904}, {"pitch": 62, "velocity": 85, "note_on_time": 7.092, "note_off_time": 7.188}, {"pitch": 62, "velocity": 89, "note_on_time": 7.41, "note_off_time": 7.52}, {"pitch": 60, "velocity": 64, "note_on_time": 7.761, "note_off_time": 7.918}, {"pitch": 64, "velocity": 83, "note_on_time": 8.136, "note_off_time": 8.268}, {"pitch": 62, "velocity": 83, "note_on_time": 8.465, "note_off_time": 8.577}, {"pitch": 60, "velocity": 81, "note_on_time": 8.731, "note_off_time": 8.875}, {"pitch": 64, "velocity": 76, "note_on_time": 9.093, "note_off_time": 9.219}, {"pitch": 64, "velocity": 89, "note_on_time": 9.418, "note_off_time": 9.785}, {"pitch": 64, "velocity": 87, "note_on_time": 10.622, "note_off_time": 10.727}, {"pitch": 64, "velocity": 88, "note_on_time": 10.891, "note_off_time": 10.998}]</notes><guidance name="Guidance Mode">None</guidance><error name="Error value">0.1477368421052631</error></trial></trials></MIDI>