<MIDI midiNo="2022_11_03-10_35_29"><target_notes><notes name="Note List">[{"pitch": 42, "velocity": 80, "note_on_time": 0.004, "note_off_time": 0.223}, {"pitch": 42, "velocity": 80, "note_on_time": 0.223, "note_off_time": 0.441}, {"pitch": 42, "velocity": 80, "note_on_time": 0.441, "note_off_time": 0.658}, {"pitch": 42, "velocity": 80, "note_on_time": 0.658, "note_off_time": 0.873}, {"pitch": 42, "velocity": 80, "note_on_time": 0.873, "note_off_time": 1.091}, {"pitch": 60, "velocity": 80, "note_on_time": 0.873, "note_off_time": 1.311}, {"pitch": 42, "velocity": 80, "note_on_time": 1.091, "note_off_time": 1.311}, {"pitch": 62, "velocity": 80, "note_on_time": 1.311, "note_off_time": 1.527}, {"pitch": 42, "velocity": 80, "note_on_time": 1.311, "note_off_time": 1.527}, {"pitch": 65, "velocity": 80, "note_on_time": 1.527, "note_off_time": 1.746}, {"pitch": 42, "velocity": 80, "note_on_time": 1.527, "note_off_time": 1.746}, {"pitch": 42, "velocity": 80, "note_on_time": 1.746, "note_off_time": 1.964}, {"pitch": 64, "velocity": 80, "note_on_time": 1.746, "note_off_time": 2.182}, {"pitch": 42, "velocity": 80, "note_on_time": 1.964, "note_off_time": 2.182}, {"pitch": 42, "velocity": 80, "note_on_time": 2.182, "note_off_time": 2.399}, {"pitch": 62, "velocity": 80, "note_on_time": 2.399, "note_off_time": 2.616}, {"pitch": 42, "velocity": 80, "note_on_time": 2.399, "note_off_time": 2.616}, {"pitch": 60, "velocity": 80, "note_on_time": 2.616, "note_off_time": 2.835}, {"pitch": 42, "velocity": 80, "note_on_time": 2.616, "note_off_time": 2.835}, {"pitch": 64, "velocity": 80, "note_on_time": 2.835, "note_off_time": 3.052}, {"pitch": 42, "velocity": 80, "note_on_time": 2.835, "note_off_time": 3.052}, {"pitch": 64, "velocity": 80, "note_on_time": 3.052, "note_off_time": 3.27}, {"pitch": 42, "velocity": 80, "note_on_time": 3.052, "note_off_time": 3.27}, {"pitch": 67, "velocity": 80, "note_on_time": 3.27, "note_off_time": 3.488}, {"pitch": 42, "velocity": 80, "note_on_time": 3.27, "note_off_time": 3.488}, {"pitch": 64, "velocity": 80, "note_on_time": 3.488, "note_off_time": 3.705}, {"pitch": 42, "velocity": 80, "note_on_time": 3.488, "note_off_time": 3.705}, {"pitch": 67, "velocity": 80, "note_on_time": 3.705, "note_off_time": 3.921}, {"pitch": 42, "velocity": 80, "note_on_time": 3.706, "note_off_time": 3.921}, {"pitch": 64, "velocity": 80, "note_on_time": 3.921, "note_off_time": 4.142}, {"pitch": 42, "velocity": 80, "note_on_time": 3.921, "note_off_time": 4.142}, {"pitch": 67, "velocity": 80, "note_on_time": 4.142, "note_off_time": 4.362}, {"pitch": 42, "velocity": 80, "note_on_time": 4.142, "note_off_time": 4.362}, {"pitch": 64, "velocity": 80, "note_on_time": 4.362, "note_off_time": 4.581}, {"pitch": 42, "velocity": 80, "note_on_time": 4.362, "note_off_time": 4.581}, {"pitch": 42, "velocity": 80, "note_on_time": 4.581, "note_off_time": 4.797}, {"pitch": 67, "velocity": 80, "note_on_time": 4.581, "note_off_time": 5.016}, {"pitch": 42, "velocity": 80, "note_on_time": 4.797, "note_off_time": 5.016}, {"pitch": 42, "velocity": 80, "note_on_time": 5.016, "note_off_time": 5.234}, {"pitch": 64, "velocity": 80, "note_on_time": 5.234, "note_off_time": 5.451}, {"pitch": 42, "velocity": 80, "note_on_time": 5.234, "note_off_time": 5.451}, {"pitch": 60, "velocity": 80, "note_on_time": 5.451, "note_off_time": 5.669}, {"pitch": 42, "velocity": 80, "note_on_time": 5.452, "note_off_time": 5.669}, {"pitch": 42, "velocity": 80, "note_on_time": 5.669, "note_off_time": 5.887}, {"pitch": 64, "velocity": 80, "note_on_time": 5.669, "note_off_time": 6.104}, {"pitch": 42, "velocity": 80, "note_on_time": 5.887, "note_off_time": 6.104}, {"pitch": 65, "velocity": 80, "note_on_time": 6.104, "note_off_time": 6.322}, {"pitch": 42, "velocity": 80, "note_on_time": 6.104, "note_off_time": 6.322}, {"pitch": 42, "velocity": 80, "note_on_time": 6.322, "note_off_time": 6.539}, {"pitch": 62, "velocity": 80, "note_on_time": 6.539, "note_off_time": 6.76}, {"pitch": 42, "velocity": 80, "note_on_time": 6.54, "note_off_time": 6.76}, {"pitch": 64, "velocity": 80, "note_on_time": 6.76, "note_off_time": 6.977}, {"pitch": 42, "velocity": 80, "note_on_time": 6.76, "note_off_time": 6.977}, {"pitch": 42, "velocity": 80, "note_on_time": 6.977, "note_off_time": 7.194}, {"pitch": 64, "velocity": 80, "note_on_time": 7.194, "note_off_time": 7.415}, {"pitch": 42, "velocity": 80, "note_on_time": 7.194, "note_off_time": 7.415}, {"pitch": 64, "velocity": 80, "note_on_time": 7.415, "note_off_time": 7.632}, {"pitch": 42, "velocity": 80, "note_on_time": 7.415, "note_off_time": 7.632}, {"pitch": 64, "velocity": 80, "note_on_time": 7.632, "note_off_time": 7.85}, {"pitch": 42, "velocity": 80, "note_on_time": 7.632, "note_off_time": 7.85}]</notes><options name="Option List">((4, 4), [0.5, 0.25], 3, 8, &lt;NoteRangePerHand.C_TO_G: 6&gt;, &lt;NoteRangePerHand.ONE_NOTE: 2&gt;, False, True, False, '281')</options></target_notes><trials><trial trial_no="1" timestamp="2022_11_03-10_35_19"><notes name="Played Notes">[{"pitch": 60, "velocity": 86, "note_on_time": 0.904, "note_off_time": 1.593}, {"pitch": 62, "velocity": 66, "note_on_time": 1.531, "note_off_time": 1.745}, {"pitch": 65, "velocity": 80, "note_on_time": 1.763, "note_off_time": 1.926}, {"pitch": 64, "velocity": 78, "note_on_time": 1.915, "note_off_time": 2.496}, {"pitch": 62, "velocity": 81, "note_on_time": 2.566, "note_off_time": 3.148}, {"pitch": 60, "velocity": 64, "note_on_time": 3.206, "note_off_time": 3.38}, {"pitch": 64, "velocity": 74, "note_on_time": 3.425, "note_off_time": 3.564}, {"pitch": 65, "velocity": 36, "note_on_time": 3.669, "note_off_time": 3.746}, {"pitch": 65, "velocity": 85, "note_on_time": 3.844, "note_off_time": 3.962}, {"pitch": 65, "velocity": 72, "note_on_time": 4.077, "note_off_time": 4.25}, {"pitch": 67, "velocity": 77, "note_on_time": 4.315, "note_off_time": 4.472}, {"pitch": 64, "velocity": 88, "note_on_time": 4.508, "note_off_time": 4.752}, {"pitch": 67, "velocity": 72, "note_on_time": 4.759, "note_off_time": 5.019}, {"pitch": 64, "velocity": 66, "note_on_time": 4.983, "note_off_time": 5.256}, {"pitch": 67, "velocity": 79, "note_on_time": 5.238, "note_off_time": 5.83}, {"pitch": 64, "velocity": 70, "note_on_time": 5.881, "note_off_time": 6.103}, {"pitch": 60, "velocity": 76, "note_on_time": 6.084, "note_off_time": 6.307}, {"pitch": 64, "velocity": 75, "note_on_time": 6.31, "note_off_time": 6.74}, {"pitch": 65, "velocity": 80, "note_on_time": 6.741, "note_off_time": 7.232}, {"pitch": 62, "velocity": 59, "note_on_time": 7.254, "note_off_time": 7.46}, {"pitch": 64, "velocity": 79, "note_on_time": 7.45, "note_off_time": 7.773}]</notes><guidance name="Guidance Mode">None</guidance><error name="Error value">0.6056600952380953</error></trial><trial trial_no="2" timestamp="2022_11_03-10_35_38"><notes name="Played Notes">[{"pitch": 60, "velocity": 84, "note_on_time": 0.902, "note_off_time": 1.598}, {"pitch": 62, "velocity": 73, "note_on_time": 1.556, "note_off_time": 1.757}, {"pitch": 65, "velocity": 83, "note_on_time": 1.773, "note_off_time": 2.06}, {"pitch": 64, "velocity": 78, "note_on_time": 2.0, "note_off_time": 2.461}, {"pitch": 64, "velocity": 81, "note_on_time": 2.603, "note_off_time": 2.828}, {"pitch": 60, "velocity": 58, "note_on_time": 2.84, "note_off_time": 3.074}, {"pitch": 64, "velocity": 75, "note_on_time": 3.058, "note_off_time": 3.188}, {"pitch": 64, "velocity": 82, "note_on_time": 3.285, "note_off_time": 3.404}, {"pitch": 67, "velocity": 75, "note_on_time": 3.491, "note_off_time": 3.638}, {"pitch": 64, "velocity": 71, "note_on_time": 3.696, "note_off_time": 3.933}, {"pitch": 67, "velocity": 75, "note_on_time": 3.933, "note_off_time": 4.194}, {"pitch": 64, "velocity": 68, "note_on_time": 4.166, "note_off_time": 4.38}, {"pitch": 67, "velocity": 67, "note_on_time": 4.375, "note_off_time": 4.594}, {"pitch": 64, "velocity": 66, "note_on_time": 4.571, "note_off_time": 4.786}, {"pitch": 67, "velocity": 78, "note_on_time": 4.803, "note_off_time": 5.411}, {"pitch": 64, "velocity": 76, "note_on_time": 5.414, "note_off_time": 5.635}, {"pitch": 60, "velocity": 67, "note_on_time": 5.64, "note_off_time": 5.858}, {"pitch": 64, "velocity": 83, "note_on_time": 5.841, "note_off_time": 6.231}, {"pitch": 65, "velocity": 76, "note_on_time": 6.224, "note_off_time": 6.398}, {"pitch": 62, "velocity": 66, "note_on_time": 6.49, "note_off_time": 6.683}, {"pitch": 64, "velocity": 74, "note_on_time": 6.681, "note_off_time": 6.839}, {"pitch": 64, "velocity": 63, "note_on_time": 7.126, "note_off_time": 7.208}, {"pitch": 64, "velocity": 90, "note_on_time": 7.346, "note_off_time": 7.442}, {"pitch": 64, "velocity": 82, "note_on_time": 7.568, "note_off_time": 7.822}]</notes><guidance name="Guidance Mode">None</guidance><error name="Error value">0.08273919047619047</error></trial><trial trial_no="3" timestamp="2022_11_03-10_35_56"><notes name="Played Notes">[{"pitch": 60, "velocity": 84, "note_on_time": 0.913, "note_off_time": 1.586}, {"pitch": 62, "velocity": 68, "note_on_time": 1.544, "note_off_time": 1.748}, {"pitch": 65, "velocity": 90, "note_on_time": 1.764, "note_off_time": 2.059}, {"pitch": 64, "velocity": 76, "note_on_time": 2.0, "note_off_time": 2.455}, {"pitch": 64, "velocity": 70, "note_on_time": 2.602, "note_off_time": 2.843}, {"pitch": 60, "velocity": 61, "note_on_time": 2.871, "note_off_time": 3.028}, {"pitch": 64, "velocity": 81, "note_on_time": 3.038, "note_off_time": 3.155}, {"pitch": 64, "velocity": 76, "note_on_time": 3.264, "note_off_time": 3.468}, {"pitch": 67, "velocity": 81, "note_on_time": 3.49, "note_off_time": 3.717}, {"pitch": 64, "velocity": 76, "note_on_time": 3.7, "note_off_time": 3.906}, {"pitch": 67, "velocity": 74, "note_on_time": 3.918, "note_off_time": 4.162}, {"pitch": 64, "velocity": 73, "note_on_time": 4.135, "note_off_time": 4.362}, {"pitch": 67, "velocity": 76, "note_on_time": 4.357, "note_off_time": 4.606}, {"pitch": 64, "velocity": 71, "note_on_time": 4.573, "note_off_time": 4.8}, {"pitch": 67, "velocity": 81, "note_on_time": 4.814, "note_off_time": 5.386}, {"pitch": 64, "velocity": 80, "note_on_time": 5.447, "note_off_time": 5.64}, {"pitch": 60, "velocity": 76, "note_on_time": 5.645, "note_off_time": 5.89}, {"pitch": 64, "velocity": 79, "note_on_time": 5.865, "note_off_time": 6.306}, {"pitch": 65, "velocity": 71, "note_on_time": 6.286, "note_off_time": 6.454}, {"pitch": 62, "velocity": 67, "note_on_time": 6.576, "note_off_time": 6.79}, {"pitch": 64, "velocity": 70, "note_on_time": 6.773, "note_off_time": 7.081}, {"pitch": 64, "velocity": 71, "note_on_time": 7.183, "note_off_time": 7.269}, {"pitch": 64, "velocity": 79, "note_on_time": 7.386, "note_off_time": 7.49}]</notes><guidance name="Guidance Mode">None</guidance><error name="Error value">0.13707690476190496</error></trial><trial trial_no="4" timestamp="2022_11_03-10_36_16"><notes name="Played Notes">[{"pitch": 60, "velocity": 83, "note_on_time": 0.912, "note_off_time": 1.667}, {"pitch": 62, "velocity": 73, "note_on_time": 1.556, "note_off_time": 1.758}, {"pitch": 65, "velocity": 87, "note_on_time": 1.776, "note_off_time": 2.072}, {"pitch": 64, "velocity": 73, "note_on_time": 2.009, "note_off_time": 2.455}, {"pitch": 62, "velocity": 69, "note_on_time": 2.618, "note_off_time": 2.842}, {"pitch": 60, "velocity": 66, "note_on_time": 2.859, "note_off_time": 3.005}, {"pitch": 64, "velocity": 82, "note_on_time": 3.073, "note_off_time": 3.181}, {"pitch": 64, "velocity": 79, "note_on_time": 3.316, "note_off_time": 3.522}, {"pitch": 67, "velocity": 77, "note_on_time": 3.53, "note_off_time": 3.746}, {"pitch": 64, "velocity": 78, "note_on_time": 3.719, "note_off_time": 3.92}, {"pitch": 67, "velocity": 80, "note_on_time": 3.926, "note_off_time": 4.17}, {"pitch": 64, "velocity": 78, "note_on_time": 4.142, "note_off_time": 4.355}, {"pitch": 67, "velocity": 72, "note_on_time": 4.353, "note_off_time": 4.567}, {"pitch": 64, "velocity": 48, "note_on_time": 4.558, "note_off_time": 4.788}, {"pitch": 67, "velocity": 85, "note_on_time": 4.799, "note_off_time": 5.371}, {"pitch": 64, "velocity": 75, "note_on_time": 5.443, "note_off_time": 5.637}, {"pitch": 60, "velocity": 80, "note_on_time": 5.629, "note_off_time": 5.88}, {"pitch": 64, "velocity": 78, "note_on_time": 5.861, "note_off_time": 6.307}, {"pitch": 65, "velocity": 73, "note_on_time": 6.286, "note_off_time": 6.456}, {"pitch": 64, "velocity": 69, "note_on_time": 6.561, "note_off_time": 6.624}, {"pitch": 67, "velocity": 84, "note_on_time": 7.321, "note_off_time": 7.422}, {"pitch": 67, "velocity": 73, "note_on_time": 7.536, "note_off_time": 7.655}]</notes><guidance name="Guidance Mode">None</guidance><error name="Error value">0.2484469047619047</error></trial></trials></MIDI>