<MIDI midiNo="2022_11_03-09_20_17"><target_notes><notes name="Note List">[{"pitch": 42, "velocity": 80, "note_on_time": 0.003, "note_off_time": 0.176}, {"pitch": 42, "velocity": 80, "note_on_time": 0.177, "note_off_time": 0.345}, {"pitch": 42, "velocity": 80, "note_on_time": 0.346, "note_off_time": 0.517}, {"pitch": 42, "velocity": 80, "note_on_time": 0.518, "note_off_time": 0.688}, {"pitch": 65, "velocity": 80, "note_on_time": 0.687, "note_off_time": 0.858}, {"pitch": 42, "velocity": 80, "note_on_time": 0.688, "note_off_time": 0.858}, {"pitch": 64, "velocity": 80, "note_on_time": 0.858, "note_off_time": 1.028}, {"pitch": 42, "velocity": 80, "note_on_time": 0.859, "note_off_time": 1.028}, {"pitch": 62, "velocity": 80, "note_on_time": 1.028, "note_off_time": 1.199}, {"pitch": 42, "velocity": 80, "note_on_time": 1.028, "note_off_time": 1.199}, {"pitch": 64, "velocity": 80, "note_on_time": 1.199, "note_off_time": 1.37}, {"pitch": 42, "velocity": 80, "note_on_time": 1.2, "note_off_time": 1.37}, {"pitch": 65, "velocity": 80, "note_on_time": 1.37, "note_off_time": 1.54}, {"pitch": 42, "velocity": 80, "note_on_time": 1.37, "note_off_time": 1.54}, {"pitch": 65, "velocity": 80, "note_on_time": 1.54, "note_off_time": 1.712}, {"pitch": 42, "velocity": 80, "note_on_time": 1.541, "note_off_time": 1.712}, {"pitch": 67, "velocity": 80, "note_on_time": 1.712, "note_off_time": 1.883}, {"pitch": 42, "velocity": 80, "note_on_time": 1.713, "note_off_time": 1.883}, {"pitch": 64, "velocity": 80, "note_on_time": 1.883, "note_off_time": 2.055}, {"pitch": 42, "velocity": 80, "note_on_time": 1.883, "note_off_time": 2.055}, {"pitch": 67, "velocity": 80, "note_on_time": 2.055, "note_off_time": 2.226}, {"pitch": 42, "velocity": 80, "note_on_time": 2.055, "note_off_time": 2.226}, {"pitch": 65, "velocity": 80, "note_on_time": 2.226, "note_off_time": 2.397}, {"pitch": 42, "velocity": 80, "note_on_time": 2.226, "note_off_time": 2.397}, {"pitch": 65, "velocity": 80, "note_on_time": 2.397, "note_off_time": 2.567}, {"pitch": 42, "velocity": 80, "note_on_time": 2.397, "note_off_time": 2.568}, {"pitch": 62, "velocity": 80, "note_on_time": 2.567, "note_off_time": 2.739}, {"pitch": 42, "velocity": 80, "note_on_time": 2.568, "note_off_time": 2.74}, {"pitch": 65, "velocity": 80, "note_on_time": 2.739, "note_off_time": 2.911}, {"pitch": 42, "velocity": 80, "note_on_time": 2.74, "note_off_time": 2.911}, {"pitch": 42, "velocity": 80, "note_on_time": 2.912, "note_off_time": 3.082}, {"pitch": 42, "velocity": 80, "note_on_time": 3.083, "note_off_time": 3.255}, {"pitch": 42, "velocity": 80, "note_on_time": 3.255, "note_off_time": 3.425}, {"pitch": 42, "velocity": 80, "note_on_time": 3.425, "note_off_time": 3.596}, {"pitch": 64, "velocity": 80, "note_on_time": 3.424, "note_off_time": 3.768}, {"pitch": 42, "velocity": 80, "note_on_time": 3.596, "note_off_time": 3.769}, {"pitch": 62, "velocity": 80, "note_on_time": 3.768, "note_off_time": 3.939}, {"pitch": 42, "velocity": 80, "note_on_time": 3.769, "note_off_time": 3.94}, {"pitch": 60, "velocity": 80, "note_on_time": 3.939, "note_off_time": 4.11}, {"pitch": 42, "velocity": 80, "note_on_time": 3.94, "note_off_time": 4.11}, {"pitch": 67, "velocity": 80, "note_on_time": 4.11, "note_off_time": 4.281}, {"pitch": 42, "velocity": 80, "note_on_time": 4.11, "note_off_time": 4.281}, {"pitch": 42, "velocity": 80, "note_on_time": 4.281, "note_off_time": 4.454}, {"pitch": 42, "velocity": 80, "note_on_time": 4.454, "note_off_time": 4.625}, {"pitch": 42, "velocity": 80, "note_on_time": 4.625, "note_off_time": 4.799}, {"pitch": 42, "velocity": 80, "note_on_time": 4.799, "note_off_time": 4.97}, {"pitch": 64, "velocity": 80, "note_on_time": 4.798, "note_off_time": 5.141}, {"pitch": 42, "velocity": 80, "note_on_time": 4.97, "note_off_time": 5.142}, {"pitch": 42, "velocity": 80, "note_on_time": 5.142, "note_off_time": 5.313}, {"pitch": 42, "velocity": 80, "note_on_time": 5.313, "note_off_time": 5.483}, {"pitch": 42, "velocity": 80, "note_on_time": 5.484, "note_off_time": 5.654}, {"pitch": 64, "velocity": 80, "note_on_time": 5.654, "note_off_time": 5.826}, {"pitch": 42, "velocity": 80, "note_on_time": 5.654, "note_off_time": 5.826}, {"pitch": 64, "velocity": 80, "note_on_time": 5.826, "note_off_time": 5.997}, {"pitch": 42, "velocity": 80, "note_on_time": 5.826, "note_off_time": 5.997}, {"pitch": 64, "velocity": 80, "note_on_time": 5.997, "note_off_time": 6.168}, {"pitch": 42, "velocity": 80, "note_on_time": 5.998, "note_off_time": 6.169}]</notes><options name="Option List">((4, 4), [0.5, 0.25], 3, 8, &lt;NoteRangePerHand.C_TO_G: 6&gt;, &lt;NoteRangePerHand.ONE_NOTE: 2&gt;, False, True, False, 365)</options></target_notes><trials><trial trial_no="1" timestamp="2022_11_03-09_20_10"><notes name="Played Notes">[{"pitch": 65, "velocity": 56, "note_on_time": 0.725, "note_off_time": 0.908}, {"pitch": 64, "velocity": 60, "note_on_time": 0.831, "note_off_time": 0.982}, {"pitch": 62, "velocity": 52, "note_on_time": 0.987, "note_off_time": 1.275}, {"pitch": 64, "velocity": 55, "note_on_time": 1.129, "note_off_time": 1.288}, {"pitch": 65, "velocity": 75, "note_on_time": 1.256, "note_off_time": 1.3}, {"pitch": 65, "velocity": 64, "note_on_time": 1.391, "note_off_time": 1.543}, {"pitch": 67, "velocity": 66, "note_on_time": 1.548, "note_off_time": 1.706}, {"pitch": 64, "velocity": 73, "note_on_time": 1.673, "note_off_time": 1.849}, {"pitch": 67, "velocity": 60, "note_on_time": 1.805, "note_off_time": 1.939}, {"pitch": 65, "velocity": 67, "note_on_time": 1.92, "note_off_time": 1.976}, {"pitch": 65, "velocity": 80, "note_on_time": 2.054, "note_off_time": 2.189}, {"pitch": 62, "velocity": 59, "note_on_time": 2.212, "note_off_time": 2.399}, {"pitch": 65, "velocity": 63, "note_on_time": 2.337, "note_off_time": 2.683}, {"pitch": 64, "velocity": 65, "note_on_time": 2.95, "note_off_time": 3.34}, {"pitch": 62, "velocity": 54, "note_on_time": 3.505, "note_off_time": 3.633}, {"pitch": 60, "velocity": 59, "note_on_time": 3.631, "note_off_time": 3.803}, {"pitch": 67, "velocity": 75, "note_on_time": 3.747, "note_off_time": 4.193}, {"pitch": 64, "velocity": 70, "note_on_time": 4.489, "note_off_time": 4.964}, {"pitch": 64, "velocity": 60, "note_on_time": 5.297, "note_off_time": 5.352}, {"pitch": 64, "velocity": 56, "note_on_time": 5.447, "note_off_time": 5.494}, {"pitch": 64, "velocity": 67, "note_on_time": 5.574, "note_off_time": 5.641}]</notes><guidance name="Guidance Mode">None</guidance><error name="Error value">0.048237611111111064</error></trial></trials></MIDI>