<MIDI midiNo="2022_11_21-16_46_18"><target_notes><notes name="Note List">[{"pitch": 42, "velocity": 80, "note_on_time": 0.004, "note_off_time": 0.204}, {"pitch": 42, "velocity": 80, "note_on_time": 0.204, "note_off_time": 0.393}, {"pitch": 42, "velocity": 80, "note_on_time": 0.393, "note_off_time": 0.581}, {"pitch": 42, "velocity": 80, "note_on_time": 0.581, "note_off_time": 0.782}, {"pitch": 64, "velocity": 80, "note_on_time": 0.782, "note_off_time": 0.984}, {"pitch": 42, "velocity": 80, "note_on_time": 0.783, "note_off_time": 0.984}, {"pitch": 60, "velocity": 80, "note_on_time": 0.984, "note_off_time": 1.186}, {"pitch": 42, "velocity": 80, "note_on_time": 0.984, "note_off_time": 1.186}, {"pitch": 60, "velocity": 80, "note_on_time": 1.186, "note_off_time": 1.388}, {"pitch": 42, "velocity": 80, "note_on_time": 1.186, "note_off_time": 1.388}, {"pitch": 60, "velocity": 80, "note_on_time": 1.388, "note_off_time": 1.589}, {"pitch": 42, "velocity": 80, "note_on_time": 1.388, "note_off_time": 1.59}, {"pitch": 62, "velocity": 80, "note_on_time": 1.589, "note_off_time": 1.778}, {"pitch": 42, "velocity": 80, "note_on_time": 1.59, "note_off_time": 1.778}, {"pitch": 62, "velocity": 80, "note_on_time": 1.778, "note_off_time": 1.979}, {"pitch": 42, "velocity": 80, "note_on_time": 1.778, "note_off_time": 1.98}, {"pitch": 64, "velocity": 80, "note_on_time": 1.979, "note_off_time": 2.18}, {"pitch": 42, "velocity": 80, "note_on_time": 1.98, "note_off_time": 2.18}, {"pitch": 62, "velocity": 80, "note_on_time": 2.18, "note_off_time": 2.381}, {"pitch": 42, "velocity": 80, "note_on_time": 2.18, "note_off_time": 2.381}, {"pitch": 42, "velocity": 80, "note_on_time": 2.381, "note_off_time": 2.582}, {"pitch": 64, "velocity": 80, "note_on_time": 2.381, "note_off_time": 2.784}, {"pitch": 42, "velocity": 80, "note_on_time": 2.582, "note_off_time": 2.785}, {"pitch": 42, "velocity": 80, "note_on_time": 2.785, "note_off_time": 2.987}, {"pitch": 42, "velocity": 80, "note_on_time": 2.987, "note_off_time": 3.188}, {"pitch": 62, "velocity": 80, "note_on_time": 3.188, "note_off_time": 3.389}, {"pitch": 42, "velocity": 80, "note_on_time": 3.188, "note_off_time": 3.39}, {"pitch": 42, "velocity": 80, "note_on_time": 3.39, "note_off_time": 3.592}, {"pitch": 42, "velocity": 80, "note_on_time": 3.592, "note_off_time": 3.78}, {"pitch": 64, "velocity": 80, "note_on_time": 3.78, "note_off_time": 3.981}, {"pitch": 42, "velocity": 80, "note_on_time": 3.78, "note_off_time": 3.981}, {"pitch": 42, "velocity": 80, "note_on_time": 3.982, "note_off_time": 4.183}, {"pitch": 60, "velocity": 80, "note_on_time": 3.981, "note_off_time": 4.385}, {"pitch": 42, "velocity": 80, "note_on_time": 4.184, "note_off_time": 4.385}, {"pitch": 42, "velocity": 80, "note_on_time": 4.386, "note_off_time": 4.573}, {"pitch": 42, "velocity": 80, "note_on_time": 4.574, "note_off_time": 4.775}, {"pitch": 64, "velocity": 80, "note_on_time": 4.775, "note_off_time": 4.962}, {"pitch": 42, "velocity": 80, "note_on_time": 4.775, "note_off_time": 4.963}, {"pitch": 60, "velocity": 80, "note_on_time": 4.962, "note_off_time": 5.165}, {"pitch": 42, "velocity": 80, "note_on_time": 4.963, "note_off_time": 5.166}, {"pitch": 60, "velocity": 80, "note_on_time": 5.165, "note_off_time": 5.366}, {"pitch": 42, "velocity": 80, "note_on_time": 5.166, "note_off_time": 5.366}, {"pitch": 60, "velocity": 80, "note_on_time": 5.366, "note_off_time": 5.569}, {"pitch": 42, "velocity": 80, "note_on_time": 5.366, "note_off_time": 5.569}, {"pitch": 60, "velocity": 80, "note_on_time": 5.569, "note_off_time": 5.771}, {"pitch": 42, "velocity": 80, "note_on_time": 5.569, "note_off_time": 5.772}, {"pitch": 62, "velocity": 80, "note_on_time": 5.771, "note_off_time": 5.973}, {"pitch": 42, "velocity": 80, "note_on_time": 5.772, "note_off_time": 5.973}, {"pitch": 60, "velocity": 80, "note_on_time": 5.973, "note_off_time": 6.176}, {"pitch": 42, "velocity": 80, "note_on_time": 5.973, "note_off_time": 6.176}, {"pitch": 60, "velocity": 80, "note_on_time": 6.176, "note_off_time": 6.377}, {"pitch": 42, "velocity": 80, "note_on_time": 6.177, "note_off_time": 6.378}, {"pitch": 42, "velocity": 80, "note_on_time": 6.378, "note_off_time": 6.581}, {"pitch": 60, "velocity": 80, "note_on_time": 6.581, "note_off_time": 6.782}, {"pitch": 42, "velocity": 80, "note_on_time": 6.581, "note_off_time": 6.783}, {"pitch": 60, "velocity": 80, "note_on_time": 6.782, "note_off_time": 6.983}, {"pitch": 42, "velocity": 80, "note_on_time": 6.783, "note_off_time": 6.983}, {"pitch": 60, "velocity": 80, "note_on_time": 6.983, "note_off_time": 7.186}, {"pitch": 42, "velocity": 80, "note_on_time": 6.984, "note_off_time": 7.187}]</notes><options name="Option List">((4, 4), [0.5, 0.25], 3, 8, &lt;NoteRangePerHand.THREE_NOTES: 4&gt;, &lt;NoteRangePerHand.ONE_NOTE: 2&gt;, False, True, False, '322')</options></target_notes><trials><trial trial_no="1" timestamp="2022_11_21-16_46_10"><notes name="Played Notes">[{"pitch": 64, "velocity": 76, "note_on_time": 0.846, "note_off_time": 1.016}, {"pitch": 60, "velocity": 82, "note_on_time": 1.052, "note_off_time": 1.174}, {"pitch": 60, "velocity": 76, "note_on_time": 1.27, "note_off_time": 1.377}, {"pitch": 60, "velocity": 77, "note_on_time": 1.477, "note_off_time": 1.607}, {"pitch": 62, "velocity": 61, "note_on_time": 1.647, "note_off_time": 1.781}, {"pitch": 62, "velocity": 79, "note_on_time": 1.869, "note_off_time": 1.993}, {"pitch": 64, "velocity": 62, "note_on_time": 2.047, "note_off_time": 2.194}, {"pitch": 62, "velocity": 50, "note_on_time": 2.202, "note_off_time": 2.29}, {"pitch": 64, "velocity": 86, "note_on_time": 2.364, "note_off_time": 2.777}, {"pitch": 62, "velocity": 80, "note_on_time": 3.289, "note_off_time": 3.466}, {"pitch": 64, "velocity": 62, "note_on_time": 3.849, "note_off_time": 4.004}, {"pitch": 60, "velocity": 88, "note_on_time": 4.085, "note_off_time": 4.429}, {"pitch": 64, "velocity": 73, "note_on_time": 4.715, "note_off_time": 4.869}, {"pitch": 60, "velocity": 87, "note_on_time": 4.933, "note_off_time": 5.047}, {"pitch": 60, "velocity": 82, "note_on_time": 5.134, "note_off_time": 5.233}, {"pitch": 60, "velocity": 86, "note_on_time": 5.324, "note_off_time": 5.422}, {"pitch": 60, "velocity": 74, "note_on_time": 5.522, "note_off_time": 5.71}, {"pitch": 62, "velocity": 35, "note_on_time": 5.753, "note_off_time": 5.787}, {"pitch": 60, "velocity": 70, "note_on_time": 5.871, "note_off_time": 6.091}, {"pitch": 62, "velocity": 65, "note_on_time": 6.089, "note_off_time": 6.273}, {"pitch": 60, "velocity": 82, "note_on_time": 6.297, "note_off_time": 6.41}, {"pitch": 60, "velocity": 71, "note_on_time": 6.512, "note_off_time": 6.632}, {"pitch": 60, "velocity": 84, "note_on_time": 6.827, "note_off_time": 6.939}, {"pitch": 60, "velocity": 85, "note_on_time": 7.025, "note_off_time": 7.121}]</notes><guidance name="Guidance Mode">None</guidance><error name="Error value">0.24909925000000027</error></trial><trial trial_no="2" timestamp="2022_11_21-16_46_35"><notes name="Played Notes">[{"pitch": 64, "velocity": 84, "note_on_time": 0.808, "note_off_time": 0.967}, {"pitch": 60, "velocity": 74, "note_on_time": 0.997, "note_off_time": 1.148}, {"pitch": 60, "velocity": 64, "note_on_time": 1.22, "note_off_time": 1.308}, {"pitch": 60, "velocity": 78, "note_on_time": 1.398, "note_off_time": 1.519}, {"pitch": 62, "velocity": 77, "note_on_time": 1.576, "note_off_time": 1.679}, {"pitch": 62, "velocity": 68, "note_on_time": 1.744, "note_off_time": 1.864}, {"pitch": 64, "velocity": 69, "note_on_time": 1.958, "note_off_time": 2.15}, {"pitch": 62, "velocity": 84, "note_on_time": 2.134, "note_off_time": 2.249}, {"pitch": 64, "velocity": 83, "note_on_time": 2.359, "note_off_time": 2.82}, {"pitch": 62, "velocity": 77, "note_on_time": 3.232, "note_off_time": 3.53}, {"pitch": 64, "velocity": 63, "note_on_time": 3.614, "note_off_time": 3.851}, {"pitch": 60, "velocity": 82, "note_on_time": 3.986, "note_off_time": 4.162}, {"pitch": 64, "velocity": 70, "note_on_time": 4.618, "note_off_time": 4.758}, {"pitch": 60, "velocity": 79, "note_on_time": 4.803, "note_off_time": 4.928}, {"pitch": 60, "velocity": 78, "note_on_time": 5.026, "note_off_time": 5.121}, {"pitch": 60, "velocity": 61, "note_on_time": 5.194, "note_off_time": 5.306}, {"pitch": 60, "velocity": 81, "note_on_time": 5.408, "note_off_time": 5.517}, {"pitch": 62, "velocity": 81, "note_on_time": 5.626, "note_off_time": 5.78}, {"pitch": 60, "velocity": 83, "note_on_time": 5.795, "note_off_time": 5.9}, {"pitch": 60, "velocity": 79, "note_on_time": 6.007, "note_off_time": 6.164}, {"pitch": 60, "velocity": 80, "note_on_time": 6.35, "note_off_time": 6.465}, {"pitch": 60, "velocity": 84, "note_on_time": 6.552, "note_off_time": 6.653}, {"pitch": 60, "velocity": 82, "note_on_time": 6.728, "note_off_time": 6.888}]</notes><guidance name="Guidance Mode">None</guidance><error name="Error value">0.048450250000000056</error></trial><trial trial_no="3" timestamp="2022_11_21-16_47_05"><notes name="Played Notes">[{"pitch": 64, "velocity": 84, "note_on_time": 0.757, "note_off_time": 0.955}, {"pitch": 60, "velocity": 63, "note_on_time": 0.94, "note_off_time": 1.031}, {"pitch": 60, "velocity": 70, "note_on_time": 1.148, "note_off_time": 1.262}, {"pitch": 60, "velocity": 66, "note_on_time": 1.384, "note_off_time": 1.497}, {"pitch": 62, "velocity": 71, "note_on_time": 1.513, "note_off_time": 1.623}, {"pitch": 62, "velocity": 77, "note_on_time": 1.713, "note_off_time": 1.854}, {"pitch": 64, "velocity": 70, "note_on_time": 1.883, "note_off_time": 2.026}, {"pitch": 62, "velocity": 63, "note_on_time": 2.012, "note_off_time": 2.174}, {"pitch": 64, "velocity": 75, "note_on_time": 2.2, "note_off_time": 2.513}, {"pitch": 62, "velocity": 73, "note_on_time": 2.992, "note_off_time": 3.21}, {"pitch": 64, "velocity": 69, "note_on_time": 3.563, "note_off_time": 3.721}, {"pitch": 60, "velocity": 84, "note_on_time": 3.777, "note_off_time": 4.099}, {"pitch": 64, "velocity": 82, "note_on_time": 4.425, "note_off_time": 4.579}, {"pitch": 60, "velocity": 85, "note_on_time": 4.64, "note_off_time": 4.758}, {"pitch": 60, "velocity": 69, "note_on_time": 4.831, "note_off_time": 4.938}, {"pitch": 60, "velocity": 65, "note_on_time": 5.005, "note_off_time": 5.13}, {"pitch": 60, "velocity": 82, "note_on_time": 5.223, "note_off_time": 5.38}, {"pitch": 62, "velocity": 74, "note_on_time": 5.393, "note_off_time": 5.564}, {"pitch": 60, "velocity": 68, "note_on_time": 5.574, "note_off_time": 5.688}, {"pitch": 60, "velocity": 84, "note_on_time": 5.781, "note_off_time": 5.95}, {"pitch": 60, "velocity": 87, "note_on_time": 6.207, "note_off_time": 6.307}, {"pitch": 60, "velocity": 83, "note_on_time": 6.394, "note_off_time": 6.505}, {"pitch": 60, "velocity": 85, "note_on_time": 6.578, "note_off_time": 6.725}]</notes><guidance name="Guidance Mode">None</guidance><error name="Error value">0.029032750000000163</error></trial><trial trial_no="4" timestamp="2022_11_21-16_47_33"><notes name="Played Notes">[{"pitch": 64, "velocity": 87, "note_on_time": 0.838, "note_off_time": 1.03}, {"pitch": 60, "velocity": 80, "note_on_time": 1.002, "note_off_time": 1.167}, {"pitch": 60, "velocity": 76, "note_on_time": 1.255, "note_off_time": 1.38}, {"pitch": 60, "velocity": 77, "note_on_time": 1.475, "note_off_time": 1.646}, {"pitch": 62, "velocity": 74, "note_on_time": 1.672, "note_off_time": 1.793}, {"pitch": 62, "velocity": 77, "note_on_time": 1.882, "note_off_time": 2.017}, {"pitch": 64, "velocity": 63, "note_on_time": 2.069, "note_off_time": 2.254}, {"pitch": 62, "velocity": 56, "note_on_time": 2.217, "note_off_time": 2.403}, {"pitch": 64, "velocity": 79, "note_on_time": 2.449, "note_off_time": 2.831}, {"pitch": 60, "velocity": 89, "note_on_time": 3.366, "note_off_time": 3.605}, {"pitch": 64, "velocity": 72, "note_on_time": 4.024, "note_off_time": 4.213}, {"pitch": 60, "velocity": 89, "note_on_time": 4.281, "note_off_time": 4.604}, {"pitch": 64, "velocity": 75, "note_on_time": 5.26, "note_off_time": 5.45}, {"pitch": 60, "velocity": 84, "note_on_time": 5.473, "note_off_time": 5.59}, {"pitch": 60, "velocity": 81, "note_on_time": 5.679, "note_off_time": 5.791}, {"pitch": 60, "velocity": 79, "note_on_time": 5.878, "note_off_time": 5.987}, {"pitch": 60, "velocity": 76, "note_on_time": 6.088, "note_off_time": 6.199}, {"pitch": 60, "velocity": 82, "note_on_time": 6.288, "note_off_time": 6.435}, {"pitch": 62, "velocity": 67, "note_on_time": 6.402, "note_off_time": 6.602}, {"pitch": 60, "velocity": 62, "note_on_time": 6.576, "note_off_time": 6.761}, {"pitch": 60, "velocity": 83, "note_on_time": 6.851, "note_off_time": 6.994}]</notes><guidance name="Guidance Mode">None</guidance><error name="Error value">0.3705822500000001</error></trial><trial trial_no="5" timestamp="2022_11_21-16_47_53"><notes name="Played Notes">[{"pitch": 64, "velocity": 83, "note_on_time": 0.807, "note_off_time": 0.984}, {"pitch": 60, "velocity": 82, "note_on_time": 0.993, "note_off_time": 1.135}, {"pitch": 60, "velocity": 58, "note_on_time": 1.222, "note_off_time": 1.343}, {"pitch": 60, "velocity": 82, "note_on_time": 1.434, "note_off_time": 1.559}, {"pitch": 60, "velocity": 57, "note_on_time": 1.66, "note_off_time": 1.716}, {"pitch": 62, "velocity": 87, "note_on_time": 1.69, "note_off_time": 1.82}, {"pitch": 62, "velocity": 76, "note_on_time": 1.888, "note_off_time": 2.022}, {"pitch": 64, "velocity": 64, "note_on_time": 2.071, "note_off_time": 2.261}, {"pitch": 62, "velocity": 68, "note_on_time": 2.212, "note_off_time": 2.423}, {"pitch": 64, "velocity": 84, "note_on_time": 2.422, "note_off_time": 2.807}, {"pitch": 62, "velocity": 78, "note_on_time": 3.171, "note_off_time": 3.417}, {"pitch": 64, "velocity": 79, "note_on_time": 3.74, "note_off_time": 3.891}, {"pitch": 60, "velocity": 85, "note_on_time": 3.951, "note_off_time": 4.163}, {"pitch": 64, "velocity": 81, "note_on_time": 4.542, "note_off_time": 4.751}, {"pitch": 60, "velocity": 87, "note_on_time": 4.735, "note_off_time": 4.848}, {"pitch": 60, "velocity": 82, "note_on_time": 4.924, "note_off_time": 5.02}, {"pitch": 60, "velocity": 82, "note_on_time": 5.103, "note_off_time": 5.213}, {"pitch": 60, "velocity": 79, "note_on_time": 5.303, "note_off_time": 5.527}, {"pitch": 62, "velocity": 80, "note_on_time": 5.526, "note_off_time": 5.742}, {"pitch": 60, "velocity": 81, "note_on_time": 5.725, "note_off_time": 5.835}, {"pitch": 60, "velocity": 81, "note_on_time": 5.934, "note_off_time": 6.108}, {"pitch": 60, "velocity": 87, "note_on_time": 6.358, "note_off_time": 6.474}, {"pitch": 60, "velocity": 79, "note_on_time": 6.564, "note_off_time": 6.666}, {"pitch": 60, "velocity": 88, "note_on_time": 6.752, "note_off_time": 6.897}]</notes><guidance name="Guidance Mode">None</guidance><error name="Error value">0.13549875000000028</error></trial></trials></MIDI>