<MIDI midiNo="2022_08_17-14_12_46"><target_notes><notes name="Note List">[{"pitch": 42, "velocity": 80, "note_on_time": 0.003, "note_off_time": 0.609}, {"pitch": 42, "velocity": 80, "note_on_time": 0.609, "note_off_time": 1.216}, {"pitch": 42, "velocity": 80, "note_on_time": 1.217, "note_off_time": 1.824}, {"pitch": 42, "velocity": 80, "note_on_time": 1.824, "note_off_time": 2.435}, {"pitch": 60, "velocity": 80, "note_on_time": 2.435, "note_off_time": 3.041}, {"pitch": 42, "velocity": 80, "note_on_time": 2.435, "note_off_time": 3.041}, {"pitch": 62, "velocity": 80, "note_on_time": 3.041, "note_off_time": 3.646}, {"pitch": 42, "velocity": 80, "note_on_time": 3.041, "note_off_time": 3.647}, {"pitch": 60, "velocity": 80, "note_on_time": 3.646, "note_off_time": 4.256}, {"pitch": 42, "velocity": 80, "note_on_time": 3.647, "note_off_time": 4.256}, {"pitch": 62, "velocity": 80, "note_on_time": 4.256, "note_off_time": 4.865}, {"pitch": 42, "velocity": 80, "note_on_time": 4.256, "note_off_time": 4.865}, {"pitch": 60, "velocity": 80, "note_on_time": 4.865, "note_off_time": 5.472}, {"pitch": 42, "velocity": 80, "note_on_time": 4.865, "note_off_time": 5.473}, {"pitch": 42, "velocity": 80, "note_on_time": 5.473, "note_off_time": 6.081}, {"pitch": 42, "velocity": 80, "note_on_time": 6.082, "note_off_time": 6.689}, {"pitch": 42, "velocity": 80, "note_on_time": 6.69, "note_off_time": 7.298}, {"pitch": 42, "velocity": 80, "note_on_time": 7.299, "note_off_time": 7.91}, {"pitch": 62, "velocity": 80, "note_on_time": 7.298, "note_off_time": 8.519}, {"pitch": 42, "velocity": 80, "note_on_time": 7.91, "note_off_time": 8.519}, {"pitch": 62, "velocity": 80, "note_on_time": 8.519, "note_off_time": 9.128}, {"pitch": 42, "velocity": 80, "note_on_time": 8.52, "note_off_time": 9.128}, {"pitch": 42, "velocity": 80, "note_on_time": 9.128, "note_off_time": 9.737}, {"pitch": 42, "velocity": 80, "note_on_time": 9.737, "note_off_time": 10.347}, {"pitch": 60, "velocity": 80, "note_on_time": 9.737, "note_off_time": 10.958}, {"pitch": 42, "velocity": 80, "note_on_time": 10.348, "note_off_time": 10.958}, {"pitch": 42, "velocity": 80, "note_on_time": 10.958, "note_off_time": 11.564}, {"pitch": 62, "velocity": 80, "note_on_time": 10.958, "note_off_time": 12.171}, {"pitch": 42, "velocity": 80, "note_on_time": 11.564, "note_off_time": 12.172}, {"pitch": 42, "velocity": 80, "note_on_time": 12.172, "note_off_time": 12.78}, {"pitch": 60, "velocity": 80, "note_on_time": 12.171, "note_off_time": 13.388}, {"pitch": 42, "velocity": 80, "note_on_time": 12.78, "note_off_time": 13.388}, {"pitch": 42, "velocity": 80, "note_on_time": 13.389, "note_off_time": 13.999}, {"pitch": 42, "velocity": 80, "note_on_time": 13.999, "note_off_time": 14.607}, {"pitch": 62, "velocity": 80, "note_on_time": 14.607, "note_off_time": 15.216}, {"pitch": 42, "velocity": 80, "note_on_time": 14.608, "note_off_time": 15.216}, {"pitch": 60, "velocity": 80, "note_on_time": 15.216, "note_off_time": 15.824}, {"pitch": 42, "velocity": 80, "note_on_time": 15.217, "note_off_time": 15.824}, {"pitch": 42, "velocity": 80, "note_on_time": 15.824, "note_off_time": 16.435}, {"pitch": 60, "velocity": 80, "note_on_time": 15.824, "note_off_time": 17.045}, {"pitch": 42, "velocity": 80, "note_on_time": 16.436, "note_off_time": 17.045}, {"pitch": 60, "velocity": 80, "note_on_time": 17.045, "note_off_time": 17.652}, {"pitch": 42, "velocity": 80, "note_on_time": 17.046, "note_off_time": 17.653}, {"pitch": 62, "velocity": 80, "note_on_time": 17.652, "note_off_time": 18.26}, {"pitch": 42, "velocity": 80, "note_on_time": 17.653, "note_off_time": 18.26}, {"pitch": 60, "velocity": 80, "note_on_time": 18.26, "note_off_time": 18.87}, {"pitch": 42, "velocity": 80, "note_on_time": 18.261, "note_off_time": 18.871}, {"pitch": 60, "velocity": 80, "note_on_time": 18.87, "note_off_time": 19.477}, {"pitch": 42, "velocity": 80, "note_on_time": 18.871, "note_off_time": 19.477}, {"pitch": 42, "velocity": 80, "note_on_time": 19.477, "note_off_time": 20.085}, {"pitch": 60, "velocity": 80, "note_on_time": 20.085, "note_off_time": 20.691}, {"pitch": 42, "velocity": 80, "note_on_time": 20.085, "note_off_time": 20.691}, {"pitch": 60, "velocity": 80, "note_on_time": 20.691, "note_off_time": 21.303}, {"pitch": 42, "velocity": 80, "note_on_time": 20.691, "note_off_time": 21.303}, {"pitch": 60, "velocity": 80, "note_on_time": 21.303, "note_off_time": 21.912}, {"pitch": 42, "velocity": 80, "note_on_time": 21.303, "note_off_time": 21.912}]</notes><options name="Option List">((4, 4), [0.25], 3, 8, &lt;NoteRangePerHand.TWO_NOTES: 3&gt;, &lt;NoteRangePerHand.ONE_NOTE: 2&gt;, False, True, True, '80')</options></target_notes><trials><trial trial_no="1" timestamp="2022_08_17-14_12_23"><notes name="Played Notes">[{"pitch": 60, "velocity": 55, "note_on_time": 2.45, "note_off_time": 2.971}, {"pitch": 62, "velocity": 51, "note_on_time": 3.018, "note_off_time": 3.6}, {"pitch": 60, "velocity": 65, "note_on_time": 3.604, "note_off_time": 4.19}, {"pitch": 62, "velocity": 56, "note_on_time": 4.199, "note_off_time": 4.805}, {"pitch": 60, "velocity": 65, "note_on_time": 4.816, "note_off_time": 5.202}, {"pitch": 62, "velocity": 30, "note_on_time": 6.047, "note_off_time": 6.817}, {"pitch": 62, "velocity": 52, "note_on_time": 7.284, "note_off_time": 7.863}, {"pitch": 60, "velocity": 71, "note_on_time": 8.509, "note_off_time": 9.668}, {"pitch": 62, "velocity": 53, "note_on_time": 9.681, "note_off_time": 10.835}, {"pitch": 60, "velocity": 67, "note_on_time": 10.863, "note_off_time": 11.564}, {"pitch": 62, "velocity": 60, "note_on_time": 13.358, "note_off_time": 14.009}, {"pitch": 60, "velocity": 13, "note_on_time": 13.974, "note_off_time": 14.183}, {"pitch": 60, "velocity": 79, "note_on_time": 14.555, "note_off_time": 15.306}, {"pitch": 60, "velocity": 77, "note_on_time": 15.716, "note_off_time": 16.295}, {"pitch": 62, "velocity": 55, "note_on_time": 16.311, "note_off_time": 16.929}, {"pitch": 60, "velocity": 82, "note_on_time": 16.912, "note_off_time": 17.055}, {"pitch": 60, "velocity": 45, "note_on_time": 18.022, "note_off_time": 18.705}, {"pitch": 60, "velocity": 61, "note_on_time": 19.382, "note_off_time": 19.913}, {"pitch": 60, "velocity": 68, "note_on_time": 20.545, "note_off_time": 20.992}]</notes><guidance name="Guidance Mode">None</guidance><error name="Error value">0.2466470588235295</error></trial></trials></MIDI>