<MIDI midiNo="2022_12_08-12_35_54"><target_notes><notes name="Note List">[{"pitch": 42, "velocity": 80, "note_on_time": 0.004, "note_off_time": 0.219}, {"pitch": 42, "velocity": 80, "note_on_time": 0.22, "note_off_time": 0.439}, {"pitch": 42, "velocity": 80, "note_on_time": 0.439, "note_off_time": 0.656}, {"pitch": 42, "velocity": 80, "note_on_time": 0.656, "note_off_time": 0.873}, {"pitch": 42, "velocity": 80, "note_on_time": 0.873, "note_off_time": 1.091}, {"pitch": 62, "velocity": 80, "note_on_time": 0.873, "note_off_time": 1.311}, {"pitch": 42, "velocity": 80, "note_on_time": 1.091, "note_off_time": 1.311}, {"pitch": 42, "velocity": 80, "note_on_time": 1.311, "note_off_time": 1.529}, {"pitch": 60, "velocity": 80, "note_on_time": 1.529, "note_off_time": 1.748}, {"pitch": 42, "velocity": 80, "note_on_time": 1.529, "note_off_time": 1.748}, {"pitch": 65, "velocity": 80, "note_on_time": 1.748, "note_off_time": 1.967}, {"pitch": 42, "velocity": 80, "note_on_time": 1.748, "note_off_time": 1.967}, {"pitch": 60, "velocity": 80, "note_on_time": 1.967, "note_off_time": 2.186}, {"pitch": 42, "velocity": 80, "note_on_time": 1.967, "note_off_time": 2.186}, {"pitch": 67, "velocity": 80, "note_on_time": 2.186, "note_off_time": 2.404}, {"pitch": 42, "velocity": 80, "note_on_time": 2.186, "note_off_time": 2.404}, {"pitch": 67, "velocity": 80, "note_on_time": 2.404, "note_off_time": 2.623}, {"pitch": 42, "velocity": 80, "note_on_time": 2.404, "note_off_time": 2.623}, {"pitch": 42, "velocity": 80, "note_on_time": 2.623, "note_off_time": 2.842}, {"pitch": 60, "velocity": 80, "note_on_time": 2.623, "note_off_time": 3.062}, {"pitch": 42, "velocity": 80, "note_on_time": 2.842, "note_off_time": 3.062}, {"pitch": 42, "velocity": 80, "note_on_time": 3.062, "note_off_time": 3.278}, {"pitch": 65, "velocity": 80, "note_on_time": 3.277, "note_off_time": 3.496}, {"pitch": 42, "velocity": 80, "note_on_time": 3.278, "note_off_time": 3.497}, {"pitch": 64, "velocity": 80, "note_on_time": 3.496, "note_off_time": 3.714}, {"pitch": 42, "velocity": 80, "note_on_time": 3.497, "note_off_time": 3.714}, {"pitch": 65, "velocity": 80, "note_on_time": 3.714, "note_off_time": 3.935}, {"pitch": 42, "velocity": 80, "note_on_time": 3.715, "note_off_time": 3.936}, {"pitch": 64, "velocity": 80, "note_on_time": 3.935, "note_off_time": 4.153}, {"pitch": 42, "velocity": 80, "note_on_time": 3.936, "note_off_time": 4.153}, {"pitch": 64, "velocity": 80, "note_on_time": 4.153, "note_off_time": 4.372}, {"pitch": 42, "velocity": 80, "note_on_time": 4.153, "note_off_time": 4.372}, {"pitch": 42, "velocity": 80, "note_on_time": 4.373, "note_off_time": 4.59}, {"pitch": 65, "velocity": 80, "note_on_time": 4.372, "note_off_time": 4.808}, {"pitch": 42, "velocity": 80, "note_on_time": 4.59, "note_off_time": 4.808}, {"pitch": 42, "velocity": 80, "note_on_time": 4.808, "note_off_time": 5.025}, {"pitch": 42, "velocity": 80, "note_on_time": 5.025, "note_off_time": 5.245}, {"pitch": 62, "velocity": 80, "note_on_time": 5.245, "note_off_time": 5.462}, {"pitch": 42, "velocity": 80, "note_on_time": 5.245, "note_off_time": 5.462}, {"pitch": 62, "velocity": 80, "note_on_time": 5.462, "note_off_time": 5.682}, {"pitch": 42, "velocity": 80, "note_on_time": 5.462, "note_off_time": 5.682}, {"pitch": 65, "velocity": 80, "note_on_time": 5.682, "note_off_time": 5.898}, {"pitch": 42, "velocity": 80, "note_on_time": 5.682, "note_off_time": 5.898}, {"pitch": 60, "velocity": 80, "note_on_time": 5.898, "note_off_time": 6.115}, {"pitch": 42, "velocity": 80, "note_on_time": 5.898, "note_off_time": 6.115}, {"pitch": 62, "velocity": 80, "note_on_time": 6.115, "note_off_time": 6.332}, {"pitch": 42, "velocity": 80, "note_on_time": 6.115, "note_off_time": 6.332}, {"pitch": 65, "velocity": 80, "note_on_time": 6.332, "note_off_time": 6.55}, {"pitch": 42, "velocity": 80, "note_on_time": 6.332, "note_off_time": 6.55}, {"pitch": 65, "velocity": 80, "note_on_time": 6.55, "note_off_time": 6.769}, {"pitch": 42, "velocity": 80, "note_on_time": 6.55, "note_off_time": 6.769}, {"pitch": 60, "velocity": 80, "note_on_time": 6.769, "note_off_time": 6.986}, {"pitch": 42, "velocity": 80, "note_on_time": 6.769, "note_off_time": 6.986}, {"pitch": 42, "velocity": 80, "note_on_time": 6.986, "note_off_time": 7.205}, {"pitch": 60, "velocity": 80, "note_on_time": 7.205, "note_off_time": 7.424}, {"pitch": 42, "velocity": 80, "note_on_time": 7.205, "note_off_time": 7.424}, {"pitch": 60, "velocity": 80, "note_on_time": 7.424, "note_off_time": 7.641}, {"pitch": 42, "velocity": 80, "note_on_time": 7.424, "note_off_time": 7.641}, {"pitch": 60, "velocity": 80, "note_on_time": 7.641, "note_off_time": 7.861}, {"pitch": 42, "velocity": 80, "note_on_time": 7.641, "note_off_time": 7.861}]</notes><options name="Option List">((4, 4), [0.5, 0.25], 3, 8, &lt;NoteRangePerHand.C_TO_G: 6&gt;, &lt;NoteRangePerHand.ONE_NOTE: 2&gt;, False, True, False, 281)</options></target_notes><trials><trial trial_no="1" timestamp="2022_12_08-12_35_44"><notes name="Played Notes">[{"pitch": 62, "velocity": 72, "note_on_time": 0.888, "note_off_time": 1.274}, {"pitch": 60, "velocity": 60, "note_on_time": 1.579, "note_off_time": 1.752}, {"pitch": 65, "velocity": 67, "note_on_time": 1.786, "note_off_time": 1.952}, {"pitch": 60, "velocity": 62, "note_on_time": 1.998, "note_off_time": 2.236}, {"pitch": 67, "velocity": 71, "note_on_time": 2.221, "note_off_time": 2.303}, {"pitch": 67, "velocity": 67, "note_on_time": 2.438, "note_off_time": 2.619}, {"pitch": 60, "velocity": 67, "note_on_time": 2.658, "note_off_time": 3.116}, {"pitch": 65, "velocity": 60, "note_on_time": 3.305, "note_off_time": 3.495}, {"pitch": 64, "velocity": 64, "note_on_time": 3.522, "note_off_time": 3.71}, {"pitch": 65, "velocity": 71, "note_on_time": 3.732, "note_off_time": 3.914}, {"pitch": 64, "velocity": 73, "note_on_time": 3.952, "note_off_time": 4.051}, {"pitch": 64, "velocity": 63, "note_on_time": 4.164, "note_off_time": 4.335}, {"pitch": 65, "velocity": 78, "note_on_time": 4.384, "note_off_time": 4.833}, {"pitch": 62, "velocity": 76, "note_on_time": 5.277, "note_off_time": 5.359}, {"pitch": 62, "velocity": 61, "note_on_time": 5.504, "note_off_time": 5.698}, {"pitch": 65, "velocity": 62, "note_on_time": 5.712, "note_off_time": 5.874}, {"pitch": 60, "velocity": 66, "note_on_time": 5.912, "note_off_time": 6.077}, {"pitch": 62, "velocity": 64, "note_on_time": 6.138, "note_off_time": 6.323}, {"pitch": 65, "velocity": 70, "note_on_time": 6.343, "note_off_time": 6.413}, {"pitch": 65, "velocity": 74, "note_on_time": 6.56, "note_off_time": 6.743}, {"pitch": 60, "velocity": 61, "note_on_time": 6.783, "note_off_time": 6.999}, {"pitch": 60, "velocity": 65, "note_on_time": 7.198, "note_off_time": 7.271}, {"pitch": 60, "velocity": 65, "note_on_time": 7.415, "note_off_time": 7.513}, {"pitch": 60, "velocity": 64, "note_on_time": 7.645, "note_off_time": 7.832}]</notes><guidance name="Guidance Mode">None</guidance><error name="Error value">0.011580999999999926</error></trial></trials></MIDI>