<MIDI midiNo="2022_12_01-13_00_24"><target_notes><notes name="Note List">[{"pitch": 42, "velocity": 80, "note_on_time": 0.004, "note_off_time": 0.409}, {"pitch": 42, "velocity": 80, "note_on_time": 0.409, "note_off_time": 0.814}, {"pitch": 42, "velocity": 80, "note_on_time": 0.814, "note_off_time": 1.22}, {"pitch": 42, "velocity": 80, "note_on_time": 1.22, "note_off_time": 1.627}, {"pitch": 64, "velocity": 80, "note_on_time": 1.627, "note_off_time": 2.029}, {"pitch": 42, "velocity": 80, "note_on_time": 1.627, "note_off_time": 2.029}, {"pitch": 64, "velocity": 80, "note_on_time": 2.029, "note_off_time": 2.435}, {"pitch": 42, "velocity": 80, "note_on_time": 2.029, "note_off_time": 2.435}, {"pitch": 60, "velocity": 80, "note_on_time": 2.435, "note_off_time": 2.84}, {"pitch": 42, "velocity": 80, "note_on_time": 2.435, "note_off_time": 2.84}, {"pitch": 60, "velocity": 80, "note_on_time": 2.84, "note_off_time": 3.243}, {"pitch": 42, "velocity": 80, "note_on_time": 2.84, "note_off_time": 3.243}, {"pitch": 42, "velocity": 80, "note_on_time": 3.243, "note_off_time": 3.649}, {"pitch": 62, "velocity": 80, "note_on_time": 3.243, "note_off_time": 4.051}, {"pitch": 42, "velocity": 80, "note_on_time": 3.649, "note_off_time": 4.051}, {"pitch": 42, "velocity": 80, "note_on_time": 4.051, "note_off_time": 4.453}, {"pitch": 42, "velocity": 80, "note_on_time": 4.453, "note_off_time": 4.857}, {"pitch": 64, "velocity": 80, "note_on_time": 4.857, "note_off_time": 5.261}, {"pitch": 42, "velocity": 80, "note_on_time": 4.857, "note_off_time": 5.261}, {"pitch": 42, "velocity": 80, "note_on_time": 5.261, "note_off_time": 5.664}, {"pitch": 42, "velocity": 80, "note_on_time": 5.664, "note_off_time": 6.069}, {"pitch": 42, "velocity": 80, "note_on_time": 6.069, "note_off_time": 6.474}, {"pitch": 64, "velocity": 80, "note_on_time": 6.474, "note_off_time": 6.877}, {"pitch": 42, "velocity": 80, "note_on_time": 6.474, "note_off_time": 6.877}, {"pitch": 62, "velocity": 80, "note_on_time": 6.877, "note_off_time": 7.28}, {"pitch": 42, "velocity": 80, "note_on_time": 6.877, "note_off_time": 7.28}, {"pitch": 62, "velocity": 80, "note_on_time": 7.28, "note_off_time": 7.684}, {"pitch": 42, "velocity": 80, "note_on_time": 7.28, "note_off_time": 7.684}, {"pitch": 62, "velocity": 80, "note_on_time": 7.684, "note_off_time": 8.09}, {"pitch": 42, "velocity": 80, "note_on_time": 7.684, "note_off_time": 8.09}, {"pitch": 64, "velocity": 80, "note_on_time": 8.09, "note_off_time": 8.497}, {"pitch": 42, "velocity": 80, "note_on_time": 8.09, "note_off_time": 8.497}, {"pitch": 64, "velocity": 80, "note_on_time": 8.497, "note_off_time": 8.9}, {"pitch": 42, "velocity": 80, "note_on_time": 8.497, "note_off_time": 8.9}, {"pitch": 64, "velocity": 80, "note_on_time": 8.9, "note_off_time": 9.306}, {"pitch": 42, "velocity": 80, "note_on_time": 8.9, "note_off_time": 9.306}, {"pitch": 64, "velocity": 80, "note_on_time": 9.306, "note_off_time": 9.711}, {"pitch": 42, "velocity": 80, "note_on_time": 9.306, "note_off_time": 9.711}, {"pitch": 64, "velocity": 80, "note_on_time": 9.711, "note_off_time": 10.116}, {"pitch": 42, "velocity": 80, "note_on_time": 9.711, "note_off_time": 10.116}, {"pitch": 42, "velocity": 80, "note_on_time": 10.116, "note_off_time": 10.521}, {"pitch": 64, "velocity": 80, "note_on_time": 10.116, "note_off_time": 10.927}, {"pitch": 42, "velocity": 80, "note_on_time": 10.521, "note_off_time": 10.927}, {"pitch": 42, "velocity": 80, "note_on_time": 10.927, "note_off_time": 11.332}, {"pitch": 60, "velocity": 80, "note_on_time": 11.332, "note_off_time": 11.734}, {"pitch": 42, "velocity": 80, "note_on_time": 11.332, "note_off_time": 11.734}, {"pitch": 42, "velocity": 80, "note_on_time": 11.734, "note_off_time": 12.139}, {"pitch": 42, "velocity": 80, "note_on_time": 12.139, "note_off_time": 12.547}, {"pitch": 42, "velocity": 80, "note_on_time": 12.547, "note_off_time": 12.952}, {"pitch": 42, "velocity": 80, "note_on_time": 12.952, "note_off_time": 13.355}, {"pitch": 60, "velocity": 80, "note_on_time": 13.355, "note_off_time": 13.76}, {"pitch": 42, "velocity": 80, "note_on_time": 13.355, "note_off_time": 13.76}, {"pitch": 60, "velocity": 80, "note_on_time": 13.76, "note_off_time": 14.164}, {"pitch": 42, "velocity": 80, "note_on_time": 13.76, "note_off_time": 14.164}, {"pitch": 60, "velocity": 80, "note_on_time": 14.164, "note_off_time": 14.568}, {"pitch": 42, "velocity": 80, "note_on_time": 14.164, "note_off_time": 14.568}]</notes><options name="Option List">((4, 4), [0.5, 0.25], 3, 8, &lt;NoteRangePerHand.THREE_NOTES: 4&gt;, &lt;NoteRangePerHand.ONE_NOTE: 2&gt;, False, True, False, '150')</options></target_notes><trials><trial trial_no="1" timestamp="2022_12_01-13_00_08"><notes name="Played Notes">[{"pitch": 64, "velocity": 71, "note_on_time": 0.492, "note_off_time": 0.678}, {"pitch": 64, "velocity": 80, "note_on_time": 0.858, "note_off_time": 1.074}, {"pitch": 60, "velocity": 84, "note_on_time": 1.204, "note_off_time": 1.373}, {"pitch": 60, "velocity": 85, "note_on_time": 1.562, "note_off_time": 1.709}, {"pitch": 62, "velocity": 74, "note_on_time": 1.898, "note_off_time": 2.564}, {"pitch": 64, "velocity": 78, "note_on_time": 3.278, "note_off_time": 3.836}, {"pitch": 64, "velocity": 76, "note_on_time": 4.407, "note_off_time": 4.636}, {"pitch": 62, "velocity": 78, "note_on_time": 4.753, "note_off_time": 4.934}, {"pitch": 62, "velocity": 75, "note_on_time": 5.098, "note_off_time": 5.286}, {"pitch": 62, "velocity": 75, "note_on_time": 5.438, "note_off_time": 5.612}, {"pitch": 64, "velocity": 82, "note_on_time": 5.752, "note_off_time": 5.926}, {"pitch": 64, "velocity": 73, "note_on_time": 6.085, "note_off_time": 6.254}, {"pitch": 64, "velocity": 73, "note_on_time": 6.41, "note_off_time": 6.591}, {"pitch": 64, "velocity": 70, "note_on_time": 6.741, "note_off_time": 6.896}, {"pitch": 64, "velocity": 73, "note_on_time": 7.078, "note_off_time": 7.225}, {"pitch": 64, "velocity": 75, "note_on_time": 7.392, "note_off_time": 8.002}, {"pitch": 60, "velocity": 82, "note_on_time": 8.974, "note_off_time": 9.164}, {"pitch": 60, "velocity": 79, "note_on_time": 10.24, "note_off_time": 10.396}, {"pitch": 60, "velocity": 75, "note_on_time": 10.567, "note_off_time": 10.749}, {"pitch": 60, "velocity": 72, "note_on_time": 10.913, "note_off_time": 11.195}]</notes><guidance name="Guidance Mode">None</guidance><error name="Error value">0.16135294117647075</error></trial><trial trial_no="2" timestamp="2022_12_01-13_00_33"><notes name="Played Notes">[{"pitch": 64, "velocity": 78, "note_on_time": 0.989, "note_off_time": 1.175}, {"pitch": 64, "velocity": 75, "note_on_time": 1.308, "note_off_time": 1.505}, {"pitch": 60, "velocity": 80, "note_on_time": 1.633, "note_off_time": 1.8}, {"pitch": 60, "velocity": 85, "note_on_time": 1.968, "note_off_time": 2.118}, {"pitch": 62, "velocity": 79, "note_on_time": 2.309, "note_off_time": 3.042}, {"pitch": 64, "velocity": 76, "note_on_time": 3.667, "note_off_time": 4.18}, {"pitch": 64, "velocity": 68, "note_on_time": 5.186, "note_off_time": 5.427}, {"pitch": 62, "velocity": 77, "note_on_time": 5.559, "note_off_time": 5.758}, {"pitch": 62, "velocity": 70, "note_on_time": 5.892, "note_off_time": 6.057}, {"pitch": 62, "velocity": 74, "note_on_time": 6.209, "note_off_time": 6.365}, {"pitch": 64, "velocity": 74, "note_on_time": 6.51, "note_off_time": 6.663}, {"pitch": 64, "velocity": 68, "note_on_time": 6.842, "note_off_time": 7.033}, {"pitch": 64, "velocity": 74, "note_on_time": 7.178, "note_off_time": 7.346}, {"pitch": 64, "velocity": 74, "note_on_time": 7.502, "note_off_time": 7.646}, {"pitch": 64, "velocity": 68, "note_on_time": 7.817, "note_off_time": 7.964}, {"pitch": 64, "velocity": 73, "note_on_time": 8.17, "note_off_time": 9.117}, {"pitch": 60, "velocity": 79, "note_on_time": 9.959, "note_off_time": 10.262}, {"pitch": 60, "velocity": 82, "note_on_time": 11.605, "note_off_time": 11.745}, {"pitch": 60, "velocity": 85, "note_on_time": 11.887, "note_off_time": 12.074}, {"pitch": 60, "velocity": 83, "note_on_time": 12.293, "note_off_time": 12.745}]</notes><guidance name="Guidance Mode">None</guidance><error name="Error value">0.13447058823529415</error></trial><trial trial_no="3" timestamp="2022_12_01-13_01_08"><notes name="Played Notes">[{"pitch": 64, "velocity": 71, "note_on_time": 0.641, "note_off_time": 0.821}, {"pitch": 64, "velocity": 73, "note_on_time": 0.966, "note_off_time": 1.177}, {"pitch": 60, "velocity": 79, "note_on_time": 1.302, "note_off_time": 1.465}, {"pitch": 60, "velocity": 82, "note_on_time": 1.642, "note_off_time": 1.789}, {"pitch": 62, "velocity": 78, "note_on_time": 1.989, "note_off_time": 2.763}, {"pitch": 64, "velocity": 76, "note_on_time": 3.687, "note_off_time": 4.149}, {"pitch": 64, "velocity": 78, "note_on_time": 5.212, "note_off_time": 5.506}, {"pitch": 62, "velocity": 73, "note_on_time": 5.633, "note_off_time": 5.834}, {"pitch": 62, "velocity": 74, "note_on_time": 5.968, "note_off_time": 6.152}, {"pitch": 62, "velocity": 75, "note_on_time": 6.293, "note_off_time": 6.509}, {"pitch": 64, "velocity": 80, "note_on_time": 6.64, "note_off_time": 6.822}, {"pitch": 64, "velocity": 80, "note_on_time": 6.977, "note_off_time": 7.158}, {"pitch": 64, "velocity": 77, "note_on_time": 7.309, "note_off_time": 7.49}, {"pitch": 64, "velocity": 78, "note_on_time": 7.642, "note_off_time": 7.813}, {"pitch": 64, "velocity": 74, "note_on_time": 7.973, "note_off_time": 8.136}, {"pitch": 64, "velocity": 73, "note_on_time": 8.303, "note_off_time": 8.512}, {"pitch": 64, "velocity": 73, "note_on_time": 8.735, "note_off_time": 9.54}, {"pitch": 60, "velocity": 82, "note_on_time": 10.447, "note_off_time": 10.834}, {"pitch": 60, "velocity": 82, "note_on_time": 12.348, "note_off_time": 12.518}, {"pitch": 60, "velocity": 72, "note_on_time": 12.694, "note_off_time": 12.897}, {"pitch": 60, "velocity": 76, "note_on_time": 13.096, "note_off_time": 13.545}]</notes><guidance name="Guidance Mode">None</guidance><error name="Error value">0.346470588235294</error></trial><trial trial_no="4" timestamp="2022_12_01-13_01_32"><notes name="Played Notes">[{"pitch": 64, "velocity": 76, "note_on_time": 0.352, "note_off_time": 0.557}, {"pitch": 64, "velocity": 83, "note_on_time": 0.711, "note_off_time": 0.91}, {"pitch": 60, "velocity": 84, "note_on_time": 1.055, "note_off_time": 1.217}, {"pitch": 60, "velocity": 82, "note_on_time": 1.402, "note_off_time": 1.549}, {"pitch": 62, "velocity": 79, "note_on_time": 1.747, "note_off_time": 2.657}, {"pitch": 64, "velocity": 75, "note_on_time": 3.219, "note_off_time": 3.65}, {"pitch": 64, "velocity": 74, "note_on_time": 4.601, "note_off_time": 4.92}, {"pitch": 62, "velocity": 74, "note_on_time": 5.051, "note_off_time": 5.301}, {"pitch": 62, "velocity": 76, "note_on_time": 5.445, "note_off_time": 5.633}, {"pitch": 62, "velocity": 73, "note_on_time": 5.796, "note_off_time": 6.016}, {"pitch": 64, "velocity": 76, "note_on_time": 6.144, "note_off_time": 6.336}, {"pitch": 64, "velocity": 72, "note_on_time": 6.496, "note_off_time": 6.701}, {"pitch": 64, "velocity": 72, "note_on_time": 6.859, "note_off_time": 7.035}, {"pitch": 64, "velocity": 70, "note_on_time": 7.19, "note_off_time": 7.364}, {"pitch": 64, "velocity": 70, "note_on_time": 7.548, "note_off_time": 7.697}, {"pitch": 64, "velocity": 68, "note_on_time": 7.953, "note_off_time": 8.801}, {"pitch": 60, "velocity": 75, "note_on_time": 9.527, "note_off_time": 9.84}, {"pitch": 60, "velocity": 76, "note_on_time": 11.21, "note_off_time": 11.373}, {"pitch": 60, "velocity": 79, "note_on_time": 11.542, "note_off_time": 11.726}, {"pitch": 60, "velocity": 76, "note_on_time": 11.873, "note_off_time": 12.311}]</notes><guidance name="Guidance Mode">None</guidance><error name="Error value">0.10217647058823538</error></trial></trials></MIDI>