<MIDI midiNo="2022_08_17-14_49_05"><target_notes><notes name="Note List">[{"pitch": 42, "velocity": 80, "note_on_time": 0.005, "note_off_time": 0.409}, {"pitch": 42, "velocity": 80, "note_on_time": 0.409, "note_off_time": 0.815}, {"pitch": 42, "velocity": 80, "note_on_time": 0.815, "note_off_time": 1.22}, {"pitch": 42, "velocity": 80, "note_on_time": 1.22, "note_off_time": 1.627}, {"pitch": 60, "velocity": 80, "note_on_time": 1.626, "note_off_time": 2.032}, {"pitch": 42, "velocity": 80, "note_on_time": 1.627, "note_off_time": 2.032}, {"pitch": 65, "velocity": 80, "note_on_time": 2.032, "note_off_time": 2.437}, {"pitch": 42, "velocity": 80, "note_on_time": 2.032, "note_off_time": 2.437}, {"pitch": 60, "velocity": 80, "note_on_time": 2.437, "note_off_time": 2.844}, {"pitch": 42, "velocity": 80, "note_on_time": 2.437, "note_off_time": 2.844}, {"pitch": 67, "velocity": 80, "note_on_time": 2.844, "note_off_time": 3.251}, {"pitch": 42, "velocity": 80, "note_on_time": 2.845, "note_off_time": 3.252}, {"pitch": 62, "velocity": 80, "note_on_time": 3.251, "note_off_time": 3.658}, {"pitch": 42, "velocity": 80, "note_on_time": 3.252, "note_off_time": 3.658}, {"pitch": 42, "velocity": 80, "note_on_time": 3.659, "note_off_time": 4.062}, {"pitch": 67, "velocity": 80, "note_on_time": 3.658, "note_off_time": 4.469}, {"pitch": 42, "velocity": 80, "note_on_time": 4.062, "note_off_time": 4.469}, {"pitch": 42, "velocity": 80, "note_on_time": 4.469, "note_off_time": 4.876}, {"pitch": 42, "velocity": 80, "note_on_time": 4.876, "note_off_time": 5.282}, {"pitch": 64, "velocity": 80, "note_on_time": 4.876, "note_off_time": 5.689}, {"pitch": 42, "velocity": 80, "note_on_time": 5.283, "note_off_time": 5.689}, {"pitch": 42, "velocity": 80, "note_on_time": 5.69, "note_off_time": 6.096}, {"pitch": 65, "velocity": 80, "note_on_time": 6.095, "note_off_time": 6.499}, {"pitch": 42, "velocity": 80, "note_on_time": 6.096, "note_off_time": 6.5}, {"pitch": 62, "velocity": 80, "note_on_time": 6.499, "note_off_time": 6.906}, {"pitch": 42, "velocity": 80, "note_on_time": 6.5, "note_off_time": 6.906}, {"pitch": 60, "velocity": 80, "note_on_time": 6.906, "note_off_time": 7.313}, {"pitch": 42, "velocity": 80, "note_on_time": 6.906, "note_off_time": 7.313}, {"pitch": 42, "velocity": 80, "note_on_time": 7.314, "note_off_time": 7.715}, {"pitch": 64, "velocity": 80, "note_on_time": 7.313, "note_off_time": 8.121}, {"pitch": 42, "velocity": 80, "note_on_time": 7.715, "note_off_time": 8.121}, {"pitch": 67, "velocity": 80, "note_on_time": 8.121, "note_off_time": 8.526}, {"pitch": 42, "velocity": 80, "note_on_time": 8.122, "note_off_time": 8.526}, {"pitch": 65, "velocity": 80, "note_on_time": 8.526, "note_off_time": 8.936}, {"pitch": 42, "velocity": 80, "note_on_time": 8.527, "note_off_time": 8.936}, {"pitch": 62, "velocity": 80, "note_on_time": 8.936, "note_off_time": 9.34}, {"pitch": 42, "velocity": 80, "note_on_time": 8.936, "note_off_time": 9.34}, {"pitch": 62, "velocity": 80, "note_on_time": 9.34, "note_off_time": 9.745}, {"pitch": 42, "velocity": 80, "note_on_time": 9.34, "note_off_time": 9.746}, {"pitch": 62, "velocity": 80, "note_on_time": 9.745, "note_off_time": 10.153}, {"pitch": 42, "velocity": 80, "note_on_time": 9.746, "note_off_time": 10.153}, {"pitch": 64, "velocity": 80, "note_on_time": 10.153, "note_off_time": 10.561}, {"pitch": 42, "velocity": 80, "note_on_time": 10.153, "note_off_time": 10.561}, {"pitch": 64, "velocity": 80, "note_on_time": 10.561, "note_off_time": 10.968}, {"pitch": 42, "velocity": 80, "note_on_time": 10.561, "note_off_time": 10.968}, {"pitch": 67, "velocity": 80, "note_on_time": 10.968, "note_off_time": 11.373}, {"pitch": 42, "velocity": 80, "note_on_time": 10.968, "note_off_time": 11.373}, {"pitch": 60, "velocity": 80, "note_on_time": 11.373, "note_off_time": 11.778}, {"pitch": 42, "velocity": 80, "note_on_time": 11.374, "note_off_time": 11.779}, {"pitch": 60, "velocity": 80, "note_on_time": 11.778, "note_off_time": 12.184}, {"pitch": 42, "velocity": 80, "note_on_time": 11.779, "note_off_time": 12.185}, {"pitch": 60, "velocity": 80, "note_on_time": 12.184, "note_off_time": 12.59}, {"pitch": 42, "velocity": 80, "note_on_time": 12.185, "note_off_time": 12.59}, {"pitch": 65, "velocity": 80, "note_on_time": 12.59, "note_off_time": 12.996}, {"pitch": 42, "velocity": 80, "note_on_time": 12.591, "note_off_time": 12.996}, {"pitch": 42, "velocity": 80, "note_on_time": 12.997, "note_off_time": 13.402}, {"pitch": 65, "velocity": 80, "note_on_time": 13.402, "note_off_time": 13.807}, {"pitch": 42, "velocity": 80, "note_on_time": 13.403, "note_off_time": 13.807}, {"pitch": 65, "velocity": 80, "note_on_time": 13.807, "note_off_time": 14.211}, {"pitch": 42, "velocity": 80, "note_on_time": 13.808, "note_off_time": 14.211}, {"pitch": 65, "velocity": 80, "note_on_time": 14.211, "note_off_time": 14.618}, {"pitch": 42, "velocity": 80, "note_on_time": 14.211, "note_off_time": 14.619}]</notes><options name="Option List">((4, 4), [0.5, 0.25], 3, 8, &lt;NoteRangePerHand.C_TO_G: 6&gt;, &lt;NoteRangePerHand.ONE_NOTE: 2&gt;, False, True, True, 150)</options></target_notes><trials><trial trial_no="1" timestamp="2022_08_17-14_48_50"><notes name="Played Notes">[{"pitch": 60, "velocity": 68, "note_on_time": 1.617, "note_off_time": 1.756}, {"pitch": 65, "velocity": 69, "note_on_time": 2.027, "note_off_time": 2.165}, {"pitch": 60, "velocity": 69, "note_on_time": 2.406, "note_off_time": 2.547}, {"pitch": 67, "velocity": 72, "note_on_time": 2.815, "note_off_time": 2.963}, {"pitch": 62, "velocity": 68, "note_on_time": 3.201, "note_off_time": 3.304}, {"pitch": 67, "velocity": 64, "note_on_time": 3.589, "note_off_time": 4.135}, {"pitch": 64, "velocity": 70, "note_on_time": 4.607, "note_off_time": 5.062}, {"pitch": 65, "velocity": 73, "note_on_time": 5.668, "note_off_time": 5.773}, {"pitch": 62, "velocity": 68, "note_on_time": 6.056, "note_off_time": 6.181}, {"pitch": 60, "velocity": 72, "note_on_time": 6.466, "note_off_time": 6.569}, {"pitch": 64, "velocity": 62, "note_on_time": 6.859, "note_off_time": 7.432}, {"pitch": 67, "velocity": 69, "note_on_time": 7.71, "note_off_time": 7.86}, {"pitch": 65, "velocity": 69, "note_on_time": 8.126, "note_off_time": 8.255}, {"pitch": 62, "velocity": 69, "note_on_time": 8.495, "note_off_time": 8.573}, {"pitch": 62, "velocity": 75, "note_on_time": 8.903, "note_off_time": 8.958}, {"pitch": 62, "velocity": 66, "note_on_time": 9.309, "note_off_time": 9.388}, {"pitch": 64, "velocity": 71, "note_on_time": 9.728, "note_off_time": 9.787}, {"pitch": 64, "velocity": 79, "note_on_time": 10.121, "note_off_time": 10.205}, {"pitch": 67, "velocity": 73, "note_on_time": 10.508, "note_off_time": 10.635}, {"pitch": 60, "velocity": 70, "note_on_time": 10.921, "note_off_time": 11.017}, {"pitch": 60, "velocity": 74, "note_on_time": 11.328, "note_off_time": 11.422}, {"pitch": 60, "velocity": 71, "note_on_time": 11.723, "note_off_time": 11.799}, {"pitch": 65, "velocity": 75, "note_on_time": 12.138, "note_off_time": 12.258}, {"pitch": 65, "velocity": 77, "note_on_time": 12.969, "note_off_time": 13.075}, {"pitch": 65, "velocity": 69, "note_on_time": 13.353, "note_off_time": 13.418}, {"pitch": 65, "velocity": 71, "note_on_time": 13.742, "note_off_time": 13.821}]</notes><guidance name="Guidance Mode">None</guidance><error name="Error value">0.028913043478260708</error></trial></trials></MIDI>