<MIDI midiNo="2022_10_27-10_50_25"><target_notes><notes name="Note List">[{"pitch": 42, "velocity": 80, "note_on_time": 0.003, "note_off_time": 0.756}, {"pitch": 42, "velocity": 80, "note_on_time": 0.756, "note_off_time": 1.505}, {"pitch": 42, "velocity": 80, "note_on_time": 1.505, "note_off_time": 2.249}, {"pitch": 42, "velocity": 80, "note_on_time": 2.249, "note_off_time": 2.999}, {"pitch": 60, "velocity": 80, "note_on_time": 2.998, "note_off_time": 3.746}, {"pitch": 42, "velocity": 80, "note_on_time": 2.999, "note_off_time": 3.746}, {"pitch": 42, "velocity": 80, "note_on_time": 3.746, "note_off_time": 4.492}, {"pitch": 42, "velocity": 80, "note_on_time": 4.492, "note_off_time": 5.241}, {"pitch": 42, "velocity": 80, "note_on_time": 5.241, "note_off_time": 5.988}, {"pitch": 60, "velocity": 80, "note_on_time": 5.988, "note_off_time": 6.734}, {"pitch": 42, "velocity": 80, "note_on_time": 5.988, "note_off_time": 6.734}, {"pitch": 42, "velocity": 80, "note_on_time": 6.734, "note_off_time": 7.479}, {"pitch": 42, "velocity": 80, "note_on_time": 7.48, "note_off_time": 8.224}, {"pitch": 62, "velocity": 80, "note_on_time": 8.224, "note_off_time": 8.969}, {"pitch": 42, "velocity": 80, "note_on_time": 8.224, "note_off_time": 8.97}, {"pitch": 60, "velocity": 80, "note_on_time": 8.97, "note_off_time": 9.716}, {"pitch": 42, "velocity": 80, "note_on_time": 8.97, "note_off_time": 9.716}, {"pitch": 62, "velocity": 80, "note_on_time": 9.716, "note_off_time": 10.465}, {"pitch": 42, "velocity": 80, "note_on_time": 9.717, "note_off_time": 10.465}, {"pitch": 62, "velocity": 80, "note_on_time": 10.465, "note_off_time": 11.21}, {"pitch": 42, "velocity": 80, "note_on_time": 10.466, "note_off_time": 11.21}, {"pitch": 60, "velocity": 80, "note_on_time": 11.21, "note_off_time": 11.957}, {"pitch": 42, "velocity": 80, "note_on_time": 11.21, "note_off_time": 11.958}, {"pitch": 62, "velocity": 80, "note_on_time": 11.957, "note_off_time": 12.702}, {"pitch": 42, "velocity": 80, "note_on_time": 11.958, "note_off_time": 12.702}, {"pitch": 62, "velocity": 80, "note_on_time": 12.702, "note_off_time": 13.449}, {"pitch": 42, "velocity": 80, "note_on_time": 12.703, "note_off_time": 13.449}, {"pitch": 60, "velocity": 80, "note_on_time": 13.449, "note_off_time": 14.197}, {"pitch": 42, "velocity": 80, "note_on_time": 13.449, "note_off_time": 14.197}, {"pitch": 62, "velocity": 80, "note_on_time": 14.197, "note_off_time": 14.942}, {"pitch": 42, "velocity": 80, "note_on_time": 14.198, "note_off_time": 14.942}, {"pitch": 62, "velocity": 80, "note_on_time": 14.942, "note_off_time": 15.69}, {"pitch": 42, "velocity": 80, "note_on_time": 14.942, "note_off_time": 15.69}, {"pitch": 62, "velocity": 80, "note_on_time": 15.69, "note_off_time": 16.435}, {"pitch": 42, "velocity": 80, "note_on_time": 15.691, "note_off_time": 16.435}, {"pitch": 62, "velocity": 80, "note_on_time": 16.435, "note_off_time": 17.182}, {"pitch": 42, "velocity": 80, "note_on_time": 16.435, "note_off_time": 17.182}, {"pitch": 62, "velocity": 80, "note_on_time": 17.182, "note_off_time": 17.928}, {"pitch": 42, "velocity": 80, "note_on_time": 17.182, "note_off_time": 17.928}, {"pitch": 62, "velocity": 80, "note_on_time": 17.928, "note_off_time": 18.674}, {"pitch": 42, "velocity": 80, "note_on_time": 17.928, "note_off_time": 18.674}, {"pitch": 42, "velocity": 80, "note_on_time": 18.675, "note_off_time": 19.423}, {"pitch": 42, "velocity": 80, "note_on_time": 19.423, "note_off_time": 20.168}, {"pitch": 42, "velocity": 80, "note_on_time": 20.168, "note_off_time": 20.914}, {"pitch": 62, "velocity": 80, "note_on_time": 20.914, "note_off_time": 21.661}, {"pitch": 42, "velocity": 80, "note_on_time": 20.914, "note_off_time": 21.661}, {"pitch": 42, "velocity": 80, "note_on_time": 21.661, "note_off_time": 22.407}, {"pitch": 62, "velocity": 80, "note_on_time": 22.407, "note_off_time": 23.155}, {"pitch": 42, "velocity": 80, "note_on_time": 22.408, "note_off_time": 23.156}, {"pitch": 42, "velocity": 80, "note_on_time": 23.156, "note_off_time": 23.905}, {"pitch": 42, "velocity": 80, "note_on_time": 23.905, "note_off_time": 24.652}, {"pitch": 62, "velocity": 80, "note_on_time": 24.652, "note_off_time": 25.398}, {"pitch": 42, "velocity": 80, "note_on_time": 24.652, "note_off_time": 25.398}, {"pitch": 62, "velocity": 80, "note_on_time": 25.398, "note_off_time": 26.147}, {"pitch": 42, "velocity": 80, "note_on_time": 25.398, "note_off_time": 26.147}, {"pitch": 62, "velocity": 80, "note_on_time": 26.147, "note_off_time": 26.893}, {"pitch": 42, "velocity": 80, "note_on_time": 26.148, "note_off_time": 26.893}]</notes><options name="Option List">((4, 4), [0.25], 3, 8, &lt;NoteRangePerHand.TWO_NOTES: 3&gt;, &lt;NoteRangePerHand.ONE_NOTE: 2&gt;, False, True, False, 81)</options></target_notes><trials><trial trial_no="1" timestamp="2022_10_27-10_49_56"><notes name="Played Notes">[{"pitch": 60, "velocity": 61, "note_on_time": 2.897, "note_off_time": 3.109}]</notes><guidance name="Guidance Mode">None</guidance><error name="Error value">1.9341555555555554</error></trial></trials></MIDI>