<MIDI midiNo="2022_12_08-10_41_41"><target_notes><notes name="Note List">[{"pitch": 42, "velocity": 80, "note_on_time": 0.005, "note_off_time": 0.262}, {"pitch": 42, "velocity": 80, "note_on_time": 0.262, "note_off_time": 0.511}, {"pitch": 42, "velocity": 80, "note_on_time": 0.511, "note_off_time": 0.761}, {"pitch": 42, "velocity": 80, "note_on_time": 0.761, "note_off_time": 1.008}, {"pitch": 67, "velocity": 80, "note_on_time": 1.008, "note_off_time": 1.257}, {"pitch": 42, "velocity": 80, "note_on_time": 1.009, "note_off_time": 1.258}, {"pitch": 65, "velocity": 80, "note_on_time": 1.257, "note_off_time": 1.505}, {"pitch": 42, "velocity": 80, "note_on_time": 1.258, "note_off_time": 1.506}, {"pitch": 60, "velocity": 80, "note_on_time": 1.505, "note_off_time": 1.756}, {"pitch": 42, "velocity": 80, "note_on_time": 1.506, "note_off_time": 1.756}, {"pitch": 65, "velocity": 80, "note_on_time": 1.756, "note_off_time": 2.007}, {"pitch": 42, "velocity": 80, "note_on_time": 1.756, "note_off_time": 2.007}, {"pitch": 62, "velocity": 80, "note_on_time": 2.007, "note_off_time": 2.257}, {"pitch": 42, "velocity": 80, "note_on_time": 2.007, "note_off_time": 2.257}, {"pitch": 67, "velocity": 80, "note_on_time": 2.257, "note_off_time": 2.505}, {"pitch": 42, "velocity": 80, "note_on_time": 2.258, "note_off_time": 2.505}, {"pitch": 62, "velocity": 80, "note_on_time": 2.505, "note_off_time": 2.755}, {"pitch": 42, "velocity": 80, "note_on_time": 2.505, "note_off_time": 2.755}, {"pitch": 60, "velocity": 80, "note_on_time": 2.755, "note_off_time": 3.005}, {"pitch": 42, "velocity": 80, "note_on_time": 2.755, "note_off_time": 3.005}, {"pitch": 64, "velocity": 80, "note_on_time": 3.005, "note_off_time": 3.256}, {"pitch": 42, "velocity": 80, "note_on_time": 3.005, "note_off_time": 3.256}, {"pitch": 42, "velocity": 80, "note_on_time": 3.256, "note_off_time": 3.503}, {"pitch": 64, "velocity": 80, "note_on_time": 3.256, "note_off_time": 3.753}, {"pitch": 42, "velocity": 80, "note_on_time": 3.504, "note_off_time": 3.754}, {"pitch": 42, "velocity": 80, "note_on_time": 3.754, "note_off_time": 4.003}, {"pitch": 67, "velocity": 80, "note_on_time": 4.003, "note_off_time": 4.257}, {"pitch": 42, "velocity": 80, "note_on_time": 4.003, "note_off_time": 4.257}, {"pitch": 65, "velocity": 80, "note_on_time": 4.257, "note_off_time": 4.506}, {"pitch": 42, "velocity": 80, "note_on_time": 4.258, "note_off_time": 4.506}, {"pitch": 62, "velocity": 80, "note_on_time": 4.506, "note_off_time": 4.756}, {"pitch": 42, "velocity": 80, "note_on_time": 4.506, "note_off_time": 4.756}, {"pitch": 65, "velocity": 80, "note_on_time": 4.756, "note_off_time": 5.005}, {"pitch": 42, "velocity": 80, "note_on_time": 4.756, "note_off_time": 5.005}, {"pitch": 60, "velocity": 80, "note_on_time": 5.005, "note_off_time": 5.255}, {"pitch": 42, "velocity": 80, "note_on_time": 5.005, "note_off_time": 5.255}, {"pitch": 42, "velocity": 80, "note_on_time": 5.256, "note_off_time": 5.505}, {"pitch": 64, "velocity": 80, "note_on_time": 5.255, "note_off_time": 5.754}, {"pitch": 42, "velocity": 80, "note_on_time": 5.505, "note_off_time": 5.754}, {"pitch": 42, "velocity": 80, "note_on_time": 5.755, "note_off_time": 6.003}, {"pitch": 60, "velocity": 80, "note_on_time": 6.003, "note_off_time": 6.253}, {"pitch": 42, "velocity": 80, "note_on_time": 6.003, "note_off_time": 6.253}, {"pitch": 62, "velocity": 80, "note_on_time": 6.253, "note_off_time": 6.501}, {"pitch": 42, "velocity": 80, "note_on_time": 6.253, "note_off_time": 6.502}, {"pitch": 64, "velocity": 80, "note_on_time": 6.501, "note_off_time": 6.751}, {"pitch": 42, "velocity": 80, "note_on_time": 6.502, "note_off_time": 6.751}, {"pitch": 62, "velocity": 80, "note_on_time": 6.751, "note_off_time": 7.001}, {"pitch": 42, "velocity": 80, "note_on_time": 6.751, "note_off_time": 7.002}, {"pitch": 60, "velocity": 80, "note_on_time": 7.001, "note_off_time": 7.25}, {"pitch": 42, "velocity": 80, "note_on_time": 7.002, "note_off_time": 7.251}, {"pitch": 64, "velocity": 80, "note_on_time": 7.25, "note_off_time": 7.5}, {"pitch": 42, "velocity": 80, "note_on_time": 7.251, "note_off_time": 7.5}, {"pitch": 64, "velocity": 80, "note_on_time": 7.5, "note_off_time": 7.749}, {"pitch": 42, "velocity": 80, "note_on_time": 7.501, "note_off_time": 7.75}, {"pitch": 65, "velocity": 80, "note_on_time": 7.749, "note_off_time": 7.999}, {"pitch": 42, "velocity": 80, "note_on_time": 7.75, "note_off_time": 7.999}, {"pitch": 42, "velocity": 80, "note_on_time": 8.0, "note_off_time": 8.251}, {"pitch": 65, "velocity": 80, "note_on_time": 8.251, "note_off_time": 8.502}, {"pitch": 42, "velocity": 80, "note_on_time": 8.252, "note_off_time": 8.502}, {"pitch": 65, "velocity": 80, "note_on_time": 8.502, "note_off_time": 8.753}, {"pitch": 42, "velocity": 80, "note_on_time": 8.502, "note_off_time": 8.753}, {"pitch": 65, "velocity": 80, "note_on_time": 8.753, "note_off_time": 9.001}, {"pitch": 42, "velocity": 80, "note_on_time": 8.753, "note_off_time": 9.001}]</notes><options name="Option List">((4, 4), [0.5, 0.25], 3, 8, &lt;NoteRangePerHand.C_TO_G: 6&gt;, &lt;NoteRangePerHand.ONE_NOTE: 2&gt;, False, True, False, 248)</options></target_notes><trials><trial trial_no="1" timestamp="2022_12_08-10_41_31"><notes name="Played Notes">[{"pitch": 67, "velocity": 77, "note_on_time": 1.06, "note_off_time": 1.332}, {"pitch": 65, "velocity": 71, "note_on_time": 1.311, "note_off_time": 1.58}, {"pitch": 60, "velocity": 64, "note_on_time": 1.554, "note_off_time": 1.807}, {"pitch": 65, "velocity": 66, "note_on_time": 1.805, "note_off_time": 2.076}, {"pitch": 62, "velocity": 69, "note_on_time": 2.06, "note_off_time": 2.285}, {"pitch": 67, "velocity": 78, "note_on_time": 2.283, "note_off_time": 2.57}, {"pitch": 62, "velocity": 67, "note_on_time": 2.531, "note_off_time": 2.76}, {"pitch": 60, "velocity": 77, "note_on_time": 2.761, "note_off_time": 3.015}, {"pitch": 64, "velocity": 70, "note_on_time": 3.009, "note_off_time": 3.177}, {"pitch": 67, "velocity": 66, "note_on_time": 4.002, "note_off_time": 4.273}, {"pitch": 65, "velocity": 75, "note_on_time": 4.227, "note_off_time": 4.497}, {"pitch": 62, "velocity": 58, "note_on_time": 4.479, "note_off_time": 4.703}, {"pitch": 65, "velocity": 72, "note_on_time": 4.719, "note_off_time": 4.993}, {"pitch": 60, "velocity": 63, "note_on_time": 4.967, "note_off_time": 5.24}, {"pitch": 64, "velocity": 60, "note_on_time": 5.242, "note_off_time": 5.58}, {"pitch": 60, "velocity": 65, "note_on_time": 5.996, "note_off_time": 6.223}, {"pitch": 62, "velocity": 70, "note_on_time": 6.245, "note_off_time": 6.49}, {"pitch": 64, "velocity": 69, "note_on_time": 6.499, "note_off_time": 6.725}, {"pitch": 62, "velocity": 62, "note_on_time": 6.722, "note_off_time": 7.027}, {"pitch": 60, "velocity": 75, "note_on_time": 7.037, "note_off_time": 7.235}, {"pitch": 64, "velocity": 62, "note_on_time": 7.237, "note_off_time": 7.368}, {"pitch": 64, "velocity": 74, "note_on_time": 7.516, "note_off_time": 7.781}, {"pitch": 65, "velocity": 40, "note_on_time": 7.759, "note_off_time": 8.112}, {"pitch": 65, "velocity": 72, "note_on_time": 8.282, "note_off_time": 8.39}, {"pitch": 65, "velocity": 54, "note_on_time": 8.496, "note_off_time": 8.616}]</notes><guidance name="Guidance Mode">None</guidance><error name="Error value">0.1314827083333333</error></trial></trials></MIDI>