<MIDI midiNo="2022_11_03-09_16_46"><target_notes><notes name="Note List">[{"pitch": 42, "velocity": 80, "note_on_time": 0.004, "note_off_time": 0.228}, {"pitch": 42, "velocity": 80, "note_on_time": 0.228, "note_off_time": 0.445}, {"pitch": 42, "velocity": 80, "note_on_time": 0.445, "note_off_time": 0.663}, {"pitch": 42, "velocity": 80, "note_on_time": 0.663, "note_off_time": 0.88}, {"pitch": 42, "velocity": 80, "note_on_time": 0.88, "note_off_time": 1.1}, {"pitch": 67, "velocity": 80, "note_on_time": 0.88, "note_off_time": 1.319}, {"pitch": 42, "velocity": 80, "note_on_time": 1.1, "note_off_time": 1.319}, {"pitch": 42, "velocity": 80, "note_on_time": 1.319, "note_off_time": 1.536}, {"pitch": 42, "velocity": 80, "note_on_time": 1.536, "note_off_time": 1.755}, {"pitch": 62, "velocity": 80, "note_on_time": 1.755, "note_off_time": 1.972}, {"pitch": 42, "velocity": 80, "note_on_time": 1.755, "note_off_time": 1.972}, {"pitch": 67, "velocity": 80, "note_on_time": 1.972, "note_off_time": 2.189}, {"pitch": 42, "velocity": 80, "note_on_time": 1.972, "note_off_time": 2.189}, {"pitch": 67, "velocity": 80, "note_on_time": 2.189, "note_off_time": 2.409}, {"pitch": 42, "velocity": 80, "note_on_time": 2.189, "note_off_time": 2.409}, {"pitch": 65, "velocity": 80, "note_on_time": 2.409, "note_off_time": 2.624}, {"pitch": 42, "velocity": 80, "note_on_time": 2.409, "note_off_time": 2.624}, {"pitch": 65, "velocity": 80, "note_on_time": 2.624, "note_off_time": 2.843}, {"pitch": 42, "velocity": 80, "note_on_time": 2.625, "note_off_time": 2.843}, {"pitch": 60, "velocity": 80, "note_on_time": 2.843, "note_off_time": 3.061}, {"pitch": 42, "velocity": 80, "note_on_time": 2.843, "note_off_time": 3.061}, {"pitch": 67, "velocity": 80, "note_on_time": 3.061, "note_off_time": 3.28}, {"pitch": 42, "velocity": 80, "note_on_time": 3.061, "note_off_time": 3.28}, {"pitch": 60, "velocity": 80, "note_on_time": 3.28, "note_off_time": 3.499}, {"pitch": 42, "velocity": 80, "note_on_time": 3.28, "note_off_time": 3.499}, {"pitch": 60, "velocity": 80, "note_on_time": 3.499, "note_off_time": 3.716}, {"pitch": 42, "velocity": 80, "note_on_time": 3.499, "note_off_time": 3.716}, {"pitch": 42, "velocity": 80, "note_on_time": 3.716, "note_off_time": 3.933}, {"pitch": 65, "velocity": 80, "note_on_time": 3.716, "note_off_time": 4.152}, {"pitch": 42, "velocity": 80, "note_on_time": 3.933, "note_off_time": 4.152}, {"pitch": 42, "velocity": 80, "note_on_time": 4.152, "note_off_time": 4.369}, {"pitch": 65, "velocity": 80, "note_on_time": 4.369, "note_off_time": 4.587}, {"pitch": 42, "velocity": 80, "note_on_time": 4.369, "note_off_time": 4.587}, {"pitch": 67, "velocity": 80, "note_on_time": 4.587, "note_off_time": 4.804}, {"pitch": 42, "velocity": 80, "note_on_time": 4.587, "note_off_time": 4.804}, {"pitch": 62, "velocity": 80, "note_on_time": 4.804, "note_off_time": 5.022}, {"pitch": 42, "velocity": 80, "note_on_time": 4.804, "note_off_time": 5.022}, {"pitch": 67, "velocity": 80, "note_on_time": 5.022, "note_off_time": 5.238}, {"pitch": 42, "velocity": 80, "note_on_time": 5.022, "note_off_time": 5.238}, {"pitch": 65, "velocity": 80, "note_on_time": 5.238, "note_off_time": 5.455}, {"pitch": 42, "velocity": 80, "note_on_time": 5.238, "note_off_time": 5.455}, {"pitch": 62, "velocity": 80, "note_on_time": 5.455, "note_off_time": 5.672}, {"pitch": 42, "velocity": 80, "note_on_time": 5.455, "note_off_time": 5.672}, {"pitch": 67, "velocity": 80, "note_on_time": 5.672, "note_off_time": 5.891}, {"pitch": 42, "velocity": 80, "note_on_time": 5.672, "note_off_time": 5.891}, {"pitch": 67, "velocity": 80, "note_on_time": 5.891, "note_off_time": 6.109}, {"pitch": 42, "velocity": 80, "note_on_time": 5.891, "note_off_time": 6.109}, {"pitch": 67, "velocity": 80, "note_on_time": 6.109, "note_off_time": 6.328}, {"pitch": 42, "velocity": 80, "note_on_time": 6.109, "note_off_time": 6.328}, {"pitch": 64, "velocity": 80, "note_on_time": 6.328, "note_off_time": 6.546}, {"pitch": 42, "velocity": 80, "note_on_time": 6.328, "note_off_time": 6.546}, {"pitch": 67, "velocity": 80, "note_on_time": 6.546, "note_off_time": 6.763}, {"pitch": 42, "velocity": 80, "note_on_time": 6.546, "note_off_time": 6.763}, {"pitch": 65, "velocity": 80, "note_on_time": 6.763, "note_off_time": 6.98}, {"pitch": 42, "velocity": 80, "note_on_time": 6.763, "note_off_time": 6.98}, {"pitch": 42, "velocity": 80, "note_on_time": 6.98, "note_off_time": 7.199}, {"pitch": 65, "velocity": 80, "note_on_time": 7.199, "note_off_time": 7.417}, {"pitch": 42, "velocity": 80, "note_on_time": 7.199, "note_off_time": 7.417}, {"pitch": 65, "velocity": 80, "note_on_time": 7.417, "note_off_time": 7.635}, {"pitch": 42, "velocity": 80, "note_on_time": 7.417, "note_off_time": 7.635}, {"pitch": 65, "velocity": 80, "note_on_time": 7.635, "note_off_time": 7.853}, {"pitch": 42, "velocity": 80, "note_on_time": 7.635, "note_off_time": 7.853}]</notes><options name="Option List">((4, 4), [0.5, 0.25], 3, 8, &lt;NoteRangePerHand.C_TO_G: 6&gt;, &lt;NoteRangePerHand.ONE_NOTE: 2&gt;, False, True, False, '281')</options></target_notes><trials><trial trial_no="1" timestamp="2022_11_03-09_16_36"><notes name="Played Notes">[{"pitch": 67, "velocity": 72, "note_on_time": 0.899, "note_off_time": 1.413}, {"pitch": 62, "velocity": 64, "note_on_time": 1.586, "note_off_time": 1.863}, {"pitch": 67, "velocity": 66, "note_on_time": 1.806, "note_off_time": 1.884}, {"pitch": 67, "velocity": 65, "note_on_time": 2.006, "note_off_time": 2.246}, {"pitch": 65, "velocity": 70, "note_on_time": 2.205, "note_off_time": 2.274}, {"pitch": 65, "velocity": 58, "note_on_time": 2.388, "note_off_time": 2.624}, {"pitch": 60, "velocity": 68, "note_on_time": 2.622, "note_off_time": 2.85}, {"pitch": 67, "velocity": 61, "note_on_time": 2.83, "note_off_time": 3.046}, {"pitch": 60, "velocity": 66, "note_on_time": 3.042, "note_off_time": 3.149}, {"pitch": 60, "velocity": 64, "note_on_time": 3.262, "note_off_time": 3.511}, {"pitch": 65, "velocity": 62, "note_on_time": 3.485, "note_off_time": 3.795}, {"pitch": 65, "velocity": 61, "note_on_time": 4.149, "note_off_time": 4.419}, {"pitch": 67, "velocity": 55, "note_on_time": 4.355, "note_off_time": 4.583}, {"pitch": 62, "velocity": 62, "note_on_time": 4.574, "note_off_time": 4.811}, {"pitch": 67, "velocity": 55, "note_on_time": 4.759, "note_off_time": 5.106}, {"pitch": 65, "velocity": 67, "note_on_time": 4.989, "note_off_time": 5.202}, {"pitch": 62, "velocity": 56, "note_on_time": 5.189, "note_off_time": 5.466}, {"pitch": 67, "velocity": 60, "note_on_time": 5.411, "note_off_time": 5.517}, {"pitch": 67, "velocity": 71, "note_on_time": 5.602, "note_off_time": 5.703}, {"pitch": 67, "velocity": 58, "note_on_time": 5.818, "note_off_time": 6.053}, {"pitch": 64, "velocity": 63, "note_on_time": 6.05, "note_off_time": 6.258}, {"pitch": 67, "velocity": 54, "note_on_time": 6.27, "note_off_time": 6.529}, {"pitch": 65, "velocity": 68, "note_on_time": 6.478, "note_off_time": 6.778}, {"pitch": 65, "velocity": 64, "note_on_time": 7.015, "note_off_time": 7.088}, {"pitch": 65, "velocity": 68, "note_on_time": 7.227, "note_off_time": 7.304}, {"pitch": 65, "velocity": 70, "note_on_time": 7.417, "note_off_time": 7.536}]</notes><guidance name="Guidance Mode">None</guidance><error name="Error value">0.024761869565217174</error></trial><trial trial_no="2" timestamp="2022_11_03-09_16_53"><notes name="Played Notes">[{"pitch": 67, "velocity": 61, "note_on_time": 0.892, "note_off_time": 1.39}, {"pitch": 62, "velocity": 58, "note_on_time": 1.605, "note_off_time": 1.889}, {"pitch": 67, "velocity": 59, "note_on_time": 1.813, "note_off_time": 1.916}, {"pitch": 67, "velocity": 56, "note_on_time": 2.027, "note_off_time": 2.262}, {"pitch": 65, "velocity": 73, "note_on_time": 2.206, "note_off_time": 2.317}, {"pitch": 65, "velocity": 62, "note_on_time": 2.432, "note_off_time": 2.653}, {"pitch": 60, "velocity": 57, "note_on_time": 2.653, "note_off_time": 2.885}, {"pitch": 67, "velocity": 60, "note_on_time": 2.864, "note_off_time": 3.074}, {"pitch": 60, "velocity": 65, "note_on_time": 3.062, "note_off_time": 3.164}, {"pitch": 60, "velocity": 62, "note_on_time": 3.293, "note_off_time": 3.584}, {"pitch": 65, "velocity": 57, "note_on_time": 3.526, "note_off_time": 3.816}, {"pitch": 65, "velocity": 54, "note_on_time": 4.177, "note_off_time": 4.417}, {"pitch": 67, "velocity": 54, "note_on_time": 4.355, "note_off_time": 4.584}, {"pitch": 62, "velocity": 57, "note_on_time": 4.586, "note_off_time": 4.848}, {"pitch": 67, "velocity": 53, "note_on_time": 4.78, "note_off_time": 5.07}, {"pitch": 65, "velocity": 60, "note_on_time": 5.017, "note_off_time": 5.226}, {"pitch": 62, "velocity": 60, "note_on_time": 5.208, "note_off_time": 5.467}, {"pitch": 67, "velocity": 55, "note_on_time": 5.417, "note_off_time": 5.5}, {"pitch": 67, "velocity": 52, "note_on_time": 5.626, "note_off_time": 5.734}, {"pitch": 67, "velocity": 58, "note_on_time": 5.873, "note_off_time": 6.117}, {"pitch": 64, "velocity": 62, "note_on_time": 6.098, "note_off_time": 6.317}, {"pitch": 67, "velocity": 50, "note_on_time": 6.316, "note_off_time": 6.584}, {"pitch": 65, "velocity": 68, "note_on_time": 6.536, "note_off_time": 6.809}, {"pitch": 65, "velocity": 58, "note_on_time": 7.038, "note_off_time": 7.102}, {"pitch": 65, "velocity": 52, "note_on_time": 7.245, "note_off_time": 7.312}, {"pitch": 65, "velocity": 56, "note_on_time": 7.454, "note_off_time": 7.548}]</notes><guidance name="Guidance Mode">None</guidance><error name="Error value">0.023325086956521694</error></trial><trial trial_no="3" timestamp="2022_11_03-09_17_08"><notes name="Played Notes">[{"pitch": 67, "velocity": 61, "note_on_time": 0.92, "note_off_time": 1.415}, {"pitch": 62, "velocity": 64, "note_on_time": 1.618, "note_off_time": 1.893}, {"pitch": 67, "velocity": 56, "note_on_time": 1.832, "note_off_time": 1.947}, {"pitch": 67, "velocity": 72, "note_on_time": 2.034, "note_off_time": 2.297}, {"pitch": 65, "velocity": 66, "note_on_time": 2.243, "note_off_time": 2.356}, {"pitch": 65, "velocity": 53, "note_on_time": 2.459, "note_off_time": 2.689}, {"pitch": 60, "velocity": 58, "note_on_time": 2.668, "note_off_time": 2.905}, {"pitch": 67, "velocity": 56, "note_on_time": 2.883, "note_off_time": 3.093}, {"pitch": 60, "velocity": 55, "note_on_time": 3.069, "note_off_time": 3.183}, {"pitch": 60, "velocity": 62, "note_on_time": 3.289, "note_off_time": 3.552}, {"pitch": 65, "velocity": 56, "note_on_time": 3.513, "note_off_time": 3.847}, {"pitch": 65, "velocity": 57, "note_on_time": 4.149, "note_off_time": 4.409}, {"pitch": 67, "velocity": 52, "note_on_time": 4.366, "note_off_time": 4.591}, {"pitch": 62, "velocity": 52, "note_on_time": 4.604, "note_off_time": 4.845}, {"pitch": 67, "velocity": 51, "note_on_time": 4.788, "note_off_time": 4.967}, {"pitch": 65, "velocity": 76, "note_on_time": 4.972, "note_off_time": 5.221}, {"pitch": 62, "velocity": 61, "note_on_time": 5.204, "note_off_time": 5.501}, {"pitch": 67, "velocity": 61, "note_on_time": 5.432, "note_off_time": 5.541}, {"pitch": 67, "velocity": 64, "note_on_time": 5.633, "note_off_time": 5.734}, {"pitch": 67, "velocity": 45, "note_on_time": 5.862, "note_off_time": 6.104}, {"pitch": 64, "velocity": 53, "note_on_time": 6.097, "note_off_time": 6.305}, {"pitch": 67, "velocity": 54, "note_on_time": 6.331, "note_off_time": 6.589}, {"pitch": 65, "velocity": 60, "note_on_time": 6.559, "note_off_time": 6.865}, {"pitch": 65, "velocity": 57, "note_on_time": 7.045, "note_off_time": 7.118}, {"pitch": 65, "velocity": 57, "note_on_time": 7.265, "note_off_time": 7.33}, {"pitch": 65, "velocity": 55, "note_on_time": 7.497, "note_off_time": 7.613}]</notes><guidance name="Guidance Mode">None</guidance><error name="Error value">0.022540478260869464</error></trial></trials></MIDI>