<MIDI midiNo="2022_11_03-09_00_03"><target_notes><notes name="Note List">[{"pitch": 42, "velocity": 80, "note_on_time": 0.003, "note_off_time": 0.614}, {"pitch": 42, "velocity": 80, "note_on_time": 0.615, "note_off_time": 1.22}, {"pitch": 42, "velocity": 80, "note_on_time": 1.22, "note_off_time": 1.831}, {"pitch": 42, "velocity": 80, "note_on_time": 1.832, "note_off_time": 2.439}, {"pitch": 42, "velocity": 80, "note_on_time": 2.44, "note_off_time": 3.043}, {"pitch": 62, "velocity": 80, "note_on_time": 2.439, "note_off_time": 3.649}, {"pitch": 42, "velocity": 80, "note_on_time": 3.044, "note_off_time": 3.649}, {"pitch": 42, "velocity": 80, "note_on_time": 3.649, "note_off_time": 4.252}, {"pitch": 62, "velocity": 80, "note_on_time": 4.251, "note_off_time": 4.857}, {"pitch": 42, "velocity": 80, "note_on_time": 4.252, "note_off_time": 4.857}, {"pitch": 60, "velocity": 80, "note_on_time": 4.857, "note_off_time": 5.465}, {"pitch": 42, "velocity": 80, "note_on_time": 4.858, "note_off_time": 5.465}, {"pitch": 42, "velocity": 80, "note_on_time": 5.465, "note_off_time": 6.071}, {"pitch": 42, "velocity": 80, "note_on_time": 6.072, "note_off_time": 6.677}, {"pitch": 60, "velocity": 80, "note_on_time": 6.071, "note_off_time": 7.285}, {"pitch": 42, "velocity": 80, "note_on_time": 6.678, "note_off_time": 7.286}, {"pitch": 42, "velocity": 80, "note_on_time": 7.286, "note_off_time": 7.891}, {"pitch": 60, "velocity": 80, "note_on_time": 7.285, "note_off_time": 8.496}, {"pitch": 42, "velocity": 80, "note_on_time": 7.892, "note_off_time": 8.497}, {"pitch": 62, "velocity": 80, "note_on_time": 8.496, "note_off_time": 9.102}, {"pitch": 42, "velocity": 80, "note_on_time": 8.497, "note_off_time": 9.102}, {"pitch": 60, "velocity": 80, "note_on_time": 9.102, "note_off_time": 9.71}, {"pitch": 42, "velocity": 80, "note_on_time": 9.102, "note_off_time": 9.71}, {"pitch": 60, "velocity": 80, "note_on_time": 9.71, "note_off_time": 10.318}, {"pitch": 42, "velocity": 80, "note_on_time": 9.711, "note_off_time": 10.318}, {"pitch": 42, "velocity": 80, "note_on_time": 10.319, "note_off_time": 10.925}, {"pitch": 62, "velocity": 80, "note_on_time": 10.318, "note_off_time": 11.532}, {"pitch": 42, "velocity": 80, "note_on_time": 10.925, "note_off_time": 11.533}, {"pitch": 60, "velocity": 80, "note_on_time": 11.532, "note_off_time": 12.138}, {"pitch": 42, "velocity": 80, "note_on_time": 11.533, "note_off_time": 12.138}, {"pitch": 62, "velocity": 80, "note_on_time": 12.138, "note_off_time": 12.744}, {"pitch": 42, "velocity": 80, "note_on_time": 12.138, "note_off_time": 12.744}, {"pitch": 60, "velocity": 80, "note_on_time": 12.744, "note_off_time": 13.349}, {"pitch": 42, "velocity": 80, "note_on_time": 12.744, "note_off_time": 13.349}, {"pitch": 62, "velocity": 80, "note_on_time": 13.349, "note_off_time": 13.958}, {"pitch": 42, "velocity": 80, "note_on_time": 13.349, "note_off_time": 13.958}, {"pitch": 62, "velocity": 80, "note_on_time": 13.958, "note_off_time": 14.564}, {"pitch": 42, "velocity": 80, "note_on_time": 13.958, "note_off_time": 14.564}, {"pitch": 42, "velocity": 80, "note_on_time": 14.564, "note_off_time": 15.173}, {"pitch": 62, "velocity": 80, "note_on_time": 14.564, "note_off_time": 15.777}, {"pitch": 42, "velocity": 80, "note_on_time": 15.174, "note_off_time": 15.778}, {"pitch": 42, "velocity": 80, "note_on_time": 15.778, "note_off_time": 16.385}, {"pitch": 42, "velocity": 80, "note_on_time": 16.385, "note_off_time": 16.992}, {"pitch": 62, "velocity": 80, "note_on_time": 16.992, "note_off_time": 17.594}, {"pitch": 42, "velocity": 80, "note_on_time": 16.992, "note_off_time": 17.595}, {"pitch": 62, "velocity": 80, "note_on_time": 17.594, "note_off_time": 18.2}, {"pitch": 42, "velocity": 80, "note_on_time": 17.595, "note_off_time": 18.2}, {"pitch": 60, "velocity": 80, "note_on_time": 18.2, "note_off_time": 18.805}, {"pitch": 42, "velocity": 80, "note_on_time": 18.2, "note_off_time": 18.806}, {"pitch": 62, "velocity": 80, "note_on_time": 18.805, "note_off_time": 19.412}, {"pitch": 42, "velocity": 80, "note_on_time": 18.806, "note_off_time": 19.412}, {"pitch": 42, "velocity": 80, "note_on_time": 19.413, "note_off_time": 20.017}, {"pitch": 62, "velocity": 80, "note_on_time": 20.017, "note_off_time": 20.626}, {"pitch": 42, "velocity": 80, "note_on_time": 20.017, "note_off_time": 20.626}, {"pitch": 62, "velocity": 80, "note_on_time": 20.626, "note_off_time": 21.232}, {"pitch": 42, "velocity": 80, "note_on_time": 20.626, "note_off_time": 21.232}, {"pitch": 62, "velocity": 80, "note_on_time": 21.232, "note_off_time": 21.841}, {"pitch": 42, "velocity": 80, "note_on_time": 21.233, "note_off_time": 21.842}]</notes><options name="Option List">((4, 4), [0.5, 0.25], 3, 8, &lt;NoteRangePerHand.TWO_NOTES: 3&gt;, &lt;NoteRangePerHand.ONE_NOTE: 2&gt;, False, True, True, 100)</options></target_notes><trials><trial trial_no="1" timestamp="2022_11_03-08_59_39"><notes name="Played Notes">[{"pitch": 62, "velocity": 54, "note_on_time": 2.488, "note_off_time": 3.114}, {"pitch": 62, "velocity": 78, "note_on_time": 9.683, "note_off_time": 10.574}, {"pitch": 62, "velocity": 62, "note_on_time": 10.923, "note_off_time": 11.584}, {"pitch": 60, "velocity": 72, "note_on_time": 11.542, "note_off_time": 12.253}, {"pitch": 60, "velocity": 59, "note_on_time": 12.721, "note_off_time": 13.642}, {"pitch": 60, "velocity": 66, "note_on_time": 13.909, "note_off_time": 14.916}, {"pitch": 62, "velocity": 54, "note_on_time": 15.13, "note_off_time": 15.81}, {"pitch": 60, "velocity": 70, "note_on_time": 15.792, "note_off_time": 16.128}, {"pitch": 60, "velocity": 70, "note_on_time": 16.374, "note_off_time": 17.034}, {"pitch": 62, "velocity": 50, "note_on_time": 16.967, "note_off_time": 17.814}, {"pitch": 60, "velocity": 67, "note_on_time": 18.131, "note_off_time": 18.792}, {"pitch": 62, "velocity": 62, "note_on_time": 18.747, "note_off_time": 19.362}, {"pitch": 60, "velocity": 71, "note_on_time": 19.355, "note_off_time": 20.01}, {"pitch": 62, "velocity": 61, "note_on_time": 19.948, "note_off_time": 20.331}, {"pitch": 62, "velocity": 68, "note_on_time": 20.584, "note_off_time": 20.921}]</notes><guidance name="Guidance Mode">None</guidance><error name="Error value">0.9471052631578945</error></trial></trials></MIDI>