<MIDI midiNo="2022_09_29-12_31_52"><target_notes><notes name="Note List">[{"pitch": 42, "velocity": 80, "note_on_time": 0.004, "note_off_time": 0.299}, {"pitch": 42, "velocity": 80, "note_on_time": 0.299, "note_off_time": 0.593}, {"pitch": 42, "velocity": 80, "note_on_time": 0.593, "note_off_time": 0.889}, {"pitch": 42, "velocity": 80, "note_on_time": 0.889, "note_off_time": 1.183}, {"pitch": 62, "velocity": 80, "note_on_time": 1.182, "note_off_time": 1.479}, {"pitch": 42, "velocity": 80, "note_on_time": 1.183, "note_off_time": 1.479}, {"pitch": 60, "velocity": 80, "note_on_time": 1.479, "note_off_time": 1.76}, {"pitch": 42, "velocity": 80, "note_on_time": 1.479, "note_off_time": 1.76}, {"pitch": 60, "velocity": 80, "note_on_time": 1.76, "note_off_time": 2.053}, {"pitch": 42, "velocity": 80, "note_on_time": 1.76, "note_off_time": 2.053}, {"pitch": 62, "velocity": 80, "note_on_time": 2.053, "note_off_time": 2.349}, {"pitch": 42, "velocity": 80, "note_on_time": 2.054, "note_off_time": 2.349}, {"pitch": 42, "velocity": 80, "note_on_time": 2.35, "note_off_time": 2.63}, {"pitch": 64, "velocity": 80, "note_on_time": 2.349, "note_off_time": 2.911}, {"pitch": 42, "velocity": 80, "note_on_time": 2.631, "note_off_time": 2.911}, {"pitch": 42, "velocity": 80, "note_on_time": 2.911, "note_off_time": 3.206}, {"pitch": 62, "velocity": 80, "note_on_time": 2.911, "note_off_time": 3.501}, {"pitch": 42, "velocity": 80, "note_on_time": 3.206, "note_off_time": 3.501}, {"pitch": 60, "velocity": 80, "note_on_time": 3.501, "note_off_time": 3.795}, {"pitch": 42, "velocity": 80, "note_on_time": 3.502, "note_off_time": 3.795}, {"pitch": 64, "velocity": 80, "note_on_time": 3.795, "note_off_time": 4.079}, {"pitch": 42, "velocity": 80, "note_on_time": 3.796, "note_off_time": 4.079}, {"pitch": 62, "velocity": 80, "note_on_time": 4.079, "note_off_time": 4.374}, {"pitch": 42, "velocity": 80, "note_on_time": 4.079, "note_off_time": 4.375}, {"pitch": 62, "velocity": 80, "note_on_time": 4.374, "note_off_time": 4.655}, {"pitch": 42, "velocity": 80, "note_on_time": 4.375, "note_off_time": 4.656}, {"pitch": 64, "velocity": 80, "note_on_time": 4.655, "note_off_time": 4.937}, {"pitch": 42, "velocity": 80, "note_on_time": 4.656, "note_off_time": 4.937}, {"pitch": 42, "velocity": 80, "note_on_time": 4.937, "note_off_time": 5.233}, {"pitch": 62, "velocity": 80, "note_on_time": 4.937, "note_off_time": 5.518}, {"pitch": 42, "velocity": 80, "note_on_time": 5.233, "note_off_time": 5.518}, {"pitch": 42, "velocity": 80, "note_on_time": 5.518, "note_off_time": 5.803}, {"pitch": 64, "velocity": 80, "note_on_time": 5.803, "note_off_time": 6.084}, {"pitch": 42, "velocity": 80, "note_on_time": 5.804, "note_off_time": 6.084}, {"pitch": 42, "velocity": 80, "note_on_time": 6.085, "note_off_time": 6.365}, {"pitch": 42, "velocity": 80, "note_on_time": 6.365, "note_off_time": 6.661}, {"pitch": 42, "velocity": 80, "note_on_time": 6.661, "note_off_time": 6.943}, {"pitch": 42, "velocity": 80, "note_on_time": 6.943, "note_off_time": 7.238}, {"pitch": 64, "velocity": 80, "note_on_time": 6.942, "note_off_time": 7.519}, {"pitch": 42, "velocity": 80, "note_on_time": 7.238, "note_off_time": 7.519}, {"pitch": 42, "velocity": 80, "note_on_time": 7.519, "note_off_time": 7.815}, {"pitch": 42, "velocity": 80, "note_on_time": 7.815, "note_off_time": 8.111}, {"pitch": 60, "velocity": 80, "note_on_time": 8.11, "note_off_time": 8.392}, {"pitch": 42, "velocity": 80, "note_on_time": 8.111, "note_off_time": 8.392}, {"pitch": 64, "velocity": 80, "note_on_time": 8.392, "note_off_time": 8.688}, {"pitch": 42, "velocity": 80, "note_on_time": 8.393, "note_off_time": 8.688}, {"pitch": 42, "velocity": 80, "note_on_time": 8.688, "note_off_time": 8.982}, {"pitch": 42, "velocity": 80, "note_on_time": 8.982, "note_off_time": 9.277}, {"pitch": 42, "velocity": 80, "note_on_time": 9.277, "note_off_time": 9.571}, {"pitch": 64, "velocity": 80, "note_on_time": 9.571, "note_off_time": 9.867}, {"pitch": 42, "velocity": 80, "note_on_time": 9.572, "note_off_time": 9.868}, {"pitch": 64, "velocity": 80, "note_on_time": 9.867, "note_off_time": 10.149}, {"pitch": 42, "velocity": 80, "note_on_time": 9.868, "note_off_time": 10.149}, {"pitch": 64, "velocity": 80, "note_on_time": 10.149, "note_off_time": 10.443}, {"pitch": 42, "velocity": 80, "note_on_time": 10.15, "note_off_time": 10.443}]</notes><options name="Option List">((4, 4), [0.5, 0.25], 3, 8, &lt;NoteRangePerHand.THREE_NOTES: 4&gt;, &lt;NoteRangePerHand.ONE_NOTE: 2&gt;, False, True, False, '215')</options></target_notes><trials><trial trial_no="1" timestamp="2022_09_29-12_31_40"><notes name="Played Notes">[{"pitch": 62, "velocity": 80, "note_on_time": 1.2, "note_off_time": 1.464}, {"pitch": 60, "velocity": 92, "note_on_time": 1.487, "note_off_time": 1.628}, {"pitch": 60, "velocity": 89, "note_on_time": 1.771, "note_off_time": 1.948}, {"pitch": 62, "velocity": 81, "note_on_time": 2.085, "note_off_time": 2.229}, {"pitch": 64, "velocity": 93, "note_on_time": 2.377, "note_off_time": 2.839}, {"pitch": 62, "velocity": 88, "note_on_time": 2.935, "note_off_time": 3.36}, {"pitch": 60, "velocity": 87, "note_on_time": 3.493, "note_off_time": 3.737}, {"pitch": 64, "velocity": 84, "note_on_time": 3.763, "note_off_time": 3.981}, {"pitch": 62, "velocity": 87, "note_on_time": 4.052, "note_off_time": 4.198}, {"pitch": 62, "velocity": 78, "note_on_time": 4.324, "note_off_time": 4.518}, {"pitch": 64, "velocity": 81, "note_on_time": 4.63, "note_off_time": 4.874}, {"pitch": 62, "velocity": 84, "note_on_time": 4.904, "note_off_time": 5.574}, {"pitch": 62, "velocity": 93, "note_on_time": 5.838, "note_off_time": 6.477}, {"pitch": 64, "velocity": 87, "note_on_time": 6.938, "note_off_time": 7.666}, {"pitch": 60, "velocity": 94, "note_on_time": 8.074, "note_off_time": 8.365}, {"pitch": 64, "velocity": 83, "note_on_time": 8.378, "note_off_time": 8.728}, {"pitch": 64, "velocity": 92, "note_on_time": 9.291, "note_off_time": 9.412}, {"pitch": 62, "velocity": 72, "note_on_time": 9.521, "note_off_time": 9.669}, {"pitch": 62, "velocity": 81, "note_on_time": 9.813, "note_off_time": 10.101}]</notes><guidance name="Guidance Mode">None</guidance><error name="Error value">0.22137931249999987</error></trial><trial trial_no="2" timestamp="2022_09_29-12_32_03"><notes name="Played Notes">[{"pitch": 62, "velocity": 76, "note_on_time": 1.176, "note_off_time": 1.466}, {"pitch": 60, "velocity": 94, "note_on_time": 1.469, "note_off_time": 1.602}, {"pitch": 60, "velocity": 81, "note_on_time": 1.744, "note_off_time": 1.919}, {"pitch": 62, "velocity": 79, "note_on_time": 2.059, "note_off_time": 2.191}, {"pitch": 64, "velocity": 85, "note_on_time": 2.345, "note_off_time": 2.875}, {"pitch": 62, "velocity": 94, "note_on_time": 2.928, "note_off_time": 3.374}, {"pitch": 60, "velocity": 89, "note_on_time": 3.517, "note_off_time": 3.79}, {"pitch": 64, "velocity": 84, "note_on_time": 3.804, "note_off_time": 4.007}, {"pitch": 62, "velocity": 72, "note_on_time": 4.11, "note_off_time": 4.251}, {"pitch": 62, "velocity": 70, "note_on_time": 4.388, "note_off_time": 4.558}, {"pitch": 64, "velocity": 90, "note_on_time": 4.703, "note_off_time": 4.926}, {"pitch": 62, "velocity": 90, "note_on_time": 4.978, "note_off_time": 5.645}, {"pitch": 62, "velocity": 50, "note_on_time": 5.936, "note_off_time": 5.991}, {"pitch": 64, "velocity": 92, "note_on_time": 5.97, "note_off_time": 6.73}, {"pitch": 64, "velocity": 94, "note_on_time": 7.04, "note_off_time": 7.885}, {"pitch": 60, "velocity": 88, "note_on_time": 8.133, "note_off_time": 8.383}, {"pitch": 64, "velocity": 81, "note_on_time": 8.413, "note_off_time": 8.804}, {"pitch": 62, "velocity": 45, "note_on_time": 9.023, "note_off_time": 9.179}, {"pitch": 62, "velocity": 77, "note_on_time": 9.298, "note_off_time": 9.448}, {"pitch": 62, "velocity": 78, "note_on_time": 9.582, "note_off_time": 9.893}]</notes><guidance name="Guidance Mode">None</guidance><error name="Error value">0.3633168125</error></trial><trial trial_no="3" timestamp="2022_09_29-12_32_33"><notes name="Played Notes">[{"pitch": 62, "velocity": 77, "note_on_time": 1.148, "note_off_time": 1.427}, {"pitch": 60, "velocity": 92, "note_on_time": 1.458, "note_off_time": 1.59}, {"pitch": 60, "velocity": 89, "note_on_time": 1.736, "note_off_time": 1.919}, {"pitch": 62, "velocity": 81, "note_on_time": 2.039, "note_off_time": 2.181}, {"pitch": 64, "velocity": 86, "note_on_time": 2.332, "note_off_time": 2.877}, {"pitch": 62, "velocity": 86, "note_on_time": 2.913, "note_off_time": 3.424}, {"pitch": 60, "velocity": 84, "note_on_time": 3.488, "note_off_time": 3.783}, {"pitch": 64, "velocity": 84, "note_on_time": 3.781, "note_off_time": 4.019}, {"pitch": 62, "velocity": 83, "note_on_time": 4.084, "note_off_time": 4.214}, {"pitch": 62, "velocity": 81, "note_on_time": 4.363, "note_off_time": 4.528}, {"pitch": 64, "velocity": 85, "note_on_time": 4.672, "note_off_time": 4.946}, {"pitch": 62, "velocity": 86, "note_on_time": 4.977, "note_off_time": 5.733}, {"pitch": 60, "velocity": 88, "note_on_time": 5.879, "note_off_time": 6.026}, {"pitch": 62, "velocity": 74, "note_on_time": 6.106, "note_off_time": 6.752}, {"pitch": 64, "velocity": 87, "note_on_time": 6.995, "note_off_time": 7.738}, {"pitch": 60, "velocity": 87, "note_on_time": 8.169, "note_off_time": 8.436}, {"pitch": 64, "velocity": 79, "note_on_time": 8.468, "note_off_time": 9.33}, {"pitch": 62, "velocity": 83, "note_on_time": 9.678, "note_off_time": 9.833}, {"pitch": 62, "velocity": 91, "note_on_time": 9.974, "note_off_time": 10.098}, {"pitch": 62, "velocity": 98, "note_on_time": 10.24, "note_off_time": 10.429}]</notes><guidance name="Guidance Mode">None</guidance><error name="Error value">0.9878641874999998</error></trial></trials></MIDI>