<MIDI midiNo="2022_12_22-10_28_41"><target_notes><notes name="Note List">[{"pitch": 42, "velocity": 80, "note_on_time": 0.004, "note_off_time": 0.616}, {"pitch": 42, "velocity": 80, "note_on_time": 0.616, "note_off_time": 1.222}, {"pitch": 42, "velocity": 80, "note_on_time": 1.222, "note_off_time": 1.83}, {"pitch": 42, "velocity": 80, "note_on_time": 1.83, "note_off_time": 2.438}, {"pitch": 64, "velocity": 80, "note_on_time": 2.438, "note_off_time": 3.047}, {"pitch": 42, "velocity": 80, "note_on_time": 2.438, "note_off_time": 3.047}, {"pitch": 42, "velocity": 80, "note_on_time": 3.048, "note_off_time": 3.654}, {"pitch": 62, "velocity": 80, "note_on_time": 3.047, "note_off_time": 4.259}, {"pitch": 42, "velocity": 80, "note_on_time": 3.654, "note_off_time": 4.259}, {"pitch": 42, "velocity": 80, "note_on_time": 4.259, "note_off_time": 4.865}, {"pitch": 64, "velocity": 80, "note_on_time": 4.865, "note_off_time": 5.472}, {"pitch": 42, "velocity": 80, "note_on_time": 4.865, "note_off_time": 5.472}, {"pitch": 64, "velocity": 80, "note_on_time": 5.472, "note_off_time": 6.079}, {"pitch": 42, "velocity": 80, "note_on_time": 5.472, "note_off_time": 6.079}, {"pitch": 64, "velocity": 80, "note_on_time": 6.079, "note_off_time": 6.682}, {"pitch": 42, "velocity": 80, "note_on_time": 6.08, "note_off_time": 6.682}, {"pitch": 62, "velocity": 80, "note_on_time": 6.682, "note_off_time": 7.289}, {"pitch": 42, "velocity": 80, "note_on_time": 6.682, "note_off_time": 7.289}, {"pitch": 42, "velocity": 80, "note_on_time": 7.289, "note_off_time": 7.896}, {"pitch": 60, "velocity": 80, "note_on_time": 7.289, "note_off_time": 8.501}, {"pitch": 42, "velocity": 80, "note_on_time": 7.896, "note_off_time": 8.501}, {"pitch": 42, "velocity": 80, "note_on_time": 8.501, "note_off_time": 9.111}, {"pitch": 42, "velocity": 80, "note_on_time": 9.111, "note_off_time": 9.722}, {"pitch": 62, "velocity": 80, "note_on_time": 9.722, "note_off_time": 10.327}, {"pitch": 42, "velocity": 80, "note_on_time": 9.722, "note_off_time": 10.328}, {"pitch": 42, "velocity": 80, "note_on_time": 10.328, "note_off_time": 10.932}, {"pitch": 62, "velocity": 80, "note_on_time": 10.327, "note_off_time": 11.539}, {"pitch": 42, "velocity": 80, "note_on_time": 10.932, "note_off_time": 11.539}, {"pitch": 42, "velocity": 80, "note_on_time": 11.539, "note_off_time": 12.15}, {"pitch": 62, "velocity": 80, "note_on_time": 12.15, "note_off_time": 12.755}, {"pitch": 42, "velocity": 80, "note_on_time": 12.15, "note_off_time": 12.755}, {"pitch": 62, "velocity": 80, "note_on_time": 12.755, "note_off_time": 13.364}, {"pitch": 42, "velocity": 80, "note_on_time": 12.755, "note_off_time": 13.364}, {"pitch": 62, "velocity": 80, "note_on_time": 13.364, "note_off_time": 13.967}, {"pitch": 42, "velocity": 80, "note_on_time": 13.364, "note_off_time": 13.967}, {"pitch": 60, "velocity": 80, "note_on_time": 13.967, "note_off_time": 14.573}, {"pitch": 42, "velocity": 80, "note_on_time": 13.967, "note_off_time": 14.574}, {"pitch": 42, "velocity": 80, "note_on_time": 14.574, "note_off_time": 15.186}, {"pitch": 64, "velocity": 80, "note_on_time": 14.573, "note_off_time": 15.792}, {"pitch": 42, "velocity": 80, "note_on_time": 15.187, "note_off_time": 15.793}, {"pitch": 42, "velocity": 80, "note_on_time": 15.793, "note_off_time": 16.4}, {"pitch": 42, "velocity": 80, "note_on_time": 16.4, "note_off_time": 17.007}, {"pitch": 64, "velocity": 80, "note_on_time": 17.007, "note_off_time": 17.615}, {"pitch": 42, "velocity": 80, "note_on_time": 17.007, "note_off_time": 17.615}, {"pitch": 60, "velocity": 80, "note_on_time": 17.615, "note_off_time": 18.223}, {"pitch": 42, "velocity": 80, "note_on_time": 17.615, "note_off_time": 18.223}, {"pitch": 62, "velocity": 80, "note_on_time": 18.223, "note_off_time": 18.829}, {"pitch": 42, "velocity": 80, "note_on_time": 18.223, "note_off_time": 18.83}, {"pitch": 64, "velocity": 80, "note_on_time": 18.829, "note_off_time": 19.435}, {"pitch": 42, "velocity": 80, "note_on_time": 18.83, "note_off_time": 19.435}, {"pitch": 42, "velocity": 80, "note_on_time": 19.435, "note_off_time": 20.046}, {"pitch": 64, "velocity": 80, "note_on_time": 20.046, "note_off_time": 20.652}, {"pitch": 42, "velocity": 80, "note_on_time": 20.047, "note_off_time": 20.652}, {"pitch": 64, "velocity": 80, "note_on_time": 20.652, "note_off_time": 21.259}, {"pitch": 42, "velocity": 80, "note_on_time": 20.653, "note_off_time": 21.259}, {"pitch": 64, "velocity": 80, "note_on_time": 21.259, "note_off_time": 21.867}, {"pitch": 42, "velocity": 80, "note_on_time": 21.259, "note_off_time": 21.867}]</notes><options name="Option List">((4, 4), [0.5, 0.25], 3, 8, &lt;NoteRangePerHand.THREE_NOTES: 4&gt;, &lt;NoteRangePerHand.ONE_NOTE: 2&gt;, False, True, False, '100')</options></target_notes><trials><trial trial_no="1" timestamp="2022_12_22-10_28_18"><notes name="Played Notes">[{"pitch": 64, "velocity": 61, "note_on_time": 2.513, "note_off_time": 2.989}, {"pitch": 62, "velocity": 81, "note_on_time": 3.074, "note_off_time": 4.25}, {"pitch": 64, "velocity": 59, "note_on_time": 4.804, "note_off_time": 5.173}, {"pitch": 64, "velocity": 59, "note_on_time": 5.472, "note_off_time": 5.707}, {"pitch": 64, "velocity": 58, "note_on_time": 6.095, "note_off_time": 6.577}, {"pitch": 62, "velocity": 74, "note_on_time": 6.701, "note_off_time": 7.078}, {"pitch": 60, "velocity": 67, "note_on_time": 7.288, "note_off_time": 8.635}, {"pitch": 62, "velocity": 62, "note_on_time": 9.022, "note_off_time": 9.459}, {"pitch": 62, "velocity": 74, "note_on_time": 9.778, "note_off_time": 11.17}, {"pitch": 62, "velocity": 73, "note_on_time": 11.497, "note_off_time": 11.837}, {"pitch": 62, "velocity": 64, "note_on_time": 12.162, "note_off_time": 12.445}, {"pitch": 62, "velocity": 68, "note_on_time": 12.779, "note_off_time": 13.152}, {"pitch": 60, "velocity": 52, "note_on_time": 13.372, "note_off_time": 13.841}, {"pitch": 64, "velocity": 56, "note_on_time": 13.99, "note_off_time": 15.322}, {"pitch": 64, "velocity": 52, "note_on_time": 15.725, "note_off_time": 16.31}, {"pitch": 60, "velocity": 56, "note_on_time": 16.385, "note_off_time": 16.796}, {"pitch": 64, "velocity": 61, "note_on_time": 17.021, "note_off_time": 17.553}, {"pitch": 62, "velocity": 72, "note_on_time": 17.76, "note_off_time": 17.945}, {"pitch": 64, "velocity": 47, "note_on_time": 18.096, "note_off_time": 18.483}, {"pitch": 64, "velocity": 60, "note_on_time": 18.689, "note_off_time": 19.027}, {"pitch": 64, "velocity": 42, "note_on_time": 19.381, "note_off_time": 19.739}]</notes><guidance name="Guidance Mode">None</guidance><error name="Error value">0.28288888888888897</error></trial><trial trial_no="2" timestamp="2022_12_22-10_29_00"><notes name="Played Notes">[{"pitch": 64, "velocity": 61, "note_on_time": 2.406, "note_off_time": 2.921}, {"pitch": 62, "velocity": 69, "note_on_time": 3.049, "note_off_time": 4.224}, {"pitch": 64, "velocity": 68, "note_on_time": 4.824, "note_off_time": 5.107}, {"pitch": 64, "velocity": 63, "note_on_time": 5.478, "note_off_time": 5.728}, {"pitch": 64, "velocity": 67, "note_on_time": 6.074, "note_off_time": 6.32}, {"pitch": 62, "velocity": 69, "note_on_time": 6.684, "note_off_time": 6.979}, {"pitch": 60, "velocity": 72, "note_on_time": 7.223, "note_off_time": 8.754}, {"pitch": 62, "velocity": 59, "note_on_time": 9.106, "note_off_time": 9.413}, {"pitch": 62, "velocity": 60, "note_on_time": 9.707, "note_off_time": 10.54}, {"pitch": 62, "velocity": 64, "note_on_time": 10.93, "note_off_time": 11.204}, {"pitch": 62, "velocity": 62, "note_on_time": 11.556, "note_off_time": 11.795}, {"pitch": 62, "velocity": 68, "note_on_time": 12.142, "note_off_time": 12.422}, {"pitch": 60, "velocity": 63, "note_on_time": 12.762, "note_off_time": 13.127}, {"pitch": 64, "velocity": 65, "note_on_time": 13.401, "note_off_time": 13.706}, {"pitch": 64, "velocity": 66, "note_on_time": 15.799, "note_off_time": 16.113}, {"pitch": 60, "velocity": 62, "note_on_time": 16.392, "note_off_time": 16.807}, {"pitch": 62, "velocity": 74, "note_on_time": 17.023, "note_off_time": 17.349}, {"pitch": 64, "velocity": 63, "note_on_time": 17.639, "note_off_time": 17.937}, {"pitch": 62, "velocity": 60, "note_on_time": 18.809, "note_off_time": 19.018}, {"pitch": 64, "velocity": 67, "note_on_time": 19.32, "note_off_time": 19.631}, {"pitch": 64, "velocity": 55, "note_on_time": 19.973, "note_off_time": 20.528}, {"pitch": 64, "velocity": 61, "note_on_time": 21.085, "note_off_time": 21.695}]</notes><guidance name="Guidance Mode">None</guidance><error name="Error value">0.811055555555555</error></trial><trial trial_no="3" timestamp="2022_12_22-10_30_22"><notes name="Played Notes">[{"pitch": 64, "velocity": 59, "note_on_time": 2.455, "note_off_time": 2.677}, {"pitch": 62, "velocity": 73, "note_on_time": 3.009, "note_off_time": 4.071}, {"pitch": 64, "velocity": 62, "note_on_time": 4.801, "note_off_time": 5.14}, {"pitch": 64, "velocity": 60, "note_on_time": 5.446, "note_off_time": 5.708}, {"pitch": 64, "velocity": 62, "note_on_time": 6.093, "note_off_time": 6.456}, {"pitch": 62, "velocity": 68, "note_on_time": 6.685, "note_off_time": 6.942}, {"pitch": 60, "velocity": 71, "note_on_time": 7.251, "note_off_time": 8.588}, {"pitch": 62, "velocity": 60, "note_on_time": 10.253, "note_off_time": 10.577}, {"pitch": 62, "velocity": 69, "note_on_time": 10.913, "note_off_time": 11.672}, {"pitch": 62, "velocity": 54, "note_on_time": 12.75, "note_off_time": 13.022}, {"pitch": 62, "velocity": 60, "note_on_time": 13.389, "note_off_time": 13.612}, {"pitch": 62, "velocity": 68, "note_on_time": 13.978, "note_off_time": 14.258}, {"pitch": 60, "velocity": 61, "note_on_time": 14.588, "note_off_time": 14.932}, {"pitch": 64, "velocity": 72, "note_on_time": 15.157, "note_off_time": 16.005}, {"pitch": 64, "velocity": 60, "note_on_time": 17.659, "note_off_time": 18.062}, {"pitch": 60, "velocity": 55, "note_on_time": 18.262, "note_off_time": 18.635}, {"pitch": 62, "velocity": 52, "note_on_time": 18.883, "note_off_time": 19.245}, {"pitch": 64, "velocity": 59, "note_on_time": 19.492, "note_off_time": 20.01}, {"pitch": 62, "velocity": 63, "note_on_time": 20.825, "note_off_time": 21.205}]</notes><guidance name="Guidance Mode">None</guidance><error name="Error value">0.30255555555555524</error></trial></trials></MIDI>