<MIDI midiNo="2022_10_26-14_18_32"><target_notes><notes name="Note List">[{"pitch": 42, "velocity": 80, "note_on_time": 0.004, "note_off_time": 0.227}, {"pitch": 42, "velocity": 80, "note_on_time": 0.227, "note_off_time": 0.446}, {"pitch": 42, "velocity": 80, "note_on_time": 0.446, "note_off_time": 0.662}, {"pitch": 42, "velocity": 80, "note_on_time": 0.662, "note_off_time": 0.878}, {"pitch": 60, "velocity": 80, "note_on_time": 0.878, "note_off_time": 1.098}, {"pitch": 42, "velocity": 80, "note_on_time": 0.878, "note_off_time": 1.098}, {"pitch": 42, "velocity": 80, "note_on_time": 1.098, "note_off_time": 1.316}, {"pitch": 42, "velocity": 80, "note_on_time": 1.316, "note_off_time": 1.533}, {"pitch": 42, "velocity": 80, "note_on_time": 1.533, "note_off_time": 1.752}, {"pitch": 60, "velocity": 80, "note_on_time": 1.752, "note_off_time": 1.97}, {"pitch": 42, "velocity": 80, "note_on_time": 1.752, "note_off_time": 1.97}, {"pitch": 65, "velocity": 80, "note_on_time": 1.97, "note_off_time": 2.187}, {"pitch": 42, "velocity": 80, "note_on_time": 1.97, "note_off_time": 2.188}, {"pitch": 65, "velocity": 80, "note_on_time": 2.187, "note_off_time": 2.406}, {"pitch": 42, "velocity": 80, "note_on_time": 2.188, "note_off_time": 2.406}, {"pitch": 62, "velocity": 80, "note_on_time": 2.406, "note_off_time": 2.626}, {"pitch": 42, "velocity": 80, "note_on_time": 2.406, "note_off_time": 2.626}, {"pitch": 60, "velocity": 80, "note_on_time": 2.626, "note_off_time": 2.842}, {"pitch": 42, "velocity": 80, "note_on_time": 2.626, "note_off_time": 2.842}, {"pitch": 67, "velocity": 80, "note_on_time": 2.842, "note_off_time": 3.059}, {"pitch": 42, "velocity": 80, "note_on_time": 2.843, "note_off_time": 3.059}, {"pitch": 64, "velocity": 80, "note_on_time": 3.059, "note_off_time": 3.278}, {"pitch": 42, "velocity": 80, "note_on_time": 3.06, "note_off_time": 3.278}, {"pitch": 64, "velocity": 80, "note_on_time": 3.278, "note_off_time": 3.495}, {"pitch": 42, "velocity": 80, "note_on_time": 3.278, "note_off_time": 3.496}, {"pitch": 62, "velocity": 80, "note_on_time": 3.495, "note_off_time": 3.714}, {"pitch": 42, "velocity": 80, "note_on_time": 3.496, "note_off_time": 3.714}, {"pitch": 60, "velocity": 80, "note_on_time": 3.714, "note_off_time": 3.932}, {"pitch": 42, "velocity": 80, "note_on_time": 3.715, "note_off_time": 3.932}, {"pitch": 64, "velocity": 80, "note_on_time": 3.932, "note_off_time": 4.151}, {"pitch": 42, "velocity": 80, "note_on_time": 3.932, "note_off_time": 4.152}, {"pitch": 67, "velocity": 80, "note_on_time": 4.151, "note_off_time": 4.369}, {"pitch": 42, "velocity": 80, "note_on_time": 4.152, "note_off_time": 4.369}, {"pitch": 64, "velocity": 80, "note_on_time": 4.369, "note_off_time": 4.588}, {"pitch": 42, "velocity": 80, "note_on_time": 4.37, "note_off_time": 4.588}, {"pitch": 60, "velocity": 80, "note_on_time": 4.588, "note_off_time": 4.807}, {"pitch": 42, "velocity": 80, "note_on_time": 4.588, "note_off_time": 4.807}, {"pitch": 64, "velocity": 80, "note_on_time": 4.807, "note_off_time": 5.027}, {"pitch": 42, "velocity": 80, "note_on_time": 4.807, "note_off_time": 5.027}, {"pitch": 64, "velocity": 80, "note_on_time": 5.027, "note_off_time": 5.243}, {"pitch": 42, "velocity": 80, "note_on_time": 5.027, "note_off_time": 5.243}, {"pitch": 65, "velocity": 80, "note_on_time": 5.243, "note_off_time": 5.46}, {"pitch": 42, "velocity": 80, "note_on_time": 5.243, "note_off_time": 5.461}, {"pitch": 60, "velocity": 80, "note_on_time": 5.46, "note_off_time": 5.677}, {"pitch": 42, "velocity": 80, "note_on_time": 5.461, "note_off_time": 5.677}, {"pitch": 64, "velocity": 80, "note_on_time": 5.677, "note_off_time": 5.895}, {"pitch": 42, "velocity": 80, "note_on_time": 5.677, "note_off_time": 5.895}, {"pitch": 64, "velocity": 80, "note_on_time": 5.895, "note_off_time": 6.112}, {"pitch": 42, "velocity": 80, "note_on_time": 5.896, "note_off_time": 6.112}, {"pitch": 42, "velocity": 80, "note_on_time": 6.112, "note_off_time": 6.332}, {"pitch": 64, "velocity": 80, "note_on_time": 6.112, "note_off_time": 6.549}, {"pitch": 42, "velocity": 80, "note_on_time": 6.332, "note_off_time": 6.549}, {"pitch": 42, "velocity": 80, "note_on_time": 6.549, "note_off_time": 6.766}, {"pitch": 42, "velocity": 80, "note_on_time": 6.766, "note_off_time": 6.983}, {"pitch": 42, "velocity": 80, "note_on_time": 6.983, "note_off_time": 7.202}, {"pitch": 64, "velocity": 80, "note_on_time": 7.202, "note_off_time": 7.42}, {"pitch": 42, "velocity": 80, "note_on_time": 7.202, "note_off_time": 7.42}, {"pitch": 64, "velocity": 80, "note_on_time": 7.42, "note_off_time": 7.637}, {"pitch": 42, "velocity": 80, "note_on_time": 7.421, "note_off_time": 7.637}, {"pitch": 64, "velocity": 80, "note_on_time": 7.637, "note_off_time": 7.854}, {"pitch": 42, "velocity": 80, "note_on_time": 7.638, "note_off_time": 7.854}]</notes><options name="Option List">((4, 4), [0.5, 0.25], 3, 8, &lt;NoteRangePerHand.C_TO_G: 6&gt;, &lt;NoteRangePerHand.ONE_NOTE: 2&gt;, False, True, True, 281)</options></target_notes><trials><trial trial_no="1" timestamp="2022_10_26-14_18_22"><notes name="Played Notes">[{"pitch": 60, "velocity": 92, "note_on_time": 0.902, "note_off_time": 1.113}, {"pitch": 60, "velocity": 92, "note_on_time": 1.774, "note_off_time": 1.95}, {"pitch": 65, "velocity": 85, "note_on_time": 1.977, "note_off_time": 2.081}, {"pitch": 65, "velocity": 86, "note_on_time": 2.223, "note_off_time": 2.412}, {"pitch": 64, "velocity": 77, "note_on_time": 2.422, "note_off_time": 2.644}, {"pitch": 60, "velocity": 87, "note_on_time": 2.661, "note_off_time": 2.84}, {"pitch": 67, "velocity": 77, "note_on_time": 2.861, "note_off_time": 2.971}, {"pitch": 67, "velocity": 71, "note_on_time": 3.086, "note_off_time": 3.271}, {"pitch": 64, "velocity": 75, "note_on_time": 3.301, "note_off_time": 3.525}, {"pitch": 60, "velocity": 54, "note_on_time": 3.546, "note_off_time": 3.605}, {"pitch": 62, "velocity": 85, "note_on_time": 3.632, "note_off_time": 3.804}, {"pitch": 60, "velocity": 85, "note_on_time": 3.822, "note_off_time": 3.926}, {"pitch": 64, "velocity": 67, "note_on_time": 4.004, "note_off_time": 4.185}, {"pitch": 67, "velocity": 78, "note_on_time": 4.204, "note_off_time": 4.431}, {"pitch": 64, "velocity": 80, "note_on_time": 4.418, "note_off_time": 4.615}, {"pitch": 60, "velocity": 79, "note_on_time": 4.619, "note_off_time": 4.853}, {"pitch": 64, "velocity": 84, "note_on_time": 4.858, "note_off_time": 4.947}, {"pitch": 64, "velocity": 79, "note_on_time": 5.064, "note_off_time": 5.259}, {"pitch": 65, "velocity": 74, "note_on_time": 5.282, "note_off_time": 5.495}, {"pitch": 60, "velocity": 84, "note_on_time": 5.492, "note_off_time": 5.731}, {"pitch": 64, "velocity": 80, "note_on_time": 5.712, "note_off_time": 5.809}, {"pitch": 64, "velocity": 73, "note_on_time": 5.92, "note_off_time": 6.003}, {"pitch": 64, "velocity": 103, "note_on_time": 6.138, "note_off_time": 6.463}, {"pitch": 64, "velocity": 97, "note_on_time": 7.255, "note_off_time": 7.341}, {"pitch": 64, "velocity": 86, "note_on_time": 7.462, "note_off_time": 7.544}, {"pitch": 64, "velocity": 111, "note_on_time": 7.685, "note_off_time": 7.829}]</notes><guidance name="Guidance Mode">None</guidance><error name="Error value">0.21578604545454558</error></trial></trials></MIDI>