<MIDI midiNo="2022_11_03-09_24_16"><target_notes><notes name="Note List">[{"pitch": 42, "velocity": 80, "note_on_time": 0.004, "note_off_time": 0.232}, {"pitch": 42, "velocity": 80, "note_on_time": 0.232, "note_off_time": 0.454}, {"pitch": 42, "velocity": 80, "note_on_time": 0.454, "note_off_time": 0.671}, {"pitch": 42, "velocity": 80, "note_on_time": 0.671, "note_off_time": 0.888}, {"pitch": 65, "velocity": 80, "note_on_time": 0.888, "note_off_time": 1.106}, {"pitch": 42, "velocity": 80, "note_on_time": 0.888, "note_off_time": 1.106}, {"pitch": 67, "velocity": 80, "note_on_time": 1.106, "note_off_time": 1.323}, {"pitch": 42, "velocity": 80, "note_on_time": 1.106, "note_off_time": 1.323}, {"pitch": 65, "velocity": 80, "note_on_time": 1.323, "note_off_time": 1.541}, {"pitch": 42, "velocity": 80, "note_on_time": 1.323, "note_off_time": 1.541}, {"pitch": 64, "velocity": 80, "note_on_time": 1.541, "note_off_time": 1.758}, {"pitch": 42, "velocity": 80, "note_on_time": 1.541, "note_off_time": 1.758}, {"pitch": 60, "velocity": 80, "note_on_time": 1.758, "note_off_time": 1.976}, {"pitch": 42, "velocity": 80, "note_on_time": 1.758, "note_off_time": 1.976}, {"pitch": 65, "velocity": 80, "note_on_time": 1.976, "note_off_time": 2.193}, {"pitch": 42, "velocity": 80, "note_on_time": 1.976, "note_off_time": 2.193}, {"pitch": 62, "velocity": 80, "note_on_time": 2.193, "note_off_time": 2.41}, {"pitch": 42, "velocity": 80, "note_on_time": 2.193, "note_off_time": 2.41}, {"pitch": 64, "velocity": 80, "note_on_time": 2.41, "note_off_time": 2.628}, {"pitch": 42, "velocity": 80, "note_on_time": 2.41, "note_off_time": 2.628}, {"pitch": 65, "velocity": 80, "note_on_time": 2.628, "note_off_time": 2.845}, {"pitch": 42, "velocity": 80, "note_on_time": 2.628, "note_off_time": 2.845}, {"pitch": 64, "velocity": 80, "note_on_time": 2.845, "note_off_time": 3.064}, {"pitch": 42, "velocity": 80, "note_on_time": 2.845, "note_off_time": 3.064}, {"pitch": 60, "velocity": 80, "note_on_time": 3.064, "note_off_time": 3.282}, {"pitch": 42, "velocity": 80, "note_on_time": 3.064, "note_off_time": 3.282}, {"pitch": 67, "velocity": 80, "note_on_time": 3.282, "note_off_time": 3.499}, {"pitch": 42, "velocity": 80, "note_on_time": 3.282, "note_off_time": 3.499}, {"pitch": 42, "velocity": 80, "note_on_time": 3.499, "note_off_time": 3.718}, {"pitch": 65, "velocity": 80, "note_on_time": 3.499, "note_off_time": 3.937}, {"pitch": 42, "velocity": 80, "note_on_time": 3.718, "note_off_time": 3.937}, {"pitch": 42, "velocity": 80, "note_on_time": 3.937, "note_off_time": 4.156}, {"pitch": 42, "velocity": 80, "note_on_time": 4.156, "note_off_time": 4.374}, {"pitch": 62, "velocity": 80, "note_on_time": 4.374, "note_off_time": 4.591}, {"pitch": 42, "velocity": 80, "note_on_time": 4.374, "note_off_time": 4.591}, {"pitch": 62, "velocity": 80, "note_on_time": 4.591, "note_off_time": 4.81}, {"pitch": 42, "velocity": 80, "note_on_time": 4.591, "note_off_time": 4.81}, {"pitch": 67, "velocity": 80, "note_on_time": 4.81, "note_off_time": 5.028}, {"pitch": 42, "velocity": 80, "note_on_time": 4.81, "note_off_time": 5.028}, {"pitch": 67, "velocity": 80, "note_on_time": 5.028, "note_off_time": 5.246}, {"pitch": 42, "velocity": 80, "note_on_time": 5.028, "note_off_time": 5.246}, {"pitch": 64, "velocity": 80, "note_on_time": 5.246, "note_off_time": 5.464}, {"pitch": 42, "velocity": 80, "note_on_time": 5.246, "note_off_time": 5.464}, {"pitch": 65, "velocity": 80, "note_on_time": 5.464, "note_off_time": 5.681}, {"pitch": 42, "velocity": 80, "note_on_time": 5.464, "note_off_time": 5.681}, {"pitch": 60, "velocity": 80, "note_on_time": 5.681, "note_off_time": 5.898}, {"pitch": 42, "velocity": 80, "note_on_time": 5.681, "note_off_time": 5.898}, {"pitch": 60, "velocity": 80, "note_on_time": 5.898, "note_off_time": 6.118}, {"pitch": 42, "velocity": 80, "note_on_time": 5.898, "note_off_time": 6.118}, {"pitch": 65, "velocity": 80, "note_on_time": 6.118, "note_off_time": 6.335}, {"pitch": 42, "velocity": 80, "note_on_time": 6.118, "note_off_time": 6.335}, {"pitch": 62, "velocity": 80, "note_on_time": 6.335, "note_off_time": 6.553}, {"pitch": 42, "velocity": 80, "note_on_time": 6.335, "note_off_time": 6.553}, {"pitch": 65, "velocity": 80, "note_on_time": 6.553, "note_off_time": 6.771}, {"pitch": 42, "velocity": 80, "note_on_time": 6.553, "note_off_time": 6.771}, {"pitch": 42, "velocity": 80, "note_on_time": 6.771, "note_off_time": 6.99}, {"pitch": 42, "velocity": 80, "note_on_time": 6.99, "note_off_time": 7.208}, {"pitch": 65, "velocity": 80, "note_on_time": 7.208, "note_off_time": 7.426}, {"pitch": 42, "velocity": 80, "note_on_time": 7.208, "note_off_time": 7.426}, {"pitch": 65, "velocity": 80, "note_on_time": 7.426, "note_off_time": 7.644}, {"pitch": 42, "velocity": 80, "note_on_time": 7.426, "note_off_time": 7.644}, {"pitch": 65, "velocity": 80, "note_on_time": 7.644, "note_off_time": 7.863}, {"pitch": 42, "velocity": 80, "note_on_time": 7.644, "note_off_time": 7.863}]</notes><options name="Option List">((4, 4), [0.5, 0.25], 3, 8, &lt;NoteRangePerHand.C_TO_G: 6&gt;, &lt;NoteRangePerHand.ONE_NOTE: 2&gt;, False, True, False, 281)</options></target_notes><trials><trial trial_no="1" timestamp="2022_11_03-09_24_06"><notes name="Played Notes">[{"pitch": 65, "velocity": 48, "note_on_time": 0.716, "note_off_time": 0.913}, {"pitch": 67, "velocity": 54, "note_on_time": 0.939, "note_off_time": 1.173}, {"pitch": 65, "velocity": 61, "note_on_time": 1.127, "note_off_time": 1.358}, {"pitch": 64, "velocity": 45, "note_on_time": 1.314, "note_off_time": 1.525}, {"pitch": 60, "velocity": 41, "note_on_time": 1.532, "note_off_time": 1.715}, {"pitch": 65, "velocity": 53, "note_on_time": 1.727, "note_off_time": 1.957}, {"pitch": 62, "velocity": 58, "note_on_time": 1.921, "note_off_time": 2.158}, {"pitch": 64, "velocity": 64, "note_on_time": 2.096, "note_off_time": 2.326}, {"pitch": 65, "velocity": 64, "note_on_time": 2.314, "note_off_time": 2.603}, {"pitch": 64, "velocity": 61, "note_on_time": 2.512, "note_off_time": 2.698}, {"pitch": 60, "velocity": 57, "note_on_time": 2.704, "note_off_time": 2.947}, {"pitch": 67, "velocity": 56, "note_on_time": 2.903, "note_off_time": 3.185}, {"pitch": 65, "velocity": 47, "note_on_time": 3.139, "note_off_time": 3.787}, {"pitch": 62, "velocity": 52, "note_on_time": 4.017, "note_off_time": 4.139}, {"pitch": 62, "velocity": 51, "note_on_time": 4.252, "note_off_time": 4.514}, {"pitch": 67, "velocity": 55, "note_on_time": 4.455, "note_off_time": 4.576}, {"pitch": 67, "velocity": 55, "note_on_time": 4.676, "note_off_time": 4.913}, {"pitch": 64, "velocity": 54, "note_on_time": 4.926, "note_off_time": 5.154}, {"pitch": 65, "velocity": 65, "note_on_time": 5.135, "note_off_time": 5.344}, {"pitch": 60, "velocity": 64, "note_on_time": 5.345, "note_off_time": 5.437}, {"pitch": 60, "velocity": 55, "note_on_time": 5.551, "note_off_time": 5.72}, {"pitch": 65, "velocity": 60, "note_on_time": 5.744, "note_off_time": 5.925}, {"pitch": 62, "velocity": 46, "note_on_time": 5.947, "note_off_time": 6.24}, {"pitch": 65, "velocity": 58, "note_on_time": 6.199, "note_off_time": 6.683}, {"pitch": 65, "velocity": 52, "note_on_time": 6.957, "note_off_time": 7.022}, {"pitch": 65, "velocity": 58, "note_on_time": 7.158, "note_off_time": 7.242}, {"pitch": 65, "velocity": 48, "note_on_time": 7.385, "note_off_time": 7.529}]</notes><guidance name="Guidance Mode">None</guidance><error name="Error value">0.022894874999999922</error></trial></trials></MIDI>