<MIDI midiNo="2022_09_22-12_48_38"><target_notes><notes name="Note List">[{"pitch": 42, "velocity": 80, "note_on_time": 0.004, "note_off_time": 0.406}, {"pitch": 42, "velocity": 80, "note_on_time": 0.406, "note_off_time": 0.811}, {"pitch": 42, "velocity": 80, "note_on_time": 0.811, "note_off_time": 1.217}, {"pitch": 42, "velocity": 80, "note_on_time": 1.218, "note_off_time": 1.622}, {"pitch": 42, "velocity": 80, "note_on_time": 1.622, "note_off_time": 2.028}, {"pitch": 60, "velocity": 80, "note_on_time": 1.622, "note_off_time": 2.433}, {"pitch": 42, "velocity": 80, "note_on_time": 2.028, "note_off_time": 2.433}, {"pitch": 62, "velocity": 80, "note_on_time": 2.433, "note_off_time": 2.837}, {"pitch": 42, "velocity": 80, "note_on_time": 2.433, "note_off_time": 2.837}, {"pitch": 62, "velocity": 80, "note_on_time": 2.837, "note_off_time": 3.241}, {"pitch": 42, "velocity": 80, "note_on_time": 2.838, "note_off_time": 3.242}, {"pitch": 62, "velocity": 80, "note_on_time": 3.241, "note_off_time": 3.646}, {"pitch": 42, "velocity": 80, "note_on_time": 3.242, "note_off_time": 3.646}, {"pitch": 62, "velocity": 80, "note_on_time": 3.646, "note_off_time": 4.051}, {"pitch": 42, "velocity": 80, "note_on_time": 3.646, "note_off_time": 4.051}, {"pitch": 62, "velocity": 80, "note_on_time": 4.051, "note_off_time": 4.454}, {"pitch": 42, "velocity": 80, "note_on_time": 4.051, "note_off_time": 4.454}, {"pitch": 60, "velocity": 80, "note_on_time": 4.454, "note_off_time": 4.859}, {"pitch": 42, "velocity": 80, "note_on_time": 4.454, "note_off_time": 4.859}, {"pitch": 60, "velocity": 80, "note_on_time": 4.859, "note_off_time": 5.265}, {"pitch": 42, "velocity": 80, "note_on_time": 4.859, "note_off_time": 5.266}, {"pitch": 62, "velocity": 80, "note_on_time": 5.265, "note_off_time": 5.671}, {"pitch": 42, "velocity": 80, "note_on_time": 5.266, "note_off_time": 5.671}, {"pitch": 60, "velocity": 80, "note_on_time": 5.671, "note_off_time": 6.075}, {"pitch": 42, "velocity": 80, "note_on_time": 5.672, "note_off_time": 6.075}, {"pitch": 42, "velocity": 80, "note_on_time": 6.076, "note_off_time": 6.479}, {"pitch": 60, "velocity": 80, "note_on_time": 6.479, "note_off_time": 6.885}, {"pitch": 42, "velocity": 80, "note_on_time": 6.479, "note_off_time": 6.885}, {"pitch": 62, "velocity": 80, "note_on_time": 6.885, "note_off_time": 7.292}, {"pitch": 42, "velocity": 80, "note_on_time": 6.886, "note_off_time": 7.292}, {"pitch": 62, "velocity": 80, "note_on_time": 7.292, "note_off_time": 7.696}, {"pitch": 42, "velocity": 80, "note_on_time": 7.293, "note_off_time": 7.696}, {"pitch": 60, "velocity": 80, "note_on_time": 7.696, "note_off_time": 8.102}, {"pitch": 42, "velocity": 80, "note_on_time": 7.696, "note_off_time": 8.102}, {"pitch": 60, "velocity": 80, "note_on_time": 8.102, "note_off_time": 8.508}, {"pitch": 42, "velocity": 80, "note_on_time": 8.103, "note_off_time": 8.509}, {"pitch": 62, "velocity": 80, "note_on_time": 8.508, "note_off_time": 8.913}, {"pitch": 42, "velocity": 80, "note_on_time": 8.509, "note_off_time": 8.913}, {"pitch": 62, "velocity": 80, "note_on_time": 8.913, "note_off_time": 9.319}, {"pitch": 42, "velocity": 80, "note_on_time": 8.914, "note_off_time": 9.319}, {"pitch": 62, "velocity": 80, "note_on_time": 9.319, "note_off_time": 9.726}, {"pitch": 42, "velocity": 80, "note_on_time": 9.319, "note_off_time": 9.726}, {"pitch": 62, "velocity": 80, "note_on_time": 9.726, "note_off_time": 10.13}, {"pitch": 42, "velocity": 80, "note_on_time": 9.726, "note_off_time": 10.131}, {"pitch": 60, "velocity": 80, "note_on_time": 10.13, "note_off_time": 10.536}, {"pitch": 42, "velocity": 80, "note_on_time": 10.131, "note_off_time": 10.536}, {"pitch": 60, "velocity": 80, "note_on_time": 10.536, "note_off_time": 10.94}, {"pitch": 42, "velocity": 80, "note_on_time": 10.537, "note_off_time": 10.94}, {"pitch": 62, "velocity": 80, "note_on_time": 10.94, "note_off_time": 11.346}, {"pitch": 42, "velocity": 80, "note_on_time": 10.941, "note_off_time": 11.346}, {"pitch": 42, "velocity": 80, "note_on_time": 11.347, "note_off_time": 11.751}, {"pitch": 62, "velocity": 80, "note_on_time": 11.346, "note_off_time": 12.156}, {"pitch": 42, "velocity": 80, "note_on_time": 11.752, "note_off_time": 12.156}, {"pitch": 62, "velocity": 80, "note_on_time": 12.156, "note_off_time": 12.561}, {"pitch": 42, "velocity": 80, "note_on_time": 12.157, "note_off_time": 12.562}, {"pitch": 62, "velocity": 80, "note_on_time": 12.561, "note_off_time": 12.967}, {"pitch": 42, "velocity": 80, "note_on_time": 12.562, "note_off_time": 12.967}, {"pitch": 42, "velocity": 80, "note_on_time": 12.967, "note_off_time": 13.374}, {"pitch": 62, "velocity": 80, "note_on_time": 13.374, "note_off_time": 13.781}, {"pitch": 42, "velocity": 80, "note_on_time": 13.375, "note_off_time": 13.781}, {"pitch": 62, "velocity": 80, "note_on_time": 13.781, "note_off_time": 14.188}, {"pitch": 42, "velocity": 80, "note_on_time": 13.781, "note_off_time": 14.188}, {"pitch": 62, "velocity": 80, "note_on_time": 14.188, "note_off_time": 14.592}, {"pitch": 42, "velocity": 80, "note_on_time": 14.189, "note_off_time": 14.592}]</notes><options name="Option List">((4, 4), [0.5, 0.25], 3, 8, &lt;NoteRangePerHand.TWO_NOTES: 3&gt;, &lt;NoteRangePerHand.ONE_NOTE: 2&gt;, False, True, True, 150)</options></target_notes><trials><trial trial_no="1" timestamp="2022_09_22-12_48_22"><notes name="Played Notes">[{"pitch": 60, "velocity": 44, "note_on_time": 1.626, "note_off_time": 2.405}, {"pitch": 62, "velocity": 37, "note_on_time": 2.432, "note_off_time": 2.685}, {"pitch": 62, "velocity": 29, "note_on_time": 2.845, "note_off_time": 3.09}, {"pitch": 62, "velocity": 36, "note_on_time": 3.243, "note_off_time": 3.475}, {"pitch": 62, "velocity": 37, "note_on_time": 3.646, "note_off_time": 3.872}, {"pitch": 62, "velocity": 44, "note_on_time": 4.054, "note_off_time": 4.369}, {"pitch": 60, "velocity": 37, "note_on_time": 4.43, "note_off_time": 4.719}, {"pitch": 60, "velocity": 39, "note_on_time": 4.877, "note_off_time": 5.278}, {"pitch": 62, "velocity": 36, "note_on_time": 5.301, "note_off_time": 5.666}, {"pitch": 60, "velocity": 40, "note_on_time": 5.694, "note_off_time": 6.084}, {"pitch": 60, "velocity": 41, "note_on_time": 6.49, "note_off_time": 6.857}, {"pitch": 62, "velocity": 41, "note_on_time": 6.867, "note_off_time": 7.127}, {"pitch": 62, "velocity": 48, "note_on_time": 7.294, "note_off_time": 7.641}, {"pitch": 60, "velocity": 31, "note_on_time": 7.689, "note_off_time": 7.961}, {"pitch": 60, "velocity": 30, "note_on_time": 8.102, "note_off_time": 8.489}, {"pitch": 62, "velocity": 33, "note_on_time": 8.485, "note_off_time": 8.718}, {"pitch": 62, "velocity": 27, "note_on_time": 8.919, "note_off_time": 9.149}, {"pitch": 62, "velocity": 33, "note_on_time": 9.32, "note_off_time": 9.539}, {"pitch": 62, "velocity": 35, "note_on_time": 9.716, "note_off_time": 10.067}, {"pitch": 60, "velocity": 23, "note_on_time": 10.125, "note_off_time": 10.35}, {"pitch": 60, "velocity": 22, "note_on_time": 10.56, "note_off_time": 10.922}, {"pitch": 62, "velocity": 31, "note_on_time": 10.94, "note_off_time": 11.136}, {"pitch": 62, "velocity": 36, "note_on_time": 11.352, "note_off_time": 11.948}, {"pitch": 62, "velocity": 30, "note_on_time": 12.194, "note_off_time": 12.4}, {"pitch": 62, "velocity": 28, "note_on_time": 12.593, "note_off_time": 12.967}, {"pitch": 62, "velocity": 31, "note_on_time": 13.374, "note_off_time": 13.59}, {"pitch": 62, "velocity": 35, "note_on_time": 13.782, "note_off_time": 13.996}, {"pitch": 62, "velocity": 34, "note_on_time": 14.198, "note_off_time": 14.483}]</notes><guidance name="Guidance Mode">None</guidance><error name="Error value">0.016960000000000326</error></trial><trial trial_no="2" timestamp="2022_09_22-12_48_42"><notes name="Played Notes">[{"pitch": 60, "velocity": 36, "note_on_time": 1.612, "note_off_time": 2.457}, {"pitch": 62, "velocity": 38, "note_on_time": 2.484, "note_off_time": 2.746}, {"pitch": 62, "velocity": 32, "note_on_time": 2.899, "note_off_time": 3.13}, {"pitch": 62, "velocity": 37, "note_on_time": 3.281, "note_off_time": 3.497}, {"pitch": 62, "velocity": 28, "note_on_time": 3.679, "note_off_time": 3.891}, {"pitch": 62, "velocity": 46, "note_on_time": 4.067, "note_off_time": 4.402}, {"pitch": 60, "velocity": 22, "note_on_time": 4.494, "note_off_time": 4.731}, {"pitch": 60, "velocity": 33, "note_on_time": 4.911, "note_off_time": 5.281}, {"pitch": 62, "velocity": 36, "note_on_time": 5.297, "note_off_time": 5.659}, {"pitch": 60, "velocity": 35, "note_on_time": 5.7, "note_off_time": 6.163}, {"pitch": 60, "velocity": 38, "note_on_time": 6.509, "note_off_time": 6.883}, {"pitch": 62, "velocity": 36, "note_on_time": 6.93, "note_off_time": 7.132}, {"pitch": 62, "velocity": 35, "note_on_time": 7.326, "note_off_time": 7.679}, {"pitch": 60, "velocity": 28, "note_on_time": 7.726, "note_off_time": 7.973}, {"pitch": 60, "velocity": 35, "note_on_time": 8.143, "note_off_time": 8.526}, {"pitch": 62, "velocity": 24, "note_on_time": 8.541, "note_off_time": 8.75}, {"pitch": 62, "velocity": 34, "note_on_time": 8.946, "note_off_time": 9.149}, {"pitch": 62, "velocity": 23, "note_on_time": 9.343, "note_off_time": 9.563}, {"pitch": 62, "velocity": 32, "note_on_time": 9.751, "note_off_time": 10.117}, {"pitch": 60, "velocity": 22, "note_on_time": 10.161, "note_off_time": 10.354}, {"pitch": 60, "velocity": 28, "note_on_time": 10.551, "note_off_time": 10.871}, {"pitch": 62, "velocity": 23, "note_on_time": 10.912, "note_off_time": 11.122}, {"pitch": 62, "velocity": 25, "note_on_time": 11.343, "note_off_time": 11.948}, {"pitch": 62, "velocity": 30, "note_on_time": 12.171, "note_off_time": 12.425}, {"pitch": 62, "velocity": 36, "note_on_time": 12.594, "note_off_time": 12.973}, {"pitch": 62, "velocity": 25, "note_on_time": 13.397, "note_off_time": 13.578}, {"pitch": 62, "velocity": 25, "note_on_time": 13.78, "note_off_time": 14.012}, {"pitch": 62, "velocity": 34, "note_on_time": 14.187, "note_off_time": 14.499}]</notes><guidance name="Guidance Mode">None</guidance><error name="Error value">0.016679999999999823</error></trial></trials></MIDI>