<MIDI midiNo="2022_11_21-17_01_00"><target_notes><notes name="Note List">[{"pitch": 42, "velocity": 80, "note_on_time": 0.004, "note_off_time": 0.247}, {"pitch": 42, "velocity": 80, "note_on_time": 0.248, "note_off_time": 0.495}, {"pitch": 42, "velocity": 80, "note_on_time": 0.495, "note_off_time": 0.743}, {"pitch": 42, "velocity": 80, "note_on_time": 0.744, "note_off_time": 0.991}, {"pitch": 62, "velocity": 80, "note_on_time": 0.991, "note_off_time": 1.24}, {"pitch": 42, "velocity": 80, "note_on_time": 0.992, "note_off_time": 1.24}, {"pitch": 62, "velocity": 80, "note_on_time": 1.24, "note_off_time": 1.49}, {"pitch": 42, "velocity": 80, "note_on_time": 1.24, "note_off_time": 1.49}, {"pitch": 60, "velocity": 80, "note_on_time": 1.49, "note_off_time": 1.739}, {"pitch": 42, "velocity": 80, "note_on_time": 1.49, "note_off_time": 1.739}, {"pitch": 60, "velocity": 80, "note_on_time": 1.739, "note_off_time": 1.988}, {"pitch": 42, "velocity": 80, "note_on_time": 1.74, "note_off_time": 1.988}, {"pitch": 64, "velocity": 80, "note_on_time": 1.988, "note_off_time": 2.237}, {"pitch": 42, "velocity": 80, "note_on_time": 1.988, "note_off_time": 2.237}, {"pitch": 62, "velocity": 80, "note_on_time": 2.237, "note_off_time": 2.487}, {"pitch": 42, "velocity": 80, "note_on_time": 2.237, "note_off_time": 2.487}, {"pitch": 62, "velocity": 80, "note_on_time": 2.487, "note_off_time": 2.734}, {"pitch": 42, "velocity": 80, "note_on_time": 2.488, "note_off_time": 2.735}, {"pitch": 64, "velocity": 80, "note_on_time": 2.734, "note_off_time": 2.981}, {"pitch": 42, "velocity": 80, "note_on_time": 2.735, "note_off_time": 2.982}, {"pitch": 42, "velocity": 80, "note_on_time": 2.982, "note_off_time": 3.229}, {"pitch": 60, "velocity": 80, "note_on_time": 2.981, "note_off_time": 3.48}, {"pitch": 42, "velocity": 80, "note_on_time": 3.229, "note_off_time": 3.48}, {"pitch": 42, "velocity": 80, "note_on_time": 3.481, "note_off_time": 3.726}, {"pitch": 42, "velocity": 80, "note_on_time": 3.726, "note_off_time": 3.975}, {"pitch": 62, "velocity": 80, "note_on_time": 3.974, "note_off_time": 4.225}, {"pitch": 42, "velocity": 80, "note_on_time": 3.975, "note_off_time": 4.226}, {"pitch": 60, "velocity": 80, "note_on_time": 4.225, "note_off_time": 4.474}, {"pitch": 42, "velocity": 80, "note_on_time": 4.226, "note_off_time": 4.474}, {"pitch": 60, "velocity": 80, "note_on_time": 4.474, "note_off_time": 4.723}, {"pitch": 42, "velocity": 80, "note_on_time": 4.474, "note_off_time": 4.723}, {"pitch": 60, "velocity": 80, "note_on_time": 4.723, "note_off_time": 4.972}, {"pitch": 42, "velocity": 80, "note_on_time": 4.723, "note_off_time": 4.973}, {"pitch": 60, "velocity": 80, "note_on_time": 4.972, "note_off_time": 5.22}, {"pitch": 42, "velocity": 80, "note_on_time": 4.973, "note_off_time": 5.22}, {"pitch": 64, "velocity": 80, "note_on_time": 5.22, "note_off_time": 5.471}, {"pitch": 42, "velocity": 80, "note_on_time": 5.221, "note_off_time": 5.472}, {"pitch": 64, "velocity": 80, "note_on_time": 5.471, "note_off_time": 5.719}, {"pitch": 42, "velocity": 80, "note_on_time": 5.472, "note_off_time": 5.719}, {"pitch": 64, "velocity": 80, "note_on_time": 5.719, "note_off_time": 5.968}, {"pitch": 42, "velocity": 80, "note_on_time": 5.719, "note_off_time": 5.968}, {"pitch": 42, "velocity": 80, "note_on_time": 5.968, "note_off_time": 6.216}, {"pitch": 64, "velocity": 80, "note_on_time": 5.968, "note_off_time": 6.465}, {"pitch": 42, "velocity": 80, "note_on_time": 6.216, "note_off_time": 6.465}, {"pitch": 42, "velocity": 80, "note_on_time": 6.465, "note_off_time": 6.713}, {"pitch": 42, "velocity": 80, "note_on_time": 6.713, "note_off_time": 6.961}, {"pitch": 60, "velocity": 80, "note_on_time": 6.961, "note_off_time": 7.209}, {"pitch": 42, "velocity": 80, "note_on_time": 6.961, "note_off_time": 7.209}, {"pitch": 64, "velocity": 80, "note_on_time": 7.209, "note_off_time": 7.458}, {"pitch": 42, "velocity": 80, "note_on_time": 7.21, "note_off_time": 7.459}, {"pitch": 62, "velocity": 80, "note_on_time": 7.458, "note_off_time": 7.707}, {"pitch": 42, "velocity": 80, "note_on_time": 7.459, "note_off_time": 7.707}, {"pitch": 64, "velocity": 80, "note_on_time": 7.707, "note_off_time": 7.956}, {"pitch": 42, "velocity": 80, "note_on_time": 7.707, "note_off_time": 7.956}, {"pitch": 42, "velocity": 80, "note_on_time": 7.957, "note_off_time": 8.207}, {"pitch": 64, "velocity": 80, "note_on_time": 8.207, "note_off_time": 8.457}, {"pitch": 42, "velocity": 80, "note_on_time": 8.207, "note_off_time": 8.458}, {"pitch": 64, "velocity": 80, "note_on_time": 8.457, "note_off_time": 8.705}, {"pitch": 42, "velocity": 80, "note_on_time": 8.458, "note_off_time": 8.705}, {"pitch": 64, "velocity": 80, "note_on_time": 8.705, "note_off_time": 8.953}, {"pitch": 42, "velocity": 80, "note_on_time": 8.705, "note_off_time": 8.954}]</notes><options name="Option List">((4, 4), [0.5, 0.25], 3, 8, &lt;NoteRangePerHand.THREE_NOTES: 4&gt;, &lt;NoteRangePerHand.ONE_NOTE: 2&gt;, False, True, False, 248)</options></target_notes><trials><trial trial_no="1" timestamp="2022_11_21-17_00_49"><notes name="Played Notes">[{"pitch": 62, "velocity": 76, "note_on_time": 1.131, "note_off_time": 1.277}, {"pitch": 62, "velocity": 63, "note_on_time": 1.382, "note_off_time": 1.529}, {"pitch": 62, "velocity": 59, "note_on_time": 1.642, "note_off_time": 1.776}, {"pitch": 60, "velocity": 79, "note_on_time": 1.788, "note_off_time": 1.93}, {"pitch": 60, "velocity": 75, "note_on_time": 2.033, "note_off_time": 2.206}, {"pitch": 64, "velocity": 57, "note_on_time": 2.279, "note_off_time": 2.49}, {"pitch": 62, "velocity": 69, "note_on_time": 2.526, "note_off_time": 2.641}, {"pitch": 62, "velocity": 66, "note_on_time": 2.75, "note_off_time": 2.918}, {"pitch": 64, "velocity": 71, "note_on_time": 2.998, "note_off_time": 3.151}, {"pitch": 60, "velocity": 80, "note_on_time": 3.244, "note_off_time": 3.67}, {"pitch": 62, "velocity": 78, "note_on_time": 4.179, "note_off_time": 4.353}, {"pitch": 60, "velocity": 84, "note_on_time": 4.422, "note_off_time": 4.579}, {"pitch": 60, "velocity": 77, "note_on_time": 4.675, "note_off_time": 4.809}, {"pitch": 60, "velocity": 79, "note_on_time": 4.924, "note_off_time": 5.046}, {"pitch": 60, "velocity": 75, "note_on_time": 5.159, "note_off_time": 5.326}, {"pitch": 64, "velocity": 76, "note_on_time": 5.428, "note_off_time": 5.555}, {"pitch": 64, "velocity": 58, "note_on_time": 5.659, "note_off_time": 5.796}, {"pitch": 64, "velocity": 70, "note_on_time": 5.885, "note_off_time": 6.03}, {"pitch": 64, "velocity": 64, "note_on_time": 6.18, "note_off_time": 6.72}, {"pitch": 60, "velocity": 73, "note_on_time": 7.052, "note_off_time": 7.22}, {"pitch": 62, "velocity": 70, "note_on_time": 7.325, "note_off_time": 7.456}, {"pitch": 64, "velocity": 68, "note_on_time": 7.563, "note_off_time": 7.751}, {"pitch": 62, "velocity": 70, "note_on_time": 7.786, "note_off_time": 7.977}, {"pitch": 64, "velocity": 70, "note_on_time": 8.342, "note_off_time": 8.489}, {"pitch": 64, "velocity": 68, "note_on_time": 8.581, "note_off_time": 8.729}]</notes><guidance name="Guidance Mode">None</guidance><error name="Error value">0.577178863636364</error></trial><trial trial_no="2" timestamp="2022_11_21-17_01_23"><notes name="Played Notes">[{"pitch": 62, "velocity": 78, "note_on_time": 0.999, "note_off_time": 1.129}, {"pitch": 62, "velocity": 67, "note_on_time": 1.258, "note_off_time": 1.42}, {"pitch": 60, "velocity": 88, "note_on_time": 1.512, "note_off_time": 1.634}, {"pitch": 60, "velocity": 76, "note_on_time": 1.756, "note_off_time": 1.84}, {"pitch": 64, "velocity": 78, "note_on_time": 1.824, "note_off_time": 2.174}, {"pitch": 64, "velocity": 63, "note_on_time": 2.274, "note_off_time": 2.433}, {"pitch": 62, "velocity": 71, "note_on_time": 2.538, "note_off_time": 2.661}, {"pitch": 62, "velocity": 64, "note_on_time": 2.784, "note_off_time": 2.908}, {"pitch": 60, "velocity": 89, "note_on_time": 3.055, "note_off_time": 3.643}, {"pitch": 62, "velocity": 78, "note_on_time": 3.978, "note_off_time": 4.152}, {"pitch": 60, "velocity": 82, "note_on_time": 4.221, "note_off_time": 4.381}, {"pitch": 60, "velocity": 82, "note_on_time": 4.479, "note_off_time": 4.627}, {"pitch": 60, "velocity": 81, "note_on_time": 4.727, "note_off_time": 4.878}, {"pitch": 60, "velocity": 84, "note_on_time": 4.955, "note_off_time": 5.124}, {"pitch": 64, "velocity": 74, "note_on_time": 5.236, "note_off_time": 5.362}, {"pitch": 64, "velocity": 59, "note_on_time": 5.474, "note_off_time": 5.616}, {"pitch": 64, "velocity": 68, "note_on_time": 5.713, "note_off_time": 5.853}, {"pitch": 64, "velocity": 84, "note_on_time": 6.008, "note_off_time": 6.684}, {"pitch": 60, "velocity": 88, "note_on_time": 6.979, "note_off_time": 7.135}, {"pitch": 62, "velocity": 77, "note_on_time": 7.239, "note_off_time": 7.353}, {"pitch": 64, "velocity": 70, "note_on_time": 7.485, "note_off_time": 7.645}, {"pitch": 62, "velocity": 70, "note_on_time": 7.721, "note_off_time": 7.884}, {"pitch": 64, "velocity": 76, "note_on_time": 8.202, "note_off_time": 8.355}, {"pitch": 64, "velocity": 76, "note_on_time": 8.443, "note_off_time": 8.591}, {"pitch": 64, "velocity": 71, "note_on_time": 8.684, "note_off_time": 8.861}]</notes><guidance name="Guidance Mode">None</guidance><error name="Error value">0.25842386363636377</error></trial><trial trial_no="3" timestamp="2022_11_21-17_01_42"><notes name="Played Notes">[{"pitch": 62, "velocity": 79, "note_on_time": 1.004, "note_off_time": 1.157}, {"pitch": 62, "velocity": 74, "note_on_time": 1.256, "note_off_time": 1.413}, {"pitch": 60, "velocity": 89, "note_on_time": 1.507, "note_off_time": 1.618}, {"pitch": 60, "velocity": 82, "note_on_time": 1.741, "note_off_time": 1.874}, {"pitch": 64, "velocity": 79, "note_on_time": 1.986, "note_off_time": 2.103}, {"pitch": 62, "velocity": 74, "note_on_time": 2.239, "note_off_time": 2.341}, {"pitch": 62, "velocity": 65, "note_on_time": 2.464, "note_off_time": 2.601}, {"pitch": 64, "velocity": 84, "note_on_time": 2.724, "note_off_time": 2.819}, {"pitch": 60, "velocity": 89, "note_on_time": 2.988, "note_off_time": 3.519}, {"pitch": 62, "velocity": 80, "note_on_time": 4.047, "note_off_time": 4.167}, {"pitch": 60, "velocity": 84, "note_on_time": 4.287, "note_off_time": 4.391}, {"pitch": 60, "velocity": 73, "note_on_time": 4.511, "note_off_time": 4.627}, {"pitch": 60, "velocity": 79, "note_on_time": 4.753, "note_off_time": 4.879}, {"pitch": 60, "velocity": 77, "note_on_time": 5.007, "note_off_time": 5.142}, {"pitch": 64, "velocity": 75, "note_on_time": 5.261, "note_off_time": 5.381}, {"pitch": 64, "velocity": 65, "note_on_time": 5.491, "note_off_time": 5.611}, {"pitch": 64, "velocity": 66, "note_on_time": 5.727, "note_off_time": 5.854}, {"pitch": 64, "velocity": 80, "note_on_time": 5.98, "note_off_time": 6.532}, {"pitch": 60, "velocity": 85, "note_on_time": 7.039, "note_off_time": 7.155}, {"pitch": 64, "velocity": 66, "note_on_time": 7.28, "note_off_time": 7.402}, {"pitch": 62, "velocity": 70, "note_on_time": 7.524, "note_off_time": 7.641}, {"pitch": 64, "velocity": 75, "note_on_time": 7.768, "note_off_time": 7.937}, {"pitch": 64, "velocity": 75, "note_on_time": 8.281, "note_off_time": 8.424}, {"pitch": 64, "velocity": 69, "note_on_time": 8.518, "note_off_time": 8.658}, {"pitch": 64, "velocity": 80, "note_on_time": 8.754, "note_off_time": 8.899}]</notes><guidance name="Guidance Mode">None</guidance><error name="Error value">0.01812931818181822</error></trial></trials></MIDI>