<MIDI midiNo="2022_11_14-18_33_49"><target_notes><notes name="Note List">[{"pitch": 42, "velocity": 80, "note_on_time": 0.004, "note_off_time": 0.318}, {"pitch": 42, "velocity": 80, "note_on_time": 0.318, "note_off_time": 0.63}, {"pitch": 42, "velocity": 80, "note_on_time": 0.63, "note_off_time": 0.941}, {"pitch": 42, "velocity": 80, "note_on_time": 0.942, "note_off_time": 1.253}, {"pitch": 62, "velocity": 80, "note_on_time": 1.253, "note_off_time": 1.564}, {"pitch": 42, "velocity": 80, "note_on_time": 1.254, "note_off_time": 1.564}, {"pitch": 60, "velocity": 80, "note_on_time": 1.564, "note_off_time": 1.877}, {"pitch": 42, "velocity": 80, "note_on_time": 1.564, "note_off_time": 1.877}, {"pitch": 42, "velocity": 80, "note_on_time": 1.877, "note_off_time": 2.19}, {"pitch": 64, "velocity": 80, "note_on_time": 1.877, "note_off_time": 2.503}, {"pitch": 42, "velocity": 80, "note_on_time": 2.19, "note_off_time": 2.504}, {"pitch": 64, "velocity": 80, "note_on_time": 2.503, "note_off_time": 2.815}, {"pitch": 42, "velocity": 80, "note_on_time": 2.504, "note_off_time": 2.815}, {"pitch": 62, "velocity": 80, "note_on_time": 2.815, "note_off_time": 3.127}, {"pitch": 42, "velocity": 80, "note_on_time": 2.816, "note_off_time": 3.128}, {"pitch": 65, "velocity": 80, "note_on_time": 3.127, "note_off_time": 3.442}, {"pitch": 42, "velocity": 80, "note_on_time": 3.128, "note_off_time": 3.442}, {"pitch": 62, "velocity": 80, "note_on_time": 3.442, "note_off_time": 3.752}, {"pitch": 42, "velocity": 80, "note_on_time": 3.442, "note_off_time": 3.753}, {"pitch": 65, "velocity": 80, "note_on_time": 3.752, "note_off_time": 4.067}, {"pitch": 42, "velocity": 80, "note_on_time": 3.753, "note_off_time": 4.067}, {"pitch": 62, "velocity": 80, "note_on_time": 4.067, "note_off_time": 4.38}, {"pitch": 42, "velocity": 80, "note_on_time": 4.067, "note_off_time": 4.38}, {"pitch": 62, "velocity": 80, "note_on_time": 4.38, "note_off_time": 4.696}, {"pitch": 42, "velocity": 80, "note_on_time": 4.38, "note_off_time": 4.696}, {"pitch": 64, "velocity": 80, "note_on_time": 4.696, "note_off_time": 5.009}, {"pitch": 42, "velocity": 80, "note_on_time": 4.696, "note_off_time": 5.009}, {"pitch": 62, "velocity": 80, "note_on_time": 5.009, "note_off_time": 5.32}, {"pitch": 42, "velocity": 80, "note_on_time": 5.01, "note_off_time": 5.32}, {"pitch": 60, "velocity": 80, "note_on_time": 5.32, "note_off_time": 5.633}, {"pitch": 42, "velocity": 80, "note_on_time": 5.321, "note_off_time": 5.634}, {"pitch": 64, "velocity": 80, "note_on_time": 5.633, "note_off_time": 5.95}, {"pitch": 42, "velocity": 80, "note_on_time": 5.634, "note_off_time": 5.95}, {"pitch": 65, "velocity": 80, "note_on_time": 5.95, "note_off_time": 6.26}, {"pitch": 42, "velocity": 80, "note_on_time": 5.95, "note_off_time": 6.26}, {"pitch": 64, "velocity": 80, "note_on_time": 6.26, "note_off_time": 6.573}, {"pitch": 42, "velocity": 80, "note_on_time": 6.26, "note_off_time": 6.573}, {"pitch": 62, "velocity": 80, "note_on_time": 6.573, "note_off_time": 6.887}, {"pitch": 42, "velocity": 80, "note_on_time": 6.573, "note_off_time": 6.887}, {"pitch": 60, "velocity": 80, "note_on_time": 6.887, "note_off_time": 7.198}, {"pitch": 42, "velocity": 80, "note_on_time": 6.887, "note_off_time": 7.198}, {"pitch": 65, "velocity": 80, "note_on_time": 7.198, "note_off_time": 7.51}, {"pitch": 42, "velocity": 80, "note_on_time": 7.198, "note_off_time": 7.511}, {"pitch": 62, "velocity": 80, "note_on_time": 7.51, "note_off_time": 7.822}, {"pitch": 42, "velocity": 80, "note_on_time": 7.511, "note_off_time": 7.822}, {"pitch": 62, "velocity": 80, "note_on_time": 7.822, "note_off_time": 8.134}, {"pitch": 42, "velocity": 80, "note_on_time": 7.822, "note_off_time": 8.134}, {"pitch": 65, "velocity": 80, "note_on_time": 8.134, "note_off_time": 8.445}, {"pitch": 42, "velocity": 80, "note_on_time": 8.135, "note_off_time": 8.445}, {"pitch": 64, "velocity": 80, "note_on_time": 8.445, "note_off_time": 8.755}, {"pitch": 42, "velocity": 80, "note_on_time": 8.445, "note_off_time": 8.755}, {"pitch": 65, "velocity": 80, "note_on_time": 8.755, "note_off_time": 9.066}, {"pitch": 42, "velocity": 80, "note_on_time": 8.756, "note_off_time": 9.066}, {"pitch": 65, "velocity": 80, "note_on_time": 9.066, "note_off_time": 9.374}, {"pitch": 42, "velocity": 80, "note_on_time": 9.066, "note_off_time": 9.375}, {"pitch": 60, "velocity": 80, "note_on_time": 9.374, "note_off_time": 9.685}, {"pitch": 42, "velocity": 80, "note_on_time": 9.375, "note_off_time": 9.686}, {"pitch": 62, "velocity": 80, "note_on_time": 9.685, "note_off_time": 9.994}, {"pitch": 42, "velocity": 80, "note_on_time": 9.686, "note_off_time": 9.994}, {"pitch": 42, "velocity": 80, "note_on_time": 9.994, "note_off_time": 10.305}, {"pitch": 62, "velocity": 80, "note_on_time": 10.304, "note_off_time": 10.616}, {"pitch": 42, "velocity": 80, "note_on_time": 10.305, "note_off_time": 10.616}, {"pitch": 62, "velocity": 80, "note_on_time": 10.616, "note_off_time": 10.928}, {"pitch": 42, "velocity": 80, "note_on_time": 10.616, "note_off_time": 10.928}, {"pitch": 62, "velocity": 80, "note_on_time": 10.928, "note_off_time": 11.241}, {"pitch": 42, "velocity": 80, "note_on_time": 10.929, "note_off_time": 11.241}]</notes><options name="Option List">((4, 4), [0.5, 0.25], 3, 8, &lt;NoteRangePerHand.FOUR_NOTES: 5&gt;, &lt;NoteRangePerHand.ONE_NOTE: 2&gt;, False, True, False, '197')</options></target_notes><trials><trial trial_no="1" timestamp="2022_11_14-18_33_36"><notes name="Played Notes">[{"pitch": 62, "velocity": 74, "note_on_time": 1.244, "note_off_time": 1.593}, {"pitch": 60, "velocity": 83, "note_on_time": 1.562, "note_off_time": 1.913}, {"pitch": 64, "velocity": 82, "note_on_time": 1.885, "note_off_time": 2.345}, {"pitch": 64, "velocity": 84, "note_on_time": 2.551, "note_off_time": 2.877}, {"pitch": 62, "velocity": 79, "note_on_time": 2.85, "note_off_time": 3.172}, {"pitch": 65, "velocity": 85, "note_on_time": 3.167, "note_off_time": 3.499}, {"pitch": 62, "velocity": 79, "note_on_time": 3.473, "note_off_time": 3.793}, {"pitch": 65, "velocity": 83, "note_on_time": 3.803, "note_off_time": 4.149}, {"pitch": 62, "velocity": 85, "note_on_time": 4.12, "note_off_time": 4.243}, {"pitch": 62, "velocity": 86, "note_on_time": 4.404, "note_off_time": 4.728}, {"pitch": 64, "velocity": 83, "note_on_time": 4.728, "note_off_time": 5.079}, {"pitch": 62, "velocity": 83, "note_on_time": 5.043, "note_off_time": 5.358}, {"pitch": 60, "velocity": 90, "note_on_time": 5.353, "note_off_time": 5.676}, {"pitch": 64, "velocity": 80, "note_on_time": 5.649, "note_off_time": 6.029}, {"pitch": 65, "velocity": 88, "note_on_time": 5.973, "note_off_time": 6.338}, {"pitch": 64, "velocity": 85, "note_on_time": 6.284, "note_off_time": 6.664}, {"pitch": 62, "velocity": 79, "note_on_time": 6.617, "note_off_time": 6.929}, {"pitch": 60, "velocity": 85, "note_on_time": 6.912, "note_off_time": 7.245}, {"pitch": 65, "velocity": 84, "note_on_time": 7.227, "note_off_time": 7.531}, {"pitch": 62, "velocity": 84, "note_on_time": 7.533, "note_off_time": 7.666}, {"pitch": 62, "velocity": 89, "note_on_time": 7.828, "note_off_time": 8.162}, {"pitch": 65, "velocity": 76, "note_on_time": 8.143, "note_off_time": 8.485}, {"pitch": 64, "velocity": 83, "note_on_time": 8.459, "note_off_time": 8.834}, {"pitch": 65, "velocity": 81, "note_on_time": 8.781, "note_off_time": 8.924}, {"pitch": 65, "velocity": 88, "note_on_time": 9.089, "note_off_time": 9.419}, {"pitch": 60, "velocity": 86, "note_on_time": 9.397, "note_off_time": 9.737}, {"pitch": 62, "velocity": 81, "note_on_time": 9.71, "note_off_time": 9.955}, {"pitch": 62, "velocity": 89, "note_on_time": 10.308, "note_off_time": 10.448}, {"pitch": 62, "velocity": 92, "note_on_time": 10.607, "note_off_time": 10.753}]</notes><guidance name="Guidance Mode">None</guidance><error name="Error value">0.06191170370370381</error></trial><trial trial_no="2" timestamp="2022_11_14-18_33_58"><notes name="Played Notes">[{"pitch": 62, "velocity": 73, "note_on_time": 1.291, "note_off_time": 1.617}, {"pitch": 60, "velocity": 89, "note_on_time": 1.594, "note_off_time": 1.912}, {"pitch": 64, "velocity": 79, "note_on_time": 1.897, "note_off_time": 2.314}, {"pitch": 64, "velocity": 88, "note_on_time": 2.528, "note_off_time": 2.881}, {"pitch": 62, "velocity": 75, "note_on_time": 2.846, "note_off_time": 3.16}, {"pitch": 65, "velocity": 85, "note_on_time": 3.151, "note_off_time": 3.486}, {"pitch": 62, "velocity": 79, "note_on_time": 3.46, "note_off_time": 3.821}, {"pitch": 65, "velocity": 78, "note_on_time": 3.788, "note_off_time": 4.11}, {"pitch": 62, "velocity": 83, "note_on_time": 4.089, "note_off_time": 4.218}, {"pitch": 62, "velocity": 77, "note_on_time": 4.39, "note_off_time": 4.706}, {"pitch": 64, "velocity": 78, "note_on_time": 4.701, "note_off_time": 5.068}, {"pitch": 62, "velocity": 81, "note_on_time": 5.019, "note_off_time": 5.362}, {"pitch": 60, "velocity": 83, "note_on_time": 5.329, "note_off_time": 5.66}, {"pitch": 64, "velocity": 78, "note_on_time": 5.634, "note_off_time": 5.987}, {"pitch": 65, "velocity": 81, "note_on_time": 5.951, "note_off_time": 6.289}, {"pitch": 64, "velocity": 80, "note_on_time": 6.253, "note_off_time": 6.61}, {"pitch": 62, "velocity": 80, "note_on_time": 6.56, "note_off_time": 6.876}, {"pitch": 60, "velocity": 85, "note_on_time": 6.862, "note_off_time": 7.192}, {"pitch": 65, "velocity": 83, "note_on_time": 7.173, "note_off_time": 7.486}, {"pitch": 62, "velocity": 80, "note_on_time": 7.482, "note_off_time": 7.653}, {"pitch": 62, "velocity": 84, "note_on_time": 7.812, "note_off_time": 8.147}, {"pitch": 65, "velocity": 85, "note_on_time": 8.134, "note_off_time": 8.496}, {"pitch": 64, "velocity": 80, "note_on_time": 8.436, "note_off_time": 8.819}, {"pitch": 65, "velocity": 77, "note_on_time": 8.769, "note_off_time": 8.908}, {"pitch": 65, "velocity": 76, "note_on_time": 9.068, "note_off_time": 9.377}, {"pitch": 60, "velocity": 88, "note_on_time": 9.373, "note_off_time": 9.698}, {"pitch": 62, "velocity": 78, "note_on_time": 9.678, "note_off_time": 9.97}, {"pitch": 62, "velocity": 87, "note_on_time": 10.285, "note_off_time": 10.429}, {"pitch": 62, "velocity": 79, "note_on_time": 10.569, "note_off_time": 10.723}]</notes><guidance name="Guidance Mode">None</guidance><error name="Error value">0.05696385185185193</error></trial><trial trial_no="3" timestamp="2022_11_14-18_34_18"><notes name="Played Notes">[{"pitch": 62, "velocity": 76, "note_on_time": 1.261, "note_off_time": 1.581}, {"pitch": 60, "velocity": 91, "note_on_time": 1.57, "note_off_time": 1.892}, {"pitch": 64, "velocity": 84, "note_on_time": 1.881, "note_off_time": 2.343}, {"pitch": 64, "velocity": 90, "note_on_time": 2.512, "note_off_time": 2.847}, {"pitch": 62, "velocity": 77, "note_on_time": 2.82, "note_off_time": 3.11}, {"pitch": 65, "velocity": 85, "note_on_time": 3.124, "note_off_time": 3.455}, {"pitch": 62, "velocity": 78, "note_on_time": 3.431, "note_off_time": 3.756}, {"pitch": 65, "velocity": 82, "note_on_time": 3.752, "note_off_time": 4.075}, {"pitch": 62, "velocity": 84, "note_on_time": 4.051, "note_off_time": 4.167}, {"pitch": 62, "velocity": 84, "note_on_time": 4.358, "note_off_time": 4.657}, {"pitch": 64, "velocity": 81, "note_on_time": 4.663, "note_off_time": 5.027}, {"pitch": 62, "velocity": 78, "note_on_time": 4.986, "note_off_time": 5.319}, {"pitch": 60, "velocity": 88, "note_on_time": 5.312, "note_off_time": 5.627}, {"pitch": 64, "velocity": 81, "note_on_time": 5.625, "note_off_time": 6.0}, {"pitch": 65, "velocity": 86, "note_on_time": 5.949, "note_off_time": 6.293}, {"pitch": 64, "velocity": 84, "note_on_time": 6.244, "note_off_time": 6.588}, {"pitch": 62, "velocity": 68, "note_on_time": 6.568, "note_off_time": 6.895}, {"pitch": 60, "velocity": 87, "note_on_time": 6.873, "note_off_time": 7.203}, {"pitch": 65, "velocity": 80, "note_on_time": 7.187, "note_off_time": 7.504}, {"pitch": 62, "velocity": 83, "note_on_time": 7.499, "note_off_time": 7.637}, {"pitch": 62, "velocity": 81, "note_on_time": 7.81, "note_off_time": 8.142}, {"pitch": 65, "velocity": 75, "note_on_time": 8.105, "note_off_time": 8.457}, {"pitch": 64, "velocity": 79, "note_on_time": 8.403, "note_off_time": 8.804}, {"pitch": 65, "velocity": 79, "note_on_time": 8.716, "note_off_time": 8.861}, {"pitch": 65, "velocity": 83, "note_on_time": 9.025, "note_off_time": 9.352}, {"pitch": 60, "velocity": 84, "note_on_time": 9.324, "note_off_time": 9.649}, {"pitch": 62, "velocity": 82, "note_on_time": 9.639, "note_off_time": 9.994}, {"pitch": 62, "velocity": 83, "note_on_time": 10.317, "note_off_time": 10.435}, {"pitch": 62, "velocity": 90, "note_on_time": 10.622, "note_off_time": 10.734}]</notes><guidance name="Guidance Mode">None</guidance><error name="Error value">0.05938311111111119</error></trial><trial trial_no="4" timestamp="2022_11_14-18_34_37"><notes name="Played Notes">[{"pitch": 62, "velocity": 75, "note_on_time": 1.238, "note_off_time": 1.562}, {"pitch": 60, "velocity": 83, "note_on_time": 1.551, "note_off_time": 1.876}, {"pitch": 64, "velocity": 83, "note_on_time": 1.864, "note_off_time": 2.315}, {"pitch": 64, "velocity": 90, "note_on_time": 2.539, "note_off_time": 2.86}, {"pitch": 62, "velocity": 78, "note_on_time": 2.85, "note_off_time": 3.166}, {"pitch": 65, "velocity": 80, "note_on_time": 3.149, "note_off_time": 3.469}, {"pitch": 62, "velocity": 78, "note_on_time": 3.462, "note_off_time": 3.769}, {"pitch": 65, "velocity": 81, "note_on_time": 3.771, "note_off_time": 4.1}, {"pitch": 62, "velocity": 80, "note_on_time": 4.078, "note_off_time": 4.2}, {"pitch": 62, "velocity": 79, "note_on_time": 4.388, "note_off_time": 4.711}, {"pitch": 64, "velocity": 79, "note_on_time": 4.701, "note_off_time": 5.037}, {"pitch": 62, "velocity": 78, "note_on_time": 5.017, "note_off_time": 5.342}, {"pitch": 60, "velocity": 81, "note_on_time": 5.326, "note_off_time": 5.656}, {"pitch": 64, "velocity": 82, "note_on_time": 5.633, "note_off_time": 5.945}, {"pitch": 65, "velocity": 78, "note_on_time": 5.95, "note_off_time": 6.337}, {"pitch": 64, "velocity": 79, "note_on_time": 6.265, "note_off_time": 6.603}, {"pitch": 62, "velocity": 75, "note_on_time": 6.572, "note_off_time": 6.911}, {"pitch": 60, "velocity": 82, "note_on_time": 6.899, "note_off_time": 7.213}, {"pitch": 65, "velocity": 79, "note_on_time": 7.202, "note_off_time": 7.497}, {"pitch": 62, "velocity": 80, "note_on_time": 7.505, "note_off_time": 7.635}, {"pitch": 62, "velocity": 80, "note_on_time": 7.821, "note_off_time": 8.128}, {"pitch": 65, "velocity": 74, "note_on_time": 8.114, "note_off_time": 8.432}, {"pitch": 64, "velocity": 76, "note_on_time": 8.401, "note_off_time": 8.742}, {"pitch": 65, "velocity": 78, "note_on_time": 8.726, "note_off_time": 8.872}, {"pitch": 65, "velocity": 86, "note_on_time": 9.042, "note_off_time": 9.357}, {"pitch": 60, "velocity": 75, "note_on_time": 9.352, "note_off_time": 9.685}, {"pitch": 62, "velocity": 79, "note_on_time": 9.674, "note_off_time": 9.982}, {"pitch": 62, "velocity": 84, "note_on_time": 10.264, "note_off_time": 10.368}, {"pitch": 62, "velocity": 82, "note_on_time": 10.577, "note_off_time": 10.699}]</notes><guidance name="Guidance Mode">None</guidance><error name="Error value">0.06001777777777789</error></trial><trial trial_no="5" timestamp="2022_11_14-18_34_58"><notes name="Played Notes">[{"pitch": 62, "velocity": 68, "note_on_time": 1.252, "note_off_time": 1.571}, {"pitch": 60, "velocity": 87, "note_on_time": 1.558, "note_off_time": 1.894}, {"pitch": 64, "velocity": 84, "note_on_time": 1.884, "note_off_time": 2.306}, {"pitch": 64, "velocity": 85, "note_on_time": 2.543, "note_off_time": 2.882}, {"pitch": 62, "velocity": 75, "note_on_time": 2.848, "note_off_time": 3.157}, {"pitch": 65, "velocity": 81, "note_on_time": 3.153, "note_off_time": 3.484}, {"pitch": 62, "velocity": 78, "note_on_time": 3.469, "note_off_time": 3.766}, {"pitch": 65, "velocity": 75, "note_on_time": 3.77, "note_off_time": 4.109}, {"pitch": 62, "velocity": 77, "note_on_time": 4.075, "note_off_time": 4.199}, {"pitch": 62, "velocity": 76, "note_on_time": 4.388, "note_off_time": 4.711}, {"pitch": 64, "velocity": 76, "note_on_time": 4.695, "note_off_time": 5.025}, {"pitch": 62, "velocity": 77, "note_on_time": 4.995, "note_off_time": 5.31}, {"pitch": 60, "velocity": 84, "note_on_time": 5.312, "note_off_time": 5.631}, {"pitch": 64, "velocity": 83, "note_on_time": 5.62, "note_off_time": 5.999}, {"pitch": 65, "velocity": 78, "note_on_time": 5.952, "note_off_time": 6.291}, {"pitch": 64, "velocity": 82, "note_on_time": 6.244, "note_off_time": 6.589}, {"pitch": 62, "velocity": 76, "note_on_time": 6.551, "note_off_time": 6.883}, {"pitch": 60, "velocity": 84, "note_on_time": 6.864, "note_off_time": 7.196}, {"pitch": 65, "velocity": 81, "note_on_time": 7.185, "note_off_time": 7.499}, {"pitch": 62, "velocity": 80, "note_on_time": 7.49, "note_off_time": 7.611}, {"pitch": 62, "velocity": 79, "note_on_time": 7.786, "note_off_time": 8.107}, {"pitch": 65, "velocity": 79, "note_on_time": 8.101, "note_off_time": 8.426}, {"pitch": 64, "velocity": 76, "note_on_time": 8.401, "note_off_time": 8.795}, {"pitch": 65, "velocity": 78, "note_on_time": 8.728, "note_off_time": 8.861}, {"pitch": 65, "velocity": 77, "note_on_time": 9.027, "note_off_time": 9.368}, {"pitch": 60, "velocity": 84, "note_on_time": 9.348, "note_off_time": 9.688}, {"pitch": 62, "velocity": 78, "note_on_time": 9.67, "note_off_time": 9.98}, {"pitch": 62, "velocity": 77, "note_on_time": 10.305, "note_off_time": 10.423}, {"pitch": 62, "velocity": 79, "note_on_time": 10.621, "note_off_time": 10.732}]</notes><guidance name="Guidance Mode">None</guidance><error name="Error value">0.05982755555555586</error></trial></trials></MIDI>