<MIDI midiNo="2022_11_03-10_36_52"><target_notes><notes name="Note List">[{"pitch": 42, "velocity": 80, "note_on_time": 0.004, "note_off_time": 0.229}, {"pitch": 42, "velocity": 80, "note_on_time": 0.229, "note_off_time": 0.447}, {"pitch": 42, "velocity": 80, "note_on_time": 0.447, "note_off_time": 0.665}, {"pitch": 42, "velocity": 80, "note_on_time": 0.665, "note_off_time": 0.883}, {"pitch": 42, "velocity": 80, "note_on_time": 0.883, "note_off_time": 1.102}, {"pitch": 60, "velocity": 80, "note_on_time": 0.883, "note_off_time": 1.32}, {"pitch": 42, "velocity": 80, "note_on_time": 1.102, "note_off_time": 1.32}, {"pitch": 62, "velocity": 80, "note_on_time": 1.32, "note_off_time": 1.539}, {"pitch": 42, "velocity": 80, "note_on_time": 1.32, "note_off_time": 1.539}, {"pitch": 65, "velocity": 80, "note_on_time": 1.539, "note_off_time": 1.755}, {"pitch": 42, "velocity": 80, "note_on_time": 1.539, "note_off_time": 1.755}, {"pitch": 42, "velocity": 80, "note_on_time": 1.755, "note_off_time": 1.972}, {"pitch": 64, "velocity": 80, "note_on_time": 1.755, "note_off_time": 2.19}, {"pitch": 42, "velocity": 80, "note_on_time": 1.972, "note_off_time": 2.19}, {"pitch": 42, "velocity": 80, "note_on_time": 2.19, "note_off_time": 2.407}, {"pitch": 62, "velocity": 80, "note_on_time": 2.407, "note_off_time": 2.625}, {"pitch": 42, "velocity": 80, "note_on_time": 2.407, "note_off_time": 2.625}, {"pitch": 60, "velocity": 80, "note_on_time": 2.625, "note_off_time": 2.842}, {"pitch": 42, "velocity": 80, "note_on_time": 2.625, "note_off_time": 2.842}, {"pitch": 64, "velocity": 80, "note_on_time": 2.842, "note_off_time": 3.059}, {"pitch": 42, "velocity": 80, "note_on_time": 2.842, "note_off_time": 3.059}, {"pitch": 64, "velocity": 80, "note_on_time": 3.059, "note_off_time": 3.276}, {"pitch": 42, "velocity": 80, "note_on_time": 3.059, "note_off_time": 3.276}, {"pitch": 67, "velocity": 80, "note_on_time": 3.276, "note_off_time": 3.494}, {"pitch": 42, "velocity": 80, "note_on_time": 3.276, "note_off_time": 3.494}, {"pitch": 64, "velocity": 80, "note_on_time": 3.494, "note_off_time": 3.712}, {"pitch": 42, "velocity": 80, "note_on_time": 3.494, "note_off_time": 3.712}, {"pitch": 67, "velocity": 80, "note_on_time": 3.712, "note_off_time": 3.929}, {"pitch": 42, "velocity": 80, "note_on_time": 3.712, "note_off_time": 3.929}, {"pitch": 64, "velocity": 80, "note_on_time": 3.929, "note_off_time": 4.147}, {"pitch": 42, "velocity": 80, "note_on_time": 3.929, "note_off_time": 4.147}, {"pitch": 67, "velocity": 80, "note_on_time": 4.147, "note_off_time": 4.364}, {"pitch": 42, "velocity": 80, "note_on_time": 4.147, "note_off_time": 4.364}, {"pitch": 64, "velocity": 80, "note_on_time": 4.364, "note_off_time": 4.583}, {"pitch": 42, "velocity": 80, "note_on_time": 4.364, "note_off_time": 4.583}, {"pitch": 42, "velocity": 80, "note_on_time": 4.583, "note_off_time": 4.801}, {"pitch": 67, "velocity": 80, "note_on_time": 4.583, "note_off_time": 5.021}, {"pitch": 42, "velocity": 80, "note_on_time": 4.801, "note_off_time": 5.021}, {"pitch": 42, "velocity": 80, "note_on_time": 5.021, "note_off_time": 5.24}, {"pitch": 64, "velocity": 80, "note_on_time": 5.24, "note_off_time": 5.455}, {"pitch": 42, "velocity": 80, "note_on_time": 5.24, "note_off_time": 5.455}, {"pitch": 60, "velocity": 80, "note_on_time": 5.455, "note_off_time": 5.673}, {"pitch": 42, "velocity": 80, "note_on_time": 5.455, "note_off_time": 5.673}, {"pitch": 42, "velocity": 80, "note_on_time": 5.673, "note_off_time": 5.89}, {"pitch": 64, "velocity": 80, "note_on_time": 5.673, "note_off_time": 6.107}, {"pitch": 42, "velocity": 80, "note_on_time": 5.89, "note_off_time": 6.107}, {"pitch": 65, "velocity": 80, "note_on_time": 6.107, "note_off_time": 6.322}, {"pitch": 42, "velocity": 80, "note_on_time": 6.107, "note_off_time": 6.322}, {"pitch": 42, "velocity": 80, "note_on_time": 6.323, "note_off_time": 6.541}, {"pitch": 62, "velocity": 80, "note_on_time": 6.541, "note_off_time": 6.758}, {"pitch": 42, "velocity": 80, "note_on_time": 6.541, "note_off_time": 6.758}, {"pitch": 64, "velocity": 80, "note_on_time": 6.758, "note_off_time": 6.978}, {"pitch": 42, "velocity": 80, "note_on_time": 6.759, "note_off_time": 6.978}, {"pitch": 42, "velocity": 80, "note_on_time": 6.978, "note_off_time": 7.195}, {"pitch": 64, "velocity": 80, "note_on_time": 7.195, "note_off_time": 7.414}, {"pitch": 42, "velocity": 80, "note_on_time": 7.195, "note_off_time": 7.414}, {"pitch": 64, "velocity": 80, "note_on_time": 7.414, "note_off_time": 7.634}, {"pitch": 42, "velocity": 80, "note_on_time": 7.415, "note_off_time": 7.634}, {"pitch": 64, "velocity": 80, "note_on_time": 7.634, "note_off_time": 7.852}, {"pitch": 42, "velocity": 80, "note_on_time": 7.634, "note_off_time": 7.852}]</notes><options name="Option List">((4, 4), [0.5, 0.25], 3, 8, &lt;NoteRangePerHand.C_TO_G: 6&gt;, &lt;NoteRangePerHand.ONE_NOTE: 2&gt;, False, True, False, 281)</options></target_notes><trials><trial trial_no="1" timestamp="2022_11_03-10_36_43"><notes name="Played Notes">[{"pitch": 60, "velocity": 82, "note_on_time": 0.903, "note_off_time": 1.578}, {"pitch": 62, "velocity": 34, "note_on_time": 1.554, "note_off_time": 1.777}, {"pitch": 65, "velocity": 84, "note_on_time": 1.784, "note_off_time": 2.038}, {"pitch": 64, "velocity": 64, "note_on_time": 1.992, "note_off_time": 2.481}, {"pitch": 62, "velocity": 77, "note_on_time": 2.617, "note_off_time": 2.847}, {"pitch": 60, "velocity": 74, "note_on_time": 2.854, "note_off_time": 3.036}, {"pitch": 62, "velocity": 69, "note_on_time": 3.145, "note_off_time": 3.41}, {"pitch": 65, "velocity": 80, "note_on_time": 3.449, "note_off_time": 3.577}, {"pitch": 67, "velocity": 80, "note_on_time": 3.686, "note_off_time": 3.781}, {"pitch": 67, "velocity": 72, "note_on_time": 3.895, "note_off_time": 4.019}, {"pitch": 64, "velocity": 68, "note_on_time": 4.099, "note_off_time": 4.308}, {"pitch": 67, "velocity": 77, "note_on_time": 4.31, "note_off_time": 4.558}, {"pitch": 64, "velocity": 72, "note_on_time": 4.522, "note_off_time": 4.766}, {"pitch": 67, "velocity": 69, "note_on_time": 4.759, "note_off_time": 4.941}, {"pitch": 64, "velocity": 78, "note_on_time": 4.938, "note_off_time": 5.21}, {"pitch": 67, "velocity": 76, "note_on_time": 5.196, "note_off_time": 6.072}, {"pitch": 64, "velocity": 71, "note_on_time": 6.024, "note_off_time": 6.227}, {"pitch": 60, "velocity": 68, "note_on_time": 6.239, "note_off_time": 6.496}, {"pitch": 64, "velocity": 69, "note_on_time": 6.452, "note_off_time": 6.888}, {"pitch": 65, "velocity": 80, "note_on_time": 6.859, "note_off_time": 7.07}, {"pitch": 62, "velocity": 81, "note_on_time": 7.153, "note_off_time": 7.331}, {"pitch": 64, "velocity": 78, "note_on_time": 7.345, "note_off_time": 7.449}, {"pitch": 65, "velocity": 71, "note_on_time": 7.543, "note_off_time": 7.601}]</notes><guidance name="Guidance Mode">None</guidance><error name="Error value">0.5976776190476191</error></trial></trials></MIDI>