<MIDI midiNo="2022_11_21-17_48_11"><target_notes><notes name="Note List">[{"pitch": 42, "velocity": 80, "note_on_time": 0.005, "note_off_time": 0.266}, {"pitch": 42, "velocity": 80, "note_on_time": 0.266, "note_off_time": 0.528}, {"pitch": 42, "velocity": 80, "note_on_time": 0.528, "note_off_time": 0.793}, {"pitch": 42, "velocity": 80, "note_on_time": 0.793, "note_off_time": 1.056}, {"pitch": 64, "velocity": 80, "note_on_time": 1.056, "note_off_time": 1.321}, {"pitch": 42, "velocity": 80, "note_on_time": 1.056, "note_off_time": 1.321}, {"pitch": 42, "velocity": 80, "note_on_time": 1.321, "note_off_time": 1.586}, {"pitch": 62, "velocity": 80, "note_on_time": 1.321, "note_off_time": 1.85}, {"pitch": 42, "velocity": 80, "note_on_time": 1.587, "note_off_time": 1.851}, {"pitch": 42, "velocity": 80, "note_on_time": 1.851, "note_off_time": 2.118}, {"pitch": 42, "velocity": 80, "note_on_time": 2.118, "note_off_time": 2.385}, {"pitch": 64, "velocity": 80, "note_on_time": 2.118, "note_off_time": 2.652}, {"pitch": 42, "velocity": 80, "note_on_time": 2.385, "note_off_time": 2.652}, {"pitch": 42, "velocity": 80, "note_on_time": 2.652, "note_off_time": 2.917}, {"pitch": 42, "velocity": 80, "note_on_time": 2.917, "note_off_time": 3.184}, {"pitch": 42, "velocity": 80, "note_on_time": 3.184, "note_off_time": 3.45}, {"pitch": 62, "velocity": 80, "note_on_time": 3.183, "note_off_time": 3.714}, {"pitch": 42, "velocity": 80, "note_on_time": 3.45, "note_off_time": 3.714}, {"pitch": 42, "velocity": 80, "note_on_time": 3.714, "note_off_time": 3.978}, {"pitch": 60, "velocity": 80, "note_on_time": 3.714, "note_off_time": 4.241}, {"pitch": 42, "velocity": 80, "note_on_time": 3.978, "note_off_time": 4.241}, {"pitch": 60, "velocity": 80, "note_on_time": 4.241, "note_off_time": 4.505}, {"pitch": 42, "velocity": 80, "note_on_time": 4.241, "note_off_time": 4.505}, {"pitch": 62, "velocity": 80, "note_on_time": 4.505, "note_off_time": 4.768}, {"pitch": 42, "velocity": 80, "note_on_time": 4.506, "note_off_time": 4.768}, {"pitch": 65, "velocity": 80, "note_on_time": 4.768, "note_off_time": 5.035}, {"pitch": 42, "velocity": 80, "note_on_time": 4.768, "note_off_time": 5.035}, {"pitch": 65, "velocity": 80, "note_on_time": 5.035, "note_off_time": 5.3}, {"pitch": 42, "velocity": 80, "note_on_time": 5.035, "note_off_time": 5.3}, {"pitch": 60, "velocity": 80, "note_on_time": 5.3, "note_off_time": 5.566}, {"pitch": 42, "velocity": 80, "note_on_time": 5.301, "note_off_time": 5.566}, {"pitch": 64, "velocity": 80, "note_on_time": 5.566, "note_off_time": 5.833}, {"pitch": 42, "velocity": 80, "note_on_time": 5.567, "note_off_time": 5.833}, {"pitch": 67, "velocity": 80, "note_on_time": 5.833, "note_off_time": 6.097}, {"pitch": 42, "velocity": 80, "note_on_time": 5.834, "note_off_time": 6.097}, {"pitch": 62, "velocity": 80, "note_on_time": 6.097, "note_off_time": 6.364}, {"pitch": 42, "velocity": 80, "note_on_time": 6.098, "note_off_time": 6.364}, {"pitch": 64, "velocity": 80, "note_on_time": 6.364, "note_off_time": 6.627}, {"pitch": 42, "velocity": 80, "note_on_time": 6.364, "note_off_time": 6.627}, {"pitch": 65, "velocity": 80, "note_on_time": 6.627, "note_off_time": 6.891}, {"pitch": 42, "velocity": 80, "note_on_time": 6.627, "note_off_time": 6.891}, {"pitch": 62, "velocity": 80, "note_on_time": 6.891, "note_off_time": 7.155}, {"pitch": 42, "velocity": 80, "note_on_time": 6.892, "note_off_time": 7.155}, {"pitch": 67, "velocity": 80, "note_on_time": 7.155, "note_off_time": 7.42}, {"pitch": 42, "velocity": 80, "note_on_time": 7.155, "note_off_time": 7.42}, {"pitch": 67, "velocity": 80, "note_on_time": 7.42, "note_off_time": 7.686}, {"pitch": 42, "velocity": 80, "note_on_time": 7.42, "note_off_time": 7.686}, {"pitch": 64, "velocity": 80, "note_on_time": 7.686, "note_off_time": 7.951}, {"pitch": 42, "velocity": 80, "note_on_time": 7.687, "note_off_time": 7.951}, {"pitch": 64, "velocity": 80, "note_on_time": 7.951, "note_off_time": 8.216}, {"pitch": 42, "velocity": 80, "note_on_time": 7.951, "note_off_time": 8.216}, {"pitch": 62, "velocity": 80, "note_on_time": 8.216, "note_off_time": 8.482}, {"pitch": 42, "velocity": 80, "note_on_time": 8.217, "note_off_time": 8.482}, {"pitch": 42, "velocity": 80, "note_on_time": 8.482, "note_off_time": 8.749}, {"pitch": 62, "velocity": 80, "note_on_time": 8.749, "note_off_time": 9.012}, {"pitch": 42, "velocity": 80, "note_on_time": 8.749, "note_off_time": 9.012}, {"pitch": 62, "velocity": 80, "note_on_time": 9.012, "note_off_time": 9.277}, {"pitch": 42, "velocity": 80, "note_on_time": 9.012, "note_off_time": 9.277}, {"pitch": 62, "velocity": 80, "note_on_time": 9.277, "note_off_time": 9.543}, {"pitch": 42, "velocity": 80, "note_on_time": 9.277, "note_off_time": 9.543}]</notes><options name="Option List">((4, 4), [0.5, 0.25], 3, 8, &lt;NoteRangePerHand.C_TO_G: 6&gt;, &lt;NoteRangePerHand.ONE_NOTE: 2&gt;, False, True, False, '232')</options></target_notes><trials><trial trial_no="1" timestamp="2022_11_21-17_48_00"><notes name="Played Notes">[{"pitch": 64, "velocity": 90, "note_on_time": 2.075, "note_off_time": 2.378}, {"pitch": 62, "velocity": 80, "note_on_time": 2.368, "note_off_time": 2.659}, {"pitch": 64, "velocity": 83, "note_on_time": 6.341, "note_off_time": 6.639}, {"pitch": 62, "velocity": 79, "note_on_time": 6.62, "note_off_time": 6.84}, {"pitch": 64, "velocity": 94, "note_on_time": 7.407, "note_off_time": 8.028}, {"pitch": 62, "velocity": 87, "note_on_time": 8.137, "note_off_time": 8.503}, {"pitch": 60, "velocity": 89, "note_on_time": 8.571, "note_off_time": 9.079}]</notes><guidance name="Guidance Mode">None</guidance><error name="Error value">1.1778647619047617</error></trial><trial trial_no="2" timestamp="2022_11_21-17_48_42"><notes name="Played Notes">[{"pitch": 64, "velocity": 86, "note_on_time": 1.16, "note_off_time": 1.451}, {"pitch": 62, "velocity": 89, "note_on_time": 1.415, "note_off_time": 1.647}, {"pitch": 64, "velocity": 90, "note_on_time": 2.417, "note_off_time": 2.818}, {"pitch": 62, "velocity": 82, "note_on_time": 3.588, "note_off_time": 3.885}, {"pitch": 60, "velocity": 95, "note_on_time": 3.86, "note_off_time": 4.213}, {"pitch": 60, "velocity": 90, "note_on_time": 5.05, "note_off_time": 5.312}, {"pitch": 64, "velocity": 77, "note_on_time": 5.306, "note_off_time": 5.608}, {"pitch": 67, "velocity": 75, "note_on_time": 5.615, "note_off_time": 5.919}, {"pitch": 60, "velocity": 92, "note_on_time": 6.201, "note_off_time": 6.353}, {"pitch": 62, "velocity": 74, "note_on_time": 6.352, "note_off_time": 6.635}, {"pitch": 65, "velocity": 89, "note_on_time": 6.647, "note_off_time": 6.749}, {"pitch": 65, "velocity": 100, "note_on_time": 6.938, "note_off_time": 7.056}, {"pitch": 60, "velocity": 95, "note_on_time": 7.196, "note_off_time": 7.569}, {"pitch": 64, "velocity": 81, "note_on_time": 7.569, "note_off_time": 7.728}, {"pitch": 67, "velocity": 78, "note_on_time": 7.736, "note_off_time": 8.009}, {"pitch": 62, "velocity": 91, "note_on_time": 7.994, "note_off_time": 8.376}, {"pitch": 64, "velocity": 84, "note_on_time": 8.374, "note_off_time": 8.739}, {"pitch": 65, "velocity": 83, "note_on_time": 8.731, "note_off_time": 9.043}, {"pitch": 62, "velocity": 94, "note_on_time": 9.04, "note_off_time": 9.339}]</notes><guidance name="Guidance Mode">None</guidance><error name="Error value">0.8034647619047617</error></trial><trial trial_no="3" timestamp="2022_11_21-17_49_07"><notes name="Played Notes">[{"pitch": 64, "velocity": 93, "note_on_time": 1.152, "note_off_time": 1.404}, {"pitch": 62, "velocity": 89, "note_on_time": 1.398, "note_off_time": 1.68}, {"pitch": 62, "velocity": 89, "note_on_time": 2.588, "note_off_time": 2.814}, {"pitch": 62, "velocity": 98, "note_on_time": 3.131, "note_off_time": 3.646}, {"pitch": 60, "velocity": 88, "note_on_time": 3.588, "note_off_time": 3.988}, {"pitch": 60, "velocity": 98, "note_on_time": 4.341, "note_off_time": 4.651}, {"pitch": 64, "velocity": 82, "note_on_time": 4.642, "note_off_time": 4.913}, {"pitch": 67, "velocity": 55, "note_on_time": 4.98, "note_off_time": 5.042}, {"pitch": 60, "velocity": 84, "note_on_time": 5.346, "note_off_time": 5.598}, {"pitch": 64, "velocity": 82, "note_on_time": 5.582, "note_off_time": 5.861}, {"pitch": 65, "velocity": 73, "note_on_time": 5.879, "note_off_time": 5.951}, {"pitch": 60, "velocity": 89, "note_on_time": 6.157, "note_off_time": 6.391}, {"pitch": 62, "velocity": 82, "note_on_time": 6.385, "note_off_time": 6.628}, {"pitch": 65, "velocity": 89, "note_on_time": 6.627, "note_off_time": 6.725}, {"pitch": 65, "velocity": 100, "note_on_time": 6.876, "note_off_time": 7.101}, {"pitch": 60, "velocity": 93, "note_on_time": 7.138, "note_off_time": 7.427}, {"pitch": 64, "velocity": 78, "note_on_time": 7.406, "note_off_time": 7.663}, {"pitch": 67, "velocity": 79, "note_on_time": 7.671, "note_off_time": 7.916}, {"pitch": 62, "velocity": 84, "note_on_time": 7.925, "note_off_time": 8.204}, {"pitch": 64, "velocity": 87, "note_on_time": 8.183, "note_off_time": 8.45}, {"pitch": 65, "velocity": 85, "note_on_time": 8.454, "note_off_time": 8.71}, {"pitch": 62, "velocity": 84, "note_on_time": 8.716, "note_off_time": 8.977}, {"pitch": 67, "velocity": 89, "note_on_time": 8.977, "note_off_time": 9.057}, {"pitch": 67, "velocity": 100, "note_on_time": 9.23, "note_off_time": 9.313}]</notes><guidance name="Guidance Mode">None</guidance><error name="Error value">0.7562200000000002</error></trial></trials></MIDI>