<MIDI midiNo="2022_11_13-12_41_08"><target_notes><notes name="Note List">[{"pitch": 42, "velocity": 80, "note_on_time": 0.004, "note_off_time": 0.22}, {"pitch": 42, "velocity": 80, "note_on_time": 0.22, "note_off_time": 0.439}, {"pitch": 42, "velocity": 80, "note_on_time": 0.439, "note_off_time": 0.657}, {"pitch": 42, "velocity": 80, "note_on_time": 0.657, "note_off_time": 0.873}, {"pitch": 64, "velocity": 80, "note_on_time": 0.873, "note_off_time": 1.09}, {"pitch": 42, "velocity": 80, "note_on_time": 0.873, "note_off_time": 1.09}, {"pitch": 62, "velocity": 80, "note_on_time": 1.09, "note_off_time": 1.308}, {"pitch": 42, "velocity": 80, "note_on_time": 1.09, "note_off_time": 1.308}, {"pitch": 65, "velocity": 80, "note_on_time": 1.308, "note_off_time": 1.526}, {"pitch": 42, "velocity": 80, "note_on_time": 1.308, "note_off_time": 1.526}, {"pitch": 65, "velocity": 80, "note_on_time": 1.526, "note_off_time": 1.743}, {"pitch": 42, "velocity": 80, "note_on_time": 1.526, "note_off_time": 1.743}, {"pitch": 62, "velocity": 80, "note_on_time": 1.743, "note_off_time": 1.962}, {"pitch": 42, "velocity": 80, "note_on_time": 1.743, "note_off_time": 1.962}, {"pitch": 65, "velocity": 80, "note_on_time": 1.962, "note_off_time": 2.18}, {"pitch": 42, "velocity": 80, "note_on_time": 1.962, "note_off_time": 2.18}, {"pitch": 67, "velocity": 80, "note_on_time": 2.18, "note_off_time": 2.399}, {"pitch": 42, "velocity": 80, "note_on_time": 2.18, "note_off_time": 2.399}, {"pitch": 64, "velocity": 80, "note_on_time": 2.399, "note_off_time": 2.617}, {"pitch": 42, "velocity": 80, "note_on_time": 2.399, "note_off_time": 2.617}, {"pitch": 42, "velocity": 80, "note_on_time": 2.617, "note_off_time": 2.835}, {"pitch": 65, "velocity": 80, "note_on_time": 2.617, "note_off_time": 3.052}, {"pitch": 42, "velocity": 80, "note_on_time": 2.835, "note_off_time": 3.052}, {"pitch": 42, "velocity": 80, "note_on_time": 3.052, "note_off_time": 3.271}, {"pitch": 42, "velocity": 80, "note_on_time": 3.271, "note_off_time": 3.49}, {"pitch": 60, "velocity": 80, "note_on_time": 3.49, "note_off_time": 3.708}, {"pitch": 42, "velocity": 80, "note_on_time": 3.49, "note_off_time": 3.708}, {"pitch": 42, "velocity": 80, "note_on_time": 3.708, "note_off_time": 3.927}, {"pitch": 65, "velocity": 80, "note_on_time": 3.708, "note_off_time": 4.145}, {"pitch": 42, "velocity": 80, "note_on_time": 3.927, "note_off_time": 4.145}, {"pitch": 42, "velocity": 80, "note_on_time": 4.145, "note_off_time": 4.363}, {"pitch": 64, "velocity": 80, "note_on_time": 4.363, "note_off_time": 4.583}, {"pitch": 42, "velocity": 80, "note_on_time": 4.363, "note_off_time": 4.583}, {"pitch": 62, "velocity": 80, "note_on_time": 4.583, "note_off_time": 4.799}, {"pitch": 42, "velocity": 80, "note_on_time": 4.583, "note_off_time": 4.799}, {"pitch": 67, "velocity": 80, "note_on_time": 4.799, "note_off_time": 5.017}, {"pitch": 42, "velocity": 80, "note_on_time": 4.799, "note_off_time": 5.017}, {"pitch": 62, "velocity": 80, "note_on_time": 5.017, "note_off_time": 5.237}, {"pitch": 42, "velocity": 80, "note_on_time": 5.017, "note_off_time": 5.237}, {"pitch": 42, "velocity": 80, "note_on_time": 5.237, "note_off_time": 5.457}, {"pitch": 65, "velocity": 80, "note_on_time": 5.237, "note_off_time": 5.675}, {"pitch": 42, "velocity": 80, "note_on_time": 5.457, "note_off_time": 5.675}, {"pitch": 67, "velocity": 80, "note_on_time": 5.675, "note_off_time": 5.896}, {"pitch": 42, "velocity": 80, "note_on_time": 5.675, "note_off_time": 5.896}, {"pitch": 67, "velocity": 80, "note_on_time": 5.896, "note_off_time": 6.113}, {"pitch": 42, "velocity": 80, "note_on_time": 5.896, "note_off_time": 6.113}, {"pitch": 67, "velocity": 80, "note_on_time": 6.113, "note_off_time": 6.332}, {"pitch": 42, "velocity": 80, "note_on_time": 6.113, "note_off_time": 6.332}, {"pitch": 62, "velocity": 80, "note_on_time": 6.332, "note_off_time": 6.553}, {"pitch": 42, "velocity": 80, "note_on_time": 6.333, "note_off_time": 6.553}, {"pitch": 62, "velocity": 80, "note_on_time": 6.553, "note_off_time": 6.774}, {"pitch": 42, "velocity": 80, "note_on_time": 6.553, "note_off_time": 6.774}, {"pitch": 65, "velocity": 80, "note_on_time": 6.774, "note_off_time": 6.992}, {"pitch": 42, "velocity": 80, "note_on_time": 6.774, "note_off_time": 6.992}, {"pitch": 42, "velocity": 80, "note_on_time": 6.993, "note_off_time": 7.211}, {"pitch": 65, "velocity": 80, "note_on_time": 7.211, "note_off_time": 7.429}, {"pitch": 42, "velocity": 80, "note_on_time": 7.211, "note_off_time": 7.429}, {"pitch": 65, "velocity": 80, "note_on_time": 7.429, "note_off_time": 7.65}, {"pitch": 42, "velocity": 80, "note_on_time": 7.429, "note_off_time": 7.65}, {"pitch": 65, "velocity": 80, "note_on_time": 7.65, "note_off_time": 7.867}, {"pitch": 42, "velocity": 80, "note_on_time": 7.65, "note_off_time": 7.867}]</notes><options name="Option List">((4, 4), [0.5, 0.25], 3, 8, &lt;NoteRangePerHand.C_TO_G: 6&gt;, &lt;NoteRangePerHand.ONE_NOTE: 2&gt;, False, True, False, '281')</options></target_notes><trials><trial trial_no="1" timestamp="2022_11_13-12_40_58"><notes name="Played Notes">[{"pitch": 64, "velocity": 85, "note_on_time": 0.886, "note_off_time": 1.144}, {"pitch": 62, "velocity": 72, "note_on_time": 1.115, "note_off_time": 1.423}, {"pitch": 65, "velocity": 80, "note_on_time": 1.343, "note_off_time": 1.469}, {"pitch": 65, "velocity": 81, "note_on_time": 1.554, "note_off_time": 1.772}, {"pitch": 62, "velocity": 78, "note_on_time": 1.786, "note_off_time": 2.257}, {"pitch": 65, "velocity": 74, "note_on_time": 1.992, "note_off_time": 2.259}, {"pitch": 67, "velocity": 78, "note_on_time": 2.218, "note_off_time": 2.428}, {"pitch": 64, "velocity": 76, "note_on_time": 2.419, "note_off_time": 2.696}, {"pitch": 65, "velocity": 99, "note_on_time": 2.65, "note_off_time": 2.905}, {"pitch": 60, "velocity": 82, "note_on_time": 3.523, "note_off_time": 3.774}, {"pitch": 65, "velocity": 83, "note_on_time": 3.735, "note_off_time": 3.906}, {"pitch": 64, "velocity": 84, "note_on_time": 4.38, "note_off_time": 4.586}, {"pitch": 62, "velocity": 68, "note_on_time": 4.581, "note_off_time": 4.831}, {"pitch": 67, "velocity": 60, "note_on_time": 4.803, "note_off_time": 5.064}, {"pitch": 62, "velocity": 51, "note_on_time": 5.033, "note_off_time": 5.316}, {"pitch": 65, "velocity": 80, "note_on_time": 5.25, "note_off_time": 5.523}, {"pitch": 67, "velocity": 62, "note_on_time": 5.71, "note_off_time": 5.818}, {"pitch": 67, "velocity": 81, "note_on_time": 5.907, "note_off_time": 6.018}, {"pitch": 67, "velocity": 93, "note_on_time": 6.138, "note_off_time": 6.302}, {"pitch": 62, "velocity": 64, "note_on_time": 6.383, "note_off_time": 6.476}, {"pitch": 62, "velocity": 78, "note_on_time": 6.575, "note_off_time": 6.73}, {"pitch": 65, "velocity": 88, "note_on_time": 6.788, "note_off_time": 6.957}, {"pitch": 65, "velocity": 97, "note_on_time": 7.325, "note_off_time": 7.425}, {"pitch": 65, "velocity": 83, "note_on_time": 7.541, "note_off_time": 7.63}]</notes><guidance name="Guidance Mode">None</guidance><error name="Error value">0.06832940909090905</error></trial><trial trial_no="2" timestamp="2022_11_13-12_41_38"><notes name="Played Notes">[{"pitch": 64, "velocity": 71, "note_on_time": 0.9, "note_off_time": 1.146}, {"pitch": 62, "velocity": 75, "note_on_time": 1.126, "note_off_time": 1.446}, {"pitch": 65, "velocity": 77, "note_on_time": 1.349, "note_off_time": 1.477}, {"pitch": 65, "velocity": 76, "note_on_time": 1.567, "note_off_time": 1.814}, {"pitch": 65, "velocity": 78, "note_on_time": 2.01, "note_off_time": 2.281}, {"pitch": 62, "velocity": 75, "note_on_time": 1.793, "note_off_time": 2.295}, {"pitch": 67, "velocity": 75, "note_on_time": 2.24, "note_off_time": 2.444}, {"pitch": 64, "velocity": 78, "note_on_time": 2.444, "note_off_time": 2.724}, {"pitch": 65, "velocity": 94, "note_on_time": 2.675, "note_off_time": 2.902}, {"pitch": 60, "velocity": 83, "note_on_time": 3.564, "note_off_time": 3.893}, {"pitch": 65, "velocity": 78, "note_on_time": 3.764, "note_off_time": 3.944}, {"pitch": 64, "velocity": 81, "note_on_time": 4.397, "note_off_time": 4.599}, {"pitch": 62, "velocity": 77, "note_on_time": 4.594, "note_off_time": 4.857}, {"pitch": 67, "velocity": 71, "note_on_time": 4.824, "note_off_time": 5.051}, {"pitch": 62, "velocity": 74, "note_on_time": 5.034, "note_off_time": 5.305}, {"pitch": 65, "velocity": 81, "note_on_time": 5.263, "note_off_time": 5.543}, {"pitch": 67, "velocity": 83, "note_on_time": 5.684, "note_off_time": 5.8}, {"pitch": 67, "velocity": 80, "note_on_time": 5.905, "note_off_time": 6.005}, {"pitch": 67, "velocity": 85, "note_on_time": 6.125, "note_off_time": 6.317}, {"pitch": 62, "velocity": 77, "note_on_time": 6.339, "note_off_time": 6.439}, {"pitch": 62, "velocity": 79, "note_on_time": 6.556, "note_off_time": 6.746}, {"pitch": 65, "velocity": 87, "note_on_time": 6.777, "note_off_time": 6.891}, {"pitch": 65, "velocity": 92, "note_on_time": 7.262, "note_off_time": 7.347}, {"pitch": 65, "velocity": 85, "note_on_time": 7.483, "note_off_time": 7.569}, {"pitch": 65, "velocity": 84, "note_on_time": 7.712, "note_off_time": 7.801}]</notes><guidance name="Guidance Mode">None</guidance><error name="Error value">0.013918227272727129</error></trial><trial trial_no="3" timestamp="2022_11_13-12_41_59"><notes name="Played Notes">[{"pitch": 64, "velocity": 75, "note_on_time": 0.898, "note_off_time": 1.175}, {"pitch": 62, "velocity": 67, "note_on_time": 1.124, "note_off_time": 1.45}, {"pitch": 65, "velocity": 69, "note_on_time": 1.363, "note_off_time": 1.488}, {"pitch": 65, "velocity": 86, "note_on_time": 1.572, "note_off_time": 1.803}, {"pitch": 62, "velocity": 77, "note_on_time": 1.804, "note_off_time": 2.284}, {"pitch": 65, "velocity": 72, "note_on_time": 2.012, "note_off_time": 2.288}, {"pitch": 67, "velocity": 81, "note_on_time": 2.242, "note_off_time": 2.456}, {"pitch": 64, "velocity": 70, "note_on_time": 2.446, "note_off_time": 2.758}, {"pitch": 65, "velocity": 89, "note_on_time": 2.694, "note_off_time": 2.956}, {"pitch": 60, "velocity": 71, "note_on_time": 3.503, "note_off_time": 3.818}, {"pitch": 65, "velocity": 81, "note_on_time": 3.744, "note_off_time": 3.953}, {"pitch": 64, "velocity": 84, "note_on_time": 4.366, "note_off_time": 4.581}, {"pitch": 62, "velocity": 74, "note_on_time": 4.593, "note_off_time": 4.87}, {"pitch": 67, "velocity": 77, "note_on_time": 4.832, "note_off_time": 5.066}, {"pitch": 62, "velocity": 73, "note_on_time": 5.058, "note_off_time": 5.345}, {"pitch": 65, "velocity": 90, "note_on_time": 5.296, "note_off_time": 5.529}, {"pitch": 67, "velocity": 84, "note_on_time": 5.728, "note_off_time": 5.86}, {"pitch": 67, "velocity": 75, "note_on_time": 5.945, "note_off_time": 6.069}, {"pitch": 67, "velocity": 87, "note_on_time": 6.187, "note_off_time": 6.397}, {"pitch": 62, "velocity": 76, "note_on_time": 6.398, "note_off_time": 6.531}, {"pitch": 62, "velocity": 82, "note_on_time": 6.635, "note_off_time": 6.783}, {"pitch": 65, "velocity": 94, "note_on_time": 6.856, "note_off_time": 7.001}, {"pitch": 65, "velocity": 91, "note_on_time": 7.289, "note_off_time": 7.385}, {"pitch": 65, "velocity": 79, "note_on_time": 7.507, "note_off_time": 7.609}, {"pitch": 65, "velocity": 101, "note_on_time": 7.744, "note_off_time": 7.855}]</notes><guidance name="Guidance Mode">None</guidance><error name="Error value">0.01810422727272716</error></trial><trial trial_no="4" timestamp="2022_11_13-12_42_43"><notes name="Played Notes">[{"pitch": 64, "velocity": 70, "note_on_time": 0.898, "note_off_time": 1.15}, {"pitch": 62, "velocity": 74, "note_on_time": 1.121, "note_off_time": 1.44}, {"pitch": 65, "velocity": 53, "note_on_time": 1.371, "note_off_time": 1.462}, {"pitch": 65, "velocity": 71, "note_on_time": 1.581, "note_off_time": 1.793}, {"pitch": 65, "velocity": 67, "note_on_time": 2.022, "note_off_time": 2.285}, {"pitch": 62, "velocity": 75, "note_on_time": 1.811, "note_off_time": 2.302}, {"pitch": 67, "velocity": 72, "note_on_time": 2.25, "note_off_time": 2.466}, {"pitch": 64, "velocity": 73, "note_on_time": 2.461, "note_off_time": 2.755}, {"pitch": 65, "velocity": 88, "note_on_time": 2.706, "note_off_time": 2.914}, {"pitch": 60, "velocity": 75, "note_on_time": 3.338, "note_off_time": 3.54}, {"pitch": 65, "velocity": 89, "note_on_time": 3.576, "note_off_time": 3.756}, {"pitch": 64, "velocity": 87, "note_on_time": 4.039, "note_off_time": 4.24}, {"pitch": 62, "velocity": 77, "note_on_time": 4.243, "note_off_time": 4.508}, {"pitch": 67, "velocity": 78, "note_on_time": 4.468, "note_off_time": 4.637}, {"pitch": 62, "velocity": 79, "note_on_time": 4.674, "note_off_time": 4.967}, {"pitch": 67, "velocity": 71, "note_on_time": 4.941, "note_off_time": 5.06}, {"pitch": 65, "velocity": 70, "note_on_time": 4.94, "note_off_time": 5.069}, {"pitch": 65, "velocity": 91, "note_on_time": 5.146, "note_off_time": 5.466}, {"pitch": 67, "velocity": 89, "note_on_time": 5.601, "note_off_time": 5.707}, {"pitch": 67, "velocity": 82, "note_on_time": 5.821, "note_off_time": 5.943}, {"pitch": 62, "velocity": 72, "note_on_time": 6.07, "note_off_time": 6.157}, {"pitch": 62, "velocity": 76, "note_on_time": 6.293, "note_off_time": 6.539}, {"pitch": 65, "velocity": 73, "note_on_time": 6.512, "note_off_time": 6.655}, {"pitch": 65, "velocity": 95, "note_on_time": 6.917, "note_off_time": 7.02}, {"pitch": 65, "velocity": 79, "note_on_time": 7.144, "note_off_time": 7.244}, {"pitch": 65, "velocity": 89, "note_on_time": 7.387, "note_off_time": 7.484}]</notes><guidance name="Guidance Mode">None</guidance><error name="Error value">0.39402377272727235</error></trial><trial trial_no="5" timestamp="2022_11_13-12_43_04"><notes name="Played Notes">[{"pitch": 64, "velocity": 72, "note_on_time": 0.91, "note_off_time": 1.155}, {"pitch": 62, "velocity": 64, "note_on_time": 1.133, "note_off_time": 1.458}, {"pitch": 65, "velocity": 65, "note_on_time": 1.367, "note_off_time": 1.483}, {"pitch": 65, "velocity": 77, "note_on_time": 1.573, "note_off_time": 1.68}, {"pitch": 65, "velocity": 74, "note_on_time": 1.801, "note_off_time": 1.915}, {"pitch": 62, "velocity": 62, "note_on_time": 1.965, "note_off_time": 2.298}, {"pitch": 65, "velocity": 85, "note_on_time": 2.236, "note_off_time": 2.374}, {"pitch": 67, "velocity": 83, "note_on_time": 2.489, "note_off_time": 2.648}, {"pitch": 64, "velocity": 81, "note_on_time": 2.733, "note_off_time": 2.912}, {"pitch": 65, "velocity": 93, "note_on_time": 2.926, "note_off_time": 3.107}, {"pitch": 60, "velocity": 55, "note_on_time": 3.673, "note_off_time": 3.738}, {"pitch": 62, "velocity": 52, "note_on_time": 3.667, "note_off_time": 4.034}, {"pitch": 65, "velocity": 64, "note_on_time": 3.907, "note_off_time": 4.084}, {"pitch": 64, "velocity": 77, "note_on_time": 4.328, "note_off_time": 4.546}, {"pitch": 62, "velocity": 75, "note_on_time": 4.563, "note_off_time": 4.83}, {"pitch": 67, "velocity": 62, "note_on_time": 4.792, "note_off_time": 5.03}, {"pitch": 62, "velocity": 70, "note_on_time": 5.013, "note_off_time": 5.315}, {"pitch": 65, "velocity": 87, "note_on_time": 5.265, "note_off_time": 5.505}, {"pitch": 67, "velocity": 82, "note_on_time": 5.685, "note_off_time": 5.815}, {"pitch": 67, "velocity": 77, "note_on_time": 5.922, "note_off_time": 6.024}, {"pitch": 67, "velocity": 81, "note_on_time": 6.145, "note_off_time": 6.254}, {"pitch": 62, "velocity": 82, "note_on_time": 6.366, "note_off_time": 6.457}, {"pitch": 62, "velocity": 78, "note_on_time": 6.595, "note_off_time": 6.8}, {"pitch": 65, "velocity": 87, "note_on_time": 6.82, "note_off_time": 6.99}, {"pitch": 65, "velocity": 89, "note_on_time": 7.266, "note_off_time": 7.36}, {"pitch": 65, "velocity": 82, "note_on_time": 7.5, "note_off_time": 7.583}, {"pitch": 65, "velocity": 90, "note_on_time": 7.732, "note_off_time": 7.87}]</notes><guidance name="Guidance Mode">None</guidance><error name="Error value">0.6198314999999999</error></trial></trials></MIDI>