<MIDI midiNo="2022_12_08-12_30_48"><target_notes><notes name="Note List">[{"pitch": 42, "velocity": 80, "note_on_time": 0.003, "note_off_time": 0.229}, {"pitch": 42, "velocity": 80, "note_on_time": 0.229, "note_off_time": 0.447}, {"pitch": 42, "velocity": 80, "note_on_time": 0.447, "note_off_time": 0.662}, {"pitch": 42, "velocity": 80, "note_on_time": 0.662, "note_off_time": 0.882}, {"pitch": 65, "velocity": 80, "note_on_time": 0.882, "note_off_time": 1.1}, {"pitch": 42, "velocity": 80, "note_on_time": 0.882, "note_off_time": 1.1}, {"pitch": 42, "velocity": 80, "note_on_time": 1.1, "note_off_time": 1.32}, {"pitch": 42, "velocity": 80, "note_on_time": 1.32, "note_off_time": 1.537}, {"pitch": 42, "velocity": 80, "note_on_time": 1.537, "note_off_time": 1.755}, {"pitch": 65, "velocity": 80, "note_on_time": 1.755, "note_off_time": 1.973}, {"pitch": 42, "velocity": 80, "note_on_time": 1.755, "note_off_time": 1.973}, {"pitch": 64, "velocity": 80, "note_on_time": 1.973, "note_off_time": 2.191}, {"pitch": 42, "velocity": 80, "note_on_time": 1.973, "note_off_time": 2.191}, {"pitch": 64, "velocity": 80, "note_on_time": 2.191, "note_off_time": 2.41}, {"pitch": 42, "velocity": 80, "note_on_time": 2.191, "note_off_time": 2.41}, {"pitch": 67, "velocity": 80, "note_on_time": 2.41, "note_off_time": 2.628}, {"pitch": 42, "velocity": 80, "note_on_time": 2.41, "note_off_time": 2.628}, {"pitch": 60, "velocity": 80, "note_on_time": 2.628, "note_off_time": 2.848}, {"pitch": 42, "velocity": 80, "note_on_time": 2.628, "note_off_time": 2.848}, {"pitch": 42, "velocity": 80, "note_on_time": 2.848, "note_off_time": 3.066}, {"pitch": 64, "velocity": 80, "note_on_time": 2.848, "note_off_time": 3.285}, {"pitch": 42, "velocity": 80, "note_on_time": 3.066, "note_off_time": 3.285}, {"pitch": 60, "velocity": 80, "note_on_time": 3.285, "note_off_time": 3.505}, {"pitch": 42, "velocity": 80, "note_on_time": 3.285, "note_off_time": 3.505}, {"pitch": 42, "velocity": 80, "note_on_time": 3.505, "note_off_time": 3.723}, {"pitch": 67, "velocity": 80, "note_on_time": 3.505, "note_off_time": 3.942}, {"pitch": 42, "velocity": 80, "note_on_time": 3.723, "note_off_time": 3.942}, {"pitch": 42, "velocity": 80, "note_on_time": 3.942, "note_off_time": 4.16}, {"pitch": 64, "velocity": 80, "note_on_time": 4.16, "note_off_time": 4.38}, {"pitch": 42, "velocity": 80, "note_on_time": 4.16, "note_off_time": 4.38}, {"pitch": 65, "velocity": 80, "note_on_time": 4.38, "note_off_time": 4.598}, {"pitch": 42, "velocity": 80, "note_on_time": 4.38, "note_off_time": 4.598}, {"pitch": 62, "velocity": 80, "note_on_time": 4.598, "note_off_time": 4.817}, {"pitch": 42, "velocity": 80, "note_on_time": 4.598, "note_off_time": 4.817}, {"pitch": 62, "velocity": 80, "note_on_time": 4.817, "note_off_time": 5.035}, {"pitch": 42, "velocity": 80, "note_on_time": 4.817, "note_off_time": 5.035}, {"pitch": 65, "velocity": 80, "note_on_time": 5.035, "note_off_time": 5.253}, {"pitch": 42, "velocity": 80, "note_on_time": 5.035, "note_off_time": 5.253}, {"pitch": 42, "velocity": 80, "note_on_time": 5.253, "note_off_time": 5.472}, {"pitch": 65, "velocity": 80, "note_on_time": 5.253, "note_off_time": 5.691}, {"pitch": 42, "velocity": 80, "note_on_time": 5.472, "note_off_time": 5.691}, {"pitch": 42, "velocity": 80, "note_on_time": 5.691, "note_off_time": 5.91}, {"pitch": 65, "velocity": 80, "note_on_time": 5.909, "note_off_time": 6.128}, {"pitch": 42, "velocity": 80, "note_on_time": 5.91, "note_off_time": 6.128}, {"pitch": 42, "velocity": 80, "note_on_time": 6.128, "note_off_time": 6.346}, {"pitch": 67, "velocity": 80, "note_on_time": 6.128, "note_off_time": 6.565}, {"pitch": 42, "velocity": 80, "note_on_time": 6.346, "note_off_time": 6.565}, {"pitch": 42, "velocity": 80, "note_on_time": 6.565, "note_off_time": 6.783}, {"pitch": 42, "velocity": 80, "note_on_time": 6.783, "note_off_time": 7.003}, {"pitch": 42, "velocity": 80, "note_on_time": 7.003, "note_off_time": 7.22}, {"pitch": 67, "velocity": 80, "note_on_time": 7.22, "note_off_time": 7.438}, {"pitch": 42, "velocity": 80, "note_on_time": 7.22, "note_off_time": 7.438}, {"pitch": 67, "velocity": 80, "note_on_time": 7.438, "note_off_time": 7.657}, {"pitch": 42, "velocity": 80, "note_on_time": 7.438, "note_off_time": 7.657}, {"pitch": 67, "velocity": 80, "note_on_time": 7.657, "note_off_time": 7.875}, {"pitch": 42, "velocity": 80, "note_on_time": 7.657, "note_off_time": 7.875}]</notes><options name="Option List">((4, 4), [0.5, 0.25], 3, 8, &lt;NoteRangePerHand.C_TO_G: 6&gt;, &lt;NoteRangePerHand.ONE_NOTE: 2&gt;, False, True, False, 281)</options></target_notes><trials><trial trial_no="1" timestamp="2022_12_08-12_30_39"><notes name="Played Notes">[{"pitch": 65, "velocity": 78, "note_on_time": 0.9, "note_off_time": 1.529}, {"pitch": 65, "velocity": 72, "note_on_time": 1.773, "note_off_time": 1.991}, {"pitch": 64, "velocity": 72, "note_on_time": 1.982, "note_off_time": 2.073}, {"pitch": 64, "velocity": 75, "note_on_time": 2.205, "note_off_time": 2.391}, {"pitch": 67, "velocity": 68, "note_on_time": 2.405, "note_off_time": 2.608}, {"pitch": 60, "velocity": 65, "note_on_time": 2.627, "note_off_time": 2.844}, {"pitch": 64, "velocity": 73, "note_on_time": 2.839, "note_off_time": 3.259}, {"pitch": 60, "velocity": 58, "note_on_time": 3.289, "note_off_time": 3.486}, {"pitch": 67, "velocity": 73, "note_on_time": 3.513, "note_off_time": 3.933}, {"pitch": 64, "velocity": 63, "note_on_time": 4.193, "note_off_time": 4.366}, {"pitch": 65, "velocity": 64, "note_on_time": 4.4, "note_off_time": 4.608}, {"pitch": 62, "velocity": 70, "note_on_time": 4.62, "note_off_time": 4.706}, {"pitch": 62, "velocity": 60, "note_on_time": 4.829, "note_off_time": 5.023}, {"pitch": 65, "velocity": 71, "note_on_time": 5.03, "note_off_time": 5.121}, {"pitch": 65, "velocity": 75, "note_on_time": 5.247, "note_off_time": 5.706}, {"pitch": 65, "velocity": 64, "note_on_time": 5.915, "note_off_time": 6.038}, {"pitch": 67, "velocity": 78, "note_on_time": 6.131, "note_off_time": 7.001}, {"pitch": 67, "velocity": 78, "note_on_time": 7.233, "note_off_time": 7.329}, {"pitch": 67, "velocity": 63, "note_on_time": 7.437, "note_off_time": 7.537}, {"pitch": 67, "velocity": 69, "note_on_time": 7.646, "note_off_time": 7.849}]</notes><guidance name="Guidance Mode">None</guidance><error name="Error value">0.014185588235294</error></trial></trials></MIDI>