<MIDI midiNo="2022_08_17-16_00_52"><target_notes><notes name="Note List">[{"pitch": 42, "velocity": 80, "note_on_time": 0.004, "note_off_time": 0.761}, {"pitch": 42, "velocity": 80, "note_on_time": 0.762, "note_off_time": 1.523}, {"pitch": 42, "velocity": 80, "note_on_time": 1.523, "note_off_time": 2.286}, {"pitch": 42, "velocity": 80, "note_on_time": 2.286, "note_off_time": 3.051}, {"pitch": 60, "velocity": 80, "note_on_time": 3.05, "note_off_time": 3.816}, {"pitch": 42, "velocity": 80, "note_on_time": 3.051, "note_off_time": 3.816}, {"pitch": 60, "velocity": 80, "note_on_time": 3.816, "note_off_time": 4.582}, {"pitch": 42, "velocity": 80, "note_on_time": 3.817, "note_off_time": 4.582}, {"pitch": 62, "velocity": 80, "note_on_time": 4.582, "note_off_time": 5.344}, {"pitch": 42, "velocity": 80, "note_on_time": 4.582, "note_off_time": 5.344}, {"pitch": 60, "velocity": 80, "note_on_time": 5.344, "note_off_time": 6.106}, {"pitch": 42, "velocity": 80, "note_on_time": 5.344, "note_off_time": 6.106}, {"pitch": 62, "velocity": 80, "note_on_time": 6.106, "note_off_time": 6.869}, {"pitch": 42, "velocity": 80, "note_on_time": 6.106, "note_off_time": 6.869}, {"pitch": 42, "velocity": 80, "note_on_time": 6.869, "note_off_time": 7.632}, {"pitch": 42, "velocity": 80, "note_on_time": 7.632, "note_off_time": 8.398}, {"pitch": 42, "velocity": 80, "note_on_time": 8.398, "note_off_time": 9.15}, {"pitch": 62, "velocity": 80, "note_on_time": 9.15, "note_off_time": 9.914}, {"pitch": 42, "velocity": 80, "note_on_time": 9.151, "note_off_time": 9.914}, {"pitch": 62, "velocity": 80, "note_on_time": 9.914, "note_off_time": 10.665}, {"pitch": 42, "velocity": 80, "note_on_time": 9.914, "note_off_time": 10.665}, {"pitch": 62, "velocity": 80, "note_on_time": 10.665, "note_off_time": 11.417}, {"pitch": 42, "velocity": 80, "note_on_time": 10.665, "note_off_time": 11.417}, {"pitch": 62, "velocity": 80, "note_on_time": 11.417, "note_off_time": 12.181}, {"pitch": 42, "velocity": 80, "note_on_time": 11.417, "note_off_time": 12.181}, {"pitch": 60, "velocity": 80, "note_on_time": 12.181, "note_off_time": 12.933}, {"pitch": 42, "velocity": 80, "note_on_time": 12.182, "note_off_time": 12.933}, {"pitch": 62, "velocity": 80, "note_on_time": 12.933, "note_off_time": 13.696}, {"pitch": 42, "velocity": 80, "note_on_time": 12.933, "note_off_time": 13.696}, {"pitch": 42, "velocity": 80, "note_on_time": 13.697, "note_off_time": 14.447}, {"pitch": 60, "velocity": 80, "note_on_time": 14.447, "note_off_time": 15.211}, {"pitch": 42, "velocity": 80, "note_on_time": 14.447, "note_off_time": 15.211}, {"pitch": 60, "velocity": 80, "note_on_time": 15.211, "note_off_time": 15.974}, {"pitch": 42, "velocity": 80, "note_on_time": 15.212, "note_off_time": 15.974}, {"pitch": 62, "velocity": 80, "note_on_time": 15.974, "note_off_time": 16.725}, {"pitch": 42, "velocity": 80, "note_on_time": 15.974, "note_off_time": 16.726}, {"pitch": 62, "velocity": 80, "note_on_time": 16.725, "note_off_time": 17.488}, {"pitch": 42, "velocity": 80, "note_on_time": 16.726, "note_off_time": 17.488}, {"pitch": 62, "velocity": 80, "note_on_time": 17.488, "note_off_time": 18.254}, {"pitch": 42, "velocity": 80, "note_on_time": 17.488, "note_off_time": 18.254}, {"pitch": 60, "velocity": 80, "note_on_time": 18.254, "note_off_time": 19.007}, {"pitch": 42, "velocity": 80, "note_on_time": 18.254, "note_off_time": 19.007}, {"pitch": 62, "velocity": 80, "note_on_time": 19.007, "note_off_time": 19.771}, {"pitch": 42, "velocity": 80, "note_on_time": 19.007, "note_off_time": 19.771}, {"pitch": 62, "velocity": 80, "note_on_time": 19.771, "note_off_time": 20.536}, {"pitch": 42, "velocity": 80, "note_on_time": 19.771, "note_off_time": 20.536}, {"pitch": 62, "velocity": 80, "note_on_time": 20.536, "note_off_time": 21.301}, {"pitch": 42, "velocity": 80, "note_on_time": 20.537, "note_off_time": 21.301}, {"pitch": 60, "velocity": 80, "note_on_time": 21.301, "note_off_time": 22.054}, {"pitch": 42, "velocity": 80, "note_on_time": 21.301, "note_off_time": 22.054}, {"pitch": 62, "velocity": 80, "note_on_time": 22.054, "note_off_time": 22.82}, {"pitch": 42, "velocity": 80, "note_on_time": 22.055, "note_off_time": 22.821}, {"pitch": 60, "velocity": 80, "note_on_time": 22.82, "note_off_time": 23.572}, {"pitch": 42, "velocity": 80, "note_on_time": 22.821, "note_off_time": 23.572}, {"pitch": 62, "velocity": 80, "note_on_time": 23.572, "note_off_time": 24.324}, {"pitch": 42, "velocity": 80, "note_on_time": 23.573, "note_off_time": 24.325}, {"pitch": 42, "velocity": 80, "note_on_time": 24.325, "note_off_time": 25.077}, {"pitch": 62, "velocity": 80, "note_on_time": 25.077, "note_off_time": 25.828}, {"pitch": 42, "velocity": 80, "note_on_time": 25.078, "note_off_time": 25.828}, {"pitch": 62, "velocity": 80, "note_on_time": 25.828, "note_off_time": 26.594}, {"pitch": 42, "velocity": 80, "note_on_time": 25.829, "note_off_time": 26.594}, {"pitch": 62, "velocity": 80, "note_on_time": 26.594, "note_off_time": 27.36}, {"pitch": 42, "velocity": 80, "note_on_time": 26.595, "note_off_time": 27.36}]</notes><options name="Option List">((4, 4), [0.25], 3, 8, &lt;NoteRangePerHand.TWO_NOTES: 3&gt;, &lt;NoteRangePerHand.ONE_NOTE: 2&gt;, False, True, True, '80')</options></target_notes><trials><trial trial_no="1" timestamp="2022_08_17-16_00_19"><notes name="Played Notes">[{"pitch": 60, "velocity": 84, "note_on_time": 3.053, "note_off_time": 3.615}, {"pitch": 60, "velocity": 81, "note_on_time": 3.771, "note_off_time": 4.489}, {"pitch": 62, "velocity": 84, "note_on_time": 4.512, "note_off_time": 5.239}, {"pitch": 60, "velocity": 82, "note_on_time": 5.257, "note_off_time": 6.024}, {"pitch": 62, "velocity": 82, "note_on_time": 6.018, "note_off_time": 6.572}, {"pitch": 62, "velocity": 64, "note_on_time": 9.133, "note_off_time": 9.617}, {"pitch": 62, "velocity": 79, "note_on_time": 9.879, "note_off_time": 10.381}, {"pitch": 62, "velocity": 76, "note_on_time": 10.683, "note_off_time": 11.134}, {"pitch": 62, "velocity": 68, "note_on_time": 11.427, "note_off_time": 11.813}, {"pitch": 60, "velocity": 74, "note_on_time": 12.17, "note_off_time": 12.518}, {"pitch": 62, "velocity": 79, "note_on_time": 12.906, "note_off_time": 13.202}, {"pitch": 62, "velocity": 72, "note_on_time": 14.465, "note_off_time": 14.942}, {"pitch": 60, "velocity": 79, "note_on_time": 15.219, "note_off_time": 15.583}, {"pitch": 62, "velocity": 72, "note_on_time": 15.955, "note_off_time": 16.331}, {"pitch": 62, "velocity": 81, "note_on_time": 16.661, "note_off_time": 17.092}, {"pitch": 62, "velocity": 70, "note_on_time": 17.444, "note_off_time": 17.81}, {"pitch": 60, "velocity": 77, "note_on_time": 18.178, "note_off_time": 18.592}, {"pitch": 62, "velocity": 76, "note_on_time": 18.983, "note_off_time": 19.38}, {"pitch": 62, "velocity": 69, "note_on_time": 19.76, "note_off_time": 20.127}, {"pitch": 62, "velocity": 65, "note_on_time": 20.512, "note_off_time": 20.895}, {"pitch": 60, "velocity": 77, "note_on_time": 21.232, "note_off_time": 21.669}, {"pitch": 62, "velocity": 79, "note_on_time": 22.061, "note_off_time": 22.422}, {"pitch": 60, "velocity": 78, "note_on_time": 22.801, "note_off_time": 23.144}, {"pitch": 62, "velocity": 82, "note_on_time": 23.534, "note_off_time": 23.881}, {"pitch": 62, "velocity": 81, "note_on_time": 25.054, "note_off_time": 25.513}, {"pitch": 62, "velocity": 85, "note_on_time": 25.789, "note_off_time": 26.176}, {"pitch": 62, "velocity": 82, "note_on_time": 26.532, "note_off_time": 26.944}]</notes><guidance name="Guidance Mode">None</guidance><error name="Error value">0.07037499999999966</error></trial></trials></MIDI>