<MIDI midiNo="2022_12_01-10_27_23"><target_notes><notes name="Note List">[{"pitch": 42, "velocity": 80, "note_on_time": 0.004, "note_off_time": 0.372}, {"pitch": 42, "velocity": 80, "note_on_time": 0.373, "note_off_time": 0.75}, {"pitch": 42, "velocity": 80, "note_on_time": 0.75, "note_off_time": 1.124}, {"pitch": 42, "velocity": 80, "note_on_time": 1.124, "note_off_time": 1.497}, {"pitch": 60, "velocity": 80, "note_on_time": 1.497, "note_off_time": 1.873}, {"pitch": 42, "velocity": 80, "note_on_time": 1.498, "note_off_time": 1.874}, {"pitch": 64, "velocity": 80, "note_on_time": 1.873, "note_off_time": 2.246}, {"pitch": 42, "velocity": 80, "note_on_time": 1.874, "note_off_time": 2.246}, {"pitch": 67, "velocity": 80, "note_on_time": 2.246, "note_off_time": 2.621}, {"pitch": 42, "velocity": 80, "note_on_time": 2.246, "note_off_time": 2.621}, {"pitch": 42, "velocity": 80, "note_on_time": 2.622, "note_off_time": 2.996}, {"pitch": 65, "velocity": 80, "note_on_time": 2.996, "note_off_time": 3.368}, {"pitch": 42, "velocity": 80, "note_on_time": 2.997, "note_off_time": 3.368}, {"pitch": 60, "velocity": 80, "note_on_time": 3.368, "note_off_time": 3.742}, {"pitch": 42, "velocity": 80, "note_on_time": 3.369, "note_off_time": 3.743}, {"pitch": 62, "velocity": 80, "note_on_time": 3.742, "note_off_time": 4.117}, {"pitch": 42, "velocity": 80, "note_on_time": 3.743, "note_off_time": 4.118}, {"pitch": 65, "velocity": 80, "note_on_time": 4.117, "note_off_time": 4.491}, {"pitch": 42, "velocity": 80, "note_on_time": 4.118, "note_off_time": 4.491}, {"pitch": 65, "velocity": 80, "note_on_time": 4.491, "note_off_time": 4.865}, {"pitch": 42, "velocity": 80, "note_on_time": 4.491, "note_off_time": 4.865}, {"pitch": 42, "velocity": 80, "note_on_time": 4.866, "note_off_time": 5.242}, {"pitch": 42, "velocity": 80, "note_on_time": 5.242, "note_off_time": 5.615}, {"pitch": 42, "velocity": 80, "note_on_time": 5.615, "note_off_time": 5.987}, {"pitch": 64, "velocity": 80, "note_on_time": 5.987, "note_off_time": 6.362}, {"pitch": 42, "velocity": 80, "note_on_time": 5.988, "note_off_time": 6.362}, {"pitch": 67, "velocity": 80, "note_on_time": 6.362, "note_off_time": 6.737}, {"pitch": 42, "velocity": 80, "note_on_time": 6.363, "note_off_time": 6.737}, {"pitch": 62, "velocity": 80, "note_on_time": 6.737, "note_off_time": 7.111}, {"pitch": 42, "velocity": 80, "note_on_time": 6.737, "note_off_time": 7.111}, {"pitch": 65, "velocity": 80, "note_on_time": 7.111, "note_off_time": 7.487}, {"pitch": 42, "velocity": 80, "note_on_time": 7.112, "note_off_time": 7.487}, {"pitch": 62, "velocity": 80, "note_on_time": 7.487, "note_off_time": 7.863}, {"pitch": 42, "velocity": 80, "note_on_time": 7.489, "note_off_time": 7.863}, {"pitch": 42, "velocity": 80, "note_on_time": 7.864, "note_off_time": 8.235}, {"pitch": 42, "velocity": 80, "note_on_time": 8.236, "note_off_time": 8.611}, {"pitch": 42, "velocity": 80, "note_on_time": 8.612, "note_off_time": 8.986}, {"pitch": 67, "velocity": 80, "note_on_time": 8.986, "note_off_time": 9.359}, {"pitch": 42, "velocity": 80, "note_on_time": 8.986, "note_off_time": 9.36}, {"pitch": 67, "velocity": 80, "note_on_time": 9.359, "note_off_time": 9.733}, {"pitch": 42, "velocity": 80, "note_on_time": 9.36, "note_off_time": 9.733}, {"pitch": 65, "velocity": 80, "note_on_time": 9.733, "note_off_time": 10.106}, {"pitch": 42, "velocity": 80, "note_on_time": 9.733, "note_off_time": 10.106}, {"pitch": 65, "velocity": 80, "note_on_time": 10.106, "note_off_time": 10.481}, {"pitch": 42, "velocity": 80, "note_on_time": 10.106, "note_off_time": 10.481}, {"pitch": 64, "velocity": 80, "note_on_time": 10.481, "note_off_time": 10.855}, {"pitch": 42, "velocity": 80, "note_on_time": 10.482, "note_off_time": 10.855}, {"pitch": 62, "velocity": 80, "note_on_time": 10.855, "note_off_time": 11.229}, {"pitch": 42, "velocity": 80, "note_on_time": 10.855, "note_off_time": 11.23}, {"pitch": 62, "velocity": 80, "note_on_time": 11.229, "note_off_time": 11.603}, {"pitch": 42, "velocity": 80, "note_on_time": 11.23, "note_off_time": 11.604}, {"pitch": 65, "velocity": 80, "note_on_time": 11.603, "note_off_time": 11.978}, {"pitch": 42, "velocity": 80, "note_on_time": 11.604, "note_off_time": 11.978}, {"pitch": 42, "velocity": 80, "note_on_time": 11.979, "note_off_time": 12.353}, {"pitch": 65, "velocity": 80, "note_on_time": 12.353, "note_off_time": 12.729}, {"pitch": 42, "velocity": 80, "note_on_time": 12.354, "note_off_time": 12.729}, {"pitch": 65, "velocity": 80, "note_on_time": 12.729, "note_off_time": 13.104}, {"pitch": 42, "velocity": 80, "note_on_time": 12.73, "note_off_time": 13.104}, {"pitch": 65, "velocity": 80, "note_on_time": 13.104, "note_off_time": 13.478}, {"pitch": 42, "velocity": 80, "note_on_time": 13.104, "note_off_time": 13.479}]</notes><options name="Option List">((4, 4), [0.5, 0.25], 3, 8, &lt;NoteRangePerHand.C_TO_G: 6&gt;, &lt;NoteRangePerHand.ONE_NOTE: 2&gt;, False, True, False, '166')</options></target_notes><trials><trial trial_no="1" timestamp="2022_12_01-10_27_08"><notes name="Played Notes">[{"pitch": 60, "velocity": 72, "note_on_time": 1.649, "note_off_time": 1.968}, {"pitch": 64, "velocity": 61, "note_on_time": 1.916, "note_off_time": 2.353}, {"pitch": 67, "velocity": 74, "note_on_time": 2.295, "note_off_time": 2.616}, {"pitch": 65, "velocity": 75, "note_on_time": 2.998, "note_off_time": 3.386}, {"pitch": 60, "velocity": 70, "note_on_time": 3.353, "note_off_time": 3.778}, {"pitch": 62, "velocity": 71, "note_on_time": 3.704, "note_off_time": 4.143}, {"pitch": 65, "velocity": 73, "note_on_time": 4.089, "note_off_time": 4.27}, {"pitch": 65, "velocity": 77, "note_on_time": 4.496, "note_off_time": 4.8}, {"pitch": 64, "velocity": 68, "note_on_time": 6.004, "note_off_time": 6.362}, {"pitch": 67, "velocity": 73, "note_on_time": 6.358, "note_off_time": 6.768}, {"pitch": 62, "velocity": 66, "note_on_time": 6.715, "note_off_time": 7.123}, {"pitch": 65, "velocity": 79, "note_on_time": 7.09, "note_off_time": 7.54}, {"pitch": 62, "velocity": 74, "note_on_time": 7.506, "note_off_time": 7.827}, {"pitch": 67, "velocity": 70, "note_on_time": 8.997, "note_off_time": 9.159}, {"pitch": 67, "velocity": 69, "note_on_time": 9.376, "note_off_time": 9.673}, {"pitch": 65, "velocity": 62, "note_on_time": 9.737, "note_off_time": 9.943}, {"pitch": 65, "velocity": 71, "note_on_time": 10.113, "note_off_time": 10.53}, {"pitch": 64, "velocity": 70, "note_on_time": 10.466, "note_off_time": 10.872}, {"pitch": 62, "velocity": 59, "note_on_time": 10.819, "note_off_time": 10.967}, {"pitch": 62, "velocity": 66, "note_on_time": 11.218, "note_off_time": 11.627}, {"pitch": 65, "velocity": 69, "note_on_time": 11.586, "note_off_time": 11.847}, {"pitch": 65, "velocity": 63, "note_on_time": 12.312, "note_off_time": 12.461}, {"pitch": 65, "velocity": 75, "note_on_time": 12.697, "note_off_time": 12.837}, {"pitch": 65, "velocity": 75, "note_on_time": 13.078, "note_off_time": 13.292}]</notes><guidance name="Guidance Mode">None</guidance><error name="Error value">0.02595738095238077</error></trial><trial trial_no="2" timestamp="2022_12_01-10_27_56"><notes name="Played Notes">[{"pitch": 60, "velocity": 60, "note_on_time": 1.485, "note_off_time": 1.926}, {"pitch": 64, "velocity": 68, "note_on_time": 1.851, "note_off_time": 2.303}, {"pitch": 67, "velocity": 72, "note_on_time": 2.216, "note_off_time": 2.513}, {"pitch": 65, "velocity": 66, "note_on_time": 2.982, "note_off_time": 3.35}, {"pitch": 60, "velocity": 65, "note_on_time": 3.314, "note_off_time": 3.806}, {"pitch": 62, "velocity": 67, "note_on_time": 3.722, "note_off_time": 4.135}, {"pitch": 65, "velocity": 67, "note_on_time": 4.086, "note_off_time": 4.29}, {"pitch": 65, "velocity": 65, "note_on_time": 4.483, "note_off_time": 4.823}, {"pitch": 64, "velocity": 70, "note_on_time": 6.006, "note_off_time": 6.383}, {"pitch": 67, "velocity": 70, "note_on_time": 6.359, "note_off_time": 6.795}, {"pitch": 62, "velocity": 70, "note_on_time": 6.741, "note_off_time": 7.165}, {"pitch": 65, "velocity": 68, "note_on_time": 7.12, "note_off_time": 7.58}, {"pitch": 62, "velocity": 66, "note_on_time": 7.505, "note_off_time": 7.836}, {"pitch": 67, "velocity": 67, "note_on_time": 8.995, "note_off_time": 9.166}, {"pitch": 67, "velocity": 67, "note_on_time": 9.376, "note_off_time": 9.618}, {"pitch": 65, "velocity": 68, "note_on_time": 9.715, "note_off_time": 9.954}, {"pitch": 65, "velocity": 54, "note_on_time": 10.085, "note_off_time": 10.536}, {"pitch": 64, "velocity": 67, "note_on_time": 10.48, "note_off_time": 10.894}, {"pitch": 62, "velocity": 60, "note_on_time": 10.855, "note_off_time": 10.993}, {"pitch": 62, "velocity": 63, "note_on_time": 11.23, "note_off_time": 11.644}, {"pitch": 65, "velocity": 62, "note_on_time": 11.592, "note_off_time": 12.001}, {"pitch": 65, "velocity": 73, "note_on_time": 12.338, "note_off_time": 12.493}, {"pitch": 65, "velocity": 68, "note_on_time": 12.672, "note_off_time": 12.817}, {"pitch": 65, "velocity": 73, "note_on_time": 13.059, "note_off_time": 13.229}]</notes><guidance name="Guidance Mode">None</guidance><error name="Error value">0.025941190476190472</error></trial><trial trial_no="3" timestamp="2022_12_01-10_28_20"><notes name="Played Notes">[{"pitch": 60, "velocity": 55, "note_on_time": 1.515, "note_off_time": 1.969}, {"pitch": 64, "velocity": 64, "note_on_time": 1.898, "note_off_time": 2.315}, {"pitch": 67, "velocity": 69, "note_on_time": 2.243, "note_off_time": 2.502}, {"pitch": 65, "velocity": 61, "note_on_time": 3.018, "note_off_time": 3.42}, {"pitch": 60, "velocity": 60, "note_on_time": 3.394, "note_off_time": 3.81}, {"pitch": 62, "velocity": 60, "note_on_time": 3.743, "note_off_time": 4.146}, {"pitch": 65, "velocity": 62, "note_on_time": 4.083, "note_off_time": 4.269}, {"pitch": 65, "velocity": 67, "note_on_time": 4.517, "note_off_time": 4.79}, {"pitch": 64, "velocity": 54, "note_on_time": 6.017, "note_off_time": 6.403}, {"pitch": 67, "velocity": 67, "note_on_time": 6.372, "note_off_time": 6.793}, {"pitch": 62, "velocity": 52, "note_on_time": 6.751, "note_off_time": 7.162}, {"pitch": 65, "velocity": 58, "note_on_time": 7.126, "note_off_time": 7.567}, {"pitch": 62, "velocity": 60, "note_on_time": 7.511, "note_off_time": 7.84}, {"pitch": 67, "velocity": 64, "note_on_time": 9.009, "note_off_time": 9.199}, {"pitch": 67, "velocity": 59, "note_on_time": 9.389, "note_off_time": 9.586}, {"pitch": 65, "velocity": 61, "note_on_time": 9.74, "note_off_time": 9.914}, {"pitch": 65, "velocity": 61, "note_on_time": 10.11, "note_off_time": 10.374}, {"pitch": 64, "velocity": 60, "note_on_time": 10.486, "note_off_time": 10.86}, {"pitch": 62, "velocity": 55, "note_on_time": 10.826, "note_off_time": 10.996}, {"pitch": 62, "velocity": 66, "note_on_time": 11.212, "note_off_time": 11.608}, {"pitch": 65, "velocity": 59, "note_on_time": 11.557, "note_off_time": 12.029}, {"pitch": 65, "velocity": 61, "note_on_time": 12.336, "note_off_time": 12.51}, {"pitch": 65, "velocity": 66, "note_on_time": 12.732, "note_off_time": 12.882}, {"pitch": 65, "velocity": 67, "note_on_time": 13.099, "note_off_time": 13.286}]</notes><guidance name="Guidance Mode">None</guidance><error name="Error value">0.028068333333333372</error></trial></trials></MIDI>