<MIDI midiNo="2022_11_21-19_28_13"><target_notes><notes name="Note List">[{"pitch": 42, "velocity": 80, "note_on_time": 0.004, "note_off_time": 0.412}, {"pitch": 42, "velocity": 80, "note_on_time": 0.412, "note_off_time": 0.817}, {"pitch": 42, "velocity": 80, "note_on_time": 0.817, "note_off_time": 1.221}, {"pitch": 42, "velocity": 80, "note_on_time": 1.221, "note_off_time": 1.625}, {"pitch": 42, "velocity": 80, "note_on_time": 1.625, "note_off_time": 2.032}, {"pitch": 62, "velocity": 80, "note_on_time": 1.625, "note_off_time": 2.436}, {"pitch": 42, "velocity": 80, "note_on_time": 2.032, "note_off_time": 2.436}, {"pitch": 42, "velocity": 80, "note_on_time": 2.437, "note_off_time": 2.842}, {"pitch": 42, "velocity": 80, "note_on_time": 2.842, "note_off_time": 3.246}, {"pitch": 62, "velocity": 80, "note_on_time": 3.246, "note_off_time": 3.652}, {"pitch": 42, "velocity": 80, "note_on_time": 3.246, "note_off_time": 3.652}, {"pitch": 42, "velocity": 80, "note_on_time": 3.652, "note_off_time": 4.06}, {"pitch": 42, "velocity": 80, "note_on_time": 4.06, "note_off_time": 4.465}, {"pitch": 42, "velocity": 80, "note_on_time": 4.465, "note_off_time": 4.873}, {"pitch": 60, "velocity": 80, "note_on_time": 4.873, "note_off_time": 5.278}, {"pitch": 42, "velocity": 80, "note_on_time": 4.874, "note_off_time": 5.279}, {"pitch": 60, "velocity": 80, "note_on_time": 5.278, "note_off_time": 5.681}, {"pitch": 42, "velocity": 80, "note_on_time": 5.279, "note_off_time": 5.681}, {"pitch": 60, "velocity": 80, "note_on_time": 5.681, "note_off_time": 6.089}, {"pitch": 42, "velocity": 80, "note_on_time": 5.682, "note_off_time": 6.089}, {"pitch": 62, "velocity": 80, "note_on_time": 6.089, "note_off_time": 6.494}, {"pitch": 42, "velocity": 80, "note_on_time": 6.089, "note_off_time": 6.495}, {"pitch": 64, "velocity": 80, "note_on_time": 6.494, "note_off_time": 6.899}, {"pitch": 42, "velocity": 80, "note_on_time": 6.495, "note_off_time": 6.899}, {"pitch": 60, "velocity": 80, "note_on_time": 6.899, "note_off_time": 7.303}, {"pitch": 42, "velocity": 80, "note_on_time": 6.899, "note_off_time": 7.304}, {"pitch": 64, "velocity": 80, "note_on_time": 7.303, "note_off_time": 7.708}, {"pitch": 42, "velocity": 80, "note_on_time": 7.304, "note_off_time": 7.708}, {"pitch": 62, "velocity": 80, "note_on_time": 7.708, "note_off_time": 8.113}, {"pitch": 42, "velocity": 80, "note_on_time": 7.709, "note_off_time": 8.113}, {"pitch": 42, "velocity": 80, "note_on_time": 8.113, "note_off_time": 8.518}, {"pitch": 60, "velocity": 80, "note_on_time": 8.113, "note_off_time": 8.922}, {"pitch": 42, "velocity": 80, "note_on_time": 8.518, "note_off_time": 8.922}, {"pitch": 42, "velocity": 80, "note_on_time": 8.923, "note_off_time": 9.328}, {"pitch": 42, "velocity": 80, "note_on_time": 9.328, "note_off_time": 9.734}, {"pitch": 64, "velocity": 80, "note_on_time": 9.734, "note_off_time": 10.142}, {"pitch": 42, "velocity": 80, "note_on_time": 9.735, "note_off_time": 10.142}, {"pitch": 62, "velocity": 80, "note_on_time": 10.142, "note_off_time": 10.546}, {"pitch": 42, "velocity": 80, "note_on_time": 10.142, "note_off_time": 10.546}, {"pitch": 64, "velocity": 80, "note_on_time": 10.546, "note_off_time": 10.953}, {"pitch": 42, "velocity": 80, "note_on_time": 10.546, "note_off_time": 10.953}, {"pitch": 60, "velocity": 80, "note_on_time": 10.953, "note_off_time": 11.356}, {"pitch": 42, "velocity": 80, "note_on_time": 10.953, "note_off_time": 11.357}, {"pitch": 64, "velocity": 80, "note_on_time": 11.356, "note_off_time": 11.764}, {"pitch": 42, "velocity": 80, "note_on_time": 11.357, "note_off_time": 11.764}, {"pitch": 62, "velocity": 80, "note_on_time": 11.764, "note_off_time": 12.171}, {"pitch": 42, "velocity": 80, "note_on_time": 11.764, "note_off_time": 12.171}, {"pitch": 60, "velocity": 80, "note_on_time": 12.171, "note_off_time": 12.574}, {"pitch": 42, "velocity": 80, "note_on_time": 12.171, "note_off_time": 12.574}, {"pitch": 60, "velocity": 80, "note_on_time": 12.574, "note_off_time": 12.978}, {"pitch": 42, "velocity": 80, "note_on_time": 12.574, "note_off_time": 12.979}, {"pitch": 42, "velocity": 80, "note_on_time": 12.979, "note_off_time": 13.384}, {"pitch": 60, "velocity": 80, "note_on_time": 13.384, "note_off_time": 13.788}, {"pitch": 42, "velocity": 80, "note_on_time": 13.384, "note_off_time": 13.788}, {"pitch": 60, "velocity": 80, "note_on_time": 13.788, "note_off_time": 14.196}, {"pitch": 42, "velocity": 80, "note_on_time": 13.788, "note_off_time": 14.196}, {"pitch": 60, "velocity": 80, "note_on_time": 14.196, "note_off_time": 14.602}, {"pitch": 42, "velocity": 80, "note_on_time": 14.196, "note_off_time": 14.602}]</notes><options name="Option List">((4, 4), [0.5, 0.25], 3, 8, &lt;NoteRangePerHand.THREE_NOTES: 4&gt;, &lt;NoteRangePerHand.ONE_NOTE: 2&gt;, False, True, False, 150)</options></target_notes><trials><trial trial_no="1" timestamp="2022_11_21-19_27_57"><notes name="Played Notes">[{"pitch": 62, "velocity": 77, "note_on_time": 1.634, "note_off_time": 2.422}, {"pitch": 62, "velocity": 78, "note_on_time": 2.945, "note_off_time": 3.884}, {"pitch": 60, "velocity": 84, "note_on_time": 4.524, "note_off_time": 4.724}, {"pitch": 60, "velocity": 81, "note_on_time": 4.928, "note_off_time": 5.105}, {"pitch": 60, "velocity": 79, "note_on_time": 5.358, "note_off_time": 5.792}, {"pitch": 62, "velocity": 69, "note_on_time": 5.77, "note_off_time": 6.163}, {"pitch": 64, "velocity": 75, "note_on_time": 6.147, "note_off_time": 6.526}, {"pitch": 60, "velocity": 81, "note_on_time": 6.536, "note_off_time": 6.93}, {"pitch": 64, "velocity": 71, "note_on_time": 6.926, "note_off_time": 7.324}, {"pitch": 62, "velocity": 66, "note_on_time": 7.299, "note_off_time": 7.589}, {"pitch": 60, "velocity": 89, "note_on_time": 7.697, "note_off_time": 8.401}, {"pitch": 64, "velocity": 72, "note_on_time": 9.393, "note_off_time": 9.793}, {"pitch": 62, "velocity": 62, "note_on_time": 9.749, "note_off_time": 10.132}, {"pitch": 64, "velocity": 75, "note_on_time": 10.132, "note_off_time": 10.533}, {"pitch": 60, "velocity": 82, "note_on_time": 10.501, "note_off_time": 10.724}, {"pitch": 64, "velocity": 72, "note_on_time": 10.883, "note_off_time": 11.36}, {"pitch": 62, "velocity": 63, "note_on_time": 11.284, "note_off_time": 11.717}, {"pitch": 60, "velocity": 79, "note_on_time": 11.669, "note_off_time": 11.849}, {"pitch": 60, "velocity": 84, "note_on_time": 12.075, "note_off_time": 12.264}, {"pitch": 60, "velocity": 82, "note_on_time": 13.023, "note_off_time": 13.215}, {"pitch": 60, "velocity": 78, "note_on_time": 13.411, "note_off_time": 13.56}, {"pitch": 60, "velocity": 89, "note_on_time": 13.805, "note_off_time": 14.154}]</notes><guidance name="Guidance Mode">None</guidance><error name="Error value">0.04331578947368429</error></trial></trials></MIDI>