<MIDI midiNo="2022_10_27-10_51_14"><target_notes><notes name="Note List">[{"pitch": 42, "velocity": 80, "note_on_time": 0.004, "note_off_time": 0.532}, {"pitch": 42, "velocity": 80, "note_on_time": 0.532, "note_off_time": 1.061}, {"pitch": 42, "velocity": 80, "note_on_time": 1.061, "note_off_time": 1.587}, {"pitch": 42, "velocity": 80, "note_on_time": 1.587, "note_off_time": 2.114}, {"pitch": 60, "velocity": 80, "note_on_time": 2.114, "note_off_time": 2.642}, {"pitch": 42, "velocity": 80, "note_on_time": 2.115, "note_off_time": 2.642}, {"pitch": 42, "velocity": 80, "note_on_time": 2.642, "note_off_time": 3.172}, {"pitch": 42, "velocity": 80, "note_on_time": 3.173, "note_off_time": 3.7}, {"pitch": 42, "velocity": 80, "note_on_time": 3.7, "note_off_time": 4.229}, {"pitch": 60, "velocity": 80, "note_on_time": 4.229, "note_off_time": 4.756}, {"pitch": 42, "velocity": 80, "note_on_time": 4.229, "note_off_time": 4.756}, {"pitch": 42, "velocity": 80, "note_on_time": 4.757, "note_off_time": 5.284}, {"pitch": 42, "velocity": 80, "note_on_time": 5.285, "note_off_time": 5.814}, {"pitch": 62, "velocity": 80, "note_on_time": 5.814, "note_off_time": 6.34}, {"pitch": 42, "velocity": 80, "note_on_time": 5.814, "note_off_time": 6.341}, {"pitch": 60, "velocity": 80, "note_on_time": 6.34, "note_off_time": 6.871}, {"pitch": 42, "velocity": 80, "note_on_time": 6.341, "note_off_time": 6.872}, {"pitch": 62, "velocity": 80, "note_on_time": 6.871, "note_off_time": 7.4}, {"pitch": 42, "velocity": 80, "note_on_time": 6.872, "note_off_time": 7.4}, {"pitch": 62, "velocity": 80, "note_on_time": 7.4, "note_off_time": 7.927}, {"pitch": 42, "velocity": 80, "note_on_time": 7.401, "note_off_time": 7.927}, {"pitch": 60, "velocity": 80, "note_on_time": 7.927, "note_off_time": 8.456}, {"pitch": 42, "velocity": 80, "note_on_time": 7.928, "note_off_time": 8.456}, {"pitch": 62, "velocity": 80, "note_on_time": 8.456, "note_off_time": 8.985}, {"pitch": 42, "velocity": 80, "note_on_time": 8.456, "note_off_time": 8.985}, {"pitch": 62, "velocity": 80, "note_on_time": 8.985, "note_off_time": 9.515}, {"pitch": 42, "velocity": 80, "note_on_time": 8.985, "note_off_time": 9.516}, {"pitch": 60, "velocity": 80, "note_on_time": 9.515, "note_off_time": 10.041}, {"pitch": 42, "velocity": 80, "note_on_time": 9.516, "note_off_time": 10.041}, {"pitch": 62, "velocity": 80, "note_on_time": 10.041, "note_off_time": 10.57}, {"pitch": 42, "velocity": 80, "note_on_time": 10.042, "note_off_time": 10.57}, {"pitch": 62, "velocity": 80, "note_on_time": 10.57, "note_off_time": 11.09}, {"pitch": 42, "velocity": 80, "note_on_time": 10.57, "note_off_time": 11.09}, {"pitch": 62, "velocity": 80, "note_on_time": 11.09, "note_off_time": 11.619}, {"pitch": 42, "velocity": 80, "note_on_time": 11.091, "note_off_time": 11.619}, {"pitch": 62, "velocity": 80, "note_on_time": 11.619, "note_off_time": 12.146}, {"pitch": 42, "velocity": 80, "note_on_time": 11.619, "note_off_time": 12.147}, {"pitch": 62, "velocity": 80, "note_on_time": 12.146, "note_off_time": 12.676}, {"pitch": 42, "velocity": 80, "note_on_time": 12.147, "note_off_time": 12.677}, {"pitch": 62, "velocity": 80, "note_on_time": 12.676, "note_off_time": 13.203}, {"pitch": 42, "velocity": 80, "note_on_time": 12.677, "note_off_time": 13.203}, {"pitch": 42, "velocity": 80, "note_on_time": 13.203, "note_off_time": 13.729}, {"pitch": 42, "velocity": 80, "note_on_time": 13.729, "note_off_time": 14.258}, {"pitch": 42, "velocity": 80, "note_on_time": 14.259, "note_off_time": 14.787}, {"pitch": 62, "velocity": 80, "note_on_time": 14.787, "note_off_time": 15.315}, {"pitch": 42, "velocity": 80, "note_on_time": 14.787, "note_off_time": 15.315}, {"pitch": 42, "velocity": 80, "note_on_time": 15.316, "note_off_time": 15.845}, {"pitch": 62, "velocity": 80, "note_on_time": 15.845, "note_off_time": 16.373}, {"pitch": 42, "velocity": 80, "note_on_time": 15.845, "note_off_time": 16.373}, {"pitch": 42, "velocity": 80, "note_on_time": 16.374, "note_off_time": 16.902}, {"pitch": 42, "velocity": 80, "note_on_time": 16.902, "note_off_time": 17.431}, {"pitch": 62, "velocity": 80, "note_on_time": 17.431, "note_off_time": 17.962}, {"pitch": 42, "velocity": 80, "note_on_time": 17.431, "note_off_time": 17.963}, {"pitch": 62, "velocity": 80, "note_on_time": 17.962, "note_off_time": 18.49}, {"pitch": 42, "velocity": 80, "note_on_time": 17.963, "note_off_time": 18.49}, {"pitch": 62, "velocity": 80, "note_on_time": 18.49, "note_off_time": 19.019}, {"pitch": 42, "velocity": 80, "note_on_time": 18.49, "note_off_time": 19.019}]</notes><options name="Option List">((4, 4), [0.25], 3, 8, &lt;NoteRangePerHand.TWO_NOTES: 3&gt;, &lt;NoteRangePerHand.ONE_NOTE: 2&gt;, False, True, False, 116)</options></target_notes><trials><trial trial_no="1" timestamp="2022_10_27-10_50_54"><notes name="Played Notes">[{"pitch": 60, "velocity": 55, "note_on_time": 2.057, "note_off_time": 2.259}, {"pitch": 60, "velocity": 67, "note_on_time": 4.235, "note_off_time": 4.418}, {"pitch": 62, "velocity": 44, "note_on_time": 6.207, "note_off_time": 6.422}, {"pitch": 60, "velocity": 54, "note_on_time": 6.772, "note_off_time": 6.913}, {"pitch": 62, "velocity": 53, "note_on_time": 7.29, "note_off_time": 7.466}, {"pitch": 62, "velocity": 53, "note_on_time": 7.8, "note_off_time": 8.002}, {"pitch": 60, "velocity": 54, "note_on_time": 8.356, "note_off_time": 8.509}, {"pitch": 62, "velocity": 55, "note_on_time": 8.946, "note_off_time": 9.098}, {"pitch": 62, "velocity": 61, "note_on_time": 9.527, "note_off_time": 9.683}, {"pitch": 60, "velocity": 49, "note_on_time": 10.097, "note_off_time": 10.256}, {"pitch": 62, "velocity": 59, "note_on_time": 10.651, "note_off_time": 10.823}, {"pitch": 62, "velocity": 47, "note_on_time": 11.135, "note_off_time": 11.3}, {"pitch": 62, "velocity": 56, "note_on_time": 11.671, "note_off_time": 11.827}, {"pitch": 62, "velocity": 57, "note_on_time": 12.222, "note_off_time": 12.377}, {"pitch": 62, "velocity": 52, "note_on_time": 12.748, "note_off_time": 12.935}, {"pitch": 62, "velocity": 63, "note_on_time": 13.313, "note_off_time": 13.462}, {"pitch": 62, "velocity": 59, "note_on_time": 15.793, "note_off_time": 15.984}, {"pitch": 62, "velocity": 69, "note_on_time": 16.979, "note_off_time": 17.176}, {"pitch": 62, "velocity": 64, "note_on_time": 18.239, "note_off_time": 18.41}, {"pitch": 62, "velocity": 58, "note_on_time": 18.806, "note_off_time": 18.956}]</notes><guidance name="Guidance Mode">None</guidance><error name="Error value">0.18963449999999984</error></trial></trials></MIDI>