<MIDI midiNo="2022_12_22-13_31_04"><target_notes><notes name="Note List">[{"pitch": 42, "velocity": 80, "note_on_time": 0.004, "note_off_time": 0.299}, {"pitch": 42, "velocity": 80, "note_on_time": 0.299, "note_off_time": 0.594}, {"pitch": 42, "velocity": 80, "note_on_time": 0.594, "note_off_time": 0.889}, {"pitch": 42, "velocity": 80, "note_on_time": 0.89, "note_off_time": 1.185}, {"pitch": 42, "velocity": 80, "note_on_time": 1.185, "note_off_time": 1.466}, {"pitch": 62, "velocity": 80, "note_on_time": 1.185, "note_off_time": 1.76}, {"pitch": 42, "velocity": 80, "note_on_time": 1.467, "note_off_time": 1.76}, {"pitch": 42, "velocity": 80, "note_on_time": 1.76, "note_off_time": 2.057}, {"pitch": 42, "velocity": 80, "note_on_time": 2.057, "note_off_time": 2.339}, {"pitch": 64, "velocity": 80, "note_on_time": 2.339, "note_off_time": 2.635}, {"pitch": 42, "velocity": 80, "note_on_time": 2.339, "note_off_time": 2.635}, {"pitch": 62, "velocity": 80, "note_on_time": 2.635, "note_off_time": 2.928}, {"pitch": 42, "velocity": 80, "note_on_time": 2.635, "note_off_time": 2.928}, {"pitch": 62, "velocity": 80, "note_on_time": 2.928, "note_off_time": 3.224}, {"pitch": 42, "velocity": 80, "note_on_time": 2.929, "note_off_time": 3.224}, {"pitch": 62, "velocity": 80, "note_on_time": 3.224, "note_off_time": 3.505}, {"pitch": 42, "velocity": 80, "note_on_time": 3.224, "note_off_time": 3.505}, {"pitch": 64, "velocity": 80, "note_on_time": 3.505, "note_off_time": 3.8}, {"pitch": 42, "velocity": 80, "note_on_time": 3.505, "note_off_time": 3.8}, {"pitch": 60, "velocity": 80, "note_on_time": 3.8, "note_off_time": 4.093}, {"pitch": 42, "velocity": 80, "note_on_time": 3.801, "note_off_time": 4.093}, {"pitch": 60, "velocity": 80, "note_on_time": 4.093, "note_off_time": 4.389}, {"pitch": 42, "velocity": 80, "note_on_time": 4.093, "note_off_time": 4.389}, {"pitch": 64, "velocity": 80, "note_on_time": 4.389, "note_off_time": 4.685}, {"pitch": 42, "velocity": 80, "note_on_time": 4.389, "note_off_time": 4.685}, {"pitch": 60, "velocity": 80, "note_on_time": 4.685, "note_off_time": 4.981}, {"pitch": 42, "velocity": 80, "note_on_time": 4.685, "note_off_time": 4.981}, {"pitch": 42, "velocity": 80, "note_on_time": 4.981, "note_off_time": 5.275}, {"pitch": 64, "velocity": 80, "note_on_time": 4.981, "note_off_time": 5.556}, {"pitch": 42, "velocity": 80, "note_on_time": 5.275, "note_off_time": 5.556}, {"pitch": 60, "velocity": 80, "note_on_time": 5.556, "note_off_time": 5.85}, {"pitch": 42, "velocity": 80, "note_on_time": 5.556, "note_off_time": 5.851}, {"pitch": 60, "velocity": 80, "note_on_time": 5.85, "note_off_time": 6.145}, {"pitch": 42, "velocity": 80, "note_on_time": 5.851, "note_off_time": 6.148}, {"pitch": 62, "velocity": 80, "note_on_time": 6.145, "note_off_time": 6.44}, {"pitch": 42, "velocity": 80, "note_on_time": 6.149, "note_off_time": 6.441}, {"pitch": 42, "velocity": 80, "note_on_time": 6.441, "note_off_time": 6.736}, {"pitch": 62, "velocity": 80, "note_on_time": 6.44, "note_off_time": 7.03}, {"pitch": 42, "velocity": 80, "note_on_time": 6.736, "note_off_time": 7.03}, {"pitch": 42, "velocity": 80, "note_on_time": 7.031, "note_off_time": 7.311}, {"pitch": 64, "velocity": 80, "note_on_time": 7.03, "note_off_time": 7.592}, {"pitch": 42, "velocity": 80, "note_on_time": 7.312, "note_off_time": 7.592}, {"pitch": 42, "velocity": 80, "note_on_time": 7.592, "note_off_time": 7.873}, {"pitch": 42, "velocity": 80, "note_on_time": 7.873, "note_off_time": 8.154}, {"pitch": 62, "velocity": 80, "note_on_time": 8.154, "note_off_time": 8.45}, {"pitch": 42, "velocity": 80, "note_on_time": 8.155, "note_off_time": 8.45}, {"pitch": 62, "velocity": 80, "note_on_time": 8.45, "note_off_time": 8.732}, {"pitch": 42, "velocity": 80, "note_on_time": 8.451, "note_off_time": 8.732}, {"pitch": 60, "velocity": 80, "note_on_time": 8.732, "note_off_time": 9.026}, {"pitch": 42, "velocity": 80, "note_on_time": 8.732, "note_off_time": 9.026}, {"pitch": 64, "velocity": 80, "note_on_time": 9.026, "note_off_time": 9.32}, {"pitch": 42, "velocity": 80, "note_on_time": 9.026, "note_off_time": 9.32}, {"pitch": 42, "velocity": 80, "note_on_time": 9.321, "note_off_time": 9.615}, {"pitch": 64, "velocity": 80, "note_on_time": 9.615, "note_off_time": 9.908}, {"pitch": 42, "velocity": 80, "note_on_time": 9.615, "note_off_time": 9.909}, {"pitch": 64, "velocity": 80, "note_on_time": 9.908, "note_off_time": 10.19}, {"pitch": 42, "velocity": 80, "note_on_time": 9.909, "note_off_time": 10.19}, {"pitch": 64, "velocity": 80, "note_on_time": 10.19, "note_off_time": 10.471}, {"pitch": 42, "velocity": 80, "note_on_time": 10.19, "note_off_time": 10.471}]</notes><options name="Option List">((4, 4), [0.5, 0.25], 3, 8, &lt;NoteRangePerHand.THREE_NOTES: 4&gt;, &lt;NoteRangePerHand.ONE_NOTE: 2&gt;, False, True, False, 215)</options></target_notes><trials><trial trial_no="1" timestamp="2022_12_22-13_30_52"><notes name="Played Notes">[{"pitch": 62, "velocity": 89, "note_on_time": 1.232, "note_off_time": 2.007}, {"pitch": 64, "velocity": 88, "note_on_time": 2.252, "note_off_time": 2.447}, {"pitch": 62, "velocity": 97, "note_on_time": 2.582, "note_off_time": 2.723}, {"pitch": 62, "velocity": 94, "note_on_time": 2.882, "note_off_time": 3.023}, {"pitch": 62, "velocity": 96, "note_on_time": 3.179, "note_off_time": 3.334}, {"pitch": 64, "velocity": 95, "note_on_time": 3.484, "note_off_time": 3.67}, {"pitch": 60, "velocity": 92, "note_on_time": 3.778, "note_off_time": 3.905}, {"pitch": 60, "velocity": 102, "note_on_time": 4.083, "note_off_time": 4.233}, {"pitch": 64, "velocity": 95, "note_on_time": 4.393, "note_off_time": 4.574}, {"pitch": 60, "velocity": 98, "note_on_time": 4.715, "note_off_time": 4.86}, {"pitch": 64, "velocity": 100, "note_on_time": 5.028, "note_off_time": 5.522}, {"pitch": 60, "velocity": 102, "note_on_time": 5.69, "note_off_time": 5.82}, {"pitch": 60, "velocity": 93, "note_on_time": 5.977, "note_off_time": 6.145}, {"pitch": 62, "velocity": 90, "note_on_time": 6.308, "note_off_time": 6.453}, {"pitch": 62, "velocity": 98, "note_on_time": 6.599, "note_off_time": 7.086}, {"pitch": 64, "velocity": 103, "note_on_time": 7.245, "note_off_time": 7.885}, {"pitch": 62, "velocity": 96, "note_on_time": 8.227, "note_off_time": 8.354}, {"pitch": 62, "velocity": 98, "note_on_time": 8.504, "note_off_time": 8.669}, {"pitch": 60, "velocity": 98, "note_on_time": 8.796, "note_off_time": 8.93}, {"pitch": 64, "velocity": 94, "note_on_time": 9.079, "note_off_time": 9.302}, {"pitch": 64, "velocity": 91, "note_on_time": 9.955, "note_off_time": 10.067}, {"pitch": 64, "velocity": 102, "note_on_time": 10.209, "note_off_time": 10.326}]</notes><guidance name="Guidance Mode">None</guidance><error name="Error value">0.10407585000000026</error></trial></trials></MIDI>