<MIDI midiNo="2022_11_21-17_57_34"><target_notes><notes name="Note List">[{"pitch": 42, "velocity": 80, "note_on_time": 0.004, "note_off_time": 0.347}, {"pitch": 42, "velocity": 80, "note_on_time": 0.347, "note_off_time": 0.69}, {"pitch": 42, "velocity": 80, "note_on_time": 0.69, "note_off_time": 1.034}, {"pitch": 42, "velocity": 80, "note_on_time": 1.034, "note_off_time": 1.375}, {"pitch": 67, "velocity": 80, "note_on_time": 1.375, "note_off_time": 1.718}, {"pitch": 42, "velocity": 80, "note_on_time": 1.375, "note_off_time": 1.718}, {"pitch": 65, "velocity": 80, "note_on_time": 1.718, "note_off_time": 2.063}, {"pitch": 42, "velocity": 80, "note_on_time": 1.718, "note_off_time": 2.063}, {"pitch": 67, "velocity": 80, "note_on_time": 2.063, "note_off_time": 2.406}, {"pitch": 42, "velocity": 80, "note_on_time": 2.063, "note_off_time": 2.406}, {"pitch": 62, "velocity": 80, "note_on_time": 2.406, "note_off_time": 2.749}, {"pitch": 42, "velocity": 80, "note_on_time": 2.406, "note_off_time": 2.749}, {"pitch": 60, "velocity": 80, "note_on_time": 2.749, "note_off_time": 3.088}, {"pitch": 42, "velocity": 80, "note_on_time": 2.749, "note_off_time": 3.088}, {"pitch": 62, "velocity": 80, "note_on_time": 3.088, "note_off_time": 3.43}, {"pitch": 42, "velocity": 80, "note_on_time": 3.088, "note_off_time": 3.43}, {"pitch": 64, "velocity": 80, "note_on_time": 3.43, "note_off_time": 3.771}, {"pitch": 42, "velocity": 80, "note_on_time": 3.431, "note_off_time": 3.772}, {"pitch": 67, "velocity": 80, "note_on_time": 3.771, "note_off_time": 4.115}, {"pitch": 42, "velocity": 80, "note_on_time": 3.772, "note_off_time": 4.116}, {"pitch": 67, "velocity": 80, "note_on_time": 4.115, "note_off_time": 4.459}, {"pitch": 42, "velocity": 80, "note_on_time": 4.116, "note_off_time": 4.46}, {"pitch": 65, "velocity": 80, "note_on_time": 4.459, "note_off_time": 4.801}, {"pitch": 42, "velocity": 80, "note_on_time": 4.46, "note_off_time": 4.801}, {"pitch": 64, "velocity": 80, "note_on_time": 4.801, "note_off_time": 5.143}, {"pitch": 42, "velocity": 80, "note_on_time": 4.801, "note_off_time": 5.144}, {"pitch": 64, "velocity": 80, "note_on_time": 5.143, "note_off_time": 5.487}, {"pitch": 42, "velocity": 80, "note_on_time": 5.144, "note_off_time": 5.487}, {"pitch": 42, "velocity": 80, "note_on_time": 5.487, "note_off_time": 5.83}, {"pitch": 64, "velocity": 80, "note_on_time": 5.487, "note_off_time": 6.172}, {"pitch": 42, "velocity": 80, "note_on_time": 5.831, "note_off_time": 6.172}, {"pitch": 42, "velocity": 80, "note_on_time": 6.172, "note_off_time": 6.514}, {"pitch": 42, "velocity": 80, "note_on_time": 6.515, "note_off_time": 6.855}, {"pitch": 42, "velocity": 80, "note_on_time": 6.855, "note_off_time": 7.198}, {"pitch": 65, "velocity": 80, "note_on_time": 6.855, "note_off_time": 7.539}, {"pitch": 42, "velocity": 80, "note_on_time": 7.199, "note_off_time": 7.539}, {"pitch": 42, "velocity": 80, "note_on_time": 7.539, "note_off_time": 7.88}, {"pitch": 42, "velocity": 80, "note_on_time": 7.88, "note_off_time": 8.221}, {"pitch": 42, "velocity": 80, "note_on_time": 8.221, "note_off_time": 8.563}, {"pitch": 64, "velocity": 80, "note_on_time": 8.221, "note_off_time": 8.904}, {"pitch": 42, "velocity": 80, "note_on_time": 8.563, "note_off_time": 8.904}, {"pitch": 60, "velocity": 80, "note_on_time": 8.904, "note_off_time": 9.248}, {"pitch": 42, "velocity": 80, "note_on_time": 8.905, "note_off_time": 9.248}, {"pitch": 60, "velocity": 80, "note_on_time": 9.248, "note_off_time": 9.591}, {"pitch": 42, "velocity": 80, "note_on_time": 9.249, "note_off_time": 9.592}, {"pitch": 42, "velocity": 80, "note_on_time": 9.592, "note_off_time": 9.932}, {"pitch": 62, "velocity": 80, "note_on_time": 9.591, "note_off_time": 10.274}, {"pitch": 42, "velocity": 80, "note_on_time": 9.932, "note_off_time": 10.274}, {"pitch": 62, "velocity": 80, "note_on_time": 10.274, "note_off_time": 10.617}, {"pitch": 42, "velocity": 80, "note_on_time": 10.274, "note_off_time": 10.617}, {"pitch": 67, "velocity": 80, "note_on_time": 10.617, "note_off_time": 10.958}, {"pitch": 42, "velocity": 80, "note_on_time": 10.618, "note_off_time": 10.958}, {"pitch": 42, "velocity": 80, "note_on_time": 10.958, "note_off_time": 11.298}, {"pitch": 67, "velocity": 80, "note_on_time": 11.298, "note_off_time": 11.644}, {"pitch": 42, "velocity": 80, "note_on_time": 11.298, "note_off_time": 11.644}, {"pitch": 67, "velocity": 80, "note_on_time": 11.644, "note_off_time": 11.986}, {"pitch": 42, "velocity": 80, "note_on_time": 11.644, "note_off_time": 11.986}, {"pitch": 67, "velocity": 80, "note_on_time": 11.986, "note_off_time": 12.327}, {"pitch": 42, "velocity": 80, "note_on_time": 11.986, "note_off_time": 12.328}]</notes><options name="Option List">((4, 4), [0.5, 0.25], 3, 8, &lt;NoteRangePerHand.C_TO_G: 6&gt;, &lt;NoteRangePerHand.ONE_NOTE: 2&gt;, False, True, False, 182)</options></target_notes><trials><trial trial_no="1" timestamp="2022_11_21-17_57_20"><notes name="Played Notes">[{"pitch": 67, "velocity": 88, "note_on_time": 1.41, "note_off_time": 1.714}, {"pitch": 65, "velocity": 80, "note_on_time": 1.735, "note_off_time": 2.068}, {"pitch": 67, "velocity": 82, "note_on_time": 2.078, "note_off_time": 2.434}, {"pitch": 62, "velocity": 84, "note_on_time": 2.436, "note_off_time": 2.821}, {"pitch": 60, "velocity": 87, "note_on_time": 2.785, "note_off_time": 3.147}, {"pitch": 62, "velocity": 85, "note_on_time": 3.135, "note_off_time": 3.593}, {"pitch": 64, "velocity": 79, "note_on_time": 3.477, "note_off_time": 3.829}, {"pitch": 67, "velocity": 84, "note_on_time": 3.821, "note_off_time": 3.909}, {"pitch": 67, "velocity": 92, "note_on_time": 4.182, "note_off_time": 4.511}, {"pitch": 65, "velocity": 89, "note_on_time": 4.509, "note_off_time": 4.885}, {"pitch": 64, "velocity": 94, "note_on_time": 4.856, "note_off_time": 4.958}, {"pitch": 64, "velocity": 101, "note_on_time": 5.214, "note_off_time": 5.512}, {"pitch": 62, "velocity": 89, "note_on_time": 5.556, "note_off_time": 5.988}, {"pitch": 65, "velocity": 97, "note_on_time": 6.841, "note_off_time": 7.365}, {"pitch": 64, "velocity": 95, "note_on_time": 8.2, "note_off_time": 8.504}, {"pitch": 60, "velocity": 101, "note_on_time": 8.927, "note_off_time": 9.158}, {"pitch": 60, "velocity": 104, "note_on_time": 9.34, "note_off_time": 9.861}, {"pitch": 62, "velocity": 88, "note_on_time": 9.848, "note_off_time": 10.398}, {"pitch": 62, "velocity": 69, "note_on_time": 10.571, "note_off_time": 10.941}, {"pitch": 67, "velocity": 78, "note_on_time": 10.945, "note_off_time": 11.07}, {"pitch": 67, "velocity": 83, "note_on_time": 11.661, "note_off_time": 11.754}, {"pitch": 67, "velocity": 94, "note_on_time": 11.991, "note_off_time": 12.069}]</notes><guidance name="Guidance Mode">None</guidance><error name="Error value">0.1522974999999999</error></trial></trials></MIDI>