<MIDI midiNo="2022_12_08-10_56_59"><target_notes><notes name="Note List">[{"pitch": 42, "velocity": 80, "note_on_time": 0.004, "note_off_time": 0.253}, {"pitch": 42, "velocity": 80, "note_on_time": 0.253, "note_off_time": 0.501}, {"pitch": 42, "velocity": 80, "note_on_time": 0.501, "note_off_time": 0.749}, {"pitch": 42, "velocity": 80, "note_on_time": 0.75, "note_off_time": 0.999}, {"pitch": 60, "velocity": 80, "note_on_time": 0.999, "note_off_time": 1.248}, {"pitch": 42, "velocity": 80, "note_on_time": 0.999, "note_off_time": 1.248}, {"pitch": 64, "velocity": 80, "note_on_time": 1.248, "note_off_time": 1.498}, {"pitch": 42, "velocity": 80, "note_on_time": 1.249, "note_off_time": 1.499}, {"pitch": 42, "velocity": 80, "note_on_time": 1.499, "note_off_time": 1.749}, {"pitch": 64, "velocity": 80, "note_on_time": 1.749, "note_off_time": 1.998}, {"pitch": 42, "velocity": 80, "note_on_time": 1.75, "note_off_time": 1.998}, {"pitch": 42, "velocity": 80, "note_on_time": 1.999, "note_off_time": 2.247}, {"pitch": 60, "velocity": 80, "note_on_time": 1.998, "note_off_time": 2.497}, {"pitch": 42, "velocity": 80, "note_on_time": 2.247, "note_off_time": 2.498}, {"pitch": 42, "velocity": 80, "note_on_time": 2.498, "note_off_time": 2.747}, {"pitch": 42, "velocity": 80, "note_on_time": 2.747, "note_off_time": 2.996}, {"pitch": 42, "velocity": 80, "note_on_time": 2.996, "note_off_time": 3.248}, {"pitch": 60, "velocity": 80, "note_on_time": 2.996, "note_off_time": 3.497}, {"pitch": 42, "velocity": 80, "note_on_time": 3.248, "note_off_time": 3.497}, {"pitch": 42, "velocity": 80, "note_on_time": 3.498, "note_off_time": 3.747}, {"pitch": 67, "velocity": 80, "note_on_time": 3.746, "note_off_time": 3.996}, {"pitch": 42, "velocity": 80, "note_on_time": 3.747, "note_off_time": 3.996}, {"pitch": 42, "velocity": 80, "note_on_time": 3.997, "note_off_time": 4.246}, {"pitch": 64, "velocity": 80, "note_on_time": 3.996, "note_off_time": 4.494}, {"pitch": 42, "velocity": 80, "note_on_time": 4.246, "note_off_time": 4.494}, {"pitch": 42, "velocity": 80, "note_on_time": 4.494, "note_off_time": 4.745}, {"pitch": 42, "velocity": 80, "note_on_time": 4.745, "note_off_time": 4.994}, {"pitch": 64, "velocity": 80, "note_on_time": 4.993, "note_off_time": 5.243}, {"pitch": 42, "velocity": 80, "note_on_time": 4.994, "note_off_time": 5.244}, {"pitch": 67, "velocity": 80, "note_on_time": 5.243, "note_off_time": 5.491}, {"pitch": 42, "velocity": 80, "note_on_time": 5.244, "note_off_time": 5.491}, {"pitch": 65, "velocity": 80, "note_on_time": 5.491, "note_off_time": 5.74}, {"pitch": 42, "velocity": 80, "note_on_time": 5.491, "note_off_time": 5.74}, {"pitch": 65, "velocity": 80, "note_on_time": 5.74, "note_off_time": 5.991}, {"pitch": 42, "velocity": 80, "note_on_time": 5.74, "note_off_time": 5.991}, {"pitch": 42, "velocity": 80, "note_on_time": 5.991, "note_off_time": 6.241}, {"pitch": 62, "velocity": 80, "note_on_time": 5.991, "note_off_time": 6.493}, {"pitch": 42, "velocity": 80, "note_on_time": 6.241, "note_off_time": 6.493}, {"pitch": 42, "velocity": 80, "note_on_time": 6.493, "note_off_time": 6.744}, {"pitch": 42, "velocity": 80, "note_on_time": 6.744, "note_off_time": 6.994}, {"pitch": 42, "velocity": 80, "note_on_time": 6.994, "note_off_time": 7.241}, {"pitch": 65, "velocity": 80, "note_on_time": 6.994, "note_off_time": 7.49}, {"pitch": 42, "velocity": 80, "note_on_time": 7.241, "note_off_time": 7.491}, {"pitch": 64, "velocity": 80, "note_on_time": 7.49, "note_off_time": 7.741}, {"pitch": 42, "velocity": 80, "note_on_time": 7.491, "note_off_time": 7.741}, {"pitch": 62, "velocity": 80, "note_on_time": 7.741, "note_off_time": 7.991}, {"pitch": 42, "velocity": 80, "note_on_time": 7.741, "note_off_time": 7.992}, {"pitch": 42, "velocity": 80, "note_on_time": 7.992, "note_off_time": 8.241}, {"pitch": 62, "velocity": 80, "note_on_time": 8.241, "note_off_time": 8.492}, {"pitch": 42, "velocity": 80, "note_on_time": 8.241, "note_off_time": 8.492}, {"pitch": 62, "velocity": 80, "note_on_time": 8.492, "note_off_time": 8.742}, {"pitch": 42, "velocity": 80, "note_on_time": 8.493, "note_off_time": 8.742}, {"pitch": 62, "velocity": 80, "note_on_time": 8.742, "note_off_time": 8.989}, {"pitch": 42, "velocity": 80, "note_on_time": 8.743, "note_off_time": 8.989}]</notes><options name="Option List">((4, 4), [0.5, 0.25], 3, 8, &lt;NoteRangePerHand.C_TO_G: 6&gt;, &lt;NoteRangePerHand.ONE_NOTE: 2&gt;, False, True, False, 248)</options></target_notes><trials><trial trial_no="1" timestamp="2022_12_08-10_56_49"><notes name="Played Notes">[{"pitch": 60, "velocity": 58, "note_on_time": 1.048, "note_off_time": 1.293}, {"pitch": 64, "velocity": 52, "note_on_time": 1.288, "note_off_time": 1.548}, {"pitch": 64, "velocity": 66, "note_on_time": 1.782, "note_off_time": 2.029}, {"pitch": 60, "velocity": 73, "note_on_time": 2.038, "note_off_time": 2.402}, {"pitch": 60, "velocity": 64, "note_on_time": 3.025, "note_off_time": 3.505}, {"pitch": 67, "velocity": 67, "note_on_time": 3.763, "note_off_time": 3.899}, {"pitch": 64, "velocity": 71, "note_on_time": 4.012, "note_off_time": 4.642}, {"pitch": 64, "velocity": 48, "note_on_time": 4.92, "note_off_time": 5.245}, {"pitch": 67, "velocity": 67, "note_on_time": 5.229, "note_off_time": 5.47}, {"pitch": 65, "velocity": 61, "note_on_time": 5.498, "note_off_time": 5.608}, {"pitch": 65, "velocity": 53, "note_on_time": 5.736, "note_off_time": 5.927}, {"pitch": 62, "velocity": 47, "note_on_time": 6.017, "note_off_time": 6.504}, {"pitch": 65, "velocity": 67, "note_on_time": 7.041, "note_off_time": 7.607}, {"pitch": 64, "velocity": 72, "note_on_time": 7.776, "note_off_time": 7.996}, {"pitch": 62, "velocity": 59, "note_on_time": 8.028, "note_off_time": 8.278}, {"pitch": 62, "velocity": 78, "note_on_time": 8.364, "note_off_time": 8.453}, {"pitch": 62, "velocity": 72, "note_on_time": 8.658, "note_off_time": 8.757}]</notes><guidance name="Guidance Mode">None</guidance><error name="Error value">0.13046499999999997</error></trial><trial trial_no="2" timestamp="2022_12_08-10_57_07"><notes name="Played Notes">[{"pitch": 60, "velocity": 66, "note_on_time": 1.051, "note_off_time": 1.319}, {"pitch": 64, "velocity": 63, "note_on_time": 1.303, "note_off_time": 1.598}, {"pitch": 64, "velocity": 68, "note_on_time": 1.798, "note_off_time": 2.039}, {"pitch": 60, "velocity": 67, "note_on_time": 2.061, "note_off_time": 2.39}, {"pitch": 60, "velocity": 65, "note_on_time": 3.012, "note_off_time": 3.521}, {"pitch": 67, "velocity": 66, "note_on_time": 3.76, "note_off_time": 3.895}, {"pitch": 64, "velocity": 67, "note_on_time": 4.02, "note_off_time": 4.537}, {"pitch": 64, "velocity": 67, "note_on_time": 5.006, "note_off_time": 5.261}, {"pitch": 67, "velocity": 62, "note_on_time": 5.262, "note_off_time": 5.534}, {"pitch": 65, "velocity": 52, "note_on_time": 5.533, "note_off_time": 5.63}, {"pitch": 65, "velocity": 51, "note_on_time": 5.759, "note_off_time": 5.882}, {"pitch": 62, "velocity": 67, "note_on_time": 6.043, "note_off_time": 6.585}, {"pitch": 65, "velocity": 76, "note_on_time": 7.011, "note_off_time": 7.58}, {"pitch": 64, "velocity": 74, "note_on_time": 7.765, "note_off_time": 7.899}, {"pitch": 62, "velocity": 36, "note_on_time": 8.036, "note_off_time": 8.332}, {"pitch": 62, "velocity": 71, "note_on_time": 8.54, "note_off_time": 8.656}, {"pitch": 62, "velocity": 51, "note_on_time": 8.769, "note_off_time": 8.88}]</notes><guidance name="Guidance Mode">None</guidance><error name="Error value">0.13373166666666664</error></trial><trial trial_no="3" timestamp="2022_12_08-10_57_26"><notes name="Played Notes">[{"pitch": 60, "velocity": 68, "note_on_time": 1.001, "note_off_time": 1.265}, {"pitch": 64, "velocity": 68, "note_on_time": 1.236, "note_off_time": 1.586}, {"pitch": 64, "velocity": 68, "note_on_time": 1.781, "note_off_time": 2.042}, {"pitch": 60, "velocity": 78, "note_on_time": 2.041, "note_off_time": 2.631}, {"pitch": 60, "velocity": 67, "note_on_time": 3.029, "note_off_time": 3.616}, {"pitch": 67, "velocity": 87, "note_on_time": 3.764, "note_off_time": 3.924}, {"pitch": 64, "velocity": 64, "note_on_time": 4.033, "note_off_time": 4.599}, {"pitch": 64, "velocity": 49, "note_on_time": 4.942, "note_off_time": 5.257}, {"pitch": 67, "velocity": 67, "note_on_time": 5.209, "note_off_time": 5.451}, {"pitch": 65, "velocity": 59, "note_on_time": 5.464, "note_off_time": 5.588}, {"pitch": 65, "velocity": 51, "note_on_time": 5.718, "note_off_time": 5.819}, {"pitch": 62, "velocity": 64, "note_on_time": 6.001, "note_off_time": 6.626}, {"pitch": 65, "velocity": 65, "note_on_time": 7.018, "note_off_time": 7.633}, {"pitch": 64, "velocity": 68, "note_on_time": 7.782, "note_off_time": 8.008}, {"pitch": 62, "velocity": 56, "note_on_time": 8.043, "note_off_time": 8.231}, {"pitch": 62, "velocity": 62, "note_on_time": 8.479, "note_off_time": 8.602}, {"pitch": 62, "velocity": 62, "note_on_time": 8.778, "note_off_time": 8.877}]</notes><guidance name="Guidance Mode">None</guidance><error name="Error value">0.14100700000000016</error></trial></trials></MIDI>