<MIDI midiNo="2022_09_22-12_47_30"><target_notes><notes name="Note List">[{"pitch": 42, "velocity": 80, "note_on_time": 0.005, "note_off_time": 0.307}, {"pitch": 42, "velocity": 80, "note_on_time": 0.307, "note_off_time": 0.617}, {"pitch": 42, "velocity": 80, "note_on_time": 0.618, "note_off_time": 0.927}, {"pitch": 42, "velocity": 80, "note_on_time": 0.928, "note_off_time": 1.242}, {"pitch": 42, "velocity": 80, "note_on_time": 1.242, "note_off_time": 1.553}, {"pitch": 60, "velocity": 80, "note_on_time": 1.242, "note_off_time": 1.865}, {"pitch": 42, "velocity": 80, "note_on_time": 1.553, "note_off_time": 1.865}, {"pitch": 62, "velocity": 80, "note_on_time": 1.865, "note_off_time": 2.177}, {"pitch": 42, "velocity": 80, "note_on_time": 1.866, "note_off_time": 2.177}, {"pitch": 62, "velocity": 80, "note_on_time": 2.177, "note_off_time": 2.49}, {"pitch": 42, "velocity": 80, "note_on_time": 2.177, "note_off_time": 2.49}, {"pitch": 62, "velocity": 80, "note_on_time": 2.49, "note_off_time": 2.8}, {"pitch": 42, "velocity": 80, "note_on_time": 2.49, "note_off_time": 2.801}, {"pitch": 62, "velocity": 80, "note_on_time": 2.8, "note_off_time": 3.114}, {"pitch": 42, "velocity": 80, "note_on_time": 2.801, "note_off_time": 3.114}, {"pitch": 62, "velocity": 80, "note_on_time": 3.114, "note_off_time": 3.426}, {"pitch": 42, "velocity": 80, "note_on_time": 3.114, "note_off_time": 3.427}, {"pitch": 60, "velocity": 80, "note_on_time": 3.426, "note_off_time": 3.737}, {"pitch": 42, "velocity": 80, "note_on_time": 3.427, "note_off_time": 3.738}, {"pitch": 60, "velocity": 80, "note_on_time": 3.737, "note_off_time": 4.051}, {"pitch": 42, "velocity": 80, "note_on_time": 3.738, "note_off_time": 4.051}, {"pitch": 62, "velocity": 80, "note_on_time": 4.051, "note_off_time": 4.366}, {"pitch": 42, "velocity": 80, "note_on_time": 4.051, "note_off_time": 4.366}, {"pitch": 60, "velocity": 80, "note_on_time": 4.366, "note_off_time": 4.679}, {"pitch": 42, "velocity": 80, "note_on_time": 4.366, "note_off_time": 4.679}, {"pitch": 42, "velocity": 80, "note_on_time": 4.68, "note_off_time": 4.992}, {"pitch": 60, "velocity": 80, "note_on_time": 4.991, "note_off_time": 5.301}, {"pitch": 42, "velocity": 80, "note_on_time": 4.992, "note_off_time": 5.301}, {"pitch": 62, "velocity": 80, "note_on_time": 5.301, "note_off_time": 5.613}, {"pitch": 42, "velocity": 80, "note_on_time": 5.301, "note_off_time": 5.613}, {"pitch": 62, "velocity": 80, "note_on_time": 5.613, "note_off_time": 5.926}, {"pitch": 42, "velocity": 80, "note_on_time": 5.614, "note_off_time": 5.926}, {"pitch": 60, "velocity": 80, "note_on_time": 5.926, "note_off_time": 6.237}, {"pitch": 42, "velocity": 80, "note_on_time": 5.926, "note_off_time": 6.238}, {"pitch": 60, "velocity": 80, "note_on_time": 6.237, "note_off_time": 6.551}, {"pitch": 42, "velocity": 80, "note_on_time": 6.238, "note_off_time": 6.552}, {"pitch": 62, "velocity": 80, "note_on_time": 6.551, "note_off_time": 6.863}, {"pitch": 42, "velocity": 80, "note_on_time": 6.553, "note_off_time": 6.863}, {"pitch": 62, "velocity": 80, "note_on_time": 6.863, "note_off_time": 7.174}, {"pitch": 42, "velocity": 80, "note_on_time": 6.863, "note_off_time": 7.174}, {"pitch": 62, "velocity": 80, "note_on_time": 7.174, "note_off_time": 7.489}, {"pitch": 42, "velocity": 80, "note_on_time": 7.175, "note_off_time": 7.489}, {"pitch": 62, "velocity": 80, "note_on_time": 7.489, "note_off_time": 7.801}, {"pitch": 42, "velocity": 80, "note_on_time": 7.489, "note_off_time": 7.801}, {"pitch": 60, "velocity": 80, "note_on_time": 7.801, "note_off_time": 8.115}, {"pitch": 42, "velocity": 80, "note_on_time": 7.801, "note_off_time": 8.115}, {"pitch": 60, "velocity": 80, "note_on_time": 8.115, "note_off_time": 8.426}, {"pitch": 42, "velocity": 80, "note_on_time": 8.116, "note_off_time": 8.426}, {"pitch": 62, "velocity": 80, "note_on_time": 8.426, "note_off_time": 8.737}, {"pitch": 42, "velocity": 80, "note_on_time": 8.426, "note_off_time": 8.737}, {"pitch": 42, "velocity": 80, "note_on_time": 8.738, "note_off_time": 9.05}, {"pitch": 62, "velocity": 80, "note_on_time": 8.737, "note_off_time": 9.364}, {"pitch": 42, "velocity": 80, "note_on_time": 9.051, "note_off_time": 9.364}, {"pitch": 62, "velocity": 80, "note_on_time": 9.364, "note_off_time": 9.675}, {"pitch": 42, "velocity": 80, "note_on_time": 9.364, "note_off_time": 9.675}, {"pitch": 62, "velocity": 80, "note_on_time": 9.675, "note_off_time": 9.986}, {"pitch": 42, "velocity": 80, "note_on_time": 9.676, "note_off_time": 9.986}, {"pitch": 42, "velocity": 80, "note_on_time": 9.987, "note_off_time": 10.298}, {"pitch": 62, "velocity": 80, "note_on_time": 10.297, "note_off_time": 10.609}, {"pitch": 42, "velocity": 80, "note_on_time": 10.298, "note_off_time": 10.609}, {"pitch": 62, "velocity": 80, "note_on_time": 10.609, "note_off_time": 10.919}, {"pitch": 42, "velocity": 80, "note_on_time": 10.609, "note_off_time": 10.919}, {"pitch": 62, "velocity": 80, "note_on_time": 10.919, "note_off_time": 11.232}, {"pitch": 42, "velocity": 80, "note_on_time": 10.919, "note_off_time": 11.232}]</notes><options name="Option List">((4, 4), [0.5, 0.25], 3, 8, &lt;NoteRangePerHand.TWO_NOTES: 3&gt;, &lt;NoteRangePerHand.ONE_NOTE: 2&gt;, False, True, True, 200)</options></target_notes><trials><trial trial_no="1" timestamp="2022_09_22-12_47_17"><notes name="Played Notes">[{"pitch": 60, "velocity": 52, "note_on_time": 1.215, "note_off_time": 1.856}, {"pitch": 62, "velocity": 51, "note_on_time": 1.898, "note_off_time": 2.107}, {"pitch": 62, "velocity": 39, "note_on_time": 2.206, "note_off_time": 2.383}, {"pitch": 62, "velocity": 52, "note_on_time": 2.522, "note_off_time": 2.685}, {"pitch": 62, "velocity": 49, "note_on_time": 2.817, "note_off_time": 2.955}, {"pitch": 62, "velocity": 40, "note_on_time": 3.121, "note_off_time": 3.283}, {"pitch": 60, "velocity": 39, "note_on_time": 3.423, "note_off_time": 3.555}, {"pitch": 60, "velocity": 47, "note_on_time": 3.732, "note_off_time": 3.968}, {"pitch": 62, "velocity": 37, "note_on_time": 4.036, "note_off_time": 4.285}, {"pitch": 60, "velocity": 45, "note_on_time": 4.33, "note_off_time": 4.555}, {"pitch": 60, "velocity": 49, "note_on_time": 4.969, "note_off_time": 5.15}, {"pitch": 62, "velocity": 35, "note_on_time": 5.283, "note_off_time": 5.415}, {"pitch": 62, "velocity": 39, "note_on_time": 5.578, "note_off_time": 5.836}, {"pitch": 60, "velocity": 32, "note_on_time": 5.899, "note_off_time": 6.069}, {"pitch": 60, "velocity": 44, "note_on_time": 6.207, "note_off_time": 6.442}, {"pitch": 62, "velocity": 37, "note_on_time": 6.512, "note_off_time": 6.67}, {"pitch": 62, "velocity": 41, "note_on_time": 6.821, "note_off_time": 6.985}, {"pitch": 62, "velocity": 41, "note_on_time": 7.144, "note_off_time": 7.307}, {"pitch": 62, "velocity": 50, "note_on_time": 7.479, "note_off_time": 7.708}, {"pitch": 60, "velocity": 24, "note_on_time": 7.804, "note_off_time": 7.94}, {"pitch": 60, "velocity": 37, "note_on_time": 8.124, "note_off_time": 8.323}, {"pitch": 62, "velocity": 39, "note_on_time": 8.414, "note_off_time": 8.535}, {"pitch": 62, "velocity": 45, "note_on_time": 8.736, "note_off_time": 9.196}, {"pitch": 62, "velocity": 40, "note_on_time": 9.374, "note_off_time": 9.502}, {"pitch": 62, "velocity": 31, "note_on_time": 9.684, "note_off_time": 9.961}, {"pitch": 62, "velocity": 40, "note_on_time": 10.293, "note_off_time": 10.414}, {"pitch": 62, "velocity": 40, "note_on_time": 10.599, "note_off_time": 10.725}, {"pitch": 62, "velocity": 45, "note_on_time": 10.911, "note_off_time": 11.077}]</notes><guidance name="Guidance Mode">None</guidance><error name="Error value">0.017919999999999926</error></trial><trial trial_no="2" timestamp="2022_09_22-12_47_41"><notes name="Played Notes">[{"pitch": 60, "velocity": 49, "note_on_time": 1.222, "note_off_time": 1.837}, {"pitch": 62, "velocity": 46, "note_on_time": 1.86, "note_off_time": 2.064}, {"pitch": 62, "velocity": 49, "note_on_time": 2.197, "note_off_time": 2.398}, {"pitch": 62, "velocity": 45, "note_on_time": 2.531, "note_off_time": 2.684}, {"pitch": 62, "velocity": 51, "note_on_time": 2.815, "note_off_time": 2.973}, {"pitch": 62, "velocity": 50, "note_on_time": 3.116, "note_off_time": 3.384}, {"pitch": 60, "velocity": 31, "note_on_time": 3.454, "note_off_time": 3.62}, {"pitch": 60, "velocity": 46, "note_on_time": 3.767, "note_off_time": 4.045}, {"pitch": 62, "velocity": 40, "note_on_time": 4.08, "note_off_time": 4.353}, {"pitch": 60, "velocity": 43, "note_on_time": 4.381, "note_off_time": 4.597}, {"pitch": 60, "velocity": 46, "note_on_time": 4.983, "note_off_time": 5.263}, {"pitch": 62, "velocity": 41, "note_on_time": 5.294, "note_off_time": 5.433}, {"pitch": 62, "velocity": 52, "note_on_time": 5.601, "note_off_time": 5.873}, {"pitch": 60, "velocity": 41, "note_on_time": 5.92, "note_off_time": 6.079}, {"pitch": 60, "velocity": 41, "note_on_time": 6.226, "note_off_time": 6.488}, {"pitch": 62, "velocity": 34, "note_on_time": 6.525, "note_off_time": 6.69}, {"pitch": 62, "velocity": 35, "note_on_time": 6.846, "note_off_time": 7.006}, {"pitch": 62, "velocity": 44, "note_on_time": 7.164, "note_off_time": 7.342}, {"pitch": 62, "velocity": 50, "note_on_time": 7.491, "note_off_time": 7.742}, {"pitch": 60, "velocity": 34, "note_on_time": 7.796, "note_off_time": 7.921}, {"pitch": 60, "velocity": 37, "note_on_time": 8.114, "note_off_time": 8.37}, {"pitch": 62, "velocity": 33, "note_on_time": 8.414, "note_off_time": 8.558}, {"pitch": 62, "velocity": 46, "note_on_time": 8.713, "note_off_time": 9.216}, {"pitch": 62, "velocity": 39, "note_on_time": 9.371, "note_off_time": 9.497}, {"pitch": 62, "velocity": 44, "note_on_time": 9.66, "note_off_time": 9.912}, {"pitch": 62, "velocity": 43, "note_on_time": 10.282, "note_off_time": 10.391}, {"pitch": 62, "velocity": 46, "note_on_time": 10.584, "note_off_time": 10.706}, {"pitch": 62, "velocity": 49, "note_on_time": 10.891, "note_off_time": 11.024}]</notes><guidance name="Guidance Mode">None</guidance><error name="Error value">0.017080000000000206</error></trial></trials></MIDI>