<MIDI midiNo="2022_04_28-16_42_37"><target_notes><notes name="Note List">[{"pitch": 39, "velocity": 100, "note_on_time": 0.003, "note_off_time": 0.361}, {"pitch": 42, "velocity": 100, "note_on_time": 0.361, "note_off_time": 0.721}, {"pitch": 42, "velocity": 100, "note_on_time": 0.721, "note_off_time": 1.08}, {"pitch": 42, "velocity": 100, "note_on_time": 1.081, "note_off_time": 1.438}, {"pitch": 67, "velocity": 100, "note_on_time": 1.438, "note_off_time": 1.796}, {"pitch": 39, "velocity": 100, "note_on_time": 1.438, "note_off_time": 1.796}, {"pitch": 42, "velocity": 100, "note_on_time": 1.797, "note_off_time": 2.167}, {"pitch": 42, "velocity": 100, "note_on_time": 2.167, "note_off_time": 2.527}, {"pitch": 42, "velocity": 100, "note_on_time": 2.528, "note_off_time": 2.887}, {"pitch": 65, "velocity": 100, "note_on_time": 2.886, "note_off_time": 3.072}, {"pitch": 65, "velocity": 100, "note_on_time": 3.072, "note_off_time": 3.259}, {"pitch": 39, "velocity": 100, "note_on_time": 2.887, "note_off_time": 3.259}, {"pitch": 67, "velocity": 100, "note_on_time": 3.259, "note_off_time": 3.618}, {"pitch": 42, "velocity": 100, "note_on_time": 3.259, "note_off_time": 3.618}, {"pitch": 67, "velocity": 100, "note_on_time": 3.618, "note_off_time": 3.978}, {"pitch": 42, "velocity": 100, "note_on_time": 3.618, "note_off_time": 3.978}, {"pitch": 60, "velocity": 100, "note_on_time": 3.978, "note_off_time": 4.337}, {"pitch": 42, "velocity": 100, "note_on_time": 3.979, "note_off_time": 4.337}, {"pitch": 65, "velocity": 100, "note_on_time": 4.337, "note_off_time": 4.698}, {"pitch": 39, "velocity": 100, "note_on_time": 4.337, "note_off_time": 4.698}, {"pitch": 62, "velocity": 100, "note_on_time": 4.698, "note_off_time": 4.886}, {"pitch": 64, "velocity": 100, "note_on_time": 4.886, "note_off_time": 5.073}, {"pitch": 42, "velocity": 100, "note_on_time": 4.698, "note_off_time": 5.073}, {"pitch": 65, "velocity": 100, "note_on_time": 5.073, "note_off_time": 5.261}, {"pitch": 64, "velocity": 100, "note_on_time": 5.261, "note_off_time": 5.448}, {"pitch": 42, "velocity": 100, "note_on_time": 5.073, "note_off_time": 5.448}, {"pitch": 67, "velocity": 100, "note_on_time": 5.448, "note_off_time": 5.635}, {"pitch": 60, "velocity": 100, "note_on_time": 5.635, "note_off_time": 5.82}, {"pitch": 42, "velocity": 100, "note_on_time": 5.449, "note_off_time": 5.82}, {"pitch": 65, "velocity": 100, "note_on_time": 5.82, "note_off_time": 6.179}, {"pitch": 39, "velocity": 100, "note_on_time": 5.82, "note_off_time": 6.179}, {"pitch": 42, "velocity": 100, "note_on_time": 6.179, "note_off_time": 6.538}, {"pitch": 64, "velocity": 100, "note_on_time": 6.179, "note_off_time": 6.9}, {"pitch": 42, "velocity": 100, "note_on_time": 6.538, "note_off_time": 6.901}, {"pitch": 62, "velocity": 100, "note_on_time": 6.9, "note_off_time": 7.259}, {"pitch": 42, "velocity": 100, "note_on_time": 6.901, "note_off_time": 7.259}, {"pitch": 64, "velocity": 100, "note_on_time": 7.259, "note_off_time": 7.619}, {"pitch": 39, "velocity": 100, "note_on_time": 7.26, "note_off_time": 7.619}, {"pitch": 42, "velocity": 100, "note_on_time": 7.62, "note_off_time": 7.979}, {"pitch": 42, "velocity": 100, "note_on_time": 7.979, "note_off_time": 8.35}, {"pitch": 42, "velocity": 100, "note_on_time": 8.351, "note_off_time": 8.708}, {"pitch": 39, "velocity": 100, "note_on_time": 8.708, "note_off_time": 9.067}, {"pitch": 60, "velocity": 100, "note_on_time": 8.708, "note_off_time": 9.425}, {"pitch": 42, "velocity": 100, "note_on_time": 9.067, "note_off_time": 9.425}, {"pitch": 42, "velocity": 100, "note_on_time": 9.426, "note_off_time": 9.783}, {"pitch": 65, "velocity": 100, "note_on_time": 9.425, "note_off_time": 10.142}, {"pitch": 42, "velocity": 100, "note_on_time": 9.784, "note_off_time": 10.142}, {"pitch": 64, "velocity": 100, "note_on_time": 10.142, "note_off_time": 10.33}, {"pitch": 62, "velocity": 100, "note_on_time": 10.33, "note_off_time": 10.518}, {"pitch": 39, "velocity": 100, "note_on_time": 10.142, "note_off_time": 10.518}, {"pitch": 42, "velocity": 100, "note_on_time": 10.519, "note_off_time": 10.877}, {"pitch": 60, "velocity": 100, "note_on_time": 10.518, "note_off_time": 11.236}, {"pitch": 42, "velocity": 100, "note_on_time": 10.877, "note_off_time": 11.236}, {"pitch": 42, "velocity": 100, "note_on_time": 11.236, "note_off_time": 11.595}, {"pitch": 39, "velocity": 100, "note_on_time": 11.595, "note_off_time": 11.956}, {"pitch": 60, "velocity": 100, "note_on_time": 11.956, "note_off_time": 12.314}, {"pitch": 42, "velocity": 100, "note_on_time": 11.956, "note_off_time": 12.314}, {"pitch": 60, "velocity": 100, "note_on_time": 12.314, "note_off_time": 12.672}, {"pitch": 42, "velocity": 100, "note_on_time": 12.314, "note_off_time": 12.672}, {"pitch": 60, "velocity": 100, "note_on_time": 12.672, "note_off_time": 13.036}, {"pitch": 42, "velocity": 100, "note_on_time": 12.673, "note_off_time": 13.036}]</notes><options name="Option List">((4, 4), [0.5, 0.25, 0.125], 3, 8, &lt;NoteRangePerHand.C_TO_G: 6&gt;, &lt;NoteRangePerHand.ONE_NOTE: 2&gt;, False, True, True, '169')</options></target_notes><trials><trial trial_no="1" timestamp="2022_04_28-16_42_22"><notes name="Played Notes">[{"pitch": 67, "velocity": 79, "note_on_time": 1.439, "note_off_time": 1.798}, {"pitch": 65, "velocity": 76, "note_on_time": 2.86, "note_off_time": 2.914}, {"pitch": 65, "velocity": 69, "note_on_time": 3.035, "note_off_time": 3.147}, {"pitch": 67, "velocity": 62, "note_on_time": 3.216, "note_off_time": 3.455}, {"pitch": 67, "velocity": 55, "note_on_time": 3.596, "note_off_time": 3.912}, {"pitch": 60, "velocity": 59, "note_on_time": 3.98, "note_off_time": 4.357}, {"pitch": 65, "velocity": 71, "note_on_time": 4.346, "note_off_time": 4.753}, {"pitch": 62, "velocity": 54, "note_on_time": 4.708, "note_off_time": 4.88}, {"pitch": 64, "velocity": 55, "note_on_time": 4.859, "note_off_time": 5.012}, {"pitch": 65, "velocity": 53, "note_on_time": 5.053, "note_off_time": 5.216}, {"pitch": 64, "velocity": 56, "note_on_time": 5.226, "note_off_time": 5.384}, {"pitch": 67, "velocity": 64, "note_on_time": 5.425, "note_off_time": 5.597}, {"pitch": 60, "velocity": 66, "note_on_time": 5.597, "note_off_time": 5.793}, {"pitch": 65, "velocity": 74, "note_on_time": 5.8, "note_off_time": 6.141}, {"pitch": 64, "velocity": 65, "note_on_time": 6.197, "note_off_time": 6.853}, {"pitch": 62, "velocity": 69, "note_on_time": 6.917, "note_off_time": 7.281}, {"pitch": 64, "velocity": 73, "note_on_time": 7.289, "note_off_time": 7.695}, {"pitch": 60, "velocity": 79, "note_on_time": 8.729, "note_off_time": 9.292}, {"pitch": 65, "velocity": 77, "note_on_time": 9.412, "note_off_time": 10.034}, {"pitch": 64, "velocity": 78, "note_on_time": 10.132, "note_off_time": 10.283}, {"pitch": 62, "velocity": 55, "note_on_time": 10.304, "note_off_time": 10.498}, {"pitch": 60, "velocity": 69, "note_on_time": 10.497, "note_off_time": 11.567}, {"pitch": 60, "velocity": 67, "note_on_time": 11.923, "note_off_time": 12.115}, {"pitch": 60, "velocity": 74, "note_on_time": 12.304, "note_off_time": 12.484}, {"pitch": 60, "velocity": 68, "note_on_time": 12.654, "note_off_time": 12.931}]</notes><guidance name="Guidance Mode">None</guidance><error name="Error value">0.06348008080808064</error></trial><trial trial_no="2" timestamp="2022_04_28-16_42_54"><notes name="Played Notes">[{"pitch": 67, "velocity": 73, "note_on_time": 1.444, "note_off_time": 2.015}, {"pitch": 65, "velocity": 70, "note_on_time": 2.876, "note_off_time": 2.97}, {"pitch": 65, "velocity": 72, "note_on_time": 3.055, "note_off_time": 3.234}, {"pitch": 67, "velocity": 61, "note_on_time": 3.249, "note_off_time": 3.49}, {"pitch": 67, "velocity": 49, "note_on_time": 3.619, "note_off_time": 4.011}, {"pitch": 60, "velocity": 35, "note_on_time": 4.01, "note_off_time": 4.345}, {"pitch": 65, "velocity": 60, "note_on_time": 4.386, "note_off_time": 4.783}, {"pitch": 62, "velocity": 50, "note_on_time": 4.725, "note_off_time": 4.918}, {"pitch": 64, "velocity": 54, "note_on_time": 4.908, "note_off_time": 5.09}, {"pitch": 65, "velocity": 48, "note_on_time": 5.11, "note_off_time": 5.363}, {"pitch": 64, "velocity": 51, "note_on_time": 5.284, "note_off_time": 5.447}, {"pitch": 67, "velocity": 54, "note_on_time": 5.515, "note_off_time": 5.638}, {"pitch": 65, "velocity": 42, "note_on_time": 5.445, "note_off_time": 5.682}, {"pitch": 60, "velocity": 66, "note_on_time": 5.685, "note_off_time": 5.845}, {"pitch": 65, "velocity": 42, "note_on_time": 5.851, "note_off_time": 6.215}, {"pitch": 64, "velocity": 65, "note_on_time": 6.196, "note_off_time": 6.905}, {"pitch": 62, "velocity": 61, "note_on_time": 6.916, "note_off_time": 7.283}, {"pitch": 64, "velocity": 63, "note_on_time": 7.301, "note_off_time": 7.724}, {"pitch": 60, "velocity": 65, "note_on_time": 8.703, "note_off_time": 9.414}, {"pitch": 65, "velocity": 69, "note_on_time": 9.394, "note_off_time": 10.088}, {"pitch": 64, "velocity": 61, "note_on_time": 10.111, "note_off_time": 10.274}, {"pitch": 62, "velocity": 55, "note_on_time": 10.283, "note_off_time": 10.488}, {"pitch": 60, "velocity": 54, "note_on_time": 10.492, "note_off_time": 11.538}, {"pitch": 60, "velocity": 50, "note_on_time": 11.916, "note_off_time": 12.187}, {"pitch": 60, "velocity": 51, "note_on_time": 12.321, "note_off_time": 12.554}, {"pitch": 60, "velocity": 51, "note_on_time": 12.683, "note_off_time": 13.012}]</notes><guidance name="Guidance Mode">None</guidance><error name="Error value">0.3405983308080811</error></trial><trial trial_no="3" timestamp="2022_04_28-16_43_19"><notes name="Played Notes">[{"pitch": 67, "velocity": 65, "note_on_time": 1.428, "note_off_time": 1.941}, {"pitch": 65, "velocity": 62, "note_on_time": 2.854, "note_off_time": 2.936}, {"pitch": 65, "velocity": 61, "note_on_time": 3.034, "note_off_time": 3.249}, {"pitch": 67, "velocity": 62, "note_on_time": 3.238, "note_off_time": 3.462}, {"pitch": 67, "velocity": 52, "note_on_time": 3.614, "note_off_time": 3.96}, {"pitch": 60, "velocity": 48, "note_on_time": 3.983, "note_off_time": 4.326}, {"pitch": 65, "velocity": 71, "note_on_time": 4.345, "note_off_time": 4.748}, {"pitch": 62, "velocity": 62, "note_on_time": 4.727, "note_off_time": 4.903}, {"pitch": 64, "velocity": 58, "note_on_time": 4.916, "note_off_time": 5.06}, {"pitch": 65, "velocity": 55, "note_on_time": 5.086, "note_off_time": 5.289}, {"pitch": 64, "velocity": 52, "note_on_time": 5.26, "note_off_time": 5.451}, {"pitch": 67, "velocity": 50, "note_on_time": 5.456, "note_off_time": 5.641}, {"pitch": 60, "velocity": 52, "note_on_time": 5.628, "note_off_time": 5.819}, {"pitch": 65, "velocity": 65, "note_on_time": 5.82, "note_off_time": 6.181}, {"pitch": 64, "velocity": 59, "note_on_time": 6.18, "note_off_time": 6.93}, {"pitch": 62, "velocity": 58, "note_on_time": 6.946, "note_off_time": 7.296}, {"pitch": 64, "velocity": 63, "note_on_time": 7.305, "note_off_time": 7.743}, {"pitch": 60, "velocity": 66, "note_on_time": 8.664, "note_off_time": 9.376}, {"pitch": 65, "velocity": 71, "note_on_time": 9.41, "note_off_time": 10.077}, {"pitch": 64, "velocity": 68, "note_on_time": 10.14, "note_off_time": 10.295}, {"pitch": 62, "velocity": 54, "note_on_time": 10.315, "note_off_time": 10.494}, {"pitch": 60, "velocity": 70, "note_on_time": 10.494, "note_off_time": 10.886}, {"pitch": 60, "velocity": 62, "note_on_time": 11.916, "note_off_time": 12.154}, {"pitch": 60, "velocity": 66, "note_on_time": 12.298, "note_off_time": 12.529}]</notes><guidance name="Guidance Mode">None</guidance><error name="Error value">0.11628647727272748</error></trial><trial trial_no="4" timestamp="2022_04_28-16_43_44"><notes name="Played Notes">[{"pitch": 67, "velocity": 68, "note_on_time": 1.427, "note_off_time": 1.916}, {"pitch": 65, "velocity": 50, "note_on_time": 2.86, "note_off_time": 2.95}, {"pitch": 65, "velocity": 54, "note_on_time": 3.056, "note_off_time": 3.192}, {"pitch": 67, "velocity": 36, "note_on_time": 3.256, "note_off_time": 3.319}, {"pitch": 67, "velocity": 49, "note_on_time": 3.425, "note_off_time": 3.572}, {"pitch": 60, "velocity": 50, "note_on_time": 3.63, "note_off_time": 3.961}, {"pitch": 65, "velocity": 56, "note_on_time": 3.992, "note_off_time": 4.359}, {"pitch": 62, "velocity": 46, "note_on_time": 4.361, "note_off_time": 4.572}, {"pitch": 64, "velocity": 55, "note_on_time": 4.536, "note_off_time": 4.735}, {"pitch": 65, "velocity": 55, "note_on_time": 4.725, "note_off_time": 4.949}, {"pitch": 64, "velocity": 50, "note_on_time": 4.902, "note_off_time": 5.072}, {"pitch": 67, "velocity": 53, "note_on_time": 5.089, "note_off_time": 5.376}, {"pitch": 60, "velocity": 40, "note_on_time": 5.405, "note_off_time": 5.741}, {"pitch": 65, "velocity": 46, "note_on_time": 5.779, "note_off_time": 6.155}, {"pitch": 64, "velocity": 53, "note_on_time": 6.144, "note_off_time": 6.849}, {"pitch": 62, "velocity": 58, "note_on_time": 6.856, "note_off_time": 7.239}, {"pitch": 64, "velocity": 63, "note_on_time": 7.242, "note_off_time": 7.716}, {"pitch": 60, "velocity": 62, "note_on_time": 8.655, "note_off_time": 9.395}, {"pitch": 65, "velocity": 60, "note_on_time": 9.427, "note_off_time": 10.065}, {"pitch": 64, "velocity": 63, "note_on_time": 10.139, "note_off_time": 10.291}, {"pitch": 62, "velocity": 36, "note_on_time": 10.31, "note_off_time": 10.516}, {"pitch": 60, "velocity": 53, "note_on_time": 10.528, "note_off_time": 11.605}, {"pitch": 60, "velocity": 57, "note_on_time": 11.942, "note_off_time": 12.126}, {"pitch": 60, "velocity": 52, "note_on_time": 12.309, "note_off_time": 12.5}, {"pitch": 60, "velocity": 54, "note_on_time": 12.666, "note_off_time": 13.001}]</notes><guidance name="Guidance Mode">None</guidance><error name="Error value">0.1050778383838383</error></trial><trial trial_no="5" timestamp="2022_04_28-16_44_05"><notes name="Played Notes">[{"pitch": 67, "velocity": 72, "note_on_time": 1.454, "note_off_time": 1.795}, {"pitch": 65, "velocity": 60, "note_on_time": 2.848, "note_off_time": 2.918}, {"pitch": 65, "velocity": 60, "note_on_time": 3.016, "note_off_time": 3.163}, {"pitch": 67, "velocity": 56, "note_on_time": 3.223, "note_off_time": 3.469}, {"pitch": 67, "velocity": 58, "note_on_time": 3.594, "note_off_time": 3.911}, {"pitch": 60, "velocity": 60, "note_on_time": 3.958, "note_off_time": 4.316}, {"pitch": 65, "velocity": 64, "note_on_time": 4.342, "note_off_time": 4.71}, {"pitch": 62, "velocity": 49, "note_on_time": 4.708, "note_off_time": 4.894}, {"pitch": 64, "velocity": 61, "note_on_time": 4.876, "note_off_time": 5.058}, {"pitch": 65, "velocity": 56, "note_on_time": 5.067, "note_off_time": 5.262}, {"pitch": 64, "velocity": 56, "note_on_time": 5.24, "note_off_time": 5.427}, {"pitch": 67, "velocity": 64, "note_on_time": 5.437, "note_off_time": 5.583}, {"pitch": 60, "velocity": 60, "note_on_time": 5.589, "note_off_time": 5.801}, {"pitch": 65, "velocity": 66, "note_on_time": 5.803, "note_off_time": 6.149}, {"pitch": 64, "velocity": 71, "note_on_time": 6.149, "note_off_time": 6.907}, {"pitch": 62, "velocity": 75, "note_on_time": 6.924, "note_off_time": 7.329}, {"pitch": 64, "velocity": 82, "note_on_time": 7.3, "note_off_time": 7.659}, {"pitch": 60, "velocity": 80, "note_on_time": 8.662, "note_off_time": 9.418}, {"pitch": 65, "velocity": 77, "note_on_time": 9.39, "note_off_time": 10.152}, {"pitch": 64, "velocity": 68, "note_on_time": 10.147, "note_off_time": 10.335}, {"pitch": 62, "velocity": 54, "note_on_time": 10.328, "note_off_time": 10.491}, {"pitch": 60, "velocity": 68, "note_on_time": 10.507, "note_off_time": 11.579}, {"pitch": 60, "velocity": 66, "note_on_time": 11.933, "note_off_time": 12.155}, {"pitch": 60, "velocity": 59, "note_on_time": 12.312, "note_off_time": 12.527}, {"pitch": 60, "velocity": 64, "note_on_time": 12.662, "note_off_time": 12.938}]</notes><guidance name="Guidance Mode">None</guidance><error name="Error value">0.06060462626262598</error></trial><trial trial_no="6" timestamp="2022_04_28-16_44_29"><notes name="Played Notes">[{"pitch": 67, "velocity": 70, "note_on_time": 1.436, "note_off_time": 1.908}, {"pitch": 65, "velocity": 67, "note_on_time": 2.848, "note_off_time": 2.914}, {"pitch": 65, "velocity": 63, "note_on_time": 3.038, "note_off_time": 3.164}, {"pitch": 67, "velocity": 60, "note_on_time": 3.227, "note_off_time": 3.458}, {"pitch": 67, "velocity": 58, "note_on_time": 3.588, "note_off_time": 3.863}, {"pitch": 60, "velocity": 52, "note_on_time": 3.964, "note_off_time": 4.289}, {"pitch": 65, "velocity": 69, "note_on_time": 4.317, "note_off_time": 4.653}, {"pitch": 62, "velocity": 54, "note_on_time": 4.674, "note_off_time": 4.847}, {"pitch": 64, "velocity": 55, "note_on_time": 4.836, "note_off_time": 5.029}, {"pitch": 65, "velocity": 58, "note_on_time": 5.029, "note_off_time": 5.23}, {"pitch": 64, "velocity": 59, "note_on_time": 5.196, "note_off_time": 5.394}, {"pitch": 67, "velocity": 66, "note_on_time": 5.412, "note_off_time": 5.588}, {"pitch": 60, "velocity": 55, "note_on_time": 5.572, "note_off_time": 5.769}, {"pitch": 65, "velocity": 72, "note_on_time": 5.788, "note_off_time": 6.11}, {"pitch": 64, "velocity": 70, "note_on_time": 6.145, "note_off_time": 6.858}, {"pitch": 62, "velocity": 57, "note_on_time": 6.92, "note_off_time": 7.268}, {"pitch": 64, "velocity": 68, "note_on_time": 7.27, "note_off_time": 7.576}, {"pitch": 60, "velocity": 65, "note_on_time": 8.657, "note_off_time": 9.35}, {"pitch": 65, "velocity": 67, "note_on_time": 9.395, "note_off_time": 10.007}, {"pitch": 64, "velocity": 73, "note_on_time": 10.117, "note_off_time": 10.281}, {"pitch": 62, "velocity": 41, "note_on_time": 10.313, "note_off_time": 10.464}, {"pitch": 60, "velocity": 57, "note_on_time": 10.5, "note_off_time": 11.555}, {"pitch": 60, "velocity": 68, "note_on_time": 11.915, "note_off_time": 12.124}, {"pitch": 60, "velocity": 57, "note_on_time": 12.285, "note_off_time": 12.464}, {"pitch": 60, "velocity": 64, "note_on_time": 12.629, "note_off_time": 12.913}]</notes><guidance name="Guidance Mode">None</guidance><error name="Error value">0.06285665151515155</error></trial><trial trial_no="7" timestamp="2022_04_28-16_45_03"><notes name="Played Notes">[{"pitch": 67, "velocity": 77, "note_on_time": 1.422, "note_off_time": 1.921}, {"pitch": 65, "velocity": 72, "note_on_time": 2.853, "note_off_time": 2.93}, {"pitch": 65, "velocity": 65, "note_on_time": 3.039, "note_off_time": 3.177}, {"pitch": 67, "velocity": 58, "note_on_time": 3.264, "note_off_time": 3.493}, {"pitch": 67, "velocity": 64, "note_on_time": 3.629, "note_off_time": 3.994}, {"pitch": 60, "velocity": 67, "note_on_time": 4.012, "note_off_time": 4.363}, {"pitch": 65, "velocity": 66, "note_on_time": 4.379, "note_off_time": 4.741}, {"pitch": 62, "velocity": 38, "note_on_time": 4.752, "note_off_time": 4.949}, {"pitch": 64, "velocity": 64, "note_on_time": 4.919, "note_off_time": 5.108}, {"pitch": 65, "velocity": 66, "note_on_time": 5.1, "note_off_time": 5.3}, {"pitch": 64, "velocity": 64, "note_on_time": 5.276, "note_off_time": 5.497}, {"pitch": 67, "velocity": 65, "note_on_time": 5.503, "note_off_time": 5.721}, {"pitch": 60, "velocity": 60, "note_on_time": 5.673, "note_off_time": 5.876}, {"pitch": 65, "velocity": 68, "note_on_time": 5.874, "note_off_time": 6.203}, {"pitch": 64, "velocity": 64, "note_on_time": 6.225, "note_off_time": 6.903}, {"pitch": 62, "velocity": 60, "note_on_time": 6.933, "note_off_time": 7.293}, {"pitch": 64, "velocity": 67, "note_on_time": 7.302, "note_off_time": 7.841}, {"pitch": 60, "velocity": 72, "note_on_time": 8.723, "note_off_time": 9.471}, {"pitch": 65, "velocity": 81, "note_on_time": 9.455, "note_off_time": 10.111}, {"pitch": 64, "velocity": 75, "note_on_time": 10.177, "note_off_time": 10.359}, {"pitch": 62, "velocity": 64, "note_on_time": 10.355, "note_off_time": 10.52}, {"pitch": 60, "velocity": 71, "note_on_time": 10.551, "note_off_time": 11.503}, {"pitch": 60, "velocity": 74, "note_on_time": 11.952, "note_off_time": 12.17}, {"pitch": 60, "velocity": 67, "note_on_time": 12.346, "note_off_time": 12.536}, {"pitch": 60, "velocity": 67, "note_on_time": 12.74, "note_off_time": 12.918}]</notes><guidance name="Guidance Mode">None</guidance><error name="Error value">0.06467013383838403</error></trial></trials></MIDI>