<MIDI midiNo="2022_12_08-12_28_33"><target_notes><notes name="Note List">[{"pitch": 42, "velocity": 80, "note_on_time": 0.004, "note_off_time": 0.174}, {"pitch": 42, "velocity": 80, "note_on_time": 0.174, "note_off_time": 0.343}, {"pitch": 42, "velocity": 80, "note_on_time": 0.344, "note_off_time": 0.515}, {"pitch": 42, "velocity": 80, "note_on_time": 0.515, "note_off_time": 0.687}, {"pitch": 65, "velocity": 80, "note_on_time": 0.687, "note_off_time": 0.858}, {"pitch": 42, "velocity": 80, "note_on_time": 0.687, "note_off_time": 0.858}, {"pitch": 42, "velocity": 80, "note_on_time": 0.858, "note_off_time": 1.029}, {"pitch": 42, "velocity": 80, "note_on_time": 1.03, "note_off_time": 1.203}, {"pitch": 42, "velocity": 80, "note_on_time": 1.203, "note_off_time": 1.374}, {"pitch": 65, "velocity": 80, "note_on_time": 1.374, "note_off_time": 1.545}, {"pitch": 42, "velocity": 80, "note_on_time": 1.375, "note_off_time": 1.545}, {"pitch": 64, "velocity": 80, "note_on_time": 1.545, "note_off_time": 1.715}, {"pitch": 42, "velocity": 80, "note_on_time": 1.545, "note_off_time": 1.716}, {"pitch": 64, "velocity": 80, "note_on_time": 1.716, "note_off_time": 1.889}, {"pitch": 42, "velocity": 80, "note_on_time": 1.716, "note_off_time": 1.889}, {"pitch": 67, "velocity": 80, "note_on_time": 1.889, "note_off_time": 2.059}, {"pitch": 42, "velocity": 80, "note_on_time": 1.889, "note_off_time": 2.06}, {"pitch": 60, "velocity": 80, "note_on_time": 2.059, "note_off_time": 2.23}, {"pitch": 42, "velocity": 80, "note_on_time": 2.06, "note_off_time": 2.231}, {"pitch": 42, "velocity": 80, "note_on_time": 2.231, "note_off_time": 2.403}, {"pitch": 64, "velocity": 80, "note_on_time": 2.23, "note_off_time": 2.575}, {"pitch": 42, "velocity": 80, "note_on_time": 2.403, "note_off_time": 2.576}, {"pitch": 60, "velocity": 80, "note_on_time": 2.575, "note_off_time": 2.747}, {"pitch": 42, "velocity": 80, "note_on_time": 2.576, "note_off_time": 2.747}, {"pitch": 42, "velocity": 80, "note_on_time": 2.747, "note_off_time": 2.92}, {"pitch": 67, "velocity": 80, "note_on_time": 2.747, "note_off_time": 3.093}, {"pitch": 42, "velocity": 80, "note_on_time": 2.921, "note_off_time": 3.093}, {"pitch": 42, "velocity": 80, "note_on_time": 3.094, "note_off_time": 3.264}, {"pitch": 64, "velocity": 80, "note_on_time": 3.264, "note_off_time": 3.438}, {"pitch": 42, "velocity": 80, "note_on_time": 3.264, "note_off_time": 3.438}, {"pitch": 65, "velocity": 80, "note_on_time": 3.438, "note_off_time": 3.611}, {"pitch": 42, "velocity": 80, "note_on_time": 3.438, "note_off_time": 3.611}, {"pitch": 62, "velocity": 80, "note_on_time": 3.611, "note_off_time": 3.782}, {"pitch": 42, "velocity": 80, "note_on_time": 3.611, "note_off_time": 3.782}, {"pitch": 62, "velocity": 80, "note_on_time": 3.782, "note_off_time": 3.953}, {"pitch": 42, "velocity": 80, "note_on_time": 3.782, "note_off_time": 3.954}, {"pitch": 65, "velocity": 80, "note_on_time": 3.953, "note_off_time": 4.124}, {"pitch": 42, "velocity": 80, "note_on_time": 3.954, "note_off_time": 4.125}, {"pitch": 42, "velocity": 80, "note_on_time": 4.125, "note_off_time": 4.294}, {"pitch": 65, "velocity": 80, "note_on_time": 4.124, "note_off_time": 4.465}, {"pitch": 42, "velocity": 80, "note_on_time": 4.294, "note_off_time": 4.466}, {"pitch": 42, "velocity": 80, "note_on_time": 4.466, "note_off_time": 4.638}, {"pitch": 65, "velocity": 80, "note_on_time": 4.637, "note_off_time": 4.809}, {"pitch": 42, "velocity": 80, "note_on_time": 4.638, "note_off_time": 4.809}, {"pitch": 42, "velocity": 80, "note_on_time": 4.809, "note_off_time": 4.979}, {"pitch": 67, "velocity": 80, "note_on_time": 4.809, "note_off_time": 5.151}, {"pitch": 42, "velocity": 80, "note_on_time": 4.98, "note_off_time": 5.151}, {"pitch": 42, "velocity": 80, "note_on_time": 5.151, "note_off_time": 5.323}, {"pitch": 42, "velocity": 80, "note_on_time": 5.323, "note_off_time": 5.494}, {"pitch": 42, "velocity": 80, "note_on_time": 5.495, "note_off_time": 5.666}, {"pitch": 67, "velocity": 80, "note_on_time": 5.666, "note_off_time": 5.84}, {"pitch": 42, "velocity": 80, "note_on_time": 5.667, "note_off_time": 5.84}, {"pitch": 67, "velocity": 80, "note_on_time": 5.84, "note_off_time": 6.013}, {"pitch": 42, "velocity": 80, "note_on_time": 5.841, "note_off_time": 6.014}, {"pitch": 67, "velocity": 80, "note_on_time": 6.013, "note_off_time": 6.186}, {"pitch": 42, "velocity": 80, "note_on_time": 6.014, "note_off_time": 6.186}]</notes><options name="Option List">((4, 4), [0.5, 0.25], 3, 8, &lt;NoteRangePerHand.C_TO_G: 6&gt;, &lt;NoteRangePerHand.ONE_NOTE: 2&gt;, False, True, False, '365')</options></target_notes><trials><trial trial_no="1" timestamp="2022_12_08-12_28_26"><notes name="Played Notes">[{"pitch": 65, "velocity": 89, "note_on_time": 0.717, "note_off_time": 1.252}]</notes><guidance name="Guidance Mode">None</guidance><error name="Error value">1.330378</error></trial><trial trial_no="2" timestamp="2022_12_08-12_29_16"><notes name="Played Notes">[{"pitch": 65, "velocity": 82, "note_on_time": 0.686, "note_off_time": 1.162}, {"pitch": 65, "velocity": 77, "note_on_time": 1.366, "note_off_time": 1.553}, {"pitch": 64, "velocity": 73, "note_on_time": 1.543, "note_off_time": 1.611}, {"pitch": 64, "velocity": 71, "note_on_time": 1.717, "note_off_time": 1.878}, {"pitch": 67, "velocity": 67, "note_on_time": 1.894, "note_off_time": 2.079}, {"pitch": 60, "velocity": 65, "note_on_time": 2.083, "note_off_time": 2.283}, {"pitch": 64, "velocity": 74, "note_on_time": 2.272, "note_off_time": 2.576}, {"pitch": 60, "velocity": 72, "note_on_time": 2.6, "note_off_time": 2.777}, {"pitch": 67, "velocity": 79, "note_on_time": 2.802, "note_off_time": 3.157}, {"pitch": 64, "velocity": 74, "note_on_time": 3.301, "note_off_time": 3.484}, {"pitch": 65, "velocity": 76, "note_on_time": 3.482, "note_off_time": 3.636}, {"pitch": 62, "velocity": 78, "note_on_time": 3.653, "note_off_time": 3.729}, {"pitch": 62, "velocity": 83, "note_on_time": 3.813, "note_off_time": 3.951}, {"pitch": 65, "velocity": 87, "note_on_time": 3.959, "note_off_time": 4.036}, {"pitch": 65, "velocity": 86, "note_on_time": 4.13, "note_off_time": 4.474}, {"pitch": 65, "velocity": 76, "note_on_time": 4.645, "note_off_time": 4.766}, {"pitch": 67, "velocity": 79, "note_on_time": 4.825, "note_off_time": 5.427}, {"pitch": 67, "velocity": 82, "note_on_time": 5.656, "note_off_time": 5.73}, {"pitch": 67, "velocity": 72, "note_on_time": 5.832, "note_off_time": 5.908}, {"pitch": 67, "velocity": 68, "note_on_time": 6.006, "note_off_time": 6.161}]</notes><guidance name="Guidance Mode">None</guidance><error name="Error value">0.015952411764705885</error></trial><trial trial_no="3" timestamp="2022_12_08-12_29_35"><notes name="Played Notes">[{"pitch": 65, "velocity": 79, "note_on_time": 0.72, "note_off_time": 1.2}, {"pitch": 65, "velocity": 81, "note_on_time": 1.375, "note_off_time": 1.514}, {"pitch": 64, "velocity": 72, "note_on_time": 1.547, "note_off_time": 1.615}, {"pitch": 64, "velocity": 80, "note_on_time": 1.71, "note_off_time": 1.872}, {"pitch": 67, "velocity": 79, "note_on_time": 1.879, "note_off_time": 2.073}, {"pitch": 60, "velocity": 64, "note_on_time": 2.06, "note_off_time": 2.261}, {"pitch": 64, "velocity": 79, "note_on_time": 2.254, "note_off_time": 2.549}, {"pitch": 60, "velocity": 70, "note_on_time": 2.575, "note_off_time": 2.757}, {"pitch": 67, "velocity": 83, "note_on_time": 2.756, "note_off_time": 3.065}, {"pitch": 64, "velocity": 70, "note_on_time": 3.251, "note_off_time": 3.431}, {"pitch": 65, "velocity": 81, "note_on_time": 3.421, "note_off_time": 3.58}, {"pitch": 62, "velocity": 77, "note_on_time": 3.601, "note_off_time": 3.665}, {"pitch": 62, "velocity": 73, "note_on_time": 3.758, "note_off_time": 3.908}, {"pitch": 65, "velocity": 86, "note_on_time": 3.909, "note_off_time": 3.996}, {"pitch": 65, "velocity": 75, "note_on_time": 4.104, "note_off_time": 4.478}, {"pitch": 65, "velocity": 74, "note_on_time": 4.646, "note_off_time": 4.751}, {"pitch": 67, "velocity": 78, "note_on_time": 4.828, "note_off_time": 5.47}, {"pitch": 67, "velocity": 80, "note_on_time": 5.667, "note_off_time": 5.742}, {"pitch": 67, "velocity": 74, "note_on_time": 5.83, "note_off_time": 5.9}]</notes><guidance name="Guidance Mode">None</guidance><error name="Error value">0.08196870588235293</error></trial><trial trial_no="4" timestamp="2022_12_08-12_29_48"><notes name="Played Notes">[{"pitch": 65, "velocity": 78, "note_on_time": 0.667, "note_off_time": 1.168}, {"pitch": 65, "velocity": 75, "note_on_time": 1.363, "note_off_time": 1.521}, {"pitch": 64, "velocity": 76, "note_on_time": 1.526, "note_off_time": 1.597}, {"pitch": 64, "velocity": 73, "note_on_time": 1.707, "note_off_time": 1.872}, {"pitch": 67, "velocity": 73, "note_on_time": 1.888, "note_off_time": 2.075}, {"pitch": 60, "velocity": 72, "note_on_time": 2.064, "note_off_time": 2.237}, {"pitch": 64, "velocity": 76, "note_on_time": 2.236, "note_off_time": 2.552}, {"pitch": 60, "velocity": 62, "note_on_time": 2.563, "note_off_time": 2.705}, {"pitch": 67, "velocity": 78, "note_on_time": 2.74, "note_off_time": 3.061}, {"pitch": 64, "velocity": 71, "note_on_time": 3.283, "note_off_time": 3.44}, {"pitch": 65, "velocity": 74, "note_on_time": 3.455, "note_off_time": 3.59}, {"pitch": 62, "velocity": 73, "note_on_time": 3.621, "note_off_time": 3.686}, {"pitch": 62, "velocity": 72, "note_on_time": 3.786, "note_off_time": 3.941}, {"pitch": 65, "velocity": 80, "note_on_time": 3.94, "note_off_time": 4.01}, {"pitch": 65, "velocity": 82, "note_on_time": 4.124, "note_off_time": 4.482}, {"pitch": 65, "velocity": 80, "note_on_time": 4.646, "note_off_time": 4.755}, {"pitch": 67, "velocity": 83, "note_on_time": 4.823, "note_off_time": 5.44}, {"pitch": 67, "velocity": 81, "note_on_time": 5.637, "note_off_time": 5.712}, {"pitch": 67, "velocity": 72, "note_on_time": 5.804, "note_off_time": 5.876}, {"pitch": 67, "velocity": 70, "note_on_time": 5.987, "note_off_time": 6.156}]</notes><guidance name="Guidance Mode">None</guidance><error name="Error value">0.015707117647058937</error></trial><trial trial_no="5" timestamp="2022_12_08-12_30_02"><notes name="Played Notes">[{"pitch": 65, "velocity": 81, "note_on_time": 0.674, "note_off_time": 1.136}, {"pitch": 65, "velocity": 76, "note_on_time": 1.375, "note_off_time": 1.545}, {"pitch": 64, "velocity": 75, "note_on_time": 1.538, "note_off_time": 1.611}, {"pitch": 64, "velocity": 75, "note_on_time": 1.723, "note_off_time": 1.868}, {"pitch": 67, "velocity": 76, "note_on_time": 1.882, "note_off_time": 2.075}, {"pitch": 60, "velocity": 68, "note_on_time": 2.063, "note_off_time": 2.232}, {"pitch": 64, "velocity": 79, "note_on_time": 2.23, "note_off_time": 2.567}, {"pitch": 60, "velocity": 62, "note_on_time": 2.579, "note_off_time": 2.711}, {"pitch": 67, "velocity": 84, "note_on_time": 2.755, "note_off_time": 3.115}, {"pitch": 64, "velocity": 73, "note_on_time": 3.286, "note_off_time": 3.457}, {"pitch": 65, "velocity": 83, "note_on_time": 3.463, "note_off_time": 3.581}, {"pitch": 62, "velocity": 73, "note_on_time": 3.626, "note_off_time": 3.706}, {"pitch": 62, "velocity": 71, "note_on_time": 3.8, "note_off_time": 3.947}, {"pitch": 65, "velocity": 80, "note_on_time": 3.954, "note_off_time": 4.024}, {"pitch": 65, "velocity": 77, "note_on_time": 4.135, "note_off_time": 4.492}, {"pitch": 65, "velocity": 75, "note_on_time": 4.656, "note_off_time": 4.765}, {"pitch": 67, "velocity": 85, "note_on_time": 4.835, "note_off_time": 5.474}, {"pitch": 67, "velocity": 76, "note_on_time": 5.677, "note_off_time": 5.742}, {"pitch": 67, "velocity": 65, "note_on_time": 5.843, "note_off_time": 5.898}]</notes><guidance name="Guidance Mode">None</guidance><error name="Error value">0.08464452941176472</error></trial><trial trial_no="6" timestamp="2022_12_08-12_30_15"><notes name="Played Notes">[{"pitch": 65, "velocity": 82, "note_on_time": 0.684, "note_off_time": 1.213}, {"pitch": 65, "velocity": 77, "note_on_time": 1.41, "note_off_time": 1.571}, {"pitch": 64, "velocity": 76, "note_on_time": 1.569, "note_off_time": 1.632}, {"pitch": 64, "velocity": 72, "note_on_time": 1.754, "note_off_time": 1.893}, {"pitch": 67, "velocity": 70, "note_on_time": 1.916, "note_off_time": 2.093}, {"pitch": 60, "velocity": 73, "note_on_time": 2.079, "note_off_time": 2.254}, {"pitch": 64, "velocity": 81, "note_on_time": 2.255, "note_off_time": 2.578}, {"pitch": 60, "velocity": 71, "note_on_time": 2.583, "note_off_time": 2.705}, {"pitch": 67, "velocity": 84, "note_on_time": 2.754, "note_off_time": 3.123}, {"pitch": 64, "velocity": 74, "note_on_time": 3.301, "note_off_time": 3.459}, {"pitch": 65, "velocity": 73, "note_on_time": 3.473, "note_off_time": 3.612}, {"pitch": 62, "velocity": 71, "note_on_time": 3.63, "note_off_time": 3.693}, {"pitch": 62, "velocity": 72, "note_on_time": 3.805, "note_off_time": 3.955}, {"pitch": 65, "velocity": 80, "note_on_time": 3.967, "note_off_time": 4.04}, {"pitch": 65, "velocity": 83, "note_on_time": 4.151, "note_off_time": 4.489}, {"pitch": 65, "velocity": 83, "note_on_time": 4.653, "note_off_time": 4.763}, {"pitch": 67, "velocity": 90, "note_on_time": 4.831, "note_off_time": 5.469}, {"pitch": 67, "velocity": 85, "note_on_time": 5.693, "note_off_time": 5.765}, {"pitch": 67, "velocity": 74, "note_on_time": 5.864, "note_off_time": 5.944}]</notes><guidance name="Guidance Mode">None</guidance><error name="Error value">0.0854267647058823</error></trial></trials></MIDI>