<MIDI midiNo="2022_11_10-10_54_35"><target_notes><notes name="Note List">[{"pitch": 42, "velocity": 80, "note_on_time": 0.004, "note_off_time": 0.613}, {"pitch": 42, "velocity": 80, "note_on_time": 0.613, "note_off_time": 1.221}, {"pitch": 42, "velocity": 80, "note_on_time": 1.221, "note_off_time": 1.828}, {"pitch": 42, "velocity": 80, "note_on_time": 1.829, "note_off_time": 2.438}, {"pitch": 60, "velocity": 80, "note_on_time": 2.437, "note_off_time": 3.046}, {"pitch": 42, "velocity": 80, "note_on_time": 2.438, "note_off_time": 3.047}, {"pitch": 62, "velocity": 80, "note_on_time": 3.046, "note_off_time": 3.654}, {"pitch": 42, "velocity": 80, "note_on_time": 3.047, "note_off_time": 3.654}, {"pitch": 42, "velocity": 80, "note_on_time": 3.655, "note_off_time": 4.26}, {"pitch": 60, "velocity": 80, "note_on_time": 3.654, "note_off_time": 4.866}, {"pitch": 42, "velocity": 80, "note_on_time": 4.26, "note_off_time": 4.867}, {"pitch": 42, "velocity": 80, "note_on_time": 4.867, "note_off_time": 5.474}, {"pitch": 64, "velocity": 80, "note_on_time": 4.866, "note_off_time": 6.08}, {"pitch": 42, "velocity": 80, "note_on_time": 5.474, "note_off_time": 6.08}, {"pitch": 42, "velocity": 80, "note_on_time": 6.08, "note_off_time": 6.688}, {"pitch": 42, "velocity": 80, "note_on_time": 6.688, "note_off_time": 7.295}, {"pitch": 60, "velocity": 80, "note_on_time": 7.294, "note_off_time": 7.903}, {"pitch": 42, "velocity": 80, "note_on_time": 7.295, "note_off_time": 7.903}, {"pitch": 42, "velocity": 80, "note_on_time": 7.904, "note_off_time": 8.511}, {"pitch": 42, "velocity": 80, "note_on_time": 8.511, "note_off_time": 9.113}, {"pitch": 42, "velocity": 80, "note_on_time": 9.113, "note_off_time": 9.72}, {"pitch": 64, "velocity": 80, "note_on_time": 9.72, "note_off_time": 10.328}, {"pitch": 42, "velocity": 80, "note_on_time": 9.72, "note_off_time": 10.328}, {"pitch": 64, "velocity": 80, "note_on_time": 10.328, "note_off_time": 10.936}, {"pitch": 42, "velocity": 80, "note_on_time": 10.328, "note_off_time": 10.936}, {"pitch": 62, "velocity": 80, "note_on_time": 10.936, "note_off_time": 11.541}, {"pitch": 42, "velocity": 80, "note_on_time": 10.936, "note_off_time": 11.541}, {"pitch": 64, "velocity": 80, "note_on_time": 11.541, "note_off_time": 12.147}, {"pitch": 42, "velocity": 80, "note_on_time": 11.541, "note_off_time": 12.147}, {"pitch": 42, "velocity": 80, "note_on_time": 12.147, "note_off_time": 12.753}, {"pitch": 60, "velocity": 80, "note_on_time": 12.147, "note_off_time": 13.356}, {"pitch": 42, "velocity": 80, "note_on_time": 12.753, "note_off_time": 13.356}, {"pitch": 42, "velocity": 80, "note_on_time": 13.357, "note_off_time": 13.965}, {"pitch": 62, "velocity": 80, "note_on_time": 13.356, "note_off_time": 14.574}, {"pitch": 42, "velocity": 80, "note_on_time": 13.965, "note_off_time": 14.574}, {"pitch": 42, "velocity": 80, "note_on_time": 14.574, "note_off_time": 15.181}, {"pitch": 60, "velocity": 80, "note_on_time": 14.574, "note_off_time": 15.786}, {"pitch": 42, "velocity": 80, "note_on_time": 15.181, "note_off_time": 15.787}, {"pitch": 60, "velocity": 80, "note_on_time": 15.786, "note_off_time": 16.394}, {"pitch": 42, "velocity": 80, "note_on_time": 15.787, "note_off_time": 16.394}, {"pitch": 42, "velocity": 80, "note_on_time": 16.394, "note_off_time": 17.004}, {"pitch": 64, "velocity": 80, "note_on_time": 17.004, "note_off_time": 17.612}, {"pitch": 42, "velocity": 80, "note_on_time": 17.005, "note_off_time": 17.612}, {"pitch": 42, "velocity": 80, "note_on_time": 17.613, "note_off_time": 18.216}, {"pitch": 42, "velocity": 80, "note_on_time": 18.216, "note_off_time": 18.821}, {"pitch": 62, "velocity": 80, "note_on_time": 18.216, "note_off_time": 19.429}, {"pitch": 42, "velocity": 80, "note_on_time": 18.822, "note_off_time": 19.429}, {"pitch": 42, "velocity": 80, "note_on_time": 19.429, "note_off_time": 20.035}, {"pitch": 62, "velocity": 80, "note_on_time": 20.034, "note_off_time": 20.641}, {"pitch": 42, "velocity": 80, "note_on_time": 20.035, "note_off_time": 20.641}, {"pitch": 62, "velocity": 80, "note_on_time": 20.641, "note_off_time": 21.25}, {"pitch": 42, "velocity": 80, "note_on_time": 20.642, "note_off_time": 21.251}, {"pitch": 62, "velocity": 80, "note_on_time": 21.25, "note_off_time": 21.86}, {"pitch": 42, "velocity": 80, "note_on_time": 21.251, "note_off_time": 21.86}]</notes><options name="Option List">((4, 4), [0.5, 0.25], 3, 8, &lt;NoteRangePerHand.THREE_NOTES: 4&gt;, &lt;NoteRangePerHand.ONE_NOTE: 2&gt;, False, True, False, '100')</options></target_notes><trials><trial trial_no="1" timestamp="2022_11_10-10_54_12"><notes name="Played Notes">[{"pitch": 60, "velocity": 76, "note_on_time": 2.441, "note_off_time": 2.68}, {"pitch": 62, "velocity": 77, "note_on_time": 3.085, "note_off_time": 3.267}, {"pitch": 60, "velocity": 90, "note_on_time": 3.7, "note_off_time": 4.315}, {"pitch": 64, "velocity": 74, "note_on_time": 4.922, "note_off_time": 5.329}, {"pitch": 60, "velocity": 84, "note_on_time": 6.679, "note_off_time": 6.961}, {"pitch": 64, "velocity": 71, "note_on_time": 7.903, "note_off_time": 8.122}, {"pitch": 64, "velocity": 70, "note_on_time": 8.451, "note_off_time": 8.652}, {"pitch": 62, "velocity": 73, "note_on_time": 9.017, "note_off_time": 9.222}, {"pitch": 64, "velocity": 67, "note_on_time": 9.575, "note_off_time": 9.748}, {"pitch": 60, "velocity": 82, "note_on_time": 10.229, "note_off_time": 10.693}, {"pitch": 62, "velocity": 78, "note_on_time": 11.453, "note_off_time": 12.171}, {"pitch": 60, "velocity": 74, "note_on_time": 12.653, "note_off_time": 13.314}, {"pitch": 60, "velocity": 77, "note_on_time": 13.886, "note_off_time": 14.118}, {"pitch": 64, "velocity": 76, "note_on_time": 15.148, "note_off_time": 15.728}, {"pitch": 60, "velocity": 72, "note_on_time": 16.363, "note_off_time": 17.009}, {"pitch": 62, "velocity": 67, "note_on_time": 17.419, "note_off_time": 17.975}, {"pitch": 62, "velocity": 81, "note_on_time": 18.654, "note_off_time": 18.857}, {"pitch": 62, "velocity": 62, "note_on_time": 19.278, "note_off_time": 19.444}, {"pitch": 62, "velocity": 77, "note_on_time": 19.841, "note_off_time": 20.044}]</notes><guidance name="Guidance Mode">None</guidance><error name="Error value">0.9725333333333339</error></trial><trial trial_no="2" timestamp="2022_11_10-10_54_46"><notes name="Played Notes">[{"pitch": 60, "velocity": 83, "note_on_time": 2.348, "note_off_time": 2.902}, {"pitch": 62, "velocity": 68, "note_on_time": 3.586, "note_off_time": 3.811}, {"pitch": 60, "velocity": 79, "note_on_time": 4.165, "note_off_time": 4.993}, {"pitch": 64, "velocity": 84, "note_on_time": 5.479, "note_off_time": 6.063}, {"pitch": 60, "velocity": 90, "note_on_time": 7.294, "note_off_time": 7.51}, {"pitch": 62, "velocity": 69, "note_on_time": 8.556, "note_off_time": 8.804}, {"pitch": 62, "velocity": 77, "note_on_time": 9.102, "note_off_time": 9.35}, {"pitch": 60, "velocity": 84, "note_on_time": 9.68, "note_off_time": 9.97}, {"pitch": 64, "velocity": 74, "note_on_time": 10.869, "note_off_time": 11.084}, {"pitch": 64, "velocity": 57, "note_on_time": 11.387, "note_off_time": 11.608}, {"pitch": 62, "velocity": 66, "note_on_time": 11.982, "note_off_time": 12.253}, {"pitch": 64, "velocity": 60, "note_on_time": 12.566, "note_off_time": 12.783}, {"pitch": 60, "velocity": 64, "note_on_time": 13.173, "note_off_time": 13.786}, {"pitch": 62, "velocity": 83, "note_on_time": 14.458, "note_off_time": 15.025}, {"pitch": 60, "velocity": 84, "note_on_time": 15.623, "note_off_time": 16.165}, {"pitch": 60, "velocity": 69, "note_on_time": 16.91, "note_off_time": 17.201}, {"pitch": 62, "velocity": 69, "note_on_time": 17.613, "note_off_time": 17.904}, {"pitch": 64, "velocity": 57, "note_on_time": 18.49, "note_off_time": 18.768}, {"pitch": 62, "velocity": 77, "note_on_time": 19.106, "note_off_time": 19.405}, {"pitch": 62, "velocity": 72, "note_on_time": 20.53, "note_off_time": 20.715}, {"pitch": 62, "velocity": 73, "note_on_time": 21.098, "note_off_time": 21.247}]</notes><guidance name="Guidance Mode">None</guidance><error name="Error value">1.9508000000000005</error></trial><trial trial_no="3" timestamp="2022_11_10-10_55_23"><notes name="Played Notes">[{"pitch": 60, "velocity": 79, "note_on_time": 2.365, "note_off_time": 3.033}, {"pitch": 62, "velocity": 74, "note_on_time": 3.541, "note_off_time": 3.769}, {"pitch": 60, "velocity": 82, "note_on_time": 4.119, "note_off_time": 4.536}, {"pitch": 64, "velocity": 70, "note_on_time": 5.407, "note_off_time": 6.058}, {"pitch": 60, "velocity": 76, "note_on_time": 6.611, "note_off_time": 7.252}, {"pitch": 64, "velocity": 79, "note_on_time": 8.046, "note_off_time": 8.337}, {"pitch": 64, "velocity": 76, "note_on_time": 8.65, "note_off_time": 8.913}, {"pitch": 62, "velocity": 83, "note_on_time": 9.231, "note_off_time": 9.465}, {"pitch": 64, "velocity": 79, "note_on_time": 9.814, "note_off_time": 9.988}, {"pitch": 60, "velocity": 79, "note_on_time": 10.378, "note_off_time": 10.864}, {"pitch": 62, "velocity": 80, "note_on_time": 11.611, "note_off_time": 12.39}, {"pitch": 60, "velocity": 85, "note_on_time": 12.741, "note_off_time": 13.338}, {"pitch": 60, "velocity": 77, "note_on_time": 13.872, "note_off_time": 14.278}, {"pitch": 64, "velocity": 75, "note_on_time": 15.126, "note_off_time": 15.54}, {"pitch": 62, "velocity": 79, "note_on_time": 16.294, "note_off_time": 16.941}, {"pitch": 62, "velocity": 75, "note_on_time": 18.079, "note_off_time": 18.316}, {"pitch": 62, "velocity": 80, "note_on_time": 18.626, "note_off_time": 18.873}, {"pitch": 62, "velocity": 77, "note_on_time": 19.239, "note_off_time": 19.569}]</notes><guidance name="Guidance Mode">None</guidance><error name="Error value">0.21746666666666678</error></trial></trials></MIDI>