<MIDI midiNo="2022_10_27-10_18_36"><target_notes><notes name="Note List">[{"pitch": 42, "velocity": 80, "note_on_time": 0.004, "note_off_time": 0.381}, {"pitch": 42, "velocity": 80, "note_on_time": 0.382, "note_off_time": 0.753}, {"pitch": 42, "velocity": 80, "note_on_time": 0.754, "note_off_time": 1.127}, {"pitch": 42, "velocity": 80, "note_on_time": 1.127, "note_off_time": 1.498}, {"pitch": 62, "velocity": 80, "note_on_time": 1.497, "note_off_time": 1.869}, {"pitch": 42, "velocity": 80, "note_on_time": 1.498, "note_off_time": 1.87}, {"pitch": 60, "velocity": 80, "note_on_time": 1.869, "note_off_time": 2.244}, {"pitch": 42, "velocity": 80, "note_on_time": 1.87, "note_off_time": 2.244}, {"pitch": 60, "velocity": 80, "note_on_time": 2.244, "note_off_time": 2.617}, {"pitch": 42, "velocity": 80, "note_on_time": 2.244, "note_off_time": 2.617}, {"pitch": 62, "velocity": 80, "note_on_time": 2.617, "note_off_time": 2.99}, {"pitch": 42, "velocity": 80, "note_on_time": 2.617, "note_off_time": 2.99}, {"pitch": 60, "velocity": 80, "note_on_time": 2.99, "note_off_time": 3.362}, {"pitch": 42, "velocity": 80, "note_on_time": 2.99, "note_off_time": 3.362}, {"pitch": 60, "velocity": 80, "note_on_time": 3.362, "note_off_time": 3.735}, {"pitch": 42, "velocity": 80, "note_on_time": 3.362, "note_off_time": 3.735}, {"pitch": 60, "velocity": 80, "note_on_time": 3.735, "note_off_time": 4.109}, {"pitch": 42, "velocity": 80, "note_on_time": 3.735, "note_off_time": 4.109}, {"pitch": 42, "velocity": 80, "note_on_time": 4.109, "note_off_time": 4.482}, {"pitch": 62, "velocity": 80, "note_on_time": 4.481, "note_off_time": 4.856}, {"pitch": 42, "velocity": 80, "note_on_time": 4.482, "note_off_time": 4.856}, {"pitch": 62, "velocity": 80, "note_on_time": 4.856, "note_off_time": 5.23}, {"pitch": 42, "velocity": 80, "note_on_time": 4.857, "note_off_time": 5.23}, {"pitch": 60, "velocity": 80, "note_on_time": 5.23, "note_off_time": 5.604}, {"pitch": 42, "velocity": 80, "note_on_time": 5.231, "note_off_time": 5.604}, {"pitch": 60, "velocity": 80, "note_on_time": 5.604, "note_off_time": 5.979}, {"pitch": 42, "velocity": 80, "note_on_time": 5.604, "note_off_time": 5.98}, {"pitch": 60, "velocity": 80, "note_on_time": 5.979, "note_off_time": 6.35}, {"pitch": 42, "velocity": 80, "note_on_time": 5.98, "note_off_time": 6.35}, {"pitch": 42, "velocity": 80, "note_on_time": 6.35, "note_off_time": 6.723}, {"pitch": 60, "velocity": 80, "note_on_time": 6.723, "note_off_time": 7.095}, {"pitch": 42, "velocity": 80, "note_on_time": 6.724, "note_off_time": 7.095}, {"pitch": 42, "velocity": 80, "note_on_time": 7.096, "note_off_time": 7.467}, {"pitch": 62, "velocity": 80, "note_on_time": 7.467, "note_off_time": 7.841}, {"pitch": 42, "velocity": 80, "note_on_time": 7.467, "note_off_time": 7.841}, {"pitch": 60, "velocity": 80, "note_on_time": 7.841, "note_off_time": 8.213}, {"pitch": 42, "velocity": 80, "note_on_time": 7.841, "note_off_time": 8.213}, {"pitch": 60, "velocity": 80, "note_on_time": 8.213, "note_off_time": 8.589}, {"pitch": 42, "velocity": 80, "note_on_time": 8.213, "note_off_time": 8.589}, {"pitch": 60, "velocity": 80, "note_on_time": 8.589, "note_off_time": 8.965}, {"pitch": 42, "velocity": 80, "note_on_time": 8.59, "note_off_time": 8.965}, {"pitch": 60, "velocity": 80, "note_on_time": 8.965, "note_off_time": 9.339}, {"pitch": 42, "velocity": 80, "note_on_time": 8.966, "note_off_time": 9.34}, {"pitch": 42, "velocity": 80, "note_on_time": 9.34, "note_off_time": 9.713}, {"pitch": 60, "velocity": 80, "note_on_time": 9.712, "note_off_time": 10.086}, {"pitch": 42, "velocity": 80, "note_on_time": 9.713, "note_off_time": 10.086}, {"pitch": 42, "velocity": 80, "note_on_time": 10.087, "note_off_time": 10.461}, {"pitch": 60, "velocity": 80, "note_on_time": 10.461, "note_off_time": 10.834}, {"pitch": 42, "velocity": 80, "note_on_time": 10.461, "note_off_time": 10.835}, {"pitch": 62, "velocity": 80, "note_on_time": 10.834, "note_off_time": 11.21}, {"pitch": 42, "velocity": 80, "note_on_time": 10.835, "note_off_time": 11.21}, {"pitch": 60, "velocity": 80, "note_on_time": 11.21, "note_off_time": 11.585}, {"pitch": 42, "velocity": 80, "note_on_time": 11.21, "note_off_time": 11.586}, {"pitch": 60, "velocity": 80, "note_on_time": 11.585, "note_off_time": 11.959}, {"pitch": 42, "velocity": 80, "note_on_time": 11.586, "note_off_time": 11.96}, {"pitch": 42, "velocity": 80, "note_on_time": 11.96, "note_off_time": 12.333}, {"pitch": 60, "velocity": 80, "note_on_time": 12.332, "note_off_time": 12.707}, {"pitch": 42, "velocity": 80, "note_on_time": 12.333, "note_off_time": 12.708}, {"pitch": 60, "velocity": 80, "note_on_time": 12.707, "note_off_time": 13.084}, {"pitch": 42, "velocity": 80, "note_on_time": 12.708, "note_off_time": 13.084}, {"pitch": 60, "velocity": 80, "note_on_time": 13.084, "note_off_time": 13.456}, {"pitch": 42, "velocity": 80, "note_on_time": 13.085, "note_off_time": 13.456}]</notes><options name="Option List">((4, 4), [0.25], 3, 8, &lt;NoteRangePerHand.TWO_NOTES: 3&gt;, &lt;NoteRangePerHand.ONE_NOTE: 2&gt;, False, True, False, '166')</options></target_notes><trials><trial trial_no="1" timestamp="2022_10_27-10_20_18"><notes name="Played Notes">[{"pitch": 62, "velocity": 47, "note_on_time": 1.509, "note_off_time": 1.7}, {"pitch": 60, "velocity": 46, "note_on_time": 2.006, "note_off_time": 2.167}, {"pitch": 60, "velocity": 50, "note_on_time": 2.494, "note_off_time": 2.662}, {"pitch": 62, "velocity": 55, "note_on_time": 3.015, "note_off_time": 3.188}, {"pitch": 60, "velocity": 47, "note_on_time": 3.541, "note_off_time": 3.712}, {"pitch": 60, "velocity": 47, "note_on_time": 4.02, "note_off_time": 4.186}, {"pitch": 60, "velocity": 49, "note_on_time": 4.474, "note_off_time": 4.668}, {"pitch": 62, "velocity": 23, "note_on_time": 5.429, "note_off_time": 5.652}, {"pitch": 62, "velocity": 50, "note_on_time": 5.932, "note_off_time": 6.11}, {"pitch": 60, "velocity": 49, "note_on_time": 6.432, "note_off_time": 6.595}, {"pitch": 60, "velocity": 51, "note_on_time": 6.908, "note_off_time": 7.092}, {"pitch": 60, "velocity": 51, "note_on_time": 7.412, "note_off_time": 7.581}, {"pitch": 60, "velocity": 37, "note_on_time": 8.412, "note_off_time": 8.604}, {"pitch": 62, "velocity": 53, "note_on_time": 9.515, "note_off_time": 9.705}, {"pitch": 60, "velocity": 41, "note_on_time": 10.016, "note_off_time": 10.171}, {"pitch": 60, "velocity": 46, "note_on_time": 10.496, "note_off_time": 10.69}, {"pitch": 60, "velocity": 48, "note_on_time": 10.987, "note_off_time": 11.16}, {"pitch": 60, "velocity": 46, "note_on_time": 11.441, "note_off_time": 11.622}, {"pitch": 60, "velocity": 44, "note_on_time": 12.586, "note_off_time": 12.755}]</notes><guidance name="Guidance Mode">None</guidance><error name="Error value">0.6161110869565217</error></trial><trial trial_no="2" timestamp="2022_10_27-10_21_04"><notes name="Played Notes">[{"pitch": 62, "velocity": 46, "note_on_time": 1.666, "note_off_time": 1.854}, {"pitch": 60, "velocity": 47, "note_on_time": 2.257, "note_off_time": 2.416}, {"pitch": 60, "velocity": 48, "note_on_time": 2.703, "note_off_time": 2.872}, {"pitch": 60, "velocity": 41, "note_on_time": 3.172, "note_off_time": 3.357}, {"pitch": 62, "velocity": 30, "note_on_time": 4.051, "note_off_time": 4.23}, {"pitch": 60, "velocity": 51, "note_on_time": 4.573, "note_off_time": 4.747}, {"pitch": 60, "velocity": 49, "note_on_time": 5.07, "note_off_time": 5.225}, {"pitch": 60, "velocity": 50, "note_on_time": 5.539, "note_off_time": 5.725}, {"pitch": 62, "velocity": 40, "note_on_time": 6.586, "note_off_time": 6.772}, {"pitch": 62, "velocity": 45, "note_on_time": 7.043, "note_off_time": 7.21}, {"pitch": 60, "velocity": 46, "note_on_time": 7.489, "note_off_time": 7.669}, {"pitch": 60, "velocity": 43, "note_on_time": 7.952, "note_off_time": 8.113}, {"pitch": 60, "velocity": 57, "note_on_time": 8.481, "note_off_time": 8.67}, {"pitch": 60, "velocity": 37, "note_on_time": 9.428, "note_off_time": 9.603}, {"pitch": 62, "velocity": 53, "note_on_time": 9.911, "note_off_time": 10.092}, {"pitch": 60, "velocity": 39, "note_on_time": 10.443, "note_off_time": 10.626}, {"pitch": 60, "velocity": 43, "note_on_time": 10.934, "note_off_time": 11.108}, {"pitch": 60, "velocity": 46, "note_on_time": 11.379, "note_off_time": 11.559}, {"pitch": 60, "velocity": 47, "note_on_time": 11.927, "note_off_time": 12.1}, {"pitch": 60, "velocity": 51, "note_on_time": 13.128, "note_off_time": 13.318}]</notes><guidance name="Guidance Mode">None</guidance><error name="Error value">0.5268645652173913</error></trial><trial trial_no="3" timestamp="2022_10_27-10_21_38"><notes name="Played Notes">[{"pitch": 62, "velocity": 34, "note_on_time": 1.581, "note_off_time": 1.786}, {"pitch": 60, "velocity": 38, "note_on_time": 2.087, "note_off_time": 2.281}, {"pitch": 60, "velocity": 53, "note_on_time": 2.548, "note_off_time": 2.733}, {"pitch": 62, "velocity": 49, "note_on_time": 3.067, "note_off_time": 3.231}, {"pitch": 60, "velocity": 53, "note_on_time": 3.526, "note_off_time": 3.683}, {"pitch": 60, "velocity": 45, "note_on_time": 4.004, "note_off_time": 4.171}, {"pitch": 60, "velocity": 52, "note_on_time": 4.485, "note_off_time": 4.642}, {"pitch": 62, "velocity": 49, "note_on_time": 5.637, "note_off_time": 5.809}, {"pitch": 62, "velocity": 44, "note_on_time": 6.094, "note_off_time": 6.269}, {"pitch": 60, "velocity": 43, "note_on_time": 6.526, "note_off_time": 6.694}, {"pitch": 60, "velocity": 40, "note_on_time": 6.973, "note_off_time": 7.138}, {"pitch": 60, "velocity": 48, "note_on_time": 7.433, "note_off_time": 7.622}, {"pitch": 60, "velocity": 48, "note_on_time": 8.702, "note_off_time": 8.895}, {"pitch": 62, "velocity": 51, "note_on_time": 9.466, "note_off_time": 9.658}, {"pitch": 60, "velocity": 46, "note_on_time": 9.981, "note_off_time": 10.151}, {"pitch": 60, "velocity": 44, "note_on_time": 10.407, "note_off_time": 10.579}, {"pitch": 60, "velocity": 44, "note_on_time": 10.874, "note_off_time": 11.042}, {"pitch": 60, "velocity": 49, "note_on_time": 11.353, "note_off_time": 11.553}, {"pitch": 60, "velocity": 50, "note_on_time": 12.596, "note_off_time": 12.737}]</notes><guidance name="Guidance Mode">None</guidance><error name="Error value">0.7147778260869564</error></trial></trials></MIDI>