<MIDI midiNo="2022_10_02-13_21_06"><target_notes><notes name="Note List">[{"pitch": 42, "velocity": 80, "note_on_time": 0.005, "note_off_time": 0.262}, {"pitch": 42, "velocity": 80, "note_on_time": 0.262, "note_off_time": 0.512}, {"pitch": 42, "velocity": 80, "note_on_time": 0.512, "note_off_time": 0.763}, {"pitch": 42, "velocity": 80, "note_on_time": 0.763, "note_off_time": 1.011}, {"pitch": 62, "velocity": 80, "note_on_time": 1.011, "note_off_time": 1.258}, {"pitch": 42, "velocity": 80, "note_on_time": 1.011, "note_off_time": 1.258}, {"pitch": 42, "velocity": 80, "note_on_time": 1.258, "note_off_time": 1.506}, {"pitch": 60, "velocity": 80, "note_on_time": 1.506, "note_off_time": 1.753}, {"pitch": 42, "velocity": 80, "note_on_time": 1.507, "note_off_time": 1.753}, {"pitch": 62, "velocity": 80, "note_on_time": 1.753, "note_off_time": 2.003}, {"pitch": 42, "velocity": 80, "note_on_time": 1.754, "note_off_time": 2.003}, {"pitch": 60, "velocity": 80, "note_on_time": 2.003, "note_off_time": 2.252}, {"pitch": 42, "velocity": 80, "note_on_time": 2.003, "note_off_time": 2.252}, {"pitch": 64, "velocity": 80, "note_on_time": 2.252, "note_off_time": 2.502}, {"pitch": 42, "velocity": 80, "note_on_time": 2.252, "note_off_time": 2.503}, {"pitch": 62, "velocity": 80, "note_on_time": 2.502, "note_off_time": 2.751}, {"pitch": 42, "velocity": 80, "note_on_time": 2.503, "note_off_time": 2.752}, {"pitch": 62, "velocity": 80, "note_on_time": 2.751, "note_off_time": 3.0}, {"pitch": 42, "velocity": 80, "note_on_time": 2.752, "note_off_time": 3.0}, {"pitch": 64, "velocity": 80, "note_on_time": 3.0, "note_off_time": 3.25}, {"pitch": 42, "velocity": 80, "note_on_time": 3.001, "note_off_time": 3.25}, {"pitch": 42, "velocity": 80, "note_on_time": 3.25, "note_off_time": 3.501}, {"pitch": 62, "velocity": 80, "note_on_time": 3.501, "note_off_time": 3.749}, {"pitch": 42, "velocity": 80, "note_on_time": 3.501, "note_off_time": 3.749}, {"pitch": 42, "velocity": 80, "note_on_time": 3.749, "note_off_time": 3.999}, {"pitch": 62, "velocity": 80, "note_on_time": 3.999, "note_off_time": 4.252}, {"pitch": 42, "velocity": 80, "note_on_time": 4.0, "note_off_time": 4.252}, {"pitch": 64, "velocity": 80, "note_on_time": 4.252, "note_off_time": 4.502}, {"pitch": 42, "velocity": 80, "note_on_time": 4.252, "note_off_time": 4.502}, {"pitch": 62, "velocity": 80, "note_on_time": 4.502, "note_off_time": 4.75}, {"pitch": 42, "velocity": 80, "note_on_time": 4.502, "note_off_time": 4.751}, {"pitch": 60, "velocity": 80, "note_on_time": 4.75, "note_off_time": 5.001}, {"pitch": 42, "velocity": 80, "note_on_time": 4.751, "note_off_time": 5.001}, {"pitch": 60, "velocity": 80, "note_on_time": 5.001, "note_off_time": 5.25}, {"pitch": 42, "velocity": 80, "note_on_time": 5.002, "note_off_time": 5.25}, {"pitch": 64, "velocity": 80, "note_on_time": 5.25, "note_off_time": 5.5}, {"pitch": 42, "velocity": 80, "note_on_time": 5.25, "note_off_time": 5.501}, {"pitch": 42, "velocity": 80, "note_on_time": 5.501, "note_off_time": 5.748}, {"pitch": 64, "velocity": 80, "note_on_time": 5.747, "note_off_time": 5.995}, {"pitch": 42, "velocity": 80, "note_on_time": 5.748, "note_off_time": 5.995}, {"pitch": 60, "velocity": 80, "note_on_time": 5.995, "note_off_time": 6.242}, {"pitch": 42, "velocity": 80, "note_on_time": 5.996, "note_off_time": 6.242}, {"pitch": 64, "velocity": 80, "note_on_time": 6.242, "note_off_time": 6.489}, {"pitch": 42, "velocity": 80, "note_on_time": 6.242, "note_off_time": 6.49}, {"pitch": 64, "velocity": 80, "note_on_time": 6.489, "note_off_time": 6.74}, {"pitch": 42, "velocity": 80, "note_on_time": 6.49, "note_off_time": 6.74}, {"pitch": 60, "velocity": 80, "note_on_time": 6.74, "note_off_time": 6.988}, {"pitch": 42, "velocity": 80, "note_on_time": 6.74, "note_off_time": 6.988}, {"pitch": 64, "velocity": 80, "note_on_time": 6.988, "note_off_time": 7.237}, {"pitch": 42, "velocity": 80, "note_on_time": 6.988, "note_off_time": 7.237}, {"pitch": 62, "velocity": 80, "note_on_time": 7.237, "note_off_time": 7.487}, {"pitch": 42, "velocity": 80, "note_on_time": 7.237, "note_off_time": 7.487}, {"pitch": 60, "velocity": 80, "note_on_time": 7.487, "note_off_time": 7.737}, {"pitch": 42, "velocity": 80, "note_on_time": 7.487, "note_off_time": 7.737}, {"pitch": 42, "velocity": 80, "note_on_time": 7.738, "note_off_time": 7.985}, {"pitch": 42, "velocity": 80, "note_on_time": 7.985, "note_off_time": 8.234}, {"pitch": 60, "velocity": 80, "note_on_time": 8.234, "note_off_time": 8.483}, {"pitch": 42, "velocity": 80, "note_on_time": 8.234, "note_off_time": 8.483}, {"pitch": 60, "velocity": 80, "note_on_time": 8.483, "note_off_time": 8.732}, {"pitch": 42, "velocity": 80, "note_on_time": 8.483, "note_off_time": 8.732}, {"pitch": 60, "velocity": 80, "note_on_time": 8.732, "note_off_time": 8.98}, {"pitch": 42, "velocity": 80, "note_on_time": 8.732, "note_off_time": 8.98}]</notes><options name="Option List">((4, 4), [0.25], 3, 8, &lt;NoteRangePerHand.THREE_NOTES: 4&gt;, &lt;NoteRangePerHand.ONE_NOTE: 2&gt;, False, True, True, '248')</options></target_notes><trials><trial trial_no="1" timestamp="2022_10_02-13_20_56"><notes name="Played Notes">[{"pitch": 62, "velocity": 59, "note_on_time": 1.036, "note_off_time": 1.27}, {"pitch": 60, "velocity": 54, "note_on_time": 1.983, "note_off_time": 2.18}, {"pitch": 62, "velocity": 43, "note_on_time": 2.269, "note_off_time": 2.463}, {"pitch": 60, "velocity": 51, "note_on_time": 2.489, "note_off_time": 2.722}, {"pitch": 64, "velocity": 55, "note_on_time": 2.763, "note_off_time": 2.959}, {"pitch": 62, "velocity": 37, "note_on_time": 3.025, "note_off_time": 3.132}, {"pitch": 62, "velocity": 52, "note_on_time": 3.263, "note_off_time": 3.5}, {"pitch": 64, "velocity": 56, "note_on_time": 3.538, "note_off_time": 3.723}, {"pitch": 62, "velocity": 63, "note_on_time": 4.426, "note_off_time": 4.575}, {"pitch": 62, "velocity": 49, "note_on_time": 4.703, "note_off_time": 4.947}, {"pitch": 64, "velocity": 58, "note_on_time": 4.98, "note_off_time": 5.216}, {"pitch": 62, "velocity": 59, "note_on_time": 5.249, "note_off_time": 5.524}, {"pitch": 60, "velocity": 64, "note_on_time": 5.511, "note_off_time": 5.658}, {"pitch": 60, "velocity": 60, "note_on_time": 5.766, "note_off_time": 6.007}, {"pitch": 64, "velocity": 50, "note_on_time": 6.047, "note_off_time": 6.249}, {"pitch": 64, "velocity": 46, "note_on_time": 6.639, "note_off_time": 6.87}, {"pitch": 60, "velocity": 45, "note_on_time": 6.949, "note_off_time": 7.093}, {"pitch": 64, "velocity": 44, "note_on_time": 7.225, "note_off_time": 7.359}, {"pitch": 64, "velocity": 56, "note_on_time": 7.485, "note_off_time": 7.703}, {"pitch": 60, "velocity": 39, "note_on_time": 7.798, "note_off_time": 7.919}, {"pitch": 64, "velocity": 50, "note_on_time": 8.032, "note_off_time": 8.304}, {"pitch": 62, "velocity": 55, "note_on_time": 8.315, "note_off_time": 8.538}, {"pitch": 60, "velocity": 64, "note_on_time": 8.56, "note_off_time": 8.734}]</notes><guidance name="Guidance Mode">None</guidance><error name="Error value">0.583538695652174</error></trial><trial trial_no="2" timestamp="2022_10_02-13_21_23"><notes name="Played Notes">[{"pitch": 62, "velocity": 59, "note_on_time": 0.993, "note_off_time": 1.218}, {"pitch": 60, "velocity": 60, "note_on_time": 1.514, "note_off_time": 1.724}, {"pitch": 62, "velocity": 52, "note_on_time": 1.81, "note_off_time": 2.01}, {"pitch": 60, "velocity": 56, "note_on_time": 2.035, "note_off_time": 2.2}, {"pitch": 64, "velocity": 60, "note_on_time": 2.279, "note_off_time": 2.433}, {"pitch": 62, "velocity": 39, "note_on_time": 2.569, "note_off_time": 2.738}, {"pitch": 62, "velocity": 59, "note_on_time": 2.829, "note_off_time": 3.028}, {"pitch": 64, "velocity": 58, "note_on_time": 3.323, "note_off_time": 3.527}, {"pitch": 62, "velocity": 54, "note_on_time": 3.572, "note_off_time": 3.745}, {"pitch": 62, "velocity": 65, "note_on_time": 4.459, "note_off_time": 4.7}, {"pitch": 64, "velocity": 61, "note_on_time": 4.71, "note_off_time": 4.975}, {"pitch": 62, "velocity": 57, "note_on_time": 4.958, "note_off_time": 5.153}, {"pitch": 60, "velocity": 53, "note_on_time": 5.205, "note_off_time": 5.331}, {"pitch": 60, "velocity": 62, "note_on_time": 5.457, "note_off_time": 5.67}, {"pitch": 64, "velocity": 43, "note_on_time": 5.706, "note_off_time": 5.903}, {"pitch": 64, "velocity": 58, "note_on_time": 6.235, "note_off_time": 6.438}, {"pitch": 60, "velocity": 57, "note_on_time": 6.485, "note_off_time": 6.636}, {"pitch": 64, "velocity": 42, "note_on_time": 6.72, "note_off_time": 6.874}, {"pitch": 64, "velocity": 64, "note_on_time": 6.981, "note_off_time": 7.164}, {"pitch": 60, "velocity": 54, "note_on_time": 7.234, "note_off_time": 7.425}, {"pitch": 64, "velocity": 59, "note_on_time": 7.46, "note_off_time": 7.733}, {"pitch": 62, "velocity": 57, "note_on_time": 7.716, "note_off_time": 7.947}, {"pitch": 60, "velocity": 71, "note_on_time": 7.95, "note_off_time": 8.103}]</notes><guidance name="Guidance Mode">None</guidance><error name="Error value">0.34516152173913056</error></trial><trial trial_no="3" timestamp="2022_10_02-13_21_49"><notes name="Played Notes">[{"pitch": 62, "velocity": 59, "note_on_time": 1.024, "note_off_time": 1.256}, {"pitch": 60, "velocity": 56, "note_on_time": 1.521, "note_off_time": 1.762}, {"pitch": 62, "velocity": 50, "note_on_time": 1.818, "note_off_time": 2.04}, {"pitch": 60, "velocity": 55, "note_on_time": 2.044, "note_off_time": 2.257}, {"pitch": 64, "velocity": 56, "note_on_time": 2.283, "note_off_time": 2.506}, {"pitch": 62, "velocity": 59, "note_on_time": 2.555, "note_off_time": 2.675}, {"pitch": 62, "velocity": 62, "note_on_time": 2.816, "note_off_time": 2.999}, {"pitch": 64, "velocity": 54, "note_on_time": 3.062, "note_off_time": 3.265}, {"pitch": 62, "velocity": 29, "note_on_time": 3.546, "note_off_time": 3.743}, {"pitch": 64, "velocity": 53, "note_on_time": 4.056, "note_off_time": 4.254}, {"pitch": 64, "velocity": 61, "note_on_time": 4.514, "note_off_time": 4.777}, {"pitch": 62, "velocity": 64, "note_on_time": 4.777, "note_off_time": 5.0}, {"pitch": 60, "velocity": 59, "note_on_time": 5.011, "note_off_time": 5.14}, {"pitch": 60, "velocity": 64, "note_on_time": 5.258, "note_off_time": 5.433}, {"pitch": 64, "velocity": 55, "note_on_time": 5.498, "note_off_time": 5.702}, {"pitch": 64, "velocity": 68, "note_on_time": 6.024, "note_off_time": 6.294}, {"pitch": 60, "velocity": 62, "note_on_time": 6.489, "note_off_time": 6.665}, {"pitch": 64, "velocity": 55, "note_on_time": 6.756, "note_off_time": 6.955}, {"pitch": 64, "velocity": 61, "note_on_time": 7.042, "note_off_time": 7.232}, {"pitch": 60, "velocity": 46, "note_on_time": 7.315, "note_off_time": 7.461}, {"pitch": 64, "velocity": 59, "note_on_time": 7.514, "note_off_time": 7.818}, {"pitch": 62, "velocity": 57, "note_on_time": 7.772, "note_off_time": 8.056}, {"pitch": 60, "velocity": 69, "note_on_time": 8.035, "note_off_time": 8.195}]</notes><guidance name="Guidance Mode">None</guidance><error name="Error value">0.41494413043478273</error></trial><trial trial_no="4" timestamp="2022_10_02-13_22_17"><notes name="Played Notes">[{"pitch": 62, "velocity": 62, "note_on_time": 1.07, "note_off_time": 1.265}, {"pitch": 60, "velocity": 61, "note_on_time": 1.584, "note_off_time": 1.814}, {"pitch": 62, "velocity": 50, "note_on_time": 1.865, "note_off_time": 2.089}, {"pitch": 60, "velocity": 64, "note_on_time": 2.087, "note_off_time": 2.277}, {"pitch": 64, "velocity": 60, "note_on_time": 2.337, "note_off_time": 2.56}, {"pitch": 62, "velocity": 52, "note_on_time": 2.565, "note_off_time": 2.712}, {"pitch": 62, "velocity": 52, "note_on_time": 2.832, "note_off_time": 3.0}, {"pitch": 64, "velocity": 64, "note_on_time": 3.09, "note_off_time": 3.274}, {"pitch": 62, "velocity": 70, "note_on_time": 3.569, "note_off_time": 3.75}, {"pitch": 64, "velocity": 65, "note_on_time": 4.046, "note_off_time": 4.228}, {"pitch": 62, "velocity": 59, "note_on_time": 4.335, "note_off_time": 4.493}, {"pitch": 62, "velocity": 43, "note_on_time": 4.577, "note_off_time": 4.708}, {"pitch": 60, "velocity": 51, "note_on_time": 4.657, "note_off_time": 5.014}, {"pitch": 62, "velocity": 48, "note_on_time": 5.144, "note_off_time": 5.32}, {"pitch": 64, "velocity": 41, "note_on_time": 5.466, "note_off_time": 5.594}, {"pitch": 64, "velocity": 51, "note_on_time": 5.71, "note_off_time": 5.906}, {"pitch": 62, "velocity": 45, "note_on_time": 6.014, "note_off_time": 6.193}, {"pitch": 60, "velocity": 64, "note_on_time": 7.152, "note_off_time": 7.366}, {"pitch": 64, "velocity": 60, "note_on_time": 7.404, "note_off_time": 7.547}, {"pitch": 64, "velocity": 57, "note_on_time": 7.663, "note_off_time": 7.871}, {"pitch": 60, "velocity": 49, "note_on_time": 7.968, "note_off_time": 8.208}, {"pitch": 64, "velocity": 53, "note_on_time": 8.247, "note_off_time": 8.522}, {"pitch": 62, "velocity": 42, "note_on_time": 8.495, "note_off_time": 8.832}, {"pitch": 60, "velocity": 63, "note_on_time": 8.787, "note_off_time": 8.975}]</notes><guidance name="Guidance Mode">None</guidance><error name="Error value">0.5146634782608696</error></trial><trial trial_no="5" timestamp="2022_10_02-13_23_10"><notes name="Played Notes">[{"pitch": 62, "velocity": 61, "note_on_time": 1.035, "note_off_time": 1.228}, {"pitch": 60, "velocity": 60, "note_on_time": 1.555, "note_off_time": 1.764}, {"pitch": 62, "velocity": 53, "note_on_time": 1.801, "note_off_time": 2.039}, {"pitch": 60, "velocity": 58, "note_on_time": 2.064, "note_off_time": 2.278}, {"pitch": 64, "velocity": 59, "note_on_time": 2.287, "note_off_time": 2.527}, {"pitch": 62, "velocity": 56, "note_on_time": 2.557, "note_off_time": 2.683}, {"pitch": 62, "velocity": 58, "note_on_time": 2.811, "note_off_time": 2.996}, {"pitch": 64, "velocity": 60, "note_on_time": 3.088, "note_off_time": 3.257}, {"pitch": 62, "velocity": 61, "note_on_time": 3.541, "note_off_time": 3.698}, {"pitch": 62, "velocity": 59, "note_on_time": 3.81, "note_off_time": 3.959}, {"pitch": 64, "velocity": 56, "note_on_time": 4.071, "note_off_time": 4.365}, {"pitch": 62, "velocity": 70, "note_on_time": 4.314, "note_off_time": 4.453}, {"pitch": 60, "velocity": 61, "note_on_time": 4.568, "note_off_time": 4.885}, {"pitch": 60, "velocity": 26, "note_on_time": 4.938, "note_off_time": 5.079}, {"pitch": 64, "velocity": 52, "note_on_time": 5.123, "note_off_time": 5.377}, {"pitch": 62, "velocity": 34, "note_on_time": 5.39, "note_off_time": 5.442}, {"pitch": 64, "velocity": 57, "note_on_time": 6.088, "note_off_time": 6.271}, {"pitch": 60, "velocity": 58, "note_on_time": 6.342, "note_off_time": 6.482}, {"pitch": 60, "velocity": 62, "note_on_time": 6.597, "note_off_time": 6.74}, {"pitch": 64, "velocity": 29, "note_on_time": 6.883, "note_off_time": 7.038}, {"pitch": 64, "velocity": 54, "note_on_time": 7.161, "note_off_time": 7.472}, {"pitch": 62, "velocity": 40, "note_on_time": 7.474, "note_off_time": 7.736}, {"pitch": 60, "velocity": 53, "note_on_time": 7.746, "note_off_time": 7.882}, {"pitch": 60, "velocity": 60, "note_on_time": 8.736, "note_off_time": 8.864}]</notes><guidance name="Guidance Mode">None</guidance><error name="Error value">0.3456171739130435</error></trial><trial trial_no="6" timestamp="2022_10_02-13_23_59"><notes name="Played Notes">[{"pitch": 62, "velocity": 63, "note_on_time": 1.018, "note_off_time": 1.262}, {"pitch": 60, "velocity": 63, "note_on_time": 1.583, "note_off_time": 1.791}, {"pitch": 62, "velocity": 51, "note_on_time": 1.853, "note_off_time": 2.072}, {"pitch": 60, "velocity": 58, "note_on_time": 2.098, "note_off_time": 2.291}, {"pitch": 64, "velocity": 51, "note_on_time": 2.334, "note_off_time": 2.538}, {"pitch": 62, "velocity": 54, "note_on_time": 2.585, "note_off_time": 2.68}, {"pitch": 62, "velocity": 46, "note_on_time": 2.824, "note_off_time": 2.972}, {"pitch": 64, "velocity": 59, "note_on_time": 3.08, "note_off_time": 3.253}, {"pitch": 62, "velocity": 62, "note_on_time": 3.569, "note_off_time": 3.731}, {"pitch": 64, "velocity": 59, "note_on_time": 3.83, "note_off_time": 4.018}, {"pitch": 62, "velocity": 51, "note_on_time": 4.079, "note_off_time": 4.157}, {"pitch": 62, "velocity": 52, "note_on_time": 4.286, "note_off_time": 4.383}, {"pitch": 62, "velocity": 37, "note_on_time": 4.538, "note_off_time": 4.639}, {"pitch": 60, "velocity": 49, "note_on_time": 4.637, "note_off_time": 4.765}, {"pitch": 60, "velocity": 56, "note_on_time": 4.917, "note_off_time": 5.136}, {"pitch": 62, "velocity": 52, "note_on_time": 5.176, "note_off_time": 5.362}, {"pitch": 64, "velocity": 60, "note_on_time": 5.716, "note_off_time": 5.905}, {"pitch": 60, "velocity": 49, "note_on_time": 5.975, "note_off_time": 6.107}, {"pitch": 64, "velocity": 57, "note_on_time": 6.253, "note_off_time": 6.375}, {"pitch": 64, "velocity": 54, "note_on_time": 6.491, "note_off_time": 6.699}, {"pitch": 60, "velocity": 49, "note_on_time": 6.776, "note_off_time": 6.933}, {"pitch": 64, "velocity": 49, "note_on_time": 6.997, "note_off_time": 7.261}, {"pitch": 62, "velocity": 50, "note_on_time": 7.25, "note_off_time": 7.5}, {"pitch": 60, "velocity": 58, "note_on_time": 7.506, "note_off_time": 7.679}, {"pitch": 60, "velocity": 59, "note_on_time": 8.235, "note_off_time": 8.378}, {"pitch": 60, "velocity": 55, "note_on_time": 8.505, "note_off_time": 8.628}, {"pitch": 60, "velocity": 66, "note_on_time": 8.753, "note_off_time": 8.919}]</notes><guidance name="Guidance Mode">None</guidance><error name="Error value">0.34705369565217387</error></trial></trials></MIDI>