<MIDI midiNo="2022_11_21-17_59_37"><target_notes><notes name="Note List">[{"pitch": 42, "velocity": 80, "note_on_time": 0.003, "note_off_time": 0.348}, {"pitch": 42, "velocity": 80, "note_on_time": 0.349, "note_off_time": 0.691}, {"pitch": 42, "velocity": 80, "note_on_time": 0.691, "note_off_time": 1.034}, {"pitch": 42, "velocity": 80, "note_on_time": 1.035, "note_off_time": 1.378}, {"pitch": 60, "velocity": 80, "note_on_time": 1.378, "note_off_time": 1.719}, {"pitch": 42, "velocity": 80, "note_on_time": 1.378, "note_off_time": 1.719}, {"pitch": 42, "velocity": 80, "note_on_time": 1.72, "note_off_time": 2.062}, {"pitch": 62, "velocity": 80, "note_on_time": 1.719, "note_off_time": 2.406}, {"pitch": 42, "velocity": 80, "note_on_time": 2.062, "note_off_time": 2.406}, {"pitch": 64, "velocity": 80, "note_on_time": 2.406, "note_off_time": 2.748}, {"pitch": 42, "velocity": 80, "note_on_time": 2.406, "note_off_time": 2.748}, {"pitch": 62, "velocity": 80, "note_on_time": 2.748, "note_off_time": 3.091}, {"pitch": 42, "velocity": 80, "note_on_time": 2.749, "note_off_time": 3.091}, {"pitch": 42, "velocity": 80, "note_on_time": 3.091, "note_off_time": 3.436}, {"pitch": 62, "velocity": 80, "note_on_time": 3.091, "note_off_time": 3.781}, {"pitch": 42, "velocity": 80, "note_on_time": 3.436, "note_off_time": 3.781}, {"pitch": 42, "velocity": 80, "note_on_time": 3.781, "note_off_time": 4.126}, {"pitch": 67, "velocity": 80, "note_on_time": 4.126, "note_off_time": 4.47}, {"pitch": 42, "velocity": 80, "note_on_time": 4.127, "note_off_time": 4.47}, {"pitch": 67, "velocity": 80, "note_on_time": 4.47, "note_off_time": 4.812}, {"pitch": 42, "velocity": 80, "note_on_time": 4.47, "note_off_time": 4.812}, {"pitch": 64, "velocity": 80, "note_on_time": 4.812, "note_off_time": 5.153}, {"pitch": 42, "velocity": 80, "note_on_time": 4.813, "note_off_time": 5.154}, {"pitch": 62, "velocity": 80, "note_on_time": 5.153, "note_off_time": 5.497}, {"pitch": 42, "velocity": 80, "note_on_time": 5.154, "note_off_time": 5.497}, {"pitch": 65, "velocity": 80, "note_on_time": 5.497, "note_off_time": 5.841}, {"pitch": 42, "velocity": 80, "note_on_time": 5.497, "note_off_time": 5.841}, {"pitch": 60, "velocity": 80, "note_on_time": 5.841, "note_off_time": 6.185}, {"pitch": 42, "velocity": 80, "note_on_time": 5.842, "note_off_time": 6.185}, {"pitch": 60, "velocity": 80, "note_on_time": 6.185, "note_off_time": 6.527}, {"pitch": 42, "velocity": 80, "note_on_time": 6.185, "note_off_time": 6.527}, {"pitch": 67, "velocity": 80, "note_on_time": 6.527, "note_off_time": 6.872}, {"pitch": 42, "velocity": 80, "note_on_time": 6.528, "note_off_time": 6.872}, {"pitch": 64, "velocity": 80, "note_on_time": 6.872, "note_off_time": 7.214}, {"pitch": 42, "velocity": 80, "note_on_time": 6.872, "note_off_time": 7.215}, {"pitch": 65, "velocity": 80, "note_on_time": 7.214, "note_off_time": 7.559}, {"pitch": 42, "velocity": 80, "note_on_time": 7.215, "note_off_time": 7.559}, {"pitch": 60, "velocity": 80, "note_on_time": 7.559, "note_off_time": 7.901}, {"pitch": 42, "velocity": 80, "note_on_time": 7.559, "note_off_time": 7.901}, {"pitch": 65, "velocity": 80, "note_on_time": 7.901, "note_off_time": 8.244}, {"pitch": 42, "velocity": 80, "note_on_time": 7.902, "note_off_time": 8.244}, {"pitch": 67, "velocity": 80, "note_on_time": 8.244, "note_off_time": 8.589}, {"pitch": 42, "velocity": 80, "note_on_time": 8.245, "note_off_time": 8.589}, {"pitch": 62, "velocity": 80, "note_on_time": 8.589, "note_off_time": 8.931}, {"pitch": 42, "velocity": 80, "note_on_time": 8.59, "note_off_time": 8.931}, {"pitch": 62, "velocity": 80, "note_on_time": 8.931, "note_off_time": 9.272}, {"pitch": 42, "velocity": 80, "note_on_time": 8.931, "note_off_time": 9.272}, {"pitch": 60, "velocity": 80, "note_on_time": 9.272, "note_off_time": 9.613}, {"pitch": 42, "velocity": 80, "note_on_time": 9.272, "note_off_time": 9.614}, {"pitch": 65, "velocity": 80, "note_on_time": 9.613, "note_off_time": 9.956}, {"pitch": 42, "velocity": 80, "note_on_time": 9.614, "note_off_time": 9.956}, {"pitch": 65, "velocity": 80, "note_on_time": 9.956, "note_off_time": 10.296}, {"pitch": 42, "velocity": 80, "note_on_time": 9.957, "note_off_time": 10.296}, {"pitch": 60, "velocity": 80, "note_on_time": 10.296, "note_off_time": 10.64}, {"pitch": 42, "velocity": 80, "note_on_time": 10.296, "note_off_time": 10.64}, {"pitch": 62, "velocity": 80, "note_on_time": 10.64, "note_off_time": 10.984}, {"pitch": 42, "velocity": 80, "note_on_time": 10.64, "note_off_time": 10.985}, {"pitch": 42, "velocity": 80, "note_on_time": 10.985, "note_off_time": 11.327}, {"pitch": 62, "velocity": 80, "note_on_time": 11.327, "note_off_time": 11.671}, {"pitch": 42, "velocity": 80, "note_on_time": 11.328, "note_off_time": 11.671}, {"pitch": 62, "velocity": 80, "note_on_time": 11.671, "note_off_time": 12.015}, {"pitch": 42, "velocity": 80, "note_on_time": 11.671, "note_off_time": 12.015}, {"pitch": 62, "velocity": 80, "note_on_time": 12.015, "note_off_time": 12.357}, {"pitch": 42, "velocity": 80, "note_on_time": 12.015, "note_off_time": 12.357}]</notes><options name="Option List">((4, 4), [0.5, 0.25], 3, 8, &lt;NoteRangePerHand.C_TO_G: 6&gt;, &lt;NoteRangePerHand.ONE_NOTE: 2&gt;, False, True, False, '182')</options></target_notes><trials><trial trial_no="1" timestamp="2022_11_21-17_59_23"><notes name="Played Notes">[{"pitch": 62, "velocity": 80, "note_on_time": 1.406, "note_off_time": 1.768}, {"pitch": 64, "velocity": 92, "note_on_time": 1.763, "note_off_time": 2.297}, {"pitch": 60, "velocity": 90, "note_on_time": 3.319, "note_off_time": 3.697}, {"pitch": 62, "velocity": 82, "note_on_time": 3.713, "note_off_time": 4.544}, {"pitch": 64, "velocity": 91, "note_on_time": 4.886, "note_off_time": 5.181}, {"pitch": 62, "velocity": 75, "note_on_time": 5.195, "note_off_time": 5.339}, {"pitch": 67, "velocity": 87, "note_on_time": 6.966, "note_off_time": 7.153}, {"pitch": 67, "velocity": 92, "note_on_time": 7.287, "note_off_time": 7.648}, {"pitch": 64, "velocity": 69, "note_on_time": 7.637, "note_off_time": 8.012}, {"pitch": 62, "velocity": 76, "note_on_time": 7.997, "note_off_time": 8.345}, {"pitch": 65, "velocity": 76, "note_on_time": 8.343, "note_off_time": 8.693}, {"pitch": 60, "velocity": 89, "note_on_time": 8.719, "note_off_time": 8.831}, {"pitch": 60, "velocity": 98, "note_on_time": 9.07, "note_off_time": 9.423}, {"pitch": 67, "velocity": 84, "note_on_time": 9.405, "note_off_time": 9.708}, {"pitch": 64, "velocity": 78, "note_on_time": 9.707, "note_off_time": 10.062}, {"pitch": 65, "velocity": 81, "note_on_time": 10.07, "note_off_time": 10.394}, {"pitch": 60, "velocity": 79, "note_on_time": 10.425, "note_off_time": 10.775}, {"pitch": 65, "velocity": 81, "note_on_time": 10.766, "note_off_time": 11.104}, {"pitch": 67, "velocity": 78, "note_on_time": 11.122, "note_off_time": 11.481}, {"pitch": 62, "velocity": 85, "note_on_time": 11.478, "note_off_time": 11.562}, {"pitch": 62, "velocity": 93, "note_on_time": 11.857, "note_off_time": 12.179}]</notes><guidance name="Guidance Mode">None</guidance><error name="Error value">1.0006128</error></trial><trial trial_no="2" timestamp="2022_11_21-17_59_55"><notes name="Played Notes">[{"pitch": 60, "velocity": 88, "note_on_time": 1.415, "note_off_time": 1.783}, {"pitch": 62, "velocity": 85, "note_on_time": 1.771, "note_off_time": 2.466}, {"pitch": 64, "velocity": 90, "note_on_time": 2.469, "note_off_time": 2.815}, {"pitch": 62, "velocity": 84, "note_on_time": 2.817, "note_off_time": 3.106}, {"pitch": 62, "velocity": 98, "note_on_time": 3.373, "note_off_time": 3.782}, {"pitch": 67, "velocity": 97, "note_on_time": 4.823, "note_off_time": 4.904}, {"pitch": 67, "velocity": 95, "note_on_time": 5.153, "note_off_time": 5.641}, {"pitch": 64, "velocity": 76, "note_on_time": 5.574, "note_off_time": 5.836}, {"pitch": 65, "velocity": 62, "note_on_time": 5.846, "note_off_time": 5.895}, {"pitch": 67, "velocity": 98, "note_on_time": 6.168, "note_off_time": 6.243}, {"pitch": 67, "velocity": 90, "note_on_time": 6.493, "note_off_time": 6.867}, {"pitch": 65, "velocity": 87, "note_on_time": 6.861, "note_off_time": 7.174}, {"pitch": 64, "velocity": 79, "note_on_time": 7.194, "note_off_time": 7.531}, {"pitch": 65, "velocity": 85, "note_on_time": 7.544, "note_off_time": 7.865}, {"pitch": 60, "velocity": 90, "note_on_time": 7.875, "note_off_time": 7.971}, {"pitch": 60, "velocity": 96, "note_on_time": 8.239, "note_off_time": 8.597}, {"pitch": 67, "velocity": 81, "note_on_time": 8.579, "note_off_time": 8.898}, {"pitch": 64, "velocity": 84, "note_on_time": 8.894, "note_off_time": 9.274}, {"pitch": 65, "velocity": 80, "note_on_time": 9.277, "note_off_time": 9.593}, {"pitch": 60, "velocity": 80, "note_on_time": 9.614, "note_off_time": 9.961}, {"pitch": 65, "velocity": 81, "note_on_time": 9.948, "note_off_time": 10.27}, {"pitch": 67, "velocity": 73, "note_on_time": 10.286, "note_off_time": 10.612}, {"pitch": 62, "velocity": 86, "note_on_time": 10.625, "note_off_time": 10.709}, {"pitch": 62, "velocity": 81, "note_on_time": 10.974, "note_off_time": 11.328}, {"pitch": 60, "velocity": 89, "note_on_time": 11.314, "note_off_time": 11.683}, {"pitch": 65, "velocity": 84, "note_on_time": 11.66, "note_off_time": 11.749}, {"pitch": 65, "velocity": 92, "note_on_time": 11.994, "note_off_time": 12.317}]</notes><guidance name="Guidance Mode">None</guidance><error name="Error value">0.6146248000000001</error></trial><trial trial_no="3" timestamp="2022_11_21-18_00_28"><notes name="Played Notes">[{"pitch": 60, "velocity": 89, "note_on_time": 1.366, "note_off_time": 1.722}, {"pitch": 62, "velocity": 87, "note_on_time": 1.731, "note_off_time": 2.584}, {"pitch": 64, "velocity": 91, "note_on_time": 2.741, "note_off_time": 2.97}, {"pitch": 64, "velocity": 94, "note_on_time": 3.198, "note_off_time": 3.743}, {"pitch": 60, "velocity": 87, "note_on_time": 4.006, "note_off_time": 4.219}, {"pitch": 62, "velocity": 73, "note_on_time": 4.46, "note_off_time": 4.596}, {"pitch": 62, "velocity": 76, "note_on_time": 4.815, "note_off_time": 5.299}, {"pitch": 67, "velocity": 94, "note_on_time": 5.928, "note_off_time": 5.998}, {"pitch": 67, "velocity": 88, "note_on_time": 6.226, "note_off_time": 6.569}, {"pitch": 65, "velocity": 85, "note_on_time": 6.577, "note_off_time": 6.9}, {"pitch": 62, "velocity": 81, "note_on_time": 6.917, "note_off_time": 7.237}, {"pitch": 64, "velocity": 76, "note_on_time": 7.243, "note_off_time": 7.595}, {"pitch": 60, "velocity": 88, "note_on_time": 7.563, "note_off_time": 7.647}, {"pitch": 60, "velocity": 77, "note_on_time": 7.93, "note_off_time": 8.262}, {"pitch": 67, "velocity": 81, "note_on_time": 8.243, "note_off_time": 8.58}, {"pitch": 64, "velocity": 79, "note_on_time": 8.571, "note_off_time": 8.925}, {"pitch": 65, "velocity": 82, "note_on_time": 8.923, "note_off_time": 9.259}, {"pitch": 60, "velocity": 89, "note_on_time": 9.284, "note_off_time": 9.648}, {"pitch": 65, "velocity": 95, "note_on_time": 9.632, "note_off_time": 9.934}, {"pitch": 67, "velocity": 78, "note_on_time": 9.929, "note_off_time": 10.303}, {"pitch": 62, "velocity": 81, "note_on_time": 10.303, "note_off_time": 10.38}, {"pitch": 62, "velocity": 90, "note_on_time": 10.656, "note_off_time": 10.989}, {"pitch": 60, "velocity": 89, "note_on_time": 10.973, "note_off_time": 11.279}, {"pitch": 65, "velocity": 87, "note_on_time": 11.287, "note_off_time": 11.377}, {"pitch": 65, "velocity": 92, "note_on_time": 11.634, "note_off_time": 11.951}, {"pitch": 60, "velocity": 88, "note_on_time": 11.978, "note_off_time": 12.32}]</notes><guidance name="Guidance Mode">None</guidance><error name="Error value">1.0352132</error></trial></trials></MIDI>