<MIDI midiNo="2022_08_17-15_09_19"><target_notes><notes name="Note List">[{"pitch": 42, "velocity": 80, "note_on_time": 0.004, "note_off_time": 0.418}, {"pitch": 42, "velocity": 80, "note_on_time": 0.418, "note_off_time": 0.822}, {"pitch": 42, "velocity": 80, "note_on_time": 0.822, "note_off_time": 1.228}, {"pitch": 42, "velocity": 80, "note_on_time": 1.228, "note_off_time": 1.633}, {"pitch": 42, "velocity": 80, "note_on_time": 1.634, "note_off_time": 2.042}, {"pitch": 67, "velocity": 80, "note_on_time": 1.633, "note_off_time": 2.446}, {"pitch": 42, "velocity": 80, "note_on_time": 2.042, "note_off_time": 2.446}, {"pitch": 42, "velocity": 80, "note_on_time": 2.447, "note_off_time": 2.852}, {"pitch": 42, "velocity": 80, "note_on_time": 2.852, "note_off_time": 3.26}, {"pitch": 64, "velocity": 80, "note_on_time": 3.259, "note_off_time": 3.664}, {"pitch": 42, "velocity": 80, "note_on_time": 3.26, "note_off_time": 3.664}, {"pitch": 62, "velocity": 80, "note_on_time": 3.664, "note_off_time": 4.067}, {"pitch": 42, "velocity": 80, "note_on_time": 3.664, "note_off_time": 4.068}, {"pitch": 64, "velocity": 80, "note_on_time": 4.067, "note_off_time": 4.476}, {"pitch": 42, "velocity": 80, "note_on_time": 4.068, "note_off_time": 4.476}, {"pitch": 67, "velocity": 80, "note_on_time": 4.476, "note_off_time": 4.883}, {"pitch": 42, "velocity": 80, "note_on_time": 4.476, "note_off_time": 4.883}, {"pitch": 60, "velocity": 80, "note_on_time": 4.883, "note_off_time": 5.289}, {"pitch": 42, "velocity": 80, "note_on_time": 4.883, "note_off_time": 5.289}, {"pitch": 42, "velocity": 80, "note_on_time": 5.289, "note_off_time": 5.694}, {"pitch": 67, "velocity": 80, "note_on_time": 5.289, "note_off_time": 6.103}, {"pitch": 42, "velocity": 80, "note_on_time": 5.694, "note_off_time": 6.103}, {"pitch": 60, "velocity": 80, "note_on_time": 6.103, "note_off_time": 6.505}, {"pitch": 42, "velocity": 80, "note_on_time": 6.104, "note_off_time": 6.505}, {"pitch": 65, "velocity": 80, "note_on_time": 6.505, "note_off_time": 6.91}, {"pitch": 42, "velocity": 80, "note_on_time": 6.505, "note_off_time": 6.91}, {"pitch": 64, "velocity": 80, "note_on_time": 6.91, "note_off_time": 7.314}, {"pitch": 42, "velocity": 80, "note_on_time": 6.91, "note_off_time": 7.314}, {"pitch": 65, "velocity": 80, "note_on_time": 7.314, "note_off_time": 7.718}, {"pitch": 42, "velocity": 80, "note_on_time": 7.314, "note_off_time": 7.718}, {"pitch": 62, "velocity": 80, "note_on_time": 7.718, "note_off_time": 8.122}, {"pitch": 42, "velocity": 80, "note_on_time": 7.718, "note_off_time": 8.122}, {"pitch": 60, "velocity": 80, "note_on_time": 8.122, "note_off_time": 8.528}, {"pitch": 42, "velocity": 80, "note_on_time": 8.122, "note_off_time": 8.528}, {"pitch": 62, "velocity": 80, "note_on_time": 8.528, "note_off_time": 8.934}, {"pitch": 42, "velocity": 80, "note_on_time": 8.529, "note_off_time": 8.934}, {"pitch": 65, "velocity": 80, "note_on_time": 8.934, "note_off_time": 9.34}, {"pitch": 42, "velocity": 80, "note_on_time": 8.934, "note_off_time": 9.34}, {"pitch": 60, "velocity": 80, "note_on_time": 9.34, "note_off_time": 9.743}, {"pitch": 42, "velocity": 80, "note_on_time": 9.34, "note_off_time": 9.743}, {"pitch": 60, "velocity": 80, "note_on_time": 9.743, "note_off_time": 10.15}, {"pitch": 42, "velocity": 80, "note_on_time": 9.744, "note_off_time": 10.15}, {"pitch": 62, "velocity": 80, "note_on_time": 10.15, "note_off_time": 10.556}, {"pitch": 42, "velocity": 80, "note_on_time": 10.15, "note_off_time": 10.556}, {"pitch": 42, "velocity": 80, "note_on_time": 10.557, "note_off_time": 10.961}, {"pitch": 60, "velocity": 80, "note_on_time": 10.556, "note_off_time": 11.365}, {"pitch": 42, "velocity": 80, "note_on_time": 10.961, "note_off_time": 11.366}, {"pitch": 64, "velocity": 80, "note_on_time": 11.365, "note_off_time": 11.771}, {"pitch": 42, "velocity": 80, "note_on_time": 11.366, "note_off_time": 11.771}, {"pitch": 65, "velocity": 80, "note_on_time": 11.771, "note_off_time": 12.176}, {"pitch": 42, "velocity": 80, "note_on_time": 11.771, "note_off_time": 12.176}, {"pitch": 65, "velocity": 80, "note_on_time": 12.176, "note_off_time": 12.582}, {"pitch": 42, "velocity": 80, "note_on_time": 12.176, "note_off_time": 12.582}, {"pitch": 65, "velocity": 80, "note_on_time": 12.582, "note_off_time": 12.986}, {"pitch": 42, "velocity": 80, "note_on_time": 12.582, "note_off_time": 12.987}, {"pitch": 42, "velocity": 80, "note_on_time": 12.987, "note_off_time": 13.391}, {"pitch": 65, "velocity": 80, "note_on_time": 13.391, "note_off_time": 13.796}, {"pitch": 42, "velocity": 80, "note_on_time": 13.392, "note_off_time": 13.796}, {"pitch": 65, "velocity": 80, "note_on_time": 13.796, "note_off_time": 14.205}, {"pitch": 42, "velocity": 80, "note_on_time": 13.796, "note_off_time": 14.205}, {"pitch": 65, "velocity": 80, "note_on_time": 14.205, "note_off_time": 14.611}, {"pitch": 42, "velocity": 80, "note_on_time": 14.205, "note_off_time": 14.611}]</notes><options name="Option List">((4, 4), [0.5, 0.25], 3, 8, &lt;NoteRangePerHand.C_TO_G: 6&gt;, &lt;NoteRangePerHand.ONE_NOTE: 2&gt;, False, True, True, 150)</options></target_notes><trials><trial trial_no="1" timestamp="2022_08_17-15_09_03"><notes name="Played Notes">[{"pitch": 67, "velocity": 61, "note_on_time": 1.615, "note_off_time": 2.177}, {"pitch": 64, "velocity": 72, "note_on_time": 3.234, "note_off_time": 3.396}, {"pitch": 62, "velocity": 76, "note_on_time": 3.639, "note_off_time": 3.75}, {"pitch": 64, "velocity": 68, "note_on_time": 4.051, "note_off_time": 4.134}, {"pitch": 67, "velocity": 64, "note_on_time": 4.431, "note_off_time": 4.564}, {"pitch": 60, "velocity": 69, "note_on_time": 4.841, "note_off_time": 4.946}, {"pitch": 67, "velocity": 72, "note_on_time": 5.254, "note_off_time": 5.894}, {"pitch": 60, "velocity": 73, "note_on_time": 6.272, "note_off_time": 6.35}, {"pitch": 65, "velocity": 69, "note_on_time": 6.674, "note_off_time": 6.779}, {"pitch": 64, "velocity": 63, "note_on_time": 7.152, "note_off_time": 7.248}, {"pitch": 65, "velocity": 69, "note_on_time": 7.549, "note_off_time": 7.655}, {"pitch": 62, "velocity": 73, "note_on_time": 7.929, "note_off_time": 8.025}, {"pitch": 60, "velocity": 74, "note_on_time": 8.346, "note_off_time": 8.444}, {"pitch": 62, "velocity": 67, "note_on_time": 8.796, "note_off_time": 8.858}, {"pitch": 65, "velocity": 70, "note_on_time": 9.235, "note_off_time": 9.314}, {"pitch": 60, "velocity": 68, "note_on_time": 9.693, "note_off_time": 9.755}, {"pitch": 60, "velocity": 71, "note_on_time": 10.155, "note_off_time": 10.219}, {"pitch": 62, "velocity": 71, "note_on_time": 10.579, "note_off_time": 10.655}, {"pitch": 60, "velocity": 67, "note_on_time": 11.018, "note_off_time": 11.497}, {"pitch": 64, "velocity": 75, "note_on_time": 11.841, "note_off_time": 11.941}, {"pitch": 65, "velocity": 67, "note_on_time": 12.203, "note_off_time": 12.296}, {"pitch": 65, "velocity": 77, "note_on_time": 12.623, "note_off_time": 12.726}, {"pitch": 65, "velocity": 72, "note_on_time": 13.036, "note_off_time": 13.121}, {"pitch": 65, "velocity": 79, "note_on_time": 13.784, "note_off_time": 13.896}, {"pitch": 65, "velocity": 76, "note_on_time": 14.206, "note_off_time": 14.3}]</notes><guidance name="Guidance Mode">None</guidance><error name="Error value">0.09813043478260843</error></trial><trial trial_no="2" timestamp="2022_08_17-15_09_32"><notes name="Played Notes">[{"pitch": 67, "velocity": 68, "note_on_time": 1.643, "note_off_time": 2.149}, {"pitch": 64, "velocity": 72, "note_on_time": 2.863, "note_off_time": 3.02}, {"pitch": 62, "velocity": 75, "note_on_time": 3.259, "note_off_time": 3.352}, {"pitch": 64, "velocity": 69, "note_on_time": 3.679, "note_off_time": 3.783}, {"pitch": 67, "velocity": 63, "note_on_time": 4.061, "note_off_time": 4.202}, {"pitch": 60, "velocity": 72, "note_on_time": 4.476, "note_off_time": 4.586}, {"pitch": 67, "velocity": 73, "note_on_time": 4.883, "note_off_time": 5.432}, {"pitch": 60, "velocity": 88, "note_on_time": 5.736, "note_off_time": 5.854}, {"pitch": 65, "velocity": 87, "note_on_time": 6.534, "note_off_time": 6.65}, {"pitch": 64, "velocity": 72, "note_on_time": 6.96, "note_off_time": 7.047}, {"pitch": 65, "velocity": 77, "note_on_time": 7.327, "note_off_time": 7.424}, {"pitch": 62, "velocity": 78, "note_on_time": 7.733, "note_off_time": 7.814}, {"pitch": 60, "velocity": 76, "note_on_time": 8.13, "note_off_time": 8.204}, {"pitch": 62, "velocity": 75, "note_on_time": 8.52, "note_off_time": 8.603}, {"pitch": 65, "velocity": 75, "note_on_time": 8.927, "note_off_time": 9.005}, {"pitch": 60, "velocity": 79, "note_on_time": 9.314, "note_off_time": 9.397}, {"pitch": 60, "velocity": 75, "note_on_time": 9.747, "note_off_time": 9.837}, {"pitch": 62, "velocity": 72, "note_on_time": 10.176, "note_off_time": 10.232}, {"pitch": 60, "velocity": 77, "note_on_time": 10.576, "note_off_time": 11.077}, {"pitch": 64, "velocity": 75, "note_on_time": 11.387, "note_off_time": 11.467}, {"pitch": 65, "velocity": 77, "note_on_time": 11.751, "note_off_time": 11.842}, {"pitch": 65, "velocity": 77, "note_on_time": 12.179, "note_off_time": 12.267}, {"pitch": 65, "velocity": 81, "note_on_time": 12.574, "note_off_time": 12.653}, {"pitch": 65, "velocity": 78, "note_on_time": 13.388, "note_off_time": 13.497}, {"pitch": 65, "velocity": 85, "note_on_time": 13.79, "note_off_time": 13.892}, {"pitch": 65, "velocity": 85, "note_on_time": 14.182, "note_off_time": 14.251}]</notes><guidance name="Guidance Mode">None</guidance><error name="Error value">0.05039130434782596</error></trial><trial trial_no="3" timestamp="2022_08_17-15_10_01"><notes name="Played Notes">[{"pitch": 67, "velocity": 67, "note_on_time": 1.673, "note_off_time": 2.171}, {"pitch": 64, "velocity": 74, "note_on_time": 3.22, "note_off_time": 3.34}, {"pitch": 62, "velocity": 68, "note_on_time": 3.629, "note_off_time": 3.716}, {"pitch": 64, "velocity": 73, "note_on_time": 4.026, "note_off_time": 4.117}, {"pitch": 67, "velocity": 63, "note_on_time": 4.417, "note_off_time": 4.546}, {"pitch": 60, "velocity": 70, "note_on_time": 4.853, "note_off_time": 4.923}, {"pitch": 67, "velocity": 71, "note_on_time": 5.27, "note_off_time": 5.867}, {"pitch": 60, "velocity": 70, "note_on_time": 6.194, "note_off_time": 6.53}, {"pitch": 65, "velocity": 70, "note_on_time": 6.909, "note_off_time": 6.989}, {"pitch": 64, "velocity": 57, "note_on_time": 7.33, "note_off_time": 7.418}, {"pitch": 65, "velocity": 73, "note_on_time": 7.742, "note_off_time": 7.816}, {"pitch": 62, "velocity": 67, "note_on_time": 8.142, "note_off_time": 8.197}, {"pitch": 60, "velocity": 77, "note_on_time": 8.545, "note_off_time": 8.611}, {"pitch": 62, "velocity": 68, "note_on_time": 8.96, "note_off_time": 9.009}, {"pitch": 65, "velocity": 71, "note_on_time": 9.347, "note_off_time": 9.431}, {"pitch": 60, "velocity": 69, "note_on_time": 9.727, "note_off_time": 9.815}, {"pitch": 60, "velocity": 72, "note_on_time": 10.18, "note_off_time": 10.238}, {"pitch": 62, "velocity": 77, "note_on_time": 10.545, "note_off_time": 10.598}, {"pitch": 60, "velocity": 69, "note_on_time": 10.936, "note_off_time": 11.464}, {"pitch": 64, "velocity": 82, "note_on_time": 11.958, "note_off_time": 12.031}, {"pitch": 65, "velocity": 79, "note_on_time": 12.306, "note_off_time": 12.361}, {"pitch": 65, "velocity": 74, "note_on_time": 12.731, "note_off_time": 12.811}, {"pitch": 65, "velocity": 73, "note_on_time": 13.104, "note_off_time": 13.158}, {"pitch": 65, "velocity": 72, "note_on_time": 13.815, "note_off_time": 13.896}, {"pitch": 65, "velocity": 76, "note_on_time": 14.199, "note_off_time": 14.292}, {"pitch": 65, "velocity": 78, "note_on_time": 14.548, "note_off_time": 14.608}]</notes><guidance name="Guidance Mode">None</guidance><error name="Error value">0.0534347826086958</error></trial><trial trial_no="4" timestamp="2022_08_17-15_10_53"><notes name="Played Notes">[{"pitch": 67, "velocity": 61, "note_on_time": 1.62, "note_off_time": 1.74}, {"pitch": 62, "velocity": 65, "note_on_time": 2.05, "note_off_time": 2.123}, {"pitch": 67, "velocity": 62, "note_on_time": 2.41, "note_off_time": 2.555}, {"pitch": 65, "velocity": 78, "note_on_time": 2.807, "note_off_time": 2.925}, {"pitch": 64, "velocity": 71, "note_on_time": 3.223, "note_off_time": 3.284}, {"pitch": 67, "velocity": 79, "note_on_time": 4.866, "note_off_time": 5.0}, {"pitch": 67, "velocity": 70, "note_on_time": 6.523, "note_off_time": 7.295}, {"pitch": 65, "velocity": 70, "note_on_time": 7.291, "note_off_time": 7.71}, {"pitch": 67, "velocity": 74, "note_on_time": 7.729, "note_off_time": 8.13}, {"pitch": 65, "velocity": 61, "note_on_time": 8.123, "note_off_time": 8.53}, {"pitch": 60, "velocity": 77, "note_on_time": 8.516, "note_off_time": 8.932}, {"pitch": 64, "velocity": 70, "note_on_time": 8.928, "note_off_time": 9.293}, {"pitch": 60, "velocity": 67, "note_on_time": 9.317, "note_off_time": 9.746}, {"pitch": 64, "velocity": 72, "note_on_time": 9.751, "note_off_time": 10.108}, {"pitch": 60, "velocity": 70, "note_on_time": 10.127, "note_off_time": 10.534}, {"pitch": 64, "velocity": 77, "note_on_time": 10.523, "note_off_time": 10.619}, {"pitch": 64, "velocity": 79, "note_on_time": 10.897, "note_off_time": 10.979}, {"pitch": 60, "velocity": 76, "note_on_time": 11.32, "note_off_time": 11.433}, {"pitch": 65, "velocity": 73, "note_on_time": 11.745, "note_off_time": 11.865}, {"pitch": 65, "velocity": 78, "note_on_time": 12.123, "note_off_time": 12.808}, {"pitch": 65, "velocity": 72, "note_on_time": 13.481, "note_off_time": 13.565}, {"pitch": 65, "velocity": 82, "note_on_time": 13.86, "note_off_time": 13.937}, {"pitch": 65, "velocity": 83, "note_on_time": 14.229, "note_off_time": 14.287}]</notes><guidance name="Guidance Mode">None</guidance><error name="Error value">0.9701739130434784</error></trial><trial trial_no="5" timestamp="2022_08_17-15_11_30"><notes name="Played Notes">[{"pitch": 67, "velocity": 65, "note_on_time": 1.641, "note_off_time": 1.8}, {"pitch": 62, "velocity": 59, "note_on_time": 2.073, "note_off_time": 2.16}, {"pitch": 67, "velocity": 74, "note_on_time": 2.446, "note_off_time": 2.586}, {"pitch": 65, "velocity": 71, "note_on_time": 2.866, "note_off_time": 2.964}, {"pitch": 64, "velocity": 70, "note_on_time": 3.289, "note_off_time": 3.374}, {"pitch": 67, "velocity": 68, "note_on_time": 4.933, "note_off_time": 5.067}, {"pitch": 67, "velocity": 72, "note_on_time": 6.556, "note_off_time": 7.347}, {"pitch": 65, "velocity": 65, "note_on_time": 7.347, "note_off_time": 7.742}, {"pitch": 67, "velocity": 71, "note_on_time": 7.767, "note_off_time": 8.183}, {"pitch": 65, "velocity": 59, "note_on_time": 8.176, "note_off_time": 8.597}, {"pitch": 60, "velocity": 64, "note_on_time": 8.591, "note_off_time": 9.002}, {"pitch": 64, "velocity": 57, "note_on_time": 9.006, "note_off_time": 9.396}, {"pitch": 60, "velocity": 70, "note_on_time": 9.41, "note_off_time": 9.797}, {"pitch": 64, "velocity": 67, "note_on_time": 9.807, "note_off_time": 10.222}, {"pitch": 60, "velocity": 65, "note_on_time": 10.236, "note_off_time": 10.653}, {"pitch": 64, "velocity": 68, "note_on_time": 10.64, "note_off_time": 10.747}, {"pitch": 64, "velocity": 74, "note_on_time": 11.072, "note_off_time": 11.166}, {"pitch": 60, "velocity": 78, "note_on_time": 11.483, "note_off_time": 11.576}, {"pitch": 65, "velocity": 69, "note_on_time": 11.925, "note_off_time": 12.034}, {"pitch": 65, "velocity": 75, "note_on_time": 12.335, "note_off_time": 13.014}, {"pitch": 65, "velocity": 87, "note_on_time": 13.799, "note_off_time": 13.887}, {"pitch": 65, "velocity": 80, "note_on_time": 14.21, "note_off_time": 14.277}, {"pitch": 65, "velocity": 79, "note_on_time": 14.585, "note_off_time": 14.638}]</notes><guidance name="Guidance Mode">None</guidance><error name="Error value">0.9870869565217392</error></trial><trial trial_no="6" timestamp="2022_08_17-15_11_59"><notes name="Played Notes">[{"pitch": 67, "velocity": 66, "note_on_time": 1.646, "note_off_time": 1.82}, {"pitch": 62, "velocity": 71, "note_on_time": 2.073, "note_off_time": 2.159}, {"pitch": 67, "velocity": 69, "note_on_time": 2.446, "note_off_time": 2.586}, {"pitch": 65, "velocity": 70, "note_on_time": 2.873, "note_off_time": 2.97}, {"pitch": 64, "velocity": 80, "note_on_time": 3.278, "note_off_time": 3.333}, {"pitch": 67, "velocity": 84, "note_on_time": 4.884, "note_off_time": 5.006}, {"pitch": 67, "velocity": 76, "note_on_time": 6.557, "note_off_time": 7.325}, {"pitch": 65, "velocity": 64, "note_on_time": 7.34, "note_off_time": 7.753}, {"pitch": 67, "velocity": 74, "note_on_time": 7.773, "note_off_time": 8.178}, {"pitch": 65, "velocity": 65, "note_on_time": 8.188, "note_off_time": 8.603}, {"pitch": 60, "velocity": 65, "note_on_time": 8.601, "note_off_time": 9.045}, {"pitch": 64, "velocity": 61, "note_on_time": 9.05, "note_off_time": 9.471}, {"pitch": 60, "velocity": 69, "note_on_time": 9.48, "note_off_time": 9.916}, {"pitch": 64, "velocity": 60, "note_on_time": 9.922, "note_off_time": 10.366}, {"pitch": 60, "velocity": 59, "note_on_time": 10.366, "note_off_time": 10.939}, {"pitch": 64, "velocity": 63, "note_on_time": 10.903, "note_off_time": 11.004}, {"pitch": 64, "velocity": 68, "note_on_time": 11.452, "note_off_time": 11.54}, {"pitch": 60, "velocity": 72, "note_on_time": 11.928, "note_off_time": 12.046}, {"pitch": 65, "velocity": 67, "note_on_time": 12.403, "note_off_time": 12.517}, {"pitch": 65, "velocity": 72, "note_on_time": 12.863, "note_off_time": 13.675}, {"pitch": 65, "velocity": 59, "note_on_time": 14.399, "note_off_time": 14.517}, {"pitch": 65, "velocity": 68, "note_on_time": 14.85, "note_off_time": 14.966}, {"pitch": 65, "velocity": 73, "note_on_time": 15.289, "note_off_time": 15.369}]</notes><guidance name="Guidance Mode">None</guidance><error name="Error value">0.9736086956521737</error></trial></trials></MIDI>