<MIDI midiNo="20220202-151830"><target_notes><notes name="Note List">[{"pitch": 60, "velocity": 100, "note_on_time": 2.038, "note_off_time": 2.548}, {"pitch": 60, "velocity": 100, "note_on_time": 4.075, "note_off_time": 4.583}, {"pitch": 60, "velocity": 100, "note_on_time": 4.583, "note_off_time": 5.091}, {"pitch": 60, "velocity": 100, "note_on_time": 5.091, "note_off_time": 5.6}, {"pitch": 64, "velocity": 100, "note_on_time": 5.6, "note_off_time": 6.108}, {"pitch": 60, "velocity": 100, "note_on_time": 6.108, "note_off_time": 6.617}, {"pitch": 62, "velocity": 100, "note_on_time": 6.617, "note_off_time": 7.125}, {"pitch": 60, "velocity": 100, "note_on_time": 7.125, "note_off_time": 7.633}, {"pitch": 60, "velocity": 100, "note_on_time": 7.633, "note_off_time": 8.142}, {"pitch": 64, "velocity": 100, "note_on_time": 8.142, "note_off_time": 8.65}, {"pitch": 60, "velocity": 100, "note_on_time": 8.65, "note_off_time": 9.159}, {"pitch": 64, "velocity": 100, "note_on_time": 9.159, "note_off_time": 9.664}, {"pitch": 60, "velocity": 100, "note_on_time": 9.664, "note_off_time": 10.172}, {"pitch": 60, "velocity": 100, "note_on_time": 10.172, "note_off_time": 11.189}, {"pitch": 62, "velocity": 100, "note_on_time": 11.189, "note_off_time": 12.206}, {"pitch": 60, "velocity": 100, "note_on_time": 12.206, "note_off_time": 12.715}, {"pitch": 60, "velocity": 100, "note_on_time": 12.715, "note_off_time": 13.733}, {"pitch": 60, "velocity": 100, "note_on_time": 14.75, "note_off_time": 15.259}, {"pitch": 60, "velocity": 100, "note_on_time": 15.259, "note_off_time": 15.769}, {"pitch": 60, "velocity": 100, "note_on_time": 15.769, "note_off_time": 16.276}]</notes><options name="Option List">((4, 4), [0.5, 0.25], 3, 7, &lt;NoteRangePerHand.THREE_NOTES: 4&gt;, &lt;NoteRangePerHand.ONE_NOTE: 2&gt;, False, True, True, 119)</options></target_notes><trials><trial trial_no="1" timestamp="20220202-151811"><notes name="Played Notes">[{"pitch": 60, "velocity": 100, "note_on_time": 2.038, "note_off_time": 2.479}, {"pitch": 60, "velocity": 100, "note_on_time": 4.091, "note_off_time": 4.431}, {"pitch": 60, "velocity": 100, "note_on_time": 4.611, "note_off_time": 4.888}, {"pitch": 60, "velocity": 100, "note_on_time": 5.096, "note_off_time": 5.381}, {"pitch": 64, "velocity": 100, "note_on_time": 5.571, "note_off_time": 5.907}, {"pitch": 60, "velocity": 100, "note_on_time": 6.083, "note_off_time": 6.4}, {"pitch": 62, "velocity": 100, "note_on_time": 6.568, "note_off_time": 6.973}, {"pitch": 60, "velocity": 100, "note_on_time": 7.081, "note_off_time": 7.407}, {"pitch": 60, "velocity": 100, "note_on_time": 7.586, "note_off_time": 7.954}, {"pitch": 64, "velocity": 100, "note_on_time": 8.088, "note_off_time": 8.487}, {"pitch": 60, "velocity": 100, "note_on_time": 8.598, "note_off_time": 8.976}, {"pitch": 64, "velocity": 100, "note_on_time": 9.124, "note_off_time": 9.51}, {"pitch": 60, "velocity": 100, "note_on_time": 9.65, "note_off_time": 10.072}, {"pitch": 60, "velocity": 100, "note_on_time": 10.176, "note_off_time": 11.196}, {"pitch": 62, "velocity": 100, "note_on_time": 11.157, "note_off_time": 12.092}, {"pitch": 60, "velocity": 100, "note_on_time": 12.176, "note_off_time": 12.327}, {"pitch": 60, "velocity": 100, "note_on_time": 12.68, "note_off_time": 13.58}, {"pitch": 60, "velocity": 100, "note_on_time": 14.718, "note_off_time": 15.009}, {"pitch": 60, "velocity": 100, "note_on_time": 15.226, "note_off_time": 15.496}, {"pitch": 60, "velocity": 100, "note_on_time": 15.702, "note_off_time": 16.053}]</notes><guidance name="Guidance Mode">None</guidance><error name="Error value">18.528661794117646</error></trial></trials></MIDI>