<MIDI midiNo="2022_11_21-19_30_40"><target_notes><notes name="Note List">[{"pitch": 42, "velocity": 80, "note_on_time": 0.004, "note_off_time": 0.584}, {"pitch": 42, "velocity": 80, "note_on_time": 0.585, "note_off_time": 1.159}, {"pitch": 42, "velocity": 80, "note_on_time": 1.16, "note_off_time": 1.732}, {"pitch": 42, "velocity": 80, "note_on_time": 1.732, "note_off_time": 2.309}, {"pitch": 62, "velocity": 80, "note_on_time": 2.309, "note_off_time": 2.886}, {"pitch": 42, "velocity": 80, "note_on_time": 2.309, "note_off_time": 2.886}, {"pitch": 62, "velocity": 80, "note_on_time": 2.886, "note_off_time": 3.461}, {"pitch": 42, "velocity": 80, "note_on_time": 2.887, "note_off_time": 3.462}, {"pitch": 60, "velocity": 80, "note_on_time": 3.461, "note_off_time": 4.038}, {"pitch": 42, "velocity": 80, "note_on_time": 3.462, "note_off_time": 4.039}, {"pitch": 62, "velocity": 80, "note_on_time": 4.038, "note_off_time": 4.617}, {"pitch": 42, "velocity": 80, "note_on_time": 4.039, "note_off_time": 4.617}, {"pitch": 62, "velocity": 80, "note_on_time": 4.617, "note_off_time": 5.193}, {"pitch": 42, "velocity": 80, "note_on_time": 4.617, "note_off_time": 5.193}, {"pitch": 62, "velocity": 80, "note_on_time": 5.193, "note_off_time": 5.768}, {"pitch": 42, "velocity": 80, "note_on_time": 5.193, "note_off_time": 5.768}, {"pitch": 60, "velocity": 80, "note_on_time": 5.768, "note_off_time": 6.345}, {"pitch": 42, "velocity": 80, "note_on_time": 5.769, "note_off_time": 6.345}, {"pitch": 62, "velocity": 80, "note_on_time": 6.345, "note_off_time": 6.921}, {"pitch": 42, "velocity": 80, "note_on_time": 6.345, "note_off_time": 6.921}, {"pitch": 64, "velocity": 80, "note_on_time": 6.921, "note_off_time": 7.494}, {"pitch": 42, "velocity": 80, "note_on_time": 6.922, "note_off_time": 7.495}, {"pitch": 42, "velocity": 80, "note_on_time": 7.495, "note_off_time": 8.071}, {"pitch": 60, "velocity": 80, "note_on_time": 7.494, "note_off_time": 8.647}, {"pitch": 42, "velocity": 80, "note_on_time": 8.071, "note_off_time": 8.647}, {"pitch": 42, "velocity": 80, "note_on_time": 8.647, "note_off_time": 9.228}, {"pitch": 60, "velocity": 80, "note_on_time": 9.227, "note_off_time": 9.802}, {"pitch": 42, "velocity": 80, "note_on_time": 9.228, "note_off_time": 9.803}, {"pitch": 64, "velocity": 80, "note_on_time": 9.802, "note_off_time": 10.382}, {"pitch": 42, "velocity": 80, "note_on_time": 9.803, "note_off_time": 10.383}, {"pitch": 62, "velocity": 80, "note_on_time": 10.382, "note_off_time": 10.957}, {"pitch": 42, "velocity": 80, "note_on_time": 10.383, "note_off_time": 10.957}, {"pitch": 64, "velocity": 80, "note_on_time": 10.957, "note_off_time": 11.531}, {"pitch": 42, "velocity": 80, "note_on_time": 10.957, "note_off_time": 11.532}, {"pitch": 62, "velocity": 80, "note_on_time": 11.531, "note_off_time": 12.11}, {"pitch": 42, "velocity": 80, "note_on_time": 11.532, "note_off_time": 12.111}, {"pitch": 62, "velocity": 80, "note_on_time": 12.11, "note_off_time": 12.689}, {"pitch": 42, "velocity": 80, "note_on_time": 12.111, "note_off_time": 12.69}, {"pitch": 62, "velocity": 80, "note_on_time": 12.689, "note_off_time": 13.264}, {"pitch": 42, "velocity": 80, "note_on_time": 12.69, "note_off_time": 13.265}, {"pitch": 60, "velocity": 80, "note_on_time": 13.264, "note_off_time": 13.844}, {"pitch": 42, "velocity": 80, "note_on_time": 13.265, "note_off_time": 13.844}, {"pitch": 64, "velocity": 80, "note_on_time": 13.844, "note_off_time": 14.417}, {"pitch": 42, "velocity": 80, "note_on_time": 13.845, "note_off_time": 14.418}, {"pitch": 64, "velocity": 80, "note_on_time": 14.418, "note_off_time": 14.993}, {"pitch": 42, "velocity": 80, "note_on_time": 14.418, "note_off_time": 14.993}, {"pitch": 62, "velocity": 80, "note_on_time": 14.993, "note_off_time": 15.571}, {"pitch": 42, "velocity": 80, "note_on_time": 14.994, "note_off_time": 15.571}, {"pitch": 64, "velocity": 80, "note_on_time": 15.571, "note_off_time": 16.148}, {"pitch": 42, "velocity": 80, "note_on_time": 15.571, "note_off_time": 16.148}, {"pitch": 60, "velocity": 80, "note_on_time": 16.148, "note_off_time": 16.724}, {"pitch": 42, "velocity": 80, "note_on_time": 16.149, "note_off_time": 16.724}, {"pitch": 60, "velocity": 80, "note_on_time": 16.724, "note_off_time": 17.3}, {"pitch": 42, "velocity": 80, "note_on_time": 16.724, "note_off_time": 17.3}, {"pitch": 60, "velocity": 80, "note_on_time": 17.3, "note_off_time": 17.875}, {"pitch": 42, "velocity": 80, "note_on_time": 17.3, "note_off_time": 17.876}, {"pitch": 62, "velocity": 80, "note_on_time": 17.875, "note_off_time": 18.454}, {"pitch": 42, "velocity": 80, "note_on_time": 17.876, "note_off_time": 18.454}, {"pitch": 42, "velocity": 80, "note_on_time": 18.454, "note_off_time": 19.032}, {"pitch": 62, "velocity": 80, "note_on_time": 19.031, "note_off_time": 19.608}, {"pitch": 42, "velocity": 80, "note_on_time": 19.032, "note_off_time": 19.608}, {"pitch": 62, "velocity": 80, "note_on_time": 19.608, "note_off_time": 20.185}, {"pitch": 42, "velocity": 80, "note_on_time": 19.609, "note_off_time": 20.185}, {"pitch": 62, "velocity": 80, "note_on_time": 20.185, "note_off_time": 20.761}, {"pitch": 42, "velocity": 80, "note_on_time": 20.185, "note_off_time": 20.761}]</notes><options name="Option List">((4, 4), [0.5, 0.25], 3, 8, &lt;NoteRangePerHand.THREE_NOTES: 4&gt;, &lt;NoteRangePerHand.ONE_NOTE: 2&gt;, False, True, False, '105')</options></target_notes><trials><trial trial_no="1" timestamp="2022_11_21-19_30_17"><notes name="Played Notes">[{"pitch": 62, "velocity": 67, "note_on_time": 2.358, "note_off_time": 2.722}, {"pitch": 62, "velocity": 72, "note_on_time": 2.923, "note_off_time": 3.545}, {"pitch": 60, "velocity": 72, "note_on_time": 3.515, "note_off_time": 4.087}, {"pitch": 62, "velocity": 75, "note_on_time": 4.065, "note_off_time": 4.38}, {"pitch": 62, "velocity": 71, "note_on_time": 4.643, "note_off_time": 4.978}, {"pitch": 62, "velocity": 75, "note_on_time": 5.223, "note_off_time": 5.839}, {"pitch": 60, "velocity": 84, "note_on_time": 5.821, "note_off_time": 6.394}, {"pitch": 62, "velocity": 74, "note_on_time": 6.381, "note_off_time": 6.982}, {"pitch": 64, "velocity": 80, "note_on_time": 6.979, "note_off_time": 7.543}, {"pitch": 60, "velocity": 89, "note_on_time": 7.537, "note_off_time": 8.502}, {"pitch": 60, "velocity": 77, "note_on_time": 9.217, "note_off_time": 9.842}, {"pitch": 64, "velocity": 74, "note_on_time": 9.82, "note_off_time": 10.406}, {"pitch": 62, "velocity": 73, "note_on_time": 10.398, "note_off_time": 10.997}, {"pitch": 64, "velocity": 64, "note_on_time": 11.002, "note_off_time": 11.618}, {"pitch": 62, "velocity": 76, "note_on_time": 11.567, "note_off_time": 11.838}, {"pitch": 62, "velocity": 74, "note_on_time": 12.161, "note_off_time": 12.454}, {"pitch": 62, "velocity": 73, "note_on_time": 12.725, "note_off_time": 13.102}, {"pitch": 60, "velocity": 75, "note_on_time": 13.269, "note_off_time": 13.664}, {"pitch": 64, "velocity": 70, "note_on_time": 13.854, "note_off_time": 14.161}, {"pitch": 64, "velocity": 66, "note_on_time": 14.475, "note_off_time": 15.049}, {"pitch": 62, "velocity": 69, "note_on_time": 15.018, "note_off_time": 15.63}, {"pitch": 64, "velocity": 68, "note_on_time": 15.639, "note_off_time": 16.26}, {"pitch": 60, "velocity": 75, "note_on_time": 16.171, "note_off_time": 16.456}, {"pitch": 60, "velocity": 71, "note_on_time": 16.744, "note_off_time": 17.073}, {"pitch": 60, "velocity": 77, "note_on_time": 17.323, "note_off_time": 17.916}, {"pitch": 62, "velocity": 77, "note_on_time": 17.912, "note_off_time": 18.243}, {"pitch": 62, "velocity": 72, "note_on_time": 19.059, "note_off_time": 19.356}, {"pitch": 62, "velocity": 70, "note_on_time": 19.596, "note_off_time": 19.888}, {"pitch": 62, "velocity": 77, "note_on_time": 20.139, "note_off_time": 20.587}]</notes><guidance name="Guidance Mode">None</guidance><error name="Error value">0.022489076923076865</error></trial><trial trial_no="2" timestamp="2022_11_21-19_30_48"><notes name="Played Notes">[{"pitch": 62, "velocity": 67, "note_on_time": 2.358, "note_off_time": 2.735}, {"pitch": 62, "velocity": 65, "note_on_time": 2.876, "note_off_time": 3.489}, {"pitch": 60, "velocity": 79, "note_on_time": 3.446, "note_off_time": 4.051}, {"pitch": 62, "velocity": 75, "note_on_time": 4.034, "note_off_time": 4.395}, {"pitch": 62, "velocity": 77, "note_on_time": 4.564, "note_off_time": 4.981}, {"pitch": 62, "velocity": 78, "note_on_time": 5.157, "note_off_time": 5.813}, {"pitch": 60, "velocity": 80, "note_on_time": 5.758, "note_off_time": 6.372}, {"pitch": 62, "velocity": 73, "note_on_time": 6.341, "note_off_time": 6.918}, {"pitch": 64, "velocity": 70, "note_on_time": 6.923, "note_off_time": 7.501}, {"pitch": 60, "velocity": 87, "note_on_time": 7.477, "note_off_time": 8.297}, {"pitch": 60, "velocity": 74, "note_on_time": 9.249, "note_off_time": 9.864}, {"pitch": 64, "velocity": 67, "note_on_time": 9.835, "note_off_time": 10.408}, {"pitch": 62, "velocity": 71, "note_on_time": 10.382, "note_off_time": 10.989}, {"pitch": 64, "velocity": 65, "note_on_time": 10.999, "note_off_time": 11.611}, {"pitch": 62, "velocity": 71, "note_on_time": 11.528, "note_off_time": 11.81}, {"pitch": 62, "velocity": 72, "note_on_time": 12.097, "note_off_time": 12.45}, {"pitch": 62, "velocity": 67, "note_on_time": 12.663, "note_off_time": 13.307}, {"pitch": 60, "velocity": 77, "note_on_time": 13.244, "note_off_time": 13.801}, {"pitch": 64, "velocity": 68, "note_on_time": 13.853, "note_off_time": 14.252}, {"pitch": 64, "velocity": 69, "note_on_time": 14.431, "note_off_time": 15.026}, {"pitch": 62, "velocity": 72, "note_on_time": 15.015, "note_off_time": 15.623}, {"pitch": 64, "velocity": 68, "note_on_time": 15.628, "note_off_time": 16.224}, {"pitch": 60, "velocity": 77, "note_on_time": 16.155, "note_off_time": 16.475}, {"pitch": 60, "velocity": 71, "note_on_time": 16.712, "note_off_time": 17.071}, {"pitch": 60, "velocity": 72, "note_on_time": 17.312, "note_off_time": 17.883}, {"pitch": 62, "velocity": 75, "note_on_time": 17.878, "note_off_time": 18.204}, {"pitch": 62, "velocity": 72, "note_on_time": 18.997, "note_off_time": 19.365}, {"pitch": 62, "velocity": 66, "note_on_time": 19.57, "note_off_time": 19.904}, {"pitch": 62, "velocity": 72, "note_on_time": 20.107, "note_off_time": 20.586}]</notes><guidance name="Guidance Mode">None</guidance><error name="Error value">0.025258307692308045</error></trial><trial trial_no="3" timestamp="2022_11_21-19_31_22"><notes name="Played Notes">[{"pitch": 62, "velocity": 65, "note_on_time": 2.287, "note_off_time": 2.643}, {"pitch": 62, "velocity": 72, "note_on_time": 2.847, "note_off_time": 3.499}, {"pitch": 60, "velocity": 79, "note_on_time": 3.462, "note_off_time": 4.006}, {"pitch": 62, "velocity": 67, "note_on_time": 4.035, "note_off_time": 4.466}, {"pitch": 62, "velocity": 65, "note_on_time": 4.572, "note_off_time": 4.966}, {"pitch": 62, "velocity": 75, "note_on_time": 5.169, "note_off_time": 5.821}, {"pitch": 60, "velocity": 77, "note_on_time": 5.763, "note_off_time": 6.372}, {"pitch": 62, "velocity": 77, "note_on_time": 6.345, "note_off_time": 6.953}, {"pitch": 64, "velocity": 73, "note_on_time": 6.949, "note_off_time": 7.512}, {"pitch": 60, "velocity": 81, "note_on_time": 7.49, "note_off_time": 8.402}, {"pitch": 60, "velocity": 73, "note_on_time": 9.244, "note_off_time": 9.859}, {"pitch": 64, "velocity": 63, "note_on_time": 9.807, "note_off_time": 10.391}, {"pitch": 62, "velocity": 70, "note_on_time": 10.358, "note_off_time": 10.982}, {"pitch": 64, "velocity": 64, "note_on_time": 10.987, "note_off_time": 11.623}, {"pitch": 62, "velocity": 70, "note_on_time": 11.544, "note_off_time": 11.867}, {"pitch": 62, "velocity": 69, "note_on_time": 12.122, "note_off_time": 12.441}, {"pitch": 62, "velocity": 70, "note_on_time": 12.72, "note_off_time": 13.409}, {"pitch": 60, "velocity": 76, "note_on_time": 13.344, "note_off_time": 13.943}, {"pitch": 62, "velocity": 67, "note_on_time": 13.917, "note_off_time": 14.377}, {"pitch": 62, "velocity": 57, "note_on_time": 14.494, "note_off_time": 15.185}, {"pitch": 62, "velocity": 21, "note_on_time": 15.221, "note_off_time": 15.344}, {"pitch": 64, "velocity": 68, "note_on_time": 15.778, "note_off_time": 16.352}, {"pitch": 60, "velocity": 71, "note_on_time": 16.273, "note_off_time": 16.511}, {"pitch": 60, "velocity": 66, "note_on_time": 16.791, "note_off_time": 17.0}, {"pitch": 60, "velocity": 71, "note_on_time": 17.323, "note_off_time": 17.884}, {"pitch": 62, "velocity": 69, "note_on_time": 17.862, "note_off_time": 18.325}, {"pitch": 62, "velocity": 44, "note_on_time": 18.477, "note_off_time": 18.82}, {"pitch": 62, "velocity": 63, "note_on_time": 19.051, "note_off_time": 19.387}]</notes><guidance name="Guidance Mode">None</guidance><error name="Error value">0.18921984615384613</error></trial><trial trial_no="4" timestamp="2022_11_21-19_31_54"><notes name="Played Notes">[{"pitch": 62, "velocity": 71, "note_on_time": 2.324, "note_off_time": 2.66}, {"pitch": 62, "velocity": 74, "note_on_time": 2.885, "note_off_time": 3.539}, {"pitch": 60, "velocity": 74, "note_on_time": 3.49, "note_off_time": 4.154}, {"pitch": 62, "velocity": 74, "note_on_time": 4.083, "note_off_time": 4.453}, {"pitch": 62, "velocity": 69, "note_on_time": 4.648, "note_off_time": 5.029}, {"pitch": 62, "velocity": 73, "note_on_time": 5.236, "note_off_time": 5.853}, {"pitch": 60, "velocity": 76, "note_on_time": 5.815, "note_off_time": 6.425}, {"pitch": 62, "velocity": 73, "note_on_time": 6.387, "note_off_time": 6.977}, {"pitch": 64, "velocity": 78, "note_on_time": 6.974, "note_off_time": 7.543}, {"pitch": 60, "velocity": 84, "note_on_time": 7.524, "note_off_time": 8.661}, {"pitch": 60, "velocity": 80, "note_on_time": 9.275, "note_off_time": 9.909}, {"pitch": 64, "velocity": 69, "note_on_time": 9.869, "note_off_time": 10.486}, {"pitch": 62, "velocity": 61, "note_on_time": 10.415, "note_off_time": 10.911}, {"pitch": 64, "velocity": 68, "note_on_time": 10.947, "note_off_time": 11.484}, {"pitch": 62, "velocity": 72, "note_on_time": 11.556, "note_off_time": 11.954}, {"pitch": 62, "velocity": 77, "note_on_time": 12.146, "note_off_time": 12.553}, {"pitch": 62, "velocity": 75, "note_on_time": 12.734, "note_off_time": 13.35}, {"pitch": 60, "velocity": 81, "note_on_time": 13.346, "note_off_time": 13.995}, {"pitch": 64, "velocity": 71, "note_on_time": 13.938, "note_off_time": 14.297}, {"pitch": 64, "velocity": 70, "note_on_time": 14.519, "note_off_time": 15.102}, {"pitch": 62, "velocity": 69, "note_on_time": 15.102, "note_off_time": 15.608}, {"pitch": 64, "velocity": 75, "note_on_time": 15.595, "note_off_time": 16.185}, {"pitch": 60, "velocity": 72, "note_on_time": 16.15, "note_off_time": 16.424}, {"pitch": 60, "velocity": 77, "note_on_time": 16.733, "note_off_time": 17.016}, {"pitch": 60, "velocity": 77, "note_on_time": 17.292, "note_off_time": 17.949}, {"pitch": 62, "velocity": 78, "note_on_time": 17.918, "note_off_time": 18.264}, {"pitch": 62, "velocity": 73, "note_on_time": 19.059, "note_off_time": 19.367}, {"pitch": 62, "velocity": 65, "note_on_time": 19.642, "note_off_time": 19.926}, {"pitch": 62, "velocity": 72, "note_on_time": 20.219, "note_off_time": 20.627}]</notes><guidance name="Guidance Mode">None</guidance><error name="Error value">0.023280461538461774</error></trial><trial trial_no="5" timestamp="2022_11_21-19_32_25"><notes name="Played Notes">[{"pitch": 62, "velocity": 74, "note_on_time": 2.37, "note_off_time": 2.747}, {"pitch": 62, "velocity": 75, "note_on_time": 2.932, "note_off_time": 3.508}, {"pitch": 60, "velocity": 75, "note_on_time": 3.486, "note_off_time": 4.109}, {"pitch": 62, "velocity": 72, "note_on_time": 4.077, "note_off_time": 4.518}, {"pitch": 62, "velocity": 80, "note_on_time": 4.605, "note_off_time": 4.957}, {"pitch": 62, "velocity": 73, "note_on_time": 5.164, "note_off_time": 5.777}, {"pitch": 60, "velocity": 77, "note_on_time": 5.768, "note_off_time": 6.366}, {"pitch": 62, "velocity": 70, "note_on_time": 6.357, "note_off_time": 6.95}, {"pitch": 64, "velocity": 74, "note_on_time": 6.958, "note_off_time": 7.501}, {"pitch": 60, "velocity": 82, "note_on_time": 7.486, "note_off_time": 8.26}, {"pitch": 60, "velocity": 84, "note_on_time": 9.251, "note_off_time": 9.823}, {"pitch": 64, "velocity": 69, "note_on_time": 9.802, "note_off_time": 10.328}, {"pitch": 62, "velocity": 69, "note_on_time": 10.327, "note_off_time": 10.959}, {"pitch": 64, "velocity": 62, "note_on_time": 10.969, "note_off_time": 11.643}, {"pitch": 62, "velocity": 74, "note_on_time": 11.554, "note_off_time": 11.807}, {"pitch": 62, "velocity": 73, "note_on_time": 12.148, "note_off_time": 12.421}, {"pitch": 62, "velocity": 71, "note_on_time": 12.731, "note_off_time": 13.16}, {"pitch": 60, "velocity": 74, "note_on_time": 13.311, "note_off_time": 13.944}, {"pitch": 64, "velocity": 71, "note_on_time": 13.916, "note_off_time": 14.157}, {"pitch": 64, "velocity": 65, "note_on_time": 14.469, "note_off_time": 14.784}, {"pitch": 62, "velocity": 69, "note_on_time": 15.025, "note_off_time": 15.475}, {"pitch": 64, "velocity": 74, "note_on_time": 15.589, "note_off_time": 15.973}, {"pitch": 60, "velocity": 78, "note_on_time": 16.186, "note_off_time": 16.412}, {"pitch": 60, "velocity": 75, "note_on_time": 16.759, "note_off_time": 16.988}, {"pitch": 60, "velocity": 77, "note_on_time": 17.342, "note_off_time": 17.887}, {"pitch": 62, "velocity": 71, "note_on_time": 17.982, "note_off_time": 18.423}, {"pitch": 62, "velocity": 79, "note_on_time": 19.043, "note_off_time": 19.281}, {"pitch": 62, "velocity": 64, "note_on_time": 19.605, "note_off_time": 19.835}, {"pitch": 62, "velocity": 68, "note_on_time": 20.133, "note_off_time": 20.531}]</notes><guidance name="Guidance Mode">None</guidance><error name="Error value">0.030258307692307855</error></trial></trials></MIDI>