<MIDI midiNo="2022_09_29-12_39_46"><target_notes><notes name="Note List">[{"pitch": 42, "velocity": 80, "note_on_time": 0.004, "note_off_time": 0.297}, {"pitch": 42, "velocity": 80, "note_on_time": 0.297, "note_off_time": 0.593}, {"pitch": 42, "velocity": 80, "note_on_time": 0.593, "note_off_time": 0.873}, {"pitch": 42, "velocity": 80, "note_on_time": 0.874, "note_off_time": 1.168}, {"pitch": 42, "velocity": 80, "note_on_time": 1.168, "note_off_time": 1.463}, {"pitch": 64, "velocity": 80, "note_on_time": 1.167, "note_off_time": 1.758}, {"pitch": 42, "velocity": 80, "note_on_time": 1.464, "note_off_time": 1.759}, {"pitch": 42, "velocity": 80, "note_on_time": 1.76, "note_off_time": 2.055}, {"pitch": 42, "velocity": 80, "note_on_time": 2.056, "note_off_time": 2.35}, {"pitch": 60, "velocity": 80, "note_on_time": 2.349, "note_off_time": 2.632}, {"pitch": 42, "velocity": 80, "note_on_time": 2.35, "note_off_time": 2.632}, {"pitch": 42, "velocity": 80, "note_on_time": 2.632, "note_off_time": 2.913}, {"pitch": 64, "velocity": 80, "note_on_time": 2.913, "note_off_time": 3.207}, {"pitch": 42, "velocity": 80, "note_on_time": 2.914, "note_off_time": 3.207}, {"pitch": 64, "velocity": 80, "note_on_time": 3.207, "note_off_time": 3.489}, {"pitch": 42, "velocity": 80, "note_on_time": 3.207, "note_off_time": 3.489}, {"pitch": 64, "velocity": 80, "note_on_time": 3.489, "note_off_time": 3.783}, {"pitch": 42, "velocity": 80, "note_on_time": 3.49, "note_off_time": 3.783}, {"pitch": 64, "velocity": 80, "note_on_time": 3.783, "note_off_time": 4.078}, {"pitch": 42, "velocity": 80, "note_on_time": 3.784, "note_off_time": 4.079}, {"pitch": 62, "velocity": 80, "note_on_time": 4.078, "note_off_time": 4.373}, {"pitch": 42, "velocity": 80, "note_on_time": 4.079, "note_off_time": 4.373}, {"pitch": 60, "velocity": 80, "note_on_time": 4.373, "note_off_time": 4.657}, {"pitch": 42, "velocity": 80, "note_on_time": 4.373, "note_off_time": 4.657}, {"pitch": 64, "velocity": 80, "note_on_time": 4.657, "note_off_time": 4.95}, {"pitch": 42, "velocity": 80, "note_on_time": 4.658, "note_off_time": 4.951}, {"pitch": 60, "velocity": 80, "note_on_time": 4.95, "note_off_time": 5.232}, {"pitch": 42, "velocity": 80, "note_on_time": 4.951, "note_off_time": 5.233}, {"pitch": 62, "velocity": 80, "note_on_time": 5.232, "note_off_time": 5.527}, {"pitch": 42, "velocity": 80, "note_on_time": 5.233, "note_off_time": 5.527}, {"pitch": 62, "velocity": 80, "note_on_time": 5.527, "note_off_time": 5.808}, {"pitch": 42, "velocity": 80, "note_on_time": 5.528, "note_off_time": 5.809}, {"pitch": 64, "velocity": 80, "note_on_time": 5.808, "note_off_time": 6.104}, {"pitch": 42, "velocity": 80, "note_on_time": 5.809, "note_off_time": 6.104}, {"pitch": 42, "velocity": 80, "note_on_time": 6.105, "note_off_time": 6.385}, {"pitch": 64, "velocity": 80, "note_on_time": 6.104, "note_off_time": 6.666}, {"pitch": 42, "velocity": 80, "note_on_time": 6.386, "note_off_time": 6.666}, {"pitch": 62, "velocity": 80, "note_on_time": 6.666, "note_off_time": 6.949}, {"pitch": 42, "velocity": 80, "note_on_time": 6.667, "note_off_time": 6.949}, {"pitch": 62, "velocity": 80, "note_on_time": 6.949, "note_off_time": 7.23}, {"pitch": 42, "velocity": 80, "note_on_time": 6.949, "note_off_time": 7.231}, {"pitch": 64, "velocity": 80, "note_on_time": 7.23, "note_off_time": 7.512}, {"pitch": 42, "velocity": 80, "note_on_time": 7.231, "note_off_time": 7.512}, {"pitch": 60, "velocity": 80, "note_on_time": 7.512, "note_off_time": 7.794}, {"pitch": 42, "velocity": 80, "note_on_time": 7.512, "note_off_time": 7.794}, {"pitch": 60, "velocity": 80, "note_on_time": 7.794, "note_off_time": 8.089}, {"pitch": 42, "velocity": 80, "note_on_time": 7.794, "note_off_time": 8.089}, {"pitch": 64, "velocity": 80, "note_on_time": 8.089, "note_off_time": 8.384}, {"pitch": 42, "velocity": 80, "note_on_time": 8.09, "note_off_time": 8.384}, {"pitch": 64, "velocity": 80, "note_on_time": 8.384, "note_off_time": 8.679}, {"pitch": 42, "velocity": 80, "note_on_time": 8.384, "note_off_time": 8.679}, {"pitch": 60, "velocity": 80, "note_on_time": 8.679, "note_off_time": 8.96}, {"pitch": 42, "velocity": 80, "note_on_time": 8.679, "note_off_time": 8.96}, {"pitch": 42, "velocity": 80, "note_on_time": 8.96, "note_off_time": 9.242}, {"pitch": 42, "velocity": 80, "note_on_time": 9.242, "note_off_time": 9.538}, {"pitch": 60, "velocity": 80, "note_on_time": 9.537, "note_off_time": 9.833}, {"pitch": 42, "velocity": 80, "note_on_time": 9.538, "note_off_time": 9.833}, {"pitch": 60, "velocity": 80, "note_on_time": 9.833, "note_off_time": 10.127}, {"pitch": 42, "velocity": 80, "note_on_time": 9.833, "note_off_time": 10.127}, {"pitch": 60, "velocity": 80, "note_on_time": 10.127, "note_off_time": 10.423}, {"pitch": 42, "velocity": 80, "note_on_time": 10.127, "note_off_time": 10.423}]</notes><options name="Option List">((4, 4), [0.5, 0.25], 3, 8, &lt;NoteRangePerHand.THREE_NOTES: 4&gt;, &lt;NoteRangePerHand.ONE_NOTE: 2&gt;, False, True, False, 215)</options></target_notes><trials><trial trial_no="1" timestamp="2022_09_29-12_39_34"><notes name="Played Notes">[{"pitch": 64, "velocity": 95, "note_on_time": 1.156, "note_off_time": 1.913}, {"pitch": 60, "velocity": 98, "note_on_time": 2.354, "note_off_time": 2.756}, {"pitch": 64, "velocity": 91, "note_on_time": 2.934, "note_off_time": 3.074}, {"pitch": 64, "velocity": 98, "note_on_time": 3.218, "note_off_time": 3.359}, {"pitch": 62, "velocity": 91, "note_on_time": 3.509, "note_off_time": 3.605}, {"pitch": 64, "velocity": 82, "note_on_time": 3.763, "note_off_time": 3.917}, {"pitch": 62, "velocity": 74, "note_on_time": 4.042, "note_off_time": 4.283}, {"pitch": 60, "velocity": 88, "note_on_time": 4.328, "note_off_time": 4.517}, {"pitch": 62, "velocity": 91, "note_on_time": 4.656, "note_off_time": 4.861}, {"pitch": 60, "velocity": 79, "note_on_time": 4.934, "note_off_time": 5.07}, {"pitch": 60, "velocity": 96, "note_on_time": 5.262, "note_off_time": 5.347}, {"pitch": 62, "velocity": 89, "note_on_time": 5.512, "note_off_time": 5.615}, {"pitch": 62, "velocity": 85, "note_on_time": 5.835, "note_off_time": 6.021}, {"pitch": 62, "velocity": 85, "note_on_time": 6.11, "note_off_time": 6.546}, {"pitch": 60, "velocity": 86, "note_on_time": 6.692, "note_off_time": 7.009}, {"pitch": 60, "velocity": 76, "note_on_time": 7.208, "note_off_time": 7.327}, {"pitch": 64, "velocity": 76, "note_on_time": 7.52, "note_off_time": 7.716}, {"pitch": 60, "velocity": 84, "note_on_time": 7.791, "note_off_time": 7.9}, {"pitch": 60, "velocity": 86, "note_on_time": 8.062, "note_off_time": 8.209}, {"pitch": 64, "velocity": 82, "note_on_time": 8.375, "note_off_time": 8.485}, {"pitch": 64, "velocity": 76, "note_on_time": 8.659, "note_off_time": 8.822}, {"pitch": 60, "velocity": 95, "note_on_time": 8.949, "note_off_time": 9.58}, {"pitch": 60, "velocity": 100, "note_on_time": 9.822, "note_off_time": 9.914}, {"pitch": 60, "velocity": 92, "note_on_time": 10.09, "note_off_time": 10.189}]</notes><guidance name="Guidance Mode">None</guidance><error name="Error value">0.4097319545454545</error></trial></trials></MIDI>