<MIDI midiNo="2022_11_03-10_18_29"><target_notes><notes name="Note List">[{"pitch": 42, "velocity": 80, "note_on_time": 0.004, "note_off_time": 0.269}, {"pitch": 42, "velocity": 80, "note_on_time": 0.269, "note_off_time": 0.534}, {"pitch": 42, "velocity": 80, "note_on_time": 0.534, "note_off_time": 0.797}, {"pitch": 42, "velocity": 80, "note_on_time": 0.797, "note_off_time": 1.061}, {"pitch": 64, "velocity": 80, "note_on_time": 1.06, "note_off_time": 1.324}, {"pitch": 42, "velocity": 80, "note_on_time": 1.061, "note_off_time": 1.325}, {"pitch": 65, "velocity": 80, "note_on_time": 1.324, "note_off_time": 1.588}, {"pitch": 42, "velocity": 80, "note_on_time": 1.325, "note_off_time": 1.588}, {"pitch": 42, "velocity": 80, "note_on_time": 1.589, "note_off_time": 1.854}, {"pitch": 42, "velocity": 80, "note_on_time": 1.854, "note_off_time": 2.12}, {"pitch": 42, "velocity": 80, "note_on_time": 2.12, "note_off_time": 2.385}, {"pitch": 62, "velocity": 80, "note_on_time": 2.119, "note_off_time": 2.646}, {"pitch": 42, "velocity": 80, "note_on_time": 2.385, "note_off_time": 2.646}, {"pitch": 64, "velocity": 80, "note_on_time": 2.646, "note_off_time": 2.91}, {"pitch": 42, "velocity": 80, "note_on_time": 2.647, "note_off_time": 2.911}, {"pitch": 62, "velocity": 80, "note_on_time": 2.91, "note_off_time": 3.175}, {"pitch": 42, "velocity": 80, "note_on_time": 2.911, "note_off_time": 3.175}, {"pitch": 42, "velocity": 80, "note_on_time": 3.176, "note_off_time": 3.438}, {"pitch": 65, "velocity": 80, "note_on_time": 3.175, "note_off_time": 3.703}, {"pitch": 42, "velocity": 80, "note_on_time": 3.438, "note_off_time": 3.703}, {"pitch": 62, "velocity": 80, "note_on_time": 3.703, "note_off_time": 3.967}, {"pitch": 42, "velocity": 80, "note_on_time": 3.703, "note_off_time": 3.967}, {"pitch": 60, "velocity": 80, "note_on_time": 3.967, "note_off_time": 4.232}, {"pitch": 42, "velocity": 80, "note_on_time": 3.967, "note_off_time": 4.232}, {"pitch": 60, "velocity": 80, "note_on_time": 4.232, "note_off_time": 4.496}, {"pitch": 42, "velocity": 80, "note_on_time": 4.232, "note_off_time": 4.496}, {"pitch": 65, "velocity": 80, "note_on_time": 4.496, "note_off_time": 4.759}, {"pitch": 42, "velocity": 80, "note_on_time": 4.496, "note_off_time": 4.759}, {"pitch": 64, "velocity": 80, "note_on_time": 4.759, "note_off_time": 5.023}, {"pitch": 42, "velocity": 80, "note_on_time": 4.76, "note_off_time": 5.023}, {"pitch": 62, "velocity": 80, "note_on_time": 5.023, "note_off_time": 5.286}, {"pitch": 42, "velocity": 80, "note_on_time": 5.023, "note_off_time": 5.286}, {"pitch": 42, "velocity": 80, "note_on_time": 5.287, "note_off_time": 5.549}, {"pitch": 62, "velocity": 80, "note_on_time": 5.286, "note_off_time": 5.814}, {"pitch": 42, "velocity": 80, "note_on_time": 5.549, "note_off_time": 5.814}, {"pitch": 42, "velocity": 80, "note_on_time": 5.814, "note_off_time": 6.078}, {"pitch": 64, "velocity": 80, "note_on_time": 6.078, "note_off_time": 6.343}, {"pitch": 42, "velocity": 80, "note_on_time": 6.078, "note_off_time": 6.343}, {"pitch": 60, "velocity": 80, "note_on_time": 6.343, "note_off_time": 6.608}, {"pitch": 42, "velocity": 80, "note_on_time": 6.343, "note_off_time": 6.608}, {"pitch": 64, "velocity": 80, "note_on_time": 6.608, "note_off_time": 6.873}, {"pitch": 42, "velocity": 80, "note_on_time": 6.608, "note_off_time": 6.874}, {"pitch": 60, "velocity": 80, "note_on_time": 6.873, "note_off_time": 7.137}, {"pitch": 42, "velocity": 80, "note_on_time": 6.874, "note_off_time": 7.137}, {"pitch": 62, "velocity": 80, "note_on_time": 7.137, "note_off_time": 7.403}, {"pitch": 42, "velocity": 80, "note_on_time": 7.138, "note_off_time": 7.404}, {"pitch": 42, "velocity": 80, "note_on_time": 7.404, "note_off_time": 7.666}, {"pitch": 64, "velocity": 80, "note_on_time": 7.403, "note_off_time": 7.932}, {"pitch": 42, "velocity": 80, "note_on_time": 7.666, "note_off_time": 7.932}, {"pitch": 42, "velocity": 80, "note_on_time": 7.932, "note_off_time": 8.199}, {"pitch": 67, "velocity": 80, "note_on_time": 7.932, "note_off_time": 8.462}, {"pitch": 42, "velocity": 80, "note_on_time": 8.199, "note_off_time": 8.463}, {"pitch": 42, "velocity": 80, "note_on_time": 8.463, "note_off_time": 8.728}, {"pitch": 67, "velocity": 80, "note_on_time": 8.728, "note_off_time": 8.993}, {"pitch": 42, "velocity": 80, "note_on_time": 8.728, "note_off_time": 8.993}, {"pitch": 67, "velocity": 80, "note_on_time": 8.993, "note_off_time": 9.256}, {"pitch": 42, "velocity": 80, "note_on_time": 8.993, "note_off_time": 9.256}, {"pitch": 67, "velocity": 80, "note_on_time": 9.256, "note_off_time": 9.524}, {"pitch": 42, "velocity": 80, "note_on_time": 9.256, "note_off_time": 9.524}]</notes><options name="Option List">((4, 4), [0.5, 0.25], 3, 8, &lt;NoteRangePerHand.C_TO_G: 6&gt;, &lt;NoteRangePerHand.ONE_NOTE: 2&gt;, False, True, False, '232')</options></target_notes><trials><trial trial_no="1" timestamp="2022_11_03-10_18_18"><notes name="Played Notes">[{"pitch": 64, "velocity": 73, "note_on_time": 1.092, "note_off_time": 1.364}, {"pitch": 65, "velocity": 78, "note_on_time": 1.329, "note_off_time": 1.806}, {"pitch": 62, "velocity": 70, "note_on_time": 2.182, "note_off_time": 2.738}, {"pitch": 64, "velocity": 70, "note_on_time": 2.883, "note_off_time": 3.176}, {"pitch": 62, "velocity": 67, "note_on_time": 3.175, "note_off_time": 3.424}, {"pitch": 65, "velocity": 78, "note_on_time": 3.423, "note_off_time": 3.918}, {"pitch": 62, "velocity": 57, "note_on_time": 3.987, "note_off_time": 4.177}, {"pitch": 60, "velocity": 76, "note_on_time": 4.234, "note_off_time": 4.362}, {"pitch": 60, "velocity": 57, "note_on_time": 4.534, "note_off_time": 4.819}, {"pitch": 65, "velocity": 67, "note_on_time": 4.801, "note_off_time": 5.102}, {"pitch": 64, "velocity": 62, "note_on_time": 5.083, "note_off_time": 5.314}, {"pitch": 62, "velocity": 66, "note_on_time": 5.347, "note_off_time": 5.493}, {"pitch": 62, "velocity": 64, "note_on_time": 5.6, "note_off_time": 6.16}, {"pitch": 64, "velocity": 73, "note_on_time": 6.357, "note_off_time": 6.586}, {"pitch": 60, "velocity": 57, "note_on_time": 6.626, "note_off_time": 6.833}, {"pitch": 64, "velocity": 83, "note_on_time": 6.855, "note_off_time": 7.109}, {"pitch": 60, "velocity": 54, "note_on_time": 7.143, "note_off_time": 7.407}, {"pitch": 62, "velocity": 76, "note_on_time": 7.437, "note_off_time": 7.623}, {"pitch": 65, "velocity": 68, "note_on_time": 7.664, "note_off_time": 7.747}, {"pitch": 67, "velocity": 67, "note_on_time": 8.024, "note_off_time": 8.668}, {"pitch": 67, "velocity": 68, "note_on_time": 8.822, "note_off_time": 8.921}, {"pitch": 67, "velocity": 78, "note_on_time": 9.062, "note_off_time": 9.193}]</notes><guidance name="Guidance Mode">None</guidance><error name="Error value">0.15404500000000015</error></trial><trial trial_no="2" timestamp="2022_11_03-10_19_16"><notes name="Played Notes">[{"pitch": 62, "velocity": 74, "note_on_time": 0.831, "note_off_time": 1.09}, {"pitch": 65, "velocity": 82, "note_on_time": 1.088, "note_off_time": 1.484}, {"pitch": 62, "velocity": 74, "note_on_time": 1.785, "note_off_time": 2.384}, {"pitch": 64, "velocity": 64, "note_on_time": 2.484, "note_off_time": 2.762}, {"pitch": 62, "velocity": 56, "note_on_time": 2.787, "note_off_time": 3.022}, {"pitch": 65, "velocity": 87, "note_on_time": 3.028, "note_off_time": 3.697}, {"pitch": 62, "velocity": 60, "note_on_time": 3.772, "note_off_time": 3.954}, {"pitch": 60, "velocity": 73, "note_on_time": 4.016, "note_off_time": 4.136}, {"pitch": 60, "velocity": 66, "note_on_time": 4.267, "note_off_time": 4.515}, {"pitch": 65, "velocity": 74, "note_on_time": 4.511, "note_off_time": 4.811}, {"pitch": 64, "velocity": 66, "note_on_time": 4.766, "note_off_time": 5.019}, {"pitch": 62, "velocity": 69, "note_on_time": 5.025, "note_off_time": 5.145}, {"pitch": 62, "velocity": 69, "note_on_time": 5.3, "note_off_time": 5.801}, {"pitch": 64, "velocity": 68, "note_on_time": 6.048, "note_off_time": 6.341}, {"pitch": 60, "velocity": 64, "note_on_time": 6.354, "note_off_time": 6.569}, {"pitch": 64, "velocity": 63, "note_on_time": 6.594, "note_off_time": 6.827}, {"pitch": 60, "velocity": 55, "note_on_time": 6.878, "note_off_time": 7.128}, {"pitch": 62, "velocity": 70, "note_on_time": 7.139, "note_off_time": 7.255}, {"pitch": 64, "velocity": 61, "note_on_time": 7.398, "note_off_time": 7.52}, {"pitch": 67, "velocity": 82, "note_on_time": 7.65, "note_off_time": 8.134}, {"pitch": 67, "velocity": 69, "note_on_time": 8.271, "note_off_time": 8.395}, {"pitch": 67, "velocity": 71, "note_on_time": 8.533, "note_off_time": 8.659}, {"pitch": 67, "velocity": 74, "note_on_time": 8.786, "note_off_time": 9.189}]</notes><guidance name="Guidance Mode">None</guidance><error name="Error value">0.10796699999999987</error></trial><trial trial_no="3" timestamp="2022_11_03-10_19_36"><notes name="Played Notes">[{"pitch": 64, "velocity": 72, "note_on_time": 1.088, "note_off_time": 1.363}, {"pitch": 65, "velocity": 86, "note_on_time": 1.33, "note_off_time": 1.908}, {"pitch": 62, "velocity": 72, "note_on_time": 2.089, "note_off_time": 2.64}, {"pitch": 64, "velocity": 71, "note_on_time": 2.839, "note_off_time": 3.113}, {"pitch": 62, "velocity": 73, "note_on_time": 3.123, "note_off_time": 3.369}, {"pitch": 65, "velocity": 77, "note_on_time": 3.375, "note_off_time": 3.959}, {"pitch": 62, "velocity": 62, "note_on_time": 3.948, "note_off_time": 4.121}, {"pitch": 60, "velocity": 69, "note_on_time": 4.255, "note_off_time": 4.372}, {"pitch": 60, "velocity": 67, "note_on_time": 4.513, "note_off_time": 4.809}, {"pitch": 65, "velocity": 67, "note_on_time": 4.811, "note_off_time": 5.144}, {"pitch": 64, "velocity": 65, "note_on_time": 5.085, "note_off_time": 5.327}, {"pitch": 62, "velocity": 63, "note_on_time": 5.356, "note_off_time": 5.464}, {"pitch": 62, "velocity": 67, "note_on_time": 5.595, "note_off_time": 6.191}, {"pitch": 64, "velocity": 64, "note_on_time": 6.434, "note_off_time": 6.652}, {"pitch": 60, "velocity": 65, "note_on_time": 6.701, "note_off_time": 6.916}, {"pitch": 64, "velocity": 62, "note_on_time": 6.938, "note_off_time": 7.215}, {"pitch": 60, "velocity": 59, "note_on_time": 7.226, "note_off_time": 7.521}, {"pitch": 62, "velocity": 65, "note_on_time": 7.506, "note_off_time": 7.626}, {"pitch": 64, "velocity": 67, "note_on_time": 7.748, "note_off_time": 7.867}, {"pitch": 67, "velocity": 78, "note_on_time": 7.996, "note_off_time": 8.524}, {"pitch": 67, "velocity": 68, "note_on_time": 8.651, "note_off_time": 8.771}, {"pitch": 67, "velocity": 58, "note_on_time": 8.873, "note_off_time": 9.011}]</notes><guidance name="Guidance Mode">None</guidance><error name="Error value">0.11678100000000022</error></trial></trials></MIDI>