<MIDI midiNo="2022_09_12-11_36_29"><target_notes><notes name="Note List">[{"pitch": 42, "velocity": 80, "note_on_time": 0.004, "note_off_time": 0.77}, {"pitch": 42, "velocity": 80, "note_on_time": 0.77, "note_off_time": 1.535}, {"pitch": 42, "velocity": 80, "note_on_time": 1.535, "note_off_time": 2.297}, {"pitch": 42, "velocity": 80, "note_on_time": 2.298, "note_off_time": 3.06}, {"pitch": 60, "velocity": 80, "note_on_time": 3.059, "note_off_time": 3.817}, {"pitch": 42, "velocity": 80, "note_on_time": 3.06, "note_off_time": 3.817}, {"pitch": 62, "velocity": 80, "note_on_time": 3.817, "note_off_time": 4.578}, {"pitch": 42, "velocity": 80, "note_on_time": 3.817, "note_off_time": 4.579}, {"pitch": 60, "velocity": 80, "note_on_time": 4.578, "note_off_time": 5.344}, {"pitch": 42, "velocity": 80, "note_on_time": 4.579, "note_off_time": 5.344}, {"pitch": 62, "velocity": 80, "note_on_time": 5.344, "note_off_time": 6.107}, {"pitch": 42, "velocity": 80, "note_on_time": 5.344, "note_off_time": 6.108}, {"pitch": 62, "velocity": 80, "note_on_time": 6.107, "note_off_time": 6.87}, {"pitch": 42, "velocity": 80, "note_on_time": 6.108, "note_off_time": 6.871}, {"pitch": 62, "velocity": 80, "note_on_time": 6.87, "note_off_time": 7.621}, {"pitch": 42, "velocity": 80, "note_on_time": 6.871, "note_off_time": 7.622}, {"pitch": 62, "velocity": 80, "note_on_time": 7.621, "note_off_time": 8.372}, {"pitch": 42, "velocity": 80, "note_on_time": 7.622, "note_off_time": 8.372}, {"pitch": 60, "velocity": 80, "note_on_time": 8.372, "note_off_time": 9.134}, {"pitch": 42, "velocity": 80, "note_on_time": 8.372, "note_off_time": 9.134}, {"pitch": 62, "velocity": 80, "note_on_time": 9.134, "note_off_time": 9.896}, {"pitch": 42, "velocity": 80, "note_on_time": 9.135, "note_off_time": 9.897}, {"pitch": 42, "velocity": 80, "note_on_time": 9.897, "note_off_time": 10.661}, {"pitch": 42, "velocity": 80, "note_on_time": 10.661, "note_off_time": 11.426}, {"pitch": 60, "velocity": 80, "note_on_time": 11.425, "note_off_time": 12.189}, {"pitch": 42, "velocity": 80, "note_on_time": 11.427, "note_off_time": 12.189}, {"pitch": 60, "velocity": 80, "note_on_time": 12.189, "note_off_time": 12.951}, {"pitch": 42, "velocity": 80, "note_on_time": 12.189, "note_off_time": 12.951}, {"pitch": 62, "velocity": 80, "note_on_time": 12.951, "note_off_time": 13.711}, {"pitch": 42, "velocity": 80, "note_on_time": 12.951, "note_off_time": 13.711}, {"pitch": 42, "velocity": 80, "note_on_time": 13.711, "note_off_time": 14.473}, {"pitch": 42, "velocity": 80, "note_on_time": 14.474, "note_off_time": 15.232}, {"pitch": 62, "velocity": 80, "note_on_time": 15.231, "note_off_time": 15.992}, {"pitch": 42, "velocity": 80, "note_on_time": 15.232, "note_off_time": 15.992}, {"pitch": 60, "velocity": 80, "note_on_time": 15.992, "note_off_time": 16.754}, {"pitch": 42, "velocity": 80, "note_on_time": 15.992, "note_off_time": 16.754}, {"pitch": 60, "velocity": 80, "note_on_time": 16.754, "note_off_time": 17.519}, {"pitch": 42, "velocity": 80, "note_on_time": 16.754, "note_off_time": 17.52}, {"pitch": 60, "velocity": 80, "note_on_time": 17.519, "note_off_time": 18.284}, {"pitch": 42, "velocity": 80, "note_on_time": 17.52, "note_off_time": 18.284}, {"pitch": 60, "velocity": 80, "note_on_time": 18.284, "note_off_time": 19.048}, {"pitch": 42, "velocity": 80, "note_on_time": 18.285, "note_off_time": 19.048}, {"pitch": 42, "velocity": 80, "note_on_time": 19.049, "note_off_time": 19.808}, {"pitch": 42, "velocity": 80, "note_on_time": 19.808, "note_off_time": 20.572}, {"pitch": 42, "velocity": 80, "note_on_time": 20.572, "note_off_time": 21.336}, {"pitch": 62, "velocity": 80, "note_on_time": 21.336, "note_off_time": 22.097}, {"pitch": 42, "velocity": 80, "note_on_time": 21.337, "note_off_time": 22.097}, {"pitch": 60, "velocity": 80, "note_on_time": 22.097, "note_off_time": 22.857}, {"pitch": 42, "velocity": 80, "note_on_time": 22.097, "note_off_time": 22.858}, {"pitch": 62, "velocity": 80, "note_on_time": 22.857, "note_off_time": 23.618}, {"pitch": 42, "velocity": 80, "note_on_time": 22.858, "note_off_time": 23.619}, {"pitch": 60, "velocity": 80, "note_on_time": 23.618, "note_off_time": 24.383}, {"pitch": 42, "velocity": 80, "note_on_time": 23.619, "note_off_time": 24.383}, {"pitch": 42, "velocity": 80, "note_on_time": 24.384, "note_off_time": 25.145}, {"pitch": 60, "velocity": 80, "note_on_time": 25.145, "note_off_time": 25.908}, {"pitch": 42, "velocity": 80, "note_on_time": 25.145, "note_off_time": 25.909}, {"pitch": 60, "velocity": 80, "note_on_time": 25.908, "note_off_time": 26.672}, {"pitch": 42, "velocity": 80, "note_on_time": 25.909, "note_off_time": 26.672}, {"pitch": 60, "velocity": 80, "note_on_time": 26.672, "note_off_time": 27.435}, {"pitch": 42, "velocity": 80, "note_on_time": 26.672, "note_off_time": 27.435}]</notes><options name="Option List">((4, 4), [0.25], 3, 8, &lt;NoteRangePerHand.TWO_NOTES: 3&gt;, &lt;NoteRangePerHand.ONE_NOTE: 2&gt;, False, True, True, '80')</options></target_notes><trials><trial trial_no="1" timestamp="2022_09_12-11_37_18"><notes name="Played Notes">[{"pitch": 72, "velocity": 63, "note_on_time": 3.049, "note_off_time": 3.237}, {"pitch": 74, "velocity": 81, "note_on_time": 3.804, "note_off_time": 3.975}, {"pitch": 72, "velocity": 77, "note_on_time": 4.59, "note_off_time": 4.747}, {"pitch": 74, "velocity": 76, "note_on_time": 5.409, "note_off_time": 5.563}, {"pitch": 74, "velocity": 78, "note_on_time": 6.169, "note_off_time": 6.313}, {"pitch": 74, "velocity": 76, "note_on_time": 6.889, "note_off_time": 7.036}, {"pitch": 74, "velocity": 78, "note_on_time": 7.642, "note_off_time": 7.79}, {"pitch": 72, "velocity": 70, "note_on_time": 8.36, "note_off_time": 8.528}, {"pitch": 74, "velocity": 80, "note_on_time": 9.106, "note_off_time": 9.254}, {"pitch": 72, "velocity": 66, "note_on_time": 11.348, "note_off_time": 11.542}, {"pitch": 72, "velocity": 82, "note_on_time": 12.093, "note_off_time": 12.288}, {"pitch": 74, "velocity": 78, "note_on_time": 12.838, "note_off_time": 12.976}, {"pitch": 74, "velocity": 82, "note_on_time": 15.271, "note_off_time": 15.426}, {"pitch": 72, "velocity": 74, "note_on_time": 16.014, "note_off_time": 16.187}, {"pitch": 72, "velocity": 75, "note_on_time": 16.723, "note_off_time": 16.915}, {"pitch": 72, "velocity": 61, "note_on_time": 17.466, "note_off_time": 17.626}, {"pitch": 72, "velocity": 81, "note_on_time": 18.171, "note_off_time": 18.364}, {"pitch": 74, "velocity": 75, "note_on_time": 21.308, "note_off_time": 21.463}, {"pitch": 72, "velocity": 70, "note_on_time": 22.057, "note_off_time": 22.226}, {"pitch": 74, "velocity": 81, "note_on_time": 22.852, "note_off_time": 22.989}, {"pitch": 72, "velocity": 78, "note_on_time": 23.615, "note_off_time": 23.777}, {"pitch": 72, "velocity": 72, "note_on_time": 25.078, "note_off_time": 25.291}, {"pitch": 72, "velocity": 78, "note_on_time": 25.829, "note_off_time": 26.009}, {"pitch": 72, "velocity": 82, "note_on_time": 26.548, "note_off_time": 26.715}]</notes><guidance name="Guidance Mode">None</guidance><error name="Error value">1.1788095238095242</error></trial></trials></MIDI>