<MIDI midiNo="2022_12_08-10_58_27"><target_notes><notes name="Note List">[{"pitch": 42, "velocity": 80, "note_on_time": 0.004, "note_off_time": 0.257}, {"pitch": 42, "velocity": 80, "note_on_time": 0.257, "note_off_time": 0.507}, {"pitch": 42, "velocity": 80, "note_on_time": 0.507, "note_off_time": 0.756}, {"pitch": 42, "velocity": 80, "note_on_time": 0.756, "note_off_time": 1.006}, {"pitch": 60, "velocity": 80, "note_on_time": 1.006, "note_off_time": 1.254}, {"pitch": 42, "velocity": 80, "note_on_time": 1.006, "note_off_time": 1.255}, {"pitch": 42, "velocity": 80, "note_on_time": 1.255, "note_off_time": 1.505}, {"pitch": 42, "velocity": 80, "note_on_time": 1.505, "note_off_time": 1.755}, {"pitch": 60, "velocity": 80, "note_on_time": 1.755, "note_off_time": 2.004}, {"pitch": 42, "velocity": 80, "note_on_time": 1.756, "note_off_time": 2.004}, {"pitch": 64, "velocity": 80, "note_on_time": 2.004, "note_off_time": 2.251}, {"pitch": 42, "velocity": 80, "note_on_time": 2.004, "note_off_time": 2.251}, {"pitch": 60, "velocity": 80, "note_on_time": 2.251, "note_off_time": 2.5}, {"pitch": 42, "velocity": 80, "note_on_time": 2.251, "note_off_time": 2.5}, {"pitch": 67, "velocity": 80, "note_on_time": 2.5, "note_off_time": 2.747}, {"pitch": 42, "velocity": 80, "note_on_time": 2.5, "note_off_time": 2.747}, {"pitch": 67, "velocity": 80, "note_on_time": 2.747, "note_off_time": 2.997}, {"pitch": 42, "velocity": 80, "note_on_time": 2.747, "note_off_time": 2.997}, {"pitch": 64, "velocity": 80, "note_on_time": 2.997, "note_off_time": 3.246}, {"pitch": 42, "velocity": 80, "note_on_time": 2.997, "note_off_time": 3.246}, {"pitch": 64, "velocity": 80, "note_on_time": 3.246, "note_off_time": 3.495}, {"pitch": 42, "velocity": 80, "note_on_time": 3.246, "note_off_time": 3.495}, {"pitch": 64, "velocity": 80, "note_on_time": 3.495, "note_off_time": 3.743}, {"pitch": 42, "velocity": 80, "note_on_time": 3.496, "note_off_time": 3.744}, {"pitch": 62, "velocity": 80, "note_on_time": 3.743, "note_off_time": 3.993}, {"pitch": 42, "velocity": 80, "note_on_time": 3.744, "note_off_time": 3.993}, {"pitch": 65, "velocity": 80, "note_on_time": 3.993, "note_off_time": 4.243}, {"pitch": 42, "velocity": 80, "note_on_time": 3.994, "note_off_time": 4.243}, {"pitch": 67, "velocity": 80, "note_on_time": 4.243, "note_off_time": 4.493}, {"pitch": 42, "velocity": 80, "note_on_time": 4.243, "note_off_time": 4.493}, {"pitch": 60, "velocity": 80, "note_on_time": 4.493, "note_off_time": 4.743}, {"pitch": 42, "velocity": 80, "note_on_time": 4.493, "note_off_time": 4.743}, {"pitch": 65, "velocity": 80, "note_on_time": 4.743, "note_off_time": 4.992}, {"pitch": 42, "velocity": 80, "note_on_time": 4.743, "note_off_time": 4.992}, {"pitch": 60, "velocity": 80, "note_on_time": 4.992, "note_off_time": 5.243}, {"pitch": 42, "velocity": 80, "note_on_time": 4.993, "note_off_time": 5.243}, {"pitch": 65, "velocity": 80, "note_on_time": 5.243, "note_off_time": 5.491}, {"pitch": 42, "velocity": 80, "note_on_time": 5.243, "note_off_time": 5.491}, {"pitch": 67, "velocity": 80, "note_on_time": 5.491, "note_off_time": 5.739}, {"pitch": 42, "velocity": 80, "note_on_time": 5.491, "note_off_time": 5.739}, {"pitch": 62, "velocity": 80, "note_on_time": 5.739, "note_off_time": 5.989}, {"pitch": 42, "velocity": 80, "note_on_time": 5.74, "note_off_time": 5.989}, {"pitch": 42, "velocity": 80, "note_on_time": 5.99, "note_off_time": 6.24}, {"pitch": 64, "velocity": 80, "note_on_time": 5.989, "note_off_time": 6.488}, {"pitch": 42, "velocity": 80, "note_on_time": 6.24, "note_off_time": 6.488}, {"pitch": 42, "velocity": 80, "note_on_time": 6.489, "note_off_time": 6.738}, {"pitch": 42, "velocity": 80, "note_on_time": 6.738, "note_off_time": 6.986}, {"pitch": 64, "velocity": 80, "note_on_time": 6.986, "note_off_time": 7.237}, {"pitch": 42, "velocity": 80, "note_on_time": 6.986, "note_off_time": 7.237}, {"pitch": 42, "velocity": 80, "note_on_time": 7.237, "note_off_time": 7.488}, {"pitch": 42, "velocity": 80, "note_on_time": 7.489, "note_off_time": 7.739}, {"pitch": 42, "velocity": 80, "note_on_time": 7.74, "note_off_time": 7.988}, {"pitch": 42, "velocity": 80, "note_on_time": 7.989, "note_off_time": 8.236}, {"pitch": 64, "velocity": 80, "note_on_time": 8.236, "note_off_time": 8.485}, {"pitch": 42, "velocity": 80, "note_on_time": 8.237, "note_off_time": 8.485}, {"pitch": 64, "velocity": 80, "note_on_time": 8.485, "note_off_time": 8.735}, {"pitch": 42, "velocity": 80, "note_on_time": 8.486, "note_off_time": 8.736}, {"pitch": 64, "velocity": 80, "note_on_time": 8.735, "note_off_time": 8.984}, {"pitch": 42, "velocity": 80, "note_on_time": 8.736, "note_off_time": 8.984}]</notes><options name="Option List">((4, 4), [0.5, 0.25], 3, 8, &lt;NoteRangePerHand.C_TO_G: 6&gt;, &lt;NoteRangePerHand.ONE_NOTE: 2&gt;, False, True, False, 248)</options></target_notes><trials><trial trial_no="1" timestamp="2022_12_08-10_58_17"><notes name="Played Notes">[{"pitch": 60, "velocity": 62, "note_on_time": 1.043, "note_off_time": 1.521}, {"pitch": 60, "velocity": 74, "note_on_time": 1.793, "note_off_time": 2.034}, {"pitch": 64, "velocity": 69, "note_on_time": 2.044, "note_off_time": 2.307}, {"pitch": 60, "velocity": 54, "note_on_time": 2.281, "note_off_time": 2.505}, {"pitch": 67, "velocity": 71, "note_on_time": 2.515, "note_off_time": 2.645}, {"pitch": 67, "velocity": 72, "note_on_time": 2.782, "note_off_time": 3.023}, {"pitch": 64, "velocity": 72, "note_on_time": 3.027, "note_off_time": 3.13}, {"pitch": 64, "velocity": 65, "note_on_time": 3.255, "note_off_time": 3.352}, {"pitch": 64, "velocity": 66, "note_on_time": 3.499, "note_off_time": 3.752}, {"pitch": 62, "velocity": 56, "note_on_time": 3.76, "note_off_time": 3.992}, {"pitch": 65, "velocity": 71, "note_on_time": 4.003, "note_off_time": 4.237}, {"pitch": 67, "velocity": 72, "note_on_time": 4.245, "note_off_time": 4.541}, {"pitch": 60, "velocity": 68, "note_on_time": 4.509, "note_off_time": 4.739}, {"pitch": 65, "velocity": 71, "note_on_time": 4.737, "note_off_time": 4.993}, {"pitch": 60, "velocity": 72, "note_on_time": 4.976, "note_off_time": 5.225}, {"pitch": 65, "velocity": 66, "note_on_time": 5.227, "note_off_time": 5.489}, {"pitch": 67, "velocity": 68, "note_on_time": 5.492, "note_off_time": 5.736}, {"pitch": 62, "velocity": 61, "note_on_time": 5.738, "note_off_time": 5.96}, {"pitch": 64, "velocity": 63, "note_on_time": 5.968, "note_off_time": 6.405}, {"pitch": 64, "velocity": 60, "note_on_time": 7.0, "note_off_time": 7.582}, {"pitch": 64, "velocity": 68, "note_on_time": 8.178, "note_off_time": 8.273}, {"pitch": 64, "velocity": 71, "note_on_time": 8.448, "note_off_time": 8.549}, {"pitch": 64, "velocity": 65, "note_on_time": 8.684, "note_off_time": 8.795}]</notes><guidance name="Guidance Mode">None</guidance><error name="Error value">0.016372750000000137</error></trial><trial trial_no="2" timestamp="2022_12_08-10_58_38"><notes name="Played Notes">[{"pitch": 60, "velocity": 66, "note_on_time": 1.017, "note_off_time": 1.588}, {"pitch": 60, "velocity": 82, "note_on_time": 1.809, "note_off_time": 2.002}, {"pitch": 64, "velocity": 66, "note_on_time": 2.025, "note_off_time": 2.281}, {"pitch": 60, "velocity": 65, "note_on_time": 2.268, "note_off_time": 2.511}, {"pitch": 67, "velocity": 68, "note_on_time": 2.507, "note_off_time": 2.638}, {"pitch": 67, "velocity": 64, "note_on_time": 2.746, "note_off_time": 3.022}, {"pitch": 64, "velocity": 71, "note_on_time": 3.001, "note_off_time": 3.116}, {"pitch": 64, "velocity": 62, "note_on_time": 3.229, "note_off_time": 3.341}, {"pitch": 64, "velocity": 66, "note_on_time": 3.47, "note_off_time": 3.73}, {"pitch": 62, "velocity": 65, "note_on_time": 3.736, "note_off_time": 3.982}, {"pitch": 65, "velocity": 69, "note_on_time": 3.993, "note_off_time": 4.226}, {"pitch": 67, "velocity": 69, "note_on_time": 4.234, "note_off_time": 4.49}, {"pitch": 60, "velocity": 70, "note_on_time": 4.472, "note_off_time": 4.734}, {"pitch": 65, "velocity": 69, "note_on_time": 4.73, "note_off_time": 4.983}, {"pitch": 60, "velocity": 70, "note_on_time": 4.99, "note_off_time": 5.212}, {"pitch": 65, "velocity": 63, "note_on_time": 5.215, "note_off_time": 5.471}, {"pitch": 67, "velocity": 72, "note_on_time": 5.483, "note_off_time": 5.709}, {"pitch": 62, "velocity": 63, "note_on_time": 5.718, "note_off_time": 5.967}, {"pitch": 64, "velocity": 64, "note_on_time": 5.974, "note_off_time": 6.388}, {"pitch": 64, "velocity": 65, "note_on_time": 7.008, "note_off_time": 7.244}, {"pitch": 64, "velocity": 77, "note_on_time": 8.251, "note_off_time": 8.362}, {"pitch": 64, "velocity": 56, "note_on_time": 8.472, "note_off_time": 8.571}, {"pitch": 64, "velocity": 64, "note_on_time": 8.733, "note_off_time": 8.854}]</notes><guidance name="Guidance Mode">None</guidance><error name="Error value">0.02043575000000001</error></trial><trial trial_no="3" timestamp="2022_12_08-10_58_58"><notes name="Played Notes">[{"pitch": 60, "velocity": 73, "note_on_time": 1.049, "note_off_time": 1.518}, {"pitch": 60, "velocity": 77, "note_on_time": 1.812, "note_off_time": 2.024}, {"pitch": 64, "velocity": 71, "note_on_time": 2.033, "note_off_time": 2.287}, {"pitch": 60, "velocity": 60, "note_on_time": 2.258, "note_off_time": 2.523}, {"pitch": 67, "velocity": 61, "note_on_time": 2.53, "note_off_time": 2.641}, {"pitch": 67, "velocity": 59, "note_on_time": 2.753, "note_off_time": 3.012}, {"pitch": 64, "velocity": 65, "note_on_time": 3.0, "note_off_time": 3.106}, {"pitch": 64, "velocity": 66, "note_on_time": 3.242, "note_off_time": 3.333}, {"pitch": 64, "velocity": 61, "note_on_time": 3.486, "note_off_time": 3.736}, {"pitch": 62, "velocity": 64, "note_on_time": 3.743, "note_off_time": 3.971}, {"pitch": 65, "velocity": 64, "note_on_time": 3.982, "note_off_time": 4.23}, {"pitch": 67, "velocity": 72, "note_on_time": 4.242, "note_off_time": 4.556}, {"pitch": 60, "velocity": 67, "note_on_time": 4.508, "note_off_time": 4.732}, {"pitch": 65, "velocity": 64, "note_on_time": 4.741, "note_off_time": 4.996}, {"pitch": 60, "velocity": 54, "note_on_time": 4.996, "note_off_time": 5.25}, {"pitch": 65, "velocity": 54, "note_on_time": 5.262, "note_off_time": 5.515}, {"pitch": 67, "velocity": 61, "note_on_time": 5.527, "note_off_time": 5.747}, {"pitch": 62, "velocity": 63, "note_on_time": 5.756, "note_off_time": 6.005}, {"pitch": 64, "velocity": 60, "note_on_time": 6.018, "note_off_time": 6.402}, {"pitch": 64, "velocity": 65, "note_on_time": 6.98, "note_off_time": 7.315}, {"pitch": 64, "velocity": 60, "note_on_time": 8.18, "note_off_time": 8.263}, {"pitch": 64, "velocity": 58, "note_on_time": 8.469, "note_off_time": 8.532}, {"pitch": 64, "velocity": 74, "note_on_time": 8.692, "note_off_time": 8.797}]</notes><guidance name="Guidance Mode">None</guidance><error name="Error value">0.01874674999999989</error></trial></trials></MIDI>