<MIDI midiNo="2022_11_03-09_18_54"><target_notes><notes name="Note List">[{"pitch": 42, "velocity": 80, "note_on_time": 0.004, "note_off_time": 0.179}, {"pitch": 42, "velocity": 80, "note_on_time": 0.18, "note_off_time": 0.351}, {"pitch": 42, "velocity": 80, "note_on_time": 0.351, "note_off_time": 0.523}, {"pitch": 42, "velocity": 80, "note_on_time": 0.524, "note_off_time": 0.695}, {"pitch": 65, "velocity": 80, "note_on_time": 0.695, "note_off_time": 0.866}, {"pitch": 42, "velocity": 80, "note_on_time": 0.695, "note_off_time": 0.866}, {"pitch": 64, "velocity": 80, "note_on_time": 0.866, "note_off_time": 1.035}, {"pitch": 42, "velocity": 80, "note_on_time": 0.866, "note_off_time": 1.035}, {"pitch": 62, "velocity": 80, "note_on_time": 1.035, "note_off_time": 1.205}, {"pitch": 42, "velocity": 80, "note_on_time": 1.036, "note_off_time": 1.206}, {"pitch": 64, "velocity": 80, "note_on_time": 1.205, "note_off_time": 1.375}, {"pitch": 42, "velocity": 80, "note_on_time": 1.206, "note_off_time": 1.376}, {"pitch": 65, "velocity": 80, "note_on_time": 1.375, "note_off_time": 1.546}, {"pitch": 42, "velocity": 80, "note_on_time": 1.376, "note_off_time": 1.546}, {"pitch": 65, "velocity": 80, "note_on_time": 1.546, "note_off_time": 1.717}, {"pitch": 42, "velocity": 80, "note_on_time": 1.546, "note_off_time": 1.717}, {"pitch": 67, "velocity": 80, "note_on_time": 1.717, "note_off_time": 1.89}, {"pitch": 42, "velocity": 80, "note_on_time": 1.717, "note_off_time": 1.89}, {"pitch": 64, "velocity": 80, "note_on_time": 1.89, "note_off_time": 2.064}, {"pitch": 42, "velocity": 80, "note_on_time": 1.89, "note_off_time": 2.064}, {"pitch": 67, "velocity": 80, "note_on_time": 2.064, "note_off_time": 2.235}, {"pitch": 42, "velocity": 80, "note_on_time": 2.065, "note_off_time": 2.235}, {"pitch": 65, "velocity": 80, "note_on_time": 2.235, "note_off_time": 2.407}, {"pitch": 42, "velocity": 80, "note_on_time": 2.236, "note_off_time": 2.407}, {"pitch": 65, "velocity": 80, "note_on_time": 2.407, "note_off_time": 2.579}, {"pitch": 42, "velocity": 80, "note_on_time": 2.407, "note_off_time": 2.579}, {"pitch": 62, "velocity": 80, "note_on_time": 2.579, "note_off_time": 2.749}, {"pitch": 42, "velocity": 80, "note_on_time": 2.579, "note_off_time": 2.749}, {"pitch": 65, "velocity": 80, "note_on_time": 2.749, "note_off_time": 2.921}, {"pitch": 42, "velocity": 80, "note_on_time": 2.749, "note_off_time": 2.921}, {"pitch": 42, "velocity": 80, "note_on_time": 2.921, "note_off_time": 3.091}, {"pitch": 42, "velocity": 80, "note_on_time": 3.091, "note_off_time": 3.262}, {"pitch": 42, "velocity": 80, "note_on_time": 3.262, "note_off_time": 3.433}, {"pitch": 42, "velocity": 80, "note_on_time": 3.433, "note_off_time": 3.606}, {"pitch": 64, "velocity": 80, "note_on_time": 3.433, "note_off_time": 3.777}, {"pitch": 42, "velocity": 80, "note_on_time": 3.606, "note_off_time": 3.777}, {"pitch": 62, "velocity": 80, "note_on_time": 3.777, "note_off_time": 3.948}, {"pitch": 42, "velocity": 80, "note_on_time": 3.777, "note_off_time": 3.948}, {"pitch": 60, "velocity": 80, "note_on_time": 3.948, "note_off_time": 4.119}, {"pitch": 42, "velocity": 80, "note_on_time": 3.948, "note_off_time": 4.12}, {"pitch": 67, "velocity": 80, "note_on_time": 4.119, "note_off_time": 4.29}, {"pitch": 42, "velocity": 80, "note_on_time": 4.12, "note_off_time": 4.29}, {"pitch": 42, "velocity": 80, "note_on_time": 4.291, "note_off_time": 4.462}, {"pitch": 42, "velocity": 80, "note_on_time": 4.462, "note_off_time": 4.632}, {"pitch": 42, "velocity": 80, "note_on_time": 4.632, "note_off_time": 4.803}, {"pitch": 42, "velocity": 80, "note_on_time": 4.803, "note_off_time": 4.974}, {"pitch": 64, "velocity": 80, "note_on_time": 4.803, "note_off_time": 5.147}, {"pitch": 42, "velocity": 80, "note_on_time": 4.974, "note_off_time": 5.147}, {"pitch": 42, "velocity": 80, "note_on_time": 5.147, "note_off_time": 5.318}, {"pitch": 42, "velocity": 80, "note_on_time": 5.318, "note_off_time": 5.487}, {"pitch": 42, "velocity": 80, "note_on_time": 5.487, "note_off_time": 5.659}, {"pitch": 64, "velocity": 80, "note_on_time": 5.659, "note_off_time": 5.829}, {"pitch": 42, "velocity": 80, "note_on_time": 5.659, "note_off_time": 5.829}, {"pitch": 64, "velocity": 80, "note_on_time": 5.829, "note_off_time": 6.001}, {"pitch": 42, "velocity": 80, "note_on_time": 5.829, "note_off_time": 6.001}, {"pitch": 64, "velocity": 80, "note_on_time": 6.001, "note_off_time": 6.173}, {"pitch": 42, "velocity": 80, "note_on_time": 6.002, "note_off_time": 6.173}]</notes><options name="Option List">((4, 4), [0.5, 0.25], 3, 8, &lt;NoteRangePerHand.C_TO_G: 6&gt;, &lt;NoteRangePerHand.ONE_NOTE: 2&gt;, False, True, False, '365')</options></target_notes><trials><trial trial_no="1" timestamp="2022_11_03-09_18_46"><notes name="Played Notes">[{"pitch": 65, "velocity": 70, "note_on_time": 0.724, "note_off_time": 0.987}, {"pitch": 64, "velocity": 67, "note_on_time": 0.868, "note_off_time": 1.011}, {"pitch": 62, "velocity": 49, "note_on_time": 1.037, "note_off_time": 1.32}, {"pitch": 64, "velocity": 73, "note_on_time": 1.174, "note_off_time": 1.348}, {"pitch": 65, "velocity": 85, "note_on_time": 1.303, "note_off_time": 1.372}, {"pitch": 65, "velocity": 97, "note_on_time": 1.448, "note_off_time": 1.634}, {"pitch": 67, "velocity": 76, "note_on_time": 1.597, "note_off_time": 1.764}, {"pitch": 64, "velocity": 82, "note_on_time": 1.729, "note_off_time": 1.895}, {"pitch": 67, "velocity": 73, "note_on_time": 1.861, "note_off_time": 2.024}, {"pitch": 65, "velocity": 85, "note_on_time": 1.979, "note_off_time": 2.074}, {"pitch": 65, "velocity": 91, "note_on_time": 2.151, "note_off_time": 2.294}, {"pitch": 62, "velocity": 73, "note_on_time": 2.294, "note_off_time": 2.506}, {"pitch": 65, "velocity": 78, "note_on_time": 2.433, "note_off_time": 2.764}, {"pitch": 64, "velocity": 76, "note_on_time": 3.001, "note_off_time": 3.465}, {"pitch": 62, "velocity": 57, "note_on_time": 3.635, "note_off_time": 3.805}, {"pitch": 60, "velocity": 74, "note_on_time": 3.762, "note_off_time": 4.011}, {"pitch": 67, "velocity": 84, "note_on_time": 3.901, "note_off_time": 4.521}, {"pitch": 64, "velocity": 72, "note_on_time": 4.883, "note_off_time": 5.418}, {"pitch": 64, "velocity": 66, "note_on_time": 5.803, "note_off_time": 5.852}, {"pitch": 64, "velocity": 52, "note_on_time": 5.953, "note_off_time": 6.02}]</notes><guidance name="Guidance Mode">None</guidance><error name="Error value">0.12493499999999995</error></trial><trial trial_no="2" timestamp="2022_11_03-09_19_02"><notes name="Played Notes">[{"pitch": 65, "velocity": 65, "note_on_time": 0.705, "note_off_time": 0.905}, {"pitch": 64, "velocity": 62, "note_on_time": 0.831, "note_off_time": 0.957}, {"pitch": 62, "velocity": 47, "note_on_time": 0.98, "note_off_time": 1.261}, {"pitch": 64, "velocity": 48, "note_on_time": 1.118, "note_off_time": 1.293}, {"pitch": 65, "velocity": 74, "note_on_time": 1.256, "note_off_time": 1.314}, {"pitch": 65, "velocity": 66, "note_on_time": 1.416, "note_off_time": 1.557}, {"pitch": 67, "velocity": 60, "note_on_time": 1.557, "note_off_time": 1.71}, {"pitch": 64, "velocity": 67, "note_on_time": 1.667, "note_off_time": 1.841}, {"pitch": 67, "velocity": 60, "note_on_time": 1.809, "note_off_time": 1.965}, {"pitch": 65, "velocity": 71, "note_on_time": 1.933, "note_off_time": 1.997}, {"pitch": 65, "velocity": 81, "note_on_time": 2.08, "note_off_time": 2.204}, {"pitch": 62, "velocity": 69, "note_on_time": 2.218, "note_off_time": 2.442}, {"pitch": 65, "velocity": 73, "note_on_time": 2.382, "note_off_time": 2.686}, {"pitch": 64, "velocity": 72, "note_on_time": 3.018, "note_off_time": 3.484}, {"pitch": 62, "velocity": 55, "note_on_time": 3.666, "note_off_time": 3.849}, {"pitch": 60, "velocity": 74, "note_on_time": 3.824, "note_off_time": 3.99}, {"pitch": 67, "velocity": 79, "note_on_time": 3.931, "note_off_time": 4.475}, {"pitch": 64, "velocity": 71, "note_on_time": 4.85, "note_off_time": 5.315}, {"pitch": 64, "velocity": 64, "note_on_time": 5.632, "note_off_time": 5.688}, {"pitch": 64, "velocity": 60, "note_on_time": 5.784, "note_off_time": 5.832}, {"pitch": 64, "velocity": 65, "note_on_time": 5.926, "note_off_time": 6.02}]</notes><guidance name="Guidance Mode">None</guidance><error name="Error value">0.057570944444444376</error></trial><trial trial_no="3" timestamp="2022_11_03-09_19_19"><notes name="Played Notes">[{"pitch": 65, "velocity": 69, "note_on_time": 0.706, "note_off_time": 0.91}, {"pitch": 64, "velocity": 61, "note_on_time": 0.831, "note_off_time": 0.949}, {"pitch": 62, "velocity": 49, "note_on_time": 0.97, "note_off_time": 1.229}, {"pitch": 64, "velocity": 56, "note_on_time": 1.104, "note_off_time": 1.273}, {"pitch": 65, "velocity": 79, "note_on_time": 1.235, "note_off_time": 1.291}, {"pitch": 65, "velocity": 78, "note_on_time": 1.375, "note_off_time": 1.507}, {"pitch": 67, "velocity": 63, "note_on_time": 1.5, "note_off_time": 1.643}, {"pitch": 64, "velocity": 76, "note_on_time": 1.61, "note_off_time": 1.738}, {"pitch": 67, "velocity": 65, "note_on_time": 1.748, "note_off_time": 1.889}, {"pitch": 65, "velocity": 82, "note_on_time": 1.858, "note_off_time": 1.936}, {"pitch": 65, "velocity": 88, "note_on_time": 2.006, "note_off_time": 2.122}, {"pitch": 62, "velocity": 72, "note_on_time": 2.131, "note_off_time": 2.306}, {"pitch": 65, "velocity": 76, "note_on_time": 2.26, "note_off_time": 2.56}, {"pitch": 64, "velocity": 79, "note_on_time": 2.874, "note_off_time": 3.284}, {"pitch": 62, "velocity": 50, "note_on_time": 3.468, "note_off_time": 3.598}, {"pitch": 60, "velocity": 74, "note_on_time": 3.585, "note_off_time": 3.796}, {"pitch": 67, "velocity": 80, "note_on_time": 3.739, "note_off_time": 4.228}, {"pitch": 64, "velocity": 74, "note_on_time": 4.612, "note_off_time": 5.17}, {"pitch": 64, "velocity": 63, "note_on_time": 5.514, "note_off_time": 5.56}, {"pitch": 64, "velocity": 63, "note_on_time": 5.667, "note_off_time": 5.719}, {"pitch": 64, "velocity": 72, "note_on_time": 5.803, "note_off_time": 5.928}]</notes><guidance name="Guidance Mode">None</guidance><error name="Error value">0.06224705555555559</error></trial><trial trial_no="4" timestamp="2022_11_03-09_19_34"><notes name="Played Notes">[{"pitch": 65, "velocity": 59, "note_on_time": 0.715, "note_off_time": 0.901}, {"pitch": 64, "velocity": 65, "note_on_time": 0.816, "note_off_time": 0.946}, {"pitch": 62, "velocity": 54, "note_on_time": 0.96, "note_off_time": 1.231}, {"pitch": 64, "velocity": 61, "note_on_time": 1.106, "note_off_time": 1.27}, {"pitch": 65, "velocity": 78, "note_on_time": 1.233, "note_off_time": 1.292}, {"pitch": 65, "velocity": 71, "note_on_time": 1.383, "note_off_time": 1.504}, {"pitch": 67, "velocity": 66, "note_on_time": 1.499, "note_off_time": 1.653}, {"pitch": 64, "velocity": 74, "note_on_time": 1.618, "note_off_time": 1.739}, {"pitch": 67, "velocity": 65, "note_on_time": 1.758, "note_off_time": 1.907}, {"pitch": 65, "velocity": 76, "note_on_time": 1.875, "note_off_time": 1.946}, {"pitch": 65, "velocity": 78, "note_on_time": 2.027, "note_off_time": 2.136}, {"pitch": 62, "velocity": 67, "note_on_time": 2.148, "note_off_time": 2.362}, {"pitch": 65, "velocity": 85, "note_on_time": 2.301, "note_off_time": 2.616}, {"pitch": 64, "velocity": 76, "note_on_time": 2.917, "note_off_time": 3.286}, {"pitch": 62, "velocity": 58, "note_on_time": 3.456, "note_off_time": 3.601}, {"pitch": 60, "velocity": 72, "note_on_time": 3.589, "note_off_time": 3.831}, {"pitch": 67, "velocity": 82, "note_on_time": 3.762, "note_off_time": 4.178}, {"pitch": 64, "velocity": 64, "note_on_time": 4.48, "note_off_time": 4.989}, {"pitch": 64, "velocity": 64, "note_on_time": 5.295, "note_off_time": 5.348}, {"pitch": 64, "velocity": 64, "note_on_time": 5.443, "note_off_time": 5.505}, {"pitch": 64, "velocity": 76, "note_on_time": 5.588, "note_off_time": 5.704}]</notes><guidance name="Guidance Mode">None</guidance><error name="Error value">0.043417277777777825</error></trial><trial trial_no="5" timestamp="2022_11_03-09_19_49"><notes name="Played Notes">[{"pitch": 65, "velocity": 61, "note_on_time": 0.734, "note_off_time": 0.914}, {"pitch": 64, "velocity": 67, "note_on_time": 0.83, "note_off_time": 0.981}, {"pitch": 62, "velocity": 56, "note_on_time": 0.981, "note_off_time": 1.25}, {"pitch": 64, "velocity": 53, "note_on_time": 1.112, "note_off_time": 1.266}, {"pitch": 65, "velocity": 78, "note_on_time": 1.229, "note_off_time": 1.288}, {"pitch": 65, "velocity": 74, "note_on_time": 1.379, "note_off_time": 1.5}, {"pitch": 67, "velocity": 65, "note_on_time": 1.496, "note_off_time": 1.644}, {"pitch": 64, "velocity": 77, "note_on_time": 1.607, "note_off_time": 1.783}, {"pitch": 67, "velocity": 62, "note_on_time": 1.748, "note_off_time": 1.889}, {"pitch": 65, "velocity": 74, "note_on_time": 1.857, "note_off_time": 1.908}, {"pitch": 65, "velocity": 78, "note_on_time": 1.991, "note_off_time": 2.107}, {"pitch": 62, "velocity": 65, "note_on_time": 2.118, "note_off_time": 2.322}, {"pitch": 65, "velocity": 82, "note_on_time": 2.266, "note_off_time": 2.494}, {"pitch": 64, "velocity": 72, "note_on_time": 2.84, "note_off_time": 3.241}, {"pitch": 62, "velocity": 59, "note_on_time": 3.398, "note_off_time": 3.548}, {"pitch": 60, "velocity": 73, "note_on_time": 3.516, "note_off_time": 3.723}, {"pitch": 67, "velocity": 81, "note_on_time": 3.651, "note_off_time": 4.08}, {"pitch": 64, "velocity": 70, "note_on_time": 4.386, "note_off_time": 4.88}, {"pitch": 64, "velocity": 65, "note_on_time": 5.239, "note_off_time": 5.283}, {"pitch": 64, "velocity": 53, "note_on_time": 5.395, "note_off_time": 5.435}, {"pitch": 64, "velocity": 79, "note_on_time": 5.513, "note_off_time": 5.579}]</notes><guidance name="Guidance Mode">None</guidance><error name="Error value">0.0551359444444445</error></trial></trials></MIDI>