<MIDI midiNo="2022_10_27-10_58_17"><target_notes><notes name="Note List">[{"pitch": 42, "velocity": 80, "note_on_time": 0.004, "note_off_time": 0.415}, {"pitch": 42, "velocity": 80, "note_on_time": 0.415, "note_off_time": 0.82}, {"pitch": 42, "velocity": 80, "note_on_time": 0.82, "note_off_time": 1.223}, {"pitch": 42, "velocity": 80, "note_on_time": 1.223, "note_off_time": 1.627}, {"pitch": 62, "velocity": 80, "note_on_time": 1.627, "note_off_time": 2.033}, {"pitch": 42, "velocity": 80, "note_on_time": 1.628, "note_off_time": 2.034}, {"pitch": 62, "velocity": 80, "note_on_time": 2.033, "note_off_time": 2.438}, {"pitch": 42, "velocity": 80, "note_on_time": 2.034, "note_off_time": 2.438}, {"pitch": 42, "velocity": 80, "note_on_time": 2.439, "note_off_time": 2.841}, {"pitch": 42, "velocity": 80, "note_on_time": 2.841, "note_off_time": 3.246}, {"pitch": 60, "velocity": 80, "note_on_time": 3.245, "note_off_time": 3.652}, {"pitch": 42, "velocity": 80, "note_on_time": 3.246, "note_off_time": 3.652}, {"pitch": 42, "velocity": 80, "note_on_time": 3.652, "note_off_time": 4.054}, {"pitch": 62, "velocity": 80, "note_on_time": 4.053, "note_off_time": 4.457}, {"pitch": 42, "velocity": 80, "note_on_time": 4.054, "note_off_time": 4.457}, {"pitch": 42, "velocity": 80, "note_on_time": 4.458, "note_off_time": 4.866}, {"pitch": 62, "velocity": 80, "note_on_time": 4.865, "note_off_time": 5.272}, {"pitch": 42, "velocity": 80, "note_on_time": 4.866, "note_off_time": 5.272}, {"pitch": 42, "velocity": 80, "note_on_time": 5.272, "note_off_time": 5.675}, {"pitch": 42, "velocity": 80, "note_on_time": 5.675, "note_off_time": 6.079}, {"pitch": 42, "velocity": 80, "note_on_time": 6.079, "note_off_time": 6.484}, {"pitch": 62, "velocity": 80, "note_on_time": 6.484, "note_off_time": 6.888}, {"pitch": 42, "velocity": 80, "note_on_time": 6.484, "note_off_time": 6.888}, {"pitch": 60, "velocity": 80, "note_on_time": 6.888, "note_off_time": 7.295}, {"pitch": 42, "velocity": 80, "note_on_time": 6.888, "note_off_time": 7.295}, {"pitch": 42, "velocity": 80, "note_on_time": 7.295, "note_off_time": 7.699}, {"pitch": 42, "velocity": 80, "note_on_time": 7.699, "note_off_time": 8.102}, {"pitch": 60, "velocity": 80, "note_on_time": 8.102, "note_off_time": 8.506}, {"pitch": 42, "velocity": 80, "note_on_time": 8.102, "note_off_time": 8.506}, {"pitch": 62, "velocity": 80, "note_on_time": 8.506, "note_off_time": 8.912}, {"pitch": 42, "velocity": 80, "note_on_time": 8.507, "note_off_time": 8.912}, {"pitch": 60, "velocity": 80, "note_on_time": 8.912, "note_off_time": 9.318}, {"pitch": 42, "velocity": 80, "note_on_time": 8.913, "note_off_time": 9.318}, {"pitch": 60, "velocity": 80, "note_on_time": 9.318, "note_off_time": 9.723}, {"pitch": 42, "velocity": 80, "note_on_time": 9.318, "note_off_time": 9.723}, {"pitch": 62, "velocity": 80, "note_on_time": 9.723, "note_off_time": 10.127}, {"pitch": 42, "velocity": 80, "note_on_time": 9.724, "note_off_time": 10.127}, {"pitch": 42, "velocity": 80, "note_on_time": 10.128, "note_off_time": 10.533}, {"pitch": 42, "velocity": 80, "note_on_time": 10.533, "note_off_time": 10.936}, {"pitch": 42, "velocity": 80, "note_on_time": 10.936, "note_off_time": 11.341}, {"pitch": 60, "velocity": 80, "note_on_time": 11.341, "note_off_time": 11.744}, {"pitch": 42, "velocity": 80, "note_on_time": 11.341, "note_off_time": 11.744}, {"pitch": 62, "velocity": 80, "note_on_time": 11.744, "note_off_time": 12.15}, {"pitch": 42, "velocity": 80, "note_on_time": 11.744, "note_off_time": 12.15}, {"pitch": 60, "velocity": 80, "note_on_time": 12.15, "note_off_time": 12.552}, {"pitch": 42, "velocity": 80, "note_on_time": 12.15, "note_off_time": 12.552}, {"pitch": 62, "velocity": 80, "note_on_time": 12.552, "note_off_time": 12.957}, {"pitch": 42, "velocity": 80, "note_on_time": 12.553, "note_off_time": 12.957}, {"pitch": 42, "velocity": 80, "note_on_time": 12.957, "note_off_time": 13.36}, {"pitch": 62, "velocity": 80, "note_on_time": 13.36, "note_off_time": 13.765}, {"pitch": 42, "velocity": 80, "note_on_time": 13.361, "note_off_time": 13.765}, {"pitch": 62, "velocity": 80, "note_on_time": 13.765, "note_off_time": 14.171}, {"pitch": 42, "velocity": 80, "note_on_time": 13.766, "note_off_time": 14.171}, {"pitch": 62, "velocity": 80, "note_on_time": 14.171, "note_off_time": 14.576}, {"pitch": 42, "velocity": 80, "note_on_time": 14.171, "note_off_time": 14.576}]</notes><options name="Option List">((4, 4), [0.25], 3, 8, &lt;NoteRangePerHand.TWO_NOTES: 3&gt;, &lt;NoteRangePerHand.ONE_NOTE: 2&gt;, False, True, False, '150')</options></target_notes><trials><trial trial_no="1" timestamp="2022_10_27-10_58_01"><notes name="Played Notes">[{"pitch": 62, "velocity": 55, "note_on_time": 1.255, "note_off_time": 1.458}, {"pitch": 62, "velocity": 67, "note_on_time": 1.774, "note_off_time": 1.966}, {"pitch": 60, "velocity": 58, "note_on_time": 3.024, "note_off_time": 3.181}, {"pitch": 62, "velocity": 60, "note_on_time": 4.035, "note_off_time": 4.204}, {"pitch": 62, "velocity": 70, "note_on_time": 4.568, "note_off_time": 4.744}, {"pitch": 62, "velocity": 67, "note_on_time": 6.077, "note_off_time": 6.259}, {"pitch": 60, "velocity": 59, "note_on_time": 6.608, "note_off_time": 6.763}, {"pitch": 60, "velocity": 74, "note_on_time": 7.545, "note_off_time": 7.727}, {"pitch": 62, "velocity": 61, "note_on_time": 8.112, "note_off_time": 8.293}, {"pitch": 60, "velocity": 62, "note_on_time": 8.621, "note_off_time": 8.793}, {"pitch": 60, "velocity": 64, "note_on_time": 9.143, "note_off_time": 9.325}, {"pitch": 62, "velocity": 43, "note_on_time": 9.658, "note_off_time": 9.85}, {"pitch": 60, "velocity": 61, "note_on_time": 10.923, "note_off_time": 11.114}, {"pitch": 62, "velocity": 54, "note_on_time": 11.43, "note_off_time": 11.62}, {"pitch": 60, "velocity": 54, "note_on_time": 11.938, "note_off_time": 12.094}, {"pitch": 62, "velocity": 47, "note_on_time": 12.441, "note_off_time": 12.654}, {"pitch": 62, "velocity": 60, "note_on_time": 13.435, "note_off_time": 13.605}, {"pitch": 62, "velocity": 64, "note_on_time": 13.955, "note_off_time": 14.125}]</notes><guidance name="Guidance Mode">None</guidance><error name="Error value">0.23862499999999986</error></trial><trial trial_no="2" timestamp="2022_10_27-10_58_25"><notes name="Played Notes">[{"pitch": 62, "velocity": 54, "note_on_time": 1.692, "note_off_time": 1.888}, {"pitch": 62, "velocity": 69, "note_on_time": 2.199, "note_off_time": 2.366}, {"pitch": 60, "velocity": 69, "note_on_time": 3.541, "note_off_time": 3.714}, {"pitch": 62, "velocity": 66, "note_on_time": 4.394, "note_off_time": 4.531}, {"pitch": 62, "velocity": 66, "note_on_time": 5.282, "note_off_time": 5.429}, {"pitch": 62, "velocity": 63, "note_on_time": 6.721, "note_off_time": 6.872}, {"pitch": 60, "velocity": 48, "note_on_time": 7.235, "note_off_time": 7.401}, {"pitch": 60, "velocity": 66, "note_on_time": 8.409, "note_off_time": 8.562}, {"pitch": 62, "velocity": 54, "note_on_time": 8.902, "note_off_time": 9.113}, {"pitch": 60, "velocity": 57, "note_on_time": 9.394, "note_off_time": 9.534}, {"pitch": 60, "velocity": 56, "note_on_time": 9.847, "note_off_time": 10.028}, {"pitch": 62, "velocity": 57, "note_on_time": 10.329, "note_off_time": 10.521}, {"pitch": 60, "velocity": 59, "note_on_time": 11.632, "note_off_time": 11.798}, {"pitch": 62, "velocity": 61, "note_on_time": 12.115, "note_off_time": 12.302}, {"pitch": 60, "velocity": 40, "note_on_time": 12.566, "note_off_time": 12.734}, {"pitch": 62, "velocity": 49, "note_on_time": 13.023, "note_off_time": 13.278}, {"pitch": 62, "velocity": 58, "note_on_time": 14.039, "note_off_time": 14.202}]</notes><guidance name="Guidance Mode">None</guidance><error name="Error value">0.26868749999999997</error></trial><trial trial_no="3" timestamp="2022_10_27-10_58_54"><notes name="Played Notes">[{"pitch": 62, "velocity": 62, "note_on_time": 0.806, "note_off_time": 1.009}, {"pitch": 62, "velocity": 59, "note_on_time": 1.258, "note_off_time": 1.441}, {"pitch": 60, "velocity": 56, "note_on_time": 2.314, "note_off_time": 2.52}, {"pitch": 62, "velocity": 59, "note_on_time": 3.17, "note_off_time": 3.321}, {"pitch": 62, "velocity": 57, "note_on_time": 3.698, "note_off_time": 3.884}, {"pitch": 62, "velocity": 64, "note_on_time": 5.204, "note_off_time": 5.4}, {"pitch": 60, "velocity": 67, "note_on_time": 5.734, "note_off_time": 5.925}, {"pitch": 60, "velocity": 69, "note_on_time": 7.113, "note_off_time": 7.349}, {"pitch": 62, "velocity": 64, "note_on_time": 7.631, "note_off_time": 7.818}, {"pitch": 60, "velocity": 57, "note_on_time": 8.136, "note_off_time": 8.297}, {"pitch": 60, "velocity": 64, "note_on_time": 8.591, "note_off_time": 8.78}, {"pitch": 62, "velocity": 63, "note_on_time": 9.085, "note_off_time": 9.26}, {"pitch": 60, "velocity": 52, "note_on_time": 10.519, "note_off_time": 10.691}, {"pitch": 62, "velocity": 57, "note_on_time": 10.982, "note_off_time": 11.186}, {"pitch": 60, "velocity": 53, "note_on_time": 11.462, "note_off_time": 11.641}, {"pitch": 62, "velocity": 53, "note_on_time": 11.898, "note_off_time": 12.111}, {"pitch": 62, "velocity": 65, "note_on_time": 12.739, "note_off_time": 12.913}, {"pitch": 62, "velocity": 58, "note_on_time": 13.195, "note_off_time": 13.364}, {"pitch": 62, "velocity": 62, "note_on_time": 13.665, "note_off_time": 13.809}]</notes><guidance name="Guidance Mode">None</guidance><error name="Error value">0.11318749999999976</error></trial><trial trial_no="4" timestamp="2022_10_27-10_59_21"><notes name="Played Notes">[{"pitch": 62, "velocity": 65, "note_on_time": 1.116, "note_off_time": 1.298}, {"pitch": 62, "velocity": 68, "note_on_time": 1.641, "note_off_time": 1.823}, {"pitch": 60, "velocity": 74, "note_on_time": 2.492, "note_off_time": 2.713}, {"pitch": 62, "velocity": 59, "note_on_time": 3.338, "note_off_time": 3.532}, {"pitch": 62, "velocity": 66, "note_on_time": 4.422, "note_off_time": 4.597}, {"pitch": 62, "velocity": 70, "note_on_time": 5.38, "note_off_time": 5.566}, {"pitch": 60, "velocity": 68, "note_on_time": 5.952, "note_off_time": 6.136}, {"pitch": 60, "velocity": 62, "note_on_time": 7.238, "note_off_time": 7.39}, {"pitch": 62, "velocity": 61, "note_on_time": 7.753, "note_off_time": 7.94}, {"pitch": 60, "velocity": 60, "note_on_time": 8.243, "note_off_time": 8.414}, {"pitch": 60, "velocity": 61, "note_on_time": 8.725, "note_off_time": 8.906}, {"pitch": 62, "velocity": 55, "note_on_time": 9.206, "note_off_time": 9.422}, {"pitch": 60, "velocity": 65, "note_on_time": 10.633, "note_off_time": 10.801}, {"pitch": 62, "velocity": 52, "note_on_time": 11.121, "note_off_time": 11.327}, {"pitch": 60, "velocity": 58, "note_on_time": 11.618, "note_off_time": 11.775}, {"pitch": 62, "velocity": 63, "note_on_time": 12.074, "note_off_time": 12.265}, {"pitch": 62, "velocity": 65, "note_on_time": 12.998, "note_off_time": 13.142}, {"pitch": 62, "velocity": 60, "note_on_time": 13.456, "note_off_time": 13.607}, {"pitch": 62, "velocity": 69, "note_on_time": 13.915, "note_off_time": 14.045}]</notes><guidance name="Guidance Mode">None</guidance><error name="Error value">0.17043749999999963</error></trial><trial trial_no="5" timestamp="2022_10_27-10_59_45"><notes name="Played Notes">[{"pitch": 62, "velocity": 63, "note_on_time": 1.116, "note_off_time": 1.313}, {"pitch": 62, "velocity": 68, "note_on_time": 1.612, "note_off_time": 1.799}, {"pitch": 60, "velocity": 70, "note_on_time": 2.765, "note_off_time": 2.956}, {"pitch": 62, "velocity": 48, "note_on_time": 3.232, "note_off_time": 3.445}, {"pitch": 62, "velocity": 71, "note_on_time": 4.148, "note_off_time": 4.335}, {"pitch": 62, "velocity": 61, "note_on_time": 6.033, "note_off_time": 6.201}, {"pitch": 60, "velocity": 60, "note_on_time": 6.513, "note_off_time": 6.672}, {"pitch": 60, "velocity": 79, "note_on_time": 7.728, "note_off_time": 7.912}, {"pitch": 62, "velocity": 65, "note_on_time": 8.3, "note_off_time": 8.483}, {"pitch": 60, "velocity": 66, "note_on_time": 8.794, "note_off_time": 8.955}, {"pitch": 60, "velocity": 55, "note_on_time": 9.249, "note_off_time": 9.445}, {"pitch": 62, "velocity": 74, "note_on_time": 9.784, "note_off_time": 9.978}, {"pitch": 60, "velocity": 60, "note_on_time": 11.369, "note_off_time": 11.541}, {"pitch": 62, "velocity": 69, "note_on_time": 11.859, "note_off_time": 12.05}, {"pitch": 60, "velocity": 62, "note_on_time": 12.328, "note_off_time": 12.492}, {"pitch": 62, "velocity": 60, "note_on_time": 12.73, "note_off_time": 12.932}, {"pitch": 62, "velocity": 64, "note_on_time": 14.025, "note_off_time": 14.181}]</notes><guidance name="Guidance Mode">None</guidance><error name="Error value">0.27524999999999983</error></trial></trials></MIDI>