<MIDI midiNo="2022_11_13-12_29_14"><target_notes><notes name="Note List">[{"pitch": 42, "velocity": 80, "note_on_time": 0.003, "note_off_time": 0.762}, {"pitch": 42, "velocity": 80, "note_on_time": 0.763, "note_off_time": 1.527}, {"pitch": 42, "velocity": 80, "note_on_time": 1.528, "note_off_time": 2.287}, {"pitch": 42, "velocity": 80, "note_on_time": 2.287, "note_off_time": 3.05}, {"pitch": 42, "velocity": 80, "note_on_time": 3.05, "note_off_time": 3.816}, {"pitch": 62, "velocity": 80, "note_on_time": 3.05, "note_off_time": 4.578}, {"pitch": 42, "velocity": 80, "note_on_time": 3.816, "note_off_time": 4.578}, {"pitch": 42, "velocity": 80, "note_on_time": 4.578, "note_off_time": 5.342}, {"pitch": 42, "velocity": 80, "note_on_time": 5.343, "note_off_time": 6.107}, {"pitch": 42, "velocity": 80, "note_on_time": 6.107, "note_off_time": 6.87}, {"pitch": 60, "velocity": 80, "note_on_time": 6.106, "note_off_time": 7.621}, {"pitch": 42, "velocity": 80, "note_on_time": 6.87, "note_off_time": 7.621}, {"pitch": 42, "velocity": 80, "note_on_time": 7.621, "note_off_time": 8.387}, {"pitch": 42, "velocity": 80, "note_on_time": 8.388, "note_off_time": 9.153}, {"pitch": 42, "velocity": 80, "note_on_time": 9.153, "note_off_time": 9.916}, {"pitch": 62, "velocity": 80, "note_on_time": 9.153, "note_off_time": 10.681}, {"pitch": 42, "velocity": 80, "note_on_time": 9.916, "note_off_time": 10.681}, {"pitch": 42, "velocity": 80, "note_on_time": 10.682, "note_off_time": 11.446}, {"pitch": 42, "velocity": 80, "note_on_time": 11.446, "note_off_time": 12.211}, {"pitch": 62, "velocity": 80, "note_on_time": 12.211, "note_off_time": 12.976}, {"pitch": 42, "velocity": 80, "note_on_time": 12.211, "note_off_time": 12.976}, {"pitch": 60, "velocity": 80, "note_on_time": 12.976, "note_off_time": 13.741}, {"pitch": 42, "velocity": 80, "note_on_time": 12.977, "note_off_time": 13.741}, {"pitch": 60, "velocity": 80, "note_on_time": 13.741, "note_off_time": 14.492}, {"pitch": 42, "velocity": 80, "note_on_time": 13.741, "note_off_time": 14.492}, {"pitch": 60, "velocity": 80, "note_on_time": 14.492, "note_off_time": 15.254}, {"pitch": 42, "velocity": 80, "note_on_time": 14.492, "note_off_time": 15.255}, {"pitch": 60, "velocity": 80, "note_on_time": 15.254, "note_off_time": 16.006}, {"pitch": 42, "velocity": 80, "note_on_time": 15.255, "note_off_time": 16.007}, {"pitch": 42, "velocity": 80, "note_on_time": 16.007, "note_off_time": 16.768}, {"pitch": 60, "velocity": 80, "note_on_time": 16.006, "note_off_time": 17.531}, {"pitch": 42, "velocity": 80, "note_on_time": 16.769, "note_off_time": 17.532}, {"pitch": 42, "velocity": 80, "note_on_time": 17.532, "note_off_time": 18.295}, {"pitch": 42, "velocity": 80, "note_on_time": 18.296, "note_off_time": 19.049}, {"pitch": 62, "velocity": 80, "note_on_time": 18.295, "note_off_time": 19.815}, {"pitch": 42, "velocity": 80, "note_on_time": 19.049, "note_off_time": 19.815}, {"pitch": 60, "velocity": 80, "note_on_time": 19.815, "note_off_time": 20.579}, {"pitch": 42, "velocity": 80, "note_on_time": 19.815, "note_off_time": 20.579}, {"pitch": 62, "velocity": 80, "note_on_time": 20.579, "note_off_time": 21.343}, {"pitch": 42, "velocity": 80, "note_on_time": 20.579, "note_off_time": 21.344}, {"pitch": 42, "velocity": 80, "note_on_time": 21.344, "note_off_time": 22.109}, {"pitch": 60, "velocity": 80, "note_on_time": 21.343, "note_off_time": 22.873}, {"pitch": 42, "velocity": 80, "note_on_time": 22.11, "note_off_time": 22.873}, {"pitch": 42, "velocity": 80, "note_on_time": 22.874, "note_off_time": 23.626}, {"pitch": 42, "velocity": 80, "note_on_time": 23.626, "note_off_time": 24.392}, {"pitch": 42, "velocity": 80, "note_on_time": 24.392, "note_off_time": 25.155}, {"pitch": 60, "velocity": 80, "note_on_time": 25.155, "note_off_time": 25.918}, {"pitch": 42, "velocity": 80, "note_on_time": 25.155, "note_off_time": 25.919}, {"pitch": 60, "velocity": 80, "note_on_time": 25.918, "note_off_time": 26.671}, {"pitch": 42, "velocity": 80, "note_on_time": 25.919, "note_off_time": 26.671}, {"pitch": 60, "velocity": 80, "note_on_time": 26.671, "note_off_time": 27.422}, {"pitch": 42, "velocity": 80, "note_on_time": 26.672, "note_off_time": 27.423}]</notes><options name="Option List">((4, 4), [0.25], 3, 8, &lt;NoteRangePerHand.TWO_NOTES: 3&gt;, &lt;NoteRangePerHand.ONE_NOTE: 2&gt;, False, True, False, 80)</options></target_notes><trials><trial trial_no="1" timestamp="2022_11_13-12_28_46"><notes name="Played Notes">[{"pitch": 62, "velocity": 30, "note_on_time": 2.335, "note_off_time": 3.651}, {"pitch": 60, "velocity": 40, "note_on_time": 5.38, "note_off_time": 6.618}, {"pitch": 62, "velocity": 37, "note_on_time": 8.358, "note_off_time": 9.455}, {"pitch": 62, "velocity": 36, "note_on_time": 11.446, "note_off_time": 12.17}, {"pitch": 60, "velocity": 48, "note_on_time": 12.197, "note_off_time": 12.633}, {"pitch": 60, "velocity": 57, "note_on_time": 12.934, "note_off_time": 13.379}, {"pitch": 60, "velocity": 46, "note_on_time": 13.714, "note_off_time": 14.124}, {"pitch": 60, "velocity": 53, "note_on_time": 14.501, "note_off_time": 14.851}, {"pitch": 60, "velocity": 51, "note_on_time": 15.22, "note_off_time": 16.515}, {"pitch": 62, "velocity": 47, "note_on_time": 17.485, "note_off_time": 19.072}, {"pitch": 60, "velocity": 44, "note_on_time": 19.096, "note_off_time": 19.827}, {"pitch": 62, "velocity": 46, "note_on_time": 19.836, "note_off_time": 20.536}, {"pitch": 60, "velocity": 40, "note_on_time": 20.563, "note_off_time": 21.858}, {"pitch": 60, "velocity": 39, "note_on_time": 24.374, "note_off_time": 24.798}, {"pitch": 60, "velocity": 51, "note_on_time": 25.163, "note_off_time": 25.593}, {"pitch": 60, "velocity": 46, "note_on_time": 25.936, "note_off_time": 26.439}]</notes><guidance name="Guidance Mode">None</guidance><error name="Error value">0.04223076923076912</error></trial></trials></MIDI>