<MIDI midiNo="2022_10_27-11_19_25"><target_notes><notes name="Note List">[{"pitch": 42, "velocity": 80, "note_on_time": 0.003, "note_off_time": 0.537}, {"pitch": 42, "velocity": 80, "note_on_time": 0.537, "note_off_time": 1.067}, {"pitch": 42, "velocity": 80, "note_on_time": 1.067, "note_off_time": 1.594}, {"pitch": 42, "velocity": 80, "note_on_time": 1.594, "note_off_time": 2.124}, {"pitch": 62, "velocity": 80, "note_on_time": 2.124, "note_off_time": 2.658}, {"pitch": 42, "velocity": 80, "note_on_time": 2.125, "note_off_time": 2.658}, {"pitch": 62, "velocity": 80, "note_on_time": 2.658, "note_off_time": 3.186}, {"pitch": 42, "velocity": 80, "note_on_time": 2.658, "note_off_time": 3.186}, {"pitch": 42, "velocity": 80, "note_on_time": 3.186, "note_off_time": 3.716}, {"pitch": 42, "velocity": 80, "note_on_time": 3.716, "note_off_time": 4.241}, {"pitch": 60, "velocity": 80, "note_on_time": 4.241, "note_off_time": 4.767}, {"pitch": 42, "velocity": 80, "note_on_time": 4.241, "note_off_time": 4.767}, {"pitch": 42, "velocity": 80, "note_on_time": 4.767, "note_off_time": 5.295}, {"pitch": 62, "velocity": 80, "note_on_time": 5.295, "note_off_time": 5.823}, {"pitch": 42, "velocity": 80, "note_on_time": 5.296, "note_off_time": 5.823}, {"pitch": 42, "velocity": 80, "note_on_time": 5.823, "note_off_time": 6.355}, {"pitch": 62, "velocity": 80, "note_on_time": 6.355, "note_off_time": 6.883}, {"pitch": 42, "velocity": 80, "note_on_time": 6.355, "note_off_time": 6.883}, {"pitch": 42, "velocity": 80, "note_on_time": 6.885, "note_off_time": 7.411}, {"pitch": 42, "velocity": 80, "note_on_time": 7.412, "note_off_time": 7.94}, {"pitch": 42, "velocity": 80, "note_on_time": 7.941, "note_off_time": 8.471}, {"pitch": 62, "velocity": 80, "note_on_time": 8.471, "note_off_time": 9.002}, {"pitch": 42, "velocity": 80, "note_on_time": 8.472, "note_off_time": 9.002}, {"pitch": 60, "velocity": 80, "note_on_time": 9.002, "note_off_time": 9.528}, {"pitch": 42, "velocity": 80, "note_on_time": 9.003, "note_off_time": 9.528}, {"pitch": 42, "velocity": 80, "note_on_time": 9.529, "note_off_time": 10.058}, {"pitch": 42, "velocity": 80, "note_on_time": 10.058, "note_off_time": 10.588}, {"pitch": 60, "velocity": 80, "note_on_time": 10.588, "note_off_time": 11.116}, {"pitch": 42, "velocity": 80, "note_on_time": 10.589, "note_off_time": 11.116}, {"pitch": 62, "velocity": 80, "note_on_time": 11.116, "note_off_time": 11.643}, {"pitch": 42, "velocity": 80, "note_on_time": 11.116, "note_off_time": 11.643}, {"pitch": 60, "velocity": 80, "note_on_time": 11.643, "note_off_time": 12.173}, {"pitch": 42, "velocity": 80, "note_on_time": 11.644, "note_off_time": 12.173}, {"pitch": 60, "velocity": 80, "note_on_time": 12.173, "note_off_time": 12.702}, {"pitch": 42, "velocity": 80, "note_on_time": 12.173, "note_off_time": 12.702}, {"pitch": 62, "velocity": 80, "note_on_time": 12.702, "note_off_time": 13.221}, {"pitch": 42, "velocity": 80, "note_on_time": 12.702, "note_off_time": 13.224}, {"pitch": 42, "velocity": 80, "note_on_time": 13.224, "note_off_time": 13.751}, {"pitch": 42, "velocity": 80, "note_on_time": 13.751, "note_off_time": 14.281}, {"pitch": 42, "velocity": 80, "note_on_time": 14.282, "note_off_time": 14.811}, {"pitch": 60, "velocity": 80, "note_on_time": 14.811, "note_off_time": 15.341}, {"pitch": 42, "velocity": 80, "note_on_time": 14.812, "note_off_time": 15.341}, {"pitch": 62, "velocity": 80, "note_on_time": 15.341, "note_off_time": 15.871}, {"pitch": 42, "velocity": 80, "note_on_time": 15.341, "note_off_time": 15.871}, {"pitch": 60, "velocity": 80, "note_on_time": 15.871, "note_off_time": 16.404}, {"pitch": 42, "velocity": 80, "note_on_time": 15.871, "note_off_time": 16.404}, {"pitch": 62, "velocity": 80, "note_on_time": 16.404, "note_off_time": 16.932}, {"pitch": 42, "velocity": 80, "note_on_time": 16.404, "note_off_time": 16.932}, {"pitch": 42, "velocity": 80, "note_on_time": 16.932, "note_off_time": 17.46}, {"pitch": 62, "velocity": 80, "note_on_time": 17.46, "note_off_time": 17.99}, {"pitch": 42, "velocity": 80, "note_on_time": 17.46, "note_off_time": 17.99}, {"pitch": 62, "velocity": 80, "note_on_time": 17.99, "note_off_time": 18.52}, {"pitch": 42, "velocity": 80, "note_on_time": 17.99, "note_off_time": 18.52}, {"pitch": 62, "velocity": 80, "note_on_time": 18.52, "note_off_time": 19.05}, {"pitch": 42, "velocity": 80, "note_on_time": 18.521, "note_off_time": 19.05}]</notes><options name="Option List">((4, 4), [0.25], 3, 8, &lt;NoteRangePerHand.TWO_NOTES: 3&gt;, &lt;NoteRangePerHand.ONE_NOTE: 2&gt;, False, True, False, 116)</options></target_notes><trials><trial trial_no="1" timestamp="2022_10_27-11_19_04"><notes name="Played Notes">[{"pitch": 62, "velocity": 1, "note_on_time": 1.937, "note_off_time": 2.155}, {"pitch": 62, "velocity": 51, "note_on_time": 3.97, "note_off_time": 4.212}, {"pitch": 62, "velocity": 64, "note_on_time": 4.43, "note_off_time": 4.626}, {"pitch": 60, "velocity": 67, "note_on_time": 6.715, "note_off_time": 6.899}, {"pitch": 62, "velocity": 65, "note_on_time": 7.631, "note_off_time": 7.802}, {"pitch": 62, "velocity": 63, "note_on_time": 8.617, "note_off_time": 8.762}, {"pitch": 62, "velocity": 57, "note_on_time": 10.493, "note_off_time": 10.682}, {"pitch": 60, "velocity": 56, "note_on_time": 11.237, "note_off_time": 11.367}, {"pitch": 60, "velocity": 56, "note_on_time": 13.222, "note_off_time": 13.396}, {"pitch": 62, "velocity": 53, "note_on_time": 13.778, "note_off_time": 13.968}, {"pitch": 60, "velocity": 52, "note_on_time": 14.287, "note_off_time": 14.461}, {"pitch": 60, "velocity": 54, "note_on_time": 14.78, "note_off_time": 14.961}, {"pitch": 62, "velocity": 59, "note_on_time": 15.737, "note_off_time": 15.922}, {"pitch": 60, "velocity": 57, "note_on_time": 17.678, "note_off_time": 17.855}, {"pitch": 62, "velocity": 60, "note_on_time": 18.202, "note_off_time": 18.386}, {"pitch": 60, "velocity": 61, "note_on_time": 18.682, "note_off_time": 18.849}]</notes><guidance name="Guidance Mode">None</guidance><error name="Error value">1.17131025</error></trial><trial trial_no="2" timestamp="2022_10_27-11_19_34"><notes name="Played Notes">[{"pitch": 62, "velocity": 55, "note_on_time": 2.088, "note_off_time": 2.269}, {"pitch": 62, "velocity": 73, "note_on_time": 2.638, "note_off_time": 2.802}, {"pitch": 60, "velocity": 57, "note_on_time": 4.777, "note_off_time": 4.954}, {"pitch": 62, "velocity": 57, "note_on_time": 5.769, "note_off_time": 5.934}, {"pitch": 62, "velocity": 70, "note_on_time": 6.867, "note_off_time": 7.018}, {"pitch": 62, "velocity": 59, "note_on_time": 8.771, "note_off_time": 8.934}, {"pitch": 60, "velocity": 60, "note_on_time": 9.282, "note_off_time": 9.458}, {"pitch": 60, "velocity": 55, "note_on_time": 11.11, "note_off_time": 11.286}, {"pitch": 62, "velocity": 46, "note_on_time": 11.634, "note_off_time": 11.836}, {"pitch": 60, "velocity": 59, "note_on_time": 12.133, "note_off_time": 12.302}, {"pitch": 60, "velocity": 51, "note_on_time": 12.65, "note_off_time": 12.82}, {"pitch": 62, "velocity": 52, "note_on_time": 13.195, "note_off_time": 13.39}, {"pitch": 60, "velocity": 62, "note_on_time": 14.727, "note_off_time": 14.901}, {"pitch": 62, "velocity": 52, "note_on_time": 15.25, "note_off_time": 15.44}, {"pitch": 60, "velocity": 58, "note_on_time": 15.716, "note_off_time": 15.874}, {"pitch": 62, "velocity": 65, "note_on_time": 16.23, "note_off_time": 16.403}, {"pitch": 62, "velocity": 50, "note_on_time": 16.911, "note_off_time": 17.056}, {"pitch": 62, "velocity": 47, "note_on_time": 17.391, "note_off_time": 17.54}, {"pitch": 62, "velocity": 62, "note_on_time": 17.885, "note_off_time": 18.009}]</notes><guidance name="Guidance Mode">None</guidance><error name="Error value">0.13985543749999949</error></trial><trial trial_no="3" timestamp="2022_10_27-11_20_02"><notes name="Played Notes">[{"pitch": 62, "velocity": 64, "note_on_time": 2.575, "note_off_time": 2.773}, {"pitch": 62, "velocity": 73, "note_on_time": 3.119, "note_off_time": 3.284}, {"pitch": 60, "velocity": 61, "note_on_time": 5.235, "note_off_time": 5.408}, {"pitch": 62, "velocity": 66, "note_on_time": 6.3, "note_off_time": 6.449}, {"pitch": 62, "velocity": 64, "note_on_time": 7.373, "note_off_time": 7.523}, {"pitch": 62, "velocity": 56, "note_on_time": 9.318, "note_off_time": 9.501}, {"pitch": 60, "velocity": 58, "note_on_time": 9.849, "note_off_time": 10.017}, {"pitch": 60, "velocity": 59, "note_on_time": 11.672, "note_off_time": 11.841}, {"pitch": 62, "velocity": 56, "note_on_time": 12.223, "note_off_time": 12.398}, {"pitch": 60, "velocity": 61, "note_on_time": 12.746, "note_off_time": 12.908}, {"pitch": 60, "velocity": 52, "note_on_time": 13.269, "note_off_time": 13.42}, {"pitch": 62, "velocity": 52, "note_on_time": 13.773, "note_off_time": 13.974}, {"pitch": 60, "velocity": 58, "note_on_time": 15.59, "note_off_time": 15.769}, {"pitch": 62, "velocity": 55, "note_on_time": 16.131, "note_off_time": 16.314}, {"pitch": 60, "velocity": 52, "note_on_time": 16.607, "note_off_time": 16.766}, {"pitch": 62, "velocity": 49, "note_on_time": 17.101, "note_off_time": 17.272}, {"pitch": 62, "velocity": 58, "note_on_time": 18.146, "note_off_time": 18.3}, {"pitch": 62, "velocity": 56, "note_on_time": 18.644, "note_off_time": 18.791}]</notes><guidance name="Guidance Mode">None</guidance><error name="Error value">0.18842468750000027</error></trial></trials></MIDI>