<MIDI midiNo="2022_12_01-10_49_04"><target_notes><notes name="Note List">[{"pitch": 42, "velocity": 80, "note_on_time": 0.004, "note_off_time": 0.228}, {"pitch": 42, "velocity": 80, "note_on_time": 0.228, "note_off_time": 0.446}, {"pitch": 42, "velocity": 80, "note_on_time": 0.446, "note_off_time": 0.665}, {"pitch": 42, "velocity": 80, "note_on_time": 0.665, "note_off_time": 0.883}, {"pitch": 67, "velocity": 80, "note_on_time": 0.883, "note_off_time": 1.102}, {"pitch": 42, "velocity": 80, "note_on_time": 0.883, "note_off_time": 1.102}, {"pitch": 62, "velocity": 80, "note_on_time": 1.102, "note_off_time": 1.321}, {"pitch": 42, "velocity": 80, "note_on_time": 1.102, "note_off_time": 1.321}, {"pitch": 62, "velocity": 80, "note_on_time": 1.321, "note_off_time": 1.539}, {"pitch": 42, "velocity": 80, "note_on_time": 1.322, "note_off_time": 1.539}, {"pitch": 62, "velocity": 80, "note_on_time": 1.539, "note_off_time": 1.758}, {"pitch": 42, "velocity": 80, "note_on_time": 1.539, "note_off_time": 1.758}, {"pitch": 60, "velocity": 80, "note_on_time": 1.758, "note_off_time": 1.976}, {"pitch": 42, "velocity": 80, "note_on_time": 1.758, "note_off_time": 1.976}, {"pitch": 60, "velocity": 80, "note_on_time": 1.976, "note_off_time": 2.196}, {"pitch": 42, "velocity": 80, "note_on_time": 1.976, "note_off_time": 2.196}, {"pitch": 67, "velocity": 80, "note_on_time": 2.196, "note_off_time": 2.415}, {"pitch": 42, "velocity": 80, "note_on_time": 2.196, "note_off_time": 2.415}, {"pitch": 62, "velocity": 80, "note_on_time": 2.415, "note_off_time": 2.633}, {"pitch": 42, "velocity": 80, "note_on_time": 2.415, "note_off_time": 2.633}, {"pitch": 42, "velocity": 80, "note_on_time": 2.633, "note_off_time": 2.852}, {"pitch": 62, "velocity": 80, "note_on_time": 2.633, "note_off_time": 3.07}, {"pitch": 42, "velocity": 80, "note_on_time": 2.852, "note_off_time": 3.07}, {"pitch": 42, "velocity": 80, "note_on_time": 3.07, "note_off_time": 3.286}, {"pitch": 42, "velocity": 80, "note_on_time": 3.286, "note_off_time": 3.503}, {"pitch": 42, "velocity": 80, "note_on_time": 3.503, "note_off_time": 3.721}, {"pitch": 62, "velocity": 80, "note_on_time": 3.503, "note_off_time": 3.939}, {"pitch": 42, "velocity": 80, "note_on_time": 3.721, "note_off_time": 3.939}, {"pitch": 42, "velocity": 80, "note_on_time": 3.939, "note_off_time": 4.156}, {"pitch": 42, "velocity": 80, "note_on_time": 4.156, "note_off_time": 4.377}, {"pitch": 60, "velocity": 80, "note_on_time": 4.377, "note_off_time": 4.596}, {"pitch": 42, "velocity": 80, "note_on_time": 4.377, "note_off_time": 4.596}, {"pitch": 42, "velocity": 80, "note_on_time": 4.596, "note_off_time": 4.814}, {"pitch": 64, "velocity": 80, "note_on_time": 4.596, "note_off_time": 5.032}, {"pitch": 42, "velocity": 80, "note_on_time": 4.814, "note_off_time": 5.032}, {"pitch": 64, "velocity": 80, "note_on_time": 5.032, "note_off_time": 5.25}, {"pitch": 42, "velocity": 80, "note_on_time": 5.032, "note_off_time": 5.25}, {"pitch": 60, "velocity": 80, "note_on_time": 5.25, "note_off_time": 5.469}, {"pitch": 42, "velocity": 80, "note_on_time": 5.25, "note_off_time": 5.469}, {"pitch": 67, "velocity": 80, "note_on_time": 5.469, "note_off_time": 5.686}, {"pitch": 42, "velocity": 80, "note_on_time": 5.469, "note_off_time": 5.686}, {"pitch": 60, "velocity": 80, "note_on_time": 5.686, "note_off_time": 5.904}, {"pitch": 42, "velocity": 80, "note_on_time": 5.686, "note_off_time": 5.904}, {"pitch": 67, "velocity": 80, "note_on_time": 5.904, "note_off_time": 6.121}, {"pitch": 42, "velocity": 80, "note_on_time": 5.904, "note_off_time": 6.121}, {"pitch": 60, "velocity": 80, "note_on_time": 6.121, "note_off_time": 6.34}, {"pitch": 42, "velocity": 80, "note_on_time": 6.121, "note_off_time": 6.34}, {"pitch": 64, "velocity": 80, "note_on_time": 6.34, "note_off_time": 6.557}, {"pitch": 42, "velocity": 80, "note_on_time": 6.341, "note_off_time": 6.557}, {"pitch": 67, "velocity": 80, "note_on_time": 6.557, "note_off_time": 6.776}, {"pitch": 42, "velocity": 80, "note_on_time": 6.557, "note_off_time": 6.776}, {"pitch": 64, "velocity": 80, "note_on_time": 6.776, "note_off_time": 6.993}, {"pitch": 42, "velocity": 80, "note_on_time": 6.776, "note_off_time": 6.993}, {"pitch": 42, "velocity": 80, "note_on_time": 6.994, "note_off_time": 7.211}, {"pitch": 64, "velocity": 80, "note_on_time": 7.211, "note_off_time": 7.431}, {"pitch": 42, "velocity": 80, "note_on_time": 7.211, "note_off_time": 7.431}, {"pitch": 64, "velocity": 80, "note_on_time": 7.431, "note_off_time": 7.649}, {"pitch": 42, "velocity": 80, "note_on_time": 7.431, "note_off_time": 7.649}, {"pitch": 64, "velocity": 80, "note_on_time": 7.649, "note_off_time": 7.866}, {"pitch": 42, "velocity": 80, "note_on_time": 7.649, "note_off_time": 7.866}]</notes><options name="Option List">((4, 4), [0.5, 0.25], 3, 8, &lt;NoteRangePerHand.C_TO_G: 6&gt;, &lt;NoteRangePerHand.ONE_NOTE: 2&gt;, False, True, False, 281)</options></target_notes><trials><trial trial_no="1" timestamp="2022_12_01-10_48_54"><notes name="Played Notes">[{"pitch": 67, "velocity": 65, "note_on_time": 0.885, "note_off_time": 1.154}, {"pitch": 62, "velocity": 54, "note_on_time": 1.127, "note_off_time": 1.217}, {"pitch": 62, "velocity": 49, "note_on_time": 1.376, "note_off_time": 1.443}, {"pitch": 62, "velocity": 66, "note_on_time": 1.61, "note_off_time": 1.842}, {"pitch": 60, "velocity": 68, "note_on_time": 1.833, "note_off_time": 1.927}, {"pitch": 60, "velocity": 72, "note_on_time": 2.076, "note_off_time": 2.361}, {"pitch": 67, "velocity": 67, "note_on_time": 2.321, "note_off_time": 2.635}, {"pitch": 62, "velocity": 67, "note_on_time": 2.562, "note_off_time": 2.68}, {"pitch": 62, "velocity": 69, "note_on_time": 2.87, "note_off_time": 3.069}, {"pitch": 62, "velocity": 56, "note_on_time": 3.78, "note_off_time": 4.123}, {"pitch": 60, "velocity": 64, "note_on_time": 4.677, "note_off_time": 4.988}, {"pitch": 64, "velocity": 68, "note_on_time": 4.922, "note_off_time": 5.322}, {"pitch": 64, "velocity": 66, "note_on_time": 5.447, "note_off_time": 5.65}, {"pitch": 60, "velocity": 79, "note_on_time": 5.664, "note_off_time": 5.932}, {"pitch": 67, "velocity": 78, "note_on_time": 5.913, "note_off_time": 6.169}, {"pitch": 60, "velocity": 70, "note_on_time": 6.168, "note_off_time": 6.419}, {"pitch": 67, "velocity": 73, "note_on_time": 6.401, "note_off_time": 6.688}, {"pitch": 60, "velocity": 74, "note_on_time": 6.656, "note_off_time": 6.951}, {"pitch": 64, "velocity": 73, "note_on_time": 6.915, "note_off_time": 7.192}, {"pitch": 67, "velocity": 78, "note_on_time": 7.175, "note_off_time": 7.456}, {"pitch": 64, "velocity": 79, "note_on_time": 7.395, "note_off_time": 7.766}]</notes><guidance name="Guidance Mode">None</guidance><error name="Error value">0.4011912857142857</error></trial></trials></MIDI>