<MIDI midiNo="2022_10_27-14_00_26"><target_notes><notes name="Note List">[{"pitch": 42, "velocity": 80, "note_on_time": 0.004, "note_off_time": 0.293}, {"pitch": 42, "velocity": 80, "note_on_time": 0.293, "note_off_time": 0.588}, {"pitch": 42, "velocity": 80, "note_on_time": 0.588, "note_off_time": 0.884}, {"pitch": 42, "velocity": 80, "note_on_time": 0.884, "note_off_time": 1.179}, {"pitch": 42, "velocity": 80, "note_on_time": 1.18, "note_off_time": 1.476}, {"pitch": 62, "velocity": 80, "note_on_time": 1.179, "note_off_time": 1.77}, {"pitch": 42, "velocity": 80, "note_on_time": 1.476, "note_off_time": 1.77}, {"pitch": 42, "velocity": 80, "note_on_time": 1.77, "note_off_time": 2.066}, {"pitch": 42, "velocity": 80, "note_on_time": 2.066, "note_off_time": 2.347}, {"pitch": 67, "velocity": 80, "note_on_time": 2.347, "note_off_time": 2.641}, {"pitch": 42, "velocity": 80, "note_on_time": 2.347, "note_off_time": 2.641}, {"pitch": 64, "velocity": 80, "note_on_time": 2.641, "note_off_time": 2.936}, {"pitch": 42, "velocity": 80, "note_on_time": 2.641, "note_off_time": 2.936}, {"pitch": 64, "velocity": 80, "note_on_time": 2.936, "note_off_time": 3.23}, {"pitch": 42, "velocity": 80, "note_on_time": 2.936, "note_off_time": 3.23}, {"pitch": 67, "velocity": 80, "note_on_time": 3.23, "note_off_time": 3.512}, {"pitch": 42, "velocity": 80, "note_on_time": 3.23, "note_off_time": 3.512}, {"pitch": 65, "velocity": 80, "note_on_time": 3.512, "note_off_time": 3.808}, {"pitch": 42, "velocity": 80, "note_on_time": 3.512, "note_off_time": 3.808}, {"pitch": 65, "velocity": 80, "note_on_time": 3.808, "note_off_time": 4.102}, {"pitch": 42, "velocity": 80, "note_on_time": 3.808, "note_off_time": 4.103}, {"pitch": 65, "velocity": 80, "note_on_time": 4.102, "note_off_time": 4.398}, {"pitch": 42, "velocity": 80, "note_on_time": 4.103, "note_off_time": 4.398}, {"pitch": 62, "velocity": 80, "note_on_time": 4.398, "note_off_time": 4.694}, {"pitch": 42, "velocity": 80, "note_on_time": 4.399, "note_off_time": 4.694}, {"pitch": 60, "velocity": 80, "note_on_time": 4.694, "note_off_time": 4.989}, {"pitch": 42, "velocity": 80, "note_on_time": 4.694, "note_off_time": 4.989}, {"pitch": 60, "velocity": 80, "note_on_time": 4.989, "note_off_time": 5.285}, {"pitch": 42, "velocity": 80, "note_on_time": 4.989, "note_off_time": 5.285}, {"pitch": 42, "velocity": 80, "note_on_time": 5.285, "note_off_time": 5.58}, {"pitch": 60, "velocity": 80, "note_on_time": 5.285, "note_off_time": 5.875}, {"pitch": 42, "velocity": 80, "note_on_time": 5.58, "note_off_time": 5.875}, {"pitch": 42, "velocity": 80, "note_on_time": 5.875, "note_off_time": 6.17}, {"pitch": 65, "velocity": 80, "note_on_time": 5.875, "note_off_time": 6.452}, {"pitch": 42, "velocity": 80, "note_on_time": 6.171, "note_off_time": 6.452}, {"pitch": 42, "velocity": 80, "note_on_time": 6.452, "note_off_time": 6.734}, {"pitch": 60, "velocity": 80, "note_on_time": 6.733, "note_off_time": 7.015}, {"pitch": 42, "velocity": 80, "note_on_time": 6.734, "note_off_time": 7.015}, {"pitch": 60, "velocity": 80, "note_on_time": 7.015, "note_off_time": 7.31}, {"pitch": 42, "velocity": 80, "note_on_time": 7.015, "note_off_time": 7.311}, {"pitch": 65, "velocity": 80, "note_on_time": 7.31, "note_off_time": 7.605}, {"pitch": 42, "velocity": 80, "note_on_time": 7.311, "note_off_time": 7.606}, {"pitch": 42, "velocity": 80, "note_on_time": 7.606, "note_off_time": 7.901}, {"pitch": 65, "velocity": 80, "note_on_time": 7.605, "note_off_time": 8.182}, {"pitch": 42, "velocity": 80, "note_on_time": 7.901, "note_off_time": 8.183}, {"pitch": 65, "velocity": 80, "note_on_time": 8.182, "note_off_time": 8.478}, {"pitch": 42, "velocity": 80, "note_on_time": 8.183, "note_off_time": 8.478}, {"pitch": 42, "velocity": 80, "note_on_time": 8.479, "note_off_time": 8.774}, {"pitch": 60, "velocity": 80, "note_on_time": 8.478, "note_off_time": 9.068}, {"pitch": 42, "velocity": 80, "note_on_time": 8.775, "note_off_time": 9.068}, {"pitch": 42, "velocity": 80, "note_on_time": 9.068, "note_off_time": 9.363}, {"pitch": 42, "velocity": 80, "note_on_time": 9.363, "note_off_time": 9.659}, {"pitch": 60, "velocity": 80, "note_on_time": 9.658, "note_off_time": 9.953}, {"pitch": 42, "velocity": 80, "note_on_time": 9.659, "note_off_time": 9.954}, {"pitch": 60, "velocity": 80, "note_on_time": 9.953, "note_off_time": 10.249}, {"pitch": 42, "velocity": 80, "note_on_time": 9.954, "note_off_time": 10.249}, {"pitch": 60, "velocity": 80, "note_on_time": 10.249, "note_off_time": 10.532}, {"pitch": 42, "velocity": 80, "note_on_time": 10.25, "note_off_time": 10.532}]</notes><options name="Option List">((4, 4), [0.5, 0.25], 3, 8, &lt;NoteRangePerHand.C_TO_G: 6&gt;, &lt;NoteRangePerHand.ONE_NOTE: 2&gt;, False, True, False, 215)</options></target_notes><trials><trial trial_no="1" timestamp="2022_10_27-14_00_13"><notes name="Played Notes">[{"pitch": 74, "velocity": 76, "note_on_time": 1.225, "note_off_time": 1.692}, {"pitch": 79, "velocity": 75, "note_on_time": 2.138, "note_off_time": 2.313}, {"pitch": 76, "velocity": 75, "note_on_time": 2.443, "note_off_time": 2.557}, {"pitch": 76, "velocity": 76, "note_on_time": 2.731, "note_off_time": 2.863}, {"pitch": 79, "velocity": 84, "note_on_time": 3.02, "note_off_time": 3.164}, {"pitch": 77, "velocity": 82, "note_on_time": 3.322, "note_off_time": 3.425}, {"pitch": 77, "velocity": 75, "note_on_time": 3.615, "note_off_time": 3.729}, {"pitch": 77, "velocity": 77, "note_on_time": 3.899, "note_off_time": 4.03}, {"pitch": 74, "velocity": 76, "note_on_time": 4.199, "note_off_time": 4.33}, {"pitch": 72, "velocity": 70, "note_on_time": 4.48, "note_off_time": 4.58}, {"pitch": 72, "velocity": 81, "note_on_time": 4.785, "note_off_time": 4.869}, {"pitch": 72, "velocity": 85, "note_on_time": 5.101, "note_off_time": 5.45}, {"pitch": 77, "velocity": 87, "note_on_time": 5.713, "note_off_time": 6.105}, {"pitch": 72, "velocity": 81, "note_on_time": 6.661, "note_off_time": 6.833}, {"pitch": 72, "velocity": 78, "note_on_time": 6.99, "note_off_time": 7.104}, {"pitch": 77, "velocity": 83, "note_on_time": 7.313, "note_off_time": 7.432}, {"pitch": 77, "velocity": 82, "note_on_time": 7.599, "note_off_time": 7.721}, {"pitch": 77, "velocity": 85, "note_on_time": 8.184, "note_off_time": 8.363}, {"pitch": 72, "velocity": 85, "note_on_time": 8.51, "note_off_time": 8.735}, {"pitch": 72, "velocity": 84, "note_on_time": 9.687, "note_off_time": 9.865}, {"pitch": 72, "velocity": 67, "note_on_time": 9.975, "note_off_time": 10.088}, {"pitch": 72, "velocity": 81, "note_on_time": 10.259, "note_off_time": 10.358}]</notes><guidance name="Guidance Mode">None</guidance><error name="Error value">1.1994427894736845</error></trial></trials></MIDI>