<MIDI midiNo="2022_11_21-16_23_41"><target_notes><notes name="Note List">[{"pitch": 42, "velocity": 80, "note_on_time": 0.004, "note_off_time": 0.271}, {"pitch": 42, "velocity": 80, "note_on_time": 0.271, "note_off_time": 0.534}, {"pitch": 42, "velocity": 80, "note_on_time": 0.534, "note_off_time": 0.798}, {"pitch": 42, "velocity": 80, "note_on_time": 0.799, "note_off_time": 1.063}, {"pitch": 64, "velocity": 80, "note_on_time": 1.062, "note_off_time": 1.327}, {"pitch": 42, "velocity": 80, "note_on_time": 1.063, "note_off_time": 1.327}, {"pitch": 64, "velocity": 80, "note_on_time": 1.327, "note_off_time": 1.592}, {"pitch": 42, "velocity": 80, "note_on_time": 1.328, "note_off_time": 1.592}, {"pitch": 62, "velocity": 80, "note_on_time": 1.592, "note_off_time": 1.854}, {"pitch": 42, "velocity": 80, "note_on_time": 1.593, "note_off_time": 1.854}, {"pitch": 64, "velocity": 80, "note_on_time": 1.854, "note_off_time": 2.119}, {"pitch": 42, "velocity": 80, "note_on_time": 1.855, "note_off_time": 2.12}, {"pitch": 42, "velocity": 80, "note_on_time": 2.12, "note_off_time": 2.383}, {"pitch": 62, "velocity": 80, "note_on_time": 2.119, "note_off_time": 2.646}, {"pitch": 42, "velocity": 80, "note_on_time": 2.383, "note_off_time": 2.647}, {"pitch": 42, "velocity": 80, "note_on_time": 2.647, "note_off_time": 2.91}, {"pitch": 64, "velocity": 80, "note_on_time": 2.91, "note_off_time": 3.176}, {"pitch": 42, "velocity": 80, "note_on_time": 2.911, "note_off_time": 3.176}, {"pitch": 62, "velocity": 80, "note_on_time": 3.176, "note_off_time": 3.44}, {"pitch": 42, "velocity": 80, "note_on_time": 3.177, "note_off_time": 3.441}, {"pitch": 60, "velocity": 80, "note_on_time": 3.44, "note_off_time": 3.705}, {"pitch": 42, "velocity": 80, "note_on_time": 3.441, "note_off_time": 3.705}, {"pitch": 64, "velocity": 80, "note_on_time": 3.705, "note_off_time": 3.969}, {"pitch": 42, "velocity": 80, "note_on_time": 3.705, "note_off_time": 3.969}, {"pitch": 62, "velocity": 80, "note_on_time": 3.969, "note_off_time": 4.233}, {"pitch": 42, "velocity": 80, "note_on_time": 3.969, "note_off_time": 4.233}, {"pitch": 42, "velocity": 80, "note_on_time": 4.234, "note_off_time": 4.497}, {"pitch": 64, "velocity": 80, "note_on_time": 4.233, "note_off_time": 4.76}, {"pitch": 42, "velocity": 80, "note_on_time": 4.498, "note_off_time": 4.761}, {"pitch": 42, "velocity": 80, "note_on_time": 4.761, "note_off_time": 5.024}, {"pitch": 60, "velocity": 80, "note_on_time": 4.76, "note_off_time": 5.288}, {"pitch": 42, "velocity": 80, "note_on_time": 5.024, "note_off_time": 5.288}, {"pitch": 62, "velocity": 80, "note_on_time": 5.288, "note_off_time": 5.552}, {"pitch": 42, "velocity": 80, "note_on_time": 5.288, "note_off_time": 5.552}, {"pitch": 60, "velocity": 80, "note_on_time": 5.552, "note_off_time": 5.817}, {"pitch": 42, "velocity": 80, "note_on_time": 5.552, "note_off_time": 5.818}, {"pitch": 60, "velocity": 80, "note_on_time": 5.817, "note_off_time": 6.081}, {"pitch": 42, "velocity": 80, "note_on_time": 5.818, "note_off_time": 6.081}, {"pitch": 42, "velocity": 80, "note_on_time": 6.082, "note_off_time": 6.346}, {"pitch": 42, "velocity": 80, "note_on_time": 6.346, "note_off_time": 6.61}, {"pitch": 64, "velocity": 80, "note_on_time": 6.346, "note_off_time": 6.875}, {"pitch": 42, "velocity": 80, "note_on_time": 6.61, "note_off_time": 6.875}, {"pitch": 42, "velocity": 80, "note_on_time": 6.876, "note_off_time": 7.14}, {"pitch": 42, "velocity": 80, "note_on_time": 7.141, "note_off_time": 7.405}, {"pitch": 62, "velocity": 80, "note_on_time": 7.405, "note_off_time": 7.669}, {"pitch": 42, "velocity": 80, "note_on_time": 7.406, "note_off_time": 7.669}, {"pitch": 64, "velocity": 80, "note_on_time": 7.669, "note_off_time": 7.935}, {"pitch": 42, "velocity": 80, "note_on_time": 7.67, "note_off_time": 7.935}, {"pitch": 62, "velocity": 80, "note_on_time": 7.935, "note_off_time": 8.201}, {"pitch": 42, "velocity": 80, "note_on_time": 7.936, "note_off_time": 8.201}, {"pitch": 62, "velocity": 80, "note_on_time": 8.201, "note_off_time": 8.465}, {"pitch": 42, "velocity": 80, "note_on_time": 8.202, "note_off_time": 8.465}, {"pitch": 42, "velocity": 80, "note_on_time": 8.465, "note_off_time": 8.729}, {"pitch": 62, "velocity": 80, "note_on_time": 8.729, "note_off_time": 8.994}, {"pitch": 42, "velocity": 80, "note_on_time": 8.73, "note_off_time": 8.994}, {"pitch": 62, "velocity": 80, "note_on_time": 8.994, "note_off_time": 9.26}, {"pitch": 42, "velocity": 80, "note_on_time": 8.995, "note_off_time": 9.26}, {"pitch": 62, "velocity": 80, "note_on_time": 9.26, "note_off_time": 9.524}, {"pitch": 42, "velocity": 80, "note_on_time": 9.261, "note_off_time": 9.524}]</notes><options name="Option List">((4, 4), [0.5, 0.25], 3, 8, &lt;NoteRangePerHand.THREE_NOTES: 4&gt;, &lt;NoteRangePerHand.ONE_NOTE: 2&gt;, False, True, False, '232')</options></target_notes><trials><trial trial_no="1" timestamp="2022_11_21-16_23_30"><notes name="Played Notes">[{"pitch": 64, "velocity": 81, "note_on_time": 0.981, "note_off_time": 1.146}, {"pitch": 64, "velocity": 76, "note_on_time": 1.232, "note_off_time": 1.419}, {"pitch": 62, "velocity": 75, "note_on_time": 1.456, "note_off_time": 1.594}, {"pitch": 64, "velocity": 55, "note_on_time": 1.667, "note_off_time": 1.871}, {"pitch": 62, "velocity": 82, "note_on_time": 1.92, "note_off_time": 2.411}, {"pitch": 64, "velocity": 59, "note_on_time": 2.676, "note_off_time": 2.841}, {"pitch": 62, "velocity": 77, "note_on_time": 2.922, "note_off_time": 3.121}, {"pitch": 60, "velocity": 72, "note_on_time": 3.144, "note_off_time": 3.311}, {"pitch": 64, "velocity": 63, "note_on_time": 3.352, "note_off_time": 3.512}, {"pitch": 62, "velocity": 68, "note_on_time": 3.591, "note_off_time": 3.744}, {"pitch": 64, "velocity": 77, "note_on_time": 3.86, "note_off_time": 4.217}, {"pitch": 60, "velocity": 84, "note_on_time": 4.334, "note_off_time": 4.615}, {"pitch": 62, "velocity": 80, "note_on_time": 4.796, "note_off_time": 4.954}, {"pitch": 60, "velocity": 85, "note_on_time": 5.031, "note_off_time": 5.171}, {"pitch": 60, "velocity": 78, "note_on_time": 5.269, "note_off_time": 5.469}, {"pitch": 62, "velocity": 74, "note_on_time": 5.861, "note_off_time": 6.311}, {"pitch": 64, "velocity": 75, "note_on_time": 6.336, "note_off_time": 6.711}, {"pitch": 62, "velocity": 72, "note_on_time": 6.959, "note_off_time": 7.103}, {"pitch": 64, "velocity": 65, "note_on_time": 7.192, "note_off_time": 7.31}, {"pitch": 62, "velocity": 64, "note_on_time": 7.274, "note_off_time": 7.387}, {"pitch": 62, "velocity": 68, "note_on_time": 7.513, "note_off_time": 7.69}, {"pitch": 60, "velocity": 59, "note_on_time": 8.07, "note_off_time": 8.127}, {"pitch": 62, "velocity": 70, "note_on_time": 8.147, "note_off_time": 8.295}, {"pitch": 62, "velocity": 66, "note_on_time": 8.393, "note_off_time": 8.544}, {"pitch": 62, "velocity": 73, "note_on_time": 8.642, "note_off_time": 8.878}]</notes><guidance name="Guidance Mode">None</guidance><error name="Error value">0.6263530000000004</error></trial><trial trial_no="2" timestamp="2022_11_21-16_24_26"><notes name="Played Notes">[{"pitch": 64, "velocity": 83, "note_on_time": 1.049, "note_off_time": 1.172}, {"pitch": 64, "velocity": 64, "note_on_time": 1.287, "note_off_time": 1.446}, {"pitch": 62, "velocity": 79, "note_on_time": 1.532, "note_off_time": 1.654}, {"pitch": 64, "velocity": 74, "note_on_time": 1.754, "note_off_time": 1.914}, {"pitch": 62, "velocity": 80, "note_on_time": 2.004, "note_off_time": 2.541}, {"pitch": 64, "velocity": 82, "note_on_time": 2.975, "note_off_time": 3.125}, {"pitch": 62, "velocity": 72, "note_on_time": 3.228, "note_off_time": 3.445}, {"pitch": 60, "velocity": 84, "note_on_time": 3.458, "note_off_time": 3.597}, {"pitch": 64, "velocity": 62, "note_on_time": 3.698, "note_off_time": 3.846}, {"pitch": 62, "velocity": 77, "note_on_time": 3.962, "note_off_time": 4.065}, {"pitch": 64, "velocity": 81, "note_on_time": 4.209, "note_off_time": 4.631}, {"pitch": 60, "velocity": 89, "note_on_time": 4.761, "note_off_time": 5.093}, {"pitch": 62, "velocity": 83, "note_on_time": 5.299, "note_off_time": 5.453}, {"pitch": 60, "velocity": 87, "note_on_time": 5.536, "note_off_time": 5.695}, {"pitch": 60, "velocity": 84, "note_on_time": 5.786, "note_off_time": 5.992}, {"pitch": 64, "velocity": 89, "note_on_time": 6.4, "note_off_time": 7.038}, {"pitch": 62, "velocity": 77, "note_on_time": 7.448, "note_off_time": 7.591}, {"pitch": 64, "velocity": 67, "note_on_time": 7.711, "note_off_time": 7.866}, {"pitch": 62, "velocity": 1, "note_on_time": 7.955, "note_off_time": 8.096}, {"pitch": 62, "velocity": 80, "note_on_time": 8.22, "note_off_time": 8.396}, {"pitch": 62, "velocity": 83, "note_on_time": 8.48, "note_off_time": 8.668}, {"pitch": 62, "velocity": 81, "note_on_time": 9.101, "note_off_time": 9.249}, {"pitch": 62, "velocity": 64, "note_on_time": 9.351, "note_off_time": 9.534}]</notes><guidance name="Guidance Mode">None</guidance><error name="Error value">0.05970700000000031</error></trial><trial trial_no="3" timestamp="2022_11_21-16_24_59"><notes name="Played Notes">[{"pitch": 64, "velocity": 80, "note_on_time": 1.042, "note_off_time": 1.164}, {"pitch": 64, "velocity": 68, "note_on_time": 1.261, "note_off_time": 1.448}, {"pitch": 62, "velocity": 74, "note_on_time": 1.516, "note_off_time": 1.68}, {"pitch": 64, "velocity": 71, "note_on_time": 1.732, "note_off_time": 1.907}, {"pitch": 62, "velocity": 82, "note_on_time": 1.975, "note_off_time": 2.399}, {"pitch": 64, "velocity": 78, "note_on_time": 2.887, "note_off_time": 3.062}, {"pitch": 62, "velocity": 74, "note_on_time": 3.133, "note_off_time": 3.313}, {"pitch": 60, "velocity": 81, "note_on_time": 3.362, "note_off_time": 3.545}, {"pitch": 64, "velocity": 59, "note_on_time": 3.61, "note_off_time": 3.806}, {"pitch": 62, "velocity": 74, "note_on_time": 3.831, "note_off_time": 3.963}, {"pitch": 64, "velocity": 76, "note_on_time": 4.103, "note_off_time": 4.482}, {"pitch": 60, "velocity": 82, "note_on_time": 4.627, "note_off_time": 4.937}, {"pitch": 62, "velocity": 81, "note_on_time": 5.106, "note_off_time": 5.29}, {"pitch": 60, "velocity": 80, "note_on_time": 5.331, "note_off_time": 5.48}, {"pitch": 60, "velocity": 81, "note_on_time": 5.604, "note_off_time": 5.805}, {"pitch": 64, "velocity": 88, "note_on_time": 6.18, "note_off_time": 6.821}, {"pitch": 62, "velocity": 45, "note_on_time": 7.311, "note_off_time": 7.496}, {"pitch": 64, "velocity": 64, "note_on_time": 7.582, "note_off_time": 7.798}, {"pitch": 62, "velocity": 73, "note_on_time": 7.837, "note_off_time": 7.948}, {"pitch": 62, "velocity": 67, "note_on_time": 8.08, "note_off_time": 8.274}, {"pitch": 62, "velocity": 80, "note_on_time": 8.611, "note_off_time": 8.769}, {"pitch": 62, "velocity": 79, "note_on_time": 8.858, "note_off_time": 8.982}, {"pitch": 62, "velocity": 68, "note_on_time": 9.083, "note_off_time": 9.303}]</notes><guidance name="Guidance Mode">None</guidance><error name="Error value">0.03401900000000001</error></trial></trials></MIDI>