<MIDI midiNo="2022_08_17-12_28_39"><target_notes><notes name="Note List">[{"pitch": 42, "velocity": 80, "note_on_time": 0.003, "note_off_time": 0.255}, {"pitch": 42, "velocity": 80, "note_on_time": 0.255, "note_off_time": 0.504}, {"pitch": 42, "velocity": 80, "note_on_time": 0.504, "note_off_time": 0.754}, {"pitch": 42, "velocity": 80, "note_on_time": 0.754, "note_off_time": 1.004}, {"pitch": 60, "velocity": 80, "note_on_time": 1.004, "note_off_time": 1.253}, {"pitch": 42, "velocity": 80, "note_on_time": 1.005, "note_off_time": 1.254}, {"pitch": 67, "velocity": 80, "note_on_time": 1.253, "note_off_time": 1.506}, {"pitch": 42, "velocity": 80, "note_on_time": 1.254, "note_off_time": 1.507}, {"pitch": 60, "velocity": 80, "note_on_time": 1.506, "note_off_time": 1.756}, {"pitch": 42, "velocity": 80, "note_on_time": 1.507, "note_off_time": 1.756}, {"pitch": 62, "velocity": 80, "note_on_time": 1.756, "note_off_time": 2.003}, {"pitch": 42, "velocity": 80, "note_on_time": 1.757, "note_off_time": 2.003}, {"pitch": 65, "velocity": 80, "note_on_time": 2.003, "note_off_time": 2.253}, {"pitch": 42, "velocity": 80, "note_on_time": 2.003, "note_off_time": 2.253}, {"pitch": 42, "velocity": 80, "note_on_time": 2.253, "note_off_time": 2.503}, {"pitch": 64, "velocity": 80, "note_on_time": 2.253, "note_off_time": 2.752}, {"pitch": 42, "velocity": 80, "note_on_time": 2.503, "note_off_time": 2.752}, {"pitch": 67, "velocity": 80, "note_on_time": 2.752, "note_off_time": 3.003}, {"pitch": 42, "velocity": 80, "note_on_time": 2.752, "note_off_time": 3.003}, {"pitch": 67, "velocity": 80, "note_on_time": 3.003, "note_off_time": 3.252}, {"pitch": 42, "velocity": 80, "note_on_time": 3.003, "note_off_time": 3.253}, {"pitch": 65, "velocity": 80, "note_on_time": 3.252, "note_off_time": 3.502}, {"pitch": 42, "velocity": 80, "note_on_time": 3.253, "note_off_time": 3.503}, {"pitch": 67, "velocity": 80, "note_on_time": 3.502, "note_off_time": 3.755}, {"pitch": 42, "velocity": 80, "note_on_time": 3.503, "note_off_time": 3.755}, {"pitch": 60, "velocity": 80, "note_on_time": 3.755, "note_off_time": 4.005}, {"pitch": 42, "velocity": 80, "note_on_time": 3.755, "note_off_time": 4.005}, {"pitch": 42, "velocity": 80, "note_on_time": 4.005, "note_off_time": 4.255}, {"pitch": 62, "velocity": 80, "note_on_time": 4.005, "note_off_time": 4.505}, {"pitch": 42, "velocity": 80, "note_on_time": 4.255, "note_off_time": 4.505}, {"pitch": 42, "velocity": 80, "note_on_time": 4.506, "note_off_time": 4.753}, {"pitch": 60, "velocity": 80, "note_on_time": 4.753, "note_off_time": 5.003}, {"pitch": 42, "velocity": 80, "note_on_time": 4.753, "note_off_time": 5.004}, {"pitch": 60, "velocity": 80, "note_on_time": 5.003, "note_off_time": 5.252}, {"pitch": 42, "velocity": 80, "note_on_time": 5.004, "note_off_time": 5.252}, {"pitch": 65, "velocity": 80, "note_on_time": 5.252, "note_off_time": 5.502}, {"pitch": 42, "velocity": 80, "note_on_time": 5.252, "note_off_time": 5.502}, {"pitch": 64, "velocity": 80, "note_on_time": 5.502, "note_off_time": 5.751}, {"pitch": 42, "velocity": 80, "note_on_time": 5.502, "note_off_time": 5.751}, {"pitch": 65, "velocity": 80, "note_on_time": 5.751, "note_off_time": 5.999}, {"pitch": 42, "velocity": 80, "note_on_time": 5.751, "note_off_time": 6.0}, {"pitch": 67, "velocity": 80, "note_on_time": 5.999, "note_off_time": 6.249}, {"pitch": 42, "velocity": 80, "note_on_time": 6.0, "note_off_time": 6.249}, {"pitch": 60, "velocity": 80, "note_on_time": 6.249, "note_off_time": 6.498}, {"pitch": 42, "velocity": 80, "note_on_time": 6.249, "note_off_time": 6.498}, {"pitch": 67, "velocity": 80, "note_on_time": 6.498, "note_off_time": 6.746}, {"pitch": 42, "velocity": 80, "note_on_time": 6.499, "note_off_time": 6.747}, {"pitch": 62, "velocity": 80, "note_on_time": 6.746, "note_off_time": 6.996}, {"pitch": 42, "velocity": 80, "note_on_time": 6.747, "note_off_time": 6.997}, {"pitch": 42, "velocity": 80, "note_on_time": 6.997, "note_off_time": 7.246}, {"pitch": 65, "velocity": 80, "note_on_time": 6.996, "note_off_time": 7.497}, {"pitch": 42, "velocity": 80, "note_on_time": 7.246, "note_off_time": 7.497}, {"pitch": 42, "velocity": 80, "note_on_time": 7.498, "note_off_time": 7.746}, {"pitch": 42, "velocity": 80, "note_on_time": 7.747, "note_off_time": 7.995}, {"pitch": 42, "velocity": 80, "note_on_time": 7.995, "note_off_time": 8.245}, {"pitch": 65, "velocity": 80, "note_on_time": 8.245, "note_off_time": 8.493}, {"pitch": 42, "velocity": 80, "note_on_time": 8.245, "note_off_time": 8.493}, {"pitch": 65, "velocity": 80, "note_on_time": 8.493, "note_off_time": 8.742}, {"pitch": 42, "velocity": 80, "note_on_time": 8.493, "note_off_time": 8.742}, {"pitch": 65, "velocity": 80, "note_on_time": 8.742, "note_off_time": 8.991}, {"pitch": 42, "velocity": 80, "note_on_time": 8.742, "note_off_time": 8.992}]</notes><options name="Option List">((4, 4), [0.5, 0.25], 3, 8, &lt;NoteRangePerHand.C_TO_G: 6&gt;, &lt;NoteRangePerHand.ONE_NOTE: 2&gt;, False, True, True, '248')</options></target_notes><trials><trial trial_no="1" timestamp="2022_08_17-12_28_29"><notes name="Played Notes">[{"pitch": 60, "velocity": 72, "note_on_time": 1.026, "note_off_time": 1.137}, {"pitch": 67, "velocity": 68, "note_on_time": 1.281, "note_off_time": 1.369}, {"pitch": 60, "velocity": 73, "note_on_time": 1.533, "note_off_time": 1.629}, {"pitch": 62, "velocity": 51, "note_on_time": 1.804, "note_off_time": 1.856}, {"pitch": 65, "velocity": 69, "note_on_time": 2.049, "note_off_time": 2.114}, {"pitch": 64, "velocity": 67, "note_on_time": 2.281, "note_off_time": 2.57}, {"pitch": 67, "velocity": 65, "note_on_time": 2.874, "note_off_time": 2.965}, {"pitch": 67, "velocity": 61, "note_on_time": 3.139, "note_off_time": 3.192}, {"pitch": 65, "velocity": 69, "note_on_time": 3.387, "note_off_time": 3.483}, {"pitch": 67, "velocity": 65, "note_on_time": 3.622, "note_off_time": 3.705}, {"pitch": 60, "velocity": 75, "note_on_time": 3.848, "note_off_time": 3.911}, {"pitch": 62, "velocity": 65, "note_on_time": 4.101, "note_off_time": 4.371}, {"pitch": 60, "velocity": 73, "note_on_time": 4.824, "note_off_time": 4.907}, {"pitch": 60, "velocity": 70, "note_on_time": 5.08, "note_off_time": 5.159}, {"pitch": 65, "velocity": 66, "note_on_time": 5.339, "note_off_time": 5.4}, {"pitch": 64, "velocity": 65, "note_on_time": 5.589, "note_off_time": 5.658}, {"pitch": 65, "velocity": 61, "note_on_time": 5.828, "note_off_time": 5.913}, {"pitch": 67, "velocity": 70, "note_on_time": 6.07, "note_off_time": 6.167}, {"pitch": 60, "velocity": 55, "note_on_time": 6.322, "note_off_time": 6.395}, {"pitch": 67, "velocity": 67, "note_on_time": 6.547, "note_off_time": 6.628}, {"pitch": 62, "velocity": 69, "note_on_time": 6.782, "note_off_time": 6.846}, {"pitch": 65, "velocity": 84, "note_on_time": 7.024, "note_off_time": 7.292}, {"pitch": 65, "velocity": 72, "note_on_time": 8.216, "note_off_time": 8.3}, {"pitch": 65, "velocity": 73, "note_on_time": 8.479, "note_off_time": 8.571}, {"pitch": 65, "velocity": 82, "note_on_time": 8.737, "note_off_time": 8.807}]</notes><guidance name="Guidance Mode">None</guidance><error name="Error value">0.016872500000000127</error></trial><trial trial_no="2" timestamp="2022_08_17-12_29_22"><notes name="Played Notes">[{"pitch": 60, "velocity": 58, "note_on_time": 1.375, "note_off_time": 1.625}, {"pitch": 67, "velocity": 64, "note_on_time": 1.634, "note_off_time": 1.906}, {"pitch": 60, "velocity": 64, "note_on_time": 1.899, "note_off_time": 2.127}, {"pitch": 62, "velocity": 63, "note_on_time": 2.143, "note_off_time": 2.429}, {"pitch": 65, "velocity": 66, "note_on_time": 2.427, "note_off_time": 2.696}, {"pitch": 64, "velocity": 73, "note_on_time": 2.707, "note_off_time": 3.215}, {"pitch": 67, "velocity": 51, "note_on_time": 3.259, "note_off_time": 3.348}, {"pitch": 67, "velocity": 62, "note_on_time": 3.535, "note_off_time": 3.71}, {"pitch": 65, "velocity": 55, "note_on_time": 3.775, "note_off_time": 4.008}, {"pitch": 67, "velocity": 59, "note_on_time": 4.017, "note_off_time": 4.268}, {"pitch": 60, "velocity": 64, "note_on_time": 4.276, "note_off_time": 4.55}, {"pitch": 62, "velocity": 66, "note_on_time": 4.555, "note_off_time": 4.894}, {"pitch": 60, "velocity": 63, "note_on_time": 5.126, "note_off_time": 5.234}, {"pitch": 60, "velocity": 62, "note_on_time": 5.363, "note_off_time": 5.478}, {"pitch": 65, "velocity": 67, "note_on_time": 5.617, "note_off_time": 5.816}, {"pitch": 64, "velocity": 62, "note_on_time": 5.861, "note_off_time": 6.106}, {"pitch": 65, "velocity": 67, "note_on_time": 6.125, "note_off_time": 6.426}, {"pitch": 67, "velocity": 66, "note_on_time": 6.374, "note_off_time": 6.574}, {"pitch": 60, "velocity": 64, "note_on_time": 6.632, "note_off_time": 6.888}, {"pitch": 67, "velocity": 59, "note_on_time": 6.875, "note_off_time": 7.104}, {"pitch": 62, "velocity": 64, "note_on_time": 7.115, "note_off_time": 7.365}, {"pitch": 65, "velocity": 70, "note_on_time": 7.36, "note_off_time": 7.813}, {"pitch": 65, "velocity": 68, "note_on_time": 8.699, "note_off_time": 8.82}]</notes><guidance name="Guidance Mode">None</guidance><error name="Error value">0.19661749999999995</error></trial><trial trial_no="3" timestamp="2022_08_17-12_29_49"><notes name="Played Notes">[{"pitch": 60, "velocity": 66, "note_on_time": 2.021, "note_off_time": 2.306}, {"pitch": 67, "velocity": 69, "note_on_time": 2.298, "note_off_time": 2.592}, {"pitch": 60, "velocity": 65, "note_on_time": 2.571, "note_off_time": 2.836}, {"pitch": 62, "velocity": 68, "note_on_time": 2.839, "note_off_time": 3.131}, {"pitch": 65, "velocity": 72, "note_on_time": 3.115, "note_off_time": 3.424}, {"pitch": 64, "velocity": 67, "note_on_time": 3.41, "note_off_time": 3.83}, {"pitch": 67, "velocity": 58, "note_on_time": 3.958, "note_off_time": 4.254}, {"pitch": 67, "velocity": 62, "note_on_time": 4.435, "note_off_time": 4.703}, {"pitch": 65, "velocity": 66, "note_on_time": 4.711, "note_off_time": 4.984}, {"pitch": 67, "velocity": 67, "note_on_time": 4.973, "note_off_time": 5.255}, {"pitch": 60, "velocity": 65, "note_on_time": 5.242, "note_off_time": 5.532}, {"pitch": 62, "velocity": 70, "note_on_time": 5.515, "note_off_time": 5.916}, {"pitch": 60, "velocity": 68, "note_on_time": 6.342, "note_off_time": 6.438}, {"pitch": 60, "velocity": 60, "note_on_time": 6.604, "note_off_time": 6.81}, {"pitch": 65, "velocity": 71, "note_on_time": 6.856, "note_off_time": 7.082}, {"pitch": 64, "velocity": 61, "note_on_time": 7.1, "note_off_time": 7.394}, {"pitch": 65, "velocity": 64, "note_on_time": 7.365, "note_off_time": 7.699}, {"pitch": 67, "velocity": 66, "note_on_time": 7.64, "note_off_time": 7.87}, {"pitch": 60, "velocity": 62, "note_on_time": 7.895, "note_off_time": 8.185}, {"pitch": 67, "velocity": 62, "note_on_time": 8.167, "note_off_time": 8.409}, {"pitch": 62, "velocity": 60, "note_on_time": 8.415, "note_off_time": 8.735}]</notes><guidance name="Guidance Mode">None</guidance><error name="Error value">0.4880927272727273</error></trial><trial trial_no="4" timestamp="2022_08_17-12_30_32"><notes name="Played Notes">[{"pitch": 60, "velocity": 64, "note_on_time": 1.354, "note_off_time": 1.636}, {"pitch": 67, "velocity": 66, "note_on_time": 1.617, "note_off_time": 1.891}, {"pitch": 60, "velocity": 68, "note_on_time": 1.883, "note_off_time": 2.116}, {"pitch": 62, "velocity": 70, "note_on_time": 2.137, "note_off_time": 2.422}, {"pitch": 65, "velocity": 66, "note_on_time": 2.406, "note_off_time": 2.675}, {"pitch": 64, "velocity": 70, "note_on_time": 2.671, "note_off_time": 3.178}, {"pitch": 67, "velocity": 67, "note_on_time": 3.176, "note_off_time": 3.284}, {"pitch": 67, "velocity": 73, "note_on_time": 3.451, "note_off_time": 3.663}, {"pitch": 65, "velocity": 71, "note_on_time": 3.695, "note_off_time": 3.958}, {"pitch": 67, "velocity": 70, "note_on_time": 3.955, "note_off_time": 4.202}, {"pitch": 60, "velocity": 71, "note_on_time": 4.232, "note_off_time": 4.485}, {"pitch": 62, "velocity": 72, "note_on_time": 4.479, "note_off_time": 4.903}, {"pitch": 60, "velocity": 74, "note_on_time": 5.288, "note_off_time": 5.407}, {"pitch": 60, "velocity": 72, "note_on_time": 5.563, "note_off_time": 5.8}, {"pitch": 65, "velocity": 75, "note_on_time": 5.811, "note_off_time": 6.044}, {"pitch": 64, "velocity": 65, "note_on_time": 6.072, "note_off_time": 6.368}, {"pitch": 65, "velocity": 72, "note_on_time": 6.335, "note_off_time": 6.668}, {"pitch": 67, "velocity": 72, "note_on_time": 6.607, "note_off_time": 6.836}, {"pitch": 60, "velocity": 64, "note_on_time": 6.862, "note_off_time": 7.148}, {"pitch": 67, "velocity": 62, "note_on_time": 7.129, "note_off_time": 7.36}, {"pitch": 62, "velocity": 64, "note_on_time": 7.371, "note_off_time": 7.624}, {"pitch": 65, "velocity": 76, "note_on_time": 7.623, "note_off_time": 8.014}]</notes><guidance name="Guidance Mode">None</guidance><error name="Error value">0.33523500000000006</error></trial><trial trial_no="5" timestamp="2022_08_17-12_30_59"><notes name="Played Notes">[{"pitch": 60, "velocity": 71, "note_on_time": 1.395, "note_off_time": 1.657}, {"pitch": 67, "velocity": 67, "note_on_time": 1.648, "note_off_time": 1.915}, {"pitch": 60, "velocity": 62, "note_on_time": 1.912, "note_off_time": 2.169}, {"pitch": 62, "velocity": 67, "note_on_time": 2.171, "note_off_time": 2.432}, {"pitch": 65, "velocity": 73, "note_on_time": 2.431, "note_off_time": 2.697}, {"pitch": 64, "velocity": 72, "note_on_time": 2.687, "note_off_time": 3.223}, {"pitch": 67, "velocity": 66, "note_on_time": 3.214, "note_off_time": 3.315}, {"pitch": 67, "velocity": 72, "note_on_time": 3.479, "note_off_time": 3.702}, {"pitch": 65, "velocity": 59, "note_on_time": 3.721, "note_off_time": 3.976}, {"pitch": 67, "velocity": 71, "note_on_time": 3.97, "note_off_time": 4.231}, {"pitch": 60, "velocity": 71, "note_on_time": 4.242, "note_off_time": 4.527}, {"pitch": 62, "velocity": 69, "note_on_time": 4.512, "note_off_time": 4.883}, {"pitch": 60, "velocity": 77, "note_on_time": 5.324, "note_off_time": 5.423}, {"pitch": 60, "velocity": 57, "note_on_time": 5.606, "note_off_time": 5.825}, {"pitch": 65, "velocity": 72, "note_on_time": 5.841, "note_off_time": 6.067}, {"pitch": 64, "velocity": 66, "note_on_time": 6.084, "note_off_time": 6.368}, {"pitch": 65, "velocity": 68, "note_on_time": 6.342, "note_off_time": 6.623}, {"pitch": 67, "velocity": 71, "note_on_time": 6.597, "note_off_time": 6.822}, {"pitch": 60, "velocity": 66, "note_on_time": 6.848, "note_off_time": 7.118}, {"pitch": 67, "velocity": 67, "note_on_time": 7.104, "note_off_time": 7.344}, {"pitch": 62, "velocity": 58, "note_on_time": 7.36, "note_off_time": 7.625}, {"pitch": 65, "velocity": 72, "note_on_time": 7.623, "note_off_time": 7.986}]</notes><guidance name="Guidance Mode">None</guidance><error name="Error value">0.36941386363636364</error></trial><trial trial_no="6" timestamp="2022_08_17-12_32_04"><notes name="Played Notes">[{"pitch": 60, "velocity": 58, "note_on_time": 1.037, "note_off_time": 1.299}, {"pitch": 67, "velocity": 60, "note_on_time": 1.304, "note_off_time": 1.575}, {"pitch": 60, "velocity": 59, "note_on_time": 1.585, "note_off_time": 1.804}, {"pitch": 62, "velocity": 53, "note_on_time": 1.84, "note_off_time": 2.085}, {"pitch": 65, "velocity": 58, "note_on_time": 2.081, "note_off_time": 2.348}, {"pitch": 64, "velocity": 62, "note_on_time": 2.345, "note_off_time": 2.873}, {"pitch": 67, "velocity": 70, "note_on_time": 2.876, "note_off_time": 2.974}, {"pitch": 67, "velocity": 63, "note_on_time": 3.154, "note_off_time": 3.345}, {"pitch": 65, "velocity": 58, "note_on_time": 3.414, "note_off_time": 3.66}, {"pitch": 67, "velocity": 62, "note_on_time": 3.652, "note_off_time": 3.879}, {"pitch": 60, "velocity": 65, "note_on_time": 3.911, "note_off_time": 4.18}, {"pitch": 62, "velocity": 56, "note_on_time": 4.192, "note_off_time": 4.554}, {"pitch": 60, "velocity": 62, "note_on_time": 5.026, "note_off_time": 5.121}, {"pitch": 60, "velocity": 64, "note_on_time": 5.298, "note_off_time": 5.461}, {"pitch": 65, "velocity": 64, "note_on_time": 5.557, "note_off_time": 5.718}, {"pitch": 64, "velocity": 54, "note_on_time": 5.802, "note_off_time": 6.031}, {"pitch": 65, "velocity": 63, "note_on_time": 6.055, "note_off_time": 6.264}, {"pitch": 67, "velocity": 59, "note_on_time": 6.311, "note_off_time": 6.478}, {"pitch": 60, "velocity": 55, "note_on_time": 6.565, "note_off_time": 6.804}, {"pitch": 67, "velocity": 54, "note_on_time": 6.817, "note_off_time": 6.997}, {"pitch": 62, "velocity": 43, "note_on_time": 7.087, "note_off_time": 7.314}, {"pitch": 65, "velocity": 61, "note_on_time": 7.346, "note_off_time": 7.726}, {"pitch": 65, "velocity": 67, "note_on_time": 8.615, "note_off_time": 8.722}, {"pitch": 65, "velocity": 69, "note_on_time": 8.907, "note_off_time": 8.999}]</notes><guidance name="Guidance Mode">None</guidance><error name="Error value">2.0667136363636365</error></trial></trials></MIDI>