<MIDI midiNo="2022_12_15-13_11_12"><target_notes><notes name="Note List">[{"pitch": 42, "velocity": 80, "note_on_time": 0.004, "note_off_time": 0.737}, {"pitch": 42, "velocity": 80, "note_on_time": 0.738, "note_off_time": 1.469}, {"pitch": 42, "velocity": 80, "note_on_time": 1.469, "note_off_time": 2.202}, {"pitch": 42, "velocity": 80, "note_on_time": 2.202, "note_off_time": 2.935}, {"pitch": 62, "velocity": 80, "note_on_time": 2.935, "note_off_time": 3.669}, {"pitch": 42, "velocity": 80, "note_on_time": 2.936, "note_off_time": 3.669}, {"pitch": 42, "velocity": 80, "note_on_time": 3.67, "note_off_time": 4.398}, {"pitch": 62, "velocity": 80, "note_on_time": 4.398, "note_off_time": 5.131}, {"pitch": 42, "velocity": 80, "note_on_time": 4.398, "note_off_time": 5.131}, {"pitch": 42, "velocity": 80, "note_on_time": 5.132, "note_off_time": 5.863}, {"pitch": 42, "velocity": 80, "note_on_time": 5.863, "note_off_time": 6.595}, {"pitch": 64, "velocity": 80, "note_on_time": 5.863, "note_off_time": 7.329}, {"pitch": 42, "velocity": 80, "note_on_time": 6.595, "note_off_time": 7.329}, {"pitch": 42, "velocity": 80, "note_on_time": 7.33, "note_off_time": 8.06}, {"pitch": 42, "velocity": 80, "note_on_time": 8.06, "note_off_time": 8.796}, {"pitch": 42, "velocity": 80, "note_on_time": 8.796, "note_off_time": 9.529}, {"pitch": 60, "velocity": 80, "note_on_time": 8.795, "note_off_time": 10.264}, {"pitch": 42, "velocity": 80, "note_on_time": 9.529, "note_off_time": 10.264}, {"pitch": 42, "velocity": 80, "note_on_time": 10.264, "note_off_time": 10.999}, {"pitch": 42, "velocity": 80, "note_on_time": 10.999, "note_off_time": 11.733}, {"pitch": 64, "velocity": 80, "note_on_time": 11.733, "note_off_time": 12.466}, {"pitch": 42, "velocity": 80, "note_on_time": 11.734, "note_off_time": 12.466}, {"pitch": 60, "velocity": 80, "note_on_time": 12.466, "note_off_time": 13.204}, {"pitch": 42, "velocity": 80, "note_on_time": 12.466, "note_off_time": 13.204}, {"pitch": 60, "velocity": 80, "note_on_time": 13.204, "note_off_time": 13.94}, {"pitch": 42, "velocity": 80, "note_on_time": 13.205, "note_off_time": 13.941}, {"pitch": 62, "velocity": 80, "note_on_time": 13.94, "note_off_time": 14.679}, {"pitch": 42, "velocity": 80, "note_on_time": 13.941, "note_off_time": 14.679}, {"pitch": 42, "velocity": 80, "note_on_time": 14.68, "note_off_time": 15.41}, {"pitch": 60, "velocity": 80, "note_on_time": 14.679, "note_off_time": 16.145}, {"pitch": 42, "velocity": 80, "note_on_time": 15.41, "note_off_time": 16.146}, {"pitch": 42, "velocity": 80, "note_on_time": 16.146, "note_off_time": 16.88}, {"pitch": 64, "velocity": 80, "note_on_time": 16.88, "note_off_time": 17.613}, {"pitch": 42, "velocity": 80, "note_on_time": 16.88, "note_off_time": 17.613}, {"pitch": 42, "velocity": 80, "note_on_time": 17.613, "note_off_time": 18.348}, {"pitch": 64, "velocity": 80, "note_on_time": 17.613, "note_off_time": 19.08}, {"pitch": 42, "velocity": 80, "note_on_time": 18.348, "note_off_time": 19.08}, {"pitch": 42, "velocity": 80, "note_on_time": 19.081, "note_off_time": 19.814}, {"pitch": 42, "velocity": 80, "note_on_time": 19.815, "note_off_time": 20.547}, {"pitch": 42, "velocity": 80, "note_on_time": 20.548, "note_off_time": 21.283}, {"pitch": 62, "velocity": 80, "note_on_time": 20.547, "note_off_time": 22.018}, {"pitch": 42, "velocity": 80, "note_on_time": 21.283, "note_off_time": 22.018}, {"pitch": 42, "velocity": 80, "note_on_time": 22.018, "note_off_time": 22.751}, {"pitch": 42, "velocity": 80, "note_on_time": 22.751, "note_off_time": 23.484}, {"pitch": 42, "velocity": 80, "note_on_time": 23.484, "note_off_time": 24.219}, {"pitch": 62, "velocity": 80, "note_on_time": 24.218, "note_off_time": 24.953}, {"pitch": 42, "velocity": 80, "note_on_time": 24.219, "note_off_time": 24.953}, {"pitch": 62, "velocity": 80, "note_on_time": 24.953, "note_off_time": 25.689}, {"pitch": 42, "velocity": 80, "note_on_time": 24.953, "note_off_time": 25.689}, {"pitch": 62, "velocity": 80, "note_on_time": 25.689, "note_off_time": 26.426}, {"pitch": 42, "velocity": 80, "note_on_time": 25.69, "note_off_time": 26.426}]</notes><options name="Option List">((4, 4), [0.5, 0.25], 3, 8, &lt;NoteRangePerHand.THREE_NOTES: 4&gt;, &lt;NoteRangePerHand.ONE_NOTE: 2&gt;, False, True, False, 83)</options></target_notes><trials><trial trial_no="1" timestamp="2022_12_15-13_10_44"><notes name="Played Notes">[{"pitch": 62, "velocity": 54, "note_on_time": 2.92, "note_off_time": 3.501}, {"pitch": 62, "velocity": 58, "note_on_time": 4.362, "note_off_time": 5.063}, {"pitch": 64, "velocity": 67, "note_on_time": 5.778, "note_off_time": 6.575}, {"pitch": 60, "velocity": 70, "note_on_time": 8.772, "note_off_time": 10.007}, {"pitch": 64, "velocity": 67, "note_on_time": 11.708, "note_off_time": 11.933}, {"pitch": 60, "velocity": 64, "note_on_time": 12.406, "note_off_time": 12.594}, {"pitch": 60, "velocity": 71, "note_on_time": 13.176, "note_off_time": 13.318}, {"pitch": 62, "velocity": 62, "note_on_time": 13.918, "note_off_time": 14.069}, {"pitch": 60, "velocity": 67, "note_on_time": 14.643, "note_off_time": 15.553}, {"pitch": 64, "velocity": 68, "note_on_time": 16.811, "note_off_time": 16.994}, {"pitch": 64, "velocity": 67, "note_on_time": 17.542, "note_off_time": 18.447}, {"pitch": 62, "velocity": 70, "note_on_time": 20.475, "note_off_time": 21.474}, {"pitch": 62, "velocity": 48, "note_on_time": 24.188, "note_off_time": 24.404}, {"pitch": 62, "velocity": 53, "note_on_time": 24.908, "note_off_time": 25.075}, {"pitch": 62, "velocity": 49, "note_on_time": 25.641, "note_off_time": 25.812}]</notes><guidance name="Guidance Mode">None</guidance><error name="Error value">0.036284749999999276</error></trial><trial trial_no="2" timestamp="2022_12_15-13_12_10"><notes name="Played Notes">[{"pitch": 62, "velocity": 61, "note_on_time": 2.847, "note_off_time": 3.194}, {"pitch": 62, "velocity": 69, "note_on_time": 4.325, "note_off_time": 4.725}, {"pitch": 64, "velocity": 74, "note_on_time": 5.841, "note_off_time": 6.82}, {"pitch": 60, "velocity": 73, "note_on_time": 8.762, "note_off_time": 9.72}, {"pitch": 64, "velocity": 72, "note_on_time": 11.649, "note_off_time": 11.843}, {"pitch": 60, "velocity": 74, "note_on_time": 12.404, "note_off_time": 12.524}, {"pitch": 60, "velocity": 77, "note_on_time": 13.138, "note_off_time": 13.273}, {"pitch": 62, "velocity": 67, "note_on_time": 13.899, "note_off_time": 14.07}, {"pitch": 60, "velocity": 69, "note_on_time": 14.66, "note_off_time": 15.78}, {"pitch": 64, "velocity": 65, "note_on_time": 17.475, "note_off_time": 17.786}, {"pitch": 60, "velocity": 71, "note_on_time": 18.244, "note_off_time": 19.011}, {"pitch": 60, "velocity": 43, "note_on_time": 20.425, "note_off_time": 21.369}, {"pitch": 62, "velocity": 61, "note_on_time": 24.108, "note_off_time": 24.298}, {"pitch": 62, "velocity": 59, "note_on_time": 24.866, "note_off_time": 25.036}, {"pitch": 62, "velocity": 58, "note_on_time": 25.528, "note_off_time": 25.743}]</notes><guidance name="Guidance Mode">None</guidance><error name="Error value">0.3186180833333334</error></trial><trial trial_no="3" timestamp="2022_12_15-13_13_35"><notes name="Played Notes">[{"pitch": 62, "velocity": 65, "note_on_time": 2.918, "note_off_time": 3.514}, {"pitch": 62, "velocity": 64, "note_on_time": 4.322, "note_off_time": 5.058}, {"pitch": 64, "velocity": 74, "note_on_time": 5.821, "note_off_time": 6.642}, {"pitch": 60, "velocity": 72, "note_on_time": 8.758, "note_off_time": 9.876}, {"pitch": 64, "velocity": 70, "note_on_time": 11.702, "note_off_time": 11.912}, {"pitch": 60, "velocity": 71, "note_on_time": 12.444, "note_off_time": 12.599}, {"pitch": 60, "velocity": 74, "note_on_time": 13.184, "note_off_time": 13.322}, {"pitch": 62, "velocity": 61, "note_on_time": 13.921, "note_off_time": 14.101}, {"pitch": 60, "velocity": 72, "note_on_time": 14.657, "note_off_time": 15.589}, {"pitch": 64, "velocity": 71, "note_on_time": 16.844, "note_off_time": 17.016}, {"pitch": 64, "velocity": 76, "note_on_time": 17.569, "note_off_time": 18.608}, {"pitch": 62, "velocity": 66, "note_on_time": 20.444, "note_off_time": 21.462}, {"pitch": 62, "velocity": 59, "note_on_time": 24.215, "note_off_time": 24.38}, {"pitch": 62, "velocity": 62, "note_on_time": 24.952, "note_off_time": 25.089}, {"pitch": 62, "velocity": 72, "note_on_time": 25.637, "note_off_time": 25.775}]</notes><guidance name="Guidance Mode">None</guidance><error name="Error value">0.041821083333333675</error></trial></trials></MIDI>