<MIDI midiNo="2022_10_27-14_09_47"><target_notes><notes name="Note List">[{"pitch": 42, "velocity": 80, "note_on_time": 0.005, "note_off_time": 0.297}, {"pitch": 42, "velocity": 80, "note_on_time": 0.297, "note_off_time": 0.578}, {"pitch": 42, "velocity": 80, "note_on_time": 0.578, "note_off_time": 0.859}, {"pitch": 42, "velocity": 80, "note_on_time": 0.86, "note_off_time": 1.141}, {"pitch": 62, "velocity": 80, "note_on_time": 1.141, "note_off_time": 1.436}, {"pitch": 42, "velocity": 80, "note_on_time": 1.141, "note_off_time": 1.436}, {"pitch": 42, "velocity": 80, "note_on_time": 1.436, "note_off_time": 1.732}, {"pitch": 62, "velocity": 80, "note_on_time": 1.436, "note_off_time": 2.026}, {"pitch": 42, "velocity": 80, "note_on_time": 1.732, "note_off_time": 2.027}, {"pitch": 42, "velocity": 80, "note_on_time": 2.027, "note_off_time": 2.308}, {"pitch": 42, "velocity": 80, "note_on_time": 2.309, "note_off_time": 2.603}, {"pitch": 62, "velocity": 80, "note_on_time": 2.308, "note_off_time": 2.884}, {"pitch": 42, "velocity": 80, "note_on_time": 2.603, "note_off_time": 2.884}, {"pitch": 42, "velocity": 80, "note_on_time": 2.884, "note_off_time": 3.18}, {"pitch": 42, "velocity": 80, "note_on_time": 3.18, "note_off_time": 3.474}, {"pitch": 67, "velocity": 80, "note_on_time": 3.474, "note_off_time": 3.768}, {"pitch": 42, "velocity": 80, "note_on_time": 3.475, "note_off_time": 3.769}, {"pitch": 65, "velocity": 80, "note_on_time": 3.768, "note_off_time": 4.064}, {"pitch": 42, "velocity": 80, "note_on_time": 3.769, "note_off_time": 4.064}, {"pitch": 42, "velocity": 80, "note_on_time": 4.065, "note_off_time": 4.346}, {"pitch": 65, "velocity": 80, "note_on_time": 4.064, "note_off_time": 4.642}, {"pitch": 42, "velocity": 80, "note_on_time": 4.347, "note_off_time": 4.642}, {"pitch": 42, "velocity": 80, "note_on_time": 4.642, "note_off_time": 4.922}, {"pitch": 62, "velocity": 80, "note_on_time": 4.642, "note_off_time": 5.218}, {"pitch": 42, "velocity": 80, "note_on_time": 4.922, "note_off_time": 5.218}, {"pitch": 42, "velocity": 80, "note_on_time": 5.218, "note_off_time": 5.499}, {"pitch": 42, "velocity": 80, "note_on_time": 5.499, "note_off_time": 5.795}, {"pitch": 67, "velocity": 80, "note_on_time": 5.794, "note_off_time": 6.088}, {"pitch": 42, "velocity": 80, "note_on_time": 5.795, "note_off_time": 6.089}, {"pitch": 67, "velocity": 80, "note_on_time": 6.088, "note_off_time": 6.371}, {"pitch": 42, "velocity": 80, "note_on_time": 6.089, "note_off_time": 6.372}, {"pitch": 67, "velocity": 80, "note_on_time": 6.371, "note_off_time": 6.667}, {"pitch": 42, "velocity": 80, "note_on_time": 6.372, "note_off_time": 6.667}, {"pitch": 42, "velocity": 80, "note_on_time": 6.668, "note_off_time": 6.963}, {"pitch": 67, "velocity": 80, "note_on_time": 6.962, "note_off_time": 7.258}, {"pitch": 42, "velocity": 80, "note_on_time": 6.963, "note_off_time": 7.258}, {"pitch": 60, "velocity": 80, "note_on_time": 7.258, "note_off_time": 7.553}, {"pitch": 42, "velocity": 80, "note_on_time": 7.258, "note_off_time": 7.554}, {"pitch": 65, "velocity": 80, "note_on_time": 7.553, "note_off_time": 7.835}, {"pitch": 42, "velocity": 80, "note_on_time": 7.554, "note_off_time": 7.835}, {"pitch": 60, "velocity": 80, "note_on_time": 7.835, "note_off_time": 8.13}, {"pitch": 42, "velocity": 80, "note_on_time": 7.835, "note_off_time": 8.131}, {"pitch": 62, "velocity": 80, "note_on_time": 8.13, "note_off_time": 8.411}, {"pitch": 42, "velocity": 80, "note_on_time": 8.131, "note_off_time": 8.411}, {"pitch": 65, "velocity": 80, "note_on_time": 8.411, "note_off_time": 8.706}, {"pitch": 42, "velocity": 80, "note_on_time": 8.412, "note_off_time": 8.706}, {"pitch": 42, "velocity": 80, "note_on_time": 8.706, "note_off_time": 9.001}, {"pitch": 42, "velocity": 80, "note_on_time": 9.002, "note_off_time": 9.283}, {"pitch": 42, "velocity": 80, "note_on_time": 9.283, "note_off_time": 9.567}, {"pitch": 65, "velocity": 80, "note_on_time": 9.566, "note_off_time": 9.86}, {"pitch": 42, "velocity": 80, "note_on_time": 9.567, "note_off_time": 9.86}, {"pitch": 65, "velocity": 80, "note_on_time": 9.86, "note_off_time": 10.156}, {"pitch": 42, "velocity": 80, "note_on_time": 9.86, "note_off_time": 10.156}, {"pitch": 65, "velocity": 80, "note_on_time": 10.156, "note_off_time": 10.451}, {"pitch": 42, "velocity": 80, "note_on_time": 10.156, "note_off_time": 10.451}]</notes><options name="Option List">((4, 4), [0.5, 0.25], 3, 8, &lt;NoteRangePerHand.C_TO_G: 6&gt;, &lt;NoteRangePerHand.ONE_NOTE: 2&gt;, False, True, False, 215)</options></target_notes><trials><trial trial_no="1" timestamp="2022_10_27-14_09_35"><notes name="Played Notes">[{"pitch": 74, "velocity": 68, "note_on_time": 1.189, "note_off_time": 1.289}, {"pitch": 74, "velocity": 76, "note_on_time": 1.477, "note_off_time": 1.881}, {"pitch": 74, "velocity": 79, "note_on_time": 2.334, "note_off_time": 2.724}, {"pitch": 79, "velocity": 73, "note_on_time": 3.493, "note_off_time": 3.691}, {"pitch": 77, "velocity": 72, "note_on_time": 3.793, "note_off_time": 3.903}, {"pitch": 77, "velocity": 82, "note_on_time": 4.072, "note_off_time": 4.364}, {"pitch": 74, "velocity": 77, "note_on_time": 4.649, "note_off_time": 5.091}, {"pitch": 79, "velocity": 76, "note_on_time": 5.823, "note_off_time": 5.961}, {"pitch": 79, "velocity": 74, "note_on_time": 6.098, "note_off_time": 6.235}, {"pitch": 79, "velocity": 90, "note_on_time": 6.391, "note_off_time": 6.747}, {"pitch": 79, "velocity": 80, "note_on_time": 7.201, "note_off_time": 7.401}, {"pitch": 72, "velocity": 74, "note_on_time": 7.502, "note_off_time": 7.642}, {"pitch": 77, "velocity": 74, "note_on_time": 7.792, "note_off_time": 7.927}, {"pitch": 72, "velocity": 76, "note_on_time": 8.067, "note_off_time": 8.182}, {"pitch": 76, "velocity": 61, "note_on_time": 8.407, "note_off_time": 8.581}, {"pitch": 77, "velocity": 70, "note_on_time": 8.682, "note_off_time": 8.825}, {"pitch": 77, "velocity": 76, "note_on_time": 9.82, "note_off_time": 9.943}, {"pitch": 77, "velocity": 74, "note_on_time": 10.115, "note_off_time": 10.23}]</notes><guidance name="Guidance Mode">None</guidance><error name="Error value">1.2410969375</error></trial><trial trial_no="2" timestamp="2022_10_27-14_09_58"><notes name="Played Notes">[{"pitch": 74, "velocity": 81, "note_on_time": 1.13, "note_off_time": 1.253}, {"pitch": 74, "velocity": 78, "note_on_time": 1.432, "note_off_time": 1.814}, {"pitch": 74, "velocity": 82, "note_on_time": 2.328, "note_off_time": 2.823}, {"pitch": 79, "velocity": 73, "note_on_time": 3.505, "note_off_time": 3.692}, {"pitch": 77, "velocity": 77, "note_on_time": 3.789, "note_off_time": 3.925}, {"pitch": 77, "velocity": 81, "note_on_time": 4.092, "note_off_time": 4.469}, {"pitch": 74, "velocity": 78, "note_on_time": 4.675, "note_off_time": 5.208}, {"pitch": 79, "velocity": 81, "note_on_time": 5.849, "note_off_time": 5.973}, {"pitch": 79, "velocity": 80, "note_on_time": 6.122, "note_off_time": 6.248}, {"pitch": 79, "velocity": 87, "note_on_time": 6.405, "note_off_time": 6.791}, {"pitch": 79, "velocity": 77, "note_on_time": 7.276, "note_off_time": 7.456}, {"pitch": 72, "velocity": 46, "note_on_time": 7.589, "note_off_time": 7.732}, {"pitch": 77, "velocity": 77, "note_on_time": 7.835, "note_off_time": 7.96}, {"pitch": 72, "velocity": 74, "note_on_time": 8.136, "note_off_time": 8.29}, {"pitch": 74, "velocity": 73, "note_on_time": 8.411, "note_off_time": 8.586}, {"pitch": 77, "velocity": 70, "note_on_time": 8.706, "note_off_time": 9.052}, {"pitch": 77, "velocity": 82, "note_on_time": 9.887, "note_off_time": 10.003}, {"pitch": 77, "velocity": 79, "note_on_time": 10.172, "note_off_time": 10.301}]</notes><guidance name="Guidance Mode">None</guidance><error name="Error value">1.2522133125000003</error></trial><trial trial_no="3" timestamp="2022_10_27-14_10_20"><notes name="Played Notes">[{"pitch": 74, "velocity": 79, "note_on_time": 1.147, "note_off_time": 1.263}, {"pitch": 74, "velocity": 79, "note_on_time": 1.452, "note_off_time": 1.866}, {"pitch": 74, "velocity": 80, "note_on_time": 2.321, "note_off_time": 2.669}, {"pitch": 79, "velocity": 72, "note_on_time": 3.463, "note_off_time": 3.622}, {"pitch": 77, "velocity": 82, "note_on_time": 3.745, "note_off_time": 3.889}, {"pitch": 77, "velocity": 81, "note_on_time": 4.052, "note_off_time": 4.272}, {"pitch": 74, "velocity": 78, "note_on_time": 4.625, "note_off_time": 5.092}, {"pitch": 79, "velocity": 81, "note_on_time": 5.798, "note_off_time": 5.933}, {"pitch": 79, "velocity": 74, "note_on_time": 6.063, "note_off_time": 6.203}, {"pitch": 79, "velocity": 90, "note_on_time": 6.357, "note_off_time": 6.594}, {"pitch": 79, "velocity": 76, "note_on_time": 7.226, "note_off_time": 7.39}, {"pitch": 72, "velocity": 78, "note_on_time": 7.502, "note_off_time": 7.624}, {"pitch": 77, "velocity": 77, "note_on_time": 7.798, "note_off_time": 7.939}, {"pitch": 72, "velocity": 73, "note_on_time": 8.091, "note_off_time": 8.212}, {"pitch": 74, "velocity": 77, "note_on_time": 8.375, "note_off_time": 8.501}, {"pitch": 77, "velocity": 81, "note_on_time": 8.669, "note_off_time": 8.909}, {"pitch": 77, "velocity": 82, "note_on_time": 9.818, "note_off_time": 9.948}, {"pitch": 77, "velocity": 80, "note_on_time": 10.112, "note_off_time": 10.244}]</notes><guidance name="Guidance Mode">None</guidance><error name="Error value">1.2441421875000003</error></trial></trials></MIDI>