<MIDI midiNo="2022_12_22-12_34_36"><target_notes><notes name="Note List">[{"pitch": 42, "velocity": 80, "note_on_time": 0.004, "note_off_time": 0.206}, {"pitch": 42, "velocity": 80, "note_on_time": 0.206, "note_off_time": 0.408}, {"pitch": 42, "velocity": 80, "note_on_time": 0.409, "note_off_time": 0.61}, {"pitch": 42, "velocity": 80, "note_on_time": 0.61, "note_off_time": 0.813}, {"pitch": 62, "velocity": 80, "note_on_time": 0.813, "note_off_time": 1.014}, {"pitch": 42, "velocity": 80, "note_on_time": 0.813, "note_off_time": 1.014}, {"pitch": 42, "velocity": 80, "note_on_time": 1.015, "note_off_time": 1.216}, {"pitch": 67, "velocity": 80, "note_on_time": 1.014, "note_off_time": 1.403}, {"pitch": 42, "velocity": 80, "note_on_time": 1.216, "note_off_time": 1.404}, {"pitch": 65, "velocity": 80, "note_on_time": 1.403, "note_off_time": 1.605}, {"pitch": 42, "velocity": 80, "note_on_time": 1.404, "note_off_time": 1.605}, {"pitch": 65, "velocity": 80, "note_on_time": 1.605, "note_off_time": 1.807}, {"pitch": 42, "velocity": 80, "note_on_time": 1.606, "note_off_time": 1.808}, {"pitch": 62, "velocity": 80, "note_on_time": 1.807, "note_off_time": 2.01}, {"pitch": 42, "velocity": 80, "note_on_time": 1.808, "note_off_time": 2.01}, {"pitch": 42, "velocity": 80, "note_on_time": 2.01, "note_off_time": 2.198}, {"pitch": 60, "velocity": 80, "note_on_time": 2.01, "note_off_time": 2.399}, {"pitch": 42, "velocity": 80, "note_on_time": 2.198, "note_off_time": 2.4}, {"pitch": 42, "velocity": 80, "note_on_time": 2.4, "note_off_time": 2.602}, {"pitch": 65, "velocity": 80, "note_on_time": 2.399, "note_off_time": 2.804}, {"pitch": 42, "velocity": 80, "note_on_time": 2.602, "note_off_time": 2.804}, {"pitch": 65, "velocity": 80, "note_on_time": 2.804, "note_off_time": 3.006}, {"pitch": 42, "velocity": 80, "note_on_time": 2.805, "note_off_time": 3.006}, {"pitch": 42, "velocity": 80, "note_on_time": 3.006, "note_off_time": 3.208}, {"pitch": 64, "velocity": 80, "note_on_time": 3.208, "note_off_time": 3.396}, {"pitch": 42, "velocity": 80, "note_on_time": 3.208, "note_off_time": 3.396}, {"pitch": 42, "velocity": 80, "note_on_time": 3.397, "note_off_time": 3.598}, {"pitch": 62, "velocity": 80, "note_on_time": 3.396, "note_off_time": 3.8}, {"pitch": 42, "velocity": 80, "note_on_time": 3.598, "note_off_time": 3.801}, {"pitch": 62, "velocity": 80, "note_on_time": 3.8, "note_off_time": 4.002}, {"pitch": 42, "velocity": 80, "note_on_time": 3.801, "note_off_time": 4.003}, {"pitch": 42, "velocity": 80, "note_on_time": 4.003, "note_off_time": 4.205}, {"pitch": 65, "velocity": 80, "note_on_time": 4.002, "note_off_time": 4.406}, {"pitch": 42, "velocity": 80, "note_on_time": 4.205, "note_off_time": 4.407}, {"pitch": 42, "velocity": 80, "note_on_time": 4.407, "note_off_time": 4.608}, {"pitch": 65, "velocity": 80, "note_on_time": 4.406, "note_off_time": 4.81}, {"pitch": 42, "velocity": 80, "note_on_time": 4.609, "note_off_time": 4.811}, {"pitch": 42, "velocity": 80, "note_on_time": 4.811, "note_off_time": 5.014}, {"pitch": 62, "velocity": 80, "note_on_time": 4.81, "note_off_time": 5.215}, {"pitch": 42, "velocity": 80, "note_on_time": 5.014, "note_off_time": 5.216}, {"pitch": 64, "velocity": 80, "note_on_time": 5.215, "note_off_time": 5.419}, {"pitch": 42, "velocity": 80, "note_on_time": 5.216, "note_off_time": 5.419}, {"pitch": 64, "velocity": 80, "note_on_time": 5.419, "note_off_time": 5.62}, {"pitch": 42, "velocity": 80, "note_on_time": 5.419, "note_off_time": 5.621}, {"pitch": 64, "velocity": 80, "note_on_time": 5.62, "note_off_time": 5.823}, {"pitch": 42, "velocity": 80, "note_on_time": 5.621, "note_off_time": 5.824}, {"pitch": 62, "velocity": 80, "note_on_time": 5.823, "note_off_time": 6.026}, {"pitch": 42, "velocity": 80, "note_on_time": 5.824, "note_off_time": 6.026}, {"pitch": 67, "velocity": 80, "note_on_time": 6.026, "note_off_time": 6.228}, {"pitch": 42, "velocity": 80, "note_on_time": 6.026, "note_off_time": 6.228}, {"pitch": 65, "velocity": 80, "note_on_time": 6.228, "note_off_time": 6.43}, {"pitch": 42, "velocity": 80, "note_on_time": 6.228, "note_off_time": 6.43}, {"pitch": 42, "velocity": 80, "note_on_time": 6.43, "note_off_time": 6.618}, {"pitch": 65, "velocity": 80, "note_on_time": 6.618, "note_off_time": 6.82}, {"pitch": 42, "velocity": 80, "note_on_time": 6.619, "note_off_time": 6.82}, {"pitch": 65, "velocity": 80, "note_on_time": 6.82, "note_off_time": 7.023}, {"pitch": 42, "velocity": 80, "note_on_time": 6.821, "note_off_time": 7.024}, {"pitch": 65, "velocity": 80, "note_on_time": 7.023, "note_off_time": 7.226}, {"pitch": 42, "velocity": 80, "note_on_time": 7.024, "note_off_time": 7.226}]</notes><options name="Option List">((4, 4), [0.5, 0.25], 3, 8, &lt;NoteRangePerHand.C_TO_G: 6&gt;, &lt;NoteRangePerHand.ONE_NOTE: 2&gt;, False, True, False, '322')</options></target_notes><trials><trial trial_no="1" timestamp="2022_12_22-12_34_27"><notes name="Played Notes">[{"pitch": 62, "velocity": 67, "note_on_time": 0.828, "note_off_time": 1.008}, {"pitch": 67, "velocity": 77, "note_on_time": 1.017, "note_off_time": 1.437}, {"pitch": 65, "velocity": 77, "note_on_time": 1.6, "note_off_time": 1.704}, {"pitch": 65, "velocity": 84, "note_on_time": 1.791, "note_off_time": 1.928}, {"pitch": 64, "velocity": 84, "note_on_time": 1.97, "note_off_time": 2.165}, {"pitch": 62, "velocity": 74, "note_on_time": 2.183, "note_off_time": 2.388}, {"pitch": 60, "velocity": 73, "note_on_time": 2.428, "note_off_time": 2.738}, {"pitch": 65, "velocity": 84, "note_on_time": 2.899, "note_off_time": 3.282}, {"pitch": 65, "velocity": 82, "note_on_time": 3.383, "note_off_time": 3.66}, {"pitch": 64, "velocity": 78, "note_on_time": 4.007, "note_off_time": 4.184}, {"pitch": 62, "velocity": 60, "note_on_time": 4.2, "note_off_time": 4.3}, {"pitch": 62, "velocity": 82, "note_on_time": 4.39, "note_off_time": 4.79}, {"pitch": 65, "velocity": 85, "note_on_time": 4.986, "note_off_time": 5.34}, {"pitch": 65, "velocity": 72, "note_on_time": 5.493, "note_off_time": 5.852}, {"pitch": 62, "velocity": 78, "note_on_time": 6.023, "note_off_time": 6.255}, {"pitch": 64, "velocity": 62, "note_on_time": 6.253, "note_off_time": 6.338}, {"pitch": 64, "velocity": 66, "note_on_time": 6.434, "note_off_time": 6.625}, {"pitch": 62, "velocity": 72, "note_on_time": 6.677, "note_off_time": 6.853}, {"pitch": 64, "velocity": 67, "note_on_time": 6.847, "note_off_time": 7.035}]</notes><guidance name="Guidance Mode">None</guidance><error name="Error value">0.9707334999999999</error></trial><trial trial_no="2" timestamp="2022_12_22-12_34_47"><notes name="Played Notes">[{"pitch": 62, "velocity": 66, "note_on_time": 0.812, "note_off_time": 0.987}, {"pitch": 67, "velocity": 74, "note_on_time": 0.999, "note_off_time": 1.463}, {"pitch": 65, "velocity": 80, "note_on_time": 1.583, "note_off_time": 1.682}, {"pitch": 65, "velocity": 86, "note_on_time": 1.765, "note_off_time": 2.016}, {"pitch": 64, "velocity": 84, "note_on_time": 2.08, "note_off_time": 2.234}, {"pitch": 60, "velocity": 61, "note_on_time": 2.272, "note_off_time": 2.724}, {"pitch": 65, "velocity": 75, "note_on_time": 3.037, "note_off_time": 3.369}, {"pitch": 65, "velocity": 78, "note_on_time": 3.61, "note_off_time": 3.844}, {"pitch": 64, "velocity": 65, "note_on_time": 3.982, "note_off_time": 4.153}, {"pitch": 62, "velocity": 66, "note_on_time": 4.179, "note_off_time": 4.286}, {"pitch": 62, "velocity": 74, "note_on_time": 4.381, "note_off_time": 4.713}, {"pitch": 65, "velocity": 76, "note_on_time": 4.821, "note_off_time": 5.322}, {"pitch": 65, "velocity": 48, "note_on_time": 5.592, "note_off_time": 5.88}, {"pitch": 62, "velocity": 66, "note_on_time": 6.083, "note_off_time": 6.285}, {"pitch": 64, "velocity": 61, "note_on_time": 6.447, "note_off_time": 6.605}, {"pitch": 64, "velocity": 85, "note_on_time": 6.681, "note_off_time": 6.83}, {"pitch": 62, "velocity": 70, "note_on_time": 6.848, "note_off_time": 7.086}]</notes><guidance name="Guidance Mode">None</guidance><error name="Error value">0.9906502500000002</error></trial><trial trial_no="3" timestamp="2022_12_22-12_35_07"><notes name="Played Notes">[{"pitch": 62, "velocity": 74, "note_on_time": 0.811, "note_off_time": 1.011}, {"pitch": 67, "velocity": 67, "note_on_time": 1.022, "note_off_time": 1.411}, {"pitch": 65, "velocity": 77, "note_on_time": 1.577, "note_off_time": 1.678}, {"pitch": 65, "velocity": 75, "note_on_time": 1.769, "note_off_time": 1.966}, {"pitch": 64, "velocity": 71, "note_on_time": 1.982, "note_off_time": 2.188}, {"pitch": 62, "velocity": 69, "note_on_time": 2.238, "note_off_time": 2.402}, {"pitch": 60, "velocity": 82, "note_on_time": 2.413, "note_off_time": 2.677}, {"pitch": 65, "velocity": 89, "note_on_time": 2.818, "note_off_time": 3.117}, {"pitch": 65, "velocity": 77, "note_on_time": 3.218, "note_off_time": 3.543}, {"pitch": 64, "velocity": 66, "note_on_time": 3.633, "note_off_time": 3.789}, {"pitch": 62, "velocity": 59, "note_on_time": 3.813, "note_off_time": 3.974}, {"pitch": 62, "velocity": 74, "note_on_time": 4.033, "note_off_time": 4.339}, {"pitch": 65, "velocity": 84, "note_on_time": 4.451, "note_off_time": 4.755}, {"pitch": 65, "velocity": 72, "note_on_time": 4.847, "note_off_time": 5.14}, {"pitch": 62, "velocity": 78, "note_on_time": 5.31, "note_off_time": 5.546}, {"pitch": 65, "velocity": 77, "note_on_time": 5.562, "note_off_time": 5.668}, {"pitch": 64, "velocity": 62, "note_on_time": 5.684, "note_off_time": 5.819}, {"pitch": 64, "velocity": 70, "note_on_time": 6.069, "note_off_time": 6.134}, {"pitch": 62, "velocity": 70, "note_on_time": 6.28, "note_off_time": 6.482}, {"pitch": 67, "velocity": 28, "note_on_time": 6.525, "note_off_time": 6.668}, {"pitch": 65, "velocity": 87, "note_on_time": 6.699, "note_off_time": 6.919}, {"pitch": 64, "velocity": 72, "note_on_time": 7.085, "note_off_time": 7.153}]</notes><guidance name="Guidance Mode">None</guidance><error name="Error value">0.793049</error></trial><trial trial_no="4" timestamp="2022_12_22-12_35_29"><notes name="Played Notes">[{"pitch": 62, "velocity": 76, "note_on_time": 0.772, "note_off_time": 0.988}, {"pitch": 67, "velocity": 72, "note_on_time": 0.973, "note_off_time": 1.375}, {"pitch": 65, "velocity": 80, "note_on_time": 1.535, "note_off_time": 1.637}, {"pitch": 65, "velocity": 75, "note_on_time": 1.728, "note_off_time": 1.94}, {"pitch": 62, "velocity": 72, "note_on_time": 1.966, "note_off_time": 2.056}, {"pitch": 64, "velocity": 85, "note_on_time": 2.044, "note_off_time": 2.124}, {"pitch": 62, "velocity": 69, "note_on_time": 2.15, "note_off_time": 2.329}, {"pitch": 60, "velocity": 65, "note_on_time": 2.369, "note_off_time": 2.577}, {"pitch": 65, "velocity": 74, "note_on_time": 2.689, "note_off_time": 2.978}, {"pitch": 65, "velocity": 78, "note_on_time": 3.167, "note_off_time": 3.457}, {"pitch": 64, "velocity": 86, "note_on_time": 3.59, "note_off_time": 3.721}, {"pitch": 62, "velocity": 65, "note_on_time": 3.764, "note_off_time": 3.856}, {"pitch": 62, "velocity": 73, "note_on_time": 3.959, "note_off_time": 4.269}, {"pitch": 65, "velocity": 79, "note_on_time": 4.385, "note_off_time": 4.703}, {"pitch": 65, "velocity": 94, "note_on_time": 4.779, "note_off_time": 5.076}, {"pitch": 62, "velocity": 75, "note_on_time": 5.158, "note_off_time": 5.472}, {"pitch": 64, "velocity": 71, "note_on_time": 5.552, "note_off_time": 5.619}, {"pitch": 64, "velocity": 59, "note_on_time": 5.724, "note_off_time": 5.912}, {"pitch": 64, "velocity": 93, "note_on_time": 5.983, "note_off_time": 6.18}, {"pitch": 62, "velocity": 71, "note_on_time": 6.168, "note_off_time": 6.33}, {"pitch": 67, "velocity": 74, "note_on_time": 6.358, "note_off_time": 6.559}, {"pitch": 65, "velocity": 70, "note_on_time": 6.555, "note_off_time": 6.775}, {"pitch": 62, "velocity": 72, "note_on_time": 6.958, "note_off_time": 7.038}]</notes><guidance name="Guidance Mode">None</guidance><error name="Error value">1.3375832499999998</error></trial><trial trial_no="5" timestamp="2022_12_22-12_35_49"><notes name="Played Notes">[{"pitch": 62, "velocity": 74, "note_on_time": 0.785, "note_off_time": 0.962}, {"pitch": 67, "velocity": 77, "note_on_time": 0.965, "note_off_time": 1.358}, {"pitch": 65, "velocity": 77, "note_on_time": 1.51, "note_off_time": 1.609}, {"pitch": 65, "velocity": 66, "note_on_time": 1.705, "note_off_time": 1.914}, {"pitch": 62, "velocity": 79, "note_on_time": 1.924, "note_off_time": 2.126}, {"pitch": 60, "velocity": 74, "note_on_time": 2.141, "note_off_time": 2.261}, {"pitch": 65, "velocity": 84, "note_on_time": 2.348, "note_off_time": 2.633}, {"pitch": 65, "velocity": 71, "note_on_time": 2.756, "note_off_time": 3.026}, {"pitch": 64, "velocity": 74, "note_on_time": 3.172, "note_off_time": 3.285}, {"pitch": 62, "velocity": 67, "note_on_time": 3.35, "note_off_time": 3.444}, {"pitch": 62, "velocity": 71, "note_on_time": 3.554, "note_off_time": 3.858}, {"pitch": 65, "velocity": 78, "note_on_time": 3.97, "note_off_time": 4.27}, {"pitch": 65, "velocity": 72, "note_on_time": 4.372, "note_off_time": 4.636}, {"pitch": 62, "velocity": 77, "note_on_time": 4.759, "note_off_time": 5.101}, {"pitch": 64, "velocity": 79, "note_on_time": 5.149, "note_off_time": 5.253}, {"pitch": 64, "velocity": 62, "note_on_time": 5.351, "note_off_time": 5.471}, {"pitch": 64, "velocity": 65, "note_on_time": 5.586, "note_off_time": 5.756}, {"pitch": 62, "velocity": 79, "note_on_time": 5.747, "note_off_time": 5.926}, {"pitch": 67, "velocity": 69, "note_on_time": 5.948, "note_off_time": 6.162}, {"pitch": 65, "velocity": 71, "note_on_time": 6.168, "note_off_time": 6.283}, {"pitch": 64, "velocity": 69, "note_on_time": 6.438, "note_off_time": 6.491}, {"pitch": 65, "velocity": 42, "note_on_time": 6.584, "note_off_time": 6.623}, {"pitch": 65, "velocity": 77, "note_on_time": 6.884, "note_off_time": 6.936}, {"pitch": 65, "velocity": 75, "note_on_time": 7.044, "note_off_time": 7.109}]</notes><guidance name="Guidance Mode">None</guidance><error name="Error value">0.23286575000000054</error></trial></trials></MIDI>