<MIDI midiNo="2022_11_03-13_39_32"><target_notes><notes name="Note List">[{"pitch": 42, "velocity": 80, "note_on_time": 0.004, "note_off_time": 0.202}, {"pitch": 42, "velocity": 80, "note_on_time": 0.202, "note_off_time": 0.391}, {"pitch": 42, "velocity": 80, "note_on_time": 0.392, "note_off_time": 0.592}, {"pitch": 42, "velocity": 80, "note_on_time": 0.592, "note_off_time": 0.794}, {"pitch": 62, "velocity": 80, "note_on_time": 0.794, "note_off_time": 0.996}, {"pitch": 42, "velocity": 80, "note_on_time": 0.794, "note_off_time": 0.996}, {"pitch": 64, "velocity": 80, "note_on_time": 0.996, "note_off_time": 1.198}, {"pitch": 42, "velocity": 80, "note_on_time": 0.996, "note_off_time": 1.198}, {"pitch": 62, "velocity": 80, "note_on_time": 1.198, "note_off_time": 1.4}, {"pitch": 42, "velocity": 80, "note_on_time": 1.198, "note_off_time": 1.4}, {"pitch": 60, "velocity": 80, "note_on_time": 1.4, "note_off_time": 1.602}, {"pitch": 42, "velocity": 80, "note_on_time": 1.401, "note_off_time": 1.603}, {"pitch": 42, "velocity": 80, "note_on_time": 1.603, "note_off_time": 1.804}, {"pitch": 64, "velocity": 80, "note_on_time": 1.602, "note_off_time": 2.004}, {"pitch": 42, "velocity": 80, "note_on_time": 1.804, "note_off_time": 2.004}, {"pitch": 42, "velocity": 80, "note_on_time": 2.004, "note_off_time": 2.192}, {"pitch": 62, "velocity": 80, "note_on_time": 2.004, "note_off_time": 2.394}, {"pitch": 42, "velocity": 80, "note_on_time": 2.192, "note_off_time": 2.394}, {"pitch": 62, "velocity": 80, "note_on_time": 2.394, "note_off_time": 2.596}, {"pitch": 42, "velocity": 80, "note_on_time": 2.395, "note_off_time": 2.596}, {"pitch": 62, "velocity": 80, "note_on_time": 2.596, "note_off_time": 2.799}, {"pitch": 42, "velocity": 80, "note_on_time": 2.596, "note_off_time": 2.799}, {"pitch": 62, "velocity": 80, "note_on_time": 2.799, "note_off_time": 3.002}, {"pitch": 42, "velocity": 80, "note_on_time": 2.799, "note_off_time": 3.002}, {"pitch": 62, "velocity": 80, "note_on_time": 3.002, "note_off_time": 3.203}, {"pitch": 42, "velocity": 80, "note_on_time": 3.002, "note_off_time": 3.204}, {"pitch": 62, "velocity": 80, "note_on_time": 3.203, "note_off_time": 3.406}, {"pitch": 42, "velocity": 80, "note_on_time": 3.204, "note_off_time": 3.407}, {"pitch": 60, "velocity": 80, "note_on_time": 3.406, "note_off_time": 3.609}, {"pitch": 42, "velocity": 80, "note_on_time": 3.407, "note_off_time": 3.609}, {"pitch": 64, "velocity": 80, "note_on_time": 3.609, "note_off_time": 3.812}, {"pitch": 42, "velocity": 80, "note_on_time": 3.609, "note_off_time": 3.812}, {"pitch": 60, "velocity": 80, "note_on_time": 3.812, "note_off_time": 4.014}, {"pitch": 42, "velocity": 80, "note_on_time": 3.812, "note_off_time": 4.014}, {"pitch": 62, "velocity": 80, "note_on_time": 4.014, "note_off_time": 4.217}, {"pitch": 42, "velocity": 80, "note_on_time": 4.014, "note_off_time": 4.217}, {"pitch": 60, "velocity": 80, "note_on_time": 4.217, "note_off_time": 4.42}, {"pitch": 42, "velocity": 80, "note_on_time": 4.218, "note_off_time": 4.42}, {"pitch": 42, "velocity": 80, "note_on_time": 4.421, "note_off_time": 4.623}, {"pitch": 60, "velocity": 80, "note_on_time": 4.622, "note_off_time": 4.811}, {"pitch": 42, "velocity": 80, "note_on_time": 4.623, "note_off_time": 4.812}, {"pitch": 64, "velocity": 80, "note_on_time": 4.811, "note_off_time": 5.013}, {"pitch": 42, "velocity": 80, "note_on_time": 4.812, "note_off_time": 5.013}, {"pitch": 64, "velocity": 80, "note_on_time": 5.013, "note_off_time": 5.214}, {"pitch": 42, "velocity": 80, "note_on_time": 5.013, "note_off_time": 5.214}, {"pitch": 62, "velocity": 80, "note_on_time": 5.214, "note_off_time": 5.402}, {"pitch": 42, "velocity": 80, "note_on_time": 5.215, "note_off_time": 5.402}, {"pitch": 60, "velocity": 80, "note_on_time": 5.402, "note_off_time": 5.604}, {"pitch": 42, "velocity": 80, "note_on_time": 5.403, "note_off_time": 5.604}, {"pitch": 60, "velocity": 80, "note_on_time": 5.604, "note_off_time": 5.793}, {"pitch": 42, "velocity": 80, "note_on_time": 5.605, "note_off_time": 5.793}, {"pitch": 60, "velocity": 80, "note_on_time": 5.793, "note_off_time": 5.995}, {"pitch": 42, "velocity": 80, "note_on_time": 5.794, "note_off_time": 5.995}, {"pitch": 64, "velocity": 80, "note_on_time": 5.995, "note_off_time": 6.196}, {"pitch": 42, "velocity": 80, "note_on_time": 5.995, "note_off_time": 6.196}, {"pitch": 62, "velocity": 80, "note_on_time": 6.196, "note_off_time": 6.398}, {"pitch": 42, "velocity": 80, "note_on_time": 6.196, "note_off_time": 6.398}, {"pitch": 42, "velocity": 80, "note_on_time": 6.398, "note_off_time": 6.588}, {"pitch": 62, "velocity": 80, "note_on_time": 6.588, "note_off_time": 6.79}, {"pitch": 42, "velocity": 80, "note_on_time": 6.589, "note_off_time": 6.79}, {"pitch": 62, "velocity": 80, "note_on_time": 6.79, "note_off_time": 6.992}, {"pitch": 42, "velocity": 80, "note_on_time": 6.79, "note_off_time": 6.992}, {"pitch": 62, "velocity": 80, "note_on_time": 6.992, "note_off_time": 7.194}, {"pitch": 42, "velocity": 80, "note_on_time": 6.992, "note_off_time": 7.194}]</notes><options name="Option List">((4, 4), [0.5, 0.25], 3, 8, &lt;NoteRangePerHand.THREE_NOTES: 4&gt;, &lt;NoteRangePerHand.ONE_NOTE: 2&gt;, False, True, False, '322')</options></target_notes><trials><trial trial_no="1" timestamp="2022_11_03-13_39_23"><notes name="Played Notes">[{"pitch": 60, "velocity": 56, "note_on_time": 0.873, "note_off_time": 0.952}, {"pitch": 62, "velocity": 55, "note_on_time": 1.587, "note_off_time": 1.725}, {"pitch": 64, "velocity": 47, "note_on_time": 1.796, "note_off_time": 1.931}, {"pitch": 64, "velocity": 20, "note_on_time": 6.261, "note_off_time": 6.405}]</notes><guidance name="Guidance Mode">None</guidance><error name="Error value">1.2337884</error></trial><trial trial_no="2" timestamp="2022_11_03-13_39_54"><notes name="Played Notes">[{"pitch": 62, "velocity": 71, "note_on_time": 0.824, "note_off_time": 0.938}, {"pitch": 64, "velocity": 51, "note_on_time": 1.023, "note_off_time": 1.153}, {"pitch": 62, "velocity": 32, "note_on_time": 1.198, "note_off_time": 1.342}, {"pitch": 62, "velocity": 56, "note_on_time": 1.594, "note_off_time": 1.651}, {"pitch": 64, "velocity": 70, "note_on_time": 1.676, "note_off_time": 1.906}, {"pitch": 62, "velocity": 66, "note_on_time": 1.967, "note_off_time": 2.19}, {"pitch": 62, "velocity": 75, "note_on_time": 2.384, "note_off_time": 2.488}, {"pitch": 62, "velocity": 63, "note_on_time": 2.614, "note_off_time": 2.718}, {"pitch": 62, "velocity": 64, "note_on_time": 2.823, "note_off_time": 2.918}, {"pitch": 62, "velocity": 70, "note_on_time": 3.016, "note_off_time": 3.129}, {"pitch": 62, "velocity": 76, "note_on_time": 3.214, "note_off_time": 3.319}, {"pitch": 60, "velocity": 48, "note_on_time": 3.42, "note_off_time": 3.526}, {"pitch": 62, "velocity": 48, "note_on_time": 3.623, "note_off_time": 3.731}, {"pitch": 64, "velocity": 61, "note_on_time": 3.73, "note_off_time": 3.928}, {"pitch": 62, "velocity": 72, "note_on_time": 3.901, "note_off_time": 4.262}, {"pitch": 64, "velocity": 32, "note_on_time": 4.379, "note_off_time": 4.416}, {"pitch": 62, "velocity": 69, "note_on_time": 4.415, "note_off_time": 4.569}, {"pitch": 60, "velocity": 68, "note_on_time": 4.565, "note_off_time": 4.685}, {"pitch": 62, "velocity": 26, "note_on_time": 4.779, "note_off_time": 4.901}, {"pitch": 60, "velocity": 67, "note_on_time": 5.45, "note_off_time": 5.597}, {"pitch": 64, "velocity": 58, "note_on_time": 5.65, "note_off_time": 5.786}, {"pitch": 64, "velocity": 31, "note_on_time": 5.845, "note_off_time": 5.965}, {"pitch": 60, "velocity": 6, "note_on_time": 6.08, "note_off_time": 6.219}, {"pitch": 64, "velocity": 51, "note_on_time": 6.667, "note_off_time": 6.789}, {"pitch": 60, "velocity": 31, "note_on_time": 6.879, "note_off_time": 7.002}]</notes><guidance name="Guidance Mode">None</guidance><error name="Error value">0.6384265999999998</error></trial><trial trial_no="3" timestamp="2022_11_03-13_40_12"><notes name="Played Notes">[{"pitch": 62, "velocity": 57, "note_on_time": 0.85, "note_off_time": 1.002}, {"pitch": 64, "velocity": 68, "note_on_time": 1.028, "note_off_time": 1.175}, {"pitch": 62, "velocity": 50, "note_on_time": 1.19, "note_off_time": 1.339}, {"pitch": 60, "velocity": 58, "note_on_time": 1.482, "note_off_time": 1.603}, {"pitch": 62, "velocity": 36, "note_on_time": 1.666, "note_off_time": 1.801}, {"pitch": 64, "velocity": 69, "note_on_time": 1.871, "note_off_time": 2.043}, {"pitch": 62, "velocity": 62, "note_on_time": 2.067, "note_off_time": 2.31}, {"pitch": 62, "velocity": 78, "note_on_time": 2.468, "note_off_time": 2.62}, {"pitch": 62, "velocity": 47, "note_on_time": 2.664, "note_off_time": 2.777}, {"pitch": 62, "velocity": 55, "note_on_time": 2.881, "note_off_time": 2.994}, {"pitch": 62, "velocity": 65, "note_on_time": 3.091, "note_off_time": 3.182}, {"pitch": 62, "velocity": 64, "note_on_time": 3.274, "note_off_time": 3.392}, {"pitch": 60, "velocity": 49, "note_on_time": 3.513, "note_off_time": 3.599}, {"pitch": 64, "velocity": 60, "note_on_time": 3.723, "note_off_time": 3.887}, {"pitch": 62, "velocity": 69, "note_on_time": 3.916, "note_off_time": 4.04}, {"pitch": 62, "velocity": 49, "note_on_time": 4.15, "note_off_time": 4.297}, {"pitch": 60, "velocity": 73, "note_on_time": 4.449, "note_off_time": 4.575}, {"pitch": 62, "velocity": 53, "note_on_time": 4.946, "note_off_time": 5.073}, {"pitch": 60, "velocity": 32, "note_on_time": 5.165, "note_off_time": 5.268}, {"pitch": 64, "velocity": 14, "note_on_time": 5.409, "note_off_time": 5.515}, {"pitch": 64, "velocity": 17, "note_on_time": 5.629, "note_off_time": 5.82}, {"pitch": 62, "velocity": 59, "note_on_time": 5.861, "note_off_time": 6.089}, {"pitch": 60, "velocity": 67, "note_on_time": 6.115, "note_off_time": 6.212}, {"pitch": 60, "velocity": 40, "note_on_time": 6.451, "note_off_time": 6.681}, {"pitch": 64, "velocity": 46, "note_on_time": 6.853, "note_off_time": 6.967}]</notes><guidance name="Guidance Mode">None</guidance><error name="Error value">0.6992667999999999</error></trial><trial trial_no="4" timestamp="2022_11_03-13_40_34"><notes name="Played Notes">[{"pitch": 62, "velocity": 67, "note_on_time": 0.792, "note_off_time": 0.929}, {"pitch": 64, "velocity": 62, "note_on_time": 0.982, "note_off_time": 1.108}, {"pitch": 62, "velocity": 53, "note_on_time": 1.18, "note_off_time": 1.315}, {"pitch": 60, "velocity": 68, "note_on_time": 1.413, "note_off_time": 1.534}, {"pitch": 64, "velocity": 66, "note_on_time": 1.613, "note_off_time": 1.867}, {"pitch": 62, "velocity": 57, "note_on_time": 1.971, "note_off_time": 2.272}, {"pitch": 62, "velocity": 61, "note_on_time": 2.366, "note_off_time": 2.502}, {"pitch": 62, "velocity": 70, "note_on_time": 2.564, "note_off_time": 2.676}, {"pitch": 62, "velocity": 68, "note_on_time": 2.772, "note_off_time": 2.879}, {"pitch": 62, "velocity": 69, "note_on_time": 2.973, "note_off_time": 3.071}, {"pitch": 62, "velocity": 71, "note_on_time": 3.166, "note_off_time": 3.307}, {"pitch": 60, "velocity": 60, "note_on_time": 3.396, "note_off_time": 3.497}, {"pitch": 64, "velocity": 49, "note_on_time": 3.609, "note_off_time": 3.746}, {"pitch": 62, "velocity": 61, "note_on_time": 3.807, "note_off_time": 3.925}, {"pitch": 62, "velocity": 64, "note_on_time": 4.005, "note_off_time": 4.152}, {"pitch": 60, "velocity": 19, "note_on_time": 4.296, "note_off_time": 4.42}, {"pitch": 64, "velocity": 14, "note_on_time": 5.079, "note_off_time": 5.205}, {"pitch": 64, "velocity": 72, "note_on_time": 5.27, "note_off_time": 5.379}, {"pitch": 62, "velocity": 43, "note_on_time": 5.427, "note_off_time": 5.571}, {"pitch": 62, "velocity": 39, "note_on_time": 5.711, "note_off_time": 5.779}, {"pitch": 60, "velocity": 60, "note_on_time": 5.807, "note_off_time": 6.024}, {"pitch": 62, "velocity": 71, "note_on_time": 6.787, "note_off_time": 6.872}, {"pitch": 62, "velocity": 67, "note_on_time": 6.968, "note_off_time": 7.065}]</notes><guidance name="Guidance Mode">None</guidance><error name="Error value">0.4712127999999999</error></trial><trial trial_no="5" timestamp="2022_11_03-13_40_56"><notes name="Played Notes">[{"pitch": 62, "velocity": 56, "note_on_time": 0.822, "note_off_time": 0.929}, {"pitch": 64, "velocity": 62, "note_on_time": 1.032, "note_off_time": 1.146}, {"pitch": 62, "velocity": 58, "note_on_time": 1.181, "note_off_time": 1.301}, {"pitch": 60, "velocity": 72, "note_on_time": 1.428, "note_off_time": 1.523}, {"pitch": 64, "velocity": 55, "note_on_time": 1.672, "note_off_time": 1.955}, {"pitch": 62, "velocity": 54, "note_on_time": 2.017, "note_off_time": 2.16}, {"pitch": 62, "velocity": 71, "note_on_time": 2.429, "note_off_time": 2.529}, {"pitch": 62, "velocity": 77, "note_on_time": 2.611, "note_off_time": 2.702}, {"pitch": 62, "velocity": 54, "note_on_time": 2.82, "note_off_time": 2.901}, {"pitch": 62, "velocity": 63, "note_on_time": 3.005, "note_off_time": 3.112}, {"pitch": 60, "velocity": 52, "note_on_time": 3.229, "note_off_time": 3.309}, {"pitch": 62, "velocity": 23, "note_on_time": 3.399, "note_off_time": 3.58}, {"pitch": 60, "velocity": 71, "note_on_time": 3.779, "note_off_time": 3.919}, {"pitch": 62, "velocity": 58, "note_on_time": 3.947, "note_off_time": 4.044}, {"pitch": 60, "velocity": 51, "note_on_time": 4.267, "note_off_time": 4.379}, {"pitch": 64, "velocity": 35, "note_on_time": 4.852, "note_off_time": 4.95}, {"pitch": 64, "velocity": 58, "note_on_time": 5.036, "note_off_time": 5.145}, {"pitch": 62, "velocity": 53, "note_on_time": 5.204, "note_off_time": 5.357}, {"pitch": 62, "velocity": 54, "note_on_time": 5.621, "note_off_time": 5.696}, {"pitch": 62, "velocity": 29, "note_on_time": 5.805, "note_off_time": 5.871}, {"pitch": 60, "velocity": 1, "note_on_time": 6.281, "note_off_time": 6.365}, {"pitch": 60, "velocity": 39, "note_on_time": 6.451, "note_off_time": 6.555}, {"pitch": 60, "velocity": 23, "note_on_time": 6.603, "note_off_time": 6.722}, {"pitch": 60, "velocity": 14, "note_on_time": 6.894, "note_off_time": 6.945}, {"pitch": 62, "velocity": 27, "note_on_time": 7.01, "note_off_time": 7.109}]</notes><guidance name="Guidance Mode">None</guidance><error name="Error value">0.4874002</error></trial></trials></MIDI>