<MIDI midiNo="2022_11_13-12_45_19"><target_notes><notes name="Note List">[{"pitch": 42, "velocity": 80, "note_on_time": 0.004, "note_off_time": 0.222}, {"pitch": 42, "velocity": 80, "note_on_time": 0.222, "note_off_time": 0.442}, {"pitch": 42, "velocity": 80, "note_on_time": 0.442, "note_off_time": 0.66}, {"pitch": 42, "velocity": 80, "note_on_time": 0.66, "note_off_time": 0.878}, {"pitch": 65, "velocity": 80, "note_on_time": 0.878, "note_off_time": 1.096}, {"pitch": 42, "velocity": 80, "note_on_time": 0.878, "note_off_time": 1.096}, {"pitch": 42, "velocity": 80, "note_on_time": 1.096, "note_off_time": 1.314}, {"pitch": 67, "velocity": 80, "note_on_time": 1.096, "note_off_time": 1.532}, {"pitch": 42, "velocity": 80, "note_on_time": 1.314, "note_off_time": 1.532}, {"pitch": 42, "velocity": 80, "note_on_time": 1.532, "note_off_time": 1.749}, {"pitch": 65, "velocity": 80, "note_on_time": 1.749, "note_off_time": 1.969}, {"pitch": 42, "velocity": 80, "note_on_time": 1.749, "note_off_time": 1.969}, {"pitch": 62, "velocity": 80, "note_on_time": 1.969, "note_off_time": 2.188}, {"pitch": 42, "velocity": 80, "note_on_time": 1.969, "note_off_time": 2.188}, {"pitch": 67, "velocity": 80, "note_on_time": 2.188, "note_off_time": 2.407}, {"pitch": 42, "velocity": 80, "note_on_time": 2.188, "note_off_time": 2.407}, {"pitch": 64, "velocity": 80, "note_on_time": 2.407, "note_off_time": 2.627}, {"pitch": 42, "velocity": 80, "note_on_time": 2.407, "note_off_time": 2.627}, {"pitch": 42, "velocity": 80, "note_on_time": 2.627, "note_off_time": 2.846}, {"pitch": 65, "velocity": 80, "note_on_time": 2.627, "note_off_time": 3.065}, {"pitch": 42, "velocity": 80, "note_on_time": 2.846, "note_off_time": 3.065}, {"pitch": 65, "velocity": 80, "note_on_time": 3.065, "note_off_time": 3.283}, {"pitch": 42, "velocity": 80, "note_on_time": 3.065, "note_off_time": 3.284}, {"pitch": 65, "velocity": 80, "note_on_time": 3.283, "note_off_time": 3.501}, {"pitch": 42, "velocity": 80, "note_on_time": 3.284, "note_off_time": 3.501}, {"pitch": 67, "velocity": 80, "note_on_time": 3.501, "note_off_time": 3.718}, {"pitch": 42, "velocity": 80, "note_on_time": 3.501, "note_off_time": 3.718}, {"pitch": 42, "velocity": 80, "note_on_time": 3.718, "note_off_time": 3.937}, {"pitch": 42, "velocity": 80, "note_on_time": 3.937, "note_off_time": 4.156}, {"pitch": 60, "velocity": 80, "note_on_time": 3.937, "note_off_time": 4.374}, {"pitch": 42, "velocity": 80, "note_on_time": 4.156, "note_off_time": 4.374}, {"pitch": 42, "velocity": 80, "note_on_time": 4.374, "note_off_time": 4.591}, {"pitch": 65, "velocity": 80, "note_on_time": 4.374, "note_off_time": 4.808}, {"pitch": 42, "velocity": 80, "note_on_time": 4.591, "note_off_time": 4.808}, {"pitch": 62, "velocity": 80, "note_on_time": 4.808, "note_off_time": 5.025}, {"pitch": 42, "velocity": 80, "note_on_time": 4.808, "note_off_time": 5.025}, {"pitch": 65, "velocity": 80, "note_on_time": 5.025, "note_off_time": 5.247}, {"pitch": 42, "velocity": 80, "note_on_time": 5.025, "note_off_time": 5.247}, {"pitch": 64, "velocity": 80, "note_on_time": 5.247, "note_off_time": 5.467}, {"pitch": 42, "velocity": 80, "note_on_time": 5.247, "note_off_time": 5.467}, {"pitch": 60, "velocity": 80, "note_on_time": 5.467, "note_off_time": 5.685}, {"pitch": 42, "velocity": 80, "note_on_time": 5.468, "note_off_time": 5.685}, {"pitch": 67, "velocity": 80, "note_on_time": 5.685, "note_off_time": 5.903}, {"pitch": 42, "velocity": 80, "note_on_time": 5.685, "note_off_time": 5.903}, {"pitch": 64, "velocity": 80, "note_on_time": 5.903, "note_off_time": 6.121}, {"pitch": 42, "velocity": 80, "note_on_time": 5.903, "note_off_time": 6.121}, {"pitch": 42, "velocity": 80, "note_on_time": 6.121, "note_off_time": 6.338}, {"pitch": 60, "velocity": 80, "note_on_time": 6.121, "note_off_time": 6.557}, {"pitch": 42, "velocity": 80, "note_on_time": 6.339, "note_off_time": 6.557}, {"pitch": 42, "velocity": 80, "note_on_time": 6.557, "note_off_time": 6.776}, {"pitch": 42, "velocity": 80, "note_on_time": 6.776, "note_off_time": 6.995}, {"pitch": 42, "velocity": 80, "note_on_time": 6.995, "note_off_time": 7.213}, {"pitch": 60, "velocity": 80, "note_on_time": 7.213, "note_off_time": 7.43}, {"pitch": 42, "velocity": 80, "note_on_time": 7.213, "note_off_time": 7.43}, {"pitch": 60, "velocity": 80, "note_on_time": 7.43, "note_off_time": 7.648}, {"pitch": 42, "velocity": 80, "note_on_time": 7.43, "note_off_time": 7.648}, {"pitch": 60, "velocity": 80, "note_on_time": 7.648, "note_off_time": 7.868}, {"pitch": 42, "velocity": 80, "note_on_time": 7.649, "note_off_time": 7.868}]</notes><options name="Option List">((4, 4), [0.5, 0.25], 3, 8, &lt;NoteRangePerHand.C_TO_G: 6&gt;, &lt;NoteRangePerHand.ONE_NOTE: 2&gt;, False, True, False, '281')</options></target_notes><trials><trial trial_no="1" timestamp="2022_11_13-12_45_10"><notes name="Played Notes">[{"pitch": 65, "velocity": 88, "note_on_time": 0.854, "note_off_time": 1.171}, {"pitch": 67, "velocity": 62, "note_on_time": 1.103, "note_off_time": 1.386}, {"pitch": 65, "velocity": 86, "note_on_time": 1.734, "note_off_time": 1.989}, {"pitch": 62, "velocity": 77, "note_on_time": 1.947, "note_off_time": 2.234}, {"pitch": 65, "velocity": 80, "note_on_time": 2.202, "note_off_time": 2.441}, {"pitch": 64, "velocity": 72, "note_on_time": 2.42, "note_off_time": 2.742}, {"pitch": 65, "velocity": 94, "note_on_time": 2.747, "note_off_time": 3.054}, {"pitch": 65, "velocity": 80, "note_on_time": 3.156, "note_off_time": 3.287}, {"pitch": 65, "velocity": 91, "note_on_time": 3.363, "note_off_time": 3.484}, {"pitch": 67, "velocity": 88, "note_on_time": 3.602, "note_off_time": 3.815}, {"pitch": 60, "velocity": 88, "note_on_time": 4.032, "note_off_time": 4.356}, {"pitch": 65, "velocity": 95, "note_on_time": 4.458, "note_off_time": 4.688}, {"pitch": 62, "velocity": 83, "note_on_time": 4.868, "note_off_time": 5.099}, {"pitch": 65, "velocity": 82, "note_on_time": 5.087, "note_off_time": 5.372}, {"pitch": 64, "velocity": 80, "note_on_time": 5.308, "note_off_time": 5.514}, {"pitch": 60, "velocity": 83, "note_on_time": 5.511, "note_off_time": 5.718}, {"pitch": 67, "velocity": 82, "note_on_time": 5.73, "note_off_time": 5.987}, {"pitch": 64, "velocity": 69, "note_on_time": 5.932, "note_off_time": 6.236}, {"pitch": 60, "velocity": 89, "note_on_time": 6.154, "note_off_time": 6.318}, {"pitch": 60, "velocity": 85, "note_on_time": 7.109, "note_off_time": 7.225}, {"pitch": 60, "velocity": 74, "note_on_time": 7.337, "note_off_time": 7.428}, {"pitch": 60, "velocity": 82, "note_on_time": 7.561, "note_off_time": 7.656}]</notes><guidance name="Guidance Mode">None</guidance><error name="Error value">0.07697973684210507</error></trial><trial trial_no="2" timestamp="2022_11_13-12_45_30"><notes name="Played Notes">[{"pitch": 65, "velocity": 86, "note_on_time": 0.917, "note_off_time": 1.21}, {"pitch": 67, "velocity": 91, "note_on_time": 1.154, "note_off_time": 1.422}, {"pitch": 65, "velocity": 84, "note_on_time": 1.847, "note_off_time": 2.075}, {"pitch": 62, "velocity": 79, "note_on_time": 2.071, "note_off_time": 2.508}, {"pitch": 65, "velocity": 82, "note_on_time": 2.472, "note_off_time": 2.741}, {"pitch": 64, "velocity": 51, "note_on_time": 2.733, "note_off_time": 2.974}, {"pitch": 65, "velocity": 86, "note_on_time": 2.993, "note_off_time": 3.302}, {"pitch": 65, "velocity": 90, "note_on_time": 3.425, "note_off_time": 3.545}, {"pitch": 65, "velocity": 80, "note_on_time": 3.64, "note_off_time": 3.773}, {"pitch": 67, "velocity": 91, "note_on_time": 3.889, "note_off_time": 4.157}, {"pitch": 60, "velocity": 92, "note_on_time": 4.356, "note_off_time": 4.743}, {"pitch": 65, "velocity": 94, "note_on_time": 4.801, "note_off_time": 5.247}, {"pitch": 62, "velocity": 79, "note_on_time": 5.247, "note_off_time": 5.501}, {"pitch": 65, "velocity": 82, "note_on_time": 5.477, "note_off_time": 5.766}, {"pitch": 64, "velocity": 79, "note_on_time": 5.708, "note_off_time": 5.915}, {"pitch": 60, "velocity": 79, "note_on_time": 5.919, "note_off_time": 6.192}, {"pitch": 67, "velocity": 79, "note_on_time": 6.136, "note_off_time": 6.443}, {"pitch": 64, "velocity": 72, "note_on_time": 6.359, "note_off_time": 6.752}, {"pitch": 60, "velocity": 84, "note_on_time": 6.597, "note_off_time": 6.817}, {"pitch": 60, "velocity": 82, "note_on_time": 7.393, "note_off_time": 7.502}, {"pitch": 60, "velocity": 80, "note_on_time": 7.619, "note_off_time": 7.712}]</notes><guidance name="Guidance Mode">None</guidance><error name="Error value">0.16095310526315798</error></trial><trial trial_no="3" timestamp="2022_11_13-12_45_56"><notes name="Played Notes">[{"pitch": 65, "velocity": 84, "note_on_time": 0.885, "note_off_time": 1.17}, {"pitch": 67, "velocity": 87, "note_on_time": 1.122, "note_off_time": 1.463}, {"pitch": 65, "velocity": 86, "note_on_time": 1.733, "note_off_time": 1.993}, {"pitch": 62, "velocity": 70, "note_on_time": 1.963, "note_off_time": 2.175}, {"pitch": 67, "velocity": 79, "note_on_time": 2.199, "note_off_time": 2.463}, {"pitch": 65, "velocity": 81, "note_on_time": 2.417, "note_off_time": 2.657}, {"pitch": 64, "velocity": 67, "note_on_time": 2.672, "note_off_time": 2.859}, {"pitch": 62, "velocity": 56, "note_on_time": 2.665, "note_off_time": 2.868}, {"pitch": 65, "velocity": 50, "note_on_time": 2.887, "note_off_time": 3.012}, {"pitch": 65, "velocity": 82, "note_on_time": 3.118, "note_off_time": 3.237}, {"pitch": 65, "velocity": 79, "note_on_time": 3.345, "note_off_time": 3.481}, {"pitch": 67, "velocity": 92, "note_on_time": 3.587, "note_off_time": 3.795}, {"pitch": 60, "velocity": 92, "note_on_time": 4.023, "note_off_time": 4.398}, {"pitch": 65, "velocity": 94, "note_on_time": 4.469, "note_off_time": 4.892}, {"pitch": 62, "velocity": 88, "note_on_time": 4.882, "note_off_time": 5.135}, {"pitch": 65, "velocity": 86, "note_on_time": 5.103, "note_off_time": 5.406}, {"pitch": 64, "velocity": 78, "note_on_time": 5.323, "note_off_time": 5.533}, {"pitch": 60, "velocity": 86, "note_on_time": 5.528, "note_off_time": 5.827}, {"pitch": 67, "velocity": 78, "note_on_time": 5.74, "note_off_time": 6.034}, {"pitch": 64, "velocity": 69, "note_on_time": 5.956, "note_off_time": 6.307}, {"pitch": 60, "velocity": 87, "note_on_time": 6.191, "note_off_time": 6.37}, {"pitch": 60, "velocity": 87, "note_on_time": 7.188, "note_off_time": 7.311}, {"pitch": 60, "velocity": 84, "note_on_time": 7.406, "note_off_time": 7.513}, {"pitch": 60, "velocity": 82, "note_on_time": 7.645, "note_off_time": 7.764}]</notes><guidance name="Guidance Mode">None</guidance><error name="Error value">0.589022684210526</error></trial></trials></MIDI>