<MIDI midiNo="2022_04_28-16_21_48"><target_notes><notes name="Note List">[{"pitch": 39, "velocity": 100, "note_on_time": 0.004, "note_off_time": 0.366}, {"pitch": 42, "velocity": 100, "note_on_time": 0.366, "note_off_time": 0.726}, {"pitch": 42, "velocity": 100, "note_on_time": 0.726, "note_off_time": 1.085}, {"pitch": 42, "velocity": 100, "note_on_time": 1.086, "note_off_time": 1.445}, {"pitch": 60, "velocity": 100, "note_on_time": 1.444, "note_off_time": 1.804}, {"pitch": 39, "velocity": 100, "note_on_time": 1.445, "note_off_time": 1.804}, {"pitch": 62, "velocity": 100, "note_on_time": 1.804, "note_off_time": 1.99}, {"pitch": 62, "velocity": 100, "note_on_time": 1.99, "note_off_time": 2.175}, {"pitch": 42, "velocity": 100, "note_on_time": 1.804, "note_off_time": 2.176}, {"pitch": 65, "velocity": 100, "note_on_time": 2.175, "note_off_time": 2.547}, {"pitch": 42, "velocity": 100, "note_on_time": 2.176, "note_off_time": 2.547}, {"pitch": 67, "velocity": 100, "note_on_time": 2.547, "note_off_time": 2.908}, {"pitch": 42, "velocity": 100, "note_on_time": 2.548, "note_off_time": 2.908}, {"pitch": 62, "velocity": 100, "note_on_time": 2.908, "note_off_time": 3.096}, {"pitch": 65, "velocity": 100, "note_on_time": 3.096, "note_off_time": 3.281}, {"pitch": 39, "velocity": 100, "note_on_time": 2.909, "note_off_time": 3.282}, {"pitch": 62, "velocity": 100, "note_on_time": 3.281, "note_off_time": 3.639}, {"pitch": 42, "velocity": 100, "note_on_time": 3.282, "note_off_time": 3.639}, {"pitch": 60, "velocity": 100, "note_on_time": 3.639, "note_off_time": 3.996}, {"pitch": 42, "velocity": 100, "note_on_time": 3.639, "note_off_time": 3.996}, {"pitch": 67, "velocity": 100, "note_on_time": 3.996, "note_off_time": 4.367}, {"pitch": 42, "velocity": 100, "note_on_time": 3.996, "note_off_time": 4.368}, {"pitch": 64, "velocity": 100, "note_on_time": 4.367, "note_off_time": 4.554}, {"pitch": 67, "velocity": 100, "note_on_time": 4.554, "note_off_time": 4.74}, {"pitch": 39, "velocity": 100, "note_on_time": 4.368, "note_off_time": 4.741}, {"pitch": 67, "velocity": 100, "note_on_time": 4.74, "note_off_time": 4.928}, {"pitch": 65, "velocity": 100, "note_on_time": 4.928, "note_off_time": 5.114}, {"pitch": 42, "velocity": 100, "note_on_time": 4.741, "note_off_time": 5.114}, {"pitch": 67, "velocity": 100, "note_on_time": 5.114, "note_off_time": 5.302}, {"pitch": 67, "velocity": 100, "note_on_time": 5.302, "note_off_time": 5.488}, {"pitch": 42, "velocity": 100, "note_on_time": 5.114, "note_off_time": 5.488}, {"pitch": 67, "velocity": 100, "note_on_time": 5.488, "note_off_time": 5.86}, {"pitch": 42, "velocity": 100, "note_on_time": 5.489, "note_off_time": 5.86}, {"pitch": 62, "velocity": 100, "note_on_time": 5.86, "note_off_time": 6.22}, {"pitch": 39, "velocity": 100, "note_on_time": 5.86, "note_off_time": 6.22}, {"pitch": 67, "velocity": 100, "note_on_time": 6.22, "note_off_time": 6.58}, {"pitch": 42, "velocity": 100, "note_on_time": 6.22, "note_off_time": 6.581}, {"pitch": 65, "velocity": 100, "note_on_time": 6.58, "note_off_time": 6.94}, {"pitch": 42, "velocity": 100, "note_on_time": 6.581, "note_off_time": 6.941}, {"pitch": 64, "velocity": 100, "note_on_time": 6.94, "note_off_time": 7.297}, {"pitch": 42, "velocity": 100, "note_on_time": 6.941, "note_off_time": 7.297}, {"pitch": 67, "velocity": 100, "note_on_time": 7.297, "note_off_time": 7.483}, {"pitch": 65, "velocity": 100, "note_on_time": 7.483, "note_off_time": 7.67}, {"pitch": 39, "velocity": 100, "note_on_time": 7.298, "note_off_time": 7.67}, {"pitch": 67, "velocity": 100, "note_on_time": 7.67, "note_off_time": 8.03}, {"pitch": 42, "velocity": 100, "note_on_time": 7.67, "note_off_time": 8.031}, {"pitch": 64, "velocity": 100, "note_on_time": 8.03, "note_off_time": 8.217}, {"pitch": 67, "velocity": 100, "note_on_time": 8.217, "note_off_time": 8.403}, {"pitch": 42, "velocity": 100, "note_on_time": 8.031, "note_off_time": 8.403}, {"pitch": 65, "velocity": 100, "note_on_time": 8.403, "note_off_time": 8.76}, {"pitch": 42, "velocity": 100, "note_on_time": 8.403, "note_off_time": 8.76}, {"pitch": 65, "velocity": 100, "note_on_time": 8.76, "note_off_time": 9.118}, {"pitch": 39, "velocity": 100, "note_on_time": 8.76, "note_off_time": 9.119}, {"pitch": 60, "velocity": 100, "note_on_time": 9.118, "note_off_time": 9.305}, {"pitch": 67, "velocity": 100, "note_on_time": 9.305, "note_off_time": 9.491}, {"pitch": 42, "velocity": 100, "note_on_time": 9.119, "note_off_time": 9.491}, {"pitch": 64, "velocity": 100, "note_on_time": 9.491, "note_off_time": 9.848}, {"pitch": 42, "velocity": 100, "note_on_time": 9.491, "note_off_time": 9.848}, {"pitch": 62, "velocity": 100, "note_on_time": 9.848, "note_off_time": 10.208}, {"pitch": 42, "velocity": 100, "note_on_time": 9.848, "note_off_time": 10.208}, {"pitch": 60, "velocity": 100, "note_on_time": 10.208, "note_off_time": 10.565}, {"pitch": 39, "velocity": 100, "note_on_time": 10.208, "note_off_time": 10.565}, {"pitch": 42, "velocity": 100, "note_on_time": 10.566, "note_off_time": 10.923}, {"pitch": 42, "velocity": 100, "note_on_time": 10.923, "note_off_time": 11.282}, {"pitch": 64, "velocity": 100, "note_on_time": 11.282, "note_off_time": 11.468}, {"pitch": 62, "velocity": 100, "note_on_time": 11.468, "note_off_time": 11.654}, {"pitch": 42, "velocity": 100, "note_on_time": 11.283, "note_off_time": 11.654}, {"pitch": 39, "velocity": 100, "note_on_time": 11.654, "note_off_time": 12.012}, {"pitch": 62, "velocity": 100, "note_on_time": 12.012, "note_off_time": 12.371}, {"pitch": 42, "velocity": 100, "note_on_time": 12.012, "note_off_time": 12.371}, {"pitch": 62, "velocity": 100, "note_on_time": 12.371, "note_off_time": 12.729}, {"pitch": 42, "velocity": 100, "note_on_time": 12.371, "note_off_time": 12.73}, {"pitch": 62, "velocity": 100, "note_on_time": 12.729, "note_off_time": 13.086}, {"pitch": 42, "velocity": 100, "note_on_time": 12.73, "note_off_time": 13.087}]</notes><options name="Option List">((4, 4), [0.5, 0.25, 0.125], 3, 8, &lt;NoteRangePerHand.C_TO_G: 6&gt;, &lt;NoteRangePerHand.ONE_NOTE: 2&gt;, False, True, True, '169')</options></target_notes><trials><trial trial_no="1" timestamp="2022_04_28-16_21_34"><notes name="Played Notes">[{"pitch": 60, "velocity": 68, "note_on_time": 1.424, "note_off_time": 1.869}, {"pitch": 62, "velocity": 57, "note_on_time": 1.839, "note_off_time": 1.925}, {"pitch": 62, "velocity": 64, "note_on_time": 2.025, "note_off_time": 2.22}, {"pitch": 65, "velocity": 66, "note_on_time": 2.223, "note_off_time": 2.553}, {"pitch": 67, "velocity": 68, "note_on_time": 2.551, "note_off_time": 2.917}, {"pitch": 62, "velocity": 61, "note_on_time": 2.914, "note_off_time": 3.118}, {"pitch": 65, "velocity": 62, "note_on_time": 3.109, "note_off_time": 3.338}, {"pitch": 62, "velocity": 65, "note_on_time": 3.308, "note_off_time": 3.659}, {"pitch": 60, "velocity": 60, "note_on_time": 3.658, "note_off_time": 4.036}, {"pitch": 67, "velocity": 62, "note_on_time": 4.019, "note_off_time": 4.368}, {"pitch": 64, "velocity": 66, "note_on_time": 4.378, "note_off_time": 4.599}, {"pitch": 67, "velocity": 63, "note_on_time": 4.562, "note_off_time": 4.666}, {"pitch": 67, "velocity": 68, "note_on_time": 4.753, "note_off_time": 4.923}, {"pitch": 65, "velocity": 67, "note_on_time": 4.904, "note_off_time": 5.043}, {"pitch": 67, "velocity": 72, "note_on_time": 5.115, "note_off_time": 5.231}, {"pitch": 67, "velocity": 73, "note_on_time": 5.314, "note_off_time": 5.421}, {"pitch": 67, "velocity": 78, "note_on_time": 5.502, "note_off_time": 5.841}, {"pitch": 62, "velocity": 66, "note_on_time": 5.866, "note_off_time": 6.244}, {"pitch": 67, "velocity": 62, "note_on_time": 6.238, "note_off_time": 6.583}, {"pitch": 65, "velocity": 57, "note_on_time": 6.594, "note_off_time": 6.984}, {"pitch": 64, "velocity": 64, "note_on_time": 6.962, "note_off_time": 7.298}, {"pitch": 67, "velocity": 62, "note_on_time": 7.297, "note_off_time": 7.478}, {"pitch": 65, "velocity": 57, "note_on_time": 7.493, "note_off_time": 7.697}, {"pitch": 67, "velocity": 73, "note_on_time": 7.685, "note_off_time": 8.018}, {"pitch": 64, "velocity": 59, "note_on_time": 8.03, "note_off_time": 8.201}, {"pitch": 67, "velocity": 49, "note_on_time": 8.213, "note_off_time": 8.382}, {"pitch": 65, "velocity": 60, "note_on_time": 8.408, "note_off_time": 8.641}, {"pitch": 65, "velocity": 54, "note_on_time": 8.764, "note_off_time": 9.151}, {"pitch": 60, "velocity": 64, "note_on_time": 9.137, "note_off_time": 9.313}, {"pitch": 67, "velocity": 60, "note_on_time": 9.313, "note_off_time": 9.525}, {"pitch": 64, "velocity": 60, "note_on_time": 9.524, "note_off_time": 9.877}, {"pitch": 62, "velocity": 52, "note_on_time": 9.882, "note_off_time": 10.214}, {"pitch": 60, "velocity": 64, "note_on_time": 10.234, "note_off_time": 10.727}, {"pitch": 64, "velocity": 65, "note_on_time": 11.634, "note_off_time": 11.818}, {"pitch": 62, "velocity": 61, "note_on_time": 11.818, "note_off_time": 12.008}, {"pitch": 62, "velocity": 57, "note_on_time": 12.719, "note_off_time": 12.973}]</notes><guidance name="Guidance Mode">None</guidance><error name="Error value">0.3874893698412688</error></trial><trial trial_no="2" timestamp="2022_04_28-16_26_33"><notes name="Played Notes">[{"pitch": 60, "velocity": 68, "note_on_time": 1.426, "note_off_time": 1.857}, {"pitch": 62, "velocity": 43, "note_on_time": 1.841, "note_off_time": 1.9}, {"pitch": 62, "velocity": 41, "note_on_time": 2.013, "note_off_time": 2.246}, {"pitch": 65, "velocity": 64, "note_on_time": 2.244, "note_off_time": 2.587}, {"pitch": 67, "velocity": 70, "note_on_time": 2.566, "note_off_time": 2.921}, {"pitch": 62, "velocity": 53, "note_on_time": 2.932, "note_off_time": 3.129}, {"pitch": 65, "velocity": 60, "note_on_time": 3.118, "note_off_time": 3.325}, {"pitch": 62, "velocity": 58, "note_on_time": 3.301, "note_off_time": 3.669}, {"pitch": 60, "velocity": 56, "note_on_time": 3.65, "note_off_time": 4.034}, {"pitch": 67, "velocity": 58, "note_on_time": 4.019, "note_off_time": 4.36}, {"pitch": 64, "velocity": 46, "note_on_time": 4.391, "note_off_time": 4.595}, {"pitch": 67, "velocity": 61, "note_on_time": 4.56, "note_off_time": 4.648}, {"pitch": 67, "velocity": 67, "note_on_time": 4.735, "note_off_time": 4.895}, {"pitch": 65, "velocity": 56, "note_on_time": 4.919, "note_off_time": 5.035}, {"pitch": 67, "velocity": 63, "note_on_time": 5.102, "note_off_time": 5.387}, {"pitch": 67, "velocity": 64, "note_on_time": 5.467, "note_off_time": 5.787}, {"pitch": 65, "velocity": 43, "note_on_time": 5.865, "note_off_time": 5.929}, {"pitch": 62, "velocity": 37, "note_on_time": 5.862, "note_off_time": 6.23}, {"pitch": 67, "velocity": 67, "note_on_time": 6.172, "note_off_time": 6.487}, {"pitch": 65, "velocity": 51, "note_on_time": 6.547, "note_off_time": 6.957}, {"pitch": 64, "velocity": 64, "note_on_time": 6.904, "note_off_time": 7.214}, {"pitch": 67, "velocity": 57, "note_on_time": 7.264, "note_off_time": 7.439}, {"pitch": 65, "velocity": 39, "note_on_time": 7.46, "note_off_time": 7.647}, {"pitch": 67, "velocity": 69, "note_on_time": 7.633, "note_off_time": 7.961}, {"pitch": 64, "velocity": 59, "note_on_time": 7.988, "note_off_time": 8.181}, {"pitch": 67, "velocity": 58, "note_on_time": 8.171, "note_off_time": 8.339}, {"pitch": 65, "velocity": 60, "note_on_time": 8.376, "note_off_time": 8.65}, {"pitch": 65, "velocity": 49, "note_on_time": 8.724, "note_off_time": 9.094}, {"pitch": 60, "velocity": 50, "note_on_time": 9.102, "note_off_time": 9.274}, {"pitch": 67, "velocity": 53, "note_on_time": 9.274, "note_off_time": 9.485}, {"pitch": 64, "velocity": 59, "note_on_time": 9.463, "note_off_time": 9.814}, {"pitch": 62, "velocity": 52, "note_on_time": 9.825, "note_off_time": 10.15}, {"pitch": 60, "velocity": 67, "note_on_time": 10.182, "note_off_time": 10.688}, {"pitch": 64, "velocity": 68, "note_on_time": 11.231, "note_off_time": 11.44}, {"pitch": 62, "velocity": 62, "note_on_time": 11.407, "note_off_time": 11.543}, {"pitch": 62, "velocity": 72, "note_on_time": 12.003, "note_off_time": 12.157}, {"pitch": 62, "velocity": 75, "note_on_time": 12.346, "note_off_time": 12.487}, {"pitch": 62, "velocity": 79, "note_on_time": 12.706, "note_off_time": 12.918}]</notes><guidance name="Guidance Mode">None</guidance><error name="Error value">0.12836893253968248</error></trial><trial trial_no="3" timestamp="2022_04_28-16_27_09"><notes name="Played Notes">[{"pitch": 60, "velocity": 60, "note_on_time": 1.488, "note_off_time": 1.842}, {"pitch": 62, "velocity": 57, "note_on_time": 1.833, "note_off_time": 1.903}, {"pitch": 62, "velocity": 49, "note_on_time": 2.023, "note_off_time": 2.182}, {"pitch": 65, "velocity": 67, "note_on_time": 2.217, "note_off_time": 2.57}, {"pitch": 67, "velocity": 80, "note_on_time": 2.55, "note_off_time": 2.851}, {"pitch": 62, "velocity": 63, "note_on_time": 2.91, "note_off_time": 3.105}, {"pitch": 65, "velocity": 69, "note_on_time": 3.102, "note_off_time": 3.282}, {"pitch": 62, "velocity": 59, "note_on_time": 3.278, "note_off_time": 3.62}, {"pitch": 60, "velocity": 70, "note_on_time": 3.634, "note_off_time": 4.044}, {"pitch": 67, "velocity": 69, "note_on_time": 4.007, "note_off_time": 4.347}, {"pitch": 64, "velocity": 62, "note_on_time": 4.369, "note_off_time": 4.591}, {"pitch": 67, "velocity": 67, "note_on_time": 4.553, "note_off_time": 4.673}, {"pitch": 67, "velocity": 74, "note_on_time": 4.756, "note_off_time": 4.919}, {"pitch": 65, "velocity": 58, "note_on_time": 4.938, "note_off_time": 5.065}, {"pitch": 67, "velocity": 77, "note_on_time": 5.122, "note_off_time": 5.235}, {"pitch": 67, "velocity": 75, "note_on_time": 5.312, "note_off_time": 5.435}, {"pitch": 67, "velocity": 67, "note_on_time": 5.498, "note_off_time": 5.813}, {"pitch": 62, "velocity": 67, "note_on_time": 5.854, "note_off_time": 6.225}, {"pitch": 67, "velocity": 63, "note_on_time": 6.217, "note_off_time": 6.561}, {"pitch": 65, "velocity": 52, "note_on_time": 6.588, "note_off_time": 6.934}, {"pitch": 64, "velocity": 55, "note_on_time": 6.942, "note_off_time": 7.252}, {"pitch": 67, "velocity": 57, "note_on_time": 7.272, "note_off_time": 7.444}, {"pitch": 65, "velocity": 58, "note_on_time": 7.455, "note_off_time": 7.657}, {"pitch": 67, "velocity": 77, "note_on_time": 7.66, "note_off_time": 7.994}, {"pitch": 64, "velocity": 56, "note_on_time": 8.009, "note_off_time": 8.202}, {"pitch": 67, "velocity": 58, "note_on_time": 8.186, "note_off_time": 8.356}, {"pitch": 65, "velocity": 66, "note_on_time": 8.395, "note_off_time": 8.647}, {"pitch": 65, "velocity": 57, "note_on_time": 8.747, "note_off_time": 9.091}, {"pitch": 60, "velocity": 64, "note_on_time": 9.133, "note_off_time": 9.312}, {"pitch": 67, "velocity": 66, "note_on_time": 9.306, "note_off_time": 9.527}, {"pitch": 64, "velocity": 64, "note_on_time": 9.505, "note_off_time": 9.836}, {"pitch": 62, "velocity": 57, "note_on_time": 9.863, "note_off_time": 10.187}, {"pitch": 60, "velocity": 69, "note_on_time": 10.219, "note_off_time": 10.618}, {"pitch": 64, "velocity": 67, "note_on_time": 11.288, "note_off_time": 11.491}, {"pitch": 62, "velocity": 55, "note_on_time": 11.479, "note_off_time": 11.698}, {"pitch": 62, "velocity": 65, "note_on_time": 12.042, "note_off_time": 12.231}, {"pitch": 62, "velocity": 66, "note_on_time": 12.378, "note_off_time": 12.592}, {"pitch": 62, "velocity": 69, "note_on_time": 12.747, "note_off_time": 13.001}]</notes><guidance name="Guidance Mode">None</guidance><error name="Error value">0.054209201587301775</error></trial><trial trial_no="4" timestamp="2022_04_28-16_27_39"><notes name="Played Notes">[{"pitch": 60, "velocity": 53, "note_on_time": 1.439, "note_off_time": 1.795}, {"pitch": 62, "velocity": 49, "note_on_time": 1.803, "note_off_time": 1.872}, {"pitch": 62, "velocity": 45, "note_on_time": 1.984, "note_off_time": 2.13}, {"pitch": 65, "velocity": 60, "note_on_time": 2.184, "note_off_time": 2.535}, {"pitch": 67, "velocity": 72, "note_on_time": 2.53, "note_off_time": 2.845}, {"pitch": 62, "velocity": 54, "note_on_time": 2.909, "note_off_time": 3.081}, {"pitch": 65, "velocity": 62, "note_on_time": 3.091, "note_off_time": 3.319}, {"pitch": 62, "velocity": 59, "note_on_time": 3.277, "note_off_time": 3.579}, {"pitch": 60, "velocity": 55, "note_on_time": 3.621, "note_off_time": 4.024}, {"pitch": 67, "velocity": 63, "note_on_time": 3.998, "note_off_time": 4.337}, {"pitch": 64, "velocity": 54, "note_on_time": 4.364, "note_off_time": 4.506}, {"pitch": 67, "velocity": 64, "note_on_time": 4.535, "note_off_time": 4.635}, {"pitch": 67, "velocity": 69, "note_on_time": 4.722, "note_off_time": 4.839}, {"pitch": 65, "velocity": 64, "note_on_time": 4.883, "note_off_time": 5.017}, {"pitch": 67, "velocity": 72, "note_on_time": 5.087, "note_off_time": 5.704}, {"pitch": 62, "velocity": 59, "note_on_time": 5.805, "note_off_time": 6.19}, {"pitch": 67, "velocity": 61, "note_on_time": 6.179, "note_off_time": 6.53}, {"pitch": 65, "velocity": 54, "note_on_time": 6.561, "note_off_time": 6.938}, {"pitch": 64, "velocity": 59, "note_on_time": 6.928, "note_off_time": 7.241}, {"pitch": 67, "velocity": 57, "note_on_time": 7.258, "note_off_time": 7.422}, {"pitch": 65, "velocity": 44, "note_on_time": 7.456, "note_off_time": 7.638}, {"pitch": 67, "velocity": 65, "note_on_time": 7.662, "note_off_time": 7.98}, {"pitch": 64, "velocity": 45, "note_on_time": 8.01, "note_off_time": 8.169}, {"pitch": 67, "velocity": 54, "note_on_time": 8.186, "note_off_time": 8.358}, {"pitch": 65, "velocity": 54, "note_on_time": 8.394, "note_off_time": 8.635}, {"pitch": 65, "velocity": 46, "note_on_time": 8.747, "note_off_time": 9.087}, {"pitch": 60, "velocity": 36, "note_on_time": 9.1, "note_off_time": 9.263}, {"pitch": 67, "velocity": 54, "note_on_time": 9.271, "note_off_time": 9.481}, {"pitch": 64, "velocity": 56, "note_on_time": 9.482, "note_off_time": 9.825}, {"pitch": 62, "velocity": 48, "note_on_time": 9.849, "note_off_time": 10.177}, {"pitch": 60, "velocity": 52, "note_on_time": 10.211, "note_off_time": 10.659}, {"pitch": 64, "velocity": 67, "note_on_time": 11.305, "note_off_time": 11.471}, {"pitch": 62, "velocity": 54, "note_on_time": 11.481, "note_off_time": 11.682}, {"pitch": 62, "velocity": 53, "note_on_time": 12.045, "note_off_time": 12.259}, {"pitch": 62, "velocity": 58, "note_on_time": 12.381, "note_off_time": 12.602}, {"pitch": 62, "velocity": 63, "note_on_time": 12.745, "note_off_time": 13.005}]</notes><guidance name="Guidance Mode">None</guidance><error name="Error value">0.16780663293650777</error></trial><trial trial_no="5" timestamp="2022_04_28-16_28_10"><notes name="Played Notes">[{"pitch": 60, "velocity": 64, "note_on_time": 1.446, "note_off_time": 1.844}, {"pitch": 62, "velocity": 46, "note_on_time": 1.825, "note_off_time": 1.888}, {"pitch": 62, "velocity": 39, "note_on_time": 2.002, "note_off_time": 2.205}, {"pitch": 65, "velocity": 64, "note_on_time": 2.219, "note_off_time": 2.574}, {"pitch": 67, "velocity": 66, "note_on_time": 2.551, "note_off_time": 2.906}, {"pitch": 62, "velocity": 49, "note_on_time": 2.925, "note_off_time": 3.093}, {"pitch": 65, "velocity": 58, "note_on_time": 3.103, "note_off_time": 3.302}, {"pitch": 62, "velocity": 58, "note_on_time": 3.292, "note_off_time": 3.625}, {"pitch": 60, "velocity": 62, "note_on_time": 3.652, "note_off_time": 4.042}, {"pitch": 67, "velocity": 56, "note_on_time": 4.026, "note_off_time": 4.366}, {"pitch": 64, "velocity": 52, "note_on_time": 4.388, "note_off_time": 4.562}, {"pitch": 67, "velocity": 60, "note_on_time": 4.551, "note_off_time": 4.652}, {"pitch": 67, "velocity": 67, "note_on_time": 4.744, "note_off_time": 4.868}, {"pitch": 65, "velocity": 53, "note_on_time": 4.906, "note_off_time": 5.048}, {"pitch": 67, "velocity": 67, "note_on_time": 5.109, "note_off_time": 5.213}, {"pitch": 67, "velocity": 70, "note_on_time": 5.298, "note_off_time": 5.408}, {"pitch": 67, "velocity": 63, "note_on_time": 5.481, "note_off_time": 5.784}, {"pitch": 62, "velocity": 62, "note_on_time": 5.852, "note_off_time": 6.218}, {"pitch": 67, "velocity": 69, "note_on_time": 6.216, "note_off_time": 6.521}, {"pitch": 65, "velocity": 64, "note_on_time": 6.569, "note_off_time": 6.92}, {"pitch": 64, "velocity": 62, "note_on_time": 6.957, "note_off_time": 7.295}, {"pitch": 67, "velocity": 62, "note_on_time": 7.32, "note_off_time": 7.457}, {"pitch": 65, "velocity": 54, "note_on_time": 7.491, "note_off_time": 7.687}, {"pitch": 67, "velocity": 70, "note_on_time": 7.697, "note_off_time": 8.03}, {"pitch": 64, "velocity": 56, "note_on_time": 8.059, "note_off_time": 8.222}, {"pitch": 67, "velocity": 60, "note_on_time": 8.24, "note_off_time": 8.422}, {"pitch": 65, "velocity": 59, "note_on_time": 8.443, "note_off_time": 8.667}, {"pitch": 65, "velocity": 49, "note_on_time": 8.78, "note_off_time": 9.133}, {"pitch": 60, "velocity": 49, "note_on_time": 9.135, "note_off_time": 9.321}, {"pitch": 67, "velocity": 56, "note_on_time": 9.317, "note_off_time": 9.517}, {"pitch": 64, "velocity": 61, "note_on_time": 9.514, "note_off_time": 9.86}, {"pitch": 62, "velocity": 55, "note_on_time": 9.888, "note_off_time": 10.218}, {"pitch": 60, "velocity": 57, "note_on_time": 10.259, "note_off_time": 10.661}, {"pitch": 64, "velocity": 66, "note_on_time": 11.353, "note_off_time": 11.543}, {"pitch": 62, "velocity": 59, "note_on_time": 11.542, "note_off_time": 11.707}, {"pitch": 62, "velocity": 63, "note_on_time": 12.074, "note_off_time": 12.274}, {"pitch": 62, "velocity": 66, "note_on_time": 12.429, "note_off_time": 12.621}, {"pitch": 62, "velocity": 77, "note_on_time": 12.783, "note_off_time": 13.0}]</notes><guidance name="Guidance Mode">None</guidance><error name="Error value">0.0573664142857144</error></trial><trial trial_no="6" timestamp="2022_04_28-16_28_34"><notes name="Played Notes">[{"pitch": 60, "velocity": 55, "note_on_time": 1.469, "note_off_time": 1.768}, {"pitch": 62, "velocity": 48, "note_on_time": 1.799, "note_off_time": 1.871}, {"pitch": 62, "velocity": 41, "note_on_time": 1.981, "note_off_time": 2.143}, {"pitch": 65, "velocity": 65, "note_on_time": 2.168, "note_off_time": 2.515}, {"pitch": 67, "velocity": 61, "note_on_time": 2.519, "note_off_time": 2.797}, {"pitch": 62, "velocity": 51, "note_on_time": 2.883, "note_off_time": 3.047}, {"pitch": 65, "velocity": 55, "note_on_time": 3.058, "note_off_time": 3.229}, {"pitch": 62, "velocity": 49, "note_on_time": 3.249, "note_off_time": 3.582}, {"pitch": 60, "velocity": 51, "note_on_time": 3.604, "note_off_time": 3.983}, {"pitch": 67, "velocity": 54, "note_on_time": 3.992, "note_off_time": 4.321}, {"pitch": 64, "velocity": 39, "note_on_time": 4.351, "note_off_time": 4.528}, {"pitch": 67, "velocity": 54, "note_on_time": 4.516, "note_off_time": 4.609}, {"pitch": 67, "velocity": 53, "note_on_time": 4.697, "note_off_time": 4.845}, {"pitch": 65, "velocity": 52, "note_on_time": 4.875, "note_off_time": 5.011}, {"pitch": 67, "velocity": 57, "note_on_time": 5.072, "note_off_time": 5.163}, {"pitch": 67, "velocity": 67, "note_on_time": 5.256, "note_off_time": 5.347}, {"pitch": 67, "velocity": 69, "note_on_time": 5.443, "note_off_time": 5.749}, {"pitch": 62, "velocity": 62, "note_on_time": 5.797, "note_off_time": 6.183}, {"pitch": 67, "velocity": 63, "note_on_time": 6.175, "note_off_time": 6.496}, {"pitch": 65, "velocity": 56, "note_on_time": 6.54, "note_off_time": 6.902}, {"pitch": 64, "velocity": 56, "note_on_time": 6.895, "note_off_time": 7.211}, {"pitch": 67, "velocity": 55, "note_on_time": 7.231, "note_off_time": 7.382}, {"pitch": 65, "velocity": 50, "note_on_time": 7.406, "note_off_time": 7.596}, {"pitch": 67, "velocity": 62, "note_on_time": 7.605, "note_off_time": 7.947}, {"pitch": 64, "velocity": 46, "note_on_time": 7.99, "note_off_time": 8.129}, {"pitch": 67, "velocity": 49, "note_on_time": 8.16, "note_off_time": 8.357}, {"pitch": 65, "velocity": 53, "note_on_time": 8.367, "note_off_time": 8.6}, {"pitch": 65, "velocity": 49, "note_on_time": 8.707, "note_off_time": 9.127}, {"pitch": 60, "velocity": 46, "note_on_time": 9.089, "note_off_time": 9.259}, {"pitch": 67, "velocity": 54, "note_on_time": 9.269, "note_off_time": 9.472}, {"pitch": 64, "velocity": 52, "note_on_time": 9.463, "note_off_time": 9.815}, {"pitch": 62, "velocity": 45, "note_on_time": 9.842, "note_off_time": 10.147}, {"pitch": 60, "velocity": 54, "note_on_time": 10.171, "note_off_time": 10.522}, {"pitch": 64, "velocity": 56, "note_on_time": 11.253, "note_off_time": 11.426}, {"pitch": 62, "velocity": 44, "note_on_time": 11.447, "note_off_time": 11.644}, {"pitch": 62, "velocity": 42, "note_on_time": 12.027, "note_off_time": 12.212}, {"pitch": 62, "velocity": 49, "note_on_time": 12.357, "note_off_time": 12.589}, {"pitch": 62, "velocity": 56, "note_on_time": 12.73, "note_off_time": 12.982}]</notes><guidance name="Guidance Mode">None</guidance><error name="Error value">0.061153856349206635</error></trial><trial trial_no="7" timestamp="2022_04_28-16_28_55"><notes name="Played Notes">[{"pitch": 60, "velocity": 59, "note_on_time": 1.4, "note_off_time": 1.787}, {"pitch": 62, "velocity": 54, "note_on_time": 1.781, "note_off_time": 1.844}, {"pitch": 62, "velocity": 50, "note_on_time": 1.954, "note_off_time": 2.105}, {"pitch": 65, "velocity": 51, "note_on_time": 2.154, "note_off_time": 2.496}, {"pitch": 67, "velocity": 62, "note_on_time": 2.497, "note_off_time": 2.846}, {"pitch": 62, "velocity": 36, "note_on_time": 2.897, "note_off_time": 3.053}, {"pitch": 65, "velocity": 49, "note_on_time": 3.072, "note_off_time": 3.276}, {"pitch": 62, "velocity": 51, "note_on_time": 3.261, "note_off_time": 3.601}, {"pitch": 60, "velocity": 58, "note_on_time": 3.628, "note_off_time": 3.995}, {"pitch": 67, "velocity": 57, "note_on_time": 3.989, "note_off_time": 4.328}, {"pitch": 64, "velocity": 49, "note_on_time": 4.361, "note_off_time": 4.544}, {"pitch": 67, "velocity": 59, "note_on_time": 4.543, "note_off_time": 4.645}, {"pitch": 67, "velocity": 70, "note_on_time": 4.733, "note_off_time": 4.863}, {"pitch": 65, "velocity": 50, "note_on_time": 4.904, "note_off_time": 5.043}, {"pitch": 67, "velocity": 53, "note_on_time": 5.105, "note_off_time": 5.195}, {"pitch": 67, "velocity": 61, "note_on_time": 5.283, "note_off_time": 5.378}, {"pitch": 67, "velocity": 64, "note_on_time": 5.474, "note_off_time": 5.777}, {"pitch": 62, "velocity": 51, "note_on_time": 5.837, "note_off_time": 6.185}, {"pitch": 67, "velocity": 60, "note_on_time": 6.183, "note_off_time": 6.53}, {"pitch": 65, "velocity": 55, "note_on_time": 6.543, "note_off_time": 6.892}, {"pitch": 64, "velocity": 53, "note_on_time": 6.895, "note_off_time": 7.212}, {"pitch": 67, "velocity": 51, "note_on_time": 7.24, "note_off_time": 7.373}, {"pitch": 65, "velocity": 46, "note_on_time": 7.407, "note_off_time": 7.64}, {"pitch": 67, "velocity": 64, "note_on_time": 7.627, "note_off_time": 7.969}, {"pitch": 64, "velocity": 49, "note_on_time": 8.0, "note_off_time": 8.181}, {"pitch": 67, "velocity": 55, "note_on_time": 8.18, "note_off_time": 8.353}, {"pitch": 65, "velocity": 47, "note_on_time": 8.394, "note_off_time": 8.617}, {"pitch": 65, "velocity": 46, "note_on_time": 8.742, "note_off_time": 9.139}, {"pitch": 60, "velocity": 45, "note_on_time": 9.118, "note_off_time": 9.289}, {"pitch": 67, "velocity": 59, "note_on_time": 9.282, "note_off_time": 9.478}, {"pitch": 64, "velocity": 57, "note_on_time": 9.485, "note_off_time": 9.813}, {"pitch": 62, "velocity": 49, "note_on_time": 9.845, "note_off_time": 10.181}, {"pitch": 60, "velocity": 57, "note_on_time": 10.221, "note_off_time": 10.605}, {"pitch": 64, "velocity": 64, "note_on_time": 11.273, "note_off_time": 11.44}, {"pitch": 62, "velocity": 50, "note_on_time": 11.448, "note_off_time": 11.725}, {"pitch": 62, "velocity": 58, "note_on_time": 12.019, "note_off_time": 12.237}, {"pitch": 62, "velocity": 49, "note_on_time": 12.366, "note_off_time": 12.599}, {"pitch": 62, "velocity": 64, "note_on_time": 12.727, "note_off_time": 13.026}]</notes><guidance name="Guidance Mode">None</guidance><error name="Error value">0.058118188095237916</error></trial></trials></MIDI>