<MIDI midiNo="2022_12_22-10_21_18"><target_notes><notes name="Note List">[{"pitch": 42, "velocity": 80, "note_on_time": 0.005, "note_off_time": 0.758}, {"pitch": 42, "velocity": 80, "note_on_time": 0.759, "note_off_time": 1.52}, {"pitch": 42, "velocity": 80, "note_on_time": 1.521, "note_off_time": 2.282}, {"pitch": 42, "velocity": 80, "note_on_time": 2.283, "note_off_time": 3.046}, {"pitch": 62, "velocity": 80, "note_on_time": 3.046, "note_off_time": 3.804}, {"pitch": 42, "velocity": 80, "note_on_time": 3.046, "note_off_time": 3.804}, {"pitch": 60, "velocity": 80, "note_on_time": 3.804, "note_off_time": 4.564}, {"pitch": 42, "velocity": 80, "note_on_time": 3.804, "note_off_time": 4.564}, {"pitch": 62, "velocity": 80, "note_on_time": 4.564, "note_off_time": 5.326}, {"pitch": 42, "velocity": 80, "note_on_time": 4.565, "note_off_time": 5.327}, {"pitch": 62, "velocity": 80, "note_on_time": 5.326, "note_off_time": 6.088}, {"pitch": 42, "velocity": 80, "note_on_time": 5.327, "note_off_time": 6.088}, {"pitch": 42, "velocity": 80, "note_on_time": 6.089, "note_off_time": 6.852}, {"pitch": 62, "velocity": 80, "note_on_time": 6.088, "note_off_time": 7.613}, {"pitch": 42, "velocity": 80, "note_on_time": 6.853, "note_off_time": 7.613}, {"pitch": 42, "velocity": 80, "note_on_time": 7.613, "note_off_time": 8.376}, {"pitch": 60, "velocity": 80, "note_on_time": 7.613, "note_off_time": 9.136}, {"pitch": 42, "velocity": 80, "note_on_time": 8.376, "note_off_time": 9.136}, {"pitch": 60, "velocity": 80, "note_on_time": 9.136, "note_off_time": 9.897}, {"pitch": 42, "velocity": 80, "note_on_time": 9.136, "note_off_time": 9.897}, {"pitch": 62, "velocity": 80, "note_on_time": 9.897, "note_off_time": 10.66}, {"pitch": 42, "velocity": 80, "note_on_time": 9.897, "note_off_time": 10.66}, {"pitch": 60, "velocity": 80, "note_on_time": 10.66, "note_off_time": 11.423}, {"pitch": 42, "velocity": 80, "note_on_time": 10.66, "note_off_time": 11.423}, {"pitch": 62, "velocity": 80, "note_on_time": 11.423, "note_off_time": 12.187}, {"pitch": 42, "velocity": 80, "note_on_time": 11.424, "note_off_time": 12.188}, {"pitch": 62, "velocity": 80, "note_on_time": 12.187, "note_off_time": 12.95}, {"pitch": 42, "velocity": 80, "note_on_time": 12.188, "note_off_time": 12.951}, {"pitch": 60, "velocity": 80, "note_on_time": 12.95, "note_off_time": 13.713}, {"pitch": 42, "velocity": 80, "note_on_time": 12.951, "note_off_time": 13.713}, {"pitch": 60, "velocity": 80, "note_on_time": 13.713, "note_off_time": 14.464}, {"pitch": 42, "velocity": 80, "note_on_time": 13.714, "note_off_time": 14.464}, {"pitch": 60, "velocity": 80, "note_on_time": 14.464, "note_off_time": 15.225}, {"pitch": 42, "velocity": 80, "note_on_time": 14.464, "note_off_time": 15.225}, {"pitch": 60, "velocity": 80, "note_on_time": 15.225, "note_off_time": 15.987}, {"pitch": 42, "velocity": 80, "note_on_time": 15.225, "note_off_time": 15.987}, {"pitch": 60, "velocity": 80, "note_on_time": 15.987, "note_off_time": 16.748}, {"pitch": 42, "velocity": 80, "note_on_time": 15.987, "note_off_time": 16.749}, {"pitch": 60, "velocity": 80, "note_on_time": 16.748, "note_off_time": 17.511}, {"pitch": 42, "velocity": 80, "note_on_time": 16.749, "note_off_time": 17.511}, {"pitch": 60, "velocity": 80, "note_on_time": 17.511, "note_off_time": 18.275}, {"pitch": 42, "velocity": 80, "note_on_time": 17.511, "note_off_time": 18.276}, {"pitch": 62, "velocity": 80, "note_on_time": 18.275, "note_off_time": 19.039}, {"pitch": 42, "velocity": 80, "note_on_time": 18.276, "note_off_time": 19.04}, {"pitch": 62, "velocity": 80, "note_on_time": 19.039, "note_off_time": 19.8}, {"pitch": 42, "velocity": 80, "note_on_time": 19.04, "note_off_time": 19.801}, {"pitch": 62, "velocity": 80, "note_on_time": 19.8, "note_off_time": 20.561}, {"pitch": 42, "velocity": 80, "note_on_time": 19.801, "note_off_time": 20.561}, {"pitch": 62, "velocity": 80, "note_on_time": 20.561, "note_off_time": 21.324}, {"pitch": 42, "velocity": 80, "note_on_time": 20.561, "note_off_time": 21.325}, {"pitch": 42, "velocity": 80, "note_on_time": 21.325, "note_off_time": 22.086}, {"pitch": 60, "velocity": 80, "note_on_time": 21.324, "note_off_time": 22.849}, {"pitch": 42, "velocity": 80, "note_on_time": 22.086, "note_off_time": 22.849}, {"pitch": 42, "velocity": 80, "note_on_time": 22.85, "note_off_time": 23.613}, {"pitch": 60, "velocity": 80, "note_on_time": 23.613, "note_off_time": 24.375}, {"pitch": 42, "velocity": 80, "note_on_time": 23.613, "note_off_time": 24.376}, {"pitch": 42, "velocity": 80, "note_on_time": 24.376, "note_off_time": 25.141}, {"pitch": 60, "velocity": 80, "note_on_time": 25.141, "note_off_time": 25.903}, {"pitch": 42, "velocity": 80, "note_on_time": 25.141, "note_off_time": 25.904}, {"pitch": 60, "velocity": 80, "note_on_time": 25.903, "note_off_time": 26.668}, {"pitch": 42, "velocity": 80, "note_on_time": 25.904, "note_off_time": 26.668}, {"pitch": 60, "velocity": 80, "note_on_time": 26.668, "note_off_time": 27.427}, {"pitch": 42, "velocity": 80, "note_on_time": 26.669, "note_off_time": 27.428}]</notes><options name="Option List">((4, 4), [0.25], 3, 8, &lt;NoteRangePerHand.TWO_NOTES: 3&gt;, &lt;NoteRangePerHand.ONE_NOTE: 2&gt;, False, True, False, 80)</options></target_notes><trials><trial trial_no="1" timestamp="2022_12_22-10_20_49"><notes name="Played Notes">[{"pitch": 62, "velocity": 59, "note_on_time": 12.206, "note_off_time": 12.658}, {"pitch": 60, "velocity": 51, "note_on_time": 12.957, "note_off_time": 13.532}, {"pitch": 62, "velocity": 73, "note_on_time": 13.654, "note_off_time": 13.95}, {"pitch": 62, "velocity": 69, "note_on_time": 14.39, "note_off_time": 14.672}, {"pitch": 62, "velocity": 65, "note_on_time": 15.112, "note_off_time": 16.489}, {"pitch": 60, "velocity": 73, "note_on_time": 16.69, "note_off_time": 18.027}, {"pitch": 62, "velocity": 68, "note_on_time": 18.324, "note_off_time": 18.813}]</notes><guidance name="Guidance Mode">None</guidance><error name="Error value">1.5949583333333335</error></trial><trial trial_no="2" timestamp="2022_12_22-10_22_03"><notes name="Played Notes">[{"pitch": 62, "velocity": 65, "note_on_time": 3.069, "note_off_time": 3.554}, {"pitch": 60, "velocity": 34, "note_on_time": 3.769, "note_off_time": 4.339}, {"pitch": 62, "velocity": 77, "note_on_time": 4.476, "note_off_time": 4.843}, {"pitch": 62, "velocity": 61, "note_on_time": 5.207, "note_off_time": 5.616}, {"pitch": 62, "velocity": 71, "note_on_time": 5.961, "note_off_time": 7.041}, {"pitch": 60, "velocity": 65, "note_on_time": 7.454, "note_off_time": 8.564}, {"pitch": 60, "velocity": 82, "note_on_time": 9.015, "note_off_time": 9.561}, {"pitch": 62, "velocity": 64, "note_on_time": 9.793, "note_off_time": 10.408}, {"pitch": 60, "velocity": 64, "note_on_time": 10.473, "note_off_time": 11.063}, {"pitch": 62, "velocity": 68, "note_on_time": 11.251, "note_off_time": 11.705}, {"pitch": 62, "velocity": 63, "note_on_time": 12.183, "note_off_time": 12.66}, {"pitch": 60, "velocity": 62, "note_on_time": 12.92, "note_off_time": 13.342}, {"pitch": 60, "velocity": 75, "note_on_time": 13.668, "note_off_time": 14.05}, {"pitch": 60, "velocity": 73, "note_on_time": 14.434, "note_off_time": 14.787}, {"pitch": 60, "velocity": 78, "note_on_time": 15.195, "note_off_time": 15.503}, {"pitch": 60, "velocity": 74, "note_on_time": 15.942, "note_off_time": 16.229}, {"pitch": 60, "velocity": 64, "note_on_time": 16.674, "note_off_time": 17.007}, {"pitch": 62, "velocity": 75, "note_on_time": 17.52, "note_off_time": 17.891}, {"pitch": 62, "velocity": 66, "note_on_time": 18.273, "note_off_time": 18.642}, {"pitch": 62, "velocity": 63, "note_on_time": 19.068, "note_off_time": 19.396}, {"pitch": 60, "velocity": 66, "note_on_time": 19.794, "note_off_time": 20.691}, {"pitch": 60, "velocity": 70, "note_on_time": 21.288, "note_off_time": 21.763}, {"pitch": 60, "velocity": 69, "note_on_time": 22.806, "note_off_time": 23.227}, {"pitch": 60, "velocity": 79, "note_on_time": 23.569, "note_off_time": 23.866}, {"pitch": 60, "velocity": 74, "note_on_time": 24.325, "note_off_time": 25.031}]</notes><guidance name="Guidance Mode">None</guidance><error name="Error value">0.2050000000000001</error></trial></trials></MIDI>