<MIDI midiNo="2022_11_10-11_08_33"><target_notes><notes name="Note List">[{"pitch": 42, "velocity": 80, "note_on_time": 0.004, "note_off_time": 0.741}, {"pitch": 42, "velocity": 80, "note_on_time": 0.741, "note_off_time": 1.468}, {"pitch": 42, "velocity": 80, "note_on_time": 1.468, "note_off_time": 2.196}, {"pitch": 42, "velocity": 80, "note_on_time": 2.196, "note_off_time": 2.927}, {"pitch": 60, "velocity": 80, "note_on_time": 2.927, "note_off_time": 3.655}, {"pitch": 42, "velocity": 80, "note_on_time": 2.928, "note_off_time": 3.656}, {"pitch": 60, "velocity": 80, "note_on_time": 3.655, "note_off_time": 4.386}, {"pitch": 42, "velocity": 80, "note_on_time": 3.656, "note_off_time": 4.386}, {"pitch": 60, "velocity": 80, "note_on_time": 4.386, "note_off_time": 5.116}, {"pitch": 42, "velocity": 80, "note_on_time": 4.386, "note_off_time": 5.116}, {"pitch": 62, "velocity": 80, "note_on_time": 5.116, "note_off_time": 5.848}, {"pitch": 42, "velocity": 80, "note_on_time": 5.116, "note_off_time": 5.848}, {"pitch": 62, "velocity": 80, "note_on_time": 5.848, "note_off_time": 6.582}, {"pitch": 42, "velocity": 80, "note_on_time": 5.849, "note_off_time": 6.582}, {"pitch": 62, "velocity": 80, "note_on_time": 6.582, "note_off_time": 7.312}, {"pitch": 42, "velocity": 80, "note_on_time": 6.582, "note_off_time": 7.312}, {"pitch": 60, "velocity": 80, "note_on_time": 7.312, "note_off_time": 8.043}, {"pitch": 42, "velocity": 80, "note_on_time": 7.313, "note_off_time": 8.044}, {"pitch": 62, "velocity": 80, "note_on_time": 8.043, "note_off_time": 8.775}, {"pitch": 42, "velocity": 80, "note_on_time": 8.044, "note_off_time": 8.775}, {"pitch": 64, "velocity": 80, "note_on_time": 8.775, "note_off_time": 9.504}, {"pitch": 42, "velocity": 80, "note_on_time": 8.775, "note_off_time": 9.504}, {"pitch": 62, "velocity": 80, "note_on_time": 9.504, "note_off_time": 10.238}, {"pitch": 42, "velocity": 80, "note_on_time": 9.505, "note_off_time": 10.238}, {"pitch": 62, "velocity": 80, "note_on_time": 10.238, "note_off_time": 10.968}, {"pitch": 42, "velocity": 80, "note_on_time": 10.239, "note_off_time": 10.969}, {"pitch": 60, "velocity": 80, "note_on_time": 10.968, "note_off_time": 11.698}, {"pitch": 42, "velocity": 80, "note_on_time": 10.969, "note_off_time": 11.699}, {"pitch": 60, "velocity": 80, "note_on_time": 11.698, "note_off_time": 12.429}, {"pitch": 42, "velocity": 80, "note_on_time": 11.699, "note_off_time": 12.429}, {"pitch": 42, "velocity": 80, "note_on_time": 12.43, "note_off_time": 13.161}, {"pitch": 42, "velocity": 80, "note_on_time": 13.161, "note_off_time": 13.888}, {"pitch": 42, "velocity": 80, "note_on_time": 13.888, "note_off_time": 14.622}, {"pitch": 62, "velocity": 80, "note_on_time": 14.621, "note_off_time": 15.352}, {"pitch": 42, "velocity": 80, "note_on_time": 14.622, "note_off_time": 15.352}, {"pitch": 64, "velocity": 80, "note_on_time": 15.352, "note_off_time": 16.083}, {"pitch": 42, "velocity": 80, "note_on_time": 15.352, "note_off_time": 16.083}, {"pitch": 64, "velocity": 80, "note_on_time": 16.083, "note_off_time": 16.813}, {"pitch": 42, "velocity": 80, "note_on_time": 16.083, "note_off_time": 16.813}, {"pitch": 62, "velocity": 80, "note_on_time": 16.813, "note_off_time": 17.541}, {"pitch": 42, "velocity": 80, "note_on_time": 16.813, "note_off_time": 17.541}, {"pitch": 42, "velocity": 80, "note_on_time": 17.541, "note_off_time": 18.268}, {"pitch": 64, "velocity": 80, "note_on_time": 17.541, "note_off_time": 19.0}, {"pitch": 42, "velocity": 80, "note_on_time": 18.269, "note_off_time": 19.0}, {"pitch": 42, "velocity": 80, "note_on_time": 19.0, "note_off_time": 19.734}, {"pitch": 42, "velocity": 80, "note_on_time": 19.734, "note_off_time": 20.465}, {"pitch": 60, "velocity": 80, "note_on_time": 20.465, "note_off_time": 21.194}, {"pitch": 42, "velocity": 80, "note_on_time": 20.465, "note_off_time": 21.194}, {"pitch": 62, "velocity": 80, "note_on_time": 21.194, "note_off_time": 21.922}, {"pitch": 42, "velocity": 80, "note_on_time": 21.194, "note_off_time": 21.922}, {"pitch": 60, "velocity": 80, "note_on_time": 21.922, "note_off_time": 22.651}, {"pitch": 42, "velocity": 80, "note_on_time": 21.922, "note_off_time": 22.652}, {"pitch": 60, "velocity": 80, "note_on_time": 22.651, "note_off_time": 23.379}, {"pitch": 42, "velocity": 80, "note_on_time": 22.652, "note_off_time": 23.379}, {"pitch": 42, "velocity": 80, "note_on_time": 23.38, "note_off_time": 24.111}, {"pitch": 60, "velocity": 80, "note_on_time": 24.111, "note_off_time": 24.842}, {"pitch": 42, "velocity": 80, "note_on_time": 24.112, "note_off_time": 24.843}, {"pitch": 60, "velocity": 80, "note_on_time": 24.842, "note_off_time": 25.572}, {"pitch": 42, "velocity": 80, "note_on_time": 24.843, "note_off_time": 25.572}, {"pitch": 60, "velocity": 80, "note_on_time": 25.572, "note_off_time": 26.303}, {"pitch": 42, "velocity": 80, "note_on_time": 25.572, "note_off_time": 26.303}]</notes><options name="Option List">((4, 4), [0.5, 0.25], 3, 8, &lt;NoteRangePerHand.THREE_NOTES: 4&gt;, &lt;NoteRangePerHand.ONE_NOTE: 2&gt;, False, True, False, 83)</options></target_notes><trials><trial trial_no="1" timestamp="2022_11_10-11_08_05"><notes name="Played Notes">[{"pitch": 60, "velocity": 85, "note_on_time": 2.925, "note_off_time": 3.107}, {"pitch": 60, "velocity": 92, "note_on_time": 3.715, "note_off_time": 3.887}, {"pitch": 60, "velocity": 89, "note_on_time": 4.447, "note_off_time": 4.679}, {"pitch": 62, "velocity": 78, "note_on_time": 5.163, "note_off_time": 5.365}, {"pitch": 62, "velocity": 78, "note_on_time": 5.937, "note_off_time": 6.135}, {"pitch": 62, "velocity": 76, "note_on_time": 6.601, "note_off_time": 6.812}, {"pitch": 60, "velocity": 79, "note_on_time": 7.263, "note_off_time": 7.512}, {"pitch": 62, "velocity": 80, "note_on_time": 7.967, "note_off_time": 8.196}, {"pitch": 64, "velocity": 82, "note_on_time": 8.657, "note_off_time": 8.874}, {"pitch": 62, "velocity": 86, "note_on_time": 9.394, "note_off_time": 9.587}, {"pitch": 62, "velocity": 81, "note_on_time": 10.1, "note_off_time": 10.301}, {"pitch": 60, "velocity": 84, "note_on_time": 10.824, "note_off_time": 11.011}, {"pitch": 60, "velocity": 87, "note_on_time": 11.501, "note_off_time": 11.659}, {"pitch": 62, "velocity": 81, "note_on_time": 14.557, "note_off_time": 14.792}, {"pitch": 64, "velocity": 78, "note_on_time": 15.205, "note_off_time": 15.441}, {"pitch": 64, "velocity": 76, "note_on_time": 15.977, "note_off_time": 16.203}, {"pitch": 62, "velocity": 76, "note_on_time": 16.696, "note_off_time": 16.934}, {"pitch": 64, "velocity": 82, "note_on_time": 17.415, "note_off_time": 17.956}, {"pitch": 60, "velocity": 79, "note_on_time": 19.742, "note_off_time": 19.945}, {"pitch": 62, "velocity": 73, "note_on_time": 20.428, "note_off_time": 20.661}, {"pitch": 60, "velocity": 85, "note_on_time": 21.129, "note_off_time": 21.321}, {"pitch": 60, "velocity": 85, "note_on_time": 21.86, "note_off_time": 22.037}, {"pitch": 60, "velocity": 82, "note_on_time": 23.342, "note_off_time": 23.525}, {"pitch": 60, "velocity": 83, "note_on_time": 24.148, "note_off_time": 24.35}, {"pitch": 60, "velocity": 85, "note_on_time": 24.826, "note_off_time": 25.047}]</notes><guidance name="Guidance Mode">None</guidance><error name="Error value">0.06707604545454555</error></trial></trials></MIDI>