<MIDI midiNo="2022_11_21-17_04_08"><target_notes><notes name="Note List">[{"pitch": 42, "velocity": 80, "note_on_time": 0.004, "note_off_time": 0.256}, {"pitch": 42, "velocity": 80, "note_on_time": 0.257, "note_off_time": 0.505}, {"pitch": 42, "velocity": 80, "note_on_time": 0.505, "note_off_time": 0.752}, {"pitch": 42, "velocity": 80, "note_on_time": 0.752, "note_off_time": 1.003}, {"pitch": 64, "velocity": 80, "note_on_time": 1.003, "note_off_time": 1.254}, {"pitch": 42, "velocity": 80, "note_on_time": 1.003, "note_off_time": 1.254}, {"pitch": 60, "velocity": 80, "note_on_time": 1.254, "note_off_time": 1.503}, {"pitch": 42, "velocity": 80, "note_on_time": 1.254, "note_off_time": 1.503}, {"pitch": 60, "velocity": 80, "note_on_time": 1.503, "note_off_time": 1.754}, {"pitch": 42, "velocity": 80, "note_on_time": 1.504, "note_off_time": 1.754}, {"pitch": 60, "velocity": 80, "note_on_time": 1.754, "note_off_time": 2.003}, {"pitch": 42, "velocity": 80, "note_on_time": 1.755, "note_off_time": 2.003}, {"pitch": 62, "velocity": 80, "note_on_time": 2.003, "note_off_time": 2.252}, {"pitch": 42, "velocity": 80, "note_on_time": 2.003, "note_off_time": 2.252}, {"pitch": 62, "velocity": 80, "note_on_time": 2.252, "note_off_time": 2.502}, {"pitch": 42, "velocity": 80, "note_on_time": 2.252, "note_off_time": 2.502}, {"pitch": 64, "velocity": 80, "note_on_time": 2.502, "note_off_time": 2.752}, {"pitch": 42, "velocity": 80, "note_on_time": 2.502, "note_off_time": 2.752}, {"pitch": 62, "velocity": 80, "note_on_time": 2.752, "note_off_time": 3.001}, {"pitch": 42, "velocity": 80, "note_on_time": 2.753, "note_off_time": 3.002}, {"pitch": 42, "velocity": 80, "note_on_time": 3.002, "note_off_time": 3.248}, {"pitch": 64, "velocity": 80, "note_on_time": 3.001, "note_off_time": 3.497}, {"pitch": 42, "velocity": 80, "note_on_time": 3.249, "note_off_time": 3.497}, {"pitch": 42, "velocity": 80, "note_on_time": 3.497, "note_off_time": 3.743}, {"pitch": 42, "velocity": 80, "note_on_time": 3.744, "note_off_time": 3.993}, {"pitch": 62, "velocity": 80, "note_on_time": 3.993, "note_off_time": 4.242}, {"pitch": 42, "velocity": 80, "note_on_time": 3.993, "note_off_time": 4.242}, {"pitch": 42, "velocity": 80, "note_on_time": 4.243, "note_off_time": 4.493}, {"pitch": 42, "velocity": 80, "note_on_time": 4.493, "note_off_time": 4.742}, {"pitch": 64, "velocity": 80, "note_on_time": 4.742, "note_off_time": 4.99}, {"pitch": 42, "velocity": 80, "note_on_time": 4.742, "note_off_time": 4.99}, {"pitch": 42, "velocity": 80, "note_on_time": 4.991, "note_off_time": 5.239}, {"pitch": 60, "velocity": 80, "note_on_time": 4.99, "note_off_time": 5.49}, {"pitch": 42, "velocity": 80, "note_on_time": 5.239, "note_off_time": 5.49}, {"pitch": 42, "velocity": 80, "note_on_time": 5.491, "note_off_time": 5.738}, {"pitch": 42, "velocity": 80, "note_on_time": 5.738, "note_off_time": 5.987}, {"pitch": 64, "velocity": 80, "note_on_time": 5.987, "note_off_time": 6.236}, {"pitch": 42, "velocity": 80, "note_on_time": 5.988, "note_off_time": 6.237}, {"pitch": 60, "velocity": 80, "note_on_time": 6.236, "note_off_time": 6.485}, {"pitch": 42, "velocity": 80, "note_on_time": 6.237, "note_off_time": 6.486}, {"pitch": 60, "velocity": 80, "note_on_time": 6.485, "note_off_time": 6.736}, {"pitch": 42, "velocity": 80, "note_on_time": 6.486, "note_off_time": 6.736}, {"pitch": 60, "velocity": 80, "note_on_time": 6.736, "note_off_time": 6.984}, {"pitch": 42, "velocity": 80, "note_on_time": 6.737, "note_off_time": 6.984}, {"pitch": 60, "velocity": 80, "note_on_time": 6.984, "note_off_time": 7.234}, {"pitch": 42, "velocity": 80, "note_on_time": 6.984, "note_off_time": 7.235}, {"pitch": 62, "velocity": 80, "note_on_time": 7.234, "note_off_time": 7.482}, {"pitch": 42, "velocity": 80, "note_on_time": 7.235, "note_off_time": 7.483}, {"pitch": 60, "velocity": 80, "note_on_time": 7.482, "note_off_time": 7.732}, {"pitch": 42, "velocity": 80, "note_on_time": 7.483, "note_off_time": 7.732}, {"pitch": 60, "velocity": 80, "note_on_time": 7.732, "note_off_time": 7.979}, {"pitch": 42, "velocity": 80, "note_on_time": 7.732, "note_off_time": 7.979}, {"pitch": 42, "velocity": 80, "note_on_time": 7.98, "note_off_time": 8.229}, {"pitch": 60, "velocity": 80, "note_on_time": 8.229, "note_off_time": 8.476}, {"pitch": 42, "velocity": 80, "note_on_time": 8.23, "note_off_time": 8.477}, {"pitch": 60, "velocity": 80, "note_on_time": 8.476, "note_off_time": 8.725}, {"pitch": 42, "velocity": 80, "note_on_time": 8.477, "note_off_time": 8.725}, {"pitch": 60, "velocity": 80, "note_on_time": 8.725, "note_off_time": 8.975}, {"pitch": 42, "velocity": 80, "note_on_time": 8.726, "note_off_time": 8.975}]</notes><options name="Option List">((4, 4), [0.5, 0.25], 3, 8, &lt;NoteRangePerHand.THREE_NOTES: 4&gt;, &lt;NoteRangePerHand.ONE_NOTE: 2&gt;, False, True, False, 248)</options></target_notes><trials><trial trial_no="1" timestamp="2022_11_21-17_03_57"><notes name="Played Notes">[{"pitch": 64, "velocity": 65, "note_on_time": 0.968, "note_off_time": 1.171}, {"pitch": 60, "velocity": 77, "note_on_time": 1.215, "note_off_time": 1.391}, {"pitch": 60, "velocity": 84, "note_on_time": 1.485, "note_off_time": 1.642}, {"pitch": 60, "velocity": 77, "note_on_time": 1.739, "note_off_time": 1.9}, {"pitch": 62, "velocity": 74, "note_on_time": 1.994, "note_off_time": 2.134}, {"pitch": 62, "velocity": 72, "note_on_time": 2.229, "note_off_time": 2.384}, {"pitch": 64, "velocity": 72, "note_on_time": 2.508, "note_off_time": 2.638}, {"pitch": 62, "velocity": 75, "note_on_time": 2.773, "note_off_time": 2.916}, {"pitch": 60, "velocity": 87, "note_on_time": 3.062, "note_off_time": 3.132}, {"pitch": 62, "velocity": 71, "note_on_time": 3.129, "note_off_time": 3.431}, {"pitch": 64, "velocity": 72, "note_on_time": 3.347, "note_off_time": 3.824}, {"pitch": 60, "velocity": 85, "note_on_time": 4.25, "note_off_time": 4.526}, {"pitch": 64, "velocity": 41, "note_on_time": 5.123, "note_off_time": 5.196}, {"pitch": 60, "velocity": 79, "note_on_time": 5.298, "note_off_time": 5.719}, {"pitch": 64, "velocity": 66, "note_on_time": 6.028, "note_off_time": 6.167}, {"pitch": 60, "velocity": 85, "note_on_time": 6.283, "note_off_time": 6.433}, {"pitch": 60, "velocity": 80, "note_on_time": 6.53, "note_off_time": 6.633}, {"pitch": 60, "velocity": 71, "note_on_time": 6.738, "note_off_time": 6.884}, {"pitch": 60, "velocity": 77, "note_on_time": 6.995, "note_off_time": 7.142}, {"pitch": 60, "velocity": 82, "note_on_time": 7.237, "note_off_time": 7.431}, {"pitch": 62, "velocity": 56, "note_on_time": 7.462, "note_off_time": 7.639}, {"pitch": 60, "velocity": 84, "note_on_time": 7.694, "note_off_time": 7.843}, {"pitch": 60, "velocity": 79, "note_on_time": 7.941, "note_off_time": 8.134}, {"pitch": 60, "velocity": 84, "note_on_time": 8.453, "note_off_time": 8.581}, {"pitch": 60, "velocity": 76, "note_on_time": 8.69, "note_off_time": 8.834}]</notes><guidance name="Guidance Mode">None</guidance><error name="Error value">0.7009967500000003</error></trial><trial trial_no="2" timestamp="2022_11_21-17_04_21"><notes name="Played Notes">[{"pitch": 64, "velocity": 76, "note_on_time": 0.982, "note_off_time": 1.17}, {"pitch": 60, "velocity": 79, "note_on_time": 1.246, "note_off_time": 1.387}, {"pitch": 60, "velocity": 74, "note_on_time": 1.491, "note_off_time": 1.621}, {"pitch": 60, "velocity": 72, "note_on_time": 1.73, "note_off_time": 1.885}, {"pitch": 62, "velocity": 77, "note_on_time": 1.989, "note_off_time": 2.117}, {"pitch": 62, "velocity": 68, "note_on_time": 2.221, "note_off_time": 2.38}, {"pitch": 64, "velocity": 77, "note_on_time": 2.483, "note_off_time": 2.663}, {"pitch": 62, "velocity": 70, "note_on_time": 2.673, "note_off_time": 2.798}, {"pitch": 64, "velocity": 80, "note_on_time": 2.941, "note_off_time": 3.458}, {"pitch": 62, "velocity": 73, "note_on_time": 4.052, "note_off_time": 4.224}, {"pitch": 64, "velocity": 75, "note_on_time": 4.747, "note_off_time": 4.905}, {"pitch": 60, "velocity": 84, "note_on_time": 5.024, "note_off_time": 5.448}, {"pitch": 64, "velocity": 73, "note_on_time": 5.792, "note_off_time": 5.947}, {"pitch": 60, "velocity": 92, "note_on_time": 6.049, "note_off_time": 6.209}, {"pitch": 60, "velocity": 82, "note_on_time": 6.293, "note_off_time": 6.454}, {"pitch": 60, "velocity": 89, "note_on_time": 6.546, "note_off_time": 6.687}, {"pitch": 60, "velocity": 79, "note_on_time": 6.793, "note_off_time": 6.938}, {"pitch": 60, "velocity": 81, "note_on_time": 7.036, "note_off_time": 7.248}, {"pitch": 62, "velocity": 72, "note_on_time": 7.265, "note_off_time": 7.419}, {"pitch": 60, "velocity": 82, "note_on_time": 7.506, "note_off_time": 7.673}, {"pitch": 60, "velocity": 88, "note_on_time": 7.758, "note_off_time": 7.939}, {"pitch": 60, "velocity": 82, "note_on_time": 8.187, "note_off_time": 8.343}, {"pitch": 60, "velocity": 81, "note_on_time": 8.434, "note_off_time": 8.573}, {"pitch": 60, "velocity": 82, "note_on_time": 8.671, "note_off_time": 8.852}]</notes><guidance name="Guidance Mode">None</guidance><error name="Error value">0.25635324999999914</error></trial><trial trial_no="3" timestamp="2022_11_21-17_04_44"><notes name="Played Notes">[{"pitch": 64, "velocity": 77, "note_on_time": 0.999, "note_off_time": 1.245}, {"pitch": 60, "velocity": 81, "note_on_time": 1.225, "note_off_time": 1.399}, {"pitch": 60, "velocity": 85, "note_on_time": 1.488, "note_off_time": 1.641}, {"pitch": 60, "velocity": 84, "note_on_time": 1.729, "note_off_time": 1.891}, {"pitch": 62, "velocity": 76, "note_on_time": 1.978, "note_off_time": 2.096}, {"pitch": 62, "velocity": 74, "note_on_time": 2.224, "note_off_time": 2.365}, {"pitch": 64, "velocity": 75, "note_on_time": 2.487, "note_off_time": 2.664}, {"pitch": 62, "velocity": 67, "note_on_time": 2.698, "note_off_time": 2.819}, {"pitch": 64, "velocity": 90, "note_on_time": 2.973, "note_off_time": 3.447}, {"pitch": 62, "velocity": 82, "note_on_time": 4.044, "note_off_time": 4.334}, {"pitch": 64, "velocity": 72, "note_on_time": 4.795, "note_off_time": 4.976}, {"pitch": 60, "velocity": 87, "note_on_time": 5.048, "note_off_time": 5.364}, {"pitch": 64, "velocity": 74, "note_on_time": 5.79, "note_off_time": 5.968}, {"pitch": 60, "velocity": 85, "note_on_time": 6.041, "note_off_time": 6.196}, {"pitch": 60, "velocity": 81, "note_on_time": 6.285, "note_off_time": 6.41}, {"pitch": 60, "velocity": 79, "note_on_time": 6.511, "note_off_time": 6.667}, {"pitch": 60, "velocity": 74, "note_on_time": 6.77, "note_off_time": 6.89}, {"pitch": 60, "velocity": 82, "note_on_time": 7.017, "note_off_time": 7.238}, {"pitch": 62, "velocity": 67, "note_on_time": 7.255, "note_off_time": 7.413}, {"pitch": 60, "velocity": 87, "note_on_time": 7.488, "note_off_time": 7.62}, {"pitch": 60, "velocity": 85, "note_on_time": 7.747, "note_off_time": 7.935}, {"pitch": 60, "velocity": 78, "note_on_time": 8.247, "note_off_time": 8.408}, {"pitch": 60, "velocity": 81, "note_on_time": 8.499, "note_off_time": 8.644}, {"pitch": 60, "velocity": 87, "note_on_time": 8.733, "note_off_time": 8.891}]</notes><guidance name="Guidance Mode">None</guidance><error name="Error value">0.24772924999999937</error></trial></trials></MIDI>