<MIDI midiNo="2022_12_01-13_04_16"><target_notes><notes name="Note List">[{"pitch": 42, "velocity": 80, "note_on_time": 0.004, "note_off_time": 0.586}, {"pitch": 42, "velocity": 80, "note_on_time": 0.587, "note_off_time": 1.164}, {"pitch": 42, "velocity": 80, "note_on_time": 1.164, "note_off_time": 1.74}, {"pitch": 42, "velocity": 80, "note_on_time": 1.74, "note_off_time": 2.315}, {"pitch": 64, "velocity": 80, "note_on_time": 2.315, "note_off_time": 2.891}, {"pitch": 42, "velocity": 80, "note_on_time": 2.315, "note_off_time": 2.891}, {"pitch": 64, "velocity": 80, "note_on_time": 2.891, "note_off_time": 3.466}, {"pitch": 42, "velocity": 80, "note_on_time": 2.891, "note_off_time": 3.467}, {"pitch": 64, "velocity": 80, "note_on_time": 3.466, "note_off_time": 4.045}, {"pitch": 42, "velocity": 80, "note_on_time": 3.467, "note_off_time": 4.046}, {"pitch": 64, "velocity": 80, "note_on_time": 4.045, "note_off_time": 4.621}, {"pitch": 42, "velocity": 80, "note_on_time": 4.046, "note_off_time": 4.621}, {"pitch": 42, "velocity": 80, "note_on_time": 4.622, "note_off_time": 5.198}, {"pitch": 62, "velocity": 80, "note_on_time": 4.621, "note_off_time": 5.773}, {"pitch": 42, "velocity": 80, "note_on_time": 5.198, "note_off_time": 5.773}, {"pitch": 42, "velocity": 80, "note_on_time": 5.773, "note_off_time": 6.353}, {"pitch": 42, "velocity": 80, "note_on_time": 6.354, "note_off_time": 6.929}, {"pitch": 62, "velocity": 80, "note_on_time": 6.929, "note_off_time": 7.506}, {"pitch": 42, "velocity": 80, "note_on_time": 6.929, "note_off_time": 7.506}, {"pitch": 60, "velocity": 80, "note_on_time": 7.506, "note_off_time": 8.081}, {"pitch": 42, "velocity": 80, "note_on_time": 7.507, "note_off_time": 8.082}, {"pitch": 62, "velocity": 80, "note_on_time": 8.081, "note_off_time": 8.662}, {"pitch": 42, "velocity": 80, "note_on_time": 8.082, "note_off_time": 8.662}, {"pitch": 60, "velocity": 80, "note_on_time": 8.662, "note_off_time": 9.242}, {"pitch": 42, "velocity": 80, "note_on_time": 8.662, "note_off_time": 9.242}, {"pitch": 62, "velocity": 80, "note_on_time": 9.242, "note_off_time": 9.818}, {"pitch": 42, "velocity": 80, "note_on_time": 9.242, "note_off_time": 9.818}, {"pitch": 62, "velocity": 80, "note_on_time": 9.818, "note_off_time": 10.396}, {"pitch": 42, "velocity": 80, "note_on_time": 9.818, "note_off_time": 10.396}, {"pitch": 64, "velocity": 80, "note_on_time": 10.396, "note_off_time": 10.97}, {"pitch": 42, "velocity": 80, "note_on_time": 10.396, "note_off_time": 10.97}, {"pitch": 60, "velocity": 80, "note_on_time": 10.97, "note_off_time": 11.543}, {"pitch": 42, "velocity": 80, "note_on_time": 10.97, "note_off_time": 11.544}, {"pitch": 64, "velocity": 80, "note_on_time": 11.543, "note_off_time": 12.121}, {"pitch": 42, "velocity": 80, "note_on_time": 11.544, "note_off_time": 12.121}, {"pitch": 42, "velocity": 80, "note_on_time": 12.121, "note_off_time": 12.695}, {"pitch": 42, "velocity": 80, "note_on_time": 12.695, "note_off_time": 13.272}, {"pitch": 60, "velocity": 80, "note_on_time": 12.695, "note_off_time": 13.846}, {"pitch": 42, "velocity": 80, "note_on_time": 13.272, "note_off_time": 13.847}, {"pitch": 62, "velocity": 80, "note_on_time": 13.846, "note_off_time": 14.422}, {"pitch": 42, "velocity": 80, "note_on_time": 13.847, "note_off_time": 14.423}, {"pitch": 64, "velocity": 80, "note_on_time": 14.422, "note_off_time": 14.999}, {"pitch": 42, "velocity": 80, "note_on_time": 14.423, "note_off_time": 14.999}, {"pitch": 64, "velocity": 80, "note_on_time": 14.999, "note_off_time": 15.575}, {"pitch": 42, "velocity": 80, "note_on_time": 14.999, "note_off_time": 15.575}, {"pitch": 60, "velocity": 80, "note_on_time": 15.575, "note_off_time": 16.154}, {"pitch": 42, "velocity": 80, "note_on_time": 15.576, "note_off_time": 16.154}, {"pitch": 42, "velocity": 80, "note_on_time": 16.155, "note_off_time": 16.731}, {"pitch": 64, "velocity": 80, "note_on_time": 16.154, "note_off_time": 17.307}, {"pitch": 42, "velocity": 80, "note_on_time": 16.731, "note_off_time": 17.307}, {"pitch": 60, "velocity": 80, "note_on_time": 17.307, "note_off_time": 17.881}, {"pitch": 42, "velocity": 80, "note_on_time": 17.308, "note_off_time": 17.882}, {"pitch": 62, "velocity": 80, "note_on_time": 17.881, "note_off_time": 18.461}, {"pitch": 42, "velocity": 80, "note_on_time": 17.882, "note_off_time": 18.461}, {"pitch": 42, "velocity": 80, "note_on_time": 18.461, "note_off_time": 19.046}, {"pitch": 62, "velocity": 80, "note_on_time": 19.046, "note_off_time": 19.622}, {"pitch": 42, "velocity": 80, "note_on_time": 19.047, "note_off_time": 19.622}, {"pitch": 62, "velocity": 80, "note_on_time": 19.622, "note_off_time": 20.197}, {"pitch": 42, "velocity": 80, "note_on_time": 19.622, "note_off_time": 20.197}, {"pitch": 62, "velocity": 80, "note_on_time": 20.197, "note_off_time": 20.771}, {"pitch": 42, "velocity": 80, "note_on_time": 20.198, "note_off_time": 20.771}]</notes><options name="Option List">((4, 4), [0.5, 0.25], 3, 8, &lt;NoteRangePerHand.THREE_NOTES: 4&gt;, &lt;NoteRangePerHand.ONE_NOTE: 2&gt;, False, True, False, '105')</options></target_notes><trials><trial trial_no="1" timestamp="2022_12_01-13_03_53"><notes name="Played Notes">[{"pitch": 64, "velocity": 76, "note_on_time": 2.306, "note_off_time": 2.622}, {"pitch": 64, "velocity": 70, "note_on_time": 2.815, "note_off_time": 3.169}, {"pitch": 64, "velocity": 73, "note_on_time": 3.393, "note_off_time": 3.657}, {"pitch": 64, "velocity": 69, "note_on_time": 3.958, "note_off_time": 4.226}, {"pitch": 62, "velocity": 78, "note_on_time": 4.538, "note_off_time": 5.459}, {"pitch": 62, "velocity": 75, "note_on_time": 6.525, "note_off_time": 6.824}, {"pitch": 60, "velocity": 78, "note_on_time": 7.037, "note_off_time": 7.329}, {"pitch": 62, "velocity": 77, "note_on_time": 7.539, "note_off_time": 7.86}, {"pitch": 60, "velocity": 75, "note_on_time": 8.044, "note_off_time": 8.301}, {"pitch": 62, "velocity": 73, "note_on_time": 8.549, "note_off_time": 8.834}, {"pitch": 62, "velocity": 77, "note_on_time": 9.081, "note_off_time": 9.365}, {"pitch": 64, "velocity": 74, "note_on_time": 9.63, "note_off_time": 9.901}, {"pitch": 60, "velocity": 82, "note_on_time": 10.151, "note_off_time": 10.436}, {"pitch": 64, "velocity": 72, "note_on_time": 10.704, "note_off_time": 11.154}, {"pitch": 60, "velocity": 79, "note_on_time": 11.752, "note_off_time": 12.81}, {"pitch": 62, "velocity": 74, "note_on_time": 13.109, "note_off_time": 13.443}, {"pitch": 64, "velocity": 78, "note_on_time": 13.632, "note_off_time": 13.917}, {"pitch": 64, "velocity": 73, "note_on_time": 14.111, "note_off_time": 14.405}, {"pitch": 60, "velocity": 77, "note_on_time": 14.617, "note_off_time": 14.928}, {"pitch": 64, "velocity": 70, "note_on_time": 15.099, "note_off_time": 16.094}, {"pitch": 60, "velocity": 77, "note_on_time": 16.344, "note_off_time": 16.623}, {"pitch": 62, "velocity": 72, "note_on_time": 16.775, "note_off_time": 17.209}, {"pitch": 62, "velocity": 75, "note_on_time": 17.903, "note_off_time": 18.133}, {"pitch": 62, "velocity": 77, "note_on_time": 18.343, "note_off_time": 18.665}, {"pitch": 62, "velocity": 75, "note_on_time": 18.924, "note_off_time": 19.525}]</notes><guidance name="Guidance Mode">None</guidance><error name="Error value">0.0808307272727271</error></trial><trial trial_no="2" timestamp="2022_12_01-13_04_25"><notes name="Played Notes">[{"pitch": 64, "velocity": 72, "note_on_time": 2.251, "note_off_time": 2.609}, {"pitch": 64, "velocity": 73, "note_on_time": 2.802, "note_off_time": 3.221}, {"pitch": 64, "velocity": 71, "note_on_time": 3.392, "note_off_time": 3.716}, {"pitch": 64, "velocity": 73, "note_on_time": 3.984, "note_off_time": 4.282}, {"pitch": 62, "velocity": 70, "note_on_time": 4.54, "note_off_time": 5.575}, {"pitch": 62, "velocity": 77, "note_on_time": 6.394, "note_off_time": 6.743}, {"pitch": 60, "velocity": 72, "note_on_time": 6.883, "note_off_time": 7.311}, {"pitch": 62, "velocity": 68, "note_on_time": 7.437, "note_off_time": 7.813}, {"pitch": 60, "velocity": 78, "note_on_time": 7.975, "note_off_time": 8.311}, {"pitch": 62, "velocity": 76, "note_on_time": 8.535, "note_off_time": 8.847}, {"pitch": 62, "velocity": 76, "note_on_time": 9.086, "note_off_time": 9.486}, {"pitch": 64, "velocity": 71, "note_on_time": 9.727, "note_off_time": 10.063}, {"pitch": 60, "velocity": 71, "note_on_time": 10.281, "note_off_time": 10.655}, {"pitch": 64, "velocity": 70, "note_on_time": 10.878, "note_off_time": 11.764}, {"pitch": 60, "velocity": 79, "note_on_time": 12.153, "note_off_time": 13.283}, {"pitch": 62, "velocity": 76, "note_on_time": 13.712, "note_off_time": 14.067}, {"pitch": 64, "velocity": 75, "note_on_time": 14.312, "note_off_time": 14.61}, {"pitch": 64, "velocity": 71, "note_on_time": 14.855, "note_off_time": 15.171}, {"pitch": 60, "velocity": 74, "note_on_time": 15.404, "note_off_time": 15.704}, {"pitch": 64, "velocity": 69, "note_on_time": 15.958, "note_off_time": 16.966}, {"pitch": 60, "velocity": 81, "note_on_time": 17.217, "note_off_time": 17.613}, {"pitch": 62, "velocity": 69, "note_on_time": 17.794, "note_off_time": 18.37}, {"pitch": 62, "velocity": 75, "note_on_time": 18.991, "note_off_time": 19.329}, {"pitch": 62, "velocity": 69, "note_on_time": 19.516, "note_off_time": 19.868}, {"pitch": 62, "velocity": 77, "note_on_time": 20.098, "note_off_time": 20.647}]</notes><guidance name="Guidance Mode">None</guidance><error name="Error value">0.07556490909090895</error></trial><trial trial_no="3" timestamp="2022_12_01-13_04_55"><notes name="Played Notes">[{"pitch": 64, "velocity": 73, "note_on_time": 2.278, "note_off_time": 2.643}, {"pitch": 64, "velocity": 73, "note_on_time": 2.8, "note_off_time": 3.135}, {"pitch": 64, "velocity": 69, "note_on_time": 3.327, "note_off_time": 3.661}, {"pitch": 64, "velocity": 68, "note_on_time": 3.897, "note_off_time": 4.261}, {"pitch": 62, "velocity": 78, "note_on_time": 4.508, "note_off_time": 5.695}, {"pitch": 62, "velocity": 78, "note_on_time": 6.827, "note_off_time": 7.231}, {"pitch": 60, "velocity": 72, "note_on_time": 7.408, "note_off_time": 7.786}, {"pitch": 62, "velocity": 74, "note_on_time": 7.979, "note_off_time": 8.354}, {"pitch": 60, "velocity": 79, "note_on_time": 8.553, "note_off_time": 8.875}, {"pitch": 62, "velocity": 75, "note_on_time": 9.107, "note_off_time": 9.395}, {"pitch": 62, "velocity": 80, "note_on_time": 9.71, "note_off_time": 10.013}, {"pitch": 64, "velocity": 74, "note_on_time": 10.258, "note_off_time": 10.563}, {"pitch": 60, "velocity": 81, "note_on_time": 10.821, "note_off_time": 11.085}, {"pitch": 64, "velocity": 82, "note_on_time": 11.402, "note_off_time": 12.021}, {"pitch": 60, "velocity": 62, "note_on_time": 12.771, "note_off_time": 13.851}, {"pitch": 62, "velocity": 73, "note_on_time": 14.244, "note_off_time": 14.571}, {"pitch": 64, "velocity": 72, "note_on_time": 14.847, "note_off_time": 15.081}, {"pitch": 64, "velocity": 67, "note_on_time": 15.388, "note_off_time": 15.707}, {"pitch": 60, "velocity": 70, "note_on_time": 15.974, "note_off_time": 16.238}, {"pitch": 64, "velocity": 51, "note_on_time": 16.561, "note_off_time": 17.637}, {"pitch": 60, "velocity": 72, "note_on_time": 17.852, "note_off_time": 18.213}, {"pitch": 62, "velocity": 72, "note_on_time": 18.393, "note_off_time": 18.999}, {"pitch": 62, "velocity": 74, "note_on_time": 19.531, "note_off_time": 19.842}, {"pitch": 62, "velocity": 72, "note_on_time": 20.077, "note_off_time": 20.372}]</notes><guidance name="Guidance Mode">None</guidance><error name="Error value">0.1227209090909097</error></trial><trial trial_no="4" timestamp="2022_12_01-13_05_27"><notes name="Played Notes">[{"pitch": 64, "velocity": 73, "note_on_time": 2.266, "note_off_time": 2.563}, {"pitch": 64, "velocity": 67, "note_on_time": 2.772, "note_off_time": 3.09}, {"pitch": 64, "velocity": 73, "note_on_time": 3.346, "note_off_time": 3.612}, {"pitch": 64, "velocity": 66, "note_on_time": 3.935, "note_off_time": 4.226}, {"pitch": 62, "velocity": 85, "note_on_time": 4.535, "note_off_time": 5.742}, {"pitch": 62, "velocity": 77, "note_on_time": 6.329, "note_off_time": 6.653}, {"pitch": 60, "velocity": 78, "note_on_time": 6.861, "note_off_time": 7.166}, {"pitch": 62, "velocity": 69, "note_on_time": 7.393, "note_off_time": 7.733}, {"pitch": 60, "velocity": 78, "note_on_time": 7.987, "note_off_time": 8.2}, {"pitch": 62, "velocity": 77, "note_on_time": 8.561, "note_off_time": 8.759}, {"pitch": 62, "velocity": 73, "note_on_time": 9.147, "note_off_time": 9.328}, {"pitch": 64, "velocity": 73, "note_on_time": 9.734, "note_off_time": 10.025}, {"pitch": 60, "velocity": 81, "note_on_time": 10.32, "note_off_time": 10.541}, {"pitch": 64, "velocity": 71, "note_on_time": 10.877, "note_off_time": 11.549}, {"pitch": 60, "velocity": 82, "note_on_time": 12.015, "note_off_time": 12.979}, {"pitch": 62, "velocity": 72, "note_on_time": 13.2, "note_off_time": 13.554}, {"pitch": 64, "velocity": 63, "note_on_time": 13.823, "note_off_time": 14.047}, {"pitch": 64, "velocity": 69, "note_on_time": 14.357, "note_off_time": 14.643}, {"pitch": 60, "velocity": 74, "note_on_time": 14.906, "note_off_time": 15.187}, {"pitch": 64, "velocity": 70, "note_on_time": 15.506, "note_off_time": 16.489}, {"pitch": 60, "velocity": 81, "note_on_time": 16.713, "note_off_time": 17.041}, {"pitch": 62, "velocity": 74, "note_on_time": 17.264, "note_off_time": 17.815}, {"pitch": 62, "velocity": 79, "note_on_time": 18.559, "note_off_time": 18.862}, {"pitch": 62, "velocity": 76, "note_on_time": 19.076, "note_off_time": 19.376}, {"pitch": 62, "velocity": 78, "note_on_time": 19.571, "note_off_time": 20.101}]</notes><guidance name="Guidance Mode">None</guidance><error name="Error value">0.060162363636364</error></trial><trial trial_no="5" timestamp="2022_12_01-13_05_55"><notes name="Played Notes">[{"pitch": 64, "velocity": 75, "note_on_time": 2.197, "note_off_time": 2.508}, {"pitch": 64, "velocity": 73, "note_on_time": 2.713, "note_off_time": 2.991}, {"pitch": 64, "velocity": 73, "note_on_time": 3.267, "note_off_time": 3.532}, {"pitch": 64, "velocity": 68, "note_on_time": 3.813, "note_off_time": 4.139}, {"pitch": 62, "velocity": 69, "note_on_time": 4.394, "note_off_time": 5.508}, {"pitch": 62, "velocity": 77, "note_on_time": 6.263, "note_off_time": 6.548}, {"pitch": 60, "velocity": 82, "note_on_time": 6.788, "note_off_time": 7.083}, {"pitch": 62, "velocity": 74, "note_on_time": 7.313, "note_off_time": 7.63}, {"pitch": 60, "velocity": 76, "note_on_time": 7.913, "note_off_time": 8.19}, {"pitch": 62, "velocity": 63, "note_on_time": 8.434, "note_off_time": 8.691}, {"pitch": 62, "velocity": 65, "note_on_time": 8.925, "note_off_time": 9.223}, {"pitch": 64, "velocity": 69, "note_on_time": 9.495, "note_off_time": 9.796}, {"pitch": 60, "velocity": 77, "note_on_time": 10.06, "note_off_time": 10.397}, {"pitch": 64, "velocity": 52, "note_on_time": 10.672, "note_off_time": 11.385}, {"pitch": 60, "velocity": 78, "note_on_time": 12.161, "note_off_time": 12.996}, {"pitch": 62, "velocity": 76, "note_on_time": 13.305, "note_off_time": 13.683}, {"pitch": 64, "velocity": 74, "note_on_time": 13.849, "note_off_time": 14.122}, {"pitch": 64, "velocity": 73, "note_on_time": 14.377, "note_off_time": 14.631}, {"pitch": 60, "velocity": 79, "note_on_time": 14.982, "note_off_time": 15.289}, {"pitch": 64, "velocity": 71, "note_on_time": 15.53, "note_off_time": 16.426}, {"pitch": 60, "velocity": 84, "note_on_time": 16.704, "note_off_time": 17.003}, {"pitch": 62, "velocity": 77, "note_on_time": 17.247, "note_off_time": 17.56}, {"pitch": 62, "velocity": 78, "note_on_time": 18.393, "note_off_time": 18.673}, {"pitch": 62, "velocity": 77, "note_on_time": 18.972, "note_off_time": 19.254}, {"pitch": 62, "velocity": 74, "note_on_time": 19.516, "note_off_time": 20.158}]</notes><guidance name="Guidance Mode">None</guidance><error name="Error value">0.0635518181818183</error></trial></trials></MIDI>