<MIDI midiNo="2022_11_21-19_18_10"><target_notes><notes name="Note List">[{"pitch": 42, "velocity": 80, "note_on_time": 0.004, "note_off_time": 0.405}, {"pitch": 42, "velocity": 80, "note_on_time": 0.405, "note_off_time": 0.821}, {"pitch": 42, "velocity": 80, "note_on_time": 0.821, "note_off_time": 1.225}, {"pitch": 42, "velocity": 80, "note_on_time": 1.226, "note_off_time": 1.631}, {"pitch": 60, "velocity": 80, "note_on_time": 1.631, "note_off_time": 2.036}, {"pitch": 42, "velocity": 80, "note_on_time": 1.631, "note_off_time": 2.037}, {"pitch": 42, "velocity": 80, "note_on_time": 2.037, "note_off_time": 2.444}, {"pitch": 64, "velocity": 80, "note_on_time": 2.036, "note_off_time": 2.848}, {"pitch": 42, "velocity": 80, "note_on_time": 2.445, "note_off_time": 2.848}, {"pitch": 42, "velocity": 80, "note_on_time": 2.849, "note_off_time": 3.254}, {"pitch": 62, "velocity": 80, "note_on_time": 3.254, "note_off_time": 3.659}, {"pitch": 42, "velocity": 80, "note_on_time": 3.255, "note_off_time": 3.659}, {"pitch": 62, "velocity": 80, "note_on_time": 3.659, "note_off_time": 4.065}, {"pitch": 42, "velocity": 80, "note_on_time": 3.66, "note_off_time": 4.066}, {"pitch": 60, "velocity": 80, "note_on_time": 4.065, "note_off_time": 4.471}, {"pitch": 42, "velocity": 80, "note_on_time": 4.066, "note_off_time": 4.471}, {"pitch": 60, "velocity": 80, "note_on_time": 4.471, "note_off_time": 4.876}, {"pitch": 42, "velocity": 80, "note_on_time": 4.471, "note_off_time": 4.876}, {"pitch": 62, "velocity": 80, "note_on_time": 4.876, "note_off_time": 5.282}, {"pitch": 42, "velocity": 80, "note_on_time": 4.876, "note_off_time": 5.282}, {"pitch": 60, "velocity": 80, "note_on_time": 5.282, "note_off_time": 5.686}, {"pitch": 42, "velocity": 80, "note_on_time": 5.283, "note_off_time": 5.687}, {"pitch": 62, "velocity": 80, "note_on_time": 5.686, "note_off_time": 6.09}, {"pitch": 42, "velocity": 80, "note_on_time": 5.687, "note_off_time": 6.09}, {"pitch": 62, "velocity": 80, "note_on_time": 6.09, "note_off_time": 6.493}, {"pitch": 42, "velocity": 80, "note_on_time": 6.091, "note_off_time": 6.493}, {"pitch": 62, "velocity": 80, "note_on_time": 6.493, "note_off_time": 6.898}, {"pitch": 42, "velocity": 80, "note_on_time": 6.493, "note_off_time": 6.901}, {"pitch": 42, "velocity": 80, "note_on_time": 6.901, "note_off_time": 7.302}, {"pitch": 62, "velocity": 80, "note_on_time": 6.898, "note_off_time": 7.707}, {"pitch": 42, "velocity": 80, "note_on_time": 7.302, "note_off_time": 7.708}, {"pitch": 64, "velocity": 80, "note_on_time": 7.707, "note_off_time": 8.111}, {"pitch": 42, "velocity": 80, "note_on_time": 7.708, "note_off_time": 8.111}, {"pitch": 60, "velocity": 80, "note_on_time": 8.111, "note_off_time": 8.518}, {"pitch": 42, "velocity": 80, "note_on_time": 8.111, "note_off_time": 8.518}, {"pitch": 60, "velocity": 80, "note_on_time": 8.518, "note_off_time": 8.923}, {"pitch": 42, "velocity": 80, "note_on_time": 8.518, "note_off_time": 8.923}, {"pitch": 42, "velocity": 80, "note_on_time": 8.923, "note_off_time": 9.329}, {"pitch": 60, "velocity": 80, "note_on_time": 9.329, "note_off_time": 9.732}, {"pitch": 42, "velocity": 80, "note_on_time": 9.329, "note_off_time": 9.732}, {"pitch": 64, "velocity": 80, "note_on_time": 9.732, "note_off_time": 10.135}, {"pitch": 42, "velocity": 80, "note_on_time": 9.732, "note_off_time": 10.135}, {"pitch": 62, "velocity": 80, "note_on_time": 10.135, "note_off_time": 10.538}, {"pitch": 42, "velocity": 80, "note_on_time": 10.135, "note_off_time": 10.538}, {"pitch": 62, "velocity": 80, "note_on_time": 10.538, "note_off_time": 10.944}, {"pitch": 42, "velocity": 80, "note_on_time": 10.538, "note_off_time": 10.944}, {"pitch": 64, "velocity": 80, "note_on_time": 10.944, "note_off_time": 11.349}, {"pitch": 42, "velocity": 80, "note_on_time": 10.945, "note_off_time": 11.349}, {"pitch": 64, "velocity": 80, "note_on_time": 11.349, "note_off_time": 11.752}, {"pitch": 42, "velocity": 80, "note_on_time": 11.349, "note_off_time": 11.753}, {"pitch": 64, "velocity": 80, "note_on_time": 11.752, "note_off_time": 12.157}, {"pitch": 42, "velocity": 80, "note_on_time": 11.753, "note_off_time": 12.157}, {"pitch": 62, "velocity": 80, "note_on_time": 12.157, "note_off_time": 12.559}, {"pitch": 42, "velocity": 80, "note_on_time": 12.157, "note_off_time": 12.559}, {"pitch": 60, "velocity": 80, "note_on_time": 12.559, "note_off_time": 12.964}, {"pitch": 42, "velocity": 80, "note_on_time": 12.559, "note_off_time": 12.964}, {"pitch": 42, "velocity": 80, "note_on_time": 12.964, "note_off_time": 13.369}, {"pitch": 60, "velocity": 80, "note_on_time": 13.368, "note_off_time": 13.774}, {"pitch": 42, "velocity": 80, "note_on_time": 13.369, "note_off_time": 13.775}, {"pitch": 60, "velocity": 80, "note_on_time": 13.774, "note_off_time": 14.18}, {"pitch": 42, "velocity": 80, "note_on_time": 13.775, "note_off_time": 14.18}, {"pitch": 60, "velocity": 80, "note_on_time": 14.18, "note_off_time": 14.584}, {"pitch": 42, "velocity": 80, "note_on_time": 14.18, "note_off_time": 14.584}]</notes><options name="Option List">((4, 4), [0.5, 0.25], 3, 8, &lt;NoteRangePerHand.THREE_NOTES: 4&gt;, &lt;NoteRangePerHand.ONE_NOTE: 2&gt;, False, True, False, '150')</options></target_notes><trials><trial trial_no="1" timestamp="2022_11_21-19_17_53"><notes name="Played Notes">[{"pitch": 60, "velocity": 84, "note_on_time": 1.677, "note_off_time": 2.15}, {"pitch": 64, "velocity": 79, "note_on_time": 2.089, "note_off_time": 3.123}, {"pitch": 62, "velocity": 78, "note_on_time": 4.04, "note_off_time": 4.262}, {"pitch": 62, "velocity": 82, "note_on_time": 4.466, "note_off_time": 4.758}, {"pitch": 60, "velocity": 87, "note_on_time": 4.854, "note_off_time": 5.021}, {"pitch": 60, "velocity": 82, "note_on_time": 5.267, "note_off_time": 5.493}, {"pitch": 62, "velocity": 82, "note_on_time": 5.652, "note_off_time": 5.906}, {"pitch": 60, "velocity": 82, "note_on_time": 6.029, "note_off_time": 6.228}, {"pitch": 62, "velocity": 79, "note_on_time": 6.437, "note_off_time": 6.614}, {"pitch": 62, "velocity": 77, "note_on_time": 6.849, "note_off_time": 7.029}, {"pitch": 62, "velocity": 80, "note_on_time": 7.257, "note_off_time": 7.451}, {"pitch": 62, "velocity": 93, "note_on_time": 7.654, "note_off_time": 8.343}, {"pitch": 62, "velocity": 73, "note_on_time": 8.657, "note_off_time": 8.743}, {"pitch": 64, "velocity": 42, "note_on_time": 8.739, "note_off_time": 8.946}, {"pitch": 62, "velocity": 60, "note_on_time": 9.275, "note_off_time": 9.364}, {"pitch": 60, "velocity": 72, "note_on_time": 9.316, "note_off_time": 9.529}, {"pitch": 60, "velocity": 86, "note_on_time": 9.684, "note_off_time": 9.901}, {"pitch": 60, "velocity": 87, "note_on_time": 10.126, "note_off_time": 10.365}, {"pitch": 60, "velocity": 74, "note_on_time": 11.311, "note_off_time": 11.837}, {"pitch": 64, "velocity": 64, "note_on_time": 11.778, "note_off_time": 12.012}, {"pitch": 62, "velocity": 64, "note_on_time": 12.136, "note_off_time": 12.265}, {"pitch": 62, "velocity": 70, "note_on_time": 12.544, "note_off_time": 12.672}, {"pitch": 64, "velocity": 75, "note_on_time": 12.896, "note_off_time": 13.118}, {"pitch": 62, "velocity": 72, "note_on_time": 13.283, "note_off_time": 13.446}, {"pitch": 62, "velocity": 76, "note_on_time": 13.718, "note_off_time": 13.889}, {"pitch": 62, "velocity": 67, "note_on_time": 14.089, "note_off_time": 14.375}]</notes><guidance name="Guidance Mode">None</guidance><error name="Error value">0.6442083333333337</error></trial><trial trial_no="2" timestamp="2022_11_21-19_18_22"><notes name="Played Notes">[{"pitch": 60, "velocity": 78, "note_on_time": 1.595, "note_off_time": 2.064}, {"pitch": 64, "velocity": 82, "note_on_time": 2.021, "note_off_time": 2.344}, {"pitch": 62, "velocity": 87, "note_on_time": 2.884, "note_off_time": 3.045}, {"pitch": 62, "velocity": 77, "note_on_time": 3.283, "note_off_time": 3.454}, {"pitch": 60, "velocity": 74, "note_on_time": 3.719, "note_off_time": 3.898}, {"pitch": 60, "velocity": 89, "note_on_time": 4.101, "note_off_time": 4.407}, {"pitch": 62, "velocity": 80, "note_on_time": 4.465, "note_off_time": 4.608}, {"pitch": 60, "velocity": 79, "note_on_time": 4.835, "note_off_time": 5.015}, {"pitch": 62, "velocity": 70, "note_on_time": 5.212, "note_off_time": 5.357}, {"pitch": 62, "velocity": 73, "note_on_time": 5.629, "note_off_time": 5.781}, {"pitch": 62, "velocity": 79, "note_on_time": 6.038, "note_off_time": 6.184}, {"pitch": 62, "velocity": 86, "note_on_time": 6.412, "note_off_time": 6.93}, {"pitch": 60, "velocity": 71, "note_on_time": 7.253, "note_off_time": 7.362}, {"pitch": 62, "velocity": 82, "note_on_time": 7.761, "note_off_time": 7.874}, {"pitch": 60, "velocity": 82, "note_on_time": 8.15, "note_off_time": 8.245}, {"pitch": 60, "velocity": 77, "note_on_time": 8.532, "note_off_time": 8.663}, {"pitch": 60, "velocity": 78, "note_on_time": 9.428, "note_off_time": 9.795}, {"pitch": 64, "velocity": 72, "note_on_time": 10.25, "note_off_time": 10.449}, {"pitch": 62, "velocity": 51, "note_on_time": 10.624, "note_off_time": 10.751}, {"pitch": 62, "velocity": 62, "note_on_time": 10.986, "note_off_time": 11.123}, {"pitch": 64, "velocity": 70, "note_on_time": 11.384, "note_off_time": 11.541}, {"pitch": 62, "velocity": 52, "note_on_time": 11.794, "note_off_time": 11.884}, {"pitch": 64, "velocity": 67, "note_on_time": 12.191, "note_off_time": 12.308}, {"pitch": 64, "velocity": 15, "note_on_time": 12.656, "note_off_time": 13.065}, {"pitch": 62, "velocity": 57, "note_on_time": 13.024, "note_off_time": 13.333}, {"pitch": 60, "velocity": 65, "note_on_time": 13.375, "note_off_time": 13.629}, {"pitch": 60, "velocity": 40, "note_on_time": 13.77, "note_off_time": 13.853}, {"pitch": 60, "velocity": 67, "note_on_time": 14.167, "note_off_time": 14.303}]</notes><guidance name="Guidance Mode">None</guidance><error name="Error value">0.41266666666666685</error></trial><trial trial_no="3" timestamp="2022_11_21-19_18_49"><notes name="Played Notes">[{"pitch": 60, "velocity": 78, "note_on_time": 1.634, "note_off_time": 2.034}, {"pitch": 64, "velocity": 77, "note_on_time": 2.033, "note_off_time": 2.341}, {"pitch": 62, "velocity": 77, "note_on_time": 2.906, "note_off_time": 3.049}, {"pitch": 62, "velocity": 75, "note_on_time": 3.28, "note_off_time": 3.567}, {"pitch": 60, "velocity": 79, "note_on_time": 3.643, "note_off_time": 3.785}, {"pitch": 60, "velocity": 82, "note_on_time": 4.024, "note_off_time": 4.234}, {"pitch": 62, "velocity": 76, "note_on_time": 4.406, "note_off_time": 4.58}, {"pitch": 60, "velocity": 72, "note_on_time": 4.769, "note_off_time": 4.988}, {"pitch": 62, "velocity": 69, "note_on_time": 5.182, "note_off_time": 5.351}, {"pitch": 62, "velocity": 72, "note_on_time": 5.6, "note_off_time": 5.749}, {"pitch": 62, "velocity": 80, "note_on_time": 6.0, "note_off_time": 6.158}, {"pitch": 62, "velocity": 87, "note_on_time": 6.389, "note_off_time": 7.007}, {"pitch": 64, "velocity": 78, "note_on_time": 7.425, "note_off_time": 7.646}, {"pitch": 60, "velocity": 77, "note_on_time": 7.758, "note_off_time": 7.909}, {"pitch": 60, "velocity": 79, "note_on_time": 8.158, "note_off_time": 8.358}, {"pitch": 60, "velocity": 84, "note_on_time": 8.941, "note_off_time": 9.175}, {"pitch": 64, "velocity": 79, "note_on_time": 9.326, "note_off_time": 9.481}, {"pitch": 62, "velocity": 72, "note_on_time": 9.69, "note_off_time": 9.824}, {"pitch": 62, "velocity": 67, "note_on_time": 10.085, "note_off_time": 10.3}, {"pitch": 64, "velocity": 77, "note_on_time": 10.479, "note_off_time": 10.737}, {"pitch": 64, "velocity": 73, "note_on_time": 11.05, "note_off_time": 11.183}, {"pitch": 64, "velocity": 59, "note_on_time": 11.415, "note_off_time": 11.79}, {"pitch": 62, "velocity": 59, "note_on_time": 11.802, "note_off_time": 12.04}, {"pitch": 60, "velocity": 73, "note_on_time": 12.15, "note_off_time": 12.417}, {"pitch": 60, "velocity": 74, "note_on_time": 12.987, "note_off_time": 13.134}, {"pitch": 60, "velocity": 78, "note_on_time": 13.357, "note_off_time": 13.487}, {"pitch": 60, "velocity": 87, "note_on_time": 13.725, "note_off_time": 13.818}]</notes><guidance name="Guidance Mode">None</guidance><error name="Error value">0.052458333333333544</error></trial></trials></MIDI>