<MIDI midiNo="2022_08_17-12_53_21"><target_notes><notes name="Note List">[{"pitch": 42, "velocity": 80, "note_on_time": 0.004, "note_off_time": 0.255}, {"pitch": 42, "velocity": 80, "note_on_time": 0.256, "note_off_time": 0.504}, {"pitch": 42, "velocity": 80, "note_on_time": 0.504, "note_off_time": 0.752}, {"pitch": 42, "velocity": 80, "note_on_time": 0.752, "note_off_time": 1.002}, {"pitch": 60, "velocity": 80, "note_on_time": 1.001, "note_off_time": 1.249}, {"pitch": 42, "velocity": 80, "note_on_time": 1.002, "note_off_time": 1.249}, {"pitch": 67, "velocity": 80, "note_on_time": 1.249, "note_off_time": 1.5}, {"pitch": 42, "velocity": 80, "note_on_time": 1.249, "note_off_time": 1.5}, {"pitch": 60, "velocity": 80, "note_on_time": 1.5, "note_off_time": 1.75}, {"pitch": 42, "velocity": 80, "note_on_time": 1.5, "note_off_time": 1.751}, {"pitch": 62, "velocity": 80, "note_on_time": 1.75, "note_off_time": 2.001}, {"pitch": 42, "velocity": 80, "note_on_time": 1.751, "note_off_time": 2.001}, {"pitch": 65, "velocity": 80, "note_on_time": 2.001, "note_off_time": 2.249}, {"pitch": 42, "velocity": 80, "note_on_time": 2.001, "note_off_time": 2.249}, {"pitch": 42, "velocity": 80, "note_on_time": 2.25, "note_off_time": 2.498}, {"pitch": 64, "velocity": 80, "note_on_time": 2.249, "note_off_time": 2.747}, {"pitch": 42, "velocity": 80, "note_on_time": 2.499, "note_off_time": 2.747}, {"pitch": 67, "velocity": 80, "note_on_time": 2.747, "note_off_time": 2.999}, {"pitch": 42, "velocity": 80, "note_on_time": 2.747, "note_off_time": 2.999}, {"pitch": 67, "velocity": 80, "note_on_time": 2.999, "note_off_time": 3.247}, {"pitch": 42, "velocity": 80, "note_on_time": 2.999, "note_off_time": 3.248}, {"pitch": 65, "velocity": 80, "note_on_time": 3.247, "note_off_time": 3.496}, {"pitch": 42, "velocity": 80, "note_on_time": 3.248, "note_off_time": 3.496}, {"pitch": 67, "velocity": 80, "note_on_time": 3.496, "note_off_time": 3.744}, {"pitch": 42, "velocity": 80, "note_on_time": 3.496, "note_off_time": 3.744}, {"pitch": 60, "velocity": 80, "note_on_time": 3.744, "note_off_time": 3.993}, {"pitch": 42, "velocity": 80, "note_on_time": 3.744, "note_off_time": 3.994}, {"pitch": 42, "velocity": 80, "note_on_time": 3.994, "note_off_time": 4.243}, {"pitch": 62, "velocity": 80, "note_on_time": 3.993, "note_off_time": 4.49}, {"pitch": 42, "velocity": 80, "note_on_time": 4.243, "note_off_time": 4.491}, {"pitch": 42, "velocity": 80, "note_on_time": 4.491, "note_off_time": 4.742}, {"pitch": 60, "velocity": 80, "note_on_time": 4.742, "note_off_time": 4.989}, {"pitch": 42, "velocity": 80, "note_on_time": 4.742, "note_off_time": 4.989}, {"pitch": 60, "velocity": 80, "note_on_time": 4.989, "note_off_time": 5.239}, {"pitch": 42, "velocity": 80, "note_on_time": 4.99, "note_off_time": 5.239}, {"pitch": 65, "velocity": 80, "note_on_time": 5.239, "note_off_time": 5.49}, {"pitch": 42, "velocity": 80, "note_on_time": 5.239, "note_off_time": 5.49}, {"pitch": 64, "velocity": 80, "note_on_time": 5.49, "note_off_time": 5.739}, {"pitch": 42, "velocity": 80, "note_on_time": 5.49, "note_off_time": 5.739}, {"pitch": 65, "velocity": 80, "note_on_time": 5.739, "note_off_time": 5.989}, {"pitch": 42, "velocity": 80, "note_on_time": 5.74, "note_off_time": 5.989}, {"pitch": 67, "velocity": 80, "note_on_time": 5.989, "note_off_time": 6.24}, {"pitch": 42, "velocity": 80, "note_on_time": 5.989, "note_off_time": 6.24}, {"pitch": 60, "velocity": 80, "note_on_time": 6.24, "note_off_time": 6.489}, {"pitch": 42, "velocity": 80, "note_on_time": 6.241, "note_off_time": 6.49}, {"pitch": 67, "velocity": 80, "note_on_time": 6.49, "note_off_time": 6.74}, {"pitch": 42, "velocity": 80, "note_on_time": 6.49, "note_off_time": 6.741}, {"pitch": 62, "velocity": 80, "note_on_time": 6.74, "note_off_time": 6.989}, {"pitch": 42, "velocity": 80, "note_on_time": 6.741, "note_off_time": 6.989}, {"pitch": 42, "velocity": 80, "note_on_time": 6.99, "note_off_time": 7.24}, {"pitch": 65, "velocity": 80, "note_on_time": 6.989, "note_off_time": 7.49}, {"pitch": 42, "velocity": 80, "note_on_time": 7.24, "note_off_time": 7.49}, {"pitch": 42, "velocity": 80, "note_on_time": 7.49, "note_off_time": 7.741}, {"pitch": 42, "velocity": 80, "note_on_time": 7.742, "note_off_time": 7.989}, {"pitch": 42, "velocity": 80, "note_on_time": 7.989, "note_off_time": 8.239}, {"pitch": 65, "velocity": 80, "note_on_time": 8.239, "note_off_time": 8.489}, {"pitch": 42, "velocity": 80, "note_on_time": 8.239, "note_off_time": 8.489}, {"pitch": 65, "velocity": 80, "note_on_time": 8.489, "note_off_time": 8.739}, {"pitch": 42, "velocity": 80, "note_on_time": 8.489, "note_off_time": 8.74}, {"pitch": 65, "velocity": 80, "note_on_time": 8.739, "note_off_time": 8.986}, {"pitch": 42, "velocity": 80, "note_on_time": 8.74, "note_off_time": 8.987}]</notes><options name="Option List">((4, 4), [0.5, 0.25], 3, 8, &lt;NoteRangePerHand.C_TO_G: 6&gt;, &lt;NoteRangePerHand.ONE_NOTE: 2&gt;, False, True, True, 248)</options></target_notes><trials><trial trial_no="1" timestamp="2022_08_17-12_53_11"><notes name="Played Notes">[{"pitch": 60, "velocity": 48, "note_on_time": 1.034, "note_off_time": 1.288}, {"pitch": 67, "velocity": 56, "note_on_time": 1.301, "note_off_time": 1.543}, {"pitch": 60, "velocity": 52, "note_on_time": 1.57, "note_off_time": 1.778}, {"pitch": 62, "velocity": 56, "note_on_time": 1.803, "note_off_time": 2.059}, {"pitch": 65, "velocity": 54, "note_on_time": 2.065, "note_off_time": 2.333}, {"pitch": 64, "velocity": 66, "note_on_time": 2.333, "note_off_time": 2.816}, {"pitch": 67, "velocity": 64, "note_on_time": 2.826, "note_off_time": 2.923}, {"pitch": 67, "velocity": 58, "note_on_time": 3.102, "note_off_time": 3.307}, {"pitch": 65, "velocity": 44, "note_on_time": 3.354, "note_off_time": 3.607}, {"pitch": 67, "velocity": 59, "note_on_time": 3.605, "note_off_time": 3.812}, {"pitch": 60, "velocity": 38, "note_on_time": 3.858, "note_off_time": 4.111}, {"pitch": 62, "velocity": 54, "note_on_time": 4.127, "note_off_time": 4.502}, {"pitch": 60, "velocity": 51, "note_on_time": 4.705, "note_off_time": 4.786}, {"pitch": 60, "velocity": 51, "note_on_time": 4.999, "note_off_time": 5.235}, {"pitch": 65, "velocity": 54, "note_on_time": 5.263, "note_off_time": 5.462}, {"pitch": 64, "velocity": 49, "note_on_time": 5.527, "note_off_time": 5.783}, {"pitch": 65, "velocity": 56, "note_on_time": 5.778, "note_off_time": 6.01}, {"pitch": 67, "velocity": 50, "note_on_time": 6.028, "note_off_time": 6.222}, {"pitch": 60, "velocity": 38, "note_on_time": 6.3, "note_off_time": 6.563}, {"pitch": 67, "velocity": 47, "note_on_time": 6.565, "note_off_time": 6.801}, {"pitch": 62, "velocity": 40, "note_on_time": 6.823, "note_off_time": 7.102}, {"pitch": 65, "velocity": 59, "note_on_time": 7.084, "note_off_time": 7.441}, {"pitch": 65, "velocity": 58, "note_on_time": 8.176, "note_off_time": 8.26}, {"pitch": 65, "velocity": 68, "note_on_time": 8.433, "note_off_time": 8.534}, {"pitch": 65, "velocity": 73, "note_on_time": 8.699, "note_off_time": 8.768}]</notes><guidance name="Guidance Mode">None</guidance><error name="Error value">0.03244750000000007</error></trial><trial trial_no="2" timestamp="2022_08_17-12_53_31"><notes name="Played Notes">[{"pitch": 60, "velocity": 60, "note_on_time": 1.038, "note_off_time": 1.316}, {"pitch": 67, "velocity": 54, "note_on_time": 1.311, "note_off_time": 1.559}, {"pitch": 60, "velocity": 59, "note_on_time": 1.562, "note_off_time": 1.843}, {"pitch": 62, "velocity": 49, "note_on_time": 1.841, "note_off_time": 2.125}, {"pitch": 65, "velocity": 58, "note_on_time": 2.118, "note_off_time": 2.396}, {"pitch": 64, "velocity": 62, "note_on_time": 2.39, "note_off_time": 2.916}, {"pitch": 67, "velocity": 62, "note_on_time": 2.953, "note_off_time": 3.033}, {"pitch": 67, "velocity": 61, "note_on_time": 3.246, "note_off_time": 3.402}, {"pitch": 65, "velocity": 54, "note_on_time": 3.495, "note_off_time": 3.749}, {"pitch": 67, "velocity": 61, "note_on_time": 3.765, "note_off_time": 3.934}, {"pitch": 60, "velocity": 48, "note_on_time": 4.023, "note_off_time": 4.292}, {"pitch": 62, "velocity": 56, "note_on_time": 4.302, "note_off_time": 4.629}, {"pitch": 60, "velocity": 57, "note_on_time": 4.862, "note_off_time": 4.962}, {"pitch": 60, "velocity": 54, "note_on_time": 5.129, "note_off_time": 5.22}, {"pitch": 65, "velocity": 56, "note_on_time": 5.379, "note_off_time": 5.568}, {"pitch": 64, "velocity": 49, "note_on_time": 5.628, "note_off_time": 5.92}, {"pitch": 65, "velocity": 50, "note_on_time": 5.914, "note_off_time": 6.177}, {"pitch": 67, "velocity": 62, "note_on_time": 6.168, "note_off_time": 6.378}, {"pitch": 60, "velocity": 49, "note_on_time": 6.444, "note_off_time": 6.695}, {"pitch": 67, "velocity": 46, "note_on_time": 6.694, "note_off_time": 6.937}, {"pitch": 62, "velocity": 51, "note_on_time": 6.961, "note_off_time": 7.267}, {"pitch": 65, "velocity": 58, "note_on_time": 7.252, "note_off_time": 7.595}, {"pitch": 65, "velocity": 64, "note_on_time": 8.406, "note_off_time": 8.483}, {"pitch": 65, "velocity": 64, "note_on_time": 8.662, "note_off_time": 8.757}]</notes><guidance name="Guidance Mode">None</guidance><error name="Error value">0.0932202272727273</error></trial><trial trial_no="3" timestamp="2022_08_17-12_53_51"><notes name="Played Notes">[{"pitch": 60, "velocity": 56, "note_on_time": 1.045, "note_off_time": 1.338}, {"pitch": 67, "velocity": 66, "note_on_time": 1.314, "note_off_time": 1.525}, {"pitch": 60, "velocity": 51, "note_on_time": 1.561, "note_off_time": 1.849}, {"pitch": 62, "velocity": 48, "note_on_time": 1.842, "note_off_time": 2.141}, {"pitch": 65, "velocity": 64, "note_on_time": 2.122, "note_off_time": 2.399}, {"pitch": 64, "velocity": 58, "note_on_time": 2.397, "note_off_time": 2.915}, {"pitch": 67, "velocity": 61, "note_on_time": 2.904, "note_off_time": 3.008}, {"pitch": 67, "velocity": 66, "note_on_time": 3.182, "note_off_time": 3.397}, {"pitch": 65, "velocity": 57, "note_on_time": 3.431, "note_off_time": 3.695}, {"pitch": 67, "velocity": 62, "note_on_time": 3.701, "note_off_time": 3.937}, {"pitch": 60, "velocity": 49, "note_on_time": 3.948, "note_off_time": 4.222}, {"pitch": 62, "velocity": 56, "note_on_time": 4.221, "note_off_time": 4.603}, {"pitch": 60, "velocity": 62, "note_on_time": 4.831, "note_off_time": 4.936}, {"pitch": 60, "velocity": 51, "note_on_time": 5.091, "note_off_time": 5.324}, {"pitch": 65, "velocity": 61, "note_on_time": 5.336, "note_off_time": 5.538}, {"pitch": 64, "velocity": 45, "note_on_time": 5.569, "note_off_time": 5.853}, {"pitch": 65, "velocity": 59, "note_on_time": 5.845, "note_off_time": 6.098}, {"pitch": 67, "velocity": 64, "note_on_time": 6.091, "note_off_time": 6.306}, {"pitch": 60, "velocity": 51, "note_on_time": 6.348, "note_off_time": 6.618}, {"pitch": 67, "velocity": 58, "note_on_time": 6.604, "note_off_time": 6.836}, {"pitch": 62, "velocity": 51, "note_on_time": 6.851, "note_off_time": 7.143}, {"pitch": 65, "velocity": 66, "note_on_time": 7.136, "note_off_time": 7.446}, {"pitch": 65, "velocity": 69, "note_on_time": 8.005, "note_off_time": 8.105}, {"pitch": 65, "velocity": 63, "note_on_time": 8.276, "note_off_time": 8.372}, {"pitch": 65, "velocity": 74, "note_on_time": 8.541, "note_off_time": 8.616}]</notes><guidance name="Guidance Mode">None</guidance><error name="Error value">0.04212931818181826</error></trial></trials></MIDI>