<MIDI midiNo="20220202-124132"><target_notes><notes name="Note List">[{"pitch": 62, "velocity": 100, "note_on_time": 2.424, "note_off_time": 3.029}, {"pitch": 62, "velocity": 100, "note_on_time": 3.029, "note_off_time": 3.633}, {"pitch": 62, "velocity": 100, "note_on_time": 3.633, "note_off_time": 4.238}, {"pitch": 60, "velocity": 100, "note_on_time": 4.843, "note_off_time": 6.053}, {"pitch": 60, "velocity": 100, "note_on_time": 6.657, "note_off_time": 7.262}, {"pitch": 62, "velocity": 100, "note_on_time": 7.262, "note_off_time": 7.865}, {"pitch": 62, "velocity": 100, "note_on_time": 7.865, "note_off_time": 8.469}, {"pitch": 60, "velocity": 100, "note_on_time": 8.469, "note_off_time": 9.074}, {"pitch": 60, "velocity": 100, "note_on_time": 9.074, "note_off_time": 9.678}, {"pitch": 60, "velocity": 100, "note_on_time": 9.678, "note_off_time": 10.281}, {"pitch": 60, "velocity": 100, "note_on_time": 10.282, "note_off_time": 10.886}, {"pitch": 60, "velocity": 100, "note_on_time": 10.886, "note_off_time": 11.491}, {"pitch": 62, "velocity": 100, "note_on_time": 11.491, "note_off_time": 12.096}, {"pitch": 62, "velocity": 100, "note_on_time": 12.096, "note_off_time": 12.701}, {"pitch": 60, "velocity": 100, "note_on_time": 12.701, "note_off_time": 13.304}, {"pitch": 62, "velocity": 100, "note_on_time": 13.305, "note_off_time": 13.91}, {"pitch": 60, "velocity": 100, "note_on_time": 13.91, "note_off_time": 14.515}, {"pitch": 62, "velocity": 100, "note_on_time": 14.515, "note_off_time": 15.119}, {"pitch": 60, "velocity": 100, "note_on_time": 15.119, "note_off_time": 15.723}, {"pitch": 62, "velocity": 100, "note_on_time": 15.724, "note_off_time": 16.329}, {"pitch": 62, "velocity": 100, "note_on_time": 16.329, "note_off_time": 16.931}, {"pitch": 62, "velocity": 100, "note_on_time": 17.536, "note_off_time": 18.141}, {"pitch": 62, "velocity": 100, "note_on_time": 18.142, "note_off_time": 18.746}, {"pitch": 62, "velocity": 100, "note_on_time": 18.746, "note_off_time": 19.351}]</notes><options name="Option List">((4, 4), [0.5, 0.25], 3, 7, &lt;NoteRangePerHand.TWO_NOTES: 3&gt;, &lt;NoteRangePerHand.ONE_NOTE: 2&gt;, False, True, True, 100)</options></target_notes><trials><trial trial_no="1" timestamp="20220202-124110"><notes name="Played Notes">[{"pitch": 62, "velocity": 100, "note_on_time": 2.378, "note_off_time": 2.709}, {"pitch": 62, "velocity": 100, "note_on_time": 2.988, "note_off_time": 3.316}, {"pitch": 62, "velocity": 100, "note_on_time": 3.624, "note_off_time": 3.944}, {"pitch": 62, "velocity": 100, "note_on_time": 4.253, "note_off_time": 4.621}, {"pitch": 60, "velocity": 100, "note_on_time": 5.431, "note_off_time": 6.211}, {"pitch": 60, "velocity": 100, "note_on_time": 6.676, "note_off_time": 7.024}, {"pitch": 62, "velocity": 100, "note_on_time": 7.244, "note_off_time": 7.614}, {"pitch": 62, "velocity": 100, "note_on_time": 7.887, "note_off_time": 8.171}, {"pitch": 60, "velocity": 100, "note_on_time": 8.463, "note_off_time": 8.797}, {"pitch": 60, "velocity": 100, "note_on_time": 9.065, "note_off_time": 9.372}, {"pitch": 60, "velocity": 100, "note_on_time": 9.687, "note_off_time": 9.935}, {"pitch": 60, "velocity": 100, "note_on_time": 10.301, "note_off_time": 10.526}, {"pitch": 60, "velocity": 100, "note_on_time": 10.865, "note_off_time": 11.165}, {"pitch": 62, "velocity": 100, "note_on_time": 11.448, "note_off_time": 11.799}, {"pitch": 62, "velocity": 100, "note_on_time": 12.088, "note_off_time": 12.365}, {"pitch": 60, "velocity": 100, "note_on_time": 12.669, "note_off_time": 12.942}, {"pitch": 62, "velocity": 100, "note_on_time": 13.255, "note_off_time": 13.541}, {"pitch": 60, "velocity": 100, "note_on_time": 13.88, "note_off_time": 14.168}, {"pitch": 62, "velocity": 100, "note_on_time": 14.467, "note_off_time": 14.795}, {"pitch": 60, "velocity": 100, "note_on_time": 15.104, "note_off_time": 15.41}, {"pitch": 62, "velocity": 100, "note_on_time": 15.713, "note_off_time": 15.981}, {"pitch": 62, "velocity": 100, "note_on_time": 16.317, "note_off_time": 16.627}, {"pitch": 62, "velocity": 100, "note_on_time": 17.527, "note_off_time": 17.768}, {"pitch": 62, "velocity": 100, "note_on_time": 18.124, "note_off_time": 18.317}, {"pitch": 61, "velocity": 100, "note_on_time": 18.658, "note_off_time": 18.761}, {"pitch": 62, "velocity": 100, "note_on_time": 18.651, "note_off_time": 19.004}]</notes><guidance name="Guidance Mode">None</guidance><error name="Error value">25.684452380952383</error></trial></trials></MIDI>