<MIDI midiNo="2022_10_27-10_24_46"><target_notes><notes name="Note List">[{"pitch": 42, "velocity": 80, "note_on_time": 0.004, "note_off_time": 0.617}, {"pitch": 42, "velocity": 80, "note_on_time": 0.618, "note_off_time": 1.221}, {"pitch": 42, "velocity": 80, "note_on_time": 1.221, "note_off_time": 1.83}, {"pitch": 42, "velocity": 80, "note_on_time": 1.83, "note_off_time": 2.44}, {"pitch": 60, "velocity": 80, "note_on_time": 2.44, "note_off_time": 3.052}, {"pitch": 42, "velocity": 80, "note_on_time": 2.44, "note_off_time": 3.052}, {"pitch": 60, "velocity": 80, "note_on_time": 3.052, "note_off_time": 3.659}, {"pitch": 42, "velocity": 80, "note_on_time": 3.053, "note_off_time": 3.66}, {"pitch": 60, "velocity": 80, "note_on_time": 3.66, "note_off_time": 4.267}, {"pitch": 42, "velocity": 80, "note_on_time": 3.66, "note_off_time": 4.267}, {"pitch": 42, "velocity": 80, "note_on_time": 4.267, "note_off_time": 4.873}, {"pitch": 62, "velocity": 80, "note_on_time": 4.873, "note_off_time": 5.479}, {"pitch": 42, "velocity": 80, "note_on_time": 4.873, "note_off_time": 5.48}, {"pitch": 60, "velocity": 80, "note_on_time": 5.479, "note_off_time": 6.087}, {"pitch": 42, "velocity": 80, "note_on_time": 5.48, "note_off_time": 6.087}, {"pitch": 62, "velocity": 80, "note_on_time": 6.087, "note_off_time": 6.696}, {"pitch": 42, "velocity": 80, "note_on_time": 6.088, "note_off_time": 6.696}, {"pitch": 62, "velocity": 80, "note_on_time": 6.696, "note_off_time": 7.304}, {"pitch": 42, "velocity": 80, "note_on_time": 6.696, "note_off_time": 7.304}, {"pitch": 60, "velocity": 80, "note_on_time": 7.304, "note_off_time": 7.913}, {"pitch": 42, "velocity": 80, "note_on_time": 7.304, "note_off_time": 7.914}, {"pitch": 60, "velocity": 80, "note_on_time": 7.913, "note_off_time": 8.521}, {"pitch": 42, "velocity": 80, "note_on_time": 7.915, "note_off_time": 8.521}, {"pitch": 60, "velocity": 80, "note_on_time": 8.521, "note_off_time": 9.126}, {"pitch": 42, "velocity": 80, "note_on_time": 8.522, "note_off_time": 9.126}, {"pitch": 60, "velocity": 80, "note_on_time": 9.126, "note_off_time": 9.736}, {"pitch": 42, "velocity": 80, "note_on_time": 9.127, "note_off_time": 9.736}, {"pitch": 62, "velocity": 80, "note_on_time": 9.736, "note_off_time": 10.343}, {"pitch": 42, "velocity": 80, "note_on_time": 9.737, "note_off_time": 10.343}, {"pitch": 62, "velocity": 80, "note_on_time": 10.343, "note_off_time": 10.952}, {"pitch": 42, "velocity": 80, "note_on_time": 10.343, "note_off_time": 10.952}, {"pitch": 60, "velocity": 80, "note_on_time": 10.952, "note_off_time": 11.558}, {"pitch": 42, "velocity": 80, "note_on_time": 10.953, "note_off_time": 11.558}, {"pitch": 60, "velocity": 80, "note_on_time": 11.558, "note_off_time": 12.165}, {"pitch": 42, "velocity": 80, "note_on_time": 11.559, "note_off_time": 12.165}, {"pitch": 62, "velocity": 80, "note_on_time": 12.165, "note_off_time": 12.773}, {"pitch": 42, "velocity": 80, "note_on_time": 12.166, "note_off_time": 12.773}, {"pitch": 42, "velocity": 80, "note_on_time": 12.774, "note_off_time": 13.379}, {"pitch": 60, "velocity": 80, "note_on_time": 13.379, "note_off_time": 13.984}, {"pitch": 42, "velocity": 80, "note_on_time": 13.38, "note_off_time": 13.984}, {"pitch": 62, "velocity": 80, "note_on_time": 13.984, "note_off_time": 14.593}, {"pitch": 42, "velocity": 80, "note_on_time": 13.984, "note_off_time": 14.593}, {"pitch": 62, "velocity": 80, "note_on_time": 14.593, "note_off_time": 15.199}, {"pitch": 42, "velocity": 80, "note_on_time": 14.593, "note_off_time": 15.199}, {"pitch": 42, "velocity": 80, "note_on_time": 15.2, "note_off_time": 15.808}, {"pitch": 42, "velocity": 80, "note_on_time": 15.809, "note_off_time": 16.413}, {"pitch": 42, "velocity": 80, "note_on_time": 16.414, "note_off_time": 17.023}, {"pitch": 62, "velocity": 80, "note_on_time": 17.023, "note_off_time": 17.629}, {"pitch": 42, "velocity": 80, "note_on_time": 17.023, "note_off_time": 17.63}, {"pitch": 62, "velocity": 80, "note_on_time": 17.629, "note_off_time": 18.235}, {"pitch": 42, "velocity": 80, "note_on_time": 17.63, "note_off_time": 18.236}, {"pitch": 62, "velocity": 80, "note_on_time": 18.235, "note_off_time": 18.845}, {"pitch": 42, "velocity": 80, "note_on_time": 18.236, "note_off_time": 18.845}, {"pitch": 62, "velocity": 80, "note_on_time": 18.845, "note_off_time": 19.452}, {"pitch": 42, "velocity": 80, "note_on_time": 18.846, "note_off_time": 19.452}, {"pitch": 42, "velocity": 80, "note_on_time": 19.452, "note_off_time": 20.059}, {"pitch": 62, "velocity": 80, "note_on_time": 20.059, "note_off_time": 20.665}, {"pitch": 42, "velocity": 80, "note_on_time": 20.06, "note_off_time": 20.665}, {"pitch": 62, "velocity": 80, "note_on_time": 20.665, "note_off_time": 21.272}, {"pitch": 42, "velocity": 80, "note_on_time": 20.666, "note_off_time": 21.272}, {"pitch": 62, "velocity": 80, "note_on_time": 21.272, "note_off_time": 21.882}, {"pitch": 42, "velocity": 80, "note_on_time": 21.273, "note_off_time": 21.882}]</notes><options name="Option List">((4, 4), [0.25], 3, 8, &lt;NoteRangePerHand.TWO_NOTES: 3&gt;, &lt;NoteRangePerHand.ONE_NOTE: 2&gt;, False, True, False, '100')</options></target_notes><trials><trial trial_no="1" timestamp="2022_10_27-10_24_23"><notes name="Played Notes">[{"pitch": 60, "velocity": 39, "note_on_time": 2.573, "note_off_time": 2.752}, {"pitch": 60, "velocity": 48, "note_on_time": 3.124, "note_off_time": 3.266}, {"pitch": 60, "velocity": 47, "note_on_time": 3.696, "note_off_time": 3.875}, {"pitch": 62, "velocity": 17, "note_on_time": 4.87, "note_off_time": 5.058}, {"pitch": 60, "velocity": 43, "note_on_time": 5.393, "note_off_time": 5.561}, {"pitch": 62, "velocity": 45, "note_on_time": 5.935, "note_off_time": 6.1}, {"pitch": 62, "velocity": 51, "note_on_time": 6.493, "note_off_time": 6.661}, {"pitch": 60, "velocity": 49, "note_on_time": 7.052, "note_off_time": 7.195}, {"pitch": 60, "velocity": 45, "note_on_time": 7.571, "note_off_time": 7.745}, {"pitch": 60, "velocity": 50, "note_on_time": 8.131, "note_off_time": 8.299}, {"pitch": 60, "velocity": 45, "note_on_time": 8.677, "note_off_time": 8.858}, {"pitch": 62, "velocity": 45, "note_on_time": 9.231, "note_off_time": 9.402}, {"pitch": 62, "velocity": 53, "note_on_time": 9.778, "note_off_time": 9.952}, {"pitch": 60, "velocity": 49, "note_on_time": 10.351, "note_off_time": 10.507}, {"pitch": 60, "velocity": 41, "note_on_time": 10.879, "note_off_time": 11.082}, {"pitch": 62, "velocity": 58, "note_on_time": 11.386, "note_off_time": 11.565}, {"pitch": 60, "velocity": 47, "note_on_time": 12.684, "note_off_time": 12.841}, {"pitch": 62, "velocity": 42, "note_on_time": 13.275, "note_off_time": 13.437}, {"pitch": 62, "velocity": 49, "note_on_time": 13.876, "note_off_time": 14.059}, {"pitch": 62, "velocity": 39, "note_on_time": 15.991, "note_off_time": 16.123}, {"pitch": 62, "velocity": 38, "note_on_time": 16.528, "note_off_time": 16.684}, {"pitch": 62, "velocity": 43, "note_on_time": 17.058, "note_off_time": 17.226}, {"pitch": 62, "velocity": 51, "note_on_time": 17.674, "note_off_time": 17.823}, {"pitch": 62, "velocity": 48, "note_on_time": 19.092, "note_off_time": 19.279}, {"pitch": 62, "velocity": 42, "note_on_time": 19.681, "note_off_time": 19.833}, {"pitch": 62, "velocity": 51, "note_on_time": 20.253, "note_off_time": 20.395}]</notes><guidance name="Guidance Mode">None</guidance><error name="Error value">0.06895652173913014</error></trial><trial trial_no="2" timestamp="2022_10_27-10_25_07"><notes name="Played Notes">[{"pitch": 60, "velocity": 44, "note_on_time": 2.63, "note_off_time": 2.788}, {"pitch": 60, "velocity": 45, "note_on_time": 3.221, "note_off_time": 3.329}, {"pitch": 60, "velocity": 51, "note_on_time": 3.793, "note_off_time": 3.948}, {"pitch": 62, "velocity": 27, "note_on_time": 5.009, "note_off_time": 5.207}, {"pitch": 60, "velocity": 46, "note_on_time": 5.625, "note_off_time": 5.799}, {"pitch": 62, "velocity": 7, "note_on_time": 6.236, "note_off_time": 6.4}, {"pitch": 62, "velocity": 33, "note_on_time": 6.794, "note_off_time": 6.965}, {"pitch": 60, "velocity": 35, "note_on_time": 7.344, "note_off_time": 7.507}, {"pitch": 60, "velocity": 48, "note_on_time": 7.871, "note_off_time": 8.04}, {"pitch": 60, "velocity": 41, "note_on_time": 8.455, "note_off_time": 8.614}, {"pitch": 60, "velocity": 42, "note_on_time": 9.022, "note_off_time": 9.184}, {"pitch": 62, "velocity": 40, "note_on_time": 9.582, "note_off_time": 9.74}, {"pitch": 62, "velocity": 40, "note_on_time": 10.155, "note_off_time": 10.34}, {"pitch": 60, "velocity": 43, "note_on_time": 10.697, "note_off_time": 10.852}, {"pitch": 60, "velocity": 51, "note_on_time": 11.252, "note_off_time": 11.43}, {"pitch": 62, "velocity": 38, "note_on_time": 11.837, "note_off_time": 12.006}, {"pitch": 60, "velocity": 36, "note_on_time": 13.002, "note_off_time": 13.221}, {"pitch": 62, "velocity": 37, "note_on_time": 13.601, "note_off_time": 13.744}, {"pitch": 62, "velocity": 40, "note_on_time": 14.143, "note_off_time": 14.313}, {"pitch": 62, "velocity": 23, "note_on_time": 15.905, "note_off_time": 16.08}, {"pitch": 62, "velocity": 29, "note_on_time": 16.473, "note_off_time": 16.668}, {"pitch": 62, "velocity": 40, "note_on_time": 17.002, "note_off_time": 17.176}, {"pitch": 62, "velocity": 46, "note_on_time": 17.561, "note_off_time": 17.758}, {"pitch": 62, "velocity": 32, "note_on_time": 18.887, "note_off_time": 19.063}, {"pitch": 62, "velocity": 45, "note_on_time": 19.461, "note_off_time": 19.629}, {"pitch": 62, "velocity": 49, "note_on_time": 20.007, "note_off_time": 20.179}]</notes><guidance name="Guidance Mode">None</guidance><error name="Error value">0.06786956521739125</error></trial><trial trial_no="3" timestamp="2022_10_27-10_25_53"><notes name="Played Notes">[{"pitch": 60, "velocity": 51, "note_on_time": 2.879, "note_off_time": 3.062}, {"pitch": 60, "velocity": 45, "note_on_time": 3.428, "note_off_time": 3.565}, {"pitch": 60, "velocity": 46, "note_on_time": 3.975, "note_off_time": 4.166}, {"pitch": 62, "velocity": 41, "note_on_time": 5.324, "note_off_time": 5.511}, {"pitch": 60, "velocity": 46, "note_on_time": 5.924, "note_off_time": 6.077}, {"pitch": 62, "velocity": 40, "note_on_time": 6.528, "note_off_time": 6.708}, {"pitch": 62, "velocity": 51, "note_on_time": 7.126, "note_off_time": 7.3}, {"pitch": 60, "velocity": 41, "note_on_time": 7.726, "note_off_time": 7.887}, {"pitch": 60, "velocity": 46, "note_on_time": 8.245, "note_off_time": 8.415}, {"pitch": 60, "velocity": 40, "note_on_time": 8.777, "note_off_time": 8.946}, {"pitch": 60, "velocity": 45, "note_on_time": 9.33, "note_off_time": 9.49}, {"pitch": 62, "velocity": 34, "note_on_time": 9.896, "note_off_time": 10.078}, {"pitch": 62, "velocity": 46, "note_on_time": 10.473, "note_off_time": 10.648}, {"pitch": 60, "velocity": 40, "note_on_time": 11.072, "note_off_time": 11.239}, {"pitch": 60, "velocity": 50, "note_on_time": 11.634, "note_off_time": 11.81}, {"pitch": 62, "velocity": 51, "note_on_time": 12.169, "note_off_time": 12.395}, {"pitch": 60, "velocity": 48, "note_on_time": 13.701, "note_off_time": 13.87}, {"pitch": 62, "velocity": 47, "note_on_time": 14.231, "note_off_time": 14.418}, {"pitch": 62, "velocity": 27, "note_on_time": 14.747, "note_off_time": 14.943}, {"pitch": 62, "velocity": 36, "note_on_time": 16.759, "note_off_time": 16.957}, {"pitch": 62, "velocity": 43, "note_on_time": 17.303, "note_off_time": 17.469}, {"pitch": 62, "velocity": 44, "note_on_time": 17.843, "note_off_time": 17.991}, {"pitch": 62, "velocity": 51, "note_on_time": 18.498, "note_off_time": 18.678}, {"pitch": 62, "velocity": 34, "note_on_time": 20.035, "note_off_time": 20.214}, {"pitch": 62, "velocity": 43, "note_on_time": 20.585, "note_off_time": 20.752}, {"pitch": 62, "velocity": 26, "note_on_time": 21.266, "note_off_time": 21.466}]</notes><guidance name="Guidance Mode">None</guidance><error name="Error value">0.09256521739130398</error></trial><trial trial_no="4" timestamp="2022_10_27-10_28_19"><notes name="Played Notes">[{"pitch": 60, "velocity": 52, "note_on_time": 2.45, "note_off_time": 2.639}, {"pitch": 60, "velocity": 47, "note_on_time": 3.033, "note_off_time": 3.202}, {"pitch": 60, "velocity": 51, "note_on_time": 3.584, "note_off_time": 3.771}, {"pitch": 62, "velocity": 40, "note_on_time": 4.824, "note_off_time": 5.021}, {"pitch": 60, "velocity": 46, "note_on_time": 5.371, "note_off_time": 5.551}, {"pitch": 62, "velocity": 42, "note_on_time": 5.945, "note_off_time": 6.114}, {"pitch": 62, "velocity": 47, "note_on_time": 6.478, "note_off_time": 6.66}, {"pitch": 60, "velocity": 54, "note_on_time": 7.031, "note_off_time": 7.212}, {"pitch": 60, "velocity": 55, "note_on_time": 7.54, "note_off_time": 7.714}, {"pitch": 60, "velocity": 44, "note_on_time": 8.123, "note_off_time": 8.265}, {"pitch": 60, "velocity": 50, "note_on_time": 8.668, "note_off_time": 8.844}, {"pitch": 62, "velocity": 54, "note_on_time": 9.255, "note_off_time": 9.426}, {"pitch": 62, "velocity": 53, "note_on_time": 9.839, "note_off_time": 10.005}, {"pitch": 60, "velocity": 43, "note_on_time": 10.351, "note_off_time": 10.553}, {"pitch": 60, "velocity": 59, "note_on_time": 10.912, "note_off_time": 11.106}, {"pitch": 62, "velocity": 51, "note_on_time": 11.473, "note_off_time": 11.675}, {"pitch": 60, "velocity": 54, "note_on_time": 12.672, "note_off_time": 12.875}, {"pitch": 62, "velocity": 48, "note_on_time": 13.246, "note_off_time": 13.431}, {"pitch": 62, "velocity": 51, "note_on_time": 13.756, "note_off_time": 13.965}, {"pitch": 62, "velocity": 41, "note_on_time": 15.955, "note_off_time": 16.131}, {"pitch": 62, "velocity": 47, "note_on_time": 16.533, "note_off_time": 16.686}, {"pitch": 62, "velocity": 43, "note_on_time": 17.149, "note_off_time": 17.294}, {"pitch": 62, "velocity": 54, "note_on_time": 17.738, "note_off_time": 17.881}, {"pitch": 62, "velocity": 52, "note_on_time": 19.356, "note_off_time": 19.532}, {"pitch": 62, "velocity": 39, "note_on_time": 19.978, "note_off_time": 20.145}, {"pitch": 62, "velocity": 46, "note_on_time": 20.631, "note_off_time": 20.754}]</notes><guidance name="Guidance Mode">None</guidance><error name="Error value">0.06595652173913001</error></trial><trial trial_no="5" timestamp="2022_10_27-10_28_59"><notes name="Played Notes">[{"pitch": 60, "velocity": 41, "note_on_time": 2.386, "note_off_time": 2.55}, {"pitch": 60, "velocity": 43, "note_on_time": 2.971, "note_off_time": 3.122}, {"pitch": 60, "velocity": 40, "note_on_time": 3.532, "note_off_time": 3.689}, {"pitch": 62, "velocity": 54, "note_on_time": 4.556, "note_off_time": 4.726}, {"pitch": 60, "velocity": 44, "note_on_time": 5.084, "note_off_time": 5.255}, {"pitch": 62, "velocity": 48, "note_on_time": 5.804, "note_off_time": 5.981}, {"pitch": 62, "velocity": 52, "note_on_time": 6.359, "note_off_time": 6.522}, {"pitch": 60, "velocity": 52, "note_on_time": 6.95, "note_off_time": 7.142}, {"pitch": 60, "velocity": 40, "note_on_time": 7.51, "note_off_time": 7.688}, {"pitch": 60, "velocity": 48, "note_on_time": 8.05, "note_off_time": 8.243}, {"pitch": 60, "velocity": 49, "note_on_time": 8.659, "note_off_time": 8.818}, {"pitch": 62, "velocity": 41, "note_on_time": 9.314, "note_off_time": 9.497}, {"pitch": 62, "velocity": 46, "note_on_time": 9.896, "note_off_time": 10.087}, {"pitch": 60, "velocity": 52, "note_on_time": 10.429, "note_off_time": 10.596}, {"pitch": 60, "velocity": 51, "note_on_time": 10.949, "note_off_time": 11.155}, {"pitch": 62, "velocity": 58, "note_on_time": 11.496, "note_off_time": 11.696}, {"pitch": 60, "velocity": 51, "note_on_time": 13.195, "note_off_time": 13.402}, {"pitch": 62, "velocity": 47, "note_on_time": 13.735, "note_off_time": 13.92}, {"pitch": 62, "velocity": 51, "note_on_time": 14.221, "note_off_time": 14.408}, {"pitch": 62, "velocity": 30, "note_on_time": 17.133, "note_off_time": 17.291}, {"pitch": 62, "velocity": 46, "note_on_time": 17.662, "note_off_time": 17.825}, {"pitch": 62, "velocity": 45, "note_on_time": 18.202, "note_off_time": 18.349}, {"pitch": 62, "velocity": 54, "note_on_time": 18.786, "note_off_time": 18.968}, {"pitch": 62, "velocity": 46, "note_on_time": 20.583, "note_off_time": 20.778}, {"pitch": 62, "velocity": 48, "note_on_time": 21.124, "note_off_time": 21.287}, {"pitch": 62, "velocity": 53, "note_on_time": 21.716, "note_off_time": 21.869}]</notes><guidance name="Guidance Mode">None</guidance><error name="Error value">0.12408695652173893</error></trial><trial trial_no="6" timestamp="2022_10_27-10_29_36"><notes name="Played Notes">[{"pitch": 60, "velocity": 49, "note_on_time": 2.404, "note_off_time": 2.557}, {"pitch": 60, "velocity": 58, "note_on_time": 2.996, "note_off_time": 3.151}, {"pitch": 60, "velocity": 57, "note_on_time": 3.613, "note_off_time": 3.789}, {"pitch": 62, "velocity": 34, "note_on_time": 5.294, "note_off_time": 5.462}, {"pitch": 60, "velocity": 61, "note_on_time": 5.861, "note_off_time": 6.035}, {"pitch": 62, "velocity": 41, "note_on_time": 6.428, "note_off_time": 6.595}, {"pitch": 62, "velocity": 53, "note_on_time": 7.036, "note_off_time": 7.204}, {"pitch": 60, "velocity": 54, "note_on_time": 7.604, "note_off_time": 7.775}, {"pitch": 60, "velocity": 51, "note_on_time": 8.121, "note_off_time": 8.297}, {"pitch": 60, "velocity": 53, "note_on_time": 8.7, "note_off_time": 8.869}, {"pitch": 60, "velocity": 51, "note_on_time": 9.463, "note_off_time": 9.629}, {"pitch": 62, "velocity": 47, "note_on_time": 10.093, "note_off_time": 10.256}, {"pitch": 62, "velocity": 40, "note_on_time": 10.64, "note_off_time": 10.812}, {"pitch": 60, "velocity": 60, "note_on_time": 11.251, "note_off_time": 11.426}, {"pitch": 60, "velocity": 51, "note_on_time": 11.837, "note_off_time": 12.028}, {"pitch": 62, "velocity": 52, "note_on_time": 12.398, "note_off_time": 12.59}, {"pitch": 60, "velocity": 46, "note_on_time": 13.542, "note_off_time": 13.743}, {"pitch": 62, "velocity": 49, "note_on_time": 14.18, "note_off_time": 14.347}, {"pitch": 62, "velocity": 54, "note_on_time": 14.762, "note_off_time": 14.95}, {"pitch": 62, "velocity": 39, "note_on_time": 17.155, "note_off_time": 17.337}, {"pitch": 62, "velocity": 48, "note_on_time": 17.711, "note_off_time": 17.869}, {"pitch": 62, "velocity": 52, "note_on_time": 18.239, "note_off_time": 18.404}, {"pitch": 62, "velocity": 55, "note_on_time": 18.849, "note_off_time": 18.983}, {"pitch": 62, "velocity": 47, "note_on_time": 20.729, "note_off_time": 20.904}, {"pitch": 62, "velocity": 56, "note_on_time": 21.319, "note_off_time": 21.452}]</notes><guidance name="Guidance Mode">None</guidance><error name="Error value">0.12526086956521731</error></trial></trials></MIDI>