<MIDI midiNo="2022_11_10-10_51_18"><target_notes><notes name="Note List">[{"pitch": 42, "velocity": 80, "note_on_time": 0.004, "note_off_time": 0.375}, {"pitch": 42, "velocity": 80, "note_on_time": 0.376, "note_off_time": 0.747}, {"pitch": 42, "velocity": 80, "note_on_time": 0.747, "note_off_time": 1.121}, {"pitch": 42, "velocity": 80, "note_on_time": 1.122, "note_off_time": 1.491}, {"pitch": 42, "velocity": 80, "note_on_time": 1.491, "note_off_time": 1.863}, {"pitch": 60, "velocity": 80, "note_on_time": 1.491, "note_off_time": 2.236}, {"pitch": 42, "velocity": 80, "note_on_time": 1.863, "note_off_time": 2.237}, {"pitch": 42, "velocity": 80, "note_on_time": 2.237, "note_off_time": 2.607}, {"pitch": 42, "velocity": 80, "note_on_time": 2.608, "note_off_time": 2.98}, {"pitch": 62, "velocity": 80, "note_on_time": 2.979, "note_off_time": 3.351}, {"pitch": 42, "velocity": 80, "note_on_time": 2.98, "note_off_time": 3.351}, {"pitch": 60, "velocity": 80, "note_on_time": 3.351, "note_off_time": 3.727}, {"pitch": 42, "velocity": 80, "note_on_time": 3.351, "note_off_time": 3.728}, {"pitch": 42, "velocity": 80, "note_on_time": 3.729, "note_off_time": 4.101}, {"pitch": 42, "velocity": 80, "note_on_time": 4.102, "note_off_time": 4.475}, {"pitch": 42, "velocity": 80, "note_on_time": 4.476, "note_off_time": 4.849}, {"pitch": 64, "velocity": 80, "note_on_time": 4.475, "note_off_time": 5.222}, {"pitch": 42, "velocity": 80, "note_on_time": 4.849, "note_off_time": 5.222}, {"pitch": 60, "velocity": 80, "note_on_time": 5.222, "note_off_time": 5.596}, {"pitch": 42, "velocity": 80, "note_on_time": 5.222, "note_off_time": 5.596}, {"pitch": 60, "velocity": 80, "note_on_time": 5.596, "note_off_time": 5.969}, {"pitch": 42, "velocity": 80, "note_on_time": 5.596, "note_off_time": 5.969}, {"pitch": 64, "velocity": 80, "note_on_time": 5.969, "note_off_time": 6.339}, {"pitch": 42, "velocity": 80, "note_on_time": 5.97, "note_off_time": 6.34}, {"pitch": 42, "velocity": 80, "note_on_time": 6.34, "note_off_time": 6.712}, {"pitch": 64, "velocity": 80, "note_on_time": 6.339, "note_off_time": 7.085}, {"pitch": 42, "velocity": 80, "note_on_time": 6.713, "note_off_time": 7.085}, {"pitch": 42, "velocity": 80, "note_on_time": 7.085, "note_off_time": 7.461}, {"pitch": 42, "velocity": 80, "note_on_time": 7.462, "note_off_time": 7.832}, {"pitch": 64, "velocity": 80, "note_on_time": 7.461, "note_off_time": 8.203}, {"pitch": 42, "velocity": 80, "note_on_time": 7.833, "note_off_time": 8.204}, {"pitch": 60, "velocity": 80, "note_on_time": 8.203, "note_off_time": 8.576}, {"pitch": 42, "velocity": 80, "note_on_time": 8.204, "note_off_time": 8.576}, {"pitch": 64, "velocity": 80, "note_on_time": 8.576, "note_off_time": 8.949}, {"pitch": 42, "velocity": 80, "note_on_time": 8.576, "note_off_time": 8.949}, {"pitch": 60, "velocity": 80, "note_on_time": 8.949, "note_off_time": 9.321}, {"pitch": 42, "velocity": 80, "note_on_time": 8.949, "note_off_time": 9.321}, {"pitch": 42, "velocity": 80, "note_on_time": 9.321, "note_off_time": 9.696}, {"pitch": 62, "velocity": 80, "note_on_time": 9.321, "note_off_time": 10.067}, {"pitch": 42, "velocity": 80, "note_on_time": 9.696, "note_off_time": 10.067}, {"pitch": 62, "velocity": 80, "note_on_time": 10.067, "note_off_time": 10.441}, {"pitch": 42, "velocity": 80, "note_on_time": 10.067, "note_off_time": 10.441}, {"pitch": 64, "velocity": 80, "note_on_time": 10.441, "note_off_time": 10.813}, {"pitch": 42, "velocity": 80, "note_on_time": 10.441, "note_off_time": 10.813}, {"pitch": 60, "velocity": 80, "note_on_time": 10.813, "note_off_time": 11.185}, {"pitch": 42, "velocity": 80, "note_on_time": 10.813, "note_off_time": 11.185}, {"pitch": 64, "velocity": 80, "note_on_time": 11.185, "note_off_time": 11.561}, {"pitch": 42, "velocity": 80, "note_on_time": 11.185, "note_off_time": 11.561}, {"pitch": 62, "velocity": 80, "note_on_time": 11.561, "note_off_time": 11.932}, {"pitch": 42, "velocity": 80, "note_on_time": 11.561, "note_off_time": 11.932}, {"pitch": 42, "velocity": 80, "note_on_time": 11.932, "note_off_time": 12.305}, {"pitch": 62, "velocity": 80, "note_on_time": 12.305, "note_off_time": 12.678}, {"pitch": 42, "velocity": 80, "note_on_time": 12.305, "note_off_time": 12.679}, {"pitch": 62, "velocity": 80, "note_on_time": 12.678, "note_off_time": 13.054}, {"pitch": 42, "velocity": 80, "note_on_time": 12.679, "note_off_time": 13.054}, {"pitch": 62, "velocity": 80, "note_on_time": 13.054, "note_off_time": 13.427}, {"pitch": 42, "velocity": 80, "note_on_time": 13.054, "note_off_time": 13.427}]</notes><options name="Option List">((4, 4), [0.5, 0.25], 3, 8, &lt;NoteRangePerHand.THREE_NOTES: 4&gt;, &lt;NoteRangePerHand.ONE_NOTE: 2&gt;, False, True, False, '166')</options></target_notes><trials><trial trial_no="1" timestamp="2022_11_10-10_51_03"><notes name="Played Notes">[{"pitch": 60, "velocity": 84, "note_on_time": 1.511, "note_off_time": 1.968}, {"pitch": 62, "velocity": 82, "note_on_time": 3.017, "note_off_time": 3.164}, {"pitch": 60, "velocity": 90, "note_on_time": 3.398, "note_off_time": 3.557}, {"pitch": 64, "velocity": 84, "note_on_time": 4.501, "note_off_time": 4.785}, {"pitch": 60, "velocity": 76, "note_on_time": 5.277, "note_off_time": 5.405}, {"pitch": 60, "velocity": 73, "note_on_time": 5.636, "note_off_time": 5.776}, {"pitch": 64, "velocity": 76, "note_on_time": 6.03, "note_off_time": 6.174}, {"pitch": 64, "velocity": 72, "note_on_time": 6.343, "note_off_time": 6.768}, {"pitch": 64, "velocity": 78, "note_on_time": 7.465, "note_off_time": 7.616}, {"pitch": 60, "velocity": 75, "note_on_time": 7.839, "note_off_time": 7.976}, {"pitch": 64, "velocity": 78, "note_on_time": 8.244, "note_off_time": 8.407}, {"pitch": 60, "velocity": 79, "note_on_time": 8.722, "note_off_time": 8.878}, {"pitch": 62, "velocity": 74, "note_on_time": 9.158, "note_off_time": 9.417}, {"pitch": 62, "velocity": 76, "note_on_time": 9.703, "note_off_time": 9.894}, {"pitch": 64, "velocity": 59, "note_on_time": 10.428, "note_off_time": 10.691}, {"pitch": 60, "velocity": 65, "note_on_time": 10.979, "note_off_time": 11.168}, {"pitch": 64, "velocity": 83, "note_on_time": 11.73, "note_off_time": 11.926}, {"pitch": 60, "velocity": 86, "note_on_time": 12.19, "note_off_time": 12.358}]</notes><guidance name="Guidance Mode">None</guidance><error name="Error value">0.514265</error></trial><trial trial_no="2" timestamp="2022_11_10-10_51_30"><notes name="Played Notes">[{"pitch": 60, "velocity": 85, "note_on_time": 1.506, "note_off_time": 1.86}, {"pitch": 62, "velocity": 83, "note_on_time": 3.023, "note_off_time": 3.157}, {"pitch": 60, "velocity": 79, "note_on_time": 3.37, "note_off_time": 3.533}, {"pitch": 64, "velocity": 71, "note_on_time": 4.489, "note_off_time": 4.777}, {"pitch": 60, "velocity": 88, "note_on_time": 5.207, "note_off_time": 5.336}, {"pitch": 60, "velocity": 81, "note_on_time": 5.569, "note_off_time": 5.698}, {"pitch": 64, "velocity": 82, "note_on_time": 5.971, "note_off_time": 6.124}, {"pitch": 64, "velocity": 84, "note_on_time": 6.425, "note_off_time": 6.597}, {"pitch": 64, "velocity": 72, "note_on_time": 7.482, "note_off_time": 7.702}, {"pitch": 60, "velocity": 81, "note_on_time": 7.893, "note_off_time": 8.062}, {"pitch": 62, "velocity": 73, "note_on_time": 8.317, "note_off_time": 8.616}, {"pitch": 60, "velocity": 65, "note_on_time": 9.167, "note_off_time": 9.369}, {"pitch": 64, "velocity": 68, "note_on_time": 9.699, "note_off_time": 10.169}, {"pitch": 60, "velocity": 72, "note_on_time": 10.491, "note_off_time": 10.722}, {"pitch": 62, "velocity": 74, "note_on_time": 10.963, "note_off_time": 11.414}, {"pitch": 62, "velocity": 60, "note_on_time": 11.581, "note_off_time": 12.096}, {"pitch": 64, "velocity": 68, "note_on_time": 12.363, "note_off_time": 12.614}, {"pitch": 60, "velocity": 72, "note_on_time": 13.03, "note_off_time": 13.207}]</notes><guidance name="Guidance Mode">None</guidance><error name="Error value">0.5134258333333332</error></trial><trial trial_no="3" timestamp="2022_11_10-10_51_59"><notes name="Played Notes">[{"pitch": 60, "velocity": 81, "note_on_time": 1.489, "note_off_time": 1.961}, {"pitch": 62, "velocity": 72, "note_on_time": 3.026, "note_off_time": 3.154}, {"pitch": 60, "velocity": 77, "note_on_time": 3.385, "note_off_time": 3.559}, {"pitch": 64, "velocity": 81, "note_on_time": 4.473, "note_off_time": 4.804}, {"pitch": 60, "velocity": 85, "note_on_time": 5.235, "note_off_time": 5.355}, {"pitch": 60, "velocity": 83, "note_on_time": 5.61, "note_off_time": 5.721}, {"pitch": 64, "velocity": 79, "note_on_time": 5.972, "note_off_time": 6.089}, {"pitch": 64, "velocity": 77, "note_on_time": 6.329, "note_off_time": 6.779}, {"pitch": 64, "velocity": 81, "note_on_time": 7.503, "note_off_time": 7.698}, {"pitch": 60, "velocity": 70, "note_on_time": 8.015, "note_off_time": 8.2}, {"pitch": 64, "velocity": 74, "note_on_time": 8.46, "note_off_time": 8.714}, {"pitch": 60, "velocity": 82, "note_on_time": 9.057, "note_off_time": 9.264}, {"pitch": 62, "velocity": 70, "note_on_time": 9.567, "note_off_time": 9.795}, {"pitch": 62, "velocity": 77, "note_on_time": 10.041, "note_off_time": 10.248}, {"pitch": 64, "velocity": 79, "note_on_time": 10.551, "note_off_time": 10.709}, {"pitch": 60, "velocity": 79, "note_on_time": 11.019, "note_off_time": 11.184}, {"pitch": 64, "velocity": 76, "note_on_time": 11.535, "note_off_time": 11.718}, {"pitch": 62, "velocity": 79, "note_on_time": 12.091, "note_off_time": 12.274}, {"pitch": 62, "velocity": 84, "note_on_time": 13.195, "note_off_time": 13.364}]</notes><guidance name="Guidance Mode">None</guidance><error name="Error value">0.24995638888888894</error></trial></trials></MIDI>