<MIDI midiNo="2022_08_17-12_57_49"><target_notes><notes name="Note List">[{"pitch": 42, "velocity": 80, "note_on_time": 0.007, "note_off_time": 0.26}, {"pitch": 42, "velocity": 80, "note_on_time": 0.261, "note_off_time": 0.509}, {"pitch": 42, "velocity": 80, "note_on_time": 0.509, "note_off_time": 0.758}, {"pitch": 42, "velocity": 80, "note_on_time": 0.758, "note_off_time": 1.01}, {"pitch": 60, "velocity": 80, "note_on_time": 1.008, "note_off_time": 1.257}, {"pitch": 42, "velocity": 80, "note_on_time": 1.01, "note_off_time": 1.258}, {"pitch": 64, "velocity": 80, "note_on_time": 1.257, "note_off_time": 1.508}, {"pitch": 42, "velocity": 80, "note_on_time": 1.258, "note_off_time": 1.508}, {"pitch": 42, "velocity": 80, "note_on_time": 1.508, "note_off_time": 1.757}, {"pitch": 64, "velocity": 80, "note_on_time": 1.508, "note_off_time": 2.007}, {"pitch": 42, "velocity": 80, "note_on_time": 1.757, "note_off_time": 2.008}, {"pitch": 42, "velocity": 80, "note_on_time": 2.008, "note_off_time": 2.257}, {"pitch": 65, "velocity": 80, "note_on_time": 2.007, "note_off_time": 2.504}, {"pitch": 42, "velocity": 80, "note_on_time": 2.257, "note_off_time": 2.504}, {"pitch": 42, "velocity": 80, "note_on_time": 2.504, "note_off_time": 2.752}, {"pitch": 42, "velocity": 80, "note_on_time": 2.752, "note_off_time": 3.003}, {"pitch": 64, "velocity": 80, "note_on_time": 3.003, "note_off_time": 3.253}, {"pitch": 42, "velocity": 80, "note_on_time": 3.003, "note_off_time": 3.253}, {"pitch": 64, "velocity": 80, "note_on_time": 3.253, "note_off_time": 3.503}, {"pitch": 42, "velocity": 80, "note_on_time": 3.253, "note_off_time": 3.504}, {"pitch": 67, "velocity": 80, "note_on_time": 3.503, "note_off_time": 3.753}, {"pitch": 42, "velocity": 80, "note_on_time": 3.504, "note_off_time": 3.753}, {"pitch": 62, "velocity": 80, "note_on_time": 3.753, "note_off_time": 4.004}, {"pitch": 42, "velocity": 80, "note_on_time": 3.753, "note_off_time": 4.004}, {"pitch": 42, "velocity": 80, "note_on_time": 4.004, "note_off_time": 4.253}, {"pitch": 67, "velocity": 80, "note_on_time": 4.004, "note_off_time": 4.502}, {"pitch": 42, "velocity": 80, "note_on_time": 4.254, "note_off_time": 4.502}, {"pitch": 64, "velocity": 80, "note_on_time": 4.502, "note_off_time": 4.752}, {"pitch": 42, "velocity": 80, "note_on_time": 4.503, "note_off_time": 4.752}, {"pitch": 42, "velocity": 80, "note_on_time": 4.752, "note_off_time": 5.001}, {"pitch": 42, "velocity": 80, "note_on_time": 5.001, "note_off_time": 5.25}, {"pitch": 65, "velocity": 80, "note_on_time": 5.001, "note_off_time": 5.499}, {"pitch": 42, "velocity": 80, "note_on_time": 5.251, "note_off_time": 5.499}, {"pitch": 42, "velocity": 80, "note_on_time": 5.5, "note_off_time": 5.75}, {"pitch": 42, "velocity": 80, "note_on_time": 5.75, "note_off_time": 5.999}, {"pitch": 65, "velocity": 80, "note_on_time": 5.999, "note_off_time": 6.248}, {"pitch": 42, "velocity": 80, "note_on_time": 5.999, "note_off_time": 6.248}, {"pitch": 42, "velocity": 80, "note_on_time": 6.248, "note_off_time": 6.497}, {"pitch": 60, "velocity": 80, "note_on_time": 6.248, "note_off_time": 6.746}, {"pitch": 42, "velocity": 80, "note_on_time": 6.497, "note_off_time": 6.746}, {"pitch": 42, "velocity": 80, "note_on_time": 6.746, "note_off_time": 6.995}, {"pitch": 67, "velocity": 80, "note_on_time": 6.994, "note_off_time": 7.243}, {"pitch": 42, "velocity": 80, "note_on_time": 6.995, "note_off_time": 7.243}, {"pitch": 64, "velocity": 80, "note_on_time": 7.243, "note_off_time": 7.494}, {"pitch": 42, "velocity": 80, "note_on_time": 7.243, "note_off_time": 7.495}, {"pitch": 42, "velocity": 80, "note_on_time": 7.495, "note_off_time": 7.743}, {"pitch": 60, "velocity": 80, "note_on_time": 7.494, "note_off_time": 7.992}, {"pitch": 42, "velocity": 80, "note_on_time": 7.744, "note_off_time": 7.993}, {"pitch": 42, "velocity": 80, "note_on_time": 7.993, "note_off_time": 8.241}, {"pitch": 60, "velocity": 80, "note_on_time": 8.241, "note_off_time": 8.492}, {"pitch": 42, "velocity": 80, "note_on_time": 8.241, "note_off_time": 8.492}, {"pitch": 60, "velocity": 80, "note_on_time": 8.492, "note_off_time": 8.742}, {"pitch": 42, "velocity": 80, "note_on_time": 8.492, "note_off_time": 8.743}, {"pitch": 60, "velocity": 80, "note_on_time": 8.742, "note_off_time": 8.992}, {"pitch": 42, "velocity": 80, "note_on_time": 8.743, "note_off_time": 8.992}]</notes><options name="Option List">((4, 4), [0.5, 0.25], 3, 8, &lt;NoteRangePerHand.C_TO_G: 6&gt;, &lt;NoteRangePerHand.ONE_NOTE: 2&gt;, False, True, True, 248)</options></target_notes><trials><trial trial_no="1" timestamp="2022_08_17-12_57_39"><notes name="Played Notes">[{"pitch": 60, "velocity": 60, "note_on_time": 1.043, "note_off_time": 1.303}, {"pitch": 64, "velocity": 64, "note_on_time": 1.3, "note_off_time": 1.411}, {"pitch": 64, "velocity": 64, "note_on_time": 1.566, "note_off_time": 1.936}, {"pitch": 65, "velocity": 77, "note_on_time": 2.112, "note_off_time": 2.636}, {"pitch": 64, "velocity": 83, "note_on_time": 3.068, "note_off_time": 3.159}, {"pitch": 64, "velocity": 80, "note_on_time": 3.326, "note_off_time": 3.421}, {"pitch": 67, "velocity": 71, "note_on_time": 3.588, "note_off_time": 3.679}, {"pitch": 62, "velocity": 67, "note_on_time": 3.836, "note_off_time": 3.918}, {"pitch": 67, "velocity": 62, "note_on_time": 4.101, "note_off_time": 4.43}, {"pitch": 64, "velocity": 58, "note_on_time": 4.657, "note_off_time": 4.98}, {"pitch": 65, "velocity": 73, "note_on_time": 5.196, "note_off_time": 5.582}, {"pitch": 65, "velocity": 59, "note_on_time": 6.004, "note_off_time": 6.089}, {"pitch": 60, "velocity": 64, "note_on_time": 6.29, "note_off_time": 6.692}, {"pitch": 67, "velocity": 58, "note_on_time": 7.001, "note_off_time": 7.072}, {"pitch": 64, "velocity": 64, "note_on_time": 7.26, "note_off_time": 7.368}, {"pitch": 60, "velocity": 67, "note_on_time": 7.547, "note_off_time": 7.956}, {"pitch": 60, "velocity": 72, "note_on_time": 8.148, "note_off_time": 8.242}, {"pitch": 60, "velocity": 75, "note_on_time": 8.407, "note_off_time": 8.501}, {"pitch": 60, "velocity": 76, "note_on_time": 8.651, "note_off_time": 8.722}]</notes><guidance name="Guidance Mode">None</guidance><error name="Error value">0.045637187499999954</error></trial><trial trial_no="2" timestamp="2022_08_17-12_57_56"><notes name="Played Notes">[{"pitch": 60, "velocity": 65, "note_on_time": 1.022, "note_off_time": 1.284}, {"pitch": 64, "velocity": 61, "note_on_time": 1.276, "note_off_time": 1.382}, {"pitch": 64, "velocity": 68, "note_on_time": 1.544, "note_off_time": 1.907}, {"pitch": 65, "velocity": 80, "note_on_time": 2.107, "note_off_time": 2.614}, {"pitch": 64, "velocity": 68, "note_on_time": 3.042, "note_off_time": 3.126}, {"pitch": 64, "velocity": 65, "note_on_time": 3.307, "note_off_time": 3.404}, {"pitch": 67, "velocity": 70, "note_on_time": 3.577, "note_off_time": 3.667}, {"pitch": 62, "velocity": 61, "note_on_time": 3.821, "note_off_time": 3.921}, {"pitch": 67, "velocity": 73, "note_on_time": 4.092, "note_off_time": 4.451}, {"pitch": 64, "velocity": 69, "note_on_time": 4.623, "note_off_time": 4.949}, {"pitch": 65, "velocity": 75, "note_on_time": 5.213, "note_off_time": 5.746}, {"pitch": 65, "velocity": 73, "note_on_time": 6.072, "note_off_time": 6.18}, {"pitch": 60, "velocity": 74, "note_on_time": 6.35, "note_off_time": 6.791}, {"pitch": 67, "velocity": 63, "note_on_time": 7.057, "note_off_time": 7.12}, {"pitch": 64, "velocity": 62, "note_on_time": 7.309, "note_off_time": 7.398}, {"pitch": 60, "velocity": 62, "note_on_time": 7.575, "note_off_time": 7.982}, {"pitch": 60, "velocity": 69, "note_on_time": 8.158, "note_off_time": 8.265}, {"pitch": 60, "velocity": 70, "note_on_time": 8.436, "note_off_time": 8.524}, {"pitch": 60, "velocity": 75, "note_on_time": 8.707, "note_off_time": 8.769}]</notes><guidance name="Guidance Mode">None</guidance><error name="Error value">0.04944968750000006</error></trial><trial trial_no="3" timestamp="2022_08_17-12_58_20"><notes name="Played Notes">[{"pitch": 60, "velocity": 62, "note_on_time": 1.036, "note_off_time": 1.294}, {"pitch": 64, "velocity": 58, "note_on_time": 1.29, "note_off_time": 1.413}, {"pitch": 64, "velocity": 60, "note_on_time": 1.556, "note_off_time": 1.954}, {"pitch": 65, "velocity": 76, "note_on_time": 2.136, "note_off_time": 2.663}, {"pitch": 64, "velocity": 53, "note_on_time": 3.11, "note_off_time": 3.19}, {"pitch": 64, "velocity": 62, "note_on_time": 3.383, "note_off_time": 3.474}, {"pitch": 67, "velocity": 56, "note_on_time": 3.659, "note_off_time": 3.73}, {"pitch": 62, "velocity": 59, "note_on_time": 3.93, "note_off_time": 3.998}, {"pitch": 67, "velocity": 62, "note_on_time": 4.208, "note_off_time": 4.526}, {"pitch": 64, "velocity": 62, "note_on_time": 4.742, "note_off_time": 5.07}, {"pitch": 65, "velocity": 73, "note_on_time": 5.305, "note_off_time": 5.748}, {"pitch": 65, "velocity": 62, "note_on_time": 6.056, "note_off_time": 6.136}, {"pitch": 60, "velocity": 65, "note_on_time": 6.333, "note_off_time": 6.737}, {"pitch": 67, "velocity": 64, "note_on_time": 6.979, "note_off_time": 7.056}, {"pitch": 64, "velocity": 60, "note_on_time": 7.255, "note_off_time": 7.35}, {"pitch": 60, "velocity": 61, "note_on_time": 7.535, "note_off_time": 7.924}, {"pitch": 60, "velocity": 65, "note_on_time": 8.143, "note_off_time": 8.238}, {"pitch": 60, "velocity": 67, "note_on_time": 8.409, "note_off_time": 8.49}, {"pitch": 60, "velocity": 70, "note_on_time": 8.678, "note_off_time": 8.752}]</notes><guidance name="Guidance Mode">None</guidance><error name="Error value">0.060669687499999916</error></trial></trials></MIDI>