<MIDI midiNo="2022_11_21-17_55_34"><target_notes><notes name="Note List">[{"pitch": 42, "velocity": 80, "note_on_time": 0.004, "note_off_time": 0.268}, {"pitch": 42, "velocity": 80, "note_on_time": 0.268, "note_off_time": 0.531}, {"pitch": 42, "velocity": 80, "note_on_time": 0.531, "note_off_time": 0.795}, {"pitch": 42, "velocity": 80, "note_on_time": 0.796, "note_off_time": 1.06}, {"pitch": 67, "velocity": 80, "note_on_time": 1.06, "note_off_time": 1.323}, {"pitch": 42, "velocity": 80, "note_on_time": 1.06, "note_off_time": 1.324}, {"pitch": 65, "velocity": 80, "note_on_time": 1.323, "note_off_time": 1.588}, {"pitch": 42, "velocity": 80, "note_on_time": 1.324, "note_off_time": 1.588}, {"pitch": 67, "velocity": 80, "note_on_time": 1.588, "note_off_time": 1.854}, {"pitch": 42, "velocity": 80, "note_on_time": 1.588, "note_off_time": 1.855}, {"pitch": 62, "velocity": 80, "note_on_time": 1.854, "note_off_time": 2.12}, {"pitch": 42, "velocity": 80, "note_on_time": 1.856, "note_off_time": 2.12}, {"pitch": 60, "velocity": 80, "note_on_time": 2.12, "note_off_time": 2.385}, {"pitch": 42, "velocity": 80, "note_on_time": 2.121, "note_off_time": 2.385}, {"pitch": 62, "velocity": 80, "note_on_time": 2.385, "note_off_time": 2.652}, {"pitch": 42, "velocity": 80, "note_on_time": 2.386, "note_off_time": 2.652}, {"pitch": 64, "velocity": 80, "note_on_time": 2.652, "note_off_time": 2.914}, {"pitch": 42, "velocity": 80, "note_on_time": 2.652, "note_off_time": 2.915}, {"pitch": 67, "velocity": 80, "note_on_time": 2.914, "note_off_time": 3.179}, {"pitch": 42, "velocity": 80, "note_on_time": 2.915, "note_off_time": 3.179}, {"pitch": 67, "velocity": 80, "note_on_time": 3.179, "note_off_time": 3.443}, {"pitch": 42, "velocity": 80, "note_on_time": 3.179, "note_off_time": 3.443}, {"pitch": 65, "velocity": 80, "note_on_time": 3.443, "note_off_time": 3.709}, {"pitch": 42, "velocity": 80, "note_on_time": 3.443, "note_off_time": 3.709}, {"pitch": 64, "velocity": 80, "note_on_time": 3.709, "note_off_time": 3.973}, {"pitch": 42, "velocity": 80, "note_on_time": 3.709, "note_off_time": 3.973}, {"pitch": 64, "velocity": 80, "note_on_time": 3.973, "note_off_time": 4.239}, {"pitch": 42, "velocity": 80, "note_on_time": 3.973, "note_off_time": 4.239}, {"pitch": 42, "velocity": 80, "note_on_time": 4.239, "note_off_time": 4.504}, {"pitch": 64, "velocity": 80, "note_on_time": 4.239, "note_off_time": 4.769}, {"pitch": 42, "velocity": 80, "note_on_time": 4.504, "note_off_time": 4.769}, {"pitch": 42, "velocity": 80, "note_on_time": 4.77, "note_off_time": 5.034}, {"pitch": 42, "velocity": 80, "note_on_time": 5.035, "note_off_time": 5.299}, {"pitch": 42, "velocity": 80, "note_on_time": 5.299, "note_off_time": 5.561}, {"pitch": 65, "velocity": 80, "note_on_time": 5.298, "note_off_time": 5.825}, {"pitch": 42, "velocity": 80, "note_on_time": 5.561, "note_off_time": 5.825}, {"pitch": 42, "velocity": 80, "note_on_time": 5.826, "note_off_time": 6.09}, {"pitch": 42, "velocity": 80, "note_on_time": 6.09, "note_off_time": 6.353}, {"pitch": 42, "velocity": 80, "note_on_time": 6.354, "note_off_time": 6.618}, {"pitch": 64, "velocity": 80, "note_on_time": 6.353, "note_off_time": 6.882}, {"pitch": 42, "velocity": 80, "note_on_time": 6.618, "note_off_time": 6.882}, {"pitch": 60, "velocity": 80, "note_on_time": 6.882, "note_off_time": 7.147}, {"pitch": 42, "velocity": 80, "note_on_time": 6.882, "note_off_time": 7.147}, {"pitch": 60, "velocity": 80, "note_on_time": 7.147, "note_off_time": 7.411}, {"pitch": 42, "velocity": 80, "note_on_time": 7.147, "note_off_time": 7.411}, {"pitch": 42, "velocity": 80, "note_on_time": 7.411, "note_off_time": 7.675}, {"pitch": 62, "velocity": 80, "note_on_time": 7.411, "note_off_time": 7.937}, {"pitch": 42, "velocity": 80, "note_on_time": 7.676, "note_off_time": 7.937}, {"pitch": 62, "velocity": 80, "note_on_time": 7.937, "note_off_time": 8.202}, {"pitch": 42, "velocity": 80, "note_on_time": 7.938, "note_off_time": 8.202}, {"pitch": 67, "velocity": 80, "note_on_time": 8.202, "note_off_time": 8.465}, {"pitch": 42, "velocity": 80, "note_on_time": 8.202, "note_off_time": 8.466}, {"pitch": 42, "velocity": 80, "note_on_time": 8.466, "note_off_time": 8.729}, {"pitch": 67, "velocity": 80, "note_on_time": 8.729, "note_off_time": 8.993}, {"pitch": 42, "velocity": 80, "note_on_time": 8.729, "note_off_time": 8.994}, {"pitch": 67, "velocity": 80, "note_on_time": 8.993, "note_off_time": 9.256}, {"pitch": 42, "velocity": 80, "note_on_time": 8.994, "note_off_time": 9.257}, {"pitch": 67, "velocity": 80, "note_on_time": 9.256, "note_off_time": 9.523}, {"pitch": 42, "velocity": 80, "note_on_time": 9.257, "note_off_time": 9.523}]</notes><options name="Option List">((4, 4), [0.5, 0.25], 3, 8, &lt;NoteRangePerHand.C_TO_G: 6&gt;, &lt;NoteRangePerHand.ONE_NOTE: 2&gt;, False, True, False, '236')</options></target_notes><trials><trial trial_no="1" timestamp="2022_11_21-17_55_23"><notes name="Played Notes">[{"pitch": 67, "velocity": 92, "note_on_time": 1.091, "note_off_time": 1.351}, {"pitch": 65, "velocity": 87, "note_on_time": 1.35, "note_off_time": 1.627}, {"pitch": 67, "velocity": 87, "note_on_time": 1.63, "note_off_time": 1.924}, {"pitch": 64, "velocity": 90, "note_on_time": 1.933, "note_off_time": 2.032}, {"pitch": 62, "velocity": 61, "note_on_time": 2.001, "note_off_time": 2.228}, {"pitch": 67, "velocity": 97, "note_on_time": 2.833, "note_off_time": 3.093}, {"pitch": 65, "velocity": 85, "note_on_time": 3.095, "note_off_time": 3.399}, {"pitch": 67, "velocity": 82, "note_on_time": 3.408, "note_off_time": 3.754}, {"pitch": 62, "velocity": 82, "note_on_time": 3.758, "note_off_time": 4.038}, {"pitch": 60, "velocity": 92, "note_on_time": 4.051, "note_off_time": 4.362}, {"pitch": 62, "velocity": 86, "note_on_time": 4.331, "note_off_time": 4.68}, {"pitch": 64, "velocity": 78, "note_on_time": 4.674, "note_off_time": 4.959}, {"pitch": 65, "velocity": 79, "note_on_time": 4.937, "note_off_time": 5.224}, {"pitch": 67, "velocity": 80, "note_on_time": 5.233, "note_off_time": 5.525}, {"pitch": 67, "velocity": 84, "note_on_time": 5.991, "note_off_time": 6.691}, {"pitch": 65, "velocity": 84, "note_on_time": 6.707, "note_off_time": 7.052}, {"pitch": 64, "velocity": 81, "note_on_time": 7.026, "note_off_time": 7.326}, {"pitch": 62, "velocity": 89, "note_on_time": 7.344, "note_off_time": 7.631}, {"pitch": 67, "velocity": 74, "note_on_time": 8.559, "note_off_time": 8.704}, {"pitch": 65, "velocity": 77, "note_on_time": 8.559, "note_off_time": 8.95}]</notes><guidance name="Guidance Mode">None</guidance><error name="Error value">0.9519737</error></trial><trial trial_no="2" timestamp="2022_11_21-17_55_45"><notes name="Played Notes">[{"pitch": 67, "velocity": 99, "note_on_time": 1.122, "note_off_time": 1.405}, {"pitch": 65, "velocity": 89, "note_on_time": 1.392, "note_off_time": 1.645}, {"pitch": 67, "velocity": 85, "note_on_time": 1.654, "note_off_time": 1.896}, {"pitch": 62, "velocity": 83, "note_on_time": 1.895, "note_off_time": 2.162}, {"pitch": 60, "velocity": 89, "note_on_time": 2.145, "note_off_time": 2.415}, {"pitch": 62, "velocity": 79, "note_on_time": 2.393, "note_off_time": 2.748}, {"pitch": 64, "velocity": 85, "note_on_time": 2.745, "note_off_time": 3.33}, {"pitch": 67, "velocity": 72, "note_on_time": 3.349, "note_off_time": 3.723}, {"pitch": 67, "velocity": 84, "note_on_time": 3.977, "note_off_time": 4.336}, {"pitch": 65, "velocity": 88, "note_on_time": 4.303, "note_off_time": 4.596}, {"pitch": 64, "velocity": 78, "note_on_time": 4.59, "note_off_time": 5.039}, {"pitch": 64, "velocity": 92, "note_on_time": 5.187, "note_off_time": 5.782}, {"pitch": 62, "velocity": 90, "note_on_time": 5.806, "note_off_time": 6.267}, {"pitch": 65, "velocity": 87, "note_on_time": 6.965, "note_off_time": 7.381}, {"pitch": 64, "velocity": 91, "note_on_time": 8.273, "note_off_time": 8.753}, {"pitch": 60, "velocity": 96, "note_on_time": 9.234, "note_off_time": 9.335}]</notes><guidance name="Guidance Mode">None</guidance><error name="Error value">0.8715921999999999</error></trial><trial trial_no="3" timestamp="2022_11_21-17_56_14"><notes name="Played Notes">[{"pitch": 67, "velocity": 93, "note_on_time": 1.059, "note_off_time": 1.316}, {"pitch": 65, "velocity": 87, "note_on_time": 1.314, "note_off_time": 1.557}, {"pitch": 67, "velocity": 86, "note_on_time": 1.57, "note_off_time": 1.828}, {"pitch": 62, "velocity": 73, "note_on_time": 1.83, "note_off_time": 2.11}, {"pitch": 60, "velocity": 87, "note_on_time": 2.085, "note_off_time": 2.408}, {"pitch": 62, "velocity": 96, "note_on_time": 2.394, "note_off_time": 2.614}, {"pitch": 64, "velocity": 84, "note_on_time": 2.607, "note_off_time": 2.905}, {"pitch": 67, "velocity": 84, "note_on_time": 2.922, "note_off_time": 3.077}, {"pitch": 67, "velocity": 107, "note_on_time": 3.255, "note_off_time": 3.933}, {"pitch": 65, "velocity": 81, "note_on_time": 3.943, "note_off_time": 4.778}, {"pitch": 64, "velocity": 81, "note_on_time": 4.799, "note_off_time": 4.888}, {"pitch": 64, "velocity": 89, "note_on_time": 5.102, "note_off_time": 5.332}, {"pitch": 62, "velocity": 89, "note_on_time": 5.366, "note_off_time": 5.572}, {"pitch": 64, "velocity": 95, "note_on_time": 5.617, "note_off_time": 6.18}, {"pitch": 65, "velocity": 100, "note_on_time": 6.638, "note_off_time": 7.256}, {"pitch": 64, "velocity": 95, "note_on_time": 7.654, "note_off_time": 8.361}, {"pitch": 60, "velocity": 107, "note_on_time": 8.684, "note_off_time": 8.761}, {"pitch": 60, "velocity": 95, "note_on_time": 8.965, "note_off_time": 9.221}]</notes><guidance name="Guidance Mode">None</guidance><error name="Error value">0.81110925</error></trial><trial trial_no="4" timestamp="2022_11_21-17_56_36"><notes name="Played Notes">[{"pitch": 67, "velocity": 91, "note_on_time": 1.054, "note_off_time": 1.324}, {"pitch": 65, "velocity": 90, "note_on_time": 1.327, "note_off_time": 1.571}, {"pitch": 67, "velocity": 82, "note_on_time": 1.588, "note_off_time": 1.858}, {"pitch": 62, "velocity": 77, "note_on_time": 1.853, "note_off_time": 2.128}, {"pitch": 60, "velocity": 87, "note_on_time": 2.122, "note_off_time": 2.396}, {"pitch": 62, "velocity": 85, "note_on_time": 2.387, "note_off_time": 2.667}, {"pitch": 64, "velocity": 86, "note_on_time": 2.666, "note_off_time": 2.876}, {"pitch": 67, "velocity": 85, "note_on_time": 2.883, "note_off_time": 2.985}, {"pitch": 67, "velocity": 93, "note_on_time": 3.191, "note_off_time": 3.465}, {"pitch": 65, "velocity": 71, "note_on_time": 3.431, "note_off_time": 3.736}, {"pitch": 64, "velocity": 76, "note_on_time": 3.724, "note_off_time": 4.089}, {"pitch": 64, "velocity": 84, "note_on_time": 4.253, "note_off_time": 4.508}, {"pitch": 64, "velocity": 73, "note_on_time": 4.744, "note_off_time": 5.771}, {"pitch": 65, "velocity": 100, "note_on_time": 5.84, "note_off_time": 6.332}, {"pitch": 65, "velocity": 85, "note_on_time": 6.924, "note_off_time": 7.068}, {"pitch": 64, "velocity": 76, "note_on_time": 6.916, "note_off_time": 7.564}, {"pitch": 60, "velocity": 94, "note_on_time": 7.939, "note_off_time": 8.126}, {"pitch": 60, "velocity": 98, "note_on_time": 8.899, "note_off_time": 8.976}]</notes><guidance name="Guidance Mode">None</guidance><error name="Error value">0.7197526</error></trial></trials></MIDI>