<MIDI midiNo="2022_08_17-12_38_38"><target_notes><notes name="Note List">[{"pitch": 42, "velocity": 80, "note_on_time": 0.004, "note_off_time": 0.351}, {"pitch": 42, "velocity": 80, "note_on_time": 0.351, "note_off_time": 0.711}, {"pitch": 42, "velocity": 80, "note_on_time": 0.711, "note_off_time": 1.068}, {"pitch": 42, "velocity": 80, "note_on_time": 1.068, "note_off_time": 1.426}, {"pitch": 64, "velocity": 80, "note_on_time": 1.426, "note_off_time": 1.784}, {"pitch": 42, "velocity": 80, "note_on_time": 1.426, "note_off_time": 1.784}, {"pitch": 62, "velocity": 80, "note_on_time": 1.784, "note_off_time": 2.143}, {"pitch": 42, "velocity": 80, "note_on_time": 1.784, "note_off_time": 2.143}, {"pitch": 65, "velocity": 80, "note_on_time": 2.143, "note_off_time": 2.502}, {"pitch": 42, "velocity": 80, "note_on_time": 2.143, "note_off_time": 2.502}, {"pitch": 60, "velocity": 80, "note_on_time": 2.502, "note_off_time": 2.859}, {"pitch": 42, "velocity": 80, "note_on_time": 2.502, "note_off_time": 2.86}, {"pitch": 60, "velocity": 80, "note_on_time": 2.859, "note_off_time": 3.217}, {"pitch": 42, "velocity": 80, "note_on_time": 2.86, "note_off_time": 3.218}, {"pitch": 60, "velocity": 80, "note_on_time": 3.217, "note_off_time": 3.576}, {"pitch": 42, "velocity": 80, "note_on_time": 3.218, "note_off_time": 3.577}, {"pitch": 60, "velocity": 80, "note_on_time": 3.576, "note_off_time": 3.935}, {"pitch": 42, "velocity": 80, "note_on_time": 3.577, "note_off_time": 3.935}, {"pitch": 60, "velocity": 80, "note_on_time": 3.935, "note_off_time": 4.295}, {"pitch": 42, "velocity": 80, "note_on_time": 3.935, "note_off_time": 4.295}, {"pitch": 60, "velocity": 80, "note_on_time": 4.295, "note_off_time": 4.653}, {"pitch": 42, "velocity": 80, "note_on_time": 4.295, "note_off_time": 4.654}, {"pitch": 67, "velocity": 80, "note_on_time": 4.653, "note_off_time": 5.011}, {"pitch": 42, "velocity": 80, "note_on_time": 4.654, "note_off_time": 5.011}, {"pitch": 67, "velocity": 80, "note_on_time": 5.011, "note_off_time": 5.368}, {"pitch": 42, "velocity": 80, "note_on_time": 5.012, "note_off_time": 5.369}, {"pitch": 62, "velocity": 80, "note_on_time": 5.368, "note_off_time": 5.728}, {"pitch": 42, "velocity": 80, "note_on_time": 5.369, "note_off_time": 5.728}, {"pitch": 65, "velocity": 80, "note_on_time": 5.728, "note_off_time": 6.086}, {"pitch": 42, "velocity": 80, "note_on_time": 5.729, "note_off_time": 6.086}, {"pitch": 65, "velocity": 80, "note_on_time": 6.086, "note_off_time": 6.446}, {"pitch": 42, "velocity": 80, "note_on_time": 6.086, "note_off_time": 6.446}, {"pitch": 67, "velocity": 80, "note_on_time": 6.446, "note_off_time": 6.805}, {"pitch": 42, "velocity": 80, "note_on_time": 6.446, "note_off_time": 6.805}, {"pitch": 64, "velocity": 80, "note_on_time": 6.805, "note_off_time": 7.162}, {"pitch": 42, "velocity": 80, "note_on_time": 6.805, "note_off_time": 7.162}, {"pitch": 42, "velocity": 80, "note_on_time": 7.162, "note_off_time": 7.508}, {"pitch": 64, "velocity": 80, "note_on_time": 7.162, "note_off_time": 7.866}, {"pitch": 42, "velocity": 80, "note_on_time": 7.508, "note_off_time": 7.866}, {"pitch": 42, "velocity": 80, "note_on_time": 7.866, "note_off_time": 8.223}, {"pitch": 42, "velocity": 80, "note_on_time": 8.224, "note_off_time": 8.584}, {"pitch": 67, "velocity": 80, "note_on_time": 8.584, "note_off_time": 8.941}, {"pitch": 42, "velocity": 80, "note_on_time": 8.584, "note_off_time": 8.941}, {"pitch": 67, "velocity": 80, "note_on_time": 8.941, "note_off_time": 9.298}, {"pitch": 42, "velocity": 80, "note_on_time": 8.941, "note_off_time": 9.298}, {"pitch": 65, "velocity": 80, "note_on_time": 9.298, "note_off_time": 9.658}, {"pitch": 42, "velocity": 80, "note_on_time": 9.299, "note_off_time": 9.658}, {"pitch": 67, "velocity": 80, "note_on_time": 9.658, "note_off_time": 10.015}, {"pitch": 42, "velocity": 80, "note_on_time": 9.659, "note_off_time": 10.015}, {"pitch": 67, "velocity": 80, "note_on_time": 10.015, "note_off_time": 10.361}, {"pitch": 42, "velocity": 80, "note_on_time": 10.015, "note_off_time": 10.361}, {"pitch": 65, "velocity": 80, "note_on_time": 10.361, "note_off_time": 10.72}, {"pitch": 42, "velocity": 80, "note_on_time": 10.362, "note_off_time": 10.721}, {"pitch": 67, "velocity": 80, "note_on_time": 10.72, "note_off_time": 11.079}, {"pitch": 42, "velocity": 80, "note_on_time": 10.721, "note_off_time": 11.08}, {"pitch": 65, "velocity": 80, "note_on_time": 11.079, "note_off_time": 11.438}, {"pitch": 42, "velocity": 80, "note_on_time": 11.08, "note_off_time": 11.439}, {"pitch": 42, "velocity": 80, "note_on_time": 11.439, "note_off_time": 11.797}, {"pitch": 65, "velocity": 80, "note_on_time": 11.797, "note_off_time": 12.156}, {"pitch": 42, "velocity": 80, "note_on_time": 11.797, "note_off_time": 12.156}, {"pitch": 65, "velocity": 80, "note_on_time": 12.156, "note_off_time": 12.514}, {"pitch": 42, "velocity": 80, "note_on_time": 12.156, "note_off_time": 12.514}, {"pitch": 65, "velocity": 80, "note_on_time": 12.514, "note_off_time": 12.874}, {"pitch": 42, "velocity": 80, "note_on_time": 12.515, "note_off_time": 12.875}]</notes><options name="Option List">((4, 4), [0.5, 0.25], 3, 8, &lt;NoteRangePerHand.C_TO_G: 6&gt;, &lt;NoteRangePerHand.ONE_NOTE: 2&gt;, False, True, True, '174')</options></target_notes><trials><trial trial_no="1" timestamp="2022_08_17-12_38_23"><notes name="Played Notes">[{"pitch": 64, "velocity": 61, "note_on_time": 1.457, "note_off_time": 1.805}, {"pitch": 62, "velocity": 49, "note_on_time": 1.833, "note_off_time": 2.179}, {"pitch": 65, "velocity": 53, "note_on_time": 2.208, "note_off_time": 2.548}, {"pitch": 60, "velocity": 58, "note_on_time": 2.56, "note_off_time": 2.684}, {"pitch": 60, "velocity": 62, "note_on_time": 2.928, "note_off_time": 3.057}, {"pitch": 60, "velocity": 65, "note_on_time": 3.288, "note_off_time": 3.398}, {"pitch": 60, "velocity": 66, "note_on_time": 3.653, "note_off_time": 3.766}, {"pitch": 60, "velocity": 63, "note_on_time": 4.001, "note_off_time": 4.113}, {"pitch": 60, "velocity": 68, "note_on_time": 4.366, "note_off_time": 4.476}, {"pitch": 67, "velocity": 64, "note_on_time": 4.721, "note_off_time": 4.797}, {"pitch": 67, "velocity": 62, "note_on_time": 5.074, "note_off_time": 5.149}, {"pitch": 62, "velocity": 58, "note_on_time": 5.43, "note_off_time": 5.491}, {"pitch": 65, "velocity": 64, "note_on_time": 5.805, "note_off_time": 5.887}, {"pitch": 65, "velocity": 64, "note_on_time": 6.156, "note_off_time": 6.241}, {"pitch": 67, "velocity": 54, "note_on_time": 6.485, "note_off_time": 6.565}, {"pitch": 64, "velocity": 65, "note_on_time": 6.812, "note_off_time": 6.907}, {"pitch": 64, "velocity": 69, "note_on_time": 7.172, "note_off_time": 7.583}, {"pitch": 67, "velocity": 67, "note_on_time": 8.579, "note_off_time": 8.688}, {"pitch": 67, "velocity": 69, "note_on_time": 8.949, "note_off_time": 9.069}, {"pitch": 65, "velocity": 81, "note_on_time": 9.289, "note_off_time": 9.404}, {"pitch": 67, "velocity": 67, "note_on_time": 9.654, "note_off_time": 9.748}, {"pitch": 67, "velocity": 67, "note_on_time": 10.013, "note_off_time": 10.125}, {"pitch": 65, "velocity": 72, "note_on_time": 10.376, "note_off_time": 10.475}, {"pitch": 67, "velocity": 65, "note_on_time": 10.752, "note_off_time": 10.859}, {"pitch": 65, "velocity": 69, "note_on_time": 11.116, "note_off_time": 11.193}, {"pitch": 65, "velocity": 64, "note_on_time": 11.786, "note_off_time": 11.855}, {"pitch": 65, "velocity": 76, "note_on_time": 12.159, "note_off_time": 12.248}, {"pitch": 65, "velocity": 82, "note_on_time": 12.506, "note_off_time": 12.581}]</notes><guidance name="Guidance Mode">None</guidance><error name="Error value">0.01902531999999982</error></trial><trial trial_no="2" timestamp="2022_08_17-12_38_50"><notes name="Played Notes">[{"pitch": 64, "velocity": 62, "note_on_time": 1.469, "note_off_time": 1.782}, {"pitch": 62, "velocity": 52, "note_on_time": 1.822, "note_off_time": 2.198}, {"pitch": 65, "velocity": 64, "note_on_time": 2.204, "note_off_time": 2.615}, {"pitch": 60, "velocity": 62, "note_on_time": 2.575, "note_off_time": 2.715}, {"pitch": 60, "velocity": 61, "note_on_time": 2.933, "note_off_time": 3.096}, {"pitch": 60, "velocity": 62, "note_on_time": 3.309, "note_off_time": 3.427}, {"pitch": 60, "velocity": 58, "note_on_time": 3.659, "note_off_time": 3.758}, {"pitch": 60, "velocity": 62, "note_on_time": 4.011, "note_off_time": 4.131}, {"pitch": 60, "velocity": 73, "note_on_time": 4.4, "note_off_time": 4.518}, {"pitch": 67, "velocity": 72, "note_on_time": 4.739, "note_off_time": 4.843}, {"pitch": 67, "velocity": 72, "note_on_time": 5.094, "note_off_time": 5.207}, {"pitch": 62, "velocity": 57, "note_on_time": 5.454, "note_off_time": 5.528}, {"pitch": 65, "velocity": 72, "note_on_time": 5.82, "note_off_time": 5.934}, {"pitch": 65, "velocity": 65, "note_on_time": 6.182, "note_off_time": 6.29}, {"pitch": 67, "velocity": 65, "note_on_time": 6.516, "note_off_time": 6.611}, {"pitch": 64, "velocity": 60, "note_on_time": 6.86, "note_off_time": 6.97}, {"pitch": 64, "velocity": 68, "note_on_time": 7.221, "note_off_time": 7.649}, {"pitch": 67, "velocity": 63, "note_on_time": 8.617, "note_off_time": 8.723}, {"pitch": 67, "velocity": 70, "note_on_time": 8.982, "note_off_time": 9.102}, {"pitch": 65, "velocity": 70, "note_on_time": 9.334, "note_off_time": 9.455}, {"pitch": 67, "velocity": 69, "note_on_time": 9.685, "note_off_time": 9.782}, {"pitch": 67, "velocity": 68, "note_on_time": 10.048, "note_off_time": 10.164}, {"pitch": 65, "velocity": 76, "note_on_time": 10.413, "note_off_time": 10.533}, {"pitch": 67, "velocity": 68, "note_on_time": 10.776, "note_off_time": 10.876}, {"pitch": 65, "velocity": 70, "note_on_time": 11.129, "note_off_time": 11.227}, {"pitch": 65, "velocity": 71, "note_on_time": 11.812, "note_off_time": 11.91}, {"pitch": 65, "velocity": 77, "note_on_time": 12.185, "note_off_time": 12.285}, {"pitch": 65, "velocity": 84, "note_on_time": 12.546, "note_off_time": 12.619}]</notes><guidance name="Guidance Mode">None</guidance><error name="Error value">0.017425319999999873</error></trial><trial trial_no="3" timestamp="2022_08_17-12_39_12"><notes name="Played Notes">[{"pitch": 64, "velocity": 65, "note_on_time": 1.432, "note_off_time": 1.754}, {"pitch": 62, "velocity": 52, "note_on_time": 1.8, "note_off_time": 2.15}, {"pitch": 65, "velocity": 60, "note_on_time": 2.159, "note_off_time": 2.563}, {"pitch": 60, "velocity": 65, "note_on_time": 2.517, "note_off_time": 2.658}, {"pitch": 60, "velocity": 65, "note_on_time": 2.899, "note_off_time": 3.026}, {"pitch": 60, "velocity": 63, "note_on_time": 3.26, "note_off_time": 3.389}, {"pitch": 60, "velocity": 62, "note_on_time": 3.623, "note_off_time": 3.738}, {"pitch": 60, "velocity": 55, "note_on_time": 3.989, "note_off_time": 4.078}, {"pitch": 60, "velocity": 69, "note_on_time": 4.362, "note_off_time": 4.492}, {"pitch": 67, "velocity": 70, "note_on_time": 4.713, "note_off_time": 4.836}, {"pitch": 67, "velocity": 72, "note_on_time": 5.075, "note_off_time": 5.19}, {"pitch": 62, "velocity": 69, "note_on_time": 5.424, "note_off_time": 5.524}, {"pitch": 65, "velocity": 78, "note_on_time": 5.78, "note_off_time": 5.902}, {"pitch": 65, "velocity": 70, "note_on_time": 6.122, "note_off_time": 6.243}, {"pitch": 67, "velocity": 70, "note_on_time": 6.475, "note_off_time": 6.58}, {"pitch": 64, "velocity": 64, "note_on_time": 6.814, "note_off_time": 6.914}, {"pitch": 64, "velocity": 72, "note_on_time": 7.198, "note_off_time": 7.721}, {"pitch": 67, "velocity": 67, "note_on_time": 8.614, "note_off_time": 8.725}, {"pitch": 67, "velocity": 74, "note_on_time": 8.957, "note_off_time": 9.08}, {"pitch": 65, "velocity": 71, "note_on_time": 9.318, "note_off_time": 9.418}, {"pitch": 67, "velocity": 72, "note_on_time": 9.667, "note_off_time": 9.773}, {"pitch": 67, "velocity": 72, "note_on_time": 10.036, "note_off_time": 10.144}, {"pitch": 65, "velocity": 70, "note_on_time": 10.392, "note_off_time": 10.493}, {"pitch": 67, "velocity": 71, "note_on_time": 10.771, "note_off_time": 10.871}, {"pitch": 65, "velocity": 69, "note_on_time": 11.121, "note_off_time": 11.243}, {"pitch": 65, "velocity": 73, "note_on_time": 11.788, "note_off_time": 11.876}, {"pitch": 65, "velocity": 74, "note_on_time": 12.166, "note_off_time": 12.256}, {"pitch": 65, "velocity": 76, "note_on_time": 12.527, "note_off_time": 12.586}]</notes><guidance name="Guidance Mode">None</guidance><error name="Error value">0.01886531999999983</error></trial><trial trial_no="4" timestamp="2022_08_17-12_39_33"><notes name="Played Notes">[{"pitch": 64, "velocity": 62, "note_on_time": 1.46, "note_off_time": 1.753}, {"pitch": 62, "velocity": 53, "note_on_time": 1.799, "note_off_time": 2.202}, {"pitch": 65, "velocity": 62, "note_on_time": 2.193, "note_off_time": 2.583}, {"pitch": 60, "velocity": 62, "note_on_time": 2.542, "note_off_time": 2.736}, {"pitch": 60, "velocity": 61, "note_on_time": 2.914, "note_off_time": 3.073}, {"pitch": 60, "velocity": 61, "note_on_time": 3.277, "note_off_time": 3.392}, {"pitch": 60, "velocity": 61, "note_on_time": 3.633, "note_off_time": 3.732}, {"pitch": 60, "velocity": 65, "note_on_time": 3.98, "note_off_time": 4.109}, {"pitch": 60, "velocity": 62, "note_on_time": 4.337, "note_off_time": 4.446}, {"pitch": 67, "velocity": 69, "note_on_time": 4.693, "note_off_time": 4.783}, {"pitch": 67, "velocity": 69, "note_on_time": 5.048, "note_off_time": 5.152}, {"pitch": 62, "velocity": 64, "note_on_time": 5.389, "note_off_time": 5.469}, {"pitch": 65, "velocity": 72, "note_on_time": 5.751, "note_off_time": 5.834}, {"pitch": 65, "velocity": 74, "note_on_time": 6.113, "note_off_time": 6.216}, {"pitch": 67, "velocity": 65, "note_on_time": 6.469, "note_off_time": 6.56}, {"pitch": 64, "velocity": 68, "note_on_time": 6.824, "note_off_time": 6.932}, {"pitch": 64, "velocity": 61, "note_on_time": 7.193, "note_off_time": 7.747}, {"pitch": 67, "velocity": 65, "note_on_time": 8.639, "note_off_time": 8.724}, {"pitch": 67, "velocity": 70, "note_on_time": 8.983, "note_off_time": 9.089}, {"pitch": 65, "velocity": 71, "note_on_time": 9.346, "note_off_time": 9.465}, {"pitch": 67, "velocity": 65, "note_on_time": 9.699, "note_off_time": 9.801}, {"pitch": 67, "velocity": 70, "note_on_time": 10.074, "note_off_time": 10.183}, {"pitch": 65, "velocity": 67, "note_on_time": 10.417, "note_off_time": 10.53}, {"pitch": 67, "velocity": 67, "note_on_time": 10.8, "note_off_time": 10.918}, {"pitch": 65, "velocity": 71, "note_on_time": 11.147, "note_off_time": 11.303}, {"pitch": 65, "velocity": 70, "note_on_time": 11.835, "note_off_time": 11.938}, {"pitch": 65, "velocity": 69, "note_on_time": 12.195, "note_off_time": 12.318}, {"pitch": 65, "velocity": 77, "note_on_time": 12.549, "note_off_time": 12.647}]</notes><guidance name="Guidance Mode">None</guidance><error name="Error value">0.01709147999999967</error></trial><trial trial_no="5" timestamp="2022_08_17-12_39_56"><notes name="Played Notes">[{"pitch": 64, "velocity": 58, "note_on_time": 1.442, "note_off_time": 1.776}, {"pitch": 62, "velocity": 44, "note_on_time": 1.83, "note_off_time": 2.167}, {"pitch": 65, "velocity": 61, "note_on_time": 2.164, "note_off_time": 2.56}, {"pitch": 60, "velocity": 61, "note_on_time": 2.528, "note_off_time": 2.684}, {"pitch": 60, "velocity": 59, "note_on_time": 2.909, "note_off_time": 3.023}, {"pitch": 60, "velocity": 59, "note_on_time": 3.258, "note_off_time": 3.366}, {"pitch": 60, "velocity": 58, "note_on_time": 3.618, "note_off_time": 3.718}, {"pitch": 60, "velocity": 59, "note_on_time": 3.969, "note_off_time": 4.074}, {"pitch": 60, "velocity": 60, "note_on_time": 4.339, "note_off_time": 4.449}, {"pitch": 67, "velocity": 70, "note_on_time": 4.703, "note_off_time": 4.821}, {"pitch": 67, "velocity": 67, "note_on_time": 5.06, "note_off_time": 5.158}, {"pitch": 62, "velocity": 61, "note_on_time": 5.414, "note_off_time": 5.498}, {"pitch": 65, "velocity": 68, "note_on_time": 5.768, "note_off_time": 5.89}, {"pitch": 65, "velocity": 64, "note_on_time": 6.133, "note_off_time": 6.251}, {"pitch": 67, "velocity": 61, "note_on_time": 6.47, "note_off_time": 6.566}, {"pitch": 64, "velocity": 52, "note_on_time": 6.831, "note_off_time": 6.947}, {"pitch": 64, "velocity": 55, "note_on_time": 7.217, "note_off_time": 7.713}, {"pitch": 67, "velocity": 59, "note_on_time": 8.631, "note_off_time": 8.732}, {"pitch": 67, "velocity": 67, "note_on_time": 8.983, "note_off_time": 9.099}, {"pitch": 65, "velocity": 61, "note_on_time": 9.337, "note_off_time": 9.467}, {"pitch": 67, "velocity": 65, "note_on_time": 9.692, "note_off_time": 9.784}, {"pitch": 67, "velocity": 63, "note_on_time": 10.073, "note_off_time": 10.176}, {"pitch": 65, "velocity": 67, "note_on_time": 10.41, "note_off_time": 10.527}, {"pitch": 67, "velocity": 66, "note_on_time": 10.785, "note_off_time": 10.89}, {"pitch": 65, "velocity": 65, "note_on_time": 11.131, "note_off_time": 11.287}, {"pitch": 65, "velocity": 62, "note_on_time": 11.833, "note_off_time": 11.953}, {"pitch": 65, "velocity": 64, "note_on_time": 12.214, "note_off_time": 12.319}, {"pitch": 65, "velocity": 69, "note_on_time": 12.577, "note_off_time": 12.653}]</notes><guidance name="Guidance Mode">None</guidance><error name="Error value">0.019932999999999774</error></trial><trial trial_no="6" timestamp="2022_08_17-12_40_45"><notes name="Played Notes">[{"pitch": 64, "velocity": 58, "note_on_time": 1.015, "note_off_time": 1.227}, {"pitch": 62, "velocity": 50, "note_on_time": 1.256, "note_off_time": 1.506}, {"pitch": 65, "velocity": 66, "note_on_time": 1.498, "note_off_time": 1.752}, {"pitch": 60, "velocity": 64, "note_on_time": 1.727, "note_off_time": 1.818}, {"pitch": 60, "velocity": 63, "note_on_time": 1.97, "note_off_time": 2.047}, {"pitch": 60, "velocity": 57, "note_on_time": 2.224, "note_off_time": 2.307}, {"pitch": 60, "velocity": 59, "note_on_time": 2.484, "note_off_time": 2.563}, {"pitch": 60, "velocity": 58, "note_on_time": 2.739, "note_off_time": 2.811}, {"pitch": 60, "velocity": 60, "note_on_time": 2.985, "note_off_time": 3.078}, {"pitch": 67, "velocity": 65, "note_on_time": 3.25, "note_off_time": 3.317}, {"pitch": 67, "velocity": 63, "note_on_time": 3.491, "note_off_time": 3.575}, {"pitch": 62, "velocity": 66, "note_on_time": 3.746, "note_off_time": 3.799}, {"pitch": 65, "velocity": 72, "note_on_time": 3.989, "note_off_time": 4.062}, {"pitch": 65, "velocity": 71, "note_on_time": 4.235, "note_off_time": 4.332}, {"pitch": 67, "velocity": 57, "note_on_time": 4.49, "note_off_time": 4.563}, {"pitch": 64, "velocity": 70, "note_on_time": 4.729, "note_off_time": 4.818}, {"pitch": 64, "velocity": 66, "note_on_time": 4.977, "note_off_time": 5.349}, {"pitch": 67, "velocity": 68, "note_on_time": 6.02, "note_off_time": 6.1}, {"pitch": 67, "velocity": 71, "note_on_time": 6.264, "note_off_time": 6.35}, {"pitch": 65, "velocity": 63, "note_on_time": 6.51, "note_off_time": 6.585}, {"pitch": 67, "velocity": 67, "note_on_time": 6.749, "note_off_time": 6.845}, {"pitch": 67, "velocity": 68, "note_on_time": 6.991, "note_off_time": 7.082}, {"pitch": 65, "velocity": 70, "note_on_time": 7.236, "note_off_time": 7.319}, {"pitch": 67, "velocity": 68, "note_on_time": 7.48, "note_off_time": 7.574}, {"pitch": 65, "velocity": 69, "note_on_time": 7.72, "note_off_time": 7.795}, {"pitch": 65, "velocity": 73, "note_on_time": 8.22, "note_off_time": 8.293}, {"pitch": 65, "velocity": 77, "note_on_time": 8.483, "note_off_time": 8.578}, {"pitch": 65, "velocity": 83, "note_on_time": 8.732, "note_off_time": 8.784}]</notes><guidance name="Guidance Mode">None</guidance><error name="Error value">1.4616524</error></trial></trials></MIDI>