<MIDI midiNo="2022_10_02-13_33_33"><target_notes><notes name="Note List">[{"pitch": 42, "velocity": 80, "note_on_time": 0.004, "note_off_time": 0.253}, {"pitch": 42, "velocity": 80, "note_on_time": 0.253, "note_off_time": 0.502}, {"pitch": 42, "velocity": 80, "note_on_time": 0.502, "note_off_time": 0.752}, {"pitch": 42, "velocity": 80, "note_on_time": 0.753, "note_off_time": 1.0}, {"pitch": 62, "velocity": 80, "note_on_time": 1.0, "note_off_time": 1.248}, {"pitch": 42, "velocity": 80, "note_on_time": 1.0, "note_off_time": 1.248}, {"pitch": 64, "velocity": 80, "note_on_time": 1.248, "note_off_time": 1.497}, {"pitch": 42, "velocity": 80, "note_on_time": 1.248, "note_off_time": 1.497}, {"pitch": 64, "velocity": 80, "note_on_time": 1.497, "note_off_time": 1.746}, {"pitch": 42, "velocity": 80, "note_on_time": 1.498, "note_off_time": 1.746}, {"pitch": 64, "velocity": 80, "note_on_time": 1.746, "note_off_time": 1.995}, {"pitch": 42, "velocity": 80, "note_on_time": 1.747, "note_off_time": 1.995}, {"pitch": 62, "velocity": 80, "note_on_time": 1.995, "note_off_time": 2.245}, {"pitch": 42, "velocity": 80, "note_on_time": 1.995, "note_off_time": 2.245}, {"pitch": 64, "velocity": 80, "note_on_time": 2.245, "note_off_time": 2.495}, {"pitch": 42, "velocity": 80, "note_on_time": 2.245, "note_off_time": 2.495}, {"pitch": 64, "velocity": 80, "note_on_time": 2.495, "note_off_time": 2.745}, {"pitch": 42, "velocity": 80, "note_on_time": 2.496, "note_off_time": 2.745}, {"pitch": 62, "velocity": 80, "note_on_time": 2.745, "note_off_time": 2.993}, {"pitch": 42, "velocity": 80, "note_on_time": 2.745, "note_off_time": 2.994}, {"pitch": 60, "velocity": 80, "note_on_time": 2.993, "note_off_time": 3.242}, {"pitch": 42, "velocity": 80, "note_on_time": 2.994, "note_off_time": 3.242}, {"pitch": 60, "velocity": 80, "note_on_time": 3.242, "note_off_time": 3.489}, {"pitch": 42, "velocity": 80, "note_on_time": 3.243, "note_off_time": 3.489}, {"pitch": 62, "velocity": 80, "note_on_time": 3.489, "note_off_time": 3.74}, {"pitch": 42, "velocity": 80, "note_on_time": 3.489, "note_off_time": 3.74}, {"pitch": 42, "velocity": 80, "note_on_time": 3.74, "note_off_time": 3.987}, {"pitch": 60, "velocity": 80, "note_on_time": 3.987, "note_off_time": 4.235}, {"pitch": 42, "velocity": 80, "note_on_time": 3.988, "note_off_time": 4.236}, {"pitch": 42, "velocity": 80, "note_on_time": 4.236, "note_off_time": 4.487}, {"pitch": 64, "velocity": 80, "note_on_time": 4.486, "note_off_time": 4.736}, {"pitch": 42, "velocity": 80, "note_on_time": 4.487, "note_off_time": 4.737}, {"pitch": 64, "velocity": 80, "note_on_time": 4.736, "note_off_time": 4.985}, {"pitch": 42, "velocity": 80, "note_on_time": 4.737, "note_off_time": 4.985}, {"pitch": 64, "velocity": 80, "note_on_time": 4.985, "note_off_time": 5.236}, {"pitch": 42, "velocity": 80, "note_on_time": 4.985, "note_off_time": 5.236}, {"pitch": 62, "velocity": 80, "note_on_time": 5.236, "note_off_time": 5.486}, {"pitch": 42, "velocity": 80, "note_on_time": 5.237, "note_off_time": 5.486}, {"pitch": 42, "velocity": 80, "note_on_time": 5.487, "note_off_time": 5.735}, {"pitch": 42, "velocity": 80, "note_on_time": 5.736, "note_off_time": 5.984}, {"pitch": 64, "velocity": 80, "note_on_time": 5.984, "note_off_time": 6.232}, {"pitch": 42, "velocity": 80, "note_on_time": 5.985, "note_off_time": 6.232}, {"pitch": 60, "velocity": 80, "note_on_time": 6.232, "note_off_time": 6.48}, {"pitch": 42, "velocity": 80, "note_on_time": 6.233, "note_off_time": 6.48}, {"pitch": 42, "velocity": 80, "note_on_time": 6.48, "note_off_time": 6.728}, {"pitch": 62, "velocity": 80, "note_on_time": 6.728, "note_off_time": 6.975}, {"pitch": 42, "velocity": 80, "note_on_time": 6.728, "note_off_time": 6.975}, {"pitch": 64, "velocity": 80, "note_on_time": 6.975, "note_off_time": 7.227}, {"pitch": 42, "velocity": 80, "note_on_time": 6.976, "note_off_time": 7.228}, {"pitch": 60, "velocity": 80, "note_on_time": 7.227, "note_off_time": 7.475}, {"pitch": 42, "velocity": 80, "note_on_time": 7.228, "note_off_time": 7.476}, {"pitch": 60, "velocity": 80, "note_on_time": 7.475, "note_off_time": 7.724}, {"pitch": 42, "velocity": 80, "note_on_time": 7.476, "note_off_time": 7.724}, {"pitch": 64, "velocity": 80, "note_on_time": 7.724, "note_off_time": 7.973}, {"pitch": 42, "velocity": 80, "note_on_time": 7.725, "note_off_time": 7.973}, {"pitch": 42, "velocity": 80, "note_on_time": 7.973, "note_off_time": 8.222}, {"pitch": 64, "velocity": 80, "note_on_time": 8.222, "note_off_time": 8.47}, {"pitch": 42, "velocity": 80, "note_on_time": 8.223, "note_off_time": 8.47}, {"pitch": 64, "velocity": 80, "note_on_time": 8.47, "note_off_time": 8.721}, {"pitch": 42, "velocity": 80, "note_on_time": 8.47, "note_off_time": 8.721}, {"pitch": 64, "velocity": 80, "note_on_time": 8.721, "note_off_time": 8.969}, {"pitch": 42, "velocity": 80, "note_on_time": 8.722, "note_off_time": 8.969}]</notes><options name="Option List">((4, 4), [0.25], 3, 8, &lt;NoteRangePerHand.THREE_NOTES: 4&gt;, &lt;NoteRangePerHand.ONE_NOTE: 2&gt;, False, True, True, 248)</options></target_notes><trials><trial trial_no="1" timestamp="2022_10_02-13_33_23"><notes name="Played Notes">[{"pitch": 62, "velocity": 65, "note_on_time": 1.023, "note_off_time": 1.267}, {"pitch": 64, "velocity": 68, "note_on_time": 1.285, "note_off_time": 1.413}, {"pitch": 64, "velocity": 53, "note_on_time": 1.53, "note_off_time": 1.655}, {"pitch": 64, "velocity": 45, "note_on_time": 1.779, "note_off_time": 2.01}, {"pitch": 62, "velocity": 60, "note_on_time": 2.03, "note_off_time": 2.25}, {"pitch": 64, "velocity": 68, "note_on_time": 2.267, "note_off_time": 2.407}, {"pitch": 64, "velocity": 62, "note_on_time": 2.523, "note_off_time": 2.737}, {"pitch": 62, "velocity": 59, "note_on_time": 2.741, "note_off_time": 2.98}, {"pitch": 60, "velocity": 55, "note_on_time": 3.016, "note_off_time": 3.192}, {"pitch": 62, "velocity": 58, "note_on_time": 3.525, "note_off_time": 3.734}, {"pitch": 60, "velocity": 64, "note_on_time": 4.001, "note_off_time": 4.176}, {"pitch": 64, "velocity": 57, "note_on_time": 4.26, "note_off_time": 4.384}, {"pitch": 64, "velocity": 58, "note_on_time": 4.508, "note_off_time": 4.715}, {"pitch": 62, "velocity": 57, "note_on_time": 4.752, "note_off_time": 4.909}, {"pitch": 60, "velocity": 59, "note_on_time": 5.042, "note_off_time": 5.205}, {"pitch": 60, "velocity": 65, "note_on_time": 5.548, "note_off_time": 5.841}, {"pitch": 64, "velocity": 48, "note_on_time": 5.991, "note_off_time": 6.231}, {"pitch": 60, "velocity": 32, "note_on_time": 7.003, "note_off_time": 7.4}, {"pitch": 64, "velocity": 38, "note_on_time": 7.951, "note_off_time": 8.097}, {"pitch": 64, "velocity": 56, "note_on_time": 8.22, "note_off_time": 8.373}, {"pitch": 64, "velocity": 58, "note_on_time": 8.494, "note_off_time": 8.684}]</notes><guidance name="Guidance Mode">None</guidance><error name="Error value">0.422431956521739</error></trial></trials></MIDI>