<MIDI midiNo="2022_12_22-12_23_40"><target_notes><notes name="Note List">[{"pitch": 42, "velocity": 80, "note_on_time": 0.003, "note_off_time": 0.252}, {"pitch": 42, "velocity": 80, "note_on_time": 0.252, "note_off_time": 0.501}, {"pitch": 42, "velocity": 80, "note_on_time": 0.502, "note_off_time": 0.749}, {"pitch": 42, "velocity": 80, "note_on_time": 0.749, "note_off_time": 1.0}, {"pitch": 64, "velocity": 80, "note_on_time": 1.0, "note_off_time": 1.249}, {"pitch": 42, "velocity": 80, "note_on_time": 1.0, "note_off_time": 1.249}, {"pitch": 65, "velocity": 80, "note_on_time": 1.249, "note_off_time": 1.498}, {"pitch": 42, "velocity": 80, "note_on_time": 1.249, "note_off_time": 1.499}, {"pitch": 60, "velocity": 80, "note_on_time": 1.498, "note_off_time": 1.746}, {"pitch": 42, "velocity": 80, "note_on_time": 1.499, "note_off_time": 1.747}, {"pitch": 60, "velocity": 80, "note_on_time": 1.746, "note_off_time": 1.997}, {"pitch": 42, "velocity": 80, "note_on_time": 1.747, "note_off_time": 1.997}, {"pitch": 65, "velocity": 80, "note_on_time": 1.997, "note_off_time": 2.245}, {"pitch": 42, "velocity": 80, "note_on_time": 1.997, "note_off_time": 2.245}, {"pitch": 67, "velocity": 80, "note_on_time": 2.245, "note_off_time": 2.494}, {"pitch": 42, "velocity": 80, "note_on_time": 2.245, "note_off_time": 2.495}, {"pitch": 65, "velocity": 80, "note_on_time": 2.494, "note_off_time": 2.744}, {"pitch": 42, "velocity": 80, "note_on_time": 2.495, "note_off_time": 2.744}, {"pitch": 60, "velocity": 80, "note_on_time": 2.744, "note_off_time": 2.994}, {"pitch": 42, "velocity": 80, "note_on_time": 2.744, "note_off_time": 2.995}, {"pitch": 64, "velocity": 80, "note_on_time": 2.994, "note_off_time": 3.242}, {"pitch": 42, "velocity": 80, "note_on_time": 2.995, "note_off_time": 3.243}, {"pitch": 67, "velocity": 80, "note_on_time": 3.242, "note_off_time": 3.49}, {"pitch": 42, "velocity": 80, "note_on_time": 3.243, "note_off_time": 3.491}, {"pitch": 42, "velocity": 80, "note_on_time": 3.491, "note_off_time": 3.74}, {"pitch": 65, "velocity": 80, "note_on_time": 3.49, "note_off_time": 3.99}, {"pitch": 42, "velocity": 80, "note_on_time": 3.74, "note_off_time": 3.991}, {"pitch": 62, "velocity": 80, "note_on_time": 3.99, "note_off_time": 4.237}, {"pitch": 42, "velocity": 80, "note_on_time": 3.991, "note_off_time": 4.238}, {"pitch": 65, "velocity": 80, "note_on_time": 4.237, "note_off_time": 4.485}, {"pitch": 42, "velocity": 80, "note_on_time": 4.238, "note_off_time": 4.486}, {"pitch": 67, "velocity": 80, "note_on_time": 4.485, "note_off_time": 4.735}, {"pitch": 42, "velocity": 80, "note_on_time": 4.486, "note_off_time": 4.736}, {"pitch": 64, "velocity": 80, "note_on_time": 4.735, "note_off_time": 4.985}, {"pitch": 42, "velocity": 80, "note_on_time": 4.736, "note_off_time": 4.985}, {"pitch": 67, "velocity": 80, "note_on_time": 4.985, "note_off_time": 5.233}, {"pitch": 42, "velocity": 80, "note_on_time": 4.985, "note_off_time": 5.234}, {"pitch": 67, "velocity": 80, "note_on_time": 5.233, "note_off_time": 5.481}, {"pitch": 42, "velocity": 80, "note_on_time": 5.234, "note_off_time": 5.482}, {"pitch": 64, "velocity": 80, "note_on_time": 5.481, "note_off_time": 5.729}, {"pitch": 42, "velocity": 80, "note_on_time": 5.482, "note_off_time": 5.729}, {"pitch": 42, "velocity": 80, "note_on_time": 5.729, "note_off_time": 5.977}, {"pitch": 62, "velocity": 80, "note_on_time": 5.977, "note_off_time": 6.226}, {"pitch": 42, "velocity": 80, "note_on_time": 5.977, "note_off_time": 6.226}, {"pitch": 42, "velocity": 80, "note_on_time": 6.226, "note_off_time": 6.476}, {"pitch": 42, "velocity": 80, "note_on_time": 6.476, "note_off_time": 6.725}, {"pitch": 42, "velocity": 80, "note_on_time": 6.725, "note_off_time": 6.975}, {"pitch": 67, "velocity": 80, "note_on_time": 6.975, "note_off_time": 7.223}, {"pitch": 42, "velocity": 80, "note_on_time": 6.975, "note_off_time": 7.223}, {"pitch": 42, "velocity": 80, "note_on_time": 7.223, "note_off_time": 7.47}, {"pitch": 42, "velocity": 80, "note_on_time": 7.47, "note_off_time": 7.719}, {"pitch": 42, "velocity": 80, "note_on_time": 7.719, "note_off_time": 7.97}, {"pitch": 42, "velocity": 80, "note_on_time": 7.97, "note_off_time": 8.217}, {"pitch": 67, "velocity": 80, "note_on_time": 8.216, "note_off_time": 8.465}, {"pitch": 42, "velocity": 80, "note_on_time": 8.217, "note_off_time": 8.466}, {"pitch": 67, "velocity": 80, "note_on_time": 8.465, "note_off_time": 8.714}, {"pitch": 42, "velocity": 80, "note_on_time": 8.466, "note_off_time": 8.714}, {"pitch": 67, "velocity": 80, "note_on_time": 8.714, "note_off_time": 8.962}, {"pitch": 42, "velocity": 80, "note_on_time": 8.714, "note_off_time": 8.962}]</notes><options name="Option List">((4, 4), [0.5, 0.25], 3, 8, &lt;NoteRangePerHand.C_TO_G: 6&gt;, &lt;NoteRangePerHand.ONE_NOTE: 2&gt;, False, True, False, '248')</options></target_notes><trials><trial trial_no="1" timestamp="2022_12_22-12_23_30"><notes name="Played Notes">[{"pitch": 64, "velocity": 56, "note_on_time": 0.981, "note_off_time": 1.21}, {"pitch": 67, "velocity": 67, "note_on_time": 1.219, "note_off_time": 1.51}, {"pitch": 60, "velocity": 73, "note_on_time": 1.496, "note_off_time": 1.619}, {"pitch": 60, "velocity": 70, "note_on_time": 1.725, "note_off_time": 1.976}, {"pitch": 65, "velocity": 74, "note_on_time": 1.97, "note_off_time": 2.223}, {"pitch": 67, "velocity": 69, "note_on_time": 2.241, "note_off_time": 2.552}, {"pitch": 65, "velocity": 83, "note_on_time": 2.501, "note_off_time": 2.767}, {"pitch": 60, "velocity": 72, "note_on_time": 2.772, "note_off_time": 2.996}, {"pitch": 64, "velocity": 77, "note_on_time": 3.006, "note_off_time": 3.232}, {"pitch": 67, "velocity": 74, "note_on_time": 3.247, "note_off_time": 3.536}, {"pitch": 65, "velocity": 68, "note_on_time": 3.511, "note_off_time": 3.916}, {"pitch": 62, "velocity": 81, "note_on_time": 4.301, "note_off_time": 4.511}, {"pitch": 65, "velocity": 60, "note_on_time": 4.509, "note_off_time": 4.742}, {"pitch": 67, "velocity": 61, "note_on_time": 4.757, "note_off_time": 4.971}, {"pitch": 64, "velocity": 72, "note_on_time": 4.981, "note_off_time": 5.338}, {"pitch": 67, "velocity": 84, "note_on_time": 5.5, "note_off_time": 5.607}, {"pitch": 67, "velocity": 61, "note_on_time": 5.723, "note_off_time": 5.991}, {"pitch": 64, "velocity": 56, "note_on_time": 5.989, "note_off_time": 6.233}, {"pitch": 62, "velocity": 72, "note_on_time": 6.749, "note_off_time": 7.093}, {"pitch": 67, "velocity": 76, "note_on_time": 7.273, "note_off_time": 7.566}, {"pitch": 67, "velocity": 73, "note_on_time": 8.242, "note_off_time": 8.346}, {"pitch": 67, "velocity": 74, "note_on_time": 8.434, "note_off_time": 8.545}, {"pitch": 67, "velocity": 75, "note_on_time": 8.704, "note_off_time": 8.845}]</notes><guidance name="Guidance Mode">None</guidance><error name="Error value">0.14424025000000013</error></trial><trial trial_no="2" timestamp="2022_12_22-12_23_53"><notes name="Played Notes">[{"pitch": 64, "velocity": 61, "note_on_time": 0.997, "note_off_time": 1.235}, {"pitch": 67, "velocity": 66, "note_on_time": 1.23, "note_off_time": 1.472}, {"pitch": 60, "velocity": 72, "note_on_time": 1.487, "note_off_time": 1.611}, {"pitch": 60, "velocity": 72, "note_on_time": 1.729, "note_off_time": 1.994}, {"pitch": 65, "velocity": 55, "note_on_time": 1.994, "note_off_time": 2.224}, {"pitch": 67, "velocity": 68, "note_on_time": 2.238, "note_off_time": 2.496}, {"pitch": 65, "velocity": 70, "note_on_time": 2.484, "note_off_time": 2.734}, {"pitch": 60, "velocity": 70, "note_on_time": 2.759, "note_off_time": 2.966}, {"pitch": 64, "velocity": 71, "note_on_time": 2.999, "note_off_time": 3.241}, {"pitch": 67, "velocity": 67, "note_on_time": 3.243, "note_off_time": 3.497}, {"pitch": 65, "velocity": 64, "note_on_time": 3.491, "note_off_time": 3.895}, {"pitch": 62, "velocity": 66, "note_on_time": 4.267, "note_off_time": 4.516}, {"pitch": 65, "velocity": 71, "note_on_time": 4.516, "note_off_time": 4.721}, {"pitch": 67, "velocity": 72, "note_on_time": 4.74, "note_off_time": 5.004}, {"pitch": 64, "velocity": 59, "note_on_time": 5.016, "note_off_time": 5.293}, {"pitch": 67, "velocity": 65, "note_on_time": 5.482, "note_off_time": 5.586}, {"pitch": 67, "velocity": 69, "note_on_time": 5.745, "note_off_time": 5.987}, {"pitch": 64, "velocity": 78, "note_on_time": 5.975, "note_off_time": 6.18}, {"pitch": 62, "velocity": 71, "note_on_time": 6.497, "note_off_time": 6.735}, {"pitch": 67, "velocity": 73, "note_on_time": 7.281, "note_off_time": 7.49}, {"pitch": 67, "velocity": 75, "note_on_time": 7.888, "note_off_time": 7.99}, {"pitch": 67, "velocity": 72, "note_on_time": 8.135, "note_off_time": 8.239}, {"pitch": 67, "velocity": 74, "note_on_time": 8.422, "note_off_time": 8.571}]</notes><guidance name="Guidance Mode">None</guidance><error name="Error value">0.12896625000000006</error></trial></trials></MIDI>