<MIDI midiNo="2022_08_17-16_33_14"><target_notes><notes name="Note List">[{"pitch": 42, "velocity": 80, "note_on_time": 0.003, "note_off_time": 0.942}, {"pitch": 42, "velocity": 80, "note_on_time": 0.943, "note_off_time": 1.879}, {"pitch": 42, "velocity": 80, "note_on_time": 1.879, "note_off_time": 2.817}, {"pitch": 42, "velocity": 80, "note_on_time": 2.817, "note_off_time": 3.751}, {"pitch": 42, "velocity": 80, "note_on_time": 3.751, "note_off_time": 4.688}, {"pitch": 60, "velocity": 80, "note_on_time": 3.751, "note_off_time": 5.623}, {"pitch": 42, "velocity": 80, "note_on_time": 4.688, "note_off_time": 5.623}, {"pitch": 42, "velocity": 80, "note_on_time": 5.623, "note_off_time": 6.56}, {"pitch": 42, "velocity": 80, "note_on_time": 6.561, "note_off_time": 7.496}, {"pitch": 62, "velocity": 80, "note_on_time": 7.496, "note_off_time": 8.434}, {"pitch": 42, "velocity": 80, "note_on_time": 7.496, "note_off_time": 8.434}, {"pitch": 60, "velocity": 80, "note_on_time": 8.434, "note_off_time": 9.373}, {"pitch": 42, "velocity": 80, "note_on_time": 8.434, "note_off_time": 9.373}, {"pitch": 64, "velocity": 80, "note_on_time": 9.373, "note_off_time": 10.311}, {"pitch": 42, "velocity": 80, "note_on_time": 9.373, "note_off_time": 10.312}, {"pitch": 60, "velocity": 80, "note_on_time": 10.311, "note_off_time": 11.248}, {"pitch": 42, "velocity": 80, "note_on_time": 10.312, "note_off_time": 11.248}, {"pitch": 42, "velocity": 80, "note_on_time": 11.248, "note_off_time": 12.185}, {"pitch": 67, "velocity": 80, "note_on_time": 11.248, "note_off_time": 13.12}, {"pitch": 42, "velocity": 80, "note_on_time": 12.185, "note_off_time": 13.12}, {"pitch": 42, "velocity": 80, "note_on_time": 13.121, "note_off_time": 14.055}, {"pitch": 42, "velocity": 80, "note_on_time": 14.055, "note_off_time": 14.994}, {"pitch": 60, "velocity": 80, "note_on_time": 14.994, "note_off_time": 15.933}, {"pitch": 42, "velocity": 80, "note_on_time": 14.995, "note_off_time": 15.934}, {"pitch": 42, "velocity": 80, "note_on_time": 15.934, "note_off_time": 16.87}, {"pitch": 64, "velocity": 80, "note_on_time": 16.87, "note_off_time": 17.805}, {"pitch": 42, "velocity": 80, "note_on_time": 16.87, "note_off_time": 17.805}, {"pitch": 62, "velocity": 80, "note_on_time": 17.805, "note_off_time": 18.73}, {"pitch": 42, "velocity": 80, "note_on_time": 17.805, "note_off_time": 18.73}, {"pitch": 64, "velocity": 80, "note_on_time": 18.73, "note_off_time": 19.665}, {"pitch": 42, "velocity": 80, "note_on_time": 18.73, "note_off_time": 19.665}, {"pitch": 42, "velocity": 80, "note_on_time": 19.665, "note_off_time": 20.601}, {"pitch": 42, "velocity": 80, "note_on_time": 20.602, "note_off_time": 21.534}, {"pitch": 42, "velocity": 80, "note_on_time": 21.534, "note_off_time": 22.47}, {"pitch": 60, "velocity": 80, "note_on_time": 22.469, "note_off_time": 23.404}, {"pitch": 42, "velocity": 80, "note_on_time": 22.47, "note_off_time": 23.404}, {"pitch": 60, "velocity": 80, "note_on_time": 23.404, "note_off_time": 24.332}, {"pitch": 42, "velocity": 80, "note_on_time": 23.404, "note_off_time": 24.332}, {"pitch": 62, "velocity": 80, "note_on_time": 24.332, "note_off_time": 25.268}, {"pitch": 42, "velocity": 80, "note_on_time": 24.333, "note_off_time": 25.268}, {"pitch": 60, "velocity": 80, "note_on_time": 25.268, "note_off_time": 26.199}, {"pitch": 42, "velocity": 80, "note_on_time": 25.269, "note_off_time": 26.199}, {"pitch": 42, "velocity": 80, "note_on_time": 26.199, "note_off_time": 27.131}, {"pitch": 65, "velocity": 80, "note_on_time": 26.199, "note_off_time": 28.063}, {"pitch": 42, "velocity": 80, "note_on_time": 27.132, "note_off_time": 28.063}, {"pitch": 67, "velocity": 80, "note_on_time": 28.063, "note_off_time": 28.997}, {"pitch": 42, "velocity": 80, "note_on_time": 28.063, "note_off_time": 28.997}, {"pitch": 60, "velocity": 80, "note_on_time": 28.997, "note_off_time": 29.929}, {"pitch": 42, "velocity": 80, "note_on_time": 28.997, "note_off_time": 29.929}, {"pitch": 42, "velocity": 80, "note_on_time": 29.929, "note_off_time": 30.861}, {"pitch": 60, "velocity": 80, "note_on_time": 30.86, "note_off_time": 31.796}, {"pitch": 42, "velocity": 80, "note_on_time": 30.861, "note_off_time": 31.796}, {"pitch": 60, "velocity": 80, "note_on_time": 31.796, "note_off_time": 32.731}, {"pitch": 42, "velocity": 80, "note_on_time": 31.796, "note_off_time": 32.731}, {"pitch": 60, "velocity": 80, "note_on_time": 32.731, "note_off_time": 33.671}, {"pitch": 42, "velocity": 80, "note_on_time": 32.732, "note_off_time": 33.672}]</notes><options name="Option List">((4, 4), [0.5, 0.25], 3, 8, &lt;NoteRangePerHand.C_TO_G: 6&gt;, &lt;NoteRangePerHand.ONE_NOTE: 2&gt;, False, True, True, '65')</options></target_notes><trials><trial trial_no="1" timestamp="2022_08_17-16_32_39"><notes name="Played Notes">[{"pitch": 60, "velocity": 87, "note_on_time": 3.756, "note_off_time": 5.576}, {"pitch": 62, "velocity": 76, "note_on_time": 7.503, "note_off_time": 8.444}, {"pitch": 60, "velocity": 70, "note_on_time": 8.42, "note_off_time": 9.284}, {"pitch": 64, "velocity": 72, "note_on_time": 9.323, "note_off_time": 10.295}, {"pitch": 60, "velocity": 77, "note_on_time": 10.304, "note_off_time": 11.255}, {"pitch": 67, "velocity": 82, "note_on_time": 11.223, "note_off_time": 13.1}, {"pitch": 60, "velocity": 79, "note_on_time": 14.965, "note_off_time": 15.875}, {"pitch": 64, "velocity": 71, "note_on_time": 16.858, "note_off_time": 17.777}, {"pitch": 62, "velocity": 69, "note_on_time": 17.796, "note_off_time": 18.724}, {"pitch": 64, "velocity": 78, "note_on_time": 18.707, "note_off_time": 19.603}, {"pitch": 60, "velocity": 76, "note_on_time": 22.464, "note_off_time": 23.035}, {"pitch": 60, "velocity": 72, "note_on_time": 23.361, "note_off_time": 24.012}, {"pitch": 62, "velocity": 70, "note_on_time": 24.31, "note_off_time": 25.255}, {"pitch": 60, "velocity": 73, "note_on_time": 25.25, "note_off_time": 26.148}, {"pitch": 64, "velocity": 66, "note_on_time": 26.143, "note_off_time": 27.095}, {"pitch": 65, "velocity": 71, "note_on_time": 27.113, "note_off_time": 28.028}, {"pitch": 67, "velocity": 55, "note_on_time": 28.043, "note_off_time": 28.988}, {"pitch": 60, "velocity": 67, "note_on_time": 29.024, "note_off_time": 29.142}, {"pitch": 60, "velocity": 76, "note_on_time": 29.9, "note_off_time": 30.365}, {"pitch": 60, "velocity": 78, "note_on_time": 30.815, "note_off_time": 31.289}, {"pitch": 60, "velocity": 81, "note_on_time": 31.74, "note_off_time": 32.194}]</notes><guidance name="Guidance Mode">None</guidance><error name="Error value">1.1221771764705872</error></trial><trial trial_no="2" timestamp="2022_08_17-16_33_27"><notes name="Played Notes">[{"pitch": 60, "velocity": 84, "note_on_time": 3.692, "note_off_time": 5.558}, {"pitch": 62, "velocity": 61, "note_on_time": 7.507, "note_off_time": 8.452}, {"pitch": 60, "velocity": 74, "note_on_time": 8.44, "note_off_time": 9.396}, {"pitch": 64, "velocity": 69, "note_on_time": 9.372, "note_off_time": 10.318}, {"pitch": 60, "velocity": 73, "note_on_time": 10.303, "note_off_time": 11.229}, {"pitch": 67, "velocity": 72, "note_on_time": 11.198, "note_off_time": 13.028}, {"pitch": 60, "velocity": 71, "note_on_time": 14.969, "note_off_time": 15.884}, {"pitch": 64, "velocity": 63, "note_on_time": 16.791, "note_off_time": 17.741}, {"pitch": 62, "velocity": 60, "note_on_time": 17.741, "note_off_time": 18.704}, {"pitch": 64, "velocity": 64, "note_on_time": 18.691, "note_off_time": 19.526}, {"pitch": 60, "velocity": 65, "note_on_time": 22.429, "note_off_time": 23.102}, {"pitch": 60, "velocity": 68, "note_on_time": 23.401, "note_off_time": 23.938}, {"pitch": 62, "velocity": 68, "note_on_time": 24.311, "note_off_time": 25.264}, {"pitch": 60, "velocity": 71, "note_on_time": 25.256, "note_off_time": 26.179}, {"pitch": 65, "velocity": 72, "note_on_time": 26.164, "note_off_time": 27.08}, {"pitch": 67, "velocity": 74, "note_on_time": 27.092, "note_off_time": 27.614}, {"pitch": 60, "velocity": 70, "note_on_time": 29.011, "note_off_time": 29.548}, {"pitch": 60, "velocity": 71, "note_on_time": 29.933, "note_off_time": 30.457}, {"pitch": 60, "velocity": 78, "note_on_time": 30.821, "note_off_time": 31.332}]</notes><guidance name="Guidance Mode">None</guidance><error name="Error value">0.19743035294117667</error></trial><trial trial_no="3" timestamp="2022_08_17-16_34_11"><notes name="Played Notes">[{"pitch": 60, "velocity": 76, "note_on_time": 3.732, "note_off_time": 5.553}, {"pitch": 62, "velocity": 67, "note_on_time": 7.493, "note_off_time": 8.416}, {"pitch": 60, "velocity": 72, "note_on_time": 8.413, "note_off_time": 9.315}, {"pitch": 64, "velocity": 72, "note_on_time": 9.321, "note_off_time": 10.266}, {"pitch": 60, "velocity": 74, "note_on_time": 10.263, "note_off_time": 11.209}, {"pitch": 67, "velocity": 77, "note_on_time": 11.176, "note_off_time": 12.802}, {"pitch": 60, "velocity": 63, "note_on_time": 14.921, "note_off_time": 15.582}, {"pitch": 64, "velocity": 70, "note_on_time": 16.872, "note_off_time": 17.762}, {"pitch": 62, "velocity": 64, "note_on_time": 17.782, "note_off_time": 18.722}, {"pitch": 64, "velocity": 72, "note_on_time": 18.71, "note_off_time": 19.463}, {"pitch": 60, "velocity": 80, "note_on_time": 22.437, "note_off_time": 22.957}, {"pitch": 60, "velocity": 78, "note_on_time": 23.338, "note_off_time": 23.811}, {"pitch": 62, "velocity": 69, "note_on_time": 24.306, "note_off_time": 25.244}, {"pitch": 60, "velocity": 77, "note_on_time": 25.249, "note_off_time": 26.128}, {"pitch": 64, "velocity": 74, "note_on_time": 26.147, "note_off_time": 27.96}, {"pitch": 60, "velocity": 54, "note_on_time": 29.913, "note_off_time": 30.447}, {"pitch": 60, "velocity": 79, "note_on_time": 30.863, "note_off_time": 31.344}, {"pitch": 60, "velocity": 74, "note_on_time": 31.726, "note_off_time": 32.166}, {"pitch": 60, "velocity": 89, "note_on_time": 32.67, "note_off_time": 33.346}]</notes><guidance name="Guidance Mode">None</guidance><error name="Error value">0.25519505882352955</error></trial><trial trial_no="4" timestamp="2022_08_17-16_34_58"><notes name="Played Notes">[{"pitch": 60, "velocity": 78, "note_on_time": 3.686, "note_off_time": 7.496}, {"pitch": 62, "velocity": 65, "note_on_time": 7.506, "note_off_time": 8.468}, {"pitch": 60, "velocity": 77, "note_on_time": 8.452, "note_off_time": 9.399}, {"pitch": 64, "velocity": 72, "note_on_time": 9.396, "note_off_time": 10.292}, {"pitch": 60, "velocity": 74, "note_on_time": 10.27, "note_off_time": 11.239}, {"pitch": 67, "velocity": 77, "note_on_time": 11.218, "note_off_time": 13.081}, {"pitch": 60, "velocity": 78, "note_on_time": 14.923, "note_off_time": 15.789}, {"pitch": 64, "velocity": 64, "note_on_time": 16.898, "note_off_time": 17.806}, {"pitch": 62, "velocity": 65, "note_on_time": 17.819, "note_off_time": 18.726}, {"pitch": 64, "velocity": 71, "note_on_time": 18.725, "note_off_time": 20.187}, {"pitch": 60, "velocity": 77, "note_on_time": 22.535, "note_off_time": 23.008}, {"pitch": 60, "velocity": 76, "note_on_time": 23.417, "note_off_time": 23.91}, {"pitch": 62, "velocity": 71, "note_on_time": 24.351, "note_off_time": 24.914}, {"pitch": 60, "velocity": 74, "note_on_time": 25.273, "note_off_time": 25.785}, {"pitch": 65, "velocity": 71, "note_on_time": 26.225, "note_off_time": 28.037}, {"pitch": 67, "velocity": 74, "note_on_time": 28.049, "note_off_time": 28.979}, {"pitch": 60, "velocity": 88, "note_on_time": 28.983, "note_off_time": 29.615}, {"pitch": 60, "velocity": 83, "note_on_time": 30.904, "note_off_time": 31.37}, {"pitch": 60, "velocity": 73, "note_on_time": 31.798, "note_off_time": 32.269}, {"pitch": 60, "velocity": 74, "note_on_time": 32.716, "note_off_time": 33.136}]</notes><guidance name="Guidance Mode">None</guidance><error name="Error value">0.04400070588235289</error></trial><trial trial_no="5" timestamp="2022_08_17-16_35_48"><notes name="Played Notes">[{"pitch": 60, "velocity": 82, "note_on_time": 3.744, "note_off_time": 5.553}, {"pitch": 62, "velocity": 77, "note_on_time": 7.453, "note_off_time": 8.384}, {"pitch": 60, "velocity": 75, "note_on_time": 8.376, "note_off_time": 9.317}, {"pitch": 64, "velocity": 70, "note_on_time": 9.313, "note_off_time": 10.274}, {"pitch": 60, "velocity": 62, "note_on_time": 10.261, "note_off_time": 11.189}, {"pitch": 67, "velocity": 76, "note_on_time": 11.167, "note_off_time": 12.828}, {"pitch": 60, "velocity": 78, "note_on_time": 14.938, "note_off_time": 15.835}, {"pitch": 65, "velocity": 70, "note_on_time": 16.859, "note_off_time": 17.747}, {"pitch": 64, "velocity": 66, "note_on_time": 17.752, "note_off_time": 18.67}, {"pitch": 65, "velocity": 59, "note_on_time": 18.674, "note_off_time": 19.533}, {"pitch": 60, "velocity": 68, "note_on_time": 20.485, "note_off_time": 21.056}, {"pitch": 60, "velocity": 74, "note_on_time": 21.493, "note_off_time": 22.097}, {"pitch": 62, "velocity": 71, "note_on_time": 22.459, "note_off_time": 23.416}, {"pitch": 60, "velocity": 74, "note_on_time": 23.401, "note_off_time": 24.329}, {"pitch": 65, "velocity": 70, "note_on_time": 24.315, "note_off_time": 25.226}, {"pitch": 67, "velocity": 72, "note_on_time": 25.223, "note_off_time": 25.519}, {"pitch": 67, "velocity": 70, "note_on_time": 26.133, "note_off_time": 27.063}, {"pitch": 60, "velocity": 75, "note_on_time": 27.084, "note_off_time": 27.691}, {"pitch": 60, "velocity": 80, "note_on_time": 29.009, "note_off_time": 29.557}, {"pitch": 60, "velocity": 77, "note_on_time": 29.92, "note_off_time": 30.433}, {"pitch": 60, "velocity": 71, "note_on_time": 30.877, "note_off_time": 31.751}]</notes><guidance name="Guidance Mode">None</guidance><error name="Error value">0.6769098823529405</error></trial></trials></MIDI>