<MIDI midiNo="2022_11_03-13_17_23"><target_notes><notes name="Note List">[{"pitch": 42, "velocity": 80, "note_on_time": 0.004, "note_off_time": 0.276}, {"pitch": 42, "velocity": 80, "note_on_time": 0.276, "note_off_time": 0.542}, {"pitch": 42, "velocity": 80, "note_on_time": 0.542, "note_off_time": 0.805}, {"pitch": 42, "velocity": 80, "note_on_time": 0.805, "note_off_time": 1.068}, {"pitch": 60, "velocity": 80, "note_on_time": 1.068, "note_off_time": 1.332}, {"pitch": 42, "velocity": 80, "note_on_time": 1.068, "note_off_time": 1.332}, {"pitch": 64, "velocity": 80, "note_on_time": 1.332, "note_off_time": 1.595}, {"pitch": 42, "velocity": 80, "note_on_time": 1.333, "note_off_time": 1.596}, {"pitch": 64, "velocity": 80, "note_on_time": 1.595, "note_off_time": 1.86}, {"pitch": 42, "velocity": 80, "note_on_time": 1.596, "note_off_time": 1.861}, {"pitch": 62, "velocity": 80, "note_on_time": 1.86, "note_off_time": 2.124}, {"pitch": 42, "velocity": 80, "note_on_time": 1.861, "note_off_time": 2.124}, {"pitch": 60, "velocity": 80, "note_on_time": 2.124, "note_off_time": 2.387}, {"pitch": 42, "velocity": 80, "note_on_time": 2.124, "note_off_time": 2.387}, {"pitch": 62, "velocity": 80, "note_on_time": 2.387, "note_off_time": 2.653}, {"pitch": 42, "velocity": 80, "note_on_time": 2.387, "note_off_time": 2.653}, {"pitch": 42, "velocity": 80, "note_on_time": 2.653, "note_off_time": 2.917}, {"pitch": 60, "velocity": 80, "note_on_time": 2.653, "note_off_time": 3.182}, {"pitch": 42, "velocity": 80, "note_on_time": 2.917, "note_off_time": 3.182}, {"pitch": 64, "velocity": 80, "note_on_time": 3.182, "note_off_time": 3.447}, {"pitch": 42, "velocity": 80, "note_on_time": 3.183, "note_off_time": 3.447}, {"pitch": 62, "velocity": 80, "note_on_time": 3.447, "note_off_time": 3.713}, {"pitch": 42, "velocity": 80, "note_on_time": 3.448, "note_off_time": 3.713}, {"pitch": 60, "velocity": 80, "note_on_time": 3.713, "note_off_time": 3.98}, {"pitch": 42, "velocity": 80, "note_on_time": 3.713, "note_off_time": 3.98}, {"pitch": 64, "velocity": 80, "note_on_time": 3.98, "note_off_time": 4.244}, {"pitch": 42, "velocity": 80, "note_on_time": 3.981, "note_off_time": 4.244}, {"pitch": 62, "velocity": 80, "note_on_time": 4.244, "note_off_time": 4.51}, {"pitch": 42, "velocity": 80, "note_on_time": 4.245, "note_off_time": 4.511}, {"pitch": 60, "velocity": 80, "note_on_time": 4.51, "note_off_time": 4.775}, {"pitch": 42, "velocity": 80, "note_on_time": 4.511, "note_off_time": 4.775}, {"pitch": 60, "velocity": 80, "note_on_time": 4.775, "note_off_time": 5.04}, {"pitch": 42, "velocity": 80, "note_on_time": 4.775, "note_off_time": 5.04}, {"pitch": 60, "velocity": 80, "note_on_time": 5.04, "note_off_time": 5.306}, {"pitch": 42, "velocity": 80, "note_on_time": 5.04, "note_off_time": 5.306}, {"pitch": 64, "velocity": 80, "note_on_time": 5.306, "note_off_time": 5.572}, {"pitch": 42, "velocity": 80, "note_on_time": 5.306, "note_off_time": 5.573}, {"pitch": 64, "velocity": 80, "note_on_time": 5.572, "note_off_time": 5.837}, {"pitch": 42, "velocity": 80, "note_on_time": 5.573, "note_off_time": 5.837}, {"pitch": 62, "velocity": 80, "note_on_time": 5.837, "note_off_time": 6.103}, {"pitch": 42, "velocity": 80, "note_on_time": 5.837, "note_off_time": 6.104}, {"pitch": 64, "velocity": 80, "note_on_time": 6.103, "note_off_time": 6.366}, {"pitch": 42, "velocity": 80, "note_on_time": 6.104, "note_off_time": 6.366}, {"pitch": 60, "velocity": 80, "note_on_time": 6.366, "note_off_time": 6.63}, {"pitch": 42, "velocity": 80, "note_on_time": 6.367, "note_off_time": 6.63}, {"pitch": 60, "velocity": 80, "note_on_time": 6.63, "note_off_time": 6.894}, {"pitch": 42, "velocity": 80, "note_on_time": 6.63, "note_off_time": 6.894}, {"pitch": 60, "velocity": 80, "note_on_time": 6.894, "note_off_time": 7.159}, {"pitch": 42, "velocity": 80, "note_on_time": 6.895, "note_off_time": 7.159}, {"pitch": 60, "velocity": 80, "note_on_time": 7.159, "note_off_time": 7.423}, {"pitch": 42, "velocity": 80, "note_on_time": 7.159, "note_off_time": 7.423}, {"pitch": 60, "velocity": 80, "note_on_time": 7.423, "note_off_time": 7.688}, {"pitch": 42, "velocity": 80, "note_on_time": 7.424, "note_off_time": 7.688}, {"pitch": 42, "velocity": 80, "note_on_time": 7.688, "note_off_time": 7.953}, {"pitch": 42, "velocity": 80, "note_on_time": 7.953, "note_off_time": 8.217}, {"pitch": 62, "velocity": 80, "note_on_time": 7.953, "note_off_time": 8.478}, {"pitch": 42, "velocity": 80, "note_on_time": 8.218, "note_off_time": 8.478}, {"pitch": 42, "velocity": 80, "note_on_time": 8.478, "note_off_time": 8.742}, {"pitch": 62, "velocity": 80, "note_on_time": 8.742, "note_off_time": 9.007}, {"pitch": 42, "velocity": 80, "note_on_time": 8.743, "note_off_time": 9.008}, {"pitch": 62, "velocity": 80, "note_on_time": 9.007, "note_off_time": 9.273}, {"pitch": 42, "velocity": 80, "note_on_time": 9.008, "note_off_time": 9.273}, {"pitch": 62, "velocity": 80, "note_on_time": 9.273, "note_off_time": 9.543}, {"pitch": 42, "velocity": 80, "note_on_time": 9.273, "note_off_time": 9.543}]</notes><options name="Option List">((4, 4), [0.5, 0.25], 3, 8, &lt;NoteRangePerHand.THREE_NOTES: 4&gt;, &lt;NoteRangePerHand.ONE_NOTE: 2&gt;, False, True, False, '232')</options></target_notes><trials><trial trial_no="1" timestamp="2022_11_03-13_17_12"><notes name="Played Notes">[{"pitch": 60, "velocity": 61, "note_on_time": 1.126, "note_off_time": 1.29}, {"pitch": 64, "velocity": 31, "note_on_time": 1.414, "note_off_time": 1.84}, {"pitch": 64, "velocity": 29, "note_on_time": 1.898, "note_off_time": 2.082}, {"pitch": 62, "velocity": 54, "note_on_time": 2.169, "note_off_time": 2.336}, {"pitch": 64, "velocity": 68, "note_on_time": 2.494, "note_off_time": 2.746}, {"pitch": 64, "velocity": 44, "note_on_time": 3.626, "note_off_time": 3.964}, {"pitch": 62, "velocity": 9, "note_on_time": 3.941, "note_off_time": 4.102}, {"pitch": 64, "velocity": 70, "note_on_time": 4.5, "note_off_time": 4.675}, {"pitch": 62, "velocity": 57, "note_on_time": 4.768, "note_off_time": 4.909}, {"pitch": 60, "velocity": 12, "note_on_time": 5.317, "note_off_time": 5.425}, {"pitch": 60, "velocity": 27, "note_on_time": 5.546, "note_off_time": 5.668}, {"pitch": 64, "velocity": 19, "note_on_time": 5.956, "note_off_time": 6.325}, {"pitch": 62, "velocity": 1, "note_on_time": 6.245, "note_off_time": 6.382}, {"pitch": 60, "velocity": 52, "note_on_time": 7.717, "note_off_time": 7.842}, {"pitch": 60, "velocity": 42, "note_on_time": 7.988, "note_off_time": 8.093}, {"pitch": 60, "velocity": 42, "note_on_time": 8.263, "note_off_time": 8.381}, {"pitch": 60, "velocity": 44, "note_on_time": 8.516, "note_off_time": 8.621}, {"pitch": 60, "velocity": 51, "note_on_time": 8.79, "note_off_time": 8.955}, {"pitch": 62, "velocity": 51, "note_on_time": 9.099, "note_off_time": 9.395}]</notes><guidance name="Guidance Mode">None</guidance><error name="Error value">0.7989392</error></trial><trial trial_no="2" timestamp="2022_11_03-13_17_37"><notes name="Played Notes">[{"pitch": 60, "velocity": 55, "note_on_time": 1.097, "note_off_time": 1.232}, {"pitch": 64, "velocity": 50, "note_on_time": 1.348, "note_off_time": 1.825}, {"pitch": 62, "velocity": 49, "note_on_time": 1.886, "note_off_time": 2.03}, {"pitch": 60, "velocity": 58, "note_on_time": 2.181, "note_off_time": 2.329}, {"pitch": 62, "velocity": 51, "note_on_time": 2.428, "note_off_time": 2.592}, {"pitch": 60, "velocity": 64, "note_on_time": 2.705, "note_off_time": 3.096}, {"pitch": 64, "velocity": 67, "note_on_time": 3.225, "note_off_time": 3.447}, {"pitch": 62, "velocity": 49, "note_on_time": 3.48, "note_off_time": 3.692}, {"pitch": 60, "velocity": 73, "note_on_time": 3.768, "note_off_time": 3.924}, {"pitch": 64, "velocity": 61, "note_on_time": 3.991, "note_off_time": 4.219}, {"pitch": 62, "velocity": 36, "note_on_time": 4.256, "note_off_time": 4.437}, {"pitch": 60, "velocity": 64, "note_on_time": 4.57, "note_off_time": 4.764}, {"pitch": 60, "velocity": 62, "note_on_time": 4.827, "note_off_time": 4.965}, {"pitch": 60, "velocity": 51, "note_on_time": 5.075, "note_off_time": 5.229}, {"pitch": 62, "velocity": 38, "note_on_time": 5.41, "note_off_time": 5.446}, {"pitch": 64, "velocity": 26, "note_on_time": 5.434, "note_off_time": 5.604}, {"pitch": 64, "velocity": 49, "note_on_time": 5.665, "note_off_time": 5.836}, {"pitch": 62, "velocity": 63, "note_on_time": 5.95, "note_off_time": 6.1}, {"pitch": 64, "velocity": 58, "note_on_time": 6.192, "note_off_time": 6.377}, {"pitch": 60, "velocity": 61, "note_on_time": 6.445, "note_off_time": 6.589}, {"pitch": 60, "velocity": 59, "note_on_time": 6.715, "note_off_time": 6.847}, {"pitch": 60, "velocity": 47, "note_on_time": 6.979, "note_off_time": 7.104}, {"pitch": 60, "velocity": 60, "note_on_time": 7.222, "note_off_time": 7.37}, {"pitch": 64, "velocity": 46, "note_on_time": 7.656, "note_off_time": 7.859}, {"pitch": 62, "velocity": 72, "note_on_time": 7.789, "note_off_time": 8.225}, {"pitch": 62, "velocity": 75, "note_on_time": 8.312, "note_off_time": 8.385}, {"pitch": 62, "velocity": 41, "note_on_time": 8.527, "note_off_time": 8.702}, {"pitch": 62, "velocity": 57, "note_on_time": 8.808, "note_off_time": 9.137}]</notes><guidance name="Guidance Mode">None</guidance><error name="Error value">0.572564</error></trial><trial trial_no="3" timestamp="2022_11_03-13_18_00"><notes name="Played Notes">[{"pitch": 60, "velocity": 70, "note_on_time": 1.06, "note_off_time": 1.196}, {"pitch": 64, "velocity": 44, "note_on_time": 1.345, "note_off_time": 1.496}, {"pitch": 64, "velocity": 68, "note_on_time": 1.604, "note_off_time": 1.781}, {"pitch": 62, "velocity": 47, "note_on_time": 1.876, "note_off_time": 2.039}, {"pitch": 60, "velocity": 73, "note_on_time": 2.209, "note_off_time": 2.353}, {"pitch": 62, "velocity": 42, "note_on_time": 2.446, "note_off_time": 2.592}, {"pitch": 60, "velocity": 60, "note_on_time": 2.701, "note_off_time": 3.065}, {"pitch": 64, "velocity": 61, "note_on_time": 3.219, "note_off_time": 3.408}, {"pitch": 62, "velocity": 52, "note_on_time": 3.487, "note_off_time": 3.655}, {"pitch": 60, "velocity": 54, "note_on_time": 3.749, "note_off_time": 3.911}, {"pitch": 64, "velocity": 61, "note_on_time": 3.989, "note_off_time": 4.187}, {"pitch": 62, "velocity": 46, "note_on_time": 4.266, "note_off_time": 4.397}, {"pitch": 60, "velocity": 60, "note_on_time": 4.579, "note_off_time": 4.729}, {"pitch": 60, "velocity": 64, "note_on_time": 4.82, "note_off_time": 4.991}, {"pitch": 60, "velocity": 63, "note_on_time": 5.106, "note_off_time": 5.246}, {"pitch": 64, "velocity": 60, "note_on_time": 5.333, "note_off_time": 5.468}, {"pitch": 64, "velocity": 64, "note_on_time": 5.612, "note_off_time": 5.751}, {"pitch": 62, "velocity": 44, "note_on_time": 5.867, "note_off_time": 6.021}, {"pitch": 64, "velocity": 68, "note_on_time": 6.123, "note_off_time": 6.281}, {"pitch": 60, "velocity": 65, "note_on_time": 6.36, "note_off_time": 6.488}, {"pitch": 60, "velocity": 58, "note_on_time": 6.643, "note_off_time": 6.759}, {"pitch": 60, "velocity": 53, "note_on_time": 6.896, "note_off_time": 7.028}, {"pitch": 60, "velocity": 50, "note_on_time": 7.175, "note_off_time": 7.335}, {"pitch": 62, "velocity": 54, "note_on_time": 7.668, "note_off_time": 8.224}, {"pitch": 62, "velocity": 29, "note_on_time": 8.445, "note_off_time": 8.587}, {"pitch": 62, "velocity": 36, "note_on_time": 8.722, "note_off_time": 8.862}, {"pitch": 62, "velocity": 58, "note_on_time": 8.978, "note_off_time": 9.212}]</notes><guidance name="Guidance Mode">None</guidance><error name="Error value">0.06802639999999982</error></trial></trials></MIDI>