<MIDI midiNo="2022_10_26-14_41_14"><target_notes><notes name="Note List">[{"pitch": 42, "velocity": 80, "note_on_time": 0.004, "note_off_time": 0.233}, {"pitch": 42, "velocity": 80, "note_on_time": 0.234, "note_off_time": 0.452}, {"pitch": 42, "velocity": 80, "note_on_time": 0.452, "note_off_time": 0.669}, {"pitch": 42, "velocity": 80, "note_on_time": 0.669, "note_off_time": 0.887}, {"pitch": 64, "velocity": 80, "note_on_time": 0.887, "note_off_time": 1.107}, {"pitch": 42, "velocity": 80, "note_on_time": 0.887, "note_off_time": 1.107}, {"pitch": 60, "velocity": 80, "note_on_time": 1.107, "note_off_time": 1.324}, {"pitch": 42, "velocity": 80, "note_on_time": 1.107, "note_off_time": 1.324}, {"pitch": 62, "velocity": 80, "note_on_time": 1.324, "note_off_time": 1.543}, {"pitch": 42, "velocity": 80, "note_on_time": 1.324, "note_off_time": 1.543}, {"pitch": 60, "velocity": 80, "note_on_time": 1.543, "note_off_time": 1.76}, {"pitch": 42, "velocity": 80, "note_on_time": 1.543, "note_off_time": 1.76}, {"pitch": 67, "velocity": 80, "note_on_time": 1.76, "note_off_time": 1.978}, {"pitch": 42, "velocity": 80, "note_on_time": 1.76, "note_off_time": 1.978}, {"pitch": 60, "velocity": 80, "note_on_time": 1.978, "note_off_time": 2.196}, {"pitch": 42, "velocity": 80, "note_on_time": 1.978, "note_off_time": 2.196}, {"pitch": 64, "velocity": 80, "note_on_time": 2.196, "note_off_time": 2.414}, {"pitch": 42, "velocity": 80, "note_on_time": 2.196, "note_off_time": 2.414}, {"pitch": 64, "velocity": 80, "note_on_time": 2.414, "note_off_time": 2.633}, {"pitch": 42, "velocity": 80, "note_on_time": 2.414, "note_off_time": 2.633}, {"pitch": 67, "velocity": 80, "note_on_time": 2.633, "note_off_time": 2.85}, {"pitch": 42, "velocity": 80, "note_on_time": 2.633, "note_off_time": 2.85}, {"pitch": 62, "velocity": 80, "note_on_time": 2.85, "note_off_time": 3.068}, {"pitch": 42, "velocity": 80, "note_on_time": 2.85, "note_off_time": 3.068}, {"pitch": 62, "velocity": 80, "note_on_time": 3.068, "note_off_time": 3.285}, {"pitch": 42, "velocity": 80, "note_on_time": 3.068, "note_off_time": 3.285}, {"pitch": 62, "velocity": 80, "note_on_time": 3.285, "note_off_time": 3.505}, {"pitch": 42, "velocity": 80, "note_on_time": 3.285, "note_off_time": 3.505}, {"pitch": 64, "velocity": 80, "note_on_time": 3.505, "note_off_time": 3.721}, {"pitch": 42, "velocity": 80, "note_on_time": 3.505, "note_off_time": 3.721}, {"pitch": 60, "velocity": 80, "note_on_time": 3.721, "note_off_time": 3.939}, {"pitch": 42, "velocity": 80, "note_on_time": 3.721, "note_off_time": 3.939}, {"pitch": 62, "velocity": 80, "note_on_time": 3.939, "note_off_time": 4.157}, {"pitch": 42, "velocity": 80, "note_on_time": 3.939, "note_off_time": 4.157}, {"pitch": 60, "velocity": 80, "note_on_time": 4.157, "note_off_time": 4.377}, {"pitch": 42, "velocity": 80, "note_on_time": 4.157, "note_off_time": 4.377}, {"pitch": 64, "velocity": 80, "note_on_time": 4.377, "note_off_time": 4.595}, {"pitch": 42, "velocity": 80, "note_on_time": 4.377, "note_off_time": 4.595}, {"pitch": 64, "velocity": 80, "note_on_time": 4.595, "note_off_time": 4.813}, {"pitch": 42, "velocity": 80, "note_on_time": 4.595, "note_off_time": 4.813}, {"pitch": 60, "velocity": 80, "note_on_time": 4.813, "note_off_time": 5.031}, {"pitch": 42, "velocity": 80, "note_on_time": 4.813, "note_off_time": 5.031}, {"pitch": 67, "velocity": 80, "note_on_time": 5.031, "note_off_time": 5.248}, {"pitch": 42, "velocity": 80, "note_on_time": 5.031, "note_off_time": 5.248}, {"pitch": 42, "velocity": 80, "note_on_time": 5.249, "note_off_time": 5.467}, {"pitch": 65, "velocity": 80, "note_on_time": 5.248, "note_off_time": 5.687}, {"pitch": 42, "velocity": 80, "note_on_time": 5.467, "note_off_time": 5.687}, {"pitch": 64, "velocity": 80, "note_on_time": 5.687, "note_off_time": 5.906}, {"pitch": 42, "velocity": 80, "note_on_time": 5.687, "note_off_time": 5.906}, {"pitch": 65, "velocity": 80, "note_on_time": 5.906, "note_off_time": 6.124}, {"pitch": 42, "velocity": 80, "note_on_time": 5.906, "note_off_time": 6.124}, {"pitch": 60, "velocity": 80, "note_on_time": 6.124, "note_off_time": 6.344}, {"pitch": 42, "velocity": 80, "note_on_time": 6.124, "note_off_time": 6.344}, {"pitch": 62, "velocity": 80, "note_on_time": 6.344, "note_off_time": 6.56}, {"pitch": 42, "velocity": 80, "note_on_time": 6.344, "note_off_time": 6.56}, {"pitch": 65, "velocity": 80, "note_on_time": 6.56, "note_off_time": 6.779}, {"pitch": 42, "velocity": 80, "note_on_time": 6.561, "note_off_time": 6.779}, {"pitch": 62, "velocity": 80, "note_on_time": 6.779, "note_off_time": 6.995}, {"pitch": 42, "velocity": 80, "note_on_time": 6.779, "note_off_time": 6.995}, {"pitch": 42, "velocity": 80, "note_on_time": 6.995, "note_off_time": 7.214}, {"pitch": 62, "velocity": 80, "note_on_time": 7.214, "note_off_time": 7.43}, {"pitch": 42, "velocity": 80, "note_on_time": 7.214, "note_off_time": 7.43}, {"pitch": 62, "velocity": 80, "note_on_time": 7.43, "note_off_time": 7.649}, {"pitch": 42, "velocity": 80, "note_on_time": 7.43, "note_off_time": 7.649}, {"pitch": 62, "velocity": 80, "note_on_time": 7.649, "note_off_time": 7.866}, {"pitch": 42, "velocity": 80, "note_on_time": 7.649, "note_off_time": 7.866}]</notes><options name="Option List">((4, 4), [0.5, 0.25], 3, 8, &lt;NoteRangePerHand.C_TO_G: 6&gt;, &lt;NoteRangePerHand.ONE_NOTE: 2&gt;, False, True, True, 281)</options></target_notes><trials><trial trial_no="1" timestamp="2022_10_26-14_41_04"><notes name="Played Notes">[{"pitch": 64, "velocity": 72, "note_on_time": 0.895, "note_off_time": 1.127}, {"pitch": 60, "velocity": 65, "note_on_time": 1.113, "note_off_time": 1.362}, {"pitch": 62, "velocity": 68, "note_on_time": 1.358, "note_off_time": 1.575}, {"pitch": 60, "velocity": 68, "note_on_time": 1.585, "note_off_time": 1.772}, {"pitch": 67, "velocity": 69, "note_on_time": 1.789, "note_off_time": 1.989}, {"pitch": 60, "velocity": 70, "note_on_time": 1.976, "note_off_time": 2.224}, {"pitch": 64, "velocity": 70, "note_on_time": 2.205, "note_off_time": 2.299}, {"pitch": 64, "velocity": 66, "note_on_time": 2.441, "note_off_time": 2.652}, {"pitch": 67, "velocity": 73, "note_on_time": 2.661, "note_off_time": 2.896}, {"pitch": 62, "velocity": 62, "note_on_time": 2.896, "note_off_time": 2.952}, {"pitch": 62, "velocity": 70, "note_on_time": 3.115, "note_off_time": 3.184}, {"pitch": 62, "velocity": 70, "note_on_time": 3.339, "note_off_time": 3.568}, {"pitch": 64, "velocity": 64, "note_on_time": 3.579, "note_off_time": 3.813}, {"pitch": 60, "velocity": 58, "note_on_time": 3.815, "note_off_time": 4.039}, {"pitch": 62, "velocity": 62, "note_on_time": 4.049, "note_off_time": 4.269}, {"pitch": 60, "velocity": 65, "note_on_time": 4.28, "note_off_time": 4.456}, {"pitch": 64, "velocity": 63, "note_on_time": 4.487, "note_off_time": 4.6}, {"pitch": 64, "velocity": 55, "note_on_time": 4.741, "note_off_time": 4.969}, {"pitch": 60, "velocity": 68, "note_on_time": 4.981, "note_off_time": 5.172}, {"pitch": 67, "velocity": 67, "note_on_time": 5.204, "note_off_time": 5.477}, {"pitch": 65, "velocity": 75, "note_on_time": 5.473, "note_off_time": 5.856}, {"pitch": 64, "velocity": 73, "note_on_time": 5.939, "note_off_time": 6.146}, {"pitch": 65, "velocity": 61, "note_on_time": 6.173, "note_off_time": 6.394}, {"pitch": 60, "velocity": 55, "note_on_time": 6.406, "note_off_time": 6.584}, {"pitch": 62, "velocity": 66, "note_on_time": 6.613, "note_off_time": 6.812}, {"pitch": 65, "velocity": 64, "note_on_time": 6.853, "note_off_time": 7.053}, {"pitch": 62, "velocity": 54, "note_on_time": 7.087, "note_off_time": 7.321}, {"pitch": 62, "velocity": 69, "note_on_time": 7.551, "note_off_time": 7.628}, {"pitch": 62, "velocity": 67, "note_on_time": 7.791, "note_off_time": 7.862}]</notes><guidance name="Guidance Mode">None</guidance><error name="Error value">0.06537270370370361</error></trial><trial trial_no="2" timestamp="2022_10_26-14_41_27"><notes name="Played Notes">[{"pitch": 64, "velocity": 53, "note_on_time": 0.94, "note_off_time": 1.149}, {"pitch": 60, "velocity": 61, "note_on_time": 1.165, "note_off_time": 1.399}, {"pitch": 62, "velocity": 63, "note_on_time": 1.408, "note_off_time": 1.621}, {"pitch": 60, "velocity": 58, "note_on_time": 1.631, "note_off_time": 1.859}, {"pitch": 67, "velocity": 67, "note_on_time": 1.858, "note_off_time": 2.046}, {"pitch": 60, "velocity": 60, "note_on_time": 2.066, "note_off_time": 2.328}, {"pitch": 64, "velocity": 56, "note_on_time": 2.33, "note_off_time": 2.404}, {"pitch": 64, "velocity": 61, "note_on_time": 2.567, "note_off_time": 2.677}, {"pitch": 67, "velocity": 67, "note_on_time": 2.835, "note_off_time": 2.972}, {"pitch": 62, "velocity": 60, "note_on_time": 3.048, "note_off_time": 3.105}, {"pitch": 62, "velocity": 58, "note_on_time": 3.313, "note_off_time": 3.37}, {"pitch": 62, "velocity": 65, "note_on_time": 3.542, "note_off_time": 3.67}, {"pitch": 64, "velocity": 62, "note_on_time": 3.766, "note_off_time": 3.956}, {"pitch": 60, "velocity": 69, "note_on_time": 3.976, "note_off_time": 4.205}, {"pitch": 62, "velocity": 67, "note_on_time": 4.214, "note_off_time": 4.448}, {"pitch": 60, "velocity": 69, "note_on_time": 4.449, "note_off_time": 4.558}, {"pitch": 64, "velocity": 70, "note_on_time": 4.678, "note_off_time": 4.765}, {"pitch": 64, "velocity": 68, "note_on_time": 4.906, "note_off_time": 5.058}, {"pitch": 60, "velocity": 71, "note_on_time": 5.156, "note_off_time": 5.329}, {"pitch": 67, "velocity": 66, "note_on_time": 5.381, "note_off_time": 5.519}, {"pitch": 65, "velocity": 71, "note_on_time": 5.652, "note_off_time": 5.912}, {"pitch": 64, "velocity": 65, "note_on_time": 6.104, "note_off_time": 6.254}, {"pitch": 65, "velocity": 67, "note_on_time": 6.336, "note_off_time": 6.49}, {"pitch": 60, "velocity": 63, "note_on_time": 6.55, "note_off_time": 6.645}, {"pitch": 62, "velocity": 65, "note_on_time": 6.758, "note_off_time": 6.916}, {"pitch": 65, "velocity": 77, "note_on_time": 6.99, "note_off_time": 7.179}, {"pitch": 62, "velocity": 67, "note_on_time": 7.206, "note_off_time": 7.399}, {"pitch": 62, "velocity": 65, "note_on_time": 7.709, "note_off_time": 7.762}]</notes><guidance name="Guidance Mode">None</guidance><error name="Error value">0.10955959259259257</error></trial><trial trial_no="3" timestamp="2022_10_26-14_41_49"><notes name="Played Notes">[{"pitch": 64, "velocity": 69, "note_on_time": 0.908, "note_off_time": 1.097}, {"pitch": 60, "velocity": 55, "note_on_time": 1.138, "note_off_time": 1.381}, {"pitch": 62, "velocity": 67, "note_on_time": 1.375, "note_off_time": 1.576}, {"pitch": 60, "velocity": 66, "note_on_time": 1.601, "note_off_time": 1.82}, {"pitch": 67, "velocity": 70, "note_on_time": 1.809, "note_off_time": 1.992}, {"pitch": 60, "velocity": 74, "note_on_time": 1.989, "note_off_time": 2.143}, {"pitch": 64, "velocity": 61, "note_on_time": 2.24, "note_off_time": 2.346}, {"pitch": 64, "velocity": 52, "note_on_time": 2.481, "note_off_time": 2.568}, {"pitch": 67, "velocity": 70, "note_on_time": 2.701, "note_off_time": 2.905}, {"pitch": 62, "velocity": 54, "note_on_time": 3.157, "note_off_time": 3.225}, {"pitch": 62, "velocity": 53, "note_on_time": 3.371, "note_off_time": 3.549}, {"pitch": 64, "velocity": 66, "note_on_time": 3.61, "note_off_time": 3.852}, {"pitch": 60, "velocity": 59, "note_on_time": 3.837, "note_off_time": 4.073}, {"pitch": 62, "velocity": 66, "note_on_time": 4.076, "note_off_time": 4.323}, {"pitch": 60, "velocity": 70, "note_on_time": 4.312, "note_off_time": 4.537}, {"pitch": 64, "velocity": 68, "note_on_time": 4.546, "note_off_time": 4.665}, {"pitch": 64, "velocity": 61, "note_on_time": 4.77, "note_off_time": 5.02}, {"pitch": 60, "velocity": 79, "note_on_time": 5.006, "note_off_time": 5.217}, {"pitch": 67, "velocity": 60, "note_on_time": 5.226, "note_off_time": 5.486}, {"pitch": 65, "velocity": 78, "note_on_time": 5.474, "note_off_time": 5.769}, {"pitch": 64, "velocity": 79, "note_on_time": 5.928, "note_off_time": 6.158}, {"pitch": 65, "velocity": 68, "note_on_time": 6.175, "note_off_time": 6.364}, {"pitch": 60, "velocity": 79, "note_on_time": 6.377, "note_off_time": 6.577}, {"pitch": 62, "velocity": 62, "note_on_time": 6.605, "note_off_time": 6.811}, {"pitch": 65, "velocity": 71, "note_on_time": 6.823, "note_off_time": 7.084}, {"pitch": 62, "velocity": 76, "note_on_time": 7.047, "note_off_time": 7.264}, {"pitch": 62, "velocity": 84, "note_on_time": 7.463, "note_off_time": 7.563}, {"pitch": 62, "velocity": 82, "note_on_time": 7.705, "note_off_time": 7.781}]</notes><guidance name="Guidance Mode">None</guidance><error name="Error value">0.10787525925925917</error></trial></trials></MIDI>