<MIDI midiNo="2022_12_01-10_44_34"><target_notes><notes name="Note List">[{"pitch": 42, "velocity": 80, "note_on_time": 0.004, "note_off_time": 0.227}, {"pitch": 42, "velocity": 80, "note_on_time": 0.228, "note_off_time": 0.443}, {"pitch": 42, "velocity": 80, "note_on_time": 0.443, "note_off_time": 0.66}, {"pitch": 42, "velocity": 80, "note_on_time": 0.66, "note_off_time": 0.879}, {"pitch": 65, "velocity": 80, "note_on_time": 0.879, "note_off_time": 1.096}, {"pitch": 42, "velocity": 80, "note_on_time": 0.879, "note_off_time": 1.096}, {"pitch": 64, "velocity": 80, "note_on_time": 1.096, "note_off_time": 1.316}, {"pitch": 42, "velocity": 80, "note_on_time": 1.096, "note_off_time": 1.316}, {"pitch": 64, "velocity": 80, "note_on_time": 1.316, "note_off_time": 1.537}, {"pitch": 42, "velocity": 80, "note_on_time": 1.316, "note_off_time": 1.537}, {"pitch": 62, "velocity": 80, "note_on_time": 1.537, "note_off_time": 1.756}, {"pitch": 42, "velocity": 80, "note_on_time": 1.537, "note_off_time": 1.757}, {"pitch": 60, "velocity": 80, "note_on_time": 1.756, "note_off_time": 1.975}, {"pitch": 42, "velocity": 80, "note_on_time": 1.757, "note_off_time": 1.975}, {"pitch": 42, "velocity": 80, "note_on_time": 1.975, "note_off_time": 2.19}, {"pitch": 42, "velocity": 80, "note_on_time": 2.19, "note_off_time": 2.407}, {"pitch": 42, "velocity": 80, "note_on_time": 2.407, "note_off_time": 2.624}, {"pitch": 65, "velocity": 80, "note_on_time": 2.624, "note_off_time": 2.842}, {"pitch": 42, "velocity": 80, "note_on_time": 2.624, "note_off_time": 2.842}, {"pitch": 65, "velocity": 80, "note_on_time": 2.842, "note_off_time": 3.059}, {"pitch": 42, "velocity": 80, "note_on_time": 2.842, "note_off_time": 3.059}, {"pitch": 42, "velocity": 80, "note_on_time": 3.059, "note_off_time": 3.276}, {"pitch": 42, "velocity": 80, "note_on_time": 3.276, "note_off_time": 3.495}, {"pitch": 65, "velocity": 80, "note_on_time": 3.495, "note_off_time": 3.713}, {"pitch": 42, "velocity": 80, "note_on_time": 3.495, "note_off_time": 3.713}, {"pitch": 60, "velocity": 80, "note_on_time": 3.713, "note_off_time": 3.932}, {"pitch": 42, "velocity": 80, "note_on_time": 3.714, "note_off_time": 3.933}, {"pitch": 62, "velocity": 80, "note_on_time": 3.932, "note_off_time": 4.149}, {"pitch": 42, "velocity": 80, "note_on_time": 3.933, "note_off_time": 4.149}, {"pitch": 64, "velocity": 80, "note_on_time": 4.149, "note_off_time": 4.366}, {"pitch": 42, "velocity": 80, "note_on_time": 4.149, "note_off_time": 4.366}, {"pitch": 65, "velocity": 80, "note_on_time": 4.366, "note_off_time": 4.583}, {"pitch": 42, "velocity": 80, "note_on_time": 4.367, "note_off_time": 4.583}, {"pitch": 42, "velocity": 80, "note_on_time": 4.583, "note_off_time": 4.802}, {"pitch": 62, "velocity": 80, "note_on_time": 4.583, "note_off_time": 5.021}, {"pitch": 42, "velocity": 80, "note_on_time": 4.803, "note_off_time": 5.021}, {"pitch": 42, "velocity": 80, "note_on_time": 5.022, "note_off_time": 5.241}, {"pitch": 62, "velocity": 80, "note_on_time": 5.241, "note_off_time": 5.458}, {"pitch": 42, "velocity": 80, "note_on_time": 5.242, "note_off_time": 5.458}, {"pitch": 65, "velocity": 80, "note_on_time": 5.458, "note_off_time": 5.677}, {"pitch": 42, "velocity": 80, "note_on_time": 5.458, "note_off_time": 5.677}, {"pitch": 67, "velocity": 80, "note_on_time": 5.677, "note_off_time": 5.894}, {"pitch": 42, "velocity": 80, "note_on_time": 5.677, "note_off_time": 5.894}, {"pitch": 62, "velocity": 80, "note_on_time": 5.894, "note_off_time": 6.111}, {"pitch": 42, "velocity": 80, "note_on_time": 5.894, "note_off_time": 6.111}, {"pitch": 65, "velocity": 80, "note_on_time": 6.111, "note_off_time": 6.329}, {"pitch": 42, "velocity": 80, "note_on_time": 6.111, "note_off_time": 6.329}, {"pitch": 42, "velocity": 80, "note_on_time": 6.329, "note_off_time": 6.549}, {"pitch": 60, "velocity": 80, "note_on_time": 6.329, "note_off_time": 6.767}, {"pitch": 42, "velocity": 80, "note_on_time": 6.549, "note_off_time": 6.767}, {"pitch": 42, "velocity": 80, "note_on_time": 6.767, "note_off_time": 6.983}, {"pitch": 42, "velocity": 80, "note_on_time": 6.983, "note_off_time": 7.2}, {"pitch": 60, "velocity": 80, "note_on_time": 7.2, "note_off_time": 7.419}, {"pitch": 42, "velocity": 80, "note_on_time": 7.2, "note_off_time": 7.419}, {"pitch": 60, "velocity": 80, "note_on_time": 7.419, "note_off_time": 7.636}, {"pitch": 42, "velocity": 80, "note_on_time": 7.419, "note_off_time": 7.636}, {"pitch": 60, "velocity": 80, "note_on_time": 7.636, "note_off_time": 7.854}, {"pitch": 42, "velocity": 80, "note_on_time": 7.636, "note_off_time": 7.854}]</notes><options name="Option List">((4, 4), [0.5, 0.25], 3, 8, &lt;NoteRangePerHand.C_TO_G: 6&gt;, &lt;NoteRangePerHand.ONE_NOTE: 2&gt;, False, True, False, 281)</options></target_notes><trials><trial trial_no="1" timestamp="2022_12_01-10_44_25"><notes name="Played Notes">[{"pitch": 65, "velocity": 72, "note_on_time": 0.915, "note_off_time": 1.146}, {"pitch": 64, "velocity": 72, "note_on_time": 1.123, "note_off_time": 1.214}, {"pitch": 64, "velocity": 70, "note_on_time": 1.362, "note_off_time": 1.576}, {"pitch": 62, "velocity": 72, "note_on_time": 1.546, "note_off_time": 1.809}, {"pitch": 60, "velocity": 82, "note_on_time": 1.768, "note_off_time": 1.966}, {"pitch": 65, "velocity": 78, "note_on_time": 2.653, "note_off_time": 2.743}, {"pitch": 65, "velocity": 81, "note_on_time": 2.873, "note_off_time": 2.997}, {"pitch": 65, "velocity": 81, "note_on_time": 3.529, "note_off_time": 3.727}, {"pitch": 60, "velocity": 62, "note_on_time": 3.732, "note_off_time": 3.975}, {"pitch": 62, "velocity": 72, "note_on_time": 3.958, "note_off_time": 4.209}, {"pitch": 64, "velocity": 69, "note_on_time": 4.174, "note_off_time": 4.422}, {"pitch": 65, "velocity": 78, "note_on_time": 4.394, "note_off_time": 4.637}, {"pitch": 62, "velocity": 72, "note_on_time": 4.609, "note_off_time": 4.888}, {"pitch": 62, "velocity": 52, "note_on_time": 5.307, "note_off_time": 5.516}, {"pitch": 65, "velocity": 71, "note_on_time": 5.502, "note_off_time": 5.737}, {"pitch": 67, "velocity": 77, "note_on_time": 5.714, "note_off_time": 5.981}, {"pitch": 62, "velocity": 70, "note_on_time": 5.937, "note_off_time": 6.174}, {"pitch": 65, "velocity": 73, "note_on_time": 6.155, "note_off_time": 6.38}, {"pitch": 60, "velocity": 74, "note_on_time": 6.377, "note_off_time": 6.652}, {"pitch": 60, "velocity": 79, "note_on_time": 7.185, "note_off_time": 7.276}, {"pitch": 60, "velocity": 94, "note_on_time": 7.41, "note_off_time": 7.492}, {"pitch": 60, "velocity": 87, "note_on_time": 7.621, "note_off_time": 7.724}]</notes><guidance name="Guidance Mode">None</guidance><error name="Error value">0.016591947368420956</error></trial></trials></MIDI>