<MIDI midiNo="2022_11_21-19_39_00"><target_notes><notes name="Note List">[{"pitch": 42, "velocity": 80, "note_on_time": 0.004, "note_off_time": 0.405}, {"pitch": 42, "velocity": 80, "note_on_time": 0.405, "note_off_time": 0.809}, {"pitch": 42, "velocity": 80, "note_on_time": 0.809, "note_off_time": 1.214}, {"pitch": 42, "velocity": 80, "note_on_time": 1.214, "note_off_time": 1.62}, {"pitch": 42, "velocity": 80, "note_on_time": 1.62, "note_off_time": 2.028}, {"pitch": 62, "velocity": 80, "note_on_time": 1.62, "note_off_time": 2.432}, {"pitch": 42, "velocity": 80, "note_on_time": 2.028, "note_off_time": 2.432}, {"pitch": 42, "velocity": 80, "note_on_time": 2.433, "note_off_time": 2.84}, {"pitch": 62, "velocity": 80, "note_on_time": 2.432, "note_off_time": 3.247}, {"pitch": 42, "velocity": 80, "note_on_time": 2.84, "note_off_time": 3.247}, {"pitch": 60, "velocity": 80, "note_on_time": 3.247, "note_off_time": 3.651}, {"pitch": 42, "velocity": 80, "note_on_time": 3.247, "note_off_time": 3.651}, {"pitch": 64, "velocity": 80, "note_on_time": 3.651, "note_off_time": 4.056}, {"pitch": 42, "velocity": 80, "note_on_time": 3.652, "note_off_time": 4.056}, {"pitch": 64, "velocity": 80, "note_on_time": 4.056, "note_off_time": 4.462}, {"pitch": 42, "velocity": 80, "note_on_time": 4.057, "note_off_time": 4.463}, {"pitch": 64, "velocity": 80, "note_on_time": 4.462, "note_off_time": 4.866}, {"pitch": 42, "velocity": 80, "note_on_time": 4.463, "note_off_time": 4.867}, {"pitch": 42, "velocity": 80, "note_on_time": 4.867, "note_off_time": 5.27}, {"pitch": 62, "velocity": 80, "note_on_time": 4.866, "note_off_time": 5.673}, {"pitch": 42, "velocity": 80, "note_on_time": 5.271, "note_off_time": 5.673}, {"pitch": 42, "velocity": 80, "note_on_time": 5.673, "note_off_time": 6.077}, {"pitch": 42, "velocity": 80, "note_on_time": 6.078, "note_off_time": 6.482}, {"pitch": 64, "velocity": 80, "note_on_time": 6.481, "note_off_time": 6.887}, {"pitch": 42, "velocity": 80, "note_on_time": 6.482, "note_off_time": 6.887}, {"pitch": 62, "velocity": 80, "note_on_time": 6.887, "note_off_time": 7.291}, {"pitch": 42, "velocity": 80, "note_on_time": 6.888, "note_off_time": 7.292}, {"pitch": 62, "velocity": 80, "note_on_time": 7.291, "note_off_time": 7.698}, {"pitch": 42, "velocity": 80, "note_on_time": 7.292, "note_off_time": 7.699}, {"pitch": 62, "velocity": 80, "note_on_time": 7.699, "note_off_time": 8.103}, {"pitch": 42, "velocity": 80, "note_on_time": 7.699, "note_off_time": 8.103}, {"pitch": 42, "velocity": 80, "note_on_time": 8.104, "note_off_time": 8.507}, {"pitch": 64, "velocity": 80, "note_on_time": 8.103, "note_off_time": 8.914}, {"pitch": 42, "velocity": 80, "note_on_time": 8.507, "note_off_time": 8.914}, {"pitch": 42, "velocity": 80, "note_on_time": 8.915, "note_off_time": 9.318}, {"pitch": 42, "velocity": 80, "note_on_time": 9.318, "note_off_time": 9.725}, {"pitch": 62, "velocity": 80, "note_on_time": 9.725, "note_off_time": 10.13}, {"pitch": 42, "velocity": 80, "note_on_time": 9.725, "note_off_time": 10.13}, {"pitch": 64, "velocity": 80, "note_on_time": 10.13, "note_off_time": 10.534}, {"pitch": 42, "velocity": 80, "note_on_time": 10.131, "note_off_time": 10.534}, {"pitch": 60, "velocity": 80, "note_on_time": 10.534, "note_off_time": 10.938}, {"pitch": 42, "velocity": 80, "note_on_time": 10.534, "note_off_time": 10.938}, {"pitch": 62, "velocity": 80, "note_on_time": 10.938, "note_off_time": 11.343}, {"pitch": 42, "velocity": 80, "note_on_time": 10.939, "note_off_time": 11.343}, {"pitch": 60, "velocity": 80, "note_on_time": 11.343, "note_off_time": 11.75}, {"pitch": 42, "velocity": 80, "note_on_time": 11.344, "note_off_time": 11.75}, {"pitch": 64, "velocity": 80, "note_on_time": 11.75, "note_off_time": 12.155}, {"pitch": 42, "velocity": 80, "note_on_time": 11.75, "note_off_time": 12.156}, {"pitch": 60, "velocity": 80, "note_on_time": 12.155, "note_off_time": 12.56}, {"pitch": 42, "velocity": 80, "note_on_time": 12.156, "note_off_time": 12.56}, {"pitch": 60, "velocity": 80, "note_on_time": 12.56, "note_off_time": 12.967}, {"pitch": 42, "velocity": 80, "note_on_time": 12.56, "note_off_time": 12.968}, {"pitch": 42, "velocity": 80, "note_on_time": 12.968, "note_off_time": 13.374}, {"pitch": 60, "velocity": 80, "note_on_time": 13.374, "note_off_time": 13.78}, {"pitch": 42, "velocity": 80, "note_on_time": 13.374, "note_off_time": 13.78}, {"pitch": 60, "velocity": 80, "note_on_time": 13.78, "note_off_time": 14.186}, {"pitch": 42, "velocity": 80, "note_on_time": 13.781, "note_off_time": 14.187}, {"pitch": 60, "velocity": 80, "note_on_time": 14.186, "note_off_time": 14.592}, {"pitch": 42, "velocity": 80, "note_on_time": 14.187, "note_off_time": 14.592}]</notes><options name="Option List">((4, 4), [0.5, 0.25], 3, 8, &lt;NoteRangePerHand.THREE_NOTES: 4&gt;, &lt;NoteRangePerHand.ONE_NOTE: 2&gt;, False, True, False, 150)</options></target_notes><trials><trial trial_no="1" timestamp="2022_11_21-19_38_44"><notes name="Played Notes">[{"pitch": 62, "velocity": 58, "note_on_time": 0.575, "note_off_time": 0.68}]</notes><guidance name="Guidance Mode">None</guidance><error name="Error value">1.6200000000000003</error></trial><trial trial_no="2" timestamp="2022_11_21-19_39_33"><notes name="Played Notes">[{"pitch": 62, "velocity": 75, "note_on_time": 1.619, "note_off_time": 2.159}, {"pitch": 62, "velocity": 77, "note_on_time": 2.459, "note_off_time": 3.007}, {"pitch": 60, "velocity": 89, "note_on_time": 3.247, "note_off_time": 3.674}, {"pitch": 64, "velocity": 84, "note_on_time": 3.659, "note_off_time": 3.858}, {"pitch": 64, "velocity": 74, "note_on_time": 4.038, "note_off_time": 4.228}, {"pitch": 64, "velocity": 73, "note_on_time": 4.455, "note_off_time": 4.711}, {"pitch": 62, "velocity": 65, "note_on_time": 4.883, "note_off_time": 5.034}, {"pitch": 64, "velocity": 73, "note_on_time": 6.875, "note_off_time": 7.219}, {"pitch": 62, "velocity": 63, "note_on_time": 7.238, "note_off_time": 7.371}, {"pitch": 62, "velocity": 66, "note_on_time": 7.648, "note_off_time": 7.834}, {"pitch": 62, "velocity": 60, "note_on_time": 8.071, "note_off_time": 8.355}, {"pitch": 64, "velocity": 74, "note_on_time": 8.456, "note_off_time": 8.79}, {"pitch": 62, "velocity": 58, "note_on_time": 9.803, "note_off_time": 10.16}, {"pitch": 64, "velocity": 72, "note_on_time": 10.157, "note_off_time": 10.5}, {"pitch": 60, "velocity": 66, "note_on_time": 10.525, "note_off_time": 10.814}, {"pitch": 62, "velocity": 64, "note_on_time": 10.902, "note_off_time": 11.199}, {"pitch": 60, "velocity": 71, "note_on_time": 11.287, "note_off_time": 11.463}, {"pitch": 64, "velocity": 66, "note_on_time": 11.688, "note_off_time": 12.027}, {"pitch": 60, "velocity": 74, "note_on_time": 12.059, "note_off_time": 12.23}, {"pitch": 60, "velocity": 81, "note_on_time": 12.463, "note_off_time": 12.663}, {"pitch": 60, "velocity": 76, "note_on_time": 13.309, "note_off_time": 13.49}, {"pitch": 60, "velocity": 79, "note_on_time": 13.692, "note_off_time": 13.895}, {"pitch": 60, "velocity": 68, "note_on_time": 14.094, "note_off_time": 14.442}]</notes><guidance name="Guidance Mode">None</guidance><error name="Error value">0.053749999999999874</error></trial><trial trial_no="3" timestamp="2022_11_21-19_40_08"><notes name="Played Notes">[{"pitch": 62, "velocity": 78, "note_on_time": 1.591, "note_off_time": 2.209}, {"pitch": 62, "velocity": 81, "note_on_time": 2.471, "note_off_time": 3.035}, {"pitch": 60, "velocity": 88, "note_on_time": 3.287, "note_off_time": 3.787}, {"pitch": 64, "velocity": 64, "note_on_time": 3.738, "note_off_time": 3.921}, {"pitch": 64, "velocity": 70, "note_on_time": 4.109, "note_off_time": 4.267}, {"pitch": 64, "velocity": 80, "note_on_time": 4.525, "note_off_time": 4.934}, {"pitch": 62, "velocity": 73, "note_on_time": 4.907, "note_off_time": 5.257}, {"pitch": 64, "velocity": 80, "note_on_time": 6.445, "note_off_time": 6.869}, {"pitch": 62, "velocity": 70, "note_on_time": 6.827, "note_off_time": 6.973}, {"pitch": 62, "velocity": 69, "note_on_time": 7.233, "note_off_time": 7.401}, {"pitch": 62, "velocity": 71, "note_on_time": 7.65, "note_off_time": 8.028}, {"pitch": 64, "velocity": 82, "note_on_time": 8.027, "note_off_time": 8.563}, {"pitch": 62, "velocity": 81, "note_on_time": 9.316, "note_off_time": 9.649}, {"pitch": 64, "velocity": 74, "note_on_time": 9.678, "note_off_time": 10.076}, {"pitch": 60, "velocity": 71, "note_on_time": 10.079, "note_off_time": 10.39}, {"pitch": 62, "velocity": 73, "note_on_time": 10.44, "note_off_time": 10.755}, {"pitch": 60, "velocity": 81, "note_on_time": 10.824, "note_off_time": 11.18}, {"pitch": 64, "velocity": 75, "note_on_time": 11.234, "note_off_time": 11.575}, {"pitch": 60, "velocity": 77, "note_on_time": 11.614, "note_off_time": 11.808}, {"pitch": 60, "velocity": 89, "note_on_time": 12.017, "note_off_time": 12.222}, {"pitch": 60, "velocity": 74, "note_on_time": 12.683, "note_off_time": 12.875}, {"pitch": 60, "velocity": 79, "note_on_time": 13.079, "note_off_time": 13.24}, {"pitch": 60, "velocity": 83, "note_on_time": 13.451, "note_off_time": 13.706}]</notes><guidance name="Guidance Mode">None</guidance><error name="Error value">0.04700000000000004</error></trial><trial trial_no="4" timestamp="2022_11_21-19_40_32"><notes name="Played Notes">[{"pitch": 62, "velocity": 73, "note_on_time": 1.618, "note_off_time": 2.258}, {"pitch": 62, "velocity": 75, "note_on_time": 2.5, "note_off_time": 3.148}, {"pitch": 60, "velocity": 87, "note_on_time": 3.339, "note_off_time": 3.754}, {"pitch": 64, "velocity": 72, "note_on_time": 3.731, "note_off_time": 3.909}, {"pitch": 64, "velocity": 71, "note_on_time": 4.121, "note_off_time": 4.309}, {"pitch": 64, "velocity": 78, "note_on_time": 4.522, "note_off_time": 4.97}, {"pitch": 62, "velocity": 74, "note_on_time": 4.938, "note_off_time": 5.189}, {"pitch": 64, "velocity": 65, "note_on_time": 6.124, "note_off_time": 6.536}, {"pitch": 62, "velocity": 64, "note_on_time": 6.498, "note_off_time": 6.666}, {"pitch": 62, "velocity": 68, "note_on_time": 6.886, "note_off_time": 7.05}, {"pitch": 62, "velocity": 71, "note_on_time": 7.302, "note_off_time": 7.578}, {"pitch": 64, "velocity": 68, "note_on_time": 7.682, "note_off_time": 8.146}, {"pitch": 62, "velocity": 64, "note_on_time": 9.073, "note_off_time": 9.45}, {"pitch": 64, "velocity": 77, "note_on_time": 9.443, "note_off_time": 9.802}, {"pitch": 60, "velocity": 66, "note_on_time": 9.817, "note_off_time": 10.165}, {"pitch": 62, "velocity": 63, "note_on_time": 10.2, "note_off_time": 10.422}, {"pitch": 60, "velocity": 78, "note_on_time": 10.588, "note_off_time": 10.785}, {"pitch": 62, "velocity": 64, "note_on_time": 10.99, "note_off_time": 11.178}, {"pitch": 64, "velocity": 78, "note_on_time": 11.286, "note_off_time": 11.65}, {"pitch": 60, "velocity": 78, "note_on_time": 11.692, "note_off_time": 11.854}, {"pitch": 60, "velocity": 85, "note_on_time": 12.109, "note_off_time": 12.328}, {"pitch": 60, "velocity": 88, "note_on_time": 12.947, "note_off_time": 13.13}, {"pitch": 60, "velocity": 80, "note_on_time": 13.364, "note_off_time": 13.51}, {"pitch": 60, "velocity": 87, "note_on_time": 13.761, "note_off_time": 13.935}]</notes><guidance name="Guidance Mode">None</guidance><error name="Error value">0.3038500000000007</error></trial></trials></MIDI>