<MIDI midiNo="2022_11_03-09_14_51"><target_notes><notes name="Note List">[{"pitch": 42, "velocity": 80, "note_on_time": 0.004, "note_off_time": 0.23}, {"pitch": 42, "velocity": 80, "note_on_time": 0.23, "note_off_time": 0.447}, {"pitch": 42, "velocity": 80, "note_on_time": 0.447, "note_off_time": 0.666}, {"pitch": 42, "velocity": 80, "note_on_time": 0.666, "note_off_time": 0.886}, {"pitch": 67, "velocity": 80, "note_on_time": 0.886, "note_off_time": 1.105}, {"pitch": 42, "velocity": 80, "note_on_time": 0.886, "note_off_time": 1.106}, {"pitch": 62, "velocity": 80, "note_on_time": 1.105, "note_off_time": 1.323}, {"pitch": 42, "velocity": 80, "note_on_time": 1.106, "note_off_time": 1.323}, {"pitch": 64, "velocity": 80, "note_on_time": 1.323, "note_off_time": 1.54}, {"pitch": 42, "velocity": 80, "note_on_time": 1.323, "note_off_time": 1.54}, {"pitch": 64, "velocity": 80, "note_on_time": 1.54, "note_off_time": 1.758}, {"pitch": 42, "velocity": 80, "note_on_time": 1.54, "note_off_time": 1.758}, {"pitch": 42, "velocity": 80, "note_on_time": 1.758, "note_off_time": 1.976}, {"pitch": 64, "velocity": 80, "note_on_time": 1.758, "note_off_time": 2.194}, {"pitch": 42, "velocity": 80, "note_on_time": 1.976, "note_off_time": 2.194}, {"pitch": 42, "velocity": 80, "note_on_time": 2.195, "note_off_time": 2.412}, {"pitch": 64, "velocity": 80, "note_on_time": 2.194, "note_off_time": 2.631}, {"pitch": 42, "velocity": 80, "note_on_time": 2.412, "note_off_time": 2.631}, {"pitch": 64, "velocity": 80, "note_on_time": 2.631, "note_off_time": 2.849}, {"pitch": 42, "velocity": 80, "note_on_time": 2.631, "note_off_time": 2.849}, {"pitch": 67, "velocity": 80, "note_on_time": 2.849, "note_off_time": 3.067}, {"pitch": 42, "velocity": 80, "note_on_time": 2.849, "note_off_time": 3.067}, {"pitch": 65, "velocity": 80, "note_on_time": 3.067, "note_off_time": 3.285}, {"pitch": 42, "velocity": 80, "note_on_time": 3.067, "note_off_time": 3.285}, {"pitch": 64, "velocity": 80, "note_on_time": 3.285, "note_off_time": 3.503}, {"pitch": 42, "velocity": 80, "note_on_time": 3.285, "note_off_time": 3.503}, {"pitch": 67, "velocity": 80, "note_on_time": 3.503, "note_off_time": 3.721}, {"pitch": 42, "velocity": 80, "note_on_time": 3.503, "note_off_time": 3.721}, {"pitch": 65, "velocity": 80, "note_on_time": 3.721, "note_off_time": 3.938}, {"pitch": 42, "velocity": 80, "note_on_time": 3.721, "note_off_time": 3.938}, {"pitch": 67, "velocity": 80, "note_on_time": 3.938, "note_off_time": 4.154}, {"pitch": 42, "velocity": 80, "note_on_time": 3.938, "note_off_time": 4.154}, {"pitch": 67, "velocity": 80, "note_on_time": 4.154, "note_off_time": 4.375}, {"pitch": 42, "velocity": 80, "note_on_time": 4.154, "note_off_time": 4.375}, {"pitch": 62, "velocity": 80, "note_on_time": 4.375, "note_off_time": 4.593}, {"pitch": 42, "velocity": 80, "note_on_time": 4.375, "note_off_time": 4.593}, {"pitch": 64, "velocity": 80, "note_on_time": 4.593, "note_off_time": 4.812}, {"pitch": 42, "velocity": 80, "note_on_time": 4.594, "note_off_time": 4.812}, {"pitch": 62, "velocity": 80, "note_on_time": 4.812, "note_off_time": 5.03}, {"pitch": 42, "velocity": 80, "note_on_time": 4.812, "note_off_time": 5.03}, {"pitch": 62, "velocity": 80, "note_on_time": 5.03, "note_off_time": 5.248}, {"pitch": 42, "velocity": 80, "note_on_time": 5.03, "note_off_time": 5.248}, {"pitch": 65, "velocity": 80, "note_on_time": 5.248, "note_off_time": 5.467}, {"pitch": 42, "velocity": 80, "note_on_time": 5.248, "note_off_time": 5.467}, {"pitch": 62, "velocity": 80, "note_on_time": 5.467, "note_off_time": 5.685}, {"pitch": 42, "velocity": 80, "note_on_time": 5.467, "note_off_time": 5.685}, {"pitch": 64, "velocity": 80, "note_on_time": 5.685, "note_off_time": 5.9}, {"pitch": 42, "velocity": 80, "note_on_time": 5.685, "note_off_time": 5.901}, {"pitch": 62, "velocity": 80, "note_on_time": 5.9, "note_off_time": 6.119}, {"pitch": 42, "velocity": 80, "note_on_time": 5.901, "note_off_time": 6.119}, {"pitch": 67, "velocity": 80, "note_on_time": 6.119, "note_off_time": 6.335}, {"pitch": 42, "velocity": 80, "note_on_time": 6.119, "note_off_time": 6.335}, {"pitch": 67, "velocity": 80, "note_on_time": 6.335, "note_off_time": 6.553}, {"pitch": 42, "velocity": 80, "note_on_time": 6.335, "note_off_time": 6.553}, {"pitch": 65, "velocity": 80, "note_on_time": 6.553, "note_off_time": 6.77}, {"pitch": 42, "velocity": 80, "note_on_time": 6.553, "note_off_time": 6.77}, {"pitch": 65, "velocity": 80, "note_on_time": 6.77, "note_off_time": 6.988}, {"pitch": 42, "velocity": 80, "note_on_time": 6.77, "note_off_time": 6.988}, {"pitch": 42, "velocity": 80, "note_on_time": 6.988, "note_off_time": 7.205}, {"pitch": 65, "velocity": 80, "note_on_time": 7.205, "note_off_time": 7.423}, {"pitch": 42, "velocity": 80, "note_on_time": 7.205, "note_off_time": 7.423}, {"pitch": 65, "velocity": 80, "note_on_time": 7.423, "note_off_time": 7.641}, {"pitch": 42, "velocity": 80, "note_on_time": 7.423, "note_off_time": 7.641}, {"pitch": 65, "velocity": 80, "note_on_time": 7.641, "note_off_time": 7.859}, {"pitch": 42, "velocity": 80, "note_on_time": 7.642, "note_off_time": 7.859}]</notes><options name="Option List">((4, 4), [0.5, 0.25], 3, 8, &lt;NoteRangePerHand.C_TO_G: 6&gt;, &lt;NoteRangePerHand.ONE_NOTE: 2&gt;, False, True, False, 281)</options></target_notes><trials><trial trial_no="1" timestamp="2022_11_03-09_14_42"><notes name="Played Notes">[{"pitch": 67, "velocity": 59, "note_on_time": 0.903, "note_off_time": 1.214}, {"pitch": 62, "velocity": 50, "note_on_time": 1.125, "note_off_time": 1.407}, {"pitch": 64, "velocity": 71, "note_on_time": 1.35, "note_off_time": 1.447}, {"pitch": 64, "velocity": 74, "note_on_time": 1.533, "note_off_time": 1.635}, {"pitch": 64, "velocity": 70, "note_on_time": 1.776, "note_off_time": 2.089}, {"pitch": 64, "velocity": 68, "note_on_time": 2.195, "note_off_time": 2.491}, {"pitch": 64, "velocity": 62, "note_on_time": 2.588, "note_off_time": 2.862}, {"pitch": 67, "velocity": 66, "note_on_time": 2.818, "note_off_time": 3.125}, {"pitch": 65, "velocity": 73, "note_on_time": 3.037, "note_off_time": 3.251}, {"pitch": 64, "velocity": 65, "note_on_time": 3.226, "note_off_time": 3.514}, {"pitch": 67, "velocity": 66, "note_on_time": 3.467, "note_off_time": 3.714}, {"pitch": 65, "velocity": 74, "note_on_time": 3.669, "note_off_time": 3.924}, {"pitch": 67, "velocity": 69, "note_on_time": 3.888, "note_off_time": 3.985}, {"pitch": 67, "velocity": 67, "note_on_time": 4.121, "note_off_time": 4.368}, {"pitch": 62, "velocity": 60, "note_on_time": 4.363, "note_off_time": 4.59}, {"pitch": 64, "velocity": 67, "note_on_time": 4.579, "note_off_time": 4.821}, {"pitch": 62, "velocity": 59, "note_on_time": 4.792, "note_off_time": 4.901}, {"pitch": 62, "velocity": 53, "note_on_time": 5.022, "note_off_time": 5.27}, {"pitch": 65, "velocity": 71, "note_on_time": 5.249, "note_off_time": 5.425}, {"pitch": 62, "velocity": 58, "note_on_time": 5.454, "note_off_time": 5.66}, {"pitch": 64, "velocity": 58, "note_on_time": 5.679, "note_off_time": 5.839}, {"pitch": 62, "velocity": 54, "note_on_time": 5.86, "note_off_time": 6.129}, {"pitch": 67, "velocity": 64, "note_on_time": 6.088, "note_off_time": 6.175}, {"pitch": 67, "velocity": 66, "note_on_time": 6.289, "note_off_time": 6.58}, {"pitch": 65, "velocity": 72, "note_on_time": 6.525, "note_off_time": 6.634}, {"pitch": 65, "velocity": 56, "note_on_time": 6.763, "note_off_time": 7.035}, {"pitch": 65, "velocity": 64, "note_on_time": 7.224, "note_off_time": 7.298}, {"pitch": 65, "velocity": 71, "note_on_time": 7.434, "note_off_time": 7.501}, {"pitch": 65, "velocity": 78, "note_on_time": 7.642, "note_off_time": 7.719}]</notes><guidance name="Guidance Mode">None</guidance><error name="Error value">0.017822499999999967</error></trial></trials></MIDI>