<MIDI midiNo="2022_08_17-14_51_42"><target_notes><notes name="Note List">[{"pitch": 42, "velocity": 80, "note_on_time": 0.005, "note_off_time": 0.591}, {"pitch": 42, "velocity": 80, "note_on_time": 0.591, "note_off_time": 1.168}, {"pitch": 42, "velocity": 80, "note_on_time": 1.168, "note_off_time": 1.747}, {"pitch": 42, "velocity": 80, "note_on_time": 1.748, "note_off_time": 2.325}, {"pitch": 42, "velocity": 80, "note_on_time": 2.326, "note_off_time": 2.904}, {"pitch": 67, "velocity": 80, "note_on_time": 2.325, "note_off_time": 3.485}, {"pitch": 42, "velocity": 80, "note_on_time": 2.904, "note_off_time": 3.485}, {"pitch": 42, "velocity": 80, "note_on_time": 3.485, "note_off_time": 4.071}, {"pitch": 42, "velocity": 80, "note_on_time": 4.071, "note_off_time": 4.659}, {"pitch": 64, "velocity": 80, "note_on_time": 4.658, "note_off_time": 5.236}, {"pitch": 42, "velocity": 80, "note_on_time": 4.659, "note_off_time": 5.236}, {"pitch": 62, "velocity": 80, "note_on_time": 5.236, "note_off_time": 5.813}, {"pitch": 42, "velocity": 80, "note_on_time": 5.236, "note_off_time": 5.813}, {"pitch": 64, "velocity": 80, "note_on_time": 5.813, "note_off_time": 6.392}, {"pitch": 42, "velocity": 80, "note_on_time": 5.813, "note_off_time": 6.392}, {"pitch": 67, "velocity": 80, "note_on_time": 6.392, "note_off_time": 6.969}, {"pitch": 42, "velocity": 80, "note_on_time": 6.393, "note_off_time": 6.969}, {"pitch": 60, "velocity": 80, "note_on_time": 6.969, "note_off_time": 7.549}, {"pitch": 42, "velocity": 80, "note_on_time": 6.969, "note_off_time": 7.55}, {"pitch": 42, "velocity": 80, "note_on_time": 7.55, "note_off_time": 8.127}, {"pitch": 67, "velocity": 80, "note_on_time": 7.549, "note_off_time": 8.707}, {"pitch": 42, "velocity": 80, "note_on_time": 8.127, "note_off_time": 8.707}, {"pitch": 60, "velocity": 80, "note_on_time": 8.707, "note_off_time": 9.284}, {"pitch": 42, "velocity": 80, "note_on_time": 8.708, "note_off_time": 9.284}, {"pitch": 65, "velocity": 80, "note_on_time": 9.284, "note_off_time": 9.861}, {"pitch": 42, "velocity": 80, "note_on_time": 9.284, "note_off_time": 9.862}, {"pitch": 64, "velocity": 80, "note_on_time": 9.861, "note_off_time": 10.438}, {"pitch": 42, "velocity": 80, "note_on_time": 9.862, "note_off_time": 10.438}, {"pitch": 65, "velocity": 80, "note_on_time": 10.438, "note_off_time": 11.017}, {"pitch": 42, "velocity": 80, "note_on_time": 10.439, "note_off_time": 11.017}, {"pitch": 62, "velocity": 80, "note_on_time": 11.017, "note_off_time": 11.594}, {"pitch": 42, "velocity": 80, "note_on_time": 11.018, "note_off_time": 11.595}, {"pitch": 60, "velocity": 80, "note_on_time": 11.594, "note_off_time": 12.171}, {"pitch": 42, "velocity": 80, "note_on_time": 11.595, "note_off_time": 12.172}, {"pitch": 62, "velocity": 80, "note_on_time": 12.171, "note_off_time": 12.747}, {"pitch": 42, "velocity": 80, "note_on_time": 12.172, "note_off_time": 12.748}, {"pitch": 65, "velocity": 80, "note_on_time": 12.747, "note_off_time": 13.324}, {"pitch": 42, "velocity": 80, "note_on_time": 12.748, "note_off_time": 13.324}, {"pitch": 60, "velocity": 80, "note_on_time": 13.324, "note_off_time": 13.903}, {"pitch": 42, "velocity": 80, "note_on_time": 13.325, "note_off_time": 13.903}, {"pitch": 60, "velocity": 80, "note_on_time": 13.903, "note_off_time": 14.478}, {"pitch": 42, "velocity": 80, "note_on_time": 13.903, "note_off_time": 14.479}, {"pitch": 62, "velocity": 80, "note_on_time": 14.478, "note_off_time": 15.053}, {"pitch": 42, "velocity": 80, "note_on_time": 14.479, "note_off_time": 15.054}, {"pitch": 42, "velocity": 80, "note_on_time": 15.054, "note_off_time": 15.634}, {"pitch": 60, "velocity": 80, "note_on_time": 15.053, "note_off_time": 16.211}, {"pitch": 42, "velocity": 80, "note_on_time": 15.634, "note_off_time": 16.211}, {"pitch": 64, "velocity": 80, "note_on_time": 16.211, "note_off_time": 16.787}, {"pitch": 42, "velocity": 80, "note_on_time": 16.211, "note_off_time": 16.787}, {"pitch": 65, "velocity": 80, "note_on_time": 16.787, "note_off_time": 17.36}, {"pitch": 42, "velocity": 80, "note_on_time": 16.788, "note_off_time": 17.361}, {"pitch": 65, "velocity": 80, "note_on_time": 17.36, "note_off_time": 17.939}, {"pitch": 42, "velocity": 80, "note_on_time": 17.361, "note_off_time": 17.939}, {"pitch": 65, "velocity": 80, "note_on_time": 17.939, "note_off_time": 18.516}, {"pitch": 42, "velocity": 80, "note_on_time": 17.939, "note_off_time": 18.516}, {"pitch": 42, "velocity": 80, "note_on_time": 18.517, "note_off_time": 19.093}, {"pitch": 65, "velocity": 80, "note_on_time": 19.093, "note_off_time": 19.671}, {"pitch": 42, "velocity": 80, "note_on_time": 19.094, "note_off_time": 19.671}, {"pitch": 65, "velocity": 80, "note_on_time": 19.671, "note_off_time": 20.252}, {"pitch": 42, "velocity": 80, "note_on_time": 19.671, "note_off_time": 20.253}, {"pitch": 65, "velocity": 80, "note_on_time": 20.252, "note_off_time": 20.831}, {"pitch": 42, "velocity": 80, "note_on_time": 20.253, "note_off_time": 20.831}]</notes><options name="Option List">((4, 4), [0.5, 0.25], 3, 8, &lt;NoteRangePerHand.C_TO_G: 6&gt;, &lt;NoteRangePerHand.ONE_NOTE: 2&gt;, False, True, True, '105')</options></target_notes><trials><trial trial_no="1" timestamp="2022_08_17-14_51_20"><notes name="Played Notes">[{"pitch": 67, "velocity": 68, "note_on_time": 2.306, "note_off_time": 3.012}, {"pitch": 64, "velocity": 70, "note_on_time": 4.596, "note_off_time": 5.185}, {"pitch": 62, "velocity": 64, "note_on_time": 5.176, "note_off_time": 5.866}, {"pitch": 64, "velocity": 54, "note_on_time": 5.841, "note_off_time": 6.386}, {"pitch": 67, "velocity": 79, "note_on_time": 6.42, "note_off_time": 7.025}, {"pitch": 60, "velocity": 77, "note_on_time": 7.028, "note_off_time": 7.584}, {"pitch": 67, "velocity": 78, "note_on_time": 7.576, "note_off_time": 8.317}, {"pitch": 60, "velocity": 72, "note_on_time": 8.685, "note_off_time": 9.266}, {"pitch": 65, "velocity": 67, "note_on_time": 9.252, "note_off_time": 9.828}, {"pitch": 64, "velocity": 76, "note_on_time": 9.829, "note_off_time": 10.375}, {"pitch": 65, "velocity": 75, "note_on_time": 10.385, "note_off_time": 11.006}, {"pitch": 62, "velocity": 76, "note_on_time": 10.992, "note_off_time": 11.496}, {"pitch": 60, "velocity": 76, "note_on_time": 11.516, "note_off_time": 12.159}, {"pitch": 62, "velocity": 72, "note_on_time": 12.143, "note_off_time": 12.723}, {"pitch": 65, "velocity": 66, "note_on_time": 12.729, "note_off_time": 13.349}, {"pitch": 60, "velocity": 71, "note_on_time": 13.318, "note_off_time": 13.56}, {"pitch": 60, "velocity": 74, "note_on_time": 13.939, "note_off_time": 14.528}, {"pitch": 62, "velocity": 66, "note_on_time": 14.528, "note_off_time": 15.064}, {"pitch": 60, "velocity": 67, "note_on_time": 15.08, "note_off_time": 15.794}, {"pitch": 64, "velocity": 68, "note_on_time": 16.141, "note_off_time": 16.768}, {"pitch": 65, "velocity": 73, "note_on_time": 16.739, "note_off_time": 16.943}, {"pitch": 65, "velocity": 74, "note_on_time": 17.335, "note_off_time": 17.532}, {"pitch": 65, "velocity": 80, "note_on_time": 17.923, "note_off_time": 18.085}, {"pitch": 65, "velocity": 83, "note_on_time": 19.079, "note_off_time": 19.251}, {"pitch": 65, "velocity": 74, "note_on_time": 19.656, "note_off_time": 19.791}, {"pitch": 65, "velocity": 76, "note_on_time": 20.26, "note_off_time": 20.393}]</notes><guidance name="Guidance Mode">None</guidance><error name="Error value">0.030062434782608848</error></trial><trial trial_no="2" timestamp="2022_08_17-14_51_54"><notes name="Played Notes">[{"pitch": 67, "velocity": 62, "note_on_time": 2.293, "note_off_time": 3.034}, {"pitch": 64, "velocity": 68, "note_on_time": 4.578, "note_off_time": 5.134}, {"pitch": 62, "velocity": 70, "note_on_time": 5.15, "note_off_time": 5.708}, {"pitch": 64, "velocity": 76, "note_on_time": 5.717, "note_off_time": 6.275}, {"pitch": 67, "velocity": 71, "note_on_time": 6.282, "note_off_time": 6.896}, {"pitch": 60, "velocity": 72, "note_on_time": 6.895, "note_off_time": 7.44}, {"pitch": 67, "velocity": 77, "note_on_time": 7.437, "note_off_time": 8.252}, {"pitch": 60, "velocity": 72, "note_on_time": 8.65, "note_off_time": 9.269}, {"pitch": 65, "velocity": 78, "note_on_time": 9.266, "note_off_time": 9.798}, {"pitch": 64, "velocity": 76, "note_on_time": 9.8, "note_off_time": 10.352}, {"pitch": 65, "velocity": 77, "note_on_time": 10.367, "note_off_time": 10.937}, {"pitch": 62, "velocity": 69, "note_on_time": 10.934, "note_off_time": 11.477}, {"pitch": 60, "velocity": 74, "note_on_time": 11.498, "note_off_time": 12.073}, {"pitch": 62, "velocity": 73, "note_on_time": 12.06, "note_off_time": 12.642}, {"pitch": 65, "velocity": 80, "note_on_time": 12.652, "note_off_time": 13.221}, {"pitch": 60, "velocity": 80, "note_on_time": 13.213, "note_off_time": 13.442}, {"pitch": 60, "velocity": 81, "note_on_time": 13.83, "note_off_time": 13.975}, {"pitch": 62, "velocity": 77, "note_on_time": 14.442, "note_off_time": 14.657}, {"pitch": 60, "velocity": 67, "note_on_time": 15.037, "note_off_time": 15.755}, {"pitch": 64, "velocity": 68, "note_on_time": 16.151, "note_off_time": 16.735}, {"pitch": 65, "velocity": 75, "note_on_time": 16.726, "note_off_time": 16.888}, {"pitch": 65, "velocity": 74, "note_on_time": 17.297, "note_off_time": 17.455}, {"pitch": 65, "velocity": 80, "note_on_time": 17.87, "note_off_time": 18.002}, {"pitch": 65, "velocity": 81, "note_on_time": 19.028, "note_off_time": 19.163}, {"pitch": 65, "velocity": 77, "note_on_time": 19.595, "note_off_time": 19.722}, {"pitch": 65, "velocity": 67, "note_on_time": 20.151, "note_off_time": 20.238}]</notes><guidance name="Guidance Mode">None</guidance><error name="Error value">0.020484347826086633</error></trial><trial trial_no="3" timestamp="2022_08_17-14_52_27"><notes name="Played Notes">[{"pitch": 67, "velocity": 73, "note_on_time": 2.331, "note_off_time": 3.003}, {"pitch": 64, "velocity": 71, "note_on_time": 4.639, "note_off_time": 5.184}, {"pitch": 62, "velocity": 66, "note_on_time": 5.206, "note_off_time": 5.747}, {"pitch": 64, "velocity": 66, "note_on_time": 5.756, "note_off_time": 6.328}, {"pitch": 67, "velocity": 74, "note_on_time": 6.336, "note_off_time": 6.899}, {"pitch": 60, "velocity": 73, "note_on_time": 6.922, "note_off_time": 7.489}, {"pitch": 67, "velocity": 75, "note_on_time": 7.485, "note_off_time": 8.225}, {"pitch": 60, "velocity": 82, "note_on_time": 8.645, "note_off_time": 9.244}, {"pitch": 65, "velocity": 75, "note_on_time": 9.243, "note_off_time": 9.758}, {"pitch": 64, "velocity": 76, "note_on_time": 9.762, "note_off_time": 10.388}, {"pitch": 65, "velocity": 66, "note_on_time": 10.406, "note_off_time": 10.949}, {"pitch": 62, "velocity": 72, "note_on_time": 10.964, "note_off_time": 11.579}, {"pitch": 60, "velocity": 66, "note_on_time": 11.593, "note_off_time": 12.154}, {"pitch": 62, "velocity": 74, "note_on_time": 12.156, "note_off_time": 12.697}, {"pitch": 65, "velocity": 76, "note_on_time": 12.71, "note_off_time": 13.298}, {"pitch": 60, "velocity": 72, "note_on_time": 13.31, "note_off_time": 13.694}, {"pitch": 60, "velocity": 79, "note_on_time": 13.915, "note_off_time": 14.141}, {"pitch": 62, "velocity": 74, "note_on_time": 14.476, "note_off_time": 14.673}, {"pitch": 60, "velocity": 75, "note_on_time": 15.055, "note_off_time": 15.759}, {"pitch": 64, "velocity": 74, "note_on_time": 16.179, "note_off_time": 16.328}, {"pitch": 64, "velocity": 62, "note_on_time": 16.756, "note_off_time": 16.885}, {"pitch": 65, "velocity": 78, "note_on_time": 17.31, "note_off_time": 17.424}, {"pitch": 65, "velocity": 82, "note_on_time": 17.916, "note_off_time": 18.02}, {"pitch": 65, "velocity": 82, "note_on_time": 19.041, "note_off_time": 19.167}, {"pitch": 65, "velocity": 76, "note_on_time": 19.629, "note_off_time": 19.753}, {"pitch": 65, "velocity": 78, "note_on_time": 20.194, "note_off_time": 20.307}]</notes><guidance name="Guidance Mode">None</guidance><error name="Error value">0.06707460869565238</error></trial><trial trial_no="4" timestamp="2022_08_17-14_53_02"><notes name="Played Notes">[{"pitch": 67, "velocity": 63, "note_on_time": 2.333, "note_off_time": 3.027}, {"pitch": 64, "velocity": 63, "note_on_time": 4.066, "note_off_time": 4.63}, {"pitch": 62, "velocity": 65, "note_on_time": 4.656, "note_off_time": 5.192}, {"pitch": 64, "velocity": 70, "note_on_time": 5.209, "note_off_time": 5.801}, {"pitch": 67, "velocity": 73, "note_on_time": 5.814, "note_off_time": 6.353}, {"pitch": 60, "velocity": 61, "note_on_time": 6.362, "note_off_time": 6.938}, {"pitch": 67, "velocity": 75, "note_on_time": 6.927, "note_off_time": 7.686}, {"pitch": 60, "velocity": 74, "note_on_time": 8.574, "note_off_time": 8.712}, {"pitch": 65, "velocity": 65, "note_on_time": 9.191, "note_off_time": 9.74}, {"pitch": 64, "velocity": 70, "note_on_time": 9.747, "note_off_time": 10.289}, {"pitch": 65, "velocity": 75, "note_on_time": 10.306, "note_off_time": 10.884}, {"pitch": 62, "velocity": 71, "note_on_time": 10.881, "note_off_time": 11.406}, {"pitch": 60, "velocity": 64, "note_on_time": 11.444, "note_off_time": 12.038}, {"pitch": 62, "velocity": 72, "note_on_time": 12.019, "note_off_time": 12.562}, {"pitch": 65, "velocity": 72, "note_on_time": 12.574, "note_off_time": 13.293}, {"pitch": 60, "velocity": 66, "note_on_time": 13.273, "note_off_time": 13.504}, {"pitch": 60, "velocity": 69, "note_on_time": 13.949, "note_off_time": 14.075}, {"pitch": 62, "velocity": 70, "note_on_time": 14.537, "note_off_time": 14.748}, {"pitch": 60, "velocity": 66, "note_on_time": 15.115, "note_off_time": 15.611}, {"pitch": 64, "velocity": 76, "note_on_time": 16.164, "note_off_time": 16.712}, {"pitch": 65, "velocity": 71, "note_on_time": 16.758, "note_off_time": 16.889}, {"pitch": 65, "velocity": 72, "note_on_time": 17.344, "note_off_time": 17.473}, {"pitch": 65, "velocity": 77, "note_on_time": 17.908, "note_off_time": 18.033}, {"pitch": 65, "velocity": 77, "note_on_time": 19.041, "note_off_time": 19.171}, {"pitch": 65, "velocity": 72, "note_on_time": 19.623, "note_off_time": 19.757}, {"pitch": 65, "velocity": 77, "note_on_time": 20.223, "note_off_time": 20.33}]</notes><guidance name="Guidance Mode">None</guidance><error name="Error value">0.07414904347826103</error></trial><trial trial_no="5" timestamp="2022_08_17-14_53_38"><notes name="Played Notes">[{"pitch": 67, "velocity": 71, "note_on_time": 2.346, "note_off_time": 3.002}, {"pitch": 64, "velocity": 55, "note_on_time": 4.648, "note_off_time": 5.189}, {"pitch": 62, "velocity": 69, "note_on_time": 5.214, "note_off_time": 5.763}, {"pitch": 64, "velocity": 64, "note_on_time": 5.777, "note_off_time": 6.373}, {"pitch": 67, "velocity": 66, "note_on_time": 6.388, "note_off_time": 6.91}, {"pitch": 60, "velocity": 69, "note_on_time": 6.926, "note_off_time": 7.485}, {"pitch": 67, "velocity": 72, "note_on_time": 7.501, "note_off_time": 8.137}, {"pitch": 60, "velocity": 62, "note_on_time": 8.65, "note_off_time": 9.237}, {"pitch": 65, "velocity": 70, "note_on_time": 9.246, "note_off_time": 9.786}, {"pitch": 64, "velocity": 64, "note_on_time": 9.788, "note_off_time": 10.352}, {"pitch": 65, "velocity": 76, "note_on_time": 10.374, "note_off_time": 10.949}, {"pitch": 62, "velocity": 64, "note_on_time": 10.957, "note_off_time": 11.526}, {"pitch": 60, "velocity": 60, "note_on_time": 11.548, "note_off_time": 12.118}, {"pitch": 62, "velocity": 65, "note_on_time": 12.113, "note_off_time": 12.681}, {"pitch": 65, "velocity": 72, "note_on_time": 12.697, "note_off_time": 13.315}, {"pitch": 60, "velocity": 72, "note_on_time": 13.287, "note_off_time": 13.462}, {"pitch": 60, "velocity": 73, "note_on_time": 13.88, "note_off_time": 14.363}, {"pitch": 62, "velocity": 68, "note_on_time": 14.498, "note_off_time": 15.005}, {"pitch": 60, "velocity": 67, "note_on_time": 15.054, "note_off_time": 15.629}, {"pitch": 64, "velocity": 64, "note_on_time": 16.093, "note_off_time": 16.763}, {"pitch": 65, "velocity": 65, "note_on_time": 16.748, "note_off_time": 16.896}, {"pitch": 65, "velocity": 75, "note_on_time": 17.325, "note_off_time": 17.466}, {"pitch": 65, "velocity": 79, "note_on_time": 17.907, "note_off_time": 18.027}, {"pitch": 65, "velocity": 83, "note_on_time": 19.062, "note_off_time": 19.176}, {"pitch": 65, "velocity": 79, "note_on_time": 19.618, "note_off_time": 19.744}, {"pitch": 65, "velocity": 78, "note_on_time": 20.189, "note_off_time": 20.31}]</notes><guidance name="Guidance Mode">None</guidance><error name="Error value">0.024577913043478374</error></trial><trial trial_no="6" timestamp="2022_08_17-14_54_52"><notes name="Played Notes">[{"pitch": 67, "velocity": 65, "note_on_time": 1.646, "note_off_time": 2.188}, {"pitch": 64, "velocity": 68, "note_on_time": 2.865, "note_off_time": 3.245}, {"pitch": 62, "velocity": 72, "note_on_time": 3.259, "note_off_time": 3.657}, {"pitch": 64, "velocity": 70, "note_on_time": 3.679, "note_off_time": 4.052}, {"pitch": 67, "velocity": 70, "note_on_time": 4.07, "note_off_time": 4.497}, {"pitch": 60, "velocity": 64, "note_on_time": 4.493, "note_off_time": 4.876}, {"pitch": 67, "velocity": 73, "note_on_time": 4.89, "note_off_time": 5.463}, {"pitch": 60, "velocity": 84, "note_on_time": 6.088, "note_off_time": 6.42}, {"pitch": 65, "velocity": 78, "note_on_time": 6.608, "note_off_time": 7.021}, {"pitch": 64, "velocity": 69, "note_on_time": 7.004, "note_off_time": 7.365}, {"pitch": 65, "velocity": 68, "note_on_time": 7.395, "note_off_time": 7.797}, {"pitch": 62, "velocity": 66, "note_on_time": 7.801, "note_off_time": 8.184}, {"pitch": 60, "velocity": 70, "note_on_time": 8.189, "note_off_time": 8.599}, {"pitch": 62, "velocity": 63, "note_on_time": 8.604, "note_off_time": 8.981}, {"pitch": 65, "velocity": 75, "note_on_time": 8.994, "note_off_time": 9.404}, {"pitch": 60, "velocity": 60, "note_on_time": 9.398, "note_off_time": 9.602}, {"pitch": 60, "velocity": 79, "note_on_time": 9.832, "note_off_time": 9.932}, {"pitch": 62, "velocity": 65, "note_on_time": 10.195, "note_off_time": 10.381}, {"pitch": 60, "velocity": 64, "note_on_time": 10.618, "note_off_time": 11.144}, {"pitch": 64, "velocity": 75, "note_on_time": 11.739, "note_off_time": 11.874}, {"pitch": 65, "velocity": 80, "note_on_time": 12.134, "note_off_time": 12.267}, {"pitch": 65, "velocity": 74, "note_on_time": 12.582, "note_off_time": 12.698}, {"pitch": 65, "velocity": 74, "note_on_time": 13.004, "note_off_time": 13.114}, {"pitch": 65, "velocity": 82, "note_on_time": 13.826, "note_off_time": 13.92}, {"pitch": 65, "velocity": 72, "note_on_time": 14.23, "note_off_time": 14.317}]</notes><guidance name="Guidance Mode">None</guidance><error name="Error value">2.7085217391304357</error></trial></trials></MIDI>