<MIDI midiNo="2022_10_26-14_21_00"><target_notes><notes name="Note List">[{"pitch": 42, "velocity": 80, "note_on_time": 0.005, "note_off_time": 0.179}, {"pitch": 42, "velocity": 80, "note_on_time": 0.179, "note_off_time": 0.349}, {"pitch": 42, "velocity": 80, "note_on_time": 0.35, "note_off_time": 0.519}, {"pitch": 42, "velocity": 80, "note_on_time": 0.52, "note_off_time": 0.691}, {"pitch": 64, "velocity": 80, "note_on_time": 0.69, "note_off_time": 0.862}, {"pitch": 42, "velocity": 80, "note_on_time": 0.691, "note_off_time": 0.863}, {"pitch": 60, "velocity": 80, "note_on_time": 0.862, "note_off_time": 1.033}, {"pitch": 42, "velocity": 80, "note_on_time": 0.863, "note_off_time": 1.033}, {"pitch": 62, "velocity": 80, "note_on_time": 1.033, "note_off_time": 1.205}, {"pitch": 42, "velocity": 80, "note_on_time": 1.033, "note_off_time": 1.205}, {"pitch": 60, "velocity": 80, "note_on_time": 1.205, "note_off_time": 1.375}, {"pitch": 42, "velocity": 80, "note_on_time": 1.205, "note_off_time": 1.376}, {"pitch": 67, "velocity": 80, "note_on_time": 1.375, "note_off_time": 1.546}, {"pitch": 42, "velocity": 80, "note_on_time": 1.376, "note_off_time": 1.546}, {"pitch": 60, "velocity": 80, "note_on_time": 1.546, "note_off_time": 1.718}, {"pitch": 42, "velocity": 80, "note_on_time": 1.547, "note_off_time": 1.719}, {"pitch": 64, "velocity": 80, "note_on_time": 1.718, "note_off_time": 1.889}, {"pitch": 42, "velocity": 80, "note_on_time": 1.719, "note_off_time": 1.889}, {"pitch": 64, "velocity": 80, "note_on_time": 1.889, "note_off_time": 2.061}, {"pitch": 42, "velocity": 80, "note_on_time": 1.889, "note_off_time": 2.061}, {"pitch": 67, "velocity": 80, "note_on_time": 2.061, "note_off_time": 2.231}, {"pitch": 42, "velocity": 80, "note_on_time": 2.061, "note_off_time": 2.231}, {"pitch": 62, "velocity": 80, "note_on_time": 2.231, "note_off_time": 2.402}, {"pitch": 42, "velocity": 80, "note_on_time": 2.231, "note_off_time": 2.402}, {"pitch": 62, "velocity": 80, "note_on_time": 2.402, "note_off_time": 2.574}, {"pitch": 42, "velocity": 80, "note_on_time": 2.402, "note_off_time": 2.574}, {"pitch": 62, "velocity": 80, "note_on_time": 2.574, "note_off_time": 2.745}, {"pitch": 42, "velocity": 80, "note_on_time": 2.574, "note_off_time": 2.745}, {"pitch": 64, "velocity": 80, "note_on_time": 2.745, "note_off_time": 2.916}, {"pitch": 42, "velocity": 80, "note_on_time": 2.745, "note_off_time": 2.916}, {"pitch": 60, "velocity": 80, "note_on_time": 2.916, "note_off_time": 3.088}, {"pitch": 42, "velocity": 80, "note_on_time": 2.916, "note_off_time": 3.088}, {"pitch": 62, "velocity": 80, "note_on_time": 3.088, "note_off_time": 3.258}, {"pitch": 42, "velocity": 80, "note_on_time": 3.088, "note_off_time": 3.258}, {"pitch": 60, "velocity": 80, "note_on_time": 3.258, "note_off_time": 3.428}, {"pitch": 42, "velocity": 80, "note_on_time": 3.258, "note_off_time": 3.428}, {"pitch": 64, "velocity": 80, "note_on_time": 3.428, "note_off_time": 3.598}, {"pitch": 42, "velocity": 80, "note_on_time": 3.428, "note_off_time": 3.599}, {"pitch": 64, "velocity": 80, "note_on_time": 3.598, "note_off_time": 3.769}, {"pitch": 42, "velocity": 80, "note_on_time": 3.599, "note_off_time": 3.77}, {"pitch": 60, "velocity": 80, "note_on_time": 3.769, "note_off_time": 3.941}, {"pitch": 42, "velocity": 80, "note_on_time": 3.77, "note_off_time": 3.941}, {"pitch": 67, "velocity": 80, "note_on_time": 3.941, "note_off_time": 4.113}, {"pitch": 42, "velocity": 80, "note_on_time": 3.941, "note_off_time": 4.113}, {"pitch": 42, "velocity": 80, "note_on_time": 4.113, "note_off_time": 4.283}, {"pitch": 65, "velocity": 80, "note_on_time": 4.113, "note_off_time": 4.453}, {"pitch": 42, "velocity": 80, "note_on_time": 4.284, "note_off_time": 4.453}, {"pitch": 64, "velocity": 80, "note_on_time": 4.453, "note_off_time": 4.625}, {"pitch": 42, "velocity": 80, "note_on_time": 4.453, "note_off_time": 4.625}, {"pitch": 65, "velocity": 80, "note_on_time": 4.625, "note_off_time": 4.795}, {"pitch": 42, "velocity": 80, "note_on_time": 4.625, "note_off_time": 4.795}, {"pitch": 60, "velocity": 80, "note_on_time": 4.795, "note_off_time": 4.968}, {"pitch": 42, "velocity": 80, "note_on_time": 4.795, "note_off_time": 4.968}, {"pitch": 62, "velocity": 80, "note_on_time": 4.968, "note_off_time": 5.139}, {"pitch": 42, "velocity": 80, "note_on_time": 4.969, "note_off_time": 5.139}, {"pitch": 65, "velocity": 80, "note_on_time": 5.139, "note_off_time": 5.311}, {"pitch": 42, "velocity": 80, "note_on_time": 5.139, "note_off_time": 5.312}, {"pitch": 62, "velocity": 80, "note_on_time": 5.311, "note_off_time": 5.483}, {"pitch": 42, "velocity": 80, "note_on_time": 5.312, "note_off_time": 5.483}, {"pitch": 42, "velocity": 80, "note_on_time": 5.483, "note_off_time": 5.654}, {"pitch": 62, "velocity": 80, "note_on_time": 5.654, "note_off_time": 5.824}, {"pitch": 42, "velocity": 80, "note_on_time": 5.654, "note_off_time": 5.824}, {"pitch": 62, "velocity": 80, "note_on_time": 5.824, "note_off_time": 5.994}, {"pitch": 42, "velocity": 80, "note_on_time": 5.824, "note_off_time": 5.995}, {"pitch": 62, "velocity": 80, "note_on_time": 5.994, "note_off_time": 6.164}, {"pitch": 42, "velocity": 80, "note_on_time": 5.995, "note_off_time": 6.164}]</notes><options name="Option List">((4, 4), [0.5, 0.25], 3, 8, &lt;NoteRangePerHand.C_TO_G: 6&gt;, &lt;NoteRangePerHand.ONE_NOTE: 2&gt;, False, True, True, '365')</options></target_notes><trials><trial trial_no="1" timestamp="2022_10_26-14_20_53"><notes name="Played Notes">[{"pitch": 64, "velocity": 72, "note_on_time": 0.7, "note_off_time": 0.875}, {"pitch": 60, "velocity": 67, "note_on_time": 0.879, "note_off_time": 1.088}, {"pitch": 62, "velocity": 77, "note_on_time": 1.079, "note_off_time": 1.233}, {"pitch": 60, "velocity": 80, "note_on_time": 1.245, "note_off_time": 1.385}, {"pitch": 67, "velocity": 73, "note_on_time": 1.41, "note_off_time": 1.574}, {"pitch": 60, "velocity": 70, "note_on_time": 1.565, "note_off_time": 1.697}, {"pitch": 64, "velocity": 73, "note_on_time": 1.735, "note_off_time": 1.794}, {"pitch": 64, "velocity": 67, "note_on_time": 1.91, "note_off_time": 2.023}, {"pitch": 67, "velocity": 72, "note_on_time": 2.051, "note_off_time": 2.221}, {"pitch": 62, "velocity": 65, "note_on_time": 2.234, "note_off_time": 2.28}, {"pitch": 62, "velocity": 66, "note_on_time": 2.404, "note_off_time": 2.45}, {"pitch": 62, "velocity": 75, "note_on_time": 2.573, "note_off_time": 2.717}, {"pitch": 64, "velocity": 81, "note_on_time": 2.737, "note_off_time": 2.881}, {"pitch": 60, "velocity": 73, "note_on_time": 2.89, "note_off_time": 3.069}, {"pitch": 62, "velocity": 82, "note_on_time": 3.08, "note_off_time": 3.238}, {"pitch": 60, "velocity": 81, "note_on_time": 3.26, "note_off_time": 3.376}, {"pitch": 64, "velocity": 76, "note_on_time": 3.426, "note_off_time": 3.483}, {"pitch": 64, "velocity": 75, "note_on_time": 3.596, "note_off_time": 3.737}, {"pitch": 60, "velocity": 83, "note_on_time": 3.762, "note_off_time": 3.9}, {"pitch": 67, "velocity": 80, "note_on_time": 3.932, "note_off_time": 4.068}, {"pitch": 65, "velocity": 90, "note_on_time": 4.113, "note_off_time": 4.434}, {"pitch": 64, "velocity": 85, "note_on_time": 4.442, "note_off_time": 4.609}, {"pitch": 65, "velocity": 77, "note_on_time": 4.607, "note_off_time": 4.809}, {"pitch": 60, "velocity": 77, "note_on_time": 4.798, "note_off_time": 4.933}, {"pitch": 62, "velocity": 84, "note_on_time": 4.968, "note_off_time": 5.11}, {"pitch": 65, "velocity": 86, "note_on_time": 5.124, "note_off_time": 5.301}, {"pitch": 62, "velocity": 101, "note_on_time": 5.316, "note_off_time": 5.523}, {"pitch": 62, "velocity": 100, "note_on_time": 5.731, "note_off_time": 5.795}, {"pitch": 62, "velocity": 88, "note_on_time": 5.904, "note_off_time": 5.963}, {"pitch": 62, "velocity": 101, "note_on_time": 6.08, "note_off_time": 6.16}]</notes><guidance name="Guidance Mode">None</guidance><error name="Error value">0.014442851851851865</error></trial><trial trial_no="2" timestamp="2022_10_26-14_21_18"><notes name="Played Notes">[{"pitch": 64, "velocity": 74, "note_on_time": 0.705, "note_off_time": 0.853}, {"pitch": 60, "velocity": 73, "note_on_time": 0.861, "note_off_time": 1.08}, {"pitch": 62, "velocity": 80, "note_on_time": 1.064, "note_off_time": 1.241}, {"pitch": 60, "velocity": 72, "note_on_time": 1.253, "note_off_time": 1.422}, {"pitch": 67, "velocity": 74, "note_on_time": 1.418, "note_off_time": 1.58}, {"pitch": 60, "velocity": 77, "note_on_time": 1.589, "note_off_time": 1.72}, {"pitch": 64, "velocity": 72, "note_on_time": 1.752, "note_off_time": 1.812}, {"pitch": 64, "velocity": 73, "note_on_time": 1.936, "note_off_time": 2.059}, {"pitch": 67, "velocity": 69, "note_on_time": 2.101, "note_off_time": 2.264}, {"pitch": 62, "velocity": 74, "note_on_time": 2.274, "note_off_time": 2.314}, {"pitch": 62, "velocity": 71, "note_on_time": 2.443, "note_off_time": 2.486}, {"pitch": 62, "velocity": 76, "note_on_time": 2.602, "note_off_time": 2.731}, {"pitch": 64, "velocity": 79, "note_on_time": 2.773, "note_off_time": 2.921}, {"pitch": 60, "velocity": 71, "note_on_time": 2.931, "note_off_time": 3.09}, {"pitch": 62, "velocity": 79, "note_on_time": 3.107, "note_off_time": 3.266}, {"pitch": 60, "velocity": 80, "note_on_time": 3.283, "note_off_time": 3.396}, {"pitch": 64, "velocity": 75, "note_on_time": 3.45, "note_off_time": 3.513}, {"pitch": 64, "velocity": 76, "note_on_time": 3.624, "note_off_time": 3.758}, {"pitch": 60, "velocity": 84, "note_on_time": 3.783, "note_off_time": 3.922}, {"pitch": 67, "velocity": 83, "note_on_time": 3.951, "note_off_time": 4.147}, {"pitch": 65, "velocity": 88, "note_on_time": 4.138, "note_off_time": 4.427}, {"pitch": 64, "velocity": 75, "note_on_time": 4.445, "note_off_time": 4.601}, {"pitch": 65, "velocity": 66, "note_on_time": 4.618, "note_off_time": 4.816}, {"pitch": 60, "velocity": 74, "note_on_time": 4.818, "note_off_time": 4.924}, {"pitch": 62, "velocity": 76, "note_on_time": 4.965, "note_off_time": 5.144}, {"pitch": 65, "velocity": 81, "note_on_time": 5.145, "note_off_time": 5.318}, {"pitch": 62, "velocity": 92, "note_on_time": 5.326, "note_off_time": 5.466}, {"pitch": 62, "velocity": 98, "note_on_time": 5.6, "note_off_time": 5.648}, {"pitch": 62, "velocity": 89, "note_on_time": 5.737, "note_off_time": 5.794}, {"pitch": 62, "velocity": 97, "note_on_time": 5.909, "note_off_time": 6.034}]</notes><guidance name="Guidance Mode">None</guidance><error name="Error value">0.014983444444444414</error></trial><trial trial_no="3" timestamp="2022_10_26-14_21_40"><notes name="Played Notes">[{"pitch": 64, "velocity": 62, "note_on_time": 0.699, "note_off_time": 0.875}, {"pitch": 60, "velocity": 73, "note_on_time": 0.874, "note_off_time": 1.074}, {"pitch": 62, "velocity": 75, "note_on_time": 1.069, "note_off_time": 1.243}, {"pitch": 60, "velocity": 80, "note_on_time": 1.233, "note_off_time": 1.4}, {"pitch": 67, "velocity": 77, "note_on_time": 1.409, "note_off_time": 1.585}, {"pitch": 60, "velocity": 74, "note_on_time": 1.566, "note_off_time": 1.722}, {"pitch": 64, "velocity": 76, "note_on_time": 1.741, "note_off_time": 1.816}, {"pitch": 64, "velocity": 80, "note_on_time": 1.904, "note_off_time": 2.047}, {"pitch": 67, "velocity": 77, "note_on_time": 2.089, "note_off_time": 2.254}, {"pitch": 62, "velocity": 63, "note_on_time": 2.257, "note_off_time": 2.296}, {"pitch": 62, "velocity": 69, "note_on_time": 2.423, "note_off_time": 2.485}, {"pitch": 62, "velocity": 77, "note_on_time": 2.601, "note_off_time": 2.751}, {"pitch": 64, "velocity": 79, "note_on_time": 2.773, "note_off_time": 2.93}, {"pitch": 60, "velocity": 77, "note_on_time": 2.934, "note_off_time": 3.088}, {"pitch": 62, "velocity": 83, "note_on_time": 3.117, "note_off_time": 3.279}, {"pitch": 60, "velocity": 81, "note_on_time": 3.297, "note_off_time": 3.421}, {"pitch": 64, "velocity": 81, "note_on_time": 3.463, "note_off_time": 3.525}, {"pitch": 64, "velocity": 78, "note_on_time": 3.625, "note_off_time": 3.753}, {"pitch": 60, "velocity": 83, "note_on_time": 3.781, "note_off_time": 3.921}, {"pitch": 67, "velocity": 82, "note_on_time": 3.948, "note_off_time": 4.122}, {"pitch": 65, "velocity": 89, "note_on_time": 4.128, "note_off_time": 4.426}, {"pitch": 64, "velocity": 78, "note_on_time": 4.439, "note_off_time": 4.617}, {"pitch": 65, "velocity": 75, "note_on_time": 4.627, "note_off_time": 4.828}, {"pitch": 60, "velocity": 82, "note_on_time": 4.833, "note_off_time": 4.969}, {"pitch": 62, "velocity": 83, "note_on_time": 5.001, "note_off_time": 5.149}, {"pitch": 65, "velocity": 88, "note_on_time": 5.157, "note_off_time": 5.354}, {"pitch": 62, "velocity": 90, "note_on_time": 5.349, "note_off_time": 5.496}, {"pitch": 62, "velocity": 94, "note_on_time": 5.649, "note_off_time": 5.716}, {"pitch": 62, "velocity": 89, "note_on_time": 5.818, "note_off_time": 5.89}, {"pitch": 62, "velocity": 93, "note_on_time": 6.001, "note_off_time": 6.107}]</notes><guidance name="Guidance Mode">None</guidance><error name="Error value">0.013427888888888963</error></trial><trial trial_no="4" timestamp="2022_10_26-14_22_11"><notes name="Played Notes">[{"pitch": 64, "velocity": 69, "note_on_time": 0.694, "note_off_time": 0.836}, {"pitch": 60, "velocity": 67, "note_on_time": 0.849, "note_off_time": 1.041}, {"pitch": 62, "velocity": 76, "note_on_time": 1.047, "note_off_time": 1.216}, {"pitch": 60, "velocity": 73, "note_on_time": 1.226, "note_off_time": 1.405}, {"pitch": 67, "velocity": 81, "note_on_time": 1.403, "note_off_time": 1.572}, {"pitch": 60, "velocity": 77, "note_on_time": 1.571, "note_off_time": 1.705}, {"pitch": 64, "velocity": 75, "note_on_time": 1.741, "note_off_time": 1.801}, {"pitch": 64, "velocity": 72, "note_on_time": 1.902, "note_off_time": 2.042}, {"pitch": 67, "velocity": 73, "note_on_time": 2.075, "note_off_time": 2.247}, {"pitch": 62, "velocity": 59, "note_on_time": 2.244, "note_off_time": 2.286}, {"pitch": 62, "velocity": 65, "note_on_time": 2.411, "note_off_time": 2.472}, {"pitch": 62, "velocity": 76, "note_on_time": 2.58, "note_off_time": 2.715}, {"pitch": 64, "velocity": 75, "note_on_time": 2.75, "note_off_time": 2.924}, {"pitch": 60, "velocity": 81, "note_on_time": 2.937, "note_off_time": 3.072}, {"pitch": 62, "velocity": 69, "note_on_time": 3.11, "note_off_time": 3.25}, {"pitch": 60, "velocity": 75, "note_on_time": 3.273, "note_off_time": 3.387}, {"pitch": 64, "velocity": 79, "note_on_time": 3.426, "note_off_time": 3.493}, {"pitch": 64, "velocity": 72, "note_on_time": 3.595, "note_off_time": 3.727}, {"pitch": 60, "velocity": 79, "note_on_time": 3.753, "note_off_time": 3.89}, {"pitch": 67, "velocity": 80, "note_on_time": 3.922, "note_off_time": 4.108}, {"pitch": 65, "velocity": 90, "note_on_time": 4.105, "note_off_time": 4.398}, {"pitch": 64, "velocity": 71, "note_on_time": 4.416, "note_off_time": 4.577}, {"pitch": 65, "velocity": 67, "note_on_time": 4.595, "note_off_time": 4.799}, {"pitch": 60, "velocity": 77, "note_on_time": 4.808, "note_off_time": 4.95}, {"pitch": 62, "velocity": 76, "note_on_time": 4.973, "note_off_time": 5.135}, {"pitch": 65, "velocity": 82, "note_on_time": 5.145, "note_off_time": 5.319}, {"pitch": 62, "velocity": 90, "note_on_time": 5.312, "note_off_time": 5.448}, {"pitch": 62, "velocity": 91, "note_on_time": 5.644, "note_off_time": 5.71}, {"pitch": 62, "velocity": 82, "note_on_time": 5.823, "note_off_time": 5.882}, {"pitch": 62, "velocity": 90, "note_on_time": 5.995, "note_off_time": 6.079}]</notes><guidance name="Guidance Mode">None</guidance><error name="Error value">0.01127737037037042</error></trial><trial trial_no="5" timestamp="2022_10_26-14_22_32"><notes name="Played Notes">[{"pitch": 64, "velocity": 70, "note_on_time": 0.71, "note_off_time": 0.863}, {"pitch": 60, "velocity": 74, "note_on_time": 0.869, "note_off_time": 1.052}, {"pitch": 62, "velocity": 81, "note_on_time": 1.058, "note_off_time": 1.204}, {"pitch": 60, "velocity": 75, "note_on_time": 1.223, "note_off_time": 1.38}, {"pitch": 67, "velocity": 75, "note_on_time": 1.402, "note_off_time": 1.56}, {"pitch": 60, "velocity": 71, "note_on_time": 1.55, "note_off_time": 1.71}, {"pitch": 64, "velocity": 60, "note_on_time": 1.731, "note_off_time": 1.789}, {"pitch": 64, "velocity": 58, "note_on_time": 1.889, "note_off_time": 2.055}, {"pitch": 67, "velocity": 78, "note_on_time": 2.069, "note_off_time": 2.258}, {"pitch": 62, "velocity": 73, "note_on_time": 2.257, "note_off_time": 2.304}, {"pitch": 62, "velocity": 74, "note_on_time": 2.425, "note_off_time": 2.489}, {"pitch": 62, "velocity": 78, "note_on_time": 2.587, "note_off_time": 2.717}, {"pitch": 64, "velocity": 77, "note_on_time": 2.759, "note_off_time": 2.899}, {"pitch": 60, "velocity": 75, "note_on_time": 2.914, "note_off_time": 3.07}, {"pitch": 62, "velocity": 78, "note_on_time": 3.099, "note_off_time": 3.24}, {"pitch": 60, "velocity": 77, "note_on_time": 3.27, "note_off_time": 3.382}, {"pitch": 64, "velocity": 79, "note_on_time": 3.431, "note_off_time": 3.499}, {"pitch": 64, "velocity": 74, "note_on_time": 3.591, "note_off_time": 3.731}, {"pitch": 60, "velocity": 82, "note_on_time": 3.76, "note_off_time": 3.896}, {"pitch": 67, "velocity": 79, "note_on_time": 3.933, "note_off_time": 4.108}, {"pitch": 65, "velocity": 75, "note_on_time": 4.117, "note_off_time": 4.422}, {"pitch": 62, "velocity": 74, "note_on_time": 4.442, "note_off_time": 4.625}, {"pitch": 65, "velocity": 77, "note_on_time": 4.631, "note_off_time": 4.791}, {"pitch": 60, "velocity": 72, "note_on_time": 4.8, "note_off_time": 4.959}, {"pitch": 62, "velocity": 69, "note_on_time": 4.984, "note_off_time": 5.142}, {"pitch": 65, "velocity": 87, "note_on_time": 5.177, "note_off_time": 5.328}, {"pitch": 60, "velocity": 87, "note_on_time": 5.354, "note_off_time": 5.478}, {"pitch": 62, "velocity": 77, "note_on_time": 5.519, "note_off_time": 5.69}, {"pitch": 62, "velocity": 84, "note_on_time": 6.065, "note_off_time": 6.106}]</notes><guidance name="Guidance Mode">None</guidance><error name="Error value">0.13469266666666663</error></trial></trials></MIDI>