<MIDI midiNo="2022_11_23-16_55_41"><target_notes><notes name="Note List">[{"pitch": 42, "velocity": 80, "note_on_time": 0.004, "note_off_time": 0.32}, {"pitch": 42, "velocity": 80, "note_on_time": 0.321, "note_off_time": 0.631}, {"pitch": 42, "velocity": 80, "note_on_time": 0.631, "note_off_time": 0.94}, {"pitch": 42, "velocity": 80, "note_on_time": 0.94, "note_off_time": 1.249}, {"pitch": 42, "velocity": 80, "note_on_time": 1.249, "note_off_time": 1.56}, {"pitch": 65, "velocity": 80, "note_on_time": 1.249, "note_off_time": 1.87}, {"pitch": 42, "velocity": 80, "note_on_time": 1.561, "note_off_time": 1.871}, {"pitch": 42, "velocity": 80, "note_on_time": 1.871, "note_off_time": 2.183}, {"pitch": 42, "velocity": 80, "note_on_time": 2.183, "note_off_time": 2.495}, {"pitch": 64, "velocity": 80, "note_on_time": 2.494, "note_off_time": 2.805}, {"pitch": 42, "velocity": 80, "note_on_time": 2.495, "note_off_time": 2.805}, {"pitch": 62, "velocity": 80, "note_on_time": 2.805, "note_off_time": 3.115}, {"pitch": 42, "velocity": 80, "note_on_time": 2.806, "note_off_time": 3.115}, {"pitch": 62, "velocity": 80, "note_on_time": 3.115, "note_off_time": 3.425}, {"pitch": 42, "velocity": 80, "note_on_time": 3.115, "note_off_time": 3.425}, {"pitch": 62, "velocity": 80, "note_on_time": 3.425, "note_off_time": 3.741}, {"pitch": 42, "velocity": 80, "note_on_time": 3.425, "note_off_time": 3.741}, {"pitch": 60, "velocity": 80, "note_on_time": 3.741, "note_off_time": 4.051}, {"pitch": 42, "velocity": 80, "note_on_time": 3.741, "note_off_time": 4.051}, {"pitch": 42, "velocity": 80, "note_on_time": 4.051, "note_off_time": 4.361}, {"pitch": 42, "velocity": 80, "note_on_time": 4.361, "note_off_time": 4.674}, {"pitch": 42, "velocity": 80, "note_on_time": 4.674, "note_off_time": 4.982}, {"pitch": 42, "velocity": 80, "note_on_time": 4.982, "note_off_time": 5.29}, {"pitch": 67, "velocity": 80, "note_on_time": 4.981, "note_off_time": 5.599}, {"pitch": 42, "velocity": 80, "note_on_time": 5.291, "note_off_time": 5.599}, {"pitch": 42, "velocity": 80, "note_on_time": 5.6, "note_off_time": 5.909}, {"pitch": 64, "velocity": 80, "note_on_time": 5.599, "note_off_time": 6.218}, {"pitch": 42, "velocity": 80, "note_on_time": 5.909, "note_off_time": 6.218}, {"pitch": 64, "velocity": 80, "note_on_time": 6.218, "note_off_time": 6.524}, {"pitch": 42, "velocity": 80, "note_on_time": 6.219, "note_off_time": 6.524}, {"pitch": 60, "velocity": 80, "note_on_time": 6.524, "note_off_time": 6.833}, {"pitch": 42, "velocity": 80, "note_on_time": 6.524, "note_off_time": 6.833}, {"pitch": 62, "velocity": 80, "note_on_time": 6.833, "note_off_time": 7.145}, {"pitch": 42, "velocity": 80, "note_on_time": 6.833, "note_off_time": 7.145}, {"pitch": 67, "velocity": 80, "note_on_time": 7.145, "note_off_time": 7.456}, {"pitch": 42, "velocity": 80, "note_on_time": 7.145, "note_off_time": 7.456}, {"pitch": 42, "velocity": 80, "note_on_time": 7.457, "note_off_time": 7.768}, {"pitch": 60, "velocity": 80, "note_on_time": 7.456, "note_off_time": 8.081}, {"pitch": 42, "velocity": 80, "note_on_time": 7.768, "note_off_time": 8.081}, {"pitch": 64, "velocity": 80, "note_on_time": 8.081, "note_off_time": 8.394}, {"pitch": 42, "velocity": 80, "note_on_time": 8.081, "note_off_time": 8.394}, {"pitch": 42, "velocity": 80, "note_on_time": 8.395, "note_off_time": 8.704}, {"pitch": 60, "velocity": 80, "note_on_time": 8.704, "note_off_time": 9.013}, {"pitch": 42, "velocity": 80, "note_on_time": 8.704, "note_off_time": 9.014}, {"pitch": 65, "velocity": 80, "note_on_time": 9.013, "note_off_time": 9.327}, {"pitch": 42, "velocity": 80, "note_on_time": 9.014, "note_off_time": 9.327}, {"pitch": 60, "velocity": 80, "note_on_time": 9.327, "note_off_time": 9.635}, {"pitch": 42, "velocity": 80, "note_on_time": 9.327, "note_off_time": 9.635}, {"pitch": 64, "velocity": 80, "note_on_time": 9.635, "note_off_time": 9.947}, {"pitch": 42, "velocity": 80, "note_on_time": 9.636, "note_off_time": 9.947}, {"pitch": 42, "velocity": 80, "note_on_time": 9.947, "note_off_time": 10.257}, {"pitch": 64, "velocity": 80, "note_on_time": 10.256, "note_off_time": 10.568}, {"pitch": 42, "velocity": 80, "note_on_time": 10.257, "note_off_time": 10.568}, {"pitch": 64, "velocity": 80, "note_on_time": 10.568, "note_off_time": 10.878}, {"pitch": 42, "velocity": 80, "note_on_time": 10.569, "note_off_time": 10.879}, {"pitch": 64, "velocity": 80, "note_on_time": 10.878, "note_off_time": 11.191}, {"pitch": 42, "velocity": 80, "note_on_time": 10.879, "note_off_time": 11.191}]</notes><options name="Option List">((4, 4), [0.5, 0.25], 3, 8, &lt;NoteRangePerHand.C_TO_G: 6&gt;, &lt;NoteRangePerHand.ONE_NOTE: 2&gt;, False, True, True, 197)</options></target_notes><trials><trial trial_no="1" timestamp="2022_11_23-16_55_28"><notes name="Played Notes">[{"pitch": 65, "velocity": 85, "note_on_time": 1.235, "note_off_time": 1.671}, {"pitch": 64, "velocity": 79, "note_on_time": 1.905, "note_off_time": 2.169}, {"pitch": 62, "velocity": 62, "note_on_time": 2.173, "note_off_time": 2.291}, {"pitch": 62, "velocity": 68, "note_on_time": 2.492, "note_off_time": 2.613}, {"pitch": 62, "velocity": 60, "note_on_time": 2.799, "note_off_time": 2.902}, {"pitch": 60, "velocity": 79, "note_on_time": 3.131, "note_off_time": 3.429}, {"pitch": 67, "velocity": 74, "note_on_time": 4.326, "note_off_time": 4.735}, {"pitch": 64, "velocity": 74, "note_on_time": 4.986, "note_off_time": 5.373}, {"pitch": 64, "velocity": 73, "note_on_time": 5.615, "note_off_time": 5.907}, {"pitch": 60, "velocity": 74, "note_on_time": 5.929, "note_off_time": 6.071}, {"pitch": 62, "velocity": 77, "note_on_time": 6.231, "note_off_time": 6.447}, {"pitch": 67, "velocity": 77, "note_on_time": 6.526, "note_off_time": 6.674}, {"pitch": 60, "velocity": 82, "note_on_time": 6.863, "note_off_time": 7.211}, {"pitch": 64, "velocity": 78, "note_on_time": 7.503, "note_off_time": 7.756}, {"pitch": 60, "velocity": 84, "note_on_time": 8.193, "note_off_time": 8.335}, {"pitch": 65, "velocity": 75, "note_on_time": 8.471, "note_off_time": 8.593}, {"pitch": 60, "velocity": 81, "note_on_time": 8.745, "note_off_time": 8.859}, {"pitch": 64, "velocity": 80, "note_on_time": 9.046, "note_off_time": 9.147}, {"pitch": 64, "velocity": 85, "note_on_time": 9.702, "note_off_time": 9.794}, {"pitch": 64, "velocity": 86, "note_on_time": 9.972, "note_off_time": 10.061}, {"pitch": 64, "velocity": 92, "note_on_time": 10.259, "note_off_time": 10.361}]</notes><guidance name="Guidance Mode">None</guidance><error name="Error value">0.058253777777777724</error></trial><trial trial_no="2" timestamp="2022_11_23-16_55_50"><notes name="Played Notes">[{"pitch": 65, "velocity": 87, "note_on_time": 1.247, "note_off_time": 1.624}, {"pitch": 64, "velocity": 71, "note_on_time": 1.918, "note_off_time": 2.235}, {"pitch": 62, "velocity": 74, "note_on_time": 2.567, "note_off_time": 2.712}, {"pitch": 62, "velocity": 67, "note_on_time": 2.875, "note_off_time": 2.999}, {"pitch": 62, "velocity": 61, "note_on_time": 3.213, "note_off_time": 3.409}, {"pitch": 60, "velocity": 79, "note_on_time": 3.572, "note_off_time": 3.967}, {"pitch": 67, "velocity": 91, "note_on_time": 4.508, "note_off_time": 4.957}, {"pitch": 64, "velocity": 84, "note_on_time": 5.131, "note_off_time": 5.555}, {"pitch": 64, "velocity": 75, "note_on_time": 5.772, "note_off_time": 6.016}, {"pitch": 60, "velocity": 73, "note_on_time": 6.079, "note_off_time": 6.222}, {"pitch": 62, "velocity": 72, "note_on_time": 6.388, "note_off_time": 6.569}, {"pitch": 67, "velocity": 65, "note_on_time": 6.681, "note_off_time": 6.832}, {"pitch": 60, "velocity": 73, "note_on_time": 7.019, "note_off_time": 7.432}, {"pitch": 64, "velocity": 71, "note_on_time": 7.663, "note_off_time": 8.001}, {"pitch": 60, "velocity": 76, "note_on_time": 8.283, "note_off_time": 8.464}, {"pitch": 65, "velocity": 73, "note_on_time": 8.59, "note_off_time": 8.766}, {"pitch": 60, "velocity": 73, "note_on_time": 8.867, "note_off_time": 8.976}, {"pitch": 64, "velocity": 82, "note_on_time": 9.178, "note_off_time": 9.311}, {"pitch": 64, "velocity": 85, "note_on_time": 9.566, "note_off_time": 9.665}, {"pitch": 64, "velocity": 73, "note_on_time": 9.852, "note_off_time": 9.953}, {"pitch": 64, "velocity": 81, "note_on_time": 10.164, "note_off_time": 10.372}]</notes><guidance name="Guidance Mode">None</guidance><error name="Error value">0.09400888888888874</error></trial><trial trial_no="3" timestamp="2022_11_23-16_56_16"><notes name="Played Notes">[{"pitch": 65, "velocity": 82, "note_on_time": 1.218, "note_off_time": 1.623}, {"pitch": 64, "velocity": 79, "note_on_time": 2.48, "note_off_time": 2.716}, {"pitch": 62, "velocity": 60, "note_on_time": 2.777, "note_off_time": 2.892}, {"pitch": 62, "velocity": 66, "note_on_time": 3.096, "note_off_time": 3.211}, {"pitch": 62, "velocity": 66, "note_on_time": 3.398, "note_off_time": 3.501}, {"pitch": 60, "velocity": 77, "note_on_time": 3.749, "note_off_time": 3.997}, {"pitch": 67, "velocity": 85, "note_on_time": 4.984, "note_off_time": 5.301}, {"pitch": 64, "velocity": 82, "note_on_time": 5.613, "note_off_time": 5.945}, {"pitch": 64, "velocity": 77, "note_on_time": 6.265, "note_off_time": 6.453}, {"pitch": 60, "velocity": 80, "note_on_time": 6.573, "note_off_time": 6.68}, {"pitch": 62, "velocity": 82, "note_on_time": 6.884, "note_off_time": 7.013}, {"pitch": 67, "velocity": 69, "note_on_time": 7.183, "note_off_time": 7.326}, {"pitch": 60, "velocity": 77, "note_on_time": 7.538, "note_off_time": 7.861}, {"pitch": 64, "velocity": 74, "note_on_time": 8.133, "note_off_time": 8.45}, {"pitch": 60, "velocity": 77, "note_on_time": 9.021, "note_off_time": 9.129}, {"pitch": 65, "velocity": 77, "note_on_time": 9.316, "note_off_time": 9.44}, {"pitch": 60, "velocity": 73, "note_on_time": 9.634, "note_off_time": 9.727}, {"pitch": 64, "velocity": 76, "note_on_time": 9.935, "note_off_time": 10.078}, {"pitch": 64, "velocity": 86, "note_on_time": 10.58, "note_off_time": 10.699}, {"pitch": 64, "velocity": 84, "note_on_time": 10.888, "note_off_time": 10.981}]</notes><guidance name="Guidance Mode">None</guidance><error name="Error value">0.10686000000000015</error></trial><trial trial_no="4" timestamp="2022_11_23-16_56_38"><notes name="Played Notes">[{"pitch": 65, "velocity": 76, "note_on_time": 1.248, "note_off_time": 1.704}, {"pitch": 64, "velocity": 72, "note_on_time": 2.522, "note_off_time": 2.783}, {"pitch": 62, "velocity": 66, "note_on_time": 2.809, "note_off_time": 2.933}, {"pitch": 62, "velocity": 66, "note_on_time": 3.128, "note_off_time": 3.228}, {"pitch": 62, "velocity": 65, "note_on_time": 3.429, "note_off_time": 3.548}, {"pitch": 60, "velocity": 77, "note_on_time": 3.766, "note_off_time": 4.119}, {"pitch": 67, "velocity": 84, "note_on_time": 4.977, "note_off_time": 5.337}, {"pitch": 64, "velocity": 81, "note_on_time": 5.588, "note_off_time": 5.915}, {"pitch": 64, "velocity": 76, "note_on_time": 6.207, "note_off_time": 6.407}, {"pitch": 60, "velocity": 75, "note_on_time": 6.524, "note_off_time": 6.658}, {"pitch": 62, "velocity": 74, "note_on_time": 6.825, "note_off_time": 6.97}, {"pitch": 67, "velocity": 72, "note_on_time": 7.126, "note_off_time": 7.262}, {"pitch": 60, "velocity": 79, "note_on_time": 7.465, "note_off_time": 7.8}, {"pitch": 64, "velocity": 76, "note_on_time": 8.076, "note_off_time": 8.443}, {"pitch": 60, "velocity": 81, "note_on_time": 8.739, "note_off_time": 8.889}, {"pitch": 65, "velocity": 70, "note_on_time": 9.03, "note_off_time": 9.164}, {"pitch": 60, "velocity": 72, "note_on_time": 9.324, "note_off_time": 9.439}, {"pitch": 64, "velocity": 72, "note_on_time": 9.627, "note_off_time": 9.74}, {"pitch": 64, "velocity": 69, "note_on_time": 10.287, "note_off_time": 10.376}, {"pitch": 64, "velocity": 71, "note_on_time": 10.557, "note_off_time": 10.67}, {"pitch": 64, "velocity": 75, "note_on_time": 10.856, "note_off_time": 10.992}]</notes><guidance name="Guidance Mode">None</guidance><error name="Error value">0.020508888888888813</error></trial><trial trial_no="5" timestamp="2022_11_23-16_57_03"><notes name="Played Notes">[{"pitch": 65, "velocity": 78, "note_on_time": 1.247, "note_off_time": 1.64}, {"pitch": 64, "velocity": 77, "note_on_time": 2.521, "note_off_time": 2.736}, {"pitch": 62, "velocity": 67, "note_on_time": 2.814, "note_off_time": 2.924}, {"pitch": 62, "velocity": 64, "note_on_time": 3.125, "note_off_time": 3.216}, {"pitch": 62, "velocity": 67, "note_on_time": 3.437, "note_off_time": 3.54}, {"pitch": 60, "velocity": 79, "note_on_time": 3.76, "note_off_time": 3.976}, {"pitch": 67, "velocity": 75, "note_on_time": 4.968, "note_off_time": 5.182}, {"pitch": 64, "velocity": 72, "note_on_time": 5.587, "note_off_time": 5.896}, {"pitch": 64, "velocity": 79, "note_on_time": 6.244, "note_off_time": 6.452}, {"pitch": 60, "velocity": 77, "note_on_time": 6.546, "note_off_time": 6.66}, {"pitch": 62, "velocity": 79, "note_on_time": 6.842, "note_off_time": 6.993}, {"pitch": 67, "velocity": 65, "note_on_time": 7.159, "note_off_time": 7.294}, {"pitch": 60, "velocity": 79, "note_on_time": 7.493, "note_off_time": 7.818}, {"pitch": 64, "velocity": 74, "note_on_time": 8.131, "note_off_time": 8.377}, {"pitch": 60, "velocity": 79, "note_on_time": 8.998, "note_off_time": 9.111}, {"pitch": 65, "velocity": 86, "note_on_time": 9.292, "note_off_time": 9.419}, {"pitch": 60, "velocity": 83, "note_on_time": 9.585, "note_off_time": 9.694}, {"pitch": 64, "velocity": 79, "note_on_time": 9.93, "note_off_time": 10.051}, {"pitch": 64, "velocity": 91, "note_on_time": 10.601, "note_off_time": 10.706}, {"pitch": 64, "velocity": 80, "note_on_time": 10.89, "note_off_time": 10.997}]</notes><guidance name="Guidance Mode">None</guidance><error name="Error value">0.10843822222222199</error></trial></trials></MIDI>