<MIDI midiNo="2022_11_23-16_46_13"><target_notes><notes name="Note List">[{"pitch": 42, "velocity": 80, "note_on_time": 0.004, "note_off_time": 0.219}, {"pitch": 42, "velocity": 80, "note_on_time": 0.219, "note_off_time": 0.436}, {"pitch": 42, "velocity": 80, "note_on_time": 0.436, "note_off_time": 0.653}, {"pitch": 42, "velocity": 80, "note_on_time": 0.653, "note_off_time": 0.87}, {"pitch": 62, "velocity": 80, "note_on_time": 0.87, "note_off_time": 1.088}, {"pitch": 42, "velocity": 80, "note_on_time": 0.87, "note_off_time": 1.088}, {"pitch": 65, "velocity": 80, "note_on_time": 1.088, "note_off_time": 1.307}, {"pitch": 42, "velocity": 80, "note_on_time": 1.088, "note_off_time": 1.307}, {"pitch": 42, "velocity": 80, "note_on_time": 1.307, "note_off_time": 1.527}, {"pitch": 67, "velocity": 80, "note_on_time": 1.307, "note_off_time": 1.745}, {"pitch": 42, "velocity": 80, "note_on_time": 1.527, "note_off_time": 1.745}, {"pitch": 67, "velocity": 80, "note_on_time": 1.745, "note_off_time": 1.961}, {"pitch": 42, "velocity": 80, "note_on_time": 1.745, "note_off_time": 1.961}, {"pitch": 65, "velocity": 80, "note_on_time": 1.961, "note_off_time": 2.179}, {"pitch": 42, "velocity": 80, "note_on_time": 1.961, "note_off_time": 2.179}, {"pitch": 62, "velocity": 80, "note_on_time": 2.179, "note_off_time": 2.398}, {"pitch": 42, "velocity": 80, "note_on_time": 2.179, "note_off_time": 2.398}, {"pitch": 42, "velocity": 80, "note_on_time": 2.398, "note_off_time": 2.617}, {"pitch": 62, "velocity": 80, "note_on_time": 2.617, "note_off_time": 2.835}, {"pitch": 42, "velocity": 80, "note_on_time": 2.617, "note_off_time": 2.835}, {"pitch": 60, "velocity": 80, "note_on_time": 2.835, "note_off_time": 3.052}, {"pitch": 42, "velocity": 80, "note_on_time": 2.835, "note_off_time": 3.052}, {"pitch": 60, "velocity": 80, "note_on_time": 3.052, "note_off_time": 3.27}, {"pitch": 42, "velocity": 80, "note_on_time": 3.052, "note_off_time": 3.27}, {"pitch": 60, "velocity": 80, "note_on_time": 3.27, "note_off_time": 3.488}, {"pitch": 42, "velocity": 80, "note_on_time": 3.27, "note_off_time": 3.488}, {"pitch": 64, "velocity": 80, "note_on_time": 3.488, "note_off_time": 3.706}, {"pitch": 42, "velocity": 80, "note_on_time": 3.488, "note_off_time": 3.706}, {"pitch": 65, "velocity": 80, "note_on_time": 3.706, "note_off_time": 3.923}, {"pitch": 42, "velocity": 80, "note_on_time": 3.706, "note_off_time": 3.923}, {"pitch": 60, "velocity": 80, "note_on_time": 3.923, "note_off_time": 4.141}, {"pitch": 42, "velocity": 80, "note_on_time": 3.923, "note_off_time": 4.141}, {"pitch": 60, "velocity": 80, "note_on_time": 4.141, "note_off_time": 4.359}, {"pitch": 42, "velocity": 80, "note_on_time": 4.141, "note_off_time": 4.359}, {"pitch": 64, "velocity": 80, "note_on_time": 4.359, "note_off_time": 4.576}, {"pitch": 42, "velocity": 80, "note_on_time": 4.359, "note_off_time": 4.576}, {"pitch": 62, "velocity": 80, "note_on_time": 4.576, "note_off_time": 4.792}, {"pitch": 42, "velocity": 80, "note_on_time": 4.576, "note_off_time": 4.792}, {"pitch": 64, "velocity": 80, "note_on_time": 4.792, "note_off_time": 5.012}, {"pitch": 42, "velocity": 80, "note_on_time": 4.792, "note_off_time": 5.012}, {"pitch": 62, "velocity": 80, "note_on_time": 5.012, "note_off_time": 5.228}, {"pitch": 42, "velocity": 80, "note_on_time": 5.012, "note_off_time": 5.228}, {"pitch": 60, "velocity": 80, "note_on_time": 5.228, "note_off_time": 5.447}, {"pitch": 42, "velocity": 80, "note_on_time": 5.228, "note_off_time": 5.447}, {"pitch": 60, "velocity": 80, "note_on_time": 5.447, "note_off_time": 5.664}, {"pitch": 42, "velocity": 80, "note_on_time": 5.447, "note_off_time": 5.664}, {"pitch": 62, "velocity": 80, "note_on_time": 5.664, "note_off_time": 5.881}, {"pitch": 42, "velocity": 80, "note_on_time": 5.664, "note_off_time": 5.881}, {"pitch": 60, "velocity": 80, "note_on_time": 5.881, "note_off_time": 6.097}, {"pitch": 42, "velocity": 80, "note_on_time": 5.881, "note_off_time": 6.097}, {"pitch": 64, "velocity": 80, "note_on_time": 6.097, "note_off_time": 6.314}, {"pitch": 42, "velocity": 80, "note_on_time": 6.097, "note_off_time": 6.314}, {"pitch": 67, "velocity": 80, "note_on_time": 6.314, "note_off_time": 6.531}, {"pitch": 42, "velocity": 80, "note_on_time": 6.314, "note_off_time": 6.531}, {"pitch": 42, "velocity": 80, "note_on_time": 6.531, "note_off_time": 6.749}, {"pitch": 42, "velocity": 80, "note_on_time": 6.749, "note_off_time": 6.966}, {"pitch": 42, "velocity": 80, "note_on_time": 6.966, "note_off_time": 7.183}, {"pitch": 67, "velocity": 80, "note_on_time": 7.183, "note_off_time": 7.4}, {"pitch": 42, "velocity": 80, "note_on_time": 7.183, "note_off_time": 7.4}, {"pitch": 67, "velocity": 80, "note_on_time": 7.4, "note_off_time": 7.617}, {"pitch": 42, "velocity": 80, "note_on_time": 7.4, "note_off_time": 7.617}, {"pitch": 67, "velocity": 80, "note_on_time": 7.617, "note_off_time": 7.836}, {"pitch": 42, "velocity": 80, "note_on_time": 7.617, "note_off_time": 7.836}]</notes><options name="Option List">((4, 4), [0.5, 0.25], 3, 8, &lt;NoteRangePerHand.C_TO_G: 6&gt;, &lt;NoteRangePerHand.ONE_NOTE: 2&gt;, False, True, True, '281')</options></target_notes><trials><trial trial_no="1" timestamp="2022_11_23-16_46_04"><notes name="Played Notes">[{"pitch": 62, "velocity": 62, "note_on_time": 2.354, "note_off_time": 2.774}, {"pitch": 65, "velocity": 67, "note_on_time": 2.77, "note_off_time": 3.2}, {"pitch": 67, "velocity": 61, "note_on_time": 3.2, "note_off_time": 3.697}, {"pitch": 67, "velocity": 59, "note_on_time": 4.08, "note_off_time": 4.515}, {"pitch": 65, "velocity": 66, "note_on_time": 4.499, "note_off_time": 4.951}, {"pitch": 62, "velocity": 52, "note_on_time": 4.937, "note_off_time": 5.113}, {"pitch": 62, "velocity": 54, "note_on_time": 5.799, "note_off_time": 6.236}, {"pitch": 60, "velocity": 61, "note_on_time": 6.231, "note_off_time": 6.368}, {"pitch": 60, "velocity": 60, "note_on_time": 6.683, "note_off_time": 6.828}, {"pitch": 60, "velocity": 65, "note_on_time": 7.12, "note_off_time": 7.25}]</notes><guidance name="Guidance Mode">None</guidance><error name="Error value">1.0938070000000002</error></trial><trial trial_no="2" timestamp="2022_11_23-16_47_26"><notes name="Played Notes">[{"pitch": 62, "velocity": 70, "note_on_time": 0.448, "note_off_time": 0.701}, {"pitch": 65, "velocity": 66, "note_on_time": 0.657, "note_off_time": 0.924}, {"pitch": 67, "velocity": 77, "note_on_time": 0.89, "note_off_time": 1.092}, {"pitch": 67, "velocity": 79, "note_on_time": 1.337, "note_off_time": 1.576}, {"pitch": 65, "velocity": 78, "note_on_time": 1.546, "note_off_time": 1.814}, {"pitch": 62, "velocity": 75, "note_on_time": 1.789, "note_off_time": 1.905}, {"pitch": 62, "velocity": 77, "note_on_time": 2.219, "note_off_time": 2.429}, {"pitch": 60, "velocity": 81, "note_on_time": 2.443, "note_off_time": 2.508}, {"pitch": 60, "velocity": 78, "note_on_time": 2.664, "note_off_time": 2.747}, {"pitch": 60, "velocity": 81, "note_on_time": 2.91, "note_off_time": 2.975}, {"pitch": 64, "velocity": 80, "note_on_time": 3.14, "note_off_time": 3.35}, {"pitch": 65, "velocity": 67, "note_on_time": 3.349, "note_off_time": 3.466}, {"pitch": 60, "velocity": 71, "note_on_time": 3.582, "note_off_time": 3.678}, {"pitch": 60, "velocity": 70, "note_on_time": 3.823, "note_off_time": 3.89}, {"pitch": 64, "velocity": 76, "note_on_time": 4.052, "note_off_time": 4.266}, {"pitch": 62, "velocity": 70, "note_on_time": 4.282, "note_off_time": 4.479}, {"pitch": 64, "velocity": 60, "note_on_time": 4.491, "note_off_time": 4.695}, {"pitch": 62, "velocity": 51, "note_on_time": 4.726, "note_off_time": 4.8}, {"pitch": 60, "velocity": 71, "note_on_time": 4.927, "note_off_time": 5.015}, {"pitch": 60, "velocity": 77, "note_on_time": 5.146, "note_off_time": 5.241}, {"pitch": 62, "velocity": 69, "note_on_time": 5.368, "note_off_time": 5.529}, {"pitch": 60, "velocity": 62, "note_on_time": 5.589, "note_off_time": 5.66}, {"pitch": 64, "velocity": 83, "note_on_time": 5.815, "note_off_time": 6.06}, {"pitch": 67, "velocity": 71, "note_on_time": 6.039, "note_off_time": 6.131}, {"pitch": 67, "velocity": 72, "note_on_time": 6.655, "note_off_time": 6.75}, {"pitch": 67, "velocity": 73, "note_on_time": 6.87, "note_off_time": 6.966}, {"pitch": 67, "velocity": 84, "note_on_time": 7.079, "note_off_time": 7.26}]</notes><guidance name="Guidance Mode">None</guidance><error name="Error value">0.023260291666666627</error></trial><trial trial_no="3" timestamp="2022_11_23-16_47_55"><notes name="Played Notes">[{"pitch": 62, "velocity": 61, "note_on_time": 1.234, "note_off_time": 1.454}, {"pitch": 65, "velocity": 70, "note_on_time": 1.442, "note_off_time": 1.696}, {"pitch": 67, "velocity": 71, "note_on_time": 1.668, "note_off_time": 1.813}, {"pitch": 67, "velocity": 74, "note_on_time": 2.079, "note_off_time": 2.315}, {"pitch": 65, "velocity": 70, "note_on_time": 2.289, "note_off_time": 2.532}, {"pitch": 62, "velocity": 75, "note_on_time": 2.515, "note_off_time": 2.616}, {"pitch": 62, "velocity": 66, "note_on_time": 3.023, "note_off_time": 3.226}, {"pitch": 60, "velocity": 78, "note_on_time": 3.281, "note_off_time": 3.352}, {"pitch": 60, "velocity": 67, "note_on_time": 3.507, "note_off_time": 3.574}, {"pitch": 60, "velocity": 73, "note_on_time": 3.733, "note_off_time": 3.807}, {"pitch": 60, "velocity": 52, "note_on_time": 3.994, "note_off_time": 4.047}, {"pitch": 64, "velocity": 72, "note_on_time": 4.207, "note_off_time": 4.461}, {"pitch": 65, "velocity": 69, "note_on_time": 4.464, "note_off_time": 4.648}, {"pitch": 60, "velocity": 70, "note_on_time": 4.721, "note_off_time": 4.782}, {"pitch": 60, "velocity": 68, "note_on_time": 4.952, "note_off_time": 5.051}, {"pitch": 64, "velocity": 76, "note_on_time": 5.387, "note_off_time": 5.579}, {"pitch": 62, "velocity": 61, "note_on_time": 5.603, "note_off_time": 5.784}, {"pitch": 64, "velocity": 59, "note_on_time": 5.81, "note_off_time": 6.009}, {"pitch": 62, "velocity": 59, "note_on_time": 6.024, "note_off_time": 6.132}, {"pitch": 60, "velocity": 81, "note_on_time": 6.236, "note_off_time": 6.323}, {"pitch": 60, "velocity": 66, "note_on_time": 6.454, "note_off_time": 6.576}, {"pitch": 62, "velocity": 56, "note_on_time": 6.657, "note_off_time": 6.831}, {"pitch": 60, "velocity": 62, "note_on_time": 6.877, "note_off_time": 6.974}, {"pitch": 64, "velocity": 76, "note_on_time": 7.107, "note_off_time": 7.257}, {"pitch": 67, "velocity": 74, "note_on_time": 7.31, "note_off_time": 7.466}]</notes><guidance name="Guidance Mode">None</guidance><error name="Error value">0.5602916666666667</error></trial><trial trial_no="4" timestamp="2022_11_23-16_48_17"><notes name="Played Notes">[{"pitch": 62, "velocity": 80, "note_on_time": 1.499, "note_off_time": 1.751}, {"pitch": 65, "velocity": 75, "note_on_time": 1.713, "note_off_time": 1.942}, {"pitch": 67, "velocity": 79, "note_on_time": 1.92, "note_off_time": 2.112}, {"pitch": 67, "velocity": 83, "note_on_time": 2.365, "note_off_time": 2.577}, {"pitch": 65, "velocity": 77, "note_on_time": 2.553, "note_off_time": 2.807}, {"pitch": 62, "velocity": 79, "note_on_time": 2.786, "note_off_time": 2.904}, {"pitch": 62, "velocity": 79, "note_on_time": 3.194, "note_off_time": 3.399}, {"pitch": 60, "velocity": 77, "note_on_time": 3.392, "note_off_time": 3.462}, {"pitch": 60, "velocity": 84, "note_on_time": 3.611, "note_off_time": 3.678}, {"pitch": 60, "velocity": 86, "note_on_time": 3.827, "note_off_time": 3.912}, {"pitch": 64, "velocity": 85, "note_on_time": 4.089, "note_off_time": 4.309}, {"pitch": 65, "velocity": 74, "note_on_time": 4.306, "note_off_time": 4.486}, {"pitch": 60, "velocity": 76, "note_on_time": 4.537, "note_off_time": 4.601}, {"pitch": 60, "velocity": 84, "note_on_time": 4.759, "note_off_time": 4.845}, {"pitch": 64, "velocity": 81, "note_on_time": 4.983, "note_off_time": 5.182}, {"pitch": 62, "velocity": 63, "note_on_time": 5.206, "note_off_time": 5.297}, {"pitch": 64, "velocity": 73, "note_on_time": 5.412, "note_off_time": 5.601}, {"pitch": 62, "velocity": 64, "note_on_time": 5.615, "note_off_time": 5.799}, {"pitch": 60, "velocity": 82, "note_on_time": 5.822, "note_off_time": 5.915}, {"pitch": 60, "velocity": 77, "note_on_time": 6.048, "note_off_time": 6.155}, {"pitch": 62, "velocity": 72, "note_on_time": 6.253, "note_off_time": 6.429}, {"pitch": 60, "velocity": 73, "note_on_time": 6.462, "note_off_time": 6.553}, {"pitch": 64, "velocity": 76, "note_on_time": 6.696, "note_off_time": 6.926}, {"pitch": 67, "velocity": 73, "note_on_time": 6.906, "note_off_time": 7.012}, {"pitch": 67, "velocity": 76, "note_on_time": 7.571, "note_off_time": 7.668}]</notes><guidance name="Guidance Mode">None</guidance><error name="Error value">0.11297820833333345</error></trial><trial trial_no="5" timestamp="2022_11_23-16_48_38"><notes name="Played Notes">[{"pitch": 62, "velocity": 81, "note_on_time": 1.044, "note_off_time": 1.273}, {"pitch": 65, "velocity": 78, "note_on_time": 1.242, "note_off_time": 1.474}, {"pitch": 67, "velocity": 79, "note_on_time": 1.45, "note_off_time": 1.621}, {"pitch": 67, "velocity": 78, "note_on_time": 1.89, "note_off_time": 2.112}, {"pitch": 65, "velocity": 74, "note_on_time": 2.08, "note_off_time": 2.353}, {"pitch": 62, "velocity": 83, "note_on_time": 2.298, "note_off_time": 2.446}, {"pitch": 62, "velocity": 78, "note_on_time": 2.732, "note_off_time": 2.921}, {"pitch": 60, "velocity": 73, "note_on_time": 2.933, "note_off_time": 2.999}, {"pitch": 60, "velocity": 79, "note_on_time": 3.142, "note_off_time": 3.233}, {"pitch": 60, "velocity": 73, "note_on_time": 3.359, "note_off_time": 3.452}, {"pitch": 64, "velocity": 80, "note_on_time": 3.585, "note_off_time": 3.807}, {"pitch": 65, "velocity": 76, "note_on_time": 3.789, "note_off_time": 3.937}, {"pitch": 60, "velocity": 84, "note_on_time": 4.014, "note_off_time": 4.099}, {"pitch": 60, "velocity": 73, "note_on_time": 4.214, "note_off_time": 4.308}, {"pitch": 64, "velocity": 78, "note_on_time": 4.44, "note_off_time": 4.626}, {"pitch": 62, "velocity": 66, "note_on_time": 4.642, "note_off_time": 4.749}, {"pitch": 64, "velocity": 74, "note_on_time": 4.847, "note_off_time": 5.035}, {"pitch": 62, "velocity": 57, "note_on_time": 5.048, "note_off_time": 5.207}, {"pitch": 60, "velocity": 77, "note_on_time": 5.261, "note_off_time": 5.359}, {"pitch": 60, "velocity": 76, "note_on_time": 5.479, "note_off_time": 5.57}, {"pitch": 62, "velocity": 68, "note_on_time": 5.69, "note_off_time": 5.862}, {"pitch": 60, "velocity": 73, "note_on_time": 5.888, "note_off_time": 5.975}, {"pitch": 64, "velocity": 77, "note_on_time": 6.11, "note_off_time": 6.285}, {"pitch": 67, "velocity": 76, "note_on_time": 6.307, "note_off_time": 6.407}, {"pitch": 67, "velocity": 79, "note_on_time": 6.962, "note_off_time": 7.064}, {"pitch": 67, "velocity": 82, "note_on_time": 7.181, "note_off_time": 7.278}, {"pitch": 67, "velocity": 88, "note_on_time": 7.4, "note_off_time": 7.575}]</notes><guidance name="Guidance Mode">None</guidance><error name="Error value">0.018317291666666815</error></trial><trial trial_no="6" timestamp="2022_11_23-16_49_02"><notes name="Played Notes">[{"pitch": 62, "velocity": 76, "note_on_time": 1.081, "note_off_time": 1.31}, {"pitch": 65, "velocity": 78, "note_on_time": 1.271, "note_off_time": 1.521}, {"pitch": 67, "velocity": 79, "note_on_time": 1.489, "note_off_time": 1.698}, {"pitch": 67, "velocity": 77, "note_on_time": 1.922, "note_off_time": 2.143}, {"pitch": 65, "velocity": 70, "note_on_time": 2.106, "note_off_time": 2.364}, {"pitch": 62, "velocity": 77, "note_on_time": 2.348, "note_off_time": 2.488}, {"pitch": 62, "velocity": 79, "note_on_time": 2.804, "note_off_time": 3.012}, {"pitch": 60, "velocity": 74, "note_on_time": 3.002, "note_off_time": 3.079}, {"pitch": 60, "velocity": 74, "note_on_time": 3.204, "note_off_time": 3.296}, {"pitch": 60, "velocity": 79, "note_on_time": 3.423, "note_off_time": 3.517}, {"pitch": 64, "velocity": 82, "note_on_time": 3.654, "note_off_time": 3.877}, {"pitch": 65, "velocity": 72, "note_on_time": 3.86, "note_off_time": 3.995}, {"pitch": 60, "velocity": 79, "note_on_time": 4.093, "note_off_time": 4.183}, {"pitch": 60, "velocity": 75, "note_on_time": 4.293, "note_off_time": 4.385}, {"pitch": 64, "velocity": 78, "note_on_time": 4.526, "note_off_time": 4.739}, {"pitch": 62, "velocity": 70, "note_on_time": 4.757, "note_off_time": 4.844}, {"pitch": 64, "velocity": 72, "note_on_time": 4.966, "note_off_time": 5.171}, {"pitch": 62, "velocity": 67, "note_on_time": 5.172, "note_off_time": 5.36}, {"pitch": 60, "velocity": 78, "note_on_time": 5.37, "note_off_time": 5.447}, {"pitch": 60, "velocity": 81, "note_on_time": 5.586, "note_off_time": 5.683}, {"pitch": 62, "velocity": 70, "note_on_time": 5.797, "note_off_time": 5.968}, {"pitch": 60, "velocity": 76, "note_on_time": 6.002, "note_off_time": 6.09}, {"pitch": 64, "velocity": 77, "note_on_time": 6.223, "note_off_time": 6.443}, {"pitch": 67, "velocity": 78, "note_on_time": 6.431, "note_off_time": 6.573}, {"pitch": 67, "velocity": 72, "note_on_time": 7.256, "note_off_time": 7.363}, {"pitch": 67, "velocity": 78, "note_on_time": 7.481, "note_off_time": 7.576}]</notes><guidance name="Guidance Mode">None</guidance><error name="Error value">0.06485704166666667</error></trial><trial trial_no="7" timestamp="2022_11_23-16_49_21"><notes name="Played Notes">[{"pitch": 62, "velocity": 78, "note_on_time": 1.503, "note_off_time": 1.744}, {"pitch": 65, "velocity": 69, "note_on_time": 1.71, "note_off_time": 1.942}, {"pitch": 67, "velocity": 76, "note_on_time": 1.918, "note_off_time": 2.137}, {"pitch": 67, "velocity": 74, "note_on_time": 2.344, "note_off_time": 2.571}, {"pitch": 65, "velocity": 75, "note_on_time": 2.555, "note_off_time": 2.795}, {"pitch": 62, "velocity": 81, "note_on_time": 2.785, "note_off_time": 2.931}, {"pitch": 62, "velocity": 77, "note_on_time": 3.192, "note_off_time": 3.407}, {"pitch": 60, "velocity": 71, "note_on_time": 3.411, "note_off_time": 3.47}, {"pitch": 60, "velocity": 75, "note_on_time": 3.615, "note_off_time": 3.698}, {"pitch": 60, "velocity": 72, "note_on_time": 3.829, "note_off_time": 3.9}, {"pitch": 64, "velocity": 80, "note_on_time": 4.039, "note_off_time": 4.244}, {"pitch": 65, "velocity": 77, "note_on_time": 4.228, "note_off_time": 4.43}, {"pitch": 60, "velocity": 81, "note_on_time": 4.466, "note_off_time": 4.546}, {"pitch": 60, "velocity": 76, "note_on_time": 4.668, "note_off_time": 4.745}, {"pitch": 64, "velocity": 77, "note_on_time": 4.882, "note_off_time": 5.085}, {"pitch": 62, "velocity": 62, "note_on_time": 5.102, "note_off_time": 5.247}, {"pitch": 64, "velocity": 54, "note_on_time": 5.284, "note_off_time": 5.491}, {"pitch": 62, "velocity": 66, "note_on_time": 5.497, "note_off_time": 5.701}, {"pitch": 60, "velocity": 75, "note_on_time": 5.712, "note_off_time": 5.785}, {"pitch": 60, "velocity": 77, "note_on_time": 5.909, "note_off_time": 6.015}, {"pitch": 62, "velocity": 73, "note_on_time": 6.115, "note_off_time": 6.315}, {"pitch": 60, "velocity": 71, "note_on_time": 6.329, "note_off_time": 6.405}, {"pitch": 64, "velocity": 78, "note_on_time": 6.54, "note_off_time": 6.734}, {"pitch": 67, "velocity": 71, "note_on_time": 6.744, "note_off_time": 6.873}, {"pitch": 67, "velocity": 84, "note_on_time": 7.434, "note_off_time": 7.533}, {"pitch": 67, "velocity": 89, "note_on_time": 7.668, "note_off_time": 7.76}]</notes><guidance name="Guidance Mode">None</guidance><error name="Error value">0.06694995833333335</error></trial><trial trial_no="8" timestamp="2022_11_23-16_49_57"><notes name="Played Notes">[{"pitch": 62, "velocity": 78, "note_on_time": 0.94, "note_off_time": 1.183}, {"pitch": 65, "velocity": 75, "note_on_time": 1.146, "note_off_time": 1.402}, {"pitch": 67, "velocity": 76, "note_on_time": 1.377, "note_off_time": 1.537}, {"pitch": 67, "velocity": 76, "note_on_time": 1.801, "note_off_time": 2.019}, {"pitch": 65, "velocity": 75, "note_on_time": 2.006, "note_off_time": 2.245}, {"pitch": 62, "velocity": 74, "note_on_time": 2.229, "note_off_time": 2.349}, {"pitch": 62, "velocity": 82, "note_on_time": 2.689, "note_off_time": 2.848}, {"pitch": 60, "velocity": 77, "note_on_time": 2.865, "note_off_time": 2.946}, {"pitch": 60, "velocity": 80, "note_on_time": 3.101, "note_off_time": 3.19}, {"pitch": 60, "velocity": 70, "note_on_time": 3.295, "note_off_time": 3.378}, {"pitch": 64, "velocity": 76, "note_on_time": 3.524, "note_off_time": 3.737}, {"pitch": 65, "velocity": 68, "note_on_time": 3.731, "note_off_time": 3.868}, {"pitch": 62, "velocity": 83, "note_on_time": 3.953, "note_off_time": 4.059}, {"pitch": 60, "velocity": 85, "note_on_time": 4.156, "note_off_time": 4.241}, {"pitch": 60, "velocity": 79, "note_on_time": 4.402, "note_off_time": 4.451}, {"pitch": 64, "velocity": 79, "note_on_time": 4.615, "note_off_time": 4.809}, {"pitch": 62, "velocity": 84, "note_on_time": 4.839, "note_off_time": 4.971}, {"pitch": 64, "velocity": 66, "note_on_time": 5.036, "note_off_time": 5.228}, {"pitch": 62, "velocity": 69, "note_on_time": 5.246, "note_off_time": 5.372}, {"pitch": 60, "velocity": 80, "note_on_time": 5.449, "note_off_time": 5.534}, {"pitch": 60, "velocity": 66, "note_on_time": 5.663, "note_off_time": 5.748}, {"pitch": 62, "velocity": 70, "note_on_time": 5.879, "note_off_time": 6.052}, {"pitch": 60, "velocity": 77, "note_on_time": 6.089, "note_off_time": 6.168}, {"pitch": 64, "velocity": 80, "note_on_time": 6.3, "note_off_time": 6.489}, {"pitch": 67, "velocity": 78, "note_on_time": 6.511, "note_off_time": 6.627}, {"pitch": 67, "velocity": 85, "note_on_time": 7.158, "note_off_time": 7.26}, {"pitch": 67, "velocity": 79, "note_on_time": 7.383, "note_off_time": 7.468}, {"pitch": 67, "velocity": 82, "note_on_time": 7.576, "note_off_time": 7.697}]</notes><guidance name="Guidance Mode">None</guidance><error name="Error value">0.17752754166666707</error></trial></trials></MIDI>