<MIDI midiNo="2022_11_21-19_23_38"><target_notes><notes name="Note List">[{"pitch": 42, "velocity": 80, "note_on_time": 0.004, "note_off_time": 0.405}, {"pitch": 42, "velocity": 80, "note_on_time": 0.405, "note_off_time": 0.81}, {"pitch": 42, "velocity": 80, "note_on_time": 0.811, "note_off_time": 1.213}, {"pitch": 42, "velocity": 80, "note_on_time": 1.213, "note_off_time": 1.617}, {"pitch": 62, "velocity": 80, "note_on_time": 1.617, "note_off_time": 2.023}, {"pitch": 42, "velocity": 80, "note_on_time": 1.617, "note_off_time": 2.023}, {"pitch": 60, "velocity": 80, "note_on_time": 2.023, "note_off_time": 2.428}, {"pitch": 42, "velocity": 80, "note_on_time": 2.023, "note_off_time": 2.428}, {"pitch": 64, "velocity": 80, "note_on_time": 2.428, "note_off_time": 2.833}, {"pitch": 42, "velocity": 80, "note_on_time": 2.429, "note_off_time": 2.834}, {"pitch": 62, "velocity": 80, "note_on_time": 2.833, "note_off_time": 3.238}, {"pitch": 42, "velocity": 80, "note_on_time": 2.834, "note_off_time": 3.238}, {"pitch": 64, "velocity": 80, "note_on_time": 3.238, "note_off_time": 3.643}, {"pitch": 42, "velocity": 80, "note_on_time": 3.238, "note_off_time": 3.643}, {"pitch": 64, "velocity": 80, "note_on_time": 3.643, "note_off_time": 4.048}, {"pitch": 42, "velocity": 80, "note_on_time": 3.643, "note_off_time": 4.048}, {"pitch": 64, "velocity": 80, "note_on_time": 4.048, "note_off_time": 4.454}, {"pitch": 42, "velocity": 80, "note_on_time": 4.048, "note_off_time": 4.454}, {"pitch": 64, "velocity": 80, "note_on_time": 4.454, "note_off_time": 4.855}, {"pitch": 42, "velocity": 80, "note_on_time": 4.455, "note_off_time": 4.856}, {"pitch": 60, "velocity": 80, "note_on_time": 4.855, "note_off_time": 5.262}, {"pitch": 42, "velocity": 80, "note_on_time": 4.856, "note_off_time": 5.262}, {"pitch": 42, "velocity": 80, "note_on_time": 5.262, "note_off_time": 5.666}, {"pitch": 42, "velocity": 80, "note_on_time": 5.666, "note_off_time": 6.07}, {"pitch": 42, "velocity": 80, "note_on_time": 6.071, "note_off_time": 6.477}, {"pitch": 64, "velocity": 80, "note_on_time": 6.476, "note_off_time": 6.88}, {"pitch": 42, "velocity": 80, "note_on_time": 6.477, "note_off_time": 6.881}, {"pitch": 64, "velocity": 80, "note_on_time": 6.88, "note_off_time": 7.283}, {"pitch": 42, "velocity": 80, "note_on_time": 6.881, "note_off_time": 7.284}, {"pitch": 64, "velocity": 80, "note_on_time": 7.283, "note_off_time": 7.689}, {"pitch": 42, "velocity": 80, "note_on_time": 7.284, "note_off_time": 7.689}, {"pitch": 64, "velocity": 80, "note_on_time": 7.689, "note_off_time": 8.093}, {"pitch": 42, "velocity": 80, "note_on_time": 7.689, "note_off_time": 8.093}, {"pitch": 42, "velocity": 80, "note_on_time": 8.094, "note_off_time": 8.5}, {"pitch": 60, "velocity": 80, "note_on_time": 8.093, "note_off_time": 8.903}, {"pitch": 42, "velocity": 80, "note_on_time": 8.5, "note_off_time": 8.903}, {"pitch": 42, "velocity": 80, "note_on_time": 8.903, "note_off_time": 9.308}, {"pitch": 60, "velocity": 80, "note_on_time": 8.903, "note_off_time": 9.713}, {"pitch": 42, "velocity": 80, "note_on_time": 9.309, "note_off_time": 9.713}, {"pitch": 60, "velocity": 80, "note_on_time": 9.713, "note_off_time": 10.117}, {"pitch": 42, "velocity": 80, "note_on_time": 9.713, "note_off_time": 10.118}, {"pitch": 64, "velocity": 80, "note_on_time": 10.117, "note_off_time": 10.521}, {"pitch": 42, "velocity": 80, "note_on_time": 10.118, "note_off_time": 10.521}, {"pitch": 64, "velocity": 80, "note_on_time": 10.521, "note_off_time": 10.928}, {"pitch": 42, "velocity": 80, "note_on_time": 10.521, "note_off_time": 10.928}, {"pitch": 62, "velocity": 80, "note_on_time": 10.928, "note_off_time": 11.33}, {"pitch": 42, "velocity": 80, "note_on_time": 10.928, "note_off_time": 11.33}, {"pitch": 60, "velocity": 80, "note_on_time": 11.33, "note_off_time": 11.737}, {"pitch": 42, "velocity": 80, "note_on_time": 11.33, "note_off_time": 11.737}, {"pitch": 62, "velocity": 80, "note_on_time": 11.737, "note_off_time": 12.142}, {"pitch": 42, "velocity": 80, "note_on_time": 11.738, "note_off_time": 12.142}, {"pitch": 60, "velocity": 80, "note_on_time": 12.142, "note_off_time": 12.548}, {"pitch": 42, "velocity": 80, "note_on_time": 12.142, "note_off_time": 12.548}, {"pitch": 60, "velocity": 80, "note_on_time": 12.548, "note_off_time": 12.952}, {"pitch": 42, "velocity": 80, "note_on_time": 12.549, "note_off_time": 12.952}, {"pitch": 42, "velocity": 80, "note_on_time": 12.952, "note_off_time": 13.358}, {"pitch": 60, "velocity": 80, "note_on_time": 13.357, "note_off_time": 13.762}, {"pitch": 42, "velocity": 80, "note_on_time": 13.358, "note_off_time": 13.762}, {"pitch": 60, "velocity": 80, "note_on_time": 13.762, "note_off_time": 14.166}, {"pitch": 42, "velocity": 80, "note_on_time": 13.762, "note_off_time": 14.166}, {"pitch": 60, "velocity": 80, "note_on_time": 14.166, "note_off_time": 14.572}, {"pitch": 42, "velocity": 80, "note_on_time": 14.167, "note_off_time": 14.573}]</notes><options name="Option List">((4, 4), [0.5, 0.25], 3, 8, &lt;NoteRangePerHand.THREE_NOTES: 4&gt;, &lt;NoteRangePerHand.ONE_NOTE: 2&gt;, False, True, False, 150)</options></target_notes><trials><trial trial_no="1" timestamp="2022_11_21-19_23_22"><notes name="Played Notes">[{"pitch": 62, "velocity": 60, "note_on_time": 1.598, "note_off_time": 2.043}, {"pitch": 60, "velocity": 67, "note_on_time": 2.013, "note_off_time": 2.414}, {"pitch": 63, "velocity": 35, "note_on_time": 2.455, "note_off_time": 2.504}, {"pitch": 64, "velocity": 46, "note_on_time": 2.533, "note_off_time": 2.882}, {"pitch": 62, "velocity": 68, "note_on_time": 2.877, "note_off_time": 3.218}, {"pitch": 64, "velocity": 59, "note_on_time": 3.345, "note_off_time": 3.479}, {"pitch": 64, "velocity": 62, "note_on_time": 3.719, "note_off_time": 3.887}, {"pitch": 64, "velocity": 63, "note_on_time": 4.142, "note_off_time": 4.275}, {"pitch": 64, "velocity": 67, "note_on_time": 4.512, "note_off_time": 4.684}, {"pitch": 60, "velocity": 85, "note_on_time": 4.946, "note_off_time": 5.146}, {"pitch": 64, "velocity": 73, "note_on_time": 6.488, "note_off_time": 6.659}, {"pitch": 64, "velocity": 71, "note_on_time": 6.899, "note_off_time": 7.054}, {"pitch": 64, "velocity": 58, "note_on_time": 7.288, "note_off_time": 7.46}, {"pitch": 64, "velocity": 70, "note_on_time": 7.715, "note_off_time": 7.894}, {"pitch": 60, "velocity": 78, "note_on_time": 8.121, "note_off_time": 8.823}, {"pitch": 60, "velocity": 78, "note_on_time": 9.21, "note_off_time": 9.923}, {"pitch": 60, "velocity": 79, "note_on_time": 10.273, "note_off_time": 10.597}, {"pitch": 64, "velocity": 71, "note_on_time": 10.842, "note_off_time": 10.986}, {"pitch": 64, "velocity": 70, "note_on_time": 11.184, "note_off_time": 11.368}, {"pitch": 62, "velocity": 60, "note_on_time": 11.577, "note_off_time": 11.746}, {"pitch": 60, "velocity": 72, "note_on_time": 11.936, "note_off_time": 12.104}, {"pitch": 62, "velocity": 64, "note_on_time": 12.295, "note_off_time": 12.456}, {"pitch": 60, "velocity": 71, "note_on_time": 12.643, "note_off_time": 12.79}, {"pitch": 60, "velocity": 75, "note_on_time": 13.023, "note_off_time": 13.175}, {"pitch": 60, "velocity": 81, "note_on_time": 13.646, "note_off_time": 13.778}, {"pitch": 60, "velocity": 71, "note_on_time": 13.968, "note_off_time": 14.084}, {"pitch": 60, "velocity": 76, "note_on_time": 14.317, "note_off_time": 14.411}]</notes><guidance name="Guidance Mode">None</guidance><error name="Error value">0.16773913043478267</error></trial></trials></MIDI>