<MIDI midiNo="2022_11_14-18_35_39"><target_notes><notes name="Note List">[{"pitch": 42, "velocity": 80, "note_on_time": 0.004, "note_off_time": 0.225}, {"pitch": 42, "velocity": 80, "note_on_time": 0.226, "note_off_time": 0.443}, {"pitch": 42, "velocity": 80, "note_on_time": 0.443, "note_off_time": 0.661}, {"pitch": 42, "velocity": 80, "note_on_time": 0.661, "note_off_time": 0.879}, {"pitch": 62, "velocity": 80, "note_on_time": 0.879, "note_off_time": 1.096}, {"pitch": 42, "velocity": 80, "note_on_time": 0.879, "note_off_time": 1.096}, {"pitch": 60, "velocity": 80, "note_on_time": 1.096, "note_off_time": 1.315}, {"pitch": 42, "velocity": 80, "note_on_time": 1.096, "note_off_time": 1.315}, {"pitch": 42, "velocity": 80, "note_on_time": 1.315, "note_off_time": 1.533}, {"pitch": 64, "velocity": 80, "note_on_time": 1.315, "note_off_time": 1.752}, {"pitch": 42, "velocity": 80, "note_on_time": 1.533, "note_off_time": 1.752}, {"pitch": 64, "velocity": 80, "note_on_time": 1.752, "note_off_time": 1.969}, {"pitch": 42, "velocity": 80, "note_on_time": 1.752, "note_off_time": 1.969}, {"pitch": 62, "velocity": 80, "note_on_time": 1.969, "note_off_time": 2.186}, {"pitch": 42, "velocity": 80, "note_on_time": 1.969, "note_off_time": 2.186}, {"pitch": 65, "velocity": 80, "note_on_time": 2.186, "note_off_time": 2.404}, {"pitch": 42, "velocity": 80, "note_on_time": 2.186, "note_off_time": 2.404}, {"pitch": 62, "velocity": 80, "note_on_time": 2.404, "note_off_time": 2.623}, {"pitch": 42, "velocity": 80, "note_on_time": 2.404, "note_off_time": 2.623}, {"pitch": 65, "velocity": 80, "note_on_time": 2.623, "note_off_time": 2.841}, {"pitch": 42, "velocity": 80, "note_on_time": 2.623, "note_off_time": 2.842}, {"pitch": 62, "velocity": 80, "note_on_time": 2.841, "note_off_time": 3.059}, {"pitch": 42, "velocity": 80, "note_on_time": 2.842, "note_off_time": 3.059}, {"pitch": 62, "velocity": 80, "note_on_time": 3.059, "note_off_time": 3.276}, {"pitch": 42, "velocity": 80, "note_on_time": 3.059, "note_off_time": 3.276}, {"pitch": 64, "velocity": 80, "note_on_time": 3.276, "note_off_time": 3.492}, {"pitch": 42, "velocity": 80, "note_on_time": 3.276, "note_off_time": 3.492}, {"pitch": 62, "velocity": 80, "note_on_time": 3.492, "note_off_time": 3.712}, {"pitch": 42, "velocity": 80, "note_on_time": 3.492, "note_off_time": 3.712}, {"pitch": 60, "velocity": 80, "note_on_time": 3.712, "note_off_time": 3.931}, {"pitch": 42, "velocity": 80, "note_on_time": 3.712, "note_off_time": 3.931}, {"pitch": 64, "velocity": 80, "note_on_time": 3.931, "note_off_time": 4.148}, {"pitch": 42, "velocity": 80, "note_on_time": 3.931, "note_off_time": 4.148}, {"pitch": 65, "velocity": 80, "note_on_time": 4.148, "note_off_time": 4.364}, {"pitch": 42, "velocity": 80, "note_on_time": 4.148, "note_off_time": 4.364}, {"pitch": 64, "velocity": 80, "note_on_time": 4.364, "note_off_time": 4.58}, {"pitch": 42, "velocity": 80, "note_on_time": 4.364, "note_off_time": 4.58}, {"pitch": 62, "velocity": 80, "note_on_time": 4.58, "note_off_time": 4.797}, {"pitch": 42, "velocity": 80, "note_on_time": 4.581, "note_off_time": 4.797}, {"pitch": 60, "velocity": 80, "note_on_time": 4.797, "note_off_time": 5.016}, {"pitch": 42, "velocity": 80, "note_on_time": 4.797, "note_off_time": 5.016}, {"pitch": 65, "velocity": 80, "note_on_time": 5.016, "note_off_time": 5.237}, {"pitch": 42, "velocity": 80, "note_on_time": 5.016, "note_off_time": 5.237}, {"pitch": 62, "velocity": 80, "note_on_time": 5.237, "note_off_time": 5.455}, {"pitch": 42, "velocity": 80, "note_on_time": 5.237, "note_off_time": 5.455}, {"pitch": 62, "velocity": 80, "note_on_time": 5.455, "note_off_time": 5.672}, {"pitch": 42, "velocity": 80, "note_on_time": 5.455, "note_off_time": 5.672}, {"pitch": 65, "velocity": 80, "note_on_time": 5.672, "note_off_time": 5.888}, {"pitch": 42, "velocity": 80, "note_on_time": 5.672, "note_off_time": 5.888}, {"pitch": 64, "velocity": 80, "note_on_time": 5.888, "note_off_time": 6.106}, {"pitch": 42, "velocity": 80, "note_on_time": 5.888, "note_off_time": 6.106}, {"pitch": 65, "velocity": 80, "note_on_time": 6.106, "note_off_time": 6.325}, {"pitch": 42, "velocity": 80, "note_on_time": 6.106, "note_off_time": 6.325}, {"pitch": 65, "velocity": 80, "note_on_time": 6.325, "note_off_time": 6.542}, {"pitch": 42, "velocity": 80, "note_on_time": 6.325, "note_off_time": 6.542}, {"pitch": 60, "velocity": 80, "note_on_time": 6.542, "note_off_time": 6.759}, {"pitch": 42, "velocity": 80, "note_on_time": 6.542, "note_off_time": 6.759}, {"pitch": 62, "velocity": 80, "note_on_time": 6.759, "note_off_time": 6.976}, {"pitch": 42, "velocity": 80, "note_on_time": 6.759, "note_off_time": 6.976}, {"pitch": 42, "velocity": 80, "note_on_time": 6.976, "note_off_time": 7.192}, {"pitch": 62, "velocity": 80, "note_on_time": 7.192, "note_off_time": 7.411}, {"pitch": 42, "velocity": 80, "note_on_time": 7.193, "note_off_time": 7.411}, {"pitch": 62, "velocity": 80, "note_on_time": 7.411, "note_off_time": 7.629}, {"pitch": 42, "velocity": 80, "note_on_time": 7.411, "note_off_time": 7.629}, {"pitch": 62, "velocity": 80, "note_on_time": 7.629, "note_off_time": 7.847}, {"pitch": 42, "velocity": 80, "note_on_time": 7.629, "note_off_time": 7.847}]</notes><options name="Option List">((4, 4), [0.5, 0.25], 3, 8, &lt;NoteRangePerHand.FOUR_NOTES: 5&gt;, &lt;NoteRangePerHand.ONE_NOTE: 2&gt;, False, True, False, 281)</options></target_notes><trials><trial trial_no="1" timestamp="2022_11_14-18_35_29"><notes name="Played Notes">[{"pitch": 62, "velocity": 66, "note_on_time": 0.961, "note_off_time": 1.215}, {"pitch": 60, "velocity": 81, "note_on_time": 1.188, "note_off_time": 1.466}, {"pitch": 64, "velocity": 79, "note_on_time": 1.439, "note_off_time": 1.772}, {"pitch": 64, "velocity": 64, "note_on_time": 1.913, "note_off_time": 2.177}, {"pitch": 62, "velocity": 73, "note_on_time": 2.147, "note_off_time": 2.378}, {"pitch": 65, "velocity": 80, "note_on_time": 2.368, "note_off_time": 2.617}, {"pitch": 62, "velocity": 72, "note_on_time": 2.598, "note_off_time": 2.841}, {"pitch": 65, "velocity": 80, "note_on_time": 2.842, "note_off_time": 3.108}, {"pitch": 62, "velocity": 83, "note_on_time": 3.081, "note_off_time": 3.178}, {"pitch": 62, "velocity": 84, "note_on_time": 3.32, "note_off_time": 3.563}, {"pitch": 64, "velocity": 83, "note_on_time": 3.563, "note_off_time": 3.822}, {"pitch": 62, "velocity": 79, "note_on_time": 3.792, "note_off_time": 4.05}, {"pitch": 60, "velocity": 85, "note_on_time": 4.037, "note_off_time": 4.313}, {"pitch": 64, "velocity": 80, "note_on_time": 4.29, "note_off_time": 4.58}, {"pitch": 65, "velocity": 82, "note_on_time": 4.543, "note_off_time": 4.85}, {"pitch": 64, "velocity": 83, "note_on_time": 4.8, "note_off_time": 5.086}, {"pitch": 62, "velocity": 72, "note_on_time": 5.048, "note_off_time": 5.317}, {"pitch": 60, "velocity": 79, "note_on_time": 5.316, "note_off_time": 5.566}, {"pitch": 65, "velocity": 79, "note_on_time": 5.564, "note_off_time": 5.827}, {"pitch": 62, "velocity": 84, "note_on_time": 5.825, "note_off_time": 5.937}, {"pitch": 62, "velocity": 74, "note_on_time": 6.069, "note_off_time": 6.306}, {"pitch": 65, "velocity": 76, "note_on_time": 6.306, "note_off_time": 6.565}, {"pitch": 64, "velocity": 79, "note_on_time": 6.544, "note_off_time": 6.859}, {"pitch": 65, "velocity": 79, "note_on_time": 6.816, "note_off_time": 6.923}, {"pitch": 65, "velocity": 62, "note_on_time": 7.047, "note_off_time": 7.29}, {"pitch": 60, "velocity": 79, "note_on_time": 7.274, "note_off_time": 7.52}, {"pitch": 62, "velocity": 77, "note_on_time": 7.511, "note_off_time": 7.742}]</notes><guidance name="Guidance Mode">None</guidance><error name="Error value">0.42731629629629625</error></trial></trials></MIDI>