<MIDI midiNo="2022_12_22-13_29_11"><target_notes><notes name="Note List">[{"pitch": 42, "velocity": 80, "note_on_time": 0.003, "note_off_time": 0.225}, {"pitch": 42, "velocity": 80, "note_on_time": 0.225, "note_off_time": 0.444}, {"pitch": 42, "velocity": 80, "note_on_time": 0.444, "note_off_time": 0.66}, {"pitch": 42, "velocity": 80, "note_on_time": 0.66, "note_off_time": 0.879}, {"pitch": 42, "velocity": 80, "note_on_time": 0.879, "note_off_time": 1.1}, {"pitch": 62, "velocity": 80, "note_on_time": 0.879, "note_off_time": 1.32}, {"pitch": 42, "velocity": 80, "note_on_time": 1.1, "note_off_time": 1.32}, {"pitch": 42, "velocity": 80, "note_on_time": 1.32, "note_off_time": 1.538}, {"pitch": 42, "velocity": 80, "note_on_time": 1.538, "note_off_time": 1.757}, {"pitch": 64, "velocity": 80, "note_on_time": 1.757, "note_off_time": 1.974}, {"pitch": 42, "velocity": 80, "note_on_time": 1.757, "note_off_time": 1.974}, {"pitch": 62, "velocity": 80, "note_on_time": 1.974, "note_off_time": 2.191}, {"pitch": 42, "velocity": 80, "note_on_time": 1.974, "note_off_time": 2.191}, {"pitch": 62, "velocity": 80, "note_on_time": 2.191, "note_off_time": 2.413}, {"pitch": 42, "velocity": 80, "note_on_time": 2.191, "note_off_time": 2.413}, {"pitch": 62, "velocity": 80, "note_on_time": 2.413, "note_off_time": 2.629}, {"pitch": 42, "velocity": 80, "note_on_time": 2.413, "note_off_time": 2.629}, {"pitch": 64, "velocity": 80, "note_on_time": 2.629, "note_off_time": 2.846}, {"pitch": 42, "velocity": 80, "note_on_time": 2.629, "note_off_time": 2.846}, {"pitch": 60, "velocity": 80, "note_on_time": 2.846, "note_off_time": 3.076}, {"pitch": 42, "velocity": 80, "note_on_time": 2.846, "note_off_time": 3.076}, {"pitch": 60, "velocity": 80, "note_on_time": 3.076, "note_off_time": 3.293}, {"pitch": 42, "velocity": 80, "note_on_time": 3.077, "note_off_time": 3.293}, {"pitch": 64, "velocity": 80, "note_on_time": 3.293, "note_off_time": 3.511}, {"pitch": 42, "velocity": 80, "note_on_time": 3.293, "note_off_time": 3.511}, {"pitch": 60, "velocity": 80, "note_on_time": 3.511, "note_off_time": 3.729}, {"pitch": 42, "velocity": 80, "note_on_time": 3.511, "note_off_time": 3.729}, {"pitch": 42, "velocity": 80, "note_on_time": 3.729, "note_off_time": 3.949}, {"pitch": 64, "velocity": 80, "note_on_time": 3.729, "note_off_time": 4.167}, {"pitch": 42, "velocity": 80, "note_on_time": 3.949, "note_off_time": 4.167}, {"pitch": 60, "velocity": 80, "note_on_time": 4.167, "note_off_time": 4.386}, {"pitch": 42, "velocity": 80, "note_on_time": 4.167, "note_off_time": 4.386}, {"pitch": 60, "velocity": 80, "note_on_time": 4.386, "note_off_time": 4.605}, {"pitch": 42, "velocity": 80, "note_on_time": 4.386, "note_off_time": 4.605}, {"pitch": 62, "velocity": 80, "note_on_time": 4.605, "note_off_time": 4.823}, {"pitch": 42, "velocity": 80, "note_on_time": 4.605, "note_off_time": 4.823}, {"pitch": 42, "velocity": 80, "note_on_time": 4.823, "note_off_time": 5.04}, {"pitch": 62, "velocity": 80, "note_on_time": 4.823, "note_off_time": 5.258}, {"pitch": 42, "velocity": 80, "note_on_time": 5.04, "note_off_time": 5.258}, {"pitch": 42, "velocity": 80, "note_on_time": 5.258, "note_off_time": 5.476}, {"pitch": 64, "velocity": 80, "note_on_time": 5.258, "note_off_time": 5.692}, {"pitch": 42, "velocity": 80, "note_on_time": 5.476, "note_off_time": 5.692}, {"pitch": 42, "velocity": 80, "note_on_time": 5.692, "note_off_time": 5.909}, {"pitch": 42, "velocity": 80, "note_on_time": 5.909, "note_off_time": 6.127}, {"pitch": 62, "velocity": 80, "note_on_time": 6.127, "note_off_time": 6.346}, {"pitch": 42, "velocity": 80, "note_on_time": 6.127, "note_off_time": 6.346}, {"pitch": 62, "velocity": 80, "note_on_time": 6.346, "note_off_time": 6.563}, {"pitch": 42, "velocity": 80, "note_on_time": 6.347, "note_off_time": 6.563}, {"pitch": 60, "velocity": 80, "note_on_time": 6.563, "note_off_time": 6.783}, {"pitch": 42, "velocity": 80, "note_on_time": 6.563, "note_off_time": 6.783}, {"pitch": 64, "velocity": 80, "note_on_time": 6.783, "note_off_time": 7.0}, {"pitch": 42, "velocity": 80, "note_on_time": 6.783, "note_off_time": 7.0}, {"pitch": 42, "velocity": 80, "note_on_time": 7.0, "note_off_time": 7.217}, {"pitch": 64, "velocity": 80, "note_on_time": 7.217, "note_off_time": 7.435}, {"pitch": 42, "velocity": 80, "note_on_time": 7.217, "note_off_time": 7.435}, {"pitch": 64, "velocity": 80, "note_on_time": 7.435, "note_off_time": 7.652}, {"pitch": 42, "velocity": 80, "note_on_time": 7.435, "note_off_time": 7.652}, {"pitch": 64, "velocity": 80, "note_on_time": 7.652, "note_off_time": 7.868}, {"pitch": 42, "velocity": 80, "note_on_time": 7.652, "note_off_time": 7.868}]</notes><options name="Option List">((4, 4), [0.5, 0.25], 3, 8, &lt;NoteRangePerHand.THREE_NOTES: 4&gt;, &lt;NoteRangePerHand.ONE_NOTE: 2&gt;, False, True, False, '280')</options></target_notes><trials><trial trial_no="1" timestamp="2022_12_22-13_29_01"><notes name="Played Notes">[{"pitch": 62, "velocity": 103, "note_on_time": 0.904, "note_off_time": 1.201}, {"pitch": 64, "velocity": 92, "note_on_time": 1.74, "note_off_time": 1.882}, {"pitch": 62, "velocity": 90, "note_on_time": 1.976, "note_off_time": 2.096}, {"pitch": 62, "velocity": 77, "note_on_time": 2.213, "note_off_time": 2.34}, {"pitch": 62, "velocity": 81, "note_on_time": 2.455, "note_off_time": 2.585}, {"pitch": 64, "velocity": 91, "note_on_time": 2.692, "note_off_time": 2.841}, {"pitch": 60, "velocity": 92, "note_on_time": 2.909, "note_off_time": 3.026}, {"pitch": 60, "velocity": 97, "note_on_time": 3.154, "note_off_time": 3.271}, {"pitch": 64, "velocity": 94, "note_on_time": 3.387, "note_off_time": 3.535}, {"pitch": 60, "velocity": 90, "note_on_time": 3.635, "note_off_time": 3.739}, {"pitch": 64, "velocity": 88, "note_on_time": 3.925, "note_off_time": 4.199}, {"pitch": 60, "velocity": 94, "note_on_time": 4.647, "note_off_time": 4.783}, {"pitch": 60, "velocity": 87, "note_on_time": 4.891, "note_off_time": 5.032}, {"pitch": 62, "velocity": 89, "note_on_time": 5.153, "note_off_time": 5.296}, {"pitch": 60, "velocity": 90, "note_on_time": 5.408, "note_off_time": 5.597}, {"pitch": 62, "velocity": 93, "note_on_time": 5.721, "note_off_time": 6.171}, {"pitch": 64, "velocity": 100, "note_on_time": 6.266, "note_off_time": 6.588}, {"pitch": 62, "velocity": 88, "note_on_time": 6.921, "note_off_time": 7.042}, {"pitch": 62, "velocity": 84, "note_on_time": 7.174, "note_off_time": 7.323}, {"pitch": 60, "velocity": 94, "note_on_time": 7.39, "note_off_time": 7.518}, {"pitch": 64, "velocity": 91, "note_on_time": 7.644, "note_off_time": 7.782}]</notes><guidance name="Guidance Mode">None</guidance><error name="Error value">0.50245</error></trial><trial trial_no="2" timestamp="2022_12_22-13_29_23"><notes name="Played Notes">[{"pitch": 62, "velocity": 102, "note_on_time": 0.957, "note_off_time": 1.525}, {"pitch": 64, "velocity": 92, "note_on_time": 1.741, "note_off_time": 1.89}, {"pitch": 62, "velocity": 92, "note_on_time": 1.985, "note_off_time": 2.108}, {"pitch": 62, "velocity": 83, "note_on_time": 2.236, "note_off_time": 2.349}, {"pitch": 62, "velocity": 93, "note_on_time": 2.486, "note_off_time": 2.62}, {"pitch": 64, "velocity": 95, "note_on_time": 2.728, "note_off_time": 2.891}, {"pitch": 60, "velocity": 84, "note_on_time": 2.988, "note_off_time": 3.106}, {"pitch": 60, "velocity": 100, "note_on_time": 3.238, "note_off_time": 3.381}, {"pitch": 64, "velocity": 88, "note_on_time": 3.507, "note_off_time": 3.663}, {"pitch": 60, "velocity": 95, "note_on_time": 3.762, "note_off_time": 3.929}, {"pitch": 64, "velocity": 92, "note_on_time": 4.04, "note_off_time": 4.239}, {"pitch": 62, "velocity": 87, "note_on_time": 4.577, "note_off_time": 4.751}, {"pitch": 60, "velocity": 84, "note_on_time": 4.919, "note_off_time": 5.038}, {"pitch": 60, "velocity": 97, "note_on_time": 5.174, "note_off_time": 5.285}, {"pitch": 62, "velocity": 89, "note_on_time": 5.434, "note_off_time": 5.558}, {"pitch": 62, "velocity": 101, "note_on_time": 5.704, "note_off_time": 5.945}, {"pitch": 64, "velocity": 91, "note_on_time": 6.189, "note_off_time": 6.61}, {"pitch": 62, "velocity": 90, "note_on_time": 6.786, "note_off_time": 6.912}, {"pitch": 62, "velocity": 87, "note_on_time": 7.036, "note_off_time": 7.203}, {"pitch": 60, "velocity": 92, "note_on_time": 7.288, "note_off_time": 7.492}, {"pitch": 64, "velocity": 93, "note_on_time": 7.573, "note_off_time": 7.751}]</notes><guidance name="Guidance Mode">None</guidance><error name="Error value">0.5958642499999999</error></trial><trial trial_no="3" timestamp="2022_12_22-13_29_42"><notes name="Played Notes">[{"pitch": 62, "velocity": 102, "note_on_time": 0.953, "note_off_time": 1.578}, {"pitch": 64, "velocity": 89, "note_on_time": 1.762, "note_off_time": 1.904}, {"pitch": 62, "velocity": 90, "note_on_time": 2.006, "note_off_time": 2.121}, {"pitch": 62, "velocity": 90, "note_on_time": 2.245, "note_off_time": 2.356}, {"pitch": 62, "velocity": 86, "note_on_time": 2.461, "note_off_time": 2.589}, {"pitch": 64, "velocity": 91, "note_on_time": 2.693, "note_off_time": 2.838}, {"pitch": 60, "velocity": 90, "note_on_time": 2.924, "note_off_time": 3.043}, {"pitch": 60, "velocity": 104, "note_on_time": 3.177, "note_off_time": 3.289}, {"pitch": 64, "velocity": 91, "note_on_time": 3.42, "note_off_time": 3.575}, {"pitch": 60, "velocity": 94, "note_on_time": 3.668, "note_off_time": 3.807}, {"pitch": 64, "velocity": 88, "note_on_time": 3.905, "note_off_time": 4.231}, {"pitch": 60, "velocity": 95, "note_on_time": 4.355, "note_off_time": 4.486}, {"pitch": 60, "velocity": 88, "note_on_time": 4.6, "note_off_time": 4.727}, {"pitch": 62, "velocity": 93, "note_on_time": 4.894, "note_off_time": 5.115}, {"pitch": 62, "velocity": 107, "note_on_time": 5.297, "note_off_time": 5.591}, {"pitch": 64, "velocity": 98, "note_on_time": 5.746, "note_off_time": 6.124}, {"pitch": 62, "velocity": 91, "note_on_time": 6.286, "note_off_time": 6.388}, {"pitch": 62, "velocity": 86, "note_on_time": 6.524, "note_off_time": 6.666}, {"pitch": 60, "velocity": 98, "note_on_time": 6.764, "note_off_time": 6.888}, {"pitch": 62, "velocity": 78, "note_on_time": 7.06, "note_off_time": 7.243}, {"pitch": 64, "velocity": 82, "note_on_time": 7.278, "note_off_time": 7.59}]</notes><guidance name="Guidance Mode">None</guidance><error name="Error value">0.23455025000000007</error></trial><trial trial_no="4" timestamp="2022_12_22-13_30_02"><notes name="Played Notes">[{"pitch": 62, "velocity": 101, "note_on_time": 0.9, "note_off_time": 1.514}, {"pitch": 64, "velocity": 88, "note_on_time": 1.744, "note_off_time": 1.879}, {"pitch": 62, "velocity": 93, "note_on_time": 1.994, "note_off_time": 2.122}, {"pitch": 62, "velocity": 80, "note_on_time": 2.234, "note_off_time": 2.351}, {"pitch": 62, "velocity": 93, "note_on_time": 2.476, "note_off_time": 2.616}, {"pitch": 64, "velocity": 96, "note_on_time": 2.713, "note_off_time": 2.849}, {"pitch": 60, "velocity": 95, "note_on_time": 2.991, "note_off_time": 3.103}, {"pitch": 60, "velocity": 102, "note_on_time": 3.236, "note_off_time": 3.356}, {"pitch": 64, "velocity": 95, "note_on_time": 3.496, "note_off_time": 3.635}, {"pitch": 60, "velocity": 98, "note_on_time": 3.746, "note_off_time": 3.872}, {"pitch": 64, "velocity": 99, "note_on_time": 3.996, "note_off_time": 4.355}, {"pitch": 60, "velocity": 95, "note_on_time": 4.486, "note_off_time": 4.633}, {"pitch": 60, "velocity": 92, "note_on_time": 4.753, "note_off_time": 4.872}, {"pitch": 62, "velocity": 94, "note_on_time": 5.015, "note_off_time": 5.158}, {"pitch": 62, "velocity": 88, "note_on_time": 5.266, "note_off_time": 5.588}, {"pitch": 64, "velocity": 102, "note_on_time": 5.739, "note_off_time": 6.113}, {"pitch": 62, "velocity": 91, "note_on_time": 6.329, "note_off_time": 6.454}, {"pitch": 62, "velocity": 89, "note_on_time": 6.56, "note_off_time": 6.729}, {"pitch": 60, "velocity": 96, "note_on_time": 6.801, "note_off_time": 6.943}, {"pitch": 64, "velocity": 95, "note_on_time": 7.038, "note_off_time": 7.21}, {"pitch": 64, "velocity": 95, "note_on_time": 7.402, "note_off_time": 7.502}, {"pitch": 64, "velocity": 89, "note_on_time": 7.594, "note_off_time": 7.688}]</notes><guidance name="Guidance Mode">None</guidance><error name="Error value">0.11070025000000003</error></trial><trial trial_no="5" timestamp="2022_12_22-13_30_22"><notes name="Played Notes">[{"pitch": 62, "velocity": 104, "note_on_time": 0.89, "note_off_time": 1.544}, {"pitch": 64, "velocity": 93, "note_on_time": 1.729, "note_off_time": 1.859}, {"pitch": 62, "velocity": 91, "note_on_time": 1.964, "note_off_time": 2.066}, {"pitch": 62, "velocity": 85, "note_on_time": 2.184, "note_off_time": 2.29}, {"pitch": 62, "velocity": 84, "note_on_time": 2.396, "note_off_time": 2.523}, {"pitch": 64, "velocity": 94, "note_on_time": 2.627, "note_off_time": 2.756}, {"pitch": 60, "velocity": 96, "note_on_time": 2.851, "note_off_time": 2.956}, {"pitch": 60, "velocity": 101, "note_on_time": 3.097, "note_off_time": 3.19}, {"pitch": 64, "velocity": 94, "note_on_time": 3.336, "note_off_time": 3.465}, {"pitch": 60, "velocity": 99, "note_on_time": 3.564, "note_off_time": 3.678}, {"pitch": 64, "velocity": 98, "note_on_time": 3.798, "note_off_time": 4.203}, {"pitch": 60, "velocity": 96, "note_on_time": 4.324, "note_off_time": 4.417}, {"pitch": 60, "velocity": 100, "note_on_time": 4.698, "note_off_time": 4.841}, {"pitch": 62, "velocity": 94, "note_on_time": 4.934, "note_off_time": 5.119}, {"pitch": 62, "velocity": 88, "note_on_time": 5.222, "note_off_time": 5.511}, {"pitch": 64, "velocity": 103, "note_on_time": 5.615, "note_off_time": 6.015}, {"pitch": 62, "velocity": 90, "note_on_time": 6.153, "note_off_time": 6.274}, {"pitch": 62, "velocity": 98, "note_on_time": 6.402, "note_off_time": 6.552}, {"pitch": 60, "velocity": 99, "note_on_time": 6.648, "note_off_time": 6.765}, {"pitch": 64, "velocity": 101, "note_on_time": 6.951, "note_off_time": 7.138}, {"pitch": 64, "velocity": 109, "note_on_time": 7.371, "note_off_time": 7.443}, {"pitch": 64, "velocity": 92, "note_on_time": 7.548, "note_off_time": 7.636}]</notes><guidance name="Guidance Mode">None</guidance><error name="Error value">0.11428575</error></trial></trials></MIDI>