<MIDI midiNo="2022_10_27-13_32_54"><target_notes><notes name="Note List">[{"pitch": 42, "velocity": 80, "note_on_time": 0.003, "note_off_time": 0.305}, {"pitch": 42, "velocity": 80, "note_on_time": 0.305, "note_off_time": 0.616}, {"pitch": 42, "velocity": 80, "note_on_time": 0.617, "note_off_time": 0.93}, {"pitch": 42, "velocity": 80, "note_on_time": 0.931, "note_off_time": 1.242}, {"pitch": 62, "velocity": 80, "note_on_time": 1.242, "note_off_time": 1.552}, {"pitch": 42, "velocity": 80, "note_on_time": 1.242, "note_off_time": 1.552}, {"pitch": 60, "velocity": 80, "note_on_time": 1.552, "note_off_time": 1.864}, {"pitch": 42, "velocity": 80, "note_on_time": 1.552, "note_off_time": 1.864}, {"pitch": 64, "velocity": 80, "note_on_time": 1.864, "note_off_time": 2.175}, {"pitch": 42, "velocity": 80, "note_on_time": 1.864, "note_off_time": 2.176}, {"pitch": 65, "velocity": 80, "note_on_time": 2.175, "note_off_time": 2.489}, {"pitch": 42, "velocity": 80, "note_on_time": 2.176, "note_off_time": 2.489}, {"pitch": 62, "velocity": 80, "note_on_time": 2.489, "note_off_time": 2.802}, {"pitch": 42, "velocity": 80, "note_on_time": 2.489, "note_off_time": 2.803}, {"pitch": 64, "velocity": 80, "note_on_time": 2.802, "note_off_time": 3.116}, {"pitch": 42, "velocity": 80, "note_on_time": 2.803, "note_off_time": 3.116}, {"pitch": 42, "velocity": 80, "note_on_time": 3.116, "note_off_time": 3.427}, {"pitch": 65, "velocity": 80, "note_on_time": 3.116, "note_off_time": 3.739}, {"pitch": 42, "velocity": 80, "note_on_time": 3.428, "note_off_time": 3.74}, {"pitch": 65, "velocity": 80, "note_on_time": 3.739, "note_off_time": 4.053}, {"pitch": 42, "velocity": 80, "note_on_time": 3.74, "note_off_time": 4.053}, {"pitch": 67, "velocity": 80, "note_on_time": 4.053, "note_off_time": 4.362}, {"pitch": 42, "velocity": 80, "note_on_time": 4.053, "note_off_time": 4.362}, {"pitch": 62, "velocity": 80, "note_on_time": 4.362, "note_off_time": 4.672}, {"pitch": 42, "velocity": 80, "note_on_time": 4.362, "note_off_time": 4.672}, {"pitch": 42, "velocity": 80, "note_on_time": 4.672, "note_off_time": 4.987}, {"pitch": 42, "velocity": 80, "note_on_time": 4.988, "note_off_time": 5.299}, {"pitch": 67, "velocity": 80, "note_on_time": 4.987, "note_off_time": 5.61}, {"pitch": 42, "velocity": 80, "note_on_time": 5.299, "note_off_time": 5.61}, {"pitch": 42, "velocity": 80, "note_on_time": 5.611, "note_off_time": 5.922}, {"pitch": 42, "velocity": 80, "note_on_time": 5.922, "note_off_time": 6.232}, {"pitch": 42, "velocity": 80, "note_on_time": 6.233, "note_off_time": 6.547}, {"pitch": 62, "velocity": 80, "note_on_time": 6.232, "note_off_time": 6.858}, {"pitch": 42, "velocity": 80, "note_on_time": 6.547, "note_off_time": 6.858}, {"pitch": 42, "velocity": 80, "note_on_time": 6.858, "note_off_time": 7.168}, {"pitch": 64, "velocity": 80, "note_on_time": 7.168, "note_off_time": 7.48}, {"pitch": 42, "velocity": 80, "note_on_time": 7.168, "note_off_time": 7.48}, {"pitch": 62, "velocity": 80, "note_on_time": 7.48, "note_off_time": 7.792}, {"pitch": 42, "velocity": 80, "note_on_time": 7.48, "note_off_time": 7.792}, {"pitch": 67, "velocity": 80, "note_on_time": 7.792, "note_off_time": 8.105}, {"pitch": 42, "velocity": 80, "note_on_time": 7.793, "note_off_time": 8.106}, {"pitch": 65, "velocity": 80, "note_on_time": 8.105, "note_off_time": 8.415}, {"pitch": 42, "velocity": 80, "note_on_time": 8.106, "note_off_time": 8.415}, {"pitch": 64, "velocity": 80, "note_on_time": 8.415, "note_off_time": 8.727}, {"pitch": 42, "velocity": 80, "note_on_time": 8.416, "note_off_time": 8.727}, {"pitch": 64, "velocity": 80, "note_on_time": 8.727, "note_off_time": 9.038}, {"pitch": 42, "velocity": 80, "note_on_time": 8.728, "note_off_time": 9.039}, {"pitch": 64, "velocity": 80, "note_on_time": 9.038, "note_off_time": 9.349}, {"pitch": 42, "velocity": 80, "note_on_time": 9.039, "note_off_time": 9.35}, {"pitch": 65, "velocity": 80, "note_on_time": 9.349, "note_off_time": 9.661}, {"pitch": 42, "velocity": 80, "note_on_time": 9.35, "note_off_time": 9.661}, {"pitch": 67, "velocity": 80, "note_on_time": 9.661, "note_off_time": 9.972}, {"pitch": 42, "velocity": 80, "note_on_time": 9.661, "note_off_time": 9.973}, {"pitch": 42, "velocity": 80, "note_on_time": 9.973, "note_off_time": 10.283}, {"pitch": 67, "velocity": 80, "note_on_time": 10.283, "note_off_time": 10.596}, {"pitch": 42, "velocity": 80, "note_on_time": 10.283, "note_off_time": 10.596}, {"pitch": 67, "velocity": 80, "note_on_time": 10.596, "note_off_time": 10.905}, {"pitch": 42, "velocity": 80, "note_on_time": 10.596, "note_off_time": 10.905}, {"pitch": 67, "velocity": 80, "note_on_time": 10.905, "note_off_time": 11.216}, {"pitch": 42, "velocity": 80, "note_on_time": 10.905, "note_off_time": 11.217}]</notes><options name="Option List">((4, 4), [0.5, 0.25], 3, 8, &lt;NoteRangePerHand.C_TO_G: 6&gt;, &lt;NoteRangePerHand.ONE_NOTE: 2&gt;, False, True, False, '200')</options></target_notes><trials><trial trial_no="1" timestamp="2022_10_27-13_32_41"><notes name="Played Notes">[{"pitch": 74, "velocity": 75, "note_on_time": 1.274, "note_off_time": 1.525}, {"pitch": 72, "velocity": 71, "note_on_time": 1.562, "note_off_time": 1.82}, {"pitch": 76, "velocity": 65, "note_on_time": 1.865, "note_off_time": 2.122}, {"pitch": 77, "velocity": 84, "note_on_time": 2.173, "note_off_time": 2.502}, {"pitch": 74, "velocity": 80, "note_on_time": 2.51, "note_off_time": 2.819}, {"pitch": 76, "velocity": 74, "note_on_time": 2.793, "note_off_time": 3.019}, {"pitch": 77, "velocity": 78, "note_on_time": 3.091, "note_off_time": 3.557}, {"pitch": 77, "velocity": 79, "note_on_time": 3.722, "note_off_time": 3.954}, {"pitch": 79, "velocity": 81, "note_on_time": 4.022, "note_off_time": 4.296}, {"pitch": 74, "velocity": 79, "note_on_time": 4.35, "note_off_time": 4.64}, {"pitch": 79, "velocity": 79, "note_on_time": 4.971, "note_off_time": 5.659}, {"pitch": 74, "velocity": 77, "note_on_time": 5.959, "note_off_time": 6.665}]</notes><guidance name="Guidance Mode">None</guidance><error name="Error value">1.4149047619047619</error></trial><trial trial_no="2" timestamp="2022_10_27-13_33_20"><notes name="Played Notes">[{"pitch": 74, "velocity": 76, "note_on_time": 1.215, "note_off_time": 1.499}, {"pitch": 72, "velocity": 74, "note_on_time": 1.524, "note_off_time": 1.723}, {"pitch": 76, "velocity": 73, "note_on_time": 1.833, "note_off_time": 2.092}, {"pitch": 77, "velocity": 73, "note_on_time": 2.152, "note_off_time": 2.433}, {"pitch": 74, "velocity": 78, "note_on_time": 2.478, "note_off_time": 2.694}, {"pitch": 76, "velocity": 76, "note_on_time": 2.758, "note_off_time": 3.092}, {"pitch": 77, "velocity": 79, "note_on_time": 3.092, "note_off_time": 3.543}, {"pitch": 77, "velocity": 85, "note_on_time": 3.74, "note_off_time": 3.984}, {"pitch": 79, "velocity": 78, "note_on_time": 4.034, "note_off_time": 4.298}, {"pitch": 74, "velocity": 76, "note_on_time": 4.368, "note_off_time": 4.621}, {"pitch": 79, "velocity": 71, "note_on_time": 4.987, "note_off_time": 5.532}, {"pitch": 74, "velocity": 83, "note_on_time": 6.257, "note_off_time": 6.782}, {"pitch": 76, "velocity": 77, "note_on_time": 7.15, "note_off_time": 7.418}, {"pitch": 74, "velocity": 76, "note_on_time": 7.504, "note_off_time": 7.695}, {"pitch": 79, "velocity": 73, "note_on_time": 7.783, "note_off_time": 8.004}, {"pitch": 77, "velocity": 74, "note_on_time": 8.111, "note_off_time": 8.37}, {"pitch": 76, "velocity": 70, "note_on_time": 8.405, "note_off_time": 8.541}, {"pitch": 76, "velocity": 85, "note_on_time": 8.726, "note_off_time": 8.844}, {"pitch": 76, "velocity": 77, "note_on_time": 9.029, "note_off_time": 9.148}, {"pitch": 76, "velocity": 84, "note_on_time": 9.344, "note_off_time": 9.484}, {"pitch": 77, "velocity": 77, "note_on_time": 9.636, "note_off_time": 9.797}, {"pitch": 79, "velocity": 84, "note_on_time": 9.979, "note_off_time": 10.134}, {"pitch": 79, "velocity": 83, "note_on_time": 10.613, "note_off_time": 10.744}, {"pitch": 79, "velocity": 84, "note_on_time": 10.909, "note_off_time": 11.026}]</notes><guidance name="Guidance Mode">None</guidance><error name="Error value">1.192952380952381</error></trial><trial trial_no="3" timestamp="2022_10_27-13_33_51"><notes name="Played Notes">[{"pitch": 74, "velocity": 77, "note_on_time": 1.254, "note_off_time": 1.547}, {"pitch": 72, "velocity": 73, "note_on_time": 1.56, "note_off_time": 1.755}, {"pitch": 76, "velocity": 74, "note_on_time": 1.86, "note_off_time": 2.117}, {"pitch": 77, "velocity": 73, "note_on_time": 2.156, "note_off_time": 2.458}, {"pitch": 74, "velocity": 73, "note_on_time": 2.495, "note_off_time": 2.731}, {"pitch": 76, "velocity": 72, "note_on_time": 2.773, "note_off_time": 3.011}, {"pitch": 77, "velocity": 72, "note_on_time": 3.073, "note_off_time": 3.478}, {"pitch": 77, "velocity": 77, "note_on_time": 3.728, "note_off_time": 3.945}, {"pitch": 79, "velocity": 78, "note_on_time": 4.039, "note_off_time": 4.254}, {"pitch": 74, "velocity": 78, "note_on_time": 4.363, "note_off_time": 4.655}, {"pitch": 79, "velocity": 80, "note_on_time": 5.011, "note_off_time": 5.563}, {"pitch": 74, "velocity": 76, "note_on_time": 6.295, "note_off_time": 6.888}, {"pitch": 76, "velocity": 67, "note_on_time": 7.241, "note_off_time": 7.439}, {"pitch": 74, "velocity": 70, "note_on_time": 7.588, "note_off_time": 7.715}, {"pitch": 79, "velocity": 77, "note_on_time": 7.856, "note_off_time": 8.051}, {"pitch": 77, "velocity": 77, "note_on_time": 8.157, "note_off_time": 8.371}, {"pitch": 76, "velocity": 78, "note_on_time": 8.463, "note_off_time": 8.593}, {"pitch": 76, "velocity": 79, "note_on_time": 8.785, "note_off_time": 8.899}, {"pitch": 76, "velocity": 76, "note_on_time": 9.079, "note_off_time": 9.199}, {"pitch": 76, "velocity": 73, "note_on_time": 9.379, "note_off_time": 9.509}, {"pitch": 77, "velocity": 78, "note_on_time": 9.674, "note_off_time": 9.829}, {"pitch": 79, "velocity": 85, "note_on_time": 10.021, "note_off_time": 10.218}, {"pitch": 79, "velocity": 79, "note_on_time": 10.638, "note_off_time": 10.781}, {"pitch": 79, "velocity": 77, "note_on_time": 10.949, "note_off_time": 11.083}]</notes><guidance name="Guidance Mode">None</guidance><error name="Error value">1.1923333333333332</error></trial></trials></MIDI>