<MIDI midiNo="2022_10_27-10_38_09"><target_notes><notes name="Note List">[{"pitch": 42, "velocity": 80, "note_on_time": 0.004, "note_off_time": 0.528}, {"pitch": 42, "velocity": 80, "note_on_time": 0.528, "note_off_time": 1.059}, {"pitch": 42, "velocity": 80, "note_on_time": 1.059, "note_off_time": 1.588}, {"pitch": 42, "velocity": 80, "note_on_time": 1.588, "note_off_time": 2.117}, {"pitch": 62, "velocity": 80, "note_on_time": 2.117, "note_off_time": 2.645}, {"pitch": 42, "velocity": 80, "note_on_time": 2.117, "note_off_time": 2.645}, {"pitch": 60, "velocity": 80, "note_on_time": 2.645, "note_off_time": 3.174}, {"pitch": 42, "velocity": 80, "note_on_time": 2.645, "note_off_time": 3.174}, {"pitch": 42, "velocity": 80, "note_on_time": 3.174, "note_off_time": 3.703}, {"pitch": 42, "velocity": 80, "note_on_time": 3.703, "note_off_time": 4.234}, {"pitch": 62, "velocity": 80, "note_on_time": 4.234, "note_off_time": 4.763}, {"pitch": 42, "velocity": 80, "note_on_time": 4.234, "note_off_time": 4.763}, {"pitch": 42, "velocity": 80, "note_on_time": 4.763, "note_off_time": 5.294}, {"pitch": 62, "velocity": 80, "note_on_time": 5.294, "note_off_time": 5.824}, {"pitch": 42, "velocity": 80, "note_on_time": 5.294, "note_off_time": 5.824}, {"pitch": 62, "velocity": 80, "note_on_time": 5.824, "note_off_time": 6.355}, {"pitch": 42, "velocity": 80, "note_on_time": 5.824, "note_off_time": 6.355}, {"pitch": 62, "velocity": 80, "note_on_time": 6.355, "note_off_time": 6.885}, {"pitch": 42, "velocity": 80, "note_on_time": 6.355, "note_off_time": 6.885}, {"pitch": 42, "velocity": 80, "note_on_time": 6.885, "note_off_time": 7.414}, {"pitch": 42, "velocity": 80, "note_on_time": 7.414, "note_off_time": 7.945}, {"pitch": 42, "velocity": 80, "note_on_time": 7.945, "note_off_time": 8.475}, {"pitch": 62, "velocity": 80, "note_on_time": 8.475, "note_off_time": 9.003}, {"pitch": 42, "velocity": 80, "note_on_time": 8.475, "note_off_time": 9.003}, {"pitch": 62, "velocity": 80, "note_on_time": 9.003, "note_off_time": 9.534}, {"pitch": 42, "velocity": 80, "note_on_time": 9.003, "note_off_time": 9.534}, {"pitch": 62, "velocity": 80, "note_on_time": 9.534, "note_off_time": 10.062}, {"pitch": 42, "velocity": 80, "note_on_time": 9.534, "note_off_time": 10.062}, {"pitch": 62, "velocity": 80, "note_on_time": 10.062, "note_off_time": 10.592}, {"pitch": 42, "velocity": 80, "note_on_time": 10.062, "note_off_time": 10.592}, {"pitch": 62, "velocity": 80, "note_on_time": 10.592, "note_off_time": 11.12}, {"pitch": 42, "velocity": 80, "note_on_time": 10.592, "note_off_time": 11.12}, {"pitch": 62, "velocity": 80, "note_on_time": 11.12, "note_off_time": 11.649}, {"pitch": 42, "velocity": 80, "note_on_time": 11.12, "note_off_time": 11.649}, {"pitch": 60, "velocity": 80, "note_on_time": 11.649, "note_off_time": 12.179}, {"pitch": 42, "velocity": 80, "note_on_time": 11.649, "note_off_time": 12.179}, {"pitch": 60, "velocity": 80, "note_on_time": 12.179, "note_off_time": 12.706}, {"pitch": 42, "velocity": 80, "note_on_time": 12.179, "note_off_time": 12.706}, {"pitch": 62, "velocity": 80, "note_on_time": 12.706, "note_off_time": 13.235}, {"pitch": 42, "velocity": 80, "note_on_time": 12.706, "note_off_time": 13.235}, {"pitch": 60, "velocity": 80, "note_on_time": 13.235, "note_off_time": 13.762}, {"pitch": 42, "velocity": 80, "note_on_time": 13.235, "note_off_time": 13.762}, {"pitch": 62, "velocity": 80, "note_on_time": 13.762, "note_off_time": 14.291}, {"pitch": 42, "velocity": 80, "note_on_time": 13.762, "note_off_time": 14.291}, {"pitch": 60, "velocity": 80, "note_on_time": 14.291, "note_off_time": 14.822}, {"pitch": 42, "velocity": 80, "note_on_time": 14.291, "note_off_time": 14.822}, {"pitch": 62, "velocity": 80, "note_on_time": 14.822, "note_off_time": 15.352}, {"pitch": 42, "velocity": 80, "note_on_time": 14.822, "note_off_time": 15.352}, {"pitch": 62, "velocity": 80, "note_on_time": 15.352, "note_off_time": 15.882}, {"pitch": 42, "velocity": 80, "note_on_time": 15.352, "note_off_time": 15.882}, {"pitch": 60, "velocity": 80, "note_on_time": 15.882, "note_off_time": 16.409}, {"pitch": 42, "velocity": 80, "note_on_time": 15.882, "note_off_time": 16.409}, {"pitch": 62, "velocity": 80, "note_on_time": 16.409, "note_off_time": 16.937}, {"pitch": 42, "velocity": 80, "note_on_time": 16.409, "note_off_time": 16.937}, {"pitch": 42, "velocity": 80, "note_on_time": 16.937, "note_off_time": 17.462}, {"pitch": 62, "velocity": 80, "note_on_time": 17.462, "note_off_time": 17.99}, {"pitch": 42, "velocity": 80, "note_on_time": 17.462, "note_off_time": 17.99}, {"pitch": 62, "velocity": 80, "note_on_time": 17.99, "note_off_time": 18.521}, {"pitch": 42, "velocity": 80, "note_on_time": 17.99, "note_off_time": 18.521}, {"pitch": 62, "velocity": 80, "note_on_time": 18.521, "note_off_time": 19.049}, {"pitch": 42, "velocity": 80, "note_on_time": 18.521, "note_off_time": 19.049}]</notes><options name="Option List">((4, 4), [0.25], 3, 8, &lt;NoteRangePerHand.TWO_NOTES: 3&gt;, &lt;NoteRangePerHand.ONE_NOTE: 2&gt;, False, True, False, '116')</options></target_notes><trials><trial trial_no="1" timestamp="2022_10_27-10_37_48"><notes name="Played Notes">[{"pitch": 62, "velocity": 51, "note_on_time": 2.377, "note_off_time": 2.593}, {"pitch": 60, "velocity": 55, "note_on_time": 2.962, "note_off_time": 3.106}, {"pitch": 62, "velocity": 55, "note_on_time": 5.033, "note_off_time": 5.222}, {"pitch": 62, "velocity": 63, "note_on_time": 6.013, "note_off_time": 6.183}, {"pitch": 62, "velocity": 54, "note_on_time": 6.514, "note_off_time": 6.662}, {"pitch": 62, "velocity": 59, "note_on_time": 6.998, "note_off_time": 7.138}, {"pitch": 62, "velocity": 44, "note_on_time": 8.591, "note_off_time": 8.787}, {"pitch": 62, "velocity": 52, "note_on_time": 9.117, "note_off_time": 9.282}, {"pitch": 62, "velocity": 51, "note_on_time": 9.595, "note_off_time": 9.76}, {"pitch": 62, "velocity": 52, "note_on_time": 10.071, "note_off_time": 10.241}, {"pitch": 62, "velocity": 52, "note_on_time": 10.6, "note_off_time": 10.744}, {"pitch": 62, "velocity": 46, "note_on_time": 11.121, "note_off_time": 11.302}, {"pitch": 60, "velocity": 47, "note_on_time": 11.66, "note_off_time": 11.818}, {"pitch": 60, "velocity": 62, "note_on_time": 12.178, "note_off_time": 12.359}, {"pitch": 62, "velocity": 60, "note_on_time": 12.713, "note_off_time": 12.884}, {"pitch": 60, "velocity": 59, "note_on_time": 13.218, "note_off_time": 13.383}, {"pitch": 62, "velocity": 45, "note_on_time": 13.749, "note_off_time": 13.958}, {"pitch": 60, "velocity": 62, "note_on_time": 14.312, "note_off_time": 14.497}, {"pitch": 62, "velocity": 48, "note_on_time": 14.896, "note_off_time": 15.053}, {"pitch": 62, "velocity": 58, "note_on_time": 15.408, "note_off_time": 15.586}, {"pitch": 60, "velocity": 56, "note_on_time": 15.92, "note_off_time": 16.104}, {"pitch": 62, "velocity": 51, "note_on_time": 16.455, "note_off_time": 16.652}, {"pitch": 62, "velocity": 61, "note_on_time": 17.953, "note_off_time": 18.117}, {"pitch": 62, "velocity": 54, "note_on_time": 18.466, "note_off_time": 18.634}]</notes><guidance name="Guidance Mode">None</guidance><error name="Error value">0.13637459090909093</error></trial><trial trial_no="2" timestamp="2022_10_27-10_38_24"><notes name="Played Notes">[{"pitch": 62, "velocity": 48, "note_on_time": 2.047, "note_off_time": 2.244}, {"pitch": 60, "velocity": 59, "note_on_time": 2.585, "note_off_time": 2.75}, {"pitch": 62, "velocity": 57, "note_on_time": 3.13, "note_off_time": 3.294}, {"pitch": 62, "velocity": 47, "note_on_time": 4.048, "note_off_time": 4.207}, {"pitch": 62, "velocity": 55, "note_on_time": 4.538, "note_off_time": 4.699}, {"pitch": 62, "velocity": 57, "note_on_time": 4.993, "note_off_time": 5.178}, {"pitch": 62, "velocity": 53, "note_on_time": 6.862, "note_off_time": 7.016}, {"pitch": 62, "velocity": 56, "note_on_time": 7.328, "note_off_time": 7.494}, {"pitch": 62, "velocity": 49, "note_on_time": 7.813, "note_off_time": 7.957}, {"pitch": 62, "velocity": 55, "note_on_time": 8.278, "note_off_time": 8.438}, {"pitch": 62, "velocity": 51, "note_on_time": 8.75, "note_off_time": 8.902}, {"pitch": 62, "velocity": 50, "note_on_time": 9.21, "note_off_time": 9.384}, {"pitch": 60, "velocity": 51, "note_on_time": 9.691, "note_off_time": 9.834}, {"pitch": 60, "velocity": 61, "note_on_time": 10.183, "note_off_time": 10.342}, {"pitch": 62, "velocity": 49, "note_on_time": 10.695, "note_off_time": 10.858}, {"pitch": 60, "velocity": 55, "note_on_time": 11.171, "note_off_time": 11.331}, {"pitch": 62, "velocity": 48, "note_on_time": 11.622, "note_off_time": 11.811}, {"pitch": 60, "velocity": 61, "note_on_time": 12.13, "note_off_time": 12.279}, {"pitch": 62, "velocity": 57, "note_on_time": 12.648, "note_off_time": 12.792}, {"pitch": 62, "velocity": 59, "note_on_time": 13.138, "note_off_time": 13.317}, {"pitch": 60, "velocity": 51, "note_on_time": 13.623, "note_off_time": 13.772}, {"pitch": 62, "velocity": 60, "note_on_time": 14.079, "note_off_time": 14.236}, {"pitch": 62, "velocity": 60, "note_on_time": 14.946, "note_off_time": 15.123}, {"pitch": 62, "velocity": 54, "note_on_time": 15.472, "note_off_time": 15.636}, {"pitch": 62, "velocity": 69, "note_on_time": 15.961, "note_off_time": 16.11}]</notes><guidance name="Guidance Mode">None</guidance><error name="Error value">0.09913749999999988</error></trial><trial trial_no="3" timestamp="2022_10_27-10_38_54"><notes name="Played Notes">[{"pitch": 62, "velocity": 54, "note_on_time": 2.551, "note_off_time": 2.752}, {"pitch": 60, "velocity": 50, "note_on_time": 3.15, "note_off_time": 3.328}, {"pitch": 62, "velocity": 49, "note_on_time": 5.616, "note_off_time": 5.796}, {"pitch": 62, "velocity": 52, "note_on_time": 6.952, "note_off_time": 7.137}, {"pitch": 62, "velocity": 52, "note_on_time": 7.472, "note_off_time": 7.646}, {"pitch": 62, "velocity": 54, "note_on_time": 7.962, "note_off_time": 8.16}, {"pitch": 62, "velocity": 45, "note_on_time": 9.979, "note_off_time": 10.16}, {"pitch": 62, "velocity": 50, "note_on_time": 10.482, "note_off_time": 10.636}, {"pitch": 62, "velocity": 44, "note_on_time": 10.965, "note_off_time": 11.129}, {"pitch": 62, "velocity": 50, "note_on_time": 11.458, "note_off_time": 11.627}, {"pitch": 62, "velocity": 46, "note_on_time": 11.933, "note_off_time": 12.101}, {"pitch": 62, "velocity": 50, "note_on_time": 12.449, "note_off_time": 12.631}, {"pitch": 60, "velocity": 46, "note_on_time": 12.962, "note_off_time": 13.103}, {"pitch": 60, "velocity": 67, "note_on_time": 13.516, "note_off_time": 13.68}, {"pitch": 62, "velocity": 61, "note_on_time": 14.117, "note_off_time": 14.29}, {"pitch": 60, "velocity": 64, "note_on_time": 14.66, "note_off_time": 14.813}, {"pitch": 62, "velocity": 56, "note_on_time": 15.185, "note_off_time": 15.36}, {"pitch": 60, "velocity": 59, "note_on_time": 15.733, "note_off_time": 15.879}, {"pitch": 62, "velocity": 60, "note_on_time": 16.278, "note_off_time": 16.45}, {"pitch": 62, "velocity": 59, "note_on_time": 16.835, "note_off_time": 17.007}, {"pitch": 60, "velocity": 54, "note_on_time": 17.361, "note_off_time": 17.518}, {"pitch": 62, "velocity": 57, "note_on_time": 17.866, "note_off_time": 18.034}]</notes><guidance name="Guidance Mode">None</guidance><error name="Error value">0.2869435909090907</error></trial><trial trial_no="4" timestamp="2022_10_27-10_39_25"><notes name="Played Notes">[{"pitch": 62, "velocity": 59, "note_on_time": 2.156, "note_off_time": 2.384}, {"pitch": 60, "velocity": 56, "note_on_time": 2.759, "note_off_time": 2.937}, {"pitch": 62, "velocity": 55, "note_on_time": 5.053, "note_off_time": 5.229}, {"pitch": 62, "velocity": 58, "note_on_time": 6.008, "note_off_time": 6.172}, {"pitch": 62, "velocity": 54, "note_on_time": 6.543, "note_off_time": 6.706}, {"pitch": 62, "velocity": 68, "note_on_time": 7.098, "note_off_time": 7.257}, {"pitch": 62, "velocity": 56, "note_on_time": 9.413, "note_off_time": 9.585}, {"pitch": 62, "velocity": 53, "note_on_time": 9.898, "note_off_time": 10.069}, {"pitch": 62, "velocity": 57, "note_on_time": 10.396, "note_off_time": 10.564}, {"pitch": 62, "velocity": 60, "note_on_time": 10.896, "note_off_time": 11.05}, {"pitch": 62, "velocity": 51, "note_on_time": 11.404, "note_off_time": 11.572}, {"pitch": 62, "velocity": 45, "note_on_time": 11.924, "note_off_time": 12.097}, {"pitch": 60, "velocity": 42, "note_on_time": 12.429, "note_off_time": 12.604}, {"pitch": 60, "velocity": 59, "note_on_time": 12.95, "note_off_time": 13.132}, {"pitch": 62, "velocity": 42, "note_on_time": 13.474, "note_off_time": 13.657}, {"pitch": 60, "velocity": 48, "note_on_time": 13.97, "note_off_time": 14.163}, {"pitch": 62, "velocity": 49, "note_on_time": 14.491, "note_off_time": 14.684}, {"pitch": 60, "velocity": 48, "note_on_time": 15.677, "note_off_time": 15.87}, {"pitch": 62, "velocity": 47, "note_on_time": 16.198, "note_off_time": 16.39}, {"pitch": 62, "velocity": 58, "note_on_time": 16.701, "note_off_time": 16.868}, {"pitch": 60, "velocity": 47, "note_on_time": 17.207, "note_off_time": 17.364}, {"pitch": 62, "velocity": 57, "note_on_time": 17.674, "note_off_time": 17.867}]</notes><guidance name="Guidance Mode">None</guidance><error name="Error value">0.30170536363636336</error></trial><trial trial_no="5" timestamp="2022_10_27-10_39_58"><notes name="Played Notes">[{"pitch": 62, "velocity": 51, "note_on_time": 2.53, "note_off_time": 2.718}, {"pitch": 60, "velocity": 48, "note_on_time": 3.104, "note_off_time": 3.257}, {"pitch": 62, "velocity": 49, "note_on_time": 4.312, "note_off_time": 4.495}, {"pitch": 62, "velocity": 54, "note_on_time": 5.644, "note_off_time": 5.807}, {"pitch": 62, "velocity": 56, "note_on_time": 6.168, "note_off_time": 6.331}, {"pitch": 62, "velocity": 56, "note_on_time": 6.739, "note_off_time": 6.9}, {"pitch": 62, "velocity": 52, "note_on_time": 8.866, "note_off_time": 9.052}, {"pitch": 62, "velocity": 52, "note_on_time": 9.372, "note_off_time": 9.509}, {"pitch": 62, "velocity": 50, "note_on_time": 9.852, "note_off_time": 10.015}, {"pitch": 62, "velocity": 54, "note_on_time": 10.365, "note_off_time": 10.524}, {"pitch": 62, "velocity": 52, "note_on_time": 10.884, "note_off_time": 11.025}, {"pitch": 62, "velocity": 42, "note_on_time": 11.354, "note_off_time": 11.543}, {"pitch": 60, "velocity": 53, "note_on_time": 11.877, "note_off_time": 12.043}, {"pitch": 60, "velocity": 59, "note_on_time": 12.405, "note_off_time": 12.59}, {"pitch": 62, "velocity": 60, "note_on_time": 12.955, "note_off_time": 13.121}, {"pitch": 60, "velocity": 54, "note_on_time": 13.512, "note_off_time": 13.669}, {"pitch": 62, "velocity": 45, "note_on_time": 14.048, "note_off_time": 14.235}, {"pitch": 60, "velocity": 60, "note_on_time": 14.569, "note_off_time": 14.729}, {"pitch": 62, "velocity": 59, "note_on_time": 15.098, "note_off_time": 15.26}, {"pitch": 62, "velocity": 52, "note_on_time": 15.598, "note_off_time": 15.793}, {"pitch": 60, "velocity": 49, "note_on_time": 16.105, "note_off_time": 16.282}, {"pitch": 62, "velocity": 61, "note_on_time": 16.623, "note_off_time": 17.056}, {"pitch": 62, "velocity": 60, "note_on_time": 17.769, "note_off_time": 17.885}, {"pitch": 62, "velocity": 63, "note_on_time": 18.284, "note_off_time": 18.396}, {"pitch": 62, "velocity": 64, "note_on_time": 18.787, "note_off_time": 18.869}]</notes><guidance name="Guidance Mode">None</guidance><error name="Error value">0.05444686363636359</error></trial></trials></MIDI>