<MIDI midiNo="2022_12_08-12_56_47"><target_notes><notes name="Note List">[{"pitch": 42, "velocity": 80, "note_on_time": 0.004, "note_off_time": 0.22}, {"pitch": 42, "velocity": 80, "note_on_time": 0.22, "note_off_time": 0.438}, {"pitch": 42, "velocity": 80, "note_on_time": 0.438, "note_off_time": 0.657}, {"pitch": 42, "velocity": 80, "note_on_time": 0.657, "note_off_time": 0.874}, {"pitch": 67, "velocity": 80, "note_on_time": 0.874, "note_off_time": 1.092}, {"pitch": 42, "velocity": 80, "note_on_time": 0.874, "note_off_time": 1.093}, {"pitch": 62, "velocity": 80, "note_on_time": 1.092, "note_off_time": 1.312}, {"pitch": 42, "velocity": 80, "note_on_time": 1.093, "note_off_time": 1.312}, {"pitch": 64, "velocity": 80, "note_on_time": 1.312, "note_off_time": 1.53}, {"pitch": 42, "velocity": 80, "note_on_time": 1.312, "note_off_time": 1.53}, {"pitch": 65, "velocity": 80, "note_on_time": 1.53, "note_off_time": 1.749}, {"pitch": 42, "velocity": 80, "note_on_time": 1.53, "note_off_time": 1.749}, {"pitch": 60, "velocity": 80, "note_on_time": 1.749, "note_off_time": 1.967}, {"pitch": 42, "velocity": 80, "note_on_time": 1.749, "note_off_time": 1.967}, {"pitch": 42, "velocity": 80, "note_on_time": 1.967, "note_off_time": 2.188}, {"pitch": 42, "velocity": 80, "note_on_time": 2.188, "note_off_time": 2.404}, {"pitch": 42, "velocity": 80, "note_on_time": 2.404, "note_off_time": 2.623}, {"pitch": 42, "velocity": 80, "note_on_time": 2.623, "note_off_time": 2.841}, {"pitch": 60, "velocity": 80, "note_on_time": 2.622, "note_off_time": 3.056}, {"pitch": 42, "velocity": 80, "note_on_time": 2.841, "note_off_time": 3.056}, {"pitch": 42, "velocity": 80, "note_on_time": 3.056, "note_off_time": 3.275}, {"pitch": 42, "velocity": 80, "note_on_time": 3.275, "note_off_time": 3.492}, {"pitch": 65, "velocity": 80, "note_on_time": 3.492, "note_off_time": 3.712}, {"pitch": 42, "velocity": 80, "note_on_time": 3.493, "note_off_time": 3.712}, {"pitch": 64, "velocity": 80, "note_on_time": 3.712, "note_off_time": 3.928}, {"pitch": 42, "velocity": 80, "note_on_time": 3.713, "note_off_time": 3.929}, {"pitch": 67, "velocity": 80, "note_on_time": 3.928, "note_off_time": 4.146}, {"pitch": 42, "velocity": 80, "note_on_time": 3.929, "note_off_time": 4.146}, {"pitch": 62, "velocity": 80, "note_on_time": 4.146, "note_off_time": 4.364}, {"pitch": 42, "velocity": 80, "note_on_time": 4.146, "note_off_time": 4.364}, {"pitch": 62, "velocity": 80, "note_on_time": 4.364, "note_off_time": 4.581}, {"pitch": 42, "velocity": 80, "note_on_time": 4.364, "note_off_time": 4.581}, {"pitch": 65, "velocity": 80, "note_on_time": 4.581, "note_off_time": 4.799}, {"pitch": 42, "velocity": 80, "note_on_time": 4.581, "note_off_time": 4.799}, {"pitch": 60, "velocity": 80, "note_on_time": 4.799, "note_off_time": 5.019}, {"pitch": 42, "velocity": 80, "note_on_time": 4.799, "note_off_time": 5.019}, {"pitch": 62, "velocity": 80, "note_on_time": 5.019, "note_off_time": 5.238}, {"pitch": 42, "velocity": 80, "note_on_time": 5.019, "note_off_time": 5.238}, {"pitch": 42, "velocity": 80, "note_on_time": 5.238, "note_off_time": 5.457}, {"pitch": 65, "velocity": 80, "note_on_time": 5.238, "note_off_time": 5.676}, {"pitch": 42, "velocity": 80, "note_on_time": 5.457, "note_off_time": 5.676}, {"pitch": 42, "velocity": 80, "note_on_time": 5.676, "note_off_time": 5.894}, {"pitch": 60, "velocity": 80, "note_on_time": 5.894, "note_off_time": 6.111}, {"pitch": 42, "velocity": 80, "note_on_time": 5.895, "note_off_time": 6.111}, {"pitch": 42, "velocity": 80, "note_on_time": 6.111, "note_off_time": 6.331}, {"pitch": 64, "velocity": 80, "note_on_time": 6.111, "note_off_time": 6.547}, {"pitch": 42, "velocity": 80, "note_on_time": 6.331, "note_off_time": 6.547}, {"pitch": 67, "velocity": 80, "note_on_time": 6.547, "note_off_time": 6.766}, {"pitch": 42, "velocity": 80, "note_on_time": 6.547, "note_off_time": 6.766}, {"pitch": 60, "velocity": 80, "note_on_time": 6.766, "note_off_time": 6.984}, {"pitch": 42, "velocity": 80, "note_on_time": 6.766, "note_off_time": 6.984}, {"pitch": 42, "velocity": 80, "note_on_time": 6.984, "note_off_time": 7.203}, {"pitch": 60, "velocity": 80, "note_on_time": 7.203, "note_off_time": 7.42}, {"pitch": 42, "velocity": 80, "note_on_time": 7.203, "note_off_time": 7.42}, {"pitch": 60, "velocity": 80, "note_on_time": 7.42, "note_off_time": 7.638}, {"pitch": 42, "velocity": 80, "note_on_time": 7.42, "note_off_time": 7.638}, {"pitch": 60, "velocity": 80, "note_on_time": 7.638, "note_off_time": 7.855}, {"pitch": 42, "velocity": 80, "note_on_time": 7.638, "note_off_time": 7.855}]</notes><options name="Option List">((4, 4), [0.5, 0.25], 3, 8, &lt;NoteRangePerHand.C_TO_G: 6&gt;, &lt;NoteRangePerHand.ONE_NOTE: 2&gt;, False, True, False, 281)</options></target_notes><trials><trial trial_no="1" timestamp="2022_12_08-12_56_38"><notes name="Played Notes">[{"pitch": 67, "velocity": 65, "note_on_time": 0.86, "note_off_time": 1.153}, {"pitch": 62, "velocity": 58, "note_on_time": 1.095, "note_off_time": 1.353}, {"pitch": 64, "velocity": 59, "note_on_time": 1.334, "note_off_time": 1.572}, {"pitch": 65, "velocity": 69, "note_on_time": 1.548, "note_off_time": 1.756}, {"pitch": 60, "velocity": 74, "note_on_time": 1.766, "note_off_time": 2.162}, {"pitch": 60, "velocity": 61, "note_on_time": 2.658, "note_off_time": 3.202}, {"pitch": 65, "velocity": 69, "note_on_time": 3.521, "note_off_time": 3.772}, {"pitch": 64, "velocity": 68, "note_on_time": 3.746, "note_off_time": 3.934}, {"pitch": 67, "velocity": 67, "note_on_time": 3.955, "note_off_time": 4.175}, {"pitch": 62, "velocity": 64, "note_on_time": 4.171, "note_off_time": 4.262}, {"pitch": 62, "velocity": 54, "note_on_time": 4.378, "note_off_time": 4.594}, {"pitch": 65, "velocity": 51, "note_on_time": 4.617, "note_off_time": 4.797}, {"pitch": 60, "velocity": 64, "note_on_time": 4.818, "note_off_time": 4.997}, {"pitch": 62, "velocity": 63, "note_on_time": 5.031, "note_off_time": 5.255}, {"pitch": 65, "velocity": 63, "note_on_time": 5.273, "note_off_time": 5.648}, {"pitch": 60, "velocity": 58, "note_on_time": 5.913, "note_off_time": 6.065}, {"pitch": 64, "velocity": 66, "note_on_time": 6.125, "note_off_time": 6.589}, {"pitch": 67, "velocity": 63, "note_on_time": 6.596, "note_off_time": 6.816}, {"pitch": 60, "velocity": 72, "note_on_time": 6.81, "note_off_time": 7.008}, {"pitch": 60, "velocity": 67, "note_on_time": 7.211, "note_off_time": 7.296}, {"pitch": 60, "velocity": 67, "note_on_time": 7.431, "note_off_time": 7.536}, {"pitch": 60, "velocity": 69, "note_on_time": 7.656, "note_off_time": 7.85}]</notes><guidance name="Guidance Mode">None</guidance><error name="Error value">0.014802473684210492</error></trial><trial trial_no="2" timestamp="2022_12_08-12_56_54"><notes name="Played Notes">[{"pitch": 67, "velocity": 66, "note_on_time": 0.869, "note_off_time": 1.123}, {"pitch": 62, "velocity": 59, "note_on_time": 1.094, "note_off_time": 1.321}, {"pitch": 64, "velocity": 58, "note_on_time": 1.32, "note_off_time": 1.538}, {"pitch": 65, "velocity": 65, "note_on_time": 1.529, "note_off_time": 1.728}, {"pitch": 60, "velocity": 74, "note_on_time": 1.763, "note_off_time": 2.238}, {"pitch": 60, "velocity": 68, "note_on_time": 2.613, "note_off_time": 3.232}, {"pitch": 67, "velocity": 72, "note_on_time": 3.532, "note_off_time": 3.746}, {"pitch": 64, "velocity": 59, "note_on_time": 3.75, "note_off_time": 3.966}, {"pitch": 65, "velocity": 62, "note_on_time": 3.975, "note_off_time": 4.141}, {"pitch": 62, "velocity": 54, "note_on_time": 4.184, "note_off_time": 4.277}, {"pitch": 62, "velocity": 51, "note_on_time": 4.396, "note_off_time": 4.582}, {"pitch": 65, "velocity": 65, "note_on_time": 4.602, "note_off_time": 4.779}, {"pitch": 60, "velocity": 60, "note_on_time": 4.817, "note_off_time": 4.984}, {"pitch": 62, "velocity": 57, "note_on_time": 5.036, "note_off_time": 5.235}, {"pitch": 65, "velocity": 66, "note_on_time": 5.267, "note_off_time": 5.667}, {"pitch": 60, "velocity": 64, "note_on_time": 5.89, "note_off_time": 6.048}, {"pitch": 64, "velocity": 65, "note_on_time": 6.137, "note_off_time": 6.577}, {"pitch": 67, "velocity": 63, "note_on_time": 6.588, "note_off_time": 6.816}, {"pitch": 60, "velocity": 64, "note_on_time": 6.81, "note_off_time": 7.018}, {"pitch": 60, "velocity": 69, "note_on_time": 7.234, "note_off_time": 7.307}, {"pitch": 60, "velocity": 70, "note_on_time": 7.455, "note_off_time": 7.535}, {"pitch": 60, "velocity": 79, "note_on_time": 7.672, "note_off_time": 7.79}]</notes><guidance name="Guidance Mode">None</guidance><error name="Error value">0.1194413157894737</error></trial><trial trial_no="3" timestamp="2022_12_08-12_57_10"><notes name="Played Notes">[{"pitch": 67, "velocity": 62, "note_on_time": 0.882, "note_off_time": 1.142}, {"pitch": 62, "velocity": 49, "note_on_time": 1.118, "note_off_time": 1.326}, {"pitch": 64, "velocity": 61, "note_on_time": 1.33, "note_off_time": 1.558}, {"pitch": 65, "velocity": 51, "note_on_time": 1.561, "note_off_time": 1.783}, {"pitch": 60, "velocity": 72, "note_on_time": 1.786, "note_off_time": 2.315}, {"pitch": 60, "velocity": 69, "note_on_time": 2.659, "note_off_time": 3.245}, {"pitch": 65, "velocity": 71, "note_on_time": 3.511, "note_off_time": 3.748}, {"pitch": 64, "velocity": 64, "note_on_time": 3.746, "note_off_time": 3.921}, {"pitch": 67, "velocity": 67, "note_on_time": 3.942, "note_off_time": 4.191}, {"pitch": 62, "velocity": 58, "note_on_time": 4.168, "note_off_time": 4.249}, {"pitch": 62, "velocity": 57, "note_on_time": 4.402, "note_off_time": 4.593}, {"pitch": 65, "velocity": 62, "note_on_time": 4.616, "note_off_time": 4.793}, {"pitch": 60, "velocity": 52, "note_on_time": 4.828, "note_off_time": 4.996}, {"pitch": 62, "velocity": 61, "note_on_time": 5.042, "note_off_time": 5.263}, {"pitch": 65, "velocity": 55, "note_on_time": 5.291, "note_off_time": 5.613}, {"pitch": 60, "velocity": 55, "note_on_time": 5.941, "note_off_time": 6.124}, {"pitch": 64, "velocity": 60, "note_on_time": 6.165, "note_off_time": 6.568}, {"pitch": 67, "velocity": 64, "note_on_time": 6.579, "note_off_time": 6.806}, {"pitch": 60, "velocity": 64, "note_on_time": 6.816, "note_off_time": 7.044}, {"pitch": 60, "velocity": 62, "note_on_time": 7.231, "note_off_time": 7.297}, {"pitch": 60, "velocity": 68, "note_on_time": 7.45, "note_off_time": 7.54}, {"pitch": 60, "velocity": 64, "note_on_time": 7.663, "note_off_time": 7.832}]</notes><guidance name="Guidance Mode">None</guidance><error name="Error value">0.013596789473684017</error></trial></trials></MIDI>