<MIDI midiNo="2022_11_03-09_09_35"><target_notes><notes name="Note List">[{"pitch": 42, "velocity": 80, "note_on_time": 0.004, "note_off_time": 0.238}, {"pitch": 42, "velocity": 80, "note_on_time": 0.238, "note_off_time": 0.473}, {"pitch": 42, "velocity": 80, "note_on_time": 0.473, "note_off_time": 0.704}, {"pitch": 42, "velocity": 80, "note_on_time": 0.705, "note_off_time": 0.94}, {"pitch": 42, "velocity": 80, "note_on_time": 0.94, "note_off_time": 1.173}, {"pitch": 64, "velocity": 80, "note_on_time": 0.94, "note_off_time": 1.408}, {"pitch": 42, "velocity": 80, "note_on_time": 1.173, "note_off_time": 1.408}, {"pitch": 64, "velocity": 80, "note_on_time": 1.408, "note_off_time": 1.641}, {"pitch": 42, "velocity": 80, "note_on_time": 1.409, "note_off_time": 1.641}, {"pitch": 42, "velocity": 80, "note_on_time": 1.642, "note_off_time": 1.874}, {"pitch": 42, "velocity": 80, "note_on_time": 1.875, "note_off_time": 2.106}, {"pitch": 62, "velocity": 80, "note_on_time": 1.874, "note_off_time": 2.34}, {"pitch": 42, "velocity": 80, "note_on_time": 2.106, "note_off_time": 2.34}, {"pitch": 65, "velocity": 80, "note_on_time": 2.34, "note_off_time": 2.572}, {"pitch": 42, "velocity": 80, "note_on_time": 2.34, "note_off_time": 2.572}, {"pitch": 64, "velocity": 80, "note_on_time": 2.572, "note_off_time": 2.804}, {"pitch": 42, "velocity": 80, "note_on_time": 2.572, "note_off_time": 2.804}, {"pitch": 65, "velocity": 80, "note_on_time": 2.804, "note_off_time": 3.037}, {"pitch": 42, "velocity": 80, "note_on_time": 2.804, "note_off_time": 3.037}, {"pitch": 62, "velocity": 80, "note_on_time": 3.037, "note_off_time": 3.271}, {"pitch": 42, "velocity": 80, "note_on_time": 3.037, "note_off_time": 3.271}, {"pitch": 67, "velocity": 80, "note_on_time": 3.271, "note_off_time": 3.504}, {"pitch": 42, "velocity": 80, "note_on_time": 3.271, "note_off_time": 3.504}, {"pitch": 64, "velocity": 80, "note_on_time": 3.504, "note_off_time": 3.738}, {"pitch": 42, "velocity": 80, "note_on_time": 3.504, "note_off_time": 3.739}, {"pitch": 60, "velocity": 80, "note_on_time": 3.738, "note_off_time": 3.972}, {"pitch": 42, "velocity": 80, "note_on_time": 3.739, "note_off_time": 3.972}, {"pitch": 65, "velocity": 80, "note_on_time": 3.972, "note_off_time": 4.205}, {"pitch": 42, "velocity": 80, "note_on_time": 3.973, "note_off_time": 4.205}, {"pitch": 42, "velocity": 80, "note_on_time": 4.206, "note_off_time": 4.439}, {"pitch": 67, "velocity": 80, "note_on_time": 4.438, "note_off_time": 4.673}, {"pitch": 42, "velocity": 80, "note_on_time": 4.439, "note_off_time": 4.674}, {"pitch": 60, "velocity": 80, "note_on_time": 4.673, "note_off_time": 4.907}, {"pitch": 42, "velocity": 80, "note_on_time": 4.674, "note_off_time": 4.908}, {"pitch": 62, "velocity": 80, "note_on_time": 4.907, "note_off_time": 5.141}, {"pitch": 42, "velocity": 80, "note_on_time": 4.908, "note_off_time": 5.141}, {"pitch": 65, "velocity": 80, "note_on_time": 5.141, "note_off_time": 5.373}, {"pitch": 42, "velocity": 80, "note_on_time": 5.141, "note_off_time": 5.373}, {"pitch": 60, "velocity": 80, "note_on_time": 5.373, "note_off_time": 5.607}, {"pitch": 42, "velocity": 80, "note_on_time": 5.373, "note_off_time": 5.607}, {"pitch": 60, "velocity": 80, "note_on_time": 5.607, "note_off_time": 5.843}, {"pitch": 42, "velocity": 80, "note_on_time": 5.607, "note_off_time": 5.844}, {"pitch": 42, "velocity": 80, "note_on_time": 5.844, "note_off_time": 6.077}, {"pitch": 62, "velocity": 80, "note_on_time": 5.843, "note_off_time": 6.309}, {"pitch": 42, "velocity": 80, "note_on_time": 6.077, "note_off_time": 6.309}, {"pitch": 65, "velocity": 80, "note_on_time": 6.309, "note_off_time": 6.542}, {"pitch": 42, "velocity": 80, "note_on_time": 6.309, "note_off_time": 6.542}, {"pitch": 67, "velocity": 80, "note_on_time": 6.542, "note_off_time": 6.775}, {"pitch": 42, "velocity": 80, "note_on_time": 6.543, "note_off_time": 6.775}, {"pitch": 64, "velocity": 80, "note_on_time": 6.775, "note_off_time": 7.006}, {"pitch": 42, "velocity": 80, "note_on_time": 6.776, "note_off_time": 7.007}, {"pitch": 65, "velocity": 80, "note_on_time": 7.006, "note_off_time": 7.239}, {"pitch": 42, "velocity": 80, "note_on_time": 7.007, "note_off_time": 7.24}, {"pitch": 42, "velocity": 80, "note_on_time": 7.24, "note_off_time": 7.475}, {"pitch": 42, "velocity": 80, "note_on_time": 7.475, "note_off_time": 7.707}, {"pitch": 65, "velocity": 80, "note_on_time": 7.706, "note_off_time": 7.939}, {"pitch": 42, "velocity": 80, "note_on_time": 7.707, "note_off_time": 7.94}, {"pitch": 65, "velocity": 80, "note_on_time": 7.939, "note_off_time": 8.173}, {"pitch": 42, "velocity": 80, "note_on_time": 7.94, "note_off_time": 8.173}, {"pitch": 65, "velocity": 80, "note_on_time": 8.173, "note_off_time": 8.407}, {"pitch": 42, "velocity": 80, "note_on_time": 8.173, "note_off_time": 8.407}]</notes><options name="Option List">((4, 4), [0.5, 0.25], 3, 8, &lt;NoteRangePerHand.C_TO_G: 6&gt;, &lt;NoteRangePerHand.ONE_NOTE: 2&gt;, False, True, False, '265')</options></target_notes><trials><trial trial_no="1" timestamp="2022_11_03-09_09_25"><notes name="Played Notes">[{"pitch": 64, "velocity": 66, "note_on_time": 0.947, "note_off_time": 1.042}, {"pitch": 64, "velocity": 55, "note_on_time": 1.209, "note_off_time": 1.596}, {"pitch": 62, "velocity": 59, "note_on_time": 1.731, "note_off_time": 2.05}, {"pitch": 65, "velocity": 80, "note_on_time": 1.966, "note_off_time": 2.283}, {"pitch": 64, "velocity": 73, "note_on_time": 2.193, "note_off_time": 2.45}, {"pitch": 65, "velocity": 82, "note_on_time": 2.5, "note_off_time": 2.73}, {"pitch": 62, "velocity": 55, "note_on_time": 2.71, "note_off_time": 3.05}, {"pitch": 67, "velocity": 66, "note_on_time": 2.953, "note_off_time": 3.27}, {"pitch": 64, "velocity": 61, "note_on_time": 3.218, "note_off_time": 3.505}, {"pitch": 60, "velocity": 40, "note_on_time": 3.49, "note_off_time": 3.807}, {"pitch": 65, "velocity": 66, "note_on_time": 3.735, "note_off_time": 4.068}, {"pitch": 67, "velocity": 55, "note_on_time": 4.256, "note_off_time": 4.483}, {"pitch": 60, "velocity": 71, "note_on_time": 4.497, "note_off_time": 4.806}, {"pitch": 62, "velocity": 65, "note_on_time": 4.736, "note_off_time": 4.995}, {"pitch": 65, "velocity": 61, "note_on_time": 4.961, "note_off_time": 5.216}, {"pitch": 60, "velocity": 69, "note_on_time": 5.181, "note_off_time": 5.308}, {"pitch": 60, "velocity": 71, "note_on_time": 5.408, "note_off_time": 5.715}, {"pitch": 62, "velocity": 64, "note_on_time": 5.652, "note_off_time": 5.967}, {"pitch": 65, "velocity": 69, "note_on_time": 6.112, "note_off_time": 6.378}, {"pitch": 67, "velocity": 68, "note_on_time": 6.361, "note_off_time": 6.614}, {"pitch": 64, "velocity": 58, "note_on_time": 6.581, "note_off_time": 6.893}, {"pitch": 65, "velocity": 61, "note_on_time": 6.825, "note_off_time": 7.278}, {"pitch": 65, "velocity": 55, "note_on_time": 7.479, "note_off_time": 7.581}, {"pitch": 65, "velocity": 61, "note_on_time": 7.704, "note_off_time": 7.807}, {"pitch": 65, "velocity": 64, "note_on_time": 7.907, "note_off_time": 8.094}]</notes><guidance name="Guidance Mode">None</guidance><error name="Error value">0.041814772727272694</error></trial><trial trial_no="2" timestamp="2022_11_03-09_09_45"><notes name="Played Notes">[{"pitch": 64, "velocity": 62, "note_on_time": 0.984, "note_off_time": 1.102}, {"pitch": 64, "velocity": 58, "note_on_time": 1.252, "note_off_time": 1.629}, {"pitch": 62, "velocity": 62, "note_on_time": 1.76, "note_off_time": 2.097}, {"pitch": 65, "velocity": 69, "note_on_time": 2.004, "note_off_time": 2.305}, {"pitch": 64, "velocity": 71, "note_on_time": 2.255, "note_off_time": 2.546}, {"pitch": 65, "velocity": 78, "note_on_time": 2.471, "note_off_time": 2.724}, {"pitch": 62, "velocity": 60, "note_on_time": 2.704, "note_off_time": 3.024}, {"pitch": 67, "velocity": 58, "note_on_time": 2.932, "note_off_time": 3.246}, {"pitch": 64, "velocity": 59, "note_on_time": 3.171, "note_off_time": 3.531}, {"pitch": 60, "velocity": 63, "note_on_time": 3.48, "note_off_time": 3.816}, {"pitch": 65, "velocity": 57, "note_on_time": 3.765, "note_off_time": 4.087}, {"pitch": 67, "velocity": 52, "note_on_time": 4.314, "note_off_time": 4.565}, {"pitch": 60, "velocity": 51, "note_on_time": 4.574, "note_off_time": 4.88}, {"pitch": 62, "velocity": 64, "note_on_time": 4.837, "note_off_time": 5.113}, {"pitch": 65, "velocity": 62, "note_on_time": 5.075, "note_off_time": 5.355}, {"pitch": 60, "velocity": 64, "note_on_time": 5.337, "note_off_time": 5.481}, {"pitch": 60, "velocity": 49, "note_on_time": 5.624, "note_off_time": 5.986}, {"pitch": 62, "velocity": 57, "note_on_time": 5.914, "note_off_time": 6.244}, {"pitch": 65, "velocity": 59, "note_on_time": 6.426, "note_off_time": 6.67}, {"pitch": 67, "velocity": 61, "note_on_time": 6.674, "note_off_time": 6.939}, {"pitch": 64, "velocity": 58, "note_on_time": 6.928, "note_off_time": 7.244}, {"pitch": 65, "velocity": 61, "note_on_time": 7.184, "note_off_time": 7.749}, {"pitch": 65, "velocity": 58, "note_on_time": 8.013, "note_off_time": 8.131}, {"pitch": 65, "velocity": 60, "note_on_time": 8.268, "note_off_time": 8.375}]</notes><guidance name="Guidance Mode">None</guidance><error name="Error value">0.1080163636363636</error></trial><trial trial_no="3" timestamp="2022_11_03-09_10_05"><notes name="Played Notes">[{"pitch": 64, "velocity": 63, "note_on_time": 0.958, "note_off_time": 1.069}, {"pitch": 64, "velocity": 58, "note_on_time": 1.226, "note_off_time": 1.584}, {"pitch": 62, "velocity": 63, "note_on_time": 1.734, "note_off_time": 2.111}, {"pitch": 65, "velocity": 66, "note_on_time": 1.986, "note_off_time": 2.294}, {"pitch": 64, "velocity": 69, "note_on_time": 2.218, "note_off_time": 2.535}, {"pitch": 65, "velocity": 73, "note_on_time": 2.465, "note_off_time": 2.714}, {"pitch": 62, "velocity": 58, "note_on_time": 2.699, "note_off_time": 2.895}, {"pitch": 67, "velocity": 67, "note_on_time": 2.962, "note_off_time": 3.258}, {"pitch": 64, "velocity": 59, "note_on_time": 3.244, "note_off_time": 3.504}, {"pitch": 60, "velocity": 57, "note_on_time": 3.489, "note_off_time": 3.81}, {"pitch": 65, "velocity": 63, "note_on_time": 3.759, "note_off_time": 4.053}, {"pitch": 67, "velocity": 60, "note_on_time": 4.244, "note_off_time": 4.502}, {"pitch": 60, "velocity": 62, "note_on_time": 4.512, "note_off_time": 4.801}, {"pitch": 62, "velocity": 60, "note_on_time": 4.75, "note_off_time": 5.023}, {"pitch": 65, "velocity": 66, "note_on_time": 4.989, "note_off_time": 5.225}, {"pitch": 60, "velocity": 62, "note_on_time": 5.204, "note_off_time": 5.351}, {"pitch": 60, "velocity": 70, "note_on_time": 5.449, "note_off_time": 5.774}, {"pitch": 62, "velocity": 62, "note_on_time": 5.694, "note_off_time": 5.992}, {"pitch": 65, "velocity": 61, "note_on_time": 6.191, "note_off_time": 6.475}, {"pitch": 67, "velocity": 64, "note_on_time": 6.459, "note_off_time": 6.692}, {"pitch": 64, "velocity": 44, "note_on_time": 6.706, "note_off_time": 6.983}, {"pitch": 65, "velocity": 60, "note_on_time": 6.959, "note_off_time": 7.481}, {"pitch": 65, "velocity": 61, "note_on_time": 7.772, "note_off_time": 7.865}, {"pitch": 65, "velocity": 72, "note_on_time": 8.014, "note_off_time": 8.118}, {"pitch": 65, "velocity": 62, "note_on_time": 8.225, "note_off_time": 8.369}]</notes><guidance name="Guidance Mode">None</guidance><error name="Error value">0.048777954545454506</error></trial></trials></MIDI>