<MIDI midiNo="2022_11_21-18_24_50"><target_notes><notes name="Note List">[{"pitch": 42, "velocity": 80, "note_on_time": 0.004, "note_off_time": 0.349}, {"pitch": 42, "velocity": 80, "note_on_time": 0.349, "note_off_time": 0.693}, {"pitch": 42, "velocity": 80, "note_on_time": 0.694, "note_off_time": 1.034}, {"pitch": 42, "velocity": 80, "note_on_time": 1.035, "note_off_time": 1.378}, {"pitch": 60, "velocity": 80, "note_on_time": 1.377, "note_off_time": 1.721}, {"pitch": 42, "velocity": 80, "note_on_time": 1.378, "note_off_time": 1.721}, {"pitch": 42, "velocity": 80, "note_on_time": 1.722, "note_off_time": 2.067}, {"pitch": 62, "velocity": 80, "note_on_time": 1.721, "note_off_time": 2.411}, {"pitch": 42, "velocity": 80, "note_on_time": 2.067, "note_off_time": 2.411}, {"pitch": 64, "velocity": 80, "note_on_time": 2.411, "note_off_time": 2.751}, {"pitch": 42, "velocity": 80, "note_on_time": 2.411, "note_off_time": 2.751}, {"pitch": 62, "velocity": 80, "note_on_time": 2.751, "note_off_time": 3.095}, {"pitch": 42, "velocity": 80, "note_on_time": 2.751, "note_off_time": 3.095}, {"pitch": 42, "velocity": 80, "note_on_time": 3.095, "note_off_time": 3.436}, {"pitch": 62, "velocity": 80, "note_on_time": 3.095, "note_off_time": 3.779}, {"pitch": 42, "velocity": 80, "note_on_time": 3.436, "note_off_time": 3.779}, {"pitch": 42, "velocity": 80, "note_on_time": 3.779, "note_off_time": 4.121}, {"pitch": 67, "velocity": 80, "note_on_time": 4.121, "note_off_time": 4.463}, {"pitch": 42, "velocity": 80, "note_on_time": 4.121, "note_off_time": 4.463}, {"pitch": 67, "velocity": 80, "note_on_time": 4.463, "note_off_time": 4.805}, {"pitch": 42, "velocity": 80, "note_on_time": 4.463, "note_off_time": 4.805}, {"pitch": 64, "velocity": 80, "note_on_time": 4.805, "note_off_time": 5.148}, {"pitch": 42, "velocity": 80, "note_on_time": 4.805, "note_off_time": 5.148}, {"pitch": 62, "velocity": 80, "note_on_time": 5.148, "note_off_time": 5.492}, {"pitch": 42, "velocity": 80, "note_on_time": 5.148, "note_off_time": 5.492}, {"pitch": 65, "velocity": 80, "note_on_time": 5.492, "note_off_time": 5.834}, {"pitch": 42, "velocity": 80, "note_on_time": 5.492, "note_off_time": 5.834}, {"pitch": 60, "velocity": 80, "note_on_time": 5.834, "note_off_time": 6.178}, {"pitch": 42, "velocity": 80, "note_on_time": 5.834, "note_off_time": 6.178}, {"pitch": 60, "velocity": 80, "note_on_time": 6.178, "note_off_time": 6.52}, {"pitch": 42, "velocity": 80, "note_on_time": 6.179, "note_off_time": 6.52}, {"pitch": 67, "velocity": 80, "note_on_time": 6.52, "note_off_time": 6.863}, {"pitch": 42, "velocity": 80, "note_on_time": 6.521, "note_off_time": 6.863}, {"pitch": 64, "velocity": 80, "note_on_time": 6.863, "note_off_time": 7.206}, {"pitch": 42, "velocity": 80, "note_on_time": 6.863, "note_off_time": 7.206}, {"pitch": 65, "velocity": 80, "note_on_time": 7.206, "note_off_time": 7.547}, {"pitch": 42, "velocity": 80, "note_on_time": 7.206, "note_off_time": 7.547}, {"pitch": 60, "velocity": 80, "note_on_time": 7.547, "note_off_time": 7.888}, {"pitch": 42, "velocity": 80, "note_on_time": 7.547, "note_off_time": 7.888}, {"pitch": 65, "velocity": 80, "note_on_time": 7.888, "note_off_time": 8.231}, {"pitch": 42, "velocity": 80, "note_on_time": 7.888, "note_off_time": 8.231}, {"pitch": 67, "velocity": 80, "note_on_time": 8.231, "note_off_time": 8.576}, {"pitch": 42, "velocity": 80, "note_on_time": 8.231, "note_off_time": 8.576}, {"pitch": 62, "velocity": 80, "note_on_time": 8.576, "note_off_time": 8.92}, {"pitch": 42, "velocity": 80, "note_on_time": 8.577, "note_off_time": 8.92}, {"pitch": 62, "velocity": 80, "note_on_time": 8.92, "note_off_time": 9.262}, {"pitch": 42, "velocity": 80, "note_on_time": 8.921, "note_off_time": 9.262}, {"pitch": 60, "velocity": 80, "note_on_time": 9.262, "note_off_time": 9.603}, {"pitch": 42, "velocity": 80, "note_on_time": 9.262, "note_off_time": 9.603}, {"pitch": 65, "velocity": 80, "note_on_time": 9.603, "note_off_time": 9.947}, {"pitch": 42, "velocity": 80, "note_on_time": 9.604, "note_off_time": 9.947}, {"pitch": 65, "velocity": 80, "note_on_time": 9.947, "note_off_time": 10.287}, {"pitch": 42, "velocity": 80, "note_on_time": 9.947, "note_off_time": 10.287}, {"pitch": 60, "velocity": 80, "note_on_time": 10.287, "note_off_time": 10.63}, {"pitch": 42, "velocity": 80, "note_on_time": 10.288, "note_off_time": 10.631}, {"pitch": 62, "velocity": 80, "note_on_time": 10.63, "note_off_time": 10.972}, {"pitch": 42, "velocity": 80, "note_on_time": 10.631, "note_off_time": 10.972}, {"pitch": 42, "velocity": 80, "note_on_time": 10.973, "note_off_time": 11.316}, {"pitch": 62, "velocity": 80, "note_on_time": 11.316, "note_off_time": 11.66}, {"pitch": 42, "velocity": 80, "note_on_time": 11.316, "note_off_time": 11.66}, {"pitch": 62, "velocity": 80, "note_on_time": 11.66, "note_off_time": 12.002}, {"pitch": 42, "velocity": 80, "note_on_time": 11.66, "note_off_time": 12.002}, {"pitch": 62, "velocity": 80, "note_on_time": 12.002, "note_off_time": 12.344}, {"pitch": 42, "velocity": 80, "note_on_time": 12.002, "note_off_time": 12.344}]</notes><options name="Option List">((4, 4), [0.5, 0.25], 3, 8, &lt;NoteRangePerHand.C_TO_G: 6&gt;, &lt;NoteRangePerHand.ONE_NOTE: 2&gt;, False, True, False, 182)</options></target_notes><trials><trial trial_no="1" timestamp="2022_11_21-18_24_36"><notes name="Played Notes">[{"pitch": 60, "velocity": 89, "note_on_time": 1.385, "note_off_time": 1.694}, {"pitch": 62, "velocity": 98, "note_on_time": 1.733, "note_off_time": 2.133}, {"pitch": 64, "velocity": 105, "note_on_time": 2.461, "note_off_time": 2.801}, {"pitch": 62, "velocity": 94, "note_on_time": 2.767, "note_off_time": 2.963}, {"pitch": 62, "velocity": 102, "note_on_time": 3.125, "note_off_time": 3.561}, {"pitch": 67, "velocity": 101, "note_on_time": 4.316, "note_off_time": 4.393}, {"pitch": 67, "velocity": 96, "note_on_time": 4.689, "note_off_time": 5.107}, {"pitch": 64, "velocity": 91, "note_on_time": 5.096, "note_off_time": 5.459}, {"pitch": 62, "velocity": 84, "note_on_time": 5.461, "note_off_time": 5.84}, {"pitch": 65, "velocity": 91, "note_on_time": 5.842, "note_off_time": 6.153}, {"pitch": 60, "velocity": 99, "note_on_time": 6.169, "note_off_time": 6.239}, {"pitch": 60, "velocity": 101, "note_on_time": 6.543, "note_off_time": 6.884}, {"pitch": 67, "velocity": 83, "note_on_time": 6.861, "note_off_time": 7.208}, {"pitch": 64, "velocity": 88, "note_on_time": 7.211, "note_off_time": 7.543}, {"pitch": 65, "velocity": 88, "note_on_time": 7.544, "note_off_time": 7.882}, {"pitch": 60, "velocity": 88, "note_on_time": 7.899, "note_off_time": 8.255}, {"pitch": 65, "velocity": 90, "note_on_time": 8.248, "note_off_time": 8.554}, {"pitch": 67, "velocity": 83, "note_on_time": 8.567, "note_off_time": 8.903}, {"pitch": 62, "velocity": 99, "note_on_time": 8.913, "note_off_time": 8.976}, {"pitch": 62, "velocity": 94, "note_on_time": 9.247, "note_off_time": 9.611}, {"pitch": 60, "velocity": 90, "note_on_time": 9.59, "note_off_time": 9.968}, {"pitch": 65, "velocity": 87, "note_on_time": 9.934, "note_off_time": 10.009}, {"pitch": 65, "velocity": 100, "note_on_time": 10.285, "note_off_time": 10.611}, {"pitch": 60, "velocity": 87, "note_on_time": 10.627, "note_off_time": 10.973}, {"pitch": 62, "velocity": 94, "note_on_time": 10.984, "note_off_time": 11.14}, {"pitch": 62, "velocity": 103, "note_on_time": 11.695, "note_off_time": 11.757}, {"pitch": 62, "velocity": 106, "note_on_time": 12.016, "note_off_time": 12.078}]</notes><guidance name="Guidance Mode">None</guidance><error name="Error value">0.08741079999999993</error></trial><trial trial_no="2" timestamp="2022_11_21-18_24_58"><notes name="Played Notes">[{"pitch": 60, "velocity": 92, "note_on_time": 1.371, "note_off_time": 1.723}, {"pitch": 62, "velocity": 96, "note_on_time": 1.712, "note_off_time": 1.957}, {"pitch": 64, "velocity": 83, "note_on_time": 2.75, "note_off_time": 3.113}, {"pitch": 62, "velocity": 90, "note_on_time": 3.089, "note_off_time": 3.298}, {"pitch": 62, "velocity": 98, "note_on_time": 3.457, "note_off_time": 3.854}, {"pitch": 67, "velocity": 89, "note_on_time": 4.793, "note_off_time": 4.868}, {"pitch": 67, "velocity": 97, "note_on_time": 5.128, "note_off_time": 5.486}, {"pitch": 65, "velocity": 94, "note_on_time": 5.459, "note_off_time": 5.816}, {"pitch": 64, "velocity": 92, "note_on_time": 5.799, "note_off_time": 5.888}, {"pitch": 64, "velocity": 92, "note_on_time": 6.155, "note_off_time": 6.483}, {"pitch": 65, "velocity": 85, "note_on_time": 6.49, "note_off_time": 6.793}, {"pitch": 60, "velocity": 95, "note_on_time": 6.822, "note_off_time": 6.907}, {"pitch": 60, "velocity": 94, "note_on_time": 7.213, "note_off_time": 7.56}, {"pitch": 67, "velocity": 84, "note_on_time": 7.541, "note_off_time": 7.893}, {"pitch": 64, "velocity": 84, "note_on_time": 7.887, "note_off_time": 8.102}, {"pitch": 62, "velocity": 83, "note_on_time": 8.199, "note_off_time": 8.545}, {"pitch": 64, "velocity": 78, "note_on_time": 8.549, "note_off_time": 8.895}, {"pitch": 60, "velocity": 85, "note_on_time": 8.915, "note_off_time": 9.264}, {"pitch": 65, "velocity": 78, "note_on_time": 9.246, "note_off_time": 9.78}, {"pitch": 62, "velocity": 91, "note_on_time": 9.825, "note_off_time": 9.904}, {"pitch": 62, "velocity": 88, "note_on_time": 10.243, "note_off_time": 10.619}, {"pitch": 60, "velocity": 89, "note_on_time": 10.61, "note_off_time": 10.956}, {"pitch": 65, "velocity": 85, "note_on_time": 10.932, "note_off_time": 11.019}, {"pitch": 65, "velocity": 93, "note_on_time": 11.291, "note_off_time": 11.601}, {"pitch": 60, "velocity": 89, "note_on_time": 11.635, "note_off_time": 11.982}, {"pitch": 62, "velocity": 91, "note_on_time": 11.97, "note_off_time": 12.12}]</notes><guidance name="Guidance Mode">None</guidance><error name="Error value">0.7832912000000001</error></trial><trial trial_no="3" timestamp="2022_11_21-18_25_25"><notes name="Played Notes">[{"pitch": 60, "velocity": 82, "note_on_time": 1.38, "note_off_time": 1.733}, {"pitch": 62, "velocity": 92, "note_on_time": 1.718, "note_off_time": 2.027}, {"pitch": 64, "velocity": 95, "note_on_time": 2.624, "note_off_time": 3.017}, {"pitch": 62, "velocity": 90, "note_on_time": 3.014, "note_off_time": 3.14}, {"pitch": 62, "velocity": 98, "note_on_time": 3.392, "note_off_time": 3.718}, {"pitch": 67, "velocity": 98, "note_on_time": 4.438, "note_off_time": 4.511}, {"pitch": 67, "velocity": 98, "note_on_time": 4.776, "note_off_time": 5.16}, {"pitch": 65, "velocity": 87, "note_on_time": 5.141, "note_off_time": 5.468}, {"pitch": 64, "velocity": 85, "note_on_time": 5.471, "note_off_time": 5.813}, {"pitch": 65, "velocity": 87, "note_on_time": 5.852, "note_off_time": 6.126}, {"pitch": 60, "velocity": 81, "note_on_time": 6.175, "note_off_time": 6.292}, {"pitch": 60, "velocity": 98, "note_on_time": 6.544, "note_off_time": 6.874}, {"pitch": 67, "velocity": 84, "note_on_time": 6.858, "note_off_time": 7.223}, {"pitch": 64, "velocity": 91, "note_on_time": 7.202, "note_off_time": 7.572}, {"pitch": 67, "velocity": 85, "note_on_time": 7.581, "note_off_time": 7.842}, {"pitch": 65, "velocity": 91, "note_on_time": 7.896, "note_off_time": 8.162}, {"pitch": 60, "velocity": 91, "note_on_time": 8.22, "note_off_time": 8.578}, {"pitch": 64, "velocity": 87, "note_on_time": 8.577, "note_off_time": 8.818}, {"pitch": 65, "velocity": 82, "note_on_time": 8.869, "note_off_time": 9.245}, {"pitch": 62, "velocity": 85, "note_on_time": 9.24, "note_off_time": 9.326}, {"pitch": 62, "velocity": 90, "note_on_time": 9.584, "note_off_time": 9.933}, {"pitch": 60, "velocity": 93, "note_on_time": 9.933, "note_off_time": 10.27}, {"pitch": 65, "velocity": 88, "note_on_time": 10.273, "note_off_time": 10.35}, {"pitch": 65, "velocity": 100, "note_on_time": 10.63, "note_off_time": 10.944}, {"pitch": 60, "velocity": 84, "note_on_time": 10.961, "note_off_time": 11.304}, {"pitch": 62, "velocity": 81, "note_on_time": 11.308, "note_off_time": 11.468}, {"pitch": 64, "velocity": 94, "note_on_time": 12.048, "note_off_time": 12.118}]</notes><guidance name="Guidance Mode">None</guidance><error name="Error value">0.5793048000000001</error></trial></trials></MIDI>