<MIDI midiNo="2022_10_27-14_16_05"><target_notes><notes name="Note List">[{"pitch": 42, "velocity": 80, "note_on_time": 0.004, "note_off_time": 0.291}, {"pitch": 42, "velocity": 80, "note_on_time": 0.291, "note_off_time": 0.571}, {"pitch": 42, "velocity": 80, "note_on_time": 0.571, "note_off_time": 0.866}, {"pitch": 42, "velocity": 80, "note_on_time": 0.866, "note_off_time": 1.149}, {"pitch": 64, "velocity": 80, "note_on_time": 1.149, "note_off_time": 1.444}, {"pitch": 42, "velocity": 80, "note_on_time": 1.149, "note_off_time": 1.444}, {"pitch": 60, "velocity": 80, "note_on_time": 1.444, "note_off_time": 1.727}, {"pitch": 42, "velocity": 80, "note_on_time": 1.445, "note_off_time": 1.728}, {"pitch": 64, "velocity": 80, "note_on_time": 1.727, "note_off_time": 2.022}, {"pitch": 42, "velocity": 80, "note_on_time": 1.728, "note_off_time": 2.022}, {"pitch": 65, "velocity": 80, "note_on_time": 2.022, "note_off_time": 2.304}, {"pitch": 42, "velocity": 80, "note_on_time": 2.023, "note_off_time": 2.304}, {"pitch": 60, "velocity": 80, "note_on_time": 2.304, "note_off_time": 2.599}, {"pitch": 42, "velocity": 80, "note_on_time": 2.304, "note_off_time": 2.6}, {"pitch": 67, "velocity": 80, "note_on_time": 2.599, "note_off_time": 2.894}, {"pitch": 42, "velocity": 80, "note_on_time": 2.6, "note_off_time": 2.894}, {"pitch": 62, "velocity": 80, "note_on_time": 2.894, "note_off_time": 3.189}, {"pitch": 42, "velocity": 80, "note_on_time": 2.894, "note_off_time": 3.19}, {"pitch": 60, "velocity": 80, "note_on_time": 3.189, "note_off_time": 3.485}, {"pitch": 42, "velocity": 80, "note_on_time": 3.19, "note_off_time": 3.485}, {"pitch": 65, "velocity": 80, "note_on_time": 3.485, "note_off_time": 3.78}, {"pitch": 42, "velocity": 80, "note_on_time": 3.485, "note_off_time": 3.781}, {"pitch": 64, "velocity": 80, "note_on_time": 3.78, "note_off_time": 4.075}, {"pitch": 42, "velocity": 80, "note_on_time": 3.781, "note_off_time": 4.075}, {"pitch": 62, "velocity": 80, "note_on_time": 4.075, "note_off_time": 4.37}, {"pitch": 42, "velocity": 80, "note_on_time": 4.076, "note_off_time": 4.37}, {"pitch": 60, "velocity": 80, "note_on_time": 4.37, "note_off_time": 4.665}, {"pitch": 42, "velocity": 80, "note_on_time": 4.371, "note_off_time": 4.665}, {"pitch": 60, "velocity": 80, "note_on_time": 4.665, "note_off_time": 4.96}, {"pitch": 42, "velocity": 80, "note_on_time": 4.666, "note_off_time": 4.96}, {"pitch": 42, "velocity": 80, "note_on_time": 4.96, "note_off_time": 5.242}, {"pitch": 60, "velocity": 80, "note_on_time": 4.96, "note_off_time": 5.523}, {"pitch": 42, "velocity": 80, "note_on_time": 5.242, "note_off_time": 5.523}, {"pitch": 65, "velocity": 80, "note_on_time": 5.523, "note_off_time": 5.819}, {"pitch": 42, "velocity": 80, "note_on_time": 5.524, "note_off_time": 5.819}, {"pitch": 67, "velocity": 80, "note_on_time": 5.819, "note_off_time": 6.114}, {"pitch": 42, "velocity": 80, "note_on_time": 5.82, "note_off_time": 6.115}, {"pitch": 65, "velocity": 80, "note_on_time": 6.114, "note_off_time": 6.41}, {"pitch": 42, "velocity": 80, "note_on_time": 6.115, "note_off_time": 6.41}, {"pitch": 42, "velocity": 80, "note_on_time": 6.41, "note_off_time": 6.703}, {"pitch": 64, "velocity": 80, "note_on_time": 6.41, "note_off_time": 6.998}, {"pitch": 42, "velocity": 80, "note_on_time": 6.703, "note_off_time": 6.998}, {"pitch": 65, "velocity": 80, "note_on_time": 6.998, "note_off_time": 7.292}, {"pitch": 42, "velocity": 80, "note_on_time": 6.998, "note_off_time": 7.293}, {"pitch": 64, "velocity": 80, "note_on_time": 7.292, "note_off_time": 7.587}, {"pitch": 42, "velocity": 80, "note_on_time": 7.293, "note_off_time": 7.588}, {"pitch": 62, "velocity": 80, "note_on_time": 7.587, "note_off_time": 7.883}, {"pitch": 42, "velocity": 80, "note_on_time": 7.588, "note_off_time": 7.883}, {"pitch": 60, "velocity": 80, "note_on_time": 7.883, "note_off_time": 8.176}, {"pitch": 42, "velocity": 80, "note_on_time": 7.883, "note_off_time": 8.177}, {"pitch": 42, "velocity": 80, "note_on_time": 8.177, "note_off_time": 8.457}, {"pitch": 65, "velocity": 80, "note_on_time": 8.176, "note_off_time": 8.753}, {"pitch": 42, "velocity": 80, "note_on_time": 8.458, "note_off_time": 8.753}, {"pitch": 42, "velocity": 80, "note_on_time": 8.753, "note_off_time": 9.048}, {"pitch": 42, "velocity": 80, "note_on_time": 9.049, "note_off_time": 9.344}, {"pitch": 42, "velocity": 80, "note_on_time": 9.345, "note_off_time": 9.641}, {"pitch": 65, "velocity": 80, "note_on_time": 9.64, "note_off_time": 9.935}, {"pitch": 42, "velocity": 80, "note_on_time": 9.641, "note_off_time": 9.935}, {"pitch": 65, "velocity": 80, "note_on_time": 9.935, "note_off_time": 10.231}, {"pitch": 42, "velocity": 80, "note_on_time": 9.936, "note_off_time": 10.232}, {"pitch": 65, "velocity": 80, "note_on_time": 10.231, "note_off_time": 10.514}, {"pitch": 42, "velocity": 80, "note_on_time": 10.233, "note_off_time": 10.514}]</notes><options name="Option List">((4, 4), [0.5, 0.25], 3, 8, &lt;NoteRangePerHand.C_TO_G: 6&gt;, &lt;NoteRangePerHand.ONE_NOTE: 2&gt;, False, True, False, 215)</options></target_notes><trials><trial trial_no="1" timestamp="2022_10_27-14_15_53"><notes name="Played Notes">[{"pitch": 76, "velocity": 75, "note_on_time": 1.196, "note_off_time": 1.498}, {"pitch": 72, "velocity": 66, "note_on_time": 1.492, "note_off_time": 1.743}, {"pitch": 76, "velocity": 64, "note_on_time": 1.814, "note_off_time": 2.082}, {"pitch": 77, "velocity": 68, "note_on_time": 2.087, "note_off_time": 2.337}, {"pitch": 72, "velocity": 66, "note_on_time": 2.36, "note_off_time": 2.612}, {"pitch": 79, "velocity": 70, "note_on_time": 2.625, "note_off_time": 2.954}, {"pitch": 76, "velocity": 72, "note_on_time": 2.932, "note_off_time": 3.057}, {"pitch": 74, "velocity": 51, "note_on_time": 3.094, "note_off_time": 3.367}, {"pitch": 72, "velocity": 74, "note_on_time": 3.399, "note_off_time": 3.578}, {"pitch": 77, "velocity": 64, "note_on_time": 3.624, "note_off_time": 3.891}, {"pitch": 76, "velocity": 67, "note_on_time": 3.919, "note_off_time": 4.201}, {"pitch": 74, "velocity": 57, "note_on_time": 4.222, "note_off_time": 4.455}, {"pitch": 72, "velocity": 59, "note_on_time": 4.509, "note_off_time": 4.629}, {"pitch": 72, "velocity": 69, "note_on_time": 4.825, "note_off_time": 4.933}, {"pitch": 72, "velocity": 81, "note_on_time": 5.159, "note_off_time": 5.577}, {"pitch": 77, "velocity": 73, "note_on_time": 5.809, "note_off_time": 6.023}, {"pitch": 79, "velocity": 69, "note_on_time": 6.124, "note_off_time": 6.34}, {"pitch": 77, "velocity": 74, "note_on_time": 6.428, "note_off_time": 6.685}, {"pitch": 76, "velocity": 72, "note_on_time": 6.756, "note_off_time": 7.192}, {"pitch": 77, "velocity": 72, "note_on_time": 7.339, "note_off_time": 7.617}, {"pitch": 76, "velocity": 65, "note_on_time": 7.652, "note_off_time": 7.952}, {"pitch": 74, "velocity": 64, "note_on_time": 7.944, "note_off_time": 8.182}, {"pitch": 72, "velocity": 68, "note_on_time": 8.232, "note_off_time": 8.433}, {"pitch": 77, "velocity": 74, "note_on_time": 8.552, "note_off_time": 8.997}, {"pitch": 77, "velocity": 74, "note_on_time": 10.208, "note_off_time": 10.314}]</notes><guidance name="Guidance Mode">None</guidance><error name="Error value">1.260695652173913</error></trial><trial trial_no="2" timestamp="2022_10_27-14_16_14"><notes name="Played Notes">[{"pitch": 76, "velocity": 70, "note_on_time": 1.194, "note_off_time": 1.504}, {"pitch": 72, "velocity": 61, "note_on_time": 1.495, "note_off_time": 1.752}, {"pitch": 76, "velocity": 67, "note_on_time": 1.819, "note_off_time": 2.079}, {"pitch": 77, "velocity": 67, "note_on_time": 2.093, "note_off_time": 2.372}, {"pitch": 72, "velocity": 70, "note_on_time": 2.395, "note_off_time": 2.686}, {"pitch": 79, "velocity": 70, "note_on_time": 2.682, "note_off_time": 3.042}, {"pitch": 74, "velocity": 71, "note_on_time": 2.998, "note_off_time": 3.248}, {"pitch": 72, "velocity": 63, "note_on_time": 3.28, "note_off_time": 3.557}, {"pitch": 77, "velocity": 77, "note_on_time": 3.597, "note_off_time": 3.891}, {"pitch": 76, "velocity": 65, "note_on_time": 3.892, "note_off_time": 4.234}, {"pitch": 74, "velocity": 66, "note_on_time": 4.219, "note_off_time": 4.475}, {"pitch": 72, "velocity": 63, "note_on_time": 4.511, "note_off_time": 4.647}, {"pitch": 72, "velocity": 68, "note_on_time": 4.858, "note_off_time": 4.985}, {"pitch": 72, "velocity": 81, "note_on_time": 5.223, "note_off_time": 5.692}, {"pitch": 77, "velocity": 74, "note_on_time": 5.901, "note_off_time": 6.101}, {"pitch": 79, "velocity": 74, "note_on_time": 6.218, "note_off_time": 6.439}, {"pitch": 77, "velocity": 70, "note_on_time": 6.49, "note_off_time": 6.794}, {"pitch": 76, "velocity": 72, "note_on_time": 6.831, "note_off_time": 7.402}, {"pitch": 77, "velocity": 68, "note_on_time": 7.485, "note_off_time": 7.855}, {"pitch": 76, "velocity": 63, "note_on_time": 7.856, "note_off_time": 8.213}, {"pitch": 74, "velocity": 69, "note_on_time": 8.185, "note_off_time": 8.437}, {"pitch": 72, "velocity": 67, "note_on_time": 8.487, "note_off_time": 8.757}, {"pitch": 77, "velocity": 81, "note_on_time": 8.822, "note_off_time": 9.317}]</notes><guidance name="Guidance Mode">None</guidance><error name="Error value">1.231973</error></trial><trial trial_no="3" timestamp="2022_10_27-14_16_52"><notes name="Played Notes">[{"pitch": 76, "velocity": 69, "note_on_time": 1.177, "note_off_time": 1.473}, {"pitch": 72, "velocity": 62, "note_on_time": 1.472, "note_off_time": 1.7}, {"pitch": 76, "velocity": 64, "note_on_time": 1.766, "note_off_time": 2.021}, {"pitch": 77, "velocity": 61, "note_on_time": 2.057, "note_off_time": 2.489}, {"pitch": 72, "velocity": 61, "note_on_time": 2.377, "note_off_time": 2.618}, {"pitch": 79, "velocity": 62, "note_on_time": 2.64, "note_off_time": 2.979}, {"pitch": 74, "velocity": 60, "note_on_time": 2.952, "note_off_time": 3.181}, {"pitch": 72, "velocity": 61, "note_on_time": 3.236, "note_off_time": 3.462}, {"pitch": 77, "velocity": 66, "note_on_time": 3.516, "note_off_time": 3.822}, {"pitch": 76, "velocity": 69, "note_on_time": 3.816, "note_off_time": 4.098}, {"pitch": 74, "velocity": 65, "note_on_time": 4.092, "note_off_time": 4.329}, {"pitch": 72, "velocity": 67, "note_on_time": 4.359, "note_off_time": 4.488}, {"pitch": 72, "velocity": 70, "note_on_time": 4.67, "note_off_time": 4.789}, {"pitch": 72, "velocity": 80, "note_on_time": 4.999, "note_off_time": 5.493}, {"pitch": 77, "velocity": 74, "note_on_time": 5.57, "note_off_time": 5.76}, {"pitch": 79, "velocity": 77, "note_on_time": 5.862, "note_off_time": 6.103}, {"pitch": 77, "velocity": 79, "note_on_time": 6.147, "note_off_time": 6.356}, {"pitch": 76, "velocity": 61, "note_on_time": 6.47, "note_off_time": 6.889}, {"pitch": 77, "velocity": 70, "note_on_time": 7.049, "note_off_time": 7.322}, {"pitch": 76, "velocity": 63, "note_on_time": 7.347, "note_off_time": 7.623}, {"pitch": 74, "velocity": 63, "note_on_time": 7.629, "note_off_time": 7.875}, {"pitch": 72, "velocity": 67, "note_on_time": 7.913, "note_off_time": 8.121}, {"pitch": 77, "velocity": 72, "note_on_time": 8.225, "note_off_time": 8.64}, {"pitch": 77, "velocity": 74, "note_on_time": 9.627, "note_off_time": 9.752}, {"pitch": 77, "velocity": 74, "note_on_time": 9.924, "note_off_time": 10.04}, {"pitch": 77, "velocity": 79, "note_on_time": 10.216, "note_off_time": 10.297}]</notes><guidance name="Guidance Mode">None</guidance><error name="Error value">1.1500119565217393</error></trial></trials></MIDI>