<MIDI midiNo="2022_11_13-12_52_28"><target_notes><notes name="Note List">[{"pitch": 42, "velocity": 80, "note_on_time": 0.003, "note_off_time": 0.231}, {"pitch": 42, "velocity": 80, "note_on_time": 0.231, "note_off_time": 0.449}, {"pitch": 42, "velocity": 80, "note_on_time": 0.449, "note_off_time": 0.667}, {"pitch": 42, "velocity": 80, "note_on_time": 0.667, "note_off_time": 0.885}, {"pitch": 42, "velocity": 80, "note_on_time": 0.885, "note_off_time": 1.106}, {"pitch": 60, "velocity": 80, "note_on_time": 0.885, "note_off_time": 1.323}, {"pitch": 42, "velocity": 80, "note_on_time": 1.106, "note_off_time": 1.323}, {"pitch": 42, "velocity": 80, "note_on_time": 1.323, "note_off_time": 1.541}, {"pitch": 60, "velocity": 80, "note_on_time": 1.541, "note_off_time": 1.761}, {"pitch": 42, "velocity": 80, "note_on_time": 1.541, "note_off_time": 1.761}, {"pitch": 60, "velocity": 80, "note_on_time": 1.761, "note_off_time": 1.978}, {"pitch": 42, "velocity": 80, "note_on_time": 1.761, "note_off_time": 1.978}, {"pitch": 42, "velocity": 80, "note_on_time": 1.978, "note_off_time": 2.197}, {"pitch": 64, "velocity": 80, "note_on_time": 1.978, "note_off_time": 2.417}, {"pitch": 42, "velocity": 80, "note_on_time": 2.197, "note_off_time": 2.417}, {"pitch": 42, "velocity": 80, "note_on_time": 2.417, "note_off_time": 2.635}, {"pitch": 65, "velocity": 80, "note_on_time": 2.635, "note_off_time": 2.851}, {"pitch": 42, "velocity": 80, "note_on_time": 2.635, "note_off_time": 2.851}, {"pitch": 62, "velocity": 80, "note_on_time": 2.851, "note_off_time": 3.069}, {"pitch": 42, "velocity": 80, "note_on_time": 2.851, "note_off_time": 3.069}, {"pitch": 65, "velocity": 80, "note_on_time": 3.069, "note_off_time": 3.287}, {"pitch": 42, "velocity": 80, "note_on_time": 3.069, "note_off_time": 3.287}, {"pitch": 64, "velocity": 80, "note_on_time": 3.287, "note_off_time": 3.505}, {"pitch": 42, "velocity": 80, "note_on_time": 3.287, "note_off_time": 3.505}, {"pitch": 64, "velocity": 80, "note_on_time": 3.505, "note_off_time": 3.726}, {"pitch": 42, "velocity": 80, "note_on_time": 3.505, "note_off_time": 3.726}, {"pitch": 64, "velocity": 80, "note_on_time": 3.726, "note_off_time": 3.944}, {"pitch": 42, "velocity": 80, "note_on_time": 3.726, "note_off_time": 3.944}, {"pitch": 65, "velocity": 80, "note_on_time": 3.944, "note_off_time": 4.162}, {"pitch": 42, "velocity": 80, "note_on_time": 3.944, "note_off_time": 4.162}, {"pitch": 60, "velocity": 80, "note_on_time": 4.162, "note_off_time": 4.382}, {"pitch": 42, "velocity": 80, "note_on_time": 4.162, "note_off_time": 4.382}, {"pitch": 67, "velocity": 80, "note_on_time": 4.382, "note_off_time": 4.599}, {"pitch": 42, "velocity": 80, "note_on_time": 4.382, "note_off_time": 4.599}, {"pitch": 62, "velocity": 80, "note_on_time": 4.599, "note_off_time": 4.818}, {"pitch": 42, "velocity": 80, "note_on_time": 4.599, "note_off_time": 4.818}, {"pitch": 60, "velocity": 80, "note_on_time": 4.818, "note_off_time": 5.035}, {"pitch": 42, "velocity": 80, "note_on_time": 4.818, "note_off_time": 5.035}, {"pitch": 42, "velocity": 80, "note_on_time": 5.035, "note_off_time": 5.255}, {"pitch": 42, "velocity": 80, "note_on_time": 5.255, "note_off_time": 5.472}, {"pitch": 62, "velocity": 80, "note_on_time": 5.255, "note_off_time": 5.689}, {"pitch": 42, "velocity": 80, "note_on_time": 5.472, "note_off_time": 5.689}, {"pitch": 42, "velocity": 80, "note_on_time": 5.689, "note_off_time": 5.907}, {"pitch": 42, "velocity": 80, "note_on_time": 5.907, "note_off_time": 6.126}, {"pitch": 64, "velocity": 80, "note_on_time": 6.126, "note_off_time": 6.345}, {"pitch": 42, "velocity": 80, "note_on_time": 6.126, "note_off_time": 6.345}, {"pitch": 42, "velocity": 80, "note_on_time": 6.345, "note_off_time": 6.565}, {"pitch": 42, "velocity": 80, "note_on_time": 6.565, "note_off_time": 6.784}, {"pitch": 64, "velocity": 80, "note_on_time": 6.784, "note_off_time": 7.003}, {"pitch": 42, "velocity": 80, "note_on_time": 6.784, "note_off_time": 7.003}, {"pitch": 42, "velocity": 80, "note_on_time": 7.003, "note_off_time": 7.223}, {"pitch": 64, "velocity": 80, "note_on_time": 7.223, "note_off_time": 7.443}, {"pitch": 42, "velocity": 80, "note_on_time": 7.223, "note_off_time": 7.443}, {"pitch": 64, "velocity": 80, "note_on_time": 7.443, "note_off_time": 7.663}, {"pitch": 42, "velocity": 80, "note_on_time": 7.443, "note_off_time": 7.663}, {"pitch": 64, "velocity": 80, "note_on_time": 7.663, "note_off_time": 7.881}, {"pitch": 42, "velocity": 80, "note_on_time": 7.663, "note_off_time": 7.881}]</notes><options name="Option List">((4, 4), [0.5, 0.25], 3, 8, &lt;NoteRangePerHand.C_TO_G: 6&gt;, &lt;NoteRangePerHand.ONE_NOTE: 2&gt;, False, True, False, '281')</options></target_notes><trials><trial trial_no="1" timestamp="2022_11_13-12_52_19"><notes name="Played Notes">[{"pitch": 60, "velocity": 81, "note_on_time": 0.416, "note_off_time": 0.788}, {"pitch": 60, "velocity": 90, "note_on_time": 1.213, "note_off_time": 1.446}, {"pitch": 60, "velocity": 101, "note_on_time": 1.648, "note_off_time": 1.867}, {"pitch": 64, "velocity": 91, "note_on_time": 2.063, "note_off_time": 2.413}, {"pitch": 65, "velocity": 93, "note_on_time": 3.182, "note_off_time": 3.468}, {"pitch": 65, "velocity": 86, "note_on_time": 3.583, "note_off_time": 3.793}, {"pitch": 62, "velocity": 81, "note_on_time": 3.78, "note_off_time": 4.036}, {"pitch": 65, "velocity": 84, "note_on_time": 4.005, "note_off_time": 4.228}, {"pitch": 64, "velocity": 84, "note_on_time": 4.189, "note_off_time": 4.308}, {"pitch": 64, "velocity": 78, "note_on_time": 4.403, "note_off_time": 4.512}, {"pitch": 64, "velocity": 84, "note_on_time": 4.613, "note_off_time": 4.742}, {"pitch": 65, "velocity": 89, "note_on_time": 4.832, "note_off_time": 5.023}, {"pitch": 60, "velocity": 85, "note_on_time": 5.015, "note_off_time": 5.106}, {"pitch": 67, "velocity": 82, "note_on_time": 5.244, "note_off_time": 5.459}, {"pitch": 62, "velocity": 65, "note_on_time": 5.475, "note_off_time": 5.73}, {"pitch": 60, "velocity": 79, "note_on_time": 5.7, "note_off_time": 5.857}, {"pitch": 62, "velocity": 71, "note_on_time": 6.101, "note_off_time": 6.278}, {"pitch": 64, "velocity": 87, "note_on_time": 6.937, "note_off_time": 7.153}, {"pitch": 64, "velocity": 90, "note_on_time": 7.611, "note_off_time": 7.775}]</notes><guidance name="Guidance Mode">None</guidance><error name="Error value">0.7846136666666665</error></trial><trial trial_no="2" timestamp="2022_11_13-12_52_40"><notes name="Played Notes">[{"pitch": 60, "velocity": 82, "note_on_time": 1.267, "note_off_time": 1.471}, {"pitch": 60, "velocity": 87, "note_on_time": 2.103, "note_off_time": 2.283}, {"pitch": 60, "velocity": 89, "note_on_time": 2.572, "note_off_time": 2.831}, {"pitch": 64, "velocity": 72, "note_on_time": 2.806, "note_off_time": 3.0}, {"pitch": 65, "velocity": 87, "note_on_time": 3.451, "note_off_time": 3.751}, {"pitch": 65, "velocity": 86, "note_on_time": 3.879, "note_off_time": 4.1}, {"pitch": 62, "velocity": 72, "note_on_time": 4.088, "note_off_time": 4.339}, {"pitch": 65, "velocity": 85, "note_on_time": 4.311, "note_off_time": 4.542}, {"pitch": 64, "velocity": 83, "note_on_time": 4.507, "note_off_time": 4.608}, {"pitch": 64, "velocity": 79, "note_on_time": 4.732, "note_off_time": 4.831}, {"pitch": 64, "velocity": 78, "note_on_time": 4.953, "note_off_time": 5.045}, {"pitch": 65, "velocity": 90, "note_on_time": 5.169, "note_off_time": 5.268}, {"pitch": 60, "velocity": 82, "note_on_time": 5.369, "note_off_time": 5.44}, {"pitch": 67, "velocity": 80, "note_on_time": 5.587, "note_off_time": 5.68}, {"pitch": 62, "velocity": 83, "note_on_time": 5.791, "note_off_time": 5.863}, {"pitch": 60, "velocity": 89, "note_on_time": 6.004, "note_off_time": 6.193}, {"pitch": 62, "velocity": 93, "note_on_time": 6.598, "note_off_time": 6.745}, {"pitch": 64, "velocity": 88, "note_on_time": 7.27, "note_off_time": 7.39}]</notes><guidance name="Guidance Mode">None</guidance><error name="Error value">0.8585478888888889</error></trial><trial trial_no="3" timestamp="2022_11_13-12_53_09"><notes name="Played Notes">[{"pitch": 60, "velocity": 85, "note_on_time": 2.0, "note_off_time": 2.222}, {"pitch": 60, "velocity": 93, "note_on_time": 2.649, "note_off_time": 2.782}, {"pitch": 60, "velocity": 89, "note_on_time": 2.895, "note_off_time": 3.147}, {"pitch": 64, "velocity": 83, "note_on_time": 3.217, "note_off_time": 3.527}, {"pitch": 65, "velocity": 85, "note_on_time": 3.963, "note_off_time": 4.192}, {"pitch": 62, "velocity": 70, "note_on_time": 4.176, "note_off_time": 4.407}, {"pitch": 65, "velocity": 82, "note_on_time": 4.395, "note_off_time": 4.636}, {"pitch": 64, "velocity": 80, "note_on_time": 4.593, "note_off_time": 4.719}, {"pitch": 64, "velocity": 84, "note_on_time": 5.009, "note_off_time": 5.122}, {"pitch": 64, "velocity": 80, "note_on_time": 5.223, "note_off_time": 5.338}, {"pitch": 65, "velocity": 91, "note_on_time": 5.433, "note_off_time": 5.519}, {"pitch": 60, "velocity": 76, "note_on_time": 5.658, "note_off_time": 5.712}, {"pitch": 67, "velocity": 83, "note_on_time": 5.861, "note_off_time": 5.945}, {"pitch": 62, "velocity": 79, "note_on_time": 6.088, "note_off_time": 6.207}, {"pitch": 60, "velocity": 90, "note_on_time": 6.295, "note_off_time": 6.406}, {"pitch": 62, "velocity": 88, "note_on_time": 6.734, "note_off_time": 6.882}, {"pitch": 64, "velocity": 93, "note_on_time": 7.296, "note_off_time": 7.414}]</notes><guidance name="Guidance Mode">None</guidance><error name="Error value">0.49560600000000005</error></trial><trial trial_no="4" timestamp="2022_11_13-12_53_36"><notes name="Played Notes">[{"pitch": 60, "velocity": 84, "note_on_time": 0.8, "note_off_time": 1.022}, {"pitch": 60, "velocity": 81, "note_on_time": 1.477, "note_off_time": 1.674}, {"pitch": 60, "velocity": 92, "note_on_time": 1.874, "note_off_time": 2.092}, {"pitch": 64, "velocity": 85, "note_on_time": 2.092, "note_off_time": 2.333}, {"pitch": 65, "velocity": 94, "note_on_time": 2.786, "note_off_time": 2.997}, {"pitch": 62, "velocity": 78, "note_on_time": 2.992, "note_off_time": 3.233}, {"pitch": 65, "velocity": 87, "note_on_time": 3.205, "note_off_time": 3.415}, {"pitch": 64, "velocity": 82, "note_on_time": 3.399, "note_off_time": 3.512}, {"pitch": 64, "velocity": 83, "note_on_time": 3.605, "note_off_time": 3.725}, {"pitch": 65, "velocity": 99, "note_on_time": 3.82, "note_off_time": 3.928}, {"pitch": 60, "velocity": 90, "note_on_time": 4.02, "note_off_time": 4.095}, {"pitch": 67, "velocity": 85, "note_on_time": 4.229, "note_off_time": 4.346}, {"pitch": 60, "velocity": 66, "note_on_time": 4.45, "note_off_time": 4.54}, {"pitch": 60, "velocity": 88, "note_on_time": 4.676, "note_off_time": 4.734}, {"pitch": 62, "velocity": 90, "note_on_time": 4.943, "note_off_time": 5.114}, {"pitch": 64, "velocity": 92, "note_on_time": 5.764, "note_off_time": 5.907}, {"pitch": 64, "velocity": 98, "note_on_time": 6.407, "note_off_time": 6.527}, {"pitch": 64, "velocity": 95, "note_on_time": 6.872, "note_off_time": 6.97}, {"pitch": 64, "velocity": 88, "note_on_time": 7.091, "note_off_time": 7.174}, {"pitch": 64, "velocity": 98, "note_on_time": 7.3, "note_off_time": 7.423}]</notes><guidance name="Guidance Mode">None</guidance><error name="Error value">0.15499488888888885</error></trial><trial trial_no="5" timestamp="2022_11_13-12_53_53"><notes name="Played Notes">[{"pitch": 60, "velocity": 90, "note_on_time": 0.547, "note_off_time": 0.911}, {"pitch": 60, "velocity": 97, "note_on_time": 1.309, "note_off_time": 1.518}, {"pitch": 60, "velocity": 94, "note_on_time": 1.73, "note_off_time": 1.878}, {"pitch": 64, "velocity": 88, "note_on_time": 1.956, "note_off_time": 2.198}, {"pitch": 65, "velocity": 89, "note_on_time": 2.594, "note_off_time": 2.843}, {"pitch": 62, "velocity": 78, "note_on_time": 2.814, "note_off_time": 3.072}, {"pitch": 65, "velocity": 90, "note_on_time": 3.026, "note_off_time": 3.282}, {"pitch": 64, "velocity": 90, "note_on_time": 3.239, "note_off_time": 3.348}, {"pitch": 64, "velocity": 84, "note_on_time": 3.449, "note_off_time": 3.609}, {"pitch": 65, "velocity": 93, "note_on_time": 3.666, "note_off_time": 3.809}, {"pitch": 60, "velocity": 95, "note_on_time": 3.867, "note_off_time": 3.948}, {"pitch": 67, "velocity": 83, "note_on_time": 4.087, "note_off_time": 4.343}, {"pitch": 62, "velocity": 81, "note_on_time": 4.294, "note_off_time": 4.559}, {"pitch": 60, "velocity": 82, "note_on_time": 4.52, "note_off_time": 4.693}, {"pitch": 62, "velocity": 86, "note_on_time": 5.107, "note_off_time": 5.259}, {"pitch": 64, "velocity": 90, "note_on_time": 5.816, "note_off_time": 5.935}, {"pitch": 64, "velocity": 90, "note_on_time": 6.491, "note_off_time": 6.616}, {"pitch": 64, "velocity": 93, "note_on_time": 6.961, "note_off_time": 7.072}, {"pitch": 64, "velocity": 90, "note_on_time": 7.172, "note_off_time": 7.275}, {"pitch": 64, "velocity": 93, "note_on_time": 7.389, "note_off_time": 7.48}]</notes><guidance name="Guidance Mode">None</guidance><error name="Error value">0.11105044444444448</error></trial></trials></MIDI>