<MIDI midiNo="2022_08_17-15_05_01"><target_notes><notes name="Note List">[{"pitch": 42, "velocity": 80, "note_on_time": 0.004, "note_off_time": 0.419}, {"pitch": 42, "velocity": 80, "note_on_time": 0.419, "note_off_time": 0.825}, {"pitch": 42, "velocity": 80, "note_on_time": 0.825, "note_off_time": 1.23}, {"pitch": 42, "velocity": 80, "note_on_time": 1.23, "note_off_time": 1.636}, {"pitch": 42, "velocity": 80, "note_on_time": 1.637, "note_off_time": 2.042}, {"pitch": 62, "velocity": 80, "note_on_time": 1.636, "note_off_time": 2.447}, {"pitch": 42, "velocity": 80, "note_on_time": 2.043, "note_off_time": 2.448}, {"pitch": 42, "velocity": 80, "note_on_time": 2.448, "note_off_time": 2.853}, {"pitch": 42, "velocity": 80, "note_on_time": 2.853, "note_off_time": 3.259}, {"pitch": 65, "velocity": 80, "note_on_time": 3.259, "note_off_time": 3.665}, {"pitch": 42, "velocity": 80, "note_on_time": 3.259, "note_off_time": 3.665}, {"pitch": 42, "velocity": 80, "note_on_time": 3.665, "note_off_time": 4.071}, {"pitch": 42, "velocity": 80, "note_on_time": 4.071, "note_off_time": 4.475}, {"pitch": 42, "velocity": 80, "note_on_time": 4.475, "note_off_time": 4.881}, {"pitch": 65, "velocity": 80, "note_on_time": 4.881, "note_off_time": 5.287}, {"pitch": 42, "velocity": 80, "note_on_time": 4.882, "note_off_time": 5.287}, {"pitch": 60, "velocity": 80, "note_on_time": 5.287, "note_off_time": 5.692}, {"pitch": 42, "velocity": 80, "note_on_time": 5.287, "note_off_time": 5.692}, {"pitch": 64, "velocity": 80, "note_on_time": 5.692, "note_off_time": 6.099}, {"pitch": 42, "velocity": 80, "note_on_time": 5.692, "note_off_time": 6.1}, {"pitch": 65, "velocity": 80, "note_on_time": 6.099, "note_off_time": 6.504}, {"pitch": 42, "velocity": 80, "note_on_time": 6.1, "note_off_time": 6.504}, {"pitch": 64, "velocity": 80, "note_on_time": 6.504, "note_off_time": 6.913}, {"pitch": 42, "velocity": 80, "note_on_time": 6.504, "note_off_time": 6.913}, {"pitch": 65, "velocity": 80, "note_on_time": 6.913, "note_off_time": 7.318}, {"pitch": 42, "velocity": 80, "note_on_time": 6.914, "note_off_time": 7.318}, {"pitch": 65, "velocity": 80, "note_on_time": 7.318, "note_off_time": 7.724}, {"pitch": 42, "velocity": 80, "note_on_time": 7.318, "note_off_time": 7.724}, {"pitch": 65, "velocity": 80, "note_on_time": 7.724, "note_off_time": 8.133}, {"pitch": 42, "velocity": 80, "note_on_time": 7.724, "note_off_time": 8.133}, {"pitch": 64, "velocity": 80, "note_on_time": 8.133, "note_off_time": 8.539}, {"pitch": 42, "velocity": 80, "note_on_time": 8.133, "note_off_time": 8.539}, {"pitch": 60, "velocity": 80, "note_on_time": 8.539, "note_off_time": 8.946}, {"pitch": 42, "velocity": 80, "note_on_time": 8.539, "note_off_time": 8.947}, {"pitch": 67, "velocity": 80, "note_on_time": 8.946, "note_off_time": 9.353}, {"pitch": 42, "velocity": 80, "note_on_time": 8.947, "note_off_time": 9.353}, {"pitch": 65, "velocity": 80, "note_on_time": 9.353, "note_off_time": 9.761}, {"pitch": 42, "velocity": 80, "note_on_time": 9.353, "note_off_time": 9.762}, {"pitch": 67, "velocity": 80, "note_on_time": 9.761, "note_off_time": 10.164}, {"pitch": 42, "velocity": 80, "note_on_time": 9.762, "note_off_time": 10.164}, {"pitch": 42, "velocity": 80, "note_on_time": 10.164, "note_off_time": 10.569}, {"pitch": 42, "velocity": 80, "note_on_time": 10.569, "note_off_time": 10.975}, {"pitch": 60, "velocity": 80, "note_on_time": 10.569, "note_off_time": 11.378}, {"pitch": 42, "velocity": 80, "note_on_time": 10.975, "note_off_time": 11.379}, {"pitch": 42, "velocity": 80, "note_on_time": 11.379, "note_off_time": 11.782}, {"pitch": 65, "velocity": 80, "note_on_time": 11.378, "note_off_time": 12.188}, {"pitch": 42, "velocity": 80, "note_on_time": 11.782, "note_off_time": 12.188}, {"pitch": 42, "velocity": 80, "note_on_time": 12.188, "note_off_time": 12.593}, {"pitch": 62, "velocity": 80, "note_on_time": 12.593, "note_off_time": 12.998}, {"pitch": 42, "velocity": 80, "note_on_time": 12.594, "note_off_time": 12.998}, {"pitch": 42, "velocity": 80, "note_on_time": 12.999, "note_off_time": 13.403}, {"pitch": 62, "velocity": 80, "note_on_time": 13.403, "note_off_time": 13.81}, {"pitch": 42, "velocity": 80, "note_on_time": 13.403, "note_off_time": 13.81}, {"pitch": 62, "velocity": 80, "note_on_time": 13.81, "note_off_time": 14.213}, {"pitch": 42, "velocity": 80, "note_on_time": 13.81, "note_off_time": 14.213}, {"pitch": 62, "velocity": 80, "note_on_time": 14.213, "note_off_time": 14.617}, {"pitch": 42, "velocity": 80, "note_on_time": 14.213, "note_off_time": 14.617}]</notes><options name="Option List">((4, 4), [0.5, 0.25], 3, 8, &lt;NoteRangePerHand.C_TO_G: 6&gt;, &lt;NoteRangePerHand.ONE_NOTE: 2&gt;, False, True, True, 150)</options></target_notes><trials><trial trial_no="1" timestamp="2022_08_17-15_04_45"><notes name="Played Notes">[{"pitch": 62, "velocity": 66, "note_on_time": 1.639, "note_off_time": 2.132}, {"pitch": 65, "velocity": 76, "note_on_time": 2.906, "note_off_time": 3.026}, {"pitch": 65, "velocity": 69, "note_on_time": 3.894, "note_off_time": 4.009}, {"pitch": 60, "velocity": 87, "note_on_time": 4.314, "note_off_time": 4.409}, {"pitch": 64, "velocity": 63, "note_on_time": 4.775, "note_off_time": 4.854}, {"pitch": 65, "velocity": 74, "note_on_time": 5.201, "note_off_time": 5.309}, {"pitch": 64, "velocity": 72, "note_on_time": 5.64, "note_off_time": 5.708}, {"pitch": 65, "velocity": 75, "note_on_time": 6.08, "note_off_time": 6.18}, {"pitch": 65, "velocity": 79, "note_on_time": 6.533, "note_off_time": 6.642}, {"pitch": 65, "velocity": 79, "note_on_time": 6.975, "note_off_time": 7.096}, {"pitch": 64, "velocity": 77, "note_on_time": 7.383, "note_off_time": 7.468}, {"pitch": 60, "velocity": 75, "note_on_time": 7.809, "note_off_time": 7.905}, {"pitch": 67, "velocity": 77, "note_on_time": 8.237, "note_off_time": 8.359}, {"pitch": 65, "velocity": 78, "note_on_time": 8.675, "note_off_time": 8.771}, {"pitch": 67, "velocity": 77, "note_on_time": 9.138, "note_off_time": 9.258}, {"pitch": 60, "velocity": 77, "note_on_time": 10.156, "note_off_time": 10.654}, {"pitch": 65, "velocity": 74, "note_on_time": 11.028, "note_off_time": 11.517}, {"pitch": 62, "velocity": 79, "note_on_time": 12.24, "note_off_time": 12.365}, {"pitch": 62, "velocity": 78, "note_on_time": 13.035, "note_off_time": 13.116}, {"pitch": 62, "velocity": 82, "note_on_time": 13.422, "note_off_time": 13.498}, {"pitch": 62, "velocity": 80, "note_on_time": 13.827, "note_off_time": 13.898}]</notes><guidance name="Guidance Mode">None</guidance><error name="Error value">0.09522222222222188</error></trial><trial trial_no="2" timestamp="2022_08_17-15_05_11"><notes name="Played Notes">[{"pitch": 62, "velocity": 65, "note_on_time": 1.645, "note_off_time": 2.157}, {"pitch": 65, "velocity": 74, "note_on_time": 3.238, "note_off_time": 3.447}, {"pitch": 65, "velocity": 73, "note_on_time": 4.917, "note_off_time": 5.119}, {"pitch": 60, "velocity": 63, "note_on_time": 5.331, "note_off_time": 5.436}, {"pitch": 64, "velocity": 71, "note_on_time": 5.709, "note_off_time": 5.806}, {"pitch": 65, "velocity": 75, "note_on_time": 6.125, "note_off_time": 6.229}, {"pitch": 64, "velocity": 77, "note_on_time": 6.509, "note_off_time": 6.616}, {"pitch": 65, "velocity": 73, "note_on_time": 6.937, "note_off_time": 7.059}, {"pitch": 65, "velocity": 77, "note_on_time": 7.359, "note_off_time": 7.468}, {"pitch": 65, "velocity": 77, "note_on_time": 7.752, "note_off_time": 7.864}, {"pitch": 64, "velocity": 78, "note_on_time": 8.13, "note_off_time": 8.235}, {"pitch": 60, "velocity": 78, "note_on_time": 8.558, "note_off_time": 8.641}, {"pitch": 67, "velocity": 72, "note_on_time": 8.953, "note_off_time": 9.091}, {"pitch": 65, "velocity": 67, "note_on_time": 9.35, "note_off_time": 9.456}, {"pitch": 67, "velocity": 76, "note_on_time": 9.762, "note_off_time": 9.883}, {"pitch": 60, "velocity": 70, "note_on_time": 10.545, "note_off_time": 10.653}, {"pitch": 60, "velocity": 44, "note_on_time": 10.783, "note_off_time": 11.239}, {"pitch": 65, "velocity": 66, "note_on_time": 11.566, "note_off_time": 12.065}, {"pitch": 62, "velocity": 79, "note_on_time": 12.697, "note_off_time": 12.747}, {"pitch": 62, "velocity": 89, "note_on_time": 13.42, "note_off_time": 13.492}, {"pitch": 62, "velocity": 83, "note_on_time": 13.812, "note_off_time": 13.881}, {"pitch": 62, "velocity": 81, "note_on_time": 14.213, "note_off_time": 14.264}]</notes><guidance name="Guidance Mode">None</guidance><error name="Error value">0.5490000000000015</error></trial><trial trial_no="3" timestamp="2022_08_17-15_05_37"><notes name="Played Notes">[{"pitch": 62, "velocity": 65, "note_on_time": 1.614, "note_off_time": 2.163}, {"pitch": 65, "velocity": 77, "note_on_time": 3.291, "note_off_time": 3.623}, {"pitch": 65, "velocity": 78, "note_on_time": 4.893, "note_off_time": 5.061}, {"pitch": 60, "velocity": 64, "note_on_time": 5.297, "note_off_time": 5.438}, {"pitch": 64, "velocity": 70, "note_on_time": 5.694, "note_off_time": 5.805}, {"pitch": 65, "velocity": 73, "note_on_time": 6.099, "note_off_time": 6.218}, {"pitch": 64, "velocity": 72, "note_on_time": 6.492, "note_off_time": 6.597}, {"pitch": 65, "velocity": 71, "note_on_time": 6.902, "note_off_time": 7.01}, {"pitch": 65, "velocity": 76, "note_on_time": 7.33, "note_off_time": 7.442}, {"pitch": 65, "velocity": 75, "note_on_time": 7.726, "note_off_time": 7.829}, {"pitch": 64, "velocity": 72, "note_on_time": 8.106, "note_off_time": 8.194}, {"pitch": 60, "velocity": 66, "note_on_time": 8.507, "note_off_time": 8.615}, {"pitch": 67, "velocity": 64, "note_on_time": 8.9, "note_off_time": 9.042}, {"pitch": 65, "velocity": 66, "note_on_time": 9.286, "note_off_time": 9.411}, {"pitch": 67, "velocity": 70, "note_on_time": 9.688, "note_off_time": 9.82}, {"pitch": 60, "velocity": 73, "note_on_time": 10.534, "note_off_time": 11.147}, {"pitch": 65, "velocity": 72, "note_on_time": 11.392, "note_off_time": 11.927}, {"pitch": 62, "velocity": 81, "note_on_time": 12.517, "note_off_time": 12.646}, {"pitch": 62, "velocity": 82, "note_on_time": 12.913, "note_off_time": 12.991}, {"pitch": 62, "velocity": 71, "note_on_time": 13.362, "note_off_time": 13.433}, {"pitch": 62, "velocity": 50, "note_on_time": 13.798, "note_off_time": 13.829}]</notes><guidance name="Guidance Mode">None</guidance><error name="Error value">0.0473333333333332</error></trial></trials></MIDI>