<MIDI midiNo="2022_09_08-12_36_43"><target_notes><notes name="Note List">[{"pitch": 42, "velocity": 80, "note_on_time": 0.004, "note_off_time": 0.416}, {"pitch": 42, "velocity": 80, "note_on_time": 0.416, "note_off_time": 0.831}, {"pitch": 42, "velocity": 80, "note_on_time": 0.831, "note_off_time": 1.246}, {"pitch": 42, "velocity": 80, "note_on_time": 1.246, "note_off_time": 1.659}, {"pitch": 62, "velocity": 80, "note_on_time": 1.659, "note_off_time": 2.073}, {"pitch": 42, "velocity": 80, "note_on_time": 1.659, "note_off_time": 2.073}, {"pitch": 42, "velocity": 80, "note_on_time": 2.073, "note_off_time": 2.486}, {"pitch": 42, "velocity": 80, "note_on_time": 2.486, "note_off_time": 2.901}, {"pitch": 42, "velocity": 80, "note_on_time": 2.901, "note_off_time": 3.304}, {"pitch": 62, "velocity": 80, "note_on_time": 3.304, "note_off_time": 3.709}, {"pitch": 42, "velocity": 80, "note_on_time": 3.304, "note_off_time": 3.709}, {"pitch": 62, "velocity": 80, "note_on_time": 3.709, "note_off_time": 4.113}, {"pitch": 42, "velocity": 80, "note_on_time": 3.709, "note_off_time": 4.113}, {"pitch": 64, "velocity": 80, "note_on_time": 4.113, "note_off_time": 4.52}, {"pitch": 42, "velocity": 80, "note_on_time": 4.113, "note_off_time": 4.52}, {"pitch": 62, "velocity": 80, "note_on_time": 4.52, "note_off_time": 4.928}, {"pitch": 42, "velocity": 80, "note_on_time": 4.52, "note_off_time": 4.928}, {"pitch": 62, "velocity": 80, "note_on_time": 4.928, "note_off_time": 5.339}, {"pitch": 42, "velocity": 80, "note_on_time": 4.928, "note_off_time": 5.339}, {"pitch": 64, "velocity": 80, "note_on_time": 5.339, "note_off_time": 5.745}, {"pitch": 42, "velocity": 80, "note_on_time": 5.339, "note_off_time": 5.745}, {"pitch": 60, "velocity": 80, "note_on_time": 5.745, "note_off_time": 6.154}, {"pitch": 42, "velocity": 80, "note_on_time": 5.745, "note_off_time": 6.154}, {"pitch": 62, "velocity": 80, "note_on_time": 6.154, "note_off_time": 6.569}, {"pitch": 42, "velocity": 80, "note_on_time": 6.154, "note_off_time": 6.569}, {"pitch": 62, "velocity": 80, "note_on_time": 6.569, "note_off_time": 6.981}, {"pitch": 42, "velocity": 80, "note_on_time": 6.569, "note_off_time": 6.981}, {"pitch": 62, "velocity": 80, "note_on_time": 6.981, "note_off_time": 7.396}, {"pitch": 42, "velocity": 80, "note_on_time": 6.981, "note_off_time": 7.396}, {"pitch": 62, "velocity": 80, "note_on_time": 7.396, "note_off_time": 7.811}, {"pitch": 42, "velocity": 80, "note_on_time": 7.396, "note_off_time": 7.811}, {"pitch": 64, "velocity": 80, "note_on_time": 7.811, "note_off_time": 8.222}, {"pitch": 42, "velocity": 80, "note_on_time": 7.811, "note_off_time": 8.222}, {"pitch": 64, "velocity": 80, "note_on_time": 8.222, "note_off_time": 8.636}, {"pitch": 42, "velocity": 80, "note_on_time": 8.222, "note_off_time": 8.636}, {"pitch": 64, "velocity": 80, "note_on_time": 8.636, "note_off_time": 9.047}, {"pitch": 42, "velocity": 80, "note_on_time": 8.636, "note_off_time": 9.047}, {"pitch": 60, "velocity": 80, "note_on_time": 9.047, "note_off_time": 9.462}, {"pitch": 42, "velocity": 80, "note_on_time": 9.047, "note_off_time": 9.462}, {"pitch": 60, "velocity": 80, "note_on_time": 9.462, "note_off_time": 9.877}, {"pitch": 42, "velocity": 80, "note_on_time": 9.462, "note_off_time": 9.877}, {"pitch": 62, "velocity": 80, "note_on_time": 9.877, "note_off_time": 10.285}, {"pitch": 42, "velocity": 80, "note_on_time": 9.877, "note_off_time": 10.285}, {"pitch": 42, "velocity": 80, "note_on_time": 10.285, "note_off_time": 10.689}, {"pitch": 42, "velocity": 80, "note_on_time": 10.689, "note_off_time": 11.094}, {"pitch": 42, "velocity": 80, "note_on_time": 11.094, "note_off_time": 11.5}, {"pitch": 60, "velocity": 80, "note_on_time": 11.5, "note_off_time": 11.908}, {"pitch": 42, "velocity": 80, "note_on_time": 11.5, "note_off_time": 11.908}, {"pitch": 64, "velocity": 80, "note_on_time": 11.908, "note_off_time": 12.314}, {"pitch": 42, "velocity": 80, "note_on_time": 11.908, "note_off_time": 12.314}, {"pitch": 42, "velocity": 80, "note_on_time": 12.314, "note_off_time": 12.721}, {"pitch": 42, "velocity": 80, "note_on_time": 12.721, "note_off_time": 13.132}, {"pitch": 42, "velocity": 80, "note_on_time": 13.133, "note_off_time": 13.536}, {"pitch": 64, "velocity": 80, "note_on_time": 13.536, "note_off_time": 13.942}, {"pitch": 42, "velocity": 80, "note_on_time": 13.536, "note_off_time": 13.942}, {"pitch": 64, "velocity": 80, "note_on_time": 13.942, "note_off_time": 14.35}, {"pitch": 42, "velocity": 80, "note_on_time": 13.942, "note_off_time": 14.35}, {"pitch": 64, "velocity": 80, "note_on_time": 14.35, "note_off_time": 14.756}, {"pitch": 42, "velocity": 80, "note_on_time": 14.35, "note_off_time": 14.756}]</notes><options name="Option List">((4, 4), [0.5, 0.25], 3, 8, &lt;NoteRangePerHand.THREE_NOTES: 4&gt;, &lt;NoteRangePerHand.ONE_NOTE: 2&gt;, False, True, True, '150')</options></target_notes><trials><trial trial_no="1" timestamp="2022_09_08-12_36_26"><notes name="Played Notes">[{"pitch": 62, "velocity": 96, "note_on_time": 2.414, "note_off_time": 2.623}, {"pitch": 62, "velocity": 86, "note_on_time": 4.069, "note_off_time": 4.228}, {"pitch": 62, "velocity": 93, "note_on_time": 4.534, "note_off_time": 4.666}, {"pitch": 62, "velocity": 93, "note_on_time": 4.993, "note_off_time": 5.167}, {"pitch": 64, "velocity": 89, "note_on_time": 5.474, "note_off_time": 5.656}, {"pitch": 62, "velocity": 89, "note_on_time": 5.954, "note_off_time": 6.119}, {"pitch": 62, "velocity": 94, "note_on_time": 6.478, "note_off_time": 6.661}, {"pitch": 62, "velocity": 90, "note_on_time": 6.968, "note_off_time": 7.136}, {"pitch": 64, "velocity": 95, "note_on_time": 7.459, "note_off_time": 7.628}, {"pitch": 60, "velocity": 94, "note_on_time": 7.927, "note_off_time": 8.123}, {"pitch": 62, "velocity": 87, "note_on_time": 8.396, "note_off_time": 8.57}, {"pitch": 62, "velocity": 87, "note_on_time": 8.892, "note_off_time": 9.035}, {"pitch": 62, "velocity": 90, "note_on_time": 9.36, "note_off_time": 9.546}, {"pitch": 64, "velocity": 88, "note_on_time": 9.833, "note_off_time": 9.985}, {"pitch": 64, "velocity": 94, "note_on_time": 10.309, "note_off_time": 10.452}, {"pitch": 60, "velocity": 84, "note_on_time": 10.787, "note_off_time": 10.937}, {"pitch": 60, "velocity": 87, "note_on_time": 11.296, "note_off_time": 11.479}, {"pitch": 62, "velocity": 90, "note_on_time": 11.759, "note_off_time": 11.97}, {"pitch": 60, "velocity": 79, "note_on_time": 14.019, "note_off_time": 14.24}, {"pitch": 64, "velocity": 90, "note_on_time": 14.496, "note_off_time": 14.688}]</notes><guidance name="Guidance Mode">None</guidance><error name="Error value">0.80415</error></trial><trial trial_no="2" timestamp="2022_09_08-12_37_08"><notes name="Played Notes">[{"pitch": 62, "velocity": 87, "note_on_time": 1.832, "note_off_time": 2.07}, {"pitch": 62, "velocity": 93, "note_on_time": 3.89, "note_off_time": 4.076}, {"pitch": 64, "velocity": 89, "note_on_time": 4.627, "note_off_time": 4.78}, {"pitch": 64, "velocity": 94, "note_on_time": 5.105, "note_off_time": 5.241}, {"pitch": 62, "velocity": 90, "note_on_time": 5.667, "note_off_time": 5.836}, {"pitch": 62, "velocity": 92, "note_on_time": 6.541, "note_off_time": 6.693}, {"pitch": 64, "velocity": 86, "note_on_time": 6.967, "note_off_time": 7.13}, {"pitch": 60, "velocity": 95, "note_on_time": 7.48, "note_off_time": 7.658}, {"pitch": 62, "velocity": 88, "note_on_time": 7.942, "note_off_time": 8.089}, {"pitch": 62, "velocity": 90, "note_on_time": 8.396, "note_off_time": 8.538}, {"pitch": 62, "velocity": 91, "note_on_time": 8.838, "note_off_time": 8.995}, {"pitch": 62, "velocity": 89, "note_on_time": 9.318, "note_off_time": 9.482}, {"pitch": 64, "velocity": 87, "note_on_time": 10.09, "note_off_time": 10.251}, {"pitch": 64, "velocity": 95, "note_on_time": 10.555, "note_off_time": 10.719}, {"pitch": 64, "velocity": 88, "note_on_time": 11.015, "note_off_time": 11.186}, {"pitch": 60, "velocity": 82, "note_on_time": 11.617, "note_off_time": 11.803}, {"pitch": 60, "velocity": 83, "note_on_time": 12.115, "note_off_time": 12.323}, {"pitch": 62, "velocity": 91, "note_on_time": 12.573, "note_off_time": 12.744}, {"pitch": 60, "velocity": 85, "note_on_time": 14.206, "note_off_time": 14.406}]</notes><guidance name="Guidance Mode">None</guidance><error name="Error value">0.8086</error></trial><trial trial_no="3" timestamp="2022_09_08-12_37_41"><notes name="Played Notes">[{"pitch": 62, "velocity": 99, "note_on_time": 1.832, "note_off_time": 2.026}, {"pitch": 62, "velocity": 87, "note_on_time": 3.362, "note_off_time": 3.512}, {"pitch": 64, "velocity": 82, "note_on_time": 3.801, "note_off_time": 3.949}, {"pitch": 62, "velocity": 87, "note_on_time": 4.476, "note_off_time": 4.577}, {"pitch": 62, "velocity": 85, "note_on_time": 5.048, "note_off_time": 5.152}, {"pitch": 64, "velocity": 93, "note_on_time": 5.498, "note_off_time": 5.66}, {"pitch": 60, "velocity": 94, "note_on_time": 5.939, "note_off_time": 6.112}, {"pitch": 62, "velocity": 87, "note_on_time": 6.403, "note_off_time": 6.541}, {"pitch": 62, "velocity": 95, "note_on_time": 6.843, "note_off_time": 6.976}, {"pitch": 62, "velocity": 97, "note_on_time": 7.268, "note_off_time": 7.391}, {"pitch": 62, "velocity": 90, "note_on_time": 7.708, "note_off_time": 7.839}, {"pitch": 64, "velocity": 91, "note_on_time": 8.146, "note_off_time": 8.279}, {"pitch": 64, "velocity": 93, "note_on_time": 8.574, "note_off_time": 8.711}, {"pitch": 64, "velocity": 88, "note_on_time": 9.035, "note_off_time": 9.2}, {"pitch": 60, "velocity": 98, "note_on_time": 9.473, "note_off_time": 9.667}, {"pitch": 62, "velocity": 102, "note_on_time": 9.909, "note_off_time": 10.068}, {"pitch": 60, "velocity": 89, "note_on_time": 12.312, "note_off_time": 12.528}, {"pitch": 64, "velocity": 92, "note_on_time": 12.769, "note_off_time": 12.965}, {"pitch": 64, "velocity": 81, "note_on_time": 14.38, "note_off_time": 14.55}]</notes><guidance name="Guidance Mode">None</guidance><error name="Error value">0.4172999999999999</error></trial><trial trial_no="4" timestamp="2022_09_08-12_38_15"><notes name="Played Notes">[{"pitch": 62, "velocity": 91, "note_on_time": 2.393, "note_off_time": 2.6}, {"pitch": 62, "velocity": 91, "note_on_time": 4.435, "note_off_time": 4.576}, {"pitch": 62, "velocity": 94, "note_on_time": 4.859, "note_off_time": 5.036}, {"pitch": 64, "velocity": 98, "note_on_time": 5.275, "note_off_time": 5.444}, {"pitch": 62, "velocity": 85, "note_on_time": 5.741, "note_off_time": 5.881}, {"pitch": 62, "velocity": 86, "note_on_time": 6.176, "note_off_time": 6.332}, {"pitch": 64, "velocity": 84, "note_on_time": 6.6, "note_off_time": 6.798}, {"pitch": 60, "velocity": 84, "note_on_time": 7.068, "note_off_time": 7.28}, {"pitch": 62, "velocity": 89, "note_on_time": 7.507, "note_off_time": 7.664}, {"pitch": 62, "velocity": 87, "note_on_time": 7.932, "note_off_time": 8.091}, {"pitch": 62, "velocity": 85, "note_on_time": 8.397, "note_off_time": 8.573}, {"pitch": 64, "velocity": 85, "note_on_time": 8.82, "note_off_time": 8.993}, {"pitch": 64, "velocity": 78, "note_on_time": 9.285, "note_off_time": 9.435}, {"pitch": 64, "velocity": 37, "note_on_time": 9.789, "note_off_time": 9.894}, {"pitch": 60, "velocity": 85, "note_on_time": 10.219, "note_off_time": 10.405}, {"pitch": 60, "velocity": 76, "note_on_time": 10.689, "note_off_time": 10.834}, {"pitch": 62, "velocity": 93, "note_on_time": 11.102, "note_off_time": 11.291}, {"pitch": 60, "velocity": 84, "note_on_time": 12.99, "note_off_time": 13.13}, {"pitch": 64, "velocity": 88, "note_on_time": 13.435, "note_off_time": 13.605}]</notes><guidance name="Guidance Mode">None</guidance><error name="Error value">0.4344499999999999</error></trial><trial trial_no="5" timestamp="2022_09_08-12_38_54"><notes name="Played Notes">[{"pitch": 62, "velocity": 91, "note_on_time": 1.511, "note_off_time": 1.665}, {"pitch": 62, "velocity": 85, "note_on_time": 4.027, "note_off_time": 4.175}, {"pitch": 62, "velocity": 87, "note_on_time": 4.474, "note_off_time": 4.655}, {"pitch": 64, "velocity": 85, "note_on_time": 4.922, "note_off_time": 5.085}, {"pitch": 62, "velocity": 81, "note_on_time": 5.519, "note_off_time": 5.674}, {"pitch": 62, "velocity": 84, "note_on_time": 5.995, "note_off_time": 6.132}, {"pitch": 64, "velocity": 84, "note_on_time": 6.436, "note_off_time": 6.578}, {"pitch": 60, "velocity": 88, "note_on_time": 6.902, "note_off_time": 7.097}, {"pitch": 62, "velocity": 75, "note_on_time": 7.364, "note_off_time": 7.492}, {"pitch": 62, "velocity": 87, "note_on_time": 7.781, "note_off_time": 7.918}, {"pitch": 62, "velocity": 85, "note_on_time": 8.211, "note_off_time": 8.342}, {"pitch": 62, "velocity": 92, "note_on_time": 8.631, "note_off_time": 8.803}, {"pitch": 64, "velocity": 94, "note_on_time": 9.516, "note_off_time": 9.681}, {"pitch": 64, "velocity": 68, "note_on_time": 9.957, "note_off_time": 10.111}, {"pitch": 60, "velocity": 79, "note_on_time": 10.404, "note_off_time": 10.578}, {"pitch": 60, "velocity": 90, "note_on_time": 10.814, "note_off_time": 10.997}, {"pitch": 62, "velocity": 93, "note_on_time": 11.239, "note_off_time": 11.423}, {"pitch": 60, "velocity": 93, "note_on_time": 11.985, "note_off_time": 12.191}, {"pitch": 64, "velocity": 80, "note_on_time": 12.436, "note_off_time": 12.596}, {"pitch": 64, "velocity": 86, "note_on_time": 14.261, "note_off_time": 14.404}]</notes><guidance name="Guidance Mode">None</guidance><error name="Error value">0.33739999999999987</error></trial><trial trial_no="6" timestamp="2022_09_08-12_40_07"><notes name="Played Notes">[{"pitch": 62, "velocity": 97, "note_on_time": 1.621, "note_off_time": 1.8}, {"pitch": 62, "velocity": 85, "note_on_time": 2.814, "note_off_time": 2.932}, {"pitch": 62, "velocity": 86, "note_on_time": 3.226, "note_off_time": 3.375}, {"pitch": 64, "velocity": 91, "note_on_time": 3.626, "note_off_time": 3.774}, {"pitch": 62, "velocity": 83, "note_on_time": 4.042, "note_off_time": 4.159}, {"pitch": 62, "velocity": 91, "note_on_time": 4.465, "note_off_time": 4.589}, {"pitch": 62, "velocity": 91, "note_on_time": 4.851, "note_off_time": 4.972}, {"pitch": 64, "velocity": 89, "note_on_time": 5.249, "note_off_time": 5.388}, {"pitch": 60, "velocity": 92, "note_on_time": 5.636, "note_off_time": 5.793}, {"pitch": 62, "velocity": 96, "note_on_time": 6.025, "note_off_time": 6.16}, {"pitch": 62, "velocity": 94, "note_on_time": 6.42, "note_off_time": 6.539}, {"pitch": 62, "velocity": 93, "note_on_time": 6.836, "note_off_time": 6.959}, {"pitch": 64, "velocity": 88, "note_on_time": 7.234, "note_off_time": 7.363}, {"pitch": 64, "velocity": 93, "note_on_time": 7.636, "note_off_time": 7.764}, {"pitch": 64, "velocity": 89, "note_on_time": 8.04, "note_off_time": 8.244}, {"pitch": 60, "velocity": 92, "note_on_time": 8.433, "note_off_time": 8.596}, {"pitch": 60, "velocity": 91, "note_on_time": 8.845, "note_off_time": 8.983}, {"pitch": 62, "velocity": 102, "note_on_time": 9.238, "note_off_time": 9.415}, {"pitch": 60, "velocity": 94, "note_on_time": 10.468, "note_off_time": 10.653}, {"pitch": 64, "velocity": 87, "note_on_time": 10.897, "note_off_time": 11.041}, {"pitch": 64, "velocity": 93, "note_on_time": 11.694, "note_off_time": 11.844}, {"pitch": 64, "velocity": 91, "note_on_time": 12.127, "note_off_time": 12.248}, {"pitch": 64, "velocity": 95, "note_on_time": 12.519, "note_off_time": 12.662}, {"pitch": 64, "velocity": 92, "note_on_time": 12.934, "note_off_time": 13.034}]</notes><guidance name="Guidance Mode">None</guidance><error name="Error value">0.4172499999999986</error></trial><trial trial_no="7" timestamp="2022_09_08-12_47_21"><notes name="Played Notes">[{"pitch": 62, "velocity": 87, "note_on_time": 1.593, "note_off_time": 1.778}, {"pitch": 62, "velocity": 82, "note_on_time": 2.756, "note_off_time": 2.856}, {"pitch": 62, "velocity": 85, "note_on_time": 3.339, "note_off_time": 3.478}, {"pitch": 64, "velocity": 89, "note_on_time": 3.731, "note_off_time": 3.86}, {"pitch": 62, "velocity": 95, "note_on_time": 4.115, "note_off_time": 4.241}, {"pitch": 62, "velocity": 91, "note_on_time": 4.539, "note_off_time": 4.663}, {"pitch": 64, "velocity": 84, "note_on_time": 4.941, "note_off_time": 5.083}, {"pitch": 60, "velocity": 95, "note_on_time": 5.342, "note_off_time": 5.505}, {"pitch": 62, "velocity": 85, "note_on_time": 5.736, "note_off_time": 5.849}, {"pitch": 62, "velocity": 93, "note_on_time": 6.122, "note_off_time": 6.231}, {"pitch": 62, "velocity": 89, "note_on_time": 6.499, "note_off_time": 6.636}, {"pitch": 62, "velocity": 91, "note_on_time": 6.913, "note_off_time": 7.049}, {"pitch": 64, "velocity": 94, "note_on_time": 7.31, "note_off_time": 7.451}, {"pitch": 64, "velocity": 92, "note_on_time": 7.708, "note_off_time": 7.845}, {"pitch": 64, "velocity": 84, "note_on_time": 8.112, "note_off_time": 8.247}, {"pitch": 60, "velocity": 87, "note_on_time": 8.516, "note_off_time": 8.671}, {"pitch": 60, "velocity": 82, "note_on_time": 8.918, "note_off_time": 9.076}, {"pitch": 62, "velocity": 91, "note_on_time": 9.325, "note_off_time": 9.515}, {"pitch": 60, "velocity": 100, "note_on_time": 10.48, "note_off_time": 10.638}, {"pitch": 64, "velocity": 89, "note_on_time": 10.914, "note_off_time": 11.057}, {"pitch": 64, "velocity": 91, "note_on_time": 11.745, "note_off_time": 11.897}, {"pitch": 64, "velocity": 85, "note_on_time": 12.137, "note_off_time": 12.269}, {"pitch": 64, "velocity": 96, "note_on_time": 12.554, "note_off_time": 12.679}]</notes><guidance name="Guidance Mode">None</guidance><error name="Error value">0.10114999999999974</error></trial><trial trial_no="8" timestamp="2022_09_08-12_47_53"><notes name="Played Notes">[{"pitch": 62, "velocity": 98, "note_on_time": 1.248, "note_off_time": 1.426}, {"pitch": 62, "velocity": 87, "note_on_time": 2.418, "note_off_time": 2.549}, {"pitch": 62, "velocity": 83, "note_on_time": 2.814, "note_off_time": 2.973}, {"pitch": 64, "velocity": 87, "note_on_time": 3.212, "note_off_time": 3.365}, {"pitch": 62, "velocity": 83, "note_on_time": 3.661, "note_off_time": 3.799}, {"pitch": 62, "velocity": 75, "note_on_time": 4.132, "note_off_time": 4.254}, {"pitch": 64, "velocity": 84, "note_on_time": 4.753, "note_off_time": 4.935}, {"pitch": 60, "velocity": 87, "note_on_time": 5.196, "note_off_time": 5.379}, {"pitch": 62, "velocity": 93, "note_on_time": 5.611, "note_off_time": 5.755}, {"pitch": 62, "velocity": 96, "note_on_time": 6.407, "note_off_time": 6.54}, {"pitch": 62, "velocity": 88, "note_on_time": 6.794, "note_off_time": 6.934}, {"pitch": 62, "velocity": 91, "note_on_time": 7.18, "note_off_time": 7.308}, {"pitch": 64, "velocity": 85, "note_on_time": 7.66, "note_off_time": 7.787}, {"pitch": 64, "velocity": 86, "note_on_time": 8.059, "note_off_time": 8.231}, {"pitch": 60, "velocity": 83, "note_on_time": 8.469, "note_off_time": 8.597}, {"pitch": 60, "velocity": 87, "note_on_time": 8.873, "note_off_time": 9.05}, {"pitch": 62, "velocity": 94, "note_on_time": 9.329, "note_off_time": 9.501}, {"pitch": 60, "velocity": 87, "note_on_time": 10.887, "note_off_time": 11.094}, {"pitch": 64, "velocity": 87, "note_on_time": 11.288, "note_off_time": 11.456}, {"pitch": 64, "velocity": 85, "note_on_time": 12.795, "note_off_time": 12.948}, {"pitch": 64, "velocity": 91, "note_on_time": 13.174, "note_off_time": 13.319}, {"pitch": 64, "velocity": 91, "note_on_time": 13.565, "note_off_time": 13.729}]</notes><guidance name="Guidance Mode">None</guidance><error name="Error value">0.17895000000000005</error></trial><trial trial_no="9" timestamp="2022_09_08-12_48_20"><notes name="Played Notes">[{"pitch": 62, "velocity": 94, "note_on_time": 1.184, "note_off_time": 1.394}, {"pitch": 62, "velocity": 85, "note_on_time": 2.917, "note_off_time": 3.06}, {"pitch": 64, "velocity": 45, "note_on_time": 3.383, "note_off_time": 3.458}, {"pitch": 62, "velocity": 83, "note_on_time": 3.482, "note_off_time": 3.582}, {"pitch": 64, "velocity": 85, "note_on_time": 3.848, "note_off_time": 3.972}, {"pitch": 62, "velocity": 91, "note_on_time": 4.249, "note_off_time": 4.383}, {"pitch": 62, "velocity": 87, "note_on_time": 4.66, "note_off_time": 4.801}, {"pitch": 64, "velocity": 80, "note_on_time": 5.097, "note_off_time": 5.235}, {"pitch": 60, "velocity": 81, "note_on_time": 5.573, "note_off_time": 5.753}, {"pitch": 62, "velocity": 86, "note_on_time": 6.016, "note_off_time": 6.159}, {"pitch": 62, "velocity": 88, "note_on_time": 6.428, "note_off_time": 6.549}, {"pitch": 62, "velocity": 82, "note_on_time": 6.857, "note_off_time": 6.998}, {"pitch": 62, "velocity": 74, "note_on_time": 7.286, "note_off_time": 7.448}, {"pitch": 64, "velocity": 80, "note_on_time": 7.72, "note_off_time": 7.876}, {"pitch": 64, "velocity": 83, "note_on_time": 8.159, "note_off_time": 8.31}, {"pitch": 64, "velocity": 80, "note_on_time": 8.579, "note_off_time": 8.709}, {"pitch": 60, "velocity": 84, "note_on_time": 8.99, "note_off_time": 9.139}, {"pitch": 60, "velocity": 83, "note_on_time": 9.398, "note_off_time": 9.588}, {"pitch": 62, "velocity": 87, "note_on_time": 9.797, "note_off_time": 9.979}, {"pitch": 60, "velocity": 84, "note_on_time": 11.315, "note_off_time": 11.551}, {"pitch": 64, "velocity": 84, "note_on_time": 11.73, "note_off_time": 11.964}, {"pitch": 64, "velocity": 89, "note_on_time": 13.36, "note_off_time": 13.525}, {"pitch": 64, "velocity": 88, "note_on_time": 13.777, "note_off_time": 13.906}, {"pitch": 64, "velocity": 89, "note_on_time": 14.175, "note_off_time": 14.323}]</notes><guidance name="Guidance Mode">None</guidance><error name="Error value">0.16644999999999988</error></trial><trial trial_no="10" timestamp="2022_09_08-12_49_36"><notes name="Played Notes">[{"pitch": 62, "velocity": 85, "note_on_time": 1.196, "note_off_time": 1.399}, {"pitch": 60, "velocity": 92, "note_on_time": 1.581, "note_off_time": 2.274}, {"pitch": 64, "velocity": 86, "note_on_time": 2.526, "note_off_time": 2.67}, {"pitch": 60, "velocity": 88, "note_on_time": 3.572, "note_off_time": 3.722}, {"pitch": 60, "velocity": 91, "note_on_time": 3.964, "note_off_time": 4.15}, {"pitch": 60, "velocity": 85, "note_on_time": 4.388, "note_off_time": 4.62}, {"pitch": 62, "velocity": 86, "note_on_time": 5.677, "note_off_time": 5.823}, {"pitch": 64, "velocity": 84, "note_on_time": 6.071, "note_off_time": 6.217}, {"pitch": 60, "velocity": 90, "note_on_time": 6.461, "note_off_time": 6.616}, {"pitch": 60, "velocity": 91, "note_on_time": 6.888, "note_off_time": 7.064}, {"pitch": 62, "velocity": 89, "note_on_time": 7.245, "note_off_time": 7.394}, {"pitch": 64, "velocity": 78, "note_on_time": 8.891, "note_off_time": 9.035}, {"pitch": 60, "velocity": 85, "note_on_time": 9.28, "note_off_time": 9.44}, {"pitch": 64, "velocity": 80, "note_on_time": 9.71, "note_off_time": 9.847}, {"pitch": 60, "velocity": 87, "note_on_time": 10.146, "note_off_time": 10.346}, {"pitch": 64, "velocity": 84, "note_on_time": 10.927, "note_off_time": 11.052}, {"pitch": 60, "velocity": 89, "note_on_time": 11.325, "note_off_time": 11.489}, {"pitch": 64, "velocity": 82, "note_on_time": 11.739, "note_off_time": 11.888}, {"pitch": 62, "velocity": 84, "note_on_time": 12.137, "note_off_time": 12.288}, {"pitch": 62, "velocity": 74, "note_on_time": 12.567, "note_off_time": 12.642}, {"pitch": 64, "velocity": 56, "note_on_time": 12.64, "note_off_time": 12.736}, {"pitch": 64, "velocity": 85, "note_on_time": 12.994, "note_off_time": 13.134}, {"pitch": 64, "velocity": 86, "note_on_time": 13.424, "note_off_time": 13.57}, {"pitch": 62, "velocity": 89, "note_on_time": 13.792, "note_off_time": 13.93}, {"pitch": 62, "velocity": 91, "note_on_time": 14.468, "note_off_time": 14.569}, {"pitch": 62, "velocity": 89, "note_on_time": 14.851, "note_off_time": 14.962}, {"pitch": 62, "velocity": 87, "note_on_time": 15.241, "note_off_time": 15.343}]</notes><guidance name="Guidance Mode">None</guidance><error name="Error value">2.2208499999999995</error></trial><trial trial_no="11" timestamp="2022_09_08-12_50_31"><notes name="Played Notes">[{"pitch": 62, "velocity": 57, "note_on_time": 1.723, "note_off_time": 1.932}, {"pitch": 60, "velocity": 89, "note_on_time": 2.115, "note_off_time": 2.324}, {"pitch": 64, "velocity": 86, "note_on_time": 2.523, "note_off_time": 3.513}, {"pitch": 60, "velocity": 98, "note_on_time": 3.725, "note_off_time": 3.943}, {"pitch": 60, "velocity": 91, "note_on_time": 4.133, "note_off_time": 4.286}, {"pitch": 60, "velocity": 99, "note_on_time": 4.529, "note_off_time": 4.723}, {"pitch": 62, "velocity": 83, "note_on_time": 5.987, "note_off_time": 6.163}, {"pitch": 64, "velocity": 82, "note_on_time": 6.372, "note_off_time": 6.528}, {"pitch": 60, "velocity": 90, "note_on_time": 6.777, "note_off_time": 6.943}, {"pitch": 60, "velocity": 97, "note_on_time": 7.177, "note_off_time": 7.325}, {"pitch": 62, "velocity": 81, "note_on_time": 7.6, "note_off_time": 7.77}, {"pitch": 64, "velocity": 79, "note_on_time": 8.903, "note_off_time": 9.082}, {"pitch": 60, "velocity": 84, "note_on_time": 9.285, "note_off_time": 9.46}, {"pitch": 64, "velocity": 85, "note_on_time": 9.689, "note_off_time": 9.847}, {"pitch": 62, "velocity": 89, "note_on_time": 10.06, "note_off_time": 10.235}, {"pitch": 64, "velocity": 85, "note_on_time": 10.486, "note_off_time": 10.637}, {"pitch": 60, "velocity": 88, "note_on_time": 10.892, "note_off_time": 11.075}, {"pitch": 64, "velocity": 82, "note_on_time": 11.279, "note_off_time": 11.432}, {"pitch": 60, "velocity": 89, "note_on_time": 11.677, "note_off_time": 11.814}, {"pitch": 64, "velocity": 61, "note_on_time": 12.121, "note_off_time": 12.211}, {"pitch": 62, "velocity": 86, "note_on_time": 12.497, "note_off_time": 12.61}, {"pitch": 64, "velocity": 90, "note_on_time": 12.882, "note_off_time": 13.007}, {"pitch": 64, "velocity": 83, "note_on_time": 13.281, "note_off_time": 13.417}, {"pitch": 62, "velocity": 81, "note_on_time": 13.669, "note_off_time": 13.78}, {"pitch": 62, "velocity": 86, "note_on_time": 14.487, "note_off_time": 14.596}, {"pitch": 62, "velocity": 83, "note_on_time": 14.889, "note_off_time": 14.995}, {"pitch": 62, "velocity": 89, "note_on_time": 15.297, "note_off_time": 15.409}]</notes><guidance name="Guidance Mode">None</guidance><error name="Error value">2.8229999999999986</error></trial><trial trial_no="12" timestamp="2022_09_08-12_51_45"><notes name="Played Notes">[{"pitch": 62, "velocity": 93, "note_on_time": 1.538, "note_off_time": 1.713}, {"pitch": 60, "velocity": 93, "note_on_time": 1.951, "note_off_time": 2.129}, {"pitch": 64, "velocity": 84, "note_on_time": 2.367, "note_off_time": 2.998}, {"pitch": 60, "velocity": 87, "note_on_time": 3.322, "note_off_time": 3.504}, {"pitch": 60, "velocity": 84, "note_on_time": 3.739, "note_off_time": 3.891}, {"pitch": 60, "velocity": 89, "note_on_time": 4.158, "note_off_time": 4.38}, {"pitch": 62, "velocity": 90, "note_on_time": 5.589, "note_off_time": 5.761}, {"pitch": 64, "velocity": 85, "note_on_time": 6.018, "note_off_time": 6.176}, {"pitch": 60, "velocity": 92, "note_on_time": 6.414, "note_off_time": 6.569}, {"pitch": 60, "velocity": 89, "note_on_time": 6.84, "note_off_time": 6.973}, {"pitch": 60, "velocity": 87, "note_on_time": 7.27, "note_off_time": 7.406}, {"pitch": 62, "velocity": 88, "note_on_time": 7.686, "note_off_time": 7.834}, {"pitch": 64, "velocity": 79, "note_on_time": 9.267, "note_off_time": 9.456}, {"pitch": 60, "velocity": 89, "note_on_time": 9.651, "note_off_time": 9.834}, {"pitch": 64, "velocity": 82, "note_on_time": 10.047, "note_off_time": 10.219}, {"pitch": 62, "velocity": 89, "note_on_time": 10.456, "note_off_time": 10.61}, {"pitch": 64, "velocity": 86, "note_on_time": 10.861, "note_off_time": 11.011}, {"pitch": 60, "velocity": 92, "note_on_time": 11.254, "note_off_time": 11.427}, {"pitch": 64, "velocity": 85, "note_on_time": 11.669, "note_off_time": 11.855}, {"pitch": 60, "velocity": 87, "note_on_time": 12.103, "note_off_time": 12.276}, {"pitch": 62, "velocity": 88, "note_on_time": 12.504, "note_off_time": 12.657}, {"pitch": 64, "velocity": 80, "note_on_time": 12.931, "note_off_time": 13.061}, {"pitch": 64, "velocity": 92, "note_on_time": 13.33, "note_off_time": 13.466}, {"pitch": 62, "velocity": 91, "note_on_time": 13.735, "note_off_time": 13.932}, {"pitch": 62, "velocity": 95, "note_on_time": 15.279, "note_off_time": 15.401}, {"pitch": 62, "velocity": 94, "note_on_time": 15.68, "note_off_time": 15.799}, {"pitch": 62, "velocity": 93, "note_on_time": 16.062, "note_off_time": 16.178}]</notes><guidance name="Guidance Mode">None</guidance><error name="Error value">2.301999999999999</error></trial></trials></MIDI>