<MIDI midiNo="2022_12_01-10_42_30"><target_notes><notes name="Note List">[{"pitch": 42, "velocity": 80, "note_on_time": 0.004, "note_off_time": 0.221}, {"pitch": 42, "velocity": 80, "note_on_time": 0.221, "note_off_time": 0.44}, {"pitch": 42, "velocity": 80, "note_on_time": 0.44, "note_off_time": 0.66}, {"pitch": 42, "velocity": 80, "note_on_time": 0.66, "note_off_time": 0.881}, {"pitch": 65, "velocity": 80, "note_on_time": 0.881, "note_off_time": 1.1}, {"pitch": 42, "velocity": 80, "note_on_time": 0.881, "note_off_time": 1.1}, {"pitch": 64, "velocity": 80, "note_on_time": 1.1, "note_off_time": 1.318}, {"pitch": 42, "velocity": 80, "note_on_time": 1.1, "note_off_time": 1.318}, {"pitch": 64, "velocity": 80, "note_on_time": 1.318, "note_off_time": 1.537}, {"pitch": 42, "velocity": 80, "note_on_time": 1.318, "note_off_time": 1.537}, {"pitch": 62, "velocity": 80, "note_on_time": 1.537, "note_off_time": 1.754}, {"pitch": 42, "velocity": 80, "note_on_time": 1.537, "note_off_time": 1.754}, {"pitch": 60, "velocity": 80, "note_on_time": 1.754, "note_off_time": 1.97}, {"pitch": 42, "velocity": 80, "note_on_time": 1.754, "note_off_time": 1.97}, {"pitch": 42, "velocity": 80, "note_on_time": 1.97, "note_off_time": 2.188}, {"pitch": 42, "velocity": 80, "note_on_time": 2.188, "note_off_time": 2.405}, {"pitch": 42, "velocity": 80, "note_on_time": 2.405, "note_off_time": 2.623}, {"pitch": 65, "velocity": 80, "note_on_time": 2.623, "note_off_time": 2.841}, {"pitch": 42, "velocity": 80, "note_on_time": 2.623, "note_off_time": 2.841}, {"pitch": 65, "velocity": 80, "note_on_time": 2.841, "note_off_time": 3.058}, {"pitch": 42, "velocity": 80, "note_on_time": 2.841, "note_off_time": 3.058}, {"pitch": 42, "velocity": 80, "note_on_time": 3.058, "note_off_time": 3.274}, {"pitch": 42, "velocity": 80, "note_on_time": 3.274, "note_off_time": 3.492}, {"pitch": 65, "velocity": 80, "note_on_time": 3.492, "note_off_time": 3.711}, {"pitch": 42, "velocity": 80, "note_on_time": 3.492, "note_off_time": 3.711}, {"pitch": 60, "velocity": 80, "note_on_time": 3.711, "note_off_time": 3.928}, {"pitch": 42, "velocity": 80, "note_on_time": 3.711, "note_off_time": 3.928}, {"pitch": 62, "velocity": 80, "note_on_time": 3.928, "note_off_time": 4.149}, {"pitch": 42, "velocity": 80, "note_on_time": 3.928, "note_off_time": 4.149}, {"pitch": 64, "velocity": 80, "note_on_time": 4.149, "note_off_time": 4.367}, {"pitch": 42, "velocity": 80, "note_on_time": 4.149, "note_off_time": 4.367}, {"pitch": 65, "velocity": 80, "note_on_time": 4.367, "note_off_time": 4.585}, {"pitch": 42, "velocity": 80, "note_on_time": 4.367, "note_off_time": 4.585}, {"pitch": 42, "velocity": 80, "note_on_time": 4.585, "note_off_time": 4.804}, {"pitch": 62, "velocity": 80, "note_on_time": 4.585, "note_off_time": 5.025}, {"pitch": 42, "velocity": 80, "note_on_time": 4.804, "note_off_time": 5.025}, {"pitch": 42, "velocity": 80, "note_on_time": 5.025, "note_off_time": 5.24}, {"pitch": 62, "velocity": 80, "note_on_time": 5.24, "note_off_time": 5.459}, {"pitch": 42, "velocity": 80, "note_on_time": 5.24, "note_off_time": 5.459}, {"pitch": 65, "velocity": 80, "note_on_time": 5.459, "note_off_time": 5.675}, {"pitch": 42, "velocity": 80, "note_on_time": 5.459, "note_off_time": 5.675}, {"pitch": 67, "velocity": 80, "note_on_time": 5.675, "note_off_time": 5.896}, {"pitch": 42, "velocity": 80, "note_on_time": 5.675, "note_off_time": 5.896}, {"pitch": 62, "velocity": 80, "note_on_time": 5.896, "note_off_time": 6.116}, {"pitch": 42, "velocity": 80, "note_on_time": 5.896, "note_off_time": 6.116}, {"pitch": 65, "velocity": 80, "note_on_time": 6.116, "note_off_time": 6.332}, {"pitch": 42, "velocity": 80, "note_on_time": 6.116, "note_off_time": 6.332}, {"pitch": 42, "velocity": 80, "note_on_time": 6.332, "note_off_time": 6.551}, {"pitch": 60, "velocity": 80, "note_on_time": 6.332, "note_off_time": 6.768}, {"pitch": 42, "velocity": 80, "note_on_time": 6.551, "note_off_time": 6.768}, {"pitch": 42, "velocity": 80, "note_on_time": 6.768, "note_off_time": 6.984}, {"pitch": 42, "velocity": 80, "note_on_time": 6.984, "note_off_time": 7.202}, {"pitch": 60, "velocity": 80, "note_on_time": 7.202, "note_off_time": 7.42}, {"pitch": 42, "velocity": 80, "note_on_time": 7.202, "note_off_time": 7.42}, {"pitch": 60, "velocity": 80, "note_on_time": 7.42, "note_off_time": 7.64}, {"pitch": 42, "velocity": 80, "note_on_time": 7.42, "note_off_time": 7.64}, {"pitch": 60, "velocity": 80, "note_on_time": 7.64, "note_off_time": 7.859}, {"pitch": 42, "velocity": 80, "note_on_time": 7.64, "note_off_time": 7.859}]</notes><options name="Option List">((4, 4), [0.5, 0.25], 3, 8, &lt;NoteRangePerHand.C_TO_G: 6&gt;, &lt;NoteRangePerHand.ONE_NOTE: 2&gt;, False, True, False, '281')</options></target_notes><trials><trial trial_no="1" timestamp="2022_12_01-10_42_21"><notes name="Played Notes">[{"pitch": 65, "velocity": 72, "note_on_time": 1.178, "note_off_time": 1.436}, {"pitch": 64, "velocity": 68, "note_on_time": 1.417, "note_off_time": 1.497}, {"pitch": 64, "velocity": 75, "note_on_time": 1.618, "note_off_time": 1.853}, {"pitch": 62, "velocity": 69, "note_on_time": 1.844, "note_off_time": 2.072}, {"pitch": 60, "velocity": 79, "note_on_time": 2.045, "note_off_time": 2.446}, {"pitch": 65, "velocity": 79, "note_on_time": 2.916, "note_off_time": 3.025}, {"pitch": 65, "velocity": 75, "note_on_time": 3.145, "note_off_time": 3.344}, {"pitch": 65, "velocity": 76, "note_on_time": 3.811, "note_off_time": 4.009}, {"pitch": 60, "velocity": 68, "note_on_time": 4.013, "note_off_time": 4.281}, {"pitch": 62, "velocity": 69, "note_on_time": 4.248, "note_off_time": 4.486}, {"pitch": 64, "velocity": 70, "note_on_time": 4.439, "note_off_time": 4.688}, {"pitch": 65, "velocity": 80, "note_on_time": 4.67, "note_off_time": 4.932}, {"pitch": 62, "velocity": 71, "note_on_time": 4.892, "note_off_time": 5.244}, {"pitch": 62, "velocity": 74, "note_on_time": 5.484, "note_off_time": 5.654}, {"pitch": 65, "velocity": 78, "note_on_time": 5.656, "note_off_time": 5.901}, {"pitch": 67, "velocity": 73, "note_on_time": 5.889, "note_off_time": 6.137}, {"pitch": 62, "velocity": 76, "note_on_time": 6.103, "note_off_time": 6.348}, {"pitch": 65, "velocity": 74, "note_on_time": 6.323, "note_off_time": 6.562}, {"pitch": 60, "velocity": 68, "note_on_time": 6.544, "note_off_time": 6.843}, {"pitch": 60, "velocity": 69, "note_on_time": 7.383, "note_off_time": 7.459}, {"pitch": 60, "velocity": 84, "note_on_time": 7.596, "note_off_time": 7.689}]</notes><guidance name="Guidance Mode">None</guidance><error name="Error value">0.08186478947368422</error></trial><trial trial_no="2" timestamp="2022_12_01-10_42_52"><notes name="Played Notes">[{"pitch": 65, "velocity": 73, "note_on_time": 4.531, "note_off_time": 4.723}, {"pitch": 64, "velocity": 65, "note_on_time": 4.72, "note_off_time": 4.807}, {"pitch": 64, "velocity": 69, "note_on_time": 4.941, "note_off_time": 5.151}, {"pitch": 62, "velocity": 68, "note_on_time": 5.131, "note_off_time": 5.344}, {"pitch": 60, "velocity": 79, "note_on_time": 5.327, "note_off_time": 5.594}, {"pitch": 65, "velocity": 76, "note_on_time": 6.134, "note_off_time": 6.22}, {"pitch": 65, "velocity": 78, "note_on_time": 6.351, "note_off_time": 6.514}, {"pitch": 65, "velocity": 71, "note_on_time": 6.942, "note_off_time": 7.146}, {"pitch": 60, "velocity": 72, "note_on_time": 7.137, "note_off_time": 7.385}, {"pitch": 62, "velocity": 71, "note_on_time": 7.357, "note_off_time": 7.565}, {"pitch": 64, "velocity": 67, "note_on_time": 7.533, "note_off_time": 7.829}]</notes><guidance name="Guidance Mode">None</guidance><error name="Error value">0.9440493157894738</error></trial><trial trial_no="3" timestamp="2022_12_01-10_43_16"><notes name="Played Notes">[{"pitch": 65, "velocity": 70, "note_on_time": 1.35, "note_off_time": 1.554}, {"pitch": 64, "velocity": 68, "note_on_time": 1.555, "note_off_time": 1.663}, {"pitch": 64, "velocity": 76, "note_on_time": 1.792, "note_off_time": 1.985}, {"pitch": 62, "velocity": 73, "note_on_time": 1.973, "note_off_time": 2.254}, {"pitch": 60, "velocity": 86, "note_on_time": 2.211, "note_off_time": 2.446}, {"pitch": 65, "velocity": 74, "note_on_time": 3.084, "note_off_time": 3.186}, {"pitch": 65, "velocity": 77, "note_on_time": 3.313, "note_off_time": 3.442}, {"pitch": 65, "velocity": 69, "note_on_time": 3.93, "note_off_time": 4.163}, {"pitch": 60, "velocity": 58, "note_on_time": 4.14, "note_off_time": 4.367}, {"pitch": 62, "velocity": 72, "note_on_time": 4.338, "note_off_time": 4.576}, {"pitch": 64, "velocity": 73, "note_on_time": 4.545, "note_off_time": 4.798}, {"pitch": 65, "velocity": 74, "note_on_time": 4.772, "note_off_time": 5.024}, {"pitch": 62, "velocity": 73, "note_on_time": 4.985, "note_off_time": 5.354}, {"pitch": 62, "velocity": 77, "note_on_time": 5.58, "note_off_time": 5.79}, {"pitch": 65, "velocity": 77, "note_on_time": 5.759, "note_off_time": 6.009}, {"pitch": 67, "velocity": 74, "note_on_time": 5.988, "note_off_time": 6.233}, {"pitch": 62, "velocity": 72, "note_on_time": 6.194, "note_off_time": 6.435}, {"pitch": 65, "velocity": 74, "note_on_time": 6.414, "note_off_time": 6.669}, {"pitch": 60, "velocity": 77, "note_on_time": 6.651, "note_off_time": 6.953}, {"pitch": 60, "velocity": 75, "note_on_time": 7.437, "note_off_time": 7.532}, {"pitch": 60, "velocity": 80, "note_on_time": 7.643, "note_off_time": 7.722}]</notes><guidance name="Guidance Mode">None</guidance><error name="Error value">0.08466878947368428</error></trial><trial trial_no="4" timestamp="2022_12_01-10_43_34"><notes name="Played Notes">[{"pitch": 65, "velocity": 67, "note_on_time": 0.946, "note_off_time": 1.131}, {"pitch": 64, "velocity": 71, "note_on_time": 1.148, "note_off_time": 1.232}, {"pitch": 64, "velocity": 78, "note_on_time": 1.36, "note_off_time": 1.539}, {"pitch": 62, "velocity": 69, "note_on_time": 1.555, "note_off_time": 1.775}, {"pitch": 60, "velocity": 87, "note_on_time": 1.791, "note_off_time": 2.092}, {"pitch": 65, "velocity": 78, "note_on_time": 2.639, "note_off_time": 2.709}, {"pitch": 65, "velocity": 87, "note_on_time": 2.851, "note_off_time": 2.953}, {"pitch": 65, "velocity": 76, "note_on_time": 3.446, "note_off_time": 3.668}, {"pitch": 60, "velocity": 74, "note_on_time": 3.639, "note_off_time": 3.852}, {"pitch": 62, "velocity": 79, "note_on_time": 3.841, "note_off_time": 4.059}, {"pitch": 64, "velocity": 77, "note_on_time": 4.025, "note_off_time": 4.264}, {"pitch": 65, "velocity": 74, "note_on_time": 4.24, "note_off_time": 4.504}, {"pitch": 62, "velocity": 73, "note_on_time": 4.463, "note_off_time": 4.806}, {"pitch": 62, "velocity": 82, "note_on_time": 5.04, "note_off_time": 5.247}, {"pitch": 65, "velocity": 71, "note_on_time": 5.218, "note_off_time": 5.472}, {"pitch": 67, "velocity": 78, "note_on_time": 5.443, "note_off_time": 5.674}, {"pitch": 62, "velocity": 72, "note_on_time": 5.636, "note_off_time": 5.879}, {"pitch": 65, "velocity": 78, "note_on_time": 5.855, "note_off_time": 6.099}, {"pitch": 60, "velocity": 74, "note_on_time": 6.064, "note_off_time": 6.363}, {"pitch": 60, "velocity": 86, "note_on_time": 6.857, "note_off_time": 6.949}, {"pitch": 60, "velocity": 78, "note_on_time": 7.05, "note_off_time": 7.149}, {"pitch": 60, "velocity": 81, "note_on_time": 7.264, "note_off_time": 7.375}]</notes><guidance name="Guidance Mode">None</guidance><error name="Error value">0.02120721052631574</error></trial><trial trial_no="5" timestamp="2022_12_01-10_43_54"><notes name="Played Notes">[{"pitch": 65, "velocity": 57, "note_on_time": 1.026, "note_off_time": 1.153}, {"pitch": 64, "velocity": 74, "note_on_time": 1.236, "note_off_time": 1.312}, {"pitch": 64, "velocity": 67, "note_on_time": 1.43, "note_off_time": 1.58}, {"pitch": 62, "velocity": 76, "note_on_time": 1.599, "note_off_time": 1.907}, {"pitch": 60, "velocity": 82, "note_on_time": 1.87, "note_off_time": 2.057}, {"pitch": 65, "velocity": 76, "note_on_time": 2.677, "note_off_time": 2.776}, {"pitch": 65, "velocity": 77, "note_on_time": 2.903, "note_off_time": 3.085}, {"pitch": 65, "velocity": 68, "note_on_time": 3.492, "note_off_time": 3.729}, {"pitch": 60, "velocity": 69, "note_on_time": 3.683, "note_off_time": 3.941}, {"pitch": 62, "velocity": 73, "note_on_time": 3.897, "note_off_time": 4.146}, {"pitch": 64, "velocity": 70, "note_on_time": 4.096, "note_off_time": 4.342}, {"pitch": 65, "velocity": 82, "note_on_time": 4.307, "note_off_time": 4.567}, {"pitch": 62, "velocity": 70, "note_on_time": 4.532, "note_off_time": 4.743}, {"pitch": 62, "velocity": 82, "note_on_time": 5.125, "note_off_time": 5.356}, {"pitch": 65, "velocity": 79, "note_on_time": 5.326, "note_off_time": 5.543}, {"pitch": 67, "velocity": 74, "note_on_time": 5.534, "note_off_time": 5.775}, {"pitch": 62, "velocity": 71, "note_on_time": 5.735, "note_off_time": 5.993}, {"pitch": 65, "velocity": 74, "note_on_time": 5.952, "note_off_time": 6.208}, {"pitch": 60, "velocity": 77, "note_on_time": 6.181, "note_off_time": 6.387}, {"pitch": 60, "velocity": 87, "note_on_time": 6.937, "note_off_time": 7.039}, {"pitch": 60, "velocity": 72, "note_on_time": 7.149, "note_off_time": 7.234}, {"pitch": 60, "velocity": 82, "note_on_time": 7.37, "note_off_time": 7.492}]</notes><guidance name="Guidance Mode">None</guidance><error name="Error value">0.025888999999999964</error></trial></trials></MIDI>