<MIDI midiNo="2022_09_29-12_59_32"><target_notes><notes name="Note List">[{"pitch": 42, "velocity": 80, "note_on_time": 0.003, "note_off_time": 0.229}, {"pitch": 42, "velocity": 80, "note_on_time": 0.229, "note_off_time": 0.449}, {"pitch": 42, "velocity": 80, "note_on_time": 0.449, "note_off_time": 0.665}, {"pitch": 42, "velocity": 80, "note_on_time": 0.665, "note_off_time": 0.883}, {"pitch": 64, "velocity": 80, "note_on_time": 0.883, "note_off_time": 1.101}, {"pitch": 42, "velocity": 80, "note_on_time": 0.883, "note_off_time": 1.101}, {"pitch": 62, "velocity": 80, "note_on_time": 1.101, "note_off_time": 1.319}, {"pitch": 42, "velocity": 80, "note_on_time": 1.101, "note_off_time": 1.319}, {"pitch": 64, "velocity": 80, "note_on_time": 1.319, "note_off_time": 1.537}, {"pitch": 42, "velocity": 80, "note_on_time": 1.319, "note_off_time": 1.537}, {"pitch": 62, "velocity": 80, "note_on_time": 1.537, "note_off_time": 1.753}, {"pitch": 42, "velocity": 80, "note_on_time": 1.537, "note_off_time": 1.753}, {"pitch": 64, "velocity": 80, "note_on_time": 1.753, "note_off_time": 1.97}, {"pitch": 42, "velocity": 80, "note_on_time": 1.753, "note_off_time": 1.97}, {"pitch": 64, "velocity": 80, "note_on_time": 1.97, "note_off_time": 2.187}, {"pitch": 42, "velocity": 80, "note_on_time": 1.97, "note_off_time": 2.187}, {"pitch": 64, "velocity": 80, "note_on_time": 2.187, "note_off_time": 2.408}, {"pitch": 42, "velocity": 80, "note_on_time": 2.187, "note_off_time": 2.408}, {"pitch": 62, "velocity": 80, "note_on_time": 2.408, "note_off_time": 2.628}, {"pitch": 42, "velocity": 80, "note_on_time": 2.408, "note_off_time": 2.628}, {"pitch": 62, "velocity": 80, "note_on_time": 2.628, "note_off_time": 2.844}, {"pitch": 42, "velocity": 80, "note_on_time": 2.628, "note_off_time": 2.844}, {"pitch": 62, "velocity": 80, "note_on_time": 2.844, "note_off_time": 3.063}, {"pitch": 42, "velocity": 80, "note_on_time": 2.844, "note_off_time": 3.063}, {"pitch": 64, "velocity": 80, "note_on_time": 3.063, "note_off_time": 3.284}, {"pitch": 42, "velocity": 80, "note_on_time": 3.063, "note_off_time": 3.284}, {"pitch": 64, "velocity": 80, "note_on_time": 3.284, "note_off_time": 3.515}, {"pitch": 42, "velocity": 80, "note_on_time": 3.284, "note_off_time": 3.515}, {"pitch": 62, "velocity": 80, "note_on_time": 3.515, "note_off_time": 3.732}, {"pitch": 42, "velocity": 80, "note_on_time": 3.515, "note_off_time": 3.732}, {"pitch": 60, "velocity": 80, "note_on_time": 3.732, "note_off_time": 3.951}, {"pitch": 42, "velocity": 80, "note_on_time": 3.733, "note_off_time": 3.951}, {"pitch": 62, "velocity": 80, "note_on_time": 3.951, "note_off_time": 4.169}, {"pitch": 42, "velocity": 80, "note_on_time": 3.952, "note_off_time": 4.169}, {"pitch": 62, "velocity": 80, "note_on_time": 4.169, "note_off_time": 4.388}, {"pitch": 42, "velocity": 80, "note_on_time": 4.169, "note_off_time": 4.388}, {"pitch": 60, "velocity": 80, "note_on_time": 4.388, "note_off_time": 4.619}, {"pitch": 42, "velocity": 80, "note_on_time": 4.388, "note_off_time": 4.619}, {"pitch": 60, "velocity": 80, "note_on_time": 4.619, "note_off_time": 4.837}, {"pitch": 42, "velocity": 80, "note_on_time": 4.619, "note_off_time": 4.837}, {"pitch": 60, "velocity": 80, "note_on_time": 4.837, "note_off_time": 5.057}, {"pitch": 42, "velocity": 80, "note_on_time": 4.837, "note_off_time": 5.057}, {"pitch": 62, "velocity": 80, "note_on_time": 5.057, "note_off_time": 5.273}, {"pitch": 42, "velocity": 80, "note_on_time": 5.057, "note_off_time": 5.273}, {"pitch": 42, "velocity": 80, "note_on_time": 5.273, "note_off_time": 5.493}, {"pitch": 64, "velocity": 80, "note_on_time": 5.273, "note_off_time": 5.711}, {"pitch": 42, "velocity": 80, "note_on_time": 5.493, "note_off_time": 5.711}, {"pitch": 60, "velocity": 80, "note_on_time": 5.711, "note_off_time": 5.926}, {"pitch": 42, "velocity": 80, "note_on_time": 5.711, "note_off_time": 5.926}, {"pitch": 64, "velocity": 80, "note_on_time": 5.926, "note_off_time": 6.144}, {"pitch": 42, "velocity": 80, "note_on_time": 5.927, "note_off_time": 6.144}, {"pitch": 42, "velocity": 80, "note_on_time": 6.144, "note_off_time": 6.374}, {"pitch": 60, "velocity": 80, "note_on_time": 6.144, "note_off_time": 6.59}, {"pitch": 42, "velocity": 80, "note_on_time": 6.374, "note_off_time": 6.59}, {"pitch": 42, "velocity": 80, "note_on_time": 6.59, "note_off_time": 6.808}, {"pitch": 62, "velocity": 80, "note_on_time": 6.808, "note_off_time": 7.028}, {"pitch": 42, "velocity": 80, "note_on_time": 6.808, "note_off_time": 7.028}, {"pitch": 42, "velocity": 80, "note_on_time": 7.028, "note_off_time": 7.244}, {"pitch": 62, "velocity": 80, "note_on_time": 7.244, "note_off_time": 7.461}, {"pitch": 42, "velocity": 80, "note_on_time": 7.244, "note_off_time": 7.462}, {"pitch": 62, "velocity": 80, "note_on_time": 7.461, "note_off_time": 7.679}, {"pitch": 42, "velocity": 80, "note_on_time": 7.462, "note_off_time": 7.679}, {"pitch": 62, "velocity": 80, "note_on_time": 7.679, "note_off_time": 7.898}, {"pitch": 42, "velocity": 80, "note_on_time": 7.68, "note_off_time": 7.898}]</notes><options name="Option List">((4, 4), [0.5, 0.25], 3, 8, &lt;NoteRangePerHand.THREE_NOTES: 4&gt;, &lt;NoteRangePerHand.ONE_NOTE: 2&gt;, False, True, False, '280')</options></target_notes><trials><trial trial_no="1" timestamp="2022_09_29-12_59_23"><notes name="Played Notes">[{"pitch": 64, "velocity": 86, "note_on_time": 0.879, "note_off_time": 1.09}, {"pitch": 62, "velocity": 81, "note_on_time": 1.086, "note_off_time": 1.307}, {"pitch": 64, "velocity": 82, "note_on_time": 1.319, "note_off_time": 1.567}, {"pitch": 62, "velocity": 85, "note_on_time": 1.562, "note_off_time": 1.682}, {"pitch": 64, "velocity": 81, "note_on_time": 1.766, "note_off_time": 1.869}, {"pitch": 64, "velocity": 78, "note_on_time": 1.992, "note_off_time": 2.092}, {"pitch": 64, "velocity": 72, "note_on_time": 2.202, "note_off_time": 2.323}, {"pitch": 62, "velocity": 77, "note_on_time": 2.424, "note_off_time": 2.522}, {"pitch": 62, "velocity": 74, "note_on_time": 2.633, "note_off_time": 2.725}, {"pitch": 62, "velocity": 77, "note_on_time": 2.862, "note_off_time": 2.942}, {"pitch": 64, "velocity": 85, "note_on_time": 3.072, "note_off_time": 3.16}, {"pitch": 64, "velocity": 74, "note_on_time": 3.281, "note_off_time": 3.388}, {"pitch": 62, "velocity": 83, "note_on_time": 3.52, "note_off_time": 3.723}, {"pitch": 60, "velocity": 82, "note_on_time": 3.741, "note_off_time": 3.862}, {"pitch": 62, "velocity": 87, "note_on_time": 3.97, "note_off_time": 4.05}, {"pitch": 62, "velocity": 80, "note_on_time": 4.189, "note_off_time": 4.266}, {"pitch": 60, "velocity": 86, "note_on_time": 4.382, "note_off_time": 4.47}, {"pitch": 60, "velocity": 76, "note_on_time": 4.584, "note_off_time": 4.674}, {"pitch": 60, "velocity": 88, "note_on_time": 4.833, "note_off_time": 4.915}, {"pitch": 62, "velocity": 87, "note_on_time": 5.049, "note_off_time": 5.132}, {"pitch": 64, "velocity": 85, "note_on_time": 5.278, "note_off_time": 5.62}, {"pitch": 60, "velocity": 92, "note_on_time": 5.732, "note_off_time": 5.851}, {"pitch": 64, "velocity": 82, "note_on_time": 5.947, "note_off_time": 6.099}, {"pitch": 60, "velocity": 86, "note_on_time": 6.17, "note_off_time": 6.463}, {"pitch": 64, "velocity": 74, "note_on_time": 6.573, "note_off_time": 6.921}, {"pitch": 62, "velocity": 82, "note_on_time": 7.036, "note_off_time": 7.116}, {"pitch": 62, "velocity": 89, "note_on_time": 7.254, "note_off_time": 7.34}, {"pitch": 62, "velocity": 88, "note_on_time": 7.464, "note_off_time": 7.596}]</notes><guidance name="Guidance Mode">None</guidance><error name="Error value">0.06284019999999989</error></trial><trial trial_no="2" timestamp="2022_09_29-12_59_46"><notes name="Played Notes">[{"pitch": 64, "velocity": 80, "note_on_time": 0.844, "note_off_time": 1.088}, {"pitch": 62, "velocity": 84, "note_on_time": 1.084, "note_off_time": 1.287}, {"pitch": 64, "velocity": 81, "note_on_time": 1.298, "note_off_time": 1.52}, {"pitch": 62, "velocity": 82, "note_on_time": 1.524, "note_off_time": 1.673}, {"pitch": 64, "velocity": 78, "note_on_time": 1.741, "note_off_time": 1.857}, {"pitch": 64, "velocity": 83, "note_on_time": 1.97, "note_off_time": 2.076}, {"pitch": 64, "velocity": 78, "note_on_time": 2.179, "note_off_time": 2.301}, {"pitch": 62, "velocity": 84, "note_on_time": 2.407, "note_off_time": 2.507}, {"pitch": 62, "velocity": 77, "note_on_time": 2.622, "note_off_time": 2.719}, {"pitch": 62, "velocity": 81, "note_on_time": 2.847, "note_off_time": 2.943}, {"pitch": 64, "velocity": 88, "note_on_time": 3.073, "note_off_time": 3.164}, {"pitch": 64, "velocity": 83, "note_on_time": 3.286, "note_off_time": 3.402}, {"pitch": 62, "velocity": 87, "note_on_time": 3.525, "note_off_time": 3.713}, {"pitch": 60, "velocity": 86, "note_on_time": 3.728, "note_off_time": 3.862}, {"pitch": 62, "velocity": 89, "note_on_time": 3.955, "note_off_time": 4.044}, {"pitch": 62, "velocity": 91, "note_on_time": 4.177, "note_off_time": 4.269}, {"pitch": 60, "velocity": 90, "note_on_time": 4.382, "note_off_time": 4.474}, {"pitch": 60, "velocity": 84, "note_on_time": 4.603, "note_off_time": 4.69}, {"pitch": 60, "velocity": 93, "note_on_time": 4.837, "note_off_time": 4.916}, {"pitch": 62, "velocity": 90, "note_on_time": 5.047, "note_off_time": 5.13}, {"pitch": 64, "velocity": 86, "note_on_time": 5.265, "note_off_time": 5.631}, {"pitch": 60, "velocity": 94, "note_on_time": 5.71, "note_off_time": 5.85}, {"pitch": 64, "velocity": 87, "note_on_time": 5.929, "note_off_time": 6.07}, {"pitch": 60, "velocity": 92, "note_on_time": 6.151, "note_off_time": 6.666}, {"pitch": 64, "velocity": 92, "note_on_time": 6.8, "note_off_time": 6.919}, {"pitch": 62, "velocity": 90, "note_on_time": 7.022, "note_off_time": 7.12}, {"pitch": 62, "velocity": 79, "note_on_time": 7.248, "note_off_time": 7.333}, {"pitch": 62, "velocity": 94, "note_on_time": 7.464, "note_off_time": 7.549}, {"pitch": 62, "velocity": 100, "note_on_time": 7.688, "note_off_time": 7.799}]</notes><guidance name="Guidance Mode">None</guidance><error name="Error value">0.18578899999999973</error></trial><trial trial_no="3" timestamp="2022_09_29-13_00_13"><notes name="Played Notes">[{"pitch": 64, "velocity": 72, "note_on_time": 0.85, "note_off_time": 1.104}, {"pitch": 62, "velocity": 74, "note_on_time": 1.092, "note_off_time": 1.326}, {"pitch": 64, "velocity": 78, "note_on_time": 1.328, "note_off_time": 1.533}, {"pitch": 62, "velocity": 81, "note_on_time": 1.531, "note_off_time": 1.7}, {"pitch": 64, "velocity": 74, "note_on_time": 1.748, "note_off_time": 1.871}, {"pitch": 64, "velocity": 80, "note_on_time": 1.979, "note_off_time": 2.081}, {"pitch": 64, "velocity": 82, "note_on_time": 2.186, "note_off_time": 2.313}, {"pitch": 62, "velocity": 82, "note_on_time": 2.395, "note_off_time": 2.5}, {"pitch": 62, "velocity": 69, "note_on_time": 2.609, "note_off_time": 2.709}, {"pitch": 62, "velocity": 74, "note_on_time": 2.834, "note_off_time": 2.939}, {"pitch": 64, "velocity": 91, "note_on_time": 3.063, "note_off_time": 3.15}, {"pitch": 64, "velocity": 85, "note_on_time": 3.268, "note_off_time": 3.382}, {"pitch": 62, "velocity": 91, "note_on_time": 3.495, "note_off_time": 3.712}, {"pitch": 60, "velocity": 84, "note_on_time": 3.72, "note_off_time": 3.886}, {"pitch": 62, "velocity": 86, "note_on_time": 3.935, "note_off_time": 4.047}, {"pitch": 62, "velocity": 87, "note_on_time": 4.153, "note_off_time": 4.266}, {"pitch": 60, "velocity": 86, "note_on_time": 4.36, "note_off_time": 4.456}, {"pitch": 60, "velocity": 79, "note_on_time": 4.561, "note_off_time": 4.679}, {"pitch": 60, "velocity": 88, "note_on_time": 4.813, "note_off_time": 4.904}, {"pitch": 62, "velocity": 89, "note_on_time": 5.028, "note_off_time": 5.11}, {"pitch": 64, "velocity": 89, "note_on_time": 5.245, "note_off_time": 5.639}, {"pitch": 60, "velocity": 89, "note_on_time": 5.695, "note_off_time": 5.827}, {"pitch": 64, "velocity": 86, "note_on_time": 5.916, "note_off_time": 6.035}, {"pitch": 60, "velocity": 90, "note_on_time": 6.135, "note_off_time": 6.496}, {"pitch": 62, "velocity": 96, "note_on_time": 6.79, "note_off_time": 7.039}, {"pitch": 62, "velocity": 93, "note_on_time": 7.191, "note_off_time": 7.293}, {"pitch": 62, "velocity": 89, "note_on_time": 7.394, "note_off_time": 7.485}, {"pitch": 62, "velocity": 105, "note_on_time": 7.617, "note_off_time": 7.782}]</notes><guidance name="Guidance Mode">None</guidance><error name="Error value">0.012394600000000007</error></trial></trials></MIDI>