<MIDI midiNo="2022_11_13-12_49_58"><target_notes><notes name="Note List">[{"pitch": 42, "velocity": 80, "note_on_time": 0.004, "note_off_time": 0.226}, {"pitch": 42, "velocity": 80, "note_on_time": 0.226, "note_off_time": 0.444}, {"pitch": 42, "velocity": 80, "note_on_time": 0.445, "note_off_time": 0.662}, {"pitch": 42, "velocity": 80, "note_on_time": 0.662, "note_off_time": 0.881}, {"pitch": 62, "velocity": 80, "note_on_time": 0.881, "note_off_time": 1.1}, {"pitch": 42, "velocity": 80, "note_on_time": 0.881, "note_off_time": 1.1}, {"pitch": 65, "velocity": 80, "note_on_time": 1.1, "note_off_time": 1.319}, {"pitch": 42, "velocity": 80, "note_on_time": 1.1, "note_off_time": 1.319}, {"pitch": 65, "velocity": 80, "note_on_time": 1.319, "note_off_time": 1.538}, {"pitch": 42, "velocity": 80, "note_on_time": 1.319, "note_off_time": 1.538}, {"pitch": 60, "velocity": 80, "note_on_time": 1.538, "note_off_time": 1.756}, {"pitch": 42, "velocity": 80, "note_on_time": 1.539, "note_off_time": 1.756}, {"pitch": 64, "velocity": 80, "note_on_time": 1.756, "note_off_time": 1.972}, {"pitch": 42, "velocity": 80, "note_on_time": 1.756, "note_off_time": 1.972}, {"pitch": 62, "velocity": 80, "note_on_time": 1.972, "note_off_time": 2.19}, {"pitch": 42, "velocity": 80, "note_on_time": 1.972, "note_off_time": 2.19}, {"pitch": 65, "velocity": 80, "note_on_time": 2.19, "note_off_time": 2.407}, {"pitch": 42, "velocity": 80, "note_on_time": 2.19, "note_off_time": 2.408}, {"pitch": 67, "velocity": 80, "note_on_time": 2.407, "note_off_time": 2.624}, {"pitch": 42, "velocity": 80, "note_on_time": 2.408, "note_off_time": 2.624}, {"pitch": 42, "velocity": 80, "note_on_time": 2.624, "note_off_time": 2.843}, {"pitch": 60, "velocity": 80, "note_on_time": 2.624, "note_off_time": 3.059}, {"pitch": 42, "velocity": 80, "note_on_time": 2.843, "note_off_time": 3.059}, {"pitch": 42, "velocity": 80, "note_on_time": 3.059, "note_off_time": 3.277}, {"pitch": 42, "velocity": 80, "note_on_time": 3.277, "note_off_time": 3.496}, {"pitch": 62, "velocity": 80, "note_on_time": 3.496, "note_off_time": 3.715}, {"pitch": 42, "velocity": 80, "note_on_time": 3.496, "note_off_time": 3.715}, {"pitch": 42, "velocity": 80, "note_on_time": 3.715, "note_off_time": 3.933}, {"pitch": 42, "velocity": 80, "note_on_time": 3.933, "note_off_time": 4.152}, {"pitch": 42, "velocity": 80, "note_on_time": 4.152, "note_off_time": 4.369}, {"pitch": 64, "velocity": 80, "note_on_time": 4.369, "note_off_time": 4.587}, {"pitch": 42, "velocity": 80, "note_on_time": 4.369, "note_off_time": 4.587}, {"pitch": 67, "velocity": 80, "note_on_time": 4.587, "note_off_time": 4.807}, {"pitch": 42, "velocity": 80, "note_on_time": 4.587, "note_off_time": 4.807}, {"pitch": 42, "velocity": 80, "note_on_time": 4.807, "note_off_time": 5.025}, {"pitch": 65, "velocity": 80, "note_on_time": 4.807, "note_off_time": 5.243}, {"pitch": 42, "velocity": 80, "note_on_time": 5.025, "note_off_time": 5.243}, {"pitch": 42, "velocity": 80, "note_on_time": 5.243, "note_off_time": 5.461}, {"pitch": 65, "velocity": 80, "note_on_time": 5.243, "note_off_time": 5.68}, {"pitch": 42, "velocity": 80, "note_on_time": 5.461, "note_off_time": 5.68}, {"pitch": 42, "velocity": 80, "note_on_time": 5.68, "note_off_time": 5.898}, {"pitch": 62, "velocity": 80, "note_on_time": 5.898, "note_off_time": 6.118}, {"pitch": 42, "velocity": 80, "note_on_time": 5.898, "note_off_time": 6.118}, {"pitch": 67, "velocity": 80, "note_on_time": 6.118, "note_off_time": 6.337}, {"pitch": 42, "velocity": 80, "note_on_time": 6.118, "note_off_time": 6.337}, {"pitch": 64, "velocity": 80, "note_on_time": 6.337, "note_off_time": 6.554}, {"pitch": 42, "velocity": 80, "note_on_time": 6.337, "note_off_time": 6.554}, {"pitch": 60, "velocity": 80, "note_on_time": 6.554, "note_off_time": 6.773}, {"pitch": 42, "velocity": 80, "note_on_time": 6.555, "note_off_time": 6.773}, {"pitch": 64, "velocity": 80, "note_on_time": 6.773, "note_off_time": 6.991}, {"pitch": 42, "velocity": 80, "note_on_time": 6.773, "note_off_time": 6.991}, {"pitch": 42, "velocity": 80, "note_on_time": 6.991, "note_off_time": 7.212}, {"pitch": 64, "velocity": 80, "note_on_time": 7.212, "note_off_time": 7.432}, {"pitch": 42, "velocity": 80, "note_on_time": 7.212, "note_off_time": 7.432}, {"pitch": 64, "velocity": 80, "note_on_time": 7.432, "note_off_time": 7.649}, {"pitch": 42, "velocity": 80, "note_on_time": 7.432, "note_off_time": 7.649}, {"pitch": 64, "velocity": 80, "note_on_time": 7.649, "note_off_time": 7.868}, {"pitch": 42, "velocity": 80, "note_on_time": 7.649, "note_off_time": 7.868}]</notes><options name="Option List">((4, 4), [0.5, 0.25], 3, 8, &lt;NoteRangePerHand.C_TO_G: 6&gt;, &lt;NoteRangePerHand.ONE_NOTE: 2&gt;, False, True, False, 281)</options></target_notes><trials><trial trial_no="1" timestamp="2022_11_13-12_49_48"><notes name="Played Notes">[{"pitch": 62, "velocity": 73, "note_on_time": 0.916, "note_off_time": 1.194}, {"pitch": 65, "velocity": 69, "note_on_time": 1.127, "note_off_time": 1.261}, {"pitch": 65, "velocity": 85, "note_on_time": 1.348, "note_off_time": 1.532}, {"pitch": 60, "velocity": 84, "note_on_time": 1.577, "note_off_time": 1.704}, {"pitch": 64, "velocity": 78, "note_on_time": 1.805, "note_off_time": 2.008}, {"pitch": 62, "velocity": 80, "note_on_time": 2.022, "note_off_time": 2.197}, {"pitch": 65, "velocity": 82, "note_on_time": 2.253, "note_off_time": 2.48}, {"pitch": 67, "velocity": 82, "note_on_time": 2.468, "note_off_time": 2.589}, {"pitch": 60, "velocity": 95, "note_on_time": 2.722, "note_off_time": 2.969}, {"pitch": 62, "velocity": 82, "note_on_time": 3.697, "note_off_time": 3.906}, {"pitch": 64, "velocity": 91, "note_on_time": 4.774, "note_off_time": 5.015}, {"pitch": 67, "velocity": 77, "note_on_time": 4.979, "note_off_time": 5.257}, {"pitch": 65, "velocity": 103, "note_on_time": 5.218, "note_off_time": 5.408}, {"pitch": 65, "velocity": 104, "note_on_time": 5.671, "note_off_time": 5.814}, {"pitch": 62, "velocity": 81, "note_on_time": 6.283, "note_off_time": 6.413}, {"pitch": 67, "velocity": 78, "note_on_time": 6.492, "note_off_time": 6.722}, {"pitch": 64, "velocity": 76, "note_on_time": 6.711, "note_off_time": 6.845}, {"pitch": 60, "velocity": 79, "note_on_time": 6.923, "note_off_time": 7.053}, {"pitch": 64, "velocity": 84, "note_on_time": 7.144, "note_off_time": 7.24}, {"pitch": 64, "velocity": 88, "note_on_time": 7.539, "note_off_time": 7.622}, {"pitch": 64, "velocity": 84, "note_on_time": 7.75, "note_off_time": 7.826}]</notes><guidance name="Guidance Mode">None</guidance><error name="Error value">0.09485752631578968</error></trial></trials></MIDI>