<MIDI midiNo="2022_11_10-11_49_51"><target_notes><notes name="Note List">[{"pitch": 42, "velocity": 80, "note_on_time": 0.004, "note_off_time": 0.731}, {"pitch": 42, "velocity": 80, "note_on_time": 0.731, "note_off_time": 1.464}, {"pitch": 42, "velocity": 80, "note_on_time": 1.465, "note_off_time": 2.198}, {"pitch": 42, "velocity": 80, "note_on_time": 2.199, "note_off_time": 2.933}, {"pitch": 60, "velocity": 80, "note_on_time": 2.932, "note_off_time": 3.666}, {"pitch": 42, "velocity": 80, "note_on_time": 2.933, "note_off_time": 3.666}, {"pitch": 62, "velocity": 80, "note_on_time": 3.666, "note_off_time": 4.398}, {"pitch": 42, "velocity": 80, "note_on_time": 3.666, "note_off_time": 4.398}, {"pitch": 62, "velocity": 80, "note_on_time": 4.398, "note_off_time": 5.13}, {"pitch": 42, "velocity": 80, "note_on_time": 4.398, "note_off_time": 5.13}, {"pitch": 60, "velocity": 80, "note_on_time": 5.13, "note_off_time": 5.859}, {"pitch": 42, "velocity": 80, "note_on_time": 5.131, "note_off_time": 5.859}, {"pitch": 64, "velocity": 80, "note_on_time": 5.859, "note_off_time": 6.592}, {"pitch": 42, "velocity": 80, "note_on_time": 5.859, "note_off_time": 6.592}, {"pitch": 64, "velocity": 80, "note_on_time": 6.592, "note_off_time": 7.324}, {"pitch": 42, "velocity": 80, "note_on_time": 6.593, "note_off_time": 7.324}, {"pitch": 60, "velocity": 80, "note_on_time": 7.324, "note_off_time": 8.056}, {"pitch": 42, "velocity": 80, "note_on_time": 7.325, "note_off_time": 8.057}, {"pitch": 60, "velocity": 80, "note_on_time": 8.056, "note_off_time": 8.789}, {"pitch": 42, "velocity": 80, "note_on_time": 8.057, "note_off_time": 8.789}, {"pitch": 60, "velocity": 80, "note_on_time": 8.789, "note_off_time": 9.519}, {"pitch": 42, "velocity": 80, "note_on_time": 8.789, "note_off_time": 9.519}, {"pitch": 42, "velocity": 80, "note_on_time": 9.519, "note_off_time": 10.25}, {"pitch": 60, "velocity": 80, "note_on_time": 10.249, "note_off_time": 10.981}, {"pitch": 42, "velocity": 80, "note_on_time": 10.25, "note_off_time": 10.981}, {"pitch": 60, "velocity": 80, "note_on_time": 10.981, "note_off_time": 11.71}, {"pitch": 42, "velocity": 80, "note_on_time": 10.982, "note_off_time": 11.711}, {"pitch": 64, "velocity": 80, "note_on_time": 11.71, "note_off_time": 12.44}, {"pitch": 42, "velocity": 80, "note_on_time": 11.711, "note_off_time": 12.441}, {"pitch": 62, "velocity": 80, "note_on_time": 12.44, "note_off_time": 13.169}, {"pitch": 42, "velocity": 80, "note_on_time": 12.441, "note_off_time": 13.169}, {"pitch": 64, "velocity": 80, "note_on_time": 13.169, "note_off_time": 13.9}, {"pitch": 42, "velocity": 80, "note_on_time": 13.169, "note_off_time": 13.901}, {"pitch": 62, "velocity": 80, "note_on_time": 13.9, "note_off_time": 14.632}, {"pitch": 42, "velocity": 80, "note_on_time": 13.901, "note_off_time": 14.632}, {"pitch": 60, "velocity": 80, "note_on_time": 14.632, "note_off_time": 15.366}, {"pitch": 42, "velocity": 80, "note_on_time": 14.632, "note_off_time": 15.366}, {"pitch": 62, "velocity": 80, "note_on_time": 15.366, "note_off_time": 16.1}, {"pitch": 42, "velocity": 80, "note_on_time": 15.367, "note_off_time": 16.1}, {"pitch": 60, "velocity": 80, "note_on_time": 16.1, "note_off_time": 16.829}, {"pitch": 42, "velocity": 80, "note_on_time": 16.101, "note_off_time": 16.829}, {"pitch": 64, "velocity": 80, "note_on_time": 16.829, "note_off_time": 17.558}, {"pitch": 42, "velocity": 80, "note_on_time": 16.83, "note_off_time": 17.559}, {"pitch": 60, "velocity": 80, "note_on_time": 17.558, "note_off_time": 18.29}, {"pitch": 42, "velocity": 80, "note_on_time": 17.559, "note_off_time": 18.291}, {"pitch": 42, "velocity": 80, "note_on_time": 18.291, "note_off_time": 19.017}, {"pitch": 60, "velocity": 80, "note_on_time": 18.29, "note_off_time": 19.748}, {"pitch": 42, "velocity": 80, "note_on_time": 19.017, "note_off_time": 19.748}, {"pitch": 60, "velocity": 80, "note_on_time": 19.748, "note_off_time": 20.478}, {"pitch": 42, "velocity": 80, "note_on_time": 19.748, "note_off_time": 20.479}, {"pitch": 42, "velocity": 80, "note_on_time": 20.479, "note_off_time": 21.207}, {"pitch": 62, "velocity": 80, "note_on_time": 20.478, "note_off_time": 21.938}, {"pitch": 42, "velocity": 80, "note_on_time": 21.207, "note_off_time": 21.938}, {"pitch": 42, "velocity": 80, "note_on_time": 21.938, "note_off_time": 22.669}, {"pitch": 60, "velocity": 80, "note_on_time": 22.669, "note_off_time": 23.399}, {"pitch": 42, "velocity": 80, "note_on_time": 22.669, "note_off_time": 23.399}, {"pitch": 42, "velocity": 80, "note_on_time": 23.4, "note_off_time": 24.128}, {"pitch": 60, "velocity": 80, "note_on_time": 24.128, "note_off_time": 24.859}, {"pitch": 42, "velocity": 80, "note_on_time": 24.129, "note_off_time": 24.86}, {"pitch": 60, "velocity": 80, "note_on_time": 24.859, "note_off_time": 25.587}, {"pitch": 42, "velocity": 80, "note_on_time": 24.86, "note_off_time": 25.587}, {"pitch": 60, "velocity": 80, "note_on_time": 25.587, "note_off_time": 26.317}, {"pitch": 42, "velocity": 80, "note_on_time": 25.587, "note_off_time": 26.317}]</notes><options name="Option List">((4, 4), [0.5, 0.25], 3, 8, &lt;NoteRangePerHand.THREE_NOTES: 4&gt;, &lt;NoteRangePerHand.ONE_NOTE: 2&gt;, False, True, False, 83)</options></target_notes><trials><trial trial_no="1" timestamp="2022_11_10-11_49_23"><notes name="Played Notes">[{"pitch": 60, "velocity": 76, "note_on_time": 2.891, "note_off_time": 3.231}, {"pitch": 62, "velocity": 76, "note_on_time": 3.619, "note_off_time": 3.938}, {"pitch": 62, "velocity": 82, "note_on_time": 4.371, "note_off_time": 4.617}, {"pitch": 60, "velocity": 75, "note_on_time": 5.095, "note_off_time": 5.368}, {"pitch": 64, "velocity": 73, "note_on_time": 5.806, "note_off_time": 6.06}, {"pitch": 64, "velocity": 71, "note_on_time": 6.516, "note_off_time": 6.714}, {"pitch": 60, "velocity": 77, "note_on_time": 7.215, "note_off_time": 7.441}, {"pitch": 60, "velocity": 85, "note_on_time": 7.925, "note_off_time": 8.147}, {"pitch": 60, "velocity": 87, "note_on_time": 8.677, "note_off_time": 8.906}, {"pitch": 60, "velocity": 78, "note_on_time": 10.156, "note_off_time": 10.42}, {"pitch": 60, "velocity": 73, "note_on_time": 10.871, "note_off_time": 11.145}, {"pitch": 64, "velocity": 69, "note_on_time": 11.583, "note_off_time": 11.83}, {"pitch": 62, "velocity": 73, "note_on_time": 12.309, "note_off_time": 12.557}, {"pitch": 64, "velocity": 70, "note_on_time": 13.053, "note_off_time": 13.295}, {"pitch": 62, "velocity": 70, "note_on_time": 13.776, "note_off_time": 14.011}, {"pitch": 60, "velocity": 85, "note_on_time": 14.48, "note_off_time": 14.744}, {"pitch": 62, "velocity": 75, "note_on_time": 15.227, "note_off_time": 15.45}, {"pitch": 60, "velocity": 81, "note_on_time": 15.976, "note_off_time": 16.213}, {"pitch": 64, "velocity": 76, "note_on_time": 16.718, "note_off_time": 16.967}, {"pitch": 60, "velocity": 84, "note_on_time": 17.516, "note_off_time": 17.792}, {"pitch": 60, "velocity": 76, "note_on_time": 18.205, "note_off_time": 19.078}, {"pitch": 60, "velocity": 78, "note_on_time": 19.677, "note_off_time": 20.04}, {"pitch": 62, "velocity": 84, "note_on_time": 20.401, "note_off_time": 21.439}, {"pitch": 60, "velocity": 71, "note_on_time": 21.903, "note_off_time": 22.357}, {"pitch": 60, "velocity": 85, "note_on_time": 24.092, "note_off_time": 24.403}, {"pitch": 60, "velocity": 79, "note_on_time": 24.804, "note_off_time": 25.093}, {"pitch": 60, "velocity": 82, "note_on_time": 25.51, "note_off_time": 25.863}]</notes><guidance name="Guidance Mode">None</guidance><error name="Error value">0.0776893749999998</error></trial><trial trial_no="2" timestamp="2022_11_10-11_49_59"><notes name="Played Notes">[{"pitch": 60, "velocity": 81, "note_on_time": 2.923, "note_off_time": 3.246}, {"pitch": 62, "velocity": 79, "note_on_time": 3.652, "note_off_time": 3.94}, {"pitch": 62, "velocity": 77, "note_on_time": 4.376, "note_off_time": 4.619}, {"pitch": 60, "velocity": 80, "note_on_time": 5.055, "note_off_time": 5.294}, {"pitch": 64, "velocity": 70, "note_on_time": 5.757, "note_off_time": 5.998}, {"pitch": 64, "velocity": 68, "note_on_time": 6.452, "note_off_time": 6.678}, {"pitch": 60, "velocity": 81, "note_on_time": 7.211, "note_off_time": 7.455}, {"pitch": 60, "velocity": 84, "note_on_time": 7.897, "note_off_time": 8.118}, {"pitch": 60, "velocity": 84, "note_on_time": 8.666, "note_off_time": 8.923}, {"pitch": 60, "velocity": 74, "note_on_time": 10.185, "note_off_time": 10.464}, {"pitch": 60, "velocity": 80, "note_on_time": 10.869, "note_off_time": 11.116}, {"pitch": 64, "velocity": 73, "note_on_time": 11.586, "note_off_time": 11.868}, {"pitch": 62, "velocity": 78, "note_on_time": 12.26, "note_off_time": 12.548}, {"pitch": 64, "velocity": 76, "note_on_time": 12.996, "note_off_time": 13.261}, {"pitch": 62, "velocity": 78, "note_on_time": 13.801, "note_off_time": 14.016}, {"pitch": 60, "velocity": 73, "note_on_time": 14.508, "note_off_time": 14.786}, {"pitch": 62, "velocity": 73, "note_on_time": 15.238, "note_off_time": 15.499}, {"pitch": 60, "velocity": 81, "note_on_time": 15.988, "note_off_time": 16.237}, {"pitch": 64, "velocity": 74, "note_on_time": 16.743, "note_off_time": 16.99}, {"pitch": 60, "velocity": 81, "note_on_time": 17.436, "note_off_time": 17.687}, {"pitch": 60, "velocity": 78, "note_on_time": 18.193, "note_off_time": 19.219}, {"pitch": 60, "velocity": 81, "note_on_time": 19.731, "note_off_time": 20.055}, {"pitch": 62, "velocity": 80, "note_on_time": 20.516, "note_off_time": 21.455}, {"pitch": 60, "velocity": 76, "note_on_time": 22.59, "note_off_time": 23.062}, {"pitch": 60, "velocity": 77, "note_on_time": 24.752, "note_off_time": 25.072}, {"pitch": 60, "velocity": 84, "note_on_time": 25.482, "note_off_time": 25.762}]</notes><guidance name="Guidance Mode">None</guidance><error name="Error value">0.10859695833333323</error></trial><trial trial_no="3" timestamp="2022_11_10-11_50_44"><notes name="Played Notes">[{"pitch": 60, "velocity": 72, "note_on_time": 2.876, "note_off_time": 3.14}, {"pitch": 62, "velocity": 74, "note_on_time": 3.595, "note_off_time": 3.829}, {"pitch": 62, "velocity": 77, "note_on_time": 4.275, "note_off_time": 4.499}, {"pitch": 60, "velocity": 76, "note_on_time": 4.947, "note_off_time": 5.17}, {"pitch": 64, "velocity": 73, "note_on_time": 5.685, "note_off_time": 5.918}, {"pitch": 64, "velocity": 79, "note_on_time": 6.423, "note_off_time": 6.621}, {"pitch": 60, "velocity": 75, "note_on_time": 7.167, "note_off_time": 7.365}, {"pitch": 60, "velocity": 82, "note_on_time": 7.897, "note_off_time": 8.083}, {"pitch": 60, "velocity": 82, "note_on_time": 8.659, "note_off_time": 8.901}, {"pitch": 60, "velocity": 74, "note_on_time": 10.082, "note_off_time": 10.355}, {"pitch": 60, "velocity": 85, "note_on_time": 10.846, "note_off_time": 11.142}, {"pitch": 62, "velocity": 79, "note_on_time": 11.578, "note_off_time": 11.855}, {"pitch": 62, "velocity": 72, "note_on_time": 12.597, "note_off_time": 12.855}, {"pitch": 64, "velocity": 70, "note_on_time": 13.49, "note_off_time": 13.746}, {"pitch": 62, "velocity": 71, "note_on_time": 14.247, "note_off_time": 14.511}, {"pitch": 60, "velocity": 79, "note_on_time": 15.171, "note_off_time": 15.453}, {"pitch": 62, "velocity": 74, "note_on_time": 15.97, "note_off_time": 16.216}, {"pitch": 60, "velocity": 72, "note_on_time": 16.661, "note_off_time": 16.981}, {"pitch": 64, "velocity": 70, "note_on_time": 17.408, "note_off_time": 17.697}, {"pitch": 60, "velocity": 81, "note_on_time": 18.136, "note_off_time": 18.399}, {"pitch": 60, "velocity": 74, "note_on_time": 18.885, "note_off_time": 19.656}, {"pitch": 60, "velocity": 77, "note_on_time": 19.839, "note_off_time": 20.236}, {"pitch": 64, "velocity": 77, "note_on_time": 20.753, "note_off_time": 21.565}, {"pitch": 60, "velocity": 85, "note_on_time": 23.218, "note_off_time": 23.566}, {"pitch": 60, "velocity": 85, "note_on_time": 24.69, "note_off_time": 24.951}, {"pitch": 60, "velocity": 88, "note_on_time": 25.41, "note_off_time": 25.663}]</notes><guidance name="Guidance Mode">None</guidance><error name="Error value">0.24434162500000006</error></trial></trials></MIDI>