<MIDI midiNo="2022_08_17-12_47_07"><target_notes><notes name="Note List">[{"pitch": 42, "velocity": 80, "note_on_time": 0.005, "note_off_time": 0.204}, {"pitch": 42, "velocity": 80, "note_on_time": 0.204, "note_off_time": 0.392}, {"pitch": 42, "velocity": 80, "note_on_time": 0.392, "note_off_time": 0.595}, {"pitch": 42, "velocity": 80, "note_on_time": 0.595, "note_off_time": 0.785}, {"pitch": 64, "velocity": 80, "note_on_time": 0.785, "note_off_time": 0.988}, {"pitch": 42, "velocity": 80, "note_on_time": 0.786, "note_off_time": 0.988}, {"pitch": 65, "velocity": 80, "note_on_time": 0.988, "note_off_time": 1.19}, {"pitch": 42, "velocity": 80, "note_on_time": 0.989, "note_off_time": 1.191}, {"pitch": 67, "velocity": 80, "note_on_time": 1.19, "note_off_time": 1.391}, {"pitch": 42, "velocity": 80, "note_on_time": 1.191, "note_off_time": 1.392}, {"pitch": 67, "velocity": 80, "note_on_time": 1.391, "note_off_time": 1.58}, {"pitch": 42, "velocity": 80, "note_on_time": 1.392, "note_off_time": 1.58}, {"pitch": 62, "velocity": 80, "note_on_time": 1.58, "note_off_time": 1.781}, {"pitch": 42, "velocity": 80, "note_on_time": 1.58, "note_off_time": 1.781}, {"pitch": 60, "velocity": 80, "note_on_time": 1.781, "note_off_time": 1.984}, {"pitch": 42, "velocity": 80, "note_on_time": 1.781, "note_off_time": 1.985}, {"pitch": 67, "velocity": 80, "note_on_time": 1.984, "note_off_time": 2.187}, {"pitch": 42, "velocity": 80, "note_on_time": 1.985, "note_off_time": 2.187}, {"pitch": 67, "velocity": 80, "note_on_time": 2.187, "note_off_time": 2.376}, {"pitch": 42, "velocity": 80, "note_on_time": 2.187, "note_off_time": 2.376}, {"pitch": 62, "velocity": 80, "note_on_time": 2.376, "note_off_time": 2.578}, {"pitch": 42, "velocity": 80, "note_on_time": 2.376, "note_off_time": 2.578}, {"pitch": 42, "velocity": 80, "note_on_time": 2.578, "note_off_time": 2.78}, {"pitch": 67, "velocity": 80, "note_on_time": 2.578, "note_off_time": 2.968}, {"pitch": 42, "velocity": 80, "note_on_time": 2.78, "note_off_time": 2.968}, {"pitch": 42, "velocity": 80, "note_on_time": 2.968, "note_off_time": 3.17}, {"pitch": 62, "velocity": 80, "note_on_time": 3.17, "note_off_time": 3.372}, {"pitch": 42, "velocity": 80, "note_on_time": 3.17, "note_off_time": 3.372}, {"pitch": 65, "velocity": 80, "note_on_time": 3.372, "note_off_time": 3.561}, {"pitch": 42, "velocity": 80, "note_on_time": 3.372, "note_off_time": 3.561}, {"pitch": 42, "velocity": 80, "note_on_time": 3.562, "note_off_time": 3.75}, {"pitch": 62, "velocity": 80, "note_on_time": 3.561, "note_off_time": 3.952}, {"pitch": 42, "velocity": 80, "note_on_time": 3.75, "note_off_time": 3.952}, {"pitch": 60, "velocity": 80, "note_on_time": 3.952, "note_off_time": 4.154}, {"pitch": 42, "velocity": 80, "note_on_time": 3.952, "note_off_time": 4.154}, {"pitch": 64, "velocity": 80, "note_on_time": 4.154, "note_off_time": 4.356}, {"pitch": 42, "velocity": 80, "note_on_time": 4.154, "note_off_time": 4.356}, {"pitch": 62, "velocity": 80, "note_on_time": 4.356, "note_off_time": 4.558}, {"pitch": 42, "velocity": 80, "note_on_time": 4.356, "note_off_time": 4.558}, {"pitch": 67, "velocity": 80, "note_on_time": 4.558, "note_off_time": 4.759}, {"pitch": 42, "velocity": 80, "note_on_time": 4.558, "note_off_time": 4.759}, {"pitch": 64, "velocity": 80, "note_on_time": 4.759, "note_off_time": 4.959}, {"pitch": 42, "velocity": 80, "note_on_time": 4.759, "note_off_time": 4.959}, {"pitch": 42, "velocity": 80, "note_on_time": 4.96, "note_off_time": 5.147}, {"pitch": 62, "velocity": 80, "note_on_time": 5.147, "note_off_time": 5.349}, {"pitch": 42, "velocity": 80, "note_on_time": 5.147, "note_off_time": 5.35}, {"pitch": 60, "velocity": 80, "note_on_time": 5.349, "note_off_time": 5.55}, {"pitch": 42, "velocity": 80, "note_on_time": 5.35, "note_off_time": 5.55}, {"pitch": 64, "velocity": 80, "note_on_time": 5.55, "note_off_time": 5.752}, {"pitch": 42, "velocity": 80, "note_on_time": 5.551, "note_off_time": 5.752}, {"pitch": 65, "velocity": 80, "note_on_time": 5.752, "note_off_time": 5.954}, {"pitch": 42, "velocity": 80, "note_on_time": 5.753, "note_off_time": 5.954}, {"pitch": 60, "velocity": 80, "note_on_time": 5.954, "note_off_time": 6.155}, {"pitch": 42, "velocity": 80, "note_on_time": 5.954, "note_off_time": 6.156}, {"pitch": 67, "velocity": 80, "note_on_time": 6.155, "note_off_time": 6.344}, {"pitch": 42, "velocity": 80, "note_on_time": 6.156, "note_off_time": 6.344}, {"pitch": 42, "velocity": 80, "note_on_time": 6.344, "note_off_time": 6.531}, {"pitch": 67, "velocity": 80, "note_on_time": 6.531, "note_off_time": 6.72}, {"pitch": 42, "velocity": 80, "note_on_time": 6.531, "note_off_time": 6.72}, {"pitch": 67, "velocity": 80, "note_on_time": 6.72, "note_off_time": 6.921}, {"pitch": 42, "velocity": 80, "note_on_time": 6.721, "note_off_time": 6.921}, {"pitch": 67, "velocity": 80, "note_on_time": 6.921, "note_off_time": 7.123}, {"pitch": 42, "velocity": 80, "note_on_time": 6.921, "note_off_time": 7.123}]</notes><options name="Option List">((4, 4), [0.5, 0.25], 3, 8, &lt;NoteRangePerHand.C_TO_G: 6&gt;, &lt;NoteRangePerHand.ONE_NOTE: 2&gt;, False, True, True, '322')</options></target_notes><trials><trial trial_no="1" timestamp="2022_08_17-12_46_59"><notes name="Played Notes">[{"pitch": 64, "velocity": 68, "note_on_time": 0.803, "note_off_time": 0.862}, {"pitch": 65, "velocity": 81, "note_on_time": 0.995, "note_off_time": 1.081}, {"pitch": 67, "velocity": 76, "note_on_time": 1.218, "note_off_time": 1.302}, {"pitch": 62, "velocity": 42, "note_on_time": 1.448, "note_off_time": 1.505}, {"pitch": 60, "velocity": 77, "note_on_time": 1.647, "note_off_time": 1.724}, {"pitch": 67, "velocity": 78, "note_on_time": 1.851, "note_off_time": 1.933}, {"pitch": 67, "velocity": 69, "note_on_time": 2.066, "note_off_time": 2.153}, {"pitch": 62, "velocity": 73, "note_on_time": 2.281, "note_off_time": 2.35}, {"pitch": 67, "velocity": 79, "note_on_time": 2.49, "note_off_time": 2.794}, {"pitch": 62, "velocity": 76, "note_on_time": 3.128, "note_off_time": 3.197}, {"pitch": 65, "velocity": 84, "note_on_time": 3.34, "note_off_time": 3.405}, {"pitch": 62, "velocity": 79, "note_on_time": 3.559, "note_off_time": 3.827}, {"pitch": 60, "velocity": 73, "note_on_time": 4.021, "note_off_time": 4.123}, {"pitch": 64, "velocity": 69, "note_on_time": 4.236, "note_off_time": 4.294}, {"pitch": 62, "velocity": 14, "note_on_time": 4.587, "note_off_time": 4.706}, {"pitch": 67, "velocity": 32, "note_on_time": 4.794, "note_off_time": 4.903}, {"pitch": 64, "velocity": 46, "note_on_time": 5.14, "note_off_time": 5.285}, {"pitch": 62, "velocity": 68, "note_on_time": 5.637, "note_off_time": 5.695}, {"pitch": 60, "velocity": 59, "note_on_time": 5.852, "note_off_time": 5.912}, {"pitch": 64, "velocity": 77, "note_on_time": 6.064, "note_off_time": 6.147}, {"pitch": 65, "velocity": 79, "note_on_time": 6.288, "note_off_time": 6.371}, {"pitch": 60, "velocity": 75, "note_on_time": 6.504, "note_off_time": 6.604}, {"pitch": 67, "velocity": 82, "note_on_time": 6.731, "note_off_time": 6.818}]</notes><guidance name="Guidance Mode">None</guidance><error name="Error value">0.5755687499999999</error></trial><trial trial_no="2" timestamp="2022_08_17-12_47_15"><notes name="Played Notes">[{"pitch": 64, "velocity": 74, "note_on_time": 0.828, "note_off_time": 0.89}, {"pitch": 65, "velocity": 75, "note_on_time": 1.035, "note_off_time": 1.11}, {"pitch": 67, "velocity": 81, "note_on_time": 1.246, "note_off_time": 1.329}, {"pitch": 62, "velocity": 78, "note_on_time": 1.461, "note_off_time": 1.547}, {"pitch": 60, "velocity": 83, "note_on_time": 1.669, "note_off_time": 1.728}, {"pitch": 67, "velocity": 79, "note_on_time": 1.874, "note_off_time": 1.95}, {"pitch": 67, "velocity": 82, "note_on_time": 2.108, "note_off_time": 2.188}, {"pitch": 62, "velocity": 73, "note_on_time": 2.314, "note_off_time": 2.369}, {"pitch": 67, "velocity": 84, "note_on_time": 2.533, "note_off_time": 2.847}, {"pitch": 62, "velocity": 82, "note_on_time": 3.021, "note_off_time": 3.104}, {"pitch": 65, "velocity": 79, "note_on_time": 3.234, "note_off_time": 3.298}, {"pitch": 64, "velocity": 84, "note_on_time": 3.458, "note_off_time": 3.585}, {"pitch": 62, "velocity": 31, "note_on_time": 3.727, "note_off_time": 3.821}, {"pitch": 60, "velocity": 67, "note_on_time": 4.024, "note_off_time": 4.077}, {"pitch": 64, "velocity": 69, "note_on_time": 4.169, "note_off_time": 4.254}, {"pitch": 60, "velocity": 75, "note_on_time": 4.424, "note_off_time": 4.484}, {"pitch": 67, "velocity": 70, "note_on_time": 4.594, "note_off_time": 4.675}, {"pitch": 64, "velocity": 80, "note_on_time": 4.835, "note_off_time": 4.908}, {"pitch": 62, "velocity": 71, "note_on_time": 5.272, "note_off_time": 5.347}, {"pitch": 60, "velocity": 74, "note_on_time": 5.483, "note_off_time": 5.55}, {"pitch": 64, "velocity": 81, "note_on_time": 5.677, "note_off_time": 5.749}, {"pitch": 65, "velocity": 87, "note_on_time": 5.92, "note_off_time": 5.994}, {"pitch": 60, "velocity": 78, "note_on_time": 6.131, "note_off_time": 6.187}, {"pitch": 65, "velocity": 80, "note_on_time": 6.358, "note_off_time": 6.428}, {"pitch": 67, "velocity": 87, "note_on_time": 6.551, "note_off_time": 6.648}]</notes><guidance name="Guidance Mode">None</guidance><error name="Error value">0.6859997916666667</error></trial><trial trial_no="3" timestamp="2022_08_17-12_47_33"><notes name="Played Notes">[{"pitch": 64, "velocity": 71, "note_on_time": 0.836, "note_off_time": 0.888}, {"pitch": 65, "velocity": 79, "note_on_time": 1.036, "note_off_time": 1.124}, {"pitch": 67, "velocity": 70, "note_on_time": 1.271, "note_off_time": 1.326}, {"pitch": 67, "velocity": 77, "note_on_time": 1.483, "note_off_time": 1.56}, {"pitch": 62, "velocity": 40, "note_on_time": 1.727, "note_off_time": 1.774}, {"pitch": 60, "velocity": 81, "note_on_time": 1.925, "note_off_time": 2.0}, {"pitch": 67, "velocity": 73, "note_on_time": 2.141, "note_off_time": 2.204}, {"pitch": 67, "velocity": 82, "note_on_time": 2.36, "note_off_time": 2.441}, {"pitch": 62, "velocity": 70, "note_on_time": 2.587, "note_off_time": 2.643}, {"pitch": 67, "velocity": 83, "note_on_time": 2.797, "note_off_time": 3.064}, {"pitch": 62, "velocity": 65, "note_on_time": 3.287, "note_off_time": 3.344}, {"pitch": 65, "velocity": 76, "note_on_time": 3.515, "note_off_time": 3.575}, {"pitch": 62, "velocity": 70, "note_on_time": 3.719, "note_off_time": 3.929}, {"pitch": 60, "velocity": 72, "note_on_time": 4.105, "note_off_time": 4.198}, {"pitch": 64, "velocity": 68, "note_on_time": 4.336, "note_off_time": 4.406}, {"pitch": 62, "velocity": 65, "note_on_time": 4.618, "note_off_time": 4.734}, {"pitch": 67, "velocity": 65, "note_on_time": 4.844, "note_off_time": 4.915}, {"pitch": 64, "velocity": 74, "note_on_time": 5.108, "note_off_time": 5.191}, {"pitch": 62, "velocity": 76, "note_on_time": 5.514, "note_off_time": 5.592}, {"pitch": 60, "velocity": 65, "note_on_time": 5.767, "note_off_time": 5.827}, {"pitch": 64, "velocity": 70, "note_on_time": 5.995, "note_off_time": 6.082}, {"pitch": 65, "velocity": 67, "note_on_time": 6.218, "note_off_time": 6.287}, {"pitch": 60, "velocity": 82, "note_on_time": 6.438, "note_off_time": 6.546}, {"pitch": 65, "velocity": 62, "note_on_time": 6.677, "note_off_time": 6.733}, {"pitch": 67, "velocity": 85, "note_on_time": 6.865, "note_off_time": 6.974}]</notes><guidance name="Guidance Mode">None</guidance><error name="Error value">0.3284154166666667</error></trial><trial trial_no="4" timestamp="2022_08_17-12_47_51"><notes name="Played Notes">[{"pitch": 64, "velocity": 79, "note_on_time": 0.814, "note_off_time": 0.877}, {"pitch": 65, "velocity": 83, "note_on_time": 1.019, "note_off_time": 1.095}, {"pitch": 67, "velocity": 78, "note_on_time": 1.242, "note_off_time": 1.304}, {"pitch": 67, "velocity": 76, "note_on_time": 1.431, "note_off_time": 1.506}, {"pitch": 62, "velocity": 73, "note_on_time": 1.638, "note_off_time": 1.704}, {"pitch": 60, "velocity": 79, "note_on_time": 1.85, "note_off_time": 1.914}, {"pitch": 67, "velocity": 72, "note_on_time": 2.066, "note_off_time": 2.137}, {"pitch": 67, "velocity": 83, "note_on_time": 2.284, "note_off_time": 2.368}, {"pitch": 62, "velocity": 76, "note_on_time": 2.494, "note_off_time": 2.565}, {"pitch": 67, "velocity": 88, "note_on_time": 2.718, "note_off_time": 2.999}, {"pitch": 62, "velocity": 70, "note_on_time": 3.171, "note_off_time": 3.23}, {"pitch": 65, "velocity": 75, "note_on_time": 3.376, "note_off_time": 3.428}, {"pitch": 62, "velocity": 80, "note_on_time": 3.586, "note_off_time": 3.895}, {"pitch": 60, "velocity": 76, "note_on_time": 4.024, "note_off_time": 4.12}, {"pitch": 64, "velocity": 69, "note_on_time": 4.226, "note_off_time": 4.307}, {"pitch": 60, "velocity": 72, "note_on_time": 4.468, "note_off_time": 4.526}, {"pitch": 62, "velocity": 41, "note_on_time": 4.719, "note_off_time": 4.803}, {"pitch": 67, "velocity": 74, "note_on_time": 4.959, "note_off_time": 5.049}, {"pitch": 64, "velocity": 79, "note_on_time": 5.184, "note_off_time": 5.264}, {"pitch": 62, "velocity": 73, "note_on_time": 5.56, "note_off_time": 5.653}, {"pitch": 60, "velocity": 74, "note_on_time": 5.787, "note_off_time": 5.87}, {"pitch": 64, "velocity": 62, "note_on_time": 5.985, "note_off_time": 6.062}, {"pitch": 65, "velocity": 81, "note_on_time": 6.205, "note_off_time": 6.289}, {"pitch": 60, "velocity": 76, "note_on_time": 6.439, "note_off_time": 6.53}, {"pitch": 67, "velocity": 77, "note_on_time": 6.713, "note_off_time": 6.823}]</notes><guidance name="Guidance Mode">None</guidance><error name="Error value">0.4398464583333334</error></trial><trial trial_no="5" timestamp="2022_08_17-12_48_08"><notes name="Played Notes">[{"pitch": 64, "velocity": 70, "note_on_time": 0.845, "note_off_time": 0.899}, {"pitch": 65, "velocity": 75, "note_on_time": 1.051, "note_off_time": 1.124}, {"pitch": 67, "velocity": 84, "note_on_time": 1.271, "note_off_time": 1.349}, {"pitch": 62, "velocity": 80, "note_on_time": 1.483, "note_off_time": 1.568}, {"pitch": 60, "velocity": 82, "note_on_time": 1.698, "note_off_time": 1.767}, {"pitch": 67, "velocity": 81, "note_on_time": 1.904, "note_off_time": 1.978}, {"pitch": 67, "velocity": 81, "note_on_time": 2.137, "note_off_time": 2.223}, {"pitch": 62, "velocity": 80, "note_on_time": 2.352, "note_off_time": 2.431}, {"pitch": 67, "velocity": 87, "note_on_time": 2.575, "note_off_time": 2.797}, {"pitch": 62, "velocity": 72, "note_on_time": 2.96, "note_off_time": 3.016}, {"pitch": 65, "velocity": 74, "note_on_time": 3.201, "note_off_time": 3.258}, {"pitch": 62, "velocity": 78, "note_on_time": 3.419, "note_off_time": 3.656}, {"pitch": 60, "velocity": 74, "note_on_time": 3.816, "note_off_time": 3.907}, {"pitch": 64, "velocity": 75, "note_on_time": 4.029, "note_off_time": 4.109}, {"pitch": 62, "velocity": 78, "note_on_time": 4.25, "note_off_time": 4.328}, {"pitch": 67, "velocity": 66, "note_on_time": 4.451, "note_off_time": 4.515}, {"pitch": 64, "velocity": 87, "note_on_time": 4.662, "note_off_time": 4.75}, {"pitch": 62, "velocity": 84, "note_on_time": 5.136, "note_off_time": 5.219}, {"pitch": 60, "velocity": 72, "note_on_time": 5.345, "note_off_time": 5.403}, {"pitch": 64, "velocity": 72, "note_on_time": 5.551, "note_off_time": 5.632}, {"pitch": 65, "velocity": 76, "note_on_time": 5.778, "note_off_time": 5.853}, {"pitch": 60, "velocity": 80, "note_on_time": 6.005, "note_off_time": 6.113}, {"pitch": 67, "velocity": 75, "note_on_time": 6.219, "note_off_time": 6.333}, {"pitch": 67, "velocity": 80, "note_on_time": 6.609, "note_off_time": 6.686}, {"pitch": 67, "velocity": 75, "note_on_time": 6.809, "note_off_time": 6.885}, {"pitch": 67, "velocity": 80, "note_on_time": 6.989, "note_off_time": 7.04}]</notes><guidance name="Guidance Mode">None</guidance><error name="Error value">0.08647083333333348</error></trial><trial trial_no="6" timestamp="2022_08_17-12_48_39"><notes name="Played Notes">[{"pitch": 64, "velocity": 63, "note_on_time": 1.029, "note_off_time": 1.098}, {"pitch": 65, "velocity": 76, "note_on_time": 1.305, "note_off_time": 1.394}, {"pitch": 67, "velocity": 79, "note_on_time": 1.62, "note_off_time": 1.707}, {"pitch": 67, "velocity": 73, "note_on_time": 1.883, "note_off_time": 1.99}, {"pitch": 62, "velocity": 79, "note_on_time": 2.193, "note_off_time": 2.268}, {"pitch": 60, "velocity": 66, "note_on_time": 2.485, "note_off_time": 2.547}, {"pitch": 67, "velocity": 71, "note_on_time": 2.782, "note_off_time": 2.854}, {"pitch": 67, "velocity": 66, "note_on_time": 3.071, "note_off_time": 3.162}, {"pitch": 62, "velocity": 42, "note_on_time": 3.371, "note_off_time": 3.42}, {"pitch": 67, "velocity": 67, "note_on_time": 3.631, "note_off_time": 3.997}, {"pitch": 62, "velocity": 67, "note_on_time": 4.376, "note_off_time": 4.443}, {"pitch": 65, "velocity": 69, "note_on_time": 4.671, "note_off_time": 4.718}, {"pitch": 62, "velocity": 64, "note_on_time": 4.964, "note_off_time": 5.297}, {"pitch": 60, "velocity": 68, "note_on_time": 5.509, "note_off_time": 5.615}, {"pitch": 64, "velocity": 63, "note_on_time": 5.797, "note_off_time": 5.868}, {"pitch": 62, "velocity": 45, "note_on_time": 6.085, "note_off_time": 6.147}, {"pitch": 67, "velocity": 67, "note_on_time": 6.355, "note_off_time": 6.423}, {"pitch": 62, "velocity": 47, "note_on_time": 6.672, "note_off_time": 6.735}, {"pitch": 64, "velocity": 61, "note_on_time": 6.761, "note_off_time": 6.99}, {"pitch": 62, "velocity": 66, "note_on_time": 7.275, "note_off_time": 7.367}, {"pitch": 60, "velocity": 60, "note_on_time": 7.542, "note_off_time": 7.609}, {"pitch": 64, "velocity": 61, "note_on_time": 7.816, "note_off_time": 7.884}, {"pitch": 65, "velocity": 58, "note_on_time": 8.089, "note_off_time": 8.166}, {"pitch": 60, "velocity": 61, "note_on_time": 8.367, "note_off_time": 8.51}, {"pitch": 67, "velocity": 72, "note_on_time": 8.652, "note_off_time": 8.809}]</notes><guidance name="Guidance Mode">None</guidance><error name="Error value">2.1717158333333333</error></trial><trial trial_no="7" timestamp="2022_08_17-12_49_04"><notes name="Played Notes">[{"pitch": 64, "velocity": 53, "note_on_time": 1.054, "note_off_time": 1.121}, {"pitch": 65, "velocity": 73, "note_on_time": 1.33, "note_off_time": 1.437}, {"pitch": 67, "velocity": 70, "note_on_time": 1.615, "note_off_time": 1.698}, {"pitch": 67, "velocity": 61, "note_on_time": 1.875, "note_off_time": 1.976}, {"pitch": 62, "velocity": 63, "note_on_time": 2.157, "note_off_time": 2.258}, {"pitch": 60, "velocity": 64, "note_on_time": 2.433, "note_off_time": 2.55}, {"pitch": 67, "velocity": 75, "note_on_time": 2.725, "note_off_time": 2.826}, {"pitch": 67, "velocity": 63, "note_on_time": 3.009, "note_off_time": 3.107}, {"pitch": 62, "velocity": 68, "note_on_time": 3.281, "note_off_time": 3.363}, {"pitch": 67, "velocity": 74, "note_on_time": 3.563, "note_off_time": 3.928}, {"pitch": 62, "velocity": 72, "note_on_time": 4.364, "note_off_time": 4.445}, {"pitch": 65, "velocity": 72, "note_on_time": 4.657, "note_off_time": 4.726}, {"pitch": 62, "velocity": 72, "note_on_time": 4.941, "note_off_time": 5.285}, {"pitch": 60, "velocity": 73, "note_on_time": 5.529, "note_off_time": 5.641}, {"pitch": 64, "velocity": 68, "note_on_time": 5.794, "note_off_time": 5.884}, {"pitch": 62, "velocity": 59, "note_on_time": 6.081, "note_off_time": 6.175}, {"pitch": 67, "velocity": 65, "note_on_time": 6.333, "note_off_time": 6.418}, {"pitch": 64, "velocity": 66, "note_on_time": 6.588, "note_off_time": 6.834}, {"pitch": 62, "velocity": 59, "note_on_time": 7.127, "note_off_time": 7.214}, {"pitch": 60, "velocity": 71, "note_on_time": 7.397, "note_off_time": 7.493}, {"pitch": 64, "velocity": 63, "note_on_time": 7.673, "note_off_time": 7.757}, {"pitch": 65, "velocity": 70, "note_on_time": 7.942, "note_off_time": 8.033}, {"pitch": 60, "velocity": 61, "note_on_time": 8.237, "note_off_time": 8.33}, {"pitch": 67, "velocity": 73, "note_on_time": 8.504, "note_off_time": 8.704}]</notes><guidance name="Guidance Mode">None</guidance><error name="Error value">1.841173125</error></trial></trials></MIDI>