<MIDI midiNo="2022_12_01-12_52_06"><target_notes><notes name="Note List">[{"pitch": 42, "velocity": 80, "note_on_time": 0.005, "note_off_time": 0.407}, {"pitch": 42, "velocity": 80, "note_on_time": 0.407, "note_off_time": 0.811}, {"pitch": 42, "velocity": 80, "note_on_time": 0.811, "note_off_time": 1.216}, {"pitch": 42, "velocity": 80, "note_on_time": 1.216, "note_off_time": 1.622}, {"pitch": 62, "velocity": 80, "note_on_time": 1.622, "note_off_time": 2.027}, {"pitch": 42, "velocity": 80, "note_on_time": 1.622, "note_off_time": 2.027}, {"pitch": 60, "velocity": 80, "note_on_time": 2.027, "note_off_time": 2.431}, {"pitch": 42, "velocity": 80, "note_on_time": 2.027, "note_off_time": 2.431}, {"pitch": 64, "velocity": 80, "note_on_time": 2.431, "note_off_time": 2.835}, {"pitch": 42, "velocity": 80, "note_on_time": 2.431, "note_off_time": 2.836}, {"pitch": 60, "velocity": 80, "note_on_time": 2.835, "note_off_time": 3.24}, {"pitch": 42, "velocity": 80, "note_on_time": 2.836, "note_off_time": 3.241}, {"pitch": 42, "velocity": 80, "note_on_time": 3.241, "note_off_time": 3.646}, {"pitch": 62, "velocity": 80, "note_on_time": 3.24, "note_off_time": 4.051}, {"pitch": 42, "velocity": 80, "note_on_time": 3.646, "note_off_time": 4.051}, {"pitch": 42, "velocity": 80, "note_on_time": 4.051, "note_off_time": 4.455}, {"pitch": 42, "velocity": 80, "note_on_time": 4.455, "note_off_time": 4.859}, {"pitch": 42, "velocity": 80, "note_on_time": 4.859, "note_off_time": 5.264}, {"pitch": 60, "velocity": 80, "note_on_time": 4.859, "note_off_time": 5.668}, {"pitch": 42, "velocity": 80, "note_on_time": 5.265, "note_off_time": 5.668}, {"pitch": 42, "velocity": 80, "note_on_time": 5.668, "note_off_time": 6.072}, {"pitch": 62, "velocity": 80, "note_on_time": 5.668, "note_off_time": 6.479}, {"pitch": 42, "velocity": 80, "note_on_time": 6.073, "note_off_time": 6.479}, {"pitch": 62, "velocity": 80, "note_on_time": 6.479, "note_off_time": 6.881}, {"pitch": 42, "velocity": 80, "note_on_time": 6.479, "note_off_time": 6.882}, {"pitch": 62, "velocity": 80, "note_on_time": 6.881, "note_off_time": 7.286}, {"pitch": 42, "velocity": 80, "note_on_time": 6.882, "note_off_time": 7.286}, {"pitch": 62, "velocity": 80, "note_on_time": 7.286, "note_off_time": 7.692}, {"pitch": 42, "velocity": 80, "note_on_time": 7.286, "note_off_time": 7.692}, {"pitch": 64, "velocity": 80, "note_on_time": 7.692, "note_off_time": 8.095}, {"pitch": 42, "velocity": 80, "note_on_time": 7.692, "note_off_time": 8.096}, {"pitch": 62, "velocity": 80, "note_on_time": 8.095, "note_off_time": 8.497}, {"pitch": 42, "velocity": 80, "note_on_time": 8.096, "note_off_time": 8.497}, {"pitch": 60, "velocity": 80, "note_on_time": 8.497, "note_off_time": 8.9}, {"pitch": 42, "velocity": 80, "note_on_time": 8.497, "note_off_time": 8.9}, {"pitch": 64, "velocity": 80, "note_on_time": 8.9, "note_off_time": 9.303}, {"pitch": 42, "velocity": 80, "note_on_time": 8.9, "note_off_time": 9.303}, {"pitch": 42, "velocity": 80, "note_on_time": 9.304, "note_off_time": 9.709}, {"pitch": 64, "velocity": 80, "note_on_time": 9.709, "note_off_time": 10.112}, {"pitch": 42, "velocity": 80, "note_on_time": 9.709, "note_off_time": 10.113}, {"pitch": 62, "velocity": 80, "note_on_time": 10.112, "note_off_time": 10.517}, {"pitch": 42, "velocity": 80, "note_on_time": 10.113, "note_off_time": 10.517}, {"pitch": 64, "velocity": 80, "note_on_time": 10.517, "note_off_time": 10.92}, {"pitch": 42, "velocity": 80, "note_on_time": 10.518, "note_off_time": 10.921}, {"pitch": 64, "velocity": 80, "note_on_time": 10.92, "note_off_time": 11.326}, {"pitch": 42, "velocity": 80, "note_on_time": 10.921, "note_off_time": 11.326}, {"pitch": 64, "velocity": 80, "note_on_time": 11.326, "note_off_time": 11.729}, {"pitch": 42, "velocity": 80, "note_on_time": 11.327, "note_off_time": 11.729}, {"pitch": 64, "velocity": 80, "note_on_time": 11.729, "note_off_time": 12.132}, {"pitch": 42, "velocity": 80, "note_on_time": 11.729, "note_off_time": 12.132}, {"pitch": 62, "velocity": 80, "note_on_time": 12.132, "note_off_time": 12.535}, {"pitch": 42, "velocity": 80, "note_on_time": 12.132, "note_off_time": 12.535}, {"pitch": 42, "velocity": 80, "note_on_time": 12.535, "note_off_time": 12.941}, {"pitch": 42, "velocity": 80, "note_on_time": 12.941, "note_off_time": 13.345}, {"pitch": 62, "velocity": 80, "note_on_time": 13.345, "note_off_time": 13.751}, {"pitch": 42, "velocity": 80, "note_on_time": 13.346, "note_off_time": 13.752}, {"pitch": 62, "velocity": 80, "note_on_time": 13.751, "note_off_time": 14.155}, {"pitch": 42, "velocity": 80, "note_on_time": 13.752, "note_off_time": 14.156}, {"pitch": 62, "velocity": 80, "note_on_time": 14.155, "note_off_time": 14.562}, {"pitch": 42, "velocity": 80, "note_on_time": 14.156, "note_off_time": 14.562}]</notes><options name="Option List">((4, 4), [0.5, 0.25], 3, 8, &lt;NoteRangePerHand.THREE_NOTES: 4&gt;, &lt;NoteRangePerHand.ONE_NOTE: 2&gt;, False, True, False, 150)</options></target_notes><trials><trial trial_no="1" timestamp="2022_12_01-12_51_50"><notes name="Played Notes">[{"pitch": 62, "velocity": 72, "note_on_time": 1.604, "note_off_time": 1.899}, {"pitch": 60, "velocity": 75, "note_on_time": 2.021, "note_off_time": 2.299}, {"pitch": 64, "velocity": 68, "note_on_time": 2.419, "note_off_time": 2.683}, {"pitch": 60, "velocity": 78, "note_on_time": 2.831, "note_off_time": 3.057}, {"pitch": 62, "velocity": 82, "note_on_time": 3.223, "note_off_time": 4.111}, {"pitch": 60, "velocity": 77, "note_on_time": 4.908, "note_off_time": 5.851}, {"pitch": 62, "velocity": 82, "note_on_time": 6.054, "note_off_time": 6.967}, {"pitch": 62, "velocity": 81, "note_on_time": 7.281, "note_off_time": 7.516}, {"pitch": 62, "velocity": 81, "note_on_time": 7.699, "note_off_time": 7.902}, {"pitch": 62, "velocity": 74, "note_on_time": 8.086, "note_off_time": 8.284}, {"pitch": 64, "velocity": 72, "note_on_time": 8.463, "note_off_time": 8.696}, {"pitch": 62, "velocity": 76, "note_on_time": 8.876, "note_off_time": 9.113}, {"pitch": 60, "velocity": 74, "note_on_time": 9.264, "note_off_time": 9.463}, {"pitch": 64, "velocity": 73, "note_on_time": 9.64, "note_off_time": 10.111}, {"pitch": 64, "velocity": 76, "note_on_time": 10.614, "note_off_time": 10.84}, {"pitch": 62, "velocity": 75, "note_on_time": 10.989, "note_off_time": 11.236}, {"pitch": 64, "velocity": 71, "note_on_time": 11.372, "note_off_time": 11.59}, {"pitch": 64, "velocity": 70, "note_on_time": 11.758, "note_off_time": 11.957}, {"pitch": 64, "velocity": 69, "note_on_time": 12.142, "note_off_time": 12.33}, {"pitch": 64, "velocity": 74, "note_on_time": 12.521, "note_off_time": 12.668}, {"pitch": 62, "velocity": 77, "note_on_time": 12.884, "note_off_time": 13.502}, {"pitch": 62, "velocity": 82, "note_on_time": 14.234, "note_off_time": 14.416}]</notes><guidance name="Guidance Mode">None</guidance><error name="Error value">0.19542857142857162</error></trial></trials></MIDI>