<MIDI midiNo="2022_12_08-10_46_26"><target_notes><notes name="Note List">[{"pitch": 42, "velocity": 80, "note_on_time": 0.004, "note_off_time": 0.247}, {"pitch": 42, "velocity": 80, "note_on_time": 0.247, "note_off_time": 0.499}, {"pitch": 42, "velocity": 80, "note_on_time": 0.499, "note_off_time": 0.747}, {"pitch": 42, "velocity": 80, "note_on_time": 0.747, "note_off_time": 0.996}, {"pitch": 67, "velocity": 80, "note_on_time": 0.995, "note_off_time": 1.246}, {"pitch": 42, "velocity": 80, "note_on_time": 0.996, "note_off_time": 1.246}, {"pitch": 62, "velocity": 80, "note_on_time": 1.246, "note_off_time": 1.496}, {"pitch": 42, "velocity": 80, "note_on_time": 1.246, "note_off_time": 1.496}, {"pitch": 62, "velocity": 80, "note_on_time": 1.496, "note_off_time": 1.745}, {"pitch": 42, "velocity": 80, "note_on_time": 1.496, "note_off_time": 1.745}, {"pitch": 64, "velocity": 80, "note_on_time": 1.745, "note_off_time": 1.994}, {"pitch": 42, "velocity": 80, "note_on_time": 1.746, "note_off_time": 1.994}, {"pitch": 60, "velocity": 80, "note_on_time": 1.994, "note_off_time": 2.244}, {"pitch": 42, "velocity": 80, "note_on_time": 1.994, "note_off_time": 2.244}, {"pitch": 62, "velocity": 80, "note_on_time": 2.244, "note_off_time": 2.493}, {"pitch": 42, "velocity": 80, "note_on_time": 2.244, "note_off_time": 2.493}, {"pitch": 42, "velocity": 80, "note_on_time": 2.494, "note_off_time": 2.743}, {"pitch": 67, "velocity": 80, "note_on_time": 2.742, "note_off_time": 2.992}, {"pitch": 42, "velocity": 80, "note_on_time": 2.743, "note_off_time": 2.992}, {"pitch": 67, "velocity": 80, "note_on_time": 2.992, "note_off_time": 3.242}, {"pitch": 42, "velocity": 80, "note_on_time": 2.992, "note_off_time": 3.242}, {"pitch": 65, "velocity": 80, "note_on_time": 3.242, "note_off_time": 3.491}, {"pitch": 42, "velocity": 80, "note_on_time": 3.242, "note_off_time": 3.491}, {"pitch": 62, "velocity": 80, "note_on_time": 3.491, "note_off_time": 3.741}, {"pitch": 42, "velocity": 80, "note_on_time": 3.491, "note_off_time": 3.741}, {"pitch": 62, "velocity": 80, "note_on_time": 3.741, "note_off_time": 3.991}, {"pitch": 42, "velocity": 80, "note_on_time": 3.741, "note_off_time": 3.992}, {"pitch": 67, "velocity": 80, "note_on_time": 3.991, "note_off_time": 4.239}, {"pitch": 42, "velocity": 80, "note_on_time": 3.992, "note_off_time": 4.24}, {"pitch": 62, "velocity": 80, "note_on_time": 4.239, "note_off_time": 4.488}, {"pitch": 42, "velocity": 80, "note_on_time": 4.24, "note_off_time": 4.488}, {"pitch": 42, "velocity": 80, "note_on_time": 4.488, "note_off_time": 4.739}, {"pitch": 42, "velocity": 80, "note_on_time": 4.739, "note_off_time": 4.988}, {"pitch": 42, "velocity": 80, "note_on_time": 4.988, "note_off_time": 5.237}, {"pitch": 60, "velocity": 80, "note_on_time": 4.988, "note_off_time": 5.485}, {"pitch": 42, "velocity": 80, "note_on_time": 5.237, "note_off_time": 5.485}, {"pitch": 42, "velocity": 80, "note_on_time": 5.486, "note_off_time": 5.733}, {"pitch": 60, "velocity": 80, "note_on_time": 5.733, "note_off_time": 5.983}, {"pitch": 42, "velocity": 80, "note_on_time": 5.733, "note_off_time": 5.983}, {"pitch": 64, "velocity": 80, "note_on_time": 5.983, "note_off_time": 6.234}, {"pitch": 42, "velocity": 80, "note_on_time": 5.983, "note_off_time": 6.235}, {"pitch": 65, "velocity": 80, "note_on_time": 6.234, "note_off_time": 6.483}, {"pitch": 42, "velocity": 80, "note_on_time": 6.235, "note_off_time": 6.484}, {"pitch": 60, "velocity": 80, "note_on_time": 6.483, "note_off_time": 6.735}, {"pitch": 42, "velocity": 80, "note_on_time": 6.484, "note_off_time": 6.736}, {"pitch": 67, "velocity": 80, "note_on_time": 6.735, "note_off_time": 6.985}, {"pitch": 42, "velocity": 80, "note_on_time": 6.736, "note_off_time": 6.985}, {"pitch": 62, "velocity": 80, "note_on_time": 6.985, "note_off_time": 7.233}, {"pitch": 42, "velocity": 80, "note_on_time": 6.986, "note_off_time": 7.233}, {"pitch": 42, "velocity": 80, "note_on_time": 7.233, "note_off_time": 7.482}, {"pitch": 42, "velocity": 80, "note_on_time": 7.482, "note_off_time": 7.734}, {"pitch": 42, "velocity": 80, "note_on_time": 7.734, "note_off_time": 7.984}, {"pitch": 42, "velocity": 80, "note_on_time": 7.984, "note_off_time": 8.233}, {"pitch": 62, "velocity": 80, "note_on_time": 8.233, "note_off_time": 8.482}, {"pitch": 42, "velocity": 80, "note_on_time": 8.233, "note_off_time": 8.482}, {"pitch": 62, "velocity": 80, "note_on_time": 8.482, "note_off_time": 8.732}, {"pitch": 42, "velocity": 80, "note_on_time": 8.482, "note_off_time": 8.732}, {"pitch": 62, "velocity": 80, "note_on_time": 8.732, "note_off_time": 8.981}, {"pitch": 42, "velocity": 80, "note_on_time": 8.732, "note_off_time": 8.981}]</notes><options name="Option List">((4, 4), [0.5, 0.25], 3, 8, &lt;NoteRangePerHand.C_TO_G: 6&gt;, &lt;NoteRangePerHand.ONE_NOTE: 2&gt;, False, True, False, 248)</options></target_notes><trials><trial trial_no="1" timestamp="2022_12_08-10_46_16"><notes name="Played Notes">[{"pitch": 67, "velocity": 66, "note_on_time": 1.035, "note_off_time": 1.301}, {"pitch": 62, "velocity": 49, "note_on_time": 1.287, "note_off_time": 1.379}, {"pitch": 62, "velocity": 52, "note_on_time": 1.556, "note_off_time": 1.799}, {"pitch": 64, "velocity": 69, "note_on_time": 1.802, "note_off_time": 2.07}, {"pitch": 60, "velocity": 61, "note_on_time": 2.075, "note_off_time": 2.307}, {"pitch": 62, "velocity": 52, "note_on_time": 2.307, "note_off_time": 2.594}, {"pitch": 67, "velocity": 72, "note_on_time": 2.847, "note_off_time": 2.967}, {"pitch": 67, "velocity": 67, "note_on_time": 3.094, "note_off_time": 3.321}, {"pitch": 65, "velocity": 72, "note_on_time": 3.319, "note_off_time": 3.601}, {"pitch": 62, "velocity": 68, "note_on_time": 3.582, "note_off_time": 3.684}, {"pitch": 62, "velocity": 51, "note_on_time": 3.828, "note_off_time": 4.072}, {"pitch": 67, "velocity": 75, "note_on_time": 4.083, "note_off_time": 4.345}, {"pitch": 62, "velocity": 72, "note_on_time": 4.322, "note_off_time": 4.704}, {"pitch": 60, "velocity": 75, "note_on_time": 4.999, "note_off_time": 5.574}, {"pitch": 60, "velocity": 78, "note_on_time": 5.765, "note_off_time": 5.958}, {"pitch": 64, "velocity": 73, "note_on_time": 5.998, "note_off_time": 6.25}, {"pitch": 65, "velocity": 66, "note_on_time": 6.26, "note_off_time": 6.532}, {"pitch": 60, "velocity": 71, "note_on_time": 6.508, "note_off_time": 6.747}, {"pitch": 67, "velocity": 69, "note_on_time": 6.741, "note_off_time": 6.982}, {"pitch": 62, "velocity": 64, "note_on_time": 6.96, "note_off_time": 7.984}, {"pitch": 62, "velocity": 67, "note_on_time": 8.175, "note_off_time": 8.301}, {"pitch": 62, "velocity": 74, "note_on_time": 8.47, "note_off_time": 8.585}, {"pitch": 62, "velocity": 66, "note_on_time": 8.687, "note_off_time": 8.85}]</notes><guidance name="Guidance Mode">None</guidance><error name="Error value">0.02203575000000011</error></trial></trials></MIDI>