<MIDI midiNo="2022_11_13-12_54_29"><target_notes><notes name="Note List">[{"pitch": 42, "velocity": 80, "note_on_time": 0.004, "note_off_time": 0.219}, {"pitch": 42, "velocity": 80, "note_on_time": 0.219, "note_off_time": 0.438}, {"pitch": 42, "velocity": 80, "note_on_time": 0.438, "note_off_time": 0.658}, {"pitch": 42, "velocity": 80, "note_on_time": 0.658, "note_off_time": 0.876}, {"pitch": 42, "velocity": 80, "note_on_time": 0.876, "note_off_time": 1.096}, {"pitch": 60, "velocity": 80, "note_on_time": 0.876, "note_off_time": 1.314}, {"pitch": 42, "velocity": 80, "note_on_time": 1.096, "note_off_time": 1.314}, {"pitch": 42, "velocity": 80, "note_on_time": 1.314, "note_off_time": 1.532}, {"pitch": 60, "velocity": 80, "note_on_time": 1.532, "note_off_time": 1.748}, {"pitch": 42, "velocity": 80, "note_on_time": 1.532, "note_off_time": 1.748}, {"pitch": 60, "velocity": 80, "note_on_time": 1.748, "note_off_time": 1.967}, {"pitch": 42, "velocity": 80, "note_on_time": 1.748, "note_off_time": 1.967}, {"pitch": 42, "velocity": 80, "note_on_time": 1.967, "note_off_time": 2.188}, {"pitch": 64, "velocity": 80, "note_on_time": 1.967, "note_off_time": 2.406}, {"pitch": 42, "velocity": 80, "note_on_time": 2.188, "note_off_time": 2.406}, {"pitch": 42, "velocity": 80, "note_on_time": 2.406, "note_off_time": 2.624}, {"pitch": 65, "velocity": 80, "note_on_time": 2.624, "note_off_time": 2.844}, {"pitch": 42, "velocity": 80, "note_on_time": 2.624, "note_off_time": 2.844}, {"pitch": 62, "velocity": 80, "note_on_time": 2.844, "note_off_time": 3.06}, {"pitch": 42, "velocity": 80, "note_on_time": 2.844, "note_off_time": 3.06}, {"pitch": 65, "velocity": 80, "note_on_time": 3.06, "note_off_time": 3.278}, {"pitch": 42, "velocity": 80, "note_on_time": 3.06, "note_off_time": 3.278}, {"pitch": 64, "velocity": 80, "note_on_time": 3.278, "note_off_time": 3.496}, {"pitch": 42, "velocity": 80, "note_on_time": 3.278, "note_off_time": 3.496}, {"pitch": 64, "velocity": 80, "note_on_time": 3.496, "note_off_time": 3.715}, {"pitch": 42, "velocity": 80, "note_on_time": 3.496, "note_off_time": 3.715}, {"pitch": 64, "velocity": 80, "note_on_time": 3.715, "note_off_time": 3.934}, {"pitch": 42, "velocity": 80, "note_on_time": 3.715, "note_off_time": 3.934}, {"pitch": 65, "velocity": 80, "note_on_time": 3.934, "note_off_time": 4.152}, {"pitch": 42, "velocity": 80, "note_on_time": 3.934, "note_off_time": 4.152}, {"pitch": 60, "velocity": 80, "note_on_time": 4.152, "note_off_time": 4.371}, {"pitch": 42, "velocity": 80, "note_on_time": 4.152, "note_off_time": 4.371}, {"pitch": 67, "velocity": 80, "note_on_time": 4.371, "note_off_time": 4.59}, {"pitch": 42, "velocity": 80, "note_on_time": 4.371, "note_off_time": 4.59}, {"pitch": 62, "velocity": 80, "note_on_time": 4.59, "note_off_time": 4.808}, {"pitch": 42, "velocity": 80, "note_on_time": 4.59, "note_off_time": 4.808}, {"pitch": 60, "velocity": 80, "note_on_time": 4.808, "note_off_time": 5.024}, {"pitch": 42, "velocity": 80, "note_on_time": 4.808, "note_off_time": 5.024}, {"pitch": 42, "velocity": 80, "note_on_time": 5.024, "note_off_time": 5.245}, {"pitch": 42, "velocity": 80, "note_on_time": 5.245, "note_off_time": 5.462}, {"pitch": 62, "velocity": 80, "note_on_time": 5.245, "note_off_time": 5.681}, {"pitch": 42, "velocity": 80, "note_on_time": 5.462, "note_off_time": 5.681}, {"pitch": 42, "velocity": 80, "note_on_time": 5.681, "note_off_time": 5.899}, {"pitch": 42, "velocity": 80, "note_on_time": 5.899, "note_off_time": 6.117}, {"pitch": 64, "velocity": 80, "note_on_time": 6.117, "note_off_time": 6.337}, {"pitch": 42, "velocity": 80, "note_on_time": 6.117, "note_off_time": 6.337}, {"pitch": 42, "velocity": 80, "note_on_time": 6.337, "note_off_time": 6.556}, {"pitch": 42, "velocity": 80, "note_on_time": 6.556, "note_off_time": 6.775}, {"pitch": 64, "velocity": 80, "note_on_time": 6.775, "note_off_time": 6.996}, {"pitch": 42, "velocity": 80, "note_on_time": 6.775, "note_off_time": 6.996}, {"pitch": 42, "velocity": 80, "note_on_time": 6.996, "note_off_time": 7.216}, {"pitch": 64, "velocity": 80, "note_on_time": 7.216, "note_off_time": 7.434}, {"pitch": 42, "velocity": 80, "note_on_time": 7.216, "note_off_time": 7.434}, {"pitch": 64, "velocity": 80, "note_on_time": 7.434, "note_off_time": 7.653}, {"pitch": 42, "velocity": 80, "note_on_time": 7.434, "note_off_time": 7.653}, {"pitch": 64, "velocity": 80, "note_on_time": 7.653, "note_off_time": 7.871}, {"pitch": 42, "velocity": 80, "note_on_time": 7.653, "note_off_time": 7.871}]</notes><options name="Option List">((4, 4), [0.5, 0.25], 3, 8, &lt;NoteRangePerHand.C_TO_G: 6&gt;, &lt;NoteRangePerHand.ONE_NOTE: 2&gt;, False, True, False, 281)</options></target_notes><trials><trial trial_no="1" timestamp="2022_11_13-12_54_20"><notes name="Played Notes">[{"pitch": 60, "velocity": 95, "note_on_time": 0.879, "note_off_time": 1.087}, {"pitch": 60, "velocity": 90, "note_on_time": 1.534, "note_off_time": 1.732}, {"pitch": 60, "velocity": 100, "note_on_time": 1.962, "note_off_time": 2.082}, {"pitch": 64, "velocity": 94, "note_on_time": 2.195, "note_off_time": 2.403}, {"pitch": 65, "velocity": 89, "note_on_time": 2.839, "note_off_time": 3.074}, {"pitch": 62, "velocity": 84, "note_on_time": 3.066, "note_off_time": 3.298}, {"pitch": 65, "velocity": 89, "note_on_time": 3.28, "note_off_time": 3.414}, {"pitch": 64, "velocity": 93, "note_on_time": 3.501, "note_off_time": 3.596}, {"pitch": 64, "velocity": 84, "note_on_time": 3.707, "note_off_time": 3.809}, {"pitch": 65, "velocity": 96, "note_on_time": 3.927, "note_off_time": 4.025}, {"pitch": 60, "velocity": 89, "note_on_time": 4.137, "note_off_time": 4.198}, {"pitch": 67, "velocity": 88, "note_on_time": 4.357, "note_off_time": 4.449}, {"pitch": 62, "velocity": 80, "note_on_time": 4.566, "note_off_time": 4.635}, {"pitch": 60, "velocity": 94, "note_on_time": 4.797, "note_off_time": 4.897}, {"pitch": 62, "velocity": 94, "note_on_time": 5.244, "note_off_time": 5.388}, {"pitch": 64, "velocity": 88, "note_on_time": 5.901, "note_off_time": 6.031}, {"pitch": 64, "velocity": 104, "note_on_time": 6.501, "note_off_time": 6.587}, {"pitch": 64, "velocity": 96, "note_on_time": 6.934, "note_off_time": 7.031}, {"pitch": 64, "velocity": 91, "note_on_time": 7.129, "note_off_time": 7.222}, {"pitch": 64, "velocity": 97, "note_on_time": 7.365, "note_off_time": 7.443}]</notes><guidance name="Guidance Mode">None</guidance><error name="Error value">0.10165900000000003</error></trial></trials></MIDI>