<MIDI midiNo="2022_11_21-16_48_48"><target_notes><notes name="Note List">[{"pitch": 42, "velocity": 80, "note_on_time": 0.004, "note_off_time": 0.257}, {"pitch": 42, "velocity": 80, "note_on_time": 0.257, "note_off_time": 0.507}, {"pitch": 42, "velocity": 80, "note_on_time": 0.507, "note_off_time": 0.755}, {"pitch": 42, "velocity": 80, "note_on_time": 0.755, "note_off_time": 1.005}, {"pitch": 64, "velocity": 80, "note_on_time": 1.004, "note_off_time": 1.254}, {"pitch": 42, "velocity": 80, "note_on_time": 1.005, "note_off_time": 1.255}, {"pitch": 60, "velocity": 80, "note_on_time": 1.254, "note_off_time": 1.506}, {"pitch": 42, "velocity": 80, "note_on_time": 1.255, "note_off_time": 1.507}, {"pitch": 60, "velocity": 80, "note_on_time": 1.506, "note_off_time": 1.757}, {"pitch": 42, "velocity": 80, "note_on_time": 1.507, "note_off_time": 1.757}, {"pitch": 60, "velocity": 80, "note_on_time": 1.757, "note_off_time": 2.005}, {"pitch": 42, "velocity": 80, "note_on_time": 1.758, "note_off_time": 2.005}, {"pitch": 62, "velocity": 80, "note_on_time": 2.005, "note_off_time": 2.252}, {"pitch": 42, "velocity": 80, "note_on_time": 2.006, "note_off_time": 2.252}, {"pitch": 62, "velocity": 80, "note_on_time": 2.252, "note_off_time": 2.5}, {"pitch": 42, "velocity": 80, "note_on_time": 2.252, "note_off_time": 2.5}, {"pitch": 64, "velocity": 80, "note_on_time": 2.5, "note_off_time": 2.749}, {"pitch": 42, "velocity": 80, "note_on_time": 2.5, "note_off_time": 2.749}, {"pitch": 62, "velocity": 80, "note_on_time": 2.749, "note_off_time": 2.996}, {"pitch": 42, "velocity": 80, "note_on_time": 2.749, "note_off_time": 2.997}, {"pitch": 42, "velocity": 80, "note_on_time": 2.997, "note_off_time": 3.246}, {"pitch": 64, "velocity": 80, "note_on_time": 2.996, "note_off_time": 3.496}, {"pitch": 42, "velocity": 80, "note_on_time": 3.246, "note_off_time": 3.497}, {"pitch": 42, "velocity": 80, "note_on_time": 3.497, "note_off_time": 3.746}, {"pitch": 42, "velocity": 80, "note_on_time": 3.746, "note_off_time": 3.995}, {"pitch": 62, "velocity": 80, "note_on_time": 3.995, "note_off_time": 4.244}, {"pitch": 42, "velocity": 80, "note_on_time": 3.995, "note_off_time": 4.245}, {"pitch": 42, "velocity": 80, "note_on_time": 4.245, "note_off_time": 4.493}, {"pitch": 42, "velocity": 80, "note_on_time": 4.493, "note_off_time": 4.742}, {"pitch": 64, "velocity": 80, "note_on_time": 4.742, "note_off_time": 4.99}, {"pitch": 42, "velocity": 80, "note_on_time": 4.743, "note_off_time": 4.99}, {"pitch": 42, "velocity": 80, "note_on_time": 4.991, "note_off_time": 5.239}, {"pitch": 60, "velocity": 80, "note_on_time": 4.99, "note_off_time": 5.488}, {"pitch": 42, "velocity": 80, "note_on_time": 5.239, "note_off_time": 5.488}, {"pitch": 42, "velocity": 80, "note_on_time": 5.488, "note_off_time": 5.736}, {"pitch": 42, "velocity": 80, "note_on_time": 5.737, "note_off_time": 5.988}, {"pitch": 64, "velocity": 80, "note_on_time": 5.988, "note_off_time": 6.238}, {"pitch": 42, "velocity": 80, "note_on_time": 5.989, "note_off_time": 6.238}, {"pitch": 60, "velocity": 80, "note_on_time": 6.238, "note_off_time": 6.488}, {"pitch": 42, "velocity": 80, "note_on_time": 6.238, "note_off_time": 6.488}, {"pitch": 60, "velocity": 80, "note_on_time": 6.488, "note_off_time": 6.737}, {"pitch": 42, "velocity": 80, "note_on_time": 6.489, "note_off_time": 6.737}, {"pitch": 60, "velocity": 80, "note_on_time": 6.737, "note_off_time": 6.988}, {"pitch": 42, "velocity": 80, "note_on_time": 6.738, "note_off_time": 6.988}, {"pitch": 60, "velocity": 80, "note_on_time": 6.988, "note_off_time": 7.235}, {"pitch": 42, "velocity": 80, "note_on_time": 6.989, "note_off_time": 7.235}, {"pitch": 62, "velocity": 80, "note_on_time": 7.235, "note_off_time": 7.486}, {"pitch": 42, "velocity": 80, "note_on_time": 7.235, "note_off_time": 7.486}, {"pitch": 60, "velocity": 80, "note_on_time": 7.486, "note_off_time": 7.736}, {"pitch": 42, "velocity": 80, "note_on_time": 7.486, "note_off_time": 7.736}, {"pitch": 60, "velocity": 80, "note_on_time": 7.736, "note_off_time": 7.985}, {"pitch": 42, "velocity": 80, "note_on_time": 7.737, "note_off_time": 7.985}, {"pitch": 42, "velocity": 80, "note_on_time": 7.986, "note_off_time": 8.235}, {"pitch": 60, "velocity": 80, "note_on_time": 8.235, "note_off_time": 8.485}, {"pitch": 42, "velocity": 80, "note_on_time": 8.236, "note_off_time": 8.485}, {"pitch": 60, "velocity": 80, "note_on_time": 8.485, "note_off_time": 8.733}, {"pitch": 42, "velocity": 80, "note_on_time": 8.485, "note_off_time": 8.733}, {"pitch": 60, "velocity": 80, "note_on_time": 8.733, "note_off_time": 8.985}, {"pitch": 42, "velocity": 80, "note_on_time": 8.734, "note_off_time": 8.985}]</notes><options name="Option List">((4, 4), [0.5, 0.25], 3, 8, &lt;NoteRangePerHand.THREE_NOTES: 4&gt;, &lt;NoteRangePerHand.ONE_NOTE: 2&gt;, False, True, False, 248)</options></target_notes><trials><trial trial_no="1" timestamp="2022_11_21-16_48_38"><notes name="Played Notes">[{"pitch": 64, "velocity": 76, "note_on_time": 0.97, "note_off_time": 1.161}, {"pitch": 60, "velocity": 69, "note_on_time": 1.191, "note_off_time": 1.35}, {"pitch": 60, "velocity": 66, "note_on_time": 1.462, "note_off_time": 1.615}, {"pitch": 60, "velocity": 80, "note_on_time": 1.719, "note_off_time": 1.882}, {"pitch": 62, "velocity": 76, "note_on_time": 2.005, "note_off_time": 2.152}, {"pitch": 62, "velocity": 76, "note_on_time": 2.247, "note_off_time": 2.405}, {"pitch": 64, "velocity": 75, "note_on_time": 2.517, "note_off_time": 2.698}, {"pitch": 62, "velocity": 77, "note_on_time": 2.739, "note_off_time": 2.879}, {"pitch": 64, "velocity": 84, "note_on_time": 3.016, "note_off_time": 3.506}, {"pitch": 60, "velocity": 57, "note_on_time": 4.137, "note_off_time": 4.426}, {"pitch": 62, "velocity": 70, "note_on_time": 4.526, "note_off_time": 4.716}, {"pitch": 64, "velocity": 79, "note_on_time": 5.235, "note_off_time": 5.396}, {"pitch": 60, "velocity": 78, "note_on_time": 5.48, "note_off_time": 5.958}, {"pitch": 64, "velocity": 76, "note_on_time": 6.299, "note_off_time": 6.453}, {"pitch": 60, "velocity": 77, "note_on_time": 6.548, "note_off_time": 6.694}, {"pitch": 60, "velocity": 72, "note_on_time": 6.797, "note_off_time": 6.917}, {"pitch": 60, "velocity": 74, "note_on_time": 7.021, "note_off_time": 7.162}, {"pitch": 60, "velocity": 72, "note_on_time": 7.268, "note_off_time": 7.399}, {"pitch": 62, "velocity": 64, "note_on_time": 7.527, "note_off_time": 7.74}, {"pitch": 60, "velocity": 66, "note_on_time": 7.762, "note_off_time": 7.941}, {"pitch": 60, "velocity": 79, "note_on_time": 8.037, "note_off_time": 8.224}, {"pitch": 60, "velocity": 87, "note_on_time": 8.514, "note_off_time": 8.662}, {"pitch": 60, "velocity": 79, "note_on_time": 8.762, "note_off_time": 8.902}]</notes><guidance name="Guidance Mode">None</guidance><error name="Error value">0.6864564999999998</error></trial></trials></MIDI>