<MIDI midiNo="2022_08_17-11_52_51"><target_notes><notes name="Note List">[{"pitch": 42, "velocity": 80, "note_on_time": 0.004, "note_off_time": 1.513}, {"pitch": 42, "velocity": 80, "note_on_time": 1.513, "note_off_time": 3.024}, {"pitch": 42, "velocity": 80, "note_on_time": 3.025, "note_off_time": 4.539}, {"pitch": 42, "velocity": 80, "note_on_time": 4.539, "note_off_time": 6.052}, {"pitch": 60, "velocity": 80, "note_on_time": 6.052, "note_off_time": 7.567}, {"pitch": 42, "velocity": 80, "note_on_time": 6.052, "note_off_time": 7.568}, {"pitch": 62, "velocity": 80, "note_on_time": 7.567, "note_off_time": 9.08}, {"pitch": 42, "velocity": 80, "note_on_time": 7.568, "note_off_time": 9.081}, {"pitch": 60, "velocity": 80, "note_on_time": 9.08, "note_off_time": 10.593}, {"pitch": 42, "velocity": 80, "note_on_time": 9.081, "note_off_time": 10.593}, {"pitch": 62, "velocity": 80, "note_on_time": 10.593, "note_off_time": 12.102}, {"pitch": 42, "velocity": 80, "note_on_time": 10.594, "note_off_time": 12.103}, {"pitch": 42, "velocity": 80, "note_on_time": 12.103, "note_off_time": 13.603}, {"pitch": 62, "velocity": 80, "note_on_time": 12.102, "note_off_time": 15.109}, {"pitch": 42, "velocity": 80, "note_on_time": 13.603, "note_off_time": 15.109}, {"pitch": 60, "velocity": 80, "note_on_time": 15.109, "note_off_time": 16.623}, {"pitch": 42, "velocity": 80, "note_on_time": 15.11, "note_off_time": 16.623}, {"pitch": 62, "velocity": 80, "note_on_time": 16.623, "note_off_time": 18.134}, {"pitch": 42, "velocity": 80, "note_on_time": 16.623, "note_off_time": 18.135}, {"pitch": 60, "velocity": 80, "note_on_time": 18.134, "note_off_time": 19.649}, {"pitch": 42, "velocity": 80, "note_on_time": 18.135, "note_off_time": 19.649}, {"pitch": 62, "velocity": 80, "note_on_time": 19.649, "note_off_time": 21.164}, {"pitch": 42, "velocity": 80, "note_on_time": 19.65, "note_off_time": 21.164}, {"pitch": 62, "velocity": 80, "note_on_time": 21.164, "note_off_time": 22.665}, {"pitch": 42, "velocity": 80, "note_on_time": 21.164, "note_off_time": 22.666}, {"pitch": 62, "velocity": 80, "note_on_time": 22.665, "note_off_time": 24.178}, {"pitch": 42, "velocity": 80, "note_on_time": 22.666, "note_off_time": 24.179}, {"pitch": 60, "velocity": 80, "note_on_time": 24.178, "note_off_time": 25.692}, {"pitch": 42, "velocity": 80, "note_on_time": 24.179, "note_off_time": 25.692}, {"pitch": 60, "velocity": 80, "note_on_time": 25.692, "note_off_time": 27.205}, {"pitch": 42, "velocity": 80, "note_on_time": 25.693, "note_off_time": 27.205}, {"pitch": 60, "velocity": 80, "note_on_time": 27.205, "note_off_time": 28.718}, {"pitch": 42, "velocity": 80, "note_on_time": 27.205, "note_off_time": 28.718}, {"pitch": 60, "velocity": 80, "note_on_time": 28.718, "note_off_time": 30.23}, {"pitch": 42, "velocity": 80, "note_on_time": 28.718, "note_off_time": 30.23}, {"pitch": 62, "velocity": 80, "note_on_time": 30.23, "note_off_time": 31.743}, {"pitch": 42, "velocity": 80, "note_on_time": 30.231, "note_off_time": 31.744}, {"pitch": 62, "velocity": 80, "note_on_time": 31.743, "note_off_time": 33.255}, {"pitch": 42, "velocity": 80, "note_on_time": 31.744, "note_off_time": 33.256}, {"pitch": 62, "velocity": 80, "note_on_time": 33.255, "note_off_time": 34.769}, {"pitch": 42, "velocity": 80, "note_on_time": 33.256, "note_off_time": 34.769}, {"pitch": 62, "velocity": 80, "note_on_time": 34.769, "note_off_time": 36.284}, {"pitch": 42, "velocity": 80, "note_on_time": 34.77, "note_off_time": 36.285}, {"pitch": 60, "velocity": 80, "note_on_time": 36.284, "note_off_time": 37.799}, {"pitch": 42, "velocity": 80, "note_on_time": 36.285, "note_off_time": 37.8}, {"pitch": 62, "velocity": 80, "note_on_time": 37.799, "note_off_time": 39.308}, {"pitch": 42, "velocity": 80, "note_on_time": 37.8, "note_off_time": 39.308}, {"pitch": 62, "velocity": 80, "note_on_time": 39.308, "note_off_time": 40.809}, {"pitch": 42, "velocity": 80, "note_on_time": 39.308, "note_off_time": 40.809}, {"pitch": 62, "velocity": 80, "note_on_time": 40.809, "note_off_time": 42.324}, {"pitch": 42, "velocity": 80, "note_on_time": 40.809, "note_off_time": 42.324}, {"pitch": 62, "velocity": 80, "note_on_time": 42.324, "note_off_time": 43.832}, {"pitch": 42, "velocity": 80, "note_on_time": 42.324, "note_off_time": 43.833}, {"pitch": 62, "velocity": 80, "note_on_time": 43.832, "note_off_time": 45.34}, {"pitch": 42, "velocity": 80, "note_on_time": 43.833, "note_off_time": 45.34}, {"pitch": 60, "velocity": 80, "note_on_time": 45.34, "note_off_time": 46.85}, {"pitch": 42, "velocity": 80, "note_on_time": 45.34, "note_off_time": 46.851}, {"pitch": 60, "velocity": 80, "note_on_time": 46.85, "note_off_time": 48.363}, {"pitch": 42, "velocity": 80, "note_on_time": 46.851, "note_off_time": 48.363}, {"pitch": 42, "velocity": 80, "note_on_time": 48.364, "note_off_time": 49.878}, {"pitch": 60, "velocity": 80, "note_on_time": 49.878, "note_off_time": 51.381}, {"pitch": 42, "velocity": 80, "note_on_time": 49.879, "note_off_time": 51.382}, {"pitch": 60, "velocity": 80, "note_on_time": 51.381, "note_off_time": 52.894}, {"pitch": 42, "velocity": 80, "note_on_time": 51.382, "note_off_time": 52.895}, {"pitch": 60, "velocity": 80, "note_on_time": 52.894, "note_off_time": 54.406}, {"pitch": 42, "velocity": 80, "note_on_time": 52.895, "note_off_time": 54.406}]</notes><options name="Option List">((4, 4), [0.5, 0.25], 3, 8, &lt;NoteRangePerHand.TWO_NOTES: 3&gt;, &lt;NoteRangePerHand.ONE_NOTE: 2&gt;, False, True, True, 40)</options></target_notes><trials><trial trial_no="1" timestamp="2022_08_17-11_51_55"><notes name="Played Notes">[{"pitch": 60, "velocity": 46, "note_on_time": 9.392, "note_off_time": 10.709}, {"pitch": 62, "velocity": 23, "note_on_time": 10.642, "note_off_time": 11.661}, {"pitch": 62, "velocity": 39, "note_on_time": 12.088, "note_off_time": 13.017}, {"pitch": 62, "velocity": 6, "note_on_time": 13.631, "note_off_time": 14.679}, {"pitch": 62, "velocity": 7, "note_on_time": 15.148, "note_off_time": 16.049}, {"pitch": 60, "velocity": 1, "note_on_time": 16.618, "note_off_time": 17.599}, {"pitch": 62, "velocity": 1, "note_on_time": 18.075, "note_off_time": 19.107}, {"pitch": 62, "velocity": 1, "note_on_time": 19.739, "note_off_time": 20.463}, {"pitch": 62, "velocity": 21, "note_on_time": 21.082, "note_off_time": 22.027}, {"pitch": 62, "velocity": 1, "note_on_time": 22.614, "note_off_time": 23.627}, {"pitch": 60, "velocity": 1, "note_on_time": 24.327, "note_off_time": 24.834}, {"pitch": 62, "velocity": 33, "note_on_time": 25.86, "note_off_time": 26.444}, {"pitch": 64, "velocity": 1, "note_on_time": 27.304, "note_off_time": 27.524}]</notes><guidance name="Guidance Mode">None</guidance><error name="Error value">4.6204074074074075</error></trial></trials></MIDI>