<MIDI midiNo="2022_11_23-16_59_38"><target_notes><notes name="Note List">[{"pitch": 42, "velocity": 80, "note_on_time": 0.004, "note_off_time": 0.224}, {"pitch": 42, "velocity": 80, "note_on_time": 0.224, "note_off_time": 0.441}, {"pitch": 42, "velocity": 80, "note_on_time": 0.441, "note_off_time": 0.658}, {"pitch": 42, "velocity": 80, "note_on_time": 0.658, "note_off_time": 0.875}, {"pitch": 64, "velocity": 80, "note_on_time": 0.875, "note_off_time": 1.091}, {"pitch": 42, "velocity": 80, "note_on_time": 0.875, "note_off_time": 1.091}, {"pitch": 67, "velocity": 80, "note_on_time": 1.091, "note_off_time": 1.307}, {"pitch": 42, "velocity": 80, "note_on_time": 1.091, "note_off_time": 1.307}, {"pitch": 64, "velocity": 80, "note_on_time": 1.307, "note_off_time": 1.523}, {"pitch": 42, "velocity": 80, "note_on_time": 1.307, "note_off_time": 1.523}, {"pitch": 60, "velocity": 80, "note_on_time": 1.523, "note_off_time": 1.738}, {"pitch": 42, "velocity": 80, "note_on_time": 1.523, "note_off_time": 1.738}, {"pitch": 62, "velocity": 80, "note_on_time": 1.738, "note_off_time": 1.954}, {"pitch": 42, "velocity": 80, "note_on_time": 1.739, "note_off_time": 1.954}, {"pitch": 60, "velocity": 80, "note_on_time": 1.954, "note_off_time": 2.173}, {"pitch": 42, "velocity": 80, "note_on_time": 1.954, "note_off_time": 2.173}, {"pitch": 60, "velocity": 80, "note_on_time": 2.173, "note_off_time": 2.39}, {"pitch": 42, "velocity": 80, "note_on_time": 2.174, "note_off_time": 2.39}, {"pitch": 65, "velocity": 80, "note_on_time": 2.39, "note_off_time": 2.606}, {"pitch": 42, "velocity": 80, "note_on_time": 2.39, "note_off_time": 2.606}, {"pitch": 62, "velocity": 80, "note_on_time": 2.606, "note_off_time": 2.822}, {"pitch": 42, "velocity": 80, "note_on_time": 2.606, "note_off_time": 2.822}, {"pitch": 42, "velocity": 80, "note_on_time": 2.822, "note_off_time": 3.038}, {"pitch": 42, "velocity": 80, "note_on_time": 3.038, "note_off_time": 3.256}, {"pitch": 42, "velocity": 80, "note_on_time": 3.256, "note_off_time": 3.474}, {"pitch": 62, "velocity": 80, "note_on_time": 3.474, "note_off_time": 3.691}, {"pitch": 42, "velocity": 80, "note_on_time": 3.474, "note_off_time": 3.691}, {"pitch": 42, "velocity": 80, "note_on_time": 3.691, "note_off_time": 3.908}, {"pitch": 42, "velocity": 80, "note_on_time": 3.908, "note_off_time": 4.127}, {"pitch": 67, "velocity": 80, "note_on_time": 4.127, "note_off_time": 4.344}, {"pitch": 42, "velocity": 80, "note_on_time": 4.127, "note_off_time": 4.344}, {"pitch": 42, "velocity": 80, "note_on_time": 4.344, "note_off_time": 4.565}, {"pitch": 64, "velocity": 80, "note_on_time": 4.344, "note_off_time": 4.781}, {"pitch": 42, "velocity": 80, "note_on_time": 4.565, "note_off_time": 4.781}, {"pitch": 64, "velocity": 80, "note_on_time": 4.781, "note_off_time": 4.999}, {"pitch": 42, "velocity": 80, "note_on_time": 4.782, "note_off_time": 4.999}, {"pitch": 65, "velocity": 80, "note_on_time": 4.999, "note_off_time": 5.217}, {"pitch": 42, "velocity": 80, "note_on_time": 4.999, "note_off_time": 5.217}, {"pitch": 67, "velocity": 80, "note_on_time": 5.217, "note_off_time": 5.435}, {"pitch": 42, "velocity": 80, "note_on_time": 5.217, "note_off_time": 5.435}, {"pitch": 60, "velocity": 80, "note_on_time": 5.435, "note_off_time": 5.653}, {"pitch": 42, "velocity": 80, "note_on_time": 5.435, "note_off_time": 5.653}, {"pitch": 62, "velocity": 80, "note_on_time": 5.653, "note_off_time": 5.871}, {"pitch": 42, "velocity": 80, "note_on_time": 5.653, "note_off_time": 5.871}, {"pitch": 62, "velocity": 80, "note_on_time": 5.871, "note_off_time": 6.087}, {"pitch": 42, "velocity": 80, "note_on_time": 5.871, "note_off_time": 6.087}, {"pitch": 67, "velocity": 80, "note_on_time": 6.087, "note_off_time": 6.305}, {"pitch": 42, "velocity": 80, "note_on_time": 6.087, "note_off_time": 6.305}, {"pitch": 60, "velocity": 80, "note_on_time": 6.305, "note_off_time": 6.521}, {"pitch": 42, "velocity": 80, "note_on_time": 6.305, "note_off_time": 6.521}, {"pitch": 65, "velocity": 80, "note_on_time": 6.521, "note_off_time": 6.739}, {"pitch": 42, "velocity": 80, "note_on_time": 6.521, "note_off_time": 6.739}, {"pitch": 65, "velocity": 80, "note_on_time": 6.739, "note_off_time": 6.958}, {"pitch": 42, "velocity": 80, "note_on_time": 6.739, "note_off_time": 6.958}, {"pitch": 42, "velocity": 80, "note_on_time": 6.958, "note_off_time": 7.176}, {"pitch": 65, "velocity": 80, "note_on_time": 7.176, "note_off_time": 7.394}, {"pitch": 42, "velocity": 80, "note_on_time": 7.176, "note_off_time": 7.394}, {"pitch": 65, "velocity": 80, "note_on_time": 7.394, "note_off_time": 7.612}, {"pitch": 42, "velocity": 80, "note_on_time": 7.394, "note_off_time": 7.612}, {"pitch": 65, "velocity": 80, "note_on_time": 7.612, "note_off_time": 7.831}, {"pitch": 42, "velocity": 80, "note_on_time": 7.612, "note_off_time": 7.831}]</notes><options name="Option List">((4, 4), [0.5, 0.25], 3, 8, &lt;NoteRangePerHand.C_TO_G: 6&gt;, &lt;NoteRangePerHand.ONE_NOTE: 2&gt;, False, True, True, '281')</options></target_notes><trials><trial trial_no="1" timestamp="2022_11_23-16_59_29"><notes name="Played Notes">[{"pitch": 64, "velocity": 88, "note_on_time": 0.94, "note_off_time": 1.164}, {"pitch": 67, "velocity": 74, "note_on_time": 1.164, "note_off_time": 1.421}, {"pitch": 64, "velocity": 76, "note_on_time": 1.398, "note_off_time": 1.629}, {"pitch": 60, "velocity": 75, "note_on_time": 1.635, "note_off_time": 1.884}, {"pitch": 62, "velocity": 75, "note_on_time": 1.877, "note_off_time": 2.127}, {"pitch": 60, "velocity": 59, "note_on_time": 2.123, "note_off_time": 2.189}, {"pitch": 60, "velocity": 72, "note_on_time": 2.358, "note_off_time": 2.504}, {"pitch": 65, "velocity": 78, "note_on_time": 2.592, "note_off_time": 2.725}, {"pitch": 60, "velocity": 83, "note_on_time": 2.893, "note_off_time": 3.003}, {"pitch": 62, "velocity": 53, "note_on_time": 2.858, "note_off_time": 3.441}, {"pitch": 62, "velocity": 78, "note_on_time": 3.751, "note_off_time": 3.971}, {"pitch": 67, "velocity": 74, "note_on_time": 4.451, "note_off_time": 4.802}, {"pitch": 64, "velocity": 78, "note_on_time": 5.276, "note_off_time": 5.629}, {"pitch": 64, "velocity": 78, "note_on_time": 5.91, "note_off_time": 6.158}, {"pitch": 65, "velocity": 69, "note_on_time": 6.147, "note_off_time": 6.38}, {"pitch": 67, "velocity": 69, "note_on_time": 6.391, "note_off_time": 6.548}, {"pitch": 60, "velocity": 72, "note_on_time": 6.594, "note_off_time": 6.817}, {"pitch": 62, "velocity": 70, "note_on_time": 6.82, "note_off_time": 6.915}, {"pitch": 62, "velocity": 68, "note_on_time": 7.061, "note_off_time": 7.187}, {"pitch": 67, "velocity": 46, "note_on_time": 7.325, "note_off_time": 7.506}, {"pitch": 60, "velocity": 67, "note_on_time": 7.546, "note_off_time": 7.69}]</notes><guidance name="Guidance Mode">None</guidance><error name="Error value">1.0518853181818184</error></trial><trial trial_no="2" timestamp="2022_11_23-16_59_46"><notes name="Played Notes">[{"pitch": 64, "velocity": 90, "note_on_time": 0.928, "note_off_time": 1.151}, {"pitch": 67, "velocity": 76, "note_on_time": 1.15, "note_off_time": 1.414}, {"pitch": 64, "velocity": 80, "note_on_time": 1.379, "note_off_time": 1.608}, {"pitch": 60, "velocity": 77, "note_on_time": 1.611, "note_off_time": 1.834}, {"pitch": 62, "velocity": 78, "note_on_time": 1.836, "note_off_time": 2.063}, {"pitch": 60, "velocity": 79, "note_on_time": 2.047, "note_off_time": 2.128}, {"pitch": 60, "velocity": 81, "note_on_time": 2.269, "note_off_time": 2.39}, {"pitch": 65, "velocity": 81, "note_on_time": 2.477, "note_off_time": 2.595}, {"pitch": 62, "velocity": 82, "note_on_time": 2.709, "note_off_time": 2.959}, {"pitch": 62, "velocity": 85, "note_on_time": 3.512, "note_off_time": 3.764}, {"pitch": 67, "velocity": 88, "note_on_time": 4.345, "note_off_time": 4.645}, {"pitch": 64, "velocity": 90, "note_on_time": 4.827, "note_off_time": 5.303}, {"pitch": 64, "velocity": 79, "note_on_time": 5.602, "note_off_time": 5.83}, {"pitch": 65, "velocity": 71, "note_on_time": 5.835, "note_off_time": 6.0}, {"pitch": 67, "velocity": 71, "note_on_time": 6.05, "note_off_time": 6.19}, {"pitch": 60, "velocity": 71, "note_on_time": 6.27, "note_off_time": 6.463}, {"pitch": 62, "velocity": 72, "note_on_time": 6.491, "note_off_time": 6.59}, {"pitch": 62, "velocity": 73, "note_on_time": 6.733, "note_off_time": 6.85}, {"pitch": 67, "velocity": 81, "note_on_time": 6.967, "note_off_time": 7.13}, {"pitch": 60, "velocity": 74, "note_on_time": 7.187, "note_off_time": 7.305}, {"pitch": 65, "velocity": 78, "note_on_time": 7.416, "note_off_time": 7.515}, {"pitch": 65, "velocity": 63, "note_on_time": 7.653, "note_off_time": 7.807}]</notes><guidance name="Guidance Mode">None</guidance><error name="Error value">0.34944409090909084</error></trial><trial trial_no="3" timestamp="2022_11_23-17_00_53"><notes name="Played Notes">[{"pitch": 64, "velocity": 87, "note_on_time": 0.925, "note_off_time": 1.151}, {"pitch": 67, "velocity": 74, "note_on_time": 1.148, "note_off_time": 1.405}, {"pitch": 64, "velocity": 75, "note_on_time": 1.377, "note_off_time": 1.608}, {"pitch": 60, "velocity": 78, "note_on_time": 1.608, "note_off_time": 1.834}, {"pitch": 62, "velocity": 75, "note_on_time": 1.832, "note_off_time": 2.066}, {"pitch": 60, "velocity": 72, "note_on_time": 2.056, "note_off_time": 2.146}, {"pitch": 60, "velocity": 62, "note_on_time": 2.258, "note_off_time": 2.398}, {"pitch": 65, "velocity": 76, "note_on_time": 2.5, "note_off_time": 2.611}, {"pitch": 62, "velocity": 79, "note_on_time": 2.749, "note_off_time": 3.048}, {"pitch": 62, "velocity": 69, "note_on_time": 3.536, "note_off_time": 3.857}, {"pitch": 67, "velocity": 84, "note_on_time": 4.364, "note_off_time": 4.637}, {"pitch": 64, "velocity": 80, "note_on_time": 4.828, "note_off_time": 4.943}, {"pitch": 64, "velocity": 75, "note_on_time": 5.046, "note_off_time": 5.212}, {"pitch": 65, "velocity": 81, "note_on_time": 5.253, "note_off_time": 5.5}, {"pitch": 67, "velocity": 79, "note_on_time": 5.547, "note_off_time": 5.877}, {"pitch": 60, "velocity": 91, "note_on_time": 5.933, "note_off_time": 6.148}, {"pitch": 62, "velocity": 85, "note_on_time": 6.249, "note_off_time": 6.433}, {"pitch": 62, "velocity": 85, "note_on_time": 6.561, "note_off_time": 6.715}, {"pitch": 67, "velocity": 81, "note_on_time": 6.819, "note_off_time": 6.998}, {"pitch": 60, "velocity": 84, "note_on_time": 7.027, "note_off_time": 7.125}, {"pitch": 65, "velocity": 83, "note_on_time": 7.243, "note_off_time": 7.348}, {"pitch": 65, "velocity": 74, "note_on_time": 7.45, "note_off_time": 7.578}, {"pitch": 65, "velocity": 81, "note_on_time": 7.718, "note_off_time": 7.83}]</notes><guidance name="Guidance Mode">None</guidance><error name="Error value">0.18476854545454546</error></trial><trial trial_no="4" timestamp="2022_11_23-17_01_16"><notes name="Played Notes">[{"pitch": 64, "velocity": 86, "note_on_time": 0.919, "note_off_time": 1.149}, {"pitch": 67, "velocity": 70, "note_on_time": 1.148, "note_off_time": 1.399}, {"pitch": 64, "velocity": 80, "note_on_time": 1.367, "note_off_time": 1.597}, {"pitch": 60, "velocity": 80, "note_on_time": 1.595, "note_off_time": 1.825}, {"pitch": 62, "velocity": 75, "note_on_time": 1.827, "note_off_time": 2.065}, {"pitch": 60, "velocity": 77, "note_on_time": 2.055, "note_off_time": 2.155}, {"pitch": 60, "velocity": 72, "note_on_time": 2.276, "note_off_time": 2.394}, {"pitch": 65, "velocity": 85, "note_on_time": 2.502, "note_off_time": 2.671}, {"pitch": 62, "velocity": 86, "note_on_time": 2.743, "note_off_time": 2.942}, {"pitch": 62, "velocity": 93, "note_on_time": 3.65, "note_off_time": 3.882}, {"pitch": 67, "velocity": 84, "note_on_time": 4.397, "note_off_time": 4.663}, {"pitch": 64, "velocity": 87, "note_on_time": 5.205, "note_off_time": 5.389}, {"pitch": 64, "velocity": 84, "note_on_time": 5.68, "note_off_time": 5.896}, {"pitch": 65, "velocity": 77, "note_on_time": 5.908, "note_off_time": 6.132}, {"pitch": 67, "velocity": 74, "note_on_time": 6.144, "note_off_time": 6.322}, {"pitch": 60, "velocity": 81, "note_on_time": 6.365, "note_off_time": 6.492}, {"pitch": 62, "velocity": 67, "note_on_time": 6.587, "note_off_time": 6.686}, {"pitch": 62, "velocity": 65, "note_on_time": 6.814, "note_off_time": 6.932}, {"pitch": 67, "velocity": 83, "note_on_time": 7.049, "note_off_time": 7.223}, {"pitch": 60, "velocity": 79, "note_on_time": 7.252, "note_off_time": 7.367}, {"pitch": 65, "velocity": 71, "note_on_time": 7.482, "note_off_time": 7.583}, {"pitch": 65, "velocity": 71, "note_on_time": 7.699, "note_off_time": 7.812}]</notes><guidance name="Guidance Mode">None</guidance><error name="Error value">0.5664140454545455</error></trial><trial trial_no="5" timestamp="2022_11_23-17_01_38"><notes name="Played Notes">[{"pitch": 64, "velocity": 84, "note_on_time": 0.933, "note_off_time": 1.169}, {"pitch": 67, "velocity": 68, "note_on_time": 1.172, "note_off_time": 1.432}, {"pitch": 64, "velocity": 73, "note_on_time": 1.406, "note_off_time": 1.62}, {"pitch": 60, "velocity": 71, "note_on_time": 1.631, "note_off_time": 1.869}, {"pitch": 62, "velocity": 72, "note_on_time": 1.871, "note_off_time": 2.045}, {"pitch": 60, "velocity": 72, "note_on_time": 2.11, "note_off_time": 2.209}, {"pitch": 60, "velocity": 70, "note_on_time": 2.342, "note_off_time": 2.486}, {"pitch": 65, "velocity": 71, "note_on_time": 2.576, "note_off_time": 2.709}, {"pitch": 62, "velocity": 72, "note_on_time": 2.85, "note_off_time": 3.105}, {"pitch": 62, "velocity": 77, "note_on_time": 3.736, "note_off_time": 3.925}, {"pitch": 67, "velocity": 79, "note_on_time": 4.367, "note_off_time": 4.704}, {"pitch": 64, "velocity": 81, "note_on_time": 5.213, "note_off_time": 5.662}, {"pitch": 64, "velocity": 76, "note_on_time": 5.866, "note_off_time": 6.106}, {"pitch": 65, "velocity": 70, "note_on_time": 6.113, "note_off_time": 6.245}, {"pitch": 67, "velocity": 70, "note_on_time": 6.336, "note_off_time": 6.525}, {"pitch": 60, "velocity": 78, "note_on_time": 6.566, "note_off_time": 6.735}, {"pitch": 62, "velocity": 59, "note_on_time": 6.777, "note_off_time": 6.907}, {"pitch": 62, "velocity": 67, "note_on_time": 7.029, "note_off_time": 7.148}, {"pitch": 67, "velocity": 77, "note_on_time": 7.248, "note_off_time": 7.414}, {"pitch": 60, "velocity": 71, "note_on_time": 7.455, "note_off_time": 7.584}, {"pitch": 65, "velocity": 75, "note_on_time": 7.664, "note_off_time": 7.782}]</notes><guidance name="Guidance Mode">None</guidance><error name="Error value">0.5929482727272729</error></trial></trials></MIDI>