<MIDI midiNo="2022_12_15-12_44_28"><target_notes><notes name="Note List">[{"pitch": 42, "velocity": 80, "note_on_time": 0.004, "note_off_time": 0.731}, {"pitch": 42, "velocity": 80, "note_on_time": 0.731, "note_off_time": 1.465}, {"pitch": 42, "velocity": 80, "note_on_time": 1.465, "note_off_time": 2.196}, {"pitch": 42, "velocity": 80, "note_on_time": 2.196, "note_off_time": 2.932}, {"pitch": 62, "velocity": 80, "note_on_time": 2.932, "note_off_time": 3.665}, {"pitch": 42, "velocity": 80, "note_on_time": 2.933, "note_off_time": 3.665}, {"pitch": 64, "velocity": 80, "note_on_time": 3.665, "note_off_time": 4.398}, {"pitch": 42, "velocity": 80, "note_on_time": 3.665, "note_off_time": 4.398}, {"pitch": 62, "velocity": 80, "note_on_time": 4.398, "note_off_time": 5.13}, {"pitch": 42, "velocity": 80, "note_on_time": 4.399, "note_off_time": 5.13}, {"pitch": 62, "velocity": 80, "note_on_time": 5.13, "note_off_time": 5.862}, {"pitch": 42, "velocity": 80, "note_on_time": 5.13, "note_off_time": 5.862}, {"pitch": 60, "velocity": 80, "note_on_time": 5.862, "note_off_time": 6.596}, {"pitch": 42, "velocity": 80, "note_on_time": 5.862, "note_off_time": 6.596}, {"pitch": 42, "velocity": 80, "note_on_time": 6.597, "note_off_time": 7.329}, {"pitch": 42, "velocity": 80, "note_on_time": 7.329, "note_off_time": 8.066}, {"pitch": 42, "velocity": 80, "note_on_time": 8.067, "note_off_time": 8.8}, {"pitch": 42, "velocity": 80, "note_on_time": 8.801, "note_off_time": 9.534}, {"pitch": 60, "velocity": 80, "note_on_time": 8.8, "note_off_time": 10.27}, {"pitch": 42, "velocity": 80, "note_on_time": 9.535, "note_off_time": 10.27}, {"pitch": 42, "velocity": 80, "note_on_time": 10.27, "note_off_time": 11.006}, {"pitch": 60, "velocity": 80, "note_on_time": 10.27, "note_off_time": 11.74}, {"pitch": 42, "velocity": 80, "note_on_time": 11.007, "note_off_time": 11.74}, {"pitch": 42, "velocity": 80, "note_on_time": 11.74, "note_off_time": 12.476}, {"pitch": 62, "velocity": 80, "note_on_time": 11.74, "note_off_time": 13.211}, {"pitch": 42, "velocity": 80, "note_on_time": 12.476, "note_off_time": 13.211}, {"pitch": 42, "velocity": 80, "note_on_time": 13.211, "note_off_time": 13.948}, {"pitch": 42, "velocity": 80, "note_on_time": 13.948, "note_off_time": 14.681}, {"pitch": 62, "velocity": 80, "note_on_time": 14.681, "note_off_time": 15.415}, {"pitch": 42, "velocity": 80, "note_on_time": 14.681, "note_off_time": 15.415}, {"pitch": 62, "velocity": 80, "note_on_time": 15.415, "note_off_time": 16.149}, {"pitch": 42, "velocity": 80, "note_on_time": 15.415, "note_off_time": 16.15}, {"pitch": 60, "velocity": 80, "note_on_time": 16.149, "note_off_time": 16.882}, {"pitch": 42, "velocity": 80, "note_on_time": 16.15, "note_off_time": 16.882}, {"pitch": 62, "velocity": 80, "note_on_time": 16.882, "note_off_time": 17.618}, {"pitch": 42, "velocity": 80, "note_on_time": 16.882, "note_off_time": 17.619}, {"pitch": 42, "velocity": 80, "note_on_time": 17.619, "note_off_time": 18.35}, {"pitch": 64, "velocity": 80, "note_on_time": 17.618, "note_off_time": 19.085}, {"pitch": 42, "velocity": 80, "note_on_time": 18.35, "note_off_time": 19.085}, {"pitch": 42, "velocity": 80, "note_on_time": 19.086, "note_off_time": 19.816}, {"pitch": 64, "velocity": 80, "note_on_time": 19.085, "note_off_time": 20.551}, {"pitch": 42, "velocity": 80, "note_on_time": 19.817, "note_off_time": 20.551}, {"pitch": 60, "velocity": 80, "note_on_time": 20.551, "note_off_time": 21.286}, {"pitch": 42, "velocity": 80, "note_on_time": 20.551, "note_off_time": 21.287}, {"pitch": 64, "velocity": 80, "note_on_time": 21.286, "note_off_time": 22.018}, {"pitch": 42, "velocity": 80, "note_on_time": 21.287, "note_off_time": 22.018}, {"pitch": 64, "velocity": 80, "note_on_time": 22.018, "note_off_time": 22.752}, {"pitch": 42, "velocity": 80, "note_on_time": 22.019, "note_off_time": 22.752}, {"pitch": 60, "velocity": 80, "note_on_time": 22.752, "note_off_time": 23.484}, {"pitch": 42, "velocity": 80, "note_on_time": 22.753, "note_off_time": 23.485}, {"pitch": 42, "velocity": 80, "note_on_time": 23.485, "note_off_time": 24.218}, {"pitch": 60, "velocity": 80, "note_on_time": 24.218, "note_off_time": 24.954}, {"pitch": 42, "velocity": 80, "note_on_time": 24.219, "note_off_time": 24.954}, {"pitch": 60, "velocity": 80, "note_on_time": 24.954, "note_off_time": 25.688}, {"pitch": 42, "velocity": 80, "note_on_time": 24.955, "note_off_time": 25.688}, {"pitch": 60, "velocity": 80, "note_on_time": 25.688, "note_off_time": 26.422}, {"pitch": 42, "velocity": 80, "note_on_time": 25.688, "note_off_time": 26.423}]</notes><options name="Option List">((4, 4), [0.5, 0.25], 3, 8, &lt;NoteRangePerHand.THREE_NOTES: 4&gt;, &lt;NoteRangePerHand.ONE_NOTE: 2&gt;, False, True, False, 83)</options></target_notes><trials><trial trial_no="1" timestamp="2022_12_15-12_44_01"><notes name="Played Notes">[{"pitch": 74, "velocity": 52, "note_on_time": 2.867, "note_off_time": 3.057}, {"pitch": 76, "velocity": 57, "note_on_time": 3.623, "note_off_time": 3.789}, {"pitch": 74, "velocity": 53, "note_on_time": 4.375, "note_off_time": 4.535}, {"pitch": 74, "velocity": 48, "note_on_time": 5.114, "note_off_time": 5.271}, {"pitch": 72, "velocity": 49, "note_on_time": 5.829, "note_off_time": 5.989}, {"pitch": 72, "velocity": 61, "note_on_time": 8.756, "note_off_time": 9.502}, {"pitch": 72, "velocity": 60, "note_on_time": 10.229, "note_off_time": 10.959}, {"pitch": 74, "velocity": 60, "note_on_time": 11.661, "note_off_time": 12.385}, {"pitch": 74, "velocity": 48, "note_on_time": 14.6, "note_off_time": 14.778}, {"pitch": 74, "velocity": 60, "note_on_time": 15.337, "note_off_time": 15.516}, {"pitch": 72, "velocity": 53, "note_on_time": 16.087, "note_off_time": 16.255}, {"pitch": 74, "velocity": 55, "note_on_time": 16.815, "note_off_time": 16.97}, {"pitch": 76, "velocity": 64, "note_on_time": 17.562, "note_off_time": 18.335}, {"pitch": 76, "velocity": 61, "note_on_time": 19.059, "note_off_time": 19.749}, {"pitch": 72, "velocity": 52, "note_on_time": 20.543, "note_off_time": 20.773}, {"pitch": 76, "velocity": 56, "note_on_time": 21.247, "note_off_time": 21.41}, {"pitch": 76, "velocity": 57, "note_on_time": 22.004, "note_off_time": 22.162}, {"pitch": 72, "velocity": 57, "note_on_time": 22.712, "note_off_time": 22.866}, {"pitch": 72, "velocity": 39, "note_on_time": 24.234, "note_off_time": 24.345}, {"pitch": 72, "velocity": 20, "note_on_time": 24.971, "note_off_time": 25.092}, {"pitch": 72, "velocity": 49, "note_on_time": 25.649, "note_off_time": 25.788}]</notes><guidance name="Guidance Mode">None</guidance><error name="Error value">1.1985039444444445</error></trial></trials></MIDI>