<MIDI midiNo="2022_08_17-12_11_08"><target_notes><notes name="Note List">[{"pitch": 42, "velocity": 80, "note_on_time": 0.004, "note_off_time": 1.019}, {"pitch": 42, "velocity": 80, "note_on_time": 1.02, "note_off_time": 2.031}, {"pitch": 42, "velocity": 80, "note_on_time": 2.031, "note_off_time": 3.033}, {"pitch": 42, "velocity": 80, "note_on_time": 3.033, "note_off_time": 4.046}, {"pitch": 62, "velocity": 80, "note_on_time": 4.046, "note_off_time": 5.059}, {"pitch": 42, "velocity": 80, "note_on_time": 4.046, "note_off_time": 5.059}, {"pitch": 42, "velocity": 80, "note_on_time": 5.059, "note_off_time": 6.073}, {"pitch": 60, "velocity": 80, "note_on_time": 6.073, "note_off_time": 7.074}, {"pitch": 42, "velocity": 80, "note_on_time": 6.073, "note_off_time": 7.074}, {"pitch": 42, "velocity": 80, "note_on_time": 7.075, "note_off_time": 8.085}, {"pitch": 60, "velocity": 80, "note_on_time": 8.085, "note_off_time": 9.085}, {"pitch": 42, "velocity": 80, "note_on_time": 8.085, "note_off_time": 9.086}, {"pitch": 42, "velocity": 80, "note_on_time": 9.086, "note_off_time": 10.101}, {"pitch": 42, "velocity": 80, "note_on_time": 10.101, "note_off_time": 11.102}, {"pitch": 42, "velocity": 80, "note_on_time": 11.103, "note_off_time": 12.104}, {"pitch": 62, "velocity": 80, "note_on_time": 12.104, "note_off_time": 13.115}, {"pitch": 42, "velocity": 80, "note_on_time": 12.105, "note_off_time": 13.115}, {"pitch": 42, "velocity": 80, "note_on_time": 13.115, "note_off_time": 14.128}, {"pitch": 62, "velocity": 80, "note_on_time": 14.128, "note_off_time": 15.141}, {"pitch": 42, "velocity": 80, "note_on_time": 14.128, "note_off_time": 15.141}, {"pitch": 42, "velocity": 80, "note_on_time": 15.141, "note_off_time": 16.156}, {"pitch": 62, "velocity": 80, "note_on_time": 16.156, "note_off_time": 17.166}, {"pitch": 42, "velocity": 80, "note_on_time": 16.156, "note_off_time": 17.166}, {"pitch": 60, "velocity": 80, "note_on_time": 17.166, "note_off_time": 18.178}, {"pitch": 42, "velocity": 80, "note_on_time": 17.166, "note_off_time": 18.178}, {"pitch": 62, "velocity": 80, "note_on_time": 18.178, "note_off_time": 19.181}, {"pitch": 42, "velocity": 80, "note_on_time": 18.179, "note_off_time": 19.182}, {"pitch": 60, "velocity": 80, "note_on_time": 19.181, "note_off_time": 20.19}, {"pitch": 42, "velocity": 80, "note_on_time": 19.182, "note_off_time": 20.19}, {"pitch": 60, "velocity": 80, "note_on_time": 20.19, "note_off_time": 21.193}, {"pitch": 42, "velocity": 80, "note_on_time": 20.191, "note_off_time": 21.193}, {"pitch": 42, "velocity": 80, "note_on_time": 21.193, "note_off_time": 22.207}, {"pitch": 60, "velocity": 80, "note_on_time": 22.207, "note_off_time": 23.215}, {"pitch": 42, "velocity": 80, "note_on_time": 22.208, "note_off_time": 23.215}, {"pitch": 62, "velocity": 80, "note_on_time": 23.215, "note_off_time": 24.23}, {"pitch": 42, "velocity": 80, "note_on_time": 23.215, "note_off_time": 24.23}, {"pitch": 62, "velocity": 80, "note_on_time": 24.23, "note_off_time": 25.23}, {"pitch": 42, "velocity": 80, "note_on_time": 24.23, "note_off_time": 25.231}, {"pitch": 60, "velocity": 80, "note_on_time": 25.23, "note_off_time": 26.238}, {"pitch": 42, "velocity": 80, "note_on_time": 25.231, "note_off_time": 26.238}, {"pitch": 60, "velocity": 80, "note_on_time": 26.238, "note_off_time": 27.253}, {"pitch": 42, "velocity": 80, "note_on_time": 26.238, "note_off_time": 27.253}, {"pitch": 60, "velocity": 80, "note_on_time": 27.253, "note_off_time": 28.268}, {"pitch": 42, "velocity": 80, "note_on_time": 27.253, "note_off_time": 28.268}, {"pitch": 62, "velocity": 80, "note_on_time": 28.268, "note_off_time": 29.271}, {"pitch": 42, "velocity": 80, "note_on_time": 28.268, "note_off_time": 29.271}, {"pitch": 42, "velocity": 80, "note_on_time": 29.271, "note_off_time": 30.287}, {"pitch": 60, "velocity": 80, "note_on_time": 30.287, "note_off_time": 31.297}, {"pitch": 42, "velocity": 80, "note_on_time": 30.288, "note_off_time": 31.297}, {"pitch": 42, "velocity": 80, "note_on_time": 31.298, "note_off_time": 32.299}, {"pitch": 42, "velocity": 80, "note_on_time": 32.299, "note_off_time": 33.311}, {"pitch": 60, "velocity": 80, "note_on_time": 33.311, "note_off_time": 34.327}, {"pitch": 42, "velocity": 80, "note_on_time": 33.311, "note_off_time": 34.327}, {"pitch": 60, "velocity": 80, "note_on_time": 34.327, "note_off_time": 35.328}, {"pitch": 42, "velocity": 80, "note_on_time": 34.327, "note_off_time": 35.328}, {"pitch": 60, "velocity": 80, "note_on_time": 35.328, "note_off_time": 36.343}, {"pitch": 42, "velocity": 80, "note_on_time": 35.329, "note_off_time": 36.343}]</notes><options name="Option List">((4, 4), [0.25], 3, 8, &lt;NoteRangePerHand.TWO_NOTES: 3&gt;, &lt;NoteRangePerHand.ONE_NOTE: 2&gt;, False, True, True, '60')</options></target_notes><trials><trial trial_no="1" timestamp="2022_08_17-12_10_30"><notes name="Played Notes">[{"pitch": 62, "velocity": 40, "note_on_time": 3.996, "note_off_time": 4.691}, {"pitch": 60, "velocity": 75, "note_on_time": 6.108, "note_off_time": 6.813}, {"pitch": 60, "velocity": 65, "note_on_time": 8.074, "note_off_time": 8.638}, {"pitch": 62, "velocity": 59, "note_on_time": 12.073, "note_off_time": 12.555}, {"pitch": 62, "velocity": 63, "note_on_time": 14.09, "note_off_time": 14.664}, {"pitch": 62, "velocity": 65, "note_on_time": 16.143, "note_off_time": 16.511}, {"pitch": 60, "velocity": 69, "note_on_time": 17.069, "note_off_time": 17.483}, {"pitch": 62, "velocity": 66, "note_on_time": 18.028, "note_off_time": 18.442}, {"pitch": 60, "velocity": 62, "note_on_time": 19.094, "note_off_time": 19.491}, {"pitch": 60, "velocity": 67, "note_on_time": 20.127, "note_off_time": 20.514}, {"pitch": 60, "velocity": 61, "note_on_time": 22.181, "note_off_time": 22.551}, {"pitch": 62, "velocity": 57, "note_on_time": 23.195, "note_off_time": 23.627}, {"pitch": 62, "velocity": 56, "note_on_time": 24.224, "note_off_time": 24.645}, {"pitch": 60, "velocity": 64, "note_on_time": 25.149, "note_off_time": 25.527}, {"pitch": 60, "velocity": 66, "note_on_time": 26.181, "note_off_time": 26.548}, {"pitch": 60, "velocity": 60, "note_on_time": 27.177, "note_off_time": 27.567}, {"pitch": 62, "velocity": 61, "note_on_time": 28.122, "note_off_time": 28.504}, {"pitch": 60, "velocity": 72, "note_on_time": 30.2, "note_off_time": 30.536}, {"pitch": 60, "velocity": 60, "note_on_time": 33.293, "note_off_time": 33.698}, {"pitch": 60, "velocity": 71, "note_on_time": 34.144, "note_off_time": 34.574}, {"pitch": 60, "velocity": 64, "note_on_time": 35.131, "note_off_time": 35.649}]</notes><guidance name="Guidance Mode">None</guidance><error name="Error value">0.05705555555555564</error></trial></trials></MIDI>