<MIDI midiNo="2022_12_22-12_32_25"><target_notes><notes name="Note List">[{"pitch": 42, "velocity": 80, "note_on_time": 0.004, "note_off_time": 0.251}, {"pitch": 42, "velocity": 80, "note_on_time": 0.252, "note_off_time": 0.5}, {"pitch": 42, "velocity": 80, "note_on_time": 0.5, "note_off_time": 0.749}, {"pitch": 42, "velocity": 80, "note_on_time": 0.749, "note_off_time": 0.999}, {"pitch": 67, "velocity": 80, "note_on_time": 0.999, "note_off_time": 1.249}, {"pitch": 42, "velocity": 80, "note_on_time": 0.999, "note_off_time": 1.25}, {"pitch": 42, "velocity": 80, "note_on_time": 1.25, "note_off_time": 1.499}, {"pitch": 42, "velocity": 80, "note_on_time": 1.5, "note_off_time": 1.747}, {"pitch": 67, "velocity": 80, "note_on_time": 1.747, "note_off_time": 1.997}, {"pitch": 42, "velocity": 80, "note_on_time": 1.747, "note_off_time": 1.997}, {"pitch": 42, "velocity": 80, "note_on_time": 1.997, "note_off_time": 2.245}, {"pitch": 60, "velocity": 80, "note_on_time": 1.997, "note_off_time": 2.497}, {"pitch": 42, "velocity": 80, "note_on_time": 2.246, "note_off_time": 2.497}, {"pitch": 42, "velocity": 80, "note_on_time": 2.497, "note_off_time": 2.747}, {"pitch": 42, "velocity": 80, "note_on_time": 2.747, "note_off_time": 2.998}, {"pitch": 60, "velocity": 80, "note_on_time": 2.998, "note_off_time": 3.246}, {"pitch": 42, "velocity": 80, "note_on_time": 2.998, "note_off_time": 3.246}, {"pitch": 42, "velocity": 80, "note_on_time": 3.247, "note_off_time": 3.496}, {"pitch": 42, "velocity": 80, "note_on_time": 3.496, "note_off_time": 3.746}, {"pitch": 65, "velocity": 80, "note_on_time": 3.746, "note_off_time": 3.993}, {"pitch": 42, "velocity": 80, "note_on_time": 3.746, "note_off_time": 3.993}, {"pitch": 62, "velocity": 80, "note_on_time": 3.993, "note_off_time": 4.243}, {"pitch": 42, "velocity": 80, "note_on_time": 3.994, "note_off_time": 4.243}, {"pitch": 67, "velocity": 80, "note_on_time": 4.243, "note_off_time": 4.492}, {"pitch": 42, "velocity": 80, "note_on_time": 4.243, "note_off_time": 4.492}, {"pitch": 65, "velocity": 80, "note_on_time": 4.492, "note_off_time": 4.742}, {"pitch": 42, "velocity": 80, "note_on_time": 4.493, "note_off_time": 4.742}, {"pitch": 64, "velocity": 80, "note_on_time": 4.742, "note_off_time": 4.989}, {"pitch": 42, "velocity": 80, "note_on_time": 4.742, "note_off_time": 4.99}, {"pitch": 60, "velocity": 80, "note_on_time": 4.989, "note_off_time": 5.238}, {"pitch": 42, "velocity": 80, "note_on_time": 4.99, "note_off_time": 5.238}, {"pitch": 64, "velocity": 80, "note_on_time": 5.238, "note_off_time": 5.487}, {"pitch": 42, "velocity": 80, "note_on_time": 5.238, "note_off_time": 5.487}, {"pitch": 67, "velocity": 80, "note_on_time": 5.487, "note_off_time": 5.735}, {"pitch": 42, "velocity": 80, "note_on_time": 5.487, "note_off_time": 5.735}, {"pitch": 62, "velocity": 80, "note_on_time": 5.735, "note_off_time": 5.985}, {"pitch": 42, "velocity": 80, "note_on_time": 5.735, "note_off_time": 5.986}, {"pitch": 42, "velocity": 80, "note_on_time": 5.986, "note_off_time": 6.235}, {"pitch": 67, "velocity": 80, "note_on_time": 5.985, "note_off_time": 6.485}, {"pitch": 42, "velocity": 80, "note_on_time": 6.235, "note_off_time": 6.486}, {"pitch": 42, "velocity": 80, "note_on_time": 6.486, "note_off_time": 6.735}, {"pitch": 42, "velocity": 80, "note_on_time": 6.735, "note_off_time": 6.984}, {"pitch": 42, "velocity": 80, "note_on_time": 6.984, "note_off_time": 7.234}, {"pitch": 60, "velocity": 80, "note_on_time": 6.983, "note_off_time": 7.483}, {"pitch": 42, "velocity": 80, "note_on_time": 7.234, "note_off_time": 7.483}, {"pitch": 42, "velocity": 80, "note_on_time": 7.483, "note_off_time": 7.733}, {"pitch": 42, "velocity": 80, "note_on_time": 7.734, "note_off_time": 7.982}, {"pitch": 42, "velocity": 80, "note_on_time": 7.982, "note_off_time": 8.232}, {"pitch": 60, "velocity": 80, "note_on_time": 8.232, "note_off_time": 8.48}, {"pitch": 42, "velocity": 80, "note_on_time": 8.232, "note_off_time": 8.48}, {"pitch": 60, "velocity": 80, "note_on_time": 8.48, "note_off_time": 8.729}, {"pitch": 42, "velocity": 80, "note_on_time": 8.48, "note_off_time": 8.73}, {"pitch": 60, "velocity": 80, "note_on_time": 8.729, "note_off_time": 8.978}, {"pitch": 42, "velocity": 80, "note_on_time": 8.73, "note_off_time": 8.978}]</notes><options name="Option List">((4, 4), [0.5, 0.25], 3, 8, &lt;NoteRangePerHand.C_TO_G: 6&gt;, &lt;NoteRangePerHand.ONE_NOTE: 2&gt;, False, True, False, 248)</options></target_notes><trials><trial trial_no="1" timestamp="2022_12_22-12_32_15"><notes name="Played Notes">[{"pitch": 67, "velocity": 69, "note_on_time": 1.014, "note_off_time": 1.34}, {"pitch": 67, "velocity": 78, "note_on_time": 1.797, "note_off_time": 2.002}, {"pitch": 60, "velocity": 70, "note_on_time": 2.023, "note_off_time": 2.329}, {"pitch": 60, "velocity": 71, "note_on_time": 2.757, "note_off_time": 2.998}, {"pitch": 65, "velocity": 83, "note_on_time": 2.993, "note_off_time": 3.221}, {"pitch": 62, "velocity": 49, "note_on_time": 3.25, "note_off_time": 3.459}, {"pitch": 67, "velocity": 70, "note_on_time": 3.47, "note_off_time": 3.738}, {"pitch": 65, "velocity": 80, "note_on_time": 3.709, "note_off_time": 3.995}, {"pitch": 64, "velocity": 71, "note_on_time": 3.986, "note_off_time": 4.339}, {"pitch": 60, "velocity": 79, "note_on_time": 4.73, "note_off_time": 5.007}, {"pitch": 64, "velocity": 64, "note_on_time": 4.972, "note_off_time": 5.206}, {"pitch": 67, "velocity": 67, "note_on_time": 5.216, "note_off_time": 5.482}, {"pitch": 62, "velocity": 64, "note_on_time": 5.486, "note_off_time": 5.699}, {"pitch": 67, "velocity": 71, "note_on_time": 5.707, "note_off_time": 6.222}, {"pitch": 60, "velocity": 84, "note_on_time": 6.46, "note_off_time": 6.905}, {"pitch": 60, "velocity": 72, "note_on_time": 7.733, "note_off_time": 7.863}, {"pitch": 60, "velocity": 77, "note_on_time": 7.953, "note_off_time": 8.071}, {"pitch": 60, "velocity": 70, "note_on_time": 8.203, "note_off_time": 8.44}]</notes><guidance name="Guidance Mode">None</guidance><error name="Error value">0.11552899999999981</error></trial></trials></MIDI>