<MIDI midiNo="2022_12_01-12_53_48"><target_notes><notes name="Note List">[{"pitch": 42, "velocity": 80, "note_on_time": 0.004, "note_off_time": 0.41}, {"pitch": 42, "velocity": 80, "note_on_time": 0.41, "note_off_time": 0.813}, {"pitch": 42, "velocity": 80, "note_on_time": 0.813, "note_off_time": 1.216}, {"pitch": 42, "velocity": 80, "note_on_time": 1.216, "note_off_time": 1.622}, {"pitch": 64, "velocity": 80, "note_on_time": 1.621, "note_off_time": 2.027}, {"pitch": 42, "velocity": 80, "note_on_time": 1.622, "note_off_time": 2.027}, {"pitch": 60, "velocity": 80, "note_on_time": 2.027, "note_off_time": 2.431}, {"pitch": 42, "velocity": 80, "note_on_time": 2.027, "note_off_time": 2.431}, {"pitch": 60, "velocity": 80, "note_on_time": 2.431, "note_off_time": 2.836}, {"pitch": 42, "velocity": 80, "note_on_time": 2.431, "note_off_time": 2.836}, {"pitch": 60, "velocity": 80, "note_on_time": 2.836, "note_off_time": 3.239}, {"pitch": 42, "velocity": 80, "note_on_time": 2.836, "note_off_time": 3.239}, {"pitch": 64, "velocity": 80, "note_on_time": 3.239, "note_off_time": 3.644}, {"pitch": 42, "velocity": 80, "note_on_time": 3.239, "note_off_time": 3.644}, {"pitch": 60, "velocity": 80, "note_on_time": 3.644, "note_off_time": 4.049}, {"pitch": 42, "velocity": 80, "note_on_time": 3.644, "note_off_time": 4.049}, {"pitch": 64, "velocity": 80, "note_on_time": 4.049, "note_off_time": 4.454}, {"pitch": 42, "velocity": 80, "note_on_time": 4.05, "note_off_time": 4.455}, {"pitch": 60, "velocity": 80, "note_on_time": 4.454, "note_off_time": 4.86}, {"pitch": 42, "velocity": 80, "note_on_time": 4.455, "note_off_time": 4.86}, {"pitch": 42, "velocity": 80, "note_on_time": 4.86, "note_off_time": 5.266}, {"pitch": 62, "velocity": 80, "note_on_time": 4.86, "note_off_time": 5.669}, {"pitch": 42, "velocity": 80, "note_on_time": 5.266, "note_off_time": 5.669}, {"pitch": 42, "velocity": 80, "note_on_time": 5.67, "note_off_time": 6.074}, {"pitch": 42, "velocity": 80, "note_on_time": 6.075, "note_off_time": 6.482}, {"pitch": 60, "velocity": 80, "note_on_time": 6.482, "note_off_time": 6.885}, {"pitch": 42, "velocity": 80, "note_on_time": 6.482, "note_off_time": 6.886}, {"pitch": 60, "velocity": 80, "note_on_time": 6.885, "note_off_time": 7.289}, {"pitch": 42, "velocity": 80, "note_on_time": 6.886, "note_off_time": 7.289}, {"pitch": 60, "velocity": 80, "note_on_time": 7.289, "note_off_time": 7.698}, {"pitch": 42, "velocity": 80, "note_on_time": 7.29, "note_off_time": 7.698}, {"pitch": 60, "velocity": 80, "note_on_time": 7.698, "note_off_time": 8.102}, {"pitch": 42, "velocity": 80, "note_on_time": 7.698, "note_off_time": 8.102}, {"pitch": 60, "velocity": 80, "note_on_time": 8.102, "note_off_time": 8.504}, {"pitch": 42, "velocity": 80, "note_on_time": 8.102, "note_off_time": 8.504}, {"pitch": 60, "velocity": 80, "note_on_time": 8.504, "note_off_time": 8.908}, {"pitch": 42, "velocity": 80, "note_on_time": 8.505, "note_off_time": 8.908}, {"pitch": 64, "velocity": 80, "note_on_time": 8.908, "note_off_time": 9.312}, {"pitch": 42, "velocity": 80, "note_on_time": 8.909, "note_off_time": 9.313}, {"pitch": 62, "velocity": 80, "note_on_time": 9.312, "note_off_time": 9.719}, {"pitch": 42, "velocity": 80, "note_on_time": 9.313, "note_off_time": 9.72}, {"pitch": 42, "velocity": 80, "note_on_time": 9.72, "note_off_time": 10.126}, {"pitch": 60, "velocity": 80, "note_on_time": 9.719, "note_off_time": 10.531}, {"pitch": 42, "velocity": 80, "note_on_time": 10.127, "note_off_time": 10.531}, {"pitch": 42, "velocity": 80, "note_on_time": 10.532, "note_off_time": 10.934}, {"pitch": 42, "velocity": 80, "note_on_time": 10.934, "note_off_time": 11.337}, {"pitch": 60, "velocity": 80, "note_on_time": 11.337, "note_off_time": 11.74}, {"pitch": 42, "velocity": 80, "note_on_time": 11.338, "note_off_time": 11.74}, {"pitch": 42, "velocity": 80, "note_on_time": 11.74, "note_off_time": 12.144}, {"pitch": 42, "velocity": 80, "note_on_time": 12.144, "note_off_time": 12.548}, {"pitch": 62, "velocity": 80, "note_on_time": 12.548, "note_off_time": 12.955}, {"pitch": 42, "velocity": 80, "note_on_time": 12.548, "note_off_time": 12.955}, {"pitch": 42, "velocity": 80, "note_on_time": 12.955, "note_off_time": 13.361}, {"pitch": 62, "velocity": 80, "note_on_time": 13.361, "note_off_time": 13.765}, {"pitch": 42, "velocity": 80, "note_on_time": 13.361, "note_off_time": 13.765}, {"pitch": 62, "velocity": 80, "note_on_time": 13.765, "note_off_time": 14.171}, {"pitch": 42, "velocity": 80, "note_on_time": 13.765, "note_off_time": 14.171}, {"pitch": 62, "velocity": 80, "note_on_time": 14.171, "note_off_time": 14.575}, {"pitch": 42, "velocity": 80, "note_on_time": 14.171, "note_off_time": 14.575}]</notes><options name="Option List">((4, 4), [0.5, 0.25], 3, 8, &lt;NoteRangePerHand.THREE_NOTES: 4&gt;, &lt;NoteRangePerHand.ONE_NOTE: 2&gt;, False, True, False, '150')</options></target_notes><trials><trial trial_no="1" timestamp="2022_12_01-12_53_31"><notes name="Played Notes">[{"pitch": 64, "velocity": 80, "note_on_time": 1.546, "note_off_time": 1.769}, {"pitch": 60, "velocity": 82, "note_on_time": 1.895, "note_off_time": 2.124}, {"pitch": 60, "velocity": 86, "note_on_time": 2.307, "note_off_time": 2.496}, {"pitch": 60, "velocity": 89, "note_on_time": 2.676, "note_off_time": 2.849}, {"pitch": 64, "velocity": 81, "note_on_time": 3.012, "note_off_time": 3.216}, {"pitch": 60, "velocity": 76, "note_on_time": 3.337, "note_off_time": 3.51}, {"pitch": 64, "velocity": 75, "note_on_time": 3.672, "note_off_time": 3.869}, {"pitch": 60, "velocity": 79, "note_on_time": 4.0, "note_off_time": 4.133}, {"pitch": 62, "velocity": 77, "note_on_time": 4.328, "note_off_time": 5.145}, {"pitch": 60, "velocity": 79, "note_on_time": 5.657, "note_off_time": 5.838}, {"pitch": 60, "velocity": 79, "note_on_time": 5.988, "note_off_time": 6.18}, {"pitch": 60, "velocity": 82, "note_on_time": 6.34, "note_off_time": 6.543}, {"pitch": 60, "velocity": 74, "note_on_time": 6.707, "note_off_time": 6.93}, {"pitch": 60, "velocity": 75, "note_on_time": 7.194, "note_off_time": 7.401}, {"pitch": 60, "velocity": 81, "note_on_time": 7.586, "note_off_time": 7.791}, {"pitch": 64, "velocity": 80, "note_on_time": 7.965, "note_off_time": 8.186}, {"pitch": 62, "velocity": 78, "note_on_time": 8.343, "note_off_time": 8.556}, {"pitch": 60, "velocity": 87, "note_on_time": 8.734, "note_off_time": 9.486}, {"pitch": 60, "velocity": 89, "note_on_time": 10.39, "note_off_time": 10.852}, {"pitch": 62, "velocity": 86, "note_on_time": 11.422, "note_off_time": 11.938}, {"pitch": 62, "velocity": 81, "note_on_time": 12.55, "note_off_time": 12.758}, {"pitch": 62, "velocity": 83, "note_on_time": 12.945, "note_off_time": 13.157}, {"pitch": 62, "velocity": 69, "note_on_time": 13.32, "note_off_time": 13.84}]</notes><guidance name="Guidance Mode">None</guidance><error name="Error value">0.07960000000000016</error></trial><trial trial_no="2" timestamp="2022_12_01-12_53_57"><notes name="Played Notes">[{"pitch": 64, "velocity": 79, "note_on_time": 1.936, "note_off_time": 2.134}, {"pitch": 60, "velocity": 82, "note_on_time": 2.288, "note_off_time": 2.515}, {"pitch": 60, "velocity": 82, "note_on_time": 2.68, "note_off_time": 2.902}, {"pitch": 60, "velocity": 83, "note_on_time": 3.065, "note_off_time": 3.255}, {"pitch": 64, "velocity": 72, "note_on_time": 3.407, "note_off_time": 3.629}, {"pitch": 60, "velocity": 75, "note_on_time": 3.747, "note_off_time": 3.925}, {"pitch": 64, "velocity": 76, "note_on_time": 4.083, "note_off_time": 4.292}, {"pitch": 60, "velocity": 79, "note_on_time": 4.413, "note_off_time": 4.57}, {"pitch": 62, "velocity": 77, "note_on_time": 4.751, "note_off_time": 5.532}, {"pitch": 60, "velocity": 69, "note_on_time": 6.236, "note_off_time": 6.46}, {"pitch": 60, "velocity": 82, "note_on_time": 6.627, "note_off_time": 6.849}, {"pitch": 60, "velocity": 79, "note_on_time": 7.017, "note_off_time": 7.196}, {"pitch": 60, "velocity": 71, "note_on_time": 7.367, "note_off_time": 7.591}, {"pitch": 60, "velocity": 80, "note_on_time": 7.774, "note_off_time": 7.992}, {"pitch": 60, "velocity": 78, "note_on_time": 8.176, "note_off_time": 8.38}, {"pitch": 64, "velocity": 66, "note_on_time": 8.774, "note_off_time": 9.006}, {"pitch": 62, "velocity": 78, "note_on_time": 9.135, "note_off_time": 9.387}, {"pitch": 60, "velocity": 83, "note_on_time": 9.519, "note_off_time": 10.323}, {"pitch": 60, "velocity": 72, "note_on_time": 11.088, "note_off_time": 11.633}, {"pitch": 62, "velocity": 78, "note_on_time": 12.201, "note_off_time": 12.811}, {"pitch": 62, "velocity": 78, "note_on_time": 13.366, "note_off_time": 13.594}, {"pitch": 62, "velocity": 82, "note_on_time": 13.756, "note_off_time": 13.961}]</notes><guidance name="Guidance Mode">None</guidance><error name="Error value">0.11795000000000008</error></trial><trial trial_no="3" timestamp="2022_12_01-12_54_19"><notes name="Played Notes">[{"pitch": 64, "velocity": 75, "note_on_time": 1.583, "note_off_time": 1.868}, {"pitch": 60, "velocity": 82, "note_on_time": 2.001, "note_off_time": 2.245}, {"pitch": 60, "velocity": 78, "note_on_time": 2.406, "note_off_time": 2.581}, {"pitch": 60, "velocity": 81, "note_on_time": 2.782, "note_off_time": 2.986}, {"pitch": 64, "velocity": 81, "note_on_time": 3.166, "note_off_time": 3.38}, {"pitch": 60, "velocity": 82, "note_on_time": 3.535, "note_off_time": 3.716}, {"pitch": 64, "velocity": 73, "note_on_time": 3.887, "note_off_time": 4.13}, {"pitch": 60, "velocity": 84, "note_on_time": 4.303, "note_off_time": 4.449}, {"pitch": 62, "velocity": 77, "note_on_time": 4.67, "note_off_time": 5.486}, {"pitch": 60, "velocity": 72, "note_on_time": 6.436, "note_off_time": 6.638}, {"pitch": 60, "velocity": 81, "note_on_time": 6.828, "note_off_time": 7.008}, {"pitch": 60, "velocity": 78, "note_on_time": 7.204, "note_off_time": 7.403}, {"pitch": 60, "velocity": 77, "note_on_time": 7.592, "note_off_time": 7.79}, {"pitch": 60, "velocity": 73, "note_on_time": 7.995, "note_off_time": 8.192}, {"pitch": 60, "velocity": 83, "note_on_time": 8.471, "note_off_time": 8.64}, {"pitch": 64, "velocity": 77, "note_on_time": 8.838, "note_off_time": 9.055}, {"pitch": 62, "velocity": 79, "note_on_time": 9.22, "note_off_time": 9.445}, {"pitch": 60, "velocity": 82, "note_on_time": 9.657, "note_off_time": 10.36}, {"pitch": 60, "velocity": 84, "note_on_time": 11.35, "note_off_time": 11.727}, {"pitch": 62, "velocity": 79, "note_on_time": 12.48, "note_off_time": 12.956}, {"pitch": 62, "velocity": 80, "note_on_time": 13.73, "note_off_time": 13.899}, {"pitch": 62, "velocity": 82, "note_on_time": 14.106, "note_off_time": 14.3}]</notes><guidance name="Guidance Mode">None</guidance><error name="Error value">0.10775000000000008</error></trial></trials></MIDI>