<MIDI midiNo="2022_12_08-10_34_29"><target_notes><notes name="Note List">[{"pitch": 42, "velocity": 80, "note_on_time": 0.004, "note_off_time": 0.253}, {"pitch": 42, "velocity": 80, "note_on_time": 0.254, "note_off_time": 0.501}, {"pitch": 42, "velocity": 80, "note_on_time": 0.502, "note_off_time": 0.752}, {"pitch": 42, "velocity": 80, "note_on_time": 0.752, "note_off_time": 1.001}, {"pitch": 60, "velocity": 80, "note_on_time": 1.001, "note_off_time": 1.25}, {"pitch": 42, "velocity": 80, "note_on_time": 1.001, "note_off_time": 1.25}, {"pitch": 64, "velocity": 80, "note_on_time": 1.25, "note_off_time": 1.501}, {"pitch": 42, "velocity": 80, "note_on_time": 1.25, "note_off_time": 1.501}, {"pitch": 42, "velocity": 80, "note_on_time": 1.501, "note_off_time": 1.752}, {"pitch": 64, "velocity": 80, "note_on_time": 1.752, "note_off_time": 2.001}, {"pitch": 42, "velocity": 80, "note_on_time": 1.753, "note_off_time": 2.002}, {"pitch": 42, "velocity": 80, "note_on_time": 2.002, "note_off_time": 2.251}, {"pitch": 60, "velocity": 80, "note_on_time": 2.001, "note_off_time": 2.502}, {"pitch": 42, "velocity": 80, "note_on_time": 2.252, "note_off_time": 2.503}, {"pitch": 42, "velocity": 80, "note_on_time": 2.503, "note_off_time": 2.752}, {"pitch": 42, "velocity": 80, "note_on_time": 2.752, "note_off_time": 3.002}, {"pitch": 42, "velocity": 80, "note_on_time": 3.003, "note_off_time": 3.253}, {"pitch": 60, "velocity": 80, "note_on_time": 3.002, "note_off_time": 3.501}, {"pitch": 42, "velocity": 80, "note_on_time": 3.254, "note_off_time": 3.501}, {"pitch": 42, "velocity": 80, "note_on_time": 3.501, "note_off_time": 3.751}, {"pitch": 67, "velocity": 80, "note_on_time": 3.751, "note_off_time": 4.003}, {"pitch": 42, "velocity": 80, "note_on_time": 3.751, "note_off_time": 4.003}, {"pitch": 42, "velocity": 80, "note_on_time": 4.004, "note_off_time": 4.252}, {"pitch": 64, "velocity": 80, "note_on_time": 4.003, "note_off_time": 4.503}, {"pitch": 42, "velocity": 80, "note_on_time": 4.252, "note_off_time": 4.503}, {"pitch": 42, "velocity": 80, "note_on_time": 4.503, "note_off_time": 4.754}, {"pitch": 42, "velocity": 80, "note_on_time": 4.754, "note_off_time": 5.003}, {"pitch": 64, "velocity": 80, "note_on_time": 5.003, "note_off_time": 5.253}, {"pitch": 42, "velocity": 80, "note_on_time": 5.003, "note_off_time": 5.253}, {"pitch": 67, "velocity": 80, "note_on_time": 5.253, "note_off_time": 5.502}, {"pitch": 42, "velocity": 80, "note_on_time": 5.253, "note_off_time": 5.502}, {"pitch": 65, "velocity": 80, "note_on_time": 5.502, "note_off_time": 5.752}, {"pitch": 42, "velocity": 80, "note_on_time": 5.503, "note_off_time": 5.752}, {"pitch": 65, "velocity": 80, "note_on_time": 5.752, "note_off_time": 6.004}, {"pitch": 42, "velocity": 80, "note_on_time": 5.753, "note_off_time": 6.004}, {"pitch": 42, "velocity": 80, "note_on_time": 6.005, "note_off_time": 6.253}, {"pitch": 62, "velocity": 80, "note_on_time": 6.004, "note_off_time": 6.503}, {"pitch": 42, "velocity": 80, "note_on_time": 6.253, "note_off_time": 6.503}, {"pitch": 42, "velocity": 80, "note_on_time": 6.504, "note_off_time": 6.753}, {"pitch": 42, "velocity": 80, "note_on_time": 6.754, "note_off_time": 7.003}, {"pitch": 42, "velocity": 80, "note_on_time": 7.003, "note_off_time": 7.252}, {"pitch": 65, "velocity": 80, "note_on_time": 7.003, "note_off_time": 7.501}, {"pitch": 42, "velocity": 80, "note_on_time": 7.253, "note_off_time": 7.502}, {"pitch": 64, "velocity": 80, "note_on_time": 7.501, "note_off_time": 7.751}, {"pitch": 42, "velocity": 80, "note_on_time": 7.502, "note_off_time": 7.752}, {"pitch": 62, "velocity": 80, "note_on_time": 7.751, "note_off_time": 8.002}, {"pitch": 42, "velocity": 80, "note_on_time": 7.752, "note_off_time": 8.002}, {"pitch": 42, "velocity": 80, "note_on_time": 8.003, "note_off_time": 8.251}, {"pitch": 62, "velocity": 80, "note_on_time": 8.251, "note_off_time": 8.501}, {"pitch": 42, "velocity": 80, "note_on_time": 8.251, "note_off_time": 8.501}, {"pitch": 62, "velocity": 80, "note_on_time": 8.501, "note_off_time": 8.751}, {"pitch": 42, "velocity": 80, "note_on_time": 8.502, "note_off_time": 8.751}, {"pitch": 62, "velocity": 80, "note_on_time": 8.751, "note_off_time": 9.001}, {"pitch": 42, "velocity": 80, "note_on_time": 8.751, "note_off_time": 9.001}]</notes><options name="Option List">((4, 4), [0.5, 0.25], 3, 8, &lt;NoteRangePerHand.C_TO_G: 6&gt;, &lt;NoteRangePerHand.ONE_NOTE: 2&gt;, False, True, False, '248')</options></target_notes><trials><trial trial_no="1" timestamp="2022_12_08-10_34_18"><notes name="Played Notes">[{"pitch": 60, "velocity": 60, "note_on_time": 1.042, "note_off_time": 1.318}, {"pitch": 64, "velocity": 69, "note_on_time": 1.262, "note_off_time": 1.518}, {"pitch": 64, "velocity": 72, "note_on_time": 1.79, "note_off_time": 2.015}, {"pitch": 60, "velocity": 71, "note_on_time": 2.029, "note_off_time": 2.488}, {"pitch": 60, "velocity": 67, "note_on_time": 3.057, "note_off_time": 3.558}, {"pitch": 67, "velocity": 79, "note_on_time": 3.778, "note_off_time": 3.948}, {"pitch": 64, "velocity": 58, "note_on_time": 4.044, "note_off_time": 4.476}, {"pitch": 64, "velocity": 49, "note_on_time": 4.958, "note_off_time": 5.246}, {"pitch": 67, "velocity": 56, "note_on_time": 5.259, "note_off_time": 5.486}, {"pitch": 65, "velocity": 65, "note_on_time": 5.523, "note_off_time": 5.619}, {"pitch": 65, "velocity": 53, "note_on_time": 5.734, "note_off_time": 5.869}, {"pitch": 62, "velocity": 69, "note_on_time": 6.037, "note_off_time": 6.588}, {"pitch": 65, "velocity": 75, "note_on_time": 7.095, "note_off_time": 7.565}, {"pitch": 64, "velocity": 57, "note_on_time": 7.751, "note_off_time": 7.874}, {"pitch": 62, "velocity": 40, "note_on_time": 8.029, "note_off_time": 8.445}, {"pitch": 62, "velocity": 71, "note_on_time": 8.541, "note_off_time": 8.667}, {"pitch": 62, "velocity": 72, "note_on_time": 8.757, "note_off_time": 8.881}]</notes><guidance name="Guidance Mode">None</guidance><error name="Error value">0.1456883333333333</error></trial><trial trial_no="2" timestamp="2022_12_08-10_34_40"><notes name="Played Notes">[{"pitch": 60, "velocity": 60, "note_on_time": 1.063, "note_off_time": 1.31}, {"pitch": 64, "velocity": 70, "note_on_time": 1.278, "note_off_time": 1.492}, {"pitch": 64, "velocity": 77, "note_on_time": 1.815, "note_off_time": 2.042}, {"pitch": 60, "velocity": 77, "note_on_time": 2.061, "note_off_time": 2.41}, {"pitch": 60, "velocity": 71, "note_on_time": 3.029, "note_off_time": 3.462}, {"pitch": 67, "velocity": 77, "note_on_time": 3.825, "note_off_time": 3.959}, {"pitch": 64, "velocity": 72, "note_on_time": 4.067, "note_off_time": 4.439}, {"pitch": 64, "velocity": 70, "note_on_time": 4.999, "note_off_time": 5.265}, {"pitch": 67, "velocity": 67, "note_on_time": 5.258, "note_off_time": 5.501}, {"pitch": 65, "velocity": 71, "note_on_time": 5.523, "note_off_time": 5.63}, {"pitch": 65, "velocity": 59, "note_on_time": 5.747, "note_off_time": 5.883}, {"pitch": 62, "velocity": 56, "note_on_time": 6.009, "note_off_time": 6.461}, {"pitch": 65, "velocity": 71, "note_on_time": 7.028, "note_off_time": 7.659}, {"pitch": 64, "velocity": 69, "note_on_time": 7.784, "note_off_time": 7.906}, {"pitch": 62, "velocity": 48, "note_on_time": 8.03, "note_off_time": 8.298}, {"pitch": 62, "velocity": 77, "note_on_time": 8.521, "note_off_time": 8.646}, {"pitch": 62, "velocity": 50, "note_on_time": 8.775, "note_off_time": 8.889}]</notes><guidance name="Guidance Mode">None</guidance><error name="Error value">0.13966500000000012</error></trial><trial trial_no="3" timestamp="2022_12_08-10_35_00"><notes name="Played Notes">[{"pitch": 60, "velocity": 62, "note_on_time": 1.028, "note_off_time": 1.315}, {"pitch": 64, "velocity": 55, "note_on_time": 1.279, "note_off_time": 1.598}, {"pitch": 64, "velocity": 83, "note_on_time": 1.824, "note_off_time": 2.062}, {"pitch": 60, "velocity": 77, "note_on_time": 2.07, "note_off_time": 2.508}, {"pitch": 60, "velocity": 85, "note_on_time": 3.038, "note_off_time": 3.446}, {"pitch": 67, "velocity": 84, "note_on_time": 3.873, "note_off_time": 4.039}, {"pitch": 64, "velocity": 77, "note_on_time": 4.112, "note_off_time": 4.726}, {"pitch": 62, "velocity": 61, "note_on_time": 5.146, "note_off_time": 5.312}, {"pitch": 64, "velocity": 7, "note_on_time": 5.409, "note_off_time": 5.677}, {"pitch": 67, "velocity": 70, "note_on_time": 5.659, "note_off_time": 5.808}, {"pitch": 65, "velocity": 59, "note_on_time": 5.838, "note_off_time": 5.965}, {"pitch": 65, "velocity": 68, "note_on_time": 6.059, "note_off_time": 6.316}, {"pitch": 62, "velocity": 73, "note_on_time": 6.341, "note_off_time": 6.943}, {"pitch": 65, "velocity": 59, "note_on_time": 7.452, "note_off_time": 7.975}, {"pitch": 64, "velocity": 60, "note_on_time": 8.116, "note_off_time": 8.334}, {"pitch": 62, "velocity": 36, "note_on_time": 8.39, "note_off_time": 8.624}]</notes><guidance name="Guidance Mode">None</guidance><error name="Error value">0.6853896666666667</error></trial></trials></MIDI>