<MIDI midiNo="2022_12_01-10_40_04"><target_notes><notes name="Note List">[{"pitch": 42, "velocity": 80, "note_on_time": 0.003, "note_off_time": 0.225}, {"pitch": 42, "velocity": 80, "note_on_time": 0.225, "note_off_time": 0.445}, {"pitch": 42, "velocity": 80, "note_on_time": 0.445, "note_off_time": 0.662}, {"pitch": 42, "velocity": 80, "note_on_time": 0.662, "note_off_time": 0.881}, {"pitch": 67, "velocity": 80, "note_on_time": 0.881, "note_off_time": 1.099}, {"pitch": 42, "velocity": 80, "note_on_time": 0.881, "note_off_time": 1.099}, {"pitch": 62, "velocity": 80, "note_on_time": 1.099, "note_off_time": 1.318}, {"pitch": 42, "velocity": 80, "note_on_time": 1.099, "note_off_time": 1.318}, {"pitch": 67, "velocity": 80, "note_on_time": 1.318, "note_off_time": 1.536}, {"pitch": 42, "velocity": 80, "note_on_time": 1.318, "note_off_time": 1.536}, {"pitch": 60, "velocity": 80, "note_on_time": 1.536, "note_off_time": 1.753}, {"pitch": 42, "velocity": 80, "note_on_time": 1.536, "note_off_time": 1.753}, {"pitch": 60, "velocity": 80, "note_on_time": 1.753, "note_off_time": 1.969}, {"pitch": 42, "velocity": 80, "note_on_time": 1.753, "note_off_time": 1.969}, {"pitch": 42, "velocity": 80, "note_on_time": 1.969, "note_off_time": 2.187}, {"pitch": 65, "velocity": 80, "note_on_time": 1.969, "note_off_time": 2.403}, {"pitch": 42, "velocity": 80, "note_on_time": 2.187, "note_off_time": 2.403}, {"pitch": 62, "velocity": 80, "note_on_time": 2.403, "note_off_time": 2.619}, {"pitch": 42, "velocity": 80, "note_on_time": 2.403, "note_off_time": 2.62}, {"pitch": 67, "velocity": 80, "note_on_time": 2.619, "note_off_time": 2.838}, {"pitch": 42, "velocity": 80, "note_on_time": 2.62, "note_off_time": 2.839}, {"pitch": 65, "velocity": 80, "note_on_time": 2.838, "note_off_time": 3.056}, {"pitch": 42, "velocity": 80, "note_on_time": 2.839, "note_off_time": 3.056}, {"pitch": 67, "velocity": 80, "note_on_time": 3.056, "note_off_time": 3.276}, {"pitch": 42, "velocity": 80, "note_on_time": 3.057, "note_off_time": 3.276}, {"pitch": 65, "velocity": 80, "note_on_time": 3.276, "note_off_time": 3.494}, {"pitch": 42, "velocity": 80, "note_on_time": 3.277, "note_off_time": 3.494}, {"pitch": 67, "velocity": 80, "note_on_time": 3.494, "note_off_time": 3.713}, {"pitch": 42, "velocity": 80, "note_on_time": 3.495, "note_off_time": 3.713}, {"pitch": 42, "velocity": 80, "note_on_time": 3.714, "note_off_time": 3.932}, {"pitch": 60, "velocity": 80, "note_on_time": 3.713, "note_off_time": 4.152}, {"pitch": 42, "velocity": 80, "note_on_time": 3.932, "note_off_time": 4.152}, {"pitch": 62, "velocity": 80, "note_on_time": 4.152, "note_off_time": 4.372}, {"pitch": 42, "velocity": 80, "note_on_time": 4.152, "note_off_time": 4.372}, {"pitch": 64, "velocity": 80, "note_on_time": 4.372, "note_off_time": 4.591}, {"pitch": 42, "velocity": 80, "note_on_time": 4.372, "note_off_time": 4.591}, {"pitch": 42, "velocity": 80, "note_on_time": 4.591, "note_off_time": 4.809}, {"pitch": 64, "velocity": 80, "note_on_time": 4.591, "note_off_time": 5.028}, {"pitch": 42, "velocity": 80, "note_on_time": 4.809, "note_off_time": 5.028}, {"pitch": 42, "velocity": 80, "note_on_time": 5.028, "note_off_time": 5.245}, {"pitch": 67, "velocity": 80, "note_on_time": 5.245, "note_off_time": 5.463}, {"pitch": 42, "velocity": 80, "note_on_time": 5.245, "note_off_time": 5.463}, {"pitch": 65, "velocity": 80, "note_on_time": 5.463, "note_off_time": 5.682}, {"pitch": 42, "velocity": 80, "note_on_time": 5.463, "note_off_time": 5.682}, {"pitch": 64, "velocity": 80, "note_on_time": 5.682, "note_off_time": 5.899}, {"pitch": 42, "velocity": 80, "note_on_time": 5.682, "note_off_time": 5.899}, {"pitch": 60, "velocity": 80, "note_on_time": 5.899, "note_off_time": 6.116}, {"pitch": 42, "velocity": 80, "note_on_time": 5.899, "note_off_time": 6.116}, {"pitch": 67, "velocity": 80, "note_on_time": 6.116, "note_off_time": 6.335}, {"pitch": 42, "velocity": 80, "note_on_time": 6.116, "note_off_time": 6.335}, {"pitch": 64, "velocity": 80, "note_on_time": 6.335, "note_off_time": 6.555}, {"pitch": 42, "velocity": 80, "note_on_time": 6.335, "note_off_time": 6.555}, {"pitch": 62, "velocity": 80, "note_on_time": 6.555, "note_off_time": 6.773}, {"pitch": 42, "velocity": 80, "note_on_time": 6.556, "note_off_time": 6.773}, {"pitch": 42, "velocity": 80, "note_on_time": 6.773, "note_off_time": 6.989}, {"pitch": 42, "velocity": 80, "note_on_time": 6.989, "note_off_time": 7.208}, {"pitch": 62, "velocity": 80, "note_on_time": 7.208, "note_off_time": 7.427}, {"pitch": 42, "velocity": 80, "note_on_time": 7.208, "note_off_time": 7.427}, {"pitch": 62, "velocity": 80, "note_on_time": 7.427, "note_off_time": 7.643}, {"pitch": 42, "velocity": 80, "note_on_time": 7.427, "note_off_time": 7.643}, {"pitch": 62, "velocity": 80, "note_on_time": 7.643, "note_off_time": 7.86}, {"pitch": 42, "velocity": 80, "note_on_time": 7.643, "note_off_time": 7.86}]</notes><options name="Option List">((4, 4), [0.5, 0.25], 3, 8, &lt;NoteRangePerHand.C_TO_G: 6&gt;, &lt;NoteRangePerHand.ONE_NOTE: 2&gt;, False, True, False, '281')</options></target_notes><trials><trial trial_no="1" timestamp="2022_12_01-10_39_54"><notes name="Played Notes">[{"pitch": 67, "velocity": 65, "note_on_time": 0.912, "note_off_time": 1.17}, {"pitch": 62, "velocity": 68, "note_on_time": 1.108, "note_off_time": 1.396}, {"pitch": 67, "velocity": 78, "note_on_time": 1.344, "note_off_time": 1.56}, {"pitch": 60, "velocity": 67, "note_on_time": 1.501, "note_off_time": 1.621}, {"pitch": 60, "velocity": 85, "note_on_time": 1.778, "note_off_time": 2.011}, {"pitch": 65, "velocity": 79, "note_on_time": 1.993, "note_off_time": 2.418}, {"pitch": 62, "velocity": 65, "note_on_time": 2.407, "note_off_time": 2.65}, {"pitch": 67, "velocity": 67, "note_on_time": 2.622, "note_off_time": 2.829}, {"pitch": 65, "velocity": 73, "note_on_time": 2.799, "note_off_time": 3.025}, {"pitch": 67, "velocity": 81, "note_on_time": 3.019, "note_off_time": 3.289}, {"pitch": 65, "velocity": 82, "note_on_time": 3.241, "note_off_time": 3.463}, {"pitch": 67, "velocity": 75, "note_on_time": 3.451, "note_off_time": 3.674}, {"pitch": 60, "velocity": 79, "note_on_time": 3.674, "note_off_time": 4.164}, {"pitch": 62, "velocity": 76, "note_on_time": 4.121, "note_off_time": 4.359}, {"pitch": 64, "velocity": 71, "note_on_time": 4.327, "note_off_time": 4.415}, {"pitch": 64, "velocity": 85, "note_on_time": 4.552, "note_off_time": 4.682}, {"pitch": 67, "velocity": 77, "note_on_time": 5.266, "note_off_time": 5.551}, {"pitch": 65, "velocity": 75, "note_on_time": 5.462, "note_off_time": 5.727}, {"pitch": 64, "velocity": 73, "note_on_time": 5.649, "note_off_time": 5.853}, {"pitch": 60, "velocity": 78, "note_on_time": 5.856, "note_off_time": 6.138}, {"pitch": 67, "velocity": 76, "note_on_time": 6.105, "note_off_time": 6.329}, {"pitch": 64, "velocity": 66, "note_on_time": 6.29, "note_off_time": 6.545}, {"pitch": 62, "velocity": 84, "note_on_time": 6.52, "note_off_time": 6.675}, {"pitch": 62, "velocity": 79, "note_on_time": 7.224, "note_off_time": 7.299}, {"pitch": 62, "velocity": 76, "note_on_time": 7.428, "note_off_time": 7.511}, {"pitch": 62, "velocity": 76, "note_on_time": 7.654, "note_off_time": 7.784}]</notes><guidance name="Guidance Mode">None</guidance><error name="Error value">0.024753869565217548</error></trial><trial trial_no="2" timestamp="2022_12_01-10_40_14"><notes name="Played Notes">[{"pitch": 67, "velocity": 76, "note_on_time": 0.873, "note_off_time": 1.128}, {"pitch": 62, "velocity": 69, "note_on_time": 1.092, "note_off_time": 1.322}, {"pitch": 67, "velocity": 76, "note_on_time": 1.291, "note_off_time": 1.49}, {"pitch": 60, "velocity": 79, "note_on_time": 1.474, "note_off_time": 1.593}, {"pitch": 60, "velocity": 75, "note_on_time": 1.709, "note_off_time": 1.952}, {"pitch": 65, "velocity": 81, "note_on_time": 1.93, "note_off_time": 2.386}, {"pitch": 62, "velocity": 74, "note_on_time": 2.371, "note_off_time": 2.606}, {"pitch": 67, "velocity": 73, "note_on_time": 2.581, "note_off_time": 2.835}, {"pitch": 65, "velocity": 78, "note_on_time": 2.794, "note_off_time": 3.036}, {"pitch": 67, "velocity": 78, "note_on_time": 3.029, "note_off_time": 3.28}, {"pitch": 65, "velocity": 71, "note_on_time": 3.228, "note_off_time": 3.467}, {"pitch": 67, "velocity": 75, "note_on_time": 3.465, "note_off_time": 3.687}, {"pitch": 60, "velocity": 82, "note_on_time": 3.689, "note_off_time": 4.197}, {"pitch": 62, "velocity": 76, "note_on_time": 4.165, "note_off_time": 4.385}, {"pitch": 64, "velocity": 63, "note_on_time": 4.376, "note_off_time": 4.467}, {"pitch": 64, "velocity": 77, "note_on_time": 4.604, "note_off_time": 4.764}, {"pitch": 67, "velocity": 72, "note_on_time": 5.278, "note_off_time": 5.537}, {"pitch": 65, "velocity": 71, "note_on_time": 5.476, "note_off_time": 5.747}, {"pitch": 64, "velocity": 69, "note_on_time": 5.681, "note_off_time": 5.897}, {"pitch": 60, "velocity": 73, "note_on_time": 5.905, "note_off_time": 6.17}, {"pitch": 67, "velocity": 73, "note_on_time": 6.141, "note_off_time": 6.338}, {"pitch": 64, "velocity": 68, "note_on_time": 6.317, "note_off_time": 6.588}, {"pitch": 62, "velocity": 75, "note_on_time": 6.557, "note_off_time": 6.686}, {"pitch": 62, "velocity": 78, "note_on_time": 7.22, "note_off_time": 7.298}, {"pitch": 62, "velocity": 77, "note_on_time": 7.413, "note_off_time": 7.496}, {"pitch": 62, "velocity": 77, "note_on_time": 7.638, "note_off_time": 7.744}]</notes><guidance name="Guidance Mode">None</guidance><error name="Error value">0.019228130434782463</error></trial><trial trial_no="3" timestamp="2022_12_01-10_40_37"><notes name="Played Notes">[{"pitch": 67, "velocity": 73, "note_on_time": 0.88, "note_off_time": 1.126}, {"pitch": 62, "velocity": 55, "note_on_time": 1.109, "note_off_time": 1.361}, {"pitch": 67, "velocity": 70, "note_on_time": 1.298, "note_off_time": 1.581}, {"pitch": 60, "velocity": 74, "note_on_time": 1.505, "note_off_time": 1.608}, {"pitch": 60, "velocity": 72, "note_on_time": 1.723, "note_off_time": 1.985}, {"pitch": 65, "velocity": 81, "note_on_time": 1.959, "note_off_time": 2.392}, {"pitch": 62, "velocity": 66, "note_on_time": 2.387, "note_off_time": 2.623}, {"pitch": 67, "velocity": 75, "note_on_time": 2.587, "note_off_time": 2.839}, {"pitch": 65, "velocity": 73, "note_on_time": 2.799, "note_off_time": 3.02}, {"pitch": 67, "velocity": 73, "note_on_time": 3.017, "note_off_time": 3.257}, {"pitch": 65, "velocity": 70, "note_on_time": 3.215, "note_off_time": 3.439}, {"pitch": 67, "velocity": 65, "note_on_time": 3.438, "note_off_time": 3.772}, {"pitch": 60, "velocity": 73, "note_on_time": 3.663, "note_off_time": 4.169}, {"pitch": 62, "velocity": 64, "note_on_time": 4.125, "note_off_time": 4.371}, {"pitch": 64, "velocity": 74, "note_on_time": 4.331, "note_off_time": 4.426}, {"pitch": 64, "velocity": 79, "note_on_time": 4.58, "note_off_time": 4.702}, {"pitch": 67, "velocity": 75, "note_on_time": 5.249, "note_off_time": 5.525}, {"pitch": 65, "velocity": 76, "note_on_time": 5.464, "note_off_time": 5.71}, {"pitch": 64, "velocity": 71, "note_on_time": 5.663, "note_off_time": 5.88}, {"pitch": 60, "velocity": 74, "note_on_time": 5.884, "note_off_time": 6.14}, {"pitch": 67, "velocity": 77, "note_on_time": 6.121, "note_off_time": 6.352}, {"pitch": 64, "velocity": 62, "note_on_time": 6.313, "note_off_time": 6.601}, {"pitch": 62, "velocity": 82, "note_on_time": 6.574, "note_off_time": 6.827}, {"pitch": 62, "velocity": 72, "note_on_time": 7.257, "note_off_time": 7.332}, {"pitch": 62, "velocity": 74, "note_on_time": 7.458, "note_off_time": 7.534}, {"pitch": 62, "velocity": 79, "note_on_time": 7.671, "note_off_time": 7.78}]</notes><guidance name="Guidance Mode">None</guidance><error name="Error value">0.017749869565217413</error></trial></trials></MIDI>