<MIDI midiNo="2022_11_03-13_48_55"><target_notes><notes name="Note List">[{"pitch": 42, "velocity": 80, "note_on_time": 0.004, "note_off_time": 0.258}, {"pitch": 42, "velocity": 80, "note_on_time": 0.258, "note_off_time": 0.507}, {"pitch": 42, "velocity": 80, "note_on_time": 0.507, "note_off_time": 0.756}, {"pitch": 42, "velocity": 80, "note_on_time": 0.757, "note_off_time": 1.007}, {"pitch": 42, "velocity": 80, "note_on_time": 1.008, "note_off_time": 1.254}, {"pitch": 60, "velocity": 80, "note_on_time": 1.007, "note_off_time": 1.502}, {"pitch": 42, "velocity": 80, "note_on_time": 1.255, "note_off_time": 1.502}, {"pitch": 42, "velocity": 80, "note_on_time": 1.502, "note_off_time": 1.752}, {"pitch": 42, "velocity": 80, "note_on_time": 1.752, "note_off_time": 2.003}, {"pitch": 62, "velocity": 80, "note_on_time": 2.002, "note_off_time": 2.25}, {"pitch": 42, "velocity": 80, "note_on_time": 2.003, "note_off_time": 2.25}, {"pitch": 60, "velocity": 80, "note_on_time": 2.25, "note_off_time": 2.499}, {"pitch": 42, "velocity": 80, "note_on_time": 2.251, "note_off_time": 2.5}, {"pitch": 60, "velocity": 80, "note_on_time": 2.499, "note_off_time": 2.75}, {"pitch": 42, "velocity": 80, "note_on_time": 2.5, "note_off_time": 2.751}, {"pitch": 64, "velocity": 80, "note_on_time": 2.75, "note_off_time": 2.999}, {"pitch": 42, "velocity": 80, "note_on_time": 2.751, "note_off_time": 2.999}, {"pitch": 42, "velocity": 80, "note_on_time": 3.0, "note_off_time": 3.249}, {"pitch": 62, "velocity": 80, "note_on_time": 2.999, "note_off_time": 3.498}, {"pitch": 42, "velocity": 80, "note_on_time": 3.249, "note_off_time": 3.498}, {"pitch": 42, "velocity": 80, "note_on_time": 3.499, "note_off_time": 3.748}, {"pitch": 42, "velocity": 80, "note_on_time": 3.748, "note_off_time": 3.999}, {"pitch": 64, "velocity": 80, "note_on_time": 3.998, "note_off_time": 4.249}, {"pitch": 42, "velocity": 80, "note_on_time": 3.999, "note_off_time": 4.249}, {"pitch": 64, "velocity": 80, "note_on_time": 4.249, "note_off_time": 4.498}, {"pitch": 42, "velocity": 80, "note_on_time": 4.25, "note_off_time": 4.498}, {"pitch": 62, "velocity": 80, "note_on_time": 4.498, "note_off_time": 4.749}, {"pitch": 42, "velocity": 80, "note_on_time": 4.498, "note_off_time": 4.749}, {"pitch": 60, "velocity": 80, "note_on_time": 4.749, "note_off_time": 5.001}, {"pitch": 42, "velocity": 80, "note_on_time": 4.75, "note_off_time": 5.001}, {"pitch": 62, "velocity": 80, "note_on_time": 5.001, "note_off_time": 5.249}, {"pitch": 42, "velocity": 80, "note_on_time": 5.001, "note_off_time": 5.25}, {"pitch": 64, "velocity": 80, "note_on_time": 5.249, "note_off_time": 5.498}, {"pitch": 42, "velocity": 80, "note_on_time": 5.25, "note_off_time": 5.498}, {"pitch": 62, "velocity": 80, "note_on_time": 5.498, "note_off_time": 5.747}, {"pitch": 42, "velocity": 80, "note_on_time": 5.499, "note_off_time": 5.747}, {"pitch": 60, "velocity": 80, "note_on_time": 5.747, "note_off_time": 5.996}, {"pitch": 42, "velocity": 80, "note_on_time": 5.747, "note_off_time": 5.996}, {"pitch": 62, "velocity": 80, "note_on_time": 5.996, "note_off_time": 6.244}, {"pitch": 42, "velocity": 80, "note_on_time": 5.996, "note_off_time": 6.244}, {"pitch": 60, "velocity": 80, "note_on_time": 6.244, "note_off_time": 6.495}, {"pitch": 42, "velocity": 80, "note_on_time": 6.245, "note_off_time": 6.495}, {"pitch": 60, "velocity": 80, "note_on_time": 6.495, "note_off_time": 6.747}, {"pitch": 42, "velocity": 80, "note_on_time": 6.495, "note_off_time": 6.747}, {"pitch": 60, "velocity": 80, "note_on_time": 6.747, "note_off_time": 6.996}, {"pitch": 42, "velocity": 80, "note_on_time": 6.748, "note_off_time": 6.997}, {"pitch": 42, "velocity": 80, "note_on_time": 6.997, "note_off_time": 7.246}, {"pitch": 60, "velocity": 80, "note_on_time": 6.996, "note_off_time": 7.494}, {"pitch": 42, "velocity": 80, "note_on_time": 7.246, "note_off_time": 7.495}, {"pitch": 42, "velocity": 80, "note_on_time": 7.499, "note_off_time": 7.743}, {"pitch": 42, "velocity": 80, "note_on_time": 7.743, "note_off_time": 7.992}, {"pitch": 42, "velocity": 80, "note_on_time": 7.992, "note_off_time": 8.241}, {"pitch": 60, "velocity": 80, "note_on_time": 8.241, "note_off_time": 8.489}, {"pitch": 42, "velocity": 80, "note_on_time": 8.241, "note_off_time": 8.49}, {"pitch": 60, "velocity": 80, "note_on_time": 8.489, "note_off_time": 8.736}, {"pitch": 42, "velocity": 80, "note_on_time": 8.49, "note_off_time": 8.737}, {"pitch": 60, "velocity": 80, "note_on_time": 8.736, "note_off_time": 8.985}, {"pitch": 42, "velocity": 80, "note_on_time": 8.737, "note_off_time": 8.985}]</notes><options name="Option List">((4, 4), [0.5, 0.25], 3, 8, &lt;NoteRangePerHand.THREE_NOTES: 4&gt;, &lt;NoteRangePerHand.ONE_NOTE: 2&gt;, False, True, False, 248)</options></target_notes><trials><trial trial_no="1" timestamp="2022_11_03-13_48_44"><notes name="Played Notes">[{"pitch": 60, "velocity": 63, "note_on_time": 1.046, "note_off_time": 1.546}, {"pitch": 62, "velocity": 14, "note_on_time": 2.083, "note_off_time": 2.266}, {"pitch": 60, "velocity": 52, "note_on_time": 2.381, "note_off_time": 2.472}, {"pitch": 60, "velocity": 60, "note_on_time": 2.584, "note_off_time": 2.735}, {"pitch": 62, "velocity": 51, "note_on_time": 2.847, "note_off_time": 2.928}, {"pitch": 62, "velocity": 66, "note_on_time": 3.129, "note_off_time": 3.744}, {"pitch": 64, "velocity": 50, "note_on_time": 4.097, "note_off_time": 4.268}, {"pitch": 64, "velocity": 58, "note_on_time": 4.365, "note_off_time": 4.503}, {"pitch": 62, "velocity": 36, "note_on_time": 4.625, "note_off_time": 4.775}, {"pitch": 60, "velocity": 51, "note_on_time": 4.887, "note_off_time": 5.033}, {"pitch": 64, "velocity": 41, "note_on_time": 5.148, "note_off_time": 5.267}, {"pitch": 62, "velocity": 64, "note_on_time": 5.298, "note_off_time": 5.495}, {"pitch": 64, "velocity": 30, "note_on_time": 5.571, "note_off_time": 5.723}, {"pitch": 62, "velocity": 33, "note_on_time": 5.777, "note_off_time": 5.883}, {"pitch": 60, "velocity": 36, "note_on_time": 6.092, "note_off_time": 6.213}, {"pitch": 60, "velocity": 55, "note_on_time": 6.316, "note_off_time": 6.451}, {"pitch": 60, "velocity": 39, "note_on_time": 7.124, "note_off_time": 7.229}, {"pitch": 60, "velocity": 1, "note_on_time": 7.654, "note_off_time": 8.467}, {"pitch": 60, "velocity": 45, "note_on_time": 8.589, "note_off_time": 8.775}]</notes><guidance name="Guidance Mode">None</guidance><error name="Error value">0.4482905263157894</error></trial><trial trial_no="2" timestamp="2022_11_03-13_49_03"><notes name="Played Notes">[{"pitch": 60, "velocity": 71, "note_on_time": 1.013, "note_off_time": 1.502}, {"pitch": 62, "velocity": 71, "note_on_time": 2.078, "note_off_time": 2.148}, {"pitch": 62, "velocity": 45, "note_on_time": 2.251, "note_off_time": 2.481}, {"pitch": 60, "velocity": 74, "note_on_time": 2.507, "note_off_time": 2.611}, {"pitch": 62, "velocity": 44, "note_on_time": 2.771, "note_off_time": 2.89}, {"pitch": 64, "velocity": 61, "note_on_time": 3.051, "note_off_time": 3.191}, {"pitch": 62, "velocity": 57, "note_on_time": 3.219, "note_off_time": 3.718}, {"pitch": 62, "velocity": 75, "note_on_time": 4.417, "note_off_time": 4.494}, {"pitch": 64, "velocity": 72, "note_on_time": 4.144, "note_off_time": 4.655}, {"pitch": 62, "velocity": 63, "note_on_time": 4.66, "note_off_time": 4.839}, {"pitch": 60, "velocity": 47, "note_on_time": 5.163, "note_off_time": 5.263}, {"pitch": 62, "velocity": 71, "note_on_time": 5.477, "note_off_time": 5.597}, {"pitch": 64, "velocity": 55, "note_on_time": 5.698, "note_off_time": 5.825}, {"pitch": 62, "velocity": 36, "note_on_time": 5.937, "note_off_time": 6.096}, {"pitch": 60, "velocity": 45, "note_on_time": 6.262, "note_off_time": 6.452}, {"pitch": 62, "velocity": 44, "note_on_time": 6.805, "note_off_time": 6.92}, {"pitch": 62, "velocity": 26, "note_on_time": 7.06, "note_off_time": 7.16}, {"pitch": 60, "velocity": 44, "note_on_time": 7.198, "note_off_time": 7.291}, {"pitch": 60, "velocity": 45, "note_on_time": 7.396, "note_off_time": 7.54}, {"pitch": 60, "velocity": 48, "note_on_time": 7.643, "note_off_time": 8.179}, {"pitch": 60, "velocity": 47, "note_on_time": 8.725, "note_off_time": 8.851}]</notes><guidance name="Guidance Mode">None</guidance><error name="Error value">0.8349186842105277</error></trial><trial trial_no="3" timestamp="2022_11_03-13_49_23"><notes name="Played Notes">[{"pitch": 60, "velocity": 72, "note_on_time": 0.997, "note_off_time": 1.444}, {"pitch": 62, "velocity": 70, "note_on_time": 2.016, "note_off_time": 2.164}, {"pitch": 60, "velocity": 73, "note_on_time": 2.26, "note_off_time": 2.395}, {"pitch": 60, "velocity": 55, "note_on_time": 2.492, "note_off_time": 2.62}, {"pitch": 64, "velocity": 59, "note_on_time": 2.736, "note_off_time": 2.914}, {"pitch": 62, "velocity": 56, "note_on_time": 2.999, "note_off_time": 3.439}, {"pitch": 62, "velocity": 66, "note_on_time": 4.087, "note_off_time": 4.225}, {"pitch": 64, "velocity": 49, "note_on_time": 4.326, "note_off_time": 4.455}, {"pitch": 62, "velocity": 57, "note_on_time": 4.485, "note_off_time": 4.649}, {"pitch": 60, "velocity": 54, "note_on_time": 4.756, "note_off_time": 4.865}, {"pitch": 62, "velocity": 67, "note_on_time": 5.36, "note_off_time": 5.505}, {"pitch": 64, "velocity": 44, "note_on_time": 5.59, "note_off_time": 5.737}, {"pitch": 62, "velocity": 52, "note_on_time": 5.798, "note_off_time": 5.933}, {"pitch": 60, "velocity": 47, "note_on_time": 6.05, "note_off_time": 6.289}, {"pitch": 62, "velocity": 52, "note_on_time": 6.586, "note_off_time": 6.778}, {"pitch": 60, "velocity": 40, "note_on_time": 6.837, "note_off_time": 6.912}, {"pitch": 60, "velocity": 46, "note_on_time": 7.068, "note_off_time": 7.187}, {"pitch": 60, "velocity": 57, "note_on_time": 7.307, "note_off_time": 7.432}, {"pitch": 60, "velocity": 43, "note_on_time": 7.548, "note_off_time": 8.072}, {"pitch": 60, "velocity": 55, "note_on_time": 8.566, "note_off_time": 8.673}, {"pitch": 60, "velocity": 60, "note_on_time": 8.793, "note_off_time": 8.926}]</notes><guidance name="Guidance Mode">None</guidance><error name="Error value">0.3033752631578948</error></trial></trials></MIDI>