<MIDI midiNo="2022_09_08-11_57_38"><target_notes><notes name="Note List">[{"pitch": 42, "velocity": 80, "note_on_time": 0.004, "note_off_time": 0.472}, {"pitch": 42, "velocity": 80, "note_on_time": 0.472, "note_off_time": 0.937}, {"pitch": 42, "velocity": 80, "note_on_time": 0.937, "note_off_time": 1.404}, {"pitch": 42, "velocity": 80, "note_on_time": 1.404, "note_off_time": 1.87}, {"pitch": 60, "velocity": 80, "note_on_time": 1.87, "note_off_time": 2.335}, {"pitch": 42, "velocity": 80, "note_on_time": 1.87, "note_off_time": 2.335}, {"pitch": 64, "velocity": 80, "note_on_time": 2.335, "note_off_time": 2.79}, {"pitch": 42, "velocity": 80, "note_on_time": 2.336, "note_off_time": 2.79}, {"pitch": 42, "velocity": 80, "note_on_time": 2.79, "note_off_time": 3.243}, {"pitch": 64, "velocity": 80, "note_on_time": 2.79, "note_off_time": 3.709}, {"pitch": 42, "velocity": 80, "note_on_time": 3.244, "note_off_time": 3.709}, {"pitch": 62, "velocity": 80, "note_on_time": 3.709, "note_off_time": 4.177}, {"pitch": 42, "velocity": 80, "note_on_time": 3.709, "note_off_time": 4.177}, {"pitch": 62, "velocity": 80, "note_on_time": 4.177, "note_off_time": 4.645}, {"pitch": 42, "velocity": 80, "note_on_time": 4.177, "note_off_time": 4.645}, {"pitch": 60, "velocity": 80, "note_on_time": 4.645, "note_off_time": 5.098}, {"pitch": 42, "velocity": 80, "note_on_time": 4.645, "note_off_time": 5.098}, {"pitch": 64, "velocity": 80, "note_on_time": 5.098, "note_off_time": 5.564}, {"pitch": 42, "velocity": 80, "note_on_time": 5.098, "note_off_time": 5.565}, {"pitch": 60, "velocity": 80, "note_on_time": 5.564, "note_off_time": 6.032}, {"pitch": 42, "velocity": 80, "note_on_time": 5.565, "note_off_time": 6.032}, {"pitch": 60, "velocity": 80, "note_on_time": 6.032, "note_off_time": 6.496}, {"pitch": 42, "velocity": 80, "note_on_time": 6.032, "note_off_time": 6.496}, {"pitch": 64, "velocity": 80, "note_on_time": 6.496, "note_off_time": 6.964}, {"pitch": 42, "velocity": 80, "note_on_time": 6.496, "note_off_time": 6.964}, {"pitch": 62, "velocity": 80, "note_on_time": 6.964, "note_off_time": 7.431}, {"pitch": 42, "velocity": 80, "note_on_time": 6.965, "note_off_time": 7.431}, {"pitch": 60, "velocity": 80, "note_on_time": 7.431, "note_off_time": 7.885}, {"pitch": 42, "velocity": 80, "note_on_time": 7.432, "note_off_time": 7.886}, {"pitch": 64, "velocity": 80, "note_on_time": 7.885, "note_off_time": 8.353}, {"pitch": 42, "velocity": 80, "note_on_time": 7.886, "note_off_time": 8.353}, {"pitch": 60, "velocity": 80, "note_on_time": 8.353, "note_off_time": 8.819}, {"pitch": 42, "velocity": 80, "note_on_time": 8.353, "note_off_time": 8.819}, {"pitch": 62, "velocity": 80, "note_on_time": 8.819, "note_off_time": 9.284}, {"pitch": 42, "velocity": 80, "note_on_time": 8.819, "note_off_time": 9.284}, {"pitch": 64, "velocity": 80, "note_on_time": 9.284, "note_off_time": 9.75}, {"pitch": 42, "velocity": 80, "note_on_time": 9.285, "note_off_time": 9.751}, {"pitch": 60, "velocity": 80, "note_on_time": 9.75, "note_off_time": 10.217}, {"pitch": 42, "velocity": 80, "note_on_time": 9.751, "note_off_time": 10.217}, {"pitch": 64, "velocity": 80, "note_on_time": 10.217, "note_off_time": 10.67}, {"pitch": 42, "velocity": 80, "note_on_time": 10.218, "note_off_time": 10.67}, {"pitch": 64, "velocity": 80, "note_on_time": 10.67, "note_off_time": 11.123}, {"pitch": 42, "velocity": 80, "note_on_time": 10.671, "note_off_time": 11.124}, {"pitch": 64, "velocity": 80, "note_on_time": 11.123, "note_off_time": 11.577}, {"pitch": 42, "velocity": 80, "note_on_time": 11.124, "note_off_time": 11.577}, {"pitch": 60, "velocity": 80, "note_on_time": 11.577, "note_off_time": 12.042}, {"pitch": 42, "velocity": 80, "note_on_time": 11.578, "note_off_time": 12.043}, {"pitch": 62, "velocity": 80, "note_on_time": 12.042, "note_off_time": 12.511}, {"pitch": 42, "velocity": 80, "note_on_time": 12.043, "note_off_time": 12.511}, {"pitch": 60, "velocity": 80, "note_on_time": 12.511, "note_off_time": 12.963}, {"pitch": 42, "velocity": 80, "note_on_time": 12.511, "note_off_time": 12.964}, {"pitch": 42, "velocity": 80, "note_on_time": 12.964, "note_off_time": 13.419}, {"pitch": 60, "velocity": 80, "note_on_time": 12.963, "note_off_time": 13.886}, {"pitch": 42, "velocity": 80, "note_on_time": 13.419, "note_off_time": 13.887}, {"pitch": 62, "velocity": 80, "note_on_time": 13.886, "note_off_time": 14.352}, {"pitch": 42, "velocity": 80, "note_on_time": 13.887, "note_off_time": 14.352}, {"pitch": 42, "velocity": 80, "note_on_time": 14.352, "note_off_time": 14.818}, {"pitch": 42, "velocity": 80, "note_on_time": 14.818, "note_off_time": 15.286}, {"pitch": 62, "velocity": 80, "note_on_time": 15.285, "note_off_time": 15.754}, {"pitch": 42, "velocity": 80, "note_on_time": 15.286, "note_off_time": 15.754}, {"pitch": 62, "velocity": 80, "note_on_time": 15.754, "note_off_time": 16.209}, {"pitch": 42, "velocity": 80, "note_on_time": 15.754, "note_off_time": 16.21}, {"pitch": 62, "velocity": 80, "note_on_time": 16.209, "note_off_time": 16.676}, {"pitch": 42, "velocity": 80, "note_on_time": 16.21, "note_off_time": 16.676}]</notes><options name="Option List">((4, 4), [0.5, 0.25], 3, 8, &lt;NoteRangePerHand.THREE_NOTES: 4&gt;, &lt;NoteRangePerHand.ONE_NOTE: 2&gt;, False, True, True, '133')</options></target_notes><trials><trial trial_no="1" timestamp="2022_09_08-11_57_19"><notes name="Played Notes">[{"pitch": 60, "velocity": 71, "note_on_time": 1.387, "note_off_time": 1.585}, {"pitch": 62, "velocity": 86, "note_on_time": 1.811, "note_off_time": 2.0}, {"pitch": 64, "velocity": 88, "note_on_time": 2.308, "note_off_time": 2.485}, {"pitch": 62, "velocity": 85, "note_on_time": 3.61, "note_off_time": 3.784}, {"pitch": 62, "velocity": 88, "note_on_time": 4.064, "note_off_time": 4.226}, {"pitch": 60, "velocity": 91, "note_on_time": 4.493, "note_off_time": 4.655}, {"pitch": 64, "velocity": 87, "note_on_time": 4.946, "note_off_time": 5.118}, {"pitch": 60, "velocity": 89, "note_on_time": 5.386, "note_off_time": 5.574}, {"pitch": 60, "velocity": 84, "note_on_time": 5.886, "note_off_time": 6.07}, {"pitch": 64, "velocity": 89, "note_on_time": 6.329, "note_off_time": 6.487}, {"pitch": 62, "velocity": 82, "note_on_time": 6.778, "note_off_time": 6.934}, {"pitch": 60, "velocity": 85, "note_on_time": 7.327, "note_off_time": 7.497}, {"pitch": 64, "velocity": 83, "note_on_time": 7.807, "note_off_time": 7.971}, {"pitch": 60, "velocity": 79, "note_on_time": 8.249, "note_off_time": 8.425}, {"pitch": 62, "velocity": 79, "note_on_time": 8.712, "note_off_time": 8.863}, {"pitch": 64, "velocity": 83, "note_on_time": 9.312, "note_off_time": 9.493}, {"pitch": 60, "velocity": 93, "note_on_time": 9.725, "note_off_time": 9.892}, {"pitch": 64, "velocity": 87, "note_on_time": 10.175, "note_off_time": 10.326}, {"pitch": 64, "velocity": 91, "note_on_time": 10.633, "note_off_time": 10.756}, {"pitch": 64, "velocity": 79, "note_on_time": 11.114, "note_off_time": 11.234}, {"pitch": 60, "velocity": 82, "note_on_time": 11.555, "note_off_time": 11.699}, {"pitch": 62, "velocity": 86, "note_on_time": 12.001, "note_off_time": 12.121}, {"pitch": 60, "velocity": 84, "note_on_time": 12.42, "note_off_time": 12.55}, {"pitch": 60, "velocity": 92, "note_on_time": 12.866, "note_off_time": 13.457}, {"pitch": 62, "velocity": 87, "note_on_time": 13.783, "note_off_time": 14.051}, {"pitch": 62, "velocity": 90, "note_on_time": 14.786, "note_off_time": 14.929}, {"pitch": 62, "velocity": 87, "note_on_time": 15.295, "note_off_time": 15.382}, {"pitch": 62, "velocity": 81, "note_on_time": 15.748, "note_off_time": 15.831}]</notes><guidance name="Guidance Mode">None</guidance><error name="Error value">0.09679491999999988</error></trial><trial trial_no="2" timestamp="2022_09_08-11_57_52"><notes name="Played Notes">[{"pitch": 60, "velocity": 88, "note_on_time": 1.394, "note_off_time": 1.574}, {"pitch": 64, "velocity": 92, "note_on_time": 1.806, "note_off_time": 1.949}, {"pitch": 64, "velocity": 94, "note_on_time": 2.255, "note_off_time": 2.766}, {"pitch": 62, "velocity": 89, "note_on_time": 3.053, "note_off_time": 3.203}, {"pitch": 62, "velocity": 79, "note_on_time": 3.492, "note_off_time": 3.643}, {"pitch": 60, "velocity": 88, "note_on_time": 3.908, "note_off_time": 4.078}, {"pitch": 64, "velocity": 87, "note_on_time": 4.353, "note_off_time": 4.512}, {"pitch": 60, "velocity": 82, "note_on_time": 4.777, "note_off_time": 4.915}, {"pitch": 60, "velocity": 84, "note_on_time": 5.243, "note_off_time": 5.379}, {"pitch": 64, "velocity": 83, "note_on_time": 5.65, "note_off_time": 5.768}, {"pitch": 62, "velocity": 79, "note_on_time": 6.083, "note_off_time": 6.213}, {"pitch": 60, "velocity": 81, "note_on_time": 6.515, "note_off_time": 6.681}, {"pitch": 64, "velocity": 78, "note_on_time": 6.927, "note_off_time": 7.08}, {"pitch": 60, "velocity": 74, "note_on_time": 7.362, "note_off_time": 7.507}, {"pitch": 62, "velocity": 77, "note_on_time": 7.806, "note_off_time": 7.925}, {"pitch": 64, "velocity": 75, "note_on_time": 8.274, "note_off_time": 8.402}, {"pitch": 60, "velocity": 77, "note_on_time": 8.691, "note_off_time": 8.847}, {"pitch": 64, "velocity": 87, "note_on_time": 9.092, "note_off_time": 9.227}, {"pitch": 64, "velocity": 87, "note_on_time": 9.53, "note_off_time": 9.667}, {"pitch": 64, "velocity": 85, "note_on_time": 9.962, "note_off_time": 10.125}, {"pitch": 60, "velocity": 81, "note_on_time": 10.408, "note_off_time": 10.566}, {"pitch": 62, "velocity": 84, "note_on_time": 10.887, "note_off_time": 11.01}, {"pitch": 60, "velocity": 79, "note_on_time": 11.333, "note_off_time": 11.494}, {"pitch": 60, "velocity": 77, "note_on_time": 11.78, "note_off_time": 12.313}, {"pitch": 62, "velocity": 77, "note_on_time": 12.608, "note_off_time": 12.729}, {"pitch": 62, "velocity": 83, "note_on_time": 14.267, "note_off_time": 14.363}, {"pitch": 62, "velocity": 73, "note_on_time": 14.724, "note_off_time": 14.789}, {"pitch": 62, "velocity": 80, "note_on_time": 15.175, "note_off_time": 15.397}]</notes><guidance name="Guidance Mode">None</guidance><error name="Error value">0.037846359999999774</error></trial><trial trial_no="3" timestamp="2022_09_08-11_58_57"><notes name="Played Notes">[{"pitch": 60, "velocity": 88, "note_on_time": 1.797, "note_off_time": 1.96}, {"pitch": 64, "velocity": 88, "note_on_time": 2.213, "note_off_time": 2.355}, {"pitch": 64, "velocity": 98, "note_on_time": 2.664, "note_off_time": 3.32}, {"pitch": 62, "velocity": 90, "note_on_time": 3.612, "note_off_time": 3.747}, {"pitch": 62, "velocity": 83, "note_on_time": 4.099, "note_off_time": 4.255}, {"pitch": 60, "velocity": 97, "note_on_time": 4.514, "note_off_time": 4.669}, {"pitch": 64, "velocity": 76, "note_on_time": 4.969, "note_off_time": 5.159}, {"pitch": 60, "velocity": 84, "note_on_time": 5.411, "note_off_time": 5.566}, {"pitch": 60, "velocity": 90, "note_on_time": 5.856, "note_off_time": 5.99}, {"pitch": 64, "velocity": 79, "note_on_time": 6.296, "note_off_time": 6.46}, {"pitch": 62, "velocity": 84, "note_on_time": 6.756, "note_off_time": 6.877}, {"pitch": 60, "velocity": 85, "note_on_time": 7.198, "note_off_time": 7.37}, {"pitch": 64, "velocity": 87, "note_on_time": 7.641, "note_off_time": 7.786}, {"pitch": 60, "velocity": 84, "note_on_time": 8.178, "note_off_time": 8.338}, {"pitch": 62, "velocity": 75, "note_on_time": 8.617, "note_off_time": 8.749}, {"pitch": 64, "velocity": 74, "note_on_time": 9.109, "note_off_time": 9.27}, {"pitch": 60, "velocity": 72, "note_on_time": 9.56, "note_off_time": 9.741}, {"pitch": 64, "velocity": 83, "note_on_time": 10.015, "note_off_time": 10.17}, {"pitch": 64, "velocity": 90, "note_on_time": 10.507, "note_off_time": 10.63}, {"pitch": 64, "velocity": 81, "note_on_time": 10.996, "note_off_time": 11.17}, {"pitch": 62, "velocity": 79, "note_on_time": 12.014, "note_off_time": 12.167}, {"pitch": 60, "velocity": 87, "note_on_time": 12.443, "note_off_time": 12.6}, {"pitch": 60, "velocity": 82, "note_on_time": 12.896, "note_off_time": 13.407}, {"pitch": 62, "velocity": 90, "note_on_time": 13.664, "note_off_time": 13.826}, {"pitch": 62, "velocity": 84, "note_on_time": 15.19, "note_off_time": 15.362}, {"pitch": 62, "velocity": 93, "note_on_time": 15.64, "note_off_time": 15.776}, {"pitch": 62, "velocity": 89, "note_on_time": 16.082, "note_off_time": 16.231}]</notes><guidance name="Guidance Mode">None</guidance><error name="Error value">0.08893015999999995</error></trial></trials></MIDI>