<MIDI midiNo="2022_12_22-13_41_26"><target_notes><notes name="Note List">[{"pitch": 42, "velocity": 80, "note_on_time": 0.004, "note_off_time": 0.288}, {"pitch": 42, "velocity": 80, "note_on_time": 0.288, "note_off_time": 0.583}, {"pitch": 42, "velocity": 80, "note_on_time": 0.583, "note_off_time": 0.877}, {"pitch": 42, "velocity": 80, "note_on_time": 0.878, "note_off_time": 1.159}, {"pitch": 60, "velocity": 80, "note_on_time": 1.159, "note_off_time": 1.455}, {"pitch": 42, "velocity": 80, "note_on_time": 1.16, "note_off_time": 1.455}, {"pitch": 42, "velocity": 80, "note_on_time": 1.455, "note_off_time": 1.736}, {"pitch": 62, "velocity": 80, "note_on_time": 1.455, "note_off_time": 2.018}, {"pitch": 42, "velocity": 80, "note_on_time": 1.736, "note_off_time": 2.018}, {"pitch": 64, "velocity": 80, "note_on_time": 2.018, "note_off_time": 2.313}, {"pitch": 42, "velocity": 80, "note_on_time": 2.018, "note_off_time": 2.313}, {"pitch": 60, "velocity": 80, "note_on_time": 2.313, "note_off_time": 2.596}, {"pitch": 42, "velocity": 80, "note_on_time": 2.313, "note_off_time": 2.596}, {"pitch": 60, "velocity": 80, "note_on_time": 2.596, "note_off_time": 2.892}, {"pitch": 42, "velocity": 80, "note_on_time": 2.597, "note_off_time": 2.892}, {"pitch": 64, "velocity": 80, "note_on_time": 2.892, "note_off_time": 3.175}, {"pitch": 42, "velocity": 80, "note_on_time": 2.893, "note_off_time": 3.176}, {"pitch": 64, "velocity": 80, "note_on_time": 3.175, "note_off_time": 3.47}, {"pitch": 42, "velocity": 80, "note_on_time": 3.176, "note_off_time": 3.471}, {"pitch": 64, "velocity": 80, "note_on_time": 3.47, "note_off_time": 3.752}, {"pitch": 42, "velocity": 80, "note_on_time": 3.471, "note_off_time": 3.752}, {"pitch": 64, "velocity": 80, "note_on_time": 3.752, "note_off_time": 4.048}, {"pitch": 42, "velocity": 80, "note_on_time": 3.752, "note_off_time": 4.048}, {"pitch": 64, "velocity": 80, "note_on_time": 4.048, "note_off_time": 4.329}, {"pitch": 42, "velocity": 80, "note_on_time": 4.049, "note_off_time": 4.329}, {"pitch": 60, "velocity": 80, "note_on_time": 4.329, "note_off_time": 4.611}, {"pitch": 42, "velocity": 80, "note_on_time": 4.33, "note_off_time": 4.612}, {"pitch": 42, "velocity": 80, "note_on_time": 4.612, "note_off_time": 4.907}, {"pitch": 64, "velocity": 80, "note_on_time": 4.611, "note_off_time": 5.19}, {"pitch": 42, "velocity": 80, "note_on_time": 4.907, "note_off_time": 5.19}, {"pitch": 64, "velocity": 80, "note_on_time": 5.19, "note_off_time": 5.484}, {"pitch": 42, "velocity": 80, "note_on_time": 5.19, "note_off_time": 5.484}, {"pitch": 60, "velocity": 80, "note_on_time": 5.484, "note_off_time": 5.765}, {"pitch": 42, "velocity": 80, "note_on_time": 5.485, "note_off_time": 5.765}, {"pitch": 42, "velocity": 80, "note_on_time": 5.765, "note_off_time": 6.059}, {"pitch": 62, "velocity": 80, "note_on_time": 5.765, "note_off_time": 6.34}, {"pitch": 42, "velocity": 80, "note_on_time": 6.059, "note_off_time": 6.34}, {"pitch": 42, "velocity": 80, "note_on_time": 6.34, "note_off_time": 6.621}, {"pitch": 42, "velocity": 80, "note_on_time": 6.621, "note_off_time": 6.916}, {"pitch": 60, "velocity": 80, "note_on_time": 6.916, "note_off_time": 7.212}, {"pitch": 42, "velocity": 80, "note_on_time": 6.917, "note_off_time": 7.213}, {"pitch": 62, "velocity": 80, "note_on_time": 7.212, "note_off_time": 7.495}, {"pitch": 42, "velocity": 80, "note_on_time": 7.213, "note_off_time": 7.496}, {"pitch": 60, "velocity": 80, "note_on_time": 7.495, "note_off_time": 7.79}, {"pitch": 42, "velocity": 80, "note_on_time": 7.496, "note_off_time": 7.791}, {"pitch": 62, "velocity": 80, "note_on_time": 7.79, "note_off_time": 8.084}, {"pitch": 42, "velocity": 80, "note_on_time": 7.791, "note_off_time": 8.084}, {"pitch": 62, "velocity": 80, "note_on_time": 8.084, "note_off_time": 8.379}, {"pitch": 42, "velocity": 80, "note_on_time": 8.085, "note_off_time": 8.379}, {"pitch": 60, "velocity": 80, "note_on_time": 8.379, "note_off_time": 8.674}, {"pitch": 42, "velocity": 80, "note_on_time": 8.38, "note_off_time": 8.674}, {"pitch": 42, "velocity": 80, "note_on_time": 8.675, "note_off_time": 8.97}, {"pitch": 62, "velocity": 80, "note_on_time": 8.674, "note_off_time": 9.265}, {"pitch": 42, "velocity": 80, "note_on_time": 8.971, "note_off_time": 9.265}, {"pitch": 42, "velocity": 80, "note_on_time": 9.265, "note_off_time": 9.546}, {"pitch": 62, "velocity": 80, "note_on_time": 9.546, "note_off_time": 9.828}, {"pitch": 42, "velocity": 80, "note_on_time": 9.547, "note_off_time": 9.828}, {"pitch": 62, "velocity": 80, "note_on_time": 9.828, "note_off_time": 10.125}, {"pitch": 42, "velocity": 80, "note_on_time": 9.828, "note_off_time": 10.125}, {"pitch": 62, "velocity": 80, "note_on_time": 10.125, "note_off_time": 10.419}, {"pitch": 42, "velocity": 80, "note_on_time": 10.125, "note_off_time": 10.419}]</notes><options name="Option List">((4, 4), [0.5, 0.25], 3, 8, &lt;NoteRangePerHand.THREE_NOTES: 4&gt;, &lt;NoteRangePerHand.ONE_NOTE: 2&gt;, False, True, False, 215)</options></target_notes><trials><trial trial_no="1" timestamp="2022_12_22-13_41_14"><notes name="Played Notes">[{"pitch": 60, "velocity": 87, "note_on_time": 1.211, "note_off_time": 1.405}, {"pitch": 62, "velocity": 99, "note_on_time": 1.53, "note_off_time": 2.132}, {"pitch": 64, "velocity": 95, "note_on_time": 2.275, "note_off_time": 2.44}, {"pitch": 60, "velocity": 87, "note_on_time": 2.531, "note_off_time": 2.647}, {"pitch": 60, "velocity": 96, "note_on_time": 2.796, "note_off_time": 2.908}, {"pitch": 64, "velocity": 85, "note_on_time": 3.049, "note_off_time": 3.176}, {"pitch": 64, "velocity": 88, "note_on_time": 3.309, "note_off_time": 3.424}, {"pitch": 64, "velocity": 100, "note_on_time": 3.567, "note_off_time": 3.677}, {"pitch": 64, "velocity": 95, "note_on_time": 3.832, "note_off_time": 3.936}, {"pitch": 64, "velocity": 98, "note_on_time": 4.099, "note_off_time": 4.244}, {"pitch": 60, "velocity": 92, "note_on_time": 4.36, "note_off_time": 4.469}, {"pitch": 64, "velocity": 99, "note_on_time": 4.631, "note_off_time": 4.989}, {"pitch": 64, "velocity": 104, "note_on_time": 5.148, "note_off_time": 5.346}, {"pitch": 60, "velocity": 85, "note_on_time": 5.43, "note_off_time": 5.562}, {"pitch": 62, "velocity": 101, "note_on_time": 5.728, "note_off_time": 6.134}, {"pitch": 60, "velocity": 100, "note_on_time": 6.283, "note_off_time": 6.398}, {"pitch": 62, "velocity": 97, "note_on_time": 6.556, "note_off_time": 6.691}, {"pitch": 60, "velocity": 95, "note_on_time": 6.806, "note_off_time": 6.939}, {"pitch": 62, "velocity": 91, "note_on_time": 7.083, "note_off_time": 7.196}, {"pitch": 62, "velocity": 94, "note_on_time": 7.355, "note_off_time": 7.505}, {"pitch": 60, "velocity": 90, "note_on_time": 7.63, "note_off_time": 7.753}, {"pitch": 62, "velocity": 91, "note_on_time": 7.899, "note_off_time": 8.219}, {"pitch": 64, "velocity": 48, "note_on_time": 8.545, "note_off_time": 8.569}, {"pitch": 64, "velocity": 57, "note_on_time": 8.592, "note_off_time": 8.642}, {"pitch": 62, "velocity": 56, "note_on_time": 8.594, "note_off_time": 8.795}, {"pitch": 62, "velocity": 101, "note_on_time": 8.893, "note_off_time": 9.026}, {"pitch": 60, "velocity": 102, "note_on_time": 9.218, "note_off_time": 9.388}, {"pitch": 62, "velocity": 81, "note_on_time": 9.212, "note_off_time": 9.525}]</notes><guidance name="Guidance Mode">None</guidance><error name="Error value">0.5425015909090907</error></trial></trials></MIDI>