<MIDI midiNo="2022_12_15-12_24_53"><target_notes><notes name="Note List">[{"pitch": 42, "velocity": 80, "note_on_time": 0.004, "note_off_time": 0.904}, {"pitch": 42, "velocity": 80, "note_on_time": 0.904, "note_off_time": 1.812}, {"pitch": 42, "velocity": 80, "note_on_time": 1.812, "note_off_time": 2.718}, {"pitch": 42, "velocity": 80, "note_on_time": 2.719, "note_off_time": 3.622}, {"pitch": 60, "velocity": 80, "note_on_time": 3.622, "note_off_time": 4.527}, {"pitch": 42, "velocity": 80, "note_on_time": 3.622, "note_off_time": 4.527}, {"pitch": 42, "velocity": 80, "note_on_time": 4.528, "note_off_time": 5.434}, {"pitch": 64, "velocity": 80, "note_on_time": 4.527, "note_off_time": 6.338}, {"pitch": 42, "velocity": 80, "note_on_time": 5.435, "note_off_time": 6.339}, {"pitch": 42, "velocity": 80, "note_on_time": 6.339, "note_off_time": 7.244}, {"pitch": 62, "velocity": 80, "note_on_time": 7.244, "note_off_time": 8.15}, {"pitch": 42, "velocity": 80, "note_on_time": 7.245, "note_off_time": 8.15}, {"pitch": 62, "velocity": 80, "note_on_time": 8.15, "note_off_time": 9.054}, {"pitch": 42, "velocity": 80, "note_on_time": 8.151, "note_off_time": 9.055}, {"pitch": 42, "velocity": 80, "note_on_time": 9.055, "note_off_time": 9.962}, {"pitch": 60, "velocity": 80, "note_on_time": 9.054, "note_off_time": 10.866}, {"pitch": 42, "velocity": 80, "note_on_time": 9.962, "note_off_time": 10.866}, {"pitch": 42, "velocity": 80, "note_on_time": 10.867, "note_off_time": 11.774}, {"pitch": 64, "velocity": 80, "note_on_time": 10.866, "note_off_time": 12.678}, {"pitch": 42, "velocity": 80, "note_on_time": 11.774, "note_off_time": 12.678}, {"pitch": 42, "velocity": 80, "note_on_time": 12.678, "note_off_time": 13.581}, {"pitch": 42, "velocity": 80, "note_on_time": 13.581, "note_off_time": 14.487}, {"pitch": 60, "velocity": 80, "note_on_time": 14.486, "note_off_time": 15.391}, {"pitch": 42, "velocity": 80, "note_on_time": 14.487, "note_off_time": 15.391}, {"pitch": 42, "velocity": 80, "note_on_time": 15.392, "note_off_time": 16.296}, {"pitch": 62, "velocity": 80, "note_on_time": 15.391, "note_off_time": 17.201}, {"pitch": 42, "velocity": 80, "note_on_time": 16.296, "note_off_time": 17.202}, {"pitch": 42, "velocity": 80, "note_on_time": 17.202, "note_off_time": 18.104}, {"pitch": 62, "velocity": 80, "note_on_time": 18.104, "note_off_time": 19.011}, {"pitch": 42, "velocity": 80, "note_on_time": 18.105, "note_off_time": 19.011}, {"pitch": 62, "velocity": 80, "note_on_time": 19.011, "note_off_time": 19.916}, {"pitch": 42, "velocity": 80, "note_on_time": 19.012, "note_off_time": 19.916}, {"pitch": 64, "velocity": 80, "note_on_time": 19.916, "note_off_time": 20.819}, {"pitch": 42, "velocity": 80, "note_on_time": 19.917, "note_off_time": 20.819}, {"pitch": 62, "velocity": 80, "note_on_time": 20.819, "note_off_time": 21.724}, {"pitch": 42, "velocity": 80, "note_on_time": 20.819, "note_off_time": 21.725}, {"pitch": 64, "velocity": 80, "note_on_time": 21.724, "note_off_time": 22.632}, {"pitch": 42, "velocity": 80, "note_on_time": 21.725, "note_off_time": 22.633}, {"pitch": 60, "velocity": 80, "note_on_time": 22.632, "note_off_time": 23.536}, {"pitch": 42, "velocity": 80, "note_on_time": 22.633, "note_off_time": 23.536}, {"pitch": 62, "velocity": 80, "note_on_time": 23.536, "note_off_time": 24.44}, {"pitch": 42, "velocity": 80, "note_on_time": 23.536, "note_off_time": 24.441}, {"pitch": 62, "velocity": 80, "note_on_time": 24.44, "note_off_time": 25.344}, {"pitch": 42, "velocity": 80, "note_on_time": 24.441, "note_off_time": 25.345}, {"pitch": 64, "velocity": 80, "note_on_time": 25.344, "note_off_time": 26.25}, {"pitch": 42, "velocity": 80, "note_on_time": 25.345, "note_off_time": 26.25}, {"pitch": 64, "velocity": 80, "note_on_time": 26.25, "note_off_time": 27.156}, {"pitch": 42, "velocity": 80, "note_on_time": 26.251, "note_off_time": 27.157}, {"pitch": 42, "velocity": 80, "note_on_time": 27.157, "note_off_time": 28.063}, {"pitch": 42, "velocity": 80, "note_on_time": 28.063, "note_off_time": 28.968}, {"pitch": 42, "velocity": 80, "note_on_time": 28.969, "note_off_time": 29.872}, {"pitch": 64, "velocity": 80, "note_on_time": 29.872, "note_off_time": 30.776}, {"pitch": 42, "velocity": 80, "note_on_time": 29.872, "note_off_time": 30.776}, {"pitch": 64, "velocity": 80, "note_on_time": 30.776, "note_off_time": 31.681}, {"pitch": 42, "velocity": 80, "note_on_time": 30.776, "note_off_time": 31.681}, {"pitch": 64, "velocity": 80, "note_on_time": 31.681, "note_off_time": 32.584}, {"pitch": 42, "velocity": 80, "note_on_time": 31.682, "note_off_time": 32.585}]</notes><options name="Option List">((4, 4), [0.5, 0.25], 3, 8, &lt;NoteRangePerHand.THREE_NOTES: 4&gt;, &lt;NoteRangePerHand.ONE_NOTE: 2&gt;, False, True, False, '67')</options></target_notes><trials><trial trial_no="1" timestamp="2022_12_15-12_24_19"><notes name="Played Notes">[{"pitch": 72, "velocity": 63, "note_on_time": 3.655, "note_off_time": 4.185}, {"pitch": 76, "velocity": 56, "note_on_time": 4.522, "note_off_time": 6.187}, {"pitch": 74, "velocity": 73, "note_on_time": 7.275, "note_off_time": 7.496}, {"pitch": 74, "velocity": 75, "note_on_time": 8.078, "note_off_time": 8.27}, {"pitch": 72, "velocity": 72, "note_on_time": 8.917, "note_off_time": 9.869}, {"pitch": 76, "velocity": 62, "note_on_time": 10.778, "note_off_time": 12.091}, {"pitch": 72, "velocity": 51, "note_on_time": 14.446, "note_off_time": 14.726}, {"pitch": 74, "velocity": 58, "note_on_time": 15.323, "note_off_time": 16.232}, {"pitch": 74, "velocity": 45, "note_on_time": 18.104, "note_off_time": 18.312}, {"pitch": 74, "velocity": 62, "note_on_time": 18.934, "note_off_time": 19.071}, {"pitch": 76, "velocity": 49, "note_on_time": 19.88, "note_off_time": 20.065}, {"pitch": 74, "velocity": 40, "note_on_time": 20.754, "note_off_time": 20.926}, {"pitch": 76, "velocity": 45, "note_on_time": 21.619, "note_off_time": 21.754}, {"pitch": 72, "velocity": 61, "note_on_time": 22.547, "note_off_time": 22.604}, {"pitch": 74, "velocity": 62, "note_on_time": 23.518, "note_off_time": 23.632}, {"pitch": 74, "velocity": 51, "note_on_time": 24.453, "note_off_time": 24.571}, {"pitch": 76, "velocity": 40, "note_on_time": 25.279, "note_off_time": 25.441}, {"pitch": 76, "velocity": 55, "note_on_time": 26.184, "note_off_time": 26.287}, {"pitch": 76, "velocity": 51, "note_on_time": 29.822, "note_off_time": 30.016}, {"pitch": 76, "velocity": 35, "note_on_time": 30.68, "note_off_time": 30.859}, {"pitch": 76, "velocity": 44, "note_on_time": 31.537, "note_off_time": 31.8}]</notes><guidance name="Guidance Mode">None</guidance><error name="Error value">1.2244032222222219</error></trial><trial trial_no="2" timestamp="2022_12_15-12_25_14"><notes name="Played Notes">[{"pitch": 72, "velocity": 45, "note_on_time": 3.672, "note_off_time": 3.844}, {"pitch": 76, "velocity": 61, "note_on_time": 4.51, "note_off_time": 5.442}, {"pitch": 74, "velocity": 48, "note_on_time": 6.401, "note_off_time": 6.544}, {"pitch": 74, "velocity": 41, "note_on_time": 8.144, "note_off_time": 8.337}, {"pitch": 72, "velocity": 56, "note_on_time": 8.99, "note_off_time": 9.18}, {"pitch": 74, "velocity": 45, "note_on_time": 9.851, "note_off_time": 10.167}, {"pitch": 76, "velocity": 48, "note_on_time": 10.993, "note_off_time": 12.4}, {"pitch": 72, "velocity": 30, "note_on_time": 14.399, "note_off_time": 14.564}, {"pitch": 74, "velocity": 53, "note_on_time": 15.272, "note_off_time": 16.222}, {"pitch": 74, "velocity": 53, "note_on_time": 17.969, "note_off_time": 18.122}, {"pitch": 74, "velocity": 62, "note_on_time": 18.912, "note_off_time": 19.033}, {"pitch": 76, "velocity": 52, "note_on_time": 19.848, "note_off_time": 19.97}, {"pitch": 74, "velocity": 35, "note_on_time": 20.725, "note_off_time": 20.862}, {"pitch": 76, "velocity": 46, "note_on_time": 21.689, "note_off_time": 21.837}, {"pitch": 72, "velocity": 51, "note_on_time": 22.617, "note_off_time": 22.696}, {"pitch": 74, "velocity": 53, "note_on_time": 23.508, "note_off_time": 23.653}, {"pitch": 74, "velocity": 44, "note_on_time": 24.375, "note_off_time": 24.501}, {"pitch": 76, "velocity": 58, "note_on_time": 25.266, "note_off_time": 25.442}, {"pitch": 76, "velocity": 54, "note_on_time": 26.157, "note_off_time": 26.313}, {"pitch": 76, "velocity": 47, "note_on_time": 29.846, "note_off_time": 30.009}, {"pitch": 76, "velocity": 48, "note_on_time": 30.679, "note_off_time": 30.843}, {"pitch": 76, "velocity": 46, "note_on_time": 31.629, "note_off_time": 31.796}]</notes><guidance name="Guidance Mode">None</guidance><error name="Error value">1.4996956666666665</error></trial><trial trial_no="3" timestamp="2022_12_15-12_26_01"><notes name="Played Notes">[{"pitch": 72, "velocity": 62, "note_on_time": 3.611, "note_off_time": 3.775}, {"pitch": 76, "velocity": 65, "note_on_time": 4.559, "note_off_time": 6.182}, {"pitch": 74, "velocity": 46, "note_on_time": 7.195, "note_off_time": 7.454}, {"pitch": 74, "velocity": 52, "note_on_time": 8.095, "note_off_time": 8.301}, {"pitch": 72, "velocity": 51, "note_on_time": 8.983, "note_off_time": 9.963}, {"pitch": 76, "velocity": 61, "note_on_time": 10.788, "note_off_time": 11.751}, {"pitch": 72, "velocity": 49, "note_on_time": 14.42, "note_off_time": 14.549}, {"pitch": 74, "velocity": 53, "note_on_time": 15.262, "note_off_time": 16.221}, {"pitch": 74, "velocity": 54, "note_on_time": 18.153, "note_off_time": 18.363}, {"pitch": 74, "velocity": 66, "note_on_time": 18.95, "note_off_time": 19.13}, {"pitch": 76, "velocity": 61, "note_on_time": 19.877, "note_off_time": 20.046}, {"pitch": 74, "velocity": 50, "note_on_time": 20.745, "note_off_time": 20.944}, {"pitch": 76, "velocity": 56, "note_on_time": 21.666, "note_off_time": 21.874}, {"pitch": 72, "velocity": 39, "note_on_time": 22.54, "note_off_time": 22.761}, {"pitch": 74, "velocity": 49, "note_on_time": 23.514, "note_off_time": 23.689}, {"pitch": 74, "velocity": 55, "note_on_time": 24.432, "note_off_time": 24.61}, {"pitch": 76, "velocity": 41, "note_on_time": 25.317, "note_off_time": 25.466}, {"pitch": 76, "velocity": 50, "note_on_time": 26.227, "note_off_time": 26.597}, {"pitch": 76, "velocity": 40, "note_on_time": 29.846, "note_off_time": 30.014}, {"pitch": 76, "velocity": 59, "note_on_time": 30.657, "note_off_time": 30.835}]</notes><guidance name="Guidance Mode">None</guidance><error name="Error value">1.2637438888888888</error></trial></trials></MIDI>