<MIDI midiNo="2022_12_22-12_25_30"><target_notes><notes name="Note List">[{"pitch": 42, "velocity": 80, "note_on_time": 0.003, "note_off_time": 0.362}, {"pitch": 42, "velocity": 80, "note_on_time": 0.362, "note_off_time": 0.719}, {"pitch": 42, "velocity": 80, "note_on_time": 0.72, "note_off_time": 1.079}, {"pitch": 42, "velocity": 80, "note_on_time": 1.079, "note_off_time": 1.437}, {"pitch": 67, "velocity": 80, "note_on_time": 1.436, "note_off_time": 1.794}, {"pitch": 42, "velocity": 80, "note_on_time": 1.437, "note_off_time": 1.794}, {"pitch": 67, "velocity": 80, "note_on_time": 1.794, "note_off_time": 2.151}, {"pitch": 42, "velocity": 80, "note_on_time": 1.794, "note_off_time": 2.151}, {"pitch": 42, "velocity": 80, "note_on_time": 2.151, "note_off_time": 2.507}, {"pitch": 67, "velocity": 80, "note_on_time": 2.151, "note_off_time": 2.863}, {"pitch": 42, "velocity": 80, "note_on_time": 2.507, "note_off_time": 2.863}, {"pitch": 65, "velocity": 80, "note_on_time": 2.863, "note_off_time": 3.222}, {"pitch": 42, "velocity": 80, "note_on_time": 2.863, "note_off_time": 3.222}, {"pitch": 67, "velocity": 80, "note_on_time": 3.222, "note_off_time": 3.577}, {"pitch": 42, "velocity": 80, "note_on_time": 3.222, "note_off_time": 3.578}, {"pitch": 60, "velocity": 80, "note_on_time": 3.577, "note_off_time": 3.934}, {"pitch": 42, "velocity": 80, "note_on_time": 3.578, "note_off_time": 3.935}, {"pitch": 62, "velocity": 80, "note_on_time": 3.934, "note_off_time": 4.295}, {"pitch": 42, "velocity": 80, "note_on_time": 3.935, "note_off_time": 4.295}, {"pitch": 65, "velocity": 80, "note_on_time": 4.295, "note_off_time": 4.653}, {"pitch": 42, "velocity": 80, "note_on_time": 4.295, "note_off_time": 4.653}, {"pitch": 65, "velocity": 80, "note_on_time": 4.653, "note_off_time": 5.011}, {"pitch": 42, "velocity": 80, "note_on_time": 4.653, "note_off_time": 5.011}, {"pitch": 67, "velocity": 80, "note_on_time": 5.011, "note_off_time": 5.368}, {"pitch": 42, "velocity": 80, "note_on_time": 5.012, "note_off_time": 5.369}, {"pitch": 65, "velocity": 80, "note_on_time": 5.368, "note_off_time": 5.728}, {"pitch": 42, "velocity": 80, "note_on_time": 5.369, "note_off_time": 5.728}, {"pitch": 62, "velocity": 80, "note_on_time": 5.728, "note_off_time": 6.085}, {"pitch": 42, "velocity": 80, "note_on_time": 5.728, "note_off_time": 6.086}, {"pitch": 42, "velocity": 80, "note_on_time": 6.086, "note_off_time": 6.444}, {"pitch": 65, "velocity": 80, "note_on_time": 6.085, "note_off_time": 6.802}, {"pitch": 42, "velocity": 80, "note_on_time": 6.444, "note_off_time": 6.802}, {"pitch": 42, "velocity": 80, "note_on_time": 6.803, "note_off_time": 7.162}, {"pitch": 42, "velocity": 80, "note_on_time": 7.163, "note_off_time": 7.52}, {"pitch": 65, "velocity": 80, "note_on_time": 7.162, "note_off_time": 7.877}, {"pitch": 42, "velocity": 80, "note_on_time": 7.52, "note_off_time": 7.877}, {"pitch": 67, "velocity": 80, "note_on_time": 7.877, "note_off_time": 8.236}, {"pitch": 42, "velocity": 80, "note_on_time": 7.878, "note_off_time": 8.236}, {"pitch": 60, "velocity": 80, "note_on_time": 8.236, "note_off_time": 8.593}, {"pitch": 42, "velocity": 80, "note_on_time": 8.236, "note_off_time": 8.593}, {"pitch": 62, "velocity": 80, "note_on_time": 8.593, "note_off_time": 8.95}, {"pitch": 42, "velocity": 80, "note_on_time": 8.594, "note_off_time": 8.95}, {"pitch": 42, "velocity": 80, "note_on_time": 8.95, "note_off_time": 9.307}, {"pitch": 42, "velocity": 80, "note_on_time": 9.308, "note_off_time": 9.664}, {"pitch": 42, "velocity": 80, "note_on_time": 9.665, "note_off_time": 10.022}, {"pitch": 42, "velocity": 80, "note_on_time": 10.022, "note_off_time": 10.376}, {"pitch": 62, "velocity": 80, "note_on_time": 10.021, "note_off_time": 10.735}, {"pitch": 42, "velocity": 80, "note_on_time": 10.376, "note_off_time": 10.736}, {"pitch": 42, "velocity": 80, "note_on_time": 10.736, "note_off_time": 11.094}, {"pitch": 42, "velocity": 80, "note_on_time": 11.094, "note_off_time": 11.451}, {"pitch": 42, "velocity": 80, "note_on_time": 11.452, "note_off_time": 11.809}, {"pitch": 62, "velocity": 80, "note_on_time": 11.809, "note_off_time": 12.167}, {"pitch": 42, "velocity": 80, "note_on_time": 11.81, "note_off_time": 12.168}, {"pitch": 62, "velocity": 80, "note_on_time": 12.167, "note_off_time": 12.514}, {"pitch": 42, "velocity": 80, "note_on_time": 12.168, "note_off_time": 12.515}, {"pitch": 62, "velocity": 80, "note_on_time": 12.514, "note_off_time": 12.871}, {"pitch": 42, "velocity": 80, "note_on_time": 12.515, "note_off_time": 12.871}]</notes><options name="Option List">((4, 4), [0.5, 0.25], 3, 8, &lt;NoteRangePerHand.C_TO_G: 6&gt;, &lt;NoteRangePerHand.ONE_NOTE: 2&gt;, False, True, False, '174')</options></target_notes><trials><trial trial_no="1" timestamp="2022_12_22-12_25_16"><notes name="Played Notes">[{"pitch": 67, "velocity": 55, "note_on_time": 1.442, "note_off_time": 1.633}, {"pitch": 67, "velocity": 68, "note_on_time": 1.793, "note_off_time": 1.925}, {"pitch": 67, "velocity": 77, "note_on_time": 2.154, "note_off_time": 2.71}, {"pitch": 65, "velocity": 72, "note_on_time": 2.867, "note_off_time": 3.224}, {"pitch": 67, "velocity": 72, "note_on_time": 3.212, "note_off_time": 3.551}, {"pitch": 60, "velocity": 67, "note_on_time": 3.577, "note_off_time": 3.921}, {"pitch": 62, "velocity": 68, "note_on_time": 3.919, "note_off_time": 4.283}, {"pitch": 65, "velocity": 64, "note_on_time": 4.28, "note_off_time": 4.434}, {"pitch": 65, "velocity": 76, "note_on_time": 4.649, "note_off_time": 4.991}, {"pitch": 67, "velocity": 71, "note_on_time": 5.013, "note_off_time": 5.382}, {"pitch": 65, "velocity": 82, "note_on_time": 5.351, "note_off_time": 5.736}, {"pitch": 62, "velocity": 71, "note_on_time": 5.75, "note_off_time": 6.053}, {"pitch": 65, "velocity": 85, "note_on_time": 6.077, "note_off_time": 6.689}, {"pitch": 65, "velocity": 78, "note_on_time": 7.196, "note_off_time": 7.739}, {"pitch": 67, "velocity": 75, "note_on_time": 7.869, "note_off_time": 8.224}, {"pitch": 60, "velocity": 72, "note_on_time": 8.231, "note_off_time": 8.573}, {"pitch": 62, "velocity": 71, "note_on_time": 8.583, "note_off_time": 8.877}, {"pitch": 62, "velocity": 80, "note_on_time": 10.0, "note_off_time": 10.871}, {"pitch": 62, "velocity": 69, "note_on_time": 11.773, "note_off_time": 11.91}, {"pitch": 62, "velocity": 72, "note_on_time": 12.106, "note_off_time": 12.243}, {"pitch": 62, "velocity": 77, "note_on_time": 12.471, "note_off_time": 12.613}]</notes><guidance name="Guidance Mode">None</guidance><error name="Error value">0.02507149999999995</error></trial><trial trial_no="2" timestamp="2022_12_22-12_25_43"><notes name="Played Notes">[{"pitch": 67, "velocity": 71, "note_on_time": 1.376, "note_off_time": 1.503}, {"pitch": 67, "velocity": 75, "note_on_time": 1.763, "note_off_time": 1.899}, {"pitch": 67, "velocity": 61, "note_on_time": 2.12, "note_off_time": 2.696}, {"pitch": 65, "velocity": 79, "note_on_time": 2.861, "note_off_time": 3.191}, {"pitch": 67, "velocity": 61, "note_on_time": 3.187, "note_off_time": 3.531}, {"pitch": 60, "velocity": 78, "note_on_time": 3.548, "note_off_time": 3.888}, {"pitch": 62, "velocity": 66, "note_on_time": 3.901, "note_off_time": 4.276}, {"pitch": 65, "velocity": 82, "note_on_time": 4.277, "note_off_time": 4.391}, {"pitch": 65, "velocity": 82, "note_on_time": 4.62, "note_off_time": 4.983}, {"pitch": 67, "velocity": 73, "note_on_time": 4.983, "note_off_time": 5.361}, {"pitch": 65, "velocity": 72, "note_on_time": 5.329, "note_off_time": 5.704}, {"pitch": 62, "velocity": 66, "note_on_time": 5.715, "note_off_time": 6.053}, {"pitch": 65, "velocity": 74, "note_on_time": 6.051, "note_off_time": 6.691}, {"pitch": 65, "velocity": 81, "note_on_time": 7.174, "note_off_time": 7.715}, {"pitch": 67, "velocity": 77, "note_on_time": 7.848, "note_off_time": 8.175}, {"pitch": 60, "velocity": 74, "note_on_time": 8.201, "note_off_time": 8.569}, {"pitch": 62, "velocity": 70, "note_on_time": 8.572, "note_off_time": 9.008}, {"pitch": 62, "velocity": 77, "note_on_time": 9.265, "note_off_time": 10.197}, {"pitch": 62, "velocity": 71, "note_on_time": 11.729, "note_off_time": 11.877}, {"pitch": 62, "velocity": 64, "note_on_time": 12.081, "note_off_time": 12.215}, {"pitch": 62, "velocity": 69, "note_on_time": 12.429, "note_off_time": 12.603}]</notes><guidance name="Guidance Mode">None</guidance><error name="Error value">0.10145827777777765</error></trial><trial trial_no="3" timestamp="2022_12_22-12_26_05"><notes name="Played Notes">[{"pitch": 67, "velocity": 69, "note_on_time": 1.426, "note_off_time": 1.573}, {"pitch": 67, "velocity": 73, "note_on_time": 1.784, "note_off_time": 1.913}, {"pitch": 67, "velocity": 72, "note_on_time": 2.128, "note_off_time": 2.716}, {"pitch": 65, "velocity": 71, "note_on_time": 2.869, "note_off_time": 3.203}, {"pitch": 67, "velocity": 74, "note_on_time": 3.203, "note_off_time": 3.55}, {"pitch": 60, "velocity": 74, "note_on_time": 3.57, "note_off_time": 3.891}, {"pitch": 62, "velocity": 62, "note_on_time": 3.912, "note_off_time": 4.322}, {"pitch": 65, "velocity": 70, "note_on_time": 4.319, "note_off_time": 4.436}, {"pitch": 65, "velocity": 72, "note_on_time": 4.66, "note_off_time": 5.022}, {"pitch": 67, "velocity": 79, "note_on_time": 5.022, "note_off_time": 5.372}, {"pitch": 65, "velocity": 72, "note_on_time": 5.354, "note_off_time": 5.72}, {"pitch": 62, "velocity": 66, "note_on_time": 5.734, "note_off_time": 6.102}, {"pitch": 65, "velocity": 66, "note_on_time": 6.115, "note_off_time": 6.697}, {"pitch": 65, "velocity": 78, "note_on_time": 7.183, "note_off_time": 7.847}, {"pitch": 67, "velocity": 67, "note_on_time": 7.855, "note_off_time": 8.233}, {"pitch": 60, "velocity": 67, "note_on_time": 8.251, "note_off_time": 8.588}, {"pitch": 62, "velocity": 65, "note_on_time": 8.609, "note_off_time": 8.874}, {"pitch": 62, "velocity": 77, "note_on_time": 10.022, "note_off_time": 10.563}, {"pitch": 62, "velocity": 75, "note_on_time": 11.763, "note_off_time": 11.929}, {"pitch": 62, "velocity": 69, "note_on_time": 12.14, "note_off_time": 12.291}, {"pitch": 62, "velocity": 76, "note_on_time": 12.493, "note_off_time": 12.669}]</notes><guidance name="Guidance Mode">None</guidance><error name="Error value">0.026385611111111016</error></trial><trial trial_no="4" timestamp="2022_12_22-12_27_15"><notes name="Played Notes">[{"pitch": 67, "velocity": 64, "note_on_time": 1.421, "note_off_time": 1.545}, {"pitch": 67, "velocity": 76, "note_on_time": 1.764, "note_off_time": 1.901}, {"pitch": 67, "velocity": 81, "note_on_time": 2.109, "note_off_time": 2.665}, {"pitch": 65, "velocity": 85, "note_on_time": 2.855, "note_off_time": 3.18}, {"pitch": 67, "velocity": 68, "note_on_time": 3.174, "note_off_time": 3.535}, {"pitch": 60, "velocity": 78, "note_on_time": 3.55, "note_off_time": 3.906}, {"pitch": 62, "velocity": 66, "note_on_time": 3.905, "note_off_time": 4.249}, {"pitch": 65, "velocity": 82, "note_on_time": 4.26, "note_off_time": 4.371}, {"pitch": 65, "velocity": 75, "note_on_time": 4.622, "note_off_time": 4.964}, {"pitch": 67, "velocity": 71, "note_on_time": 4.972, "note_off_time": 5.33}, {"pitch": 65, "velocity": 75, "note_on_time": 5.33, "note_off_time": 5.654}, {"pitch": 62, "velocity": 62, "note_on_time": 5.684, "note_off_time": 5.933}, {"pitch": 65, "velocity": 85, "note_on_time": 6.056, "note_off_time": 6.58}, {"pitch": 65, "velocity": 80, "note_on_time": 7.187, "note_off_time": 7.826}, {"pitch": 67, "velocity": 75, "note_on_time": 7.845, "note_off_time": 8.171}, {"pitch": 60, "velocity": 74, "note_on_time": 8.198, "note_off_time": 8.546}, {"pitch": 62, "velocity": 68, "note_on_time": 8.539, "note_off_time": 8.834}, {"pitch": 62, "velocity": 78, "note_on_time": 9.974, "note_off_time": 10.655}, {"pitch": 62, "velocity": 68, "note_on_time": 11.813, "note_off_time": 11.948}, {"pitch": 62, "velocity": 74, "note_on_time": 12.132, "note_off_time": 12.274}, {"pitch": 62, "velocity": 76, "note_on_time": 12.476, "note_off_time": 12.704}]</notes><guidance name="Guidance Mode">None</guidance><error name="Error value">0.03027450000000014</error></trial></trials></MIDI>