<MIDI midiNo="2022_08_17-11_24_28"><target_notes><notes name="Note List">[{"pitch": 42, "velocity": 80, "note_on_time": 0.014, "note_off_time": 0.239}, {"pitch": 42, "velocity": 80, "note_on_time": 0.24, "note_off_time": 0.457}, {"pitch": 42, "velocity": 80, "note_on_time": 0.457, "note_off_time": 0.673}, {"pitch": 42, "velocity": 80, "note_on_time": 0.674, "note_off_time": 0.893}, {"pitch": 60, "velocity": 80, "note_on_time": 0.893, "note_off_time": 1.111}, {"pitch": 42, "velocity": 80, "note_on_time": 0.893, "note_off_time": 1.111}, {"pitch": 67, "velocity": 80, "note_on_time": 1.111, "note_off_time": 1.33}, {"pitch": 42, "velocity": 80, "note_on_time": 1.111, "note_off_time": 1.33}, {"pitch": 64, "velocity": 80, "note_on_time": 1.33, "note_off_time": 1.547}, {"pitch": 42, "velocity": 80, "note_on_time": 1.331, "note_off_time": 1.548}, {"pitch": 64, "velocity": 80, "note_on_time": 1.547, "note_off_time": 1.763}, {"pitch": 42, "velocity": 80, "note_on_time": 1.548, "note_off_time": 1.764}, {"pitch": 65, "velocity": 80, "note_on_time": 1.763, "note_off_time": 1.98}, {"pitch": 42, "velocity": 80, "note_on_time": 1.764, "note_off_time": 1.981}, {"pitch": 42, "velocity": 80, "note_on_time": 1.981, "note_off_time": 2.198}, {"pitch": 42, "velocity": 80, "note_on_time": 2.198, "note_off_time": 2.417}, {"pitch": 42, "velocity": 80, "note_on_time": 2.417, "note_off_time": 2.635}, {"pitch": 62, "velocity": 80, "note_on_time": 2.635, "note_off_time": 2.853}, {"pitch": 42, "velocity": 80, "note_on_time": 2.635, "note_off_time": 2.854}, {"pitch": 67, "velocity": 80, "note_on_time": 2.854, "note_off_time": 3.07}, {"pitch": 42, "velocity": 80, "note_on_time": 2.854, "note_off_time": 3.07}, {"pitch": 64, "velocity": 80, "note_on_time": 3.07, "note_off_time": 3.287}, {"pitch": 42, "velocity": 80, "note_on_time": 3.071, "note_off_time": 3.287}, {"pitch": 67, "velocity": 80, "note_on_time": 3.287, "note_off_time": 3.505}, {"pitch": 42, "velocity": 80, "note_on_time": 3.288, "note_off_time": 3.505}, {"pitch": 67, "velocity": 80, "note_on_time": 3.505, "note_off_time": 3.723}, {"pitch": 42, "velocity": 80, "note_on_time": 3.506, "note_off_time": 3.724}, {"pitch": 42, "velocity": 80, "note_on_time": 3.724, "note_off_time": 3.942}, {"pitch": 42, "velocity": 80, "note_on_time": 3.942, "note_off_time": 4.159}, {"pitch": 42, "velocity": 80, "note_on_time": 4.159, "note_off_time": 4.376}, {"pitch": 65, "velocity": 80, "note_on_time": 4.376, "note_off_time": 4.595}, {"pitch": 42, "velocity": 80, "note_on_time": 4.376, "note_off_time": 4.596}, {"pitch": 62, "velocity": 80, "note_on_time": 4.595, "note_off_time": 4.813}, {"pitch": 42, "velocity": 80, "note_on_time": 4.596, "note_off_time": 4.814}, {"pitch": 64, "velocity": 80, "note_on_time": 4.813, "note_off_time": 5.031}, {"pitch": 42, "velocity": 80, "note_on_time": 4.814, "note_off_time": 5.032}, {"pitch": 60, "velocity": 80, "note_on_time": 5.031, "note_off_time": 5.248}, {"pitch": 42, "velocity": 80, "note_on_time": 5.032, "note_off_time": 5.248}, {"pitch": 62, "velocity": 80, "note_on_time": 5.248, "note_off_time": 5.467}, {"pitch": 42, "velocity": 80, "note_on_time": 5.248, "note_off_time": 5.467}, {"pitch": 42, "velocity": 80, "note_on_time": 5.467, "note_off_time": 5.685}, {"pitch": 64, "velocity": 80, "note_on_time": 5.684, "note_off_time": 5.902}, {"pitch": 42, "velocity": 80, "note_on_time": 5.685, "note_off_time": 5.903}, {"pitch": 42, "velocity": 80, "note_on_time": 5.903, "note_off_time": 6.12}, {"pitch": 67, "velocity": 80, "note_on_time": 6.12, "note_off_time": 6.337}, {"pitch": 42, "velocity": 80, "note_on_time": 6.12, "note_off_time": 6.338}, {"pitch": 64, "velocity": 80, "note_on_time": 6.337, "note_off_time": 6.556}, {"pitch": 42, "velocity": 80, "note_on_time": 6.338, "note_off_time": 6.556}, {"pitch": 67, "velocity": 80, "note_on_time": 6.556, "note_off_time": 6.773}, {"pitch": 42, "velocity": 80, "note_on_time": 6.557, "note_off_time": 6.774}, {"pitch": 64, "velocity": 80, "note_on_time": 6.773, "note_off_time": 6.99}, {"pitch": 42, "velocity": 80, "note_on_time": 6.774, "note_off_time": 6.99}, {"pitch": 42, "velocity": 80, "note_on_time": 6.99, "note_off_time": 7.207}, {"pitch": 64, "velocity": 80, "note_on_time": 7.207, "note_off_time": 7.423}, {"pitch": 42, "velocity": 80, "note_on_time": 7.207, "note_off_time": 7.423}, {"pitch": 64, "velocity": 80, "note_on_time": 7.423, "note_off_time": 7.64}, {"pitch": 42, "velocity": 80, "note_on_time": 7.424, "note_off_time": 7.64}, {"pitch": 64, "velocity": 80, "note_on_time": 7.64, "note_off_time": 7.856}, {"pitch": 42, "velocity": 80, "note_on_time": 7.641, "note_off_time": 7.857}]</notes><options name="Option List">((4, 4), [0.25], 3, 8, &lt;NoteRangePerHand.C_TO_G: 6&gt;, &lt;NoteRangePerHand.ONE_NOTE: 2&gt;, False, True, True, 281)</options></target_notes><trials /></MIDI>