<MIDI midiNo="2022_11_13-13_05_33"><target_notes><notes name="Note List">[{"pitch": 42, "velocity": 80, "note_on_time": 0.004, "note_off_time": 0.226}, {"pitch": 42, "velocity": 80, "note_on_time": 0.227, "note_off_time": 0.445}, {"pitch": 42, "velocity": 80, "note_on_time": 0.445, "note_off_time": 0.663}, {"pitch": 42, "velocity": 80, "note_on_time": 0.663, "note_off_time": 0.881}, {"pitch": 64, "velocity": 80, "note_on_time": 0.881, "note_off_time": 1.1}, {"pitch": 42, "velocity": 80, "note_on_time": 0.881, "note_off_time": 1.1}, {"pitch": 62, "velocity": 80, "note_on_time": 1.1, "note_off_time": 1.319}, {"pitch": 42, "velocity": 80, "note_on_time": 1.1, "note_off_time": 1.319}, {"pitch": 65, "velocity": 80, "note_on_time": 1.319, "note_off_time": 1.537}, {"pitch": 42, "velocity": 80, "note_on_time": 1.319, "note_off_time": 1.537}, {"pitch": 65, "velocity": 80, "note_on_time": 1.537, "note_off_time": 1.755}, {"pitch": 42, "velocity": 80, "note_on_time": 1.537, "note_off_time": 1.755}, {"pitch": 62, "velocity": 80, "note_on_time": 1.755, "note_off_time": 1.975}, {"pitch": 42, "velocity": 80, "note_on_time": 1.755, "note_off_time": 1.975}, {"pitch": 65, "velocity": 80, "note_on_time": 1.975, "note_off_time": 2.194}, {"pitch": 42, "velocity": 80, "note_on_time": 1.975, "note_off_time": 2.194}, {"pitch": 67, "velocity": 80, "note_on_time": 2.194, "note_off_time": 2.414}, {"pitch": 42, "velocity": 80, "note_on_time": 2.194, "note_off_time": 2.414}, {"pitch": 64, "velocity": 80, "note_on_time": 2.414, "note_off_time": 2.633}, {"pitch": 42, "velocity": 80, "note_on_time": 2.414, "note_off_time": 2.633}, {"pitch": 42, "velocity": 80, "note_on_time": 2.633, "note_off_time": 2.852}, {"pitch": 65, "velocity": 80, "note_on_time": 2.633, "note_off_time": 3.07}, {"pitch": 42, "velocity": 80, "note_on_time": 2.852, "note_off_time": 3.07}, {"pitch": 42, "velocity": 80, "note_on_time": 3.07, "note_off_time": 3.288}, {"pitch": 42, "velocity": 80, "note_on_time": 3.288, "note_off_time": 3.507}, {"pitch": 60, "velocity": 80, "note_on_time": 3.507, "note_off_time": 3.727}, {"pitch": 42, "velocity": 80, "note_on_time": 3.507, "note_off_time": 3.727}, {"pitch": 42, "velocity": 80, "note_on_time": 3.727, "note_off_time": 3.947}, {"pitch": 65, "velocity": 80, "note_on_time": 3.727, "note_off_time": 4.168}, {"pitch": 42, "velocity": 80, "note_on_time": 3.947, "note_off_time": 4.168}, {"pitch": 42, "velocity": 80, "note_on_time": 4.168, "note_off_time": 4.386}, {"pitch": 64, "velocity": 80, "note_on_time": 4.386, "note_off_time": 4.606}, {"pitch": 42, "velocity": 80, "note_on_time": 4.386, "note_off_time": 4.606}, {"pitch": 62, "velocity": 80, "note_on_time": 4.606, "note_off_time": 4.827}, {"pitch": 42, "velocity": 80, "note_on_time": 4.606, "note_off_time": 4.827}, {"pitch": 67, "velocity": 80, "note_on_time": 4.827, "note_off_time": 5.048}, {"pitch": 42, "velocity": 80, "note_on_time": 4.828, "note_off_time": 5.048}, {"pitch": 62, "velocity": 80, "note_on_time": 5.048, "note_off_time": 5.265}, {"pitch": 42, "velocity": 80, "note_on_time": 5.048, "note_off_time": 5.265}, {"pitch": 42, "velocity": 80, "note_on_time": 5.265, "note_off_time": 5.485}, {"pitch": 65, "velocity": 80, "note_on_time": 5.265, "note_off_time": 5.705}, {"pitch": 42, "velocity": 80, "note_on_time": 5.485, "note_off_time": 5.705}, {"pitch": 67, "velocity": 80, "note_on_time": 5.705, "note_off_time": 5.923}, {"pitch": 42, "velocity": 80, "note_on_time": 5.705, "note_off_time": 5.923}, {"pitch": 67, "velocity": 80, "note_on_time": 5.923, "note_off_time": 6.14}, {"pitch": 42, "velocity": 80, "note_on_time": 5.923, "note_off_time": 6.14}, {"pitch": 67, "velocity": 80, "note_on_time": 6.14, "note_off_time": 6.36}, {"pitch": 42, "velocity": 80, "note_on_time": 6.14, "note_off_time": 6.36}, {"pitch": 62, "velocity": 80, "note_on_time": 6.36, "note_off_time": 6.579}, {"pitch": 42, "velocity": 80, "note_on_time": 6.36, "note_off_time": 6.579}, {"pitch": 62, "velocity": 80, "note_on_time": 6.579, "note_off_time": 6.797}, {"pitch": 42, "velocity": 80, "note_on_time": 6.579, "note_off_time": 6.797}, {"pitch": 65, "velocity": 80, "note_on_time": 6.797, "note_off_time": 7.014}, {"pitch": 42, "velocity": 80, "note_on_time": 6.797, "note_off_time": 7.014}, {"pitch": 42, "velocity": 80, "note_on_time": 7.014, "note_off_time": 7.232}, {"pitch": 65, "velocity": 80, "note_on_time": 7.232, "note_off_time": 7.451}, {"pitch": 42, "velocity": 80, "note_on_time": 7.232, "note_off_time": 7.451}, {"pitch": 65, "velocity": 80, "note_on_time": 7.451, "note_off_time": 7.668}, {"pitch": 42, "velocity": 80, "note_on_time": 7.451, "note_off_time": 7.668}, {"pitch": 65, "velocity": 80, "note_on_time": 7.668, "note_off_time": 7.889}, {"pitch": 42, "velocity": 80, "note_on_time": 7.668, "note_off_time": 7.889}]</notes><options name="Option List">((4, 4), [0.5, 0.25], 3, 8, &lt;NoteRangePerHand.C_TO_G: 6&gt;, &lt;NoteRangePerHand.ONE_NOTE: 2&gt;, False, True, False, 281)</options></target_notes><trials><trial trial_no="1" timestamp="2022_11_13-13_05_23"><notes name="Played Notes">[{"pitch": 64, "velocity": 67, "note_on_time": 0.881, "note_off_time": 1.132}, {"pitch": 62, "velocity": 75, "note_on_time": 1.11, "note_off_time": 1.398}, {"pitch": 65, "velocity": 81, "note_on_time": 1.345, "note_off_time": 1.466}, {"pitch": 65, "velocity": 77, "note_on_time": 1.551, "note_off_time": 1.8}, {"pitch": 62, "velocity": 78, "note_on_time": 1.794, "note_off_time": 2.047}, {"pitch": 65, "velocity": 76, "note_on_time": 2.006, "note_off_time": 2.293}, {"pitch": 67, "velocity": 78, "note_on_time": 2.244, "note_off_time": 2.466}, {"pitch": 64, "velocity": 77, "note_on_time": 2.451, "note_off_time": 2.693}, {"pitch": 65, "velocity": 101, "note_on_time": 2.692, "note_off_time": 2.96}, {"pitch": 60, "velocity": 77, "note_on_time": 3.385, "note_off_time": 3.585}, {"pitch": 65, "velocity": 94, "note_on_time": 3.62, "note_off_time": 3.834}, {"pitch": 64, "velocity": 85, "note_on_time": 4.362, "note_off_time": 4.596}, {"pitch": 62, "velocity": 70, "note_on_time": 4.608, "note_off_time": 4.883}, {"pitch": 67, "velocity": 60, "note_on_time": 4.85, "note_off_time": 5.135}, {"pitch": 62, "velocity": 61, "note_on_time": 5.098, "note_off_time": 5.367}, {"pitch": 65, "velocity": 85, "note_on_time": 5.32, "note_off_time": 5.628}, {"pitch": 67, "velocity": 83, "note_on_time": 5.764, "note_off_time": 5.902}, {"pitch": 67, "velocity": 80, "note_on_time": 5.983, "note_off_time": 6.107}, {"pitch": 67, "velocity": 74, "note_on_time": 6.209, "note_off_time": 6.348}, {"pitch": 62, "velocity": 76, "note_on_time": 6.421, "note_off_time": 6.524}, {"pitch": 62, "velocity": 78, "note_on_time": 6.646, "note_off_time": 6.773}, {"pitch": 65, "velocity": 87, "note_on_time": 6.887, "note_off_time": 7.033}, {"pitch": 65, "velocity": 88, "note_on_time": 7.303, "note_off_time": 7.394}, {"pitch": 65, "velocity": 91, "note_on_time": 7.54, "note_off_time": 7.608}, {"pitch": 65, "velocity": 94, "note_on_time": 7.766, "note_off_time": 7.877}]</notes><guidance name="Guidance Mode">None</guidance><error name="Error value">0.029283954545454408</error></trial><trial trial_no="2" timestamp="2022_11_13-13_05_42"><notes name="Played Notes">[{"pitch": 64, "velocity": 72, "note_on_time": 0.865, "note_off_time": 1.12}, {"pitch": 62, "velocity": 67, "note_on_time": 1.084, "note_off_time": 1.388}, {"pitch": 65, "velocity": 77, "note_on_time": 1.32, "note_off_time": 1.439}, {"pitch": 65, "velocity": 74, "note_on_time": 1.53, "note_off_time": 1.76}, {"pitch": 65, "velocity": 72, "note_on_time": 1.981, "note_off_time": 2.253}, {"pitch": 62, "velocity": 75, "note_on_time": 1.768, "note_off_time": 2.261}, {"pitch": 67, "velocity": 77, "note_on_time": 2.209, "note_off_time": 2.442}, {"pitch": 64, "velocity": 73, "note_on_time": 2.415, "note_off_time": 2.704}, {"pitch": 65, "velocity": 96, "note_on_time": 2.658, "note_off_time": 2.92}, {"pitch": 60, "velocity": 87, "note_on_time": 3.532, "note_off_time": 3.774}, {"pitch": 65, "velocity": 91, "note_on_time": 3.955, "note_off_time": 4.161}, {"pitch": 64, "velocity": 78, "note_on_time": 4.582, "note_off_time": 4.811}, {"pitch": 62, "velocity": 74, "note_on_time": 4.814, "note_off_time": 5.043}, {"pitch": 67, "velocity": 59, "note_on_time": 5.027, "note_off_time": 5.279}, {"pitch": 62, "velocity": 80, "note_on_time": 5.256, "note_off_time": 5.526}, {"pitch": 65, "velocity": 84, "note_on_time": 5.487, "note_off_time": 5.67}, {"pitch": 67, "velocity": 77, "note_on_time": 5.902, "note_off_time": 6.017}, {"pitch": 67, "velocity": 69, "note_on_time": 6.129, "note_off_time": 6.233}, {"pitch": 67, "velocity": 69, "note_on_time": 6.347, "note_off_time": 6.473}, {"pitch": 62, "velocity": 73, "note_on_time": 6.576, "note_off_time": 6.777}, {"pitch": 64, "velocity": 68, "note_on_time": 6.792, "note_off_time": 6.927}, {"pitch": 65, "velocity": 92, "note_on_time": 7.04, "note_off_time": 7.235}, {"pitch": 65, "velocity": 87, "note_on_time": 7.609, "note_off_time": 7.702}]</notes><guidance name="Guidance Mode">None</guidance><error name="Error value">0.17783359090909087</error></trial><trial trial_no="3" timestamp="2022_11_13-13_06_06"><notes name="Played Notes">[{"pitch": 64, "velocity": 73, "note_on_time": 0.903, "note_off_time": 1.151}, {"pitch": 62, "velocity": 74, "note_on_time": 1.128, "note_off_time": 1.425}, {"pitch": 67, "velocity": 60, "note_on_time": 1.385, "note_off_time": 1.446}, {"pitch": 65, "velocity": 57, "note_on_time": 1.379, "note_off_time": 1.459}, {"pitch": 65, "velocity": 76, "note_on_time": 1.587, "note_off_time": 1.794}, {"pitch": 62, "velocity": 79, "note_on_time": 1.816, "note_off_time": 2.084}, {"pitch": 65, "velocity": 74, "note_on_time": 2.032, "note_off_time": 2.297}, {"pitch": 67, "velocity": 79, "note_on_time": 2.259, "note_off_time": 2.486}, {"pitch": 64, "velocity": 71, "note_on_time": 2.472, "note_off_time": 2.7}, {"pitch": 65, "velocity": 95, "note_on_time": 2.721, "note_off_time": 3.1}, {"pitch": 62, "velocity": 64, "note_on_time": 3.676, "note_off_time": 3.732}, {"pitch": 60, "velocity": 70, "note_on_time": 3.669, "note_off_time": 3.941}, {"pitch": 65, "velocity": 77, "note_on_time": 4.079, "note_off_time": 4.336}, {"pitch": 64, "velocity": 85, "note_on_time": 4.711, "note_off_time": 4.911}, {"pitch": 62, "velocity": 73, "note_on_time": 4.922, "note_off_time": 5.175}, {"pitch": 67, "velocity": 73, "note_on_time": 5.141, "note_off_time": 5.359}, {"pitch": 62, "velocity": 73, "note_on_time": 5.353, "note_off_time": 5.614}, {"pitch": 65, "velocity": 83, "note_on_time": 5.578, "note_off_time": 5.808}, {"pitch": 67, "velocity": 82, "note_on_time": 5.985, "note_off_time": 6.114}, {"pitch": 67, "velocity": 86, "note_on_time": 6.193, "note_off_time": 6.301}, {"pitch": 67, "velocity": 78, "note_on_time": 6.411, "note_off_time": 6.531}, {"pitch": 62, "velocity": 81, "note_on_time": 6.611, "note_off_time": 6.708}, {"pitch": 62, "velocity": 85, "note_on_time": 6.84, "note_off_time": 6.944}, {"pitch": 65, "velocity": 90, "note_on_time": 7.07, "note_off_time": 7.212}, {"pitch": 65, "velocity": 94, "note_on_time": 7.463, "note_off_time": 7.548}, {"pitch": 65, "velocity": 85, "note_on_time": 7.674, "note_off_time": 7.756}]</notes><guidance name="Guidance Mode">None</guidance><error name="Error value">0.6480671363636363</error></trial></trials></MIDI>