<MIDI midiNo="2022_11_21-18_10_04"><target_notes><notes name="Note List">[{"pitch": 42, "velocity": 80, "note_on_time": 0.004, "note_off_time": 0.48}, {"pitch": 42, "velocity": 80, "note_on_time": 0.481, "note_off_time": 0.963}, {"pitch": 42, "velocity": 80, "note_on_time": 0.963, "note_off_time": 1.449}, {"pitch": 42, "velocity": 80, "note_on_time": 1.449, "note_off_time": 1.928}, {"pitch": 64, "velocity": 80, "note_on_time": 1.928, "note_off_time": 2.413}, {"pitch": 42, "velocity": 80, "note_on_time": 1.928, "note_off_time": 2.413}, {"pitch": 62, "velocity": 80, "note_on_time": 2.413, "note_off_time": 2.896}, {"pitch": 42, "velocity": 80, "note_on_time": 2.413, "note_off_time": 2.896}, {"pitch": 62, "velocity": 80, "note_on_time": 2.896, "note_off_time": 3.379}, {"pitch": 42, "velocity": 80, "note_on_time": 2.896, "note_off_time": 3.379}, {"pitch": 62, "velocity": 80, "note_on_time": 3.379, "note_off_time": 3.863}, {"pitch": 42, "velocity": 80, "note_on_time": 3.379, "note_off_time": 3.864}, {"pitch": 60, "velocity": 80, "note_on_time": 3.863, "note_off_time": 4.346}, {"pitch": 42, "velocity": 80, "note_on_time": 3.864, "note_off_time": 4.346}, {"pitch": 62, "velocity": 80, "note_on_time": 4.346, "note_off_time": 4.83}, {"pitch": 42, "velocity": 80, "note_on_time": 4.346, "note_off_time": 4.83}, {"pitch": 60, "velocity": 80, "note_on_time": 4.83, "note_off_time": 5.311}, {"pitch": 42, "velocity": 80, "note_on_time": 4.83, "note_off_time": 5.312}, {"pitch": 65, "velocity": 80, "note_on_time": 5.311, "note_off_time": 5.794}, {"pitch": 42, "velocity": 80, "note_on_time": 5.312, "note_off_time": 5.794}, {"pitch": 62, "velocity": 80, "note_on_time": 5.794, "note_off_time": 6.274}, {"pitch": 42, "velocity": 80, "note_on_time": 5.795, "note_off_time": 6.274}, {"pitch": 60, "velocity": 80, "note_on_time": 6.274, "note_off_time": 6.757}, {"pitch": 42, "velocity": 80, "note_on_time": 6.274, "note_off_time": 6.757}, {"pitch": 62, "velocity": 80, "note_on_time": 6.757, "note_off_time": 7.237}, {"pitch": 42, "velocity": 80, "note_on_time": 6.757, "note_off_time": 7.237}, {"pitch": 62, "velocity": 80, "note_on_time": 7.237, "note_off_time": 7.719}, {"pitch": 42, "velocity": 80, "note_on_time": 7.237, "note_off_time": 7.719}, {"pitch": 42, "velocity": 80, "note_on_time": 7.72, "note_off_time": 8.201}, {"pitch": 65, "velocity": 80, "note_on_time": 7.719, "note_off_time": 8.686}, {"pitch": 42, "velocity": 80, "note_on_time": 8.201, "note_off_time": 8.686}, {"pitch": 62, "velocity": 80, "note_on_time": 8.686, "note_off_time": 9.17}, {"pitch": 42, "velocity": 80, "note_on_time": 8.686, "note_off_time": 9.17}, {"pitch": 42, "velocity": 80, "note_on_time": 9.171, "note_off_time": 9.654}, {"pitch": 64, "velocity": 80, "note_on_time": 9.654, "note_off_time": 10.135}, {"pitch": 42, "velocity": 80, "note_on_time": 9.654, "note_off_time": 10.136}, {"pitch": 60, "velocity": 80, "note_on_time": 10.135, "note_off_time": 10.616}, {"pitch": 42, "velocity": 80, "note_on_time": 10.136, "note_off_time": 10.617}, {"pitch": 67, "velocity": 80, "note_on_time": 10.616, "note_off_time": 11.1}, {"pitch": 42, "velocity": 80, "note_on_time": 10.617, "note_off_time": 11.1}, {"pitch": 65, "velocity": 80, "note_on_time": 11.1, "note_off_time": 11.583}, {"pitch": 42, "velocity": 80, "note_on_time": 11.1, "note_off_time": 11.583}, {"pitch": 64, "velocity": 80, "note_on_time": 11.583, "note_off_time": 12.064}, {"pitch": 42, "velocity": 80, "note_on_time": 11.583, "note_off_time": 12.065}, {"pitch": 67, "velocity": 80, "note_on_time": 12.064, "note_off_time": 12.548}, {"pitch": 42, "velocity": 80, "note_on_time": 12.065, "note_off_time": 12.549}, {"pitch": 62, "velocity": 80, "note_on_time": 12.548, "note_off_time": 13.032}, {"pitch": 42, "velocity": 80, "note_on_time": 12.549, "note_off_time": 13.032}, {"pitch": 64, "velocity": 80, "note_on_time": 13.032, "note_off_time": 13.515}, {"pitch": 42, "velocity": 80, "note_on_time": 13.033, "note_off_time": 13.515}, {"pitch": 42, "velocity": 80, "note_on_time": 13.515, "note_off_time": 13.999}, {"pitch": 67, "velocity": 80, "note_on_time": 13.515, "note_off_time": 14.48}, {"pitch": 42, "velocity": 80, "note_on_time": 13.999, "note_off_time": 14.48}, {"pitch": 42, "velocity": 80, "note_on_time": 14.48, "note_off_time": 14.962}, {"pitch": 64, "velocity": 80, "note_on_time": 14.48, "note_off_time": 15.445}, {"pitch": 42, "velocity": 80, "note_on_time": 14.962, "note_off_time": 15.445}, {"pitch": 42, "velocity": 80, "note_on_time": 15.446, "note_off_time": 15.928}, {"pitch": 64, "velocity": 80, "note_on_time": 15.927, "note_off_time": 16.408}, {"pitch": 42, "velocity": 80, "note_on_time": 15.928, "note_off_time": 16.408}, {"pitch": 64, "velocity": 80, "note_on_time": 16.408, "note_off_time": 16.892}, {"pitch": 42, "velocity": 80, "note_on_time": 16.409, "note_off_time": 16.892}, {"pitch": 64, "velocity": 80, "note_on_time": 16.892, "note_off_time": 17.374}, {"pitch": 42, "velocity": 80, "note_on_time": 16.892, "note_off_time": 17.374}]</notes><options name="Option List">((4, 4), [0.5, 0.25], 3, 8, &lt;NoteRangePerHand.C_TO_G: 6&gt;, &lt;NoteRangePerHand.ONE_NOTE: 2&gt;, False, True, False, '127')</options></target_notes><trials><trial trial_no="1" timestamp="2022_11_21-18_09_45"><notes name="Played Notes">[{"pitch": 64, "velocity": 95, "note_on_time": 1.972, "note_off_time": 2.462}, {"pitch": 62, "velocity": 81, "note_on_time": 2.448, "note_off_time": 2.617}, {"pitch": 62, "velocity": 97, "note_on_time": 2.93, "note_off_time": 3.096}, {"pitch": 62, "velocity": 91, "note_on_time": 3.413, "note_off_time": 3.886}, {"pitch": 60, "velocity": 95, "note_on_time": 3.87, "note_off_time": 4.332}, {"pitch": 62, "velocity": 83, "note_on_time": 4.341, "note_off_time": 4.837}, {"pitch": 60, "velocity": 85, "note_on_time": 4.824, "note_off_time": 5.308}, {"pitch": 65, "velocity": 85, "note_on_time": 5.279, "note_off_time": 5.792}, {"pitch": 62, "velocity": 79, "note_on_time": 5.794, "note_off_time": 6.28}, {"pitch": 60, "velocity": 90, "note_on_time": 6.261, "note_off_time": 6.804}, {"pitch": 62, "velocity": 91, "note_on_time": 6.769, "note_off_time": 6.885}, {"pitch": 62, "velocity": 93, "note_on_time": 7.212, "note_off_time": 7.358}, {"pitch": 65, "velocity": 107, "note_on_time": 7.692, "note_off_time": 8.296}, {"pitch": 62, "velocity": 90, "note_on_time": 8.668, "note_off_time": 8.949}, {"pitch": 64, "velocity": 98, "note_on_time": 9.653, "note_off_time": 10.133}, {"pitch": 60, "velocity": 94, "note_on_time": 10.126, "note_off_time": 10.626}, {"pitch": 67, "velocity": 80, "note_on_time": 10.608, "note_off_time": 11.084}, {"pitch": 65, "velocity": 85, "note_on_time": 11.078, "note_off_time": 11.56}, {"pitch": 64, "velocity": 78, "note_on_time": 11.555, "note_off_time": 12.058}, {"pitch": 67, "velocity": 82, "note_on_time": 12.058, "note_off_time": 12.534}, {"pitch": 62, "velocity": 79, "note_on_time": 12.534, "note_off_time": 13.016}, {"pitch": 65, "velocity": 87, "note_on_time": 13.008, "note_off_time": 13.462}, {"pitch": 67, "velocity": 90, "note_on_time": 13.466, "note_off_time": 14.514}, {"pitch": 64, "velocity": 88, "note_on_time": 14.495, "note_off_time": 15.172}, {"pitch": 64, "velocity": 89, "note_on_time": 15.889, "note_off_time": 16.023}, {"pitch": 64, "velocity": 98, "note_on_time": 16.375, "note_off_time": 16.502}, {"pitch": 64, "velocity": 92, "note_on_time": 16.844, "note_off_time": 17.004}]</notes><guidance name="Guidance Mode">None</guidance><error name="Error value">0.06050166666666643</error></trial><trial trial_no="2" timestamp="2022_11_21-18_10_13"><notes name="Played Notes">[{"pitch": 64, "velocity": 93, "note_on_time": 1.95, "note_off_time": 2.452}, {"pitch": 62, "velocity": 82, "note_on_time": 2.433, "note_off_time": 2.546}, {"pitch": 62, "velocity": 93, "note_on_time": 2.9, "note_off_time": 3.009}, {"pitch": 62, "velocity": 87, "note_on_time": 3.365, "note_off_time": 3.499}, {"pitch": 60, "velocity": 89, "note_on_time": 3.839, "note_off_time": 4.33}, {"pitch": 62, "velocity": 80, "note_on_time": 4.341, "note_off_time": 4.814}, {"pitch": 60, "velocity": 87, "note_on_time": 4.803, "note_off_time": 5.292}, {"pitch": 65, "velocity": 85, "note_on_time": 5.256, "note_off_time": 5.79}, {"pitch": 62, "velocity": 77, "note_on_time": 5.772, "note_off_time": 6.279}, {"pitch": 60, "velocity": 77, "note_on_time": 6.264, "note_off_time": 6.746}, {"pitch": 62, "velocity": 79, "note_on_time": 6.72, "note_off_time": 6.845}, {"pitch": 62, "velocity": 85, "note_on_time": 7.225, "note_off_time": 7.739}, {"pitch": 65, "velocity": 92, "note_on_time": 7.737, "note_off_time": 8.711}, {"pitch": 62, "velocity": 88, "note_on_time": 8.721, "note_off_time": 9.092}, {"pitch": 64, "velocity": 87, "note_on_time": 9.725, "note_off_time": 10.211}, {"pitch": 60, "velocity": 87, "note_on_time": 10.205, "note_off_time": 10.68}, {"pitch": 67, "velocity": 81, "note_on_time": 10.657, "note_off_time": 11.132}, {"pitch": 65, "velocity": 82, "note_on_time": 11.142, "note_off_time": 11.605}, {"pitch": 64, "velocity": 70, "note_on_time": 11.619, "note_off_time": 12.116}, {"pitch": 67, "velocity": 74, "note_on_time": 12.114, "note_off_time": 12.577}, {"pitch": 62, "velocity": 74, "note_on_time": 12.579, "note_off_time": 13.074}, {"pitch": 64, "velocity": 79, "note_on_time": 13.056, "note_off_time": 13.556}, {"pitch": 67, "velocity": 93, "note_on_time": 13.555, "note_off_time": 14.554}, {"pitch": 64, "velocity": 80, "note_on_time": 14.523, "note_off_time": 15.178}, {"pitch": 64, "velocity": 94, "note_on_time": 15.968, "note_off_time": 16.091}, {"pitch": 64, "velocity": 88, "note_on_time": 16.433, "note_off_time": 16.527}, {"pitch": 64, "velocity": 95, "note_on_time": 16.907, "note_off_time": 17.051}]</notes><guidance name="Guidance Mode">None</guidance><error name="Error value">0.02084999999999997</error></trial><trial trial_no="3" timestamp="2022_11_21-18_10_39"><notes name="Played Notes">[{"pitch": 64, "velocity": 94, "note_on_time": 1.982, "note_off_time": 2.502}, {"pitch": 62, "velocity": 89, "note_on_time": 2.464, "note_off_time": 2.606}, {"pitch": 62, "velocity": 96, "note_on_time": 2.952, "note_off_time": 3.071}, {"pitch": 62, "velocity": 94, "note_on_time": 3.426, "note_off_time": 3.54}, {"pitch": 60, "velocity": 97, "note_on_time": 3.887, "note_off_time": 4.368}, {"pitch": 62, "velocity": 80, "note_on_time": 4.368, "note_off_time": 4.858}, {"pitch": 60, "velocity": 92, "note_on_time": 4.845, "note_off_time": 5.341}, {"pitch": 65, "velocity": 86, "note_on_time": 5.309, "note_off_time": 5.815}, {"pitch": 62, "velocity": 79, "note_on_time": 5.801, "note_off_time": 6.296}, {"pitch": 60, "velocity": 88, "note_on_time": 6.286, "note_off_time": 6.786}, {"pitch": 62, "velocity": 89, "note_on_time": 6.777, "note_off_time": 6.898}, {"pitch": 62, "velocity": 82, "note_on_time": 7.221, "note_off_time": 7.363}, {"pitch": 65, "velocity": 103, "note_on_time": 7.719, "note_off_time": 8.331}, {"pitch": 62, "velocity": 94, "note_on_time": 8.699, "note_off_time": 9.127}, {"pitch": 64, "velocity": 94, "note_on_time": 9.663, "note_off_time": 10.128}, {"pitch": 60, "velocity": 95, "note_on_time": 10.127, "note_off_time": 10.618}, {"pitch": 67, "velocity": 84, "note_on_time": 10.601, "note_off_time": 11.098}, {"pitch": 65, "velocity": 91, "note_on_time": 11.098, "note_off_time": 11.571}, {"pitch": 64, "velocity": 77, "note_on_time": 11.559, "note_off_time": 12.062}, {"pitch": 67, "velocity": 82, "note_on_time": 12.065, "note_off_time": 12.529}, {"pitch": 62, "velocity": 80, "note_on_time": 12.527, "note_off_time": 13.013}, {"pitch": 60, "velocity": 87, "note_on_time": 13.027, "note_off_time": 13.512}, {"pitch": 67, "velocity": 85, "note_on_time": 13.503, "note_off_time": 14.5}, {"pitch": 64, "velocity": 83, "note_on_time": 14.505, "note_off_time": 15.087}, {"pitch": 64, "velocity": 94, "note_on_time": 15.562, "note_off_time": 15.682}, {"pitch": 64, "velocity": 95, "note_on_time": 16.003, "note_off_time": 16.117}, {"pitch": 62, "velocity": 73, "note_on_time": 16.477, "note_off_time": 16.565}, {"pitch": 64, "velocity": 61, "note_on_time": 16.472, "note_off_time": 16.584}]</notes><guidance name="Guidance Mode">None</guidance><error name="Error value">0.20433500000000102</error></trial><trial trial_no="4" timestamp="2022_11_21-18_11_17"><notes name="Played Notes">[{"pitch": 64, "velocity": 91, "note_on_time": 1.906, "note_off_time": 2.372}, {"pitch": 62, "velocity": 85, "note_on_time": 2.372, "note_off_time": 2.497}, {"pitch": 62, "velocity": 98, "note_on_time": 2.873, "note_off_time": 2.986}, {"pitch": 62, "velocity": 98, "note_on_time": 3.321, "note_off_time": 3.438}, {"pitch": 60, "velocity": 89, "note_on_time": 3.819, "note_off_time": 4.325}, {"pitch": 62, "velocity": 80, "note_on_time": 4.335, "note_off_time": 4.821}, {"pitch": 60, "velocity": 90, "note_on_time": 4.8, "note_off_time": 5.295}, {"pitch": 65, "velocity": 85, "note_on_time": 5.262, "note_off_time": 5.763}, {"pitch": 62, "velocity": 84, "note_on_time": 5.775, "note_off_time": 6.268}, {"pitch": 60, "velocity": 93, "note_on_time": 6.266, "note_off_time": 6.769}, {"pitch": 62, "velocity": 84, "note_on_time": 6.749, "note_off_time": 6.864}, {"pitch": 62, "velocity": 87, "note_on_time": 7.22, "note_off_time": 7.341}, {"pitch": 65, "velocity": 103, "note_on_time": 7.716, "note_off_time": 8.364}, {"pitch": 62, "velocity": 92, "note_on_time": 8.694, "note_off_time": 9.261}, {"pitch": 64, "velocity": 96, "note_on_time": 9.724, "note_off_time": 10.128}, {"pitch": 60, "velocity": 95, "note_on_time": 10.136, "note_off_time": 10.629}, {"pitch": 67, "velocity": 84, "note_on_time": 10.609, "note_off_time": 11.081}, {"pitch": 65, "velocity": 84, "note_on_time": 11.084, "note_off_time": 11.583}, {"pitch": 64, "velocity": 61, "note_on_time": 11.593, "note_off_time": 12.066}, {"pitch": 67, "velocity": 80, "note_on_time": 12.071, "note_off_time": 12.554}, {"pitch": 62, "velocity": 78, "note_on_time": 12.562, "note_off_time": 13.024}, {"pitch": 64, "velocity": 78, "note_on_time": 13.021, "note_off_time": 13.52}, {"pitch": 67, "velocity": 94, "note_on_time": 13.523, "note_off_time": 14.49}, {"pitch": 64, "velocity": 94, "note_on_time": 14.502, "note_off_time": 15.136}, {"pitch": 64, "velocity": 95, "note_on_time": 15.922, "note_off_time": 16.003}, {"pitch": 64, "velocity": 90, "note_on_time": 16.381, "note_off_time": 16.448}, {"pitch": 64, "velocity": 92, "note_on_time": 16.873, "note_off_time": 16.957}]</notes><guidance name="Guidance Mode">None</guidance><error name="Error value">0.02485000000000001</error></trial><trial trial_no="5" timestamp="2022_11_21-18_11_43"><notes name="Played Notes">[{"pitch": 64, "velocity": 91, "note_on_time": 1.896, "note_off_time": 2.382}, {"pitch": 62, "velocity": 84, "note_on_time": 2.367, "note_off_time": 2.499}, {"pitch": 62, "velocity": 90, "note_on_time": 2.847, "note_off_time": 2.96}, {"pitch": 62, "velocity": 88, "note_on_time": 3.322, "note_off_time": 3.438}, {"pitch": 60, "velocity": 90, "note_on_time": 3.808, "note_off_time": 4.297}, {"pitch": 62, "velocity": 86, "note_on_time": 4.295, "note_off_time": 4.815}, {"pitch": 60, "velocity": 89, "note_on_time": 4.804, "note_off_time": 5.312}, {"pitch": 65, "velocity": 83, "note_on_time": 5.273, "note_off_time": 5.759}, {"pitch": 62, "velocity": 78, "note_on_time": 5.762, "note_off_time": 6.275}, {"pitch": 60, "velocity": 90, "note_on_time": 6.263, "note_off_time": 6.774}, {"pitch": 62, "velocity": 91, "note_on_time": 6.74, "note_off_time": 6.854}, {"pitch": 62, "velocity": 86, "note_on_time": 7.222, "note_off_time": 7.357}, {"pitch": 65, "velocity": 106, "note_on_time": 7.695, "note_off_time": 8.674}, {"pitch": 62, "velocity": 85, "note_on_time": 8.69, "note_off_time": 8.983}, {"pitch": 64, "velocity": 92, "note_on_time": 9.656, "note_off_time": 10.165}, {"pitch": 60, "velocity": 85, "note_on_time": 10.156, "note_off_time": 10.617}, {"pitch": 67, "velocity": 80, "note_on_time": 10.595, "note_off_time": 11.113}, {"pitch": 65, "velocity": 76, "note_on_time": 11.095, "note_off_time": 11.572}, {"pitch": 64, "velocity": 83, "note_on_time": 11.565, "note_off_time": 12.044}, {"pitch": 67, "velocity": 79, "note_on_time": 12.052, "note_off_time": 12.538}, {"pitch": 62, "velocity": 76, "note_on_time": 12.534, "note_off_time": 13.028}, {"pitch": 64, "velocity": 86, "note_on_time": 13.018, "note_off_time": 13.524}, {"pitch": 67, "velocity": 84, "note_on_time": 13.519, "note_off_time": 14.483}, {"pitch": 64, "velocity": 89, "note_on_time": 14.466, "note_off_time": 15.059}, {"pitch": 64, "velocity": 84, "note_on_time": 15.906, "note_off_time": 15.982}, {"pitch": 64, "velocity": 81, "note_on_time": 16.384, "note_off_time": 16.443}, {"pitch": 64, "velocity": 92, "note_on_time": 16.872, "note_off_time": 16.953}]</notes><guidance name="Guidance Mode">None</guidance><error name="Error value">0.01716166666666674</error></trial></trials></MIDI>