<MIDI midiNo="2022_12_01-10_37_50"><target_notes><notes name="Note List">[{"pitch": 42, "velocity": 80, "note_on_time": 0.004, "note_off_time": 0.228}, {"pitch": 42, "velocity": 80, "note_on_time": 0.228, "note_off_time": 0.445}, {"pitch": 42, "velocity": 80, "note_on_time": 0.445, "note_off_time": 0.662}, {"pitch": 42, "velocity": 80, "note_on_time": 0.662, "note_off_time": 0.882}, {"pitch": 64, "velocity": 80, "note_on_time": 0.882, "note_off_time": 1.1}, {"pitch": 42, "velocity": 80, "note_on_time": 0.882, "note_off_time": 1.1}, {"pitch": 65, "velocity": 80, "note_on_time": 1.1, "note_off_time": 1.317}, {"pitch": 42, "velocity": 80, "note_on_time": 1.1, "note_off_time": 1.317}, {"pitch": 42, "velocity": 80, "note_on_time": 1.317, "note_off_time": 1.536}, {"pitch": 67, "velocity": 80, "note_on_time": 1.317, "note_off_time": 1.754}, {"pitch": 42, "velocity": 80, "note_on_time": 1.536, "note_off_time": 1.754}, {"pitch": 64, "velocity": 80, "note_on_time": 1.754, "note_off_time": 1.972}, {"pitch": 42, "velocity": 80, "note_on_time": 1.754, "note_off_time": 1.972}, {"pitch": 67, "velocity": 80, "note_on_time": 1.972, "note_off_time": 2.191}, {"pitch": 42, "velocity": 80, "note_on_time": 1.972, "note_off_time": 2.191}, {"pitch": 42, "velocity": 80, "note_on_time": 2.191, "note_off_time": 2.409}, {"pitch": 67, "velocity": 80, "note_on_time": 2.409, "note_off_time": 2.629}, {"pitch": 42, "velocity": 80, "note_on_time": 2.409, "note_off_time": 2.629}, {"pitch": 67, "velocity": 80, "note_on_time": 2.629, "note_off_time": 2.847}, {"pitch": 42, "velocity": 80, "note_on_time": 2.629, "note_off_time": 2.847}, {"pitch": 67, "velocity": 80, "note_on_time": 2.847, "note_off_time": 3.065}, {"pitch": 42, "velocity": 80, "note_on_time": 2.848, "note_off_time": 3.065}, {"pitch": 65, "velocity": 80, "note_on_time": 3.065, "note_off_time": 3.284}, {"pitch": 42, "velocity": 80, "note_on_time": 3.065, "note_off_time": 3.284}, {"pitch": 62, "velocity": 80, "note_on_time": 3.284, "note_off_time": 3.503}, {"pitch": 42, "velocity": 80, "note_on_time": 3.284, "note_off_time": 3.503}, {"pitch": 42, "velocity": 80, "note_on_time": 3.503, "note_off_time": 3.721}, {"pitch": 65, "velocity": 80, "note_on_time": 3.503, "note_off_time": 3.939}, {"pitch": 42, "velocity": 80, "note_on_time": 3.721, "note_off_time": 3.939}, {"pitch": 42, "velocity": 80, "note_on_time": 3.939, "note_off_time": 4.157}, {"pitch": 65, "velocity": 80, "note_on_time": 4.157, "note_off_time": 4.375}, {"pitch": 42, "velocity": 80, "note_on_time": 4.157, "note_off_time": 4.375}, {"pitch": 60, "velocity": 80, "note_on_time": 4.375, "note_off_time": 4.594}, {"pitch": 42, "velocity": 80, "note_on_time": 4.375, "note_off_time": 4.595}, {"pitch": 67, "velocity": 80, "note_on_time": 4.594, "note_off_time": 4.811}, {"pitch": 42, "velocity": 80, "note_on_time": 4.595, "note_off_time": 4.811}, {"pitch": 64, "velocity": 80, "note_on_time": 4.811, "note_off_time": 5.029}, {"pitch": 42, "velocity": 80, "note_on_time": 4.811, "note_off_time": 5.029}, {"pitch": 65, "velocity": 80, "note_on_time": 5.029, "note_off_time": 5.247}, {"pitch": 42, "velocity": 80, "note_on_time": 5.029, "note_off_time": 5.247}, {"pitch": 64, "velocity": 80, "note_on_time": 5.247, "note_off_time": 5.467}, {"pitch": 42, "velocity": 80, "note_on_time": 5.247, "note_off_time": 5.467}, {"pitch": 42, "velocity": 80, "note_on_time": 5.467, "note_off_time": 5.686}, {"pitch": 67, "velocity": 80, "note_on_time": 5.467, "note_off_time": 5.904}, {"pitch": 42, "velocity": 80, "note_on_time": 5.686, "note_off_time": 5.904}, {"pitch": 60, "velocity": 80, "note_on_time": 5.904, "note_off_time": 6.123}, {"pitch": 42, "velocity": 80, "note_on_time": 5.904, "note_off_time": 6.123}, {"pitch": 60, "velocity": 80, "note_on_time": 6.123, "note_off_time": 6.339}, {"pitch": 42, "velocity": 80, "note_on_time": 6.123, "note_off_time": 6.339}, {"pitch": 42, "velocity": 80, "note_on_time": 6.339, "note_off_time": 6.557}, {"pitch": 42, "velocity": 80, "note_on_time": 6.557, "note_off_time": 6.775}, {"pitch": 64, "velocity": 80, "note_on_time": 6.775, "note_off_time": 6.992}, {"pitch": 42, "velocity": 80, "note_on_time": 6.776, "note_off_time": 6.992}, {"pitch": 42, "velocity": 80, "note_on_time": 6.992, "note_off_time": 7.209}, {"pitch": 64, "velocity": 80, "note_on_time": 7.209, "note_off_time": 7.425}, {"pitch": 42, "velocity": 80, "note_on_time": 7.209, "note_off_time": 7.425}, {"pitch": 64, "velocity": 80, "note_on_time": 7.425, "note_off_time": 7.644}, {"pitch": 42, "velocity": 80, "note_on_time": 7.426, "note_off_time": 7.644}, {"pitch": 64, "velocity": 80, "note_on_time": 7.644, "note_off_time": 7.862}, {"pitch": 42, "velocity": 80, "note_on_time": 7.644, "note_off_time": 7.862}]</notes><options name="Option List">((4, 4), [0.5, 0.25], 3, 8, &lt;NoteRangePerHand.C_TO_G: 6&gt;, &lt;NoteRangePerHand.ONE_NOTE: 2&gt;, False, True, False, 281)</options></target_notes><trials><trial trial_no="1" timestamp="2022_12_01-10_37_41"><notes name="Played Notes">[{"pitch": 64, "velocity": 71, "note_on_time": 0.859, "note_off_time": 1.057}, {"pitch": 65, "velocity": 82, "note_on_time": 1.014, "note_off_time": 1.273}, {"pitch": 67, "velocity": 77, "note_on_time": 1.257, "note_off_time": 1.454}, {"pitch": 64, "velocity": 79, "note_on_time": 1.437, "note_off_time": 1.638}, {"pitch": 67, "velocity": 88, "note_on_time": 1.624, "note_off_time": 2.035}, {"pitch": 67, "velocity": 80, "note_on_time": 2.274, "note_off_time": 2.348}, {"pitch": 67, "velocity": 77, "note_on_time": 2.442, "note_off_time": 2.53}, {"pitch": 67, "velocity": 73, "note_on_time": 2.634, "note_off_time": 2.874}, {"pitch": 65, "velocity": 75, "note_on_time": 2.847, "note_off_time": 3.016}, {"pitch": 62, "velocity": 69, "note_on_time": 3.024, "note_off_time": 3.282}, {"pitch": 65, "velocity": 86, "note_on_time": 3.252, "note_off_time": 3.781}, {"pitch": 65, "velocity": 81, "note_on_time": 3.931, "note_off_time": 4.124}, {"pitch": 60, "velocity": 81, "note_on_time": 4.131, "note_off_time": 4.336}, {"pitch": 67, "velocity": 72, "note_on_time": 4.331, "note_off_time": 4.554}, {"pitch": 64, "velocity": 70, "note_on_time": 4.535, "note_off_time": 4.75}, {"pitch": 65, "velocity": 77, "note_on_time": 4.724, "note_off_time": 4.953}, {"pitch": 64, "velocity": 83, "note_on_time": 4.95, "note_off_time": 5.158}, {"pitch": 67, "velocity": 93, "note_on_time": 5.135, "note_off_time": 5.574}, {"pitch": 60, "velocity": 84, "note_on_time": 5.566, "note_off_time": 5.706}, {"pitch": 60, "velocity": 90, "note_on_time": 5.893, "note_off_time": 6.022}, {"pitch": 64, "velocity": 78, "note_on_time": 6.317, "note_off_time": 6.414}, {"pitch": 64, "velocity": 87, "note_on_time": 6.964, "note_off_time": 7.03}, {"pitch": 64, "velocity": 73, "note_on_time": 7.155, "note_off_time": 7.221}, {"pitch": 64, "velocity": 87, "note_on_time": 7.356, "note_off_time": 7.454}]</notes><guidance name="Guidance Mode">None</guidance><error name="Error value">0.06821976190476195</error></trial></trials></MIDI>