<MIDI midiNo="2022_08_17-19_12_37"><target_notes><notes name="Note List">[{"pitch": 42, "velocity": 80, "note_on_time": 0.004, "note_off_time": 1.214}, {"pitch": 42, "velocity": 80, "note_on_time": 1.215, "note_off_time": 2.418}, {"pitch": 42, "velocity": 80, "note_on_time": 2.418, "note_off_time": 3.632}, {"pitch": 42, "velocity": 80, "note_on_time": 3.632, "note_off_time": 4.833}, {"pitch": 67, "velocity": 80, "note_on_time": 4.833, "note_off_time": 6.035}, {"pitch": 42, "velocity": 80, "note_on_time": 4.833, "note_off_time": 6.035}, {"pitch": 65, "velocity": 80, "note_on_time": 6.035, "note_off_time": 7.25}, {"pitch": 42, "velocity": 80, "note_on_time": 6.035, "note_off_time": 7.25}, {"pitch": 42, "velocity": 80, "note_on_time": 7.25, "note_off_time": 8.453}, {"pitch": 62, "velocity": 80, "note_on_time": 7.25, "note_off_time": 9.661}, {"pitch": 42, "velocity": 80, "note_on_time": 8.453, "note_off_time": 9.661}, {"pitch": 65, "velocity": 80, "note_on_time": 9.661, "note_off_time": 10.868}, {"pitch": 42, "velocity": 80, "note_on_time": 9.661, "note_off_time": 10.868}, {"pitch": 64, "velocity": 80, "note_on_time": 10.868, "note_off_time": 12.07}, {"pitch": 42, "velocity": 80, "note_on_time": 10.868, "note_off_time": 12.07}, {"pitch": 65, "velocity": 80, "note_on_time": 12.07, "note_off_time": 13.275}, {"pitch": 42, "velocity": 80, "note_on_time": 12.07, "note_off_time": 13.275}, {"pitch": 64, "velocity": 80, "note_on_time": 13.275, "note_off_time": 14.48}, {"pitch": 42, "velocity": 80, "note_on_time": 13.276, "note_off_time": 14.48}, {"pitch": 42, "velocity": 80, "note_on_time": 14.48, "note_off_time": 15.682}, {"pitch": 62, "velocity": 80, "note_on_time": 14.48, "note_off_time": 16.886}, {"pitch": 42, "velocity": 80, "note_on_time": 15.683, "note_off_time": 16.887}, {"pitch": 42, "velocity": 80, "note_on_time": 16.887, "note_off_time": 18.088}, {"pitch": 42, "velocity": 80, "note_on_time": 18.088, "note_off_time": 19.303}, {"pitch": 42, "velocity": 80, "note_on_time": 19.304, "note_off_time": 20.508}, {"pitch": 62, "velocity": 80, "note_on_time": 19.303, "note_off_time": 21.716}, {"pitch": 42, "velocity": 80, "note_on_time": 20.509, "note_off_time": 21.716}, {"pitch": 42, "velocity": 80, "note_on_time": 21.717, "note_off_time": 22.919}, {"pitch": 42, "velocity": 80, "note_on_time": 22.919, "note_off_time": 24.121}, {"pitch": 42, "velocity": 80, "note_on_time": 24.121, "note_off_time": 25.325}, {"pitch": 64, "velocity": 80, "note_on_time": 24.12, "note_off_time": 26.528}, {"pitch": 42, "velocity": 80, "note_on_time": 25.325, "note_off_time": 26.528}, {"pitch": 42, "velocity": 80, "note_on_time": 26.528, "note_off_time": 27.73}, {"pitch": 42, "velocity": 80, "note_on_time": 27.73, "note_off_time": 28.932}, {"pitch": 42, "velocity": 80, "note_on_time": 28.932, "note_off_time": 30.136}, {"pitch": 67, "velocity": 80, "note_on_time": 28.932, "note_off_time": 31.343}, {"pitch": 42, "velocity": 80, "note_on_time": 30.136, "note_off_time": 31.343}, {"pitch": 42, "velocity": 80, "note_on_time": 31.344, "note_off_time": 32.552}, {"pitch": 42, "velocity": 80, "note_on_time": 32.552, "note_off_time": 33.753}, {"pitch": 67, "velocity": 80, "note_on_time": 33.753, "note_off_time": 34.958}, {"pitch": 42, "velocity": 80, "note_on_time": 33.753, "note_off_time": 34.958}, {"pitch": 60, "velocity": 80, "note_on_time": 34.958, "note_off_time": 36.16}, {"pitch": 42, "velocity": 80, "note_on_time": 34.958, "note_off_time": 36.16}, {"pitch": 67, "velocity": 80, "note_on_time": 36.16, "note_off_time": 37.362}, {"pitch": 42, "velocity": 80, "note_on_time": 36.16, "note_off_time": 37.363}, {"pitch": 64, "velocity": 80, "note_on_time": 37.362, "note_off_time": 38.565}, {"pitch": 42, "velocity": 80, "note_on_time": 37.363, "note_off_time": 38.565}, {"pitch": 42, "velocity": 80, "note_on_time": 38.566, "note_off_time": 39.767}, {"pitch": 64, "velocity": 80, "note_on_time": 39.767, "note_off_time": 40.968}, {"pitch": 42, "velocity": 80, "note_on_time": 39.768, "note_off_time": 40.968}, {"pitch": 64, "velocity": 80, "note_on_time": 40.968, "note_off_time": 42.17}, {"pitch": 42, "velocity": 80, "note_on_time": 40.968, "note_off_time": 42.17}, {"pitch": 64, "velocity": 80, "note_on_time": 42.17, "note_off_time": 43.372}, {"pitch": 42, "velocity": 80, "note_on_time": 42.17, "note_off_time": 43.373}]</notes><options name="Option List">((4, 4), [0.5, 0.25], 3, 8, &lt;NoteRangePerHand.C_TO_G: 6&gt;, &lt;NoteRangePerHand.ONE_NOTE: 2&gt;, False, True, True, 50)</options></target_notes><trials><trial trial_no="1" timestamp="2022_08_17-19_11_53"><notes name="Played Notes">[{"pitch": 67, "velocity": 66, "note_on_time": 4.908, "note_off_time": 6.012}, {"pitch": 64, "velocity": 65, "note_on_time": 6.015, "note_off_time": 7.179}, {"pitch": 60, "velocity": 68, "note_on_time": 7.207, "note_off_time": 9.727}, {"pitch": 64, "velocity": 76, "note_on_time": 9.709, "note_off_time": 10.826}, {"pitch": 62, "velocity": 65, "note_on_time": 10.859, "note_off_time": 12.017}, {"pitch": 64, "velocity": 72, "note_on_time": 12.019, "note_off_time": 13.24}, {"pitch": 62, "velocity": 68, "note_on_time": 13.255, "note_off_time": 14.453}, {"pitch": 60, "velocity": 72, "note_on_time": 14.459, "note_off_time": 16.708}, {"pitch": 60, "velocity": 63, "note_on_time": 19.277, "note_off_time": 21.652}, {"pitch": 62, "velocity": 63, "note_on_time": 24.088, "note_off_time": 26.433}, {"pitch": 67, "velocity": 77, "note_on_time": 28.855, "note_off_time": 31.34}, {"pitch": 67, "velocity": 79, "note_on_time": 33.748, "note_off_time": 34.713}, {"pitch": 60, "velocity": 82, "note_on_time": 34.941, "note_off_time": 36.142}, {"pitch": 67, "velocity": 71, "note_on_time": 36.141, "note_off_time": 37.318}, {"pitch": 64, "velocity": 74, "note_on_time": 37.322, "note_off_time": 38.455}, {"pitch": 64, "velocity": 81, "note_on_time": 39.705, "note_off_time": 40.624}, {"pitch": 64, "velocity": 77, "note_on_time": 40.915, "note_off_time": 41.77}, {"pitch": 64, "velocity": 73, "note_on_time": 42.165, "note_off_time": 43.205}]</notes><guidance name="Guidance Mode">None</guidance><error name="Error value">0.6394000000000007</error></trial><trial trial_no="2" timestamp="2022_08_17-19_13_03"><notes name="Played Notes">[{"pitch": 67, "velocity": 74, "note_on_time": 4.887, "note_off_time": 6.009}, {"pitch": 65, "velocity": 72, "note_on_time": 6.007, "note_off_time": 7.119}, {"pitch": 60, "velocity": 74, "note_on_time": 7.141, "note_off_time": 9.365}, {"pitch": 64, "velocity": 52, "note_on_time": 10.903, "note_off_time": 12.148}, {"pitch": 62, "velocity": 19, "note_on_time": 12.068, "note_off_time": 13.152}, {"pitch": 64, "velocity": 62, "note_on_time": 13.162, "note_off_time": 14.385}, {"pitch": 62, "velocity": 79, "note_on_time": 14.401, "note_off_time": 16.447}, {"pitch": 62, "velocity": 78, "note_on_time": 19.264, "note_off_time": 21.694}, {"pitch": 64, "velocity": 76, "note_on_time": 24.09, "note_off_time": 26.374}, {"pitch": 67, "velocity": 77, "note_on_time": 28.91, "note_off_time": 31.162}, {"pitch": 67, "velocity": 75, "note_on_time": 33.787, "note_off_time": 34.971}, {"pitch": 60, "velocity": 77, "note_on_time": 35.01, "note_off_time": 35.647}, {"pitch": 67, "velocity": 74, "note_on_time": 36.145, "note_off_time": 37.316}, {"pitch": 64, "velocity": 70, "note_on_time": 37.307, "note_off_time": 38.132}, {"pitch": 64, "velocity": 72, "note_on_time": 39.799, "note_off_time": 40.594}, {"pitch": 64, "velocity": 76, "note_on_time": 41.014, "note_off_time": 41.786}, {"pitch": 64, "velocity": 75, "note_on_time": 42.247, "note_off_time": 43.006}]</notes><guidance name="Guidance Mode">None</guidance><error name="Error value">0.331866666666666</error></trial><trial trial_no="3" timestamp="2022_08_17-19_13_57"><notes name="Played Notes">[{"pitch": 67, "velocity": 69, "note_on_time": 4.825, "note_off_time": 6.029}, {"pitch": 65, "velocity": 69, "note_on_time": 6.034, "note_off_time": 7.194}, {"pitch": 62, "velocity": 79, "note_on_time": 7.203, "note_off_time": 9.607}, {"pitch": 65, "velocity": 74, "note_on_time": 9.64, "note_off_time": 10.742}, {"pitch": 64, "velocity": 73, "note_on_time": 10.747, "note_off_time": 12.005}, {"pitch": 65, "velocity": 68, "note_on_time": 12.029, "note_off_time": 13.23}, {"pitch": 64, "velocity": 73, "note_on_time": 13.223, "note_off_time": 14.458}, {"pitch": 62, "velocity": 72, "note_on_time": 14.458, "note_off_time": 16.791}, {"pitch": 62, "velocity": 77, "note_on_time": 19.269, "note_off_time": 21.745}, {"pitch": 65, "velocity": 79, "note_on_time": 24.09, "note_off_time": 26.383}, {"pitch": 67, "velocity": 87, "note_on_time": 28.837, "note_off_time": 31.247}, {"pitch": 67, "velocity": 73, "note_on_time": 33.751, "note_off_time": 34.917}, {"pitch": 60, "velocity": 64, "note_on_time": 34.942, "note_off_time": 36.134}, {"pitch": 67, "velocity": 71, "note_on_time": 36.109, "note_off_time": 37.286}, {"pitch": 64, "velocity": 67, "note_on_time": 37.291, "note_off_time": 38.422}, {"pitch": 64, "velocity": 79, "note_on_time": 39.748, "note_off_time": 40.615}, {"pitch": 64, "velocity": 76, "note_on_time": 40.971, "note_off_time": 41.733}, {"pitch": 64, "velocity": 76, "note_on_time": 42.168, "note_off_time": 42.586}]</notes><guidance name="Guidance Mode">None</guidance><error name="Error value">0.1090000000000001</error></trial><trial trial_no="4" timestamp="2022_08_17-19_15_31"><notes name="Played Notes">[{"pitch": 62, "velocity": 76, "note_on_time": 4.794, "note_off_time": 6.044}, {"pitch": 64, "velocity": 77, "note_on_time": 6.041, "note_off_time": 7.18}, {"pitch": 62, "velocity": 72, "note_on_time": 7.179, "note_off_time": 8.408}, {"pitch": 64, "velocity": 74, "note_on_time": 8.382, "note_off_time": 9.537}, {"pitch": 60, "velocity": 77, "note_on_time": 9.568, "note_off_time": 10.791}, {"pitch": 65, "velocity": 78, "note_on_time": 10.784, "note_off_time": 12.055}, {"pitch": 67, "velocity": 64, "note_on_time": 12.064, "note_off_time": 13.227}, {"pitch": 64, "velocity": 72, "note_on_time": 13.221, "note_off_time": 14.455}, {"pitch": 65, "velocity": 74, "note_on_time": 14.462, "note_off_time": 14.986}, {"pitch": 62, "velocity": 61, "note_on_time": 19.272, "note_off_time": 20.458}, {"pitch": 64, "velocity": 70, "note_on_time": 20.438, "note_off_time": 21.703}, {"pitch": 62, "velocity": 72, "note_on_time": 21.716, "note_off_time": 22.7}, {"pitch": 62, "velocity": 71, "note_on_time": 22.921, "note_off_time": 24.098}, {"pitch": 60, "velocity": 47, "note_on_time": 24.138, "note_off_time": 25.332}, {"pitch": 62, "velocity": 67, "note_on_time": 25.335, "note_off_time": 26.244}, {"pitch": 62, "velocity": 71, "note_on_time": 26.546, "note_off_time": 27.791}, {"pitch": 64, "velocity": 74, "note_on_time": 27.748, "note_off_time": 28.917}, {"pitch": 65, "velocity": 72, "note_on_time": 28.921, "note_off_time": 30.106}, {"pitch": 64, "velocity": 75, "note_on_time": 30.115, "note_off_time": 30.989}, {"pitch": 60, "velocity": 68, "note_on_time": 34.986, "note_off_time": 36.016}, {"pitch": 62, "velocity": 74, "note_on_time": 38.608, "note_off_time": 38.706}, {"pitch": 64, "velocity": 18, "note_on_time": 38.633, "note_off_time": 39.095}, {"pitch": 62, "velocity": 59, "note_on_time": 39.096, "note_off_time": 39.71}, {"pitch": 62, "velocity": 77, "note_on_time": 40.934, "note_off_time": 41.575}, {"pitch": 62, "velocity": 68, "note_on_time": 42.154, "note_off_time": 42.662}]</notes><guidance name="Guidance Mode">None</guidance><error name="Error value">9.012333333333334</error></trial><trial trial_no="5" timestamp="2022_08_17-19_16_31"><notes name="Played Notes">[{"pitch": 62, "velocity": 68, "note_on_time": 4.766, "note_off_time": 5.957}, {"pitch": 64, "velocity": 70, "note_on_time": 5.957, "note_off_time": 7.164}, {"pitch": 62, "velocity": 64, "note_on_time": 7.174, "note_off_time": 8.386}, {"pitch": 64, "velocity": 67, "note_on_time": 8.376, "note_off_time": 9.56}, {"pitch": 60, "velocity": 66, "note_on_time": 9.568, "note_off_time": 10.857}, {"pitch": 64, "velocity": 74, "note_on_time": 10.811, "note_off_time": 12.032}, {"pitch": 67, "velocity": 62, "note_on_time": 12.101, "note_off_time": 13.266}, {"pitch": 64, "velocity": 62, "note_on_time": 13.268, "note_off_time": 14.472}, {"pitch": 65, "velocity": 73, "note_on_time": 14.462, "note_off_time": 15.457}, {"pitch": 62, "velocity": 67, "note_on_time": 19.222, "note_off_time": 20.458}, {"pitch": 64, "velocity": 70, "note_on_time": 20.442, "note_off_time": 21.652}, {"pitch": 62, "velocity": 67, "note_on_time": 21.66, "note_off_time": 22.847}, {"pitch": 60, "velocity": 68, "note_on_time": 22.862, "note_off_time": 24.109}, {"pitch": 62, "velocity": 69, "note_on_time": 24.131, "note_off_time": 25.012}, {"pitch": 62, "velocity": 68, "note_on_time": 25.347, "note_off_time": 26.468}, {"pitch": 64, "velocity": 60, "note_on_time": 26.493, "note_off_time": 27.625}, {"pitch": 65, "velocity": 69, "note_on_time": 27.638, "note_off_time": 28.875}, {"pitch": 64, "velocity": 78, "note_on_time": 28.876, "note_off_time": 31.194}, {"pitch": 60, "velocity": 76, "note_on_time": 33.721, "note_off_time": 34.541}, {"pitch": 62, "velocity": 70, "note_on_time": 37.392, "note_off_time": 38.008}, {"pitch": 62, "velocity": 75, "note_on_time": 39.784, "note_off_time": 40.499}, {"pitch": 62, "velocity": 77, "note_on_time": 40.978, "note_off_time": 41.691}, {"pitch": 62, "velocity": 79, "note_on_time": 42.179, "note_off_time": 42.755}]</notes><guidance name="Guidance Mode">None</guidance><error name="Error value">6.846666666666669</error></trial><trial trial_no="6" timestamp="2022_08_17-19_17_38"><notes name="Played Notes">[{"pitch": 62, "velocity": 81, "note_on_time": 4.778, "note_off_time": 6.022}, {"pitch": 64, "velocity": 80, "note_on_time": 6.0, "note_off_time": 7.182}, {"pitch": 62, "velocity": 75, "note_on_time": 7.183, "note_off_time": 8.405}, {"pitch": 64, "velocity": 76, "note_on_time": 8.394, "note_off_time": 9.63}, {"pitch": 60, "velocity": 74, "note_on_time": 9.629, "note_off_time": 10.819}, {"pitch": 65, "velocity": 77, "note_on_time": 10.807, "note_off_time": 12.001}, {"pitch": 67, "velocity": 74, "note_on_time": 12.014, "note_off_time": 13.226}, {"pitch": 64, "velocity": 75, "note_on_time": 13.239, "note_off_time": 14.502}, {"pitch": 65, "velocity": 72, "note_on_time": 14.498, "note_off_time": 15.265}, {"pitch": 62, "velocity": 74, "note_on_time": 19.296, "note_off_time": 20.489}, {"pitch": 64, "velocity": 79, "note_on_time": 20.482, "note_off_time": 21.664}, {"pitch": 62, "velocity": 74, "note_on_time": 21.655, "note_off_time": 22.824}, {"pitch": 60, "velocity": 70, "note_on_time": 22.83, "note_off_time": 24.095}, {"pitch": 62, "velocity": 69, "note_on_time": 24.085, "note_off_time": 25.019}, {"pitch": 62, "velocity": 74, "note_on_time": 25.334, "note_off_time": 26.527}, {"pitch": 64, "velocity": 71, "note_on_time": 26.543, "note_off_time": 27.713}, {"pitch": 65, "velocity": 74, "note_on_time": 27.736, "note_off_time": 28.91}, {"pitch": 64, "velocity": 81, "note_on_time": 28.913, "note_off_time": 30.985}, {"pitch": 60, "velocity": 75, "note_on_time": 33.697, "note_off_time": 34.553}, {"pitch": 62, "velocity": 75, "note_on_time": 37.397, "note_off_time": 38.327}, {"pitch": 62, "velocity": 72, "note_on_time": 39.756, "note_off_time": 40.394}, {"pitch": 62, "velocity": 73, "note_on_time": 40.983, "note_off_time": 41.515}, {"pitch": 62, "velocity": 79, "note_on_time": 42.078, "note_off_time": 42.812}]</notes><guidance name="Guidance Mode">None</guidance><error name="Error value">7.1593333333333256</error></trial></trials></MIDI>