<MIDI midiNo="2022_12_08-10_43_46"><target_notes><notes name="Note List">[{"pitch": 42, "velocity": 80, "note_on_time": 0.004, "note_off_time": 0.261}, {"pitch": 42, "velocity": 80, "note_on_time": 0.261, "note_off_time": 0.51}, {"pitch": 42, "velocity": 80, "note_on_time": 0.51, "note_off_time": 0.762}, {"pitch": 42, "velocity": 80, "note_on_time": 0.762, "note_off_time": 1.01}, {"pitch": 67, "velocity": 80, "note_on_time": 1.01, "note_off_time": 1.26}, {"pitch": 42, "velocity": 80, "note_on_time": 1.01, "note_off_time": 1.26}, {"pitch": 62, "velocity": 80, "note_on_time": 1.26, "note_off_time": 1.511}, {"pitch": 42, "velocity": 80, "note_on_time": 1.26, "note_off_time": 1.511}, {"pitch": 62, "velocity": 80, "note_on_time": 1.511, "note_off_time": 1.761}, {"pitch": 42, "velocity": 80, "note_on_time": 1.511, "note_off_time": 1.761}, {"pitch": 64, "velocity": 80, "note_on_time": 1.761, "note_off_time": 2.009}, {"pitch": 42, "velocity": 80, "note_on_time": 1.761, "note_off_time": 2.009}, {"pitch": 60, "velocity": 80, "note_on_time": 2.009, "note_off_time": 2.259}, {"pitch": 42, "velocity": 80, "note_on_time": 2.009, "note_off_time": 2.259}, {"pitch": 62, "velocity": 80, "note_on_time": 2.259, "note_off_time": 2.509}, {"pitch": 42, "velocity": 80, "note_on_time": 2.259, "note_off_time": 2.509}, {"pitch": 42, "velocity": 80, "note_on_time": 2.509, "note_off_time": 2.759}, {"pitch": 67, "velocity": 80, "note_on_time": 2.759, "note_off_time": 3.009}, {"pitch": 42, "velocity": 80, "note_on_time": 2.759, "note_off_time": 3.009}, {"pitch": 67, "velocity": 80, "note_on_time": 3.009, "note_off_time": 3.258}, {"pitch": 42, "velocity": 80, "note_on_time": 3.009, "note_off_time": 3.258}, {"pitch": 65, "velocity": 80, "note_on_time": 3.258, "note_off_time": 3.508}, {"pitch": 42, "velocity": 80, "note_on_time": 3.258, "note_off_time": 3.508}, {"pitch": 62, "velocity": 80, "note_on_time": 3.508, "note_off_time": 3.758}, {"pitch": 42, "velocity": 80, "note_on_time": 3.508, "note_off_time": 3.758}, {"pitch": 62, "velocity": 80, "note_on_time": 3.758, "note_off_time": 4.008}, {"pitch": 42, "velocity": 80, "note_on_time": 3.758, "note_off_time": 4.008}, {"pitch": 67, "velocity": 80, "note_on_time": 4.008, "note_off_time": 4.259}, {"pitch": 42, "velocity": 80, "note_on_time": 4.008, "note_off_time": 4.259}, {"pitch": 62, "velocity": 80, "note_on_time": 4.259, "note_off_time": 4.507}, {"pitch": 42, "velocity": 80, "note_on_time": 4.259, "note_off_time": 4.507}, {"pitch": 42, "velocity": 80, "note_on_time": 4.507, "note_off_time": 4.756}, {"pitch": 42, "velocity": 80, "note_on_time": 4.756, "note_off_time": 5.004}, {"pitch": 42, "velocity": 80, "note_on_time": 5.004, "note_off_time": 5.255}, {"pitch": 60, "velocity": 80, "note_on_time": 5.004, "note_off_time": 5.507}, {"pitch": 42, "velocity": 80, "note_on_time": 5.255, "note_off_time": 5.507}, {"pitch": 42, "velocity": 80, "note_on_time": 5.507, "note_off_time": 5.756}, {"pitch": 60, "velocity": 80, "note_on_time": 5.756, "note_off_time": 6.006}, {"pitch": 42, "velocity": 80, "note_on_time": 5.756, "note_off_time": 6.006}, {"pitch": 64, "velocity": 80, "note_on_time": 6.006, "note_off_time": 6.254}, {"pitch": 42, "velocity": 80, "note_on_time": 6.006, "note_off_time": 6.254}, {"pitch": 65, "velocity": 80, "note_on_time": 6.254, "note_off_time": 6.505}, {"pitch": 42, "velocity": 80, "note_on_time": 6.254, "note_off_time": 6.505}, {"pitch": 60, "velocity": 80, "note_on_time": 6.505, "note_off_time": 6.754}, {"pitch": 42, "velocity": 80, "note_on_time": 6.505, "note_off_time": 6.754}, {"pitch": 67, "velocity": 80, "note_on_time": 6.754, "note_off_time": 7.004}, {"pitch": 42, "velocity": 80, "note_on_time": 6.754, "note_off_time": 7.004}, {"pitch": 62, "velocity": 80, "note_on_time": 7.004, "note_off_time": 7.253}, {"pitch": 42, "velocity": 80, "note_on_time": 7.004, "note_off_time": 7.253}, {"pitch": 42, "velocity": 80, "note_on_time": 7.253, "note_off_time": 7.501}, {"pitch": 42, "velocity": 80, "note_on_time": 7.501, "note_off_time": 7.752}, {"pitch": 42, "velocity": 80, "note_on_time": 7.752, "note_off_time": 8.0}, {"pitch": 42, "velocity": 80, "note_on_time": 8.0, "note_off_time": 8.249}, {"pitch": 62, "velocity": 80, "note_on_time": 8.249, "note_off_time": 8.498}, {"pitch": 42, "velocity": 80, "note_on_time": 8.249, "note_off_time": 8.498}, {"pitch": 62, "velocity": 80, "note_on_time": 8.498, "note_off_time": 8.748}, {"pitch": 42, "velocity": 80, "note_on_time": 8.498, "note_off_time": 8.748}, {"pitch": 62, "velocity": 80, "note_on_time": 8.748, "note_off_time": 8.996}, {"pitch": 42, "velocity": 80, "note_on_time": 8.748, "note_off_time": 8.996}]</notes><options name="Option List">((4, 4), [0.5, 0.25], 3, 8, &lt;NoteRangePerHand.C_TO_G: 6&gt;, &lt;NoteRangePerHand.ONE_NOTE: 2&gt;, False, True, False, '248')</options></target_notes><trials><trial trial_no="1" timestamp="2022_12_08-10_43_35"><notes name="Played Notes">[{"pitch": 67, "velocity": 69, "note_on_time": 0.16, "note_off_time": 0.427}, {"pitch": 62, "velocity": 68, "note_on_time": 0.431, "note_off_time": 0.561}, {"pitch": 62, "velocity": 59, "note_on_time": 0.702, "note_off_time": 0.919}, {"pitch": 64, "velocity": 71, "note_on_time": 0.925, "note_off_time": 1.178}, {"pitch": 60, "velocity": 61, "note_on_time": 1.161, "note_off_time": 1.398}, {"pitch": 62, "velocity": 65, "note_on_time": 1.431, "note_off_time": 1.753}, {"pitch": 67, "velocity": 72, "note_on_time": 2.044, "note_off_time": 2.175}, {"pitch": 67, "velocity": 66, "note_on_time": 2.328, "note_off_time": 2.57}, {"pitch": 65, "velocity": 61, "note_on_time": 2.582, "note_off_time": 2.837}, {"pitch": 62, "velocity": 65, "note_on_time": 2.833, "note_off_time": 2.941}, {"pitch": 62, "velocity": 48, "note_on_time": 3.124, "note_off_time": 3.418}, {"pitch": 67, "velocity": 36, "note_on_time": 3.665, "note_off_time": 3.874}, {"pitch": 62, "velocity": 70, "note_on_time": 3.883, "note_off_time": 4.182}, {"pitch": 60, "velocity": 70, "note_on_time": 4.883, "note_off_time": 5.378}, {"pitch": 60, "velocity": 83, "note_on_time": 5.722, "note_off_time": 5.944}, {"pitch": 65, "velocity": 66, "note_on_time": 6.07, "note_off_time": 6.144}, {"pitch": 64, "velocity": 51, "note_on_time": 6.191, "note_off_time": 6.418}, {"pitch": 65, "velocity": 68, "note_on_time": 6.435, "note_off_time": 6.678}, {"pitch": 60, "velocity": 70, "note_on_time": 6.672, "note_off_time": 6.936}, {"pitch": 60, "velocity": 46, "note_on_time": 7.249, "note_off_time": 7.278}, {"pitch": 67, "velocity": 59, "note_on_time": 6.957, "note_off_time": 7.33}, {"pitch": 62, "velocity": 22, "note_on_time": 7.489, "note_off_time": 7.747}, {"pitch": 62, "velocity": 54, "note_on_time": 8.563, "note_off_time": 8.643}, {"pitch": 62, "velocity": 68, "note_on_time": 8.807, "note_off_time": 8.903}]</notes><guidance name="Guidance Mode">None</guidance><error name="Error value">0.42207924999999996</error></trial><trial trial_no="2" timestamp="2022_12_08-10_43_59"><notes name="Played Notes">[{"pitch": 67, "velocity": 72, "note_on_time": 0.449, "note_off_time": 0.709}, {"pitch": 62, "velocity": 67, "note_on_time": 0.69, "note_off_time": 0.818}, {"pitch": 62, "velocity": 66, "note_on_time": 0.971, "note_off_time": 1.201}, {"pitch": 64, "velocity": 73, "note_on_time": 1.205, "note_off_time": 1.475}, {"pitch": 60, "velocity": 77, "note_on_time": 1.483, "note_off_time": 1.7}, {"pitch": 62, "velocity": 60, "note_on_time": 1.732, "note_off_time": 2.065}, {"pitch": 67, "velocity": 82, "note_on_time": 2.305, "note_off_time": 2.433}, {"pitch": 67, "velocity": 75, "note_on_time": 2.559, "note_off_time": 2.786}, {"pitch": 65, "velocity": 64, "note_on_time": 2.811, "note_off_time": 3.072}, {"pitch": 62, "velocity": 64, "note_on_time": 3.067, "note_off_time": 3.178}, {"pitch": 62, "velocity": 56, "note_on_time": 3.316, "note_off_time": 3.568}, {"pitch": 67, "velocity": 63, "note_on_time": 3.578, "note_off_time": 3.838}, {"pitch": 62, "velocity": 59, "note_on_time": 3.843, "note_off_time": 4.261}, {"pitch": 60, "velocity": 68, "note_on_time": 4.559, "note_off_time": 5.138}, {"pitch": 60, "velocity": 71, "note_on_time": 5.348, "note_off_time": 5.504}, {"pitch": 64, "velocity": 71, "note_on_time": 5.604, "note_off_time": 5.843}, {"pitch": 65, "velocity": 57, "note_on_time": 5.878, "note_off_time": 6.144}, {"pitch": 60, "velocity": 76, "note_on_time": 6.144, "note_off_time": 6.391}, {"pitch": 67, "velocity": 75, "note_on_time": 6.402, "note_off_time": 6.663}, {"pitch": 64, "velocity": 62, "note_on_time": 6.657, "note_off_time": 6.877}, {"pitch": 62, "velocity": 70, "note_on_time": 7.933, "note_off_time": 8.042}, {"pitch": 62, "velocity": 79, "note_on_time": 8.202, "note_off_time": 8.288}, {"pitch": 62, "velocity": 77, "note_on_time": 8.457, "note_off_time": 8.581}]</notes><guidance name="Guidance Mode">None</guidance><error name="Error value">0.07726825000000015</error></trial><trial trial_no="3" timestamp="2022_12_08-10_44_21"><notes name="Played Notes">[{"pitch": 67, "velocity": 59, "note_on_time": 0.671, "note_off_time": 0.92}, {"pitch": 62, "velocity": 70, "note_on_time": 0.907, "note_off_time": 1.026}, {"pitch": 62, "velocity": 55, "note_on_time": 1.196, "note_off_time": 1.426}, {"pitch": 64, "velocity": 70, "note_on_time": 1.434, "note_off_time": 1.692}, {"pitch": 60, "velocity": 68, "note_on_time": 1.703, "note_off_time": 1.945}, {"pitch": 62, "velocity": 69, "note_on_time": 1.967, "note_off_time": 2.237}, {"pitch": 67, "velocity": 78, "note_on_time": 2.521, "note_off_time": 2.646}, {"pitch": 67, "velocity": 60, "note_on_time": 2.789, "note_off_time": 3.073}, {"pitch": 65, "velocity": 69, "note_on_time": 3.053, "note_off_time": 3.295}, {"pitch": 62, "velocity": 63, "note_on_time": 3.294, "note_off_time": 3.411}, {"pitch": 62, "velocity": 56, "note_on_time": 3.565, "note_off_time": 3.809}, {"pitch": 67, "velocity": 69, "note_on_time": 3.815, "note_off_time": 4.063}, {"pitch": 62, "velocity": 64, "note_on_time": 4.08, "note_off_time": 4.317}, {"pitch": 60, "velocity": 72, "note_on_time": 4.877, "note_off_time": 5.351}, {"pitch": 60, "velocity": 78, "note_on_time": 5.758, "note_off_time": 5.892}, {"pitch": 64, "velocity": 43, "note_on_time": 6.027, "note_off_time": 6.238}, {"pitch": 65, "velocity": 70, "note_on_time": 6.261, "note_off_time": 6.556}, {"pitch": 60, "velocity": 60, "note_on_time": 6.537, "note_off_time": 6.797}, {"pitch": 67, "velocity": 79, "note_on_time": 6.81, "note_off_time": 7.061}, {"pitch": 62, "velocity": 78, "note_on_time": 7.059, "note_off_time": 7.487}, {"pitch": 62, "velocity": 63, "note_on_time": 8.341, "note_off_time": 8.401}, {"pitch": 62, "velocity": 72, "note_on_time": 8.602, "note_off_time": 8.704}, {"pitch": 62, "velocity": 89, "note_on_time": 8.856, "note_off_time": 8.966}]</notes><guidance name="Guidance Mode">None</guidance><error name="Error value">0.03612475000000013</error></trial><trial trial_no="4" timestamp="2022_12_08-10_44_42"><notes name="Played Notes">[{"pitch": 67, "velocity": 72, "note_on_time": 0.56, "note_off_time": 0.831}, {"pitch": 62, "velocity": 58, "note_on_time": 0.815, "note_off_time": 0.92}, {"pitch": 62, "velocity": 52, "note_on_time": 1.061, "note_off_time": 1.318}, {"pitch": 64, "velocity": 74, "note_on_time": 1.318, "note_off_time": 1.607}, {"pitch": 60, "velocity": 68, "note_on_time": 1.599, "note_off_time": 1.825}, {"pitch": 62, "velocity": 76, "note_on_time": 1.859, "note_off_time": 2.117}, {"pitch": 67, "velocity": 67, "note_on_time": 2.519, "note_off_time": 2.647}, {"pitch": 67, "velocity": 62, "note_on_time": 2.778, "note_off_time": 3.023}, {"pitch": 65, "velocity": 58, "note_on_time": 3.04, "note_off_time": 3.29}, {"pitch": 62, "velocity": 65, "note_on_time": 3.284, "note_off_time": 3.41}, {"pitch": 62, "velocity": 65, "note_on_time": 3.58, "note_off_time": 3.83}, {"pitch": 67, "velocity": 65, "note_on_time": 3.828, "note_off_time": 4.083}, {"pitch": 62, "velocity": 73, "note_on_time": 4.097, "note_off_time": 4.418}, {"pitch": 60, "velocity": 78, "note_on_time": 4.943, "note_off_time": 5.563}, {"pitch": 60, "velocity": 70, "note_on_time": 5.809, "note_off_time": 5.977}, {"pitch": 65, "velocity": 68, "note_on_time": 6.116, "note_off_time": 6.224}, {"pitch": 64, "velocity": 52, "note_on_time": 6.226, "note_off_time": 6.475}, {"pitch": 65, "velocity": 66, "note_on_time": 6.501, "note_off_time": 6.728}, {"pitch": 60, "velocity": 72, "note_on_time": 6.739, "note_off_time": 6.97}, {"pitch": 67, "velocity": 82, "note_on_time": 6.976, "note_off_time": 7.248}, {"pitch": 62, "velocity": 65, "note_on_time": 7.275, "note_off_time": 7.881}, {"pitch": 62, "velocity": 60, "note_on_time": 8.591, "note_off_time": 8.696}, {"pitch": 62, "velocity": 78, "note_on_time": 8.867, "note_off_time": 8.949}]</notes><guidance name="Guidance Mode">None</guidance><error name="Error value">0.31749875000000016</error></trial><trial trial_no="5" timestamp="2022_12_08-10_45_01"><notes name="Played Notes">[{"pitch": 67, "velocity": 62, "note_on_time": 0.405, "note_off_time": 0.659}, {"pitch": 62, "velocity": 69, "note_on_time": 0.659, "note_off_time": 0.782}, {"pitch": 62, "velocity": 61, "note_on_time": 0.908, "note_off_time": 1.163}, {"pitch": 64, "velocity": 76, "note_on_time": 1.163, "note_off_time": 1.434}, {"pitch": 60, "velocity": 74, "note_on_time": 1.433, "note_off_time": 1.659}, {"pitch": 62, "velocity": 64, "note_on_time": 1.669, "note_off_time": 1.999}, {"pitch": 67, "velocity": 83, "note_on_time": 2.243, "note_off_time": 2.375}, {"pitch": 67, "velocity": 79, "note_on_time": 2.509, "note_off_time": 2.766}, {"pitch": 65, "velocity": 63, "note_on_time": 2.759, "note_off_time": 3.038}, {"pitch": 62, "velocity": 67, "note_on_time": 3.029, "note_off_time": 3.141}, {"pitch": 62, "velocity": 49, "note_on_time": 3.277, "note_off_time": 3.553}, {"pitch": 67, "velocity": 68, "note_on_time": 3.552, "note_off_time": 3.769}, {"pitch": 62, "velocity": 56, "note_on_time": 3.796, "note_off_time": 4.134}, {"pitch": 60, "velocity": 68, "note_on_time": 4.582, "note_off_time": 5.051}, {"pitch": 60, "velocity": 70, "note_on_time": 5.388, "note_off_time": 5.5}, {"pitch": 64, "velocity": 65, "note_on_time": 5.644, "note_off_time": 5.885}, {"pitch": 65, "velocity": 72, "note_on_time": 5.898, "note_off_time": 6.174}, {"pitch": 60, "velocity": 65, "note_on_time": 6.157, "note_off_time": 6.415}, {"pitch": 67, "velocity": 72, "note_on_time": 6.408, "note_off_time": 6.678}, {"pitch": 62, "velocity": 72, "note_on_time": 6.689, "note_off_time": 7.101}, {"pitch": 62, "velocity": 61, "note_on_time": 7.962, "note_off_time": 8.054}, {"pitch": 62, "velocity": 71, "note_on_time": 8.223, "note_off_time": 8.311}, {"pitch": 62, "velocity": 80, "note_on_time": 8.467, "note_off_time": 8.638}]</notes><guidance name="Guidance Mode">None</guidance><error name="Error value">0.02869425000000021</error></trial></trials></MIDI>