<MIDI midiNo="2022_12_01-13_21_57"><target_notes><notes name="Note List">[{"pitch": 42, "velocity": 80, "note_on_time": 0.004, "note_off_time": 0.416}, {"pitch": 42, "velocity": 80, "note_on_time": 0.417, "note_off_time": 0.822}, {"pitch": 42, "velocity": 80, "note_on_time": 0.822, "note_off_time": 1.227}, {"pitch": 42, "velocity": 80, "note_on_time": 1.228, "note_off_time": 1.633}, {"pitch": 64, "velocity": 80, "note_on_time": 1.633, "note_off_time": 2.035}, {"pitch": 42, "velocity": 80, "note_on_time": 1.634, "note_off_time": 2.035}, {"pitch": 60, "velocity": 80, "note_on_time": 2.035, "note_off_time": 2.443}, {"pitch": 42, "velocity": 80, "note_on_time": 2.035, "note_off_time": 2.443}, {"pitch": 60, "velocity": 80, "note_on_time": 2.443, "note_off_time": 2.846}, {"pitch": 42, "velocity": 80, "note_on_time": 2.443, "note_off_time": 2.846}, {"pitch": 60, "velocity": 80, "note_on_time": 2.846, "note_off_time": 3.25}, {"pitch": 42, "velocity": 80, "note_on_time": 2.846, "note_off_time": 3.251}, {"pitch": 64, "velocity": 80, "note_on_time": 3.25, "note_off_time": 3.654}, {"pitch": 42, "velocity": 80, "note_on_time": 3.251, "note_off_time": 3.655}, {"pitch": 60, "velocity": 80, "note_on_time": 3.654, "note_off_time": 4.059}, {"pitch": 42, "velocity": 80, "note_on_time": 3.655, "note_off_time": 4.06}, {"pitch": 64, "velocity": 80, "note_on_time": 4.059, "note_off_time": 4.464}, {"pitch": 42, "velocity": 80, "note_on_time": 4.06, "note_off_time": 4.464}, {"pitch": 60, "velocity": 80, "note_on_time": 4.464, "note_off_time": 4.87}, {"pitch": 42, "velocity": 80, "note_on_time": 4.464, "note_off_time": 4.871}, {"pitch": 42, "velocity": 80, "note_on_time": 4.871, "note_off_time": 5.275}, {"pitch": 62, "velocity": 80, "note_on_time": 4.87, "note_off_time": 5.683}, {"pitch": 42, "velocity": 80, "note_on_time": 5.275, "note_off_time": 5.684}, {"pitch": 42, "velocity": 80, "note_on_time": 5.684, "note_off_time": 6.093}, {"pitch": 42, "velocity": 80, "note_on_time": 6.093, "note_off_time": 6.497}, {"pitch": 60, "velocity": 80, "note_on_time": 6.497, "note_off_time": 6.903}, {"pitch": 42, "velocity": 80, "note_on_time": 6.497, "note_off_time": 6.904}, {"pitch": 60, "velocity": 80, "note_on_time": 6.903, "note_off_time": 7.31}, {"pitch": 42, "velocity": 80, "note_on_time": 6.904, "note_off_time": 7.31}, {"pitch": 60, "velocity": 80, "note_on_time": 7.31, "note_off_time": 7.714}, {"pitch": 42, "velocity": 80, "note_on_time": 7.31, "note_off_time": 7.714}, {"pitch": 60, "velocity": 80, "note_on_time": 7.714, "note_off_time": 8.119}, {"pitch": 42, "velocity": 80, "note_on_time": 7.715, "note_off_time": 8.119}, {"pitch": 60, "velocity": 80, "note_on_time": 8.119, "note_off_time": 8.525}, {"pitch": 42, "velocity": 80, "note_on_time": 8.12, "note_off_time": 8.526}, {"pitch": 60, "velocity": 80, "note_on_time": 8.525, "note_off_time": 8.932}, {"pitch": 42, "velocity": 80, "note_on_time": 8.526, "note_off_time": 8.932}, {"pitch": 64, "velocity": 80, "note_on_time": 8.932, "note_off_time": 9.338}, {"pitch": 42, "velocity": 80, "note_on_time": 8.932, "note_off_time": 9.338}, {"pitch": 62, "velocity": 80, "note_on_time": 9.338, "note_off_time": 9.742}, {"pitch": 42, "velocity": 80, "note_on_time": 9.338, "note_off_time": 9.742}, {"pitch": 42, "velocity": 80, "note_on_time": 9.742, "note_off_time": 10.148}, {"pitch": 60, "velocity": 80, "note_on_time": 9.742, "note_off_time": 10.553}, {"pitch": 42, "velocity": 80, "note_on_time": 10.149, "note_off_time": 10.553}, {"pitch": 42, "velocity": 80, "note_on_time": 10.553, "note_off_time": 10.957}, {"pitch": 42, "velocity": 80, "note_on_time": 10.957, "note_off_time": 11.36}, {"pitch": 60, "velocity": 80, "note_on_time": 11.36, "note_off_time": 11.767}, {"pitch": 42, "velocity": 80, "note_on_time": 11.361, "note_off_time": 11.767}, {"pitch": 42, "velocity": 80, "note_on_time": 11.767, "note_off_time": 12.175}, {"pitch": 42, "velocity": 80, "note_on_time": 12.175, "note_off_time": 12.578}, {"pitch": 62, "velocity": 80, "note_on_time": 12.578, "note_off_time": 12.981}, {"pitch": 42, "velocity": 80, "note_on_time": 12.578, "note_off_time": 12.982}, {"pitch": 42, "velocity": 80, "note_on_time": 12.982, "note_off_time": 13.386}, {"pitch": 62, "velocity": 80, "note_on_time": 13.386, "note_off_time": 13.79}, {"pitch": 42, "velocity": 80, "note_on_time": 13.386, "note_off_time": 13.79}, {"pitch": 62, "velocity": 80, "note_on_time": 13.79, "note_off_time": 14.193}, {"pitch": 42, "velocity": 80, "note_on_time": 13.79, "note_off_time": 14.193}, {"pitch": 62, "velocity": 80, "note_on_time": 14.193, "note_off_time": 14.6}, {"pitch": 42, "velocity": 80, "note_on_time": 14.193, "note_off_time": 14.6}]</notes><options name="Option List">((4, 4), [0.5, 0.25], 3, 8, &lt;NoteRangePerHand.THREE_NOTES: 4&gt;, &lt;NoteRangePerHand.ONE_NOTE: 2&gt;, False, True, False, 150)</options></target_notes><trials><trial trial_no="1" timestamp="2022_12_01-13_21_41"><notes name="Played Notes">[{"pitch": 64, "velocity": 72, "note_on_time": 1.617, "note_off_time": 1.842}, {"pitch": 60, "velocity": 73, "note_on_time": 1.995, "note_off_time": 2.233}, {"pitch": 60, "velocity": 76, "note_on_time": 2.41, "note_off_time": 2.627}, {"pitch": 60, "velocity": 75, "note_on_time": 2.839, "note_off_time": 3.064}, {"pitch": 64, "velocity": 71, "note_on_time": 3.245, "note_off_time": 3.495}, {"pitch": 60, "velocity": 69, "note_on_time": 3.63, "note_off_time": 3.935}, {"pitch": 64, "velocity": 66, "note_on_time": 4.052, "note_off_time": 4.293}, {"pitch": 60, "velocity": 77, "note_on_time": 4.447, "note_off_time": 4.682}, {"pitch": 62, "velocity": 74, "note_on_time": 4.854, "note_off_time": 5.663}, {"pitch": 60, "velocity": 77, "note_on_time": 6.425, "note_off_time": 6.662}, {"pitch": 60, "velocity": 77, "note_on_time": 6.863, "note_off_time": 7.097}, {"pitch": 60, "velocity": 78, "note_on_time": 7.288, "note_off_time": 7.498}, {"pitch": 60, "velocity": 74, "note_on_time": 7.685, "note_off_time": 7.92}, {"pitch": 60, "velocity": 78, "note_on_time": 8.101, "note_off_time": 8.3}, {"pitch": 60, "velocity": 79, "note_on_time": 8.52, "note_off_time": 8.764}, {"pitch": 64, "velocity": 71, "note_on_time": 8.919, "note_off_time": 9.155}, {"pitch": 62, "velocity": 77, "note_on_time": 9.329, "note_off_time": 9.571}, {"pitch": 60, "velocity": 76, "note_on_time": 9.768, "note_off_time": 10.463}, {"pitch": 64, "velocity": 70, "note_on_time": 11.359, "note_off_time": 11.589}, {"pitch": 60, "velocity": 57, "note_on_time": 11.653, "note_off_time": 12.249}, {"pitch": 62, "velocity": 74, "note_on_time": 12.676, "note_off_time": 13.067}, {"pitch": 62, "velocity": 77, "note_on_time": 13.796, "note_off_time": 13.95}, {"pitch": 62, "velocity": 80, "note_on_time": 14.148, "note_off_time": 14.318}]</notes><guidance name="Guidance Mode">None</guidance><error name="Error value">0.21034999999999995</error></trial><trial trial_no="2" timestamp="2022_12_01-13_22_04"><notes name="Played Notes">[{"pitch": 64, "velocity": 73, "note_on_time": 1.641, "note_off_time": 1.874}, {"pitch": 60, "velocity": 80, "note_on_time": 2.022, "note_off_time": 2.277}, {"pitch": 60, "velocity": 84, "note_on_time": 2.431, "note_off_time": 2.658}, {"pitch": 60, "velocity": 84, "note_on_time": 2.85, "note_off_time": 3.067}, {"pitch": 64, "velocity": 73, "note_on_time": 3.248, "note_off_time": 3.464}, {"pitch": 60, "velocity": 75, "note_on_time": 3.611, "note_off_time": 3.866}, {"pitch": 64, "velocity": 72, "note_on_time": 4.03, "note_off_time": 4.245}, {"pitch": 60, "velocity": 76, "note_on_time": 4.432, "note_off_time": 4.584}, {"pitch": 62, "velocity": 63, "note_on_time": 4.899, "note_off_time": 5.682}, {"pitch": 60, "velocity": 77, "note_on_time": 6.427, "note_off_time": 6.631}, {"pitch": 60, "velocity": 83, "note_on_time": 6.832, "note_off_time": 7.025}, {"pitch": 60, "velocity": 78, "note_on_time": 7.249, "note_off_time": 7.439}, {"pitch": 60, "velocity": 81, "note_on_time": 7.678, "note_off_time": 7.869}, {"pitch": 60, "velocity": 76, "note_on_time": 8.101, "note_off_time": 8.309}, {"pitch": 60, "velocity": 79, "note_on_time": 8.505, "note_off_time": 8.694}, {"pitch": 64, "velocity": 73, "note_on_time": 8.892, "note_off_time": 9.103}, {"pitch": 62, "velocity": 77, "note_on_time": 9.285, "note_off_time": 9.519}, {"pitch": 60, "velocity": 81, "note_on_time": 9.721, "note_off_time": 10.455}, {"pitch": 60, "velocity": 82, "note_on_time": 11.245, "note_off_time": 11.686}, {"pitch": 62, "velocity": 79, "note_on_time": 12.291, "note_off_time": 12.81}, {"pitch": 62, "velocity": 73, "note_on_time": 13.363, "note_off_time": 13.589}, {"pitch": 62, "velocity": 81, "note_on_time": 13.762, "note_off_time": 13.989}, {"pitch": 62, "velocity": 80, "note_on_time": 14.154, "note_off_time": 14.559}]</notes><guidance name="Guidance Mode">None</guidance><error name="Error value">0.0445500000000001</error></trial><trial trial_no="3" timestamp="2022_12_01-13_22_27"><notes name="Played Notes">[{"pitch": 64, "velocity": 73, "note_on_time": 1.594, "note_off_time": 1.824}, {"pitch": 60, "velocity": 79, "note_on_time": 1.975, "note_off_time": 2.206}, {"pitch": 60, "velocity": 85, "note_on_time": 2.384, "note_off_time": 2.595}, {"pitch": 60, "velocity": 85, "note_on_time": 2.789, "note_off_time": 2.987}, {"pitch": 64, "velocity": 82, "note_on_time": 3.156, "note_off_time": 3.365}, {"pitch": 60, "velocity": 81, "note_on_time": 3.545, "note_off_time": 3.715}, {"pitch": 64, "velocity": 78, "note_on_time": 3.935, "note_off_time": 4.114}, {"pitch": 60, "velocity": 82, "note_on_time": 4.313, "note_off_time": 4.439}, {"pitch": 62, "velocity": 76, "note_on_time": 4.698, "note_off_time": 5.353}, {"pitch": 60, "velocity": 79, "note_on_time": 6.052, "note_off_time": 6.27}, {"pitch": 60, "velocity": 82, "note_on_time": 6.426, "note_off_time": 6.65}, {"pitch": 60, "velocity": 84, "note_on_time": 6.841, "note_off_time": 7.023}, {"pitch": 60, "velocity": 84, "note_on_time": 7.238, "note_off_time": 7.4}, {"pitch": 60, "velocity": 82, "note_on_time": 7.624, "note_off_time": 7.789}, {"pitch": 60, "velocity": 82, "note_on_time": 8.026, "note_off_time": 8.149}, {"pitch": 64, "velocity": 79, "note_on_time": 8.401, "note_off_time": 8.571}, {"pitch": 62, "velocity": 79, "note_on_time": 8.775, "note_off_time": 8.963}, {"pitch": 60, "velocity": 77, "note_on_time": 9.193, "note_off_time": 9.836}, {"pitch": 60, "velocity": 82, "note_on_time": 10.863, "note_off_time": 11.208}, {"pitch": 62, "velocity": 72, "note_on_time": 11.651, "note_off_time": 12.124}, {"pitch": 62, "velocity": 72, "note_on_time": 12.727, "note_off_time": 12.94}, {"pitch": 62, "velocity": 77, "note_on_time": 13.105, "note_off_time": 13.343}, {"pitch": 62, "velocity": 85, "note_on_time": 13.496, "note_off_time": 13.847}]</notes><guidance name="Guidance Mode">None</guidance><error name="Error value">0.06439999999999993</error></trial></trials></MIDI>