<MIDI midiNo="2022_10_27-10_40_58"><target_notes><notes name="Note List">[{"pitch": 42, "velocity": 80, "note_on_time": 0.004, "note_off_time": 0.525}, {"pitch": 42, "velocity": 80, "note_on_time": 0.525, "note_off_time": 1.052}, {"pitch": 42, "velocity": 80, "note_on_time": 1.052, "note_off_time": 1.582}, {"pitch": 42, "velocity": 80, "note_on_time": 1.583, "note_off_time": 2.112}, {"pitch": 62, "velocity": 80, "note_on_time": 2.112, "note_off_time": 2.64}, {"pitch": 42, "velocity": 80, "note_on_time": 2.112, "note_off_time": 2.641}, {"pitch": 60, "velocity": 80, "note_on_time": 2.64, "note_off_time": 3.166}, {"pitch": 42, "velocity": 80, "note_on_time": 2.641, "note_off_time": 3.167}, {"pitch": 42, "velocity": 80, "note_on_time": 3.167, "note_off_time": 3.699}, {"pitch": 42, "velocity": 80, "note_on_time": 3.7, "note_off_time": 4.231}, {"pitch": 62, "velocity": 80, "note_on_time": 4.231, "note_off_time": 4.759}, {"pitch": 42, "velocity": 80, "note_on_time": 4.231, "note_off_time": 4.759}, {"pitch": 42, "velocity": 80, "note_on_time": 4.76, "note_off_time": 5.29}, {"pitch": 62, "velocity": 80, "note_on_time": 5.29, "note_off_time": 5.82}, {"pitch": 42, "velocity": 80, "note_on_time": 5.29, "note_off_time": 5.82}, {"pitch": 62, "velocity": 80, "note_on_time": 5.82, "note_off_time": 6.349}, {"pitch": 42, "velocity": 80, "note_on_time": 5.82, "note_off_time": 6.349}, {"pitch": 62, "velocity": 80, "note_on_time": 6.349, "note_off_time": 6.877}, {"pitch": 42, "velocity": 80, "note_on_time": 6.35, "note_off_time": 6.877}, {"pitch": 42, "velocity": 80, "note_on_time": 6.878, "note_off_time": 7.403}, {"pitch": 42, "velocity": 80, "note_on_time": 7.404, "note_off_time": 7.932}, {"pitch": 42, "velocity": 80, "note_on_time": 7.932, "note_off_time": 8.463}, {"pitch": 62, "velocity": 80, "note_on_time": 8.463, "note_off_time": 8.989}, {"pitch": 42, "velocity": 80, "note_on_time": 8.464, "note_off_time": 8.99}, {"pitch": 62, "velocity": 80, "note_on_time": 8.989, "note_off_time": 9.521}, {"pitch": 42, "velocity": 80, "note_on_time": 8.99, "note_off_time": 9.521}, {"pitch": 62, "velocity": 80, "note_on_time": 9.521, "note_off_time": 10.051}, {"pitch": 42, "velocity": 80, "note_on_time": 9.521, "note_off_time": 10.051}, {"pitch": 62, "velocity": 80, "note_on_time": 10.051, "note_off_time": 10.581}, {"pitch": 42, "velocity": 80, "note_on_time": 10.052, "note_off_time": 10.581}, {"pitch": 62, "velocity": 80, "note_on_time": 10.581, "note_off_time": 11.109}, {"pitch": 42, "velocity": 80, "note_on_time": 10.581, "note_off_time": 11.11}, {"pitch": 62, "velocity": 80, "note_on_time": 11.109, "note_off_time": 11.641}, {"pitch": 42, "velocity": 80, "note_on_time": 11.11, "note_off_time": 11.641}, {"pitch": 60, "velocity": 80, "note_on_time": 11.641, "note_off_time": 12.168}, {"pitch": 42, "velocity": 80, "note_on_time": 11.641, "note_off_time": 12.168}, {"pitch": 60, "velocity": 80, "note_on_time": 12.168, "note_off_time": 12.698}, {"pitch": 42, "velocity": 80, "note_on_time": 12.169, "note_off_time": 12.698}, {"pitch": 62, "velocity": 80, "note_on_time": 12.698, "note_off_time": 13.226}, {"pitch": 42, "velocity": 80, "note_on_time": 12.698, "note_off_time": 13.226}, {"pitch": 60, "velocity": 80, "note_on_time": 13.226, "note_off_time": 13.757}, {"pitch": 42, "velocity": 80, "note_on_time": 13.226, "note_off_time": 13.757}, {"pitch": 62, "velocity": 80, "note_on_time": 13.757, "note_off_time": 14.284}, {"pitch": 42, "velocity": 80, "note_on_time": 13.757, "note_off_time": 14.284}, {"pitch": 60, "velocity": 80, "note_on_time": 14.284, "note_off_time": 14.815}, {"pitch": 42, "velocity": 80, "note_on_time": 14.285, "note_off_time": 14.816}, {"pitch": 62, "velocity": 80, "note_on_time": 14.815, "note_off_time": 15.342}, {"pitch": 42, "velocity": 80, "note_on_time": 14.816, "note_off_time": 15.342}, {"pitch": 62, "velocity": 80, "note_on_time": 15.342, "note_off_time": 15.868}, {"pitch": 42, "velocity": 80, "note_on_time": 15.342, "note_off_time": 15.869}, {"pitch": 60, "velocity": 80, "note_on_time": 15.868, "note_off_time": 16.396}, {"pitch": 42, "velocity": 80, "note_on_time": 15.869, "note_off_time": 16.396}, {"pitch": 62, "velocity": 80, "note_on_time": 16.396, "note_off_time": 16.924}, {"pitch": 42, "velocity": 80, "note_on_time": 16.396, "note_off_time": 16.924}, {"pitch": 42, "velocity": 80, "note_on_time": 16.925, "note_off_time": 17.454}, {"pitch": 62, "velocity": 80, "note_on_time": 17.454, "note_off_time": 17.985}, {"pitch": 42, "velocity": 80, "note_on_time": 17.455, "note_off_time": 17.985}, {"pitch": 62, "velocity": 80, "note_on_time": 17.985, "note_off_time": 18.514}, {"pitch": 42, "velocity": 80, "note_on_time": 17.985, "note_off_time": 18.514}, {"pitch": 62, "velocity": 80, "note_on_time": 18.514, "note_off_time": 19.042}, {"pitch": 42, "velocity": 80, "note_on_time": 18.515, "note_off_time": 19.043}]</notes><options name="Option List">((4, 4), [0.25], 3, 8, &lt;NoteRangePerHand.TWO_NOTES: 3&gt;, &lt;NoteRangePerHand.ONE_NOTE: 2&gt;, False, True, False, 116)</options></target_notes><trials><trial trial_no="1" timestamp="2022_10_27-10_40_38"><notes name="Played Notes">[{"pitch": 62, "velocity": 55, "note_on_time": 2.056, "note_off_time": 2.253}, {"pitch": 60, "velocity": 62, "note_on_time": 2.612, "note_off_time": 2.769}, {"pitch": 62, "velocity": 54, "note_on_time": 5.311, "note_off_time": 5.458}, {"pitch": 62, "velocity": 47, "note_on_time": 6.374, "note_off_time": 6.512}, {"pitch": 62, "velocity": 53, "note_on_time": 6.9, "note_off_time": 7.053}, {"pitch": 62, "velocity": 56, "note_on_time": 7.432, "note_off_time": 7.612}, {"pitch": 62, "velocity": 60, "note_on_time": 10.011, "note_off_time": 10.15}, {"pitch": 62, "velocity": 46, "note_on_time": 10.578, "note_off_time": 10.709}, {"pitch": 62, "velocity": 49, "note_on_time": 11.085, "note_off_time": 11.231}, {"pitch": 62, "velocity": 50, "note_on_time": 11.616, "note_off_time": 11.766}, {"pitch": 62, "velocity": 53, "note_on_time": 12.104, "note_off_time": 12.29}, {"pitch": 62, "velocity": 46, "note_on_time": 12.613, "note_off_time": 12.782}, {"pitch": 60, "velocity": 39, "note_on_time": 13.119, "note_off_time": 13.279}, {"pitch": 60, "velocity": 65, "note_on_time": 13.658, "note_off_time": 13.848}, {"pitch": 62, "velocity": 63, "note_on_time": 14.218, "note_off_time": 14.403}, {"pitch": 60, "velocity": 53, "note_on_time": 14.736, "note_off_time": 14.897}, {"pitch": 62, "velocity": 54, "note_on_time": 15.269, "note_off_time": 15.46}, {"pitch": 60, "velocity": 43, "note_on_time": 15.795, "note_off_time": 15.973}, {"pitch": 62, "velocity": 51, "note_on_time": 16.287, "note_off_time": 16.481}, {"pitch": 62, "velocity": 52, "note_on_time": 16.798, "note_off_time": 16.991}, {"pitch": 60, "velocity": 47, "note_on_time": 17.309, "note_off_time": 17.477}, {"pitch": 62, "velocity": 65, "note_on_time": 17.795, "note_off_time": 17.97}]</notes><guidance name="Guidance Mode">None</guidance><error name="Error value">0.29771959090909045</error></trial></trials></MIDI>