<MIDI midiNo="2022_12_22-13_58_01"><target_notes><notes name="Note List">[{"pitch": 42, "velocity": 80, "note_on_time": 0.004, "note_off_time": 0.293}, {"pitch": 42, "velocity": 80, "note_on_time": 0.293, "note_off_time": 0.588}, {"pitch": 42, "velocity": 80, "note_on_time": 0.588, "note_off_time": 0.883}, {"pitch": 42, "velocity": 80, "note_on_time": 0.883, "note_off_time": 1.178}, {"pitch": 64, "velocity": 80, "note_on_time": 1.178, "note_off_time": 1.46}, {"pitch": 42, "velocity": 80, "note_on_time": 1.179, "note_off_time": 1.46}, {"pitch": 64, "velocity": 80, "note_on_time": 1.46, "note_off_time": 1.742}, {"pitch": 42, "velocity": 80, "note_on_time": 1.46, "note_off_time": 1.742}, {"pitch": 60, "velocity": 80, "note_on_time": 1.742, "note_off_time": 2.038}, {"pitch": 42, "velocity": 80, "note_on_time": 1.742, "note_off_time": 2.038}, {"pitch": 62, "velocity": 80, "note_on_time": 2.038, "note_off_time": 2.334}, {"pitch": 42, "velocity": 80, "note_on_time": 2.039, "note_off_time": 2.334}, {"pitch": 42, "velocity": 80, "note_on_time": 2.334, "note_off_time": 2.617}, {"pitch": 62, "velocity": 80, "note_on_time": 2.334, "note_off_time": 2.912}, {"pitch": 42, "velocity": 80, "note_on_time": 2.617, "note_off_time": 2.913}, {"pitch": 42, "velocity": 80, "note_on_time": 2.913, "note_off_time": 3.208}, {"pitch": 42, "velocity": 80, "note_on_time": 3.208, "note_off_time": 3.503}, {"pitch": 62, "velocity": 80, "note_on_time": 3.503, "note_off_time": 3.799}, {"pitch": 42, "velocity": 80, "note_on_time": 3.504, "note_off_time": 3.799}, {"pitch": 42, "velocity": 80, "note_on_time": 3.799, "note_off_time": 4.081}, {"pitch": 62, "velocity": 80, "note_on_time": 3.799, "note_off_time": 4.376}, {"pitch": 42, "velocity": 80, "note_on_time": 4.081, "note_off_time": 4.376}, {"pitch": 62, "velocity": 80, "note_on_time": 4.376, "note_off_time": 4.67}, {"pitch": 42, "velocity": 80, "note_on_time": 4.377, "note_off_time": 4.67}, {"pitch": 60, "velocity": 80, "note_on_time": 4.67, "note_off_time": 4.965}, {"pitch": 42, "velocity": 80, "note_on_time": 4.67, "note_off_time": 4.966}, {"pitch": 60, "velocity": 80, "note_on_time": 4.965, "note_off_time": 5.26}, {"pitch": 42, "velocity": 80, "note_on_time": 4.966, "note_off_time": 5.26}, {"pitch": 62, "velocity": 80, "note_on_time": 5.26, "note_off_time": 5.542}, {"pitch": 42, "velocity": 80, "note_on_time": 5.261, "note_off_time": 5.543}, {"pitch": 62, "velocity": 80, "note_on_time": 5.542, "note_off_time": 5.838}, {"pitch": 42, "velocity": 80, "note_on_time": 5.543, "note_off_time": 5.838}, {"pitch": 64, "velocity": 80, "note_on_time": 5.838, "note_off_time": 6.134}, {"pitch": 42, "velocity": 80, "note_on_time": 5.839, "note_off_time": 6.134}, {"pitch": 62, "velocity": 80, "note_on_time": 6.134, "note_off_time": 6.415}, {"pitch": 42, "velocity": 80, "note_on_time": 6.135, "note_off_time": 6.416}, {"pitch": 62, "velocity": 80, "note_on_time": 6.415, "note_off_time": 6.709}, {"pitch": 42, "velocity": 80, "note_on_time": 6.416, "note_off_time": 6.709}, {"pitch": 64, "velocity": 80, "note_on_time": 6.709, "note_off_time": 6.99}, {"pitch": 42, "velocity": 80, "note_on_time": 6.709, "note_off_time": 6.991}, {"pitch": 42, "velocity": 80, "note_on_time": 6.991, "note_off_time": 7.285}, {"pitch": 64, "velocity": 80, "note_on_time": 6.99, "note_off_time": 7.58}, {"pitch": 42, "velocity": 80, "note_on_time": 7.285, "note_off_time": 7.581}, {"pitch": 42, "velocity": 80, "note_on_time": 7.581, "note_off_time": 7.875}, {"pitch": 62, "velocity": 80, "note_on_time": 7.875, "note_off_time": 8.171}, {"pitch": 42, "velocity": 80, "note_on_time": 7.876, "note_off_time": 8.171}, {"pitch": 42, "velocity": 80, "note_on_time": 8.171, "note_off_time": 8.466}, {"pitch": 60, "velocity": 80, "note_on_time": 8.171, "note_off_time": 8.747}, {"pitch": 42, "velocity": 80, "note_on_time": 8.467, "note_off_time": 8.747}, {"pitch": 42, "velocity": 80, "note_on_time": 8.748, "note_off_time": 9.029}, {"pitch": 60, "velocity": 80, "note_on_time": 9.028, "note_off_time": 9.323}, {"pitch": 42, "velocity": 80, "note_on_time": 9.029, "note_off_time": 9.323}, {"pitch": 42, "velocity": 80, "note_on_time": 9.323, "note_off_time": 9.62}, {"pitch": 60, "velocity": 80, "note_on_time": 9.62, "note_off_time": 9.902}, {"pitch": 42, "velocity": 80, "note_on_time": 9.62, "note_off_time": 9.902}, {"pitch": 60, "velocity": 80, "note_on_time": 9.902, "note_off_time": 10.196}, {"pitch": 42, "velocity": 80, "note_on_time": 9.902, "note_off_time": 10.196}, {"pitch": 60, "velocity": 80, "note_on_time": 10.196, "note_off_time": 10.478}, {"pitch": 42, "velocity": 80, "note_on_time": 10.197, "note_off_time": 10.478}]</notes><options name="Option List">((4, 4), [0.5, 0.25], 3, 8, &lt;NoteRangePerHand.THREE_NOTES: 4&gt;, &lt;NoteRangePerHand.ONE_NOTE: 2&gt;, False, True, False, 215)</options></target_notes><trials><trial trial_no="1" timestamp="2022_12_22-13_57_49"><notes name="Played Notes">[{"pitch": 64, "velocity": 88, "note_on_time": 1.21, "note_off_time": 1.349}, {"pitch": 64, "velocity": 92, "note_on_time": 1.513, "note_off_time": 1.69}, {"pitch": 62, "velocity": 88, "note_on_time": 1.846, "note_off_time": 2.023}, {"pitch": 62, "velocity": 88, "note_on_time": 2.649, "note_off_time": 2.817}, {"pitch": 62, "velocity": 82, "note_on_time": 2.989, "note_off_time": 3.544}, {"pitch": 62, "velocity": 86, "note_on_time": 3.885, "note_off_time": 4.013}, {"pitch": 62, "velocity": 99, "note_on_time": 4.217, "note_off_time": 4.686}, {"pitch": 62, "velocity": 94, "note_on_time": 4.864, "note_off_time": 5.189}, {"pitch": 60, "velocity": 90, "note_on_time": 5.4, "note_off_time": 5.536}, {"pitch": 60, "velocity": 86, "note_on_time": 5.685, "note_off_time": 5.815}, {"pitch": 62, "velocity": 88, "note_on_time": 5.982, "note_off_time": 6.128}, {"pitch": 62, "velocity": 90, "note_on_time": 6.276, "note_off_time": 6.422}, {"pitch": 64, "velocity": 91, "note_on_time": 6.585, "note_off_time": 6.72}, {"pitch": 62, "velocity": 91, "note_on_time": 6.865, "note_off_time": 6.996}, {"pitch": 62, "velocity": 91, "note_on_time": 7.16, "note_off_time": 7.298}, {"pitch": 64, "velocity": 90, "note_on_time": 7.453, "note_off_time": 7.57}, {"pitch": 64, "velocity": 103, "note_on_time": 7.766, "note_off_time": 8.331}, {"pitch": 62, "velocity": 90, "note_on_time": 8.658, "note_off_time": 8.808}, {"pitch": 62, "velocity": 94, "note_on_time": 8.98, "note_off_time": 9.341}, {"pitch": 60, "velocity": 89, "note_on_time": 9.676, "note_off_time": 10.018}, {"pitch": 60, "velocity": 94, "note_on_time": 10.331, "note_off_time": 10.421}]</notes><guidance name="Guidance Mode">None</guidance><error name="Error value">0.31061205000000014</error></trial><trial trial_no="2" timestamp="2022_12_22-13_58_08"><notes name="Played Notes">[{"pitch": 64, "velocity": 85, "note_on_time": 1.191, "note_off_time": 1.317}, {"pitch": 64, "velocity": 94, "note_on_time": 1.472, "note_off_time": 1.64}, {"pitch": 60, "velocity": 92, "note_on_time": 1.765, "note_off_time": 1.896}, {"pitch": 62, "velocity": 96, "note_on_time": 2.053, "note_off_time": 2.191}, {"pitch": 62, "velocity": 102, "note_on_time": 2.363, "note_off_time": 2.899}, {"pitch": 62, "velocity": 91, "note_on_time": 3.076, "note_off_time": 3.207}, {"pitch": 62, "velocity": 98, "note_on_time": 3.376, "note_off_time": 3.616}, {"pitch": 62, "velocity": 94, "note_on_time": 3.793, "note_off_time": 3.958}, {"pitch": 60, "velocity": 98, "note_on_time": 4.097, "note_off_time": 4.238}, {"pitch": 60, "velocity": 94, "note_on_time": 4.39, "note_off_time": 4.522}, {"pitch": 62, "velocity": 87, "note_on_time": 4.672, "note_off_time": 4.805}, {"pitch": 62, "velocity": 74, "note_on_time": 4.916, "note_off_time": 5.063}, {"pitch": 64, "velocity": 92, "note_on_time": 5.21, "note_off_time": 5.375}, {"pitch": 62, "velocity": 87, "note_on_time": 5.495, "note_off_time": 5.652}, {"pitch": 62, "velocity": 91, "note_on_time": 5.797, "note_off_time": 5.947}, {"pitch": 64, "velocity": 89, "note_on_time": 6.08, "note_off_time": 6.2}, {"pitch": 64, "velocity": 99, "note_on_time": 6.367, "note_off_time": 6.869}, {"pitch": 62, "velocity": 94, "note_on_time": 7.301, "note_off_time": 7.449}, {"pitch": 60, "velocity": 102, "note_on_time": 7.652, "note_off_time": 8.091}, {"pitch": 60, "velocity": 102, "note_on_time": 8.393, "note_off_time": 8.701}, {"pitch": 60, "velocity": 95, "note_on_time": 8.896, "note_off_time": 8.995}, {"pitch": 60, "velocity": 93, "note_on_time": 9.182, "note_off_time": 9.266}, {"pitch": 60, "velocity": 102, "note_on_time": 9.44, "note_off_time": 9.533}]</notes><guidance name="Guidance Mode">None</guidance><error name="Error value">0.05508274999999999</error></trial><trial trial_no="3" timestamp="2022_12_22-13_58_36"><notes name="Played Notes">[{"pitch": 64, "velocity": 92, "note_on_time": 1.16, "note_off_time": 1.283}, {"pitch": 64, "velocity": 93, "note_on_time": 1.441, "note_off_time": 1.592}, {"pitch": 60, "velocity": 88, "note_on_time": 1.721, "note_off_time": 1.845}, {"pitch": 62, "velocity": 93, "note_on_time": 1.999, "note_off_time": 2.13}, {"pitch": 62, "velocity": 105, "note_on_time": 2.305, "note_off_time": 2.778}, {"pitch": 62, "velocity": 105, "note_on_time": 2.996, "note_off_time": 3.109}, {"pitch": 62, "velocity": 109, "note_on_time": 3.316, "note_off_time": 3.738}, {"pitch": 62, "velocity": 103, "note_on_time": 3.894, "note_off_time": 4.25}, {"pitch": 60, "velocity": 100, "note_on_time": 4.394, "note_off_time": 4.512}, {"pitch": 60, "velocity": 95, "note_on_time": 4.665, "note_off_time": 4.788}, {"pitch": 62, "velocity": 95, "note_on_time": 4.927, "note_off_time": 5.059}, {"pitch": 62, "velocity": 89, "note_on_time": 5.187, "note_off_time": 5.335}, {"pitch": 64, "velocity": 95, "note_on_time": 5.462, "note_off_time": 5.603}, {"pitch": 62, "velocity": 93, "note_on_time": 5.73, "note_off_time": 5.852}, {"pitch": 62, "velocity": 91, "note_on_time": 5.996, "note_off_time": 6.151}, {"pitch": 64, "velocity": 93, "note_on_time": 6.28, "note_off_time": 6.393}, {"pitch": 64, "velocity": 108, "note_on_time": 6.568, "note_off_time": 7.168}, {"pitch": 62, "velocity": 99, "note_on_time": 7.375, "note_off_time": 7.571}, {"pitch": 60, "velocity": 107, "note_on_time": 7.74, "note_off_time": 8.199}, {"pitch": 60, "velocity": 111, "note_on_time": 8.554, "note_off_time": 8.933}, {"pitch": 60, "velocity": 102, "note_on_time": 9.252, "note_off_time": 9.372}, {"pitch": 60, "velocity": 100, "note_on_time": 9.507, "note_off_time": 9.598}, {"pitch": 60, "velocity": 101, "note_on_time": 9.816, "note_off_time": 9.898}]</notes><guidance name="Guidance Mode">None</guidance><error name="Error value">0.05786725</error></trial></trials></MIDI>