<MIDI midiNo="2022_12_08-12_39_04"><target_notes><notes name="Note List">[{"pitch": 42, "velocity": 80, "note_on_time": 0.004, "note_off_time": 0.223}, {"pitch": 42, "velocity": 80, "note_on_time": 0.223, "note_off_time": 0.443}, {"pitch": 42, "velocity": 80, "note_on_time": 0.443, "note_off_time": 0.661}, {"pitch": 42, "velocity": 80, "note_on_time": 0.661, "note_off_time": 0.879}, {"pitch": 67, "velocity": 80, "note_on_time": 0.879, "note_off_time": 1.097}, {"pitch": 42, "velocity": 80, "note_on_time": 0.879, "note_off_time": 1.097}, {"pitch": 62, "velocity": 80, "note_on_time": 1.097, "note_off_time": 1.316}, {"pitch": 42, "velocity": 80, "note_on_time": 1.097, "note_off_time": 1.316}, {"pitch": 64, "velocity": 80, "note_on_time": 1.316, "note_off_time": 1.532}, {"pitch": 42, "velocity": 80, "note_on_time": 1.316, "note_off_time": 1.532}, {"pitch": 65, "velocity": 80, "note_on_time": 1.532, "note_off_time": 1.751}, {"pitch": 42, "velocity": 80, "note_on_time": 1.532, "note_off_time": 1.752}, {"pitch": 60, "velocity": 80, "note_on_time": 1.751, "note_off_time": 1.97}, {"pitch": 42, "velocity": 80, "note_on_time": 1.752, "note_off_time": 1.97}, {"pitch": 42, "velocity": 80, "note_on_time": 1.97, "note_off_time": 2.188}, {"pitch": 42, "velocity": 80, "note_on_time": 2.188, "note_off_time": 2.409}, {"pitch": 42, "velocity": 80, "note_on_time": 2.409, "note_off_time": 2.627}, {"pitch": 42, "velocity": 80, "note_on_time": 2.627, "note_off_time": 2.845}, {"pitch": 60, "velocity": 80, "note_on_time": 2.627, "note_off_time": 3.063}, {"pitch": 42, "velocity": 80, "note_on_time": 2.845, "note_off_time": 3.063}, {"pitch": 42, "velocity": 80, "note_on_time": 3.063, "note_off_time": 3.281}, {"pitch": 42, "velocity": 80, "note_on_time": 3.281, "note_off_time": 3.499}, {"pitch": 65, "velocity": 80, "note_on_time": 3.499, "note_off_time": 3.717}, {"pitch": 42, "velocity": 80, "note_on_time": 3.499, "note_off_time": 3.717}, {"pitch": 64, "velocity": 80, "note_on_time": 3.717, "note_off_time": 3.935}, {"pitch": 42, "velocity": 80, "note_on_time": 3.717, "note_off_time": 3.935}, {"pitch": 67, "velocity": 80, "note_on_time": 3.935, "note_off_time": 4.154}, {"pitch": 42, "velocity": 80, "note_on_time": 3.935, "note_off_time": 4.154}, {"pitch": 62, "velocity": 80, "note_on_time": 4.154, "note_off_time": 4.373}, {"pitch": 42, "velocity": 80, "note_on_time": 4.154, "note_off_time": 4.373}, {"pitch": 62, "velocity": 80, "note_on_time": 4.373, "note_off_time": 4.591}, {"pitch": 42, "velocity": 80, "note_on_time": 4.373, "note_off_time": 4.591}, {"pitch": 65, "velocity": 80, "note_on_time": 4.591, "note_off_time": 4.809}, {"pitch": 42, "velocity": 80, "note_on_time": 4.591, "note_off_time": 4.809}, {"pitch": 60, "velocity": 80, "note_on_time": 4.809, "note_off_time": 5.029}, {"pitch": 42, "velocity": 80, "note_on_time": 4.809, "note_off_time": 5.029}, {"pitch": 62, "velocity": 80, "note_on_time": 5.029, "note_off_time": 5.248}, {"pitch": 42, "velocity": 80, "note_on_time": 5.029, "note_off_time": 5.248}, {"pitch": 42, "velocity": 80, "note_on_time": 5.248, "note_off_time": 5.468}, {"pitch": 65, "velocity": 80, "note_on_time": 5.248, "note_off_time": 5.688}, {"pitch": 42, "velocity": 80, "note_on_time": 5.468, "note_off_time": 5.688}, {"pitch": 42, "velocity": 80, "note_on_time": 5.688, "note_off_time": 5.904}, {"pitch": 60, "velocity": 80, "note_on_time": 5.904, "note_off_time": 6.122}, {"pitch": 42, "velocity": 80, "note_on_time": 5.904, "note_off_time": 6.122}, {"pitch": 42, "velocity": 80, "note_on_time": 6.122, "note_off_time": 6.339}, {"pitch": 64, "velocity": 80, "note_on_time": 6.122, "note_off_time": 6.558}, {"pitch": 42, "velocity": 80, "note_on_time": 6.339, "note_off_time": 6.558}, {"pitch": 67, "velocity": 80, "note_on_time": 6.558, "note_off_time": 6.777}, {"pitch": 42, "velocity": 80, "note_on_time": 6.558, "note_off_time": 6.777}, {"pitch": 60, "velocity": 80, "note_on_time": 6.777, "note_off_time": 6.996}, {"pitch": 42, "velocity": 80, "note_on_time": 6.777, "note_off_time": 6.996}, {"pitch": 42, "velocity": 80, "note_on_time": 6.996, "note_off_time": 7.215}, {"pitch": 60, "velocity": 80, "note_on_time": 7.215, "note_off_time": 7.432}, {"pitch": 42, "velocity": 80, "note_on_time": 7.215, "note_off_time": 7.432}, {"pitch": 60, "velocity": 80, "note_on_time": 7.432, "note_off_time": 7.651}, {"pitch": 42, "velocity": 80, "note_on_time": 7.432, "note_off_time": 7.651}, {"pitch": 60, "velocity": 80, "note_on_time": 7.651, "note_off_time": 7.868}, {"pitch": 42, "velocity": 80, "note_on_time": 7.651, "note_off_time": 7.868}]</notes><options name="Option List">((4, 4), [0.5, 0.25], 3, 8, &lt;NoteRangePerHand.C_TO_G: 6&gt;, &lt;NoteRangePerHand.ONE_NOTE: 2&gt;, False, True, False, 281)</options></target_notes><trials><trial trial_no="1" timestamp="2022_12_08-12_38_55"><notes name="Played Notes">[{"pitch": 67, "velocity": 69, "note_on_time": 0.858, "note_off_time": 1.141}, {"pitch": 62, "velocity": 54, "note_on_time": 1.11, "note_off_time": 1.334}, {"pitch": 64, "velocity": 58, "note_on_time": 1.332, "note_off_time": 1.551}, {"pitch": 65, "velocity": 62, "note_on_time": 1.546, "note_off_time": 1.749}, {"pitch": 60, "velocity": 71, "note_on_time": 1.764, "note_off_time": 2.253}, {"pitch": 60, "velocity": 71, "note_on_time": 2.597, "note_off_time": 3.202}, {"pitch": 65, "velocity": 64, "note_on_time": 3.523, "note_off_time": 3.729}, {"pitch": 64, "velocity": 66, "note_on_time": 3.744, "note_off_time": 3.951}, {"pitch": 67, "velocity": 55, "note_on_time": 3.984, "note_off_time": 4.193}, {"pitch": 62, "velocity": 60, "note_on_time": 4.198, "note_off_time": 4.286}, {"pitch": 62, "velocity": 56, "note_on_time": 4.409, "note_off_time": 4.599}, {"pitch": 65, "velocity": 70, "note_on_time": 4.615, "note_off_time": 4.811}, {"pitch": 60, "velocity": 68, "note_on_time": 4.842, "note_off_time": 5.027}, {"pitch": 62, "velocity": 70, "note_on_time": 5.046, "note_off_time": 5.255}, {"pitch": 65, "velocity": 78, "note_on_time": 5.278, "note_off_time": 5.63}, {"pitch": 60, "velocity": 58, "note_on_time": 5.908, "note_off_time": 6.127}, {"pitch": 64, "velocity": 61, "note_on_time": 6.142, "note_off_time": 6.587}, {"pitch": 67, "velocity": 58, "note_on_time": 6.591, "note_off_time": 6.797}, {"pitch": 60, "velocity": 65, "note_on_time": 6.802, "note_off_time": 6.997}, {"pitch": 60, "velocity": 68, "note_on_time": 7.225, "note_off_time": 7.308}, {"pitch": 60, "velocity": 67, "note_on_time": 7.455, "note_off_time": 7.543}, {"pitch": 60, "velocity": 68, "note_on_time": 7.663, "note_off_time": 7.852}]</notes><guidance name="Guidance Mode">None</guidance><error name="Error value">0.016443736842105292</error></trial></trials></MIDI>