<MIDI midiNo="2022_10_27-11_12_52"><target_notes><notes name="Note List">[{"pitch": 42, "velocity": 80, "note_on_time": 0.005, "note_off_time": 0.532}, {"pitch": 42, "velocity": 80, "note_on_time": 0.532, "note_off_time": 1.061}, {"pitch": 42, "velocity": 80, "note_on_time": 1.061, "note_off_time": 1.588}, {"pitch": 42, "velocity": 80, "note_on_time": 1.588, "note_off_time": 2.115}, {"pitch": 60, "velocity": 80, "note_on_time": 2.115, "note_off_time": 2.648}, {"pitch": 42, "velocity": 80, "note_on_time": 2.115, "note_off_time": 2.648}, {"pitch": 42, "velocity": 80, "note_on_time": 2.648, "note_off_time": 3.174}, {"pitch": 42, "velocity": 80, "note_on_time": 3.175, "note_off_time": 3.703}, {"pitch": 42, "velocity": 80, "note_on_time": 3.703, "note_off_time": 4.234}, {"pitch": 62, "velocity": 80, "note_on_time": 4.233, "note_off_time": 4.76}, {"pitch": 42, "velocity": 80, "note_on_time": 4.234, "note_off_time": 4.761}, {"pitch": 62, "velocity": 80, "note_on_time": 4.76, "note_off_time": 5.29}, {"pitch": 42, "velocity": 80, "note_on_time": 4.761, "note_off_time": 5.291}, {"pitch": 60, "velocity": 80, "note_on_time": 5.29, "note_off_time": 5.82}, {"pitch": 42, "velocity": 80, "note_on_time": 5.291, "note_off_time": 5.821}, {"pitch": 60, "velocity": 80, "note_on_time": 5.82, "note_off_time": 6.348}, {"pitch": 42, "velocity": 80, "note_on_time": 5.821, "note_off_time": 6.349}, {"pitch": 62, "velocity": 80, "note_on_time": 6.348, "note_off_time": 6.878}, {"pitch": 42, "velocity": 80, "note_on_time": 6.349, "note_off_time": 6.878}, {"pitch": 42, "velocity": 80, "note_on_time": 6.879, "note_off_time": 7.408}, {"pitch": 42, "velocity": 80, "note_on_time": 7.408, "note_off_time": 7.936}, {"pitch": 42, "velocity": 80, "note_on_time": 7.936, "note_off_time": 8.465}, {"pitch": 60, "velocity": 80, "note_on_time": 8.465, "note_off_time": 8.996}, {"pitch": 42, "velocity": 80, "note_on_time": 8.465, "note_off_time": 8.997}, {"pitch": 62, "velocity": 80, "note_on_time": 8.997, "note_off_time": 9.524}, {"pitch": 42, "velocity": 80, "note_on_time": 8.997, "note_off_time": 9.525}, {"pitch": 60, "velocity": 80, "note_on_time": 9.524, "note_off_time": 10.054}, {"pitch": 42, "velocity": 80, "note_on_time": 9.525, "note_off_time": 10.054}, {"pitch": 62, "velocity": 80, "note_on_time": 10.054, "note_off_time": 10.585}, {"pitch": 42, "velocity": 80, "note_on_time": 10.055, "note_off_time": 10.585}, {"pitch": 60, "velocity": 80, "note_on_time": 10.585, "note_off_time": 11.116}, {"pitch": 42, "velocity": 80, "note_on_time": 10.586, "note_off_time": 11.116}, {"pitch": 42, "velocity": 80, "note_on_time": 11.116, "note_off_time": 11.644}, {"pitch": 42, "velocity": 80, "note_on_time": 11.644, "note_off_time": 12.172}, {"pitch": 42, "velocity": 80, "note_on_time": 12.173, "note_off_time": 12.704}, {"pitch": 60, "velocity": 80, "note_on_time": 12.703, "note_off_time": 13.23}, {"pitch": 42, "velocity": 80, "note_on_time": 12.704, "note_off_time": 13.23}, {"pitch": 42, "velocity": 80, "note_on_time": 13.231, "note_off_time": 13.758}, {"pitch": 62, "velocity": 80, "note_on_time": 13.758, "note_off_time": 14.285}, {"pitch": 42, "velocity": 80, "note_on_time": 13.759, "note_off_time": 14.285}, {"pitch": 60, "velocity": 80, "note_on_time": 14.285, "note_off_time": 14.814}, {"pitch": 42, "velocity": 80, "note_on_time": 14.285, "note_off_time": 14.814}, {"pitch": 60, "velocity": 80, "note_on_time": 14.814, "note_off_time": 15.343}, {"pitch": 42, "velocity": 80, "note_on_time": 14.814, "note_off_time": 15.344}, {"pitch": 42, "velocity": 80, "note_on_time": 15.344, "note_off_time": 15.87}, {"pitch": 62, "velocity": 80, "note_on_time": 15.87, "note_off_time": 16.396}, {"pitch": 42, "velocity": 80, "note_on_time": 15.871, "note_off_time": 16.396}, {"pitch": 42, "velocity": 80, "note_on_time": 16.397, "note_off_time": 16.924}, {"pitch": 42, "velocity": 80, "note_on_time": 16.924, "note_off_time": 17.449}, {"pitch": 62, "velocity": 80, "note_on_time": 17.449, "note_off_time": 17.977}, {"pitch": 42, "velocity": 80, "note_on_time": 17.449, "note_off_time": 17.977}, {"pitch": 62, "velocity": 80, "note_on_time": 17.977, "note_off_time": 18.505}, {"pitch": 42, "velocity": 80, "note_on_time": 17.977, "note_off_time": 18.505}, {"pitch": 62, "velocity": 80, "note_on_time": 18.505, "note_off_time": 19.03}, {"pitch": 42, "velocity": 80, "note_on_time": 18.505, "note_off_time": 19.031}]</notes><options name="Option List">((4, 4), [0.25], 3, 8, &lt;NoteRangePerHand.TWO_NOTES: 3&gt;, &lt;NoteRangePerHand.ONE_NOTE: 2&gt;, False, True, False, '116')</options></target_notes><trials><trial trial_no="1" timestamp="2022_10_27-11_12_31"><notes name="Played Notes">[{"pitch": 60, "velocity": 63, "note_on_time": 2.074, "note_off_time": 2.268}, {"pitch": 62, "velocity": 41, "note_on_time": 4.574, "note_off_time": 4.774}, {"pitch": 62, "velocity": 52, "note_on_time": 5.059, "note_off_time": 5.241}, {"pitch": 60, "velocity": 58, "note_on_time": 5.593, "note_off_time": 5.74}, {"pitch": 60, "velocity": 57, "note_on_time": 6.107, "note_off_time": 6.28}, {"pitch": 62, "velocity": 60, "note_on_time": 6.655, "note_off_time": 6.826}, {"pitch": 60, "velocity": 54, "note_on_time": 8.851, "note_off_time": 9.031}, {"pitch": 62, "velocity": 57, "note_on_time": 9.373, "note_off_time": 9.563}, {"pitch": 60, "velocity": 56, "note_on_time": 9.886, "note_off_time": 10.044}, {"pitch": 62, "velocity": 55, "note_on_time": 10.387, "note_off_time": 10.554}, {"pitch": 60, "velocity": 58, "note_on_time": 10.901, "note_off_time": 11.039}, {"pitch": 60, "velocity": 59, "note_on_time": 12.724, "note_off_time": 12.863}, {"pitch": 62, "velocity": 52, "note_on_time": 13.466, "note_off_time": 13.637}, {"pitch": 60, "velocity": 48, "note_on_time": 13.997, "note_off_time": 14.158}, {"pitch": 60, "velocity": 50, "note_on_time": 14.494, "note_off_time": 14.649}, {"pitch": 62, "velocity": 56, "note_on_time": 15.457, "note_off_time": 15.626}, {"pitch": 62, "velocity": 49, "note_on_time": 16.978, "note_off_time": 17.139}, {"pitch": 62, "velocity": 38, "note_on_time": 17.525, "note_off_time": 17.681}, {"pitch": 62, "velocity": 52, "note_on_time": 18.093, "note_off_time": 18.241}]</notes><guidance name="Guidance Mode">None</guidance><error name="Error value">0.08904518750000004</error></trial><trial trial_no="2" timestamp="2022_10_27-11_13_00"><notes name="Played Notes">[{"pitch": 60, "velocity": 56, "note_on_time": 1.652, "note_off_time": 1.813}, {"pitch": 62, "velocity": 48, "note_on_time": 3.651, "note_off_time": 3.826}, {"pitch": 62, "velocity": 60, "note_on_time": 4.196, "note_off_time": 4.37}, {"pitch": 60, "velocity": 57, "note_on_time": 4.76, "note_off_time": 4.886}, {"pitch": 60, "velocity": 63, "note_on_time": 5.286, "note_off_time": 5.44}, {"pitch": 62, "velocity": 60, "note_on_time": 5.808, "note_off_time": 5.976}, {"pitch": 60, "velocity": 51, "note_on_time": 7.772, "note_off_time": 7.923}, {"pitch": 62, "velocity": 54, "note_on_time": 8.305, "note_off_time": 8.469}, {"pitch": 60, "velocity": 54, "note_on_time": 8.78, "note_off_time": 8.929}, {"pitch": 62, "velocity": 52, "note_on_time": 9.333, "note_off_time": 9.465}, {"pitch": 60, "velocity": 63, "note_on_time": 9.861, "note_off_time": 10.02}, {"pitch": 60, "velocity": 52, "note_on_time": 11.505, "note_off_time": 11.641}, {"pitch": 62, "velocity": 53, "note_on_time": 12.248, "note_off_time": 12.425}, {"pitch": 60, "velocity": 55, "note_on_time": 12.765, "note_off_time": 12.909}, {"pitch": 60, "velocity": 47, "note_on_time": 13.256, "note_off_time": 13.417}, {"pitch": 62, "velocity": 54, "note_on_time": 14.452, "note_off_time": 14.623}, {"pitch": 62, "velocity": 61, "note_on_time": 15.782, "note_off_time": 15.948}, {"pitch": 62, "velocity": 59, "note_on_time": 16.309, "note_off_time": 16.442}, {"pitch": 62, "velocity": 54, "note_on_time": 16.818, "note_off_time": 16.938}]</notes><guidance name="Guidance Mode">None</guidance><error name="Error value">0.09447818750000005</error></trial><trial trial_no="3" timestamp="2022_10_27-11_13_30"><notes name="Played Notes">[{"pitch": 60, "velocity": 62, "note_on_time": 2.07, "note_off_time": 2.263}, {"pitch": 62, "velocity": 57, "note_on_time": 4.204, "note_off_time": 4.386}, {"pitch": 62, "velocity": 66, "note_on_time": 4.751, "note_off_time": 4.926}, {"pitch": 60, "velocity": 62, "note_on_time": 5.287, "note_off_time": 5.435}, {"pitch": 60, "velocity": 65, "note_on_time": 5.801, "note_off_time": 5.965}, {"pitch": 62, "velocity": 48, "note_on_time": 6.29, "note_off_time": 6.48}, {"pitch": 60, "velocity": 60, "note_on_time": 8.306, "note_off_time": 8.475}, {"pitch": 62, "velocity": 56, "note_on_time": 8.815, "note_off_time": 9.013}, {"pitch": 60, "velocity": 56, "note_on_time": 9.327, "note_off_time": 9.479}, {"pitch": 62, "velocity": 59, "note_on_time": 9.876, "note_off_time": 10.051}, {"pitch": 60, "velocity": 59, "note_on_time": 10.424, "note_off_time": 10.588}, {"pitch": 60, "velocity": 56, "note_on_time": 12.717, "note_off_time": 12.876}, {"pitch": 62, "velocity": 50, "note_on_time": 13.691, "note_off_time": 13.869}, {"pitch": 60, "velocity": 56, "note_on_time": 14.202, "note_off_time": 14.365}, {"pitch": 60, "velocity": 52, "note_on_time": 14.717, "note_off_time": 14.884}, {"pitch": 62, "velocity": 59, "note_on_time": 15.867, "note_off_time": 16.056}, {"pitch": 62, "velocity": 57, "note_on_time": 17.196, "note_off_time": 17.387}, {"pitch": 62, "velocity": 59, "note_on_time": 17.693, "note_off_time": 17.86}, {"pitch": 62, "velocity": 60, "note_on_time": 18.233, "note_off_time": 18.37}]</notes><guidance name="Guidance Mode">None</guidance><error name="Error value">0.05926506250000013</error></trial></trials></MIDI>