<MIDI midiNo="2022_11_03-09_40_50"><target_notes><notes name="Note List">[{"pitch": 42, "velocity": 80, "note_on_time": 0.004, "note_off_time": 0.231}, {"pitch": 42, "velocity": 80, "note_on_time": 0.231, "note_off_time": 0.45}, {"pitch": 42, "velocity": 80, "note_on_time": 0.45, "note_off_time": 0.668}, {"pitch": 42, "velocity": 80, "note_on_time": 0.668, "note_off_time": 0.885}, {"pitch": 64, "velocity": 80, "note_on_time": 0.885, "note_off_time": 1.105}, {"pitch": 42, "velocity": 80, "note_on_time": 0.885, "note_off_time": 1.105}, {"pitch": 64, "velocity": 80, "note_on_time": 1.105, "note_off_time": 1.323}, {"pitch": 42, "velocity": 80, "note_on_time": 1.105, "note_off_time": 1.323}, {"pitch": 42, "velocity": 80, "note_on_time": 1.323, "note_off_time": 1.542}, {"pitch": 65, "velocity": 80, "note_on_time": 1.323, "note_off_time": 1.762}, {"pitch": 42, "velocity": 80, "note_on_time": 1.543, "note_off_time": 1.762}, {"pitch": 62, "velocity": 80, "note_on_time": 1.762, "note_off_time": 1.978}, {"pitch": 42, "velocity": 80, "note_on_time": 1.762, "note_off_time": 1.978}, {"pitch": 65, "velocity": 80, "note_on_time": 1.978, "note_off_time": 2.196}, {"pitch": 42, "velocity": 80, "note_on_time": 1.978, "note_off_time": 2.196}, {"pitch": 64, "velocity": 80, "note_on_time": 2.196, "note_off_time": 2.415}, {"pitch": 42, "velocity": 80, "note_on_time": 2.197, "note_off_time": 2.415}, {"pitch": 62, "velocity": 80, "note_on_time": 2.415, "note_off_time": 2.634}, {"pitch": 42, "velocity": 80, "note_on_time": 2.415, "note_off_time": 2.634}, {"pitch": 60, "velocity": 80, "note_on_time": 2.634, "note_off_time": 2.851}, {"pitch": 42, "velocity": 80, "note_on_time": 2.634, "note_off_time": 2.851}, {"pitch": 62, "velocity": 80, "note_on_time": 2.851, "note_off_time": 3.069}, {"pitch": 42, "velocity": 80, "note_on_time": 2.851, "note_off_time": 3.069}, {"pitch": 64, "velocity": 80, "note_on_time": 3.069, "note_off_time": 3.286}, {"pitch": 42, "velocity": 80, "note_on_time": 3.069, "note_off_time": 3.286}, {"pitch": 62, "velocity": 80, "note_on_time": 3.286, "note_off_time": 3.505}, {"pitch": 42, "velocity": 80, "note_on_time": 3.286, "note_off_time": 3.505}, {"pitch": 64, "velocity": 80, "note_on_time": 3.505, "note_off_time": 3.723}, {"pitch": 42, "velocity": 80, "note_on_time": 3.506, "note_off_time": 3.723}, {"pitch": 64, "velocity": 80, "note_on_time": 3.723, "note_off_time": 3.939}, {"pitch": 42, "velocity": 80, "note_on_time": 3.723, "note_off_time": 3.939}, {"pitch": 64, "velocity": 80, "note_on_time": 3.939, "note_off_time": 4.158}, {"pitch": 42, "velocity": 80, "note_on_time": 3.939, "note_off_time": 4.158}, {"pitch": 67, "velocity": 80, "note_on_time": 4.158, "note_off_time": 4.374}, {"pitch": 42, "velocity": 80, "note_on_time": 4.158, "note_off_time": 4.375}, {"pitch": 64, "velocity": 80, "note_on_time": 4.375, "note_off_time": 4.594}, {"pitch": 42, "velocity": 80, "note_on_time": 4.375, "note_off_time": 4.594}, {"pitch": 42, "velocity": 80, "note_on_time": 4.594, "note_off_time": 4.812}, {"pitch": 62, "velocity": 80, "note_on_time": 4.594, "note_off_time": 5.031}, {"pitch": 42, "velocity": 80, "note_on_time": 4.812, "note_off_time": 5.031}, {"pitch": 42, "velocity": 80, "note_on_time": 5.031, "note_off_time": 5.249}, {"pitch": 64, "velocity": 80, "note_on_time": 5.249, "note_off_time": 5.468}, {"pitch": 42, "velocity": 80, "note_on_time": 5.249, "note_off_time": 5.468}, {"pitch": 62, "velocity": 80, "note_on_time": 5.468, "note_off_time": 5.684}, {"pitch": 42, "velocity": 80, "note_on_time": 5.468, "note_off_time": 5.684}, {"pitch": 42, "velocity": 80, "note_on_time": 5.684, "note_off_time": 5.901}, {"pitch": 42, "velocity": 80, "note_on_time": 5.901, "note_off_time": 6.119}, {"pitch": 67, "velocity": 80, "note_on_time": 6.119, "note_off_time": 6.338}, {"pitch": 42, "velocity": 80, "note_on_time": 6.119, "note_off_time": 6.338}, {"pitch": 64, "velocity": 80, "note_on_time": 6.338, "note_off_time": 6.558}, {"pitch": 42, "velocity": 80, "note_on_time": 6.338, "note_off_time": 6.558}, {"pitch": 60, "velocity": 80, "note_on_time": 6.558, "note_off_time": 6.776}, {"pitch": 42, "velocity": 80, "note_on_time": 6.558, "note_off_time": 6.776}, {"pitch": 62, "velocity": 80, "note_on_time": 6.776, "note_off_time": 6.994}, {"pitch": 42, "velocity": 80, "note_on_time": 6.776, "note_off_time": 6.994}, {"pitch": 42, "velocity": 80, "note_on_time": 6.994, "note_off_time": 7.213}, {"pitch": 62, "velocity": 80, "note_on_time": 7.213, "note_off_time": 7.429}, {"pitch": 42, "velocity": 80, "note_on_time": 7.213, "note_off_time": 7.429}, {"pitch": 62, "velocity": 80, "note_on_time": 7.429, "note_off_time": 7.648}, {"pitch": 42, "velocity": 80, "note_on_time": 7.429, "note_off_time": 7.648}, {"pitch": 62, "velocity": 80, "note_on_time": 7.648, "note_off_time": 7.867}, {"pitch": 42, "velocity": 80, "note_on_time": 7.649, "note_off_time": 7.867}]</notes><options name="Option List">((4, 4), [0.5, 0.25], 3, 8, &lt;NoteRangePerHand.C_TO_G: 6&gt;, &lt;NoteRangePerHand.ONE_NOTE: 2&gt;, False, True, False, 281)</options></target_notes><trials><trial trial_no="1" timestamp="2022_11_03-09_40_41"><notes name="Played Notes">[{"pitch": 64, "velocity": 64, "note_on_time": 0.909, "note_off_time": 1.003}, {"pitch": 64, "velocity": 54, "note_on_time": 1.153, "note_off_time": 1.401}, {"pitch": 65, "velocity": 70, "note_on_time": 1.381, "note_off_time": 1.724}, {"pitch": 62, "velocity": 58, "note_on_time": 1.824, "note_off_time": 2.019}, {"pitch": 65, "velocity": 51, "note_on_time": 2.029, "note_off_time": 2.352}, {"pitch": 64, "velocity": 61, "note_on_time": 2.254, "note_off_time": 2.468}, {"pitch": 62, "velocity": 57, "note_on_time": 2.477, "note_off_time": 2.724}, {"pitch": 60, "velocity": 65, "note_on_time": 2.695, "note_off_time": 2.906}, {"pitch": 62, "velocity": 71, "note_on_time": 2.879, "note_off_time": 3.103}, {"pitch": 64, "velocity": 71, "note_on_time": 3.098, "note_off_time": 3.383}, {"pitch": 60, "velocity": 52, "note_on_time": 3.338, "note_off_time": 3.478}, {"pitch": 64, "velocity": 62, "note_on_time": 3.592, "note_off_time": 3.633}, {"pitch": 64, "velocity": 55, "note_on_time": 3.754, "note_off_time": 3.823}, {"pitch": 65, "velocity": 48, "note_on_time": 4.136, "note_off_time": 4.203}, {"pitch": 67, "velocity": 39, "note_on_time": 4.128, "note_off_time": 4.211}, {"pitch": 62, "velocity": 54, "note_on_time": 4.924, "note_off_time": 5.314}, {"pitch": 64, "velocity": 58, "note_on_time": 5.669, "note_off_time": 5.898}, {"pitch": 62, "velocity": 55, "note_on_time": 5.888, "note_off_time": 6.223}, {"pitch": 67, "velocity": 53, "note_on_time": 6.575, "note_off_time": 6.801}, {"pitch": 64, "velocity": 43, "note_on_time": 6.795, "note_off_time": 6.976}, {"pitch": 60, "velocity": 64, "note_on_time": 7.0, "note_off_time": 7.25}, {"pitch": 62, "velocity": 59, "note_on_time": 7.234, "note_off_time": 7.507}, {"pitch": 62, "velocity": 60, "note_on_time": 7.695, "note_off_time": 7.753}]</notes><guidance name="Guidance Mode">None</guidance><error name="Error value">0.2813358260869565</error></trial><trial trial_no="2" timestamp="2022_11_03-09_40_58"><notes name="Played Notes">[{"pitch": 64, "velocity": 67, "note_on_time": 0.888, "note_off_time": 0.981}, {"pitch": 64, "velocity": 43, "note_on_time": 1.107, "note_off_time": 1.409}, {"pitch": 65, "velocity": 66, "note_on_time": 1.343, "note_off_time": 1.68}, {"pitch": 62, "velocity": 56, "note_on_time": 1.8, "note_off_time": 2.026}, {"pitch": 65, "velocity": 57, "note_on_time": 2.015, "note_off_time": 2.328}, {"pitch": 64, "velocity": 59, "note_on_time": 2.221, "note_off_time": 2.42}, {"pitch": 62, "velocity": 51, "note_on_time": 2.434, "note_off_time": 2.689}, {"pitch": 60, "velocity": 64, "note_on_time": 2.677, "note_off_time": 2.911}, {"pitch": 62, "velocity": 63, "note_on_time": 2.875, "note_off_time": 3.11}, {"pitch": 64, "velocity": 59, "note_on_time": 3.123, "note_off_time": 3.341}, {"pitch": 62, "velocity": 63, "note_on_time": 3.326, "note_off_time": 3.577}, {"pitch": 64, "velocity": 62, "note_on_time": 3.55, "note_off_time": 3.636}, {"pitch": 64, "velocity": 62, "note_on_time": 3.751, "note_off_time": 3.837}, {"pitch": 64, "velocity": 73, "note_on_time": 3.992, "note_off_time": 4.237}, {"pitch": 64, "velocity": 60, "note_on_time": 4.433, "note_off_time": 4.632}, {"pitch": 62, "velocity": 60, "note_on_time": 4.636, "note_off_time": 4.972}, {"pitch": 64, "velocity": 54, "note_on_time": 5.303, "note_off_time": 5.528}, {"pitch": 62, "velocity": 50, "note_on_time": 5.503, "note_off_time": 5.787}, {"pitch": 67, "velocity": 33, "note_on_time": 6.176, "note_off_time": 6.467}, {"pitch": 64, "velocity": 50, "note_on_time": 6.389, "note_off_time": 6.588}, {"pitch": 60, "velocity": 56, "note_on_time": 6.611, "note_off_time": 6.871}, {"pitch": 62, "velocity": 60, "note_on_time": 6.83, "note_off_time": 7.099}, {"pitch": 62, "velocity": 61, "note_on_time": 7.275, "note_off_time": 7.332}, {"pitch": 62, "velocity": 55, "note_on_time": 7.474, "note_off_time": 7.532}, {"pitch": 62, "velocity": 59, "note_on_time": 7.665, "note_off_time": 7.772}]</notes><guidance name="Guidance Mode">None</guidance><error name="Error value">0.06842678260869567</error></trial><trial trial_no="3" timestamp="2022_11_03-09_41_17"><notes name="Played Notes">[{"pitch": 64, "velocity": 61, "note_on_time": 0.869, "note_off_time": 0.964}, {"pitch": 64, "velocity": 49, "note_on_time": 1.104, "note_off_time": 1.407}, {"pitch": 65, "velocity": 67, "note_on_time": 1.339, "note_off_time": 1.659}, {"pitch": 62, "velocity": 53, "note_on_time": 1.777, "note_off_time": 2.006}, {"pitch": 65, "velocity": 54, "note_on_time": 1.993, "note_off_time": 2.289}, {"pitch": 64, "velocity": 58, "note_on_time": 2.222, "note_off_time": 2.409}, {"pitch": 62, "velocity": 46, "note_on_time": 2.443, "note_off_time": 2.686}, {"pitch": 60, "velocity": 67, "note_on_time": 2.668, "note_off_time": 2.884}, {"pitch": 62, "velocity": 65, "note_on_time": 2.848, "note_off_time": 3.08}, {"pitch": 64, "velocity": 60, "note_on_time": 3.092, "note_off_time": 3.293}, {"pitch": 62, "velocity": 46, "note_on_time": 3.28, "note_off_time": 3.512}, {"pitch": 64, "velocity": 62, "note_on_time": 3.49, "note_off_time": 3.582}, {"pitch": 64, "velocity": 71, "note_on_time": 3.701, "note_off_time": 3.772}, {"pitch": 64, "velocity": 62, "note_on_time": 3.898, "note_off_time": 4.149}, {"pitch": 67, "velocity": 61, "note_on_time": 4.111, "note_off_time": 4.315}, {"pitch": 64, "velocity": 65, "note_on_time": 4.324, "note_off_time": 4.585}, {"pitch": 62, "velocity": 60, "note_on_time": 4.54, "note_off_time": 4.928}, {"pitch": 64, "velocity": 53, "note_on_time": 5.203, "note_off_time": 5.462}, {"pitch": 62, "velocity": 55, "note_on_time": 5.424, "note_off_time": 5.778}, {"pitch": 67, "velocity": 60, "note_on_time": 6.14, "note_off_time": 6.42}, {"pitch": 64, "velocity": 52, "note_on_time": 6.353, "note_off_time": 6.573}, {"pitch": 60, "velocity": 57, "note_on_time": 6.588, "note_off_time": 6.856}, {"pitch": 62, "velocity": 56, "note_on_time": 6.826, "note_off_time": 7.125}, {"pitch": 62, "velocity": 66, "note_on_time": 7.297, "note_off_time": 7.369}, {"pitch": 62, "velocity": 63, "note_on_time": 7.516, "note_off_time": 7.594}, {"pitch": 62, "velocity": 59, "note_on_time": 7.714, "note_off_time": 7.824}]</notes><guidance name="Guidance Mode">None</guidance><error name="Error value">0.018400043478260825</error></trial></trials></MIDI>