<MIDI midiNo="2022_12_22-12_54_24"><target_notes><notes name="Note List">[{"pitch": 42, "velocity": 80, "note_on_time": 0.004, "note_off_time": 0.256}, {"pitch": 42, "velocity": 80, "note_on_time": 0.256, "note_off_time": 0.507}, {"pitch": 42, "velocity": 80, "note_on_time": 0.507, "note_off_time": 0.756}, {"pitch": 42, "velocity": 80, "note_on_time": 0.756, "note_off_time": 1.005}, {"pitch": 62, "velocity": 80, "note_on_time": 1.005, "note_off_time": 1.254}, {"pitch": 42, "velocity": 80, "note_on_time": 1.005, "note_off_time": 1.255}, {"pitch": 42, "velocity": 80, "note_on_time": 1.255, "note_off_time": 1.506}, {"pitch": 67, "velocity": 80, "note_on_time": 1.254, "note_off_time": 1.755}, {"pitch": 42, "velocity": 80, "note_on_time": 1.506, "note_off_time": 1.756}, {"pitch": 65, "velocity": 80, "note_on_time": 1.755, "note_off_time": 2.003}, {"pitch": 42, "velocity": 80, "note_on_time": 1.756, "note_off_time": 2.004}, {"pitch": 65, "velocity": 80, "note_on_time": 2.003, "note_off_time": 2.252}, {"pitch": 42, "velocity": 80, "note_on_time": 2.004, "note_off_time": 2.253}, {"pitch": 62, "velocity": 80, "note_on_time": 2.252, "note_off_time": 2.503}, {"pitch": 42, "velocity": 80, "note_on_time": 2.253, "note_off_time": 2.503}, {"pitch": 42, "velocity": 80, "note_on_time": 2.504, "note_off_time": 2.753}, {"pitch": 60, "velocity": 80, "note_on_time": 2.503, "note_off_time": 3.001}, {"pitch": 42, "velocity": 80, "note_on_time": 2.753, "note_off_time": 3.001}, {"pitch": 42, "velocity": 80, "note_on_time": 3.001, "note_off_time": 3.252}, {"pitch": 65, "velocity": 80, "note_on_time": 3.001, "note_off_time": 3.503}, {"pitch": 42, "velocity": 80, "note_on_time": 3.252, "note_off_time": 3.503}, {"pitch": 65, "velocity": 80, "note_on_time": 3.503, "note_off_time": 3.751}, {"pitch": 42, "velocity": 80, "note_on_time": 3.503, "note_off_time": 3.751}, {"pitch": 42, "velocity": 80, "note_on_time": 3.751, "note_off_time": 4.002}, {"pitch": 64, "velocity": 80, "note_on_time": 4.002, "note_off_time": 4.251}, {"pitch": 42, "velocity": 80, "note_on_time": 4.002, "note_off_time": 4.251}, {"pitch": 42, "velocity": 80, "note_on_time": 4.251, "note_off_time": 4.503}, {"pitch": 62, "velocity": 80, "note_on_time": 4.251, "note_off_time": 4.75}, {"pitch": 42, "velocity": 80, "note_on_time": 4.503, "note_off_time": 4.751}, {"pitch": 62, "velocity": 80, "note_on_time": 4.75, "note_off_time": 4.998}, {"pitch": 42, "velocity": 80, "note_on_time": 4.751, "note_off_time": 4.998}, {"pitch": 42, "velocity": 80, "note_on_time": 4.998, "note_off_time": 5.249}, {"pitch": 65, "velocity": 80, "note_on_time": 4.998, "note_off_time": 5.497}, {"pitch": 42, "velocity": 80, "note_on_time": 5.249, "note_off_time": 5.497}, {"pitch": 42, "velocity": 80, "note_on_time": 5.498, "note_off_time": 5.746}, {"pitch": 65, "velocity": 80, "note_on_time": 5.497, "note_off_time": 5.994}, {"pitch": 42, "velocity": 80, "note_on_time": 5.746, "note_off_time": 5.994}, {"pitch": 42, "velocity": 80, "note_on_time": 5.994, "note_off_time": 6.241}, {"pitch": 62, "velocity": 80, "note_on_time": 5.994, "note_off_time": 6.489}, {"pitch": 42, "velocity": 80, "note_on_time": 6.241, "note_off_time": 6.489}, {"pitch": 64, "velocity": 80, "note_on_time": 6.489, "note_off_time": 6.738}, {"pitch": 42, "velocity": 80, "note_on_time": 6.49, "note_off_time": 6.738}, {"pitch": 64, "velocity": 80, "note_on_time": 6.738, "note_off_time": 6.986}, {"pitch": 42, "velocity": 80, "note_on_time": 6.738, "note_off_time": 6.986}, {"pitch": 64, "velocity": 80, "note_on_time": 6.986, "note_off_time": 7.236}, {"pitch": 42, "velocity": 80, "note_on_time": 6.986, "note_off_time": 7.236}, {"pitch": 62, "velocity": 80, "note_on_time": 7.236, "note_off_time": 7.485}, {"pitch": 42, "velocity": 80, "note_on_time": 7.237, "note_off_time": 7.485}, {"pitch": 67, "velocity": 80, "note_on_time": 7.485, "note_off_time": 7.734}, {"pitch": 42, "velocity": 80, "note_on_time": 7.486, "note_off_time": 7.734}, {"pitch": 65, "velocity": 80, "note_on_time": 7.734, "note_off_time": 7.983}, {"pitch": 42, "velocity": 80, "note_on_time": 7.734, "note_off_time": 7.983}, {"pitch": 42, "velocity": 80, "note_on_time": 7.983, "note_off_time": 8.231}, {"pitch": 65, "velocity": 80, "note_on_time": 8.231, "note_off_time": 8.481}, {"pitch": 42, "velocity": 80, "note_on_time": 8.231, "note_off_time": 8.481}, {"pitch": 65, "velocity": 80, "note_on_time": 8.481, "note_off_time": 8.73}, {"pitch": 42, "velocity": 80, "note_on_time": 8.481, "note_off_time": 8.731}, {"pitch": 65, "velocity": 80, "note_on_time": 8.73, "note_off_time": 8.978}, {"pitch": 42, "velocity": 80, "note_on_time": 8.731, "note_off_time": 8.978}]</notes><options name="Option List">((4, 4), [0.5, 0.25], 3, 8, &lt;NoteRangePerHand.C_TO_G: 6&gt;, &lt;NoteRangePerHand.ONE_NOTE: 2&gt;, False, True, False, 248)</options></target_notes><trials><trial trial_no="1" timestamp="2022_12_22-12_54_13"><notes name="Played Notes">[{"pitch": 62, "velocity": 64, "note_on_time": 0.997, "note_off_time": 1.247}, {"pitch": 67, "velocity": 64, "note_on_time": 1.255, "note_off_time": 1.675}, {"pitch": 65, "velocity": 62, "note_on_time": 1.929, "note_off_time": 2.083}, {"pitch": 65, "velocity": 61, "note_on_time": 2.252, "note_off_time": 2.593}, {"pitch": 64, "velocity": 79, "note_on_time": 2.626, "note_off_time": 2.827}, {"pitch": 62, "velocity": 49, "note_on_time": 2.838, "note_off_time": 3.062}, {"pitch": 60, "velocity": 68, "note_on_time": 3.193, "note_off_time": 3.408}, {"pitch": 65, "velocity": 43, "note_on_time": 3.461, "note_off_time": 3.637}, {"pitch": 65, "velocity": 70, "note_on_time": 3.749, "note_off_time": 4.096}, {"pitch": 62, "velocity": 62, "note_on_time": 4.302, "note_off_time": 4.495}, {"pitch": 62, "velocity": 55, "note_on_time": 5.098, "note_off_time": 5.383}, {"pitch": 67, "velocity": 70, "note_on_time": 5.821, "note_off_time": 5.919}, {"pitch": 65, "velocity": 63, "note_on_time": 6.034, "note_off_time": 6.144}, {"pitch": 65, "velocity": 63, "note_on_time": 6.281, "note_off_time": 6.504}, {"pitch": 62, "velocity": 59, "note_on_time": 6.522, "note_off_time": 6.738}, {"pitch": 65, "velocity": 49, "note_on_time": 6.769, "note_off_time": 6.902}, {"pitch": 64, "velocity": 53, "note_on_time": 7.02, "note_off_time": 7.2}, {"pitch": 64, "velocity": 65, "note_on_time": 7.293, "note_off_time": 7.529}, {"pitch": 62, "velocity": 59, "note_on_time": 7.537, "note_off_time": 7.663}, {"pitch": 62, "velocity": 52, "note_on_time": 7.769, "note_off_time": 7.855}, {"pitch": 67, "velocity": 71, "note_on_time": 7.87, "note_off_time": 8.147}, {"pitch": 65, "velocity": 65, "note_on_time": 8.127, "note_off_time": 8.45}]</notes><guidance name="Guidance Mode">None</guidance><error name="Error value">0.863687</error></trial><trial trial_no="2" timestamp="2022_12_22-12_54_38"><notes name="Played Notes">[{"pitch": 62, "velocity": 66, "note_on_time": 0.99, "note_off_time": 1.234}, {"pitch": 65, "velocity": 71, "note_on_time": 1.246, "note_off_time": 1.361}, {"pitch": 64, "velocity": 55, "note_on_time": 2.02, "note_off_time": 2.141}, {"pitch": 62, "velocity": 59, "note_on_time": 3.48, "note_off_time": 3.674}, {"pitch": 60, "velocity": 52, "note_on_time": 3.713, "note_off_time": 3.936}, {"pitch": 65, "velocity": 58, "note_on_time": 3.997, "note_off_time": 4.126}, {"pitch": 65, "velocity": 80, "note_on_time": 4.24, "note_off_time": 4.756}, {"pitch": 64, "velocity": 62, "note_on_time": 4.999, "note_off_time": 5.189}, {"pitch": 62, "velocity": 52, "note_on_time": 5.222, "note_off_time": 5.337}, {"pitch": 62, "velocity": 63, "note_on_time": 5.73, "note_off_time": 6.02}, {"pitch": 65, "velocity": 73, "note_on_time": 6.517, "note_off_time": 6.793}, {"pitch": 65, "velocity": 75, "note_on_time": 6.987, "note_off_time": 7.385}, {"pitch": 62, "velocity": 66, "note_on_time": 7.479, "note_off_time": 7.71}, {"pitch": 64, "velocity": 54, "note_on_time": 7.725, "note_off_time": 7.82}, {"pitch": 64, "velocity": 58, "note_on_time": 7.959, "note_off_time": 8.17}, {"pitch": 64, "velocity": 68, "note_on_time": 8.467, "note_off_time": 8.671}, {"pitch": 62, "velocity": 53, "note_on_time": 8.682, "note_off_time": 8.9}]</notes><guidance name="Guidance Mode">None</guidance><error name="Error value">0.88698375</error></trial><trial trial_no="3" timestamp="2022_12_22-12_55_09"><notes name="Played Notes">[{"pitch": 62, "velocity": 69, "note_on_time": 1.016, "note_off_time": 1.241}, {"pitch": 67, "velocity": 75, "note_on_time": 1.235, "note_off_time": 1.729}, {"pitch": 65, "velocity": 75, "note_on_time": 1.963, "note_off_time": 2.083}, {"pitch": 65, "velocity": 59, "note_on_time": 2.218, "note_off_time": 2.451}, {"pitch": 62, "velocity": 68, "note_on_time": 2.464, "note_off_time": 2.716}, {"pitch": 60, "velocity": 74, "note_on_time": 2.717, "note_off_time": 2.942}, {"pitch": 65, "velocity": 82, "note_on_time": 2.974, "note_off_time": 3.355}, {"pitch": 65, "velocity": 68, "note_on_time": 3.511, "note_off_time": 3.891}, {"pitch": 64, "velocity": 65, "note_on_time": 4.066, "note_off_time": 4.238}, {"pitch": 62, "velocity": 64, "note_on_time": 4.267, "note_off_time": 4.665}, {"pitch": 62, "velocity": 68, "note_on_time": 4.807, "note_off_time": 5.267}, {"pitch": 65, "velocity": 80, "note_on_time": 5.308, "note_off_time": 5.424}, {"pitch": 65, "velocity": 61, "note_on_time": 5.517, "note_off_time": 5.909}, {"pitch": 60, "velocity": 39, "note_on_time": 6.034, "note_off_time": 6.073}, {"pitch": 62, "velocity": 66, "note_on_time": 6.092, "note_off_time": 6.576}, {"pitch": 64, "velocity": 72, "note_on_time": 6.571, "note_off_time": 6.79}, {"pitch": 64, "velocity": 64, "note_on_time": 6.929, "note_off_time": 7.119}, {"pitch": 64, "velocity": 71, "note_on_time": 7.348, "note_off_time": 7.478}, {"pitch": 62, "velocity": 51, "note_on_time": 7.487, "note_off_time": 7.703}, {"pitch": 67, "velocity": 62, "note_on_time": 7.718, "note_off_time": 7.922}, {"pitch": 65, "velocity": 64, "note_on_time": 7.911, "note_off_time": 8.04}, {"pitch": 65, "velocity": 60, "note_on_time": 8.533, "note_off_time": 8.618}, {"pitch": 65, "velocity": 64, "note_on_time": 8.737, "note_off_time": 8.844}]</notes><guidance name="Guidance Mode">None</guidance><error name="Error value">0.38117274999999995</error></trial></trials></MIDI>