<MIDI midiNo="2022_12_22-13_17_42"><target_notes><notes name="Note List">[{"pitch": 42, "velocity": 80, "note_on_time": 0.004, "note_off_time": 0.267}, {"pitch": 42, "velocity": 80, "note_on_time": 0.267, "note_off_time": 0.531}, {"pitch": 42, "velocity": 80, "note_on_time": 0.532, "note_off_time": 0.795}, {"pitch": 42, "velocity": 80, "note_on_time": 0.796, "note_off_time": 1.06}, {"pitch": 60, "velocity": 80, "note_on_time": 1.06, "note_off_time": 1.326}, {"pitch": 42, "velocity": 80, "note_on_time": 1.06, "note_off_time": 1.326}, {"pitch": 64, "velocity": 80, "note_on_time": 1.326, "note_off_time": 1.593}, {"pitch": 42, "velocity": 80, "note_on_time": 1.326, "note_off_time": 1.593}, {"pitch": 64, "velocity": 80, "note_on_time": 1.593, "note_off_time": 1.857}, {"pitch": 42, "velocity": 80, "note_on_time": 1.593, "note_off_time": 1.858}, {"pitch": 64, "velocity": 80, "note_on_time": 1.857, "note_off_time": 2.121}, {"pitch": 42, "velocity": 80, "note_on_time": 1.858, "note_off_time": 2.121}, {"pitch": 60, "velocity": 80, "note_on_time": 2.121, "note_off_time": 2.384}, {"pitch": 42, "velocity": 80, "note_on_time": 2.121, "note_off_time": 2.384}, {"pitch": 60, "velocity": 80, "note_on_time": 2.384, "note_off_time": 2.647}, {"pitch": 42, "velocity": 80, "note_on_time": 2.384, "note_off_time": 2.647}, {"pitch": 62, "velocity": 80, "note_on_time": 2.647, "note_off_time": 2.909}, {"pitch": 42, "velocity": 80, "note_on_time": 2.648, "note_off_time": 2.909}, {"pitch": 62, "velocity": 80, "note_on_time": 2.909, "note_off_time": 3.172}, {"pitch": 42, "velocity": 80, "note_on_time": 2.91, "note_off_time": 3.172}, {"pitch": 62, "velocity": 80, "note_on_time": 3.172, "note_off_time": 3.434}, {"pitch": 42, "velocity": 80, "note_on_time": 3.173, "note_off_time": 3.435}, {"pitch": 60, "velocity": 80, "note_on_time": 3.434, "note_off_time": 3.698}, {"pitch": 42, "velocity": 80, "note_on_time": 3.435, "note_off_time": 3.699}, {"pitch": 60, "velocity": 80, "note_on_time": 3.698, "note_off_time": 3.959}, {"pitch": 42, "velocity": 80, "note_on_time": 3.699, "note_off_time": 3.959}, {"pitch": 64, "velocity": 80, "note_on_time": 3.959, "note_off_time": 4.224}, {"pitch": 42, "velocity": 80, "note_on_time": 3.96, "note_off_time": 4.224}, {"pitch": 62, "velocity": 80, "note_on_time": 4.224, "note_off_time": 4.489}, {"pitch": 42, "velocity": 80, "note_on_time": 4.224, "note_off_time": 4.489}, {"pitch": 62, "velocity": 80, "note_on_time": 4.489, "note_off_time": 4.755}, {"pitch": 42, "velocity": 80, "note_on_time": 4.489, "note_off_time": 4.756}, {"pitch": 60, "velocity": 80, "note_on_time": 4.755, "note_off_time": 5.019}, {"pitch": 42, "velocity": 80, "note_on_time": 4.756, "note_off_time": 5.019}, {"pitch": 62, "velocity": 80, "note_on_time": 5.019, "note_off_time": 5.285}, {"pitch": 42, "velocity": 80, "note_on_time": 5.02, "note_off_time": 5.285}, {"pitch": 62, "velocity": 80, "note_on_time": 5.285, "note_off_time": 5.549}, {"pitch": 42, "velocity": 80, "note_on_time": 5.285, "note_off_time": 5.549}, {"pitch": 60, "velocity": 80, "note_on_time": 5.549, "note_off_time": 5.812}, {"pitch": 42, "velocity": 80, "note_on_time": 5.549, "note_off_time": 5.812}, {"pitch": 60, "velocity": 80, "note_on_time": 5.812, "note_off_time": 6.076}, {"pitch": 42, "velocity": 80, "note_on_time": 5.812, "note_off_time": 6.077}, {"pitch": 64, "velocity": 80, "note_on_time": 6.076, "note_off_time": 6.341}, {"pitch": 42, "velocity": 80, "note_on_time": 6.077, "note_off_time": 6.341}, {"pitch": 62, "velocity": 80, "note_on_time": 6.341, "note_off_time": 6.606}, {"pitch": 42, "velocity": 80, "note_on_time": 6.342, "note_off_time": 6.607}, {"pitch": 60, "velocity": 80, "note_on_time": 6.606, "note_off_time": 6.87}, {"pitch": 42, "velocity": 80, "note_on_time": 6.607, "note_off_time": 6.87}, {"pitch": 64, "velocity": 80, "note_on_time": 6.87, "note_off_time": 7.134}, {"pitch": 42, "velocity": 80, "note_on_time": 6.871, "note_off_time": 7.134}, {"pitch": 42, "velocity": 80, "note_on_time": 7.134, "note_off_time": 7.402}, {"pitch": 62, "velocity": 80, "note_on_time": 7.402, "note_off_time": 7.668}, {"pitch": 42, "velocity": 80, "note_on_time": 7.402, "note_off_time": 7.668}, {"pitch": 64, "velocity": 80, "note_on_time": 7.668, "note_off_time": 7.933}, {"pitch": 42, "velocity": 80, "note_on_time": 7.669, "note_off_time": 7.933}, {"pitch": 42, "velocity": 80, "note_on_time": 7.933, "note_off_time": 8.2}, {"pitch": 64, "velocity": 80, "note_on_time": 8.2, "note_off_time": 8.463}, {"pitch": 42, "velocity": 80, "note_on_time": 8.201, "note_off_time": 8.463}, {"pitch": 42, "velocity": 80, "note_on_time": 8.463, "note_off_time": 8.729}, {"pitch": 64, "velocity": 80, "note_on_time": 8.729, "note_off_time": 8.995}, {"pitch": 42, "velocity": 80, "note_on_time": 8.729, "note_off_time": 8.995}, {"pitch": 64, "velocity": 80, "note_on_time": 8.995, "note_off_time": 9.26}, {"pitch": 42, "velocity": 80, "note_on_time": 8.995, "note_off_time": 9.26}, {"pitch": 64, "velocity": 80, "note_on_time": 9.26, "note_off_time": 9.524}, {"pitch": 42, "velocity": 80, "note_on_time": 9.26, "note_off_time": 9.525}]</notes><options name="Option List">((4, 4), [0.5, 0.25], 3, 8, &lt;NoteRangePerHand.THREE_NOTES: 4&gt;, &lt;NoteRangePerHand.ONE_NOTE: 2&gt;, False, True, False, '232')</options></target_notes><trials><trial trial_no="1" timestamp="2022_12_22-13_17_31"><notes name="Played Notes">[{"pitch": 60, "velocity": 79, "note_on_time": 1.127, "note_off_time": 1.305}, {"pitch": 64, "velocity": 88, "note_on_time": 1.384, "note_off_time": 1.516}, {"pitch": 64, "velocity": 92, "note_on_time": 1.651, "note_off_time": 1.76}, {"pitch": 64, "velocity": 93, "note_on_time": 1.898, "note_off_time": 2.024}, {"pitch": 60, "velocity": 88, "note_on_time": 2.174, "note_off_time": 2.296}, {"pitch": 62, "velocity": 86, "note_on_time": 2.451, "note_off_time": 2.583}, {"pitch": 62, "velocity": 92, "note_on_time": 2.72, "note_off_time": 2.855}, {"pitch": 60, "velocity": 91, "note_on_time": 3.0, "note_off_time": 3.115}, {"pitch": 62, "velocity": 86, "note_on_time": 3.276, "note_off_time": 3.414}, {"pitch": 64, "velocity": 76, "note_on_time": 3.729, "note_off_time": 3.945}, {"pitch": 62, "velocity": 89, "note_on_time": 4.254, "note_off_time": 4.393}, {"pitch": 62, "velocity": 84, "note_on_time": 4.507, "note_off_time": 4.656}, {"pitch": 60, "velocity": 84, "note_on_time": 4.781, "note_off_time": 4.93}, {"pitch": 62, "velocity": 94, "note_on_time": 5.057, "note_off_time": 5.21}, {"pitch": 62, "velocity": 86, "note_on_time": 5.326, "note_off_time": 5.483}, {"pitch": 60, "velocity": 83, "note_on_time": 5.765, "note_off_time": 5.913}, {"pitch": 60, "velocity": 85, "note_on_time": 6.025, "note_off_time": 6.152}, {"pitch": 64, "velocity": 95, "note_on_time": 6.318, "note_off_time": 6.474}, {"pitch": 62, "velocity": 80, "note_on_time": 6.75, "note_off_time": 6.928}, {"pitch": 60, "velocity": 97, "note_on_time": 7.101, "note_off_time": 7.275}, {"pitch": 62, "velocity": 88, "note_on_time": 7.412, "note_off_time": 7.557}, {"pitch": 64, "velocity": 97, "note_on_time": 7.703, "note_off_time": 7.808}, {"pitch": 62, "velocity": 94, "note_on_time": 8.602, "note_off_time": 8.731}, {"pitch": 64, "velocity": 96, "note_on_time": 8.893, "note_off_time": 9.013}]</notes><guidance name="Guidance Mode">None</guidance><error name="Error value">0.4916169230769232</error></trial><trial trial_no="2" timestamp="2022_12_22-13_17_55"><notes name="Played Notes">[{"pitch": 60, "velocity": 96, "note_on_time": 1.124, "note_off_time": 1.312}, {"pitch": 64, "velocity": 84, "note_on_time": 1.375, "note_off_time": 1.492}, {"pitch": 64, "velocity": 98, "note_on_time": 1.659, "note_off_time": 1.75}, {"pitch": 64, "velocity": 99, "note_on_time": 1.923, "note_off_time": 2.068}, {"pitch": 60, "velocity": 92, "note_on_time": 2.185, "note_off_time": 2.289}, {"pitch": 60, "velocity": 95, "note_on_time": 2.445, "note_off_time": 2.58}, {"pitch": 62, "velocity": 96, "note_on_time": 2.719, "note_off_time": 2.824}, {"pitch": 62, "velocity": 93, "note_on_time": 2.966, "note_off_time": 3.103}, {"pitch": 60, "velocity": 98, "note_on_time": 3.24, "note_off_time": 3.354}, {"pitch": 62, "velocity": 89, "note_on_time": 3.505, "note_off_time": 3.624}, {"pitch": 62, "velocity": 92, "note_on_time": 3.771, "note_off_time": 3.892}, {"pitch": 64, "velocity": 90, "note_on_time": 4.076, "note_off_time": 4.24}, {"pitch": 62, "velocity": 94, "note_on_time": 4.589, "note_off_time": 4.748}, {"pitch": 62, "velocity": 83, "note_on_time": 4.863, "note_off_time": 5.011}, {"pitch": 60, "velocity": 92, "note_on_time": 5.115, "note_off_time": 5.237}, {"pitch": 62, "velocity": 94, "note_on_time": 5.378, "note_off_time": 5.494}, {"pitch": 62, "velocity": 90, "note_on_time": 5.923, "note_off_time": 6.057}, {"pitch": 60, "velocity": 89, "note_on_time": 6.464, "note_off_time": 6.624}, {"pitch": 60, "velocity": 89, "note_on_time": 6.754, "note_off_time": 6.884}, {"pitch": 64, "velocity": 89, "note_on_time": 7.073, "note_off_time": 7.227}, {"pitch": 62, "velocity": 95, "note_on_time": 7.409, "note_off_time": 7.554}, {"pitch": 60, "velocity": 95, "note_on_time": 7.684, "note_off_time": 7.828}, {"pitch": 62, "velocity": 87, "note_on_time": 7.956, "note_off_time": 8.103}, {"pitch": 64, "velocity": 101, "note_on_time": 8.257, "note_off_time": 8.36}, {"pitch": 62, "velocity": 90, "note_on_time": 9.03, "note_off_time": 9.14}, {"pitch": 64, "velocity": 92, "note_on_time": 9.27, "note_off_time": 9.365}]</notes><guidance name="Guidance Mode">None</guidance><error name="Error value">0.585836923076923</error></trial><trial trial_no="3" timestamp="2022_12_22-13_18_21"><notes name="Played Notes">[{"pitch": 60, "velocity": 98, "note_on_time": 1.09, "note_off_time": 1.239}, {"pitch": 64, "velocity": 84, "note_on_time": 1.337, "note_off_time": 1.453}, {"pitch": 64, "velocity": 97, "note_on_time": 1.595, "note_off_time": 1.698}, {"pitch": 64, "velocity": 96, "note_on_time": 1.851, "note_off_time": 1.99}, {"pitch": 60, "velocity": 98, "note_on_time": 2.125, "note_off_time": 2.236}, {"pitch": 60, "velocity": 98, "note_on_time": 2.373, "note_off_time": 2.511}, {"pitch": 62, "velocity": 93, "note_on_time": 2.647, "note_off_time": 2.767}, {"pitch": 62, "velocity": 92, "note_on_time": 2.915, "note_off_time": 3.029}, {"pitch": 62, "velocity": 97, "note_on_time": 3.176, "note_off_time": 3.293}, {"pitch": 60, "velocity": 97, "note_on_time": 3.44, "note_off_time": 3.525}, {"pitch": 60, "velocity": 100, "note_on_time": 3.682, "note_off_time": 3.817}, {"pitch": 64, "velocity": 93, "note_on_time": 3.961, "note_off_time": 4.099}, {"pitch": 62, "velocity": 86, "note_on_time": 4.236, "note_off_time": 4.339}, {"pitch": 62, "velocity": 89, "note_on_time": 4.494, "note_off_time": 4.622}, {"pitch": 60, "velocity": 98, "note_on_time": 4.793, "note_off_time": 4.925}, {"pitch": 62, "velocity": 98, "note_on_time": 5.084, "note_off_time": 5.214}, {"pitch": 60, "velocity": 91, "note_on_time": 5.344, "note_off_time": 5.465}, {"pitch": 62, "velocity": 83, "note_on_time": 5.638, "note_off_time": 5.76}, {"pitch": 62, "velocity": 82, "note_on_time": 5.927, "note_off_time": 6.039}, {"pitch": 64, "velocity": 95, "note_on_time": 6.25, "note_off_time": 6.384}, {"pitch": 62, "velocity": 56, "note_on_time": 6.593, "note_off_time": 6.696}, {"pitch": 60, "velocity": 84, "note_on_time": 6.963, "note_off_time": 7.167}, {"pitch": 62, "velocity": 87, "note_on_time": 7.301, "note_off_time": 7.433}, {"pitch": 64, "velocity": 99, "note_on_time": 7.61, "note_off_time": 7.722}, {"pitch": 64, "velocity": 82, "note_on_time": 8.117, "note_off_time": 8.279}, {"pitch": 62, "velocity": 84, "note_on_time": 8.623, "note_off_time": 8.836}, {"pitch": 64, "velocity": 78, "note_on_time": 8.751, "note_off_time": 8.94}, {"pitch": 64, "velocity": 90, "note_on_time": 9.262, "note_off_time": 9.403}]</notes><guidance name="Guidance Mode">None</guidance><error name="Error value">0.281106153846154</error></trial></trials></MIDI>