<MIDI midiNo="2022_08_17-12_59_30"><target_notes><notes name="Note List">[{"pitch": 42, "velocity": 80, "note_on_time": 0.004, "note_off_time": 0.259}, {"pitch": 42, "velocity": 80, "note_on_time": 0.259, "note_off_time": 0.51}, {"pitch": 42, "velocity": 80, "note_on_time": 0.51, "note_off_time": 0.759}, {"pitch": 42, "velocity": 80, "note_on_time": 0.76, "note_off_time": 1.008}, {"pitch": 64, "velocity": 80, "note_on_time": 1.008, "note_off_time": 1.257}, {"pitch": 42, "velocity": 80, "note_on_time": 1.008, "note_off_time": 1.257}, {"pitch": 65, "velocity": 80, "note_on_time": 1.257, "note_off_time": 1.505}, {"pitch": 42, "velocity": 80, "note_on_time": 1.257, "note_off_time": 1.505}, {"pitch": 67, "velocity": 80, "note_on_time": 1.505, "note_off_time": 1.753}, {"pitch": 42, "velocity": 80, "note_on_time": 1.506, "note_off_time": 1.753}, {"pitch": 67, "velocity": 80, "note_on_time": 1.753, "note_off_time": 2.003}, {"pitch": 42, "velocity": 80, "note_on_time": 1.753, "note_off_time": 2.004}, {"pitch": 62, "velocity": 80, "note_on_time": 2.004, "note_off_time": 2.254}, {"pitch": 42, "velocity": 80, "note_on_time": 2.004, "note_off_time": 2.255}, {"pitch": 60, "velocity": 80, "note_on_time": 2.254, "note_off_time": 2.504}, {"pitch": 42, "velocity": 80, "note_on_time": 2.255, "note_off_time": 2.504}, {"pitch": 67, "velocity": 80, "note_on_time": 2.504, "note_off_time": 2.752}, {"pitch": 42, "velocity": 80, "note_on_time": 2.505, "note_off_time": 2.752}, {"pitch": 67, "velocity": 80, "note_on_time": 2.752, "note_off_time": 3.0}, {"pitch": 42, "velocity": 80, "note_on_time": 2.753, "note_off_time": 3.0}, {"pitch": 62, "velocity": 80, "note_on_time": 3.0, "note_off_time": 3.251}, {"pitch": 42, "velocity": 80, "note_on_time": 3.001, "note_off_time": 3.251}, {"pitch": 42, "velocity": 80, "note_on_time": 3.252, "note_off_time": 3.503}, {"pitch": 67, "velocity": 80, "note_on_time": 3.251, "note_off_time": 3.755}, {"pitch": 42, "velocity": 80, "note_on_time": 3.503, "note_off_time": 3.756}, {"pitch": 42, "velocity": 80, "note_on_time": 3.756, "note_off_time": 4.006}, {"pitch": 62, "velocity": 80, "note_on_time": 4.006, "note_off_time": 4.255}, {"pitch": 42, "velocity": 80, "note_on_time": 4.006, "note_off_time": 4.255}, {"pitch": 65, "velocity": 80, "note_on_time": 4.255, "note_off_time": 4.505}, {"pitch": 42, "velocity": 80, "note_on_time": 4.255, "note_off_time": 4.505}, {"pitch": 42, "velocity": 80, "note_on_time": 4.506, "note_off_time": 4.755}, {"pitch": 62, "velocity": 80, "note_on_time": 4.505, "note_off_time": 5.004}, {"pitch": 42, "velocity": 80, "note_on_time": 4.756, "note_off_time": 5.004}, {"pitch": 60, "velocity": 80, "note_on_time": 5.004, "note_off_time": 5.253}, {"pitch": 42, "velocity": 80, "note_on_time": 5.004, "note_off_time": 5.253}, {"pitch": 64, "velocity": 80, "note_on_time": 5.253, "note_off_time": 5.504}, {"pitch": 42, "velocity": 80, "note_on_time": 5.254, "note_off_time": 5.504}, {"pitch": 62, "velocity": 80, "note_on_time": 5.504, "note_off_time": 5.753}, {"pitch": 42, "velocity": 80, "note_on_time": 5.504, "note_off_time": 5.753}, {"pitch": 67, "velocity": 80, "note_on_time": 5.753, "note_off_time": 6.001}, {"pitch": 42, "velocity": 80, "note_on_time": 5.754, "note_off_time": 6.002}, {"pitch": 64, "velocity": 80, "note_on_time": 6.001, "note_off_time": 6.252}, {"pitch": 42, "velocity": 80, "note_on_time": 6.002, "note_off_time": 6.252}, {"pitch": 42, "velocity": 80, "note_on_time": 6.252, "note_off_time": 6.5}, {"pitch": 62, "velocity": 80, "note_on_time": 6.5, "note_off_time": 6.75}, {"pitch": 42, "velocity": 80, "note_on_time": 6.501, "note_off_time": 6.75}, {"pitch": 60, "velocity": 80, "note_on_time": 6.75, "note_off_time": 6.999}, {"pitch": 42, "velocity": 80, "note_on_time": 6.751, "note_off_time": 7.0}, {"pitch": 64, "velocity": 80, "note_on_time": 6.999, "note_off_time": 7.247}, {"pitch": 42, "velocity": 80, "note_on_time": 7.0, "note_off_time": 7.247}, {"pitch": 65, "velocity": 80, "note_on_time": 7.247, "note_off_time": 7.494}, {"pitch": 42, "velocity": 80, "note_on_time": 7.248, "note_off_time": 7.495}, {"pitch": 60, "velocity": 80, "note_on_time": 7.494, "note_off_time": 7.743}, {"pitch": 42, "velocity": 80, "note_on_time": 7.495, "note_off_time": 7.743}, {"pitch": 67, "velocity": 80, "note_on_time": 7.743, "note_off_time": 7.994}, {"pitch": 42, "velocity": 80, "note_on_time": 7.744, "note_off_time": 7.995}, {"pitch": 42, "velocity": 80, "note_on_time": 7.995, "note_off_time": 8.243}, {"pitch": 67, "velocity": 80, "note_on_time": 8.243, "note_off_time": 8.491}, {"pitch": 42, "velocity": 80, "note_on_time": 8.244, "note_off_time": 8.492}, {"pitch": 67, "velocity": 80, "note_on_time": 8.491, "note_off_time": 8.743}, {"pitch": 42, "velocity": 80, "note_on_time": 8.492, "note_off_time": 8.743}, {"pitch": 67, "velocity": 80, "note_on_time": 8.743, "note_off_time": 8.992}, {"pitch": 42, "velocity": 80, "note_on_time": 8.743, "note_off_time": 8.992}]</notes><options name="Option List">((4, 4), [0.5, 0.25], 3, 8, &lt;NoteRangePerHand.C_TO_G: 6&gt;, &lt;NoteRangePerHand.ONE_NOTE: 2&gt;, False, True, True, 248)</options></target_notes><trials><trial trial_no="1" timestamp="2022_08_17-12_59_20"><notes name="Played Notes">[{"pitch": 64, "velocity": 63, "note_on_time": 1.029, "note_off_time": 1.284}, {"pitch": 65, "velocity": 72, "note_on_time": 1.293, "note_off_time": 1.582}, {"pitch": 67, "velocity": 74, "note_on_time": 1.541, "note_off_time": 1.626}, {"pitch": 67, "velocity": 70, "note_on_time": 1.786, "note_off_time": 1.908}, {"pitch": 62, "velocity": 64, "note_on_time": 2.047, "note_off_time": 2.169}, {"pitch": 60, "velocity": 58, "note_on_time": 2.304, "note_off_time": 2.379}, {"pitch": 67, "velocity": 64, "note_on_time": 2.563, "note_off_time": 2.642}, {"pitch": 67, "velocity": 65, "note_on_time": 2.813, "note_off_time": 2.907}, {"pitch": 62, "velocity": 68, "note_on_time": 3.054, "note_off_time": 3.142}, {"pitch": 67, "velocity": 69, "note_on_time": 3.302, "note_off_time": 3.71}, {"pitch": 62, "velocity": 64, "note_on_time": 4.185, "note_off_time": 4.253}, {"pitch": 65, "velocity": 73, "note_on_time": 4.481, "note_off_time": 4.56}, {"pitch": 62, "velocity": 73, "note_on_time": 4.751, "note_off_time": 5.042}, {"pitch": 60, "velocity": 71, "note_on_time": 5.271, "note_off_time": 5.375}, {"pitch": 64, "velocity": 65, "note_on_time": 5.529, "note_off_time": 5.603}, {"pitch": 62, "velocity": 63, "note_on_time": 5.783, "note_off_time": 5.849}, {"pitch": 67, "velocity": 63, "note_on_time": 6.042, "note_off_time": 6.122}, {"pitch": 64, "velocity": 53, "note_on_time": 6.315, "note_off_time": 6.483}, {"pitch": 62, "velocity": 56, "note_on_time": 6.866, "note_off_time": 6.967}, {"pitch": 60, "velocity": 52, "note_on_time": 7.133, "note_off_time": 7.207}, {"pitch": 64, "velocity": 62, "note_on_time": 7.396, "note_off_time": 7.472}, {"pitch": 65, "velocity": 66, "note_on_time": 7.65, "note_off_time": 7.726}, {"pitch": 60, "velocity": 66, "note_on_time": 7.924, "note_off_time": 8.019}, {"pitch": 67, "velocity": 74, "note_on_time": 8.189, "note_off_time": 8.288}, {"pitch": 67, "velocity": 71, "note_on_time": 8.65, "note_off_time": 8.736}, {"pitch": 67, "velocity": 75, "note_on_time": 8.923, "note_off_time": 8.988}]</notes><guidance name="Guidance Mode">None</guidance><error name="Error value">0.08022895833333342</error></trial><trial trial_no="2" timestamp="2022_08_17-12_59_37"><notes name="Played Notes">[{"pitch": 64, "velocity": 64, "note_on_time": 1.019, "note_off_time": 1.107}, {"pitch": 65, "velocity": 71, "note_on_time": 1.27, "note_off_time": 1.365}, {"pitch": 67, "velocity": 68, "note_on_time": 1.533, "note_off_time": 1.605}, {"pitch": 67, "velocity": 70, "note_on_time": 1.77, "note_off_time": 1.857}, {"pitch": 62, "velocity": 63, "note_on_time": 2.037, "note_off_time": 2.121}, {"pitch": 60, "velocity": 69, "note_on_time": 2.275, "note_off_time": 2.371}, {"pitch": 67, "velocity": 70, "note_on_time": 2.534, "note_off_time": 2.616}, {"pitch": 67, "velocity": 66, "note_on_time": 2.776, "note_off_time": 2.858}, {"pitch": 62, "velocity": 63, "note_on_time": 3.031, "note_off_time": 3.096}, {"pitch": 67, "velocity": 74, "note_on_time": 3.29, "note_off_time": 3.633}, {"pitch": 62, "velocity": 63, "note_on_time": 3.986, "note_off_time": 4.046}, {"pitch": 65, "velocity": 67, "note_on_time": 4.252, "note_off_time": 4.311}, {"pitch": 62, "velocity": 66, "note_on_time": 4.513, "note_off_time": 4.858}, {"pitch": 60, "velocity": 64, "note_on_time": 5.042, "note_off_time": 5.134}, {"pitch": 64, "velocity": 62, "note_on_time": 5.28, "note_off_time": 5.359}, {"pitch": 62, "velocity": 58, "note_on_time": 5.544, "note_off_time": 5.608}, {"pitch": 67, "velocity": 56, "note_on_time": 5.787, "note_off_time": 5.855}, {"pitch": 64, "velocity": 62, "note_on_time": 6.04, "note_off_time": 6.308}, {"pitch": 62, "velocity": 65, "note_on_time": 6.637, "note_off_time": 6.719}, {"pitch": 60, "velocity": 66, "note_on_time": 6.892, "note_off_time": 6.961}, {"pitch": 64, "velocity": 66, "note_on_time": 7.135, "note_off_time": 7.21}, {"pitch": 65, "velocity": 69, "note_on_time": 7.396, "note_off_time": 7.464}, {"pitch": 60, "velocity": 60, "note_on_time": 7.662, "note_off_time": 7.745}, {"pitch": 67, "velocity": 68, "note_on_time": 7.934, "note_off_time": 8.051}, {"pitch": 67, "velocity": 69, "note_on_time": 8.427, "note_off_time": 8.507}, {"pitch": 67, "velocity": 77, "note_on_time": 8.665, "note_off_time": 8.739}, {"pitch": 67, "velocity": 78, "note_on_time": 8.921, "note_off_time": 8.977}]</notes><guidance name="Guidance Mode">None</guidance><error name="Error value">0.020629375000000134</error></trial><trial trial_no="3" timestamp="2022_08_17-12_59_54"><notes name="Played Notes">[{"pitch": 64, "velocity": 64, "note_on_time": 1.016, "note_off_time": 1.091}, {"pitch": 65, "velocity": 75, "note_on_time": 1.273, "note_off_time": 1.374}, {"pitch": 67, "velocity": 73, "note_on_time": 1.544, "note_off_time": 1.629}, {"pitch": 67, "velocity": 60, "note_on_time": 1.778, "note_off_time": 1.866}, {"pitch": 62, "velocity": 72, "note_on_time": 2.057, "note_off_time": 2.138}, {"pitch": 60, "velocity": 67, "note_on_time": 2.313, "note_off_time": 2.416}, {"pitch": 67, "velocity": 64, "note_on_time": 2.573, "note_off_time": 2.649}, {"pitch": 67, "velocity": 54, "note_on_time": 2.832, "note_off_time": 2.904}, {"pitch": 62, "velocity": 61, "note_on_time": 3.095, "note_off_time": 3.152}, {"pitch": 67, "velocity": 69, "note_on_time": 3.353, "note_off_time": 3.721}, {"pitch": 62, "velocity": 67, "note_on_time": 3.947, "note_off_time": 4.022}, {"pitch": 65, "velocity": 66, "note_on_time": 4.216, "note_off_time": 4.277}, {"pitch": 62, "velocity": 73, "note_on_time": 4.471, "note_off_time": 4.846}, {"pitch": 60, "velocity": 70, "note_on_time": 5.009, "note_off_time": 5.116}, {"pitch": 64, "velocity": 68, "note_on_time": 5.265, "note_off_time": 5.343}, {"pitch": 62, "velocity": 60, "note_on_time": 5.533, "note_off_time": 5.599}, {"pitch": 67, "velocity": 66, "note_on_time": 5.78, "note_off_time": 5.863}, {"pitch": 64, "velocity": 64, "note_on_time": 6.036, "note_off_time": 6.268}, {"pitch": 62, "velocity": 69, "note_on_time": 6.589, "note_off_time": 6.669}, {"pitch": 60, "velocity": 55, "note_on_time": 6.846, "note_off_time": 6.909}, {"pitch": 64, "velocity": 61, "note_on_time": 7.087, "note_off_time": 7.159}, {"pitch": 65, "velocity": 71, "note_on_time": 7.354, "note_off_time": 7.43}, {"pitch": 60, "velocity": 63, "note_on_time": 7.635, "note_off_time": 7.753}, {"pitch": 67, "velocity": 69, "note_on_time": 7.888, "note_off_time": 8.016}, {"pitch": 67, "velocity": 66, "note_on_time": 8.333, "note_off_time": 8.406}, {"pitch": 67, "velocity": 69, "note_on_time": 8.57, "note_off_time": 8.624}, {"pitch": 67, "velocity": 75, "note_on_time": 8.809, "note_off_time": 8.856}]</notes><guidance name="Guidance Mode">None</guidance><error name="Error value">0.027826875000000185</error></trial><trial trial_no="4" timestamp="2022_08_17-13_55_13"><notes name="Played Notes">[{"pitch": 64, "velocity": 75, "note_on_time": 2.854, "note_off_time": 3.001}, {"pitch": 62, "velocity": 43, "note_on_time": 2.965, "note_off_time": 3.026}, {"pitch": 60, "velocity": 71, "note_on_time": 3.017, "note_off_time": 3.149}, {"pitch": 64, "velocity": 51, "note_on_time": 3.183, "note_off_time": 3.356}, {"pitch": 62, "velocity": 71, "note_on_time": 3.31, "note_off_time": 3.422}, {"pitch": 60, "velocity": 62, "note_on_time": 3.43, "note_off_time": 3.535}, {"pitch": 64, "velocity": 62, "note_on_time": 3.578, "note_off_time": 3.648}]</notes><guidance name="Guidance Mode">None</guidance><error name="Error value">1.2134739583333332</error></trial></trials></MIDI>