<MIDI midiNo="2022_12_08-11_01_41"><target_notes><notes name="Note List">[{"pitch": 42, "velocity": 80, "note_on_time": 0.004, "note_off_time": 0.247}, {"pitch": 42, "velocity": 80, "note_on_time": 0.247, "note_off_time": 0.497}, {"pitch": 42, "velocity": 80, "note_on_time": 0.497, "note_off_time": 0.746}, {"pitch": 42, "velocity": 80, "note_on_time": 0.746, "note_off_time": 0.996}, {"pitch": 67, "velocity": 80, "note_on_time": 0.996, "note_off_time": 1.244}, {"pitch": 42, "velocity": 80, "note_on_time": 0.997, "note_off_time": 1.244}, {"pitch": 62, "velocity": 80, "note_on_time": 1.244, "note_off_time": 1.495}, {"pitch": 42, "velocity": 80, "note_on_time": 1.244, "note_off_time": 1.495}, {"pitch": 62, "velocity": 80, "note_on_time": 1.495, "note_off_time": 1.747}, {"pitch": 42, "velocity": 80, "note_on_time": 1.495, "note_off_time": 1.747}, {"pitch": 64, "velocity": 80, "note_on_time": 1.747, "note_off_time": 1.996}, {"pitch": 42, "velocity": 80, "note_on_time": 1.747, "note_off_time": 1.996}, {"pitch": 60, "velocity": 80, "note_on_time": 1.996, "note_off_time": 2.247}, {"pitch": 42, "velocity": 80, "note_on_time": 1.997, "note_off_time": 2.247}, {"pitch": 62, "velocity": 80, "note_on_time": 2.247, "note_off_time": 2.498}, {"pitch": 42, "velocity": 80, "note_on_time": 2.247, "note_off_time": 2.498}, {"pitch": 42, "velocity": 80, "note_on_time": 2.499, "note_off_time": 2.748}, {"pitch": 67, "velocity": 80, "note_on_time": 2.748, "note_off_time": 2.998}, {"pitch": 42, "velocity": 80, "note_on_time": 2.749, "note_off_time": 2.998}, {"pitch": 67, "velocity": 80, "note_on_time": 2.998, "note_off_time": 3.249}, {"pitch": 42, "velocity": 80, "note_on_time": 2.999, "note_off_time": 3.249}, {"pitch": 65, "velocity": 80, "note_on_time": 3.249, "note_off_time": 3.498}, {"pitch": 42, "velocity": 80, "note_on_time": 3.249, "note_off_time": 3.499}, {"pitch": 62, "velocity": 80, "note_on_time": 3.498, "note_off_time": 3.749}, {"pitch": 42, "velocity": 80, "note_on_time": 3.499, "note_off_time": 3.749}, {"pitch": 62, "velocity": 80, "note_on_time": 3.749, "note_off_time": 3.999}, {"pitch": 42, "velocity": 80, "note_on_time": 3.75, "note_off_time": 3.999}, {"pitch": 67, "velocity": 80, "note_on_time": 3.999, "note_off_time": 4.247}, {"pitch": 42, "velocity": 80, "note_on_time": 4.0, "note_off_time": 4.248}, {"pitch": 62, "velocity": 80, "note_on_time": 4.247, "note_off_time": 4.495}, {"pitch": 42, "velocity": 80, "note_on_time": 4.248, "note_off_time": 4.495}, {"pitch": 42, "velocity": 80, "note_on_time": 4.495, "note_off_time": 4.747}, {"pitch": 42, "velocity": 80, "note_on_time": 4.747, "note_off_time": 4.997}, {"pitch": 42, "velocity": 80, "note_on_time": 4.997, "note_off_time": 5.245}, {"pitch": 60, "velocity": 80, "note_on_time": 4.996, "note_off_time": 5.496}, {"pitch": 42, "velocity": 80, "note_on_time": 5.245, "note_off_time": 5.496}, {"pitch": 42, "velocity": 80, "note_on_time": 5.497, "note_off_time": 5.745}, {"pitch": 60, "velocity": 80, "note_on_time": 5.745, "note_off_time": 5.995}, {"pitch": 42, "velocity": 80, "note_on_time": 5.746, "note_off_time": 5.995}, {"pitch": 64, "velocity": 80, "note_on_time": 5.995, "note_off_time": 6.243}, {"pitch": 42, "velocity": 80, "note_on_time": 5.995, "note_off_time": 6.243}, {"pitch": 65, "velocity": 80, "note_on_time": 6.243, "note_off_time": 6.493}, {"pitch": 42, "velocity": 80, "note_on_time": 6.243, "note_off_time": 6.493}, {"pitch": 60, "velocity": 80, "note_on_time": 6.493, "note_off_time": 6.742}, {"pitch": 42, "velocity": 80, "note_on_time": 6.493, "note_off_time": 6.742}, {"pitch": 67, "velocity": 80, "note_on_time": 6.742, "note_off_time": 6.992}, {"pitch": 42, "velocity": 80, "note_on_time": 6.742, "note_off_time": 6.992}, {"pitch": 62, "velocity": 80, "note_on_time": 6.992, "note_off_time": 7.241}, {"pitch": 42, "velocity": 80, "note_on_time": 6.993, "note_off_time": 7.241}, {"pitch": 42, "velocity": 80, "note_on_time": 7.241, "note_off_time": 7.491}, {"pitch": 42, "velocity": 80, "note_on_time": 7.492, "note_off_time": 7.743}, {"pitch": 42, "velocity": 80, "note_on_time": 7.743, "note_off_time": 7.993}, {"pitch": 42, "velocity": 80, "note_on_time": 7.993, "note_off_time": 8.241}, {"pitch": 62, "velocity": 80, "note_on_time": 8.241, "note_off_time": 8.492}, {"pitch": 42, "velocity": 80, "note_on_time": 8.242, "note_off_time": 8.492}, {"pitch": 62, "velocity": 80, "note_on_time": 8.492, "note_off_time": 8.74}, {"pitch": 42, "velocity": 80, "note_on_time": 8.492, "note_off_time": 8.74}, {"pitch": 62, "velocity": 80, "note_on_time": 8.74, "note_off_time": 8.99}, {"pitch": 42, "velocity": 80, "note_on_time": 8.741, "note_off_time": 8.99}]</notes><options name="Option List">((4, 4), [0.5, 0.25], 3, 8, &lt;NoteRangePerHand.C_TO_G: 6&gt;, &lt;NoteRangePerHand.ONE_NOTE: 2&gt;, False, True, False, 248)</options></target_notes><trials><trial trial_no="1" timestamp="2022_12_08-11_01_30"><notes name="Played Notes">[{"pitch": 67, "velocity": 69, "note_on_time": 1.055, "note_off_time": 1.276}, {"pitch": 62, "velocity": 64, "note_on_time": 1.263, "note_off_time": 1.385}, {"pitch": 62, "velocity": 54, "note_on_time": 1.539, "note_off_time": 1.779}, {"pitch": 64, "velocity": 70, "note_on_time": 1.774, "note_off_time": 2.041}, {"pitch": 60, "velocity": 70, "note_on_time": 2.028, "note_off_time": 2.227}, {"pitch": 62, "velocity": 56, "note_on_time": 2.253, "note_off_time": 2.586}, {"pitch": 67, "velocity": 68, "note_on_time": 2.754, "note_off_time": 2.871}, {"pitch": 67, "velocity": 68, "note_on_time": 3.016, "note_off_time": 3.226}, {"pitch": 65, "velocity": 62, "note_on_time": 3.251, "note_off_time": 3.508}, {"pitch": 62, "velocity": 59, "note_on_time": 3.492, "note_off_time": 3.603}, {"pitch": 62, "velocity": 54, "note_on_time": 3.736, "note_off_time": 3.972}, {"pitch": 67, "velocity": 57, "note_on_time": 3.989, "note_off_time": 4.185}, {"pitch": 62, "velocity": 45, "note_on_time": 4.216, "note_off_time": 4.585}, {"pitch": 60, "velocity": 57, "note_on_time": 4.94, "note_off_time": 5.471}, {"pitch": 60, "velocity": 58, "note_on_time": 5.706, "note_off_time": 5.967}, {"pitch": 64, "velocity": 54, "note_on_time": 5.981, "note_off_time": 6.244}, {"pitch": 65, "velocity": 66, "note_on_time": 6.252, "note_off_time": 6.492}, {"pitch": 60, "velocity": 75, "note_on_time": 6.487, "note_off_time": 6.691}, {"pitch": 67, "velocity": 71, "note_on_time": 6.703, "note_off_time": 6.969}, {"pitch": 62, "velocity": 73, "note_on_time": 7.014, "note_off_time": 7.363}, {"pitch": 62, "velocity": 69, "note_on_time": 8.201, "note_off_time": 8.287}, {"pitch": 62, "velocity": 61, "note_on_time": 8.491, "note_off_time": 8.584}, {"pitch": 62, "velocity": 60, "note_on_time": 8.732, "note_off_time": 8.845}]</notes><guidance name="Guidance Mode">None</guidance><error name="Error value">0.02274024999999984</error></trial><trial trial_no="2" timestamp="2022_12_08-11_01_49"><notes name="Played Notes">[{"pitch": 67, "velocity": 73, "note_on_time": 1.021, "note_off_time": 1.27}, {"pitch": 62, "velocity": 51, "note_on_time": 1.279, "note_off_time": 1.398}, {"pitch": 62, "velocity": 51, "note_on_time": 1.535, "note_off_time": 1.788}, {"pitch": 64, "velocity": 69, "note_on_time": 1.781, "note_off_time": 2.018}, {"pitch": 60, "velocity": 61, "note_on_time": 2.038, "note_off_time": 2.249}, {"pitch": 62, "velocity": 61, "note_on_time": 2.28, "note_off_time": 2.585}, {"pitch": 67, "velocity": 73, "note_on_time": 2.79, "note_off_time": 2.906}, {"pitch": 67, "velocity": 64, "note_on_time": 3.026, "note_off_time": 3.256}, {"pitch": 65, "velocity": 59, "note_on_time": 3.255, "note_off_time": 3.499}, {"pitch": 62, "velocity": 63, "note_on_time": 3.49, "note_off_time": 3.599}, {"pitch": 62, "velocity": 49, "note_on_time": 3.731, "note_off_time": 3.987}, {"pitch": 67, "velocity": 64, "note_on_time": 3.994, "note_off_time": 4.201}, {"pitch": 62, "velocity": 62, "note_on_time": 4.232, "note_off_time": 4.582}, {"pitch": 60, "velocity": 57, "note_on_time": 4.95, "note_off_time": 5.531}, {"pitch": 60, "velocity": 66, "note_on_time": 5.707, "note_off_time": 5.891}, {"pitch": 64, "velocity": 73, "note_on_time": 5.97, "note_off_time": 6.21}, {"pitch": 65, "velocity": 69, "note_on_time": 6.223, "note_off_time": 6.48}, {"pitch": 60, "velocity": 61, "note_on_time": 6.478, "note_off_time": 6.703}, {"pitch": 67, "velocity": 60, "note_on_time": 6.725, "note_off_time": 6.999}, {"pitch": 62, "velocity": 67, "note_on_time": 6.967, "note_off_time": 7.769}, {"pitch": 62, "velocity": 63, "note_on_time": 8.169, "note_off_time": 8.285}, {"pitch": 62, "velocity": 62, "note_on_time": 8.467, "note_off_time": 8.55}, {"pitch": 62, "velocity": 69, "note_on_time": 8.709, "note_off_time": 8.848}]</notes><guidance name="Guidance Mode">None</guidance><error name="Error value">0.01401624999999992</error></trial><trial trial_no="3" timestamp="2022_12_08-11_02_07"><notes name="Played Notes">[{"pitch": 67, "velocity": 77, "note_on_time": 1.008, "note_off_time": 1.264}, {"pitch": 62, "velocity": 54, "note_on_time": 1.248, "note_off_time": 1.394}, {"pitch": 62, "velocity": 64, "note_on_time": 1.513, "note_off_time": 1.752}, {"pitch": 64, "velocity": 61, "note_on_time": 1.761, "note_off_time": 2.03}, {"pitch": 60, "velocity": 66, "note_on_time": 2.024, "note_off_time": 2.251}, {"pitch": 62, "velocity": 63, "note_on_time": 2.265, "note_off_time": 2.588}, {"pitch": 67, "velocity": 73, "note_on_time": 2.792, "note_off_time": 2.915}, {"pitch": 67, "velocity": 75, "note_on_time": 3.036, "note_off_time": 3.276}, {"pitch": 65, "velocity": 65, "note_on_time": 3.28, "note_off_time": 3.543}, {"pitch": 62, "velocity": 67, "note_on_time": 3.536, "note_off_time": 3.641}, {"pitch": 62, "velocity": 46, "note_on_time": 3.78, "note_off_time": 4.055}, {"pitch": 67, "velocity": 70, "note_on_time": 4.054, "note_off_time": 4.306}, {"pitch": 62, "velocity": 62, "note_on_time": 4.301, "note_off_time": 4.72}, {"pitch": 60, "velocity": 60, "note_on_time": 5.007, "note_off_time": 5.533}, {"pitch": 60, "velocity": 63, "note_on_time": 5.785, "note_off_time": 5.971}, {"pitch": 64, "velocity": 62, "note_on_time": 5.997, "note_off_time": 6.217}, {"pitch": 65, "velocity": 72, "note_on_time": 6.247, "note_off_time": 6.531}, {"pitch": 60, "velocity": 71, "note_on_time": 6.493, "note_off_time": 6.697}, {"pitch": 67, "velocity": 73, "note_on_time": 6.731, "note_off_time": 7.023}, {"pitch": 65, "velocity": 65, "note_on_time": 6.997, "note_off_time": 7.29}, {"pitch": 62, "velocity": 69, "note_on_time": 8.233, "note_off_time": 8.329}, {"pitch": 62, "velocity": 65, "note_on_time": 8.482, "note_off_time": 8.568}, {"pitch": 62, "velocity": 76, "note_on_time": 8.734, "note_off_time": 8.871}]</notes><guidance name="Guidance Mode">None</guidance><error name="Error value">0.06695525000000019</error></trial></trials></MIDI>