<MIDI midiNo="2022_08_17-12_56_15"><target_notes><notes name="Note List">[{"pitch": 42, "velocity": 80, "note_on_time": 0.004, "note_off_time": 0.247}, {"pitch": 42, "velocity": 80, "note_on_time": 0.247, "note_off_time": 0.497}, {"pitch": 42, "velocity": 80, "note_on_time": 0.497, "note_off_time": 0.744}, {"pitch": 42, "velocity": 80, "note_on_time": 0.744, "note_off_time": 0.994}, {"pitch": 64, "velocity": 80, "note_on_time": 0.993, "note_off_time": 1.243}, {"pitch": 42, "velocity": 80, "note_on_time": 0.994, "note_off_time": 1.243}, {"pitch": 62, "velocity": 80, "note_on_time": 1.243, "note_off_time": 1.493}, {"pitch": 42, "velocity": 80, "note_on_time": 1.243, "note_off_time": 1.493}, {"pitch": 65, "velocity": 80, "note_on_time": 1.493, "note_off_time": 1.743}, {"pitch": 42, "velocity": 80, "note_on_time": 1.493, "note_off_time": 1.744}, {"pitch": 60, "velocity": 80, "note_on_time": 1.743, "note_off_time": 1.993}, {"pitch": 42, "velocity": 80, "note_on_time": 1.744, "note_off_time": 1.993}, {"pitch": 60, "velocity": 80, "note_on_time": 1.993, "note_off_time": 2.242}, {"pitch": 42, "velocity": 80, "note_on_time": 1.993, "note_off_time": 2.242}, {"pitch": 60, "velocity": 80, "note_on_time": 2.242, "note_off_time": 2.493}, {"pitch": 42, "velocity": 80, "note_on_time": 2.242, "note_off_time": 2.493}, {"pitch": 60, "velocity": 80, "note_on_time": 2.493, "note_off_time": 2.742}, {"pitch": 42, "velocity": 80, "note_on_time": 2.493, "note_off_time": 2.742}, {"pitch": 60, "velocity": 80, "note_on_time": 2.742, "note_off_time": 2.991}, {"pitch": 42, "velocity": 80, "note_on_time": 2.742, "note_off_time": 2.991}, {"pitch": 60, "velocity": 80, "note_on_time": 2.991, "note_off_time": 3.24}, {"pitch": 42, "velocity": 80, "note_on_time": 2.991, "note_off_time": 3.24}, {"pitch": 67, "velocity": 80, "note_on_time": 3.24, "note_off_time": 3.49}, {"pitch": 42, "velocity": 80, "note_on_time": 3.24, "note_off_time": 3.49}, {"pitch": 67, "velocity": 80, "note_on_time": 3.49, "note_off_time": 3.741}, {"pitch": 42, "velocity": 80, "note_on_time": 3.49, "note_off_time": 3.741}, {"pitch": 62, "velocity": 80, "note_on_time": 3.741, "note_off_time": 3.99}, {"pitch": 42, "velocity": 80, "note_on_time": 3.741, "note_off_time": 3.99}, {"pitch": 65, "velocity": 80, "note_on_time": 3.99, "note_off_time": 4.239}, {"pitch": 42, "velocity": 80, "note_on_time": 3.991, "note_off_time": 4.239}, {"pitch": 65, "velocity": 80, "note_on_time": 4.239, "note_off_time": 4.491}, {"pitch": 42, "velocity": 80, "note_on_time": 4.239, "note_off_time": 4.491}, {"pitch": 67, "velocity": 80, "note_on_time": 4.491, "note_off_time": 4.74}, {"pitch": 42, "velocity": 80, "note_on_time": 4.491, "note_off_time": 4.74}, {"pitch": 64, "velocity": 80, "note_on_time": 4.74, "note_off_time": 4.987}, {"pitch": 42, "velocity": 80, "note_on_time": 4.741, "note_off_time": 4.988}, {"pitch": 42, "velocity": 80, "note_on_time": 4.988, "note_off_time": 5.237}, {"pitch": 64, "velocity": 80, "note_on_time": 4.987, "note_off_time": 5.486}, {"pitch": 42, "velocity": 80, "note_on_time": 5.238, "note_off_time": 5.486}, {"pitch": 42, "velocity": 80, "note_on_time": 5.487, "note_off_time": 5.737}, {"pitch": 42, "velocity": 80, "note_on_time": 5.737, "note_off_time": 5.99}, {"pitch": 67, "velocity": 80, "note_on_time": 5.989, "note_off_time": 6.239}, {"pitch": 42, "velocity": 80, "note_on_time": 5.99, "note_off_time": 6.239}, {"pitch": 67, "velocity": 80, "note_on_time": 6.239, "note_off_time": 6.49}, {"pitch": 42, "velocity": 80, "note_on_time": 6.24, "note_off_time": 6.49}, {"pitch": 65, "velocity": 80, "note_on_time": 6.49, "note_off_time": 6.739}, {"pitch": 42, "velocity": 80, "note_on_time": 6.49, "note_off_time": 6.739}, {"pitch": 67, "velocity": 80, "note_on_time": 6.739, "note_off_time": 6.99}, {"pitch": 42, "velocity": 80, "note_on_time": 6.74, "note_off_time": 6.99}, {"pitch": 67, "velocity": 80, "note_on_time": 6.99, "note_off_time": 7.239}, {"pitch": 42, "velocity": 80, "note_on_time": 6.991, "note_off_time": 7.239}, {"pitch": 65, "velocity": 80, "note_on_time": 7.239, "note_off_time": 7.488}, {"pitch": 42, "velocity": 80, "note_on_time": 7.24, "note_off_time": 7.488}, {"pitch": 67, "velocity": 80, "note_on_time": 7.488, "note_off_time": 7.738}, {"pitch": 42, "velocity": 80, "note_on_time": 7.488, "note_off_time": 7.739}, {"pitch": 65, "velocity": 80, "note_on_time": 7.738, "note_off_time": 7.988}, {"pitch": 42, "velocity": 80, "note_on_time": 7.739, "note_off_time": 7.989}, {"pitch": 42, "velocity": 80, "note_on_time": 7.989, "note_off_time": 8.239}, {"pitch": 65, "velocity": 80, "note_on_time": 8.239, "note_off_time": 8.488}, {"pitch": 42, "velocity": 80, "note_on_time": 8.24, "note_off_time": 8.488}, {"pitch": 65, "velocity": 80, "note_on_time": 8.488, "note_off_time": 8.737}, {"pitch": 42, "velocity": 80, "note_on_time": 8.488, "note_off_time": 8.737}, {"pitch": 65, "velocity": 80, "note_on_time": 8.737, "note_off_time": 8.986}, {"pitch": 42, "velocity": 80, "note_on_time": 8.737, "note_off_time": 8.986}]</notes><options name="Option List">((4, 4), [0.5, 0.25], 3, 8, &lt;NoteRangePerHand.C_TO_G: 6&gt;, &lt;NoteRangePerHand.ONE_NOTE: 2&gt;, False, True, True, 248)</options></target_notes><trials><trial trial_no="1" timestamp="2022_08_17-12_56_05"><notes name="Played Notes">[{"pitch": 64, "velocity": 64, "note_on_time": 1.029, "note_off_time": 1.274}, {"pitch": 62, "velocity": 65, "note_on_time": 1.272, "note_off_time": 1.516}, {"pitch": 65, "velocity": 65, "note_on_time": 1.526, "note_off_time": 1.795}, {"pitch": 60, "velocity": 71, "note_on_time": 1.764, "note_off_time": 1.865}, {"pitch": 60, "velocity": 58, "note_on_time": 2.016, "note_off_time": 2.092}, {"pitch": 60, "velocity": 65, "note_on_time": 2.266, "note_off_time": 2.35}, {"pitch": 60, "velocity": 64, "note_on_time": 2.518, "note_off_time": 2.589}, {"pitch": 60, "velocity": 59, "note_on_time": 2.775, "note_off_time": 2.846}, {"pitch": 60, "velocity": 61, "note_on_time": 3.023, "note_off_time": 3.105}, {"pitch": 67, "velocity": 67, "note_on_time": 3.294, "note_off_time": 3.361}, {"pitch": 67, "velocity": 70, "note_on_time": 3.561, "note_off_time": 3.644}, {"pitch": 62, "velocity": 61, "note_on_time": 3.811, "note_off_time": 3.875}, {"pitch": 65, "velocity": 59, "note_on_time": 4.064, "note_off_time": 4.126}, {"pitch": 65, "velocity": 64, "note_on_time": 4.318, "note_off_time": 4.408}, {"pitch": 67, "velocity": 55, "note_on_time": 4.567, "note_off_time": 4.658}, {"pitch": 64, "velocity": 63, "note_on_time": 4.816, "note_off_time": 4.883}, {"pitch": 64, "velocity": 66, "note_on_time": 5.087, "note_off_time": 5.387}, {"pitch": 67, "velocity": 64, "note_on_time": 5.982, "note_off_time": 6.058}, {"pitch": 67, "velocity": 61, "note_on_time": 6.233, "note_off_time": 6.325}, {"pitch": 65, "velocity": 60, "note_on_time": 6.51, "note_off_time": 6.594}, {"pitch": 67, "velocity": 64, "note_on_time": 6.758, "note_off_time": 6.835}, {"pitch": 67, "velocity": 64, "note_on_time": 7.011, "note_off_time": 7.103}, {"pitch": 65, "velocity": 58, "note_on_time": 7.278, "note_off_time": 7.346}, {"pitch": 67, "velocity": 54, "note_on_time": 7.552, "note_off_time": 7.629}, {"pitch": 65, "velocity": 60, "note_on_time": 7.801, "note_off_time": 7.866}, {"pitch": 65, "velocity": 70, "note_on_time": 8.255, "note_off_time": 8.33}, {"pitch": 65, "velocity": 71, "note_on_time": 8.5, "note_off_time": 8.582}, {"pitch": 65, "velocity": 71, "note_on_time": 8.773, "note_off_time": 8.82}]</notes><guidance name="Guidance Mode">None</guidance><error name="Error value">0.01828420000000002</error></trial><trial trial_no="2" timestamp="2022_08_17-12_56_23"><notes name="Played Notes">[{"pitch": 64, "velocity": 62, "note_on_time": 1.026, "note_off_time": 1.25}, {"pitch": 62, "velocity": 63, "note_on_time": 1.278, "note_off_time": 1.512}, {"pitch": 65, "velocity": 62, "note_on_time": 1.526, "note_off_time": 1.784}, {"pitch": 60, "velocity": 66, "note_on_time": 1.765, "note_off_time": 1.875}, {"pitch": 60, "velocity": 62, "note_on_time": 2.045, "note_off_time": 2.127}, {"pitch": 60, "velocity": 66, "note_on_time": 2.291, "note_off_time": 2.373}, {"pitch": 60, "velocity": 66, "note_on_time": 2.535, "note_off_time": 2.612}, {"pitch": 60, "velocity": 66, "note_on_time": 2.78, "note_off_time": 2.866}, {"pitch": 60, "velocity": 66, "note_on_time": 3.037, "note_off_time": 3.125}, {"pitch": 67, "velocity": 67, "note_on_time": 3.299, "note_off_time": 3.362}, {"pitch": 67, "velocity": 70, "note_on_time": 3.544, "note_off_time": 3.631}, {"pitch": 62, "velocity": 67, "note_on_time": 3.787, "note_off_time": 3.861}, {"pitch": 65, "velocity": 66, "note_on_time": 4.045, "note_off_time": 4.112}, {"pitch": 65, "velocity": 59, "note_on_time": 4.307, "note_off_time": 4.385}, {"pitch": 67, "velocity": 58, "note_on_time": 4.543, "note_off_time": 4.617}, {"pitch": 64, "velocity": 64, "note_on_time": 4.777, "note_off_time": 4.864}, {"pitch": 64, "velocity": 65, "note_on_time": 5.035, "note_off_time": 5.304}, {"pitch": 67, "velocity": 64, "note_on_time": 6.018, "note_off_time": 6.088}, {"pitch": 67, "velocity": 62, "note_on_time": 6.265, "note_off_time": 6.351}, {"pitch": 65, "velocity": 63, "note_on_time": 6.517, "note_off_time": 6.595}, {"pitch": 67, "velocity": 68, "note_on_time": 6.761, "note_off_time": 6.848}, {"pitch": 67, "velocity": 66, "note_on_time": 7.018, "note_off_time": 7.109}, {"pitch": 65, "velocity": 62, "note_on_time": 7.264, "note_off_time": 7.364}, {"pitch": 67, "velocity": 67, "note_on_time": 7.504, "note_off_time": 7.597}, {"pitch": 65, "velocity": 64, "note_on_time": 7.745, "note_off_time": 7.836}, {"pitch": 65, "velocity": 74, "note_on_time": 8.249, "note_off_time": 8.325}, {"pitch": 65, "velocity": 72, "note_on_time": 8.492, "note_off_time": 8.569}, {"pitch": 65, "velocity": 78, "note_on_time": 8.739, "note_off_time": 8.804}]</notes><guidance name="Guidance Mode">None</guidance><error name="Error value">0.01009460000000022</error></trial><trial trial_no="3" timestamp="2022_08_17-12_56_40"><notes name="Played Notes">[{"pitch": 64, "velocity": 58, "note_on_time": 1.042, "note_off_time": 1.229}, {"pitch": 62, "velocity": 61, "note_on_time": 1.294, "note_off_time": 1.502}, {"pitch": 65, "velocity": 62, "note_on_time": 1.538, "note_off_time": 1.789}, {"pitch": 60, "velocity": 64, "note_on_time": 1.783, "note_off_time": 1.875}, {"pitch": 60, "velocity": 60, "note_on_time": 2.055, "note_off_time": 2.149}, {"pitch": 60, "velocity": 67, "note_on_time": 2.308, "note_off_time": 2.409}, {"pitch": 60, "velocity": 59, "note_on_time": 2.562, "note_off_time": 2.653}, {"pitch": 60, "velocity": 58, "note_on_time": 2.817, "note_off_time": 2.889}, {"pitch": 60, "velocity": 57, "note_on_time": 3.063, "note_off_time": 3.146}, {"pitch": 67, "velocity": 69, "note_on_time": 3.317, "note_off_time": 3.399}, {"pitch": 67, "velocity": 62, "note_on_time": 3.575, "note_off_time": 3.654}, {"pitch": 62, "velocity": 68, "note_on_time": 3.827, "note_off_time": 3.898}, {"pitch": 65, "velocity": 64, "note_on_time": 4.075, "note_off_time": 4.135}, {"pitch": 65, "velocity": 61, "note_on_time": 4.338, "note_off_time": 4.43}, {"pitch": 67, "velocity": 59, "note_on_time": 4.583, "note_off_time": 4.685}, {"pitch": 64, "velocity": 59, "note_on_time": 4.832, "note_off_time": 4.901}, {"pitch": 64, "velocity": 61, "note_on_time": 5.079, "note_off_time": 5.48}, {"pitch": 67, "velocity": 57, "note_on_time": 6.003, "note_off_time": 6.066}, {"pitch": 67, "velocity": 68, "note_on_time": 6.26, "note_off_time": 6.357}, {"pitch": 65, "velocity": 62, "note_on_time": 6.519, "note_off_time": 6.604}, {"pitch": 67, "velocity": 61, "note_on_time": 6.761, "note_off_time": 6.832}, {"pitch": 67, "velocity": 63, "note_on_time": 7.016, "note_off_time": 7.114}, {"pitch": 65, "velocity": 62, "note_on_time": 7.281, "note_off_time": 7.362}, {"pitch": 67, "velocity": 67, "note_on_time": 7.524, "note_off_time": 7.621}, {"pitch": 65, "velocity": 61, "note_on_time": 7.777, "note_off_time": 7.889}, {"pitch": 65, "velocity": 66, "note_on_time": 8.271, "note_off_time": 8.339}, {"pitch": 65, "velocity": 70, "note_on_time": 8.515, "note_off_time": 8.595}, {"pitch": 65, "velocity": 76, "note_on_time": 8.764, "note_off_time": 8.818}]</notes><guidance name="Guidance Mode">None</guidance><error name="Error value">0.012379800000000092</error></trial></trials></MIDI>