<MIDI midiNo="2022_09_29-13_02_49"><target_notes><notes name="Note List">[{"pitch": 42, "velocity": 80, "note_on_time": 0.004, "note_off_time": 0.297}, {"pitch": 42, "velocity": 80, "note_on_time": 0.297, "note_off_time": 0.58}, {"pitch": 42, "velocity": 80, "note_on_time": 0.58, "note_off_time": 0.861}, {"pitch": 42, "velocity": 80, "note_on_time": 0.861, "note_off_time": 1.142}, {"pitch": 62, "velocity": 80, "note_on_time": 1.142, "note_off_time": 1.436}, {"pitch": 42, "velocity": 80, "note_on_time": 1.143, "note_off_time": 1.436}, {"pitch": 60, "velocity": 80, "note_on_time": 1.436, "note_off_time": 1.731}, {"pitch": 42, "velocity": 80, "note_on_time": 1.437, "note_off_time": 1.732}, {"pitch": 60, "velocity": 80, "note_on_time": 1.731, "note_off_time": 2.025}, {"pitch": 42, "velocity": 80, "note_on_time": 1.732, "note_off_time": 2.025}, {"pitch": 62, "velocity": 80, "note_on_time": 2.025, "note_off_time": 2.306}, {"pitch": 42, "velocity": 80, "note_on_time": 2.025, "note_off_time": 2.307}, {"pitch": 42, "velocity": 80, "note_on_time": 2.307, "note_off_time": 2.601}, {"pitch": 64, "velocity": 80, "note_on_time": 2.306, "note_off_time": 2.896}, {"pitch": 42, "velocity": 80, "note_on_time": 2.601, "note_off_time": 2.896}, {"pitch": 42, "velocity": 80, "note_on_time": 2.897, "note_off_time": 3.19}, {"pitch": 62, "velocity": 80, "note_on_time": 2.896, "note_off_time": 3.486}, {"pitch": 42, "velocity": 80, "note_on_time": 3.191, "note_off_time": 3.486}, {"pitch": 60, "velocity": 80, "note_on_time": 3.486, "note_off_time": 3.78}, {"pitch": 42, "velocity": 80, "note_on_time": 3.486, "note_off_time": 3.78}, {"pitch": 64, "velocity": 80, "note_on_time": 3.78, "note_off_time": 4.072}, {"pitch": 42, "velocity": 80, "note_on_time": 3.78, "note_off_time": 4.072}, {"pitch": 62, "velocity": 80, "note_on_time": 4.072, "note_off_time": 4.353}, {"pitch": 42, "velocity": 80, "note_on_time": 4.072, "note_off_time": 4.353}, {"pitch": 62, "velocity": 80, "note_on_time": 4.353, "note_off_time": 4.648}, {"pitch": 42, "velocity": 80, "note_on_time": 4.354, "note_off_time": 4.648}, {"pitch": 64, "velocity": 80, "note_on_time": 4.648, "note_off_time": 4.943}, {"pitch": 42, "velocity": 80, "note_on_time": 4.649, "note_off_time": 4.943}, {"pitch": 42, "velocity": 80, "note_on_time": 4.943, "note_off_time": 5.239}, {"pitch": 62, "velocity": 80, "note_on_time": 4.943, "note_off_time": 5.519}, {"pitch": 42, "velocity": 80, "note_on_time": 5.239, "note_off_time": 5.519}, {"pitch": 42, "velocity": 80, "note_on_time": 5.52, "note_off_time": 5.815}, {"pitch": 64, "velocity": 80, "note_on_time": 5.815, "note_off_time": 6.096}, {"pitch": 42, "velocity": 80, "note_on_time": 5.816, "note_off_time": 6.097}, {"pitch": 42, "velocity": 80, "note_on_time": 6.097, "note_off_time": 6.392}, {"pitch": 42, "velocity": 80, "note_on_time": 6.393, "note_off_time": 6.687}, {"pitch": 42, "velocity": 80, "note_on_time": 6.688, "note_off_time": 6.984}, {"pitch": 42, "velocity": 80, "note_on_time": 6.985, "note_off_time": 7.278}, {"pitch": 64, "velocity": 80, "note_on_time": 6.984, "note_off_time": 7.574}, {"pitch": 42, "velocity": 80, "note_on_time": 7.279, "note_off_time": 7.574}, {"pitch": 42, "velocity": 80, "note_on_time": 7.574, "note_off_time": 7.869}, {"pitch": 42, "velocity": 80, "note_on_time": 7.869, "note_off_time": 8.165}, {"pitch": 60, "velocity": 80, "note_on_time": 8.165, "note_off_time": 8.46}, {"pitch": 42, "velocity": 80, "note_on_time": 8.166, "note_off_time": 8.46}, {"pitch": 64, "velocity": 80, "note_on_time": 8.46, "note_off_time": 8.754}, {"pitch": 42, "velocity": 80, "note_on_time": 8.46, "note_off_time": 8.754}, {"pitch": 42, "velocity": 80, "note_on_time": 8.754, "note_off_time": 9.048}, {"pitch": 42, "velocity": 80, "note_on_time": 9.048, "note_off_time": 9.342}, {"pitch": 42, "velocity": 80, "note_on_time": 9.342, "note_off_time": 9.637}, {"pitch": 64, "velocity": 80, "note_on_time": 9.637, "note_off_time": 9.932}, {"pitch": 42, "velocity": 80, "note_on_time": 9.638, "note_off_time": 9.932}, {"pitch": 64, "velocity": 80, "note_on_time": 9.932, "note_off_time": 10.213}, {"pitch": 42, "velocity": 80, "note_on_time": 9.933, "note_off_time": 10.213}, {"pitch": 64, "velocity": 80, "note_on_time": 10.213, "note_off_time": 10.508}, {"pitch": 42, "velocity": 80, "note_on_time": 10.214, "note_off_time": 10.508}]</notes><options name="Option List">((4, 4), [0.5, 0.25], 3, 8, &lt;NoteRangePerHand.THREE_NOTES: 4&gt;, &lt;NoteRangePerHand.ONE_NOTE: 2&gt;, False, True, False, '215')</options></target_notes><trials><trial trial_no="1" timestamp="2022_09_29-13_02_36"><notes name="Played Notes">[{"pitch": 62, "velocity": 80, "note_on_time": 1.147, "note_off_time": 1.497}, {"pitch": 60, "velocity": 95, "note_on_time": 1.451, "note_off_time": 1.578}, {"pitch": 60, "velocity": 95, "note_on_time": 1.728, "note_off_time": 1.947}, {"pitch": 62, "velocity": 80, "note_on_time": 2.041, "note_off_time": 2.187}, {"pitch": 64, "velocity": 84, "note_on_time": 2.328, "note_off_time": 2.82}, {"pitch": 62, "velocity": 58, "note_on_time": 2.912, "note_off_time": 2.96}, {"pitch": 60, "velocity": 84, "note_on_time": 3.023, "note_off_time": 3.097}, {"pitch": 62, "velocity": 75, "note_on_time": 3.114, "note_off_time": 3.403}, {"pitch": 60, "velocity": 88, "note_on_time": 3.446, "note_off_time": 3.964}, {"pitch": 64, "velocity": 72, "note_on_time": 4.012, "note_off_time": 4.332}, {"pitch": 62, "velocity": 81, "note_on_time": 4.339, "note_off_time": 4.552}, {"pitch": 62, "velocity": 92, "note_on_time": 4.642, "note_off_time": 4.836}, {"pitch": 64, "velocity": 69, "note_on_time": 4.921, "note_off_time": 5.183}, {"pitch": 62, "velocity": 70, "note_on_time": 5.233, "note_off_time": 6.024}, {"pitch": 62, "velocity": 82, "note_on_time": 6.112, "note_off_time": 6.9}, {"pitch": 64, "velocity": 75, "note_on_time": 7.537, "note_off_time": 8.271}, {"pitch": 60, "velocity": 77, "note_on_time": 8.451, "note_off_time": 8.638}, {"pitch": 64, "velocity": 77, "note_on_time": 8.756, "note_off_time": 9.185}, {"pitch": 62, "velocity": 87, "note_on_time": 9.566, "note_off_time": 9.697}, {"pitch": 62, "velocity": 82, "note_on_time": 9.876, "note_off_time": 10.009}, {"pitch": 62, "velocity": 89, "note_on_time": 10.171, "note_off_time": 10.382}]</notes><guidance name="Guidance Mode">None</guidance><error name="Error value">0.8281573124999998</error></trial><trial trial_no="2" timestamp="2022_09_29-13_02_58"><notes name="Played Notes">[{"pitch": 62, "velocity": 84, "note_on_time": 1.141, "note_off_time": 1.401}, {"pitch": 60, "velocity": 89, "note_on_time": 1.43, "note_off_time": 1.568}, {"pitch": 60, "velocity": 92, "note_on_time": 1.717, "note_off_time": 1.87}, {"pitch": 62, "velocity": 80, "note_on_time": 2.01, "note_off_time": 2.131}, {"pitch": 64, "velocity": 83, "note_on_time": 2.307, "note_off_time": 2.781}, {"pitch": 62, "velocity": 82, "note_on_time": 2.866, "note_off_time": 3.348}, {"pitch": 60, "velocity": 90, "note_on_time": 3.443, "note_off_time": 3.723}, {"pitch": 64, "velocity": 81, "note_on_time": 3.732, "note_off_time": 3.977}, {"pitch": 62, "velocity": 85, "note_on_time": 4.047, "note_off_time": 4.183}, {"pitch": 62, "velocity": 84, "note_on_time": 4.326, "note_off_time": 4.465}, {"pitch": 64, "velocity": 82, "note_on_time": 4.62, "note_off_time": 4.816}, {"pitch": 62, "velocity": 83, "note_on_time": 4.922, "note_off_time": 5.647}, {"pitch": 62, "velocity": 93, "note_on_time": 5.916, "note_off_time": 6.214}, {"pitch": 64, "velocity": 78, "note_on_time": 6.234, "note_off_time": 6.885}, {"pitch": 64, "velocity": 84, "note_on_time": 7.009, "note_off_time": 7.875}, {"pitch": 60, "velocity": 89, "note_on_time": 8.028, "note_off_time": 8.364}, {"pitch": 64, "velocity": 84, "note_on_time": 8.372, "note_off_time": 8.865}, {"pitch": 62, "velocity": 79, "note_on_time": 8.951, "note_off_time": 9.097}, {"pitch": 62, "velocity": 89, "note_on_time": 9.243, "note_off_time": 9.369}, {"pitch": 62, "velocity": 94, "note_on_time": 9.511, "note_off_time": 9.731}]</notes><guidance name="Guidance Mode">None</guidance><error name="Error value">1.0295495624999997</error></trial><trial trial_no="3" timestamp="2022_09_29-13_03_23"><notes name="Played Notes">[{"pitch": 62, "velocity": 79, "note_on_time": 1.18, "note_off_time": 1.434}, {"pitch": 60, "velocity": 92, "note_on_time": 1.459, "note_off_time": 1.598}, {"pitch": 60, "velocity": 93, "note_on_time": 1.745, "note_off_time": 1.899}, {"pitch": 62, "velocity": 84, "note_on_time": 2.03, "note_off_time": 2.144}, {"pitch": 64, "velocity": 89, "note_on_time": 2.328, "note_off_time": 2.826}, {"pitch": 62, "velocity": 83, "note_on_time": 2.913, "note_off_time": 3.366}, {"pitch": 60, "velocity": 89, "note_on_time": 3.468, "note_off_time": 3.783}, {"pitch": 64, "velocity": 75, "note_on_time": 3.783, "note_off_time": 4.004}, {"pitch": 62, "velocity": 82, "note_on_time": 4.085, "note_off_time": 4.212}, {"pitch": 62, "velocity": 80, "note_on_time": 4.351, "note_off_time": 4.497}, {"pitch": 64, "velocity": 85, "note_on_time": 4.653, "note_off_time": 4.832}, {"pitch": 62, "velocity": 86, "note_on_time": 4.942, "note_off_time": 5.589}, {"pitch": 64, "velocity": 90, "note_on_time": 5.793, "note_off_time": 6.51}, {"pitch": 64, "velocity": 95, "note_on_time": 6.712, "note_off_time": 7.594}, {"pitch": 60, "velocity": 81, "note_on_time": 7.863, "note_off_time": 8.044}, {"pitch": 64, "velocity": 76, "note_on_time": 8.165, "note_off_time": 8.814}, {"pitch": 62, "velocity": 82, "note_on_time": 9.52, "note_off_time": 9.692}, {"pitch": 62, "velocity": 96, "note_on_time": 9.84, "note_off_time": 9.979}, {"pitch": 62, "velocity": 86, "note_on_time": 10.131, "note_off_time": 10.357}]</notes><guidance name="Guidance Mode">None</guidance><error name="Error value">0.23293531250000016</error></trial></trials></MIDI>