<MIDI midiNo="2022_10_02-13_36_31"><target_notes><notes name="Note List">[{"pitch": 42, "velocity": 80, "note_on_time": 0.004, "note_off_time": 0.252}, {"pitch": 42, "velocity": 80, "note_on_time": 0.252, "note_off_time": 0.501}, {"pitch": 42, "velocity": 80, "note_on_time": 0.501, "note_off_time": 0.751}, {"pitch": 42, "velocity": 80, "note_on_time": 0.751, "note_off_time": 0.998}, {"pitch": 60, "velocity": 80, "note_on_time": 0.998, "note_off_time": 1.247}, {"pitch": 42, "velocity": 80, "note_on_time": 0.998, "note_off_time": 1.247}, {"pitch": 42, "velocity": 80, "note_on_time": 1.247, "note_off_time": 1.496}, {"pitch": 42, "velocity": 80, "note_on_time": 1.496, "note_off_time": 1.745}, {"pitch": 64, "velocity": 80, "note_on_time": 1.745, "note_off_time": 1.995}, {"pitch": 42, "velocity": 80, "note_on_time": 1.745, "note_off_time": 1.995}, {"pitch": 60, "velocity": 80, "note_on_time": 1.995, "note_off_time": 2.244}, {"pitch": 42, "velocity": 80, "note_on_time": 1.995, "note_off_time": 2.244}, {"pitch": 64, "velocity": 80, "note_on_time": 2.244, "note_off_time": 2.492}, {"pitch": 42, "velocity": 80, "note_on_time": 2.244, "note_off_time": 2.492}, {"pitch": 64, "velocity": 80, "note_on_time": 2.492, "note_off_time": 2.74}, {"pitch": 42, "velocity": 80, "note_on_time": 2.492, "note_off_time": 2.74}, {"pitch": 60, "velocity": 80, "note_on_time": 2.74, "note_off_time": 2.988}, {"pitch": 42, "velocity": 80, "note_on_time": 2.74, "note_off_time": 2.988}, {"pitch": 60, "velocity": 80, "note_on_time": 2.988, "note_off_time": 3.238}, {"pitch": 42, "velocity": 80, "note_on_time": 2.988, "note_off_time": 3.238}, {"pitch": 60, "velocity": 80, "note_on_time": 3.238, "note_off_time": 3.486}, {"pitch": 42, "velocity": 80, "note_on_time": 3.238, "note_off_time": 3.486}, {"pitch": 60, "velocity": 80, "note_on_time": 3.486, "note_off_time": 3.735}, {"pitch": 42, "velocity": 80, "note_on_time": 3.486, "note_off_time": 3.735}, {"pitch": 64, "velocity": 80, "note_on_time": 3.735, "note_off_time": 3.983}, {"pitch": 42, "velocity": 80, "note_on_time": 3.735, "note_off_time": 3.983}, {"pitch": 60, "velocity": 80, "note_on_time": 3.983, "note_off_time": 4.232}, {"pitch": 42, "velocity": 80, "note_on_time": 3.983, "note_off_time": 4.232}, {"pitch": 62, "velocity": 80, "note_on_time": 4.232, "note_off_time": 4.483}, {"pitch": 42, "velocity": 80, "note_on_time": 4.232, "note_off_time": 4.483}, {"pitch": 60, "velocity": 80, "note_on_time": 4.483, "note_off_time": 4.733}, {"pitch": 42, "velocity": 80, "note_on_time": 4.483, "note_off_time": 4.733}, {"pitch": 62, "velocity": 80, "note_on_time": 4.733, "note_off_time": 4.98}, {"pitch": 42, "velocity": 80, "note_on_time": 4.733, "note_off_time": 4.98}, {"pitch": 64, "velocity": 80, "note_on_time": 4.98, "note_off_time": 5.229}, {"pitch": 42, "velocity": 80, "note_on_time": 4.98, "note_off_time": 5.229}, {"pitch": 64, "velocity": 80, "note_on_time": 5.229, "note_off_time": 5.476}, {"pitch": 42, "velocity": 80, "note_on_time": 5.229, "note_off_time": 5.476}, {"pitch": 42, "velocity": 80, "note_on_time": 5.476, "note_off_time": 5.725}, {"pitch": 64, "velocity": 80, "note_on_time": 5.725, "note_off_time": 5.975}, {"pitch": 42, "velocity": 80, "note_on_time": 5.725, "note_off_time": 5.975}, {"pitch": 62, "velocity": 80, "note_on_time": 5.975, "note_off_time": 6.227}, {"pitch": 42, "velocity": 80, "note_on_time": 5.975, "note_off_time": 6.227}, {"pitch": 64, "velocity": 80, "note_on_time": 6.227, "note_off_time": 6.476}, {"pitch": 42, "velocity": 80, "note_on_time": 6.227, "note_off_time": 6.476}, {"pitch": 60, "velocity": 80, "note_on_time": 6.476, "note_off_time": 6.724}, {"pitch": 42, "velocity": 80, "note_on_time": 6.476, "note_off_time": 6.724}, {"pitch": 64, "velocity": 80, "note_on_time": 6.724, "note_off_time": 6.973}, {"pitch": 42, "velocity": 80, "note_on_time": 6.724, "note_off_time": 6.973}, {"pitch": 60, "velocity": 80, "note_on_time": 6.973, "note_off_time": 7.223}, {"pitch": 42, "velocity": 80, "note_on_time": 6.973, "note_off_time": 7.223}, {"pitch": 62, "velocity": 80, "note_on_time": 7.223, "note_off_time": 7.473}, {"pitch": 42, "velocity": 80, "note_on_time": 7.223, "note_off_time": 7.473}, {"pitch": 64, "velocity": 80, "note_on_time": 7.473, "note_off_time": 7.721}, {"pitch": 42, "velocity": 80, "note_on_time": 7.473, "note_off_time": 7.721}, {"pitch": 62, "velocity": 80, "note_on_time": 7.721, "note_off_time": 7.97}, {"pitch": 42, "velocity": 80, "note_on_time": 7.721, "note_off_time": 7.97}, {"pitch": 42, "velocity": 80, "note_on_time": 7.97, "note_off_time": 8.221}, {"pitch": 62, "velocity": 80, "note_on_time": 8.221, "note_off_time": 8.471}, {"pitch": 42, "velocity": 80, "note_on_time": 8.221, "note_off_time": 8.471}, {"pitch": 62, "velocity": 80, "note_on_time": 8.471, "note_off_time": 8.719}, {"pitch": 42, "velocity": 80, "note_on_time": 8.471, "note_off_time": 8.719}, {"pitch": 62, "velocity": 80, "note_on_time": 8.719, "note_off_time": 8.968}, {"pitch": 42, "velocity": 80, "note_on_time": 8.719, "note_off_time": 8.968}]</notes><options name="Option List">((4, 4), [0.25], 3, 8, &lt;NoteRangePerHand.THREE_NOTES: 4&gt;, &lt;NoteRangePerHand.ONE_NOTE: 2&gt;, False, True, True, '248')</options></target_notes><trials><trial trial_no="1" timestamp="2022_10_02-13_36_20"><notes name="Played Notes">[{"pitch": 60, "velocity": 70, "note_on_time": 1.328, "note_off_time": 1.597}, {"pitch": 64, "velocity": 64, "note_on_time": 1.857, "note_off_time": 2.09}, {"pitch": 60, "velocity": 64, "note_on_time": 2.114, "note_off_time": 2.34}, {"pitch": 64, "velocity": 52, "note_on_time": 2.399, "note_off_time": 2.533}, {"pitch": 64, "velocity": 58, "note_on_time": 2.653, "note_off_time": 2.883}, {"pitch": 60, "velocity": 61, "note_on_time": 2.932, "note_off_time": 3.06}, {"pitch": 60, "velocity": 59, "note_on_time": 3.198, "note_off_time": 3.316}, {"pitch": 60, "velocity": 55, "note_on_time": 3.464, "note_off_time": 3.655}, {"pitch": 64, "velocity": 51, "note_on_time": 3.727, "note_off_time": 3.996}, {"pitch": 60, "velocity": 67, "note_on_time": 4.006, "note_off_time": 4.325}, {"pitch": 62, "velocity": 44, "note_on_time": 4.271, "note_off_time": 4.54}, {"pitch": 64, "velocity": 58, "note_on_time": 4.544, "note_off_time": 4.885}, {"pitch": 64, "velocity": 47, "note_on_time": 5.077, "note_off_time": 5.346}, {"pitch": 64, "velocity": 62, "note_on_time": 5.624, "note_off_time": 5.91}, {"pitch": 62, "velocity": 46, "note_on_time": 5.93, "note_off_time": 6.138}, {"pitch": 64, "velocity": 52, "note_on_time": 6.185, "note_off_time": 6.477}, {"pitch": 60, "velocity": 59, "note_on_time": 6.481, "note_off_time": 6.739}, {"pitch": 64, "velocity": 57, "note_on_time": 6.723, "note_off_time": 6.976}, {"pitch": 60, "velocity": 52, "note_on_time": 7.045, "note_off_time": 7.333}, {"pitch": 64, "velocity": 49, "note_on_time": 7.32, "note_off_time": 7.481}, {"pitch": 64, "velocity": 44, "note_on_time": 7.968, "note_off_time": 8.49}, {"pitch": 64, "velocity": 3, "note_on_time": 8.624, "note_off_time": 8.719}]</notes><guidance name="Guidance Mode">None</guidance><error name="Error value">0.5432982000000001</error></trial><trial trial_no="2" timestamp="2022_10_02-13_36_41"><notes name="Played Notes">[{"pitch": 60, "velocity": 64, "note_on_time": 0.584, "note_off_time": 0.804}, {"pitch": 64, "velocity": 64, "note_on_time": 1.127, "note_off_time": 1.385}, {"pitch": 60, "velocity": 62, "note_on_time": 1.412, "note_off_time": 1.587}, {"pitch": 64, "velocity": 50, "note_on_time": 1.666, "note_off_time": 1.796}, {"pitch": 64, "velocity": 47, "note_on_time": 1.939, "note_off_time": 2.138}, {"pitch": 60, "velocity": 42, "note_on_time": 2.231, "note_off_time": 2.317}, {"pitch": 60, "velocity": 54, "note_on_time": 2.464, "note_off_time": 2.583}, {"pitch": 60, "velocity": 59, "note_on_time": 2.749, "note_off_time": 2.952}, {"pitch": 64, "velocity": 53, "note_on_time": 3.015, "note_off_time": 3.268}, {"pitch": 62, "velocity": 52, "note_on_time": 3.293, "note_off_time": 3.534}, {"pitch": 60, "velocity": 59, "note_on_time": 3.545, "note_off_time": 3.754}, {"pitch": 62, "velocity": 44, "note_on_time": 3.839, "note_off_time": 4.107}, {"pitch": 64, "velocity": 63, "note_on_time": 4.106, "note_off_time": 4.228}, {"pitch": 64, "velocity": 61, "note_on_time": 4.381, "note_off_time": 4.56}, {"pitch": 64, "velocity": 65, "note_on_time": 4.909, "note_off_time": 5.083}, {"pitch": 62, "velocity": 56, "note_on_time": 5.199, "note_off_time": 5.411}, {"pitch": 64, "velocity": 58, "note_on_time": 5.456, "note_off_time": 5.717}, {"pitch": 60, "velocity": 60, "note_on_time": 5.73, "note_off_time": 5.953}, {"pitch": 64, "velocity": 55, "note_on_time": 5.994, "note_off_time": 6.259}, {"pitch": 60, "velocity": 62, "note_on_time": 6.568, "note_off_time": 6.863}, {"pitch": 62, "velocity": 60, "note_on_time": 6.854, "note_off_time": 7.112}, {"pitch": 64, "velocity": 59, "note_on_time": 7.105, "note_off_time": 7.404}, {"pitch": 62, "velocity": 62, "note_on_time": 7.403, "note_off_time": 7.636}, {"pitch": 62, "velocity": 64, "note_on_time": 8.224, "note_off_time": 8.363}, {"pitch": 62, "velocity": 52, "note_on_time": 8.49, "note_off_time": 8.655}]</notes><guidance name="Guidance Mode">None</guidance><error name="Error value">0.3838712000000001</error></trial><trial trial_no="3" timestamp="2022_10_02-13_37_06"><notes name="Played Notes">[{"pitch": 60, "velocity": 65, "note_on_time": 1.693, "note_off_time": 1.96}, {"pitch": 64, "velocity": 67, "note_on_time": 2.207, "note_off_time": 2.461}, {"pitch": 60, "velocity": 61, "note_on_time": 2.471, "note_off_time": 2.68}, {"pitch": 64, "velocity": 60, "note_on_time": 2.76, "note_off_time": 3.016}, {"pitch": 60, "velocity": 66, "note_on_time": 3.028, "note_off_time": 3.163}, {"pitch": 60, "velocity": 57, "note_on_time": 3.304, "note_off_time": 3.434}, {"pitch": 60, "velocity": 61, "note_on_time": 3.579, "note_off_time": 3.746}, {"pitch": 64, "velocity": 59, "note_on_time": 3.852, "note_off_time": 4.086}, {"pitch": 60, "velocity": 65, "note_on_time": 4.106, "note_off_time": 4.319}, {"pitch": 62, "velocity": 54, "note_on_time": 4.364, "note_off_time": 4.666}, {"pitch": 60, "velocity": 63, "note_on_time": 4.66, "note_off_time": 4.89}, {"pitch": 62, "velocity": 49, "note_on_time": 4.92, "note_off_time": 5.309}, {"pitch": 64, "velocity": 1, "note_on_time": 5.297, "note_off_time": 5.434}, {"pitch": 64, "velocity": 52, "note_on_time": 5.58, "note_off_time": 5.771}, {"pitch": 64, "velocity": 54, "note_on_time": 5.876, "note_off_time": 6.122}, {"pitch": 64, "velocity": 62, "note_on_time": 6.676, "note_off_time": 6.96}, {"pitch": 62, "velocity": 54, "note_on_time": 6.92, "note_off_time": 7.191}, {"pitch": 64, "velocity": 56, "note_on_time": 7.214, "note_off_time": 7.483}, {"pitch": 60, "velocity": 60, "note_on_time": 7.497, "note_off_time": 7.831}, {"pitch": 62, "velocity": 59, "note_on_time": 7.801, "note_off_time": 8.038}, {"pitch": 64, "velocity": 53, "note_on_time": 8.073, "note_off_time": 8.247}]</notes><guidance name="Guidance Mode">None</guidance><error name="Error value">0.6709948000000001</error></trial><trial trial_no="4" timestamp="2022_10_02-13_37_28"><notes name="Played Notes">[{"pitch": 60, "velocity": 59, "note_on_time": 1.364, "note_off_time": 1.671}, {"pitch": 64, "velocity": 63, "note_on_time": 1.871, "note_off_time": 2.117}, {"pitch": 60, "velocity": 72, "note_on_time": 2.117, "note_off_time": 2.338}, {"pitch": 64, "velocity": 59, "note_on_time": 2.408, "note_off_time": 2.536}, {"pitch": 64, "velocity": 49, "note_on_time": 2.649, "note_off_time": 2.889}, {"pitch": 60, "velocity": 59, "note_on_time": 2.932, "note_off_time": 3.095}, {"pitch": 60, "velocity": 62, "note_on_time": 3.217, "note_off_time": 3.35}, {"pitch": 60, "velocity": 62, "note_on_time": 3.477, "note_off_time": 3.68}, {"pitch": 64, "velocity": 54, "note_on_time": 3.722, "note_off_time": 3.964}, {"pitch": 60, "velocity": 62, "note_on_time": 3.989, "note_off_time": 4.208}, {"pitch": 62, "velocity": 53, "note_on_time": 4.231, "note_off_time": 4.523}, {"pitch": 60, "velocity": 65, "note_on_time": 4.527, "note_off_time": 4.79}, {"pitch": 62, "velocity": 50, "note_on_time": 4.806, "note_off_time": 5.078}, {"pitch": 64, "velocity": 64, "note_on_time": 5.066, "note_off_time": 5.197}, {"pitch": 64, "velocity": 45, "note_on_time": 5.325, "note_off_time": 5.539}, {"pitch": 64, "velocity": 56, "note_on_time": 6.104, "note_off_time": 6.348}, {"pitch": 62, "velocity": 55, "note_on_time": 6.363, "note_off_time": 6.63}, {"pitch": 64, "velocity": 56, "note_on_time": 6.644, "note_off_time": 6.9}, {"pitch": 60, "velocity": 64, "note_on_time": 6.898, "note_off_time": 7.127}, {"pitch": 64, "velocity": 49, "note_on_time": 7.183, "note_off_time": 7.489}, {"pitch": 62, "velocity": 62, "note_on_time": 7.463, "note_off_time": 7.645}, {"pitch": 64, "velocity": 63, "note_on_time": 7.747, "note_off_time": 8.072}, {"pitch": 64, "velocity": 40, "note_on_time": 8.28, "note_off_time": 8.607}]</notes><guidance name="Guidance Mode">None</guidance><error name="Error value">0.411293</error></trial><trial trial_no="5" timestamp="2022_10_02-13_37_55"><notes name="Played Notes">[{"pitch": 60, "velocity": 61, "note_on_time": 1.542, "note_off_time": 1.806}, {"pitch": 64, "velocity": 63, "note_on_time": 2.051, "note_off_time": 2.311}, {"pitch": 60, "velocity": 70, "note_on_time": 2.331, "note_off_time": 2.532}, {"pitch": 64, "velocity": 61, "note_on_time": 2.62, "note_off_time": 2.756}, {"pitch": 64, "velocity": 55, "note_on_time": 2.88, "note_off_time": 3.151}, {"pitch": 60, "velocity": 67, "note_on_time": 3.159, "note_off_time": 3.295}, {"pitch": 60, "velocity": 64, "note_on_time": 3.415, "note_off_time": 3.557}, {"pitch": 60, "velocity": 55, "note_on_time": 3.699, "note_off_time": 3.951}, {"pitch": 64, "velocity": 60, "note_on_time": 3.988, "note_off_time": 4.248}, {"pitch": 60, "velocity": 65, "note_on_time": 4.239, "note_off_time": 4.497}, {"pitch": 62, "velocity": 54, "note_on_time": 4.517, "note_off_time": 4.859}, {"pitch": 60, "velocity": 71, "note_on_time": 4.819, "note_off_time": 5.074}, {"pitch": 62, "velocity": 55, "note_on_time": 5.079, "note_off_time": 5.247}, {"pitch": 62, "velocity": 57, "note_on_time": 5.396, "note_off_time": 5.561}, {"pitch": 62, "velocity": 34, "note_on_time": 5.653, "note_off_time": 5.974}, {"pitch": 62, "velocity": 62, "note_on_time": 6.52, "note_off_time": 6.79}, {"pitch": 64, "velocity": 63, "note_on_time": 6.783, "note_off_time": 7.095}, {"pitch": 62, "velocity": 55, "note_on_time": 7.076, "note_off_time": 7.394}, {"pitch": 60, "velocity": 68, "note_on_time": 7.352, "note_off_time": 7.553}, {"pitch": 62, "velocity": 65, "note_on_time": 7.67, "note_off_time": 8.1}, {"pitch": 62, "velocity": 67, "note_on_time": 8.207, "note_off_time": 8.607}]</notes><guidance name="Guidance Mode">None</guidance><error name="Error value">0.5695304000000002</error></trial><trial trial_no="6" timestamp="2022_10_02-13_38_26"><notes name="Played Notes">[{"pitch": 60, "velocity": 68, "note_on_time": 0.983, "note_off_time": 1.268}, {"pitch": 64, "velocity": 66, "note_on_time": 1.52, "note_off_time": 1.752}, {"pitch": 60, "velocity": 68, "note_on_time": 1.762, "note_off_time": 1.963}, {"pitch": 64, "velocity": 64, "note_on_time": 2.041, "note_off_time": 2.158}, {"pitch": 64, "velocity": 54, "note_on_time": 2.271, "note_off_time": 2.476}, {"pitch": 60, "velocity": 61, "note_on_time": 2.533, "note_off_time": 2.646}, {"pitch": 60, "velocity": 61, "note_on_time": 2.765, "note_off_time": 2.887}, {"pitch": 60, "velocity": 63, "note_on_time": 3.037, "note_off_time": 3.246}, {"pitch": 64, "velocity": 58, "note_on_time": 3.288, "note_off_time": 3.536}, {"pitch": 60, "velocity": 69, "note_on_time": 3.534, "note_off_time": 3.762}, {"pitch": 62, "velocity": 57, "note_on_time": 3.766, "note_off_time": 4.045}, {"pitch": 60, "velocity": 65, "note_on_time": 4.031, "note_off_time": 4.258}, {"pitch": 62, "velocity": 54, "note_on_time": 4.273, "note_off_time": 4.51}, {"pitch": 64, "velocity": 65, "note_on_time": 4.501, "note_off_time": 4.653}, {"pitch": 64, "velocity": 56, "note_on_time": 4.762, "note_off_time": 4.97}, {"pitch": 64, "velocity": 62, "note_on_time": 5.496, "note_off_time": 5.77}, {"pitch": 62, "velocity": 56, "note_on_time": 5.741, "note_off_time": 5.999}, {"pitch": 64, "velocity": 56, "note_on_time": 6.01, "note_off_time": 6.263}, {"pitch": 60, "velocity": 57, "note_on_time": 6.263, "note_off_time": 6.508}, {"pitch": 64, "velocity": 58, "note_on_time": 6.519, "note_off_time": 6.873}, {"pitch": 62, "velocity": 61, "note_on_time": 6.832, "note_off_time": 7.201}, {"pitch": 60, "velocity": 61, "note_on_time": 7.185, "note_off_time": 7.418}, {"pitch": 62, "velocity": 63, "note_on_time": 8.162, "note_off_time": 8.316}, {"pitch": 62, "velocity": 51, "note_on_time": 8.409, "note_off_time": 8.588}, {"pitch": 62, "velocity": 65, "note_on_time": 8.697, "note_off_time": 8.925}]</notes><guidance name="Guidance Mode">None</guidance><error name="Error value">0.237706</error></trial></trials></MIDI>