<MIDI midiNo="2022_12_08-10_15_20"><target_notes><notes name="Note List">[{"pitch": 42, "velocity": 80, "note_on_time": 0.005, "note_off_time": 0.614}, {"pitch": 42, "velocity": 80, "note_on_time": 0.614, "note_off_time": 1.225}, {"pitch": 42, "velocity": 80, "note_on_time": 1.225, "note_off_time": 1.832}, {"pitch": 42, "velocity": 80, "note_on_time": 1.832, "note_off_time": 2.441}, {"pitch": 42, "velocity": 80, "note_on_time": 2.441, "note_off_time": 3.052}, {"pitch": 62, "velocity": 80, "note_on_time": 2.44, "note_off_time": 3.658}, {"pitch": 42, "velocity": 80, "note_on_time": 3.053, "note_off_time": 3.659}, {"pitch": 42, "velocity": 80, "note_on_time": 3.659, "note_off_time": 4.27}, {"pitch": 42, "velocity": 80, "note_on_time": 4.27, "note_off_time": 4.876}, {"pitch": 62, "velocity": 80, "note_on_time": 4.875, "note_off_time": 5.484}, {"pitch": 42, "velocity": 80, "note_on_time": 4.876, "note_off_time": 5.485}, {"pitch": 62, "velocity": 80, "note_on_time": 5.484, "note_off_time": 6.093}, {"pitch": 42, "velocity": 80, "note_on_time": 5.485, "note_off_time": 6.093}, {"pitch": 62, "velocity": 80, "note_on_time": 6.093, "note_off_time": 6.702}, {"pitch": 42, "velocity": 80, "note_on_time": 6.094, "note_off_time": 6.702}, {"pitch": 62, "velocity": 80, "note_on_time": 6.702, "note_off_time": 7.31}, {"pitch": 42, "velocity": 80, "note_on_time": 6.702, "note_off_time": 7.31}, {"pitch": 60, "velocity": 80, "note_on_time": 7.31, "note_off_time": 7.921}, {"pitch": 42, "velocity": 80, "note_on_time": 7.31, "note_off_time": 7.921}, {"pitch": 60, "velocity": 80, "note_on_time": 7.921, "note_off_time": 8.531}, {"pitch": 42, "velocity": 80, "note_on_time": 7.921, "note_off_time": 8.531}, {"pitch": 60, "velocity": 80, "note_on_time": 8.531, "note_off_time": 9.137}, {"pitch": 42, "velocity": 80, "note_on_time": 8.532, "note_off_time": 9.137}, {"pitch": 62, "velocity": 80, "note_on_time": 9.137, "note_off_time": 9.746}, {"pitch": 42, "velocity": 80, "note_on_time": 9.138, "note_off_time": 9.746}, {"pitch": 62, "velocity": 80, "note_on_time": 9.746, "note_off_time": 10.357}, {"pitch": 42, "velocity": 80, "note_on_time": 9.747, "note_off_time": 10.358}, {"pitch": 62, "velocity": 80, "note_on_time": 10.357, "note_off_time": 10.966}, {"pitch": 42, "velocity": 80, "note_on_time": 10.358, "note_off_time": 10.966}, {"pitch": 42, "velocity": 80, "note_on_time": 10.966, "note_off_time": 11.575}, {"pitch": 60, "velocity": 80, "note_on_time": 10.966, "note_off_time": 12.183}, {"pitch": 42, "velocity": 80, "note_on_time": 11.575, "note_off_time": 12.183}, {"pitch": 42, "velocity": 80, "note_on_time": 12.183, "note_off_time": 12.793}, {"pitch": 60, "velocity": 80, "note_on_time": 12.183, "note_off_time": 13.401}, {"pitch": 42, "velocity": 80, "note_on_time": 12.793, "note_off_time": 13.401}, {"pitch": 42, "velocity": 80, "note_on_time": 13.401, "note_off_time": 14.009}, {"pitch": 42, "velocity": 80, "note_on_time": 14.01, "note_off_time": 14.618}, {"pitch": 62, "velocity": 80, "note_on_time": 14.618, "note_off_time": 15.225}, {"pitch": 42, "velocity": 80, "note_on_time": 14.619, "note_off_time": 15.225}, {"pitch": 60, "velocity": 80, "note_on_time": 15.225, "note_off_time": 15.832}, {"pitch": 42, "velocity": 80, "note_on_time": 15.226, "note_off_time": 15.832}, {"pitch": 60, "velocity": 80, "note_on_time": 15.832, "note_off_time": 16.441}, {"pitch": 42, "velocity": 80, "note_on_time": 15.832, "note_off_time": 16.442}, {"pitch": 42, "velocity": 80, "note_on_time": 16.442, "note_off_time": 17.051}, {"pitch": 60, "velocity": 80, "note_on_time": 17.051, "note_off_time": 17.661}, {"pitch": 42, "velocity": 80, "note_on_time": 17.052, "note_off_time": 17.661}, {"pitch": 42, "velocity": 80, "note_on_time": 17.662, "note_off_time": 18.268}, {"pitch": 60, "velocity": 80, "note_on_time": 17.661, "note_off_time": 18.881}, {"pitch": 42, "velocity": 80, "note_on_time": 18.269, "note_off_time": 18.881}, {"pitch": 42, "velocity": 80, "note_on_time": 18.881, "note_off_time": 19.488}, {"pitch": 42, "velocity": 80, "note_on_time": 19.488, "note_off_time": 20.099}, {"pitch": 60, "velocity": 80, "note_on_time": 20.099, "note_off_time": 20.703}, {"pitch": 42, "velocity": 80, "note_on_time": 20.1, "note_off_time": 20.704}, {"pitch": 60, "velocity": 80, "note_on_time": 20.703, "note_off_time": 21.314}, {"pitch": 42, "velocity": 80, "note_on_time": 20.704, "note_off_time": 21.314}, {"pitch": 60, "velocity": 80, "note_on_time": 21.314, "note_off_time": 21.921}, {"pitch": 42, "velocity": 80, "note_on_time": 21.314, "note_off_time": 21.921}]</notes><options name="Option List">((4, 4), [0.25], 3, 8, &lt;NoteRangePerHand.TWO_NOTES: 3&gt;, &lt;NoteRangePerHand.ONE_NOTE: 2&gt;, False, True, False, '80')</options></target_notes><trials><trial trial_no="1" timestamp="2022_12_08-10_14_57"><notes name="Played Notes">[{"pitch": 62, "velocity": 58, "note_on_time": 2.409, "note_off_time": 3.42}, {"pitch": 62, "velocity": 51, "note_on_time": 4.829, "note_off_time": 5.217}, {"pitch": 62, "velocity": 44, "note_on_time": 5.451, "note_off_time": 5.787}, {"pitch": 62, "velocity": 64, "note_on_time": 6.073, "note_off_time": 6.357}, {"pitch": 62, "velocity": 64, "note_on_time": 6.716, "note_off_time": 6.966}, {"pitch": 60, "velocity": 57, "note_on_time": 7.35, "note_off_time": 7.595}, {"pitch": 60, "velocity": 74, "note_on_time": 7.97, "note_off_time": 8.191}, {"pitch": 60, "velocity": 58, "note_on_time": 8.584, "note_off_time": 8.778}, {"pitch": 62, "velocity": 51, "note_on_time": 9.132, "note_off_time": 9.308}, {"pitch": 62, "velocity": 52, "note_on_time": 9.743, "note_off_time": 9.926}, {"pitch": 62, "velocity": 50, "note_on_time": 10.346, "note_off_time": 10.471}, {"pitch": 60, "velocity": 73, "note_on_time": 10.942, "note_off_time": 11.629}, {"pitch": 60, "velocity": 53, "note_on_time": 12.168, "note_off_time": 13.111}, {"pitch": 62, "velocity": 56, "note_on_time": 14.558, "note_off_time": 14.88}, {"pitch": 60, "velocity": 62, "note_on_time": 15.168, "note_off_time": 15.378}, {"pitch": 60, "velocity": 61, "note_on_time": 15.754, "note_off_time": 16.385}, {"pitch": 60, "velocity": 60, "note_on_time": 17.031, "note_off_time": 17.211}, {"pitch": 60, "velocity": 66, "note_on_time": 17.641, "note_off_time": 18.678}, {"pitch": 60, "velocity": 49, "note_on_time": 20.114, "note_off_time": 20.345}, {"pitch": 60, "velocity": 70, "note_on_time": 20.691, "note_off_time": 20.896}, {"pitch": 60, "velocity": 74, "note_on_time": 21.266, "note_off_time": 21.599}]</notes><guidance name="Guidance Mode">None</guidance><error name="Error value">0.02850000000000012</error></trial></trials></MIDI>