<MIDI midiNo="2022_12_22-13_39_13"><target_notes><notes name="Note List">[{"pitch": 42, "velocity": 80, "note_on_time": 0.005, "note_off_time": 0.417}, {"pitch": 42, "velocity": 80, "note_on_time": 0.417, "note_off_time": 0.821}, {"pitch": 42, "velocity": 80, "note_on_time": 0.821, "note_off_time": 1.227}, {"pitch": 42, "velocity": 80, "note_on_time": 1.227, "note_off_time": 1.629}, {"pitch": 60, "velocity": 80, "note_on_time": 1.628, "note_off_time": 2.033}, {"pitch": 42, "velocity": 80, "note_on_time": 1.629, "note_off_time": 2.033}, {"pitch": 42, "velocity": 80, "note_on_time": 2.033, "note_off_time": 2.441}, {"pitch": 62, "velocity": 80, "note_on_time": 2.033, "note_off_time": 2.845}, {"pitch": 42, "velocity": 80, "note_on_time": 2.441, "note_off_time": 2.845}, {"pitch": 64, "velocity": 80, "note_on_time": 2.845, "note_off_time": 3.261}, {"pitch": 42, "velocity": 80, "note_on_time": 2.845, "note_off_time": 3.261}, {"pitch": 60, "velocity": 80, "note_on_time": 3.261, "note_off_time": 3.662}, {"pitch": 42, "velocity": 80, "note_on_time": 3.262, "note_off_time": 3.663}, {"pitch": 60, "velocity": 80, "note_on_time": 3.662, "note_off_time": 4.066}, {"pitch": 42, "velocity": 80, "note_on_time": 3.663, "note_off_time": 4.067}, {"pitch": 64, "velocity": 80, "note_on_time": 4.066, "note_off_time": 4.471}, {"pitch": 42, "velocity": 80, "note_on_time": 4.067, "note_off_time": 4.471}, {"pitch": 64, "velocity": 80, "note_on_time": 4.471, "note_off_time": 4.874}, {"pitch": 42, "velocity": 80, "note_on_time": 4.471, "note_off_time": 4.875}, {"pitch": 64, "velocity": 80, "note_on_time": 4.874, "note_off_time": 5.279}, {"pitch": 42, "velocity": 80, "note_on_time": 4.875, "note_off_time": 5.279}, {"pitch": 64, "velocity": 80, "note_on_time": 5.279, "note_off_time": 5.682}, {"pitch": 42, "velocity": 80, "note_on_time": 5.28, "note_off_time": 5.682}, {"pitch": 64, "velocity": 80, "note_on_time": 5.682, "note_off_time": 6.087}, {"pitch": 42, "velocity": 80, "note_on_time": 5.683, "note_off_time": 6.087}, {"pitch": 60, "velocity": 80, "note_on_time": 6.087, "note_off_time": 6.489}, {"pitch": 42, "velocity": 80, "note_on_time": 6.087, "note_off_time": 6.489}, {"pitch": 42, "velocity": 80, "note_on_time": 6.489, "note_off_time": 6.892}, {"pitch": 64, "velocity": 80, "note_on_time": 6.489, "note_off_time": 7.296}, {"pitch": 42, "velocity": 80, "note_on_time": 6.892, "note_off_time": 7.296}, {"pitch": 64, "velocity": 80, "note_on_time": 7.296, "note_off_time": 7.698}, {"pitch": 42, "velocity": 80, "note_on_time": 7.296, "note_off_time": 7.698}, {"pitch": 60, "velocity": 80, "note_on_time": 7.698, "note_off_time": 8.103}, {"pitch": 42, "velocity": 80, "note_on_time": 7.698, "note_off_time": 8.103}, {"pitch": 42, "velocity": 80, "note_on_time": 8.103, "note_off_time": 8.51}, {"pitch": 62, "velocity": 80, "note_on_time": 8.103, "note_off_time": 8.914}, {"pitch": 42, "velocity": 80, "note_on_time": 8.51, "note_off_time": 8.914}, {"pitch": 42, "velocity": 80, "note_on_time": 8.914, "note_off_time": 9.317}, {"pitch": 42, "velocity": 80, "note_on_time": 9.317, "note_off_time": 9.721}, {"pitch": 60, "velocity": 80, "note_on_time": 9.72, "note_off_time": 10.126}, {"pitch": 42, "velocity": 80, "note_on_time": 9.721, "note_off_time": 10.127}, {"pitch": 62, "velocity": 80, "note_on_time": 10.126, "note_off_time": 10.529}, {"pitch": 42, "velocity": 80, "note_on_time": 10.127, "note_off_time": 10.529}, {"pitch": 60, "velocity": 80, "note_on_time": 10.529, "note_off_time": 10.932}, {"pitch": 42, "velocity": 80, "note_on_time": 10.529, "note_off_time": 10.932}, {"pitch": 62, "velocity": 80, "note_on_time": 10.932, "note_off_time": 11.335}, {"pitch": 42, "velocity": 80, "note_on_time": 10.932, "note_off_time": 11.335}, {"pitch": 62, "velocity": 80, "note_on_time": 11.335, "note_off_time": 11.742}, {"pitch": 42, "velocity": 80, "note_on_time": 11.335, "note_off_time": 11.742}, {"pitch": 60, "velocity": 80, "note_on_time": 11.742, "note_off_time": 12.146}, {"pitch": 42, "velocity": 80, "note_on_time": 11.742, "note_off_time": 12.146}, {"pitch": 42, "velocity": 80, "note_on_time": 12.147, "note_off_time": 12.552}, {"pitch": 62, "velocity": 80, "note_on_time": 12.146, "note_off_time": 12.957}, {"pitch": 42, "velocity": 80, "note_on_time": 12.552, "note_off_time": 12.957}, {"pitch": 42, "velocity": 80, "note_on_time": 12.957, "note_off_time": 13.364}, {"pitch": 62, "velocity": 80, "note_on_time": 13.363, "note_off_time": 13.767}, {"pitch": 42, "velocity": 80, "note_on_time": 13.364, "note_off_time": 13.767}, {"pitch": 62, "velocity": 80, "note_on_time": 13.767, "note_off_time": 14.173}, {"pitch": 42, "velocity": 80, "note_on_time": 13.767, "note_off_time": 14.173}, {"pitch": 62, "velocity": 80, "note_on_time": 14.173, "note_off_time": 14.578}, {"pitch": 42, "velocity": 80, "note_on_time": 14.174, "note_off_time": 14.578}]</notes><options name="Option List">((4, 4), [0.5, 0.25], 3, 8, &lt;NoteRangePerHand.THREE_NOTES: 4&gt;, &lt;NoteRangePerHand.ONE_NOTE: 2&gt;, False, True, False, '150')</options></target_notes><trials><trial trial_no="1" timestamp="2022_12_22-13_38_57"><notes name="Played Notes">[{"pitch": 60, "velocity": 90, "note_on_time": 1.619, "note_off_time": 1.789}, {"pitch": 62, "velocity": 100, "note_on_time": 2.049, "note_off_time": 2.753}, {"pitch": 64, "velocity": 95, "note_on_time": 3.241, "note_off_time": 3.443}, {"pitch": 60, "velocity": 100, "note_on_time": 3.633, "note_off_time": 3.811}, {"pitch": 60, "velocity": 100, "note_on_time": 4.058, "note_off_time": 4.263}, {"pitch": 64, "velocity": 90, "note_on_time": 4.452, "note_off_time": 4.642}, {"pitch": 64, "velocity": 91, "note_on_time": 4.895, "note_off_time": 5.056}, {"pitch": 64, "velocity": 91, "note_on_time": 5.302, "note_off_time": 5.464}, {"pitch": 64, "velocity": 93, "note_on_time": 5.746, "note_off_time": 5.941}, {"pitch": 64, "velocity": 86, "note_on_time": 6.197, "note_off_time": 6.384}, {"pitch": 60, "velocity": 93, "note_on_time": 6.566, "note_off_time": 6.813}, {"pitch": 64, "velocity": 86, "note_on_time": 7.029, "note_off_time": 7.405}, {"pitch": 64, "velocity": 91, "note_on_time": 7.798, "note_off_time": 8.008}, {"pitch": 60, "velocity": 82, "note_on_time": 8.223, "note_off_time": 8.448}, {"pitch": 62, "velocity": 89, "note_on_time": 8.652, "note_off_time": 9.18}, {"pitch": 60, "velocity": 86, "note_on_time": 10.014, "note_off_time": 10.224}, {"pitch": 62, "velocity": 89, "note_on_time": 10.46, "note_off_time": 10.689}, {"pitch": 60, "velocity": 92, "note_on_time": 10.833, "note_off_time": 11.068}, {"pitch": 62, "velocity": 90, "note_on_time": 11.329, "note_off_time": 11.535}, {"pitch": 62, "velocity": 93, "note_on_time": 11.776, "note_off_time": 11.989}, {"pitch": 60, "velocity": 95, "note_on_time": 12.176, "note_off_time": 12.376}, {"pitch": 62, "velocity": 92, "note_on_time": 12.594, "note_off_time": 13.043}, {"pitch": 62, "velocity": 95, "note_on_time": 13.45, "note_off_time": 13.602}, {"pitch": 62, "velocity": 97, "note_on_time": 13.817, "note_off_time": 13.942}, {"pitch": 62, "velocity": 88, "note_on_time": 14.207, "note_off_time": 14.33}]</notes><guidance name="Guidance Mode">None</guidance><error name="Error value">0.0747272727272727</error></trial><trial trial_no="2" timestamp="2022_12_22-13_39_23"><notes name="Played Notes">[{"pitch": 60, "velocity": 88, "note_on_time": 1.6, "note_off_time": 1.817}, {"pitch": 62, "velocity": 99, "note_on_time": 2.06, "note_off_time": 2.684}, {"pitch": 64, "velocity": 95, "note_on_time": 2.96, "note_off_time": 3.225}, {"pitch": 60, "velocity": 97, "note_on_time": 3.381, "note_off_time": 3.556}, {"pitch": 60, "velocity": 92, "note_on_time": 3.764, "note_off_time": 3.973}, {"pitch": 64, "velocity": 86, "note_on_time": 4.167, "note_off_time": 4.339}, {"pitch": 64, "velocity": 90, "note_on_time": 4.553, "note_off_time": 4.705}, {"pitch": 64, "velocity": 91, "note_on_time": 4.927, "note_off_time": 5.063}, {"pitch": 64, "velocity": 93, "note_on_time": 5.312, "note_off_time": 5.458}, {"pitch": 64, "velocity": 94, "note_on_time": 5.705, "note_off_time": 5.874}, {"pitch": 60, "velocity": 89, "note_on_time": 6.135, "note_off_time": 6.32}, {"pitch": 64, "velocity": 94, "note_on_time": 6.551, "note_off_time": 6.944}, {"pitch": 64, "velocity": 101, "note_on_time": 7.261, "note_off_time": 7.475}, {"pitch": 60, "velocity": 89, "note_on_time": 7.885, "note_off_time": 8.095}, {"pitch": 62, "velocity": 88, "note_on_time": 8.317, "note_off_time": 8.788}, {"pitch": 60, "velocity": 70, "note_on_time": 9.695, "note_off_time": 9.904}, {"pitch": 62, "velocity": 90, "note_on_time": 10.12, "note_off_time": 10.306}, {"pitch": 60, "velocity": 92, "note_on_time": 10.493, "note_off_time": 10.705}, {"pitch": 62, "velocity": 81, "note_on_time": 10.946, "note_off_time": 11.111}, {"pitch": 62, "velocity": 88, "note_on_time": 11.363, "note_off_time": 11.534}, {"pitch": 60, "velocity": 91, "note_on_time": 11.729, "note_off_time": 11.883}, {"pitch": 62, "velocity": 86, "note_on_time": 12.176, "note_off_time": 12.62}, {"pitch": 64, "velocity": 88, "note_on_time": 13.432, "note_off_time": 13.539}, {"pitch": 62, "velocity": 66, "note_on_time": 13.488, "note_off_time": 13.645}, {"pitch": 62, "velocity": 73, "note_on_time": 13.779, "note_off_time": 13.895}, {"pitch": 62, "velocity": 94, "note_on_time": 14.17, "note_off_time": 14.291}]</notes><guidance name="Guidance Mode">None</guidance><error name="Error value">0.21199999999999916</error></trial><trial trial_no="3" timestamp="2022_12_22-13_39_50"><notes name="Played Notes">[{"pitch": 60, "velocity": 92, "note_on_time": 1.563, "note_off_time": 1.771}, {"pitch": 62, "velocity": 98, "note_on_time": 2.005, "note_off_time": 2.522}, {"pitch": 64, "velocity": 94, "note_on_time": 3.217, "note_off_time": 3.445}, {"pitch": 64, "velocity": 71, "note_on_time": 3.769, "note_off_time": 3.853}, {"pitch": 62, "velocity": 86, "note_on_time": 3.853, "note_off_time": 4.101}, {"pitch": 60, "velocity": 80, "note_on_time": 4.241, "note_off_time": 4.447}, {"pitch": 62, "velocity": 79, "note_on_time": 4.699, "note_off_time": 4.828}, {"pitch": 64, "velocity": 81, "note_on_time": 4.964, "note_off_time": 5.115}, {"pitch": 64, "velocity": 91, "note_on_time": 5.297, "note_off_time": 5.429}, {"pitch": 64, "velocity": 87, "note_on_time": 5.628, "note_off_time": 5.737}, {"pitch": 64, "velocity": 84, "note_on_time": 5.958, "note_off_time": 6.066}, {"pitch": 64, "velocity": 83, "note_on_time": 6.279, "note_off_time": 6.427}, {"pitch": 60, "velocity": 94, "note_on_time": 6.621, "note_off_time": 6.758}, {"pitch": 64, "velocity": 84, "note_on_time": 6.989, "note_off_time": 7.44}, {"pitch": 64, "velocity": 90, "note_on_time": 7.713, "note_off_time": 7.875}, {"pitch": 60, "velocity": 92, "note_on_time": 8.024, "note_off_time": 8.165}, {"pitch": 62, "velocity": 89, "note_on_time": 8.392, "note_off_time": 8.893}, {"pitch": 60, "velocity": 98, "note_on_time": 9.353, "note_off_time": 9.506}, {"pitch": 62, "velocity": 89, "note_on_time": 9.742, "note_off_time": 9.953}, {"pitch": 60, "velocity": 84, "note_on_time": 10.118, "note_off_time": 10.322}, {"pitch": 62, "velocity": 82, "note_on_time": 10.53, "note_off_time": 10.692}, {"pitch": 62, "velocity": 88, "note_on_time": 10.908, "note_off_time": 11.089}, {"pitch": 60, "velocity": 80, "note_on_time": 11.247, "note_off_time": 11.391}, {"pitch": 62, "velocity": 93, "note_on_time": 11.621, "note_off_time": 12.133}, {"pitch": 62, "velocity": 85, "note_on_time": 12.337, "note_off_time": 12.476}, {"pitch": 62, "velocity": 89, "note_on_time": 12.713, "note_off_time": 12.827}, {"pitch": 62, "velocity": 96, "note_on_time": 13.098, "note_off_time": 13.21}]</notes><guidance name="Guidance Mode">None</guidance><error name="Error value">0.5050454545454545</error></trial><trial trial_no="4" timestamp="2022_12_22-13_40_19"><notes name="Played Notes">[{"pitch": 60, "velocity": 95, "note_on_time": 1.664, "note_off_time": 1.875}, {"pitch": 62, "velocity": 100, "note_on_time": 2.078, "note_off_time": 2.685}, {"pitch": 64, "velocity": 95, "note_on_time": 3.01, "note_off_time": 3.235}, {"pitch": 60, "velocity": 94, "note_on_time": 3.411, "note_off_time": 3.585}, {"pitch": 60, "velocity": 97, "note_on_time": 3.8, "note_off_time": 3.998}, {"pitch": 64, "velocity": 88, "note_on_time": 4.168, "note_off_time": 4.359}, {"pitch": 64, "velocity": 90, "note_on_time": 4.566, "note_off_time": 4.746}, {"pitch": 64, "velocity": 84, "note_on_time": 4.954, "note_off_time": 5.115}, {"pitch": 64, "velocity": 93, "note_on_time": 5.39, "note_off_time": 5.574}, {"pitch": 64, "velocity": 75, "note_on_time": 5.807, "note_off_time": 6.009}, {"pitch": 60, "velocity": 91, "note_on_time": 6.191, "note_off_time": 6.41}, {"pitch": 64, "velocity": 82, "note_on_time": 6.605, "note_off_time": 6.839}, {"pitch": 64, "velocity": 91, "note_on_time": 7.069, "note_off_time": 7.622}, {"pitch": 60, "velocity": 88, "note_on_time": 7.782, "note_off_time": 8.001}, {"pitch": 62, "velocity": 85, "note_on_time": 8.199, "note_off_time": 8.747}, {"pitch": 60, "velocity": 93, "note_on_time": 8.931, "note_off_time": 9.119}, {"pitch": 62, "velocity": 85, "note_on_time": 9.311, "note_off_time": 9.507}, {"pitch": 60, "velocity": 85, "note_on_time": 9.853, "note_off_time": 10.072}, {"pitch": 62, "velocity": 83, "note_on_time": 10.24, "note_off_time": 10.426}, {"pitch": 62, "velocity": 94, "note_on_time": 10.64, "note_off_time": 10.834}, {"pitch": 60, "velocity": 87, "note_on_time": 11.003, "note_off_time": 11.209}, {"pitch": 62, "velocity": 91, "note_on_time": 11.412, "note_off_time": 12.056}, {"pitch": 62, "velocity": 91, "note_on_time": 12.311, "note_off_time": 12.453}, {"pitch": 62, "velocity": 90, "note_on_time": 12.66, "note_off_time": 12.789}, {"pitch": 62, "velocity": 96, "note_on_time": 13.019, "note_off_time": 13.149}]</notes><guidance name="Guidance Mode">None</guidance><error name="Error value">0.11068181818181845</error></trial><trial trial_no="5" timestamp="2022_12_22-13_40_43"><notes name="Played Notes">[{"pitch": 60, "velocity": 95, "note_on_time": 1.607, "note_off_time": 1.802}, {"pitch": 62, "velocity": 94, "note_on_time": 2.057, "note_off_time": 2.633}, {"pitch": 64, "velocity": 95, "note_on_time": 2.895, "note_off_time": 3.112}, {"pitch": 60, "velocity": 98, "note_on_time": 3.277, "note_off_time": 3.49}, {"pitch": 60, "velocity": 102, "note_on_time": 3.684, "note_off_time": 3.875}, {"pitch": 62, "velocity": 76, "note_on_time": 4.069, "note_off_time": 4.177}, {"pitch": 64, "velocity": 64, "note_on_time": 4.062, "note_off_time": 4.276}, {"pitch": 64, "velocity": 98, "note_on_time": 4.435, "note_off_time": 4.624}, {"pitch": 64, "velocity": 93, "note_on_time": 4.848, "note_off_time": 5.026}, {"pitch": 64, "velocity": 93, "note_on_time": 5.263, "note_off_time": 5.404}, {"pitch": 64, "velocity": 95, "note_on_time": 5.665, "note_off_time": 5.868}, {"pitch": 60, "velocity": 91, "note_on_time": 6.06, "note_off_time": 6.219}, {"pitch": 64, "velocity": 88, "note_on_time": 6.488, "note_off_time": 7.001}, {"pitch": 64, "velocity": 95, "note_on_time": 7.297, "note_off_time": 7.51}, {"pitch": 60, "velocity": 98, "note_on_time": 7.761, "note_off_time": 7.962}, {"pitch": 62, "velocity": 92, "note_on_time": 8.173, "note_off_time": 8.842}, {"pitch": 60, "velocity": 85, "note_on_time": 9.304, "note_off_time": 9.528}, {"pitch": 62, "velocity": 90, "note_on_time": 9.736, "note_off_time": 9.991}, {"pitch": 60, "velocity": 92, "note_on_time": 10.146, "note_off_time": 10.384}, {"pitch": 62, "velocity": 90, "note_on_time": 10.592, "note_off_time": 10.787}, {"pitch": 62, "velocity": 94, "note_on_time": 10.998, "note_off_time": 11.198}, {"pitch": 60, "velocity": 93, "note_on_time": 11.386, "note_off_time": 11.545}, {"pitch": 62, "velocity": 80, "note_on_time": 11.808, "note_off_time": 12.401}, {"pitch": 62, "velocity": 87, "note_on_time": 12.722, "note_off_time": 12.855}, {"pitch": 62, "velocity": 87, "note_on_time": 13.107, "note_off_time": 13.261}, {"pitch": 62, "velocity": 88, "note_on_time": 13.519, "note_off_time": 13.657}]</notes><guidance name="Guidance Mode">None</guidance><error name="Error value">0.20890909090909066</error></trial></trials></MIDI>