<MIDI midiNo="2022_08_17-14_19_37"><target_notes><notes name="Note List">[{"pitch": 42, "velocity": 80, "note_on_time": 0.004, "note_off_time": 0.371}, {"pitch": 42, "velocity": 80, "note_on_time": 0.371, "note_off_time": 0.744}, {"pitch": 42, "velocity": 80, "note_on_time": 0.745, "note_off_time": 1.117}, {"pitch": 42, "velocity": 80, "note_on_time": 1.117, "note_off_time": 1.49}, {"pitch": 64, "velocity": 80, "note_on_time": 1.49, "note_off_time": 1.865}, {"pitch": 42, "velocity": 80, "note_on_time": 1.49, "note_off_time": 1.866}, {"pitch": 62, "velocity": 80, "note_on_time": 1.865, "note_off_time": 2.238}, {"pitch": 42, "velocity": 80, "note_on_time": 1.866, "note_off_time": 2.239}, {"pitch": 65, "velocity": 80, "note_on_time": 2.238, "note_off_time": 2.613}, {"pitch": 42, "velocity": 80, "note_on_time": 2.239, "note_off_time": 2.613}, {"pitch": 64, "velocity": 80, "note_on_time": 2.613, "note_off_time": 2.987}, {"pitch": 42, "velocity": 80, "note_on_time": 2.614, "note_off_time": 2.987}, {"pitch": 60, "velocity": 80, "note_on_time": 2.987, "note_off_time": 3.358}, {"pitch": 42, "velocity": 80, "note_on_time": 2.987, "note_off_time": 3.359}, {"pitch": 62, "velocity": 80, "note_on_time": 3.358, "note_off_time": 3.732}, {"pitch": 42, "velocity": 80, "note_on_time": 3.359, "note_off_time": 3.732}, {"pitch": 65, "velocity": 80, "note_on_time": 3.732, "note_off_time": 4.107}, {"pitch": 42, "velocity": 80, "note_on_time": 3.733, "note_off_time": 4.107}, {"pitch": 64, "velocity": 80, "note_on_time": 4.107, "note_off_time": 4.483}, {"pitch": 42, "velocity": 80, "note_on_time": 4.107, "note_off_time": 4.483}, {"pitch": 42, "velocity": 80, "note_on_time": 4.484, "note_off_time": 4.854}, {"pitch": 60, "velocity": 80, "note_on_time": 4.483, "note_off_time": 5.23}, {"pitch": 42, "velocity": 80, "note_on_time": 4.854, "note_off_time": 5.23}, {"pitch": 62, "velocity": 80, "note_on_time": 5.23, "note_off_time": 5.606}, {"pitch": 42, "velocity": 80, "note_on_time": 5.23, "note_off_time": 5.606}, {"pitch": 64, "velocity": 80, "note_on_time": 5.606, "note_off_time": 5.98}, {"pitch": 42, "velocity": 80, "note_on_time": 5.606, "note_off_time": 5.98}, {"pitch": 67, "velocity": 80, "note_on_time": 5.98, "note_off_time": 6.354}, {"pitch": 42, "velocity": 80, "note_on_time": 5.98, "note_off_time": 6.354}, {"pitch": 64, "velocity": 80, "note_on_time": 6.354, "note_off_time": 6.727}, {"pitch": 42, "velocity": 80, "note_on_time": 6.354, "note_off_time": 6.728}, {"pitch": 64, "velocity": 80, "note_on_time": 6.727, "note_off_time": 7.101}, {"pitch": 42, "velocity": 80, "note_on_time": 6.728, "note_off_time": 7.101}, {"pitch": 60, "velocity": 80, "note_on_time": 7.101, "note_off_time": 7.477}, {"pitch": 42, "velocity": 80, "note_on_time": 7.102, "note_off_time": 7.477}, {"pitch": 64, "velocity": 80, "note_on_time": 7.477, "note_off_time": 7.851}, {"pitch": 42, "velocity": 80, "note_on_time": 7.477, "note_off_time": 7.852}, {"pitch": 67, "velocity": 80, "note_on_time": 7.851, "note_off_time": 8.224}, {"pitch": 42, "velocity": 80, "note_on_time": 7.852, "note_off_time": 8.224}, {"pitch": 62, "velocity": 80, "note_on_time": 8.224, "note_off_time": 8.599}, {"pitch": 42, "velocity": 80, "note_on_time": 8.224, "note_off_time": 8.599}, {"pitch": 62, "velocity": 80, "note_on_time": 8.599, "note_off_time": 8.974}, {"pitch": 42, "velocity": 80, "note_on_time": 8.599, "note_off_time": 8.975}, {"pitch": 67, "velocity": 80, "note_on_time": 8.974, "note_off_time": 9.352}, {"pitch": 42, "velocity": 80, "note_on_time": 8.975, "note_off_time": 9.352}, {"pitch": 65, "velocity": 80, "note_on_time": 9.352, "note_off_time": 9.724}, {"pitch": 42, "velocity": 80, "note_on_time": 9.352, "note_off_time": 9.724}, {"pitch": 64, "velocity": 80, "note_on_time": 9.724, "note_off_time": 10.097}, {"pitch": 42, "velocity": 80, "note_on_time": 9.725, "note_off_time": 10.097}, {"pitch": 64, "velocity": 80, "note_on_time": 10.097, "note_off_time": 10.472}, {"pitch": 42, "velocity": 80, "note_on_time": 10.098, "note_off_time": 10.472}, {"pitch": 42, "velocity": 80, "note_on_time": 10.472, "note_off_time": 10.846}, {"pitch": 67, "velocity": 80, "note_on_time": 10.472, "note_off_time": 11.221}, {"pitch": 42, "velocity": 80, "note_on_time": 10.846, "note_off_time": 11.221}, {"pitch": 67, "velocity": 80, "note_on_time": 11.221, "note_off_time": 11.596}, {"pitch": 42, "velocity": 80, "note_on_time": 11.221, "note_off_time": 11.597}, {"pitch": 65, "velocity": 80, "note_on_time": 11.596, "note_off_time": 11.971}, {"pitch": 42, "velocity": 80, "note_on_time": 11.597, "note_off_time": 11.971}, {"pitch": 42, "velocity": 80, "note_on_time": 11.971, "note_off_time": 12.344}, {"pitch": 65, "velocity": 80, "note_on_time": 12.344, "note_off_time": 12.718}, {"pitch": 42, "velocity": 80, "note_on_time": 12.344, "note_off_time": 12.718}, {"pitch": 65, "velocity": 80, "note_on_time": 12.718, "note_off_time": 13.092}, {"pitch": 42, "velocity": 80, "note_on_time": 12.718, "note_off_time": 13.092}, {"pitch": 65, "velocity": 80, "note_on_time": 13.092, "note_off_time": 13.467}, {"pitch": 42, "velocity": 80, "note_on_time": 13.093, "note_off_time": 13.467}]</notes><options name="Option List">((4, 4), [0.5, 0.25], 3, 8, &lt;NoteRangePerHand.C_TO_G: 6&gt;, &lt;NoteRangePerHand.ONE_NOTE: 2&gt;, False, True, True, '166')</options></target_notes><trials><trial trial_no="1" timestamp="2022_08_17-14_19_21"><notes name="Played Notes">[{"pitch": 64, "velocity": 62, "note_on_time": 1.53, "note_off_time": 1.913}, {"pitch": 62, "velocity": 68, "note_on_time": 1.912, "note_off_time": 2.269}, {"pitch": 65, "velocity": 66, "note_on_time": 2.29, "note_off_time": 2.638}, {"pitch": 64, "velocity": 68, "note_on_time": 2.64, "note_off_time": 2.996}, {"pitch": 60, "velocity": 67, "note_on_time": 3.004, "note_off_time": 3.369}, {"pitch": 62, "velocity": 70, "note_on_time": 3.37, "note_off_time": 3.838}, {"pitch": 65, "velocity": 54, "note_on_time": 3.81, "note_off_time": 4.131}, {"pitch": 64, "velocity": 68, "note_on_time": 4.116, "note_off_time": 4.514}, {"pitch": 60, "velocity": 61, "note_on_time": 4.514, "note_off_time": 5.244}, {"pitch": 62, "velocity": 70, "note_on_time": 5.225, "note_off_time": 5.606}, {"pitch": 64, "velocity": 62, "note_on_time": 5.595, "note_off_time": 5.973}, {"pitch": 67, "velocity": 70, "note_on_time": 6.027, "note_off_time": 6.414}, {"pitch": 64, "velocity": 67, "note_on_time": 6.373, "note_off_time": 6.71}, {"pitch": 64, "velocity": 68, "note_on_time": 6.82, "note_off_time": 7.173}, {"pitch": 60, "velocity": 71, "note_on_time": 7.165, "note_off_time": 7.495}, {"pitch": 64, "velocity": 74, "note_on_time": 7.504, "note_off_time": 7.894}, {"pitch": 67, "velocity": 66, "note_on_time": 7.896, "note_off_time": 8.307}, {"pitch": 62, "velocity": 65, "note_on_time": 8.265, "note_off_time": 8.455}, {"pitch": 62, "velocity": 61, "note_on_time": 8.685, "note_off_time": 9.208}, {"pitch": 67, "velocity": 55, "note_on_time": 9.234, "note_off_time": 9.602}, {"pitch": 64, "velocity": 68, "note_on_time": 9.576, "note_off_time": 9.978}, {"pitch": 64, "velocity": 87, "note_on_time": 10.291, "note_off_time": 10.521}, {"pitch": 64, "velocity": 78, "note_on_time": 10.757, "note_off_time": 11.221}, {"pitch": 67, "velocity": 70, "note_on_time": 11.244, "note_off_time": 11.892}, {"pitch": 67, "velocity": 71, "note_on_time": 12.476, "note_off_time": 12.925}, {"pitch": 65, "velocity": 62, "note_on_time": 12.919, "note_off_time": 13.4}]</notes><guidance name="Guidance Mode">None</guidance><error name="Error value">0.31796576923076925</error></trial><trial trial_no="2" timestamp="2022_08_17-14_20_10"><notes name="Played Notes">[{"pitch": 64, "velocity": 65, "note_on_time": 1.491, "note_off_time": 1.852}, {"pitch": 62, "velocity": 61, "note_on_time": 1.868, "note_off_time": 2.204}, {"pitch": 65, "velocity": 79, "note_on_time": 2.214, "note_off_time": 2.606}, {"pitch": 64, "velocity": 69, "note_on_time": 2.578, "note_off_time": 2.941}, {"pitch": 60, "velocity": 82, "note_on_time": 2.959, "note_off_time": 3.314}, {"pitch": 62, "velocity": 66, "note_on_time": 3.314, "note_off_time": 3.679}, {"pitch": 64, "velocity": 59, "note_on_time": 3.662, "note_off_time": 4.032}, {"pitch": 65, "velocity": 66, "note_on_time": 4.047, "note_off_time": 4.441}, {"pitch": 64, "velocity": 80, "note_on_time": 4.423, "note_off_time": 4.788}, {"pitch": 60, "velocity": 65, "note_on_time": 4.79, "note_off_time": 5.495}, {"pitch": 62, "velocity": 66, "note_on_time": 5.655, "note_off_time": 6.023}, {"pitch": 64, "velocity": 71, "note_on_time": 6.014, "note_off_time": 6.357}, {"pitch": 67, "velocity": 81, "note_on_time": 6.375, "note_off_time": 6.819}, {"pitch": 64, "velocity": 80, "note_on_time": 7.081, "note_off_time": 7.204}, {"pitch": 64, "velocity": 75, "note_on_time": 7.448, "note_off_time": 7.827}, {"pitch": 60, "velocity": 77, "note_on_time": 7.849, "note_off_time": 8.184}, {"pitch": 64, "velocity": 68, "note_on_time": 8.197, "note_off_time": 8.588}, {"pitch": 67, "velocity": 76, "note_on_time": 8.592, "note_off_time": 9.007}, {"pitch": 62, "velocity": 66, "note_on_time": 8.97, "note_off_time": 9.109}, {"pitch": 62, "velocity": 78, "note_on_time": 9.337, "note_off_time": 9.665}, {"pitch": 67, "velocity": 63, "note_on_time": 9.715, "note_off_time": 10.172}, {"pitch": 67, "velocity": 39, "note_on_time": 10.278, "note_off_time": 10.341}, {"pitch": 65, "velocity": 78, "note_on_time": 10.312, "note_off_time": 10.659}, {"pitch": 64, "velocity": 61, "note_on_time": 10.66, "note_off_time": 10.791}, {"pitch": 64, "velocity": 73, "note_on_time": 11.064, "note_off_time": 11.144}, {"pitch": 65, "velocity": 68, "note_on_time": 11.455, "note_off_time": 12.111}, {"pitch": 65, "velocity": 84, "note_on_time": 12.35, "note_off_time": 12.46}, {"pitch": 64, "velocity": 79, "note_on_time": 12.858, "note_off_time": 13.251}]</notes><guidance name="Guidance Mode">None</guidance><error name="Error value">0.8397776923076923</error></trial><trial trial_no="3" timestamp="2022_08_17-14_20_48"><notes name="Played Notes">[{"pitch": 64, "velocity": 46, "note_on_time": 1.533, "note_off_time": 1.871}, {"pitch": 62, "velocity": 64, "note_on_time": 1.896, "note_off_time": 2.229}, {"pitch": 65, "velocity": 71, "note_on_time": 2.251, "note_off_time": 2.616}, {"pitch": 64, "velocity": 71, "note_on_time": 2.6, "note_off_time": 2.986}, {"pitch": 60, "velocity": 69, "note_on_time": 3.002, "note_off_time": 3.385}, {"pitch": 62, "velocity": 60, "note_on_time": 3.384, "note_off_time": 3.735}, {"pitch": 67, "velocity": 46, "note_on_time": 3.735, "note_off_time": 4.155}, {"pitch": 64, "velocity": 64, "note_on_time": 4.129, "note_off_time": 4.531}, {"pitch": 60, "velocity": 68, "note_on_time": 4.567, "note_off_time": 5.382}, {"pitch": 62, "velocity": 81, "note_on_time": 5.605, "note_off_time": 5.959}, {"pitch": 64, "velocity": 55, "note_on_time": 5.975, "note_off_time": 6.306}, {"pitch": 67, "velocity": 67, "note_on_time": 6.332, "note_off_time": 6.725}, {"pitch": 64, "velocity": 68, "note_on_time": 6.704, "note_off_time": 6.826}, {"pitch": 64, "velocity": 75, "note_on_time": 7.084, "note_off_time": 7.423}, {"pitch": 60, "velocity": 76, "note_on_time": 7.449, "note_off_time": 7.816}, {"pitch": 64, "velocity": 73, "note_on_time": 7.824, "note_off_time": 8.186}, {"pitch": 67, "velocity": 80, "note_on_time": 8.2, "note_off_time": 8.633}, {"pitch": 62, "velocity": 79, "note_on_time": 8.609, "note_off_time": 8.661}, {"pitch": 62, "velocity": 64, "note_on_time": 8.977, "note_off_time": 9.348}, {"pitch": 67, "velocity": 63, "note_on_time": 9.371, "note_off_time": 9.791}, {"pitch": 65, "velocity": 83, "note_on_time": 9.747, "note_off_time": 10.105}, {"pitch": 64, "velocity": 63, "note_on_time": 10.094, "note_off_time": 10.216}, {"pitch": 64, "velocity": 73, "note_on_time": 10.462, "note_off_time": 10.659}, {"pitch": 65, "velocity": 67, "note_on_time": 10.825, "note_off_time": 10.912}, {"pitch": 67, "velocity": 68, "note_on_time": 10.937, "note_off_time": 11.446}, {"pitch": 65, "velocity": 67, "note_on_time": 11.573, "note_off_time": 12.093}, {"pitch": 64, "velocity": 41, "note_on_time": 12.594, "note_off_time": 12.715}]</notes><guidance name="Guidance Mode">None</guidance><error name="Error value">0.28161942307692317</error></trial></trials></MIDI>