<MIDI midiNo="2022_11_21-18_16_52"><target_notes><notes name="Note List">[{"pitch": 42, "velocity": 80, "note_on_time": 0.004, "note_off_time": 0.347}, {"pitch": 42, "velocity": 80, "note_on_time": 0.347, "note_off_time": 0.689}, {"pitch": 42, "velocity": 80, "note_on_time": 0.689, "note_off_time": 1.032}, {"pitch": 42, "velocity": 80, "note_on_time": 1.032, "note_off_time": 1.376}, {"pitch": 64, "velocity": 80, "note_on_time": 1.376, "note_off_time": 1.719}, {"pitch": 42, "velocity": 80, "note_on_time": 1.377, "note_off_time": 1.719}, {"pitch": 64, "velocity": 80, "note_on_time": 1.719, "note_off_time": 2.064}, {"pitch": 42, "velocity": 80, "note_on_time": 1.72, "note_off_time": 2.064}, {"pitch": 60, "velocity": 80, "note_on_time": 2.064, "note_off_time": 2.408}, {"pitch": 42, "velocity": 80, "note_on_time": 2.064, "note_off_time": 2.408}, {"pitch": 65, "velocity": 80, "note_on_time": 2.408, "note_off_time": 2.75}, {"pitch": 42, "velocity": 80, "note_on_time": 2.408, "note_off_time": 2.751}, {"pitch": 42, "velocity": 80, "note_on_time": 2.751, "note_off_time": 3.091}, {"pitch": 64, "velocity": 80, "note_on_time": 2.75, "note_off_time": 3.433}, {"pitch": 42, "velocity": 80, "note_on_time": 3.092, "note_off_time": 3.434}, {"pitch": 42, "velocity": 80, "note_on_time": 3.434, "note_off_time": 3.774}, {"pitch": 42, "velocity": 80, "note_on_time": 3.774, "note_off_time": 4.115}, {"pitch": 67, "velocity": 80, "note_on_time": 4.115, "note_off_time": 4.46}, {"pitch": 42, "velocity": 80, "note_on_time": 4.115, "note_off_time": 4.461}, {"pitch": 65, "velocity": 80, "note_on_time": 4.46, "note_off_time": 4.803}, {"pitch": 42, "velocity": 80, "note_on_time": 4.461, "note_off_time": 4.804}, {"pitch": 64, "velocity": 80, "note_on_time": 4.803, "note_off_time": 5.144}, {"pitch": 42, "velocity": 80, "note_on_time": 4.804, "note_off_time": 5.145}, {"pitch": 60, "velocity": 80, "note_on_time": 5.144, "note_off_time": 5.486}, {"pitch": 42, "velocity": 80, "note_on_time": 5.145, "note_off_time": 5.486}, {"pitch": 67, "velocity": 80, "note_on_time": 5.486, "note_off_time": 5.827}, {"pitch": 42, "velocity": 80, "note_on_time": 5.486, "note_off_time": 5.828}, {"pitch": 42, "velocity": 80, "note_on_time": 5.828, "note_off_time": 6.172}, {"pitch": 42, "velocity": 80, "note_on_time": 6.172, "note_off_time": 6.514}, {"pitch": 42, "velocity": 80, "note_on_time": 6.515, "note_off_time": 6.857}, {"pitch": 65, "velocity": 80, "note_on_time": 6.856, "note_off_time": 7.199}, {"pitch": 42, "velocity": 80, "note_on_time": 6.857, "note_off_time": 7.199}, {"pitch": 60, "velocity": 80, "note_on_time": 7.199, "note_off_time": 7.541}, {"pitch": 42, "velocity": 80, "note_on_time": 7.199, "note_off_time": 7.542}, {"pitch": 65, "velocity": 80, "note_on_time": 7.541, "note_off_time": 7.883}, {"pitch": 42, "velocity": 80, "note_on_time": 7.542, "note_off_time": 7.883}, {"pitch": 64, "velocity": 80, "note_on_time": 7.883, "note_off_time": 8.214}, {"pitch": 42, "velocity": 80, "note_on_time": 7.884, "note_off_time": 8.214}, {"pitch": 64, "velocity": 80, "note_on_time": 8.214, "note_off_time": 8.555}, {"pitch": 42, "velocity": 80, "note_on_time": 8.214, "note_off_time": 8.556}, {"pitch": 62, "velocity": 80, "note_on_time": 8.555, "note_off_time": 8.898}, {"pitch": 42, "velocity": 80, "note_on_time": 8.556, "note_off_time": 8.898}, {"pitch": 62, "velocity": 80, "note_on_time": 8.898, "note_off_time": 9.242}, {"pitch": 42, "velocity": 80, "note_on_time": 8.898, "note_off_time": 9.242}, {"pitch": 60, "velocity": 80, "note_on_time": 9.242, "note_off_time": 9.584}, {"pitch": 42, "velocity": 80, "note_on_time": 9.242, "note_off_time": 9.584}, {"pitch": 42, "velocity": 80, "note_on_time": 9.585, "note_off_time": 9.927}, {"pitch": 67, "velocity": 80, "note_on_time": 9.584, "note_off_time": 10.269}, {"pitch": 42, "velocity": 80, "note_on_time": 9.927, "note_off_time": 10.269}, {"pitch": 42, "velocity": 80, "note_on_time": 10.27, "note_off_time": 10.613}, {"pitch": 42, "velocity": 80, "note_on_time": 10.613, "note_off_time": 10.956}, {"pitch": 42, "velocity": 80, "note_on_time": 10.956, "note_off_time": 11.3}, {"pitch": 67, "velocity": 80, "note_on_time": 11.3, "note_off_time": 11.642}, {"pitch": 42, "velocity": 80, "note_on_time": 11.301, "note_off_time": 11.642}, {"pitch": 67, "velocity": 80, "note_on_time": 11.642, "note_off_time": 11.985}, {"pitch": 42, "velocity": 80, "note_on_time": 11.643, "note_off_time": 11.985}, {"pitch": 67, "velocity": 80, "note_on_time": 11.985, "note_off_time": 12.328}, {"pitch": 42, "velocity": 80, "note_on_time": 11.986, "note_off_time": 12.328}]</notes><options name="Option List">((4, 4), [0.5, 0.25], 3, 8, &lt;NoteRangePerHand.C_TO_G: 6&gt;, &lt;NoteRangePerHand.ONE_NOTE: 2&gt;, False, True, False, 182)</options></target_notes><trials><trial trial_no="1" timestamp="2022_11_21-18_16_38"><notes name="Played Notes">[{"pitch": 64, "velocity": 95, "note_on_time": 1.412, "note_off_time": 1.478}, {"pitch": 64, "velocity": 90, "note_on_time": 1.749, "note_off_time": 2.088}, {"pitch": 60, "velocity": 91, "note_on_time": 2.099, "note_off_time": 2.463}, {"pitch": 65, "velocity": 90, "note_on_time": 2.43, "note_off_time": 2.779}, {"pitch": 64, "velocity": 87, "note_on_time": 2.793, "note_off_time": 3.398}, {"pitch": 67, "velocity": 99, "note_on_time": 4.12, "note_off_time": 4.473}, {"pitch": 65, "velocity": 88, "note_on_time": 4.469, "note_off_time": 4.825}, {"pitch": 64, "velocity": 81, "note_on_time": 4.829, "note_off_time": 5.155}, {"pitch": 60, "velocity": 81, "note_on_time": 5.175, "note_off_time": 5.535}, {"pitch": 67, "velocity": 87, "note_on_time": 5.51, "note_off_time": 5.978}, {"pitch": 65, "velocity": 103, "note_on_time": 6.831, "note_off_time": 7.193}, {"pitch": 60, "velocity": 83, "note_on_time": 7.21, "note_off_time": 7.567}, {"pitch": 65, "velocity": 89, "note_on_time": 7.535, "note_off_time": 7.91}, {"pitch": 64, "velocity": 92, "note_on_time": 7.89, "note_off_time": 7.955}, {"pitch": 64, "velocity": 100, "note_on_time": 8.226, "note_off_time": 8.562}, {"pitch": 62, "velocity": 87, "note_on_time": 8.565, "note_off_time": 8.603}, {"pitch": 62, "velocity": 95, "note_on_time": 8.908, "note_off_time": 9.248}, {"pitch": 60, "velocity": 92, "note_on_time": 9.246, "note_off_time": 9.603}, {"pitch": 67, "velocity": 94, "note_on_time": 9.573, "note_off_time": 10.19}, {"pitch": 67, "velocity": 102, "note_on_time": 10.61, "note_off_time": 10.673}, {"pitch": 67, "velocity": 102, "note_on_time": 10.935, "note_off_time": 11.002}, {"pitch": 67, "velocity": 101, "note_on_time": 11.273, "note_off_time": 11.34}]</notes><guidance name="Guidance Mode">None</guidance><error name="Error value">0.0467342105263158</error></trial></trials></MIDI>