<MIDI midiNo="2022_12_22-13_37_24"><target_notes><notes name="Note List">[{"pitch": 42, "velocity": 80, "note_on_time": 0.004, "note_off_time": 0.298}, {"pitch": 42, "velocity": 80, "note_on_time": 0.298, "note_off_time": 0.592}, {"pitch": 42, "velocity": 80, "note_on_time": 0.592, "note_off_time": 0.888}, {"pitch": 42, "velocity": 80, "note_on_time": 0.888, "note_off_time": 1.182}, {"pitch": 62, "velocity": 80, "note_on_time": 1.182, "note_off_time": 1.475}, {"pitch": 42, "velocity": 80, "note_on_time": 1.182, "note_off_time": 1.476}, {"pitch": 62, "velocity": 80, "note_on_time": 1.475, "note_off_time": 1.77}, {"pitch": 42, "velocity": 80, "note_on_time": 1.476, "note_off_time": 1.771}, {"pitch": 64, "velocity": 80, "note_on_time": 1.77, "note_off_time": 2.066}, {"pitch": 42, "velocity": 80, "note_on_time": 1.771, "note_off_time": 2.066}, {"pitch": 62, "velocity": 80, "note_on_time": 2.066, "note_off_time": 2.347}, {"pitch": 42, "velocity": 80, "note_on_time": 2.067, "note_off_time": 2.348}, {"pitch": 42, "velocity": 80, "note_on_time": 2.348, "note_off_time": 2.644}, {"pitch": 60, "velocity": 80, "note_on_time": 2.347, "note_off_time": 2.924}, {"pitch": 42, "velocity": 80, "note_on_time": 2.644, "note_off_time": 2.925}, {"pitch": 42, "velocity": 80, "note_on_time": 2.925, "note_off_time": 3.206}, {"pitch": 64, "velocity": 80, "note_on_time": 3.206, "note_off_time": 3.487}, {"pitch": 42, "velocity": 80, "note_on_time": 3.206, "note_off_time": 3.487}, {"pitch": 60, "velocity": 80, "note_on_time": 3.487, "note_off_time": 3.783}, {"pitch": 42, "velocity": 80, "note_on_time": 3.487, "note_off_time": 3.783}, {"pitch": 60, "velocity": 80, "note_on_time": 3.783, "note_off_time": 4.079}, {"pitch": 42, "velocity": 80, "note_on_time": 3.783, "note_off_time": 4.079}, {"pitch": 62, "velocity": 80, "note_on_time": 4.079, "note_off_time": 4.373}, {"pitch": 42, "velocity": 80, "note_on_time": 4.08, "note_off_time": 4.373}, {"pitch": 60, "velocity": 80, "note_on_time": 4.373, "note_off_time": 4.654}, {"pitch": 42, "velocity": 80, "note_on_time": 4.373, "note_off_time": 4.655}, {"pitch": 62, "velocity": 80, "note_on_time": 4.654, "note_off_time": 4.95}, {"pitch": 42, "velocity": 80, "note_on_time": 4.655, "note_off_time": 4.95}, {"pitch": 62, "velocity": 80, "note_on_time": 4.95, "note_off_time": 5.231}, {"pitch": 42, "velocity": 80, "note_on_time": 4.951, "note_off_time": 5.231}, {"pitch": 60, "velocity": 80, "note_on_time": 5.231, "note_off_time": 5.526}, {"pitch": 42, "velocity": 80, "note_on_time": 5.232, "note_off_time": 5.526}, {"pitch": 64, "velocity": 80, "note_on_time": 5.526, "note_off_time": 5.819}, {"pitch": 42, "velocity": 80, "note_on_time": 5.526, "note_off_time": 5.819}, {"pitch": 64, "velocity": 80, "note_on_time": 5.819, "note_off_time": 6.103}, {"pitch": 42, "velocity": 80, "note_on_time": 5.82, "note_off_time": 6.103}, {"pitch": 64, "velocity": 80, "note_on_time": 6.103, "note_off_time": 6.399}, {"pitch": 42, "velocity": 80, "note_on_time": 6.103, "note_off_time": 6.399}, {"pitch": 64, "velocity": 80, "note_on_time": 6.399, "note_off_time": 6.693}, {"pitch": 42, "velocity": 80, "note_on_time": 6.4, "note_off_time": 6.693}, {"pitch": 60, "velocity": 80, "note_on_time": 6.693, "note_off_time": 6.974}, {"pitch": 42, "velocity": 80, "note_on_time": 6.693, "note_off_time": 6.974}, {"pitch": 42, "velocity": 80, "note_on_time": 6.974, "note_off_time": 7.269}, {"pitch": 62, "velocity": 80, "note_on_time": 6.974, "note_off_time": 7.564}, {"pitch": 42, "velocity": 80, "note_on_time": 7.27, "note_off_time": 7.564}, {"pitch": 42, "velocity": 80, "note_on_time": 7.564, "note_off_time": 7.858}, {"pitch": 42, "velocity": 80, "note_on_time": 7.858, "note_off_time": 8.14}, {"pitch": 60, "velocity": 80, "note_on_time": 8.14, "note_off_time": 8.421}, {"pitch": 42, "velocity": 80, "note_on_time": 8.141, "note_off_time": 8.422}, {"pitch": 42, "velocity": 80, "note_on_time": 8.422, "note_off_time": 8.716}, {"pitch": 42, "velocity": 80, "note_on_time": 8.717, "note_off_time": 9.011}, {"pitch": 60, "velocity": 80, "note_on_time": 9.011, "note_off_time": 9.307}, {"pitch": 42, "velocity": 80, "note_on_time": 9.012, "note_off_time": 9.307}, {"pitch": 42, "velocity": 80, "note_on_time": 9.307, "note_off_time": 9.602}, {"pitch": 60, "velocity": 80, "note_on_time": 9.602, "note_off_time": 9.882}, {"pitch": 42, "velocity": 80, "note_on_time": 9.602, "note_off_time": 9.883}, {"pitch": 60, "velocity": 80, "note_on_time": 9.882, "note_off_time": 10.163}, {"pitch": 42, "velocity": 80, "note_on_time": 9.883, "note_off_time": 10.164}, {"pitch": 60, "velocity": 80, "note_on_time": 10.163, "note_off_time": 10.457}, {"pitch": 42, "velocity": 80, "note_on_time": 10.164, "note_off_time": 10.457}]</notes><options name="Option List">((4, 4), [0.5, 0.25], 3, 8, &lt;NoteRangePerHand.THREE_NOTES: 4&gt;, &lt;NoteRangePerHand.ONE_NOTE: 2&gt;, False, True, False, 215)</options></target_notes><trials><trial trial_no="1" timestamp="2022_12_22-13_37_12"><notes name="Played Notes">[{"pitch": 62, "velocity": 84, "note_on_time": 1.203, "note_off_time": 1.291}, {"pitch": 62, "velocity": 84, "note_on_time": 1.43, "note_off_time": 1.545}, {"pitch": 64, "velocity": 87, "note_on_time": 1.668, "note_off_time": 1.793}, {"pitch": 62, "velocity": 88, "note_on_time": 1.893, "note_off_time": 2.029}, {"pitch": 60, "velocity": 101, "note_on_time": 2.128, "note_off_time": 2.556}, {"pitch": 64, "velocity": 95, "note_on_time": 2.822, "note_off_time": 2.954}, {"pitch": 60, "velocity": 92, "note_on_time": 3.049, "note_off_time": 3.143}, {"pitch": 60, "velocity": 87, "note_on_time": 3.262, "note_off_time": 3.399}, {"pitch": 62, "velocity": 87, "note_on_time": 3.497, "note_off_time": 3.624}, {"pitch": 60, "velocity": 89, "note_on_time": 3.695, "note_off_time": 3.835}, {"pitch": 62, "velocity": 82, "note_on_time": 3.927, "note_off_time": 4.049}, {"pitch": 62, "velocity": 81, "note_on_time": 4.163, "note_off_time": 4.283}, {"pitch": 60, "velocity": 92, "note_on_time": 4.392, "note_off_time": 4.522}, {"pitch": 64, "velocity": 91, "note_on_time": 4.658, "note_off_time": 4.815}, {"pitch": 64, "velocity": 104, "note_on_time": 5.116, "note_off_time": 5.208}, {"pitch": 64, "velocity": 84, "note_on_time": 5.318, "note_off_time": 5.408}, {"pitch": 64, "velocity": 97, "note_on_time": 5.577, "note_off_time": 5.783}, {"pitch": 60, "velocity": 98, "note_on_time": 6.046, "note_off_time": 6.216}, {"pitch": 62, "velocity": 101, "note_on_time": 6.505, "note_off_time": 6.9}, {"pitch": 60, "velocity": 103, "note_on_time": 7.244, "note_off_time": 7.449}, {"pitch": 60, "velocity": 103, "note_on_time": 7.86, "note_off_time": 8.025}, {"pitch": 60, "velocity": 100, "note_on_time": 8.479, "note_off_time": 8.561}, {"pitch": 60, "velocity": 92, "note_on_time": 8.722, "note_off_time": 8.813}, {"pitch": 60, "velocity": 96, "note_on_time": 8.992, "note_off_time": 9.068}]</notes><guidance name="Guidance Mode">None</guidance><error name="Error value">0.09911661904761876</error></trial></trials></MIDI>