<MIDI midiNo="2022_11_14-18_37_21"><target_notes><notes name="Note List">[{"pitch": 42, "velocity": 80, "note_on_time": 0.004, "note_off_time": 0.231}, {"pitch": 42, "velocity": 80, "note_on_time": 0.231, "note_off_time": 0.453}, {"pitch": 42, "velocity": 80, "note_on_time": 0.453, "note_off_time": 0.672}, {"pitch": 42, "velocity": 80, "note_on_time": 0.672, "note_off_time": 0.888}, {"pitch": 42, "velocity": 80, "note_on_time": 0.888, "note_off_time": 1.105}, {"pitch": 60, "velocity": 80, "note_on_time": 0.888, "note_off_time": 1.322}, {"pitch": 42, "velocity": 80, "note_on_time": 1.105, "note_off_time": 1.322}, {"pitch": 62, "velocity": 80, "note_on_time": 1.322, "note_off_time": 1.544}, {"pitch": 42, "velocity": 80, "note_on_time": 1.322, "note_off_time": 1.544}, {"pitch": 42, "velocity": 80, "note_on_time": 1.544, "note_off_time": 1.763}, {"pitch": 60, "velocity": 80, "note_on_time": 1.763, "note_off_time": 1.978}, {"pitch": 42, "velocity": 80, "note_on_time": 1.763, "note_off_time": 1.978}, {"pitch": 62, "velocity": 80, "note_on_time": 1.978, "note_off_time": 2.195}, {"pitch": 42, "velocity": 80, "note_on_time": 1.978, "note_off_time": 2.195}, {"pitch": 60, "velocity": 80, "note_on_time": 2.195, "note_off_time": 2.413}, {"pitch": 42, "velocity": 80, "note_on_time": 2.196, "note_off_time": 2.413}, {"pitch": 62, "velocity": 80, "note_on_time": 2.413, "note_off_time": 2.631}, {"pitch": 42, "velocity": 80, "note_on_time": 2.413, "note_off_time": 2.631}, {"pitch": 64, "velocity": 80, "note_on_time": 2.631, "note_off_time": 2.849}, {"pitch": 42, "velocity": 80, "note_on_time": 2.631, "note_off_time": 2.849}, {"pitch": 42, "velocity": 80, "note_on_time": 2.849, "note_off_time": 3.067}, {"pitch": 65, "velocity": 80, "note_on_time": 3.067, "note_off_time": 3.285}, {"pitch": 42, "velocity": 80, "note_on_time": 3.067, "note_off_time": 3.285}, {"pitch": 42, "velocity": 80, "note_on_time": 3.285, "note_off_time": 3.501}, {"pitch": 62, "velocity": 80, "note_on_time": 3.501, "note_off_time": 3.721}, {"pitch": 42, "velocity": 80, "note_on_time": 3.501, "note_off_time": 3.721}, {"pitch": 65, "velocity": 80, "note_on_time": 3.721, "note_off_time": 3.939}, {"pitch": 42, "velocity": 80, "note_on_time": 3.721, "note_off_time": 3.939}, {"pitch": 62, "velocity": 80, "note_on_time": 3.939, "note_off_time": 4.155}, {"pitch": 42, "velocity": 80, "note_on_time": 3.939, "note_off_time": 4.155}, {"pitch": 64, "velocity": 80, "note_on_time": 4.155, "note_off_time": 4.373}, {"pitch": 42, "velocity": 80, "note_on_time": 4.155, "note_off_time": 4.373}, {"pitch": 64, "velocity": 80, "note_on_time": 4.373, "note_off_time": 4.591}, {"pitch": 42, "velocity": 80, "note_on_time": 4.373, "note_off_time": 4.591}, {"pitch": 42, "velocity": 80, "note_on_time": 4.591, "note_off_time": 4.808}, {"pitch": 42, "velocity": 80, "note_on_time": 4.808, "note_off_time": 5.027}, {"pitch": 42, "velocity": 80, "note_on_time": 5.027, "note_off_time": 5.245}, {"pitch": 65, "velocity": 80, "note_on_time": 5.245, "note_off_time": 5.465}, {"pitch": 42, "velocity": 80, "note_on_time": 5.245, "note_off_time": 5.465}, {"pitch": 62, "velocity": 80, "note_on_time": 5.465, "note_off_time": 5.684}, {"pitch": 42, "velocity": 80, "note_on_time": 5.465, "note_off_time": 5.684}, {"pitch": 60, "velocity": 80, "note_on_time": 5.684, "note_off_time": 5.901}, {"pitch": 42, "velocity": 80, "note_on_time": 5.684, "note_off_time": 5.901}, {"pitch": 60, "velocity": 80, "note_on_time": 5.901, "note_off_time": 6.119}, {"pitch": 42, "velocity": 80, "note_on_time": 5.901, "note_off_time": 6.119}, {"pitch": 62, "velocity": 80, "note_on_time": 6.119, "note_off_time": 6.337}, {"pitch": 42, "velocity": 80, "note_on_time": 6.12, "note_off_time": 6.337}, {"pitch": 64, "velocity": 80, "note_on_time": 6.337, "note_off_time": 6.555}, {"pitch": 42, "velocity": 80, "note_on_time": 6.337, "note_off_time": 6.555}, {"pitch": 60, "velocity": 80, "note_on_time": 6.555, "note_off_time": 6.774}, {"pitch": 42, "velocity": 80, "note_on_time": 6.555, "note_off_time": 6.774}, {"pitch": 60, "velocity": 80, "note_on_time": 6.774, "note_off_time": 6.993}, {"pitch": 42, "velocity": 80, "note_on_time": 6.774, "note_off_time": 6.993}, {"pitch": 42, "velocity": 80, "note_on_time": 6.993, "note_off_time": 7.21}, {"pitch": 60, "velocity": 80, "note_on_time": 7.21, "note_off_time": 7.427}, {"pitch": 42, "velocity": 80, "note_on_time": 7.211, "note_off_time": 7.427}, {"pitch": 60, "velocity": 80, "note_on_time": 7.427, "note_off_time": 7.646}, {"pitch": 42, "velocity": 80, "note_on_time": 7.427, "note_off_time": 7.646}, {"pitch": 60, "velocity": 80, "note_on_time": 7.646, "note_off_time": 7.863}, {"pitch": 42, "velocity": 80, "note_on_time": 7.646, "note_off_time": 7.863}]</notes><options name="Option List">((4, 4), [0.5, 0.25], 3, 8, &lt;NoteRangePerHand.FOUR_NOTES: 5&gt;, &lt;NoteRangePerHand.ONE_NOTE: 2&gt;, False, True, False, '281')</options></target_notes><trials><trial trial_no="1" timestamp="2022_11_14-18_37_12"><notes name="Played Notes">[{"pitch": 60, "velocity": 91, "note_on_time": 0.967, "note_off_time": 1.454}, {"pitch": 62, "velocity": 85, "note_on_time": 1.444, "note_off_time": 1.806}, {"pitch": 60, "velocity": 91, "note_on_time": 1.92, "note_off_time": 2.175}, {"pitch": 62, "velocity": 83, "note_on_time": 2.151, "note_off_time": 2.372}, {"pitch": 60, "velocity": 77, "note_on_time": 2.379, "note_off_time": 2.602}, {"pitch": 62, "velocity": 80, "note_on_time": 2.605, "note_off_time": 2.89}, {"pitch": 64, "velocity": 84, "note_on_time": 2.868, "note_off_time": 3.125}, {"pitch": 65, "velocity": 87, "note_on_time": 3.351, "note_off_time": 3.628}, {"pitch": 62, "velocity": 79, "note_on_time": 3.811, "note_off_time": 4.04}, {"pitch": 65, "velocity": 77, "note_on_time": 4.032, "note_off_time": 4.276}, {"pitch": 62, "velocity": 76, "note_on_time": 4.284, "note_off_time": 4.553}, {"pitch": 64, "velocity": 74, "note_on_time": 4.535, "note_off_time": 4.733}, {"pitch": 64, "velocity": 82, "note_on_time": 4.818, "note_off_time": 5.152}, {"pitch": 65, "velocity": 90, "note_on_time": 5.4, "note_off_time": 5.663}, {"pitch": 62, "velocity": 78, "note_on_time": 5.671, "note_off_time": 5.975}, {"pitch": 60, "velocity": 88, "note_on_time": 5.948, "note_off_time": 6.077}, {"pitch": 60, "velocity": 90, "note_on_time": 6.216, "note_off_time": 6.468}, {"pitch": 62, "velocity": 75, "note_on_time": 6.464, "note_off_time": 6.72}, {"pitch": 64, "velocity": 78, "note_on_time": 6.723, "note_off_time": 6.945}, {"pitch": 60, "velocity": 89, "note_on_time": 6.964, "note_off_time": 7.075}, {"pitch": 60, "velocity": 94, "note_on_time": 7.227, "note_off_time": 7.365}, {"pitch": 60, "velocity": 90, "note_on_time": 7.698, "note_off_time": 7.805}]</notes><guidance name="Guidance Mode">None</guidance><error name="Error value">0.16505280952380944</error></trial><trial trial_no="2" timestamp="2022_11_14-18_37_47"><notes name="Played Notes">[{"pitch": 60, "velocity": 89, "note_on_time": 0.955, "note_off_time": 1.302}, {"pitch": 62, "velocity": 87, "note_on_time": 1.283, "note_off_time": 1.721}, {"pitch": 60, "velocity": 85, "note_on_time": 2.181, "note_off_time": 2.413}, {"pitch": 62, "velocity": 73, "note_on_time": 2.404, "note_off_time": 2.631}, {"pitch": 60, "velocity": 76, "note_on_time": 2.637, "note_off_time": 2.884}, {"pitch": 62, "velocity": 71, "note_on_time": 2.869, "note_off_time": 3.167}, {"pitch": 64, "velocity": 86, "note_on_time": 3.127, "note_off_time": 3.335}, {"pitch": 65, "velocity": 92, "note_on_time": 3.601, "note_off_time": 3.813}, {"pitch": 62, "velocity": 81, "note_on_time": 4.029, "note_off_time": 4.274}, {"pitch": 65, "velocity": 84, "note_on_time": 4.266, "note_off_time": 4.501}, {"pitch": 62, "velocity": 78, "note_on_time": 4.51, "note_off_time": 4.748}, {"pitch": 64, "velocity": 77, "note_on_time": 4.759, "note_off_time": 4.865}, {"pitch": 64, "velocity": 96, "note_on_time": 5.003, "note_off_time": 5.311}, {"pitch": 65, "velocity": 87, "note_on_time": 5.513, "note_off_time": 5.777}, {"pitch": 62, "velocity": 84, "note_on_time": 5.755, "note_off_time": 6.007}, {"pitch": 60, "velocity": 93, "note_on_time": 5.978, "note_off_time": 6.076}, {"pitch": 60, "velocity": 95, "note_on_time": 6.23, "note_off_time": 6.49}, {"pitch": 62, "velocity": 79, "note_on_time": 6.47, "note_off_time": 6.715}, {"pitch": 64, "velocity": 82, "note_on_time": 6.715, "note_off_time": 6.948}, {"pitch": 60, "velocity": 89, "note_on_time": 6.953, "note_off_time": 7.059}, {"pitch": 60, "velocity": 92, "note_on_time": 7.209, "note_off_time": 7.345}, {"pitch": 60, "velocity": 81, "note_on_time": 7.682, "note_off_time": 7.774}]</notes><guidance name="Guidance Mode">None</guidance><error name="Error value">0.18105719047619043</error></trial><trial trial_no="3" timestamp="2022_11_14-18_38_08"><notes name="Played Notes">[{"pitch": 60, "velocity": 89, "note_on_time": 0.964, "note_off_time": 1.288}, {"pitch": 62, "velocity": 68, "note_on_time": 1.284, "note_off_time": 1.6}, {"pitch": 60, "velocity": 84, "note_on_time": 1.935, "note_off_time": 2.196}, {"pitch": 62, "velocity": 77, "note_on_time": 2.183, "note_off_time": 2.432}, {"pitch": 60, "velocity": 78, "note_on_time": 2.422, "note_off_time": 2.657}, {"pitch": 62, "velocity": 74, "note_on_time": 2.667, "note_off_time": 2.963}, {"pitch": 64, "velocity": 78, "note_on_time": 2.927, "note_off_time": 3.134}, {"pitch": 65, "velocity": 88, "note_on_time": 3.431, "note_off_time": 3.696}, {"pitch": 62, "velocity": 77, "note_on_time": 3.93, "note_off_time": 4.143}, {"pitch": 65, "velocity": 78, "note_on_time": 4.163, "note_off_time": 4.379}, {"pitch": 62, "velocity": 76, "note_on_time": 4.387, "note_off_time": 4.629}, {"pitch": 64, "velocity": 73, "note_on_time": 4.634, "note_off_time": 4.889}, {"pitch": 64, "velocity": 88, "note_on_time": 4.97, "note_off_time": 5.358}, {"pitch": 65, "velocity": 81, "note_on_time": 5.492, "note_off_time": 5.746}, {"pitch": 62, "velocity": 79, "note_on_time": 5.722, "note_off_time": 5.985}, {"pitch": 60, "velocity": 90, "note_on_time": 5.965, "note_off_time": 6.057}, {"pitch": 60, "velocity": 84, "note_on_time": 6.213, "note_off_time": 6.451}, {"pitch": 62, "velocity": 77, "note_on_time": 6.455, "note_off_time": 6.699}, {"pitch": 64, "velocity": 74, "note_on_time": 6.709, "note_off_time": 6.941}, {"pitch": 60, "velocity": 90, "note_on_time": 6.952, "note_off_time": 7.045}, {"pitch": 60, "velocity": 92, "note_on_time": 7.201, "note_off_time": 7.364}, {"pitch": 60, "velocity": 94, "note_on_time": 7.654, "note_off_time": 7.751}]</notes><guidance name="Guidance Mode">None</guidance><error name="Error value">0.18958099999999994</error></trial></trials></MIDI>