<MIDI midiNo="2022_11_14-18_29_48"><target_notes><notes name="Note List">[{"pitch": 42, "velocity": 80, "note_on_time": 0.005, "note_off_time": 0.234}, {"pitch": 42, "velocity": 80, "note_on_time": 0.234, "note_off_time": 0.464}, {"pitch": 42, "velocity": 80, "note_on_time": 0.464, "note_off_time": 0.699}, {"pitch": 42, "velocity": 80, "note_on_time": 0.699, "note_off_time": 0.933}, {"pitch": 42, "velocity": 80, "note_on_time": 0.933, "note_off_time": 1.166}, {"pitch": 60, "velocity": 80, "note_on_time": 0.933, "note_off_time": 1.401}, {"pitch": 42, "velocity": 80, "note_on_time": 1.166, "note_off_time": 1.401}, {"pitch": 42, "velocity": 80, "note_on_time": 1.402, "note_off_time": 1.634}, {"pitch": 42, "velocity": 80, "note_on_time": 1.634, "note_off_time": 1.868}, {"pitch": 60, "velocity": 80, "note_on_time": 1.868, "note_off_time": 2.102}, {"pitch": 42, "velocity": 80, "note_on_time": 1.869, "note_off_time": 2.102}, {"pitch": 65, "velocity": 80, "note_on_time": 2.102, "note_off_time": 2.336}, {"pitch": 42, "velocity": 80, "note_on_time": 2.102, "note_off_time": 2.336}, {"pitch": 64, "velocity": 80, "note_on_time": 2.336, "note_off_time": 2.57}, {"pitch": 42, "velocity": 80, "note_on_time": 2.337, "note_off_time": 2.57}, {"pitch": 62, "velocity": 80, "note_on_time": 2.57, "note_off_time": 2.804}, {"pitch": 42, "velocity": 80, "note_on_time": 2.571, "note_off_time": 2.804}, {"pitch": 65, "velocity": 80, "note_on_time": 2.804, "note_off_time": 3.039}, {"pitch": 42, "velocity": 80, "note_on_time": 2.805, "note_off_time": 3.04}, {"pitch": 60, "velocity": 80, "note_on_time": 3.039, "note_off_time": 3.275}, {"pitch": 42, "velocity": 80, "note_on_time": 3.04, "note_off_time": 3.275}, {"pitch": 42, "velocity": 80, "note_on_time": 3.275, "note_off_time": 3.51}, {"pitch": 60, "velocity": 80, "note_on_time": 3.275, "note_off_time": 3.744}, {"pitch": 42, "velocity": 80, "note_on_time": 3.51, "note_off_time": 3.745}, {"pitch": 65, "velocity": 80, "note_on_time": 3.744, "note_off_time": 3.983}, {"pitch": 42, "velocity": 80, "note_on_time": 3.745, "note_off_time": 3.983}, {"pitch": 65, "velocity": 80, "note_on_time": 3.983, "note_off_time": 4.217}, {"pitch": 42, "velocity": 80, "note_on_time": 3.983, "note_off_time": 4.218}, {"pitch": 60, "velocity": 80, "note_on_time": 4.217, "note_off_time": 4.451}, {"pitch": 42, "velocity": 80, "note_on_time": 4.218, "note_off_time": 4.451}, {"pitch": 64, "velocity": 80, "note_on_time": 4.451, "note_off_time": 4.686}, {"pitch": 42, "velocity": 80, "note_on_time": 4.452, "note_off_time": 4.687}, {"pitch": 42, "velocity": 80, "note_on_time": 4.687, "note_off_time": 4.92}, {"pitch": 64, "velocity": 80, "note_on_time": 4.686, "note_off_time": 5.155}, {"pitch": 42, "velocity": 80, "note_on_time": 4.92, "note_off_time": 5.156}, {"pitch": 65, "velocity": 80, "note_on_time": 5.155, "note_off_time": 5.392}, {"pitch": 42, "velocity": 80, "note_on_time": 5.156, "note_off_time": 5.392}, {"pitch": 62, "velocity": 80, "note_on_time": 5.392, "note_off_time": 5.624}, {"pitch": 42, "velocity": 80, "note_on_time": 5.392, "note_off_time": 5.624}, {"pitch": 42, "velocity": 80, "note_on_time": 5.624, "note_off_time": 5.857}, {"pitch": 64, "velocity": 80, "note_on_time": 5.624, "note_off_time": 6.091}, {"pitch": 42, "velocity": 80, "note_on_time": 5.858, "note_off_time": 6.091}, {"pitch": 42, "velocity": 80, "note_on_time": 6.091, "note_off_time": 6.324}, {"pitch": 42, "velocity": 80, "note_on_time": 6.324, "note_off_time": 6.559}, {"pitch": 42, "velocity": 80, "note_on_time": 6.559, "note_off_time": 6.792}, {"pitch": 62, "velocity": 80, "note_on_time": 6.558, "note_off_time": 7.026}, {"pitch": 42, "velocity": 80, "note_on_time": 6.792, "note_off_time": 7.027}, {"pitch": 42, "velocity": 80, "note_on_time": 7.027, "note_off_time": 7.259}, {"pitch": 42, "velocity": 80, "note_on_time": 7.259, "note_off_time": 7.495}, {"pitch": 42, "velocity": 80, "note_on_time": 7.495, "note_off_time": 7.728}, {"pitch": 62, "velocity": 80, "note_on_time": 7.728, "note_off_time": 7.962}, {"pitch": 42, "velocity": 80, "note_on_time": 7.728, "note_off_time": 7.962}, {"pitch": 62, "velocity": 80, "note_on_time": 7.962, "note_off_time": 8.196}, {"pitch": 42, "velocity": 80, "note_on_time": 7.962, "note_off_time": 8.196}, {"pitch": 62, "velocity": 80, "note_on_time": 8.196, "note_off_time": 8.43}, {"pitch": 42, "velocity": 80, "note_on_time": 8.196, "note_off_time": 8.43}]</notes><options name="Option List">((4, 4), [0.5, 0.25], 3, 8, &lt;NoteRangePerHand.FOUR_NOTES: 5&gt;, &lt;NoteRangePerHand.ONE_NOTE: 2&gt;, False, True, False, '265')</options></target_notes><trials><trial trial_no="1" timestamp="2022_11_14-18_29_38"><notes name="Played Notes">[{"pitch": 60, "velocity": 94, "note_on_time": 0.974, "note_off_time": 1.536}, {"pitch": 60, "velocity": 87, "note_on_time": 1.881, "note_off_time": 2.053}, {"pitch": 65, "velocity": 78, "note_on_time": 2.087, "note_off_time": 2.353}, {"pitch": 64, "velocity": 83, "note_on_time": 2.298, "note_off_time": 2.586}, {"pitch": 62, "velocity": 79, "note_on_time": 2.532, "note_off_time": 2.812}, {"pitch": 65, "velocity": 88, "note_on_time": 2.79, "note_off_time": 3.042}, {"pitch": 60, "velocity": 88, "note_on_time": 3.011, "note_off_time": 3.141}, {"pitch": 60, "velocity": 101, "note_on_time": 3.267, "note_off_time": 3.688}, {"pitch": 65, "velocity": 88, "note_on_time": 3.746, "note_off_time": 4.077}, {"pitch": 65, "velocity": 88, "note_on_time": 4.181, "note_off_time": 4.444}, {"pitch": 60, "velocity": 79, "note_on_time": 4.431, "note_off_time": 4.633}, {"pitch": 64, "velocity": 81, "note_on_time": 4.651, "note_off_time": 4.881}, {"pitch": 64, "velocity": 84, "note_on_time": 4.967, "note_off_time": 5.282}, {"pitch": 65, "velocity": 85, "note_on_time": 5.235, "note_off_time": 5.497}, {"pitch": 62, "velocity": 84, "note_on_time": 5.48, "note_off_time": 5.743}, {"pitch": 64, "velocity": 84, "note_on_time": 5.73, "note_off_time": 6.112}, {"pitch": 62, "velocity": 88, "note_on_time": 6.431, "note_off_time": 6.897}, {"pitch": 62, "velocity": 93, "note_on_time": 7.137, "note_off_time": 7.249}, {"pitch": 62, "velocity": 91, "note_on_time": 7.384, "note_off_time": 7.488}, {"pitch": 62, "velocity": 100, "note_on_time": 7.627, "note_off_time": 7.992}]</notes><guidance name="Guidance Mode">None</guidance><error name="Error value">0.08003441176470577</error></trial><trial trial_no="2" timestamp="2022_11_14-18_30_03"><notes name="Played Notes">[{"pitch": 60, "velocity": 87, "note_on_time": 0.925, "note_off_time": 1.295}, {"pitch": 60, "velocity": 89, "note_on_time": 1.537, "note_off_time": 1.961}, {"pitch": 65, "velocity": 65, "note_on_time": 2.008, "note_off_time": 2.466}, {"pitch": 64, "velocity": 72, "note_on_time": 2.486, "note_off_time": 2.796}, {"pitch": 62, "velocity": 74, "note_on_time": 2.768, "note_off_time": 3.048}, {"pitch": 65, "velocity": 88, "note_on_time": 3.044, "note_off_time": 3.311}, {"pitch": 60, "velocity": 89, "note_on_time": 3.311, "note_off_time": 3.424}, {"pitch": 60, "velocity": 94, "note_on_time": 3.578, "note_off_time": 3.991}, {"pitch": 65, "velocity": 83, "note_on_time": 4.163, "note_off_time": 4.276}, {"pitch": 65, "velocity": 65, "note_on_time": 4.425, "note_off_time": 4.689}, {"pitch": 60, "velocity": 83, "note_on_time": 4.706, "note_off_time": 4.962}, {"pitch": 64, "velocity": 85, "note_on_time": 4.973, "note_off_time": 5.173}, {"pitch": 64, "velocity": 94, "note_on_time": 5.273, "note_off_time": 5.655}, {"pitch": 65, "velocity": 79, "note_on_time": 5.638, "note_off_time": 5.93}, {"pitch": 62, "velocity": 85, "note_on_time": 5.92, "note_off_time": 6.224}, {"pitch": 64, "velocity": 83, "note_on_time": 6.205, "note_off_time": 6.495}, {"pitch": 62, "velocity": 94, "note_on_time": 6.551, "note_off_time": 7.217}]</notes><guidance name="Guidance Mode">None</guidance><error name="Error value">0.5176570588235295</error></trial><trial trial_no="3" timestamp="2022_11_14-18_30_34"><notes name="Played Notes">[{"pitch": 60, "velocity": 79, "note_on_time": 0.986, "note_off_time": 1.348}, {"pitch": 60, "velocity": 88, "note_on_time": 1.917, "note_off_time": 2.196}, {"pitch": 65, "velocity": 80, "note_on_time": 2.179, "note_off_time": 2.456}, {"pitch": 64, "velocity": 83, "note_on_time": 2.409, "note_off_time": 2.689}, {"pitch": 62, "velocity": 81, "note_on_time": 2.651, "note_off_time": 2.919}, {"pitch": 65, "velocity": 82, "note_on_time": 2.903, "note_off_time": 3.137}, {"pitch": 60, "velocity": 84, "note_on_time": 3.123, "note_off_time": 3.216}, {"pitch": 60, "velocity": 94, "note_on_time": 3.363, "note_off_time": 3.72}, {"pitch": 65, "velocity": 88, "note_on_time": 3.88, "note_off_time": 3.98}, {"pitch": 65, "velocity": 71, "note_on_time": 4.135, "note_off_time": 4.392}, {"pitch": 60, "velocity": 80, "note_on_time": 4.392, "note_off_time": 4.593}, {"pitch": 64, "velocity": 79, "note_on_time": 4.635, "note_off_time": 4.731}, {"pitch": 64, "velocity": 85, "note_on_time": 4.904, "note_off_time": 5.274}, {"pitch": 65, "velocity": 79, "note_on_time": 5.433, "note_off_time": 5.722}, {"pitch": 62, "velocity": 79, "note_on_time": 5.701, "note_off_time": 5.994}, {"pitch": 64, "velocity": 87, "note_on_time": 5.979, "note_off_time": 6.211}, {"pitch": 62, "velocity": 69, "note_on_time": 6.697, "note_off_time": 7.122}, {"pitch": 62, "velocity": 83, "note_on_time": 7.45, "note_off_time": 7.575}, {"pitch": 62, "velocity": 87, "note_on_time": 7.733, "note_off_time": 7.832}, {"pitch": 62, "velocity": 96, "note_on_time": 7.983, "note_off_time": 8.303}]</notes><guidance name="Guidance Mode">None</guidance><error name="Error value">0.06614323529411752</error></trial></trials></MIDI>