<MIDI midiNo="2022_10_26-14_43_34"><target_notes><notes name="Note List">[{"pitch": 42, "velocity": 80, "note_on_time": 0.003, "note_off_time": 0.224}, {"pitch": 42, "velocity": 80, "note_on_time": 0.224, "note_off_time": 0.44}, {"pitch": 42, "velocity": 80, "note_on_time": 0.44, "note_off_time": 0.658}, {"pitch": 42, "velocity": 80, "note_on_time": 0.658, "note_off_time": 0.875}, {"pitch": 42, "velocity": 80, "note_on_time": 0.875, "note_off_time": 1.09}, {"pitch": 42, "velocity": 80, "note_on_time": 1.09, "note_off_time": 1.309}, {"pitch": 42, "velocity": 80, "note_on_time": 1.309, "note_off_time": 1.526}, {"pitch": 42, "velocity": 80, "note_on_time": 1.526, "note_off_time": 1.743}, {"pitch": 42, "velocity": 80, "note_on_time": 1.743, "note_off_time": 1.96}, {"pitch": 42, "velocity": 80, "note_on_time": 1.96, "note_off_time": 2.176}, {"pitch": 42, "velocity": 80, "note_on_time": 2.176, "note_off_time": 2.393}, {"pitch": 42, "velocity": 80, "note_on_time": 2.393, "note_off_time": 2.61}, {"pitch": 42, "velocity": 80, "note_on_time": 2.61, "note_off_time": 2.829}, {"pitch": 42, "velocity": 80, "note_on_time": 2.829, "note_off_time": 3.045}, {"pitch": 42, "velocity": 80, "note_on_time": 3.045, "note_off_time": 3.262}, {"pitch": 42, "velocity": 80, "note_on_time": 3.262, "note_off_time": 3.48}, {"pitch": 42, "velocity": 80, "note_on_time": 3.48, "note_off_time": 3.698}, {"pitch": 42, "velocity": 80, "note_on_time": 3.698, "note_off_time": 3.915}, {"pitch": 42, "velocity": 80, "note_on_time": 3.915, "note_off_time": 4.131}, {"pitch": 42, "velocity": 80, "note_on_time": 4.131, "note_off_time": 4.349}, {"pitch": 42, "velocity": 80, "note_on_time": 4.349, "note_off_time": 4.567}, {"pitch": 42, "velocity": 80, "note_on_time": 4.567, "note_off_time": 4.785}, {"pitch": 42, "velocity": 80, "note_on_time": 4.785, "note_off_time": 5.003}, {"pitch": 42, "velocity": 80, "note_on_time": 5.003, "note_off_time": 5.22}, {"pitch": 42, "velocity": 80, "note_on_time": 5.22, "note_off_time": 5.436}, {"pitch": 42, "velocity": 80, "note_on_time": 5.436, "note_off_time": 5.654}, {"pitch": 42, "velocity": 80, "note_on_time": 5.654, "note_off_time": 5.875}, {"pitch": 42, "velocity": 80, "note_on_time": 5.875, "note_off_time": 6.091}, {"pitch": 42, "velocity": 80, "note_on_time": 6.091, "note_off_time": 6.311}, {"pitch": 42, "velocity": 80, "note_on_time": 6.311, "note_off_time": 6.53}, {"pitch": 42, "velocity": 80, "note_on_time": 6.53, "note_off_time": 6.748}, {"pitch": 42, "velocity": 80, "note_on_time": 6.748, "note_off_time": 6.965}, {"pitch": 42, "velocity": 80, "note_on_time": 6.965, "note_off_time": 7.185}, {"pitch": 42, "velocity": 80, "note_on_time": 7.185, "note_off_time": 7.403}, {"pitch": 42, "velocity": 80, "note_on_time": 7.403, "note_off_time": 7.619}, {"pitch": 42, "velocity": 80, "note_on_time": 7.619, "note_off_time": 7.838}, {"pitch": 42, "velocity": 80, "note_on_time": 7.838, "note_off_time": 8.055}, {"pitch": 42, "velocity": 80, "note_on_time": 8.055, "note_off_time": 8.274}, {"pitch": 42, "velocity": 80, "note_on_time": 8.274, "note_off_time": 8.491}, {"pitch": 42, "velocity": 80, "note_on_time": 8.491, "note_off_time": 8.707}]</notes><options name="Option List">((4, 4), [0.5, 0.25], 3, 8, &lt;NoteRangePerHand.C_TO_G: 6&gt;, &lt;NoteRangePerHand.ONE_NOTE: 2&gt;, False, True, True, 281)</options></target_notes><trials><trial trial_no="1" timestamp="2022_10_26-14_43_23"><notes name="Played Notes">[{"pitch": 65, "velocity": 94, "note_on_time": 0.909, "note_off_time": 1.143}, {"pitch": 67, "velocity": 77, "note_on_time": 1.798, "note_off_time": 2.041}, {"pitch": 64, "velocity": 88, "note_on_time": 2.032, "note_off_time": 2.267}, {"pitch": 62, "velocity": 75, "note_on_time": 2.719, "note_off_time": 2.939}, {"pitch": 65, "velocity": 68, "note_on_time": 2.95, "note_off_time": 3.197}, {"pitch": 62, "velocity": 67, "note_on_time": 3.197, "note_off_time": 3.427}, {"pitch": 65, "velocity": 64, "note_on_time": 3.438, "note_off_time": 3.585}, {"pitch": 65, "velocity": 66, "note_on_time": 3.683, "note_off_time": 3.942}, {"pitch": 67, "velocity": 67, "note_on_time": 3.937, "note_off_time": 4.185}, {"pitch": 62, "velocity": 68, "note_on_time": 4.176, "note_off_time": 4.397}, {"pitch": 65, "velocity": 64, "note_on_time": 4.411, "note_off_time": 4.613}, {"pitch": 67, "velocity": 60, "note_on_time": 4.626, "note_off_time": 4.863}, {"pitch": 64, "velocity": 79, "note_on_time": 4.858, "note_off_time": 5.18}, {"pitch": 65, "velocity": 69, "note_on_time": 5.467, "note_off_time": 5.59}, {"pitch": 65, "velocity": 64, "note_on_time": 5.71, "note_off_time": 5.923}, {"pitch": 67, "velocity": 72, "note_on_time": 5.932, "note_off_time": 6.228}, {"pitch": 60, "velocity": 62, "note_on_time": 6.611, "note_off_time": 6.766}, {"pitch": 67, "velocity": 63, "note_on_time": 6.809, "note_off_time": 7.055}, {"pitch": 64, "velocity": 66, "note_on_time": 7.055, "note_off_time": 7.269}, {"pitch": 65, "velocity": 74, "note_on_time": 7.289, "note_off_time": 7.545}, {"pitch": 65, "velocity": 82, "note_on_time": 7.804, "note_off_time": 7.903}, {"pitch": 65, "velocity": 70, "note_on_time": 8.042, "note_off_time": 8.127}, {"pitch": 65, "velocity": 80, "note_on_time": 8.282, "note_off_time": 8.418}]</notes><guidance name="Guidance Mode">None</guidance><error name="Error value">1.0835117037037034</error></trial><trial trial_no="2" timestamp="2022_10_26-14_43_46"><notes name="Played Notes">[{"pitch": 65, "velocity": 92, "note_on_time": 0.91, "note_off_time": 1.189}, {"pitch": 67, "velocity": 68, "note_on_time": 1.783, "note_off_time": 2.008}, {"pitch": 64, "velocity": 81, "note_on_time": 2.011, "note_off_time": 2.381}, {"pitch": 62, "velocity": 71, "note_on_time": 2.711, "note_off_time": 2.925}, {"pitch": 65, "velocity": 72, "note_on_time": 2.935, "note_off_time": 3.159}, {"pitch": 62, "velocity": 69, "note_on_time": 3.173, "note_off_time": 3.379}, {"pitch": 65, "velocity": 71, "note_on_time": 3.389, "note_off_time": 3.518}, {"pitch": 65, "velocity": 67, "note_on_time": 3.661, "note_off_time": 3.916}, {"pitch": 67, "velocity": 69, "note_on_time": 3.915, "note_off_time": 4.189}, {"pitch": 62, "velocity": 70, "note_on_time": 4.167, "note_off_time": 4.417}, {"pitch": 65, "velocity": 69, "note_on_time": 4.393, "note_off_time": 4.645}, {"pitch": 67, "velocity": 69, "note_on_time": 4.639, "note_off_time": 4.88}, {"pitch": 64, "velocity": 65, "note_on_time": 4.877, "note_off_time": 5.211}, {"pitch": 65, "velocity": 73, "note_on_time": 5.484, "note_off_time": 5.608}, {"pitch": 65, "velocity": 73, "note_on_time": 5.7, "note_off_time": 5.922}, {"pitch": 67, "velocity": 81, "note_on_time": 5.922, "note_off_time": 6.19}, {"pitch": 60, "velocity": 70, "note_on_time": 6.603, "note_off_time": 6.857}, {"pitch": 67, "velocity": 64, "note_on_time": 6.848, "note_off_time": 7.081}, {"pitch": 64, "velocity": 68, "note_on_time": 7.081, "note_off_time": 7.318}, {"pitch": 65, "velocity": 67, "note_on_time": 7.321, "note_off_time": 7.588}, {"pitch": 65, "velocity": 84, "note_on_time": 7.855, "note_off_time": 7.958}, {"pitch": 65, "velocity": 72, "note_on_time": 8.078, "note_off_time": 8.167}, {"pitch": 65, "velocity": 91, "note_on_time": 8.311, "note_off_time": 8.466}]</notes><guidance name="Guidance Mode">None</guidance><error name="Error value">1.0038997407407406</error></trial><trial trial_no="3" timestamp="2022_10_26-14_44_07"><notes name="Played Notes">[{"pitch": 65, "velocity": 84, "note_on_time": 0.939, "note_off_time": 1.161}, {"pitch": 67, "velocity": 72, "note_on_time": 1.862, "note_off_time": 2.123}, {"pitch": 64, "velocity": 60, "note_on_time": 2.138, "note_off_time": 2.471}, {"pitch": 62, "velocity": 69, "note_on_time": 2.89, "note_off_time": 3.124}, {"pitch": 65, "velocity": 72, "note_on_time": 3.135, "note_off_time": 3.359}, {"pitch": 62, "velocity": 67, "note_on_time": 3.385, "note_off_time": 3.581}, {"pitch": 65, "velocity": 62, "note_on_time": 3.598, "note_off_time": 3.68}, {"pitch": 65, "velocity": 63, "note_on_time": 3.87, "note_off_time": 4.155}, {"pitch": 67, "velocity": 60, "note_on_time": 4.148, "note_off_time": 4.409}, {"pitch": 62, "velocity": 60, "note_on_time": 4.414, "note_off_time": 4.644}, {"pitch": 65, "velocity": 67, "note_on_time": 4.651, "note_off_time": 4.921}, {"pitch": 67, "velocity": 64, "note_on_time": 4.913, "note_off_time": 5.166}, {"pitch": 64, "velocity": 60, "note_on_time": 5.165, "note_off_time": 5.528}, {"pitch": 65, "velocity": 61, "note_on_time": 5.742, "note_off_time": 5.929}, {"pitch": 65, "velocity": 71, "note_on_time": 6.023, "note_off_time": 6.256}, {"pitch": 67, "velocity": 66, "note_on_time": 6.27, "note_off_time": 6.559}, {"pitch": 60, "velocity": 55, "note_on_time": 6.852, "note_off_time": 7.108}, {"pitch": 67, "velocity": 61, "note_on_time": 7.131, "note_off_time": 7.401}, {"pitch": 64, "velocity": 59, "note_on_time": 7.413, "note_off_time": 7.667}, {"pitch": 65, "velocity": 66, "note_on_time": 7.673, "note_off_time": 7.912}, {"pitch": 65, "velocity": 73, "note_on_time": 8.184, "note_off_time": 8.301}, {"pitch": 65, "velocity": 59, "note_on_time": 8.441, "note_off_time": 8.513}]</notes><guidance name="Guidance Mode">None</guidance><error name="Error value">1.0776136666666667</error></trial></trials></MIDI>