<MIDI midiNo="2022_12_01-13_02_20"><target_notes><notes name="Note List">[{"pitch": 42, "velocity": 80, "note_on_time": 0.004, "note_off_time": 0.41}, {"pitch": 42, "velocity": 80, "note_on_time": 0.41, "note_off_time": 0.817}, {"pitch": 42, "velocity": 80, "note_on_time": 0.817, "note_off_time": 1.222}, {"pitch": 42, "velocity": 80, "note_on_time": 1.222, "note_off_time": 1.629}, {"pitch": 64, "velocity": 80, "note_on_time": 1.628, "note_off_time": 2.032}, {"pitch": 42, "velocity": 80, "note_on_time": 1.629, "note_off_time": 2.032}, {"pitch": 64, "velocity": 80, "note_on_time": 2.032, "note_off_time": 2.436}, {"pitch": 42, "velocity": 80, "note_on_time": 2.032, "note_off_time": 2.437}, {"pitch": 60, "velocity": 80, "note_on_time": 2.436, "note_off_time": 2.839}, {"pitch": 42, "velocity": 80, "note_on_time": 2.437, "note_off_time": 2.839}, {"pitch": 60, "velocity": 80, "note_on_time": 2.839, "note_off_time": 3.242}, {"pitch": 42, "velocity": 80, "note_on_time": 2.839, "note_off_time": 3.242}, {"pitch": 42, "velocity": 80, "note_on_time": 3.242, "note_off_time": 3.651}, {"pitch": 62, "velocity": 80, "note_on_time": 3.242, "note_off_time": 4.055}, {"pitch": 42, "velocity": 80, "note_on_time": 3.651, "note_off_time": 4.056}, {"pitch": 42, "velocity": 80, "note_on_time": 4.056, "note_off_time": 4.462}, {"pitch": 42, "velocity": 80, "note_on_time": 4.462, "note_off_time": 4.865}, {"pitch": 64, "velocity": 80, "note_on_time": 4.865, "note_off_time": 5.269}, {"pitch": 42, "velocity": 80, "note_on_time": 4.865, "note_off_time": 5.27}, {"pitch": 42, "velocity": 80, "note_on_time": 5.27, "note_off_time": 5.676}, {"pitch": 42, "velocity": 80, "note_on_time": 5.676, "note_off_time": 6.083}, {"pitch": 42, "velocity": 80, "note_on_time": 6.083, "note_off_time": 6.49}, {"pitch": 64, "velocity": 80, "note_on_time": 6.49, "note_off_time": 6.893}, {"pitch": 42, "velocity": 80, "note_on_time": 6.491, "note_off_time": 6.894}, {"pitch": 62, "velocity": 80, "note_on_time": 6.893, "note_off_time": 7.298}, {"pitch": 42, "velocity": 80, "note_on_time": 6.894, "note_off_time": 7.298}, {"pitch": 62, "velocity": 80, "note_on_time": 7.298, "note_off_time": 7.706}, {"pitch": 42, "velocity": 80, "note_on_time": 7.298, "note_off_time": 7.707}, {"pitch": 62, "velocity": 80, "note_on_time": 7.706, "note_off_time": 8.109}, {"pitch": 42, "velocity": 80, "note_on_time": 7.707, "note_off_time": 8.11}, {"pitch": 64, "velocity": 80, "note_on_time": 8.109, "note_off_time": 8.513}, {"pitch": 42, "velocity": 80, "note_on_time": 8.11, "note_off_time": 8.514}, {"pitch": 64, "velocity": 80, "note_on_time": 8.513, "note_off_time": 8.916}, {"pitch": 42, "velocity": 80, "note_on_time": 8.514, "note_off_time": 8.916}, {"pitch": 64, "velocity": 80, "note_on_time": 8.916, "note_off_time": 9.322}, {"pitch": 42, "velocity": 80, "note_on_time": 8.917, "note_off_time": 9.322}, {"pitch": 64, "velocity": 80, "note_on_time": 9.322, "note_off_time": 9.729}, {"pitch": 42, "velocity": 80, "note_on_time": 9.323, "note_off_time": 9.729}, {"pitch": 64, "velocity": 80, "note_on_time": 9.729, "note_off_time": 10.134}, {"pitch": 42, "velocity": 80, "note_on_time": 9.729, "note_off_time": 10.134}, {"pitch": 42, "velocity": 80, "note_on_time": 10.134, "note_off_time": 10.54}, {"pitch": 64, "velocity": 80, "note_on_time": 10.134, "note_off_time": 10.946}, {"pitch": 42, "velocity": 80, "note_on_time": 10.54, "note_off_time": 10.946}, {"pitch": 42, "velocity": 80, "note_on_time": 10.947, "note_off_time": 11.351}, {"pitch": 60, "velocity": 80, "note_on_time": 11.35, "note_off_time": 11.755}, {"pitch": 42, "velocity": 80, "note_on_time": 11.351, "note_off_time": 11.755}, {"pitch": 42, "velocity": 80, "note_on_time": 11.755, "note_off_time": 12.159}, {"pitch": 42, "velocity": 80, "note_on_time": 12.159, "note_off_time": 12.562}, {"pitch": 42, "velocity": 80, "note_on_time": 12.562, "note_off_time": 12.967}, {"pitch": 42, "velocity": 80, "note_on_time": 12.967, "note_off_time": 13.374}, {"pitch": 60, "velocity": 80, "note_on_time": 13.374, "note_off_time": 13.78}, {"pitch": 42, "velocity": 80, "note_on_time": 13.375, "note_off_time": 13.78}, {"pitch": 60, "velocity": 80, "note_on_time": 13.78, "note_off_time": 14.184}, {"pitch": 42, "velocity": 80, "note_on_time": 13.78, "note_off_time": 14.184}, {"pitch": 60, "velocity": 80, "note_on_time": 14.184, "note_off_time": 14.588}, {"pitch": 42, "velocity": 80, "note_on_time": 14.184, "note_off_time": 14.588}]</notes><options name="Option List">((4, 4), [0.5, 0.25], 3, 8, &lt;NoteRangePerHand.THREE_NOTES: 4&gt;, &lt;NoteRangePerHand.ONE_NOTE: 2&gt;, False, True, False, 150)</options></target_notes><trials><trial trial_no="1" timestamp="2022_12_01-13_02_04"><notes name="Played Notes">[{"pitch": 64, "velocity": 72, "note_on_time": 1.642, "note_off_time": 1.846}, {"pitch": 64, "velocity": 74, "note_on_time": 2.018, "note_off_time": 2.258}, {"pitch": 60, "velocity": 84, "note_on_time": 2.416, "note_off_time": 2.599}, {"pitch": 60, "velocity": 82, "note_on_time": 2.808, "note_off_time": 2.953}, {"pitch": 62, "velocity": 79, "note_on_time": 3.222, "note_off_time": 4.249}, {"pitch": 64, "velocity": 76, "note_on_time": 4.92, "note_off_time": 5.386}, {"pitch": 64, "velocity": 78, "note_on_time": 6.776, "note_off_time": 7.005}, {"pitch": 62, "velocity": 73, "note_on_time": 7.153, "note_off_time": 7.376}, {"pitch": 62, "velocity": 74, "note_on_time": 7.549, "note_off_time": 7.767}, {"pitch": 62, "velocity": 73, "note_on_time": 7.949, "note_off_time": 8.184}, {"pitch": 64, "velocity": 79, "note_on_time": 8.337, "note_off_time": 8.552}, {"pitch": 64, "velocity": 64, "note_on_time": 8.722, "note_off_time": 8.948}, {"pitch": 64, "velocity": 79, "note_on_time": 9.142, "note_off_time": 9.348}, {"pitch": 64, "velocity": 77, "note_on_time": 9.543, "note_off_time": 9.708}, {"pitch": 64, "velocity": 75, "note_on_time": 9.921, "note_off_time": 10.088}, {"pitch": 64, "velocity": 75, "note_on_time": 10.315, "note_off_time": 11.265}, {"pitch": 64, "velocity": 68, "note_on_time": 11.868, "note_off_time": 12.49}, {"pitch": 60, "velocity": 71, "note_on_time": 12.534, "note_off_time": 12.909}, {"pitch": 60, "velocity": 81, "note_on_time": 14.022, "note_off_time": 14.171}, {"pitch": 60, "velocity": 84, "note_on_time": 14.375, "note_off_time": 14.536}]</notes><guidance name="Guidance Mode">None</guidance><error name="Error value">0.2545294117647059</error></trial></trials></MIDI>