<MIDI midiNo="2022_11_03-13_37_16"><target_notes><notes name="Note List">[{"pitch": 42, "velocity": 80, "note_on_time": 0.004, "note_off_time": 0.255}, {"pitch": 42, "velocity": 80, "note_on_time": 0.255, "note_off_time": 0.505}, {"pitch": 42, "velocity": 80, "note_on_time": 0.505, "note_off_time": 0.754}, {"pitch": 42, "velocity": 80, "note_on_time": 0.755, "note_off_time": 1.005}, {"pitch": 42, "velocity": 80, "note_on_time": 1.006, "note_off_time": 1.257}, {"pitch": 60, "velocity": 80, "note_on_time": 1.005, "note_off_time": 1.509}, {"pitch": 42, "velocity": 80, "note_on_time": 1.258, "note_off_time": 1.509}, {"pitch": 42, "velocity": 80, "note_on_time": 1.51, "note_off_time": 1.759}, {"pitch": 62, "velocity": 80, "note_on_time": 1.509, "note_off_time": 2.008}, {"pitch": 42, "velocity": 80, "note_on_time": 1.759, "note_off_time": 2.008}, {"pitch": 64, "velocity": 80, "note_on_time": 2.008, "note_off_time": 2.256}, {"pitch": 42, "velocity": 80, "note_on_time": 2.009, "note_off_time": 2.257}, {"pitch": 42, "velocity": 80, "note_on_time": 2.257, "note_off_time": 2.507}, {"pitch": 60, "velocity": 80, "note_on_time": 2.507, "note_off_time": 2.754}, {"pitch": 42, "velocity": 80, "note_on_time": 2.507, "note_off_time": 2.754}, {"pitch": 62, "velocity": 80, "note_on_time": 2.754, "note_off_time": 3.003}, {"pitch": 42, "velocity": 80, "note_on_time": 2.755, "note_off_time": 3.004}, {"pitch": 62, "velocity": 80, "note_on_time": 3.003, "note_off_time": 3.251}, {"pitch": 42, "velocity": 80, "note_on_time": 3.004, "note_off_time": 3.252}, {"pitch": 60, "velocity": 80, "note_on_time": 3.251, "note_off_time": 3.501}, {"pitch": 42, "velocity": 80, "note_on_time": 3.252, "note_off_time": 3.501}, {"pitch": 60, "velocity": 80, "note_on_time": 3.501, "note_off_time": 3.751}, {"pitch": 42, "velocity": 80, "note_on_time": 3.501, "note_off_time": 3.751}, {"pitch": 60, "velocity": 80, "note_on_time": 3.751, "note_off_time": 4.0}, {"pitch": 42, "velocity": 80, "note_on_time": 3.751, "note_off_time": 4.0}, {"pitch": 64, "velocity": 80, "note_on_time": 4.0, "note_off_time": 4.248}, {"pitch": 42, "velocity": 80, "note_on_time": 4.0, "note_off_time": 4.249}, {"pitch": 64, "velocity": 80, "note_on_time": 4.248, "note_off_time": 4.496}, {"pitch": 42, "velocity": 80, "note_on_time": 4.249, "note_off_time": 4.496}, {"pitch": 62, "velocity": 80, "note_on_time": 4.496, "note_off_time": 4.744}, {"pitch": 42, "velocity": 80, "note_on_time": 4.497, "note_off_time": 4.744}, {"pitch": 60, "velocity": 80, "note_on_time": 4.744, "note_off_time": 4.994}, {"pitch": 42, "velocity": 80, "note_on_time": 4.744, "note_off_time": 4.994}, {"pitch": 60, "velocity": 80, "note_on_time": 4.994, "note_off_time": 5.243}, {"pitch": 42, "velocity": 80, "note_on_time": 4.995, "note_off_time": 5.243}, {"pitch": 60, "velocity": 80, "note_on_time": 5.243, "note_off_time": 5.491}, {"pitch": 42, "velocity": 80, "note_on_time": 5.243, "note_off_time": 5.492}, {"pitch": 64, "velocity": 80, "note_on_time": 5.491, "note_off_time": 5.741}, {"pitch": 42, "velocity": 80, "note_on_time": 5.492, "note_off_time": 5.741}, {"pitch": 64, "velocity": 80, "note_on_time": 5.741, "note_off_time": 5.99}, {"pitch": 42, "velocity": 80, "note_on_time": 5.742, "note_off_time": 5.99}, {"pitch": 60, "velocity": 80, "note_on_time": 5.99, "note_off_time": 6.24}, {"pitch": 42, "velocity": 80, "note_on_time": 5.991, "note_off_time": 6.24}, {"pitch": 64, "velocity": 80, "note_on_time": 6.24, "note_off_time": 6.488}, {"pitch": 42, "velocity": 80, "note_on_time": 6.241, "note_off_time": 6.488}, {"pitch": 64, "velocity": 80, "note_on_time": 6.488, "note_off_time": 6.738}, {"pitch": 42, "velocity": 80, "note_on_time": 6.489, "note_off_time": 6.738}, {"pitch": 64, "velocity": 80, "note_on_time": 6.738, "note_off_time": 6.987}, {"pitch": 42, "velocity": 80, "note_on_time": 6.739, "note_off_time": 6.987}, {"pitch": 62, "velocity": 80, "note_on_time": 6.987, "note_off_time": 7.236}, {"pitch": 42, "velocity": 80, "note_on_time": 6.987, "note_off_time": 7.236}, {"pitch": 42, "velocity": 80, "note_on_time": 7.237, "note_off_time": 7.487}, {"pitch": 42, "velocity": 80, "note_on_time": 7.488, "note_off_time": 7.737}, {"pitch": 42, "velocity": 80, "note_on_time": 7.737, "note_off_time": 7.987}, {"pitch": 42, "velocity": 80, "note_on_time": 7.988, "note_off_time": 8.236}, {"pitch": 62, "velocity": 80, "note_on_time": 8.236, "note_off_time": 8.485}, {"pitch": 42, "velocity": 80, "note_on_time": 8.236, "note_off_time": 8.485}, {"pitch": 62, "velocity": 80, "note_on_time": 8.485, "note_off_time": 8.733}, {"pitch": 42, "velocity": 80, "note_on_time": 8.486, "note_off_time": 8.733}, {"pitch": 62, "velocity": 80, "note_on_time": 8.733, "note_off_time": 8.983}, {"pitch": 42, "velocity": 80, "note_on_time": 8.734, "note_off_time": 8.984}]</notes><options name="Option List">((4, 4), [0.5, 0.25], 3, 8, &lt;NoteRangePerHand.THREE_NOTES: 4&gt;, &lt;NoteRangePerHand.ONE_NOTE: 2&gt;, False, True, False, 248)</options></target_notes><trials><trial trial_no="1" timestamp="2022_11_03-13_37_05"><notes name="Played Notes">[{"pitch": 60, "velocity": 69, "note_on_time": 1.045, "note_off_time": 1.445}, {"pitch": 62, "velocity": 64, "note_on_time": 1.563, "note_off_time": 1.855}, {"pitch": 64, "velocity": 55, "note_on_time": 2.045, "note_off_time": 2.183}, {"pitch": 60, "velocity": 72, "note_on_time": 2.541, "note_off_time": 2.677}, {"pitch": 62, "velocity": 61, "note_on_time": 2.779, "note_off_time": 2.897}, {"pitch": 62, "velocity": 57, "note_on_time": 3.056, "note_off_time": 3.19}, {"pitch": 60, "velocity": 65, "note_on_time": 3.345, "note_off_time": 3.449}, {"pitch": 60, "velocity": 59, "note_on_time": 3.573, "note_off_time": 3.705}, {"pitch": 60, "velocity": 59, "note_on_time": 3.815, "note_off_time": 3.953}, {"pitch": 64, "velocity": 60, "note_on_time": 4.056, "note_off_time": 4.179}, {"pitch": 64, "velocity": 52, "note_on_time": 4.289, "note_off_time": 4.418}, {"pitch": 62, "velocity": 40, "note_on_time": 4.552, "note_off_time": 4.687}, {"pitch": 60, "velocity": 67, "note_on_time": 4.817, "note_off_time": 4.91}, {"pitch": 60, "velocity": 54, "note_on_time": 5.042, "note_off_time": 5.169}, {"pitch": 60, "velocity": 62, "note_on_time": 5.293, "note_off_time": 5.4}, {"pitch": 64, "velocity": 47, "note_on_time": 5.5, "note_off_time": 5.642}, {"pitch": 64, "velocity": 52, "note_on_time": 5.752, "note_off_time": 5.881}, {"pitch": 60, "velocity": 62, "note_on_time": 6.009, "note_off_time": 6.151}, {"pitch": 64, "velocity": 40, "note_on_time": 6.22, "note_off_time": 6.373}, {"pitch": 64, "velocity": 42, "note_on_time": 6.502, "note_off_time": 6.639}, {"pitch": 64, "velocity": 62, "note_on_time": 6.74, "note_off_time": 6.896}, {"pitch": 62, "velocity": 56, "note_on_time": 6.987, "note_off_time": 7.218}, {"pitch": 60, "velocity": 49, "note_on_time": 8.052, "note_off_time": 8.123}, {"pitch": 62, "velocity": 51, "note_on_time": 8.148, "note_off_time": 8.258}, {"pitch": 62, "velocity": 61, "note_on_time": 8.333, "note_off_time": 8.451}, {"pitch": 62, "velocity": 51, "note_on_time": 8.577, "note_off_time": 8.784}]</notes><guidance name="Guidance Mode">None</guidance><error name="Error value">0.13808795454545447</error></trial></trials></MIDI>