<MIDI midiNo="2022_09_12-12_00_14"><target_notes><notes name="Note List">[{"pitch": 42, "velocity": 80, "note_on_time": 0.004, "note_off_time": 0.297}, {"pitch": 42, "velocity": 80, "note_on_time": 0.297, "note_off_time": 0.591}, {"pitch": 42, "velocity": 80, "note_on_time": 0.591, "note_off_time": 0.873}, {"pitch": 42, "velocity": 80, "note_on_time": 0.873, "note_off_time": 1.167}, {"pitch": 62, "velocity": 80, "note_on_time": 1.167, "note_off_time": 1.45}, {"pitch": 42, "velocity": 80, "note_on_time": 1.167, "note_off_time": 1.45}, {"pitch": 64, "velocity": 80, "note_on_time": 1.45, "note_off_time": 1.745}, {"pitch": 42, "velocity": 80, "note_on_time": 1.45, "note_off_time": 1.745}, {"pitch": 62, "velocity": 80, "note_on_time": 1.745, "note_off_time": 2.039}, {"pitch": 42, "velocity": 80, "note_on_time": 1.745, "note_off_time": 2.04}, {"pitch": 62, "velocity": 80, "note_on_time": 2.039, "note_off_time": 2.333}, {"pitch": 42, "velocity": 80, "note_on_time": 2.04, "note_off_time": 2.334}, {"pitch": 64, "velocity": 80, "note_on_time": 2.333, "note_off_time": 2.614}, {"pitch": 42, "velocity": 80, "note_on_time": 2.334, "note_off_time": 2.615}, {"pitch": 62, "velocity": 80, "note_on_time": 2.614, "note_off_time": 2.907}, {"pitch": 42, "velocity": 80, "note_on_time": 2.615, "note_off_time": 2.907}, {"pitch": 42, "velocity": 80, "note_on_time": 2.908, "note_off_time": 3.191}, {"pitch": 60, "velocity": 80, "note_on_time": 2.907, "note_off_time": 3.486}, {"pitch": 42, "velocity": 80, "note_on_time": 3.191, "note_off_time": 3.486}, {"pitch": 60, "velocity": 80, "note_on_time": 3.486, "note_off_time": 3.767}, {"pitch": 42, "velocity": 80, "note_on_time": 3.486, "note_off_time": 3.768}, {"pitch": 42, "velocity": 80, "note_on_time": 3.768, "note_off_time": 4.049}, {"pitch": 42, "velocity": 80, "note_on_time": 4.05, "note_off_time": 4.33}, {"pitch": 64, "velocity": 80, "note_on_time": 4.33, "note_off_time": 4.611}, {"pitch": 42, "velocity": 80, "note_on_time": 4.331, "note_off_time": 4.611}, {"pitch": 64, "velocity": 80, "note_on_time": 4.611, "note_off_time": 4.904}, {"pitch": 42, "velocity": 80, "note_on_time": 4.611, "note_off_time": 4.905}, {"pitch": 42, "velocity": 80, "note_on_time": 4.905, "note_off_time": 5.2}, {"pitch": 42, "velocity": 80, "note_on_time": 5.201, "note_off_time": 5.482}, {"pitch": 42, "velocity": 80, "note_on_time": 5.483, "note_off_time": 5.777}, {"pitch": 60, "velocity": 80, "note_on_time": 5.776, "note_off_time": 6.058}, {"pitch": 42, "velocity": 80, "note_on_time": 5.777, "note_off_time": 6.058}, {"pitch": 64, "velocity": 80, "note_on_time": 6.058, "note_off_time": 6.34}, {"pitch": 42, "velocity": 80, "note_on_time": 6.058, "note_off_time": 6.341}, {"pitch": 62, "velocity": 80, "note_on_time": 6.34, "note_off_time": 6.635}, {"pitch": 42, "velocity": 80, "note_on_time": 6.341, "note_off_time": 6.635}, {"pitch": 62, "velocity": 80, "note_on_time": 6.635, "note_off_time": 6.93}, {"pitch": 42, "velocity": 80, "note_on_time": 6.635, "note_off_time": 6.93}, {"pitch": 42, "velocity": 80, "note_on_time": 6.93, "note_off_time": 7.224}, {"pitch": 62, "velocity": 80, "note_on_time": 6.93, "note_off_time": 7.505}, {"pitch": 42, "velocity": 80, "note_on_time": 7.224, "note_off_time": 7.506}, {"pitch": 42, "velocity": 80, "note_on_time": 7.506, "note_off_time": 7.787}, {"pitch": 60, "velocity": 80, "note_on_time": 7.505, "note_off_time": 8.082}, {"pitch": 42, "velocity": 80, "note_on_time": 7.787, "note_off_time": 8.082}, {"pitch": 64, "velocity": 80, "note_on_time": 8.082, "note_off_time": 8.363}, {"pitch": 42, "velocity": 80, "note_on_time": 8.083, "note_off_time": 8.364}, {"pitch": 64, "velocity": 80, "note_on_time": 8.363, "note_off_time": 8.645}, {"pitch": 42, "velocity": 80, "note_on_time": 8.364, "note_off_time": 8.645}, {"pitch": 60, "velocity": 80, "note_on_time": 8.645, "note_off_time": 8.938}, {"pitch": 42, "velocity": 80, "note_on_time": 8.646, "note_off_time": 8.939}, {"pitch": 62, "velocity": 80, "note_on_time": 8.938, "note_off_time": 9.22}, {"pitch": 42, "velocity": 80, "note_on_time": 8.939, "note_off_time": 9.22}, {"pitch": 42, "velocity": 80, "note_on_time": 9.221, "note_off_time": 9.515}, {"pitch": 62, "velocity": 80, "note_on_time": 9.515, "note_off_time": 9.811}, {"pitch": 42, "velocity": 80, "note_on_time": 9.515, "note_off_time": 9.811}, {"pitch": 62, "velocity": 80, "note_on_time": 9.811, "note_off_time": 10.092}, {"pitch": 42, "velocity": 80, "note_on_time": 9.812, "note_off_time": 10.092}, {"pitch": 62, "velocity": 80, "note_on_time": 10.092, "note_off_time": 10.372}, {"pitch": 42, "velocity": 80, "note_on_time": 10.092, "note_off_time": 10.372}]</notes><options name="Option List">((4, 4), [0.5, 0.25], 3, 8, &lt;NoteRangePerHand.THREE_NOTES: 4&gt;, &lt;NoteRangePerHand.ONE_NOTE: 2&gt;, False, True, True, '215')</options></target_notes><trials><trial trial_no="1" timestamp="2022_09_12-12_00_02"><notes name="Played Notes">[{"pitch": 62, "velocity": 87, "note_on_time": 1.259, "note_off_time": 1.384}, {"pitch": 64, "velocity": 88, "note_on_time": 1.512, "note_off_time": 1.658}, {"pitch": 62, "velocity": 87, "note_on_time": 1.802, "note_off_time": 1.907}, {"pitch": 62, "velocity": 87, "note_on_time": 2.067, "note_off_time": 2.198}, {"pitch": 64, "velocity": 91, "note_on_time": 2.335, "note_off_time": 2.488}, {"pitch": 60, "velocity": 89, "note_on_time": 2.629, "note_off_time": 2.757}, {"pitch": 60, "velocity": 82, "note_on_time": 3.307, "note_off_time": 3.554}, {"pitch": 60, "velocity": 96, "note_on_time": 3.922, "note_off_time": 4.072}, {"pitch": 64, "velocity": 81, "note_on_time": 5.086, "note_off_time": 5.201}, {"pitch": 64, "velocity": 90, "note_on_time": 5.351, "note_off_time": 5.487}, {"pitch": 60, "velocity": 89, "note_on_time": 6.879, "note_off_time": 7.044}, {"pitch": 64, "velocity": 84, "note_on_time": 7.416, "note_off_time": 7.539}, {"pitch": 62, "velocity": 87, "note_on_time": 7.693, "note_off_time": 7.791}, {"pitch": 62, "velocity": 83, "note_on_time": 7.93, "note_off_time": 8.024}, {"pitch": 62, "velocity": 85, "note_on_time": 8.433, "note_off_time": 8.707}, {"pitch": 62, "velocity": 81, "note_on_time": 9.185, "note_off_time": 9.351}, {"pitch": 64, "velocity": 84, "note_on_time": 10.135, "note_off_time": 10.255}]</notes><guidance name="Guidance Mode">None</guidance><error name="Error value">0.7198276</error></trial><trial trial_no="2" timestamp="2022_09_12-12_00_23"><notes name="Played Notes">[{"pitch": 62, "velocity": 70, "note_on_time": 1.103, "note_off_time": 1.232}, {"pitch": 64, "velocity": 93, "note_on_time": 1.356, "note_off_time": 1.514}, {"pitch": 62, "velocity": 88, "note_on_time": 1.728, "note_off_time": 1.845}, {"pitch": 62, "velocity": 88, "note_on_time": 2.028, "note_off_time": 2.146}, {"pitch": 64, "velocity": 84, "note_on_time": 2.341, "note_off_time": 2.472}, {"pitch": 62, "velocity": 84, "note_on_time": 2.701, "note_off_time": 2.815}, {"pitch": 60, "velocity": 92, "note_on_time": 3.008, "note_off_time": 3.286}, {"pitch": 60, "velocity": 87, "note_on_time": 3.619, "note_off_time": 3.801}, {"pitch": 62, "velocity": 86, "note_on_time": 4.802, "note_off_time": 4.929}, {"pitch": 64, "velocity": 71, "note_on_time": 5.242, "note_off_time": 5.364}, {"pitch": 60, "velocity": 89, "note_on_time": 6.614, "note_off_time": 6.783}, {"pitch": 64, "velocity": 87, "note_on_time": 6.995, "note_off_time": 7.136}, {"pitch": 62, "velocity": 86, "note_on_time": 7.32, "note_off_time": 7.424}, {"pitch": 62, "velocity": 87, "note_on_time": 7.605, "note_off_time": 7.724}, {"pitch": 62, "velocity": 88, "note_on_time": 7.902, "note_off_time": 8.115}, {"pitch": 60, "velocity": 92, "note_on_time": 8.518, "note_off_time": 8.838}, {"pitch": 64, "velocity": 90, "note_on_time": 9.378, "note_off_time": 9.491}, {"pitch": 64, "velocity": 90, "note_on_time": 9.636, "note_off_time": 9.794}, {"pitch": 60, "velocity": 91, "note_on_time": 9.905, "note_off_time": 10.07}, {"pitch": 62, "velocity": 85, "note_on_time": 10.232, "note_off_time": 10.373}]</notes><guidance name="Guidance Mode">None</guidance><error name="Error value">0.50179825</error></trial><trial trial_no="3" timestamp="2022_09_12-12_00_43"><notes name="Played Notes">[{"pitch": 64, "velocity": 71, "note_on_time": 1.357, "note_off_time": 1.54}, {"pitch": 64, "velocity": 76, "note_on_time": 2.29, "note_off_time": 2.442}, {"pitch": 62, "velocity": 81, "note_on_time": 2.653, "note_off_time": 2.775}, {"pitch": 62, "velocity": 88, "note_on_time": 2.957, "note_off_time": 3.103}, {"pitch": 64, "velocity": 86, "note_on_time": 3.255, "note_off_time": 3.426}, {"pitch": 62, "velocity": 82, "note_on_time": 3.649, "note_off_time": 3.788}, {"pitch": 60, "velocity": 90, "note_on_time": 4.082, "note_off_time": 4.392}, {"pitch": 60, "velocity": 90, "note_on_time": 4.918, "note_off_time": 5.064}, {"pitch": 64, "velocity": 84, "note_on_time": 5.955, "note_off_time": 6.076}, {"pitch": 64, "velocity": 81, "note_on_time": 6.224, "note_off_time": 6.365}, {"pitch": 60, "velocity": 81, "note_on_time": 7.182, "note_off_time": 7.355}, {"pitch": 64, "velocity": 81, "note_on_time": 7.511, "note_off_time": 7.676}, {"pitch": 62, "velocity": 85, "note_on_time": 7.823, "note_off_time": 7.941}, {"pitch": 62, "velocity": 86, "note_on_time": 8.126, "note_off_time": 8.251}, {"pitch": 62, "velocity": 89, "note_on_time": 8.456, "note_off_time": 8.828}, {"pitch": 60, "velocity": 92, "note_on_time": 9.308, "note_off_time": 9.564}, {"pitch": 64, "velocity": 83, "note_on_time": 9.992, "note_off_time": 10.106}, {"pitch": 64, "velocity": 84, "note_on_time": 10.242, "note_off_time": 10.366}]</notes><guidance name="Guidance Mode">None</guidance><error name="Error value">0.9886345000000001</error></trial></trials></MIDI>