<MIDI midiNo="2022_11_21-18_26_46"><target_notes><notes name="Note List">[{"pitch": 42, "velocity": 80, "note_on_time": 0.004, "note_off_time": 0.337}, {"pitch": 42, "velocity": 80, "note_on_time": 0.338, "note_off_time": 0.678}, {"pitch": 42, "velocity": 80, "note_on_time": 0.678, "note_off_time": 1.021}, {"pitch": 42, "velocity": 80, "note_on_time": 1.021, "note_off_time": 1.362}, {"pitch": 42, "velocity": 80, "note_on_time": 1.362, "note_off_time": 1.705}, {"pitch": 60, "velocity": 80, "note_on_time": 1.362, "note_off_time": 2.05}, {"pitch": 42, "velocity": 80, "note_on_time": 1.705, "note_off_time": 2.05}, {"pitch": 42, "velocity": 80, "note_on_time": 2.051, "note_off_time": 2.394}, {"pitch": 64, "velocity": 80, "note_on_time": 2.393, "note_off_time": 2.736}, {"pitch": 42, "velocity": 80, "note_on_time": 2.394, "note_off_time": 2.736}, {"pitch": 67, "velocity": 80, "note_on_time": 2.736, "note_off_time": 3.067}, {"pitch": 42, "velocity": 80, "note_on_time": 2.736, "note_off_time": 3.068}, {"pitch": 67, "velocity": 80, "note_on_time": 3.067, "note_off_time": 3.409}, {"pitch": 42, "velocity": 80, "note_on_time": 3.068, "note_off_time": 3.409}, {"pitch": 65, "velocity": 80, "note_on_time": 3.409, "note_off_time": 3.753}, {"pitch": 42, "velocity": 80, "note_on_time": 3.41, "note_off_time": 3.753}, {"pitch": 62, "velocity": 80, "note_on_time": 3.753, "note_off_time": 4.095}, {"pitch": 42, "velocity": 80, "note_on_time": 3.753, "note_off_time": 4.095}, {"pitch": 64, "velocity": 80, "note_on_time": 4.095, "note_off_time": 4.436}, {"pitch": 42, "velocity": 80, "note_on_time": 4.095, "note_off_time": 4.437}, {"pitch": 60, "velocity": 80, "note_on_time": 4.436, "note_off_time": 4.78}, {"pitch": 42, "velocity": 80, "note_on_time": 4.437, "note_off_time": 4.78}, {"pitch": 42, "velocity": 80, "note_on_time": 4.781, "note_off_time": 5.123}, {"pitch": 65, "velocity": 80, "note_on_time": 4.78, "note_off_time": 5.465}, {"pitch": 42, "velocity": 80, "note_on_time": 5.123, "note_off_time": 5.465}, {"pitch": 62, "velocity": 80, "note_on_time": 5.465, "note_off_time": 5.808}, {"pitch": 42, "velocity": 80, "note_on_time": 5.466, "note_off_time": 5.808}, {"pitch": 62, "velocity": 80, "note_on_time": 5.808, "note_off_time": 6.151}, {"pitch": 42, "velocity": 80, "note_on_time": 5.808, "note_off_time": 6.151}, {"pitch": 60, "velocity": 80, "note_on_time": 6.151, "note_off_time": 6.494}, {"pitch": 42, "velocity": 80, "note_on_time": 6.152, "note_off_time": 6.494}, {"pitch": 60, "velocity": 80, "note_on_time": 6.494, "note_off_time": 6.836}, {"pitch": 42, "velocity": 80, "note_on_time": 6.494, "note_off_time": 6.836}, {"pitch": 65, "velocity": 80, "note_on_time": 6.836, "note_off_time": 7.177}, {"pitch": 42, "velocity": 80, "note_on_time": 6.837, "note_off_time": 7.177}, {"pitch": 42, "velocity": 80, "note_on_time": 7.177, "note_off_time": 7.521}, {"pitch": 42, "velocity": 80, "note_on_time": 7.521, "note_off_time": 7.863}, {"pitch": 42, "velocity": 80, "note_on_time": 7.863, "note_off_time": 8.206}, {"pitch": 65, "velocity": 80, "note_on_time": 8.206, "note_off_time": 8.549}, {"pitch": 42, "velocity": 80, "note_on_time": 8.206, "note_off_time": 8.549}, {"pitch": 67, "velocity": 80, "note_on_time": 8.549, "note_off_time": 8.892}, {"pitch": 42, "velocity": 80, "note_on_time": 8.549, "note_off_time": 8.892}, {"pitch": 62, "velocity": 80, "note_on_time": 8.892, "note_off_time": 9.235}, {"pitch": 42, "velocity": 80, "note_on_time": 8.892, "note_off_time": 9.235}, {"pitch": 62, "velocity": 80, "note_on_time": 9.235, "note_off_time": 9.578}, {"pitch": 42, "velocity": 80, "note_on_time": 9.236, "note_off_time": 9.579}, {"pitch": 42, "velocity": 80, "note_on_time": 9.579, "note_off_time": 9.923}, {"pitch": 64, "velocity": 80, "note_on_time": 9.578, "note_off_time": 10.267}, {"pitch": 42, "velocity": 80, "note_on_time": 9.923, "note_off_time": 10.268}, {"pitch": 42, "velocity": 80, "note_on_time": 10.268, "note_off_time": 10.611}, {"pitch": 42, "velocity": 80, "note_on_time": 10.611, "note_off_time": 10.953}, {"pitch": 42, "velocity": 80, "note_on_time": 10.953, "note_off_time": 11.295}, {"pitch": 64, "velocity": 80, "note_on_time": 11.295, "note_off_time": 11.636}, {"pitch": 42, "velocity": 80, "note_on_time": 11.295, "note_off_time": 11.636}, {"pitch": 64, "velocity": 80, "note_on_time": 11.636, "note_off_time": 11.979}, {"pitch": 42, "velocity": 80, "note_on_time": 11.636, "note_off_time": 11.98}, {"pitch": 64, "velocity": 80, "note_on_time": 11.979, "note_off_time": 12.323}, {"pitch": 42, "velocity": 80, "note_on_time": 11.98, "note_off_time": 12.323}]</notes><options name="Option List">((4, 4), [0.5, 0.25], 3, 8, &lt;NoteRangePerHand.C_TO_G: 6&gt;, &lt;NoteRangePerHand.ONE_NOTE: 2&gt;, False, True, False, 182)</options></target_notes><trials><trial trial_no="1" timestamp="2022_11_21-18_26_32"><notes name="Played Notes">[{"pitch": 60, "velocity": 100, "note_on_time": 1.352, "note_off_time": 1.671}, {"pitch": 64, "velocity": 95, "note_on_time": 2.381, "note_off_time": 2.713}, {"pitch": 67, "velocity": 91, "note_on_time": 2.725, "note_off_time": 2.818}, {"pitch": 67, "velocity": 99, "note_on_time": 3.069, "note_off_time": 3.413}, {"pitch": 65, "velocity": 92, "note_on_time": 3.414, "note_off_time": 3.751}, {"pitch": 62, "velocity": 93, "note_on_time": 3.756, "note_off_time": 4.106}, {"pitch": 64, "velocity": 88, "note_on_time": 4.103, "note_off_time": 4.432}, {"pitch": 60, "velocity": 94, "note_on_time": 4.451, "note_off_time": 4.749}, {"pitch": 65, "velocity": 98, "note_on_time": 4.774, "note_off_time": 5.068}, {"pitch": 62, "velocity": 101, "note_on_time": 5.487, "note_off_time": 5.558}, {"pitch": 62, "velocity": 101, "note_on_time": 5.814, "note_off_time": 5.904}, {"pitch": 60, "velocity": 101, "note_on_time": 6.154, "note_off_time": 6.234}, {"pitch": 60, "velocity": 105, "note_on_time": 6.493, "note_off_time": 6.579}, {"pitch": 65, "velocity": 113, "note_on_time": 6.845, "note_off_time": 7.047}, {"pitch": 65, "velocity": 99, "note_on_time": 8.206, "note_off_time": 8.533}, {"pitch": 67, "velocity": 86, "note_on_time": 8.538, "note_off_time": 8.879}, {"pitch": 62, "velocity": 101, "note_on_time": 8.872, "note_off_time": 8.937}, {"pitch": 62, "velocity": 98, "note_on_time": 9.222, "note_off_time": 9.516}, {"pitch": 64, "velocity": 100, "note_on_time": 9.54, "note_off_time": 9.882}, {"pitch": 64, "velocity": 96, "note_on_time": 10.964, "note_off_time": 11.048}, {"pitch": 64, "velocity": 101, "note_on_time": 11.299, "note_off_time": 11.372}, {"pitch": 64, "velocity": 106, "note_on_time": 11.648, "note_off_time": 11.749}]</notes><guidance name="Guidance Mode">None</guidance><error name="Error value">0.029839473684210333</error></trial><trial trial_no="2" timestamp="2022_11_21-18_26_55"><notes name="Played Notes">[{"pitch": 60, "velocity": 102, "note_on_time": 1.384, "note_off_time": 1.688}, {"pitch": 64, "velocity": 92, "note_on_time": 2.414, "note_off_time": 2.749}, {"pitch": 67, "velocity": 92, "note_on_time": 2.758, "note_off_time": 2.868}, {"pitch": 67, "velocity": 95, "note_on_time": 3.106, "note_off_time": 3.457}, {"pitch": 65, "velocity": 90, "note_on_time": 3.448, "note_off_time": 3.787}, {"pitch": 62, "velocity": 86, "note_on_time": 3.793, "note_off_time": 4.127}, {"pitch": 64, "velocity": 84, "note_on_time": 4.141, "note_off_time": 4.471}, {"pitch": 60, "velocity": 83, "note_on_time": 4.484, "note_off_time": 4.826}, {"pitch": 65, "velocity": 94, "note_on_time": 4.818, "note_off_time": 5.107}, {"pitch": 62, "velocity": 96, "note_on_time": 5.962, "note_off_time": 6.048}, {"pitch": 62, "velocity": 93, "note_on_time": 6.348, "note_off_time": 6.451}, {"pitch": 60, "velocity": 102, "note_on_time": 6.662, "note_off_time": 6.752}, {"pitch": 60, "velocity": 100, "note_on_time": 6.995, "note_off_time": 7.087}, {"pitch": 65, "velocity": 103, "note_on_time": 7.362, "note_off_time": 7.645}, {"pitch": 65, "velocity": 100, "note_on_time": 8.961, "note_off_time": 9.263}, {"pitch": 67, "velocity": 88, "note_on_time": 9.266, "note_off_time": 9.632}, {"pitch": 62, "velocity": 95, "note_on_time": 9.626, "note_off_time": 9.693}, {"pitch": 62, "velocity": 97, "note_on_time": 9.956, "note_off_time": 10.277}, {"pitch": 64, "velocity": 88, "note_on_time": 10.288, "note_off_time": 10.693}, {"pitch": 64, "velocity": 94, "note_on_time": 11.565, "note_off_time": 11.671}, {"pitch": 64, "velocity": 95, "note_on_time": 11.963, "note_off_time": 12.035}]</notes><guidance name="Guidance Mode">None</guidance><error name="Error value">0.1495763157894737</error></trial><trial trial_no="3" timestamp="2022_11_21-18_27_15"><notes name="Played Notes">[{"pitch": 60, "velocity": 100, "note_on_time": 1.422, "note_off_time": 1.742}, {"pitch": 64, "velocity": 94, "note_on_time": 2.441, "note_off_time": 2.771}, {"pitch": 67, "velocity": 87, "note_on_time": 2.778, "note_off_time": 2.874}, {"pitch": 67, "velocity": 95, "note_on_time": 3.116, "note_off_time": 3.465}, {"pitch": 65, "velocity": 82, "note_on_time": 3.467, "note_off_time": 3.783}, {"pitch": 62, "velocity": 77, "note_on_time": 3.799, "note_off_time": 4.138}, {"pitch": 64, "velocity": 76, "note_on_time": 4.147, "note_off_time": 4.474}, {"pitch": 60, "velocity": 79, "note_on_time": 4.497, "note_off_time": 4.852}, {"pitch": 65, "velocity": 92, "note_on_time": 4.826, "note_off_time": 5.142}, {"pitch": 62, "velocity": 94, "note_on_time": 5.54, "note_off_time": 5.624}, {"pitch": 62, "velocity": 96, "note_on_time": 5.847, "note_off_time": 5.955}, {"pitch": 60, "velocity": 102, "note_on_time": 6.184, "note_off_time": 6.268}, {"pitch": 60, "velocity": 102, "note_on_time": 6.513, "note_off_time": 6.626}, {"pitch": 65, "velocity": 104, "note_on_time": 6.878, "note_off_time": 7.137}, {"pitch": 65, "velocity": 102, "note_on_time": 8.212, "note_off_time": 8.532}, {"pitch": 67, "velocity": 78, "note_on_time": 8.554, "note_off_time": 8.909}, {"pitch": 62, "velocity": 90, "note_on_time": 8.908, "note_off_time": 8.972}, {"pitch": 62, "velocity": 100, "note_on_time": 9.25, "note_off_time": 9.335}, {"pitch": 64, "velocity": 111, "note_on_time": 9.609, "note_off_time": 9.893}, {"pitch": 64, "velocity": 85, "note_on_time": 10.949, "note_off_time": 11.044}, {"pitch": 64, "velocity": 91, "note_on_time": 11.289, "note_off_time": 11.363}, {"pitch": 64, "velocity": 101, "note_on_time": 11.628, "note_off_time": 11.742}]</notes><guidance name="Guidance Mode">None</guidance><error name="Error value">0.03426052631578947</error></trial></trials></MIDI>