<MIDI midiNo="2022_11_03-10_41_14"><target_notes><notes name="Note List">[{"pitch": 42, "velocity": 80, "note_on_time": 0.004, "note_off_time": 0.229}, {"pitch": 42, "velocity": 80, "note_on_time": 0.229, "note_off_time": 0.445}, {"pitch": 42, "velocity": 80, "note_on_time": 0.445, "note_off_time": 0.661}, {"pitch": 42, "velocity": 80, "note_on_time": 0.661, "note_off_time": 0.878}, {"pitch": 60, "velocity": 80, "note_on_time": 0.878, "note_off_time": 1.095}, {"pitch": 42, "velocity": 80, "note_on_time": 0.878, "note_off_time": 1.095}, {"pitch": 64, "velocity": 80, "note_on_time": 1.095, "note_off_time": 1.318}, {"pitch": 42, "velocity": 80, "note_on_time": 1.095, "note_off_time": 1.318}, {"pitch": 65, "velocity": 80, "note_on_time": 1.318, "note_off_time": 1.535}, {"pitch": 42, "velocity": 80, "note_on_time": 1.318, "note_off_time": 1.535}, {"pitch": 60, "velocity": 80, "note_on_time": 1.535, "note_off_time": 1.752}, {"pitch": 42, "velocity": 80, "note_on_time": 1.535, "note_off_time": 1.752}, {"pitch": 42, "velocity": 80, "note_on_time": 1.752, "note_off_time": 1.971}, {"pitch": 60, "velocity": 80, "note_on_time": 1.752, "note_off_time": 2.186}, {"pitch": 42, "velocity": 80, "note_on_time": 1.971, "note_off_time": 2.186}, {"pitch": 42, "velocity": 80, "note_on_time": 2.187, "note_off_time": 2.405}, {"pitch": 65, "velocity": 80, "note_on_time": 2.404, "note_off_time": 2.62}, {"pitch": 42, "velocity": 80, "note_on_time": 2.405, "note_off_time": 2.62}, {"pitch": 64, "velocity": 80, "note_on_time": 2.62, "note_off_time": 2.839}, {"pitch": 42, "velocity": 80, "note_on_time": 2.621, "note_off_time": 2.839}, {"pitch": 67, "velocity": 80, "note_on_time": 2.839, "note_off_time": 3.057}, {"pitch": 42, "velocity": 80, "note_on_time": 2.839, "note_off_time": 3.058}, {"pitch": 62, "velocity": 80, "note_on_time": 3.057, "note_off_time": 3.275}, {"pitch": 42, "velocity": 80, "note_on_time": 3.058, "note_off_time": 3.275}, {"pitch": 62, "velocity": 80, "note_on_time": 3.275, "note_off_time": 3.491}, {"pitch": 42, "velocity": 80, "note_on_time": 3.275, "note_off_time": 3.491}, {"pitch": 62, "velocity": 80, "note_on_time": 3.491, "note_off_time": 3.708}, {"pitch": 42, "velocity": 80, "note_on_time": 3.492, "note_off_time": 3.708}, {"pitch": 42, "velocity": 80, "note_on_time": 3.708, "note_off_time": 3.927}, {"pitch": 42, "velocity": 80, "note_on_time": 3.927, "note_off_time": 4.144}, {"pitch": 42, "velocity": 80, "note_on_time": 4.144, "note_off_time": 4.363}, {"pitch": 65, "velocity": 80, "note_on_time": 4.363, "note_off_time": 4.58}, {"pitch": 42, "velocity": 80, "note_on_time": 4.363, "note_off_time": 4.58}, {"pitch": 42, "velocity": 80, "note_on_time": 4.58, "note_off_time": 4.799}, {"pitch": 42, "velocity": 80, "note_on_time": 4.799, "note_off_time": 5.019}, {"pitch": 42, "velocity": 80, "note_on_time": 5.019, "note_off_time": 5.235}, {"pitch": 64, "velocity": 80, "note_on_time": 5.235, "note_off_time": 5.454}, {"pitch": 42, "velocity": 80, "note_on_time": 5.235, "note_off_time": 5.454}, {"pitch": 65, "velocity": 80, "note_on_time": 5.454, "note_off_time": 5.671}, {"pitch": 42, "velocity": 80, "note_on_time": 5.454, "note_off_time": 5.671}, {"pitch": 65, "velocity": 80, "note_on_time": 5.671, "note_off_time": 5.887}, {"pitch": 42, "velocity": 80, "note_on_time": 5.671, "note_off_time": 5.887}, {"pitch": 64, "velocity": 80, "note_on_time": 5.887, "note_off_time": 6.106}, {"pitch": 42, "velocity": 80, "note_on_time": 5.887, "note_off_time": 6.106}, {"pitch": 42, "velocity": 80, "note_on_time": 6.107, "note_off_time": 6.323}, {"pitch": 64, "velocity": 80, "note_on_time": 6.106, "note_off_time": 6.54}, {"pitch": 42, "velocity": 80, "note_on_time": 6.323, "note_off_time": 6.54}, {"pitch": 42, "velocity": 80, "note_on_time": 6.54, "note_off_time": 6.758}, {"pitch": 42, "velocity": 80, "note_on_time": 6.758, "note_off_time": 6.975}, {"pitch": 42, "velocity": 80, "note_on_time": 6.975, "note_off_time": 7.192}, {"pitch": 64, "velocity": 80, "note_on_time": 7.192, "note_off_time": 7.411}, {"pitch": 42, "velocity": 80, "note_on_time": 7.192, "note_off_time": 7.411}, {"pitch": 64, "velocity": 80, "note_on_time": 7.411, "note_off_time": 7.629}, {"pitch": 42, "velocity": 80, "note_on_time": 7.411, "note_off_time": 7.629}, {"pitch": 64, "velocity": 80, "note_on_time": 7.629, "note_off_time": 7.847}, {"pitch": 42, "velocity": 80, "note_on_time": 7.629, "note_off_time": 7.847}]</notes><options name="Option List">((4, 4), [0.5, 0.25], 3, 8, &lt;NoteRangePerHand.C_TO_G: 6&gt;, &lt;NoteRangePerHand.ONE_NOTE: 2&gt;, False, True, False, 281)</options></target_notes><trials><trial trial_no="1" timestamp="2022_11_03-10_41_05"><notes name="Played Notes">[{"pitch": 60, "velocity": 80, "note_on_time": 0.893, "note_off_time": 1.189}, {"pitch": 64, "velocity": 68, "note_on_time": 1.12, "note_off_time": 1.412}, {"pitch": 65, "velocity": 81, "note_on_time": 1.351, "note_off_time": 1.621}, {"pitch": 60, "velocity": 76, "note_on_time": 1.581, "note_off_time": 1.71}, {"pitch": 60, "velocity": 83, "note_on_time": 1.821, "note_off_time": 2.478}, {"pitch": 65, "velocity": 64, "note_on_time": 2.472, "note_off_time": 2.727}, {"pitch": 64, "velocity": 67, "note_on_time": 2.713, "note_off_time": 2.94}, {"pitch": 67, "velocity": 69, "note_on_time": 2.947, "note_off_time": 3.19}, {"pitch": 62, "velocity": 69, "note_on_time": 3.182, "note_off_time": 3.283}, {"pitch": 62, "velocity": 74, "note_on_time": 3.441, "note_off_time": 3.535}, {"pitch": 62, "velocity": 79, "note_on_time": 3.692, "note_off_time": 3.925}, {"pitch": 65, "velocity": 90, "note_on_time": 4.589, "note_off_time": 4.69}, {"pitch": 64, "velocity": 71, "note_on_time": 5.288, "note_off_time": 5.517}, {"pitch": 65, "velocity": 78, "note_on_time": 5.502, "note_off_time": 5.592}, {"pitch": 65, "velocity": 60, "note_on_time": 5.721, "note_off_time": 5.916}, {"pitch": 64, "velocity": 73, "note_on_time": 5.932, "note_off_time": 6.034}, {"pitch": 64, "velocity": 79, "note_on_time": 6.171, "note_off_time": 6.426}, {"pitch": 64, "velocity": 88, "note_on_time": 6.966, "note_off_time": 7.044}, {"pitch": 64, "velocity": 84, "note_on_time": 7.181, "note_off_time": 7.274}, {"pitch": 64, "velocity": 77, "note_on_time": 7.4, "note_off_time": 7.595}]</notes><guidance name="Guidance Mode">None</guidance><error name="Error value">0.044014529411764716</error></trial></trials></MIDI>