<MIDI midiNo="2022_12_15-13_15_08"><target_notes><notes name="Note List">[{"pitch": 42, "velocity": 80, "note_on_time": 0.005, "note_off_time": 0.738}, {"pitch": 42, "velocity": 80, "note_on_time": 0.738, "note_off_time": 1.474}, {"pitch": 42, "velocity": 80, "note_on_time": 1.474, "note_off_time": 2.205}, {"pitch": 42, "velocity": 80, "note_on_time": 2.205, "note_off_time": 2.935}, {"pitch": 62, "velocity": 80, "note_on_time": 2.934, "note_off_time": 3.666}, {"pitch": 42, "velocity": 80, "note_on_time": 2.935, "note_off_time": 3.666}, {"pitch": 60, "velocity": 80, "note_on_time": 3.666, "note_off_time": 4.399}, {"pitch": 42, "velocity": 80, "note_on_time": 3.667, "note_off_time": 4.399}, {"pitch": 60, "velocity": 80, "note_on_time": 4.399, "note_off_time": 5.133}, {"pitch": 42, "velocity": 80, "note_on_time": 4.399, "note_off_time": 5.134}, {"pitch": 62, "velocity": 80, "note_on_time": 5.133, "note_off_time": 5.864}, {"pitch": 42, "velocity": 80, "note_on_time": 5.134, "note_off_time": 5.864}, {"pitch": 60, "velocity": 80, "note_on_time": 5.864, "note_off_time": 6.597}, {"pitch": 42, "velocity": 80, "note_on_time": 5.865, "note_off_time": 6.598}, {"pitch": 64, "velocity": 80, "note_on_time": 6.597, "note_off_time": 7.33}, {"pitch": 42, "velocity": 80, "note_on_time": 6.598, "note_off_time": 7.331}, {"pitch": 62, "velocity": 80, "note_on_time": 7.33, "note_off_time": 8.064}, {"pitch": 42, "velocity": 80, "note_on_time": 7.331, "note_off_time": 8.065}, {"pitch": 64, "velocity": 80, "note_on_time": 8.064, "note_off_time": 8.797}, {"pitch": 42, "velocity": 80, "note_on_time": 8.065, "note_off_time": 8.797}, {"pitch": 60, "velocity": 80, "note_on_time": 8.797, "note_off_time": 9.528}, {"pitch": 42, "velocity": 80, "note_on_time": 8.797, "note_off_time": 9.528}, {"pitch": 42, "velocity": 80, "note_on_time": 9.529, "note_off_time": 10.262}, {"pitch": 62, "velocity": 80, "note_on_time": 9.528, "note_off_time": 11.0}, {"pitch": 42, "velocity": 80, "note_on_time": 10.262, "note_off_time": 11.001}, {"pitch": 42, "velocity": 80, "note_on_time": 11.001, "note_off_time": 11.735}, {"pitch": 60, "velocity": 80, "note_on_time": 11.734, "note_off_time": 12.462}, {"pitch": 42, "velocity": 80, "note_on_time": 11.735, "note_off_time": 12.462}, {"pitch": 64, "velocity": 80, "note_on_time": 12.462, "note_off_time": 13.197}, {"pitch": 42, "velocity": 80, "note_on_time": 12.463, "note_off_time": 13.197}, {"pitch": 62, "velocity": 80, "note_on_time": 13.197, "note_off_time": 13.931}, {"pitch": 42, "velocity": 80, "note_on_time": 13.197, "note_off_time": 13.931}, {"pitch": 64, "velocity": 80, "note_on_time": 13.931, "note_off_time": 14.666}, {"pitch": 42, "velocity": 80, "note_on_time": 13.932, "note_off_time": 14.666}, {"pitch": 60, "velocity": 80, "note_on_time": 14.666, "note_off_time": 15.399}, {"pitch": 42, "velocity": 80, "note_on_time": 14.667, "note_off_time": 15.399}, {"pitch": 64, "velocity": 80, "note_on_time": 15.399, "note_off_time": 16.131}, {"pitch": 42, "velocity": 80, "note_on_time": 15.399, "note_off_time": 16.132}, {"pitch": 42, "velocity": 80, "note_on_time": 16.132, "note_off_time": 16.865}, {"pitch": 62, "velocity": 80, "note_on_time": 16.131, "note_off_time": 17.603}, {"pitch": 42, "velocity": 80, "note_on_time": 16.866, "note_off_time": 17.603}, {"pitch": 64, "velocity": 80, "note_on_time": 17.603, "note_off_time": 18.336}, {"pitch": 42, "velocity": 80, "note_on_time": 17.603, "note_off_time": 18.336}, {"pitch": 42, "velocity": 80, "note_on_time": 18.337, "note_off_time": 19.068}, {"pitch": 42, "velocity": 80, "note_on_time": 19.069, "note_off_time": 19.8}, {"pitch": 60, "velocity": 80, "note_on_time": 19.8, "note_off_time": 20.535}, {"pitch": 42, "velocity": 80, "note_on_time": 19.8, "note_off_time": 20.535}, {"pitch": 60, "velocity": 80, "note_on_time": 20.535, "note_off_time": 21.269}, {"pitch": 42, "velocity": 80, "note_on_time": 20.535, "note_off_time": 21.269}, {"pitch": 60, "velocity": 80, "note_on_time": 21.269, "note_off_time": 22.003}, {"pitch": 42, "velocity": 80, "note_on_time": 21.27, "note_off_time": 22.003}, {"pitch": 64, "velocity": 80, "note_on_time": 22.003, "note_off_time": 22.737}, {"pitch": 42, "velocity": 80, "note_on_time": 22.003, "note_off_time": 22.738}, {"pitch": 62, "velocity": 80, "note_on_time": 22.737, "note_off_time": 23.471}, {"pitch": 42, "velocity": 80, "note_on_time": 22.738, "note_off_time": 23.472}, {"pitch": 42, "velocity": 80, "note_on_time": 23.472, "note_off_time": 24.205}, {"pitch": 62, "velocity": 80, "note_on_time": 24.205, "note_off_time": 24.935}, {"pitch": 42, "velocity": 80, "note_on_time": 24.205, "note_off_time": 24.936}, {"pitch": 62, "velocity": 80, "note_on_time": 24.935, "note_off_time": 25.668}, {"pitch": 42, "velocity": 80, "note_on_time": 24.936, "note_off_time": 25.668}, {"pitch": 62, "velocity": 80, "note_on_time": 25.668, "note_off_time": 26.405}, {"pitch": 42, "velocity": 80, "note_on_time": 25.668, "note_off_time": 26.405}]</notes><options name="Option List">((4, 4), [0.5, 0.25], 3, 8, &lt;NoteRangePerHand.THREE_NOTES: 4&gt;, &lt;NoteRangePerHand.ONE_NOTE: 2&gt;, False, True, False, 83)</options></target_notes><trials><trial trial_no="1" timestamp="2022_12_15-13_14_40"><notes name="Played Notes">[{"pitch": 62, "velocity": 51, "note_on_time": 2.864, "note_off_time": 3.06}, {"pitch": 60, "velocity": 60, "note_on_time": 3.614, "note_off_time": 3.788}, {"pitch": 60, "velocity": 69, "note_on_time": 4.348, "note_off_time": 4.513}, {"pitch": 62, "velocity": 54, "note_on_time": 5.058, "note_off_time": 5.201}, {"pitch": 60, "velocity": 57, "note_on_time": 5.786, "note_off_time": 5.919}, {"pitch": 64, "velocity": 64, "note_on_time": 6.52, "note_off_time": 6.662}, {"pitch": 62, "velocity": 47, "note_on_time": 7.245, "note_off_time": 7.381}, {"pitch": 64, "velocity": 53, "note_on_time": 7.995, "note_off_time": 8.138}, {"pitch": 60, "velocity": 56, "note_on_time": 8.698, "note_off_time": 8.844}, {"pitch": 62, "velocity": 65, "note_on_time": 9.479, "note_off_time": 10.624}, {"pitch": 60, "velocity": 67, "note_on_time": 11.625, "note_off_time": 11.77}, {"pitch": 64, "velocity": 60, "note_on_time": 12.387, "note_off_time": 12.524}, {"pitch": 62, "velocity": 45, "note_on_time": 13.129, "note_off_time": 13.237}, {"pitch": 64, "velocity": 58, "note_on_time": 13.871, "note_off_time": 14.013}, {"pitch": 60, "velocity": 65, "note_on_time": 14.613, "note_off_time": 14.733}, {"pitch": 64, "velocity": 60, "note_on_time": 15.352, "note_off_time": 15.496}, {"pitch": 62, "velocity": 66, "note_on_time": 16.082, "note_off_time": 16.851}, {"pitch": 64, "velocity": 66, "note_on_time": 17.547, "note_off_time": 17.729}, {"pitch": 60, "velocity": 64, "note_on_time": 19.77, "note_off_time": 19.938}, {"pitch": 60, "velocity": 66, "note_on_time": 20.535, "note_off_time": 20.661}, {"pitch": 60, "velocity": 71, "note_on_time": 21.228, "note_off_time": 21.347}, {"pitch": 64, "velocity": 64, "note_on_time": 21.968, "note_off_time": 22.094}, {"pitch": 62, "velocity": 76, "note_on_time": 22.687, "note_off_time": 22.835}, {"pitch": 62, "velocity": 64, "note_on_time": 24.15, "note_off_time": 24.27}, {"pitch": 62, "velocity": 61, "note_on_time": 24.917, "note_off_time": 25.044}, {"pitch": 62, "velocity": 64, "note_on_time": 25.641, "note_off_time": 25.761}]</notes><guidance name="Guidance Mode">None</guidance><error name="Error value">0.023732739130434055</error></trial><trial trial_no="2" timestamp="2022_12_15-13_15_16"><notes name="Played Notes">[{"pitch": 62, "velocity": 56, "note_on_time": 2.957, "note_off_time": 3.131}, {"pitch": 60, "velocity": 59, "note_on_time": 3.654, "note_off_time": 3.794}, {"pitch": 60, "velocity": 61, "note_on_time": 4.392, "note_off_time": 4.54}, {"pitch": 62, "velocity": 56, "note_on_time": 5.147, "note_off_time": 5.276}, {"pitch": 60, "velocity": 64, "note_on_time": 5.816, "note_off_time": 5.948}, {"pitch": 64, "velocity": 63, "note_on_time": 6.574, "note_off_time": 6.718}, {"pitch": 62, "velocity": 59, "note_on_time": 7.281, "note_off_time": 7.41}, {"pitch": 64, "velocity": 55, "note_on_time": 8.043, "note_off_time": 8.182}, {"pitch": 60, "velocity": 56, "note_on_time": 8.732, "note_off_time": 8.822}, {"pitch": 62, "velocity": 66, "note_on_time": 9.48, "note_off_time": 10.361}, {"pitch": 60, "velocity": 60, "note_on_time": 11.676, "note_off_time": 11.815}, {"pitch": 64, "velocity": 58, "note_on_time": 12.43, "note_off_time": 12.585}, {"pitch": 62, "velocity": 74, "note_on_time": 13.143, "note_off_time": 13.257}, {"pitch": 64, "velocity": 68, "note_on_time": 13.9, "note_off_time": 14.039}, {"pitch": 60, "velocity": 71, "note_on_time": 14.626, "note_off_time": 14.752}, {"pitch": 64, "velocity": 63, "note_on_time": 15.367, "note_off_time": 15.513}, {"pitch": 62, "velocity": 59, "note_on_time": 16.113, "note_off_time": 16.932}, {"pitch": 64, "velocity": 66, "note_on_time": 17.558, "note_off_time": 17.721}, {"pitch": 60, "velocity": 73, "note_on_time": 19.785, "note_off_time": 19.976}, {"pitch": 60, "velocity": 65, "note_on_time": 20.534, "note_off_time": 20.667}, {"pitch": 60, "velocity": 67, "note_on_time": 21.263, "note_off_time": 21.394}, {"pitch": 64, "velocity": 62, "note_on_time": 21.988, "note_off_time": 22.126}, {"pitch": 62, "velocity": 64, "note_on_time": 22.705, "note_off_time": 23.094}, {"pitch": 62, "velocity": 69, "note_on_time": 24.127, "note_off_time": 24.281}, {"pitch": 62, "velocity": 77, "note_on_time": 24.857, "note_off_time": 24.994}, {"pitch": 62, "velocity": 72, "note_on_time": 25.623, "note_off_time": 25.784}]</notes><guidance name="Guidance Mode">None</guidance><error name="Error value">0.025921695652173775</error></trial><trial trial_no="3" timestamp="2022_12_15-13_15_50"><notes name="Played Notes">[{"pitch": 62, "velocity": 59, "note_on_time": 2.921, "note_off_time": 3.132}, {"pitch": 60, "velocity": 57, "note_on_time": 3.659, "note_off_time": 3.866}, {"pitch": 60, "velocity": 56, "note_on_time": 4.388, "note_off_time": 4.546}, {"pitch": 62, "velocity": 63, "note_on_time": 5.123, "note_off_time": 5.262}, {"pitch": 60, "velocity": 59, "note_on_time": 5.824, "note_off_time": 5.947}, {"pitch": 64, "velocity": 64, "note_on_time": 6.568, "note_off_time": 6.703}, {"pitch": 62, "velocity": 60, "note_on_time": 7.256, "note_off_time": 7.39}, {"pitch": 64, "velocity": 60, "note_on_time": 8.013, "note_off_time": 8.144}, {"pitch": 60, "velocity": 55, "note_on_time": 8.762, "note_off_time": 8.855}, {"pitch": 62, "velocity": 67, "note_on_time": 9.526, "note_off_time": 10.704}, {"pitch": 60, "velocity": 57, "note_on_time": 11.737, "note_off_time": 11.881}, {"pitch": 64, "velocity": 64, "note_on_time": 12.446, "note_off_time": 12.58}, {"pitch": 62, "velocity": 59, "note_on_time": 13.149, "note_off_time": 13.272}, {"pitch": 64, "velocity": 60, "note_on_time": 13.911, "note_off_time": 14.041}, {"pitch": 60, "velocity": 44, "note_on_time": 14.657, "note_off_time": 14.756}, {"pitch": 64, "velocity": 59, "note_on_time": 15.4, "note_off_time": 15.532}, {"pitch": 62, "velocity": 62, "note_on_time": 16.117, "note_off_time": 16.87}, {"pitch": 64, "velocity": 63, "note_on_time": 17.605, "note_off_time": 17.794}, {"pitch": 60, "velocity": 64, "note_on_time": 19.826, "note_off_time": 19.951}, {"pitch": 60, "velocity": 59, "note_on_time": 20.544, "note_off_time": 20.669}, {"pitch": 60, "velocity": 65, "note_on_time": 21.266, "note_off_time": 21.387}, {"pitch": 64, "velocity": 60, "note_on_time": 21.972, "note_off_time": 22.117}, {"pitch": 62, "velocity": 63, "note_on_time": 22.712, "note_off_time": 22.784}, {"pitch": 62, "velocity": 59, "note_on_time": 24.136, "note_off_time": 24.272}, {"pitch": 62, "velocity": 64, "note_on_time": 24.891, "note_off_time": 25.025}, {"pitch": 62, "velocity": 66, "note_on_time": 25.653, "note_off_time": 25.802}]</notes><guidance name="Guidance Mode">None</guidance><error name="Error value">0.02626952173913028</error></trial></trials></MIDI>