<MIDI midiNo="2022_11_14-18_56_31"><target_notes><notes name="Note List">[{"pitch": 42, "velocity": 80, "note_on_time": 0.004, "note_off_time": 0.225}, {"pitch": 42, "velocity": 80, "note_on_time": 0.225, "note_off_time": 0.443}, {"pitch": 42, "velocity": 80, "note_on_time": 0.443, "note_off_time": 0.663}, {"pitch": 42, "velocity": 80, "note_on_time": 0.663, "note_off_time": 0.882}, {"pitch": 62, "velocity": 80, "note_on_time": 0.882, "note_off_time": 1.102}, {"pitch": 42, "velocity": 80, "note_on_time": 0.882, "note_off_time": 1.102}, {"pitch": 60, "velocity": 80, "note_on_time": 1.102, "note_off_time": 1.322}, {"pitch": 42, "velocity": 80, "note_on_time": 1.102, "note_off_time": 1.322}, {"pitch": 42, "velocity": 80, "note_on_time": 1.323, "note_off_time": 1.541}, {"pitch": 64, "velocity": 80, "note_on_time": 1.322, "note_off_time": 1.759}, {"pitch": 42, "velocity": 80, "note_on_time": 1.541, "note_off_time": 1.759}, {"pitch": 64, "velocity": 80, "note_on_time": 1.759, "note_off_time": 1.977}, {"pitch": 42, "velocity": 80, "note_on_time": 1.76, "note_off_time": 1.977}, {"pitch": 62, "velocity": 80, "note_on_time": 1.977, "note_off_time": 2.196}, {"pitch": 42, "velocity": 80, "note_on_time": 1.977, "note_off_time": 2.196}, {"pitch": 65, "velocity": 80, "note_on_time": 2.196, "note_off_time": 2.413}, {"pitch": 42, "velocity": 80, "note_on_time": 2.196, "note_off_time": 2.413}, {"pitch": 62, "velocity": 80, "note_on_time": 2.413, "note_off_time": 2.629}, {"pitch": 42, "velocity": 80, "note_on_time": 2.413, "note_off_time": 2.629}, {"pitch": 65, "velocity": 80, "note_on_time": 2.629, "note_off_time": 2.845}, {"pitch": 42, "velocity": 80, "note_on_time": 2.629, "note_off_time": 2.845}, {"pitch": 62, "velocity": 80, "note_on_time": 2.845, "note_off_time": 3.062}, {"pitch": 42, "velocity": 80, "note_on_time": 2.845, "note_off_time": 3.063}, {"pitch": 62, "velocity": 80, "note_on_time": 3.062, "note_off_time": 3.28}, {"pitch": 42, "velocity": 80, "note_on_time": 3.063, "note_off_time": 3.28}, {"pitch": 64, "velocity": 80, "note_on_time": 3.28, "note_off_time": 3.5}, {"pitch": 42, "velocity": 80, "note_on_time": 3.28, "note_off_time": 3.5}, {"pitch": 62, "velocity": 80, "note_on_time": 3.5, "note_off_time": 3.719}, {"pitch": 42, "velocity": 80, "note_on_time": 3.5, "note_off_time": 3.719}, {"pitch": 60, "velocity": 80, "note_on_time": 3.719, "note_off_time": 3.938}, {"pitch": 42, "velocity": 80, "note_on_time": 3.719, "note_off_time": 3.938}, {"pitch": 64, "velocity": 80, "note_on_time": 3.938, "note_off_time": 4.157}, {"pitch": 42, "velocity": 80, "note_on_time": 3.938, "note_off_time": 4.157}, {"pitch": 65, "velocity": 80, "note_on_time": 4.157, "note_off_time": 4.377}, {"pitch": 42, "velocity": 80, "note_on_time": 4.158, "note_off_time": 4.377}, {"pitch": 64, "velocity": 80, "note_on_time": 4.377, "note_off_time": 4.596}, {"pitch": 42, "velocity": 80, "note_on_time": 4.377, "note_off_time": 4.596}, {"pitch": 62, "velocity": 80, "note_on_time": 4.596, "note_off_time": 4.815}, {"pitch": 42, "velocity": 80, "note_on_time": 4.596, "note_off_time": 4.815}, {"pitch": 60, "velocity": 80, "note_on_time": 4.815, "note_off_time": 5.034}, {"pitch": 42, "velocity": 80, "note_on_time": 4.815, "note_off_time": 5.034}, {"pitch": 65, "velocity": 80, "note_on_time": 5.034, "note_off_time": 5.251}, {"pitch": 42, "velocity": 80, "note_on_time": 5.034, "note_off_time": 5.251}, {"pitch": 62, "velocity": 80, "note_on_time": 5.251, "note_off_time": 5.468}, {"pitch": 42, "velocity": 80, "note_on_time": 5.251, "note_off_time": 5.468}, {"pitch": 62, "velocity": 80, "note_on_time": 5.468, "note_off_time": 5.687}, {"pitch": 42, "velocity": 80, "note_on_time": 5.468, "note_off_time": 5.687}, {"pitch": 65, "velocity": 80, "note_on_time": 5.687, "note_off_time": 5.904}, {"pitch": 42, "velocity": 80, "note_on_time": 5.688, "note_off_time": 5.904}, {"pitch": 64, "velocity": 80, "note_on_time": 5.904, "note_off_time": 6.121}, {"pitch": 42, "velocity": 80, "note_on_time": 5.904, "note_off_time": 6.121}, {"pitch": 65, "velocity": 80, "note_on_time": 6.121, "note_off_time": 6.339}, {"pitch": 42, "velocity": 80, "note_on_time": 6.121, "note_off_time": 6.339}, {"pitch": 65, "velocity": 80, "note_on_time": 6.339, "note_off_time": 6.558}, {"pitch": 42, "velocity": 80, "note_on_time": 6.339, "note_off_time": 6.558}, {"pitch": 60, "velocity": 80, "note_on_time": 6.558, "note_off_time": 6.778}, {"pitch": 42, "velocity": 80, "note_on_time": 6.558, "note_off_time": 6.778}, {"pitch": 62, "velocity": 80, "note_on_time": 6.778, "note_off_time": 6.995}, {"pitch": 42, "velocity": 80, "note_on_time": 6.778, "note_off_time": 6.995}, {"pitch": 42, "velocity": 80, "note_on_time": 6.995, "note_off_time": 7.216}, {"pitch": 62, "velocity": 80, "note_on_time": 7.216, "note_off_time": 7.433}, {"pitch": 42, "velocity": 80, "note_on_time": 7.216, "note_off_time": 7.433}, {"pitch": 62, "velocity": 80, "note_on_time": 7.433, "note_off_time": 7.651}, {"pitch": 42, "velocity": 80, "note_on_time": 7.433, "note_off_time": 7.651}, {"pitch": 62, "velocity": 80, "note_on_time": 7.651, "note_off_time": 7.867}, {"pitch": 42, "velocity": 80, "note_on_time": 7.651, "note_off_time": 7.867}]</notes><options name="Option List">((4, 4), [0.5, 0.25], 3, 8, &lt;NoteRangePerHand.FOUR_NOTES: 5&gt;, &lt;NoteRangePerHand.ONE_NOTE: 2&gt;, False, True, False, 281)</options></target_notes><trials><trial trial_no="1" timestamp="2022_11_14-18_56_22"><notes name="Played Notes">[{"pitch": 62, "velocity": 54, "note_on_time": 0.964, "note_off_time": 1.176}, {"pitch": 60, "velocity": 72, "note_on_time": 1.19, "note_off_time": 1.424}, {"pitch": 64, "velocity": 77, "note_on_time": 1.437, "note_off_time": 1.744}, {"pitch": 64, "velocity": 66, "note_on_time": 1.924, "note_off_time": 2.142}, {"pitch": 62, "velocity": 70, "note_on_time": 2.146, "note_off_time": 2.394}, {"pitch": 65, "velocity": 78, "note_on_time": 2.394, "note_off_time": 2.631}, {"pitch": 62, "velocity": 75, "note_on_time": 2.627, "note_off_time": 2.873}, {"pitch": 65, "velocity": 81, "note_on_time": 2.882, "note_off_time": 3.074}, {"pitch": 62, "velocity": 84, "note_on_time": 3.1, "note_off_time": 3.191}, {"pitch": 62, "velocity": 82, "note_on_time": 3.345, "note_off_time": 3.581}, {"pitch": 64, "velocity": 79, "note_on_time": 3.59, "note_off_time": 3.851}, {"pitch": 62, "velocity": 74, "note_on_time": 3.849, "note_off_time": 4.107}, {"pitch": 60, "velocity": 84, "note_on_time": 4.101, "note_off_time": 4.351}, {"pitch": 62, "velocity": 71, "note_on_time": 4.356, "note_off_time": 4.441}, {"pitch": 64, "velocity": 61, "note_on_time": 4.43, "note_off_time": 4.628}, {"pitch": 65, "velocity": 74, "note_on_time": 4.737, "note_off_time": 5.025}, {"pitch": 64, "velocity": 79, "note_on_time": 5.04, "note_off_time": 5.336}, {"pitch": 62, "velocity": 78, "note_on_time": 5.306, "note_off_time": 5.591}, {"pitch": 60, "velocity": 5, "note_on_time": 5.678, "note_off_time": 5.815}, {"pitch": 65, "velocity": 57, "note_on_time": 5.929, "note_off_time": 6.2}, {"pitch": 62, "velocity": 79, "note_on_time": 6.353, "note_off_time": 6.471}, {"pitch": 62, "velocity": 73, "note_on_time": 6.609, "note_off_time": 6.795}, {"pitch": 65, "velocity": 67, "note_on_time": 6.847, "note_off_time": 7.076}, {"pitch": 64, "velocity": 67, "note_on_time": 7.093, "note_off_time": 7.311}, {"pitch": 65, "velocity": 83, "note_on_time": 7.406, "note_off_time": 7.514}]</notes><guidance name="Guidance Mode">None</guidance><error name="Error value">0.746398888888889</error></trial><trial trial_no="2" timestamp="2022_11_14-18_56_41"><notes name="Played Notes">[{"pitch": 62, "velocity": 70, "note_on_time": 0.945, "note_off_time": 1.205}, {"pitch": 60, "velocity": 79, "note_on_time": 1.181, "note_off_time": 1.419}, {"pitch": 64, "velocity": 84, "note_on_time": 1.417, "note_off_time": 1.715}, {"pitch": 64, "velocity": 79, "note_on_time": 1.886, "note_off_time": 2.145}, {"pitch": 62, "velocity": 77, "note_on_time": 2.127, "note_off_time": 2.357}, {"pitch": 65, "velocity": 82, "note_on_time": 2.357, "note_off_time": 2.609}, {"pitch": 62, "velocity": 78, "note_on_time": 2.596, "note_off_time": 2.87}, {"pitch": 65, "velocity": 84, "note_on_time": 2.85, "note_off_time": 3.101}, {"pitch": 62, "velocity": 84, "note_on_time": 3.103, "note_off_time": 3.207}, {"pitch": 62, "velocity": 91, "note_on_time": 3.361, "note_off_time": 3.605}, {"pitch": 64, "velocity": 83, "note_on_time": 3.613, "note_off_time": 3.86}, {"pitch": 62, "velocity": 80, "note_on_time": 3.86, "note_off_time": 4.141}, {"pitch": 60, "velocity": 88, "note_on_time": 4.118, "note_off_time": 4.371}, {"pitch": 64, "velocity": 79, "note_on_time": 4.363, "note_off_time": 4.622}, {"pitch": 65, "velocity": 81, "note_on_time": 4.611, "note_off_time": 4.898}, {"pitch": 64, "velocity": 86, "note_on_time": 4.873, "note_off_time": 5.169}, {"pitch": 62, "velocity": 79, "note_on_time": 5.14, "note_off_time": 5.389}, {"pitch": 60, "velocity": 82, "note_on_time": 5.385, "note_off_time": 5.645}, {"pitch": 65, "velocity": 74, "note_on_time": 5.632, "note_off_time": 5.872}, {"pitch": 62, "velocity": 80, "note_on_time": 5.877, "note_off_time": 5.997}, {"pitch": 62, "velocity": 73, "note_on_time": 6.132, "note_off_time": 6.37}, {"pitch": 65, "velocity": 87, "note_on_time": 6.4, "note_off_time": 6.653}, {"pitch": 64, "velocity": 78, "note_on_time": 6.661, "note_off_time": 6.865}, {"pitch": 65, "velocity": 85, "note_on_time": 6.932, "note_off_time": 7.062}, {"pitch": 65, "velocity": 93, "note_on_time": 7.196, "note_off_time": 7.451}, {"pitch": 60, "velocity": 84, "note_on_time": 7.456, "note_off_time": 7.69}]</notes><guidance name="Guidance Mode">None</guidance><error name="Error value">0.7319316666666666</error></trial><trial trial_no="3" timestamp="2022_11_14-18_57_00"><notes name="Played Notes">[{"pitch": 62, "velocity": 73, "note_on_time": 0.872, "note_off_time": 1.131}, {"pitch": 60, "velocity": 84, "note_on_time": 1.102, "note_off_time": 1.332}, {"pitch": 64, "velocity": 78, "note_on_time": 1.329, "note_off_time": 1.615}, {"pitch": 64, "velocity": 79, "note_on_time": 1.757, "note_off_time": 1.991}, {"pitch": 62, "velocity": 77, "note_on_time": 1.979, "note_off_time": 2.186}, {"pitch": 65, "velocity": 85, "note_on_time": 2.196, "note_off_time": 2.416}, {"pitch": 62, "velocity": 84, "note_on_time": 2.427, "note_off_time": 2.633}, {"pitch": 65, "velocity": 80, "note_on_time": 2.645, "note_off_time": 2.887}, {"pitch": 62, "velocity": 82, "note_on_time": 2.885, "note_off_time": 2.972}, {"pitch": 62, "velocity": 88, "note_on_time": 3.12, "note_off_time": 3.331}, {"pitch": 64, "velocity": 77, "note_on_time": 3.337, "note_off_time": 3.59}, {"pitch": 62, "velocity": 77, "note_on_time": 3.566, "note_off_time": 3.793}, {"pitch": 60, "velocity": 84, "note_on_time": 3.791, "note_off_time": 4.054}, {"pitch": 64, "velocity": 68, "note_on_time": 4.058, "note_off_time": 4.204}, {"pitch": 62, "velocity": 63, "note_on_time": 4.056, "note_off_time": 4.265}, {"pitch": 64, "velocity": 72, "note_on_time": 4.277, "note_off_time": 4.474}, {"pitch": 65, "velocity": 41, "note_on_time": 4.525, "note_off_time": 4.748}, {"pitch": 62, "velocity": 66, "note_on_time": 4.772, "note_off_time": 4.881}, {"pitch": 60, "velocity": 71, "note_on_time": 5.256, "note_off_time": 5.459}, {"pitch": 65, "velocity": 70, "note_on_time": 5.515, "note_off_time": 5.787}, {"pitch": 62, "velocity": 74, "note_on_time": 5.79, "note_off_time": 5.92}, {"pitch": 62, "velocity": 68, "note_on_time": 6.031, "note_off_time": 6.222}, {"pitch": 65, "velocity": 72, "note_on_time": 6.249, "note_off_time": 6.498}, {"pitch": 64, "velocity": 77, "note_on_time": 6.493, "note_off_time": 6.761}, {"pitch": 65, "velocity": 72, "note_on_time": 6.743, "note_off_time": 6.856}, {"pitch": 65, "velocity": 66, "note_on_time": 6.967, "note_off_time": 7.218}, {"pitch": 60, "velocity": 87, "note_on_time": 7.232, "note_off_time": 7.461}, {"pitch": 62, "velocity": 76, "note_on_time": 7.475, "note_off_time": 7.67}]</notes><guidance name="Guidance Mode">None</guidance><error name="Error value">0.49646444444444443</error></trial></trials></MIDI>