<MIDI midiNo="2022_12_08-12_42_21"><target_notes><notes name="Note List">[{"pitch": 42, "velocity": 80, "note_on_time": 0.004, "note_off_time": 0.233}, {"pitch": 42, "velocity": 80, "note_on_time": 0.233, "note_off_time": 0.45}, {"pitch": 42, "velocity": 80, "note_on_time": 0.45, "note_off_time": 0.668}, {"pitch": 42, "velocity": 80, "note_on_time": 0.668, "note_off_time": 0.887}, {"pitch": 64, "velocity": 80, "note_on_time": 0.887, "note_off_time": 1.103}, {"pitch": 42, "velocity": 80, "note_on_time": 0.887, "note_off_time": 1.103}, {"pitch": 67, "velocity": 80, "note_on_time": 1.103, "note_off_time": 1.322}, {"pitch": 42, "velocity": 80, "note_on_time": 1.103, "note_off_time": 1.322}, {"pitch": 64, "velocity": 80, "note_on_time": 1.322, "note_off_time": 1.541}, {"pitch": 42, "velocity": 80, "note_on_time": 1.322, "note_off_time": 1.541}, {"pitch": 67, "velocity": 80, "note_on_time": 1.541, "note_off_time": 1.759}, {"pitch": 42, "velocity": 80, "note_on_time": 1.541, "note_off_time": 1.759}, {"pitch": 62, "velocity": 80, "note_on_time": 1.759, "note_off_time": 1.98}, {"pitch": 42, "velocity": 80, "note_on_time": 1.759, "note_off_time": 1.98}, {"pitch": 67, "velocity": 80, "note_on_time": 1.98, "note_off_time": 2.2}, {"pitch": 42, "velocity": 80, "note_on_time": 1.98, "note_off_time": 2.2}, {"pitch": 67, "velocity": 80, "note_on_time": 2.2, "note_off_time": 2.418}, {"pitch": 42, "velocity": 80, "note_on_time": 2.2, "note_off_time": 2.418}, {"pitch": 64, "velocity": 80, "note_on_time": 2.418, "note_off_time": 2.637}, {"pitch": 42, "velocity": 80, "note_on_time": 2.418, "note_off_time": 2.637}, {"pitch": 60, "velocity": 80, "note_on_time": 2.637, "note_off_time": 2.855}, {"pitch": 42, "velocity": 80, "note_on_time": 2.637, "note_off_time": 2.855}, {"pitch": 62, "velocity": 80, "note_on_time": 2.855, "note_off_time": 3.072}, {"pitch": 42, "velocity": 80, "note_on_time": 2.855, "note_off_time": 3.072}, {"pitch": 60, "velocity": 80, "note_on_time": 3.072, "note_off_time": 3.288}, {"pitch": 42, "velocity": 80, "note_on_time": 3.072, "note_off_time": 3.288}, {"pitch": 65, "velocity": 80, "note_on_time": 3.288, "note_off_time": 3.505}, {"pitch": 42, "velocity": 80, "note_on_time": 3.288, "note_off_time": 3.505}, {"pitch": 65, "velocity": 80, "note_on_time": 3.505, "note_off_time": 3.724}, {"pitch": 42, "velocity": 80, "note_on_time": 3.505, "note_off_time": 3.724}, {"pitch": 42, "velocity": 80, "note_on_time": 3.724, "note_off_time": 3.942}, {"pitch": 62, "velocity": 80, "note_on_time": 3.724, "note_off_time": 4.161}, {"pitch": 42, "velocity": 80, "note_on_time": 3.942, "note_off_time": 4.161}, {"pitch": 42, "velocity": 80, "note_on_time": 4.161, "note_off_time": 4.381}, {"pitch": 62, "velocity": 80, "note_on_time": 4.381, "note_off_time": 4.6}, {"pitch": 42, "velocity": 80, "note_on_time": 4.381, "note_off_time": 4.6}, {"pitch": 65, "velocity": 80, "note_on_time": 4.6, "note_off_time": 4.819}, {"pitch": 42, "velocity": 80, "note_on_time": 4.6, "note_off_time": 4.819}, {"pitch": 60, "velocity": 80, "note_on_time": 4.819, "note_off_time": 5.036}, {"pitch": 42, "velocity": 80, "note_on_time": 4.819, "note_off_time": 5.036}, {"pitch": 62, "velocity": 80, "note_on_time": 5.036, "note_off_time": 5.253}, {"pitch": 42, "velocity": 80, "note_on_time": 5.036, "note_off_time": 5.253}, {"pitch": 42, "velocity": 80, "note_on_time": 5.253, "note_off_time": 5.47}, {"pitch": 67, "velocity": 80, "note_on_time": 5.253, "note_off_time": 5.688}, {"pitch": 42, "velocity": 80, "note_on_time": 5.47, "note_off_time": 5.688}, {"pitch": 42, "velocity": 80, "note_on_time": 5.688, "note_off_time": 5.908}, {"pitch": 67, "velocity": 80, "note_on_time": 5.908, "note_off_time": 6.128}, {"pitch": 42, "velocity": 80, "note_on_time": 5.908, "note_off_time": 6.128}, {"pitch": 65, "velocity": 80, "note_on_time": 6.128, "note_off_time": 6.347}, {"pitch": 42, "velocity": 80, "note_on_time": 6.128, "note_off_time": 6.347}, {"pitch": 60, "velocity": 80, "note_on_time": 6.347, "note_off_time": 6.566}, {"pitch": 42, "velocity": 80, "note_on_time": 6.347, "note_off_time": 6.566}, {"pitch": 67, "velocity": 80, "note_on_time": 6.566, "note_off_time": 6.783}, {"pitch": 42, "velocity": 80, "note_on_time": 6.566, "note_off_time": 6.783}, {"pitch": 64, "velocity": 80, "note_on_time": 6.783, "note_off_time": 7.001}, {"pitch": 42, "velocity": 80, "note_on_time": 6.783, "note_off_time": 7.001}, {"pitch": 42, "velocity": 80, "note_on_time": 7.001, "note_off_time": 7.22}, {"pitch": 64, "velocity": 80, "note_on_time": 7.22, "note_off_time": 7.439}, {"pitch": 42, "velocity": 80, "note_on_time": 7.22, "note_off_time": 7.439}, {"pitch": 64, "velocity": 80, "note_on_time": 7.439, "note_off_time": 7.658}, {"pitch": 42, "velocity": 80, "note_on_time": 7.439, "note_off_time": 7.658}, {"pitch": 64, "velocity": 80, "note_on_time": 7.658, "note_off_time": 7.877}, {"pitch": 42, "velocity": 80, "note_on_time": 7.658, "note_off_time": 7.877}]</notes><options name="Option List">((4, 4), [0.5, 0.25], 3, 8, &lt;NoteRangePerHand.C_TO_G: 6&gt;, &lt;NoteRangePerHand.ONE_NOTE: 2&gt;, False, True, False, 281)</options></target_notes><trials><trial trial_no="1" timestamp="2022_12_08-12_42_11"><notes name="Played Notes">[{"pitch": 64, "velocity": 59, "note_on_time": 0.907, "note_off_time": 1.113}, {"pitch": 67, "velocity": 72, "note_on_time": 1.119, "note_off_time": 1.36}, {"pitch": 64, "velocity": 62, "note_on_time": 1.361, "note_off_time": 1.568}, {"pitch": 67, "velocity": 68, "note_on_time": 1.579, "note_off_time": 1.8}, {"pitch": 62, "velocity": 60, "note_on_time": 1.798, "note_off_time": 2.037}, {"pitch": 67, "velocity": 66, "note_on_time": 2.027, "note_off_time": 2.098}, {"pitch": 67, "velocity": 69, "note_on_time": 2.238, "note_off_time": 2.483}, {"pitch": 64, "velocity": 51, "note_on_time": 2.465, "note_off_time": 2.658}, {"pitch": 60, "velocity": 58, "note_on_time": 2.678, "note_off_time": 2.902}, {"pitch": 62, "velocity": 47, "note_on_time": 2.905, "note_off_time": 3.125}, {"pitch": 60, "velocity": 64, "note_on_time": 3.104, "note_off_time": 3.335}, {"pitch": 65, "velocity": 69, "note_on_time": 3.324, "note_off_time": 3.402}, {"pitch": 65, "velocity": 77, "note_on_time": 3.535, "note_off_time": 3.734}, {"pitch": 62, "velocity": 60, "note_on_time": 3.751, "note_off_time": 4.198}, {"pitch": 62, "velocity": 61, "note_on_time": 4.415, "note_off_time": 4.609}, {"pitch": 65, "velocity": 61, "note_on_time": 4.617, "note_off_time": 4.815}, {"pitch": 60, "velocity": 64, "note_on_time": 4.828, "note_off_time": 5.017}, {"pitch": 62, "velocity": 66, "note_on_time": 5.033, "note_off_time": 5.271}, {"pitch": 67, "velocity": 72, "note_on_time": 5.268, "note_off_time": 5.697}, {"pitch": 67, "velocity": 68, "note_on_time": 5.918, "note_off_time": 6.155}, {"pitch": 65, "velocity": 66, "note_on_time": 6.13, "note_off_time": 6.352}, {"pitch": 60, "velocity": 61, "note_on_time": 6.361, "note_off_time": 6.577}, {"pitch": 67, "velocity": 66, "note_on_time": 6.567, "note_off_time": 6.815}, {"pitch": 64, "velocity": 59, "note_on_time": 6.803, "note_off_time": 7.054}, {"pitch": 64, "velocity": 71, "note_on_time": 7.215, "note_off_time": 7.3}, {"pitch": 64, "velocity": 69, "note_on_time": 7.431, "note_off_time": 7.527}]</notes><guidance name="Guidance Mode">None</guidance><error name="Error value">0.06118270833333332</error></trial></trials></MIDI>