<MIDI midiNo="2022_11_03-09_26_21"><target_notes><notes name="Note List">[{"pitch": 42, "velocity": 80, "note_on_time": 0.003, "note_off_time": 0.324}, {"pitch": 42, "velocity": 80, "note_on_time": 0.324, "note_off_time": 0.633}, {"pitch": 42, "velocity": 80, "note_on_time": 0.633, "note_off_time": 0.945}, {"pitch": 42, "velocity": 80, "note_on_time": 0.946, "note_off_time": 1.258}, {"pitch": 64, "velocity": 80, "note_on_time": 1.257, "note_off_time": 1.569}, {"pitch": 42, "velocity": 80, "note_on_time": 1.258, "note_off_time": 1.57}, {"pitch": 64, "velocity": 80, "note_on_time": 1.569, "note_off_time": 1.883}, {"pitch": 42, "velocity": 80, "note_on_time": 1.57, "note_off_time": 1.883}, {"pitch": 42, "velocity": 80, "note_on_time": 1.884, "note_off_time": 2.196}, {"pitch": 65, "velocity": 80, "note_on_time": 1.883, "note_off_time": 2.507}, {"pitch": 42, "velocity": 80, "note_on_time": 2.196, "note_off_time": 2.507}, {"pitch": 62, "velocity": 80, "note_on_time": 2.507, "note_off_time": 2.815}, {"pitch": 42, "velocity": 80, "note_on_time": 2.508, "note_off_time": 2.816}, {"pitch": 65, "velocity": 80, "note_on_time": 2.815, "note_off_time": 3.127}, {"pitch": 42, "velocity": 80, "note_on_time": 2.816, "note_off_time": 3.127}, {"pitch": 64, "velocity": 80, "note_on_time": 3.127, "note_off_time": 3.436}, {"pitch": 42, "velocity": 80, "note_on_time": 3.128, "note_off_time": 3.437}, {"pitch": 62, "velocity": 80, "note_on_time": 3.436, "note_off_time": 3.746}, {"pitch": 42, "velocity": 80, "note_on_time": 3.437, "note_off_time": 3.746}, {"pitch": 60, "velocity": 80, "note_on_time": 3.746, "note_off_time": 4.057}, {"pitch": 42, "velocity": 80, "note_on_time": 3.747, "note_off_time": 4.057}, {"pitch": 62, "velocity": 80, "note_on_time": 4.057, "note_off_time": 4.368}, {"pitch": 42, "velocity": 80, "note_on_time": 4.058, "note_off_time": 4.368}, {"pitch": 64, "velocity": 80, "note_on_time": 4.368, "note_off_time": 4.682}, {"pitch": 42, "velocity": 80, "note_on_time": 4.368, "note_off_time": 4.682}, {"pitch": 62, "velocity": 80, "note_on_time": 4.682, "note_off_time": 4.995}, {"pitch": 42, "velocity": 80, "note_on_time": 4.682, "note_off_time": 4.995}, {"pitch": 64, "velocity": 80, "note_on_time": 4.995, "note_off_time": 5.306}, {"pitch": 42, "velocity": 80, "note_on_time": 4.995, "note_off_time": 5.306}, {"pitch": 64, "velocity": 80, "note_on_time": 5.306, "note_off_time": 5.616}, {"pitch": 42, "velocity": 80, "note_on_time": 5.307, "note_off_time": 5.617}, {"pitch": 64, "velocity": 80, "note_on_time": 5.616, "note_off_time": 5.927}, {"pitch": 42, "velocity": 80, "note_on_time": 5.617, "note_off_time": 5.927}, {"pitch": 67, "velocity": 80, "note_on_time": 5.927, "note_off_time": 6.24}, {"pitch": 42, "velocity": 80, "note_on_time": 5.927, "note_off_time": 6.24}, {"pitch": 64, "velocity": 80, "note_on_time": 6.24, "note_off_time": 6.55}, {"pitch": 42, "velocity": 80, "note_on_time": 6.24, "note_off_time": 6.55}, {"pitch": 42, "velocity": 80, "note_on_time": 6.55, "note_off_time": 6.864}, {"pitch": 62, "velocity": 80, "note_on_time": 6.55, "note_off_time": 7.176}, {"pitch": 42, "velocity": 80, "note_on_time": 6.864, "note_off_time": 7.176}, {"pitch": 42, "velocity": 80, "note_on_time": 7.176, "note_off_time": 7.486}, {"pitch": 64, "velocity": 80, "note_on_time": 7.486, "note_off_time": 7.799}, {"pitch": 42, "velocity": 80, "note_on_time": 7.486, "note_off_time": 7.799}, {"pitch": 62, "velocity": 80, "note_on_time": 7.799, "note_off_time": 8.11}, {"pitch": 42, "velocity": 80, "note_on_time": 7.799, "note_off_time": 8.11}, {"pitch": 42, "velocity": 80, "note_on_time": 8.111, "note_off_time": 8.421}, {"pitch": 42, "velocity": 80, "note_on_time": 8.421, "note_off_time": 8.731}, {"pitch": 67, "velocity": 80, "note_on_time": 8.731, "note_off_time": 9.042}, {"pitch": 42, "velocity": 80, "note_on_time": 8.732, "note_off_time": 9.043}, {"pitch": 64, "velocity": 80, "note_on_time": 9.042, "note_off_time": 9.356}, {"pitch": 42, "velocity": 80, "note_on_time": 9.043, "note_off_time": 9.356}, {"pitch": 60, "velocity": 80, "note_on_time": 9.356, "note_off_time": 9.665}, {"pitch": 42, "velocity": 80, "note_on_time": 9.356, "note_off_time": 9.665}, {"pitch": 62, "velocity": 80, "note_on_time": 9.665, "note_off_time": 9.976}, {"pitch": 42, "velocity": 80, "note_on_time": 9.666, "note_off_time": 9.976}, {"pitch": 42, "velocity": 80, "note_on_time": 9.976, "note_off_time": 10.288}, {"pitch": 62, "velocity": 80, "note_on_time": 10.287, "note_off_time": 10.599}, {"pitch": 42, "velocity": 80, "note_on_time": 10.288, "note_off_time": 10.599}, {"pitch": 62, "velocity": 80, "note_on_time": 10.599, "note_off_time": 10.91}, {"pitch": 42, "velocity": 80, "note_on_time": 10.599, "note_off_time": 10.91}, {"pitch": 62, "velocity": 80, "note_on_time": 10.91, "note_off_time": 11.222}, {"pitch": 42, "velocity": 80, "note_on_time": 10.91, "note_off_time": 11.223}]</notes><options name="Option List">((4, 4), [0.5, 0.25], 3, 8, &lt;NoteRangePerHand.C_TO_G: 6&gt;, &lt;NoteRangePerHand.ONE_NOTE: 2&gt;, False, True, False, '197')</options></target_notes><trials><trial trial_no="1" timestamp="2022_11_03-09_26_08"><notes name="Played Notes">[{"pitch": 64, "velocity": 66, "note_on_time": 1.263, "note_off_time": 1.386}, {"pitch": 64, "velocity": 64, "note_on_time": 1.603, "note_off_time": 1.981}, {"pitch": 65, "velocity": 67, "note_on_time": 1.93, "note_off_time": 2.43}, {"pitch": 62, "velocity": 47, "note_on_time": 2.576, "note_off_time": 2.915}, {"pitch": 65, "velocity": 67, "note_on_time": 2.847, "note_off_time": 3.31}, {"pitch": 64, "velocity": 66, "note_on_time": 3.181, "note_off_time": 3.464}, {"pitch": 62, "velocity": 59, "note_on_time": 3.472, "note_off_time": 3.831}, {"pitch": 60, "velocity": 66, "note_on_time": 3.782, "note_off_time": 4.107}, {"pitch": 62, "velocity": 63, "note_on_time": 4.085, "note_off_time": 4.379}, {"pitch": 64, "velocity": 65, "note_on_time": 4.388, "note_off_time": 4.686}, {"pitch": 62, "velocity": 65, "note_on_time": 4.682, "note_off_time": 5.039}, {"pitch": 64, "velocity": 68, "note_on_time": 5.012, "note_off_time": 5.127}, {"pitch": 64, "velocity": 68, "note_on_time": 5.317, "note_off_time": 5.414}, {"pitch": 64, "velocity": 67, "note_on_time": 5.618, "note_off_time": 5.954}, {"pitch": 67, "velocity": 60, "note_on_time": 5.932, "note_off_time": 6.288}, {"pitch": 64, "velocity": 56, "note_on_time": 6.257, "note_off_time": 6.592}, {"pitch": 62, "velocity": 36, "note_on_time": 6.597, "note_off_time": 7.206}, {"pitch": 64, "velocity": 53, "note_on_time": 7.562, "note_off_time": 7.876}, {"pitch": 62, "velocity": 42, "note_on_time": 7.857, "note_off_time": 8.268}, {"pitch": 67, "velocity": 55, "note_on_time": 8.776, "note_off_time": 9.131}, {"pitch": 64, "velocity": 53, "note_on_time": 9.1, "note_off_time": 9.372}, {"pitch": 60, "velocity": 44, "note_on_time": 9.392, "note_off_time": 9.736}, {"pitch": 62, "velocity": 49, "note_on_time": 9.724, "note_off_time": 10.095}, {"pitch": 62, "velocity": 64, "note_on_time": 10.321, "note_off_time": 10.416}, {"pitch": 62, "velocity": 68, "note_on_time": 10.619, "note_off_time": 10.708}, {"pitch": 62, "velocity": 74, "note_on_time": 10.924, "note_off_time": 11.02}]</notes><guidance name="Guidance Mode">None</guidance><error name="Error value">0.0186907826086957</error></trial><trial trial_no="2" timestamp="2022_11_03-09_26_30"><notes name="Played Notes">[{"pitch": 64, "velocity": 47, "note_on_time": 1.278, "note_off_time": 1.398}, {"pitch": 64, "velocity": 48, "note_on_time": 1.595, "note_off_time": 1.941}, {"pitch": 65, "velocity": 51, "note_on_time": 1.923, "note_off_time": 2.349}, {"pitch": 62, "velocity": 43, "note_on_time": 2.487, "note_off_time": 2.838}, {"pitch": 65, "velocity": 54, "note_on_time": 2.822, "note_off_time": 3.201}, {"pitch": 64, "velocity": 53, "note_on_time": 3.13, "note_off_time": 3.429}, {"pitch": 62, "velocity": 50, "note_on_time": 3.45, "note_off_time": 3.792}, {"pitch": 60, "velocity": 61, "note_on_time": 3.774, "note_off_time": 4.091}, {"pitch": 62, "velocity": 66, "note_on_time": 4.075, "note_off_time": 4.394}, {"pitch": 64, "velocity": 65, "note_on_time": 4.398, "note_off_time": 4.715}, {"pitch": 62, "velocity": 57, "note_on_time": 4.69, "note_off_time": 5.033}, {"pitch": 64, "velocity": 61, "note_on_time": 5.012, "note_off_time": 5.123}, {"pitch": 64, "velocity": 69, "note_on_time": 5.297, "note_off_time": 5.417}, {"pitch": 64, "velocity": 58, "note_on_time": 5.603, "note_off_time": 5.946}, {"pitch": 67, "velocity": 52, "note_on_time": 5.929, "note_off_time": 6.255}, {"pitch": 64, "velocity": 51, "note_on_time": 6.252, "note_off_time": 6.578}, {"pitch": 62, "velocity": 30, "note_on_time": 6.587, "note_off_time": 7.201}, {"pitch": 64, "velocity": 42, "note_on_time": 7.499, "note_off_time": 7.83}, {"pitch": 62, "velocity": 38, "note_on_time": 7.81, "note_off_time": 8.212}, {"pitch": 67, "velocity": 46, "note_on_time": 8.793, "note_off_time": 9.132}, {"pitch": 64, "velocity": 48, "note_on_time": 9.086, "note_off_time": 9.378}, {"pitch": 60, "velocity": 43, "note_on_time": 9.398, "note_off_time": 9.744}, {"pitch": 62, "velocity": 47, "note_on_time": 9.711, "note_off_time": 10.059}, {"pitch": 62, "velocity": 60, "note_on_time": 10.317, "note_off_time": 10.398}, {"pitch": 62, "velocity": 64, "note_on_time": 10.613, "note_off_time": 10.695}, {"pitch": 62, "velocity": 64, "note_on_time": 10.914, "note_off_time": 10.989}]</notes><guidance name="Guidance Mode">None</guidance><error name="Error value">0.017963478260869477</error></trial><trial trial_no="3" timestamp="2022_11_03-09_26_49"><notes name="Played Notes">[{"pitch": 64, "velocity": 55, "note_on_time": 1.27, "note_off_time": 1.394}, {"pitch": 64, "velocity": 53, "note_on_time": 1.587, "note_off_time": 1.919}, {"pitch": 65, "velocity": 56, "note_on_time": 1.911, "note_off_time": 2.334}, {"pitch": 62, "velocity": 55, "note_on_time": 2.513, "note_off_time": 2.858}, {"pitch": 65, "velocity": 60, "note_on_time": 2.841, "note_off_time": 3.25}, {"pitch": 64, "velocity": 55, "note_on_time": 3.157, "note_off_time": 3.468}, {"pitch": 62, "velocity": 46, "note_on_time": 3.48, "note_off_time": 3.832}, {"pitch": 60, "velocity": 65, "note_on_time": 3.802, "note_off_time": 4.103}, {"pitch": 62, "velocity": 65, "note_on_time": 4.088, "note_off_time": 4.393}, {"pitch": 64, "velocity": 62, "note_on_time": 4.405, "note_off_time": 4.698}, {"pitch": 62, "velocity": 61, "note_on_time": 4.684, "note_off_time": 5.015}, {"pitch": 64, "velocity": 61, "note_on_time": 5.0, "note_off_time": 5.106}, {"pitch": 64, "velocity": 67, "note_on_time": 5.277, "note_off_time": 5.383}, {"pitch": 64, "velocity": 59, "note_on_time": 5.591, "note_off_time": 5.92}, {"pitch": 67, "velocity": 56, "note_on_time": 5.902, "note_off_time": 6.259}, {"pitch": 64, "velocity": 46, "note_on_time": 6.241, "note_off_time": 6.556}, {"pitch": 62, "velocity": 44, "note_on_time": 6.555, "note_off_time": 7.133}, {"pitch": 64, "velocity": 44, "note_on_time": 7.489, "note_off_time": 7.82}, {"pitch": 62, "velocity": 39, "note_on_time": 7.809, "note_off_time": 8.093}, {"pitch": 67, "velocity": 43, "note_on_time": 8.754, "note_off_time": 9.099}, {"pitch": 64, "velocity": 46, "note_on_time": 9.048, "note_off_time": 9.329}, {"pitch": 60, "velocity": 54, "note_on_time": 9.355, "note_off_time": 9.723}, {"pitch": 62, "velocity": 44, "note_on_time": 9.678, "note_off_time": 10.083}, {"pitch": 62, "velocity": 51, "note_on_time": 10.34, "note_off_time": 10.45}, {"pitch": 62, "velocity": 53, "note_on_time": 10.627, "note_off_time": 10.745}, {"pitch": 62, "velocity": 45, "note_on_time": 10.942, "note_off_time": 11.065}]</notes><guidance name="Guidance Mode">None</guidance><error name="Error value">0.0193193043478261</error></trial><trial trial_no="4" timestamp="2022_11_03-09_27_14"><notes name="Played Notes">[{"pitch": 64, "velocity": 61, "note_on_time": 1.235, "note_off_time": 1.361}, {"pitch": 64, "velocity": 50, "note_on_time": 1.561, "note_off_time": 1.957}, {"pitch": 65, "velocity": 52, "note_on_time": 1.89, "note_off_time": 2.358}, {"pitch": 62, "velocity": 54, "note_on_time": 2.508, "note_off_time": 2.855}, {"pitch": 65, "velocity": 61, "note_on_time": 2.814, "note_off_time": 3.243}, {"pitch": 64, "velocity": 61, "note_on_time": 3.128, "note_off_time": 3.432}, {"pitch": 62, "velocity": 61, "note_on_time": 3.427, "note_off_time": 3.765}, {"pitch": 60, "velocity": 67, "note_on_time": 3.744, "note_off_time": 4.075}, {"pitch": 62, "velocity": 68, "note_on_time": 4.053, "note_off_time": 4.349}, {"pitch": 64, "velocity": 61, "note_on_time": 4.358, "note_off_time": 4.665}, {"pitch": 62, "velocity": 59, "note_on_time": 4.648, "note_off_time": 4.978}, {"pitch": 64, "velocity": 60, "note_on_time": 4.971, "note_off_time": 5.081}, {"pitch": 64, "velocity": 62, "note_on_time": 5.266, "note_off_time": 5.369}, {"pitch": 64, "velocity": 57, "note_on_time": 5.597, "note_off_time": 5.944}, {"pitch": 67, "velocity": 49, "note_on_time": 5.931, "note_off_time": 6.254}, {"pitch": 64, "velocity": 39, "note_on_time": 6.251, "note_off_time": 6.585}, {"pitch": 62, "velocity": 43, "note_on_time": 6.566, "note_off_time": 7.203}, {"pitch": 64, "velocity": 41, "note_on_time": 7.506, "note_off_time": 7.835}, {"pitch": 62, "velocity": 41, "note_on_time": 7.802, "note_off_time": 8.188}, {"pitch": 67, "velocity": 52, "note_on_time": 8.725, "note_off_time": 9.109}, {"pitch": 64, "velocity": 45, "note_on_time": 9.066, "note_off_time": 9.342}, {"pitch": 60, "velocity": 43, "note_on_time": 9.345, "note_off_time": 9.839}, {"pitch": 62, "velocity": 44, "note_on_time": 9.676, "note_off_time": 10.097}, {"pitch": 62, "velocity": 57, "note_on_time": 10.321, "note_off_time": 10.42}, {"pitch": 62, "velocity": 56, "note_on_time": 10.61, "note_off_time": 10.711}, {"pitch": 62, "velocity": 41, "note_on_time": 10.918, "note_off_time": 11.039}]</notes><guidance name="Guidance Mode">None</guidance><error name="Error value">0.017400347826087098</error></trial></trials></MIDI>