<MIDI midiNo="2022_12_08-10_32_43"><target_notes><notes name="Note List">[{"pitch": 42, "velocity": 80, "note_on_time": 0.004, "note_off_time": 0.248}, {"pitch": 42, "velocity": 80, "note_on_time": 0.248, "note_off_time": 0.499}, {"pitch": 42, "velocity": 80, "note_on_time": 0.499, "note_off_time": 0.748}, {"pitch": 42, "velocity": 80, "note_on_time": 0.748, "note_off_time": 0.998}, {"pitch": 42, "velocity": 80, "note_on_time": 0.998, "note_off_time": 1.246}, {"pitch": 62, "velocity": 80, "note_on_time": 0.998, "note_off_time": 1.494}, {"pitch": 42, "velocity": 80, "note_on_time": 1.246, "note_off_time": 1.494}, {"pitch": 42, "velocity": 80, "note_on_time": 1.494, "note_off_time": 1.741}, {"pitch": 42, "velocity": 80, "note_on_time": 1.741, "note_off_time": 1.99}, {"pitch": 62, "velocity": 80, "note_on_time": 1.99, "note_off_time": 2.24}, {"pitch": 42, "velocity": 80, "note_on_time": 1.99, "note_off_time": 2.241}, {"pitch": 62, "velocity": 80, "note_on_time": 2.24, "note_off_time": 2.49}, {"pitch": 42, "velocity": 80, "note_on_time": 2.241, "note_off_time": 2.491}, {"pitch": 42, "velocity": 80, "note_on_time": 2.491, "note_off_time": 2.742}, {"pitch": 62, "velocity": 80, "note_on_time": 2.49, "note_off_time": 2.994}, {"pitch": 42, "velocity": 80, "note_on_time": 2.742, "note_off_time": 2.994}, {"pitch": 42, "velocity": 80, "note_on_time": 2.994, "note_off_time": 3.245}, {"pitch": 64, "velocity": 80, "note_on_time": 2.994, "note_off_time": 3.493}, {"pitch": 42, "velocity": 80, "note_on_time": 3.245, "note_off_time": 3.493}, {"pitch": 42, "velocity": 80, "note_on_time": 3.493, "note_off_time": 3.745}, {"pitch": 42, "velocity": 80, "note_on_time": 3.745, "note_off_time": 3.993}, {"pitch": 42, "velocity": 80, "note_on_time": 3.993, "note_off_time": 4.242}, {"pitch": 64, "velocity": 80, "note_on_time": 3.993, "note_off_time": 4.49}, {"pitch": 42, "velocity": 80, "note_on_time": 4.242, "note_off_time": 4.49}, {"pitch": 60, "velocity": 80, "note_on_time": 4.49, "note_off_time": 4.741}, {"pitch": 42, "velocity": 80, "note_on_time": 4.49, "note_off_time": 4.741}, {"pitch": 64, "velocity": 80, "note_on_time": 4.741, "note_off_time": 4.991}, {"pitch": 42, "velocity": 80, "note_on_time": 4.741, "note_off_time": 4.991}, {"pitch": 60, "velocity": 80, "note_on_time": 4.991, "note_off_time": 5.241}, {"pitch": 42, "velocity": 80, "note_on_time": 4.992, "note_off_time": 5.241}, {"pitch": 65, "velocity": 80, "note_on_time": 5.241, "note_off_time": 5.489}, {"pitch": 42, "velocity": 80, "note_on_time": 5.241, "note_off_time": 5.489}, {"pitch": 67, "velocity": 80, "note_on_time": 5.489, "note_off_time": 5.738}, {"pitch": 42, "velocity": 80, "note_on_time": 5.489, "note_off_time": 5.738}, {"pitch": 67, "velocity": 80, "note_on_time": 5.738, "note_off_time": 5.986}, {"pitch": 42, "velocity": 80, "note_on_time": 5.738, "note_off_time": 5.987}, {"pitch": 64, "velocity": 80, "note_on_time": 5.986, "note_off_time": 6.235}, {"pitch": 42, "velocity": 80, "note_on_time": 5.987, "note_off_time": 6.235}, {"pitch": 67, "velocity": 80, "note_on_time": 6.235, "note_off_time": 6.488}, {"pitch": 42, "velocity": 80, "note_on_time": 6.235, "note_off_time": 6.488}, {"pitch": 62, "velocity": 80, "note_on_time": 6.488, "note_off_time": 6.735}, {"pitch": 42, "velocity": 80, "note_on_time": 6.488, "note_off_time": 6.735}, {"pitch": 62, "velocity": 80, "note_on_time": 6.735, "note_off_time": 6.984}, {"pitch": 42, "velocity": 80, "note_on_time": 6.735, "note_off_time": 6.984}, {"pitch": 60, "velocity": 80, "note_on_time": 6.984, "note_off_time": 7.234}, {"pitch": 42, "velocity": 80, "note_on_time": 6.984, "note_off_time": 7.235}, {"pitch": 67, "velocity": 80, "note_on_time": 7.234, "note_off_time": 7.484}, {"pitch": 42, "velocity": 80, "note_on_time": 7.235, "note_off_time": 7.485}, {"pitch": 67, "velocity": 80, "note_on_time": 7.484, "note_off_time": 7.733}, {"pitch": 42, "velocity": 80, "note_on_time": 7.485, "note_off_time": 7.733}, {"pitch": 64, "velocity": 80, "note_on_time": 7.733, "note_off_time": 7.982}, {"pitch": 42, "velocity": 80, "note_on_time": 7.734, "note_off_time": 7.982}, {"pitch": 42, "velocity": 80, "note_on_time": 7.983, "note_off_time": 8.231}, {"pitch": 64, "velocity": 80, "note_on_time": 8.231, "note_off_time": 8.482}, {"pitch": 42, "velocity": 80, "note_on_time": 8.232, "note_off_time": 8.482}, {"pitch": 64, "velocity": 80, "note_on_time": 8.482, "note_off_time": 8.731}, {"pitch": 42, "velocity": 80, "note_on_time": 8.483, "note_off_time": 8.731}, {"pitch": 64, "velocity": 80, "note_on_time": 8.731, "note_off_time": 8.982}, {"pitch": 42, "velocity": 80, "note_on_time": 8.731, "note_off_time": 8.982}]</notes><options name="Option List">((4, 4), [0.5, 0.25], 3, 8, &lt;NoteRangePerHand.C_TO_G: 6&gt;, &lt;NoteRangePerHand.ONE_NOTE: 2&gt;, False, True, False, 248)</options></target_notes><trials><trial trial_no="1" timestamp="2022_12_08-10_32_33"><notes name="Played Notes">[{"pitch": 62, "velocity": 63, "note_on_time": 1.047, "note_off_time": 1.431}, {"pitch": 62, "velocity": 59, "note_on_time": 1.893, "note_off_time": 2.025}, {"pitch": 62, "velocity": 40, "note_on_time": 2.189, "note_off_time": 2.318}, {"pitch": 62, "velocity": 61, "note_on_time": 2.459, "note_off_time": 2.688}, {"pitch": 64, "velocity": 65, "note_on_time": 2.691, "note_off_time": 3.172}, {"pitch": 64, "velocity": 51, "note_on_time": 3.452, "note_off_time": 3.933}, {"pitch": 60, "velocity": 50, "note_on_time": 3.986, "note_off_time": 4.243}, {"pitch": 64, "velocity": 72, "note_on_time": 4.237, "note_off_time": 4.51}, {"pitch": 60, "velocity": 65, "note_on_time": 4.519, "note_off_time": 4.731}, {"pitch": 65, "velocity": 65, "note_on_time": 4.741, "note_off_time": 5.077}, {"pitch": 67, "velocity": 73, "note_on_time": 5.059, "note_off_time": 5.169}, {"pitch": 67, "velocity": 67, "note_on_time": 5.276, "note_off_time": 5.543}, {"pitch": 64, "velocity": 81, "note_on_time": 5.528, "note_off_time": 5.787}, {"pitch": 67, "velocity": 73, "note_on_time": 5.769, "note_off_time": 6.045}, {"pitch": 62, "velocity": 67, "note_on_time": 6.033, "note_off_time": 6.146}, {"pitch": 62, "velocity": 47, "note_on_time": 6.272, "note_off_time": 6.527}, {"pitch": 60, "velocity": 74, "note_on_time": 6.532, "note_off_time": 6.771}, {"pitch": 67, "velocity": 60, "note_on_time": 6.762, "note_off_time": 6.907}, {"pitch": 67, "velocity": 67, "note_on_time": 7.036, "note_off_time": 7.297}, {"pitch": 64, "velocity": 75, "note_on_time": 7.272, "note_off_time": 7.55}, {"pitch": 64, "velocity": 79, "note_on_time": 7.739, "note_off_time": 7.854}, {"pitch": 64, "velocity": 83, "note_on_time": 8.006, "note_off_time": 8.108}, {"pitch": 64, "velocity": 78, "note_on_time": 8.238, "note_off_time": 8.347}]</notes><guidance name="Guidance Mode">None</guidance><error name="Error value">0.05192725000000009</error></trial></trials></MIDI>