<MIDI midiNo="2022_12_08-11_56_43"><target_notes><notes name="Note List">[{"pitch": 42, "velocity": 80, "note_on_time": 0.003, "note_off_time": 0.268}, {"pitch": 42, "velocity": 80, "note_on_time": 0.268, "note_off_time": 0.532}, {"pitch": 42, "velocity": 80, "note_on_time": 0.533, "note_off_time": 0.799}, {"pitch": 42, "velocity": 80, "note_on_time": 0.799, "note_off_time": 1.065}, {"pitch": 64, "velocity": 80, "note_on_time": 1.064, "note_off_time": 1.328}, {"pitch": 42, "velocity": 80, "note_on_time": 1.065, "note_off_time": 1.329}, {"pitch": 60, "velocity": 80, "note_on_time": 1.328, "note_off_time": 1.595}, {"pitch": 42, "velocity": 80, "note_on_time": 1.329, "note_off_time": 1.595}, {"pitch": 67, "velocity": 80, "note_on_time": 1.595, "note_off_time": 1.861}, {"pitch": 42, "velocity": 80, "note_on_time": 1.596, "note_off_time": 1.861}, {"pitch": 67, "velocity": 80, "note_on_time": 1.861, "note_off_time": 2.126}, {"pitch": 42, "velocity": 80, "note_on_time": 1.862, "note_off_time": 2.127}, {"pitch": 65, "velocity": 80, "note_on_time": 2.126, "note_off_time": 2.389}, {"pitch": 42, "velocity": 80, "note_on_time": 2.127, "note_off_time": 2.389}, {"pitch": 42, "velocity": 80, "note_on_time": 2.389, "note_off_time": 2.655}, {"pitch": 42, "velocity": 80, "note_on_time": 2.655, "note_off_time": 2.919}, {"pitch": 62, "velocity": 80, "note_on_time": 2.918, "note_off_time": 3.183}, {"pitch": 42, "velocity": 80, "note_on_time": 2.919, "note_off_time": 3.183}, {"pitch": 42, "velocity": 80, "note_on_time": 3.183, "note_off_time": 3.447}, {"pitch": 64, "velocity": 80, "note_on_time": 3.183, "note_off_time": 3.713}, {"pitch": 42, "velocity": 80, "note_on_time": 3.448, "note_off_time": 3.713}, {"pitch": 42, "velocity": 80, "note_on_time": 3.713, "note_off_time": 3.977}, {"pitch": 42, "velocity": 80, "note_on_time": 3.977, "note_off_time": 4.243}, {"pitch": 42, "velocity": 80, "note_on_time": 4.243, "note_off_time": 4.507}, {"pitch": 67, "velocity": 80, "note_on_time": 4.242, "note_off_time": 4.772}, {"pitch": 42, "velocity": 80, "note_on_time": 4.507, "note_off_time": 4.772}, {"pitch": 60, "velocity": 80, "note_on_time": 4.772, "note_off_time": 5.036}, {"pitch": 42, "velocity": 80, "note_on_time": 4.772, "note_off_time": 5.036}, {"pitch": 67, "velocity": 80, "note_on_time": 5.036, "note_off_time": 5.302}, {"pitch": 42, "velocity": 80, "note_on_time": 5.037, "note_off_time": 5.302}, {"pitch": 42, "velocity": 80, "note_on_time": 5.302, "note_off_time": 5.568}, {"pitch": 60, "velocity": 80, "note_on_time": 5.302, "note_off_time": 5.833}, {"pitch": 42, "velocity": 80, "note_on_time": 5.568, "note_off_time": 5.833}, {"pitch": 42, "velocity": 80, "note_on_time": 5.833, "note_off_time": 6.099}, {"pitch": 67, "velocity": 80, "note_on_time": 5.833, "note_off_time": 6.365}, {"pitch": 42, "velocity": 80, "note_on_time": 6.1, "note_off_time": 6.365}, {"pitch": 60, "velocity": 80, "note_on_time": 6.365, "note_off_time": 6.631}, {"pitch": 42, "velocity": 80, "note_on_time": 6.365, "note_off_time": 6.631}, {"pitch": 62, "velocity": 80, "note_on_time": 6.631, "note_off_time": 6.896}, {"pitch": 42, "velocity": 80, "note_on_time": 6.631, "note_off_time": 6.896}, {"pitch": 64, "velocity": 80, "note_on_time": 6.896, "note_off_time": 7.159}, {"pitch": 42, "velocity": 80, "note_on_time": 6.896, "note_off_time": 7.159}, {"pitch": 67, "velocity": 80, "note_on_time": 7.159, "note_off_time": 7.425}, {"pitch": 42, "velocity": 80, "note_on_time": 7.159, "note_off_time": 7.425}, {"pitch": 42, "velocity": 80, "note_on_time": 7.426, "note_off_time": 7.692}, {"pitch": 64, "velocity": 80, "note_on_time": 7.425, "note_off_time": 7.958}, {"pitch": 42, "velocity": 80, "note_on_time": 7.692, "note_off_time": 7.958}, {"pitch": 62, "velocity": 80, "note_on_time": 7.958, "note_off_time": 8.224}, {"pitch": 42, "velocity": 80, "note_on_time": 7.958, "note_off_time": 8.224}, {"pitch": 42, "velocity": 80, "note_on_time": 8.224, "note_off_time": 8.489}, {"pitch": 42, "velocity": 80, "note_on_time": 8.49, "note_off_time": 8.754}, {"pitch": 62, "velocity": 80, "note_on_time": 8.754, "note_off_time": 9.02}, {"pitch": 42, "velocity": 80, "note_on_time": 8.754, "note_off_time": 9.02}, {"pitch": 62, "velocity": 80, "note_on_time": 9.02, "note_off_time": 9.286}, {"pitch": 42, "velocity": 80, "note_on_time": 9.021, "note_off_time": 9.286}, {"pitch": 62, "velocity": 80, "note_on_time": 9.286, "note_off_time": 9.551}, {"pitch": 42, "velocity": 80, "note_on_time": 9.287, "note_off_time": 9.551}]</notes><options name="Option List">((4, 4), [0.5, 0.25], 3, 8, &lt;NoteRangePerHand.C_TO_G: 6&gt;, &lt;NoteRangePerHand.ONE_NOTE: 2&gt;, False, True, False, '236')</options></target_notes><trials><trial trial_no="1" timestamp="2022_12_08-11_56_32"><notes name="Played Notes">[{"pitch": 64, "velocity": 82, "note_on_time": 1.094, "note_off_time": 1.256}, {"pitch": 60, "velocity": 91, "note_on_time": 1.367, "note_off_time": 1.481}, {"pitch": 67, "velocity": 89, "note_on_time": 1.64, "note_off_time": 1.768}, {"pitch": 67, "velocity": 85, "note_on_time": 1.925, "note_off_time": 2.065}, {"pitch": 65, "velocity": 92, "note_on_time": 2.201, "note_off_time": 2.339}, {"pitch": 62, "velocity": 97, "note_on_time": 2.785, "note_off_time": 2.936}, {"pitch": 64, "velocity": 96, "note_on_time": 3.049, "note_off_time": 3.503}, {"pitch": 67, "velocity": 84, "note_on_time": 3.874, "note_off_time": 4.054}, {"pitch": 60, "velocity": 82, "note_on_time": 4.229, "note_off_time": 4.343}, {"pitch": 67, "velocity": 83, "note_on_time": 4.512, "note_off_time": 4.687}, {"pitch": 60, "velocity": 98, "note_on_time": 4.859, "note_off_time": 5.014}, {"pitch": 67, "velocity": 87, "note_on_time": 5.654, "note_off_time": 6.066}, {"pitch": 60, "velocity": 96, "note_on_time": 6.259, "note_off_time": 6.394}, {"pitch": 62, "velocity": 88, "note_on_time": 6.55, "note_off_time": 6.709}, {"pitch": 67, "velocity": 91, "note_on_time": 6.904, "note_off_time": 7.098}, {"pitch": 64, "velocity": 96, "note_on_time": 7.214, "note_off_time": 7.895}, {"pitch": 62, "velocity": 77, "note_on_time": 8.036, "note_off_time": 8.215}, {"pitch": 62, "velocity": 98, "note_on_time": 8.616, "note_off_time": 8.698}, {"pitch": 62, "velocity": 94, "note_on_time": 8.866, "note_off_time": 8.953}, {"pitch": 62, "velocity": 102, "note_on_time": 9.127, "note_off_time": 9.279}]</notes><guidance name="Guidance Mode">None</guidance><error name="Error value">0.165695888888889</error></trial><trial trial_no="2" timestamp="2022_12_08-11_56_52"><notes name="Played Notes">[{"pitch": 64, "velocity": 76, "note_on_time": 1.039, "note_off_time": 1.201}, {"pitch": 60, "velocity": 82, "note_on_time": 1.32, "note_off_time": 1.431}, {"pitch": 67, "velocity": 80, "note_on_time": 1.608, "note_off_time": 1.734}, {"pitch": 67, "velocity": 76, "note_on_time": 1.88, "note_off_time": 2.027}, {"pitch": 65, "velocity": 91, "note_on_time": 2.17, "note_off_time": 2.333}, {"pitch": 62, "velocity": 91, "note_on_time": 2.738, "note_off_time": 2.933}, {"pitch": 64, "velocity": 94, "note_on_time": 3.252, "note_off_time": 3.763}, {"pitch": 67, "velocity": 84, "note_on_time": 3.895, "note_off_time": 4.248}, {"pitch": 60, "velocity": 74, "note_on_time": 4.325, "note_off_time": 4.451}, {"pitch": 67, "velocity": 91, "note_on_time": 4.588, "note_off_time": 5.023}, {"pitch": 60, "velocity": 87, "note_on_time": 5.139, "note_off_time": 5.596}, {"pitch": 67, "velocity": 88, "note_on_time": 5.728, "note_off_time": 6.148}, {"pitch": 60, "velocity": 82, "note_on_time": 6.276, "note_off_time": 6.409}, {"pitch": 62, "velocity": 84, "note_on_time": 6.605, "note_off_time": 6.758}, {"pitch": 64, "velocity": 79, "note_on_time": 6.902, "note_off_time": 7.078}, {"pitch": 67, "velocity": 82, "note_on_time": 7.231, "note_off_time": 7.379}, {"pitch": 64, "velocity": 95, "note_on_time": 7.515, "note_off_time": 8.014}, {"pitch": 62, "velocity": 94, "note_on_time": 8.109, "note_off_time": 8.459}, {"pitch": 62, "velocity": 94, "note_on_time": 9.014, "note_off_time": 9.107}, {"pitch": 62, "velocity": 102, "note_on_time": 9.293, "note_off_time": 9.39}]</notes><guidance name="Guidance Mode">None</guidance><error name="Error value">0.16850577777777784</error></trial><trial trial_no="3" timestamp="2022_12_08-11_57_09"><notes name="Played Notes">[{"pitch": 64, "velocity": 94, "note_on_time": 1.081, "note_off_time": 1.251}, {"pitch": 60, "velocity": 81, "note_on_time": 1.393, "note_off_time": 1.543}, {"pitch": 67, "velocity": 84, "note_on_time": 1.647, "note_off_time": 1.795}, {"pitch": 67, "velocity": 73, "note_on_time": 1.938, "note_off_time": 2.109}, {"pitch": 65, "velocity": 80, "note_on_time": 2.233, "note_off_time": 2.525}, {"pitch": 62, "velocity": 91, "note_on_time": 3.26, "note_off_time": 3.446}, {"pitch": 64, "velocity": 80, "note_on_time": 3.562, "note_off_time": 3.765}, {"pitch": 67, "velocity": 60, "note_on_time": 4.638, "note_off_time": 4.773}, {"pitch": 60, "velocity": 77, "note_on_time": 4.928, "note_off_time": 5.051}, {"pitch": 67, "velocity": 82, "note_on_time": 5.195, "note_off_time": 5.381}, {"pitch": 60, "velocity": 84, "note_on_time": 5.504, "note_off_time": 5.701}, {"pitch": 67, "velocity": 93, "note_on_time": 5.821, "note_off_time": 6.295}, {"pitch": 60, "velocity": 89, "note_on_time": 6.468, "note_off_time": 6.596}, {"pitch": 62, "velocity": 84, "note_on_time": 6.743, "note_off_time": 6.88}, {"pitch": 64, "velocity": 76, "note_on_time": 7.027, "note_off_time": 7.175}, {"pitch": 67, "velocity": 75, "note_on_time": 7.327, "note_off_time": 7.455}, {"pitch": 64, "velocity": 89, "note_on_time": 7.592, "note_off_time": 8.16}, {"pitch": 62, "velocity": 93, "note_on_time": 8.224, "note_off_time": 8.574}, {"pitch": 62, "velocity": 101, "note_on_time": 9.051, "note_off_time": 9.126}, {"pitch": 62, "velocity": 101, "note_on_time": 9.316, "note_off_time": 9.398}]</notes><guidance name="Guidance Mode">None</guidance><error name="Error value">0.1454560000000001</error></trial><trial trial_no="4" timestamp="2022_12_08-11_57_27"><notes name="Played Notes">[{"pitch": 64, "velocity": 85, "note_on_time": 1.036, "note_off_time": 1.219}, {"pitch": 60, "velocity": 94, "note_on_time": 1.304, "note_off_time": 1.428}, {"pitch": 67, "velocity": 85, "note_on_time": 1.582, "note_off_time": 1.711}, {"pitch": 67, "velocity": 87, "note_on_time": 1.862, "note_off_time": 2.021}, {"pitch": 65, "velocity": 89, "note_on_time": 2.155, "note_off_time": 2.307}, {"pitch": 62, "velocity": 93, "note_on_time": 2.693, "note_off_time": 3.035}, {"pitch": 64, "velocity": 95, "note_on_time": 3.177, "note_off_time": 3.828}, {"pitch": 67, "velocity": 83, "note_on_time": 4.241, "note_off_time": 4.46}, {"pitch": 60, "velocity": 85, "note_on_time": 4.804, "note_off_time": 4.937}, {"pitch": 67, "velocity": 89, "note_on_time": 5.111, "note_off_time": 5.258}, {"pitch": 60, "velocity": 96, "note_on_time": 5.378, "note_off_time": 5.819}, {"pitch": 67, "velocity": 69, "note_on_time": 5.855, "note_off_time": 6.343}, {"pitch": 60, "velocity": 92, "note_on_time": 6.433, "note_off_time": 6.624}, {"pitch": 62, "velocity": 84, "note_on_time": 6.701, "note_off_time": 6.862}, {"pitch": 64, "velocity": 91, "note_on_time": 6.955, "note_off_time": 7.144}, {"pitch": 67, "velocity": 82, "note_on_time": 7.227, "note_off_time": 7.361}, {"pitch": 64, "velocity": 98, "note_on_time": 7.474, "note_off_time": 8.064}, {"pitch": 62, "velocity": 101, "note_on_time": 8.086, "note_off_time": 8.427}, {"pitch": 62, "velocity": 94, "note_on_time": 8.978, "note_off_time": 9.077}, {"pitch": 62, "velocity": 101, "note_on_time": 9.244, "note_off_time": 9.352}]</notes><guidance name="Guidance Mode">None</guidance><error name="Error value">0.12406422222222219</error></trial><trial trial_no="5" timestamp="2022_12_08-11_57_46"><notes name="Played Notes">[{"pitch": 64, "velocity": 82, "note_on_time": 1.028, "note_off_time": 1.213}, {"pitch": 60, "velocity": 88, "note_on_time": 1.313, "note_off_time": 1.433}, {"pitch": 67, "velocity": 85, "note_on_time": 1.593, "note_off_time": 1.72}, {"pitch": 67, "velocity": 87, "note_on_time": 1.873, "note_off_time": 2.028}, {"pitch": 65, "velocity": 102, "note_on_time": 2.164, "note_off_time": 2.517}, {"pitch": 62, "velocity": 93, "note_on_time": 2.946, "note_off_time": 3.131}, {"pitch": 64, "velocity": 94, "note_on_time": 3.218, "note_off_time": 3.819}, {"pitch": 67, "velocity": 94, "note_on_time": 4.237, "note_off_time": 4.765}, {"pitch": 60, "velocity": 94, "note_on_time": 4.815, "note_off_time": 4.977}, {"pitch": 67, "velocity": 89, "note_on_time": 5.094, "note_off_time": 5.215}, {"pitch": 60, "velocity": 101, "note_on_time": 5.369, "note_off_time": 5.807}, {"pitch": 67, "velocity": 91, "note_on_time": 5.89, "note_off_time": 6.309}, {"pitch": 60, "velocity": 97, "note_on_time": 6.407, "note_off_time": 6.543}, {"pitch": 62, "velocity": 90, "note_on_time": 6.671, "note_off_time": 6.857}, {"pitch": 64, "velocity": 90, "note_on_time": 6.944, "note_off_time": 7.14}, {"pitch": 67, "velocity": 87, "note_on_time": 7.228, "note_off_time": 7.399}, {"pitch": 64, "velocity": 96, "note_on_time": 7.485, "note_off_time": 7.983}, {"pitch": 62, "velocity": 100, "note_on_time": 8.035, "note_off_time": 8.374}, {"pitch": 62, "velocity": 98, "note_on_time": 8.778, "note_off_time": 8.882}, {"pitch": 62, "velocity": 101, "note_on_time": 9.029, "note_off_time": 9.136}, {"pitch": 62, "velocity": 107, "note_on_time": 9.314, "note_off_time": 9.509}]</notes><guidance name="Guidance Mode">None</guidance><error name="Error value">0.02503050000000019</error></trial></trials></MIDI>