<MIDI midiNo="2022_09_29-12_11_58"><target_notes><notes name="Note List">[{"pitch": 42, "velocity": 80, "note_on_time": 0.005, "note_off_time": 0.38}, {"pitch": 42, "velocity": 80, "note_on_time": 0.38, "note_off_time": 0.754}, {"pitch": 42, "velocity": 80, "note_on_time": 0.754, "note_off_time": 1.129}, {"pitch": 42, "velocity": 80, "note_on_time": 1.129, "note_off_time": 1.503}, {"pitch": 60, "velocity": 80, "note_on_time": 1.502, "note_off_time": 1.876}, {"pitch": 42, "velocity": 80, "note_on_time": 1.503, "note_off_time": 1.876}, {"pitch": 64, "velocity": 80, "note_on_time": 1.876, "note_off_time": 2.251}, {"pitch": 42, "velocity": 80, "note_on_time": 1.876, "note_off_time": 2.252}, {"pitch": 60, "velocity": 80, "note_on_time": 2.251, "note_off_time": 2.628}, {"pitch": 42, "velocity": 80, "note_on_time": 2.252, "note_off_time": 2.628}, {"pitch": 60, "velocity": 80, "note_on_time": 2.628, "note_off_time": 3.0}, {"pitch": 42, "velocity": 80, "note_on_time": 2.628, "note_off_time": 3.0}, {"pitch": 62, "velocity": 80, "note_on_time": 3.0, "note_off_time": 3.371}, {"pitch": 42, "velocity": 80, "note_on_time": 3.001, "note_off_time": 3.371}, {"pitch": 62, "velocity": 80, "note_on_time": 3.371, "note_off_time": 3.746}, {"pitch": 42, "velocity": 80, "note_on_time": 3.372, "note_off_time": 3.746}, {"pitch": 62, "velocity": 80, "note_on_time": 3.746, "note_off_time": 4.118}, {"pitch": 42, "velocity": 80, "note_on_time": 3.746, "note_off_time": 4.118}, {"pitch": 60, "velocity": 80, "note_on_time": 4.118, "note_off_time": 4.495}, {"pitch": 42, "velocity": 80, "note_on_time": 4.119, "note_off_time": 4.495}, {"pitch": 62, "velocity": 80, "note_on_time": 4.495, "note_off_time": 4.868}, {"pitch": 42, "velocity": 80, "note_on_time": 4.496, "note_off_time": 4.868}, {"pitch": 64, "velocity": 80, "note_on_time": 4.868, "note_off_time": 5.241}, {"pitch": 42, "velocity": 80, "note_on_time": 4.868, "note_off_time": 5.242}, {"pitch": 64, "velocity": 80, "note_on_time": 5.241, "note_off_time": 5.614}, {"pitch": 42, "velocity": 80, "note_on_time": 5.242, "note_off_time": 5.614}, {"pitch": 64, "velocity": 80, "note_on_time": 5.614, "note_off_time": 5.99}, {"pitch": 42, "velocity": 80, "note_on_time": 5.614, "note_off_time": 5.99}, {"pitch": 60, "velocity": 80, "note_on_time": 5.99, "note_off_time": 6.364}, {"pitch": 42, "velocity": 80, "note_on_time": 5.991, "note_off_time": 6.364}, {"pitch": 60, "velocity": 80, "note_on_time": 6.364, "note_off_time": 6.734}, {"pitch": 42, "velocity": 80, "note_on_time": 6.364, "note_off_time": 6.735}, {"pitch": 62, "velocity": 80, "note_on_time": 6.734, "note_off_time": 7.107}, {"pitch": 42, "velocity": 80, "note_on_time": 6.735, "note_off_time": 7.107}, {"pitch": 62, "velocity": 80, "note_on_time": 7.107, "note_off_time": 7.48}, {"pitch": 42, "velocity": 80, "note_on_time": 7.107, "note_off_time": 7.48}, {"pitch": 60, "velocity": 80, "note_on_time": 7.48, "note_off_time": 7.856}, {"pitch": 42, "velocity": 80, "note_on_time": 7.48, "note_off_time": 7.856}, {"pitch": 64, "velocity": 80, "note_on_time": 7.856, "note_off_time": 8.229}, {"pitch": 42, "velocity": 80, "note_on_time": 7.856, "note_off_time": 8.23}, {"pitch": 60, "velocity": 80, "note_on_time": 8.229, "note_off_time": 8.603}, {"pitch": 42, "velocity": 80, "note_on_time": 8.23, "note_off_time": 8.603}, {"pitch": 64, "velocity": 80, "note_on_time": 8.603, "note_off_time": 8.976}, {"pitch": 42, "velocity": 80, "note_on_time": 8.603, "note_off_time": 8.977}, {"pitch": 62, "velocity": 80, "note_on_time": 8.976, "note_off_time": 9.353}, {"pitch": 42, "velocity": 80, "note_on_time": 8.977, "note_off_time": 9.353}, {"pitch": 64, "velocity": 80, "note_on_time": 9.353, "note_off_time": 9.724}, {"pitch": 42, "velocity": 80, "note_on_time": 9.353, "note_off_time": 9.724}, {"pitch": 64, "velocity": 80, "note_on_time": 9.724, "note_off_time": 10.1}, {"pitch": 42, "velocity": 80, "note_on_time": 9.724, "note_off_time": 10.1}, {"pitch": 60, "velocity": 80, "note_on_time": 10.1, "note_off_time": 10.473}, {"pitch": 42, "velocity": 80, "note_on_time": 10.1, "note_off_time": 10.474}, {"pitch": 62, "velocity": 80, "note_on_time": 10.473, "note_off_time": 10.848}, {"pitch": 42, "velocity": 80, "note_on_time": 10.474, "note_off_time": 10.848}, {"pitch": 62, "velocity": 80, "note_on_time": 10.848, "note_off_time": 11.22}, {"pitch": 42, "velocity": 80, "note_on_time": 10.848, "note_off_time": 11.22}, {"pitch": 42, "velocity": 80, "note_on_time": 11.22, "note_off_time": 11.594}, {"pitch": 60, "velocity": 80, "note_on_time": 11.22, "note_off_time": 11.967}, {"pitch": 42, "velocity": 80, "note_on_time": 11.594, "note_off_time": 11.967}, {"pitch": 42, "velocity": 80, "note_on_time": 11.967, "note_off_time": 12.34}, {"pitch": 60, "velocity": 80, "note_on_time": 12.34, "note_off_time": 12.713}, {"pitch": 42, "velocity": 80, "note_on_time": 12.34, "note_off_time": 12.713}, {"pitch": 60, "velocity": 80, "note_on_time": 12.713, "note_off_time": 13.088}, {"pitch": 42, "velocity": 80, "note_on_time": 12.714, "note_off_time": 13.089}, {"pitch": 60, "velocity": 80, "note_on_time": 13.088, "note_off_time": 13.463}, {"pitch": 42, "velocity": 80, "note_on_time": 13.089, "note_off_time": 13.463}]</notes><options name="Option List">((4, 4), [0.5, 0.25], 3, 8, &lt;NoteRangePerHand.THREE_NOTES: 4&gt;, &lt;NoteRangePerHand.ONE_NOTE: 2&gt;, False, True, False, '166')</options></target_notes><trials><trial trial_no="1" timestamp="2022_09_29-12_11_43"><notes name="Played Notes">[{"pitch": 60, "velocity": 77, "note_on_time": 1.518, "note_off_time": 1.882}, {"pitch": 64, "velocity": 76, "note_on_time": 1.888, "note_off_time": 2.245}, {"pitch": 60, "velocity": 88, "note_on_time": 2.259, "note_off_time": 2.442}, {"pitch": 60, "velocity": 84, "note_on_time": 2.606, "note_off_time": 2.836}, {"pitch": 62, "velocity": 78, "note_on_time": 3.01, "note_off_time": 3.18}, {"pitch": 62, "velocity": 72, "note_on_time": 3.364, "note_off_time": 3.542}, {"pitch": 62, "velocity": 73, "note_on_time": 3.737, "note_off_time": 4.058}, {"pitch": 60, "velocity": 73, "note_on_time": 4.104, "note_off_time": 4.419}, {"pitch": 62, "velocity": 72, "note_on_time": 4.501, "note_off_time": 4.775}, {"pitch": 64, "velocity": 75, "note_on_time": 4.872, "note_off_time": 5.093}, {"pitch": 64, "velocity": 80, "note_on_time": 5.26, "note_off_time": 5.462}, {"pitch": 64, "velocity": 73, "note_on_time": 5.628, "note_off_time": 5.859}, {"pitch": 60, "velocity": 79, "note_on_time": 6.007, "note_off_time": 6.161}, {"pitch": 60, "velocity": 84, "note_on_time": 6.365, "note_off_time": 6.585}, {"pitch": 62, "velocity": 86, "note_on_time": 6.756, "note_off_time": 6.894}, {"pitch": 62, "velocity": 74, "note_on_time": 7.093, "note_off_time": 7.294}, {"pitch": 60, "velocity": 80, "note_on_time": 7.476, "note_off_time": 7.804}, {"pitch": 64, "velocity": 76, "note_on_time": 7.821, "note_off_time": 8.2}, {"pitch": 60, "velocity": 79, "note_on_time": 8.221, "note_off_time": 8.57}, {"pitch": 64, "velocity": 79, "note_on_time": 8.585, "note_off_time": 8.928}, {"pitch": 62, "velocity": 73, "note_on_time": 8.956, "note_off_time": 9.222}, {"pitch": 64, "velocity": 78, "note_on_time": 9.329, "note_off_time": 9.51}, {"pitch": 64, "velocity": 84, "note_on_time": 9.705, "note_off_time": 9.976}, {"pitch": 60, "velocity": 74, "note_on_time": 10.1, "note_off_time": 10.318}, {"pitch": 62, "velocity": 84, "note_on_time": 10.482, "note_off_time": 10.649}, {"pitch": 62, "velocity": 85, "note_on_time": 10.85, "note_off_time": 10.994}, {"pitch": 60, "velocity": 87, "note_on_time": 11.202, "note_off_time": 12.551}, {"pitch": 60, "velocity": 87, "note_on_time": 12.744, "note_off_time": 12.9}, {"pitch": 60, "velocity": 82, "note_on_time": 13.081, "note_off_time": 13.242}]</notes><guidance name="Guidance Mode">None</guidance><error name="Error value">0.08358814814814819</error></trial><trial trial_no="2" timestamp="2022_09_29-12_12_16"><notes name="Played Notes">[{"pitch": 60, "velocity": 77, "note_on_time": 1.491, "note_off_time": 1.852}, {"pitch": 64, "velocity": 76, "note_on_time": 1.843, "note_off_time": 2.21}, {"pitch": 60, "velocity": 85, "note_on_time": 2.224, "note_off_time": 2.395}, {"pitch": 60, "velocity": 85, "note_on_time": 2.576, "note_off_time": 2.792}, {"pitch": 62, "velocity": 75, "note_on_time": 2.975, "note_off_time": 3.124}, {"pitch": 62, "velocity": 72, "note_on_time": 3.337, "note_off_time": 3.503}, {"pitch": 62, "velocity": 74, "note_on_time": 3.717, "note_off_time": 4.046}, {"pitch": 60, "velocity": 78, "note_on_time": 4.091, "note_off_time": 4.43}, {"pitch": 62, "velocity": 70, "note_on_time": 4.463, "note_off_time": 4.784}, {"pitch": 64, "velocity": 72, "note_on_time": 4.825, "note_off_time": 5.063}, {"pitch": 64, "velocity": 77, "note_on_time": 5.234, "note_off_time": 5.443}, {"pitch": 64, "velocity": 80, "note_on_time": 5.603, "note_off_time": 5.866}, {"pitch": 60, "velocity": 75, "note_on_time": 5.995, "note_off_time": 6.157}, {"pitch": 60, "velocity": 79, "note_on_time": 6.363, "note_off_time": 6.574}, {"pitch": 62, "velocity": 72, "note_on_time": 6.736, "note_off_time": 6.876}, {"pitch": 62, "velocity": 72, "note_on_time": 7.093, "note_off_time": 7.295}, {"pitch": 60, "velocity": 78, "note_on_time": 7.473, "note_off_time": 7.814}, {"pitch": 64, "velocity": 72, "note_on_time": 7.838, "note_off_time": 8.189}, {"pitch": 60, "velocity": 69, "note_on_time": 8.214, "note_off_time": 8.573}, {"pitch": 64, "velocity": 72, "note_on_time": 8.583, "note_off_time": 8.941}, {"pitch": 62, "velocity": 72, "note_on_time": 8.946, "note_off_time": 9.217}, {"pitch": 64, "velocity": 74, "note_on_time": 9.32, "note_off_time": 9.516}, {"pitch": 64, "velocity": 76, "note_on_time": 9.7, "note_off_time": 9.981}, {"pitch": 60, "velocity": 68, "note_on_time": 10.049, "note_off_time": 10.29}, {"pitch": 62, "velocity": 76, "note_on_time": 10.47, "note_off_time": 10.633}, {"pitch": 62, "velocity": 76, "note_on_time": 10.834, "note_off_time": 11.075}, {"pitch": 60, "velocity": 90, "note_on_time": 11.193, "note_off_time": 12.413}, {"pitch": 60, "velocity": 92, "note_on_time": 12.677, "note_off_time": 12.851}, {"pitch": 60, "velocity": 85, "note_on_time": 13.055, "note_off_time": 13.22}]</notes><guidance name="Guidance Mode">None</guidance><error name="Error value">0.06514370370370377</error></trial><trial trial_no="3" timestamp="2022_09_29-12_12_53"><notes name="Played Notes">[{"pitch": 60, "velocity": 89, "note_on_time": 1.514, "note_off_time": 1.869}, {"pitch": 64, "velocity": 78, "note_on_time": 1.869, "note_off_time": 2.244}, {"pitch": 60, "velocity": 86, "note_on_time": 2.255, "note_off_time": 2.432}, {"pitch": 60, "velocity": 82, "note_on_time": 2.599, "note_off_time": 2.825}, {"pitch": 62, "velocity": 74, "note_on_time": 2.984, "note_off_time": 3.156}, {"pitch": 62, "velocity": 70, "note_on_time": 3.334, "note_off_time": 3.501}, {"pitch": 62, "velocity": 71, "note_on_time": 3.709, "note_off_time": 4.041}, {"pitch": 60, "velocity": 79, "note_on_time": 4.094, "note_off_time": 4.456}, {"pitch": 62, "velocity": 74, "note_on_time": 4.479, "note_off_time": 4.792}, {"pitch": 64, "velocity": 74, "note_on_time": 4.84, "note_off_time": 5.044}, {"pitch": 64, "velocity": 69, "note_on_time": 5.22, "note_off_time": 5.425}, {"pitch": 64, "velocity": 78, "note_on_time": 5.595, "note_off_time": 5.852}, {"pitch": 60, "velocity": 75, "note_on_time": 5.977, "note_off_time": 6.142}, {"pitch": 60, "velocity": 87, "note_on_time": 6.353, "note_off_time": 6.566}, {"pitch": 62, "velocity": 73, "note_on_time": 6.739, "note_off_time": 6.885}, {"pitch": 62, "velocity": 79, "note_on_time": 7.089, "note_off_time": 7.287}, {"pitch": 60, "velocity": 84, "note_on_time": 7.476, "note_off_time": 7.819}, {"pitch": 64, "velocity": 76, "note_on_time": 7.835, "note_off_time": 8.195}, {"pitch": 60, "velocity": 85, "note_on_time": 8.22, "note_off_time": 8.551}, {"pitch": 64, "velocity": 78, "note_on_time": 8.571, "note_off_time": 8.918}, {"pitch": 62, "velocity": 72, "note_on_time": 8.94, "note_off_time": 9.228}, {"pitch": 64, "velocity": 74, "note_on_time": 9.316, "note_off_time": 9.536}, {"pitch": 64, "velocity": 74, "note_on_time": 9.712, "note_off_time": 9.987}, {"pitch": 60, "velocity": 68, "note_on_time": 10.079, "note_off_time": 10.306}, {"pitch": 62, "velocity": 79, "note_on_time": 10.489, "note_off_time": 10.669}, {"pitch": 62, "velocity": 80, "note_on_time": 10.861, "note_off_time": 11.063}, {"pitch": 60, "velocity": 87, "note_on_time": 11.225, "note_off_time": 12.576}, {"pitch": 60, "velocity": 79, "note_on_time": 12.69, "note_off_time": 12.896}, {"pitch": 60, "velocity": 77, "note_on_time": 13.043, "note_off_time": 13.246}]</notes><guidance name="Guidance Mode">None</guidance><error name="Error value">0.06679814814814827</error></trial></trials></MIDI>