<MIDI midiNo="2022_10_27-13_55_58"><target_notes><notes name="Note List">[{"pitch": 42, "velocity": 80, "note_on_time": 0.004, "note_off_time": 0.29}, {"pitch": 42, "velocity": 80, "note_on_time": 0.29, "note_off_time": 0.585}, {"pitch": 42, "velocity": 80, "note_on_time": 0.586, "note_off_time": 0.88}, {"pitch": 42, "velocity": 80, "note_on_time": 0.88, "note_off_time": 1.177}, {"pitch": 64, "velocity": 80, "note_on_time": 1.176, "note_off_time": 1.471}, {"pitch": 42, "velocity": 80, "note_on_time": 1.177, "note_off_time": 1.471}, {"pitch": 60, "velocity": 80, "note_on_time": 1.471, "note_off_time": 1.753}, {"pitch": 42, "velocity": 80, "note_on_time": 1.471, "note_off_time": 1.753}, {"pitch": 64, "velocity": 80, "note_on_time": 1.753, "note_off_time": 2.048}, {"pitch": 42, "velocity": 80, "note_on_time": 1.753, "note_off_time": 2.048}, {"pitch": 65, "velocity": 80, "note_on_time": 2.048, "note_off_time": 2.341}, {"pitch": 42, "velocity": 80, "note_on_time": 2.049, "note_off_time": 2.341}, {"pitch": 60, "velocity": 80, "note_on_time": 2.341, "note_off_time": 2.623}, {"pitch": 42, "velocity": 80, "note_on_time": 2.342, "note_off_time": 2.623}, {"pitch": 67, "velocity": 80, "note_on_time": 2.623, "note_off_time": 2.918}, {"pitch": 42, "velocity": 80, "note_on_time": 2.623, "note_off_time": 2.918}, {"pitch": 62, "velocity": 80, "note_on_time": 2.918, "note_off_time": 3.2}, {"pitch": 42, "velocity": 80, "note_on_time": 2.918, "note_off_time": 3.2}, {"pitch": 60, "velocity": 80, "note_on_time": 3.2, "note_off_time": 3.494}, {"pitch": 42, "velocity": 80, "note_on_time": 3.2, "note_off_time": 3.494}, {"pitch": 65, "velocity": 80, "note_on_time": 3.494, "note_off_time": 3.79}, {"pitch": 42, "velocity": 80, "note_on_time": 3.494, "note_off_time": 3.79}, {"pitch": 64, "velocity": 80, "note_on_time": 3.79, "note_off_time": 4.071}, {"pitch": 42, "velocity": 80, "note_on_time": 3.791, "note_off_time": 4.072}, {"pitch": 62, "velocity": 80, "note_on_time": 4.071, "note_off_time": 4.353}, {"pitch": 42, "velocity": 80, "note_on_time": 4.072, "note_off_time": 4.353}, {"pitch": 60, "velocity": 80, "note_on_time": 4.353, "note_off_time": 4.647}, {"pitch": 42, "velocity": 80, "note_on_time": 4.354, "note_off_time": 4.647}, {"pitch": 60, "velocity": 80, "note_on_time": 4.647, "note_off_time": 4.928}, {"pitch": 42, "velocity": 80, "note_on_time": 4.647, "note_off_time": 4.928}, {"pitch": 42, "velocity": 80, "note_on_time": 4.928, "note_off_time": 5.223}, {"pitch": 60, "velocity": 80, "note_on_time": 4.928, "note_off_time": 5.517}, {"pitch": 42, "velocity": 80, "note_on_time": 5.223, "note_off_time": 5.517}, {"pitch": 65, "velocity": 80, "note_on_time": 5.517, "note_off_time": 5.8}, {"pitch": 42, "velocity": 80, "note_on_time": 5.517, "note_off_time": 5.801}, {"pitch": 67, "velocity": 80, "note_on_time": 5.8, "note_off_time": 6.081}, {"pitch": 42, "velocity": 80, "note_on_time": 5.801, "note_off_time": 6.081}, {"pitch": 65, "velocity": 80, "note_on_time": 6.081, "note_off_time": 6.378}, {"pitch": 42, "velocity": 80, "note_on_time": 6.081, "note_off_time": 6.378}, {"pitch": 42, "velocity": 80, "note_on_time": 6.378, "note_off_time": 6.659}, {"pitch": 64, "velocity": 80, "note_on_time": 6.378, "note_off_time": 6.953}, {"pitch": 42, "velocity": 80, "note_on_time": 6.659, "note_off_time": 6.953}, {"pitch": 65, "velocity": 80, "note_on_time": 6.953, "note_off_time": 7.248}, {"pitch": 42, "velocity": 80, "note_on_time": 6.954, "note_off_time": 7.249}, {"pitch": 64, "velocity": 80, "note_on_time": 7.248, "note_off_time": 7.53}, {"pitch": 42, "velocity": 80, "note_on_time": 7.249, "note_off_time": 7.53}, {"pitch": 62, "velocity": 80, "note_on_time": 7.53, "note_off_time": 7.811}, {"pitch": 42, "velocity": 80, "note_on_time": 7.53, "note_off_time": 7.811}, {"pitch": 60, "velocity": 80, "note_on_time": 7.811, "note_off_time": 8.106}, {"pitch": 42, "velocity": 80, "note_on_time": 7.811, "note_off_time": 8.106}, {"pitch": 42, "velocity": 80, "note_on_time": 8.106, "note_off_time": 8.4}, {"pitch": 65, "velocity": 80, "note_on_time": 8.106, "note_off_time": 8.694}, {"pitch": 42, "velocity": 80, "note_on_time": 8.4, "note_off_time": 8.694}, {"pitch": 42, "velocity": 80, "note_on_time": 8.694, "note_off_time": 8.989}, {"pitch": 42, "velocity": 80, "note_on_time": 8.989, "note_off_time": 9.284}, {"pitch": 42, "velocity": 80, "note_on_time": 9.284, "note_off_time": 9.581}, {"pitch": 65, "velocity": 80, "note_on_time": 9.58, "note_off_time": 9.874}, {"pitch": 42, "velocity": 80, "note_on_time": 9.581, "note_off_time": 9.874}, {"pitch": 65, "velocity": 80, "note_on_time": 9.874, "note_off_time": 10.168}, {"pitch": 42, "velocity": 80, "note_on_time": 9.875, "note_off_time": 10.168}, {"pitch": 65, "velocity": 80, "note_on_time": 10.168, "note_off_time": 10.465}, {"pitch": 42, "velocity": 80, "note_on_time": 10.168, "note_off_time": 10.465}]</notes><options name="Option List">((4, 4), [0.5, 0.25], 3, 8, &lt;NoteRangePerHand.C_TO_G: 6&gt;, &lt;NoteRangePerHand.ONE_NOTE: 2&gt;, False, True, False, 215)</options></target_notes><trials><trial trial_no="1" timestamp="2022_10_27-13_55_46"><notes name="Played Notes">[{"pitch": 76, "velocity": 73, "note_on_time": 1.172, "note_off_time": 1.457}, {"pitch": 72, "velocity": 68, "note_on_time": 1.449, "note_off_time": 1.714}, {"pitch": 76, "velocity": 68, "note_on_time": 1.759, "note_off_time": 2.028}, {"pitch": 77, "velocity": 77, "note_on_time": 2.024, "note_off_time": 2.301}, {"pitch": 72, "velocity": 74, "note_on_time": 2.322, "note_off_time": 2.577}, {"pitch": 79, "velocity": 67, "note_on_time": 2.599, "note_off_time": 2.918}, {"pitch": 74, "velocity": 74, "note_on_time": 2.904, "note_off_time": 3.175}, {"pitch": 72, "velocity": 72, "note_on_time": 3.184, "note_off_time": 3.443}, {"pitch": 77, "velocity": 76, "note_on_time": 3.485, "note_off_time": 3.762}, {"pitch": 76, "velocity": 72, "note_on_time": 3.757, "note_off_time": 4.06}, {"pitch": 74, "velocity": 70, "note_on_time": 4.05, "note_off_time": 4.321}, {"pitch": 72, "velocity": 74, "note_on_time": 4.332, "note_off_time": 4.447}, {"pitch": 72, "velocity": 79, "note_on_time": 4.629, "note_off_time": 4.727}, {"pitch": 72, "velocity": 81, "note_on_time": 4.939, "note_off_time": 5.446}, {"pitch": 77, "velocity": 76, "note_on_time": 5.554, "note_off_time": 5.757}, {"pitch": 79, "velocity": 76, "note_on_time": 5.843, "note_off_time": 6.074}, {"pitch": 77, "velocity": 79, "note_on_time": 6.121, "note_off_time": 6.36}, {"pitch": 76, "velocity": 75, "note_on_time": 6.417, "note_off_time": 6.878}, {"pitch": 77, "velocity": 76, "note_on_time": 6.994, "note_off_time": 7.265}, {"pitch": 76, "velocity": 69, "note_on_time": 7.274, "note_off_time": 7.563}, {"pitch": 74, "velocity": 70, "note_on_time": 7.573, "note_off_time": 7.841}, {"pitch": 72, "velocity": 78, "note_on_time": 7.856, "note_off_time": 8.089}, {"pitch": 77, "velocity": 82, "note_on_time": 8.141, "note_off_time": 8.627}, {"pitch": 77, "velocity": 84, "note_on_time": 9.591, "note_off_time": 9.698}, {"pitch": 77, "velocity": 78, "note_on_time": 9.876, "note_off_time": 9.982}, {"pitch": 77, "velocity": 81, "note_on_time": 10.164, "note_off_time": 10.264}]</notes><guidance name="Guidance Mode">None</guidance><error name="Error value">1.147545695652174</error></trial></trials></MIDI>