<MIDI midiNo="2022_09_29-12_19_46"><target_notes><notes name="Note List">[{"pitch": 42, "velocity": 80, "note_on_time": 0.004, "note_off_time": 0.327}, {"pitch": 42, "velocity": 80, "note_on_time": 0.328, "note_off_time": 0.654}, {"pitch": 42, "velocity": 80, "note_on_time": 0.654, "note_off_time": 0.98}, {"pitch": 42, "velocity": 80, "note_on_time": 0.98, "note_off_time": 1.305}, {"pitch": 64, "velocity": 80, "note_on_time": 1.305, "note_off_time": 1.633}, {"pitch": 42, "velocity": 80, "note_on_time": 1.306, "note_off_time": 1.633}, {"pitch": 64, "velocity": 80, "note_on_time": 1.633, "note_off_time": 1.959}, {"pitch": 42, "velocity": 80, "note_on_time": 1.633, "note_off_time": 1.959}, {"pitch": 60, "velocity": 80, "note_on_time": 1.959, "note_off_time": 2.286}, {"pitch": 42, "velocity": 80, "note_on_time": 1.96, "note_off_time": 2.287}, {"pitch": 64, "velocity": 80, "note_on_time": 2.286, "note_off_time": 2.613}, {"pitch": 42, "velocity": 80, "note_on_time": 2.287, "note_off_time": 2.613}, {"pitch": 60, "velocity": 80, "note_on_time": 2.613, "note_off_time": 2.94}, {"pitch": 42, "velocity": 80, "note_on_time": 2.613, "note_off_time": 2.941}, {"pitch": 64, "velocity": 80, "note_on_time": 2.94, "note_off_time": 3.269}, {"pitch": 42, "velocity": 80, "note_on_time": 2.941, "note_off_time": 3.269}, {"pitch": 62, "velocity": 80, "note_on_time": 3.269, "note_off_time": 3.595}, {"pitch": 42, "velocity": 80, "note_on_time": 3.27, "note_off_time": 3.596}, {"pitch": 64, "velocity": 80, "note_on_time": 3.595, "note_off_time": 3.921}, {"pitch": 42, "velocity": 80, "note_on_time": 3.596, "note_off_time": 3.921}, {"pitch": 62, "velocity": 80, "note_on_time": 3.921, "note_off_time": 4.248}, {"pitch": 42, "velocity": 80, "note_on_time": 3.921, "note_off_time": 4.249}, {"pitch": 64, "velocity": 80, "note_on_time": 4.248, "note_off_time": 4.574}, {"pitch": 42, "velocity": 80, "note_on_time": 4.249, "note_off_time": 4.574}, {"pitch": 64, "velocity": 80, "note_on_time": 4.574, "note_off_time": 4.901}, {"pitch": 42, "velocity": 80, "note_on_time": 4.575, "note_off_time": 4.901}, {"pitch": 62, "velocity": 80, "note_on_time": 4.901, "note_off_time": 5.227}, {"pitch": 42, "velocity": 80, "note_on_time": 4.901, "note_off_time": 5.227}, {"pitch": 62, "velocity": 80, "note_on_time": 5.227, "note_off_time": 5.555}, {"pitch": 42, "velocity": 80, "note_on_time": 5.228, "note_off_time": 5.555}, {"pitch": 64, "velocity": 80, "note_on_time": 5.555, "note_off_time": 5.881}, {"pitch": 42, "velocity": 80, "note_on_time": 5.555, "note_off_time": 5.882}, {"pitch": 60, "velocity": 80, "note_on_time": 5.881, "note_off_time": 6.208}, {"pitch": 42, "velocity": 80, "note_on_time": 5.882, "note_off_time": 6.208}, {"pitch": 64, "velocity": 80, "note_on_time": 6.208, "note_off_time": 6.534}, {"pitch": 42, "velocity": 80, "note_on_time": 6.208, "note_off_time": 6.534}, {"pitch": 62, "velocity": 80, "note_on_time": 6.534, "note_off_time": 6.863}, {"pitch": 42, "velocity": 80, "note_on_time": 6.535, "note_off_time": 6.863}, {"pitch": 64, "velocity": 80, "note_on_time": 6.863, "note_off_time": 7.189}, {"pitch": 42, "velocity": 80, "note_on_time": 6.863, "note_off_time": 7.19}, {"pitch": 62, "velocity": 80, "note_on_time": 7.189, "note_off_time": 7.516}, {"pitch": 42, "velocity": 80, "note_on_time": 7.19, "note_off_time": 7.517}, {"pitch": 60, "velocity": 80, "note_on_time": 7.516, "note_off_time": 7.845}, {"pitch": 42, "velocity": 80, "note_on_time": 7.517, "note_off_time": 7.845}, {"pitch": 60, "velocity": 80, "note_on_time": 7.845, "note_off_time": 8.172}, {"pitch": 42, "velocity": 80, "note_on_time": 7.845, "note_off_time": 8.173}, {"pitch": 42, "velocity": 80, "note_on_time": 8.173, "note_off_time": 8.499}, {"pitch": 42, "velocity": 80, "note_on_time": 8.5, "note_off_time": 8.826}, {"pitch": 42, "velocity": 80, "note_on_time": 8.826, "note_off_time": 9.15}, {"pitch": 60, "velocity": 80, "note_on_time": 9.15, "note_off_time": 9.475}, {"pitch": 42, "velocity": 80, "note_on_time": 9.15, "note_off_time": 9.475}, {"pitch": 60, "velocity": 80, "note_on_time": 9.475, "note_off_time": 9.803}, {"pitch": 42, "velocity": 80, "note_on_time": 9.475, "note_off_time": 9.803}, {"pitch": 62, "velocity": 80, "note_on_time": 9.803, "note_off_time": 10.132}, {"pitch": 42, "velocity": 80, "note_on_time": 9.804, "note_off_time": 10.132}, {"pitch": 60, "velocity": 80, "note_on_time": 10.132, "note_off_time": 10.46}, {"pitch": 42, "velocity": 80, "note_on_time": 10.132, "note_off_time": 10.46}, {"pitch": 42, "velocity": 80, "note_on_time": 10.461, "note_off_time": 10.79}, {"pitch": 60, "velocity": 80, "note_on_time": 10.789, "note_off_time": 11.116}, {"pitch": 42, "velocity": 80, "note_on_time": 10.79, "note_off_time": 11.117}, {"pitch": 60, "velocity": 80, "note_on_time": 11.116, "note_off_time": 11.441}, {"pitch": 42, "velocity": 80, "note_on_time": 11.117, "note_off_time": 11.441}, {"pitch": 60, "velocity": 80, "note_on_time": 11.441, "note_off_time": 11.767}, {"pitch": 42, "velocity": 80, "note_on_time": 11.442, "note_off_time": 11.767}]</notes><options name="Option List">((4, 4), [0.5, 0.25], 3, 8, &lt;NoteRangePerHand.THREE_NOTES: 4&gt;, &lt;NoteRangePerHand.ONE_NOTE: 2&gt;, False, True, False, '187')</options></target_notes><trials><trial trial_no="1" timestamp="2022_09_29-12_19_33"><notes name="Played Notes">[{"pitch": 64, "velocity": 80, "note_on_time": 1.312, "note_off_time": 1.465}, {"pitch": 64, "velocity": 84, "note_on_time": 1.626, "note_off_time": 1.837}, {"pitch": 60, "velocity": 80, "note_on_time": 1.935, "note_off_time": 2.277}, {"pitch": 64, "velocity": 79, "note_on_time": 2.289, "note_off_time": 2.605}, {"pitch": 60, "velocity": 84, "note_on_time": 2.632, "note_off_time": 2.933}, {"pitch": 64, "velocity": 79, "note_on_time": 2.943, "note_off_time": 3.277}, {"pitch": 62, "velocity": 77, "note_on_time": 3.285, "note_off_time": 3.585}, {"pitch": 64, "velocity": 79, "note_on_time": 3.584, "note_off_time": 3.911}, {"pitch": 62, "velocity": 84, "note_on_time": 3.908, "note_off_time": 4.235}, {"pitch": 64, "velocity": 82, "note_on_time": 4.234, "note_off_time": 4.416}, {"pitch": 64, "velocity": 79, "note_on_time": 4.562, "note_off_time": 4.879}, {"pitch": 62, "velocity": 80, "note_on_time": 4.902, "note_off_time": 5.137}, {"pitch": 60, "velocity": 68, "note_on_time": 5.227, "note_off_time": 5.538}, {"pitch": 62, "velocity": 91, "note_on_time": 5.545, "note_off_time": 5.859}, {"pitch": 60, "velocity": 87, "note_on_time": 5.868, "note_off_time": 6.214}, {"pitch": 64, "velocity": 78, "note_on_time": 6.219, "note_off_time": 6.5}, {"pitch": 62, "velocity": 84, "note_on_time": 6.524, "note_off_time": 6.877}, {"pitch": 64, "velocity": 76, "note_on_time": 6.873, "note_off_time": 7.179}, {"pitch": 62, "velocity": 76, "note_on_time": 7.164, "note_off_time": 7.519}, {"pitch": 60, "velocity": 79, "note_on_time": 7.507, "note_off_time": 7.727}, {"pitch": 60, "velocity": 78, "note_on_time": 7.824, "note_off_time": 8.157}, {"pitch": 60, "velocity": 86, "note_on_time": 9.128, "note_off_time": 9.321}, {"pitch": 60, "velocity": 94, "note_on_time": 9.475, "note_off_time": 9.674}, {"pitch": 62, "velocity": 73, "note_on_time": 9.802, "note_off_time": 10.115}, {"pitch": 60, "velocity": 92, "note_on_time": 10.132, "note_off_time": 10.456}, {"pitch": 60, "velocity": 95, "note_on_time": 10.794, "note_off_time": 10.945}, {"pitch": 60, "velocity": 89, "note_on_time": 11.112, "note_off_time": 11.261}, {"pitch": 60, "velocity": 94, "note_on_time": 11.442, "note_off_time": 11.678}]</notes><guidance name="Guidance Mode">None</guidance><error name="Error value">0.09579540000000013</error></trial><trial trial_no="2" timestamp="2022_09_29-12_20_03"><notes name="Played Notes">[{"pitch": 64, "velocity": 82, "note_on_time": 1.289, "note_off_time": 1.455}, {"pitch": 64, "velocity": 79, "note_on_time": 1.6, "note_off_time": 1.836}, {"pitch": 60, "velocity": 83, "note_on_time": 1.954, "note_off_time": 2.31}, {"pitch": 64, "velocity": 80, "note_on_time": 2.312, "note_off_time": 2.614}, {"pitch": 60, "velocity": 85, "note_on_time": 2.648, "note_off_time": 2.952}, {"pitch": 64, "velocity": 84, "note_on_time": 2.965, "note_off_time": 3.296}, {"pitch": 62, "velocity": 82, "note_on_time": 3.298, "note_off_time": 3.602}, {"pitch": 64, "velocity": 81, "note_on_time": 3.597, "note_off_time": 3.92}, {"pitch": 62, "velocity": 79, "note_on_time": 3.929, "note_off_time": 4.253}, {"pitch": 64, "velocity": 78, "note_on_time": 4.252, "note_off_time": 4.427}, {"pitch": 64, "velocity": 82, "note_on_time": 4.569, "note_off_time": 4.887}, {"pitch": 62, "velocity": 85, "note_on_time": 4.908, "note_off_time": 5.088}, {"pitch": 62, "velocity": 77, "note_on_time": 5.235, "note_off_time": 5.574}, {"pitch": 64, "velocity": 79, "note_on_time": 5.566, "note_off_time": 5.874}, {"pitch": 60, "velocity": 88, "note_on_time": 5.891, "note_off_time": 6.204}, {"pitch": 64, "velocity": 82, "note_on_time": 6.213, "note_off_time": 6.485}, {"pitch": 60, "velocity": 74, "note_on_time": 6.523, "note_off_time": 6.88}, {"pitch": 62, "velocity": 93, "note_on_time": 6.876, "note_off_time": 7.209}, {"pitch": 64, "velocity": 79, "note_on_time": 7.19, "note_off_time": 7.539}, {"pitch": 62, "velocity": 86, "note_on_time": 7.508, "note_off_time": 7.821}, {"pitch": 60, "velocity": 78, "note_on_time": 7.824, "note_off_time": 8.047}, {"pitch": 60, "velocity": 90, "note_on_time": 8.167, "note_off_time": 8.753}, {"pitch": 60, "velocity": 89, "note_on_time": 9.145, "note_off_time": 9.298}, {"pitch": 60, "velocity": 84, "note_on_time": 9.482, "note_off_time": 9.706}, {"pitch": 62, "velocity": 80, "note_on_time": 9.796, "note_off_time": 10.1}, {"pitch": 60, "velocity": 93, "note_on_time": 10.116, "note_off_time": 10.514}, {"pitch": 60, "velocity": 94, "note_on_time": 10.778, "note_off_time": 10.913}, {"pitch": 60, "velocity": 87, "note_on_time": 11.073, "note_off_time": 11.232}, {"pitch": 60, "velocity": 100, "note_on_time": 11.416, "note_off_time": 11.675}]</notes><guidance name="Guidance Mode">None</guidance><error name="Error value">0.8010922000000004</error></trial><trial trial_no="3" timestamp="2022_09_29-12_20_30"><notes name="Played Notes">[{"pitch": 64, "velocity": 74, "note_on_time": 1.318, "note_off_time": 1.506}, {"pitch": 64, "velocity": 81, "note_on_time": 1.667, "note_off_time": 1.93}, {"pitch": 60, "velocity": 81, "note_on_time": 1.97, "note_off_time": 2.291}, {"pitch": 64, "velocity": 83, "note_on_time": 2.295, "note_off_time": 2.614}, {"pitch": 60, "velocity": 84, "note_on_time": 2.637, "note_off_time": 2.956}, {"pitch": 64, "velocity": 82, "note_on_time": 2.964, "note_off_time": 3.287}, {"pitch": 62, "velocity": 79, "note_on_time": 3.289, "note_off_time": 3.597}, {"pitch": 64, "velocity": 74, "note_on_time": 3.589, "note_off_time": 3.935}, {"pitch": 62, "velocity": 81, "note_on_time": 3.929, "note_off_time": 4.198}, {"pitch": 64, "velocity": 76, "note_on_time": 4.255, "note_off_time": 4.448}, {"pitch": 64, "velocity": 74, "note_on_time": 4.585, "note_off_time": 4.849}, {"pitch": 62, "velocity": 82, "note_on_time": 4.907, "note_off_time": 5.078}, {"pitch": 62, "velocity": 79, "note_on_time": 5.243, "note_off_time": 5.565}, {"pitch": 64, "velocity": 75, "note_on_time": 5.571, "note_off_time": 5.884}, {"pitch": 60, "velocity": 85, "note_on_time": 5.901, "note_off_time": 6.21}, {"pitch": 64, "velocity": 80, "note_on_time": 6.212, "note_off_time": 6.531}, {"pitch": 62, "velocity": 78, "note_on_time": 6.546, "note_off_time": 6.871}, {"pitch": 64, "velocity": 81, "note_on_time": 6.87, "note_off_time": 7.224}, {"pitch": 62, "velocity": 81, "note_on_time": 7.187, "note_off_time": 7.514}, {"pitch": 60, "velocity": 92, "note_on_time": 7.506, "note_off_time": 7.74}, {"pitch": 60, "velocity": 90, "note_on_time": 7.833, "note_off_time": 8.247}, {"pitch": 60, "velocity": 88, "note_on_time": 9.195, "note_off_time": 9.345}, {"pitch": 60, "velocity": 88, "note_on_time": 9.5, "note_off_time": 9.739}, {"pitch": 62, "velocity": 75, "note_on_time": 9.823, "note_off_time": 10.149}, {"pitch": 60, "velocity": 94, "note_on_time": 10.156, "note_off_time": 10.455}, {"pitch": 60, "velocity": 95, "note_on_time": 10.807, "note_off_time": 10.95}, {"pitch": 60, "velocity": 89, "note_on_time": 11.118, "note_off_time": 11.263}, {"pitch": 60, "velocity": 96, "note_on_time": 11.446, "note_off_time": 11.664}]</notes><guidance name="Guidance Mode">None</guidance><error name="Error value">0.01365860000000005</error></trial></trials></MIDI>