<MIDI midiNo="2022_09_08-11_40_39"><target_notes><notes name="Note List">[{"pitch": 42, "velocity": 80, "note_on_time": 0.004, "note_off_time": 0.758}, {"pitch": 42, "velocity": 80, "note_on_time": 0.758, "note_off_time": 1.521}, {"pitch": 42, "velocity": 80, "note_on_time": 1.521, "note_off_time": 2.284}, {"pitch": 42, "velocity": 80, "note_on_time": 2.285, "note_off_time": 3.047}, {"pitch": 60, "velocity": 80, "note_on_time": 3.047, "note_off_time": 3.81}, {"pitch": 42, "velocity": 80, "note_on_time": 3.048, "note_off_time": 3.811}, {"pitch": 42, "velocity": 80, "note_on_time": 3.811, "note_off_time": 4.572}, {"pitch": 62, "velocity": 80, "note_on_time": 4.572, "note_off_time": 5.334}, {"pitch": 42, "velocity": 80, "note_on_time": 4.572, "note_off_time": 5.334}, {"pitch": 42, "velocity": 80, "note_on_time": 5.334, "note_off_time": 6.096}, {"pitch": 62, "velocity": 80, "note_on_time": 6.096, "note_off_time": 6.859}, {"pitch": 42, "velocity": 80, "note_on_time": 6.096, "note_off_time": 6.859}, {"pitch": 62, "velocity": 80, "note_on_time": 6.859, "note_off_time": 7.618}, {"pitch": 42, "velocity": 80, "note_on_time": 6.859, "note_off_time": 7.619}, {"pitch": 60, "velocity": 80, "note_on_time": 7.618, "note_off_time": 8.381}, {"pitch": 42, "velocity": 80, "note_on_time": 7.619, "note_off_time": 8.381}, {"pitch": 62, "velocity": 80, "note_on_time": 8.381, "note_off_time": 9.141}, {"pitch": 42, "velocity": 80, "note_on_time": 8.381, "note_off_time": 9.141}, {"pitch": 60, "velocity": 80, "note_on_time": 9.141, "note_off_time": 9.903}, {"pitch": 42, "velocity": 80, "note_on_time": 9.141, "note_off_time": 9.903}, {"pitch": 60, "velocity": 80, "note_on_time": 9.903, "note_off_time": 10.665}, {"pitch": 42, "velocity": 80, "note_on_time": 9.903, "note_off_time": 10.665}, {"pitch": 62, "velocity": 80, "note_on_time": 10.665, "note_off_time": 11.426}, {"pitch": 42, "velocity": 80, "note_on_time": 10.665, "note_off_time": 11.427}, {"pitch": 60, "velocity": 80, "note_on_time": 11.426, "note_off_time": 12.191}, {"pitch": 42, "velocity": 80, "note_on_time": 11.427, "note_off_time": 12.191}, {"pitch": 60, "velocity": 80, "note_on_time": 12.191, "note_off_time": 12.955}, {"pitch": 42, "velocity": 80, "note_on_time": 12.191, "note_off_time": 12.955}, {"pitch": 60, "velocity": 80, "note_on_time": 12.955, "note_off_time": 13.716}, {"pitch": 42, "velocity": 80, "note_on_time": 12.955, "note_off_time": 13.716}, {"pitch": 62, "velocity": 80, "note_on_time": 13.716, "note_off_time": 14.476}, {"pitch": 42, "velocity": 80, "note_on_time": 13.717, "note_off_time": 14.476}, {"pitch": 60, "velocity": 80, "note_on_time": 14.476, "note_off_time": 15.237}, {"pitch": 42, "velocity": 80, "note_on_time": 14.476, "note_off_time": 15.237}, {"pitch": 62, "velocity": 80, "note_on_time": 15.237, "note_off_time": 16.001}, {"pitch": 42, "velocity": 80, "note_on_time": 15.238, "note_off_time": 16.001}, {"pitch": 42, "velocity": 80, "note_on_time": 16.001, "note_off_time": 16.765}, {"pitch": 42, "velocity": 80, "note_on_time": 16.766, "note_off_time": 17.526}, {"pitch": 42, "velocity": 80, "note_on_time": 17.527, "note_off_time": 18.288}, {"pitch": 62, "velocity": 80, "note_on_time": 18.288, "note_off_time": 19.05}, {"pitch": 42, "velocity": 80, "note_on_time": 18.289, "note_off_time": 19.051}, {"pitch": 60, "velocity": 80, "note_on_time": 19.05, "note_off_time": 19.816}, {"pitch": 42, "velocity": 80, "note_on_time": 19.051, "note_off_time": 19.816}, {"pitch": 60, "velocity": 80, "note_on_time": 19.816, "note_off_time": 20.576}, {"pitch": 42, "velocity": 80, "note_on_time": 19.816, "note_off_time": 20.576}, {"pitch": 62, "velocity": 80, "note_on_time": 20.576, "note_off_time": 21.339}, {"pitch": 42, "velocity": 80, "note_on_time": 20.576, "note_off_time": 21.339}, {"pitch": 62, "velocity": 80, "note_on_time": 21.339, "note_off_time": 22.102}, {"pitch": 42, "velocity": 80, "note_on_time": 21.339, "note_off_time": 22.103}, {"pitch": 62, "velocity": 80, "note_on_time": 22.102, "note_off_time": 22.863}, {"pitch": 42, "velocity": 80, "note_on_time": 22.103, "note_off_time": 22.863}, {"pitch": 42, "velocity": 80, "note_on_time": 22.864, "note_off_time": 23.627}, {"pitch": 60, "velocity": 80, "note_on_time": 23.626, "note_off_time": 24.387}, {"pitch": 42, "velocity": 80, "note_on_time": 23.627, "note_off_time": 24.388}, {"pitch": 42, "velocity": 80, "note_on_time": 24.388, "note_off_time": 25.149}, {"pitch": 60, "velocity": 80, "note_on_time": 25.149, "note_off_time": 25.911}, {"pitch": 42, "velocity": 80, "note_on_time": 25.149, "note_off_time": 25.911}, {"pitch": 60, "velocity": 80, "note_on_time": 25.911, "note_off_time": 26.677}, {"pitch": 42, "velocity": 80, "note_on_time": 25.911, "note_off_time": 26.677}, {"pitch": 60, "velocity": 80, "note_on_time": 26.677, "note_off_time": 27.44}, {"pitch": 42, "velocity": 80, "note_on_time": 26.677, "note_off_time": 27.441}]</notes><options name="Option List">((4, 4), [0.25], 3, 8, &lt;NoteRangePerHand.TWO_NOTES: 3&gt;, &lt;NoteRangePerHand.ONE_NOTE: 2&gt;, False, True, True, '80')</options></target_notes><trials><trial trial_no="1" timestamp="2022_09_08-11_40_10"><notes name="Played Notes">[{"pitch": 60, "velocity": 70, "note_on_time": 3.712, "note_off_time": 4.553}, {"pitch": 62, "velocity": 84, "note_on_time": 5.197, "note_off_time": 5.498}, {"pitch": 62, "velocity": 73, "note_on_time": 6.644, "note_off_time": 6.815}, {"pitch": 62, "velocity": 67, "note_on_time": 7.3, "note_off_time": 7.542}, {"pitch": 60, "velocity": 81, "note_on_time": 7.982, "note_off_time": 8.303}, {"pitch": 60, "velocity": 82, "note_on_time": 9.396, "note_off_time": 9.584}, {"pitch": 60, "velocity": 67, "note_on_time": 10.062, "note_off_time": 10.364}, {"pitch": 62, "velocity": 76, "note_on_time": 10.645, "note_off_time": 10.931}, {"pitch": 60, "velocity": 83, "note_on_time": 11.269, "note_off_time": 11.471}, {"pitch": 60, "velocity": 80, "note_on_time": 11.982, "note_off_time": 12.196}, {"pitch": 62, "velocity": 79, "note_on_time": 12.675, "note_off_time": 12.896}, {"pitch": 60, "velocity": 79, "note_on_time": 13.331, "note_off_time": 13.514}, {"pitch": 62, "velocity": 82, "note_on_time": 14.005, "note_off_time": 14.286}, {"pitch": 62, "velocity": 78, "note_on_time": 16.657, "note_off_time": 16.877}, {"pitch": 60, "velocity": 81, "note_on_time": 17.263, "note_off_time": 17.445}, {"pitch": 60, "velocity": 80, "note_on_time": 17.95, "note_off_time": 18.177}, {"pitch": 62, "velocity": 85, "note_on_time": 18.648, "note_off_time": 18.819}, {"pitch": 62, "velocity": 72, "note_on_time": 19.276, "note_off_time": 19.458}, {"pitch": 62, "velocity": 78, "note_on_time": 19.961, "note_off_time": 20.2}, {"pitch": 60, "velocity": 86, "note_on_time": 21.248, "note_off_time": 21.494}, {"pitch": 60, "velocity": 84, "note_on_time": 22.22, "note_off_time": 22.43}, {"pitch": 60, "velocity": 77, "note_on_time": 22.853, "note_off_time": 23.062}, {"pitch": 60, "velocity": 82, "note_on_time": 23.496, "note_off_time": 23.727}]</notes><guidance name="Guidance Mode">None</guidance><error name="Error value">0.27290909090909105</error></trial></trials></MIDI>