<MIDI midiNo="2022_12_15-12_35_18"><target_notes><notes name="Note List">[{"pitch": 42, "velocity": 80, "note_on_time": 0.004, "note_off_time": 0.74}, {"pitch": 42, "velocity": 80, "note_on_time": 0.74, "note_off_time": 1.474}, {"pitch": 42, "velocity": 80, "note_on_time": 1.475, "note_off_time": 2.208}, {"pitch": 42, "velocity": 80, "note_on_time": 2.209, "note_off_time": 2.943}, {"pitch": 60, "velocity": 80, "note_on_time": 2.943, "note_off_time": 3.68}, {"pitch": 42, "velocity": 80, "note_on_time": 2.943, "note_off_time": 3.68}, {"pitch": 60, "velocity": 80, "note_on_time": 3.68, "note_off_time": 4.41}, {"pitch": 42, "velocity": 80, "note_on_time": 3.68, "note_off_time": 4.411}, {"pitch": 62, "velocity": 80, "note_on_time": 4.41, "note_off_time": 5.143}, {"pitch": 42, "velocity": 80, "note_on_time": 4.411, "note_off_time": 5.143}, {"pitch": 60, "velocity": 80, "note_on_time": 5.143, "note_off_time": 5.874}, {"pitch": 42, "velocity": 80, "note_on_time": 5.143, "note_off_time": 5.874}, {"pitch": 60, "velocity": 80, "note_on_time": 5.874, "note_off_time": 6.606}, {"pitch": 42, "velocity": 80, "note_on_time": 5.874, "note_off_time": 6.607}, {"pitch": 42, "velocity": 80, "note_on_time": 6.607, "note_off_time": 7.341}, {"pitch": 42, "velocity": 80, "note_on_time": 7.341, "note_off_time": 8.075}, {"pitch": 64, "velocity": 80, "note_on_time": 8.075, "note_off_time": 8.81}, {"pitch": 42, "velocity": 80, "note_on_time": 8.076, "note_off_time": 8.81}, {"pitch": 64, "velocity": 80, "note_on_time": 8.81, "note_off_time": 9.544}, {"pitch": 42, "velocity": 80, "note_on_time": 8.811, "note_off_time": 9.544}, {"pitch": 60, "velocity": 80, "note_on_time": 9.544, "note_off_time": 10.281}, {"pitch": 42, "velocity": 80, "note_on_time": 9.544, "note_off_time": 10.281}, {"pitch": 42, "velocity": 80, "note_on_time": 10.281, "note_off_time": 11.017}, {"pitch": 42, "velocity": 80, "note_on_time": 11.017, "note_off_time": 11.752}, {"pitch": 62, "velocity": 80, "note_on_time": 11.752, "note_off_time": 12.483}, {"pitch": 42, "velocity": 80, "note_on_time": 11.753, "note_off_time": 12.483}, {"pitch": 62, "velocity": 80, "note_on_time": 12.483, "note_off_time": 13.217}, {"pitch": 42, "velocity": 80, "note_on_time": 12.483, "note_off_time": 13.217}, {"pitch": 60, "velocity": 80, "note_on_time": 13.217, "note_off_time": 13.951}, {"pitch": 42, "velocity": 80, "note_on_time": 13.217, "note_off_time": 13.952}, {"pitch": 64, "velocity": 80, "note_on_time": 13.951, "note_off_time": 14.684}, {"pitch": 42, "velocity": 80, "note_on_time": 13.952, "note_off_time": 14.684}, {"pitch": 60, "velocity": 80, "note_on_time": 14.684, "note_off_time": 15.415}, {"pitch": 42, "velocity": 80, "note_on_time": 14.685, "note_off_time": 15.415}, {"pitch": 60, "velocity": 80, "note_on_time": 15.415, "note_off_time": 16.143}, {"pitch": 42, "velocity": 80, "note_on_time": 15.415, "note_off_time": 16.144}, {"pitch": 64, "velocity": 80, "note_on_time": 16.143, "note_off_time": 16.876}, {"pitch": 42, "velocity": 80, "note_on_time": 16.144, "note_off_time": 16.877}, {"pitch": 64, "velocity": 80, "note_on_time": 16.876, "note_off_time": 17.606}, {"pitch": 42, "velocity": 80, "note_on_time": 16.877, "note_off_time": 17.606}, {"pitch": 42, "velocity": 80, "note_on_time": 17.606, "note_off_time": 18.339}, {"pitch": 64, "velocity": 80, "note_on_time": 17.606, "note_off_time": 19.074}, {"pitch": 42, "velocity": 80, "note_on_time": 18.34, "note_off_time": 19.074}, {"pitch": 42, "velocity": 80, "note_on_time": 19.074, "note_off_time": 19.804}, {"pitch": 62, "velocity": 80, "note_on_time": 19.804, "note_off_time": 20.537}, {"pitch": 42, "velocity": 80, "note_on_time": 19.804, "note_off_time": 20.537}, {"pitch": 42, "velocity": 80, "note_on_time": 20.537, "note_off_time": 21.271}, {"pitch": 62, "velocity": 80, "note_on_time": 20.537, "note_off_time": 22.007}, {"pitch": 42, "velocity": 80, "note_on_time": 21.271, "note_off_time": 22.007}, {"pitch": 42, "velocity": 80, "note_on_time": 22.007, "note_off_time": 22.743}, {"pitch": 64, "velocity": 80, "note_on_time": 22.743, "note_off_time": 23.476}, {"pitch": 42, "velocity": 80, "note_on_time": 22.744, "note_off_time": 23.477}, {"pitch": 42, "velocity": 80, "note_on_time": 23.477, "note_off_time": 24.211}, {"pitch": 64, "velocity": 80, "note_on_time": 24.211, "note_off_time": 24.942}, {"pitch": 42, "velocity": 80, "note_on_time": 24.212, "note_off_time": 24.942}, {"pitch": 64, "velocity": 80, "note_on_time": 24.942, "note_off_time": 25.678}, {"pitch": 42, "velocity": 80, "note_on_time": 24.942, "note_off_time": 25.679}, {"pitch": 64, "velocity": 80, "note_on_time": 25.678, "note_off_time": 26.408}, {"pitch": 42, "velocity": 80, "note_on_time": 25.679, "note_off_time": 26.409}]</notes><options name="Option List">((4, 4), [0.5, 0.25], 3, 8, &lt;NoteRangePerHand.THREE_NOTES: 4&gt;, &lt;NoteRangePerHand.ONE_NOTE: 2&gt;, False, True, False, 83)</options></target_notes><trials><trial trial_no="1" timestamp="2022_12_15-12_34_50"><notes name="Played Notes">[{"pitch": 60, "velocity": 49, "note_on_time": 2.941, "note_off_time": 3.121}, {"pitch": 60, "velocity": 60, "note_on_time": 3.658, "note_off_time": 3.809}, {"pitch": 62, "velocity": 52, "note_on_time": 4.414, "note_off_time": 4.568}, {"pitch": 60, "velocity": 64, "note_on_time": 5.162, "note_off_time": 5.294}, {"pitch": 60, "velocity": 60, "note_on_time": 5.853, "note_off_time": 6.021}, {"pitch": 64, "velocity": 44, "note_on_time": 8.085, "note_off_time": 8.243}, {"pitch": 64, "velocity": 49, "note_on_time": 8.823, "note_off_time": 8.964}, {"pitch": 60, "velocity": 57, "note_on_time": 9.521, "note_off_time": 9.657}, {"pitch": 62, "velocity": 51, "note_on_time": 11.752, "note_off_time": 11.899}, {"pitch": 62, "velocity": 50, "note_on_time": 12.424, "note_off_time": 12.581}, {"pitch": 60, "velocity": 60, "note_on_time": 13.199, "note_off_time": 13.315}, {"pitch": 64, "velocity": 50, "note_on_time": 13.949, "note_off_time": 14.08}, {"pitch": 60, "velocity": 41, "note_on_time": 14.693, "note_off_time": 14.786}, {"pitch": 60, "velocity": 62, "note_on_time": 15.395, "note_off_time": 15.506}, {"pitch": 64, "velocity": 55, "note_on_time": 16.164, "note_off_time": 16.271}, {"pitch": 64, "velocity": 60, "note_on_time": 16.845, "note_off_time": 16.96}, {"pitch": 64, "velocity": 59, "note_on_time": 17.541, "note_off_time": 18.774}, {"pitch": 62, "velocity": 60, "note_on_time": 19.788, "note_off_time": 19.9}, {"pitch": 62, "velocity": 59, "note_on_time": 20.576, "note_off_time": 21.204}, {"pitch": 64, "velocity": 54, "note_on_time": 22.683, "note_off_time": 22.879}, {"pitch": 64, "velocity": 61, "note_on_time": 24.185, "note_off_time": 24.327}, {"pitch": 64, "velocity": 61, "note_on_time": 24.905, "note_off_time": 25.033}, {"pitch": 64, "velocity": 65, "note_on_time": 25.693, "note_off_time": 25.808}]</notes><guidance name="Guidance Mode">None</guidance><error name="Error value">0.04389905000000005</error></trial></trials></MIDI>