<MIDI midiNo="2022_12_01-10_52_43"><target_notes><notes name="Note List">[{"pitch": 42, "velocity": 80, "note_on_time": 0.004, "note_off_time": 0.227}, {"pitch": 42, "velocity": 80, "note_on_time": 0.227, "note_off_time": 0.443}, {"pitch": 42, "velocity": 80, "note_on_time": 0.443, "note_off_time": 0.66}, {"pitch": 42, "velocity": 80, "note_on_time": 0.66, "note_off_time": 0.877}, {"pitch": 65, "velocity": 80, "note_on_time": 0.877, "note_off_time": 1.094}, {"pitch": 42, "velocity": 80, "note_on_time": 0.877, "note_off_time": 1.094}, {"pitch": 62, "velocity": 80, "note_on_time": 1.094, "note_off_time": 1.314}, {"pitch": 42, "velocity": 80, "note_on_time": 1.094, "note_off_time": 1.314}, {"pitch": 60, "velocity": 80, "note_on_time": 1.314, "note_off_time": 1.531}, {"pitch": 42, "velocity": 80, "note_on_time": 1.314, "note_off_time": 1.531}, {"pitch": 67, "velocity": 80, "note_on_time": 1.531, "note_off_time": 1.749}, {"pitch": 42, "velocity": 80, "note_on_time": 1.531, "note_off_time": 1.749}, {"pitch": 42, "velocity": 80, "note_on_time": 1.749, "note_off_time": 1.967}, {"pitch": 67, "velocity": 80, "note_on_time": 1.749, "note_off_time": 2.185}, {"pitch": 42, "velocity": 80, "note_on_time": 1.967, "note_off_time": 2.185}, {"pitch": 62, "velocity": 80, "note_on_time": 2.185, "note_off_time": 2.403}, {"pitch": 42, "velocity": 80, "note_on_time": 2.185, "note_off_time": 2.403}, {"pitch": 42, "velocity": 80, "note_on_time": 2.403, "note_off_time": 2.622}, {"pitch": 62, "velocity": 80, "note_on_time": 2.622, "note_off_time": 2.84}, {"pitch": 42, "velocity": 80, "note_on_time": 2.622, "note_off_time": 2.84}, {"pitch": 67, "velocity": 80, "note_on_time": 2.84, "note_off_time": 3.058}, {"pitch": 42, "velocity": 80, "note_on_time": 2.84, "note_off_time": 3.058}, {"pitch": 62, "velocity": 80, "note_on_time": 3.058, "note_off_time": 3.274}, {"pitch": 42, "velocity": 80, "note_on_time": 3.058, "note_off_time": 3.274}, {"pitch": 64, "velocity": 80, "note_on_time": 3.274, "note_off_time": 3.492}, {"pitch": 42, "velocity": 80, "note_on_time": 3.274, "note_off_time": 3.492}, {"pitch": 60, "velocity": 80, "note_on_time": 3.492, "note_off_time": 3.709}, {"pitch": 42, "velocity": 80, "note_on_time": 3.492, "note_off_time": 3.709}, {"pitch": 64, "velocity": 80, "note_on_time": 3.709, "note_off_time": 3.926}, {"pitch": 42, "velocity": 80, "note_on_time": 3.71, "note_off_time": 3.926}, {"pitch": 67, "velocity": 80, "note_on_time": 3.926, "note_off_time": 4.143}, {"pitch": 42, "velocity": 80, "note_on_time": 3.926, "note_off_time": 4.144}, {"pitch": 64, "velocity": 80, "note_on_time": 4.143, "note_off_time": 4.363}, {"pitch": 42, "velocity": 80, "note_on_time": 4.144, "note_off_time": 4.363}, {"pitch": 60, "velocity": 80, "note_on_time": 4.363, "note_off_time": 4.582}, {"pitch": 42, "velocity": 80, "note_on_time": 4.363, "note_off_time": 4.582}, {"pitch": 67, "velocity": 80, "note_on_time": 4.582, "note_off_time": 4.798}, {"pitch": 42, "velocity": 80, "note_on_time": 4.582, "note_off_time": 4.798}, {"pitch": 65, "velocity": 80, "note_on_time": 4.798, "note_off_time": 5.017}, {"pitch": 42, "velocity": 80, "note_on_time": 4.798, "note_off_time": 5.017}, {"pitch": 67, "velocity": 80, "note_on_time": 5.017, "note_off_time": 5.234}, {"pitch": 42, "velocity": 80, "note_on_time": 5.017, "note_off_time": 5.234}, {"pitch": 42, "velocity": 80, "note_on_time": 5.235, "note_off_time": 5.452}, {"pitch": 60, "velocity": 80, "note_on_time": 5.234, "note_off_time": 5.669}, {"pitch": 42, "velocity": 80, "note_on_time": 5.452, "note_off_time": 5.669}, {"pitch": 42, "velocity": 80, "note_on_time": 5.669, "note_off_time": 5.887}, {"pitch": 42, "velocity": 80, "note_on_time": 5.888, "note_off_time": 6.106}, {"pitch": 67, "velocity": 80, "note_on_time": 6.106, "note_off_time": 6.325}, {"pitch": 42, "velocity": 80, "note_on_time": 6.106, "note_off_time": 6.325}, {"pitch": 62, "velocity": 80, "note_on_time": 6.325, "note_off_time": 6.543}, {"pitch": 42, "velocity": 80, "note_on_time": 6.325, "note_off_time": 6.543}, {"pitch": 67, "velocity": 80, "note_on_time": 6.543, "note_off_time": 6.76}, {"pitch": 42, "velocity": 80, "note_on_time": 6.543, "note_off_time": 6.76}, {"pitch": 62, "velocity": 80, "note_on_time": 6.76, "note_off_time": 6.979}, {"pitch": 42, "velocity": 80, "note_on_time": 6.76, "note_off_time": 6.979}, {"pitch": 42, "velocity": 80, "note_on_time": 6.979, "note_off_time": 7.199}, {"pitch": 62, "velocity": 80, "note_on_time": 7.199, "note_off_time": 7.419}, {"pitch": 42, "velocity": 80, "note_on_time": 7.199, "note_off_time": 7.419}, {"pitch": 62, "velocity": 80, "note_on_time": 7.419, "note_off_time": 7.635}, {"pitch": 42, "velocity": 80, "note_on_time": 7.419, "note_off_time": 7.635}, {"pitch": 62, "velocity": 80, "note_on_time": 7.635, "note_off_time": 7.852}, {"pitch": 42, "velocity": 80, "note_on_time": 7.635, "note_off_time": 7.852}]</notes><options name="Option List">((4, 4), [0.5, 0.25], 3, 8, &lt;NoteRangePerHand.C_TO_G: 6&gt;, &lt;NoteRangePerHand.ONE_NOTE: 2&gt;, False, True, False, 281)</options></target_notes><trials><trial trial_no="1" timestamp="2022_12_01-10_52_33"><notes name="Played Notes">[{"pitch": 65, "velocity": 62, "note_on_time": 0.907, "note_off_time": 1.152}, {"pitch": 62, "velocity": 58, "note_on_time": 1.12, "note_off_time": 1.342}, {"pitch": 60, "velocity": 67, "note_on_time": 1.337, "note_off_time": 1.585}, {"pitch": 67, "velocity": 71, "note_on_time": 1.556, "note_off_time": 1.665}, {"pitch": 67, "velocity": 57, "note_on_time": 1.769, "note_off_time": 2.278}, {"pitch": 62, "velocity": 67, "note_on_time": 2.227, "note_off_time": 2.498}, {"pitch": 62, "velocity": 62, "note_on_time": 2.69, "note_off_time": 2.909}, {"pitch": 67, "velocity": 71, "note_on_time": 2.889, "note_off_time": 3.171}, {"pitch": 62, "velocity": 61, "note_on_time": 3.134, "note_off_time": 3.35}, {"pitch": 64, "velocity": 65, "note_on_time": 3.344, "note_off_time": 3.569}, {"pitch": 60, "velocity": 64, "note_on_time": 3.573, "note_off_time": 3.835}, {"pitch": 64, "velocity": 66, "note_on_time": 3.807, "note_off_time": 4.055}, {"pitch": 67, "velocity": 69, "note_on_time": 4.037, "note_off_time": 4.33}, {"pitch": 64, "velocity": 68, "note_on_time": 4.278, "note_off_time": 4.513}, {"pitch": 60, "velocity": 69, "note_on_time": 4.501, "note_off_time": 4.744}, {"pitch": 67, "velocity": 71, "note_on_time": 4.718, "note_off_time": 4.995}, {"pitch": 65, "velocity": 73, "note_on_time": 4.958, "note_off_time": 5.198}, {"pitch": 67, "velocity": 71, "note_on_time": 5.168, "note_off_time": 5.453}, {"pitch": 60, "velocity": 76, "note_on_time": 5.424, "note_off_time": 5.713}, {"pitch": 67, "velocity": 63, "note_on_time": 6.369, "note_off_time": 6.631}, {"pitch": 62, "velocity": 76, "note_on_time": 6.602, "note_off_time": 6.829}, {"pitch": 67, "velocity": 78, "note_on_time": 6.796, "note_off_time": 7.107}, {"pitch": 62, "velocity": 68, "note_on_time": 7.03, "note_off_time": 7.274}, {"pitch": 62, "velocity": 69, "note_on_time": 7.496, "note_off_time": 7.569}, {"pitch": 62, "velocity": 69, "note_on_time": 7.731, "note_off_time": 7.795}]</notes><guidance name="Guidance Mode">None</guidance><error name="Error value">0.07291978260869565</error></trial></trials></MIDI>