<MIDI midiNo="2022_12_22-11_00_25"><target_notes><notes name="Note List">[{"pitch": 42, "velocity": 80, "note_on_time": 0.004, "note_off_time": 0.73}, {"pitch": 42, "velocity": 80, "note_on_time": 0.73, "note_off_time": 1.465}, {"pitch": 42, "velocity": 80, "note_on_time": 1.465, "note_off_time": 2.195}, {"pitch": 42, "velocity": 80, "note_on_time": 2.195, "note_off_time": 2.929}, {"pitch": 62, "velocity": 80, "note_on_time": 2.929, "note_off_time": 3.663}, {"pitch": 42, "velocity": 80, "note_on_time": 2.93, "note_off_time": 3.663}, {"pitch": 60, "velocity": 80, "note_on_time": 3.663, "note_off_time": 4.398}, {"pitch": 42, "velocity": 80, "note_on_time": 3.664, "note_off_time": 4.398}, {"pitch": 62, "velocity": 80, "note_on_time": 4.398, "note_off_time": 5.127}, {"pitch": 42, "velocity": 80, "note_on_time": 4.398, "note_off_time": 5.127}, {"pitch": 62, "velocity": 80, "note_on_time": 5.127, "note_off_time": 5.86}, {"pitch": 42, "velocity": 80, "note_on_time": 5.128, "note_off_time": 5.86}, {"pitch": 64, "velocity": 80, "note_on_time": 5.86, "note_off_time": 6.59}, {"pitch": 42, "velocity": 80, "note_on_time": 5.86, "note_off_time": 6.591}, {"pitch": 60, "velocity": 80, "note_on_time": 6.59, "note_off_time": 7.323}, {"pitch": 42, "velocity": 80, "note_on_time": 6.591, "note_off_time": 7.324}, {"pitch": 64, "velocity": 80, "note_on_time": 7.323, "note_off_time": 8.057}, {"pitch": 42, "velocity": 80, "note_on_time": 7.324, "note_off_time": 8.057}, {"pitch": 60, "velocity": 80, "note_on_time": 8.057, "note_off_time": 8.788}, {"pitch": 42, "velocity": 80, "note_on_time": 8.057, "note_off_time": 8.789}, {"pitch": 64, "velocity": 80, "note_on_time": 8.788, "note_off_time": 9.517}, {"pitch": 42, "velocity": 80, "note_on_time": 8.789, "note_off_time": 9.518}, {"pitch": 64, "velocity": 80, "note_on_time": 9.517, "note_off_time": 10.248}, {"pitch": 42, "velocity": 80, "note_on_time": 9.518, "note_off_time": 10.248}, {"pitch": 62, "velocity": 80, "note_on_time": 10.248, "note_off_time": 10.979}, {"pitch": 42, "velocity": 80, "note_on_time": 10.248, "note_off_time": 10.979}, {"pitch": 64, "velocity": 80, "note_on_time": 10.979, "note_off_time": 11.714}, {"pitch": 42, "velocity": 80, "note_on_time": 10.979, "note_off_time": 11.715}, {"pitch": 42, "velocity": 80, "note_on_time": 11.715, "note_off_time": 12.449}, {"pitch": 60, "velocity": 80, "note_on_time": 11.714, "note_off_time": 13.18}, {"pitch": 42, "velocity": 80, "note_on_time": 12.45, "note_off_time": 13.181}, {"pitch": 42, "velocity": 80, "note_on_time": 13.181, "note_off_time": 13.91}, {"pitch": 42, "velocity": 80, "note_on_time": 13.911, "note_off_time": 14.643}, {"pitch": 64, "velocity": 80, "note_on_time": 14.643, "note_off_time": 15.377}, {"pitch": 42, "velocity": 80, "note_on_time": 14.644, "note_off_time": 15.377}, {"pitch": 60, "velocity": 80, "note_on_time": 15.377, "note_off_time": 16.108}, {"pitch": 42, "velocity": 80, "note_on_time": 15.377, "note_off_time": 16.108}, {"pitch": 42, "velocity": 80, "note_on_time": 16.108, "note_off_time": 16.839}, {"pitch": 60, "velocity": 80, "note_on_time": 16.108, "note_off_time": 17.571}, {"pitch": 42, "velocity": 80, "note_on_time": 16.839, "note_off_time": 17.571}, {"pitch": 42, "velocity": 80, "note_on_time": 17.572, "note_off_time": 18.302}, {"pitch": 62, "velocity": 80, "note_on_time": 17.571, "note_off_time": 19.033}, {"pitch": 42, "velocity": 80, "note_on_time": 18.302, "note_off_time": 19.033}, {"pitch": 42, "velocity": 80, "note_on_time": 19.034, "note_off_time": 19.765}, {"pitch": 42, "velocity": 80, "note_on_time": 19.765, "note_off_time": 20.497}, {"pitch": 60, "velocity": 80, "note_on_time": 20.497, "note_off_time": 21.23}, {"pitch": 42, "velocity": 80, "note_on_time": 20.498, "note_off_time": 21.23}, {"pitch": 42, "velocity": 80, "note_on_time": 21.23, "note_off_time": 21.963}, {"pitch": 42, "velocity": 80, "note_on_time": 21.963, "note_off_time": 22.697}, {"pitch": 62, "velocity": 80, "note_on_time": 22.696, "note_off_time": 23.426}, {"pitch": 42, "velocity": 80, "note_on_time": 22.697, "note_off_time": 23.426}, {"pitch": 42, "velocity": 80, "note_on_time": 23.426, "note_off_time": 24.158}, {"pitch": 62, "velocity": 80, "note_on_time": 24.158, "note_off_time": 24.884}, {"pitch": 42, "velocity": 80, "note_on_time": 24.158, "note_off_time": 24.885}, {"pitch": 62, "velocity": 80, "note_on_time": 24.884, "note_off_time": 25.617}, {"pitch": 42, "velocity": 80, "note_on_time": 24.885, "note_off_time": 25.618}, {"pitch": 62, "velocity": 80, "note_on_time": 25.617, "note_off_time": 26.35}, {"pitch": 42, "velocity": 80, "note_on_time": 25.618, "note_off_time": 26.35}]</notes><options name="Option List">((4, 4), [0.5, 0.25], 3, 8, &lt;NoteRangePerHand.THREE_NOTES: 4&gt;, &lt;NoteRangePerHand.ONE_NOTE: 2&gt;, False, True, False, '83')</options></target_notes><trials><trial trial_no="1" timestamp="2022_12_22-10_59_57"><notes name="Played Notes">[{"pitch": 62, "velocity": 49, "note_on_time": 2.915, "note_off_time": 3.383}, {"pitch": 60, "velocity": 62, "note_on_time": 3.607, "note_off_time": 4.082}, {"pitch": 62, "velocity": 58, "note_on_time": 4.352, "note_off_time": 4.704}, {"pitch": 62, "velocity": 53, "note_on_time": 5.106, "note_off_time": 5.445}, {"pitch": 64, "velocity": 46, "note_on_time": 5.736, "note_off_time": 6.004}]</notes><guidance name="Guidance Mode">None</guidance><error name="Error value">1.708306315789474</error></trial></trials></MIDI>