<MIDI midiNo="2022_09_08-12_17_54"><target_notes><notes name="Note List">[{"pitch": 42, "velocity": 80, "note_on_time": 0.005, "note_off_time": 0.419}, {"pitch": 42, "velocity": 80, "note_on_time": 0.42, "note_off_time": 0.835}, {"pitch": 42, "velocity": 80, "note_on_time": 0.836, "note_off_time": 1.24}, {"pitch": 42, "velocity": 80, "note_on_time": 1.24, "note_off_time": 1.644}, {"pitch": 62, "velocity": 80, "note_on_time": 1.644, "note_off_time": 2.047}, {"pitch": 42, "velocity": 80, "note_on_time": 1.644, "note_off_time": 2.047}, {"pitch": 60, "velocity": 80, "note_on_time": 2.047, "note_off_time": 2.452}, {"pitch": 42, "velocity": 80, "note_on_time": 2.048, "note_off_time": 2.452}, {"pitch": 42, "velocity": 80, "note_on_time": 2.452, "note_off_time": 2.856}, {"pitch": 64, "velocity": 80, "note_on_time": 2.452, "note_off_time": 3.262}, {"pitch": 42, "velocity": 80, "note_on_time": 2.856, "note_off_time": 3.262}, {"pitch": 60, "velocity": 80, "note_on_time": 3.262, "note_off_time": 3.667}, {"pitch": 42, "velocity": 80, "note_on_time": 3.263, "note_off_time": 3.667}, {"pitch": 60, "velocity": 80, "note_on_time": 3.667, "note_off_time": 4.07}, {"pitch": 42, "velocity": 80, "note_on_time": 3.668, "note_off_time": 4.071}, {"pitch": 60, "velocity": 80, "note_on_time": 4.07, "note_off_time": 4.479}, {"pitch": 42, "velocity": 80, "note_on_time": 4.071, "note_off_time": 4.479}, {"pitch": 42, "velocity": 80, "note_on_time": 4.479, "note_off_time": 4.883}, {"pitch": 62, "velocity": 80, "note_on_time": 4.883, "note_off_time": 5.293}, {"pitch": 42, "velocity": 80, "note_on_time": 4.884, "note_off_time": 5.293}, {"pitch": 64, "velocity": 80, "note_on_time": 5.293, "note_off_time": 5.698}, {"pitch": 42, "velocity": 80, "note_on_time": 5.294, "note_off_time": 5.699}, {"pitch": 60, "velocity": 80, "note_on_time": 5.698, "note_off_time": 6.102}, {"pitch": 42, "velocity": 80, "note_on_time": 5.699, "note_off_time": 6.102}, {"pitch": 60, "velocity": 80, "note_on_time": 6.102, "note_off_time": 6.508}, {"pitch": 42, "velocity": 80, "note_on_time": 6.102, "note_off_time": 6.508}, {"pitch": 62, "velocity": 80, "note_on_time": 6.508, "note_off_time": 6.911}, {"pitch": 42, "velocity": 80, "note_on_time": 6.508, "note_off_time": 6.911}, {"pitch": 42, "velocity": 80, "note_on_time": 6.911, "note_off_time": 7.316}, {"pitch": 42, "velocity": 80, "note_on_time": 7.317, "note_off_time": 7.725}, {"pitch": 42, "velocity": 80, "note_on_time": 7.725, "note_off_time": 8.128}, {"pitch": 64, "velocity": 80, "note_on_time": 8.127, "note_off_time": 8.531}, {"pitch": 42, "velocity": 80, "note_on_time": 8.128, "note_off_time": 8.532}, {"pitch": 60, "velocity": 80, "note_on_time": 8.531, "note_off_time": 8.934}, {"pitch": 42, "velocity": 80, "note_on_time": 8.532, "note_off_time": 8.934}, {"pitch": 64, "velocity": 80, "note_on_time": 8.934, "note_off_time": 9.336}, {"pitch": 42, "velocity": 80, "note_on_time": 8.934, "note_off_time": 9.336}, {"pitch": 62, "velocity": 80, "note_on_time": 9.336, "note_off_time": 9.739}, {"pitch": 42, "velocity": 80, "note_on_time": 9.336, "note_off_time": 9.74}, {"pitch": 64, "velocity": 80, "note_on_time": 9.739, "note_off_time": 10.144}, {"pitch": 42, "velocity": 80, "note_on_time": 9.74, "note_off_time": 10.144}, {"pitch": 60, "velocity": 80, "note_on_time": 10.144, "note_off_time": 10.549}, {"pitch": 42, "velocity": 80, "note_on_time": 10.145, "note_off_time": 10.55}, {"pitch": 64, "velocity": 80, "note_on_time": 10.549, "note_off_time": 10.956}, {"pitch": 42, "velocity": 80, "note_on_time": 10.55, "note_off_time": 10.957}, {"pitch": 60, "velocity": 80, "note_on_time": 10.956, "note_off_time": 11.363}, {"pitch": 42, "velocity": 80, "note_on_time": 10.957, "note_off_time": 11.363}, {"pitch": 62, "velocity": 80, "note_on_time": 11.363, "note_off_time": 11.769}, {"pitch": 42, "velocity": 80, "note_on_time": 11.364, "note_off_time": 11.769}, {"pitch": 64, "velocity": 80, "note_on_time": 11.769, "note_off_time": 12.174}, {"pitch": 42, "velocity": 80, "note_on_time": 11.769, "note_off_time": 12.174}, {"pitch": 64, "velocity": 80, "note_on_time": 12.174, "note_off_time": 12.577}, {"pitch": 42, "velocity": 80, "note_on_time": 12.174, "note_off_time": 12.578}, {"pitch": 62, "velocity": 80, "note_on_time": 12.577, "note_off_time": 12.986}, {"pitch": 42, "velocity": 80, "note_on_time": 12.578, "note_off_time": 12.986}, {"pitch": 42, "velocity": 80, "note_on_time": 12.986, "note_off_time": 13.39}, {"pitch": 62, "velocity": 80, "note_on_time": 13.389, "note_off_time": 13.796}, {"pitch": 42, "velocity": 80, "note_on_time": 13.39, "note_off_time": 13.796}, {"pitch": 62, "velocity": 80, "note_on_time": 13.796, "note_off_time": 14.202}, {"pitch": 42, "velocity": 80, "note_on_time": 13.796, "note_off_time": 14.202}, {"pitch": 62, "velocity": 80, "note_on_time": 14.202, "note_off_time": 14.605}, {"pitch": 42, "velocity": 80, "note_on_time": 14.203, "note_off_time": 14.605}]</notes><options name="Option List">((4, 4), [0.5, 0.25], 3, 8, &lt;NoteRangePerHand.THREE_NOTES: 4&gt;, &lt;NoteRangePerHand.ONE_NOTE: 2&gt;, False, True, True, '150')</options></target_notes><trials><trial trial_no="1" timestamp="2022_09_08-12_17_38"><notes name="Played Notes">[{"pitch": 62, "velocity": 92, "note_on_time": 1.591, "note_off_time": 1.783}, {"pitch": 60, "velocity": 98, "note_on_time": 1.999, "note_off_time": 2.181}, {"pitch": 64, "velocity": 96, "note_on_time": 2.418, "note_off_time": 3.013}, {"pitch": 60, "velocity": 84, "note_on_time": 3.326, "note_off_time": 3.511}, {"pitch": 60, "velocity": 92, "note_on_time": 3.747, "note_off_time": 3.887}, {"pitch": 60, "velocity": 89, "note_on_time": 4.2, "note_off_time": 4.388}, {"pitch": 62, "velocity": 86, "note_on_time": 5.319, "note_off_time": 5.486}, {"pitch": 64, "velocity": 81, "note_on_time": 5.712, "note_off_time": 5.871}, {"pitch": 60, "velocity": 87, "note_on_time": 6.099, "note_off_time": 6.257}, {"pitch": 60, "velocity": 84, "note_on_time": 6.523, "note_off_time": 6.659}, {"pitch": 62, "velocity": 93, "note_on_time": 6.932, "note_off_time": 7.075}, {"pitch": 64, "velocity": 90, "note_on_time": 8.544, "note_off_time": 8.692}, {"pitch": 60, "velocity": 91, "note_on_time": 8.931, "note_off_time": 9.089}, {"pitch": 64, "velocity": 90, "note_on_time": 9.337, "note_off_time": 9.509}, {"pitch": 62, "velocity": 88, "note_on_time": 9.771, "note_off_time": 9.896}, {"pitch": 64, "velocity": 88, "note_on_time": 10.169, "note_off_time": 10.312}, {"pitch": 60, "velocity": 81, "note_on_time": 10.578, "note_off_time": 10.754}, {"pitch": 64, "velocity": 83, "note_on_time": 10.982, "note_off_time": 11.16}, {"pitch": 60, "velocity": 84, "note_on_time": 11.367, "note_off_time": 11.53}, {"pitch": 62, "velocity": 90, "note_on_time": 11.767, "note_off_time": 11.91}, {"pitch": 64, "velocity": 92, "note_on_time": 12.165, "note_off_time": 12.301}, {"pitch": 64, "velocity": 87, "note_on_time": 12.589, "note_off_time": 12.726}, {"pitch": 62, "velocity": 92, "note_on_time": 12.975, "note_off_time": 13.067}, {"pitch": 62, "velocity": 93, "note_on_time": 14.035, "note_off_time": 14.139}, {"pitch": 62, "velocity": 87, "note_on_time": 14.439, "note_off_time": 14.531}]</notes><guidance name="Guidance Mode">None</guidance><error name="Error value">0.09217391304347844</error></trial><trial trial_no="2" timestamp="2022_09_08-12_18_45"><notes name="Played Notes">[{"pitch": 62, "velocity": 79, "note_on_time": 1.567, "note_off_time": 1.763}, {"pitch": 60, "velocity": 88, "note_on_time": 1.98, "note_off_time": 2.171}, {"pitch": 64, "velocity": 95, "note_on_time": 2.377, "note_off_time": 3.377}, {"pitch": 60, "velocity": 89, "note_on_time": 3.694, "note_off_time": 3.878}, {"pitch": 60, "velocity": 94, "note_on_time": 4.119, "note_off_time": 4.296}, {"pitch": 60, "velocity": 82, "note_on_time": 4.563, "note_off_time": 4.747}, {"pitch": 62, "velocity": 76, "note_on_time": 6.45, "note_off_time": 6.601}, {"pitch": 64, "velocity": 74, "note_on_time": 6.883, "note_off_time": 7.063}, {"pitch": 60, "velocity": 57, "note_on_time": 7.345, "note_off_time": 7.504}, {"pitch": 60, "velocity": 72, "note_on_time": 7.766, "note_off_time": 7.928}, {"pitch": 62, "velocity": 78, "note_on_time": 8.191, "note_off_time": 8.4}, {"pitch": 64, "velocity": 74, "note_on_time": 10.125, "note_off_time": 10.321}, {"pitch": 60, "velocity": 81, "note_on_time": 10.505, "note_off_time": 10.691}, {"pitch": 64, "velocity": 75, "note_on_time": 10.914, "note_off_time": 11.078}, {"pitch": 62, "velocity": 77, "note_on_time": 11.317, "note_off_time": 11.457}, {"pitch": 64, "velocity": 70, "note_on_time": 11.719, "note_off_time": 11.916}, {"pitch": 60, "velocity": 71, "note_on_time": 12.119, "note_off_time": 12.279}, {"pitch": 64, "velocity": 80, "note_on_time": 12.513, "note_off_time": 12.721}, {"pitch": 60, "velocity": 87, "note_on_time": 12.92, "note_off_time": 13.111}, {"pitch": 62, "velocity": 85, "note_on_time": 13.301, "note_off_time": 13.451}, {"pitch": 64, "velocity": 85, "note_on_time": 13.696, "note_off_time": 13.846}, {"pitch": 64, "velocity": 83, "note_on_time": 14.111, "note_off_time": 14.264}]</notes><guidance name="Guidance Mode">None</guidance><error name="Error value">0.48799999999999993</error></trial><trial trial_no="3" timestamp="2022_09_08-12_20_08"><notes name="Played Notes">[{"pitch": 62, "velocity": 82, "note_on_time": 1.203, "note_off_time": 1.417}, {"pitch": 60, "velocity": 90, "note_on_time": 1.601, "note_off_time": 1.816}, {"pitch": 64, "velocity": 87, "note_on_time": 2.014, "note_off_time": 2.913}, {"pitch": 60, "velocity": 90, "note_on_time": 3.142, "note_off_time": 3.331}, {"pitch": 60, "velocity": 80, "note_on_time": 3.577, "note_off_time": 3.728}, {"pitch": 60, "velocity": 85, "note_on_time": 4.027, "note_off_time": 4.217}, {"pitch": 62, "velocity": 82, "note_on_time": 5.24, "note_off_time": 5.397}, {"pitch": 64, "velocity": 92, "note_on_time": 5.637, "note_off_time": 5.826}, {"pitch": 60, "velocity": 90, "note_on_time": 6.029, "note_off_time": 6.171}, {"pitch": 60, "velocity": 81, "note_on_time": 6.459, "note_off_time": 6.601}, {"pitch": 62, "velocity": 86, "note_on_time": 6.859, "note_off_time": 6.995}, {"pitch": 64, "velocity": 85, "note_on_time": 8.118, "note_off_time": 8.277}, {"pitch": 60, "velocity": 84, "note_on_time": 8.523, "note_off_time": 8.667}, {"pitch": 64, "velocity": 87, "note_on_time": 8.908, "note_off_time": 9.069}, {"pitch": 62, "velocity": 86, "note_on_time": 9.298, "note_off_time": 9.413}, {"pitch": 64, "velocity": 81, "note_on_time": 9.692, "note_off_time": 9.842}, {"pitch": 60, "velocity": 72, "note_on_time": 10.072, "note_off_time": 10.223}, {"pitch": 64, "velocity": 87, "note_on_time": 10.445, "note_off_time": 10.633}, {"pitch": 60, "velocity": 83, "note_on_time": 10.837, "note_off_time": 10.967}, {"pitch": 62, "velocity": 87, "note_on_time": 11.222, "note_off_time": 11.353}, {"pitch": 64, "velocity": 77, "note_on_time": 11.607, "note_off_time": 11.724}, {"pitch": 64, "velocity": 84, "note_on_time": 12.03, "note_off_time": 12.152}, {"pitch": 62, "velocity": 81, "note_on_time": 12.412, "note_off_time": 12.518}, {"pitch": 62, "velocity": 83, "note_on_time": 13.063, "note_off_time": 13.186}, {"pitch": 62, "velocity": 83, "note_on_time": 13.444, "note_off_time": 13.546}, {"pitch": 62, "velocity": 96, "note_on_time": 13.806, "note_off_time": 13.891}]</notes><guidance name="Guidance Mode">None</guidance><error name="Error value">0.06917391304347846</error></trial></trials></MIDI>