<MIDI midiNo="2022_12_08-11_54_48"><target_notes><notes name="Note List">[{"pitch": 42, "velocity": 80, "note_on_time": 0.004, "note_off_time": 0.343}, {"pitch": 42, "velocity": 80, "note_on_time": 0.343, "note_off_time": 0.685}, {"pitch": 42, "velocity": 80, "note_on_time": 0.685, "note_off_time": 1.027}, {"pitch": 42, "velocity": 80, "note_on_time": 1.027, "note_off_time": 1.37}, {"pitch": 60, "velocity": 80, "note_on_time": 1.37, "note_off_time": 1.711}, {"pitch": 42, "velocity": 80, "note_on_time": 1.37, "note_off_time": 1.711}, {"pitch": 64, "velocity": 80, "note_on_time": 1.711, "note_off_time": 2.055}, {"pitch": 42, "velocity": 80, "note_on_time": 1.712, "note_off_time": 2.055}, {"pitch": 65, "velocity": 80, "note_on_time": 2.055, "note_off_time": 2.398}, {"pitch": 42, "velocity": 80, "note_on_time": 2.055, "note_off_time": 2.398}, {"pitch": 65, "velocity": 80, "note_on_time": 2.398, "note_off_time": 2.741}, {"pitch": 42, "velocity": 80, "note_on_time": 2.398, "note_off_time": 2.741}, {"pitch": 64, "velocity": 80, "note_on_time": 2.741, "note_off_time": 3.083}, {"pitch": 42, "velocity": 80, "note_on_time": 2.741, "note_off_time": 3.083}, {"pitch": 62, "velocity": 80, "note_on_time": 3.083, "note_off_time": 3.425}, {"pitch": 42, "velocity": 80, "note_on_time": 3.083, "note_off_time": 3.426}, {"pitch": 42, "velocity": 80, "note_on_time": 3.426, "note_off_time": 3.769}, {"pitch": 42, "velocity": 80, "note_on_time": 3.769, "note_off_time": 4.112}, {"pitch": 60, "velocity": 80, "note_on_time": 4.112, "note_off_time": 4.455}, {"pitch": 42, "velocity": 80, "note_on_time": 4.113, "note_off_time": 4.455}, {"pitch": 67, "velocity": 80, "note_on_time": 4.455, "note_off_time": 4.799}, {"pitch": 42, "velocity": 80, "note_on_time": 4.455, "note_off_time": 4.799}, {"pitch": 60, "velocity": 80, "note_on_time": 4.799, "note_off_time": 5.143}, {"pitch": 42, "velocity": 80, "note_on_time": 4.799, "note_off_time": 5.144}, {"pitch": 60, "velocity": 80, "note_on_time": 5.143, "note_off_time": 5.487}, {"pitch": 42, "velocity": 80, "note_on_time": 5.144, "note_off_time": 5.487}, {"pitch": 42, "velocity": 80, "note_on_time": 5.487, "note_off_time": 5.829}, {"pitch": 67, "velocity": 80, "note_on_time": 5.487, "note_off_time": 6.172}, {"pitch": 42, "velocity": 80, "note_on_time": 5.829, "note_off_time": 6.172}, {"pitch": 42, "velocity": 80, "note_on_time": 6.173, "note_off_time": 6.514}, {"pitch": 42, "velocity": 80, "note_on_time": 6.514, "note_off_time": 6.856}, {"pitch": 67, "velocity": 80, "note_on_time": 6.855, "note_off_time": 7.197}, {"pitch": 42, "velocity": 80, "note_on_time": 6.856, "note_off_time": 7.198}, {"pitch": 67, "velocity": 80, "note_on_time": 7.197, "note_off_time": 7.541}, {"pitch": 42, "velocity": 80, "note_on_time": 7.198, "note_off_time": 7.541}, {"pitch": 62, "velocity": 80, "note_on_time": 7.541, "note_off_time": 7.883}, {"pitch": 42, "velocity": 80, "note_on_time": 7.541, "note_off_time": 7.883}, {"pitch": 60, "velocity": 80, "note_on_time": 7.883, "note_off_time": 8.226}, {"pitch": 42, "velocity": 80, "note_on_time": 7.884, "note_off_time": 8.226}, {"pitch": 62, "velocity": 80, "note_on_time": 8.226, "note_off_time": 8.57}, {"pitch": 42, "velocity": 80, "note_on_time": 8.226, "note_off_time": 8.57}, {"pitch": 67, "velocity": 80, "note_on_time": 8.57, "note_off_time": 8.914}, {"pitch": 42, "velocity": 80, "note_on_time": 8.57, "note_off_time": 8.914}, {"pitch": 64, "velocity": 80, "note_on_time": 8.914, "note_off_time": 9.257}, {"pitch": 42, "velocity": 80, "note_on_time": 8.914, "note_off_time": 9.258}, {"pitch": 64, "velocity": 80, "note_on_time": 9.257, "note_off_time": 9.602}, {"pitch": 42, "velocity": 80, "note_on_time": 9.258, "note_off_time": 9.602}, {"pitch": 65, "velocity": 80, "note_on_time": 9.602, "note_off_time": 9.945}, {"pitch": 42, "velocity": 80, "note_on_time": 9.602, "note_off_time": 9.946}, {"pitch": 60, "velocity": 80, "note_on_time": 9.945, "note_off_time": 10.288}, {"pitch": 42, "velocity": 80, "note_on_time": 9.946, "note_off_time": 10.288}, {"pitch": 65, "velocity": 80, "note_on_time": 10.288, "note_off_time": 10.63}, {"pitch": 42, "velocity": 80, "note_on_time": 10.288, "note_off_time": 10.63}, {"pitch": 67, "velocity": 80, "note_on_time": 10.63, "note_off_time": 10.973}, {"pitch": 42, "velocity": 80, "note_on_time": 10.631, "note_off_time": 10.973}, {"pitch": 42, "velocity": 80, "note_on_time": 10.974, "note_off_time": 11.317}, {"pitch": 67, "velocity": 80, "note_on_time": 11.317, "note_off_time": 11.66}, {"pitch": 42, "velocity": 80, "note_on_time": 11.317, "note_off_time": 11.66}, {"pitch": 67, "velocity": 80, "note_on_time": 11.66, "note_off_time": 12.006}, {"pitch": 42, "velocity": 80, "note_on_time": 11.66, "note_off_time": 12.006}, {"pitch": 67, "velocity": 80, "note_on_time": 12.006, "note_off_time": 12.351}, {"pitch": 42, "velocity": 80, "note_on_time": 12.006, "note_off_time": 12.352}]</notes><options name="Option List">((4, 4), [0.5, 0.25], 3, 8, &lt;NoteRangePerHand.C_TO_G: 6&gt;, &lt;NoteRangePerHand.ONE_NOTE: 2&gt;, False, True, False, 182)</options></target_notes><trials><trial trial_no="1" timestamp="2022_12_08-11_54_34"><notes name="Played Notes">[{"pitch": 60, "velocity": 79, "note_on_time": 1.392, "note_off_time": 1.531}, {"pitch": 64, "velocity": 73, "note_on_time": 1.706, "note_off_time": 1.922}, {"pitch": 65, "velocity": 84, "note_on_time": 2.094, "note_off_time": 2.238}, {"pitch": 65, "velocity": 76, "note_on_time": 2.426, "note_off_time": 2.592}, {"pitch": 64, "velocity": 86, "note_on_time": 2.748, "note_off_time": 2.929}, {"pitch": 62, "velocity": 87, "note_on_time": 3.103, "note_off_time": 3.265}, {"pitch": 60, "velocity": 70, "note_on_time": 4.159, "note_off_time": 4.3}, {"pitch": 67, "velocity": 72, "note_on_time": 4.481, "note_off_time": 4.628}, {"pitch": 60, "velocity": 84, "note_on_time": 4.815, "note_off_time": 4.933}, {"pitch": 60, "velocity": 81, "note_on_time": 5.161, "note_off_time": 5.276}, {"pitch": 67, "velocity": 82, "note_on_time": 5.473, "note_off_time": 6.045}, {"pitch": 67, "velocity": 78, "note_on_time": 6.87, "note_off_time": 7.056}, {"pitch": 62, "velocity": 77, "note_on_time": 7.2, "note_off_time": 7.39}, {"pitch": 60, "velocity": 75, "note_on_time": 7.538, "note_off_time": 7.683}, {"pitch": 62, "velocity": 73, "note_on_time": 7.869, "note_off_time": 8.047}, {"pitch": 67, "velocity": 73, "note_on_time": 8.207, "note_off_time": 8.369}, {"pitch": 64, "velocity": 79, "note_on_time": 8.546, "note_off_time": 8.684}, {"pitch": 64, "velocity": 79, "note_on_time": 8.872, "note_off_time": 9.047}, {"pitch": 65, "velocity": 81, "note_on_time": 9.236, "note_off_time": 9.397}, {"pitch": 60, "velocity": 64, "note_on_time": 9.578, "note_off_time": 9.716}, {"pitch": 65, "velocity": 74, "note_on_time": 9.92, "note_off_time": 10.07}, {"pitch": 67, "velocity": 84, "note_on_time": 10.262, "note_off_time": 10.372}, {"pitch": 67, "velocity": 87, "note_on_time": 10.967, "note_off_time": 11.074}, {"pitch": 67, "velocity": 85, "note_on_time": 11.282, "note_off_time": 11.382}, {"pitch": 67, "velocity": 95, "note_on_time": 11.608, "note_off_time": 11.758}]</notes><guidance name="Guidance Mode">None</guidance><error name="Error value">0.07472304347826077</error></trial></trials></MIDI>