<MIDI midiNo="2022_09_12-11_41_45"><target_notes><notes name="Note List">[{"pitch": 42, "velocity": 80, "note_on_time": 0.004, "note_off_time": 0.379}, {"pitch": 42, "velocity": 80, "note_on_time": 0.379, "note_off_time": 0.752}, {"pitch": 42, "velocity": 80, "note_on_time": 0.752, "note_off_time": 1.126}, {"pitch": 42, "velocity": 80, "note_on_time": 1.126, "note_off_time": 1.501}, {"pitch": 60, "velocity": 80, "note_on_time": 1.501, "note_off_time": 1.877}, {"pitch": 42, "velocity": 80, "note_on_time": 1.502, "note_off_time": 1.877}, {"pitch": 60, "velocity": 80, "note_on_time": 1.877, "note_off_time": 2.253}, {"pitch": 42, "velocity": 80, "note_on_time": 1.878, "note_off_time": 2.253}, {"pitch": 62, "velocity": 80, "note_on_time": 2.253, "note_off_time": 2.624}, {"pitch": 42, "velocity": 80, "note_on_time": 2.254, "note_off_time": 2.625}, {"pitch": 64, "velocity": 80, "note_on_time": 2.624, "note_off_time": 2.996}, {"pitch": 42, "velocity": 80, "note_on_time": 2.625, "note_off_time": 2.997}, {"pitch": 62, "velocity": 80, "note_on_time": 2.996, "note_off_time": 3.37}, {"pitch": 42, "velocity": 80, "note_on_time": 2.997, "note_off_time": 3.37}, {"pitch": 60, "velocity": 80, "note_on_time": 3.37, "note_off_time": 3.741}, {"pitch": 42, "velocity": 80, "note_on_time": 3.37, "note_off_time": 3.741}, {"pitch": 60, "velocity": 80, "note_on_time": 3.741, "note_off_time": 4.113}, {"pitch": 42, "velocity": 80, "note_on_time": 3.741, "note_off_time": 4.113}, {"pitch": 64, "velocity": 80, "note_on_time": 4.113, "note_off_time": 4.49}, {"pitch": 42, "velocity": 80, "note_on_time": 4.114, "note_off_time": 4.49}, {"pitch": 42, "velocity": 80, "note_on_time": 4.491, "note_off_time": 4.867}, {"pitch": 64, "velocity": 80, "note_on_time": 4.49, "note_off_time": 5.24}, {"pitch": 42, "velocity": 80, "note_on_time": 4.867, "note_off_time": 5.24}, {"pitch": 42, "velocity": 80, "note_on_time": 5.24, "note_off_time": 5.612}, {"pitch": 64, "velocity": 80, "note_on_time": 5.24, "note_off_time": 5.984}, {"pitch": 42, "velocity": 80, "note_on_time": 5.612, "note_off_time": 5.984}, {"pitch": 60, "velocity": 80, "note_on_time": 5.984, "note_off_time": 6.356}, {"pitch": 42, "velocity": 80, "note_on_time": 5.984, "note_off_time": 6.357}, {"pitch": 60, "velocity": 80, "note_on_time": 6.356, "note_off_time": 6.732}, {"pitch": 42, "velocity": 80, "note_on_time": 6.357, "note_off_time": 6.732}, {"pitch": 62, "velocity": 80, "note_on_time": 6.732, "note_off_time": 7.107}, {"pitch": 42, "velocity": 80, "note_on_time": 6.732, "note_off_time": 7.107}, {"pitch": 60, "velocity": 80, "note_on_time": 7.107, "note_off_time": 7.48}, {"pitch": 42, "velocity": 80, "note_on_time": 7.108, "note_off_time": 7.481}, {"pitch": 42, "velocity": 80, "note_on_time": 7.481, "note_off_time": 7.854}, {"pitch": 62, "velocity": 80, "note_on_time": 7.48, "note_off_time": 8.23}, {"pitch": 42, "velocity": 80, "note_on_time": 7.854, "note_off_time": 8.23}, {"pitch": 42, "velocity": 80, "note_on_time": 8.23, "note_off_time": 8.603}, {"pitch": 64, "velocity": 80, "note_on_time": 8.23, "note_off_time": 8.978}, {"pitch": 42, "velocity": 80, "note_on_time": 8.604, "note_off_time": 8.978}, {"pitch": 64, "velocity": 80, "note_on_time": 8.978, "note_off_time": 9.352}, {"pitch": 42, "velocity": 80, "note_on_time": 8.979, "note_off_time": 9.352}, {"pitch": 64, "velocity": 80, "note_on_time": 9.352, "note_off_time": 9.725}, {"pitch": 42, "velocity": 80, "note_on_time": 9.352, "note_off_time": 9.725}, {"pitch": 62, "velocity": 80, "note_on_time": 9.725, "note_off_time": 10.098}, {"pitch": 42, "velocity": 80, "note_on_time": 9.726, "note_off_time": 10.098}, {"pitch": 62, "velocity": 80, "note_on_time": 10.098, "note_off_time": 10.471}, {"pitch": 42, "velocity": 80, "note_on_time": 10.099, "note_off_time": 10.472}, {"pitch": 42, "velocity": 80, "note_on_time": 10.472, "note_off_time": 10.843}, {"pitch": 62, "velocity": 80, "note_on_time": 10.471, "note_off_time": 11.216}, {"pitch": 42, "velocity": 80, "note_on_time": 10.843, "note_off_time": 11.216}, {"pitch": 42, "velocity": 80, "note_on_time": 11.216, "note_off_time": 11.587}, {"pitch": 42, "velocity": 80, "note_on_time": 11.588, "note_off_time": 11.961}, {"pitch": 42, "velocity": 80, "note_on_time": 11.961, "note_off_time": 12.334}, {"pitch": 62, "velocity": 80, "note_on_time": 12.334, "note_off_time": 12.702}, {"pitch": 42, "velocity": 80, "note_on_time": 12.334, "note_off_time": 12.702}, {"pitch": 62, "velocity": 80, "note_on_time": 12.702, "note_off_time": 13.078}, {"pitch": 42, "velocity": 80, "note_on_time": 12.703, "note_off_time": 13.078}, {"pitch": 62, "velocity": 80, "note_on_time": 13.078, "note_off_time": 13.451}, {"pitch": 42, "velocity": 80, "note_on_time": 13.078, "note_off_time": 13.451}]</notes><options name="Option List">((4, 4), [0.5, 0.25], 3, 8, &lt;NoteRangePerHand.THREE_NOTES: 4&gt;, &lt;NoteRangePerHand.ONE_NOTE: 2&gt;, False, True, True, 166)</options></target_notes><trials><trial trial_no="1" timestamp="2022_09_12-11_41_30"><notes name="Played Notes">[{"pitch": 72, "velocity": 77, "note_on_time": 2.73, "note_off_time": 2.903}, {"pitch": 72, "velocity": 77, "note_on_time": 3.112, "note_off_time": 3.284}, {"pitch": 72, "velocity": 79, "note_on_time": 3.483, "note_off_time": 3.625}, {"pitch": 72, "velocity": 78, "note_on_time": 5.764, "note_off_time": 5.92}, {"pitch": 72, "velocity": 77, "note_on_time": 6.107, "note_off_time": 6.27}, {"pitch": 74, "velocity": 72, "note_on_time": 6.476, "note_off_time": 6.627}, {"pitch": 76, "velocity": 66, "note_on_time": 6.855, "note_off_time": 7.013}, {"pitch": 74, "velocity": 84, "note_on_time": 7.297, "note_off_time": 7.416}, {"pitch": 72, "velocity": 64, "note_on_time": 7.646, "note_off_time": 7.801}, {"pitch": 72, "velocity": 77, "note_on_time": 8.01, "note_off_time": 8.2}, {"pitch": 74, "velocity": 70, "note_on_time": 8.417, "note_off_time": 8.538}, {"pitch": 76, "velocity": 58, "note_on_time": 8.946, "note_off_time": 9.369}, {"pitch": 76, "velocity": 77, "note_on_time": 9.674, "note_off_time": 10.308}, {"pitch": 72, "velocity": 62, "note_on_time": 10.624, "note_off_time": 10.831}, {"pitch": 72, "velocity": 82, "note_on_time": 10.983, "note_off_time": 11.154}, {"pitch": 74, "velocity": 78, "note_on_time": 11.343, "note_off_time": 11.475}, {"pitch": 72, "velocity": 78, "note_on_time": 11.696, "note_off_time": 11.869}, {"pitch": 74, "velocity": 88, "note_on_time": 12.14, "note_off_time": 12.631}, {"pitch": 76, "velocity": 63, "note_on_time": 12.853, "note_off_time": 13.431}]</notes><guidance name="Guidance Mode">None</guidance><error name="Error value">1.3177990476190475</error></trial><trial trial_no="2" timestamp="2022_09_12-11_42_34"><notes name="Played Notes">[{"pitch": 60, "velocity": 67, "note_on_time": 1.573, "note_off_time": 1.738}, {"pitch": 60, "velocity": 84, "note_on_time": 1.931, "note_off_time": 2.111}, {"pitch": 62, "velocity": 79, "note_on_time": 2.295, "note_off_time": 2.463}, {"pitch": 64, "velocity": 74, "note_on_time": 2.669, "note_off_time": 2.828}, {"pitch": 62, "velocity": 78, "note_on_time": 3.057, "note_off_time": 3.2}, {"pitch": 60, "velocity": 40, "note_on_time": 3.367, "note_off_time": 3.526}, {"pitch": 60, "velocity": 81, "note_on_time": 3.707, "note_off_time": 3.887}, {"pitch": 64, "velocity": 75, "note_on_time": 4.302, "note_off_time": 4.455}, {"pitch": 64, "velocity": 77, "note_on_time": 4.665, "note_off_time": 5.138}, {"pitch": 64, "velocity": 77, "note_on_time": 5.409, "note_off_time": 5.896}, {"pitch": 60, "velocity": 67, "note_on_time": 6.215, "note_off_time": 6.368}, {"pitch": 60, "velocity": 85, "note_on_time": 6.549, "note_off_time": 6.739}, {"pitch": 62, "velocity": 78, "note_on_time": 6.883, "note_off_time": 7.037}, {"pitch": 60, "velocity": 77, "note_on_time": 7.233, "note_off_time": 7.417}, {"pitch": 62, "velocity": 75, "note_on_time": 7.648, "note_off_time": 8.216}, {"pitch": 64, "velocity": 71, "note_on_time": 8.485, "note_off_time": 9.126}, {"pitch": 64, "velocity": 80, "note_on_time": 9.418, "note_off_time": 9.573}, {"pitch": 64, "velocity": 81, "note_on_time": 9.741, "note_off_time": 9.92}, {"pitch": 60, "velocity": 78, "note_on_time": 10.1, "note_off_time": 10.282}, {"pitch": 62, "velocity": 47, "note_on_time": 10.895, "note_off_time": 11.022}, {"pitch": 60, "velocity": 77, "note_on_time": 11.372, "note_off_time": 11.695}, {"pitch": 62, "velocity": 70, "note_on_time": 11.869, "note_off_time": 12.481}]</notes><guidance name="Guidance Mode">None</guidance><error name="Error value">0.29894166666666666</error></trial><trial trial_no="3" timestamp="2022_09_12-11_43_01"><notes name="Played Notes">[{"pitch": 60, "velocity": 82, "note_on_time": 1.588, "note_off_time": 1.744}, {"pitch": 60, "velocity": 88, "note_on_time": 1.929, "note_off_time": 2.092}, {"pitch": 62, "velocity": 67, "note_on_time": 2.308, "note_off_time": 2.454}, {"pitch": 64, "velocity": 73, "note_on_time": 2.664, "note_off_time": 2.819}, {"pitch": 62, "velocity": 72, "note_on_time": 3.174, "note_off_time": 3.322}, {"pitch": 60, "velocity": 84, "note_on_time": 3.572, "note_off_time": 3.727}, {"pitch": 60, "velocity": 84, "note_on_time": 3.932, "note_off_time": 4.1}, {"pitch": 64, "velocity": 82, "note_on_time": 4.507, "note_off_time": 4.824}, {"pitch": 64, "velocity": 79, "note_on_time": 4.969, "note_off_time": 5.453}, {"pitch": 64, "velocity": 85, "note_on_time": 5.686, "note_off_time": 6.189}, {"pitch": 60, "velocity": 85, "note_on_time": 6.521, "note_off_time": 6.662}, {"pitch": 60, "velocity": 90, "note_on_time": 6.846, "note_off_time": 7.012}, {"pitch": 62, "velocity": 73, "note_on_time": 7.181, "note_off_time": 7.334}, {"pitch": 60, "velocity": 77, "note_on_time": 7.519, "note_off_time": 7.697}, {"pitch": 62, "velocity": 72, "note_on_time": 7.963, "note_off_time": 8.501}, {"pitch": 64, "velocity": 71, "note_on_time": 8.719, "note_off_time": 9.248}, {"pitch": 64, "velocity": 86, "note_on_time": 9.494, "note_off_time": 9.643}, {"pitch": 64, "velocity": 86, "note_on_time": 9.856, "note_off_time": 10.029}, {"pitch": 62, "velocity": 64, "note_on_time": 10.711, "note_off_time": 10.842}, {"pitch": 62, "velocity": 80, "note_on_time": 11.092, "note_off_time": 11.222}, {"pitch": 62, "velocity": 77, "note_on_time": 11.45, "note_off_time": 11.939}, {"pitch": 62, "velocity": 75, "note_on_time": 13.118, "note_off_time": 13.269}]</notes><guidance name="Guidance Mode">None</guidance><error name="Error value">0.277179761904762</error></trial><trial trial_no="4" timestamp="2022_09_12-11_43_31"><notes name="Played Notes">[{"pitch": 60, "velocity": 82, "note_on_time": 1.938, "note_off_time": 2.076}, {"pitch": 60, "velocity": 84, "note_on_time": 2.269, "note_off_time": 2.444}, {"pitch": 62, "velocity": 70, "note_on_time": 2.612, "note_off_time": 2.76}, {"pitch": 64, "velocity": 77, "note_on_time": 2.958, "note_off_time": 3.104}, {"pitch": 62, "velocity": 80, "note_on_time": 3.357, "note_off_time": 3.488}, {"pitch": 60, "velocity": 79, "note_on_time": 3.663, "note_off_time": 3.808}, {"pitch": 60, "velocity": 83, "note_on_time": 4.007, "note_off_time": 4.172}, {"pitch": 64, "velocity": 72, "note_on_time": 4.388, "note_off_time": 4.521}, {"pitch": 64, "velocity": 85, "note_on_time": 4.761, "note_off_time": 5.239}, {"pitch": 64, "velocity": 85, "note_on_time": 5.524, "note_off_time": 5.961}, {"pitch": 60, "velocity": 70, "note_on_time": 6.388, "note_off_time": 6.512}, {"pitch": 60, "velocity": 76, "note_on_time": 6.745, "note_off_time": 6.901}, {"pitch": 62, "velocity": 79, "note_on_time": 7.139, "note_off_time": 7.243}, {"pitch": 60, "velocity": 80, "note_on_time": 7.443, "note_off_time": 7.612}, {"pitch": 62, "velocity": 81, "note_on_time": 7.855, "note_off_time": 8.264}, {"pitch": 64, "velocity": 76, "note_on_time": 8.6, "note_off_time": 9.09}, {"pitch": 64, "velocity": 82, "note_on_time": 9.387, "note_off_time": 9.524}, {"pitch": 64, "velocity": 83, "note_on_time": 9.746, "note_off_time": 9.928}, {"pitch": 62, "velocity": 77, "note_on_time": 10.101, "note_off_time": 10.231}, {"pitch": 62, "velocity": 79, "note_on_time": 10.444, "note_off_time": 10.566}, {"pitch": 62, "velocity": 86, "note_on_time": 10.774, "note_off_time": 11.203}, {"pitch": 62, "velocity": 77, "note_on_time": 12.556, "note_off_time": 12.672}, {"pitch": 62, "velocity": 81, "note_on_time": 12.849, "note_off_time": 12.976}, {"pitch": 62, "velocity": 89, "note_on_time": 13.189, "note_off_time": 13.317}]</notes><guidance name="Guidance Mode">None</guidance><error name="Error value">0.03772500000000003</error></trial></trials></MIDI>