<MIDI midiNo="2022_11_14-18_20_42"><target_notes><notes name="Note List">[{"pitch": 42, "velocity": 80, "note_on_time": 0.004, "note_off_time": 0.766}, {"pitch": 42, "velocity": 80, "note_on_time": 0.767, "note_off_time": 1.53}, {"pitch": 42, "velocity": 80, "note_on_time": 1.53, "note_off_time": 2.293}, {"pitch": 42, "velocity": 80, "note_on_time": 2.294, "note_off_time": 3.059}, {"pitch": 62, "velocity": 80, "note_on_time": 3.059, "note_off_time": 3.824}, {"pitch": 42, "velocity": 80, "note_on_time": 3.06, "note_off_time": 3.824}, {"pitch": 62, "velocity": 80, "note_on_time": 3.824, "note_off_time": 4.589}, {"pitch": 42, "velocity": 80, "note_on_time": 3.825, "note_off_time": 4.59}, {"pitch": 60, "velocity": 80, "note_on_time": 4.589, "note_off_time": 5.353}, {"pitch": 42, "velocity": 80, "note_on_time": 4.59, "note_off_time": 5.354}, {"pitch": 62, "velocity": 80, "note_on_time": 5.353, "note_off_time": 6.117}, {"pitch": 42, "velocity": 80, "note_on_time": 5.354, "note_off_time": 6.117}, {"pitch": 62, "velocity": 80, "note_on_time": 6.117, "note_off_time": 6.882}, {"pitch": 42, "velocity": 80, "note_on_time": 6.118, "note_off_time": 6.883}, {"pitch": 62, "velocity": 80, "note_on_time": 6.882, "note_off_time": 7.645}, {"pitch": 42, "velocity": 80, "note_on_time": 6.883, "note_off_time": 7.645}, {"pitch": 42, "velocity": 80, "note_on_time": 7.646, "note_off_time": 8.409}, {"pitch": 60, "velocity": 80, "note_on_time": 7.645, "note_off_time": 9.171}, {"pitch": 42, "velocity": 80, "note_on_time": 8.41, "note_off_time": 9.171}, {"pitch": 60, "velocity": 80, "note_on_time": 9.171, "note_off_time": 9.934}, {"pitch": 42, "velocity": 80, "note_on_time": 9.171, "note_off_time": 9.935}, {"pitch": 62, "velocity": 80, "note_on_time": 9.934, "note_off_time": 10.694}, {"pitch": 42, "velocity": 80, "note_on_time": 9.935, "note_off_time": 10.694}, {"pitch": 62, "velocity": 80, "note_on_time": 10.694, "note_off_time": 11.459}, {"pitch": 42, "velocity": 80, "note_on_time": 10.694, "note_off_time": 11.459}, {"pitch": 62, "velocity": 80, "note_on_time": 11.459, "note_off_time": 12.224}, {"pitch": 42, "velocity": 80, "note_on_time": 11.459, "note_off_time": 12.225}, {"pitch": 60, "velocity": 80, "note_on_time": 12.224, "note_off_time": 12.983}, {"pitch": 42, "velocity": 80, "note_on_time": 12.225, "note_off_time": 12.983}, {"pitch": 62, "velocity": 80, "note_on_time": 12.983, "note_off_time": 13.748}, {"pitch": 42, "velocity": 80, "note_on_time": 12.984, "note_off_time": 13.749}, {"pitch": 62, "velocity": 80, "note_on_time": 13.748, "note_off_time": 14.511}, {"pitch": 42, "velocity": 80, "note_on_time": 13.749, "note_off_time": 14.511}, {"pitch": 60, "velocity": 80, "note_on_time": 14.511, "note_off_time": 15.273}, {"pitch": 42, "velocity": 80, "note_on_time": 14.511, "note_off_time": 15.273}, {"pitch": 62, "velocity": 80, "note_on_time": 15.273, "note_off_time": 16.037}, {"pitch": 42, "velocity": 80, "note_on_time": 15.273, "note_off_time": 16.037}, {"pitch": 60, "velocity": 80, "note_on_time": 16.037, "note_off_time": 16.8}, {"pitch": 42, "velocity": 80, "note_on_time": 16.037, "note_off_time": 16.8}, {"pitch": 42, "velocity": 80, "note_on_time": 16.801, "note_off_time": 17.552}, {"pitch": 42, "velocity": 80, "note_on_time": 17.552, "note_off_time": 18.314}, {"pitch": 62, "velocity": 80, "note_on_time": 18.314, "note_off_time": 19.078}, {"pitch": 42, "velocity": 80, "note_on_time": 18.314, "note_off_time": 19.078}, {"pitch": 60, "velocity": 80, "note_on_time": 19.078, "note_off_time": 19.843}, {"pitch": 42, "velocity": 80, "note_on_time": 19.078, "note_off_time": 19.843}, {"pitch": 60, "velocity": 80, "note_on_time": 19.843, "note_off_time": 20.609}, {"pitch": 42, "velocity": 80, "note_on_time": 19.844, "note_off_time": 20.609}, {"pitch": 60, "velocity": 80, "note_on_time": 20.609, "note_off_time": 21.374}, {"pitch": 42, "velocity": 80, "note_on_time": 20.609, "note_off_time": 21.374}, {"pitch": 62, "velocity": 80, "note_on_time": 21.374, "note_off_time": 22.128}, {"pitch": 42, "velocity": 80, "note_on_time": 21.375, "note_off_time": 22.128}, {"pitch": 62, "velocity": 80, "note_on_time": 22.128, "note_off_time": 22.882}, {"pitch": 42, "velocity": 80, "note_on_time": 22.129, "note_off_time": 22.882}, {"pitch": 62, "velocity": 80, "note_on_time": 22.882, "note_off_time": 23.647}, {"pitch": 42, "velocity": 80, "note_on_time": 22.883, "note_off_time": 23.647}, {"pitch": 62, "velocity": 80, "note_on_time": 23.647, "note_off_time": 24.408}, {"pitch": 42, "velocity": 80, "note_on_time": 23.647, "note_off_time": 24.408}, {"pitch": 42, "velocity": 80, "note_on_time": 24.408, "note_off_time": 25.169}, {"pitch": 62, "velocity": 80, "note_on_time": 25.169, "note_off_time": 25.92}, {"pitch": 42, "velocity": 80, "note_on_time": 25.169, "note_off_time": 25.92}, {"pitch": 62, "velocity": 80, "note_on_time": 25.92, "note_off_time": 26.683}, {"pitch": 42, "velocity": 80, "note_on_time": 25.921, "note_off_time": 26.683}, {"pitch": 62, "velocity": 80, "note_on_time": 26.683, "note_off_time": 27.446}, {"pitch": 42, "velocity": 80, "note_on_time": 26.684, "note_off_time": 27.446}]</notes><options name="Option List">((4, 4), [0.25], 3, 8, &lt;NoteRangePerHand.TWO_NOTES: 3&gt;, &lt;NoteRangePerHand.ONE_NOTE: 2&gt;, False, True, False, 80)</options></target_notes><trials><trial trial_no="1" timestamp="2022_11_14-18_20_13"><notes name="Played Notes">[{"pitch": 62, "velocity": 55, "note_on_time": 3.091, "note_off_time": 3.535}, {"pitch": 62, "velocity": 73, "note_on_time": 3.861, "note_off_time": 4.279}, {"pitch": 60, "velocity": 71, "note_on_time": 4.609, "note_off_time": 5.048}, {"pitch": 62, "velocity": 74, "note_on_time": 5.408, "note_off_time": 5.802}, {"pitch": 62, "velocity": 77, "note_on_time": 6.164, "note_off_time": 6.545}, {"pitch": 62, "velocity": 70, "note_on_time": 6.93, "note_off_time": 7.276}, {"pitch": 60, "velocity": 87, "note_on_time": 7.688, "note_off_time": 8.772}, {"pitch": 60, "velocity": 84, "note_on_time": 9.238, "note_off_time": 9.618}, {"pitch": 62, "velocity": 75, "note_on_time": 9.907, "note_off_time": 10.311}, {"pitch": 62, "velocity": 79, "note_on_time": 10.663, "note_off_time": 11.079}, {"pitch": 62, "velocity": 70, "note_on_time": 11.44, "note_off_time": 11.814}, {"pitch": 60, "velocity": 80, "note_on_time": 12.219, "note_off_time": 12.676}, {"pitch": 62, "velocity": 81, "note_on_time": 12.983, "note_off_time": 13.335}, {"pitch": 62, "velocity": 77, "note_on_time": 13.747, "note_off_time": 14.129}, {"pitch": 60, "velocity": 84, "note_on_time": 14.516, "note_off_time": 14.86}, {"pitch": 62, "velocity": 73, "note_on_time": 15.268, "note_off_time": 15.657}, {"pitch": 60, "velocity": 87, "note_on_time": 16.016, "note_off_time": 16.532}, {"pitch": 62, "velocity": 79, "note_on_time": 18.285, "note_off_time": 18.67}, {"pitch": 60, "velocity": 87, "note_on_time": 19.017, "note_off_time": 19.433}, {"pitch": 60, "velocity": 82, "note_on_time": 19.814, "note_off_time": 20.265}, {"pitch": 60, "velocity": 78, "note_on_time": 20.655, "note_off_time": 21.061}, {"pitch": 62, "velocity": 76, "note_on_time": 21.39, "note_off_time": 21.791}, {"pitch": 62, "velocity": 76, "note_on_time": 22.17, "note_off_time": 22.557}, {"pitch": 62, "velocity": 74, "note_on_time": 22.916, "note_off_time": 23.287}, {"pitch": 62, "velocity": 76, "note_on_time": 23.676, "note_off_time": 24.057}, {"pitch": 62, "velocity": 73, "note_on_time": 25.875, "note_off_time": 26.262}, {"pitch": 62, "velocity": 67, "note_on_time": 26.645, "note_off_time": 27.133}]</notes><guidance name="Guidance Mode">None</guidance><error name="Error value">0.0939600000000003</error></trial></trials></MIDI>