<MIDI midiNo="2022_11_21-16_31_45"><target_notes><notes name="Note List">[{"pitch": 42, "velocity": 80, "note_on_time": 0.003, "note_off_time": 0.257}, {"pitch": 42, "velocity": 80, "note_on_time": 0.257, "note_off_time": 0.506}, {"pitch": 42, "velocity": 80, "note_on_time": 0.506, "note_off_time": 0.754}, {"pitch": 42, "velocity": 80, "note_on_time": 0.754, "note_off_time": 1.003}, {"pitch": 62, "velocity": 80, "note_on_time": 1.003, "note_off_time": 1.252}, {"pitch": 42, "velocity": 80, "note_on_time": 1.003, "note_off_time": 1.252}, {"pitch": 42, "velocity": 80, "note_on_time": 1.252, "note_off_time": 1.503}, {"pitch": 64, "velocity": 80, "note_on_time": 1.252, "note_off_time": 1.752}, {"pitch": 42, "velocity": 80, "note_on_time": 1.503, "note_off_time": 1.752}, {"pitch": 42, "velocity": 80, "note_on_time": 1.752, "note_off_time": 2.001}, {"pitch": 60, "velocity": 80, "note_on_time": 2.001, "note_off_time": 2.25}, {"pitch": 42, "velocity": 80, "note_on_time": 2.001, "note_off_time": 2.25}, {"pitch": 62, "velocity": 80, "note_on_time": 2.25, "note_off_time": 2.499}, {"pitch": 42, "velocity": 80, "note_on_time": 2.25, "note_off_time": 2.499}, {"pitch": 42, "velocity": 80, "note_on_time": 2.499, "note_off_time": 2.746}, {"pitch": 64, "velocity": 80, "note_on_time": 2.499, "note_off_time": 2.994}, {"pitch": 42, "velocity": 80, "note_on_time": 2.746, "note_off_time": 2.994}, {"pitch": 60, "velocity": 80, "note_on_time": 2.994, "note_off_time": 3.243}, {"pitch": 42, "velocity": 80, "note_on_time": 2.994, "note_off_time": 3.243}, {"pitch": 60, "velocity": 80, "note_on_time": 3.243, "note_off_time": 3.492}, {"pitch": 42, "velocity": 80, "note_on_time": 3.243, "note_off_time": 3.492}, {"pitch": 42, "velocity": 80, "note_on_time": 3.492, "note_off_time": 3.741}, {"pitch": 42, "velocity": 80, "note_on_time": 3.741, "note_off_time": 3.99}, {"pitch": 60, "velocity": 80, "note_on_time": 3.99, "note_off_time": 4.238}, {"pitch": 42, "velocity": 80, "note_on_time": 3.99, "note_off_time": 4.238}, {"pitch": 60, "velocity": 80, "note_on_time": 4.238, "note_off_time": 4.486}, {"pitch": 42, "velocity": 80, "note_on_time": 4.238, "note_off_time": 4.486}, {"pitch": 64, "velocity": 80, "note_on_time": 4.486, "note_off_time": 4.735}, {"pitch": 42, "velocity": 80, "note_on_time": 4.486, "note_off_time": 4.735}, {"pitch": 60, "velocity": 80, "note_on_time": 4.735, "note_off_time": 4.984}, {"pitch": 42, "velocity": 80, "note_on_time": 4.735, "note_off_time": 4.984}, {"pitch": 64, "velocity": 80, "note_on_time": 4.984, "note_off_time": 5.234}, {"pitch": 42, "velocity": 80, "note_on_time": 4.984, "note_off_time": 5.234}, {"pitch": 62, "velocity": 80, "note_on_time": 5.234, "note_off_time": 5.481}, {"pitch": 42, "velocity": 80, "note_on_time": 5.234, "note_off_time": 5.481}, {"pitch": 62, "velocity": 80, "note_on_time": 5.481, "note_off_time": 5.731}, {"pitch": 42, "velocity": 80, "note_on_time": 5.481, "note_off_time": 5.731}, {"pitch": 64, "velocity": 80, "note_on_time": 5.731, "note_off_time": 5.98}, {"pitch": 42, "velocity": 80, "note_on_time": 5.731, "note_off_time": 5.98}, {"pitch": 64, "velocity": 80, "note_on_time": 5.98, "note_off_time": 6.228}, {"pitch": 42, "velocity": 80, "note_on_time": 5.98, "note_off_time": 6.228}, {"pitch": 62, "velocity": 80, "note_on_time": 6.228, "note_off_time": 6.478}, {"pitch": 42, "velocity": 80, "note_on_time": 6.228, "note_off_time": 6.478}, {"pitch": 62, "velocity": 80, "note_on_time": 6.478, "note_off_time": 6.726}, {"pitch": 42, "velocity": 80, "note_on_time": 6.478, "note_off_time": 6.726}, {"pitch": 62, "velocity": 80, "note_on_time": 6.726, "note_off_time": 6.976}, {"pitch": 42, "velocity": 80, "note_on_time": 6.726, "note_off_time": 6.976}, {"pitch": 62, "velocity": 80, "note_on_time": 6.976, "note_off_time": 7.226}, {"pitch": 42, "velocity": 80, "note_on_time": 6.976, "note_off_time": 7.226}, {"pitch": 62, "velocity": 80, "note_on_time": 7.226, "note_off_time": 7.476}, {"pitch": 42, "velocity": 80, "note_on_time": 7.226, "note_off_time": 7.476}, {"pitch": 60, "velocity": 80, "note_on_time": 7.476, "note_off_time": 7.725}, {"pitch": 42, "velocity": 80, "note_on_time": 7.476, "note_off_time": 7.725}, {"pitch": 64, "velocity": 80, "note_on_time": 7.725, "note_off_time": 7.974}, {"pitch": 42, "velocity": 80, "note_on_time": 7.725, "note_off_time": 7.974}, {"pitch": 42, "velocity": 80, "note_on_time": 7.974, "note_off_time": 8.222}, {"pitch": 64, "velocity": 80, "note_on_time": 8.222, "note_off_time": 8.469}, {"pitch": 42, "velocity": 80, "note_on_time": 8.222, "note_off_time": 8.469}, {"pitch": 64, "velocity": 80, "note_on_time": 8.469, "note_off_time": 8.72}, {"pitch": 42, "velocity": 80, "note_on_time": 8.469, "note_off_time": 8.72}, {"pitch": 64, "velocity": 80, "note_on_time": 8.72, "note_off_time": 8.969}, {"pitch": 42, "velocity": 80, "note_on_time": 8.72, "note_off_time": 8.969}]</notes><options name="Option List">((4, 4), [0.5, 0.25], 3, 8, &lt;NoteRangePerHand.THREE_NOTES: 4&gt;, &lt;NoteRangePerHand.ONE_NOTE: 2&gt;, False, True, False, '248')</options></target_notes><trials><trial trial_no="1" timestamp="2022_11_21-16_31_35"><notes name="Played Notes">[{"pitch": 62, "velocity": 69, "note_on_time": 1.261, "note_off_time": 1.387}, {"pitch": 64, "velocity": 79, "note_on_time": 1.534, "note_off_time": 1.984}, {"pitch": 60, "velocity": 61, "note_on_time": 2.369, "note_off_time": 2.509}, {"pitch": 62, "velocity": 67, "note_on_time": 2.623, "note_off_time": 2.774}, {"pitch": 64, "velocity": 81, "note_on_time": 2.884, "note_off_time": 3.302}, {"pitch": 60, "velocity": 84, "note_on_time": 3.434, "note_off_time": 3.585}, {"pitch": 60, "velocity": 73, "note_on_time": 3.691, "note_off_time": 3.91}, {"pitch": 60, "velocity": 87, "note_on_time": 4.415, "note_off_time": 4.559}, {"pitch": 60, "velocity": 48, "note_on_time": 4.616, "note_off_time": 4.81}, {"pitch": 64, "velocity": 71, "note_on_time": 4.906, "note_off_time": 5.085}, {"pitch": 60, "velocity": 64, "note_on_time": 5.123, "note_off_time": 5.289}, {"pitch": 64, "velocity": 80, "note_on_time": 5.382, "note_off_time": 5.541}, {"pitch": 62, "velocity": 65, "note_on_time": 5.594, "note_off_time": 5.686}, {"pitch": 62, "velocity": 61, "note_on_time": 5.804, "note_off_time": 5.962}, {"pitch": 64, "velocity": 68, "note_on_time": 6.036, "note_off_time": 6.162}, {"pitch": 64, "velocity": 54, "note_on_time": 6.269, "note_off_time": 6.457}, {"pitch": 62, "velocity": 68, "note_on_time": 6.507, "note_off_time": 6.635}, {"pitch": 62, "velocity": 69, "note_on_time": 6.748, "note_off_time": 6.857}, {"pitch": 62, "velocity": 64, "note_on_time": 6.97, "note_off_time": 7.11}, {"pitch": 62, "velocity": 73, "note_on_time": 7.209, "note_off_time": 7.333}, {"pitch": 62, "velocity": 75, "note_on_time": 7.422, "note_off_time": 7.642}, {"pitch": 60, "velocity": 85, "note_on_time": 7.655, "note_off_time": 7.868}, {"pitch": 64, "velocity": 79, "note_on_time": 7.878, "note_off_time": 8.075}, {"pitch": 64, "velocity": 80, "note_on_time": 8.442, "note_off_time": 8.587}, {"pitch": 64, "velocity": 68, "note_on_time": 8.66, "note_off_time": 8.811}]</notes><guidance name="Guidance Mode">None</guidance><error name="Error value">0.0824641304347825</error></trial><trial trial_no="2" timestamp="2022_11_21-16_32_00"><notes name="Played Notes">[{"pitch": 62, "velocity": 68, "note_on_time": 1.47, "note_off_time": 1.59}, {"pitch": 64, "velocity": 80, "note_on_time": 1.736, "note_off_time": 2.379}, {"pitch": 60, "velocity": 74, "note_on_time": 2.922, "note_off_time": 3.146}, {"pitch": 62, "velocity": 67, "note_on_time": 3.167, "note_off_time": 3.354}, {"pitch": 64, "velocity": 79, "note_on_time": 3.448, "note_off_time": 3.968}, {"pitch": 60, "velocity": 81, "note_on_time": 4.067, "note_off_time": 4.234}, {"pitch": 60, "velocity": 81, "note_on_time": 4.334, "note_off_time": 4.605}, {"pitch": 60, "velocity": 81, "note_on_time": 5.317, "note_off_time": 5.46}, {"pitch": 60, "velocity": 83, "note_on_time": 5.554, "note_off_time": 5.743}, {"pitch": 64, "velocity": 61, "note_on_time": 5.83, "note_off_time": 6.027}, {"pitch": 60, "velocity": 74, "note_on_time": 6.067, "note_off_time": 6.23}, {"pitch": 64, "velocity": 73, "note_on_time": 6.329, "note_off_time": 6.488}, {"pitch": 62, "velocity": 63, "note_on_time": 6.567, "note_off_time": 6.686}, {"pitch": 62, "velocity": 65, "note_on_time": 6.809, "note_off_time": 6.977}, {"pitch": 64, "velocity": 77, "note_on_time": 7.073, "note_off_time": 7.219}, {"pitch": 64, "velocity": 68, "note_on_time": 7.315, "note_off_time": 7.499}, {"pitch": 62, "velocity": 65, "note_on_time": 7.585, "note_off_time": 7.712}, {"pitch": 62, "velocity": 64, "note_on_time": 7.841, "note_off_time": 7.994}, {"pitch": 62, "velocity": 72, "note_on_time": 8.095, "note_off_time": 8.23}, {"pitch": 62, "velocity": 62, "note_on_time": 8.337, "note_off_time": 8.493}, {"pitch": 62, "velocity": 70, "note_on_time": 8.597, "note_off_time": 8.772}]</notes><guidance name="Guidance Mode">None</guidance><error name="Error value">0.35955565217391305</error></trial><trial trial_no="3" timestamp="2022_11_21-16_32_22"><notes name="Played Notes">[{"pitch": 62, "velocity": 69, "note_on_time": 1.41, "note_off_time": 1.587}, {"pitch": 64, "velocity": 78, "note_on_time": 1.707, "note_off_time": 1.925}, {"pitch": 64, "velocity": 78, "note_on_time": 2.004, "note_off_time": 2.314}, {"pitch": 60, "velocity": 72, "note_on_time": 3.389, "note_off_time": 3.561}, {"pitch": 62, "velocity": 75, "note_on_time": 3.617, "note_off_time": 3.763}, {"pitch": 64, "velocity": 86, "note_on_time": 3.898, "note_off_time": 4.403}, {"pitch": 60, "velocity": 84, "note_on_time": 4.513, "note_off_time": 4.687}, {"pitch": 60, "velocity": 76, "note_on_time": 4.797, "note_off_time": 5.074}, {"pitch": 60, "velocity": 88, "note_on_time": 5.894, "note_off_time": 6.057}, {"pitch": 60, "velocity": 90, "note_on_time": 6.145, "note_off_time": 6.35}, {"pitch": 64, "velocity": 72, "note_on_time": 6.469, "note_off_time": 6.674}, {"pitch": 60, "velocity": 19, "note_on_time": 6.647, "note_off_time": 6.873}, {"pitch": 64, "velocity": 79, "note_on_time": 7.067, "note_off_time": 7.282}, {"pitch": 62, "velocity": 75, "note_on_time": 7.33, "note_off_time": 7.472}, {"pitch": 62, "velocity": 64, "note_on_time": 7.6, "note_off_time": 7.773}, {"pitch": 64, "velocity": 79, "note_on_time": 7.874, "note_off_time": 8.022}, {"pitch": 64, "velocity": 68, "note_on_time": 8.135, "note_off_time": 8.331}, {"pitch": 62, "velocity": 72, "note_on_time": 8.413, "note_off_time": 8.539}, {"pitch": 62, "velocity": 70, "note_on_time": 8.673, "note_off_time": 8.804}]</notes><guidance name="Guidance Mode">None</guidance><error name="Error value">0.9362354347826086</error></trial><trial trial_no="4" timestamp="2022_11_21-16_33_13"><notes name="Played Notes">[{"pitch": 62, "velocity": 78, "note_on_time": 0.977, "note_off_time": 1.092}, {"pitch": 64, "velocity": 73, "note_on_time": 1.227, "note_off_time": 1.649}, {"pitch": 60, "velocity": 77, "note_on_time": 2.097, "note_off_time": 2.248}, {"pitch": 62, "velocity": 77, "note_on_time": 2.329, "note_off_time": 2.466}, {"pitch": 64, "velocity": 85, "note_on_time": 2.565, "note_off_time": 2.934}, {"pitch": 60, "velocity": 92, "note_on_time": 3.09, "note_off_time": 3.211}, {"pitch": 60, "velocity": 83, "note_on_time": 3.323, "note_off_time": 3.509}, {"pitch": 60, "velocity": 81, "note_on_time": 4.206, "note_off_time": 4.328}, {"pitch": 60, "velocity": 79, "note_on_time": 4.423, "note_off_time": 4.571}, {"pitch": 64, "velocity": 72, "note_on_time": 4.663, "note_off_time": 4.816}, {"pitch": 60, "velocity": 79, "note_on_time": 4.853, "note_off_time": 5.004}, {"pitch": 64, "velocity": 79, "note_on_time": 5.086, "note_off_time": 5.216}, {"pitch": 62, "velocity": 69, "note_on_time": 5.303, "note_off_time": 5.394}, {"pitch": 62, "velocity": 66, "note_on_time": 5.5, "note_off_time": 5.624}, {"pitch": 64, "velocity": 70, "note_on_time": 5.723, "note_off_time": 5.846}, {"pitch": 64, "velocity": 68, "note_on_time": 5.941, "note_off_time": 6.093}, {"pitch": 62, "velocity": 72, "note_on_time": 6.186, "note_off_time": 6.285}, {"pitch": 62, "velocity": 70, "note_on_time": 6.383, "note_off_time": 6.48}, {"pitch": 62, "velocity": 54, "note_on_time": 6.605, "note_off_time": 6.715}, {"pitch": 62, "velocity": 68, "note_on_time": 6.814, "note_off_time": 6.933}, {"pitch": 62, "velocity": 73, "note_on_time": 7.023, "note_off_time": 7.167}, {"pitch": 60, "velocity": 82, "note_on_time": 7.238, "note_off_time": 7.412}, {"pitch": 64, "velocity": 74, "note_on_time": 7.427, "note_off_time": 7.575}, {"pitch": 64, "velocity": 75, "note_on_time": 8.051, "note_off_time": 8.157}, {"pitch": 64, "velocity": 70, "note_on_time": 8.246, "note_off_time": 8.378}, {"pitch": 64, "velocity": 70, "note_on_time": 8.473, "note_off_time": 8.703}]</notes><guidance name="Guidance Mode">None</guidance><error name="Error value">0.04311065217391301</error></trial><trial trial_no="5" timestamp="2022_11_21-16_33_37"><notes name="Played Notes">[{"pitch": 62, "velocity": 71, "note_on_time": 1.798, "note_off_time": 1.904}, {"pitch": 64, "velocity": 84, "note_on_time": 2.039, "note_off_time": 2.5}, {"pitch": 60, "velocity": 76, "note_on_time": 3.095, "note_off_time": 3.218}, {"pitch": 62, "velocity": 77, "note_on_time": 3.322, "note_off_time": 3.42}, {"pitch": 64, "velocity": 85, "note_on_time": 3.574, "note_off_time": 3.968}, {"pitch": 60, "velocity": 84, "note_on_time": 4.123, "note_off_time": 4.237}, {"pitch": 60, "velocity": 78, "note_on_time": 4.36, "note_off_time": 4.537}, {"pitch": 60, "velocity": 92, "note_on_time": 5.103, "note_off_time": 5.231}, {"pitch": 60, "velocity": 82, "note_on_time": 5.355, "note_off_time": 5.485}, {"pitch": 64, "velocity": 84, "note_on_time": 5.572, "note_off_time": 5.728}, {"pitch": 60, "velocity": 78, "note_on_time": 5.757, "note_off_time": 5.858}, {"pitch": 64, "velocity": 85, "note_on_time": 5.994, "note_off_time": 6.125}, {"pitch": 62, "velocity": 71, "note_on_time": 6.213, "note_off_time": 6.31}, {"pitch": 62, "velocity": 66, "note_on_time": 6.412, "note_off_time": 6.521}, {"pitch": 64, "velocity": 81, "note_on_time": 6.647, "note_off_time": 6.747}, {"pitch": 64, "velocity": 62, "note_on_time": 6.857, "note_off_time": 6.995}, {"pitch": 62, "velocity": 79, "note_on_time": 7.101, "note_off_time": 7.2}, {"pitch": 62, "velocity": 78, "note_on_time": 7.294, "note_off_time": 7.408}, {"pitch": 62, "velocity": 72, "note_on_time": 7.502, "note_off_time": 7.606}, {"pitch": 62, "velocity": 80, "note_on_time": 7.728, "note_off_time": 7.823}, {"pitch": 62, "velocity": 70, "note_on_time": 7.931, "note_off_time": 8.065}, {"pitch": 60, "velocity": 84, "note_on_time": 8.12, "note_off_time": 8.253}, {"pitch": 64, "velocity": 73, "note_on_time": 8.325, "note_off_time": 8.46}, {"pitch": 64, "velocity": 90, "note_on_time": 8.879, "note_off_time": 8.982}]</notes><guidance name="Guidance Mode">None</guidance><error name="Error value">0.35768434782608693</error></trial></trials></MIDI>