<MIDI midiNo="2022_12_08-11_43_20"><target_notes><notes name="Note List">[{"pitch": 42, "velocity": 80, "note_on_time": 0.045, "note_off_time": 0.378}, {"pitch": 42, "velocity": 80, "note_on_time": 0.379, "note_off_time": 0.722}, {"pitch": 42, "velocity": 80, "note_on_time": 0.722, "note_off_time": 1.066}, {"pitch": 42, "velocity": 80, "note_on_time": 1.066, "note_off_time": 1.408}, {"pitch": 62, "velocity": 80, "note_on_time": 1.408, "note_off_time": 1.751}, {"pitch": 42, "velocity": 80, "note_on_time": 1.408, "note_off_time": 1.751}, {"pitch": 42, "velocity": 80, "note_on_time": 1.751, "note_off_time": 2.094}, {"pitch": 62, "velocity": 80, "note_on_time": 1.751, "note_off_time": 2.437}, {"pitch": 42, "velocity": 80, "note_on_time": 2.094, "note_off_time": 2.438}, {"pitch": 65, "velocity": 80, "note_on_time": 2.437, "note_off_time": 2.782}, {"pitch": 42, "velocity": 80, "note_on_time": 2.438, "note_off_time": 2.783}, {"pitch": 60, "velocity": 80, "note_on_time": 2.782, "note_off_time": 3.126}, {"pitch": 42, "velocity": 80, "note_on_time": 2.783, "note_off_time": 3.126}, {"pitch": 62, "velocity": 80, "note_on_time": 3.126, "note_off_time": 3.468}, {"pitch": 42, "velocity": 80, "note_on_time": 3.126, "note_off_time": 3.468}, {"pitch": 60, "velocity": 80, "note_on_time": 3.468, "note_off_time": 3.812}, {"pitch": 42, "velocity": 80, "note_on_time": 3.468, "note_off_time": 3.812}, {"pitch": 65, "velocity": 80, "note_on_time": 3.812, "note_off_time": 4.146}, {"pitch": 42, "velocity": 80, "note_on_time": 3.812, "note_off_time": 4.146}, {"pitch": 42, "velocity": 80, "note_on_time": 4.146, "note_off_time": 4.481}, {"pitch": 62, "velocity": 80, "note_on_time": 4.146, "note_off_time": 4.814}, {"pitch": 42, "velocity": 80, "note_on_time": 4.481, "note_off_time": 4.814}, {"pitch": 42, "velocity": 80, "note_on_time": 4.814, "note_off_time": 5.148}, {"pitch": 60, "velocity": 80, "note_on_time": 5.148, "note_off_time": 5.481}, {"pitch": 42, "velocity": 80, "note_on_time": 5.148, "note_off_time": 5.481}, {"pitch": 42, "velocity": 80, "note_on_time": 5.481, "note_off_time": 5.815}, {"pitch": 62, "velocity": 80, "note_on_time": 5.481, "note_off_time": 6.149}, {"pitch": 42, "velocity": 80, "note_on_time": 5.815, "note_off_time": 6.149}, {"pitch": 42, "velocity": 80, "note_on_time": 6.149, "note_off_time": 6.484}, {"pitch": 64, "velocity": 80, "note_on_time": 6.484, "note_off_time": 6.818}, {"pitch": 42, "velocity": 80, "note_on_time": 6.484, "note_off_time": 6.818}, {"pitch": 67, "velocity": 80, "note_on_time": 6.818, "note_off_time": 7.152}, {"pitch": 42, "velocity": 80, "note_on_time": 6.818, "note_off_time": 7.152}, {"pitch": 60, "velocity": 80, "note_on_time": 7.152, "note_off_time": 7.487}, {"pitch": 42, "velocity": 80, "note_on_time": 7.152, "note_off_time": 7.487}, {"pitch": 42, "velocity": 80, "note_on_time": 7.487, "note_off_time": 7.821}, {"pitch": 64, "velocity": 80, "note_on_time": 7.487, "note_off_time": 8.156}, {"pitch": 42, "velocity": 80, "note_on_time": 7.821, "note_off_time": 8.156}, {"pitch": 42, "velocity": 80, "note_on_time": 8.156, "note_off_time": 8.49}, {"pitch": 65, "velocity": 80, "note_on_time": 8.156, "note_off_time": 8.834}, {"pitch": 42, "velocity": 80, "note_on_time": 8.49, "note_off_time": 8.834}, {"pitch": 42, "velocity": 80, "note_on_time": 8.834, "note_off_time": 9.178}, {"pitch": 42, "velocity": 80, "note_on_time": 9.179, "note_off_time": 9.52}, {"pitch": 64, "velocity": 80, "note_on_time": 9.52, "note_off_time": 9.862}, {"pitch": 42, "velocity": 80, "note_on_time": 9.52, "note_off_time": 9.863}, {"pitch": 67, "velocity": 80, "note_on_time": 9.862, "note_off_time": 10.206}, {"pitch": 42, "velocity": 80, "note_on_time": 9.863, "note_off_time": 10.207}, {"pitch": 42, "velocity": 80, "note_on_time": 10.207, "note_off_time": 10.549}, {"pitch": 62, "velocity": 80, "note_on_time": 10.206, "note_off_time": 10.895}, {"pitch": 42, "velocity": 80, "note_on_time": 10.55, "note_off_time": 10.895}, {"pitch": 42, "velocity": 80, "note_on_time": 10.895, "note_off_time": 11.239}, {"pitch": 62, "velocity": 80, "note_on_time": 11.239, "note_off_time": 11.579}, {"pitch": 42, "velocity": 80, "note_on_time": 11.239, "note_off_time": 11.579}, {"pitch": 62, "velocity": 80, "note_on_time": 11.579, "note_off_time": 11.922}, {"pitch": 42, "velocity": 80, "note_on_time": 11.579, "note_off_time": 11.922}, {"pitch": 62, "velocity": 80, "note_on_time": 11.922, "note_off_time": 12.267}, {"pitch": 42, "velocity": 80, "note_on_time": 11.922, "note_off_time": 12.267}]</notes><options name="Option List">((4, 4), [0.5, 0.25], 3, 8, &lt;NoteRangePerHand.C_TO_G: 6&gt;, &lt;NoteRangePerHand.ONE_NOTE: 2&gt;, False, True, False, 182)</options></target_notes><trials><trial trial_no="1" timestamp="2022_12_08-11_43_07"><notes name="Played Notes">[{"pitch": 62, "velocity": 91, "note_on_time": 1.397, "note_off_time": 1.549}, {"pitch": 62, "velocity": 95, "note_on_time": 1.777, "note_off_time": 2.267}, {"pitch": 65, "velocity": 90, "note_on_time": 2.48, "note_off_time": 2.653}, {"pitch": 60, "velocity": 91, "note_on_time": 2.829, "note_off_time": 2.965}, {"pitch": 62, "velocity": 84, "note_on_time": 3.171, "note_off_time": 3.338}, {"pitch": 60, "velocity": 77, "note_on_time": 3.496, "note_off_time": 3.593}, {"pitch": 65, "velocity": 95, "note_on_time": 3.838, "note_off_time": 4.01}, {"pitch": 62, "velocity": 98, "note_on_time": 4.14, "note_off_time": 4.755}, {"pitch": 60, "velocity": 99, "note_on_time": 5.163, "note_off_time": 5.315}, {"pitch": 62, "velocity": 96, "note_on_time": 5.495, "note_off_time": 6.083}, {"pitch": 64, "velocity": 92, "note_on_time": 6.499, "note_off_time": 6.67}, {"pitch": 67, "velocity": 83, "note_on_time": 6.852, "note_off_time": 7.003}, {"pitch": 60, "velocity": 94, "note_on_time": 7.179, "note_off_time": 7.302}, {"pitch": 64, "velocity": 97, "note_on_time": 7.523, "note_off_time": 8.169}, {"pitch": 65, "velocity": 98, "note_on_time": 8.482, "note_off_time": 9.251}, {"pitch": 64, "velocity": 82, "note_on_time": 10.199, "note_off_time": 10.362}, {"pitch": 67, "velocity": 78, "note_on_time": 10.518, "note_off_time": 10.664}, {"pitch": 62, "velocity": 88, "note_on_time": 10.883, "note_off_time": 11.5}, {"pitch": 62, "velocity": 95, "note_on_time": 11.897, "note_off_time": 11.997}]</notes><guidance name="Guidance Mode">None</guidance><error name="Error value">0.2036266666666665</error></trial></trials></MIDI>