<MIDI midiNo="2022_12_08-11_47_55"><target_notes><notes name="Note List">[{"pitch": 42, "velocity": 80, "note_on_time": 0.005, "note_off_time": 0.486}, {"pitch": 42, "velocity": 80, "note_on_time": 0.486, "note_off_time": 0.969}, {"pitch": 42, "velocity": 80, "note_on_time": 0.969, "note_off_time": 1.454}, {"pitch": 42, "velocity": 80, "note_on_time": 1.455, "note_off_time": 1.937}, {"pitch": 42, "velocity": 80, "note_on_time": 1.937, "note_off_time": 2.423}, {"pitch": 67, "velocity": 80, "note_on_time": 1.936, "note_off_time": 2.909}, {"pitch": 42, "velocity": 80, "note_on_time": 2.423, "note_off_time": 2.909}, {"pitch": 42, "velocity": 80, "note_on_time": 2.909, "note_off_time": 3.393}, {"pitch": 65, "velocity": 80, "note_on_time": 2.909, "note_off_time": 3.875}, {"pitch": 42, "velocity": 80, "note_on_time": 3.393, "note_off_time": 3.876}, {"pitch": 62, "velocity": 80, "note_on_time": 3.875, "note_off_time": 4.358}, {"pitch": 42, "velocity": 80, "note_on_time": 3.876, "note_off_time": 4.359}, {"pitch": 65, "velocity": 80, "note_on_time": 4.358, "note_off_time": 4.84}, {"pitch": 42, "velocity": 80, "note_on_time": 4.359, "note_off_time": 4.84}, {"pitch": 64, "velocity": 80, "note_on_time": 4.84, "note_off_time": 5.324}, {"pitch": 42, "velocity": 80, "note_on_time": 4.84, "note_off_time": 5.324}, {"pitch": 64, "velocity": 80, "note_on_time": 5.324, "note_off_time": 5.809}, {"pitch": 42, "velocity": 80, "note_on_time": 5.324, "note_off_time": 5.809}, {"pitch": 60, "velocity": 80, "note_on_time": 5.809, "note_off_time": 6.291}, {"pitch": 42, "velocity": 80, "note_on_time": 5.81, "note_off_time": 6.291}, {"pitch": 65, "velocity": 80, "note_on_time": 6.291, "note_off_time": 6.774}, {"pitch": 42, "velocity": 80, "note_on_time": 6.291, "note_off_time": 6.774}, {"pitch": 62, "velocity": 80, "note_on_time": 6.774, "note_off_time": 7.258}, {"pitch": 42, "velocity": 80, "note_on_time": 6.774, "note_off_time": 7.258}, {"pitch": 64, "velocity": 80, "note_on_time": 7.258, "note_off_time": 7.74}, {"pitch": 42, "velocity": 80, "note_on_time": 7.258, "note_off_time": 7.741}, {"pitch": 65, "velocity": 80, "note_on_time": 7.74, "note_off_time": 8.223}, {"pitch": 42, "velocity": 80, "note_on_time": 7.742, "note_off_time": 8.224}, {"pitch": 65, "velocity": 80, "note_on_time": 8.223, "note_off_time": 8.709}, {"pitch": 42, "velocity": 80, "note_on_time": 8.224, "note_off_time": 8.709}, {"pitch": 64, "velocity": 80, "note_on_time": 8.709, "note_off_time": 9.189}, {"pitch": 42, "velocity": 80, "note_on_time": 8.709, "note_off_time": 9.19}, {"pitch": 67, "velocity": 80, "note_on_time": 9.189, "note_off_time": 9.673}, {"pitch": 42, "velocity": 80, "note_on_time": 9.19, "note_off_time": 9.674}, {"pitch": 60, "velocity": 80, "note_on_time": 9.673, "note_off_time": 10.157}, {"pitch": 42, "velocity": 80, "note_on_time": 9.674, "note_off_time": 10.158}, {"pitch": 42, "velocity": 80, "note_on_time": 10.158, "note_off_time": 10.64}, {"pitch": 65, "velocity": 80, "note_on_time": 10.64, "note_off_time": 11.122}, {"pitch": 42, "velocity": 80, "note_on_time": 10.64, "note_off_time": 11.123}, {"pitch": 65, "velocity": 80, "note_on_time": 11.122, "note_off_time": 11.61}, {"pitch": 42, "velocity": 80, "note_on_time": 11.123, "note_off_time": 11.61}, {"pitch": 62, "velocity": 80, "note_on_time": 11.61, "note_off_time": 12.093}, {"pitch": 42, "velocity": 80, "note_on_time": 11.61, "note_off_time": 12.094}, {"pitch": 67, "velocity": 80, "note_on_time": 12.093, "note_off_time": 12.581}, {"pitch": 42, "velocity": 80, "note_on_time": 12.094, "note_off_time": 12.581}, {"pitch": 42, "velocity": 80, "note_on_time": 12.581, "note_off_time": 13.067}, {"pitch": 67, "velocity": 80, "note_on_time": 12.581, "note_off_time": 13.55}, {"pitch": 42, "velocity": 80, "note_on_time": 13.067, "note_off_time": 13.55}, {"pitch": 42, "velocity": 80, "note_on_time": 13.55, "note_off_time": 14.034}, {"pitch": 64, "velocity": 80, "note_on_time": 13.55, "note_off_time": 14.516}, {"pitch": 42, "velocity": 80, "note_on_time": 14.035, "note_off_time": 14.517}, {"pitch": 64, "velocity": 80, "note_on_time": 14.516, "note_off_time": 15.001}, {"pitch": 42, "velocity": 80, "note_on_time": 14.517, "note_off_time": 15.001}, {"pitch": 64, "velocity": 80, "note_on_time": 15.001, "note_off_time": 15.484}, {"pitch": 42, "velocity": 80, "note_on_time": 15.001, "note_off_time": 15.484}, {"pitch": 42, "velocity": 80, "note_on_time": 15.485, "note_off_time": 15.972}, {"pitch": 64, "velocity": 80, "note_on_time": 15.972, "note_off_time": 16.455}, {"pitch": 42, "velocity": 80, "note_on_time": 15.973, "note_off_time": 16.455}, {"pitch": 64, "velocity": 80, "note_on_time": 16.455, "note_off_time": 16.941}, {"pitch": 42, "velocity": 80, "note_on_time": 16.456, "note_off_time": 16.941}, {"pitch": 64, "velocity": 80, "note_on_time": 16.941, "note_off_time": 17.426}, {"pitch": 42, "velocity": 80, "note_on_time": 16.942, "note_off_time": 17.427}]</notes><options name="Option List">((4, 4), [0.5, 0.25], 3, 8, &lt;NoteRangePerHand.C_TO_G: 6&gt;, &lt;NoteRangePerHand.ONE_NOTE: 2&gt;, False, True, False, '127')</options></target_notes><trials><trial trial_no="1" timestamp="2022_12_08-11_47_36"><notes name="Played Notes">[{"pitch": 67, "velocity": 84, "note_on_time": 1.973, "note_off_time": 2.689}, {"pitch": 65, "velocity": 85, "note_on_time": 2.907, "note_off_time": 3.604}, {"pitch": 62, "velocity": 82, "note_on_time": 3.855, "note_off_time": 4.239}, {"pitch": 65, "velocity": 89, "note_on_time": 4.349, "note_off_time": 4.673}, {"pitch": 64, "velocity": 93, "note_on_time": 4.843, "note_off_time": 5.054}, {"pitch": 64, "velocity": 83, "note_on_time": 5.329, "note_off_time": 5.706}, {"pitch": 60, "velocity": 87, "note_on_time": 5.821, "note_off_time": 6.088}, {"pitch": 65, "velocity": 88, "note_on_time": 6.318, "note_off_time": 6.558}, {"pitch": 62, "velocity": 87, "note_on_time": 6.786, "note_off_time": 7.064}, {"pitch": 64, "velocity": 88, "note_on_time": 7.257, "note_off_time": 7.512}, {"pitch": 65, "velocity": 90, "note_on_time": 7.724, "note_off_time": 7.919}, {"pitch": 65, "velocity": 88, "note_on_time": 8.188, "note_off_time": 8.392}, {"pitch": 64, "velocity": 83, "note_on_time": 8.692, "note_off_time": 8.89}, {"pitch": 67, "velocity": 76, "note_on_time": 9.167, "note_off_time": 9.358}, {"pitch": 60, "velocity": 89, "note_on_time": 9.658, "note_off_time": 9.841}, {"pitch": 65, "velocity": 86, "note_on_time": 10.631, "note_off_time": 10.828}, {"pitch": 65, "velocity": 87, "note_on_time": 11.117, "note_off_time": 11.282}, {"pitch": 62, "velocity": 85, "note_on_time": 11.6, "note_off_time": 11.808}, {"pitch": 67, "velocity": 82, "note_on_time": 12.055, "note_off_time": 12.273}, {"pitch": 67, "velocity": 88, "note_on_time": 12.524, "note_off_time": 13.472}, {"pitch": 64, "velocity": 98, "note_on_time": 13.534, "note_off_time": 14.403}, {"pitch": 64, "velocity": 82, "note_on_time": 14.504, "note_off_time": 14.784}, {"pitch": 64, "velocity": 99, "note_on_time": 14.993, "note_off_time": 15.145}, {"pitch": 64, "velocity": 95, "note_on_time": 15.907, "note_off_time": 16.113}, {"pitch": 64, "velocity": 98, "note_on_time": 16.375, "note_off_time": 16.537}, {"pitch": 64, "velocity": 101, "note_on_time": 16.852, "note_off_time": 17.109}]</notes><guidance name="Guidance Mode">None</guidance><error name="Error value">0.01769739130434781</error></trial><trial trial_no="2" timestamp="2022_12_08-11_48_02"><notes name="Played Notes">[{"pitch": 67, "velocity": 83, "note_on_time": 1.939, "note_off_time": 2.921}, {"pitch": 65, "velocity": 93, "note_on_time": 2.89, "note_off_time": 3.729}, {"pitch": 62, "velocity": 85, "note_on_time": 3.881, "note_off_time": 4.346}, {"pitch": 65, "velocity": 79, "note_on_time": 4.36, "note_off_time": 4.755}, {"pitch": 64, "velocity": 91, "note_on_time": 4.863, "note_off_time": 5.02}, {"pitch": 64, "velocity": 85, "note_on_time": 5.345, "note_off_time": 5.759}, {"pitch": 60, "velocity": 88, "note_on_time": 5.825, "note_off_time": 6.143}, {"pitch": 65, "velocity": 81, "note_on_time": 6.3, "note_off_time": 6.587}, {"pitch": 62, "velocity": 84, "note_on_time": 6.785, "note_off_time": 7.068}, {"pitch": 64, "velocity": 87, "note_on_time": 7.269, "note_off_time": 7.545}, {"pitch": 65, "velocity": 89, "note_on_time": 7.731, "note_off_time": 7.935}, {"pitch": 65, "velocity": 75, "note_on_time": 8.209, "note_off_time": 8.433}, {"pitch": 64, "velocity": 73, "note_on_time": 8.671, "note_off_time": 8.922}, {"pitch": 67, "velocity": 79, "note_on_time": 9.133, "note_off_time": 9.349}, {"pitch": 60, "velocity": 92, "note_on_time": 9.63, "note_off_time": 10.044}, {"pitch": 65, "velocity": 82, "note_on_time": 10.61, "note_off_time": 10.818}, {"pitch": 65, "velocity": 75, "note_on_time": 11.098, "note_off_time": 11.279}, {"pitch": 62, "velocity": 87, "note_on_time": 11.566, "note_off_time": 11.837}, {"pitch": 67, "velocity": 79, "note_on_time": 12.025, "note_off_time": 12.212}, {"pitch": 67, "velocity": 78, "note_on_time": 12.539, "note_off_time": 13.329}, {"pitch": 64, "velocity": 78, "note_on_time": 13.497, "note_off_time": 14.291}, {"pitch": 64, "velocity": 90, "note_on_time": 14.477, "note_off_time": 14.711}, {"pitch": 64, "velocity": 94, "note_on_time": 14.923, "note_off_time": 15.057}, {"pitch": 64, "velocity": 84, "note_on_time": 15.896, "note_off_time": 16.056}, {"pitch": 64, "velocity": 81, "note_on_time": 16.365, "note_off_time": 16.52}, {"pitch": 64, "velocity": 94, "note_on_time": 16.823, "note_off_time": 17.009}]</notes><guidance name="Guidance Mode">None</guidance><error name="Error value">0.01849565217391315</error></trial><trial trial_no="3" timestamp="2022_12_08-11_48_28"><notes name="Played Notes">[{"pitch": 67, "velocity": 78, "note_on_time": 1.922, "note_off_time": 2.888}, {"pitch": 64, "velocity": 85, "note_on_time": 2.919, "note_off_time": 3.903}, {"pitch": 62, "velocity": 70, "note_on_time": 3.92, "note_off_time": 4.331}, {"pitch": 65, "velocity": 73, "note_on_time": 4.367, "note_off_time": 4.808}, {"pitch": 64, "velocity": 84, "note_on_time": 4.857, "note_off_time": 4.954}, {"pitch": 64, "velocity": 81, "note_on_time": 5.314, "note_off_time": 5.76}, {"pitch": 60, "velocity": 77, "note_on_time": 5.827, "note_off_time": 6.243}, {"pitch": 65, "velocity": 78, "note_on_time": 6.292, "note_off_time": 6.726}, {"pitch": 62, "velocity": 83, "note_on_time": 6.782, "note_off_time": 7.199}, {"pitch": 64, "velocity": 76, "note_on_time": 7.253, "note_off_time": 7.754}, {"pitch": 65, "velocity": 89, "note_on_time": 7.729, "note_off_time": 7.848}, {"pitch": 65, "velocity": 76, "note_on_time": 8.21, "note_off_time": 8.544}, {"pitch": 64, "velocity": 71, "note_on_time": 8.7, "note_off_time": 9.131}, {"pitch": 67, "velocity": 72, "note_on_time": 9.178, "note_off_time": 9.458}, {"pitch": 60, "velocity": 88, "note_on_time": 9.662, "note_off_time": 10.165}, {"pitch": 65, "velocity": 84, "note_on_time": 10.624, "note_off_time": 10.799}, {"pitch": 65, "velocity": 71, "note_on_time": 11.08, "note_off_time": 11.264}, {"pitch": 62, "velocity": 81, "note_on_time": 11.574, "note_off_time": 11.884}, {"pitch": 67, "velocity": 79, "note_on_time": 12.032, "note_off_time": 12.236}, {"pitch": 67, "velocity": 79, "note_on_time": 12.522, "note_off_time": 13.481}, {"pitch": 64, "velocity": 90, "note_on_time": 13.527, "note_off_time": 14.342}, {"pitch": 64, "velocity": 84, "note_on_time": 14.525, "note_off_time": 14.732}, {"pitch": 64, "velocity": 87, "note_on_time": 14.997, "note_off_time": 15.252}, {"pitch": 64, "velocity": 77, "note_on_time": 15.934, "note_off_time": 16.053}, {"pitch": 64, "velocity": 81, "note_on_time": 16.417, "note_off_time": 16.533}, {"pitch": 64, "velocity": 95, "note_on_time": 16.873, "note_off_time": 16.984}]</notes><guidance name="Guidance Mode">None</guidance><error name="Error value">0.06592000000000019</error></trial><trial trial_no="4" timestamp="2022_12_08-11_48_55"><notes name="Played Notes">[{"pitch": 67, "velocity": 82, "note_on_time": 1.92, "note_off_time": 2.794}, {"pitch": 65, "velocity": 81, "note_on_time": 2.912, "note_off_time": 3.876}, {"pitch": 62, "velocity": 77, "note_on_time": 3.917, "note_off_time": 4.36}, {"pitch": 65, "velocity": 77, "note_on_time": 4.378, "note_off_time": 4.87}, {"pitch": 64, "velocity": 84, "note_on_time": 4.886, "note_off_time": 4.995}, {"pitch": 64, "velocity": 69, "note_on_time": 5.344, "note_off_time": 5.75}, {"pitch": 60, "velocity": 74, "note_on_time": 5.845, "note_off_time": 6.132}, {"pitch": 65, "velocity": 74, "note_on_time": 6.292, "note_off_time": 6.601}, {"pitch": 64, "velocity": 78, "note_on_time": 6.796, "note_off_time": 7.098}, {"pitch": 62, "velocity": 55, "note_on_time": 7.235, "note_off_time": 7.342}, {"pitch": 64, "velocity": 58, "note_on_time": 7.498, "note_off_time": 7.57}, {"pitch": 65, "velocity": 83, "note_on_time": 7.809, "note_off_time": 7.993}, {"pitch": 65, "velocity": 80, "note_on_time": 8.208, "note_off_time": 8.342}, {"pitch": 64, "velocity": 76, "note_on_time": 8.64, "note_off_time": 8.842}, {"pitch": 67, "velocity": 69, "note_on_time": 9.131, "note_off_time": 9.3}, {"pitch": 60, "velocity": 87, "note_on_time": 9.614, "note_off_time": 9.755}, {"pitch": 65, "velocity": 82, "note_on_time": 10.594, "note_off_time": 10.765}, {"pitch": 65, "velocity": 74, "note_on_time": 11.102, "note_off_time": 11.331}, {"pitch": 62, "velocity": 76, "note_on_time": 11.632, "note_off_time": 11.9}, {"pitch": 67, "velocity": 76, "note_on_time": 12.058, "note_off_time": 12.238}, {"pitch": 67, "velocity": 75, "note_on_time": 12.557, "note_off_time": 13.471}, {"pitch": 64, "velocity": 88, "note_on_time": 13.538, "note_off_time": 14.354}, {"pitch": 64, "velocity": 94, "note_on_time": 14.508, "note_off_time": 14.774}, {"pitch": 64, "velocity": 92, "note_on_time": 14.98, "note_off_time": 15.291}, {"pitch": 64, "velocity": 94, "note_on_time": 15.933, "note_off_time": 16.03}, {"pitch": 64, "velocity": 92, "note_on_time": 16.375, "note_off_time": 16.513}, {"pitch": 64, "velocity": 92, "note_on_time": 16.834, "note_off_time": 17.216}]</notes><guidance name="Guidance Mode">None</guidance><error name="Error value">0.2419199999999989</error></trial><trial trial_no="5" timestamp="2022_12_08-11_49_21"><notes name="Played Notes">[{"pitch": 67, "velocity": 78, "note_on_time": 1.981, "note_off_time": 2.837}, {"pitch": 65, "velocity": 83, "note_on_time": 2.905, "note_off_time": 3.689}, {"pitch": 62, "velocity": 66, "note_on_time": 3.839, "note_off_time": 4.311}, {"pitch": 65, "velocity": 69, "note_on_time": 4.331, "note_off_time": 4.825}, {"pitch": 64, "velocity": 75, "note_on_time": 4.864, "note_off_time": 4.996}, {"pitch": 64, "velocity": 68, "note_on_time": 5.302, "note_off_time": 5.694}, {"pitch": 60, "velocity": 71, "note_on_time": 5.81, "note_off_time": 6.128}, {"pitch": 65, "velocity": 64, "note_on_time": 6.282, "note_off_time": 6.667}, {"pitch": 62, "velocity": 68, "note_on_time": 6.795, "note_off_time": 7.113}, {"pitch": 64, "velocity": 77, "note_on_time": 7.247, "note_off_time": 7.549}, {"pitch": 65, "velocity": 81, "note_on_time": 7.738, "note_off_time": 7.904}, {"pitch": 65, "velocity": 66, "note_on_time": 8.187, "note_off_time": 8.388}, {"pitch": 64, "velocity": 68, "note_on_time": 8.651, "note_off_time": 8.814}, {"pitch": 67, "velocity": 70, "note_on_time": 9.126, "note_off_time": 9.332}, {"pitch": 60, "velocity": 84, "note_on_time": 9.616, "note_off_time": 9.962}, {"pitch": 65, "velocity": 77, "note_on_time": 10.605, "note_off_time": 10.778}, {"pitch": 65, "velocity": 72, "note_on_time": 11.074, "note_off_time": 11.319}, {"pitch": 62, "velocity": 66, "note_on_time": 11.56, "note_off_time": 11.87}, {"pitch": 67, "velocity": 73, "note_on_time": 12.042, "note_off_time": 12.216}, {"pitch": 67, "velocity": 82, "note_on_time": 12.521, "note_off_time": 13.43}, {"pitch": 64, "velocity": 79, "note_on_time": 13.52, "note_off_time": 14.35}, {"pitch": 64, "velocity": 89, "note_on_time": 14.503, "note_off_time": 14.777}, {"pitch": 64, "velocity": 87, "note_on_time": 14.962, "note_off_time": 15.16}, {"pitch": 64, "velocity": 77, "note_on_time": 15.879, "note_off_time": 16.079}, {"pitch": 64, "velocity": 74, "note_on_time": 16.367, "note_off_time": 16.525}, {"pitch": 64, "velocity": 83, "note_on_time": 16.872, "note_off_time": 17.098}]</notes><guidance name="Guidance Mode">None</guidance><error name="Error value">0.024904347826087237</error></trial></trials></MIDI>