<MIDI midiNo="2022_11_14-18_27_09"><target_notes><notes name="Note List">[{"pitch": 42, "velocity": 80, "note_on_time": 0.005, "note_off_time": 0.268}, {"pitch": 42, "velocity": 80, "note_on_time": 0.268, "note_off_time": 0.533}, {"pitch": 42, "velocity": 80, "note_on_time": 0.534, "note_off_time": 0.798}, {"pitch": 42, "velocity": 80, "note_on_time": 0.798, "note_off_time": 1.062}, {"pitch": 65, "velocity": 80, "note_on_time": 1.062, "note_off_time": 1.328}, {"pitch": 42, "velocity": 80, "note_on_time": 1.062, "note_off_time": 1.328}, {"pitch": 64, "velocity": 80, "note_on_time": 1.328, "note_off_time": 1.593}, {"pitch": 42, "velocity": 80, "note_on_time": 1.328, "note_off_time": 1.594}, {"pitch": 62, "velocity": 80, "note_on_time": 1.593, "note_off_time": 1.858}, {"pitch": 42, "velocity": 80, "note_on_time": 1.594, "note_off_time": 1.858}, {"pitch": 62, "velocity": 80, "note_on_time": 1.858, "note_off_time": 2.124}, {"pitch": 42, "velocity": 80, "note_on_time": 1.858, "note_off_time": 2.124}, {"pitch": 42, "velocity": 80, "note_on_time": 2.124, "note_off_time": 2.387}, {"pitch": 60, "velocity": 80, "note_on_time": 2.124, "note_off_time": 2.655}, {"pitch": 42, "velocity": 80, "note_on_time": 2.388, "note_off_time": 2.655}, {"pitch": 42, "velocity": 80, "note_on_time": 2.655, "note_off_time": 2.921}, {"pitch": 60, "velocity": 80, "note_on_time": 2.655, "note_off_time": 3.186}, {"pitch": 42, "velocity": 80, "note_on_time": 2.921, "note_off_time": 3.187}, {"pitch": 62, "velocity": 80, "note_on_time": 3.186, "note_off_time": 3.45}, {"pitch": 42, "velocity": 80, "note_on_time": 3.187, "note_off_time": 3.45}, {"pitch": 42, "velocity": 80, "note_on_time": 3.451, "note_off_time": 3.714}, {"pitch": 64, "velocity": 80, "note_on_time": 3.45, "note_off_time": 3.978}, {"pitch": 42, "velocity": 80, "note_on_time": 3.714, "note_off_time": 3.978}, {"pitch": 42, "velocity": 80, "note_on_time": 3.979, "note_off_time": 4.243}, {"pitch": 60, "velocity": 80, "note_on_time": 4.243, "note_off_time": 4.508}, {"pitch": 42, "velocity": 80, "note_on_time": 4.243, "note_off_time": 4.508}, {"pitch": 65, "velocity": 80, "note_on_time": 4.508, "note_off_time": 4.772}, {"pitch": 42, "velocity": 80, "note_on_time": 4.508, "note_off_time": 4.772}, {"pitch": 64, "velocity": 80, "note_on_time": 4.772, "note_off_time": 5.038}, {"pitch": 42, "velocity": 80, "note_on_time": 4.772, "note_off_time": 5.038}, {"pitch": 60, "velocity": 80, "note_on_time": 5.038, "note_off_time": 5.302}, {"pitch": 42, "velocity": 80, "note_on_time": 5.038, "note_off_time": 5.302}, {"pitch": 65, "velocity": 80, "note_on_time": 5.302, "note_off_time": 5.567}, {"pitch": 42, "velocity": 80, "note_on_time": 5.302, "note_off_time": 5.567}, {"pitch": 64, "velocity": 80, "note_on_time": 5.567, "note_off_time": 5.831}, {"pitch": 42, "velocity": 80, "note_on_time": 5.568, "note_off_time": 5.831}, {"pitch": 42, "velocity": 80, "note_on_time": 5.832, "note_off_time": 6.097}, {"pitch": 65, "velocity": 80, "note_on_time": 6.097, "note_off_time": 6.362}, {"pitch": 42, "velocity": 80, "note_on_time": 6.097, "note_off_time": 6.362}, {"pitch": 62, "velocity": 80, "note_on_time": 6.362, "note_off_time": 6.625}, {"pitch": 42, "velocity": 80, "note_on_time": 6.362, "note_off_time": 6.625}, {"pitch": 62, "velocity": 80, "note_on_time": 6.625, "note_off_time": 6.892}, {"pitch": 42, "velocity": 80, "note_on_time": 6.626, "note_off_time": 6.892}, {"pitch": 65, "velocity": 80, "note_on_time": 6.892, "note_off_time": 7.157}, {"pitch": 42, "velocity": 80, "note_on_time": 6.892, "note_off_time": 7.157}, {"pitch": 65, "velocity": 80, "note_on_time": 7.157, "note_off_time": 7.421}, {"pitch": 42, "velocity": 80, "note_on_time": 7.157, "note_off_time": 7.422}, {"pitch": 60, "velocity": 80, "note_on_time": 7.421, "note_off_time": 7.687}, {"pitch": 42, "velocity": 80, "note_on_time": 7.422, "note_off_time": 7.687}, {"pitch": 65, "velocity": 80, "note_on_time": 7.687, "note_off_time": 7.951}, {"pitch": 42, "velocity": 80, "note_on_time": 7.687, "note_off_time": 7.951}, {"pitch": 64, "velocity": 80, "note_on_time": 7.951, "note_off_time": 8.216}, {"pitch": 42, "velocity": 80, "note_on_time": 7.952, "note_off_time": 8.216}, {"pitch": 62, "velocity": 80, "note_on_time": 8.216, "note_off_time": 8.481}, {"pitch": 42, "velocity": 80, "note_on_time": 8.216, "note_off_time": 8.481}, {"pitch": 42, "velocity": 80, "note_on_time": 8.481, "note_off_time": 8.743}, {"pitch": 62, "velocity": 80, "note_on_time": 8.743, "note_off_time": 9.009}, {"pitch": 42, "velocity": 80, "note_on_time": 8.744, "note_off_time": 9.009}, {"pitch": 62, "velocity": 80, "note_on_time": 9.009, "note_off_time": 9.275}, {"pitch": 42, "velocity": 80, "note_on_time": 9.009, "note_off_time": 9.275}, {"pitch": 62, "velocity": 80, "note_on_time": 9.275, "note_off_time": 9.538}, {"pitch": 42, "velocity": 80, "note_on_time": 9.276, "note_off_time": 9.538}]</notes><options name="Option List">((4, 4), [0.5, 0.25], 3, 8, &lt;NoteRangePerHand.FOUR_NOTES: 5&gt;, &lt;NoteRangePerHand.ONE_NOTE: 2&gt;, False, True, False, '232')</options></target_notes><trials><trial trial_no="1" timestamp="2022_11_14-18_26_58"><notes name="Played Notes">[{"pitch": 65, "velocity": 80, "note_on_time": 1.089, "note_off_time": 1.4}, {"pitch": 64, "velocity": 74, "note_on_time": 1.335, "note_off_time": 1.658}, {"pitch": 62, "velocity": 81, "note_on_time": 1.621, "note_off_time": 1.732}, {"pitch": 62, "velocity": 82, "note_on_time": 1.899, "note_off_time": 2.217}, {"pitch": 60, "velocity": 90, "note_on_time": 2.184, "note_off_time": 2.496}, {"pitch": 60, "velocity": 91, "note_on_time": 2.681, "note_off_time": 3.071}, {"pitch": 62, "velocity": 75, "note_on_time": 3.215, "note_off_time": 3.516}, {"pitch": 64, "velocity": 79, "note_on_time": 3.489, "note_off_time": 3.978}, {"pitch": 60, "velocity": 89, "note_on_time": 4.216, "note_off_time": 4.44}, {"pitch": 65, "velocity": 78, "note_on_time": 4.466, "note_off_time": 4.765}, {"pitch": 64, "velocity": 79, "note_on_time": 4.756, "note_off_time": 5.135}, {"pitch": 60, "velocity": 84, "note_on_time": 5.167, "note_off_time": 5.425}, {"pitch": 65, "velocity": 75, "note_on_time": 5.441, "note_off_time": 5.778}, {"pitch": 64, "velocity": 81, "note_on_time": 5.731, "note_off_time": 5.956}, {"pitch": 64, "velocity": 70, "note_on_time": 6.32, "note_off_time": 6.407}, {"pitch": 65, "velocity": 39, "note_on_time": 6.454, "note_off_time": 6.872}, {"pitch": 62, "velocity": 77, "note_on_time": 6.886, "note_off_time": 7.212}, {"pitch": 65, "velocity": 82, "note_on_time": 7.225, "note_off_time": 7.395}, {"pitch": 65, "velocity": 73, "note_on_time": 7.942, "note_off_time": 8.223}, {"pitch": 60, "velocity": 83, "note_on_time": 8.276, "note_off_time": 8.556}, {"pitch": 65, "velocity": 81, "note_on_time": 8.56, "note_off_time": 8.855}, {"pitch": 64, "velocity": 82, "note_on_time": 8.837, "note_off_time": 9.198}, {"pitch": 62, "velocity": 81, "note_on_time": 9.163, "note_off_time": 9.41}]</notes><guidance name="Guidance Mode">None</guidance><error name="Error value">0.4374139130434784</error></trial><trial trial_no="2" timestamp="2022_11_14-18_27_27"><notes name="Played Notes">[{"pitch": 65, "velocity": 66, "note_on_time": 1.094, "note_off_time": 1.419}, {"pitch": 64, "velocity": 76, "note_on_time": 1.362, "note_off_time": 1.684}, {"pitch": 62, "velocity": 75, "note_on_time": 1.635, "note_off_time": 1.737}, {"pitch": 62, "velocity": 84, "note_on_time": 1.901, "note_off_time": 2.223}, {"pitch": 60, "velocity": 86, "note_on_time": 2.182, "note_off_time": 2.52}, {"pitch": 60, "velocity": 95, "note_on_time": 2.667, "note_off_time": 3.024}, {"pitch": 62, "velocity": 80, "note_on_time": 3.165, "note_off_time": 3.449}, {"pitch": 64, "velocity": 85, "note_on_time": 3.422, "note_off_time": 3.788}, {"pitch": 60, "velocity": 84, "note_on_time": 4.22, "note_off_time": 4.45}, {"pitch": 65, "velocity": 80, "note_on_time": 4.447, "note_off_time": 4.769}, {"pitch": 64, "velocity": 79, "note_on_time": 4.722, "note_off_time": 5.01}, {"pitch": 60, "velocity": 82, "note_on_time": 5.011, "note_off_time": 5.303}, {"pitch": 65, "velocity": 85, "note_on_time": 5.295, "note_off_time": 5.631}, {"pitch": 64, "velocity": 85, "note_on_time": 5.577, "note_off_time": 5.78}, {"pitch": 65, "velocity": 83, "note_on_time": 6.111, "note_off_time": 6.446}, {"pitch": 62, "velocity": 85, "note_on_time": 6.434, "note_off_time": 6.558}, {"pitch": 62, "velocity": 74, "note_on_time": 6.698, "note_off_time": 6.961}, {"pitch": 65, "velocity": 77, "note_on_time": 6.96, "note_off_time": 7.107}, {"pitch": 65, "velocity": 69, "note_on_time": 7.238, "note_off_time": 7.545}, {"pitch": 60, "velocity": 87, "note_on_time": 7.505, "note_off_time": 7.84}, {"pitch": 65, "velocity": 74, "note_on_time": 7.791, "note_off_time": 8.093}, {"pitch": 64, "velocity": 84, "note_on_time": 8.056, "note_off_time": 8.384}, {"pitch": 62, "velocity": 83, "note_on_time": 8.344, "note_off_time": 8.525}, {"pitch": 62, "velocity": 89, "note_on_time": 8.764, "note_off_time": 8.887}, {"pitch": 62, "velocity": 72, "note_on_time": 9.011, "note_off_time": 9.124}, {"pitch": 62, "velocity": 83, "note_on_time": 9.27, "note_off_time": 9.524}]</notes><guidance name="Guidance Mode">None</guidance><error name="Error value">0.02373652173913061</error></trial><trial trial_no="3" timestamp="2022_11_14-18_27_49"><notes name="Played Notes">[{"pitch": 65, "velocity": 78, "note_on_time": 1.075, "note_off_time": 1.405}, {"pitch": 64, "velocity": 82, "note_on_time": 1.348, "note_off_time": 1.659}, {"pitch": 62, "velocity": 83, "note_on_time": 1.611, "note_off_time": 1.716}, {"pitch": 62, "velocity": 85, "note_on_time": 1.875, "note_off_time": 2.168}, {"pitch": 60, "velocity": 94, "note_on_time": 2.144, "note_off_time": 2.446}, {"pitch": 60, "velocity": 97, "note_on_time": 2.65, "note_off_time": 3.135}, {"pitch": 62, "velocity": 83, "note_on_time": 3.13, "note_off_time": 3.451}, {"pitch": 64, "velocity": 92, "note_on_time": 3.415, "note_off_time": 3.8}, {"pitch": 60, "velocity": 77, "note_on_time": 4.06, "note_off_time": 4.337}, {"pitch": 65, "velocity": 85, "note_on_time": 4.337, "note_off_time": 4.652}, {"pitch": 64, "velocity": 79, "note_on_time": 4.601, "note_off_time": 4.903}, {"pitch": 60, "velocity": 85, "note_on_time": 4.877, "note_off_time": 5.137}, {"pitch": 65, "velocity": 83, "note_on_time": 5.147, "note_off_time": 5.484}, {"pitch": 64, "velocity": 80, "note_on_time": 5.433, "note_off_time": 5.754}, {"pitch": 65, "velocity": 83, "note_on_time": 6.023, "note_off_time": 6.331}, {"pitch": 62, "velocity": 82, "note_on_time": 6.316, "note_off_time": 6.441}, {"pitch": 62, "velocity": 79, "note_on_time": 6.611, "note_off_time": 6.939}, {"pitch": 65, "velocity": 86, "note_on_time": 6.907, "note_off_time": 7.04}, {"pitch": 65, "velocity": 70, "note_on_time": 7.202, "note_off_time": 7.492}, {"pitch": 60, "velocity": 87, "note_on_time": 7.488, "note_off_time": 7.76}, {"pitch": 65, "velocity": 80, "note_on_time": 7.76, "note_off_time": 8.048}, {"pitch": 64, "velocity": 81, "note_on_time": 8.033, "note_off_time": 8.379}, {"pitch": 62, "velocity": 81, "note_on_time": 8.34, "note_off_time": 8.586}, {"pitch": 62, "velocity": 84, "note_on_time": 8.835, "note_off_time": 8.954}, {"pitch": 62, "velocity": 84, "note_on_time": 9.114, "note_off_time": 9.212}]</notes><guidance name="Guidance Mode">None</guidance><error name="Error value">0.08444260869565237</error></trial></trials></MIDI>