<MIDI midiNo="2022_12_22-11_16_01"><target_notes><notes name="Note List">[{"pitch": 42, "velocity": 80, "note_on_time": 0.004, "note_off_time": 0.742}, {"pitch": 42, "velocity": 80, "note_on_time": 0.742, "note_off_time": 1.474}, {"pitch": 42, "velocity": 80, "note_on_time": 1.474, "note_off_time": 2.204}, {"pitch": 42, "velocity": 80, "note_on_time": 2.205, "note_off_time": 2.939}, {"pitch": 60, "velocity": 80, "note_on_time": 2.939, "note_off_time": 3.672}, {"pitch": 42, "velocity": 80, "note_on_time": 2.94, "note_off_time": 3.673}, {"pitch": 42, "velocity": 80, "note_on_time": 3.673, "note_off_time": 4.404}, {"pitch": 60, "velocity": 80, "note_on_time": 3.672, "note_off_time": 5.137}, {"pitch": 42, "velocity": 80, "note_on_time": 4.404, "note_off_time": 5.137}, {"pitch": 42, "velocity": 80, "note_on_time": 5.137, "note_off_time": 5.866}, {"pitch": 64, "velocity": 80, "note_on_time": 5.866, "note_off_time": 6.596}, {"pitch": 42, "velocity": 80, "note_on_time": 5.866, "note_off_time": 6.596}, {"pitch": 42, "velocity": 80, "note_on_time": 6.597, "note_off_time": 7.324}, {"pitch": 62, "velocity": 80, "note_on_time": 7.324, "note_off_time": 8.05}, {"pitch": 42, "velocity": 80, "note_on_time": 7.324, "note_off_time": 8.051}, {"pitch": 64, "velocity": 80, "note_on_time": 8.05, "note_off_time": 8.778}, {"pitch": 42, "velocity": 80, "note_on_time": 8.051, "note_off_time": 8.778}, {"pitch": 62, "velocity": 80, "note_on_time": 8.778, "note_off_time": 9.506}, {"pitch": 42, "velocity": 80, "note_on_time": 8.778, "note_off_time": 9.506}, {"pitch": 42, "velocity": 80, "note_on_time": 9.507, "note_off_time": 10.239}, {"pitch": 64, "velocity": 80, "note_on_time": 10.239, "note_off_time": 10.971}, {"pitch": 42, "velocity": 80, "note_on_time": 10.24, "note_off_time": 10.971}, {"pitch": 62, "velocity": 80, "note_on_time": 10.971, "note_off_time": 11.703}, {"pitch": 42, "velocity": 80, "note_on_time": 10.971, "note_off_time": 11.704}, {"pitch": 62, "velocity": 80, "note_on_time": 11.703, "note_off_time": 12.437}, {"pitch": 42, "velocity": 80, "note_on_time": 11.704, "note_off_time": 12.437}, {"pitch": 60, "velocity": 80, "note_on_time": 12.437, "note_off_time": 13.17}, {"pitch": 42, "velocity": 80, "note_on_time": 12.437, "note_off_time": 13.17}, {"pitch": 62, "velocity": 80, "note_on_time": 13.17, "note_off_time": 13.903}, {"pitch": 42, "velocity": 80, "note_on_time": 13.171, "note_off_time": 13.904}, {"pitch": 60, "velocity": 80, "note_on_time": 13.903, "note_off_time": 14.638}, {"pitch": 42, "velocity": 80, "note_on_time": 13.904, "note_off_time": 14.639}, {"pitch": 62, "velocity": 80, "note_on_time": 14.638, "note_off_time": 15.369}, {"pitch": 42, "velocity": 80, "note_on_time": 14.639, "note_off_time": 15.369}, {"pitch": 64, "velocity": 80, "note_on_time": 15.369, "note_off_time": 16.1}, {"pitch": 42, "velocity": 80, "note_on_time": 15.37, "note_off_time": 16.1}, {"pitch": 64, "velocity": 80, "note_on_time": 16.1, "note_off_time": 16.831}, {"pitch": 42, "velocity": 80, "note_on_time": 16.101, "note_off_time": 16.831}, {"pitch": 62, "velocity": 80, "note_on_time": 16.831, "note_off_time": 17.563}, {"pitch": 42, "velocity": 80, "note_on_time": 16.832, "note_off_time": 17.563}, {"pitch": 64, "velocity": 80, "note_on_time": 17.563, "note_off_time": 18.297}, {"pitch": 42, "velocity": 80, "note_on_time": 17.563, "note_off_time": 18.298}, {"pitch": 42, "velocity": 80, "note_on_time": 18.298, "note_off_time": 19.03}, {"pitch": 42, "velocity": 80, "note_on_time": 19.03, "note_off_time": 19.761}, {"pitch": 60, "velocity": 80, "note_on_time": 19.029, "note_off_time": 20.496}, {"pitch": 42, "velocity": 80, "note_on_time": 19.761, "note_off_time": 20.496}, {"pitch": 62, "velocity": 80, "note_on_time": 20.496, "note_off_time": 21.231}, {"pitch": 42, "velocity": 80, "note_on_time": 20.496, "note_off_time": 21.231}, {"pitch": 64, "velocity": 80, "note_on_time": 21.231, "note_off_time": 21.964}, {"pitch": 42, "velocity": 80, "note_on_time": 21.231, "note_off_time": 21.964}, {"pitch": 62, "velocity": 80, "note_on_time": 21.964, "note_off_time": 22.695}, {"pitch": 42, "velocity": 80, "note_on_time": 21.964, "note_off_time": 22.696}, {"pitch": 64, "velocity": 80, "note_on_time": 22.695, "note_off_time": 23.43}, {"pitch": 42, "velocity": 80, "note_on_time": 22.696, "note_off_time": 23.43}, {"pitch": 42, "velocity": 80, "note_on_time": 23.431, "note_off_time": 24.165}, {"pitch": 64, "velocity": 80, "note_on_time": 24.165, "note_off_time": 24.897}, {"pitch": 42, "velocity": 80, "note_on_time": 24.165, "note_off_time": 24.897}, {"pitch": 64, "velocity": 80, "note_on_time": 24.897, "note_off_time": 25.631}, {"pitch": 42, "velocity": 80, "note_on_time": 24.898, "note_off_time": 25.631}, {"pitch": 64, "velocity": 80, "note_on_time": 25.631, "note_off_time": 26.364}, {"pitch": 42, "velocity": 80, "note_on_time": 25.631, "note_off_time": 26.364}]</notes><options name="Option List">((4, 4), [0.5, 0.25], 3, 8, &lt;NoteRangePerHand.THREE_NOTES: 4&gt;, &lt;NoteRangePerHand.ONE_NOTE: 2&gt;, False, True, False, 83)</options></target_notes><trials><trial trial_no="1" timestamp="2022_12_22-11_15_33"><notes name="Played Notes">[{"pitch": 60, "velocity": 64, "note_on_time": 2.899, "note_off_time": 3.265}, {"pitch": 60, "velocity": 67, "note_on_time": 3.637, "note_off_time": 4.584}, {"pitch": 64, "velocity": 34, "note_on_time": 5.892, "note_off_time": 6.279}, {"pitch": 62, "velocity": 60, "note_on_time": 7.252, "note_off_time": 7.61}, {"pitch": 64, "velocity": 54, "note_on_time": 7.984, "note_off_time": 8.293}, {"pitch": 62, "velocity": 54, "note_on_time": 8.715, "note_off_time": 8.986}, {"pitch": 64, "velocity": 51, "note_on_time": 10.189, "note_off_time": 10.546}, {"pitch": 62, "velocity": 58, "note_on_time": 10.955, "note_off_time": 11.231}, {"pitch": 62, "velocity": 53, "note_on_time": 11.67, "note_off_time": 11.905}, {"pitch": 60, "velocity": 60, "note_on_time": 12.441, "note_off_time": 12.747}, {"pitch": 62, "velocity": 55, "note_on_time": 13.151, "note_off_time": 13.42}, {"pitch": 60, "velocity": 49, "note_on_time": 13.846, "note_off_time": 14.126}, {"pitch": 62, "velocity": 54, "note_on_time": 14.574, "note_off_time": 14.883}, {"pitch": 64, "velocity": 52, "note_on_time": 15.305, "note_off_time": 15.606}, {"pitch": 64, "velocity": 51, "note_on_time": 16.041, "note_off_time": 16.382}, {"pitch": 62, "velocity": 48, "note_on_time": 16.83, "note_off_time": 17.105}, {"pitch": 64, "velocity": 44, "note_on_time": 17.56, "note_off_time": 17.783}, {"pitch": 60, "velocity": 33, "note_on_time": 19.025, "note_off_time": 19.369}, {"pitch": 62, "velocity": 49, "note_on_time": 21.154, "note_off_time": 21.456}, {"pitch": 64, "velocity": 57, "note_on_time": 21.862, "note_off_time": 22.23}, {"pitch": 62, "velocity": 52, "note_on_time": 22.642, "note_off_time": 22.965}, {"pitch": 64, "velocity": 61, "note_on_time": 23.344, "note_off_time": 23.621}, {"pitch": 64, "velocity": 53, "note_on_time": 24.837, "note_off_time": 25.142}, {"pitch": 64, "velocity": 59, "note_on_time": 25.55, "note_off_time": 25.815}]</notes><guidance name="Guidance Mode">None</guidance><error name="Error value">0.13851895454545443</error></trial><trial trial_no="2" timestamp="2022_12_22-11_16_10"><notes name="Played Notes">[{"pitch": 60, "velocity": 9, "note_on_time": 2.85, "note_off_time": 3.27}, {"pitch": 60, "velocity": 64, "note_on_time": 3.596, "note_off_time": 4.698}, {"pitch": 64, "velocity": 56, "note_on_time": 5.816, "note_off_time": 6.154}, {"pitch": 62, "velocity": 54, "note_on_time": 7.314, "note_off_time": 7.618}, {"pitch": 64, "velocity": 58, "note_on_time": 8.01, "note_off_time": 8.392}, {"pitch": 62, "velocity": 54, "note_on_time": 8.726, "note_off_time": 9.018}, {"pitch": 64, "velocity": 51, "note_on_time": 10.209, "note_off_time": 10.589}, {"pitch": 62, "velocity": 59, "note_on_time": 10.937, "note_off_time": 11.247}, {"pitch": 62, "velocity": 59, "note_on_time": 11.618, "note_off_time": 11.921}, {"pitch": 60, "velocity": 55, "note_on_time": 12.389, "note_off_time": 12.802}, {"pitch": 62, "velocity": 48, "note_on_time": 13.135, "note_off_time": 13.467}, {"pitch": 60, "velocity": 52, "note_on_time": 13.833, "note_off_time": 14.193}, {"pitch": 62, "velocity": 60, "note_on_time": 14.593, "note_off_time": 14.94}, {"pitch": 64, "velocity": 58, "note_on_time": 15.313, "note_off_time": 15.684}, {"pitch": 64, "velocity": 62, "note_on_time": 16.039, "note_off_time": 16.39}, {"pitch": 62, "velocity": 54, "note_on_time": 16.79, "note_off_time": 17.099}, {"pitch": 64, "velocity": 57, "note_on_time": 17.515, "note_off_time": 17.846}, {"pitch": 60, "velocity": 74, "note_on_time": 19.012, "note_off_time": 19.903}, {"pitch": 62, "velocity": 60, "note_on_time": 21.17, "note_off_time": 21.55}, {"pitch": 64, "velocity": 53, "note_on_time": 21.91, "note_off_time": 22.371}, {"pitch": 62, "velocity": 45, "note_on_time": 22.661, "note_off_time": 23.059}, {"pitch": 64, "velocity": 46, "note_on_time": 23.392, "note_off_time": 23.702}, {"pitch": 64, "velocity": 54, "note_on_time": 24.741, "note_off_time": 25.129}, {"pitch": 64, "velocity": 56, "note_on_time": 25.488, "note_off_time": 25.873}]</notes><guidance name="Guidance Mode">None</guidance><error name="Error value">0.13975613636363593</error></trial><trial trial_no="3" timestamp="2022_12_22-11_16_48"><notes name="Played Notes">[{"pitch": 60, "velocity": 65, "note_on_time": 2.956, "note_off_time": 3.296}, {"pitch": 60, "velocity": 62, "note_on_time": 3.66, "note_off_time": 5.102}, {"pitch": 60, "velocity": 67, "note_on_time": 5.87, "note_off_time": 6.116}, {"pitch": 62, "velocity": 46, "note_on_time": 8.073, "note_off_time": 8.443}, {"pitch": 64, "velocity": 57, "note_on_time": 8.785, "note_off_time": 9.242}, {"pitch": 62, "velocity": 61, "note_on_time": 9.52, "note_off_time": 9.95}, {"pitch": 64, "velocity": 48, "note_on_time": 10.934, "note_off_time": 11.299}, {"pitch": 62, "velocity": 55, "note_on_time": 11.683, "note_off_time": 11.98}, {"pitch": 62, "velocity": 46, "note_on_time": 12.418, "note_off_time": 12.696}, {"pitch": 60, "velocity": 61, "note_on_time": 13.166, "note_off_time": 13.511}, {"pitch": 62, "velocity": 53, "note_on_time": 13.895, "note_off_time": 14.191}, {"pitch": 60, "velocity": 59, "note_on_time": 14.61, "note_off_time": 15.081}, {"pitch": 62, "velocity": 52, "note_on_time": 15.368, "note_off_time": 15.679}, {"pitch": 64, "velocity": 56, "note_on_time": 16.083, "note_off_time": 16.416}, {"pitch": 64, "velocity": 42, "note_on_time": 16.827, "note_off_time": 17.219}, {"pitch": 62, "velocity": 55, "note_on_time": 17.54, "note_off_time": 17.9}, {"pitch": 64, "velocity": 48, "note_on_time": 18.293, "note_off_time": 18.571}, {"pitch": 60, "velocity": 58, "note_on_time": 19.661, "note_off_time": 20.664}, {"pitch": 62, "velocity": 29, "note_on_time": 21.363, "note_off_time": 21.721}, {"pitch": 64, "velocity": 41, "note_on_time": 22.0, "note_off_time": 22.451}, {"pitch": 62, "velocity": 60, "note_on_time": 22.694, "note_off_time": 23.073}, {"pitch": 64, "velocity": 54, "note_on_time": 23.416, "note_off_time": 23.863}, {"pitch": 64, "velocity": 49, "note_on_time": 24.858, "note_off_time": 25.205}, {"pitch": 64, "velocity": 52, "note_on_time": 25.547, "note_off_time": 25.815}]</notes><guidance name="Guidance Mode">None</guidance><error name="Error value">0.19381322727272754</error></trial></trials></MIDI>