<MIDI midiNo="2022_11_13-12_34_07"><target_notes><notes name="Note List">[{"pitch": 42, "velocity": 80, "note_on_time": 0.004, "note_off_time": 0.278}, {"pitch": 42, "velocity": 80, "note_on_time": 0.278, "note_off_time": 0.541}, {"pitch": 42, "velocity": 80, "note_on_time": 0.541, "note_off_time": 0.809}, {"pitch": 42, "velocity": 80, "note_on_time": 0.809, "note_off_time": 1.076}, {"pitch": 64, "velocity": 80, "note_on_time": 1.075, "note_off_time": 1.344}, {"pitch": 42, "velocity": 80, "note_on_time": 1.076, "note_off_time": 1.344}, {"pitch": 60, "velocity": 80, "note_on_time": 1.344, "note_off_time": 1.609}, {"pitch": 42, "velocity": 80, "note_on_time": 1.345, "note_off_time": 1.61}, {"pitch": 67, "velocity": 80, "note_on_time": 1.609, "note_off_time": 1.875}, {"pitch": 42, "velocity": 80, "note_on_time": 1.61, "note_off_time": 1.875}, {"pitch": 67, "velocity": 80, "note_on_time": 1.875, "note_off_time": 2.142}, {"pitch": 42, "velocity": 80, "note_on_time": 1.875, "note_off_time": 2.142}, {"pitch": 62, "velocity": 80, "note_on_time": 2.142, "note_off_time": 2.408}, {"pitch": 42, "velocity": 80, "note_on_time": 2.143, "note_off_time": 2.408}, {"pitch": 60, "velocity": 80, "note_on_time": 2.408, "note_off_time": 2.672}, {"pitch": 42, "velocity": 80, "note_on_time": 2.408, "note_off_time": 2.672}, {"pitch": 62, "velocity": 80, "note_on_time": 2.672, "note_off_time": 2.94}, {"pitch": 42, "velocity": 80, "note_on_time": 2.672, "note_off_time": 2.94}, {"pitch": 64, "velocity": 80, "note_on_time": 2.94, "note_off_time": 3.204}, {"pitch": 42, "velocity": 80, "note_on_time": 2.94, "note_off_time": 3.204}, {"pitch": 60, "velocity": 80, "note_on_time": 3.204, "note_off_time": 3.469}, {"pitch": 42, "velocity": 80, "note_on_time": 3.204, "note_off_time": 3.469}, {"pitch": 64, "velocity": 80, "note_on_time": 3.469, "note_off_time": 3.733}, {"pitch": 42, "velocity": 80, "note_on_time": 3.469, "note_off_time": 3.733}, {"pitch": 42, "velocity": 80, "note_on_time": 3.733, "note_off_time": 4.0}, {"pitch": 65, "velocity": 80, "note_on_time": 3.999, "note_off_time": 4.264}, {"pitch": 42, "velocity": 80, "note_on_time": 4.0, "note_off_time": 4.264}, {"pitch": 64, "velocity": 80, "note_on_time": 4.264, "note_off_time": 4.53}, {"pitch": 42, "velocity": 80, "note_on_time": 4.265, "note_off_time": 4.53}, {"pitch": 65, "velocity": 80, "note_on_time": 4.53, "note_off_time": 4.793}, {"pitch": 42, "velocity": 80, "note_on_time": 4.53, "note_off_time": 4.794}, {"pitch": 67, "velocity": 80, "note_on_time": 4.793, "note_off_time": 5.056}, {"pitch": 42, "velocity": 80, "note_on_time": 4.794, "note_off_time": 5.057}, {"pitch": 65, "velocity": 80, "note_on_time": 5.056, "note_off_time": 5.323}, {"pitch": 42, "velocity": 80, "note_on_time": 5.057, "note_off_time": 5.323}, {"pitch": 60, "velocity": 80, "note_on_time": 5.323, "note_off_time": 5.588}, {"pitch": 42, "velocity": 80, "note_on_time": 5.324, "note_off_time": 5.588}, {"pitch": 64, "velocity": 80, "note_on_time": 5.588, "note_off_time": 5.852}, {"pitch": 42, "velocity": 80, "note_on_time": 5.589, "note_off_time": 5.852}, {"pitch": 60, "velocity": 80, "note_on_time": 5.852, "note_off_time": 6.117}, {"pitch": 42, "velocity": 80, "note_on_time": 5.853, "note_off_time": 6.118}, {"pitch": 62, "velocity": 80, "note_on_time": 6.117, "note_off_time": 6.383}, {"pitch": 42, "velocity": 80, "note_on_time": 6.118, "note_off_time": 6.383}, {"pitch": 67, "velocity": 80, "note_on_time": 6.383, "note_off_time": 6.65}, {"pitch": 42, "velocity": 80, "note_on_time": 6.384, "note_off_time": 6.651}, {"pitch": 64, "velocity": 80, "note_on_time": 6.65, "note_off_time": 6.917}, {"pitch": 42, "velocity": 80, "note_on_time": 6.651, "note_off_time": 6.917}, {"pitch": 62, "velocity": 80, "note_on_time": 6.917, "note_off_time": 7.184}, {"pitch": 42, "velocity": 80, "note_on_time": 6.917, "note_off_time": 7.184}, {"pitch": 60, "velocity": 80, "note_on_time": 7.184, "note_off_time": 7.447}, {"pitch": 42, "velocity": 80, "note_on_time": 7.184, "note_off_time": 7.447}, {"pitch": 67, "velocity": 80, "note_on_time": 7.447, "note_off_time": 7.712}, {"pitch": 42, "velocity": 80, "note_on_time": 7.448, "note_off_time": 7.712}, {"pitch": 42, "velocity": 80, "note_on_time": 7.712, "note_off_time": 7.977}, {"pitch": 42, "velocity": 80, "note_on_time": 7.978, "note_off_time": 8.244}, {"pitch": 62, "velocity": 80, "note_on_time": 8.244, "note_off_time": 8.512}, {"pitch": 42, "velocity": 80, "note_on_time": 8.245, "note_off_time": 8.512}, {"pitch": 42, "velocity": 80, "note_on_time": 8.512, "note_off_time": 8.778}, {"pitch": 62, "velocity": 80, "note_on_time": 8.778, "note_off_time": 9.045}, {"pitch": 42, "velocity": 80, "note_on_time": 8.779, "note_off_time": 9.045}, {"pitch": 62, "velocity": 80, "note_on_time": 9.045, "note_off_time": 9.309}, {"pitch": 42, "velocity": 80, "note_on_time": 9.046, "note_off_time": 9.31}, {"pitch": 62, "velocity": 80, "note_on_time": 9.309, "note_off_time": 9.575}, {"pitch": 42, "velocity": 80, "note_on_time": 9.31, "note_off_time": 9.576}]</notes><options name="Option List">((4, 4), [0.5, 0.25], 3, 8, &lt;NoteRangePerHand.C_TO_G: 6&gt;, &lt;NoteRangePerHand.ONE_NOTE: 2&gt;, False, True, False, '232')</options></target_notes><trials><trial trial_no="1" timestamp="2022_11_13-12_33_56"><notes name="Played Notes">[{"pitch": 64, "velocity": 70, "note_on_time": 1.091, "note_off_time": 1.373}, {"pitch": 67, "velocity": 67, "note_on_time": 1.66, "note_off_time": 1.8}, {"pitch": 60, "velocity": 63, "note_on_time": 1.366, "note_off_time": 1.936}, {"pitch": 67, "velocity": 57, "note_on_time": 1.917, "note_off_time": 2.288}, {"pitch": 62, "velocity": 55, "note_on_time": 2.196, "note_off_time": 2.467}, {"pitch": 60, "velocity": 67, "note_on_time": 2.456, "note_off_time": 3.012}, {"pitch": 62, "velocity": 64, "note_on_time": 2.733, "note_off_time": 3.054}, {"pitch": 64, "velocity": 72, "note_on_time": 2.987, "note_off_time": 3.316}, {"pitch": 60, "velocity": 76, "note_on_time": 3.253, "note_off_time": 3.643}, {"pitch": 64, "velocity": 60, "note_on_time": 3.513, "note_off_time": 3.698}, {"pitch": 65, "velocity": 75, "note_on_time": 4.025, "note_off_time": 4.32}, {"pitch": 64, "velocity": 73, "note_on_time": 4.297, "note_off_time": 4.64}, {"pitch": 65, "velocity": 77, "note_on_time": 4.562, "note_off_time": 4.792}, {"pitch": 67, "velocity": 44, "note_on_time": 4.827, "note_off_time": 5.118}, {"pitch": 65, "velocity": 74, "note_on_time": 5.067, "note_off_time": 5.352}, {"pitch": 60, "velocity": 66, "note_on_time": 5.331, "note_off_time": 5.617}, {"pitch": 64, "velocity": 70, "note_on_time": 5.584, "note_off_time": 5.884}, {"pitch": 62, "velocity": 70, "note_on_time": 6.112, "note_off_time": 6.401}, {"pitch": 60, "velocity": 73, "note_on_time": 5.856, "note_off_time": 6.417}, {"pitch": 67, "velocity": 73, "note_on_time": 6.374, "note_off_time": 6.719}, {"pitch": 64, "velocity": 72, "note_on_time": 6.626, "note_off_time": 6.954}, {"pitch": 62, "velocity": 67, "note_on_time": 6.89, "note_off_time": 7.17}, {"pitch": 60, "velocity": 66, "note_on_time": 7.14, "note_off_time": 7.489}, {"pitch": 67, "velocity": 67, "note_on_time": 7.395, "note_off_time": 7.584}, {"pitch": 62, "velocity": 73, "note_on_time": 8.225, "note_off_time": 8.362}, {"pitch": 62, "velocity": 67, "note_on_time": 8.721, "note_off_time": 8.868}, {"pitch": 62, "velocity": 74, "note_on_time": 9.014, "note_off_time": 9.12}, {"pitch": 62, "velocity": 73, "note_on_time": 9.303, "note_off_time": 9.46}]</notes><guidance name="Guidance Mode">None</guidance><error name="Error value">0.2939712000000001</error></trial><trial trial_no="2" timestamp="2022_11_13-12_34_25"><notes name="Played Notes">[{"pitch": 64, "velocity": 61, "note_on_time": 1.097, "note_off_time": 1.353}, {"pitch": 67, "velocity": 73, "note_on_time": 1.653, "note_off_time": 1.783}, {"pitch": 60, "velocity": 64, "note_on_time": 1.379, "note_off_time": 2.007}, {"pitch": 67, "velocity": 56, "note_on_time": 1.917, "note_off_time": 2.274}, {"pitch": 62, "velocity": 67, "note_on_time": 2.177, "note_off_time": 2.443}, {"pitch": 60, "velocity": 71, "note_on_time": 2.446, "note_off_time": 2.981}, {"pitch": 62, "velocity": 73, "note_on_time": 2.712, "note_off_time": 3.006}, {"pitch": 64, "velocity": 76, "note_on_time": 2.97, "note_off_time": 3.267}, {"pitch": 60, "velocity": 77, "note_on_time": 3.247, "note_off_time": 3.558}, {"pitch": 64, "velocity": 78, "note_on_time": 3.502, "note_off_time": 3.695}, {"pitch": 65, "velocity": 77, "note_on_time": 4.011, "note_off_time": 4.29}, {"pitch": 64, "velocity": 71, "note_on_time": 4.285, "note_off_time": 4.599}, {"pitch": 65, "velocity": 80, "note_on_time": 4.547, "note_off_time": 4.816}, {"pitch": 67, "velocity": 70, "note_on_time": 4.793, "note_off_time": 5.105}, {"pitch": 65, "velocity": 68, "note_on_time": 5.053, "note_off_time": 5.335}, {"pitch": 60, "velocity": 65, "note_on_time": 5.316, "note_off_time": 5.59}, {"pitch": 64, "velocity": 74, "note_on_time": 5.579, "note_off_time": 5.876}, {"pitch": 60, "velocity": 70, "note_on_time": 5.84, "note_off_time": 6.174}, {"pitch": 62, "velocity": 72, "note_on_time": 6.105, "note_off_time": 6.406}, {"pitch": 67, "velocity": 69, "note_on_time": 6.371, "note_off_time": 6.697}, {"pitch": 64, "velocity": 63, "note_on_time": 6.624, "note_off_time": 6.96}, {"pitch": 62, "velocity": 72, "note_on_time": 6.895, "note_off_time": 7.2}, {"pitch": 60, "velocity": 67, "note_on_time": 7.143, "note_off_time": 7.577}, {"pitch": 67, "velocity": 58, "note_on_time": 7.502, "note_off_time": 7.739}, {"pitch": 62, "velocity": 61, "note_on_time": 8.297, "note_off_time": 8.446}, {"pitch": 62, "velocity": 76, "note_on_time": 8.742, "note_off_time": 8.866}, {"pitch": 62, "velocity": 79, "note_on_time": 9.028, "note_off_time": 9.137}, {"pitch": 62, "velocity": 79, "note_on_time": 9.297, "note_off_time": 9.461}]</notes><guidance name="Guidance Mode">None</guidance><error name="Error value">0.016397600000000134</error></trial><trial trial_no="3" timestamp="2022_11_13-12_34_58"><notes name="Played Notes">[{"pitch": 64, "velocity": 66, "note_on_time": 1.086, "note_off_time": 1.353}, {"pitch": 67, "velocity": 67, "note_on_time": 1.649, "note_off_time": 1.79}, {"pitch": 60, "velocity": 51, "note_on_time": 1.373, "note_off_time": 2.167}, {"pitch": 67, "velocity": 58, "note_on_time": 1.912, "note_off_time": 2.256}, {"pitch": 62, "velocity": 63, "note_on_time": 2.187, "note_off_time": 2.466}, {"pitch": 60, "velocity": 73, "note_on_time": 2.442, "note_off_time": 3.0}, {"pitch": 62, "velocity": 67, "note_on_time": 2.711, "note_off_time": 3.025}, {"pitch": 64, "velocity": 73, "note_on_time": 2.977, "note_off_time": 3.26}, {"pitch": 60, "velocity": 81, "note_on_time": 3.246, "note_off_time": 3.564}, {"pitch": 64, "velocity": 83, "note_on_time": 3.529, "note_off_time": 3.734}, {"pitch": 65, "velocity": 73, "note_on_time": 3.992, "note_off_time": 4.316}, {"pitch": 64, "velocity": 76, "note_on_time": 4.282, "note_off_time": 4.602}, {"pitch": 65, "velocity": 76, "note_on_time": 4.541, "note_off_time": 4.781}, {"pitch": 67, "velocity": 67, "note_on_time": 4.791, "note_off_time": 5.105}, {"pitch": 65, "velocity": 70, "note_on_time": 5.051, "note_off_time": 5.404}, {"pitch": 60, "velocity": 69, "note_on_time": 5.325, "note_off_time": 5.614}, {"pitch": 64, "velocity": 72, "note_on_time": 5.594, "note_off_time": 5.891}, {"pitch": 60, "velocity": 75, "note_on_time": 5.855, "note_off_time": 6.391}, {"pitch": 62, "velocity": 74, "note_on_time": 6.135, "note_off_time": 6.429}, {"pitch": 67, "velocity": 74, "note_on_time": 6.402, "note_off_time": 6.67}, {"pitch": 64, "velocity": 76, "note_on_time": 6.64, "note_off_time": 6.992}, {"pitch": 62, "velocity": 70, "note_on_time": 6.929, "note_off_time": 7.198}, {"pitch": 60, "velocity": 78, "note_on_time": 7.165, "note_off_time": 7.449}, {"pitch": 67, "velocity": 75, "note_on_time": 7.444, "note_off_time": 7.683}, {"pitch": 62, "velocity": 73, "note_on_time": 8.706, "note_off_time": 8.848}, {"pitch": 62, "velocity": 80, "note_on_time": 9.209, "note_off_time": 9.327}]</notes><guidance name="Guidance Mode">None</guidance><error name="Error value">0.23828160000000015</error></trial></trials></MIDI>