<MIDI midiNo="2022_12_22-12_15_26"><target_notes><notes name="Note List">[{"pitch": 42, "velocity": 80, "note_on_time": 0.004, "note_off_time": 0.244}, {"pitch": 42, "velocity": 80, "note_on_time": 0.244, "note_off_time": 0.476}, {"pitch": 42, "velocity": 80, "note_on_time": 0.477, "note_off_time": 0.71}, {"pitch": 42, "velocity": 80, "note_on_time": 0.71, "note_off_time": 0.945}, {"pitch": 67, "velocity": 80, "note_on_time": 0.945, "note_off_time": 1.179}, {"pitch": 42, "velocity": 80, "note_on_time": 0.945, "note_off_time": 1.179}, {"pitch": 67, "velocity": 80, "note_on_time": 1.179, "note_off_time": 1.412}, {"pitch": 42, "velocity": 80, "note_on_time": 1.18, "note_off_time": 1.412}, {"pitch": 60, "velocity": 80, "note_on_time": 1.412, "note_off_time": 1.646}, {"pitch": 42, "velocity": 80, "note_on_time": 1.412, "note_off_time": 1.646}, {"pitch": 62, "velocity": 80, "note_on_time": 1.646, "note_off_time": 1.878}, {"pitch": 42, "velocity": 80, "note_on_time": 1.646, "note_off_time": 1.878}, {"pitch": 62, "velocity": 80, "note_on_time": 1.878, "note_off_time": 2.113}, {"pitch": 42, "velocity": 80, "note_on_time": 1.878, "note_off_time": 2.114}, {"pitch": 64, "velocity": 80, "note_on_time": 2.113, "note_off_time": 2.347}, {"pitch": 42, "velocity": 80, "note_on_time": 2.114, "note_off_time": 2.348}, {"pitch": 65, "velocity": 80, "note_on_time": 2.347, "note_off_time": 2.582}, {"pitch": 42, "velocity": 80, "note_on_time": 2.348, "note_off_time": 2.582}, {"pitch": 64, "velocity": 80, "note_on_time": 2.582, "note_off_time": 2.813}, {"pitch": 42, "velocity": 80, "note_on_time": 2.582, "note_off_time": 2.814}, {"pitch": 64, "velocity": 80, "note_on_time": 2.813, "note_off_time": 3.047}, {"pitch": 42, "velocity": 80, "note_on_time": 2.814, "note_off_time": 3.047}, {"pitch": 42, "velocity": 80, "note_on_time": 3.047, "note_off_time": 3.281}, {"pitch": 64, "velocity": 80, "note_on_time": 3.047, "note_off_time": 3.514}, {"pitch": 42, "velocity": 80, "note_on_time": 3.282, "note_off_time": 3.515}, {"pitch": 42, "velocity": 80, "note_on_time": 3.515, "note_off_time": 3.75}, {"pitch": 64, "velocity": 80, "note_on_time": 3.749, "note_off_time": 3.982}, {"pitch": 42, "velocity": 80, "note_on_time": 3.75, "note_off_time": 3.982}, {"pitch": 65, "velocity": 80, "note_on_time": 3.982, "note_off_time": 4.216}, {"pitch": 42, "velocity": 80, "note_on_time": 3.983, "note_off_time": 4.216}, {"pitch": 67, "velocity": 80, "note_on_time": 4.216, "note_off_time": 4.448}, {"pitch": 42, "velocity": 80, "note_on_time": 4.217, "note_off_time": 4.448}, {"pitch": 67, "velocity": 80, "note_on_time": 4.448, "note_off_time": 4.684}, {"pitch": 42, "velocity": 80, "note_on_time": 4.448, "note_off_time": 4.685}, {"pitch": 65, "velocity": 80, "note_on_time": 4.684, "note_off_time": 4.916}, {"pitch": 42, "velocity": 80, "note_on_time": 4.685, "note_off_time": 4.917}, {"pitch": 67, "velocity": 80, "note_on_time": 4.916, "note_off_time": 5.15}, {"pitch": 42, "velocity": 80, "note_on_time": 4.917, "note_off_time": 5.15}, {"pitch": 42, "velocity": 80, "note_on_time": 5.151, "note_off_time": 5.386}, {"pitch": 60, "velocity": 80, "note_on_time": 5.15, "note_off_time": 5.621}, {"pitch": 42, "velocity": 80, "note_on_time": 5.386, "note_off_time": 5.621}, {"pitch": 60, "velocity": 80, "note_on_time": 5.621, "note_off_time": 5.853}, {"pitch": 42, "velocity": 80, "note_on_time": 5.621, "note_off_time": 5.853}, {"pitch": 62, "velocity": 80, "note_on_time": 5.853, "note_off_time": 6.085}, {"pitch": 42, "velocity": 80, "note_on_time": 5.853, "note_off_time": 6.086}, {"pitch": 60, "velocity": 80, "note_on_time": 6.085, "note_off_time": 6.32}, {"pitch": 42, "velocity": 80, "note_on_time": 6.086, "note_off_time": 6.32}, {"pitch": 67, "velocity": 80, "note_on_time": 6.32, "note_off_time": 6.555}, {"pitch": 42, "velocity": 80, "note_on_time": 6.321, "note_off_time": 6.555}, {"pitch": 42, "velocity": 80, "note_on_time": 6.555, "note_off_time": 6.79}, {"pitch": 65, "velocity": 80, "note_on_time": 6.555, "note_off_time": 7.023}, {"pitch": 42, "velocity": 80, "note_on_time": 6.79, "note_off_time": 7.023}, {"pitch": 42, "velocity": 80, "note_on_time": 7.024, "note_off_time": 7.254}, {"pitch": 60, "velocity": 80, "note_on_time": 7.254, "note_off_time": 7.487}, {"pitch": 42, "velocity": 80, "note_on_time": 7.255, "note_off_time": 7.488}, {"pitch": 42, "velocity": 80, "note_on_time": 7.488, "note_off_time": 7.724}, {"pitch": 60, "velocity": 80, "note_on_time": 7.723, "note_off_time": 7.957}, {"pitch": 42, "velocity": 80, "note_on_time": 7.724, "note_off_time": 7.957}, {"pitch": 60, "velocity": 80, "note_on_time": 7.957, "note_off_time": 8.193}, {"pitch": 42, "velocity": 80, "note_on_time": 7.957, "note_off_time": 8.194}, {"pitch": 60, "velocity": 80, "note_on_time": 8.193, "note_off_time": 8.428}, {"pitch": 42, "velocity": 80, "note_on_time": 8.194, "note_off_time": 8.428}]</notes><options name="Option List">((4, 4), [0.5, 0.25], 3, 8, &lt;NoteRangePerHand.C_TO_G: 6&gt;, &lt;NoteRangePerHand.ONE_NOTE: 2&gt;, False, True, False, '265')</options></target_notes><trials><trial trial_no="1" timestamp="2022_12_22-12_15_31"><notes name="Played Notes">[{"pitch": 67, "velocity": 80, "note_on_time": 0.945, "note_off_time": 1.052}, {"pitch": 67, "velocity": 63, "note_on_time": 1.172, "note_off_time": 1.329}, {"pitch": 60, "velocity": 61, "note_on_time": 1.413, "note_off_time": 1.644}, {"pitch": 62, "velocity": 81, "note_on_time": 1.64, "note_off_time": 1.886}, {"pitch": 62, "velocity": 81, "note_on_time": 2.119, "note_off_time": 2.347}, {"pitch": 64, "velocity": 55, "note_on_time": 2.321, "note_off_time": 2.515}, {"pitch": 65, "velocity": 69, "note_on_time": 2.539, "note_off_time": 2.791}, {"pitch": 64, "velocity": 72, "note_on_time": 2.786, "note_off_time": 2.897}, {"pitch": 64, "velocity": 75, "note_on_time": 3.015, "note_off_time": 3.122}, {"pitch": 64, "velocity": 65, "note_on_time": 3.223, "note_off_time": 3.333}, {"pitch": 64, "velocity": 71, "note_on_time": 3.439, "note_off_time": 4.071}, {"pitch": 64, "velocity": 77, "note_on_time": 4.611, "note_off_time": 4.854}, {"pitch": 65, "velocity": 65, "note_on_time": 4.841, "note_off_time": 5.083}, {"pitch": 67, "velocity": 69, "note_on_time": 5.097, "note_off_time": 5.212}, {"pitch": 67, "velocity": 66, "note_on_time": 5.329, "note_off_time": 5.578}, {"pitch": 65, "velocity": 69, "note_on_time": 5.584, "note_off_time": 5.833}, {"pitch": 67, "velocity": 78, "note_on_time": 5.846, "note_off_time": 6.055}, {"pitch": 60, "velocity": 84, "note_on_time": 6.078, "note_off_time": 6.425}, {"pitch": 60, "velocity": 70, "note_on_time": 6.574, "note_off_time": 6.76}, {"pitch": 62, "velocity": 68, "note_on_time": 6.774, "note_off_time": 6.976}, {"pitch": 60, "velocity": 90, "note_on_time": 6.997, "note_off_time": 7.248}, {"pitch": 67, "velocity": 47, "note_on_time": 7.274, "note_off_time": 7.318}, {"pitch": 67, "velocity": 82, "note_on_time": 7.536, "note_off_time": 7.771}, {"pitch": 65, "velocity": 84, "note_on_time": 7.744, "note_off_time": 8.157}]</notes><guidance name="Guidance Mode">None</guidance><error name="Error value">0.587611956521739</error></trial><trial trial_no="2" timestamp="2022_12_22-12_15_51"><notes name="Played Notes">[{"pitch": 67, "velocity": 78, "note_on_time": 0.976, "note_off_time": 1.086}, {"pitch": 67, "velocity": 66, "note_on_time": 1.213, "note_off_time": 1.418}, {"pitch": 60, "velocity": 87, "note_on_time": 1.426, "note_off_time": 1.643}, {"pitch": 62, "velocity": 67, "note_on_time": 1.643, "note_off_time": 1.908}, {"pitch": 62, "velocity": 79, "note_on_time": 2.133, "note_off_time": 2.373}, {"pitch": 64, "velocity": 75, "note_on_time": 2.346, "note_off_time": 2.553}, {"pitch": 65, "velocity": 77, "note_on_time": 2.573, "note_off_time": 2.804}, {"pitch": 64, "velocity": 68, "note_on_time": 2.809, "note_off_time": 3.006}, {"pitch": 64, "velocity": 80, "note_on_time": 3.274, "note_off_time": 3.372}, {"pitch": 64, "velocity": 81, "note_on_time": 3.524, "note_off_time": 3.879}, {"pitch": 64, "velocity": 85, "note_on_time": 4.26, "note_off_time": 4.475}, {"pitch": 65, "velocity": 84, "note_on_time": 4.463, "note_off_time": 4.684}, {"pitch": 67, "velocity": 70, "note_on_time": 4.715, "note_off_time": 4.821}, {"pitch": 67, "velocity": 72, "note_on_time": 4.933, "note_off_time": 5.246}, {"pitch": 65, "velocity": 78, "note_on_time": 5.45, "note_off_time": 5.624}, {"pitch": 67, "velocity": 55, "note_on_time": 5.658, "note_off_time": 6.058}, {"pitch": 60, "velocity": 78, "note_on_time": 6.08, "note_off_time": 6.426}, {"pitch": 60, "velocity": 77, "note_on_time": 6.557, "note_off_time": 6.751}, {"pitch": 62, "velocity": 71, "note_on_time": 6.76, "note_off_time": 7.005}, {"pitch": 60, "velocity": 85, "note_on_time": 7.018, "note_off_time": 7.211}, {"pitch": 67, "velocity": 82, "note_on_time": 7.251, "note_off_time": 7.425}, {"pitch": 65, "velocity": 70, "note_on_time": 7.441, "note_off_time": 7.882}, {"pitch": 60, "velocity": 84, "note_on_time": 8.066, "note_off_time": 8.342}]</notes><guidance name="Guidance Mode">None</guidance><error name="Error value">0.5021665217391306</error></trial><trial trial_no="3" timestamp="2022_12_22-12_16_14"><notes name="Played Notes">[{"pitch": 67, "velocity": 72, "note_on_time": 0.949, "note_off_time": 1.046}, {"pitch": 67, "velocity": 58, "note_on_time": 1.154, "note_off_time": 1.395}, {"pitch": 60, "velocity": 84, "note_on_time": 1.392, "note_off_time": 1.589}, {"pitch": 62, "velocity": 73, "note_on_time": 1.605, "note_off_time": 1.84}, {"pitch": 62, "velocity": 78, "note_on_time": 2.098, "note_off_time": 2.326}, {"pitch": 64, "velocity": 64, "note_on_time": 2.308, "note_off_time": 2.483}, {"pitch": 65, "velocity": 64, "note_on_time": 2.527, "note_off_time": 2.766}, {"pitch": 64, "velocity": 85, "note_on_time": 2.763, "note_off_time": 3.003}, {"pitch": 64, "velocity": 76, "note_on_time": 3.222, "note_off_time": 3.326}, {"pitch": 64, "velocity": 75, "note_on_time": 3.465, "note_off_time": 3.772}, {"pitch": 64, "velocity": 80, "note_on_time": 4.166, "note_off_time": 4.392}, {"pitch": 65, "velocity": 69, "note_on_time": 4.389, "note_off_time": 4.594}, {"pitch": 67, "velocity": 71, "note_on_time": 4.625, "note_off_time": 4.731}, {"pitch": 67, "velocity": 70, "note_on_time": 4.857, "note_off_time": 5.096}, {"pitch": 65, "velocity": 79, "note_on_time": 5.091, "note_off_time": 5.321}, {"pitch": 67, "velocity": 73, "note_on_time": 5.343, "note_off_time": 5.55}, {"pitch": 60, "velocity": 82, "note_on_time": 5.587, "note_off_time": 5.943}, {"pitch": 60, "velocity": 80, "note_on_time": 6.08, "note_off_time": 6.282}, {"pitch": 62, "velocity": 72, "note_on_time": 6.298, "note_off_time": 6.502}, {"pitch": 60, "velocity": 79, "note_on_time": 6.528, "note_off_time": 6.819}, {"pitch": 67, "velocity": 80, "note_on_time": 7.008, "note_off_time": 7.23}, {"pitch": 65, "velocity": 92, "note_on_time": 7.221, "note_off_time": 7.533}, {"pitch": 60, "velocity": 86, "note_on_time": 7.98, "note_off_time": 8.116}]</notes><guidance name="Guidance Mode">None</guidance><error name="Error value">0.29931913043478253</error></trial></trials></MIDI>