<MIDI midiNo="2022_11_21-19_15_40"><target_notes><notes name="Note List">[{"pitch": 42, "velocity": 80, "note_on_time": 0.004, "note_off_time": 0.405}, {"pitch": 42, "velocity": 80, "note_on_time": 0.406, "note_off_time": 0.809}, {"pitch": 42, "velocity": 80, "note_on_time": 0.809, "note_off_time": 1.214}, {"pitch": 42, "velocity": 80, "note_on_time": 1.214, "note_off_time": 1.616}, {"pitch": 42, "velocity": 80, "note_on_time": 1.616, "note_off_time": 2.021}, {"pitch": 62, "velocity": 80, "note_on_time": 1.616, "note_off_time": 2.424}, {"pitch": 42, "velocity": 80, "note_on_time": 2.021, "note_off_time": 2.425}, {"pitch": 42, "velocity": 80, "note_on_time": 2.425, "note_off_time": 2.828}, {"pitch": 62, "velocity": 80, "note_on_time": 2.424, "note_off_time": 3.232}, {"pitch": 42, "velocity": 80, "note_on_time": 2.829, "note_off_time": 3.232}, {"pitch": 60, "velocity": 80, "note_on_time": 3.232, "note_off_time": 3.637}, {"pitch": 42, "velocity": 80, "note_on_time": 3.233, "note_off_time": 3.637}, {"pitch": 64, "velocity": 80, "note_on_time": 3.637, "note_off_time": 4.041}, {"pitch": 42, "velocity": 80, "note_on_time": 3.638, "note_off_time": 4.041}, {"pitch": 64, "velocity": 80, "note_on_time": 4.041, "note_off_time": 4.447}, {"pitch": 42, "velocity": 80, "note_on_time": 4.041, "note_off_time": 4.447}, {"pitch": 64, "velocity": 80, "note_on_time": 4.447, "note_off_time": 4.852}, {"pitch": 42, "velocity": 80, "note_on_time": 4.447, "note_off_time": 4.853}, {"pitch": 42, "velocity": 80, "note_on_time": 4.853, "note_off_time": 5.257}, {"pitch": 62, "velocity": 80, "note_on_time": 4.852, "note_off_time": 5.661}, {"pitch": 42, "velocity": 80, "note_on_time": 5.257, "note_off_time": 5.661}, {"pitch": 42, "velocity": 80, "note_on_time": 5.661, "note_off_time": 6.067}, {"pitch": 42, "velocity": 80, "note_on_time": 6.067, "note_off_time": 6.473}, {"pitch": 64, "velocity": 80, "note_on_time": 6.473, "note_off_time": 6.879}, {"pitch": 42, "velocity": 80, "note_on_time": 6.473, "note_off_time": 6.879}, {"pitch": 62, "velocity": 80, "note_on_time": 6.879, "note_off_time": 7.283}, {"pitch": 42, "velocity": 80, "note_on_time": 6.879, "note_off_time": 7.283}, {"pitch": 62, "velocity": 80, "note_on_time": 7.283, "note_off_time": 7.689}, {"pitch": 42, "velocity": 80, "note_on_time": 7.284, "note_off_time": 7.69}, {"pitch": 62, "velocity": 80, "note_on_time": 7.689, "note_off_time": 8.093}, {"pitch": 42, "velocity": 80, "note_on_time": 7.69, "note_off_time": 8.093}, {"pitch": 42, "velocity": 80, "note_on_time": 8.093, "note_off_time": 8.497}, {"pitch": 64, "velocity": 80, "note_on_time": 8.093, "note_off_time": 8.903}, {"pitch": 42, "velocity": 80, "note_on_time": 8.498, "note_off_time": 8.903}, {"pitch": 42, "velocity": 80, "note_on_time": 8.904, "note_off_time": 9.307}, {"pitch": 42, "velocity": 80, "note_on_time": 9.307, "note_off_time": 9.712}, {"pitch": 62, "velocity": 80, "note_on_time": 9.711, "note_off_time": 10.118}, {"pitch": 42, "velocity": 80, "note_on_time": 9.712, "note_off_time": 10.118}, {"pitch": 64, "velocity": 80, "note_on_time": 10.118, "note_off_time": 10.519}, {"pitch": 42, "velocity": 80, "note_on_time": 10.118, "note_off_time": 10.519}, {"pitch": 60, "velocity": 80, "note_on_time": 10.519, "note_off_time": 10.925}, {"pitch": 42, "velocity": 80, "note_on_time": 10.52, "note_off_time": 10.926}, {"pitch": 62, "velocity": 80, "note_on_time": 10.925, "note_off_time": 11.329}, {"pitch": 42, "velocity": 80, "note_on_time": 10.926, "note_off_time": 11.33}, {"pitch": 60, "velocity": 80, "note_on_time": 11.329, "note_off_time": 11.736}, {"pitch": 42, "velocity": 80, "note_on_time": 11.33, "note_off_time": 11.736}, {"pitch": 64, "velocity": 80, "note_on_time": 11.736, "note_off_time": 12.145}, {"pitch": 42, "velocity": 80, "note_on_time": 11.736, "note_off_time": 12.146}, {"pitch": 60, "velocity": 80, "note_on_time": 12.145, "note_off_time": 12.551}, {"pitch": 42, "velocity": 80, "note_on_time": 12.146, "note_off_time": 12.552}, {"pitch": 60, "velocity": 80, "note_on_time": 12.551, "note_off_time": 12.953}, {"pitch": 42, "velocity": 80, "note_on_time": 12.552, "note_off_time": 12.953}, {"pitch": 42, "velocity": 80, "note_on_time": 12.953, "note_off_time": 13.357}, {"pitch": 60, "velocity": 80, "note_on_time": 13.357, "note_off_time": 13.76}, {"pitch": 42, "velocity": 80, "note_on_time": 13.357, "note_off_time": 13.76}, {"pitch": 60, "velocity": 80, "note_on_time": 13.76, "note_off_time": 14.167}, {"pitch": 42, "velocity": 80, "note_on_time": 13.76, "note_off_time": 14.167}, {"pitch": 60, "velocity": 80, "note_on_time": 14.167, "note_off_time": 14.573}, {"pitch": 42, "velocity": 80, "note_on_time": 14.167, "note_off_time": 14.573}]</notes><options name="Option List">((4, 4), [0.5, 0.25], 3, 8, &lt;NoteRangePerHand.THREE_NOTES: 4&gt;, &lt;NoteRangePerHand.ONE_NOTE: 2&gt;, False, True, False, 150)</options></target_notes><trials><trial trial_no="1" timestamp="2022_11_21-19_15_24"><notes name="Played Notes">[{"pitch": 62, "velocity": 72, "note_on_time": 1.639, "note_off_time": 2.296}, {"pitch": 62, "velocity": 85, "note_on_time": 2.518, "note_off_time": 3.153}, {"pitch": 60, "velocity": 89, "note_on_time": 3.456, "note_off_time": 3.983}, {"pitch": 64, "velocity": 73, "note_on_time": 3.882, "note_off_time": 4.078}, {"pitch": 64, "velocity": 74, "note_on_time": 4.269, "note_off_time": 4.449}, {"pitch": 64, "velocity": 71, "note_on_time": 4.666, "note_off_time": 4.917}, {"pitch": 62, "velocity": 77, "note_on_time": 5.055, "note_off_time": 6.073}, {"pitch": 64, "velocity": 80, "note_on_time": 7.265, "note_off_time": 7.699}, {"pitch": 62, "velocity": 68, "note_on_time": 7.666, "note_off_time": 7.839}, {"pitch": 62, "velocity": 69, "note_on_time": 8.052, "note_off_time": 8.236}, {"pitch": 62, "velocity": 74, "note_on_time": 8.454, "note_off_time": 8.717}, {"pitch": 64, "velocity": 80, "note_on_time": 8.889, "note_off_time": 9.318}, {"pitch": 62, "velocity": 81, "note_on_time": 10.552, "note_off_time": 10.886}, {"pitch": 64, "velocity": 78, "note_on_time": 10.944, "note_off_time": 11.268}, {"pitch": 60, "velocity": 81, "note_on_time": 11.315, "note_off_time": 11.477}, {"pitch": 62, "velocity": 70, "note_on_time": 11.697, "note_off_time": 11.968}, {"pitch": 60, "velocity": 75, "note_on_time": 12.068, "note_off_time": 12.442}, {"pitch": 62, "velocity": 64, "note_on_time": 12.495, "note_off_time": 12.615}, {"pitch": 64, "velocity": 64, "note_on_time": 12.683, "note_off_time": 13.081}, {"pitch": 60, "velocity": 82, "note_on_time": 13.085, "note_off_time": 13.278}, {"pitch": 60, "velocity": 84, "note_on_time": 13.47, "note_off_time": 13.836}]</notes><guidance name="Guidance Mode">None</guidance><error name="Error value">0.30600000000000016</error></trial></trials></MIDI>