<MIDI midiNo="2022_12_08-10_36_44"><target_notes><notes name="Note List">[{"pitch": 42, "velocity": 80, "note_on_time": 0.004, "note_off_time": 0.26}, {"pitch": 42, "velocity": 80, "note_on_time": 0.26, "note_off_time": 0.507}, {"pitch": 42, "velocity": 80, "note_on_time": 0.507, "note_off_time": 0.756}, {"pitch": 42, "velocity": 80, "note_on_time": 0.756, "note_off_time": 1.008}, {"pitch": 60, "velocity": 80, "note_on_time": 1.008, "note_off_time": 1.256}, {"pitch": 42, "velocity": 80, "note_on_time": 1.008, "note_off_time": 1.257}, {"pitch": 42, "velocity": 80, "note_on_time": 1.257, "note_off_time": 1.505}, {"pitch": 42, "velocity": 80, "note_on_time": 1.505, "note_off_time": 1.755}, {"pitch": 60, "velocity": 80, "note_on_time": 1.754, "note_off_time": 2.004}, {"pitch": 42, "velocity": 80, "note_on_time": 1.755, "note_off_time": 2.005}, {"pitch": 64, "velocity": 80, "note_on_time": 2.004, "note_off_time": 2.254}, {"pitch": 42, "velocity": 80, "note_on_time": 2.005, "note_off_time": 2.254}, {"pitch": 60, "velocity": 80, "note_on_time": 2.254, "note_off_time": 2.502}, {"pitch": 42, "velocity": 80, "note_on_time": 2.254, "note_off_time": 2.502}, {"pitch": 67, "velocity": 80, "note_on_time": 2.502, "note_off_time": 2.75}, {"pitch": 42, "velocity": 80, "note_on_time": 2.502, "note_off_time": 2.75}, {"pitch": 67, "velocity": 80, "note_on_time": 2.75, "note_off_time": 3.0}, {"pitch": 42, "velocity": 80, "note_on_time": 2.75, "note_off_time": 3.0}, {"pitch": 64, "velocity": 80, "note_on_time": 3.0, "note_off_time": 3.251}, {"pitch": 42, "velocity": 80, "note_on_time": 3.001, "note_off_time": 3.251}, {"pitch": 64, "velocity": 80, "note_on_time": 3.251, "note_off_time": 3.502}, {"pitch": 42, "velocity": 80, "note_on_time": 3.251, "note_off_time": 3.503}, {"pitch": 64, "velocity": 80, "note_on_time": 3.502, "note_off_time": 3.751}, {"pitch": 42, "velocity": 80, "note_on_time": 3.503, "note_off_time": 3.752}, {"pitch": 62, "velocity": 80, "note_on_time": 3.751, "note_off_time": 3.999}, {"pitch": 42, "velocity": 80, "note_on_time": 3.752, "note_off_time": 4.0}, {"pitch": 65, "velocity": 80, "note_on_time": 3.999, "note_off_time": 4.249}, {"pitch": 42, "velocity": 80, "note_on_time": 4.0, "note_off_time": 4.25}, {"pitch": 67, "velocity": 80, "note_on_time": 4.249, "note_off_time": 4.496}, {"pitch": 42, "velocity": 80, "note_on_time": 4.25, "note_off_time": 4.497}, {"pitch": 60, "velocity": 80, "note_on_time": 4.496, "note_off_time": 4.747}, {"pitch": 42, "velocity": 80, "note_on_time": 4.497, "note_off_time": 4.747}, {"pitch": 65, "velocity": 80, "note_on_time": 4.747, "note_off_time": 4.995}, {"pitch": 42, "velocity": 80, "note_on_time": 4.748, "note_off_time": 4.996}, {"pitch": 60, "velocity": 80, "note_on_time": 4.995, "note_off_time": 5.245}, {"pitch": 42, "velocity": 80, "note_on_time": 4.996, "note_off_time": 5.245}, {"pitch": 65, "velocity": 80, "note_on_time": 5.245, "note_off_time": 5.494}, {"pitch": 42, "velocity": 80, "note_on_time": 5.246, "note_off_time": 5.494}, {"pitch": 67, "velocity": 80, "note_on_time": 5.494, "note_off_time": 5.743}, {"pitch": 42, "velocity": 80, "note_on_time": 5.495, "note_off_time": 5.743}, {"pitch": 62, "velocity": 80, "note_on_time": 5.743, "note_off_time": 5.992}, {"pitch": 42, "velocity": 80, "note_on_time": 5.743, "note_off_time": 5.992}, {"pitch": 42, "velocity": 80, "note_on_time": 5.993, "note_off_time": 6.241}, {"pitch": 64, "velocity": 80, "note_on_time": 5.992, "note_off_time": 6.492}, {"pitch": 42, "velocity": 80, "note_on_time": 6.242, "note_off_time": 6.492}, {"pitch": 42, "velocity": 80, "note_on_time": 6.492, "note_off_time": 6.742}, {"pitch": 42, "velocity": 80, "note_on_time": 6.743, "note_off_time": 6.992}, {"pitch": 64, "velocity": 80, "note_on_time": 6.992, "note_off_time": 7.243}, {"pitch": 42, "velocity": 80, "note_on_time": 6.993, "note_off_time": 7.243}, {"pitch": 42, "velocity": 80, "note_on_time": 7.244, "note_off_time": 7.493}, {"pitch": 42, "velocity": 80, "note_on_time": 7.493, "note_off_time": 7.741}, {"pitch": 42, "velocity": 80, "note_on_time": 7.742, "note_off_time": 7.989}, {"pitch": 42, "velocity": 80, "note_on_time": 7.99, "note_off_time": 8.239}, {"pitch": 64, "velocity": 80, "note_on_time": 8.239, "note_off_time": 8.487}, {"pitch": 42, "velocity": 80, "note_on_time": 8.239, "note_off_time": 8.487}, {"pitch": 64, "velocity": 80, "note_on_time": 8.487, "note_off_time": 8.735}, {"pitch": 42, "velocity": 80, "note_on_time": 8.488, "note_off_time": 8.735}, {"pitch": 64, "velocity": 80, "note_on_time": 8.735, "note_off_time": 8.983}, {"pitch": 42, "velocity": 80, "note_on_time": 8.735, "note_off_time": 8.983}]</notes><options name="Option List">((4, 4), [0.5, 0.25], 3, 8, &lt;NoteRangePerHand.C_TO_G: 6&gt;, &lt;NoteRangePerHand.ONE_NOTE: 2&gt;, False, True, False, '248')</options></target_notes><trials><trial trial_no="1" timestamp="2022_12_08-10_36_33"><notes name="Played Notes">[{"pitch": 60, "velocity": 79, "note_on_time": 1.061, "note_off_time": 1.252}, {"pitch": 60, "velocity": 70, "note_on_time": 1.797, "note_off_time": 1.943}, {"pitch": 64, "velocity": 71, "note_on_time": 2.132, "note_off_time": 2.342}, {"pitch": 60, "velocity": 62, "note_on_time": 2.346, "note_off_time": 2.551}, {"pitch": 67, "velocity": 70, "note_on_time": 2.58, "note_off_time": 2.714}, {"pitch": 67, "velocity": 69, "note_on_time": 2.823, "note_off_time": 3.038}, {"pitch": 65, "velocity": 66, "note_on_time": 3.116, "note_off_time": 3.218}, {"pitch": 64, "velocity": 44, "note_on_time": 3.306, "note_off_time": 3.43}, {"pitch": 64, "velocity": 64, "note_on_time": 3.573, "note_off_time": 3.81}, {"pitch": 62, "velocity": 50, "note_on_time": 3.82, "note_off_time": 4.024}, {"pitch": 65, "velocity": 69, "note_on_time": 4.05, "note_off_time": 4.316}, {"pitch": 67, "velocity": 75, "note_on_time": 4.308, "note_off_time": 4.57}, {"pitch": 60, "velocity": 64, "note_on_time": 4.57, "note_off_time": 4.78}, {"pitch": 67, "velocity": 74, "note_on_time": 4.791, "note_off_time": 5.045}, {"pitch": 60, "velocity": 79, "note_on_time": 5.049, "note_off_time": 5.247}, {"pitch": 65, "velocity": 38, "note_on_time": 5.325, "note_off_time": 5.731}, {"pitch": 67, "velocity": 52, "note_on_time": 5.76, "note_off_time": 6.007}, {"pitch": 62, "velocity": 29, "note_on_time": 6.027, "note_off_time": 6.138}, {"pitch": 64, "velocity": 46, "note_on_time": 6.252, "note_off_time": 6.373}, {"pitch": 64, "velocity": 70, "note_on_time": 6.883, "note_off_time": 7.093}, {"pitch": 64, "velocity": 74, "note_on_time": 8.184, "note_off_time": 8.311}, {"pitch": 64, "velocity": 76, "note_on_time": 8.483, "note_off_time": 8.587}, {"pitch": 64, "velocity": 82, "note_on_time": 8.745, "note_off_time": 8.923}]</notes><guidance name="Guidance Mode">None</guidance><error name="Error value">0.15663574999999996</error></trial><trial trial_no="2" timestamp="2022_12_08-10_36_52"><notes name="Played Notes">[{"pitch": 60, "velocity": 79, "note_on_time": 1.099, "note_off_time": 1.271}, {"pitch": 60, "velocity": 70, "note_on_time": 1.895, "note_off_time": 2.082}, {"pitch": 64, "velocity": 77, "note_on_time": 2.097, "note_off_time": 2.377}, {"pitch": 60, "velocity": 66, "note_on_time": 2.35, "note_off_time": 2.584}, {"pitch": 67, "velocity": 73, "note_on_time": 2.589, "note_off_time": 2.717}, {"pitch": 67, "velocity": 77, "note_on_time": 2.86, "note_off_time": 3.121}, {"pitch": 64, "velocity": 79, "note_on_time": 3.099, "note_off_time": 3.221}, {"pitch": 64, "velocity": 68, "note_on_time": 3.316, "note_off_time": 3.442}, {"pitch": 64, "velocity": 78, "note_on_time": 3.594, "note_off_time": 3.85}, {"pitch": 62, "velocity": 65, "note_on_time": 3.843, "note_off_time": 4.073}, {"pitch": 65, "velocity": 76, "note_on_time": 4.086, "note_off_time": 4.324}, {"pitch": 67, "velocity": 75, "note_on_time": 4.316, "note_off_time": 4.605}, {"pitch": 60, "velocity": 65, "note_on_time": 4.59, "note_off_time": 4.841}, {"pitch": 65, "velocity": 71, "note_on_time": 4.838, "note_off_time": 5.059}, {"pitch": 60, "velocity": 71, "note_on_time": 5.045, "note_off_time": 5.306}, {"pitch": 65, "velocity": 74, "note_on_time": 5.304, "note_off_time": 5.559}, {"pitch": 67, "velocity": 80, "note_on_time": 5.553, "note_off_time": 5.818}, {"pitch": 62, "velocity": 65, "note_on_time": 5.787, "note_off_time": 6.02}, {"pitch": 64, "velocity": 68, "note_on_time": 6.03, "note_off_time": 6.469}, {"pitch": 64, "velocity": 72, "note_on_time": 7.07, "note_off_time": 7.21}, {"pitch": 64, "velocity": 69, "note_on_time": 8.27, "note_off_time": 8.382}, {"pitch": 64, "velocity": 72, "note_on_time": 8.533, "note_off_time": 8.645}, {"pitch": 64, "velocity": 72, "note_on_time": 8.785, "note_off_time": 8.972}]</notes><guidance name="Guidance Mode">None</guidance><error name="Error value">0.022822750000000204</error></trial><trial trial_no="3" timestamp="2022_12_08-10_37_10"><notes name="Played Notes">[{"pitch": 60, "velocity": 78, "note_on_time": 1.042, "note_off_time": 1.267}, {"pitch": 60, "velocity": 72, "note_on_time": 1.838, "note_off_time": 2.049}, {"pitch": 64, "velocity": 74, "note_on_time": 2.052, "note_off_time": 2.332}, {"pitch": 60, "velocity": 56, "note_on_time": 2.3, "note_off_time": 2.553}, {"pitch": 67, "velocity": 68, "note_on_time": 2.552, "note_off_time": 2.677}, {"pitch": 67, "velocity": 69, "note_on_time": 2.797, "note_off_time": 3.069}, {"pitch": 64, "velocity": 72, "note_on_time": 3.055, "note_off_time": 3.164}, {"pitch": 64, "velocity": 66, "note_on_time": 3.284, "note_off_time": 3.393}, {"pitch": 64, "velocity": 70, "note_on_time": 3.552, "note_off_time": 3.796}, {"pitch": 62, "velocity": 61, "note_on_time": 3.796, "note_off_time": 4.031}, {"pitch": 65, "velocity": 70, "note_on_time": 4.046, "note_off_time": 4.289}, {"pitch": 67, "velocity": 72, "note_on_time": 4.282, "note_off_time": 4.596}, {"pitch": 60, "velocity": 74, "note_on_time": 4.557, "note_off_time": 4.788}, {"pitch": 65, "velocity": 67, "note_on_time": 4.798, "note_off_time": 5.033}, {"pitch": 60, "velocity": 69, "note_on_time": 5.029, "note_off_time": 5.264}, {"pitch": 65, "velocity": 68, "note_on_time": 5.263, "note_off_time": 5.518}, {"pitch": 67, "velocity": 74, "note_on_time": 5.514, "note_off_time": 5.766}, {"pitch": 62, "velocity": 72, "note_on_time": 5.755, "note_off_time": 6.008}, {"pitch": 64, "velocity": 73, "note_on_time": 6.018, "note_off_time": 6.41}, {"pitch": 64, "velocity": 71, "note_on_time": 7.012, "note_off_time": 7.192}, {"pitch": 64, "velocity": 69, "note_on_time": 8.229, "note_off_time": 8.338}, {"pitch": 64, "velocity": 65, "note_on_time": 8.492, "note_off_time": 8.587}, {"pitch": 64, "velocity": 82, "note_on_time": 8.74, "note_off_time": 8.868}]</notes><guidance name="Guidance Mode">None</guidance><error name="Error value">0.01665525000000021</error></trial><trial trial_no="4" timestamp="2022_12_08-10_37_30"><notes name="Played Notes">[{"pitch": 60, "velocity": 70, "note_on_time": 1.048, "note_off_time": 1.251}, {"pitch": 60, "velocity": 82, "note_on_time": 1.804, "note_off_time": 2.034}, {"pitch": 64, "velocity": 72, "note_on_time": 2.043, "note_off_time": 2.311}, {"pitch": 60, "velocity": 56, "note_on_time": 2.275, "note_off_time": 2.529}, {"pitch": 67, "velocity": 72, "note_on_time": 2.532, "note_off_time": 2.651}, {"pitch": 67, "velocity": 68, "note_on_time": 2.786, "note_off_time": 3.039}, {"pitch": 64, "velocity": 78, "note_on_time": 3.026, "note_off_time": 3.135}, {"pitch": 64, "velocity": 66, "note_on_time": 3.244, "note_off_time": 3.357}, {"pitch": 64, "velocity": 64, "note_on_time": 3.504, "note_off_time": 3.74}, {"pitch": 62, "velocity": 61, "note_on_time": 3.748, "note_off_time": 3.983}, {"pitch": 65, "velocity": 70, "note_on_time": 4.002, "note_off_time": 4.232}, {"pitch": 67, "velocity": 74, "note_on_time": 4.241, "note_off_time": 4.515}, {"pitch": 60, "velocity": 71, "note_on_time": 4.497, "note_off_time": 4.749}, {"pitch": 65, "velocity": 69, "note_on_time": 4.745, "note_off_time": 5.0}, {"pitch": 60, "velocity": 62, "note_on_time": 4.992, "note_off_time": 5.235}, {"pitch": 65, "velocity": 71, "note_on_time": 5.232, "note_off_time": 5.521}, {"pitch": 67, "velocity": 79, "note_on_time": 5.503, "note_off_time": 5.758}, {"pitch": 62, "velocity": 67, "note_on_time": 5.729, "note_off_time": 5.971}, {"pitch": 64, "velocity": 71, "note_on_time": 5.98, "note_off_time": 6.308}, {"pitch": 64, "velocity": 75, "note_on_time": 7.011, "note_off_time": 7.135}, {"pitch": 64, "velocity": 72, "note_on_time": 7.743, "note_off_time": 7.848}, {"pitch": 64, "velocity": 79, "note_on_time": 8.021, "note_off_time": 8.104}, {"pitch": 64, "velocity": 84, "note_on_time": 8.261, "note_off_time": 8.382}]</notes><guidance name="Guidance Mode">None</guidance><error name="Error value">0.03956625000000012</error></trial><trial trial_no="5" timestamp="2022_12_08-10_37_51"><notes name="Played Notes">[{"pitch": 60, "velocity": 70, "note_on_time": 1.033, "note_off_time": 1.307}, {"pitch": 60, "velocity": 73, "note_on_time": 1.837, "note_off_time": 2.049}, {"pitch": 64, "velocity": 69, "note_on_time": 2.048, "note_off_time": 2.306}, {"pitch": 60, "velocity": 59, "note_on_time": 2.272, "note_off_time": 2.526}, {"pitch": 67, "velocity": 69, "note_on_time": 2.529, "note_off_time": 2.655}, {"pitch": 67, "velocity": 66, "note_on_time": 2.767, "note_off_time": 3.024}, {"pitch": 64, "velocity": 70, "note_on_time": 3.009, "note_off_time": 3.131}, {"pitch": 64, "velocity": 61, "note_on_time": 3.255, "note_off_time": 3.356}, {"pitch": 64, "velocity": 68, "note_on_time": 3.506, "note_off_time": 3.751}, {"pitch": 62, "velocity": 61, "note_on_time": 3.76, "note_off_time": 4.003}, {"pitch": 65, "velocity": 69, "note_on_time": 4.022, "note_off_time": 4.257}, {"pitch": 67, "velocity": 76, "note_on_time": 4.254, "note_off_time": 4.515}, {"pitch": 60, "velocity": 75, "note_on_time": 4.495, "note_off_time": 4.746}, {"pitch": 65, "velocity": 74, "note_on_time": 4.746, "note_off_time": 5.002}, {"pitch": 60, "velocity": 63, "note_on_time": 4.991, "note_off_time": 5.246}, {"pitch": 65, "velocity": 71, "note_on_time": 5.237, "note_off_time": 5.506}, {"pitch": 67, "velocity": 74, "note_on_time": 5.5, "note_off_time": 5.755}, {"pitch": 62, "velocity": 69, "note_on_time": 5.729, "note_off_time": 5.988}, {"pitch": 64, "velocity": 71, "note_on_time": 5.987, "note_off_time": 6.308}, {"pitch": 64, "velocity": 80, "note_on_time": 7.007, "note_off_time": 7.238}, {"pitch": 64, "velocity": 73, "note_on_time": 8.19, "note_off_time": 8.303}, {"pitch": 64, "velocity": 78, "note_on_time": 8.478, "note_off_time": 8.6}, {"pitch": 64, "velocity": 79, "note_on_time": 8.712, "note_off_time": 8.868}]</notes><guidance name="Guidance Mode">None</guidance><error name="Error value">0.020072750000000094</error></trial></trials></MIDI>