<MIDI midiNo="2022_09_12-12_21_19"><target_notes><notes name="Note List">[{"pitch": 42, "velocity": 80, "note_on_time": 0.004, "note_off_time": 0.289}, {"pitch": 42, "velocity": 80, "note_on_time": 0.289, "note_off_time": 0.585}, {"pitch": 42, "velocity": 80, "note_on_time": 0.585, "note_off_time": 0.88}, {"pitch": 42, "velocity": 80, "note_on_time": 0.88, "note_off_time": 1.161}, {"pitch": 42, "velocity": 80, "note_on_time": 1.161, "note_off_time": 1.442}, {"pitch": 62, "velocity": 80, "note_on_time": 1.161, "note_off_time": 1.735}, {"pitch": 42, "velocity": 80, "note_on_time": 1.442, "note_off_time": 1.736}, {"pitch": 62, "velocity": 80, "note_on_time": 1.735, "note_off_time": 2.028}, {"pitch": 42, "velocity": 80, "note_on_time": 1.736, "note_off_time": 2.028}, {"pitch": 42, "velocity": 80, "note_on_time": 2.029, "note_off_time": 2.323}, {"pitch": 60, "velocity": 80, "note_on_time": 2.323, "note_off_time": 2.604}, {"pitch": 42, "velocity": 80, "note_on_time": 2.323, "note_off_time": 2.604}, {"pitch": 62, "velocity": 80, "note_on_time": 2.604, "note_off_time": 2.885}, {"pitch": 42, "velocity": 80, "note_on_time": 2.604, "note_off_time": 2.885}, {"pitch": 60, "velocity": 80, "note_on_time": 2.885, "note_off_time": 3.165}, {"pitch": 42, "velocity": 80, "note_on_time": 2.885, "note_off_time": 3.166}, {"pitch": 64, "velocity": 80, "note_on_time": 3.165, "note_off_time": 3.461}, {"pitch": 42, "velocity": 80, "note_on_time": 3.166, "note_off_time": 3.461}, {"pitch": 62, "velocity": 80, "note_on_time": 3.461, "note_off_time": 3.753}, {"pitch": 42, "velocity": 80, "note_on_time": 3.461, "note_off_time": 3.754}, {"pitch": 60, "velocity": 80, "note_on_time": 3.753, "note_off_time": 4.048}, {"pitch": 42, "velocity": 80, "note_on_time": 3.754, "note_off_time": 4.049}, {"pitch": 64, "velocity": 80, "note_on_time": 4.048, "note_off_time": 4.343}, {"pitch": 42, "velocity": 80, "note_on_time": 4.049, "note_off_time": 4.343}, {"pitch": 60, "velocity": 80, "note_on_time": 4.343, "note_off_time": 4.637}, {"pitch": 42, "velocity": 80, "note_on_time": 4.343, "note_off_time": 4.637}, {"pitch": 64, "velocity": 80, "note_on_time": 4.637, "note_off_time": 4.931}, {"pitch": 42, "velocity": 80, "note_on_time": 4.637, "note_off_time": 4.931}, {"pitch": 64, "velocity": 80, "note_on_time": 4.931, "note_off_time": 5.227}, {"pitch": 42, "velocity": 80, "note_on_time": 4.931, "note_off_time": 5.227}, {"pitch": 60, "velocity": 80, "note_on_time": 5.227, "note_off_time": 5.521}, {"pitch": 42, "velocity": 80, "note_on_time": 5.227, "note_off_time": 5.521}, {"pitch": 62, "velocity": 80, "note_on_time": 5.521, "note_off_time": 5.815}, {"pitch": 42, "velocity": 80, "note_on_time": 5.522, "note_off_time": 5.816}, {"pitch": 42, "velocity": 80, "note_on_time": 5.816, "note_off_time": 6.11}, {"pitch": 62, "velocity": 80, "note_on_time": 5.815, "note_off_time": 6.405}, {"pitch": 42, "velocity": 80, "note_on_time": 6.111, "note_off_time": 6.405}, {"pitch": 42, "velocity": 80, "note_on_time": 6.405, "note_off_time": 6.7}, {"pitch": 60, "velocity": 80, "note_on_time": 6.7, "note_off_time": 6.981}, {"pitch": 42, "velocity": 80, "note_on_time": 6.7, "note_off_time": 6.981}, {"pitch": 42, "velocity": 80, "note_on_time": 6.982, "note_off_time": 7.262}, {"pitch": 60, "velocity": 80, "note_on_time": 6.981, "note_off_time": 7.558}, {"pitch": 42, "velocity": 80, "note_on_time": 7.262, "note_off_time": 7.558}, {"pitch": 42, "velocity": 80, "note_on_time": 7.558, "note_off_time": 7.853}, {"pitch": 42, "velocity": 80, "note_on_time": 7.853, "note_off_time": 8.134}, {"pitch": 62, "velocity": 80, "note_on_time": 8.134, "note_off_time": 8.416}, {"pitch": 42, "velocity": 80, "note_on_time": 8.135, "note_off_time": 8.416}, {"pitch": 62, "velocity": 80, "note_on_time": 8.416, "note_off_time": 8.71}, {"pitch": 42, "velocity": 80, "note_on_time": 8.416, "note_off_time": 8.71}, {"pitch": 42, "velocity": 80, "note_on_time": 8.71, "note_off_time": 9.005}, {"pitch": 64, "velocity": 80, "note_on_time": 9.004, "note_off_time": 9.286}, {"pitch": 42, "velocity": 80, "note_on_time": 9.005, "note_off_time": 9.287}, {"pitch": 42, "velocity": 80, "note_on_time": 9.287, "note_off_time": 9.582}, {"pitch": 64, "velocity": 80, "note_on_time": 9.582, "note_off_time": 9.878}, {"pitch": 42, "velocity": 80, "note_on_time": 9.583, "note_off_time": 9.878}, {"pitch": 64, "velocity": 80, "note_on_time": 9.878, "note_off_time": 10.173}, {"pitch": 42, "velocity": 80, "note_on_time": 9.878, "note_off_time": 10.173}, {"pitch": 64, "velocity": 80, "note_on_time": 10.173, "note_off_time": 10.467}, {"pitch": 42, "velocity": 80, "note_on_time": 10.173, "note_off_time": 10.467}]</notes><options name="Option List">((4, 4), [0.5, 0.25], 3, 8, &lt;NoteRangePerHand.THREE_NOTES: 4&gt;, &lt;NoteRangePerHand.ONE_NOTE: 2&gt;, False, True, True, 215)</options></target_notes><trials><trial trial_no="1" timestamp="2022_09_12-12_21_08"><notes name="Played Notes">[{"pitch": 62, "velocity": 79, "note_on_time": 1.275, "note_off_time": 1.634}, {"pitch": 62, "velocity": 87, "note_on_time": 1.953, "note_off_time": 2.103}, {"pitch": 60, "velocity": 94, "note_on_time": 2.25, "note_off_time": 2.396}, {"pitch": 62, "velocity": 85, "note_on_time": 2.522, "note_off_time": 2.674}, {"pitch": 60, "velocity": 93, "note_on_time": 2.846, "note_off_time": 2.965}, {"pitch": 64, "velocity": 79, "note_on_time": 3.12, "note_off_time": 3.272}, {"pitch": 62, "velocity": 84, "note_on_time": 3.457, "note_off_time": 3.583}, {"pitch": 60, "velocity": 91, "note_on_time": 3.728, "note_off_time": 3.887}, {"pitch": 64, "velocity": 82, "note_on_time": 4.025, "note_off_time": 4.179}, {"pitch": 60, "velocity": 82, "note_on_time": 4.385, "note_off_time": 4.544}, {"pitch": 64, "velocity": 85, "note_on_time": 4.777, "note_off_time": 4.892}, {"pitch": 64, "velocity": 86, "note_on_time": 5.066, "note_off_time": 5.224}, {"pitch": 60, "velocity": 94, "note_on_time": 5.381, "note_off_time": 5.558}, {"pitch": 62, "velocity": 89, "note_on_time": 5.75, "note_off_time": 5.866}, {"pitch": 62, "velocity": 92, "note_on_time": 6.061, "note_off_time": 6.489}, {"pitch": 60, "velocity": 93, "note_on_time": 6.864, "note_off_time": 7.057}, {"pitch": 60, "velocity": 96, "note_on_time": 7.373, "note_off_time": 7.752}, {"pitch": 62, "velocity": 74, "note_on_time": 8.482, "note_off_time": 8.6}, {"pitch": 62, "velocity": 81, "note_on_time": 8.77, "note_off_time": 8.89}, {"pitch": 64, "velocity": 84, "note_on_time": 9.427, "note_off_time": 9.541}, {"pitch": 64, "velocity": 84, "note_on_time": 10.007, "note_off_time": 10.101}, {"pitch": 64, "velocity": 76, "note_on_time": 10.239, "note_off_time": 10.332}]</notes><guidance name="Guidance Mode">None</guidance><error name="Error value">0.13053965000000006</error></trial><trial trial_no="2" timestamp="2022_09_12-12_21_32"><notes name="Played Notes">[{"pitch": 62, "velocity": 83, "note_on_time": 1.369, "note_off_time": 1.497}, {"pitch": 62, "velocity": 86, "note_on_time": 2.365, "note_off_time": 2.47}, {"pitch": 60, "velocity": 89, "note_on_time": 3.205, "note_off_time": 3.371}, {"pitch": 62, "velocity": 76, "note_on_time": 3.857, "note_off_time": 3.982}, {"pitch": 60, "velocity": 94, "note_on_time": 4.187, "note_off_time": 4.331}, {"pitch": 64, "velocity": 91, "note_on_time": 4.471, "note_off_time": 4.623}, {"pitch": 62, "velocity": 87, "note_on_time": 4.859, "note_off_time": 4.978}, {"pitch": 60, "velocity": 95, "note_on_time": 5.152, "note_off_time": 5.306}, {"pitch": 64, "velocity": 88, "note_on_time": 5.481, "note_off_time": 5.619}, {"pitch": 62, "velocity": 72, "note_on_time": 5.793, "note_off_time": 5.913}, {"pitch": 62, "velocity": 83, "note_on_time": 6.585, "note_off_time": 6.671}, {"pitch": 62, "velocity": 79, "note_on_time": 6.825, "note_off_time": 6.928}, {"pitch": 60, "velocity": 86, "note_on_time": 7.673, "note_off_time": 7.827}, {"pitch": 62, "velocity": 66, "note_on_time": 8.92, "note_off_time": 9.029}, {"pitch": 62, "velocity": 78, "note_on_time": 9.402, "note_off_time": 9.777}, {"pitch": 60, "velocity": 85, "note_on_time": 10.265, "note_off_time": 10.39}]</notes><guidance name="Guidance Mode">None</guidance><error name="Error value">0.89238275</error></trial><trial trial_no="3" timestamp="2022_09_12-12_21_56"><notes name="Played Notes">[{"pitch": 60, "velocity": 77, "note_on_time": 1.138, "note_off_time": 1.788}, {"pitch": 62, "velocity": 79, "note_on_time": 2.368, "note_off_time": 2.598}, {"pitch": 60, "velocity": 92, "note_on_time": 3.222, "note_off_time": 3.373}, {"pitch": 62, "velocity": 67, "note_on_time": 3.594, "note_off_time": 3.712}, {"pitch": 60, "velocity": 82, "note_on_time": 4.253, "note_off_time": 4.388}, {"pitch": 64, "velocity": 81, "note_on_time": 4.571, "note_off_time": 4.737}, {"pitch": 62, "velocity": 84, "note_on_time": 5.021, "note_off_time": 5.142}, {"pitch": 60, "velocity": 93, "note_on_time": 5.343, "note_off_time": 5.477}, {"pitch": 64, "velocity": 87, "note_on_time": 5.672, "note_off_time": 5.81}, {"pitch": 60, "velocity": 82, "note_on_time": 6.018, "note_off_time": 6.172}, {"pitch": 64, "velocity": 83, "note_on_time": 6.603, "note_off_time": 6.708}, {"pitch": 64, "velocity": 92, "note_on_time": 6.893, "note_off_time": 7.026}, {"pitch": 60, "velocity": 94, "note_on_time": 7.243, "note_off_time": 7.39}, {"pitch": 62, "velocity": 88, "note_on_time": 7.609, "note_off_time": 7.714}, {"pitch": 62, "velocity": 93, "note_on_time": 8.014, "note_off_time": 8.402}, {"pitch": 60, "velocity": 91, "note_on_time": 8.583, "note_off_time": 8.724}, {"pitch": 60, "velocity": 95, "note_on_time": 8.9, "note_off_time": 9.32}, {"pitch": 62, "velocity": 87, "note_on_time": 9.982, "note_off_time": 10.083}, {"pitch": 62, "velocity": 85, "note_on_time": 10.266, "note_off_time": 10.387}]</notes><guidance name="Guidance Mode">None</guidance><error name="Error value">1.00043965</error></trial></trials></MIDI>