<MIDI midiNo="2022_11_21-18_15_15"><target_notes><notes name="Note List">[{"pitch": 42, "velocity": 80, "note_on_time": 0.003, "note_off_time": 0.348}, {"pitch": 42, "velocity": 80, "note_on_time": 0.348, "note_off_time": 0.692}, {"pitch": 42, "velocity": 80, "note_on_time": 0.692, "note_off_time": 1.035}, {"pitch": 42, "velocity": 80, "note_on_time": 1.035, "note_off_time": 1.378}, {"pitch": 64, "velocity": 80, "note_on_time": 1.378, "note_off_time": 1.72}, {"pitch": 42, "velocity": 80, "note_on_time": 1.379, "note_off_time": 1.72}, {"pitch": 64, "velocity": 80, "note_on_time": 1.72, "note_off_time": 2.052}, {"pitch": 42, "velocity": 80, "note_on_time": 1.721, "note_off_time": 2.052}, {"pitch": 60, "velocity": 80, "note_on_time": 2.052, "note_off_time": 2.394}, {"pitch": 42, "velocity": 80, "note_on_time": 2.053, "note_off_time": 2.394}, {"pitch": 65, "velocity": 80, "note_on_time": 2.394, "note_off_time": 2.736}, {"pitch": 42, "velocity": 80, "note_on_time": 2.394, "note_off_time": 2.736}, {"pitch": 42, "velocity": 80, "note_on_time": 2.737, "note_off_time": 3.076}, {"pitch": 64, "velocity": 80, "note_on_time": 2.736, "note_off_time": 3.419}, {"pitch": 42, "velocity": 80, "note_on_time": 3.077, "note_off_time": 3.419}, {"pitch": 42, "velocity": 80, "note_on_time": 3.42, "note_off_time": 3.763}, {"pitch": 42, "velocity": 80, "note_on_time": 3.763, "note_off_time": 4.105}, {"pitch": 67, "velocity": 80, "note_on_time": 4.105, "note_off_time": 4.45}, {"pitch": 42, "velocity": 80, "note_on_time": 4.105, "note_off_time": 4.45}, {"pitch": 65, "velocity": 80, "note_on_time": 4.45, "note_off_time": 4.793}, {"pitch": 42, "velocity": 80, "note_on_time": 4.451, "note_off_time": 4.793}, {"pitch": 64, "velocity": 80, "note_on_time": 4.793, "note_off_time": 5.135}, {"pitch": 42, "velocity": 80, "note_on_time": 4.793, "note_off_time": 5.135}, {"pitch": 60, "velocity": 80, "note_on_time": 5.135, "note_off_time": 5.476}, {"pitch": 42, "velocity": 80, "note_on_time": 5.136, "note_off_time": 5.477}, {"pitch": 67, "velocity": 80, "note_on_time": 5.476, "note_off_time": 5.82}, {"pitch": 42, "velocity": 80, "note_on_time": 5.477, "note_off_time": 5.82}, {"pitch": 42, "velocity": 80, "note_on_time": 5.821, "note_off_time": 6.163}, {"pitch": 42, "velocity": 80, "note_on_time": 6.163, "note_off_time": 6.506}, {"pitch": 42, "velocity": 80, "note_on_time": 6.506, "note_off_time": 6.846}, {"pitch": 65, "velocity": 80, "note_on_time": 6.846, "note_off_time": 7.189}, {"pitch": 42, "velocity": 80, "note_on_time": 6.846, "note_off_time": 7.189}, {"pitch": 60, "velocity": 80, "note_on_time": 7.189, "note_off_time": 7.531}, {"pitch": 42, "velocity": 80, "note_on_time": 7.189, "note_off_time": 7.532}, {"pitch": 65, "velocity": 80, "note_on_time": 7.531, "note_off_time": 7.877}, {"pitch": 42, "velocity": 80, "note_on_time": 7.532, "note_off_time": 7.877}, {"pitch": 64, "velocity": 80, "note_on_time": 7.877, "note_off_time": 8.219}, {"pitch": 42, "velocity": 80, "note_on_time": 7.877, "note_off_time": 8.219}, {"pitch": 64, "velocity": 80, "note_on_time": 8.219, "note_off_time": 8.561}, {"pitch": 42, "velocity": 80, "note_on_time": 8.22, "note_off_time": 8.562}, {"pitch": 62, "velocity": 80, "note_on_time": 8.561, "note_off_time": 8.904}, {"pitch": 42, "velocity": 80, "note_on_time": 8.562, "note_off_time": 8.904}, {"pitch": 62, "velocity": 80, "note_on_time": 8.904, "note_off_time": 9.247}, {"pitch": 42, "velocity": 80, "note_on_time": 8.905, "note_off_time": 9.247}, {"pitch": 60, "velocity": 80, "note_on_time": 9.247, "note_off_time": 9.588}, {"pitch": 42, "velocity": 80, "note_on_time": 9.248, "note_off_time": 9.589}, {"pitch": 42, "velocity": 80, "note_on_time": 9.589, "note_off_time": 9.932}, {"pitch": 67, "velocity": 80, "note_on_time": 9.588, "note_off_time": 10.271}, {"pitch": 42, "velocity": 80, "note_on_time": 9.932, "note_off_time": 10.272}, {"pitch": 42, "velocity": 80, "note_on_time": 10.272, "note_off_time": 10.616}, {"pitch": 42, "velocity": 80, "note_on_time": 10.616, "note_off_time": 10.956}, {"pitch": 42, "velocity": 80, "note_on_time": 10.956, "note_off_time": 11.301}, {"pitch": 67, "velocity": 80, "note_on_time": 11.3, "note_off_time": 11.641}, {"pitch": 42, "velocity": 80, "note_on_time": 11.301, "note_off_time": 11.641}, {"pitch": 67, "velocity": 80, "note_on_time": 11.641, "note_off_time": 11.985}, {"pitch": 42, "velocity": 80, "note_on_time": 11.641, "note_off_time": 11.985}, {"pitch": 67, "velocity": 80, "note_on_time": 11.985, "note_off_time": 12.326}, {"pitch": 42, "velocity": 80, "note_on_time": 11.985, "note_off_time": 12.327}]</notes><options name="Option List">((4, 4), [0.5, 0.25], 3, 8, &lt;NoteRangePerHand.C_TO_G: 6&gt;, &lt;NoteRangePerHand.ONE_NOTE: 2&gt;, False, True, False, '182')</options></target_notes><trials><trial trial_no="1" timestamp="2022_11_21-18_15_01"><notes name="Played Notes">[{"pitch": 64, "velocity": 100, "note_on_time": 1.403, "note_off_time": 1.492}, {"pitch": 64, "velocity": 93, "note_on_time": 1.728, "note_off_time": 2.055}, {"pitch": 60, "velocity": 92, "note_on_time": 2.057, "note_off_time": 2.42}, {"pitch": 65, "velocity": 89, "note_on_time": 2.395, "note_off_time": 2.719}, {"pitch": 62, "velocity": 96, "note_on_time": 2.738, "note_off_time": 3.128}, {"pitch": 67, "velocity": 94, "note_on_time": 4.113, "note_off_time": 4.463}, {"pitch": 65, "velocity": 86, "note_on_time": 4.446, "note_off_time": 4.828}, {"pitch": 60, "velocity": 90, "note_on_time": 4.86, "note_off_time": 5.208}, {"pitch": 67, "velocity": 96, "note_on_time": 5.196, "note_off_time": 5.57}, {"pitch": 65, "velocity": 102, "note_on_time": 6.407, "note_off_time": 6.783}, {"pitch": 60, "velocity": 85, "note_on_time": 6.801, "note_off_time": 7.231}, {"pitch": 65, "velocity": 90, "note_on_time": 7.198, "note_off_time": 7.543}, {"pitch": 64, "velocity": 88, "note_on_time": 7.534, "note_off_time": 7.927}, {"pitch": 62, "velocity": 91, "note_on_time": 7.915, "note_off_time": 8.013}, {"pitch": 64, "velocity": 92, "note_on_time": 8.196, "note_off_time": 8.369}, {"pitch": 62, "velocity": 89, "note_on_time": 8.527, "note_off_time": 8.634}, {"pitch": 60, "velocity": 76, "note_on_time": 8.878, "note_off_time": 8.972}, {"pitch": 62, "velocity": 69, "note_on_time": 8.874, "note_off_time": 8.985}, {"pitch": 60, "velocity": 92, "note_on_time": 9.237, "note_off_time": 9.601}, {"pitch": 67, "velocity": 94, "note_on_time": 9.584, "note_off_time": 9.894}, {"pitch": 67, "velocity": 95, "note_on_time": 10.503, "note_off_time": 10.593}, {"pitch": 67, "velocity": 92, "note_on_time": 10.892, "note_off_time": 10.967}, {"pitch": 67, "velocity": 95, "note_on_time": 11.253, "note_off_time": 11.344}]</notes><guidance name="Guidance Mode">None</guidance><error name="Error value">0.728016315789473</error></trial><trial trial_no="2" timestamp="2022_11_21-18_15_24"><notes name="Played Notes">[{"pitch": 64, "velocity": 97, "note_on_time": 1.399, "note_off_time": 1.481}, {"pitch": 64, "velocity": 89, "note_on_time": 1.739, "note_off_time": 2.07}, {"pitch": 60, "velocity": 88, "note_on_time": 2.067, "note_off_time": 2.447}, {"pitch": 65, "velocity": 87, "note_on_time": 2.413, "note_off_time": 2.679}, {"pitch": 65, "velocity": 94, "note_on_time": 2.769, "note_off_time": 3.507}, {"pitch": 67, "velocity": 98, "note_on_time": 4.117, "note_off_time": 4.472}, {"pitch": 65, "velocity": 86, "note_on_time": 4.455, "note_off_time": 4.803}, {"pitch": 64, "velocity": 80, "note_on_time": 4.782, "note_off_time": 5.118}, {"pitch": 60, "velocity": 87, "note_on_time": 5.128, "note_off_time": 5.503}, {"pitch": 67, "velocity": 94, "note_on_time": 5.481, "note_off_time": 5.945}, {"pitch": 65, "velocity": 99, "note_on_time": 6.845, "note_off_time": 7.187}, {"pitch": 60, "velocity": 86, "note_on_time": 7.197, "note_off_time": 7.574}, {"pitch": 65, "velocity": 90, "note_on_time": 7.546, "note_off_time": 7.888}, {"pitch": 64, "velocity": 93, "note_on_time": 7.876, "note_off_time": 7.966}, {"pitch": 64, "velocity": 99, "note_on_time": 8.226, "note_off_time": 8.49}, {"pitch": 62, "velocity": 90, "note_on_time": 8.554, "note_off_time": 8.628}, {"pitch": 62, "velocity": 104, "note_on_time": 8.903, "note_off_time": 9.233}, {"pitch": 60, "velocity": 85, "note_on_time": 9.222, "note_off_time": 9.636}, {"pitch": 67, "velocity": 102, "note_on_time": 9.623, "note_off_time": 10.018}, {"pitch": 67, "velocity": 100, "note_on_time": 10.693, "note_off_time": 10.776}, {"pitch": 67, "velocity": 99, "note_on_time": 11.009, "note_off_time": 11.086}, {"pitch": 67, "velocity": 96, "note_on_time": 11.346, "note_off_time": 11.478}]</notes><guidance name="Guidance Mode">None</guidance><error name="Error value">0.10234894736842115</error></trial><trial trial_no="3" timestamp="2022_11_21-18_15_48"><notes name="Played Notes">[{"pitch": 64, "velocity": 102, "note_on_time": 1.38, "note_off_time": 1.46}, {"pitch": 64, "velocity": 91, "note_on_time": 1.722, "note_off_time": 2.061}, {"pitch": 60, "velocity": 93, "note_on_time": 2.06, "note_off_time": 2.454}, {"pitch": 65, "velocity": 92, "note_on_time": 2.412, "note_off_time": 2.781}, {"pitch": 64, "velocity": 99, "note_on_time": 2.758, "note_off_time": 3.41}, {"pitch": 67, "velocity": 99, "note_on_time": 4.091, "note_off_time": 4.461}, {"pitch": 65, "velocity": 91, "note_on_time": 4.444, "note_off_time": 4.792}, {"pitch": 64, "velocity": 86, "note_on_time": 4.788, "note_off_time": 5.121}, {"pitch": 60, "velocity": 92, "note_on_time": 5.124, "note_off_time": 5.52}, {"pitch": 67, "velocity": 100, "note_on_time": 5.491, "note_off_time": 5.942}, {"pitch": 65, "velocity": 100, "note_on_time": 6.853, "note_off_time": 7.18}, {"pitch": 60, "velocity": 84, "note_on_time": 7.19, "note_off_time": 7.559}, {"pitch": 65, "velocity": 94, "note_on_time": 7.524, "note_off_time": 7.938}, {"pitch": 64, "velocity": 92, "note_on_time": 7.896, "note_off_time": 8.001}, {"pitch": 64, "velocity": 104, "note_on_time": 8.223, "note_off_time": 8.571}, {"pitch": 62, "velocity": 94, "note_on_time": 8.571, "note_off_time": 8.629}, {"pitch": 62, "velocity": 102, "note_on_time": 8.892, "note_off_time": 9.258}, {"pitch": 60, "velocity": 95, "note_on_time": 9.254, "note_off_time": 9.642}, {"pitch": 67, "velocity": 103, "note_on_time": 9.617, "note_off_time": 10.059}, {"pitch": 67, "velocity": 92, "note_on_time": 10.61, "note_off_time": 10.688}, {"pitch": 67, "velocity": 93, "note_on_time": 10.96, "note_off_time": 11.038}, {"pitch": 67, "velocity": 105, "note_on_time": 11.297, "note_off_time": 11.405}]</notes><guidance name="Guidance Mode">None</guidance><error name="Error value">0.054242631578947535</error></trial><trial trial_no="4" timestamp="2022_11_21-18_16_11"><notes name="Played Notes">[{"pitch": 64, "velocity": 102, "note_on_time": 1.361, "note_off_time": 1.431}, {"pitch": 64, "velocity": 96, "note_on_time": 1.72, "note_off_time": 2.057}, {"pitch": 60, "velocity": 87, "note_on_time": 2.056, "note_off_time": 2.434}, {"pitch": 65, "velocity": 94, "note_on_time": 2.409, "note_off_time": 2.749}, {"pitch": 64, "velocity": 95, "note_on_time": 2.761, "note_off_time": 3.534}, {"pitch": 67, "velocity": 96, "note_on_time": 4.133, "note_off_time": 4.471}, {"pitch": 65, "velocity": 91, "note_on_time": 4.467, "note_off_time": 4.809}, {"pitch": 64, "velocity": 88, "note_on_time": 4.812, "note_off_time": 5.117}, {"pitch": 60, "velocity": 80, "note_on_time": 5.126, "note_off_time": 5.527}, {"pitch": 67, "velocity": 93, "note_on_time": 5.507, "note_off_time": 6.313}, {"pitch": 65, "velocity": 98, "note_on_time": 6.749, "note_off_time": 7.143}, {"pitch": 60, "velocity": 77, "note_on_time": 7.158, "note_off_time": 7.546}, {"pitch": 65, "velocity": 91, "note_on_time": 7.51, "note_off_time": 7.887}, {"pitch": 64, "velocity": 98, "note_on_time": 7.861, "note_off_time": 7.933}, {"pitch": 64, "velocity": 100, "note_on_time": 8.215, "note_off_time": 8.553}, {"pitch": 62, "velocity": 94, "note_on_time": 8.555, "note_off_time": 8.594}, {"pitch": 62, "velocity": 98, "note_on_time": 8.898, "note_off_time": 9.222}, {"pitch": 60, "velocity": 83, "note_on_time": 9.23, "note_off_time": 9.626}, {"pitch": 67, "velocity": 82, "note_on_time": 9.607, "note_off_time": 10.356}, {"pitch": 67, "velocity": 94, "note_on_time": 10.672, "note_off_time": 10.735}, {"pitch": 67, "velocity": 93, "note_on_time": 10.987, "note_off_time": 11.053}, {"pitch": 67, "velocity": 95, "note_on_time": 11.336, "note_off_time": 11.419}]</notes><guidance name="Guidance Mode">None</guidance><error name="Error value">0.05978789473684203</error></trial></trials></MIDI>