<MIDI midiNo="2022_10_27-10_46_50"><target_notes><notes name="Note List">[{"pitch": 42, "velocity": 80, "note_on_time": 0.004, "note_off_time": 0.757}, {"pitch": 42, "velocity": 80, "note_on_time": 0.758, "note_off_time": 1.504}, {"pitch": 42, "velocity": 80, "note_on_time": 1.504, "note_off_time": 2.254}, {"pitch": 42, "velocity": 80, "note_on_time": 2.254, "note_off_time": 3.001}, {"pitch": 60, "velocity": 80, "note_on_time": 3.001, "note_off_time": 3.747}, {"pitch": 42, "velocity": 80, "note_on_time": 3.002, "note_off_time": 3.747}, {"pitch": 42, "velocity": 80, "note_on_time": 3.748, "note_off_time": 4.494}, {"pitch": 42, "velocity": 80, "note_on_time": 4.494, "note_off_time": 5.243}, {"pitch": 42, "velocity": 80, "note_on_time": 5.243, "note_off_time": 5.99}, {"pitch": 60, "velocity": 80, "note_on_time": 5.99, "note_off_time": 6.739}, {"pitch": 42, "velocity": 80, "note_on_time": 5.99, "note_off_time": 6.74}, {"pitch": 42, "velocity": 80, "note_on_time": 6.74, "note_off_time": 7.483}, {"pitch": 42, "velocity": 80, "note_on_time": 7.483, "note_off_time": 8.23}, {"pitch": 62, "velocity": 80, "note_on_time": 8.23, "note_off_time": 8.978}, {"pitch": 42, "velocity": 80, "note_on_time": 8.231, "note_off_time": 8.978}, {"pitch": 60, "velocity": 80, "note_on_time": 8.978, "note_off_time": 9.725}, {"pitch": 42, "velocity": 80, "note_on_time": 8.979, "note_off_time": 9.726}, {"pitch": 62, "velocity": 80, "note_on_time": 9.725, "note_off_time": 10.472}, {"pitch": 42, "velocity": 80, "note_on_time": 9.726, "note_off_time": 10.473}, {"pitch": 62, "velocity": 80, "note_on_time": 10.472, "note_off_time": 11.218}, {"pitch": 42, "velocity": 80, "note_on_time": 10.473, "note_off_time": 11.219}, {"pitch": 60, "velocity": 80, "note_on_time": 11.218, "note_off_time": 11.964}, {"pitch": 42, "velocity": 80, "note_on_time": 11.219, "note_off_time": 11.964}, {"pitch": 62, "velocity": 80, "note_on_time": 11.964, "note_off_time": 12.713}, {"pitch": 42, "velocity": 80, "note_on_time": 11.964, "note_off_time": 12.713}, {"pitch": 62, "velocity": 80, "note_on_time": 12.713, "note_off_time": 13.459}, {"pitch": 42, "velocity": 80, "note_on_time": 12.713, "note_off_time": 13.46}, {"pitch": 60, "velocity": 80, "note_on_time": 13.459, "note_off_time": 14.216}, {"pitch": 42, "velocity": 80, "note_on_time": 13.46, "note_off_time": 14.216}, {"pitch": 62, "velocity": 80, "note_on_time": 14.216, "note_off_time": 14.96}, {"pitch": 42, "velocity": 80, "note_on_time": 14.217, "note_off_time": 14.96}, {"pitch": 62, "velocity": 80, "note_on_time": 14.96, "note_off_time": 15.708}, {"pitch": 42, "velocity": 80, "note_on_time": 14.961, "note_off_time": 15.708}, {"pitch": 62, "velocity": 80, "note_on_time": 15.708, "note_off_time": 16.457}, {"pitch": 42, "velocity": 80, "note_on_time": 15.708, "note_off_time": 16.457}, {"pitch": 62, "velocity": 80, "note_on_time": 16.457, "note_off_time": 17.205}, {"pitch": 42, "velocity": 80, "note_on_time": 16.458, "note_off_time": 17.205}, {"pitch": 62, "velocity": 80, "note_on_time": 17.205, "note_off_time": 17.95}, {"pitch": 42, "velocity": 80, "note_on_time": 17.206, "note_off_time": 17.951}, {"pitch": 62, "velocity": 80, "note_on_time": 17.95, "note_off_time": 18.699}, {"pitch": 42, "velocity": 80, "note_on_time": 17.951, "note_off_time": 18.7}, {"pitch": 42, "velocity": 80, "note_on_time": 18.7, "note_off_time": 19.444}, {"pitch": 42, "velocity": 80, "note_on_time": 19.444, "note_off_time": 20.192}, {"pitch": 42, "velocity": 80, "note_on_time": 20.193, "note_off_time": 20.938}, {"pitch": 62, "velocity": 80, "note_on_time": 20.938, "note_off_time": 21.687}, {"pitch": 42, "velocity": 80, "note_on_time": 20.938, "note_off_time": 21.687}, {"pitch": 42, "velocity": 80, "note_on_time": 21.687, "note_off_time": 22.432}, {"pitch": 62, "velocity": 80, "note_on_time": 22.432, "note_off_time": 23.179}, {"pitch": 42, "velocity": 80, "note_on_time": 22.432, "note_off_time": 23.179}, {"pitch": 42, "velocity": 80, "note_on_time": 23.18, "note_off_time": 23.927}, {"pitch": 42, "velocity": 80, "note_on_time": 23.927, "note_off_time": 24.674}, {"pitch": 62, "velocity": 80, "note_on_time": 24.674, "note_off_time": 25.422}, {"pitch": 42, "velocity": 80, "note_on_time": 24.675, "note_off_time": 25.422}, {"pitch": 62, "velocity": 80, "note_on_time": 25.422, "note_off_time": 26.171}, {"pitch": 42, "velocity": 80, "note_on_time": 25.423, "note_off_time": 26.171}, {"pitch": 62, "velocity": 80, "note_on_time": 26.171, "note_off_time": 26.919}, {"pitch": 42, "velocity": 80, "note_on_time": 26.172, "note_off_time": 26.919}]</notes><options name="Option List">((4, 4), [0.25], 3, 8, &lt;NoteRangePerHand.TWO_NOTES: 3&gt;, &lt;NoteRangePerHand.ONE_NOTE: 2&gt;, False, True, False, '81')</options></target_notes><trials><trial trial_no="1" timestamp="2022_10_27-10_46_21"><notes name="Played Notes">[{"pitch": 60, "velocity": 70, "note_on_time": 3.075, "note_off_time": 3.33}, {"pitch": 60, "velocity": 66, "note_on_time": 6.571, "note_off_time": 6.816}, {"pitch": 62, "velocity": 58, "note_on_time": 9.519, "note_off_time": 9.763}, {"pitch": 60, "velocity": 47, "note_on_time": 10.113, "note_off_time": 10.271}, {"pitch": 62, "velocity": 38, "note_on_time": 11.125, "note_off_time": 11.35}, {"pitch": 62, "velocity": 59, "note_on_time": 11.721, "note_off_time": 11.922}, {"pitch": 60, "velocity": 70, "note_on_time": 12.356, "note_off_time": 12.544}, {"pitch": 62, "velocity": 68, "note_on_time": 12.981, "note_off_time": 13.154}, {"pitch": 62, "velocity": 66, "note_on_time": 13.562, "note_off_time": 13.756}, {"pitch": 60, "velocity": 65, "note_on_time": 14.179, "note_off_time": 14.385}, {"pitch": 62, "velocity": 67, "note_on_time": 14.799, "note_off_time": 14.998}, {"pitch": 62, "velocity": 60, "note_on_time": 15.333, "note_off_time": 15.52}, {"pitch": 62, "velocity": 65, "note_on_time": 15.888, "note_off_time": 16.075}, {"pitch": 62, "velocity": 65, "note_on_time": 16.444, "note_off_time": 16.634}, {"pitch": 62, "velocity": 65, "note_on_time": 17.021, "note_off_time": 17.198}, {"pitch": 62, "velocity": 68, "note_on_time": 17.643, "note_off_time": 17.819}, {"pitch": 62, "velocity": 55, "note_on_time": 21.117, "note_off_time": 21.277}, {"pitch": 62, "velocity": 54, "note_on_time": 22.348, "note_off_time": 22.531}, {"pitch": 62, "velocity": 62, "note_on_time": 24.493, "note_off_time": 24.706}, {"pitch": 62, "velocity": 60, "note_on_time": 25.137, "note_off_time": 25.311}, {"pitch": 62, "velocity": 59, "note_on_time": 25.752, "note_off_time": 25.929}]</notes><guidance name="Guidance Mode">None</guidance><error name="Error value">0.2426766666666668</error></trial><trial trial_no="2" timestamp="2022_10_27-10_47_02"><notes name="Played Notes">[{"pitch": 60, "velocity": 67, "note_on_time": 2.931, "note_off_time": 3.19}, {"pitch": 60, "velocity": 77, "note_on_time": 6.633, "note_off_time": 6.88}, {"pitch": 62, "velocity": 41, "note_on_time": 9.689, "note_off_time": 9.92}, {"pitch": 60, "velocity": 59, "note_on_time": 10.382, "note_off_time": 10.551}, {"pitch": 62, "velocity": 52, "note_on_time": 11.047, "note_off_time": 11.237}, {"pitch": 62, "velocity": 57, "note_on_time": 11.69, "note_off_time": 11.862}, {"pitch": 60, "velocity": 64, "note_on_time": 12.348, "note_off_time": 12.528}, {"pitch": 62, "velocity": 59, "note_on_time": 13.012, "note_off_time": 13.183}, {"pitch": 62, "velocity": 61, "note_on_time": 13.649, "note_off_time": 13.811}, {"pitch": 60, "velocity": 69, "note_on_time": 14.286, "note_off_time": 14.478}, {"pitch": 62, "velocity": 48, "note_on_time": 14.973, "note_off_time": 15.184}, {"pitch": 62, "velocity": 59, "note_on_time": 15.6, "note_off_time": 15.789}, {"pitch": 62, "velocity": 62, "note_on_time": 16.217, "note_off_time": 16.411}, {"pitch": 62, "velocity": 63, "note_on_time": 16.818, "note_off_time": 16.996}, {"pitch": 62, "velocity": 63, "note_on_time": 17.458, "note_off_time": 17.619}, {"pitch": 62, "velocity": 70, "note_on_time": 18.135, "note_off_time": 18.301}, {"pitch": 62, "velocity": 62, "note_on_time": 20.89, "note_off_time": 21.091}, {"pitch": 62, "velocity": 28, "note_on_time": 21.916, "note_off_time": 22.078}, {"pitch": 62, "velocity": 70, "note_on_time": 23.847, "note_off_time": 24.055}, {"pitch": 62, "velocity": 74, "note_on_time": 24.523, "note_off_time": 24.648}, {"pitch": 62, "velocity": 62, "note_on_time": 25.25, "note_off_time": 25.356}]</notes><guidance name="Guidance Mode">None</guidance><error name="Error value">0.21053222222222218</error></trial><trial trial_no="3" timestamp="2022_10_27-10_47_44"><notes name="Played Notes">[{"pitch": 60, "velocity": 74, "note_on_time": 4.456, "note_off_time": 4.702}, {"pitch": 60, "velocity": 66, "note_on_time": 8.18, "note_off_time": 8.388}, {"pitch": 62, "velocity": 50, "note_on_time": 11.557, "note_off_time": 11.78}, {"pitch": 60, "velocity": 62, "note_on_time": 12.148, "note_off_time": 12.326}, {"pitch": 62, "velocity": 54, "note_on_time": 12.722, "note_off_time": 12.892}, {"pitch": 62, "velocity": 68, "note_on_time": 13.306, "note_off_time": 13.498}, {"pitch": 60, "velocity": 70, "note_on_time": 13.955, "note_off_time": 14.114}, {"pitch": 62, "velocity": 65, "note_on_time": 14.602, "note_off_time": 14.761}, {"pitch": 62, "velocity": 59, "note_on_time": 15.154, "note_off_time": 15.343}, {"pitch": 60, "velocity": 62, "note_on_time": 15.77, "note_off_time": 15.934}, {"pitch": 62, "velocity": 57, "note_on_time": 16.389, "note_off_time": 16.571}, {"pitch": 62, "velocity": 62, "note_on_time": 16.975, "note_off_time": 17.14}, {"pitch": 62, "velocity": 55, "note_on_time": 17.545, "note_off_time": 17.741}, {"pitch": 62, "velocity": 67, "note_on_time": 18.18, "note_off_time": 18.36}, {"pitch": 62, "velocity": 62, "note_on_time": 18.803, "note_off_time": 18.99}, {"pitch": 62, "velocity": 71, "note_on_time": 19.428, "note_off_time": 19.633}, {"pitch": 62, "velocity": 64, "note_on_time": 23.06, "note_off_time": 23.214}, {"pitch": 62, "velocity": 62, "note_on_time": 24.621, "note_off_time": 24.776}]</notes><guidance name="Guidance Mode">None</guidance><error name="Error value">0.5314277777777777</error></trial><trial trial_no="4" timestamp="2022_10_27-10_48_26"><notes name="Played Notes">[{"pitch": 60, "velocity": 63, "note_on_time": 3.024, "note_off_time": 3.237}, {"pitch": 60, "velocity": 64, "note_on_time": 5.904, "note_off_time": 6.091}, {"pitch": 62, "velocity": 32, "note_on_time": 8.858, "note_off_time": 9.081}, {"pitch": 60, "velocity": 56, "note_on_time": 9.517, "note_off_time": 9.684}, {"pitch": 62, "velocity": 55, "note_on_time": 10.114, "note_off_time": 10.285}, {"pitch": 62, "velocity": 54, "note_on_time": 10.686, "note_off_time": 10.849}, {"pitch": 60, "velocity": 63, "note_on_time": 11.33, "note_off_time": 11.496}, {"pitch": 62, "velocity": 61, "note_on_time": 11.938, "note_off_time": 12.122}, {"pitch": 62, "velocity": 56, "note_on_time": 12.563, "note_off_time": 12.758}, {"pitch": 60, "velocity": 56, "note_on_time": 13.221, "note_off_time": 13.416}, {"pitch": 62, "velocity": 63, "note_on_time": 13.891, "note_off_time": 14.055}, {"pitch": 62, "velocity": 59, "note_on_time": 14.484, "note_off_time": 14.643}, {"pitch": 62, "velocity": 59, "note_on_time": 15.117, "note_off_time": 15.278}, {"pitch": 62, "velocity": 60, "note_on_time": 15.751, "note_off_time": 15.924}, {"pitch": 62, "velocity": 53, "note_on_time": 16.377, "note_off_time": 16.538}, {"pitch": 62, "velocity": 56, "note_on_time": 17.051, "note_off_time": 17.212}, {"pitch": 62, "velocity": 61, "note_on_time": 19.44, "note_off_time": 19.591}, {"pitch": 62, "velocity": 65, "note_on_time": 20.831, "note_off_time": 21.004}, {"pitch": 62, "velocity": 60, "note_on_time": 22.264, "note_off_time": 22.421}, {"pitch": 62, "velocity": 61, "note_on_time": 22.932, "note_off_time": 23.08}, {"pitch": 62, "velocity": 67, "note_on_time": 23.623, "note_off_time": 23.769}]</notes><guidance name="Guidance Mode">None</guidance><error name="Error value">0.21263888888888882</error></trial><trial trial_no="5" timestamp="2022_10_27-10_49_06"><notes name="Played Notes">[{"pitch": 60, "velocity": 67, "note_on_time": 2.982, "note_off_time": 3.222}, {"pitch": 60, "velocity": 47, "note_on_time": 6.71, "note_off_time": 6.92}, {"pitch": 64, "velocity": 49, "note_on_time": 10.459, "note_off_time": 10.683}, {"pitch": 62, "velocity": 47, "note_on_time": 12.199, "note_off_time": 12.397}, {"pitch": 60, "velocity": 60, "note_on_time": 12.797, "note_off_time": 12.961}, {"pitch": 62, "velocity": 42, "note_on_time": 15.563, "note_off_time": 15.779}, {"pitch": 62, "velocity": 47, "note_on_time": 16.146, "note_off_time": 16.325}, {"pitch": 62, "velocity": 41, "note_on_time": 17.083, "note_off_time": 17.264}, {"pitch": 62, "velocity": 48, "note_on_time": 17.706, "note_off_time": 17.891}, {"pitch": 62, "velocity": 46, "note_on_time": 18.33, "note_off_time": 18.492}, {"pitch": 62, "velocity": 51, "note_on_time": 18.994, "note_off_time": 19.166}, {"pitch": 62, "velocity": 49, "note_on_time": 19.665, "note_off_time": 19.827}, {"pitch": 62, "velocity": 54, "note_on_time": 23.245, "note_off_time": 23.406}, {"pitch": 62, "velocity": 49, "note_on_time": 24.742, "note_off_time": 24.929}, {"pitch": 62, "velocity": 66, "note_on_time": 26.128, "note_off_time": 26.291}]</notes><guidance name="Guidance Mode">None</guidance><error name="Error value">0.8975822222222224</error></trial></trials></MIDI>