<MIDI midiNo="2022_10_27-10_43_23"><target_notes><notes name="Note List">[{"pitch": 42, "velocity": 80, "note_on_time": 0.004, "note_off_time": 0.527}, {"pitch": 42, "velocity": 80, "note_on_time": 0.527, "note_off_time": 1.055}, {"pitch": 42, "velocity": 80, "note_on_time": 1.055, "note_off_time": 1.586}, {"pitch": 42, "velocity": 80, "note_on_time": 1.586, "note_off_time": 2.114}, {"pitch": 60, "velocity": 80, "note_on_time": 2.114, "note_off_time": 2.641}, {"pitch": 42, "velocity": 80, "note_on_time": 2.114, "note_off_time": 2.641}, {"pitch": 42, "velocity": 80, "note_on_time": 2.641, "note_off_time": 3.17}, {"pitch": 42, "velocity": 80, "note_on_time": 3.171, "note_off_time": 3.699}, {"pitch": 42, "velocity": 80, "note_on_time": 3.699, "note_off_time": 4.23}, {"pitch": 62, "velocity": 80, "note_on_time": 4.23, "note_off_time": 4.758}, {"pitch": 42, "velocity": 80, "note_on_time": 4.23, "note_off_time": 4.759}, {"pitch": 62, "velocity": 80, "note_on_time": 4.758, "note_off_time": 5.286}, {"pitch": 42, "velocity": 80, "note_on_time": 4.759, "note_off_time": 5.286}, {"pitch": 60, "velocity": 80, "note_on_time": 5.286, "note_off_time": 5.815}, {"pitch": 42, "velocity": 80, "note_on_time": 5.286, "note_off_time": 5.815}, {"pitch": 60, "velocity": 80, "note_on_time": 5.815, "note_off_time": 6.343}, {"pitch": 42, "velocity": 80, "note_on_time": 5.816, "note_off_time": 6.343}, {"pitch": 62, "velocity": 80, "note_on_time": 6.343, "note_off_time": 6.873}, {"pitch": 42, "velocity": 80, "note_on_time": 6.343, "note_off_time": 6.873}, {"pitch": 42, "velocity": 80, "note_on_time": 6.874, "note_off_time": 7.405}, {"pitch": 42, "velocity": 80, "note_on_time": 7.405, "note_off_time": 7.932}, {"pitch": 42, "velocity": 80, "note_on_time": 7.933, "note_off_time": 8.46}, {"pitch": 60, "velocity": 80, "note_on_time": 8.46, "note_off_time": 8.988}, {"pitch": 42, "velocity": 80, "note_on_time": 8.461, "note_off_time": 8.988}, {"pitch": 62, "velocity": 80, "note_on_time": 8.988, "note_off_time": 9.517}, {"pitch": 42, "velocity": 80, "note_on_time": 8.989, "note_off_time": 9.518}, {"pitch": 60, "velocity": 80, "note_on_time": 9.517, "note_off_time": 10.044}, {"pitch": 42, "velocity": 80, "note_on_time": 9.518, "note_off_time": 10.044}, {"pitch": 62, "velocity": 80, "note_on_time": 10.044, "note_off_time": 10.573}, {"pitch": 42, "velocity": 80, "note_on_time": 10.044, "note_off_time": 10.573}, {"pitch": 60, "velocity": 80, "note_on_time": 10.573, "note_off_time": 11.105}, {"pitch": 42, "velocity": 80, "note_on_time": 10.574, "note_off_time": 11.105}, {"pitch": 42, "velocity": 80, "note_on_time": 11.105, "note_off_time": 11.635}, {"pitch": 42, "velocity": 80, "note_on_time": 11.635, "note_off_time": 12.165}, {"pitch": 42, "velocity": 80, "note_on_time": 12.166, "note_off_time": 12.696}, {"pitch": 60, "velocity": 80, "note_on_time": 12.696, "note_off_time": 13.224}, {"pitch": 42, "velocity": 80, "note_on_time": 12.696, "note_off_time": 13.224}, {"pitch": 42, "velocity": 80, "note_on_time": 13.225, "note_off_time": 13.752}, {"pitch": 62, "velocity": 80, "note_on_time": 13.752, "note_off_time": 14.28}, {"pitch": 42, "velocity": 80, "note_on_time": 13.752, "note_off_time": 14.281}, {"pitch": 60, "velocity": 80, "note_on_time": 14.28, "note_off_time": 14.811}, {"pitch": 42, "velocity": 80, "note_on_time": 14.281, "note_off_time": 14.811}, {"pitch": 60, "velocity": 80, "note_on_time": 14.811, "note_off_time": 15.342}, {"pitch": 42, "velocity": 80, "note_on_time": 14.811, "note_off_time": 15.342}, {"pitch": 42, "velocity": 80, "note_on_time": 15.342, "note_off_time": 15.872}, {"pitch": 62, "velocity": 80, "note_on_time": 15.872, "note_off_time": 16.399}, {"pitch": 42, "velocity": 80, "note_on_time": 15.872, "note_off_time": 16.399}, {"pitch": 42, "velocity": 80, "note_on_time": 16.399, "note_off_time": 16.932}, {"pitch": 42, "velocity": 80, "note_on_time": 16.932, "note_off_time": 17.461}, {"pitch": 62, "velocity": 80, "note_on_time": 17.461, "note_off_time": 17.989}, {"pitch": 42, "velocity": 80, "note_on_time": 17.462, "note_off_time": 17.99}, {"pitch": 62, "velocity": 80, "note_on_time": 17.989, "note_off_time": 18.515}, {"pitch": 42, "velocity": 80, "note_on_time": 17.99, "note_off_time": 18.516}, {"pitch": 62, "velocity": 80, "note_on_time": 18.515, "note_off_time": 19.042}, {"pitch": 42, "velocity": 80, "note_on_time": 18.516, "note_off_time": 19.042}]</notes><options name="Option List">((4, 4), [0.25], 3, 8, &lt;NoteRangePerHand.TWO_NOTES: 3&gt;, &lt;NoteRangePerHand.ONE_NOTE: 2&gt;, False, True, False, '116')</options></target_notes><trials><trial trial_no="1" timestamp="2022_10_27-10_43_03"><notes name="Played Notes">[{"pitch": 60, "velocity": 58, "note_on_time": 2.054, "note_off_time": 2.221}, {"pitch": 62, "velocity": 35, "note_on_time": 4.644, "note_off_time": 4.845}, {"pitch": 62, "velocity": 53, "note_on_time": 5.155, "note_off_time": 5.331}, {"pitch": 60, "velocity": 43, "note_on_time": 5.671, "note_off_time": 5.821}, {"pitch": 60, "velocity": 43, "note_on_time": 6.158, "note_off_time": 6.33}, {"pitch": 62, "velocity": 56, "note_on_time": 6.631, "note_off_time": 6.827}, {"pitch": 60, "velocity": 56, "note_on_time": 8.855, "note_off_time": 9.035}, {"pitch": 62, "velocity": 50, "note_on_time": 9.377, "note_off_time": 9.556}, {"pitch": 60, "velocity": 52, "note_on_time": 9.887, "note_off_time": 10.051}, {"pitch": 62, "velocity": 51, "note_on_time": 10.395, "note_off_time": 10.572}, {"pitch": 60, "velocity": 53, "note_on_time": 10.914, "note_off_time": 11.086}, {"pitch": 60, "velocity": 62, "note_on_time": 13.34, "note_off_time": 13.523}, {"pitch": 62, "velocity": 40, "note_on_time": 14.573, "note_off_time": 14.764}, {"pitch": 60, "velocity": 36, "note_on_time": 15.051, "note_off_time": 15.225}, {"pitch": 60, "velocity": 58, "note_on_time": 15.692, "note_off_time": 15.849}, {"pitch": 62, "velocity": 47, "note_on_time": 17.626, "note_off_time": 17.838}]</notes><guidance name="Guidance Mode">None</guidance><error name="Error value">0.4305195625000002</error></trial><trial trial_no="2" timestamp="2022_10_27-10_43_37"><notes name="Played Notes">[{"pitch": 60, "velocity": 60, "note_on_time": 1.687, "note_off_time": 1.894}, {"pitch": 62, "velocity": 24, "note_on_time": 4.245, "note_off_time": 4.397}, {"pitch": 62, "velocity": 48, "note_on_time": 4.75, "note_off_time": 4.933}, {"pitch": 60, "velocity": 46, "note_on_time": 5.254, "note_off_time": 5.423}, {"pitch": 60, "velocity": 45, "note_on_time": 5.736, "note_off_time": 5.931}, {"pitch": 62, "velocity": 63, "note_on_time": 6.228, "note_off_time": 6.418}, {"pitch": 60, "velocity": 52, "note_on_time": 8.462, "note_off_time": 8.645}, {"pitch": 62, "velocity": 58, "note_on_time": 8.979, "note_off_time": 9.145}, {"pitch": 60, "velocity": 52, "note_on_time": 9.468, "note_off_time": 9.621}, {"pitch": 62, "velocity": 42, "note_on_time": 9.956, "note_off_time": 10.15}, {"pitch": 60, "velocity": 64, "note_on_time": 10.474, "note_off_time": 10.637}, {"pitch": 60, "velocity": 64, "note_on_time": 12.682, "note_off_time": 12.856}, {"pitch": 62, "velocity": 47, "note_on_time": 13.658, "note_off_time": 13.842}, {"pitch": 60, "velocity": 55, "note_on_time": 14.223, "note_off_time": 14.379}, {"pitch": 60, "velocity": 51, "note_on_time": 14.766, "note_off_time": 14.933}, {"pitch": 62, "velocity": 32, "note_on_time": 16.052, "note_off_time": 16.248}, {"pitch": 62, "velocity": 53, "note_on_time": 17.66, "note_off_time": 17.846}, {"pitch": 62, "velocity": 56, "note_on_time": 18.199, "note_off_time": 18.342}, {"pitch": 62, "velocity": 61, "note_on_time": 18.73, "note_off_time": 18.859}]</notes><guidance name="Guidance Mode">None</guidance><error name="Error value">0.08830418750000044</error></trial><trial trial_no="3" timestamp="2022_10_27-10_44_06"><notes name="Played Notes">[{"pitch": 60, "velocity": 67, "note_on_time": 2.429, "note_off_time": 2.61}, {"pitch": 62, "velocity": 66, "note_on_time": 4.27, "note_off_time": 4.457}, {"pitch": 62, "velocity": 67, "note_on_time": 4.82, "note_off_time": 4.978}, {"pitch": 60, "velocity": 69, "note_on_time": 5.367, "note_off_time": 5.537}, {"pitch": 60, "velocity": 74, "note_on_time": 5.966, "note_off_time": 6.134}, {"pitch": 62, "velocity": 67, "note_on_time": 6.537, "note_off_time": 6.695}, {"pitch": 60, "velocity": 57, "note_on_time": 8.096, "note_off_time": 8.283}, {"pitch": 62, "velocity": 59, "note_on_time": 8.628, "note_off_time": 8.819}, {"pitch": 60, "velocity": 51, "note_on_time": 9.127, "note_off_time": 9.323}, {"pitch": 62, "velocity": 45, "note_on_time": 9.622, "note_off_time": 9.834}, {"pitch": 60, "velocity": 67, "note_on_time": 10.155, "note_off_time": 10.326}, {"pitch": 60, "velocity": 49, "note_on_time": 12.144, "note_off_time": 12.373}, {"pitch": 62, "velocity": 54, "note_on_time": 12.997, "note_off_time": 13.192}, {"pitch": 60, "velocity": 65, "note_on_time": 13.526, "note_off_time": 13.683}, {"pitch": 60, "velocity": 64, "note_on_time": 14.027, "note_off_time": 14.21}, {"pitch": 62, "velocity": 65, "note_on_time": 15.25, "note_off_time": 15.455}, {"pitch": 62, "velocity": 60, "note_on_time": 16.958, "note_off_time": 17.156}, {"pitch": 62, "velocity": 56, "note_on_time": 17.498, "note_off_time": 17.671}, {"pitch": 62, "velocity": 61, "note_on_time": 18.032, "note_off_time": 18.154}]</notes><guidance name="Guidance Mode">None</guidance><error name="Error value">0.10504518750000008</error></trial></trials></MIDI>