<MIDI midiNo="2022_12_22-10_44_44"><target_notes><notes name="Note List">[{"pitch": 42, "velocity": 80, "note_on_time": 0.004, "note_off_time": 0.73}, {"pitch": 42, "velocity": 80, "note_on_time": 0.73, "note_off_time": 1.461}, {"pitch": 42, "velocity": 80, "note_on_time": 1.462, "note_off_time": 2.194}, {"pitch": 42, "velocity": 80, "note_on_time": 2.194, "note_off_time": 2.926}, {"pitch": 62, "velocity": 80, "note_on_time": 2.925, "note_off_time": 3.657}, {"pitch": 42, "velocity": 80, "note_on_time": 2.926, "note_off_time": 3.657}, {"pitch": 42, "velocity": 80, "note_on_time": 3.657, "note_off_time": 4.391}, {"pitch": 60, "velocity": 80, "note_on_time": 3.657, "note_off_time": 5.125}, {"pitch": 42, "velocity": 80, "note_on_time": 4.391, "note_off_time": 5.126}, {"pitch": 42, "velocity": 80, "note_on_time": 5.126, "note_off_time": 5.858}, {"pitch": 64, "velocity": 80, "note_on_time": 5.858, "note_off_time": 6.59}, {"pitch": 42, "velocity": 80, "note_on_time": 5.859, "note_off_time": 6.59}, {"pitch": 60, "velocity": 80, "note_on_time": 6.59, "note_off_time": 7.32}, {"pitch": 42, "velocity": 80, "note_on_time": 6.591, "note_off_time": 7.32}, {"pitch": 64, "velocity": 80, "note_on_time": 7.32, "note_off_time": 8.051}, {"pitch": 42, "velocity": 80, "note_on_time": 7.32, "note_off_time": 8.052}, {"pitch": 64, "velocity": 80, "note_on_time": 8.051, "note_off_time": 8.782}, {"pitch": 42, "velocity": 80, "note_on_time": 8.052, "note_off_time": 8.782}, {"pitch": 64, "velocity": 80, "note_on_time": 8.782, "note_off_time": 9.515}, {"pitch": 42, "velocity": 80, "note_on_time": 8.782, "note_off_time": 9.515}, {"pitch": 62, "velocity": 80, "note_on_time": 9.515, "note_off_time": 10.25}, {"pitch": 42, "velocity": 80, "note_on_time": 9.515, "note_off_time": 10.25}, {"pitch": 62, "velocity": 80, "note_on_time": 10.25, "note_off_time": 10.983}, {"pitch": 42, "velocity": 80, "note_on_time": 10.25, "note_off_time": 10.984}, {"pitch": 62, "velocity": 80, "note_on_time": 10.983, "note_off_time": 11.716}, {"pitch": 42, "velocity": 80, "note_on_time": 10.984, "note_off_time": 11.717}, {"pitch": 64, "velocity": 80, "note_on_time": 11.716, "note_off_time": 12.447}, {"pitch": 42, "velocity": 80, "note_on_time": 11.717, "note_off_time": 12.448}, {"pitch": 62, "velocity": 80, "note_on_time": 12.447, "note_off_time": 13.177}, {"pitch": 42, "velocity": 80, "note_on_time": 12.448, "note_off_time": 13.177}, {"pitch": 64, "velocity": 80, "note_on_time": 13.177, "note_off_time": 13.91}, {"pitch": 42, "velocity": 80, "note_on_time": 13.177, "note_off_time": 13.91}, {"pitch": 62, "velocity": 80, "note_on_time": 13.91, "note_off_time": 14.64}, {"pitch": 42, "velocity": 80, "note_on_time": 13.911, "note_off_time": 14.641}, {"pitch": 62, "velocity": 80, "note_on_time": 14.64, "note_off_time": 15.373}, {"pitch": 42, "velocity": 80, "note_on_time": 14.641, "note_off_time": 15.373}, {"pitch": 42, "velocity": 80, "note_on_time": 15.373, "note_off_time": 16.106}, {"pitch": 60, "velocity": 80, "note_on_time": 15.373, "note_off_time": 16.839}, {"pitch": 42, "velocity": 80, "note_on_time": 16.107, "note_off_time": 16.839}, {"pitch": 64, "velocity": 80, "note_on_time": 16.839, "note_off_time": 17.572}, {"pitch": 42, "velocity": 80, "note_on_time": 16.84, "note_off_time": 17.573}, {"pitch": 60, "velocity": 80, "note_on_time": 17.572, "note_off_time": 18.305}, {"pitch": 42, "velocity": 80, "note_on_time": 17.573, "note_off_time": 18.305}, {"pitch": 64, "velocity": 80, "note_on_time": 18.305, "note_off_time": 19.034}, {"pitch": 42, "velocity": 80, "note_on_time": 18.305, "note_off_time": 19.034}, {"pitch": 60, "velocity": 80, "note_on_time": 19.034, "note_off_time": 19.763}, {"pitch": 42, "velocity": 80, "note_on_time": 19.034, "note_off_time": 19.763}, {"pitch": 62, "velocity": 80, "note_on_time": 19.763, "note_off_time": 20.498}, {"pitch": 42, "velocity": 80, "note_on_time": 19.763, "note_off_time": 20.498}, {"pitch": 62, "velocity": 80, "note_on_time": 20.498, "note_off_time": 21.226}, {"pitch": 42, "velocity": 80, "note_on_time": 20.499, "note_off_time": 21.226}, {"pitch": 62, "velocity": 80, "note_on_time": 21.226, "note_off_time": 21.954}, {"pitch": 42, "velocity": 80, "note_on_time": 21.227, "note_off_time": 21.955}, {"pitch": 62, "velocity": 80, "note_on_time": 21.954, "note_off_time": 22.686}, {"pitch": 42, "velocity": 80, "note_on_time": 21.955, "note_off_time": 22.686}, {"pitch": 60, "velocity": 80, "note_on_time": 22.686, "note_off_time": 23.419}, {"pitch": 42, "velocity": 80, "note_on_time": 22.686, "note_off_time": 23.419}, {"pitch": 42, "velocity": 80, "note_on_time": 23.419, "note_off_time": 24.151}, {"pitch": 60, "velocity": 80, "note_on_time": 24.151, "note_off_time": 24.88}, {"pitch": 42, "velocity": 80, "note_on_time": 24.151, "note_off_time": 24.881}, {"pitch": 60, "velocity": 80, "note_on_time": 24.88, "note_off_time": 25.61}, {"pitch": 42, "velocity": 80, "note_on_time": 24.881, "note_off_time": 25.61}, {"pitch": 60, "velocity": 80, "note_on_time": 25.61, "note_off_time": 26.341}, {"pitch": 42, "velocity": 80, "note_on_time": 25.61, "note_off_time": 26.341}]</notes><options name="Option List">((4, 4), [0.5, 0.25], 3, 8, &lt;NoteRangePerHand.THREE_NOTES: 4&gt;, &lt;NoteRangePerHand.ONE_NOTE: 2&gt;, False, True, False, '83')</options></target_notes><trials><trial trial_no="1" timestamp="2022_12_22-10_44_16"><notes name="Played Notes">[{"pitch": 62, "velocity": 54, "note_on_time": 2.954, "note_off_time": 3.395}, {"pitch": 60, "velocity": 68, "note_on_time": 3.636, "note_off_time": 4.736}, {"pitch": 64, "velocity": 54, "note_on_time": 5.872, "note_off_time": 6.323}, {"pitch": 60, "velocity": 62, "note_on_time": 6.611, "note_off_time": 7.105}, {"pitch": 64, "velocity": 57, "note_on_time": 7.347, "note_off_time": 7.724}, {"pitch": 64, "velocity": 54, "note_on_time": 8.084, "note_off_time": 8.432}, {"pitch": 64, "velocity": 39, "note_on_time": 8.902, "note_off_time": 9.284}, {"pitch": 62, "velocity": 53, "note_on_time": 9.618, "note_off_time": 9.927}, {"pitch": 62, "velocity": 54, "note_on_time": 10.324, "note_off_time": 10.621}, {"pitch": 62, "velocity": 52, "note_on_time": 11.045, "note_off_time": 11.372}, {"pitch": 64, "velocity": 48, "note_on_time": 11.73, "note_off_time": 12.132}, {"pitch": 62, "velocity": 54, "note_on_time": 12.456, "note_off_time": 12.836}, {"pitch": 64, "velocity": 59, "note_on_time": 13.203, "note_off_time": 13.61}, {"pitch": 62, "velocity": 55, "note_on_time": 13.947, "note_off_time": 14.223}, {"pitch": 62, "velocity": 62, "note_on_time": 14.669, "note_off_time": 14.953}, {"pitch": 60, "velocity": 67, "note_on_time": 15.361, "note_off_time": 16.406}, {"pitch": 64, "velocity": 61, "note_on_time": 16.844, "note_off_time": 17.336}, {"pitch": 60, "velocity": 55, "note_on_time": 17.602, "note_off_time": 18.08}, {"pitch": 64, "velocity": 57, "note_on_time": 18.324, "note_off_time": 18.97}, {"pitch": 60, "velocity": 57, "note_on_time": 19.021, "note_off_time": 19.654}, {"pitch": 62, "velocity": 59, "note_on_time": 19.744, "note_off_time": 20.036}, {"pitch": 62, "velocity": 56, "note_on_time": 20.48, "note_off_time": 20.745}, {"pitch": 62, "velocity": 61, "note_on_time": 21.204, "note_off_time": 21.497}, {"pitch": 62, "velocity": 67, "note_on_time": 21.889, "note_off_time": 22.293}, {"pitch": 60, "velocity": 71, "note_on_time": 22.676, "note_off_time": 23.008}, {"pitch": 60, "velocity": 69, "note_on_time": 24.152, "note_off_time": 24.462}, {"pitch": 60, "velocity": 66, "note_on_time": 24.87, "note_off_time": 25.151}, {"pitch": 60, "velocity": 69, "note_on_time": 25.537, "note_off_time": 25.743}]</notes><guidance name="Guidance Mode">None</guidance><error name="Error value">0.027870520000000044</error></trial><trial trial_no="2" timestamp="2022_12_22-10_44_53"><notes name="Played Notes">[{"pitch": 62, "velocity": 52, "note_on_time": 2.961, "note_off_time": 3.434}, {"pitch": 60, "velocity": 70, "note_on_time": 3.622, "note_off_time": 4.793}, {"pitch": 64, "velocity": 66, "note_on_time": 5.896, "note_off_time": 6.554}, {"pitch": 60, "velocity": 57, "note_on_time": 6.612, "note_off_time": 7.204}, {"pitch": 64, "velocity": 52, "note_on_time": 7.319, "note_off_time": 7.704}, {"pitch": 64, "velocity": 62, "note_on_time": 8.043, "note_off_time": 8.347}, {"pitch": 64, "velocity": 52, "note_on_time": 8.821, "note_off_time": 9.277}, {"pitch": 62, "velocity": 50, "note_on_time": 9.583, "note_off_time": 9.894}, {"pitch": 62, "velocity": 52, "note_on_time": 10.288, "note_off_time": 10.575}, {"pitch": 62, "velocity": 63, "note_on_time": 11.038, "note_off_time": 11.358}, {"pitch": 64, "velocity": 51, "note_on_time": 11.747, "note_off_time": 12.194}, {"pitch": 62, "velocity": 54, "note_on_time": 12.475, "note_off_time": 12.836}, {"pitch": 64, "velocity": 53, "note_on_time": 13.133, "note_off_time": 13.716}, {"pitch": 62, "velocity": 61, "note_on_time": 13.872, "note_off_time": 14.229}, {"pitch": 64, "velocity": 55, "note_on_time": 14.626, "note_off_time": 15.145}, {"pitch": 60, "velocity": 70, "note_on_time": 15.352, "note_off_time": 16.446}, {"pitch": 64, "velocity": 56, "note_on_time": 16.875, "note_off_time": 17.417}, {"pitch": 60, "velocity": 62, "note_on_time": 17.579, "note_off_time": 17.986}, {"pitch": 64, "velocity": 60, "note_on_time": 18.33, "note_off_time": 18.714}, {"pitch": 60, "velocity": 60, "note_on_time": 19.056, "note_off_time": 19.437}, {"pitch": 62, "velocity": 55, "note_on_time": 19.77, "note_off_time": 20.118}, {"pitch": 62, "velocity": 54, "note_on_time": 20.522, "note_off_time": 20.794}, {"pitch": 62, "velocity": 56, "note_on_time": 21.24, "note_off_time": 21.507}, {"pitch": 62, "velocity": 41, "note_on_time": 22.016, "note_off_time": 22.343}, {"pitch": 60, "velocity": 66, "note_on_time": 22.712, "note_off_time": 23.025}, {"pitch": 60, "velocity": 62, "note_on_time": 24.042, "note_off_time": 24.43}, {"pitch": 60, "velocity": 63, "note_on_time": 24.811, "note_off_time": 25.142}, {"pitch": 60, "velocity": 56, "note_on_time": 25.55, "note_off_time": 25.799}]</notes><guidance name="Guidance Mode">None</guidance><error name="Error value">0.07571051999999982</error></trial><trial trial_no="3" timestamp="2022_12_22-10_45_27"><notes name="Played Notes">[{"pitch": 62, "velocity": 59, "note_on_time": 2.919, "note_off_time": 3.386}, {"pitch": 60, "velocity": 67, "note_on_time": 3.628, "note_off_time": 4.692}, {"pitch": 64, "velocity": 62, "note_on_time": 5.855, "note_off_time": 6.551}, {"pitch": 60, "velocity": 60, "note_on_time": 6.588, "note_off_time": 7.098}, {"pitch": 64, "velocity": 58, "note_on_time": 7.28, "note_off_time": 7.68}, {"pitch": 64, "velocity": 53, "note_on_time": 8.012, "note_off_time": 8.282}, {"pitch": 64, "velocity": 54, "note_on_time": 8.747, "note_off_time": 9.145}, {"pitch": 62, "velocity": 38, "note_on_time": 9.535, "note_off_time": 9.832}, {"pitch": 62, "velocity": 47, "note_on_time": 10.235, "note_off_time": 10.513}, {"pitch": 62, "velocity": 53, "note_on_time": 10.938, "note_off_time": 11.228}, {"pitch": 64, "velocity": 54, "note_on_time": 11.64, "note_off_time": 12.025}, {"pitch": 62, "velocity": 59, "note_on_time": 12.377, "note_off_time": 12.721}, {"pitch": 64, "velocity": 55, "note_on_time": 13.137, "note_off_time": 13.448}, {"pitch": 62, "velocity": 54, "note_on_time": 13.861, "note_off_time": 14.159}, {"pitch": 62, "velocity": 55, "note_on_time": 14.629, "note_off_time": 14.962}, {"pitch": 60, "velocity": 59, "note_on_time": 15.259, "note_off_time": 17.087}, {"pitch": 62, "velocity": 48, "note_on_time": 17.576, "note_off_time": 18.045}, {"pitch": 60, "velocity": 28, "note_on_time": 18.237, "note_off_time": 18.812}, {"pitch": 62, "velocity": 54, "note_on_time": 19.05, "note_off_time": 19.394}, {"pitch": 64, "velocity": 37, "note_on_time": 19.606, "note_off_time": 19.742}, {"pitch": 60, "velocity": 55, "note_on_time": 19.799, "note_off_time": 20.105}, {"pitch": 64, "velocity": 52, "note_on_time": 20.362, "note_off_time": 20.721}, {"pitch": 62, "velocity": 57, "note_on_time": 21.101, "note_off_time": 21.45}, {"pitch": 62, "velocity": 48, "note_on_time": 21.919, "note_off_time": 22.225}, {"pitch": 60, "velocity": 66, "note_on_time": 22.638, "note_off_time": 23.09}, {"pitch": 60, "velocity": 56, "note_on_time": 24.034, "note_off_time": 24.393}, {"pitch": 60, "velocity": 52, "note_on_time": 24.77, "note_off_time": 25.018}, {"pitch": 60, "velocity": 54, "note_on_time": 25.457, "note_off_time": 25.696}]</notes><guidance name="Guidance Mode">None</guidance><error name="Error value">0.3018930800000004</error></trial></trials></MIDI>