<MIDI midiNo="2022_11_03-13_04_40"><target_notes><notes name="Note List">[{"pitch": 42, "velocity": 80, "note_on_time": 0.004, "note_off_time": 0.765}, {"pitch": 42, "velocity": 80, "note_on_time": 0.765, "note_off_time": 1.525}, {"pitch": 42, "velocity": 80, "note_on_time": 1.526, "note_off_time": 2.277}, {"pitch": 42, "velocity": 80, "note_on_time": 2.278, "note_off_time": 3.038}, {"pitch": 62, "velocity": 80, "note_on_time": 3.038, "note_off_time": 3.799}, {"pitch": 42, "velocity": 80, "note_on_time": 3.038, "note_off_time": 3.799}, {"pitch": 42, "velocity": 80, "note_on_time": 3.799, "note_off_time": 4.56}, {"pitch": 42, "velocity": 80, "note_on_time": 4.561, "note_off_time": 5.323}, {"pitch": 42, "velocity": 80, "note_on_time": 5.323, "note_off_time": 6.085}, {"pitch": 62, "velocity": 80, "note_on_time": 6.085, "note_off_time": 6.85}, {"pitch": 42, "velocity": 80, "note_on_time": 6.086, "note_off_time": 6.85}, {"pitch": 42, "velocity": 80, "note_on_time": 6.85, "note_off_time": 7.602}, {"pitch": 42, "velocity": 80, "note_on_time": 7.603, "note_off_time": 8.365}, {"pitch": 42, "velocity": 80, "note_on_time": 8.365, "note_off_time": 9.126}, {"pitch": 62, "velocity": 80, "note_on_time": 9.126, "note_off_time": 9.891}, {"pitch": 42, "velocity": 80, "note_on_time": 9.127, "note_off_time": 9.891}, {"pitch": 62, "velocity": 80, "note_on_time": 9.891, "note_off_time": 10.653}, {"pitch": 42, "velocity": 80, "note_on_time": 9.891, "note_off_time": 10.653}, {"pitch": 60, "velocity": 80, "note_on_time": 10.653, "note_off_time": 11.417}, {"pitch": 42, "velocity": 80, "note_on_time": 10.653, "note_off_time": 11.417}, {"pitch": 62, "velocity": 80, "note_on_time": 11.417, "note_off_time": 12.179}, {"pitch": 42, "velocity": 80, "note_on_time": 11.417, "note_off_time": 12.179}, {"pitch": 60, "velocity": 80, "note_on_time": 12.179, "note_off_time": 12.942}, {"pitch": 42, "velocity": 80, "note_on_time": 12.18, "note_off_time": 12.943}, {"pitch": 62, "velocity": 80, "note_on_time": 12.942, "note_off_time": 13.705}, {"pitch": 42, "velocity": 80, "note_on_time": 12.943, "note_off_time": 13.705}, {"pitch": 62, "velocity": 80, "note_on_time": 13.705, "note_off_time": 14.468}, {"pitch": 42, "velocity": 80, "note_on_time": 13.706, "note_off_time": 14.468}, {"pitch": 60, "velocity": 80, "note_on_time": 14.468, "note_off_time": 15.231}, {"pitch": 42, "velocity": 80, "note_on_time": 14.468, "note_off_time": 15.231}, {"pitch": 60, "velocity": 80, "note_on_time": 15.231, "note_off_time": 15.995}, {"pitch": 42, "velocity": 80, "note_on_time": 15.232, "note_off_time": 15.995}, {"pitch": 60, "velocity": 80, "note_on_time": 15.995, "note_off_time": 16.754}, {"pitch": 42, "velocity": 80, "note_on_time": 15.995, "note_off_time": 16.754}, {"pitch": 62, "velocity": 80, "note_on_time": 16.754, "note_off_time": 17.517}, {"pitch": 42, "velocity": 80, "note_on_time": 16.754, "note_off_time": 17.517}, {"pitch": 60, "velocity": 80, "note_on_time": 17.517, "note_off_time": 18.282}, {"pitch": 42, "velocity": 80, "note_on_time": 17.517, "note_off_time": 18.282}, {"pitch": 60, "velocity": 80, "note_on_time": 18.282, "note_off_time": 19.034}, {"pitch": 42, "velocity": 80, "note_on_time": 18.283, "note_off_time": 19.034}, {"pitch": 42, "velocity": 80, "note_on_time": 19.034, "note_off_time": 19.796}, {"pitch": 42, "velocity": 80, "note_on_time": 19.796, "note_off_time": 20.559}, {"pitch": 42, "velocity": 80, "note_on_time": 20.559, "note_off_time": 21.322}, {"pitch": 60, "velocity": 80, "note_on_time": 21.322, "note_off_time": 22.084}, {"pitch": 42, "velocity": 80, "note_on_time": 21.322, "note_off_time": 22.084}, {"pitch": 62, "velocity": 80, "note_on_time": 22.084, "note_off_time": 22.844}, {"pitch": 42, "velocity": 80, "note_on_time": 22.085, "note_off_time": 22.845}, {"pitch": 60, "velocity": 80, "note_on_time": 22.844, "note_off_time": 23.605}, {"pitch": 42, "velocity": 80, "note_on_time": 22.845, "note_off_time": 23.606}, {"pitch": 62, "velocity": 80, "note_on_time": 23.605, "note_off_time": 24.367}, {"pitch": 42, "velocity": 80, "note_on_time": 23.606, "note_off_time": 24.368}, {"pitch": 42, "velocity": 80, "note_on_time": 24.368, "note_off_time": 25.13}, {"pitch": 62, "velocity": 80, "note_on_time": 25.13, "note_off_time": 25.891}, {"pitch": 42, "velocity": 80, "note_on_time": 25.131, "note_off_time": 25.891}, {"pitch": 62, "velocity": 80, "note_on_time": 25.891, "note_off_time": 26.652}, {"pitch": 42, "velocity": 80, "note_on_time": 25.892, "note_off_time": 26.653}, {"pitch": 62, "velocity": 80, "note_on_time": 26.652, "note_off_time": 27.413}, {"pitch": 42, "velocity": 80, "note_on_time": 26.653, "note_off_time": 27.413}]</notes><options name="Option List">((4, 4), [0.25], 3, 8, &lt;NoteRangePerHand.TWO_NOTES: 3&gt;, &lt;NoteRangePerHand.ONE_NOTE: 2&gt;, False, True, False, '80')</options></target_notes><trials><trial trial_no="1" timestamp="2022_11_03-13_04_11"><notes name="Played Notes">[{"pitch": 62, "velocity": 84, "note_on_time": 3.009, "note_off_time": 3.544}, {"pitch": 62, "velocity": 75, "note_on_time": 6.041, "note_off_time": 6.783}, {"pitch": 62, "velocity": 71, "note_on_time": 9.045, "note_off_time": 9.554}, {"pitch": 62, "velocity": 60, "note_on_time": 9.775, "note_off_time": 10.345}, {"pitch": 60, "velocity": 88, "note_on_time": 10.518, "note_off_time": 10.948}, {"pitch": 62, "velocity": 54, "note_on_time": 11.259, "note_off_time": 11.843}, {"pitch": 60, "velocity": 68, "note_on_time": 12.011, "note_off_time": 12.5}, {"pitch": 62, "velocity": 60, "note_on_time": 12.816, "note_off_time": 13.269}, {"pitch": 62, "velocity": 61, "note_on_time": 13.586, "note_off_time": 14.188}, {"pitch": 60, "velocity": 66, "note_on_time": 14.432, "note_off_time": 14.829}, {"pitch": 60, "velocity": 77, "note_on_time": 15.229, "note_off_time": 15.713}, {"pitch": 60, "velocity": 77, "note_on_time": 16.03, "note_off_time": 16.472}, {"pitch": 62, "velocity": 66, "note_on_time": 16.775, "note_off_time": 17.199}, {"pitch": 60, "velocity": 73, "note_on_time": 17.469, "note_off_time": 17.89}, {"pitch": 60, "velocity": 77, "note_on_time": 18.195, "note_off_time": 18.864}, {"pitch": 60, "velocity": 77, "note_on_time": 21.315, "note_off_time": 21.952}, {"pitch": 62, "velocity": 68, "note_on_time": 22.016, "note_off_time": 22.671}, {"pitch": 60, "velocity": 87, "note_on_time": 22.754, "note_off_time": 23.498}, {"pitch": 62, "velocity": 48, "note_on_time": 23.553, "note_off_time": 24.221}, {"pitch": 62, "velocity": 72, "note_on_time": 25.076, "note_off_time": 25.567}, {"pitch": 62, "velocity": 67, "note_on_time": 25.822, "note_off_time": 26.312}, {"pitch": 62, "velocity": 60, "note_on_time": 26.562, "note_off_time": 27.397}]</notes><guidance name="Guidance Mode">None</guidance><error name="Error value">0.03657894736842109</error></trial></trials></MIDI>