<MIDI midiNo="2022_10_27-13_58_20"><target_notes><notes name="Note List">[{"pitch": 42, "velocity": 80, "note_on_time": 0.004, "note_off_time": 0.293}, {"pitch": 42, "velocity": 80, "note_on_time": 0.293, "note_off_time": 0.588}, {"pitch": 42, "velocity": 80, "note_on_time": 0.588, "note_off_time": 0.87}, {"pitch": 42, "velocity": 80, "note_on_time": 0.87, "note_off_time": 1.163}, {"pitch": 42, "velocity": 80, "note_on_time": 1.164, "note_off_time": 1.459}, {"pitch": 62, "velocity": 80, "note_on_time": 1.163, "note_off_time": 1.754}, {"pitch": 42, "velocity": 80, "note_on_time": 1.459, "note_off_time": 1.754}, {"pitch": 42, "velocity": 80, "note_on_time": 1.754, "note_off_time": 2.035}, {"pitch": 42, "velocity": 80, "note_on_time": 2.035, "note_off_time": 2.33}, {"pitch": 67, "velocity": 80, "note_on_time": 2.33, "note_off_time": 2.611}, {"pitch": 42, "velocity": 80, "note_on_time": 2.331, "note_off_time": 2.611}, {"pitch": 64, "velocity": 80, "note_on_time": 2.611, "note_off_time": 2.892}, {"pitch": 42, "velocity": 80, "note_on_time": 2.612, "note_off_time": 2.892}, {"pitch": 64, "velocity": 80, "note_on_time": 2.892, "note_off_time": 3.188}, {"pitch": 42, "velocity": 80, "note_on_time": 2.893, "note_off_time": 3.188}, {"pitch": 67, "velocity": 80, "note_on_time": 3.188, "note_off_time": 3.484}, {"pitch": 42, "velocity": 80, "note_on_time": 3.188, "note_off_time": 3.484}, {"pitch": 65, "velocity": 80, "note_on_time": 3.484, "note_off_time": 3.779}, {"pitch": 42, "velocity": 80, "note_on_time": 3.485, "note_off_time": 3.779}, {"pitch": 65, "velocity": 80, "note_on_time": 3.779, "note_off_time": 4.075}, {"pitch": 42, "velocity": 80, "note_on_time": 3.779, "note_off_time": 4.075}, {"pitch": 65, "velocity": 80, "note_on_time": 4.075, "note_off_time": 4.37}, {"pitch": 42, "velocity": 80, "note_on_time": 4.075, "note_off_time": 4.371}, {"pitch": 62, "velocity": 80, "note_on_time": 4.37, "note_off_time": 4.664}, {"pitch": 42, "velocity": 80, "note_on_time": 4.371, "note_off_time": 4.665}, {"pitch": 60, "velocity": 80, "note_on_time": 4.664, "note_off_time": 4.961}, {"pitch": 42, "velocity": 80, "note_on_time": 4.665, "note_off_time": 4.961}, {"pitch": 60, "velocity": 80, "note_on_time": 4.961, "note_off_time": 5.255}, {"pitch": 42, "velocity": 80, "note_on_time": 4.961, "note_off_time": 5.256}, {"pitch": 42, "velocity": 80, "note_on_time": 5.256, "note_off_time": 5.551}, {"pitch": 60, "velocity": 80, "note_on_time": 5.255, "note_off_time": 5.845}, {"pitch": 42, "velocity": 80, "note_on_time": 5.551, "note_off_time": 5.846}, {"pitch": 42, "velocity": 80, "note_on_time": 5.846, "note_off_time": 6.141}, {"pitch": 65, "velocity": 80, "note_on_time": 5.845, "note_off_time": 6.436}, {"pitch": 42, "velocity": 80, "note_on_time": 6.142, "note_off_time": 6.436}, {"pitch": 42, "velocity": 80, "note_on_time": 6.436, "note_off_time": 6.72}, {"pitch": 60, "velocity": 80, "note_on_time": 6.72, "note_off_time": 7.014}, {"pitch": 42, "velocity": 80, "note_on_time": 6.72, "note_off_time": 7.014}, {"pitch": 60, "velocity": 80, "note_on_time": 7.014, "note_off_time": 7.295}, {"pitch": 42, "velocity": 80, "note_on_time": 7.014, "note_off_time": 7.296}, {"pitch": 65, "velocity": 80, "note_on_time": 7.295, "note_off_time": 7.591}, {"pitch": 42, "velocity": 80, "note_on_time": 7.296, "note_off_time": 7.591}, {"pitch": 42, "velocity": 80, "note_on_time": 7.591, "note_off_time": 7.871}, {"pitch": 65, "velocity": 80, "note_on_time": 7.591, "note_off_time": 8.167}, {"pitch": 42, "velocity": 80, "note_on_time": 7.872, "note_off_time": 8.167}, {"pitch": 65, "velocity": 80, "note_on_time": 8.167, "note_off_time": 8.448}, {"pitch": 42, "velocity": 80, "note_on_time": 8.167, "note_off_time": 8.448}, {"pitch": 42, "velocity": 80, "note_on_time": 8.449, "note_off_time": 8.743}, {"pitch": 60, "velocity": 80, "note_on_time": 8.448, "note_off_time": 9.038}, {"pitch": 42, "velocity": 80, "note_on_time": 8.743, "note_off_time": 9.038}, {"pitch": 42, "velocity": 80, "note_on_time": 9.039, "note_off_time": 9.334}, {"pitch": 42, "velocity": 80, "note_on_time": 9.334, "note_off_time": 9.614}, {"pitch": 60, "velocity": 80, "note_on_time": 9.614, "note_off_time": 9.909}, {"pitch": 42, "velocity": 80, "note_on_time": 9.615, "note_off_time": 9.909}, {"pitch": 60, "velocity": 80, "note_on_time": 9.909, "note_off_time": 10.189}, {"pitch": 42, "velocity": 80, "note_on_time": 9.909, "note_off_time": 10.189}, {"pitch": 60, "velocity": 80, "note_on_time": 10.189, "note_off_time": 10.482}, {"pitch": 42, "velocity": 80, "note_on_time": 10.189, "note_off_time": 10.483}]</notes><options name="Option List">((4, 4), [0.5, 0.25], 3, 8, &lt;NoteRangePerHand.C_TO_G: 6&gt;, &lt;NoteRangePerHand.ONE_NOTE: 2&gt;, False, True, False, 215)</options></target_notes><trials><trial trial_no="1" timestamp="2022_10_27-13_58_08"><notes name="Played Notes">[{"pitch": 74, "velocity": 84, "note_on_time": 1.162, "note_off_time": 1.79}, {"pitch": 79, "velocity": 81, "note_on_time": 2.088, "note_off_time": 2.31}, {"pitch": 76, "velocity": 76, "note_on_time": 2.414, "note_off_time": 2.536}, {"pitch": 76, "velocity": 78, "note_on_time": 2.705, "note_off_time": 2.856}, {"pitch": 79, "velocity": 86, "note_on_time": 3.013, "note_off_time": 3.194}, {"pitch": 77, "velocity": 77, "note_on_time": 3.317, "note_off_time": 3.465}, {"pitch": 77, "velocity": 80, "note_on_time": 3.639, "note_off_time": 3.796}, {"pitch": 74, "velocity": 63, "note_on_time": 3.962, "note_off_time": 4.139}, {"pitch": 72, "velocity": 72, "note_on_time": 4.396, "note_off_time": 4.517}, {"pitch": 72, "velocity": 77, "note_on_time": 4.73, "note_off_time": 4.853}, {"pitch": 72, "velocity": 86, "note_on_time": 5.059, "note_off_time": 5.461}, {"pitch": 77, "velocity": 79, "note_on_time": 5.689, "note_off_time": 6.079}, {"pitch": 72, "velocity": 72, "note_on_time": 6.76, "note_off_time": 6.892}, {"pitch": 72, "velocity": 77, "note_on_time": 7.115, "note_off_time": 7.24}, {"pitch": 77, "velocity": 78, "note_on_time": 7.434, "note_off_time": 7.569}, {"pitch": 77, "velocity": 87, "note_on_time": 7.758, "note_off_time": 8.134}, {"pitch": 77, "velocity": 79, "note_on_time": 8.423, "note_off_time": 8.595}, {"pitch": 72, "velocity": 76, "note_on_time": 8.759, "note_off_time": 9.152}, {"pitch": 72, "velocity": 77, "note_on_time": 9.914, "note_off_time": 10.032}, {"pitch": 72, "velocity": 70, "note_on_time": 10.222, "note_off_time": 10.336}]</notes><guidance name="Guidance Mode">None</guidance><error name="Error value">1.2553030526315792</error></trial><trial trial_no="2" timestamp="2022_10_27-13_58_32"><notes name="Played Notes">[{"pitch": 74, "velocity": 73, "note_on_time": 1.193, "note_off_time": 1.743}, {"pitch": 79, "velocity": 78, "note_on_time": 2.084, "note_off_time": 2.268}, {"pitch": 76, "velocity": 74, "note_on_time": 2.395, "note_off_time": 2.523}, {"pitch": 76, "velocity": 74, "note_on_time": 2.686, "note_off_time": 2.84}, {"pitch": 79, "velocity": 79, "note_on_time": 2.989, "note_off_time": 3.154}, {"pitch": 77, "velocity": 79, "note_on_time": 3.288, "note_off_time": 3.397}, {"pitch": 77, "velocity": 77, "note_on_time": 3.589, "note_off_time": 3.702}, {"pitch": 77, "velocity": 79, "note_on_time": 3.871, "note_off_time": 4.006}, {"pitch": 74, "velocity": 79, "note_on_time": 4.169, "note_off_time": 4.332}, {"pitch": 72, "velocity": 79, "note_on_time": 4.467, "note_off_time": 4.579}, {"pitch": 72, "velocity": 83, "note_on_time": 4.78, "note_off_time": 4.884}, {"pitch": 72, "velocity": 89, "note_on_time": 5.082, "note_off_time": 5.53}, {"pitch": 77, "velocity": 80, "note_on_time": 5.859, "note_off_time": 6.302}, {"pitch": 72, "velocity": 77, "note_on_time": 6.553, "note_off_time": 6.703}, {"pitch": 72, "velocity": 79, "note_on_time": 6.918, "note_off_time": 7.065}, {"pitch": 77, "velocity": 78, "note_on_time": 7.326, "note_off_time": 7.455}, {"pitch": 77, "velocity": 84, "note_on_time": 7.662, "note_off_time": 8.096}, {"pitch": 77, "velocity": 85, "note_on_time": 8.303, "note_off_time": 8.484}, {"pitch": 72, "velocity": 82, "note_on_time": 8.645, "note_off_time": 9.069}, {"pitch": 72, "velocity": 82, "note_on_time": 10.006, "note_off_time": 10.143}, {"pitch": 72, "velocity": 79, "note_on_time": 10.325, "note_off_time": 10.439}]</notes><guidance name="Guidance Mode">None</guidance><error name="Error value">1.2384863684210528</error></trial><trial trial_no="3" timestamp="2022_10_27-13_58_58"><notes name="Played Notes">[{"pitch": 74, "velocity": 81, "note_on_time": 1.189, "note_off_time": 1.748}, {"pitch": 79, "velocity": 80, "note_on_time": 2.072, "note_off_time": 2.252}, {"pitch": 76, "velocity": 74, "note_on_time": 2.375, "note_off_time": 2.5}, {"pitch": 76, "velocity": 81, "note_on_time": 2.658, "note_off_time": 2.8}, {"pitch": 79, "velocity": 87, "note_on_time": 2.962, "note_off_time": 3.132}, {"pitch": 77, "velocity": 77, "note_on_time": 3.241, "note_off_time": 3.361}, {"pitch": 77, "velocity": 87, "note_on_time": 3.552, "note_off_time": 3.669}, {"pitch": 77, "velocity": 79, "note_on_time": 3.838, "note_off_time": 3.971}, {"pitch": 74, "velocity": 73, "note_on_time": 4.118, "note_off_time": 4.271}, {"pitch": 72, "velocity": 58, "note_on_time": 4.414, "note_off_time": 4.515}, {"pitch": 72, "velocity": 80, "note_on_time": 4.727, "note_off_time": 4.818}, {"pitch": 72, "velocity": 90, "note_on_time": 5.033, "note_off_time": 5.381}, {"pitch": 77, "velocity": 87, "note_on_time": 5.607, "note_off_time": 5.848}, {"pitch": 72, "velocity": 82, "note_on_time": 6.264, "note_off_time": 6.409}, {"pitch": 72, "velocity": 83, "note_on_time": 6.712, "note_off_time": 6.85}, {"pitch": 77, "velocity": 83, "note_on_time": 7.025, "note_off_time": 7.197}, {"pitch": 77, "velocity": 87, "note_on_time": 7.363, "note_off_time": 7.738}, {"pitch": 77, "velocity": 82, "note_on_time": 7.957, "note_off_time": 8.106}, {"pitch": 72, "velocity": 80, "note_on_time": 8.261, "note_off_time": 8.669}, {"pitch": 72, "velocity": 79, "note_on_time": 9.249, "note_off_time": 9.393}, {"pitch": 72, "velocity": 84, "note_on_time": 9.605, "note_off_time": 9.7}, {"pitch": 72, "velocity": 87, "note_on_time": 9.92, "note_off_time": 10.087}]</notes><guidance name="Guidance Mode">None</guidance><error name="Error value">1.2191324736842106</error></trial><trial trial_no="4" timestamp="2022_10_27-13_59_22"><notes name="Played Notes">[{"pitch": 74, "velocity": 84, "note_on_time": 1.189, "note_off_time": 1.684}, {"pitch": 79, "velocity": 82, "note_on_time": 2.088, "note_off_time": 2.28}, {"pitch": 76, "velocity": 74, "note_on_time": 2.41, "note_off_time": 2.561}, {"pitch": 76, "velocity": 77, "note_on_time": 2.705, "note_off_time": 2.864}, {"pitch": 79, "velocity": 89, "note_on_time": 3.005, "note_off_time": 3.168}, {"pitch": 77, "velocity": 83, "note_on_time": 3.306, "note_off_time": 3.442}, {"pitch": 77, "velocity": 89, "note_on_time": 3.64, "note_off_time": 3.781}, {"pitch": 74, "velocity": 86, "note_on_time": 3.977, "note_off_time": 4.143}, {"pitch": 74, "velocity": 70, "note_on_time": 4.445, "note_off_time": 4.56}, {"pitch": 72, "velocity": 69, "note_on_time": 4.611, "note_off_time": 4.763}, {"pitch": 72, "velocity": 79, "note_on_time": 4.938, "note_off_time": 5.064}, {"pitch": 77, "velocity": 80, "note_on_time": 5.905, "note_off_time": 6.136}, {"pitch": 72, "velocity": 58, "note_on_time": 6.635, "note_off_time": 6.743}, {"pitch": 72, "velocity": 56, "note_on_time": 6.961, "note_off_time": 7.155}, {"pitch": 77, "velocity": 77, "note_on_time": 7.28, "note_off_time": 7.417}, {"pitch": 77, "velocity": 84, "note_on_time": 7.599, "note_off_time": 7.986}, {"pitch": 77, "velocity": 79, "note_on_time": 8.214, "note_off_time": 8.378}, {"pitch": 72, "velocity": 75, "note_on_time": 8.557, "note_off_time": 8.91}, {"pitch": 72, "velocity": 74, "note_on_time": 9.868, "note_off_time": 9.989}, {"pitch": 72, "velocity": 77, "note_on_time": 10.191, "note_off_time": 10.293}]</notes><guidance name="Guidance Mode">None</guidance><error name="Error value">1.2640907368421053</error></trial><trial trial_no="5" timestamp="2022_10_27-13_59_46"><notes name="Played Notes">[{"pitch": 74, "velocity": 80, "note_on_time": 1.213, "note_off_time": 1.699}, {"pitch": 79, "velocity": 74, "note_on_time": 2.066, "note_off_time": 2.262}, {"pitch": 76, "velocity": 74, "note_on_time": 2.379, "note_off_time": 2.516}, {"pitch": 76, "velocity": 79, "note_on_time": 2.67, "note_off_time": 2.825}, {"pitch": 79, "velocity": 81, "note_on_time": 2.953, "note_off_time": 3.112}, {"pitch": 77, "velocity": 80, "note_on_time": 3.251, "note_off_time": 3.373}, {"pitch": 77, "velocity": 74, "note_on_time": 3.544, "note_off_time": 3.682}, {"pitch": 77, "velocity": 74, "note_on_time": 3.825, "note_off_time": 3.97}, {"pitch": 74, "velocity": 78, "note_on_time": 4.112, "note_off_time": 4.252}, {"pitch": 72, "velocity": 77, "note_on_time": 4.393, "note_off_time": 4.503}, {"pitch": 72, "velocity": 83, "note_on_time": 4.711, "note_off_time": 4.807}, {"pitch": 72, "velocity": 78, "note_on_time": 5.046, "note_off_time": 5.445}, {"pitch": 77, "velocity": 82, "note_on_time": 5.753, "note_off_time": 6.204}, {"pitch": 72, "velocity": 72, "note_on_time": 6.928, "note_off_time": 7.069}, {"pitch": 72, "velocity": 83, "note_on_time": 7.275, "note_off_time": 7.398}, {"pitch": 77, "velocity": 83, "note_on_time": 7.574, "note_off_time": 7.695}, {"pitch": 77, "velocity": 85, "note_on_time": 7.871, "note_off_time": 8.276}, {"pitch": 77, "velocity": 80, "note_on_time": 8.505, "note_off_time": 8.675}, {"pitch": 72, "velocity": 81, "note_on_time": 8.82, "note_off_time": 9.186}, {"pitch": 72, "velocity": 83, "note_on_time": 10.069, "note_off_time": 10.215}]</notes><guidance name="Guidance Mode">None</guidance><error name="Error value">1.3070235789473688</error></trial></trials></MIDI>