<MIDI midiNo="2022_11_03-09_37_45"><target_notes><notes name="Note List">[{"pitch": 42, "velocity": 80, "note_on_time": 0.004, "note_off_time": 0.227}, {"pitch": 42, "velocity": 80, "note_on_time": 0.227, "note_off_time": 0.445}, {"pitch": 42, "velocity": 80, "note_on_time": 0.445, "note_off_time": 0.662}, {"pitch": 42, "velocity": 80, "note_on_time": 0.662, "note_off_time": 0.88}, {"pitch": 65, "velocity": 80, "note_on_time": 0.88, "note_off_time": 1.098}, {"pitch": 42, "velocity": 80, "note_on_time": 0.88, "note_off_time": 1.098}, {"pitch": 64, "velocity": 80, "note_on_time": 1.098, "note_off_time": 1.317}, {"pitch": 42, "velocity": 80, "note_on_time": 1.098, "note_off_time": 1.317}, {"pitch": 62, "velocity": 80, "note_on_time": 1.317, "note_off_time": 1.535}, {"pitch": 42, "velocity": 80, "note_on_time": 1.317, "note_off_time": 1.535}, {"pitch": 64, "velocity": 80, "note_on_time": 1.535, "note_off_time": 1.754}, {"pitch": 42, "velocity": 80, "note_on_time": 1.535, "note_off_time": 1.754}, {"pitch": 65, "velocity": 80, "note_on_time": 1.754, "note_off_time": 1.972}, {"pitch": 42, "velocity": 80, "note_on_time": 1.754, "note_off_time": 1.972}, {"pitch": 65, "velocity": 80, "note_on_time": 1.972, "note_off_time": 2.191}, {"pitch": 42, "velocity": 80, "note_on_time": 1.973, "note_off_time": 2.191}, {"pitch": 67, "velocity": 80, "note_on_time": 2.191, "note_off_time": 2.409}, {"pitch": 42, "velocity": 80, "note_on_time": 2.191, "note_off_time": 2.409}, {"pitch": 64, "velocity": 80, "note_on_time": 2.409, "note_off_time": 2.625}, {"pitch": 42, "velocity": 80, "note_on_time": 2.409, "note_off_time": 2.625}, {"pitch": 67, "velocity": 80, "note_on_time": 2.625, "note_off_time": 2.841}, {"pitch": 42, "velocity": 80, "note_on_time": 2.625, "note_off_time": 2.841}, {"pitch": 65, "velocity": 80, "note_on_time": 2.841, "note_off_time": 3.058}, {"pitch": 42, "velocity": 80, "note_on_time": 2.841, "note_off_time": 3.058}, {"pitch": 65, "velocity": 80, "note_on_time": 3.058, "note_off_time": 3.277}, {"pitch": 42, "velocity": 80, "note_on_time": 3.058, "note_off_time": 3.277}, {"pitch": 62, "velocity": 80, "note_on_time": 3.277, "note_off_time": 3.496}, {"pitch": 42, "velocity": 80, "note_on_time": 3.277, "note_off_time": 3.496}, {"pitch": 65, "velocity": 80, "note_on_time": 3.496, "note_off_time": 3.717}, {"pitch": 42, "velocity": 80, "note_on_time": 3.496, "note_off_time": 3.717}, {"pitch": 42, "velocity": 80, "note_on_time": 3.717, "note_off_time": 3.936}, {"pitch": 42, "velocity": 80, "note_on_time": 3.936, "note_off_time": 4.154}, {"pitch": 42, "velocity": 80, "note_on_time": 4.154, "note_off_time": 4.372}, {"pitch": 42, "velocity": 80, "note_on_time": 4.372, "note_off_time": 4.591}, {"pitch": 64, "velocity": 80, "note_on_time": 4.372, "note_off_time": 4.81}, {"pitch": 42, "velocity": 80, "note_on_time": 4.591, "note_off_time": 4.81}, {"pitch": 62, "velocity": 80, "note_on_time": 4.81, "note_off_time": 5.028}, {"pitch": 42, "velocity": 80, "note_on_time": 4.81, "note_off_time": 5.028}, {"pitch": 60, "velocity": 80, "note_on_time": 5.028, "note_off_time": 5.247}, {"pitch": 42, "velocity": 80, "note_on_time": 5.028, "note_off_time": 5.247}, {"pitch": 67, "velocity": 80, "note_on_time": 5.247, "note_off_time": 5.465}, {"pitch": 42, "velocity": 80, "note_on_time": 5.247, "note_off_time": 5.465}, {"pitch": 42, "velocity": 80, "note_on_time": 5.465, "note_off_time": 5.684}, {"pitch": 42, "velocity": 80, "note_on_time": 5.684, "note_off_time": 5.904}, {"pitch": 42, "velocity": 80, "note_on_time": 5.904, "note_off_time": 6.12}, {"pitch": 42, "velocity": 80, "note_on_time": 6.12, "note_off_time": 6.337}, {"pitch": 64, "velocity": 80, "note_on_time": 6.12, "note_off_time": 6.556}, {"pitch": 42, "velocity": 80, "note_on_time": 6.338, "note_off_time": 6.556}, {"pitch": 42, "velocity": 80, "note_on_time": 6.556, "note_off_time": 6.774}, {"pitch": 42, "velocity": 80, "note_on_time": 6.774, "note_off_time": 6.993}, {"pitch": 42, "velocity": 80, "note_on_time": 6.993, "note_off_time": 7.213}, {"pitch": 64, "velocity": 80, "note_on_time": 7.213, "note_off_time": 7.432}, {"pitch": 42, "velocity": 80, "note_on_time": 7.213, "note_off_time": 7.432}, {"pitch": 64, "velocity": 80, "note_on_time": 7.432, "note_off_time": 7.65}, {"pitch": 42, "velocity": 80, "note_on_time": 7.432, "note_off_time": 7.65}, {"pitch": 64, "velocity": 80, "note_on_time": 7.65, "note_off_time": 7.869}, {"pitch": 42, "velocity": 80, "note_on_time": 7.65, "note_off_time": 7.869}]</notes><options name="Option List">((4, 4), [0.5, 0.25], 3, 8, &lt;NoteRangePerHand.C_TO_G: 6&gt;, &lt;NoteRangePerHand.ONE_NOTE: 2&gt;, False, True, False, 281)</options></target_notes><trials><trial trial_no="1" timestamp="2022_11_03-09_37_36"><notes name="Played Notes">[{"pitch": 65, "velocity": 38, "note_on_time": 0.879, "note_off_time": 1.183}, {"pitch": 64, "velocity": 51, "note_on_time": 1.053, "note_off_time": 1.209}, {"pitch": 62, "velocity": 41, "note_on_time": 1.229, "note_off_time": 1.508}, {"pitch": 64, "velocity": 63, "note_on_time": 1.388, "note_off_time": 1.571}, {"pitch": 65, "velocity": 54, "note_on_time": 1.544, "note_off_time": 1.574}, {"pitch": 65, "velocity": 71, "note_on_time": 1.684, "note_off_time": 1.852}, {"pitch": 67, "velocity": 69, "note_on_time": 1.853, "note_off_time": 2.016}, {"pitch": 64, "velocity": 69, "note_on_time": 1.985, "note_off_time": 2.149}, {"pitch": 67, "velocity": 57, "note_on_time": 2.138, "note_off_time": 2.29}, {"pitch": 65, "velocity": 61, "note_on_time": 2.268, "note_off_time": 2.327}, {"pitch": 65, "velocity": 82, "note_on_time": 2.404, "note_off_time": 2.547}, {"pitch": 62, "velocity": 64, "note_on_time": 2.555, "note_off_time": 2.76}, {"pitch": 65, "velocity": 72, "note_on_time": 2.733, "note_off_time": 3.071}, {"pitch": 64, "velocity": 73, "note_on_time": 3.379, "note_off_time": 3.947}, {"pitch": 62, "velocity": 49, "note_on_time": 4.119, "note_off_time": 4.242}, {"pitch": 60, "velocity": 57, "note_on_time": 4.249, "note_off_time": 4.531}, {"pitch": 67, "velocity": 73, "note_on_time": 4.449, "note_off_time": 4.98}, {"pitch": 64, "velocity": 71, "note_on_time": 5.389, "note_off_time": 6.018}, {"pitch": 64, "velocity": 48, "note_on_time": 6.412, "note_off_time": 6.456}, {"pitch": 64, "velocity": 58, "note_on_time": 6.558, "note_off_time": 6.623}, {"pitch": 64, "velocity": 58, "note_on_time": 6.723, "note_off_time": 6.842}]</notes><guidance name="Guidance Mode">None</guidance><error name="Error value">0.08738538888888892</error></trial><trial trial_no="2" timestamp="2022_11_03-09_37_54"><notes name="Played Notes">[{"pitch": 65, "velocity": 55, "note_on_time": 0.904, "note_off_time": 1.225}, {"pitch": 64, "velocity": 62, "note_on_time": 1.127, "note_off_time": 1.353}, {"pitch": 62, "velocity": 47, "note_on_time": 1.362, "note_off_time": 1.675}, {"pitch": 64, "velocity": 51, "note_on_time": 1.556, "note_off_time": 1.807}, {"pitch": 65, "velocity": 66, "note_on_time": 1.765, "note_off_time": 1.829}, {"pitch": 65, "velocity": 65, "note_on_time": 1.948, "note_off_time": 2.184}, {"pitch": 67, "velocity": 71, "note_on_time": 2.166, "note_off_time": 2.365}, {"pitch": 64, "velocity": 64, "note_on_time": 2.342, "note_off_time": 2.582}, {"pitch": 67, "velocity": 57, "note_on_time": 2.555, "note_off_time": 2.771}, {"pitch": 65, "velocity": 68, "note_on_time": 2.724, "note_off_time": 2.814}, {"pitch": 65, "velocity": 58, "note_on_time": 2.934, "note_off_time": 3.102}, {"pitch": 62, "velocity": 55, "note_on_time": 3.121, "note_off_time": 3.372}, {"pitch": 65, "velocity": 63, "note_on_time": 3.352, "note_off_time": 3.782}, {"pitch": 64, "velocity": 59, "note_on_time": 4.181, "note_off_time": 4.746}, {"pitch": 62, "velocity": 57, "note_on_time": 4.886, "note_off_time": 5.127}, {"pitch": 60, "velocity": 66, "note_on_time": 5.123, "note_off_time": 5.353}, {"pitch": 67, "velocity": 58, "note_on_time": 5.327, "note_off_time": 5.804}, {"pitch": 64, "velocity": 58, "note_on_time": 6.121, "note_off_time": 6.806}, {"pitch": 64, "velocity": 52, "note_on_time": 7.126, "note_off_time": 7.2}, {"pitch": 64, "velocity": 47, "note_on_time": 7.333, "note_off_time": 7.42}, {"pitch": 64, "velocity": 44, "note_on_time": 7.539, "note_off_time": 7.714}]</notes><guidance name="Guidance Mode">None</guidance><error name="Error value">0.038493944444444525</error></trial><trial trial_no="3" timestamp="2022_11_03-09_38_10"><notes name="Played Notes">[{"pitch": 65, "velocity": 64, "note_on_time": 0.865, "note_off_time": 1.249}, {"pitch": 64, "velocity": 58, "note_on_time": 1.086, "note_off_time": 1.319}, {"pitch": 62, "velocity": 56, "note_on_time": 1.305, "note_off_time": 1.676}, {"pitch": 64, "velocity": 63, "note_on_time": 1.499, "note_off_time": 1.719}, {"pitch": 65, "velocity": 75, "note_on_time": 1.684, "note_off_time": 1.775}, {"pitch": 65, "velocity": 67, "note_on_time": 1.874, "note_off_time": 2.103}, {"pitch": 67, "velocity": 67, "note_on_time": 2.079, "note_off_time": 2.278}, {"pitch": 64, "velocity": 64, "note_on_time": 2.255, "note_off_time": 2.491}, {"pitch": 67, "velocity": 61, "note_on_time": 2.464, "note_off_time": 2.687}, {"pitch": 65, "velocity": 67, "note_on_time": 2.627, "note_off_time": 2.729}, {"pitch": 65, "velocity": 72, "note_on_time": 2.818, "note_off_time": 2.977}, {"pitch": 62, "velocity": 59, "note_on_time": 2.992, "note_off_time": 3.237}, {"pitch": 65, "velocity": 71, "note_on_time": 3.207, "note_off_time": 3.649}, {"pitch": 64, "velocity": 57, "note_on_time": 4.124, "note_off_time": 4.607}, {"pitch": 62, "velocity": 55, "note_on_time": 4.813, "note_off_time": 5.049}, {"pitch": 60, "velocity": 59, "note_on_time": 5.037, "note_off_time": 5.284}, {"pitch": 67, "velocity": 63, "note_on_time": 5.248, "note_off_time": 5.725}, {"pitch": 64, "velocity": 50, "note_on_time": 5.977, "note_off_time": 6.477}, {"pitch": 64, "velocity": 57, "note_on_time": 6.991, "note_off_time": 7.088}, {"pitch": 64, "velocity": 52, "note_on_time": 7.197, "note_off_time": 7.297}, {"pitch": 64, "velocity": 52, "note_on_time": 7.4, "note_off_time": 7.613}]</notes><guidance name="Guidance Mode">None</guidance><error name="Error value">0.043541833333333335</error></trial></trials></MIDI>