<MIDI midiNo="2022_04_28-15_07_30"><target_notes><notes name="Note List">[{"pitch": 62, "velocity": 100, "note_on_time": 2.431, "note_off_time": 3.033}, {"pitch": 62, "velocity": 100, "note_on_time": 3.033, "note_off_time": 4.248}, {"pitch": 62, "velocity": 100, "note_on_time": 4.853, "note_off_time": 5.46}, {"pitch": 62, "velocity": 100, "note_on_time": 5.46, "note_off_time": 6.065}, {"pitch": 60, "velocity": 100, "note_on_time": 6.065, "note_off_time": 6.672}, {"pitch": 62, "velocity": 100, "note_on_time": 6.672, "note_off_time": 7.28}, {"pitch": 60, "velocity": 100, "note_on_time": 7.28, "note_off_time": 7.89}, {"pitch": 62, "velocity": 100, "note_on_time": 7.89, "note_off_time": 8.496}, {"pitch": 62, "velocity": 100, "note_on_time": 8.496, "note_off_time": 9.103}, {"pitch": 60, "velocity": 100, "note_on_time": 9.103, "note_off_time": 9.71}, {"pitch": 62, "velocity": 100, "note_on_time": 9.71, "note_off_time": 10.928}, {"pitch": 62, "velocity": 100, "note_on_time": 10.928, "note_off_time": 12.145}, {"pitch": 60, "velocity": 100, "note_on_time": 12.145, "note_off_time": 12.756}, {"pitch": 62, "velocity": 100, "note_on_time": 12.756, "note_off_time": 13.362}, {"pitch": 62, "velocity": 100, "note_on_time": 13.362, "note_off_time": 13.969}, {"pitch": 60, "velocity": 100, "note_on_time": 13.969, "note_off_time": 14.577}, {"pitch": 60, "velocity": 100, "note_on_time": 14.577, "note_off_time": 15.184}, {"pitch": 62, "velocity": 100, "note_on_time": 15.184, "note_off_time": 15.793}, {"pitch": 60, "velocity": 100, "note_on_time": 15.793, "note_off_time": 16.4}, {"pitch": 60, "velocity": 100, "note_on_time": 16.4, "note_off_time": 17.008}, {"pitch": 60, "velocity": 100, "note_on_time": 17.614, "note_off_time": 18.221}, {"pitch": 60, "velocity": 100, "note_on_time": 18.221, "note_off_time": 18.832}, {"pitch": 60, "velocity": 100, "note_on_time": 18.832, "note_off_time": 19.438}]</notes><options name="Option List">((4, 4), [0.5, 0.25], 3, 7, &lt;NoteRangePerHand.TWO_NOTES: 3&gt;, &lt;NoteRangePerHand.ONE_NOTE: 2&gt;, False, True, True, 100)</options></target_notes><trials><trial trial_no="1" timestamp="2022_04_28-15_07_09"><notes name="Played Notes">[{"pitch": 62, "velocity": 46, "note_on_time": 15.21, "note_off_time": 15.441}, {"pitch": 62, "velocity": 67, "note_on_time": 15.569, "note_off_time": 15.794}, {"pitch": 62, "velocity": 74, "note_on_time": 15.9, "note_off_time": 16.112}]</notes><guidance name="Guidance Mode">None</guidance><error name="Error value">1.7253750000000003</error></trial></trials></MIDI>