<MIDI midiNo="2022_09_12-12_09_12"><target_notes><notes name="Note List">[{"pitch": 42, "velocity": 80, "note_on_time": 0.003, "note_off_time": 0.289}, {"pitch": 42, "velocity": 80, "note_on_time": 0.289, "note_off_time": 0.584}, {"pitch": 42, "velocity": 80, "note_on_time": 0.584, "note_off_time": 0.877}, {"pitch": 42, "velocity": 80, "note_on_time": 0.878, "note_off_time": 1.158}, {"pitch": 62, "velocity": 80, "note_on_time": 1.158, "note_off_time": 1.452}, {"pitch": 42, "velocity": 80, "note_on_time": 1.159, "note_off_time": 1.452}, {"pitch": 64, "velocity": 80, "note_on_time": 1.452, "note_off_time": 1.733}, {"pitch": 42, "velocity": 80, "note_on_time": 1.452, "note_off_time": 1.733}, {"pitch": 42, "velocity": 80, "note_on_time": 1.734, "note_off_time": 2.028}, {"pitch": 42, "velocity": 80, "note_on_time": 2.028, "note_off_time": 2.309}, {"pitch": 42, "velocity": 80, "note_on_time": 2.309, "note_off_time": 2.605}, {"pitch": 64, "velocity": 80, "note_on_time": 2.309, "note_off_time": 2.9}, {"pitch": 42, "velocity": 80, "note_on_time": 2.606, "note_off_time": 2.9}, {"pitch": 42, "velocity": 80, "note_on_time": 2.901, "note_off_time": 3.196}, {"pitch": 64, "velocity": 80, "note_on_time": 3.196, "note_off_time": 3.491}, {"pitch": 42, "velocity": 80, "note_on_time": 3.196, "note_off_time": 3.492}, {"pitch": 64, "velocity": 80, "note_on_time": 3.491, "note_off_time": 3.786}, {"pitch": 42, "velocity": 80, "note_on_time": 3.492, "note_off_time": 3.787}, {"pitch": 42, "velocity": 80, "note_on_time": 3.787, "note_off_time": 4.069}, {"pitch": 42, "velocity": 80, "note_on_time": 4.069, "note_off_time": 4.35}, {"pitch": 42, "velocity": 80, "note_on_time": 4.351, "note_off_time": 4.633}, {"pitch": 62, "velocity": 80, "note_on_time": 4.633, "note_off_time": 4.915}, {"pitch": 42, "velocity": 80, "note_on_time": 4.633, "note_off_time": 4.915}, {"pitch": 64, "velocity": 80, "note_on_time": 4.915, "note_off_time": 5.209}, {"pitch": 42, "velocity": 80, "note_on_time": 4.915, "note_off_time": 5.209}, {"pitch": 64, "velocity": 80, "note_on_time": 5.209, "note_off_time": 5.49}, {"pitch": 42, "velocity": 80, "note_on_time": 5.209, "note_off_time": 5.49}, {"pitch": 60, "velocity": 80, "note_on_time": 5.49, "note_off_time": 5.786}, {"pitch": 42, "velocity": 80, "note_on_time": 5.49, "note_off_time": 5.786}, {"pitch": 62, "velocity": 80, "note_on_time": 5.786, "note_off_time": 6.079}, {"pitch": 42, "velocity": 80, "note_on_time": 5.786, "note_off_time": 6.079}, {"pitch": 64, "velocity": 80, "note_on_time": 6.079, "note_off_time": 6.374}, {"pitch": 42, "velocity": 80, "note_on_time": 6.08, "note_off_time": 6.375}, {"pitch": 62, "velocity": 80, "note_on_time": 6.374, "note_off_time": 6.655}, {"pitch": 42, "velocity": 80, "note_on_time": 6.375, "note_off_time": 6.656}, {"pitch": 62, "velocity": 80, "note_on_time": 6.655, "note_off_time": 6.951}, {"pitch": 42, "velocity": 80, "note_on_time": 6.656, "note_off_time": 6.951}, {"pitch": 64, "velocity": 80, "note_on_time": 6.951, "note_off_time": 7.246}, {"pitch": 42, "velocity": 80, "note_on_time": 6.951, "note_off_time": 7.247}, {"pitch": 60, "velocity": 80, "note_on_time": 7.246, "note_off_time": 7.542}, {"pitch": 42, "velocity": 80, "note_on_time": 7.247, "note_off_time": 7.543}, {"pitch": 42, "velocity": 80, "note_on_time": 7.543, "note_off_time": 7.823}, {"pitch": 64, "velocity": 80, "note_on_time": 7.823, "note_off_time": 8.119}, {"pitch": 42, "velocity": 80, "note_on_time": 7.823, "note_off_time": 8.119}, {"pitch": 42, "velocity": 80, "note_on_time": 8.12, "note_off_time": 8.4}, {"pitch": 64, "velocity": 80, "note_on_time": 8.119, "note_off_time": 8.695}, {"pitch": 42, "velocity": 80, "note_on_time": 8.401, "note_off_time": 8.696}, {"pitch": 42, "velocity": 80, "note_on_time": 8.696, "note_off_time": 8.99}, {"pitch": 42, "velocity": 80, "note_on_time": 8.99, "note_off_time": 9.271}, {"pitch": 42, "velocity": 80, "note_on_time": 9.272, "note_off_time": 9.566}, {"pitch": 64, "velocity": 80, "note_on_time": 9.566, "note_off_time": 9.849}, {"pitch": 42, "velocity": 80, "note_on_time": 9.567, "note_off_time": 9.85}, {"pitch": 64, "velocity": 80, "note_on_time": 9.849, "note_off_time": 10.131}, {"pitch": 42, "velocity": 80, "note_on_time": 9.85, "note_off_time": 10.131}, {"pitch": 64, "velocity": 80, "note_on_time": 10.131, "note_off_time": 10.427}, {"pitch": 42, "velocity": 80, "note_on_time": 10.131, "note_off_time": 10.427}]</notes><options name="Option List">((4, 4), [0.5, 0.25], 3, 8, &lt;NoteRangePerHand.THREE_NOTES: 4&gt;, &lt;NoteRangePerHand.ONE_NOTE: 2&gt;, False, True, True, '215')</options></target_notes><trials><trial trial_no="1" timestamp="2022_09_12-12_09_00"><notes name="Played Notes">[{"pitch": 62, "velocity": 82, "note_on_time": 1.345, "note_off_time": 1.479}, {"pitch": 64, "velocity": 83, "note_on_time": 1.645, "note_off_time": 1.81}, {"pitch": 64, "velocity": 89, "note_on_time": 2.395, "note_off_time": 2.721}, {"pitch": 64, "velocity": 84, "note_on_time": 3.29, "note_off_time": 3.433}, {"pitch": 64, "velocity": 90, "note_on_time": 3.588, "note_off_time": 3.716}, {"pitch": 62, "velocity": 89, "note_on_time": 4.527, "note_off_time": 4.656}, {"pitch": 64, "velocity": 93, "note_on_time": 4.803, "note_off_time": 4.928}, {"pitch": 64, "velocity": 81, "note_on_time": 5.102, "note_off_time": 5.239}, {"pitch": 60, "velocity": 91, "note_on_time": 5.415, "note_off_time": 5.566}, {"pitch": 62, "velocity": 83, "note_on_time": 6.009, "note_off_time": 6.111}, {"pitch": 64, "velocity": 93, "note_on_time": 6.221, "note_off_time": 6.356}, {"pitch": 62, "velocity": 82, "note_on_time": 6.908, "note_off_time": 7.02}, {"pitch": 62, "velocity": 86, "note_on_time": 7.214, "note_off_time": 7.333}, {"pitch": 64, "velocity": 93, "note_on_time": 7.495, "note_off_time": 7.657}, {"pitch": 60, "velocity": 92, "note_on_time": 7.79, "note_off_time": 7.944}, {"pitch": 64, "velocity": 88, "note_on_time": 8.578, "note_off_time": 8.709}, {"pitch": 64, "velocity": 95, "note_on_time": 8.976, "note_off_time": 9.273}, {"pitch": 64, "velocity": 88, "note_on_time": 9.821, "note_off_time": 9.922}, {"pitch": 64, "velocity": 87, "note_on_time": 10.082, "note_off_time": 10.183}]</notes><guidance name="Guidance Mode">None</guidance><error name="Error value">0.24201217647058806</error></trial><trial trial_no="2" timestamp="2022_09_12-12_09_22"><notes name="Played Notes">[{"pitch": 62, "velocity": 91, "note_on_time": 1.231, "note_off_time": 1.375}, {"pitch": 64, "velocity": 91, "note_on_time": 1.539, "note_off_time": 1.704}, {"pitch": 64, "velocity": 84, "note_on_time": 2.37, "note_off_time": 2.687}, {"pitch": 64, "velocity": 85, "note_on_time": 3.376, "note_off_time": 3.507}, {"pitch": 64, "velocity": 89, "note_on_time": 3.669, "note_off_time": 3.805}, {"pitch": 62, "velocity": 87, "note_on_time": 4.595, "note_off_time": 4.72}, {"pitch": 64, "velocity": 90, "note_on_time": 4.881, "note_off_time": 4.997}, {"pitch": 64, "velocity": 90, "note_on_time": 5.158, "note_off_time": 5.28}, {"pitch": 60, "velocity": 81, "note_on_time": 5.442, "note_off_time": 5.606}, {"pitch": 62, "velocity": 86, "note_on_time": 5.779, "note_off_time": 5.89}, {"pitch": 64, "velocity": 92, "note_on_time": 6.061, "note_off_time": 6.197}, {"pitch": 62, "velocity": 87, "note_on_time": 6.363, "note_off_time": 6.471}, {"pitch": 62, "velocity": 86, "note_on_time": 6.672, "note_off_time": 6.797}, {"pitch": 64, "velocity": 87, "note_on_time": 6.953, "note_off_time": 7.089}, {"pitch": 60, "velocity": 90, "note_on_time": 7.27, "note_off_time": 7.426}, {"pitch": 64, "velocity": 83, "note_on_time": 8.071, "note_off_time": 8.212}, {"pitch": 64, "velocity": 92, "note_on_time": 8.418, "note_off_time": 8.784}, {"pitch": 64, "velocity": 87, "note_on_time": 9.457, "note_off_time": 9.558}, {"pitch": 64, "velocity": 90, "note_on_time": 9.758, "note_off_time": 9.864}, {"pitch": 64, "velocity": 95, "note_on_time": 10.051, "note_off_time": 10.155}]</notes><guidance name="Guidance Mode">None</guidance><error name="Error value">0.07521499999999992</error></trial><trial trial_no="3" timestamp="2022_09_12-12_09_45"><notes name="Played Notes">[{"pitch": 62, "velocity": 86, "note_on_time": 1.244, "note_off_time": 1.401}, {"pitch": 64, "velocity": 88, "note_on_time": 1.535, "note_off_time": 1.69}, {"pitch": 64, "velocity": 82, "note_on_time": 2.354, "note_off_time": 2.706}, {"pitch": 64, "velocity": 82, "note_on_time": 3.503, "note_off_time": 3.615}, {"pitch": 64, "velocity": 87, "note_on_time": 3.794, "note_off_time": 3.909}, {"pitch": 62, "velocity": 83, "note_on_time": 4.817, "note_off_time": 4.948}, {"pitch": 64, "velocity": 90, "note_on_time": 5.128, "note_off_time": 5.253}, {"pitch": 64, "velocity": 89, "note_on_time": 5.409, "note_off_time": 5.543}, {"pitch": 60, "velocity": 85, "note_on_time": 5.713, "note_off_time": 5.863}, {"pitch": 62, "velocity": 85, "note_on_time": 6.026, "note_off_time": 6.144}, {"pitch": 64, "velocity": 91, "note_on_time": 6.324, "note_off_time": 6.449}, {"pitch": 62, "velocity": 86, "note_on_time": 6.721, "note_off_time": 6.843}, {"pitch": 62, "velocity": 82, "note_on_time": 7.018, "note_off_time": 7.155}, {"pitch": 64, "velocity": 88, "note_on_time": 7.427, "note_off_time": 7.545}, {"pitch": 60, "velocity": 90, "note_on_time": 7.774, "note_off_time": 7.926}, {"pitch": 64, "velocity": 89, "note_on_time": 8.565, "note_off_time": 8.686}, {"pitch": 64, "velocity": 92, "note_on_time": 9.022, "note_off_time": 9.409}, {"pitch": 64, "velocity": 90, "note_on_time": 9.984, "note_off_time": 10.094}, {"pitch": 64, "velocity": 87, "note_on_time": 10.276, "note_off_time": 10.383}]</notes><guidance name="Guidance Mode">None</guidance><error name="Error value">0.22387017647058824</error></trial><trial trial_no="4" timestamp="2022_09_12-12_10_08"><notes name="Played Notes">[{"pitch": 62, "velocity": 85, "note_on_time": 1.053, "note_off_time": 1.218}, {"pitch": 64, "velocity": 87, "note_on_time": 1.376, "note_off_time": 1.566}, {"pitch": 64, "velocity": 88, "note_on_time": 2.175, "note_off_time": 2.503}, {"pitch": 64, "velocity": 84, "note_on_time": 3.209, "note_off_time": 3.338}, {"pitch": 64, "velocity": 88, "note_on_time": 3.504, "note_off_time": 3.621}, {"pitch": 62, "velocity": 85, "note_on_time": 4.444, "note_off_time": 4.591}, {"pitch": 64, "velocity": 91, "note_on_time": 4.752, "note_off_time": 4.877}, {"pitch": 64, "velocity": 84, "note_on_time": 5.044, "note_off_time": 5.193}, {"pitch": 60, "velocity": 85, "note_on_time": 5.361, "note_off_time": 5.517}, {"pitch": 62, "velocity": 83, "note_on_time": 5.665, "note_off_time": 5.802}, {"pitch": 64, "velocity": 90, "note_on_time": 5.966, "note_off_time": 6.1}, {"pitch": 62, "velocity": 83, "note_on_time": 6.274, "note_off_time": 6.399}, {"pitch": 62, "velocity": 86, "note_on_time": 6.601, "note_off_time": 6.733}, {"pitch": 64, "velocity": 83, "note_on_time": 6.927, "note_off_time": 7.064}, {"pitch": 60, "velocity": 89, "note_on_time": 7.741, "note_off_time": 7.897}, {"pitch": 64, "velocity": 87, "note_on_time": 8.176, "note_off_time": 8.307}, {"pitch": 64, "velocity": 88, "note_on_time": 8.545, "note_off_time": 9.014}, {"pitch": 64, "velocity": 85, "note_on_time": 9.837, "note_off_time": 9.951}, {"pitch": 64, "velocity": 89, "note_on_time": 10.1, "note_off_time": 10.203}, {"pitch": 64, "velocity": 89, "note_on_time": 10.358, "note_off_time": 10.453}]</notes><guidance name="Guidance Mode">None</guidance><error name="Error value">0.09470994117647052</error></trial><trial trial_no="5" timestamp="2022_09_12-12_10_31"><notes name="Played Notes">[{"pitch": 62, "velocity": 88, "note_on_time": 1.239, "note_off_time": 1.362}, {"pitch": 64, "velocity": 84, "note_on_time": 1.519, "note_off_time": 1.658}, {"pitch": 64, "velocity": 88, "note_on_time": 2.139, "note_off_time": 2.297}, {"pitch": 64, "velocity": 85, "note_on_time": 3.288, "note_off_time": 3.4}, {"pitch": 64, "velocity": 87, "note_on_time": 3.577, "note_off_time": 3.7}, {"pitch": 62, "velocity": 79, "note_on_time": 4.537, "note_off_time": 4.651}, {"pitch": 64, "velocity": 90, "note_on_time": 4.85, "note_off_time": 4.956}, {"pitch": 64, "velocity": 85, "note_on_time": 5.134, "note_off_time": 5.262}, {"pitch": 60, "velocity": 92, "note_on_time": 5.447, "note_off_time": 5.595}, {"pitch": 62, "velocity": 78, "note_on_time": 6.038, "note_off_time": 6.146}, {"pitch": 64, "velocity": 87, "note_on_time": 6.333, "note_off_time": 6.47}, {"pitch": 62, "velocity": 86, "note_on_time": 6.674, "note_off_time": 6.776}, {"pitch": 62, "velocity": 82, "note_on_time": 6.958, "note_off_time": 7.093}, {"pitch": 64, "velocity": 87, "note_on_time": 7.26, "note_off_time": 7.403}, {"pitch": 60, "velocity": 92, "note_on_time": 7.571, "note_off_time": 7.735}, {"pitch": 64, "velocity": 77, "note_on_time": 8.418, "note_off_time": 8.549}, {"pitch": 64, "velocity": 90, "note_on_time": 8.749, "note_off_time": 9.159}, {"pitch": 64, "velocity": 92, "note_on_time": 10.143, "note_off_time": 10.252}]</notes><guidance name="Guidance Mode">None</guidance><error name="Error value">0.2877403529411766</error></trial><trial trial_no="6" timestamp="2022_09_12-12_11_03"><notes name="Played Notes">[{"pitch": 62, "velocity": 83, "note_on_time": 1.2, "note_off_time": 1.371}, {"pitch": 64, "velocity": 83, "note_on_time": 1.509, "note_off_time": 1.692}, {"pitch": 64, "velocity": 81, "note_on_time": 2.433, "note_off_time": 2.818}, {"pitch": 64, "velocity": 86, "note_on_time": 3.448, "note_off_time": 3.558}, {"pitch": 64, "velocity": 81, "note_on_time": 3.746, "note_off_time": 3.874}, {"pitch": 62, "velocity": 87, "note_on_time": 4.751, "note_off_time": 4.902}, {"pitch": 64, "velocity": 85, "note_on_time": 5.071, "note_off_time": 5.189}, {"pitch": 64, "velocity": 83, "note_on_time": 5.36, "note_off_time": 5.518}, {"pitch": 60, "velocity": 88, "note_on_time": 5.726, "note_off_time": 5.882}, {"pitch": 62, "velocity": 84, "note_on_time": 6.302, "note_off_time": 6.424}, {"pitch": 64, "velocity": 85, "note_on_time": 6.594, "note_off_time": 6.738}, {"pitch": 62, "velocity": 57, "note_on_time": 7.005, "note_off_time": 7.149}, {"pitch": 62, "velocity": 83, "note_on_time": 7.358, "note_off_time": 7.486}, {"pitch": 64, "velocity": 84, "note_on_time": 7.708, "note_off_time": 7.873}, {"pitch": 60, "velocity": 89, "note_on_time": 8.099, "note_off_time": 8.259}, {"pitch": 64, "velocity": 86, "note_on_time": 8.838, "note_off_time": 8.97}, {"pitch": 64, "velocity": 86, "note_on_time": 9.139, "note_off_time": 9.463}, {"pitch": 64, "velocity": 88, "note_on_time": 9.99, "note_off_time": 10.103}, {"pitch": 64, "velocity": 83, "note_on_time": 10.287, "note_off_time": 10.383}]</notes><guidance name="Guidance Mode">None</guidance><error name="Error value">0.24849288235294129</error></trial></trials></MIDI>