<MIDI midiNo="2022_11_23-16_36_40"><target_notes><notes name="Note List">[{"pitch": 42, "velocity": 80, "note_on_time": 0.004, "note_off_time": 0.268}, {"pitch": 42, "velocity": 80, "note_on_time": 0.268, "note_off_time": 0.531}, {"pitch": 42, "velocity": 80, "note_on_time": 0.531, "note_off_time": 0.795}, {"pitch": 42, "velocity": 80, "note_on_time": 0.795, "note_off_time": 1.061}, {"pitch": 42, "velocity": 80, "note_on_time": 1.061, "note_off_time": 1.326}, {"pitch": 62, "velocity": 80, "note_on_time": 1.06, "note_off_time": 1.591}, {"pitch": 42, "velocity": 80, "note_on_time": 1.326, "note_off_time": 1.591}, {"pitch": 65, "velocity": 80, "note_on_time": 1.591, "note_off_time": 1.862}, {"pitch": 42, "velocity": 80, "note_on_time": 1.591, "note_off_time": 1.862}, {"pitch": 42, "velocity": 80, "note_on_time": 1.862, "note_off_time": 2.123}, {"pitch": 64, "velocity": 80, "note_on_time": 2.123, "note_off_time": 2.387}, {"pitch": 42, "velocity": 80, "note_on_time": 2.123, "note_off_time": 2.388}, {"pitch": 60, "velocity": 80, "note_on_time": 2.387, "note_off_time": 2.651}, {"pitch": 42, "velocity": 80, "note_on_time": 2.388, "note_off_time": 2.651}, {"pitch": 60, "velocity": 80, "note_on_time": 2.651, "note_off_time": 2.914}, {"pitch": 42, "velocity": 80, "note_on_time": 2.651, "note_off_time": 2.914}, {"pitch": 64, "velocity": 80, "note_on_time": 2.914, "note_off_time": 3.178}, {"pitch": 42, "velocity": 80, "note_on_time": 2.914, "note_off_time": 3.178}, {"pitch": 64, "velocity": 80, "note_on_time": 3.178, "note_off_time": 3.442}, {"pitch": 42, "velocity": 80, "note_on_time": 3.178, "note_off_time": 3.443}, {"pitch": 67, "velocity": 80, "note_on_time": 3.442, "note_off_time": 3.705}, {"pitch": 42, "velocity": 80, "note_on_time": 3.443, "note_off_time": 3.706}, {"pitch": 42, "velocity": 80, "note_on_time": 3.706, "note_off_time": 3.969}, {"pitch": 60, "velocity": 80, "note_on_time": 3.968, "note_off_time": 4.231}, {"pitch": 42, "velocity": 80, "note_on_time": 3.969, "note_off_time": 4.231}, {"pitch": 67, "velocity": 80, "note_on_time": 4.231, "note_off_time": 4.497}, {"pitch": 42, "velocity": 80, "note_on_time": 4.232, "note_off_time": 4.498}, {"pitch": 42, "velocity": 80, "note_on_time": 4.498, "note_off_time": 4.762}, {"pitch": 64, "velocity": 80, "note_on_time": 4.497, "note_off_time": 5.026}, {"pitch": 42, "velocity": 80, "note_on_time": 4.762, "note_off_time": 5.026}, {"pitch": 42, "velocity": 80, "note_on_time": 5.027, "note_off_time": 5.29}, {"pitch": 67, "velocity": 80, "note_on_time": 5.29, "note_off_time": 5.555}, {"pitch": 42, "velocity": 80, "note_on_time": 5.291, "note_off_time": 5.555}, {"pitch": 64, "velocity": 80, "note_on_time": 5.555, "note_off_time": 5.82}, {"pitch": 42, "velocity": 80, "note_on_time": 5.555, "note_off_time": 5.82}, {"pitch": 62, "velocity": 80, "note_on_time": 5.82, "note_off_time": 6.083}, {"pitch": 42, "velocity": 80, "note_on_time": 5.82, "note_off_time": 6.083}, {"pitch": 64, "velocity": 80, "note_on_time": 6.083, "note_off_time": 6.346}, {"pitch": 42, "velocity": 80, "note_on_time": 6.083, "note_off_time": 6.346}, {"pitch": 64, "velocity": 80, "note_on_time": 6.346, "note_off_time": 6.61}, {"pitch": 42, "velocity": 80, "note_on_time": 6.347, "note_off_time": 6.611}, {"pitch": 60, "velocity": 80, "note_on_time": 6.61, "note_off_time": 6.873}, {"pitch": 42, "velocity": 80, "note_on_time": 6.611, "note_off_time": 6.873}, {"pitch": 67, "velocity": 80, "note_on_time": 6.873, "note_off_time": 7.137}, {"pitch": 42, "velocity": 80, "note_on_time": 6.874, "note_off_time": 7.138}, {"pitch": 60, "velocity": 80, "note_on_time": 7.137, "note_off_time": 7.402}, {"pitch": 42, "velocity": 80, "note_on_time": 7.138, "note_off_time": 7.402}, {"pitch": 67, "velocity": 80, "note_on_time": 7.402, "note_off_time": 7.669}, {"pitch": 42, "velocity": 80, "note_on_time": 7.402, "note_off_time": 7.67}, {"pitch": 62, "velocity": 80, "note_on_time": 7.669, "note_off_time": 7.934}, {"pitch": 42, "velocity": 80, "note_on_time": 7.67, "note_off_time": 7.934}, {"pitch": 62, "velocity": 80, "note_on_time": 7.934, "note_off_time": 8.197}, {"pitch": 42, "velocity": 80, "note_on_time": 7.935, "note_off_time": 8.197}, {"pitch": 67, "velocity": 80, "note_on_time": 8.197, "note_off_time": 8.458}, {"pitch": 42, "velocity": 80, "note_on_time": 8.198, "note_off_time": 8.458}, {"pitch": 42, "velocity": 80, "note_on_time": 8.458, "note_off_time": 8.723}, {"pitch": 67, "velocity": 80, "note_on_time": 8.723, "note_off_time": 8.987}, {"pitch": 42, "velocity": 80, "note_on_time": 8.723, "note_off_time": 8.987}, {"pitch": 67, "velocity": 80, "note_on_time": 8.987, "note_off_time": 9.253}, {"pitch": 42, "velocity": 80, "note_on_time": 8.988, "note_off_time": 9.254}, {"pitch": 67, "velocity": 80, "note_on_time": 9.253, "note_off_time": 9.519}, {"pitch": 42, "velocity": 80, "note_on_time": 9.254, "note_off_time": 9.519}]</notes><options name="Option List">((4, 4), [0.5, 0.25], 3, 8, &lt;NoteRangePerHand.C_TO_G: 6&gt;, &lt;NoteRangePerHand.ONE_NOTE: 2&gt;, False, True, True, '232')</options></target_notes><trials><trial trial_no="1" timestamp="2022_11_23-16_36_29"><notes name="Played Notes">[{"pitch": 62, "velocity": 80, "note_on_time": 1.125, "note_off_time": 1.562}, {"pitch": 65, "velocity": 75, "note_on_time": 1.686, "note_off_time": 2.049}, {"pitch": 64, "velocity": 70, "note_on_time": 2.456, "note_off_time": 2.632}, {"pitch": 60, "velocity": 64, "note_on_time": 2.733, "note_off_time": 2.834}, {"pitch": 60, "velocity": 67, "note_on_time": 3.004, "note_off_time": 3.125}, {"pitch": 64, "velocity": 64, "note_on_time": 3.271, "note_off_time": 3.495}, {"pitch": 64, "velocity": 81, "note_on_time": 3.809, "note_off_time": 4.046}, {"pitch": 67, "velocity": 64, "note_on_time": 4.062, "note_off_time": 4.217}, {"pitch": 60, "velocity": 52, "note_on_time": 4.378, "note_off_time": 4.724}, {"pitch": 67, "velocity": 68, "note_on_time": 4.944, "note_off_time": 5.271}, {"pitch": 64, "velocity": 69, "note_on_time": 5.497, "note_off_time": 5.848}, {"pitch": 67, "velocity": 69, "note_on_time": 6.137, "note_off_time": 6.433}, {"pitch": 64, "velocity": 61, "note_on_time": 6.417, "note_off_time": 6.679}, {"pitch": 62, "velocity": 59, "note_on_time": 6.683, "note_off_time": 6.943}, {"pitch": 64, "velocity": 62, "note_on_time": 6.95, "note_off_time": 7.074}, {"pitch": 64, "velocity": 64, "note_on_time": 7.228, "note_off_time": 7.487}, {"pitch": 60, "velocity": 65, "note_on_time": 7.504, "note_off_time": 7.795}, {"pitch": 67, "velocity": 57, "note_on_time": 7.799, "note_off_time": 8.043}, {"pitch": 60, "velocity": 62, "note_on_time": 8.08, "note_off_time": 8.212}, {"pitch": 67, "velocity": 65, "note_on_time": 8.342, "note_off_time": 8.604}, {"pitch": 62, "velocity": 57, "note_on_time": 8.623, "note_off_time": 8.739}, {"pitch": 62, "velocity": 66, "note_on_time": 8.92, "note_off_time": 9.207}, {"pitch": 67, "velocity": 64, "note_on_time": 9.206, "note_off_time": 9.349}]</notes><guidance name="Guidance Mode">None</guidance><error name="Error value">0.24052956521739155</error></trial><trial trial_no="2" timestamp="2022_11_23-16_36_58"><notes name="Played Notes">[{"pitch": 62, "velocity": 76, "note_on_time": 1.1, "note_off_time": 1.495}, {"pitch": 65, "velocity": 74, "note_on_time": 1.691, "note_off_time": 1.969}, {"pitch": 64, "velocity": 83, "note_on_time": 2.54, "note_off_time": 2.678}, {"pitch": 60, "velocity": 74, "note_on_time": 2.817, "note_off_time": 2.949}, {"pitch": 60, "velocity": 68, "note_on_time": 3.119, "note_off_time": 3.269}, {"pitch": 64, "velocity": 76, "note_on_time": 3.408, "note_off_time": 3.559}, {"pitch": 64, "velocity": 72, "note_on_time": 3.706, "note_off_time": 3.981}, {"pitch": 67, "velocity": 64, "note_on_time": 3.995, "note_off_time": 4.17}, {"pitch": 60, "velocity": 73, "note_on_time": 4.281, "note_off_time": 4.536}, {"pitch": 67, "velocity": 67, "note_on_time": 4.854, "note_off_time": 5.095}, {"pitch": 64, "velocity": 73, "note_on_time": 5.142, "note_off_time": 5.63}, {"pitch": 64, "velocity": 87, "note_on_time": 6.05, "note_off_time": 6.177}, {"pitch": 64, "velocity": 81, "note_on_time": 6.359, "note_off_time": 6.746}, {"pitch": 62, "velocity": 78, "note_on_time": 7.145, "note_off_time": 7.416}, {"pitch": 64, "velocity": 68, "note_on_time": 7.426, "note_off_time": 7.595}, {"pitch": 64, "velocity": 81, "note_on_time": 7.759, "note_off_time": 8.014}, {"pitch": 60, "velocity": 65, "note_on_time": 8.026, "note_off_time": 8.193}, {"pitch": 67, "velocity": 68, "note_on_time": 8.321, "note_off_time": 8.548}, {"pitch": 60, "velocity": 68, "note_on_time": 8.61, "note_off_time": 8.755}, {"pitch": 67, "velocity": 67, "note_on_time": 8.911, "note_off_time": 9.132}, {"pitch": 62, "velocity": 73, "note_on_time": 9.18, "note_off_time": 9.316}]</notes><guidance name="Guidance Mode">None</guidance><error name="Error value">0.6902626086956523</error></trial><trial trial_no="3" timestamp="2022_11_23-16_37_25"><notes name="Played Notes">[{"pitch": 62, "velocity": 77, "note_on_time": 1.08, "note_off_time": 1.461}, {"pitch": 65, "velocity": 78, "note_on_time": 1.651, "note_off_time": 1.927}, {"pitch": 64, "velocity": 82, "note_on_time": 2.45, "note_off_time": 2.567}, {"pitch": 60, "velocity": 81, "note_on_time": 2.708, "note_off_time": 2.82}, {"pitch": 60, "velocity": 73, "note_on_time": 3.002, "note_off_time": 3.107}, {"pitch": 64, "velocity": 75, "note_on_time": 3.267, "note_off_time": 3.414}, {"pitch": 64, "velocity": 73, "note_on_time": 3.556, "note_off_time": 3.812}, {"pitch": 67, "velocity": 69, "note_on_time": 3.823, "note_off_time": 3.97}, {"pitch": 60, "velocity": 80, "note_on_time": 4.346, "note_off_time": 4.457}, {"pitch": 67, "velocity": 74, "note_on_time": 4.608, "note_off_time": 4.755}, {"pitch": 64, "velocity": 80, "note_on_time": 4.878, "note_off_time": 5.002}, {"pitch": 67, "velocity": 79, "note_on_time": 5.482, "note_off_time": 5.642}, {"pitch": 64, "velocity": 75, "note_on_time": 5.725, "note_off_time": 5.862}, {"pitch": 62, "velocity": 74, "note_on_time": 5.996, "note_off_time": 6.112}, {"pitch": 64, "velocity": 77, "note_on_time": 6.267, "note_off_time": 6.382}, {"pitch": 64, "velocity": 79, "note_on_time": 6.558, "note_off_time": 6.722}, {"pitch": 60, "velocity": 77, "note_on_time": 6.833, "note_off_time": 6.931}, {"pitch": 67, "velocity": 78, "note_on_time": 7.092, "note_off_time": 7.244}, {"pitch": 60, "velocity": 80, "note_on_time": 7.378, "note_off_time": 7.474}, {"pitch": 67, "velocity": 68, "note_on_time": 7.668, "note_off_time": 7.811}, {"pitch": 62, "velocity": 68, "note_on_time": 7.939, "note_off_time": 8.041}, {"pitch": 62, "velocity": 70, "note_on_time": 8.223, "note_off_time": 8.323}, {"pitch": 67, "velocity": 70, "note_on_time": 8.491, "note_off_time": 8.627}, {"pitch": 67, "velocity": 84, "note_on_time": 8.973, "note_off_time": 9.092}, {"pitch": 67, "velocity": 78, "note_on_time": 9.255, "note_off_time": 9.363}]</notes><guidance name="Guidance Mode">None</guidance><error name="Error value">0.09224782608695664</error></trial></trials></MIDI>