<MIDI midiNo="20220202-152449"><target_notes><notes name="Note List">[{"pitch": 60, "velocity": 100, "note_on_time": 1.358, "note_off_time": 1.695}, {"pitch": 64, "velocity": 100, "note_on_time": 2.033, "note_off_time": 2.371}, {"pitch": 64, "velocity": 100, "note_on_time": 2.371, "note_off_time": 2.708}, {"pitch": 60, "velocity": 100, "note_on_time": 2.709, "note_off_time": 3.383}, {"pitch": 60, "velocity": 100, "note_on_time": 3.383, "note_off_time": 4.06}, {"pitch": 62, "velocity": 100, "note_on_time": 4.06, "note_off_time": 4.395}, {"pitch": 64, "velocity": 100, "note_on_time": 4.395, "note_off_time": 4.734}, {"pitch": 64, "velocity": 100, "note_on_time": 4.734, "note_off_time": 5.071}, {"pitch": 60, "velocity": 100, "note_on_time": 5.071, "note_off_time": 5.41}, {"pitch": 64, "velocity": 100, "note_on_time": 5.41, "note_off_time": 6.085}, {"pitch": 62, "velocity": 100, "note_on_time": 6.085, "note_off_time": 6.76}, {"pitch": 60, "velocity": 100, "note_on_time": 6.76, "note_off_time": 7.098}, {"pitch": 60, "velocity": 100, "note_on_time": 7.098, "note_off_time": 7.436}, {"pitch": 60, "velocity": 100, "note_on_time": 7.436, "note_off_time": 7.774}, {"pitch": 60, "velocity": 100, "note_on_time": 7.774, "note_off_time": 8.112}, {"pitch": 64, "velocity": 100, "note_on_time": 8.112, "note_off_time": 8.449}, {"pitch": 60, "velocity": 100, "note_on_time": 8.449, "note_off_time": 9.125}, {"pitch": 60, "velocity": 100, "note_on_time": 9.799, "note_off_time": 10.138}, {"pitch": 60, "velocity": 100, "note_on_time": 10.138, "note_off_time": 10.475}, {"pitch": 60, "velocity": 100, "note_on_time": 10.475, "note_off_time": 10.814}]</notes><options name="Option List">((4, 4), [0.5, 0.25], 3, 7, &lt;NoteRangePerHand.THREE_NOTES: 4&gt;, &lt;NoteRangePerHand.ONE_NOTE: 2&gt;, False, True, True, 180)</options></target_notes><trials><trial trial_no="1" timestamp="20220202-152436"><notes name="Played Notes">[{"pitch": 60, "velocity": 100, "note_on_time": 1.368, "note_off_time": 1.631}, {"pitch": 64, "velocity": 100, "note_on_time": 2.07, "note_off_time": 2.178}, {"pitch": 64, "velocity": 100, "note_on_time": 2.414, "note_off_time": 2.542}, {"pitch": 60, "velocity": 100, "note_on_time": 2.738, "note_off_time": 3.178}, {"pitch": 60, "velocity": 100, "note_on_time": 3.364, "note_off_time": 3.923}, {"pitch": 62, "velocity": 100, "note_on_time": 4.016, "note_off_time": 4.363}, {"pitch": 64, "velocity": 100, "note_on_time": 4.349, "note_off_time": 4.482}, {"pitch": 64, "velocity": 100, "note_on_time": 4.679, "note_off_time": 5.033}, {"pitch": 60, "velocity": 100, "note_on_time": 5.015, "note_off_time": 5.432}, {"pitch": 64, "velocity": 100, "note_on_time": 5.381, "note_off_time": 6.116}, {"pitch": 62, "velocity": 100, "note_on_time": 6.101, "note_off_time": 6.693}, {"pitch": 60, "velocity": 100, "note_on_time": 6.744, "note_off_time": 6.88}, {"pitch": 60, "velocity": 100, "note_on_time": 7.078, "note_off_time": 7.196}, {"pitch": 60, "velocity": 100, "note_on_time": 7.403, "note_off_time": 7.53}, {"pitch": 60, "velocity": 100, "note_on_time": 7.743, "note_off_time": 7.87}, {"pitch": 64, "velocity": 100, "note_on_time": 8.092, "note_off_time": 8.398}, {"pitch": 60, "velocity": 100, "note_on_time": 8.415, "note_off_time": 9.029}, {"pitch": 60, "velocity": 100, "note_on_time": 9.78, "note_off_time": 9.892}, {"pitch": 60, "velocity": 100, "note_on_time": 10.119, "note_off_time": 10.229}, {"pitch": 60, "velocity": 100, "note_on_time": 10.439, "note_off_time": 10.639}]</notes><guidance name="Guidance Mode">None</guidance><error name="Error value">18.40876226470588</error></trial><trial trial_no="2" timestamp="20220202-152504"><notes name="Played Notes">[{"pitch": 60, "velocity": 100, "note_on_time": 1.382, "note_off_time": 1.712}, {"pitch": 64, "velocity": 100, "note_on_time": 2.042, "note_off_time": 2.18}, {"pitch": 64, "velocity": 100, "note_on_time": 2.364, "note_off_time": 2.577}, {"pitch": 60, "velocity": 100, "note_on_time": 2.716, "note_off_time": 3.219}, {"pitch": 60, "velocity": 100, "note_on_time": 3.4, "note_off_time": 3.961}, {"pitch": 62, "velocity": 100, "note_on_time": 4.057, "note_off_time": 4.407}, {"pitch": 64, "velocity": 100, "note_on_time": 4.389, "note_off_time": 4.525}, {"pitch": 64, "velocity": 100, "note_on_time": 4.697, "note_off_time": 5.07}, {"pitch": 60, "velocity": 100, "note_on_time": 5.053, "note_off_time": 5.451}, {"pitch": 64, "velocity": 100, "note_on_time": 5.424, "note_off_time": 6.117}, {"pitch": 62, "velocity": 100, "note_on_time": 6.097, "note_off_time": 6.594}, {"pitch": 60, "velocity": 100, "note_on_time": 6.749, "note_off_time": 6.89}, {"pitch": 60, "velocity": 100, "note_on_time": 7.07, "note_off_time": 7.21}, {"pitch": 60, "velocity": 100, "note_on_time": 7.395, "note_off_time": 7.529}, {"pitch": 60, "velocity": 100, "note_on_time": 7.717, "note_off_time": 7.913}, {"pitch": 64, "velocity": 100, "note_on_time": 8.081, "note_off_time": 8.264}, {"pitch": 60, "velocity": 100, "note_on_time": 8.422, "note_off_time": 8.888}, {"pitch": 60, "velocity": 100, "note_on_time": 9.784, "note_off_time": 9.918}, {"pitch": 60, "velocity": 100, "note_on_time": 10.114, "note_off_time": 10.248}, {"pitch": 60, "velocity": 100, "note_on_time": 10.441, "note_off_time": 10.653}]</notes><guidance name="Guidance Mode">None</guidance><error name="Error value">18.36448767647059</error></trial></trials></MIDI>