<MIDI midiNo="2022_11_21-18_30_05"><target_notes><notes name="Note List">[{"pitch": 42, "velocity": 80, "note_on_time": 0.004, "note_off_time": 0.35}, {"pitch": 42, "velocity": 80, "note_on_time": 0.35, "note_off_time": 0.694}, {"pitch": 42, "velocity": 80, "note_on_time": 0.694, "note_off_time": 1.039}, {"pitch": 42, "velocity": 80, "note_on_time": 1.039, "note_off_time": 1.38}, {"pitch": 64, "velocity": 80, "note_on_time": 1.38, "note_off_time": 1.723}, {"pitch": 42, "velocity": 80, "note_on_time": 1.38, "note_off_time": 1.724}, {"pitch": 64, "velocity": 80, "note_on_time": 1.723, "note_off_time": 2.064}, {"pitch": 42, "velocity": 80, "note_on_time": 1.724, "note_off_time": 2.065}, {"pitch": 60, "velocity": 80, "note_on_time": 2.064, "note_off_time": 2.404}, {"pitch": 42, "velocity": 80, "note_on_time": 2.065, "note_off_time": 2.404}, {"pitch": 65, "velocity": 80, "note_on_time": 2.404, "note_off_time": 2.747}, {"pitch": 42, "velocity": 80, "note_on_time": 2.405, "note_off_time": 2.747}, {"pitch": 42, "velocity": 80, "note_on_time": 2.747, "note_off_time": 3.09}, {"pitch": 64, "velocity": 80, "note_on_time": 2.747, "note_off_time": 3.433}, {"pitch": 42, "velocity": 80, "note_on_time": 3.09, "note_off_time": 3.434}, {"pitch": 42, "velocity": 80, "note_on_time": 3.434, "note_off_time": 3.778}, {"pitch": 42, "velocity": 80, "note_on_time": 3.779, "note_off_time": 4.119}, {"pitch": 67, "velocity": 80, "note_on_time": 4.119, "note_off_time": 4.463}, {"pitch": 42, "velocity": 80, "note_on_time": 4.119, "note_off_time": 4.463}, {"pitch": 65, "velocity": 80, "note_on_time": 4.463, "note_off_time": 4.805}, {"pitch": 42, "velocity": 80, "note_on_time": 4.463, "note_off_time": 4.805}, {"pitch": 64, "velocity": 80, "note_on_time": 4.805, "note_off_time": 5.148}, {"pitch": 42, "velocity": 80, "note_on_time": 4.805, "note_off_time": 5.148}, {"pitch": 60, "velocity": 80, "note_on_time": 5.148, "note_off_time": 5.49}, {"pitch": 42, "velocity": 80, "note_on_time": 5.148, "note_off_time": 5.49}, {"pitch": 67, "velocity": 80, "note_on_time": 5.49, "note_off_time": 5.832}, {"pitch": 42, "velocity": 80, "note_on_time": 5.49, "note_off_time": 5.832}, {"pitch": 42, "velocity": 80, "note_on_time": 5.832, "note_off_time": 6.175}, {"pitch": 42, "velocity": 80, "note_on_time": 6.175, "note_off_time": 6.516}, {"pitch": 42, "velocity": 80, "note_on_time": 6.516, "note_off_time": 6.858}, {"pitch": 65, "velocity": 80, "note_on_time": 6.858, "note_off_time": 7.201}, {"pitch": 42, "velocity": 80, "note_on_time": 6.858, "note_off_time": 7.202}, {"pitch": 60, "velocity": 80, "note_on_time": 7.201, "note_off_time": 7.544}, {"pitch": 42, "velocity": 80, "note_on_time": 7.202, "note_off_time": 7.544}, {"pitch": 65, "velocity": 80, "note_on_time": 7.544, "note_off_time": 7.886}, {"pitch": 42, "velocity": 80, "note_on_time": 7.544, "note_off_time": 7.886}, {"pitch": 64, "velocity": 80, "note_on_time": 7.886, "note_off_time": 8.231}, {"pitch": 42, "velocity": 80, "note_on_time": 7.886, "note_off_time": 8.231}, {"pitch": 64, "velocity": 80, "note_on_time": 8.231, "note_off_time": 8.577}, {"pitch": 42, "velocity": 80, "note_on_time": 8.232, "note_off_time": 8.577}, {"pitch": 62, "velocity": 80, "note_on_time": 8.577, "note_off_time": 8.922}, {"pitch": 42, "velocity": 80, "note_on_time": 8.578, "note_off_time": 8.922}, {"pitch": 62, "velocity": 80, "note_on_time": 8.922, "note_off_time": 9.263}, {"pitch": 42, "velocity": 80, "note_on_time": 8.923, "note_off_time": 9.264}, {"pitch": 60, "velocity": 80, "note_on_time": 9.263, "note_off_time": 9.608}, {"pitch": 42, "velocity": 80, "note_on_time": 9.264, "note_off_time": 9.608}, {"pitch": 42, "velocity": 80, "note_on_time": 9.609, "note_off_time": 9.952}, {"pitch": 67, "velocity": 80, "note_on_time": 9.608, "note_off_time": 10.294}, {"pitch": 42, "velocity": 80, "note_on_time": 9.952, "note_off_time": 10.294}, {"pitch": 42, "velocity": 80, "note_on_time": 10.295, "note_off_time": 10.637}, {"pitch": 42, "velocity": 80, "note_on_time": 10.637, "note_off_time": 10.978}, {"pitch": 42, "velocity": 80, "note_on_time": 10.978, "note_off_time": 11.321}, {"pitch": 67, "velocity": 80, "note_on_time": 11.321, "note_off_time": 11.664}, {"pitch": 42, "velocity": 80, "note_on_time": 11.321, "note_off_time": 11.665}, {"pitch": 67, "velocity": 80, "note_on_time": 11.664, "note_off_time": 12.006}, {"pitch": 42, "velocity": 80, "note_on_time": 11.665, "note_off_time": 12.006}, {"pitch": 67, "velocity": 80, "note_on_time": 12.006, "note_off_time": 12.351}, {"pitch": 42, "velocity": 80, "note_on_time": 12.006, "note_off_time": 12.351}]</notes><options name="Option List">((4, 4), [0.5, 0.25], 3, 8, &lt;NoteRangePerHand.C_TO_G: 6&gt;, &lt;NoteRangePerHand.ONE_NOTE: 2&gt;, False, True, False, 182)</options></target_notes><trials><trial trial_no="1" timestamp="2022_11_21-18_29_51"><notes name="Played Notes">[{"pitch": 64, "velocity": 98, "note_on_time": 1.388, "note_off_time": 1.464}, {"pitch": 64, "velocity": 91, "note_on_time": 1.723, "note_off_time": 2.047}, {"pitch": 60, "velocity": 87, "note_on_time": 2.071, "note_off_time": 2.44}, {"pitch": 65, "velocity": 88, "note_on_time": 2.42, "note_off_time": 2.762}, {"pitch": 64, "velocity": 97, "note_on_time": 2.741, "note_off_time": 3.233}, {"pitch": 67, "velocity": 93, "note_on_time": 4.094, "note_off_time": 4.477}, {"pitch": 65, "velocity": 83, "note_on_time": 4.46, "note_off_time": 4.799}, {"pitch": 64, "velocity": 81, "note_on_time": 4.809, "note_off_time": 5.134}, {"pitch": 60, "velocity": 88, "note_on_time": 5.147, "note_off_time": 5.517}, {"pitch": 67, "velocity": 93, "note_on_time": 5.509, "note_off_time": 5.96}, {"pitch": 65, "velocity": 96, "note_on_time": 6.808, "note_off_time": 7.172}, {"pitch": 60, "velocity": 81, "note_on_time": 7.195, "note_off_time": 7.552}, {"pitch": 65, "velocity": 90, "note_on_time": 7.521, "note_off_time": 7.888}, {"pitch": 64, "velocity": 82, "note_on_time": 7.872, "note_off_time": 8.245}, {"pitch": 62, "velocity": 89, "note_on_time": 8.244, "note_off_time": 8.406}, {"pitch": 64, "velocity": 101, "note_on_time": 8.55, "note_off_time": 8.674}, {"pitch": 62, "velocity": 92, "note_on_time": 8.87, "note_off_time": 8.948}, {"pitch": 62, "velocity": 87, "note_on_time": 9.239, "note_off_time": 9.326}, {"pitch": 60, "velocity": 107, "note_on_time": 9.588, "note_off_time": 9.975}, {"pitch": 67, "velocity": 92, "note_on_time": 9.972, "note_off_time": 10.574}, {"pitch": 67, "velocity": 96, "note_on_time": 11.373, "note_off_time": 11.452}, {"pitch": 67, "velocity": 99, "note_on_time": 11.698, "note_off_time": 11.768}, {"pitch": 67, "velocity": 99, "note_on_time": 12.024, "note_off_time": 12.128}]</notes><guidance name="Guidance Mode">None</guidance><error name="Error value">0.2678415789473695</error></trial><trial trial_no="2" timestamp="2022_11_21-18_30_11"><notes name="Played Notes">[{"pitch": 64, "velocity": 99, "note_on_time": 1.4, "note_off_time": 1.475}, {"pitch": 64, "velocity": 95, "note_on_time": 1.724, "note_off_time": 2.048}, {"pitch": 60, "velocity": 89, "note_on_time": 2.061, "note_off_time": 2.435}, {"pitch": 65, "velocity": 88, "note_on_time": 2.396, "note_off_time": 2.514}, {"pitch": 64, "velocity": 100, "note_on_time": 2.744, "note_off_time": 3.301}, {"pitch": 67, "velocity": 99, "note_on_time": 4.176, "note_off_time": 4.496}, {"pitch": 65, "velocity": 85, "note_on_time": 4.497, "note_off_time": 4.841}, {"pitch": 64, "velocity": 87, "note_on_time": 4.829, "note_off_time": 5.158}, {"pitch": 60, "velocity": 82, "note_on_time": 5.167, "note_off_time": 5.524}, {"pitch": 67, "velocity": 88, "note_on_time": 5.51, "note_off_time": 5.912}, {"pitch": 65, "velocity": 84, "note_on_time": 6.749, "note_off_time": 7.14}, {"pitch": 60, "velocity": 90, "note_on_time": 7.161, "note_off_time": 7.557}, {"pitch": 65, "velocity": 87, "note_on_time": 7.529, "note_off_time": 7.907}, {"pitch": 64, "velocity": 82, "note_on_time": 7.89, "note_off_time": 8.021}, {"pitch": 64, "velocity": 97, "note_on_time": 8.245, "note_off_time": 8.558}, {"pitch": 62, "velocity": 89, "note_on_time": 8.567, "note_off_time": 8.606}, {"pitch": 62, "velocity": 93, "note_on_time": 8.91, "note_off_time": 9.255}, {"pitch": 60, "velocity": 86, "note_on_time": 9.255, "note_off_time": 9.626}, {"pitch": 67, "velocity": 99, "note_on_time": 9.617, "note_off_time": 10.007}, {"pitch": 67, "velocity": 92, "note_on_time": 10.619, "note_off_time": 10.697}, {"pitch": 67, "velocity": 95, "note_on_time": 10.962, "note_off_time": 11.037}, {"pitch": 67, "velocity": 98, "note_on_time": 11.298, "note_off_time": 11.396}]</notes><guidance name="Guidance Mode">None</guidance><error name="Error value">0.06180578947368421</error></trial><trial trial_no="3" timestamp="2022_11_21-18_30_37"><notes name="Played Notes">[{"pitch": 62, "velocity": 94, "note_on_time": 1.377, "note_off_time": 1.455}, {"pitch": 62, "velocity": 91, "note_on_time": 1.712, "note_off_time": 2.25}, {"pitch": 59, "velocity": 90, "note_on_time": 2.249, "note_off_time": 2.379}, {"pitch": 64, "velocity": 94, "note_on_time": 2.614, "note_off_time": 2.701}, {"pitch": 64, "velocity": 90, "note_on_time": 2.959, "note_off_time": 3.318}, {"pitch": 62, "velocity": 77, "note_on_time": 3.349, "note_off_time": 3.493}, {"pitch": 60, "velocity": 79, "note_on_time": 3.345, "note_off_time": 3.616}, {"pitch": 65, "velocity": 84, "note_on_time": 3.635, "note_off_time": 4.007}, {"pitch": 64, "velocity": 82, "note_on_time": 4.019, "note_off_time": 4.359}, {"pitch": 67, "velocity": 94, "note_on_time": 5.5, "note_off_time": 5.859}, {"pitch": 65, "velocity": 84, "note_on_time": 5.832, "note_off_time": 6.18}, {"pitch": 64, "velocity": 83, "note_on_time": 6.171, "note_off_time": 6.52}, {"pitch": 60, "velocity": 84, "note_on_time": 6.535, "note_off_time": 6.889}, {"pitch": 67, "velocity": 89, "note_on_time": 6.874, "note_off_time": 7.312}, {"pitch": 65, "velocity": 93, "note_on_time": 8.164, "note_off_time": 8.504}, {"pitch": 60, "velocity": 77, "note_on_time": 8.54, "note_off_time": 8.914}, {"pitch": 65, "velocity": 90, "note_on_time": 8.88, "note_off_time": 9.254}, {"pitch": 64, "velocity": 86, "note_on_time": 9.232, "note_off_time": 9.322}, {"pitch": 64, "velocity": 98, "note_on_time": 9.602, "note_off_time": 9.958}, {"pitch": 62, "velocity": 91, "note_on_time": 9.945, "note_off_time": 9.994}, {"pitch": 62, "velocity": 92, "note_on_time": 10.271, "note_off_time": 10.634}, {"pitch": 60, "velocity": 85, "note_on_time": 10.633, "note_off_time": 11.001}, {"pitch": 67, "velocity": 82, "note_on_time": 10.97, "note_off_time": 11.362}]</notes><guidance name="Guidance Mode">None</guidance><error name="Error value">1.512122631578947</error></trial></trials></MIDI>