<MIDI midiNo="2022_08_17-19_27_13"><target_notes><notes name="Note List">[{"pitch": 42, "velocity": 80, "note_on_time": 0.004, "note_off_time": 1.217}, {"pitch": 42, "velocity": 80, "note_on_time": 1.217, "note_off_time": 2.431}, {"pitch": 42, "velocity": 80, "note_on_time": 2.431, "note_off_time": 3.645}, {"pitch": 42, "velocity": 80, "note_on_time": 3.646, "note_off_time": 4.847}, {"pitch": 65, "velocity": 80, "note_on_time": 4.847, "note_off_time": 6.048}, {"pitch": 42, "velocity": 80, "note_on_time": 4.847, "note_off_time": 6.048}, {"pitch": 42, "velocity": 80, "note_on_time": 6.049, "note_off_time": 7.253}, {"pitch": 62, "velocity": 80, "note_on_time": 6.048, "note_off_time": 8.468}, {"pitch": 42, "velocity": 80, "note_on_time": 7.253, "note_off_time": 8.468}, {"pitch": 42, "velocity": 80, "note_on_time": 8.469, "note_off_time": 9.676}, {"pitch": 42, "velocity": 80, "note_on_time": 9.676, "note_off_time": 10.877}, {"pitch": 65, "velocity": 80, "note_on_time": 9.676, "note_off_time": 12.08}, {"pitch": 42, "velocity": 80, "note_on_time": 10.877, "note_off_time": 12.081}, {"pitch": 42, "velocity": 80, "note_on_time": 12.081, "note_off_time": 13.282}, {"pitch": 64, "velocity": 80, "note_on_time": 12.08, "note_off_time": 14.482}, {"pitch": 42, "velocity": 80, "note_on_time": 13.282, "note_off_time": 14.483}, {"pitch": 67, "velocity": 80, "note_on_time": 14.482, "note_off_time": 15.684}, {"pitch": 42, "velocity": 80, "note_on_time": 14.483, "note_off_time": 15.684}, {"pitch": 42, "velocity": 80, "note_on_time": 15.685, "note_off_time": 16.886}, {"pitch": 62, "velocity": 80, "note_on_time": 15.684, "note_off_time": 18.088}, {"pitch": 42, "velocity": 80, "note_on_time": 16.886, "note_off_time": 18.088}, {"pitch": 42, "velocity": 80, "note_on_time": 18.088, "note_off_time": 19.301}, {"pitch": 64, "velocity": 80, "note_on_time": 19.301, "note_off_time": 20.508}, {"pitch": 42, "velocity": 80, "note_on_time": 19.302, "note_off_time": 20.509}, {"pitch": 42, "velocity": 80, "note_on_time": 20.509, "note_off_time": 21.724}, {"pitch": 64, "velocity": 80, "note_on_time": 21.724, "note_off_time": 22.929}, {"pitch": 42, "velocity": 80, "note_on_time": 21.724, "note_off_time": 22.929}, {"pitch": 65, "velocity": 80, "note_on_time": 22.929, "note_off_time": 24.132}, {"pitch": 42, "velocity": 80, "note_on_time": 22.929, "note_off_time": 24.132}, {"pitch": 64, "velocity": 80, "note_on_time": 24.132, "note_off_time": 25.347}, {"pitch": 42, "velocity": 80, "note_on_time": 24.133, "note_off_time": 25.348}, {"pitch": 67, "velocity": 80, "note_on_time": 25.347, "note_off_time": 26.552}, {"pitch": 42, "velocity": 80, "note_on_time": 25.348, "note_off_time": 26.552}, {"pitch": 64, "velocity": 80, "note_on_time": 26.552, "note_off_time": 27.756}, {"pitch": 42, "velocity": 80, "note_on_time": 26.553, "note_off_time": 27.756}, {"pitch": 60, "velocity": 80, "note_on_time": 27.756, "note_off_time": 28.961}, {"pitch": 42, "velocity": 80, "note_on_time": 27.757, "note_off_time": 28.961}, {"pitch": 67, "velocity": 80, "note_on_time": 28.961, "note_off_time": 30.163}, {"pitch": 42, "velocity": 80, "note_on_time": 28.961, "note_off_time": 30.163}, {"pitch": 64, "velocity": 80, "note_on_time": 30.163, "note_off_time": 31.366}, {"pitch": 42, "velocity": 80, "note_on_time": 30.163, "note_off_time": 31.366}, {"pitch": 42, "velocity": 80, "note_on_time": 31.367, "note_off_time": 32.573}, {"pitch": 65, "velocity": 80, "note_on_time": 31.366, "note_off_time": 33.777}, {"pitch": 42, "velocity": 80, "note_on_time": 32.574, "note_off_time": 33.777}, {"pitch": 67, "velocity": 80, "note_on_time": 33.777, "note_off_time": 34.979}, {"pitch": 42, "velocity": 80, "note_on_time": 33.777, "note_off_time": 34.98}, {"pitch": 64, "velocity": 80, "note_on_time": 34.979, "note_off_time": 36.182}, {"pitch": 42, "velocity": 80, "note_on_time": 34.98, "note_off_time": 36.183}, {"pitch": 65, "velocity": 80, "note_on_time": 36.182, "note_off_time": 37.384}, {"pitch": 42, "velocity": 80, "note_on_time": 36.183, "note_off_time": 37.384}, {"pitch": 65, "velocity": 80, "note_on_time": 37.384, "note_off_time": 38.587}, {"pitch": 42, "velocity": 80, "note_on_time": 37.385, "note_off_time": 38.587}, {"pitch": 42, "velocity": 80, "note_on_time": 38.587, "note_off_time": 39.789}, {"pitch": 65, "velocity": 80, "note_on_time": 39.789, "note_off_time": 41.003}, {"pitch": 42, "velocity": 80, "note_on_time": 39.789, "note_off_time": 41.003}, {"pitch": 65, "velocity": 80, "note_on_time": 41.003, "note_off_time": 42.211}, {"pitch": 42, "velocity": 80, "note_on_time": 41.003, "note_off_time": 42.211}, {"pitch": 65, "velocity": 80, "note_on_time": 42.211, "note_off_time": 43.416}, {"pitch": 42, "velocity": 80, "note_on_time": 42.211, "note_off_time": 43.416}]</notes><options name="Option List">((4, 4), [0.5, 0.25], 3, 8, &lt;NoteRangePerHand.C_TO_G: 6&gt;, &lt;NoteRangePerHand.ONE_NOTE: 2&gt;, False, True, True, 50)</options></target_notes><trials><trial trial_no="1" timestamp="2022_08_17-19_26_29"><notes name="Played Notes">[{"pitch": 65, "velocity": 79, "note_on_time": 4.864, "note_off_time": 6.08}, {"pitch": 62, "velocity": 78, "note_on_time": 6.077, "note_off_time": 8.331}, {"pitch": 65, "velocity": 77, "note_on_time": 9.651, "note_off_time": 12.044}, {"pitch": 64, "velocity": 86, "note_on_time": 12.009, "note_off_time": 14.325}, {"pitch": 67, "velocity": 76, "note_on_time": 14.452, "note_off_time": 15.622}, {"pitch": 62, "velocity": 68, "note_on_time": 15.632, "note_off_time": 17.458}, {"pitch": 64, "velocity": 77, "note_on_time": 19.24, "note_off_time": 19.887}, {"pitch": 64, "velocity": 73, "note_on_time": 21.681, "note_off_time": 22.919}, {"pitch": 65, "velocity": 78, "note_on_time": 22.925, "note_off_time": 24.145}, {"pitch": 64, "velocity": 84, "note_on_time": 24.136, "note_off_time": 25.305}, {"pitch": 67, "velocity": 76, "note_on_time": 25.35, "note_off_time": 26.563}, {"pitch": 64, "velocity": 78, "note_on_time": 26.543, "note_off_time": 27.749}, {"pitch": 60, "velocity": 82, "note_on_time": 27.753, "note_off_time": 29.034}, {"pitch": 67, "velocity": 75, "note_on_time": 28.991, "note_off_time": 30.144}, {"pitch": 64, "velocity": 74, "note_on_time": 30.123, "note_off_time": 31.381}, {"pitch": 65, "velocity": 75, "note_on_time": 31.357, "note_off_time": 32.554}, {"pitch": 67, "velocity": 69, "note_on_time": 32.547, "note_off_time": 33.745}, {"pitch": 64, "velocity": 64, "note_on_time": 33.754, "note_off_time": 34.988}, {"pitch": 65, "velocity": 72, "note_on_time": 34.975, "note_off_time": 35.911}, {"pitch": 65, "velocity": 81, "note_on_time": 36.182, "note_off_time": 36.918}, {"pitch": 65, "velocity": 92, "note_on_time": 38.568, "note_off_time": 39.38}, {"pitch": 65, "velocity": 90, "note_on_time": 39.762, "note_off_time": 40.485}, {"pitch": 65, "velocity": 94, "note_on_time": 40.995, "note_off_time": 42.046}]</notes><guidance name="Guidance Mode">None</guidance><error name="Error value">0.08585000000000047</error></trial><trial trial_no="2" timestamp="2022_08_17-19_27_19"><notes name="Played Notes">[{"pitch": 65, "velocity": 77, "note_on_time": 4.81, "note_off_time": 6.032}, {"pitch": 62, "velocity": 67, "note_on_time": 6.031, "note_off_time": 7.974}, {"pitch": 65, "velocity": 81, "note_on_time": 9.64, "note_off_time": 12.054}, {"pitch": 64, "velocity": 80, "note_on_time": 12.079, "note_off_time": 14.421}, {"pitch": 67, "velocity": 74, "note_on_time": 14.443, "note_off_time": 15.629}, {"pitch": 62, "velocity": 73, "note_on_time": 15.637, "note_off_time": 17.341}, {"pitch": 62, "velocity": 72, "note_on_time": 19.24, "note_off_time": 19.351}, {"pitch": 64, "velocity": 63, "note_on_time": 19.377, "note_off_time": 20.248}, {"pitch": 64, "velocity": 71, "note_on_time": 21.592, "note_off_time": 22.853}, {"pitch": 65, "velocity": 77, "note_on_time": 22.849, "note_off_time": 24.09}, {"pitch": 64, "velocity": 78, "note_on_time": 24.093, "note_off_time": 25.238}, {"pitch": 67, "velocity": 72, "note_on_time": 25.265, "note_off_time": 26.462}, {"pitch": 64, "velocity": 73, "note_on_time": 26.436, "note_off_time": 27.734}, {"pitch": 60, "velocity": 76, "note_on_time": 27.734, "note_off_time": 29.025}, {"pitch": 67, "velocity": 75, "note_on_time": 28.957, "note_off_time": 30.152}, {"pitch": 64, "velocity": 73, "note_on_time": 30.146, "note_off_time": 31.346}, {"pitch": 65, "velocity": 76, "note_on_time": 31.353, "note_off_time": 32.954}, {"pitch": 67, "velocity": 85, "note_on_time": 33.736, "note_off_time": 34.851}, {"pitch": 64, "velocity": 73, "note_on_time": 34.856, "note_off_time": 36.13}, {"pitch": 65, "velocity": 73, "note_on_time": 36.139, "note_off_time": 36.899}, {"pitch": 65, "velocity": 78, "note_on_time": 37.354, "note_off_time": 38.04}, {"pitch": 65, "velocity": 81, "note_on_time": 39.777, "note_off_time": 40.445}, {"pitch": 65, "velocity": 89, "note_on_time": 40.997, "note_off_time": 41.608}, {"pitch": 65, "velocity": 79, "note_on_time": 42.225, "note_off_time": 42.787}]</notes><guidance name="Guidance Mode">None</guidance><error name="Error value">0.21095000000000014</error></trial><trial trial_no="3" timestamp="2022_08_17-19_28_12"><notes name="Played Notes">[{"pitch": 65, "velocity": 83, "note_on_time": 4.806, "note_off_time": 6.001}, {"pitch": 62, "velocity": 74, "note_on_time": 5.995, "note_off_time": 7.752}, {"pitch": 65, "velocity": 87, "note_on_time": 9.547, "note_off_time": 12.066}, {"pitch": 64, "velocity": 81, "note_on_time": 12.065, "note_off_time": 14.445}, {"pitch": 67, "velocity": 73, "note_on_time": 14.457, "note_off_time": 15.643}, {"pitch": 62, "velocity": 64, "note_on_time": 15.646, "note_off_time": 17.454}, {"pitch": 64, "velocity": 72, "note_on_time": 19.243, "note_off_time": 20.237}, {"pitch": 64, "velocity": 72, "note_on_time": 21.535, "note_off_time": 22.813}, {"pitch": 65, "velocity": 74, "note_on_time": 22.831, "note_off_time": 24.096}, {"pitch": 64, "velocity": 79, "note_on_time": 24.086, "note_off_time": 25.271}, {"pitch": 67, "velocity": 73, "note_on_time": 25.324, "note_off_time": 26.532}, {"pitch": 64, "velocity": 71, "note_on_time": 26.52, "note_off_time": 27.721}, {"pitch": 60, "velocity": 76, "note_on_time": 27.734, "note_off_time": 28.928}, {"pitch": 67, "velocity": 75, "note_on_time": 28.896, "note_off_time": 30.118}, {"pitch": 64, "velocity": 79, "note_on_time": 30.112, "note_off_time": 31.387}, {"pitch": 65, "velocity": 72, "note_on_time": 31.396, "note_off_time": 32.99}, {"pitch": 67, "velocity": 68, "note_on_time": 33.729, "note_off_time": 34.924}, {"pitch": 64, "velocity": 76, "note_on_time": 34.902, "note_off_time": 36.179}, {"pitch": 65, "velocity": 81, "note_on_time": 36.16, "note_off_time": 36.993}, {"pitch": 65, "velocity": 65, "note_on_time": 37.407, "note_off_time": 38.078}, {"pitch": 64, "velocity": 71, "note_on_time": 39.862, "note_off_time": 40.254}, {"pitch": 65, "velocity": 72, "note_on_time": 40.235, "note_off_time": 40.608}, {"pitch": 65, "velocity": 73, "note_on_time": 41.025, "note_off_time": 41.645}, {"pitch": 65, "velocity": 75, "note_on_time": 42.174, "note_off_time": 42.684}]</notes><guidance name="Guidance Mode">None</guidance><error name="Error value">0.528999999999996</error></trial></trials></MIDI>