<MIDI midiNo="2022_12_22-12_36_27"><target_notes><notes name="Note List">[{"pitch": 42, "velocity": 80, "note_on_time": 0.004, "note_off_time": 0.229}, {"pitch": 42, "velocity": 80, "note_on_time": 0.229, "note_off_time": 0.448}, {"pitch": 42, "velocity": 80, "note_on_time": 0.448, "note_off_time": 0.664}, {"pitch": 42, "velocity": 80, "note_on_time": 0.664, "note_off_time": 0.88}, {"pitch": 62, "velocity": 80, "note_on_time": 0.88, "note_off_time": 1.097}, {"pitch": 42, "velocity": 80, "note_on_time": 0.88, "note_off_time": 1.097}, {"pitch": 42, "velocity": 80, "note_on_time": 1.097, "note_off_time": 1.313}, {"pitch": 67, "velocity": 80, "note_on_time": 1.097, "note_off_time": 1.529}, {"pitch": 42, "velocity": 80, "note_on_time": 1.313, "note_off_time": 1.529}, {"pitch": 65, "velocity": 80, "note_on_time": 1.529, "note_off_time": 1.748}, {"pitch": 42, "velocity": 80, "note_on_time": 1.529, "note_off_time": 1.748}, {"pitch": 65, "velocity": 80, "note_on_time": 1.748, "note_off_time": 1.966}, {"pitch": 42, "velocity": 80, "note_on_time": 1.748, "note_off_time": 1.966}, {"pitch": 62, "velocity": 80, "note_on_time": 1.966, "note_off_time": 2.183}, {"pitch": 42, "velocity": 80, "note_on_time": 1.966, "note_off_time": 2.183}, {"pitch": 42, "velocity": 80, "note_on_time": 2.183, "note_off_time": 2.401}, {"pitch": 60, "velocity": 80, "note_on_time": 2.183, "note_off_time": 2.618}, {"pitch": 42, "velocity": 80, "note_on_time": 2.401, "note_off_time": 2.618}, {"pitch": 42, "velocity": 80, "note_on_time": 2.618, "note_off_time": 2.836}, {"pitch": 65, "velocity": 80, "note_on_time": 2.618, "note_off_time": 3.053}, {"pitch": 42, "velocity": 80, "note_on_time": 2.836, "note_off_time": 3.053}, {"pitch": 65, "velocity": 80, "note_on_time": 3.053, "note_off_time": 3.27}, {"pitch": 42, "velocity": 80, "note_on_time": 3.053, "note_off_time": 3.27}, {"pitch": 42, "velocity": 80, "note_on_time": 3.27, "note_off_time": 3.489}, {"pitch": 64, "velocity": 80, "note_on_time": 3.489, "note_off_time": 3.71}, {"pitch": 42, "velocity": 80, "note_on_time": 3.489, "note_off_time": 3.71}, {"pitch": 42, "velocity": 80, "note_on_time": 3.71, "note_off_time": 3.926}, {"pitch": 62, "velocity": 80, "note_on_time": 3.71, "note_off_time": 4.145}, {"pitch": 42, "velocity": 80, "note_on_time": 3.926, "note_off_time": 4.145}, {"pitch": 62, "velocity": 80, "note_on_time": 4.145, "note_off_time": 4.362}, {"pitch": 42, "velocity": 80, "note_on_time": 4.145, "note_off_time": 4.362}, {"pitch": 42, "velocity": 80, "note_on_time": 4.362, "note_off_time": 4.579}, {"pitch": 65, "velocity": 80, "note_on_time": 4.362, "note_off_time": 4.796}, {"pitch": 42, "velocity": 80, "note_on_time": 4.579, "note_off_time": 4.796}, {"pitch": 42, "velocity": 80, "note_on_time": 4.796, "note_off_time": 5.013}, {"pitch": 65, "velocity": 80, "note_on_time": 4.796, "note_off_time": 5.231}, {"pitch": 42, "velocity": 80, "note_on_time": 5.013, "note_off_time": 5.231}, {"pitch": 42, "velocity": 80, "note_on_time": 5.231, "note_off_time": 5.449}, {"pitch": 62, "velocity": 80, "note_on_time": 5.231, "note_off_time": 5.668}, {"pitch": 42, "velocity": 80, "note_on_time": 5.449, "note_off_time": 5.668}, {"pitch": 64, "velocity": 80, "note_on_time": 5.668, "note_off_time": 5.884}, {"pitch": 42, "velocity": 80, "note_on_time": 5.668, "note_off_time": 5.884}, {"pitch": 64, "velocity": 80, "note_on_time": 5.884, "note_off_time": 6.103}, {"pitch": 42, "velocity": 80, "note_on_time": 5.884, "note_off_time": 6.103}, {"pitch": 64, "velocity": 80, "note_on_time": 6.103, "note_off_time": 6.32}, {"pitch": 42, "velocity": 80, "note_on_time": 6.103, "note_off_time": 6.32}, {"pitch": 62, "velocity": 80, "note_on_time": 6.32, "note_off_time": 6.538}, {"pitch": 42, "velocity": 80, "note_on_time": 6.32, "note_off_time": 6.539}, {"pitch": 67, "velocity": 80, "note_on_time": 6.538, "note_off_time": 6.755}, {"pitch": 42, "velocity": 80, "note_on_time": 6.539, "note_off_time": 6.755}, {"pitch": 65, "velocity": 80, "note_on_time": 6.755, "note_off_time": 6.973}, {"pitch": 42, "velocity": 80, "note_on_time": 6.755, "note_off_time": 6.973}, {"pitch": 42, "velocity": 80, "note_on_time": 6.973, "note_off_time": 7.189}, {"pitch": 65, "velocity": 80, "note_on_time": 7.189, "note_off_time": 7.408}, {"pitch": 42, "velocity": 80, "note_on_time": 7.189, "note_off_time": 7.408}, {"pitch": 65, "velocity": 80, "note_on_time": 7.408, "note_off_time": 7.626}, {"pitch": 42, "velocity": 80, "note_on_time": 7.408, "note_off_time": 7.626}, {"pitch": 65, "velocity": 80, "note_on_time": 7.626, "note_off_time": 7.843}, {"pitch": 42, "velocity": 80, "note_on_time": 7.626, "note_off_time": 7.843}]</notes><options name="Option List">((4, 4), [0.5, 0.25], 3, 8, &lt;NoteRangePerHand.C_TO_G: 6&gt;, &lt;NoteRangePerHand.ONE_NOTE: 2&gt;, False, True, False, 284)</options></target_notes><trials><trial trial_no="1" timestamp="2022_12_22-12_36_17"><notes name="Played Notes">[{"pitch": 65, "velocity": 72, "note_on_time": 0.915, "note_off_time": 1.103}, {"pitch": 67, "velocity": 64, "note_on_time": 1.114, "note_off_time": 1.554}, {"pitch": 65, "velocity": 78, "note_on_time": 1.709, "note_off_time": 1.814}, {"pitch": 65, "velocity": 68, "note_on_time": 1.909, "note_off_time": 2.127}, {"pitch": 62, "velocity": 57, "note_on_time": 2.152, "note_off_time": 2.379}, {"pitch": 60, "velocity": 72, "note_on_time": 2.399, "note_off_time": 2.574}, {"pitch": 65, "velocity": 81, "note_on_time": 2.621, "note_off_time": 2.923}, {"pitch": 65, "velocity": 74, "note_on_time": 3.067, "note_off_time": 3.354}, {"pitch": 64, "velocity": 78, "note_on_time": 3.528, "note_off_time": 3.724}, {"pitch": 62, "velocity": 67, "note_on_time": 3.722, "note_off_time": 3.845}, {"pitch": 62, "velocity": 67, "note_on_time": 3.942, "note_off_time": 4.258}, {"pitch": 65, "velocity": 85, "note_on_time": 4.429, "note_off_time": 4.718}, {"pitch": 65, "velocity": 86, "note_on_time": 4.897, "note_off_time": 5.163}, {"pitch": 62, "velocity": 71, "note_on_time": 5.255, "note_off_time": 5.547}, {"pitch": 64, "velocity": 68, "note_on_time": 5.678, "note_off_time": 5.922}, {"pitch": 64, "velocity": 53, "note_on_time": 6.017, "note_off_time": 6.181}, {"pitch": 64, "velocity": 76, "note_on_time": 6.467, "note_off_time": 6.655}, {"pitch": 62, "velocity": 50, "note_on_time": 6.684, "note_off_time": 6.875}, {"pitch": 67, "velocity": 64, "note_on_time": 6.919, "note_off_time": 7.181}, {"pitch": 65, "velocity": 68, "note_on_time": 7.161, "note_off_time": 7.329}]</notes><guidance name="Guidance Mode">None</guidance><error name="Error value">0.41598665000000007</error></trial></trials></MIDI>