<MIDI midiNo="2022_12_08-12_57_58"><target_notes><notes name="Note List">[{"pitch": 42, "velocity": 80, "note_on_time": 0.004, "note_off_time": 0.222}, {"pitch": 42, "velocity": 80, "note_on_time": 0.222, "note_off_time": 0.44}, {"pitch": 42, "velocity": 80, "note_on_time": 0.44, "note_off_time": 0.657}, {"pitch": 42, "velocity": 80, "note_on_time": 0.657, "note_off_time": 0.874}, {"pitch": 64, "velocity": 80, "note_on_time": 0.874, "note_off_time": 1.093}, {"pitch": 42, "velocity": 80, "note_on_time": 0.874, "note_off_time": 1.093}, {"pitch": 67, "velocity": 80, "note_on_time": 1.093, "note_off_time": 1.311}, {"pitch": 42, "velocity": 80, "note_on_time": 1.093, "note_off_time": 1.311}, {"pitch": 64, "velocity": 80, "note_on_time": 1.311, "note_off_time": 1.53}, {"pitch": 42, "velocity": 80, "note_on_time": 1.311, "note_off_time": 1.53}, {"pitch": 67, "velocity": 80, "note_on_time": 1.53, "note_off_time": 1.75}, {"pitch": 42, "velocity": 80, "note_on_time": 1.532, "note_off_time": 1.75}, {"pitch": 62, "velocity": 80, "note_on_time": 1.75, "note_off_time": 1.969}, {"pitch": 42, "velocity": 80, "note_on_time": 1.75, "note_off_time": 1.969}, {"pitch": 67, "velocity": 80, "note_on_time": 1.969, "note_off_time": 2.186}, {"pitch": 42, "velocity": 80, "note_on_time": 1.969, "note_off_time": 2.186}, {"pitch": 67, "velocity": 80, "note_on_time": 2.186, "note_off_time": 2.406}, {"pitch": 42, "velocity": 80, "note_on_time": 2.186, "note_off_time": 2.406}, {"pitch": 64, "velocity": 80, "note_on_time": 2.406, "note_off_time": 2.625}, {"pitch": 42, "velocity": 80, "note_on_time": 2.406, "note_off_time": 2.625}, {"pitch": 60, "velocity": 80, "note_on_time": 2.625, "note_off_time": 2.844}, {"pitch": 42, "velocity": 80, "note_on_time": 2.625, "note_off_time": 2.844}, {"pitch": 62, "velocity": 80, "note_on_time": 2.844, "note_off_time": 3.062}, {"pitch": 42, "velocity": 80, "note_on_time": 2.844, "note_off_time": 3.062}, {"pitch": 60, "velocity": 80, "note_on_time": 3.062, "note_off_time": 3.281}, {"pitch": 42, "velocity": 80, "note_on_time": 3.062, "note_off_time": 3.281}, {"pitch": 65, "velocity": 80, "note_on_time": 3.281, "note_off_time": 3.498}, {"pitch": 42, "velocity": 80, "note_on_time": 3.281, "note_off_time": 3.498}, {"pitch": 65, "velocity": 80, "note_on_time": 3.498, "note_off_time": 3.715}, {"pitch": 42, "velocity": 80, "note_on_time": 3.498, "note_off_time": 3.715}, {"pitch": 42, "velocity": 80, "note_on_time": 3.715, "note_off_time": 3.932}, {"pitch": 62, "velocity": 80, "note_on_time": 3.715, "note_off_time": 4.15}, {"pitch": 42, "velocity": 80, "note_on_time": 3.932, "note_off_time": 4.15}, {"pitch": 42, "velocity": 80, "note_on_time": 4.15, "note_off_time": 4.369}, {"pitch": 62, "velocity": 80, "note_on_time": 4.369, "note_off_time": 4.587}, {"pitch": 42, "velocity": 80, "note_on_time": 4.369, "note_off_time": 4.587}, {"pitch": 65, "velocity": 80, "note_on_time": 4.587, "note_off_time": 4.804}, {"pitch": 42, "velocity": 80, "note_on_time": 4.587, "note_off_time": 4.805}, {"pitch": 60, "velocity": 80, "note_on_time": 4.804, "note_off_time": 5.022}, {"pitch": 42, "velocity": 80, "note_on_time": 4.805, "note_off_time": 5.022}, {"pitch": 62, "velocity": 80, "note_on_time": 5.022, "note_off_time": 5.242}, {"pitch": 42, "velocity": 80, "note_on_time": 5.022, "note_off_time": 5.242}, {"pitch": 42, "velocity": 80, "note_on_time": 5.242, "note_off_time": 5.46}, {"pitch": 67, "velocity": 80, "note_on_time": 5.242, "note_off_time": 5.679}, {"pitch": 42, "velocity": 80, "note_on_time": 5.461, "note_off_time": 5.679}, {"pitch": 42, "velocity": 80, "note_on_time": 5.679, "note_off_time": 5.898}, {"pitch": 67, "velocity": 80, "note_on_time": 5.898, "note_off_time": 6.116}, {"pitch": 42, "velocity": 80, "note_on_time": 5.898, "note_off_time": 6.116}, {"pitch": 65, "velocity": 80, "note_on_time": 6.116, "note_off_time": 6.335}, {"pitch": 42, "velocity": 80, "note_on_time": 6.116, "note_off_time": 6.335}, {"pitch": 60, "velocity": 80, "note_on_time": 6.335, "note_off_time": 6.554}, {"pitch": 42, "velocity": 80, "note_on_time": 6.335, "note_off_time": 6.555}, {"pitch": 67, "velocity": 80, "note_on_time": 6.554, "note_off_time": 6.771}, {"pitch": 42, "velocity": 80, "note_on_time": 6.555, "note_off_time": 6.771}, {"pitch": 64, "velocity": 80, "note_on_time": 6.771, "note_off_time": 6.988}, {"pitch": 42, "velocity": 80, "note_on_time": 6.772, "note_off_time": 6.988}, {"pitch": 42, "velocity": 80, "note_on_time": 6.988, "note_off_time": 7.208}, {"pitch": 64, "velocity": 80, "note_on_time": 7.208, "note_off_time": 7.426}, {"pitch": 42, "velocity": 80, "note_on_time": 7.208, "note_off_time": 7.426}, {"pitch": 64, "velocity": 80, "note_on_time": 7.426, "note_off_time": 7.643}, {"pitch": 42, "velocity": 80, "note_on_time": 7.427, "note_off_time": 7.643}, {"pitch": 64, "velocity": 80, "note_on_time": 7.643, "note_off_time": 7.858}, {"pitch": 42, "velocity": 80, "note_on_time": 7.643, "note_off_time": 7.858}]</notes><options name="Option List">((4, 4), [0.5, 0.25], 3, 8, &lt;NoteRangePerHand.C_TO_G: 6&gt;, &lt;NoteRangePerHand.ONE_NOTE: 2&gt;, False, True, False, 281)</options></target_notes><trials><trial trial_no="1" timestamp="2022_12_08-12_57_49"><notes name="Played Notes">[{"pitch": 64, "velocity": 59, "note_on_time": 0.853, "note_off_time": 1.068}, {"pitch": 67, "velocity": 64, "note_on_time": 1.081, "note_off_time": 1.313}, {"pitch": 64, "velocity": 58, "note_on_time": 1.307, "note_off_time": 1.512}, {"pitch": 67, "velocity": 58, "note_on_time": 1.526, "note_off_time": 1.756}, {"pitch": 62, "velocity": 61, "note_on_time": 1.753, "note_off_time": 1.978}, {"pitch": 67, "velocity": 65, "note_on_time": 1.977, "note_off_time": 2.057}, {"pitch": 67, "velocity": 70, "note_on_time": 2.182, "note_off_time": 2.423}, {"pitch": 64, "velocity": 60, "note_on_time": 2.423, "note_off_time": 2.606}, {"pitch": 60, "velocity": 57, "note_on_time": 2.645, "note_off_time": 2.853}, {"pitch": 62, "velocity": 55, "note_on_time": 2.871, "note_off_time": 3.074}, {"pitch": 60, "velocity": 61, "note_on_time": 3.084, "note_off_time": 3.296}, {"pitch": 65, "velocity": 59, "note_on_time": 3.309, "note_off_time": 3.381}, {"pitch": 65, "velocity": 68, "note_on_time": 3.51, "note_off_time": 3.738}, {"pitch": 62, "velocity": 64, "note_on_time": 3.739, "note_off_time": 4.148}, {"pitch": 62, "velocity": 67, "note_on_time": 4.39, "note_off_time": 4.592}, {"pitch": 65, "velocity": 64, "note_on_time": 4.602, "note_off_time": 4.786}, {"pitch": 60, "velocity": 61, "note_on_time": 4.831, "note_off_time": 4.996}, {"pitch": 62, "velocity": 53, "note_on_time": 5.032, "note_off_time": 5.26}, {"pitch": 67, "velocity": 70, "note_on_time": 5.254, "note_off_time": 5.644}, {"pitch": 67, "velocity": 65, "note_on_time": 5.904, "note_off_time": 6.122}, {"pitch": 65, "velocity": 61, "note_on_time": 6.108, "note_off_time": 6.327}, {"pitch": 60, "velocity": 52, "note_on_time": 6.335, "note_off_time": 6.553}, {"pitch": 67, "velocity": 64, "note_on_time": 6.551, "note_off_time": 6.802}, {"pitch": 64, "velocity": 63, "note_on_time": 6.777, "note_off_time": 7.034}, {"pitch": 64, "velocity": 71, "note_on_time": 7.217, "note_off_time": 7.29}, {"pitch": 64, "velocity": 71, "note_on_time": 7.433, "note_off_time": 7.527}, {"pitch": 64, "velocity": 71, "note_on_time": 7.658, "note_off_time": 7.84}]</notes><guidance name="Guidance Mode">None</guidance><error name="Error value">0.011502624999999975</error></trial><trial trial_no="2" timestamp="2022_12_08-12_58_04"><notes name="Played Notes">[{"pitch": 64, "velocity": 66, "note_on_time": 0.856, "note_off_time": 1.054}, {"pitch": 67, "velocity": 66, "note_on_time": 1.072, "note_off_time": 1.284}, {"pitch": 64, "velocity": 54, "note_on_time": 1.298, "note_off_time": 1.507}, {"pitch": 67, "velocity": 70, "note_on_time": 1.523, "note_off_time": 1.753}, {"pitch": 62, "velocity": 66, "note_on_time": 1.749, "note_off_time": 1.945}, {"pitch": 67, "velocity": 74, "note_on_time": 1.96, "note_off_time": 2.052}, {"pitch": 67, "velocity": 74, "note_on_time": 2.175, "note_off_time": 2.403}, {"pitch": 64, "velocity": 63, "note_on_time": 2.404, "note_off_time": 2.613}, {"pitch": 60, "velocity": 68, "note_on_time": 2.628, "note_off_time": 2.849}, {"pitch": 62, "velocity": 65, "note_on_time": 2.852, "note_off_time": 3.074}, {"pitch": 60, "velocity": 66, "note_on_time": 3.073, "note_off_time": 3.302}, {"pitch": 65, "velocity": 76, "note_on_time": 3.291, "note_off_time": 3.388}, {"pitch": 65, "velocity": 72, "note_on_time": 3.515, "note_off_time": 3.723}, {"pitch": 62, "velocity": 69, "note_on_time": 3.726, "note_off_time": 4.165}, {"pitch": 62, "velocity": 79, "note_on_time": 4.396, "note_off_time": 4.598}, {"pitch": 65, "velocity": 77, "note_on_time": 4.607, "note_off_time": 4.796}, {"pitch": 60, "velocity": 73, "note_on_time": 4.822, "note_off_time": 5.012}, {"pitch": 62, "velocity": 71, "note_on_time": 5.04, "note_off_time": 5.244}, {"pitch": 67, "velocity": 82, "note_on_time": 5.254, "note_off_time": 5.637}, {"pitch": 67, "velocity": 70, "note_on_time": 5.896, "note_off_time": 6.126}, {"pitch": 65, "velocity": 66, "note_on_time": 6.105, "note_off_time": 6.304}, {"pitch": 60, "velocity": 64, "note_on_time": 6.328, "note_off_time": 6.548}, {"pitch": 67, "velocity": 70, "note_on_time": 6.553, "note_off_time": 6.796}, {"pitch": 64, "velocity": 64, "note_on_time": 6.783, "note_off_time": 7.047}, {"pitch": 64, "velocity": 75, "note_on_time": 7.226, "note_off_time": 7.3}, {"pitch": 64, "velocity": 74, "note_on_time": 7.432, "note_off_time": 7.533}]</notes><guidance name="Guidance Mode">None</guidance><error name="Error value">0.05929429166666656</error></trial><trial trial_no="3" timestamp="2022_12_08-12_58_30"><notes name="Played Notes">[{"pitch": 64, "velocity": 65, "note_on_time": 0.891, "note_off_time": 1.097}, {"pitch": 67, "velocity": 68, "note_on_time": 1.11, "note_off_time": 1.333}, {"pitch": 64, "velocity": 70, "note_on_time": 1.336, "note_off_time": 1.543}, {"pitch": 67, "velocity": 72, "note_on_time": 1.555, "note_off_time": 1.789}, {"pitch": 62, "velocity": 66, "note_on_time": 1.783, "note_off_time": 1.999}, {"pitch": 67, "velocity": 75, "note_on_time": 1.995, "note_off_time": 2.084}, {"pitch": 67, "velocity": 74, "note_on_time": 2.213, "note_off_time": 2.437}, {"pitch": 64, "velocity": 61, "note_on_time": 2.442, "note_off_time": 2.634}, {"pitch": 60, "velocity": 71, "note_on_time": 2.662, "note_off_time": 2.854}, {"pitch": 62, "velocity": 63, "note_on_time": 2.867, "note_off_time": 3.08}, {"pitch": 60, "velocity": 66, "note_on_time": 3.092, "note_off_time": 3.309}, {"pitch": 65, "velocity": 72, "note_on_time": 3.299, "note_off_time": 3.391}, {"pitch": 65, "velocity": 71, "note_on_time": 3.508, "note_off_time": 3.704}, {"pitch": 62, "velocity": 72, "note_on_time": 3.723, "note_off_time": 4.149}, {"pitch": 62, "velocity": 74, "note_on_time": 4.387, "note_off_time": 4.589}, {"pitch": 65, "velocity": 68, "note_on_time": 4.602, "note_off_time": 4.809}, {"pitch": 60, "velocity": 67, "note_on_time": 4.824, "note_off_time": 5.017}, {"pitch": 62, "velocity": 76, "note_on_time": 5.015, "note_off_time": 5.186}, {"pitch": 67, "velocity": 80, "note_on_time": 5.259, "note_off_time": 5.716}, {"pitch": 67, "velocity": 82, "note_on_time": 5.904, "note_off_time": 6.166}, {"pitch": 65, "velocity": 68, "note_on_time": 6.126, "note_off_time": 6.339}, {"pitch": 60, "velocity": 70, "note_on_time": 6.348, "note_off_time": 6.57}, {"pitch": 67, "velocity": 72, "note_on_time": 6.56, "note_off_time": 6.802}, {"pitch": 64, "velocity": 74, "note_on_time": 6.78, "note_off_time": 7.069}, {"pitch": 64, "velocity": 82, "note_on_time": 7.221, "note_off_time": 7.317}, {"pitch": 64, "velocity": 74, "note_on_time": 7.441, "note_off_time": 7.543}]</notes><guidance name="Guidance Mode">None</guidance><error name="Error value">0.06033787499999992</error></trial></trials></MIDI>