<MIDI midiNo="2022_08_17-11_23_08"><target_notes><notes name="Note List">[{"pitch": 42, "velocity": 80, "note_on_time": 0.013, "note_off_time": 1.022}, {"pitch": 42, "velocity": 80, "note_on_time": 1.023, "note_off_time": 2.032}, {"pitch": 42, "velocity": 80, "note_on_time": 2.033, "note_off_time": 3.04}, {"pitch": 42, "velocity": 80, "note_on_time": 3.04, "note_off_time": 4.045}, {"pitch": 67, "velocity": 80, "note_on_time": 4.045, "note_off_time": 5.055}, {"pitch": 42, "velocity": 80, "note_on_time": 4.046, "note_off_time": 5.056}, {"pitch": 42, "velocity": 80, "note_on_time": 5.056, "note_off_time": 6.066}, {"pitch": 42, "velocity": 80, "note_on_time": 6.066, "note_off_time": 7.076}, {"pitch": 42, "velocity": 80, "note_on_time": 7.076, "note_off_time": 8.09}, {"pitch": 60, "velocity": 80, "note_on_time": 8.09, "note_off_time": 9.102}, {"pitch": 42, "velocity": 80, "note_on_time": 8.09, "note_off_time": 9.102}, {"pitch": 67, "velocity": 80, "note_on_time": 9.102, "note_off_time": 10.114}, {"pitch": 42, "velocity": 80, "note_on_time": 9.103, "note_off_time": 10.114}, {"pitch": 65, "velocity": 80, "note_on_time": 10.114, "note_off_time": 11.123}, {"pitch": 42, "velocity": 80, "note_on_time": 10.114, "note_off_time": 11.123}, {"pitch": 62, "velocity": 80, "note_on_time": 11.123, "note_off_time": 12.135}, {"pitch": 42, "velocity": 80, "note_on_time": 11.124, "note_off_time": 12.135}, {"pitch": 60, "velocity": 80, "note_on_time": 12.135, "note_off_time": 13.142}, {"pitch": 42, "velocity": 80, "note_on_time": 12.135, "note_off_time": 13.142}, {"pitch": 67, "velocity": 80, "note_on_time": 13.142, "note_off_time": 14.155}, {"pitch": 42, "velocity": 80, "note_on_time": 13.143, "note_off_time": 14.155}, {"pitch": 64, "velocity": 80, "note_on_time": 14.155, "note_off_time": 15.167}, {"pitch": 42, "velocity": 80, "note_on_time": 14.155, "note_off_time": 15.167}, {"pitch": 60, "velocity": 80, "note_on_time": 15.167, "note_off_time": 16.176}, {"pitch": 42, "velocity": 80, "note_on_time": 15.167, "note_off_time": 16.177}, {"pitch": 67, "velocity": 80, "note_on_time": 16.176, "note_off_time": 17.191}, {"pitch": 42, "velocity": 80, "note_on_time": 16.177, "note_off_time": 17.191}, {"pitch": 62, "velocity": 80, "note_on_time": 17.191, "note_off_time": 18.203}, {"pitch": 42, "velocity": 80, "note_on_time": 17.191, "note_off_time": 18.203}, {"pitch": 42, "velocity": 80, "note_on_time": 18.204, "note_off_time": 19.215}, {"pitch": 67, "velocity": 80, "note_on_time": 19.215, "note_off_time": 20.228}, {"pitch": 42, "velocity": 80, "note_on_time": 19.215, "note_off_time": 20.228}, {"pitch": 67, "velocity": 80, "note_on_time": 20.228, "note_off_time": 21.242}, {"pitch": 42, "velocity": 80, "note_on_time": 20.229, "note_off_time": 21.242}, {"pitch": 42, "velocity": 80, "note_on_time": 21.243, "note_off_time": 22.257}, {"pitch": 42, "velocity": 80, "note_on_time": 22.257, "note_off_time": 23.27}, {"pitch": 42, "velocity": 80, "note_on_time": 23.27, "note_off_time": 24.272}, {"pitch": 62, "velocity": 80, "note_on_time": 24.271, "note_off_time": 25.286}, {"pitch": 42, "velocity": 80, "note_on_time": 24.272, "note_off_time": 25.286}, {"pitch": 64, "velocity": 80, "note_on_time": 25.286, "note_off_time": 26.293}, {"pitch": 42, "velocity": 80, "note_on_time": 25.287, "note_off_time": 26.294}, {"pitch": 60, "velocity": 80, "note_on_time": 26.293, "note_off_time": 27.308}, {"pitch": 42, "velocity": 80, "note_on_time": 26.294, "note_off_time": 27.309}, {"pitch": 60, "velocity": 80, "note_on_time": 27.308, "note_off_time": 28.324}, {"pitch": 42, "velocity": 80, "note_on_time": 27.309, "note_off_time": 28.324}, {"pitch": 67, "velocity": 80, "note_on_time": 28.324, "note_off_time": 29.338}, {"pitch": 42, "velocity": 80, "note_on_time": 28.325, "note_off_time": 29.338}, {"pitch": 42, "velocity": 80, "note_on_time": 29.339, "note_off_time": 30.348}, {"pitch": 42, "velocity": 80, "note_on_time": 30.349, "note_off_time": 31.361}, {"pitch": 42, "velocity": 80, "note_on_time": 31.361, "note_off_time": 32.371}, {"pitch": 42, "velocity": 80, "note_on_time": 32.372, "note_off_time": 33.384}, {"pitch": 67, "velocity": 80, "note_on_time": 33.383, "note_off_time": 34.391}, {"pitch": 42, "velocity": 80, "note_on_time": 33.384, "note_off_time": 34.391}, {"pitch": 67, "velocity": 80, "note_on_time": 34.391, "note_off_time": 35.398}, {"pitch": 42, "velocity": 80, "note_on_time": 34.392, "note_off_time": 35.398}, {"pitch": 67, "velocity": 80, "note_on_time": 35.398, "note_off_time": 36.408}, {"pitch": 42, "velocity": 80, "note_on_time": 35.399, "note_off_time": 36.409}]</notes><options name="Option List">((4, 4), [0.25], 3, 8, &lt;NoteRangePerHand.C_TO_G: 6&gt;, &lt;NoteRangePerHand.ONE_NOTE: 2&gt;, False, True, True, 60)</options></target_notes><trials /></MIDI>