<MIDI midiNo="2022_11_23-16_57_54"><target_notes><notes name="Note List">[{"pitch": 42, "velocity": 80, "note_on_time": 0.004, "note_off_time": 0.218}, {"pitch": 42, "velocity": 80, "note_on_time": 0.218, "note_off_time": 0.437}, {"pitch": 42, "velocity": 80, "note_on_time": 0.437, "note_off_time": 0.655}, {"pitch": 42, "velocity": 80, "note_on_time": 0.655, "note_off_time": 0.873}, {"pitch": 42, "velocity": 80, "note_on_time": 0.873, "note_off_time": 1.09}, {"pitch": 65, "velocity": 80, "note_on_time": 0.873, "note_off_time": 1.305}, {"pitch": 42, "velocity": 80, "note_on_time": 1.09, "note_off_time": 1.305}, {"pitch": 42, "velocity": 80, "note_on_time": 1.305, "note_off_time": 1.524}, {"pitch": 42, "velocity": 80, "note_on_time": 1.524, "note_off_time": 1.741}, {"pitch": 64, "velocity": 80, "note_on_time": 1.741, "note_off_time": 1.959}, {"pitch": 42, "velocity": 80, "note_on_time": 1.741, "note_off_time": 1.959}, {"pitch": 62, "velocity": 80, "note_on_time": 1.959, "note_off_time": 2.175}, {"pitch": 42, "velocity": 80, "note_on_time": 1.959, "note_off_time": 2.175}, {"pitch": 62, "velocity": 80, "note_on_time": 2.175, "note_off_time": 2.394}, {"pitch": 42, "velocity": 80, "note_on_time": 2.175, "note_off_time": 2.394}, {"pitch": 62, "velocity": 80, "note_on_time": 2.394, "note_off_time": 2.611}, {"pitch": 42, "velocity": 80, "note_on_time": 2.394, "note_off_time": 2.611}, {"pitch": 60, "velocity": 80, "note_on_time": 2.611, "note_off_time": 2.832}, {"pitch": 42, "velocity": 80, "note_on_time": 2.611, "note_off_time": 2.832}, {"pitch": 42, "velocity": 80, "note_on_time": 2.832, "note_off_time": 3.049}, {"pitch": 42, "velocity": 80, "note_on_time": 3.049, "note_off_time": 3.269}, {"pitch": 42, "velocity": 80, "note_on_time": 3.269, "note_off_time": 3.485}, {"pitch": 42, "velocity": 80, "note_on_time": 3.485, "note_off_time": 3.703}, {"pitch": 67, "velocity": 80, "note_on_time": 3.485, "note_off_time": 3.92}, {"pitch": 42, "velocity": 80, "note_on_time": 3.703, "note_off_time": 3.92}, {"pitch": 42, "velocity": 80, "note_on_time": 3.92, "note_off_time": 4.136}, {"pitch": 64, "velocity": 80, "note_on_time": 3.92, "note_off_time": 4.356}, {"pitch": 42, "velocity": 80, "note_on_time": 4.136, "note_off_time": 4.356}, {"pitch": 64, "velocity": 80, "note_on_time": 4.356, "note_off_time": 4.573}, {"pitch": 42, "velocity": 80, "note_on_time": 4.356, "note_off_time": 4.573}, {"pitch": 60, "velocity": 80, "note_on_time": 4.573, "note_off_time": 4.791}, {"pitch": 42, "velocity": 80, "note_on_time": 4.573, "note_off_time": 4.791}, {"pitch": 62, "velocity": 80, "note_on_time": 4.791, "note_off_time": 5.007}, {"pitch": 42, "velocity": 80, "note_on_time": 4.791, "note_off_time": 5.007}, {"pitch": 67, "velocity": 80, "note_on_time": 5.007, "note_off_time": 5.224}, {"pitch": 42, "velocity": 80, "note_on_time": 5.007, "note_off_time": 5.224}, {"pitch": 42, "velocity": 80, "note_on_time": 5.225, "note_off_time": 5.442}, {"pitch": 60, "velocity": 80, "note_on_time": 5.224, "note_off_time": 5.658}, {"pitch": 42, "velocity": 80, "note_on_time": 5.442, "note_off_time": 5.658}, {"pitch": 64, "velocity": 80, "note_on_time": 5.658, "note_off_time": 5.875}, {"pitch": 42, "velocity": 80, "note_on_time": 5.658, "note_off_time": 5.875}, {"pitch": 42, "velocity": 80, "note_on_time": 5.875, "note_off_time": 6.092}, {"pitch": 60, "velocity": 80, "note_on_time": 6.092, "note_off_time": 6.308}, {"pitch": 42, "velocity": 80, "note_on_time": 6.092, "note_off_time": 6.308}, {"pitch": 65, "velocity": 80, "note_on_time": 6.308, "note_off_time": 6.526}, {"pitch": 42, "velocity": 80, "note_on_time": 6.308, "note_off_time": 6.526}, {"pitch": 60, "velocity": 80, "note_on_time": 6.526, "note_off_time": 6.743}, {"pitch": 42, "velocity": 80, "note_on_time": 6.526, "note_off_time": 6.743}, {"pitch": 64, "velocity": 80, "note_on_time": 6.743, "note_off_time": 6.961}, {"pitch": 42, "velocity": 80, "note_on_time": 6.743, "note_off_time": 6.961}, {"pitch": 42, "velocity": 80, "note_on_time": 6.961, "note_off_time": 7.179}, {"pitch": 64, "velocity": 80, "note_on_time": 7.179, "note_off_time": 7.397}, {"pitch": 42, "velocity": 80, "note_on_time": 7.179, "note_off_time": 7.397}, {"pitch": 64, "velocity": 80, "note_on_time": 7.397, "note_off_time": 7.615}, {"pitch": 42, "velocity": 80, "note_on_time": 7.397, "note_off_time": 7.615}, {"pitch": 64, "velocity": 80, "note_on_time": 7.615, "note_off_time": 7.834}, {"pitch": 42, "velocity": 80, "note_on_time": 7.615, "note_off_time": 7.834}]</notes><options name="Option List">((4, 4), [0.5, 0.25], 3, 8, &lt;NoteRangePerHand.C_TO_G: 6&gt;, &lt;NoteRangePerHand.ONE_NOTE: 2&gt;, False, True, True, 281)</options></target_notes><trials><trial trial_no="1" timestamp="2022_11_23-16_57_45"><notes name="Played Notes">[{"pitch": 65, "velocity": 89, "note_on_time": 0.881, "note_off_time": 1.165}, {"pitch": 64, "velocity": 90, "note_on_time": 1.806, "note_off_time": 1.949}, {"pitch": 62, "velocity": 84, "note_on_time": 2.027, "note_off_time": 2.108}, {"pitch": 62, "velocity": 68, "note_on_time": 2.251, "note_off_time": 2.321}, {"pitch": 62, "velocity": 73, "note_on_time": 2.443, "note_off_time": 2.521}, {"pitch": 60, "velocity": 90, "note_on_time": 2.675, "note_off_time": 2.863}, {"pitch": 67, "velocity": 92, "note_on_time": 3.51, "note_off_time": 3.791}, {"pitch": 64, "velocity": 96, "note_on_time": 3.963, "note_off_time": 4.175}, {"pitch": 64, "velocity": 86, "note_on_time": 4.414, "note_off_time": 4.53}, {"pitch": 60, "velocity": 82, "note_on_time": 4.613, "note_off_time": 4.723}, {"pitch": 62, "velocity": 85, "note_on_time": 4.821, "note_off_time": 4.917}, {"pitch": 67, "velocity": 75, "note_on_time": 5.041, "note_off_time": 5.135}, {"pitch": 60, "velocity": 89, "note_on_time": 5.277, "note_off_time": 5.426}, {"pitch": 64, "velocity": 85, "note_on_time": 5.709, "note_off_time": 5.961}, {"pitch": 60, "velocity": 87, "note_on_time": 6.522, "note_off_time": 6.622}, {"pitch": 65, "velocity": 78, "note_on_time": 6.749, "note_off_time": 6.83}, {"pitch": 60, "velocity": 82, "note_on_time": 6.948, "note_off_time": 7.029}, {"pitch": 64, "velocity": 78, "note_on_time": 7.176, "note_off_time": 7.258}, {"pitch": 64, "velocity": 81, "note_on_time": 7.637, "note_off_time": 7.722}]</notes><guidance name="Guidance Mode">None</guidance><error name="Error value">0.28790772222222205</error></trial></trials></MIDI>