<MIDI midiNo="2022_10_27-11_10_21"><target_notes><notes name="Note List">[{"pitch": 42, "velocity": 80, "note_on_time": 0.005, "note_off_time": 0.529}, {"pitch": 42, "velocity": 80, "note_on_time": 0.529, "note_off_time": 1.057}, {"pitch": 42, "velocity": 80, "note_on_time": 1.058, "note_off_time": 1.586}, {"pitch": 42, "velocity": 80, "note_on_time": 1.587, "note_off_time": 2.115}, {"pitch": 62, "velocity": 80, "note_on_time": 2.114, "note_off_time": 2.641}, {"pitch": 42, "velocity": 80, "note_on_time": 2.116, "note_off_time": 2.641}, {"pitch": 60, "velocity": 80, "note_on_time": 2.641, "note_off_time": 3.169}, {"pitch": 42, "velocity": 80, "note_on_time": 2.641, "note_off_time": 3.17}, {"pitch": 60, "velocity": 80, "note_on_time": 3.169, "note_off_time": 3.697}, {"pitch": 42, "velocity": 80, "note_on_time": 3.17, "note_off_time": 3.697}, {"pitch": 62, "velocity": 80, "note_on_time": 3.697, "note_off_time": 4.224}, {"pitch": 42, "velocity": 80, "note_on_time": 3.697, "note_off_time": 4.225}, {"pitch": 60, "velocity": 80, "note_on_time": 4.224, "note_off_time": 4.75}, {"pitch": 42, "velocity": 80, "note_on_time": 4.225, "note_off_time": 4.751}, {"pitch": 60, "velocity": 80, "note_on_time": 4.75, "note_off_time": 5.279}, {"pitch": 42, "velocity": 80, "note_on_time": 4.751, "note_off_time": 5.279}, {"pitch": 60, "velocity": 80, "note_on_time": 5.279, "note_off_time": 5.808}, {"pitch": 42, "velocity": 80, "note_on_time": 5.28, "note_off_time": 5.808}, {"pitch": 42, "velocity": 80, "note_on_time": 5.809, "note_off_time": 6.333}, {"pitch": 62, "velocity": 80, "note_on_time": 6.333, "note_off_time": 6.862}, {"pitch": 42, "velocity": 80, "note_on_time": 6.333, "note_off_time": 6.862}, {"pitch": 62, "velocity": 80, "note_on_time": 6.862, "note_off_time": 7.39}, {"pitch": 42, "velocity": 80, "note_on_time": 6.862, "note_off_time": 7.391}, {"pitch": 60, "velocity": 80, "note_on_time": 7.39, "note_off_time": 7.922}, {"pitch": 42, "velocity": 80, "note_on_time": 7.391, "note_off_time": 7.922}, {"pitch": 60, "velocity": 80, "note_on_time": 7.922, "note_off_time": 8.448}, {"pitch": 42, "velocity": 80, "note_on_time": 7.922, "note_off_time": 8.448}, {"pitch": 60, "velocity": 80, "note_on_time": 8.448, "note_off_time": 8.977}, {"pitch": 42, "velocity": 80, "note_on_time": 8.449, "note_off_time": 8.978}, {"pitch": 42, "velocity": 80, "note_on_time": 8.978, "note_off_time": 9.506}, {"pitch": 60, "velocity": 80, "note_on_time": 9.506, "note_off_time": 10.038}, {"pitch": 42, "velocity": 80, "note_on_time": 9.507, "note_off_time": 10.038}, {"pitch": 42, "velocity": 80, "note_on_time": 10.038, "note_off_time": 10.567}, {"pitch": 62, "velocity": 80, "note_on_time": 10.567, "note_off_time": 11.095}, {"pitch": 42, "velocity": 80, "note_on_time": 10.568, "note_off_time": 11.096}, {"pitch": 60, "velocity": 80, "note_on_time": 11.095, "note_off_time": 11.623}, {"pitch": 42, "velocity": 80, "note_on_time": 11.096, "note_off_time": 11.624}, {"pitch": 60, "velocity": 80, "note_on_time": 11.623, "note_off_time": 12.152}, {"pitch": 42, "velocity": 80, "note_on_time": 11.624, "note_off_time": 12.152}, {"pitch": 60, "velocity": 80, "note_on_time": 12.152, "note_off_time": 12.679}, {"pitch": 42, "velocity": 80, "note_on_time": 12.153, "note_off_time": 12.679}, {"pitch": 60, "velocity": 80, "note_on_time": 12.679, "note_off_time": 13.21}, {"pitch": 42, "velocity": 80, "note_on_time": 12.679, "note_off_time": 13.21}, {"pitch": 42, "velocity": 80, "note_on_time": 13.21, "note_off_time": 13.74}, {"pitch": 60, "velocity": 80, "note_on_time": 13.74, "note_off_time": 14.268}, {"pitch": 42, "velocity": 80, "note_on_time": 13.74, "note_off_time": 14.268}, {"pitch": 42, "velocity": 80, "note_on_time": 14.269, "note_off_time": 14.798}, {"pitch": 60, "velocity": 80, "note_on_time": 14.798, "note_off_time": 15.327}, {"pitch": 42, "velocity": 80, "note_on_time": 14.799, "note_off_time": 15.327}, {"pitch": 62, "velocity": 80, "note_on_time": 15.327, "note_off_time": 15.857}, {"pitch": 42, "velocity": 80, "note_on_time": 15.327, "note_off_time": 15.857}, {"pitch": 60, "velocity": 80, "note_on_time": 15.857, "note_off_time": 16.39}, {"pitch": 42, "velocity": 80, "note_on_time": 15.857, "note_off_time": 16.391}, {"pitch": 60, "velocity": 80, "note_on_time": 16.39, "note_off_time": 16.921}, {"pitch": 42, "velocity": 80, "note_on_time": 16.391, "note_off_time": 16.922}, {"pitch": 42, "velocity": 80, "note_on_time": 16.922, "note_off_time": 17.449}, {"pitch": 60, "velocity": 80, "note_on_time": 17.449, "note_off_time": 17.979}, {"pitch": 42, "velocity": 80, "note_on_time": 17.45, "note_off_time": 17.979}, {"pitch": 60, "velocity": 80, "note_on_time": 17.979, "note_off_time": 18.508}, {"pitch": 42, "velocity": 80, "note_on_time": 17.979, "note_off_time": 18.508}, {"pitch": 60, "velocity": 80, "note_on_time": 18.508, "note_off_time": 19.035}, {"pitch": 42, "velocity": 80, "note_on_time": 18.508, "note_off_time": 19.035}]</notes><options name="Option List">((4, 4), [0.25], 3, 8, &lt;NoteRangePerHand.TWO_NOTES: 3&gt;, &lt;NoteRangePerHand.ONE_NOTE: 2&gt;, False, True, False, 116)</options></target_notes><trials><trial trial_no="1" timestamp="2022_10_27-11_10_00"><notes name="Played Notes">[{"pitch": 62, "velocity": 49, "note_on_time": 2.087, "note_off_time": 2.306}, {"pitch": 60, "velocity": 53, "note_on_time": 2.615, "note_off_time": 2.752}, {"pitch": 60, "velocity": 52, "note_on_time": 3.129, "note_off_time": 3.284}, {"pitch": 62, "velocity": 59, "note_on_time": 3.702, "note_off_time": 3.876}, {"pitch": 60, "velocity": 59, "note_on_time": 4.513, "note_off_time": 4.666}, {"pitch": 60, "velocity": 56, "note_on_time": 5.053, "note_off_time": 5.19}, {"pitch": 60, "velocity": 55, "note_on_time": 5.523, "note_off_time": 5.695}, {"pitch": 62, "velocity": 45, "note_on_time": 6.275, "note_off_time": 6.426}, {"pitch": 62, "velocity": 50, "note_on_time": 6.778, "note_off_time": 6.953}, {"pitch": 60, "velocity": 51, "note_on_time": 7.29, "note_off_time": 7.438}, {"pitch": 60, "velocity": 48, "note_on_time": 7.81, "note_off_time": 7.962}, {"pitch": 60, "velocity": 60, "note_on_time": 8.339, "note_off_time": 8.511}, {"pitch": 60, "velocity": 58, "note_on_time": 9.491, "note_off_time": 9.669}, {"pitch": 62, "velocity": 49, "note_on_time": 10.316, "note_off_time": 10.482}, {"pitch": 60, "velocity": 45, "note_on_time": 10.808, "note_off_time": 10.976}, {"pitch": 60, "velocity": 48, "note_on_time": 11.319, "note_off_time": 11.468}, {"pitch": 60, "velocity": 52, "note_on_time": 11.847, "note_off_time": 12.009}, {"pitch": 60, "velocity": 61, "note_on_time": 13.258, "note_off_time": 13.415}, {"pitch": 60, "velocity": 49, "note_on_time": 14.672, "note_off_time": 14.824}, {"pitch": 60, "velocity": 58, "note_on_time": 15.365, "note_off_time": 15.524}, {"pitch": 62, "velocity": 35, "note_on_time": 15.88, "note_off_time": 16.054}, {"pitch": 60, "velocity": 50, "note_on_time": 16.353, "note_off_time": 16.513}, {"pitch": 60, "velocity": 51, "note_on_time": 16.837, "note_off_time": 16.981}, {"pitch": 60, "velocity": 47, "note_on_time": 17.845, "note_off_time": 18.02}, {"pitch": 60, "velocity": 50, "note_on_time": 18.417, "note_off_time": 18.569}]</notes><guidance name="Guidance Mode">None</guidance><error name="Error value">0.191835</error></trial><trial trial_no="2" timestamp="2022_10_27-11_10_34"><notes name="Played Notes">[{"pitch": 62, "velocity": 49, "note_on_time": 2.203, "note_off_time": 2.379}, {"pitch": 60, "velocity": 51, "note_on_time": 2.788, "note_off_time": 2.925}, {"pitch": 60, "velocity": 50, "note_on_time": 3.318, "note_off_time": 3.468}, {"pitch": 62, "velocity": 52, "note_on_time": 3.862, "note_off_time": 4.037}, {"pitch": 60, "velocity": 59, "note_on_time": 4.462, "note_off_time": 4.611}, {"pitch": 60, "velocity": 51, "note_on_time": 4.963, "note_off_time": 5.117}, {"pitch": 60, "velocity": 61, "note_on_time": 5.511, "note_off_time": 5.673}, {"pitch": 62, "velocity": 50, "note_on_time": 6.761, "note_off_time": 6.932}, {"pitch": 62, "velocity": 49, "note_on_time": 7.263, "note_off_time": 7.419}, {"pitch": 60, "velocity": 55, "note_on_time": 7.802, "note_off_time": 7.95}, {"pitch": 60, "velocity": 50, "note_on_time": 8.363, "note_off_time": 8.493}, {"pitch": 60, "velocity": 58, "note_on_time": 8.907, "note_off_time": 9.067}, {"pitch": 60, "velocity": 52, "note_on_time": 10.156, "note_off_time": 10.299}, {"pitch": 62, "velocity": 53, "note_on_time": 11.297, "note_off_time": 11.492}, {"pitch": 60, "velocity": 51, "note_on_time": 11.837, "note_off_time": 11.985}, {"pitch": 60, "velocity": 49, "note_on_time": 12.35, "note_off_time": 12.497}, {"pitch": 60, "velocity": 48, "note_on_time": 12.852, "note_off_time": 13.023}, {"pitch": 60, "velocity": 59, "note_on_time": 13.398, "note_off_time": 13.557}, {"pitch": 60, "velocity": 50, "note_on_time": 15.036, "note_off_time": 15.207}, {"pitch": 60, "velocity": 56, "note_on_time": 16.211, "note_off_time": 16.372}, {"pitch": 62, "velocity": 39, "note_on_time": 16.727, "note_off_time": 16.925}, {"pitch": 60, "velocity": 55, "note_on_time": 17.257, "note_off_time": 17.42}, {"pitch": 60, "velocity": 52, "note_on_time": 17.754, "note_off_time": 17.917}]</notes><guidance name="Guidance Mode">None</guidance><error name="Error value">0.2731351304347821</error></trial><trial trial_no="3" timestamp="2022_10_27-11_11_08"><notes name="Played Notes">[{"pitch": 62, "velocity": 47, "note_on_time": 2.04, "note_off_time": 2.254}, {"pitch": 60, "velocity": 49, "note_on_time": 2.632, "note_off_time": 2.75}, {"pitch": 60, "velocity": 54, "note_on_time": 3.183, "note_off_time": 3.327}, {"pitch": 62, "velocity": 52, "note_on_time": 3.728, "note_off_time": 3.901}, {"pitch": 60, "velocity": 52, "note_on_time": 4.277, "note_off_time": 4.408}, {"pitch": 60, "velocity": 49, "note_on_time": 4.808, "note_off_time": 4.958}, {"pitch": 60, "velocity": 59, "note_on_time": 5.35, "note_off_time": 5.487}, {"pitch": 62, "velocity": 47, "note_on_time": 6.497, "note_off_time": 6.663}, {"pitch": 62, "velocity": 49, "note_on_time": 7.055, "note_off_time": 7.203}, {"pitch": 60, "velocity": 45, "note_on_time": 7.596, "note_off_time": 7.75}, {"pitch": 60, "velocity": 51, "note_on_time": 8.115, "note_off_time": 8.286}, {"pitch": 60, "velocity": 53, "note_on_time": 8.634, "note_off_time": 8.789}, {"pitch": 60, "velocity": 55, "note_on_time": 9.724, "note_off_time": 9.872}, {"pitch": 62, "velocity": 44, "note_on_time": 10.861, "note_off_time": 11.041}, {"pitch": 60, "velocity": 53, "note_on_time": 11.401, "note_off_time": 11.56}, {"pitch": 60, "velocity": 52, "note_on_time": 11.9, "note_off_time": 12.064}, {"pitch": 60, "velocity": 47, "note_on_time": 12.405, "note_off_time": 12.552}, {"pitch": 60, "velocity": 59, "note_on_time": 12.952, "note_off_time": 13.102}, {"pitch": 60, "velocity": 52, "note_on_time": 14.114, "note_off_time": 14.242}, {"pitch": 60, "velocity": 56, "note_on_time": 15.158, "note_off_time": 15.345}, {"pitch": 62, "velocity": 38, "note_on_time": 15.729, "note_off_time": 15.927}, {"pitch": 60, "velocity": 55, "note_on_time": 16.261, "note_off_time": 16.426}, {"pitch": 60, "velocity": 52, "note_on_time": 16.781, "note_off_time": 16.953}, {"pitch": 60, "velocity": 51, "note_on_time": 17.734, "note_off_time": 17.881}, {"pitch": 60, "velocity": 57, "note_on_time": 18.252, "note_off_time": 18.409}, {"pitch": 60, "velocity": 56, "note_on_time": 18.778, "note_off_time": 18.917}]</notes><guidance name="Guidance Mode">None</guidance><error name="Error value">0.040324217391303964</error></trial></trials></MIDI>