<MIDI midiNo="2022_09_22-12_30_17"><target_notes><notes name="Note List">[{"pitch": 42, "velocity": 80, "note_on_time": 0.004, "note_off_time": 0.607}, {"pitch": 42, "velocity": 80, "note_on_time": 0.607, "note_off_time": 1.215}, {"pitch": 42, "velocity": 80, "note_on_time": 1.215, "note_off_time": 1.824}, {"pitch": 42, "velocity": 80, "note_on_time": 1.824, "note_off_time": 2.433}, {"pitch": 62, "velocity": 80, "note_on_time": 2.432, "note_off_time": 3.043}, {"pitch": 42, "velocity": 80, "note_on_time": 2.433, "note_off_time": 3.043}, {"pitch": 62, "velocity": 80, "note_on_time": 3.043, "note_off_time": 3.65}, {"pitch": 42, "velocity": 80, "note_on_time": 3.043, "note_off_time": 3.65}, {"pitch": 62, "velocity": 80, "note_on_time": 3.65, "note_off_time": 4.26}, {"pitch": 42, "velocity": 80, "note_on_time": 3.651, "note_off_time": 4.26}, {"pitch": 62, "velocity": 80, "note_on_time": 4.26, "note_off_time": 4.867}, {"pitch": 42, "velocity": 80, "note_on_time": 4.261, "note_off_time": 4.867}, {"pitch": 42, "velocity": 80, "note_on_time": 4.868, "note_off_time": 5.476}, {"pitch": 62, "velocity": 80, "note_on_time": 4.867, "note_off_time": 6.083}, {"pitch": 42, "velocity": 80, "note_on_time": 5.476, "note_off_time": 6.084}, {"pitch": 42, "velocity": 80, "note_on_time": 6.084, "note_off_time": 6.695}, {"pitch": 60, "velocity": 80, "note_on_time": 6.083, "note_off_time": 7.306}, {"pitch": 42, "velocity": 80, "note_on_time": 6.696, "note_off_time": 7.306}, {"pitch": 62, "velocity": 80, "note_on_time": 7.306, "note_off_time": 7.916}, {"pitch": 42, "velocity": 80, "note_on_time": 7.306, "note_off_time": 7.916}, {"pitch": 62, "velocity": 80, "note_on_time": 7.916, "note_off_time": 8.523}, {"pitch": 42, "velocity": 80, "note_on_time": 7.917, "note_off_time": 8.523}, {"pitch": 60, "velocity": 80, "note_on_time": 8.523, "note_off_time": 9.132}, {"pitch": 42, "velocity": 80, "note_on_time": 8.524, "note_off_time": 9.132}, {"pitch": 62, "velocity": 80, "note_on_time": 9.132, "note_off_time": 9.741}, {"pitch": 42, "velocity": 80, "note_on_time": 9.132, "note_off_time": 9.741}, {"pitch": 62, "velocity": 80, "note_on_time": 9.741, "note_off_time": 10.349}, {"pitch": 42, "velocity": 80, "note_on_time": 9.741, "note_off_time": 10.35}, {"pitch": 42, "velocity": 80, "note_on_time": 10.35, "note_off_time": 10.958}, {"pitch": 42, "velocity": 80, "note_on_time": 10.959, "note_off_time": 11.568}, {"pitch": 42, "velocity": 80, "note_on_time": 11.568, "note_off_time": 12.179}, {"pitch": 60, "velocity": 80, "note_on_time": 12.179, "note_off_time": 12.788}, {"pitch": 42, "velocity": 80, "note_on_time": 12.179, "note_off_time": 12.788}, {"pitch": 60, "velocity": 80, "note_on_time": 12.788, "note_off_time": 13.396}, {"pitch": 42, "velocity": 80, "note_on_time": 12.788, "note_off_time": 13.396}, {"pitch": 60, "velocity": 80, "note_on_time": 13.396, "note_off_time": 14.004}, {"pitch": 42, "velocity": 80, "note_on_time": 13.396, "note_off_time": 14.005}, {"pitch": 62, "velocity": 80, "note_on_time": 14.004, "note_off_time": 14.613}, {"pitch": 42, "velocity": 80, "note_on_time": 14.005, "note_off_time": 14.613}, {"pitch": 60, "velocity": 80, "note_on_time": 14.613, "note_off_time": 15.221}, {"pitch": 42, "velocity": 80, "note_on_time": 14.614, "note_off_time": 15.221}, {"pitch": 60, "velocity": 80, "note_on_time": 15.221, "note_off_time": 15.829}, {"pitch": 42, "velocity": 80, "note_on_time": 15.222, "note_off_time": 15.83}, {"pitch": 60, "velocity": 80, "note_on_time": 15.829, "note_off_time": 16.436}, {"pitch": 42, "velocity": 80, "note_on_time": 15.83, "note_off_time": 16.437}, {"pitch": 60, "velocity": 80, "note_on_time": 16.436, "note_off_time": 17.043}, {"pitch": 42, "velocity": 80, "note_on_time": 16.437, "note_off_time": 17.043}, {"pitch": 42, "velocity": 80, "note_on_time": 17.044, "note_off_time": 17.653}, {"pitch": 60, "velocity": 80, "note_on_time": 17.043, "note_off_time": 18.263}, {"pitch": 42, "velocity": 80, "note_on_time": 17.653, "note_off_time": 18.263}, {"pitch": 62, "velocity": 80, "note_on_time": 18.263, "note_off_time": 18.873}, {"pitch": 42, "velocity": 80, "note_on_time": 18.263, "note_off_time": 18.874}, {"pitch": 62, "velocity": 80, "note_on_time": 18.873, "note_off_time": 19.479}, {"pitch": 42, "velocity": 80, "note_on_time": 18.874, "note_off_time": 19.479}, {"pitch": 42, "velocity": 80, "note_on_time": 19.479, "note_off_time": 20.09}, {"pitch": 62, "velocity": 80, "note_on_time": 20.09, "note_off_time": 20.697}, {"pitch": 42, "velocity": 80, "note_on_time": 20.091, "note_off_time": 20.698}, {"pitch": 62, "velocity": 80, "note_on_time": 20.697, "note_off_time": 21.307}, {"pitch": 42, "velocity": 80, "note_on_time": 20.698, "note_off_time": 21.307}, {"pitch": 62, "velocity": 80, "note_on_time": 21.307, "note_off_time": 21.916}, {"pitch": 42, "velocity": 80, "note_on_time": 21.307, "note_off_time": 21.916}]</notes><options name="Option List">((4, 4), [0.5, 0.25], 3, 8, &lt;NoteRangePerHand.TWO_NOTES: 3&gt;, &lt;NoteRangePerHand.ONE_NOTE: 2&gt;, False, True, True, 100)</options></target_notes><trials><trial trial_no="1" timestamp="2022_09_22-12_29_53"><notes name="Played Notes">[{"pitch": 62, "velocity": 42, "note_on_time": 2.445, "note_off_time": 2.853}, {"pitch": 62, "velocity": 43, "note_on_time": 3.011, "note_off_time": 3.388}, {"pitch": 62, "velocity": 39, "note_on_time": 3.618, "note_off_time": 3.987}, {"pitch": 62, "velocity": 41, "note_on_time": 4.26, "note_off_time": 4.601}, {"pitch": 62, "velocity": 49, "note_on_time": 4.858, "note_off_time": 6.0}, {"pitch": 60, "velocity": 53, "note_on_time": 6.093, "note_off_time": 7.186}, {"pitch": 62, "velocity": 37, "note_on_time": 7.296, "note_off_time": 7.726}, {"pitch": 62, "velocity": 37, "note_on_time": 7.915, "note_off_time": 8.487}, {"pitch": 60, "velocity": 26, "note_on_time": 8.54, "note_off_time": 9.144}, {"pitch": 62, "velocity": 23, "note_on_time": 9.15, "note_off_time": 9.535}, {"pitch": 62, "velocity": 28, "note_on_time": 9.732, "note_off_time": 10.314}, {"pitch": 60, "velocity": 33, "note_on_time": 12.206, "note_off_time": 12.587}, {"pitch": 60, "velocity": 23, "note_on_time": 12.816, "note_off_time": 13.147}, {"pitch": 60, "velocity": 31, "note_on_time": 13.366, "note_off_time": 13.918}, {"pitch": 62, "velocity": 39, "note_on_time": 13.951, "note_off_time": 14.508}, {"pitch": 60, "velocity": 36, "note_on_time": 14.629, "note_off_time": 15.031}, {"pitch": 60, "velocity": 34, "note_on_time": 15.223, "note_off_time": 15.587}, {"pitch": 60, "velocity": 25, "note_on_time": 15.791, "note_off_time": 16.111}, {"pitch": 60, "velocity": 24, "note_on_time": 16.423, "note_off_time": 16.727}, {"pitch": 60, "velocity": 40, "note_on_time": 17.01, "note_off_time": 18.087}, {"pitch": 62, "velocity": 23, "note_on_time": 18.23, "note_off_time": 18.639}, {"pitch": 62, "velocity": 26, "note_on_time": 18.858, "note_off_time": 19.489}, {"pitch": 62, "velocity": 23, "note_on_time": 20.102, "note_off_time": 20.416}, {"pitch": 62, "velocity": 27, "note_on_time": 20.702, "note_off_time": 21.053}, {"pitch": 62, "velocity": 30, "note_on_time": 21.297, "note_off_time": 21.881}]</notes><guidance name="Guidance Mode">None</guidance><error name="Error value">0.027363636363635976</error></trial><trial trial_no="2" timestamp="2022_09_22-12_30_49"><notes name="Played Notes">[{"pitch": 62, "velocity": 39, "note_on_time": 1.241, "note_off_time": 1.392}, {"pitch": 62, "velocity": 53, "note_on_time": 1.566, "note_off_time": 1.698}, {"pitch": 62, "velocity": 48, "note_on_time": 1.874, "note_off_time": 1.977}, {"pitch": 62, "velocity": 47, "note_on_time": 2.148, "note_off_time": 2.304}, {"pitch": 62, "velocity": 54, "note_on_time": 2.484, "note_off_time": 3.076}, {"pitch": 60, "velocity": 36, "note_on_time": 3.159, "note_off_time": 3.815}, {"pitch": 62, "velocity": 38, "note_on_time": 3.794, "note_off_time": 3.956}, {"pitch": 62, "velocity": 40, "note_on_time": 4.09, "note_off_time": 4.358}, {"pitch": 60, "velocity": 30, "note_on_time": 4.408, "note_off_time": 4.702}, {"pitch": 62, "velocity": 39, "note_on_time": 4.708, "note_off_time": 4.877}, {"pitch": 62, "velocity": 51, "note_on_time": 5.009, "note_off_time": 5.236}, {"pitch": 60, "velocity": 35, "note_on_time": 6.248, "note_off_time": 6.384}, {"pitch": 60, "velocity": 31, "note_on_time": 6.539, "note_off_time": 6.686}, {"pitch": 60, "velocity": 38, "note_on_time": 6.887, "note_off_time": 7.147}, {"pitch": 62, "velocity": 30, "note_on_time": 7.199, "note_off_time": 7.446}, {"pitch": 60, "velocity": 29, "note_on_time": 7.502, "note_off_time": 7.646}, {"pitch": 60, "velocity": 32, "note_on_time": 7.816, "note_off_time": 7.944}, {"pitch": 60, "velocity": 28, "note_on_time": 8.123, "note_off_time": 8.247}, {"pitch": 60, "velocity": 30, "note_on_time": 8.426, "note_off_time": 8.566}, {"pitch": 60, "velocity": 34, "note_on_time": 8.745, "note_off_time": 9.307}, {"pitch": 62, "velocity": 42, "note_on_time": 9.345, "note_off_time": 9.503}, {"pitch": 62, "velocity": 39, "note_on_time": 9.653, "note_off_time": 9.961}, {"pitch": 62, "velocity": 44, "note_on_time": 10.291, "note_off_time": 10.401}, {"pitch": 62, "velocity": 36, "note_on_time": 10.584, "note_off_time": 10.733}, {"pitch": 62, "velocity": 40, "note_on_time": 10.907, "note_off_time": 11.076}]</notes><guidance name="Guidance Mode">None</guidance><error name="Error value">0.020818181818181816</error></trial><trial trial_no="3" timestamp="2022_09_22-12_31_23"><notes name="Played Notes">[{"pitch": 62, "velocity": 35, "note_on_time": 1.273, "note_off_time": 1.439}, {"pitch": 62, "velocity": 35, "note_on_time": 1.588, "note_off_time": 1.737}, {"pitch": 62, "velocity": 30, "note_on_time": 1.912, "note_off_time": 2.01}, {"pitch": 62, "velocity": 25, "note_on_time": 2.197, "note_off_time": 2.329}, {"pitch": 62, "velocity": 31, "note_on_time": 2.5, "note_off_time": 3.03}, {"pitch": 60, "velocity": 32, "note_on_time": 3.119, "note_off_time": 3.741}, {"pitch": 62, "velocity": 37, "note_on_time": 3.718, "note_off_time": 3.848}, {"pitch": 62, "velocity": 30, "note_on_time": 4.044, "note_off_time": 4.337}, {"pitch": 60, "velocity": 20, "note_on_time": 4.402, "note_off_time": 4.663}, {"pitch": 62, "velocity": 22, "note_on_time": 4.676, "note_off_time": 4.845}, {"pitch": 62, "velocity": 30, "note_on_time": 4.985, "note_off_time": 5.335}, {"pitch": 60, "velocity": 33, "note_on_time": 6.256, "note_off_time": 6.381}, {"pitch": 60, "velocity": 23, "note_on_time": 6.576, "note_off_time": 6.689}, {"pitch": 60, "velocity": 29, "note_on_time": 6.912, "note_off_time": 7.181}, {"pitch": 62, "velocity": 28, "note_on_time": 7.21, "note_off_time": 7.451}, {"pitch": 60, "velocity": 24, "note_on_time": 7.789, "note_off_time": 7.916}, {"pitch": 60, "velocity": 33, "note_on_time": 8.097, "note_off_time": 8.229}, {"pitch": 60, "velocity": 30, "note_on_time": 8.421, "note_off_time": 8.571}, {"pitch": 60, "velocity": 31, "note_on_time": 8.749, "note_off_time": 9.3}, {"pitch": 62, "velocity": 30, "note_on_time": 9.344, "note_off_time": 9.467}, {"pitch": 62, "velocity": 24, "note_on_time": 9.658, "note_off_time": 9.955}, {"pitch": 62, "velocity": 36, "note_on_time": 10.295, "note_off_time": 10.415}, {"pitch": 62, "velocity": 31, "note_on_time": 10.588, "note_off_time": 10.721}, {"pitch": 62, "velocity": 31, "note_on_time": 10.925, "note_off_time": 11.107}]</notes><guidance name="Guidance Mode">None</guidance><error name="Error value">0.08113636363636369</error></trial></trials></MIDI>