<MIDI midiNo="2022_09_08-12_58_49"><target_notes><notes name="Note List">[{"pitch": 42, "velocity": 80, "note_on_time": 0.004, "note_off_time": 0.414}, {"pitch": 42, "velocity": 80, "note_on_time": 0.414, "note_off_time": 0.82}, {"pitch": 42, "velocity": 80, "note_on_time": 0.82, "note_off_time": 1.225}, {"pitch": 42, "velocity": 80, "note_on_time": 1.225, "note_off_time": 1.63}, {"pitch": 62, "velocity": 80, "note_on_time": 1.63, "note_off_time": 2.035}, {"pitch": 42, "velocity": 80, "note_on_time": 1.63, "note_off_time": 2.035}, {"pitch": 42, "velocity": 80, "note_on_time": 2.036, "note_off_time": 2.44}, {"pitch": 42, "velocity": 80, "note_on_time": 2.44, "note_off_time": 2.844}, {"pitch": 42, "velocity": 80, "note_on_time": 2.844, "note_off_time": 3.248}, {"pitch": 62, "velocity": 80, "note_on_time": 3.247, "note_off_time": 3.649}, {"pitch": 42, "velocity": 80, "note_on_time": 3.248, "note_off_time": 3.65}, {"pitch": 62, "velocity": 80, "note_on_time": 3.649, "note_off_time": 4.053}, {"pitch": 42, "velocity": 80, "note_on_time": 3.65, "note_off_time": 4.053}, {"pitch": 64, "velocity": 80, "note_on_time": 4.053, "note_off_time": 4.458}, {"pitch": 42, "velocity": 80, "note_on_time": 4.053, "note_off_time": 4.458}, {"pitch": 62, "velocity": 80, "note_on_time": 4.458, "note_off_time": 4.862}, {"pitch": 42, "velocity": 80, "note_on_time": 4.458, "note_off_time": 4.863}, {"pitch": 62, "velocity": 80, "note_on_time": 4.862, "note_off_time": 5.268}, {"pitch": 42, "velocity": 80, "note_on_time": 4.863, "note_off_time": 5.269}, {"pitch": 64, "velocity": 80, "note_on_time": 5.268, "note_off_time": 5.674}, {"pitch": 42, "velocity": 80, "note_on_time": 5.269, "note_off_time": 5.674}, {"pitch": 60, "velocity": 80, "note_on_time": 5.674, "note_off_time": 6.079}, {"pitch": 42, "velocity": 80, "note_on_time": 5.674, "note_off_time": 6.08}, {"pitch": 62, "velocity": 80, "note_on_time": 6.079, "note_off_time": 6.484}, {"pitch": 42, "velocity": 80, "note_on_time": 6.08, "note_off_time": 6.484}, {"pitch": 62, "velocity": 80, "note_on_time": 6.484, "note_off_time": 6.885}, {"pitch": 42, "velocity": 80, "note_on_time": 6.484, "note_off_time": 6.885}, {"pitch": 62, "velocity": 80, "note_on_time": 6.885, "note_off_time": 7.29}, {"pitch": 42, "velocity": 80, "note_on_time": 6.886, "note_off_time": 7.29}, {"pitch": 62, "velocity": 80, "note_on_time": 7.29, "note_off_time": 7.692}, {"pitch": 42, "velocity": 80, "note_on_time": 7.29, "note_off_time": 7.692}, {"pitch": 64, "velocity": 80, "note_on_time": 7.692, "note_off_time": 8.098}, {"pitch": 42, "velocity": 80, "note_on_time": 7.693, "note_off_time": 8.098}, {"pitch": 64, "velocity": 80, "note_on_time": 8.098, "note_off_time": 8.505}, {"pitch": 42, "velocity": 80, "note_on_time": 8.099, "note_off_time": 8.506}, {"pitch": 64, "velocity": 80, "note_on_time": 8.505, "note_off_time": 8.911}, {"pitch": 42, "velocity": 80, "note_on_time": 8.506, "note_off_time": 8.911}, {"pitch": 60, "velocity": 80, "note_on_time": 8.911, "note_off_time": 9.315}, {"pitch": 42, "velocity": 80, "note_on_time": 8.912, "note_off_time": 9.316}, {"pitch": 60, "velocity": 80, "note_on_time": 9.315, "note_off_time": 9.722}, {"pitch": 42, "velocity": 80, "note_on_time": 9.316, "note_off_time": 9.722}, {"pitch": 62, "velocity": 80, "note_on_time": 9.722, "note_off_time": 10.125}, {"pitch": 42, "velocity": 80, "note_on_time": 9.722, "note_off_time": 10.125}, {"pitch": 42, "velocity": 80, "note_on_time": 10.125, "note_off_time": 10.533}, {"pitch": 42, "velocity": 80, "note_on_time": 10.533, "note_off_time": 10.936}, {"pitch": 42, "velocity": 80, "note_on_time": 10.936, "note_off_time": 11.34}, {"pitch": 60, "velocity": 80, "note_on_time": 11.339, "note_off_time": 11.742}, {"pitch": 42, "velocity": 80, "note_on_time": 11.34, "note_off_time": 11.742}, {"pitch": 64, "velocity": 80, "note_on_time": 11.742, "note_off_time": 12.144}, {"pitch": 42, "velocity": 80, "note_on_time": 11.743, "note_off_time": 12.144}, {"pitch": 42, "velocity": 80, "note_on_time": 12.145, "note_off_time": 12.548}, {"pitch": 42, "velocity": 80, "note_on_time": 12.549, "note_off_time": 12.952}, {"pitch": 42, "velocity": 80, "note_on_time": 12.952, "note_off_time": 13.356}, {"pitch": 64, "velocity": 80, "note_on_time": 13.356, "note_off_time": 13.76}, {"pitch": 42, "velocity": 80, "note_on_time": 13.357, "note_off_time": 13.76}, {"pitch": 64, "velocity": 80, "note_on_time": 13.76, "note_off_time": 14.166}, {"pitch": 42, "velocity": 80, "note_on_time": 13.76, "note_off_time": 14.166}, {"pitch": 64, "velocity": 80, "note_on_time": 14.166, "note_off_time": 14.572}, {"pitch": 42, "velocity": 80, "note_on_time": 14.166, "note_off_time": 14.572}]</notes><options name="Option List">((4, 4), [0.5, 0.25], 3, 8, &lt;NoteRangePerHand.THREE_NOTES: 4&gt;, &lt;NoteRangePerHand.ONE_NOTE: 2&gt;, False, True, True, 150)</options></target_notes><trials><trial trial_no="1" timestamp="2022_09_08-12_58_34"><notes name="Played Notes">[{"pitch": 62, "velocity": 93, "note_on_time": 1.15, "note_off_time": 1.347}, {"pitch": 62, "velocity": 87, "note_on_time": 2.621, "note_off_time": 2.757}, {"pitch": 62, "velocity": 89, "note_on_time": 3.018, "note_off_time": 3.159}, {"pitch": 64, "velocity": 87, "note_on_time": 3.432, "note_off_time": 3.611}, {"pitch": 62, "velocity": 91, "note_on_time": 3.855, "note_off_time": 3.991}, {"pitch": 62, "velocity": 97, "note_on_time": 4.278, "note_off_time": 4.388}, {"pitch": 64, "velocity": 94, "note_on_time": 4.704, "note_off_time": 4.832}, {"pitch": 60, "velocity": 94, "note_on_time": 5.123, "note_off_time": 5.288}, {"pitch": 62, "velocity": 95, "note_on_time": 5.58, "note_off_time": 5.734}, {"pitch": 62, "velocity": 93, "note_on_time": 6.042, "note_off_time": 6.159}, {"pitch": 62, "velocity": 90, "note_on_time": 6.431, "note_off_time": 6.551}, {"pitch": 62, "velocity": 86, "note_on_time": 6.824, "note_off_time": 6.949}, {"pitch": 64, "velocity": 87, "note_on_time": 7.238, "note_off_time": 7.391}, {"pitch": 64, "velocity": 85, "note_on_time": 7.687, "note_off_time": 7.802}, {"pitch": 64, "velocity": 94, "note_on_time": 8.092, "note_off_time": 8.224}, {"pitch": 62, "velocity": 65, "note_on_time": 8.551, "note_off_time": 8.622}, {"pitch": 60, "velocity": 98, "note_on_time": 8.899, "note_off_time": 9.05}, {"pitch": 60, "velocity": 99, "note_on_time": 9.349, "note_off_time": 9.505}, {"pitch": 62, "velocity": 104, "note_on_time": 9.747, "note_off_time": 9.907}, {"pitch": 60, "velocity": 96, "note_on_time": 11.299, "note_off_time": 11.487}, {"pitch": 64, "velocity": 95, "note_on_time": 11.707, "note_off_time": 11.868}, {"pitch": 64, "velocity": 93, "note_on_time": 12.928, "note_off_time": 13.085}, {"pitch": 64, "velocity": 94, "note_on_time": 13.298, "note_off_time": 13.434}, {"pitch": 64, "velocity": 103, "note_on_time": 13.693, "note_off_time": 13.853}]</notes><guidance name="Guidance Mode">None</guidance><error name="Error value">0.18954999999999983</error></trial><trial trial_no="2" timestamp="2022_09_08-12_59_01"><notes name="Played Notes">[{"pitch": 62, "velocity": 93, "note_on_time": 1.623, "note_off_time": 1.81}, {"pitch": 62, "velocity": 96, "note_on_time": 2.546, "note_off_time": 2.707}, {"pitch": 62, "velocity": 84, "note_on_time": 2.939, "note_off_time": 3.083}, {"pitch": 62, "velocity": 86, "note_on_time": 3.344, "note_off_time": 3.482}, {"pitch": 64, "velocity": 91, "note_on_time": 3.717, "note_off_time": 3.856}, {"pitch": 62, "velocity": 92, "note_on_time": 4.141, "note_off_time": 4.276}, {"pitch": 62, "velocity": 91, "note_on_time": 4.547, "note_off_time": 4.672}, {"pitch": 62, "velocity": 89, "note_on_time": 4.928, "note_off_time": 5.066}, {"pitch": 64, "velocity": 77, "note_on_time": 5.316, "note_off_time": 5.461}, {"pitch": 60, "velocity": 96, "note_on_time": 5.704, "note_off_time": 5.878}, {"pitch": 62, "velocity": 95, "note_on_time": 6.115, "note_off_time": 6.241}, {"pitch": 62, "velocity": 93, "note_on_time": 6.494, "note_off_time": 6.618}, {"pitch": 62, "velocity": 83, "note_on_time": 6.882, "note_off_time": 6.999}, {"pitch": 62, "velocity": 91, "note_on_time": 7.308, "note_off_time": 7.431}, {"pitch": 64, "velocity": 95, "note_on_time": 7.685, "note_off_time": 7.795}, {"pitch": 64, "velocity": 86, "note_on_time": 8.071, "note_off_time": 8.21}, {"pitch": 64, "velocity": 85, "note_on_time": 8.463, "note_off_time": 8.601}, {"pitch": 60, "velocity": 91, "note_on_time": 8.858, "note_off_time": 9.02}, {"pitch": 60, "velocity": 90, "note_on_time": 9.266, "note_off_time": 9.431}, {"pitch": 62, "velocity": 92, "note_on_time": 9.662, "note_off_time": 9.805}, {"pitch": 60, "velocity": 90, "note_on_time": 10.911, "note_off_time": 11.086}, {"pitch": 64, "velocity": 91, "note_on_time": 11.31, "note_off_time": 11.458}, {"pitch": 64, "velocity": 97, "note_on_time": 12.742, "note_off_time": 12.888}, {"pitch": 64, "velocity": 93, "note_on_time": 13.117, "note_off_time": 13.262}, {"pitch": 64, "velocity": 98, "note_on_time": 13.466, "note_off_time": 13.602}, {"pitch": 64, "velocity": 64, "note_on_time": 14.101, "note_off_time": 14.199}]</notes><guidance name="Guidance Mode">None</guidance><error name="Error value">0.7013999999999996</error></trial><trial trial_no="3" timestamp="2022_09_08-12_59_30"><notes name="Played Notes">[{"pitch": 62, "velocity": 93, "note_on_time": 1.419, "note_off_time": 1.616}, {"pitch": 62, "velocity": 94, "note_on_time": 2.847, "note_off_time": 2.985}, {"pitch": 62, "velocity": 89, "note_on_time": 3.252, "note_off_time": 3.41}, {"pitch": 64, "velocity": 85, "note_on_time": 3.646, "note_off_time": 3.786}, {"pitch": 62, "velocity": 88, "note_on_time": 4.078, "note_off_time": 4.221}, {"pitch": 62, "velocity": 87, "note_on_time": 4.513, "note_off_time": 4.649}, {"pitch": 62, "velocity": 86, "note_on_time": 4.903, "note_off_time": 5.053}, {"pitch": 64, "velocity": 78, "note_on_time": 5.352, "note_off_time": 5.517}, {"pitch": 60, "velocity": 90, "note_on_time": 5.743, "note_off_time": 5.917}, {"pitch": 62, "velocity": 92, "note_on_time": 6.142, "note_off_time": 6.281}, {"pitch": 62, "velocity": 90, "note_on_time": 6.562, "note_off_time": 6.688}, {"pitch": 62, "velocity": 86, "note_on_time": 6.946, "note_off_time": 7.081}, {"pitch": 62, "velocity": 85, "note_on_time": 7.341, "note_off_time": 7.496}, {"pitch": 64, "velocity": 85, "note_on_time": 7.719, "note_off_time": 7.868}, {"pitch": 64, "velocity": 90, "note_on_time": 8.126, "note_off_time": 8.27}, {"pitch": 60, "velocity": 90, "note_on_time": 8.988, "note_off_time": 9.136}, {"pitch": 60, "velocity": 91, "note_on_time": 9.393, "note_off_time": 9.565}, {"pitch": 62, "velocity": 86, "note_on_time": 9.79, "note_off_time": 9.945}, {"pitch": 60, "velocity": 91, "note_on_time": 11.127, "note_off_time": 11.301}, {"pitch": 64, "velocity": 87, "note_on_time": 11.522, "note_off_time": 11.674}, {"pitch": 64, "velocity": 87, "note_on_time": 12.374, "note_off_time": 12.5}, {"pitch": 64, "velocity": 90, "note_on_time": 12.73, "note_off_time": 12.856}, {"pitch": 64, "velocity": 93, "note_on_time": 13.11, "note_off_time": 13.228}, {"pitch": 64, "velocity": 92, "note_on_time": 13.473, "note_off_time": 13.585}]</notes><guidance name="Guidance Mode">None</guidance><error name="Error value">0.4547999999999995</error></trial></trials></MIDI>