<MIDI midiNo="2022_10_27-14_13_35"><target_notes><notes name="Note List">[{"pitch": 42, "velocity": 80, "note_on_time": 0.076, "note_off_time": 0.365}, {"pitch": 42, "velocity": 80, "note_on_time": 0.365, "note_off_time": 0.647}, {"pitch": 42, "velocity": 80, "note_on_time": 0.647, "note_off_time": 0.942}, {"pitch": 42, "velocity": 80, "note_on_time": 0.943, "note_off_time": 1.237}, {"pitch": 60, "velocity": 80, "note_on_time": 1.237, "note_off_time": 1.533}, {"pitch": 42, "velocity": 80, "note_on_time": 1.237, "note_off_time": 1.533}, {"pitch": 64, "velocity": 80, "note_on_time": 1.533, "note_off_time": 1.828}, {"pitch": 42, "velocity": 80, "note_on_time": 1.534, "note_off_time": 1.829}, {"pitch": 62, "velocity": 80, "note_on_time": 1.828, "note_off_time": 2.122}, {"pitch": 42, "velocity": 80, "note_on_time": 1.829, "note_off_time": 2.123}, {"pitch": 60, "velocity": 80, "note_on_time": 2.122, "note_off_time": 2.417}, {"pitch": 42, "velocity": 80, "note_on_time": 2.123, "note_off_time": 2.418}, {"pitch": 42, "velocity": 80, "note_on_time": 2.418, "note_off_time": 2.714}, {"pitch": 65, "velocity": 80, "note_on_time": 2.417, "note_off_time": 3.009}, {"pitch": 42, "velocity": 80, "note_on_time": 2.714, "note_off_time": 3.01}, {"pitch": 42, "velocity": 80, "note_on_time": 3.01, "note_off_time": 3.29}, {"pitch": 42, "velocity": 80, "note_on_time": 3.291, "note_off_time": 3.584}, {"pitch": 62, "velocity": 80, "note_on_time": 3.584, "note_off_time": 3.879}, {"pitch": 42, "velocity": 80, "note_on_time": 3.584, "note_off_time": 3.879}, {"pitch": 60, "velocity": 80, "note_on_time": 3.879, "note_off_time": 4.174}, {"pitch": 42, "velocity": 80, "note_on_time": 3.879, "note_off_time": 4.174}, {"pitch": 42, "velocity": 80, "note_on_time": 4.174, "note_off_time": 4.47}, {"pitch": 65, "velocity": 80, "note_on_time": 4.174, "note_off_time": 4.751}, {"pitch": 42, "velocity": 80, "note_on_time": 4.47, "note_off_time": 4.751}, {"pitch": 67, "velocity": 80, "note_on_time": 4.751, "note_off_time": 5.047}, {"pitch": 42, "velocity": 80, "note_on_time": 4.752, "note_off_time": 5.047}, {"pitch": 42, "velocity": 80, "note_on_time": 5.047, "note_off_time": 5.342}, {"pitch": 60, "velocity": 80, "note_on_time": 5.342, "note_off_time": 5.638}, {"pitch": 42, "velocity": 80, "note_on_time": 5.343, "note_off_time": 5.638}, {"pitch": 65, "velocity": 80, "note_on_time": 5.638, "note_off_time": 5.933}, {"pitch": 42, "velocity": 80, "note_on_time": 5.638, "note_off_time": 5.934}, {"pitch": 42, "velocity": 80, "note_on_time": 5.934, "note_off_time": 6.227}, {"pitch": 65, "velocity": 80, "note_on_time": 5.933, "note_off_time": 6.522}, {"pitch": 42, "velocity": 80, "note_on_time": 6.228, "note_off_time": 6.523}, {"pitch": 42, "velocity": 80, "note_on_time": 6.523, "note_off_time": 6.804}, {"pitch": 42, "velocity": 80, "note_on_time": 6.804, "note_off_time": 7.099}, {"pitch": 62, "velocity": 80, "note_on_time": 7.099, "note_off_time": 7.393}, {"pitch": 42, "velocity": 80, "note_on_time": 7.099, "note_off_time": 7.393}, {"pitch": 67, "velocity": 80, "note_on_time": 7.393, "note_off_time": 7.675}, {"pitch": 42, "velocity": 80, "note_on_time": 7.393, "note_off_time": 7.676}, {"pitch": 65, "velocity": 80, "note_on_time": 7.675, "note_off_time": 7.971}, {"pitch": 42, "velocity": 80, "note_on_time": 7.676, "note_off_time": 7.971}, {"pitch": 60, "velocity": 80, "note_on_time": 7.971, "note_off_time": 8.252}, {"pitch": 42, "velocity": 80, "note_on_time": 7.971, "note_off_time": 8.252}, {"pitch": 60, "velocity": 80, "note_on_time": 8.252, "note_off_time": 8.547}, {"pitch": 42, "velocity": 80, "note_on_time": 8.252, "note_off_time": 8.547}, {"pitch": 64, "velocity": 80, "note_on_time": 8.547, "note_off_time": 8.841}, {"pitch": 42, "velocity": 80, "note_on_time": 8.547, "note_off_time": 8.841}, {"pitch": 67, "velocity": 80, "note_on_time": 8.841, "note_off_time": 9.137}, {"pitch": 42, "velocity": 80, "note_on_time": 8.842, "note_off_time": 9.137}, {"pitch": 67, "velocity": 80, "note_on_time": 9.137, "note_off_time": 9.418}, {"pitch": 42, "velocity": 80, "note_on_time": 9.137, "note_off_time": 9.418}, {"pitch": 42, "velocity": 80, "note_on_time": 9.418, "note_off_time": 9.7}, {"pitch": 67, "velocity": 80, "note_on_time": 9.7, "note_off_time": 9.992}, {"pitch": 42, "velocity": 80, "note_on_time": 9.7, "note_off_time": 9.992}, {"pitch": 67, "velocity": 80, "note_on_time": 9.992, "note_off_time": 10.287}, {"pitch": 42, "velocity": 80, "note_on_time": 9.992, "note_off_time": 10.287}, {"pitch": 67, "velocity": 80, "note_on_time": 10.287, "note_off_time": 10.581}, {"pitch": 42, "velocity": 80, "note_on_time": 10.287, "note_off_time": 10.582}]</notes><options name="Option List">((4, 4), [0.5, 0.25], 3, 8, &lt;NoteRangePerHand.C_TO_G: 6&gt;, &lt;NoteRangePerHand.ONE_NOTE: 2&gt;, False, True, False, 215)</options></target_notes><trials><trial trial_no="1" timestamp="2022_10_27-14_13_23"><notes name="Played Notes">[{"pitch": 72, "velocity": 68, "note_on_time": 1.241, "note_off_time": 1.465}, {"pitch": 76, "velocity": 65, "note_on_time": 1.538, "note_off_time": 1.788}, {"pitch": 74, "velocity": 65, "note_on_time": 1.83, "note_off_time": 2.046}, {"pitch": 72, "velocity": 66, "note_on_time": 2.104, "note_off_time": 2.28}, {"pitch": 77, "velocity": 74, "note_on_time": 2.404, "note_off_time": 2.92}, {"pitch": 74, "velocity": 71, "note_on_time": 3.618, "note_off_time": 3.854}, {"pitch": 72, "velocity": 66, "note_on_time": 3.898, "note_off_time": 4.055}, {"pitch": 77, "velocity": 73, "note_on_time": 4.197, "note_off_time": 4.621}, {"pitch": 79, "velocity": 68, "note_on_time": 4.764, "note_off_time": 5.077}, {"pitch": 72, "velocity": 72, "note_on_time": 5.345, "note_off_time": 5.496}, {"pitch": 77, "velocity": 79, "note_on_time": 5.645, "note_off_time": 5.755}, {"pitch": 77, "velocity": 77, "note_on_time": 5.935, "note_off_time": 6.326}, {"pitch": 74, "velocity": 72, "note_on_time": 7.115, "note_off_time": 7.344}, {"pitch": 79, "velocity": 70, "note_on_time": 7.407, "note_off_time": 7.644}, {"pitch": 77, "velocity": 67, "note_on_time": 7.707, "note_off_time": 7.96}, {"pitch": 72, "velocity": 68, "note_on_time": 7.982, "note_off_time": 8.102}, {"pitch": 72, "velocity": 71, "note_on_time": 8.284, "note_off_time": 8.445}, {"pitch": 76, "velocity": 66, "note_on_time": 8.572, "note_off_time": 8.766}, {"pitch": 79, "velocity": 73, "note_on_time": 8.891, "note_off_time": 9.021}, {"pitch": 79, "velocity": 61, "note_on_time": 9.158, "note_off_time": 9.351}, {"pitch": 79, "velocity": 71, "note_on_time": 9.717, "note_off_time": 9.878}, {"pitch": 79, "velocity": 76, "note_on_time": 10.035, "note_off_time": 10.156}, {"pitch": 79, "velocity": 68, "note_on_time": 10.334, "note_off_time": 10.477}]</notes><guidance name="Guidance Mode">None</guidance><error name="Error value">1.17421375</error></trial><trial trial_no="2" timestamp="2022_10_27-14_13_44"><notes name="Played Notes">[{"pitch": 72, "velocity": 69, "note_on_time": 1.174, "note_off_time": 1.453}, {"pitch": 76, "velocity": 60, "note_on_time": 1.481, "note_off_time": 1.766}, {"pitch": 74, "velocity": 65, "note_on_time": 1.769, "note_off_time": 2.005}, {"pitch": 72, "velocity": 67, "note_on_time": 2.019, "note_off_time": 2.332}, {"pitch": 77, "velocity": 70, "note_on_time": 2.348, "note_off_time": 2.86}, {"pitch": 74, "velocity": 63, "note_on_time": 3.524, "note_off_time": 3.78}, {"pitch": 72, "velocity": 66, "note_on_time": 3.788, "note_off_time": 4.073}, {"pitch": 77, "velocity": 74, "note_on_time": 4.099, "note_off_time": 4.619}, {"pitch": 79, "velocity": 67, "note_on_time": 4.673, "note_off_time": 5.209}, {"pitch": 72, "velocity": 58, "note_on_time": 5.253, "note_off_time": 5.499}, {"pitch": 77, "velocity": 69, "note_on_time": 5.52, "note_off_time": 5.67}, {"pitch": 77, "velocity": 72, "note_on_time": 5.818, "note_off_time": 6.162}, {"pitch": 74, "velocity": 68, "note_on_time": 6.97, "note_off_time": 7.258}, {"pitch": 79, "velocity": 67, "note_on_time": 7.261, "note_off_time": 7.519}, {"pitch": 76, "velocity": 64, "note_on_time": 7.536, "note_off_time": 7.746}, {"pitch": 74, "velocity": 64, "note_on_time": 7.851, "note_off_time": 8.004}, {"pitch": 72, "velocity": 67, "note_on_time": 8.117, "note_off_time": 8.25}, {"pitch": 77, "velocity": 59, "note_on_time": 8.429, "note_off_time": 8.568}, {"pitch": 77, "velocity": 70, "note_on_time": 8.728, "note_off_time": 8.91}, {"pitch": 79, "velocity": 70, "note_on_time": 9.097, "note_off_time": 9.222}, {"pitch": 79, "velocity": 64, "note_on_time": 9.357, "note_off_time": 9.473}, {"pitch": 79, "velocity": 68, "note_on_time": 9.902, "note_off_time": 10.024}, {"pitch": 79, "velocity": 68, "note_on_time": 10.168, "note_off_time": 10.29}]</notes><guidance name="Guidance Mode">None</guidance><error name="Error value">1.20559825</error></trial><trial trial_no="3" timestamp="2022_10_27-14_14_13"><notes name="Played Notes">[{"pitch": 72, "velocity": 65, "note_on_time": 1.189, "note_off_time": 1.458}, {"pitch": 76, "velocity": 61, "note_on_time": 1.491, "note_off_time": 1.866}, {"pitch": 74, "velocity": 64, "note_on_time": 1.774, "note_off_time": 2.035}, {"pitch": 72, "velocity": 57, "note_on_time": 2.066, "note_off_time": 2.346}, {"pitch": 77, "velocity": 71, "note_on_time": 2.362, "note_off_time": 2.848}, {"pitch": 74, "velocity": 66, "note_on_time": 3.514, "note_off_time": 3.75}, {"pitch": 72, "velocity": 62, "note_on_time": 3.774, "note_off_time": 4.057}, {"pitch": 77, "velocity": 74, "note_on_time": 4.094, "note_off_time": 4.556}, {"pitch": 79, "velocity": 65, "note_on_time": 4.637, "note_off_time": 5.025}, {"pitch": 72, "velocity": 68, "note_on_time": 5.185, "note_off_time": 5.408}, {"pitch": 77, "velocity": 68, "note_on_time": 5.459, "note_off_time": 5.617}, {"pitch": 77, "velocity": 80, "note_on_time": 5.775, "note_off_time": 6.11}, {"pitch": 74, "velocity": 70, "note_on_time": 6.937, "note_off_time": 7.205}, {"pitch": 79, "velocity": 71, "note_on_time": 7.209, "note_off_time": 7.485}, {"pitch": 77, "velocity": 66, "note_on_time": 7.531, "note_off_time": 7.768}, {"pitch": 72, "velocity": 70, "note_on_time": 7.793, "note_off_time": 7.914}, {"pitch": 72, "velocity": 70, "note_on_time": 8.092, "note_off_time": 8.28}, {"pitch": 76, "velocity": 67, "note_on_time": 8.373, "note_off_time": 8.573}, {"pitch": 79, "velocity": 69, "note_on_time": 8.656, "note_off_time": 8.804}, {"pitch": 79, "velocity": 76, "note_on_time": 8.936, "note_off_time": 9.122}, {"pitch": 79, "velocity": 76, "note_on_time": 9.528, "note_off_time": 9.687}, {"pitch": 79, "velocity": 60, "note_on_time": 9.804, "note_off_time": 9.95}, {"pitch": 79, "velocity": 77, "note_on_time": 10.115, "note_off_time": 10.293}]</notes><guidance name="Guidance Mode">None</guidance><error name="Error value">1.17140515</error></trial></trials></MIDI>