<MIDI midiNo="2022_11_13-13_07_06"><target_notes><notes name="Note List">[{"pitch": 42, "velocity": 80, "note_on_time": 0.004, "note_off_time": 0.226}, {"pitch": 42, "velocity": 80, "note_on_time": 0.227, "note_off_time": 0.446}, {"pitch": 42, "velocity": 80, "note_on_time": 0.446, "note_off_time": 0.667}, {"pitch": 42, "velocity": 80, "note_on_time": 0.667, "note_off_time": 0.883}, {"pitch": 65, "velocity": 80, "note_on_time": 0.883, "note_off_time": 1.102}, {"pitch": 42, "velocity": 80, "note_on_time": 0.883, "note_off_time": 1.102}, {"pitch": 42, "velocity": 80, "note_on_time": 1.102, "note_off_time": 1.321}, {"pitch": 67, "velocity": 80, "note_on_time": 1.102, "note_off_time": 1.539}, {"pitch": 42, "velocity": 80, "note_on_time": 1.321, "note_off_time": 1.539}, {"pitch": 42, "velocity": 80, "note_on_time": 1.539, "note_off_time": 1.757}, {"pitch": 65, "velocity": 80, "note_on_time": 1.757, "note_off_time": 1.976}, {"pitch": 42, "velocity": 80, "note_on_time": 1.757, "note_off_time": 1.977}, {"pitch": 62, "velocity": 80, "note_on_time": 1.976, "note_off_time": 2.195}, {"pitch": 42, "velocity": 80, "note_on_time": 1.977, "note_off_time": 2.196}, {"pitch": 67, "velocity": 80, "note_on_time": 2.195, "note_off_time": 2.413}, {"pitch": 42, "velocity": 80, "note_on_time": 2.196, "note_off_time": 2.413}, {"pitch": 64, "velocity": 80, "note_on_time": 2.413, "note_off_time": 2.632}, {"pitch": 42, "velocity": 80, "note_on_time": 2.413, "note_off_time": 2.632}, {"pitch": 42, "velocity": 80, "note_on_time": 2.632, "note_off_time": 2.85}, {"pitch": 65, "velocity": 80, "note_on_time": 2.632, "note_off_time": 3.069}, {"pitch": 42, "velocity": 80, "note_on_time": 2.85, "note_off_time": 3.069}, {"pitch": 65, "velocity": 80, "note_on_time": 3.069, "note_off_time": 3.288}, {"pitch": 42, "velocity": 80, "note_on_time": 3.069, "note_off_time": 3.288}, {"pitch": 65, "velocity": 80, "note_on_time": 3.288, "note_off_time": 3.507}, {"pitch": 42, "velocity": 80, "note_on_time": 3.288, "note_off_time": 3.507}, {"pitch": 67, "velocity": 80, "note_on_time": 3.507, "note_off_time": 3.724}, {"pitch": 42, "velocity": 80, "note_on_time": 3.507, "note_off_time": 3.724}, {"pitch": 42, "velocity": 80, "note_on_time": 3.724, "note_off_time": 3.94}, {"pitch": 42, "velocity": 80, "note_on_time": 3.94, "note_off_time": 4.161}, {"pitch": 60, "velocity": 80, "note_on_time": 3.94, "note_off_time": 4.384}, {"pitch": 42, "velocity": 80, "note_on_time": 4.161, "note_off_time": 4.384}, {"pitch": 42, "velocity": 80, "note_on_time": 4.384, "note_off_time": 4.606}, {"pitch": 65, "velocity": 80, "note_on_time": 4.384, "note_off_time": 4.826}, {"pitch": 42, "velocity": 80, "note_on_time": 4.606, "note_off_time": 4.826}, {"pitch": 62, "velocity": 80, "note_on_time": 4.826, "note_off_time": 5.044}, {"pitch": 42, "velocity": 80, "note_on_time": 4.826, "note_off_time": 5.044}, {"pitch": 65, "velocity": 80, "note_on_time": 5.044, "note_off_time": 5.267}, {"pitch": 42, "velocity": 80, "note_on_time": 5.044, "note_off_time": 5.267}, {"pitch": 64, "velocity": 80, "note_on_time": 5.267, "note_off_time": 5.489}, {"pitch": 42, "velocity": 80, "note_on_time": 5.267, "note_off_time": 5.489}, {"pitch": 60, "velocity": 80, "note_on_time": 5.489, "note_off_time": 5.711}, {"pitch": 42, "velocity": 80, "note_on_time": 5.489, "note_off_time": 5.711}, {"pitch": 67, "velocity": 80, "note_on_time": 5.711, "note_off_time": 5.934}, {"pitch": 42, "velocity": 80, "note_on_time": 5.711, "note_off_time": 5.934}, {"pitch": 64, "velocity": 80, "note_on_time": 5.934, "note_off_time": 6.153}, {"pitch": 42, "velocity": 80, "note_on_time": 5.934, "note_off_time": 6.153}, {"pitch": 42, "velocity": 80, "note_on_time": 6.153, "note_off_time": 6.377}, {"pitch": 60, "velocity": 80, "note_on_time": 6.153, "note_off_time": 6.6}, {"pitch": 42, "velocity": 80, "note_on_time": 6.377, "note_off_time": 6.6}, {"pitch": 42, "velocity": 80, "note_on_time": 6.6, "note_off_time": 6.823}, {"pitch": 42, "velocity": 80, "note_on_time": 6.823, "note_off_time": 7.047}, {"pitch": 42, "velocity": 80, "note_on_time": 7.047, "note_off_time": 7.268}, {"pitch": 60, "velocity": 80, "note_on_time": 7.268, "note_off_time": 7.488}, {"pitch": 42, "velocity": 80, "note_on_time": 7.268, "note_off_time": 7.488}, {"pitch": 60, "velocity": 80, "note_on_time": 7.488, "note_off_time": 7.709}, {"pitch": 42, "velocity": 80, "note_on_time": 7.488, "note_off_time": 7.709}, {"pitch": 60, "velocity": 80, "note_on_time": 7.709, "note_off_time": 7.932}, {"pitch": 42, "velocity": 80, "note_on_time": 7.709, "note_off_time": 7.932}]</notes><options name="Option List">((4, 4), [0.5, 0.25], 3, 8, &lt;NoteRangePerHand.C_TO_G: 6&gt;, &lt;NoteRangePerHand.ONE_NOTE: 2&gt;, False, True, False, 281)</options></target_notes><trials><trial trial_no="1" timestamp="2022_11_13-13_06_57"><notes name="Played Notes">[{"pitch": 65, "velocity": 78, "note_on_time": 0.853, "note_off_time": 1.132}, {"pitch": 67, "velocity": 83, "note_on_time": 1.085, "note_off_time": 1.403}, {"pitch": 65, "velocity": 83, "note_on_time": 1.734, "note_off_time": 1.966}, {"pitch": 62, "velocity": 81, "note_on_time": 1.963, "note_off_time": 2.259}, {"pitch": 67, "velocity": 77, "note_on_time": 2.213, "note_off_time": 2.458}, {"pitch": 65, "velocity": 77, "note_on_time": 2.427, "note_off_time": 2.591}, {"pitch": 64, "velocity": 72, "note_on_time": 2.663, "note_off_time": 2.898}, {"pitch": 65, "velocity": 91, "note_on_time": 2.886, "note_off_time": 2.995}, {"pitch": 65, "velocity": 85, "note_on_time": 3.097, "note_off_time": 3.213}, {"pitch": 65, "velocity": 82, "note_on_time": 3.315, "note_off_time": 3.441}, {"pitch": 67, "velocity": 90, "note_on_time": 3.552, "note_off_time": 3.797}, {"pitch": 60, "velocity": 83, "note_on_time": 3.993, "note_off_time": 4.24}, {"pitch": 65, "velocity": 87, "note_on_time": 4.417, "note_off_time": 4.895}, {"pitch": 62, "velocity": 85, "note_on_time": 4.829, "note_off_time": 5.033}, {"pitch": 65, "velocity": 84, "note_on_time": 5.059, "note_off_time": 5.328}, {"pitch": 64, "velocity": 78, "note_on_time": 5.318, "note_off_time": 5.558}, {"pitch": 60, "velocity": 83, "note_on_time": 5.551, "note_off_time": 5.686}, {"pitch": 67, "velocity": 54, "note_on_time": 5.77, "note_off_time": 5.966}, {"pitch": 64, "velocity": 71, "note_on_time": 5.965, "note_off_time": 6.214}, {"pitch": 60, "velocity": 84, "note_on_time": 6.203, "note_off_time": 6.411}, {"pitch": 60, "velocity": 92, "note_on_time": 6.878, "note_off_time": 7.012}, {"pitch": 60, "velocity": 90, "note_on_time": 7.097, "note_off_time": 7.199}, {"pitch": 60, "velocity": 85, "note_on_time": 7.315, "note_off_time": 7.453}]</notes><guidance name="Guidance Mode">None</guidance><error name="Error value">0.27628100000000005</error></trial><trial trial_no="2" timestamp="2022_11_13-13_07_15"><notes name="Played Notes">[{"pitch": 65, "velocity": 86, "note_on_time": 0.905, "note_off_time": 1.305}, {"pitch": 67, "velocity": 92, "note_on_time": 1.348, "note_off_time": 1.67}, {"pitch": 65, "velocity": 88, "note_on_time": 2.028, "note_off_time": 2.277}, {"pitch": 62, "velocity": 77, "note_on_time": 2.253, "note_off_time": 2.497}, {"pitch": 65, "velocity": 78, "note_on_time": 2.467, "note_off_time": 2.746}, {"pitch": 67, "velocity": 79, "note_on_time": 2.698, "note_off_time": 2.859}, {"pitch": 65, "velocity": 64, "note_on_time": 2.857, "note_off_time": 3.115}, {"pitch": 64, "velocity": 68, "note_on_time": 3.088, "note_off_time": 3.31}, {"pitch": 65, "velocity": 92, "note_on_time": 3.309, "note_off_time": 3.424}, {"pitch": 65, "velocity": 88, "note_on_time": 3.531, "note_off_time": 3.651}, {"pitch": 65, "velocity": 87, "note_on_time": 3.747, "note_off_time": 3.93}, {"pitch": 67, "velocity": 87, "note_on_time": 4.232, "note_off_time": 4.41}, {"pitch": 60, "velocity": 60, "note_on_time": 4.663, "note_off_time": 4.858}, {"pitch": 65, "velocity": 91, "note_on_time": 5.066, "note_off_time": 5.383}, {"pitch": 62, "velocity": 85, "note_on_time": 5.496, "note_off_time": 5.789}, {"pitch": 65, "velocity": 94, "note_on_time": 5.913, "note_off_time": 6.276}, {"pitch": 64, "velocity": 85, "note_on_time": 6.318, "note_off_time": 6.548}, {"pitch": 60, "velocity": 77, "note_on_time": 6.544, "note_off_time": 6.779}, {"pitch": 67, "velocity": 77, "note_on_time": 6.77, "note_off_time": 7.017}, {"pitch": 64, "velocity": 77, "note_on_time": 6.986, "note_off_time": 7.234}, {"pitch": 60, "velocity": 88, "note_on_time": 7.22, "note_off_time": 7.424}]</notes><guidance name="Guidance Mode">None</guidance><error name="Error value">0.7747295789473683</error></trial><trial trial_no="3" timestamp="2022_11_13-13_07_34"><notes name="Played Notes">[{"pitch": 65, "velocity": 91, "note_on_time": 0.906, "note_off_time": 1.276}, {"pitch": 67, "velocity": 93, "note_on_time": 1.319, "note_off_time": 1.663}, {"pitch": 65, "velocity": 90, "note_on_time": 2.219, "note_off_time": 2.46}, {"pitch": 62, "velocity": 78, "note_on_time": 2.433, "note_off_time": 2.693}, {"pitch": 65, "velocity": 77, "note_on_time": 2.666, "note_off_time": 2.787}, {"pitch": 67, "velocity": 85, "note_on_time": 2.857, "note_off_time": 3.114}, {"pitch": 65, "velocity": 68, "note_on_time": 3.106, "note_off_time": 3.221}, {"pitch": 64, "velocity": 82, "note_on_time": 3.276, "note_off_time": 3.421}, {"pitch": 65, "velocity": 81, "note_on_time": 3.516, "note_off_time": 3.771}, {"pitch": 65, "velocity": 81, "note_on_time": 3.88, "note_off_time": 3.981}, {"pitch": 65, "velocity": 90, "note_on_time": 4.093, "note_off_time": 4.194}, {"pitch": 67, "velocity": 91, "note_on_time": 4.334, "note_off_time": 4.569}, {"pitch": 62, "velocity": 79, "note_on_time": 4.828, "note_off_time": 4.896}, {"pitch": 60, "velocity": 81, "note_on_time": 4.825, "note_off_time": 5.084}, {"pitch": 64, "velocity": 83, "note_on_time": 5.251, "note_off_time": 5.37}, {"pitch": 65, "velocity": 80, "note_on_time": 5.248, "note_off_time": 5.595}, {"pitch": 62, "velocity": 84, "note_on_time": 5.658, "note_off_time": 5.896}, {"pitch": 65, "velocity": 81, "note_on_time": 5.872, "note_off_time": 6.137}, {"pitch": 64, "velocity": 80, "note_on_time": 6.092, "note_off_time": 6.303}, {"pitch": 60, "velocity": 85, "note_on_time": 6.294, "note_off_time": 6.528}, {"pitch": 67, "velocity": 80, "note_on_time": 6.521, "note_off_time": 6.787}, {"pitch": 64, "velocity": 62, "note_on_time": 6.724, "note_off_time": 6.964}, {"pitch": 60, "velocity": 93, "note_on_time": 6.954, "note_off_time": 7.127}, {"pitch": 60, "velocity": 87, "note_on_time": 7.393, "note_off_time": 7.499}, {"pitch": 60, "velocity": 82, "note_on_time": 7.622, "note_off_time": 7.712}]</notes><guidance name="Guidance Mode">None</guidance><error name="Error value">1.5411805789473687</error></trial></trials></MIDI>