<MIDI midiNo="2022_12_22-12_46_35"><target_notes><notes name="Note List">[{"pitch": 42, "velocity": 80, "note_on_time": 0.004, "note_off_time": 0.227}, {"pitch": 42, "velocity": 80, "note_on_time": 0.227, "note_off_time": 0.444}, {"pitch": 42, "velocity": 80, "note_on_time": 0.444, "note_off_time": 0.661}, {"pitch": 42, "velocity": 80, "note_on_time": 0.661, "note_off_time": 0.878}, {"pitch": 62, "velocity": 80, "note_on_time": 0.878, "note_off_time": 1.096}, {"pitch": 42, "velocity": 80, "note_on_time": 0.878, "note_off_time": 1.096}, {"pitch": 60, "velocity": 80, "note_on_time": 1.096, "note_off_time": 1.313}, {"pitch": 42, "velocity": 80, "note_on_time": 1.096, "note_off_time": 1.313}, {"pitch": 64, "velocity": 80, "note_on_time": 1.313, "note_off_time": 1.531}, {"pitch": 42, "velocity": 80, "note_on_time": 1.313, "note_off_time": 1.531}, {"pitch": 60, "velocity": 80, "note_on_time": 1.531, "note_off_time": 1.748}, {"pitch": 42, "velocity": 80, "note_on_time": 1.532, "note_off_time": 1.748}, {"pitch": 67, "velocity": 80, "note_on_time": 1.748, "note_off_time": 1.965}, {"pitch": 42, "velocity": 80, "note_on_time": 1.748, "note_off_time": 1.965}, {"pitch": 65, "velocity": 80, "note_on_time": 1.965, "note_off_time": 2.183}, {"pitch": 42, "velocity": 80, "note_on_time": 1.965, "note_off_time": 2.183}, {"pitch": 67, "velocity": 80, "note_on_time": 2.183, "note_off_time": 2.399}, {"pitch": 42, "velocity": 80, "note_on_time": 2.183, "note_off_time": 2.4}, {"pitch": 64, "velocity": 80, "note_on_time": 2.399, "note_off_time": 2.617}, {"pitch": 42, "velocity": 80, "note_on_time": 2.4, "note_off_time": 2.617}, {"pitch": 42, "velocity": 80, "note_on_time": 2.617, "note_off_time": 2.836}, {"pitch": 64, "velocity": 80, "note_on_time": 2.617, "note_off_time": 3.055}, {"pitch": 42, "velocity": 80, "note_on_time": 2.836, "note_off_time": 3.055}, {"pitch": 42, "velocity": 80, "note_on_time": 3.055, "note_off_time": 3.271}, {"pitch": 42, "velocity": 80, "note_on_time": 3.271, "note_off_time": 3.49}, {"pitch": 60, "velocity": 80, "note_on_time": 3.49, "note_off_time": 3.708}, {"pitch": 42, "velocity": 80, "note_on_time": 3.49, "note_off_time": 3.708}, {"pitch": 64, "velocity": 80, "note_on_time": 3.708, "note_off_time": 3.926}, {"pitch": 42, "velocity": 80, "note_on_time": 3.708, "note_off_time": 3.926}, {"pitch": 65, "velocity": 80, "note_on_time": 3.926, "note_off_time": 4.145}, {"pitch": 42, "velocity": 80, "note_on_time": 3.926, "note_off_time": 4.145}, {"pitch": 65, "velocity": 80, "note_on_time": 4.145, "note_off_time": 4.362}, {"pitch": 42, "velocity": 80, "note_on_time": 4.145, "note_off_time": 4.362}, {"pitch": 62, "velocity": 80, "note_on_time": 4.362, "note_off_time": 4.579}, {"pitch": 42, "velocity": 80, "note_on_time": 4.362, "note_off_time": 4.579}, {"pitch": 60, "velocity": 80, "note_on_time": 4.579, "note_off_time": 4.798}, {"pitch": 42, "velocity": 80, "note_on_time": 4.579, "note_off_time": 4.798}, {"pitch": 65, "velocity": 80, "note_on_time": 4.798, "note_off_time": 5.014}, {"pitch": 42, "velocity": 80, "note_on_time": 4.798, "note_off_time": 5.014}, {"pitch": 64, "velocity": 80, "note_on_time": 5.014, "note_off_time": 5.231}, {"pitch": 42, "velocity": 80, "note_on_time": 5.014, "note_off_time": 5.231}, {"pitch": 64, "velocity": 80, "note_on_time": 5.231, "note_off_time": 5.448}, {"pitch": 42, "velocity": 80, "note_on_time": 5.231, "note_off_time": 5.448}, {"pitch": 42, "velocity": 80, "note_on_time": 5.448, "note_off_time": 5.668}, {"pitch": 65, "velocity": 80, "note_on_time": 5.448, "note_off_time": 5.887}, {"pitch": 42, "velocity": 80, "note_on_time": 5.668, "note_off_time": 5.887}, {"pitch": 42, "velocity": 80, "note_on_time": 5.887, "note_off_time": 6.105}, {"pitch": 67, "velocity": 80, "note_on_time": 6.105, "note_off_time": 6.324}, {"pitch": 42, "velocity": 80, "note_on_time": 6.105, "note_off_time": 6.324}, {"pitch": 42, "velocity": 80, "note_on_time": 6.324, "note_off_time": 6.543}, {"pitch": 42, "velocity": 80, "note_on_time": 6.543, "note_off_time": 6.76}, {"pitch": 42, "velocity": 80, "note_on_time": 6.76, "note_off_time": 6.98}, {"pitch": 42, "velocity": 80, "note_on_time": 6.98, "note_off_time": 7.2}, {"pitch": 67, "velocity": 80, "note_on_time": 7.2, "note_off_time": 7.417}, {"pitch": 42, "velocity": 80, "note_on_time": 7.2, "note_off_time": 7.417}, {"pitch": 67, "velocity": 80, "note_on_time": 7.417, "note_off_time": 7.634}, {"pitch": 42, "velocity": 80, "note_on_time": 7.417, "note_off_time": 7.634}, {"pitch": 67, "velocity": 80, "note_on_time": 7.634, "note_off_time": 7.853}, {"pitch": 42, "velocity": 80, "note_on_time": 7.635, "note_off_time": 7.853}]</notes><options name="Option List">((4, 4), [0.5, 0.25], 3, 8, &lt;NoteRangePerHand.C_TO_G: 6&gt;, &lt;NoteRangePerHand.ONE_NOTE: 2&gt;, False, True, False, 284)</options></target_notes><trials><trial trial_no="1" timestamp="2022_12_22-12_46_26"><notes name="Played Notes">[{"pitch": 62, "velocity": 57, "note_on_time": 0.892, "note_off_time": 1.11}, {"pitch": 60, "velocity": 73, "note_on_time": 1.12, "note_off_time": 1.349}, {"pitch": 64, "velocity": 68, "note_on_time": 1.345, "note_off_time": 1.55}, {"pitch": 60, "velocity": 60, "note_on_time": 1.552, "note_off_time": 1.743}, {"pitch": 67, "velocity": 65, "note_on_time": 1.767, "note_off_time": 2.002}, {"pitch": 65, "velocity": 77, "note_on_time": 2.003, "note_off_time": 2.177}, {"pitch": 67, "velocity": 46, "note_on_time": 2.209, "note_off_time": 2.434}, {"pitch": 64, "velocity": 56, "note_on_time": 2.417, "note_off_time": 2.778}, {"pitch": 64, "velocity": 67, "note_on_time": 2.919, "note_off_time": 3.255}, {"pitch": 60, "velocity": 75, "note_on_time": 3.726, "note_off_time": 3.946}, {"pitch": 64, "velocity": 69, "note_on_time": 3.941, "note_off_time": 4.122}, {"pitch": 65, "velocity": 57, "note_on_time": 4.147, "note_off_time": 4.225}, {"pitch": 65, "velocity": 70, "note_on_time": 4.349, "note_off_time": 4.545}, {"pitch": 62, "velocity": 57, "note_on_time": 4.553, "note_off_time": 4.763}, {"pitch": 60, "velocity": 73, "note_on_time": 4.784, "note_off_time": 4.955}, {"pitch": 65, "velocity": 71, "note_on_time": 4.978, "note_off_time": 5.214}, {"pitch": 64, "velocity": 57, "note_on_time": 5.211, "note_off_time": 5.447}, {"pitch": 64, "velocity": 66, "note_on_time": 5.641, "note_off_time": 5.86}, {"pitch": 65, "velocity": 78, "note_on_time": 5.877, "note_off_time": 6.072}, {"pitch": 67, "velocity": 65, "note_on_time": 6.317, "note_off_time": 6.568}, {"pitch": 67, "velocity": 74, "note_on_time": 7.163, "note_off_time": 7.271}, {"pitch": 67, "velocity": 58, "note_on_time": 7.374, "note_off_time": 7.487}, {"pitch": 67, "velocity": 67, "note_on_time": 7.604, "note_off_time": 7.735}]</notes><guidance name="Guidance Mode">None</guidance><error name="Error value">0.05757015000000003</error></trial><trial trial_no="2" timestamp="2022_12_22-12_46_52"><notes name="Played Notes">[{"pitch": 62, "velocity": 62, "note_on_time": 0.874, "note_off_time": 1.08}, {"pitch": 60, "velocity": 73, "note_on_time": 1.093, "note_off_time": 1.317}, {"pitch": 64, "velocity": 68, "note_on_time": 1.32, "note_off_time": 1.544}, {"pitch": 60, "velocity": 70, "note_on_time": 1.526, "note_off_time": 1.736}, {"pitch": 67, "velocity": 64, "note_on_time": 1.746, "note_off_time": 1.958}, {"pitch": 65, "velocity": 81, "note_on_time": 1.946, "note_off_time": 2.075}, {"pitch": 67, "velocity": 68, "note_on_time": 2.177, "note_off_time": 2.391}, {"pitch": 64, "velocity": 78, "note_on_time": 2.378, "note_off_time": 2.648}, {"pitch": 64, "velocity": 73, "note_on_time": 2.857, "note_off_time": 3.381}, {"pitch": 60, "velocity": 70, "note_on_time": 3.703, "note_off_time": 3.946}, {"pitch": 64, "velocity": 66, "note_on_time": 3.928, "note_off_time": 4.098}, {"pitch": 65, "velocity": 73, "note_on_time": 4.122, "note_off_time": 4.219}, {"pitch": 65, "velocity": 71, "note_on_time": 4.328, "note_off_time": 4.555}, {"pitch": 62, "velocity": 62, "note_on_time": 4.562, "note_off_time": 4.767}, {"pitch": 60, "velocity": 71, "note_on_time": 4.784, "note_off_time": 4.966}, {"pitch": 65, "velocity": 60, "note_on_time": 4.993, "note_off_time": 5.19}, {"pitch": 64, "velocity": 54, "note_on_time": 5.203, "note_off_time": 5.38}, {"pitch": 64, "velocity": 64, "note_on_time": 5.664, "note_off_time": 5.867}, {"pitch": 65, "velocity": 89, "note_on_time": 5.882, "note_off_time": 6.24}, {"pitch": 67, "velocity": 72, "note_on_time": 6.789, "note_off_time": 7.079}, {"pitch": 67, "velocity": 71, "note_on_time": 7.631, "note_off_time": 7.731}]</notes><guidance name="Guidance Mode">None</guidance><error name="Error value">0.18651989999999993</error></trial><trial trial_no="3" timestamp="2022_12_22-12_47_18"><notes name="Played Notes">[{"pitch": 62, "velocity": 61, "note_on_time": 0.859, "note_off_time": 1.079}, {"pitch": 60, "velocity": 72, "note_on_time": 1.094, "note_off_time": 1.321}, {"pitch": 64, "velocity": 64, "note_on_time": 1.332, "note_off_time": 1.533}, {"pitch": 60, "velocity": 72, "note_on_time": 1.53, "note_off_time": 1.731}, {"pitch": 67, "velocity": 67, "note_on_time": 1.741, "note_off_time": 1.993}, {"pitch": 65, "velocity": 78, "note_on_time": 1.987, "note_off_time": 2.109}, {"pitch": 67, "velocity": 51, "note_on_time": 2.185, "note_off_time": 2.403}, {"pitch": 64, "velocity": 74, "note_on_time": 2.382, "note_off_time": 2.642}, {"pitch": 64, "velocity": 72, "note_on_time": 3.011, "note_off_time": 3.457}, {"pitch": 60, "velocity": 70, "note_on_time": 4.016, "note_off_time": 4.191}, {"pitch": 64, "velocity": 62, "note_on_time": 4.193, "note_off_time": 4.347}, {"pitch": 65, "velocity": 62, "note_on_time": 4.391, "note_off_time": 4.497}, {"pitch": 65, "velocity": 74, "note_on_time": 4.585, "note_off_time": 4.773}, {"pitch": 62, "velocity": 59, "note_on_time": 4.787, "note_off_time": 4.978}, {"pitch": 60, "velocity": 63, "note_on_time": 4.996, "note_off_time": 5.191}, {"pitch": 65, "velocity": 65, "note_on_time": 5.217, "note_off_time": 5.43}, {"pitch": 64, "velocity": 63, "note_on_time": 5.445, "note_off_time": 5.581}, {"pitch": 64, "velocity": 72, "note_on_time": 6.047, "note_off_time": 6.265}, {"pitch": 65, "velocity": 76, "note_on_time": 6.29, "note_off_time": 6.694}, {"pitch": 67, "velocity": 65, "note_on_time": 6.948, "note_off_time": 7.187}]</notes><guidance name="Guidance Mode">None</guidance><error name="Error value">0.34436334999999996</error></trial></trials></MIDI>