<MIDI midiNo="2022_12_22-13_20_33"><target_notes><notes name="Note List">[{"pitch": 42, "velocity": 80, "note_on_time": 0.004, "note_off_time": 0.316}, {"pitch": 42, "velocity": 80, "note_on_time": 0.316, "note_off_time": 0.625}, {"pitch": 42, "velocity": 80, "note_on_time": 0.626, "note_off_time": 0.937}, {"pitch": 42, "velocity": 80, "note_on_time": 0.937, "note_off_time": 1.247}, {"pitch": 64, "velocity": 80, "note_on_time": 1.247, "note_off_time": 1.561}, {"pitch": 42, "velocity": 80, "note_on_time": 1.247, "note_off_time": 1.561}, {"pitch": 64, "velocity": 80, "note_on_time": 1.561, "note_off_time": 1.873}, {"pitch": 42, "velocity": 80, "note_on_time": 1.561, "note_off_time": 1.873}, {"pitch": 60, "velocity": 80, "note_on_time": 1.873, "note_off_time": 2.184}, {"pitch": 42, "velocity": 80, "note_on_time": 1.873, "note_off_time": 2.185}, {"pitch": 64, "velocity": 80, "note_on_time": 2.184, "note_off_time": 2.492}, {"pitch": 42, "velocity": 80, "note_on_time": 2.185, "note_off_time": 2.492}, {"pitch": 64, "velocity": 80, "note_on_time": 2.492, "note_off_time": 2.803}, {"pitch": 42, "velocity": 80, "note_on_time": 2.492, "note_off_time": 2.803}, {"pitch": 62, "velocity": 80, "note_on_time": 2.803, "note_off_time": 3.113}, {"pitch": 42, "velocity": 80, "note_on_time": 2.804, "note_off_time": 3.113}, {"pitch": 64, "velocity": 80, "note_on_time": 3.113, "note_off_time": 3.424}, {"pitch": 42, "velocity": 80, "note_on_time": 3.113, "note_off_time": 3.424}, {"pitch": 62, "velocity": 80, "note_on_time": 3.424, "note_off_time": 3.735}, {"pitch": 42, "velocity": 80, "note_on_time": 3.424, "note_off_time": 3.735}, {"pitch": 60, "velocity": 80, "note_on_time": 3.735, "note_off_time": 4.047}, {"pitch": 42, "velocity": 80, "note_on_time": 3.735, "note_off_time": 4.047}, {"pitch": 42, "velocity": 80, "note_on_time": 4.047, "note_off_time": 4.358}, {"pitch": 42, "velocity": 80, "note_on_time": 4.358, "note_off_time": 4.668}, {"pitch": 60, "velocity": 80, "note_on_time": 4.668, "note_off_time": 4.978}, {"pitch": 42, "velocity": 80, "note_on_time": 4.669, "note_off_time": 4.979}, {"pitch": 42, "velocity": 80, "note_on_time": 4.979, "note_off_time": 5.288}, {"pitch": 62, "velocity": 80, "note_on_time": 4.978, "note_off_time": 5.598}, {"pitch": 42, "velocity": 80, "note_on_time": 5.289, "note_off_time": 5.598}, {"pitch": 42, "velocity": 80, "note_on_time": 5.599, "note_off_time": 5.912}, {"pitch": 42, "velocity": 80, "note_on_time": 5.912, "note_off_time": 6.225}, {"pitch": 60, "velocity": 80, "note_on_time": 6.225, "note_off_time": 6.537}, {"pitch": 42, "velocity": 80, "note_on_time": 6.225, "note_off_time": 6.537}, {"pitch": 60, "velocity": 80, "note_on_time": 6.537, "note_off_time": 6.848}, {"pitch": 42, "velocity": 80, "note_on_time": 6.537, "note_off_time": 6.848}, {"pitch": 62, "velocity": 80, "note_on_time": 6.848, "note_off_time": 7.16}, {"pitch": 42, "velocity": 80, "note_on_time": 6.849, "note_off_time": 7.161}, {"pitch": 64, "velocity": 80, "note_on_time": 7.16, "note_off_time": 7.473}, {"pitch": 42, "velocity": 80, "note_on_time": 7.161, "note_off_time": 7.474}, {"pitch": 62, "velocity": 80, "note_on_time": 7.473, "note_off_time": 7.775}, {"pitch": 42, "velocity": 80, "note_on_time": 7.474, "note_off_time": 7.775}, {"pitch": 64, "velocity": 80, "note_on_time": 7.775, "note_off_time": 8.085}, {"pitch": 42, "velocity": 80, "note_on_time": 7.775, "note_off_time": 8.086}, {"pitch": 64, "velocity": 80, "note_on_time": 8.085, "note_off_time": 8.396}, {"pitch": 42, "velocity": 80, "note_on_time": 8.086, "note_off_time": 8.396}, {"pitch": 60, "velocity": 80, "note_on_time": 8.396, "note_off_time": 8.707}, {"pitch": 42, "velocity": 80, "note_on_time": 8.396, "note_off_time": 8.707}, {"pitch": 60, "velocity": 80, "note_on_time": 8.707, "note_off_time": 9.021}, {"pitch": 42, "velocity": 80, "note_on_time": 8.708, "note_off_time": 9.021}, {"pitch": 62, "velocity": 80, "note_on_time": 9.021, "note_off_time": 9.331}, {"pitch": 42, "velocity": 80, "note_on_time": 9.021, "note_off_time": 9.331}, {"pitch": 60, "velocity": 80, "note_on_time": 9.331, "note_off_time": 9.644}, {"pitch": 42, "velocity": 80, "note_on_time": 9.332, "note_off_time": 9.644}, {"pitch": 64, "velocity": 80, "note_on_time": 9.644, "note_off_time": 9.956}, {"pitch": 42, "velocity": 80, "note_on_time": 9.645, "note_off_time": 9.956}, {"pitch": 42, "velocity": 80, "note_on_time": 9.956, "note_off_time": 10.266}, {"pitch": 64, "velocity": 80, "note_on_time": 10.266, "note_off_time": 10.578}, {"pitch": 42, "velocity": 80, "note_on_time": 10.267, "note_off_time": 10.578}, {"pitch": 64, "velocity": 80, "note_on_time": 10.578, "note_off_time": 10.893}, {"pitch": 42, "velocity": 80, "note_on_time": 10.579, "note_off_time": 10.893}, {"pitch": 64, "velocity": 80, "note_on_time": 10.893, "note_off_time": 11.204}, {"pitch": 42, "velocity": 80, "note_on_time": 10.893, "note_off_time": 11.204}]</notes><options name="Option List">((4, 4), [0.5, 0.25], 3, 8, &lt;NoteRangePerHand.THREE_NOTES: 4&gt;, &lt;NoteRangePerHand.ONE_NOTE: 2&gt;, False, True, False, '200')</options></target_notes><trials><trial trial_no="1" timestamp="2022_12_22-13_20_20"><notes name="Played Notes">[{"pitch": 64, "velocity": 85, "note_on_time": 1.271, "note_off_time": 1.393}, {"pitch": 64, "velocity": 97, "note_on_time": 1.548, "note_off_time": 1.701}, {"pitch": 60, "velocity": 91, "note_on_time": 1.796, "note_off_time": 1.935}, {"pitch": 64, "velocity": 91, "note_on_time": 2.086, "note_off_time": 2.206}, {"pitch": 64, "velocity": 98, "note_on_time": 2.383, "note_off_time": 2.54}, {"pitch": 62, "velocity": 93, "note_on_time": 2.667, "note_off_time": 2.797}, {"pitch": 64, "velocity": 97, "note_on_time": 2.963, "note_off_time": 3.107}, {"pitch": 62, "velocity": 93, "note_on_time": 3.223, "note_off_time": 3.375}, {"pitch": 60, "velocity": 102, "note_on_time": 3.508, "note_off_time": 3.711}, {"pitch": 60, "velocity": 97, "note_on_time": 3.979, "note_off_time": 4.112}, {"pitch": 62, "velocity": 98, "note_on_time": 4.27, "note_off_time": 4.574}, {"pitch": 60, "velocity": 103, "note_on_time": 4.82, "note_off_time": 4.93}, {"pitch": 60, "velocity": 98, "note_on_time": 5.079, "note_off_time": 5.208}, {"pitch": 62, "velocity": 88, "note_on_time": 5.361, "note_off_time": 5.511}, {"pitch": 64, "velocity": 95, "note_on_time": 5.651, "note_off_time": 5.781}, {"pitch": 62, "velocity": 90, "note_on_time": 5.938, "note_off_time": 6.129}, {"pitch": 64, "velocity": 81, "note_on_time": 6.377, "note_off_time": 6.555}, {"pitch": 64, "velocity": 95, "note_on_time": 6.69, "note_off_time": 6.839}, {"pitch": 60, "velocity": 90, "note_on_time": 7.007, "note_off_time": 7.181}, {"pitch": 62, "velocity": 90, "note_on_time": 7.338, "note_off_time": 7.498}, {"pitch": 64, "velocity": 94, "note_on_time": 7.635, "note_off_time": 7.812}, {"pitch": 62, "velocity": 85, "note_on_time": 7.953, "note_off_time": 8.136}, {"pitch": 60, "velocity": 84, "note_on_time": 8.503, "note_off_time": 8.707}, {"pitch": 64, "velocity": 88, "note_on_time": 8.895, "note_off_time": 9.133}, {"pitch": 64, "velocity": 99, "note_on_time": 9.402, "note_off_time": 9.488}, {"pitch": 64, "velocity": 96, "note_on_time": 9.629, "note_off_time": 9.732}, {"pitch": 64, "velocity": 92, "note_on_time": 9.852, "note_off_time": 9.982}]</notes><guidance name="Guidance Mode">None</guidance><error name="Error value">0.44704347826086843</error></trial><trial trial_no="2" timestamp="2022_12_22-13_20_42"><notes name="Played Notes">[{"pitch": 64, "velocity": 88, "note_on_time": 1.313, "note_off_time": 1.453}, {"pitch": 64, "velocity": 94, "note_on_time": 1.629, "note_off_time": 1.806}, {"pitch": 60, "velocity": 91, "note_on_time": 1.929, "note_off_time": 2.08}, {"pitch": 64, "velocity": 95, "note_on_time": 2.25, "note_off_time": 2.399}, {"pitch": 64, "velocity": 98, "note_on_time": 2.571, "note_off_time": 2.733}, {"pitch": 62, "velocity": 89, "note_on_time": 2.878, "note_off_time": 3.019}, {"pitch": 64, "velocity": 98, "note_on_time": 3.194, "note_off_time": 3.352}, {"pitch": 62, "velocity": 93, "note_on_time": 3.487, "note_off_time": 3.648}, {"pitch": 60, "velocity": 101, "note_on_time": 3.776, "note_off_time": 3.994}, {"pitch": 62, "velocity": 70, "note_on_time": 4.459, "note_off_time": 4.667}, {"pitch": 64, "velocity": 93, "note_on_time": 4.92, "note_off_time": 5.207}, {"pitch": 60, "velocity": 94, "note_on_time": 6.199, "note_off_time": 6.358}, {"pitch": 60, "velocity": 89, "note_on_time": 6.514, "note_off_time": 6.679}, {"pitch": 62, "velocity": 87, "note_on_time": 6.83, "note_off_time": 6.992}, {"pitch": 64, "velocity": 90, "note_on_time": 7.133, "note_off_time": 7.291}, {"pitch": 62, "velocity": 93, "note_on_time": 7.45, "note_off_time": 7.62}, {"pitch": 64, "velocity": 86, "note_on_time": 7.753, "note_off_time": 7.893}, {"pitch": 64, "velocity": 92, "note_on_time": 8.065, "note_off_time": 8.241}, {"pitch": 60, "velocity": 89, "note_on_time": 8.37, "note_off_time": 8.547}, {"pitch": 60, "velocity": 93, "note_on_time": 8.736, "note_off_time": 8.884}, {"pitch": 62, "velocity": 90, "note_on_time": 9.078, "note_off_time": 9.236}, {"pitch": 60, "velocity": 95, "note_on_time": 9.373, "note_off_time": 9.55}, {"pitch": 64, "velocity": 91, "note_on_time": 9.725, "note_off_time": 9.892}, {"pitch": 64, "velocity": 94, "note_on_time": 10.283, "note_off_time": 10.391}, {"pitch": 64, "velocity": 94, "note_on_time": 10.539, "note_off_time": 10.63}, {"pitch": 64, "velocity": 99, "note_on_time": 10.782, "note_off_time": 10.903}]</notes><guidance name="Guidance Mode">None</guidance><error name="Error value">0.12760869565217403</error></trial><trial trial_no="3" timestamp="2022_12_22-13_21_03"><notes name="Played Notes">[{"pitch": 64, "velocity": 86, "note_on_time": 1.283, "note_off_time": 1.397}, {"pitch": 64, "velocity": 90, "note_on_time": 1.565, "note_off_time": 1.73}, {"pitch": 60, "velocity": 87, "note_on_time": 1.87, "note_off_time": 2.019}, {"pitch": 64, "velocity": 91, "note_on_time": 2.177, "note_off_time": 2.308}, {"pitch": 64, "velocity": 97, "note_on_time": 2.494, "note_off_time": 2.642}, {"pitch": 62, "velocity": 89, "note_on_time": 2.795, "note_off_time": 2.938}, {"pitch": 64, "velocity": 90, "note_on_time": 3.081, "note_off_time": 3.245}, {"pitch": 62, "velocity": 89, "note_on_time": 3.37, "note_off_time": 3.535}, {"pitch": 60, "velocity": 100, "note_on_time": 3.668, "note_off_time": 3.903}, {"pitch": 60, "velocity": 98, "note_on_time": 4.227, "note_off_time": 4.407}, {"pitch": 62, "velocity": 97, "note_on_time": 4.554, "note_off_time": 5.018}, {"pitch": 60, "velocity": 88, "note_on_time": 5.736, "note_off_time": 5.89}, {"pitch": 60, "velocity": 80, "note_on_time": 6.007, "note_off_time": 6.149}, {"pitch": 62, "velocity": 92, "note_on_time": 6.31, "note_off_time": 6.443}, {"pitch": 64, "velocity": 95, "note_on_time": 6.608, "note_off_time": 6.763}, {"pitch": 62, "velocity": 92, "note_on_time": 6.89, "note_off_time": 7.022}, {"pitch": 64, "velocity": 94, "note_on_time": 7.175, "note_off_time": 7.302}, {"pitch": 64, "velocity": 93, "note_on_time": 7.464, "note_off_time": 7.609}, {"pitch": 60, "velocity": 75, "note_on_time": 7.874, "note_off_time": 8.007}, {"pitch": 60, "velocity": 90, "note_on_time": 8.391, "note_off_time": 8.557}, {"pitch": 62, "velocity": 90, "note_on_time": 8.731, "note_off_time": 8.91}, {"pitch": 60, "velocity": 95, "note_on_time": 9.05, "note_off_time": 9.218}, {"pitch": 64, "velocity": 75, "note_on_time": 9.485, "note_off_time": 9.682}, {"pitch": 64, "velocity": 90, "note_on_time": 10.085, "note_off_time": 10.165}, {"pitch": 64, "velocity": 91, "note_on_time": 10.319, "note_off_time": 10.418}, {"pitch": 64, "velocity": 101, "note_on_time": 10.57, "note_off_time": 10.696}]</notes><guidance name="Guidance Mode">None</guidance><error name="Error value">0.05108695652173892</error></trial></trials></MIDI>