<MIDI midiNo="2022_09_08-12_23_30"><target_notes><notes name="Note List">[{"pitch": 42, "velocity": 80, "note_on_time": 0.004, "note_off_time": 0.407}, {"pitch": 42, "velocity": 80, "note_on_time": 0.408, "note_off_time": 0.813}, {"pitch": 42, "velocity": 80, "note_on_time": 0.813, "note_off_time": 1.22}, {"pitch": 42, "velocity": 80, "note_on_time": 1.22, "note_off_time": 1.626}, {"pitch": 64, "velocity": 80, "note_on_time": 1.625, "note_off_time": 2.031}, {"pitch": 42, "velocity": 80, "note_on_time": 1.626, "note_off_time": 2.031}, {"pitch": 62, "velocity": 80, "note_on_time": 2.031, "note_off_time": 2.436}, {"pitch": 42, "velocity": 80, "note_on_time": 2.031, "note_off_time": 2.437}, {"pitch": 64, "velocity": 80, "note_on_time": 2.436, "note_off_time": 2.838}, {"pitch": 42, "velocity": 80, "note_on_time": 2.437, "note_off_time": 2.839}, {"pitch": 64, "velocity": 80, "note_on_time": 2.838, "note_off_time": 3.246}, {"pitch": 42, "velocity": 80, "note_on_time": 2.839, "note_off_time": 3.246}, {"pitch": 64, "velocity": 80, "note_on_time": 3.246, "note_off_time": 3.651}, {"pitch": 42, "velocity": 80, "note_on_time": 3.246, "note_off_time": 3.651}, {"pitch": 64, "velocity": 80, "note_on_time": 3.651, "note_off_time": 4.054}, {"pitch": 42, "velocity": 80, "note_on_time": 3.652, "note_off_time": 4.054}, {"pitch": 62, "velocity": 80, "note_on_time": 4.054, "note_off_time": 4.459}, {"pitch": 42, "velocity": 80, "note_on_time": 4.054, "note_off_time": 4.459}, {"pitch": 64, "velocity": 80, "note_on_time": 4.459, "note_off_time": 4.862}, {"pitch": 42, "velocity": 80, "note_on_time": 4.459, "note_off_time": 4.862}, {"pitch": 42, "velocity": 80, "note_on_time": 4.862, "note_off_time": 5.264}, {"pitch": 60, "velocity": 80, "note_on_time": 4.862, "note_off_time": 5.667}, {"pitch": 42, "velocity": 80, "note_on_time": 5.264, "note_off_time": 5.667}, {"pitch": 60, "velocity": 80, "note_on_time": 5.667, "note_off_time": 6.07}, {"pitch": 42, "velocity": 80, "note_on_time": 5.667, "note_off_time": 6.07}, {"pitch": 42, "velocity": 80, "note_on_time": 6.07, "note_off_time": 6.474}, {"pitch": 60, "velocity": 80, "note_on_time": 6.474, "note_off_time": 6.881}, {"pitch": 42, "velocity": 80, "note_on_time": 6.474, "note_off_time": 6.881}, {"pitch": 64, "velocity": 80, "note_on_time": 6.881, "note_off_time": 7.285}, {"pitch": 42, "velocity": 80, "note_on_time": 6.881, "note_off_time": 7.285}, {"pitch": 42, "velocity": 80, "note_on_time": 7.286, "note_off_time": 7.688}, {"pitch": 60, "velocity": 80, "note_on_time": 7.687, "note_off_time": 8.091}, {"pitch": 42, "velocity": 80, "note_on_time": 7.688, "note_off_time": 8.091}, {"pitch": 60, "velocity": 80, "note_on_time": 8.091, "note_off_time": 8.494}, {"pitch": 42, "velocity": 80, "note_on_time": 8.091, "note_off_time": 8.495}, {"pitch": 60, "velocity": 80, "note_on_time": 8.494, "note_off_time": 8.899}, {"pitch": 42, "velocity": 80, "note_on_time": 8.495, "note_off_time": 8.899}, {"pitch": 42, "velocity": 80, "note_on_time": 8.899, "note_off_time": 9.301}, {"pitch": 62, "velocity": 80, "note_on_time": 8.899, "note_off_time": 9.707}, {"pitch": 42, "velocity": 80, "note_on_time": 9.301, "note_off_time": 9.707}, {"pitch": 60, "velocity": 80, "note_on_time": 9.707, "note_off_time": 10.111}, {"pitch": 42, "velocity": 80, "note_on_time": 9.707, "note_off_time": 10.111}, {"pitch": 60, "velocity": 80, "note_on_time": 10.111, "note_off_time": 10.515}, {"pitch": 42, "velocity": 80, "note_on_time": 10.111, "note_off_time": 10.515}, {"pitch": 42, "velocity": 80, "note_on_time": 10.515, "note_off_time": 10.92}, {"pitch": 62, "velocity": 80, "note_on_time": 10.92, "note_off_time": 11.325}, {"pitch": 42, "velocity": 80, "note_on_time": 10.921, "note_off_time": 11.325}, {"pitch": 42, "velocity": 80, "note_on_time": 11.325, "note_off_time": 11.731}, {"pitch": 62, "velocity": 80, "note_on_time": 11.325, "note_off_time": 12.134}, {"pitch": 42, "velocity": 80, "note_on_time": 11.732, "note_off_time": 12.134}, {"pitch": 60, "velocity": 80, "note_on_time": 12.134, "note_off_time": 12.54}, {"pitch": 42, "velocity": 80, "note_on_time": 12.134, "note_off_time": 12.54}, {"pitch": 60, "velocity": 80, "note_on_time": 12.54, "note_off_time": 12.945}, {"pitch": 42, "velocity": 80, "note_on_time": 12.541, "note_off_time": 12.945}, {"pitch": 42, "velocity": 80, "note_on_time": 12.945, "note_off_time": 13.351}, {"pitch": 60, "velocity": 80, "note_on_time": 13.351, "note_off_time": 13.755}, {"pitch": 42, "velocity": 80, "note_on_time": 13.351, "note_off_time": 13.755}, {"pitch": 60, "velocity": 80, "note_on_time": 13.755, "note_off_time": 14.158}, {"pitch": 42, "velocity": 80, "note_on_time": 13.755, "note_off_time": 14.158}, {"pitch": 60, "velocity": 80, "note_on_time": 14.158, "note_off_time": 14.561}, {"pitch": 42, "velocity": 80, "note_on_time": 14.158, "note_off_time": 14.562}]</notes><options name="Option List">((4, 4), [0.5, 0.25], 3, 8, &lt;NoteRangePerHand.THREE_NOTES: 4&gt;, &lt;NoteRangePerHand.ONE_NOTE: 2&gt;, False, True, True, '150')</options></target_notes><trials><trial trial_no="1" timestamp="2022_09_08-12_23_13"><notes name="Played Notes">[{"pitch": 64, "velocity": 91, "note_on_time": 1.559, "note_off_time": 1.729}, {"pitch": 62, "velocity": 87, "note_on_time": 1.968, "note_off_time": 2.099}, {"pitch": 64, "velocity": 90, "note_on_time": 2.366, "note_off_time": 2.483}, {"pitch": 64, "velocity": 95, "note_on_time": 2.793, "note_off_time": 2.906}, {"pitch": 64, "velocity": 93, "note_on_time": 3.244, "note_off_time": 3.364}, {"pitch": 62, "velocity": 91, "note_on_time": 3.653, "note_off_time": 3.756}, {"pitch": 64, "velocity": 85, "note_on_time": 4.082, "note_off_time": 4.196}, {"pitch": 60, "velocity": 94, "note_on_time": 4.48, "note_off_time": 4.592}, {"pitch": 60, "velocity": 102, "note_on_time": 4.884, "note_off_time": 5.422}, {"pitch": 60, "velocity": 92, "note_on_time": 6.175, "note_off_time": 6.331}, {"pitch": 64, "velocity": 85, "note_on_time": 6.559, "note_off_time": 6.721}, {"pitch": 60, "velocity": 95, "note_on_time": 7.225, "note_off_time": 7.336}, {"pitch": 60, "velocity": 95, "note_on_time": 7.637, "note_off_time": 7.8}, {"pitch": 60, "velocity": 98, "note_on_time": 8.063, "note_off_time": 8.228}, {"pitch": 60, "velocity": 95, "note_on_time": 8.456, "note_off_time": 8.611}, {"pitch": 60, "velocity": 91, "note_on_time": 9.359, "note_off_time": 9.528}, {"pitch": 60, "velocity": 90, "note_on_time": 9.754, "note_off_time": 9.897}, {"pitch": 62, "velocity": 92, "note_on_time": 10.726, "note_off_time": 10.843}, {"pitch": 62, "velocity": 95, "note_on_time": 11.093, "note_off_time": 11.451}, {"pitch": 60, "velocity": 89, "note_on_time": 11.575, "note_off_time": 11.737}, {"pitch": 60, "velocity": 100, "note_on_time": 11.995, "note_off_time": 12.141}, {"pitch": 60, "velocity": 96, "note_on_time": 12.397, "note_off_time": 12.511}, {"pitch": 60, "velocity": 98, "note_on_time": 12.802, "note_off_time": 12.906}, {"pitch": 60, "velocity": 102, "note_on_time": 13.16, "note_off_time": 13.271}]</notes><guidance name="Guidance Mode">None</guidance><error name="Error value">0.21386363636363653</error></trial><trial trial_no="2" timestamp="2022_09_08-12_23_47"><notes name="Played Notes">[{"pitch": 64, "velocity": 87, "note_on_time": 1.549, "note_off_time": 1.736}, {"pitch": 62, "velocity": 90, "note_on_time": 1.953, "note_off_time": 2.098}, {"pitch": 64, "velocity": 97, "note_on_time": 2.355, "note_off_time": 2.476}, {"pitch": 64, "velocity": 92, "note_on_time": 2.785, "note_off_time": 2.921}, {"pitch": 64, "velocity": 90, "note_on_time": 3.216, "note_off_time": 3.345}, {"pitch": 64, "velocity": 92, "note_on_time": 3.658, "note_off_time": 3.771}, {"pitch": 64, "velocity": 88, "note_on_time": 4.079, "note_off_time": 4.231}, {"pitch": 62, "velocity": 83, "note_on_time": 4.489, "note_off_time": 4.638}, {"pitch": 64, "velocity": 88, "note_on_time": 4.923, "note_off_time": 5.094}, {"pitch": 60, "velocity": 95, "note_on_time": 5.607, "note_off_time": 6.083}, {"pitch": 60, "velocity": 91, "note_on_time": 6.412, "note_off_time": 6.598}, {"pitch": 60, "velocity": 90, "note_on_time": 7.691, "note_off_time": 7.857}, {"pitch": 64, "velocity": 80, "note_on_time": 8.116, "note_off_time": 8.271}, {"pitch": 60, "velocity": 84, "note_on_time": 9.033, "note_off_time": 9.179}, {"pitch": 60, "velocity": 87, "note_on_time": 9.428, "note_off_time": 9.571}, {"pitch": 60, "velocity": 90, "note_on_time": 9.837, "note_off_time": 9.945}, {"pitch": 62, "velocity": 93, "note_on_time": 10.238, "note_off_time": 10.937}, {"pitch": 60, "velocity": 84, "note_on_time": 11.118, "note_off_time": 11.316}, {"pitch": 60, "velocity": 90, "note_on_time": 11.568, "note_off_time": 11.7}, {"pitch": 62, "velocity": 91, "note_on_time": 12.435, "note_off_time": 12.573}, {"pitch": 62, "velocity": 88, "note_on_time": 12.842, "note_off_time": 13.345}, {"pitch": 60, "velocity": 95, "note_on_time": 13.574, "note_off_time": 13.702}, {"pitch": 60, "velocity": 91, "note_on_time": 14.01, "note_off_time": 14.175}]</notes><guidance name="Guidance Mode">None</guidance><error name="Error value">0.6583181818181818</error></trial><trial trial_no="3" timestamp="2022_09_08-12_24_22"><notes name="Played Notes">[{"pitch": 64, "velocity": 90, "note_on_time": 1.619, "note_off_time": 1.76}, {"pitch": 62, "velocity": 89, "note_on_time": 2.017, "note_off_time": 2.141}, {"pitch": 64, "velocity": 91, "note_on_time": 2.421, "note_off_time": 2.519}, {"pitch": 64, "velocity": 94, "note_on_time": 2.847, "note_off_time": 2.985}, {"pitch": 64, "velocity": 91, "note_on_time": 3.273, "note_off_time": 3.401}, {"pitch": 64, "velocity": 94, "note_on_time": 3.695, "note_off_time": 3.824}, {"pitch": 64, "velocity": 91, "note_on_time": 4.115, "note_off_time": 4.26}, {"pitch": 62, "velocity": 79, "note_on_time": 4.54, "note_off_time": 4.687}, {"pitch": 64, "velocity": 83, "note_on_time": 4.927, "note_off_time": 5.089}, {"pitch": 60, "velocity": 87, "note_on_time": 5.337, "note_off_time": 5.45}, {"pitch": 60, "velocity": 92, "note_on_time": 5.749, "note_off_time": 6.42}, {"pitch": 60, "velocity": 86, "note_on_time": 7.328, "note_off_time": 7.46}, {"pitch": 64, "velocity": 79, "note_on_time": 7.733, "note_off_time": 7.912}, {"pitch": 60, "velocity": 84, "note_on_time": 8.925, "note_off_time": 9.065}, {"pitch": 60, "velocity": 84, "note_on_time": 9.32, "note_off_time": 9.438}, {"pitch": 60, "velocity": 82, "note_on_time": 9.725, "note_off_time": 9.841}, {"pitch": 62, "velocity": 86, "note_on_time": 10.128, "note_off_time": 10.838}, {"pitch": 60, "velocity": 90, "note_on_time": 11.064, "note_off_time": 11.217}, {"pitch": 60, "velocity": 97, "note_on_time": 11.477, "note_off_time": 11.624}, {"pitch": 62, "velocity": 91, "note_on_time": 12.462, "note_off_time": 12.591}, {"pitch": 62, "velocity": 94, "note_on_time": 12.877, "note_off_time": 13.557}, {"pitch": 60, "velocity": 94, "note_on_time": 13.777, "note_off_time": 13.931}, {"pitch": 60, "velocity": 94, "note_on_time": 14.216, "note_off_time": 14.358}]</notes><guidance name="Guidance Mode">None</guidance><error name="Error value">0.6799999999999999</error></trial><trial trial_no="4" timestamp="2022_09_08-12_25_07"><notes name="Played Notes">[{"pitch": 64, "velocity": 90, "note_on_time": 1.59, "note_off_time": 1.788}, {"pitch": 62, "velocity": 90, "note_on_time": 1.972, "note_off_time": 2.136}, {"pitch": 64, "velocity": 96, "note_on_time": 2.374, "note_off_time": 2.497}, {"pitch": 64, "velocity": 94, "note_on_time": 2.783, "note_off_time": 2.907}, {"pitch": 64, "velocity": 92, "note_on_time": 3.196, "note_off_time": 3.329}, {"pitch": 64, "velocity": 88, "note_on_time": 3.628, "note_off_time": 3.8}, {"pitch": 62, "velocity": 90, "note_on_time": 4.027, "note_off_time": 4.192}, {"pitch": 64, "velocity": 92, "note_on_time": 4.451, "note_off_time": 4.584}, {"pitch": 60, "velocity": 100, "note_on_time": 4.848, "note_off_time": 5.371}, {"pitch": 60, "velocity": 100, "note_on_time": 5.655, "note_off_time": 5.884}, {"pitch": 60, "velocity": 94, "note_on_time": 6.809, "note_off_time": 6.956}, {"pitch": 64, "velocity": 83, "note_on_time": 7.248, "note_off_time": 7.413}, {"pitch": 60, "velocity": 94, "note_on_time": 8.456, "note_off_time": 8.584}, {"pitch": 60, "velocity": 95, "note_on_time": 8.877, "note_off_time": 8.976}, {"pitch": 60, "velocity": 96, "note_on_time": 9.284, "note_off_time": 9.41}, {"pitch": 62, "velocity": 97, "note_on_time": 9.699, "note_off_time": 10.288}, {"pitch": 60, "velocity": 97, "note_on_time": 10.662, "note_off_time": 10.812}, {"pitch": 60, "velocity": 94, "note_on_time": 11.098, "note_off_time": 11.243}, {"pitch": 62, "velocity": 94, "note_on_time": 11.866, "note_off_time": 11.999}, {"pitch": 62, "velocity": 93, "note_on_time": 12.267, "note_off_time": 12.791}, {"pitch": 60, "velocity": 90, "note_on_time": 13.084, "note_off_time": 13.209}, {"pitch": 60, "velocity": 95, "note_on_time": 13.518, "note_off_time": 13.646}, {"pitch": 60, "velocity": 88, "note_on_time": 14.198, "note_off_time": 14.338}]</notes><guidance name="Guidance Mode">None</guidance><error name="Error value">0.18345454545454543</error></trial><trial trial_no="5" timestamp="2022_09_08-12_25_50"><notes name="Played Notes">[{"pitch": 64, "velocity": 74, "note_on_time": 1.659, "note_off_time": 1.824}, {"pitch": 62, "velocity": 83, "note_on_time": 2.037, "note_off_time": 2.208}, {"pitch": 64, "velocity": 92, "note_on_time": 2.421, "note_off_time": 2.548}, {"pitch": 64, "velocity": 89, "note_on_time": 2.835, "note_off_time": 2.977}, {"pitch": 64, "velocity": 88, "note_on_time": 3.229, "note_off_time": 3.352}, {"pitch": 64, "velocity": 93, "note_on_time": 3.656, "note_off_time": 3.823}, {"pitch": 62, "velocity": 88, "note_on_time": 4.076, "note_off_time": 4.215}, {"pitch": 64, "velocity": 86, "note_on_time": 4.479, "note_off_time": 4.622}, {"pitch": 60, "velocity": 94, "note_on_time": 4.925, "note_off_time": 5.477}, {"pitch": 60, "velocity": 98, "note_on_time": 5.71, "note_off_time": 5.882}, {"pitch": 60, "velocity": 92, "note_on_time": 6.61, "note_off_time": 6.73}, {"pitch": 64, "velocity": 88, "note_on_time": 6.989, "note_off_time": 7.2}, {"pitch": 60, "velocity": 94, "note_on_time": 7.996, "note_off_time": 8.171}, {"pitch": 60, "velocity": 95, "note_on_time": 8.376, "note_off_time": 8.508}, {"pitch": 60, "velocity": 90, "note_on_time": 8.793, "note_off_time": 8.899}, {"pitch": 62, "velocity": 95, "note_on_time": 9.201, "note_off_time": 9.83}, {"pitch": 60, "velocity": 94, "note_on_time": 10.074, "note_off_time": 10.225}, {"pitch": 60, "velocity": 90, "note_on_time": 10.493, "note_off_time": 10.641}, {"pitch": 62, "velocity": 91, "note_on_time": 10.917, "note_off_time": 11.062}, {"pitch": 62, "velocity": 94, "note_on_time": 11.336, "note_off_time": 11.813}, {"pitch": 60, "velocity": 94, "note_on_time": 12.016, "note_off_time": 12.152}, {"pitch": 60, "velocity": 91, "note_on_time": 12.447, "note_off_time": 12.556}, {"pitch": 60, "velocity": 95, "note_on_time": 12.9, "note_off_time": 13.031}, {"pitch": 60, "velocity": 98, "note_on_time": 13.305, "note_off_time": 13.436}, {"pitch": 60, "velocity": 94, "note_on_time": 13.718, "note_off_time": 13.834}]</notes><guidance name="Guidance Mode">None</guidance><error name="Error value">0.07022727272727272</error></trial><trial trial_no="6" timestamp="2022_09_08-12_27_18"><notes name="Played Notes">[{"pitch": 64, "velocity": 64, "note_on_time": 1.218, "note_off_time": 1.399}, {"pitch": 62, "velocity": 93, "note_on_time": 1.633, "note_off_time": 1.792}, {"pitch": 64, "velocity": 94, "note_on_time": 2.02, "note_off_time": 2.155}, {"pitch": 64, "velocity": 90, "note_on_time": 2.442, "note_off_time": 2.566}, {"pitch": 64, "velocity": 85, "note_on_time": 2.857, "note_off_time": 2.986}, {"pitch": 64, "velocity": 80, "note_on_time": 3.29, "note_off_time": 3.469}, {"pitch": 62, "velocity": 74, "note_on_time": 3.69, "note_off_time": 3.822}, {"pitch": 64, "velocity": 83, "note_on_time": 4.177, "note_off_time": 4.29}, {"pitch": 60, "velocity": 85, "note_on_time": 5.054, "note_off_time": 5.249}, {"pitch": 60, "velocity": 85, "note_on_time": 5.442, "note_off_time": 6.123}, {"pitch": 60, "velocity": 85, "note_on_time": 6.88, "note_off_time": 7.017}, {"pitch": 64, "velocity": 78, "note_on_time": 7.336, "note_off_time": 7.527}, {"pitch": 60, "velocity": 88, "note_on_time": 7.751, "note_off_time": 7.902}, {"pitch": 60, "velocity": 88, "note_on_time": 8.193, "note_off_time": 8.323}, {"pitch": 60, "velocity": 85, "note_on_time": 8.585, "note_off_time": 8.706}, {"pitch": 60, "velocity": 94, "note_on_time": 8.996, "note_off_time": 9.128}, {"pitch": 62, "velocity": 94, "note_on_time": 9.398, "note_off_time": 10.131}, {"pitch": 60, "velocity": 92, "note_on_time": 10.333, "note_off_time": 10.485}, {"pitch": 60, "velocity": 94, "note_on_time": 10.754, "note_off_time": 10.974}, {"pitch": 62, "velocity": 87, "note_on_time": 11.338, "note_off_time": 11.481}, {"pitch": 62, "velocity": 88, "note_on_time": 11.79, "note_off_time": 12.472}, {"pitch": 60, "velocity": 94, "note_on_time": 12.958, "note_off_time": 13.12}, {"pitch": 60, "velocity": 98, "note_on_time": 13.394, "note_off_time": 13.526}, {"pitch": 60, "velocity": 94, "note_on_time": 13.799, "note_off_time": 13.918}, {"pitch": 60, "velocity": 98, "note_on_time": 14.194, "note_off_time": 14.315}]</notes><guidance name="Guidance Mode">None</guidance><error name="Error value">0.4181818181818182</error></trial></trials></MIDI>