<MIDI midiNo="2022_12_22-13_53_06"><target_notes><notes name="Note List">[{"pitch": 42, "velocity": 80, "note_on_time": 0.004, "note_off_time": 0.289}, {"pitch": 42, "velocity": 80, "note_on_time": 0.289, "note_off_time": 0.572}, {"pitch": 42, "velocity": 80, "note_on_time": 0.572, "note_off_time": 0.866}, {"pitch": 42, "velocity": 80, "note_on_time": 0.867, "note_off_time": 1.161}, {"pitch": 64, "velocity": 80, "note_on_time": 1.161, "note_off_time": 1.457}, {"pitch": 42, "velocity": 80, "note_on_time": 1.161, "note_off_time": 1.457}, {"pitch": 60, "velocity": 80, "note_on_time": 1.457, "note_off_time": 1.738}, {"pitch": 42, "velocity": 80, "note_on_time": 1.457, "note_off_time": 1.738}, {"pitch": 60, "velocity": 80, "note_on_time": 1.738, "note_off_time": 2.034}, {"pitch": 42, "velocity": 80, "note_on_time": 1.739, "note_off_time": 2.034}, {"pitch": 62, "velocity": 80, "note_on_time": 2.034, "note_off_time": 2.328}, {"pitch": 42, "velocity": 80, "note_on_time": 2.035, "note_off_time": 2.328}, {"pitch": 42, "velocity": 80, "note_on_time": 2.328, "note_off_time": 2.627}, {"pitch": 62, "velocity": 80, "note_on_time": 2.328, "note_off_time": 2.918}, {"pitch": 42, "velocity": 80, "note_on_time": 2.627, "note_off_time": 2.918}, {"pitch": 42, "velocity": 80, "note_on_time": 2.918, "note_off_time": 3.214}, {"pitch": 60, "velocity": 80, "note_on_time": 2.918, "note_off_time": 3.498}, {"pitch": 42, "velocity": 80, "note_on_time": 3.215, "note_off_time": 3.498}, {"pitch": 60, "velocity": 80, "note_on_time": 3.498, "note_off_time": 3.781}, {"pitch": 42, "velocity": 80, "note_on_time": 3.498, "note_off_time": 3.781}, {"pitch": 60, "velocity": 80, "note_on_time": 3.781, "note_off_time": 4.062}, {"pitch": 42, "velocity": 80, "note_on_time": 3.781, "note_off_time": 4.062}, {"pitch": 62, "velocity": 80, "note_on_time": 4.062, "note_off_time": 4.358}, {"pitch": 42, "velocity": 80, "note_on_time": 4.063, "note_off_time": 4.359}, {"pitch": 64, "velocity": 80, "note_on_time": 4.358, "note_off_time": 4.654}, {"pitch": 42, "velocity": 80, "note_on_time": 4.359, "note_off_time": 4.655}, {"pitch": 42, "velocity": 80, "note_on_time": 4.655, "note_off_time": 4.936}, {"pitch": 60, "velocity": 80, "note_on_time": 4.654, "note_off_time": 5.229}, {"pitch": 42, "velocity": 80, "note_on_time": 4.936, "note_off_time": 5.229}, {"pitch": 42, "velocity": 80, "note_on_time": 5.229, "note_off_time": 5.512}, {"pitch": 64, "velocity": 80, "note_on_time": 5.512, "note_off_time": 5.807}, {"pitch": 42, "velocity": 80, "note_on_time": 5.512, "note_off_time": 5.807}, {"pitch": 42, "velocity": 80, "note_on_time": 5.807, "note_off_time": 6.102}, {"pitch": 60, "velocity": 80, "note_on_time": 5.807, "note_off_time": 6.397}, {"pitch": 42, "velocity": 80, "note_on_time": 6.102, "note_off_time": 6.397}, {"pitch": 42, "velocity": 80, "note_on_time": 6.397, "note_off_time": 6.677}, {"pitch": 42, "velocity": 80, "note_on_time": 6.678, "note_off_time": 6.96}, {"pitch": 62, "velocity": 80, "note_on_time": 6.959, "note_off_time": 7.24}, {"pitch": 42, "velocity": 80, "note_on_time": 6.96, "note_off_time": 7.241}, {"pitch": 42, "velocity": 80, "note_on_time": 7.241, "note_off_time": 7.522}, {"pitch": 62, "velocity": 80, "note_on_time": 7.24, "note_off_time": 7.818}, {"pitch": 42, "velocity": 80, "note_on_time": 7.523, "note_off_time": 7.818}, {"pitch": 62, "velocity": 80, "note_on_time": 7.818, "note_off_time": 8.112}, {"pitch": 42, "velocity": 80, "note_on_time": 7.818, "note_off_time": 8.113}, {"pitch": 62, "velocity": 80, "note_on_time": 8.112, "note_off_time": 8.393}, {"pitch": 42, "velocity": 80, "note_on_time": 8.113, "note_off_time": 8.393}, {"pitch": 60, "velocity": 80, "note_on_time": 8.393, "note_off_time": 8.687}, {"pitch": 42, "velocity": 80, "note_on_time": 8.393, "note_off_time": 8.687}, {"pitch": 64, "velocity": 80, "note_on_time": 8.687, "note_off_time": 8.969}, {"pitch": 42, "velocity": 80, "note_on_time": 8.687, "note_off_time": 8.969}, {"pitch": 42, "velocity": 80, "note_on_time": 8.97, "note_off_time": 9.265}, {"pitch": 42, "velocity": 80, "note_on_time": 9.265, "note_off_time": 9.558}, {"pitch": 64, "velocity": 80, "note_on_time": 9.558, "note_off_time": 9.852}, {"pitch": 42, "velocity": 80, "note_on_time": 9.558, "note_off_time": 9.852}, {"pitch": 64, "velocity": 80, "note_on_time": 9.852, "note_off_time": 10.136}, {"pitch": 42, "velocity": 80, "note_on_time": 9.852, "note_off_time": 10.136}, {"pitch": 64, "velocity": 80, "note_on_time": 10.136, "note_off_time": 10.417}, {"pitch": 42, "velocity": 80, "note_on_time": 10.136, "note_off_time": 10.417}]</notes><options name="Option List">((4, 4), [0.5, 0.25], 3, 8, &lt;NoteRangePerHand.THREE_NOTES: 4&gt;, &lt;NoteRangePerHand.ONE_NOTE: 2&gt;, False, True, False, 215)</options></target_notes><trials><trial trial_no="1" timestamp="2022_12_22-13_52_54"><notes name="Played Notes">[{"pitch": 64, "velocity": 82, "note_on_time": 1.205, "note_off_time": 1.377}, {"pitch": 60, "velocity": 88, "note_on_time": 1.499, "note_off_time": 1.629}, {"pitch": 60, "velocity": 89, "note_on_time": 1.787, "note_off_time": 1.893}, {"pitch": 62, "velocity": 94, "note_on_time": 2.11, "note_off_time": 2.251}, {"pitch": 62, "velocity": 94, "note_on_time": 2.512, "note_off_time": 3.063}, {"pitch": 60, "velocity": 96, "note_on_time": 3.217, "note_off_time": 3.678}, {"pitch": 60, "velocity": 96, "note_on_time": 3.85, "note_off_time": 3.952}, {"pitch": 60, "velocity": 94, "note_on_time": 4.132, "note_off_time": 4.275}, {"pitch": 62, "velocity": 91, "note_on_time": 4.451, "note_off_time": 4.576}, {"pitch": 64, "velocity": 91, "note_on_time": 4.739, "note_off_time": 4.882}, {"pitch": 60, "velocity": 104, "note_on_time": 5.055, "note_off_time": 5.552}, {"pitch": 64, "velocity": 96, "note_on_time": 5.875, "note_off_time": 6.042}, {"pitch": 60, "velocity": 102, "note_on_time": 6.18, "note_off_time": 6.819}, {"pitch": 62, "velocity": 90, "note_on_time": 6.997, "note_off_time": 7.122}, {"pitch": 62, "velocity": 98, "note_on_time": 7.279, "note_off_time": 7.82}, {"pitch": 62, "velocity": 89, "note_on_time": 8.005, "note_off_time": 8.13}, {"pitch": 62, "velocity": 90, "note_on_time": 8.289, "note_off_time": 8.448}, {"pitch": 60, "velocity": 89, "note_on_time": 8.559, "note_off_time": 8.739}, {"pitch": 64, "velocity": 94, "note_on_time": 8.864, "note_off_time": 9.039}, {"pitch": 64, "velocity": 100, "note_on_time": 9.422, "note_off_time": 9.525}, {"pitch": 64, "velocity": 98, "note_on_time": 9.703, "note_off_time": 9.79}, {"pitch": 64, "velocity": 101, "note_on_time": 9.992, "note_off_time": 10.066}]</notes><guidance name="Guidance Mode">None</guidance><error name="Error value">0.07080942105263169</error></trial><trial trial_no="2" timestamp="2022_12_22-13_53_17"><notes name="Played Notes">[{"pitch": 64, "velocity": 89, "note_on_time": 1.245, "note_off_time": 1.419}, {"pitch": 60, "velocity": 94, "note_on_time": 1.714, "note_off_time": 1.88}, {"pitch": 60, "velocity": 90, "note_on_time": 2.04, "note_off_time": 2.242}, {"pitch": 62, "velocity": 91, "note_on_time": 2.39, "note_off_time": 2.515}, {"pitch": 62, "velocity": 96, "note_on_time": 2.724, "note_off_time": 3.231}, {"pitch": 60, "velocity": 87, "note_on_time": 3.502, "note_off_time": 3.995}, {"pitch": 62, "velocity": 95, "note_on_time": 4.183, "note_off_time": 4.376}, {"pitch": 60, "velocity": 92, "note_on_time": 4.535, "note_off_time": 4.663}, {"pitch": 60, "velocity": 95, "note_on_time": 4.756, "note_off_time": 4.906}, {"pitch": 64, "velocity": 76, "note_on_time": 5.071, "note_off_time": 5.146}, {"pitch": 60, "velocity": 23, "note_on_time": 5.113, "note_off_time": 5.165}, {"pitch": 60, "velocity": 92, "note_on_time": 5.932, "note_off_time": 6.451}, {"pitch": 64, "velocity": 83, "note_on_time": 6.757, "note_off_time": 6.97}, {"pitch": 60, "velocity": 94, "note_on_time": 7.123, "note_off_time": 7.715}, {"pitch": 62, "velocity": 83, "note_on_time": 8.075, "note_off_time": 8.251}, {"pitch": 62, "velocity": 89, "note_on_time": 8.417, "note_off_time": 8.955}, {"pitch": 62, "velocity": 87, "note_on_time": 9.159, "note_off_time": 9.288}, {"pitch": 62, "velocity": 85, "note_on_time": 9.456, "note_off_time": 9.629}, {"pitch": 60, "velocity": 84, "note_on_time": 9.736, "note_off_time": 9.899}]</notes><guidance name="Guidance Mode">None</guidance><error name="Error value">0.7290344736842106</error></trial><trial trial_no="3" timestamp="2022_12_22-13_53_41"><notes name="Played Notes">[{"pitch": 64, "velocity": 84, "note_on_time": 1.203, "note_off_time": 1.364}, {"pitch": 60, "velocity": 93, "note_on_time": 1.484, "note_off_time": 1.622}, {"pitch": 60, "velocity": 91, "note_on_time": 1.776, "note_off_time": 1.949}, {"pitch": 62, "velocity": 86, "note_on_time": 2.073, "note_off_time": 2.196}, {"pitch": 62, "velocity": 96, "note_on_time": 2.369, "note_off_time": 2.945}, {"pitch": 60, "velocity": 95, "note_on_time": 3.022, "note_off_time": 3.463}, {"pitch": 60, "velocity": 100, "note_on_time": 3.653, "note_off_time": 4.109}, {"pitch": 60, "velocity": 85, "note_on_time": 4.255, "note_off_time": 4.443}, {"pitch": 62, "velocity": 92, "note_on_time": 4.73, "note_off_time": 4.906}, {"pitch": 64, "velocity": 90, "note_on_time": 5.032, "note_off_time": 5.23}, {"pitch": 60, "velocity": 90, "note_on_time": 5.343, "note_off_time": 6.005}, {"pitch": 64, "velocity": 92, "note_on_time": 6.303, "note_off_time": 6.466}, {"pitch": 64, "velocity": 100, "note_on_time": 6.755, "note_off_time": 6.96}, {"pitch": 60, "velocity": 80, "note_on_time": 6.948, "note_off_time": 7.565}, {"pitch": 62, "velocity": 87, "note_on_time": 7.833, "note_off_time": 7.98}, {"pitch": 62, "velocity": 86, "note_on_time": 8.154, "note_off_time": 8.732}, {"pitch": 62, "velocity": 87, "note_on_time": 8.881, "note_off_time": 8.997}, {"pitch": 62, "velocity": 88, "note_on_time": 9.172, "note_off_time": 9.333}, {"pitch": 60, "velocity": 90, "note_on_time": 9.454, "note_off_time": 9.605}, {"pitch": 64, "velocity": 92, "note_on_time": 9.767, "note_off_time": 10.152}, {"pitch": 64, "velocity": 93, "note_on_time": 10.326, "note_off_time": 10.416}]</notes><guidance name="Guidance Mode">None</guidance><error name="Error value">0.4871524210526315</error></trial></trials></MIDI>