<MIDI midiNo="2022_09_12-12_25_18"><target_notes><notes name="Note List">[{"pitch": 42, "velocity": 80, "note_on_time": 0.004, "note_off_time": 0.296}, {"pitch": 42, "velocity": 80, "note_on_time": 0.296, "note_off_time": 0.59}, {"pitch": 42, "velocity": 80, "note_on_time": 0.591, "note_off_time": 0.886}, {"pitch": 42, "velocity": 80, "note_on_time": 0.886, "note_off_time": 1.18}, {"pitch": 42, "velocity": 80, "note_on_time": 1.181, "note_off_time": 1.476}, {"pitch": 60, "velocity": 80, "note_on_time": 1.18, "note_off_time": 1.772}, {"pitch": 42, "velocity": 80, "note_on_time": 1.476, "note_off_time": 1.772}, {"pitch": 42, "velocity": 80, "note_on_time": 1.773, "note_off_time": 2.068}, {"pitch": 42, "velocity": 80, "note_on_time": 2.068, "note_off_time": 2.35}, {"pitch": 60, "velocity": 80, "note_on_time": 2.35, "note_off_time": 2.646}, {"pitch": 42, "velocity": 80, "note_on_time": 2.351, "note_off_time": 2.646}, {"pitch": 64, "velocity": 80, "note_on_time": 2.646, "note_off_time": 2.94}, {"pitch": 42, "velocity": 80, "note_on_time": 2.646, "note_off_time": 2.941}, {"pitch": 64, "velocity": 80, "note_on_time": 2.94, "note_off_time": 3.236}, {"pitch": 42, "velocity": 80, "note_on_time": 2.941, "note_off_time": 3.236}, {"pitch": 62, "velocity": 80, "note_on_time": 3.236, "note_off_time": 3.531}, {"pitch": 42, "velocity": 80, "note_on_time": 3.236, "note_off_time": 3.531}, {"pitch": 62, "velocity": 80, "note_on_time": 3.531, "note_off_time": 3.827}, {"pitch": 42, "velocity": 80, "note_on_time": 3.532, "note_off_time": 3.827}, {"pitch": 62, "velocity": 80, "note_on_time": 3.827, "note_off_time": 4.123}, {"pitch": 42, "velocity": 80, "note_on_time": 3.828, "note_off_time": 4.123}, {"pitch": 60, "velocity": 80, "note_on_time": 4.123, "note_off_time": 4.417}, {"pitch": 42, "velocity": 80, "note_on_time": 4.123, "note_off_time": 4.418}, {"pitch": 60, "velocity": 80, "note_on_time": 4.417, "note_off_time": 4.712}, {"pitch": 42, "velocity": 80, "note_on_time": 4.418, "note_off_time": 4.712}, {"pitch": 60, "velocity": 80, "note_on_time": 4.712, "note_off_time": 4.993}, {"pitch": 42, "velocity": 80, "note_on_time": 4.713, "note_off_time": 4.993}, {"pitch": 62, "velocity": 80, "note_on_time": 4.993, "note_off_time": 5.275}, {"pitch": 42, "velocity": 80, "note_on_time": 4.993, "note_off_time": 5.275}, {"pitch": 62, "velocity": 80, "note_on_time": 5.275, "note_off_time": 5.567}, {"pitch": 42, "velocity": 80, "note_on_time": 5.276, "note_off_time": 5.567}, {"pitch": 42, "velocity": 80, "note_on_time": 5.568, "note_off_time": 5.862}, {"pitch": 42, "velocity": 80, "note_on_time": 5.863, "note_off_time": 6.158}, {"pitch": 64, "velocity": 80, "note_on_time": 5.862, "note_off_time": 6.454}, {"pitch": 42, "velocity": 80, "note_on_time": 6.159, "note_off_time": 6.454}, {"pitch": 42, "velocity": 80, "note_on_time": 6.454, "note_off_time": 6.75}, {"pitch": 42, "velocity": 80, "note_on_time": 6.75, "note_off_time": 7.044}, {"pitch": 62, "velocity": 80, "note_on_time": 7.044, "note_off_time": 7.34}, {"pitch": 42, "velocity": 80, "note_on_time": 7.045, "note_off_time": 7.34}, {"pitch": 62, "velocity": 80, "note_on_time": 7.34, "note_off_time": 7.636}, {"pitch": 42, "velocity": 80, "note_on_time": 7.341, "note_off_time": 7.636}, {"pitch": 62, "velocity": 80, "note_on_time": 7.636, "note_off_time": 7.931}, {"pitch": 42, "velocity": 80, "note_on_time": 7.637, "note_off_time": 7.932}, {"pitch": 62, "velocity": 80, "note_on_time": 7.931, "note_off_time": 8.227}, {"pitch": 42, "velocity": 80, "note_on_time": 7.932, "note_off_time": 8.227}, {"pitch": 62, "velocity": 80, "note_on_time": 8.227, "note_off_time": 8.523}, {"pitch": 42, "velocity": 80, "note_on_time": 8.228, "note_off_time": 8.523}, {"pitch": 64, "velocity": 80, "note_on_time": 8.523, "note_off_time": 8.805}, {"pitch": 42, "velocity": 80, "note_on_time": 8.524, "note_off_time": 8.805}, {"pitch": 60, "velocity": 80, "note_on_time": 8.805, "note_off_time": 9.101}, {"pitch": 42, "velocity": 80, "note_on_time": 8.806, "note_off_time": 9.101}, {"pitch": 60, "velocity": 80, "note_on_time": 9.101, "note_off_time": 9.395}, {"pitch": 42, "velocity": 80, "note_on_time": 9.101, "note_off_time": 9.395}, {"pitch": 42, "velocity": 80, "note_on_time": 9.396, "note_off_time": 9.688}, {"pitch": 60, "velocity": 80, "note_on_time": 9.688, "note_off_time": 9.969}, {"pitch": 42, "velocity": 80, "note_on_time": 9.689, "note_off_time": 9.969}, {"pitch": 60, "velocity": 80, "note_on_time": 9.969, "note_off_time": 10.265}, {"pitch": 42, "velocity": 80, "note_on_time": 9.969, "note_off_time": 10.265}, {"pitch": 60, "velocity": 80, "note_on_time": 10.265, "note_off_time": 10.56}, {"pitch": 42, "velocity": 80, "note_on_time": 10.265, "note_off_time": 10.56}]</notes><options name="Option List">((4, 4), [0.5, 0.25], 3, 8, &lt;NoteRangePerHand.THREE_NOTES: 4&gt;, &lt;NoteRangePerHand.ONE_NOTE: 2&gt;, False, True, True, 215)</options></target_notes><trials><trial trial_no="1" timestamp="2022_09_12-12_25_06"><notes name="Played Notes">[{"pitch": 60, "velocity": 89, "note_on_time": 0.972, "note_off_time": 1.347}, {"pitch": 60, "velocity": 95, "note_on_time": 2.138, "note_off_time": 2.261}, {"pitch": 64, "velocity": 85, "note_on_time": 2.399, "note_off_time": 2.527}, {"pitch": 64, "velocity": 83, "note_on_time": 2.658, "note_off_time": 2.787}, {"pitch": 62, "velocity": 85, "note_on_time": 2.892, "note_off_time": 3.021}, {"pitch": 62, "velocity": 88, "note_on_time": 3.277, "note_off_time": 3.371}, {"pitch": 62, "velocity": 95, "note_on_time": 3.566, "note_off_time": 3.695}, {"pitch": 60, "velocity": 91, "note_on_time": 3.963, "note_off_time": 4.082}, {"pitch": 60, "velocity": 100, "note_on_time": 4.219, "note_off_time": 4.338}, {"pitch": 60, "velocity": 98, "note_on_time": 4.493, "note_off_time": 4.653}, {"pitch": 62, "velocity": 81, "note_on_time": 4.99, "note_off_time": 5.078}, {"pitch": 62, "velocity": 94, "note_on_time": 5.251, "note_off_time": 5.379}, {"pitch": 64, "velocity": 90, "note_on_time": 6.009, "note_off_time": 6.324}, {"pitch": 62, "velocity": 90, "note_on_time": 7.032, "note_off_time": 7.118}, {"pitch": 62, "velocity": 89, "note_on_time": 7.289, "note_off_time": 7.399}, {"pitch": 62, "velocity": 90, "note_on_time": 7.581, "note_off_time": 7.693}, {"pitch": 62, "velocity": 87, "note_on_time": 7.858, "note_off_time": 7.984}, {"pitch": 62, "velocity": 88, "note_on_time": 8.172, "note_off_time": 8.303}, {"pitch": 64, "velocity": 87, "note_on_time": 8.482, "note_off_time": 8.625}, {"pitch": 60, "velocity": 92, "note_on_time": 8.773, "note_off_time": 8.911}, {"pitch": 60, "velocity": 95, "note_on_time": 9.062, "note_off_time": 9.217}, {"pitch": 60, "velocity": 94, "note_on_time": 9.692, "note_off_time": 9.803}, {"pitch": 60, "velocity": 94, "note_on_time": 9.962, "note_off_time": 10.072}, {"pitch": 60, "velocity": 102, "note_on_time": 10.216, "note_off_time": 10.344}]</notes><guidance name="Guidance Mode">None</guidance><error name="Error value">0.054990142857142994</error></trial><trial trial_no="2" timestamp="2022_09_12-12_25_28"><notes name="Played Notes">[{"pitch": 60, "velocity": 96, "note_on_time": 1.163, "note_off_time": 1.529}, {"pitch": 60, "velocity": 89, "note_on_time": 2.163, "note_off_time": 2.322}, {"pitch": 64, "velocity": 84, "note_on_time": 2.444, "note_off_time": 2.58}, {"pitch": 64, "velocity": 86, "note_on_time": 2.721, "note_off_time": 2.884}, {"pitch": 62, "velocity": 84, "note_on_time": 3.015, "note_off_time": 3.143}, {"pitch": 62, "velocity": 86, "note_on_time": 3.301, "note_off_time": 3.429}, {"pitch": 62, "velocity": 90, "note_on_time": 3.584, "note_off_time": 3.731}, {"pitch": 60, "velocity": 95, "note_on_time": 3.892, "note_off_time": 4.021}, {"pitch": 60, "velocity": 97, "note_on_time": 4.166, "note_off_time": 4.295}, {"pitch": 60, "velocity": 95, "note_on_time": 4.451, "note_off_time": 4.595}, {"pitch": 62, "velocity": 91, "note_on_time": 4.777, "note_off_time": 4.886}, {"pitch": 62, "velocity": 94, "note_on_time": 5.07, "note_off_time": 5.183}, {"pitch": 64, "velocity": 78, "note_on_time": 5.639, "note_off_time": 5.979}, {"pitch": 62, "velocity": 88, "note_on_time": 6.915, "note_off_time": 7.005}, {"pitch": 62, "velocity": 93, "note_on_time": 7.192, "note_off_time": 7.306}, {"pitch": 62, "velocity": 91, "note_on_time": 7.49, "note_off_time": 7.604}, {"pitch": 62, "velocity": 87, "note_on_time": 7.778, "note_off_time": 7.897}, {"pitch": 62, "velocity": 91, "note_on_time": 8.103, "note_off_time": 8.222}, {"pitch": 64, "velocity": 93, "note_on_time": 8.392, "note_off_time": 8.527}, {"pitch": 60, "velocity": 95, "note_on_time": 8.673, "note_off_time": 8.813}, {"pitch": 60, "velocity": 95, "note_on_time": 8.957, "note_off_time": 9.116}, {"pitch": 60, "velocity": 96, "note_on_time": 9.673, "note_off_time": 9.791}, {"pitch": 60, "velocity": 95, "note_on_time": 9.954, "note_off_time": 10.06}, {"pitch": 60, "velocity": 101, "note_on_time": 10.227, "note_off_time": 10.346}]</notes><guidance name="Guidance Mode">None</guidance><error name="Error value">0.03218880952380971</error></trial><trial trial_no="3" timestamp="2022_09_12-12_25_49"><notes name="Played Notes">[{"pitch": 60, "velocity": 96, "note_on_time": 1.207, "note_off_time": 1.58}, {"pitch": 60, "velocity": 94, "note_on_time": 2.173, "note_off_time": 2.33}, {"pitch": 64, "velocity": 87, "note_on_time": 2.488, "note_off_time": 2.615}, {"pitch": 64, "velocity": 89, "note_on_time": 2.774, "note_off_time": 2.928}, {"pitch": 62, "velocity": 90, "note_on_time": 3.136, "note_off_time": 3.232}, {"pitch": 62, "velocity": 88, "note_on_time": 3.408, "note_off_time": 3.52}, {"pitch": 62, "velocity": 93, "note_on_time": 3.719, "note_off_time": 3.85}, {"pitch": 60, "velocity": 96, "note_on_time": 4.048, "note_off_time": 4.172}, {"pitch": 60, "velocity": 98, "note_on_time": 4.322, "note_off_time": 4.45}, {"pitch": 60, "velocity": 98, "note_on_time": 4.614, "note_off_time": 4.748}, {"pitch": 62, "velocity": 94, "note_on_time": 4.952, "note_off_time": 5.053}, {"pitch": 62, "velocity": 92, "note_on_time": 5.255, "note_off_time": 5.369}, {"pitch": 64, "velocity": 90, "note_on_time": 5.938, "note_off_time": 6.275}, {"pitch": 62, "velocity": 90, "note_on_time": 7.235, "note_off_time": 7.341}, {"pitch": 62, "velocity": 94, "note_on_time": 7.529, "note_off_time": 7.64}, {"pitch": 62, "velocity": 91, "note_on_time": 7.827, "note_off_time": 7.935}, {"pitch": 62, "velocity": 90, "note_on_time": 8.131, "note_off_time": 8.249}, {"pitch": 62, "velocity": 94, "note_on_time": 8.451, "note_off_time": 8.561}, {"pitch": 64, "velocity": 93, "note_on_time": 8.758, "note_off_time": 8.883}, {"pitch": 60, "velocity": 95, "note_on_time": 9.07, "note_off_time": 9.196}, {"pitch": 60, "velocity": 99, "note_on_time": 9.344, "note_off_time": 9.486}, {"pitch": 60, "velocity": 95, "note_on_time": 9.947, "note_off_time": 10.053}, {"pitch": 60, "velocity": 94, "note_on_time": 10.222, "note_off_time": 10.334}]</notes><guidance name="Guidance Mode">None</guidance><error name="Error value">0.10786204761904783</error></trial></trials></MIDI>