<MIDI midiNo="2022_11_21-19_07_41"><target_notes><notes name="Note List">[{"pitch": 42, "velocity": 80, "note_on_time": 0.005, "note_off_time": 0.471}, {"pitch": 42, "velocity": 80, "note_on_time": 0.472, "note_off_time": 0.938}, {"pitch": 42, "velocity": 80, "note_on_time": 0.938, "note_off_time": 1.391}, {"pitch": 42, "velocity": 80, "note_on_time": 1.391, "note_off_time": 1.858}, {"pitch": 62, "velocity": 80, "note_on_time": 1.858, "note_off_time": 2.324}, {"pitch": 42, "velocity": 80, "note_on_time": 1.858, "note_off_time": 2.324}, {"pitch": 60, "velocity": 80, "note_on_time": 2.324, "note_off_time": 2.791}, {"pitch": 42, "velocity": 80, "note_on_time": 2.325, "note_off_time": 2.791}, {"pitch": 60, "velocity": 80, "note_on_time": 2.791, "note_off_time": 3.259}, {"pitch": 42, "velocity": 80, "note_on_time": 2.791, "note_off_time": 3.26}, {"pitch": 64, "velocity": 80, "note_on_time": 3.259, "note_off_time": 3.727}, {"pitch": 42, "velocity": 80, "note_on_time": 3.26, "note_off_time": 3.727}, {"pitch": 62, "velocity": 80, "note_on_time": 3.727, "note_off_time": 4.194}, {"pitch": 42, "velocity": 80, "note_on_time": 3.728, "note_off_time": 4.194}, {"pitch": 60, "velocity": 80, "note_on_time": 4.194, "note_off_time": 4.661}, {"pitch": 42, "velocity": 80, "note_on_time": 4.194, "note_off_time": 4.661}, {"pitch": 60, "velocity": 80, "note_on_time": 4.661, "note_off_time": 5.126}, {"pitch": 42, "velocity": 80, "note_on_time": 4.662, "note_off_time": 5.127}, {"pitch": 60, "velocity": 80, "note_on_time": 5.126, "note_off_time": 5.593}, {"pitch": 42, "velocity": 80, "note_on_time": 5.127, "note_off_time": 5.593}, {"pitch": 64, "velocity": 80, "note_on_time": 5.593, "note_off_time": 6.046}, {"pitch": 42, "velocity": 80, "note_on_time": 5.594, "note_off_time": 6.047}, {"pitch": 64, "velocity": 80, "note_on_time": 6.046, "note_off_time": 6.511}, {"pitch": 42, "velocity": 80, "note_on_time": 6.047, "note_off_time": 6.511}, {"pitch": 42, "velocity": 80, "note_on_time": 6.512, "note_off_time": 6.976}, {"pitch": 62, "velocity": 80, "note_on_time": 6.976, "note_off_time": 7.43}, {"pitch": 42, "velocity": 80, "note_on_time": 6.977, "note_off_time": 7.43}, {"pitch": 64, "velocity": 80, "note_on_time": 7.43, "note_off_time": 7.884}, {"pitch": 42, "velocity": 80, "note_on_time": 7.43, "note_off_time": 7.884}, {"pitch": 60, "velocity": 80, "note_on_time": 7.884, "note_off_time": 8.35}, {"pitch": 42, "velocity": 80, "note_on_time": 7.885, "note_off_time": 8.351}, {"pitch": 60, "velocity": 80, "note_on_time": 8.35, "note_off_time": 8.804}, {"pitch": 42, "velocity": 80, "note_on_time": 8.351, "note_off_time": 8.804}, {"pitch": 60, "velocity": 80, "note_on_time": 8.804, "note_off_time": 9.258}, {"pitch": 42, "velocity": 80, "note_on_time": 8.805, "note_off_time": 9.258}, {"pitch": 60, "velocity": 80, "note_on_time": 9.258, "note_off_time": 9.723}, {"pitch": 42, "velocity": 80, "note_on_time": 9.258, "note_off_time": 9.723}, {"pitch": 42, "velocity": 80, "note_on_time": 9.724, "note_off_time": 10.19}, {"pitch": 42, "velocity": 80, "note_on_time": 10.19, "note_off_time": 10.657}, {"pitch": 42, "velocity": 80, "note_on_time": 10.657, "note_off_time": 11.123}, {"pitch": 60, "velocity": 80, "note_on_time": 11.123, "note_off_time": 11.59}, {"pitch": 42, "velocity": 80, "note_on_time": 11.123, "note_off_time": 11.59}, {"pitch": 62, "velocity": 80, "note_on_time": 11.59, "note_off_time": 12.045}, {"pitch": 42, "velocity": 80, "note_on_time": 11.59, "note_off_time": 12.046}, {"pitch": 60, "velocity": 80, "note_on_time": 12.045, "note_off_time": 12.513}, {"pitch": 42, "velocity": 80, "note_on_time": 12.046, "note_off_time": 12.513}, {"pitch": 64, "velocity": 80, "note_on_time": 12.513, "note_off_time": 12.968}, {"pitch": 42, "velocity": 80, "note_on_time": 12.513, "note_off_time": 12.968}, {"pitch": 60, "velocity": 80, "note_on_time": 12.968, "note_off_time": 13.433}, {"pitch": 42, "velocity": 80, "note_on_time": 12.968, "note_off_time": 13.434}, {"pitch": 42, "velocity": 80, "note_on_time": 13.435, "note_off_time": 13.901}, {"pitch": 60, "velocity": 80, "note_on_time": 13.433, "note_off_time": 14.366}, {"pitch": 42, "velocity": 80, "note_on_time": 13.901, "note_off_time": 14.366}, {"pitch": 42, "velocity": 80, "note_on_time": 14.366, "note_off_time": 14.832}, {"pitch": 42, "velocity": 80, "note_on_time": 14.833, "note_off_time": 15.3}, {"pitch": 60, "velocity": 80, "note_on_time": 15.3, "note_off_time": 15.767}, {"pitch": 42, "velocity": 80, "note_on_time": 15.301, "note_off_time": 15.768}, {"pitch": 60, "velocity": 80, "note_on_time": 15.767, "note_off_time": 16.234}, {"pitch": 42, "velocity": 80, "note_on_time": 15.768, "note_off_time": 16.234}, {"pitch": 60, "velocity": 80, "note_on_time": 16.234, "note_off_time": 16.702}, {"pitch": 42, "velocity": 80, "note_on_time": 16.234, "note_off_time": 16.702}]</notes><options name="Option List">((4, 4), [0.5, 0.25], 3, 8, &lt;NoteRangePerHand.THREE_NOTES: 4&gt;, &lt;NoteRangePerHand.ONE_NOTE: 2&gt;, False, True, False, '133')</options></target_notes><trials><trial trial_no="1" timestamp="2022_11_21-19_09_02"><notes name="Played Notes">[{"pitch": 62, "velocity": 74, "note_on_time": 1.86, "note_off_time": 2.338}, {"pitch": 60, "velocity": 78, "note_on_time": 2.303, "note_off_time": 2.54}, {"pitch": 60, "velocity": 81, "note_on_time": 2.762, "note_off_time": 3.305}, {"pitch": 64, "velocity": 75, "note_on_time": 3.241, "note_off_time": 3.707}, {"pitch": 62, "velocity": 73, "note_on_time": 3.686, "note_off_time": 4.017}, {"pitch": 60, "velocity": 84, "note_on_time": 4.12, "note_off_time": 4.32}, {"pitch": 60, "velocity": 76, "note_on_time": 4.596, "note_off_time": 4.807}, {"pitch": 60, "velocity": 80, "note_on_time": 5.053, "note_off_time": 5.391}, {"pitch": 64, "velocity": 76, "note_on_time": 5.578, "note_off_time": 5.811}, {"pitch": 64, "velocity": 78, "note_on_time": 6.036, "note_off_time": 6.327}, {"pitch": 62, "velocity": 65, "note_on_time": 7.391, "note_off_time": 7.861}, {"pitch": 64, "velocity": 77, "note_on_time": 8.277, "note_off_time": 8.71}, {"pitch": 60, "velocity": 86, "note_on_time": 8.749, "note_off_time": 8.942}, {"pitch": 60, "velocity": 79, "note_on_time": 9.24, "note_off_time": 9.428}, {"pitch": 60, "velocity": 84, "note_on_time": 9.69, "note_off_time": 9.913}, {"pitch": 60, "velocity": 76, "note_on_time": 10.182, "note_off_time": 10.496}, {"pitch": 60, "velocity": 92, "note_on_time": 12.056, "note_off_time": 12.547}, {"pitch": 62, "velocity": 72, "note_on_time": 12.52, "note_off_time": 12.874}, {"pitch": 60, "velocity": 84, "note_on_time": 12.909, "note_off_time": 13.476}, {"pitch": 64, "velocity": 73, "note_on_time": 13.435, "note_off_time": 13.826}, {"pitch": 60, "velocity": 78, "note_on_time": 13.844, "note_off_time": 14.037}, {"pitch": 60, "velocity": 82, "note_on_time": 14.33, "note_off_time": 15.236}, {"pitch": 60, "velocity": 95, "note_on_time": 15.755, "note_off_time": 15.989}, {"pitch": 60, "velocity": 81, "note_on_time": 16.258, "note_off_time": 16.473}]</notes><guidance name="Guidance Mode">None</guidance><error name="Error value">0.1349249545454547</error></trial><trial trial_no="2" timestamp="2022_11_21-19_09_33"><notes name="Played Notes">[{"pitch": 62, "velocity": 68, "note_on_time": 1.879, "note_off_time": 2.416}, {"pitch": 60, "velocity": 69, "note_on_time": 2.386, "note_off_time": 2.606}, {"pitch": 60, "velocity": 82, "note_on_time": 2.828, "note_off_time": 3.237}, {"pitch": 64, "velocity": 67, "note_on_time": 3.297, "note_off_time": 3.775}, {"pitch": 62, "velocity": 74, "note_on_time": 3.732, "note_off_time": 4.001}, {"pitch": 60, "velocity": 72, "note_on_time": 4.181, "note_off_time": 4.413}, {"pitch": 60, "velocity": 76, "note_on_time": 4.665, "note_off_time": 4.888}, {"pitch": 60, "velocity": 81, "note_on_time": 5.086, "note_off_time": 5.392}, {"pitch": 64, "velocity": 64, "note_on_time": 5.562, "note_off_time": 5.782}, {"pitch": 64, "velocity": 79, "note_on_time": 6.03, "note_off_time": 6.271}, {"pitch": 62, "velocity": 72, "note_on_time": 6.974, "note_off_time": 7.273}, {"pitch": 64, "velocity": 59, "note_on_time": 7.429, "note_off_time": 7.646}, {"pitch": 60, "velocity": 77, "note_on_time": 7.866, "note_off_time": 8.109}, {"pitch": 60, "velocity": 77, "note_on_time": 8.333, "note_off_time": 8.542}, {"pitch": 60, "velocity": 75, "note_on_time": 8.802, "note_off_time": 9.083}, {"pitch": 60, "velocity": 85, "note_on_time": 9.25, "note_off_time": 9.567}, {"pitch": 60, "velocity": 88, "note_on_time": 11.106, "note_off_time": 11.602}, {"pitch": 62, "velocity": 73, "note_on_time": 11.557, "note_off_time": 12.03}, {"pitch": 60, "velocity": 71, "note_on_time": 11.989, "note_off_time": 12.522}, {"pitch": 64, "velocity": 75, "note_on_time": 12.488, "note_off_time": 12.987}, {"pitch": 60, "velocity": 76, "note_on_time": 12.924, "note_off_time": 13.143}, {"pitch": 60, "velocity": 85, "note_on_time": 13.393, "note_off_time": 13.913}, {"pitch": 60, "velocity": 85, "note_on_time": 15.71, "note_off_time": 16.038}, {"pitch": 60, "velocity": 84, "note_on_time": 16.169, "note_off_time": 16.391}]</notes><guidance name="Guidance Mode">None</guidance><error name="Error value">0.08695959090909094</error></trial><trial trial_no="3" timestamp="2022_11_21-19_10_04"><notes name="Played Notes">[{"pitch": 62, "velocity": 77, "note_on_time": 1.85, "note_off_time": 2.348}, {"pitch": 60, "velocity": 64, "note_on_time": 2.321, "note_off_time": 2.507}, {"pitch": 60, "velocity": 80, "note_on_time": 2.788, "note_off_time": 3.251}, {"pitch": 64, "velocity": 71, "note_on_time": 3.278, "note_off_time": 3.721}, {"pitch": 62, "velocity": 68, "note_on_time": 3.696, "note_off_time": 4.181}, {"pitch": 60, "velocity": 73, "note_on_time": 4.138, "note_off_time": 4.369}, {"pitch": 60, "velocity": 76, "note_on_time": 4.622, "note_off_time": 4.836}, {"pitch": 60, "velocity": 77, "note_on_time": 5.088, "note_off_time": 5.357}, {"pitch": 64, "velocity": 70, "note_on_time": 5.561, "note_off_time": 5.763}, {"pitch": 64, "velocity": 72, "note_on_time": 6.055, "note_off_time": 6.304}, {"pitch": 62, "velocity": 79, "note_on_time": 6.984, "note_off_time": 7.267}, {"pitch": 64, "velocity": 70, "note_on_time": 7.442, "note_off_time": 7.832}, {"pitch": 60, "velocity": 79, "note_on_time": 7.88, "note_off_time": 8.09}, {"pitch": 60, "velocity": 73, "note_on_time": 8.346, "note_off_time": 8.54}, {"pitch": 60, "velocity": 77, "note_on_time": 8.803, "note_off_time": 9.034}, {"pitch": 60, "velocity": 84, "note_on_time": 9.286, "note_off_time": 9.599}, {"pitch": 60, "velocity": 81, "note_on_time": 11.094, "note_off_time": 11.64}, {"pitch": 62, "velocity": 76, "note_on_time": 11.59, "note_off_time": 12.041}, {"pitch": 60, "velocity": 60, "note_on_time": 12.027, "note_off_time": 12.419}, {"pitch": 64, "velocity": 77, "note_on_time": 12.512, "note_off_time": 12.996}, {"pitch": 60, "velocity": 67, "note_on_time": 12.964, "note_off_time": 13.203}, {"pitch": 60, "velocity": 72, "note_on_time": 13.44, "note_off_time": 14.442}, {"pitch": 60, "velocity": 81, "note_on_time": 15.254, "note_off_time": 15.53}, {"pitch": 60, "velocity": 75, "note_on_time": 15.752, "note_off_time": 15.964}]</notes><guidance name="Guidance Mode">None</guidance><error name="Error value">0.08901513636363684</error></trial></trials></MIDI>