<MIDI midiNo="2022_11_21-19_46_13"><target_notes><notes name="Note List">[{"pitch": 42, "velocity": 80, "note_on_time": 0.098, "note_off_time": 0.512}, {"pitch": 42, "velocity": 80, "note_on_time": 0.512, "note_off_time": 0.916}, {"pitch": 42, "velocity": 80, "note_on_time": 0.917, "note_off_time": 1.321}, {"pitch": 42, "velocity": 80, "note_on_time": 1.321, "note_off_time": 1.726}, {"pitch": 62, "velocity": 80, "note_on_time": 1.726, "note_off_time": 2.13}, {"pitch": 42, "velocity": 80, "note_on_time": 1.726, "note_off_time": 2.131}, {"pitch": 62, "velocity": 80, "note_on_time": 2.13, "note_off_time": 2.536}, {"pitch": 42, "velocity": 80, "note_on_time": 2.131, "note_off_time": 2.536}, {"pitch": 60, "velocity": 80, "note_on_time": 2.536, "note_off_time": 2.942}, {"pitch": 42, "velocity": 80, "note_on_time": 2.536, "note_off_time": 2.942}, {"pitch": 62, "velocity": 80, "note_on_time": 2.942, "note_off_time": 3.346}, {"pitch": 42, "velocity": 80, "note_on_time": 2.942, "note_off_time": 3.346}, {"pitch": 62, "velocity": 80, "note_on_time": 3.346, "note_off_time": 3.752}, {"pitch": 42, "velocity": 80, "note_on_time": 3.346, "note_off_time": 3.752}, {"pitch": 62, "velocity": 80, "note_on_time": 3.752, "note_off_time": 4.155}, {"pitch": 42, "velocity": 80, "note_on_time": 3.752, "note_off_time": 4.155}, {"pitch": 60, "velocity": 80, "note_on_time": 4.155, "note_off_time": 4.561}, {"pitch": 42, "velocity": 80, "note_on_time": 4.155, "note_off_time": 4.561}, {"pitch": 62, "velocity": 80, "note_on_time": 4.561, "note_off_time": 4.964}, {"pitch": 42, "velocity": 80, "note_on_time": 4.561, "note_off_time": 4.965}, {"pitch": 64, "velocity": 80, "note_on_time": 4.964, "note_off_time": 5.369}, {"pitch": 42, "velocity": 80, "note_on_time": 4.965, "note_off_time": 5.37}, {"pitch": 42, "velocity": 80, "note_on_time": 5.37, "note_off_time": 5.774}, {"pitch": 60, "velocity": 80, "note_on_time": 5.369, "note_off_time": 6.178}, {"pitch": 42, "velocity": 80, "note_on_time": 5.774, "note_off_time": 6.178}, {"pitch": 42, "velocity": 80, "note_on_time": 6.178, "note_off_time": 6.584}, {"pitch": 60, "velocity": 80, "note_on_time": 6.583, "note_off_time": 6.989}, {"pitch": 42, "velocity": 80, "note_on_time": 6.584, "note_off_time": 6.989}, {"pitch": 64, "velocity": 80, "note_on_time": 6.989, "note_off_time": 7.394}, {"pitch": 42, "velocity": 80, "note_on_time": 6.989, "note_off_time": 7.394}, {"pitch": 62, "velocity": 80, "note_on_time": 7.394, "note_off_time": 7.798}, {"pitch": 42, "velocity": 80, "note_on_time": 7.394, "note_off_time": 7.798}, {"pitch": 64, "velocity": 80, "note_on_time": 7.798, "note_off_time": 8.203}, {"pitch": 42, "velocity": 80, "note_on_time": 7.798, "note_off_time": 8.203}, {"pitch": 62, "velocity": 80, "note_on_time": 8.203, "note_off_time": 8.61}, {"pitch": 42, "velocity": 80, "note_on_time": 8.204, "note_off_time": 8.611}, {"pitch": 62, "velocity": 80, "note_on_time": 8.61, "note_off_time": 9.014}, {"pitch": 42, "velocity": 80, "note_on_time": 8.611, "note_off_time": 9.014}, {"pitch": 62, "velocity": 80, "note_on_time": 9.014, "note_off_time": 9.417}, {"pitch": 42, "velocity": 80, "note_on_time": 9.014, "note_off_time": 9.418}, {"pitch": 60, "velocity": 80, "note_on_time": 9.417, "note_off_time": 9.823}, {"pitch": 42, "velocity": 80, "note_on_time": 9.418, "note_off_time": 9.823}, {"pitch": 64, "velocity": 80, "note_on_time": 9.823, "note_off_time": 10.225}, {"pitch": 42, "velocity": 80, "note_on_time": 9.823, "note_off_time": 10.225}, {"pitch": 64, "velocity": 80, "note_on_time": 10.225, "note_off_time": 10.629}, {"pitch": 42, "velocity": 80, "note_on_time": 10.225, "note_off_time": 10.629}, {"pitch": 62, "velocity": 80, "note_on_time": 10.629, "note_off_time": 11.032}, {"pitch": 42, "velocity": 80, "note_on_time": 10.629, "note_off_time": 11.032}, {"pitch": 64, "velocity": 80, "note_on_time": 11.032, "note_off_time": 11.438}, {"pitch": 42, "velocity": 80, "note_on_time": 11.032, "note_off_time": 11.438}, {"pitch": 60, "velocity": 80, "note_on_time": 11.438, "note_off_time": 11.844}, {"pitch": 42, "velocity": 80, "note_on_time": 11.438, "note_off_time": 11.845}, {"pitch": 60, "velocity": 80, "note_on_time": 11.844, "note_off_time": 12.249}, {"pitch": 42, "velocity": 80, "note_on_time": 11.845, "note_off_time": 12.249}, {"pitch": 60, "velocity": 80, "note_on_time": 12.249, "note_off_time": 12.653}, {"pitch": 42, "velocity": 80, "note_on_time": 12.249, "note_off_time": 12.654}, {"pitch": 62, "velocity": 80, "note_on_time": 12.653, "note_off_time": 13.057}, {"pitch": 42, "velocity": 80, "note_on_time": 12.655, "note_off_time": 13.057}, {"pitch": 42, "velocity": 80, "note_on_time": 13.058, "note_off_time": 13.459}, {"pitch": 62, "velocity": 80, "note_on_time": 13.459, "note_off_time": 13.867}, {"pitch": 42, "velocity": 80, "note_on_time": 13.46, "note_off_time": 13.867}, {"pitch": 62, "velocity": 80, "note_on_time": 13.867, "note_off_time": 14.271}, {"pitch": 42, "velocity": 80, "note_on_time": 13.867, "note_off_time": 14.272}, {"pitch": 62, "velocity": 80, "note_on_time": 14.271, "note_off_time": 14.676}, {"pitch": 42, "velocity": 80, "note_on_time": 14.272, "note_off_time": 14.676}]</notes><options name="Option List">((4, 4), [0.5, 0.25], 3, 8, &lt;NoteRangePerHand.THREE_NOTES: 4&gt;, &lt;NoteRangePerHand.ONE_NOTE: 2&gt;, False, True, False, 150)</options></target_notes><trials><trial trial_no="1" timestamp="2022_11_21-19_45_57"><notes name="Played Notes">[{"pitch": 62, "velocity": 76, "note_on_time": 1.723, "note_off_time": 1.927}, {"pitch": 62, "velocity": 74, "note_on_time": 2.1, "note_off_time": 2.549}, {"pitch": 60, "velocity": 70, "note_on_time": 2.539, "note_off_time": 2.758}, {"pitch": 62, "velocity": 64, "note_on_time": 2.947, "note_off_time": 3.169}, {"pitch": 62, "velocity": 64, "note_on_time": 3.361, "note_off_time": 3.563}, {"pitch": 62, "velocity": 73, "note_on_time": 3.767, "note_off_time": 4.19}, {"pitch": 60, "velocity": 82, "note_on_time": 4.181, "note_off_time": 4.41}, {"pitch": 62, "velocity": 71, "note_on_time": 4.632, "note_off_time": 4.862}, {"pitch": 64, "velocity": 64, "note_on_time": 5.01, "note_off_time": 5.201}, {"pitch": 60, "velocity": 72, "note_on_time": 5.436, "note_off_time": 5.97}, {"pitch": 60, "velocity": 73, "note_on_time": 6.7, "note_off_time": 7.052}, {"pitch": 64, "velocity": 63, "note_on_time": 7.068, "note_off_time": 7.37}, {"pitch": 62, "velocity": 57, "note_on_time": 7.425, "note_off_time": 7.837}, {"pitch": 64, "velocity": 61, "note_on_time": 7.842, "note_off_time": 8.296}, {"pitch": 62, "velocity": 67, "note_on_time": 8.231, "note_off_time": 8.38}, {"pitch": 62, "velocity": 69, "note_on_time": 8.617, "note_off_time": 8.769}, {"pitch": 62, "velocity": 62, "note_on_time": 9.019, "note_off_time": 9.3}, {"pitch": 60, "velocity": 77, "note_on_time": 9.44, "note_off_time": 9.658}, {"pitch": 64, "velocity": 77, "note_on_time": 9.958, "note_off_time": 10.117}, {"pitch": 62, "velocity": 52, "note_on_time": 10.343, "note_off_time": 10.449}, {"pitch": 64, "velocity": 63, "note_on_time": 10.735, "note_off_time": 10.926}, {"pitch": 60, "velocity": 41, "note_on_time": 11.382, "note_off_time": 11.483}, {"pitch": 60, "velocity": 67, "note_on_time": 11.777, "note_off_time": 11.906}, {"pitch": 60, "velocity": 76, "note_on_time": 12.192, "note_off_time": 12.363}, {"pitch": 62, "velocity": 67, "note_on_time": 12.617, "note_off_time": 12.761}, {"pitch": 62, "velocity": 72, "note_on_time": 13.54, "note_off_time": 13.666}, {"pitch": 62, "velocity": 67, "note_on_time": 13.874, "note_off_time": 13.987}, {"pitch": 62, "velocity": 83, "note_on_time": 14.231, "note_off_time": 14.373}]</notes><guidance name="Guidance Mode">None</guidance><error name="Error value">0.09449999999999995</error></trial><trial trial_no="2" timestamp="2022_11_21-19_46_18"><notes name="Played Notes">[{"pitch": 62, "velocity": 72, "note_on_time": 1.65, "note_off_time": 1.835}, {"pitch": 62, "velocity": 71, "note_on_time": 2.048, "note_off_time": 2.514}, {"pitch": 60, "velocity": 75, "note_on_time": 2.481, "note_off_time": 2.826}, {"pitch": 62, "velocity": 65, "note_on_time": 2.849, "note_off_time": 3.075}, {"pitch": 62, "velocity": 46, "note_on_time": 3.23, "note_off_time": 3.455}, {"pitch": 62, "velocity": 72, "note_on_time": 3.635, "note_off_time": 3.84}, {"pitch": 60, "velocity": 75, "note_on_time": 4.033, "note_off_time": 4.335}, {"pitch": 62, "velocity": 77, "note_on_time": 4.437, "note_off_time": 4.838}, {"pitch": 64, "velocity": 76, "note_on_time": 4.848, "note_off_time": 5.102}, {"pitch": 60, "velocity": 84, "note_on_time": 5.254, "note_off_time": 5.522}, {"pitch": 60, "velocity": 79, "note_on_time": 6.901, "note_off_time": 7.19}, {"pitch": 64, "velocity": 65, "note_on_time": 7.308, "note_off_time": 7.653}, {"pitch": 62, "velocity": 65, "note_on_time": 7.677, "note_off_time": 8.11}, {"pitch": 64, "velocity": 65, "note_on_time": 8.12, "note_off_time": 8.572}, {"pitch": 62, "velocity": 70, "note_on_time": 8.52, "note_off_time": 8.679}, {"pitch": 62, "velocity": 67, "note_on_time": 8.915, "note_off_time": 9.113}, {"pitch": 62, "velocity": 73, "note_on_time": 9.344, "note_off_time": 9.649}, {"pitch": 60, "velocity": 75, "note_on_time": 9.722, "note_off_time": 10.108}, {"pitch": 64, "velocity": 64, "note_on_time": 10.134, "note_off_time": 10.305}, {"pitch": 64, "velocity": 64, "note_on_time": 10.524, "note_off_time": 10.983}, {"pitch": 62, "velocity": 69, "note_on_time": 10.938, "note_off_time": 11.38}, {"pitch": 64, "velocity": 68, "note_on_time": 11.367, "note_off_time": 11.784}, {"pitch": 60, "velocity": 77, "note_on_time": 11.739, "note_off_time": 11.921}, {"pitch": 60, "velocity": 78, "note_on_time": 12.161, "note_off_time": 12.342}, {"pitch": 60, "velocity": 77, "note_on_time": 12.566, "note_off_time": 12.859}, {"pitch": 62, "velocity": 72, "note_on_time": 12.977, "note_off_time": 13.193}, {"pitch": 62, "velocity": 79, "note_on_time": 13.873, "note_off_time": 14.034}, {"pitch": 62, "velocity": 62, "note_on_time": 14.255, "note_off_time": 14.392}]</notes><guidance name="Guidance Mode">None</guidance><error name="Error value">0.0901153846153845</error></trial><trial trial_no="3" timestamp="2022_11_21-19_46_43"><notes name="Played Notes">[{"pitch": 62, "velocity": 75, "note_on_time": 1.624, "note_off_time": 1.804}, {"pitch": 62, "velocity": 77, "note_on_time": 2.022, "note_off_time": 2.448}, {"pitch": 60, "velocity": 73, "note_on_time": 2.42, "note_off_time": 2.77}, {"pitch": 62, "velocity": 71, "note_on_time": 2.806, "note_off_time": 3.042}, {"pitch": 62, "velocity": 75, "note_on_time": 3.226, "note_off_time": 3.5}, {"pitch": 60, "velocity": 68, "note_on_time": 3.672, "note_off_time": 3.907}, {"pitch": 62, "velocity": 70, "note_on_time": 4.013, "note_off_time": 4.499}, {"pitch": 64, "velocity": 67, "note_on_time": 4.474, "note_off_time": 4.848}, {"pitch": 60, "velocity": 74, "note_on_time": 4.871, "note_off_time": 5.175}, {"pitch": 60, "velocity": 82, "note_on_time": 6.104, "note_off_time": 6.543}, {"pitch": 64, "velocity": 65, "note_on_time": 6.511, "note_off_time": 6.926}, {"pitch": 62, "velocity": 67, "note_on_time": 6.901, "note_off_time": 7.319}, {"pitch": 64, "velocity": 61, "note_on_time": 7.312, "note_off_time": 7.788}, {"pitch": 62, "velocity": 72, "note_on_time": 7.716, "note_off_time": 7.867}, {"pitch": 62, "velocity": 66, "note_on_time": 8.095, "note_off_time": 8.262}, {"pitch": 62, "velocity": 73, "note_on_time": 8.526, "note_off_time": 8.99}, {"pitch": 60, "velocity": 74, "note_on_time": 8.927, "note_off_time": 9.367}, {"pitch": 64, "velocity": 62, "note_on_time": 9.358, "note_off_time": 9.518}, {"pitch": 64, "velocity": 59, "note_on_time": 9.76, "note_off_time": 10.239}, {"pitch": 62, "velocity": 68, "note_on_time": 10.172, "note_off_time": 10.618}, {"pitch": 64, "velocity": 63, "note_on_time": 10.587, "note_off_time": 11.001}, {"pitch": 60, "velocity": 74, "note_on_time": 11.004, "note_off_time": 11.138}, {"pitch": 60, "velocity": 75, "note_on_time": 11.423, "note_off_time": 11.561}, {"pitch": 60, "velocity": 79, "note_on_time": 11.833, "note_off_time": 12.298}, {"pitch": 62, "velocity": 74, "note_on_time": 12.26, "note_off_time": 12.421}, {"pitch": 62, "velocity": 73, "note_on_time": 13.202, "note_off_time": 13.408}, {"pitch": 62, "velocity": 72, "note_on_time": 13.58, "note_off_time": 13.718}, {"pitch": 62, "velocity": 77, "note_on_time": 13.92, "note_off_time": 14.155}]</notes><guidance name="Guidance Mode">None</guidance><error name="Error value">0.07953846153846139</error></trial></trials></MIDI>