<MIDI midiNo="2022_11_21-17_51_00"><target_notes><notes name="Note List">[{"pitch": 42, "velocity": 80, "note_on_time": 0.004, "note_off_time": 0.307}, {"pitch": 42, "velocity": 80, "note_on_time": 0.307, "note_off_time": 0.619}, {"pitch": 42, "velocity": 80, "note_on_time": 0.619, "note_off_time": 0.932}, {"pitch": 42, "velocity": 80, "note_on_time": 0.932, "note_off_time": 1.243}, {"pitch": 62, "velocity": 80, "note_on_time": 1.243, "note_off_time": 1.554}, {"pitch": 42, "velocity": 80, "note_on_time": 1.243, "note_off_time": 1.554}, {"pitch": 62, "velocity": 80, "note_on_time": 1.554, "note_off_time": 1.868}, {"pitch": 42, "velocity": 80, "note_on_time": 1.554, "note_off_time": 1.868}, {"pitch": 65, "velocity": 80, "note_on_time": 1.868, "note_off_time": 2.178}, {"pitch": 42, "velocity": 80, "note_on_time": 1.869, "note_off_time": 2.178}, {"pitch": 67, "velocity": 80, "note_on_time": 2.178, "note_off_time": 2.486}, {"pitch": 42, "velocity": 80, "note_on_time": 2.178, "note_off_time": 2.487}, {"pitch": 42, "velocity": 80, "note_on_time": 2.487, "note_off_time": 2.799}, {"pitch": 62, "velocity": 80, "note_on_time": 2.486, "note_off_time": 3.109}, {"pitch": 42, "velocity": 80, "note_on_time": 2.799, "note_off_time": 3.109}, {"pitch": 42, "velocity": 80, "note_on_time": 3.109, "note_off_time": 3.42}, {"pitch": 62, "velocity": 80, "note_on_time": 3.109, "note_off_time": 3.731}, {"pitch": 42, "velocity": 80, "note_on_time": 3.421, "note_off_time": 3.731}, {"pitch": 67, "velocity": 80, "note_on_time": 3.731, "note_off_time": 4.041}, {"pitch": 42, "velocity": 80, "note_on_time": 3.731, "note_off_time": 4.042}, {"pitch": 65, "velocity": 80, "note_on_time": 4.041, "note_off_time": 4.351}, {"pitch": 42, "velocity": 80, "note_on_time": 4.042, "note_off_time": 4.351}, {"pitch": 64, "velocity": 80, "note_on_time": 4.351, "note_off_time": 4.663}, {"pitch": 42, "velocity": 80, "note_on_time": 4.352, "note_off_time": 4.663}, {"pitch": 67, "velocity": 80, "note_on_time": 4.663, "note_off_time": 4.976}, {"pitch": 42, "velocity": 80, "note_on_time": 4.663, "note_off_time": 4.976}, {"pitch": 42, "velocity": 80, "note_on_time": 4.976, "note_off_time": 5.29}, {"pitch": 67, "velocity": 80, "note_on_time": 4.976, "note_off_time": 5.601}, {"pitch": 42, "velocity": 80, "note_on_time": 5.29, "note_off_time": 5.601}, {"pitch": 65, "velocity": 80, "note_on_time": 5.601, "note_off_time": 5.914}, {"pitch": 42, "velocity": 80, "note_on_time": 5.602, "note_off_time": 5.914}, {"pitch": 42, "velocity": 80, "note_on_time": 5.915, "note_off_time": 6.226}, {"pitch": 65, "velocity": 80, "note_on_time": 6.226, "note_off_time": 6.536}, {"pitch": 42, "velocity": 80, "note_on_time": 6.226, "note_off_time": 6.537}, {"pitch": 42, "velocity": 80, "note_on_time": 6.537, "note_off_time": 6.849}, {"pitch": 62, "velocity": 80, "note_on_time": 6.536, "note_off_time": 7.16}, {"pitch": 42, "velocity": 80, "note_on_time": 6.85, "note_off_time": 7.16}, {"pitch": 67, "velocity": 80, "note_on_time": 7.16, "note_off_time": 7.473}, {"pitch": 42, "velocity": 80, "note_on_time": 7.16, "note_off_time": 7.474}, {"pitch": 67, "velocity": 80, "note_on_time": 7.473, "note_off_time": 7.784}, {"pitch": 42, "velocity": 80, "note_on_time": 7.474, "note_off_time": 7.784}, {"pitch": 64, "velocity": 80, "note_on_time": 7.784, "note_off_time": 8.094}, {"pitch": 42, "velocity": 80, "note_on_time": 7.784, "note_off_time": 8.095}, {"pitch": 65, "velocity": 80, "note_on_time": 8.094, "note_off_time": 8.404}, {"pitch": 42, "velocity": 80, "note_on_time": 8.095, "note_off_time": 8.404}, {"pitch": 64, "velocity": 80, "note_on_time": 8.404, "note_off_time": 8.715}, {"pitch": 42, "velocity": 80, "note_on_time": 8.405, "note_off_time": 8.715}, {"pitch": 64, "velocity": 80, "note_on_time": 8.715, "note_off_time": 9.027}, {"pitch": 42, "velocity": 80, "note_on_time": 8.715, "note_off_time": 9.027}, {"pitch": 42, "velocity": 80, "note_on_time": 9.027, "note_off_time": 9.34}, {"pitch": 67, "velocity": 80, "note_on_time": 9.027, "note_off_time": 9.65}, {"pitch": 42, "velocity": 80, "note_on_time": 9.341, "note_off_time": 9.651}, {"pitch": 64, "velocity": 80, "note_on_time": 9.65, "note_off_time": 9.96}, {"pitch": 42, "velocity": 80, "note_on_time": 9.651, "note_off_time": 9.96}, {"pitch": 42, "velocity": 80, "note_on_time": 9.96, "note_off_time": 10.27}, {"pitch": 64, "velocity": 80, "note_on_time": 10.27, "note_off_time": 10.583}, {"pitch": 42, "velocity": 80, "note_on_time": 10.271, "note_off_time": 10.583}, {"pitch": 64, "velocity": 80, "note_on_time": 10.583, "note_off_time": 10.892}, {"pitch": 42, "velocity": 80, "note_on_time": 10.583, "note_off_time": 10.892}, {"pitch": 64, "velocity": 80, "note_on_time": 10.892, "note_off_time": 11.203}, {"pitch": 42, "velocity": 80, "note_on_time": 10.892, "note_off_time": 11.203}]</notes><options name="Option List">((4, 4), [0.5, 0.25], 3, 8, &lt;NoteRangePerHand.C_TO_G: 6&gt;, &lt;NoteRangePerHand.ONE_NOTE: 2&gt;, False, True, False, '200')</options></target_notes><trials><trial trial_no="1" timestamp="2022_11_21-17_50_47"><notes name="Played Notes">[{"pitch": 62, "velocity": 87, "note_on_time": 1.329, "note_off_time": 1.435}, {"pitch": 62, "velocity": 88, "note_on_time": 1.661, "note_off_time": 2.036}, {"pitch": 65, "velocity": 84, "note_on_time": 2.029, "note_off_time": 2.315}, {"pitch": 67, "velocity": 84, "note_on_time": 2.314, "note_off_time": 2.665}, {"pitch": 62, "velocity": 100, "note_on_time": 2.652, "note_off_time": 3.031}, {"pitch": 62, "velocity": 93, "note_on_time": 3.314, "note_off_time": 3.654}, {"pitch": 67, "velocity": 89, "note_on_time": 3.978, "note_off_time": 4.419}, {"pitch": 65, "velocity": 83, "note_on_time": 4.353, "note_off_time": 4.683}, {"pitch": 64, "velocity": 79, "note_on_time": 4.689, "note_off_time": 4.958}, {"pitch": 67, "velocity": 78, "note_on_time": 4.966, "note_off_time": 5.058}, {"pitch": 67, "velocity": 99, "note_on_time": 5.31, "note_off_time": 5.996}, {"pitch": 65, "velocity": 98, "note_on_time": 5.973, "note_off_time": 6.287}, {"pitch": 65, "velocity": 107, "note_on_time": 6.624, "note_off_time": 6.923}, {"pitch": 62, "velocity": 87, "note_on_time": 6.915, "note_off_time": 7.515}, {"pitch": 67, "velocity": 92, "note_on_time": 7.895, "note_off_time": 8.021}, {"pitch": 67, "velocity": 98, "note_on_time": 8.211, "note_off_time": 8.578}, {"pitch": 64, "velocity": 72, "note_on_time": 8.558, "note_off_time": 8.923}, {"pitch": 65, "velocity": 87, "note_on_time": 8.927, "note_off_time": 9.289}, {"pitch": 64, "velocity": 80, "note_on_time": 9.29, "note_off_time": 9.795}, {"pitch": 62, "velocity": 74, "note_on_time": 9.77, "note_off_time": 10.088}, {"pitch": 64, "velocity": 85, "note_on_time": 10.217, "note_off_time": 10.315}]</notes><guidance name="Guidance Mode">None</guidance><error name="Error value">0.3450909090909091</error></trial><trial trial_no="2" timestamp="2022_11_21-17_51_17"><notes name="Played Notes">[{"pitch": 62, "velocity": 89, "note_on_time": 1.265, "note_off_time": 1.35}, {"pitch": 62, "velocity": 91, "note_on_time": 1.569, "note_off_time": 1.883}, {"pitch": 65, "velocity": 91, "note_on_time": 1.888, "note_off_time": 2.203}, {"pitch": 67, "velocity": 83, "note_on_time": 2.203, "note_off_time": 2.518}, {"pitch": 62, "velocity": 91, "note_on_time": 2.526, "note_off_time": 2.872}, {"pitch": 62, "velocity": 94, "note_on_time": 3.164, "note_off_time": 3.47}, {"pitch": 67, "velocity": 95, "note_on_time": 3.76, "note_off_time": 4.096}, {"pitch": 65, "velocity": 83, "note_on_time": 4.085, "note_off_time": 4.405}, {"pitch": 64, "velocity": 90, "note_on_time": 4.398, "note_off_time": 4.698}, {"pitch": 67, "velocity": 90, "note_on_time": 4.693, "note_off_time": 4.788}, {"pitch": 67, "velocity": 103, "note_on_time": 5.021, "note_off_time": 5.656}, {"pitch": 65, "velocity": 95, "note_on_time": 5.651, "note_off_time": 5.96}, {"pitch": 65, "velocity": 89, "note_on_time": 6.602, "note_off_time": 6.905}, {"pitch": 60, "velocity": 78, "note_on_time": 6.929, "note_off_time": 7.111}, {"pitch": 62, "velocity": 74, "note_on_time": 6.927, "note_off_time": 7.602}, {"pitch": 67, "velocity": 96, "note_on_time": 7.657, "note_off_time": 7.953}, {"pitch": 67, "velocity": 82, "note_on_time": 8.411, "note_off_time": 8.713}, {"pitch": 67, "velocity": 93, "note_on_time": 9.078, "note_off_time": 9.382}, {"pitch": 64, "velocity": 82, "note_on_time": 9.379, "note_off_time": 9.722}, {"pitch": 65, "velocity": 85, "note_on_time": 9.722, "note_off_time": 10.038}, {"pitch": 64, "velocity": 83, "note_on_time": 10.03, "note_off_time": 10.391}, {"pitch": 62, "velocity": 87, "note_on_time": 10.357, "note_off_time": 10.442}, {"pitch": 64, "velocity": 96, "note_on_time": 10.577, "note_off_time": 10.834}]</notes><guidance name="Guidance Mode">None</guidance><error name="Error value">0.5562727272727274</error></trial><trial trial_no="3" timestamp="2022_11_21-17_52_00"><notes name="Played Notes">[{"pitch": 62, "velocity": 81, "note_on_time": 1.291, "note_off_time": 1.371}, {"pitch": 62, "velocity": 91, "note_on_time": 1.585, "note_off_time": 1.895}, {"pitch": 65, "velocity": 84, "note_on_time": 1.893, "note_off_time": 2.194}, {"pitch": 67, "velocity": 82, "note_on_time": 2.204, "note_off_time": 2.516}, {"pitch": 62, "velocity": 90, "note_on_time": 2.537, "note_off_time": 2.857}, {"pitch": 62, "velocity": 90, "note_on_time": 3.171, "note_off_time": 3.447}, {"pitch": 67, "velocity": 93, "note_on_time": 3.78, "note_off_time": 4.129}, {"pitch": 65, "velocity": 80, "note_on_time": 4.094, "note_off_time": 4.391}, {"pitch": 64, "velocity": 86, "note_on_time": 4.392, "note_off_time": 4.681}, {"pitch": 67, "velocity": 93, "note_on_time": 4.681, "note_off_time": 4.772}, {"pitch": 67, "velocity": 103, "note_on_time": 5.023, "note_off_time": 5.635}, {"pitch": 65, "velocity": 96, "note_on_time": 5.613, "note_off_time": 6.003}, {"pitch": 62, "velocity": 93, "note_on_time": 6.631, "note_off_time": 7.007}, {"pitch": 60, "velocity": 89, "note_on_time": 6.983, "note_off_time": 7.215}, {"pitch": 65, "velocity": 86, "note_on_time": 7.341, "note_off_time": 7.604}, {"pitch": 62, "velocity": 86, "note_on_time": 7.612, "note_off_time": 8.324}, {"pitch": 67, "velocity": 84, "note_on_time": 8.335, "note_off_time": 8.464}, {"pitch": 67, "velocity": 96, "note_on_time": 8.737, "note_off_time": 8.825}, {"pitch": 64, "velocity": 99, "note_on_time": 9.096, "note_off_time": 9.438}, {"pitch": 65, "velocity": 85, "note_on_time": 9.432, "note_off_time": 9.801}, {"pitch": 64, "velocity": 83, "note_on_time": 9.777, "note_off_time": 10.125}, {"pitch": 62, "velocity": 78, "note_on_time": 10.127, "note_off_time": 10.504}]</notes><guidance name="Guidance Mode">None</guidance><error name="Error value">0.5232272727272727</error></trial></trials></MIDI>