<MIDI midiNo="2022_11_13-12_58_28"><target_notes><notes name="Note List">[{"pitch": 42, "velocity": 80, "note_on_time": 0.004, "note_off_time": 0.222}, {"pitch": 42, "velocity": 80, "note_on_time": 0.222, "note_off_time": 0.439}, {"pitch": 42, "velocity": 80, "note_on_time": 0.439, "note_off_time": 0.657}, {"pitch": 42, "velocity": 80, "note_on_time": 0.657, "note_off_time": 0.874}, {"pitch": 42, "velocity": 80, "note_on_time": 0.874, "note_off_time": 1.094}, {"pitch": 62, "velocity": 80, "note_on_time": 0.874, "note_off_time": 1.313}, {"pitch": 42, "velocity": 80, "note_on_time": 1.094, "note_off_time": 1.313}, {"pitch": 42, "velocity": 80, "note_on_time": 1.313, "note_off_time": 1.533}, {"pitch": 60, "velocity": 80, "note_on_time": 1.313, "note_off_time": 1.75}, {"pitch": 42, "velocity": 80, "note_on_time": 1.533, "note_off_time": 1.75}, {"pitch": 65, "velocity": 80, "note_on_time": 1.75, "note_off_time": 1.968}, {"pitch": 42, "velocity": 80, "note_on_time": 1.75, "note_off_time": 1.968}, {"pitch": 65, "velocity": 80, "note_on_time": 1.968, "note_off_time": 2.185}, {"pitch": 42, "velocity": 80, "note_on_time": 1.968, "note_off_time": 2.185}, {"pitch": 65, "velocity": 80, "note_on_time": 2.185, "note_off_time": 2.404}, {"pitch": 42, "velocity": 80, "note_on_time": 2.185, "note_off_time": 2.404}, {"pitch": 67, "velocity": 80, "note_on_time": 2.404, "note_off_time": 2.621}, {"pitch": 42, "velocity": 80, "note_on_time": 2.405, "note_off_time": 2.621}, {"pitch": 62, "velocity": 80, "note_on_time": 2.621, "note_off_time": 2.845}, {"pitch": 42, "velocity": 80, "note_on_time": 2.621, "note_off_time": 2.845}, {"pitch": 42, "velocity": 80, "note_on_time": 2.845, "note_off_time": 3.063}, {"pitch": 62, "velocity": 80, "note_on_time": 2.845, "note_off_time": 3.279}, {"pitch": 42, "velocity": 80, "note_on_time": 3.063, "note_off_time": 3.279}, {"pitch": 42, "velocity": 80, "note_on_time": 3.279, "note_off_time": 3.498}, {"pitch": 64, "velocity": 80, "note_on_time": 3.498, "note_off_time": 3.718}, {"pitch": 42, "velocity": 80, "note_on_time": 3.498, "note_off_time": 3.718}, {"pitch": 64, "velocity": 80, "note_on_time": 3.718, "note_off_time": 3.935}, {"pitch": 42, "velocity": 80, "note_on_time": 3.718, "note_off_time": 3.935}, {"pitch": 62, "velocity": 80, "note_on_time": 3.935, "note_off_time": 4.155}, {"pitch": 42, "velocity": 80, "note_on_time": 3.935, "note_off_time": 4.155}, {"pitch": 62, "velocity": 80, "note_on_time": 4.155, "note_off_time": 4.373}, {"pitch": 42, "velocity": 80, "note_on_time": 4.155, "note_off_time": 4.373}, {"pitch": 42, "velocity": 80, "note_on_time": 4.373, "note_off_time": 4.594}, {"pitch": 67, "velocity": 80, "note_on_time": 4.373, "note_off_time": 4.812}, {"pitch": 42, "velocity": 80, "note_on_time": 4.594, "note_off_time": 4.812}, {"pitch": 67, "velocity": 80, "note_on_time": 4.812, "note_off_time": 5.029}, {"pitch": 42, "velocity": 80, "note_on_time": 4.812, "note_off_time": 5.029}, {"pitch": 42, "velocity": 80, "note_on_time": 5.029, "note_off_time": 5.245}, {"pitch": 42, "velocity": 80, "note_on_time": 5.245, "note_off_time": 5.464}, {"pitch": 62, "velocity": 80, "note_on_time": 5.245, "note_off_time": 5.682}, {"pitch": 42, "velocity": 80, "note_on_time": 5.464, "note_off_time": 5.682}, {"pitch": 67, "velocity": 80, "note_on_time": 5.682, "note_off_time": 5.9}, {"pitch": 42, "velocity": 80, "note_on_time": 5.682, "note_off_time": 5.9}, {"pitch": 42, "velocity": 80, "note_on_time": 5.9, "note_off_time": 6.117}, {"pitch": 42, "velocity": 80, "note_on_time": 6.117, "note_off_time": 6.335}, {"pitch": 64, "velocity": 80, "note_on_time": 6.117, "note_off_time": 6.555}, {"pitch": 42, "velocity": 80, "note_on_time": 6.336, "note_off_time": 6.555}, {"pitch": 42, "velocity": 80, "note_on_time": 6.555, "note_off_time": 6.772}, {"pitch": 62, "velocity": 80, "note_on_time": 6.772, "note_off_time": 6.991}, {"pitch": 42, "velocity": 80, "note_on_time": 6.772, "note_off_time": 6.992}, {"pitch": 42, "velocity": 80, "note_on_time": 6.992, "note_off_time": 7.21}, {"pitch": 62, "velocity": 80, "note_on_time": 7.21, "note_off_time": 7.428}, {"pitch": 42, "velocity": 80, "note_on_time": 7.21, "note_off_time": 7.428}, {"pitch": 62, "velocity": 80, "note_on_time": 7.428, "note_off_time": 7.645}, {"pitch": 42, "velocity": 80, "note_on_time": 7.428, "note_off_time": 7.645}, {"pitch": 62, "velocity": 80, "note_on_time": 7.645, "note_off_time": 7.865}, {"pitch": 42, "velocity": 80, "note_on_time": 7.645, "note_off_time": 7.865}]</notes><options name="Option List">((4, 4), [0.5, 0.25], 3, 8, &lt;NoteRangePerHand.C_TO_G: 6&gt;, &lt;NoteRangePerHand.ONE_NOTE: 2&gt;, False, True, False, 281)</options></target_notes><trials><trial trial_no="1" timestamp="2022_11_13-12_58_18"><notes name="Played Notes">[{"pitch": 62, "velocity": 86, "note_on_time": 0.864, "note_off_time": 1.351}, {"pitch": 60, "velocity": 92, "note_on_time": 1.341, "note_off_time": 1.755}, {"pitch": 65, "velocity": 91, "note_on_time": 1.78, "note_off_time": 1.899}, {"pitch": 65, "velocity": 89, "note_on_time": 1.991, "note_off_time": 2.104}, {"pitch": 65, "velocity": 86, "note_on_time": 2.224, "note_off_time": 2.322}, {"pitch": 67, "velocity": 84, "note_on_time": 2.435, "note_off_time": 2.507}, {"pitch": 62, "velocity": 85, "note_on_time": 2.658, "note_off_time": 2.738}, {"pitch": 64, "velocity": 87, "note_on_time": 2.881, "note_off_time": 3.085}, {"pitch": 64, "velocity": 90, "note_on_time": 3.606, "note_off_time": 3.71}, {"pitch": 64, "velocity": 86, "note_on_time": 3.832, "note_off_time": 3.927}, {"pitch": 62, "velocity": 91, "note_on_time": 4.053, "note_off_time": 4.133}, {"pitch": 62, "velocity": 84, "note_on_time": 4.266, "note_off_time": 4.34}, {"pitch": 67, "velocity": 91, "note_on_time": 4.492, "note_off_time": 4.781}, {"pitch": 67, "velocity": 98, "note_on_time": 4.958, "note_off_time": 5.14}, {"pitch": 62, "velocity": 85, "note_on_time": 5.417, "note_off_time": 5.705}, {"pitch": 67, "velocity": 97, "note_on_time": 5.882, "note_off_time": 6.092}, {"pitch": 64, "velocity": 85, "note_on_time": 6.55, "note_off_time": 6.721}, {"pitch": 62, "velocity": 94, "note_on_time": 7.008, "note_off_time": 7.158}, {"pitch": 62, "velocity": 94, "note_on_time": 7.44, "note_off_time": 7.53}, {"pitch": 62, "velocity": 102, "note_on_time": 7.666, "note_off_time": 7.742}]</notes><guidance name="Guidance Mode">None</guidance><error name="Error value">0.16589494444444436</error></trial></trials></MIDI>