<MIDI midiNo="2022_12_08-12_02_53"><target_notes><notes name="Note List">[{"pitch": 42, "velocity": 80, "note_on_time": 0.004, "note_off_time": 0.336}, {"pitch": 42, "velocity": 80, "note_on_time": 0.336, "note_off_time": 0.678}, {"pitch": 42, "velocity": 80, "note_on_time": 0.678, "note_off_time": 1.021}, {"pitch": 42, "velocity": 80, "note_on_time": 1.021, "note_off_time": 1.364}, {"pitch": 42, "velocity": 80, "note_on_time": 1.364, "note_off_time": 1.708}, {"pitch": 62, "velocity": 80, "note_on_time": 1.364, "note_off_time": 2.051}, {"pitch": 42, "velocity": 80, "note_on_time": 1.708, "note_off_time": 2.052}, {"pitch": 42, "velocity": 80, "note_on_time": 2.052, "note_off_time": 2.394}, {"pitch": 42, "velocity": 80, "note_on_time": 2.395, "note_off_time": 2.739}, {"pitch": 64, "velocity": 80, "note_on_time": 2.739, "note_off_time": 3.08}, {"pitch": 42, "velocity": 80, "note_on_time": 2.739, "note_off_time": 3.08}, {"pitch": 60, "velocity": 80, "note_on_time": 3.08, "note_off_time": 3.425}, {"pitch": 42, "velocity": 80, "note_on_time": 3.081, "note_off_time": 3.425}, {"pitch": 42, "velocity": 80, "note_on_time": 3.425, "note_off_time": 3.769}, {"pitch": 64, "velocity": 80, "note_on_time": 3.769, "note_off_time": 4.114}, {"pitch": 42, "velocity": 80, "note_on_time": 3.769, "note_off_time": 4.114}, {"pitch": 42, "velocity": 80, "note_on_time": 4.115, "note_off_time": 4.455}, {"pitch": 64, "velocity": 80, "note_on_time": 4.114, "note_off_time": 4.799}, {"pitch": 42, "velocity": 80, "note_on_time": 4.455, "note_off_time": 4.799}, {"pitch": 42, "velocity": 80, "note_on_time": 4.799, "note_off_time": 5.143}, {"pitch": 42, "velocity": 80, "note_on_time": 5.144, "note_off_time": 5.485}, {"pitch": 42, "velocity": 80, "note_on_time": 5.486, "note_off_time": 5.828}, {"pitch": 60, "velocity": 80, "note_on_time": 5.485, "note_off_time": 6.172}, {"pitch": 42, "velocity": 80, "note_on_time": 5.828, "note_off_time": 6.172}, {"pitch": 42, "velocity": 80, "note_on_time": 6.172, "note_off_time": 6.518}, {"pitch": 42, "velocity": 80, "note_on_time": 6.518, "note_off_time": 6.861}, {"pitch": 62, "velocity": 80, "note_on_time": 6.861, "note_off_time": 7.203}, {"pitch": 42, "velocity": 80, "note_on_time": 6.861, "note_off_time": 7.203}, {"pitch": 60, "velocity": 80, "note_on_time": 7.203, "note_off_time": 7.546}, {"pitch": 42, "velocity": 80, "note_on_time": 7.203, "note_off_time": 7.546}, {"pitch": 60, "velocity": 80, "note_on_time": 7.546, "note_off_time": 7.889}, {"pitch": 42, "velocity": 80, "note_on_time": 7.547, "note_off_time": 7.889}, {"pitch": 62, "velocity": 80, "note_on_time": 7.889, "note_off_time": 8.22}, {"pitch": 42, "velocity": 80, "note_on_time": 7.89, "note_off_time": 8.22}, {"pitch": 64, "velocity": 80, "note_on_time": 8.22, "note_off_time": 8.563}, {"pitch": 42, "velocity": 80, "note_on_time": 8.22, "note_off_time": 8.563}, {"pitch": 64, "velocity": 80, "note_on_time": 8.563, "note_off_time": 8.908}, {"pitch": 42, "velocity": 80, "note_on_time": 8.563, "note_off_time": 8.908}, {"pitch": 64, "velocity": 80, "note_on_time": 8.908, "note_off_time": 9.25}, {"pitch": 42, "velocity": 80, "note_on_time": 8.908, "note_off_time": 9.25}, {"pitch": 64, "velocity": 80, "note_on_time": 9.25, "note_off_time": 9.592}, {"pitch": 42, "velocity": 80, "note_on_time": 9.251, "note_off_time": 9.592}, {"pitch": 42, "velocity": 80, "note_on_time": 9.592, "note_off_time": 9.936}, {"pitch": 62, "velocity": 80, "note_on_time": 9.592, "note_off_time": 10.278}, {"pitch": 42, "velocity": 80, "note_on_time": 9.937, "note_off_time": 10.278}, {"pitch": 42, "velocity": 80, "note_on_time": 10.279, "note_off_time": 10.622}, {"pitch": 42, "velocity": 80, "note_on_time": 10.622, "note_off_time": 10.966}, {"pitch": 42, "velocity": 80, "note_on_time": 10.966, "note_off_time": 11.31}, {"pitch": 62, "velocity": 80, "note_on_time": 11.31, "note_off_time": 11.656}, {"pitch": 42, "velocity": 80, "note_on_time": 11.311, "note_off_time": 11.656}, {"pitch": 62, "velocity": 80, "note_on_time": 11.656, "note_off_time": 11.998}, {"pitch": 42, "velocity": 80, "note_on_time": 11.657, "note_off_time": 11.998}, {"pitch": 62, "velocity": 80, "note_on_time": 11.998, "note_off_time": 12.344}, {"pitch": 42, "velocity": 80, "note_on_time": 11.999, "note_off_time": 12.345}]</notes><options name="Option List">((4, 4), [0.5, 0.25], 3, 8, &lt;NoteRangePerHand.THREE_NOTES: 4&gt;, &lt;NoteRangePerHand.ONE_NOTE: 2&gt;, False, True, False, 182)</options></target_notes><trials><trial trial_no="1" timestamp="2022_12_08-12_02_39"><notes name="Played Notes">[{"pitch": 62, "velocity": 85, "note_on_time": 1.361, "note_off_time": 1.891}, {"pitch": 64, "velocity": 84, "note_on_time": 2.728, "note_off_time": 2.866}, {"pitch": 60, "velocity": 89, "note_on_time": 3.096, "note_off_time": 3.236}, {"pitch": 65, "velocity": 87, "note_on_time": 3.776, "note_off_time": 3.919}, {"pitch": 65, "velocity": 88, "note_on_time": 4.128, "note_off_time": 4.557}, {"pitch": 60, "velocity": 90, "note_on_time": 5.506, "note_off_time": 5.971}, {"pitch": 62, "velocity": 74, "note_on_time": 6.867, "note_off_time": 7.027}, {"pitch": 60, "velocity": 81, "note_on_time": 7.197, "note_off_time": 7.329}, {"pitch": 60, "velocity": 83, "note_on_time": 7.555, "note_off_time": 7.7}, {"pitch": 62, "velocity": 81, "note_on_time": 7.905, "note_off_time": 8.061}, {"pitch": 65, "velocity": 80, "note_on_time": 8.271, "note_off_time": 8.405}, {"pitch": 65, "velocity": 85, "note_on_time": 8.606, "note_off_time": 8.728}, {"pitch": 65, "velocity": 77, "note_on_time": 8.955, "note_off_time": 9.091}, {"pitch": 62, "velocity": 79, "note_on_time": 9.279, "note_off_time": 9.576}, {"pitch": 62, "velocity": 85, "note_on_time": 11.267, "note_off_time": 11.375}, {"pitch": 62, "velocity": 89, "note_on_time": 11.605, "note_off_time": 11.713}, {"pitch": 62, "velocity": 95, "note_on_time": 11.934, "note_off_time": 12.098}]</notes><guidance name="Guidance Mode">None</guidance><error name="Error value">0.5343513333333334</error></trial><trial trial_no="2" timestamp="2022_12_08-12_03_04"><notes name="Played Notes">[{"pitch": 62, "velocity": 95, "note_on_time": 1.386, "note_off_time": 1.903}, {"pitch": 64, "velocity": 73, "note_on_time": 2.73, "note_off_time": 2.949}, {"pitch": 60, "velocity": 82, "note_on_time": 3.103, "note_off_time": 3.305}, {"pitch": 65, "velocity": 90, "note_on_time": 3.795, "note_off_time": 3.961}, {"pitch": 65, "velocity": 89, "note_on_time": 4.141, "note_off_time": 4.602}, {"pitch": 60, "velocity": 77, "note_on_time": 5.491, "note_off_time": 6.009}, {"pitch": 62, "velocity": 82, "note_on_time": 6.824, "note_off_time": 7.011}, {"pitch": 60, "velocity": 74, "note_on_time": 7.162, "note_off_time": 7.313}, {"pitch": 62, "velocity": 80, "note_on_time": 7.528, "note_off_time": 7.655}, {"pitch": 62, "velocity": 81, "note_on_time": 7.896, "note_off_time": 8.011}, {"pitch": 64, "velocity": 81, "note_on_time": 8.216, "note_off_time": 8.386}, {"pitch": 64, "velocity": 84, "note_on_time": 8.569, "note_off_time": 8.717}, {"pitch": 64, "velocity": 84, "note_on_time": 8.911, "note_off_time": 9.049}, {"pitch": 64, "velocity": 88, "note_on_time": 9.247, "note_off_time": 9.337}, {"pitch": 62, "velocity": 84, "note_on_time": 9.875, "note_off_time": 10.474}, {"pitch": 62, "velocity": 87, "note_on_time": 11.286, "note_off_time": 11.419}, {"pitch": 62, "velocity": 83, "note_on_time": 11.612, "note_off_time": 11.743}, {"pitch": 62, "velocity": 88, "note_on_time": 11.955, "note_off_time": 12.09}]</notes><guidance name="Guidance Mode">None</guidance><error name="Error value">0.25670733333333334</error></trial><trial trial_no="3" timestamp="2022_12_08-12_03_26"><notes name="Played Notes">[{"pitch": 62, "velocity": 83, "note_on_time": 1.333, "note_off_time": 1.952}, {"pitch": 64, "velocity": 80, "note_on_time": 2.697, "note_off_time": 2.897}, {"pitch": 60, "velocity": 83, "note_on_time": 3.068, "note_off_time": 3.247}, {"pitch": 65, "velocity": 90, "note_on_time": 3.779, "note_off_time": 3.915}, {"pitch": 65, "velocity": 90, "note_on_time": 4.142, "note_off_time": 4.608}, {"pitch": 60, "velocity": 88, "note_on_time": 5.49, "note_off_time": 5.919}, {"pitch": 62, "velocity": 78, "note_on_time": 6.879, "note_off_time": 7.029}, {"pitch": 60, "velocity": 77, "note_on_time": 7.203, "note_off_time": 7.331}, {"pitch": 62, "velocity": 73, "note_on_time": 7.568, "note_off_time": 7.68}, {"pitch": 62, "velocity": 72, "note_on_time": 7.911, "note_off_time": 8.032}, {"pitch": 64, "velocity": 79, "note_on_time": 8.259, "note_off_time": 8.387}, {"pitch": 64, "velocity": 73, "note_on_time": 8.603, "note_off_time": 8.729}, {"pitch": 64, "velocity": 85, "note_on_time": 8.936, "note_off_time": 9.109}, {"pitch": 62, "velocity": 82, "note_on_time": 9.253, "note_off_time": 9.793}, {"pitch": 62, "velocity": 98, "note_on_time": 10.712, "note_off_time": 10.856}, {"pitch": 62, "velocity": 82, "note_on_time": 10.993, "note_off_time": 11.123}, {"pitch": 62, "velocity": 87, "note_on_time": 11.302, "note_off_time": 11.472}]</notes><guidance name="Guidance Mode">None</guidance><error name="Error value">0.32999733333333325</error></trial></trials></MIDI>