<MIDI midiNo="2022_12_22-11_04_10"><target_notes><notes name="Note List">[{"pitch": 42, "velocity": 80, "note_on_time": 0.004, "note_off_time": 0.74}, {"pitch": 42, "velocity": 80, "note_on_time": 0.74, "note_off_time": 1.473}, {"pitch": 42, "velocity": 80, "note_on_time": 1.474, "note_off_time": 2.206}, {"pitch": 42, "velocity": 80, "note_on_time": 2.206, "note_off_time": 2.936}, {"pitch": 62, "velocity": 80, "note_on_time": 2.936, "note_off_time": 3.67}, {"pitch": 42, "velocity": 80, "note_on_time": 2.937, "note_off_time": 3.671}, {"pitch": 60, "velocity": 80, "note_on_time": 3.67, "note_off_time": 4.405}, {"pitch": 42, "velocity": 80, "note_on_time": 3.671, "note_off_time": 4.405}, {"pitch": 62, "velocity": 80, "note_on_time": 4.405, "note_off_time": 5.14}, {"pitch": 42, "velocity": 80, "note_on_time": 4.405, "note_off_time": 5.14}, {"pitch": 62, "velocity": 80, "note_on_time": 5.14, "note_off_time": 5.873}, {"pitch": 42, "velocity": 80, "note_on_time": 5.14, "note_off_time": 5.874}, {"pitch": 64, "velocity": 80, "note_on_time": 5.873, "note_off_time": 6.609}, {"pitch": 42, "velocity": 80, "note_on_time": 5.874, "note_off_time": 6.609}, {"pitch": 60, "velocity": 80, "note_on_time": 6.609, "note_off_time": 7.342}, {"pitch": 42, "velocity": 80, "note_on_time": 6.61, "note_off_time": 7.342}, {"pitch": 64, "velocity": 80, "note_on_time": 7.342, "note_off_time": 8.075}, {"pitch": 42, "velocity": 80, "note_on_time": 7.342, "note_off_time": 8.075}, {"pitch": 60, "velocity": 80, "note_on_time": 8.075, "note_off_time": 8.808}, {"pitch": 42, "velocity": 80, "note_on_time": 8.076, "note_off_time": 8.808}, {"pitch": 64, "velocity": 80, "note_on_time": 8.808, "note_off_time": 9.536}, {"pitch": 42, "velocity": 80, "note_on_time": 8.808, "note_off_time": 9.537}, {"pitch": 64, "velocity": 80, "note_on_time": 9.536, "note_off_time": 10.268}, {"pitch": 42, "velocity": 80, "note_on_time": 9.537, "note_off_time": 10.268}, {"pitch": 62, "velocity": 80, "note_on_time": 10.268, "note_off_time": 10.998}, {"pitch": 42, "velocity": 80, "note_on_time": 10.268, "note_off_time": 10.998}, {"pitch": 64, "velocity": 80, "note_on_time": 10.998, "note_off_time": 11.733}, {"pitch": 42, "velocity": 80, "note_on_time": 10.999, "note_off_time": 11.733}, {"pitch": 42, "velocity": 80, "note_on_time": 11.734, "note_off_time": 12.467}, {"pitch": 60, "velocity": 80, "note_on_time": 11.733, "note_off_time": 13.196}, {"pitch": 42, "velocity": 80, "note_on_time": 12.467, "note_off_time": 13.196}, {"pitch": 42, "velocity": 80, "note_on_time": 13.196, "note_off_time": 13.928}, {"pitch": 42, "velocity": 80, "note_on_time": 13.929, "note_off_time": 14.659}, {"pitch": 64, "velocity": 80, "note_on_time": 14.659, "note_off_time": 15.39}, {"pitch": 42, "velocity": 80, "note_on_time": 14.659, "note_off_time": 15.39}, {"pitch": 60, "velocity": 80, "note_on_time": 15.39, "note_off_time": 16.126}, {"pitch": 42, "velocity": 80, "note_on_time": 15.39, "note_off_time": 16.126}, {"pitch": 42, "velocity": 80, "note_on_time": 16.126, "note_off_time": 16.863}, {"pitch": 60, "velocity": 80, "note_on_time": 16.126, "note_off_time": 17.593}, {"pitch": 42, "velocity": 80, "note_on_time": 16.863, "note_off_time": 17.593}, {"pitch": 42, "velocity": 80, "note_on_time": 17.594, "note_off_time": 18.327}, {"pitch": 62, "velocity": 80, "note_on_time": 17.593, "note_off_time": 19.06}, {"pitch": 42, "velocity": 80, "note_on_time": 18.327, "note_off_time": 19.06}, {"pitch": 42, "velocity": 80, "note_on_time": 19.06, "note_off_time": 19.791}, {"pitch": 42, "velocity": 80, "note_on_time": 19.791, "note_off_time": 20.522}, {"pitch": 60, "velocity": 80, "note_on_time": 20.522, "note_off_time": 21.254}, {"pitch": 42, "velocity": 80, "note_on_time": 20.522, "note_off_time": 21.254}, {"pitch": 42, "velocity": 80, "note_on_time": 21.254, "note_off_time": 21.988}, {"pitch": 42, "velocity": 80, "note_on_time": 21.988, "note_off_time": 22.719}, {"pitch": 62, "velocity": 80, "note_on_time": 22.715, "note_off_time": 23.446}, {"pitch": 42, "velocity": 80, "note_on_time": 22.719, "note_off_time": 23.447}, {"pitch": 42, "velocity": 80, "note_on_time": 23.447, "note_off_time": 24.177}, {"pitch": 62, "velocity": 80, "note_on_time": 24.177, "note_off_time": 24.909}, {"pitch": 42, "velocity": 80, "note_on_time": 24.177, "note_off_time": 24.909}, {"pitch": 62, "velocity": 80, "note_on_time": 24.909, "note_off_time": 25.641}, {"pitch": 42, "velocity": 80, "note_on_time": 24.909, "note_off_time": 25.642}, {"pitch": 62, "velocity": 80, "note_on_time": 25.641, "note_off_time": 26.369}, {"pitch": 42, "velocity": 80, "note_on_time": 25.642, "note_off_time": 26.369}]</notes><options name="Option List">((4, 4), [0.5, 0.25], 3, 8, &lt;NoteRangePerHand.THREE_NOTES: 4&gt;, &lt;NoteRangePerHand.ONE_NOTE: 2&gt;, False, True, False, 83)</options></target_notes><trials><trial trial_no="1" timestamp="2022_12_22-11_03_42"><notes name="Played Notes">[{"pitch": 62, "velocity": 54, "note_on_time": 2.91, "note_off_time": 3.301}, {"pitch": 60, "velocity": 56, "note_on_time": 3.628, "note_off_time": 4.027}, {"pitch": 62, "velocity": 55, "note_on_time": 4.383, "note_off_time": 4.699}, {"pitch": 62, "velocity": 59, "note_on_time": 5.111, "note_off_time": 5.434}, {"pitch": 64, "velocity": 62, "note_on_time": 5.872, "note_off_time": 6.307}, {"pitch": 60, "velocity": 68, "note_on_time": 6.587, "note_off_time": 6.981}, {"pitch": 64, "velocity": 58, "note_on_time": 7.36, "note_off_time": 7.802}, {"pitch": 60, "velocity": 56, "note_on_time": 8.08, "note_off_time": 8.518}, {"pitch": 64, "velocity": 61, "note_on_time": 8.749, "note_off_time": 9.115}, {"pitch": 64, "velocity": 51, "note_on_time": 9.503, "note_off_time": 9.79}, {"pitch": 62, "velocity": 60, "note_on_time": 10.167, "note_off_time": 10.525}, {"pitch": 64, "velocity": 61, "note_on_time": 10.883, "note_off_time": 11.202}, {"pitch": 60, "velocity": 68, "note_on_time": 11.604, "note_off_time": 12.42}, {"pitch": 64, "velocity": 61, "note_on_time": 14.633, "note_off_time": 15.023}, {"pitch": 60, "velocity": 57, "note_on_time": 15.329, "note_off_time": 15.691}, {"pitch": 60, "velocity": 57, "note_on_time": 16.021, "note_off_time": 17.096}, {"pitch": 62, "velocity": 55, "note_on_time": 17.535, "note_off_time": 18.938}, {"pitch": 60, "velocity": 58, "note_on_time": 20.489, "note_off_time": 20.84}, {"pitch": 62, "velocity": 61, "note_on_time": 22.577, "note_off_time": 22.956}, {"pitch": 62, "velocity": 52, "note_on_time": 24.192, "note_off_time": 24.509}, {"pitch": 62, "velocity": 52, "note_on_time": 24.904, "note_off_time": 25.193}, {"pitch": 62, "velocity": 56, "note_on_time": 25.599, "note_off_time": 25.795}]</notes><guidance name="Guidance Mode">None</guidance><error name="Error value">0.047806684210526355</error></trial></trials></MIDI>