<MIDI midiNo="2022_08_17-15_06_40"><target_notes><notes name="Note List">[{"pitch": 42, "velocity": 80, "note_on_time": 0.004, "note_off_time": 0.417}, {"pitch": 42, "velocity": 80, "note_on_time": 0.417, "note_off_time": 0.824}, {"pitch": 42, "velocity": 80, "note_on_time": 0.824, "note_off_time": 1.233}, {"pitch": 42, "velocity": 80, "note_on_time": 1.233, "note_off_time": 1.638}, {"pitch": 60, "velocity": 80, "note_on_time": 1.638, "note_off_time": 2.046}, {"pitch": 42, "velocity": 80, "note_on_time": 1.638, "note_off_time": 2.046}, {"pitch": 65, "velocity": 80, "note_on_time": 2.046, "note_off_time": 2.451}, {"pitch": 42, "velocity": 80, "note_on_time": 2.047, "note_off_time": 2.451}, {"pitch": 60, "velocity": 80, "note_on_time": 2.451, "note_off_time": 2.859}, {"pitch": 42, "velocity": 80, "note_on_time": 2.451, "note_off_time": 2.859}, {"pitch": 67, "velocity": 80, "note_on_time": 2.859, "note_off_time": 3.266}, {"pitch": 42, "velocity": 80, "note_on_time": 2.86, "note_off_time": 3.266}, {"pitch": 62, "velocity": 80, "note_on_time": 3.266, "note_off_time": 3.67}, {"pitch": 42, "velocity": 80, "note_on_time": 3.266, "note_off_time": 3.671}, {"pitch": 42, "velocity": 80, "note_on_time": 3.671, "note_off_time": 4.076}, {"pitch": 67, "velocity": 80, "note_on_time": 3.67, "note_off_time": 4.479}, {"pitch": 42, "velocity": 80, "note_on_time": 4.076, "note_off_time": 4.48}, {"pitch": 42, "velocity": 80, "note_on_time": 4.48, "note_off_time": 4.886}, {"pitch": 42, "velocity": 80, "note_on_time": 4.887, "note_off_time": 5.292}, {"pitch": 64, "velocity": 80, "note_on_time": 4.886, "note_off_time": 5.698}, {"pitch": 42, "velocity": 80, "note_on_time": 5.292, "note_off_time": 5.698}, {"pitch": 42, "velocity": 80, "note_on_time": 5.699, "note_off_time": 6.106}, {"pitch": 65, "velocity": 80, "note_on_time": 6.106, "note_off_time": 6.512}, {"pitch": 42, "velocity": 80, "note_on_time": 6.106, "note_off_time": 6.512}, {"pitch": 62, "velocity": 80, "note_on_time": 6.512, "note_off_time": 6.916}, {"pitch": 42, "velocity": 80, "note_on_time": 6.513, "note_off_time": 6.916}, {"pitch": 60, "velocity": 80, "note_on_time": 6.916, "note_off_time": 7.326}, {"pitch": 42, "velocity": 80, "note_on_time": 6.916, "note_off_time": 7.326}, {"pitch": 42, "velocity": 80, "note_on_time": 7.327, "note_off_time": 7.735}, {"pitch": 64, "velocity": 80, "note_on_time": 7.326, "note_off_time": 8.142}, {"pitch": 42, "velocity": 80, "note_on_time": 7.735, "note_off_time": 8.142}, {"pitch": 67, "velocity": 80, "note_on_time": 8.142, "note_off_time": 8.547}, {"pitch": 42, "velocity": 80, "note_on_time": 8.142, "note_off_time": 8.547}, {"pitch": 65, "velocity": 80, "note_on_time": 8.547, "note_off_time": 8.954}, {"pitch": 42, "velocity": 80, "note_on_time": 8.548, "note_off_time": 8.954}, {"pitch": 62, "velocity": 80, "note_on_time": 8.954, "note_off_time": 9.362}, {"pitch": 42, "velocity": 80, "note_on_time": 8.954, "note_off_time": 9.362}, {"pitch": 62, "velocity": 80, "note_on_time": 9.362, "note_off_time": 9.765}, {"pitch": 42, "velocity": 80, "note_on_time": 9.362, "note_off_time": 9.765}, {"pitch": 62, "velocity": 80, "note_on_time": 9.765, "note_off_time": 10.169}, {"pitch": 42, "velocity": 80, "note_on_time": 9.765, "note_off_time": 10.169}, {"pitch": 64, "velocity": 80, "note_on_time": 10.169, "note_off_time": 10.579}, {"pitch": 42, "velocity": 80, "note_on_time": 10.17, "note_off_time": 10.579}, {"pitch": 64, "velocity": 80, "note_on_time": 10.579, "note_off_time": 10.986}, {"pitch": 42, "velocity": 80, "note_on_time": 10.579, "note_off_time": 10.986}, {"pitch": 67, "velocity": 80, "note_on_time": 10.986, "note_off_time": 11.393}, {"pitch": 42, "velocity": 80, "note_on_time": 10.986, "note_off_time": 11.393}, {"pitch": 60, "velocity": 80, "note_on_time": 11.393, "note_off_time": 11.8}, {"pitch": 42, "velocity": 80, "note_on_time": 11.394, "note_off_time": 11.8}, {"pitch": 60, "velocity": 80, "note_on_time": 11.8, "note_off_time": 12.204}, {"pitch": 42, "velocity": 80, "note_on_time": 11.801, "note_off_time": 12.204}, {"pitch": 60, "velocity": 80, "note_on_time": 12.204, "note_off_time": 12.61}, {"pitch": 42, "velocity": 80, "note_on_time": 12.204, "note_off_time": 12.611}, {"pitch": 65, "velocity": 80, "note_on_time": 12.61, "note_off_time": 13.016}, {"pitch": 42, "velocity": 80, "note_on_time": 12.611, "note_off_time": 13.016}, {"pitch": 42, "velocity": 80, "note_on_time": 13.016, "note_off_time": 13.42}, {"pitch": 65, "velocity": 80, "note_on_time": 13.42, "note_off_time": 13.826}, {"pitch": 42, "velocity": 80, "note_on_time": 13.42, "note_off_time": 13.826}, {"pitch": 65, "velocity": 80, "note_on_time": 13.826, "note_off_time": 14.231}, {"pitch": 42, "velocity": 80, "note_on_time": 13.826, "note_off_time": 14.231}, {"pitch": 65, "velocity": 80, "note_on_time": 14.231, "note_off_time": 14.636}, {"pitch": 42, "velocity": 80, "note_on_time": 14.231, "note_off_time": 14.636}]</notes><options name="Option List">((4, 4), [0.5, 0.25], 3, 8, &lt;NoteRangePerHand.C_TO_G: 6&gt;, &lt;NoteRangePerHand.ONE_NOTE: 2&gt;, False, True, True, 150)</options></target_notes><trials><trial trial_no="1" timestamp="2022_08_17-15_06_25"><notes name="Played Notes">[{"pitch": 60, "velocity": 72, "note_on_time": 1.653, "note_off_time": 1.782}, {"pitch": 65, "velocity": 72, "note_on_time": 2.058, "note_off_time": 2.192}, {"pitch": 60, "velocity": 77, "note_on_time": 2.418, "note_off_time": 2.557}, {"pitch": 67, "velocity": 67, "note_on_time": 2.844, "note_off_time": 3.006}, {"pitch": 62, "velocity": 66, "note_on_time": 3.244, "note_off_time": 3.346}, {"pitch": 67, "velocity": 74, "note_on_time": 3.657, "note_off_time": 4.145}, {"pitch": 64, "velocity": 63, "note_on_time": 4.878, "note_off_time": 5.492}, {"pitch": 65, "velocity": 74, "note_on_time": 6.501, "note_off_time": 6.614}, {"pitch": 62, "velocity": 58, "note_on_time": 6.887, "note_off_time": 6.955}, {"pitch": 60, "velocity": 78, "note_on_time": 7.315, "note_off_time": 7.392}, {"pitch": 64, "velocity": 60, "note_on_time": 7.696, "note_off_time": 8.255}, {"pitch": 67, "velocity": 70, "note_on_time": 8.593, "note_off_time": 8.832}, {"pitch": 65, "velocity": 54, "note_on_time": 8.947, "note_off_time": 9.176}, {"pitch": 62, "velocity": 64, "note_on_time": 9.32, "note_off_time": 9.421}, {"pitch": 62, "velocity": 74, "note_on_time": 9.751, "note_off_time": 9.836}, {"pitch": 62, "velocity": 77, "note_on_time": 10.171, "note_off_time": 10.237}, {"pitch": 64, "velocity": 65, "note_on_time": 10.545, "note_off_time": 10.635}, {"pitch": 64, "velocity": 66, "note_on_time": 11.018, "note_off_time": 11.091}, {"pitch": 67, "velocity": 61, "note_on_time": 11.516, "note_off_time": 11.619}, {"pitch": 60, "velocity": 73, "note_on_time": 12.043, "note_off_time": 12.14}, {"pitch": 60, "velocity": 64, "note_on_time": 12.426, "note_off_time": 12.486}, {"pitch": 65, "velocity": 64, "note_on_time": 12.895, "note_off_time": 13.012}, {"pitch": 65, "velocity": 56, "note_on_time": 14.007, "note_off_time": 14.082}, {"pitch": 65, "velocity": 62, "note_on_time": 14.394, "note_off_time": 14.478}]</notes><guidance name="Guidance Mode">None</guidance><error name="Error value">0.16982608695652168</error></trial><trial trial_no="2" timestamp="2022_08_17-15_06_51"><notes name="Played Notes">[{"pitch": 60, "velocity": 67, "note_on_time": 1.634, "note_off_time": 1.758}, {"pitch": 65, "velocity": 62, "note_on_time": 2.057, "note_off_time": 2.197}, {"pitch": 60, "velocity": 66, "note_on_time": 2.427, "note_off_time": 2.557}, {"pitch": 67, "velocity": 62, "note_on_time": 2.82, "note_off_time": 2.943}, {"pitch": 62, "velocity": 68, "note_on_time": 3.226, "note_off_time": 3.316}, {"pitch": 67, "velocity": 68, "note_on_time": 3.624, "note_off_time": 4.041}, {"pitch": 64, "velocity": 68, "note_on_time": 4.858, "note_off_time": 5.326}, {"pitch": 65, "velocity": 72, "note_on_time": 6.485, "note_off_time": 6.601}, {"pitch": 62, "velocity": 72, "note_on_time": 6.894, "note_off_time": 7.005}, {"pitch": 60, "velocity": 75, "note_on_time": 7.301, "note_off_time": 7.402}, {"pitch": 64, "velocity": 71, "note_on_time": 7.712, "note_off_time": 8.282}, {"pitch": 67, "velocity": 71, "note_on_time": 8.657, "note_off_time": 8.861}, {"pitch": 65, "velocity": 69, "note_on_time": 9.069, "note_off_time": 9.202}, {"pitch": 62, "velocity": 71, "note_on_time": 9.481, "note_off_time": 9.548}, {"pitch": 62, "velocity": 62, "note_on_time": 9.911, "note_off_time": 9.97}, {"pitch": 62, "velocity": 73, "note_on_time": 10.382, "note_off_time": 10.441}, {"pitch": 64, "velocity": 74, "note_on_time": 10.845, "note_off_time": 10.931}, {"pitch": 64, "velocity": 82, "note_on_time": 11.276, "note_off_time": 11.334}, {"pitch": 67, "velocity": 68, "note_on_time": 11.733, "note_off_time": 11.85}, {"pitch": 60, "velocity": 75, "note_on_time": 12.176, "note_off_time": 12.234}, {"pitch": 60, "velocity": 76, "note_on_time": 12.611, "note_off_time": 12.702}, {"pitch": 60, "velocity": 74, "note_on_time": 13.059, "note_off_time": 13.112}, {"pitch": 65, "velocity": 78, "note_on_time": 13.51, "note_off_time": 13.598}, {"pitch": 65, "velocity": 84, "note_on_time": 14.243, "note_off_time": 14.354}]</notes><guidance name="Guidance Mode">None</guidance><error name="Error value">0.1748260869565215</error></trial><trial trial_no="3" timestamp="2022_08_17-15_07_17"><notes name="Played Notes">[{"pitch": 60, "velocity": 74, "note_on_time": 1.638, "note_off_time": 1.762}, {"pitch": 65, "velocity": 69, "note_on_time": 2.06, "note_off_time": 2.188}, {"pitch": 60, "velocity": 77, "note_on_time": 2.443, "note_off_time": 2.576}, {"pitch": 67, "velocity": 69, "note_on_time": 2.84, "note_off_time": 2.979}, {"pitch": 62, "velocity": 76, "note_on_time": 3.241, "note_off_time": 3.348}, {"pitch": 67, "velocity": 77, "note_on_time": 3.642, "note_off_time": 4.227}, {"pitch": 64, "velocity": 71, "note_on_time": 4.886, "note_off_time": 5.42}, {"pitch": 65, "velocity": 72, "note_on_time": 6.53, "note_off_time": 6.627}, {"pitch": 62, "velocity": 84, "note_on_time": 6.911, "note_off_time": 6.99}, {"pitch": 60, "velocity": 82, "note_on_time": 7.321, "note_off_time": 7.388}, {"pitch": 64, "velocity": 67, "note_on_time": 7.718, "note_off_time": 8.383}, {"pitch": 67, "velocity": 75, "note_on_time": 8.96, "note_off_time": 9.097}, {"pitch": 65, "velocity": 70, "note_on_time": 9.323, "note_off_time": 9.448}, {"pitch": 62, "velocity": 75, "note_on_time": 9.741, "note_off_time": 9.806}, {"pitch": 62, "velocity": 80, "note_on_time": 10.148, "note_off_time": 10.232}, {"pitch": 62, "velocity": 69, "note_on_time": 10.56, "note_off_time": 10.628}, {"pitch": 64, "velocity": 76, "note_on_time": 10.961, "note_off_time": 11.035}, {"pitch": 64, "velocity": 79, "note_on_time": 11.379, "note_off_time": 11.45}, {"pitch": 67, "velocity": 78, "note_on_time": 11.789, "note_off_time": 11.901}, {"pitch": 60, "velocity": 74, "note_on_time": 12.194, "note_off_time": 12.279}, {"pitch": 60, "velocity": 76, "note_on_time": 12.644, "note_off_time": 12.703}, {"pitch": 60, "velocity": 67, "note_on_time": 13.055, "note_off_time": 13.151}, {"pitch": 65, "velocity": 82, "note_on_time": 13.432, "note_off_time": 13.544}, {"pitch": 65, "velocity": 89, "note_on_time": 14.233, "note_off_time": 14.343}]</notes><guidance name="Guidance Mode">None</guidance><error name="Error value">0.17386956521739122</error></trial></trials></MIDI>