<MIDI midiNo="2022_10_26-14_23_17"><target_notes><notes name="Note List">[{"pitch": 42, "velocity": 80, "note_on_time": 0.004, "note_off_time": 0.221}, {"pitch": 42, "velocity": 80, "note_on_time": 0.222, "note_off_time": 0.439}, {"pitch": 42, "velocity": 80, "note_on_time": 0.439, "note_off_time": 0.655}, {"pitch": 42, "velocity": 80, "note_on_time": 0.655, "note_off_time": 0.874}, {"pitch": 64, "velocity": 80, "note_on_time": 0.874, "note_off_time": 1.091}, {"pitch": 42, "velocity": 80, "note_on_time": 0.874, "note_off_time": 1.091}, {"pitch": 60, "velocity": 80, "note_on_time": 1.091, "note_off_time": 1.307}, {"pitch": 42, "velocity": 80, "note_on_time": 1.091, "note_off_time": 1.307}, {"pitch": 62, "velocity": 80, "note_on_time": 1.307, "note_off_time": 1.524}, {"pitch": 42, "velocity": 80, "note_on_time": 1.307, "note_off_time": 1.524}, {"pitch": 60, "velocity": 80, "note_on_time": 1.524, "note_off_time": 1.742}, {"pitch": 42, "velocity": 80, "note_on_time": 1.524, "note_off_time": 1.742}, {"pitch": 67, "velocity": 80, "note_on_time": 1.742, "note_off_time": 1.96}, {"pitch": 42, "velocity": 80, "note_on_time": 1.742, "note_off_time": 1.96}, {"pitch": 60, "velocity": 80, "note_on_time": 1.96, "note_off_time": 2.179}, {"pitch": 42, "velocity": 80, "note_on_time": 1.96, "note_off_time": 2.179}, {"pitch": 64, "velocity": 80, "note_on_time": 2.179, "note_off_time": 2.399}, {"pitch": 42, "velocity": 80, "note_on_time": 2.179, "note_off_time": 2.399}, {"pitch": 64, "velocity": 80, "note_on_time": 2.399, "note_off_time": 2.617}, {"pitch": 42, "velocity": 80, "note_on_time": 2.399, "note_off_time": 2.617}, {"pitch": 67, "velocity": 80, "note_on_time": 2.617, "note_off_time": 2.836}, {"pitch": 42, "velocity": 80, "note_on_time": 2.617, "note_off_time": 2.836}, {"pitch": 62, "velocity": 80, "note_on_time": 2.836, "note_off_time": 3.055}, {"pitch": 42, "velocity": 80, "note_on_time": 2.836, "note_off_time": 3.055}, {"pitch": 62, "velocity": 80, "note_on_time": 3.055, "note_off_time": 3.273}, {"pitch": 42, "velocity": 80, "note_on_time": 3.055, "note_off_time": 3.273}, {"pitch": 62, "velocity": 80, "note_on_time": 3.273, "note_off_time": 3.49}, {"pitch": 42, "velocity": 80, "note_on_time": 3.273, "note_off_time": 3.49}, {"pitch": 64, "velocity": 80, "note_on_time": 3.49, "note_off_time": 3.708}, {"pitch": 42, "velocity": 80, "note_on_time": 3.49, "note_off_time": 3.708}, {"pitch": 60, "velocity": 80, "note_on_time": 3.708, "note_off_time": 3.926}, {"pitch": 42, "velocity": 80, "note_on_time": 3.708, "note_off_time": 3.926}, {"pitch": 62, "velocity": 80, "note_on_time": 3.926, "note_off_time": 4.143}, {"pitch": 42, "velocity": 80, "note_on_time": 3.926, "note_off_time": 4.143}, {"pitch": 60, "velocity": 80, "note_on_time": 4.143, "note_off_time": 4.361}, {"pitch": 42, "velocity": 80, "note_on_time": 4.143, "note_off_time": 4.361}, {"pitch": 64, "velocity": 80, "note_on_time": 4.361, "note_off_time": 4.579}, {"pitch": 42, "velocity": 80, "note_on_time": 4.361, "note_off_time": 4.579}, {"pitch": 64, "velocity": 80, "note_on_time": 4.579, "note_off_time": 4.797}, {"pitch": 42, "velocity": 80, "note_on_time": 4.579, "note_off_time": 4.797}, {"pitch": 60, "velocity": 80, "note_on_time": 4.797, "note_off_time": 5.014}, {"pitch": 42, "velocity": 80, "note_on_time": 4.797, "note_off_time": 5.014}, {"pitch": 67, "velocity": 80, "note_on_time": 5.014, "note_off_time": 5.232}, {"pitch": 42, "velocity": 80, "note_on_time": 5.014, "note_off_time": 5.232}, {"pitch": 42, "velocity": 80, "note_on_time": 5.232, "note_off_time": 5.449}, {"pitch": 65, "velocity": 80, "note_on_time": 5.232, "note_off_time": 5.669}, {"pitch": 42, "velocity": 80, "note_on_time": 5.449, "note_off_time": 5.669}, {"pitch": 64, "velocity": 80, "note_on_time": 5.669, "note_off_time": 5.888}, {"pitch": 42, "velocity": 80, "note_on_time": 5.669, "note_off_time": 5.888}, {"pitch": 65, "velocity": 80, "note_on_time": 5.888, "note_off_time": 6.106}, {"pitch": 42, "velocity": 80, "note_on_time": 5.889, "note_off_time": 6.106}, {"pitch": 60, "velocity": 80, "note_on_time": 6.106, "note_off_time": 6.324}, {"pitch": 42, "velocity": 80, "note_on_time": 6.107, "note_off_time": 6.324}, {"pitch": 62, "velocity": 80, "note_on_time": 6.324, "note_off_time": 6.542}, {"pitch": 42, "velocity": 80, "note_on_time": 6.324, "note_off_time": 6.542}, {"pitch": 65, "velocity": 80, "note_on_time": 6.542, "note_off_time": 6.759}, {"pitch": 42, "velocity": 80, "note_on_time": 6.542, "note_off_time": 6.759}, {"pitch": 62, "velocity": 80, "note_on_time": 6.759, "note_off_time": 6.977}, {"pitch": 42, "velocity": 80, "note_on_time": 6.759, "note_off_time": 6.977}, {"pitch": 42, "velocity": 80, "note_on_time": 6.978, "note_off_time": 7.196}, {"pitch": 62, "velocity": 80, "note_on_time": 7.196, "note_off_time": 7.414}, {"pitch": 42, "velocity": 80, "note_on_time": 7.196, "note_off_time": 7.414}, {"pitch": 62, "velocity": 80, "note_on_time": 7.414, "note_off_time": 7.634}, {"pitch": 42, "velocity": 80, "note_on_time": 7.414, "note_off_time": 7.634}, {"pitch": 62, "velocity": 80, "note_on_time": 7.634, "note_off_time": 7.851}, {"pitch": 42, "velocity": 80, "note_on_time": 7.635, "note_off_time": 7.851}]</notes><options name="Option List">((4, 4), [0.5, 0.25], 3, 8, &lt;NoteRangePerHand.C_TO_G: 6&gt;, &lt;NoteRangePerHand.ONE_NOTE: 2&gt;, False, True, True, 281)</options></target_notes><trials><trial trial_no="1" timestamp="2022_10_26-14_23_08"><notes name="Played Notes">[{"pitch": 64, "velocity": 68, "note_on_time": 0.902, "note_off_time": 1.128}, {"pitch": 60, "velocity": 68, "note_on_time": 1.119, "note_off_time": 1.356}, {"pitch": 62, "velocity": 74, "note_on_time": 1.359, "note_off_time": 1.572}, {"pitch": 60, "velocity": 70, "note_on_time": 1.575, "note_off_time": 1.769}, {"pitch": 67, "velocity": 72, "note_on_time": 1.779, "note_off_time": 1.983}, {"pitch": 60, "velocity": 72, "note_on_time": 1.991, "note_off_time": 2.223}, {"pitch": 64, "velocity": 73, "note_on_time": 2.205, "note_off_time": 2.291}, {"pitch": 64, "velocity": 72, "note_on_time": 2.423, "note_off_time": 2.599}, {"pitch": 67, "velocity": 73, "note_on_time": 2.629, "note_off_time": 2.866}, {"pitch": 62, "velocity": 73, "note_on_time": 2.861, "note_off_time": 2.922}, {"pitch": 62, "velocity": 76, "note_on_time": 3.073, "note_off_time": 3.14}, {"pitch": 62, "velocity": 73, "note_on_time": 3.277, "note_off_time": 3.494}, {"pitch": 64, "velocity": 67, "note_on_time": 3.636, "note_off_time": 3.784}, {"pitch": 60, "velocity": 39, "note_on_time": 3.852, "note_off_time": 3.895}, {"pitch": 64, "velocity": 80, "note_on_time": 4.026, "note_off_time": 4.088}, {"pitch": 64, "velocity": 78, "note_on_time": 4.417, "note_off_time": 4.501}, {"pitch": 64, "velocity": 79, "note_on_time": 4.623, "note_off_time": 4.796}, {"pitch": 60, "velocity": 77, "note_on_time": 4.826, "note_off_time": 4.993}, {"pitch": 67, "velocity": 69, "note_on_time": 5.024, "note_off_time": 5.241}, {"pitch": 65, "velocity": 75, "note_on_time": 5.245, "note_off_time": 5.654}, {"pitch": 64, "velocity": 67, "note_on_time": 5.672, "note_off_time": 5.838}, {"pitch": 65, "velocity": 57, "note_on_time": 5.863, "note_off_time": 6.077}, {"pitch": 60, "velocity": 67, "note_on_time": 6.082, "note_off_time": 6.279}, {"pitch": 62, "velocity": 66, "note_on_time": 6.306, "note_off_time": 6.493}, {"pitch": 65, "velocity": 74, "note_on_time": 6.511, "note_off_time": 6.728}, {"pitch": 62, "velocity": 83, "note_on_time": 6.723, "note_off_time": 6.944}, {"pitch": 62, "velocity": 77, "note_on_time": 7.205, "note_off_time": 7.263}, {"pitch": 62, "velocity": 78, "note_on_time": 7.42, "note_off_time": 7.476}, {"pitch": 62, "velocity": 79, "note_on_time": 7.645, "note_off_time": 7.72}]</notes><guidance name="Guidance Mode">None</guidance><error name="Error value">0.09792592592592587</error></trial></trials></MIDI>