<MIDI midiNo="2022_11_21-18_57_41"><target_notes><notes name="Note List">[{"pitch": 42, "velocity": 80, "note_on_time": 0.004, "note_off_time": 0.762}, {"pitch": 42, "velocity": 80, "note_on_time": 0.763, "note_off_time": 1.523}, {"pitch": 42, "velocity": 80, "note_on_time": 1.523, "note_off_time": 2.287}, {"pitch": 42, "velocity": 80, "note_on_time": 2.287, "note_off_time": 3.047}, {"pitch": 62, "velocity": 80, "note_on_time": 3.046, "note_off_time": 3.812}, {"pitch": 42, "velocity": 80, "note_on_time": 3.047, "note_off_time": 3.812}, {"pitch": 60, "velocity": 80, "note_on_time": 3.812, "note_off_time": 4.563}, {"pitch": 42, "velocity": 80, "note_on_time": 3.812, "note_off_time": 4.563}, {"pitch": 60, "velocity": 80, "note_on_time": 4.563, "note_off_time": 5.328}, {"pitch": 42, "velocity": 80, "note_on_time": 4.563, "note_off_time": 5.328}, {"pitch": 62, "velocity": 80, "note_on_time": 5.328, "note_off_time": 6.091}, {"pitch": 42, "velocity": 80, "note_on_time": 5.328, "note_off_time": 6.091}, {"pitch": 60, "velocity": 80, "note_on_time": 6.091, "note_off_time": 6.851}, {"pitch": 42, "velocity": 80, "note_on_time": 6.092, "note_off_time": 6.852}, {"pitch": 60, "velocity": 80, "note_on_time": 6.851, "note_off_time": 7.614}, {"pitch": 42, "velocity": 80, "note_on_time": 6.852, "note_off_time": 7.614}, {"pitch": 60, "velocity": 80, "note_on_time": 7.614, "note_off_time": 8.378}, {"pitch": 42, "velocity": 80, "note_on_time": 7.615, "note_off_time": 8.378}, {"pitch": 60, "velocity": 80, "note_on_time": 8.378, "note_off_time": 9.14}, {"pitch": 42, "velocity": 80, "note_on_time": 8.379, "note_off_time": 9.141}, {"pitch": 62, "velocity": 80, "note_on_time": 9.14, "note_off_time": 9.9}, {"pitch": 42, "velocity": 80, "note_on_time": 9.141, "note_off_time": 9.9}, {"pitch": 60, "velocity": 80, "note_on_time": 9.9, "note_off_time": 10.66}, {"pitch": 42, "velocity": 80, "note_on_time": 9.901, "note_off_time": 10.66}, {"pitch": 60, "velocity": 80, "note_on_time": 10.66, "note_off_time": 11.425}, {"pitch": 42, "velocity": 80, "note_on_time": 10.661, "note_off_time": 11.425}, {"pitch": 42, "velocity": 80, "note_on_time": 11.425, "note_off_time": 12.19}, {"pitch": 62, "velocity": 80, "note_on_time": 12.189, "note_off_time": 12.953}, {"pitch": 42, "velocity": 80, "note_on_time": 12.19, "note_off_time": 12.953}, {"pitch": 62, "velocity": 80, "note_on_time": 12.953, "note_off_time": 13.716}, {"pitch": 42, "velocity": 80, "note_on_time": 12.953, "note_off_time": 13.716}, {"pitch": 60, "velocity": 80, "note_on_time": 13.716, "note_off_time": 14.481}, {"pitch": 42, "velocity": 80, "note_on_time": 13.716, "note_off_time": 14.482}, {"pitch": 60, "velocity": 80, "note_on_time": 14.481, "note_off_time": 15.242}, {"pitch": 42, "velocity": 80, "note_on_time": 14.482, "note_off_time": 15.242}, {"pitch": 60, "velocity": 80, "note_on_time": 15.242, "note_off_time": 16.003}, {"pitch": 42, "velocity": 80, "note_on_time": 15.242, "note_off_time": 16.003}, {"pitch": 62, "velocity": 80, "note_on_time": 16.003, "note_off_time": 16.768}, {"pitch": 42, "velocity": 80, "note_on_time": 16.003, "note_off_time": 16.768}, {"pitch": 60, "velocity": 80, "note_on_time": 16.768, "note_off_time": 17.529}, {"pitch": 42, "velocity": 80, "note_on_time": 16.769, "note_off_time": 17.529}, {"pitch": 60, "velocity": 80, "note_on_time": 17.529, "note_off_time": 18.289}, {"pitch": 42, "velocity": 80, "note_on_time": 17.529, "note_off_time": 18.289}, {"pitch": 60, "velocity": 80, "note_on_time": 18.289, "note_off_time": 19.052}, {"pitch": 42, "velocity": 80, "note_on_time": 18.289, "note_off_time": 19.052}, {"pitch": 62, "velocity": 80, "note_on_time": 19.052, "note_off_time": 19.803}, {"pitch": 42, "velocity": 80, "note_on_time": 19.053, "note_off_time": 19.803}, {"pitch": 62, "velocity": 80, "note_on_time": 19.803, "note_off_time": 20.564}, {"pitch": 42, "velocity": 80, "note_on_time": 19.804, "note_off_time": 20.564}, {"pitch": 60, "velocity": 80, "note_on_time": 20.564, "note_off_time": 21.328}, {"pitch": 42, "velocity": 80, "note_on_time": 20.564, "note_off_time": 21.329}, {"pitch": 42, "velocity": 80, "note_on_time": 21.329, "note_off_time": 22.09}, {"pitch": 60, "velocity": 80, "note_on_time": 21.328, "note_off_time": 22.853}, {"pitch": 42, "velocity": 80, "note_on_time": 22.09, "note_off_time": 22.854}, {"pitch": 60, "velocity": 80, "note_on_time": 22.853, "note_off_time": 23.617}, {"pitch": 42, "velocity": 80, "note_on_time": 22.854, "note_off_time": 23.617}, {"pitch": 60, "velocity": 80, "note_on_time": 23.617, "note_off_time": 24.383}, {"pitch": 42, "velocity": 80, "note_on_time": 23.618, "note_off_time": 24.384}, {"pitch": 42, "velocity": 80, "note_on_time": 24.384, "note_off_time": 25.15}, {"pitch": 60, "velocity": 80, "note_on_time": 25.149, "note_off_time": 25.911}, {"pitch": 42, "velocity": 80, "note_on_time": 25.15, "note_off_time": 25.911}, {"pitch": 60, "velocity": 80, "note_on_time": 25.911, "note_off_time": 26.674}, {"pitch": 42, "velocity": 80, "note_on_time": 25.912, "note_off_time": 26.675}, {"pitch": 60, "velocity": 80, "note_on_time": 26.674, "note_off_time": 27.438}, {"pitch": 42, "velocity": 80, "note_on_time": 26.675, "note_off_time": 27.438}]</notes><options name="Option List">((4, 4), [0.25], 3, 8, &lt;NoteRangePerHand.TWO_NOTES: 3&gt;, &lt;NoteRangePerHand.ONE_NOTE: 2&gt;, False, True, False, 80)</options></target_notes><trials><trial trial_no="1" timestamp="2022_11_21-18_57_12"><notes name="Played Notes">[{"pitch": 62, "velocity": 49, "note_on_time": 3.087, "note_off_time": 3.836}, {"pitch": 60, "velocity": 60, "note_on_time": 3.814, "note_off_time": 4.345}, {"pitch": 60, "velocity": 63, "note_on_time": 4.547, "note_off_time": 5.323}, {"pitch": 62, "velocity": 69, "note_on_time": 5.307, "note_off_time": 6.042}, {"pitch": 60, "velocity": 44, "note_on_time": 6.059, "note_off_time": 6.521}, {"pitch": 60, "velocity": 65, "note_on_time": 6.823, "note_off_time": 7.276}, {"pitch": 60, "velocity": 52, "note_on_time": 7.591, "note_off_time": 8.076}, {"pitch": 60, "velocity": 55, "note_on_time": 8.329, "note_off_time": 9.146}, {"pitch": 62, "velocity": 60, "note_on_time": 9.129, "note_off_time": 9.903}, {"pitch": 60, "velocity": 62, "note_on_time": 9.903, "note_off_time": 10.265}, {"pitch": 60, "velocity": 60, "note_on_time": 10.69, "note_off_time": 11.296}, {"pitch": 62, "velocity": 66, "note_on_time": 12.193, "note_off_time": 12.628}, {"pitch": 62, "velocity": 60, "note_on_time": 12.93, "note_off_time": 13.656}, {"pitch": 60, "velocity": 53, "note_on_time": 13.716, "note_off_time": 14.166}, {"pitch": 60, "velocity": 69, "note_on_time": 14.464, "note_off_time": 15.025}, {"pitch": 62, "velocity": 60, "note_on_time": 15.239, "note_off_time": 15.918}, {"pitch": 60, "velocity": 58, "note_on_time": 15.974, "note_off_time": 16.4}, {"pitch": 60, "velocity": 68, "note_on_time": 16.758, "note_off_time": 17.122}, {"pitch": 60, "velocity": 64, "note_on_time": 17.497, "note_off_time": 18.196}, {"pitch": 62, "velocity": 53, "note_on_time": 18.248, "note_off_time": 18.707}, {"pitch": 62, "velocity": 63, "note_on_time": 18.994, "note_off_time": 19.765}, {"pitch": 60, "velocity": 62, "note_on_time": 19.775, "note_off_time": 20.154}, {"pitch": 60, "velocity": 79, "note_on_time": 20.512, "note_off_time": 21.812}, {"pitch": 60, "velocity": 59, "note_on_time": 22.073, "note_off_time": 22.591}, {"pitch": 60, "velocity": 74, "note_on_time": 22.83, "note_off_time": 23.453}, {"pitch": 60, "velocity": 60, "note_on_time": 24.383, "note_off_time": 24.902}, {"pitch": 60, "velocity": 67, "note_on_time": 25.136, "note_off_time": 25.6}, {"pitch": 60, "velocity": 71, "note_on_time": 25.852, "note_off_time": 26.535}]</notes><guidance name="Guidance Mode">None</guidance><error name="Error value">0.08719230769230749</error></trial></trials></MIDI>