<MIDI midiNo="2022_12_22-10_38_08"><target_notes><notes name="Note List">[{"pitch": 42, "velocity": 80, "note_on_time": 0.004, "note_off_time": 1.052}, {"pitch": 42, "velocity": 80, "note_on_time": 1.053, "note_off_time": 2.095}, {"pitch": 42, "velocity": 80, "note_on_time": 2.095, "note_off_time": 3.135}, {"pitch": 42, "velocity": 80, "note_on_time": 3.135, "note_off_time": 4.181}, {"pitch": 60, "velocity": 80, "note_on_time": 4.18, "note_off_time": 5.229}, {"pitch": 42, "velocity": 80, "note_on_time": 4.181, "note_off_time": 5.229}, {"pitch": 62, "velocity": 80, "note_on_time": 5.229, "note_off_time": 6.27}, {"pitch": 42, "velocity": 80, "note_on_time": 5.23, "note_off_time": 6.27}, {"pitch": 62, "velocity": 80, "note_on_time": 6.27, "note_off_time": 7.313}, {"pitch": 42, "velocity": 80, "note_on_time": 6.271, "note_off_time": 7.314}, {"pitch": 64, "velocity": 80, "note_on_time": 7.313, "note_off_time": 8.357}, {"pitch": 42, "velocity": 80, "note_on_time": 7.314, "note_off_time": 8.357}, {"pitch": 60, "velocity": 80, "note_on_time": 8.357, "note_off_time": 9.397}, {"pitch": 42, "velocity": 80, "note_on_time": 8.357, "note_off_time": 9.398}, {"pitch": 60, "velocity": 80, "note_on_time": 9.397, "note_off_time": 10.437}, {"pitch": 42, "velocity": 80, "note_on_time": 9.398, "note_off_time": 10.438}, {"pitch": 62, "velocity": 80, "note_on_time": 10.437, "note_off_time": 11.479}, {"pitch": 42, "velocity": 80, "note_on_time": 10.438, "note_off_time": 11.479}, {"pitch": 64, "velocity": 80, "note_on_time": 11.479, "note_off_time": 12.525}, {"pitch": 42, "velocity": 80, "note_on_time": 11.48, "note_off_time": 12.525}, {"pitch": 64, "velocity": 80, "note_on_time": 12.525, "note_off_time": 13.571}, {"pitch": 42, "velocity": 80, "note_on_time": 12.526, "note_off_time": 13.571}, {"pitch": 60, "velocity": 80, "note_on_time": 13.571, "note_off_time": 14.61}, {"pitch": 42, "velocity": 80, "note_on_time": 13.572, "note_off_time": 14.61}, {"pitch": 62, "velocity": 80, "note_on_time": 14.61, "note_off_time": 15.655}, {"pitch": 42, "velocity": 80, "note_on_time": 14.611, "note_off_time": 15.656}, {"pitch": 60, "velocity": 80, "note_on_time": 15.655, "note_off_time": 16.7}, {"pitch": 42, "velocity": 80, "note_on_time": 15.656, "note_off_time": 16.7}, {"pitch": 60, "velocity": 80, "note_on_time": 16.7, "note_off_time": 17.745}, {"pitch": 42, "velocity": 80, "note_on_time": 16.7, "note_off_time": 17.745}, {"pitch": 60, "velocity": 80, "note_on_time": 17.745, "note_off_time": 18.787}, {"pitch": 42, "velocity": 80, "note_on_time": 17.745, "note_off_time": 18.787}, {"pitch": 64, "velocity": 80, "note_on_time": 18.787, "note_off_time": 19.829}, {"pitch": 42, "velocity": 80, "note_on_time": 18.787, "note_off_time": 19.829}, {"pitch": 62, "velocity": 80, "note_on_time": 19.829, "note_off_time": 20.869}, {"pitch": 42, "velocity": 80, "note_on_time": 19.829, "note_off_time": 20.869}, {"pitch": 42, "velocity": 80, "note_on_time": 20.869, "note_off_time": 21.91}, {"pitch": 64, "velocity": 80, "note_on_time": 20.869, "note_off_time": 22.955}, {"pitch": 42, "velocity": 80, "note_on_time": 21.91, "note_off_time": 22.955}, {"pitch": 42, "velocity": 80, "note_on_time": 22.955, "note_off_time": 24.0}, {"pitch": 62, "velocity": 80, "note_on_time": 24.0, "note_off_time": 25.045}, {"pitch": 42, "velocity": 80, "note_on_time": 24.0, "note_off_time": 25.045}, {"pitch": 64, "velocity": 80, "note_on_time": 25.045, "note_off_time": 26.088}, {"pitch": 42, "velocity": 80, "note_on_time": 25.045, "note_off_time": 26.088}, {"pitch": 64, "velocity": 80, "note_on_time": 26.088, "note_off_time": 27.133}, {"pitch": 42, "velocity": 80, "note_on_time": 26.089, "note_off_time": 27.133}, {"pitch": 64, "velocity": 80, "note_on_time": 27.133, "note_off_time": 28.178}, {"pitch": 42, "velocity": 80, "note_on_time": 27.133, "note_off_time": 28.178}, {"pitch": 64, "velocity": 80, "note_on_time": 28.178, "note_off_time": 29.221}, {"pitch": 42, "velocity": 80, "note_on_time": 28.178, "note_off_time": 29.221}, {"pitch": 64, "velocity": 80, "note_on_time": 29.221, "note_off_time": 30.267}, {"pitch": 42, "velocity": 80, "note_on_time": 29.221, "note_off_time": 30.267}, {"pitch": 62, "velocity": 80, "note_on_time": 30.267, "note_off_time": 31.309}, {"pitch": 42, "velocity": 80, "note_on_time": 30.267, "note_off_time": 31.309}, {"pitch": 62, "velocity": 80, "note_on_time": 31.309, "note_off_time": 32.353}, {"pitch": 42, "velocity": 80, "note_on_time": 31.309, "note_off_time": 32.353}, {"pitch": 42, "velocity": 80, "note_on_time": 32.354, "note_off_time": 33.396}, {"pitch": 42, "velocity": 80, "note_on_time": 33.396, "note_off_time": 34.44}, {"pitch": 62, "velocity": 80, "note_on_time": 34.44, "note_off_time": 35.483}, {"pitch": 42, "velocity": 80, "note_on_time": 34.441, "note_off_time": 35.483}, {"pitch": 62, "velocity": 80, "note_on_time": 35.483, "note_off_time": 36.527}, {"pitch": 42, "velocity": 80, "note_on_time": 35.484, "note_off_time": 36.527}, {"pitch": 62, "velocity": 80, "note_on_time": 36.527, "note_off_time": 37.571}, {"pitch": 42, "velocity": 80, "note_on_time": 36.528, "note_off_time": 37.571}]</notes><options name="Option List">((4, 4), [0.5, 0.25], 3, 8, &lt;NoteRangePerHand.THREE_NOTES: 4&gt;, &lt;NoteRangePerHand.ONE_NOTE: 2&gt;, False, True, False, '58')</options></target_notes><trials><trial trial_no="1" timestamp="2022_12_22-10_37_29"><notes name="Played Notes">[{"pitch": 60, "velocity": 59, "note_on_time": 4.255, "note_off_time": 4.847}, {"pitch": 62, "velocity": 67, "note_on_time": 5.265, "note_off_time": 5.638}, {"pitch": 62, "velocity": 65, "note_on_time": 6.31, "note_off_time": 6.658}, {"pitch": 64, "velocity": 62, "note_on_time": 7.355, "note_off_time": 7.797}, {"pitch": 60, "velocity": 63, "note_on_time": 8.384, "note_off_time": 8.708}, {"pitch": 60, "velocity": 65, "note_on_time": 9.368, "note_off_time": 9.726}, {"pitch": 62, "velocity": 56, "note_on_time": 10.386, "note_off_time": 10.732}, {"pitch": 64, "velocity": 54, "note_on_time": 11.355, "note_off_time": 11.765}, {"pitch": 64, "velocity": 60, "note_on_time": 12.394, "note_off_time": 12.752}, {"pitch": 60, "velocity": 59, "note_on_time": 13.383, "note_off_time": 13.824}, {"pitch": 62, "velocity": 58, "note_on_time": 14.432, "note_off_time": 14.919}, {"pitch": 60, "velocity": 65, "note_on_time": 15.388, "note_off_time": 15.979}, {"pitch": 60, "velocity": 66, "note_on_time": 16.594, "note_off_time": 17.022}, {"pitch": 60, "velocity": 57, "note_on_time": 17.62, "note_off_time": 18.126}, {"pitch": 64, "velocity": 56, "note_on_time": 18.665, "note_off_time": 19.088}, {"pitch": 62, "velocity": 54, "note_on_time": 19.681, "note_off_time": 20.113}, {"pitch": 64, "velocity": 64, "note_on_time": 20.779, "note_off_time": 21.024}, {"pitch": 62, "velocity": 57, "note_on_time": 23.947, "note_off_time": 24.345}, {"pitch": 64, "velocity": 61, "note_on_time": 24.956, "note_off_time": 25.34}, {"pitch": 64, "velocity": 54, "note_on_time": 25.938, "note_off_time": 26.397}, {"pitch": 64, "velocity": 55, "note_on_time": 27.028, "note_off_time": 27.45}, {"pitch": 64, "velocity": 54, "note_on_time": 28.096, "note_off_time": 28.419}, {"pitch": 64, "velocity": 58, "note_on_time": 29.159, "note_off_time": 29.439}, {"pitch": 62, "velocity": 57, "note_on_time": 30.2, "note_off_time": 30.541}, {"pitch": 62, "velocity": 60, "note_on_time": 31.23, "note_off_time": 31.453}, {"pitch": 62, "velocity": 57, "note_on_time": 34.357, "note_off_time": 34.618}, {"pitch": 62, "velocity": 57, "note_on_time": 35.313, "note_off_time": 35.662}, {"pitch": 62, "velocity": 60, "note_on_time": 36.38, "note_off_time": 36.614}]</notes><guidance name="Guidance Mode">None</guidance><error name="Error value">0.040183599999999944</error></trial><trial trial_no="2" timestamp="2022_12_22-10_38_27"><notes name="Played Notes">[{"pitch": 60, "velocity": 31, "note_on_time": 4.219, "note_off_time": 4.834}, {"pitch": 62, "velocity": 55, "note_on_time": 5.208, "note_off_time": 5.592}, {"pitch": 62, "velocity": 55, "note_on_time": 6.237, "note_off_time": 6.601}, {"pitch": 64, "velocity": 58, "note_on_time": 7.276, "note_off_time": 7.652}, {"pitch": 60, "velocity": 63, "note_on_time": 8.266, "note_off_time": 8.654}, {"pitch": 60, "velocity": 66, "note_on_time": 9.33, "note_off_time": 9.663}, {"pitch": 62, "velocity": 54, "note_on_time": 10.392, "note_off_time": 10.723}, {"pitch": 64, "velocity": 49, "note_on_time": 11.367, "note_off_time": 11.768}, {"pitch": 64, "velocity": 60, "note_on_time": 12.394, "note_off_time": 12.69}, {"pitch": 60, "velocity": 67, "note_on_time": 13.425, "note_off_time": 13.847}, {"pitch": 62, "velocity": 61, "note_on_time": 14.447, "note_off_time": 14.908}, {"pitch": 60, "velocity": 56, "note_on_time": 15.455, "note_off_time": 15.929}, {"pitch": 60, "velocity": 55, "note_on_time": 16.485, "note_off_time": 16.956}, {"pitch": 60, "velocity": 67, "note_on_time": 17.552, "note_off_time": 18.065}, {"pitch": 64, "velocity": 54, "note_on_time": 18.63, "note_off_time": 19.051}, {"pitch": 62, "velocity": 53, "note_on_time": 19.678, "note_off_time": 20.038}, {"pitch": 64, "velocity": 59, "note_on_time": 20.821, "note_off_time": 22.279}, {"pitch": 62, "velocity": 65, "note_on_time": 23.903, "note_off_time": 24.333}, {"pitch": 64, "velocity": 65, "note_on_time": 24.978, "note_off_time": 25.4}, {"pitch": 64, "velocity": 58, "note_on_time": 25.987, "note_off_time": 26.46}, {"pitch": 64, "velocity": 63, "note_on_time": 27.0, "note_off_time": 27.431}, {"pitch": 64, "velocity": 64, "note_on_time": 28.06, "note_off_time": 28.523}, {"pitch": 64, "velocity": 53, "note_on_time": 29.1, "note_off_time": 29.541}, {"pitch": 62, "velocity": 59, "note_on_time": 30.179, "note_off_time": 30.662}, {"pitch": 62, "velocity": 56, "note_on_time": 31.161, "note_off_time": 31.677}, {"pitch": 62, "velocity": 50, "note_on_time": 34.347, "note_off_time": 34.657}, {"pitch": 62, "velocity": 46, "note_on_time": 35.291, "note_off_time": 35.627}, {"pitch": 62, "velocity": 54, "note_on_time": 36.345, "note_off_time": 36.555}]</notes><guidance name="Guidance Mode">None</guidance><error name="Error value">0.03593928000000048</error></trial><trial trial_no="3" timestamp="2022_12_22-10_39_15"><notes name="Played Notes">[{"pitch": 60, "velocity": 65, "note_on_time": 4.207, "note_off_time": 4.847}, {"pitch": 62, "velocity": 61, "note_on_time": 5.276, "note_off_time": 5.651}, {"pitch": 62, "velocity": 57, "note_on_time": 6.282, "note_off_time": 6.637}, {"pitch": 64, "velocity": 62, "note_on_time": 7.359, "note_off_time": 7.852}, {"pitch": 60, "velocity": 61, "note_on_time": 8.332, "note_off_time": 8.67}, {"pitch": 60, "velocity": 56, "note_on_time": 9.331, "note_off_time": 9.741}, {"pitch": 62, "velocity": 51, "note_on_time": 10.388, "note_off_time": 10.731}, {"pitch": 64, "velocity": 54, "note_on_time": 11.379, "note_off_time": 11.762}, {"pitch": 64, "velocity": 46, "note_on_time": 12.392, "note_off_time": 12.797}, {"pitch": 60, "velocity": 53, "note_on_time": 13.473, "note_off_time": 13.89}, {"pitch": 62, "velocity": 50, "note_on_time": 14.48, "note_off_time": 14.888}, {"pitch": 60, "velocity": 58, "note_on_time": 15.514, "note_off_time": 15.952}, {"pitch": 60, "velocity": 49, "note_on_time": 16.54, "note_off_time": 16.966}, {"pitch": 60, "velocity": 48, "note_on_time": 17.597, "note_off_time": 18.066}, {"pitch": 62, "velocity": 40, "note_on_time": 18.717, "note_off_time": 18.861}, {"pitch": 64, "velocity": 44, "note_on_time": 18.913, "note_off_time": 19.29}, {"pitch": 62, "velocity": 57, "note_on_time": 19.67, "note_off_time": 20.18}, {"pitch": 64, "velocity": 56, "note_on_time": 20.725, "note_off_time": 22.321}, {"pitch": 62, "velocity": 51, "note_on_time": 23.935, "note_off_time": 24.545}, {"pitch": 64, "velocity": 47, "note_on_time": 24.999, "note_off_time": 25.405}, {"pitch": 64, "velocity": 39, "note_on_time": 25.971, "note_off_time": 26.416}, {"pitch": 64, "velocity": 49, "note_on_time": 26.989, "note_off_time": 27.455}, {"pitch": 64, "velocity": 44, "note_on_time": 28.089, "note_off_time": 28.458}, {"pitch": 64, "velocity": 39, "note_on_time": 29.153, "note_off_time": 29.573}, {"pitch": 62, "velocity": 39, "note_on_time": 30.251, "note_off_time": 30.582}, {"pitch": 62, "velocity": 40, "note_on_time": 31.304, "note_off_time": 31.6}, {"pitch": 62, "velocity": 39, "note_on_time": 34.346, "note_off_time": 34.718}, {"pitch": 62, "velocity": 44, "note_on_time": 35.341, "note_off_time": 35.653}, {"pitch": 62, "velocity": 47, "note_on_time": 36.439, "note_off_time": 36.68}]</notes><guidance name="Guidance Mode">None</guidance><error name="Error value">0.24526072000000143</error></trial><trial trial_no="4" timestamp="2022_12_22-10_40_04"><notes name="Played Notes">[{"pitch": 60, "velocity": 55, "note_on_time": 4.161, "note_off_time": 4.92}, {"pitch": 62, "velocity": 48, "note_on_time": 5.175, "note_off_time": 5.728}, {"pitch": 62, "velocity": 48, "note_on_time": 6.277, "note_off_time": 7.011}, {"pitch": 64, "velocity": 53, "note_on_time": 7.321, "note_off_time": 8.073}, {"pitch": 60, "velocity": 53, "note_on_time": 8.313, "note_off_time": 8.964}, {"pitch": 60, "velocity": 59, "note_on_time": 9.345, "note_off_time": 10.063}, {"pitch": 62, "velocity": 60, "note_on_time": 10.414, "note_off_time": 11.198}, {"pitch": 64, "velocity": 58, "note_on_time": 11.362, "note_off_time": 11.957}, {"pitch": 64, "velocity": 55, "note_on_time": 12.496, "note_off_time": 13.072}, {"pitch": 60, "velocity": 25, "note_on_time": 13.513, "note_off_time": 14.253}, {"pitch": 62, "velocity": 54, "note_on_time": 14.526, "note_off_time": 15.141}, {"pitch": 60, "velocity": 60, "note_on_time": 15.56, "note_off_time": 16.078}, {"pitch": 60, "velocity": 62, "note_on_time": 16.642, "note_off_time": 17.102}, {"pitch": 60, "velocity": 59, "note_on_time": 17.68, "note_off_time": 18.19}, {"pitch": 64, "velocity": 50, "note_on_time": 18.686, "note_off_time": 19.152}, {"pitch": 62, "velocity": 43, "note_on_time": 19.75, "note_off_time": 20.17}, {"pitch": 64, "velocity": 57, "note_on_time": 20.713, "note_off_time": 22.276}, {"pitch": 62, "velocity": 51, "note_on_time": 23.965, "note_off_time": 24.648}, {"pitch": 64, "velocity": 61, "note_on_time": 25.035, "note_off_time": 25.5}, {"pitch": 64, "velocity": 59, "note_on_time": 26.03, "note_off_time": 26.473}, {"pitch": 64, "velocity": 61, "note_on_time": 26.909, "note_off_time": 27.567}, {"pitch": 64, "velocity": 58, "note_on_time": 28.039, "note_off_time": 28.477}, {"pitch": 64, "velocity": 55, "note_on_time": 29.054, "note_off_time": 29.833}, {"pitch": 62, "velocity": 43, "note_on_time": 30.062, "note_off_time": 30.628}, {"pitch": 62, "velocity": 51, "note_on_time": 31.153, "note_off_time": 31.488}, {"pitch": 62, "velocity": 39, "note_on_time": 34.361, "note_off_time": 34.818}, {"pitch": 62, "velocity": 39, "note_on_time": 35.367, "note_off_time": 35.684}, {"pitch": 62, "velocity": 64, "note_on_time": 36.288, "note_off_time": 36.799}]</notes><guidance name="Guidance Mode">None</guidance><error name="Error value">0.05626071999999976</error></trial><trial trial_no="5" timestamp="2022_12_22-10_40_56"><notes name="Played Notes">[{"pitch": 60, "velocity": 64, "note_on_time": 4.21, "note_off_time": 4.921}, {"pitch": 62, "velocity": 61, "note_on_time": 5.167, "note_off_time": 5.738}, {"pitch": 62, "velocity": 61, "note_on_time": 6.209, "note_off_time": 6.882}, {"pitch": 64, "velocity": 64, "note_on_time": 7.284, "note_off_time": 8.087}, {"pitch": 60, "velocity": 65, "note_on_time": 8.317, "note_off_time": 8.852}, {"pitch": 60, "velocity": 70, "note_on_time": 9.363, "note_off_time": 9.964}, {"pitch": 62, "velocity": 60, "note_on_time": 10.387, "note_off_time": 10.902}, {"pitch": 64, "velocity": 62, "note_on_time": 11.413, "note_off_time": 11.988}, {"pitch": 64, "velocity": 52, "note_on_time": 12.541, "note_off_time": 13.08}, {"pitch": 62, "velocity": 50, "note_on_time": 13.447, "note_off_time": 14.175}, {"pitch": 60, "velocity": 45, "note_on_time": 14.519, "note_off_time": 15.148}, {"pitch": 62, "velocity": 41, "note_on_time": 15.533, "note_off_time": 15.982}, {"pitch": 64, "velocity": 59, "note_on_time": 16.605, "note_off_time": 18.1}, {"pitch": 62, "velocity": 40, "note_on_time": 19.834, "note_off_time": 20.505}, {"pitch": 64, "velocity": 54, "note_on_time": 20.85, "note_off_time": 21.409}, {"pitch": 64, "velocity": 45, "note_on_time": 21.841, "note_off_time": 22.337}, {"pitch": 64, "velocity": 46, "note_on_time": 22.909, "note_off_time": 23.339}, {"pitch": 64, "velocity": 54, "note_on_time": 23.93, "note_off_time": 24.357}, {"pitch": 64, "velocity": 40, "note_on_time": 24.999, "note_off_time": 25.633}, {"pitch": 62, "velocity": 51, "note_on_time": 25.99, "note_off_time": 26.463}, {"pitch": 62, "velocity": 53, "note_on_time": 26.996, "note_off_time": 27.538}, {"pitch": 62, "velocity": 49, "note_on_time": 30.08, "note_off_time": 30.648}, {"pitch": 62, "velocity": 47, "note_on_time": 31.202, "note_off_time": 31.689}, {"pitch": 62, "velocity": 47, "note_on_time": 32.3, "note_off_time": 32.719}]</notes><guidance name="Guidance Mode">None</guidance><error name="Error value">0.4004164000000001</error></trial></trials></MIDI>