<MIDI midiNo="2022_09_12-12_23_32"><target_notes><notes name="Note List">[{"pitch": 42, "velocity": 80, "note_on_time": 0.004, "note_off_time": 0.297}, {"pitch": 42, "velocity": 80, "note_on_time": 0.297, "note_off_time": 0.591}, {"pitch": 42, "velocity": 80, "note_on_time": 0.592, "note_off_time": 0.885}, {"pitch": 42, "velocity": 80, "note_on_time": 0.885, "note_off_time": 1.166}, {"pitch": 62, "velocity": 80, "note_on_time": 1.166, "note_off_time": 1.459}, {"pitch": 42, "velocity": 80, "note_on_time": 1.167, "note_off_time": 1.46}, {"pitch": 64, "velocity": 80, "note_on_time": 1.459, "note_off_time": 1.755}, {"pitch": 42, "velocity": 80, "note_on_time": 1.46, "note_off_time": 1.755}, {"pitch": 62, "velocity": 80, "note_on_time": 1.755, "note_off_time": 2.051}, {"pitch": 42, "velocity": 80, "note_on_time": 1.755, "note_off_time": 2.052}, {"pitch": 62, "velocity": 80, "note_on_time": 2.051, "note_off_time": 2.332}, {"pitch": 42, "velocity": 80, "note_on_time": 2.052, "note_off_time": 2.333}, {"pitch": 64, "velocity": 80, "note_on_time": 2.332, "note_off_time": 2.628}, {"pitch": 42, "velocity": 80, "note_on_time": 2.333, "note_off_time": 2.628}, {"pitch": 62, "velocity": 80, "note_on_time": 2.628, "note_off_time": 2.909}, {"pitch": 42, "velocity": 80, "note_on_time": 2.628, "note_off_time": 2.909}, {"pitch": 42, "velocity": 80, "note_on_time": 2.909, "note_off_time": 3.191}, {"pitch": 60, "velocity": 80, "note_on_time": 2.909, "note_off_time": 3.472}, {"pitch": 42, "velocity": 80, "note_on_time": 3.191, "note_off_time": 3.473}, {"pitch": 60, "velocity": 80, "note_on_time": 3.472, "note_off_time": 3.769}, {"pitch": 42, "velocity": 80, "note_on_time": 3.473, "note_off_time": 3.769}, {"pitch": 42, "velocity": 80, "note_on_time": 3.769, "note_off_time": 4.065}, {"pitch": 42, "velocity": 80, "note_on_time": 4.065, "note_off_time": 4.36}, {"pitch": 64, "velocity": 80, "note_on_time": 4.36, "note_off_time": 4.655}, {"pitch": 42, "velocity": 80, "note_on_time": 4.36, "note_off_time": 4.656}, {"pitch": 64, "velocity": 80, "note_on_time": 4.655, "note_off_time": 4.951}, {"pitch": 42, "velocity": 80, "note_on_time": 4.656, "note_off_time": 4.951}, {"pitch": 42, "velocity": 80, "note_on_time": 4.951, "note_off_time": 5.247}, {"pitch": 42, "velocity": 80, "note_on_time": 5.247, "note_off_time": 5.542}, {"pitch": 42, "velocity": 80, "note_on_time": 5.542, "note_off_time": 5.838}, {"pitch": 60, "velocity": 80, "note_on_time": 5.838, "note_off_time": 6.133}, {"pitch": 42, "velocity": 80, "note_on_time": 5.838, "note_off_time": 6.133}, {"pitch": 64, "velocity": 80, "note_on_time": 6.133, "note_off_time": 6.414}, {"pitch": 42, "velocity": 80, "note_on_time": 6.134, "note_off_time": 6.415}, {"pitch": 62, "velocity": 80, "note_on_time": 6.414, "note_off_time": 6.709}, {"pitch": 42, "velocity": 80, "note_on_time": 6.415, "note_off_time": 6.709}, {"pitch": 62, "velocity": 80, "note_on_time": 6.709, "note_off_time": 7.004}, {"pitch": 42, "velocity": 80, "note_on_time": 6.709, "note_off_time": 7.004}, {"pitch": 42, "velocity": 80, "note_on_time": 7.004, "note_off_time": 7.299}, {"pitch": 62, "velocity": 80, "note_on_time": 7.004, "note_off_time": 7.58}, {"pitch": 42, "velocity": 80, "note_on_time": 7.299, "note_off_time": 7.58}, {"pitch": 42, "velocity": 80, "note_on_time": 7.581, "note_off_time": 7.876}, {"pitch": 60, "velocity": 80, "note_on_time": 7.58, "note_off_time": 8.169}, {"pitch": 42, "velocity": 80, "note_on_time": 7.876, "note_off_time": 8.17}, {"pitch": 64, "velocity": 80, "note_on_time": 8.169, "note_off_time": 8.464}, {"pitch": 42, "velocity": 80, "note_on_time": 8.17, "note_off_time": 8.465}, {"pitch": 64, "velocity": 80, "note_on_time": 8.464, "note_off_time": 8.759}, {"pitch": 42, "velocity": 80, "note_on_time": 8.465, "note_off_time": 8.759}, {"pitch": 60, "velocity": 80, "note_on_time": 8.759, "note_off_time": 9.04}, {"pitch": 42, "velocity": 80, "note_on_time": 8.759, "note_off_time": 9.04}, {"pitch": 62, "velocity": 80, "note_on_time": 9.04, "note_off_time": 9.335}, {"pitch": 42, "velocity": 80, "note_on_time": 9.041, "note_off_time": 9.335}, {"pitch": 42, "velocity": 80, "note_on_time": 9.336, "note_off_time": 9.618}, {"pitch": 62, "velocity": 80, "note_on_time": 9.618, "note_off_time": 9.911}, {"pitch": 42, "velocity": 80, "note_on_time": 9.618, "note_off_time": 9.911}, {"pitch": 62, "velocity": 80, "note_on_time": 9.911, "note_off_time": 10.205}, {"pitch": 42, "velocity": 80, "note_on_time": 9.912, "note_off_time": 10.205}, {"pitch": 62, "velocity": 80, "note_on_time": 10.205, "note_off_time": 10.5}, {"pitch": 42, "velocity": 80, "note_on_time": 10.206, "note_off_time": 10.5}]</notes><options name="Option List">((4, 4), [0.5, 0.25], 3, 8, &lt;NoteRangePerHand.THREE_NOTES: 4&gt;, &lt;NoteRangePerHand.ONE_NOTE: 2&gt;, False, True, True, 215)</options></target_notes><trials><trial trial_no="1" timestamp="2022_09_12-12_23_20"><notes name="Played Notes">[{"pitch": 62, "velocity": 86, "note_on_time": 1.336, "note_off_time": 1.506}, {"pitch": 64, "velocity": 77, "note_on_time": 1.632, "note_off_time": 1.794}, {"pitch": 62, "velocity": 81, "note_on_time": 1.933, "note_off_time": 2.07}, {"pitch": 62, "velocity": 88, "note_on_time": 2.226, "note_off_time": 2.389}, {"pitch": 64, "velocity": 82, "note_on_time": 2.53, "note_off_time": 2.68}, {"pitch": 62, "velocity": 82, "note_on_time": 2.843, "note_off_time": 2.968}, {"pitch": 60, "velocity": 92, "note_on_time": 3.132, "note_off_time": 3.41}, {"pitch": 60, "velocity": 95, "note_on_time": 3.872, "note_off_time": 4.104}, {"pitch": 64, "velocity": 83, "note_on_time": 5.35, "note_off_time": 5.488}, {"pitch": 64, "velocity": 86, "note_on_time": 5.676, "note_off_time": 5.792}, {"pitch": 60, "velocity": 83, "note_on_time": 6.894, "note_off_time": 7.047}, {"pitch": 64, "velocity": 77, "note_on_time": 7.201, "note_off_time": 7.352}, {"pitch": 62, "velocity": 85, "note_on_time": 7.499, "note_off_time": 7.596}, {"pitch": 62, "velocity": 84, "note_on_time": 7.772, "note_off_time": 7.895}, {"pitch": 62, "velocity": 85, "note_on_time": 8.108, "note_off_time": 8.376}, {"pitch": 60, "velocity": 90, "note_on_time": 8.811, "note_off_time": 9.183}, {"pitch": 64, "velocity": 76, "note_on_time": 9.803, "note_off_time": 9.937}, {"pitch": 64, "velocity": 85, "note_on_time": 10.083, "note_off_time": 10.216}]</notes><guidance name="Guidance Mode">None</guidance><error name="Error value">0.54390515</error></trial><trial trial_no="2" timestamp="2022_09_12-12_23_43"><notes name="Played Notes">[{"pitch": 62, "velocity": 89, "note_on_time": 1.271, "note_off_time": 1.422}, {"pitch": 64, "velocity": 85, "note_on_time": 1.518, "note_off_time": 1.674}, {"pitch": 62, "velocity": 88, "note_on_time": 1.819, "note_off_time": 1.944}, {"pitch": 62, "velocity": 78, "note_on_time": 2.083, "note_off_time": 2.241}, {"pitch": 64, "velocity": 93, "note_on_time": 2.365, "note_off_time": 2.532}, {"pitch": 62, "velocity": 84, "note_on_time": 2.644, "note_off_time": 2.784}, {"pitch": 60, "velocity": 89, "note_on_time": 2.921, "note_off_time": 3.255}, {"pitch": 60, "velocity": 100, "note_on_time": 3.429, "note_off_time": 3.689}, {"pitch": 64, "velocity": 90, "note_on_time": 4.562, "note_off_time": 4.707}, {"pitch": 64, "velocity": 88, "note_on_time": 4.844, "note_off_time": 4.969}, {"pitch": 60, "velocity": 88, "note_on_time": 5.86, "note_off_time": 6.018}, {"pitch": 62, "velocity": 83, "note_on_time": 6.2, "note_off_time": 6.323}, {"pitch": 62, "velocity": 83, "note_on_time": 6.886, "note_off_time": 6.971}, {"pitch": 62, "velocity": 73, "note_on_time": 7.155, "note_off_time": 7.274}, {"pitch": 62, "velocity": 80, "note_on_time": 7.676, "note_off_time": 8.021}, {"pitch": 60, "velocity": 94, "note_on_time": 8.43, "note_off_time": 8.759}, {"pitch": 64, "velocity": 84, "note_on_time": 8.941, "note_off_time": 9.049}, {"pitch": 64, "velocity": 84, "note_on_time": 9.209, "note_off_time": 9.341}, {"pitch": 60, "velocity": 87, "note_on_time": 9.544, "note_off_time": 9.68}, {"pitch": 62, "velocity": 90, "note_on_time": 9.825, "note_off_time": 9.927}]</notes><guidance name="Guidance Mode">None</guidance><error name="Error value">0.45532759999999994</error></trial></trials></MIDI>