<MIDI midiNo="2022_11_14-18_49_19"><target_notes><notes name="Note List">[{"pitch": 42, "velocity": 80, "note_on_time": 0.005, "note_off_time": 0.225}, {"pitch": 42, "velocity": 80, "note_on_time": 0.225, "note_off_time": 0.442}, {"pitch": 42, "velocity": 80, "note_on_time": 0.442, "note_off_time": 0.66}, {"pitch": 42, "velocity": 80, "note_on_time": 0.66, "note_off_time": 0.877}, {"pitch": 65, "velocity": 80, "note_on_time": 0.877, "note_off_time": 1.096}, {"pitch": 42, "velocity": 80, "note_on_time": 0.877, "note_off_time": 1.096}, {"pitch": 64, "velocity": 80, "note_on_time": 1.096, "note_off_time": 1.315}, {"pitch": 42, "velocity": 80, "note_on_time": 1.096, "note_off_time": 1.315}, {"pitch": 64, "velocity": 80, "note_on_time": 1.315, "note_off_time": 1.532}, {"pitch": 42, "velocity": 80, "note_on_time": 1.315, "note_off_time": 1.532}, {"pitch": 65, "velocity": 80, "note_on_time": 1.532, "note_off_time": 1.748}, {"pitch": 42, "velocity": 80, "note_on_time": 1.532, "note_off_time": 1.748}, {"pitch": 65, "velocity": 80, "note_on_time": 1.748, "note_off_time": 1.966}, {"pitch": 42, "velocity": 80, "note_on_time": 1.748, "note_off_time": 1.966}, {"pitch": 64, "velocity": 80, "note_on_time": 1.966, "note_off_time": 2.183}, {"pitch": 42, "velocity": 80, "note_on_time": 1.966, "note_off_time": 2.183}, {"pitch": 64, "velocity": 80, "note_on_time": 2.183, "note_off_time": 2.402}, {"pitch": 42, "velocity": 80, "note_on_time": 2.183, "note_off_time": 2.402}, {"pitch": 62, "velocity": 80, "note_on_time": 2.402, "note_off_time": 2.619}, {"pitch": 42, "velocity": 80, "note_on_time": 2.402, "note_off_time": 2.619}, {"pitch": 42, "velocity": 80, "note_on_time": 2.619, "note_off_time": 2.836}, {"pitch": 64, "velocity": 80, "note_on_time": 2.619, "note_off_time": 3.055}, {"pitch": 42, "velocity": 80, "note_on_time": 2.836, "note_off_time": 3.055}, {"pitch": 42, "velocity": 80, "note_on_time": 3.055, "note_off_time": 3.274}, {"pitch": 42, "velocity": 80, "note_on_time": 3.274, "note_off_time": 3.491}, {"pitch": 60, "velocity": 80, "note_on_time": 3.491, "note_off_time": 3.707}, {"pitch": 42, "velocity": 80, "note_on_time": 3.491, "note_off_time": 3.707}, {"pitch": 65, "velocity": 80, "note_on_time": 3.707, "note_off_time": 3.925}, {"pitch": 42, "velocity": 80, "note_on_time": 3.707, "note_off_time": 3.925}, {"pitch": 60, "velocity": 80, "note_on_time": 3.925, "note_off_time": 4.143}, {"pitch": 42, "velocity": 80, "note_on_time": 3.925, "note_off_time": 4.143}, {"pitch": 62, "velocity": 80, "note_on_time": 4.143, "note_off_time": 4.359}, {"pitch": 42, "velocity": 80, "note_on_time": 4.143, "note_off_time": 4.359}, {"pitch": 60, "velocity": 80, "note_on_time": 4.359, "note_off_time": 4.576}, {"pitch": 42, "velocity": 80, "note_on_time": 4.359, "note_off_time": 4.576}, {"pitch": 65, "velocity": 80, "note_on_time": 4.576, "note_off_time": 4.794}, {"pitch": 42, "velocity": 80, "note_on_time": 4.576, "note_off_time": 4.794}, {"pitch": 60, "velocity": 80, "note_on_time": 4.794, "note_off_time": 5.01}, {"pitch": 42, "velocity": 80, "note_on_time": 4.794, "note_off_time": 5.01}, {"pitch": 64, "velocity": 80, "note_on_time": 5.01, "note_off_time": 5.226}, {"pitch": 42, "velocity": 80, "note_on_time": 5.01, "note_off_time": 5.226}, {"pitch": 64, "velocity": 80, "note_on_time": 5.226, "note_off_time": 5.445}, {"pitch": 42, "velocity": 80, "note_on_time": 5.226, "note_off_time": 5.445}, {"pitch": 64, "velocity": 80, "note_on_time": 5.445, "note_off_time": 5.664}, {"pitch": 42, "velocity": 80, "note_on_time": 5.445, "note_off_time": 5.664}, {"pitch": 62, "velocity": 80, "note_on_time": 5.664, "note_off_time": 5.882}, {"pitch": 42, "velocity": 80, "note_on_time": 5.664, "note_off_time": 5.882}, {"pitch": 62, "velocity": 80, "note_on_time": 5.882, "note_off_time": 6.102}, {"pitch": 42, "velocity": 80, "note_on_time": 5.882, "note_off_time": 6.102}, {"pitch": 60, "velocity": 80, "note_on_time": 6.102, "note_off_time": 6.32}, {"pitch": 42, "velocity": 80, "note_on_time": 6.103, "note_off_time": 6.32}, {"pitch": 64, "velocity": 80, "note_on_time": 6.32, "note_off_time": 6.537}, {"pitch": 42, "velocity": 80, "note_on_time": 6.32, "note_off_time": 6.537}, {"pitch": 60, "velocity": 80, "note_on_time": 6.537, "note_off_time": 6.754}, {"pitch": 42, "velocity": 80, "note_on_time": 6.537, "note_off_time": 6.754}, {"pitch": 65, "velocity": 80, "note_on_time": 6.754, "note_off_time": 6.97}, {"pitch": 42, "velocity": 80, "note_on_time": 6.754, "note_off_time": 6.971}, {"pitch": 42, "velocity": 80, "note_on_time": 6.971, "note_off_time": 7.188}, {"pitch": 65, "velocity": 80, "note_on_time": 7.188, "note_off_time": 7.406}, {"pitch": 42, "velocity": 80, "note_on_time": 7.188, "note_off_time": 7.406}, {"pitch": 65, "velocity": 80, "note_on_time": 7.406, "note_off_time": 7.625}, {"pitch": 42, "velocity": 80, "note_on_time": 7.406, "note_off_time": 7.625}, {"pitch": 65, "velocity": 80, "note_on_time": 7.625, "note_off_time": 7.843}, {"pitch": 42, "velocity": 80, "note_on_time": 7.625, "note_off_time": 7.843}]</notes><options name="Option List">((4, 4), [0.5, 0.25], 3, 8, &lt;NoteRangePerHand.FOUR_NOTES: 5&gt;, &lt;NoteRangePerHand.ONE_NOTE: 2&gt;, False, True, False, 281)</options></target_notes><trials><trial trial_no="1" timestamp="2022_11_14-18_49_09"><notes name="Played Notes">[{"pitch": 65, "velocity": 80, "note_on_time": 0.885, "note_off_time": 1.047}, {"pitch": 64, "velocity": 81, "note_on_time": 1.132, "note_off_time": 1.223}, {"pitch": 64, "velocity": 90, "note_on_time": 1.383, "note_off_time": 1.497}, {"pitch": 65, "velocity": 86, "note_on_time": 1.633, "note_off_time": 1.74}, {"pitch": 65, "velocity": 92, "note_on_time": 1.921, "note_off_time": 2.057}, {"pitch": 64, "velocity": 89, "note_on_time": 2.186, "note_off_time": 2.292}, {"pitch": 64, "velocity": 86, "note_on_time": 2.46, "note_off_time": 2.587}, {"pitch": 62, "velocity": 89, "note_on_time": 2.723, "note_off_time": 2.83}, {"pitch": 64, "velocity": 93, "note_on_time": 2.985, "note_off_time": 3.288}, {"pitch": 60, "velocity": 92, "note_on_time": 3.567, "note_off_time": 3.714}, {"pitch": 65, "velocity": 85, "note_on_time": 3.831, "note_off_time": 3.942}, {"pitch": 60, "velocity": 85, "note_on_time": 4.09, "note_off_time": 4.189}, {"pitch": 62, "velocity": 80, "note_on_time": 4.341, "note_off_time": 4.442}, {"pitch": 60, "velocity": 87, "note_on_time": 4.595, "note_off_time": 4.703}, {"pitch": 65, "velocity": 85, "note_on_time": 4.859, "note_off_time": 4.975}, {"pitch": 60, "velocity": 84, "note_on_time": 5.112, "note_off_time": 5.217}, {"pitch": 64, "velocity": 86, "note_on_time": 5.369, "note_off_time": 5.455}, {"pitch": 64, "velocity": 90, "note_on_time": 5.642, "note_off_time": 5.726}, {"pitch": 64, "velocity": 90, "note_on_time": 5.911, "note_off_time": 6.038}, {"pitch": 62, "velocity": 81, "note_on_time": 6.172, "note_off_time": 6.274}, {"pitch": 62, "velocity": 74, "note_on_time": 6.445, "note_off_time": 6.559}, {"pitch": 60, "velocity": 82, "note_on_time": 6.703, "note_off_time": 6.812}, {"pitch": 64, "velocity": 77, "note_on_time": 6.94, "note_off_time": 7.08}, {"pitch": 60, "velocity": 78, "note_on_time": 7.225, "note_off_time": 7.326}, {"pitch": 65, "velocity": 83, "note_on_time": 7.503, "note_off_time": 7.615}]</notes><guidance name="Guidance Mode">None</guidance><error name="Error value">0.3585507999999999</error></trial></trials></MIDI>