<MIDI midiNo="2022_12_22-10_51_49"><target_notes><notes name="Note List">[{"pitch": 42, "velocity": 80, "note_on_time": 0.004, "note_off_time": 0.734}, {"pitch": 42, "velocity": 80, "note_on_time": 0.734, "note_off_time": 1.468}, {"pitch": 42, "velocity": 80, "note_on_time": 1.468, "note_off_time": 2.201}, {"pitch": 42, "velocity": 80, "note_on_time": 2.201, "note_off_time": 2.933}, {"pitch": 60, "velocity": 80, "note_on_time": 2.933, "note_off_time": 3.665}, {"pitch": 42, "velocity": 80, "note_on_time": 2.934, "note_off_time": 3.665}, {"pitch": 42, "velocity": 80, "note_on_time": 3.665, "note_off_time": 4.395}, {"pitch": 60, "velocity": 80, "note_on_time": 3.665, "note_off_time": 5.123}, {"pitch": 42, "velocity": 80, "note_on_time": 4.396, "note_off_time": 5.124}, {"pitch": 42, "velocity": 80, "note_on_time": 5.124, "note_off_time": 5.853}, {"pitch": 64, "velocity": 80, "note_on_time": 5.853, "note_off_time": 6.587}, {"pitch": 42, "velocity": 80, "note_on_time": 5.854, "note_off_time": 6.587}, {"pitch": 42, "velocity": 80, "note_on_time": 6.587, "note_off_time": 7.315}, {"pitch": 62, "velocity": 80, "note_on_time": 7.315, "note_off_time": 8.048}, {"pitch": 42, "velocity": 80, "note_on_time": 7.315, "note_off_time": 8.049}, {"pitch": 64, "velocity": 80, "note_on_time": 8.048, "note_off_time": 8.78}, {"pitch": 42, "velocity": 80, "note_on_time": 8.049, "note_off_time": 8.781}, {"pitch": 62, "velocity": 80, "note_on_time": 8.78, "note_off_time": 9.51}, {"pitch": 42, "velocity": 80, "note_on_time": 8.781, "note_off_time": 9.511}, {"pitch": 42, "velocity": 80, "note_on_time": 9.511, "note_off_time": 10.242}, {"pitch": 64, "velocity": 80, "note_on_time": 10.241, "note_off_time": 10.974}, {"pitch": 42, "velocity": 80, "note_on_time": 10.242, "note_off_time": 10.974}, {"pitch": 62, "velocity": 80, "note_on_time": 10.974, "note_off_time": 11.708}, {"pitch": 42, "velocity": 80, "note_on_time": 10.974, "note_off_time": 11.709}, {"pitch": 62, "velocity": 80, "note_on_time": 11.708, "note_off_time": 12.438}, {"pitch": 42, "velocity": 80, "note_on_time": 11.709, "note_off_time": 12.439}, {"pitch": 60, "velocity": 80, "note_on_time": 12.438, "note_off_time": 13.169}, {"pitch": 42, "velocity": 80, "note_on_time": 12.439, "note_off_time": 13.17}, {"pitch": 62, "velocity": 80, "note_on_time": 13.169, "note_off_time": 13.901}, {"pitch": 42, "velocity": 80, "note_on_time": 13.17, "note_off_time": 13.901}, {"pitch": 60, "velocity": 80, "note_on_time": 13.901, "note_off_time": 14.632}, {"pitch": 42, "velocity": 80, "note_on_time": 13.901, "note_off_time": 14.632}, {"pitch": 62, "velocity": 80, "note_on_time": 14.632, "note_off_time": 15.363}, {"pitch": 42, "velocity": 80, "note_on_time": 14.632, "note_off_time": 15.363}, {"pitch": 64, "velocity": 80, "note_on_time": 15.363, "note_off_time": 16.093}, {"pitch": 42, "velocity": 80, "note_on_time": 15.363, "note_off_time": 16.093}, {"pitch": 64, "velocity": 80, "note_on_time": 16.093, "note_off_time": 16.822}, {"pitch": 42, "velocity": 80, "note_on_time": 16.093, "note_off_time": 16.822}, {"pitch": 62, "velocity": 80, "note_on_time": 16.822, "note_off_time": 17.554}, {"pitch": 42, "velocity": 80, "note_on_time": 16.823, "note_off_time": 17.555}, {"pitch": 64, "velocity": 80, "note_on_time": 17.554, "note_off_time": 18.285}, {"pitch": 42, "velocity": 80, "note_on_time": 17.555, "note_off_time": 18.285}, {"pitch": 42, "velocity": 80, "note_on_time": 18.285, "note_off_time": 19.014}, {"pitch": 42, "velocity": 80, "note_on_time": 19.014, "note_off_time": 19.745}, {"pitch": 60, "velocity": 80, "note_on_time": 19.013, "note_off_time": 20.477}, {"pitch": 42, "velocity": 80, "note_on_time": 19.746, "note_off_time": 20.478}, {"pitch": 62, "velocity": 80, "note_on_time": 20.477, "note_off_time": 21.206}, {"pitch": 42, "velocity": 80, "note_on_time": 20.478, "note_off_time": 21.207}, {"pitch": 64, "velocity": 80, "note_on_time": 21.206, "note_off_time": 21.938}, {"pitch": 42, "velocity": 80, "note_on_time": 21.207, "note_off_time": 21.938}, {"pitch": 62, "velocity": 80, "note_on_time": 21.938, "note_off_time": 22.667}, {"pitch": 42, "velocity": 80, "note_on_time": 21.939, "note_off_time": 22.667}, {"pitch": 64, "velocity": 80, "note_on_time": 22.667, "note_off_time": 23.402}, {"pitch": 42, "velocity": 80, "note_on_time": 22.668, "note_off_time": 23.402}, {"pitch": 42, "velocity": 80, "note_on_time": 23.402, "note_off_time": 24.135}, {"pitch": 64, "velocity": 80, "note_on_time": 24.135, "note_off_time": 24.866}, {"pitch": 42, "velocity": 80, "note_on_time": 24.135, "note_off_time": 24.866}, {"pitch": 64, "velocity": 80, "note_on_time": 24.866, "note_off_time": 25.596}, {"pitch": 42, "velocity": 80, "note_on_time": 24.867, "note_off_time": 25.596}, {"pitch": 64, "velocity": 80, "note_on_time": 25.596, "note_off_time": 26.327}, {"pitch": 42, "velocity": 80, "note_on_time": 25.596, "note_off_time": 26.328}]</notes><options name="Option List">((4, 4), [0.5, 0.25], 3, 8, &lt;NoteRangePerHand.THREE_NOTES: 4&gt;, &lt;NoteRangePerHand.ONE_NOTE: 2&gt;, False, True, False, 83)</options></target_notes><trials><trial trial_no="1" timestamp="2022_12_22-10_51_22"><notes name="Played Notes">[{"pitch": 60, "velocity": 74, "note_on_time": 2.971, "note_off_time": 3.328}, {"pitch": 60, "velocity": 67, "note_on_time": 3.685, "note_off_time": 4.655}, {"pitch": 64, "velocity": 56, "note_on_time": 5.137, "note_off_time": 5.493}, {"pitch": 62, "velocity": 56, "note_on_time": 6.569, "note_off_time": 6.959}, {"pitch": 64, "velocity": 57, "note_on_time": 7.299, "note_off_time": 7.718}, {"pitch": 62, "velocity": 60, "note_on_time": 8.044, "note_off_time": 8.377}, {"pitch": 64, "velocity": 60, "note_on_time": 9.514, "note_off_time": 9.855}, {"pitch": 62, "velocity": 58, "note_on_time": 10.243, "note_off_time": 10.523}, {"pitch": 62, "velocity": 60, "note_on_time": 10.976, "note_off_time": 11.191}, {"pitch": 60, "velocity": 59, "note_on_time": 11.66, "note_off_time": 12.082}, {"pitch": 62, "velocity": 57, "note_on_time": 12.382, "note_off_time": 12.749}, {"pitch": 60, "velocity": 48, "note_on_time": 13.095, "note_off_time": 13.617}, {"pitch": 62, "velocity": 60, "note_on_time": 13.887, "note_off_time": 14.225}, {"pitch": 64, "velocity": 54, "note_on_time": 14.582, "note_off_time": 14.926}, {"pitch": 64, "velocity": 49, "note_on_time": 15.291, "note_off_time": 15.73}, {"pitch": 62, "velocity": 58, "note_on_time": 16.015, "note_off_time": 16.494}, {"pitch": 64, "velocity": 53, "note_on_time": 16.791, "note_off_time": 17.162}, {"pitch": 60, "velocity": 48, "note_on_time": 18.178, "note_off_time": 19.32}, {"pitch": 62, "velocity": 50, "note_on_time": 19.713, "note_off_time": 20.166}, {"pitch": 64, "velocity": 43, "note_on_time": 20.453, "note_off_time": 20.913}, {"pitch": 62, "velocity": 52, "note_on_time": 21.211, "note_off_time": 21.628}, {"pitch": 64, "velocity": 57, "note_on_time": 21.913, "note_off_time": 22.353}, {"pitch": 64, "velocity": 51, "note_on_time": 23.297, "note_off_time": 23.724}, {"pitch": 64, "velocity": 42, "note_on_time": 24.101, "note_off_time": 24.428}, {"pitch": 64, "velocity": 51, "note_on_time": 24.789, "note_off_time": 25.035}]</notes><guidance name="Guidance Mode">None</guidance><error name="Error value">0.06466695454545417</error></trial></trials></MIDI>