<MIDI midiNo="2022_11_03-10_32_30"><target_notes><notes name="Note List">[{"pitch": 42, "velocity": 80, "note_on_time": 0.004, "note_off_time": 0.225}, {"pitch": 42, "velocity": 80, "note_on_time": 0.225, "note_off_time": 0.442}, {"pitch": 42, "velocity": 80, "note_on_time": 0.442, "note_off_time": 0.659}, {"pitch": 42, "velocity": 80, "note_on_time": 0.659, "note_off_time": 0.877}, {"pitch": 62, "velocity": 80, "note_on_time": 0.877, "note_off_time": 1.097}, {"pitch": 42, "velocity": 80, "note_on_time": 0.877, "note_off_time": 1.097}, {"pitch": 65, "velocity": 80, "note_on_time": 1.097, "note_off_time": 1.316}, {"pitch": 42, "velocity": 80, "note_on_time": 1.097, "note_off_time": 1.316}, {"pitch": 60, "velocity": 80, "note_on_time": 1.316, "note_off_time": 1.538}, {"pitch": 42, "velocity": 80, "note_on_time": 1.316, "note_off_time": 1.538}, {"pitch": 64, "velocity": 80, "note_on_time": 1.538, "note_off_time": 1.756}, {"pitch": 42, "velocity": 80, "note_on_time": 1.538, "note_off_time": 1.756}, {"pitch": 64, "velocity": 80, "note_on_time": 1.756, "note_off_time": 1.98}, {"pitch": 42, "velocity": 80, "note_on_time": 1.756, "note_off_time": 1.98}, {"pitch": 65, "velocity": 80, "note_on_time": 1.98, "note_off_time": 2.199}, {"pitch": 42, "velocity": 80, "note_on_time": 1.98, "note_off_time": 2.199}, {"pitch": 67, "velocity": 80, "note_on_time": 2.199, "note_off_time": 2.417}, {"pitch": 42, "velocity": 80, "note_on_time": 2.199, "note_off_time": 2.417}, {"pitch": 62, "velocity": 80, "note_on_time": 2.417, "note_off_time": 2.639}, {"pitch": 42, "velocity": 80, "note_on_time": 2.417, "note_off_time": 2.639}, {"pitch": 62, "velocity": 80, "note_on_time": 2.639, "note_off_time": 2.856}, {"pitch": 42, "velocity": 80, "note_on_time": 2.64, "note_off_time": 2.856}, {"pitch": 64, "velocity": 80, "note_on_time": 2.856, "note_off_time": 3.074}, {"pitch": 42, "velocity": 80, "note_on_time": 2.856, "note_off_time": 3.074}, {"pitch": 64, "velocity": 80, "note_on_time": 3.074, "note_off_time": 3.291}, {"pitch": 42, "velocity": 80, "note_on_time": 3.074, "note_off_time": 3.291}, {"pitch": 64, "velocity": 80, "note_on_time": 3.291, "note_off_time": 3.509}, {"pitch": 42, "velocity": 80, "note_on_time": 3.291, "note_off_time": 3.509}, {"pitch": 67, "velocity": 80, "note_on_time": 3.509, "note_off_time": 3.729}, {"pitch": 42, "velocity": 80, "note_on_time": 3.509, "note_off_time": 3.729}, {"pitch": 62, "velocity": 80, "note_on_time": 3.729, "note_off_time": 3.947}, {"pitch": 42, "velocity": 80, "note_on_time": 3.729, "note_off_time": 3.947}, {"pitch": 42, "velocity": 80, "note_on_time": 3.947, "note_off_time": 4.164}, {"pitch": 60, "velocity": 80, "note_on_time": 3.947, "note_off_time": 4.38}, {"pitch": 42, "velocity": 80, "note_on_time": 4.164, "note_off_time": 4.38}, {"pitch": 67, "velocity": 80, "note_on_time": 4.38, "note_off_time": 4.598}, {"pitch": 42, "velocity": 80, "note_on_time": 4.38, "note_off_time": 4.598}, {"pitch": 67, "velocity": 80, "note_on_time": 4.598, "note_off_time": 4.818}, {"pitch": 42, "velocity": 80, "note_on_time": 4.598, "note_off_time": 4.818}, {"pitch": 65, "velocity": 80, "note_on_time": 4.818, "note_off_time": 5.036}, {"pitch": 42, "velocity": 80, "note_on_time": 4.818, "note_off_time": 5.036}, {"pitch": 64, "velocity": 80, "note_on_time": 5.036, "note_off_time": 5.255}, {"pitch": 42, "velocity": 80, "note_on_time": 5.036, "note_off_time": 5.255}, {"pitch": 60, "velocity": 80, "note_on_time": 5.255, "note_off_time": 5.471}, {"pitch": 42, "velocity": 80, "note_on_time": 5.255, "note_off_time": 5.471}, {"pitch": 64, "velocity": 80, "note_on_time": 5.471, "note_off_time": 5.69}, {"pitch": 42, "velocity": 80, "note_on_time": 5.471, "note_off_time": 5.69}, {"pitch": 67, "velocity": 80, "note_on_time": 5.69, "note_off_time": 5.908}, {"pitch": 42, "velocity": 80, "note_on_time": 5.69, "note_off_time": 5.908}, {"pitch": 62, "velocity": 80, "note_on_time": 5.908, "note_off_time": 6.126}, {"pitch": 42, "velocity": 80, "note_on_time": 5.909, "note_off_time": 6.126}, {"pitch": 42, "velocity": 80, "note_on_time": 6.126, "note_off_time": 6.342}, {"pitch": 64, "velocity": 80, "note_on_time": 6.126, "note_off_time": 6.561}, {"pitch": 42, "velocity": 80, "note_on_time": 6.342, "note_off_time": 6.561}, {"pitch": 42, "velocity": 80, "note_on_time": 6.561, "note_off_time": 6.778}, {"pitch": 60, "velocity": 80, "note_on_time": 6.561, "note_off_time": 6.994}, {"pitch": 42, "velocity": 80, "note_on_time": 6.778, "note_off_time": 6.994}, {"pitch": 42, "velocity": 80, "note_on_time": 6.994, "note_off_time": 7.211}, {"pitch": 60, "velocity": 80, "note_on_time": 7.211, "note_off_time": 7.43}, {"pitch": 42, "velocity": 80, "note_on_time": 7.212, "note_off_time": 7.43}, {"pitch": 60, "velocity": 80, "note_on_time": 7.43, "note_off_time": 7.647}, {"pitch": 42, "velocity": 80, "note_on_time": 7.43, "note_off_time": 7.647}, {"pitch": 60, "velocity": 80, "note_on_time": 7.647, "note_off_time": 7.867}, {"pitch": 42, "velocity": 80, "note_on_time": 7.647, "note_off_time": 7.867}]</notes><options name="Option List">((4, 4), [0.5, 0.25], 3, 8, &lt;NoteRangePerHand.C_TO_G: 6&gt;, &lt;NoteRangePerHand.ONE_NOTE: 2&gt;, False, True, False, '281')</options></target_notes><trials><trial trial_no="1" timestamp="2022_11_03-10_32_20"><notes name="Played Notes">[{"pitch": 62, "velocity": 69, "note_on_time": 0.751, "note_off_time": 0.979}, {"pitch": 65, "velocity": 81, "note_on_time": 0.981, "note_off_time": 1.163}, {"pitch": 60, "velocity": 69, "note_on_time": 1.229, "note_off_time": 1.995}, {"pitch": 64, "velocity": 73, "note_on_time": 1.503, "note_off_time": 1.995}, {"pitch": 64, "velocity": 81, "note_on_time": 1.996, "note_off_time": 1.996}, {"pitch": 65, "velocity": 84, "note_on_time": 2.009, "note_off_time": 2.208}, {"pitch": 67, "velocity": 75, "note_on_time": 2.242, "note_off_time": 2.521}, {"pitch": 62, "velocity": 68, "note_on_time": 2.495, "note_off_time": 2.605}, {"pitch": 62, "velocity": 77, "note_on_time": 2.767, "note_off_time": 3.021}, {"pitch": 64, "velocity": 78, "note_on_time": 3.021, "note_off_time": 3.139}, {"pitch": 64, "velocity": 77, "note_on_time": 3.3, "note_off_time": 3.421}, {"pitch": 64, "velocity": 86, "note_on_time": 3.579, "note_off_time": 3.816}, {"pitch": 67, "velocity": 83, "note_on_time": 3.836, "note_off_time": 4.083}, {"pitch": 62, "velocity": 66, "note_on_time": 4.087, "note_off_time": 4.344}, {"pitch": 60, "velocity": 81, "note_on_time": 4.335, "note_off_time": 4.882}, {"pitch": 67, "velocity": 70, "note_on_time": 4.882, "note_off_time": 4.971}, {"pitch": 67, "velocity": 69, "note_on_time": 5.088, "note_off_time": 5.427}, {"pitch": 65, "velocity": 71, "note_on_time": 5.334, "note_off_time": 5.581}, {"pitch": 64, "velocity": 67, "note_on_time": 5.58, "note_off_time": 5.823}, {"pitch": 60, "velocity": 72, "note_on_time": 5.844, "note_off_time": 6.14}, {"pitch": 64, "velocity": 69, "note_on_time": 6.112, "note_off_time": 6.25}, {"pitch": 67, "velocity": 69, "note_on_time": 6.352, "note_off_time": 6.668}, {"pitch": 62, "velocity": 67, "note_on_time": 6.64, "note_off_time": 6.85}, {"pitch": 64, "velocity": 70, "note_on_time": 6.956, "note_off_time": 7.47}]</notes><guidance name="Guidance Mode">None</guidance><error name="Error value">0.5869126400000001</error></trial><trial trial_no="2" timestamp="2022_11_03-10_32_41"><notes name="Played Notes">[{"pitch": 62, "velocity": 85, "note_on_time": 0.921, "note_off_time": 1.13}, {"pitch": 65, "velocity": 75, "note_on_time": 1.154, "note_off_time": 1.349}, {"pitch": 60, "velocity": 81, "note_on_time": 1.42, "note_off_time": 1.613}, {"pitch": 64, "velocity": 62, "note_on_time": 1.713, "note_off_time": 1.779}, {"pitch": 64, "velocity": 41, "note_on_time": 4.966, "note_off_time": 5.038}, {"pitch": 64, "velocity": 57, "note_on_time": 5.147, "note_off_time": 5.275}, {"pitch": 64, "velocity": 58, "note_on_time": 5.381, "note_off_time": 5.728}]</notes><guidance name="Guidance Mode">None</guidance><error name="Error value">1.1278602400000002</error></trial><trial trial_no="3" timestamp="2022_11_03-10_33_03"><notes name="Played Notes">[{"pitch": 62, "velocity": 84, "note_on_time": 0.919, "note_off_time": 1.162}, {"pitch": 65, "velocity": 85, "note_on_time": 1.16, "note_off_time": 1.385}, {"pitch": 60, "velocity": 65, "note_on_time": 1.397, "note_off_time": 1.624}, {"pitch": 64, "velocity": 76, "note_on_time": 1.634, "note_off_time": 1.737}, {"pitch": 64, "velocity": 85, "note_on_time": 1.883, "note_off_time": 2.135}, {"pitch": 65, "velocity": 85, "note_on_time": 2.137, "note_off_time": 2.345}, {"pitch": 67, "velocity": 70, "note_on_time": 2.365, "note_off_time": 2.629}, {"pitch": 62, "velocity": 67, "note_on_time": 2.619, "note_off_time": 2.743}, {"pitch": 65, "velocity": 71, "note_on_time": 3.04, "note_off_time": 3.113}, {"pitch": 64, "velocity": 78, "note_on_time": 3.253, "note_off_time": 3.344}, {"pitch": 64, "velocity": 79, "note_on_time": 3.495, "note_off_time": 3.633}, {"pitch": 64, "velocity": 81, "note_on_time": 3.758, "note_off_time": 3.889}, {"pitch": 67, "velocity": 71, "note_on_time": 3.984, "note_off_time": 4.246}, {"pitch": 62, "velocity": 33, "note_on_time": 4.252, "note_off_time": 4.341}, {"pitch": 64, "velocity": 74, "note_on_time": 4.294, "note_off_time": 4.449}, {"pitch": 62, "velocity": 77, "note_on_time": 4.484, "note_off_time": 4.716}, {"pitch": 60, "velocity": 75, "note_on_time": 4.734, "note_off_time": 5.212}, {"pitch": 67, "velocity": 74, "note_on_time": 5.246, "note_off_time": 5.345}, {"pitch": 67, "velocity": 61, "note_on_time": 5.459, "note_off_time": 5.781}, {"pitch": 65, "velocity": 78, "note_on_time": 5.71, "note_off_time": 5.984}, {"pitch": 64, "velocity": 71, "note_on_time": 5.948, "note_off_time": 6.134}, {"pitch": 60, "velocity": 74, "note_on_time": 6.197, "note_off_time": 6.418}, {"pitch": 64, "velocity": 69, "note_on_time": 6.439, "note_off_time": 6.569}, {"pitch": 67, "velocity": 62, "note_on_time": 6.667, "note_off_time": 6.917}, {"pitch": 62, "velocity": 75, "note_on_time": 6.972, "note_off_time": 7.136}, {"pitch": 64, "velocity": 64, "note_on_time": 7.212, "note_off_time": 7.658}]</notes><guidance name="Guidance Mode">None</guidance><error name="Error value">0.6141754</error></trial></trials></MIDI>