<MIDI midiNo="2022_10_27-11_16_48"><target_notes><notes name="Note List">[{"pitch": 42, "velocity": 80, "note_on_time": 0.004, "note_off_time": 0.535}, {"pitch": 42, "velocity": 80, "note_on_time": 0.535, "note_off_time": 1.063}, {"pitch": 42, "velocity": 80, "note_on_time": 1.063, "note_off_time": 1.594}, {"pitch": 42, "velocity": 80, "note_on_time": 1.594, "note_off_time": 2.125}, {"pitch": 60, "velocity": 80, "note_on_time": 2.125, "note_off_time": 2.651}, {"pitch": 42, "velocity": 80, "note_on_time": 2.125, "note_off_time": 2.651}, {"pitch": 60, "velocity": 80, "note_on_time": 2.651, "note_off_time": 3.18}, {"pitch": 42, "velocity": 80, "note_on_time": 2.651, "note_off_time": 3.18}, {"pitch": 60, "velocity": 80, "note_on_time": 3.18, "note_off_time": 3.71}, {"pitch": 42, "velocity": 80, "note_on_time": 3.18, "note_off_time": 3.71}, {"pitch": 60, "velocity": 80, "note_on_time": 3.71, "note_off_time": 4.238}, {"pitch": 42, "velocity": 80, "note_on_time": 3.711, "note_off_time": 4.238}, {"pitch": 60, "velocity": 80, "note_on_time": 4.238, "note_off_time": 4.768}, {"pitch": 42, "velocity": 80, "note_on_time": 4.238, "note_off_time": 4.768}, {"pitch": 42, "velocity": 80, "note_on_time": 4.769, "note_off_time": 5.296}, {"pitch": 62, "velocity": 80, "note_on_time": 5.296, "note_off_time": 5.825}, {"pitch": 42, "velocity": 80, "note_on_time": 5.297, "note_off_time": 5.826}, {"pitch": 60, "velocity": 80, "note_on_time": 5.825, "note_off_time": 6.355}, {"pitch": 42, "velocity": 80, "note_on_time": 5.826, "note_off_time": 6.356}, {"pitch": 60, "velocity": 80, "note_on_time": 6.355, "note_off_time": 6.887}, {"pitch": 42, "velocity": 80, "note_on_time": 6.356, "note_off_time": 6.888}, {"pitch": 62, "velocity": 80, "note_on_time": 6.887, "note_off_time": 7.417}, {"pitch": 42, "velocity": 80, "note_on_time": 6.888, "note_off_time": 7.417}, {"pitch": 60, "velocity": 80, "note_on_time": 7.417, "note_off_time": 7.951}, {"pitch": 42, "velocity": 80, "note_on_time": 7.417, "note_off_time": 7.951}, {"pitch": 62, "velocity": 80, "note_on_time": 7.951, "note_off_time": 8.481}, {"pitch": 42, "velocity": 80, "note_on_time": 7.951, "note_off_time": 8.482}, {"pitch": 60, "velocity": 80, "note_on_time": 8.481, "note_off_time": 9.011}, {"pitch": 42, "velocity": 80, "note_on_time": 8.483, "note_off_time": 9.011}, {"pitch": 42, "velocity": 80, "note_on_time": 9.011, "note_off_time": 9.544}, {"pitch": 42, "velocity": 80, "note_on_time": 9.545, "note_off_time": 10.072}, {"pitch": 60, "velocity": 80, "note_on_time": 10.072, "note_off_time": 10.602}, {"pitch": 42, "velocity": 80, "note_on_time": 10.072, "note_off_time": 10.602}, {"pitch": 62, "velocity": 80, "note_on_time": 10.602, "note_off_time": 11.131}, {"pitch": 42, "velocity": 80, "note_on_time": 10.602, "note_off_time": 11.132}, {"pitch": 60, "velocity": 80, "note_on_time": 11.131, "note_off_time": 11.661}, {"pitch": 42, "velocity": 80, "note_on_time": 11.132, "note_off_time": 11.661}, {"pitch": 62, "velocity": 80, "note_on_time": 11.661, "note_off_time": 12.188}, {"pitch": 42, "velocity": 80, "note_on_time": 11.662, "note_off_time": 12.189}, {"pitch": 62, "velocity": 80, "note_on_time": 12.188, "note_off_time": 12.716}, {"pitch": 42, "velocity": 80, "note_on_time": 12.189, "note_off_time": 12.717}, {"pitch": 62, "velocity": 80, "note_on_time": 12.716, "note_off_time": 13.245}, {"pitch": 42, "velocity": 80, "note_on_time": 12.717, "note_off_time": 13.245}, {"pitch": 60, "velocity": 80, "note_on_time": 13.245, "note_off_time": 13.776}, {"pitch": 42, "velocity": 80, "note_on_time": 13.245, "note_off_time": 13.776}, {"pitch": 60, "velocity": 80, "note_on_time": 13.776, "note_off_time": 14.303}, {"pitch": 42, "velocity": 80, "note_on_time": 13.776, "note_off_time": 14.304}, {"pitch": 60, "velocity": 80, "note_on_time": 14.303, "note_off_time": 14.83}, {"pitch": 42, "velocity": 80, "note_on_time": 14.304, "note_off_time": 14.831}, {"pitch": 62, "velocity": 80, "note_on_time": 14.83, "note_off_time": 15.357}, {"pitch": 42, "velocity": 80, "note_on_time": 14.831, "note_off_time": 15.358}, {"pitch": 60, "velocity": 80, "note_on_time": 15.357, "note_off_time": 15.887}, {"pitch": 42, "velocity": 80, "note_on_time": 15.358, "note_off_time": 15.887}, {"pitch": 62, "velocity": 80, "note_on_time": 15.887, "note_off_time": 16.416}, {"pitch": 42, "velocity": 80, "note_on_time": 15.888, "note_off_time": 16.416}, {"pitch": 60, "velocity": 80, "note_on_time": 16.416, "note_off_time": 16.948}, {"pitch": 42, "velocity": 80, "note_on_time": 16.416, "note_off_time": 16.948}, {"pitch": 42, "velocity": 80, "note_on_time": 16.948, "note_off_time": 17.478}, {"pitch": 60, "velocity": 80, "note_on_time": 17.478, "note_off_time": 18.007}, {"pitch": 42, "velocity": 80, "note_on_time": 17.479, "note_off_time": 18.007}, {"pitch": 60, "velocity": 80, "note_on_time": 18.007, "note_off_time": 18.534}, {"pitch": 42, "velocity": 80, "note_on_time": 18.008, "note_off_time": 18.534}, {"pitch": 60, "velocity": 80, "note_on_time": 18.534, "note_off_time": 19.064}, {"pitch": 42, "velocity": 80, "note_on_time": 18.535, "note_off_time": 19.064}]</notes><options name="Option List">((4, 4), [0.25], 3, 8, &lt;NoteRangePerHand.TWO_NOTES: 3&gt;, &lt;NoteRangePerHand.ONE_NOTE: 2&gt;, False, True, False, '116')</options></target_notes><trials><trial trial_no="1" timestamp="2022_10_27-11_16_27"><notes name="Played Notes">[{"pitch": 60, "velocity": 59, "note_on_time": 2.181, "note_off_time": 2.356}, {"pitch": 60, "velocity": 62, "note_on_time": 2.699, "note_off_time": 2.862}, {"pitch": 60, "velocity": 59, "note_on_time": 3.227, "note_off_time": 3.384}, {"pitch": 60, "velocity": 55, "note_on_time": 3.763, "note_off_time": 3.925}, {"pitch": 60, "velocity": 61, "note_on_time": 4.321, "note_off_time": 4.505}, {"pitch": 62, "velocity": 47, "note_on_time": 5.358, "note_off_time": 5.554}, {"pitch": 60, "velocity": 56, "note_on_time": 5.938, "note_off_time": 6.116}, {"pitch": 60, "velocity": 57, "note_on_time": 6.49, "note_off_time": 6.664}, {"pitch": 62, "velocity": 49, "note_on_time": 7.009, "note_off_time": 7.206}, {"pitch": 60, "velocity": 62, "note_on_time": 7.561, "note_off_time": 7.73}, {"pitch": 62, "velocity": 62, "note_on_time": 8.129, "note_off_time": 8.303}, {"pitch": 60, "velocity": 52, "note_on_time": 8.71, "note_off_time": 8.866}, {"pitch": 60, "velocity": 59, "note_on_time": 10.738, "note_off_time": 10.898}, {"pitch": 62, "velocity": 56, "note_on_time": 11.241, "note_off_time": 11.426}, {"pitch": 60, "velocity": 57, "note_on_time": 11.769, "note_off_time": 11.933}, {"pitch": 62, "velocity": 46, "note_on_time": 12.251, "note_off_time": 12.458}, {"pitch": 62, "velocity": 49, "note_on_time": 12.774, "note_off_time": 12.93}, {"pitch": 62, "velocity": 57, "note_on_time": 13.317, "note_off_time": 13.48}, {"pitch": 60, "velocity": 56, "note_on_time": 13.844, "note_off_time": 14.005}, {"pitch": 60, "velocity": 49, "note_on_time": 14.35, "note_off_time": 14.513}, {"pitch": 60, "velocity": 57, "note_on_time": 14.852, "note_off_time": 15.023}, {"pitch": 62, "velocity": 52, "note_on_time": 15.364, "note_off_time": 15.571}, {"pitch": 60, "velocity": 56, "note_on_time": 15.902, "note_off_time": 16.075}, {"pitch": 62, "velocity": 45, "note_on_time": 16.405, "note_off_time": 16.597}, {"pitch": 60, "velocity": 64, "note_on_time": 16.932, "note_off_time": 17.109}, {"pitch": 60, "velocity": 56, "note_on_time": 18.026, "note_off_time": 18.212}, {"pitch": 60, "velocity": 57, "note_on_time": 18.555, "note_off_time": 18.717}]</notes><guidance name="Guidance Mode">None</guidance><error name="Error value">0.10259611999999989</error></trial><trial trial_no="2" timestamp="2022_10_27-11_16_55"><notes name="Played Notes">[{"pitch": 60, "velocity": 55, "note_on_time": 2.08, "note_off_time": 2.254}, {"pitch": 60, "velocity": 55, "note_on_time": 2.589, "note_off_time": 2.744}, {"pitch": 60, "velocity": 53, "note_on_time": 3.116, "note_off_time": 3.273}, {"pitch": 60, "velocity": 49, "note_on_time": 3.652, "note_off_time": 3.815}, {"pitch": 60, "velocity": 53, "note_on_time": 4.206, "note_off_time": 4.351}, {"pitch": 62, "velocity": 56, "note_on_time": 5.177, "note_off_time": 5.357}, {"pitch": 60, "velocity": 58, "note_on_time": 5.755, "note_off_time": 5.926}, {"pitch": 60, "velocity": 49, "note_on_time": 6.264, "note_off_time": 6.438}, {"pitch": 62, "velocity": 25, "note_on_time": 7.298, "note_off_time": 7.467}, {"pitch": 60, "velocity": 50, "note_on_time": 7.857, "note_off_time": 8.029}, {"pitch": 62, "velocity": 56, "note_on_time": 8.39, "note_off_time": 8.562}, {"pitch": 60, "velocity": 43, "note_on_time": 8.982, "note_off_time": 9.13}, {"pitch": 60, "velocity": 52, "note_on_time": 11.062, "note_off_time": 11.233}, {"pitch": 62, "velocity": 44, "note_on_time": 11.587, "note_off_time": 11.777}, {"pitch": 60, "velocity": 56, "note_on_time": 12.108, "note_off_time": 12.278}, {"pitch": 62, "velocity": 52, "note_on_time": 12.677, "note_off_time": 12.829}, {"pitch": 62, "velocity": 48, "note_on_time": 13.185, "note_off_time": 13.354}, {"pitch": 62, "velocity": 36, "note_on_time": 13.726, "note_off_time": 13.915}, {"pitch": 60, "velocity": 60, "note_on_time": 14.295, "note_off_time": 14.456}, {"pitch": 60, "velocity": 57, "note_on_time": 14.822, "note_off_time": 14.988}, {"pitch": 60, "velocity": 64, "note_on_time": 15.304, "note_off_time": 15.475}, {"pitch": 62, "velocity": 67, "note_on_time": 15.832, "note_off_time": 16.012}, {"pitch": 60, "velocity": 56, "note_on_time": 16.337, "note_off_time": 16.523}, {"pitch": 62, "velocity": 48, "note_on_time": 16.854, "note_off_time": 17.036}, {"pitch": 60, "velocity": 55, "note_on_time": 17.353, "note_off_time": 17.497}, {"pitch": 60, "velocity": 59, "note_on_time": 18.264, "note_off_time": 18.45}, {"pitch": 60, "velocity": 61, "note_on_time": 18.77, "note_off_time": 18.953}]</notes><guidance name="Guidance Mode">None</guidance><error name="Error value">0.13079179999999963</error></trial><trial trial_no="3" timestamp="2022_10_27-11_17_28"><notes name="Played Notes">[{"pitch": 60, "velocity": 57, "note_on_time": 1.584, "note_off_time": 1.752}, {"pitch": 60, "velocity": 54, "note_on_time": 2.097, "note_off_time": 2.264}, {"pitch": 60, "velocity": 52, "note_on_time": 2.614, "note_off_time": 2.78}, {"pitch": 60, "velocity": 56, "note_on_time": 3.115, "note_off_time": 3.269}, {"pitch": 60, "velocity": 56, "note_on_time": 3.636, "note_off_time": 3.802}, {"pitch": 62, "velocity": 54, "note_on_time": 4.512, "note_off_time": 4.699}, {"pitch": 60, "velocity": 56, "note_on_time": 5.075, "note_off_time": 5.226}, {"pitch": 60, "velocity": 58, "note_on_time": 5.579, "note_off_time": 5.748}, {"pitch": 62, "velocity": 46, "note_on_time": 6.073, "note_off_time": 6.265}, {"pitch": 60, "velocity": 65, "note_on_time": 6.611, "note_off_time": 6.79}, {"pitch": 62, "velocity": 59, "note_on_time": 7.152, "note_off_time": 7.336}, {"pitch": 60, "velocity": 67, "note_on_time": 7.662, "note_off_time": 7.83}, {"pitch": 60, "velocity": 58, "note_on_time": 9.439, "note_off_time": 9.61}, {"pitch": 62, "velocity": 51, "note_on_time": 9.948, "note_off_time": 10.139}, {"pitch": 60, "velocity": 55, "note_on_time": 10.465, "note_off_time": 10.641}, {"pitch": 62, "velocity": 60, "note_on_time": 11.028, "note_off_time": 11.195}, {"pitch": 62, "velocity": 54, "note_on_time": 11.535, "note_off_time": 11.735}, {"pitch": 62, "velocity": 67, "note_on_time": 12.103, "note_off_time": 12.267}, {"pitch": 60, "velocity": 62, "note_on_time": 12.666, "note_off_time": 12.834}, {"pitch": 60, "velocity": 57, "note_on_time": 13.155, "note_off_time": 13.332}, {"pitch": 60, "velocity": 63, "note_on_time": 13.624, "note_off_time": 13.807}, {"pitch": 62, "velocity": 58, "note_on_time": 14.152, "note_off_time": 14.346}, {"pitch": 60, "velocity": 66, "note_on_time": 14.629, "note_off_time": 14.818}, {"pitch": 62, "velocity": 56, "note_on_time": 15.14, "note_off_time": 15.325}, {"pitch": 60, "velocity": 69, "note_on_time": 15.639, "note_off_time": 15.83}, {"pitch": 60, "velocity": 59, "note_on_time": 16.463, "note_off_time": 16.648}, {"pitch": 60, "velocity": 60, "note_on_time": 16.994, "note_off_time": 17.169}, {"pitch": 60, "velocity": 68, "note_on_time": 17.532, "note_off_time": 17.677}]</notes><guidance name="Guidance Mode">None</guidance><error name="Error value">0.04400819999999982</error></trial></trials></MIDI>