<MIDI midiNo="2022_08_17-11_30_13"><target_notes><notes name="Note List">[{"pitch": 42, "velocity": 80, "note_on_time": 0.004, "note_off_time": 0.874}, {"pitch": 42, "velocity": 80, "note_on_time": 0.875, "note_off_time": 1.747}, {"pitch": 42, "velocity": 80, "note_on_time": 1.748, "note_off_time": 2.62}, {"pitch": 42, "velocity": 80, "note_on_time": 2.62, "note_off_time": 3.483}, {"pitch": 62, "velocity": 80, "note_on_time": 3.483, "note_off_time": 4.355}, {"pitch": 42, "velocity": 80, "note_on_time": 3.484, "note_off_time": 4.355}, {"pitch": 42, "velocity": 80, "note_on_time": 4.355, "note_off_time": 5.215}, {"pitch": 65, "velocity": 80, "note_on_time": 5.215, "note_off_time": 6.074}, {"pitch": 42, "velocity": 80, "note_on_time": 5.215, "note_off_time": 6.074}, {"pitch": 42, "velocity": 80, "note_on_time": 6.074, "note_off_time": 6.933}, {"pitch": 62, "velocity": 80, "note_on_time": 6.933, "note_off_time": 7.794}, {"pitch": 42, "velocity": 80, "note_on_time": 6.934, "note_off_time": 7.794}, {"pitch": 42, "velocity": 80, "note_on_time": 7.795, "note_off_time": 8.665}, {"pitch": 42, "velocity": 80, "note_on_time": 8.666, "note_off_time": 9.535}, {"pitch": 60, "velocity": 80, "note_on_time": 9.535, "note_off_time": 10.394}, {"pitch": 42, "velocity": 80, "note_on_time": 9.535, "note_off_time": 10.395}, {"pitch": 67, "velocity": 80, "note_on_time": 10.394, "note_off_time": 11.267}, {"pitch": 42, "velocity": 80, "note_on_time": 10.395, "note_off_time": 11.268}, {"pitch": 62, "velocity": 80, "note_on_time": 11.267, "note_off_time": 12.14}, {"pitch": 42, "velocity": 80, "note_on_time": 11.268, "note_off_time": 12.141}, {"pitch": 42, "velocity": 80, "note_on_time": 12.141, "note_off_time": 13.0}, {"pitch": 42, "velocity": 80, "note_on_time": 13.0, "note_off_time": 13.871}, {"pitch": 64, "velocity": 80, "note_on_time": 13.87, "note_off_time": 14.734}, {"pitch": 42, "velocity": 80, "note_on_time": 13.871, "note_off_time": 14.734}, {"pitch": 42, "velocity": 80, "note_on_time": 14.734, "note_off_time": 15.594}, {"pitch": 42, "velocity": 80, "note_on_time": 15.594, "note_off_time": 16.454}, {"pitch": 64, "velocity": 80, "note_on_time": 16.454, "note_off_time": 17.323}, {"pitch": 42, "velocity": 80, "note_on_time": 16.454, "note_off_time": 17.323}, {"pitch": 60, "velocity": 80, "note_on_time": 17.323, "note_off_time": 18.182}, {"pitch": 42, "velocity": 80, "note_on_time": 17.324, "note_off_time": 18.182}, {"pitch": 62, "velocity": 80, "note_on_time": 18.182, "note_off_time": 19.043}, {"pitch": 42, "velocity": 80, "note_on_time": 18.182, "note_off_time": 19.043}, {"pitch": 64, "velocity": 80, "note_on_time": 19.043, "note_off_time": 19.917}, {"pitch": 42, "velocity": 80, "note_on_time": 19.044, "note_off_time": 19.917}, {"pitch": 65, "velocity": 80, "note_on_time": 19.917, "note_off_time": 20.776}, {"pitch": 42, "velocity": 80, "note_on_time": 19.918, "note_off_time": 20.776}, {"pitch": 65, "velocity": 80, "note_on_time": 20.776, "note_off_time": 21.647}, {"pitch": 42, "velocity": 80, "note_on_time": 20.777, "note_off_time": 21.647}, {"pitch": 67, "velocity": 80, "note_on_time": 21.647, "note_off_time": 22.51}, {"pitch": 42, "velocity": 80, "note_on_time": 21.647, "note_off_time": 22.51}, {"pitch": 67, "velocity": 80, "note_on_time": 22.51, "note_off_time": 23.374}, {"pitch": 42, "velocity": 80, "note_on_time": 22.51, "note_off_time": 23.374}, {"pitch": 42, "velocity": 80, "note_on_time": 23.375, "note_off_time": 24.247}, {"pitch": 62, "velocity": 80, "note_on_time": 24.247, "note_off_time": 25.121}, {"pitch": 42, "velocity": 80, "note_on_time": 24.248, "note_off_time": 25.121}, {"pitch": 62, "velocity": 80, "note_on_time": 25.121, "note_off_time": 25.991}, {"pitch": 42, "velocity": 80, "note_on_time": 25.121, "note_off_time": 25.992}, {"pitch": 65, "velocity": 80, "note_on_time": 25.991, "note_off_time": 26.866}, {"pitch": 42, "velocity": 80, "note_on_time": 25.993, "note_off_time": 26.866}, {"pitch": 62, "velocity": 80, "note_on_time": 26.866, "note_off_time": 27.726}, {"pitch": 42, "velocity": 80, "note_on_time": 26.867, "note_off_time": 27.726}, {"pitch": 42, "velocity": 80, "note_on_time": 27.726, "note_off_time": 28.585}, {"pitch": 62, "velocity": 80, "note_on_time": 28.585, "note_off_time": 29.458}, {"pitch": 42, "velocity": 80, "note_on_time": 28.586, "note_off_time": 29.458}, {"pitch": 62, "velocity": 80, "note_on_time": 29.458, "note_off_time": 30.332}, {"pitch": 42, "velocity": 80, "note_on_time": 29.458, "note_off_time": 30.333}, {"pitch": 62, "velocity": 80, "note_on_time": 30.332, "note_off_time": 31.204}, {"pitch": 42, "velocity": 80, "note_on_time": 30.333, "note_off_time": 31.204}]</notes><options name="Option List">((4, 4), [0.25], 3, 8, &lt;NoteRangePerHand.C_TO_G: 6&gt;, &lt;NoteRangePerHand.ONE_NOTE: 2&gt;, False, True, True, 70)</options></target_notes><trials /></MIDI>