<MIDI midiNo="2022_10_26-14_25_30"><target_notes><notes name="Note List">[{"pitch": 42, "velocity": 80, "note_on_time": 0.004, "note_off_time": 0.229}, {"pitch": 42, "velocity": 80, "note_on_time": 0.229, "note_off_time": 0.448}, {"pitch": 42, "velocity": 80, "note_on_time": 0.448, "note_off_time": 0.666}, {"pitch": 42, "velocity": 80, "note_on_time": 0.666, "note_off_time": 0.884}, {"pitch": 65, "velocity": 80, "note_on_time": 0.884, "note_off_time": 1.104}, {"pitch": 42, "velocity": 80, "note_on_time": 0.884, "note_off_time": 1.104}, {"pitch": 42, "velocity": 80, "note_on_time": 1.104, "note_off_time": 1.322}, {"pitch": 42, "velocity": 80, "note_on_time": 1.322, "note_off_time": 1.541}, {"pitch": 42, "velocity": 80, "note_on_time": 1.541, "note_off_time": 1.759}, {"pitch": 67, "velocity": 80, "note_on_time": 1.759, "note_off_time": 1.977}, {"pitch": 42, "velocity": 80, "note_on_time": 1.759, "note_off_time": 1.977}, {"pitch": 42, "velocity": 80, "note_on_time": 1.977, "note_off_time": 2.198}, {"pitch": 64, "velocity": 80, "note_on_time": 1.977, "note_off_time": 2.416}, {"pitch": 42, "velocity": 80, "note_on_time": 2.198, "note_off_time": 2.416}, {"pitch": 42, "velocity": 80, "note_on_time": 2.416, "note_off_time": 2.634}, {"pitch": 62, "velocity": 80, "note_on_time": 2.634, "note_off_time": 2.851}, {"pitch": 42, "velocity": 80, "note_on_time": 2.634, "note_off_time": 2.851}, {"pitch": 65, "velocity": 80, "note_on_time": 2.851, "note_off_time": 3.069}, {"pitch": 42, "velocity": 80, "note_on_time": 2.851, "note_off_time": 3.069}, {"pitch": 62, "velocity": 80, "note_on_time": 3.069, "note_off_time": 3.287}, {"pitch": 42, "velocity": 80, "note_on_time": 3.069, "note_off_time": 3.287}, {"pitch": 65, "velocity": 80, "note_on_time": 3.287, "note_off_time": 3.505}, {"pitch": 42, "velocity": 80, "note_on_time": 3.287, "note_off_time": 3.505}, {"pitch": 65, "velocity": 80, "note_on_time": 3.505, "note_off_time": 3.724}, {"pitch": 42, "velocity": 80, "note_on_time": 3.505, "note_off_time": 3.724}, {"pitch": 67, "velocity": 80, "note_on_time": 3.724, "note_off_time": 3.943}, {"pitch": 42, "velocity": 80, "note_on_time": 3.724, "note_off_time": 3.943}, {"pitch": 62, "velocity": 80, "note_on_time": 3.943, "note_off_time": 4.161}, {"pitch": 42, "velocity": 80, "note_on_time": 3.943, "note_off_time": 4.161}, {"pitch": 65, "velocity": 80, "note_on_time": 4.161, "note_off_time": 4.378}, {"pitch": 42, "velocity": 80, "note_on_time": 4.161, "note_off_time": 4.378}, {"pitch": 67, "velocity": 80, "note_on_time": 4.378, "note_off_time": 4.596}, {"pitch": 42, "velocity": 80, "note_on_time": 4.378, "note_off_time": 4.596}, {"pitch": 42, "velocity": 80, "note_on_time": 4.596, "note_off_time": 4.815}, {"pitch": 64, "velocity": 80, "note_on_time": 4.596, "note_off_time": 5.034}, {"pitch": 42, "velocity": 80, "note_on_time": 4.815, "note_off_time": 5.034}, {"pitch": 65, "velocity": 80, "note_on_time": 5.034, "note_off_time": 5.252}, {"pitch": 42, "velocity": 80, "note_on_time": 5.034, "note_off_time": 5.252}, {"pitch": 65, "velocity": 80, "note_on_time": 5.252, "note_off_time": 5.468}, {"pitch": 42, "velocity": 80, "note_on_time": 5.252, "note_off_time": 5.468}, {"pitch": 42, "velocity": 80, "note_on_time": 5.468, "note_off_time": 5.685}, {"pitch": 67, "velocity": 80, "note_on_time": 5.468, "note_off_time": 5.904}, {"pitch": 42, "velocity": 80, "note_on_time": 5.685, "note_off_time": 5.904}, {"pitch": 42, "velocity": 80, "note_on_time": 5.904, "note_off_time": 6.121}, {"pitch": 60, "velocity": 80, "note_on_time": 6.121, "note_off_time": 6.339}, {"pitch": 42, "velocity": 80, "note_on_time": 6.121, "note_off_time": 6.339}, {"pitch": 67, "velocity": 80, "note_on_time": 6.339, "note_off_time": 6.558}, {"pitch": 42, "velocity": 80, "note_on_time": 6.339, "note_off_time": 6.558}, {"pitch": 64, "velocity": 80, "note_on_time": 6.558, "note_off_time": 6.775}, {"pitch": 42, "velocity": 80, "note_on_time": 6.558, "note_off_time": 6.775}, {"pitch": 65, "velocity": 80, "note_on_time": 6.775, "note_off_time": 6.994}, {"pitch": 42, "velocity": 80, "note_on_time": 6.775, "note_off_time": 6.994}, {"pitch": 42, "velocity": 80, "note_on_time": 6.994, "note_off_time": 7.213}, {"pitch": 65, "velocity": 80, "note_on_time": 7.213, "note_off_time": 7.431}, {"pitch": 42, "velocity": 80, "note_on_time": 7.213, "note_off_time": 7.431}, {"pitch": 65, "velocity": 80, "note_on_time": 7.431, "note_off_time": 7.648}, {"pitch": 42, "velocity": 80, "note_on_time": 7.431, "note_off_time": 7.648}, {"pitch": 65, "velocity": 80, "note_on_time": 7.648, "note_off_time": 7.867}, {"pitch": 42, "velocity": 80, "note_on_time": 7.648, "note_off_time": 7.867}]</notes><options name="Option List">((4, 4), [0.5, 0.25], 3, 8, &lt;NoteRangePerHand.C_TO_G: 6&gt;, &lt;NoteRangePerHand.ONE_NOTE: 2&gt;, False, True, True, '281')</options></target_notes><trials><trial trial_no="1" timestamp="2022_10_26-14_25_21"><notes name="Played Notes">[{"pitch": 65, "velocity": 80, "note_on_time": 0.84, "note_off_time": 1.028}, {"pitch": 67, "velocity": 73, "note_on_time": 1.742, "note_off_time": 1.974}, {"pitch": 64, "velocity": 61, "note_on_time": 1.962, "note_off_time": 2.189}, {"pitch": 62, "velocity": 68, "note_on_time": 2.667, "note_off_time": 2.873}, {"pitch": 65, "velocity": 74, "note_on_time": 2.885, "note_off_time": 3.131}, {"pitch": 62, "velocity": 69, "note_on_time": 3.125, "note_off_time": 3.351}, {"pitch": 65, "velocity": 69, "note_on_time": 3.356, "note_off_time": 3.432}, {"pitch": 65, "velocity": 72, "note_on_time": 3.567, "note_off_time": 3.787}, {"pitch": 67, "velocity": 77, "note_on_time": 3.789, "note_off_time": 4.064}, {"pitch": 62, "velocity": 77, "note_on_time": 4.033, "note_off_time": 4.27}, {"pitch": 65, "velocity": 73, "note_on_time": 4.266, "note_off_time": 4.491}, {"pitch": 67, "velocity": 74, "note_on_time": 4.496, "note_off_time": 4.73}, {"pitch": 64, "velocity": 72, "note_on_time": 4.722, "note_off_time": 5.04}, {"pitch": 65, "velocity": 81, "note_on_time": 5.422, "note_off_time": 5.523}, {"pitch": 65, "velocity": 73, "note_on_time": 5.665, "note_off_time": 5.882}, {"pitch": 67, "velocity": 78, "note_on_time": 5.89, "note_off_time": 6.134}, {"pitch": 60, "velocity": 72, "note_on_time": 6.665, "note_off_time": 6.856}, {"pitch": 67, "velocity": 73, "note_on_time": 6.874, "note_off_time": 7.111}, {"pitch": 64, "velocity": 68, "note_on_time": 7.107, "note_off_time": 7.348}, {"pitch": 65, "velocity": 73, "note_on_time": 7.352, "note_off_time": 7.628}]</notes><guidance name="Guidance Mode">None</guidance><error name="Error value">0.318277</error></trial><trial trial_no="2" timestamp="2022_10_26-14_25_45"><notes name="Played Notes">[{"pitch": 65, "velocity": 83, "note_on_time": 0.837, "note_off_time": 1.02}, {"pitch": 67, "velocity": 76, "note_on_time": 1.717, "note_off_time": 1.928}, {"pitch": 64, "velocity": 77, "note_on_time": 1.915, "note_off_time": 2.146}, {"pitch": 62, "velocity": 71, "note_on_time": 2.585, "note_off_time": 2.772}, {"pitch": 65, "velocity": 77, "note_on_time": 2.79, "note_off_time": 3.03}, {"pitch": 62, "velocity": 74, "note_on_time": 3.021, "note_off_time": 3.224}, {"pitch": 65, "velocity": 74, "note_on_time": 3.236, "note_off_time": 3.319}, {"pitch": 65, "velocity": 74, "note_on_time": 3.45, "note_off_time": 3.677}, {"pitch": 67, "velocity": 78, "note_on_time": 3.673, "note_off_time": 3.936}, {"pitch": 62, "velocity": 73, "note_on_time": 3.908, "note_off_time": 4.104}, {"pitch": 65, "velocity": 76, "note_on_time": 4.117, "note_off_time": 4.356}, {"pitch": 67, "velocity": 81, "note_on_time": 4.359, "note_off_time": 4.592}, {"pitch": 64, "velocity": 84, "note_on_time": 4.577, "note_off_time": 4.883}, {"pitch": 65, "velocity": 82, "note_on_time": 5.257, "note_off_time": 5.368}, {"pitch": 65, "velocity": 68, "note_on_time": 5.471, "note_off_time": 5.718}, {"pitch": 67, "velocity": 84, "note_on_time": 5.708, "note_off_time": 5.99}, {"pitch": 60, "velocity": 81, "note_on_time": 6.444, "note_off_time": 6.605}, {"pitch": 67, "velocity": 81, "note_on_time": 6.649, "note_off_time": 6.897}, {"pitch": 64, "velocity": 83, "note_on_time": 6.891, "note_off_time": 7.089}, {"pitch": 65, "velocity": 82, "note_on_time": 7.098, "note_off_time": 7.343}, {"pitch": 65, "velocity": 88, "note_on_time": 7.582, "note_off_time": 7.685}]</notes><guidance name="Guidance Mode">None</guidance><error name="Error value">0.15050775000000002</error></trial><trial trial_no="3" timestamp="2022_10_26-14_26_08"><notes name="Played Notes">[{"pitch": 65, "velocity": 86, "note_on_time": 0.778, "note_off_time": 0.972}, {"pitch": 67, "velocity": 76, "note_on_time": 1.61, "note_off_time": 1.835}, {"pitch": 64, "velocity": 79, "note_on_time": 1.822, "note_off_time": 2.086}, {"pitch": 60, "velocity": 59, "note_on_time": 2.522, "note_off_time": 2.745}, {"pitch": 65, "velocity": 61, "note_on_time": 2.996, "note_off_time": 3.066}, {"pitch": 62, "velocity": 76, "note_on_time": 3.477, "note_off_time": 3.644}, {"pitch": 65, "velocity": 65, "note_on_time": 3.675, "note_off_time": 3.887}, {"pitch": 64, "velocity": 74, "note_on_time": 3.902, "note_off_time": 4.074}, {"pitch": 67, "velocity": 76, "note_on_time": 4.091, "note_off_time": 4.333}, {"pitch": 62, "velocity": 65, "note_on_time": 4.333, "note_off_time": 4.46}, {"pitch": 64, "velocity": 70, "note_on_time": 4.557, "note_off_time": 4.794}, {"pitch": 65, "velocity": 71, "note_on_time": 4.934, "note_off_time": 5.042}, {"pitch": 67, "velocity": 48, "note_on_time": 6.15, "note_off_time": 6.204}, {"pitch": 65, "velocity": 44, "note_on_time": 6.16, "note_off_time": 6.224}, {"pitch": 64, "velocity": 56, "note_on_time": 6.182, "note_off_time": 6.251}, {"pitch": 62, "velocity": 69, "note_on_time": 6.268, "note_off_time": 6.335}, {"pitch": 60, "velocity": 65, "note_on_time": 6.259, "note_off_time": 6.336}, {"pitch": 67, "velocity": 28, "note_on_time": 6.387, "note_off_time": 6.421}, {"pitch": 65, "velocity": 63, "note_on_time": 6.368, "note_off_time": 6.434}, {"pitch": 64, "velocity": 49, "note_on_time": 6.424, "note_off_time": 6.462}, {"pitch": 62, "velocity": 73, "note_on_time": 6.463, "note_off_time": 6.529}, {"pitch": 60, "velocity": 74, "note_on_time": 6.485, "note_off_time": 6.567}]</notes><guidance name="Guidance Mode">None</guidance><error name="Error value">1.3375376499999994</error></trial><trial trial_no="4" timestamp="2022_10_26-14_26_41"><notes name="Played Notes">[{"pitch": 65, "velocity": 81, "note_on_time": 0.858, "note_off_time": 1.088}, {"pitch": 67, "velocity": 68, "note_on_time": 1.726, "note_off_time": 1.968}, {"pitch": 64, "velocity": 66, "note_on_time": 1.953, "note_off_time": 2.135}, {"pitch": 62, "velocity": 68, "note_on_time": 2.613, "note_off_time": 2.816}, {"pitch": 65, "velocity": 70, "note_on_time": 2.834, "note_off_time": 3.06}, {"pitch": 62, "velocity": 69, "note_on_time": 3.067, "note_off_time": 3.291}, {"pitch": 65, "velocity": 69, "note_on_time": 3.3, "note_off_time": 3.361}, {"pitch": 65, "velocity": 76, "note_on_time": 3.503, "note_off_time": 3.708}, {"pitch": 67, "velocity": 69, "note_on_time": 3.711, "note_off_time": 3.963}, {"pitch": 62, "velocity": 73, "note_on_time": 3.949, "note_off_time": 4.149}, {"pitch": 65, "velocity": 68, "note_on_time": 4.166, "note_off_time": 4.393}, {"pitch": 67, "velocity": 71, "note_on_time": 4.408, "note_off_time": 4.548}, {"pitch": 64, "velocity": 74, "note_on_time": 4.615, "note_off_time": 4.908}, {"pitch": 65, "velocity": 49, "note_on_time": 5.211, "note_off_time": 5.272}, {"pitch": 65, "velocity": 72, "note_on_time": 5.465, "note_off_time": 5.717}, {"pitch": 67, "velocity": 72, "note_on_time": 5.718, "note_off_time": 5.938}, {"pitch": 60, "velocity": 66, "note_on_time": 6.403, "note_off_time": 6.6}, {"pitch": 67, "velocity": 73, "note_on_time": 6.621, "note_off_time": 6.86}, {"pitch": 64, "velocity": 79, "note_on_time": 6.851, "note_off_time": 7.097}, {"pitch": 65, "velocity": 86, "note_on_time": 7.097, "note_off_time": 7.352}, {"pitch": 65, "velocity": 84, "note_on_time": 7.65, "note_off_time": 7.74}]</notes><guidance name="Guidance Mode">None</guidance><error name="Error value">0.14730315</error></trial><trial trial_no="5" timestamp="2022_10_26-14_27_06"><notes name="Played Notes">[{"pitch": 65, "velocity": 88, "note_on_time": 0.817, "note_off_time": 1.022}, {"pitch": 67, "velocity": 79, "note_on_time": 1.65, "note_off_time": 1.878}, {"pitch": 64, "velocity": 78, "note_on_time": 1.867, "note_off_time": 2.087}, {"pitch": 62, "velocity": 72, "note_on_time": 2.508, "note_off_time": 2.718}, {"pitch": 65, "velocity": 78, "note_on_time": 2.734, "note_off_time": 2.96}, {"pitch": 62, "velocity": 71, "note_on_time": 2.954, "note_off_time": 3.155}, {"pitch": 65, "velocity": 77, "note_on_time": 3.167, "note_off_time": 3.254}, {"pitch": 65, "velocity": 77, "note_on_time": 3.369, "note_off_time": 3.58}, {"pitch": 67, "velocity": 83, "note_on_time": 3.58, "note_off_time": 3.821}, {"pitch": 62, "velocity": 77, "note_on_time": 3.799, "note_off_time": 4.012}, {"pitch": 65, "velocity": 81, "note_on_time": 4.009, "note_off_time": 4.221}, {"pitch": 67, "velocity": 84, "note_on_time": 4.23, "note_off_time": 4.446}, {"pitch": 64, "velocity": 85, "note_on_time": 4.432, "note_off_time": 4.757}, {"pitch": 65, "velocity": 88, "note_on_time": 5.097, "note_off_time": 5.214}, {"pitch": 65, "velocity": 81, "note_on_time": 5.303, "note_off_time": 5.53}, {"pitch": 67, "velocity": 87, "note_on_time": 5.522, "note_off_time": 5.804}, {"pitch": 60, "velocity": 83, "note_on_time": 6.262, "note_off_time": 6.442}, {"pitch": 67, "velocity": 80, "note_on_time": 6.46, "note_off_time": 6.655}, {"pitch": 64, "velocity": 89, "note_on_time": 6.665, "note_off_time": 6.903}, {"pitch": 65, "velocity": 84, "note_on_time": 6.895, "note_off_time": 7.173}, {"pitch": 65, "velocity": 94, "note_on_time": 7.39, "note_off_time": 7.484}, {"pitch": 65, "velocity": 82, "note_on_time": 7.587, "note_off_time": 7.67}]</notes><guidance name="Guidance Mode">None</guidance><error name="Error value">0.08877155000000003</error></trial><trial trial_no="6" timestamp="2022_10_26-14_27_35"><notes name="Played Notes">[{"pitch": 65, "velocity": 88, "note_on_time": 0.818, "note_off_time": 1.004}, {"pitch": 67, "velocity": 84, "note_on_time": 1.631, "note_off_time": 1.893}, {"pitch": 64, "velocity": 89, "note_on_time": 1.877, "note_off_time": 2.135}, {"pitch": 62, "velocity": 74, "note_on_time": 2.517, "note_off_time": 2.726}, {"pitch": 65, "velocity": 79, "note_on_time": 2.732, "note_off_time": 2.941}, {"pitch": 62, "velocity": 75, "note_on_time": 2.937, "note_off_time": 3.138}, {"pitch": 65, "velocity": 72, "note_on_time": 3.143, "note_off_time": 3.226}, {"pitch": 65, "velocity": 75, "note_on_time": 3.345, "note_off_time": 3.561}, {"pitch": 67, "velocity": 75, "note_on_time": 3.565, "note_off_time": 3.801}, {"pitch": 62, "velocity": 67, "note_on_time": 3.784, "note_off_time": 3.984}, {"pitch": 65, "velocity": 76, "note_on_time": 3.993, "note_off_time": 4.211}, {"pitch": 67, "velocity": 83, "note_on_time": 4.221, "note_off_time": 4.439}, {"pitch": 64, "velocity": 84, "note_on_time": 4.434, "note_off_time": 4.774}, {"pitch": 65, "velocity": 85, "note_on_time": 4.87, "note_off_time": 4.977}, {"pitch": 65, "velocity": 83, "note_on_time": 5.104, "note_off_time": 5.332}, {"pitch": 67, "velocity": 88, "note_on_time": 5.323, "note_off_time": 5.49}, {"pitch": 60, "velocity": 87, "note_on_time": 5.911, "note_off_time": 6.158}, {"pitch": 67, "velocity": 82, "note_on_time": 6.154, "note_off_time": 6.367}, {"pitch": 64, "velocity": 83, "note_on_time": 6.362, "note_off_time": 6.603}, {"pitch": 65, "velocity": 86, "note_on_time": 6.585, "note_off_time": 6.82}, {"pitch": 65, "velocity": 96, "note_on_time": 7.015, "note_off_time": 7.128}, {"pitch": 65, "velocity": 79, "note_on_time": 7.26, "note_off_time": 7.319}, {"pitch": 65, "velocity": 106, "note_on_time": 7.471, "note_off_time": 7.573}]</notes><guidance name="Guidance Mode">None</guidance><error name="Error value">0.015178449999999977</error></trial></trials></MIDI>