<MIDI midiNo="2022_11_23-16_52_41"><target_notes><notes name="Note List">[{"pitch": 42, "velocity": 80, "note_on_time": 0.004, "note_off_time": 0.222}, {"pitch": 42, "velocity": 80, "note_on_time": 0.222, "note_off_time": 0.438}, {"pitch": 42, "velocity": 80, "note_on_time": 0.438, "note_off_time": 0.657}, {"pitch": 42, "velocity": 80, "note_on_time": 0.657, "note_off_time": 0.874}, {"pitch": 60, "velocity": 80, "note_on_time": 0.874, "note_off_time": 1.092}, {"pitch": 42, "velocity": 80, "note_on_time": 0.874, "note_off_time": 1.092}, {"pitch": 64, "velocity": 80, "note_on_time": 1.092, "note_off_time": 1.31}, {"pitch": 42, "velocity": 80, "note_on_time": 1.092, "note_off_time": 1.31}, {"pitch": 65, "velocity": 80, "note_on_time": 1.31, "note_off_time": 1.527}, {"pitch": 42, "velocity": 80, "note_on_time": 1.31, "note_off_time": 1.527}, {"pitch": 65, "velocity": 80, "note_on_time": 1.527, "note_off_time": 1.744}, {"pitch": 42, "velocity": 80, "note_on_time": 1.527, "note_off_time": 1.744}, {"pitch": 42, "velocity": 80, "note_on_time": 1.744, "note_off_time": 1.962}, {"pitch": 64, "velocity": 80, "note_on_time": 1.744, "note_off_time": 2.181}, {"pitch": 42, "velocity": 80, "note_on_time": 1.962, "note_off_time": 2.181}, {"pitch": 42, "velocity": 80, "note_on_time": 2.181, "note_off_time": 2.397}, {"pitch": 42, "velocity": 80, "note_on_time": 2.397, "note_off_time": 2.615}, {"pitch": 62, "velocity": 80, "note_on_time": 2.615, "note_off_time": 2.832}, {"pitch": 42, "velocity": 80, "note_on_time": 2.615, "note_off_time": 2.832}, {"pitch": 65, "velocity": 80, "note_on_time": 2.832, "note_off_time": 3.047}, {"pitch": 42, "velocity": 80, "note_on_time": 2.832, "note_off_time": 3.047}, {"pitch": 64, "velocity": 80, "note_on_time": 3.047, "note_off_time": 3.264}, {"pitch": 42, "velocity": 80, "note_on_time": 3.047, "note_off_time": 3.264}, {"pitch": 64, "velocity": 80, "note_on_time": 3.264, "note_off_time": 3.482}, {"pitch": 42, "velocity": 80, "note_on_time": 3.264, "note_off_time": 3.482}, {"pitch": 42, "velocity": 80, "note_on_time": 3.482, "note_off_time": 3.698}, {"pitch": 62, "velocity": 80, "note_on_time": 3.482, "note_off_time": 3.916}, {"pitch": 42, "velocity": 80, "note_on_time": 3.698, "note_off_time": 3.916}, {"pitch": 42, "velocity": 80, "note_on_time": 3.916, "note_off_time": 4.134}, {"pitch": 42, "velocity": 80, "note_on_time": 4.134, "note_off_time": 4.352}, {"pitch": 65, "velocity": 80, "note_on_time": 4.352, "note_off_time": 4.568}, {"pitch": 42, "velocity": 80, "note_on_time": 4.352, "note_off_time": 4.568}, {"pitch": 62, "velocity": 80, "note_on_time": 4.568, "note_off_time": 4.784}, {"pitch": 42, "velocity": 80, "note_on_time": 4.568, "note_off_time": 4.784}, {"pitch": 67, "velocity": 80, "note_on_time": 4.784, "note_off_time": 5.001}, {"pitch": 42, "velocity": 80, "note_on_time": 4.784, "note_off_time": 5.001}, {"pitch": 42, "velocity": 80, "note_on_time": 5.001, "note_off_time": 5.22}, {"pitch": 67, "velocity": 80, "note_on_time": 5.22, "note_off_time": 5.438}, {"pitch": 42, "velocity": 80, "note_on_time": 5.22, "note_off_time": 5.438}, {"pitch": 62, "velocity": 80, "note_on_time": 5.438, "note_off_time": 5.656}, {"pitch": 42, "velocity": 80, "note_on_time": 5.438, "note_off_time": 5.656}, {"pitch": 65, "velocity": 80, "note_on_time": 5.656, "note_off_time": 5.874}, {"pitch": 42, "velocity": 80, "note_on_time": 5.656, "note_off_time": 5.874}, {"pitch": 67, "velocity": 80, "note_on_time": 5.874, "note_off_time": 6.09}, {"pitch": 42, "velocity": 80, "note_on_time": 5.874, "note_off_time": 6.09}, {"pitch": 60, "velocity": 80, "note_on_time": 6.09, "note_off_time": 6.306}, {"pitch": 42, "velocity": 80, "note_on_time": 6.09, "note_off_time": 6.306}, {"pitch": 42, "velocity": 80, "note_on_time": 6.306, "note_off_time": 6.524}, {"pitch": 65, "velocity": 80, "note_on_time": 6.524, "note_off_time": 6.743}, {"pitch": 42, "velocity": 80, "note_on_time": 6.524, "note_off_time": 6.743}, {"pitch": 67, "velocity": 80, "note_on_time": 6.743, "note_off_time": 6.959}, {"pitch": 42, "velocity": 80, "note_on_time": 6.743, "note_off_time": 6.959}, {"pitch": 42, "velocity": 80, "note_on_time": 6.959, "note_off_time": 7.177}, {"pitch": 67, "velocity": 80, "note_on_time": 7.177, "note_off_time": 7.393}, {"pitch": 42, "velocity": 80, "note_on_time": 7.177, "note_off_time": 7.393}, {"pitch": 67, "velocity": 80, "note_on_time": 7.393, "note_off_time": 7.611}, {"pitch": 42, "velocity": 80, "note_on_time": 7.393, "note_off_time": 7.611}, {"pitch": 67, "velocity": 80, "note_on_time": 7.611, "note_off_time": 7.832}, {"pitch": 42, "velocity": 80, "note_on_time": 7.611, "note_off_time": 7.832}]</notes><options name="Option List">((4, 4), [0.5, 0.25], 3, 8, &lt;NoteRangePerHand.C_TO_G: 6&gt;, &lt;NoteRangePerHand.ONE_NOTE: 2&gt;, False, True, True, '281')</options></target_notes><trials><trial trial_no="1" timestamp="2022_11_23-16_52_32"><notes name="Played Notes">[{"pitch": 60, "velocity": 81, "note_on_time": 0.921, "note_off_time": 1.146}, {"pitch": 64, "velocity": 74, "note_on_time": 1.137, "note_off_time": 1.377}, {"pitch": 65, "velocity": 71, "note_on_time": 1.368, "note_off_time": 1.443}, {"pitch": 65, "velocity": 83, "note_on_time": 1.58, "note_off_time": 1.689}, {"pitch": 64, "velocity": 81, "note_on_time": 1.823, "note_off_time": 2.263}, {"pitch": 62, "velocity": 80, "note_on_time": 2.716, "note_off_time": 2.943}, {"pitch": 65, "velocity": 72, "note_on_time": 2.931, "note_off_time": 3.138}, {"pitch": 64, "velocity": 79, "note_on_time": 3.15, "note_off_time": 3.26}, {"pitch": 64, "velocity": 70, "note_on_time": 3.38, "note_off_time": 3.535}, {"pitch": 62, "velocity": 59, "note_on_time": 3.672, "note_off_time": 4.196}, {"pitch": 65, "velocity": 85, "note_on_time": 4.577, "note_off_time": 4.795}, {"pitch": 62, "velocity": 68, "note_on_time": 4.794, "note_off_time": 5.048}, {"pitch": 67, "velocity": 83, "note_on_time": 5.03, "note_off_time": 5.202}, {"pitch": 67, "velocity": 78, "note_on_time": 5.485, "note_off_time": 5.703}, {"pitch": 62, "velocity": 67, "note_on_time": 5.712, "note_off_time": 5.919}, {"pitch": 65, "velocity": 79, "note_on_time": 5.928, "note_off_time": 6.167}, {"pitch": 67, "velocity": 72, "note_on_time": 6.148, "note_off_time": 6.267}, {"pitch": 60, "velocity": 78, "note_on_time": 6.387, "note_off_time": 6.62}, {"pitch": 65, "velocity": 84, "note_on_time": 6.869, "note_off_time": 7.073}, {"pitch": 67, "velocity": 71, "note_on_time": 7.079, "note_off_time": 7.17}, {"pitch": 67, "velocity": 88, "note_on_time": 7.689, "note_off_time": 7.778}]</notes><guidance name="Guidance Mode">None</guidance><error name="Error value">0.14150084999999993</error></trial><trial trial_no="2" timestamp="2022_11_23-16_52_59"><notes name="Played Notes">[{"pitch": 60, "velocity": 82, "note_on_time": 0.907, "note_off_time": 1.15}, {"pitch": 64, "velocity": 74, "note_on_time": 1.121, "note_off_time": 1.361}, {"pitch": 65, "velocity": 78, "note_on_time": 1.339, "note_off_time": 1.424}, {"pitch": 65, "velocity": 77, "note_on_time": 1.542, "note_off_time": 1.641}, {"pitch": 64, "velocity": 81, "note_on_time": 1.79, "note_off_time": 2.178}, {"pitch": 62, "velocity": 82, "note_on_time": 2.615, "note_off_time": 2.857}, {"pitch": 65, "velocity": 76, "note_on_time": 2.827, "note_off_time": 3.041}, {"pitch": 64, "velocity": 81, "note_on_time": 3.036, "note_off_time": 3.127}, {"pitch": 64, "velocity": 73, "note_on_time": 3.259, "note_off_time": 3.363}, {"pitch": 62, "velocity": 79, "note_on_time": 3.47, "note_off_time": 3.874}, {"pitch": 65, "velocity": 85, "note_on_time": 4.34, "note_off_time": 4.57}, {"pitch": 62, "velocity": 76, "note_on_time": 4.557, "note_off_time": 4.802}, {"pitch": 67, "velocity": 82, "note_on_time": 4.79, "note_off_time": 4.933}, {"pitch": 67, "velocity": 85, "note_on_time": 5.237, "note_off_time": 5.435}, {"pitch": 62, "velocity": 65, "note_on_time": 5.444, "note_off_time": 5.655}, {"pitch": 65, "velocity": 79, "note_on_time": 5.642, "note_off_time": 5.885}, {"pitch": 67, "velocity": 76, "note_on_time": 5.863, "note_off_time": 5.988}, {"pitch": 60, "velocity": 79, "note_on_time": 6.101, "note_off_time": 6.283}, {"pitch": 65, "velocity": 89, "note_on_time": 6.561, "note_off_time": 6.779}, {"pitch": 67, "velocity": 70, "note_on_time": 6.767, "note_off_time": 6.86}, {"pitch": 67, "velocity": 85, "note_on_time": 7.367, "note_off_time": 7.458}, {"pitch": 67, "velocity": 78, "note_on_time": 7.563, "note_off_time": 7.655}]</notes><guidance name="Guidance Mode">None</guidance><error name="Error value">0.07407154999999986</error></trial><trial trial_no="3" timestamp="2022_11_23-16_53_18"><notes name="Played Notes">[{"pitch": 60, "velocity": 81, "note_on_time": 0.92, "note_off_time": 1.161}, {"pitch": 64, "velocity": 69, "note_on_time": 1.136, "note_off_time": 1.387}, {"pitch": 65, "velocity": 69, "note_on_time": 1.373, "note_off_time": 1.454}, {"pitch": 65, "velocity": 79, "note_on_time": 1.582, "note_off_time": 1.689}, {"pitch": 64, "velocity": 84, "note_on_time": 1.823, "note_off_time": 2.14}, {"pitch": 62, "velocity": 86, "note_on_time": 2.584, "note_off_time": 2.797}, {"pitch": 65, "velocity": 81, "note_on_time": 2.784, "note_off_time": 3.004}, {"pitch": 64, "velocity": 78, "note_on_time": 3.003, "note_off_time": 3.092}, {"pitch": 64, "velocity": 66, "note_on_time": 3.212, "note_off_time": 3.336}, {"pitch": 62, "velocity": 78, "note_on_time": 3.42, "note_off_time": 3.661}, {"pitch": 65, "velocity": 88, "note_on_time": 3.993, "note_off_time": 4.187}, {"pitch": 62, "velocity": 74, "note_on_time": 4.204, "note_off_time": 4.446}, {"pitch": 67, "velocity": 86, "note_on_time": 4.429, "note_off_time": 4.601}, {"pitch": 67, "velocity": 76, "note_on_time": 4.851, "note_off_time": 5.064}, {"pitch": 62, "velocity": 67, "note_on_time": 5.081, "note_off_time": 5.273}, {"pitch": 65, "velocity": 78, "note_on_time": 5.286, "note_off_time": 5.513}, {"pitch": 67, "velocity": 71, "note_on_time": 5.5, "note_off_time": 5.629}, {"pitch": 60, "velocity": 78, "note_on_time": 5.734, "note_off_time": 5.86}, {"pitch": 65, "velocity": 90, "note_on_time": 6.186, "note_off_time": 6.398}, {"pitch": 67, "velocity": 63, "note_on_time": 6.392, "note_off_time": 6.493}, {"pitch": 67, "velocity": 85, "note_on_time": 6.99, "note_off_time": 7.081}, {"pitch": 67, "velocity": 73, "note_on_time": 7.191, "note_off_time": 7.272}, {"pitch": 67, "velocity": 80, "note_on_time": 7.387, "note_off_time": 7.531}]</notes><guidance name="Guidance Mode">None</guidance><error name="Error value">0.037983050000000115</error></trial></trials></MIDI>