<MIDI midiNo="2022_12_08-10_27_43"><target_notes><notes name="Note List">[{"pitch": 42, "velocity": 80, "note_on_time": 0.004, "note_off_time": 0.245}, {"pitch": 42, "velocity": 80, "note_on_time": 0.245, "note_off_time": 0.479}, {"pitch": 42, "velocity": 80, "note_on_time": 0.479, "note_off_time": 0.712}, {"pitch": 42, "velocity": 80, "note_on_time": 0.712, "note_off_time": 0.946}, {"pitch": 67, "velocity": 80, "note_on_time": 0.946, "note_off_time": 1.179}, {"pitch": 42, "velocity": 80, "note_on_time": 0.946, "note_off_time": 1.179}, {"pitch": 60, "velocity": 80, "note_on_time": 1.179, "note_off_time": 1.412}, {"pitch": 42, "velocity": 80, "note_on_time": 1.179, "note_off_time": 1.412}, {"pitch": 65, "velocity": 80, "note_on_time": 1.412, "note_off_time": 1.644}, {"pitch": 42, "velocity": 80, "note_on_time": 1.412, "note_off_time": 1.645}, {"pitch": 62, "velocity": 80, "note_on_time": 1.644, "note_off_time": 1.88}, {"pitch": 42, "velocity": 80, "note_on_time": 1.645, "note_off_time": 1.88}, {"pitch": 60, "velocity": 80, "note_on_time": 1.88, "note_off_time": 2.113}, {"pitch": 42, "velocity": 80, "note_on_time": 1.88, "note_off_time": 2.114}, {"pitch": 62, "velocity": 80, "note_on_time": 2.113, "note_off_time": 2.347}, {"pitch": 42, "velocity": 80, "note_on_time": 2.114, "note_off_time": 2.348}, {"pitch": 60, "velocity": 80, "note_on_time": 2.347, "note_off_time": 2.58}, {"pitch": 42, "velocity": 80, "note_on_time": 2.348, "note_off_time": 2.58}, {"pitch": 60, "velocity": 80, "note_on_time": 2.58, "note_off_time": 2.813}, {"pitch": 42, "velocity": 80, "note_on_time": 2.58, "note_off_time": 2.813}, {"pitch": 42, "velocity": 80, "note_on_time": 2.813, "note_off_time": 3.047}, {"pitch": 67, "velocity": 80, "note_on_time": 2.813, "note_off_time": 3.284}, {"pitch": 42, "velocity": 80, "note_on_time": 3.047, "note_off_time": 3.285}, {"pitch": 42, "velocity": 80, "note_on_time": 3.285, "note_off_time": 3.519}, {"pitch": 42, "velocity": 80, "note_on_time": 3.519, "note_off_time": 3.754}, {"pitch": 64, "velocity": 80, "note_on_time": 3.753, "note_off_time": 3.986}, {"pitch": 42, "velocity": 80, "note_on_time": 3.754, "note_off_time": 3.987}, {"pitch": 64, "velocity": 80, "note_on_time": 3.986, "note_off_time": 4.22}, {"pitch": 42, "velocity": 80, "note_on_time": 3.987, "note_off_time": 4.22}, {"pitch": 60, "velocity": 80, "note_on_time": 4.22, "note_off_time": 4.453}, {"pitch": 42, "velocity": 80, "note_on_time": 4.22, "note_off_time": 4.453}, {"pitch": 65, "velocity": 80, "note_on_time": 4.453, "note_off_time": 4.688}, {"pitch": 42, "velocity": 80, "note_on_time": 4.454, "note_off_time": 4.689}, {"pitch": 67, "velocity": 80, "note_on_time": 4.688, "note_off_time": 4.923}, {"pitch": 42, "velocity": 80, "note_on_time": 4.689, "note_off_time": 4.923}, {"pitch": 60, "velocity": 80, "note_on_time": 4.923, "note_off_time": 5.158}, {"pitch": 42, "velocity": 80, "note_on_time": 4.924, "note_off_time": 5.158}, {"pitch": 64, "velocity": 80, "note_on_time": 5.158, "note_off_time": 5.39}, {"pitch": 42, "velocity": 80, "note_on_time": 5.158, "note_off_time": 5.391}, {"pitch": 64, "velocity": 80, "note_on_time": 5.39, "note_off_time": 5.626}, {"pitch": 42, "velocity": 80, "note_on_time": 5.391, "note_off_time": 5.626}, {"pitch": 60, "velocity": 80, "note_on_time": 5.626, "note_off_time": 5.86}, {"pitch": 42, "velocity": 80, "note_on_time": 5.626, "note_off_time": 5.861}, {"pitch": 64, "velocity": 80, "note_on_time": 5.86, "note_off_time": 6.095}, {"pitch": 42, "velocity": 80, "note_on_time": 5.861, "note_off_time": 6.095}, {"pitch": 42, "velocity": 80, "note_on_time": 6.096, "note_off_time": 6.331}, {"pitch": 67, "velocity": 80, "note_on_time": 6.331, "note_off_time": 6.565}, {"pitch": 42, "velocity": 80, "note_on_time": 6.331, "note_off_time": 6.565}, {"pitch": 67, "velocity": 80, "note_on_time": 6.565, "note_off_time": 6.797}, {"pitch": 42, "velocity": 80, "note_on_time": 6.565, "note_off_time": 6.798}, {"pitch": 65, "velocity": 80, "note_on_time": 6.797, "note_off_time": 7.03}, {"pitch": 42, "velocity": 80, "note_on_time": 6.798, "note_off_time": 7.03}, {"pitch": 65, "velocity": 80, "note_on_time": 7.03, "note_off_time": 7.264}, {"pitch": 42, "velocity": 80, "note_on_time": 7.03, "note_off_time": 7.265}, {"pitch": 67, "velocity": 80, "note_on_time": 7.264, "note_off_time": 7.497}, {"pitch": 42, "velocity": 80, "note_on_time": 7.265, "note_off_time": 7.497}, {"pitch": 42, "velocity": 80, "note_on_time": 7.498, "note_off_time": 7.738}, {"pitch": 67, "velocity": 80, "note_on_time": 7.733, "note_off_time": 7.98}, {"pitch": 42, "velocity": 80, "note_on_time": 7.74, "note_off_time": 7.98}, {"pitch": 67, "velocity": 80, "note_on_time": 7.98, "note_off_time": 8.213}, {"pitch": 42, "velocity": 80, "note_on_time": 7.98, "note_off_time": 8.213}, {"pitch": 67, "velocity": 80, "note_on_time": 8.213, "note_off_time": 8.444}, {"pitch": 42, "velocity": 80, "note_on_time": 8.213, "note_off_time": 8.444}]</notes><options name="Option List">((4, 4), [0.5, 0.25], 3, 8, &lt;NoteRangePerHand.C_TO_G: 6&gt;, &lt;NoteRangePerHand.ONE_NOTE: 2&gt;, False, True, False, '265')</options></target_notes><trials><trial trial_no="1" timestamp="2022_12_08-10_27_33"><notes name="Played Notes">[{"pitch": 67, "velocity": 73, "note_on_time": 0.978, "note_off_time": 1.265}, {"pitch": 60, "velocity": 55, "note_on_time": 1.209, "note_off_time": 1.429}, {"pitch": 65, "velocity": 71, "note_on_time": 1.426, "note_off_time": 1.691}, {"pitch": 62, "velocity": 62, "note_on_time": 1.651, "note_off_time": 1.875}, {"pitch": 60, "velocity": 74, "note_on_time": 1.868, "note_off_time": 2.1}, {"pitch": 62, "velocity": 78, "note_on_time": 2.104, "note_off_time": 2.381}, {"pitch": 60, "velocity": 44, "note_on_time": 2.343, "note_off_time": 2.447}, {"pitch": 60, "velocity": 68, "note_on_time": 2.607, "note_off_time": 2.813}, {"pitch": 67, "velocity": 79, "note_on_time": 2.815, "note_off_time": 3.286}, {"pitch": 64, "velocity": 68, "note_on_time": 3.79, "note_off_time": 3.901}, {"pitch": 64, "velocity": 54, "note_on_time": 4.009, "note_off_time": 4.242}, {"pitch": 60, "velocity": 60, "note_on_time": 4.248, "note_off_time": 4.483}, {"pitch": 65, "velocity": 65, "note_on_time": 4.595, "note_off_time": 4.823}, {"pitch": 67, "velocity": 84, "note_on_time": 4.806, "note_off_time": 5.073}, {"pitch": 64, "velocity": 80, "note_on_time": 5.11, "note_off_time": 5.347}, {"pitch": 60, "velocity": 65, "note_on_time": 5.371, "note_off_time": 5.568}, {"pitch": 64, "velocity": 34, "note_on_time": 5.707, "note_off_time": 5.876}, {"pitch": 64, "velocity": 34, "note_on_time": 6.182, "note_off_time": 6.282}, {"pitch": 64, "velocity": 58, "note_on_time": 6.428, "note_off_time": 6.528}, {"pitch": 64, "velocity": 45, "note_on_time": 6.649, "note_off_time": 6.756}, {"pitch": 67, "velocity": 72, "note_on_time": 7.152, "note_off_time": 7.245}, {"pitch": 67, "velocity": 70, "note_on_time": 7.364, "note_off_time": 7.668}, {"pitch": 65, "velocity": 69, "note_on_time": 7.632, "note_off_time": 7.76}, {"pitch": 65, "velocity": 71, "note_on_time": 7.857, "note_off_time": 8.091}, {"pitch": 67, "velocity": 71, "note_on_time": 8.096, "note_off_time": 8.213}]</notes><guidance name="Guidance Mode">None</guidance><error name="Error value">0.4743647916666666</error></trial><trial trial_no="2" timestamp="2022_12_08-10_27_52"><notes name="Played Notes">[{"pitch": 67, "velocity": 89, "note_on_time": 0.979, "note_off_time": 1.271}, {"pitch": 60, "velocity": 55, "note_on_time": 1.228, "note_off_time": 1.456}, {"pitch": 65, "velocity": 70, "note_on_time": 1.455, "note_off_time": 1.721}, {"pitch": 62, "velocity": 72, "note_on_time": 1.68, "note_off_time": 1.917}, {"pitch": 60, "velocity": 77, "note_on_time": 1.928, "note_off_time": 2.135}, {"pitch": 62, "velocity": 65, "note_on_time": 2.148, "note_off_time": 2.357}, {"pitch": 60, "velocity": 77, "note_on_time": 2.361, "note_off_time": 2.467}, {"pitch": 60, "velocity": 82, "note_on_time": 2.59, "note_off_time": 2.805}, {"pitch": 67, "velocity": 71, "note_on_time": 2.82, "note_off_time": 3.1}, {"pitch": 64, "velocity": 68, "note_on_time": 3.722, "note_off_time": 3.963}, {"pitch": 60, "velocity": 68, "note_on_time": 3.967, "note_off_time": 4.203}, {"pitch": 64, "velocity": 67, "note_on_time": 4.202, "note_off_time": 4.289}, {"pitch": 65, "velocity": 69, "note_on_time": 4.44, "note_off_time": 4.66}, {"pitch": 67, "velocity": 66, "note_on_time": 4.659, "note_off_time": 4.932}, {"pitch": 64, "velocity": 75, "note_on_time": 4.885, "note_off_time": 4.999}, {"pitch": 60, "velocity": 57, "note_on_time": 5.138, "note_off_time": 5.404}, {"pitch": 64, "velocity": 59, "note_on_time": 5.366, "note_off_time": 5.567}, {"pitch": 64, "velocity": 84, "note_on_time": 5.633, "note_off_time": 5.742}, {"pitch": 60, "velocity": 69, "note_on_time": 5.905, "note_off_time": 6.045}, {"pitch": 64, "velocity": 59, "note_on_time": 6.116, "note_off_time": 6.349}, {"pitch": 67, "velocity": 76, "note_on_time": 6.806, "note_off_time": 7.046}, {"pitch": 67, "velocity": 77, "note_on_time": 7.125, "note_off_time": 7.348}, {"pitch": 65, "velocity": 74, "note_on_time": 7.345, "note_off_time": 7.488}, {"pitch": 65, "velocity": 64, "note_on_time": 7.587, "note_off_time": 7.766}, {"pitch": 67, "velocity": 66, "note_on_time": 7.801, "note_off_time": 7.916}, {"pitch": 67, "velocity": 73, "note_on_time": 8.249, "note_off_time": 8.363}]</notes><guidance name="Guidance Mode">None</guidance><error name="Error value">0.45242375000000007</error></trial><trial trial_no="3" timestamp="2022_12_08-10_28_10"><notes name="Played Notes">[{"pitch": 67, "velocity": 79, "note_on_time": 0.971, "note_off_time": 1.265}, {"pitch": 60, "velocity": 55, "note_on_time": 1.178, "note_off_time": 1.453}, {"pitch": 65, "velocity": 70, "note_on_time": 1.434, "note_off_time": 1.695}, {"pitch": 62, "velocity": 64, "note_on_time": 1.668, "note_off_time": 1.887}, {"pitch": 60, "velocity": 77, "note_on_time": 1.889, "note_off_time": 2.109}, {"pitch": 62, "velocity": 64, "note_on_time": 2.11, "note_off_time": 2.368}, {"pitch": 60, "velocity": 75, "note_on_time": 2.356, "note_off_time": 2.469}, {"pitch": 60, "velocity": 79, "note_on_time": 2.58, "note_off_time": 2.803}, {"pitch": 67, "velocity": 75, "note_on_time": 2.811, "note_off_time": 3.164}, {"pitch": 64, "velocity": 73, "note_on_time": 3.758, "note_off_time": 3.87}, {"pitch": 64, "velocity": 53, "note_on_time": 3.977, "note_off_time": 4.201}, {"pitch": 60, "velocity": 51, "note_on_time": 4.236, "note_off_time": 4.443}, {"pitch": 65, "velocity": 66, "note_on_time": 4.447, "note_off_time": 4.725}, {"pitch": 67, "velocity": 74, "note_on_time": 4.714, "note_off_time": 4.943}, {"pitch": 60, "velocity": 72, "note_on_time": 4.936, "note_off_time": 5.166}, {"pitch": 64, "velocity": 66, "note_on_time": 5.158, "note_off_time": 5.265}, {"pitch": 64, "velocity": 56, "note_on_time": 5.374, "note_off_time": 5.613}, {"pitch": 60, "velocity": 69, "note_on_time": 5.622, "note_off_time": 5.857}, {"pitch": 64, "velocity": 74, "note_on_time": 5.865, "note_off_time": 6.057}, {"pitch": 67, "velocity": 77, "note_on_time": 6.534, "note_off_time": 6.662}, {"pitch": 67, "velocity": 60, "note_on_time": 6.766, "note_off_time": 6.912}, {"pitch": 67, "velocity": 64, "note_on_time": 7.02, "note_off_time": 7.259}, {"pitch": 65, "velocity": 58, "note_on_time": 7.256, "note_off_time": 7.357}, {"pitch": 65, "velocity": 53, "note_on_time": 7.464, "note_off_time": 7.745}, {"pitch": 67, "velocity": 77, "note_on_time": 7.731, "note_off_time": 7.984}, {"pitch": 67, "velocity": 80, "note_on_time": 8.259, "note_off_time": 8.375}]</notes><guidance name="Guidance Mode">None</guidance><error name="Error value">0.2560385416666667</error></trial></trials></MIDI>