<MIDI midiNo="2022_08_17-16_50_40"><target_notes><notes name="Note List">[{"pitch": 42, "velocity": 80, "note_on_time": 0.003, "note_off_time": 1.508}, {"pitch": 42, "velocity": 80, "note_on_time": 1.509, "note_off_time": 3.022}, {"pitch": 42, "velocity": 80, "note_on_time": 3.022, "note_off_time": 4.536}, {"pitch": 42, "velocity": 80, "note_on_time": 4.536, "note_off_time": 6.038}, {"pitch": 65, "velocity": 80, "note_on_time": 6.038, "note_off_time": 7.549}, {"pitch": 42, "velocity": 80, "note_on_time": 6.039, "note_off_time": 7.549}, {"pitch": 42, "velocity": 80, "note_on_time": 7.549, "note_off_time": 9.065}, {"pitch": 62, "velocity": 80, "note_on_time": 7.549, "note_off_time": 10.575}, {"pitch": 42, "velocity": 80, "note_on_time": 9.065, "note_off_time": 10.576}, {"pitch": 42, "velocity": 80, "note_on_time": 10.576, "note_off_time": 12.087}, {"pitch": 42, "velocity": 80, "note_on_time": 12.088, "note_off_time": 13.601}, {"pitch": 65, "velocity": 80, "note_on_time": 12.087, "note_off_time": 15.116}, {"pitch": 42, "velocity": 80, "note_on_time": 13.601, "note_off_time": 15.117}, {"pitch": 42, "velocity": 80, "note_on_time": 15.117, "note_off_time": 16.631}, {"pitch": 64, "velocity": 80, "note_on_time": 15.116, "note_off_time": 18.147}, {"pitch": 42, "velocity": 80, "note_on_time": 16.631, "note_off_time": 18.147}, {"pitch": 67, "velocity": 80, "note_on_time": 18.147, "note_off_time": 19.662}, {"pitch": 42, "velocity": 80, "note_on_time": 18.147, "note_off_time": 19.662}, {"pitch": 42, "velocity": 80, "note_on_time": 19.662, "note_off_time": 21.174}, {"pitch": 62, "velocity": 80, "note_on_time": 19.662, "note_off_time": 22.677}, {"pitch": 42, "velocity": 80, "note_on_time": 21.175, "note_off_time": 22.677}, {"pitch": 42, "velocity": 80, "note_on_time": 22.677, "note_off_time": 24.192}, {"pitch": 64, "velocity": 80, "note_on_time": 24.192, "note_off_time": 25.693}, {"pitch": 42, "velocity": 80, "note_on_time": 24.192, "note_off_time": 25.693}, {"pitch": 42, "velocity": 80, "note_on_time": 25.693, "note_off_time": 27.203}, {"pitch": 64, "velocity": 80, "note_on_time": 27.203, "note_off_time": 28.718}, {"pitch": 42, "velocity": 80, "note_on_time": 27.204, "note_off_time": 28.718}, {"pitch": 65, "velocity": 80, "note_on_time": 28.718, "note_off_time": 30.221}, {"pitch": 42, "velocity": 80, "note_on_time": 28.718, "note_off_time": 30.221}, {"pitch": 64, "velocity": 80, "note_on_time": 30.221, "note_off_time": 31.726}, {"pitch": 42, "velocity": 80, "note_on_time": 30.221, "note_off_time": 31.726}, {"pitch": 67, "velocity": 80, "note_on_time": 31.726, "note_off_time": 33.241}, {"pitch": 42, "velocity": 80, "note_on_time": 31.727, "note_off_time": 33.241}, {"pitch": 64, "velocity": 80, "note_on_time": 33.241, "note_off_time": 34.742}, {"pitch": 42, "velocity": 80, "note_on_time": 33.241, "note_off_time": 34.742}, {"pitch": 60, "velocity": 80, "note_on_time": 34.742, "note_off_time": 36.256}, {"pitch": 42, "velocity": 80, "note_on_time": 34.743, "note_off_time": 36.256}, {"pitch": 67, "velocity": 80, "note_on_time": 36.256, "note_off_time": 37.767}, {"pitch": 42, "velocity": 80, "note_on_time": 36.257, "note_off_time": 37.768}, {"pitch": 64, "velocity": 80, "note_on_time": 37.767, "note_off_time": 39.282}, {"pitch": 42, "velocity": 80, "note_on_time": 37.768, "note_off_time": 39.283}, {"pitch": 42, "velocity": 80, "note_on_time": 39.283, "note_off_time": 40.795}, {"pitch": 65, "velocity": 80, "note_on_time": 39.282, "note_off_time": 42.307}, {"pitch": 42, "velocity": 80, "note_on_time": 40.795, "note_off_time": 42.307}, {"pitch": 67, "velocity": 80, "note_on_time": 42.307, "note_off_time": 43.822}, {"pitch": 42, "velocity": 80, "note_on_time": 42.307, "note_off_time": 43.822}, {"pitch": 64, "velocity": 80, "note_on_time": 43.822, "note_off_time": 45.333}, {"pitch": 42, "velocity": 80, "note_on_time": 43.823, "note_off_time": 45.333}, {"pitch": 65, "velocity": 80, "note_on_time": 45.333, "note_off_time": 46.845}, {"pitch": 42, "velocity": 80, "note_on_time": 45.333, "note_off_time": 46.845}, {"pitch": 65, "velocity": 80, "note_on_time": 46.845, "note_off_time": 48.36}, {"pitch": 42, "velocity": 80, "note_on_time": 46.845, "note_off_time": 48.36}, {"pitch": 42, "velocity": 80, "note_on_time": 48.361, "note_off_time": 49.874}, {"pitch": 65, "velocity": 80, "note_on_time": 49.874, "note_off_time": 51.387}, {"pitch": 42, "velocity": 80, "note_on_time": 49.874, "note_off_time": 51.387}, {"pitch": 65, "velocity": 80, "note_on_time": 51.387, "note_off_time": 52.9}, {"pitch": 42, "velocity": 80, "note_on_time": 51.388, "note_off_time": 52.9}, {"pitch": 65, "velocity": 80, "note_on_time": 52.9, "note_off_time": 54.406}, {"pitch": 42, "velocity": 80, "note_on_time": 52.9, "note_off_time": 54.406}]</notes><options name="Option List">((4, 4), [0.5, 0.25], 3, 8, &lt;NoteRangePerHand.C_TO_G: 6&gt;, &lt;NoteRangePerHand.ONE_NOTE: 2&gt;, False, True, True, '40')</options></target_notes><trials><trial trial_no="1" timestamp="2022_08_17-16_49_44"><notes name="Played Notes">[{"pitch": 65, "velocity": 75, "note_on_time": 6.031, "note_off_time": 7.507}, {"pitch": 62, "velocity": 66, "note_on_time": 7.53, "note_off_time": 9.653}, {"pitch": 65, "velocity": 71, "note_on_time": 12.062, "note_off_time": 15.087}, {"pitch": 64, "velocity": 74, "note_on_time": 15.097, "note_off_time": 18.07}, {"pitch": 67, "velocity": 68, "note_on_time": 18.103, "note_off_time": 19.608}, {"pitch": 62, "velocity": 66, "note_on_time": 19.601, "note_off_time": 21.066}, {"pitch": 64, "velocity": 65, "note_on_time": 24.251, "note_off_time": 25.262}, {"pitch": 64, "velocity": 69, "note_on_time": 27.125, "note_off_time": 28.569}, {"pitch": 65, "velocity": 60, "note_on_time": 28.621, "note_off_time": 30.065}, {"pitch": 64, "velocity": 63, "note_on_time": 30.093, "note_off_time": 31.573}, {"pitch": 67, "velocity": 76, "note_on_time": 31.643, "note_off_time": 33.158}, {"pitch": 64, "velocity": 64, "note_on_time": 33.179, "note_off_time": 34.753}, {"pitch": 60, "velocity": 61, "note_on_time": 34.759, "note_off_time": 36.24}, {"pitch": 67, "velocity": 73, "note_on_time": 36.214, "note_off_time": 37.684}, {"pitch": 64, "velocity": 66, "note_on_time": 37.694, "note_off_time": 39.232}, {"pitch": 65, "velocity": 67, "note_on_time": 39.255, "note_off_time": 40.778}, {"pitch": 67, "velocity": 75, "note_on_time": 40.771, "note_off_time": 42.35}, {"pitch": 64, "velocity": 64, "note_on_time": 42.363, "note_off_time": 43.713}, {"pitch": 65, "velocity": 66, "note_on_time": 43.726, "note_off_time": 44.672}, {"pitch": 65, "velocity": 70, "note_on_time": 45.292, "note_off_time": 46.031}, {"pitch": 65, "velocity": 72, "note_on_time": 48.293, "note_off_time": 49.362}, {"pitch": 65, "velocity": 69, "note_on_time": 49.783, "note_off_time": 50.744}, {"pitch": 65, "velocity": 70, "note_on_time": 51.292, "note_off_time": 52.394}]</notes><guidance name="Guidance Mode">None</guidance><error name="Error value">0.12375000000000021</error></trial><trial trial_no="2" timestamp="2022_08_17-16_50_48"><notes name="Played Notes">[{"pitch": 67, "velocity": 50, "note_on_time": 1.253, "note_off_time": 1.397}, {"pitch": 65, "velocity": 61, "note_on_time": 1.267, "note_off_time": 1.438}, {"pitch": 64, "velocity": 61, "note_on_time": 1.36, "note_off_time": 1.475}, {"pitch": 62, "velocity": 56, "note_on_time": 1.429, "note_off_time": 1.503}, {"pitch": 60, "velocity": 64, "note_on_time": 1.433, "note_off_time": 1.56}, {"pitch": 65, "velocity": 67, "note_on_time": 6.003, "note_off_time": 7.463}, {"pitch": 62, "velocity": 59, "note_on_time": 7.491, "note_off_time": 9.6}, {"pitch": 65, "velocity": 63, "note_on_time": 11.947, "note_off_time": 15.016}, {"pitch": 64, "velocity": 70, "note_on_time": 15.025, "note_off_time": 18.002}, {"pitch": 67, "velocity": 72, "note_on_time": 18.024, "note_off_time": 19.514}, {"pitch": 62, "velocity": 65, "note_on_time": 19.519, "note_off_time": 21.908}, {"pitch": 64, "velocity": 70, "note_on_time": 24.072, "note_off_time": 25.13}, {"pitch": 64, "velocity": 70, "note_on_time": 27.152, "note_off_time": 28.618}, {"pitch": 65, "velocity": 62, "note_on_time": 28.66, "note_off_time": 30.124}, {"pitch": 64, "velocity": 65, "note_on_time": 30.124, "note_off_time": 31.618}, {"pitch": 67, "velocity": 71, "note_on_time": 31.627, "note_off_time": 33.042}, {"pitch": 64, "velocity": 65, "note_on_time": 33.052, "note_off_time": 34.659}, {"pitch": 60, "velocity": 65, "note_on_time": 34.635, "note_off_time": 36.181}, {"pitch": 67, "velocity": 71, "note_on_time": 36.149, "note_off_time": 37.667}, {"pitch": 64, "velocity": 69, "note_on_time": 37.66, "note_off_time": 39.202}, {"pitch": 65, "velocity": 71, "note_on_time": 39.201, "note_off_time": 40.768}, {"pitch": 67, "velocity": 67, "note_on_time": 40.768, "note_off_time": 41.163}, {"pitch": 60, "velocity": 1, "note_on_time": 43.045, "note_off_time": 43.207}, {"pitch": 67, "velocity": 62, "note_on_time": 42.262, "note_off_time": 43.746}, {"pitch": 64, "velocity": 67, "note_on_time": 43.726, "note_off_time": 45.238}, {"pitch": 65, "velocity": 65, "note_on_time": 45.247, "note_off_time": 46.514}, {"pitch": 65, "velocity": 66, "note_on_time": 46.81, "note_off_time": 47.983}, {"pitch": 65, "velocity": 69, "note_on_time": 49.767, "note_off_time": 50.777}, {"pitch": 65, "velocity": 66, "note_on_time": 51.28, "note_off_time": 52.294}, {"pitch": 65, "velocity": 72, "note_on_time": 52.794, "note_off_time": 53.728}]</notes><guidance name="Guidance Mode">None</guidance><error name="Error value">9.59085</error></trial><trial trial_no="3" timestamp="2022_08_17-16_51_51"><notes name="Played Notes">[{"pitch": 65, "velocity": 65, "note_on_time": 5.944, "note_off_time": 7.433}, {"pitch": 62, "velocity": 60, "note_on_time": 7.449, "note_off_time": 9.788}, {"pitch": 65, "velocity": 66, "note_on_time": 12.018, "note_off_time": 15.066}, {"pitch": 64, "velocity": 66, "note_on_time": 15.057, "note_off_time": 18.033}, {"pitch": 67, "velocity": 65, "note_on_time": 18.062, "note_off_time": 19.506}, {"pitch": 62, "velocity": 62, "note_on_time": 19.522, "note_off_time": 21.989}, {"pitch": 64, "velocity": 63, "note_on_time": 24.154, "note_off_time": 25.284}, {"pitch": 64, "velocity": 72, "note_on_time": 27.15, "note_off_time": 28.589}, {"pitch": 65, "velocity": 66, "note_on_time": 28.616, "note_off_time": 30.135}, {"pitch": 64, "velocity": 69, "note_on_time": 30.134, "note_off_time": 31.533}, {"pitch": 67, "velocity": 64, "note_on_time": 31.606, "note_off_time": 33.23}, {"pitch": 64, "velocity": 66, "note_on_time": 33.201, "note_off_time": 34.861}, {"pitch": 60, "velocity": 63, "note_on_time": 34.853, "note_off_time": 36.296}, {"pitch": 67, "velocity": 67, "note_on_time": 36.266, "note_off_time": 37.763}, {"pitch": 64, "velocity": 67, "note_on_time": 37.757, "note_off_time": 39.242}, {"pitch": 65, "velocity": 73, "note_on_time": 39.252, "note_off_time": 40.769}, {"pitch": 67, "velocity": 73, "note_on_time": 40.764, "note_off_time": 42.217}, {"pitch": 64, "velocity": 64, "note_on_time": 42.217, "note_off_time": 43.746}, {"pitch": 65, "velocity": 65, "note_on_time": 43.766, "note_off_time": 45.097}, {"pitch": 65, "velocity": 49, "note_on_time": 45.329, "note_off_time": 46.458}, {"pitch": 65, "velocity": 64, "note_on_time": 48.303, "note_off_time": 49.351}, {"pitch": 65, "velocity": 65, "note_on_time": 49.818, "note_off_time": 50.782}, {"pitch": 65, "velocity": 73, "note_on_time": 51.313, "note_off_time": 52.246}]</notes><guidance name="Guidance Mode">None</guidance><error name="Error value">0.12075000000000044</error></trial><trial trial_no="4" timestamp="2022_08_17-16_52_53"><notes name="Played Notes">[{"pitch": 65, "velocity": 68, "note_on_time": 4.524, "note_off_time": 4.742}, {"pitch": 65, "velocity": 69, "note_on_time": 5.947, "note_off_time": 7.492}, {"pitch": 62, "velocity": 64, "note_on_time": 7.501, "note_off_time": 9.743}, {"pitch": 65, "velocity": 64, "note_on_time": 11.989, "note_off_time": 15.008}, {"pitch": 64, "velocity": 70, "note_on_time": 15.001, "note_off_time": 18.075}, {"pitch": 67, "velocity": 65, "note_on_time": 18.087, "note_off_time": 19.587}, {"pitch": 62, "velocity": 64, "note_on_time": 19.584, "note_off_time": 22.223}, {"pitch": 64, "velocity": 59, "note_on_time": 24.173, "note_off_time": 25.505}, {"pitch": 64, "velocity": 66, "note_on_time": 27.176, "note_off_time": 28.63}, {"pitch": 65, "velocity": 67, "note_on_time": 28.635, "note_off_time": 30.243}, {"pitch": 64, "velocity": 60, "note_on_time": 30.25, "note_off_time": 31.773}, {"pitch": 67, "velocity": 71, "note_on_time": 31.761, "note_off_time": 33.231}, {"pitch": 64, "velocity": 75, "note_on_time": 33.205, "note_off_time": 34.809}, {"pitch": 60, "velocity": 61, "note_on_time": 34.808, "note_off_time": 36.269}, {"pitch": 67, "velocity": 70, "note_on_time": 36.223, "note_off_time": 37.717}, {"pitch": 64, "velocity": 60, "note_on_time": 37.704, "note_off_time": 39.226}, {"pitch": 65, "velocity": 66, "note_on_time": 39.224, "note_off_time": 42.277}, {"pitch": 67, "velocity": 77, "note_on_time": 42.288, "note_off_time": 43.72}, {"pitch": 64, "velocity": 67, "note_on_time": 43.711, "note_off_time": 45.21}, {"pitch": 65, "velocity": 61, "note_on_time": 45.259, "note_off_time": 46.451}, {"pitch": 65, "velocity": 63, "note_on_time": 46.877, "note_off_time": 47.92}, {"pitch": 65, "velocity": 60, "note_on_time": 49.789, "note_off_time": 51.047}, {"pitch": 65, "velocity": 58, "note_on_time": 51.279, "note_off_time": 52.456}, {"pitch": 65, "velocity": 61, "note_on_time": 52.747, "note_off_time": 54.0}]</notes><guidance name="Guidance Mode">None</guidance><error name="Error value">0.3252999999999997</error></trial><trial trial_no="5" timestamp="2022_08_17-16_54_04"><notes name="Played Notes">[{"pitch": 65, "velocity": 68, "note_on_time": 5.962, "note_off_time": 7.434}, {"pitch": 62, "velocity": 64, "note_on_time": 7.439, "note_off_time": 9.682}, {"pitch": 65, "velocity": 65, "note_on_time": 11.976, "note_off_time": 15.008}, {"pitch": 64, "velocity": 64, "note_on_time": 15.018, "note_off_time": 17.957}, {"pitch": 67, "velocity": 65, "note_on_time": 17.986, "note_off_time": 19.505}, {"pitch": 62, "velocity": 57, "note_on_time": 19.514, "note_off_time": 21.966}, {"pitch": 64, "velocity": 68, "note_on_time": 24.102, "note_off_time": 25.352}, {"pitch": 64, "velocity": 68, "note_on_time": 27.117, "note_off_time": 28.562}, {"pitch": 65, "velocity": 67, "note_on_time": 28.574, "note_off_time": 30.192}, {"pitch": 64, "velocity": 63, "note_on_time": 30.186, "note_off_time": 31.643}, {"pitch": 67, "velocity": 72, "note_on_time": 31.671, "note_off_time": 33.176}, {"pitch": 64, "velocity": 65, "note_on_time": 33.147, "note_off_time": 34.803}, {"pitch": 60, "velocity": 62, "note_on_time": 34.813, "note_off_time": 36.256}, {"pitch": 67, "velocity": 67, "note_on_time": 36.2, "note_off_time": 37.697}, {"pitch": 64, "velocity": 66, "note_on_time": 37.688, "note_off_time": 39.142}, {"pitch": 65, "velocity": 63, "note_on_time": 39.162, "note_off_time": 42.236}, {"pitch": 67, "velocity": 73, "note_on_time": 42.215, "note_off_time": 43.723}, {"pitch": 64, "velocity": 62, "note_on_time": 43.698, "note_off_time": 45.175}, {"pitch": 65, "velocity": 66, "note_on_time": 45.194, "note_off_time": 46.396}, {"pitch": 65, "velocity": 69, "note_on_time": 46.825, "note_off_time": 47.892}, {"pitch": 65, "velocity": 68, "note_on_time": 49.794, "note_off_time": 50.751}, {"pitch": 65, "velocity": 67, "note_on_time": 51.253, "note_off_time": 52.212}, {"pitch": 65, "velocity": 75, "note_on_time": 52.801, "note_off_time": 53.721}]</notes><guidance name="Guidance Mode">None</guidance><error name="Error value">0.05505000000000084</error></trial></trials></MIDI>