<MIDI midiNo="2022_11_03-10_30_22"><target_notes><notes name="Note List">[{"pitch": 42, "velocity": 80, "note_on_time": 0.004, "note_off_time": 0.224}, {"pitch": 42, "velocity": 80, "note_on_time": 0.224, "note_off_time": 0.442}, {"pitch": 42, "velocity": 80, "note_on_time": 0.442, "note_off_time": 0.66}, {"pitch": 42, "velocity": 80, "note_on_time": 0.66, "note_off_time": 0.878}, {"pitch": 65, "velocity": 80, "note_on_time": 0.878, "note_off_time": 1.095}, {"pitch": 42, "velocity": 80, "note_on_time": 0.878, "note_off_time": 1.095}, {"pitch": 62, "velocity": 80, "note_on_time": 1.095, "note_off_time": 1.313}, {"pitch": 42, "velocity": 80, "note_on_time": 1.095, "note_off_time": 1.313}, {"pitch": 67, "velocity": 80, "note_on_time": 1.313, "note_off_time": 1.533}, {"pitch": 42, "velocity": 80, "note_on_time": 1.313, "note_off_time": 1.533}, {"pitch": 64, "velocity": 80, "note_on_time": 1.533, "note_off_time": 1.748}, {"pitch": 42, "velocity": 80, "note_on_time": 1.533, "note_off_time": 1.748}, {"pitch": 60, "velocity": 80, "note_on_time": 1.748, "note_off_time": 1.966}, {"pitch": 42, "velocity": 80, "note_on_time": 1.748, "note_off_time": 1.966}, {"pitch": 67, "velocity": 80, "note_on_time": 1.966, "note_off_time": 2.187}, {"pitch": 42, "velocity": 80, "note_on_time": 1.966, "note_off_time": 2.187}, {"pitch": 67, "velocity": 80, "note_on_time": 2.187, "note_off_time": 2.404}, {"pitch": 42, "velocity": 80, "note_on_time": 2.187, "note_off_time": 2.404}, {"pitch": 64, "velocity": 80, "note_on_time": 2.404, "note_off_time": 2.62}, {"pitch": 42, "velocity": 80, "note_on_time": 2.404, "note_off_time": 2.62}, {"pitch": 64, "velocity": 80, "note_on_time": 2.62, "note_off_time": 2.837}, {"pitch": 42, "velocity": 80, "note_on_time": 2.62, "note_off_time": 2.837}, {"pitch": 42, "velocity": 80, "note_on_time": 2.837, "note_off_time": 3.053}, {"pitch": 60, "velocity": 80, "note_on_time": 2.837, "note_off_time": 3.271}, {"pitch": 42, "velocity": 80, "note_on_time": 3.054, "note_off_time": 3.271}, {"pitch": 42, "velocity": 80, "note_on_time": 3.271, "note_off_time": 3.488}, {"pitch": 64, "velocity": 80, "note_on_time": 3.488, "note_off_time": 3.706}, {"pitch": 42, "velocity": 80, "note_on_time": 3.488, "note_off_time": 3.706}, {"pitch": 65, "velocity": 80, "note_on_time": 3.706, "note_off_time": 3.924}, {"pitch": 42, "velocity": 80, "note_on_time": 3.706, "note_off_time": 3.924}, {"pitch": 65, "velocity": 80, "note_on_time": 3.924, "note_off_time": 4.142}, {"pitch": 42, "velocity": 80, "note_on_time": 3.924, "note_off_time": 4.142}, {"pitch": 60, "velocity": 80, "note_on_time": 4.142, "note_off_time": 4.359}, {"pitch": 42, "velocity": 80, "note_on_time": 4.142, "note_off_time": 4.359}, {"pitch": 42, "velocity": 80, "note_on_time": 4.359, "note_off_time": 4.576}, {"pitch": 64, "velocity": 80, "note_on_time": 4.359, "note_off_time": 4.794}, {"pitch": 42, "velocity": 80, "note_on_time": 4.576, "note_off_time": 4.794}, {"pitch": 42, "velocity": 80, "note_on_time": 4.794, "note_off_time": 5.013}, {"pitch": 67, "velocity": 80, "note_on_time": 4.794, "note_off_time": 5.228}, {"pitch": 42, "velocity": 80, "note_on_time": 5.013, "note_off_time": 5.228}, {"pitch": 65, "velocity": 80, "note_on_time": 5.228, "note_off_time": 5.445}, {"pitch": 42, "velocity": 80, "note_on_time": 5.228, "note_off_time": 5.445}, {"pitch": 64, "velocity": 80, "note_on_time": 5.445, "note_off_time": 5.663}, {"pitch": 42, "velocity": 80, "note_on_time": 5.446, "note_off_time": 5.663}, {"pitch": 65, "velocity": 80, "note_on_time": 5.663, "note_off_time": 5.88}, {"pitch": 42, "velocity": 80, "note_on_time": 5.663, "note_off_time": 5.88}, {"pitch": 64, "velocity": 80, "note_on_time": 5.88, "note_off_time": 6.097}, {"pitch": 42, "velocity": 80, "note_on_time": 5.88, "note_off_time": 6.097}, {"pitch": 64, "velocity": 80, "note_on_time": 6.097, "note_off_time": 6.317}, {"pitch": 42, "velocity": 80, "note_on_time": 6.097, "note_off_time": 6.317}, {"pitch": 62, "velocity": 80, "note_on_time": 6.317, "note_off_time": 6.532}, {"pitch": 42, "velocity": 80, "note_on_time": 6.317, "note_off_time": 6.533}, {"pitch": 67, "velocity": 80, "note_on_time": 6.532, "note_off_time": 6.752}, {"pitch": 42, "velocity": 80, "note_on_time": 6.533, "note_off_time": 6.752}, {"pitch": 67, "velocity": 80, "note_on_time": 6.752, "note_off_time": 6.97}, {"pitch": 42, "velocity": 80, "note_on_time": 6.753, "note_off_time": 6.97}, {"pitch": 42, "velocity": 80, "note_on_time": 6.97, "note_off_time": 7.187}, {"pitch": 67, "velocity": 80, "note_on_time": 7.187, "note_off_time": 7.403}, {"pitch": 42, "velocity": 80, "note_on_time": 7.187, "note_off_time": 7.403}, {"pitch": 67, "velocity": 80, "note_on_time": 7.403, "note_off_time": 7.621}, {"pitch": 42, "velocity": 80, "note_on_time": 7.403, "note_off_time": 7.621}, {"pitch": 67, "velocity": 80, "note_on_time": 7.621, "note_off_time": 7.842}, {"pitch": 42, "velocity": 80, "note_on_time": 7.621, "note_off_time": 7.842}]</notes><options name="Option List">((4, 4), [0.5, 0.25], 3, 8, &lt;NoteRangePerHand.C_TO_G: 6&gt;, &lt;NoteRangePerHand.ONE_NOTE: 2&gt;, False, True, False, 281)</options></target_notes><trials><trial trial_no="1" timestamp="2022_11_03-10_30_12"><notes name="Played Notes">[{"pitch": 65, "velocity": 71, "note_on_time": 0.909, "note_off_time": 1.118}, {"pitch": 62, "velocity": 62, "note_on_time": 1.152, "note_off_time": 1.365}, {"pitch": 67, "velocity": 72, "note_on_time": 1.368, "note_off_time": 1.672}, {"pitch": 64, "velocity": 63, "note_on_time": 1.617, "note_off_time": 1.859}, {"pitch": 60, "velocity": 73, "note_on_time": 1.88, "note_off_time": 2.116}, {"pitch": 67, "velocity": 77, "note_on_time": 2.125, "note_off_time": 2.24}, {"pitch": 67, "velocity": 71, "note_on_time": 2.38, "note_off_time": 2.688}, {"pitch": 64, "velocity": 64, "note_on_time": 2.654, "note_off_time": 2.735}, {"pitch": 64, "velocity": 78, "note_on_time": 2.899, "note_off_time": 3.122}, {"pitch": 60, "velocity": 74, "note_on_time": 3.148, "note_off_time": 3.775}, {"pitch": 62, "velocity": 74, "note_on_time": 3.77, "note_off_time": 3.954}, {"pitch": 65, "velocity": 75, "note_on_time": 3.969, "note_off_time": 4.076}, {"pitch": 65, "velocity": 73, "note_on_time": 4.22, "note_off_time": 4.444}, {"pitch": 60, "velocity": 51, "note_on_time": 4.487, "note_off_time": 4.747}, {"pitch": 64, "velocity": 71, "note_on_time": 4.719, "note_off_time": 5.217}, {"pitch": 67, "velocity": 73, "note_on_time": 5.232, "note_off_time": 5.761}, {"pitch": 65, "velocity": 78, "note_on_time": 5.682, "note_off_time": 5.922}, {"pitch": 64, "velocity": 74, "note_on_time": 5.924, "note_off_time": 6.18}, {"pitch": 65, "velocity": 73, "note_on_time": 6.164, "note_off_time": 6.467}, {"pitch": 64, "velocity": 66, "note_on_time": 6.412, "note_off_time": 6.54}, {"pitch": 64, "velocity": 71, "note_on_time": 6.692, "note_off_time": 6.92}, {"pitch": 62, "velocity": 57, "note_on_time": 6.946, "note_off_time": 7.22}, {"pitch": 67, "velocity": 69, "note_on_time": 7.208, "note_off_time": 7.313}, {"pitch": 67, "velocity": 61, "note_on_time": 7.434, "note_off_time": 7.718}]</notes><guidance name="Guidance Mode">None</guidance><error name="Error value">0.3079865833333334</error></trial></trials></MIDI>