<MIDI midiNo="2022_10_02-13_05_52"><target_notes><notes name="Note List">[{"pitch": 42, "velocity": 80, "note_on_time": 0.003, "note_off_time": 0.376}, {"pitch": 42, "velocity": 80, "note_on_time": 0.376, "note_off_time": 0.749}, {"pitch": 42, "velocity": 80, "note_on_time": 0.749, "note_off_time": 1.121}, {"pitch": 42, "velocity": 80, "note_on_time": 1.121, "note_off_time": 1.495}, {"pitch": 64, "velocity": 80, "note_on_time": 1.495, "note_off_time": 1.869}, {"pitch": 42, "velocity": 80, "note_on_time": 1.495, "note_off_time": 1.87}, {"pitch": 60, "velocity": 80, "note_on_time": 1.869, "note_off_time": 2.244}, {"pitch": 42, "velocity": 80, "note_on_time": 1.87, "note_off_time": 2.244}, {"pitch": 62, "velocity": 80, "note_on_time": 2.244, "note_off_time": 2.619}, {"pitch": 42, "velocity": 80, "note_on_time": 2.244, "note_off_time": 2.619}, {"pitch": 60, "velocity": 80, "note_on_time": 2.619, "note_off_time": 2.994}, {"pitch": 42, "velocity": 80, "note_on_time": 2.619, "note_off_time": 2.994}, {"pitch": 60, "velocity": 80, "note_on_time": 2.994, "note_off_time": 3.366}, {"pitch": 42, "velocity": 80, "note_on_time": 2.994, "note_off_time": 3.366}, {"pitch": 42, "velocity": 80, "note_on_time": 3.367, "note_off_time": 3.738}, {"pitch": 42, "velocity": 80, "note_on_time": 3.738, "note_off_time": 4.108}, {"pitch": 42, "velocity": 80, "note_on_time": 4.108, "note_off_time": 4.48}, {"pitch": 64, "velocity": 80, "note_on_time": 4.48, "note_off_time": 4.85}, {"pitch": 42, "velocity": 80, "note_on_time": 4.48, "note_off_time": 4.851}, {"pitch": 60, "velocity": 80, "note_on_time": 4.85, "note_off_time": 5.227}, {"pitch": 42, "velocity": 80, "note_on_time": 4.851, "note_off_time": 5.228}, {"pitch": 42, "velocity": 80, "note_on_time": 5.228, "note_off_time": 5.602}, {"pitch": 64, "velocity": 80, "note_on_time": 5.602, "note_off_time": 5.976}, {"pitch": 42, "velocity": 80, "note_on_time": 5.603, "note_off_time": 5.976}, {"pitch": 64, "velocity": 80, "note_on_time": 5.976, "note_off_time": 6.35}, {"pitch": 42, "velocity": 80, "note_on_time": 5.977, "note_off_time": 6.351}, {"pitch": 60, "velocity": 80, "note_on_time": 6.35, "note_off_time": 6.728}, {"pitch": 42, "velocity": 80, "note_on_time": 6.351, "note_off_time": 6.728}, {"pitch": 64, "velocity": 80, "note_on_time": 6.728, "note_off_time": 7.099}, {"pitch": 42, "velocity": 80, "note_on_time": 6.728, "note_off_time": 7.099}, {"pitch": 64, "velocity": 80, "note_on_time": 7.099, "note_off_time": 7.473}, {"pitch": 42, "velocity": 80, "note_on_time": 7.1, "note_off_time": 7.474}, {"pitch": 64, "velocity": 80, "note_on_time": 7.473, "note_off_time": 7.846}, {"pitch": 42, "velocity": 80, "note_on_time": 7.474, "note_off_time": 7.846}, {"pitch": 60, "velocity": 80, "note_on_time": 7.846, "note_off_time": 8.218}, {"pitch": 42, "velocity": 80, "note_on_time": 7.846, "note_off_time": 8.218}, {"pitch": 62, "velocity": 80, "note_on_time": 8.218, "note_off_time": 8.592}, {"pitch": 42, "velocity": 80, "note_on_time": 8.219, "note_off_time": 8.592}, {"pitch": 60, "velocity": 80, "note_on_time": 8.592, "note_off_time": 8.967}, {"pitch": 42, "velocity": 80, "note_on_time": 8.593, "note_off_time": 8.968}, {"pitch": 64, "velocity": 80, "note_on_time": 8.967, "note_off_time": 9.342}, {"pitch": 42, "velocity": 80, "note_on_time": 8.968, "note_off_time": 9.343}, {"pitch": 42, "velocity": 80, "note_on_time": 9.343, "note_off_time": 9.715}, {"pitch": 64, "velocity": 80, "note_on_time": 9.715, "note_off_time": 10.09}, {"pitch": 42, "velocity": 80, "note_on_time": 9.715, "note_off_time": 10.09}, {"pitch": 64, "velocity": 80, "note_on_time": 10.09, "note_off_time": 10.463}, {"pitch": 42, "velocity": 80, "note_on_time": 10.09, "note_off_time": 10.464}, {"pitch": 60, "velocity": 80, "note_on_time": 10.463, "note_off_time": 10.839}, {"pitch": 42, "velocity": 80, "note_on_time": 10.464, "note_off_time": 10.839}, {"pitch": 42, "velocity": 80, "note_on_time": 10.84, "note_off_time": 11.212}, {"pitch": 42, "velocity": 80, "note_on_time": 11.212, "note_off_time": 11.585}, {"pitch": 42, "velocity": 80, "note_on_time": 11.585, "note_off_time": 11.959}, {"pitch": 42, "velocity": 80, "note_on_time": 11.959, "note_off_time": 12.337}, {"pitch": 60, "velocity": 80, "note_on_time": 12.337, "note_off_time": 12.71}, {"pitch": 42, "velocity": 80, "note_on_time": 12.337, "note_off_time": 12.711}, {"pitch": 60, "velocity": 80, "note_on_time": 12.71, "note_off_time": 13.083}, {"pitch": 42, "velocity": 80, "note_on_time": 12.711, "note_off_time": 13.084}, {"pitch": 60, "velocity": 80, "note_on_time": 13.083, "note_off_time": 13.458}, {"pitch": 42, "velocity": 80, "note_on_time": 13.084, "note_off_time": 13.458}]</notes><options name="Option List">((4, 4), [0.25], 3, 8, &lt;NoteRangePerHand.THREE_NOTES: 4&gt;, &lt;NoteRangePerHand.ONE_NOTE: 2&gt;, False, True, True, '166')</options></target_notes><trials><trial trial_no="1" timestamp="2022_10_02-13_05_37"><notes name="Played Notes">[{"pitch": 64, "velocity": 61, "note_on_time": 1.516, "note_off_time": 1.802}, {"pitch": 60, "velocity": 60, "note_on_time": 1.877, "note_off_time": 2.184}, {"pitch": 62, "velocity": 63, "note_on_time": 2.266, "note_off_time": 2.585}, {"pitch": 60, "velocity": 61, "note_on_time": 2.611, "note_off_time": 2.79}, {"pitch": 60, "velocity": 61, "note_on_time": 3.024, "note_off_time": 3.273}, {"pitch": 64, "velocity": 67, "note_on_time": 3.783, "note_off_time": 4.091}, {"pitch": 60, "velocity": 58, "note_on_time": 4.141, "note_off_time": 4.378}, {"pitch": 64, "velocity": 65, "note_on_time": 4.852, "note_off_time": 5.021}, {"pitch": 64, "velocity": 60, "note_on_time": 5.212, "note_off_time": 5.505}, {"pitch": 60, "velocity": 67, "note_on_time": 5.593, "note_off_time": 6.038}, {"pitch": 64, "velocity": 55, "note_on_time": 5.972, "note_off_time": 6.143}, {"pitch": 64, "velocity": 59, "note_on_time": 6.341, "note_off_time": 6.51}, {"pitch": 64, "velocity": 64, "note_on_time": 6.717, "note_off_time": 6.984}, {"pitch": 60, "velocity": 64, "note_on_time": 7.081, "note_off_time": 7.318}, {"pitch": 62, "velocity": 59, "note_on_time": 7.459, "note_off_time": 7.843}, {"pitch": 60, "velocity": 63, "note_on_time": 7.843, "note_off_time": 8.211}, {"pitch": 64, "velocity": 53, "note_on_time": 8.228, "note_off_time": 8.579}, {"pitch": 64, "velocity": 61, "note_on_time": 8.97, "note_off_time": 9.114}, {"pitch": 64, "velocity": 55, "note_on_time": 9.322, "note_off_time": 9.687}, {"pitch": 60, "velocity": 56, "note_on_time": 9.71, "note_off_time": 9.937}, {"pitch": 60, "velocity": 62, "note_on_time": 11.191, "note_off_time": 11.393}, {"pitch": 60, "velocity": 68, "note_on_time": 11.58, "note_off_time": 11.732}, {"pitch": 60, "velocity": 64, "note_on_time": 11.932, "note_off_time": 12.231}]</notes><guidance name="Guidance Mode">None</guidance><error name="Error value">0.06711675000000018</error></trial><trial trial_no="2" timestamp="2022_10_02-13_06_16"><notes name="Played Notes">[{"pitch": 64, "velocity": 61, "note_on_time": 1.515, "note_off_time": 1.764}, {"pitch": 60, "velocity": 67, "note_on_time": 1.883, "note_off_time": 2.144}, {"pitch": 62, "velocity": 63, "note_on_time": 2.232, "note_off_time": 2.498}, {"pitch": 60, "velocity": 68, "note_on_time": 2.622, "note_off_time": 2.817}, {"pitch": 60, "velocity": 63, "note_on_time": 3.017, "note_off_time": 3.271}, {"pitch": 64, "velocity": 59, "note_on_time": 4.499, "note_off_time": 4.733}, {"pitch": 60, "velocity": 56, "note_on_time": 4.903, "note_off_time": 5.152}, {"pitch": 64, "velocity": 64, "note_on_time": 5.608, "note_off_time": 5.781}, {"pitch": 64, "velocity": 62, "note_on_time": 5.964, "note_off_time": 6.199}, {"pitch": 60, "velocity": 45, "note_on_time": 6.371, "note_off_time": 6.773}, {"pitch": 64, "velocity": 59, "note_on_time": 6.76, "note_off_time": 6.894}, {"pitch": 64, "velocity": 55, "note_on_time": 7.107, "note_off_time": 7.263}, {"pitch": 64, "velocity": 60, "note_on_time": 7.5, "note_off_time": 7.783}, {"pitch": 60, "velocity": 66, "note_on_time": 7.841, "note_off_time": 8.181}, {"pitch": 62, "velocity": 63, "note_on_time": 8.209, "note_off_time": 8.56}, {"pitch": 60, "velocity": 53, "note_on_time": 8.599, "note_off_time": 9.066}, {"pitch": 64, "velocity": 63, "note_on_time": 8.962, "note_off_time": 9.19}, {"pitch": 64, "velocity": 62, "note_on_time": 10.067, "note_off_time": 10.235}, {"pitch": 64, "velocity": 58, "note_on_time": 10.434, "note_off_time": 10.675}, {"pitch": 60, "velocity": 64, "note_on_time": 10.809, "note_off_time": 11.046}, {"pitch": 60, "velocity": 67, "note_on_time": 12.667, "note_off_time": 12.882}, {"pitch": 60, "velocity": 57, "note_on_time": 13.076, "note_off_time": 13.23}]</notes><guidance name="Guidance Mode">None</guidance><error name="Error value">0.11102174999999997</error></trial><trial trial_no="3" timestamp="2022_10_02-13_06_51"><notes name="Played Notes">[{"pitch": 64, "velocity": 68, "note_on_time": 1.506, "note_off_time": 1.822}, {"pitch": 60, "velocity": 71, "note_on_time": 1.89, "note_off_time": 2.236}, {"pitch": 62, "velocity": 62, "note_on_time": 2.255, "note_off_time": 2.622}, {"pitch": 60, "velocity": 75, "note_on_time": 2.619, "note_off_time": 2.787}, {"pitch": 60, "velocity": 55, "note_on_time": 2.994, "note_off_time": 3.355}, {"pitch": 64, "velocity": 63, "note_on_time": 3.744, "note_off_time": 4.035}, {"pitch": 60, "velocity": 60, "note_on_time": 4.118, "note_off_time": 4.309}, {"pitch": 64, "velocity": 64, "note_on_time": 4.844, "note_off_time": 5.037}, {"pitch": 64, "velocity": 68, "note_on_time": 5.245, "note_off_time": 5.569}, {"pitch": 60, "velocity": 60, "note_on_time": 5.614, "note_off_time": 5.985}, {"pitch": 64, "velocity": 55, "note_on_time": 5.983, "note_off_time": 6.124}, {"pitch": 64, "velocity": 57, "note_on_time": 6.334, "note_off_time": 6.494}, {"pitch": 64, "velocity": 68, "note_on_time": 6.728, "note_off_time": 7.08}, {"pitch": 60, "velocity": 59, "note_on_time": 7.104, "note_off_time": 7.431}, {"pitch": 62, "velocity": 59, "note_on_time": 7.465, "note_off_time": 7.845}, {"pitch": 60, "velocity": 66, "note_on_time": 7.834, "note_off_time": 8.233}, {"pitch": 64, "velocity": 60, "note_on_time": 8.214, "note_off_time": 8.509}, {"pitch": 64, "velocity": 67, "note_on_time": 9.009, "note_off_time": 9.153}, {"pitch": 64, "velocity": 58, "note_on_time": 9.337, "note_off_time": 9.729}, {"pitch": 60, "velocity": 66, "note_on_time": 9.747, "note_off_time": 9.973}, {"pitch": 60, "velocity": 64, "note_on_time": 11.252, "note_off_time": 11.448}, {"pitch": 60, "velocity": 70, "note_on_time": 11.608, "note_off_time": 11.781}, {"pitch": 60, "velocity": 66, "note_on_time": 11.956, "note_off_time": 12.195}]</notes><guidance name="Guidance Mode">None</guidance><error name="Error value">0.06838325000000016</error></trial></trials></MIDI>