<MIDI midiNo="2022_11_03-13_11_20"><target_notes><notes name="Note List">[{"pitch": 42, "velocity": 80, "note_on_time": 0.004, "note_off_time": 0.609}, {"pitch": 42, "velocity": 80, "note_on_time": 0.61, "note_off_time": 1.216}, {"pitch": 42, "velocity": 80, "note_on_time": 1.216, "note_off_time": 1.826}, {"pitch": 42, "velocity": 80, "note_on_time": 1.826, "note_off_time": 2.434}, {"pitch": 62, "velocity": 80, "note_on_time": 2.434, "note_off_time": 3.04}, {"pitch": 42, "velocity": 80, "note_on_time": 2.434, "note_off_time": 3.041}, {"pitch": 42, "velocity": 80, "note_on_time": 3.041, "note_off_time": 3.647}, {"pitch": 42, "velocity": 80, "note_on_time": 3.648, "note_off_time": 4.256}, {"pitch": 42, "velocity": 80, "note_on_time": 4.256, "note_off_time": 4.862}, {"pitch": 42, "velocity": 80, "note_on_time": 4.862, "note_off_time": 5.469}, {"pitch": 65, "velocity": 80, "note_on_time": 4.862, "note_off_time": 6.079}, {"pitch": 42, "velocity": 80, "note_on_time": 5.469, "note_off_time": 6.08}, {"pitch": 42, "velocity": 80, "note_on_time": 6.08, "note_off_time": 6.682}, {"pitch": 42, "velocity": 80, "note_on_time": 6.683, "note_off_time": 7.29}, {"pitch": 62, "velocity": 80, "note_on_time": 7.29, "note_off_time": 7.895}, {"pitch": 42, "velocity": 80, "note_on_time": 7.29, "note_off_time": 7.896}, {"pitch": 65, "velocity": 80, "note_on_time": 7.895, "note_off_time": 8.503}, {"pitch": 42, "velocity": 80, "note_on_time": 7.896, "note_off_time": 8.503}, {"pitch": 65, "velocity": 80, "note_on_time": 8.503, "note_off_time": 9.111}, {"pitch": 42, "velocity": 80, "note_on_time": 8.503, "note_off_time": 9.111}, {"pitch": 62, "velocity": 80, "note_on_time": 9.111, "note_off_time": 9.719}, {"pitch": 42, "velocity": 80, "note_on_time": 9.111, "note_off_time": 9.719}, {"pitch": 67, "velocity": 80, "note_on_time": 9.719, "note_off_time": 10.327}, {"pitch": 42, "velocity": 80, "note_on_time": 9.72, "note_off_time": 10.327}, {"pitch": 65, "velocity": 80, "note_on_time": 10.327, "note_off_time": 10.935}, {"pitch": 42, "velocity": 80, "note_on_time": 10.327, "note_off_time": 10.935}, {"pitch": 64, "velocity": 80, "note_on_time": 10.935, "note_off_time": 11.546}, {"pitch": 42, "velocity": 80, "note_on_time": 10.936, "note_off_time": 11.547}, {"pitch": 67, "velocity": 80, "note_on_time": 11.546, "note_off_time": 12.152}, {"pitch": 42, "velocity": 80, "note_on_time": 11.547, "note_off_time": 12.153}, {"pitch": 62, "velocity": 80, "note_on_time": 12.152, "note_off_time": 12.758}, {"pitch": 42, "velocity": 80, "note_on_time": 12.153, "note_off_time": 12.758}, {"pitch": 42, "velocity": 80, "note_on_time": 12.758, "note_off_time": 13.368}, {"pitch": 67, "velocity": 80, "note_on_time": 12.758, "note_off_time": 13.976}, {"pitch": 42, "velocity": 80, "note_on_time": 13.368, "note_off_time": 13.976}, {"pitch": 42, "velocity": 80, "note_on_time": 13.977, "note_off_time": 14.582}, {"pitch": 42, "velocity": 80, "note_on_time": 14.582, "note_off_time": 15.187}, {"pitch": 60, "velocity": 80, "note_on_time": 14.582, "note_off_time": 15.794}, {"pitch": 42, "velocity": 80, "note_on_time": 15.188, "note_off_time": 15.794}, {"pitch": 67, "velocity": 80, "note_on_time": 15.794, "note_off_time": 16.4}, {"pitch": 42, "velocity": 80, "note_on_time": 15.794, "note_off_time": 16.401}, {"pitch": 60, "velocity": 80, "note_on_time": 16.4, "note_off_time": 17.01}, {"pitch": 42, "velocity": 80, "note_on_time": 16.401, "note_off_time": 17.01}, {"pitch": 67, "velocity": 80, "note_on_time": 17.01, "note_off_time": 17.617}, {"pitch": 42, "velocity": 80, "note_on_time": 17.011, "note_off_time": 17.617}, {"pitch": 64, "velocity": 80, "note_on_time": 17.617, "note_off_time": 18.227}, {"pitch": 42, "velocity": 80, "note_on_time": 17.618, "note_off_time": 18.227}, {"pitch": 60, "velocity": 80, "note_on_time": 18.227, "note_off_time": 18.834}, {"pitch": 42, "velocity": 80, "note_on_time": 18.228, "note_off_time": 18.834}, {"pitch": 65, "velocity": 80, "note_on_time": 18.834, "note_off_time": 19.442}, {"pitch": 42, "velocity": 80, "note_on_time": 18.835, "note_off_time": 19.442}, {"pitch": 42, "velocity": 80, "note_on_time": 19.443, "note_off_time": 20.048}, {"pitch": 65, "velocity": 80, "note_on_time": 20.048, "note_off_time": 20.656}, {"pitch": 42, "velocity": 80, "note_on_time": 20.048, "note_off_time": 20.656}, {"pitch": 65, "velocity": 80, "note_on_time": 20.656, "note_off_time": 21.264}, {"pitch": 42, "velocity": 80, "note_on_time": 20.656, "note_off_time": 21.264}, {"pitch": 65, "velocity": 80, "note_on_time": 21.264, "note_off_time": 21.872}, {"pitch": 42, "velocity": 80, "note_on_time": 21.264, "note_off_time": 21.872}]</notes><options name="Option List">((4, 4), [0.5, 0.25], 3, 8, &lt;NoteRangePerHand.C_TO_G: 6&gt;, &lt;NoteRangePerHand.ONE_NOTE: 2&gt;, False, True, False, '100')</options></target_notes><trials><trial trial_no="1" timestamp="2022_11_03-13_10_57"><notes name="Played Notes">[{"pitch": 62, "velocity": 74, "note_on_time": 2.497, "note_off_time": 3.1}, {"pitch": 65, "velocity": 26, "note_on_time": 4.337, "note_off_time": 4.856}, {"pitch": 65, "velocity": 74, "note_on_time": 5.058, "note_off_time": 6.042}, {"pitch": 62, "velocity": 51, "note_on_time": 6.686, "note_off_time": 7.086}, {"pitch": 65, "velocity": 56, "note_on_time": 7.28, "note_off_time": 7.621}, {"pitch": 65, "velocity": 48, "note_on_time": 7.862, "note_off_time": 8.38}, {"pitch": 62, "velocity": 62, "note_on_time": 8.541, "note_off_time": 8.953}, {"pitch": 69, "velocity": 60, "note_on_time": 9.131, "note_off_time": 9.429}, {"pitch": 67, "velocity": 28, "note_on_time": 9.845, "note_off_time": 10.18}, {"pitch": 65, "velocity": 50, "note_on_time": 10.439, "note_off_time": 10.824}, {"pitch": 64, "velocity": 20, "note_on_time": 10.94, "note_off_time": 11.272}, {"pitch": 65, "velocity": 70, "note_on_time": 11.514, "note_off_time": 11.872}, {"pitch": 62, "velocity": 30, "note_on_time": 12.171, "note_off_time": 13.068}, {"pitch": 65, "velocity": 31, "note_on_time": 13.324, "note_off_time": 13.891}, {"pitch": 62, "velocity": 34, "note_on_time": 14.342, "note_off_time": 15.075}, {"pitch": 60, "velocity": 76, "note_on_time": 15.201, "note_off_time": 15.765}, {"pitch": 65, "velocity": 48, "note_on_time": 16.39, "note_off_time": 16.778}, {"pitch": 60, "velocity": 50, "note_on_time": 16.914, "note_off_time": 17.373}, {"pitch": 65, "velocity": 23, "note_on_time": 17.524, "note_off_time": 17.778}, {"pitch": 62, "velocity": 19, "note_on_time": 18.448, "note_off_time": 18.781}, {"pitch": 60, "velocity": 17, "note_on_time": 18.948, "note_off_time": 19.175}, {"pitch": 64, "velocity": 23, "note_on_time": 19.523, "note_off_time": 19.812}, {"pitch": 64, "velocity": 39, "note_on_time": 20.826, "note_off_time": 21.127}, {"pitch": 64, "velocity": 53, "note_on_time": 21.336, "note_off_time": 21.686}]</notes><guidance name="Guidance Mode">None</guidance><error name="Error value">1.8698421052631584</error></trial></trials></MIDI>