<MIDI midiNo="2022_12_22-12_28_03"><target_notes><notes name="Note List">[{"pitch": 42, "velocity": 80, "note_on_time": 0.003, "note_off_time": 0.256}, {"pitch": 42, "velocity": 80, "note_on_time": 0.257, "note_off_time": 0.503}, {"pitch": 42, "velocity": 80, "note_on_time": 0.504, "note_off_time": 0.752}, {"pitch": 42, "velocity": 80, "note_on_time": 0.752, "note_off_time": 0.999}, {"pitch": 67, "velocity": 80, "note_on_time": 0.999, "note_off_time": 1.247}, {"pitch": 42, "velocity": 80, "note_on_time": 0.999, "note_off_time": 1.248}, {"pitch": 67, "velocity": 80, "note_on_time": 1.247, "note_off_time": 1.495}, {"pitch": 42, "velocity": 80, "note_on_time": 1.248, "note_off_time": 1.496}, {"pitch": 42, "velocity": 80, "note_on_time": 1.496, "note_off_time": 1.744}, {"pitch": 67, "velocity": 80, "note_on_time": 1.495, "note_off_time": 1.992}, {"pitch": 42, "velocity": 80, "note_on_time": 1.744, "note_off_time": 1.993}, {"pitch": 65, "velocity": 80, "note_on_time": 1.992, "note_off_time": 2.242}, {"pitch": 42, "velocity": 80, "note_on_time": 1.993, "note_off_time": 2.242}, {"pitch": 67, "velocity": 80, "note_on_time": 2.242, "note_off_time": 2.49}, {"pitch": 42, "velocity": 80, "note_on_time": 2.243, "note_off_time": 2.49}, {"pitch": 60, "velocity": 80, "note_on_time": 2.49, "note_off_time": 2.739}, {"pitch": 42, "velocity": 80, "note_on_time": 2.49, "note_off_time": 2.739}, {"pitch": 62, "velocity": 80, "note_on_time": 2.739, "note_off_time": 2.988}, {"pitch": 42, "velocity": 80, "note_on_time": 2.74, "note_off_time": 2.989}, {"pitch": 65, "velocity": 80, "note_on_time": 2.988, "note_off_time": 3.237}, {"pitch": 42, "velocity": 80, "note_on_time": 2.989, "note_off_time": 3.237}, {"pitch": 65, "velocity": 80, "note_on_time": 3.237, "note_off_time": 3.485}, {"pitch": 42, "velocity": 80, "note_on_time": 3.237, "note_off_time": 3.486}, {"pitch": 67, "velocity": 80, "note_on_time": 3.485, "note_off_time": 3.734}, {"pitch": 42, "velocity": 80, "note_on_time": 3.486, "note_off_time": 3.734}, {"pitch": 65, "velocity": 80, "note_on_time": 3.734, "note_off_time": 3.983}, {"pitch": 42, "velocity": 80, "note_on_time": 3.735, "note_off_time": 3.983}, {"pitch": 62, "velocity": 80, "note_on_time": 3.983, "note_off_time": 4.232}, {"pitch": 42, "velocity": 80, "note_on_time": 3.984, "note_off_time": 4.232}, {"pitch": 42, "velocity": 80, "note_on_time": 4.232, "note_off_time": 4.479}, {"pitch": 65, "velocity": 80, "note_on_time": 4.232, "note_off_time": 4.728}, {"pitch": 42, "velocity": 80, "note_on_time": 4.479, "note_off_time": 4.729}, {"pitch": 42, "velocity": 80, "note_on_time": 4.729, "note_off_time": 4.977}, {"pitch": 42, "velocity": 80, "note_on_time": 4.977, "note_off_time": 5.227}, {"pitch": 65, "velocity": 80, "note_on_time": 4.977, "note_off_time": 5.477}, {"pitch": 42, "velocity": 80, "note_on_time": 5.227, "note_off_time": 5.477}, {"pitch": 67, "velocity": 80, "note_on_time": 5.477, "note_off_time": 5.727}, {"pitch": 42, "velocity": 80, "note_on_time": 5.477, "note_off_time": 5.727}, {"pitch": 60, "velocity": 80, "note_on_time": 5.727, "note_off_time": 5.976}, {"pitch": 42, "velocity": 80, "note_on_time": 5.728, "note_off_time": 5.976}, {"pitch": 62, "velocity": 80, "note_on_time": 5.976, "note_off_time": 6.226}, {"pitch": 42, "velocity": 80, "note_on_time": 5.976, "note_off_time": 6.226}, {"pitch": 42, "velocity": 80, "note_on_time": 6.226, "note_off_time": 6.475}, {"pitch": 42, "velocity": 80, "note_on_time": 6.475, "note_off_time": 6.724}, {"pitch": 42, "velocity": 80, "note_on_time": 6.725, "note_off_time": 6.971}, {"pitch": 42, "velocity": 80, "note_on_time": 6.972, "note_off_time": 7.22}, {"pitch": 62, "velocity": 80, "note_on_time": 6.971, "note_off_time": 7.469}, {"pitch": 42, "velocity": 80, "note_on_time": 7.22, "note_off_time": 7.469}, {"pitch": 42, "velocity": 80, "note_on_time": 7.469, "note_off_time": 7.718}, {"pitch": 42, "velocity": 80, "note_on_time": 7.718, "note_off_time": 7.967}, {"pitch": 42, "velocity": 80, "note_on_time": 7.967, "note_off_time": 8.215}, {"pitch": 62, "velocity": 80, "note_on_time": 8.215, "note_off_time": 8.463}, {"pitch": 42, "velocity": 80, "note_on_time": 8.215, "note_off_time": 8.464}, {"pitch": 62, "velocity": 80, "note_on_time": 8.463, "note_off_time": 8.712}, {"pitch": 42, "velocity": 80, "note_on_time": 8.464, "note_off_time": 8.713}, {"pitch": 62, "velocity": 80, "note_on_time": 8.712, "note_off_time": 8.961}, {"pitch": 42, "velocity": 80, "note_on_time": 8.713, "note_off_time": 8.961}]</notes><options name="Option List">((4, 4), [0.5, 0.25], 3, 8, &lt;NoteRangePerHand.C_TO_G: 6&gt;, &lt;NoteRangePerHand.ONE_NOTE: 2&gt;, False, True, False, 248)</options></target_notes><trials><trial trial_no="1" timestamp="2022_12_22-12_27_52"><notes name="Played Notes">[{"pitch": 67, "velocity": 74, "note_on_time": 1.01, "note_off_time": 1.122}, {"pitch": 67, "velocity": 62, "note_on_time": 1.268, "note_off_time": 1.379}, {"pitch": 67, "velocity": 72, "note_on_time": 1.503, "note_off_time": 1.902}, {"pitch": 65, "velocity": 77, "note_on_time": 1.987, "note_off_time": 2.244}, {"pitch": 67, "velocity": 70, "note_on_time": 2.234, "note_off_time": 2.459}, {"pitch": 60, "velocity": 74, "note_on_time": 2.471, "note_off_time": 2.725}, {"pitch": 62, "velocity": 57, "note_on_time": 2.737, "note_off_time": 2.969}, {"pitch": 65, "velocity": 75, "note_on_time": 2.968, "note_off_time": 3.082}, {"pitch": 65, "velocity": 59, "note_on_time": 3.192, "note_off_time": 3.469}, {"pitch": 67, "velocity": 73, "note_on_time": 3.473, "note_off_time": 3.746}, {"pitch": 65, "velocity": 82, "note_on_time": 3.709, "note_off_time": 3.97}, {"pitch": 62, "velocity": 64, "note_on_time": 3.983, "note_off_time": 4.203}, {"pitch": 65, "velocity": 72, "note_on_time": 4.216, "note_off_time": 4.696}, {"pitch": 65, "velocity": 88, "note_on_time": 4.997, "note_off_time": 5.458}, {"pitch": 67, "velocity": 76, "note_on_time": 5.469, "note_off_time": 5.729}, {"pitch": 60, "velocity": 68, "note_on_time": 5.755, "note_off_time": 5.971}, {"pitch": 62, "velocity": 67, "note_on_time": 5.972, "note_off_time": 6.204}, {"pitch": 62, "velocity": 74, "note_on_time": 6.448, "note_off_time": 6.84}, {"pitch": 62, "velocity": 71, "note_on_time": 8.178, "note_off_time": 8.299}, {"pitch": 62, "velocity": 64, "note_on_time": 8.445, "note_off_time": 8.546}, {"pitch": 62, "velocity": 68, "note_on_time": 8.677, "note_off_time": 8.837}]</notes><guidance name="Guidance Mode">None</guidance><error name="Error value">0.07528861111111107</error></trial></trials></MIDI>