<MIDI midiNo="2022_11_14-19_02_34"><target_notes><notes name="Note List">[{"pitch": 42, "velocity": 80, "note_on_time": 0.004, "note_off_time": 0.23}, {"pitch": 42, "velocity": 80, "note_on_time": 0.23, "note_off_time": 0.449}, {"pitch": 42, "velocity": 80, "note_on_time": 0.449, "note_off_time": 0.666}, {"pitch": 42, "velocity": 80, "note_on_time": 0.666, "note_off_time": 0.883}, {"pitch": 65, "velocity": 80, "note_on_time": 0.883, "note_off_time": 1.1}, {"pitch": 42, "velocity": 80, "note_on_time": 0.883, "note_off_time": 1.1}, {"pitch": 64, "velocity": 80, "note_on_time": 1.1, "note_off_time": 1.32}, {"pitch": 42, "velocity": 80, "note_on_time": 1.1, "note_off_time": 1.32}, {"pitch": 64, "velocity": 80, "note_on_time": 1.32, "note_off_time": 1.539}, {"pitch": 42, "velocity": 80, "note_on_time": 1.32, "note_off_time": 1.539}, {"pitch": 65, "velocity": 80, "note_on_time": 1.539, "note_off_time": 1.758}, {"pitch": 42, "velocity": 80, "note_on_time": 1.539, "note_off_time": 1.758}, {"pitch": 65, "velocity": 80, "note_on_time": 1.758, "note_off_time": 1.976}, {"pitch": 42, "velocity": 80, "note_on_time": 1.758, "note_off_time": 1.976}, {"pitch": 64, "velocity": 80, "note_on_time": 1.976, "note_off_time": 2.192}, {"pitch": 42, "velocity": 80, "note_on_time": 1.976, "note_off_time": 2.192}, {"pitch": 64, "velocity": 80, "note_on_time": 2.192, "note_off_time": 2.409}, {"pitch": 42, "velocity": 80, "note_on_time": 2.192, "note_off_time": 2.409}, {"pitch": 62, "velocity": 80, "note_on_time": 2.409, "note_off_time": 2.627}, {"pitch": 42, "velocity": 80, "note_on_time": 2.409, "note_off_time": 2.627}, {"pitch": 42, "velocity": 80, "note_on_time": 2.627, "note_off_time": 2.844}, {"pitch": 64, "velocity": 80, "note_on_time": 2.627, "note_off_time": 3.062}, {"pitch": 42, "velocity": 80, "note_on_time": 2.844, "note_off_time": 3.063}, {"pitch": 42, "velocity": 80, "note_on_time": 3.063, "note_off_time": 3.282}, {"pitch": 42, "velocity": 80, "note_on_time": 3.282, "note_off_time": 3.5}, {"pitch": 60, "velocity": 80, "note_on_time": 3.5, "note_off_time": 3.719}, {"pitch": 42, "velocity": 80, "note_on_time": 3.5, "note_off_time": 3.719}, {"pitch": 65, "velocity": 80, "note_on_time": 3.719, "note_off_time": 3.937}, {"pitch": 42, "velocity": 80, "note_on_time": 3.719, "note_off_time": 3.937}, {"pitch": 60, "velocity": 80, "note_on_time": 3.937, "note_off_time": 4.154}, {"pitch": 42, "velocity": 80, "note_on_time": 3.937, "note_off_time": 4.154}, {"pitch": 62, "velocity": 80, "note_on_time": 4.154, "note_off_time": 4.372}, {"pitch": 42, "velocity": 80, "note_on_time": 4.154, "note_off_time": 4.372}, {"pitch": 60, "velocity": 80, "note_on_time": 4.372, "note_off_time": 4.592}, {"pitch": 42, "velocity": 80, "note_on_time": 4.372, "note_off_time": 4.592}, {"pitch": 65, "velocity": 80, "note_on_time": 4.592, "note_off_time": 4.811}, {"pitch": 42, "velocity": 80, "note_on_time": 4.592, "note_off_time": 4.811}, {"pitch": 60, "velocity": 80, "note_on_time": 4.811, "note_off_time": 5.028}, {"pitch": 42, "velocity": 80, "note_on_time": 4.811, "note_off_time": 5.028}, {"pitch": 64, "velocity": 80, "note_on_time": 5.028, "note_off_time": 5.246}, {"pitch": 42, "velocity": 80, "note_on_time": 5.028, "note_off_time": 5.246}, {"pitch": 64, "velocity": 80, "note_on_time": 5.246, "note_off_time": 5.463}, {"pitch": 42, "velocity": 80, "note_on_time": 5.246, "note_off_time": 5.463}, {"pitch": 64, "velocity": 80, "note_on_time": 5.463, "note_off_time": 5.68}, {"pitch": 42, "velocity": 80, "note_on_time": 5.463, "note_off_time": 5.68}, {"pitch": 62, "velocity": 80, "note_on_time": 5.68, "note_off_time": 5.896}, {"pitch": 42, "velocity": 80, "note_on_time": 5.681, "note_off_time": 5.896}, {"pitch": 62, "velocity": 80, "note_on_time": 5.896, "note_off_time": 6.114}, {"pitch": 42, "velocity": 80, "note_on_time": 5.896, "note_off_time": 6.114}, {"pitch": 60, "velocity": 80, "note_on_time": 6.114, "note_off_time": 6.33}, {"pitch": 42, "velocity": 80, "note_on_time": 6.114, "note_off_time": 6.33}, {"pitch": 64, "velocity": 80, "note_on_time": 6.33, "note_off_time": 6.548}, {"pitch": 42, "velocity": 80, "note_on_time": 6.33, "note_off_time": 6.548}, {"pitch": 60, "velocity": 80, "note_on_time": 6.548, "note_off_time": 6.765}, {"pitch": 42, "velocity": 80, "note_on_time": 6.548, "note_off_time": 6.765}, {"pitch": 65, "velocity": 80, "note_on_time": 6.765, "note_off_time": 6.983}, {"pitch": 42, "velocity": 80, "note_on_time": 6.765, "note_off_time": 6.983}, {"pitch": 42, "velocity": 80, "note_on_time": 6.983, "note_off_time": 7.202}, {"pitch": 65, "velocity": 80, "note_on_time": 7.202, "note_off_time": 7.419}, {"pitch": 42, "velocity": 80, "note_on_time": 7.202, "note_off_time": 7.419}, {"pitch": 65, "velocity": 80, "note_on_time": 7.419, "note_off_time": 7.636}, {"pitch": 42, "velocity": 80, "note_on_time": 7.419, "note_off_time": 7.636}, {"pitch": 65, "velocity": 80, "note_on_time": 7.636, "note_off_time": 7.854}, {"pitch": 42, "velocity": 80, "note_on_time": 7.636, "note_off_time": 7.854}]</notes><options name="Option List">((4, 4), [0.5, 0.25], 3, 8, &lt;NoteRangePerHand.FOUR_NOTES: 5&gt;, &lt;NoteRangePerHand.ONE_NOTE: 2&gt;, False, True, False, 281)</options></target_notes><trials><trial trial_no="1" timestamp="2022_11_14-19_02_24"><notes name="Played Notes">[{"pitch": 65, "velocity": 69, "note_on_time": 0.912, "note_off_time": 1.171}, {"pitch": 64, "velocity": 76, "note_on_time": 1.146, "note_off_time": 1.239}, {"pitch": 64, "velocity": 84, "note_on_time": 1.4, "note_off_time": 1.657}, {"pitch": 65, "velocity": 75, "note_on_time": 1.644, "note_off_time": 1.768}, {"pitch": 65, "velocity": 77, "note_on_time": 1.909, "note_off_time": 2.2}, {"pitch": 64, "velocity": 77, "note_on_time": 2.158, "note_off_time": 2.254}, {"pitch": 64, "velocity": 81, "note_on_time": 2.42, "note_off_time": 2.673}, {"pitch": 62, "velocity": 77, "note_on_time": 2.666, "note_off_time": 2.824}, {"pitch": 64, "velocity": 72, "note_on_time": 2.937, "note_off_time": 3.36}, {"pitch": 60, "velocity": 84, "note_on_time": 3.888, "note_off_time": 4.153}, {"pitch": 65, "velocity": 77, "note_on_time": 4.141, "note_off_time": 4.379}, {"pitch": 60, "velocity": 81, "note_on_time": 4.387, "note_off_time": 4.608}, {"pitch": 62, "velocity": 74, "note_on_time": 4.619, "note_off_time": 4.844}, {"pitch": 60, "velocity": 82, "note_on_time": 4.855, "note_off_time": 5.075}, {"pitch": 65, "velocity": 71, "note_on_time": 5.096, "note_off_time": 5.314}, {"pitch": 60, "velocity": 75, "note_on_time": 5.324, "note_off_time": 5.56}, {"pitch": 64, "velocity": 80, "note_on_time": 5.557, "note_off_time": 5.659}, {"pitch": 64, "velocity": 83, "note_on_time": 5.813, "note_off_time": 5.931}, {"pitch": 64, "velocity": 85, "note_on_time": 6.073, "note_off_time": 6.321}, {"pitch": 62, "velocity": 79, "note_on_time": 6.316, "note_off_time": 6.472}, {"pitch": 62, "velocity": 70, "note_on_time": 6.578, "note_off_time": 6.825}, {"pitch": 60, "velocity": 82, "note_on_time": 6.829, "note_off_time": 7.053}, {"pitch": 64, "velocity": 72, "note_on_time": 7.062, "note_off_time": 7.261}, {"pitch": 60, "velocity": 76, "note_on_time": 7.278, "note_off_time": 7.476}, {"pitch": 65, "velocity": 61, "note_on_time": 7.525, "note_off_time": 7.686}]</notes><guidance name="Guidance Mode">None</guidance><error name="Error value">0.34426344000000003</error></trial><trial trial_no="2" timestamp="2022_11_14-19_02_44"><notes name="Played Notes">[{"pitch": 65, "velocity": 85, "note_on_time": 0.917, "note_off_time": 1.21}, {"pitch": 64, "velocity": 79, "note_on_time": 1.172, "note_off_time": 1.264}, {"pitch": 64, "velocity": 92, "note_on_time": 1.432, "note_off_time": 1.728}, {"pitch": 65, "velocity": 75, "note_on_time": 1.731, "note_off_time": 2.025}, {"pitch": 65, "velocity": 90, "note_on_time": 2.106, "note_off_time": 2.321}, {"pitch": 64, "velocity": 84, "note_on_time": 2.341, "note_off_time": 2.452}, {"pitch": 64, "velocity": 82, "note_on_time": 2.609, "note_off_time": 2.902}, {"pitch": 62, "velocity": 83, "note_on_time": 2.88, "note_off_time": 3.179}, {"pitch": 64, "velocity": 90, "note_on_time": 3.142, "note_off_time": 3.548}, {"pitch": 60, "velocity": 88, "note_on_time": 3.769, "note_off_time": 4.038}, {"pitch": 65, "velocity": 84, "note_on_time": 4.03, "note_off_time": 4.301}, {"pitch": 60, "velocity": 84, "note_on_time": 4.298, "note_off_time": 4.521}, {"pitch": 62, "velocity": 79, "note_on_time": 4.541, "note_off_time": 4.803}, {"pitch": 60, "velocity": 84, "note_on_time": 4.797, "note_off_time": 5.037}, {"pitch": 65, "velocity": 78, "note_on_time": 5.05, "note_off_time": 5.301}, {"pitch": 60, "velocity": 78, "note_on_time": 5.287, "note_off_time": 5.535}, {"pitch": 64, "velocity": 73, "note_on_time": 5.537, "note_off_time": 5.633}, {"pitch": 64, "velocity": 84, "note_on_time": 5.802, "note_off_time": 5.906}, {"pitch": 64, "velocity": 87, "note_on_time": 6.061, "note_off_time": 6.334}, {"pitch": 62, "velocity": 79, "note_on_time": 6.306, "note_off_time": 6.442}, {"pitch": 62, "velocity": 62, "note_on_time": 6.551, "note_off_time": 6.815}, {"pitch": 60, "velocity": 82, "note_on_time": 6.814, "note_off_time": 7.052}, {"pitch": 64, "velocity": 73, "note_on_time": 7.054, "note_off_time": 7.28}, {"pitch": 60, "velocity": 79, "note_on_time": 7.297, "note_off_time": 7.539}, {"pitch": 65, "velocity": 78, "note_on_time": 7.549, "note_off_time": 7.736}]</notes><guidance name="Guidance Mode">None</guidance><error name="Error value">0.3539680399999999</error></trial><trial trial_no="3" timestamp="2022_11_14-19_03_05"><notes name="Played Notes">[{"pitch": 65, "velocity": 79, "note_on_time": 0.912, "note_off_time": 1.208}, {"pitch": 64, "velocity": 79, "note_on_time": 1.151, "note_off_time": 1.248}, {"pitch": 64, "velocity": 99, "note_on_time": 1.402, "note_off_time": 1.716}, {"pitch": 65, "velocity": 82, "note_on_time": 1.675, "note_off_time": 1.798}, {"pitch": 65, "velocity": 89, "note_on_time": 1.933, "note_off_time": 2.186}, {"pitch": 64, "velocity": 83, "note_on_time": 2.174, "note_off_time": 2.286}, {"pitch": 64, "velocity": 92, "note_on_time": 2.434, "note_off_time": 2.72}, {"pitch": 62, "velocity": 78, "note_on_time": 2.691, "note_off_time": 2.983}, {"pitch": 64, "velocity": 84, "note_on_time": 2.968, "note_off_time": 3.54}, {"pitch": 60, "velocity": 90, "note_on_time": 3.975, "note_off_time": 4.238}, {"pitch": 65, "velocity": 84, "note_on_time": 4.225, "note_off_time": 4.46}, {"pitch": 60, "velocity": 86, "note_on_time": 4.463, "note_off_time": 4.669}, {"pitch": 62, "velocity": 80, "note_on_time": 4.7, "note_off_time": 4.954}, {"pitch": 60, "velocity": 84, "note_on_time": 4.946, "note_off_time": 5.183}, {"pitch": 65, "velocity": 78, "note_on_time": 5.193, "note_off_time": 5.434}, {"pitch": 60, "velocity": 79, "note_on_time": 5.433, "note_off_time": 5.682}, {"pitch": 64, "velocity": 78, "note_on_time": 5.69, "note_off_time": 5.841}, {"pitch": 64, "velocity": 88, "note_on_time": 5.962, "note_off_time": 6.076}, {"pitch": 64, "velocity": 84, "note_on_time": 6.239, "note_off_time": 6.523}, {"pitch": 62, "velocity": 72, "note_on_time": 6.527, "note_off_time": 6.764}, {"pitch": 62, "velocity": 78, "note_on_time": 6.852, "note_off_time": 7.12}, {"pitch": 60, "velocity": 84, "note_on_time": 7.108, "note_off_time": 7.351}, {"pitch": 64, "velocity": 72, "note_on_time": 7.36, "note_off_time": 7.573}, {"pitch": 60, "velocity": 76, "note_on_time": 7.591, "note_off_time": 7.811}]</notes><guidance name="Guidance Mode">None</guidance><error name="Error value">0.35028251999999993</error></trial></trials></MIDI>