<MIDI midiNo="2022_11_03-12_09_35"><target_notes><notes name="Note List">[{"pitch": 42, "velocity": 80, "note_on_time": 0.004, "note_off_time": 0.224}, {"pitch": 42, "velocity": 80, "note_on_time": 0.225, "note_off_time": 0.441}, {"pitch": 42, "velocity": 80, "note_on_time": 0.441, "note_off_time": 0.659}, {"pitch": 42, "velocity": 80, "note_on_time": 0.659, "note_off_time": 0.876}, {"pitch": 64, "velocity": 80, "note_on_time": 0.876, "note_off_time": 1.094}, {"pitch": 42, "velocity": 80, "note_on_time": 0.876, "note_off_time": 1.094}, {"pitch": 65, "velocity": 80, "note_on_time": 1.094, "note_off_time": 1.312}, {"pitch": 42, "velocity": 80, "note_on_time": 1.094, "note_off_time": 1.312}, {"pitch": 62, "velocity": 80, "note_on_time": 1.312, "note_off_time": 1.53}, {"pitch": 42, "velocity": 80, "note_on_time": 1.312, "note_off_time": 1.53}, {"pitch": 64, "velocity": 80, "note_on_time": 1.53, "note_off_time": 1.747}, {"pitch": 42, "velocity": 80, "note_on_time": 1.53, "note_off_time": 1.747}, {"pitch": 64, "velocity": 80, "note_on_time": 1.747, "note_off_time": 1.965}, {"pitch": 42, "velocity": 80, "note_on_time": 1.747, "note_off_time": 1.965}, {"pitch": 64, "velocity": 80, "note_on_time": 1.965, "note_off_time": 2.183}, {"pitch": 42, "velocity": 80, "note_on_time": 1.965, "note_off_time": 2.183}, {"pitch": 65, "velocity": 80, "note_on_time": 2.183, "note_off_time": 2.399}, {"pitch": 42, "velocity": 80, "note_on_time": 2.183, "note_off_time": 2.399}, {"pitch": 60, "velocity": 80, "note_on_time": 2.399, "note_off_time": 2.617}, {"pitch": 42, "velocity": 80, "note_on_time": 2.399, "note_off_time": 2.617}, {"pitch": 67, "velocity": 80, "note_on_time": 2.617, "note_off_time": 2.834}, {"pitch": 42, "velocity": 80, "note_on_time": 2.617, "note_off_time": 2.835}, {"pitch": 67, "velocity": 80, "note_on_time": 2.834, "note_off_time": 3.05}, {"pitch": 42, "velocity": 80, "note_on_time": 2.835, "note_off_time": 3.05}, {"pitch": 60, "velocity": 80, "note_on_time": 3.05, "note_off_time": 3.267}, {"pitch": 42, "velocity": 80, "note_on_time": 3.05, "note_off_time": 3.267}, {"pitch": 62, "velocity": 80, "note_on_time": 3.267, "note_off_time": 3.487}, {"pitch": 42, "velocity": 80, "note_on_time": 3.267, "note_off_time": 3.487}, {"pitch": 42, "velocity": 80, "note_on_time": 3.487, "note_off_time": 3.707}, {"pitch": 64, "velocity": 80, "note_on_time": 3.487, "note_off_time": 3.924}, {"pitch": 42, "velocity": 80, "note_on_time": 3.707, "note_off_time": 3.924}, {"pitch": 42, "velocity": 80, "note_on_time": 3.924, "note_off_time": 4.142}, {"pitch": 42, "velocity": 80, "note_on_time": 4.142, "note_off_time": 4.359}, {"pitch": 64, "velocity": 80, "note_on_time": 4.359, "note_off_time": 4.576}, {"pitch": 42, "velocity": 80, "note_on_time": 4.359, "note_off_time": 4.576}, {"pitch": 60, "velocity": 80, "note_on_time": 4.576, "note_off_time": 4.796}, {"pitch": 42, "velocity": 80, "note_on_time": 4.576, "note_off_time": 4.796}, {"pitch": 64, "velocity": 80, "note_on_time": 4.796, "note_off_time": 5.013}, {"pitch": 42, "velocity": 80, "note_on_time": 4.796, "note_off_time": 5.013}, {"pitch": 65, "velocity": 80, "note_on_time": 5.013, "note_off_time": 5.231}, {"pitch": 42, "velocity": 80, "note_on_time": 5.013, "note_off_time": 5.231}, {"pitch": 62, "velocity": 80, "note_on_time": 5.231, "note_off_time": 5.452}, {"pitch": 42, "velocity": 80, "note_on_time": 5.231, "note_off_time": 5.452}, {"pitch": 42, "velocity": 80, "note_on_time": 5.452, "note_off_time": 5.668}, {"pitch": 65, "velocity": 80, "note_on_time": 5.452, "note_off_time": 5.886}, {"pitch": 42, "velocity": 80, "note_on_time": 5.668, "note_off_time": 5.886}, {"pitch": 64, "velocity": 80, "note_on_time": 5.886, "note_off_time": 6.103}, {"pitch": 42, "velocity": 80, "note_on_time": 5.886, "note_off_time": 6.104}, {"pitch": 65, "velocity": 80, "note_on_time": 6.103, "note_off_time": 6.322}, {"pitch": 42, "velocity": 80, "note_on_time": 6.104, "note_off_time": 6.322}, {"pitch": 64, "velocity": 80, "note_on_time": 6.322, "note_off_time": 6.54}, {"pitch": 42, "velocity": 80, "note_on_time": 6.322, "note_off_time": 6.54}, {"pitch": 65, "velocity": 80, "note_on_time": 6.54, "note_off_time": 6.759}, {"pitch": 42, "velocity": 80, "note_on_time": 6.54, "note_off_time": 6.759}, {"pitch": 67, "velocity": 80, "note_on_time": 6.759, "note_off_time": 6.976}, {"pitch": 42, "velocity": 80, "note_on_time": 6.759, "note_off_time": 6.976}, {"pitch": 42, "velocity": 80, "note_on_time": 6.977, "note_off_time": 7.192}, {"pitch": 67, "velocity": 80, "note_on_time": 7.192, "note_off_time": 7.41}, {"pitch": 42, "velocity": 80, "note_on_time": 7.192, "note_off_time": 7.41}, {"pitch": 67, "velocity": 80, "note_on_time": 7.41, "note_off_time": 7.627}, {"pitch": 42, "velocity": 80, "note_on_time": 7.41, "note_off_time": 7.627}, {"pitch": 67, "velocity": 80, "note_on_time": 7.627, "note_off_time": 7.845}, {"pitch": 42, "velocity": 80, "note_on_time": 7.627, "note_off_time": 7.845}]</notes><options name="Option List">((4, 4), [0.5, 0.25], 3, 8, &lt;NoteRangePerHand.C_TO_G: 6&gt;, &lt;NoteRangePerHand.ONE_NOTE: 2&gt;, False, True, False, '281')</options></target_notes><trials><trial trial_no="1" timestamp="2022_11_03-12_09_26"><notes name="Played Notes">[{"pitch": 64, "velocity": 69, "note_on_time": 0.859, "note_off_time": 1.051}, {"pitch": 65, "velocity": 59, "note_on_time": 1.086, "note_off_time": 1.234}, {"pitch": 62, "velocity": 52, "note_on_time": 1.285, "note_off_time": 1.476}, {"pitch": 60, "velocity": 58, "note_on_time": 1.489, "note_off_time": 1.654}, {"pitch": 64, "velocity": 46, "note_on_time": 1.713, "note_off_time": 1.797}, {"pitch": 64, "velocity": 60, "note_on_time": 1.941, "note_off_time": 2.23}, {"pitch": 65, "velocity": 60, "note_on_time": 2.171, "note_off_time": 2.367}, {"pitch": 60, "velocity": 55, "note_on_time": 2.36, "note_off_time": 2.595}, {"pitch": 67, "velocity": 59, "note_on_time": 2.589, "note_off_time": 2.702}, {"pitch": 67, "velocity": 56, "note_on_time": 2.811, "note_off_time": 3.028}, {"pitch": 60, "velocity": 59, "note_on_time": 3.025, "note_off_time": 3.231}, {"pitch": 62, "velocity": 60, "note_on_time": 3.237, "note_off_time": 3.457}, {"pitch": 64, "velocity": 64, "note_on_time": 3.469, "note_off_time": 4.126}, {"pitch": 64, "velocity": 74, "note_on_time": 4.331, "note_off_time": 4.532}, {"pitch": 60, "velocity": 47, "note_on_time": 4.575, "note_off_time": 4.785}, {"pitch": 64, "velocity": 60, "note_on_time": 4.779, "note_off_time": 5.062}, {"pitch": 65, "velocity": 57, "note_on_time": 4.999, "note_off_time": 5.191}, {"pitch": 62, "velocity": 56, "note_on_time": 5.227, "note_off_time": 5.457}, {"pitch": 65, "velocity": 56, "note_on_time": 5.447, "note_off_time": 5.86}, {"pitch": 64, "velocity": 53, "note_on_time": 5.869, "note_off_time": 6.129}, {"pitch": 65, "velocity": 57, "note_on_time": 6.114, "note_off_time": 6.326}, {"pitch": 64, "velocity": 62, "note_on_time": 6.325, "note_off_time": 6.62}, {"pitch": 65, "velocity": 64, "note_on_time": 6.55, "note_off_time": 6.75}, {"pitch": 67, "velocity": 62, "note_on_time": 6.749, "note_off_time": 6.924}, {"pitch": 67, "velocity": 79, "note_on_time": 7.171, "note_off_time": 7.266}, {"pitch": 67, "velocity": 65, "note_on_time": 7.39, "note_off_time": 7.498}, {"pitch": 67, "velocity": 74, "note_on_time": 7.6, "note_off_time": 7.739}]</notes><guidance name="Guidance Mode">None</guidance><error name="Error value">0.054264124999999934</error></trial></trials></MIDI>