<MIDI midiNo="2022_11_23-16_30_00"><target_notes><notes name="Note List">[{"pitch": 42, "velocity": 80, "note_on_time": 0.004, "note_off_time": 0.759}, {"pitch": 42, "velocity": 80, "note_on_time": 0.759, "note_off_time": 1.52}, {"pitch": 42, "velocity": 80, "note_on_time": 1.521, "note_off_time": 2.281}, {"pitch": 42, "velocity": 80, "note_on_time": 2.281, "note_off_time": 3.043}, {"pitch": 60, "velocity": 80, "note_on_time": 3.043, "note_off_time": 3.803}, {"pitch": 42, "velocity": 80, "note_on_time": 3.044, "note_off_time": 3.804}, {"pitch": 42, "velocity": 80, "note_on_time": 3.804, "note_off_time": 4.567}, {"pitch": 62, "velocity": 80, "note_on_time": 4.567, "note_off_time": 5.318}, {"pitch": 42, "velocity": 80, "note_on_time": 4.568, "note_off_time": 5.318}, {"pitch": 62, "velocity": 80, "note_on_time": 5.318, "note_off_time": 6.081}, {"pitch": 42, "velocity": 80, "note_on_time": 5.318, "note_off_time": 6.081}, {"pitch": 62, "velocity": 80, "note_on_time": 6.081, "note_off_time": 6.846}, {"pitch": 42, "velocity": 80, "note_on_time": 6.081, "note_off_time": 6.846}, {"pitch": 62, "velocity": 80, "note_on_time": 6.846, "note_off_time": 7.606}, {"pitch": 42, "velocity": 80, "note_on_time": 6.846, "note_off_time": 7.606}, {"pitch": 60, "velocity": 80, "note_on_time": 7.606, "note_off_time": 8.367}, {"pitch": 42, "velocity": 80, "note_on_time": 7.607, "note_off_time": 8.367}, {"pitch": 62, "velocity": 80, "note_on_time": 8.367, "note_off_time": 9.129}, {"pitch": 42, "velocity": 80, "note_on_time": 8.367, "note_off_time": 9.13}, {"pitch": 62, "velocity": 80, "note_on_time": 9.129, "note_off_time": 9.892}, {"pitch": 42, "velocity": 80, "note_on_time": 9.13, "note_off_time": 9.892}, {"pitch": 60, "velocity": 80, "note_on_time": 9.892, "note_off_time": 10.655}, {"pitch": 42, "velocity": 80, "note_on_time": 9.892, "note_off_time": 10.655}, {"pitch": 42, "velocity": 80, "note_on_time": 10.655, "note_off_time": 11.419}, {"pitch": 42, "velocity": 80, "note_on_time": 11.42, "note_off_time": 12.185}, {"pitch": 62, "velocity": 80, "note_on_time": 12.185, "note_off_time": 12.945}, {"pitch": 42, "velocity": 80, "note_on_time": 12.185, "note_off_time": 12.945}, {"pitch": 60, "velocity": 80, "note_on_time": 12.945, "note_off_time": 13.709}, {"pitch": 42, "velocity": 80, "note_on_time": 12.945, "note_off_time": 13.709}, {"pitch": 62, "velocity": 80, "note_on_time": 13.709, "note_off_time": 14.471}, {"pitch": 42, "velocity": 80, "note_on_time": 13.709, "note_off_time": 14.471}, {"pitch": 62, "velocity": 80, "note_on_time": 14.471, "note_off_time": 15.233}, {"pitch": 42, "velocity": 80, "note_on_time": 14.471, "note_off_time": 15.233}, {"pitch": 60, "velocity": 80, "note_on_time": 15.233, "note_off_time": 15.994}, {"pitch": 42, "velocity": 80, "note_on_time": 15.233, "note_off_time": 15.995}, {"pitch": 62, "velocity": 80, "note_on_time": 15.994, "note_off_time": 16.757}, {"pitch": 42, "velocity": 80, "note_on_time": 15.995, "note_off_time": 16.757}, {"pitch": 60, "velocity": 80, "note_on_time": 16.757, "note_off_time": 17.519}, {"pitch": 42, "velocity": 80, "note_on_time": 16.757, "note_off_time": 17.52}, {"pitch": 62, "velocity": 80, "note_on_time": 17.519, "note_off_time": 18.278}, {"pitch": 42, "velocity": 80, "note_on_time": 17.52, "note_off_time": 18.279}, {"pitch": 60, "velocity": 80, "note_on_time": 18.278, "note_off_time": 19.039}, {"pitch": 42, "velocity": 80, "note_on_time": 18.279, "note_off_time": 19.039}, {"pitch": 62, "velocity": 80, "note_on_time": 19.039, "note_off_time": 19.803}, {"pitch": 42, "velocity": 80, "note_on_time": 19.04, "note_off_time": 19.803}, {"pitch": 60, "velocity": 80, "note_on_time": 19.803, "note_off_time": 20.562}, {"pitch": 42, "velocity": 80, "note_on_time": 19.803, "note_off_time": 20.562}, {"pitch": 60, "velocity": 80, "note_on_time": 20.562, "note_off_time": 21.323}, {"pitch": 42, "velocity": 80, "note_on_time": 20.563, "note_off_time": 21.323}, {"pitch": 62, "velocity": 80, "note_on_time": 21.323, "note_off_time": 22.083}, {"pitch": 42, "velocity": 80, "note_on_time": 21.323, "note_off_time": 22.083}, {"pitch": 62, "velocity": 80, "note_on_time": 22.083, "note_off_time": 22.847}, {"pitch": 42, "velocity": 80, "note_on_time": 22.084, "note_off_time": 22.848}, {"pitch": 60, "velocity": 80, "note_on_time": 22.847, "note_off_time": 23.609}, {"pitch": 42, "velocity": 80, "note_on_time": 22.848, "note_off_time": 23.61}, {"pitch": 60, "velocity": 80, "note_on_time": 23.609, "note_off_time": 24.372}, {"pitch": 42, "velocity": 80, "note_on_time": 23.61, "note_off_time": 24.372}, {"pitch": 42, "velocity": 80, "note_on_time": 24.373, "note_off_time": 25.134}, {"pitch": 60, "velocity": 80, "note_on_time": 25.134, "note_off_time": 25.896}, {"pitch": 42, "velocity": 80, "note_on_time": 25.134, "note_off_time": 25.897}, {"pitch": 60, "velocity": 80, "note_on_time": 25.896, "note_off_time": 26.657}, {"pitch": 42, "velocity": 80, "note_on_time": 25.897, "note_off_time": 26.657}, {"pitch": 60, "velocity": 80, "note_on_time": 26.657, "note_off_time": 27.421}, {"pitch": 42, "velocity": 80, "note_on_time": 26.658, "note_off_time": 27.421}]</notes><options name="Option List">((4, 4), [0.25], 3, 8, &lt;NoteRangePerHand.TWO_NOTES: 3&gt;, &lt;NoteRangePerHand.ONE_NOTE: 2&gt;, False, True, True, '80')</options></target_notes><trials><trial trial_no="1" timestamp="2022_11_23-16_29_30"><notes name="Played Notes">[{"pitch": 60, "velocity": 47, "note_on_time": 3.109, "note_off_time": 3.664}, {"pitch": 62, "velocity": 54, "note_on_time": 4.619, "note_off_time": 5.067}, {"pitch": 62, "velocity": 58, "note_on_time": 5.353, "note_off_time": 5.8}, {"pitch": 62, "velocity": 53, "note_on_time": 6.158, "note_off_time": 6.53}, {"pitch": 62, "velocity": 57, "note_on_time": 6.902, "note_off_time": 7.246}, {"pitch": 60, "velocity": 61, "note_on_time": 7.615, "note_off_time": 8.105}, {"pitch": 62, "velocity": 49, "note_on_time": 8.289, "note_off_time": 8.793}, {"pitch": 62, "velocity": 61, "note_on_time": 9.086, "note_off_time": 9.517}, {"pitch": 60, "velocity": 62, "note_on_time": 9.878, "note_off_time": 10.312}, {"pitch": 62, "velocity": 64, "note_on_time": 11.386, "note_off_time": 11.861}, {"pitch": 60, "velocity": 52, "note_on_time": 12.165, "note_off_time": 12.579}, {"pitch": 62, "velocity": 56, "note_on_time": 12.913, "note_off_time": 13.307}, {"pitch": 62, "velocity": 58, "note_on_time": 13.658, "note_off_time": 14.048}, {"pitch": 60, "velocity": 58, "note_on_time": 14.445, "note_off_time": 14.755}, {"pitch": 62, "velocity": 54, "note_on_time": 15.198, "note_off_time": 15.504}, {"pitch": 60, "velocity": 52, "note_on_time": 15.955, "note_off_time": 16.356}, {"pitch": 62, "velocity": 58, "note_on_time": 16.724, "note_off_time": 17.127}, {"pitch": 60, "velocity": 54, "note_on_time": 17.518, "note_off_time": 17.946}, {"pitch": 62, "velocity": 52, "note_on_time": 18.25, "note_off_time": 18.624}, {"pitch": 60, "velocity": 60, "note_on_time": 19.0, "note_off_time": 19.404}, {"pitch": 60, "velocity": 54, "note_on_time": 19.815, "note_off_time": 20.145}, {"pitch": 62, "velocity": 54, "note_on_time": 20.587, "note_off_time": 20.932}, {"pitch": 62, "velocity": 50, "note_on_time": 21.307, "note_off_time": 21.627}, {"pitch": 60, "velocity": 59, "note_on_time": 22.075, "note_off_time": 22.49}, {"pitch": 60, "velocity": 60, "note_on_time": 22.875, "note_off_time": 23.164}, {"pitch": 60, "velocity": 62, "note_on_time": 24.312, "note_off_time": 24.658}, {"pitch": 60, "velocity": 56, "note_on_time": 25.082, "note_off_time": 25.442}, {"pitch": 60, "velocity": 68, "note_on_time": 25.838, "note_off_time": 26.225}]</notes><guidance name="Guidance Mode">None</guidance><error name="Error value">0.05876000000000019</error></trial></trials></MIDI>