<MIDI midiNo="2022_12_08-12_32_13"><target_notes><notes name="Note List">[{"pitch": 42, "velocity": 80, "note_on_time": 0.004, "note_off_time": 0.229}, {"pitch": 42, "velocity": 80, "note_on_time": 0.23, "note_off_time": 0.449}, {"pitch": 42, "velocity": 80, "note_on_time": 0.449, "note_off_time": 0.668}, {"pitch": 42, "velocity": 80, "note_on_time": 0.668, "note_off_time": 0.886}, {"pitch": 65, "velocity": 80, "note_on_time": 0.886, "note_off_time": 1.103}, {"pitch": 42, "velocity": 80, "note_on_time": 0.886, "note_off_time": 1.103}, {"pitch": 64, "velocity": 80, "note_on_time": 1.103, "note_off_time": 1.323}, {"pitch": 42, "velocity": 80, "note_on_time": 1.103, "note_off_time": 1.323}, {"pitch": 65, "velocity": 80, "note_on_time": 1.323, "note_off_time": 1.543}, {"pitch": 42, "velocity": 80, "note_on_time": 1.323, "note_off_time": 1.543}, {"pitch": 67, "velocity": 80, "note_on_time": 1.543, "note_off_time": 1.762}, {"pitch": 42, "velocity": 80, "note_on_time": 1.543, "note_off_time": 1.762}, {"pitch": 64, "velocity": 80, "note_on_time": 1.762, "note_off_time": 1.979}, {"pitch": 42, "velocity": 80, "note_on_time": 1.762, "note_off_time": 1.979}, {"pitch": 64, "velocity": 80, "note_on_time": 1.979, "note_off_time": 2.196}, {"pitch": 42, "velocity": 80, "note_on_time": 1.979, "note_off_time": 2.196}, {"pitch": 64, "velocity": 80, "note_on_time": 2.196, "note_off_time": 2.416}, {"pitch": 42, "velocity": 80, "note_on_time": 2.196, "note_off_time": 2.416}, {"pitch": 62, "velocity": 80, "note_on_time": 2.416, "note_off_time": 2.632}, {"pitch": 42, "velocity": 80, "note_on_time": 2.416, "note_off_time": 2.632}, {"pitch": 60, "velocity": 80, "note_on_time": 2.632, "note_off_time": 2.85}, {"pitch": 42, "velocity": 80, "note_on_time": 2.632, "note_off_time": 2.85}, {"pitch": 42, "velocity": 80, "note_on_time": 2.85, "note_off_time": 3.068}, {"pitch": 62, "velocity": 80, "note_on_time": 2.85, "note_off_time": 3.286}, {"pitch": 42, "velocity": 80, "note_on_time": 3.068, "note_off_time": 3.286}, {"pitch": 42, "velocity": 80, "note_on_time": 3.286, "note_off_time": 3.506}, {"pitch": 60, "velocity": 80, "note_on_time": 3.506, "note_off_time": 3.726}, {"pitch": 42, "velocity": 80, "note_on_time": 3.506, "note_off_time": 3.726}, {"pitch": 62, "velocity": 80, "note_on_time": 3.726, "note_off_time": 3.949}, {"pitch": 42, "velocity": 80, "note_on_time": 3.726, "note_off_time": 3.949}, {"pitch": 67, "velocity": 80, "note_on_time": 3.949, "note_off_time": 4.173}, {"pitch": 42, "velocity": 80, "note_on_time": 3.949, "note_off_time": 4.173}, {"pitch": 65, "velocity": 80, "note_on_time": 4.173, "note_off_time": 4.393}, {"pitch": 42, "velocity": 80, "note_on_time": 4.173, "note_off_time": 4.393}, {"pitch": 42, "velocity": 80, "note_on_time": 4.393, "note_off_time": 4.609}, {"pitch": 65, "velocity": 80, "note_on_time": 4.393, "note_off_time": 4.826}, {"pitch": 42, "velocity": 80, "note_on_time": 4.609, "note_off_time": 4.826}, {"pitch": 60, "velocity": 80, "note_on_time": 4.826, "note_off_time": 5.041}, {"pitch": 42, "velocity": 80, "note_on_time": 4.826, "note_off_time": 5.042}, {"pitch": 62, "velocity": 80, "note_on_time": 5.041, "note_off_time": 5.258}, {"pitch": 42, "velocity": 80, "note_on_time": 5.042, "note_off_time": 5.258}, {"pitch": 64, "velocity": 80, "note_on_time": 5.258, "note_off_time": 5.476}, {"pitch": 42, "velocity": 80, "note_on_time": 5.258, "note_off_time": 5.476}, {"pitch": 62, "velocity": 80, "note_on_time": 5.476, "note_off_time": 5.693}, {"pitch": 42, "velocity": 80, "note_on_time": 5.477, "note_off_time": 5.693}, {"pitch": 62, "velocity": 80, "note_on_time": 5.693, "note_off_time": 5.912}, {"pitch": 42, "velocity": 80, "note_on_time": 5.693, "note_off_time": 5.912}, {"pitch": 64, "velocity": 80, "note_on_time": 5.912, "note_off_time": 6.13}, {"pitch": 42, "velocity": 80, "note_on_time": 5.912, "note_off_time": 6.13}, {"pitch": 64, "velocity": 80, "note_on_time": 6.13, "note_off_time": 6.346}, {"pitch": 42, "velocity": 80, "note_on_time": 6.13, "note_off_time": 6.346}, {"pitch": 65, "velocity": 80, "note_on_time": 6.346, "note_off_time": 6.564}, {"pitch": 42, "velocity": 80, "note_on_time": 6.346, "note_off_time": 6.564}, {"pitch": 64, "velocity": 80, "note_on_time": 6.564, "note_off_time": 6.782}, {"pitch": 42, "velocity": 80, "note_on_time": 6.564, "note_off_time": 6.782}, {"pitch": 62, "velocity": 80, "note_on_time": 6.782, "note_off_time": 6.999}, {"pitch": 42, "velocity": 80, "note_on_time": 6.782, "note_off_time": 6.999}, {"pitch": 42, "velocity": 80, "note_on_time": 6.999, "note_off_time": 7.217}, {"pitch": 62, "velocity": 80, "note_on_time": 7.217, "note_off_time": 7.438}, {"pitch": 42, "velocity": 80, "note_on_time": 7.217, "note_off_time": 7.438}, {"pitch": 62, "velocity": 80, "note_on_time": 7.438, "note_off_time": 7.657}, {"pitch": 42, "velocity": 80, "note_on_time": 7.438, "note_off_time": 7.657}, {"pitch": 62, "velocity": 80, "note_on_time": 7.657, "note_off_time": 7.875}, {"pitch": 42, "velocity": 80, "note_on_time": 7.657, "note_off_time": 7.875}]</notes><options name="Option List">((4, 4), [0.5, 0.25], 3, 8, &lt;NoteRangePerHand.C_TO_G: 6&gt;, &lt;NoteRangePerHand.ONE_NOTE: 2&gt;, False, True, False, '281')</options></target_notes><trials><trial trial_no="1" timestamp="2022_12_08-12_32_04"><notes name="Played Notes">[{"pitch": 65, "velocity": 77, "note_on_time": 0.897, "note_off_time": 1.054}, {"pitch": 64, "velocity": 66, "note_on_time": 1.109, "note_off_time": 1.294}, {"pitch": 65, "velocity": 75, "note_on_time": 1.34, "note_off_time": 1.529}, {"pitch": 67, "velocity": 72, "note_on_time": 1.538, "note_off_time": 1.765}, {"pitch": 64, "velocity": 75, "note_on_time": 1.76, "note_off_time": 1.862}, {"pitch": 64, "velocity": 74, "note_on_time": 1.983, "note_off_time": 2.07}, {"pitch": 64, "velocity": 71, "note_on_time": 2.2, "note_off_time": 2.404}, {"pitch": 62, "velocity": 77, "note_on_time": 2.428, "note_off_time": 2.56}, {"pitch": 60, "velocity": 81, "note_on_time": 2.662, "note_off_time": 2.855}, {"pitch": 62, "velocity": 78, "note_on_time": 2.884, "note_off_time": 3.301}, {"pitch": 60, "velocity": 74, "note_on_time": 3.539, "note_off_time": 3.719}, {"pitch": 62, "velocity": 67, "note_on_time": 3.752, "note_off_time": 3.983}, {"pitch": 67, "velocity": 71, "note_on_time": 3.959, "note_off_time": 4.192}, {"pitch": 65, "velocity": 79, "note_on_time": 4.165, "note_off_time": 4.232}, {"pitch": 65, "velocity": 85, "note_on_time": 4.387, "note_off_time": 4.824}, {"pitch": 60, "velocity": 66, "note_on_time": 4.846, "note_off_time": 5.045}, {"pitch": 62, "velocity": 72, "note_on_time": 5.057, "note_off_time": 5.178}, {"pitch": 64, "velocity": 60, "note_on_time": 5.286, "note_off_time": 5.481}, {"pitch": 62, "velocity": 72, "note_on_time": 5.491, "note_off_time": 5.582}, {"pitch": 62, "velocity": 61, "note_on_time": 5.718, "note_off_time": 5.932}, {"pitch": 64, "velocity": 68, "note_on_time": 5.919, "note_off_time": 6.02}, {"pitch": 64, "velocity": 68, "note_on_time": 6.141, "note_off_time": 6.357}, {"pitch": 65, "velocity": 73, "note_on_time": 6.356, "note_off_time": 6.587}, {"pitch": 64, "velocity": 73, "note_on_time": 6.581, "note_off_time": 6.782}, {"pitch": 62, "velocity": 71, "note_on_time": 6.796, "note_off_time": 7.109}, {"pitch": 62, "velocity": 72, "note_on_time": 7.272, "note_off_time": 7.35}, {"pitch": 62, "velocity": 74, "note_on_time": 7.485, "note_off_time": 7.574}]</notes><guidance name="Guidance Mode">None</guidance><error name="Error value">0.06028988</error></trial><trial trial_no="2" timestamp="2022_12_08-12_32_19"><notes name="Played Notes">[{"pitch": 65, "velocity": 77, "note_on_time": 0.894, "note_off_time": 1.064}, {"pitch": 64, "velocity": 62, "note_on_time": 1.126, "note_off_time": 1.342}, {"pitch": 65, "velocity": 71, "note_on_time": 1.337, "note_off_time": 1.582}, {"pitch": 67, "velocity": 73, "note_on_time": 1.562, "note_off_time": 1.784}, {"pitch": 64, "velocity": 70, "note_on_time": 1.779, "note_off_time": 1.878}, {"pitch": 64, "velocity": 74, "note_on_time": 2.002, "note_off_time": 2.096}, {"pitch": 64, "velocity": 73, "note_on_time": 2.205, "note_off_time": 2.412}, {"pitch": 62, "velocity": 70, "note_on_time": 2.431, "note_off_time": 2.635}, {"pitch": 60, "velocity": 77, "note_on_time": 2.659, "note_off_time": 2.847}, {"pitch": 62, "velocity": 74, "note_on_time": 2.885, "note_off_time": 3.306}, {"pitch": 60, "velocity": 74, "note_on_time": 3.548, "note_off_time": 3.737}, {"pitch": 62, "velocity": 69, "note_on_time": 3.758, "note_off_time": 4.001}, {"pitch": 67, "velocity": 77, "note_on_time": 3.973, "note_off_time": 4.245}, {"pitch": 65, "velocity": 68, "note_on_time": 4.195, "note_off_time": 4.281}, {"pitch": 65, "velocity": 76, "note_on_time": 4.413, "note_off_time": 4.834}, {"pitch": 60, "velocity": 66, "note_on_time": 4.847, "note_off_time": 5.034}, {"pitch": 62, "velocity": 71, "note_on_time": 5.042, "note_off_time": 5.291}, {"pitch": 64, "velocity": 72, "note_on_time": 5.28, "note_off_time": 5.487}, {"pitch": 62, "velocity": 79, "note_on_time": 5.49, "note_off_time": 5.58}, {"pitch": 62, "velocity": 71, "note_on_time": 5.699, "note_off_time": 5.92}, {"pitch": 64, "velocity": 78, "note_on_time": 5.898, "note_off_time": 5.998}, {"pitch": 64, "velocity": 69, "note_on_time": 6.121, "note_off_time": 6.336}, {"pitch": 65, "velocity": 71, "note_on_time": 6.338, "note_off_time": 6.582}, {"pitch": 64, "velocity": 74, "note_on_time": 6.57, "note_off_time": 6.759}, {"pitch": 62, "velocity": 72, "note_on_time": 6.789, "note_off_time": 7.086}, {"pitch": 62, "velocity": 70, "note_on_time": 7.239, "note_off_time": 7.318}, {"pitch": 62, "velocity": 70, "note_on_time": 7.45, "note_off_time": 7.548}]</notes><guidance name="Guidance Mode">None</guidance><error name="Error value">0.05936804000000006</error></trial><trial trial_no="3" timestamp="2022_12_08-12_32_35"><notes name="Played Notes">[{"pitch": 65, "velocity": 70, "note_on_time": 0.859, "note_off_time": 1.063}, {"pitch": 64, "velocity": 62, "note_on_time": 1.084, "note_off_time": 1.311}, {"pitch": 65, "velocity": 80, "note_on_time": 1.303, "note_off_time": 1.522}, {"pitch": 67, "velocity": 74, "note_on_time": 1.519, "note_off_time": 1.758}, {"pitch": 64, "velocity": 74, "note_on_time": 1.746, "note_off_time": 1.85}, {"pitch": 64, "velocity": 79, "note_on_time": 1.975, "note_off_time": 2.067}, {"pitch": 64, "velocity": 73, "note_on_time": 2.186, "note_off_time": 2.385}, {"pitch": 62, "velocity": 65, "note_on_time": 2.41, "note_off_time": 2.599}, {"pitch": 60, "velocity": 72, "note_on_time": 2.636, "note_off_time": 2.823}, {"pitch": 62, "velocity": 75, "note_on_time": 2.859, "note_off_time": 3.425}, {"pitch": 60, "velocity": 69, "note_on_time": 3.512, "note_off_time": 3.704}, {"pitch": 62, "velocity": 68, "note_on_time": 3.727, "note_off_time": 3.954}, {"pitch": 67, "velocity": 73, "note_on_time": 3.936, "note_off_time": 4.212}, {"pitch": 65, "velocity": 75, "note_on_time": 4.162, "note_off_time": 4.241}, {"pitch": 65, "velocity": 77, "note_on_time": 4.378, "note_off_time": 4.787}, {"pitch": 60, "velocity": 74, "note_on_time": 4.81, "note_off_time": 5.003}, {"pitch": 62, "velocity": 73, "note_on_time": 5.012, "note_off_time": 5.258}, {"pitch": 64, "velocity": 68, "note_on_time": 5.242, "note_off_time": 5.437}, {"pitch": 62, "velocity": 70, "note_on_time": 5.451, "note_off_time": 5.544}, {"pitch": 62, "velocity": 59, "note_on_time": 5.688, "note_off_time": 5.905}, {"pitch": 64, "velocity": 70, "note_on_time": 5.887, "note_off_time": 5.987}, {"pitch": 64, "velocity": 68, "note_on_time": 6.109, "note_off_time": 6.319}, {"pitch": 65, "velocity": 73, "note_on_time": 6.319, "note_off_time": 6.564}, {"pitch": 64, "velocity": 74, "note_on_time": 6.537, "note_off_time": 6.731}, {"pitch": 62, "velocity": 74, "note_on_time": 6.77, "note_off_time": 7.065}, {"pitch": 62, "velocity": 75, "note_on_time": 7.228, "note_off_time": 7.307}, {"pitch": 62, "velocity": 73, "note_on_time": 7.429, "note_off_time": 7.53}]</notes><guidance name="Guidance Mode">None</guidance><error name="Error value">0.05940620000000004</error></trial></trials></MIDI>