<MIDI midiNo="2022_12_01-10_30_15"><target_notes><notes name="Note List">[{"pitch": 42, "velocity": 80, "note_on_time": 0.004, "note_off_time": 0.269}, {"pitch": 42, "velocity": 80, "note_on_time": 0.269, "note_off_time": 0.535}, {"pitch": 42, "velocity": 80, "note_on_time": 0.535, "note_off_time": 0.801}, {"pitch": 42, "velocity": 80, "note_on_time": 0.802, "note_off_time": 1.066}, {"pitch": 42, "velocity": 80, "note_on_time": 1.067, "note_off_time": 1.33}, {"pitch": 62, "velocity": 80, "note_on_time": 1.066, "note_off_time": 1.596}, {"pitch": 42, "velocity": 80, "note_on_time": 1.33, "note_off_time": 1.596}, {"pitch": 65, "velocity": 80, "note_on_time": 1.596, "note_off_time": 1.86}, {"pitch": 42, "velocity": 80, "note_on_time": 1.596, "note_off_time": 1.861}, {"pitch": 65, "velocity": 80, "note_on_time": 1.86, "note_off_time": 2.122}, {"pitch": 42, "velocity": 80, "note_on_time": 1.861, "note_off_time": 2.123}, {"pitch": 60, "velocity": 80, "note_on_time": 2.122, "note_off_time": 2.388}, {"pitch": 42, "velocity": 80, "note_on_time": 2.123, "note_off_time": 2.389}, {"pitch": 62, "velocity": 80, "note_on_time": 2.388, "note_off_time": 2.655}, {"pitch": 42, "velocity": 80, "note_on_time": 2.389, "note_off_time": 2.655}, {"pitch": 64, "velocity": 80, "note_on_time": 2.655, "note_off_time": 2.919}, {"pitch": 42, "velocity": 80, "note_on_time": 2.655, "note_off_time": 2.919}, {"pitch": 65, "velocity": 80, "note_on_time": 2.919, "note_off_time": 3.184}, {"pitch": 42, "velocity": 80, "note_on_time": 2.919, "note_off_time": 3.184}, {"pitch": 60, "velocity": 80, "note_on_time": 3.184, "note_off_time": 3.45}, {"pitch": 42, "velocity": 80, "note_on_time": 3.184, "note_off_time": 3.45}, {"pitch": 42, "velocity": 80, "note_on_time": 3.451, "note_off_time": 3.714}, {"pitch": 62, "velocity": 80, "note_on_time": 3.45, "note_off_time": 3.979}, {"pitch": 42, "velocity": 80, "note_on_time": 3.714, "note_off_time": 3.979}, {"pitch": 65, "velocity": 80, "note_on_time": 3.979, "note_off_time": 4.242}, {"pitch": 42, "velocity": 80, "note_on_time": 3.979, "note_off_time": 4.242}, {"pitch": 67, "velocity": 80, "note_on_time": 4.242, "note_off_time": 4.507}, {"pitch": 42, "velocity": 80, "note_on_time": 4.243, "note_off_time": 4.508}, {"pitch": 65, "velocity": 80, "note_on_time": 4.507, "note_off_time": 4.77}, {"pitch": 42, "velocity": 80, "note_on_time": 4.508, "note_off_time": 4.771}, {"pitch": 64, "velocity": 80, "note_on_time": 4.77, "note_off_time": 5.036}, {"pitch": 42, "velocity": 80, "note_on_time": 4.771, "note_off_time": 5.036}, {"pitch": 65, "velocity": 80, "note_on_time": 5.036, "note_off_time": 5.301}, {"pitch": 42, "velocity": 80, "note_on_time": 5.036, "note_off_time": 5.302}, {"pitch": 65, "velocity": 80, "note_on_time": 5.301, "note_off_time": 5.566}, {"pitch": 42, "velocity": 80, "note_on_time": 5.302, "note_off_time": 5.566}, {"pitch": 60, "velocity": 80, "note_on_time": 5.566, "note_off_time": 5.83}, {"pitch": 42, "velocity": 80, "note_on_time": 5.566, "note_off_time": 5.83}, {"pitch": 64, "velocity": 80, "note_on_time": 5.83, "note_off_time": 6.096}, {"pitch": 42, "velocity": 80, "note_on_time": 5.83, "note_off_time": 6.096}, {"pitch": 64, "velocity": 80, "note_on_time": 6.096, "note_off_time": 6.358}, {"pitch": 42, "velocity": 80, "note_on_time": 6.096, "note_off_time": 6.359}, {"pitch": 62, "velocity": 80, "note_on_time": 6.358, "note_off_time": 6.623}, {"pitch": 42, "velocity": 80, "note_on_time": 6.359, "note_off_time": 6.624}, {"pitch": 42, "velocity": 80, "note_on_time": 6.624, "note_off_time": 6.887}, {"pitch": 42, "velocity": 80, "note_on_time": 6.887, "note_off_time": 7.154}, {"pitch": 42, "velocity": 80, "note_on_time": 7.154, "note_off_time": 7.419}, {"pitch": 67, "velocity": 80, "note_on_time": 7.419, "note_off_time": 7.685}, {"pitch": 42, "velocity": 80, "note_on_time": 7.42, "note_off_time": 7.685}, {"pitch": 42, "velocity": 80, "note_on_time": 7.685, "note_off_time": 7.95}, {"pitch": 67, "velocity": 80, "note_on_time": 7.949, "note_off_time": 8.212}, {"pitch": 42, "velocity": 80, "note_on_time": 7.95, "note_off_time": 8.213}, {"pitch": 42, "velocity": 80, "note_on_time": 8.213, "note_off_time": 8.478}, {"pitch": 42, "velocity": 80, "note_on_time": 8.479, "note_off_time": 8.744}, {"pitch": 67, "velocity": 80, "note_on_time": 8.744, "note_off_time": 9.008}, {"pitch": 42, "velocity": 80, "note_on_time": 8.744, "note_off_time": 9.009}, {"pitch": 67, "velocity": 80, "note_on_time": 9.008, "note_off_time": 9.273}, {"pitch": 42, "velocity": 80, "note_on_time": 9.009, "note_off_time": 9.273}, {"pitch": 67, "velocity": 80, "note_on_time": 9.273, "note_off_time": 9.538}, {"pitch": 42, "velocity": 80, "note_on_time": 9.274, "note_off_time": 9.538}]</notes><options name="Option List">((4, 4), [0.5, 0.25], 3, 8, &lt;NoteRangePerHand.C_TO_G: 6&gt;, &lt;NoteRangePerHand.ONE_NOTE: 2&gt;, False, True, False, '232')</options></target_notes><trials><trial trial_no="1" timestamp="2022_12_01-10_30_04"><notes name="Played Notes">[{"pitch": 62, "velocity": 73, "note_on_time": 1.047, "note_off_time": 1.571}, {"pitch": 65, "velocity": 70, "note_on_time": 1.533, "note_off_time": 1.645}, {"pitch": 65, "velocity": 74, "note_on_time": 1.819, "note_off_time": 2.114}, {"pitch": 60, "velocity": 71, "note_on_time": 2.089, "note_off_time": 2.43}, {"pitch": 62, "velocity": 68, "note_on_time": 2.372, "note_off_time": 2.66}, {"pitch": 64, "velocity": 64, "note_on_time": 2.616, "note_off_time": 2.918}, {"pitch": 65, "velocity": 76, "note_on_time": 2.867, "note_off_time": 3.207}, {"pitch": 60, "velocity": 75, "note_on_time": 3.201, "note_off_time": 3.485}, {"pitch": 62, "velocity": 76, "note_on_time": 3.471, "note_off_time": 4.072}, {"pitch": 65, "velocity": 71, "note_on_time": 4.04, "note_off_time": 4.337}, {"pitch": 67, "velocity": 69, "note_on_time": 4.319, "note_off_time": 4.584}, {"pitch": 65, "velocity": 79, "note_on_time": 4.539, "note_off_time": 4.857}, {"pitch": 64, "velocity": 73, "note_on_time": 4.826, "note_off_time": 5.095}, {"pitch": 65, "velocity": 78, "note_on_time": 5.07, "note_off_time": 5.17}, {"pitch": 65, "velocity": 75, "note_on_time": 5.341, "note_off_time": 5.646}, {"pitch": 60, "velocity": 67, "note_on_time": 5.602, "note_off_time": 5.899}, {"pitch": 64, "velocity": 67, "note_on_time": 5.859, "note_off_time": 5.948}, {"pitch": 64, "velocity": 76, "note_on_time": 6.113, "note_off_time": 6.426}, {"pitch": 62, "velocity": 72, "note_on_time": 6.402, "note_off_time": 6.583}, {"pitch": 67, "velocity": 77, "note_on_time": 7.461, "note_off_time": 7.619}, {"pitch": 67, "velocity": 77, "note_on_time": 7.98, "note_off_time": 8.211}, {"pitch": 67, "velocity": 76, "note_on_time": 8.709, "note_off_time": 8.823}, {"pitch": 67, "velocity": 82, "note_on_time": 8.972, "note_off_time": 9.077}, {"pitch": 67, "velocity": 80, "note_on_time": 9.241, "note_off_time": 9.38}]</notes><guidance name="Guidance Mode">None</guidance><error name="Error value">0.02363904761904761</error></trial><trial trial_no="2" timestamp="2022_12_01-10_30_32"><notes name="Played Notes">[{"pitch": 62, "velocity": 60, "note_on_time": 1.074, "note_off_time": 1.65}, {"pitch": 65, "velocity": 73, "note_on_time": 1.611, "note_off_time": 1.727}, {"pitch": 65, "velocity": 70, "note_on_time": 1.885, "note_off_time": 2.133}, {"pitch": 60, "velocity": 68, "note_on_time": 2.129, "note_off_time": 2.468}, {"pitch": 62, "velocity": 70, "note_on_time": 2.407, "note_off_time": 2.694}, {"pitch": 64, "velocity": 66, "note_on_time": 2.648, "note_off_time": 2.949}, {"pitch": 65, "velocity": 76, "note_on_time": 2.915, "note_off_time": 3.207}, {"pitch": 60, "velocity": 71, "note_on_time": 3.175, "note_off_time": 3.463}, {"pitch": 62, "velocity": 65, "note_on_time": 3.449, "note_off_time": 4.0}, {"pitch": 65, "velocity": 77, "note_on_time": 3.966, "note_off_time": 4.24}, {"pitch": 67, "velocity": 72, "note_on_time": 4.226, "note_off_time": 4.49}, {"pitch": 65, "velocity": 68, "note_on_time": 4.461, "note_off_time": 4.788}, {"pitch": 64, "velocity": 64, "note_on_time": 4.754, "note_off_time": 4.96}, {"pitch": 65, "velocity": 63, "note_on_time": 4.941, "note_off_time": 5.071}, {"pitch": 65, "velocity": 69, "note_on_time": 5.282, "note_off_time": 5.536}, {"pitch": 60, "velocity": 57, "note_on_time": 5.533, "note_off_time": 5.851}, {"pitch": 64, "velocity": 70, "note_on_time": 5.807, "note_off_time": 5.903}, {"pitch": 64, "velocity": 65, "note_on_time": 6.077, "note_off_time": 6.398}, {"pitch": 62, "velocity": 70, "note_on_time": 6.367, "note_off_time": 6.588}, {"pitch": 67, "velocity": 75, "note_on_time": 7.421, "note_off_time": 7.627}, {"pitch": 67, "velocity": 77, "note_on_time": 7.93, "note_off_time": 8.103}, {"pitch": 67, "velocity": 77, "note_on_time": 8.685, "note_off_time": 8.816}, {"pitch": 67, "velocity": 81, "note_on_time": 8.97, "note_off_time": 9.091}, {"pitch": 67, "velocity": 71, "note_on_time": 9.226, "note_off_time": 9.388}]</notes><guidance name="Guidance Mode">None</guidance><error name="Error value">0.022328571428571274</error></trial><trial trial_no="3" timestamp="2022_12_01-10_30_50"><notes name="Played Notes">[{"pitch": 62, "velocity": 60, "note_on_time": 1.083, "note_off_time": 1.664}, {"pitch": 65, "velocity": 65, "note_on_time": 1.628, "note_off_time": 1.744}, {"pitch": 65, "velocity": 76, "note_on_time": 1.898, "note_off_time": 2.154}, {"pitch": 60, "velocity": 69, "note_on_time": 2.151, "note_off_time": 2.466}, {"pitch": 62, "velocity": 68, "note_on_time": 2.422, "note_off_time": 2.717}, {"pitch": 64, "velocity": 68, "note_on_time": 2.674, "note_off_time": 2.957}, {"pitch": 65, "velocity": 72, "note_on_time": 2.927, "note_off_time": 3.205}, {"pitch": 60, "velocity": 71, "note_on_time": 3.205, "note_off_time": 3.488}, {"pitch": 62, "velocity": 68, "note_on_time": 3.464, "note_off_time": 4.002}, {"pitch": 65, "velocity": 77, "note_on_time": 3.977, "note_off_time": 4.248}, {"pitch": 67, "velocity": 70, "note_on_time": 4.262, "note_off_time": 4.542}, {"pitch": 65, "velocity": 71, "note_on_time": 4.51, "note_off_time": 4.8}, {"pitch": 64, "velocity": 66, "note_on_time": 4.765, "note_off_time": 5.074}, {"pitch": 65, "velocity": 72, "note_on_time": 5.04, "note_off_time": 5.135}, {"pitch": 65, "velocity": 67, "note_on_time": 5.312, "note_off_time": 5.571}, {"pitch": 60, "velocity": 64, "note_on_time": 5.559, "note_off_time": 5.886}, {"pitch": 64, "velocity": 64, "note_on_time": 5.83, "note_off_time": 5.935}, {"pitch": 64, "velocity": 62, "note_on_time": 6.097, "note_off_time": 6.411}, {"pitch": 62, "velocity": 64, "note_on_time": 6.378, "note_off_time": 6.589}, {"pitch": 67, "velocity": 69, "note_on_time": 7.441, "note_off_time": 7.609}, {"pitch": 67, "velocity": 74, "note_on_time": 7.962, "note_off_time": 8.164}, {"pitch": 67, "velocity": 70, "note_on_time": 8.722, "note_off_time": 8.849}, {"pitch": 67, "velocity": 77, "note_on_time": 9.013, "note_off_time": 9.135}, {"pitch": 67, "velocity": 64, "note_on_time": 9.261, "note_off_time": 9.405}]</notes><guidance name="Guidance Mode">None</guidance><error name="Error value">0.014745714285714426</error></trial></trials></MIDI>