<MIDI midiNo="2022_10_27-10_56_25"><target_notes><notes name="Note List">[{"pitch": 42, "velocity": 80, "note_on_time": 0.004, "note_off_time": 0.528}, {"pitch": 42, "velocity": 80, "note_on_time": 0.528, "note_off_time": 1.057}, {"pitch": 42, "velocity": 80, "note_on_time": 1.057, "note_off_time": 1.59}, {"pitch": 42, "velocity": 80, "note_on_time": 1.59, "note_off_time": 2.117}, {"pitch": 60, "velocity": 80, "note_on_time": 2.117, "note_off_time": 2.646}, {"pitch": 42, "velocity": 80, "note_on_time": 2.117, "note_off_time": 2.646}, {"pitch": 60, "velocity": 80, "note_on_time": 2.646, "note_off_time": 3.177}, {"pitch": 42, "velocity": 80, "note_on_time": 2.646, "note_off_time": 3.177}, {"pitch": 60, "velocity": 80, "note_on_time": 3.177, "note_off_time": 3.705}, {"pitch": 42, "velocity": 80, "note_on_time": 3.177, "note_off_time": 3.706}, {"pitch": 60, "velocity": 80, "note_on_time": 3.705, "note_off_time": 4.237}, {"pitch": 42, "velocity": 80, "note_on_time": 3.706, "note_off_time": 4.237}, {"pitch": 60, "velocity": 80, "note_on_time": 4.237, "note_off_time": 4.771}, {"pitch": 42, "velocity": 80, "note_on_time": 4.237, "note_off_time": 4.771}, {"pitch": 42, "velocity": 80, "note_on_time": 4.771, "note_off_time": 5.304}, {"pitch": 62, "velocity": 80, "note_on_time": 5.303, "note_off_time": 5.834}, {"pitch": 42, "velocity": 80, "note_on_time": 5.304, "note_off_time": 5.834}, {"pitch": 60, "velocity": 80, "note_on_time": 5.834, "note_off_time": 6.362}, {"pitch": 42, "velocity": 80, "note_on_time": 5.834, "note_off_time": 6.362}, {"pitch": 60, "velocity": 80, "note_on_time": 6.362, "note_off_time": 6.891}, {"pitch": 42, "velocity": 80, "note_on_time": 6.363, "note_off_time": 6.891}, {"pitch": 62, "velocity": 80, "note_on_time": 6.891, "note_off_time": 7.422}, {"pitch": 42, "velocity": 80, "note_on_time": 6.891, "note_off_time": 7.423}, {"pitch": 60, "velocity": 80, "note_on_time": 7.422, "note_off_time": 7.95}, {"pitch": 42, "velocity": 80, "note_on_time": 7.423, "note_off_time": 7.95}, {"pitch": 62, "velocity": 80, "note_on_time": 7.95, "note_off_time": 8.479}, {"pitch": 42, "velocity": 80, "note_on_time": 7.951, "note_off_time": 8.479}, {"pitch": 60, "velocity": 80, "note_on_time": 8.479, "note_off_time": 9.009}, {"pitch": 42, "velocity": 80, "note_on_time": 8.48, "note_off_time": 9.01}, {"pitch": 42, "velocity": 80, "note_on_time": 9.01, "note_off_time": 9.537}, {"pitch": 42, "velocity": 80, "note_on_time": 9.537, "note_off_time": 10.066}, {"pitch": 60, "velocity": 80, "note_on_time": 10.066, "note_off_time": 10.595}, {"pitch": 42, "velocity": 80, "note_on_time": 10.066, "note_off_time": 10.595}, {"pitch": 62, "velocity": 80, "note_on_time": 10.595, "note_off_time": 11.124}, {"pitch": 42, "velocity": 80, "note_on_time": 10.595, "note_off_time": 11.124}, {"pitch": 60, "velocity": 80, "note_on_time": 11.124, "note_off_time": 11.654}, {"pitch": 42, "velocity": 80, "note_on_time": 11.125, "note_off_time": 11.654}, {"pitch": 62, "velocity": 80, "note_on_time": 11.654, "note_off_time": 12.184}, {"pitch": 42, "velocity": 80, "note_on_time": 11.655, "note_off_time": 12.184}, {"pitch": 62, "velocity": 80, "note_on_time": 12.184, "note_off_time": 12.716}, {"pitch": 42, "velocity": 80, "note_on_time": 12.185, "note_off_time": 12.716}, {"pitch": 62, "velocity": 80, "note_on_time": 12.716, "note_off_time": 13.246}, {"pitch": 42, "velocity": 80, "note_on_time": 12.716, "note_off_time": 13.246}, {"pitch": 60, "velocity": 80, "note_on_time": 13.246, "note_off_time": 13.771}, {"pitch": 42, "velocity": 80, "note_on_time": 13.247, "note_off_time": 13.772}, {"pitch": 60, "velocity": 80, "note_on_time": 13.771, "note_off_time": 14.301}, {"pitch": 42, "velocity": 80, "note_on_time": 13.772, "note_off_time": 14.302}, {"pitch": 60, "velocity": 80, "note_on_time": 14.302, "note_off_time": 14.827}, {"pitch": 42, "velocity": 80, "note_on_time": 14.302, "note_off_time": 14.827}, {"pitch": 62, "velocity": 80, "note_on_time": 14.827, "note_off_time": 15.361}, {"pitch": 42, "velocity": 80, "note_on_time": 14.827, "note_off_time": 15.361}, {"pitch": 60, "velocity": 80, "note_on_time": 15.361, "note_off_time": 15.888}, {"pitch": 42, "velocity": 80, "note_on_time": 15.362, "note_off_time": 15.889}, {"pitch": 62, "velocity": 80, "note_on_time": 15.888, "note_off_time": 16.416}, {"pitch": 42, "velocity": 80, "note_on_time": 15.889, "note_off_time": 16.416}, {"pitch": 60, "velocity": 80, "note_on_time": 16.416, "note_off_time": 16.945}, {"pitch": 42, "velocity": 80, "note_on_time": 16.417, "note_off_time": 16.945}, {"pitch": 42, "velocity": 80, "note_on_time": 16.946, "note_off_time": 17.474}, {"pitch": 60, "velocity": 80, "note_on_time": 17.474, "note_off_time": 18.003}, {"pitch": 42, "velocity": 80, "note_on_time": 17.474, "note_off_time": 18.004}, {"pitch": 60, "velocity": 80, "note_on_time": 18.003, "note_off_time": 18.53}, {"pitch": 42, "velocity": 80, "note_on_time": 18.004, "note_off_time": 18.531}, {"pitch": 60, "velocity": 80, "note_on_time": 18.53, "note_off_time": 19.057}, {"pitch": 42, "velocity": 80, "note_on_time": 18.531, "note_off_time": 19.058}]</notes><options name="Option List">((4, 4), [0.25], 3, 8, &lt;NoteRangePerHand.TWO_NOTES: 3&gt;, &lt;NoteRangePerHand.ONE_NOTE: 2&gt;, False, True, False, 116)</options></target_notes><trials><trial trial_no="1" timestamp="2022_10_27-10_56_04"><notes name="Played Notes">[{"pitch": 60, "velocity": 62, "note_on_time": 1.649, "note_off_time": 1.832}, {"pitch": 60, "velocity": 55, "note_on_time": 2.186, "note_off_time": 2.328}, {"pitch": 60, "velocity": 54, "note_on_time": 2.716, "note_off_time": 2.858}, {"pitch": 60, "velocity": 53, "note_on_time": 3.246, "note_off_time": 3.387}, {"pitch": 60, "velocity": 60, "note_on_time": 3.757, "note_off_time": 3.886}, {"pitch": 62, "velocity": 28, "note_on_time": 5.368, "note_off_time": 5.503}, {"pitch": 60, "velocity": 50, "note_on_time": 5.942, "note_off_time": 6.071}, {"pitch": 60, "velocity": 52, "note_on_time": 6.481, "note_off_time": 6.625}, {"pitch": 62, "velocity": 51, "note_on_time": 7.027, "note_off_time": 7.188}, {"pitch": 60, "velocity": 60, "note_on_time": 7.636, "note_off_time": 7.777}, {"pitch": 62, "velocity": 59, "note_on_time": 8.206, "note_off_time": 8.346}, {"pitch": 60, "velocity": 56, "note_on_time": 8.739, "note_off_time": 8.86}, {"pitch": 60, "velocity": 55, "note_on_time": 10.473, "note_off_time": 10.63}, {"pitch": 62, "velocity": 50, "note_on_time": 10.982, "note_off_time": 11.172}, {"pitch": 60, "velocity": 58, "note_on_time": 11.508, "note_off_time": 11.66}, {"pitch": 62, "velocity": 50, "note_on_time": 12.012, "note_off_time": 12.328}, {"pitch": 62, "velocity": 52, "note_on_time": 12.519, "note_off_time": 12.698}, {"pitch": 62, "velocity": 57, "note_on_time": 13.061, "note_off_time": 13.228}, {"pitch": 60, "velocity": 59, "note_on_time": 13.91, "note_off_time": 14.066}, {"pitch": 60, "velocity": 49, "note_on_time": 14.408, "note_off_time": 14.587}, {"pitch": 60, "velocity": 56, "note_on_time": 14.899, "note_off_time": 15.049}, {"pitch": 62, "velocity": 54, "note_on_time": 15.909, "note_off_time": 16.099}, {"pitch": 60, "velocity": 55, "note_on_time": 16.415, "note_off_time": 16.569}, {"pitch": 62, "velocity": 50, "note_on_time": 16.921, "note_off_time": 17.111}, {"pitch": 60, "velocity": 51, "note_on_time": 17.396, "note_off_time": 17.565}, {"pitch": 60, "velocity": 62, "note_on_time": 18.444, "note_off_time": 18.617}]</notes><guidance name="Guidance Mode">None</guidance><error name="Error value">0.20503323999999998</error></trial></trials></MIDI>