<MIDI midiNo="2022_08_17-12_19_48"><target_notes><notes name="Note List">[{"pitch": 42, "velocity": 80, "note_on_time": 0.004, "note_off_time": 0.267}, {"pitch": 42, "velocity": 80, "note_on_time": 0.267, "note_off_time": 0.534}, {"pitch": 42, "velocity": 80, "note_on_time": 0.535, "note_off_time": 0.8}, {"pitch": 42, "velocity": 80, "note_on_time": 0.8, "note_off_time": 1.065}, {"pitch": 42, "velocity": 80, "note_on_time": 1.065, "note_off_time": 1.329}, {"pitch": 62, "velocity": 80, "note_on_time": 1.065, "note_off_time": 1.594}, {"pitch": 42, "velocity": 80, "note_on_time": 1.329, "note_off_time": 1.595}, {"pitch": 42, "velocity": 80, "note_on_time": 1.595, "note_off_time": 1.86}, {"pitch": 42, "velocity": 80, "note_on_time": 1.86, "note_off_time": 2.124}, {"pitch": 67, "velocity": 80, "note_on_time": 2.124, "note_off_time": 2.389}, {"pitch": 42, "velocity": 80, "note_on_time": 2.125, "note_off_time": 2.39}, {"pitch": 67, "velocity": 80, "note_on_time": 2.389, "note_off_time": 2.653}, {"pitch": 42, "velocity": 80, "note_on_time": 2.39, "note_off_time": 2.653}, {"pitch": 67, "velocity": 80, "note_on_time": 2.653, "note_off_time": 2.917}, {"pitch": 42, "velocity": 80, "note_on_time": 2.653, "note_off_time": 2.917}, {"pitch": 60, "velocity": 80, "note_on_time": 2.917, "note_off_time": 3.182}, {"pitch": 42, "velocity": 80, "note_on_time": 2.918, "note_off_time": 3.182}, {"pitch": 65, "velocity": 80, "note_on_time": 3.182, "note_off_time": 3.45}, {"pitch": 42, "velocity": 80, "note_on_time": 3.182, "note_off_time": 3.45}, {"pitch": 62, "velocity": 80, "note_on_time": 3.45, "note_off_time": 3.716}, {"pitch": 42, "velocity": 80, "note_on_time": 3.45, "note_off_time": 3.716}, {"pitch": 62, "velocity": 80, "note_on_time": 3.716, "note_off_time": 3.981}, {"pitch": 42, "velocity": 80, "note_on_time": 3.717, "note_off_time": 3.981}, {"pitch": 64, "velocity": 80, "note_on_time": 3.981, "note_off_time": 4.247}, {"pitch": 42, "velocity": 80, "note_on_time": 3.981, "note_off_time": 4.247}, {"pitch": 42, "velocity": 80, "note_on_time": 4.247, "note_off_time": 4.513}, {"pitch": 67, "velocity": 80, "note_on_time": 4.247, "note_off_time": 4.778}, {"pitch": 42, "velocity": 80, "note_on_time": 4.513, "note_off_time": 4.778}, {"pitch": 62, "velocity": 80, "note_on_time": 4.778, "note_off_time": 5.045}, {"pitch": 42, "velocity": 80, "note_on_time": 4.778, "note_off_time": 5.045}, {"pitch": 64, "velocity": 80, "note_on_time": 5.045, "note_off_time": 5.311}, {"pitch": 42, "velocity": 80, "note_on_time": 5.045, "note_off_time": 5.312}, {"pitch": 60, "velocity": 80, "note_on_time": 5.311, "note_off_time": 5.576}, {"pitch": 42, "velocity": 80, "note_on_time": 5.312, "note_off_time": 5.576}, {"pitch": 62, "velocity": 80, "note_on_time": 5.576, "note_off_time": 5.842}, {"pitch": 42, "velocity": 80, "note_on_time": 5.577, "note_off_time": 5.842}, {"pitch": 60, "velocity": 80, "note_on_time": 5.842, "note_off_time": 6.108}, {"pitch": 42, "velocity": 80, "note_on_time": 5.842, "note_off_time": 6.108}, {"pitch": 64, "velocity": 80, "note_on_time": 6.108, "note_off_time": 6.373}, {"pitch": 42, "velocity": 80, "note_on_time": 6.109, "note_off_time": 6.373}, {"pitch": 60, "velocity": 80, "note_on_time": 6.373, "note_off_time": 6.639}, {"pitch": 42, "velocity": 80, "note_on_time": 6.374, "note_off_time": 6.64}, {"pitch": 60, "velocity": 80, "note_on_time": 6.639, "note_off_time": 6.903}, {"pitch": 42, "velocity": 80, "note_on_time": 6.64, "note_off_time": 6.904}, {"pitch": 67, "velocity": 80, "note_on_time": 6.903, "note_off_time": 7.166}, {"pitch": 42, "velocity": 80, "note_on_time": 6.904, "note_off_time": 7.166}, {"pitch": 65, "velocity": 80, "note_on_time": 7.166, "note_off_time": 7.432}, {"pitch": 42, "velocity": 80, "note_on_time": 7.166, "note_off_time": 7.432}, {"pitch": 62, "velocity": 80, "note_on_time": 7.432, "note_off_time": 7.699}, {"pitch": 42, "velocity": 80, "note_on_time": 7.432, "note_off_time": 7.699}, {"pitch": 42, "velocity": 80, "note_on_time": 7.699, "note_off_time": 7.964}, {"pitch": 62, "velocity": 80, "note_on_time": 7.699, "note_off_time": 8.231}, {"pitch": 42, "velocity": 80, "note_on_time": 7.964, "note_off_time": 8.231}, {"pitch": 62, "velocity": 80, "note_on_time": 8.231, "note_off_time": 8.497}, {"pitch": 42, "velocity": 80, "note_on_time": 8.232, "note_off_time": 8.497}, {"pitch": 42, "velocity": 80, "note_on_time": 8.498, "note_off_time": 8.761}, {"pitch": 62, "velocity": 80, "note_on_time": 8.761, "note_off_time": 9.025}, {"pitch": 42, "velocity": 80, "note_on_time": 8.761, "note_off_time": 9.025}, {"pitch": 62, "velocity": 80, "note_on_time": 9.025, "note_off_time": 9.292}, {"pitch": 42, "velocity": 80, "note_on_time": 9.026, "note_off_time": 9.292}, {"pitch": 62, "velocity": 80, "note_on_time": 9.292, "note_off_time": 9.558}, {"pitch": 42, "velocity": 80, "note_on_time": 9.292, "note_off_time": 9.558}]</notes><options name="Option List">((4, 4), [0.5, 0.25], 3, 8, &lt;NoteRangePerHand.C_TO_G: 6&gt;, &lt;NoteRangePerHand.ONE_NOTE: 2&gt;, False, True, True, '232')</options></target_notes><trials><trial trial_no="1" timestamp="2022_08_17-12_19_37"><notes name="Played Notes">[{"pitch": 62, "velocity": 69, "note_on_time": 1.091, "note_off_time": 1.411}, {"pitch": 67, "velocity": 60, "note_on_time": 2.137, "note_off_time": 2.227}, {"pitch": 67, "velocity": 78, "note_on_time": 2.416, "note_off_time": 2.514}, {"pitch": 67, "velocity": 62, "note_on_time": 2.666, "note_off_time": 2.759}, {"pitch": 60, "velocity": 81, "note_on_time": 2.919, "note_off_time": 3.004}, {"pitch": 65, "velocity": 70, "note_on_time": 3.191, "note_off_time": 3.246}, {"pitch": 62, "velocity": 72, "note_on_time": 3.434, "note_off_time": 3.499}, {"pitch": 62, "velocity": 73, "note_on_time": 3.698, "note_off_time": 3.763}, {"pitch": 64, "velocity": 78, "note_on_time": 3.942, "note_off_time": 4.015}, {"pitch": 67, "velocity": 83, "note_on_time": 4.215, "note_off_time": 4.472}, {"pitch": 62, "velocity": 81, "note_on_time": 4.753, "note_off_time": 4.845}, {"pitch": 64, "velocity": 70, "note_on_time": 5.028, "note_off_time": 5.118}, {"pitch": 60, "velocity": 75, "note_on_time": 5.29, "note_off_time": 5.382}, {"pitch": 62, "velocity": 69, "note_on_time": 5.551, "note_off_time": 5.635}, {"pitch": 60, "velocity": 76, "note_on_time": 5.839, "note_off_time": 5.945}, {"pitch": 64, "velocity": 72, "note_on_time": 6.095, "note_off_time": 6.167}, {"pitch": 60, "velocity": 72, "note_on_time": 6.367, "note_off_time": 6.444}, {"pitch": 60, "velocity": 72, "note_on_time": 6.613, "note_off_time": 6.707}, {"pitch": 67, "velocity": 73, "note_on_time": 6.878, "note_off_time": 6.969}, {"pitch": 65, "velocity": 64, "note_on_time": 7.158, "note_off_time": 7.212}, {"pitch": 62, "velocity": 70, "note_on_time": 7.411, "note_off_time": 7.481}, {"pitch": 62, "velocity": 81, "note_on_time": 7.683, "note_off_time": 7.922}, {"pitch": 62, "velocity": 80, "note_on_time": 8.249, "note_off_time": 8.317}, {"pitch": 62, "velocity": 90, "note_on_time": 8.994, "note_off_time": 9.062}, {"pitch": 62, "velocity": 89, "note_on_time": 9.286, "note_off_time": 9.355}]</notes><guidance name="Guidance Mode">None</guidance><error name="Error value">0.06947565217391316</error></trial><trial trial_no="2" timestamp="2022_08_17-12_19_58"><notes name="Played Notes">[{"pitch": 62, "velocity": 80, "note_on_time": 1.071, "note_off_time": 1.356}, {"pitch": 67, "velocity": 74, "note_on_time": 2.119, "note_off_time": 2.211}, {"pitch": 67, "velocity": 72, "note_on_time": 2.389, "note_off_time": 2.474}, {"pitch": 60, "velocity": 84, "note_on_time": 2.65, "note_off_time": 2.744}, {"pitch": 65, "velocity": 78, "note_on_time": 2.911, "note_off_time": 2.999}, {"pitch": 62, "velocity": 77, "note_on_time": 3.185, "note_off_time": 3.239}, {"pitch": 62, "velocity": 75, "note_on_time": 3.447, "note_off_time": 3.515}, {"pitch": 64, "velocity": 75, "note_on_time": 3.709, "note_off_time": 3.776}, {"pitch": 67, "velocity": 83, "note_on_time": 3.966, "note_off_time": 4.18}, {"pitch": 62, "velocity": 75, "note_on_time": 4.613, "note_off_time": 4.666}, {"pitch": 64, "velocity": 75, "note_on_time": 4.875, "note_off_time": 4.952}, {"pitch": 60, "velocity": 73, "note_on_time": 5.144, "note_off_time": 5.217}, {"pitch": 62, "velocity": 68, "note_on_time": 5.418, "note_off_time": 5.487}, {"pitch": 60, "velocity": 70, "note_on_time": 5.691, "note_off_time": 5.785}, {"pitch": 64, "velocity": 67, "note_on_time": 5.953, "note_off_time": 6.02}, {"pitch": 60, "velocity": 68, "note_on_time": 6.222, "note_off_time": 6.288}, {"pitch": 60, "velocity": 74, "note_on_time": 6.476, "note_off_time": 6.549}, {"pitch": 67, "velocity": 66, "note_on_time": 6.73, "note_off_time": 6.792}, {"pitch": 65, "velocity": 65, "note_on_time": 7.003, "note_off_time": 7.055}, {"pitch": 62, "velocity": 65, "note_on_time": 7.256, "note_off_time": 7.31}, {"pitch": 62, "velocity": 77, "note_on_time": 7.508, "note_off_time": 7.666}, {"pitch": 62, "velocity": 79, "note_on_time": 8.121, "note_off_time": 8.196}, {"pitch": 62, "velocity": 80, "note_on_time": 8.807, "note_off_time": 8.881}, {"pitch": 62, "velocity": 78, "note_on_time": 9.07, "note_off_time": 9.154}, {"pitch": 62, "velocity": 81, "note_on_time": 9.332, "note_off_time": 9.407}]</notes><guidance name="Guidance Mode">None</guidance><error name="Error value">0.07798695652173909</error></trial><trial trial_no="3" timestamp="2022_08_17-12_20_17"><notes name="Played Notes">[{"pitch": 62, "velocity": 77, "note_on_time": 1.089, "note_off_time": 1.35}, {"pitch": 67, "velocity": 73, "note_on_time": 2.154, "note_off_time": 2.257}, {"pitch": 67, "velocity": 76, "note_on_time": 2.423, "note_off_time": 2.505}, {"pitch": 67, "velocity": 65, "note_on_time": 2.683, "note_off_time": 2.779}, {"pitch": 60, "velocity": 74, "note_on_time": 2.93, "note_off_time": 3.012}, {"pitch": 65, "velocity": 75, "note_on_time": 3.204, "note_off_time": 3.269}, {"pitch": 62, "velocity": 68, "note_on_time": 3.46, "note_off_time": 3.524}, {"pitch": 62, "velocity": 71, "note_on_time": 3.721, "note_off_time": 3.782}, {"pitch": 64, "velocity": 71, "note_on_time": 3.969, "note_off_time": 4.032}, {"pitch": 67, "velocity": 78, "note_on_time": 4.249, "note_off_time": 4.481}, {"pitch": 62, "velocity": 70, "note_on_time": 4.783, "note_off_time": 4.861}, {"pitch": 64, "velocity": 65, "note_on_time": 5.051, "note_off_time": 5.109}, {"pitch": 60, "velocity": 76, "note_on_time": 5.319, "note_off_time": 5.413}, {"pitch": 62, "velocity": 68, "note_on_time": 5.564, "note_off_time": 5.635}, {"pitch": 60, "velocity": 74, "note_on_time": 5.843, "note_off_time": 5.931}, {"pitch": 64, "velocity": 68, "note_on_time": 6.101, "note_off_time": 6.16}, {"pitch": 60, "velocity": 65, "note_on_time": 6.372, "note_off_time": 6.446}, {"pitch": 60, "velocity": 71, "note_on_time": 6.635, "note_off_time": 6.694}, {"pitch": 67, "velocity": 72, "note_on_time": 6.884, "note_off_time": 6.951}, {"pitch": 65, "velocity": 64, "note_on_time": 7.148, "note_off_time": 7.206}, {"pitch": 62, "velocity": 68, "note_on_time": 7.411, "note_off_time": 7.483}, {"pitch": 62, "velocity": 79, "note_on_time": 7.671, "note_off_time": 7.848}, {"pitch": 62, "velocity": 77, "note_on_time": 8.298, "note_off_time": 8.362}, {"pitch": 62, "velocity": 87, "note_on_time": 8.964, "note_off_time": 9.034}, {"pitch": 62, "velocity": 85, "note_on_time": 9.245, "note_off_time": 9.315}]</notes><guidance name="Guidance Mode">None</guidance><error name="Error value">0.06976956521739128</error></trial><trial trial_no="4" timestamp="2022_08_17-12_20_39"><notes name="Played Notes">[{"pitch": 62, "velocity": 66, "note_on_time": 1.067, "note_off_time": 1.29}, {"pitch": 67, "velocity": 70, "note_on_time": 2.148, "note_off_time": 2.223}, {"pitch": 67, "velocity": 71, "note_on_time": 2.411, "note_off_time": 2.493}, {"pitch": 67, "velocity": 67, "note_on_time": 2.665, "note_off_time": 2.758}, {"pitch": 60, "velocity": 74, "note_on_time": 2.914, "note_off_time": 2.981}, {"pitch": 65, "velocity": 72, "note_on_time": 3.19, "note_off_time": 3.254}, {"pitch": 62, "velocity": 73, "note_on_time": 3.443, "note_off_time": 3.518}, {"pitch": 62, "velocity": 71, "note_on_time": 3.702, "note_off_time": 3.773}, {"pitch": 64, "velocity": 74, "note_on_time": 3.948, "note_off_time": 4.02}, {"pitch": 67, "velocity": 83, "note_on_time": 4.216, "note_off_time": 4.467}, {"pitch": 62, "velocity": 69, "note_on_time": 4.79, "note_off_time": 4.853}, {"pitch": 64, "velocity": 71, "note_on_time": 5.064, "note_off_time": 5.132}, {"pitch": 60, "velocity": 71, "note_on_time": 5.336, "note_off_time": 5.417}, {"pitch": 62, "velocity": 69, "note_on_time": 5.592, "note_off_time": 5.661}, {"pitch": 60, "velocity": 66, "note_on_time": 5.85, "note_off_time": 5.929}, {"pitch": 64, "velocity": 71, "note_on_time": 6.138, "note_off_time": 6.206}, {"pitch": 60, "velocity": 65, "note_on_time": 6.399, "note_off_time": 6.466}, {"pitch": 60, "velocity": 72, "note_on_time": 6.639, "note_off_time": 6.711}, {"pitch": 67, "velocity": 59, "note_on_time": 6.893, "note_off_time": 6.954}, {"pitch": 65, "velocity": 66, "note_on_time": 7.164, "note_off_time": 7.222}, {"pitch": 62, "velocity": 69, "note_on_time": 7.426, "note_off_time": 7.477}, {"pitch": 62, "velocity": 79, "note_on_time": 7.701, "note_off_time": 7.908}, {"pitch": 62, "velocity": 74, "note_on_time": 8.311, "note_off_time": 8.374}, {"pitch": 62, "velocity": 81, "note_on_time": 8.949, "note_off_time": 9.039}, {"pitch": 62, "velocity": 69, "note_on_time": 9.24, "note_off_time": 9.316}]</notes><guidance name="Guidance Mode">None</guidance><error name="Error value">0.07261652173913055</error></trial></trials></MIDI>