<MIDI midiNo="2022_11_23-17_06_26"><target_notes><notes name="Note List">[{"pitch": 42, "velocity": 80, "note_on_time": 0.005, "note_off_time": 0.233}, {"pitch": 42, "velocity": 80, "note_on_time": 0.233, "note_off_time": 0.449}, {"pitch": 42, "velocity": 80, "note_on_time": 0.449, "note_off_time": 0.669}, {"pitch": 42, "velocity": 80, "note_on_time": 0.669, "note_off_time": 0.888}, {"pitch": 65, "velocity": 80, "note_on_time": 0.888, "note_off_time": 1.107}, {"pitch": 42, "velocity": 80, "note_on_time": 0.888, "note_off_time": 1.107}, {"pitch": 67, "velocity": 80, "note_on_time": 1.107, "note_off_time": 1.324}, {"pitch": 42, "velocity": 80, "note_on_time": 1.107, "note_off_time": 1.324}, {"pitch": 42, "velocity": 80, "note_on_time": 1.324, "note_off_time": 1.544}, {"pitch": 62, "velocity": 80, "note_on_time": 1.324, "note_off_time": 1.761}, {"pitch": 42, "velocity": 80, "note_on_time": 1.544, "note_off_time": 1.761}, {"pitch": 67, "velocity": 80, "note_on_time": 1.761, "note_off_time": 1.98}, {"pitch": 42, "velocity": 80, "note_on_time": 1.761, "note_off_time": 1.98}, {"pitch": 64, "velocity": 80, "note_on_time": 1.98, "note_off_time": 2.195}, {"pitch": 42, "velocity": 80, "note_on_time": 1.98, "note_off_time": 2.195}, {"pitch": 64, "velocity": 80, "note_on_time": 2.195, "note_off_time": 2.412}, {"pitch": 42, "velocity": 80, "note_on_time": 2.195, "note_off_time": 2.412}, {"pitch": 62, "velocity": 80, "note_on_time": 2.412, "note_off_time": 2.627}, {"pitch": 42, "velocity": 80, "note_on_time": 2.412, "note_off_time": 2.627}, {"pitch": 42, "velocity": 80, "note_on_time": 2.628, "note_off_time": 2.843}, {"pitch": 65, "velocity": 80, "note_on_time": 2.627, "note_off_time": 3.06}, {"pitch": 42, "velocity": 80, "note_on_time": 2.843, "note_off_time": 3.06}, {"pitch": 42, "velocity": 80, "note_on_time": 3.06, "note_off_time": 3.277}, {"pitch": 42, "velocity": 80, "note_on_time": 3.277, "note_off_time": 3.494}, {"pitch": 64, "velocity": 80, "note_on_time": 3.494, "note_off_time": 3.711}, {"pitch": 42, "velocity": 80, "note_on_time": 3.494, "note_off_time": 3.711}, {"pitch": 65, "velocity": 80, "note_on_time": 3.711, "note_off_time": 3.93}, {"pitch": 42, "velocity": 80, "note_on_time": 3.711, "note_off_time": 3.93}, {"pitch": 67, "velocity": 80, "note_on_time": 3.93, "note_off_time": 4.147}, {"pitch": 42, "velocity": 80, "note_on_time": 3.93, "note_off_time": 4.147}, {"pitch": 67, "velocity": 80, "note_on_time": 4.147, "note_off_time": 4.366}, {"pitch": 42, "velocity": 80, "note_on_time": 4.147, "note_off_time": 4.366}, {"pitch": 62, "velocity": 80, "note_on_time": 4.366, "note_off_time": 4.584}, {"pitch": 42, "velocity": 80, "note_on_time": 4.366, "note_off_time": 4.584}, {"pitch": 42, "velocity": 80, "note_on_time": 4.584, "note_off_time": 4.802}, {"pitch": 60, "velocity": 80, "note_on_time": 4.584, "note_off_time": 5.019}, {"pitch": 42, "velocity": 80, "note_on_time": 4.802, "note_off_time": 5.019}, {"pitch": 42, "velocity": 80, "note_on_time": 5.019, "note_off_time": 5.238}, {"pitch": 67, "velocity": 80, "note_on_time": 5.238, "note_off_time": 5.455}, {"pitch": 42, "velocity": 80, "note_on_time": 5.238, "note_off_time": 5.455}, {"pitch": 62, "velocity": 80, "note_on_time": 5.455, "note_off_time": 5.673}, {"pitch": 42, "velocity": 80, "note_on_time": 5.455, "note_off_time": 5.673}, {"pitch": 60, "velocity": 80, "note_on_time": 5.673, "note_off_time": 5.89}, {"pitch": 42, "velocity": 80, "note_on_time": 5.673, "note_off_time": 5.89}, {"pitch": 65, "velocity": 80, "note_on_time": 5.89, "note_off_time": 6.108}, {"pitch": 42, "velocity": 80, "note_on_time": 5.89, "note_off_time": 6.108}, {"pitch": 42, "velocity": 80, "note_on_time": 6.108, "note_off_time": 6.326}, {"pitch": 60, "velocity": 80, "note_on_time": 6.108, "note_off_time": 6.544}, {"pitch": 42, "velocity": 80, "note_on_time": 6.326, "note_off_time": 6.544}, {"pitch": 67, "velocity": 80, "note_on_time": 6.544, "note_off_time": 6.762}, {"pitch": 42, "velocity": 80, "note_on_time": 6.544, "note_off_time": 6.762}, {"pitch": 42, "velocity": 80, "note_on_time": 6.762, "note_off_time": 6.98}, {"pitch": 42, "velocity": 80, "note_on_time": 6.98, "note_off_time": 7.198}, {"pitch": 67, "velocity": 80, "note_on_time": 7.198, "note_off_time": 7.415}, {"pitch": 42, "velocity": 80, "note_on_time": 7.198, "note_off_time": 7.415}, {"pitch": 67, "velocity": 80, "note_on_time": 7.415, "note_off_time": 7.635}, {"pitch": 42, "velocity": 80, "note_on_time": 7.415, "note_off_time": 7.635}, {"pitch": 67, "velocity": 80, "note_on_time": 7.635, "note_off_time": 7.852}, {"pitch": 42, "velocity": 80, "note_on_time": 7.635, "note_off_time": 7.852}]</notes><options name="Option List">((4, 4), [0.5, 0.25], 3, 8, &lt;NoteRangePerHand.C_TO_G: 6&gt;, &lt;NoteRangePerHand.ONE_NOTE: 2&gt;, False, True, True, 281)</options></target_notes><trials><trial trial_no="1" timestamp="2022_11_23-17_06_17"><notes name="Played Notes">[{"pitch": 65, "velocity": 88, "note_on_time": 0.945, "note_off_time": 1.169}, {"pitch": 67, "velocity": 71, "note_on_time": 1.168, "note_off_time": 1.437}, {"pitch": 62, "velocity": 84, "note_on_time": 1.429, "note_off_time": 1.662}, {"pitch": 67, "velocity": 74, "note_on_time": 1.922, "note_off_time": 2.186}, {"pitch": 64, "velocity": 68, "note_on_time": 2.165, "note_off_time": 2.253}, {"pitch": 64, "velocity": 77, "note_on_time": 2.409, "note_off_time": 2.616}, {"pitch": 62, "velocity": 67, "note_on_time": 2.626, "note_off_time": 2.761}, {"pitch": 65, "velocity": 86, "note_on_time": 2.886, "note_off_time": 3.185}, {"pitch": 64, "velocity": 82, "note_on_time": 3.778, "note_off_time": 4.02}, {"pitch": 65, "velocity": 71, "note_on_time": 4.006, "note_off_time": 4.229}, {"pitch": 67, "velocity": 71, "note_on_time": 4.224, "note_off_time": 4.337}, {"pitch": 67, "velocity": 71, "note_on_time": 4.458, "note_off_time": 4.624}, {"pitch": 62, "velocity": 46, "note_on_time": 4.707, "note_off_time": 4.898}, {"pitch": 60, "velocity": 72, "note_on_time": 4.926, "note_off_time": 5.045}, {"pitch": 67, "velocity": 77, "note_on_time": 5.165, "note_off_time": 5.368}, {"pitch": 62, "velocity": 75, "note_on_time": 5.652, "note_off_time": 5.873}, {"pitch": 60, "velocity": 77, "note_on_time": 6.061, "note_off_time": 6.296}, {"pitch": 65, "velocity": 79, "note_on_time": 6.522, "note_off_time": 6.755}, {"pitch": 60, "velocity": 76, "note_on_time": 6.958, "note_off_time": 7.269}]</notes><guidance name="Guidance Mode">None</guidance><error name="Error value">0.4414623500000001</error></trial><trial trial_no="2" timestamp="2022_11_23-17_12_49"><notes name="Played Notes">[{"pitch": 62, "velocity": 79, "note_on_time": 0.919, "note_off_time": 1.154}, {"pitch": 65, "velocity": 78, "note_on_time": 1.133, "note_off_time": 1.362}, {"pitch": 67, "velocity": 73, "note_on_time": 1.356, "note_off_time": 1.585}, {"pitch": 67, "velocity": 72, "note_on_time": 1.798, "note_off_time": 2.046}, {"pitch": 65, "velocity": 73, "note_on_time": 2.022, "note_off_time": 2.265}, {"pitch": 62, "velocity": 73, "note_on_time": 2.247, "note_off_time": 2.428}, {"pitch": 62, "velocity": 77, "note_on_time": 2.69, "note_off_time": 2.883}, {"pitch": 60, "velocity": 73, "note_on_time": 2.89, "note_off_time": 2.974}, {"pitch": 60, "velocity": 78, "note_on_time": 3.129, "note_off_time": 3.22}, {"pitch": 60, "velocity": 70, "note_on_time": 3.353, "note_off_time": 3.457}, {"pitch": 64, "velocity": 72, "note_on_time": 3.566, "note_off_time": 3.786}, {"pitch": 65, "velocity": 74, "note_on_time": 3.786, "note_off_time": 3.942}, {"pitch": 60, "velocity": 74, "note_on_time": 3.985, "note_off_time": 4.08}, {"pitch": 60, "velocity": 74, "note_on_time": 4.216, "note_off_time": 4.301}, {"pitch": 64, "velocity": 78, "note_on_time": 4.434, "note_off_time": 4.606}, {"pitch": 62, "velocity": 54, "note_on_time": 4.651, "note_off_time": 4.81}, {"pitch": 64, "velocity": 68, "note_on_time": 4.847, "note_off_time": 5.062}, {"pitch": 62, "velocity": 64, "note_on_time": 5.076, "note_off_time": 5.247}, {"pitch": 60, "velocity": 68, "note_on_time": 5.287, "note_off_time": 5.36}, {"pitch": 60, "velocity": 66, "note_on_time": 5.494, "note_off_time": 5.589}, {"pitch": 62, "velocity": 66, "note_on_time": 5.726, "note_off_time": 5.864}, {"pitch": 60, "velocity": 68, "note_on_time": 5.91, "note_off_time": 5.999}, {"pitch": 64, "velocity": 76, "note_on_time": 6.14, "note_off_time": 6.321}, {"pitch": 67, "velocity": 81, "note_on_time": 6.345, "note_off_time": 6.492}, {"pitch": 67, "velocity": 82, "note_on_time": 7.021, "note_off_time": 7.121}, {"pitch": 67, "velocity": 68, "note_on_time": 7.225, "note_off_time": 7.316}, {"pitch": 67, "velocity": 85, "note_on_time": 7.44, "note_off_time": 7.592}]</notes><guidance name="Guidance Mode">None</guidance><error name="Error value">1.3591215499999991</error></trial></trials></MIDI>