<MIDI midiNo="2022_12_22-12_12_55"><target_notes><notes name="Note List">[{"pitch": 42, "velocity": 80, "note_on_time": 0.004, "note_off_time": 0.273}, {"pitch": 42, "velocity": 80, "note_on_time": 0.273, "note_off_time": 0.538}, {"pitch": 42, "velocity": 80, "note_on_time": 0.539, "note_off_time": 0.803}, {"pitch": 42, "velocity": 80, "note_on_time": 0.804, "note_off_time": 1.067}, {"pitch": 67, "velocity": 80, "note_on_time": 1.067, "note_off_time": 1.332}, {"pitch": 42, "velocity": 80, "note_on_time": 1.067, "note_off_time": 1.332}, {"pitch": 42, "velocity": 80, "note_on_time": 1.332, "note_off_time": 1.596}, {"pitch": 67, "velocity": 80, "note_on_time": 1.332, "note_off_time": 1.86}, {"pitch": 42, "velocity": 80, "note_on_time": 1.597, "note_off_time": 1.86}, {"pitch": 62, "velocity": 80, "note_on_time": 1.86, "note_off_time": 2.123}, {"pitch": 42, "velocity": 80, "note_on_time": 1.861, "note_off_time": 2.123}, {"pitch": 67, "velocity": 80, "note_on_time": 2.123, "note_off_time": 2.389}, {"pitch": 42, "velocity": 80, "note_on_time": 2.123, "note_off_time": 2.389}, {"pitch": 42, "velocity": 80, "note_on_time": 2.389, "note_off_time": 2.653}, {"pitch": 42, "velocity": 80, "note_on_time": 2.654, "note_off_time": 2.918}, {"pitch": 42, "velocity": 80, "note_on_time": 2.918, "note_off_time": 3.184}, {"pitch": 64, "velocity": 80, "note_on_time": 3.183, "note_off_time": 3.447}, {"pitch": 42, "velocity": 80, "note_on_time": 3.184, "note_off_time": 3.447}, {"pitch": 67, "velocity": 80, "note_on_time": 3.447, "note_off_time": 3.713}, {"pitch": 42, "velocity": 80, "note_on_time": 3.448, "note_off_time": 3.714}, {"pitch": 42, "velocity": 80, "note_on_time": 3.714, "note_off_time": 3.977}, {"pitch": 65, "velocity": 80, "note_on_time": 3.977, "note_off_time": 4.242}, {"pitch": 42, "velocity": 80, "note_on_time": 3.977, "note_off_time": 4.242}, {"pitch": 67, "velocity": 80, "note_on_time": 4.242, "note_off_time": 4.507}, {"pitch": 42, "velocity": 80, "note_on_time": 4.242, "note_off_time": 4.507}, {"pitch": 64, "velocity": 80, "note_on_time": 4.507, "note_off_time": 4.771}, {"pitch": 42, "velocity": 80, "note_on_time": 4.508, "note_off_time": 4.771}, {"pitch": 65, "velocity": 80, "note_on_time": 4.771, "note_off_time": 5.035}, {"pitch": 42, "velocity": 80, "note_on_time": 4.772, "note_off_time": 5.036}, {"pitch": 60, "velocity": 80, "note_on_time": 5.035, "note_off_time": 5.299}, {"pitch": 42, "velocity": 80, "note_on_time": 5.036, "note_off_time": 5.299}, {"pitch": 64, "velocity": 80, "note_on_time": 5.299, "note_off_time": 5.563}, {"pitch": 42, "velocity": 80, "note_on_time": 5.299, "note_off_time": 5.563}, {"pitch": 42, "velocity": 80, "note_on_time": 5.564, "note_off_time": 5.828}, {"pitch": 42, "velocity": 80, "note_on_time": 5.829, "note_off_time": 6.094}, {"pitch": 67, "velocity": 80, "note_on_time": 5.828, "note_off_time": 6.358}, {"pitch": 42, "velocity": 80, "note_on_time": 6.094, "note_off_time": 6.358}, {"pitch": 65, "velocity": 80, "note_on_time": 6.358, "note_off_time": 6.622}, {"pitch": 42, "velocity": 80, "note_on_time": 6.358, "note_off_time": 6.622}, {"pitch": 42, "velocity": 80, "note_on_time": 6.622, "note_off_time": 6.885}, {"pitch": 42, "velocity": 80, "note_on_time": 6.886, "note_off_time": 7.148}, {"pitch": 42, "velocity": 80, "note_on_time": 7.149, "note_off_time": 7.411}, {"pitch": 67, "velocity": 80, "note_on_time": 7.411, "note_off_time": 7.675}, {"pitch": 42, "velocity": 80, "note_on_time": 7.411, "note_off_time": 7.675}, {"pitch": 42, "velocity": 80, "note_on_time": 7.676, "note_off_time": 7.94}, {"pitch": 60, "velocity": 80, "note_on_time": 7.675, "note_off_time": 8.202}, {"pitch": 42, "velocity": 80, "note_on_time": 7.94, "note_off_time": 8.203}, {"pitch": 67, "velocity": 80, "note_on_time": 8.202, "note_off_time": 8.465}, {"pitch": 42, "velocity": 80, "note_on_time": 8.203, "note_off_time": 8.465}, {"pitch": 42, "velocity": 80, "note_on_time": 8.465, "note_off_time": 8.73}, {"pitch": 67, "velocity": 80, "note_on_time": 8.729, "note_off_time": 8.993}, {"pitch": 42, "velocity": 80, "note_on_time": 8.73, "note_off_time": 8.994}, {"pitch": 67, "velocity": 80, "note_on_time": 8.993, "note_off_time": 9.256}, {"pitch": 42, "velocity": 80, "note_on_time": 8.994, "note_off_time": 9.257}, {"pitch": 67, "velocity": 80, "note_on_time": 9.256, "note_off_time": 9.522}, {"pitch": 42, "velocity": 80, "note_on_time": 9.257, "note_off_time": 9.523}]</notes><options name="Option List">((4, 4), [0.5, 0.25], 3, 8, &lt;NoteRangePerHand.C_TO_G: 6&gt;, &lt;NoteRangePerHand.ONE_NOTE: 2&gt;, False, True, False, '232')</options></target_notes><trials><trial trial_no="1" timestamp="2022_12_22-12_12_44"><notes name="Played Notes">[{"pitch": 67, "velocity": 74, "note_on_time": 1.102, "note_off_time": 1.208}, {"pitch": 67, "velocity": 69, "note_on_time": 1.307, "note_off_time": 1.921}, {"pitch": 60, "velocity": 72, "note_on_time": 2.057, "note_off_time": 2.208}]</notes><guidance name="Guidance Mode">None</guidance><error name="Error value">1.3615611764705882</error></trial><trial trial_no="2" timestamp="2022_12_22-12_13_16"><notes name="Played Notes">[{"pitch": 67, "velocity": 63, "note_on_time": 1.088, "note_off_time": 1.208}, {"pitch": 67, "velocity": 57, "note_on_time": 1.328, "note_off_time": 2.023}, {"pitch": 62, "velocity": 61, "note_on_time": 2.104, "note_off_time": 2.308}, {"pitch": 67, "velocity": 64, "note_on_time": 2.346, "note_off_time": 2.533}, {"pitch": 64, "velocity": 67, "note_on_time": 3.203, "note_off_time": 3.462}, {"pitch": 67, "velocity": 77, "note_on_time": 3.455, "note_off_time": 3.624}, {"pitch": 65, "velocity": 75, "note_on_time": 4.231, "note_off_time": 4.471}, {"pitch": 67, "velocity": 63, "note_on_time": 4.475, "note_off_time": 4.668}, {"pitch": 64, "velocity": 71, "note_on_time": 4.783, "note_off_time": 5.019}, {"pitch": 65, "velocity": 71, "note_on_time": 5.031, "note_off_time": 5.269}, {"pitch": 60, "velocity": 81, "note_on_time": 5.312, "note_off_time": 5.548}, {"pitch": 64, "velocity": 77, "note_on_time": 5.551, "note_off_time": 5.848}, {"pitch": 67, "velocity": 83, "note_on_time": 6.358, "note_off_time": 6.89}, {"pitch": 65, "velocity": 71, "note_on_time": 7.447, "note_off_time": 7.658}, {"pitch": 67, "velocity": 58, "note_on_time": 7.727, "note_off_time": 7.992}, {"pitch": 60, "velocity": 70, "note_on_time": 8.022, "note_off_time": 8.219}, {"pitch": 67, "velocity": 74, "note_on_time": 8.243, "note_off_time": 8.407}, {"pitch": 67, "velocity": 32, "note_on_time": 8.652, "note_off_time": 8.747}, {"pitch": 67, "velocity": 88, "note_on_time": 8.96, "note_off_time": 9.064}, {"pitch": 67, "velocity": 82, "note_on_time": 9.225, "note_off_time": 9.354}]</notes><guidance name="Guidance Mode">None</guidance><error name="Error value">0.17447647058823548</error></trial><trial trial_no="3" timestamp="2022_12_22-12_13_38"><notes name="Played Notes">[{"pitch": 67, "velocity": 70, "note_on_time": 1.069, "note_off_time": 1.18}, {"pitch": 67, "velocity": 83, "note_on_time": 1.335, "note_off_time": 1.859}, {"pitch": 62, "velocity": 78, "note_on_time": 2.1, "note_off_time": 2.3}, {"pitch": 67, "velocity": 78, "note_on_time": 2.352, "note_off_time": 2.568}, {"pitch": 64, "velocity": 71, "note_on_time": 3.223, "note_off_time": 3.447}, {"pitch": 67, "velocity": 83, "note_on_time": 3.46, "note_off_time": 3.598}, {"pitch": 65, "velocity": 70, "note_on_time": 3.834, "note_off_time": 4.0}, {"pitch": 67, "velocity": 83, "note_on_time": 4.463, "note_off_time": 4.667}, {"pitch": 64, "velocity": 76, "note_on_time": 5.302, "note_off_time": 5.444}, {"pitch": 65, "velocity": 88, "note_on_time": 5.542, "note_off_time": 5.776}, {"pitch": 60, "velocity": 80, "note_on_time": 5.828, "note_off_time": 6.06}, {"pitch": 64, "velocity": 68, "note_on_time": 6.083, "note_off_time": 6.312}, {"pitch": 67, "velocity": 82, "note_on_time": 6.905, "note_off_time": 7.479}, {"pitch": 64, "velocity": 55, "note_on_time": 8.011, "note_off_time": 8.065}, {"pitch": 65, "velocity": 56, "note_on_time": 8.06, "note_off_time": 8.278}, {"pitch": 67, "velocity": 59, "note_on_time": 8.287, "note_off_time": 8.57}, {"pitch": 60, "velocity": 89, "note_on_time": 8.981, "note_off_time": 9.477}]</notes><guidance name="Guidance Mode">None</guidance><error name="Error value">0.5423505882352943</error></trial></trials></MIDI>