<MIDI midiNo="2022_04_28-16_48_02"><target_notes><notes name="Note List">[{"pitch": 39, "velocity": 100, "note_on_time": 0.004, "note_off_time": 0.309}, {"pitch": 42, "velocity": 100, "note_on_time": 0.309, "note_off_time": 0.62}, {"pitch": 42, "velocity": 100, "note_on_time": 0.62, "note_off_time": 0.931}, {"pitch": 42, "velocity": 100, "note_on_time": 0.931, "note_off_time": 1.243}, {"pitch": 60, "velocity": 100, "note_on_time": 1.242, "note_off_time": 1.397}, {"pitch": 60, "velocity": 100, "note_on_time": 1.397, "note_off_time": 1.554}, {"pitch": 39, "velocity": 100, "note_on_time": 1.243, "note_off_time": 1.554}, {"pitch": 67, "velocity": 100, "note_on_time": 1.554, "note_off_time": 1.864}, {"pitch": 42, "velocity": 100, "note_on_time": 1.555, "note_off_time": 1.864}, {"pitch": 67, "velocity": 100, "note_on_time": 1.864, "note_off_time": 2.176}, {"pitch": 42, "velocity": 100, "note_on_time": 1.864, "note_off_time": 2.176}, {"pitch": 60, "velocity": 100, "note_on_time": 2.176, "note_off_time": 2.331}, {"pitch": 65, "velocity": 100, "note_on_time": 2.331, "note_off_time": 2.486}, {"pitch": 42, "velocity": 100, "note_on_time": 2.176, "note_off_time": 2.486}, {"pitch": 65, "velocity": 100, "note_on_time": 2.486, "note_off_time": 2.797}, {"pitch": 39, "velocity": 100, "note_on_time": 2.487, "note_off_time": 2.797}, {"pitch": 64, "velocity": 100, "note_on_time": 2.797, "note_off_time": 2.954}, {"pitch": 62, "velocity": 100, "note_on_time": 2.954, "note_off_time": 3.109}, {"pitch": 42, "velocity": 100, "note_on_time": 2.798, "note_off_time": 3.109}, {"pitch": 62, "velocity": 100, "note_on_time": 3.109, "note_off_time": 3.42}, {"pitch": 42, "velocity": 100, "note_on_time": 3.109, "note_off_time": 3.421}, {"pitch": 60, "velocity": 100, "note_on_time": 3.42, "note_off_time": 3.575}, {"pitch": 62, "velocity": 100, "note_on_time": 3.575, "note_off_time": 3.732}, {"pitch": 42, "velocity": 100, "note_on_time": 3.421, "note_off_time": 3.732}, {"pitch": 67, "velocity": 100, "note_on_time": 3.732, "note_off_time": 3.889}, {"pitch": 67, "velocity": 100, "note_on_time": 3.889, "note_off_time": 4.044}, {"pitch": 39, "velocity": 100, "note_on_time": 3.732, "note_off_time": 4.044}, {"pitch": 64, "velocity": 100, "note_on_time": 4.044, "note_off_time": 4.357}, {"pitch": 42, "velocity": 100, "note_on_time": 4.045, "note_off_time": 4.357}, {"pitch": 42, "velocity": 100, "note_on_time": 4.358, "note_off_time": 4.668}, {"pitch": 60, "velocity": 100, "note_on_time": 4.357, "note_off_time": 4.98}, {"pitch": 42, "velocity": 100, "note_on_time": 4.669, "note_off_time": 4.98}, {"pitch": 62, "velocity": 100, "note_on_time": 4.98, "note_off_time": 5.291}, {"pitch": 39, "velocity": 100, "note_on_time": 4.98, "note_off_time": 5.292}, {"pitch": 65, "velocity": 100, "note_on_time": 5.291, "note_off_time": 5.604}, {"pitch": 42, "velocity": 100, "note_on_time": 5.294, "note_off_time": 5.604}, {"pitch": 60, "velocity": 100, "note_on_time": 5.604, "note_off_time": 5.76}, {"pitch": 60, "velocity": 100, "note_on_time": 5.76, "note_off_time": 5.916}, {"pitch": 42, "velocity": 100, "note_on_time": 5.604, "note_off_time": 5.916}, {"pitch": 67, "velocity": 100, "note_on_time": 5.916, "note_off_time": 6.228}, {"pitch": 42, "velocity": 100, "note_on_time": 5.916, "note_off_time": 6.228}, {"pitch": 39, "velocity": 100, "note_on_time": 6.229, "note_off_time": 6.541}, {"pitch": 65, "velocity": 100, "note_on_time": 6.228, "note_off_time": 6.852}, {"pitch": 42, "velocity": 100, "note_on_time": 6.541, "note_off_time": 6.852}, {"pitch": 42, "velocity": 100, "note_on_time": 6.852, "note_off_time": 7.165}, {"pitch": 42, "velocity": 100, "note_on_time": 7.166, "note_off_time": 7.479}, {"pitch": 62, "velocity": 100, "note_on_time": 7.478, "note_off_time": 7.791}, {"pitch": 39, "velocity": 100, "note_on_time": 7.479, "note_off_time": 7.792}, {"pitch": 65, "velocity": 100, "note_on_time": 7.791, "note_off_time": 8.103}, {"pitch": 42, "velocity": 100, "note_on_time": 7.792, "note_off_time": 8.104}, {"pitch": 64, "velocity": 100, "note_on_time": 8.103, "note_off_time": 8.414}, {"pitch": 42, "velocity": 100, "note_on_time": 8.104, "note_off_time": 8.414}, {"pitch": 65, "velocity": 100, "note_on_time": 8.414, "note_off_time": 8.57}, {"pitch": 65, "velocity": 100, "note_on_time": 8.57, "note_off_time": 8.725}, {"pitch": 42, "velocity": 100, "note_on_time": 8.415, "note_off_time": 8.726}, {"pitch": 60, "velocity": 100, "note_on_time": 8.725, "note_off_time": 9.037}, {"pitch": 39, "velocity": 100, "note_on_time": 8.726, "note_off_time": 9.037}, {"pitch": 42, "velocity": 100, "note_on_time": 9.037, "note_off_time": 9.352}, {"pitch": 64, "velocity": 100, "note_on_time": 9.037, "note_off_time": 9.664}, {"pitch": 42, "velocity": 100, "note_on_time": 9.352, "note_off_time": 9.664}, {"pitch": 64, "velocity": 100, "note_on_time": 9.664, "note_off_time": 9.975}, {"pitch": 42, "velocity": 100, "note_on_time": 9.664, "note_off_time": 9.975}, {"pitch": 39, "velocity": 100, "note_on_time": 9.975, "note_off_time": 10.288}, {"pitch": 64, "velocity": 100, "note_on_time": 10.288, "note_off_time": 10.6}, {"pitch": 42, "velocity": 100, "note_on_time": 10.288, "note_off_time": 10.6}, {"pitch": 64, "velocity": 100, "note_on_time": 10.6, "note_off_time": 10.912}, {"pitch": 42, "velocity": 100, "note_on_time": 10.6, "note_off_time": 10.912}, {"pitch": 64, "velocity": 100, "note_on_time": 10.912, "note_off_time": 11.222}, {"pitch": 42, "velocity": 100, "note_on_time": 10.912, "note_off_time": 11.222}]</notes><options name="Option List">((4, 4), [0.5, 0.25, 0.125], 3, 8, &lt;NoteRangePerHand.C_TO_G: 6&gt;, &lt;NoteRangePerHand.ONE_NOTE: 2&gt;, False, True, True, '202')</options></target_notes><trials><trial trial_no="1" timestamp="2022_04_28-16_47_49"><notes name="Played Notes">[{"pitch": 60, "velocity": 72, "note_on_time": 1.222, "note_off_time": 1.278}, {"pitch": 60, "velocity": 65, "note_on_time": 1.396, "note_off_time": 1.536}, {"pitch": 67, "velocity": 73, "note_on_time": 1.569, "note_off_time": 1.792}, {"pitch": 67, "velocity": 66, "note_on_time": 1.876, "note_off_time": 2.168}, {"pitch": 60, "velocity": 57, "note_on_time": 2.199, "note_off_time": 2.347}, {"pitch": 65, "velocity": 60, "note_on_time": 2.349, "note_off_time": 2.459}, {"pitch": 65, "velocity": 62, "note_on_time": 2.537, "note_off_time": 2.811}, {"pitch": 64, "velocity": 56, "note_on_time": 2.841, "note_off_time": 2.993}, {"pitch": 62, "velocity": 47, "note_on_time": 2.999, "note_off_time": 3.092}, {"pitch": 62, "velocity": 50, "note_on_time": 3.174, "note_off_time": 3.28}, {"pitch": 64, "velocity": 64, "note_on_time": 3.291, "note_off_time": 3.406}, {"pitch": 62, "velocity": 37, "note_on_time": 3.422, "note_off_time": 3.526}, {"pitch": 64, "velocity": 46, "note_on_time": 3.539, "note_off_time": 3.706}, {"pitch": 65, "velocity": 40, "note_on_time": 3.682, "note_off_time": 3.847}, {"pitch": 67, "velocity": 73, "note_on_time": 3.819, "note_off_time": 4.024}, {"pitch": 64, "velocity": 70, "note_on_time": 4.1, "note_off_time": 4.427}, {"pitch": 60, "velocity": 67, "note_on_time": 4.421, "note_off_time": 4.684}, {"pitch": 62, "velocity": 62, "note_on_time": 4.937, "note_off_time": 5.332}, {"pitch": 65, "velocity": 66, "note_on_time": 5.309, "note_off_time": 5.608}, {"pitch": 60, "velocity": 52, "note_on_time": 5.611, "note_off_time": 5.664}, {"pitch": 60, "velocity": 58, "note_on_time": 5.772, "note_off_time": 5.887}, {"pitch": 67, "velocity": 61, "note_on_time": 5.941, "note_off_time": 6.2}, {"pitch": 65, "velocity": 59, "note_on_time": 6.262, "note_off_time": 6.787}, {"pitch": 62, "velocity": 55, "note_on_time": 7.412, "note_off_time": 7.683}, {"pitch": 65, "velocity": 65, "note_on_time": 7.771, "note_off_time": 8.066}, {"pitch": 64, "velocity": 52, "note_on_time": 8.092, "note_off_time": 8.334}, {"pitch": 65, "velocity": 46, "note_on_time": 8.418, "note_off_time": 8.488}, {"pitch": 65, "velocity": 57, "note_on_time": 8.584, "note_off_time": 8.716}, {"pitch": 60, "velocity": 57, "note_on_time": 8.758, "note_off_time": 9.03}, {"pitch": 64, "velocity": 52, "note_on_time": 9.065, "note_off_time": 9.567}, {"pitch": 64, "velocity": 53, "note_on_time": 9.715, "note_off_time": 10.074}, {"pitch": 64, "velocity": 57, "note_on_time": 10.32, "note_off_time": 10.531}, {"pitch": 64, "velocity": 62, "note_on_time": 10.629, "note_off_time": 10.815}, {"pitch": 64, "velocity": 55, "note_on_time": 10.926, "note_off_time": 11.1}]</notes><guidance name="Guidance Mode">None</guidance><error name="Error value">0.33474653888888906</error></trial><trial trial_no="2" timestamp="2022_04_28-16_48_23"><notes name="Played Notes">[{"pitch": 60, "velocity": 70, "note_on_time": 1.218, "note_off_time": 1.277}, {"pitch": 60, "velocity": 60, "note_on_time": 1.39, "note_off_time": 1.515}, {"pitch": 67, "velocity": 67, "note_on_time": 1.535, "note_off_time": 1.726}, {"pitch": 67, "velocity": 55, "note_on_time": 1.846, "note_off_time": 2.219}, {"pitch": 60, "velocity": 61, "note_on_time": 2.189, "note_off_time": 2.344}, {"pitch": 65, "velocity": 55, "note_on_time": 2.354, "note_off_time": 2.452}, {"pitch": 65, "velocity": 75, "note_on_time": 2.541, "note_off_time": 2.822}, {"pitch": 64, "velocity": 70, "note_on_time": 2.831, "note_off_time": 2.983}, {"pitch": 62, "velocity": 62, "note_on_time": 2.984, "note_off_time": 3.084}, {"pitch": 62, "velocity": 74, "note_on_time": 3.173, "note_off_time": 3.279}, {"pitch": 64, "velocity": 66, "note_on_time": 3.286, "note_off_time": 3.553}, {"pitch": 65, "velocity": 67, "note_on_time": 3.527, "note_off_time": 3.747}, {"pitch": 67, "velocity": 64, "note_on_time": 3.717, "note_off_time": 3.858}, {"pitch": 67, "velocity": 69, "note_on_time": 3.919, "note_off_time": 4.178}, {"pitch": 64, "velocity": 56, "note_on_time": 4.15, "note_off_time": 4.381}, {"pitch": 67, "velocity": 66, "note_on_time": 4.553, "note_off_time": 4.72}, {"pitch": 62, "velocity": 69, "note_on_time": 4.966, "note_off_time": 5.237}, {"pitch": 65, "velocity": 48, "note_on_time": 5.313, "note_off_time": 5.618}, {"pitch": 60, "velocity": 44, "note_on_time": 5.685, "note_off_time": 5.756}, {"pitch": 67, "velocity": 43, "note_on_time": 5.797, "note_off_time": 5.852}, {"pitch": 67, "velocity": 73, "note_on_time": 5.923, "note_off_time": 6.088}, {"pitch": 65, "velocity": 50, "note_on_time": 6.176, "note_off_time": 6.513}, {"pitch": 62, "velocity": 46, "note_on_time": 6.563, "note_off_time": 6.674}, {"pitch": 62, "velocity": 33, "note_on_time": 6.95, "note_off_time": 7.116}, {"pitch": 60, "velocity": 73, "note_on_time": 7.541, "note_off_time": 7.597}, {"pitch": 64, "velocity": 29, "note_on_time": 7.839, "note_off_time": 8.089}, {"pitch": 64, "velocity": 77, "note_on_time": 8.403, "note_off_time": 8.601}, {"pitch": 64, "velocity": 63, "note_on_time": 8.715, "note_off_time": 8.929}, {"pitch": 64, "velocity": 55, "note_on_time": 9.041, "note_off_time": 9.328}, {"pitch": 64, "velocity": 67, "note_on_time": 9.562, "note_off_time": 9.731}]</notes><guidance name="Guidance Mode">None</guidance><error name="Error value">0.5518256111111112</error></trial><trial trial_no="3" timestamp="2022_04_28-16_49_01"><notes name="Played Notes">[{"pitch": 60, "velocity": 73, "note_on_time": 1.21, "note_off_time": 1.269}, {"pitch": 60, "velocity": 67, "note_on_time": 1.371, "note_off_time": 1.488}, {"pitch": 67, "velocity": 74, "note_on_time": 1.508, "note_off_time": 1.698}, {"pitch": 67, "velocity": 71, "note_on_time": 1.819, "note_off_time": 2.151}, {"pitch": 60, "velocity": 67, "note_on_time": 2.162, "note_off_time": 2.327}, {"pitch": 65, "velocity": 67, "note_on_time": 2.341, "note_off_time": 2.433}, {"pitch": 65, "velocity": 81, "note_on_time": 2.511, "note_off_time": 2.788}, {"pitch": 64, "velocity": 70, "note_on_time": 2.801, "note_off_time": 2.921}, {"pitch": 62, "velocity": 56, "note_on_time": 2.938, "note_off_time": 3.045}, {"pitch": 64, "velocity": 33, "note_on_time": 3.378, "note_off_time": 3.423}, {"pitch": 62, "velocity": 68, "note_on_time": 3.137, "note_off_time": 3.428}, {"pitch": 60, "velocity": 80, "note_on_time": 3.472, "note_off_time": 3.647}, {"pitch": 62, "velocity": 40, "note_on_time": 3.685, "note_off_time": 3.795}, {"pitch": 67, "velocity": 81, "note_on_time": 3.804, "note_off_time": 4.053}, {"pitch": 64, "velocity": 64, "note_on_time": 4.016, "note_off_time": 4.408}, {"pitch": 60, "velocity": 74, "note_on_time": 4.37, "note_off_time": 4.608}, {"pitch": 62, "velocity": 63, "note_on_time": 4.688, "note_off_time": 5.02}, {"pitch": 65, "velocity": 70, "note_on_time": 5.003, "note_off_time": 5.579}, {"pitch": 60, "velocity": 60, "note_on_time": 5.776, "note_off_time": 5.841}, {"pitch": 62, "velocity": 59, "note_on_time": 6.622, "note_off_time": 6.9}, {"pitch": 60, "velocity": 59, "note_on_time": 7.538, "note_off_time": 7.802}, {"pitch": 64, "velocity": 75, "note_on_time": 8.141, "note_off_time": 8.361}, {"pitch": 64, "velocity": 71, "note_on_time": 8.479, "note_off_time": 8.641}, {"pitch": 64, "velocity": 100, "note_on_time": 8.785, "note_off_time": 8.937}, {"pitch": 64, "velocity": 87, "note_on_time": 9.428, "note_off_time": 9.526}, {"pitch": 64, "velocity": 69, "note_on_time": 10.02, "note_off_time": 10.157}, {"pitch": 64, "velocity": 81, "note_on_time": 10.557, "note_off_time": 10.629}, {"pitch": 64, "velocity": 88, "note_on_time": 10.708, "note_off_time": 10.816}]</notes><guidance name="Guidance Mode">None</guidance><error name="Error value">0.6778607583333336</error></trial><trial trial_no="4" timestamp="2022_04_28-16_49_33"><notes name="Played Notes">[{"pitch": 60, "velocity": 70, "note_on_time": 1.245, "note_off_time": 1.302}, {"pitch": 60, "velocity": 77, "note_on_time": 1.39, "note_off_time": 1.52}, {"pitch": 67, "velocity": 75, "note_on_time": 1.572, "note_off_time": 1.751}, {"pitch": 67, "velocity": 64, "note_on_time": 1.87, "note_off_time": 2.205}, {"pitch": 60, "velocity": 62, "note_on_time": 2.209, "note_off_time": 2.351}, {"pitch": 65, "velocity": 67, "note_on_time": 2.377, "note_off_time": 2.481}, {"pitch": 65, "velocity": 62, "note_on_time": 2.551, "note_off_time": 2.821}, {"pitch": 64, "velocity": 68, "note_on_time": 2.826, "note_off_time": 2.955}, {"pitch": 62, "velocity": 62, "note_on_time": 2.976, "note_off_time": 3.058}, {"pitch": 62, "velocity": 71, "note_on_time": 3.148, "note_off_time": 3.36}, {"pitch": 64, "velocity": 13, "note_on_time": 3.478, "note_off_time": 3.643}, {"pitch": 67, "velocity": 68, "note_on_time": 3.757, "note_off_time": 3.899}, {"pitch": 67, "velocity": 51, "note_on_time": 3.939, "note_off_time": 4.106}, {"pitch": 64, "velocity": 72, "note_on_time": 4.104, "note_off_time": 4.369}, {"pitch": 60, "velocity": 45, "note_on_time": 4.378, "note_off_time": 4.618}, {"pitch": 60, "velocity": 74, "note_on_time": 4.701, "note_off_time": 4.846}, {"pitch": 65, "velocity": 72, "note_on_time": 5.036, "note_off_time": 5.284}, {"pitch": 60, "velocity": 65, "note_on_time": 5.306, "note_off_time": 5.365}, {"pitch": 60, "velocity": 66, "note_on_time": 5.465, "note_off_time": 5.588}, {"pitch": 67, "velocity": 74, "note_on_time": 5.63, "note_off_time": 5.819}, {"pitch": 65, "velocity": 79, "note_on_time": 5.917, "note_off_time": 6.378}, {"pitch": 62, "velocity": 90, "note_on_time": 7.424, "note_off_time": 7.73}, {"pitch": 65, "velocity": 79, "note_on_time": 7.787, "note_off_time": 8.09}, {"pitch": 64, "velocity": 74, "note_on_time": 8.084, "note_off_time": 8.306}, {"pitch": 65, "velocity": 65, "note_on_time": 8.397, "note_off_time": 8.47}, {"pitch": 65, "velocity": 72, "note_on_time": 8.558, "note_off_time": 8.716}, {"pitch": 60, "velocity": 76, "note_on_time": 8.715, "note_off_time": 9.037}, {"pitch": 64, "velocity": 66, "note_on_time": 9.04, "note_off_time": 9.235}, {"pitch": 64, "velocity": 63, "note_on_time": 9.331, "note_off_time": 9.829}, {"pitch": 64, "velocity": 73, "note_on_time": 10.261, "note_off_time": 10.411}, {"pitch": 64, "velocity": 74, "note_on_time": 10.577, "note_off_time": 10.715}, {"pitch": 64, "velocity": 76, "note_on_time": 10.901, "note_off_time": 11.124}]</notes><guidance name="Guidance Mode">None</guidance><error name="Error value">0.2421667083333334</error></trial><trial trial_no="5" timestamp="2022_04_28-16_50_43"><notes name="Played Notes">[{"pitch": 60, "velocity": 71, "note_on_time": 1.257, "note_off_time": 1.557}, {"pitch": 67, "velocity": 71, "note_on_time": 1.567, "note_off_time": 1.672}, {"pitch": 67, "velocity": 85, "note_on_time": 1.745, "note_off_time": 1.897}, {"pitch": 60, "velocity": 79, "note_on_time": 1.92, "note_off_time": 2.206}, {"pitch": 65, "velocity": 64, "note_on_time": 2.188, "note_off_time": 2.439}, {"pitch": 65, "velocity": 75, "note_on_time": 2.529, "note_off_time": 2.813}, {"pitch": 64, "velocity": 67, "note_on_time": 2.823, "note_off_time": 2.979}, {"pitch": 62, "velocity": 51, "note_on_time": 2.989, "note_off_time": 3.059}, {"pitch": 62, "velocity": 66, "note_on_time": 3.139, "note_off_time": 3.299}, {"pitch": 65, "velocity": 67, "note_on_time": 3.321, "note_off_time": 3.464}, {"pitch": 67, "velocity": 79, "note_on_time": 3.482, "note_off_time": 3.697}, {"pitch": 67, "velocity": 84, "note_on_time": 3.773, "note_off_time": 4.141}, {"pitch": 60, "velocity": 57, "note_on_time": 4.002, "note_off_time": 4.299}, {"pitch": 62, "velocity": 72, "note_on_time": 4.399, "note_off_time": 4.658}, {"pitch": 62, "velocity": 59, "note_on_time": 4.971, "note_off_time": 5.328}, {"pitch": 65, "velocity": 59, "note_on_time": 5.304, "note_off_time": 5.584}, {"pitch": 60, "velocity": 59, "note_on_time": 5.606, "note_off_time": 5.673}, {"pitch": 60, "velocity": 65, "note_on_time": 5.778, "note_off_time": 5.931}, {"pitch": 67, "velocity": 68, "note_on_time": 5.941, "note_off_time": 6.174}, {"pitch": 65, "velocity": 67, "note_on_time": 6.244, "note_off_time": 6.906}, {"pitch": 62, "velocity": 64, "note_on_time": 7.414, "note_off_time": 7.752}, {"pitch": 65, "velocity": 68, "note_on_time": 7.755, "note_off_time": 8.074}, {"pitch": 64, "velocity": 58, "note_on_time": 8.072, "note_off_time": 8.343}, {"pitch": 65, "velocity": 68, "note_on_time": 8.381, "note_off_time": 8.45}, {"pitch": 65, "velocity": 63, "note_on_time": 8.543, "note_off_time": 8.673}, {"pitch": 60, "velocity": 64, "note_on_time": 8.708, "note_off_time": 9.045}, {"pitch": 64, "velocity": 62, "note_on_time": 9.033, "note_off_time": 9.544}, {"pitch": 64, "velocity": 67, "note_on_time": 9.647, "note_off_time": 9.85}, {"pitch": 64, "velocity": 63, "note_on_time": 10.276, "note_off_time": 10.426}, {"pitch": 64, "velocity": 56, "note_on_time": 10.589, "note_off_time": 10.724}, {"pitch": 64, "velocity": 62, "note_on_time": 10.89, "note_off_time": 11.11}]</notes><guidance name="Guidance Mode">None</guidance><error name="Error value">0.3322490333333333</error></trial><trial trial_no="6" timestamp="2022_04_28-16_51_14"><notes name="Played Notes">[{"pitch": 60, "velocity": 68, "note_on_time": 1.251, "note_off_time": 1.316}, {"pitch": 60, "velocity": 69, "note_on_time": 1.417, "note_off_time": 1.58}, {"pitch": 67, "velocity": 70, "note_on_time": 1.589, "note_off_time": 1.851}, {"pitch": 67, "velocity": 70, "note_on_time": 1.916, "note_off_time": 2.24}, {"pitch": 60, "velocity": 64, "note_on_time": 2.231, "note_off_time": 2.406}, {"pitch": 65, "velocity": 60, "note_on_time": 2.395, "note_off_time": 2.876}, {"pitch": 64, "velocity": 74, "note_on_time": 2.873, "note_off_time": 2.989}, {"pitch": 62, "velocity": 62, "note_on_time": 3.029, "note_off_time": 3.123}, {"pitch": 62, "velocity": 44, "note_on_time": 3.194, "note_off_time": 3.427}, {"pitch": 64, "velocity": 59, "note_on_time": 3.38, "note_off_time": 3.597}, {"pitch": 62, "velocity": 46, "note_on_time": 3.591, "note_off_time": 3.641}, {"pitch": 65, "velocity": 67, "note_on_time": 3.627, "note_off_time": 3.924}, {"pitch": 60, "velocity": 70, "note_on_time": 3.923, "note_off_time": 4.136}, {"pitch": 64, "velocity": 59, "note_on_time": 4.225, "note_off_time": 4.446}, {"pitch": 62, "velocity": 84, "note_on_time": 5.051, "note_off_time": 5.348}, {"pitch": 65, "velocity": 62, "note_on_time": 5.351, "note_off_time": 5.686}, {"pitch": 60, "velocity": 45, "note_on_time": 5.685, "note_off_time": 5.731}, {"pitch": 60, "velocity": 67, "note_on_time": 5.829, "note_off_time": 5.949}, {"pitch": 67, "velocity": 73, "note_on_time": 5.998, "note_off_time": 6.205}, {"pitch": 65, "velocity": 65, "note_on_time": 6.299, "note_off_time": 7.015}, {"pitch": 62, "velocity": 68, "note_on_time": 7.469, "note_off_time": 7.781}, {"pitch": 65, "velocity": 61, "note_on_time": 7.785, "note_off_time": 8.085}, {"pitch": 64, "velocity": 50, "note_on_time": 8.116, "note_off_time": 8.423}, {"pitch": 65, "velocity": 55, "note_on_time": 8.415, "note_off_time": 8.477}, {"pitch": 65, "velocity": 57, "note_on_time": 8.569, "note_off_time": 8.711}, {"pitch": 60, "velocity": 57, "note_on_time": 8.746, "note_off_time": 9.063}, {"pitch": 64, "velocity": 56, "note_on_time": 9.069, "note_off_time": 9.539}, {"pitch": 64, "velocity": 62, "note_on_time": 9.674, "note_off_time": 9.989}, {"pitch": 64, "velocity": 60, "note_on_time": 10.336, "note_off_time": 10.48}, {"pitch": 64, "velocity": 58, "note_on_time": 10.638, "note_off_time": 10.767}, {"pitch": 64, "velocity": 72, "note_on_time": 10.928, "note_off_time": 11.128}]</notes><guidance name="Guidance Mode">None</guidance><error name="Error value">0.2913090944444445</error></trial><trial trial_no="7" timestamp="2022_04_28-16_52_19"><notes name="Played Notes">[{"pitch": 60, "velocity": 72, "note_on_time": 1.45, "note_off_time": 1.545}, {"pitch": 60, "velocity": 72, "note_on_time": 1.639, "note_off_time": 1.808}, {"pitch": 67, "velocity": 75, "note_on_time": 1.837, "note_off_time": 2.089}, {"pitch": 67, "velocity": 62, "note_on_time": 2.194, "note_off_time": 2.592}, {"pitch": 60, "velocity": 66, "note_on_time": 2.576, "note_off_time": 2.784}, {"pitch": 65, "velocity": 62, "note_on_time": 2.794, "note_off_time": 2.913}, {"pitch": 65, "velocity": 48, "note_on_time": 2.976, "note_off_time": 3.341}, {"pitch": 64, "velocity": 59, "note_on_time": 3.32, "note_off_time": 3.501}, {"pitch": 62, "velocity": 47, "note_on_time": 3.519, "note_off_time": 3.586}, {"pitch": 62, "velocity": 52, "note_on_time": 3.689, "note_off_time": 4.055}, {"pitch": 60, "velocity": 61, "note_on_time": 4.043, "note_off_time": 4.161}, {"pitch": 62, "velocity": 59, "note_on_time": 4.201, "note_off_time": 4.349}, {"pitch": 67, "velocity": 69, "note_on_time": 4.415, "note_off_time": 4.819}, {"pitch": 64, "velocity": 74, "note_on_time": 4.786, "note_off_time": 5.094}, {"pitch": 60, "velocity": 53, "note_on_time": 5.108, "note_off_time": 5.365}, {"pitch": 62, "velocity": 72, "note_on_time": 5.513, "note_off_time": 5.807}, {"pitch": 65, "velocity": 64, "note_on_time": 7.247, "note_off_time": 8.294}, {"pitch": 62, "velocity": 57, "note_on_time": 8.681, "note_off_time": 9.061}, {"pitch": 65, "velocity": 52, "note_on_time": 9.069, "note_off_time": 9.445}, {"pitch": 64, "velocity": 61, "note_on_time": 9.449, "note_off_time": 9.803}, {"pitch": 65, "velocity": 61, "note_on_time": 9.783, "note_off_time": 9.863}, {"pitch": 65, "velocity": 62, "note_on_time": 9.962, "note_off_time": 10.148}, {"pitch": 60, "velocity": 65, "note_on_time": 10.189, "note_off_time": 10.531}, {"pitch": 64, "velocity": 63, "note_on_time": 10.544, "note_off_time": 11.137}, {"pitch": 64, "velocity": 63, "note_on_time": 11.237, "note_off_time": 11.603}, {"pitch": 64, "velocity": 53, "note_on_time": 11.994, "note_off_time": 12.209}, {"pitch": 64, "velocity": 53, "note_on_time": 12.352, "note_off_time": 12.548}, {"pitch": 64, "velocity": 60, "note_on_time": 12.717, "note_off_time": 12.985}]</notes><guidance name="Guidance Mode">None</guidance><error name="Error value">1.4854362750000007</error></trial><trial trial_no="8" timestamp="2022_04_28-16_56_42"><notes name="Played Notes">[{"pitch": 67, "velocity": 60, "note_on_time": 1.485, "note_off_time": 1.706}, {"pitch": 65, "velocity": 72, "note_on_time": 1.685, "note_off_time": 1.767}, {"pitch": 65, "velocity": 75, "note_on_time": 1.853, "note_off_time": 2.128}, {"pitch": 64, "velocity": 69, "note_on_time": 2.165, "note_off_time": 2.52}, {"pitch": 65, "velocity": 57, "note_on_time": 2.56, "note_off_time": 2.752}, {"pitch": 62, "velocity": 55, "note_on_time": 2.721, "note_off_time": 2.837}, {"pitch": 62, "velocity": 74, "note_on_time": 2.925, "note_off_time": 3.238}, {"pitch": 67, "velocity": 61, "note_on_time": 3.277, "note_off_time": 3.674}, {"pitch": 60, "velocity": 62, "note_on_time": 3.668, "note_off_time": 3.88}, {"pitch": 67, "velocity": 56, "note_on_time": 3.883, "note_off_time": 4.033}, {"pitch": 60, "velocity": 62, "note_on_time": 4.05, "note_off_time": 4.274}, {"pitch": 65, "velocity": 68, "note_on_time": 4.268, "note_off_time": 4.477}, {"pitch": 67, "velocity": 70, "note_on_time": 4.464, "note_off_time": 4.764}, {"pitch": 64, "velocity": 66, "note_on_time": 4.785, "note_off_time": 5.385}, {"pitch": 67, "velocity": 71, "note_on_time": 5.812, "note_off_time": 6.268}, {"pitch": 65, "velocity": 69, "note_on_time": 6.197, "note_off_time": 6.429}, {"pitch": 65, "velocity": 63, "note_on_time": 6.545, "note_off_time": 6.917}, {"pitch": 60, "velocity": 61, "note_on_time": 6.905, "note_off_time": 7.143}, {"pitch": 60, "velocity": 62, "note_on_time": 7.28, "note_off_time": 7.454}, {"pitch": 65, "velocity": 61, "note_on_time": 7.454, "note_off_time": 7.613}, {"pitch": 60, "velocity": 56, "note_on_time": 7.642, "note_off_time": 7.845}, {"pitch": 65, "velocity": 56, "note_on_time": 7.83, "note_off_time": 7.905}, {"pitch": 65, "velocity": 71, "note_on_time": 7.993, "note_off_time": 8.385}, {"pitch": 67, "velocity": 58, "note_on_time": 8.363, "note_off_time": 8.71}, {"pitch": 62, "velocity": 56, "note_on_time": 8.725, "note_off_time": 8.921}, {"pitch": 64, "velocity": 52, "note_on_time": 8.918, "note_off_time": 9.092}, {"pitch": 65, "velocity": 49, "note_on_time": 9.128, "note_off_time": 9.34}, {"pitch": 64, "velocity": 50, "note_on_time": 9.321, "note_off_time": 9.499}, {"pitch": 62, "velocity": 60, "note_on_time": 9.515, "note_off_time": 9.738}, {"pitch": 62, "velocity": 52, "note_on_time": 9.845, "note_off_time": 9.931}, {"pitch": 62, "velocity": 61, "note_on_time": 10.028, "note_off_time": 10.161}, {"pitch": 64, "velocity": 58, "note_on_time": 10.244, "note_off_time": 10.699}, {"pitch": 60, "velocity": 58, "note_on_time": 10.941, "note_off_time": 11.625}, {"pitch": 60, "velocity": 59, "note_on_time": 11.985, "note_off_time": 12.217}, {"pitch": 60, "velocity": 61, "note_on_time": 12.371, "note_off_time": 12.59}, {"pitch": 60, "velocity": 63, "note_on_time": 12.722, "note_off_time": 13.071}]</notes><guidance name="Guidance Mode">None</guidance><error name="Error value">0.07598708585858616</error></trial><trial trial_no="9" timestamp="2022_04_28-16_57_13"><notes name="Played Notes">[{"pitch": 67, "velocity": 62, "note_on_time": 1.396, "note_off_time": 1.519}, {"pitch": 65, "velocity": 59, "note_on_time": 1.596, "note_off_time": 1.697}, {"pitch": 65, "velocity": 66, "note_on_time": 1.79, "note_off_time": 2.073}, {"pitch": 64, "velocity": 58, "note_on_time": 2.154, "note_off_time": 2.481}, {"pitch": 65, "velocity": 59, "note_on_time": 2.547, "note_off_time": 2.709}, {"pitch": 62, "velocity": 40, "note_on_time": 2.736, "note_off_time": 2.831}, {"pitch": 62, "velocity": 59, "note_on_time": 2.932, "note_off_time": 3.27}, {"pitch": 67, "velocity": 54, "note_on_time": 3.302, "note_off_time": 3.602}, {"pitch": 60, "velocity": 61, "note_on_time": 3.649, "note_off_time": 3.838}, {"pitch": 67, "velocity": 56, "note_on_time": 3.844, "note_off_time": 4.003}, {"pitch": 60, "velocity": 63, "note_on_time": 4.024, "note_off_time": 4.256}, {"pitch": 67, "velocity": 57, "note_on_time": 4.216, "note_off_time": 4.264}, {"pitch": 65, "velocity": 69, "note_on_time": 4.277, "note_off_time": 4.478}, {"pitch": 67, "velocity": 73, "note_on_time": 4.49, "note_off_time": 4.751}, {"pitch": 64, "velocity": 67, "note_on_time": 4.772, "note_off_time": 5.513}, {"pitch": 67, "velocity": 66, "note_on_time": 5.84, "note_off_time": 6.126}, {"pitch": 65, "velocity": 62, "note_on_time": 6.186, "note_off_time": 6.421}, {"pitch": 65, "velocity": 55, "note_on_time": 6.548, "note_off_time": 6.911}, {"pitch": 60, "velocity": 58, "note_on_time": 6.928, "note_off_time": 7.129}, {"pitch": 60, "velocity": 63, "note_on_time": 7.275, "note_off_time": 7.434}, {"pitch": 65, "velocity": 62, "note_on_time": 7.444, "note_off_time": 7.585}, {"pitch": 60, "velocity": 38, "note_on_time": 7.645, "note_off_time": 7.718}, {"pitch": 65, "velocity": 44, "note_on_time": 7.736, "note_off_time": 7.824}, {"pitch": 65, "velocity": 50, "note_on_time": 7.938, "note_off_time": 8.316}, {"pitch": 67, "velocity": 53, "note_on_time": 8.348, "note_off_time": 8.563}, {"pitch": 60, "velocity": 50, "note_on_time": 8.709, "note_off_time": 8.784}, {"pitch": 62, "velocity": 53, "note_on_time": 8.852, "note_off_time": 9.004}, {"pitch": 64, "velocity": 55, "note_on_time": 9.009, "note_off_time": 9.178}, {"pitch": 65, "velocity": 56, "note_on_time": 9.183, "note_off_time": 9.39}, {"pitch": 64, "velocity": 55, "note_on_time": 9.341, "note_off_time": 9.45}, {"pitch": 62, "velocity": 40, "note_on_time": 9.494, "note_off_time": 9.739}, {"pitch": 62, "velocity": 52, "note_on_time": 9.844, "note_off_time": 9.942}, {"pitch": 62, "velocity": 48, "note_on_time": 10.032, "note_off_time": 10.166}, {"pitch": 64, "velocity": 60, "note_on_time": 10.219, "note_off_time": 10.474}, {"pitch": 60, "velocity": 55, "note_on_time": 10.921, "note_off_time": 11.667}, {"pitch": 60, "velocity": 61, "note_on_time": 12.029, "note_off_time": 12.238}, {"pitch": 60, "velocity": 57, "note_on_time": 12.378, "note_off_time": 12.576}]</notes><guidance name="Guidance Mode">None</guidance><error name="Error value">0.686129815656565</error></trial><trial trial_no="10" timestamp="2022_04_28-16_57_39"><notes name="Played Notes">[{"pitch": 67, "velocity": 57, "note_on_time": 1.41, "note_off_time": 1.546}, {"pitch": 65, "velocity": 62, "note_on_time": 1.613, "note_off_time": 1.714}, {"pitch": 65, "velocity": 71, "note_on_time": 1.806, "note_off_time": 2.065}, {"pitch": 64, "velocity": 58, "note_on_time": 2.119, "note_off_time": 2.44}, {"pitch": 65, "velocity": 58, "note_on_time": 2.505, "note_off_time": 2.675}, {"pitch": 62, "velocity": 42, "note_on_time": 2.693, "note_off_time": 2.79}, {"pitch": 62, "velocity": 56, "note_on_time": 2.902, "note_off_time": 3.261}, {"pitch": 67, "velocity": 54, "note_on_time": 3.276, "note_off_time": 3.585}, {"pitch": 60, "velocity": 51, "note_on_time": 3.645, "note_off_time": 3.824}, {"pitch": 67, "velocity": 53, "note_on_time": 3.838, "note_off_time": 4.06}, {"pitch": 60, "velocity": 49, "note_on_time": 4.037, "note_off_time": 4.242}, {"pitch": 65, "velocity": 59, "note_on_time": 4.209, "note_off_time": 4.441}, {"pitch": 67, "velocity": 68, "note_on_time": 4.416, "note_off_time": 4.716}, {"pitch": 64, "velocity": 56, "note_on_time": 4.757, "note_off_time": 5.615}, {"pitch": 67, "velocity": 61, "note_on_time": 5.796, "note_off_time": 6.119}, {"pitch": 65, "velocity": 60, "note_on_time": 6.194, "note_off_time": 6.429}, {"pitch": 65, "velocity": 49, "note_on_time": 6.55, "note_off_time": 6.862}, {"pitch": 60, "velocity": 51, "note_on_time": 6.911, "note_off_time": 7.165}, {"pitch": 60, "velocity": 55, "note_on_time": 7.282, "note_off_time": 7.466}, {"pitch": 65, "velocity": 55, "note_on_time": 7.473, "note_off_time": 7.631}, {"pitch": 60, "velocity": 49, "note_on_time": 7.659, "note_off_time": 7.818}, {"pitch": 65, "velocity": 55, "note_on_time": 7.82, "note_off_time": 7.934}, {"pitch": 65, "velocity": 65, "note_on_time": 8.028, "note_off_time": 8.345}, {"pitch": 67, "velocity": 62, "note_on_time": 8.39, "note_off_time": 8.684}, {"pitch": 62, "velocity": 48, "note_on_time": 8.742, "note_off_time": 8.958}, {"pitch": 64, "velocity": 58, "note_on_time": 8.905, "note_off_time": 9.1}, {"pitch": 65, "velocity": 54, "note_on_time": 9.099, "note_off_time": 9.318}, {"pitch": 64, "velocity": 50, "note_on_time": 9.273, "note_off_time": 9.474}, {"pitch": 62, "velocity": 54, "note_on_time": 9.484, "note_off_time": 9.755}, {"pitch": 62, "velocity": 45, "note_on_time": 9.872, "note_off_time": 9.955}, {"pitch": 62, "velocity": 60, "note_on_time": 10.06, "note_off_time": 10.21}, {"pitch": 64, "velocity": 62, "note_on_time": 10.276, "note_off_time": 10.65}, {"pitch": 60, "velocity": 67, "note_on_time": 10.972, "note_off_time": 11.722}, {"pitch": 60, "velocity": 62, "note_on_time": 12.049, "note_off_time": 12.241}, {"pitch": 60, "velocity": 59, "note_on_time": 12.422, "note_off_time": 12.602}]</notes><guidance name="Guidance Mode">None</guidance><error name="Error value">0.11445227525252546</error></trial><trial trial_no="11" timestamp="2022_04_28-17_01_00"><notes name="Played Notes">[{"pitch": 67, "velocity": 63, "note_on_time": 1.433, "note_off_time": 2.348}, {"pitch": 65, "velocity": 65, "note_on_time": 2.855, "note_off_time": 2.953}, {"pitch": 65, "velocity": 62, "note_on_time": 3.049, "note_off_time": 3.2}, {"pitch": 67, "velocity": 63, "note_on_time": 3.261, "note_off_time": 3.483}, {"pitch": 67, "velocity": 50, "note_on_time": 3.628, "note_off_time": 3.955}, {"pitch": 60, "velocity": 38, "note_on_time": 3.997, "note_off_time": 4.366}, {"pitch": 65, "velocity": 68, "note_on_time": 4.363, "note_off_time": 4.798}, {"pitch": 62, "velocity": 47, "note_on_time": 4.742, "note_off_time": 4.916}, {"pitch": 64, "velocity": 49, "note_on_time": 4.926, "note_off_time": 5.088}, {"pitch": 65, "velocity": 60, "note_on_time": 5.109, "note_off_time": 5.469}, {"pitch": 64, "velocity": 48, "note_on_time": 5.456, "note_off_time": 5.807}, {"pitch": 67, "velocity": 32, "note_on_time": 5.859, "note_off_time": 6.174}, {"pitch": 65, "velocity": 57, "note_on_time": 6.258, "note_off_time": 6.554}, {"pitch": 64, "velocity": 40, "note_on_time": 6.619, "note_off_time": 6.956}, {"pitch": 64, "velocity": 1, "note_on_time": 7.267, "note_off_time": 7.715}, {"pitch": 60, "velocity": 56, "note_on_time": 8.006, "note_off_time": 8.42}, {"pitch": 60, "velocity": 62, "note_on_time": 8.682, "note_off_time": 9.432}, {"pitch": 65, "velocity": 62, "note_on_time": 9.382, "note_off_time": 10.108}, {"pitch": 64, "velocity": 65, "note_on_time": 10.169, "note_off_time": 10.384}, {"pitch": 62, "velocity": 62, "note_on_time": 10.381, "note_off_time": 10.571}, {"pitch": 60, "velocity": 52, "note_on_time": 10.583, "note_off_time": 11.517}, {"pitch": 60, "velocity": 56, "note_on_time": 11.954, "note_off_time": 12.157}, {"pitch": 60, "velocity": 49, "note_on_time": 12.32, "note_off_time": 12.513}]</notes><guidance name="Guidance Mode">None</guidance><error name="Error value">0.41262686237373747</error></trial><trial trial_no="12" timestamp="2022_04_28-17_01_34"><notes name="Played Notes">[{"pitch": 67, "velocity": 62, "note_on_time": 1.409, "note_off_time": 2.028}, {"pitch": 65, "velocity": 42, "note_on_time": 2.88, "note_off_time": 2.951}, {"pitch": 65, "velocity": 50, "note_on_time": 3.054, "note_off_time": 3.217}, {"pitch": 67, "velocity": 58, "note_on_time": 3.257, "note_off_time": 3.483}, {"pitch": 67, "velocity": 51, "note_on_time": 3.621, "note_off_time": 3.944}, {"pitch": 60, "velocity": 42, "note_on_time": 4.002, "note_off_time": 4.34}, {"pitch": 65, "velocity": 59, "note_on_time": 4.359, "note_off_time": 4.714}, {"pitch": 62, "velocity": 45, "note_on_time": 4.721, "note_off_time": 4.91}, {"pitch": 64, "velocity": 51, "note_on_time": 4.884, "note_off_time": 5.085}, {"pitch": 65, "velocity": 51, "note_on_time": 5.078, "note_off_time": 5.307}, {"pitch": 64, "velocity": 53, "note_on_time": 5.266, "note_off_time": 5.478}, {"pitch": 67, "velocity": 57, "note_on_time": 5.489, "note_off_time": 5.798}, {"pitch": 60, "velocity": 55, "note_on_time": 5.836, "note_off_time": 5.928}, {"pitch": 65, "velocity": 66, "note_on_time": 5.944, "note_off_time": 6.262}, {"pitch": 64, "velocity": 67, "note_on_time": 6.261, "note_off_time": 6.915}, {"pitch": 62, "velocity": 55, "note_on_time": 6.965, "note_off_time": 7.296}, {"pitch": 64, "velocity": 56, "note_on_time": 7.309, "note_off_time": 7.804}, {"pitch": 60, "velocity": 58, "note_on_time": 8.702, "note_off_time": 9.403}, {"pitch": 65, "velocity": 55, "note_on_time": 9.432, "note_off_time": 10.033}, {"pitch": 64, "velocity": 55, "note_on_time": 10.162, "note_off_time": 10.327}, {"pitch": 62, "velocity": 39, "note_on_time": 10.327, "note_off_time": 10.517}, {"pitch": 60, "velocity": 45, "note_on_time": 10.539, "note_off_time": 11.435}, {"pitch": 60, "velocity": 49, "note_on_time": 11.977, "note_off_time": 12.173}, {"pitch": 60, "velocity": 52, "note_on_time": 12.343, "note_off_time": 12.555}]</notes><guidance name="Guidance Mode">None</guidance><error name="Error value">0.14073528535353547</error></trial><trial trial_no="13" timestamp="2022_04_28-17_02_05"><notes name="Played Notes">[{"pitch": 67, "velocity": 66, "note_on_time": 1.443, "note_off_time": 2.05}, {"pitch": 65, "velocity": 55, "note_on_time": 2.894, "note_off_time": 2.98}, {"pitch": 65, "velocity": 58, "note_on_time": 3.092, "note_off_time": 3.24}, {"pitch": 67, "velocity": 58, "note_on_time": 3.267, "note_off_time": 3.468}, {"pitch": 67, "velocity": 53, "note_on_time": 3.619, "note_off_time": 3.924}, {"pitch": 60, "velocity": 52, "note_on_time": 3.992, "note_off_time": 4.329}, {"pitch": 65, "velocity": 52, "note_on_time": 4.356, "note_off_time": 4.707}, {"pitch": 62, "velocity": 35, "note_on_time": 4.722, "note_off_time": 4.924}, {"pitch": 64, "velocity": 36, "note_on_time": 4.896, "note_off_time": 5.061}, {"pitch": 65, "velocity": 53, "note_on_time": 5.061, "note_off_time": 5.258}, {"pitch": 64, "velocity": 60, "note_on_time": 5.237, "note_off_time": 5.459}, {"pitch": 67, "velocity": 50, "note_on_time": 5.469, "note_off_time": 5.652}, {"pitch": 60, "velocity": 62, "note_on_time": 5.651, "note_off_time": 5.803}, {"pitch": 65, "velocity": 65, "note_on_time": 5.837, "note_off_time": 6.157}, {"pitch": 64, "velocity": 62, "note_on_time": 6.21, "note_off_time": 6.916}, {"pitch": 62, "velocity": 47, "note_on_time": 6.951, "note_off_time": 7.289}, {"pitch": 64, "velocity": 54, "note_on_time": 7.303, "note_off_time": 8.074}, {"pitch": 60, "velocity": 52, "note_on_time": 8.728, "note_off_time": 9.324}, {"pitch": 65, "velocity": 64, "note_on_time": 9.46, "note_off_time": 10.082}, {"pitch": 64, "velocity": 52, "note_on_time": 10.149, "note_off_time": 10.369}, {"pitch": 62, "velocity": 41, "note_on_time": 10.352, "note_off_time": 10.527}, {"pitch": 60, "velocity": 52, "note_on_time": 10.539, "note_off_time": 11.451}, {"pitch": 60, "velocity": 46, "note_on_time": 11.964, "note_off_time": 12.14}, {"pitch": 60, "velocity": 51, "note_on_time": 12.349, "note_off_time": 12.55}, {"pitch": 60, "velocity": 55, "note_on_time": 12.717, "note_off_time": 12.983}]</notes><guidance name="Guidance Mode">None</guidance><error name="Error value">0.07409492676767707</error></trial><trial trial_no="14" timestamp="2022_04_28-17_03_46"><notes name="Played Notes">[{"pitch": 60, "velocity": 67, "note_on_time": 1.447, "note_off_time": 1.537}, {"pitch": 60, "velocity": 51, "note_on_time": 1.612, "note_off_time": 1.807}, {"pitch": 67, "velocity": 63, "note_on_time": 1.795, "note_off_time": 2.06}, {"pitch": 67, "velocity": 60, "note_on_time": 2.177, "note_off_time": 2.521}, {"pitch": 60, "velocity": 52, "note_on_time": 2.532, "note_off_time": 2.732}, {"pitch": 65, "velocity": 54, "note_on_time": 2.716, "note_off_time": 2.841}, {"pitch": 65, "velocity": 65, "note_on_time": 2.933, "note_off_time": 3.314}, {"pitch": 64, "velocity": 53, "note_on_time": 3.291, "note_off_time": 3.477}, {"pitch": 62, "velocity": 38, "note_on_time": 3.494, "note_off_time": 3.569}, {"pitch": 62, "velocity": 48, "note_on_time": 3.685, "note_off_time": 3.849}, {"pitch": 64, "velocity": 55, "note_on_time": 3.86, "note_off_time": 4.061}, {"pitch": 60, "velocity": 46, "note_on_time": 4.058, "note_off_time": 4.134}, {"pitch": 65, "velocity": 36, "note_on_time": 4.155, "note_off_time": 4.409}, {"pitch": 67, "velocity": 70, "note_on_time": 4.388, "note_off_time": 4.7}, {"pitch": 64, "velocity": 67, "note_on_time": 4.741, "note_off_time": 5.192}, {"pitch": 60, "velocity": 52, "note_on_time": 5.184, "note_off_time": 5.586}, {"pitch": 62, "velocity": 64, "note_on_time": 5.802, "note_off_time": 6.191}, {"pitch": 65, "velocity": 61, "note_on_time": 6.205, "note_off_time": 6.577}, {"pitch": 60, "velocity": 47, "note_on_time": 6.577, "note_off_time": 6.648}, {"pitch": 60, "velocity": 56, "note_on_time": 6.756, "note_off_time": 6.885}, {"pitch": 67, "velocity": 58, "note_on_time": 6.954, "note_off_time": 7.267}, {"pitch": 65, "velocity": 56, "note_on_time": 7.291, "note_off_time": 8.173}, {"pitch": 62, "velocity": 49, "note_on_time": 8.643, "note_off_time": 9.072}, {"pitch": 65, "velocity": 53, "note_on_time": 9.066, "note_off_time": 9.458}, {"pitch": 64, "velocity": 61, "note_on_time": 9.43, "note_off_time": 9.798}, {"pitch": 65, "velocity": 53, "note_on_time": 9.784, "note_off_time": 9.862}, {"pitch": 65, "velocity": 55, "note_on_time": 9.973, "note_off_time": 10.159}, {"pitch": 60, "velocity": 55, "note_on_time": 10.169, "note_off_time": 10.54}, {"pitch": 64, "velocity": 59, "note_on_time": 10.524, "note_off_time": 11.091}, {"pitch": 64, "velocity": 54, "note_on_time": 11.214, "note_off_time": 11.568}, {"pitch": 64, "velocity": 53, "note_on_time": 11.965, "note_off_time": 12.183}, {"pitch": 64, "velocity": 49, "note_on_time": 12.337, "note_off_time": 12.563}, {"pitch": 64, "velocity": 51, "note_on_time": 12.693, "note_off_time": 12.981}]</notes><guidance name="Guidance Mode">None</guidance><error name="Error value">0.20877648888888875</error></trial><trial trial_no="15" timestamp="2022_04_28-17_04_23"><notes name="Played Notes">[{"pitch": 60, "velocity": 65, "note_on_time": 1.392, "note_off_time": 1.469}, {"pitch": 60, "velocity": 67, "note_on_time": 1.575, "note_off_time": 1.75}, {"pitch": 67, "velocity": 62, "note_on_time": 1.77, "note_off_time": 2.0}, {"pitch": 67, "velocity": 61, "note_on_time": 2.135, "note_off_time": 2.529}, {"pitch": 60, "velocity": 51, "note_on_time": 2.526, "note_off_time": 2.704}, {"pitch": 65, "velocity": 57, "note_on_time": 2.709, "note_off_time": 2.82}, {"pitch": 65, "velocity": 72, "note_on_time": 2.911, "note_off_time": 3.205}, {"pitch": 64, "velocity": 48, "note_on_time": 3.274, "note_off_time": 3.461}, {"pitch": 62, "velocity": 61, "note_on_time": 3.465, "note_off_time": 3.552}, {"pitch": 62, "velocity": 56, "note_on_time": 3.674, "note_off_time": 3.991}, {"pitch": 60, "velocity": 38, "note_on_time": 4.062, "note_off_time": 4.155}, {"pitch": 64, "velocity": 53, "note_on_time": 4.2, "note_off_time": 4.319}, {"pitch": 67, "velocity": 64, "note_on_time": 4.42, "note_off_time": 4.767}, {"pitch": 64, "velocity": 69, "note_on_time": 4.764, "note_off_time": 5.097}, {"pitch": 60, "velocity": 67, "note_on_time": 5.129, "note_off_time": 5.555}, {"pitch": 62, "velocity": 54, "note_on_time": 5.803, "note_off_time": 6.198}, {"pitch": 65, "velocity": 56, "note_on_time": 6.19, "note_off_time": 6.56}, {"pitch": 60, "velocity": 42, "note_on_time": 6.57, "note_off_time": 6.619}, {"pitch": 60, "velocity": 50, "note_on_time": 6.739, "note_off_time": 6.858}, {"pitch": 67, "velocity": 61, "note_on_time": 6.942, "note_off_time": 7.252}, {"pitch": 65, "velocity": 58, "note_on_time": 7.287, "note_off_time": 8.101}, {"pitch": 62, "velocity": 43, "note_on_time": 8.66, "note_off_time": 9.082}, {"pitch": 65, "velocity": 56, "note_on_time": 9.06, "note_off_time": 9.413}, {"pitch": 64, "velocity": 47, "note_on_time": 9.43, "note_off_time": 9.802}, {"pitch": 65, "velocity": 60, "note_on_time": 9.776, "note_off_time": 9.873}, {"pitch": 65, "velocity": 52, "note_on_time": 9.962, "note_off_time": 10.11}, {"pitch": 60, "velocity": 56, "note_on_time": 10.195, "note_off_time": 10.493}, {"pitch": 64, "velocity": 57, "note_on_time": 10.537, "note_off_time": 11.097}, {"pitch": 64, "velocity": 52, "note_on_time": 11.239, "note_off_time": 11.596}, {"pitch": 64, "velocity": 61, "note_on_time": 11.972, "note_off_time": 12.154}, {"pitch": 64, "velocity": 55, "note_on_time": 12.333, "note_off_time": 12.519}, {"pitch": 64, "velocity": 56, "note_on_time": 12.713, "note_off_time": 12.971}]</notes><guidance name="Guidance Mode">None</guidance><error name="Error value">0.1611773361111111</error></trial><trial trial_no="16" timestamp="2022_04_28-17_04_54"><notes name="Played Notes">[{"pitch": 60, "velocity": 65, "note_on_time": 1.392, "note_off_time": 1.453}, {"pitch": 60, "velocity": 64, "note_on_time": 1.58, "note_off_time": 1.766}, {"pitch": 67, "velocity": 67, "note_on_time": 1.776, "note_off_time": 2.062}, {"pitch": 67, "velocity": 64, "note_on_time": 2.152, "note_off_time": 2.544}, {"pitch": 60, "velocity": 59, "note_on_time": 2.547, "note_off_time": 2.728}, {"pitch": 65, "velocity": 59, "note_on_time": 2.718, "note_off_time": 2.834}, {"pitch": 65, "velocity": 76, "note_on_time": 2.919, "note_off_time": 3.268}, {"pitch": 64, "velocity": 66, "note_on_time": 3.285, "note_off_time": 3.459}, {"pitch": 62, "velocity": 58, "note_on_time": 3.476, "note_off_time": 3.563}, {"pitch": 62, "velocity": 61, "note_on_time": 3.67, "note_off_time": 3.844}, {"pitch": 60, "velocity": 35, "note_on_time": 3.884, "note_off_time": 4.043}, {"pitch": 62, "velocity": 47, "note_on_time": 4.061, "note_off_time": 4.201}, {"pitch": 64, "velocity": 54, "note_on_time": 4.273, "note_off_time": 4.47}, {"pitch": 67, "velocity": 70, "note_on_time": 4.448, "note_off_time": 4.791}, {"pitch": 64, "velocity": 67, "note_on_time": 4.798, "note_off_time": 5.143}, {"pitch": 60, "velocity": 64, "note_on_time": 5.193, "note_off_time": 5.582}, {"pitch": 62, "velocity": 64, "note_on_time": 5.64, "note_off_time": 5.842}, {"pitch": 65, "velocity": 38, "note_on_time": 6.562, "note_off_time": 6.987}, {"pitch": 67, "velocity": 56, "note_on_time": 7.377, "note_off_time": 7.576}, {"pitch": 65, "velocity": 57, "note_on_time": 7.683, "note_off_time": 8.214}, {"pitch": 62, "velocity": 69, "note_on_time": 8.675, "note_off_time": 9.082}, {"pitch": 65, "velocity": 62, "note_on_time": 9.068, "note_off_time": 9.425}, {"pitch": 64, "velocity": 58, "note_on_time": 9.43, "note_off_time": 9.813}, {"pitch": 65, "velocity": 55, "note_on_time": 9.782, "note_off_time": 9.854}, {"pitch": 65, "velocity": 53, "note_on_time": 9.962, "note_off_time": 10.137}, {"pitch": 60, "velocity": 61, "note_on_time": 10.188, "note_off_time": 10.534}, {"pitch": 64, "velocity": 58, "note_on_time": 10.543, "note_off_time": 11.061}, {"pitch": 64, "velocity": 68, "note_on_time": 11.217, "note_off_time": 11.632}, {"pitch": 64, "velocity": 70, "note_on_time": 11.985, "note_off_time": 12.148}, {"pitch": 64, "velocity": 59, "note_on_time": 12.349, "note_off_time": 12.464}, {"pitch": 64, "velocity": 65, "note_on_time": 12.712, "note_off_time": 12.889}]</notes><guidance name="Guidance Mode">None</guidance><error name="Error value">0.2576975888888887</error></trial></trials></MIDI>