<MIDI midiNo="2022_11_14-18_43_30"><target_notes><notes name="Note List">[{"pitch": 42, "velocity": 80, "note_on_time": 0.004, "note_off_time": 0.179}, {"pitch": 42, "velocity": 80, "note_on_time": 0.179, "note_off_time": 0.349}, {"pitch": 42, "velocity": 80, "note_on_time": 0.35, "note_off_time": 0.52}, {"pitch": 42, "velocity": 80, "note_on_time": 0.52, "note_off_time": 0.691}, {"pitch": 42, "velocity": 80, "note_on_time": 0.691, "note_off_time": 0.862}, {"pitch": 62, "velocity": 80, "note_on_time": 0.691, "note_off_time": 1.032}, {"pitch": 42, "velocity": 80, "note_on_time": 0.862, "note_off_time": 1.032}, {"pitch": 65, "velocity": 80, "note_on_time": 1.032, "note_off_time": 1.204}, {"pitch": 42, "velocity": 80, "note_on_time": 1.032, "note_off_time": 1.204}, {"pitch": 60, "velocity": 80, "note_on_time": 1.204, "note_off_time": 1.375}, {"pitch": 42, "velocity": 80, "note_on_time": 1.205, "note_off_time": 1.375}, {"pitch": 64, "velocity": 80, "note_on_time": 1.375, "note_off_time": 1.547}, {"pitch": 42, "velocity": 80, "note_on_time": 1.375, "note_off_time": 1.547}, {"pitch": 62, "velocity": 80, "note_on_time": 1.547, "note_off_time": 1.72}, {"pitch": 42, "velocity": 80, "note_on_time": 1.548, "note_off_time": 1.72}, {"pitch": 64, "velocity": 80, "note_on_time": 1.72, "note_off_time": 1.891}, {"pitch": 42, "velocity": 80, "note_on_time": 1.72, "note_off_time": 1.891}, {"pitch": 60, "velocity": 80, "note_on_time": 1.891, "note_off_time": 2.064}, {"pitch": 42, "velocity": 80, "note_on_time": 1.892, "note_off_time": 2.065}, {"pitch": 60, "velocity": 80, "note_on_time": 2.064, "note_off_time": 2.236}, {"pitch": 42, "velocity": 80, "note_on_time": 2.065, "note_off_time": 2.236}, {"pitch": 64, "velocity": 80, "note_on_time": 2.236, "note_off_time": 2.408}, {"pitch": 42, "velocity": 80, "note_on_time": 2.236, "note_off_time": 2.408}, {"pitch": 60, "velocity": 80, "note_on_time": 2.408, "note_off_time": 2.578}, {"pitch": 42, "velocity": 80, "note_on_time": 2.408, "note_off_time": 2.578}, {"pitch": 62, "velocity": 80, "note_on_time": 2.578, "note_off_time": 2.749}, {"pitch": 42, "velocity": 80, "note_on_time": 2.578, "note_off_time": 2.75}, {"pitch": 62, "velocity": 80, "note_on_time": 2.749, "note_off_time": 2.921}, {"pitch": 42, "velocity": 80, "note_on_time": 2.75, "note_off_time": 2.921}, {"pitch": 64, "velocity": 80, "note_on_time": 2.921, "note_off_time": 3.092}, {"pitch": 42, "velocity": 80, "note_on_time": 2.922, "note_off_time": 3.093}, {"pitch": 65, "velocity": 80, "note_on_time": 3.092, "note_off_time": 3.263}, {"pitch": 42, "velocity": 80, "note_on_time": 3.093, "note_off_time": 3.263}, {"pitch": 65, "velocity": 80, "note_on_time": 3.263, "note_off_time": 3.433}, {"pitch": 42, "velocity": 80, "note_on_time": 3.263, "note_off_time": 3.433}, {"pitch": 42, "velocity": 80, "note_on_time": 3.433, "note_off_time": 3.607}, {"pitch": 62, "velocity": 80, "note_on_time": 3.433, "note_off_time": 3.778}, {"pitch": 42, "velocity": 80, "note_on_time": 3.607, "note_off_time": 3.779}, {"pitch": 42, "velocity": 80, "note_on_time": 3.779, "note_off_time": 3.949}, {"pitch": 42, "velocity": 80, "note_on_time": 3.95, "note_off_time": 4.121}, {"pitch": 42, "velocity": 80, "note_on_time": 4.121, "note_off_time": 4.292}, {"pitch": 64, "velocity": 80, "note_on_time": 4.121, "note_off_time": 4.462}, {"pitch": 42, "velocity": 80, "note_on_time": 4.293, "note_off_time": 4.463}, {"pitch": 42, "velocity": 80, "note_on_time": 4.463, "note_off_time": 4.636}, {"pitch": 62, "velocity": 80, "note_on_time": 4.462, "note_off_time": 4.806}, {"pitch": 42, "velocity": 80, "note_on_time": 4.636, "note_off_time": 4.806}, {"pitch": 64, "velocity": 80, "note_on_time": 4.806, "note_off_time": 4.979}, {"pitch": 42, "velocity": 80, "note_on_time": 4.806, "note_off_time": 4.979}, {"pitch": 42, "velocity": 80, "note_on_time": 4.979, "note_off_time": 5.149}, {"pitch": 42, "velocity": 80, "note_on_time": 5.149, "note_off_time": 5.32}, {"pitch": 42, "velocity": 80, "note_on_time": 5.321, "note_off_time": 5.493}, {"pitch": 42, "velocity": 80, "note_on_time": 5.493, "note_off_time": 5.667}, {"pitch": 64, "velocity": 80, "note_on_time": 5.666, "note_off_time": 5.837}, {"pitch": 42, "velocity": 80, "note_on_time": 5.667, "note_off_time": 5.837}, {"pitch": 64, "velocity": 80, "note_on_time": 5.837, "note_off_time": 6.008}, {"pitch": 42, "velocity": 80, "note_on_time": 5.838, "note_off_time": 6.008}, {"pitch": 64, "velocity": 80, "note_on_time": 6.008, "note_off_time": 6.181}, {"pitch": 42, "velocity": 80, "note_on_time": 6.008, "note_off_time": 6.181}]</notes><options name="Option List">((4, 4), [0.5, 0.25], 3, 8, &lt;NoteRangePerHand.FOUR_NOTES: 5&gt;, &lt;NoteRangePerHand.ONE_NOTE: 2&gt;, False, True, False, '365')</options></target_notes><trials><trial trial_no="1" timestamp="2022_11_14-18_43_22"><notes name="Played Notes">[{"pitch": 62, "velocity": 77, "note_on_time": 0.841, "note_off_time": 1.079}, {"pitch": 65, "velocity": 82, "note_on_time": 1.056, "note_off_time": 1.364}, {"pitch": 60, "velocity": 78, "note_on_time": 1.347, "note_off_time": 1.484}, {"pitch": 64, "velocity": 86, "note_on_time": 1.652, "note_off_time": 1.811}, {"pitch": 62, "velocity": 74, "note_on_time": 1.895, "note_off_time": 2.125}, {"pitch": 64, "velocity": 71, "note_on_time": 2.14, "note_off_time": 2.362}, {"pitch": 60, "velocity": 72, "note_on_time": 2.37, "note_off_time": 2.597}, {"pitch": 60, "velocity": 92, "note_on_time": 2.677, "note_off_time": 2.928}, {"pitch": 64, "velocity": 76, "note_on_time": 2.927, "note_off_time": 3.251}, {"pitch": 62, "velocity": 68, "note_on_time": 3.302, "note_off_time": 3.409}, {"pitch": 60, "velocity": 84, "note_on_time": 3.494, "note_off_time": 3.795}, {"pitch": 62, "velocity": 72, "note_on_time": 3.786, "note_off_time": 3.946}, {"pitch": 62, "velocity": 73, "note_on_time": 4.036, "note_off_time": 4.27}, {"pitch": 64, "velocity": 72, "note_on_time": 4.261, "note_off_time": 4.535}, {"pitch": 65, "velocity": 68, "note_on_time": 4.543, "note_off_time": 4.652}, {"pitch": 65, "velocity": 59, "note_on_time": 4.774, "note_off_time": 5.046}, {"pitch": 62, "velocity": 77, "note_on_time": 5.037, "note_off_time": 5.405}]</notes><guidance name="Guidance Mode">None</guidance><error name="Error value">0.8355252105263156</error></trial><trial trial_no="2" timestamp="2022_11_14-18_43_39"><notes name="Played Notes">[{"pitch": 62, "velocity": 70, "note_on_time": 0.839, "note_off_time": 1.087}, {"pitch": 65, "velocity": 74, "note_on_time": 1.065, "note_off_time": 1.381}, {"pitch": 60, "velocity": 82, "note_on_time": 1.344, "note_off_time": 1.878}, {"pitch": 64, "velocity": 70, "note_on_time": 2.31, "note_off_time": 2.518}, {"pitch": 62, "velocity": 73, "note_on_time": 2.51, "note_off_time": 2.688}, {"pitch": 64, "velocity": 63, "note_on_time": 2.729, "note_off_time": 2.913}, {"pitch": 60, "velocity": 76, "note_on_time": 2.92, "note_off_time": 3.089}, {"pitch": 60, "velocity": 83, "note_on_time": 3.183, "note_off_time": 3.379}, {"pitch": 64, "velocity": 72, "note_on_time": 3.375, "note_off_time": 3.605}, {"pitch": 60, "velocity": 81, "note_on_time": 3.649, "note_off_time": 3.868}, {"pitch": 62, "velocity": 70, "note_on_time": 3.861, "note_off_time": 4.166}, {"pitch": 62, "velocity": 88, "note_on_time": 4.255, "note_off_time": 4.48}, {"pitch": 64, "velocity": 78, "note_on_time": 4.461, "note_off_time": 4.721}, {"pitch": 65, "velocity": 84, "note_on_time": 4.684, "note_off_time": 4.787}, {"pitch": 65, "velocity": 69, "note_on_time": 4.892, "note_off_time": 5.104}, {"pitch": 62, "velocity": 82, "note_on_time": 5.1, "note_off_time": 5.256}, {"pitch": 64, "velocity": 73, "note_on_time": 5.318, "note_off_time": 5.681}, {"pitch": 62, "velocity": 87, "note_on_time": 5.68, "note_off_time": 5.971}, {"pitch": 64, "velocity": 75, "note_on_time": 5.981, "note_off_time": 6.159}]</notes><guidance name="Guidance Mode">None</guidance><error name="Error value">1.3240358421052636</error></trial><trial trial_no="3" timestamp="2022_11_14-18_43_53"><notes name="Played Notes">[{"pitch": 62, "velocity": 80, "note_on_time": 0.752, "note_off_time": 1.117}, {"pitch": 65, "velocity": 88, "note_on_time": 1.095, "note_off_time": 1.417}, {"pitch": 60, "velocity": 84, "note_on_time": 1.394, "note_off_time": 1.636}, {"pitch": 64, "velocity": 77, "note_on_time": 1.646, "note_off_time": 1.85}, {"pitch": 62, "velocity": 76, "note_on_time": 1.858, "note_off_time": 2.043}, {"pitch": 64, "velocity": 75, "note_on_time": 2.058, "note_off_time": 2.291}, {"pitch": 62, "velocity": 68, "note_on_time": 2.293, "note_off_time": 2.428}, {"pitch": 60, "velocity": 78, "note_on_time": 2.544, "note_off_time": 2.793}, {"pitch": 60, "velocity": 85, "note_on_time": 2.882, "note_off_time": 3.061}, {"pitch": 64, "velocity": 71, "note_on_time": 3.077, "note_off_time": 3.29}, {"pitch": 60, "velocity": 75, "note_on_time": 3.299, "note_off_time": 3.498}, {"pitch": 62, "velocity": 70, "note_on_time": 3.499, "note_off_time": 3.727}, {"pitch": 62, "velocity": 86, "note_on_time": 3.808, "note_off_time": 4.018}, {"pitch": 64, "velocity": 79, "note_on_time": 4.013, "note_off_time": 4.285}, {"pitch": 65, "velocity": 82, "note_on_time": 4.242, "note_off_time": 4.342}, {"pitch": 65, "velocity": 70, "note_on_time": 4.448, "note_off_time": 4.674}, {"pitch": 62, "velocity": 79, "note_on_time": 4.665, "note_off_time": 4.865}, {"pitch": 64, "velocity": 77, "note_on_time": 4.898, "note_off_time": 5.224}, {"pitch": 62, "velocity": 80, "note_on_time": 5.242, "note_off_time": 5.56}, {"pitch": 64, "velocity": 82, "note_on_time": 5.548, "note_off_time": 6.076}]</notes><guidance name="Guidance Mode">None</guidance><error name="Error value">0.8265464736842105</error></trial><trial trial_no="4" timestamp="2022_11_14-18_44_08"><notes name="Played Notes">[{"pitch": 62, "velocity": 77, "note_on_time": 0.764, "note_off_time": 1.037}, {"pitch": 65, "velocity": 85, "note_on_time": 1.008, "note_off_time": 1.371}, {"pitch": 64, "velocity": 78, "note_on_time": 1.588, "note_off_time": 1.803}, {"pitch": 62, "velocity": 78, "note_on_time": 1.809, "note_off_time": 2.006}, {"pitch": 64, "velocity": 73, "note_on_time": 2.03, "note_off_time": 2.241}, {"pitch": 60, "velocity": 72, "note_on_time": 2.249, "note_off_time": 2.408}, {"pitch": 60, "velocity": 88, "note_on_time": 2.504, "note_off_time": 2.69}, {"pitch": 64, "velocity": 82, "note_on_time": 2.715, "note_off_time": 2.931}, {"pitch": 60, "velocity": 81, "note_on_time": 2.949, "note_off_time": 3.15}, {"pitch": 62, "velocity": 72, "note_on_time": 3.166, "note_off_time": 3.409}, {"pitch": 64, "velocity": 71, "note_on_time": 3.39, "note_off_time": 3.507}, {"pitch": 64, "velocity": 70, "note_on_time": 3.619, "note_off_time": 3.927}, {"pitch": 65, "velocity": 73, "note_on_time": 3.911, "note_off_time": 4.206}, {"pitch": 65, "velocity": 82, "note_on_time": 4.287, "note_off_time": 4.601}, {"pitch": 62, "velocity": 77, "note_on_time": 4.587, "note_off_time": 5.055}, {"pitch": 64, "velocity": 72, "note_on_time": 5.287, "note_off_time": 5.484}, {"pitch": 62, "velocity": 74, "note_on_time": 5.502, "note_off_time": 5.683}, {"pitch": 62, "velocity": 54, "note_on_time": 5.792, "note_off_time": 6.027}]</notes><guidance name="Guidance Mode">None</guidance><error name="Error value">0.833456894736842</error></trial><trial trial_no="5" timestamp="2022_11_14-18_44_24"><notes name="Played Notes">[{"pitch": 62, "velocity": 78, "note_on_time": 0.8, "note_off_time": 1.276}, {"pitch": 65, "velocity": 78, "note_on_time": 1.249, "note_off_time": 1.549}, {"pitch": 60, "velocity": 82, "note_on_time": 1.524, "note_off_time": 1.763}, {"pitch": 64, "velocity": 81, "note_on_time": 1.772, "note_off_time": 2.014}, {"pitch": 62, "velocity": 75, "note_on_time": 2.003, "note_off_time": 2.231}, {"pitch": 64, "velocity": 78, "note_on_time": 2.239, "note_off_time": 2.45}, {"pitch": 60, "velocity": 79, "note_on_time": 2.471, "note_off_time": 2.589}, {"pitch": 60, "velocity": 82, "note_on_time": 2.704, "note_off_time": 2.949}, {"pitch": 64, "velocity": 73, "note_on_time": 2.939, "note_off_time": 3.22}, {"pitch": 60, "velocity": 84, "note_on_time": 3.229, "note_off_time": 3.491}, {"pitch": 62, "velocity": 79, "note_on_time": 3.485, "note_off_time": 3.782}, {"pitch": 64, "velocity": 76, "note_on_time": 3.742, "note_off_time": 3.829}, {"pitch": 64, "velocity": 44, "note_on_time": 4.116, "note_off_time": 4.336}, {"pitch": 65, "velocity": 70, "note_on_time": 4.363, "note_off_time": 4.488}, {"pitch": 65, "velocity": 70, "note_on_time": 4.61, "note_off_time": 4.903}, {"pitch": 62, "velocity": 80, "note_on_time": 4.878, "note_off_time": 5.216}, {"pitch": 64, "velocity": 76, "note_on_time": 5.521, "note_off_time": 5.81}, {"pitch": 62, "velocity": 79, "note_on_time": 5.783, "note_off_time": 6.149}]</notes><guidance name="Guidance Mode">None</guidance><error name="Error value">0.7927323684210527</error></trial></trials></MIDI>