<MIDI midiNo="2022_11_03-13_20_07"><target_notes><notes name="Note List">[{"pitch": 42, "velocity": 80, "note_on_time": 0.004, "note_off_time": 0.246}, {"pitch": 42, "velocity": 80, "note_on_time": 0.246, "note_off_time": 0.481}, {"pitch": 42, "velocity": 80, "note_on_time": 0.481, "note_off_time": 0.713}, {"pitch": 42, "velocity": 80, "note_on_time": 0.713, "note_off_time": 0.947}, {"pitch": 60, "velocity": 80, "note_on_time": 0.947, "note_off_time": 1.178}, {"pitch": 42, "velocity": 80, "note_on_time": 0.947, "note_off_time": 1.178}, {"pitch": 62, "velocity": 80, "note_on_time": 1.178, "note_off_time": 1.412}, {"pitch": 42, "velocity": 80, "note_on_time": 1.178, "note_off_time": 1.412}, {"pitch": 60, "velocity": 80, "note_on_time": 1.412, "note_off_time": 1.647}, {"pitch": 42, "velocity": 80, "note_on_time": 1.412, "note_off_time": 1.647}, {"pitch": 62, "velocity": 80, "note_on_time": 1.647, "note_off_time": 1.878}, {"pitch": 42, "velocity": 80, "note_on_time": 1.647, "note_off_time": 1.879}, {"pitch": 42, "velocity": 80, "note_on_time": 1.879, "note_off_time": 2.113}, {"pitch": 60, "velocity": 80, "note_on_time": 1.878, "note_off_time": 2.346}, {"pitch": 42, "velocity": 80, "note_on_time": 2.113, "note_off_time": 2.346}, {"pitch": 42, "velocity": 80, "note_on_time": 2.347, "note_off_time": 2.579}, {"pitch": 42, "velocity": 80, "note_on_time": 2.579, "note_off_time": 2.812}, {"pitch": 62, "velocity": 80, "note_on_time": 2.812, "note_off_time": 3.044}, {"pitch": 42, "velocity": 80, "note_on_time": 2.812, "note_off_time": 3.045}, {"pitch": 62, "velocity": 80, "note_on_time": 3.044, "note_off_time": 3.278}, {"pitch": 42, "velocity": 80, "note_on_time": 3.045, "note_off_time": 3.278}, {"pitch": 60, "velocity": 80, "note_on_time": 3.278, "note_off_time": 3.513}, {"pitch": 42, "velocity": 80, "note_on_time": 3.279, "note_off_time": 3.513}, {"pitch": 62, "velocity": 80, "note_on_time": 3.513, "note_off_time": 3.744}, {"pitch": 42, "velocity": 80, "note_on_time": 3.513, "note_off_time": 3.744}, {"pitch": 60, "velocity": 80, "note_on_time": 3.744, "note_off_time": 3.977}, {"pitch": 42, "velocity": 80, "note_on_time": 3.744, "note_off_time": 3.977}, {"pitch": 62, "velocity": 80, "note_on_time": 3.977, "note_off_time": 4.211}, {"pitch": 42, "velocity": 80, "note_on_time": 3.977, "note_off_time": 4.211}, {"pitch": 42, "velocity": 80, "note_on_time": 4.212, "note_off_time": 4.444}, {"pitch": 64, "velocity": 80, "note_on_time": 4.211, "note_off_time": 4.679}, {"pitch": 42, "velocity": 80, "note_on_time": 4.444, "note_off_time": 4.679}, {"pitch": 60, "velocity": 80, "note_on_time": 4.679, "note_off_time": 4.912}, {"pitch": 42, "velocity": 80, "note_on_time": 4.68, "note_off_time": 4.913}, {"pitch": 62, "velocity": 80, "note_on_time": 4.912, "note_off_time": 5.143}, {"pitch": 42, "velocity": 80, "note_on_time": 4.913, "note_off_time": 5.143}, {"pitch": 64, "velocity": 80, "note_on_time": 5.143, "note_off_time": 5.376}, {"pitch": 42, "velocity": 80, "note_on_time": 5.143, "note_off_time": 5.376}, {"pitch": 64, "velocity": 80, "note_on_time": 5.376, "note_off_time": 5.609}, {"pitch": 42, "velocity": 80, "note_on_time": 5.376, "note_off_time": 5.61}, {"pitch": 64, "velocity": 80, "note_on_time": 5.609, "note_off_time": 5.841}, {"pitch": 42, "velocity": 80, "note_on_time": 5.61, "note_off_time": 5.842}, {"pitch": 64, "velocity": 80, "note_on_time": 5.841, "note_off_time": 6.073}, {"pitch": 42, "velocity": 80, "note_on_time": 5.842, "note_off_time": 6.074}, {"pitch": 64, "velocity": 80, "note_on_time": 6.073, "note_off_time": 6.309}, {"pitch": 42, "velocity": 80, "note_on_time": 6.074, "note_off_time": 6.309}, {"pitch": 60, "velocity": 80, "note_on_time": 6.309, "note_off_time": 6.545}, {"pitch": 42, "velocity": 80, "note_on_time": 6.31, "note_off_time": 6.545}, {"pitch": 60, "velocity": 80, "note_on_time": 6.545, "note_off_time": 6.779}, {"pitch": 42, "velocity": 80, "note_on_time": 6.545, "note_off_time": 6.779}, {"pitch": 62, "velocity": 80, "note_on_time": 6.779, "note_off_time": 7.011}, {"pitch": 42, "velocity": 80, "note_on_time": 6.779, "note_off_time": 7.011}, {"pitch": 60, "velocity": 80, "note_on_time": 7.011, "note_off_time": 7.244}, {"pitch": 42, "velocity": 80, "note_on_time": 7.011, "note_off_time": 7.244}, {"pitch": 60, "velocity": 80, "note_on_time": 7.244, "note_off_time": 7.479}, {"pitch": 42, "velocity": 80, "note_on_time": 7.245, "note_off_time": 7.479}, {"pitch": 42, "velocity": 80, "note_on_time": 7.48, "note_off_time": 7.714}, {"pitch": 60, "velocity": 80, "note_on_time": 7.714, "note_off_time": 7.948}, {"pitch": 42, "velocity": 80, "note_on_time": 7.714, "note_off_time": 7.948}, {"pitch": 60, "velocity": 80, "note_on_time": 7.948, "note_off_time": 8.181}, {"pitch": 42, "velocity": 80, "note_on_time": 7.949, "note_off_time": 8.181}, {"pitch": 60, "velocity": 80, "note_on_time": 8.181, "note_off_time": 8.412}, {"pitch": 42, "velocity": 80, "note_on_time": 8.182, "note_off_time": 8.412}]</notes><options name="Option List">((4, 4), [0.5, 0.25], 3, 8, &lt;NoteRangePerHand.THREE_NOTES: 4&gt;, &lt;NoteRangePerHand.ONE_NOTE: 2&gt;, False, True, False, '265')</options></target_notes><trials><trial trial_no="1" timestamp="2022_11_03-13_19_57"><notes name="Played Notes">[{"pitch": 60, "velocity": 52, "note_on_time": 0.984, "note_off_time": 1.136}, {"pitch": 62, "velocity": 56, "note_on_time": 1.232, "note_off_time": 1.372}, {"pitch": 60, "velocity": 63, "note_on_time": 1.486, "note_off_time": 1.638}, {"pitch": 62, "velocity": 49, "note_on_time": 1.722, "note_off_time": 1.849}, {"pitch": 60, "velocity": 90, "note_on_time": 1.988, "note_off_time": 2.575}, {"pitch": 60, "velocity": 49, "note_on_time": 2.856, "note_off_time": 2.904}, {"pitch": 62, "velocity": 77, "note_on_time": 2.957, "note_off_time": 3.133}, {"pitch": 62, "velocity": 73, "note_on_time": 3.221, "note_off_time": 3.397}, {"pitch": 60, "velocity": 59, "note_on_time": 3.462, "note_off_time": 3.605}, {"pitch": 62, "velocity": 59, "note_on_time": 3.676, "note_off_time": 3.814}, {"pitch": 60, "velocity": 60, "note_on_time": 3.964, "note_off_time": 4.149}, {"pitch": 62, "velocity": 41, "note_on_time": 4.204, "note_off_time": 4.344}, {"pitch": 64, "velocity": 55, "note_on_time": 4.466, "note_off_time": 4.861}, {"pitch": 60, "velocity": 70, "note_on_time": 5.14, "note_off_time": 5.321}, {"pitch": 60, "velocity": 56, "note_on_time": 5.36, "note_off_time": 5.539}, {"pitch": 62, "velocity": 54, "note_on_time": 5.605, "note_off_time": 5.757}, {"pitch": 64, "velocity": 70, "note_on_time": 5.885, "note_off_time": 6.067}, {"pitch": 64, "velocity": 65, "note_on_time": 6.121, "note_off_time": 6.262}, {"pitch": 64, "velocity": 73, "note_on_time": 6.347, "note_off_time": 6.492}, {"pitch": 64, "velocity": 71, "note_on_time": 6.589, "note_off_time": 6.714}, {"pitch": 64, "velocity": 54, "note_on_time": 6.827, "note_off_time": 7.008}, {"pitch": 62, "velocity": 56, "note_on_time": 7.076, "note_off_time": 7.19}, {"pitch": 62, "velocity": 51, "note_on_time": 7.3, "note_off_time": 7.43}, {"pitch": 60, "velocity": 63, "note_on_time": 7.576, "note_off_time": 7.7}, {"pitch": 62, "velocity": 20, "note_on_time": 7.874, "note_off_time": 7.993}]</notes><guidance name="Guidance Mode">None</guidance><error name="Error value">0.8097499999999999</error></trial><trial trial_no="2" timestamp="2022_11_03-13_20_16"><notes name="Played Notes">[{"pitch": 60, "velocity": 61, "note_on_time": 0.991, "note_off_time": 1.096}, {"pitch": 62, "velocity": 50, "note_on_time": 1.237, "note_off_time": 1.36}, {"pitch": 60, "velocity": 62, "note_on_time": 1.476, "note_off_time": 1.587}, {"pitch": 62, "velocity": 62, "note_on_time": 1.697, "note_off_time": 1.804}, {"pitch": 60, "velocity": 97, "note_on_time": 1.971, "note_off_time": 2.421}, {"pitch": 60, "velocity": 54, "note_on_time": 2.695, "note_off_time": 2.83}, {"pitch": 60, "velocity": 37, "note_on_time": 2.974, "note_off_time": 3.033}, {"pitch": 62, "velocity": 52, "note_on_time": 3.069, "note_off_time": 3.218}, {"pitch": 62, "velocity": 59, "note_on_time": 3.322, "note_off_time": 3.447}, {"pitch": 60, "velocity": 64, "note_on_time": 3.529, "note_off_time": 3.63}, {"pitch": 62, "velocity": 43, "note_on_time": 3.756, "note_off_time": 3.886}, {"pitch": 60, "velocity": 51, "note_on_time": 4.01, "note_off_time": 4.16}, {"pitch": 62, "velocity": 47, "note_on_time": 4.246, "note_off_time": 4.368}, {"pitch": 64, "velocity": 52, "note_on_time": 4.455, "note_off_time": 4.752}, {"pitch": 60, "velocity": 38, "note_on_time": 4.971, "note_off_time": 5.087}, {"pitch": 62, "velocity": 44, "note_on_time": 5.259, "note_off_time": 5.377}, {"pitch": 64, "velocity": 68, "note_on_time": 5.481, "note_off_time": 5.601}, {"pitch": 64, "velocity": 44, "note_on_time": 5.687, "note_off_time": 5.86}, {"pitch": 64, "velocity": 78, "note_on_time": 5.941, "note_off_time": 6.085}, {"pitch": 64, "velocity": 68, "note_on_time": 6.171, "note_off_time": 6.282}, {"pitch": 64, "velocity": 66, "note_on_time": 6.377, "note_off_time": 6.506}, {"pitch": 62, "velocity": 59, "note_on_time": 6.618, "note_off_time": 6.704}, {"pitch": 62, "velocity": 49, "note_on_time": 6.817, "note_off_time": 6.933}, {"pitch": 62, "velocity": 7, "note_on_time": 7.195, "note_off_time": 7.405}, {"pitch": 62, "velocity": 37, "note_on_time": 7.479, "note_off_time": 8.043}, {"pitch": 60, "velocity": 62, "note_on_time": 8.27, "note_off_time": 8.369}]</notes><guidance name="Guidance Mode">None</guidance><error name="Error value">0.6330691666666667</error></trial><trial trial_no="3" timestamp="2022_11_03-13_20_38"><notes name="Played Notes">[{"pitch": 60, "velocity": 54, "note_on_time": 0.937, "note_off_time": 1.063}, {"pitch": 62, "velocity": 38, "note_on_time": 1.208, "note_off_time": 1.319}, {"pitch": 60, "velocity": 49, "note_on_time": 1.434, "note_off_time": 1.548}, {"pitch": 62, "velocity": 51, "note_on_time": 1.648, "note_off_time": 1.762}, {"pitch": 60, "velocity": 54, "note_on_time": 1.881, "note_off_time": 2.348}, {"pitch": 62, "velocity": 70, "note_on_time": 2.931, "note_off_time": 3.062}, {"pitch": 62, "velocity": 66, "note_on_time": 3.159, "note_off_time": 3.288}, {"pitch": 60, "velocity": 54, "note_on_time": 3.408, "note_off_time": 3.491}, {"pitch": 62, "velocity": 40, "note_on_time": 3.622, "note_off_time": 3.751}, {"pitch": 60, "velocity": 41, "note_on_time": 3.876, "note_off_time": 3.986}, {"pitch": 62, "velocity": 45, "note_on_time": 4.093, "note_off_time": 4.225}, {"pitch": 64, "velocity": 67, "note_on_time": 4.319, "note_off_time": 4.585}, {"pitch": 62, "velocity": 60, "note_on_time": 4.844, "note_off_time": 4.986}, {"pitch": 62, "velocity": 48, "note_on_time": 5.058, "note_off_time": 5.148}, {"pitch": 62, "velocity": 30, "note_on_time": 5.44, "note_off_time": 5.639}, {"pitch": 60, "velocity": 52, "note_on_time": 5.789, "note_off_time": 5.919}, {"pitch": 64, "velocity": 40, "note_on_time": 5.956, "note_off_time": 6.143}, {"pitch": 64, "velocity": 69, "note_on_time": 6.223, "note_off_time": 6.568}, {"pitch": 60, "velocity": 48, "note_on_time": 6.754, "note_off_time": 6.878}, {"pitch": 60, "velocity": 64, "note_on_time": 7.045, "note_off_time": 7.12}, {"pitch": 60, "velocity": 26, "note_on_time": 7.267, "note_off_time": 7.338}, {"pitch": 64, "velocity": 33, "note_on_time": 7.478, "note_off_time": 7.667}, {"pitch": 62, "velocity": 1, "note_on_time": 7.859, "note_off_time": 8.108}]</notes><guidance name="Guidance Mode">None</guidance><error name="Error value">0.4967256250000001</error></trial></trials></MIDI>