<MIDI midiNo="2022_10_02-14_05_35"><target_notes><notes name="Note List">[{"pitch": 42, "velocity": 80, "note_on_time": 0.004, "note_off_time": 0.258}, {"pitch": 42, "velocity": 80, "note_on_time": 0.258, "note_off_time": 0.507}, {"pitch": 42, "velocity": 80, "note_on_time": 0.507, "note_off_time": 0.755}, {"pitch": 42, "velocity": 80, "note_on_time": 0.755, "note_off_time": 1.004}, {"pitch": 60, "velocity": 80, "note_on_time": 1.003, "note_off_time": 1.253}, {"pitch": 42, "velocity": 80, "note_on_time": 1.004, "note_off_time": 1.253}, {"pitch": 42, "velocity": 80, "note_on_time": 1.253, "note_off_time": 1.503}, {"pitch": 42, "velocity": 80, "note_on_time": 1.503, "note_off_time": 1.751}, {"pitch": 64, "velocity": 80, "note_on_time": 1.751, "note_off_time": 2.0}, {"pitch": 42, "velocity": 80, "note_on_time": 1.751, "note_off_time": 2.0}, {"pitch": 60, "velocity": 80, "note_on_time": 2.0, "note_off_time": 2.25}, {"pitch": 42, "velocity": 80, "note_on_time": 2.0, "note_off_time": 2.25}, {"pitch": 64, "velocity": 80, "note_on_time": 2.25, "note_off_time": 2.5}, {"pitch": 42, "velocity": 80, "note_on_time": 2.25, "note_off_time": 2.501}, {"pitch": 64, "velocity": 80, "note_on_time": 2.5, "note_off_time": 2.751}, {"pitch": 42, "velocity": 80, "note_on_time": 2.501, "note_off_time": 2.752}, {"pitch": 60, "velocity": 80, "note_on_time": 2.751, "note_off_time": 3.0}, {"pitch": 42, "velocity": 80, "note_on_time": 2.752, "note_off_time": 3.001}, {"pitch": 60, "velocity": 80, "note_on_time": 3.0, "note_off_time": 3.248}, {"pitch": 42, "velocity": 80, "note_on_time": 3.001, "note_off_time": 3.248}, {"pitch": 60, "velocity": 80, "note_on_time": 3.248, "note_off_time": 3.498}, {"pitch": 42, "velocity": 80, "note_on_time": 3.248, "note_off_time": 3.499}, {"pitch": 60, "velocity": 80, "note_on_time": 3.498, "note_off_time": 3.748}, {"pitch": 42, "velocity": 80, "note_on_time": 3.499, "note_off_time": 3.749}, {"pitch": 64, "velocity": 80, "note_on_time": 3.748, "note_off_time": 3.999}, {"pitch": 42, "velocity": 80, "note_on_time": 3.749, "note_off_time": 3.999}, {"pitch": 60, "velocity": 80, "note_on_time": 3.999, "note_off_time": 4.248}, {"pitch": 42, "velocity": 80, "note_on_time": 3.999, "note_off_time": 4.249}, {"pitch": 62, "velocity": 80, "note_on_time": 4.248, "note_off_time": 4.499}, {"pitch": 42, "velocity": 80, "note_on_time": 4.249, "note_off_time": 4.5}, {"pitch": 60, "velocity": 80, "note_on_time": 4.499, "note_off_time": 4.747}, {"pitch": 42, "velocity": 80, "note_on_time": 4.5, "note_off_time": 4.747}, {"pitch": 62, "velocity": 80, "note_on_time": 4.747, "note_off_time": 4.996}, {"pitch": 42, "velocity": 80, "note_on_time": 4.747, "note_off_time": 4.997}, {"pitch": 64, "velocity": 80, "note_on_time": 4.996, "note_off_time": 5.244}, {"pitch": 42, "velocity": 80, "note_on_time": 4.997, "note_off_time": 5.245}, {"pitch": 64, "velocity": 80, "note_on_time": 5.244, "note_off_time": 5.493}, {"pitch": 42, "velocity": 80, "note_on_time": 5.245, "note_off_time": 5.493}, {"pitch": 42, "velocity": 80, "note_on_time": 5.493, "note_off_time": 5.742}, {"pitch": 64, "velocity": 80, "note_on_time": 5.742, "note_off_time": 5.993}, {"pitch": 42, "velocity": 80, "note_on_time": 5.742, "note_off_time": 5.994}, {"pitch": 62, "velocity": 80, "note_on_time": 5.993, "note_off_time": 6.241}, {"pitch": 42, "velocity": 80, "note_on_time": 5.994, "note_off_time": 6.242}, {"pitch": 64, "velocity": 80, "note_on_time": 6.241, "note_off_time": 6.49}, {"pitch": 42, "velocity": 80, "note_on_time": 6.242, "note_off_time": 6.491}, {"pitch": 60, "velocity": 80, "note_on_time": 6.49, "note_off_time": 6.741}, {"pitch": 42, "velocity": 80, "note_on_time": 6.491, "note_off_time": 6.741}, {"pitch": 64, "velocity": 80, "note_on_time": 6.741, "note_off_time": 6.991}, {"pitch": 42, "velocity": 80, "note_on_time": 6.741, "note_off_time": 6.992}, {"pitch": 60, "velocity": 80, "note_on_time": 6.991, "note_off_time": 7.24}, {"pitch": 42, "velocity": 80, "note_on_time": 6.992, "note_off_time": 7.24}, {"pitch": 62, "velocity": 80, "note_on_time": 7.24, "note_off_time": 7.489}, {"pitch": 42, "velocity": 80, "note_on_time": 7.24, "note_off_time": 7.489}, {"pitch": 64, "velocity": 80, "note_on_time": 7.489, "note_off_time": 7.74}, {"pitch": 42, "velocity": 80, "note_on_time": 7.489, "note_off_time": 7.741}, {"pitch": 62, "velocity": 80, "note_on_time": 7.74, "note_off_time": 7.991}, {"pitch": 42, "velocity": 80, "note_on_time": 7.741, "note_off_time": 7.991}, {"pitch": 42, "velocity": 80, "note_on_time": 7.992, "note_off_time": 8.24}, {"pitch": 62, "velocity": 80, "note_on_time": 8.24, "note_off_time": 8.492}, {"pitch": 42, "velocity": 80, "note_on_time": 8.24, "note_off_time": 8.492}, {"pitch": 62, "velocity": 80, "note_on_time": 8.492, "note_off_time": 8.74}, {"pitch": 42, "velocity": 80, "note_on_time": 8.492, "note_off_time": 8.74}, {"pitch": 62, "velocity": 80, "note_on_time": 8.74, "note_off_time": 8.991}, {"pitch": 42, "velocity": 80, "note_on_time": 8.74, "note_off_time": 8.991}]</notes><options name="Option List">((4, 4), [0.25], 3, 8, &lt;NoteRangePerHand.THREE_NOTES: 4&gt;, &lt;NoteRangePerHand.ONE_NOTE: 2&gt;, False, True, True, 248)</options></target_notes><trials><trial trial_no="1" timestamp="2022_10_02-14_05_24"><notes name="Played Notes">[{"pitch": 60, "velocity": 60, "note_on_time": 0.993, "note_off_time": 1.262}, {"pitch": 64, "velocity": 61, "note_on_time": 2.035, "note_off_time": 2.272}, {"pitch": 60, "velocity": 55, "note_on_time": 2.297, "note_off_time": 2.535}, {"pitch": 64, "velocity": 50, "note_on_time": 2.578, "note_off_time": 2.776}, {"pitch": 60, "velocity": 55, "note_on_time": 2.838, "note_off_time": 2.978}, {"pitch": 60, "velocity": 51, "note_on_time": 3.099, "note_off_time": 3.232}, {"pitch": 60, "velocity": 41, "note_on_time": 3.384, "note_off_time": 3.483}, {"pitch": 60, "velocity": 54, "note_on_time": 3.647, "note_off_time": 3.824}, {"pitch": 64, "velocity": 45, "note_on_time": 3.951, "note_off_time": 4.181}, {"pitch": 60, "velocity": 54, "note_on_time": 4.229, "note_off_time": 4.439}, {"pitch": 64, "velocity": 22, "note_on_time": 4.555, "note_off_time": 4.687}, {"pitch": 62, "velocity": 1, "note_on_time": 5.08, "note_off_time": 5.223}, {"pitch": 64, "velocity": 59, "note_on_time": 5.988, "note_off_time": 6.131}, {"pitch": 64, "velocity": 48, "note_on_time": 6.27, "note_off_time": 6.648}, {"pitch": 64, "velocity": 38, "note_on_time": 6.919, "note_off_time": 7.237}, {"pitch": 64, "velocity": 60, "note_on_time": 7.996, "note_off_time": 8.147}, {"pitch": 64, "velocity": 6, "note_on_time": 8.36, "note_off_time": 8.534}]</notes><guidance name="Guidance Mode">None</guidance><error name="Error value">0.7890425999999999</error></trial><trial trial_no="2" timestamp="2022_10_02-14_05_47"><notes name="Played Notes">[{"pitch": 60, "velocity": 69, "note_on_time": 0.994, "note_off_time": 1.219}, {"pitch": 64, "velocity": 60, "note_on_time": 1.972, "note_off_time": 2.221}, {"pitch": 60, "velocity": 55, "note_on_time": 2.249, "note_off_time": 2.401}, {"pitch": 64, "velocity": 48, "note_on_time": 2.526, "note_off_time": 2.629}, {"pitch": 64, "velocity": 47, "note_on_time": 2.767, "note_off_time": 2.97}, {"pitch": 60, "velocity": 43, "note_on_time": 3.039, "note_off_time": 3.122}, {"pitch": 60, "velocity": 50, "note_on_time": 3.284, "note_off_time": 3.376}, {"pitch": 60, "velocity": 52, "note_on_time": 3.53, "note_off_time": 3.655}, {"pitch": 60, "velocity": 52, "note_on_time": 3.788, "note_off_time": 4.017}, {"pitch": 64, "velocity": 46, "note_on_time": 4.041, "note_off_time": 4.27}, {"pitch": 60, "velocity": 45, "note_on_time": 4.283, "note_off_time": 4.539}, {"pitch": 62, "velocity": 47, "note_on_time": 4.548, "note_off_time": 4.821}, {"pitch": 60, "velocity": 58, "note_on_time": 4.814, "note_off_time": 5.011}, {"pitch": 62, "velocity": 42, "note_on_time": 5.058, "note_off_time": 5.297}, {"pitch": 64, "velocity": 55, "note_on_time": 5.314, "note_off_time": 5.468}, {"pitch": 64, "velocity": 53, "note_on_time": 5.578, "note_off_time": 5.778}, {"pitch": 64, "velocity": 60, "note_on_time": 6.129, "note_off_time": 6.375}, {"pitch": 62, "velocity": 56, "note_on_time": 6.357, "note_off_time": 6.569}, {"pitch": 64, "velocity": 52, "note_on_time": 6.629, "note_off_time": 6.85}, {"pitch": 62, "velocity": 49, "note_on_time": 6.861, "note_off_time": 7.089}, {"pitch": 60, "velocity": 30, "note_on_time": 7.137, "note_off_time": 7.357}, {"pitch": 62, "velocity": 48, "note_on_time": 7.385, "note_off_time": 7.582}, {"pitch": 60, "velocity": 56, "note_on_time": 7.676, "note_off_time": 7.836}, {"pitch": 62, "velocity": 31, "note_on_time": 7.907, "note_off_time": 7.999}, {"pitch": 62, "velocity": 41, "note_on_time": 8.182, "note_off_time": 8.467}]</notes><guidance name="Guidance Mode">None</guidance><error name="Error value">0.3824686</error></trial><trial trial_no="3" timestamp="2022_10_02-14_06_15"><notes name="Played Notes">[{"pitch": 60, "velocity": 65, "note_on_time": 1.006, "note_off_time": 1.248}, {"pitch": 64, "velocity": 65, "note_on_time": 2.029, "note_off_time": 2.26}, {"pitch": 60, "velocity": 54, "note_on_time": 2.275, "note_off_time": 2.461}, {"pitch": 64, "velocity": 54, "note_on_time": 2.536, "note_off_time": 2.684}, {"pitch": 64, "velocity": 60, "note_on_time": 2.792, "note_off_time": 3.011}, {"pitch": 60, "velocity": 54, "note_on_time": 3.052, "note_off_time": 3.169}, {"pitch": 60, "velocity": 62, "note_on_time": 3.291, "note_off_time": 3.427}, {"pitch": 60, "velocity": 52, "note_on_time": 3.571, "note_off_time": 3.718}, {"pitch": 64, "velocity": 55, "note_on_time": 3.798, "note_off_time": 4.011}, {"pitch": 60, "velocity": 52, "note_on_time": 4.023, "note_off_time": 4.224}, {"pitch": 62, "velocity": 53, "note_on_time": 4.25, "note_off_time": 4.496}, {"pitch": 60, "velocity": 58, "note_on_time": 4.503, "note_off_time": 4.706}, {"pitch": 62, "velocity": 46, "note_on_time": 4.75, "note_off_time": 4.884}, {"pitch": 62, "velocity": 23, "note_on_time": 5.049, "note_off_time": 5.1}, {"pitch": 64, "velocity": 54, "note_on_time": 5.078, "note_off_time": 5.211}, {"pitch": 64, "velocity": 16, "note_on_time": 5.305, "note_off_time": 5.54}, {"pitch": 64, "velocity": 54, "note_on_time": 6.003, "note_off_time": 6.26}, {"pitch": 62, "velocity": 44, "note_on_time": 6.254, "note_off_time": 6.509}, {"pitch": 64, "velocity": 55, "note_on_time": 6.509, "note_off_time": 6.742}, {"pitch": 62, "velocity": 43, "note_on_time": 6.747, "note_off_time": 7.099}, {"pitch": 60, "velocity": 55, "note_on_time": 7.056, "note_off_time": 7.271}, {"pitch": 62, "velocity": 48, "note_on_time": 7.297, "note_off_time": 7.589}, {"pitch": 64, "velocity": 58, "note_on_time": 7.555, "note_off_time": 7.81}, {"pitch": 62, "velocity": 43, "note_on_time": 7.804, "note_off_time": 8.038}, {"pitch": 62, "velocity": 55, "note_on_time": 8.55, "note_off_time": 8.704}, {"pitch": 62, "velocity": 10, "note_on_time": 8.765, "note_off_time": 8.934}]</notes><guidance name="Guidance Mode">None</guidance><error name="Error value">0.3806556000000002</error></trial></trials></MIDI>