<MIDI midiNo="2022_12_22-13_14_21"><target_notes><notes name="Note List">[{"pitch": 42, "velocity": 80, "note_on_time": 0.004, "note_off_time": 0.381}, {"pitch": 42, "velocity": 80, "note_on_time": 0.382, "note_off_time": 0.753}, {"pitch": 42, "velocity": 80, "note_on_time": 0.753, "note_off_time": 1.125}, {"pitch": 42, "velocity": 80, "note_on_time": 1.125, "note_off_time": 1.5}, {"pitch": 64, "velocity": 80, "note_on_time": 1.5, "note_off_time": 1.873}, {"pitch": 42, "velocity": 80, "note_on_time": 1.5, "note_off_time": 1.873}, {"pitch": 42, "velocity": 80, "note_on_time": 1.873, "note_off_time": 2.246}, {"pitch": 42, "velocity": 80, "note_on_time": 2.246, "note_off_time": 2.616}, {"pitch": 64, "velocity": 80, "note_on_time": 2.616, "note_off_time": 2.986}, {"pitch": 42, "velocity": 80, "note_on_time": 2.616, "note_off_time": 2.986}, {"pitch": 62, "velocity": 80, "note_on_time": 2.986, "note_off_time": 3.356}, {"pitch": 42, "velocity": 80, "note_on_time": 2.986, "note_off_time": 3.356}, {"pitch": 42, "velocity": 80, "note_on_time": 3.357, "note_off_time": 3.72}, {"pitch": 62, "velocity": 80, "note_on_time": 3.356, "note_off_time": 4.091}, {"pitch": 42, "velocity": 80, "note_on_time": 3.72, "note_off_time": 4.091}, {"pitch": 42, "velocity": 80, "note_on_time": 4.091, "note_off_time": 4.463}, {"pitch": 64, "velocity": 80, "note_on_time": 4.463, "note_off_time": 4.838}, {"pitch": 42, "velocity": 80, "note_on_time": 4.463, "note_off_time": 4.838}, {"pitch": 62, "velocity": 80, "note_on_time": 4.838, "note_off_time": 5.216}, {"pitch": 42, "velocity": 80, "note_on_time": 4.839, "note_off_time": 5.217}, {"pitch": 62, "velocity": 80, "note_on_time": 5.216, "note_off_time": 5.59}, {"pitch": 42, "velocity": 80, "note_on_time": 5.217, "note_off_time": 5.591}, {"pitch": 60, "velocity": 80, "note_on_time": 5.59, "note_off_time": 5.963}, {"pitch": 42, "velocity": 80, "note_on_time": 5.591, "note_off_time": 5.963}, {"pitch": 62, "velocity": 80, "note_on_time": 5.963, "note_off_time": 6.338}, {"pitch": 42, "velocity": 80, "note_on_time": 5.963, "note_off_time": 6.339}, {"pitch": 42, "velocity": 80, "note_on_time": 6.339, "note_off_time": 6.711}, {"pitch": 42, "velocity": 80, "note_on_time": 6.712, "note_off_time": 7.086}, {"pitch": 42, "velocity": 80, "note_on_time": 7.086, "note_off_time": 7.461}, {"pitch": 62, "velocity": 80, "note_on_time": 7.46, "note_off_time": 7.833}, {"pitch": 42, "velocity": 80, "note_on_time": 7.461, "note_off_time": 7.834}, {"pitch": 62, "velocity": 80, "note_on_time": 7.833, "note_off_time": 8.207}, {"pitch": 42, "velocity": 80, "note_on_time": 7.834, "note_off_time": 8.208}, {"pitch": 42, "velocity": 80, "note_on_time": 8.208, "note_off_time": 8.581}, {"pitch": 62, "velocity": 80, "note_on_time": 8.207, "note_off_time": 8.952}, {"pitch": 42, "velocity": 80, "note_on_time": 8.582, "note_off_time": 8.952}, {"pitch": 60, "velocity": 80, "note_on_time": 8.952, "note_off_time": 9.324}, {"pitch": 42, "velocity": 80, "note_on_time": 8.953, "note_off_time": 9.324}, {"pitch": 62, "velocity": 80, "note_on_time": 9.324, "note_off_time": 9.699}, {"pitch": 42, "velocity": 80, "note_on_time": 9.324, "note_off_time": 9.699}, {"pitch": 42, "velocity": 80, "note_on_time": 9.699, "note_off_time": 10.073}, {"pitch": 64, "velocity": 80, "note_on_time": 9.699, "note_off_time": 10.444}, {"pitch": 42, "velocity": 80, "note_on_time": 10.073, "note_off_time": 10.444}, {"pitch": 60, "velocity": 80, "note_on_time": 10.444, "note_off_time": 10.816}, {"pitch": 42, "velocity": 80, "note_on_time": 10.444, "note_off_time": 10.817}, {"pitch": 42, "velocity": 80, "note_on_time": 10.817, "note_off_time": 11.191}, {"pitch": 42, "velocity": 80, "note_on_time": 11.191, "note_off_time": 11.567}, {"pitch": 64, "velocity": 80, "note_on_time": 11.191, "note_off_time": 11.943}, {"pitch": 42, "velocity": 80, "note_on_time": 11.567, "note_off_time": 11.943}, {"pitch": 42, "velocity": 80, "note_on_time": 11.944, "note_off_time": 12.317}, {"pitch": 64, "velocity": 80, "note_on_time": 12.317, "note_off_time": 12.692}, {"pitch": 42, "velocity": 80, "note_on_time": 12.318, "note_off_time": 12.693}, {"pitch": 64, "velocity": 80, "note_on_time": 12.692, "note_off_time": 13.069}, {"pitch": 42, "velocity": 80, "note_on_time": 12.693, "note_off_time": 13.069}, {"pitch": 64, "velocity": 80, "note_on_time": 13.069, "note_off_time": 13.441}, {"pitch": 42, "velocity": 80, "note_on_time": 13.069, "note_off_time": 13.441}]</notes><options name="Option List">((4, 4), [0.5, 0.25], 3, 8, &lt;NoteRangePerHand.THREE_NOTES: 4&gt;, &lt;NoteRangePerHand.ONE_NOTE: 2&gt;, False, True, False, '166')</options></target_notes><trials><trial trial_no="1" timestamp="2022_12_22-13_14_06"><notes name="Played Notes">[{"pitch": 64, "velocity": 87, "note_on_time": 1.52, "note_off_time": 1.715}, {"pitch": 64, "velocity": 79, "note_on_time": 2.622, "note_off_time": 2.782}, {"pitch": 62, "velocity": 88, "note_on_time": 2.967, "note_off_time": 3.139}, {"pitch": 62, "velocity": 93, "note_on_time": 3.326, "note_off_time": 3.817}, {"pitch": 64, "velocity": 91, "note_on_time": 4.506, "note_off_time": 4.676}, {"pitch": 62, "velocity": 80, "note_on_time": 4.854, "note_off_time": 5.044}, {"pitch": 62, "velocity": 88, "note_on_time": 5.244, "note_off_time": 5.447}, {"pitch": 60, "velocity": 79, "note_on_time": 5.582, "note_off_time": 5.792}, {"pitch": 62, "velocity": 86, "note_on_time": 5.963, "note_off_time": 6.155}, {"pitch": 62, "velocity": 88, "note_on_time": 7.432, "note_off_time": 7.623}, {"pitch": 62, "velocity": 82, "note_on_time": 7.799, "note_off_time": 8.001}, {"pitch": 60, "velocity": 80, "note_on_time": 8.181, "note_off_time": 8.578}, {"pitch": 62, "velocity": 80, "note_on_time": 8.908, "note_off_time": 9.105}, {"pitch": 62, "velocity": 76, "note_on_time": 9.287, "note_off_time": 9.468}, {"pitch": 64, "velocity": 84, "note_on_time": 9.669, "note_off_time": 10.149}, {"pitch": 60, "velocity": 79, "note_on_time": 10.798, "note_off_time": 10.998}, {"pitch": 64, "velocity": 71, "note_on_time": 11.527, "note_off_time": 11.895}, {"pitch": 64, "velocity": 89, "note_on_time": 13.03, "note_off_time": 13.175}]</notes><guidance name="Guidance Mode">None</guidance><error name="Error value">0.34113029411764717</error></trial><trial trial_no="2" timestamp="2022_12_22-13_14_36"><notes name="Played Notes">[{"pitch": 64, "velocity": 92, "note_on_time": 1.479, "note_off_time": 1.652}, {"pitch": 64, "velocity": 84, "note_on_time": 2.581, "note_off_time": 2.765}, {"pitch": 62, "velocity": 87, "note_on_time": 2.953, "note_off_time": 3.124}, {"pitch": 62, "velocity": 93, "note_on_time": 3.335, "note_off_time": 3.511}, {"pitch": 62, "velocity": 71, "note_on_time": 4.634, "note_off_time": 4.817}]</notes><guidance name="Guidance Mode">None</guidance><error name="Error value">1.3461835294117643</error></trial><trial trial_no="3" timestamp="2022_12_22-13_15_08"><notes name="Played Notes">[{"pitch": 64, "velocity": 83, "note_on_time": 1.518, "note_off_time": 1.701}, {"pitch": 64, "velocity": 87, "note_on_time": 2.61, "note_off_time": 2.803}, {"pitch": 62, "velocity": 81, "note_on_time": 3.002, "note_off_time": 3.136}, {"pitch": 62, "velocity": 93, "note_on_time": 3.34, "note_off_time": 3.658}, {"pitch": 64, "velocity": 84, "note_on_time": 4.454, "note_off_time": 4.631}, {"pitch": 62, "velocity": 80, "note_on_time": 4.828, "note_off_time": 4.975}, {"pitch": 62, "velocity": 88, "note_on_time": 5.204, "note_off_time": 5.391}, {"pitch": 60, "velocity": 77, "note_on_time": 5.541, "note_off_time": 5.749}, {"pitch": 62, "velocity": 91, "note_on_time": 5.945, "note_off_time": 6.11}, {"pitch": 62, "velocity": 78, "note_on_time": 7.106, "note_off_time": 7.273}, {"pitch": 62, "velocity": 93, "note_on_time": 7.483, "note_off_time": 7.7}, {"pitch": 62, "velocity": 97, "note_on_time": 7.911, "note_off_time": 8.418}, {"pitch": 60, "velocity": 82, "note_on_time": 8.633, "note_off_time": 8.832}, {"pitch": 62, "velocity": 82, "note_on_time": 8.99, "note_off_time": 9.147}, {"pitch": 64, "velocity": 97, "note_on_time": 9.369, "note_off_time": 9.819}, {"pitch": 60, "velocity": 92, "note_on_time": 10.084, "note_off_time": 10.259}, {"pitch": 64, "velocity": 86, "note_on_time": 11.43, "note_off_time": 11.691}, {"pitch": 64, "velocity": 86, "note_on_time": 13.052, "note_off_time": 13.199}]</notes><guidance name="Guidance Mode">None</guidance><error name="Error value">0.21573205882352922</error></trial></trials></MIDI>