<MIDI midiNo="2022_09_29-12_48_33"><target_notes><notes name="Note List">[{"pitch": 42, "velocity": 80, "note_on_time": 0.004, "note_off_time": 0.297}, {"pitch": 42, "velocity": 80, "note_on_time": 0.297, "note_off_time": 0.591}, {"pitch": 42, "velocity": 80, "note_on_time": 0.591, "note_off_time": 0.884}, {"pitch": 42, "velocity": 80, "note_on_time": 0.884, "note_off_time": 1.167}, {"pitch": 62, "velocity": 80, "note_on_time": 1.166, "note_off_time": 1.463}, {"pitch": 42, "velocity": 80, "note_on_time": 1.167, "note_off_time": 1.463}, {"pitch": 42, "velocity": 80, "note_on_time": 1.463, "note_off_time": 1.757}, {"pitch": 62, "velocity": 80, "note_on_time": 1.463, "note_off_time": 2.052}, {"pitch": 42, "velocity": 80, "note_on_time": 1.757, "note_off_time": 2.052}, {"pitch": 62, "velocity": 80, "note_on_time": 2.052, "note_off_time": 2.347}, {"pitch": 42, "velocity": 80, "note_on_time": 2.053, "note_off_time": 2.347}, {"pitch": 60, "velocity": 80, "note_on_time": 2.347, "note_off_time": 2.639}, {"pitch": 42, "velocity": 80, "note_on_time": 2.347, "note_off_time": 2.639}, {"pitch": 60, "velocity": 80, "note_on_time": 2.639, "note_off_time": 2.921}, {"pitch": 42, "velocity": 80, "note_on_time": 2.639, "note_off_time": 2.921}, {"pitch": 62, "velocity": 80, "note_on_time": 2.921, "note_off_time": 3.213}, {"pitch": 42, "velocity": 80, "note_on_time": 2.921, "note_off_time": 3.214}, {"pitch": 62, "velocity": 80, "note_on_time": 3.213, "note_off_time": 3.495}, {"pitch": 42, "velocity": 80, "note_on_time": 3.214, "note_off_time": 3.495}, {"pitch": 60, "velocity": 80, "note_on_time": 3.495, "note_off_time": 3.789}, {"pitch": 42, "velocity": 80, "note_on_time": 3.495, "note_off_time": 3.789}, {"pitch": 42, "velocity": 80, "note_on_time": 3.79, "note_off_time": 4.086}, {"pitch": 60, "velocity": 80, "note_on_time": 3.789, "note_off_time": 4.38}, {"pitch": 42, "velocity": 80, "note_on_time": 4.086, "note_off_time": 4.38}, {"pitch": 64, "velocity": 80, "note_on_time": 4.38, "note_off_time": 4.676}, {"pitch": 42, "velocity": 80, "note_on_time": 4.38, "note_off_time": 4.676}, {"pitch": 42, "velocity": 80, "note_on_time": 4.676, "note_off_time": 4.971}, {"pitch": 62, "velocity": 80, "note_on_time": 4.676, "note_off_time": 5.265}, {"pitch": 42, "velocity": 80, "note_on_time": 4.972, "note_off_time": 5.265}, {"pitch": 42, "velocity": 80, "note_on_time": 5.266, "note_off_time": 5.548}, {"pitch": 62, "velocity": 80, "note_on_time": 5.548, "note_off_time": 5.845}, {"pitch": 42, "velocity": 80, "note_on_time": 5.548, "note_off_time": 5.845}, {"pitch": 60, "velocity": 80, "note_on_time": 5.845, "note_off_time": 6.14}, {"pitch": 42, "velocity": 80, "note_on_time": 5.845, "note_off_time": 6.14}, {"pitch": 64, "velocity": 80, "note_on_time": 6.14, "note_off_time": 6.436}, {"pitch": 42, "velocity": 80, "note_on_time": 6.14, "note_off_time": 6.436}, {"pitch": 42, "velocity": 80, "note_on_time": 6.436, "note_off_time": 6.732}, {"pitch": 42, "velocity": 80, "note_on_time": 6.733, "note_off_time": 7.028}, {"pitch": 64, "velocity": 80, "note_on_time": 7.027, "note_off_time": 7.308}, {"pitch": 42, "velocity": 80, "note_on_time": 7.028, "note_off_time": 7.308}, {"pitch": 64, "velocity": 80, "note_on_time": 7.308, "note_off_time": 7.604}, {"pitch": 42, "velocity": 80, "note_on_time": 7.309, "note_off_time": 7.604}, {"pitch": 64, "velocity": 80, "note_on_time": 7.604, "note_off_time": 7.899}, {"pitch": 42, "velocity": 80, "note_on_time": 7.604, "note_off_time": 7.9}, {"pitch": 62, "velocity": 80, "note_on_time": 7.9, "note_off_time": 8.193}, {"pitch": 42, "velocity": 80, "note_on_time": 7.9, "note_off_time": 8.194}, {"pitch": 60, "velocity": 80, "note_on_time": 8.193, "note_off_time": 8.475}, {"pitch": 42, "velocity": 80, "note_on_time": 8.194, "note_off_time": 8.475}, {"pitch": 64, "velocity": 80, "note_on_time": 8.475, "note_off_time": 8.756}, {"pitch": 42, "velocity": 80, "note_on_time": 8.475, "note_off_time": 8.756}, {"pitch": 62, "velocity": 80, "note_on_time": 8.756, "note_off_time": 9.038}, {"pitch": 42, "velocity": 80, "note_on_time": 8.756, "note_off_time": 9.038}, {"pitch": 62, "velocity": 80, "note_on_time": 9.038, "note_off_time": 9.334}, {"pitch": 42, "velocity": 80, "note_on_time": 9.039, "note_off_time": 9.334}, {"pitch": 42, "velocity": 80, "note_on_time": 9.334, "note_off_time": 9.63}, {"pitch": 62, "velocity": 80, "note_on_time": 9.63, "note_off_time": 9.911}, {"pitch": 42, "velocity": 80, "note_on_time": 9.631, "note_off_time": 9.911}, {"pitch": 62, "velocity": 80, "note_on_time": 9.911, "note_off_time": 10.208}, {"pitch": 42, "velocity": 80, "note_on_time": 9.911, "note_off_time": 10.208}, {"pitch": 62, "velocity": 80, "note_on_time": 10.208, "note_off_time": 10.501}, {"pitch": 42, "velocity": 80, "note_on_time": 10.208, "note_off_time": 10.501}]</notes><options name="Option List">((4, 4), [0.5, 0.25], 3, 8, &lt;NoteRangePerHand.THREE_NOTES: 4&gt;, &lt;NoteRangePerHand.ONE_NOTE: 2&gt;, False, True, False, 215)</options></target_notes><trials><trial trial_no="1" timestamp="2022_09_29-12_48_21"><notes name="Played Notes">[{"pitch": 62, "velocity": 87, "note_on_time": 1.225, "note_off_time": 1.332}, {"pitch": 62, "velocity": 95, "note_on_time": 1.512, "note_off_time": 1.971}, {"pitch": 62, "velocity": 93, "note_on_time": 2.097, "note_off_time": 2.286}, {"pitch": 60, "velocity": 97, "note_on_time": 2.368, "note_off_time": 2.51}, {"pitch": 60, "velocity": 98, "note_on_time": 2.657, "note_off_time": 2.802}, {"pitch": 62, "velocity": 90, "note_on_time": 2.954, "note_off_time": 3.067}, {"pitch": 62, "velocity": 88, "note_on_time": 3.214, "note_off_time": 3.356}, {"pitch": 60, "velocity": 93, "note_on_time": 3.501, "note_off_time": 3.627}, {"pitch": 60, "velocity": 97, "note_on_time": 3.771, "note_off_time": 4.283}, {"pitch": 64, "velocity": 85, "note_on_time": 4.383, "note_off_time": 4.807}, {"pitch": 62, "velocity": 87, "note_on_time": 4.937, "note_off_time": 5.556}, {"pitch": 62, "velocity": 93, "note_on_time": 5.864, "note_off_time": 5.971}, {"pitch": 60, "velocity": 92, "note_on_time": 6.127, "note_off_time": 6.271}, {"pitch": 64, "velocity": 89, "note_on_time": 6.423, "note_off_time": 6.695}, {"pitch": 62, "velocity": 86, "note_on_time": 6.8, "note_off_time": 6.919}, {"pitch": 62, "velocity": 72, "note_on_time": 7.098, "note_off_time": 7.199}, {"pitch": 62, "velocity": 83, "note_on_time": 7.353, "note_off_time": 7.465}, {"pitch": 64, "velocity": 80, "note_on_time": 7.686, "note_off_time": 7.795}, {"pitch": 62, "velocity": 80, "note_on_time": 7.913, "note_off_time": 8.038}, {"pitch": 60, "velocity": 78, "note_on_time": 8.166, "note_off_time": 8.304}, {"pitch": 62, "velocity": 74, "note_on_time": 8.457, "note_off_time": 8.632}, {"pitch": 60, "velocity": 86, "note_on_time": 8.763, "note_off_time": 8.879}, {"pitch": 60, "velocity": 84, "note_on_time": 9.031, "note_off_time": 9.241}, {"pitch": 62, "velocity": 80, "note_on_time": 9.758, "note_off_time": 9.88}, {"pitch": 62, "velocity": 88, "note_on_time": 10.053, "note_off_time": 10.147}]</notes><guidance name="Guidance Mode">None</guidance><error name="Error value">0.453932590909091</error></trial><trial trial_no="2" timestamp="2022_09_29-12_48_41"><notes name="Played Notes">[{"pitch": 62, "velocity": 89, "note_on_time": 1.151, "note_off_time": 1.269}, {"pitch": 62, "velocity": 90, "note_on_time": 1.423, "note_off_time": 1.82}, {"pitch": 62, "velocity": 91, "note_on_time": 2.021, "note_off_time": 2.173}, {"pitch": 60, "velocity": 94, "note_on_time": 2.286, "note_off_time": 2.396}, {"pitch": 60, "velocity": 90, "note_on_time": 2.565, "note_off_time": 2.706}, {"pitch": 62, "velocity": 93, "note_on_time": 2.876, "note_off_time": 3.037}, {"pitch": 60, "velocity": 95, "note_on_time": 3.156, "note_off_time": 3.272}, {"pitch": 60, "velocity": 101, "note_on_time": 3.434, "note_off_time": 3.88}, {"pitch": 64, "velocity": 91, "note_on_time": 4.014, "note_off_time": 4.29}, {"pitch": 62, "velocity": 93, "note_on_time": 4.306, "note_off_time": 4.912}, {"pitch": 62, "velocity": 96, "note_on_time": 5.144, "note_off_time": 5.311}, {"pitch": 60, "velocity": 90, "note_on_time": 5.427, "note_off_time": 5.587}, {"pitch": 64, "velocity": 83, "note_on_time": 5.756, "note_off_time": 6.345}, {"pitch": 62, "velocity": 77, "note_on_time": 6.522, "note_off_time": 6.655}, {"pitch": 64, "velocity": 87, "note_on_time": 6.838, "note_off_time": 6.968}, {"pitch": 64, "velocity": 83, "note_on_time": 7.144, "note_off_time": 7.274}, {"pitch": 62, "velocity": 81, "note_on_time": 7.414, "note_off_time": 7.583}, {"pitch": 60, "velocity": 85, "note_on_time": 7.696, "note_off_time": 7.85}, {"pitch": 62, "velocity": 83, "note_on_time": 8.026, "note_off_time": 8.244}, {"pitch": 60, "velocity": 89, "note_on_time": 8.342, "note_off_time": 8.503}, {"pitch": 60, "velocity": 85, "note_on_time": 8.647, "note_off_time": 8.773}, {"pitch": 62, "velocity": 69, "note_on_time": 9.032, "note_off_time": 9.147}, {"pitch": 60, "velocity": 77, "note_on_time": 9.29, "note_off_time": 9.397}, {"pitch": 62, "velocity": 72, "note_on_time": 9.594, "note_off_time": 9.7}]</notes><guidance name="Guidance Mode">None</guidance><error name="Error value">0.31557209090909105</error></trial><trial trial_no="3" timestamp="2022_09_29-12_49_05"><notes name="Played Notes">[{"pitch": 62, "velocity": 88, "note_on_time": 1.176, "note_off_time": 1.283}, {"pitch": 62, "velocity": 94, "note_on_time": 1.464, "note_off_time": 1.95}, {"pitch": 62, "velocity": 93, "note_on_time": 2.075, "note_off_time": 2.233}, {"pitch": 60, "velocity": 98, "note_on_time": 2.352, "note_off_time": 2.46}, {"pitch": 60, "velocity": 96, "note_on_time": 2.631, "note_off_time": 2.778}, {"pitch": 62, "velocity": 93, "note_on_time": 2.93, "note_off_time": 3.046}, {"pitch": 62, "velocity": 85, "note_on_time": 3.224, "note_off_time": 3.346}, {"pitch": 60, "velocity": 92, "note_on_time": 3.51, "note_off_time": 3.613}, {"pitch": 60, "velocity": 94, "note_on_time": 3.78, "note_off_time": 4.264}, {"pitch": 64, "velocity": 83, "note_on_time": 4.387, "note_off_time": 4.547}, {"pitch": 62, "velocity": 90, "note_on_time": 4.68, "note_off_time": 5.282}, {"pitch": 62, "velocity": 91, "note_on_time": 5.545, "note_off_time": 5.673}, {"pitch": 60, "velocity": 92, "note_on_time": 5.839, "note_off_time": 5.974}, {"pitch": 64, "velocity": 84, "note_on_time": 6.105, "note_off_time": 6.325}, {"pitch": 62, "velocity": 90, "note_on_time": 6.679, "note_off_time": 6.805}, {"pitch": 62, "velocity": 94, "note_on_time": 6.991, "note_off_time": 7.112}, {"pitch": 62, "velocity": 85, "note_on_time": 7.282, "note_off_time": 7.416}, {"pitch": 64, "velocity": 71, "note_on_time": 7.887, "note_off_time": 7.992}, {"pitch": 64, "velocity": 83, "note_on_time": 8.144, "note_off_time": 8.242}, {"pitch": 64, "velocity": 71, "note_on_time": 8.42, "note_off_time": 8.541}, {"pitch": 62, "velocity": 75, "note_on_time": 8.719, "note_off_time": 8.863}, {"pitch": 60, "velocity": 79, "note_on_time": 9.002, "note_off_time": 9.117}, {"pitch": 64, "velocity": 83, "note_on_time": 9.301, "note_off_time": 9.479}, {"pitch": 62, "velocity": 70, "note_on_time": 9.568, "note_off_time": 9.726}, {"pitch": 62, "velocity": 83, "note_on_time": 9.881, "note_off_time": 10.054}, {"pitch": 62, "velocity": 83, "note_on_time": 10.275, "note_off_time": 10.372}]</notes><guidance name="Guidance Mode">None</guidance><error name="Error value">0.5449592272727264</error></trial><trial trial_no="4" timestamp="2022_09_29-12_49_26"><notes name="Played Notes">[{"pitch": 62, "velocity": 83, "note_on_time": 1.124, "note_off_time": 1.228}, {"pitch": 62, "velocity": 98, "note_on_time": 1.398, "note_off_time": 1.836}, {"pitch": 62, "velocity": 88, "note_on_time": 2.009, "note_off_time": 2.146}, {"pitch": 60, "velocity": 95, "note_on_time": 2.299, "note_off_time": 2.406}, {"pitch": 60, "velocity": 90, "note_on_time": 2.578, "note_off_time": 2.706}, {"pitch": 62, "velocity": 87, "note_on_time": 2.877, "note_off_time": 2.977}, {"pitch": 62, "velocity": 86, "note_on_time": 3.156, "note_off_time": 3.282}, {"pitch": 60, "velocity": 88, "note_on_time": 3.477, "note_off_time": 3.581}, {"pitch": 60, "velocity": 100, "note_on_time": 3.762, "note_off_time": 4.321}, {"pitch": 64, "velocity": 88, "note_on_time": 4.387, "note_off_time": 4.559}, {"pitch": 62, "velocity": 93, "note_on_time": 4.685, "note_off_time": 5.371}, {"pitch": 62, "velocity": 94, "note_on_time": 5.57, "note_off_time": 5.705}, {"pitch": 60, "velocity": 90, "note_on_time": 5.859, "note_off_time": 5.997}, {"pitch": 64, "velocity": 90, "note_on_time": 6.142, "note_off_time": 6.665}, {"pitch": 64, "velocity": 100, "note_on_time": 7.005, "note_off_time": 7.112}, {"pitch": 64, "velocity": 93, "note_on_time": 7.299, "note_off_time": 7.427}, {"pitch": 64, "velocity": 92, "note_on_time": 7.608, "note_off_time": 7.745}, {"pitch": 62, "velocity": 80, "note_on_time": 7.892, "note_off_time": 8.036}, {"pitch": 60, "velocity": 90, "note_on_time": 8.204, "note_off_time": 8.346}, {"pitch": 64, "velocity": 89, "note_on_time": 8.488, "note_off_time": 8.645}, {"pitch": 62, "velocity": 82, "note_on_time": 8.789, "note_off_time": 8.891}, {"pitch": 62, "velocity": 77, "note_on_time": 9.062, "note_off_time": 9.583}, {"pitch": 62, "velocity": 95, "note_on_time": 9.937, "note_off_time": 10.049}, {"pitch": 62, "velocity": 88, "note_on_time": 10.233, "note_off_time": 10.347}]</notes><guidance name="Guidance Mode">None</guidance><error name="Error value">0.07825859090909112</error></trial><trial trial_no="5" timestamp="2022_09_29-12_49_48"><notes name="Played Notes">[{"pitch": 62, "velocity": 82, "note_on_time": 1.172, "note_off_time": 1.269}, {"pitch": 62, "velocity": 94, "note_on_time": 1.457, "note_off_time": 1.902}, {"pitch": 62, "velocity": 97, "note_on_time": 2.042, "note_off_time": 2.187}, {"pitch": 60, "velocity": 95, "note_on_time": 2.319, "note_off_time": 2.417}, {"pitch": 60, "velocity": 91, "note_on_time": 2.589, "note_off_time": 2.717}, {"pitch": 62, "velocity": 88, "note_on_time": 2.893, "note_off_time": 2.994}, {"pitch": 62, "velocity": 87, "note_on_time": 3.167, "note_off_time": 3.305}, {"pitch": 60, "velocity": 88, "note_on_time": 3.491, "note_off_time": 3.607}, {"pitch": 60, "velocity": 93, "note_on_time": 3.792, "note_off_time": 4.199}, {"pitch": 64, "velocity": 90, "note_on_time": 4.381, "note_off_time": 4.834}, {"pitch": 62, "velocity": 78, "note_on_time": 4.945, "note_off_time": 5.108}, {"pitch": 60, "velocity": 81, "note_on_time": 5.234, "note_off_time": 5.515}, {"pitch": 60, "velocity": 85, "note_on_time": 6.092, "note_off_time": 6.203}, {"pitch": 64, "velocity": 82, "note_on_time": 6.35, "note_off_time": 6.59}, {"pitch": 64, "velocity": 86, "note_on_time": 6.969, "note_off_time": 7.065}, {"pitch": 64, "velocity": 87, "note_on_time": 7.232, "note_off_time": 7.357}, {"pitch": 64, "velocity": 90, "note_on_time": 7.536, "note_off_time": 7.671}, {"pitch": 62, "velocity": 79, "note_on_time": 7.844, "note_off_time": 7.977}, {"pitch": 60, "velocity": 85, "note_on_time": 8.132, "note_off_time": 8.275}, {"pitch": 64, "velocity": 87, "note_on_time": 8.413, "note_off_time": 8.56}, {"pitch": 62, "velocity": 79, "note_on_time": 8.704, "note_off_time": 8.83}, {"pitch": 62, "velocity": 85, "note_on_time": 8.999, "note_off_time": 9.36}, {"pitch": 62, "velocity": 88, "note_on_time": 9.566, "note_off_time": 9.69}, {"pitch": 62, "velocity": 91, "note_on_time": 9.85, "note_off_time": 9.958}, {"pitch": 62, "velocity": 97, "note_on_time": 10.109, "note_off_time": 10.339}]</notes><guidance name="Guidance Mode">None</guidance><error name="Error value">0.13479622727272725</error></trial></trials></MIDI>