<MIDI midiNo="2022_10_26-14_16_29"><target_notes><notes name="Note List">[{"pitch": 42, "velocity": 80, "note_on_time": 0.004, "note_off_time": 0.23}, {"pitch": 42, "velocity": 80, "note_on_time": 0.23, "note_off_time": 0.448}, {"pitch": 42, "velocity": 80, "note_on_time": 0.448, "note_off_time": 0.665}, {"pitch": 42, "velocity": 80, "note_on_time": 0.665, "note_off_time": 0.882}, {"pitch": 60, "velocity": 80, "note_on_time": 0.882, "note_off_time": 1.1}, {"pitch": 42, "velocity": 80, "note_on_time": 0.882, "note_off_time": 1.1}, {"pitch": 42, "velocity": 80, "note_on_time": 1.1, "note_off_time": 1.318}, {"pitch": 42, "velocity": 80, "note_on_time": 1.318, "note_off_time": 1.535}, {"pitch": 42, "velocity": 80, "note_on_time": 1.535, "note_off_time": 1.753}, {"pitch": 60, "velocity": 80, "note_on_time": 1.753, "note_off_time": 1.971}, {"pitch": 42, "velocity": 80, "note_on_time": 1.753, "note_off_time": 1.971}, {"pitch": 65, "velocity": 80, "note_on_time": 1.971, "note_off_time": 2.19}, {"pitch": 42, "velocity": 80, "note_on_time": 1.971, "note_off_time": 2.19}, {"pitch": 65, "velocity": 80, "note_on_time": 2.19, "note_off_time": 2.407}, {"pitch": 42, "velocity": 80, "note_on_time": 2.19, "note_off_time": 2.407}, {"pitch": 62, "velocity": 80, "note_on_time": 2.407, "note_off_time": 2.624}, {"pitch": 42, "velocity": 80, "note_on_time": 2.407, "note_off_time": 2.624}, {"pitch": 60, "velocity": 80, "note_on_time": 2.624, "note_off_time": 2.841}, {"pitch": 42, "velocity": 80, "note_on_time": 2.624, "note_off_time": 2.841}, {"pitch": 67, "velocity": 80, "note_on_time": 2.841, "note_off_time": 3.058}, {"pitch": 42, "velocity": 80, "note_on_time": 2.841, "note_off_time": 3.059}, {"pitch": 64, "velocity": 80, "note_on_time": 3.058, "note_off_time": 3.274}, {"pitch": 42, "velocity": 80, "note_on_time": 3.059, "note_off_time": 3.274}, {"pitch": 64, "velocity": 80, "note_on_time": 3.274, "note_off_time": 3.494}, {"pitch": 42, "velocity": 80, "note_on_time": 3.275, "note_off_time": 3.494}, {"pitch": 62, "velocity": 80, "note_on_time": 3.494, "note_off_time": 3.712}, {"pitch": 42, "velocity": 80, "note_on_time": 3.494, "note_off_time": 3.712}, {"pitch": 60, "velocity": 80, "note_on_time": 3.712, "note_off_time": 3.93}, {"pitch": 42, "velocity": 80, "note_on_time": 3.712, "note_off_time": 3.93}, {"pitch": 64, "velocity": 80, "note_on_time": 3.93, "note_off_time": 4.15}, {"pitch": 42, "velocity": 80, "note_on_time": 3.93, "note_off_time": 4.15}, {"pitch": 67, "velocity": 80, "note_on_time": 4.15, "note_off_time": 4.367}, {"pitch": 42, "velocity": 80, "note_on_time": 4.15, "note_off_time": 4.367}, {"pitch": 64, "velocity": 80, "note_on_time": 4.367, "note_off_time": 4.585}, {"pitch": 42, "velocity": 80, "note_on_time": 4.367, "note_off_time": 4.585}, {"pitch": 60, "velocity": 80, "note_on_time": 4.585, "note_off_time": 4.805}, {"pitch": 42, "velocity": 80, "note_on_time": 4.585, "note_off_time": 4.805}, {"pitch": 64, "velocity": 80, "note_on_time": 4.805, "note_off_time": 5.023}, {"pitch": 42, "velocity": 80, "note_on_time": 4.806, "note_off_time": 5.023}, {"pitch": 64, "velocity": 80, "note_on_time": 5.023, "note_off_time": 5.239}, {"pitch": 42, "velocity": 80, "note_on_time": 5.023, "note_off_time": 5.24}, {"pitch": 65, "velocity": 80, "note_on_time": 5.239, "note_off_time": 5.457}, {"pitch": 42, "velocity": 80, "note_on_time": 5.24, "note_off_time": 5.457}, {"pitch": 60, "velocity": 80, "note_on_time": 5.457, "note_off_time": 5.674}, {"pitch": 42, "velocity": 80, "note_on_time": 5.457, "note_off_time": 5.674}, {"pitch": 64, "velocity": 80, "note_on_time": 5.674, "note_off_time": 5.893}, {"pitch": 42, "velocity": 80, "note_on_time": 5.674, "note_off_time": 5.893}, {"pitch": 64, "velocity": 80, "note_on_time": 5.893, "note_off_time": 6.111}, {"pitch": 42, "velocity": 80, "note_on_time": 5.893, "note_off_time": 6.111}, {"pitch": 42, "velocity": 80, "note_on_time": 6.111, "note_off_time": 6.328}, {"pitch": 64, "velocity": 80, "note_on_time": 6.111, "note_off_time": 6.547}, {"pitch": 42, "velocity": 80, "note_on_time": 6.328, "note_off_time": 6.547}, {"pitch": 42, "velocity": 80, "note_on_time": 6.547, "note_off_time": 6.767}, {"pitch": 42, "velocity": 80, "note_on_time": 6.767, "note_off_time": 6.986}, {"pitch": 42, "velocity": 80, "note_on_time": 6.987, "note_off_time": 7.204}, {"pitch": 64, "velocity": 80, "note_on_time": 7.204, "note_off_time": 7.421}, {"pitch": 42, "velocity": 80, "note_on_time": 7.204, "note_off_time": 7.421}, {"pitch": 64, "velocity": 80, "note_on_time": 7.421, "note_off_time": 7.637}, {"pitch": 42, "velocity": 80, "note_on_time": 7.421, "note_off_time": 7.637}, {"pitch": 64, "velocity": 80, "note_on_time": 7.637, "note_off_time": 7.855}, {"pitch": 42, "velocity": 80, "note_on_time": 7.638, "note_off_time": 7.855}]</notes><options name="Option List">((4, 4), [0.5, 0.25], 3, 8, &lt;NoteRangePerHand.C_TO_G: 6&gt;, &lt;NoteRangePerHand.ONE_NOTE: 2&gt;, False, True, True, '281')</options></target_notes><trials><trial trial_no="1" timestamp="2022_10_26-14_16_20"><notes name="Played Notes">[{"pitch": 60, "velocity": 100, "note_on_time": 0.882, "note_off_time": 1.08}, {"pitch": 60, "velocity": 86, "note_on_time": 1.777, "note_off_time": 1.963}, {"pitch": 65, "velocity": 81, "note_on_time": 1.987, "note_off_time": 2.073}, {"pitch": 65, "velocity": 83, "note_on_time": 2.217, "note_off_time": 2.423}, {"pitch": 62, "velocity": 69, "note_on_time": 2.419, "note_off_time": 2.64}, {"pitch": 60, "velocity": 88, "note_on_time": 2.636, "note_off_time": 2.81}, {"pitch": 67, "velocity": 78, "note_on_time": 2.824, "note_off_time": 3.072}, {"pitch": 64, "velocity": 79, "note_on_time": 3.048, "note_off_time": 3.142}, {"pitch": 64, "velocity": 79, "note_on_time": 3.265, "note_off_time": 3.498}, {"pitch": 62, "velocity": 82, "note_on_time": 3.477, "note_off_time": 3.684}, {"pitch": 60, "velocity": 79, "note_on_time": 3.702, "note_off_time": 3.958}, {"pitch": 64, "velocity": 84, "note_on_time": 3.932, "note_off_time": 4.142}, {"pitch": 67, "velocity": 82, "note_on_time": 4.14, "note_off_time": 4.361}, {"pitch": 64, "velocity": 98, "note_on_time": 4.512, "note_off_time": 4.638}, {"pitch": 60, "velocity": 83, "note_on_time": 4.691, "note_off_time": 4.816}, {"pitch": 64, "velocity": 90, "note_on_time": 4.89, "note_off_time": 4.96}, {"pitch": 64, "velocity": 89, "note_on_time": 5.085, "note_off_time": 5.283}, {"pitch": 65, "velocity": 89, "note_on_time": 5.291, "note_off_time": 5.527}, {"pitch": 60, "velocity": 82, "note_on_time": 5.511, "note_off_time": 5.674}, {"pitch": 64, "velocity": 78, "note_on_time": 5.72, "note_off_time": 5.828}, {"pitch": 64, "velocity": 73, "note_on_time": 5.941, "note_off_time": 6.041}, {"pitch": 64, "velocity": 84, "note_on_time": 6.161, "note_off_time": 6.415}, {"pitch": 64, "velocity": 94, "note_on_time": 7.19, "note_off_time": 7.271}, {"pitch": 64, "velocity": 88, "note_on_time": 7.395, "note_off_time": 7.476}, {"pitch": 64, "velocity": 104, "note_on_time": 7.622, "note_off_time": 7.743}]</notes><guidance name="Guidance Mode">None</guidance><error name="Error value">0.02134195454545459</error></trial><trial trial_no="2" timestamp="2022_10_26-14_16_43"><notes name="Played Notes">[{"pitch": 60, "velocity": 94, "note_on_time": 0.911, "note_off_time": 1.108}, {"pitch": 60, "velocity": 89, "note_on_time": 1.782, "note_off_time": 1.965}, {"pitch": 65, "velocity": 85, "note_on_time": 1.991, "note_off_time": 2.082}, {"pitch": 65, "velocity": 92, "note_on_time": 2.224, "note_off_time": 2.449}, {"pitch": 62, "velocity": 67, "note_on_time": 2.449, "note_off_time": 2.667}, {"pitch": 60, "velocity": 80, "note_on_time": 2.664, "note_off_time": 2.879}, {"pitch": 67, "velocity": 72, "note_on_time": 2.877, "note_off_time": 3.122}, {"pitch": 64, "velocity": 69, "note_on_time": 3.108, "note_off_time": 3.178}, {"pitch": 64, "velocity": 77, "note_on_time": 3.31, "note_off_time": 3.541}, {"pitch": 62, "velocity": 75, "note_on_time": 3.538, "note_off_time": 3.74}, {"pitch": 60, "velocity": 81, "note_on_time": 3.749, "note_off_time": 4.014}, {"pitch": 64, "velocity": 81, "note_on_time": 3.983, "note_off_time": 4.177}, {"pitch": 67, "velocity": 77, "note_on_time": 4.185, "note_off_time": 4.413}, {"pitch": 64, "velocity": 75, "note_on_time": 4.406, "note_off_time": 4.613}, {"pitch": 60, "velocity": 77, "note_on_time": 4.615, "note_off_time": 4.786}, {"pitch": 64, "velocity": 81, "note_on_time": 4.845, "note_off_time": 4.932}, {"pitch": 64, "velocity": 76, "note_on_time": 5.049, "note_off_time": 5.268}, {"pitch": 65, "velocity": 82, "note_on_time": 5.277, "note_off_time": 5.494}, {"pitch": 60, "velocity": 85, "note_on_time": 5.487, "note_off_time": 5.744}, {"pitch": 64, "velocity": 77, "note_on_time": 5.705, "note_off_time": 5.805}, {"pitch": 64, "velocity": 74, "note_on_time": 5.923, "note_off_time": 6.01}, {"pitch": 64, "velocity": 103, "note_on_time": 6.142, "note_off_time": 6.43}, {"pitch": 64, "velocity": 90, "note_on_time": 7.247, "note_off_time": 7.32}, {"pitch": 64, "velocity": 91, "note_on_time": 7.44, "note_off_time": 7.524}, {"pitch": 64, "velocity": 124, "note_on_time": 7.66, "note_off_time": 7.765}]</notes><guidance name="Guidance Mode">None</guidance><error name="Error value">0.012145499999999875</error></trial><trial trial_no="3" timestamp="2022_10_26-14_17_04"><notes name="Played Notes">[{"pitch": 60, "velocity": 97, "note_on_time": 0.893, "note_off_time": 1.112}, {"pitch": 60, "velocity": 87, "note_on_time": 1.776, "note_off_time": 1.986}, {"pitch": 65, "velocity": 83, "note_on_time": 1.99, "note_off_time": 2.082}, {"pitch": 65, "velocity": 82, "note_on_time": 2.222, "note_off_time": 2.436}, {"pitch": 62, "velocity": 76, "note_on_time": 2.433, "note_off_time": 2.659}, {"pitch": 60, "velocity": 82, "note_on_time": 2.658, "note_off_time": 2.865}, {"pitch": 67, "velocity": 78, "note_on_time": 2.869, "note_off_time": 3.104}, {"pitch": 64, "velocity": 68, "note_on_time": 3.097, "note_off_time": 3.167}, {"pitch": 64, "velocity": 78, "note_on_time": 3.307, "note_off_time": 3.51}, {"pitch": 62, "velocity": 80, "note_on_time": 3.511, "note_off_time": 3.725}, {"pitch": 60, "velocity": 77, "note_on_time": 3.737, "note_off_time": 3.959}, {"pitch": 64, "velocity": 82, "note_on_time": 3.958, "note_off_time": 4.164}, {"pitch": 67, "velocity": 74, "note_on_time": 4.175, "note_off_time": 4.398}, {"pitch": 64, "velocity": 79, "note_on_time": 4.392, "note_off_time": 4.59}, {"pitch": 60, "velocity": 81, "note_on_time": 4.591, "note_off_time": 4.812}, {"pitch": 64, "velocity": 86, "note_on_time": 4.831, "note_off_time": 4.906}, {"pitch": 64, "velocity": 85, "note_on_time": 5.032, "note_off_time": 5.249}, {"pitch": 65, "velocity": 81, "note_on_time": 5.257, "note_off_time": 5.47}, {"pitch": 60, "velocity": 92, "note_on_time": 5.476, "note_off_time": 5.705}, {"pitch": 64, "velocity": 85, "note_on_time": 5.69, "note_off_time": 5.782}, {"pitch": 64, "velocity": 86, "note_on_time": 5.908, "note_off_time": 5.998}, {"pitch": 64, "velocity": 106, "note_on_time": 6.139, "note_off_time": 6.401}, {"pitch": 64, "velocity": 104, "note_on_time": 7.258, "note_off_time": 7.329}, {"pitch": 64, "velocity": 104, "note_on_time": 7.475, "note_off_time": 7.559}, {"pitch": 64, "velocity": 114, "note_on_time": 7.68, "note_off_time": 7.749}]</notes><guidance name="Guidance Mode">None</guidance><error name="Error value">0.012504954545454451</error></trial><trial trial_no="4" timestamp="2022_10_26-14_17_26"><notes name="Played Notes">[{"pitch": 60, "velocity": 92, "note_on_time": 0.9, "note_off_time": 1.112}, {"pitch": 60, "velocity": 77, "note_on_time": 1.821, "note_off_time": 1.981}, {"pitch": 65, "velocity": 84, "note_on_time": 2.009, "note_off_time": 2.111}, {"pitch": 65, "velocity": 72, "note_on_time": 2.242, "note_off_time": 2.447}, {"pitch": 62, "velocity": 75, "note_on_time": 2.442, "note_off_time": 2.682}, {"pitch": 60, "velocity": 85, "note_on_time": 2.669, "note_off_time": 2.853}, {"pitch": 67, "velocity": 71, "note_on_time": 2.88, "note_off_time": 3.096}, {"pitch": 64, "velocity": 64, "note_on_time": 3.124, "note_off_time": 3.188}, {"pitch": 64, "velocity": 71, "note_on_time": 3.325, "note_off_time": 3.536}, {"pitch": 62, "velocity": 66, "note_on_time": 3.533, "note_off_time": 3.736}, {"pitch": 60, "velocity": 77, "note_on_time": 3.746, "note_off_time": 3.997}, {"pitch": 64, "velocity": 73, "note_on_time": 3.975, "note_off_time": 4.174}, {"pitch": 67, "velocity": 70, "note_on_time": 4.185, "note_off_time": 4.407}, {"pitch": 64, "velocity": 70, "note_on_time": 4.391, "note_off_time": 4.584}, {"pitch": 60, "velocity": 76, "note_on_time": 4.587, "note_off_time": 4.817}, {"pitch": 64, "velocity": 77, "note_on_time": 4.814, "note_off_time": 4.891}, {"pitch": 64, "velocity": 78, "note_on_time": 5.025, "note_off_time": 5.23}, {"pitch": 65, "velocity": 77, "note_on_time": 5.254, "note_off_time": 5.461}, {"pitch": 60, "velocity": 83, "note_on_time": 5.453, "note_off_time": 5.704}, {"pitch": 64, "velocity": 74, "note_on_time": 5.681, "note_off_time": 5.769}, {"pitch": 64, "velocity": 73, "note_on_time": 5.888, "note_off_time": 5.979}, {"pitch": 64, "velocity": 101, "note_on_time": 6.115, "note_off_time": 6.36}, {"pitch": 64, "velocity": 85, "note_on_time": 6.994, "note_off_time": 7.073}, {"pitch": 64, "velocity": 85, "note_on_time": 7.217, "note_off_time": 7.3}, {"pitch": 64, "velocity": 84, "note_on_time": 7.428, "note_off_time": 7.518}]</notes><guidance name="Guidance Mode">None</guidance><error name="Error value">0.023437045454545443</error></trial><trial trial_no="5" timestamp="2022_10_26-14_17_51"><notes name="Played Notes">[{"pitch": 60, "velocity": 101, "note_on_time": 0.898, "note_off_time": 1.118}, {"pitch": 60, "velocity": 90, "note_on_time": 1.8, "note_off_time": 1.965}, {"pitch": 64, "velocity": 73, "note_on_time": 1.996, "note_off_time": 2.074}, {"pitch": 64, "velocity": 89, "note_on_time": 2.22, "note_off_time": 2.494}, {"pitch": 62, "velocity": 76, "note_on_time": 2.499, "note_off_time": 2.651}, {"pitch": 60, "velocity": 87, "note_on_time": 2.668, "note_off_time": 2.889}, {"pitch": 65, "velocity": 71, "note_on_time": 2.894, "note_off_time": 3.022}, {"pitch": 64, "velocity": 87, "note_on_time": 3.106, "note_off_time": 3.218}, {"pitch": 64, "velocity": 65, "note_on_time": 3.317, "note_off_time": 3.485}, {"pitch": 60, "velocity": 84, "note_on_time": 3.543, "note_off_time": 3.769}, {"pitch": 64, "velocity": 58, "note_on_time": 4.075, "note_off_time": 4.233}, {"pitch": 67, "velocity": 61, "note_on_time": 4.276, "note_off_time": 4.421}, {"pitch": 64, "velocity": 80, "note_on_time": 4.442, "note_off_time": 4.599}, {"pitch": 60, "velocity": 82, "note_on_time": 4.628, "note_off_time": 4.782}, {"pitch": 64, "velocity": 79, "note_on_time": 4.848, "note_off_time": 4.931}, {"pitch": 64, "velocity": 76, "note_on_time": 5.051, "note_off_time": 5.204}, {"pitch": 65, "velocity": 69, "note_on_time": 5.26, "note_off_time": 5.473}, {"pitch": 60, "velocity": 81, "note_on_time": 5.473, "note_off_time": 5.72}, {"pitch": 64, "velocity": 77, "note_on_time": 5.689, "note_off_time": 5.784}, {"pitch": 64, "velocity": 71, "note_on_time": 5.896, "note_off_time": 5.996}, {"pitch": 64, "velocity": 100, "note_on_time": 6.125, "note_off_time": 6.499}, {"pitch": 64, "velocity": 88, "note_on_time": 7.209, "note_off_time": 7.298}, {"pitch": 64, "velocity": 86, "note_on_time": 7.418, "note_off_time": 7.5}, {"pitch": 64, "velocity": 94, "note_on_time": 7.632, "note_off_time": 7.757}]</notes><guidance name="Guidance Mode">None</guidance><error name="Error value">0.253814</error></trial></trials></MIDI>