<MIDI midiNo="2022_11_03-10_29_47"><target_notes><notes name="Note List">[{"pitch": 42, "velocity": 80, "note_on_time": 0.004, "note_off_time": 0.318}, {"pitch": 42, "velocity": 80, "note_on_time": 0.319, "note_off_time": 0.629}, {"pitch": 42, "velocity": 80, "note_on_time": 0.63, "note_off_time": 0.939}, {"pitch": 42, "velocity": 80, "note_on_time": 0.94, "note_off_time": 1.252}, {"pitch": 65, "velocity": 80, "note_on_time": 1.251, "note_off_time": 1.561}, {"pitch": 42, "velocity": 80, "note_on_time": 1.252, "note_off_time": 1.562}, {"pitch": 62, "velocity": 80, "note_on_time": 1.561, "note_off_time": 1.873}, {"pitch": 42, "velocity": 80, "note_on_time": 1.562, "note_off_time": 1.873}, {"pitch": 67, "velocity": 80, "note_on_time": 1.873, "note_off_time": 2.184}, {"pitch": 42, "velocity": 80, "note_on_time": 1.873, "note_off_time": 2.184}, {"pitch": 64, "velocity": 80, "note_on_time": 2.184, "note_off_time": 2.497}, {"pitch": 42, "velocity": 80, "note_on_time": 2.185, "note_off_time": 2.497}, {"pitch": 60, "velocity": 80, "note_on_time": 2.497, "note_off_time": 2.806}, {"pitch": 42, "velocity": 80, "note_on_time": 2.497, "note_off_time": 2.807}, {"pitch": 67, "velocity": 80, "note_on_time": 2.806, "note_off_time": 3.121}, {"pitch": 42, "velocity": 80, "note_on_time": 2.807, "note_off_time": 3.121}, {"pitch": 67, "velocity": 80, "note_on_time": 3.121, "note_off_time": 3.431}, {"pitch": 42, "velocity": 80, "note_on_time": 3.121, "note_off_time": 3.431}, {"pitch": 64, "velocity": 80, "note_on_time": 3.431, "note_off_time": 3.74}, {"pitch": 42, "velocity": 80, "note_on_time": 3.432, "note_off_time": 3.74}, {"pitch": 64, "velocity": 80, "note_on_time": 3.74, "note_off_time": 4.053}, {"pitch": 42, "velocity": 80, "note_on_time": 3.741, "note_off_time": 4.053}, {"pitch": 42, "velocity": 80, "note_on_time": 4.053, "note_off_time": 4.366}, {"pitch": 60, "velocity": 80, "note_on_time": 4.053, "note_off_time": 4.676}, {"pitch": 42, "velocity": 80, "note_on_time": 4.367, "note_off_time": 4.677}, {"pitch": 42, "velocity": 80, "note_on_time": 4.677, "note_off_time": 4.989}, {"pitch": 64, "velocity": 80, "note_on_time": 4.989, "note_off_time": 5.301}, {"pitch": 42, "velocity": 80, "note_on_time": 4.989, "note_off_time": 5.301}, {"pitch": 65, "velocity": 80, "note_on_time": 5.301, "note_off_time": 5.613}, {"pitch": 42, "velocity": 80, "note_on_time": 5.301, "note_off_time": 5.613}, {"pitch": 65, "velocity": 80, "note_on_time": 5.613, "note_off_time": 5.922}, {"pitch": 42, "velocity": 80, "note_on_time": 5.613, "note_off_time": 5.922}, {"pitch": 60, "velocity": 80, "note_on_time": 5.922, "note_off_time": 6.233}, {"pitch": 42, "velocity": 80, "note_on_time": 5.923, "note_off_time": 6.234}, {"pitch": 42, "velocity": 80, "note_on_time": 6.234, "note_off_time": 6.547}, {"pitch": 64, "velocity": 80, "note_on_time": 6.233, "note_off_time": 6.856}, {"pitch": 42, "velocity": 80, "note_on_time": 6.547, "note_off_time": 6.856}, {"pitch": 42, "velocity": 80, "note_on_time": 6.856, "note_off_time": 7.17}, {"pitch": 67, "velocity": 80, "note_on_time": 6.856, "note_off_time": 7.479}, {"pitch": 42, "velocity": 80, "note_on_time": 7.17, "note_off_time": 7.479}, {"pitch": 65, "velocity": 80, "note_on_time": 7.479, "note_off_time": 7.788}, {"pitch": 42, "velocity": 80, "note_on_time": 7.479, "note_off_time": 7.789}, {"pitch": 64, "velocity": 80, "note_on_time": 7.788, "note_off_time": 8.099}, {"pitch": 42, "velocity": 80, "note_on_time": 7.789, "note_off_time": 8.099}, {"pitch": 65, "velocity": 80, "note_on_time": 8.099, "note_off_time": 8.41}, {"pitch": 42, "velocity": 80, "note_on_time": 8.099, "note_off_time": 8.41}, {"pitch": 64, "velocity": 80, "note_on_time": 8.41, "note_off_time": 8.721}, {"pitch": 42, "velocity": 80, "note_on_time": 8.41, "note_off_time": 8.721}, {"pitch": 64, "velocity": 80, "note_on_time": 8.721, "note_off_time": 9.032}, {"pitch": 42, "velocity": 80, "note_on_time": 8.721, "note_off_time": 9.032}, {"pitch": 62, "velocity": 80, "note_on_time": 9.032, "note_off_time": 9.344}, {"pitch": 42, "velocity": 80, "note_on_time": 9.032, "note_off_time": 9.345}, {"pitch": 67, "velocity": 80, "note_on_time": 9.344, "note_off_time": 9.655}, {"pitch": 42, "velocity": 80, "note_on_time": 9.345, "note_off_time": 9.655}, {"pitch": 67, "velocity": 80, "note_on_time": 9.655, "note_off_time": 9.965}, {"pitch": 42, "velocity": 80, "note_on_time": 9.655, "note_off_time": 9.965}, {"pitch": 42, "velocity": 80, "note_on_time": 9.966, "note_off_time": 10.277}, {"pitch": 67, "velocity": 80, "note_on_time": 10.277, "note_off_time": 10.588}, {"pitch": 42, "velocity": 80, "note_on_time": 10.278, "note_off_time": 10.588}, {"pitch": 67, "velocity": 80, "note_on_time": 10.588, "note_off_time": 10.898}, {"pitch": 42, "velocity": 80, "note_on_time": 10.589, "note_off_time": 10.898}, {"pitch": 67, "velocity": 80, "note_on_time": 10.898, "note_off_time": 11.211}, {"pitch": 42, "velocity": 80, "note_on_time": 10.898, "note_off_time": 11.211}]</notes><options name="Option List">((4, 4), [0.5, 0.25], 3, 8, &lt;NoteRangePerHand.C_TO_G: 6&gt;, &lt;NoteRangePerHand.ONE_NOTE: 2&gt;, False, True, False, 197)</options></target_notes><trials><trial trial_no="1" timestamp="2022_11_03-10_29_34"><notes name="Played Notes">[{"pitch": 65, "velocity": 81, "note_on_time": 1.225, "note_off_time": 1.553}, {"pitch": 62, "velocity": 63, "note_on_time": 1.556, "note_off_time": 1.86}, {"pitch": 67, "velocity": 71, "note_on_time": 1.849, "note_off_time": 2.222}, {"pitch": 64, "velocity": 67, "note_on_time": 2.167, "note_off_time": 2.498}, {"pitch": 60, "velocity": 70, "note_on_time": 2.506, "note_off_time": 2.814}, {"pitch": 67, "velocity": 78, "note_on_time": 2.806, "note_off_time": 2.925}, {"pitch": 67, "velocity": 71, "note_on_time": 3.127, "note_off_time": 3.462}, {"pitch": 64, "velocity": 67, "note_on_time": 3.425, "note_off_time": 3.537}, {"pitch": 64, "velocity": 75, "note_on_time": 3.74, "note_off_time": 4.01}, {"pitch": 60, "velocity": 73, "note_on_time": 4.03, "note_off_time": 4.752}, {"pitch": 62, "velocity": 76, "note_on_time": 4.969, "note_off_time": 5.266}, {"pitch": 65, "velocity": 84, "note_on_time": 5.274, "note_off_time": 5.372}, {"pitch": 65, "velocity": 67, "note_on_time": 5.557, "note_off_time": 5.919}, {"pitch": 60, "velocity": 67, "note_on_time": 5.916, "note_off_time": 6.263}, {"pitch": 64, "velocity": 50, "note_on_time": 6.251, "note_off_time": 6.856}, {"pitch": 67, "velocity": 73, "note_on_time": 6.866, "note_off_time": 7.535}, {"pitch": 65, "velocity": 74, "note_on_time": 7.481, "note_off_time": 7.777}, {"pitch": 64, "velocity": 72, "note_on_time": 7.774, "note_off_time": 8.101}, {"pitch": 65, "velocity": 70, "note_on_time": 8.087, "note_off_time": 8.438}, {"pitch": 64, "velocity": 66, "note_on_time": 8.393, "note_off_time": 8.514}, {"pitch": 64, "velocity": 72, "note_on_time": 8.702, "note_off_time": 8.987}, {"pitch": 62, "velocity": 58, "note_on_time": 8.996, "note_off_time": 9.333}, {"pitch": 67, "velocity": 77, "note_on_time": 9.322, "note_off_time": 9.431}, {"pitch": 67, "velocity": 74, "note_on_time": 9.602, "note_off_time": 9.937}, {"pitch": 67, "velocity": 81, "note_on_time": 10.219, "note_off_time": 10.342}, {"pitch": 67, "velocity": 76, "note_on_time": 10.517, "note_off_time": 10.658}]</notes><guidance name="Guidance Mode">None</guidance><error name="Error value">0.11182299999999977</error></trial></trials></MIDI>