<MIDI midiNo="2022_11_03-11_03_36"><target_notes><notes name="Note List">[{"pitch": 42, "velocity": 80, "note_on_time": 0.004, "note_off_time": 0.229}, {"pitch": 42, "velocity": 80, "note_on_time": 0.229, "note_off_time": 0.446}, {"pitch": 42, "velocity": 80, "note_on_time": 0.446, "note_off_time": 0.665}, {"pitch": 42, "velocity": 80, "note_on_time": 0.665, "note_off_time": 0.882}, {"pitch": 42, "velocity": 80, "note_on_time": 0.882, "note_off_time": 1.099}, {"pitch": 60, "velocity": 80, "note_on_time": 0.882, "note_off_time": 1.317}, {"pitch": 42, "velocity": 80, "note_on_time": 1.099, "note_off_time": 1.317}, {"pitch": 62, "velocity": 80, "note_on_time": 1.317, "note_off_time": 1.532}, {"pitch": 42, "velocity": 80, "note_on_time": 1.317, "note_off_time": 1.532}, {"pitch": 65, "velocity": 80, "note_on_time": 1.532, "note_off_time": 1.75}, {"pitch": 42, "velocity": 80, "note_on_time": 1.532, "note_off_time": 1.75}, {"pitch": 42, "velocity": 80, "note_on_time": 1.751, "note_off_time": 1.967}, {"pitch": 64, "velocity": 80, "note_on_time": 1.75, "note_off_time": 2.187}, {"pitch": 42, "velocity": 80, "note_on_time": 1.967, "note_off_time": 2.187}, {"pitch": 42, "velocity": 80, "note_on_time": 2.187, "note_off_time": 2.405}, {"pitch": 62, "velocity": 80, "note_on_time": 2.405, "note_off_time": 2.623}, {"pitch": 42, "velocity": 80, "note_on_time": 2.405, "note_off_time": 2.623}, {"pitch": 60, "velocity": 80, "note_on_time": 2.623, "note_off_time": 2.839}, {"pitch": 42, "velocity": 80, "note_on_time": 2.623, "note_off_time": 2.84}, {"pitch": 64, "velocity": 80, "note_on_time": 2.839, "note_off_time": 3.056}, {"pitch": 42, "velocity": 80, "note_on_time": 2.84, "note_off_time": 3.057}, {"pitch": 64, "velocity": 80, "note_on_time": 3.056, "note_off_time": 3.275}, {"pitch": 42, "velocity": 80, "note_on_time": 3.057, "note_off_time": 3.275}, {"pitch": 67, "velocity": 80, "note_on_time": 3.275, "note_off_time": 3.493}, {"pitch": 42, "velocity": 80, "note_on_time": 3.275, "note_off_time": 3.493}, {"pitch": 64, "velocity": 80, "note_on_time": 3.493, "note_off_time": 3.71}, {"pitch": 42, "velocity": 80, "note_on_time": 3.494, "note_off_time": 3.71}, {"pitch": 67, "velocity": 80, "note_on_time": 3.71, "note_off_time": 3.929}, {"pitch": 42, "velocity": 80, "note_on_time": 3.71, "note_off_time": 3.929}, {"pitch": 64, "velocity": 80, "note_on_time": 3.929, "note_off_time": 4.146}, {"pitch": 42, "velocity": 80, "note_on_time": 3.929, "note_off_time": 4.146}, {"pitch": 67, "velocity": 80, "note_on_time": 4.146, "note_off_time": 4.362}, {"pitch": 42, "velocity": 80, "note_on_time": 4.147, "note_off_time": 4.362}, {"pitch": 64, "velocity": 80, "note_on_time": 4.362, "note_off_time": 4.581}, {"pitch": 42, "velocity": 80, "note_on_time": 4.363, "note_off_time": 4.581}, {"pitch": 42, "velocity": 80, "note_on_time": 4.581, "note_off_time": 4.8}, {"pitch": 67, "velocity": 80, "note_on_time": 4.581, "note_off_time": 5.016}, {"pitch": 42, "velocity": 80, "note_on_time": 4.801, "note_off_time": 5.016}, {"pitch": 42, "velocity": 80, "note_on_time": 5.016, "note_off_time": 5.233}, {"pitch": 64, "velocity": 80, "note_on_time": 5.233, "note_off_time": 5.45}, {"pitch": 42, "velocity": 80, "note_on_time": 5.233, "note_off_time": 5.45}, {"pitch": 60, "velocity": 80, "note_on_time": 5.45, "note_off_time": 5.67}, {"pitch": 42, "velocity": 80, "note_on_time": 5.45, "note_off_time": 5.67}, {"pitch": 42, "velocity": 80, "note_on_time": 5.67, "note_off_time": 5.889}, {"pitch": 64, "velocity": 80, "note_on_time": 5.67, "note_off_time": 6.108}, {"pitch": 42, "velocity": 80, "note_on_time": 5.889, "note_off_time": 6.108}, {"pitch": 65, "velocity": 80, "note_on_time": 6.108, "note_off_time": 6.326}, {"pitch": 42, "velocity": 80, "note_on_time": 6.109, "note_off_time": 6.326}, {"pitch": 42, "velocity": 80, "note_on_time": 6.326, "note_off_time": 6.545}, {"pitch": 62, "velocity": 80, "note_on_time": 6.545, "note_off_time": 6.764}, {"pitch": 42, "velocity": 80, "note_on_time": 6.545, "note_off_time": 6.764}, {"pitch": 64, "velocity": 80, "note_on_time": 6.764, "note_off_time": 6.981}, {"pitch": 42, "velocity": 80, "note_on_time": 6.764, "note_off_time": 6.981}, {"pitch": 42, "velocity": 80, "note_on_time": 6.981, "note_off_time": 7.198}, {"pitch": 64, "velocity": 80, "note_on_time": 7.198, "note_off_time": 7.417}, {"pitch": 42, "velocity": 80, "note_on_time": 7.199, "note_off_time": 7.417}, {"pitch": 64, "velocity": 80, "note_on_time": 7.417, "note_off_time": 7.633}, {"pitch": 42, "velocity": 80, "note_on_time": 7.417, "note_off_time": 7.633}, {"pitch": 64, "velocity": 80, "note_on_time": 7.633, "note_off_time": 7.851}, {"pitch": 42, "velocity": 80, "note_on_time": 7.633, "note_off_time": 7.851}]</notes><options name="Option List">((4, 4), [0.5, 0.25], 3, 8, &lt;NoteRangePerHand.C_TO_G: 6&gt;, &lt;NoteRangePerHand.ONE_NOTE: 2&gt;, False, True, False, '281')</options></target_notes><trials><trial trial_no="1" timestamp="2022_11_03-11_03_27"><notes name="Played Notes">[{"pitch": 60, "velocity": 84, "note_on_time": 0.87, "note_off_time": 1.605}, {"pitch": 62, "velocity": 44, "note_on_time": 1.577, "note_off_time": 1.789}, {"pitch": 65, "velocity": 81, "note_on_time": 1.809, "note_off_time": 2.082}, {"pitch": 64, "velocity": 69, "note_on_time": 2.04, "note_off_time": 2.67}, {"pitch": 62, "velocity": 62, "note_on_time": 2.68, "note_off_time": 2.918}, {"pitch": 60, "velocity": 59, "note_on_time": 2.94, "note_off_time": 3.159}, {"pitch": 64, "velocity": 73, "note_on_time": 3.171, "note_off_time": 3.276}, {"pitch": 64, "velocity": 70, "note_on_time": 3.406, "note_off_time": 3.604}, {"pitch": 67, "velocity": 69, "note_on_time": 3.628, "note_off_time": 3.873}, {"pitch": 64, "velocity": 63, "note_on_time": 3.869, "note_off_time": 4.096}, {"pitch": 67, "velocity": 65, "note_on_time": 4.105, "note_off_time": 4.33}, {"pitch": 64, "velocity": 72, "note_on_time": 4.326, "note_off_time": 4.592}, {"pitch": 67, "velocity": 64, "note_on_time": 4.602, "note_off_time": 4.826}, {"pitch": 64, "velocity": 64, "note_on_time": 4.831, "note_off_time": 5.05}, {"pitch": 67, "velocity": 73, "note_on_time": 5.073, "note_off_time": 5.531}, {"pitch": 64, "velocity": 66, "note_on_time": 5.528, "note_off_time": 5.753}, {"pitch": 60, "velocity": 59, "note_on_time": 5.752, "note_off_time": 5.999}, {"pitch": 64, "velocity": 76, "note_on_time": 6.003, "note_off_time": 6.41}, {"pitch": 65, "velocity": 66, "note_on_time": 6.514, "note_off_time": 6.629}, {"pitch": 62, "velocity": 71, "note_on_time": 6.981, "note_off_time": 7.095}, {"pitch": 64, "velocity": 67, "note_on_time": 7.177, "note_off_time": 7.369}, {"pitch": 64, "velocity": 67, "note_on_time": 7.628, "note_off_time": 7.714}]</notes><guidance name="Guidance Mode">None</guidance><error name="Error value">0.16077366666666673</error></trial><trial trial_no="2" timestamp="2022_11_03-11_03_50"><notes name="Played Notes">[{"pitch": 60, "velocity": 87, "note_on_time": 0.896, "note_off_time": 1.612}, {"pitch": 62, "velocity": 66, "note_on_time": 1.567, "note_off_time": 1.798}, {"pitch": 65, "velocity": 79, "note_on_time": 1.792, "note_off_time": 2.064}, {"pitch": 64, "velocity": 58, "note_on_time": 2.003, "note_off_time": 2.49}, {"pitch": 62, "velocity": 72, "note_on_time": 2.645, "note_off_time": 2.852}, {"pitch": 60, "velocity": 78, "note_on_time": 2.883, "note_off_time": 3.038}, {"pitch": 64, "velocity": 80, "note_on_time": 3.08, "note_off_time": 3.193}, {"pitch": 64, "velocity": 67, "note_on_time": 3.332, "note_off_time": 3.507}, {"pitch": 67, "velocity": 71, "note_on_time": 3.535, "note_off_time": 3.746}, {"pitch": 64, "velocity": 63, "note_on_time": 3.751, "note_off_time": 3.934}, {"pitch": 67, "velocity": 71, "note_on_time": 3.962, "note_off_time": 4.174}, {"pitch": 64, "velocity": 60, "note_on_time": 4.161, "note_off_time": 4.398}, {"pitch": 67, "velocity": 71, "note_on_time": 4.399, "note_off_time": 4.576}, {"pitch": 64, "velocity": 62, "note_on_time": 4.564, "note_off_time": 4.781}, {"pitch": 67, "velocity": 70, "note_on_time": 4.815, "note_off_time": 5.215}, {"pitch": 64, "velocity": 69, "note_on_time": 5.249, "note_off_time": 5.477}, {"pitch": 60, "velocity": 55, "note_on_time": 5.511, "note_off_time": 5.713}, {"pitch": 64, "velocity": 72, "note_on_time": 5.723, "note_off_time": 5.979}, {"pitch": 65, "velocity": 65, "note_on_time": 6.315, "note_off_time": 6.502}, {"pitch": 60, "velocity": 57, "note_on_time": 6.573, "note_off_time": 6.785}, {"pitch": 62, "velocity": 65, "note_on_time": 6.778, "note_off_time": 6.909}, {"pitch": 64, "velocity": 68, "note_on_time": 6.982, "note_off_time": 7.303}, {"pitch": 64, "velocity": 73, "note_on_time": 7.449, "note_off_time": 7.545}, {"pitch": 64, "velocity": 71, "note_on_time": 7.695, "note_off_time": 7.786}]</notes><guidance name="Guidance Mode">None</guidance><error name="Error value">0.1708322380952383</error></trial><trial trial_no="3" timestamp="2022_11_03-11_04_07"><notes name="Played Notes">[{"pitch": 60, "velocity": 81, "note_on_time": 0.91, "note_off_time": 1.578}, {"pitch": 62, "velocity": 67, "note_on_time": 1.559, "note_off_time": 1.752}, {"pitch": 65, "velocity": 74, "note_on_time": 1.758, "note_off_time": 2.037}, {"pitch": 64, "velocity": 71, "note_on_time": 1.982, "note_off_time": 2.211}, {"pitch": 62, "velocity": 94, "note_on_time": 2.463, "note_off_time": 2.639}, {"pitch": 60, "velocity": 62, "note_on_time": 2.679, "note_off_time": 2.892}, {"pitch": 64, "velocity": 65, "note_on_time": 2.9, "note_off_time": 2.988}, {"pitch": 67, "velocity": 55, "note_on_time": 3.174, "note_off_time": 3.324}, {"pitch": 64, "velocity": 73, "note_on_time": 3.395, "note_off_time": 3.581}, {"pitch": 67, "velocity": 66, "note_on_time": 3.609, "note_off_time": 3.809}, {"pitch": 64, "velocity": 64, "note_on_time": 3.808, "note_off_time": 4.032}, {"pitch": 67, "velocity": 70, "note_on_time": 4.042, "note_off_time": 4.275}, {"pitch": 64, "velocity": 59, "note_on_time": 4.265, "note_off_time": 4.482}, {"pitch": 67, "velocity": 74, "note_on_time": 4.499, "note_off_time": 4.859}, {"pitch": 64, "velocity": 68, "note_on_time": 4.977, "note_off_time": 5.199}, {"pitch": 60, "velocity": 72, "note_on_time": 5.188, "note_off_time": 5.473}, {"pitch": 64, "velocity": 82, "note_on_time": 5.456, "note_off_time": 5.92}, {"pitch": 65, "velocity": 65, "note_on_time": 5.917, "note_off_time": 6.247}, {"pitch": 62, "velocity": 68, "note_on_time": 6.375, "note_off_time": 6.529}, {"pitch": 64, "velocity": 65, "note_on_time": 6.594, "note_off_time": 6.717}, {"pitch": 64, "velocity": 80, "note_on_time": 7.023, "note_off_time": 7.115}, {"pitch": 64, "velocity": 76, "note_on_time": 7.235, "note_off_time": 7.337}, {"pitch": 64, "velocity": 76, "note_on_time": 7.454, "note_off_time": 7.629}]</notes><guidance name="Guidance Mode">None</guidance><error name="Error value">0.09532457142857126</error></trial></trials></MIDI>