<MIDI midiNo="2022_10_02-14_00_41"><target_notes><notes name="Note List">[{"pitch": 42, "velocity": 80, "note_on_time": 0.004, "note_off_time": 0.247}, {"pitch": 42, "velocity": 80, "note_on_time": 0.248, "note_off_time": 0.496}, {"pitch": 42, "velocity": 80, "note_on_time": 0.496, "note_off_time": 0.746}, {"pitch": 42, "velocity": 80, "note_on_time": 0.747, "note_off_time": 0.996}, {"pitch": 62, "velocity": 80, "note_on_time": 0.996, "note_off_time": 1.243}, {"pitch": 42, "velocity": 80, "note_on_time": 0.997, "note_off_time": 1.244}, {"pitch": 42, "velocity": 80, "note_on_time": 1.244, "note_off_time": 1.491}, {"pitch": 42, "velocity": 80, "note_on_time": 1.491, "note_off_time": 1.739}, {"pitch": 42, "velocity": 80, "note_on_time": 1.739, "note_off_time": 1.988}, {"pitch": 62, "velocity": 80, "note_on_time": 1.987, "note_off_time": 2.237}, {"pitch": 42, "velocity": 80, "note_on_time": 1.988, "note_off_time": 2.237}, {"pitch": 60, "velocity": 80, "note_on_time": 2.237, "note_off_time": 2.485}, {"pitch": 42, "velocity": 80, "note_on_time": 2.237, "note_off_time": 2.486}, {"pitch": 42, "velocity": 80, "note_on_time": 2.486, "note_off_time": 2.732}, {"pitch": 64, "velocity": 80, "note_on_time": 2.732, "note_off_time": 2.98}, {"pitch": 42, "velocity": 80, "note_on_time": 2.733, "note_off_time": 2.98}, {"pitch": 64, "velocity": 80, "note_on_time": 2.98, "note_off_time": 3.23}, {"pitch": 42, "velocity": 80, "note_on_time": 2.981, "note_off_time": 3.23}, {"pitch": 60, "velocity": 80, "note_on_time": 3.23, "note_off_time": 3.479}, {"pitch": 42, "velocity": 80, "note_on_time": 3.23, "note_off_time": 3.479}, {"pitch": 64, "velocity": 80, "note_on_time": 3.479, "note_off_time": 3.729}, {"pitch": 42, "velocity": 80, "note_on_time": 3.479, "note_off_time": 3.73}, {"pitch": 62, "velocity": 80, "note_on_time": 3.729, "note_off_time": 3.978}, {"pitch": 42, "velocity": 80, "note_on_time": 3.73, "note_off_time": 3.978}, {"pitch": 60, "velocity": 80, "note_on_time": 3.978, "note_off_time": 4.229}, {"pitch": 42, "velocity": 80, "note_on_time": 3.979, "note_off_time": 4.229}, {"pitch": 62, "velocity": 80, "note_on_time": 4.229, "note_off_time": 4.477}, {"pitch": 42, "velocity": 80, "note_on_time": 4.229, "note_off_time": 4.478}, {"pitch": 60, "velocity": 80, "note_on_time": 4.477, "note_off_time": 4.724}, {"pitch": 42, "velocity": 80, "note_on_time": 4.478, "note_off_time": 4.724}, {"pitch": 60, "velocity": 80, "note_on_time": 4.724, "note_off_time": 4.972}, {"pitch": 42, "velocity": 80, "note_on_time": 4.724, "note_off_time": 4.972}, {"pitch": 62, "velocity": 80, "note_on_time": 4.972, "note_off_time": 5.221}, {"pitch": 42, "velocity": 80, "note_on_time": 4.972, "note_off_time": 5.222}, {"pitch": 64, "velocity": 80, "note_on_time": 5.221, "note_off_time": 5.469}, {"pitch": 42, "velocity": 80, "note_on_time": 5.222, "note_off_time": 5.47}, {"pitch": 62, "velocity": 80, "note_on_time": 5.469, "note_off_time": 5.718}, {"pitch": 42, "velocity": 80, "note_on_time": 5.47, "note_off_time": 5.718}, {"pitch": 64, "velocity": 80, "note_on_time": 5.718, "note_off_time": 5.967}, {"pitch": 42, "velocity": 80, "note_on_time": 5.718, "note_off_time": 5.967}, {"pitch": 62, "velocity": 80, "note_on_time": 5.967, "note_off_time": 6.217}, {"pitch": 42, "velocity": 80, "note_on_time": 5.968, "note_off_time": 6.217}, {"pitch": 42, "velocity": 80, "note_on_time": 6.217, "note_off_time": 6.465}, {"pitch": 60, "velocity": 80, "note_on_time": 6.465, "note_off_time": 6.714}, {"pitch": 42, "velocity": 80, "note_on_time": 6.466, "note_off_time": 6.715}, {"pitch": 62, "velocity": 80, "note_on_time": 6.714, "note_off_time": 6.962}, {"pitch": 42, "velocity": 80, "note_on_time": 6.715, "note_off_time": 6.962}, {"pitch": 60, "velocity": 80, "note_on_time": 6.962, "note_off_time": 7.211}, {"pitch": 42, "velocity": 80, "note_on_time": 6.963, "note_off_time": 7.212}, {"pitch": 62, "velocity": 80, "note_on_time": 7.211, "note_off_time": 7.46}, {"pitch": 42, "velocity": 80, "note_on_time": 7.212, "note_off_time": 7.461}, {"pitch": 60, "velocity": 80, "note_on_time": 7.46, "note_off_time": 7.71}, {"pitch": 42, "velocity": 80, "note_on_time": 7.461, "note_off_time": 7.71}, {"pitch": 42, "velocity": 80, "note_on_time": 7.711, "note_off_time": 7.959}, {"pitch": 42, "velocity": 80, "note_on_time": 7.959, "note_off_time": 8.209}, {"pitch": 60, "velocity": 80, "note_on_time": 8.209, "note_off_time": 8.458}, {"pitch": 42, "velocity": 80, "note_on_time": 8.21, "note_off_time": 8.458}, {"pitch": 60, "velocity": 80, "note_on_time": 8.458, "note_off_time": 8.707}, {"pitch": 42, "velocity": 80, "note_on_time": 8.458, "note_off_time": 8.707}, {"pitch": 60, "velocity": 80, "note_on_time": 8.707, "note_off_time": 8.958}, {"pitch": 42, "velocity": 80, "note_on_time": 8.707, "note_off_time": 8.958}]</notes><options name="Option List">((4, 4), [0.25], 3, 8, &lt;NoteRangePerHand.THREE_NOTES: 4&gt;, &lt;NoteRangePerHand.ONE_NOTE: 2&gt;, False, True, True, 248)</options></target_notes><trials><trial trial_no="1" timestamp="2022_10_02-14_00_31"><notes name="Played Notes">[{"pitch": 62, "velocity": 67, "note_on_time": 0.987, "note_off_time": 1.233}, {"pitch": 62, "velocity": 64, "note_on_time": 2.011, "note_off_time": 2.288}, {"pitch": 60, "velocity": 53, "note_on_time": 2.27, "note_off_time": 2.436}, {"pitch": 64, "velocity": 66, "note_on_time": 3.001, "note_off_time": 3.146}, {"pitch": 64, "velocity": 62, "note_on_time": 3.26, "note_off_time": 3.502}, {"pitch": 60, "velocity": 57, "note_on_time": 3.516, "note_off_time": 3.733}, {"pitch": 64, "velocity": 52, "note_on_time": 3.76, "note_off_time": 4.049}, {"pitch": 62, "velocity": 56, "note_on_time": 4.036, "note_off_time": 4.294}, {"pitch": 60, "velocity": 59, "note_on_time": 4.279, "note_off_time": 4.414}, {"pitch": 62, "velocity": 54, "note_on_time": 4.531, "note_off_time": 4.645}, {"pitch": 62, "velocity": 54, "note_on_time": 4.753, "note_off_time": 4.957}, {"pitch": 60, "velocity": 12, "note_on_time": 5.051, "note_off_time": 5.318}, {"pitch": 62, "velocity": 49, "note_on_time": 5.397, "note_off_time": 5.666}, {"pitch": 64, "velocity": 55, "note_on_time": 5.621, "note_off_time": 5.943}, {"pitch": 62, "velocity": 46, "note_on_time": 5.927, "note_off_time": 6.101}, {"pitch": 62, "velocity": 41, "note_on_time": 6.198, "note_off_time": 6.353}, {"pitch": 62, "velocity": 39, "note_on_time": 6.457, "note_off_time": 7.06}, {"pitch": 60, "velocity": 41, "note_on_time": 7.601, "note_off_time": 7.797}, {"pitch": 60, "velocity": 43, "note_on_time": 7.89, "note_off_time": 8.066}, {"pitch": 60, "velocity": 58, "note_on_time": 8.206, "note_off_time": 8.705}]</notes><guidance name="Guidance Mode">None</guidance><error name="Error value">0.45075977272727275</error></trial><trial trial_no="2" timestamp="2022_10_02-14_00_55"><notes name="Played Notes">[{"pitch": 62, "velocity": 62, "note_on_time": 0.991, "note_off_time": 1.238}, {"pitch": 62, "velocity": 65, "note_on_time": 2.038, "note_off_time": 2.308}, {"pitch": 60, "velocity": 60, "note_on_time": 2.268, "note_off_time": 2.469}, {"pitch": 64, "velocity": 71, "note_on_time": 2.992, "note_off_time": 3.125}, {"pitch": 64, "velocity": 54, "note_on_time": 3.254, "note_off_time": 3.491}, {"pitch": 60, "velocity": 55, "note_on_time": 3.488, "note_off_time": 3.703}, {"pitch": 64, "velocity": 46, "note_on_time": 3.759, "note_off_time": 4.023}, {"pitch": 62, "velocity": 52, "note_on_time": 3.972, "note_off_time": 4.233}, {"pitch": 60, "velocity": 55, "note_on_time": 4.234, "note_off_time": 4.39}, {"pitch": 60, "velocity": 59, "note_on_time": 4.518, "note_off_time": 4.751}, {"pitch": 62, "velocity": 50, "note_on_time": 4.746, "note_off_time": 4.982}, {"pitch": 60, "velocity": 63, "note_on_time": 5.019, "note_off_time": 5.159}, {"pitch": 60, "velocity": 58, "note_on_time": 5.27, "note_off_time": 5.469}, {"pitch": 62, "velocity": 49, "note_on_time": 5.498, "note_off_time": 5.791}, {"pitch": 64, "velocity": 55, "note_on_time": 5.75, "note_off_time": 6.019}, {"pitch": 62, "velocity": 47, "note_on_time": 6.013, "note_off_time": 6.31}, {"pitch": 60, "velocity": 65, "note_on_time": 6.284, "note_off_time": 6.484}, {"pitch": 60, "velocity": 57, "note_on_time": 6.986, "note_off_time": 7.199}, {"pitch": 62, "velocity": 50, "note_on_time": 7.219, "note_off_time": 7.479}, {"pitch": 60, "velocity": 56, "note_on_time": 7.479, "note_off_time": 7.668}, {"pitch": 62, "velocity": 46, "note_on_time": 7.712, "note_off_time": 7.986}, {"pitch": 60, "velocity": 64, "note_on_time": 7.981, "note_off_time": 8.257}]</notes><guidance name="Guidance Mode">None</guidance><error name="Error value">0.38877863636363624</error></trial><trial trial_no="3" timestamp="2022_10_02-14_01_25"><notes name="Played Notes">[{"pitch": 62, "velocity": 56, "note_on_time": 1.002, "note_off_time": 1.258}, {"pitch": 62, "velocity": 57, "note_on_time": 2.044, "note_off_time": 2.347}, {"pitch": 60, "velocity": 64, "note_on_time": 2.294, "note_off_time": 2.45}, {"pitch": 64, "velocity": 62, "note_on_time": 3.011, "note_off_time": 3.152}, {"pitch": 64, "velocity": 54, "note_on_time": 3.267, "note_off_time": 3.501}, {"pitch": 60, "velocity": 59, "note_on_time": 3.52, "note_off_time": 3.737}, {"pitch": 64, "velocity": 51, "note_on_time": 3.792, "note_off_time": 4.077}, {"pitch": 62, "velocity": 51, "note_on_time": 4.037, "note_off_time": 4.298}, {"pitch": 60, "velocity": 57, "note_on_time": 4.292, "note_off_time": 4.458}, {"pitch": 60, "velocity": 46, "note_on_time": 4.567, "note_off_time": 4.733}, {"pitch": 62, "velocity": 48, "note_on_time": 4.775, "note_off_time": 5.0}, {"pitch": 60, "velocity": 55, "note_on_time": 5.038, "note_off_time": 5.34}, {"pitch": 62, "velocity": 48, "note_on_time": 5.491, "note_off_time": 5.758}, {"pitch": 64, "velocity": 48, "note_on_time": 5.751, "note_off_time": 6.01}, {"pitch": 62, "velocity": 40, "note_on_time": 6.037, "note_off_time": 6.305}, {"pitch": 60, "velocity": 51, "note_on_time": 6.301, "note_off_time": 6.444}, {"pitch": 60, "velocity": 66, "note_on_time": 7.008, "note_off_time": 7.314}, {"pitch": 62, "velocity": 52, "note_on_time": 7.304, "note_off_time": 7.579}, {"pitch": 60, "velocity": 59, "note_on_time": 7.554, "note_off_time": 7.788}, {"pitch": 62, "velocity": 44, "note_on_time": 7.808, "note_off_time": 8.065}, {"pitch": 60, "velocity": 66, "note_on_time": 8.059, "note_off_time": 8.237}]</notes><guidance name="Guidance Mode">None</guidance><error name="Error value">0.6375177272727273</error></trial></trials></MIDI>