<MIDI midiNo="2022_08_17-16_04_41"><target_notes><notes name="Note List">[{"pitch": 42, "velocity": 80, "note_on_time": 0.004, "note_off_time": 0.368}, {"pitch": 42, "velocity": 80, "note_on_time": 0.369, "note_off_time": 0.743}, {"pitch": 42, "velocity": 80, "note_on_time": 0.743, "note_off_time": 1.114}, {"pitch": 42, "velocity": 80, "note_on_time": 1.114, "note_off_time": 1.49}, {"pitch": 60, "velocity": 80, "note_on_time": 1.49, "note_off_time": 1.864}, {"pitch": 42, "velocity": 80, "note_on_time": 1.49, "note_off_time": 1.865}, {"pitch": 60, "velocity": 80, "note_on_time": 1.864, "note_off_time": 2.239}, {"pitch": 42, "velocity": 80, "note_on_time": 1.865, "note_off_time": 2.239}, {"pitch": 42, "velocity": 80, "note_on_time": 2.239, "note_off_time": 2.615}, {"pitch": 65, "velocity": 80, "note_on_time": 2.615, "note_off_time": 2.992}, {"pitch": 42, "velocity": 80, "note_on_time": 2.616, "note_off_time": 2.992}, {"pitch": 62, "velocity": 80, "note_on_time": 2.992, "note_off_time": 3.371}, {"pitch": 42, "velocity": 80, "note_on_time": 2.992, "note_off_time": 3.372}, {"pitch": 42, "velocity": 80, "note_on_time": 3.372, "note_off_time": 3.744}, {"pitch": 65, "velocity": 80, "note_on_time": 3.371, "note_off_time": 4.117}, {"pitch": 42, "velocity": 80, "note_on_time": 3.744, "note_off_time": 4.117}, {"pitch": 64, "velocity": 80, "note_on_time": 4.117, "note_off_time": 4.491}, {"pitch": 42, "velocity": 80, "note_on_time": 4.118, "note_off_time": 4.491}, {"pitch": 42, "velocity": 80, "note_on_time": 4.491, "note_off_time": 4.865}, {"pitch": 64, "velocity": 80, "note_on_time": 4.491, "note_off_time": 5.238}, {"pitch": 42, "velocity": 80, "note_on_time": 4.866, "note_off_time": 5.239}, {"pitch": 67, "velocity": 80, "note_on_time": 5.238, "note_off_time": 5.611}, {"pitch": 42, "velocity": 80, "note_on_time": 5.239, "note_off_time": 5.612}, {"pitch": 42, "velocity": 80, "note_on_time": 5.612, "note_off_time": 5.987}, {"pitch": 42, "velocity": 80, "note_on_time": 5.987, "note_off_time": 6.362}, {"pitch": 67, "velocity": 80, "note_on_time": 5.986, "note_off_time": 6.738}, {"pitch": 42, "velocity": 80, "note_on_time": 6.362, "note_off_time": 6.738}, {"pitch": 42, "velocity": 80, "note_on_time": 6.739, "note_off_time": 7.113}, {"pitch": 42, "velocity": 80, "note_on_time": 7.113, "note_off_time": 7.486}, {"pitch": 60, "velocity": 80, "note_on_time": 7.486, "note_off_time": 7.86}, {"pitch": 42, "velocity": 80, "note_on_time": 7.486, "note_off_time": 7.86}, {"pitch": 65, "velocity": 80, "note_on_time": 7.86, "note_off_time": 8.235}, {"pitch": 42, "velocity": 80, "note_on_time": 7.86, "note_off_time": 8.235}, {"pitch": 62, "velocity": 80, "note_on_time": 8.235, "note_off_time": 8.609}, {"pitch": 42, "velocity": 80, "note_on_time": 8.236, "note_off_time": 8.609}, {"pitch": 65, "velocity": 80, "note_on_time": 8.609, "note_off_time": 8.984}, {"pitch": 42, "velocity": 80, "note_on_time": 8.61, "note_off_time": 8.984}, {"pitch": 67, "velocity": 80, "note_on_time": 8.984, "note_off_time": 9.361}, {"pitch": 42, "velocity": 80, "note_on_time": 8.985, "note_off_time": 9.361}, {"pitch": 60, "velocity": 80, "note_on_time": 9.361, "note_off_time": 9.736}, {"pitch": 42, "velocity": 80, "note_on_time": 9.361, "note_off_time": 9.736}, {"pitch": 42, "velocity": 80, "note_on_time": 9.737, "note_off_time": 10.114}, {"pitch": 64, "velocity": 80, "note_on_time": 10.114, "note_off_time": 10.489}, {"pitch": 42, "velocity": 80, "note_on_time": 10.114, "note_off_time": 10.489}, {"pitch": 62, "velocity": 80, "note_on_time": 10.489, "note_off_time": 10.865}, {"pitch": 42, "velocity": 80, "note_on_time": 10.489, "note_off_time": 10.865}, {"pitch": 67, "velocity": 80, "note_on_time": 10.865, "note_off_time": 11.241}, {"pitch": 42, "velocity": 80, "note_on_time": 10.865, "note_off_time": 11.241}, {"pitch": 65, "velocity": 80, "note_on_time": 11.241, "note_off_time": 11.617}, {"pitch": 42, "velocity": 80, "note_on_time": 11.242, "note_off_time": 11.617}, {"pitch": 62, "velocity": 80, "note_on_time": 11.617, "note_off_time": 11.994}, {"pitch": 42, "velocity": 80, "note_on_time": 11.617, "note_off_time": 11.994}, {"pitch": 42, "velocity": 80, "note_on_time": 11.994, "note_off_time": 12.37}, {"pitch": 62, "velocity": 80, "note_on_time": 12.369, "note_off_time": 12.744}, {"pitch": 42, "velocity": 80, "note_on_time": 12.37, "note_off_time": 12.744}, {"pitch": 62, "velocity": 80, "note_on_time": 12.744, "note_off_time": 13.121}, {"pitch": 42, "velocity": 80, "note_on_time": 12.744, "note_off_time": 13.121}, {"pitch": 62, "velocity": 80, "note_on_time": 13.121, "note_off_time": 13.495}, {"pitch": 42, "velocity": 80, "note_on_time": 13.121, "note_off_time": 13.495}]</notes><options name="Option List">((4, 4), [0.5, 0.25], 3, 8, &lt;NoteRangePerHand.C_TO_G: 6&gt;, &lt;NoteRangePerHand.ONE_NOTE: 2&gt;, False, True, True, '166')</options></target_notes><trials><trial trial_no="1" timestamp="2022_08_17-16_04_26"><notes name="Played Notes">[{"pitch": 60, "velocity": 79, "note_on_time": 1.484, "note_off_time": 1.632}, {"pitch": 60, "velocity": 81, "note_on_time": 1.861, "note_off_time": 2.146}, {"pitch": 65, "velocity": 69, "note_on_time": 2.6, "note_off_time": 2.987}, {"pitch": 62, "velocity": 80, "note_on_time": 2.995, "note_off_time": 3.349}, {"pitch": 65, "velocity": 82, "note_on_time": 3.363, "note_off_time": 3.754}, {"pitch": 62, "velocity": 81, "note_on_time": 4.199, "note_off_time": 4.28}, {"pitch": 64, "velocity": 80, "note_on_time": 4.545, "note_off_time": 4.837}, {"pitch": 64, "velocity": 68, "note_on_time": 5.263, "note_off_time": 5.552}, {"pitch": 60, "velocity": 19, "note_on_time": 5.561, "note_off_time": 5.648}, {"pitch": 62, "velocity": 51, "note_on_time": 5.567, "note_off_time": 5.749}, {"pitch": 65, "velocity": 31, "note_on_time": 6.021, "note_off_time": 6.197}, {"pitch": 60, "velocity": 81, "note_on_time": 7.856, "note_off_time": 8.263}, {"pitch": 67, "velocity": 71, "note_on_time": 8.23, "note_off_time": 8.564}, {"pitch": 65, "velocity": 63, "note_on_time": 8.598, "note_off_time": 8.84}, {"pitch": 67, "velocity": 74, "note_on_time": 11.137, "note_off_time": 11.562}, {"pitch": 65, "velocity": 39, "note_on_time": 11.581, "note_off_time": 11.962}, {"pitch": 64, "velocity": 74, "note_on_time": 11.941, "note_off_time": 12.28}, {"pitch": 62, "velocity": 56, "note_on_time": 12.316, "note_off_time": 12.503}, {"pitch": 60, "velocity": 89, "note_on_time": 12.724, "note_off_time": 12.861}, {"pitch": 60, "velocity": 99, "note_on_time": 13.104, "note_off_time": 13.218}]</notes><guidance name="Guidance Mode">None</guidance><error name="Error value">0.9179834999999997</error></trial><trial trial_no="2" timestamp="2022_08_17-16_05_11"><notes name="Played Notes">[{"pitch": 60, "velocity": 72, "note_on_time": 1.51, "note_off_time": 1.707}, {"pitch": 60, "velocity": 81, "note_on_time": 1.904, "note_off_time": 2.252}, {"pitch": 64, "velocity": 69, "note_on_time": 2.612, "note_off_time": 2.967}, {"pitch": 62, "velocity": 60, "note_on_time": 3.019, "note_off_time": 3.315}, {"pitch": 64, "velocity": 70, "note_on_time": 3.369, "note_off_time": 3.706}, {"pitch": 65, "velocity": 68, "note_on_time": 4.135, "note_off_time": 4.261}, {"pitch": 65, "velocity": 79, "note_on_time": 4.527, "note_off_time": 4.938}, {"pitch": 65, "velocity": 65, "note_on_time": 5.272, "note_off_time": 5.733}, {"pitch": 65, "velocity": 69, "note_on_time": 6.02, "note_off_time": 6.434}, {"pitch": 60, "velocity": 64, "note_on_time": 7.88, "note_off_time": 8.251}, {"pitch": 65, "velocity": 65, "note_on_time": 8.25, "note_off_time": 8.625}, {"pitch": 62, "velocity": 43, "note_on_time": 8.78, "note_off_time": 9.024}, {"pitch": 65, "velocity": 75, "note_on_time": 9.077, "note_off_time": 9.387}, {"pitch": 64, "velocity": 62, "note_on_time": 9.429, "note_off_time": 9.613}, {"pitch": 67, "velocity": 73, "note_on_time": 11.291, "note_off_time": 11.626}, {"pitch": 64, "velocity": 35, "note_on_time": 11.65, "note_off_time": 12.015}, {"pitch": 62, "velocity": 77, "note_on_time": 11.999, "note_off_time": 12.419}, {"pitch": 60, "velocity": 82, "note_on_time": 12.724, "note_off_time": 12.892}, {"pitch": 60, "velocity": 76, "note_on_time": 13.127, "note_off_time": 13.294}]</notes><guidance name="Guidance Mode">None</guidance><error name="Error value">0.9188442499999999</error></trial><trial trial_no="3" timestamp="2022_08_17-16_05_36"><notes name="Played Notes">[{"pitch": 60, "velocity": 69, "note_on_time": 1.528, "note_off_time": 1.737}, {"pitch": 60, "velocity": 74, "note_on_time": 1.897, "note_off_time": 2.198}, {"pitch": 65, "velocity": 68, "note_on_time": 2.636, "note_off_time": 2.991}, {"pitch": 62, "velocity": 78, "note_on_time": 3.007, "note_off_time": 3.376}, {"pitch": 65, "velocity": 80, "note_on_time": 3.384, "note_off_time": 3.778}, {"pitch": 64, "velocity": 78, "note_on_time": 4.107, "note_off_time": 4.303}, {"pitch": 64, "velocity": 79, "note_on_time": 4.511, "note_off_time": 4.888}, {"pitch": 62, "velocity": 78, "note_on_time": 5.291, "note_off_time": 5.394}, {"pitch": 65, "velocity": 74, "note_on_time": 5.469, "note_off_time": 5.629}, {"pitch": 60, "velocity": 64, "note_on_time": 6.055, "note_off_time": 6.419}, {"pitch": 60, "velocity": 50, "note_on_time": 7.824, "note_off_time": 8.588}, {"pitch": 64, "velocity": 60, "note_on_time": 8.583, "note_off_time": 8.96}, {"pitch": 60, "velocity": 49, "note_on_time": 8.989, "note_off_time": 9.356}, {"pitch": 64, "velocity": 65, "note_on_time": 9.342, "note_off_time": 9.48}, {"pitch": 65, "velocity": 49, "note_on_time": 9.756, "note_off_time": 9.952}, {"pitch": 67, "velocity": 51, "note_on_time": 10.128, "note_off_time": 10.267}, {"pitch": 65, "velocity": 52, "note_on_time": 10.493, "note_off_time": 10.608}, {"pitch": 64, "velocity": 56, "note_on_time": 10.876, "note_off_time": 10.955}, {"pitch": 62, "velocity": 56, "note_on_time": 11.258, "note_off_time": 11.356}, {"pitch": 60, "velocity": 72, "note_on_time": 11.652, "note_off_time": 11.804}, {"pitch": 60, "velocity": 52, "note_on_time": 11.938, "note_off_time": 12.051}, {"pitch": 60, "velocity": 83, "note_on_time": 12.376, "note_off_time": 12.492}]</notes><guidance name="Guidance Mode">None</guidance><error name="Error value">0.9007719999999999</error></trial></trials></MIDI>