<MIDI midiNo="2022_12_08-12_23_52"><target_notes><notes name="Note List">[{"pitch": 42, "velocity": 80, "note_on_time": 0.005, "note_off_time": 0.277}, {"pitch": 42, "velocity": 80, "note_on_time": 0.277, "note_off_time": 0.544}, {"pitch": 42, "velocity": 80, "note_on_time": 0.544, "note_off_time": 0.808}, {"pitch": 42, "velocity": 80, "note_on_time": 0.808, "note_off_time": 1.074}, {"pitch": 65, "velocity": 80, "note_on_time": 1.074, "note_off_time": 1.339}, {"pitch": 42, "velocity": 80, "note_on_time": 1.074, "note_off_time": 1.339}, {"pitch": 67, "velocity": 80, "note_on_time": 1.339, "note_off_time": 1.603}, {"pitch": 42, "velocity": 80, "note_on_time": 1.339, "note_off_time": 1.604}, {"pitch": 60, "velocity": 80, "note_on_time": 1.603, "note_off_time": 1.866}, {"pitch": 42, "velocity": 80, "note_on_time": 1.604, "note_off_time": 1.866}, {"pitch": 62, "velocity": 80, "note_on_time": 1.866, "note_off_time": 2.131}, {"pitch": 42, "velocity": 80, "note_on_time": 1.866, "note_off_time": 2.131}, {"pitch": 60, "velocity": 80, "note_on_time": 2.131, "note_off_time": 2.397}, {"pitch": 42, "velocity": 80, "note_on_time": 2.131, "note_off_time": 2.397}, {"pitch": 64, "velocity": 80, "note_on_time": 2.397, "note_off_time": 2.663}, {"pitch": 42, "velocity": 80, "note_on_time": 2.398, "note_off_time": 2.663}, {"pitch": 65, "velocity": 80, "note_on_time": 2.663, "note_off_time": 2.929}, {"pitch": 42, "velocity": 80, "note_on_time": 2.663, "note_off_time": 2.93}, {"pitch": 60, "velocity": 80, "note_on_time": 2.929, "note_off_time": 3.195}, {"pitch": 42, "velocity": 80, "note_on_time": 2.93, "note_off_time": 3.196}, {"pitch": 64, "velocity": 80, "note_on_time": 3.195, "note_off_time": 3.459}, {"pitch": 42, "velocity": 80, "note_on_time": 3.196, "note_off_time": 3.459}, {"pitch": 42, "velocity": 80, "note_on_time": 3.459, "note_off_time": 3.725}, {"pitch": 65, "velocity": 80, "note_on_time": 3.459, "note_off_time": 3.989}, {"pitch": 42, "velocity": 80, "note_on_time": 3.725, "note_off_time": 3.989}, {"pitch": 42, "velocity": 80, "note_on_time": 3.989, "note_off_time": 4.253}, {"pitch": 42, "velocity": 80, "note_on_time": 4.253, "note_off_time": 4.517}, {"pitch": 65, "velocity": 80, "note_on_time": 4.253, "note_off_time": 4.784}, {"pitch": 42, "velocity": 80, "note_on_time": 4.517, "note_off_time": 4.784}, {"pitch": 42, "velocity": 80, "note_on_time": 4.785, "note_off_time": 5.047}, {"pitch": 60, "velocity": 80, "note_on_time": 4.784, "note_off_time": 5.312}, {"pitch": 42, "velocity": 80, "note_on_time": 5.048, "note_off_time": 5.312}, {"pitch": 64, "velocity": 80, "note_on_time": 5.312, "note_off_time": 5.576}, {"pitch": 42, "velocity": 80, "note_on_time": 5.312, "note_off_time": 5.577}, {"pitch": 65, "velocity": 80, "note_on_time": 5.576, "note_off_time": 5.842}, {"pitch": 42, "velocity": 80, "note_on_time": 5.577, "note_off_time": 5.842}, {"pitch": 65, "velocity": 80, "note_on_time": 5.842, "note_off_time": 6.107}, {"pitch": 42, "velocity": 80, "note_on_time": 5.842, "note_off_time": 6.108}, {"pitch": 65, "velocity": 80, "note_on_time": 6.107, "note_off_time": 6.374}, {"pitch": 42, "velocity": 80, "note_on_time": 6.108, "note_off_time": 6.374}, {"pitch": 67, "velocity": 80, "note_on_time": 6.374, "note_off_time": 6.639}, {"pitch": 42, "velocity": 80, "note_on_time": 6.374, "note_off_time": 6.639}, {"pitch": 60, "velocity": 80, "note_on_time": 6.639, "note_off_time": 6.908}, {"pitch": 42, "velocity": 80, "note_on_time": 6.64, "note_off_time": 6.908}, {"pitch": 62, "velocity": 80, "note_on_time": 6.908, "note_off_time": 7.172}, {"pitch": 42, "velocity": 80, "note_on_time": 6.909, "note_off_time": 7.172}, {"pitch": 67, "velocity": 80, "note_on_time": 7.172, "note_off_time": 7.435}, {"pitch": 42, "velocity": 80, "note_on_time": 7.173, "note_off_time": 7.435}, {"pitch": 67, "velocity": 80, "note_on_time": 7.435, "note_off_time": 7.7}, {"pitch": 42, "velocity": 80, "note_on_time": 7.435, "note_off_time": 7.7}, {"pitch": 60, "velocity": 80, "note_on_time": 7.7, "note_off_time": 7.965}, {"pitch": 42, "velocity": 80, "note_on_time": 7.701, "note_off_time": 7.965}, {"pitch": 60, "velocity": 80, "note_on_time": 7.965, "note_off_time": 8.229}, {"pitch": 42, "velocity": 80, "note_on_time": 7.965, "note_off_time": 8.229}, {"pitch": 64, "velocity": 80, "note_on_time": 8.229, "note_off_time": 8.494}, {"pitch": 42, "velocity": 80, "note_on_time": 8.23, "note_off_time": 8.495}, {"pitch": 42, "velocity": 80, "note_on_time": 8.495, "note_off_time": 8.76}, {"pitch": 64, "velocity": 80, "note_on_time": 8.76, "note_off_time": 9.024}, {"pitch": 42, "velocity": 80, "note_on_time": 8.76, "note_off_time": 9.024}, {"pitch": 64, "velocity": 80, "note_on_time": 9.024, "note_off_time": 9.289}, {"pitch": 42, "velocity": 80, "note_on_time": 9.024, "note_off_time": 9.29}, {"pitch": 64, "velocity": 80, "note_on_time": 9.289, "note_off_time": 9.554}, {"pitch": 42, "velocity": 80, "note_on_time": 9.29, "note_off_time": 9.555}]</notes><options name="Option List">((4, 4), [0.5, 0.25], 3, 8, &lt;NoteRangePerHand.C_TO_G: 6&gt;, &lt;NoteRangePerHand.ONE_NOTE: 2&gt;, False, True, False, '232')</options></target_notes><trials><trial trial_no="1" timestamp="2022_12_08-12_23_41"><notes name="Played Notes">[{"pitch": 65, "velocity": 75, "note_on_time": 1.089, "note_off_time": 1.347}, {"pitch": 67, "velocity": 62, "note_on_time": 1.366, "note_off_time": 1.622}, {"pitch": 60, "velocity": 60, "note_on_time": 1.662, "note_off_time": 1.922}, {"pitch": 62, "velocity": 64, "note_on_time": 1.941, "note_off_time": 2.194}, {"pitch": 60, "velocity": 55, "note_on_time": 2.223, "note_off_time": 2.463}, {"pitch": 64, "velocity": 66, "note_on_time": 2.473, "note_off_time": 2.729}, {"pitch": 65, "velocity": 67, "note_on_time": 2.719, "note_off_time": 2.947}, {"pitch": 60, "velocity": 54, "note_on_time": 2.994, "note_off_time": 3.246}, {"pitch": 64, "velocity": 69, "note_on_time": 3.245, "note_off_time": 3.754}, {"pitch": 65, "velocity": 52, "note_on_time": 3.775, "note_off_time": 4.065}, {"pitch": 65, "velocity": 74, "note_on_time": 4.279, "note_off_time": 4.776}, {"pitch": 60, "velocity": 62, "note_on_time": 4.814, "note_off_time": 5.201}, {"pitch": 64, "velocity": 66, "note_on_time": 5.317, "note_off_time": 5.587}, {"pitch": 65, "velocity": 66, "note_on_time": 5.581, "note_off_time": 5.706}, {"pitch": 65, "velocity": 69, "note_on_time": 5.845, "note_off_time": 5.95}, {"pitch": 65, "velocity": 68, "note_on_time": 6.096, "note_off_time": 6.349}, {"pitch": 67, "velocity": 65, "note_on_time": 6.358, "note_off_time": 6.604}, {"pitch": 60, "velocity": 46, "note_on_time": 6.636, "note_off_time": 6.903}, {"pitch": 62, "velocity": 62, "note_on_time": 6.913, "note_off_time": 7.201}, {"pitch": 67, "velocity": 58, "note_on_time": 7.187, "note_off_time": 7.313}, {"pitch": 67, "velocity": 63, "note_on_time": 7.453, "note_off_time": 7.707}, {"pitch": 60, "velocity": 62, "note_on_time": 7.706, "note_off_time": 7.819}, {"pitch": 60, "velocity": 61, "note_on_time": 7.999, "note_off_time": 8.233}, {"pitch": 64, "velocity": 74, "note_on_time": 8.246, "note_off_time": 8.57}, {"pitch": 64, "velocity": 81, "note_on_time": 8.781, "note_off_time": 8.897}, {"pitch": 64, "velocity": 81, "note_on_time": 9.053, "note_off_time": 9.179}]</notes><guidance name="Guidance Mode">None</guidance><error name="Error value">0.08931916666666662</error></trial><trial trial_no="2" timestamp="2022_12_08-12_24_01"><notes name="Played Notes">[{"pitch": 65, "velocity": 73, "note_on_time": 1.078, "note_off_time": 1.342}, {"pitch": 67, "velocity": 65, "note_on_time": 1.347, "note_off_time": 1.647}, {"pitch": 60, "velocity": 66, "note_on_time": 1.602, "note_off_time": 1.879}, {"pitch": 62, "velocity": 63, "note_on_time": 1.887, "note_off_time": 2.135}, {"pitch": 60, "velocity": 51, "note_on_time": 2.151, "note_off_time": 2.435}, {"pitch": 64, "velocity": 71, "note_on_time": 2.418, "note_off_time": 2.686}, {"pitch": 65, "velocity": 74, "note_on_time": 2.677, "note_off_time": 2.901}, {"pitch": 60, "velocity": 59, "note_on_time": 2.935, "note_off_time": 3.227}, {"pitch": 64, "velocity": 71, "note_on_time": 3.215, "note_off_time": 3.47}, {"pitch": 65, "velocity": 66, "note_on_time": 3.488, "note_off_time": 4.054}, {"pitch": 65, "velocity": 68, "note_on_time": 4.281, "note_off_time": 4.762}, {"pitch": 60, "velocity": 62, "note_on_time": 4.799, "note_off_time": 5.262}, {"pitch": 64, "velocity": 68, "note_on_time": 5.313, "note_off_time": 5.591}, {"pitch": 65, "velocity": 76, "note_on_time": 5.582, "note_off_time": 5.709}, {"pitch": 65, "velocity": 72, "note_on_time": 5.853, "note_off_time": 5.952}, {"pitch": 65, "velocity": 76, "note_on_time": 6.111, "note_off_time": 6.374}, {"pitch": 67, "velocity": 71, "note_on_time": 6.383, "note_off_time": 6.622}, {"pitch": 60, "velocity": 60, "note_on_time": 6.63, "note_off_time": 6.888}, {"pitch": 62, "velocity": 59, "note_on_time": 6.904, "note_off_time": 7.185}, {"pitch": 67, "velocity": 62, "note_on_time": 7.167, "note_off_time": 7.301}, {"pitch": 67, "velocity": 67, "note_on_time": 7.426, "note_off_time": 7.673}, {"pitch": 60, "velocity": 68, "note_on_time": 7.687, "note_off_time": 7.816}, {"pitch": 60, "velocity": 73, "note_on_time": 7.948, "note_off_time": 8.223}, {"pitch": 64, "velocity": 72, "note_on_time": 8.228, "note_off_time": 8.58}, {"pitch": 64, "velocity": 77, "note_on_time": 8.786, "note_off_time": 8.897}, {"pitch": 64, "velocity": 78, "note_on_time": 9.054, "note_off_time": 9.175}]</notes><guidance name="Guidance Mode">None</guidance><error name="Error value">0.06314416666666679</error></trial><trial trial_no="3" timestamp="2022_12_08-12_24_18"><notes name="Played Notes">[{"pitch": 65, "velocity": 70, "note_on_time": 1.086, "note_off_time": 1.323}, {"pitch": 67, "velocity": 63, "note_on_time": 1.342, "note_off_time": 1.603}, {"pitch": 60, "velocity": 68, "note_on_time": 1.601, "note_off_time": 1.893}, {"pitch": 62, "velocity": 64, "note_on_time": 1.894, "note_off_time": 2.141}, {"pitch": 60, "velocity": 62, "note_on_time": 2.158, "note_off_time": 2.422}, {"pitch": 64, "velocity": 74, "note_on_time": 2.418, "note_off_time": 2.675}, {"pitch": 65, "velocity": 77, "note_on_time": 2.672, "note_off_time": 2.891}, {"pitch": 60, "velocity": 59, "note_on_time": 2.939, "note_off_time": 3.195}, {"pitch": 64, "velocity": 70, "note_on_time": 3.213, "note_off_time": 3.459}, {"pitch": 65, "velocity": 72, "note_on_time": 3.472, "note_off_time": 4.016}, {"pitch": 65, "velocity": 77, "note_on_time": 4.275, "note_off_time": 4.779}, {"pitch": 60, "velocity": 75, "note_on_time": 4.812, "note_off_time": 5.228}, {"pitch": 64, "velocity": 62, "note_on_time": 5.328, "note_off_time": 5.566}, {"pitch": 65, "velocity": 70, "note_on_time": 5.587, "note_off_time": 5.713}, {"pitch": 65, "velocity": 71, "note_on_time": 5.855, "note_off_time": 5.959}, {"pitch": 65, "velocity": 68, "note_on_time": 6.111, "note_off_time": 6.373}, {"pitch": 67, "velocity": 68, "note_on_time": 6.38, "note_off_time": 6.618}, {"pitch": 60, "velocity": 54, "note_on_time": 6.644, "note_off_time": 6.909}, {"pitch": 62, "velocity": 58, "note_on_time": 6.919, "note_off_time": 7.198}, {"pitch": 67, "velocity": 62, "note_on_time": 7.178, "note_off_time": 7.299}, {"pitch": 67, "velocity": 73, "note_on_time": 7.444, "note_off_time": 7.648}, {"pitch": 60, "velocity": 59, "note_on_time": 7.699, "note_off_time": 7.851}, {"pitch": 60, "velocity": 63, "note_on_time": 7.973, "note_off_time": 8.215}, {"pitch": 64, "velocity": 63, "note_on_time": 8.235, "note_off_time": 8.555}, {"pitch": 64, "velocity": 74, "note_on_time": 8.754, "note_off_time": 8.869}, {"pitch": 64, "velocity": 76, "note_on_time": 9.027, "note_off_time": 9.144}]</notes><guidance name="Guidance Mode">None</guidance><error name="Error value">0.06126916666666675</error></trial></trials></MIDI>