<MIDI midiNo="2022_12_08-12_11_06"><target_notes><notes name="Note List">[{"pitch": 42, "velocity": 80, "note_on_time": 0.004, "note_off_time": 0.337}, {"pitch": 42, "velocity": 80, "note_on_time": 0.338, "note_off_time": 0.681}, {"pitch": 42, "velocity": 80, "note_on_time": 0.682, "note_off_time": 1.027}, {"pitch": 42, "velocity": 80, "note_on_time": 1.027, "note_off_time": 1.371}, {"pitch": 64, "velocity": 80, "note_on_time": 1.371, "note_off_time": 1.715}, {"pitch": 42, "velocity": 80, "note_on_time": 1.371, "note_off_time": 1.715}, {"pitch": 60, "velocity": 80, "note_on_time": 1.715, "note_off_time": 2.059}, {"pitch": 42, "velocity": 80, "note_on_time": 1.715, "note_off_time": 2.059}, {"pitch": 67, "velocity": 80, "note_on_time": 2.059, "note_off_time": 2.401}, {"pitch": 42, "velocity": 80, "note_on_time": 2.059, "note_off_time": 2.401}, {"pitch": 67, "velocity": 80, "note_on_time": 2.401, "note_off_time": 2.743}, {"pitch": 42, "velocity": 80, "note_on_time": 2.402, "note_off_time": 2.743}, {"pitch": 65, "velocity": 80, "note_on_time": 2.743, "note_off_time": 3.087}, {"pitch": 42, "velocity": 80, "note_on_time": 2.744, "note_off_time": 3.087}, {"pitch": 42, "velocity": 80, "note_on_time": 3.087, "note_off_time": 3.428}, {"pitch": 42, "velocity": 80, "note_on_time": 3.428, "note_off_time": 3.772}, {"pitch": 62, "velocity": 80, "note_on_time": 3.772, "note_off_time": 4.115}, {"pitch": 42, "velocity": 80, "note_on_time": 3.772, "note_off_time": 4.115}, {"pitch": 42, "velocity": 80, "note_on_time": 4.115, "note_off_time": 4.458}, {"pitch": 64, "velocity": 80, "note_on_time": 4.115, "note_off_time": 4.799}, {"pitch": 42, "velocity": 80, "note_on_time": 4.459, "note_off_time": 4.799}, {"pitch": 42, "velocity": 80, "note_on_time": 4.799, "note_off_time": 5.14}, {"pitch": 42, "velocity": 80, "note_on_time": 5.141, "note_off_time": 5.483}, {"pitch": 42, "velocity": 80, "note_on_time": 5.483, "note_off_time": 5.827}, {"pitch": 67, "velocity": 80, "note_on_time": 5.483, "note_off_time": 6.172}, {"pitch": 42, "velocity": 80, "note_on_time": 5.827, "note_off_time": 6.172}, {"pitch": 60, "velocity": 80, "note_on_time": 6.172, "note_off_time": 6.515}, {"pitch": 42, "velocity": 80, "note_on_time": 6.172, "note_off_time": 6.515}, {"pitch": 67, "velocity": 80, "note_on_time": 6.515, "note_off_time": 6.856}, {"pitch": 42, "velocity": 80, "note_on_time": 6.516, "note_off_time": 6.856}, {"pitch": 42, "velocity": 80, "note_on_time": 6.856, "note_off_time": 7.199}, {"pitch": 60, "velocity": 80, "note_on_time": 6.856, "note_off_time": 7.539}, {"pitch": 42, "velocity": 80, "note_on_time": 7.2, "note_off_time": 7.54}, {"pitch": 42, "velocity": 80, "note_on_time": 7.54, "note_off_time": 7.884}, {"pitch": 67, "velocity": 80, "note_on_time": 7.539, "note_off_time": 8.229}, {"pitch": 42, "velocity": 80, "note_on_time": 7.885, "note_off_time": 8.229}, {"pitch": 60, "velocity": 80, "note_on_time": 8.229, "note_off_time": 8.572}, {"pitch": 42, "velocity": 80, "note_on_time": 8.229, "note_off_time": 8.572}, {"pitch": 62, "velocity": 80, "note_on_time": 8.572, "note_off_time": 8.917}, {"pitch": 42, "velocity": 80, "note_on_time": 8.572, "note_off_time": 8.917}, {"pitch": 64, "velocity": 80, "note_on_time": 8.917, "note_off_time": 9.259}, {"pitch": 42, "velocity": 80, "note_on_time": 8.917, "note_off_time": 9.259}, {"pitch": 67, "velocity": 80, "note_on_time": 9.259, "note_off_time": 9.603}, {"pitch": 42, "velocity": 80, "note_on_time": 9.259, "note_off_time": 9.603}, {"pitch": 42, "velocity": 80, "note_on_time": 9.604, "note_off_time": 9.944}, {"pitch": 64, "velocity": 80, "note_on_time": 9.603, "note_off_time": 10.288}, {"pitch": 42, "velocity": 80, "note_on_time": 9.945, "note_off_time": 10.288}, {"pitch": 62, "velocity": 80, "note_on_time": 10.288, "note_off_time": 10.633}, {"pitch": 42, "velocity": 80, "note_on_time": 10.289, "note_off_time": 10.633}, {"pitch": 42, "velocity": 80, "note_on_time": 10.633, "note_off_time": 10.976}, {"pitch": 42, "velocity": 80, "note_on_time": 10.977, "note_off_time": 11.318}, {"pitch": 62, "velocity": 80, "note_on_time": 11.318, "note_off_time": 11.662}, {"pitch": 42, "velocity": 80, "note_on_time": 11.319, "note_off_time": 11.662}, {"pitch": 62, "velocity": 80, "note_on_time": 11.662, "note_off_time": 12.006}, {"pitch": 42, "velocity": 80, "note_on_time": 11.662, "note_off_time": 12.006}, {"pitch": 62, "velocity": 80, "note_on_time": 12.006, "note_off_time": 12.35}, {"pitch": 42, "velocity": 80, "note_on_time": 12.007, "note_off_time": 12.35}]</notes><options name="Option List">((4, 4), [0.5, 0.25], 3, 8, &lt;NoteRangePerHand.C_TO_G: 6&gt;, &lt;NoteRangePerHand.ONE_NOTE: 2&gt;, False, True, False, 182)</options></target_notes><trials><trial trial_no="1" timestamp="2022_12_08-12_10_52"><notes name="Played Notes">[{"pitch": 64, "velocity": 78, "note_on_time": 1.359, "note_off_time": 1.52}, {"pitch": 60, "velocity": 86, "note_on_time": 1.68, "note_off_time": 1.812}, {"pitch": 67, "velocity": 82, "note_on_time": 2.022, "note_off_time": 2.162}, {"pitch": 67, "velocity": 81, "note_on_time": 2.378, "note_off_time": 2.552}, {"pitch": 65, "velocity": 95, "note_on_time": 2.709, "note_off_time": 2.882}, {"pitch": 62, "velocity": 90, "note_on_time": 3.756, "note_off_time": 3.881}, {"pitch": 64, "velocity": 84, "note_on_time": 4.093, "note_off_time": 4.618}, {"pitch": 67, "velocity": 87, "note_on_time": 5.455, "note_off_time": 6.061}, {"pitch": 60, "velocity": 82, "note_on_time": 6.187, "note_off_time": 6.348}, {"pitch": 67, "velocity": 83, "note_on_time": 6.537, "note_off_time": 6.665}, {"pitch": 60, "velocity": 76, "note_on_time": 6.892, "note_off_time": 7.456}, {"pitch": 67, "velocity": 84, "note_on_time": 7.568, "note_off_time": 8.08}, {"pitch": 60, "velocity": 82, "note_on_time": 8.224, "note_off_time": 8.409}, {"pitch": 62, "velocity": 78, "note_on_time": 8.565, "note_off_time": 8.752}, {"pitch": 64, "velocity": 73, "note_on_time": 8.914, "note_off_time": 9.097}, {"pitch": 67, "velocity": 77, "note_on_time": 9.256, "note_off_time": 9.405}, {"pitch": 64, "velocity": 78, "note_on_time": 9.585, "note_off_time": 10.185}, {"pitch": 62, "velocity": 99, "note_on_time": 10.314, "note_off_time": 10.608}, {"pitch": 62, "velocity": 90, "note_on_time": 11.301, "note_off_time": 11.406}, {"pitch": 62, "velocity": 92, "note_on_time": 11.645, "note_off_time": 11.732}, {"pitch": 62, "velocity": 100, "note_on_time": 11.971, "note_off_time": 12.141}]</notes><guidance name="Guidance Mode">None</guidance><error name="Error value">0.023830555555555293</error></trial><trial trial_no="2" timestamp="2022_12_08-12_11_21"><notes name="Played Notes">[{"pitch": 64, "velocity": 85, "note_on_time": 1.394, "note_off_time": 1.589}, {"pitch": 60, "velocity": 89, "note_on_time": 1.765, "note_off_time": 1.929}, {"pitch": 67, "velocity": 82, "note_on_time": 2.051, "note_off_time": 2.199}, {"pitch": 67, "velocity": 77, "note_on_time": 2.381, "note_off_time": 2.523}, {"pitch": 65, "velocity": 96, "note_on_time": 2.729, "note_off_time": 2.873}, {"pitch": 62, "velocity": 86, "note_on_time": 3.734, "note_off_time": 3.875}, {"pitch": 64, "velocity": 83, "note_on_time": 4.096, "note_off_time": 4.635}, {"pitch": 67, "velocity": 87, "note_on_time": 5.455, "note_off_time": 6.114}, {"pitch": 60, "velocity": 77, "note_on_time": 6.196, "note_off_time": 6.395}, {"pitch": 67, "velocity": 86, "note_on_time": 6.545, "note_off_time": 6.703}, {"pitch": 60, "velocity": 84, "note_on_time": 6.888, "note_off_time": 7.46}, {"pitch": 67, "velocity": 81, "note_on_time": 7.558, "note_off_time": 8.075}, {"pitch": 60, "velocity": 77, "note_on_time": 8.22, "note_off_time": 8.449}, {"pitch": 62, "velocity": 77, "note_on_time": 8.56, "note_off_time": 8.778}, {"pitch": 64, "velocity": 67, "note_on_time": 8.929, "note_off_time": 9.132}, {"pitch": 67, "velocity": 65, "note_on_time": 9.259, "note_off_time": 9.424}, {"pitch": 64, "velocity": 75, "note_on_time": 9.594, "note_off_time": 10.229}, {"pitch": 62, "velocity": 77, "note_on_time": 10.306, "note_off_time": 10.598}, {"pitch": 62, "velocity": 84, "note_on_time": 11.302, "note_off_time": 11.395}, {"pitch": 62, "velocity": 85, "note_on_time": 11.651, "note_off_time": 11.787}, {"pitch": 62, "velocity": 88, "note_on_time": 11.98, "note_off_time": 12.149}]</notes><guidance name="Guidance Mode">None</guidance><error name="Error value">0.02527277777777755</error></trial><trial trial_no="3" timestamp="2022_12_08-12_11_51"><notes name="Played Notes">[{"pitch": 64, "velocity": 85, "note_on_time": 1.33, "note_off_time": 1.523}, {"pitch": 60, "velocity": 80, "note_on_time": 1.652, "note_off_time": 1.815}, {"pitch": 67, "velocity": 83, "note_on_time": 2.026, "note_off_time": 2.192}, {"pitch": 67, "velocity": 81, "note_on_time": 2.39, "note_off_time": 2.571}, {"pitch": 65, "velocity": 97, "note_on_time": 2.749, "note_off_time": 2.985}, {"pitch": 62, "velocity": 85, "note_on_time": 3.735, "note_off_time": 3.895}, {"pitch": 64, "velocity": 84, "note_on_time": 4.095, "note_off_time": 4.588}, {"pitch": 67, "velocity": 93, "note_on_time": 4.887, "note_off_time": 5.402}, {"pitch": 60, "velocity": 79, "note_on_time": 5.554, "note_off_time": 5.761}, {"pitch": 67, "velocity": 83, "note_on_time": 5.902, "note_off_time": 6.073}, {"pitch": 60, "velocity": 88, "note_on_time": 6.239, "note_off_time": 6.774}, {"pitch": 67, "velocity": 81, "note_on_time": 6.877, "note_off_time": 7.347}, {"pitch": 60, "velocity": 83, "note_on_time": 7.541, "note_off_time": 7.725}, {"pitch": 62, "velocity": 71, "note_on_time": 7.882, "note_off_time": 8.074}, {"pitch": 64, "velocity": 70, "note_on_time": 8.251, "note_off_time": 8.434}, {"pitch": 67, "velocity": 71, "note_on_time": 8.585, "note_off_time": 8.765}, {"pitch": 64, "velocity": 83, "note_on_time": 8.935, "note_off_time": 9.559}, {"pitch": 62, "velocity": 83, "note_on_time": 9.652, "note_off_time": 9.946}, {"pitch": 62, "velocity": 87, "note_on_time": 10.639, "note_off_time": 10.745}, {"pitch": 62, "velocity": 81, "note_on_time": 10.971, "note_off_time": 11.117}, {"pitch": 62, "velocity": 89, "note_on_time": 11.306, "note_off_time": 11.458}]</notes><guidance name="Guidance Mode">None</guidance><error name="Error value">0.0487583333333333</error></trial></trials></MIDI>