<MIDI midiNo="2022_11_03-10_27_25"><target_notes><notes name="Note List">[{"pitch": 42, "velocity": 80, "note_on_time": 0.004, "note_off_time": 0.321}, {"pitch": 42, "velocity": 80, "note_on_time": 0.322, "note_off_time": 0.632}, {"pitch": 42, "velocity": 80, "note_on_time": 0.633, "note_off_time": 0.942}, {"pitch": 42, "velocity": 80, "note_on_time": 0.943, "note_off_time": 1.258}, {"pitch": 65, "velocity": 80, "note_on_time": 1.258, "note_off_time": 1.566}, {"pitch": 42, "velocity": 80, "note_on_time": 1.258, "note_off_time": 1.566}, {"pitch": 62, "velocity": 80, "note_on_time": 1.566, "note_off_time": 1.878}, {"pitch": 42, "velocity": 80, "note_on_time": 1.566, "note_off_time": 1.878}, {"pitch": 67, "velocity": 80, "note_on_time": 1.878, "note_off_time": 2.189}, {"pitch": 42, "velocity": 80, "note_on_time": 1.878, "note_off_time": 2.189}, {"pitch": 64, "velocity": 80, "note_on_time": 2.189, "note_off_time": 2.5}, {"pitch": 42, "velocity": 80, "note_on_time": 2.189, "note_off_time": 2.5}, {"pitch": 60, "velocity": 80, "note_on_time": 2.5, "note_off_time": 2.813}, {"pitch": 42, "velocity": 80, "note_on_time": 2.5, "note_off_time": 2.813}, {"pitch": 67, "velocity": 80, "note_on_time": 2.813, "note_off_time": 3.123}, {"pitch": 42, "velocity": 80, "note_on_time": 2.813, "note_off_time": 3.124}, {"pitch": 67, "velocity": 80, "note_on_time": 3.123, "note_off_time": 3.435}, {"pitch": 42, "velocity": 80, "note_on_time": 3.124, "note_off_time": 3.435}, {"pitch": 64, "velocity": 80, "note_on_time": 3.435, "note_off_time": 3.746}, {"pitch": 42, "velocity": 80, "note_on_time": 3.435, "note_off_time": 3.746}, {"pitch": 64, "velocity": 80, "note_on_time": 3.746, "note_off_time": 4.058}, {"pitch": 42, "velocity": 80, "note_on_time": 3.746, "note_off_time": 4.058}, {"pitch": 42, "velocity": 80, "note_on_time": 4.058, "note_off_time": 4.37}, {"pitch": 60, "velocity": 80, "note_on_time": 4.058, "note_off_time": 4.681}, {"pitch": 42, "velocity": 80, "note_on_time": 4.37, "note_off_time": 4.682}, {"pitch": 42, "velocity": 80, "note_on_time": 4.682, "note_off_time": 4.995}, {"pitch": 64, "velocity": 80, "note_on_time": 4.995, "note_off_time": 5.309}, {"pitch": 42, "velocity": 80, "note_on_time": 4.995, "note_off_time": 5.31}, {"pitch": 65, "velocity": 80, "note_on_time": 5.309, "note_off_time": 5.618}, {"pitch": 42, "velocity": 80, "note_on_time": 5.31, "note_off_time": 5.619}, {"pitch": 65, "velocity": 80, "note_on_time": 5.618, "note_off_time": 5.931}, {"pitch": 42, "velocity": 80, "note_on_time": 5.619, "note_off_time": 5.932}, {"pitch": 60, "velocity": 80, "note_on_time": 5.931, "note_off_time": 6.242}, {"pitch": 42, "velocity": 80, "note_on_time": 5.932, "note_off_time": 6.242}, {"pitch": 42, "velocity": 80, "note_on_time": 6.242, "note_off_time": 6.553}, {"pitch": 64, "velocity": 80, "note_on_time": 6.242, "note_off_time": 6.864}, {"pitch": 42, "velocity": 80, "note_on_time": 6.553, "note_off_time": 6.864}, {"pitch": 42, "velocity": 80, "note_on_time": 6.864, "note_off_time": 7.179}, {"pitch": 67, "velocity": 80, "note_on_time": 6.864, "note_off_time": 7.491}, {"pitch": 42, "velocity": 80, "note_on_time": 7.179, "note_off_time": 7.491}, {"pitch": 65, "velocity": 80, "note_on_time": 7.491, "note_off_time": 7.801}, {"pitch": 42, "velocity": 80, "note_on_time": 7.491, "note_off_time": 7.801}, {"pitch": 64, "velocity": 80, "note_on_time": 7.801, "note_off_time": 8.114}, {"pitch": 42, "velocity": 80, "note_on_time": 7.801, "note_off_time": 8.115}, {"pitch": 65, "velocity": 80, "note_on_time": 8.114, "note_off_time": 8.426}, {"pitch": 42, "velocity": 80, "note_on_time": 8.115, "note_off_time": 8.426}, {"pitch": 64, "velocity": 80, "note_on_time": 8.426, "note_off_time": 8.737}, {"pitch": 42, "velocity": 80, "note_on_time": 8.426, "note_off_time": 8.737}, {"pitch": 64, "velocity": 80, "note_on_time": 8.737, "note_off_time": 9.048}, {"pitch": 42, "velocity": 80, "note_on_time": 8.738, "note_off_time": 9.048}, {"pitch": 62, "velocity": 80, "note_on_time": 9.048, "note_off_time": 9.359}, {"pitch": 42, "velocity": 80, "note_on_time": 9.048, "note_off_time": 9.36}, {"pitch": 67, "velocity": 80, "note_on_time": 9.359, "note_off_time": 9.67}, {"pitch": 42, "velocity": 80, "note_on_time": 9.36, "note_off_time": 9.671}, {"pitch": 67, "velocity": 80, "note_on_time": 9.67, "note_off_time": 9.981}, {"pitch": 42, "velocity": 80, "note_on_time": 9.671, "note_off_time": 9.981}, {"pitch": 42, "velocity": 80, "note_on_time": 9.981, "note_off_time": 10.293}, {"pitch": 67, "velocity": 80, "note_on_time": 10.293, "note_off_time": 10.607}, {"pitch": 42, "velocity": 80, "note_on_time": 10.294, "note_off_time": 10.607}, {"pitch": 67, "velocity": 80, "note_on_time": 10.607, "note_off_time": 10.916}, {"pitch": 42, "velocity": 80, "note_on_time": 10.607, "note_off_time": 10.916}, {"pitch": 67, "velocity": 80, "note_on_time": 10.916, "note_off_time": 11.226}, {"pitch": 42, "velocity": 80, "note_on_time": 10.917, "note_off_time": 11.226}]</notes><options name="Option List">((4, 4), [0.5, 0.25], 3, 8, &lt;NoteRangePerHand.C_TO_G: 6&gt;, &lt;NoteRangePerHand.ONE_NOTE: 2&gt;, False, True, False, '197')</options></target_notes><trials><trial trial_no="1" timestamp="2022_11_03-10_27_12"><notes name="Played Notes">[{"pitch": 65, "velocity": 79, "note_on_time": 1.26, "note_off_time": 1.57}, {"pitch": 62, "velocity": 76, "note_on_time": 1.569, "note_off_time": 1.881}, {"pitch": 67, "velocity": 70, "note_on_time": 1.859, "note_off_time": 2.236}, {"pitch": 64, "velocity": 74, "note_on_time": 2.19, "note_off_time": 2.492}, {"pitch": 60, "velocity": 70, "note_on_time": 2.501, "note_off_time": 2.713}, {"pitch": 67, "velocity": 67, "note_on_time": 2.809, "note_off_time": 2.922}, {"pitch": 67, "velocity": 75, "note_on_time": 3.098, "note_off_time": 3.433}, {"pitch": 64, "velocity": 73, "note_on_time": 3.397, "note_off_time": 3.5}, {"pitch": 64, "velocity": 79, "note_on_time": 3.704, "note_off_time": 3.999}, {"pitch": 60, "velocity": 78, "note_on_time": 4.005, "note_off_time": 4.98}, {"pitch": 62, "velocity": 73, "note_on_time": 4.98, "note_off_time": 5.242}, {"pitch": 65, "velocity": 80, "note_on_time": 5.259, "note_off_time": 5.362}, {"pitch": 65, "velocity": 72, "note_on_time": 5.557, "note_off_time": 5.885}, {"pitch": 60, "velocity": 69, "note_on_time": 5.893, "note_off_time": 6.237}, {"pitch": 64, "velocity": 78, "note_on_time": 6.201, "note_off_time": 6.81}, {"pitch": 67, "velocity": 79, "note_on_time": 6.809, "note_off_time": 7.494}, {"pitch": 65, "velocity": 77, "note_on_time": 7.432, "note_off_time": 7.729}, {"pitch": 64, "velocity": 78, "note_on_time": 7.731, "note_off_time": 8.024}, {"pitch": 65, "velocity": 80, "note_on_time": 8.012, "note_off_time": 8.408}, {"pitch": 64, "velocity": 66, "note_on_time": 8.344, "note_off_time": 8.497}, {"pitch": 64, "velocity": 79, "note_on_time": 8.685, "note_off_time": 9.034}, {"pitch": 62, "velocity": 58, "note_on_time": 9.012, "note_off_time": 9.313}, {"pitch": 67, "velocity": 81, "note_on_time": 9.318, "note_off_time": 9.437}, {"pitch": 67, "velocity": 80, "note_on_time": 9.617, "note_off_time": 9.945}, {"pitch": 67, "velocity": 68, "note_on_time": 10.223, "note_off_time": 10.358}, {"pitch": 67, "velocity": 73, "note_on_time": 10.529, "note_off_time": 10.67}, {"pitch": 67, "velocity": 83, "note_on_time": 10.829, "note_off_time": 11.145}]</notes><guidance name="Guidance Mode">None</guidance><error name="Error value">0.05655399999999986</error></trial><trial trial_no="2" timestamp="2022_11_03-10_27_58"><notes name="Played Notes">[{"pitch": 65, "velocity": 77, "note_on_time": 0.326, "note_off_time": 0.534}, {"pitch": 65, "velocity": 72, "note_on_time": 1.262, "note_off_time": 1.539}, {"pitch": 62, "velocity": 68, "note_on_time": 1.549, "note_off_time": 1.857}, {"pitch": 67, "velocity": 73, "note_on_time": 1.849, "note_off_time": 2.208}, {"pitch": 64, "velocity": 67, "note_on_time": 2.157, "note_off_time": 2.499}, {"pitch": 60, "velocity": 72, "note_on_time": 2.493, "note_off_time": 2.788}, {"pitch": 67, "velocity": 78, "note_on_time": 2.775, "note_off_time": 2.887}, {"pitch": 67, "velocity": 79, "note_on_time": 3.067, "note_off_time": 3.452}, {"pitch": 64, "velocity": 59, "note_on_time": 3.398, "note_off_time": 3.513}, {"pitch": 64, "velocity": 74, "note_on_time": 3.713, "note_off_time": 4.004}, {"pitch": 60, "velocity": 77, "note_on_time": 4.021, "note_off_time": 4.987}, {"pitch": 62, "velocity": 70, "note_on_time": 4.981, "note_off_time": 5.277}, {"pitch": 65, "velocity": 73, "note_on_time": 5.281, "note_off_time": 5.399}, {"pitch": 65, "velocity": 74, "note_on_time": 5.565, "note_off_time": 5.874}, {"pitch": 60, "velocity": 70, "note_on_time": 5.891, "note_off_time": 6.243}, {"pitch": 64, "velocity": 74, "note_on_time": 6.21, "note_off_time": 6.862}, {"pitch": 67, "velocity": 81, "note_on_time": 6.876, "note_off_time": 7.537}, {"pitch": 65, "velocity": 72, "note_on_time": 7.476, "note_off_time": 7.769}, {"pitch": 64, "velocity": 64, "note_on_time": 7.753, "note_off_time": 8.066}, {"pitch": 65, "velocity": 74, "note_on_time": 8.07, "note_off_time": 8.437}, {"pitch": 64, "velocity": 69, "note_on_time": 8.378, "note_off_time": 8.496}, {"pitch": 64, "velocity": 73, "note_on_time": 8.7, "note_off_time": 9.022}, {"pitch": 62, "velocity": 68, "note_on_time": 9.022, "note_off_time": 9.325}, {"pitch": 67, "velocity": 73, "note_on_time": 9.332, "note_off_time": 9.461}, {"pitch": 67, "velocity": 76, "note_on_time": 9.638, "note_off_time": 9.878}, {"pitch": 67, "velocity": 75, "note_on_time": 10.25, "note_off_time": 10.361}, {"pitch": 67, "velocity": 81, "note_on_time": 10.551, "note_off_time": 10.687}, {"pitch": 67, "velocity": 74, "note_on_time": 10.864, "note_off_time": 11.156}]</notes><guidance name="Guidance Mode">None</guidance><error name="Error value">0.3082396666666667</error></trial><trial trial_no="3" timestamp="2022_11_03-10_28_21"><notes name="Played Notes">[{"pitch": 65, "velocity": 82, "note_on_time": 1.234, "note_off_time": 1.544}, {"pitch": 62, "velocity": 71, "note_on_time": 1.552, "note_off_time": 1.846}, {"pitch": 67, "velocity": 74, "note_on_time": 1.84, "note_off_time": 2.197}, {"pitch": 64, "velocity": 67, "note_on_time": 2.149, "note_off_time": 2.449}, {"pitch": 60, "velocity": 74, "note_on_time": 2.455, "note_off_time": 2.804}, {"pitch": 67, "velocity": 76, "note_on_time": 2.781, "note_off_time": 2.892}, {"pitch": 67, "velocity": 65, "note_on_time": 3.08, "note_off_time": 3.46}, {"pitch": 64, "velocity": 70, "note_on_time": 3.419, "note_off_time": 3.532}, {"pitch": 64, "velocity": 85, "note_on_time": 3.731, "note_off_time": 4.038}, {"pitch": 60, "velocity": 78, "note_on_time": 4.053, "note_off_time": 4.971}, {"pitch": 62, "velocity": 77, "note_on_time": 4.967, "note_off_time": 5.258}, {"pitch": 65, "velocity": 73, "note_on_time": 5.267, "note_off_time": 5.384}, {"pitch": 65, "velocity": 81, "note_on_time": 5.547, "note_off_time": 5.89}, {"pitch": 60, "velocity": 63, "note_on_time": 5.902, "note_off_time": 6.259}, {"pitch": 64, "velocity": 74, "note_on_time": 6.217, "note_off_time": 6.84}, {"pitch": 67, "velocity": 78, "note_on_time": 6.853, "note_off_time": 7.506}, {"pitch": 65, "velocity": 70, "note_on_time": 7.453, "note_off_time": 7.746}, {"pitch": 64, "velocity": 64, "note_on_time": 7.757, "note_off_time": 8.094}, {"pitch": 65, "velocity": 73, "note_on_time": 8.07, "note_off_time": 8.414}, {"pitch": 64, "velocity": 75, "note_on_time": 8.386, "note_off_time": 8.497}, {"pitch": 64, "velocity": 75, "note_on_time": 8.682, "note_off_time": 9.0}, {"pitch": 62, "velocity": 67, "note_on_time": 8.988, "note_off_time": 9.31}, {"pitch": 67, "velocity": 76, "note_on_time": 9.303, "note_off_time": 9.441}, {"pitch": 67, "velocity": 81, "note_on_time": 9.597, "note_off_time": 9.926}, {"pitch": 67, "velocity": 81, "note_on_time": 10.214, "note_off_time": 10.332}, {"pitch": 67, "velocity": 81, "note_on_time": 10.514, "note_off_time": 10.665}]</notes><guidance name="Guidance Mode">None</guidance><error name="Error value">0.10903700000000005</error></trial><trial trial_no="4" timestamp="2022_11_03-10_28_44"><notes name="Played Notes">[{"pitch": 65, "velocity": 78, "note_on_time": 1.249, "note_off_time": 1.537}, {"pitch": 62, "velocity": 65, "note_on_time": 1.555, "note_off_time": 1.861}, {"pitch": 67, "velocity": 69, "note_on_time": 1.851, "note_off_time": 2.224}, {"pitch": 64, "velocity": 62, "note_on_time": 2.158, "note_off_time": 2.479}, {"pitch": 60, "velocity": 75, "note_on_time": 2.494, "note_off_time": 2.799}, {"pitch": 67, "velocity": 73, "note_on_time": 2.783, "note_off_time": 2.91}, {"pitch": 67, "velocity": 66, "note_on_time": 3.088, "note_off_time": 3.442}, {"pitch": 64, "velocity": 65, "note_on_time": 3.39, "note_off_time": 3.507}, {"pitch": 64, "velocity": 71, "note_on_time": 3.713, "note_off_time": 3.982}, {"pitch": 60, "velocity": 68, "note_on_time": 4.006, "note_off_time": 4.946}, {"pitch": 62, "velocity": 66, "note_on_time": 4.977, "note_off_time": 5.274}, {"pitch": 65, "velocity": 74, "note_on_time": 5.277, "note_off_time": 5.376}, {"pitch": 65, "velocity": 73, "note_on_time": 5.549, "note_off_time": 5.881}, {"pitch": 60, "velocity": 64, "note_on_time": 5.9, "note_off_time": 6.252}, {"pitch": 64, "velocity": 68, "note_on_time": 6.215, "note_off_time": 6.84}, {"pitch": 67, "velocity": 74, "note_on_time": 6.849, "note_off_time": 7.485}, {"pitch": 65, "velocity": 75, "note_on_time": 7.462, "note_off_time": 7.769}, {"pitch": 64, "velocity": 65, "note_on_time": 7.766, "note_off_time": 8.059}, {"pitch": 65, "velocity": 72, "note_on_time": 8.058, "note_off_time": 8.447}, {"pitch": 64, "velocity": 70, "note_on_time": 8.39, "note_off_time": 8.513}, {"pitch": 64, "velocity": 70, "note_on_time": 8.698, "note_off_time": 9.018}, {"pitch": 62, "velocity": 60, "note_on_time": 9.011, "note_off_time": 9.327}, {"pitch": 67, "velocity": 72, "note_on_time": 9.324, "note_off_time": 9.438}, {"pitch": 67, "velocity": 74, "note_on_time": 9.61, "note_off_time": 9.936}, {"pitch": 67, "velocity": 76, "note_on_time": 10.21, "note_off_time": 10.348}, {"pitch": 67, "velocity": 82, "note_on_time": 10.516, "note_off_time": 10.667}]</notes><guidance name="Guidance Mode">None</guidance><error name="Error value">0.11112599999999985</error></trial><trial trial_no="5" timestamp="2022_11_03-10_27_34"><notes name="Played Notes">[{"pitch": 65, "velocity": 83, "note_on_time": 1.264, "note_off_time": 1.564}, {"pitch": 62, "velocity": 70, "note_on_time": 1.569, "note_off_time": 1.886}, {"pitch": 67, "velocity": 70, "note_on_time": 1.873, "note_off_time": 2.236}, {"pitch": 64, "velocity": 72, "note_on_time": 2.166, "note_off_time": 2.485}, {"pitch": 60, "velocity": 77, "note_on_time": 2.48, "note_off_time": 2.807}, {"pitch": 67, "velocity": 74, "note_on_time": 2.783, "note_off_time": 2.893}, {"pitch": 67, "velocity": 77, "note_on_time": 3.073, "note_off_time": 3.44}, {"pitch": 64, "velocity": 68, "note_on_time": 3.384, "note_off_time": 3.505}, {"pitch": 64, "velocity": 80, "note_on_time": 3.717, "note_off_time": 3.984}, {"pitch": 60, "velocity": 77, "note_on_time": 4.024, "note_off_time": 5.023}, {"pitch": 62, "velocity": 74, "note_on_time": 5.012, "note_off_time": 5.293}, {"pitch": 65, "velocity": 77, "note_on_time": 5.303, "note_off_time": 5.399}, {"pitch": 65, "velocity": 78, "note_on_time": 5.568, "note_off_time": 5.889}, {"pitch": 60, "velocity": 71, "note_on_time": 5.907, "note_off_time": 6.239}, {"pitch": 64, "velocity": 72, "note_on_time": 6.197, "note_off_time": 6.826}, {"pitch": 67, "velocity": 76, "note_on_time": 6.825, "note_off_time": 7.493}, {"pitch": 65, "velocity": 77, "note_on_time": 7.443, "note_off_time": 7.741}, {"pitch": 64, "velocity": 76, "note_on_time": 7.74, "note_off_time": 8.067}, {"pitch": 65, "velocity": 74, "note_on_time": 8.065, "note_off_time": 8.439}, {"pitch": 64, "velocity": 65, "note_on_time": 8.392, "note_off_time": 8.52}, {"pitch": 64, "velocity": 77, "note_on_time": 8.717, "note_off_time": 9.059}, {"pitch": 62, "velocity": 62, "note_on_time": 9.028, "note_off_time": 9.335}, {"pitch": 67, "velocity": 77, "note_on_time": 9.334, "note_off_time": 9.459}, {"pitch": 67, "velocity": 78, "note_on_time": 9.638, "note_off_time": 9.961}, {"pitch": 67, "velocity": 78, "note_on_time": 10.229, "note_off_time": 10.369}, {"pitch": 67, "velocity": 80, "note_on_time": 10.536, "note_off_time": 10.699}]</notes><guidance name="Guidance Mode">None</guidance><error name="Error value">0.11183433333333323</error></trial></trials></MIDI>