<MIDI midiNo="2022_12_08-11_50_47"><target_notes><notes name="Note List">[{"pitch": 42, "velocity": 80, "note_on_time": 0.004, "note_off_time": 0.34}, {"pitch": 42, "velocity": 80, "note_on_time": 0.34, "note_off_time": 0.682}, {"pitch": 42, "velocity": 80, "note_on_time": 0.682, "note_off_time": 1.026}, {"pitch": 42, "velocity": 80, "note_on_time": 1.027, "note_off_time": 1.37}, {"pitch": 42, "velocity": 80, "note_on_time": 1.37, "note_off_time": 1.716}, {"pitch": 67, "velocity": 80, "note_on_time": 1.37, "note_off_time": 2.058}, {"pitch": 42, "velocity": 80, "note_on_time": 1.716, "note_off_time": 2.058}, {"pitch": 42, "velocity": 80, "note_on_time": 2.058, "note_off_time": 2.401}, {"pitch": 65, "velocity": 80, "note_on_time": 2.058, "note_off_time": 2.742}, {"pitch": 42, "velocity": 80, "note_on_time": 2.402, "note_off_time": 2.743}, {"pitch": 62, "velocity": 80, "note_on_time": 2.742, "note_off_time": 3.085}, {"pitch": 42, "velocity": 80, "note_on_time": 2.743, "note_off_time": 3.085}, {"pitch": 65, "velocity": 80, "note_on_time": 3.085, "note_off_time": 3.428}, {"pitch": 42, "velocity": 80, "note_on_time": 3.086, "note_off_time": 3.429}, {"pitch": 64, "velocity": 80, "note_on_time": 3.428, "note_off_time": 3.77}, {"pitch": 42, "velocity": 80, "note_on_time": 3.429, "note_off_time": 3.77}, {"pitch": 64, "velocity": 80, "note_on_time": 3.77, "note_off_time": 4.113}, {"pitch": 42, "velocity": 80, "note_on_time": 3.771, "note_off_time": 4.114}, {"pitch": 60, "velocity": 80, "note_on_time": 4.113, "note_off_time": 4.457}, {"pitch": 42, "velocity": 80, "note_on_time": 4.114, "note_off_time": 4.457}, {"pitch": 65, "velocity": 80, "note_on_time": 4.457, "note_off_time": 4.8}, {"pitch": 42, "velocity": 80, "note_on_time": 4.457, "note_off_time": 4.8}, {"pitch": 62, "velocity": 80, "note_on_time": 4.8, "note_off_time": 5.142}, {"pitch": 42, "velocity": 80, "note_on_time": 4.8, "note_off_time": 5.142}, {"pitch": 64, "velocity": 80, "note_on_time": 5.142, "note_off_time": 5.484}, {"pitch": 42, "velocity": 80, "note_on_time": 5.142, "note_off_time": 5.484}, {"pitch": 65, "velocity": 80, "note_on_time": 5.484, "note_off_time": 5.827}, {"pitch": 42, "velocity": 80, "note_on_time": 5.485, "note_off_time": 5.827}, {"pitch": 65, "velocity": 80, "note_on_time": 5.827, "note_off_time": 6.171}, {"pitch": 42, "velocity": 80, "note_on_time": 5.828, "note_off_time": 6.171}, {"pitch": 64, "velocity": 80, "note_on_time": 6.171, "note_off_time": 6.515}, {"pitch": 42, "velocity": 80, "note_on_time": 6.172, "note_off_time": 6.516}, {"pitch": 67, "velocity": 80, "note_on_time": 6.515, "note_off_time": 6.857}, {"pitch": 42, "velocity": 80, "note_on_time": 6.516, "note_off_time": 6.857}, {"pitch": 60, "velocity": 80, "note_on_time": 6.857, "note_off_time": 7.198}, {"pitch": 42, "velocity": 80, "note_on_time": 6.857, "note_off_time": 7.199}, {"pitch": 42, "velocity": 80, "note_on_time": 7.199, "note_off_time": 7.542}, {"pitch": 65, "velocity": 80, "note_on_time": 7.542, "note_off_time": 7.887}, {"pitch": 42, "velocity": 80, "note_on_time": 7.542, "note_off_time": 7.887}, {"pitch": 65, "velocity": 80, "note_on_time": 7.887, "note_off_time": 8.23}, {"pitch": 42, "velocity": 80, "note_on_time": 7.887, "note_off_time": 8.23}, {"pitch": 62, "velocity": 80, "note_on_time": 8.23, "note_off_time": 8.573}, {"pitch": 42, "velocity": 80, "note_on_time": 8.23, "note_off_time": 8.573}, {"pitch": 67, "velocity": 80, "note_on_time": 8.573, "note_off_time": 8.916}, {"pitch": 42, "velocity": 80, "note_on_time": 8.574, "note_off_time": 8.916}, {"pitch": 42, "velocity": 80, "note_on_time": 8.917, "note_off_time": 9.26}, {"pitch": 67, "velocity": 80, "note_on_time": 8.916, "note_off_time": 9.604}, {"pitch": 42, "velocity": 80, "note_on_time": 9.261, "note_off_time": 9.604}, {"pitch": 42, "velocity": 80, "note_on_time": 9.604, "note_off_time": 9.948}, {"pitch": 64, "velocity": 80, "note_on_time": 9.604, "note_off_time": 10.287}, {"pitch": 42, "velocity": 80, "note_on_time": 9.948, "note_off_time": 10.288}, {"pitch": 64, "velocity": 80, "note_on_time": 10.287, "note_off_time": 10.631}, {"pitch": 42, "velocity": 80, "note_on_time": 10.288, "note_off_time": 10.632}, {"pitch": 64, "velocity": 80, "note_on_time": 10.631, "note_off_time": 10.974}, {"pitch": 42, "velocity": 80, "note_on_time": 10.632, "note_off_time": 10.975}, {"pitch": 42, "velocity": 80, "note_on_time": 10.975, "note_off_time": 11.319}, {"pitch": 64, "velocity": 80, "note_on_time": 11.319, "note_off_time": 11.661}, {"pitch": 42, "velocity": 80, "note_on_time": 11.32, "note_off_time": 11.662}, {"pitch": 64, "velocity": 80, "note_on_time": 11.661, "note_off_time": 12.005}, {"pitch": 42, "velocity": 80, "note_on_time": 11.662, "note_off_time": 12.005}, {"pitch": 64, "velocity": 80, "note_on_time": 12.005, "note_off_time": 12.348}, {"pitch": 42, "velocity": 80, "note_on_time": 12.005, "note_off_time": 12.348}]</notes><options name="Option List">((4, 4), [0.5, 0.25], 3, 8, &lt;NoteRangePerHand.C_TO_G: 6&gt;, &lt;NoteRangePerHand.ONE_NOTE: 2&gt;, False, True, False, 182)</options></target_notes><trials><trial trial_no="1" timestamp="2022_12_08-11_50_33"><notes name="Played Notes">[{"pitch": 67, "velocity": 81, "note_on_time": 1.335, "note_off_time": 1.987}, {"pitch": 65, "velocity": 84, "note_on_time": 2.087, "note_off_time": 2.682}, {"pitch": 62, "velocity": 82, "note_on_time": 2.752, "note_off_time": 3.071}, {"pitch": 65, "velocity": 86, "note_on_time": 3.114, "note_off_time": 3.37}, {"pitch": 64, "velocity": 89, "note_on_time": 3.478, "note_off_time": 3.591}, {"pitch": 64, "velocity": 76, "note_on_time": 3.809, "note_off_time": 4.084}, {"pitch": 60, "velocity": 77, "note_on_time": 4.17, "note_off_time": 4.349}, {"pitch": 65, "velocity": 77, "note_on_time": 4.468, "note_off_time": 4.659}, {"pitch": 62, "velocity": 80, "note_on_time": 4.811, "note_off_time": 4.98}, {"pitch": 64, "velocity": 84, "note_on_time": 5.139, "note_off_time": 5.32}, {"pitch": 65, "velocity": 91, "note_on_time": 5.479, "note_off_time": 5.621}, {"pitch": 65, "velocity": 74, "note_on_time": 5.818, "note_off_time": 5.985}, {"pitch": 64, "velocity": 82, "note_on_time": 6.167, "note_off_time": 6.304}, {"pitch": 67, "velocity": 82, "note_on_time": 6.505, "note_off_time": 6.664}, {"pitch": 60, "velocity": 94, "note_on_time": 6.854, "note_off_time": 7.099}, {"pitch": 65, "velocity": 90, "note_on_time": 7.531, "note_off_time": 7.677}, {"pitch": 65, "velocity": 79, "note_on_time": 7.864, "note_off_time": 8.039}, {"pitch": 62, "velocity": 83, "note_on_time": 8.226, "note_off_time": 8.393}, {"pitch": 67, "velocity": 82, "note_on_time": 8.554, "note_off_time": 8.724}, {"pitch": 67, "velocity": 84, "note_on_time": 8.918, "note_off_time": 9.443}, {"pitch": 64, "velocity": 88, "note_on_time": 9.584, "note_off_time": 10.148}, {"pitch": 64, "velocity": 88, "note_on_time": 10.314, "note_off_time": 10.456}, {"pitch": 64, "velocity": 94, "note_on_time": 10.667, "note_off_time": 10.805}, {"pitch": 64, "velocity": 83, "note_on_time": 11.314, "note_off_time": 11.422}, {"pitch": 64, "velocity": 90, "note_on_time": 11.642, "note_off_time": 11.747}, {"pitch": 64, "velocity": 92, "note_on_time": 11.985, "note_off_time": 12.269}]</notes><guidance name="Guidance Mode">None</guidance><error name="Error value">0.02296826086956515</error></trial></trials></MIDI>