<MIDI midiNo="2022_12_08-10_55_30"><target_notes><notes name="Note List">[{"pitch": 42, "velocity": 80, "note_on_time": 0.005, "note_off_time": 0.253}, {"pitch": 42, "velocity": 80, "note_on_time": 0.253, "note_off_time": 0.501}, {"pitch": 42, "velocity": 80, "note_on_time": 0.501, "note_off_time": 0.752}, {"pitch": 42, "velocity": 80, "note_on_time": 0.752, "note_off_time": 1.003}, {"pitch": 42, "velocity": 80, "note_on_time": 1.003, "note_off_time": 1.254}, {"pitch": 62, "velocity": 80, "note_on_time": 1.002, "note_off_time": 1.503}, {"pitch": 42, "velocity": 80, "note_on_time": 1.254, "note_off_time": 1.503}, {"pitch": 42, "velocity": 80, "note_on_time": 1.503, "note_off_time": 1.753}, {"pitch": 42, "velocity": 80, "note_on_time": 1.753, "note_off_time": 2.002}, {"pitch": 62, "velocity": 80, "note_on_time": 2.002, "note_off_time": 2.251}, {"pitch": 42, "velocity": 80, "note_on_time": 2.003, "note_off_time": 2.252}, {"pitch": 62, "velocity": 80, "note_on_time": 2.251, "note_off_time": 2.501}, {"pitch": 42, "velocity": 80, "note_on_time": 2.252, "note_off_time": 2.502}, {"pitch": 42, "velocity": 80, "note_on_time": 2.502, "note_off_time": 2.751}, {"pitch": 62, "velocity": 80, "note_on_time": 2.501, "note_off_time": 2.998}, {"pitch": 42, "velocity": 80, "note_on_time": 2.751, "note_off_time": 2.999}, {"pitch": 42, "velocity": 80, "note_on_time": 2.999, "note_off_time": 3.248}, {"pitch": 64, "velocity": 80, "note_on_time": 2.998, "note_off_time": 3.496}, {"pitch": 42, "velocity": 80, "note_on_time": 3.248, "note_off_time": 3.496}, {"pitch": 42, "velocity": 80, "note_on_time": 3.496, "note_off_time": 3.744}, {"pitch": 42, "velocity": 80, "note_on_time": 3.744, "note_off_time": 3.994}, {"pitch": 42, "velocity": 80, "note_on_time": 3.994, "note_off_time": 4.246}, {"pitch": 64, "velocity": 80, "note_on_time": 3.994, "note_off_time": 4.496}, {"pitch": 42, "velocity": 80, "note_on_time": 4.246, "note_off_time": 4.496}, {"pitch": 60, "velocity": 80, "note_on_time": 4.496, "note_off_time": 4.746}, {"pitch": 42, "velocity": 80, "note_on_time": 4.496, "note_off_time": 4.746}, {"pitch": 64, "velocity": 80, "note_on_time": 4.746, "note_off_time": 4.996}, {"pitch": 42, "velocity": 80, "note_on_time": 4.746, "note_off_time": 4.996}, {"pitch": 60, "velocity": 80, "note_on_time": 4.996, "note_off_time": 5.247}, {"pitch": 42, "velocity": 80, "note_on_time": 4.996, "note_off_time": 5.247}, {"pitch": 65, "velocity": 80, "note_on_time": 5.247, "note_off_time": 5.496}, {"pitch": 42, "velocity": 80, "note_on_time": 5.247, "note_off_time": 5.496}, {"pitch": 67, "velocity": 80, "note_on_time": 5.496, "note_off_time": 5.745}, {"pitch": 42, "velocity": 80, "note_on_time": 5.496, "note_off_time": 5.745}, {"pitch": 67, "velocity": 80, "note_on_time": 5.745, "note_off_time": 5.999}, {"pitch": 42, "velocity": 80, "note_on_time": 5.745, "note_off_time": 5.999}, {"pitch": 64, "velocity": 80, "note_on_time": 5.999, "note_off_time": 6.248}, {"pitch": 42, "velocity": 80, "note_on_time": 5.999, "note_off_time": 6.248}, {"pitch": 67, "velocity": 80, "note_on_time": 6.248, "note_off_time": 6.499}, {"pitch": 42, "velocity": 80, "note_on_time": 6.248, "note_off_time": 6.499}, {"pitch": 62, "velocity": 80, "note_on_time": 6.499, "note_off_time": 6.749}, {"pitch": 42, "velocity": 80, "note_on_time": 6.499, "note_off_time": 6.749}, {"pitch": 62, "velocity": 80, "note_on_time": 6.749, "note_off_time": 6.999}, {"pitch": 42, "velocity": 80, "note_on_time": 6.75, "note_off_time": 6.999}, {"pitch": 60, "velocity": 80, "note_on_time": 6.999, "note_off_time": 7.248}, {"pitch": 42, "velocity": 80, "note_on_time": 6.999, "note_off_time": 7.248}, {"pitch": 67, "velocity": 80, "note_on_time": 7.248, "note_off_time": 7.498}, {"pitch": 42, "velocity": 80, "note_on_time": 7.248, "note_off_time": 7.498}, {"pitch": 67, "velocity": 80, "note_on_time": 7.498, "note_off_time": 7.748}, {"pitch": 42, "velocity": 80, "note_on_time": 7.498, "note_off_time": 7.748}, {"pitch": 64, "velocity": 80, "note_on_time": 7.748, "note_off_time": 7.997}, {"pitch": 42, "velocity": 80, "note_on_time": 7.749, "note_off_time": 7.997}, {"pitch": 42, "velocity": 80, "note_on_time": 7.997, "note_off_time": 8.246}, {"pitch": 64, "velocity": 80, "note_on_time": 8.246, "note_off_time": 8.496}, {"pitch": 42, "velocity": 80, "note_on_time": 8.246, "note_off_time": 8.496}, {"pitch": 64, "velocity": 80, "note_on_time": 8.496, "note_off_time": 8.747}, {"pitch": 42, "velocity": 80, "note_on_time": 8.496, "note_off_time": 8.747}, {"pitch": 64, "velocity": 80, "note_on_time": 8.747, "note_off_time": 8.995}, {"pitch": 42, "velocity": 80, "note_on_time": 8.747, "note_off_time": 8.995}]</notes><options name="Option List">((4, 4), [0.5, 0.25], 3, 8, &lt;NoteRangePerHand.C_TO_G: 6&gt;, &lt;NoteRangePerHand.ONE_NOTE: 2&gt;, False, True, False, 248)</options></target_notes><trials><trial trial_no="1" timestamp="2022_12_08-10_55_20"><notes name="Played Notes">[{"pitch": 62, "velocity": 47, "note_on_time": 1.079, "note_off_time": 1.454}, {"pitch": 62, "velocity": 54, "note_on_time": 2.04, "note_off_time": 2.133}, {"pitch": 62, "velocity": 58, "note_on_time": 2.292, "note_off_time": 2.468}, {"pitch": 64, "velocity": 67, "note_on_time": 2.552, "note_off_time": 2.873}, {"pitch": 64, "velocity": 74, "note_on_time": 3.051, "note_off_time": 3.643}, {"pitch": 60, "velocity": 45, "note_on_time": 3.908, "note_off_time": 4.143}, {"pitch": 64, "velocity": 58, "note_on_time": 4.177, "note_off_time": 4.463}, {"pitch": 60, "velocity": 59, "note_on_time": 4.488, "note_off_time": 4.703}, {"pitch": 65, "velocity": 68, "note_on_time": 4.722, "note_off_time": 5.082}, {"pitch": 67, "velocity": 51, "note_on_time": 5.085, "note_off_time": 5.163}, {"pitch": 67, "velocity": 58, "note_on_time": 5.308, "note_off_time": 5.531}, {"pitch": 64, "velocity": 62, "note_on_time": 5.551, "note_off_time": 5.799}, {"pitch": 67, "velocity": 66, "note_on_time": 5.81, "note_off_time": 6.051}, {"pitch": 62, "velocity": 59, "note_on_time": 6.051, "note_off_time": 6.209}, {"pitch": 62, "velocity": 68, "note_on_time": 6.305, "note_off_time": 6.431}, {"pitch": 67, "velocity": 62, "note_on_time": 6.567, "note_off_time": 6.853}, {"pitch": 64, "velocity": 60, "note_on_time": 6.821, "note_off_time": 6.941}, {"pitch": 64, "velocity": 58, "note_on_time": 7.072, "note_off_time": 7.342}, {"pitch": 60, "velocity": 51, "note_on_time": 7.347, "note_off_time": 7.442}, {"pitch": 64, "velocity": 72, "note_on_time": 7.889, "note_off_time": 8.001}, {"pitch": 64, "velocity": 67, "note_on_time": 8.152, "note_off_time": 8.253}, {"pitch": 64, "velocity": 52, "note_on_time": 8.393, "note_off_time": 8.592}]</notes><guidance name="Guidance Mode">None</guidance><error name="Error value">0.34817274999999986</error></trial><trial trial_no="2" timestamp="2022_12_08-10_55_38"><notes name="Played Notes">[{"pitch": 62, "velocity": 60, "note_on_time": 1.036, "note_off_time": 1.572}, {"pitch": 62, "velocity": 55, "note_on_time": 2.033, "note_off_time": 2.165}, {"pitch": 62, "velocity": 57, "note_on_time": 2.273, "note_off_time": 2.381}, {"pitch": 62, "velocity": 57, "note_on_time": 2.55, "note_off_time": 2.938}, {"pitch": 64, "velocity": 82, "note_on_time": 3.05, "note_off_time": 3.575}, {"pitch": 64, "velocity": 66, "note_on_time": 4.017, "note_off_time": 4.428}, {"pitch": 60, "velocity": 66, "note_on_time": 4.514, "note_off_time": 4.714}, {"pitch": 64, "velocity": 64, "note_on_time": 4.738, "note_off_time": 4.998}, {"pitch": 60, "velocity": 60, "note_on_time": 5.021, "note_off_time": 5.23}, {"pitch": 65, "velocity": 60, "note_on_time": 5.25, "note_off_time": 5.493}, {"pitch": 67, "velocity": 72, "note_on_time": 5.49, "note_off_time": 5.621}, {"pitch": 67, "velocity": 55, "note_on_time": 5.733, "note_off_time": 5.993}, {"pitch": 64, "velocity": 68, "note_on_time": 5.986, "note_off_time": 6.21}, {"pitch": 67, "velocity": 64, "note_on_time": 6.231, "note_off_time": 6.462}, {"pitch": 62, "velocity": 52, "note_on_time": 6.471, "note_off_time": 6.582}, {"pitch": 62, "velocity": 47, "note_on_time": 6.738, "note_off_time": 6.958}, {"pitch": 60, "velocity": 57, "note_on_time": 6.98, "note_off_time": 7.172}, {"pitch": 67, "velocity": 64, "note_on_time": 7.21, "note_off_time": 7.33}, {"pitch": 67, "velocity": 55, "note_on_time": 7.481, "note_off_time": 7.748}, {"pitch": 64, "velocity": 67, "note_on_time": 7.737, "note_off_time": 8.044}, {"pitch": 64, "velocity": 66, "note_on_time": 8.282, "note_off_time": 8.393}, {"pitch": 64, "velocity": 60, "note_on_time": 8.513, "note_off_time": 8.617}, {"pitch": 64, "velocity": 63, "note_on_time": 8.759, "note_off_time": 8.907}]</notes><guidance name="Guidance Mode">None</guidance><error name="Error value">0.017179250000000056</error></trial><trial trial_no="3" timestamp="2022_12_08-10_56_01"><notes name="Played Notes">[{"pitch": 62, "velocity": 61, "note_on_time": 1.04, "note_off_time": 1.564}, {"pitch": 62, "velocity": 70, "note_on_time": 2.091, "note_off_time": 2.219}, {"pitch": 62, "velocity": 57, "note_on_time": 2.322, "note_off_time": 2.431}, {"pitch": 62, "velocity": 61, "note_on_time": 2.604, "note_off_time": 3.01}, {"pitch": 64, "velocity": 78, "note_on_time": 3.14, "note_off_time": 3.791}, {"pitch": 64, "velocity": 60, "note_on_time": 4.074, "note_off_time": 4.512}, {"pitch": 60, "velocity": 64, "note_on_time": 4.607, "note_off_time": 4.818}, {"pitch": 64, "velocity": 69, "note_on_time": 4.833, "note_off_time": 5.095}, {"pitch": 60, "velocity": 67, "note_on_time": 5.105, "note_off_time": 5.313}, {"pitch": 65, "velocity": 60, "note_on_time": 5.332, "note_off_time": 5.591}, {"pitch": 67, "velocity": 59, "note_on_time": 5.614, "note_off_time": 5.715}, {"pitch": 67, "velocity": 59, "note_on_time": 5.836, "note_off_time": 6.104}, {"pitch": 64, "velocity": 60, "note_on_time": 6.089, "note_off_time": 6.343}, {"pitch": 67, "velocity": 62, "note_on_time": 6.356, "note_off_time": 6.609}, {"pitch": 62, "velocity": 19, "note_on_time": 6.64, "note_off_time": 6.727}, {"pitch": 62, "velocity": 47, "note_on_time": 6.864, "note_off_time": 7.105}, {"pitch": 60, "velocity": 50, "note_on_time": 7.134, "note_off_time": 7.338}, {"pitch": 67, "velocity": 44, "note_on_time": 7.393, "note_off_time": 7.485}, {"pitch": 67, "velocity": 46, "note_on_time": 7.689, "note_off_time": 7.963}, {"pitch": 64, "velocity": 62, "note_on_time": 7.953, "note_off_time": 8.26}, {"pitch": 64, "velocity": 64, "note_on_time": 8.506, "note_off_time": 8.615}, {"pitch": 64, "velocity": 66, "note_on_time": 8.768, "note_off_time": 8.888}]</notes><guidance name="Guidance Mode">None</guidance><error name="Error value">0.0934792500000002</error></trial></trials></MIDI>