<MIDI midiNo="2022_12_01-12_46_02"><target_notes><notes name="Note List">[{"pitch": 42, "velocity": 80, "note_on_time": 0.004, "note_off_time": 0.46}, {"pitch": 42, "velocity": 80, "note_on_time": 0.46, "note_off_time": 0.913}, {"pitch": 42, "velocity": 80, "note_on_time": 0.913, "note_off_time": 1.378}, {"pitch": 42, "velocity": 80, "note_on_time": 1.378, "note_off_time": 1.844}, {"pitch": 60, "velocity": 80, "note_on_time": 1.843, "note_off_time": 2.309}, {"pitch": 42, "velocity": 80, "note_on_time": 1.844, "note_off_time": 2.309}, {"pitch": 60, "velocity": 80, "note_on_time": 2.309, "note_off_time": 2.762}, {"pitch": 42, "velocity": 80, "note_on_time": 2.309, "note_off_time": 2.762}, {"pitch": 64, "velocity": 80, "note_on_time": 2.762, "note_off_time": 3.227}, {"pitch": 42, "velocity": 80, "note_on_time": 2.763, "note_off_time": 3.227}, {"pitch": 64, "velocity": 80, "note_on_time": 3.227, "note_off_time": 3.692}, {"pitch": 42, "velocity": 80, "note_on_time": 3.227, "note_off_time": 3.693}, {"pitch": 42, "velocity": 80, "note_on_time": 3.693, "note_off_time": 4.158}, {"pitch": 62, "velocity": 80, "note_on_time": 3.692, "note_off_time": 4.625}, {"pitch": 42, "velocity": 80, "note_on_time": 4.158, "note_off_time": 4.626}, {"pitch": 60, "velocity": 80, "note_on_time": 4.625, "note_off_time": 5.091}, {"pitch": 42, "velocity": 80, "note_on_time": 4.626, "note_off_time": 5.092}, {"pitch": 62, "velocity": 80, "note_on_time": 5.091, "note_off_time": 5.556}, {"pitch": 42, "velocity": 80, "note_on_time": 5.092, "note_off_time": 5.556}, {"pitch": 62, "velocity": 80, "note_on_time": 5.556, "note_off_time": 6.023}, {"pitch": 42, "velocity": 80, "note_on_time": 5.557, "note_off_time": 6.023}, {"pitch": 62, "velocity": 80, "note_on_time": 6.023, "note_off_time": 6.491}, {"pitch": 42, "velocity": 80, "note_on_time": 6.024, "note_off_time": 6.492}, {"pitch": 64, "velocity": 80, "note_on_time": 6.491, "note_off_time": 6.959}, {"pitch": 42, "velocity": 80, "note_on_time": 6.492, "note_off_time": 6.959}, {"pitch": 64, "velocity": 80, "note_on_time": 6.959, "note_off_time": 7.426}, {"pitch": 42, "velocity": 80, "note_on_time": 6.96, "note_off_time": 7.426}, {"pitch": 64, "velocity": 80, "note_on_time": 7.426, "note_off_time": 7.879}, {"pitch": 42, "velocity": 80, "note_on_time": 7.426, "note_off_time": 7.879}, {"pitch": 64, "velocity": 80, "note_on_time": 7.879, "note_off_time": 8.346}, {"pitch": 42, "velocity": 80, "note_on_time": 7.879, "note_off_time": 8.346}, {"pitch": 62, "velocity": 80, "note_on_time": 8.346, "note_off_time": 8.812}, {"pitch": 42, "velocity": 80, "note_on_time": 8.347, "note_off_time": 8.812}, {"pitch": 62, "velocity": 80, "note_on_time": 8.812, "note_off_time": 9.277}, {"pitch": 42, "velocity": 80, "note_on_time": 8.813, "note_off_time": 9.277}, {"pitch": 42, "velocity": 80, "note_on_time": 9.277, "note_off_time": 9.73}, {"pitch": 62, "velocity": 80, "note_on_time": 9.277, "note_off_time": 10.195}, {"pitch": 42, "velocity": 80, "note_on_time": 9.73, "note_off_time": 10.196}, {"pitch": 60, "velocity": 80, "note_on_time": 10.195, "note_off_time": 10.663}, {"pitch": 42, "velocity": 80, "note_on_time": 10.196, "note_off_time": 10.663}, {"pitch": 64, "velocity": 80, "note_on_time": 10.663, "note_off_time": 11.117}, {"pitch": 42, "velocity": 80, "note_on_time": 10.664, "note_off_time": 11.117}, {"pitch": 64, "velocity": 80, "note_on_time": 11.117, "note_off_time": 11.583}, {"pitch": 42, "velocity": 80, "note_on_time": 11.118, "note_off_time": 11.583}, {"pitch": 64, "velocity": 80, "note_on_time": 11.583, "note_off_time": 12.05}, {"pitch": 42, "velocity": 80, "note_on_time": 11.583, "note_off_time": 12.05}, {"pitch": 42, "velocity": 80, "note_on_time": 12.051, "note_off_time": 12.517}, {"pitch": 62, "velocity": 80, "note_on_time": 12.05, "note_off_time": 12.984}, {"pitch": 42, "velocity": 80, "note_on_time": 12.518, "note_off_time": 12.985}, {"pitch": 62, "velocity": 80, "note_on_time": 12.984, "note_off_time": 13.45}, {"pitch": 42, "velocity": 80, "note_on_time": 12.985, "note_off_time": 13.451}, {"pitch": 60, "velocity": 80, "note_on_time": 13.45, "note_off_time": 13.919}, {"pitch": 42, "velocity": 80, "note_on_time": 13.451, "note_off_time": 13.919}, {"pitch": 60, "velocity": 80, "note_on_time": 13.919, "note_off_time": 14.372}, {"pitch": 42, "velocity": 80, "note_on_time": 13.919, "note_off_time": 14.373}, {"pitch": 60, "velocity": 80, "note_on_time": 14.372, "note_off_time": 14.838}, {"pitch": 42, "velocity": 80, "note_on_time": 14.373, "note_off_time": 14.839}, {"pitch": 42, "velocity": 80, "note_on_time": 14.839, "note_off_time": 15.305}, {"pitch": 60, "velocity": 80, "note_on_time": 15.305, "note_off_time": 15.758}, {"pitch": 42, "velocity": 80, "note_on_time": 15.305, "note_off_time": 15.758}, {"pitch": 60, "velocity": 80, "note_on_time": 15.758, "note_off_time": 16.224}, {"pitch": 42, "velocity": 80, "note_on_time": 15.759, "note_off_time": 16.224}, {"pitch": 60, "velocity": 80, "note_on_time": 16.224, "note_off_time": 16.691}, {"pitch": 42, "velocity": 80, "note_on_time": 16.225, "note_off_time": 16.692}]</notes><options name="Option List">((4, 4), [0.5, 0.25], 3, 8, &lt;NoteRangePerHand.THREE_NOTES: 4&gt;, &lt;NoteRangePerHand.ONE_NOTE: 2&gt;, False, True, False, '133')</options></target_notes><trials><trial trial_no="1" timestamp="2022_12_01-12_45_44"><notes name="Played Notes">[{"pitch": 60, "velocity": 82, "note_on_time": 1.769, "note_off_time": 1.949}, {"pitch": 60, "velocity": 82, "note_on_time": 2.182, "note_off_time": 2.415}, {"pitch": 64, "velocity": 77, "note_on_time": 2.642, "note_off_time": 2.853}, {"pitch": 64, "velocity": 77, "note_on_time": 3.086, "note_off_time": 3.328}, {"pitch": 62, "velocity": 77, "note_on_time": 3.518, "note_off_time": 4.305}, {"pitch": 60, "velocity": 83, "note_on_time": 4.493, "note_off_time": 4.797}, {"pitch": 62, "velocity": 78, "note_on_time": 4.967, "note_off_time": 5.182}, {"pitch": 62, "velocity": 75, "note_on_time": 5.398, "note_off_time": 5.652}, {"pitch": 62, "velocity": 70, "note_on_time": 5.878, "note_off_time": 6.1}, {"pitch": 64, "velocity": 73, "note_on_time": 6.32, "note_off_time": 6.55}, {"pitch": 64, "velocity": 72, "note_on_time": 6.756, "note_off_time": 6.97}, {"pitch": 64, "velocity": 70, "note_on_time": 7.194, "note_off_time": 7.411}, {"pitch": 64, "velocity": 72, "note_on_time": 7.674, "note_off_time": 7.877}, {"pitch": 62, "velocity": 68, "note_on_time": 8.101, "note_off_time": 8.332}, {"pitch": 62, "velocity": 71, "note_on_time": 8.565, "note_off_time": 8.76}, {"pitch": 62, "velocity": 80, "note_on_time": 9.025, "note_off_time": 9.79}, {"pitch": 60, "velocity": 84, "note_on_time": 10.03, "note_off_time": 10.263}, {"pitch": 64, "velocity": 72, "note_on_time": 10.487, "note_off_time": 10.722}, {"pitch": 64, "velocity": 66, "note_on_time": 10.925, "note_off_time": 11.161}, {"pitch": 64, "velocity": 73, "note_on_time": 11.396, "note_off_time": 11.61}, {"pitch": 62, "velocity": 79, "note_on_time": 11.819, "note_off_time": 12.568}, {"pitch": 62, "velocity": 80, "note_on_time": 12.803, "note_off_time": 13.092}, {"pitch": 60, "velocity": 84, "note_on_time": 13.279, "note_off_time": 13.482}, {"pitch": 60, "velocity": 77, "note_on_time": 13.692, "note_off_time": 13.89}, {"pitch": 60, "velocity": 84, "note_on_time": 14.125, "note_off_time": 14.597}, {"pitch": 60, "velocity": 77, "note_on_time": 15.242, "note_off_time": 15.497}, {"pitch": 60, "velocity": 74, "note_on_time": 15.671, "note_off_time": 15.945}]</notes><guidance name="Guidance Mode">None</guidance><error name="Error value">0.09402476000000007</error></trial><trial trial_no="2" timestamp="2022_12_01-12_46_11"><notes name="Played Notes">[{"pitch": 60, "velocity": 84, "note_on_time": 1.788, "note_off_time": 2.001}, {"pitch": 60, "velocity": 78, "note_on_time": 2.239, "note_off_time": 2.448}, {"pitch": 64, "velocity": 76, "note_on_time": 2.715, "note_off_time": 2.922}, {"pitch": 64, "velocity": 73, "note_on_time": 3.129, "note_off_time": 3.358}, {"pitch": 62, "velocity": 76, "note_on_time": 3.552, "note_off_time": 4.302}, {"pitch": 60, "velocity": 88, "note_on_time": 4.615, "note_off_time": 4.848}, {"pitch": 62, "velocity": 79, "note_on_time": 5.05, "note_off_time": 5.251}, {"pitch": 62, "velocity": 79, "note_on_time": 5.473, "note_off_time": 5.678}, {"pitch": 62, "velocity": 79, "note_on_time": 5.946, "note_off_time": 6.178}, {"pitch": 64, "velocity": 50, "note_on_time": 6.469, "note_off_time": 6.641}, {"pitch": 64, "velocity": 84, "note_on_time": 6.872, "note_off_time": 7.102}, {"pitch": 64, "velocity": 72, "note_on_time": 7.321, "note_off_time": 7.54}, {"pitch": 64, "velocity": 75, "note_on_time": 7.795, "note_off_time": 8.005}, {"pitch": 62, "velocity": 72, "note_on_time": 8.247, "note_off_time": 8.452}, {"pitch": 62, "velocity": 78, "note_on_time": 8.721, "note_off_time": 8.902}, {"pitch": 62, "velocity": 72, "note_on_time": 9.142, "note_off_time": 9.886}, {"pitch": 60, "velocity": 84, "note_on_time": 10.084, "note_off_time": 10.362}, {"pitch": 64, "velocity": 79, "note_on_time": 10.604, "note_off_time": 10.827}, {"pitch": 64, "velocity": 75, "note_on_time": 11.048, "note_off_time": 11.282}, {"pitch": 64, "velocity": 78, "note_on_time": 11.535, "note_off_time": 11.737}, {"pitch": 62, "velocity": 71, "note_on_time": 11.948, "note_off_time": 12.637}, {"pitch": 62, "velocity": 84, "note_on_time": 12.855, "note_off_time": 13.133}, {"pitch": 60, "velocity": 84, "note_on_time": 13.309, "note_off_time": 13.542}, {"pitch": 60, "velocity": 78, "note_on_time": 13.812, "note_off_time": 14.015}, {"pitch": 60, "velocity": 79, "note_on_time": 14.242, "note_off_time": 14.699}, {"pitch": 60, "velocity": 72, "note_on_time": 15.343, "note_off_time": 15.533}, {"pitch": 60, "velocity": 77, "note_on_time": 15.802, "note_off_time": 16.002}]</notes><guidance name="Guidance Mode">None</guidance><error name="Error value">0.08981460000000002</error></trial><trial trial_no="3" timestamp="2022_12_01-12_46_35"><notes name="Played Notes">[{"pitch": 60, "velocity": 72, "note_on_time": 1.836, "note_off_time": 2.025}, {"pitch": 60, "velocity": 83, "note_on_time": 2.267, "note_off_time": 2.487}, {"pitch": 64, "velocity": 74, "note_on_time": 2.684, "note_off_time": 2.903}, {"pitch": 64, "velocity": 78, "note_on_time": 3.133, "note_off_time": 3.324}, {"pitch": 62, "velocity": 77, "note_on_time": 3.535, "note_off_time": 4.465}, {"pitch": 60, "velocity": 90, "note_on_time": 4.845, "note_off_time": 5.11}, {"pitch": 62, "velocity": 76, "note_on_time": 5.279, "note_off_time": 5.464}, {"pitch": 62, "velocity": 73, "note_on_time": 5.718, "note_off_time": 5.936}, {"pitch": 62, "velocity": 77, "note_on_time": 6.164, "note_off_time": 6.382}, {"pitch": 64, "velocity": 73, "note_on_time": 6.677, "note_off_time": 6.902}, {"pitch": 64, "velocity": 72, "note_on_time": 7.129, "note_off_time": 7.329}, {"pitch": 64, "velocity": 56, "note_on_time": 7.567, "note_off_time": 7.738}, {"pitch": 64, "velocity": 72, "note_on_time": 8.045, "note_off_time": 8.259}, {"pitch": 62, "velocity": 72, "note_on_time": 8.496, "note_off_time": 8.702}, {"pitch": 62, "velocity": 74, "note_on_time": 8.933, "note_off_time": 9.142}, {"pitch": 62, "velocity": 74, "note_on_time": 9.376, "note_off_time": 10.427}, {"pitch": 60, "velocity": 75, "note_on_time": 10.622, "note_off_time": 10.848}, {"pitch": 64, "velocity": 75, "note_on_time": 11.044, "note_off_time": 11.27}, {"pitch": 64, "velocity": 71, "note_on_time": 11.502, "note_off_time": 11.678}, {"pitch": 64, "velocity": 78, "note_on_time": 11.954, "note_off_time": 12.13}, {"pitch": 62, "velocity": 73, "note_on_time": 12.369, "note_off_time": 13.298}, {"pitch": 62, "velocity": 80, "note_on_time": 13.576, "note_off_time": 13.757}, {"pitch": 60, "velocity": 75, "note_on_time": 14.058, "note_off_time": 14.227}, {"pitch": 60, "velocity": 74, "note_on_time": 14.473, "note_off_time": 14.651}, {"pitch": 60, "velocity": 82, "note_on_time": 14.915, "note_off_time": 15.38}, {"pitch": 60, "velocity": 70, "note_on_time": 16.043, "note_off_time": 16.259}]</notes><guidance name="Guidance Mode">None</guidance><error name="Error value">0.1749054</error></trial></trials></MIDI>