<MIDI midiNo="2022_04_28-15_19_33"><target_notes><notes name="Note List">[{"pitch": 60, "velocity": 100, "note_on_time": 2.437, "note_off_time": 3.045}, {"pitch": 60, "velocity": 100, "note_on_time": 3.045, "note_off_time": 4.259}, {"pitch": 60, "velocity": 100, "note_on_time": 4.865, "note_off_time": 6.087}, {"pitch": 62, "velocity": 100, "note_on_time": 7.303, "note_off_time": 7.91}, {"pitch": 60, "velocity": 100, "note_on_time": 9.739, "note_off_time": 10.345}, {"pitch": 62, "velocity": 100, "note_on_time": 10.345, "note_off_time": 10.952}, {"pitch": 62, "velocity": 100, "note_on_time": 10.952, "note_off_time": 12.17}, {"pitch": 62, "velocity": 100, "note_on_time": 12.17, "note_off_time": 13.39}, {"pitch": 62, "velocity": 100, "note_on_time": 14.613, "note_off_time": 15.222}, {"pitch": 60, "velocity": 100, "note_on_time": 15.222, "note_off_time": 15.828}, {"pitch": 62, "velocity": 100, "note_on_time": 15.828, "note_off_time": 16.437}, {"pitch": 60, "velocity": 100, "note_on_time": 16.437, "note_off_time": 17.044}, {"pitch": 60, "velocity": 100, "note_on_time": 17.652, "note_off_time": 18.253}, {"pitch": 60, "velocity": 100, "note_on_time": 18.253, "note_off_time": 18.862}, {"pitch": 60, "velocity": 100, "note_on_time": 18.862, "note_off_time": 19.469}]</notes><options name="Option List">((4, 4), [0.5, 0.25], 3, 7, &lt;NoteRangePerHand.TWO_NOTES: 3&gt;, &lt;NoteRangePerHand.ONE_NOTE: 2&gt;, False, True, True, 100)</options></target_notes><trials><trial trial_no="1" timestamp="2022_04_28-15_19_11"><notes name="Played Notes">[{"pitch": 82, "velocity": 49, "note_on_time": 9.78, "note_off_time": 10.142}, {"pitch": 75, "velocity": 41, "note_on_time": 9.555, "note_off_time": 10.264}, {"pitch": 74, "velocity": 27, "note_on_time": 9.36, "note_off_time": 10.289}, {"pitch": 84, "velocity": 39, "note_on_time": 10.014, "note_off_time": 10.487}, {"pitch": 82, "velocity": 44, "note_on_time": 10.752, "note_off_time": 10.841}, {"pitch": 75, "velocity": 53, "note_on_time": 10.809, "note_off_time": 10.905}, {"pitch": 74, "velocity": 43, "note_on_time": 10.898, "note_off_time": 10.991}, {"pitch": 63, "velocity": 32, "note_on_time": 12.127, "note_off_time": 12.979}, {"pitch": 70, "velocity": 43, "note_on_time": 11.779, "note_off_time": 13.008}, {"pitch": 72, "velocity": 64, "note_on_time": 11.484, "note_off_time": 13.013}, {"pitch": 62, "velocity": 27, "note_on_time": 13.78, "note_off_time": 14.329}, {"pitch": 68, "velocity": 39, "note_on_time": 13.764, "note_off_time": 14.342}, {"pitch": 67, "velocity": 49, "note_on_time": 14.613, "note_off_time": 14.817}, {"pitch": 62, "velocity": 32, "note_on_time": 14.641, "note_off_time": 14.877}, {"pitch": 65, "velocity": 46, "note_on_time": 15.522, "note_off_time": 15.881}, {"pitch": 62, "velocity": 28, "note_on_time": 15.536, "note_off_time": 15.892}, {"pitch": 63, "velocity": 46, "note_on_time": 15.891, "note_off_time": 16.017}, {"pitch": 60, "velocity": 36, "note_on_time": 15.905, "note_off_time": 16.218}, {"pitch": 59, "velocity": 52, "note_on_time": 16.21, "note_off_time": 16.508}, {"pitch": 62, "velocity": 37, "note_on_time": 16.223, "note_off_time": 16.581}, {"pitch": 56, "velocity": 43, "note_on_time": 16.695, "note_off_time": 16.846}, {"pitch": 60, "velocity": 48, "note_on_time": 16.671, "note_off_time": 17.031}, {"pitch": 58, "velocity": 52, "note_on_time": 17.017, "note_off_time": 17.154}, {"pitch": 55, "velocity": 17, "note_on_time": 17.064, "note_off_time": 17.296}, {"pitch": 56, "velocity": 46, "note_on_time": 17.414, "note_off_time": 17.459}, {"pitch": 57, "velocity": 45, "note_on_time": 17.513, "note_off_time": 17.941}, {"pitch": 56, "velocity": 49, "note_on_time": 17.932, "note_off_time": 18.087}, {"pitch": 53, "velocity": 38, "note_on_time": 17.449, "note_off_time": 18.315}, {"pitch": 52, "velocity": 47, "note_on_time": 17.937, "note_off_time": 18.348}, {"pitch": 55, "velocity": 1, "note_on_time": 18.388, "note_off_time": 18.639}, {"pitch": 50, "velocity": 45, "note_on_time": 18.34, "note_off_time": 18.859}, {"pitch": 48, "velocity": 52, "note_on_time": 18.772, "note_off_time": 19.245}, {"pitch": 51, "velocity": 31, "note_on_time": 18.743, "note_off_time": 19.282}]</notes><guidance name="Guidance Mode">None</guidance><error name="Error value">10.785427083333326</error></trial><trial trial_no="2" timestamp="2022_04_28-15_19_33"><notes name="Played Notes">[{"pitch": 24, "velocity": 37, "note_on_time": 2.954, "note_off_time": 3.307}, {"pitch": 28, "velocity": 44, "note_on_time": 3.481, "note_off_time": 3.913}, {"pitch": 31, "velocity": 56, "note_on_time": 3.998, "note_off_time": 4.68}, {"pitch": 40, "velocity": 44, "note_on_time": 5.087, "note_off_time": 5.546}, {"pitch": 43, "velocity": 31, "note_on_time": 5.083, "note_off_time": 5.637}, {"pitch": 48, "velocity": 19, "note_on_time": 5.101, "note_off_time": 5.706}, {"pitch": 52, "velocity": 46, "note_on_time": 6.519, "note_off_time": 6.972}, {"pitch": 55, "velocity": 18, "note_on_time": 6.522, "note_off_time": 7.088}, {"pitch": 48, "velocity": 25, "note_on_time": 6.52, "note_off_time": 7.343}, {"pitch": 55, "velocity": 40, "note_on_time": 8.154, "note_off_time": 9.053}, {"pitch": 48, "velocity": 51, "note_on_time": 7.51, "note_off_time": 9.058}, {"pitch": 58, "velocity": 53, "note_on_time": 8.199, "note_off_time": 9.068}, {"pitch": 52, "velocity": 1, "note_on_time": 7.96, "note_off_time": 9.08}, {"pitch": 58, "velocity": 72, "note_on_time": 9.425, "note_off_time": 9.476}, {"pitch": 55, "velocity": 50, "note_on_time": 9.459, "note_off_time": 9.498}, {"pitch": 55, "velocity": 40, "note_on_time": 9.854, "note_off_time": 9.919}, {"pitch": 53, "velocity": 20, "note_on_time": 10.077, "note_off_time": 11.16}, {"pitch": 57, "velocity": 44, "note_on_time": 9.845, "note_off_time": 11.17}, {"pitch": 51, "velocity": 66, "note_on_time": 9.831, "note_off_time": 11.182}, {"pitch": 48, "velocity": 25, "note_on_time": 9.984, "note_off_time": 11.224}, {"pitch": 57, "velocity": 71, "note_on_time": 11.537, "note_off_time": 11.584}, {"pitch": 48, "velocity": 48, "note_on_time": 11.559, "note_off_time": 11.6}, {"pitch": 53, "velocity": 60, "note_on_time": 11.559, "note_off_time": 11.608}, {"pitch": 51, "velocity": 59, "note_on_time": 11.541, "note_off_time": 11.616}, {"pitch": 48, "velocity": 74, "note_on_time": 12.184, "note_off_time": 13.453}, {"pitch": 46, "velocity": 45, "note_on_time": 12.185, "note_off_time": 13.457}, {"pitch": 52, "velocity": 73, "note_on_time": 12.184, "note_off_time": 13.491}, {"pitch": 55, "velocity": 65, "note_on_time": 12.184, "note_off_time": 13.495}, {"pitch": 57, "velocity": 73, "note_on_time": 14.402, "note_off_time": 14.476}, {"pitch": 48, "velocity": 41, "note_on_time": 14.433, "note_off_time": 14.485}, {"pitch": 50, "velocity": 54, "note_on_time": 14.433, "note_off_time": 14.496}, {"pitch": 53, "velocity": 46, "note_on_time": 14.445, "note_off_time": 14.506}, {"pitch": 55, "velocity": 42, "note_on_time": 15.12, "note_off_time": 16.547}, {"pitch": 52, "velocity": 64, "note_on_time": 15.11, "note_off_time": 16.549}, {"pitch": 48, "velocity": 53, "note_on_time": 15.101, "note_off_time": 16.588}]</notes><guidance name="Guidance Mode">None</guidance><error name="Error value">20.447750000000006</error></trial><trial trial_no="3" timestamp="2022_04_28-15_20_50"><notes name="Played Notes">[{"pitch": 60, "velocity": 66, "note_on_time": 4.048, "note_off_time": 4.412}, {"pitch": 60, "velocity": 74, "note_on_time": 4.598, "note_off_time": 4.992}, {"pitch": 60, "velocity": 62, "note_on_time": 5.189, "note_off_time": 6.069}, {"pitch": 62, "velocity": 49, "note_on_time": 6.25, "note_off_time": 6.608}, {"pitch": 60, "velocity": 47, "note_on_time": 6.872, "note_off_time": 7.159}, {"pitch": 62, "velocity": 41, "note_on_time": 7.343, "note_off_time": 7.668}, {"pitch": 62, "velocity": 35, "note_on_time": 7.856, "note_off_time": 8.724}, {"pitch": 62, "velocity": 41, "note_on_time": 8.86, "note_off_time": 9.434}, {"pitch": 60, "velocity": 35, "note_on_time": 9.423, "note_off_time": 9.954}, {"pitch": 62, "velocity": 30, "note_on_time": 9.965, "note_off_time": 10.518}, {"pitch": 60, "velocity": 22, "note_on_time": 10.566, "note_off_time": 11.015}, {"pitch": 60, "velocity": 19, "note_on_time": 11.603, "note_off_time": 11.848}, {"pitch": 60, "velocity": 18, "note_on_time": 12.174, "note_off_time": 12.423}, {"pitch": 60, "velocity": 22, "note_on_time": 12.763, "note_off_time": 13.052}, {"pitch": 31, "velocity": 37, "note_on_time": 16.155, "note_off_time": 16.241}, {"pitch": 33, "velocity": 52, "note_on_time": 16.675, "note_off_time": 16.746}, {"pitch": 33, "velocity": 61, "note_on_time": 17.203, "note_off_time": 17.262}, {"pitch": 33, "velocity": 53, "note_on_time": 17.736, "note_off_time": 17.813}, {"pitch": 31, "velocity": 90, "note_on_time": 18.223, "note_off_time": 18.66}, {"pitch": 33, "velocity": 50, "note_on_time": 18.771, "note_off_time": 18.835}, {"pitch": 33, "velocity": 59, "note_on_time": 19.265, "note_off_time": 19.319}]</notes><guidance name="Guidance Mode">None</guidance><error name="Error value">3.9807187499999985</error></trial></trials></MIDI>