<MIDI midiNo="2022_12_22-13_10_37"><target_notes><notes name="Note List">[{"pitch": 42, "velocity": 80, "note_on_time": 0.004, "note_off_time": 0.766}, {"pitch": 42, "velocity": 80, "note_on_time": 0.766, "note_off_time": 1.526}, {"pitch": 42, "velocity": 80, "note_on_time": 1.527, "note_off_time": 2.289}, {"pitch": 42, "velocity": 80, "note_on_time": 2.29, "note_off_time": 3.052}, {"pitch": 60, "velocity": 80, "note_on_time": 3.052, "note_off_time": 3.814}, {"pitch": 42, "velocity": 80, "note_on_time": 3.053, "note_off_time": 3.814}, {"pitch": 60, "velocity": 80, "note_on_time": 3.814, "note_off_time": 4.576}, {"pitch": 42, "velocity": 80, "note_on_time": 3.814, "note_off_time": 4.576}, {"pitch": 60, "velocity": 80, "note_on_time": 4.576, "note_off_time": 5.339}, {"pitch": 42, "velocity": 80, "note_on_time": 4.576, "note_off_time": 5.339}, {"pitch": 62, "velocity": 80, "note_on_time": 5.339, "note_off_time": 6.1}, {"pitch": 42, "velocity": 80, "note_on_time": 5.339, "note_off_time": 6.101}, {"pitch": 62, "velocity": 80, "note_on_time": 6.1, "note_off_time": 6.86}, {"pitch": 42, "velocity": 80, "note_on_time": 6.101, "note_off_time": 6.86}, {"pitch": 62, "velocity": 80, "note_on_time": 6.86, "note_off_time": 7.622}, {"pitch": 42, "velocity": 80, "note_on_time": 6.86, "note_off_time": 7.622}, {"pitch": 60, "velocity": 80, "note_on_time": 7.622, "note_off_time": 8.384}, {"pitch": 42, "velocity": 80, "note_on_time": 7.622, "note_off_time": 8.385}, {"pitch": 62, "velocity": 80, "note_on_time": 8.384, "note_off_time": 9.148}, {"pitch": 42, "velocity": 80, "note_on_time": 8.385, "note_off_time": 9.149}, {"pitch": 62, "velocity": 80, "note_on_time": 9.148, "note_off_time": 9.912}, {"pitch": 42, "velocity": 80, "note_on_time": 9.149, "note_off_time": 9.912}, {"pitch": 62, "velocity": 80, "note_on_time": 9.912, "note_off_time": 10.676}, {"pitch": 42, "velocity": 80, "note_on_time": 9.913, "note_off_time": 10.676}, {"pitch": 60, "velocity": 80, "note_on_time": 10.676, "note_off_time": 11.437}, {"pitch": 42, "velocity": 80, "note_on_time": 10.676, "note_off_time": 11.437}, {"pitch": 62, "velocity": 80, "note_on_time": 11.437, "note_off_time": 12.2}, {"pitch": 42, "velocity": 80, "note_on_time": 11.437, "note_off_time": 12.2}, {"pitch": 60, "velocity": 80, "note_on_time": 12.2, "note_off_time": 12.96}, {"pitch": 42, "velocity": 80, "note_on_time": 12.2, "note_off_time": 12.96}, {"pitch": 62, "velocity": 80, "note_on_time": 12.96, "note_off_time": 13.724}, {"pitch": 42, "velocity": 80, "note_on_time": 12.961, "note_off_time": 13.724}, {"pitch": 62, "velocity": 80, "note_on_time": 13.724, "note_off_time": 14.482}, {"pitch": 42, "velocity": 80, "note_on_time": 13.725, "note_off_time": 14.483}, {"pitch": 62, "velocity": 80, "note_on_time": 14.482, "note_off_time": 15.243}, {"pitch": 42, "velocity": 80, "note_on_time": 14.483, "note_off_time": 15.243}, {"pitch": 62, "velocity": 80, "note_on_time": 15.243, "note_off_time": 16.001}, {"pitch": 42, "velocity": 80, "note_on_time": 15.243, "note_off_time": 16.001}, {"pitch": 60, "velocity": 80, "note_on_time": 16.001, "note_off_time": 16.766}, {"pitch": 42, "velocity": 80, "note_on_time": 16.002, "note_off_time": 16.767}, {"pitch": 62, "velocity": 80, "note_on_time": 16.766, "note_off_time": 17.53}, {"pitch": 42, "velocity": 80, "note_on_time": 16.767, "note_off_time": 17.53}, {"pitch": 60, "velocity": 80, "note_on_time": 17.53, "note_off_time": 18.295}, {"pitch": 42, "velocity": 80, "note_on_time": 17.53, "note_off_time": 18.295}, {"pitch": 60, "velocity": 80, "note_on_time": 18.295, "note_off_time": 19.055}, {"pitch": 42, "velocity": 80, "note_on_time": 18.295, "note_off_time": 19.055}, {"pitch": 62, "velocity": 80, "note_on_time": 19.055, "note_off_time": 19.818}, {"pitch": 42, "velocity": 80, "note_on_time": 19.055, "note_off_time": 19.818}, {"pitch": 42, "velocity": 80, "note_on_time": 19.818, "note_off_time": 20.582}, {"pitch": 60, "velocity": 80, "note_on_time": 19.818, "note_off_time": 21.342}, {"pitch": 42, "velocity": 80, "note_on_time": 20.583, "note_off_time": 21.342}, {"pitch": 60, "velocity": 80, "note_on_time": 21.342, "note_off_time": 22.106}, {"pitch": 42, "velocity": 80, "note_on_time": 21.342, "note_off_time": 22.106}, {"pitch": 62, "velocity": 80, "note_on_time": 22.106, "note_off_time": 22.871}, {"pitch": 42, "velocity": 80, "note_on_time": 22.107, "note_off_time": 22.871}, {"pitch": 42, "velocity": 80, "note_on_time": 22.871, "note_off_time": 23.634}, {"pitch": 60, "velocity": 80, "note_on_time": 22.871, "note_off_time": 24.396}, {"pitch": 42, "velocity": 80, "note_on_time": 23.634, "note_off_time": 24.397}, {"pitch": 42, "velocity": 80, "note_on_time": 24.397, "note_off_time": 25.16}, {"pitch": 60, "velocity": 80, "note_on_time": 25.16, "note_off_time": 25.922}, {"pitch": 42, "velocity": 80, "note_on_time": 25.16, "note_off_time": 25.923}, {"pitch": 60, "velocity": 80, "note_on_time": 25.922, "note_off_time": 26.686}, {"pitch": 42, "velocity": 80, "note_on_time": 25.923, "note_off_time": 26.687}, {"pitch": 60, "velocity": 80, "note_on_time": 26.686, "note_off_time": 27.446}, {"pitch": 42, "velocity": 80, "note_on_time": 26.687, "note_off_time": 27.447}]</notes><options name="Option List">((4, 4), [0.5, 0.25], 3, 8, &lt;NoteRangePerHand.TWO_NOTES: 3&gt;, &lt;NoteRangePerHand.ONE_NOTE: 2&gt;, False, True, False, 80)</options></target_notes><trials><trial trial_no="1" timestamp="2022_12_22-13_10_07"><notes name="Played Notes">[{"pitch": 60, "velocity": 81, "note_on_time": 3.029, "note_off_time": 3.276}, {"pitch": 60, "velocity": 66, "note_on_time": 3.722, "note_off_time": 4.003}, {"pitch": 60, "velocity": 78, "note_on_time": 4.476, "note_off_time": 4.715}, {"pitch": 62, "velocity": 79, "note_on_time": 5.292, "note_off_time": 5.55}, {"pitch": 62, "velocity": 82, "note_on_time": 6.025, "note_off_time": 6.287}, {"pitch": 62, "velocity": 74, "note_on_time": 6.764, "note_off_time": 6.996}, {"pitch": 60, "velocity": 81, "note_on_time": 7.505, "note_off_time": 7.785}, {"pitch": 62, "velocity": 80, "note_on_time": 8.244, "note_off_time": 8.556}, {"pitch": 62, "velocity": 84, "note_on_time": 8.969, "note_off_time": 9.265}, {"pitch": 62, "velocity": 77, "note_on_time": 9.697, "note_off_time": 9.931}, {"pitch": 60, "velocity": 87, "note_on_time": 10.419, "note_off_time": 10.684}, {"pitch": 62, "velocity": 66, "note_on_time": 11.171, "note_off_time": 11.543}, {"pitch": 60, "velocity": 78, "note_on_time": 11.888, "note_off_time": 12.223}, {"pitch": 62, "velocity": 85, "note_on_time": 12.587, "note_off_time": 12.902}, {"pitch": 62, "velocity": 80, "note_on_time": 13.281, "note_off_time": 13.669}, {"pitch": 62, "velocity": 81, "note_on_time": 14.087, "note_off_time": 14.437}, {"pitch": 60, "velocity": 82, "note_on_time": 14.903, "note_off_time": 15.214}, {"pitch": 62, "velocity": 79, "note_on_time": 15.639, "note_off_time": 15.987}, {"pitch": 60, "velocity": 79, "note_on_time": 16.378, "note_off_time": 16.751}, {"pitch": 60, "velocity": 86, "note_on_time": 17.114, "note_off_time": 17.415}, {"pitch": 62, "velocity": 74, "note_on_time": 17.826, "note_off_time": 18.067}, {"pitch": 60, "velocity": 84, "note_on_time": 18.505, "note_off_time": 19.043}, {"pitch": 60, "velocity": 60, "note_on_time": 20.104, "note_off_time": 20.313}, {"pitch": 62, "velocity": 64, "note_on_time": 20.673, "note_off_time": 20.892}, {"pitch": 60, "velocity": 79, "note_on_time": 21.286, "note_off_time": 22.043}, {"pitch": 62, "velocity": 63, "note_on_time": 23.56, "note_off_time": 23.817}, {"pitch": 62, "velocity": 74, "note_on_time": 24.19, "note_off_time": 24.39}, {"pitch": 62, "velocity": 47, "note_on_time": 24.856, "note_off_time": 25.034}]</notes><guidance name="Guidance Mode">None</guidance><error name="Error value">0.23042307692307654</error></trial></trials></MIDI>