<MIDI midiNo="2022_09_29-12_45_34"><target_notes><notes name="Note List">[{"pitch": 42, "velocity": 80, "note_on_time": 0.004, "note_off_time": 0.294}, {"pitch": 42, "velocity": 80, "note_on_time": 0.295, "note_off_time": 0.575}, {"pitch": 42, "velocity": 80, "note_on_time": 0.576, "note_off_time": 0.871}, {"pitch": 42, "velocity": 80, "note_on_time": 0.871, "note_off_time": 1.166}, {"pitch": 42, "velocity": 80, "note_on_time": 1.166, "note_off_time": 1.448}, {"pitch": 62, "velocity": 80, "note_on_time": 1.166, "note_off_time": 1.744}, {"pitch": 42, "velocity": 80, "note_on_time": 1.448, "note_off_time": 1.744}, {"pitch": 42, "velocity": 80, "note_on_time": 1.745, "note_off_time": 2.025}, {"pitch": 62, "velocity": 80, "note_on_time": 2.025, "note_off_time": 2.319}, {"pitch": 42, "velocity": 80, "note_on_time": 2.025, "note_off_time": 2.319}, {"pitch": 62, "velocity": 80, "note_on_time": 2.319, "note_off_time": 2.615}, {"pitch": 42, "velocity": 80, "note_on_time": 2.319, "note_off_time": 2.615}, {"pitch": 42, "velocity": 80, "note_on_time": 2.616, "note_off_time": 2.911}, {"pitch": 42, "velocity": 80, "note_on_time": 2.912, "note_off_time": 3.205}, {"pitch": 64, "velocity": 80, "note_on_time": 2.911, "note_off_time": 3.486}, {"pitch": 42, "velocity": 80, "note_on_time": 3.205, "note_off_time": 3.486}, {"pitch": 60, "velocity": 80, "note_on_time": 3.486, "note_off_time": 3.781}, {"pitch": 42, "velocity": 80, "note_on_time": 3.486, "note_off_time": 3.782}, {"pitch": 60, "velocity": 80, "note_on_time": 3.781, "note_off_time": 4.076}, {"pitch": 42, "velocity": 80, "note_on_time": 3.782, "note_off_time": 4.077}, {"pitch": 60, "velocity": 80, "note_on_time": 4.076, "note_off_time": 4.371}, {"pitch": 42, "velocity": 80, "note_on_time": 4.077, "note_off_time": 4.372}, {"pitch": 60, "velocity": 80, "note_on_time": 4.371, "note_off_time": 4.668}, {"pitch": 42, "velocity": 80, "note_on_time": 4.372, "note_off_time": 4.668}, {"pitch": 42, "velocity": 80, "note_on_time": 4.668, "note_off_time": 4.962}, {"pitch": 64, "velocity": 80, "note_on_time": 4.668, "note_off_time": 5.258}, {"pitch": 42, "velocity": 80, "note_on_time": 4.963, "note_off_time": 5.258}, {"pitch": 42, "velocity": 80, "note_on_time": 5.259, "note_off_time": 5.539}, {"pitch": 42, "velocity": 80, "note_on_time": 5.539, "note_off_time": 5.835}, {"pitch": 42, "velocity": 80, "note_on_time": 5.835, "note_off_time": 6.13}, {"pitch": 60, "velocity": 80, "note_on_time": 5.834, "note_off_time": 6.411}, {"pitch": 42, "velocity": 80, "note_on_time": 6.13, "note_off_time": 6.412}, {"pitch": 64, "velocity": 80, "note_on_time": 6.411, "note_off_time": 6.706}, {"pitch": 42, "velocity": 80, "note_on_time": 6.412, "note_off_time": 6.706}, {"pitch": 62, "velocity": 80, "note_on_time": 6.706, "note_off_time": 6.987}, {"pitch": 42, "velocity": 80, "note_on_time": 6.707, "note_off_time": 6.987}, {"pitch": 62, "velocity": 80, "note_on_time": 6.987, "note_off_time": 7.283}, {"pitch": 42, "velocity": 80, "note_on_time": 6.987, "note_off_time": 7.283}, {"pitch": 62, "velocity": 80, "note_on_time": 7.283, "note_off_time": 7.579}, {"pitch": 42, "velocity": 80, "note_on_time": 7.283, "note_off_time": 7.579}, {"pitch": 62, "velocity": 80, "note_on_time": 7.579, "note_off_time": 7.861}, {"pitch": 42, "velocity": 80, "note_on_time": 7.579, "note_off_time": 7.862}, {"pitch": 60, "velocity": 80, "note_on_time": 7.861, "note_off_time": 8.158}, {"pitch": 42, "velocity": 80, "note_on_time": 7.862, "note_off_time": 8.158}, {"pitch": 60, "velocity": 80, "note_on_time": 8.158, "note_off_time": 8.442}, {"pitch": 42, "velocity": 80, "note_on_time": 8.158, "note_off_time": 8.442}, {"pitch": 62, "velocity": 80, "note_on_time": 8.442, "note_off_time": 8.724}, {"pitch": 42, "velocity": 80, "note_on_time": 8.442, "note_off_time": 8.724}, {"pitch": 60, "velocity": 80, "note_on_time": 8.724, "note_off_time": 9.018}, {"pitch": 42, "velocity": 80, "note_on_time": 8.724, "note_off_time": 9.018}, {"pitch": 62, "velocity": 80, "note_on_time": 9.018, "note_off_time": 9.3}, {"pitch": 42, "velocity": 80, "note_on_time": 9.019, "note_off_time": 9.3}, {"pitch": 42, "velocity": 80, "note_on_time": 9.301, "note_off_time": 9.581}, {"pitch": 62, "velocity": 80, "note_on_time": 9.581, "note_off_time": 9.876}, {"pitch": 42, "velocity": 80, "note_on_time": 9.582, "note_off_time": 9.877}, {"pitch": 62, "velocity": 80, "note_on_time": 9.876, "note_off_time": 10.172}, {"pitch": 42, "velocity": 80, "note_on_time": 9.877, "note_off_time": 10.173}, {"pitch": 62, "velocity": 80, "note_on_time": 10.172, "note_off_time": 10.468}, {"pitch": 42, "velocity": 80, "note_on_time": 10.173, "note_off_time": 10.468}]</notes><options name="Option List">((4, 4), [0.5, 0.25], 3, 8, &lt;NoteRangePerHand.THREE_NOTES: 4&gt;, &lt;NoteRangePerHand.ONE_NOTE: 2&gt;, False, True, False, 215)</options></target_notes><trials><trial trial_no="1" timestamp="2022_09_29-12_45_22"><notes name="Played Notes">[{"pitch": 64, "velocity": 94, "note_on_time": 1.155, "note_off_time": 1.806}, {"pitch": 62, "velocity": 81, "note_on_time": 2.043, "note_off_time": 2.152}, {"pitch": 62, "velocity": 85, "note_on_time": 2.328, "note_off_time": 2.492}, {"pitch": 64, "velocity": 87, "note_on_time": 2.643, "note_off_time": 3.055}, {"pitch": 60, "velocity": 89, "note_on_time": 3.168, "note_off_time": 3.301}, {"pitch": 60, "velocity": 92, "note_on_time": 3.451, "note_off_time": 3.594}, {"pitch": 60, "velocity": 95, "note_on_time": 3.766, "note_off_time": 3.932}, {"pitch": 64, "velocity": 74, "note_on_time": 4.144, "note_off_time": 4.76}, {"pitch": 60, "velocity": 91, "note_on_time": 5.216, "note_off_time": 5.75}, {"pitch": 64, "velocity": 81, "note_on_time": 5.832, "note_off_time": 6.128}, {"pitch": 62, "velocity": 78, "note_on_time": 6.134, "note_off_time": 6.302}, {"pitch": 62, "velocity": 79, "note_on_time": 6.409, "note_off_time": 6.569}, {"pitch": 62, "velocity": 91, "note_on_time": 6.725, "note_off_time": 6.85}, {"pitch": 62, "velocity": 77, "note_on_time": 6.97, "note_off_time": 7.133}, {"pitch": 60, "velocity": 92, "note_on_time": 7.268, "note_off_time": 7.412}, {"pitch": 60, "velocity": 91, "note_on_time": 7.567, "note_off_time": 7.792}, {"pitch": 62, "velocity": 76, "note_on_time": 7.83, "note_off_time": 8.104}, {"pitch": 60, "velocity": 91, "note_on_time": 8.151, "note_off_time": 8.438}, {"pitch": 62, "velocity": 87, "note_on_time": 8.44, "note_off_time": 8.874}, {"pitch": 60, "velocity": 92, "note_on_time": 8.994, "note_off_time": 9.132}, {"pitch": 62, "velocity": 85, "note_on_time": 9.27, "note_off_time": 9.398}, {"pitch": 62, "velocity": 96, "note_on_time": 9.551, "note_off_time": 9.715}]</notes><guidance name="Guidance Mode">None</guidance><error name="Error value">0.19840000000000002</error></trial><trial trial_no="2" timestamp="2022_09_29-12_46_00"><notes name="Played Notes">[{"pitch": 62, "velocity": 89, "note_on_time": 1.143, "note_off_time": 1.889}, {"pitch": 62, "velocity": 93, "note_on_time": 2.051, "note_off_time": 2.182}, {"pitch": 62, "velocity": 106, "note_on_time": 2.343, "note_off_time": 2.728}, {"pitch": 64, "velocity": 85, "note_on_time": 2.91, "note_off_time": 3.424}, {"pitch": 60, "velocity": 96, "note_on_time": 3.484, "note_off_time": 3.617}, {"pitch": 60, "velocity": 98, "note_on_time": 3.765, "note_off_time": 3.911}, {"pitch": 60, "velocity": 95, "note_on_time": 4.067, "note_off_time": 4.172}, {"pitch": 60, "velocity": 100, "note_on_time": 4.361, "note_off_time": 4.495}, {"pitch": 64, "velocity": 85, "note_on_time": 4.647, "note_off_time": 5.389}, {"pitch": 60, "velocity": 92, "note_on_time": 5.795, "note_off_time": 6.327}, {"pitch": 64, "velocity": 85, "note_on_time": 6.368, "note_off_time": 6.669}, {"pitch": 62, "velocity": 83, "note_on_time": 6.663, "note_off_time": 6.843}, {"pitch": 62, "velocity": 79, "note_on_time": 6.943, "note_off_time": 7.102}, {"pitch": 62, "velocity": 89, "note_on_time": 7.242, "note_off_time": 7.362}, {"pitch": 62, "velocity": 87, "note_on_time": 7.53, "note_off_time": 7.743}, {"pitch": 60, "velocity": 86, "note_on_time": 7.809, "note_off_time": 7.942}, {"pitch": 60, "velocity": 90, "note_on_time": 8.097, "note_off_time": 8.379}, {"pitch": 62, "velocity": 83, "note_on_time": 8.395, "note_off_time": 8.662}, {"pitch": 60, "velocity": 89, "note_on_time": 8.688, "note_off_time": 8.959}, {"pitch": 62, "velocity": 87, "note_on_time": 8.973, "note_off_time": 9.402}, {"pitch": 62, "velocity": 96, "note_on_time": 9.55, "note_off_time": 9.684}, {"pitch": 62, "velocity": 96, "note_on_time": 9.829, "note_off_time": 9.956}, {"pitch": 62, "velocity": 101, "note_on_time": 10.102, "note_off_time": 10.289}]</notes><guidance name="Guidance Mode">None</guidance><error name="Error value">0.016013750000000194</error></trial></trials></MIDI>