<MIDI midiNo="2022_11_03-09_39_30"><target_notes><notes name="Note List">[{"pitch": 42, "velocity": 80, "note_on_time": 0.005, "note_off_time": 0.224}, {"pitch": 42, "velocity": 80, "note_on_time": 0.224, "note_off_time": 0.441}, {"pitch": 42, "velocity": 80, "note_on_time": 0.441, "note_off_time": 0.658}, {"pitch": 42, "velocity": 80, "note_on_time": 0.658, "note_off_time": 0.876}, {"pitch": 65, "velocity": 80, "note_on_time": 0.876, "note_off_time": 1.092}, {"pitch": 42, "velocity": 80, "note_on_time": 0.876, "note_off_time": 1.092}, {"pitch": 67, "velocity": 80, "note_on_time": 1.092, "note_off_time": 1.31}, {"pitch": 42, "velocity": 80, "note_on_time": 1.092, "note_off_time": 1.31}, {"pitch": 65, "velocity": 80, "note_on_time": 1.31, "note_off_time": 1.527}, {"pitch": 42, "velocity": 80, "note_on_time": 1.31, "note_off_time": 1.527}, {"pitch": 64, "velocity": 80, "note_on_time": 1.527, "note_off_time": 1.745}, {"pitch": 42, "velocity": 80, "note_on_time": 1.528, "note_off_time": 1.745}, {"pitch": 60, "velocity": 80, "note_on_time": 1.745, "note_off_time": 1.966}, {"pitch": 42, "velocity": 80, "note_on_time": 1.745, "note_off_time": 1.966}, {"pitch": 65, "velocity": 80, "note_on_time": 1.966, "note_off_time": 2.183}, {"pitch": 42, "velocity": 80, "note_on_time": 1.966, "note_off_time": 2.183}, {"pitch": 62, "velocity": 80, "note_on_time": 2.183, "note_off_time": 2.4}, {"pitch": 42, "velocity": 80, "note_on_time": 2.183, "note_off_time": 2.4}, {"pitch": 64, "velocity": 80, "note_on_time": 2.4, "note_off_time": 2.616}, {"pitch": 42, "velocity": 80, "note_on_time": 2.4, "note_off_time": 2.616}, {"pitch": 65, "velocity": 80, "note_on_time": 2.616, "note_off_time": 2.835}, {"pitch": 42, "velocity": 80, "note_on_time": 2.616, "note_off_time": 2.835}, {"pitch": 64, "velocity": 80, "note_on_time": 2.835, "note_off_time": 3.053}, {"pitch": 42, "velocity": 80, "note_on_time": 2.835, "note_off_time": 3.053}, {"pitch": 60, "velocity": 80, "note_on_time": 3.053, "note_off_time": 3.271}, {"pitch": 42, "velocity": 80, "note_on_time": 3.053, "note_off_time": 3.271}, {"pitch": 67, "velocity": 80, "note_on_time": 3.271, "note_off_time": 3.491}, {"pitch": 42, "velocity": 80, "note_on_time": 3.271, "note_off_time": 3.491}, {"pitch": 42, "velocity": 80, "note_on_time": 3.491, "note_off_time": 3.711}, {"pitch": 65, "velocity": 80, "note_on_time": 3.491, "note_off_time": 3.929}, {"pitch": 42, "velocity": 80, "note_on_time": 3.711, "note_off_time": 3.929}, {"pitch": 42, "velocity": 80, "note_on_time": 3.929, "note_off_time": 4.146}, {"pitch": 42, "velocity": 80, "note_on_time": 4.146, "note_off_time": 4.364}, {"pitch": 62, "velocity": 80, "note_on_time": 4.364, "note_off_time": 4.582}, {"pitch": 42, "velocity": 80, "note_on_time": 4.364, "note_off_time": 4.582}, {"pitch": 62, "velocity": 80, "note_on_time": 4.582, "note_off_time": 4.8}, {"pitch": 42, "velocity": 80, "note_on_time": 4.582, "note_off_time": 4.8}, {"pitch": 67, "velocity": 80, "note_on_time": 4.8, "note_off_time": 5.018}, {"pitch": 42, "velocity": 80, "note_on_time": 4.8, "note_off_time": 5.018}, {"pitch": 67, "velocity": 80, "note_on_time": 5.018, "note_off_time": 5.235}, {"pitch": 42, "velocity": 80, "note_on_time": 5.018, "note_off_time": 5.235}, {"pitch": 64, "velocity": 80, "note_on_time": 5.235, "note_off_time": 5.453}, {"pitch": 42, "velocity": 80, "note_on_time": 5.235, "note_off_time": 5.453}, {"pitch": 65, "velocity": 80, "note_on_time": 5.453, "note_off_time": 5.67}, {"pitch": 42, "velocity": 80, "note_on_time": 5.453, "note_off_time": 5.67}, {"pitch": 60, "velocity": 80, "note_on_time": 5.67, "note_off_time": 5.887}, {"pitch": 42, "velocity": 80, "note_on_time": 5.67, "note_off_time": 5.887}, {"pitch": 60, "velocity": 80, "note_on_time": 5.887, "note_off_time": 6.105}, {"pitch": 42, "velocity": 80, "note_on_time": 5.887, "note_off_time": 6.105}, {"pitch": 65, "velocity": 80, "note_on_time": 6.105, "note_off_time": 6.322}, {"pitch": 42, "velocity": 80, "note_on_time": 6.105, "note_off_time": 6.322}, {"pitch": 62, "velocity": 80, "note_on_time": 6.322, "note_off_time": 6.538}, {"pitch": 42, "velocity": 80, "note_on_time": 6.323, "note_off_time": 6.538}, {"pitch": 65, "velocity": 80, "note_on_time": 6.538, "note_off_time": 6.756}, {"pitch": 42, "velocity": 80, "note_on_time": 6.539, "note_off_time": 6.756}, {"pitch": 42, "velocity": 80, "note_on_time": 6.756, "note_off_time": 6.974}, {"pitch": 42, "velocity": 80, "note_on_time": 6.974, "note_off_time": 7.192}, {"pitch": 65, "velocity": 80, "note_on_time": 7.192, "note_off_time": 7.41}, {"pitch": 42, "velocity": 80, "note_on_time": 7.192, "note_off_time": 7.41}, {"pitch": 65, "velocity": 80, "note_on_time": 7.41, "note_off_time": 7.629}, {"pitch": 42, "velocity": 80, "note_on_time": 7.41, "note_off_time": 7.629}, {"pitch": 65, "velocity": 80, "note_on_time": 7.629, "note_off_time": 7.846}, {"pitch": 42, "velocity": 80, "note_on_time": 7.63, "note_off_time": 7.846}]</notes><options name="Option List">((4, 4), [0.5, 0.25], 3, 8, &lt;NoteRangePerHand.C_TO_G: 6&gt;, &lt;NoteRangePerHand.ONE_NOTE: 2&gt;, False, True, False, 281)</options></target_notes><trials><trial trial_no="1" timestamp="2022_11_03-09_39_21"><notes name="Played Notes">[{"pitch": 65, "velocity": 66, "note_on_time": 0.89, "note_off_time": 1.116}, {"pitch": 67, "velocity": 63, "note_on_time": 1.1, "note_off_time": 1.391}, {"pitch": 65, "velocity": 72, "note_on_time": 1.291, "note_off_time": 1.537}, {"pitch": 64, "velocity": 71, "note_on_time": 1.481, "note_off_time": 1.71}, {"pitch": 60, "velocity": 71, "note_on_time": 1.703, "note_off_time": 1.896}, {"pitch": 65, "velocity": 66, "note_on_time": 1.894, "note_off_time": 2.111}, {"pitch": 62, "velocity": 62, "note_on_time": 2.087, "note_off_time": 2.391}, {"pitch": 64, "velocity": 55, "note_on_time": 2.296, "note_off_time": 2.545}, {"pitch": 65, "velocity": 65, "note_on_time": 2.536, "note_off_time": 2.846}, {"pitch": 64, "velocity": 51, "note_on_time": 2.752, "note_off_time": 2.969}, {"pitch": 60, "velocity": 62, "note_on_time": 2.96, "note_off_time": 3.178}, {"pitch": 67, "velocity": 58, "note_on_time": 3.141, "note_off_time": 3.451}, {"pitch": 65, "velocity": 67, "note_on_time": 3.386, "note_off_time": 4.034}, {"pitch": 62, "velocity": 51, "note_on_time": 4.386, "note_off_time": 4.731}, {"pitch": 62, "velocity": 44, "note_on_time": 4.816, "note_off_time": 4.964}, {"pitch": 67, "velocity": 52, "note_on_time": 4.968, "note_off_time": 5.456}, {"pitch": 64, "velocity": 49, "note_on_time": 5.377, "note_off_time": 5.614}, {"pitch": 64, "velocity": 43, "note_on_time": 5.7, "note_off_time": 5.826}, {"pitch": 65, "velocity": 54, "note_on_time": 5.862, "note_off_time": 6.033}, {"pitch": 60, "velocity": 46, "note_on_time": 6.038, "note_off_time": 6.141}, {"pitch": 60, "velocity": 60, "note_on_time": 6.254, "note_off_time": 6.398}, {"pitch": 65, "velocity": 63, "note_on_time": 6.401, "note_off_time": 6.863}, {"pitch": 65, "velocity": 45, "note_on_time": 7.393, "note_off_time": 7.441}, {"pitch": 65, "velocity": 48, "note_on_time": 7.567, "note_off_time": 7.641}]</notes><guidance name="Guidance Mode">None</guidance><error name="Error value">0.308480125</error></trial><trial trial_no="2" timestamp="2022_11_03-09_39_39"><notes name="Played Notes">[{"pitch": 65, "velocity": 58, "note_on_time": 0.877, "note_off_time": 1.076}, {"pitch": 67, "velocity": 60, "note_on_time": 1.086, "note_off_time": 1.419}, {"pitch": 65, "velocity": 57, "note_on_time": 1.322, "note_off_time": 1.558}, {"pitch": 64, "velocity": 55, "note_on_time": 1.499, "note_off_time": 1.718}, {"pitch": 60, "velocity": 39, "note_on_time": 1.734, "note_off_time": 1.908}, {"pitch": 65, "velocity": 59, "note_on_time": 1.933, "note_off_time": 2.136}, {"pitch": 62, "velocity": 65, "note_on_time": 2.117, "note_off_time": 2.394}, {"pitch": 64, "velocity": 64, "note_on_time": 2.331, "note_off_time": 2.571}, {"pitch": 65, "velocity": 64, "note_on_time": 2.567, "note_off_time": 2.837}, {"pitch": 64, "velocity": 55, "note_on_time": 2.76, "note_off_time": 3.003}, {"pitch": 60, "velocity": 61, "note_on_time": 2.987, "note_off_time": 3.211}, {"pitch": 67, "velocity": 51, "note_on_time": 3.188, "note_off_time": 3.521}, {"pitch": 65, "velocity": 59, "note_on_time": 3.441, "note_off_time": 3.922}, {"pitch": 62, "velocity": 60, "note_on_time": 4.362, "note_off_time": 4.455}, {"pitch": 62, "velocity": 42, "note_on_time": 4.575, "note_off_time": 4.849}, {"pitch": 67, "velocity": 60, "note_on_time": 4.791, "note_off_time": 4.895}, {"pitch": 67, "velocity": 65, "note_on_time": 4.986, "note_off_time": 5.251}, {"pitch": 64, "velocity": 68, "note_on_time": 5.204, "note_off_time": 5.428}, {"pitch": 65, "velocity": 68, "note_on_time": 5.404, "note_off_time": 5.601}, {"pitch": 60, "velocity": 66, "note_on_time": 5.609, "note_off_time": 5.698}, {"pitch": 60, "velocity": 65, "note_on_time": 5.804, "note_off_time": 5.969}, {"pitch": 65, "velocity": 61, "note_on_time": 6.022, "note_off_time": 6.192}, {"pitch": 62, "velocity": 62, "note_on_time": 6.207, "note_off_time": 6.473}, {"pitch": 65, "velocity": 58, "note_on_time": 6.449, "note_off_time": 6.895}, {"pitch": 65, "velocity": 57, "note_on_time": 7.214, "note_off_time": 7.282}, {"pitch": 65, "velocity": 58, "note_on_time": 7.416, "note_off_time": 7.494}, {"pitch": 65, "velocity": 59, "note_on_time": 7.606, "note_off_time": 7.726}]</notes><guidance name="Guidance Mode">None</guidance><error name="Error value">0.02468462500000014</error></trial><trial trial_no="3" timestamp="2022_11_03-09_39_56"><notes name="Played Notes">[{"pitch": 65, "velocity": 60, "note_on_time": 0.901, "note_off_time": 1.122}, {"pitch": 67, "velocity": 60, "note_on_time": 1.126, "note_off_time": 1.398}, {"pitch": 65, "velocity": 61, "note_on_time": 1.335, "note_off_time": 1.578}, {"pitch": 64, "velocity": 66, "note_on_time": 1.536, "note_off_time": 1.753}, {"pitch": 60, "velocity": 59, "note_on_time": 1.753, "note_off_time": 1.951}, {"pitch": 65, "velocity": 58, "note_on_time": 1.965, "note_off_time": 2.181}, {"pitch": 62, "velocity": 53, "note_on_time": 2.18, "note_off_time": 2.416}, {"pitch": 64, "velocity": 53, "note_on_time": 2.386, "note_off_time": 2.63}, {"pitch": 65, "velocity": 64, "note_on_time": 2.615, "note_off_time": 2.923}, {"pitch": 64, "velocity": 62, "note_on_time": 2.855, "note_off_time": 3.051}, {"pitch": 60, "velocity": 61, "note_on_time": 3.05, "note_off_time": 3.282}, {"pitch": 67, "velocity": 51, "note_on_time": 3.264, "note_off_time": 3.545}, {"pitch": 65, "velocity": 62, "note_on_time": 3.473, "note_off_time": 4.032}, {"pitch": 62, "velocity": 55, "note_on_time": 4.413, "note_off_time": 4.484}, {"pitch": 62, "velocity": 46, "note_on_time": 4.614, "note_off_time": 4.878}, {"pitch": 67, "velocity": 60, "note_on_time": 4.829, "note_off_time": 4.931}, {"pitch": 67, "velocity": 70, "note_on_time": 5.02, "note_off_time": 5.26}, {"pitch": 64, "velocity": 64, "note_on_time": 5.231, "note_off_time": 5.445}, {"pitch": 65, "velocity": 58, "note_on_time": 5.431, "note_off_time": 5.65}, {"pitch": 60, "velocity": 58, "note_on_time": 5.649, "note_off_time": 5.726}, {"pitch": 60, "velocity": 55, "note_on_time": 5.84, "note_off_time": 6.034}, {"pitch": 65, "velocity": 54, "note_on_time": 6.065, "note_off_time": 6.247}, {"pitch": 62, "velocity": 49, "note_on_time": 6.263, "note_off_time": 6.492}, {"pitch": 65, "velocity": 47, "note_on_time": 6.479, "note_off_time": 6.828}, {"pitch": 65, "velocity": 64, "note_on_time": 7.23, "note_off_time": 7.297}, {"pitch": 65, "velocity": 59, "note_on_time": 7.431, "note_off_time": 7.522}, {"pitch": 65, "velocity": 56, "note_on_time": 7.626, "note_off_time": 7.73}]</notes><guidance name="Guidance Mode">None</guidance><error name="Error value">0.018517958333333442</error></trial></trials></MIDI>