<MIDI midiNo="2022_10_26-13_57_48"><target_notes><notes name="Note List">[{"pitch": 42, "velocity": 80, "note_on_time": 0.004, "note_off_time": 0.37}, {"pitch": 42, "velocity": 80, "note_on_time": 0.37, "note_off_time": 0.744}, {"pitch": 42, "velocity": 80, "note_on_time": 0.744, "note_off_time": 1.119}, {"pitch": 42, "velocity": 80, "note_on_time": 1.12, "note_off_time": 1.494}, {"pitch": 42, "velocity": 80, "note_on_time": 1.494, "note_off_time": 1.868}, {"pitch": 64, "velocity": 80, "note_on_time": 1.494, "note_off_time": 2.239}, {"pitch": 42, "velocity": 80, "note_on_time": 1.868, "note_off_time": 2.239}, {"pitch": 42, "velocity": 80, "note_on_time": 2.239, "note_off_time": 2.613}, {"pitch": 42, "velocity": 80, "note_on_time": 2.613, "note_off_time": 2.985}, {"pitch": 62, "velocity": 80, "note_on_time": 2.985, "note_off_time": 3.36}, {"pitch": 42, "velocity": 80, "note_on_time": 2.985, "note_off_time": 3.36}, {"pitch": 60, "velocity": 80, "note_on_time": 3.36, "note_off_time": 3.733}, {"pitch": 42, "velocity": 80, "note_on_time": 3.36, "note_off_time": 3.733}, {"pitch": 42, "velocity": 80, "note_on_time": 3.733, "note_off_time": 4.108}, {"pitch": 62, "velocity": 80, "note_on_time": 4.108, "note_off_time": 4.481}, {"pitch": 42, "velocity": 80, "note_on_time": 4.108, "note_off_time": 4.481}, {"pitch": 42, "velocity": 80, "note_on_time": 4.481, "note_off_time": 4.853}, {"pitch": 67, "velocity": 80, "note_on_time": 4.481, "note_off_time": 5.226}, {"pitch": 42, "velocity": 80, "note_on_time": 4.853, "note_off_time": 5.226}, {"pitch": 65, "velocity": 80, "note_on_time": 5.226, "note_off_time": 5.604}, {"pitch": 42, "velocity": 80, "note_on_time": 5.226, "note_off_time": 5.604}, {"pitch": 65, "velocity": 80, "note_on_time": 5.604, "note_off_time": 5.977}, {"pitch": 42, "velocity": 80, "note_on_time": 5.604, "note_off_time": 5.977}, {"pitch": 67, "velocity": 80, "note_on_time": 5.977, "note_off_time": 6.351}, {"pitch": 42, "velocity": 80, "note_on_time": 5.977, "note_off_time": 6.351}, {"pitch": 42, "velocity": 80, "note_on_time": 6.351, "note_off_time": 6.727}, {"pitch": 67, "velocity": 80, "note_on_time": 6.726, "note_off_time": 7.1}, {"pitch": 42, "velocity": 80, "note_on_time": 6.727, "note_off_time": 7.1}, {"pitch": 67, "velocity": 80, "note_on_time": 7.1, "note_off_time": 7.472}, {"pitch": 42, "velocity": 80, "note_on_time": 7.101, "note_off_time": 7.472}, {"pitch": 64, "velocity": 80, "note_on_time": 7.472, "note_off_time": 7.845}, {"pitch": 42, "velocity": 80, "note_on_time": 7.472, "note_off_time": 7.845}, {"pitch": 42, "velocity": 80, "note_on_time": 7.846, "note_off_time": 8.219}, {"pitch": 62, "velocity": 80, "note_on_time": 8.219, "note_off_time": 8.592}, {"pitch": 42, "velocity": 80, "note_on_time": 8.22, "note_off_time": 8.592}, {"pitch": 67, "velocity": 80, "note_on_time": 8.592, "note_off_time": 8.967}, {"pitch": 42, "velocity": 80, "note_on_time": 8.592, "note_off_time": 8.967}, {"pitch": 65, "velocity": 80, "note_on_time": 8.967, "note_off_time": 9.343}, {"pitch": 42, "velocity": 80, "note_on_time": 8.968, "note_off_time": 9.343}, {"pitch": 62, "velocity": 80, "note_on_time": 9.343, "note_off_time": 9.718}, {"pitch": 42, "velocity": 80, "note_on_time": 9.343, "note_off_time": 9.718}, {"pitch": 64, "velocity": 80, "note_on_time": 9.718, "note_off_time": 10.091}, {"pitch": 42, "velocity": 80, "note_on_time": 9.718, "note_off_time": 10.092}, {"pitch": 60, "velocity": 80, "note_on_time": 10.091, "note_off_time": 10.466}, {"pitch": 42, "velocity": 80, "note_on_time": 10.092, "note_off_time": 10.466}, {"pitch": 67, "velocity": 80, "note_on_time": 10.466, "note_off_time": 10.839}, {"pitch": 42, "velocity": 80, "note_on_time": 10.466, "note_off_time": 10.839}, {"pitch": 64, "velocity": 80, "note_on_time": 10.839, "note_off_time": 11.214}, {"pitch": 42, "velocity": 80, "note_on_time": 10.839, "note_off_time": 11.215}, {"pitch": 60, "velocity": 80, "note_on_time": 11.214, "note_off_time": 11.59}, {"pitch": 42, "velocity": 80, "note_on_time": 11.215, "note_off_time": 11.59}, {"pitch": 42, "velocity": 80, "note_on_time": 11.59, "note_off_time": 11.966}, {"pitch": 42, "velocity": 80, "note_on_time": 11.966, "note_off_time": 12.34}, {"pitch": 60, "velocity": 80, "note_on_time": 12.34, "note_off_time": 12.713}, {"pitch": 42, "velocity": 80, "note_on_time": 12.341, "note_off_time": 12.713}, {"pitch": 60, "velocity": 80, "note_on_time": 12.713, "note_off_time": 13.088}, {"pitch": 42, "velocity": 80, "note_on_time": 12.714, "note_off_time": 13.088}, {"pitch": 60, "velocity": 80, "note_on_time": 13.088, "note_off_time": 13.46}, {"pitch": 42, "velocity": 80, "note_on_time": 13.089, "note_off_time": 13.46}]</notes><options name="Option List">((4, 4), [0.5, 0.25], 3, 8, &lt;NoteRangePerHand.C_TO_G: 6&gt;, &lt;NoteRangePerHand.ONE_NOTE: 2&gt;, False, True, True, '166')</options></target_notes><trials><trial trial_no="1" timestamp="2022_10_26-13_57_33"><notes name="Played Notes">[{"pitch": 64, "velocity": 88, "note_on_time": 1.517, "note_off_time": 1.927}, {"pitch": 62, "velocity": 78, "note_on_time": 2.981, "note_off_time": 3.336}, {"pitch": 60, "velocity": 87, "note_on_time": 3.345, "note_off_time": 3.647}, {"pitch": 62, "velocity": 84, "note_on_time": 4.07, "note_off_time": 4.404}, {"pitch": 67, "velocity": 83, "note_on_time": 4.464, "note_off_time": 4.983}, {"pitch": 65, "velocity": 76, "note_on_time": 5.229, "note_off_time": 5.399}, {"pitch": 65, "velocity": 70, "note_on_time": 5.601, "note_off_time": 5.767}, {"pitch": 67, "velocity": 82, "note_on_time": 5.96, "note_off_time": 6.367}, {"pitch": 67, "velocity": 76, "note_on_time": 6.756, "note_off_time": 6.921}, {"pitch": 67, "velocity": 74, "note_on_time": 7.14, "note_off_time": 7.326}, {"pitch": 64, "velocity": 76, "note_on_time": 7.528, "note_off_time": 7.869}, {"pitch": 62, "velocity": 69, "note_on_time": 8.233, "note_off_time": 8.601}, {"pitch": 67, "velocity": 72, "note_on_time": 8.593, "note_off_time": 8.974}, {"pitch": 65, "velocity": 67, "note_on_time": 8.966, "note_off_time": 9.34}, {"pitch": 62, "velocity": 67, "note_on_time": 9.33, "note_off_time": 9.712}, {"pitch": 64, "velocity": 75, "note_on_time": 9.7, "note_off_time": 10.07}, {"pitch": 60, "velocity": 71, "note_on_time": 10.06, "note_off_time": 10.484}, {"pitch": 67, "velocity": 67, "note_on_time": 10.463, "note_off_time": 10.837}, {"pitch": 64, "velocity": 72, "note_on_time": 10.801, "note_off_time": 11.207}, {"pitch": 60, "velocity": 94, "note_on_time": 11.198, "note_off_time": 11.549}, {"pitch": 60, "velocity": 89, "note_on_time": 12.342, "note_off_time": 12.491}, {"pitch": 60, "velocity": 93, "note_on_time": 12.715, "note_off_time": 12.886}, {"pitch": 60, "velocity": 98, "note_on_time": 13.093, "note_off_time": 13.284}]</notes><guidance name="Guidance Mode">None</guidance><error name="Error value">0.023227249999999887</error></trial><trial trial_no="2" timestamp="2022_10_26-13_58_03"><notes name="Played Notes">[{"pitch": 64, "velocity": 90, "note_on_time": 1.505, "note_off_time": 1.792}, {"pitch": 62, "velocity": 70, "note_on_time": 2.618, "note_off_time": 2.962}, {"pitch": 60, "velocity": 88, "note_on_time": 2.987, "note_off_time": 3.286}, {"pitch": 62, "velocity": 88, "note_on_time": 3.746, "note_off_time": 4.12}, {"pitch": 67, "velocity": 72, "note_on_time": 4.445, "note_off_time": 4.826}, {"pitch": 65, "velocity": 67, "note_on_time": 5.212, "note_off_time": 5.372}, {"pitch": 65, "velocity": 73, "note_on_time": 5.591, "note_off_time": 5.761}, {"pitch": 67, "velocity": 78, "note_on_time": 5.968, "note_off_time": 6.302}, {"pitch": 67, "velocity": 69, "note_on_time": 6.715, "note_off_time": 6.89}, {"pitch": 67, "velocity": 73, "note_on_time": 7.093, "note_off_time": 7.274}, {"pitch": 64, "velocity": 76, "note_on_time": 7.482, "note_off_time": 7.768}, {"pitch": 62, "velocity": 63, "note_on_time": 8.215, "note_off_time": 8.595}, {"pitch": 67, "velocity": 69, "note_on_time": 8.606, "note_off_time": 8.948}, {"pitch": 65, "velocity": 58, "note_on_time": 8.946, "note_off_time": 9.316}, {"pitch": 62, "velocity": 56, "note_on_time": 9.311, "note_off_time": 9.691}, {"pitch": 64, "velocity": 66, "note_on_time": 9.687, "note_off_time": 10.072}, {"pitch": 60, "velocity": 71, "note_on_time": 10.066, "note_off_time": 10.459}, {"pitch": 67, "velocity": 64, "note_on_time": 10.436, "note_off_time": 10.829}, {"pitch": 64, "velocity": 65, "note_on_time": 10.786, "note_off_time": 11.199}, {"pitch": 60, "velocity": 88, "note_on_time": 11.19, "note_off_time": 11.478}, {"pitch": 60, "velocity": 87, "note_on_time": 12.314, "note_off_time": 12.477}, {"pitch": 60, "velocity": 96, "note_on_time": 12.671, "note_off_time": 12.842}, {"pitch": 60, "velocity": 103, "note_on_time": 13.053, "note_off_time": 13.242}]</notes><guidance name="Guidance Mode">None</guidance><error name="Error value">0.05417175000000035</error></trial><trial trial_no="3" timestamp="2022_10_26-13_58_31"><notes name="Played Notes">[{"pitch": 64, "velocity": 83, "note_on_time": 1.516, "note_off_time": 2.008}, {"pitch": 62, "velocity": 73, "note_on_time": 2.979, "note_off_time": 3.326}, {"pitch": 60, "velocity": 84, "note_on_time": 3.334, "note_off_time": 3.645}, {"pitch": 62, "velocity": 69, "note_on_time": 4.068, "note_off_time": 4.447}, {"pitch": 67, "velocity": 74, "note_on_time": 4.466, "note_off_time": 4.96}, {"pitch": 65, "velocity": 71, "note_on_time": 5.21, "note_off_time": 5.38}, {"pitch": 65, "velocity": 68, "note_on_time": 5.589, "note_off_time": 5.743}, {"pitch": 67, "velocity": 78, "note_on_time": 5.975, "note_off_time": 6.307}, {"pitch": 67, "velocity": 76, "note_on_time": 6.728, "note_off_time": 6.873}, {"pitch": 67, "velocity": 78, "note_on_time": 7.101, "note_off_time": 7.268}, {"pitch": 64, "velocity": 76, "note_on_time": 7.47, "note_off_time": 7.753}, {"pitch": 62, "velocity": 65, "note_on_time": 8.212, "note_off_time": 8.591}, {"pitch": 67, "velocity": 73, "note_on_time": 8.59, "note_off_time": 8.946}, {"pitch": 65, "velocity": 62, "note_on_time": 8.944, "note_off_time": 9.32}, {"pitch": 62, "velocity": 63, "note_on_time": 9.301, "note_off_time": 9.702}, {"pitch": 64, "velocity": 70, "note_on_time": 9.685, "note_off_time": 10.075}, {"pitch": 60, "velocity": 76, "note_on_time": 10.082, "note_off_time": 10.451}, {"pitch": 67, "velocity": 66, "note_on_time": 10.449, "note_off_time": 10.859}, {"pitch": 64, "velocity": 66, "note_on_time": 10.833, "note_off_time": 11.191}, {"pitch": 60, "velocity": 82, "note_on_time": 11.207, "note_off_time": 11.516}, {"pitch": 60, "velocity": 79, "note_on_time": 11.995, "note_off_time": 12.144}, {"pitch": 60, "velocity": 82, "note_on_time": 12.351, "note_off_time": 12.499}, {"pitch": 60, "velocity": 94, "note_on_time": 12.735, "note_off_time": 12.9}]</notes><guidance name="Guidance Mode">None</guidance><error name="Error value">0.03272175000000005</error></trial></trials></MIDI>