<MIDI midiNo="2022_12_22-11_11_25"><target_notes><notes name="Note List">[{"pitch": 42, "velocity": 80, "note_on_time": 0.005, "note_off_time": 0.74}, {"pitch": 42, "velocity": 80, "note_on_time": 0.74, "note_off_time": 1.471}, {"pitch": 42, "velocity": 80, "note_on_time": 1.471, "note_off_time": 2.201}, {"pitch": 42, "velocity": 80, "note_on_time": 2.202, "note_off_time": 2.934}, {"pitch": 60, "velocity": 80, "note_on_time": 2.934, "note_off_time": 3.665}, {"pitch": 42, "velocity": 80, "note_on_time": 2.934, "note_off_time": 3.665}, {"pitch": 62, "velocity": 80, "note_on_time": 3.665, "note_off_time": 4.394}, {"pitch": 42, "velocity": 80, "note_on_time": 3.665, "note_off_time": 4.394}, {"pitch": 62, "velocity": 80, "note_on_time": 4.394, "note_off_time": 5.123}, {"pitch": 42, "velocity": 80, "note_on_time": 4.394, "note_off_time": 5.123}, {"pitch": 64, "velocity": 80, "note_on_time": 5.123, "note_off_time": 5.855}, {"pitch": 42, "velocity": 80, "note_on_time": 5.124, "note_off_time": 5.855}, {"pitch": 60, "velocity": 80, "note_on_time": 5.855, "note_off_time": 6.591}, {"pitch": 42, "velocity": 80, "note_on_time": 5.856, "note_off_time": 6.591}, {"pitch": 60, "velocity": 80, "note_on_time": 6.591, "note_off_time": 7.327}, {"pitch": 42, "velocity": 80, "note_on_time": 6.591, "note_off_time": 7.328}, {"pitch": 62, "velocity": 80, "note_on_time": 7.327, "note_off_time": 8.061}, {"pitch": 42, "velocity": 80, "note_on_time": 7.328, "note_off_time": 8.061}, {"pitch": 64, "velocity": 80, "note_on_time": 8.061, "note_off_time": 8.796}, {"pitch": 42, "velocity": 80, "note_on_time": 8.062, "note_off_time": 8.796}, {"pitch": 64, "velocity": 80, "note_on_time": 8.796, "note_off_time": 9.526}, {"pitch": 42, "velocity": 80, "note_on_time": 8.796, "note_off_time": 9.526}, {"pitch": 60, "velocity": 80, "note_on_time": 9.526, "note_off_time": 10.253}, {"pitch": 42, "velocity": 80, "note_on_time": 9.526, "note_off_time": 10.253}, {"pitch": 62, "velocity": 80, "note_on_time": 10.253, "note_off_time": 10.982}, {"pitch": 42, "velocity": 80, "note_on_time": 10.254, "note_off_time": 10.982}, {"pitch": 60, "velocity": 80, "note_on_time": 10.982, "note_off_time": 11.713}, {"pitch": 42, "velocity": 80, "note_on_time": 10.983, "note_off_time": 11.713}, {"pitch": 60, "velocity": 80, "note_on_time": 11.713, "note_off_time": 12.447}, {"pitch": 42, "velocity": 80, "note_on_time": 11.713, "note_off_time": 12.447}, {"pitch": 60, "velocity": 80, "note_on_time": 12.447, "note_off_time": 13.176}, {"pitch": 42, "velocity": 80, "note_on_time": 12.448, "note_off_time": 13.176}, {"pitch": 64, "velocity": 80, "note_on_time": 13.176, "note_off_time": 13.91}, {"pitch": 42, "velocity": 80, "note_on_time": 13.176, "note_off_time": 13.911}, {"pitch": 62, "velocity": 80, "note_on_time": 13.91, "note_off_time": 14.644}, {"pitch": 42, "velocity": 80, "note_on_time": 13.911, "note_off_time": 14.644}, {"pitch": 42, "velocity": 80, "note_on_time": 14.644, "note_off_time": 15.377}, {"pitch": 64, "velocity": 80, "note_on_time": 14.644, "note_off_time": 16.106}, {"pitch": 42, "velocity": 80, "note_on_time": 15.377, "note_off_time": 16.106}, {"pitch": 42, "velocity": 80, "note_on_time": 16.107, "note_off_time": 16.839}, {"pitch": 62, "velocity": 80, "note_on_time": 16.839, "note_off_time": 17.573}, {"pitch": 42, "velocity": 80, "note_on_time": 16.839, "note_off_time": 17.573}, {"pitch": 64, "velocity": 80, "note_on_time": 17.573, "note_off_time": 18.305}, {"pitch": 42, "velocity": 80, "note_on_time": 17.573, "note_off_time": 18.305}, {"pitch": 64, "velocity": 80, "note_on_time": 18.305, "note_off_time": 19.04}, {"pitch": 42, "velocity": 80, "note_on_time": 18.305, "note_off_time": 19.04}, {"pitch": 64, "velocity": 80, "note_on_time": 19.04, "note_off_time": 19.771}, {"pitch": 42, "velocity": 80, "note_on_time": 19.041, "note_off_time": 19.771}, {"pitch": 64, "velocity": 80, "note_on_time": 19.771, "note_off_time": 20.505}, {"pitch": 42, "velocity": 80, "note_on_time": 19.772, "note_off_time": 20.506}, {"pitch": 64, "velocity": 80, "note_on_time": 20.505, "note_off_time": 21.237}, {"pitch": 42, "velocity": 80, "note_on_time": 20.506, "note_off_time": 21.237}, {"pitch": 62, "velocity": 80, "note_on_time": 21.237, "note_off_time": 21.969}, {"pitch": 42, "velocity": 80, "note_on_time": 21.237, "note_off_time": 21.969}, {"pitch": 62, "velocity": 80, "note_on_time": 21.969, "note_off_time": 22.699}, {"pitch": 42, "velocity": 80, "note_on_time": 21.969, "note_off_time": 22.699}, {"pitch": 42, "velocity": 80, "note_on_time": 22.699, "note_off_time": 23.433}, {"pitch": 42, "velocity": 80, "note_on_time": 23.433, "note_off_time": 24.168}, {"pitch": 62, "velocity": 80, "note_on_time": 24.168, "note_off_time": 24.9}, {"pitch": 42, "velocity": 80, "note_on_time": 24.168, "note_off_time": 24.9}, {"pitch": 62, "velocity": 80, "note_on_time": 24.9, "note_off_time": 25.632}, {"pitch": 42, "velocity": 80, "note_on_time": 24.9, "note_off_time": 25.633}, {"pitch": 62, "velocity": 80, "note_on_time": 25.632, "note_off_time": 26.363}, {"pitch": 42, "velocity": 80, "note_on_time": 25.633, "note_off_time": 26.363}]</notes><options name="Option List">((4, 4), [0.5, 0.25], 3, 8, &lt;NoteRangePerHand.THREE_NOTES: 4&gt;, &lt;NoteRangePerHand.ONE_NOTE: 2&gt;, False, True, False, 83)</options></target_notes><trials><trial trial_no="1" timestamp="2022_12_22-11_10_57"><notes name="Played Notes">[{"pitch": 72, "velocity": 58, "note_on_time": 2.911, "note_off_time": 3.476}, {"pitch": 74, "velocity": 61, "note_on_time": 3.674, "note_off_time": 4.081}, {"pitch": 60, "velocity": 60, "note_on_time": 5.746, "note_off_time": 5.802}, {"pitch": 60, "velocity": 57, "note_on_time": 5.912, "note_off_time": 5.98}]</notes><guidance name="Guidance Mode">None</guidance><error name="Error value">1.7628910000000007</error></trial><trial trial_no="2" timestamp="2022_12_22-11_11_33"><notes name="Played Notes">[{"pitch": 60, "velocity": 58, "note_on_time": 2.936, "note_off_time": 3.494}, {"pitch": 62, "velocity": 65, "note_on_time": 3.632, "note_off_time": 3.984}, {"pitch": 62, "velocity": 57, "note_on_time": 4.359, "note_off_time": 4.764}, {"pitch": 64, "velocity": 60, "note_on_time": 5.073, "note_off_time": 5.529}, {"pitch": 60, "velocity": 57, "note_on_time": 5.782, "note_off_time": 6.184}, {"pitch": 60, "velocity": 59, "note_on_time": 6.549, "note_off_time": 6.917}, {"pitch": 62, "velocity": 39, "note_on_time": 7.316, "note_off_time": 7.672}, {"pitch": 64, "velocity": 39, "note_on_time": 8.006, "note_off_time": 8.398}, {"pitch": 64, "velocity": 37, "note_on_time": 8.769, "note_off_time": 9.168}, {"pitch": 60, "velocity": 44, "note_on_time": 9.48, "note_off_time": 9.961}, {"pitch": 62, "velocity": 52, "note_on_time": 10.224, "note_off_time": 10.612}, {"pitch": 60, "velocity": 53, "note_on_time": 10.945, "note_off_time": 11.332}, {"pitch": 60, "velocity": 51, "note_on_time": 11.661, "note_off_time": 11.975}, {"pitch": 60, "velocity": 59, "note_on_time": 12.401, "note_off_time": 12.789}, {"pitch": 62, "velocity": 56, "note_on_time": 13.133, "note_off_time": 13.509}, {"pitch": 60, "velocity": 62, "note_on_time": 13.844, "note_off_time": 14.063}, {"pitch": 64, "velocity": 52, "note_on_time": 15.292, "note_off_time": 15.89}, {"pitch": 62, "velocity": 65, "note_on_time": 16.884, "note_off_time": 17.206}, {"pitch": 64, "velocity": 64, "note_on_time": 17.53, "note_off_time": 17.9}, {"pitch": 64, "velocity": 58, "note_on_time": 18.249, "note_off_time": 18.559}, {"pitch": 64, "velocity": 59, "note_on_time": 18.969, "note_off_time": 19.292}, {"pitch": 64, "velocity": 52, "note_on_time": 19.708, "note_off_time": 19.996}, {"pitch": 64, "velocity": 58, "note_on_time": 20.436, "note_off_time": 20.793}, {"pitch": 62, "velocity": 41, "note_on_time": 21.137, "note_off_time": 21.479}, {"pitch": 62, "velocity": 54, "note_on_time": 21.876, "note_off_time": 22.23}, {"pitch": 62, "velocity": 52, "note_on_time": 24.091, "note_off_time": 24.398}, {"pitch": 62, "velocity": 46, "note_on_time": 24.778, "note_off_time": 25.098}, {"pitch": 62, "velocity": 42, "note_on_time": 25.55, "note_off_time": 25.785}]</notes><guidance name="Guidance Mode">None</guidance><error name="Error value">0.15483563999999994</error></trial><trial trial_no="3" timestamp="2022_12_22-11_12_08"><notes name="Played Notes">[{"pitch": 60, "velocity": 12, "note_on_time": 3.001, "note_off_time": 3.385}, {"pitch": 62, "velocity": 46, "note_on_time": 3.699, "note_off_time": 4.049}, {"pitch": 62, "velocity": 53, "note_on_time": 4.429, "note_off_time": 4.772}, {"pitch": 64, "velocity": 56, "note_on_time": 5.148, "note_off_time": 5.548}, {"pitch": 60, "velocity": 49, "note_on_time": 5.851, "note_off_time": 6.245}, {"pitch": 60, "velocity": 55, "note_on_time": 6.581, "note_off_time": 6.965}, {"pitch": 62, "velocity": 54, "note_on_time": 7.315, "note_off_time": 7.701}, {"pitch": 64, "velocity": 55, "note_on_time": 8.074, "note_off_time": 8.4}, {"pitch": 64, "velocity": 54, "note_on_time": 8.773, "note_off_time": 9.125}, {"pitch": 60, "velocity": 53, "note_on_time": 9.447, "note_off_time": 9.874}, {"pitch": 62, "velocity": 52, "note_on_time": 10.174, "note_off_time": 10.522}, {"pitch": 60, "velocity": 55, "note_on_time": 10.888, "note_off_time": 11.253}, {"pitch": 60, "velocity": 64, "note_on_time": 11.618, "note_off_time": 11.963}, {"pitch": 60, "velocity": 59, "note_on_time": 12.383, "note_off_time": 12.717}, {"pitch": 64, "velocity": 43, "note_on_time": 13.134, "note_off_time": 13.511}, {"pitch": 62, "velocity": 58, "note_on_time": 13.832, "note_off_time": 14.167}, {"pitch": 64, "velocity": 60, "note_on_time": 14.532, "note_off_time": 15.554}, {"pitch": 64, "velocity": 46, "note_on_time": 16.146, "note_off_time": 16.551}, {"pitch": 64, "velocity": 44, "note_on_time": 17.545, "note_off_time": 17.877}, {"pitch": 64, "velocity": 52, "note_on_time": 18.307, "note_off_time": 18.571}, {"pitch": 64, "velocity": 49, "note_on_time": 18.992, "note_off_time": 19.314}, {"pitch": 64, "velocity": 53, "note_on_time": 19.715, "note_off_time": 20.049}, {"pitch": 62, "velocity": 55, "note_on_time": 20.451, "note_off_time": 20.759}, {"pitch": 62, "velocity": 56, "note_on_time": 21.15, "note_off_time": 21.459}, {"pitch": 62, "velocity": 52, "note_on_time": 23.309, "note_off_time": 23.607}, {"pitch": 62, "velocity": 49, "note_on_time": 24.028, "note_off_time": 24.336}, {"pitch": 62, "velocity": 55, "note_on_time": 24.765, "note_off_time": 25.036}]</notes><guidance name="Guidance Mode">None</guidance><error name="Error value">0.11447128000000012</error></trial><trial trial_no="4" timestamp="2022_12_22-11_12_42"><notes name="Played Notes">[{"pitch": 60, "velocity": 51, "note_on_time": 2.946, "note_off_time": 3.485}, {"pitch": 62, "velocity": 48, "note_on_time": 3.694, "note_off_time": 4.025}, {"pitch": 62, "velocity": 54, "note_on_time": 4.399, "note_off_time": 4.723}, {"pitch": 64, "velocity": 58, "note_on_time": 5.108, "note_off_time": 5.46}, {"pitch": 60, "velocity": 57, "note_on_time": 5.854, "note_off_time": 6.22}, {"pitch": 60, "velocity": 53, "note_on_time": 6.696, "note_off_time": 6.96}, {"pitch": 62, "velocity": 56, "note_on_time": 7.312, "note_off_time": 7.671}, {"pitch": 64, "velocity": 39, "note_on_time": 8.015, "note_off_time": 8.323}, {"pitch": 64, "velocity": 43, "note_on_time": 8.737, "note_off_time": 9.058}, {"pitch": 60, "velocity": 57, "note_on_time": 9.407, "note_off_time": 9.774}, {"pitch": 62, "velocity": 51, "note_on_time": 10.195, "note_off_time": 10.553}, {"pitch": 60, "velocity": 56, "note_on_time": 10.932, "note_off_time": 11.289}, {"pitch": 60, "velocity": 50, "note_on_time": 11.691, "note_off_time": 11.997}, {"pitch": 60, "velocity": 54, "note_on_time": 12.433, "note_off_time": 12.744}, {"pitch": 64, "velocity": 61, "note_on_time": 13.176, "note_off_time": 13.543}, {"pitch": 62, "velocity": 46, "note_on_time": 13.897, "note_off_time": 14.229}, {"pitch": 64, "velocity": 57, "note_on_time": 14.573, "note_off_time": 15.502}, {"pitch": 62, "velocity": 49, "note_on_time": 16.833, "note_off_time": 17.204}, {"pitch": 64, "velocity": 58, "note_on_time": 17.575, "note_off_time": 17.923}, {"pitch": 64, "velocity": 47, "note_on_time": 18.302, "note_off_time": 18.589}, {"pitch": 64, "velocity": 52, "note_on_time": 18.985, "note_off_time": 19.314}, {"pitch": 64, "velocity": 54, "note_on_time": 19.718, "note_off_time": 20.021}, {"pitch": 64, "velocity": 47, "note_on_time": 20.431, "note_off_time": 20.783}, {"pitch": 62, "velocity": 48, "note_on_time": 21.2, "note_off_time": 21.523}, {"pitch": 62, "velocity": 60, "note_on_time": 21.965, "note_off_time": 22.247}, {"pitch": 62, "velocity": 49, "note_on_time": 24.109, "note_off_time": 24.462}, {"pitch": 62, "velocity": 53, "note_on_time": 24.817, "note_off_time": 25.169}, {"pitch": 62, "velocity": 50, "note_on_time": 25.553, "note_off_time": 25.84}]</notes><guidance name="Guidance Mode">None</guidance><error name="Error value">0.03593307999999988</error></trial></trials></MIDI>