<MIDI midiNo="2022_09_29-13_04_29"><target_notes><notes name="Note List">[{"pitch": 42, "velocity": 80, "note_on_time": 0.004, "note_off_time": 0.295}, {"pitch": 42, "velocity": 80, "note_on_time": 0.295, "note_off_time": 0.589}, {"pitch": 42, "velocity": 80, "note_on_time": 0.589, "note_off_time": 0.87}, {"pitch": 42, "velocity": 80, "note_on_time": 0.87, "note_off_time": 1.165}, {"pitch": 42, "velocity": 80, "note_on_time": 1.166, "note_off_time": 1.46}, {"pitch": 64, "velocity": 80, "note_on_time": 1.165, "note_off_time": 1.755}, {"pitch": 42, "velocity": 80, "note_on_time": 1.46, "note_off_time": 1.755}, {"pitch": 42, "velocity": 80, "note_on_time": 1.756, "note_off_time": 2.051}, {"pitch": 42, "velocity": 80, "note_on_time": 2.051, "note_off_time": 2.346}, {"pitch": 60, "velocity": 80, "note_on_time": 2.346, "note_off_time": 2.631}, {"pitch": 42, "velocity": 80, "note_on_time": 2.347, "note_off_time": 2.631}, {"pitch": 42, "velocity": 80, "note_on_time": 2.631, "note_off_time": 2.924}, {"pitch": 64, "velocity": 80, "note_on_time": 2.924, "note_off_time": 3.205}, {"pitch": 42, "velocity": 80, "note_on_time": 2.924, "note_off_time": 3.205}, {"pitch": 64, "velocity": 80, "note_on_time": 3.205, "note_off_time": 3.5}, {"pitch": 42, "velocity": 80, "note_on_time": 3.206, "note_off_time": 3.5}, {"pitch": 64, "velocity": 80, "note_on_time": 3.5, "note_off_time": 3.782}, {"pitch": 42, "velocity": 80, "note_on_time": 3.5, "note_off_time": 3.783}, {"pitch": 64, "velocity": 80, "note_on_time": 3.782, "note_off_time": 4.078}, {"pitch": 42, "velocity": 80, "note_on_time": 3.783, "note_off_time": 4.078}, {"pitch": 62, "velocity": 80, "note_on_time": 4.078, "note_off_time": 4.374}, {"pitch": 42, "velocity": 80, "note_on_time": 4.079, "note_off_time": 4.374}, {"pitch": 60, "velocity": 80, "note_on_time": 4.374, "note_off_time": 4.67}, {"pitch": 42, "velocity": 80, "note_on_time": 4.375, "note_off_time": 4.67}, {"pitch": 64, "velocity": 80, "note_on_time": 4.67, "note_off_time": 4.953}, {"pitch": 42, "velocity": 80, "note_on_time": 4.671, "note_off_time": 4.953}, {"pitch": 60, "velocity": 80, "note_on_time": 4.953, "note_off_time": 5.246}, {"pitch": 42, "velocity": 80, "note_on_time": 4.953, "note_off_time": 5.246}, {"pitch": 62, "velocity": 80, "note_on_time": 5.246, "note_off_time": 5.542}, {"pitch": 42, "velocity": 80, "note_on_time": 5.246, "note_off_time": 5.542}, {"pitch": 62, "velocity": 80, "note_on_time": 5.542, "note_off_time": 5.837}, {"pitch": 42, "velocity": 80, "note_on_time": 5.543, "note_off_time": 5.837}, {"pitch": 64, "velocity": 80, "note_on_time": 5.837, "note_off_time": 6.132}, {"pitch": 42, "velocity": 80, "note_on_time": 5.837, "note_off_time": 6.132}, {"pitch": 42, "velocity": 80, "note_on_time": 6.133, "note_off_time": 6.427}, {"pitch": 64, "velocity": 80, "note_on_time": 6.132, "note_off_time": 6.722}, {"pitch": 42, "velocity": 80, "note_on_time": 6.427, "note_off_time": 6.722}, {"pitch": 62, "velocity": 80, "note_on_time": 6.722, "note_off_time": 7.017}, {"pitch": 42, "velocity": 80, "note_on_time": 6.722, "note_off_time": 7.018}, {"pitch": 62, "velocity": 80, "note_on_time": 7.017, "note_off_time": 7.312}, {"pitch": 42, "velocity": 80, "note_on_time": 7.018, "note_off_time": 7.312}, {"pitch": 64, "velocity": 80, "note_on_time": 7.312, "note_off_time": 7.606}, {"pitch": 42, "velocity": 80, "note_on_time": 7.312, "note_off_time": 7.607}, {"pitch": 60, "velocity": 80, "note_on_time": 7.606, "note_off_time": 7.901}, {"pitch": 42, "velocity": 80, "note_on_time": 7.607, "note_off_time": 7.901}, {"pitch": 60, "velocity": 80, "note_on_time": 7.901, "note_off_time": 8.197}, {"pitch": 42, "velocity": 80, "note_on_time": 7.902, "note_off_time": 8.197}, {"pitch": 64, "velocity": 80, "note_on_time": 8.197, "note_off_time": 8.492}, {"pitch": 42, "velocity": 80, "note_on_time": 8.198, "note_off_time": 8.492}, {"pitch": 64, "velocity": 80, "note_on_time": 8.492, "note_off_time": 8.773}, {"pitch": 42, "velocity": 80, "note_on_time": 8.493, "note_off_time": 8.773}, {"pitch": 60, "velocity": 80, "note_on_time": 8.773, "note_off_time": 9.068}, {"pitch": 42, "velocity": 80, "note_on_time": 8.773, "note_off_time": 9.068}, {"pitch": 42, "velocity": 80, "note_on_time": 9.068, "note_off_time": 9.363}, {"pitch": 42, "velocity": 80, "note_on_time": 9.363, "note_off_time": 9.659}, {"pitch": 60, "velocity": 80, "note_on_time": 9.659, "note_off_time": 9.952}, {"pitch": 42, "velocity": 80, "note_on_time": 9.659, "note_off_time": 9.952}, {"pitch": 60, "velocity": 80, "note_on_time": 9.952, "note_off_time": 10.245}, {"pitch": 42, "velocity": 80, "note_on_time": 9.952, "note_off_time": 10.245}, {"pitch": 60, "velocity": 80, "note_on_time": 10.245, "note_off_time": 10.527}, {"pitch": 42, "velocity": 80, "note_on_time": 10.246, "note_off_time": 10.527}]</notes><options name="Option List">((4, 4), [0.5, 0.25], 3, 8, &lt;NoteRangePerHand.THREE_NOTES: 4&gt;, &lt;NoteRangePerHand.ONE_NOTE: 2&gt;, False, True, False, '215')</options></target_notes><trials><trial trial_no="1" timestamp="2022_09_29-13_04_17"><notes name="Played Notes">[{"pitch": 64, "velocity": 82, "note_on_time": 1.176, "note_off_time": 2.004}, {"pitch": 60, "velocity": 91, "note_on_time": 2.318, "note_off_time": 2.834}, {"pitch": 64, "velocity": 84, "note_on_time": 2.928, "note_off_time": 3.078}, {"pitch": 64, "velocity": 80, "note_on_time": 3.208, "note_off_time": 3.347}, {"pitch": 64, "velocity": 87, "note_on_time": 3.508, "note_off_time": 3.632}, {"pitch": 64, "velocity": 73, "note_on_time": 3.788, "note_off_time": 3.939}, {"pitch": 62, "velocity": 83, "note_on_time": 4.093, "note_off_time": 4.362}, {"pitch": 60, "velocity": 81, "note_on_time": 4.376, "note_off_time": 4.535}, {"pitch": 64, "velocity": 80, "note_on_time": 4.656, "note_off_time": 4.953}, {"pitch": 60, "velocity": 81, "note_on_time": 4.968, "note_off_time": 5.15}, {"pitch": 62, "velocity": 81, "note_on_time": 5.258, "note_off_time": 5.39}, {"pitch": 62, "velocity": 81, "note_on_time": 5.544, "note_off_time": 5.695}, {"pitch": 64, "velocity": 92, "note_on_time": 5.86, "note_off_time": 5.992}, {"pitch": 64, "velocity": 91, "note_on_time": 6.122, "note_off_time": 6.657}, {"pitch": 60, "velocity": 95, "note_on_time": 6.738, "note_off_time": 7.149}, {"pitch": 62, "velocity": 75, "note_on_time": 7.296, "note_off_time": 7.451}, {"pitch": 62, "velocity": 86, "note_on_time": 7.598, "note_off_time": 7.685}, {"pitch": 64, "velocity": 80, "note_on_time": 7.852, "note_off_time": 8.041}, {"pitch": 60, "velocity": 94, "note_on_time": 8.186, "note_off_time": 8.301}, {"pitch": 60, "velocity": 83, "note_on_time": 8.467, "note_off_time": 8.599}, {"pitch": 64, "velocity": 83, "note_on_time": 8.751, "note_off_time": 8.887}, {"pitch": 64, "velocity": 86, "note_on_time": 9.05, "note_off_time": 9.182}, {"pitch": 60, "velocity": 86, "note_on_time": 9.355, "note_off_time": 10.137}, {"pitch": 60, "velocity": 94, "note_on_time": 10.294, "note_off_time": 10.398}]</notes><guidance name="Guidance Mode">None</guidance><error name="Error value">0.3415344545454547</error></trial><trial trial_no="2" timestamp="2022_09_29-13_04_43"><notes name="Played Notes">[{"pitch": 64, "velocity": 90, "note_on_time": 1.143, "note_off_time": 2.001}, {"pitch": 60, "velocity": 98, "note_on_time": 2.325, "note_off_time": 2.767}, {"pitch": 64, "velocity": 91, "note_on_time": 2.9, "note_off_time": 3.019}, {"pitch": 64, "velocity": 88, "note_on_time": 3.172, "note_off_time": 3.302}, {"pitch": 64, "velocity": 85, "note_on_time": 3.484, "note_off_time": 3.603}, {"pitch": 64, "velocity": 87, "note_on_time": 3.76, "note_off_time": 3.892}, {"pitch": 62, "velocity": 83, "note_on_time": 4.039, "note_off_time": 4.216}, {"pitch": 60, "velocity": 90, "note_on_time": 4.331, "note_off_time": 4.49}, {"pitch": 62, "velocity": 85, "note_on_time": 4.615, "note_off_time": 4.796}, {"pitch": 64, "velocity": 82, "note_on_time": 4.895, "note_off_time": 5.044}, {"pitch": 60, "velocity": 80, "note_on_time": 5.197, "note_off_time": 5.325}, {"pitch": 62, "velocity": 74, "note_on_time": 5.496, "note_off_time": 5.601}, {"pitch": 62, "velocity": 67, "note_on_time": 5.79, "note_off_time": 5.932}, {"pitch": 64, "velocity": 83, "note_on_time": 6.082, "note_off_time": 6.218}, {"pitch": 64, "velocity": 85, "note_on_time": 6.391, "note_off_time": 6.789}, {"pitch": 60, "velocity": 98, "note_on_time": 6.954, "note_off_time": 7.323}, {"pitch": 60, "velocity": 82, "note_on_time": 7.536, "note_off_time": 7.659}, {"pitch": 64, "velocity": 77, "note_on_time": 7.88, "note_off_time": 8.013}, {"pitch": 60, "velocity": 77, "note_on_time": 8.124, "note_off_time": 8.243}, {"pitch": 60, "velocity": 86, "note_on_time": 8.44, "note_off_time": 8.557}, {"pitch": 64, "velocity": 78, "note_on_time": 8.718, "note_off_time": 8.834}, {"pitch": 64, "velocity": 80, "note_on_time": 9.003, "note_off_time": 9.131}, {"pitch": 60, "velocity": 85, "note_on_time": 9.315, "note_off_time": 9.944}, {"pitch": 60, "velocity": 97, "note_on_time": 10.179, "note_off_time": 10.281}]</notes><guidance name="Guidance Mode">None</guidance><error name="Error value">0.6516112727272726</error></trial><trial trial_no="3" timestamp="2022_09_29-13_05_21"><notes name="Played Notes">[{"pitch": 64, "velocity": 88, "note_on_time": 1.142, "note_off_time": 1.99}, {"pitch": 60, "velocity": 92, "note_on_time": 2.275, "note_off_time": 2.665}, {"pitch": 64, "velocity": 88, "note_on_time": 2.822, "note_off_time": 2.951}, {"pitch": 64, "velocity": 79, "note_on_time": 3.117, "note_off_time": 3.243}, {"pitch": 64, "velocity": 86, "note_on_time": 3.447, "note_off_time": 3.566}, {"pitch": 64, "velocity": 71, "note_on_time": 3.739, "note_off_time": 3.87}, {"pitch": 62, "velocity": 79, "note_on_time": 4.042, "note_off_time": 4.181}, {"pitch": 60, "velocity": 82, "note_on_time": 4.344, "note_off_time": 4.44}, {"pitch": 64, "velocity": 79, "note_on_time": 4.624, "note_off_time": 4.795}, {"pitch": 60, "velocity": 87, "note_on_time": 4.925, "note_off_time": 5.044}, {"pitch": 62, "velocity": 92, "note_on_time": 5.216, "note_off_time": 5.32}, {"pitch": 62, "velocity": 84, "note_on_time": 5.521, "note_off_time": 5.628}, {"pitch": 64, "velocity": 80, "note_on_time": 5.807, "note_off_time": 5.936}, {"pitch": 64, "velocity": 82, "note_on_time": 6.092, "note_off_time": 6.463}, {"pitch": 62, "velocity": 82, "note_on_time": 6.67, "note_off_time": 6.787}, {"pitch": 62, "velocity": 85, "note_on_time": 6.95, "note_off_time": 7.095}, {"pitch": 60, "velocity": 76, "note_on_time": 7.229, "note_off_time": 7.302}, {"pitch": 64, "velocity": 83, "note_on_time": 7.426, "note_off_time": 7.55}, {"pitch": 60, "velocity": 79, "note_on_time": 7.67, "note_off_time": 7.759}, {"pitch": 60, "velocity": 76, "note_on_time": 7.899, "note_off_time": 7.995}, {"pitch": 64, "velocity": 83, "note_on_time": 8.224, "note_off_time": 8.33}, {"pitch": 64, "velocity": 79, "note_on_time": 8.47, "note_off_time": 8.578}, {"pitch": 60, "velocity": 88, "note_on_time": 8.715, "note_off_time": 8.967}, {"pitch": 60, "velocity": 1, "note_on_time": 9.127, "note_off_time": 9.196}, {"pitch": 60, "velocity": 95, "note_on_time": 9.508, "note_off_time": 9.634}, {"pitch": 60, "velocity": 99, "note_on_time": 9.809, "note_off_time": 9.913}, {"pitch": 60, "velocity": 105, "note_on_time": 10.087, "note_off_time": 10.279}]</notes><guidance name="Guidance Mode">None</guidance><error name="Error value">0.3718745909090905</error></trial></trials></MIDI>