<MIDI midiNo="2022_11_21-16_58_56"><target_notes><notes name="Note List">[{"pitch": 42, "velocity": 80, "note_on_time": 0.004, "note_off_time": 0.25}, {"pitch": 42, "velocity": 80, "note_on_time": 0.25, "note_off_time": 0.497}, {"pitch": 42, "velocity": 80, "note_on_time": 0.497, "note_off_time": 0.745}, {"pitch": 42, "velocity": 80, "note_on_time": 0.746, "note_off_time": 0.994}, {"pitch": 42, "velocity": 80, "note_on_time": 0.994, "note_off_time": 1.241}, {"pitch": 62, "velocity": 80, "note_on_time": 0.994, "note_off_time": 1.489}, {"pitch": 42, "velocity": 80, "note_on_time": 1.242, "note_off_time": 1.489}, {"pitch": 42, "velocity": 80, "note_on_time": 1.49, "note_off_time": 1.737}, {"pitch": 62, "velocity": 80, "note_on_time": 1.489, "note_off_time": 1.987}, {"pitch": 42, "velocity": 80, "note_on_time": 1.737, "note_off_time": 1.987}, {"pitch": 64, "velocity": 80, "note_on_time": 1.987, "note_off_time": 2.236}, {"pitch": 42, "velocity": 80, "note_on_time": 1.987, "note_off_time": 2.236}, {"pitch": 62, "velocity": 80, "note_on_time": 2.236, "note_off_time": 2.484}, {"pitch": 42, "velocity": 80, "note_on_time": 2.236, "note_off_time": 2.484}, {"pitch": 64, "velocity": 80, "note_on_time": 2.484, "note_off_time": 2.732}, {"pitch": 42, "velocity": 80, "note_on_time": 2.484, "note_off_time": 2.733}, {"pitch": 62, "velocity": 80, "note_on_time": 2.732, "note_off_time": 2.98}, {"pitch": 42, "velocity": 80, "note_on_time": 2.733, "note_off_time": 2.98}, {"pitch": 62, "velocity": 80, "note_on_time": 2.98, "note_off_time": 3.23}, {"pitch": 42, "velocity": 80, "note_on_time": 2.98, "note_off_time": 3.23}, {"pitch": 64, "velocity": 80, "note_on_time": 3.23, "note_off_time": 3.48}, {"pitch": 42, "velocity": 80, "note_on_time": 3.23, "note_off_time": 3.48}, {"pitch": 64, "velocity": 80, "note_on_time": 3.48, "note_off_time": 3.729}, {"pitch": 42, "velocity": 80, "note_on_time": 3.481, "note_off_time": 3.73}, {"pitch": 60, "velocity": 80, "note_on_time": 3.729, "note_off_time": 3.977}, {"pitch": 42, "velocity": 80, "note_on_time": 3.73, "note_off_time": 3.977}, {"pitch": 42, "velocity": 80, "note_on_time": 3.977, "note_off_time": 4.225}, {"pitch": 62, "velocity": 80, "note_on_time": 3.977, "note_off_time": 4.475}, {"pitch": 42, "velocity": 80, "note_on_time": 4.225, "note_off_time": 4.475}, {"pitch": 60, "velocity": 80, "note_on_time": 4.475, "note_off_time": 4.724}, {"pitch": 42, "velocity": 80, "note_on_time": 4.475, "note_off_time": 4.725}, {"pitch": 60, "velocity": 80, "note_on_time": 4.724, "note_off_time": 4.972}, {"pitch": 42, "velocity": 80, "note_on_time": 4.725, "note_off_time": 4.972}, {"pitch": 60, "velocity": 80, "note_on_time": 4.972, "note_off_time": 5.221}, {"pitch": 42, "velocity": 80, "note_on_time": 4.972, "note_off_time": 5.221}, {"pitch": 64, "velocity": 80, "note_on_time": 5.221, "note_off_time": 5.469}, {"pitch": 42, "velocity": 80, "note_on_time": 5.222, "note_off_time": 5.469}, {"pitch": 64, "velocity": 80, "note_on_time": 5.469, "note_off_time": 5.721}, {"pitch": 42, "velocity": 80, "note_on_time": 5.47, "note_off_time": 5.722}, {"pitch": 62, "velocity": 80, "note_on_time": 5.721, "note_off_time": 5.971}, {"pitch": 42, "velocity": 80, "note_on_time": 5.722, "note_off_time": 5.971}, {"pitch": 42, "velocity": 80, "note_on_time": 5.971, "note_off_time": 6.221}, {"pitch": 60, "velocity": 80, "note_on_time": 5.971, "note_off_time": 6.472}, {"pitch": 42, "velocity": 80, "note_on_time": 6.221, "note_off_time": 6.473}, {"pitch": 42, "velocity": 80, "note_on_time": 6.473, "note_off_time": 6.719}, {"pitch": 62, "velocity": 80, "note_on_time": 6.472, "note_off_time": 6.968}, {"pitch": 42, "velocity": 80, "note_on_time": 6.719, "note_off_time": 6.969}, {"pitch": 64, "velocity": 80, "note_on_time": 6.968, "note_off_time": 7.217}, {"pitch": 42, "velocity": 80, "note_on_time": 6.969, "note_off_time": 7.217}, {"pitch": 60, "velocity": 80, "note_on_time": 7.217, "note_off_time": 7.463}, {"pitch": 42, "velocity": 80, "note_on_time": 7.217, "note_off_time": 7.464}, {"pitch": 60, "velocity": 80, "note_on_time": 7.463, "note_off_time": 7.711}, {"pitch": 42, "velocity": 80, "note_on_time": 7.464, "note_off_time": 7.712}, {"pitch": 64, "velocity": 80, "note_on_time": 7.711, "note_off_time": 7.96}, {"pitch": 42, "velocity": 80, "note_on_time": 7.712, "note_off_time": 7.96}, {"pitch": 42, "velocity": 80, "note_on_time": 7.96, "note_off_time": 8.207}, {"pitch": 64, "velocity": 80, "note_on_time": 8.207, "note_off_time": 8.454}, {"pitch": 42, "velocity": 80, "note_on_time": 8.207, "note_off_time": 8.454}, {"pitch": 64, "velocity": 80, "note_on_time": 8.454, "note_off_time": 8.702}, {"pitch": 42, "velocity": 80, "note_on_time": 8.454, "note_off_time": 8.702}, {"pitch": 64, "velocity": 80, "note_on_time": 8.702, "note_off_time": 8.952}, {"pitch": 42, "velocity": 80, "note_on_time": 8.702, "note_off_time": 8.952}]</notes><options name="Option List">((4, 4), [0.5, 0.25], 3, 8, &lt;NoteRangePerHand.THREE_NOTES: 4&gt;, &lt;NoteRangePerHand.ONE_NOTE: 2&gt;, False, True, False, 248)</options></target_notes><trials><trial trial_no="1" timestamp="2022_11_21-16_58_46"><notes name="Played Notes">[{"pitch": 62, "velocity": 82, "note_on_time": 0.993, "note_off_time": 1.374}, {"pitch": 62, "velocity": 80, "note_on_time": 1.529, "note_off_time": 1.904}, {"pitch": 64, "velocity": 78, "note_on_time": 2.063, "note_off_time": 2.295}, {"pitch": 62, "velocity": 71, "note_on_time": 2.346, "note_off_time": 2.567}, {"pitch": 64, "velocity": 70, "note_on_time": 2.597, "note_off_time": 2.865}, {"pitch": 62, "velocity": 72, "note_on_time": 2.846, "note_off_time": 3.038}, {"pitch": 62, "velocity": 77, "note_on_time": 3.135, "note_off_time": 3.393}, {"pitch": 64, "velocity": 65, "note_on_time": 3.364, "note_off_time": 3.521}, {"pitch": 64, "velocity": 64, "note_on_time": 3.625, "note_off_time": 3.866}, {"pitch": 60, "velocity": 72, "note_on_time": 3.863, "note_off_time": 4.045}, {"pitch": 62, "velocity": 74, "note_on_time": 4.143, "note_off_time": 4.548}, {"pitch": 60, "velocity": 87, "note_on_time": 4.676, "note_off_time": 4.841}, {"pitch": 60, "velocity": 75, "note_on_time": 4.946, "note_off_time": 5.11}, {"pitch": 60, "velocity": 64, "note_on_time": 5.186, "note_off_time": 5.379}, {"pitch": 64, "velocity": 77, "note_on_time": 5.477, "note_off_time": 5.626}, {"pitch": 64, "velocity": 65, "note_on_time": 5.721, "note_off_time": 5.922}, {"pitch": 62, "velocity": 69, "note_on_time": 5.982, "note_off_time": 6.154}, {"pitch": 60, "velocity": 85, "note_on_time": 6.254, "note_off_time": 6.618}, {"pitch": 62, "velocity": 81, "note_on_time": 6.785, "note_off_time": 7.122}, {"pitch": 64, "velocity": 75, "note_on_time": 7.28, "note_off_time": 7.443}, {"pitch": 60, "velocity": 80, "note_on_time": 7.531, "note_off_time": 7.655}, {"pitch": 60, "velocity": 81, "note_on_time": 7.764, "note_off_time": 7.958}, {"pitch": 64, "velocity": 73, "note_on_time": 8.04, "note_off_time": 8.231}, {"pitch": 64, "velocity": 78, "note_on_time": 8.472, "note_off_time": 8.63}, {"pitch": 64, "velocity": 73, "note_on_time": 8.719, "note_off_time": 8.874}]</notes><guidance name="Guidance Mode">None</guidance><error name="Error value">0.08126543478260867</error></trial><trial trial_no="2" timestamp="2022_11_21-16_59_34"><notes name="Played Notes">[{"pitch": 62, "velocity": 88, "note_on_time": 0.966, "note_off_time": 1.369}, {"pitch": 62, "velocity": 78, "note_on_time": 1.491, "note_off_time": 1.881}, {"pitch": 64, "velocity": 74, "note_on_time": 2.005, "note_off_time": 2.219}, {"pitch": 62, "velocity": 70, "note_on_time": 2.283, "note_off_time": 2.485}, {"pitch": 64, "velocity": 66, "note_on_time": 2.529, "note_off_time": 2.796}, {"pitch": 62, "velocity": 70, "note_on_time": 2.775, "note_off_time": 2.933}, {"pitch": 62, "velocity": 76, "note_on_time": 3.034, "note_off_time": 3.29}, {"pitch": 64, "velocity": 68, "note_on_time": 3.295, "note_off_time": 3.428}, {"pitch": 64, "velocity": 56, "note_on_time": 3.535, "note_off_time": 3.758}, {"pitch": 60, "velocity": 60, "note_on_time": 3.771, "note_off_time": 3.928}, {"pitch": 62, "velocity": 77, "note_on_time": 4.028, "note_off_time": 4.42}, {"pitch": 60, "velocity": 87, "note_on_time": 4.509, "note_off_time": 4.654}, {"pitch": 60, "velocity": 77, "note_on_time": 4.76, "note_off_time": 4.945}, {"pitch": 60, "velocity": 62, "note_on_time": 5.013, "note_off_time": 5.186}, {"pitch": 64, "velocity": 77, "note_on_time": 5.287, "note_off_time": 5.411}, {"pitch": 64, "velocity": 61, "note_on_time": 5.51, "note_off_time": 5.703}, {"pitch": 62, "velocity": 77, "note_on_time": 5.763, "note_off_time": 5.92}, {"pitch": 60, "velocity": 87, "note_on_time": 6.033, "note_off_time": 6.418}, {"pitch": 62, "velocity": 84, "note_on_time": 6.546, "note_off_time": 6.922}, {"pitch": 64, "velocity": 64, "note_on_time": 7.066, "note_off_time": 7.228}, {"pitch": 60, "velocity": 88, "note_on_time": 7.302, "note_off_time": 7.435}, {"pitch": 60, "velocity": 77, "note_on_time": 7.529, "note_off_time": 7.706}, {"pitch": 64, "velocity": 79, "note_on_time": 7.798, "note_off_time": 7.987}, {"pitch": 64, "velocity": 82, "note_on_time": 8.267, "note_off_time": 8.425}, {"pitch": 64, "velocity": 74, "note_on_time": 8.508, "note_off_time": 8.655}, {"pitch": 64, "velocity": 75, "note_on_time": 8.754, "note_off_time": 8.949}]</notes><guidance name="Guidance Mode">None</guidance><error name="Error value">0.018291956521739226</error></trial><trial trial_no="3" timestamp="2022_11_21-17_00_02"><notes name="Played Notes">[{"pitch": 62, "velocity": 83, "note_on_time": 0.957, "note_off_time": 1.335}, {"pitch": 62, "velocity": 86, "note_on_time": 1.498, "note_off_time": 1.816}, {"pitch": 64, "velocity": 73, "note_on_time": 1.984, "note_off_time": 2.176}, {"pitch": 62, "velocity": 80, "note_on_time": 2.294, "note_off_time": 2.477}, {"pitch": 64, "velocity": 83, "note_on_time": 2.549, "note_off_time": 2.739}, {"pitch": 62, "velocity": 78, "note_on_time": 2.776, "note_off_time": 2.928}, {"pitch": 62, "velocity": 69, "note_on_time": 3.029, "note_off_time": 3.236}, {"pitch": 64, "velocity": 71, "note_on_time": 3.265, "note_off_time": 3.396}, {"pitch": 64, "velocity": 52, "note_on_time": 3.523, "note_off_time": 3.739}, {"pitch": 60, "velocity": 74, "note_on_time": 3.712, "note_off_time": 3.898}, {"pitch": 62, "velocity": 76, "note_on_time": 3.986, "note_off_time": 4.34}, {"pitch": 60, "velocity": 87, "note_on_time": 4.449, "note_off_time": 4.597}, {"pitch": 60, "velocity": 85, "note_on_time": 4.69, "note_off_time": 4.85}, {"pitch": 60, "velocity": 90, "note_on_time": 4.929, "note_off_time": 5.099}, {"pitch": 64, "velocity": 74, "note_on_time": 5.194, "note_off_time": 5.315}, {"pitch": 64, "velocity": 66, "note_on_time": 5.419, "note_off_time": 5.563}, {"pitch": 62, "velocity": 81, "note_on_time": 5.672, "note_off_time": 5.803}, {"pitch": 60, "velocity": 90, "note_on_time": 5.942, "note_off_time": 6.317}, {"pitch": 62, "velocity": 79, "note_on_time": 6.457, "note_off_time": 6.709}, {"pitch": 64, "velocity": 80, "note_on_time": 6.919, "note_off_time": 7.052}, {"pitch": 60, "velocity": 84, "note_on_time": 7.142, "note_off_time": 7.269}, {"pitch": 60, "velocity": 82, "note_on_time": 7.383, "note_off_time": 7.546}, {"pitch": 64, "velocity": 79, "note_on_time": 7.64, "note_off_time": 7.783}, {"pitch": 64, "velocity": 84, "note_on_time": 8.176, "note_off_time": 8.328}, {"pitch": 64, "velocity": 70, "note_on_time": 8.416, "note_off_time": 8.563}, {"pitch": 64, "velocity": 74, "note_on_time": 8.657, "note_off_time": 8.852}]</notes><guidance name="Guidance Mode">None</guidance><error name="Error value">0.02261717391304351</error></trial></trials></MIDI>