<MIDI midiNo="2022_12_01-10_23_31"><target_notes><notes name="Note List">[{"pitch": 42, "velocity": 80, "note_on_time": 0.004, "note_off_time": 0.756}, {"pitch": 42, "velocity": 80, "note_on_time": 0.756, "note_off_time": 1.519}, {"pitch": 42, "velocity": 80, "note_on_time": 1.52, "note_off_time": 2.28}, {"pitch": 42, "velocity": 80, "note_on_time": 2.28, "note_off_time": 3.042}, {"pitch": 62, "velocity": 80, "note_on_time": 3.042, "note_off_time": 3.804}, {"pitch": 42, "velocity": 80, "note_on_time": 3.042, "note_off_time": 3.804}, {"pitch": 62, "velocity": 80, "note_on_time": 3.804, "note_off_time": 4.567}, {"pitch": 42, "velocity": 80, "note_on_time": 3.805, "note_off_time": 4.568}, {"pitch": 60, "velocity": 80, "note_on_time": 4.567, "note_off_time": 5.332}, {"pitch": 42, "velocity": 80, "note_on_time": 4.568, "note_off_time": 5.333}, {"pitch": 60, "velocity": 80, "note_on_time": 5.332, "note_off_time": 6.084}, {"pitch": 42, "velocity": 80, "note_on_time": 5.333, "note_off_time": 6.084}, {"pitch": 62, "velocity": 80, "note_on_time": 6.084, "note_off_time": 6.85}, {"pitch": 42, "velocity": 80, "note_on_time": 6.085, "note_off_time": 6.85}, {"pitch": 60, "velocity": 80, "note_on_time": 6.85, "note_off_time": 7.612}, {"pitch": 42, "velocity": 80, "note_on_time": 6.851, "note_off_time": 7.612}, {"pitch": 60, "velocity": 80, "note_on_time": 7.612, "note_off_time": 8.371}, {"pitch": 42, "velocity": 80, "note_on_time": 7.612, "note_off_time": 8.371}, {"pitch": 60, "velocity": 80, "note_on_time": 8.371, "note_off_time": 9.137}, {"pitch": 42, "velocity": 80, "note_on_time": 8.372, "note_off_time": 9.137}, {"pitch": 62, "velocity": 80, "note_on_time": 9.137, "note_off_time": 9.894}, {"pitch": 42, "velocity": 80, "note_on_time": 9.138, "note_off_time": 9.894}, {"pitch": 60, "velocity": 80, "note_on_time": 9.894, "note_off_time": 10.654}, {"pitch": 42, "velocity": 80, "note_on_time": 9.895, "note_off_time": 10.654}, {"pitch": 62, "velocity": 80, "note_on_time": 10.654, "note_off_time": 11.419}, {"pitch": 42, "velocity": 80, "note_on_time": 10.655, "note_off_time": 11.419}, {"pitch": 62, "velocity": 80, "note_on_time": 11.419, "note_off_time": 12.181}, {"pitch": 42, "velocity": 80, "note_on_time": 11.42, "note_off_time": 12.181}, {"pitch": 60, "velocity": 80, "note_on_time": 12.181, "note_off_time": 12.944}, {"pitch": 42, "velocity": 80, "note_on_time": 12.181, "note_off_time": 12.944}, {"pitch": 60, "velocity": 80, "note_on_time": 12.944, "note_off_time": 13.705}, {"pitch": 42, "velocity": 80, "note_on_time": 12.944, "note_off_time": 13.705}, {"pitch": 60, "velocity": 80, "note_on_time": 13.705, "note_off_time": 14.47}, {"pitch": 42, "velocity": 80, "note_on_time": 13.706, "note_off_time": 14.47}, {"pitch": 62, "velocity": 80, "note_on_time": 14.47, "note_off_time": 15.232}, {"pitch": 42, "velocity": 80, "note_on_time": 14.47, "note_off_time": 15.232}, {"pitch": 62, "velocity": 80, "note_on_time": 15.232, "note_off_time": 15.993}, {"pitch": 42, "velocity": 80, "note_on_time": 15.232, "note_off_time": 15.994}, {"pitch": 42, "velocity": 80, "note_on_time": 15.994, "note_off_time": 16.756}, {"pitch": 42, "velocity": 80, "note_on_time": 16.757, "note_off_time": 17.52}, {"pitch": 42, "velocity": 80, "note_on_time": 17.52, "note_off_time": 18.282}, {"pitch": 62, "velocity": 80, "note_on_time": 18.282, "note_off_time": 19.045}, {"pitch": 42, "velocity": 80, "note_on_time": 18.283, "note_off_time": 19.045}, {"pitch": 42, "velocity": 80, "note_on_time": 19.046, "note_off_time": 19.804}, {"pitch": 42, "velocity": 80, "note_on_time": 19.804, "note_off_time": 20.564}, {"pitch": 62, "velocity": 80, "note_on_time": 20.564, "note_off_time": 21.325}, {"pitch": 42, "velocity": 80, "note_on_time": 20.564, "note_off_time": 21.326}, {"pitch": 60, "velocity": 80, "note_on_time": 21.325, "note_off_time": 22.088}, {"pitch": 42, "velocity": 80, "note_on_time": 21.326, "note_off_time": 22.089}, {"pitch": 60, "velocity": 80, "note_on_time": 22.088, "note_off_time": 22.848}, {"pitch": 42, "velocity": 80, "note_on_time": 22.089, "note_off_time": 22.848}, {"pitch": 42, "velocity": 80, "note_on_time": 22.848, "note_off_time": 23.61}, {"pitch": 42, "velocity": 80, "note_on_time": 23.61, "note_off_time": 24.373}, {"pitch": 42, "velocity": 80, "note_on_time": 24.373, "note_off_time": 25.136}, {"pitch": 60, "velocity": 80, "note_on_time": 25.136, "note_off_time": 25.898}, {"pitch": 42, "velocity": 80, "note_on_time": 25.136, "note_off_time": 25.898}, {"pitch": 60, "velocity": 80, "note_on_time": 25.898, "note_off_time": 26.662}, {"pitch": 42, "velocity": 80, "note_on_time": 25.899, "note_off_time": 26.662}, {"pitch": 60, "velocity": 80, "note_on_time": 26.662, "note_off_time": 27.425}, {"pitch": 42, "velocity": 80, "note_on_time": 26.663, "note_off_time": 27.425}]</notes><options name="Option List">((4, 4), [0.25], 3, 8, &lt;NoteRangePerHand.TWO_NOTES: 3&gt;, &lt;NoteRangePerHand.ONE_NOTE: 2&gt;, False, True, False, '80')</options></target_notes><trials><trial trial_no="1" timestamp="2022_12_01-10_23_02"><notes name="Played Notes">[{"pitch": 62, "velocity": 59, "note_on_time": 3.084, "note_off_time": 3.397}, {"pitch": 62, "velocity": 66, "note_on_time": 3.811, "note_off_time": 4.52}, {"pitch": 60, "velocity": 67, "note_on_time": 4.548, "note_off_time": 4.929}, {"pitch": 60, "velocity": 68, "note_on_time": 5.303, "note_off_time": 6.056}, {"pitch": 62, "velocity": 56, "note_on_time": 6.078, "note_off_time": 6.837}, {"pitch": 60, "velocity": 74, "note_on_time": 6.859, "note_off_time": 7.228}, {"pitch": 60, "velocity": 65, "note_on_time": 7.607, "note_off_time": 7.859}, {"pitch": 60, "velocity": 64, "note_on_time": 8.331, "note_off_time": 8.723}, {"pitch": 62, "velocity": 59, "note_on_time": 9.107, "note_off_time": 9.719}, {"pitch": 60, "velocity": 62, "note_on_time": 9.851, "note_off_time": 10.609}, {"pitch": 62, "velocity": 57, "note_on_time": 10.65, "note_off_time": 11.129}, {"pitch": 62, "velocity": 57, "note_on_time": 11.433, "note_off_time": 11.95}, {"pitch": 60, "velocity": 61, "note_on_time": 12.23, "note_off_time": 12.513}, {"pitch": 60, "velocity": 48, "note_on_time": 13.0, "note_off_time": 13.268}, {"pitch": 60, "velocity": 64, "note_on_time": 13.7, "note_off_time": 14.315}, {"pitch": 62, "velocity": 52, "note_on_time": 14.376, "note_off_time": 14.819}, {"pitch": 62, "velocity": 51, "note_on_time": 15.199, "note_off_time": 15.858}, {"pitch": 62, "velocity": 59, "note_on_time": 18.29, "note_off_time": 18.786}, {"pitch": 62, "velocity": 58, "note_on_time": 20.568, "note_off_time": 21.019}, {"pitch": 60, "velocity": 63, "note_on_time": 21.381, "note_off_time": 21.801}, {"pitch": 60, "velocity": 68, "note_on_time": 22.211, "note_off_time": 22.533}, {"pitch": 60, "velocity": 66, "note_on_time": 25.049, "note_off_time": 25.292}, {"pitch": 60, "velocity": 67, "note_on_time": 25.803, "note_off_time": 26.026}, {"pitch": 60, "velocity": 66, "note_on_time": 26.572, "note_off_time": 26.868}]</notes><guidance name="Guidance Mode">None</guidance><error name="Error value">0.04523809523809506</error></trial></trials></MIDI>