<MIDI midiNo="20220202-152547"><target_notes><notes name="Note List">[{"pitch": 60, "velocity": 100, "note_on_time": 1.225, "note_off_time": 1.832}, {"pitch": 60, "velocity": 100, "note_on_time": 2.441, "note_off_time": 2.746}, {"pitch": 64, "velocity": 100, "note_on_time": 2.746, "note_off_time": 3.049}, {"pitch": 62, "velocity": 100, "note_on_time": 3.049, "note_off_time": 3.353}, {"pitch": 62, "velocity": 100, "note_on_time": 3.353, "note_off_time": 3.657}, {"pitch": 62, "velocity": 100, "note_on_time": 3.657, "note_off_time": 3.961}, {"pitch": 60, "velocity": 100, "note_on_time": 3.961, "note_off_time": 4.265}, {"pitch": 64, "velocity": 100, "note_on_time": 4.265, "note_off_time": 4.57}, {"pitch": 64, "velocity": 100, "note_on_time": 4.57, "note_off_time": 4.876}, {"pitch": 62, "velocity": 100, "note_on_time": 4.876, "note_off_time": 5.18}, {"pitch": 62, "velocity": 100, "note_on_time": 5.181, "note_off_time": 5.789}, {"pitch": 64, "velocity": 100, "note_on_time": 5.789, "note_off_time": 6.094}, {"pitch": 64, "velocity": 100, "note_on_time": 6.094, "note_off_time": 6.398}, {"pitch": 62, "velocity": 100, "note_on_time": 6.398, "note_off_time": 6.703}, {"pitch": 62, "velocity": 100, "note_on_time": 6.703, "note_off_time": 7.008}, {"pitch": 60, "velocity": 100, "note_on_time": 7.008, "note_off_time": 7.311}, {"pitch": 60, "velocity": 100, "note_on_time": 7.311, "note_off_time": 7.616}, {"pitch": 62, "velocity": 100, "note_on_time": 7.616, "note_off_time": 7.921}, {"pitch": 62, "velocity": 100, "note_on_time": 8.226, "note_off_time": 8.528}, {"pitch": 62, "velocity": 100, "note_on_time": 8.833, "note_off_time": 9.137}, {"pitch": 62, "velocity": 100, "note_on_time": 9.137, "note_off_time": 9.441}, {"pitch": 62, "velocity": 100, "note_on_time": 9.441, "note_off_time": 9.745}]</notes><options name="Option List">((4, 4), [0.5, 0.25], 3, 7, &lt;NoteRangePerHand.THREE_NOTES: 4&gt;, &lt;NoteRangePerHand.ONE_NOTE: 2&gt;, False, True, True, 200)</options></target_notes><trials><trial trial_no="1" timestamp="20220202-152535"><notes name="Played Notes">[{"pitch": 60, "velocity": 100, "note_on_time": 1.254, "note_off_time": 1.723}, {"pitch": 60, "velocity": 100, "note_on_time": 2.452, "note_off_time": 2.771}, {"pitch": 64, "velocity": 100, "note_on_time": 2.735, "note_off_time": 3.032}, {"pitch": 62, "velocity": 100, "note_on_time": 3.02, "note_off_time": 3.145}, {"pitch": 62, "velocity": 100, "note_on_time": 3.315, "note_off_time": 3.432}, {"pitch": 62, "velocity": 100, "note_on_time": 3.604, "note_off_time": 3.936}, {"pitch": 60, "velocity": 100, "note_on_time": 3.916, "note_off_time": 4.26}, {"pitch": 64, "velocity": 100, "note_on_time": 4.222, "note_off_time": 4.333}, {"pitch": 64, "velocity": 100, "note_on_time": 4.522, "note_off_time": 4.67}, {"pitch": 62, "velocity": 100, "note_on_time": 4.837, "note_off_time": 4.938}, {"pitch": 62, "velocity": 100, "note_on_time": 5.149, "note_off_time": 5.703}, {"pitch": 64, "velocity": 100, "note_on_time": 5.753, "note_off_time": 5.894}, {"pitch": 64, "velocity": 100, "note_on_time": 6.076, "note_off_time": 6.382}, {"pitch": 62, "velocity": 100, "note_on_time": 6.367, "note_off_time": 6.47}, {"pitch": 62, "velocity": 100, "note_on_time": 6.673, "note_off_time": 6.977}, {"pitch": 60, "velocity": 100, "note_on_time": 6.956, "note_off_time": 7.108}, {"pitch": 60, "velocity": 100, "note_on_time": 7.284, "note_off_time": 7.606}, {"pitch": 62, "velocity": 100, "note_on_time": 7.572, "note_off_time": 7.811}, {"pitch": 62, "velocity": 100, "note_on_time": 8.23, "note_off_time": 8.334}, {"pitch": 62, "velocity": 100, "note_on_time": 8.867, "note_off_time": 8.965}, {"pitch": 62, "velocity": 100, "note_on_time": 9.145, "note_off_time": 9.254}, {"pitch": 62, "velocity": 100, "note_on_time": 9.417, "note_off_time": 9.592}]</notes><guidance name="Guidance Mode">None</guidance><error name="Error value">20.25984210526316</error></trial></trials></MIDI>