<MIDI midiNo="2022_08_17-14_43_35"><target_notes><notes name="Note List">[{"pitch": 42, "velocity": 80, "note_on_time": 0.004, "note_off_time": 0.409}, {"pitch": 42, "velocity": 80, "note_on_time": 0.409, "note_off_time": 0.817}, {"pitch": 42, "velocity": 80, "note_on_time": 0.817, "note_off_time": 1.219}, {"pitch": 42, "velocity": 80, "note_on_time": 1.219, "note_off_time": 1.625}, {"pitch": 60, "velocity": 80, "note_on_time": 1.625, "note_off_time": 2.031}, {"pitch": 42, "velocity": 80, "note_on_time": 1.625, "note_off_time": 2.031}, {"pitch": 65, "velocity": 80, "note_on_time": 2.031, "note_off_time": 2.432}, {"pitch": 42, "velocity": 80, "note_on_time": 2.031, "note_off_time": 2.432}, {"pitch": 60, "velocity": 80, "note_on_time": 2.432, "note_off_time": 2.839}, {"pitch": 42, "velocity": 80, "note_on_time": 2.432, "note_off_time": 2.839}, {"pitch": 67, "velocity": 80, "note_on_time": 2.839, "note_off_time": 3.246}, {"pitch": 42, "velocity": 80, "note_on_time": 2.839, "note_off_time": 3.246}, {"pitch": 62, "velocity": 80, "note_on_time": 3.246, "note_off_time": 3.653}, {"pitch": 42, "velocity": 80, "note_on_time": 3.246, "note_off_time": 3.653}, {"pitch": 42, "velocity": 80, "note_on_time": 3.653, "note_off_time": 4.057}, {"pitch": 67, "velocity": 80, "note_on_time": 3.653, "note_off_time": 4.464}, {"pitch": 42, "velocity": 80, "note_on_time": 4.057, "note_off_time": 4.464}, {"pitch": 42, "velocity": 80, "note_on_time": 4.464, "note_off_time": 4.87}, {"pitch": 42, "velocity": 80, "note_on_time": 4.87, "note_off_time": 5.277}, {"pitch": 64, "velocity": 80, "note_on_time": 4.87, "note_off_time": 5.685}, {"pitch": 42, "velocity": 80, "note_on_time": 5.277, "note_off_time": 5.685}, {"pitch": 42, "velocity": 80, "note_on_time": 5.685, "note_off_time": 6.091}, {"pitch": 65, "velocity": 80, "note_on_time": 6.091, "note_off_time": 6.495}, {"pitch": 42, "velocity": 80, "note_on_time": 6.091, "note_off_time": 6.495}, {"pitch": 62, "velocity": 80, "note_on_time": 6.495, "note_off_time": 6.902}, {"pitch": 42, "velocity": 80, "note_on_time": 6.495, "note_off_time": 6.902}, {"pitch": 60, "velocity": 80, "note_on_time": 6.902, "note_off_time": 7.309}, {"pitch": 42, "velocity": 80, "note_on_time": 6.902, "note_off_time": 7.309}, {"pitch": 42, "velocity": 80, "note_on_time": 7.309, "note_off_time": 7.716}, {"pitch": 64, "velocity": 80, "note_on_time": 7.309, "note_off_time": 8.124}, {"pitch": 42, "velocity": 80, "note_on_time": 7.716, "note_off_time": 8.124}, {"pitch": 67, "velocity": 80, "note_on_time": 8.124, "note_off_time": 8.527}, {"pitch": 42, "velocity": 80, "note_on_time": 8.124, "note_off_time": 8.527}, {"pitch": 65, "velocity": 80, "note_on_time": 8.527, "note_off_time": 8.933}, {"pitch": 42, "velocity": 80, "note_on_time": 8.527, "note_off_time": 8.933}, {"pitch": 62, "velocity": 80, "note_on_time": 8.933, "note_off_time": 9.341}, {"pitch": 42, "velocity": 80, "note_on_time": 8.933, "note_off_time": 9.341}, {"pitch": 62, "velocity": 80, "note_on_time": 9.341, "note_off_time": 9.744}, {"pitch": 42, "velocity": 80, "note_on_time": 9.341, "note_off_time": 9.744}, {"pitch": 62, "velocity": 80, "note_on_time": 9.744, "note_off_time": 10.149}, {"pitch": 42, "velocity": 80, "note_on_time": 9.744, "note_off_time": 10.149}, {"pitch": 64, "velocity": 80, "note_on_time": 10.149, "note_off_time": 10.555}, {"pitch": 42, "velocity": 80, "note_on_time": 10.149, "note_off_time": 10.555}, {"pitch": 64, "velocity": 80, "note_on_time": 10.555, "note_off_time": 10.963}, {"pitch": 42, "velocity": 80, "note_on_time": 10.555, "note_off_time": 10.963}, {"pitch": 67, "velocity": 80, "note_on_time": 10.963, "note_off_time": 11.371}, {"pitch": 42, "velocity": 80, "note_on_time": 10.963, "note_off_time": 11.371}, {"pitch": 60, "velocity": 80, "note_on_time": 11.371, "note_off_time": 11.777}, {"pitch": 42, "velocity": 80, "note_on_time": 11.371, "note_off_time": 11.777}, {"pitch": 60, "velocity": 80, "note_on_time": 11.777, "note_off_time": 12.184}, {"pitch": 42, "velocity": 80, "note_on_time": 11.777, "note_off_time": 12.184}, {"pitch": 60, "velocity": 80, "note_on_time": 12.184, "note_off_time": 12.592}, {"pitch": 42, "velocity": 80, "note_on_time": 12.184, "note_off_time": 12.592}, {"pitch": 65, "velocity": 80, "note_on_time": 12.592, "note_off_time": 12.997}, {"pitch": 42, "velocity": 80, "note_on_time": 12.592, "note_off_time": 12.997}, {"pitch": 42, "velocity": 80, "note_on_time": 12.997, "note_off_time": 13.405}, {"pitch": 65, "velocity": 80, "note_on_time": 13.405, "note_off_time": 13.812}, {"pitch": 42, "velocity": 80, "note_on_time": 13.405, "note_off_time": 13.812}, {"pitch": 65, "velocity": 80, "note_on_time": 13.812, "note_off_time": 14.219}, {"pitch": 42, "velocity": 80, "note_on_time": 13.812, "note_off_time": 14.219}, {"pitch": 65, "velocity": 80, "note_on_time": 14.219, "note_off_time": 14.623}, {"pitch": 42, "velocity": 80, "note_on_time": 14.219, "note_off_time": 14.624}]</notes><options name="Option List">((4, 4), [0.5, 0.25], 3, 8, &lt;NoteRangePerHand.C_TO_G: 6&gt;, &lt;NoteRangePerHand.ONE_NOTE: 2&gt;, False, True, True, '150')</options></target_notes><trials><trial trial_no="1" timestamp="2022_08_17-14_43_19"><notes name="Played Notes">[{"pitch": 60, "velocity": 61, "note_on_time": 2.113, "note_off_time": 2.574}, {"pitch": 65, "velocity": 73, "note_on_time": 2.586, "note_off_time": 3.04}, {"pitch": 60, "velocity": 74, "note_on_time": 3.049, "note_off_time": 3.513}, {"pitch": 67, "velocity": 77, "note_on_time": 3.511, "note_off_time": 3.967}, {"pitch": 62, "velocity": 73, "note_on_time": 3.975, "note_off_time": 4.425}, {"pitch": 67, "velocity": 79, "note_on_time": 4.429, "note_off_time": 5.116}, {"pitch": 64, "velocity": 71, "note_on_time": 5.593, "note_off_time": 6.234}, {"pitch": 65, "velocity": 77, "note_on_time": 6.716, "note_off_time": 7.167}, {"pitch": 62, "velocity": 74, "note_on_time": 7.151, "note_off_time": 7.565}, {"pitch": 60, "velocity": 81, "note_on_time": 7.576, "note_off_time": 8.032}, {"pitch": 64, "velocity": 73, "note_on_time": 8.016, "note_off_time": 8.444}, {"pitch": 67, "velocity": 77, "note_on_time": 8.452, "note_off_time": 8.892}, {"pitch": 65, "velocity": 67, "note_on_time": 8.874, "note_off_time": 9.368}, {"pitch": 62, "velocity": 73, "note_on_time": 9.324, "note_off_time": 9.431}, {"pitch": 62, "velocity": 77, "note_on_time": 9.746, "note_off_time": 9.833}, {"pitch": 62, "velocity": 81, "note_on_time": 10.178, "note_off_time": 10.327}, {"pitch": 64, "velocity": 79, "note_on_time": 10.622, "note_off_time": 10.739}, {"pitch": 64, "velocity": 82, "note_on_time": 11.075, "note_off_time": 11.178}, {"pitch": 67, "velocity": 66, "note_on_time": 11.474, "note_off_time": 11.892}, {"pitch": 60, "velocity": 70, "note_on_time": 11.912, "note_off_time": 12.045}, {"pitch": 60, "velocity": 81, "note_on_time": 12.352, "note_off_time": 12.459}, {"pitch": 60, "velocity": 79, "note_on_time": 12.785, "note_off_time": 12.896}, {"pitch": 65, "velocity": 82, "note_on_time": 13.231, "note_off_time": 13.357}, {"pitch": 65, "velocity": 74, "note_on_time": 13.975, "note_off_time": 14.106}, {"pitch": 65, "velocity": 80, "note_on_time": 14.408, "note_off_time": 14.521}]</notes><guidance name="Guidance Mode">None</guidance><error name="Error value">0.12013043478260851</error></trial><trial trial_no="2" timestamp="2022_08_17-14_44_01"><notes name="Played Notes">[{"pitch": 60, "velocity": 66, "note_on_time": 1.77, "note_off_time": 2.151}, {"pitch": 65, "velocity": 70, "note_on_time": 2.168, "note_off_time": 2.6}, {"pitch": 60, "velocity": 65, "note_on_time": 2.591, "note_off_time": 3.005}, {"pitch": 67, "velocity": 78, "note_on_time": 2.994, "note_off_time": 3.422}, {"pitch": 62, "velocity": 72, "note_on_time": 3.417, "note_off_time": 3.816}, {"pitch": 67, "velocity": 79, "note_on_time": 3.825, "note_off_time": 4.468}, {"pitch": 64, "velocity": 66, "note_on_time": 4.892, "note_off_time": 5.725}, {"pitch": 65, "velocity": 87, "note_on_time": 6.23, "note_off_time": 6.617}, {"pitch": 62, "velocity": 72, "note_on_time": 6.623, "note_off_time": 7.054}, {"pitch": 60, "velocity": 76, "note_on_time": 7.047, "note_off_time": 7.448}, {"pitch": 64, "velocity": 77, "note_on_time": 7.448, "note_off_time": 8.215}, {"pitch": 67, "velocity": 71, "note_on_time": 8.454, "note_off_time": 8.852}, {"pitch": 65, "velocity": 72, "note_on_time": 8.848, "note_off_time": 9.295}, {"pitch": 62, "velocity": 67, "note_on_time": 9.269, "note_off_time": 9.397}, {"pitch": 62, "velocity": 77, "note_on_time": 9.683, "note_off_time": 9.759}, {"pitch": 62, "velocity": 76, "note_on_time": 10.108, "note_off_time": 10.193}, {"pitch": 64, "velocity": 74, "note_on_time": 10.533, "note_off_time": 10.625}, {"pitch": 64, "velocity": 80, "note_on_time": 10.966, "note_off_time": 11.03}, {"pitch": 67, "velocity": 78, "note_on_time": 11.362, "note_off_time": 11.513}, {"pitch": 60, "velocity": 77, "note_on_time": 11.788, "note_off_time": 11.899}, {"pitch": 60, "velocity": 68, "note_on_time": 12.216, "note_off_time": 12.277}, {"pitch": 60, "velocity": 72, "note_on_time": 12.616, "note_off_time": 12.706}, {"pitch": 65, "velocity": 76, "note_on_time": 13.05, "note_off_time": 13.134}, {"pitch": 65, "velocity": 71, "note_on_time": 13.872, "note_off_time": 13.985}, {"pitch": 65, "velocity": 72, "note_on_time": 14.274, "note_off_time": 14.365}]</notes><guidance name="Guidance Mode">None</guidance><error name="Error value">0.09599999999999968</error></trial><trial trial_no="3" timestamp="2022_08_17-14_44_29"><notes name="Played Notes">[{"pitch": 60, "velocity": 75, "note_on_time": 1.66, "note_off_time": 2.032}, {"pitch": 65, "velocity": 64, "note_on_time": 2.103, "note_off_time": 2.51}, {"pitch": 60, "velocity": 66, "note_on_time": 2.52, "note_off_time": 2.931}, {"pitch": 67, "velocity": 79, "note_on_time": 2.92, "note_off_time": 3.418}, {"pitch": 64, "velocity": 68, "note_on_time": 3.384, "note_off_time": 3.472}]</notes><guidance name="Guidance Mode">None</guidance><error name="Error value">1.373913043478261</error></trial><trial trial_no="4" timestamp="2022_08_17-14_45_18"><notes name="Played Notes">[{"pitch": 60, "velocity": 65, "note_on_time": 1.525, "note_off_time": 1.912}, {"pitch": 65, "velocity": 75, "note_on_time": 1.935, "note_off_time": 2.339}, {"pitch": 60, "velocity": 67, "note_on_time": 2.334, "note_off_time": 2.761}, {"pitch": 67, "velocity": 68, "note_on_time": 2.735, "note_off_time": 3.132}, {"pitch": 62, "velocity": 69, "note_on_time": 3.13, "note_off_time": 3.495}, {"pitch": 65, "velocity": 80, "note_on_time": 3.505, "note_off_time": 4.187}, {"pitch": 64, "velocity": 87, "note_on_time": 4.594, "note_off_time": 5.337}, {"pitch": 65, "velocity": 73, "note_on_time": 5.865, "note_off_time": 6.311}, {"pitch": 62, "velocity": 66, "note_on_time": 6.286, "note_off_time": 6.703}, {"pitch": 60, "velocity": 76, "note_on_time": 6.703, "note_off_time": 7.116}, {"pitch": 64, "velocity": 65, "note_on_time": 7.091, "note_off_time": 7.773}, {"pitch": 67, "velocity": 70, "note_on_time": 8.488, "note_off_time": 9.03}, {"pitch": 65, "velocity": 67, "note_on_time": 9.003, "note_off_time": 9.428}, {"pitch": 62, "velocity": 72, "note_on_time": 9.433, "note_off_time": 9.543}, {"pitch": 62, "velocity": 76, "note_on_time": 9.875, "note_off_time": 9.972}, {"pitch": 62, "velocity": 71, "note_on_time": 10.314, "note_off_time": 10.391}, {"pitch": 64, "velocity": 71, "note_on_time": 10.767, "note_off_time": 10.861}, {"pitch": 64, "velocity": 74, "note_on_time": 11.185, "note_off_time": 11.295}, {"pitch": 67, "velocity": 67, "note_on_time": 11.597, "note_off_time": 11.749}, {"pitch": 60, "velocity": 78, "note_on_time": 12.027, "note_off_time": 12.149}, {"pitch": 60, "velocity": 76, "note_on_time": 12.457, "note_off_time": 12.554}, {"pitch": 60, "velocity": 70, "note_on_time": 12.857, "note_off_time": 12.994}, {"pitch": 65, "velocity": 73, "note_on_time": 13.302, "note_off_time": 13.392}, {"pitch": 65, "velocity": 73, "note_on_time": 14.11, "note_off_time": 14.229}]</notes><guidance name="Guidance Mode">None</guidance><error name="Error value">0.22143478260869554</error></trial><trial trial_no="5" timestamp="2022_08_17-14_45_51"><notes name="Played Notes">[{"pitch": 60, "velocity": 69, "note_on_time": 1.33, "note_off_time": 1.731}, {"pitch": 65, "velocity": 70, "note_on_time": 1.758, "note_off_time": 2.164}, {"pitch": 60, "velocity": 53, "note_on_time": 2.174, "note_off_time": 2.589}, {"pitch": 67, "velocity": 70, "note_on_time": 2.562, "note_off_time": 2.983}, {"pitch": 62, "velocity": 71, "note_on_time": 2.989, "note_off_time": 3.391}, {"pitch": 67, "velocity": 62, "note_on_time": 3.402, "note_off_time": 4.063}, {"pitch": 64, "velocity": 70, "note_on_time": 4.398, "note_off_time": 5.159}, {"pitch": 65, "velocity": 61, "note_on_time": 5.852, "note_off_time": 6.267}, {"pitch": 62, "velocity": 73, "note_on_time": 6.252, "note_off_time": 6.675}, {"pitch": 60, "velocity": 70, "note_on_time": 6.673, "note_off_time": 7.079}, {"pitch": 64, "velocity": 74, "note_on_time": 7.075, "note_off_time": 7.858}, {"pitch": 67, "velocity": 72, "note_on_time": 8.195, "note_off_time": 8.623}, {"pitch": 65, "velocity": 69, "note_on_time": 8.596, "note_off_time": 9.054}, {"pitch": 62, "velocity": 68, "note_on_time": 9.042, "note_off_time": 9.145}, {"pitch": 62, "velocity": 72, "note_on_time": 9.483, "note_off_time": 9.602}, {"pitch": 62, "velocity": 74, "note_on_time": 9.948, "note_off_time": 10.071}, {"pitch": 64, "velocity": 71, "note_on_time": 10.407, "note_off_time": 10.525}, {"pitch": 64, "velocity": 73, "note_on_time": 10.862, "note_off_time": 10.99}, {"pitch": 67, "velocity": 74, "note_on_time": 11.321, "note_off_time": 11.527}, {"pitch": 60, "velocity": 76, "note_on_time": 11.782, "note_off_time": 11.901}, {"pitch": 60, "velocity": 68, "note_on_time": 12.252, "note_off_time": 12.368}, {"pitch": 60, "velocity": 77, "note_on_time": 12.704, "note_off_time": 12.83}, {"pitch": 65, "velocity": 80, "note_on_time": 13.204, "note_off_time": 13.338}, {"pitch": 65, "velocity": 71, "note_on_time": 14.106, "note_off_time": 14.235}]</notes><guidance name="Guidance Mode">None</guidance><error name="Error value">0.19165217391304334</error></trial><trial trial_no="6" timestamp="2022_08_17-14_46_21"><notes name="Played Notes">[{"pitch": 60, "velocity": 68, "note_on_time": 1.589, "note_off_time": 1.99}, {"pitch": 65, "velocity": 66, "note_on_time": 2.02, "note_off_time": 2.458}, {"pitch": 60, "velocity": 70, "note_on_time": 2.447, "note_off_time": 2.91}, {"pitch": 67, "velocity": 67, "note_on_time": 2.902, "note_off_time": 3.36}, {"pitch": 62, "velocity": 77, "note_on_time": 3.354, "note_off_time": 3.809}, {"pitch": 67, "velocity": 74, "note_on_time": 3.819, "note_off_time": 4.534}, {"pitch": 64, "velocity": 67, "note_on_time": 5.32, "note_off_time": 6.112}, {"pitch": 65, "velocity": 72, "note_on_time": 6.964, "note_off_time": 7.414}, {"pitch": 62, "velocity": 73, "note_on_time": 7.396, "note_off_time": 7.828}, {"pitch": 60, "velocity": 77, "note_on_time": 7.831, "note_off_time": 8.294}, {"pitch": 64, "velocity": 71, "note_on_time": 8.281, "note_off_time": 8.718}, {"pitch": 67, "velocity": 81, "note_on_time": 8.725, "note_off_time": 9.552}, {"pitch": 65, "velocity": 61, "note_on_time": 9.528, "note_off_time": 9.821}, {"pitch": 62, "velocity": 59, "note_on_time": 10.123, "note_off_time": 10.257}, {"pitch": 62, "velocity": 68, "note_on_time": 10.569, "note_off_time": 10.663}, {"pitch": 62, "velocity": 77, "note_on_time": 11.028, "note_off_time": 11.139}, {"pitch": 64, "velocity": 74, "note_on_time": 11.471, "note_off_time": 11.598}, {"pitch": 64, "velocity": 78, "note_on_time": 11.904, "note_off_time": 12.026}, {"pitch": 67, "velocity": 69, "note_on_time": 12.392, "note_off_time": 12.54}, {"pitch": 60, "velocity": 72, "note_on_time": 12.832, "note_off_time": 12.94}, {"pitch": 60, "velocity": 70, "note_on_time": 13.325, "note_off_time": 13.441}, {"pitch": 60, "velocity": 62, "note_on_time": 14.023, "note_off_time": 14.099}]</notes><guidance name="Guidance Mode">None</guidance><error name="Error value">0.5621739130434783</error></trial></trials></MIDI>