<MIDI midiNo="2022_10_26-14_34_52"><target_notes><notes name="Note List">[{"pitch": 42, "velocity": 80, "note_on_time": 0.004, "note_off_time": 0.22}, {"pitch": 42, "velocity": 80, "note_on_time": 0.22, "note_off_time": 0.438}, {"pitch": 42, "velocity": 80, "note_on_time": 0.438, "note_off_time": 0.656}, {"pitch": 42, "velocity": 80, "note_on_time": 0.656, "note_off_time": 0.875}, {"pitch": 62, "velocity": 80, "note_on_time": 0.875, "note_off_time": 1.091}, {"pitch": 42, "velocity": 80, "note_on_time": 0.875, "note_off_time": 1.091}, {"pitch": 62, "velocity": 80, "note_on_time": 1.091, "note_off_time": 1.308}, {"pitch": 42, "velocity": 80, "note_on_time": 1.091, "note_off_time": 1.308}, {"pitch": 62, "velocity": 80, "note_on_time": 1.308, "note_off_time": 1.525}, {"pitch": 42, "velocity": 80, "note_on_time": 1.308, "note_off_time": 1.525}, {"pitch": 64, "velocity": 80, "note_on_time": 1.525, "note_off_time": 1.745}, {"pitch": 42, "velocity": 80, "note_on_time": 1.525, "note_off_time": 1.745}, {"pitch": 65, "velocity": 80, "note_on_time": 1.745, "note_off_time": 1.963}, {"pitch": 42, "velocity": 80, "note_on_time": 1.745, "note_off_time": 1.963}, {"pitch": 60, "velocity": 80, "note_on_time": 1.963, "note_off_time": 2.181}, {"pitch": 42, "velocity": 80, "note_on_time": 1.963, "note_off_time": 2.181}, {"pitch": 64, "velocity": 80, "note_on_time": 2.181, "note_off_time": 2.398}, {"pitch": 42, "velocity": 80, "note_on_time": 2.181, "note_off_time": 2.398}, {"pitch": 64, "velocity": 80, "note_on_time": 2.398, "note_off_time": 2.616}, {"pitch": 42, "velocity": 80, "note_on_time": 2.398, "note_off_time": 2.616}, {"pitch": 64, "velocity": 80, "note_on_time": 2.616, "note_off_time": 2.832}, {"pitch": 42, "velocity": 80, "note_on_time": 2.616, "note_off_time": 2.832}, {"pitch": 60, "velocity": 80, "note_on_time": 2.832, "note_off_time": 3.049}, {"pitch": 42, "velocity": 80, "note_on_time": 2.832, "note_off_time": 3.049}, {"pitch": 65, "velocity": 80, "note_on_time": 3.049, "note_off_time": 3.267}, {"pitch": 42, "velocity": 80, "note_on_time": 3.049, "note_off_time": 3.267}, {"pitch": 60, "velocity": 80, "note_on_time": 3.267, "note_off_time": 3.485}, {"pitch": 42, "velocity": 80, "note_on_time": 3.267, "note_off_time": 3.485}, {"pitch": 42, "velocity": 80, "note_on_time": 3.485, "note_off_time": 3.703}, {"pitch": 60, "velocity": 80, "note_on_time": 3.485, "note_off_time": 3.922}, {"pitch": 42, "velocity": 80, "note_on_time": 3.703, "note_off_time": 3.922}, {"pitch": 60, "velocity": 80, "note_on_time": 3.922, "note_off_time": 4.142}, {"pitch": 42, "velocity": 80, "note_on_time": 3.922, "note_off_time": 4.142}, {"pitch": 42, "velocity": 80, "note_on_time": 4.142, "note_off_time": 4.359}, {"pitch": 65, "velocity": 80, "note_on_time": 4.359, "note_off_time": 4.577}, {"pitch": 42, "velocity": 80, "note_on_time": 4.359, "note_off_time": 4.577}, {"pitch": 64, "velocity": 80, "note_on_time": 4.577, "note_off_time": 4.794}, {"pitch": 42, "velocity": 80, "note_on_time": 4.577, "note_off_time": 4.794}, {"pitch": 65, "velocity": 80, "note_on_time": 4.794, "note_off_time": 5.014}, {"pitch": 42, "velocity": 80, "note_on_time": 4.794, "note_off_time": 5.014}, {"pitch": 67, "velocity": 80, "note_on_time": 5.014, "note_off_time": 5.232}, {"pitch": 42, "velocity": 80, "note_on_time": 5.014, "note_off_time": 5.232}, {"pitch": 62, "velocity": 80, "note_on_time": 5.232, "note_off_time": 5.448}, {"pitch": 42, "velocity": 80, "note_on_time": 5.233, "note_off_time": 5.448}, {"pitch": 60, "velocity": 80, "note_on_time": 5.448, "note_off_time": 5.665}, {"pitch": 42, "velocity": 80, "note_on_time": 5.448, "note_off_time": 5.666}, {"pitch": 67, "velocity": 80, "note_on_time": 5.665, "note_off_time": 5.883}, {"pitch": 42, "velocity": 80, "note_on_time": 5.666, "note_off_time": 5.883}, {"pitch": 67, "velocity": 80, "note_on_time": 5.883, "note_off_time": 6.101}, {"pitch": 42, "velocity": 80, "note_on_time": 5.883, "note_off_time": 6.102}, {"pitch": 64, "velocity": 80, "note_on_time": 6.101, "note_off_time": 6.32}, {"pitch": 42, "velocity": 80, "note_on_time": 6.102, "note_off_time": 6.321}, {"pitch": 67, "velocity": 80, "note_on_time": 6.32, "note_off_time": 6.538}, {"pitch": 42, "velocity": 80, "note_on_time": 6.321, "note_off_time": 6.538}, {"pitch": 62, "velocity": 80, "note_on_time": 6.538, "note_off_time": 6.756}, {"pitch": 42, "velocity": 80, "note_on_time": 6.539, "note_off_time": 6.756}, {"pitch": 62, "velocity": 80, "note_on_time": 6.756, "note_off_time": 6.974}, {"pitch": 42, "velocity": 80, "note_on_time": 6.756, "note_off_time": 6.974}, {"pitch": 42, "velocity": 80, "note_on_time": 6.974, "note_off_time": 7.193}, {"pitch": 62, "velocity": 80, "note_on_time": 7.193, "note_off_time": 7.41}, {"pitch": 42, "velocity": 80, "note_on_time": 7.193, "note_off_time": 7.41}, {"pitch": 62, "velocity": 80, "note_on_time": 7.41, "note_off_time": 7.628}, {"pitch": 42, "velocity": 80, "note_on_time": 7.41, "note_off_time": 7.628}, {"pitch": 62, "velocity": 80, "note_on_time": 7.628, "note_off_time": 7.844}, {"pitch": 42, "velocity": 80, "note_on_time": 7.628, "note_off_time": 7.844}]</notes><options name="Option List">((4, 4), [0.5, 0.25], 3, 8, &lt;NoteRangePerHand.C_TO_G: 6&gt;, &lt;NoteRangePerHand.ONE_NOTE: 2&gt;, False, True, True, 281)</options></target_notes><trials><trial trial_no="1" timestamp="2022_10_26-14_34_42"><notes name="Played Notes">[{"pitch": 62, "velocity": 72, "note_on_time": 0.851, "note_off_time": 0.944}, {"pitch": 62, "velocity": 64, "note_on_time": 1.064, "note_off_time": 1.149}, {"pitch": 62, "velocity": 73, "note_on_time": 1.297, "note_off_time": 1.55}, {"pitch": 64, "velocity": 67, "note_on_time": 1.516, "note_off_time": 1.739}, {"pitch": 65, "velocity": 76, "note_on_time": 1.748, "note_off_time": 1.966}, {"pitch": 60, "velocity": 74, "note_on_time": 1.969, "note_off_time": 2.19}, {"pitch": 62, "velocity": 63, "note_on_time": 2.199, "note_off_time": 2.298}, {"pitch": 62, "velocity": 74, "note_on_time": 2.44, "note_off_time": 2.497}, {"pitch": 65, "velocity": 84, "note_on_time": 2.696, "note_off_time": 2.958}, {"pitch": 60, "velocity": 57, "note_on_time": 3.978, "note_off_time": 4.045}, {"pitch": 60, "velocity": 64, "note_on_time": 4.168, "note_off_time": 4.265}, {"pitch": 65, "velocity": 71, "note_on_time": 4.395, "note_off_time": 4.569}, {"pitch": 64, "velocity": 67, "note_on_time": 4.596, "note_off_time": 4.792}, {"pitch": 65, "velocity": 64, "note_on_time": 4.811, "note_off_time": 4.998}, {"pitch": 67, "velocity": 58, "note_on_time": 5.014, "note_off_time": 5.216}, {"pitch": 62, "velocity": 59, "note_on_time": 5.226, "note_off_time": 5.421}, {"pitch": 60, "velocity": 63, "note_on_time": 5.431, "note_off_time": 5.554}, {"pitch": 67, "velocity": 70, "note_on_time": 5.632, "note_off_time": 5.739}, {"pitch": 67, "velocity": 56, "note_on_time": 5.84, "note_off_time": 6.007}, {"pitch": 64, "velocity": 47, "note_on_time": 6.058, "note_off_time": 6.259}, {"pitch": 67, "velocity": 60, "note_on_time": 6.278, "note_off_time": 6.481}, {"pitch": 62, "velocity": 63, "note_on_time": 6.495, "note_off_time": 6.557}, {"pitch": 62, "velocity": 73, "note_on_time": 6.726, "note_off_time": 6.905}, {"pitch": 62, "velocity": 68, "note_on_time": 7.171, "note_off_time": 7.234}, {"pitch": 62, "velocity": 67, "note_on_time": 7.397, "note_off_time": 7.451}, {"pitch": 62, "velocity": 69, "note_on_time": 7.625, "note_off_time": 7.714}]</notes><guidance name="Guidance Mode">None</guidance><error name="Error value">0.2675917307692307</error></trial><trial trial_no="2" timestamp="2022_10_26-14_35_06"><notes name="Played Notes">[{"pitch": 62, "velocity": 79, "note_on_time": 0.94, "note_off_time": 1.039}, {"pitch": 62, "velocity": 62, "note_on_time": 1.177, "note_off_time": 1.27}, {"pitch": 62, "velocity": 79, "note_on_time": 1.43, "note_off_time": 1.723}, {"pitch": 64, "velocity": 67, "note_on_time": 1.685, "note_off_time": 1.936}, {"pitch": 65, "velocity": 67, "note_on_time": 1.956, "note_off_time": 2.201}, {"pitch": 60, "velocity": 74, "note_on_time": 2.193, "note_off_time": 2.458}, {"pitch": 64, "velocity": 75, "note_on_time": 2.44, "note_off_time": 2.527}, {"pitch": 64, "velocity": 82, "note_on_time": 2.687, "note_off_time": 2.784}, {"pitch": 64, "velocity": 80, "note_on_time": 2.931, "note_off_time": 3.161}, {"pitch": 60, "velocity": 67, "note_on_time": 3.173, "note_off_time": 3.494}, {"pitch": 65, "velocity": 51, "note_on_time": 3.474, "note_off_time": 3.727}, {"pitch": 60, "velocity": 68, "note_on_time": 3.736, "note_off_time": 3.832}, {"pitch": 60, "velocity": 87, "note_on_time": 3.991, "note_off_time": 4.313}, {"pitch": 60, "velocity": 93, "note_on_time": 4.482, "note_off_time": 4.747}, {"pitch": 65, "velocity": 68, "note_on_time": 5.034, "note_off_time": 5.27}, {"pitch": 64, "velocity": 71, "note_on_time": 5.284, "note_off_time": 5.544}, {"pitch": 65, "velocity": 71, "note_on_time": 5.542, "note_off_time": 5.754}, {"pitch": 67, "velocity": 64, "note_on_time": 5.761, "note_off_time": 5.987}, {"pitch": 62, "velocity": 65, "note_on_time": 5.986, "note_off_time": 6.218}, {"pitch": 60, "velocity": 62, "note_on_time": 6.234, "note_off_time": 6.465}, {"pitch": 67, "velocity": 59, "note_on_time": 6.509, "note_off_time": 6.638}, {"pitch": 67, "velocity": 69, "note_on_time": 6.789, "note_off_time": 7.031}, {"pitch": 64, "velocity": 61, "note_on_time": 7.04, "note_off_time": 7.272}, {"pitch": 67, "velocity": 70, "note_on_time": 7.281, "note_off_time": 7.485}, {"pitch": 62, "velocity": 71, "note_on_time": 7.502, "note_off_time": 7.586}]</notes><guidance name="Guidance Mode">None</guidance><error name="Error value">0.6921231153846154</error></trial><trial trial_no="3" timestamp="2022_10_26-14_35_29"><notes name="Played Notes">[{"pitch": 62, "velocity": 76, "note_on_time": 0.934, "note_off_time": 1.022}, {"pitch": 62, "velocity": 73, "note_on_time": 1.146, "note_off_time": 1.23}, {"pitch": 62, "velocity": 76, "note_on_time": 1.366, "note_off_time": 1.576}, {"pitch": 64, "velocity": 71, "note_on_time": 1.585, "note_off_time": 1.81}, {"pitch": 65, "velocity": 76, "note_on_time": 1.815, "note_off_time": 1.975}, {"pitch": 60, "velocity": 84, "note_on_time": 2.062, "note_off_time": 2.167}, {"pitch": 64, "velocity": 86, "note_on_time": 2.314, "note_off_time": 2.388}, {"pitch": 64, "velocity": 85, "note_on_time": 2.53, "note_off_time": 2.589}, {"pitch": 64, "velocity": 83, "note_on_time": 2.745, "note_off_time": 2.914}, {"pitch": 60, "velocity": 77, "note_on_time": 2.916, "note_off_time": 3.19}, {"pitch": 65, "velocity": 70, "note_on_time": 3.189, "note_off_time": 3.37}, {"pitch": 60, "velocity": 77, "note_on_time": 3.38, "note_off_time": 3.484}, {"pitch": 60, "velocity": 82, "note_on_time": 3.621, "note_off_time": 3.872}, {"pitch": 60, "velocity": 67, "note_on_time": 4.11, "note_off_time": 4.374}, {"pitch": 65, "velocity": 64, "note_on_time": 4.592, "note_off_time": 4.775}, {"pitch": 64, "velocity": 65, "note_on_time": 4.806, "note_off_time": 5.007}, {"pitch": 65, "velocity": 67, "note_on_time": 5.037, "note_off_time": 5.252}, {"pitch": 67, "velocity": 69, "note_on_time": 5.263, "note_off_time": 5.459}, {"pitch": 62, "velocity": 69, "note_on_time": 5.468, "note_off_time": 5.673}, {"pitch": 60, "velocity": 76, "note_on_time": 5.671, "note_off_time": 5.827}, {"pitch": 67, "velocity": 71, "note_on_time": 5.892, "note_off_time": 5.994}, {"pitch": 67, "velocity": 67, "note_on_time": 6.099, "note_off_time": 6.323}, {"pitch": 64, "velocity": 72, "note_on_time": 6.322, "note_off_time": 6.526}, {"pitch": 67, "velocity": 73, "note_on_time": 6.536, "note_off_time": 6.756}, {"pitch": 62, "velocity": 68, "note_on_time": 6.759, "note_off_time": 6.836}, {"pitch": 62, "velocity": 89, "note_on_time": 6.987, "note_off_time": 7.171}, {"pitch": 62, "velocity": 79, "note_on_time": 7.425, "note_off_time": 7.498}, {"pitch": 62, "velocity": 78, "note_on_time": 7.636, "note_off_time": 7.712}]</notes><guidance name="Guidance Mode">None</guidance><error name="Error value">0.06535211538461534</error></trial></trials></MIDI>