<MIDI midiNo="2022_11_03-13_47_29"><target_notes><notes name="Note List">[{"pitch": 42, "velocity": 80, "note_on_time": 0.004, "note_off_time": 0.247}, {"pitch": 42, "velocity": 80, "note_on_time": 0.247, "note_off_time": 0.495}, {"pitch": 42, "velocity": 80, "note_on_time": 0.496, "note_off_time": 0.744}, {"pitch": 42, "velocity": 80, "note_on_time": 0.744, "note_off_time": 0.993}, {"pitch": 64, "velocity": 80, "note_on_time": 0.993, "note_off_time": 1.244}, {"pitch": 42, "velocity": 80, "note_on_time": 0.994, "note_off_time": 1.244}, {"pitch": 60, "velocity": 80, "note_on_time": 1.244, "note_off_time": 1.49}, {"pitch": 42, "velocity": 80, "note_on_time": 1.244, "note_off_time": 1.491}, {"pitch": 60, "velocity": 80, "note_on_time": 1.49, "note_off_time": 1.738}, {"pitch": 42, "velocity": 80, "note_on_time": 1.491, "note_off_time": 1.738}, {"pitch": 60, "velocity": 80, "note_on_time": 1.738, "note_off_time": 1.986}, {"pitch": 42, "velocity": 80, "note_on_time": 1.739, "note_off_time": 1.986}, {"pitch": 64, "velocity": 80, "note_on_time": 1.986, "note_off_time": 2.236}, {"pitch": 42, "velocity": 80, "note_on_time": 1.987, "note_off_time": 2.236}, {"pitch": 62, "velocity": 80, "note_on_time": 2.236, "note_off_time": 2.485}, {"pitch": 42, "velocity": 80, "note_on_time": 2.236, "note_off_time": 2.485}, {"pitch": 62, "velocity": 80, "note_on_time": 2.485, "note_off_time": 2.734}, {"pitch": 42, "velocity": 80, "note_on_time": 2.486, "note_off_time": 2.734}, {"pitch": 62, "velocity": 80, "note_on_time": 2.734, "note_off_time": 2.989}, {"pitch": 42, "velocity": 80, "note_on_time": 2.734, "note_off_time": 2.989}, {"pitch": 60, "velocity": 80, "note_on_time": 2.989, "note_off_time": 3.241}, {"pitch": 42, "velocity": 80, "note_on_time": 2.989, "note_off_time": 3.242}, {"pitch": 60, "velocity": 80, "note_on_time": 3.241, "note_off_time": 3.49}, {"pitch": 42, "velocity": 80, "note_on_time": 3.242, "note_off_time": 3.49}, {"pitch": 64, "velocity": 80, "note_on_time": 3.49, "note_off_time": 3.74}, {"pitch": 42, "velocity": 80, "note_on_time": 3.49, "note_off_time": 3.74}, {"pitch": 62, "velocity": 80, "note_on_time": 3.74, "note_off_time": 3.991}, {"pitch": 42, "velocity": 80, "note_on_time": 3.741, "note_off_time": 3.991}, {"pitch": 42, "velocity": 80, "note_on_time": 3.991, "note_off_time": 4.24}, {"pitch": 60, "velocity": 80, "note_on_time": 3.991, "note_off_time": 4.491}, {"pitch": 42, "velocity": 80, "note_on_time": 4.24, "note_off_time": 4.491}, {"pitch": 64, "velocity": 80, "note_on_time": 4.491, "note_off_time": 4.737}, {"pitch": 42, "velocity": 80, "note_on_time": 4.492, "note_off_time": 4.737}, {"pitch": 62, "velocity": 80, "note_on_time": 4.737, "note_off_time": 4.987}, {"pitch": 42, "velocity": 80, "note_on_time": 4.737, "note_off_time": 4.987}, {"pitch": 60, "velocity": 80, "note_on_time": 4.987, "note_off_time": 5.234}, {"pitch": 42, "velocity": 80, "note_on_time": 4.987, "note_off_time": 5.234}, {"pitch": 64, "velocity": 80, "note_on_time": 5.234, "note_off_time": 5.481}, {"pitch": 42, "velocity": 80, "note_on_time": 5.234, "note_off_time": 5.481}, {"pitch": 62, "velocity": 80, "note_on_time": 5.481, "note_off_time": 5.729}, {"pitch": 42, "velocity": 80, "note_on_time": 5.482, "note_off_time": 5.73}, {"pitch": 62, "velocity": 80, "note_on_time": 5.729, "note_off_time": 5.98}, {"pitch": 42, "velocity": 80, "note_on_time": 5.73, "note_off_time": 5.98}, {"pitch": 60, "velocity": 80, "note_on_time": 5.98, "note_off_time": 6.23}, {"pitch": 42, "velocity": 80, "note_on_time": 5.98, "note_off_time": 6.23}, {"pitch": 60, "velocity": 80, "note_on_time": 6.23, "note_off_time": 6.481}, {"pitch": 42, "velocity": 80, "note_on_time": 6.231, "note_off_time": 6.481}, {"pitch": 64, "velocity": 80, "note_on_time": 6.481, "note_off_time": 6.727}, {"pitch": 42, "velocity": 80, "note_on_time": 6.481, "note_off_time": 6.727}, {"pitch": 64, "velocity": 80, "note_on_time": 6.727, "note_off_time": 6.975}, {"pitch": 42, "velocity": 80, "note_on_time": 6.728, "note_off_time": 6.975}, {"pitch": 62, "velocity": 80, "note_on_time": 6.975, "note_off_time": 7.224}, {"pitch": 42, "velocity": 80, "note_on_time": 6.976, "note_off_time": 7.224}, {"pitch": 62, "velocity": 80, "note_on_time": 7.224, "note_off_time": 7.474}, {"pitch": 42, "velocity": 80, "note_on_time": 7.225, "note_off_time": 7.474}, {"pitch": 64, "velocity": 80, "note_on_time": 7.474, "note_off_time": 7.722}, {"pitch": 42, "velocity": 80, "note_on_time": 7.476, "note_off_time": 7.722}, {"pitch": 62, "velocity": 80, "note_on_time": 7.722, "note_off_time": 7.972}, {"pitch": 42, "velocity": 80, "note_on_time": 7.723, "note_off_time": 7.972}, {"pitch": 42, "velocity": 80, "note_on_time": 7.973, "note_off_time": 8.222}, {"pitch": 62, "velocity": 80, "note_on_time": 8.222, "note_off_time": 8.47}, {"pitch": 42, "velocity": 80, "note_on_time": 8.223, "note_off_time": 8.47}, {"pitch": 62, "velocity": 80, "note_on_time": 8.47, "note_off_time": 8.721}, {"pitch": 42, "velocity": 80, "note_on_time": 8.471, "note_off_time": 8.721}, {"pitch": 62, "velocity": 80, "note_on_time": 8.721, "note_off_time": 8.972}, {"pitch": 42, "velocity": 80, "note_on_time": 8.722, "note_off_time": 8.972}]</notes><options name="Option List">((4, 4), [0.5, 0.25], 3, 8, &lt;NoteRangePerHand.THREE_NOTES: 4&gt;, &lt;NoteRangePerHand.ONE_NOTE: 2&gt;, False, True, False, 248)</options></target_notes><trials><trial trial_no="1" timestamp="2022_11_03-13_47_19"><notes name="Played Notes">[{"pitch": 64, "velocity": 67, "note_on_time": 0.967, "note_off_time": 1.098}, {"pitch": 60, "velocity": 70, "note_on_time": 1.228, "note_off_time": 1.344}, {"pitch": 60, "velocity": 52, "note_on_time": 1.47, "note_off_time": 1.6}, {"pitch": 60, "velocity": 49, "note_on_time": 1.725, "note_off_time": 1.879}, {"pitch": 64, "velocity": 53, "note_on_time": 1.975, "note_off_time": 2.106}, {"pitch": 62, "velocity": 63, "note_on_time": 2.215, "note_off_time": 2.334}, {"pitch": 62, "velocity": 54, "note_on_time": 2.447, "note_off_time": 2.564}, {"pitch": 62, "velocity": 44, "note_on_time": 2.7, "note_off_time": 2.835}, {"pitch": 60, "velocity": 65, "note_on_time": 2.973, "note_off_time": 3.098}, {"pitch": 60, "velocity": 58, "note_on_time": 3.215, "note_off_time": 3.378}, {"pitch": 64, "velocity": 41, "note_on_time": 3.478, "note_off_time": 3.643}, {"pitch": 62, "velocity": 50, "note_on_time": 3.698, "note_off_time": 3.842}, {"pitch": 60, "velocity": 59, "note_on_time": 3.983, "note_off_time": 4.502}, {"pitch": 64, "velocity": 59, "note_on_time": 4.502, "note_off_time": 4.651}, {"pitch": 62, "velocity": 71, "note_on_time": 4.701, "note_off_time": 4.835}, {"pitch": 60, "velocity": 65, "note_on_time": 4.957, "note_off_time": 5.103}, {"pitch": 64, "velocity": 57, "note_on_time": 5.209, "note_off_time": 5.331}, {"pitch": 62, "velocity": 45, "note_on_time": 5.445, "note_off_time": 5.569}, {"pitch": 62, "velocity": 47, "note_on_time": 5.686, "note_off_time": 5.839}, {"pitch": 60, "velocity": 57, "note_on_time": 5.972, "note_off_time": 6.081}, {"pitch": 60, "velocity": 60, "note_on_time": 6.195, "note_off_time": 6.36}, {"pitch": 64, "velocity": 56, "note_on_time": 6.455, "note_off_time": 6.558}, {"pitch": 64, "velocity": 48, "note_on_time": 6.715, "note_off_time": 6.843}, {"pitch": 62, "velocity": 54, "note_on_time": 6.982, "note_off_time": 7.094}, {"pitch": 62, "velocity": 50, "note_on_time": 7.214, "note_off_time": 7.356}, {"pitch": 64, "velocity": 58, "note_on_time": 7.466, "note_off_time": 7.64}, {"pitch": 62, "velocity": 62, "note_on_time": 7.711, "note_off_time": 7.962}, {"pitch": 62, "velocity": 58, "note_on_time": 8.205, "note_off_time": 8.326}, {"pitch": 62, "velocity": 61, "note_on_time": 8.434, "note_off_time": 8.576}, {"pitch": 62, "velocity": 55, "note_on_time": 8.696, "note_off_time": 8.881}]</notes><guidance name="Guidance Mode">None</guidance><error name="Error value">0.017772037037037166</error></trial><trial trial_no="2" timestamp="2022_11_03-13_47_38"><notes name="Played Notes">[{"pitch": 64, "velocity": 61, "note_on_time": 1.014, "note_off_time": 1.141}, {"pitch": 62, "velocity": 49, "note_on_time": 1.287, "note_off_time": 1.456}, {"pitch": 60, "velocity": 70, "note_on_time": 1.513, "note_off_time": 1.634}, {"pitch": 60, "velocity": 21, "note_on_time": 1.771, "note_off_time": 1.875}, {"pitch": 64, "velocity": 64, "note_on_time": 2.052, "note_off_time": 2.197}, {"pitch": 62, "velocity": 58, "note_on_time": 2.278, "note_off_time": 2.4}, {"pitch": 62, "velocity": 50, "note_on_time": 2.522, "note_off_time": 2.652}, {"pitch": 62, "velocity": 48, "note_on_time": 2.772, "note_off_time": 2.882}, {"pitch": 60, "velocity": 65, "note_on_time": 3.016, "note_off_time": 3.142}, {"pitch": 60, "velocity": 51, "note_on_time": 3.258, "note_off_time": 3.419}, {"pitch": 64, "velocity": 55, "note_on_time": 3.508, "note_off_time": 3.672}, {"pitch": 62, "velocity": 63, "note_on_time": 3.751, "note_off_time": 3.897}, {"pitch": 60, "velocity": 57, "note_on_time": 3.996, "note_off_time": 4.389}, {"pitch": 64, "velocity": 56, "note_on_time": 4.501, "note_off_time": 4.653}, {"pitch": 62, "velocity": 64, "note_on_time": 4.734, "note_off_time": 4.89}, {"pitch": 60, "velocity": 67, "note_on_time": 4.985, "note_off_time": 5.125}, {"pitch": 64, "velocity": 61, "note_on_time": 5.213, "note_off_time": 5.372}, {"pitch": 62, "velocity": 59, "note_on_time": 5.461, "note_off_time": 5.571}, {"pitch": 62, "velocity": 45, "note_on_time": 5.688, "note_off_time": 5.854}, {"pitch": 60, "velocity": 47, "note_on_time": 5.979, "note_off_time": 6.085}, {"pitch": 60, "velocity": 49, "note_on_time": 6.207, "note_off_time": 6.356}, {"pitch": 64, "velocity": 46, "note_on_time": 6.453, "note_off_time": 6.6}, {"pitch": 64, "velocity": 60, "note_on_time": 6.695, "note_off_time": 6.834}, {"pitch": 62, "velocity": 56, "note_on_time": 6.962, "note_off_time": 7.066}, {"pitch": 62, "velocity": 50, "note_on_time": 7.21, "note_off_time": 7.352}, {"pitch": 64, "velocity": 62, "note_on_time": 7.458, "note_off_time": 7.599}, {"pitch": 62, "velocity": 61, "note_on_time": 7.707, "note_off_time": 8.02}, {"pitch": 62, "velocity": 71, "note_on_time": 8.203, "note_off_time": 8.334}, {"pitch": 62, "velocity": 51, "note_on_time": 8.444, "note_off_time": 8.573}, {"pitch": 62, "velocity": 51, "note_on_time": 8.696, "note_off_time": 8.889}]</notes><guidance name="Guidance Mode">None</guidance><error name="Error value">0.05004092592592604</error></trial><trial trial_no="3" timestamp="2022_11_03-13_47_57"><notes name="Played Notes">[{"pitch": 64, "velocity": 57, "note_on_time": 1.029, "note_off_time": 1.205}, {"pitch": 60, "velocity": 58, "note_on_time": 1.267, "note_off_time": 1.415}, {"pitch": 60, "velocity": 67, "note_on_time": 1.514, "note_off_time": 1.675}, {"pitch": 60, "velocity": 42, "note_on_time": 1.75, "note_off_time": 1.938}, {"pitch": 64, "velocity": 68, "note_on_time": 1.979, "note_off_time": 2.143}, {"pitch": 62, "velocity": 61, "note_on_time": 2.236, "note_off_time": 2.362}, {"pitch": 62, "velocity": 44, "note_on_time": 2.494, "note_off_time": 2.608}, {"pitch": 62, "velocity": 44, "note_on_time": 2.73, "note_off_time": 2.912}, {"pitch": 60, "velocity": 64, "note_on_time": 3.018, "note_off_time": 3.118}, {"pitch": 60, "velocity": 65, "note_on_time": 3.226, "note_off_time": 3.414}, {"pitch": 64, "velocity": 22, "note_on_time": 3.541, "note_off_time": 3.733}, {"pitch": 62, "velocity": 54, "note_on_time": 3.758, "note_off_time": 3.885}, {"pitch": 60, "velocity": 72, "note_on_time": 3.993, "note_off_time": 4.314}, {"pitch": 64, "velocity": 70, "note_on_time": 4.464, "note_off_time": 4.627}, {"pitch": 62, "velocity": 43, "note_on_time": 4.705, "note_off_time": 4.854}, {"pitch": 60, "velocity": 60, "note_on_time": 4.958, "note_off_time": 5.13}, {"pitch": 64, "velocity": 60, "note_on_time": 5.199, "note_off_time": 5.347}, {"pitch": 62, "velocity": 60, "note_on_time": 5.427, "note_off_time": 5.539}, {"pitch": 62, "velocity": 44, "note_on_time": 5.678, "note_off_time": 5.834}, {"pitch": 60, "velocity": 66, "note_on_time": 5.957, "note_off_time": 6.082}, {"pitch": 60, "velocity": 61, "note_on_time": 6.182, "note_off_time": 6.343}, {"pitch": 64, "velocity": 49, "note_on_time": 6.446, "note_off_time": 6.593}, {"pitch": 64, "velocity": 55, "note_on_time": 6.711, "note_off_time": 6.847}, {"pitch": 62, "velocity": 61, "note_on_time": 6.956, "note_off_time": 7.083}, {"pitch": 64, "velocity": 78, "note_on_time": 7.215, "note_off_time": 7.371}, {"pitch": 62, "velocity": 47, "note_on_time": 7.523, "note_off_time": 7.561}, {"pitch": 64, "velocity": 22, "note_on_time": 7.65, "note_off_time": 7.707}, {"pitch": 62, "velocity": 64, "note_on_time": 7.729, "note_off_time": 8.061}, {"pitch": 62, "velocity": 53, "note_on_time": 8.233, "note_off_time": 8.356}, {"pitch": 62, "velocity": 59, "note_on_time": 8.464, "note_off_time": 8.605}, {"pitch": 62, "velocity": 58, "note_on_time": 8.706, "note_off_time": 8.925}]</notes><guidance name="Guidance Mode">None</guidance><error name="Error value">0.14189129629629657</error></trial></trials></MIDI>