<MIDI midiNo="2022_12_08-10_17_57"><target_notes><notes name="Note List">[{"pitch": 42, "velocity": 80, "note_on_time": 0.004, "note_off_time": 0.379}, {"pitch": 42, "velocity": 80, "note_on_time": 0.379, "note_off_time": 0.753}, {"pitch": 42, "velocity": 80, "note_on_time": 0.754, "note_off_time": 1.128}, {"pitch": 42, "velocity": 80, "note_on_time": 1.128, "note_off_time": 1.501}, {"pitch": 60, "velocity": 80, "note_on_time": 1.501, "note_off_time": 1.875}, {"pitch": 42, "velocity": 80, "note_on_time": 1.502, "note_off_time": 1.875}, {"pitch": 67, "velocity": 80, "note_on_time": 1.875, "note_off_time": 2.248}, {"pitch": 42, "velocity": 80, "note_on_time": 1.875, "note_off_time": 2.249}, {"pitch": 62, "velocity": 80, "note_on_time": 2.248, "note_off_time": 2.623}, {"pitch": 42, "velocity": 80, "note_on_time": 2.249, "note_off_time": 2.623}, {"pitch": 60, "velocity": 80, "note_on_time": 2.623, "note_off_time": 2.997}, {"pitch": 42, "velocity": 80, "note_on_time": 2.623, "note_off_time": 2.997}, {"pitch": 67, "velocity": 80, "note_on_time": 2.997, "note_off_time": 3.373}, {"pitch": 42, "velocity": 80, "note_on_time": 2.998, "note_off_time": 3.373}, {"pitch": 60, "velocity": 80, "note_on_time": 3.373, "note_off_time": 3.746}, {"pitch": 42, "velocity": 80, "note_on_time": 3.373, "note_off_time": 3.747}, {"pitch": 64, "velocity": 80, "note_on_time": 3.746, "note_off_time": 4.12}, {"pitch": 42, "velocity": 80, "note_on_time": 3.747, "note_off_time": 4.12}, {"pitch": 64, "velocity": 80, "note_on_time": 4.12, "note_off_time": 4.494}, {"pitch": 42, "velocity": 80, "note_on_time": 4.12, "note_off_time": 4.494}, {"pitch": 67, "velocity": 80, "note_on_time": 4.494, "note_off_time": 4.867}, {"pitch": 42, "velocity": 80, "note_on_time": 4.495, "note_off_time": 4.868}, {"pitch": 42, "velocity": 80, "note_on_time": 4.868, "note_off_time": 5.241}, {"pitch": 42, "velocity": 80, "note_on_time": 5.242, "note_off_time": 5.617}, {"pitch": 42, "velocity": 80, "note_on_time": 5.617, "note_off_time": 5.99}, {"pitch": 62, "velocity": 80, "note_on_time": 5.99, "note_off_time": 6.363}, {"pitch": 42, "velocity": 80, "note_on_time": 5.99, "note_off_time": 6.364}, {"pitch": 42, "velocity": 80, "note_on_time": 6.364, "note_off_time": 6.738}, {"pitch": 42, "velocity": 80, "note_on_time": 6.739, "note_off_time": 7.112}, {"pitch": 67, "velocity": 80, "note_on_time": 6.738, "note_off_time": 7.485}, {"pitch": 42, "velocity": 80, "note_on_time": 7.113, "note_off_time": 7.486}, {"pitch": 62, "velocity": 80, "note_on_time": 7.485, "note_off_time": 7.859}, {"pitch": 42, "velocity": 80, "note_on_time": 7.486, "note_off_time": 7.859}, {"pitch": 42, "velocity": 80, "note_on_time": 7.86, "note_off_time": 8.233}, {"pitch": 42, "velocity": 80, "note_on_time": 8.233, "note_off_time": 8.606}, {"pitch": 67, "velocity": 80, "note_on_time": 8.233, "note_off_time": 8.979}, {"pitch": 42, "velocity": 80, "note_on_time": 8.607, "note_off_time": 8.979}, {"pitch": 62, "velocity": 80, "note_on_time": 8.979, "note_off_time": 9.353}, {"pitch": 42, "velocity": 80, "note_on_time": 8.98, "note_off_time": 9.354}, {"pitch": 42, "velocity": 80, "note_on_time": 9.354, "note_off_time": 9.728}, {"pitch": 42, "velocity": 80, "note_on_time": 9.728, "note_off_time": 10.102}, {"pitch": 62, "velocity": 80, "note_on_time": 10.102, "note_off_time": 10.476}, {"pitch": 42, "velocity": 80, "note_on_time": 10.103, "note_off_time": 10.476}, {"pitch": 64, "velocity": 80, "note_on_time": 10.476, "note_off_time": 10.85}, {"pitch": 42, "velocity": 80, "note_on_time": 10.477, "note_off_time": 10.85}, {"pitch": 42, "velocity": 80, "note_on_time": 10.851, "note_off_time": 11.226}, {"pitch": 67, "velocity": 80, "note_on_time": 11.225, "note_off_time": 11.6}, {"pitch": 42, "velocity": 80, "note_on_time": 11.226, "note_off_time": 11.6}, {"pitch": 65, "velocity": 80, "note_on_time": 11.6, "note_off_time": 11.973}, {"pitch": 42, "velocity": 80, "note_on_time": 11.601, "note_off_time": 11.973}, {"pitch": 42, "velocity": 80, "note_on_time": 11.973, "note_off_time": 12.347}, {"pitch": 65, "velocity": 80, "note_on_time": 12.347, "note_off_time": 12.723}, {"pitch": 42, "velocity": 80, "note_on_time": 12.348, "note_off_time": 12.723}, {"pitch": 65, "velocity": 80, "note_on_time": 12.723, "note_off_time": 13.096}, {"pitch": 42, "velocity": 80, "note_on_time": 12.723, "note_off_time": 13.096}, {"pitch": 65, "velocity": 80, "note_on_time": 13.096, "note_off_time": 13.469}, {"pitch": 42, "velocity": 80, "note_on_time": 13.097, "note_off_time": 13.47}]</notes><options name="Option List">((4, 4), [0.5, 0.25], 3, 8, &lt;NoteRangePerHand.C_TO_G: 6&gt;, &lt;NoteRangePerHand.ONE_NOTE: 2&gt;, False, True, False, '166')</options></target_notes><trials><trial trial_no="1" timestamp="2022_12_08-10_17_42"><notes name="Played Notes">[{"pitch": 60, "velocity": 58, "note_on_time": 1.544, "note_off_time": 1.889}, {"pitch": 67, "velocity": 70, "note_on_time": 1.876, "note_off_time": 2.234}, {"pitch": 62, "velocity": 67, "note_on_time": 2.27, "note_off_time": 2.664}, {"pitch": 60, "velocity": 54, "note_on_time": 2.652, "note_off_time": 3.026}, {"pitch": 67, "velocity": 77, "note_on_time": 3.021, "note_off_time": 3.41}, {"pitch": 60, "velocity": 62, "note_on_time": 3.399, "note_off_time": 3.785}, {"pitch": 64, "velocity": 69, "note_on_time": 3.774, "note_off_time": 3.873}, {"pitch": 64, "velocity": 57, "note_on_time": 4.175, "note_off_time": 4.272}, {"pitch": 67, "velocity": 67, "note_on_time": 4.552, "note_off_time": 4.725}, {"pitch": 60, "velocity": 84, "note_on_time": 6.054, "note_off_time": 6.214}, {"pitch": 62, "velocity": 37, "note_on_time": 6.423, "note_off_time": 6.577}, {"pitch": 67, "velocity": 64, "note_on_time": 6.792, "note_off_time": 7.088}, {"pitch": 62, "velocity": 68, "note_on_time": 7.512, "note_off_time": 7.705}, {"pitch": 67, "velocity": 78, "note_on_time": 8.177, "note_off_time": 8.781}, {"pitch": 62, "velocity": 59, "note_on_time": 8.984, "note_off_time": 9.222}, {"pitch": 62, "velocity": 79, "note_on_time": 9.761, "note_off_time": 10.13}, {"pitch": 64, "velocity": 59, "note_on_time": 10.142, "note_off_time": 10.332}, {"pitch": 67, "velocity": 63, "note_on_time": 10.805, "note_off_time": 11.188}, {"pitch": 65, "velocity": 62, "note_on_time": 11.203, "note_off_time": 11.399}, {"pitch": 65, "velocity": 67, "note_on_time": 11.924, "note_off_time": 12.066}, {"pitch": 65, "velocity": 69, "note_on_time": 12.314, "note_off_time": 12.445}, {"pitch": 65, "velocity": 81, "note_on_time": 12.7, "note_off_time": 12.857}]</notes><guidance name="Guidance Mode">None</guidance><error name="Error value">0.3032036111111113</error></trial><trial trial_no="2" timestamp="2022_12_08-10_18_32"><notes name="Played Notes">[{"pitch": 60, "velocity": 30, "note_on_time": 1.552, "note_off_time": 1.911}, {"pitch": 67, "velocity": 77, "note_on_time": 1.879, "note_off_time": 2.259}, {"pitch": 62, "velocity": 44, "note_on_time": 2.288, "note_off_time": 2.642}, {"pitch": 60, "velocity": 60, "note_on_time": 2.645, "note_off_time": 2.994}, {"pitch": 67, "velocity": 65, "note_on_time": 3.011, "note_off_time": 3.383}, {"pitch": 60, "velocity": 51, "note_on_time": 3.354, "note_off_time": 3.812}, {"pitch": 64, "velocity": 58, "note_on_time": 3.775, "note_off_time": 3.867}, {"pitch": 64, "velocity": 57, "note_on_time": 4.119, "note_off_time": 4.193}, {"pitch": 67, "velocity": 78, "note_on_time": 4.512, "note_off_time": 4.866}, {"pitch": 62, "velocity": 65, "note_on_time": 5.959, "note_off_time": 6.309}, {"pitch": 67, "velocity": 77, "note_on_time": 6.736, "note_off_time": 7.331}, {"pitch": 62, "velocity": 66, "note_on_time": 7.519, "note_off_time": 7.805}, {"pitch": 67, "velocity": 77, "note_on_time": 8.275, "note_off_time": 8.695}, {"pitch": 62, "velocity": 52, "note_on_time": 9.065, "note_off_time": 9.253}, {"pitch": 62, "velocity": 81, "note_on_time": 10.078, "note_off_time": 10.238}, {"pitch": 64, "velocity": 65, "note_on_time": 10.479, "note_off_time": 10.69}, {"pitch": 67, "velocity": 76, "note_on_time": 11.23, "note_off_time": 11.578}, {"pitch": 65, "velocity": 78, "note_on_time": 11.594, "note_off_time": 11.853}, {"pitch": 65, "velocity": 75, "note_on_time": 12.344, "note_off_time": 12.497}, {"pitch": 65, "velocity": 74, "note_on_time": 12.719, "note_off_time": 12.857}, {"pitch": 65, "velocity": 78, "note_on_time": 13.074, "note_off_time": 13.301}]</notes><guidance name="Guidance Mode">None</guidance><error name="Error value">0.0345736111111112</error></trial><trial trial_no="3" timestamp="2022_12_08-10_18_56"><notes name="Played Notes">[{"pitch": 60, "velocity": 44, "note_on_time": 1.516, "note_off_time": 1.865}, {"pitch": 67, "velocity": 60, "note_on_time": 1.838, "note_off_time": 2.24}, {"pitch": 62, "velocity": 67, "note_on_time": 2.239, "note_off_time": 2.582}, {"pitch": 60, "velocity": 75, "note_on_time": 2.59, "note_off_time": 2.968}, {"pitch": 67, "velocity": 67, "note_on_time": 2.96, "note_off_time": 3.35}, {"pitch": 60, "velocity": 47, "note_on_time": 3.338, "note_off_time": 3.738}, {"pitch": 64, "velocity": 64, "note_on_time": 3.694, "note_off_time": 3.822}, {"pitch": 64, "velocity": 57, "note_on_time": 4.099, "note_off_time": 4.214}, {"pitch": 67, "velocity": 71, "note_on_time": 4.49, "note_off_time": 4.749}, {"pitch": 62, "velocity": 60, "note_on_time": 5.978, "note_off_time": 6.258}, {"pitch": 67, "velocity": 77, "note_on_time": 6.719, "note_off_time": 7.264}, {"pitch": 62, "velocity": 54, "note_on_time": 7.501, "note_off_time": 7.692}, {"pitch": 67, "velocity": 80, "note_on_time": 8.252, "note_off_time": 8.648}, {"pitch": 62, "velocity": 60, "note_on_time": 8.999, "note_off_time": 9.3}, {"pitch": 62, "velocity": 55, "note_on_time": 10.121, "note_off_time": 10.48}, {"pitch": 64, "velocity": 74, "note_on_time": 10.528, "note_off_time": 10.685}, {"pitch": 67, "velocity": 70, "note_on_time": 11.238, "note_off_time": 11.594}, {"pitch": 65, "velocity": 59, "note_on_time": 11.604, "note_off_time": 11.949}, {"pitch": 65, "velocity": 66, "note_on_time": 12.285, "note_off_time": 12.474}, {"pitch": 65, "velocity": 80, "note_on_time": 12.698, "note_off_time": 12.876}, {"pitch": 65, "velocity": 77, "note_on_time": 13.047, "note_off_time": 13.392}]</notes><guidance name="Guidance Mode">None</guidance><error name="Error value">0.03174027777777793</error></trial></trials></MIDI>