<MIDI midiNo="2022_11_21-18_28_25"><target_notes><notes name="Note List">[{"pitch": 42, "velocity": 80, "note_on_time": 0.004, "note_off_time": 0.347}, {"pitch": 42, "velocity": 80, "note_on_time": 0.347, "note_off_time": 0.689}, {"pitch": 42, "velocity": 80, "note_on_time": 0.69, "note_off_time": 1.031}, {"pitch": 42, "velocity": 80, "note_on_time": 1.032, "note_off_time": 1.374}, {"pitch": 64, "velocity": 80, "note_on_time": 1.374, "note_off_time": 1.717}, {"pitch": 42, "velocity": 80, "note_on_time": 1.374, "note_off_time": 1.717}, {"pitch": 62, "velocity": 80, "note_on_time": 1.717, "note_off_time": 2.058}, {"pitch": 42, "velocity": 80, "note_on_time": 1.717, "note_off_time": 2.058}, {"pitch": 62, "velocity": 80, "note_on_time": 2.058, "note_off_time": 2.398}, {"pitch": 42, "velocity": 80, "note_on_time": 2.058, "note_off_time": 2.398}, {"pitch": 62, "velocity": 80, "note_on_time": 2.398, "note_off_time": 2.74}, {"pitch": 42, "velocity": 80, "note_on_time": 2.399, "note_off_time": 2.74}, {"pitch": 60, "velocity": 80, "note_on_time": 2.74, "note_off_time": 3.084}, {"pitch": 42, "velocity": 80, "note_on_time": 2.741, "note_off_time": 3.084}, {"pitch": 62, "velocity": 80, "note_on_time": 3.084, "note_off_time": 3.424}, {"pitch": 42, "velocity": 80, "note_on_time": 3.084, "note_off_time": 3.424}, {"pitch": 60, "velocity": 80, "note_on_time": 3.424, "note_off_time": 3.765}, {"pitch": 42, "velocity": 80, "note_on_time": 3.424, "note_off_time": 3.765}, {"pitch": 65, "velocity": 80, "note_on_time": 3.765, "note_off_time": 4.107}, {"pitch": 42, "velocity": 80, "note_on_time": 3.766, "note_off_time": 4.108}, {"pitch": 62, "velocity": 80, "note_on_time": 4.107, "note_off_time": 4.447}, {"pitch": 42, "velocity": 80, "note_on_time": 4.108, "note_off_time": 4.448}, {"pitch": 60, "velocity": 80, "note_on_time": 4.447, "note_off_time": 4.789}, {"pitch": 42, "velocity": 80, "note_on_time": 4.448, "note_off_time": 4.789}, {"pitch": 62, "velocity": 80, "note_on_time": 4.789, "note_off_time": 5.131}, {"pitch": 42, "velocity": 80, "note_on_time": 4.79, "note_off_time": 5.131}, {"pitch": 62, "velocity": 80, "note_on_time": 5.131, "note_off_time": 5.472}, {"pitch": 42, "velocity": 80, "note_on_time": 5.132, "note_off_time": 5.472}, {"pitch": 42, "velocity": 80, "note_on_time": 5.472, "note_off_time": 5.818}, {"pitch": 65, "velocity": 80, "note_on_time": 5.472, "note_off_time": 6.161}, {"pitch": 42, "velocity": 80, "note_on_time": 5.818, "note_off_time": 6.161}, {"pitch": 62, "velocity": 80, "note_on_time": 6.161, "note_off_time": 6.505}, {"pitch": 42, "velocity": 80, "note_on_time": 6.161, "note_off_time": 6.505}, {"pitch": 42, "velocity": 80, "note_on_time": 6.505, "note_off_time": 6.845}, {"pitch": 64, "velocity": 80, "note_on_time": 6.845, "note_off_time": 7.188}, {"pitch": 42, "velocity": 80, "note_on_time": 6.846, "note_off_time": 7.188}, {"pitch": 60, "velocity": 80, "note_on_time": 7.188, "note_off_time": 7.529}, {"pitch": 42, "velocity": 80, "note_on_time": 7.188, "note_off_time": 7.529}, {"pitch": 67, "velocity": 80, "note_on_time": 7.529, "note_off_time": 7.871}, {"pitch": 42, "velocity": 80, "note_on_time": 7.53, "note_off_time": 7.872}, {"pitch": 65, "velocity": 80, "note_on_time": 7.871, "note_off_time": 8.216}, {"pitch": 42, "velocity": 80, "note_on_time": 7.872, "note_off_time": 8.216}, {"pitch": 64, "velocity": 80, "note_on_time": 8.216, "note_off_time": 8.556}, {"pitch": 42, "velocity": 80, "note_on_time": 8.216, "note_off_time": 8.556}, {"pitch": 67, "velocity": 80, "note_on_time": 8.556, "note_off_time": 8.897}, {"pitch": 42, "velocity": 80, "note_on_time": 8.557, "note_off_time": 8.898}, {"pitch": 62, "velocity": 80, "note_on_time": 8.897, "note_off_time": 9.24}, {"pitch": 42, "velocity": 80, "note_on_time": 8.898, "note_off_time": 9.24}, {"pitch": 64, "velocity": 80, "note_on_time": 9.24, "note_off_time": 9.584}, {"pitch": 42, "velocity": 80, "note_on_time": 9.24, "note_off_time": 9.584}, {"pitch": 42, "velocity": 80, "note_on_time": 9.584, "note_off_time": 9.926}, {"pitch": 67, "velocity": 80, "note_on_time": 9.584, "note_off_time": 10.268}, {"pitch": 42, "velocity": 80, "note_on_time": 9.926, "note_off_time": 10.269}, {"pitch": 42, "velocity": 80, "note_on_time": 10.269, "note_off_time": 10.611}, {"pitch": 64, "velocity": 80, "note_on_time": 10.268, "note_off_time": 10.952}, {"pitch": 42, "velocity": 80, "note_on_time": 10.611, "note_off_time": 10.952}, {"pitch": 42, "velocity": 80, "note_on_time": 10.953, "note_off_time": 11.295}, {"pitch": 64, "velocity": 80, "note_on_time": 11.295, "note_off_time": 11.639}, {"pitch": 42, "velocity": 80, "note_on_time": 11.295, "note_off_time": 11.64}, {"pitch": 64, "velocity": 80, "note_on_time": 11.639, "note_off_time": 11.981}, {"pitch": 42, "velocity": 80, "note_on_time": 11.64, "note_off_time": 11.982}, {"pitch": 64, "velocity": 80, "note_on_time": 11.981, "note_off_time": 12.325}, {"pitch": 42, "velocity": 80, "note_on_time": 11.982, "note_off_time": 12.325}]</notes><options name="Option List">((4, 4), [0.5, 0.25], 3, 8, &lt;NoteRangePerHand.C_TO_G: 6&gt;, &lt;NoteRangePerHand.ONE_NOTE: 2&gt;, False, True, False, 182)</options></target_notes><trials><trial trial_no="1" timestamp="2022_11_21-18_28_11"><notes name="Played Notes">[{"pitch": 64, "velocity": 85, "note_on_time": 1.361, "note_off_time": 1.694}, {"pitch": 62, "velocity": 83, "note_on_time": 1.701, "note_off_time": 1.771}, {"pitch": 62, "velocity": 96, "note_on_time": 2.037, "note_off_time": 2.117}, {"pitch": 62, "velocity": 94, "note_on_time": 2.379, "note_off_time": 2.452}, {"pitch": 60, "velocity": 90, "note_on_time": 2.722, "note_off_time": 3.061}, {"pitch": 62, "velocity": 79, "note_on_time": 3.07, "note_off_time": 3.413}, {"pitch": 60, "velocity": 87, "note_on_time": 3.424, "note_off_time": 3.775}, {"pitch": 65, "velocity": 83, "note_on_time": 3.759, "note_off_time": 4.105}, {"pitch": 62, "velocity": 75, "note_on_time": 4.107, "note_off_time": 4.446}, {"pitch": 60, "velocity": 87, "note_on_time": 4.453, "note_off_time": 4.78}, {"pitch": 62, "velocity": 84, "note_on_time": 4.817, "note_off_time": 4.899}, {"pitch": 62, "velocity": 94, "note_on_time": 5.151, "note_off_time": 5.236}, {"pitch": 65, "velocity": 106, "note_on_time": 5.489, "note_off_time": 5.745}, {"pitch": 62, "velocity": 77, "note_on_time": 6.15, "note_off_time": 6.8}, {"pitch": 64, "velocity": 75, "note_on_time": 6.862, "note_off_time": 7.173}, {"pitch": 60, "velocity": 86, "note_on_time": 7.191, "note_off_time": 7.528}, {"pitch": 67, "velocity": 79, "note_on_time": 7.52, "note_off_time": 7.886}, {"pitch": 65, "velocity": 91, "note_on_time": 7.888, "note_off_time": 8.243}, {"pitch": 64, "velocity": 79, "note_on_time": 8.233, "note_off_time": 8.577}, {"pitch": 67, "velocity": 78, "note_on_time": 8.581, "note_off_time": 8.922}, {"pitch": 62, "velocity": 80, "note_on_time": 8.91, "note_off_time": 9.228}, {"pitch": 65, "velocity": 79, "note_on_time": 9.232, "note_off_time": 9.689}, {"pitch": 67, "velocity": 88, "note_on_time": 9.687, "note_off_time": 10.367}, {"pitch": 67, "velocity": 92, "note_on_time": 11.515, "note_off_time": 11.846}, {"pitch": 64, "velocity": 81, "note_on_time": 11.855, "note_off_time": 12.041}]</notes><guidance name="Guidance Mode">None</guidance><error name="Error value">0.22635916666666667</error></trial><trial trial_no="2" timestamp="2022_11_21-18_28_36"><notes name="Played Notes">[{"pitch": 64, "velocity": 93, "note_on_time": 1.415, "note_off_time": 1.727}, {"pitch": 62, "velocity": 88, "note_on_time": 1.722, "note_off_time": 1.791}, {"pitch": 62, "velocity": 94, "note_on_time": 2.045, "note_off_time": 2.123}, {"pitch": 62, "velocity": 90, "note_on_time": 2.39, "note_off_time": 2.457}, {"pitch": 60, "velocity": 95, "note_on_time": 2.731, "note_off_time": 3.077}, {"pitch": 62, "velocity": 80, "note_on_time": 3.09, "note_off_time": 3.427}, {"pitch": 60, "velocity": 89, "note_on_time": 3.432, "note_off_time": 3.752}, {"pitch": 65, "velocity": 79, "note_on_time": 3.743, "note_off_time": 4.101}, {"pitch": 62, "velocity": 79, "note_on_time": 4.113, "note_off_time": 4.452}, {"pitch": 60, "velocity": 83, "note_on_time": 4.464, "note_off_time": 4.733}, {"pitch": 62, "velocity": 87, "note_on_time": 4.785, "note_off_time": 4.864}, {"pitch": 62, "velocity": 98, "note_on_time": 5.133, "note_off_time": 5.218}, {"pitch": 65, "velocity": 92, "note_on_time": 5.499, "note_off_time": 5.847}, {"pitch": 62, "velocity": 85, "note_on_time": 5.88, "note_off_time": 6.254}, {"pitch": 67, "velocity": 78, "note_on_time": 6.314, "note_off_time": 6.866}, {"pitch": 60, "velocity": 90, "note_on_time": 7.572, "note_off_time": 7.935}, {"pitch": 67, "velocity": 81, "note_on_time": 7.913, "note_off_time": 8.269}, {"pitch": 65, "velocity": 91, "note_on_time": 8.257, "note_off_time": 8.593}, {"pitch": 64, "velocity": 79, "note_on_time": 8.604, "note_off_time": 8.943}, {"pitch": 67, "velocity": 81, "note_on_time": 8.94, "note_off_time": 9.288}, {"pitch": 62, "velocity": 77, "note_on_time": 9.282, "note_off_time": 9.628}, {"pitch": 64, "velocity": 84, "note_on_time": 9.631, "note_off_time": 9.942}, {"pitch": 67, "velocity": 84, "note_on_time": 9.947, "note_off_time": 10.513}, {"pitch": 64, "velocity": 84, "note_on_time": 10.635, "note_off_time": 11.0}, {"pitch": 64, "velocity": 90, "note_on_time": 11.737, "note_off_time": 11.814}, {"pitch": 64, "velocity": 88, "note_on_time": 12.048, "note_off_time": 12.113}]</notes><guidance name="Guidance Mode">None</guidance><error name="Error value">0.17741541666666671</error></trial><trial trial_no="3" timestamp="2022_11_21-18_29_00"><notes name="Played Notes">[{"pitch": 64, "velocity": 89, "note_on_time": 1.4, "note_off_time": 1.732}, {"pitch": 62, "velocity": 80, "note_on_time": 1.727, "note_off_time": 1.803}, {"pitch": 62, "velocity": 97, "note_on_time": 2.056, "note_off_time": 2.123}, {"pitch": 62, "velocity": 92, "note_on_time": 2.393, "note_off_time": 2.464}, {"pitch": 60, "velocity": 94, "note_on_time": 2.73, "note_off_time": 3.062}, {"pitch": 62, "velocity": 79, "note_on_time": 3.072, "note_off_time": 3.392}, {"pitch": 60, "velocity": 84, "note_on_time": 3.401, "note_off_time": 3.755}, {"pitch": 65, "velocity": 83, "note_on_time": 3.727, "note_off_time": 4.084}, {"pitch": 62, "velocity": 77, "note_on_time": 4.1, "note_off_time": 4.439}, {"pitch": 60, "velocity": 87, "note_on_time": 4.437, "note_off_time": 4.756}, {"pitch": 62, "velocity": 87, "note_on_time": 4.792, "note_off_time": 4.879}, {"pitch": 62, "velocity": 92, "note_on_time": 5.122, "note_off_time": 5.201}, {"pitch": 65, "velocity": 100, "note_on_time": 5.474, "note_off_time": 5.765}, {"pitch": 62, "velocity": 82, "note_on_time": 6.158, "note_off_time": 6.364}, {"pitch": 67, "velocity": 90, "note_on_time": 6.869, "note_off_time": 7.178}, {"pitch": 60, "velocity": 84, "note_on_time": 7.205, "note_off_time": 7.594}, {"pitch": 64, "velocity": 79, "note_on_time": 7.6, "note_off_time": 7.644}, {"pitch": 67, "velocity": 83, "note_on_time": 7.812, "note_off_time": 8.166}, {"pitch": 65, "velocity": 90, "note_on_time": 8.163, "note_off_time": 8.501}, {"pitch": 64, "velocity": 86, "note_on_time": 8.53, "note_off_time": 8.89}, {"pitch": 67, "velocity": 84, "note_on_time": 8.898, "note_off_time": 9.237}, {"pitch": 62, "velocity": 84, "note_on_time": 9.234, "note_off_time": 9.608}, {"pitch": 65, "velocity": 83, "note_on_time": 9.604, "note_off_time": 9.927}, {"pitch": 67, "velocity": 84, "note_on_time": 9.93, "note_off_time": 10.252}, {"pitch": 62, "velocity": 84, "note_on_time": 10.676, "note_off_time": 10.842}, {"pitch": 64, "velocity": 75, "note_on_time": 10.667, "note_off_time": 11.089}, {"pitch": 64, "velocity": 92, "note_on_time": 11.686, "note_off_time": 11.774}, {"pitch": 64, "velocity": 92, "note_on_time": 12.023, "note_off_time": 12.098}]</notes><guidance name="Guidance Mode">None</guidance><error name="Error value">0.3115812500000004</error></trial></trials></MIDI>