<MIDI midiNo="2022_12_08-12_37_17"><target_notes><notes name="Note List">[{"pitch": 42, "velocity": 80, "note_on_time": 0.003, "note_off_time": 0.316}, {"pitch": 42, "velocity": 80, "note_on_time": 0.316, "note_off_time": 0.629}, {"pitch": 42, "velocity": 80, "note_on_time": 0.629, "note_off_time": 0.941}, {"pitch": 42, "velocity": 80, "note_on_time": 0.941, "note_off_time": 1.253}, {"pitch": 67, "velocity": 80, "note_on_time": 1.253, "note_off_time": 1.565}, {"pitch": 42, "velocity": 80, "note_on_time": 1.253, "note_off_time": 1.565}, {"pitch": 62, "velocity": 80, "note_on_time": 1.565, "note_off_time": 1.875}, {"pitch": 42, "velocity": 80, "note_on_time": 1.566, "note_off_time": 1.875}, {"pitch": 64, "velocity": 80, "note_on_time": 1.875, "note_off_time": 2.187}, {"pitch": 42, "velocity": 80, "note_on_time": 1.876, "note_off_time": 2.188}, {"pitch": 65, "velocity": 80, "note_on_time": 2.187, "note_off_time": 2.499}, {"pitch": 42, "velocity": 80, "note_on_time": 2.188, "note_off_time": 2.499}, {"pitch": 60, "velocity": 80, "note_on_time": 2.499, "note_off_time": 2.812}, {"pitch": 42, "velocity": 80, "note_on_time": 2.5, "note_off_time": 2.812}, {"pitch": 42, "velocity": 80, "note_on_time": 2.812, "note_off_time": 3.123}, {"pitch": 42, "velocity": 80, "note_on_time": 3.124, "note_off_time": 3.433}, {"pitch": 42, "velocity": 80, "note_on_time": 3.433, "note_off_time": 3.75}, {"pitch": 42, "velocity": 80, "note_on_time": 3.75, "note_off_time": 4.061}, {"pitch": 60, "velocity": 80, "note_on_time": 3.749, "note_off_time": 4.372}, {"pitch": 42, "velocity": 80, "note_on_time": 4.061, "note_off_time": 4.373}, {"pitch": 42, "velocity": 80, "note_on_time": 4.373, "note_off_time": 4.685}, {"pitch": 42, "velocity": 80, "note_on_time": 4.686, "note_off_time": 4.998}, {"pitch": 65, "velocity": 80, "note_on_time": 4.998, "note_off_time": 5.309}, {"pitch": 42, "velocity": 80, "note_on_time": 4.998, "note_off_time": 5.309}, {"pitch": 64, "velocity": 80, "note_on_time": 5.309, "note_off_time": 5.62}, {"pitch": 42, "velocity": 80, "note_on_time": 5.309, "note_off_time": 5.62}, {"pitch": 67, "velocity": 80, "note_on_time": 5.62, "note_off_time": 5.934}, {"pitch": 42, "velocity": 80, "note_on_time": 5.62, "note_off_time": 5.934}, {"pitch": 62, "velocity": 80, "note_on_time": 5.934, "note_off_time": 6.247}, {"pitch": 42, "velocity": 80, "note_on_time": 5.935, "note_off_time": 6.247}, {"pitch": 62, "velocity": 80, "note_on_time": 6.247, "note_off_time": 6.559}, {"pitch": 42, "velocity": 80, "note_on_time": 6.247, "note_off_time": 6.559}, {"pitch": 65, "velocity": 80, "note_on_time": 6.559, "note_off_time": 6.872}, {"pitch": 42, "velocity": 80, "note_on_time": 6.559, "note_off_time": 6.872}, {"pitch": 60, "velocity": 80, "note_on_time": 6.872, "note_off_time": 7.183}, {"pitch": 42, "velocity": 80, "note_on_time": 6.872, "note_off_time": 7.183}, {"pitch": 62, "velocity": 80, "note_on_time": 7.183, "note_off_time": 7.494}, {"pitch": 42, "velocity": 80, "note_on_time": 7.183, "note_off_time": 7.494}, {"pitch": 42, "velocity": 80, "note_on_time": 7.494, "note_off_time": 7.804}, {"pitch": 65, "velocity": 80, "note_on_time": 7.494, "note_off_time": 8.114}, {"pitch": 42, "velocity": 80, "note_on_time": 7.805, "note_off_time": 8.115}, {"pitch": 42, "velocity": 80, "note_on_time": 8.115, "note_off_time": 8.424}, {"pitch": 60, "velocity": 80, "note_on_time": 8.424, "note_off_time": 8.737}, {"pitch": 42, "velocity": 80, "note_on_time": 8.425, "note_off_time": 8.737}, {"pitch": 42, "velocity": 80, "note_on_time": 8.737, "note_off_time": 9.049}, {"pitch": 64, "velocity": 80, "note_on_time": 8.737, "note_off_time": 9.36}, {"pitch": 42, "velocity": 80, "note_on_time": 9.049, "note_off_time": 9.36}, {"pitch": 67, "velocity": 80, "note_on_time": 9.36, "note_off_time": 9.671}, {"pitch": 42, "velocity": 80, "note_on_time": 9.36, "note_off_time": 9.671}, {"pitch": 60, "velocity": 80, "note_on_time": 9.671, "note_off_time": 9.985}, {"pitch": 42, "velocity": 80, "note_on_time": 9.672, "note_off_time": 9.985}, {"pitch": 42, "velocity": 80, "note_on_time": 9.985, "note_off_time": 10.298}, {"pitch": 60, "velocity": 80, "note_on_time": 10.298, "note_off_time": 10.608}, {"pitch": 42, "velocity": 80, "note_on_time": 10.298, "note_off_time": 10.608}, {"pitch": 60, "velocity": 80, "note_on_time": 10.608, "note_off_time": 10.919}, {"pitch": 42, "velocity": 80, "note_on_time": 10.608, "note_off_time": 10.919}, {"pitch": 60, "velocity": 80, "note_on_time": 10.919, "note_off_time": 11.23}, {"pitch": 42, "velocity": 80, "note_on_time": 10.92, "note_off_time": 11.23}]</notes><options name="Option List">((4, 4), [0.5, 0.25], 3, 8, &lt;NoteRangePerHand.C_TO_G: 6&gt;, &lt;NoteRangePerHand.ONE_NOTE: 2&gt;, False, True, False, '197')</options></target_notes><trials><trial trial_no="1" timestamp="2022_12_08-12_37_04"><notes name="Played Notes">[{"pitch": 67, "velocity": 55, "note_on_time": 1.253, "note_off_time": 1.55}, {"pitch": 62, "velocity": 45, "note_on_time": 1.553, "note_off_time": 1.857}, {"pitch": 64, "velocity": 55, "note_on_time": 1.864, "note_off_time": 2.135}, {"pitch": 65, "velocity": 28, "note_on_time": 2.179, "note_off_time": 2.472}, {"pitch": 60, "velocity": 52, "note_on_time": 2.508, "note_off_time": 3.289}, {"pitch": 60, "velocity": 54, "note_on_time": 3.76, "note_off_time": 4.428}, {"pitch": 65, "velocity": 71, "note_on_time": 5.01, "note_off_time": 5.302}, {"pitch": 64, "velocity": 59, "note_on_time": 5.306, "note_off_time": 5.593}, {"pitch": 67, "velocity": 67, "note_on_time": 5.618, "note_off_time": 5.887}, {"pitch": 62, "velocity": 51, "note_on_time": 5.928, "note_off_time": 6.076}, {"pitch": 62, "velocity": 56, "note_on_time": 6.235, "note_off_time": 6.544}, {"pitch": 65, "velocity": 64, "note_on_time": 6.553, "note_off_time": 6.831}, {"pitch": 60, "velocity": 54, "note_on_time": 6.869, "note_off_time": 7.159}, {"pitch": 62, "velocity": 47, "note_on_time": 7.178, "note_off_time": 7.492}, {"pitch": 65, "velocity": 65, "note_on_time": 7.512, "note_off_time": 8.065}, {"pitch": 60, "velocity": 47, "note_on_time": 8.303, "note_off_time": 8.528}, {"pitch": 64, "velocity": 56, "note_on_time": 8.682, "note_off_time": 8.968}, {"pitch": 67, "velocity": 66, "note_on_time": 8.979, "note_off_time": 9.268}, {"pitch": 60, "velocity": 53, "note_on_time": 9.286, "note_off_time": 10.001}, {"pitch": 60, "velocity": 57, "note_on_time": 10.274, "note_off_time": 10.429}, {"pitch": 60, "velocity": 62, "note_on_time": 10.586, "note_off_time": 10.721}, {"pitch": 60, "velocity": 61, "note_on_time": 10.899, "note_off_time": 11.115}]</notes><guidance name="Guidance Mode">None</guidance><error name="Error value">0.057912842105263214</error></trial><trial trial_no="2" timestamp="2022_12_08-12_37_23"><notes name="Played Notes">[{"pitch": 67, "velocity": 68, "note_on_time": 1.276, "note_off_time": 1.604}, {"pitch": 62, "velocity": 50, "note_on_time": 1.584, "note_off_time": 1.882}, {"pitch": 64, "velocity": 59, "note_on_time": 1.884, "note_off_time": 2.203}, {"pitch": 65, "velocity": 67, "note_on_time": 2.179, "note_off_time": 2.488}, {"pitch": 60, "velocity": 71, "note_on_time": 2.505, "note_off_time": 2.979}, {"pitch": 60, "velocity": 71, "note_on_time": 3.776, "note_off_time": 4.468}, {"pitch": 65, "velocity": 70, "note_on_time": 5.054, "note_off_time": 5.336}, {"pitch": 64, "velocity": 64, "note_on_time": 5.333, "note_off_time": 5.614}, {"pitch": 67, "velocity": 72, "note_on_time": 5.632, "note_off_time": 5.92}, {"pitch": 62, "velocity": 61, "note_on_time": 5.917, "note_off_time": 6.052}, {"pitch": 62, "velocity": 63, "note_on_time": 6.226, "note_off_time": 6.535}, {"pitch": 65, "velocity": 65, "note_on_time": 6.544, "note_off_time": 6.812}, {"pitch": 60, "velocity": 54, "note_on_time": 6.858, "note_off_time": 7.14}, {"pitch": 62, "velocity": 56, "note_on_time": 7.149, "note_off_time": 7.504}, {"pitch": 65, "velocity": 73, "note_on_time": 7.52, "note_off_time": 8.028}, {"pitch": 60, "velocity": 57, "note_on_time": 8.492, "note_off_time": 8.784}, {"pitch": 64, "velocity": 65, "note_on_time": 8.773, "note_off_time": 9.38}, {"pitch": 67, "velocity": 67, "note_on_time": 9.39, "note_off_time": 9.667}, {"pitch": 60, "velocity": 66, "note_on_time": 9.667, "note_off_time": 10.022}, {"pitch": 60, "velocity": 56, "note_on_time": 10.305, "note_off_time": 10.471}, {"pitch": 60, "velocity": 67, "note_on_time": 10.614, "note_off_time": 10.758}, {"pitch": 60, "velocity": 71, "note_on_time": 10.922, "note_off_time": 11.164}]</notes><guidance name="Guidance Mode">None</guidance><error name="Error value">0.024393684210526533</error></trial><trial trial_no="3" timestamp="2022_12_08-12_37_43"><notes name="Played Notes">[{"pitch": 67, "velocity": 67, "note_on_time": 1.243, "note_off_time": 1.569}, {"pitch": 62, "velocity": 61, "note_on_time": 1.554, "note_off_time": 1.879}, {"pitch": 64, "velocity": 59, "note_on_time": 1.868, "note_off_time": 2.175}, {"pitch": 65, "velocity": 68, "note_on_time": 2.154, "note_off_time": 2.45}, {"pitch": 60, "velocity": 64, "note_on_time": 2.473, "note_off_time": 2.989}, {"pitch": 60, "velocity": 70, "note_on_time": 3.735, "note_off_time": 4.377}, {"pitch": 65, "velocity": 65, "note_on_time": 5.016, "note_off_time": 5.331}, {"pitch": 64, "velocity": 66, "note_on_time": 5.306, "note_off_time": 5.578}, {"pitch": 67, "velocity": 74, "note_on_time": 5.6, "note_off_time": 5.923}, {"pitch": 62, "velocity": 55, "note_on_time": 5.905, "note_off_time": 6.049}, {"pitch": 62, "velocity": 69, "note_on_time": 6.215, "note_off_time": 6.543}, {"pitch": 65, "velocity": 64, "note_on_time": 6.539, "note_off_time": 6.826}, {"pitch": 60, "velocity": 56, "note_on_time": 6.826, "note_off_time": 7.123}, {"pitch": 62, "velocity": 55, "note_on_time": 7.13, "note_off_time": 7.471}, {"pitch": 65, "velocity": 69, "note_on_time": 7.481, "note_off_time": 7.99}, {"pitch": 60, "velocity": 64, "note_on_time": 8.415, "note_off_time": 8.76}, {"pitch": 64, "velocity": 62, "note_on_time": 8.755, "note_off_time": 9.362}, {"pitch": 67, "velocity": 65, "note_on_time": 9.362, "note_off_time": 9.681}, {"pitch": 60, "velocity": 71, "note_on_time": 9.65, "note_off_time": 9.989}, {"pitch": 60, "velocity": 67, "note_on_time": 10.27, "note_off_time": 10.422}, {"pitch": 60, "velocity": 66, "note_on_time": 10.577, "note_off_time": 10.728}, {"pitch": 60, "velocity": 66, "note_on_time": 10.882, "note_off_time": 11.173}]</notes><guidance name="Guidance Mode">None</guidance><error name="Error value">0.018867368421052615</error></trial><trial trial_no="4" timestamp="2022_12_08-12_38_03"><notes name="Played Notes">[{"pitch": 67, "velocity": 64, "note_on_time": 1.237, "note_off_time": 1.558}, {"pitch": 62, "velocity": 59, "note_on_time": 1.562, "note_off_time": 1.876}, {"pitch": 64, "velocity": 65, "note_on_time": 1.867, "note_off_time": 2.193}, {"pitch": 65, "velocity": 72, "note_on_time": 2.177, "note_off_time": 2.472}, {"pitch": 60, "velocity": 74, "note_on_time": 2.504, "note_off_time": 3.026}, {"pitch": 60, "velocity": 73, "note_on_time": 3.772, "note_off_time": 4.375}, {"pitch": 65, "velocity": 72, "note_on_time": 5.022, "note_off_time": 5.343}, {"pitch": 64, "velocity": 56, "note_on_time": 5.333, "note_off_time": 5.601}, {"pitch": 67, "velocity": 70, "note_on_time": 5.623, "note_off_time": 5.925}, {"pitch": 62, "velocity": 58, "note_on_time": 5.927, "note_off_time": 6.082}, {"pitch": 62, "velocity": 63, "note_on_time": 6.222, "note_off_time": 6.538}, {"pitch": 65, "velocity": 65, "note_on_time": 6.542, "note_off_time": 6.834}, {"pitch": 60, "velocity": 46, "note_on_time": 6.857, "note_off_time": 7.143}, {"pitch": 62, "velocity": 51, "note_on_time": 7.152, "note_off_time": 7.466}, {"pitch": 65, "velocity": 66, "note_on_time": 7.474, "note_off_time": 7.944}, {"pitch": 60, "velocity": 64, "note_on_time": 8.429, "note_off_time": 8.765}, {"pitch": 64, "velocity": 61, "note_on_time": 8.762, "note_off_time": 9.368}, {"pitch": 67, "velocity": 67, "note_on_time": 9.378, "note_off_time": 9.683}, {"pitch": 60, "velocity": 64, "note_on_time": 9.688, "note_off_time": 10.008}, {"pitch": 60, "velocity": 65, "note_on_time": 10.265, "note_off_time": 10.411}, {"pitch": 60, "velocity": 74, "note_on_time": 10.569, "note_off_time": 10.742}, {"pitch": 60, "velocity": 64, "note_on_time": 10.885, "note_off_time": 11.168}]</notes><guidance name="Guidance Mode">None</guidance><error name="Error value">0.01791284210526303</error></trial><trial trial_no="5" timestamp="2022_12_08-12_38_25"><notes name="Played Notes">[{"pitch": 67, "velocity": 72, "note_on_time": 1.236, "note_off_time": 1.593}, {"pitch": 62, "velocity": 57, "note_on_time": 1.564, "note_off_time": 1.894}, {"pitch": 64, "velocity": 69, "note_on_time": 1.867, "note_off_time": 2.186}, {"pitch": 65, "velocity": 74, "note_on_time": 2.174, "note_off_time": 2.479}, {"pitch": 60, "velocity": 69, "note_on_time": 2.487, "note_off_time": 3.094}, {"pitch": 60, "velocity": 64, "note_on_time": 3.738, "note_off_time": 4.492}, {"pitch": 65, "velocity": 72, "note_on_time": 5.0, "note_off_time": 5.332}, {"pitch": 64, "velocity": 70, "note_on_time": 5.306, "note_off_time": 5.581}, {"pitch": 67, "velocity": 70, "note_on_time": 5.603, "note_off_time": 5.948}, {"pitch": 62, "velocity": 60, "note_on_time": 5.918, "note_off_time": 6.054}, {"pitch": 62, "velocity": 66, "note_on_time": 6.225, "note_off_time": 6.527}, {"pitch": 65, "velocity": 68, "note_on_time": 6.527, "note_off_time": 6.808}, {"pitch": 60, "velocity": 63, "note_on_time": 6.828, "note_off_time": 7.162}, {"pitch": 62, "velocity": 57, "note_on_time": 7.159, "note_off_time": 7.462}, {"pitch": 65, "velocity": 67, "note_on_time": 7.48, "note_off_time": 7.986}, {"pitch": 60, "velocity": 67, "note_on_time": 8.425, "note_off_time": 8.772}, {"pitch": 64, "velocity": 67, "note_on_time": 8.754, "note_off_time": 9.34}, {"pitch": 67, "velocity": 69, "note_on_time": 9.349, "note_off_time": 9.674}, {"pitch": 60, "velocity": 68, "note_on_time": 9.671, "note_off_time": 9.983}, {"pitch": 60, "velocity": 66, "note_on_time": 10.277, "note_off_time": 10.42}, {"pitch": 60, "velocity": 67, "note_on_time": 10.601, "note_off_time": 10.738}, {"pitch": 60, "velocity": 62, "note_on_time": 10.913, "note_off_time": 11.099}]</notes><guidance name="Guidance Mode">None</guidance><error name="Error value">0.015814736842105114</error></trial></trials></MIDI>