<MIDI midiNo="2022_12_08-12_55_23"><target_notes><notes name="Note List">[{"pitch": 42, "velocity": 80, "note_on_time": 0.004, "note_off_time": 0.233}, {"pitch": 42, "velocity": 80, "note_on_time": 0.233, "note_off_time": 0.451}, {"pitch": 42, "velocity": 80, "note_on_time": 0.451, "note_off_time": 0.67}, {"pitch": 42, "velocity": 80, "note_on_time": 0.67, "note_off_time": 0.886}, {"pitch": 42, "velocity": 80, "note_on_time": 0.886, "note_off_time": 1.106}, {"pitch": 62, "velocity": 80, "note_on_time": 0.886, "note_off_time": 1.322}, {"pitch": 42, "velocity": 80, "note_on_time": 1.106, "note_off_time": 1.322}, {"pitch": 42, "velocity": 80, "note_on_time": 1.322, "note_off_time": 1.54}, {"pitch": 60, "velocity": 80, "note_on_time": 1.54, "note_off_time": 1.757}, {"pitch": 42, "velocity": 80, "note_on_time": 1.541, "note_off_time": 1.757}, {"pitch": 65, "velocity": 80, "note_on_time": 1.757, "note_off_time": 1.975}, {"pitch": 42, "velocity": 80, "note_on_time": 1.757, "note_off_time": 1.975}, {"pitch": 60, "velocity": 80, "note_on_time": 1.975, "note_off_time": 2.195}, {"pitch": 42, "velocity": 80, "note_on_time": 1.975, "note_off_time": 2.195}, {"pitch": 67, "velocity": 80, "note_on_time": 2.195, "note_off_time": 2.413}, {"pitch": 42, "velocity": 80, "note_on_time": 2.195, "note_off_time": 2.413}, {"pitch": 67, "velocity": 80, "note_on_time": 2.413, "note_off_time": 2.632}, {"pitch": 42, "velocity": 80, "note_on_time": 2.413, "note_off_time": 2.632}, {"pitch": 42, "velocity": 80, "note_on_time": 2.632, "note_off_time": 2.848}, {"pitch": 60, "velocity": 80, "note_on_time": 2.632, "note_off_time": 3.066}, {"pitch": 42, "velocity": 80, "note_on_time": 2.848, "note_off_time": 3.066}, {"pitch": 42, "velocity": 80, "note_on_time": 3.066, "note_off_time": 3.284}, {"pitch": 65, "velocity": 80, "note_on_time": 3.284, "note_off_time": 3.503}, {"pitch": 42, "velocity": 80, "note_on_time": 3.284, "note_off_time": 3.503}, {"pitch": 64, "velocity": 80, "note_on_time": 3.503, "note_off_time": 3.722}, {"pitch": 42, "velocity": 80, "note_on_time": 3.503, "note_off_time": 3.722}, {"pitch": 65, "velocity": 80, "note_on_time": 3.722, "note_off_time": 3.941}, {"pitch": 42, "velocity": 80, "note_on_time": 3.722, "note_off_time": 3.941}, {"pitch": 64, "velocity": 80, "note_on_time": 3.941, "note_off_time": 4.157}, {"pitch": 42, "velocity": 80, "note_on_time": 3.941, "note_off_time": 4.157}, {"pitch": 64, "velocity": 80, "note_on_time": 4.157, "note_off_time": 4.377}, {"pitch": 42, "velocity": 80, "note_on_time": 4.157, "note_off_time": 4.377}, {"pitch": 42, "velocity": 80, "note_on_time": 4.377, "note_off_time": 4.594}, {"pitch": 65, "velocity": 80, "note_on_time": 4.377, "note_off_time": 4.812}, {"pitch": 42, "velocity": 80, "note_on_time": 4.594, "note_off_time": 4.812}, {"pitch": 42, "velocity": 80, "note_on_time": 4.812, "note_off_time": 5.032}, {"pitch": 42, "velocity": 80, "note_on_time": 5.032, "note_off_time": 5.252}, {"pitch": 62, "velocity": 80, "note_on_time": 5.252, "note_off_time": 5.471}, {"pitch": 42, "velocity": 80, "note_on_time": 5.252, "note_off_time": 5.471}, {"pitch": 62, "velocity": 80, "note_on_time": 5.471, "note_off_time": 5.688}, {"pitch": 42, "velocity": 80, "note_on_time": 5.471, "note_off_time": 5.688}, {"pitch": 65, "velocity": 80, "note_on_time": 5.688, "note_off_time": 5.907}, {"pitch": 42, "velocity": 80, "note_on_time": 5.688, "note_off_time": 5.907}, {"pitch": 60, "velocity": 80, "note_on_time": 5.907, "note_off_time": 6.126}, {"pitch": 42, "velocity": 80, "note_on_time": 5.908, "note_off_time": 6.126}, {"pitch": 62, "velocity": 80, "note_on_time": 6.126, "note_off_time": 6.343}, {"pitch": 42, "velocity": 80, "note_on_time": 6.126, "note_off_time": 6.344}, {"pitch": 65, "velocity": 80, "note_on_time": 6.343, "note_off_time": 6.563}, {"pitch": 42, "velocity": 80, "note_on_time": 6.344, "note_off_time": 6.563}, {"pitch": 65, "velocity": 80, "note_on_time": 6.563, "note_off_time": 6.779}, {"pitch": 42, "velocity": 80, "note_on_time": 6.563, "note_off_time": 6.779}, {"pitch": 60, "velocity": 80, "note_on_time": 6.779, "note_off_time": 6.997}, {"pitch": 42, "velocity": 80, "note_on_time": 6.779, "note_off_time": 6.997}, {"pitch": 42, "velocity": 80, "note_on_time": 6.997, "note_off_time": 7.217}, {"pitch": 60, "velocity": 80, "note_on_time": 7.217, "note_off_time": 7.435}, {"pitch": 42, "velocity": 80, "note_on_time": 7.217, "note_off_time": 7.435}, {"pitch": 60, "velocity": 80, "note_on_time": 7.435, "note_off_time": 7.652}, {"pitch": 42, "velocity": 80, "note_on_time": 7.435, "note_off_time": 7.652}, {"pitch": 60, "velocity": 80, "note_on_time": 7.652, "note_off_time": 7.87}, {"pitch": 42, "velocity": 80, "note_on_time": 7.653, "note_off_time": 7.87}]</notes><options name="Option List">((4, 4), [0.5, 0.25], 3, 8, &lt;NoteRangePerHand.C_TO_G: 6&gt;, &lt;NoteRangePerHand.ONE_NOTE: 2&gt;, False, True, False, 281)</options></target_notes><trials><trial trial_no="1" timestamp="2022_12_08-12_55_13"><notes name="Played Notes">[{"pitch": 62, "velocity": 67, "note_on_time": 0.902, "note_off_time": 1.284}, {"pitch": 60, "velocity": 59, "note_on_time": 1.572, "note_off_time": 1.7}, {"pitch": 65, "velocity": 65, "note_on_time": 1.809, "note_off_time": 1.994}, {"pitch": 60, "velocity": 65, "note_on_time": 2.013, "note_off_time": 2.212}, {"pitch": 67, "velocity": 78, "note_on_time": 2.224, "note_off_time": 2.316}, {"pitch": 67, "velocity": 69, "note_on_time": 2.432, "note_off_time": 2.645}, {"pitch": 60, "velocity": 76, "note_on_time": 2.662, "note_off_time": 3.037}, {"pitch": 65, "velocity": 75, "note_on_time": 3.29, "note_off_time": 3.511}, {"pitch": 64, "velocity": 72, "note_on_time": 3.522, "note_off_time": 3.722}, {"pitch": 65, "velocity": 76, "note_on_time": 3.729, "note_off_time": 3.926}, {"pitch": 64, "velocity": 76, "note_on_time": 3.945, "note_off_time": 4.046}, {"pitch": 64, "velocity": 66, "note_on_time": 4.143, "note_off_time": 4.343}, {"pitch": 65, "velocity": 75, "note_on_time": 4.38, "note_off_time": 4.803}, {"pitch": 62, "velocity": 72, "note_on_time": 5.23, "note_off_time": 5.31}, {"pitch": 62, "velocity": 64, "note_on_time": 5.467, "note_off_time": 5.65}, {"pitch": 65, "velocity": 78, "note_on_time": 5.66, "note_off_time": 5.857}, {"pitch": 60, "velocity": 73, "note_on_time": 5.875, "note_off_time": 6.072}, {"pitch": 62, "velocity": 73, "note_on_time": 6.098, "note_off_time": 6.299}, {"pitch": 65, "velocity": 72, "note_on_time": 6.314, "note_off_time": 6.389}, {"pitch": 65, "velocity": 72, "note_on_time": 6.553, "note_off_time": 6.759}, {"pitch": 60, "velocity": 71, "note_on_time": 6.785, "note_off_time": 7.05}, {"pitch": 60, "velocity": 69, "note_on_time": 7.255, "note_off_time": 7.33}, {"pitch": 60, "velocity": 72, "note_on_time": 7.487, "note_off_time": 7.578}]</notes><guidance name="Guidance Mode">None</guidance><error name="Error value">0.07363957142857112</error></trial><trial trial_no="2" timestamp="2022_12_08-12_55_30"><notes name="Played Notes">[{"pitch": 62, "velocity": 70, "note_on_time": 0.875, "note_off_time": 1.312}, {"pitch": 60, "velocity": 72, "note_on_time": 1.546, "note_off_time": 1.746}, {"pitch": 65, "velocity": 69, "note_on_time": 1.772, "note_off_time": 1.975}, {"pitch": 60, "velocity": 62, "note_on_time": 1.991, "note_off_time": 2.241}, {"pitch": 67, "velocity": 68, "note_on_time": 2.221, "note_off_time": 2.31}, {"pitch": 67, "velocity": 69, "note_on_time": 2.431, "note_off_time": 2.625}, {"pitch": 60, "velocity": 71, "note_on_time": 2.663, "note_off_time": 3.073}, {"pitch": 65, "velocity": 58, "note_on_time": 3.302, "note_off_time": 3.522}, {"pitch": 64, "velocity": 66, "note_on_time": 3.528, "note_off_time": 3.731}, {"pitch": 65, "velocity": 72, "note_on_time": 3.74, "note_off_time": 3.939}, {"pitch": 64, "velocity": 65, "note_on_time": 3.957, "note_off_time": 4.047}, {"pitch": 64, "velocity": 66, "note_on_time": 4.166, "note_off_time": 4.341}, {"pitch": 65, "velocity": 67, "note_on_time": 4.389, "note_off_time": 4.934}, {"pitch": 62, "velocity": 81, "note_on_time": 5.268, "note_off_time": 5.374}, {"pitch": 62, "velocity": 67, "note_on_time": 5.474, "note_off_time": 5.695}, {"pitch": 65, "velocity": 72, "note_on_time": 5.703, "note_off_time": 5.868}, {"pitch": 60, "velocity": 71, "note_on_time": 5.9, "note_off_time": 6.104}, {"pitch": 62, "velocity": 72, "note_on_time": 6.12, "note_off_time": 6.346}, {"pitch": 65, "velocity": 70, "note_on_time": 6.348, "note_off_time": 6.419}, {"pitch": 65, "velocity": 75, "note_on_time": 6.573, "note_off_time": 6.757}, {"pitch": 60, "velocity": 68, "note_on_time": 6.798, "note_off_time": 7.021}, {"pitch": 60, "velocity": 71, "note_on_time": 7.248, "note_off_time": 7.319}, {"pitch": 60, "velocity": 77, "note_on_time": 7.476, "note_off_time": 7.56}, {"pitch": 60, "velocity": 74, "note_on_time": 7.701, "note_off_time": 7.838}]</notes><guidance name="Guidance Mode">None</guidance><error name="Error value">0.013197857142856886</error></trial><trial trial_no="3" timestamp="2022_12_08-12_55_45"><notes name="Played Notes">[{"pitch": 62, "velocity": 70, "note_on_time": 0.86, "note_off_time": 1.292}, {"pitch": 60, "velocity": 67, "note_on_time": 1.573, "note_off_time": 1.761}, {"pitch": 65, "velocity": 73, "note_on_time": 1.783, "note_off_time": 1.972}, {"pitch": 60, "velocity": 70, "note_on_time": 1.987, "note_off_time": 2.155}, {"pitch": 67, "velocity": 68, "note_on_time": 2.22, "note_off_time": 2.306}, {"pitch": 67, "velocity": 63, "note_on_time": 2.421, "note_off_time": 2.64}, {"pitch": 60, "velocity": 67, "note_on_time": 2.662, "note_off_time": 2.963}, {"pitch": 65, "velocity": 65, "note_on_time": 3.276, "note_off_time": 3.494}, {"pitch": 64, "velocity": 60, "note_on_time": 3.521, "note_off_time": 3.686}, {"pitch": 65, "velocity": 57, "note_on_time": 3.721, "note_off_time": 3.94}, {"pitch": 64, "velocity": 64, "note_on_time": 3.942, "note_off_time": 4.022}, {"pitch": 64, "velocity": 60, "note_on_time": 4.158, "note_off_time": 4.325}, {"pitch": 65, "velocity": 63, "note_on_time": 4.385, "note_off_time": 4.811}, {"pitch": 62, "velocity": 81, "note_on_time": 5.261, "note_off_time": 5.346}, {"pitch": 62, "velocity": 62, "note_on_time": 5.452, "note_off_time": 5.666}, {"pitch": 65, "velocity": 70, "note_on_time": 5.695, "note_off_time": 5.861}, {"pitch": 60, "velocity": 48, "note_on_time": 5.918, "note_off_time": 6.051}, {"pitch": 62, "velocity": 67, "note_on_time": 6.143, "note_off_time": 6.339}, {"pitch": 65, "velocity": 67, "note_on_time": 6.348, "note_off_time": 6.416}, {"pitch": 65, "velocity": 78, "note_on_time": 6.569, "note_off_time": 6.767}, {"pitch": 60, "velocity": 62, "note_on_time": 6.794, "note_off_time": 7.038}, {"pitch": 60, "velocity": 72, "note_on_time": 7.229, "note_off_time": 7.318}, {"pitch": 60, "velocity": 70, "note_on_time": 7.449, "note_off_time": 7.538}, {"pitch": 60, "velocity": 72, "note_on_time": 7.674, "note_off_time": 7.811}]</notes><guidance name="Guidance Mode">None</guidance><error name="Error value">0.01848576190476183</error></trial></trials></MIDI>