<MIDI midiNo="2022_08_17-14_33_09"><target_notes><notes name="Note List">[{"pitch": 42, "velocity": 80, "note_on_time": 0.004, "note_off_time": 0.327}, {"pitch": 42, "velocity": 80, "note_on_time": 0.328, "note_off_time": 0.64}, {"pitch": 42, "velocity": 80, "note_on_time": 0.64, "note_off_time": 0.952}, {"pitch": 42, "velocity": 80, "note_on_time": 0.952, "note_off_time": 1.264}, {"pitch": 42, "velocity": 80, "note_on_time": 1.264, "note_off_time": 1.577}, {"pitch": 65, "velocity": 80, "note_on_time": 1.264, "note_off_time": 1.888}, {"pitch": 42, "velocity": 80, "note_on_time": 1.577, "note_off_time": 1.888}, {"pitch": 42, "velocity": 80, "note_on_time": 1.889, "note_off_time": 2.2}, {"pitch": 42, "velocity": 80, "note_on_time": 2.2, "note_off_time": 2.511}, {"pitch": 42, "velocity": 80, "note_on_time": 2.511, "note_off_time": 2.824}, {"pitch": 67, "velocity": 80, "note_on_time": 2.511, "note_off_time": 3.137}, {"pitch": 42, "velocity": 80, "note_on_time": 2.824, "note_off_time": 3.137}, {"pitch": 42, "velocity": 80, "note_on_time": 3.138, "note_off_time": 3.451}, {"pitch": 64, "velocity": 80, "note_on_time": 3.451, "note_off_time": 3.765}, {"pitch": 42, "velocity": 80, "note_on_time": 3.451, "note_off_time": 3.765}, {"pitch": 67, "velocity": 80, "note_on_time": 3.765, "note_off_time": 4.077}, {"pitch": 42, "velocity": 80, "note_on_time": 3.765, "note_off_time": 4.077}, {"pitch": 64, "velocity": 80, "note_on_time": 4.077, "note_off_time": 4.388}, {"pitch": 42, "velocity": 80, "note_on_time": 4.077, "note_off_time": 4.388}, {"pitch": 42, "velocity": 80, "note_on_time": 4.389, "note_off_time": 4.699}, {"pitch": 67, "velocity": 80, "note_on_time": 4.699, "note_off_time": 5.011}, {"pitch": 42, "velocity": 80, "note_on_time": 4.699, "note_off_time": 5.011}, {"pitch": 67, "velocity": 80, "note_on_time": 5.011, "note_off_time": 5.324}, {"pitch": 42, "velocity": 80, "note_on_time": 5.011, "note_off_time": 5.324}, {"pitch": 67, "velocity": 80, "note_on_time": 5.324, "note_off_time": 5.638}, {"pitch": 42, "velocity": 80, "note_on_time": 5.324, "note_off_time": 5.638}, {"pitch": 42, "velocity": 80, "note_on_time": 5.638, "note_off_time": 5.951}, {"pitch": 64, "velocity": 80, "note_on_time": 5.951, "note_off_time": 6.263}, {"pitch": 42, "velocity": 80, "note_on_time": 5.951, "note_off_time": 6.263}, {"pitch": 67, "velocity": 80, "note_on_time": 6.263, "note_off_time": 6.574}, {"pitch": 42, "velocity": 80, "note_on_time": 6.263, "note_off_time": 6.575}, {"pitch": 62, "velocity": 80, "note_on_time": 6.574, "note_off_time": 6.888}, {"pitch": 42, "velocity": 80, "note_on_time": 6.575, "note_off_time": 6.888}, {"pitch": 65, "velocity": 80, "note_on_time": 6.888, "note_off_time": 7.2}, {"pitch": 42, "velocity": 80, "note_on_time": 6.889, "note_off_time": 7.201}, {"pitch": 65, "velocity": 80, "note_on_time": 7.2, "note_off_time": 7.512}, {"pitch": 42, "velocity": 80, "note_on_time": 7.201, "note_off_time": 7.512}, {"pitch": 60, "velocity": 80, "note_on_time": 7.512, "note_off_time": 7.821}, {"pitch": 42, "velocity": 80, "note_on_time": 7.512, "note_off_time": 7.822}, {"pitch": 67, "velocity": 80, "note_on_time": 7.821, "note_off_time": 8.133}, {"pitch": 42, "velocity": 80, "note_on_time": 7.822, "note_off_time": 8.134}, {"pitch": 64, "velocity": 80, "note_on_time": 8.133, "note_off_time": 8.446}, {"pitch": 42, "velocity": 80, "note_on_time": 8.134, "note_off_time": 8.446}, {"pitch": 60, "velocity": 80, "note_on_time": 8.446, "note_off_time": 8.759}, {"pitch": 42, "velocity": 80, "note_on_time": 8.446, "note_off_time": 8.759}, {"pitch": 60, "velocity": 80, "note_on_time": 8.759, "note_off_time": 9.072}, {"pitch": 42, "velocity": 80, "note_on_time": 8.759, "note_off_time": 9.072}, {"pitch": 62, "velocity": 80, "note_on_time": 9.072, "note_off_time": 9.383}, {"pitch": 42, "velocity": 80, "note_on_time": 9.072, "note_off_time": 9.383}, {"pitch": 67, "velocity": 80, "note_on_time": 9.383, "note_off_time": 9.694}, {"pitch": 42, "velocity": 80, "note_on_time": 9.383, "note_off_time": 9.694}, {"pitch": 64, "velocity": 80, "note_on_time": 9.694, "note_off_time": 10.006}, {"pitch": 42, "velocity": 80, "note_on_time": 9.694, "note_off_time": 10.006}, {"pitch": 42, "velocity": 80, "note_on_time": 10.006, "note_off_time": 10.317}, {"pitch": 64, "velocity": 80, "note_on_time": 10.317, "note_off_time": 10.629}, {"pitch": 42, "velocity": 80, "note_on_time": 10.317, "note_off_time": 10.629}, {"pitch": 64, "velocity": 80, "note_on_time": 10.629, "note_off_time": 10.942}, {"pitch": 42, "velocity": 80, "note_on_time": 10.629, "note_off_time": 10.942}, {"pitch": 64, "velocity": 80, "note_on_time": 10.942, "note_off_time": 11.253}, {"pitch": 42, "velocity": 80, "note_on_time": 10.942, "note_off_time": 11.253}]</notes><options name="Option List">((4, 4), [0.5, 0.25], 3, 8, &lt;NoteRangePerHand.C_TO_G: 6&gt;, &lt;NoteRangePerHand.ONE_NOTE: 2&gt;, False, True, True, '195')</options></target_notes><trials><trial trial_no="1" timestamp="2022_08_17-14_32_56"><notes name="Played Notes">[{"pitch": 65, "velocity": 63, "note_on_time": 1.283, "note_off_time": 1.761}, {"pitch": 67, "velocity": 67, "note_on_time": 2.378, "note_off_time": 2.85}, {"pitch": 64, "velocity": 75, "note_on_time": 3.263, "note_off_time": 3.346}, {"pitch": 67, "velocity": 64, "note_on_time": 3.582, "note_off_time": 3.729}, {"pitch": 64, "velocity": 61, "note_on_time": 3.953, "note_off_time": 4.039}, {"pitch": 67, "velocity": 68, "note_on_time": 4.725, "note_off_time": 4.84}, {"pitch": 67, "velocity": 71, "note_on_time": 5.069, "note_off_time": 5.175}, {"pitch": 67, "velocity": 69, "note_on_time": 5.411, "note_off_time": 5.52}, {"pitch": 64, "velocity": 71, "note_on_time": 5.794, "note_off_time": 5.851}, {"pitch": 67, "velocity": 72, "note_on_time": 6.189, "note_off_time": 6.301}, {"pitch": 64, "velocity": 63, "note_on_time": 6.706, "note_off_time": 6.768}]</notes><guidance name="Guidance Mode">None</guidance><error name="Error value">1.0622744761904759</error></trial><trial trial_no="2" timestamp="2022_08_17-14_33_33"><notes name="Played Notes">[{"pitch": 65, "velocity": 69, "note_on_time": 1.287, "note_off_time": 1.736}, {"pitch": 67, "velocity": 82, "note_on_time": 2.327, "note_off_time": 2.83}, {"pitch": 64, "velocity": 65, "note_on_time": 3.59, "note_off_time": 3.658}, {"pitch": 67, "velocity": 57, "note_on_time": 3.946, "note_off_time": 4.085}, {"pitch": 64, "velocity": 69, "note_on_time": 4.291, "note_off_time": 4.352}, {"pitch": 67, "velocity": 73, "note_on_time": 4.996, "note_off_time": 5.123}, {"pitch": 67, "velocity": 71, "note_on_time": 5.362, "note_off_time": 5.469}, {"pitch": 67, "velocity": 80, "note_on_time": 5.681, "note_off_time": 5.808}, {"pitch": 64, "velocity": 64, "note_on_time": 6.064, "note_off_time": 6.142}, {"pitch": 67, "velocity": 69, "note_on_time": 6.418, "note_off_time": 6.559}, {"pitch": 62, "velocity": 54, "note_on_time": 7.048, "note_off_time": 7.1}, {"pitch": 65, "velocity": 72, "note_on_time": 7.463, "note_off_time": 7.538}, {"pitch": 65, "velocity": 74, "note_on_time": 7.827, "note_off_time": 7.921}, {"pitch": 60, "velocity": 70, "note_on_time": 8.191, "note_off_time": 8.255}, {"pitch": 67, "velocity": 80, "note_on_time": 8.814, "note_off_time": 8.942}, {"pitch": 64, "velocity": 68, "note_on_time": 9.164, "note_off_time": 9.228}, {"pitch": 60, "velocity": 62, "note_on_time": 9.573, "note_off_time": 9.65}, {"pitch": 62, "velocity": 58, "note_on_time": 10.702, "note_off_time": 10.755}, {"pitch": 67, "velocity": 64, "note_on_time": 11.101, "note_off_time": 11.233}]</notes><guidance name="Guidance Mode">None</guidance><error name="Error value">0.6302967619047618</error></trial><trial trial_no="3" timestamp="2022_08_17-14_34_03"><notes name="Played Notes">[{"pitch": 65, "velocity": 59, "note_on_time": 1.274, "note_off_time": 1.681}, {"pitch": 67, "velocity": 73, "note_on_time": 2.318, "note_off_time": 2.819}, {"pitch": 64, "velocity": 77, "note_on_time": 3.298, "note_off_time": 3.409}, {"pitch": 67, "velocity": 73, "note_on_time": 3.662, "note_off_time": 3.784}, {"pitch": 64, "velocity": 71, "note_on_time": 4.018, "note_off_time": 4.11}, {"pitch": 67, "velocity": 76, "note_on_time": 4.401, "note_off_time": 4.507}, {"pitch": 67, "velocity": 74, "note_on_time": 4.805, "note_off_time": 4.913}, {"pitch": 67, "velocity": 74, "note_on_time": 5.206, "note_off_time": 5.321}, {"pitch": 64, "velocity": 84, "note_on_time": 5.589, "note_off_time": 5.668}, {"pitch": 67, "velocity": 78, "note_on_time": 5.989, "note_off_time": 6.115}, {"pitch": 64, "velocity": 56, "note_on_time": 6.366, "note_off_time": 6.435}, {"pitch": 65, "velocity": 82, "note_on_time": 7.247, "note_off_time": 7.329}, {"pitch": 65, "velocity": 57, "note_on_time": 7.616, "note_off_time": 7.683}, {"pitch": 60, "velocity": 70, "note_on_time": 7.957, "note_off_time": 8.036}, {"pitch": 67, "velocity": 68, "note_on_time": 8.337, "note_off_time": 8.469}, {"pitch": 64, "velocity": 74, "note_on_time": 8.699, "note_off_time": 8.788}, {"pitch": 60, "velocity": 79, "note_on_time": 9.058, "note_off_time": 9.138}, {"pitch": 60, "velocity": 72, "note_on_time": 9.449, "note_off_time": 9.549}, {"pitch": 62, "velocity": 54, "note_on_time": 10.311, "note_off_time": 10.361}]</notes><guidance name="Guidance Mode">None</guidance><error name="Error value">0.7453992380952382</error></trial><trial trial_no="4" timestamp="2022_08_17-14_34_40"><notes name="Played Notes">[{"pitch": 65, "velocity": 57, "note_on_time": 1.256, "note_off_time": 1.633}, {"pitch": 67, "velocity": 62, "note_on_time": 2.225, "note_off_time": 2.705}, {"pitch": 64, "velocity": 78, "note_on_time": 3.179, "note_off_time": 3.229}, {"pitch": 67, "velocity": 64, "note_on_time": 3.507, "note_off_time": 3.621}, {"pitch": 64, "velocity": 71, "note_on_time": 3.838, "note_off_time": 3.926}, {"pitch": 67, "velocity": 85, "note_on_time": 4.248, "note_off_time": 4.362}, {"pitch": 67, "velocity": 85, "note_on_time": 4.601, "note_off_time": 4.714}, {"pitch": 67, "velocity": 75, "note_on_time": 4.946, "note_off_time": 5.06}, {"pitch": 64, "velocity": 67, "note_on_time": 5.644, "note_off_time": 5.702}, {"pitch": 67, "velocity": 62, "note_on_time": 5.991, "note_off_time": 6.116}, {"pitch": 62, "velocity": 59, "note_on_time": 6.538, "note_off_time": 6.588}, {"pitch": 65, "velocity": 77, "note_on_time": 6.935, "note_off_time": 6.993}, {"pitch": 65, "velocity": 77, "note_on_time": 7.281, "note_off_time": 7.372}, {"pitch": 60, "velocity": 76, "note_on_time": 7.606, "note_off_time": 7.685}, {"pitch": 67, "velocity": 50, "note_on_time": 8.248, "note_off_time": 8.388}, {"pitch": 64, "velocity": 57, "note_on_time": 8.627, "note_off_time": 8.697}, {"pitch": 60, "velocity": 69, "note_on_time": 8.932, "note_off_time": 9.018}, {"pitch": 60, "velocity": 75, "note_on_time": 9.29, "note_off_time": 9.362}, {"pitch": 62, "velocity": 74, "note_on_time": 9.602, "note_off_time": 9.672}, {"pitch": 67, "velocity": 74, "note_on_time": 10.049, "note_off_time": 10.168}, {"pitch": 64, "velocity": 77, "note_on_time": 10.407, "note_off_time": 10.458}, {"pitch": 64, "velocity": 68, "note_on_time": 11.18, "note_off_time": 11.233}]</notes><guidance name="Guidance Mode">None</guidance><error name="Error value">0.20944704761904753</error></trial><trial trial_no="5" timestamp="2022_08_17-14_35_10"><notes name="Played Notes">[{"pitch": 65, "velocity": 61, "note_on_time": 1.265, "note_off_time": 1.68}, {"pitch": 67, "velocity": 66, "note_on_time": 2.187, "note_off_time": 2.652}, {"pitch": 64, "velocity": 70, "note_on_time": 3.076, "note_off_time": 3.178}, {"pitch": 67, "velocity": 71, "note_on_time": 3.418, "note_off_time": 3.551}, {"pitch": 64, "velocity": 75, "note_on_time": 3.747, "note_off_time": 3.825}, {"pitch": 67, "velocity": 81, "note_on_time": 4.083, "note_off_time": 4.194}, {"pitch": 67, "velocity": 74, "note_on_time": 4.442, "note_off_time": 4.545}, {"pitch": 67, "velocity": 77, "note_on_time": 4.78, "note_off_time": 4.885}, {"pitch": 64, "velocity": 69, "note_on_time": 5.506, "note_off_time": 5.553}, {"pitch": 67, "velocity": 72, "note_on_time": 5.761, "note_off_time": 5.87}, {"pitch": 64, "velocity": 58, "note_on_time": 6.169, "note_off_time": 6.237}, {"pitch": 65, "velocity": 72, "note_on_time": 6.76, "note_off_time": 6.812}, {"pitch": 65, "velocity": 69, "note_on_time": 7.104, "note_off_time": 7.182}, {"pitch": 60, "velocity": 79, "note_on_time": 7.447, "note_off_time": 7.511}, {"pitch": 67, "velocity": 63, "note_on_time": 7.892, "note_off_time": 8.027}, {"pitch": 64, "velocity": 79, "note_on_time": 8.226, "note_off_time": 8.294}, {"pitch": 60, "velocity": 74, "note_on_time": 8.568, "note_off_time": 8.637}, {"pitch": 60, "velocity": 88, "note_on_time": 8.939, "note_off_time": 9.016}, {"pitch": 62, "velocity": 71, "note_on_time": 9.269, "note_off_time": 9.323}, {"pitch": 67, "velocity": 77, "note_on_time": 9.628, "note_off_time": 9.753}, {"pitch": 64, "velocity": 45, "note_on_time": 10.019, "note_off_time": 10.141}, {"pitch": 64, "velocity": 40, "note_on_time": 10.728, "note_off_time": 10.784}, {"pitch": 64, "velocity": 64, "note_on_time": 11.064, "note_off_time": 11.121}]</notes><guidance name="Guidance Mode">None</guidance><error name="Error value">0.19676933333333332</error></trial><trial trial_no="6" timestamp="2022_08_17-14_36_33"><notes name="Played Notes">[{"pitch": 65, "velocity": 66, "note_on_time": 1.632, "note_off_time": 2.142}, {"pitch": 67, "velocity": 67, "note_on_time": 2.827, "note_off_time": 3.334}, {"pitch": 64, "velocity": 56, "note_on_time": 3.699, "note_off_time": 3.81}, {"pitch": 67, "velocity": 67, "note_on_time": 4.051, "note_off_time": 4.192}, {"pitch": 64, "velocity": 58, "note_on_time": 4.479, "note_off_time": 4.586}, {"pitch": 67, "velocity": 87, "note_on_time": 5.001, "note_off_time": 5.101}, {"pitch": 67, "velocity": 77, "note_on_time": 5.407, "note_off_time": 5.501}, {"pitch": 67, "velocity": 62, "note_on_time": 5.828, "note_off_time": 5.96}, {"pitch": 64, "velocity": 64, "note_on_time": 6.247, "note_off_time": 6.322}, {"pitch": 67, "velocity": 62, "note_on_time": 6.71, "note_off_time": 6.844}, {"pitch": 62, "velocity": 64, "note_on_time": 7.218, "note_off_time": 7.307}, {"pitch": 65, "velocity": 58, "note_on_time": 7.681, "note_off_time": 7.803}, {"pitch": 65, "velocity": 66, "note_on_time": 8.112, "note_off_time": 8.217}, {"pitch": 60, "velocity": 64, "note_on_time": 8.526, "note_off_time": 8.619}, {"pitch": 67, "velocity": 67, "note_on_time": 8.99, "note_off_time": 9.126}, {"pitch": 64, "velocity": 68, "note_on_time": 9.421, "note_off_time": 9.513}, {"pitch": 60, "velocity": 55, "note_on_time": 9.868, "note_off_time": 9.944}, {"pitch": 60, "velocity": 61, "note_on_time": 10.293, "note_off_time": 10.363}, {"pitch": 62, "velocity": 66, "note_on_time": 10.645, "note_off_time": 10.707}, {"pitch": 67, "velocity": 72, "note_on_time": 11.038, "note_off_time": 11.168}, {"pitch": 64, "velocity": 65, "note_on_time": 11.456, "note_off_time": 11.508}, {"pitch": 64, "velocity": 68, "note_on_time": 12.154, "note_off_time": 12.205}, {"pitch": 64, "velocity": 68, "note_on_time": 12.534, "note_off_time": 12.593}, {"pitch": 64, "velocity": 74, "note_on_time": 12.928, "note_off_time": 12.977}]</notes><guidance name="Guidance Mode">None</guidance><error name="Error value">2.2266190476190486</error></trial></trials></MIDI>