<MIDI midiNo="2022_12_15-12_15_43"><target_notes><notes name="Note List">[{"pitch": 42, "velocity": 80, "note_on_time": 0.005, "note_off_time": 0.376}, {"pitch": 42, "velocity": 80, "note_on_time": 0.376, "note_off_time": 0.754}, {"pitch": 42, "velocity": 80, "note_on_time": 0.755, "note_off_time": 1.127}, {"pitch": 42, "velocity": 80, "note_on_time": 1.127, "note_off_time": 1.502}, {"pitch": 64, "velocity": 80, "note_on_time": 1.502, "note_off_time": 1.878}, {"pitch": 42, "velocity": 80, "note_on_time": 1.503, "note_off_time": 1.878}, {"pitch": 42, "velocity": 80, "note_on_time": 1.879, "note_off_time": 2.25}, {"pitch": 64, "velocity": 80, "note_on_time": 2.25, "note_off_time": 2.624}, {"pitch": 42, "velocity": 80, "note_on_time": 2.25, "note_off_time": 2.624}, {"pitch": 62, "velocity": 80, "note_on_time": 2.624, "note_off_time": 2.999}, {"pitch": 42, "velocity": 80, "note_on_time": 2.625, "note_off_time": 2.999}, {"pitch": 42, "velocity": 80, "note_on_time": 2.999, "note_off_time": 3.373}, {"pitch": 64, "velocity": 80, "note_on_time": 2.999, "note_off_time": 3.749}, {"pitch": 42, "velocity": 80, "note_on_time": 3.373, "note_off_time": 3.749}, {"pitch": 64, "velocity": 80, "note_on_time": 3.749, "note_off_time": 4.122}, {"pitch": 42, "velocity": 80, "note_on_time": 3.749, "note_off_time": 4.123}, {"pitch": 60, "velocity": 80, "note_on_time": 4.122, "note_off_time": 4.496}, {"pitch": 42, "velocity": 80, "note_on_time": 4.123, "note_off_time": 4.497}, {"pitch": 64, "velocity": 80, "note_on_time": 4.497, "note_off_time": 4.872}, {"pitch": 42, "velocity": 80, "note_on_time": 4.497, "note_off_time": 4.873}, {"pitch": 62, "velocity": 80, "note_on_time": 4.872, "note_off_time": 5.248}, {"pitch": 42, "velocity": 80, "note_on_time": 4.873, "note_off_time": 5.248}, {"pitch": 64, "velocity": 80, "note_on_time": 5.248, "note_off_time": 5.623}, {"pitch": 42, "velocity": 80, "note_on_time": 5.248, "note_off_time": 5.623}, {"pitch": 64, "velocity": 80, "note_on_time": 5.623, "note_off_time": 5.997}, {"pitch": 42, "velocity": 80, "note_on_time": 5.623, "note_off_time": 5.997}, {"pitch": 42, "velocity": 80, "note_on_time": 5.997, "note_off_time": 6.369}, {"pitch": 60, "velocity": 80, "note_on_time": 5.997, "note_off_time": 6.744}, {"pitch": 42, "velocity": 80, "note_on_time": 6.369, "note_off_time": 6.745}, {"pitch": 62, "velocity": 80, "note_on_time": 6.744, "note_off_time": 7.116}, {"pitch": 42, "velocity": 80, "note_on_time": 6.745, "note_off_time": 7.117}, {"pitch": 64, "velocity": 80, "note_on_time": 7.116, "note_off_time": 7.492}, {"pitch": 42, "velocity": 80, "note_on_time": 7.117, "note_off_time": 7.492}, {"pitch": 62, "velocity": 80, "note_on_time": 7.492, "note_off_time": 7.865}, {"pitch": 42, "velocity": 80, "note_on_time": 7.492, "note_off_time": 7.866}, {"pitch": 62, "velocity": 80, "note_on_time": 7.865, "note_off_time": 8.239}, {"pitch": 42, "velocity": 80, "note_on_time": 7.866, "note_off_time": 8.239}, {"pitch": 62, "velocity": 80, "note_on_time": 8.239, "note_off_time": 8.611}, {"pitch": 42, "velocity": 80, "note_on_time": 8.239, "note_off_time": 8.612}, {"pitch": 62, "velocity": 80, "note_on_time": 8.611, "note_off_time": 8.987}, {"pitch": 42, "velocity": 80, "note_on_time": 8.612, "note_off_time": 8.987}, {"pitch": 42, "velocity": 80, "note_on_time": 8.987, "note_off_time": 9.361}, {"pitch": 64, "velocity": 80, "note_on_time": 8.987, "note_off_time": 9.734}, {"pitch": 42, "velocity": 80, "note_on_time": 9.361, "note_off_time": 9.734}, {"pitch": 42, "velocity": 80, "note_on_time": 9.734, "note_off_time": 10.111}, {"pitch": 62, "velocity": 80, "note_on_time": 10.11, "note_off_time": 10.485}, {"pitch": 42, "velocity": 80, "note_on_time": 10.111, "note_off_time": 10.485}, {"pitch": 62, "velocity": 80, "note_on_time": 10.485, "note_off_time": 10.86}, {"pitch": 42, "velocity": 80, "note_on_time": 10.486, "note_off_time": 10.86}, {"pitch": 42, "velocity": 80, "note_on_time": 10.86, "note_off_time": 11.235}, {"pitch": 64, "velocity": 80, "note_on_time": 11.235, "note_off_time": 11.611}, {"pitch": 42, "velocity": 80, "note_on_time": 11.235, "note_off_time": 11.612}, {"pitch": 62, "velocity": 80, "note_on_time": 11.611, "note_off_time": 11.986}, {"pitch": 42, "velocity": 80, "note_on_time": 11.612, "note_off_time": 11.986}, {"pitch": 42, "velocity": 80, "note_on_time": 11.987, "note_off_time": 12.36}, {"pitch": 62, "velocity": 80, "note_on_time": 12.36, "note_off_time": 12.734}, {"pitch": 42, "velocity": 80, "note_on_time": 12.36, "note_off_time": 12.735}, {"pitch": 62, "velocity": 80, "note_on_time": 12.734, "note_off_time": 13.109}, {"pitch": 42, "velocity": 80, "note_on_time": 12.735, "note_off_time": 13.11}, {"pitch": 62, "velocity": 80, "note_on_time": 13.109, "note_off_time": 13.484}, {"pitch": 42, "velocity": 80, "note_on_time": 13.11, "note_off_time": 13.484}]</notes><options name="Option List">((4, 4), [0.5, 0.25], 3, 8, &lt;NoteRangePerHand.THREE_NOTES: 4&gt;, &lt;NoteRangePerHand.ONE_NOTE: 2&gt;, False, True, False, '166')</options></target_notes><trials><trial trial_no="1" timestamp="2022_12_15-12_17_30"><notes name="Played Notes">[{"pitch": 76, "velocity": 65, "note_on_time": 1.48, "note_off_time": 1.79}, {"pitch": 76, "velocity": 68, "note_on_time": 2.211, "note_off_time": 2.401}, {"pitch": 74, "velocity": 40, "note_on_time": 2.611, "note_off_time": 2.692}, {"pitch": 76, "velocity": 60, "note_on_time": 2.97, "note_off_time": 3.349}, {"pitch": 76, "velocity": 59, "note_on_time": 3.686, "note_off_time": 3.822}, {"pitch": 72, "velocity": 65, "note_on_time": 4.053, "note_off_time": 4.113}, {"pitch": 76, "velocity": 69, "note_on_time": 4.544, "note_off_time": 4.652}, {"pitch": 74, "velocity": 58, "note_on_time": 4.868, "note_off_time": 4.939}, {"pitch": 76, "velocity": 50, "note_on_time": 5.224, "note_off_time": 5.351}, {"pitch": 76, "velocity": 72, "note_on_time": 5.597, "note_off_time": 5.708}, {"pitch": 72, "velocity": 72, "note_on_time": 5.957, "note_off_time": 6.299}, {"pitch": 74, "velocity": 76, "note_on_time": 6.71, "note_off_time": 6.827}, {"pitch": 76, "velocity": 72, "note_on_time": 7.073, "note_off_time": 7.197}, {"pitch": 74, "velocity": 79, "note_on_time": 7.428, "note_off_time": 7.535}, {"pitch": 74, "velocity": 70, "note_on_time": 7.81, "note_off_time": 7.903}, {"pitch": 74, "velocity": 74, "note_on_time": 8.163, "note_off_time": 8.229}, {"pitch": 74, "velocity": 77, "note_on_time": 8.543, "note_off_time": 8.634}, {"pitch": 76, "velocity": 77, "note_on_time": 8.922, "note_off_time": 9.361}, {"pitch": 72, "velocity": 65, "note_on_time": 10.095, "note_off_time": 10.202}, {"pitch": 72, "velocity": 64, "note_on_time": 10.452, "note_off_time": 10.58}, {"pitch": 76, "velocity": 52, "note_on_time": 11.177, "note_off_time": 11.307}, {"pitch": 72, "velocity": 39, "note_on_time": 11.605, "note_off_time": 11.667}, {"pitch": 74, "velocity": 44, "note_on_time": 12.254, "note_off_time": 12.347}, {"pitch": 74, "velocity": 53, "note_on_time": 12.619, "note_off_time": 12.705}, {"pitch": 74, "velocity": 51, "note_on_time": 13.033, "note_off_time": 13.1}]</notes><guidance name="Guidance Mode">None</guidance><error name="Error value">1.1655452272727276</error></trial><trial trial_no="2" timestamp="2022_12_15-12_17_56"><notes name="Played Notes">[{"pitch": 76, "velocity": 61, "note_on_time": 1.457, "note_off_time": 1.755}, {"pitch": 76, "velocity": 49, "note_on_time": 2.25, "note_off_time": 2.405}, {"pitch": 74, "velocity": 53, "note_on_time": 2.604, "note_off_time": 2.741}, {"pitch": 76, "velocity": 61, "note_on_time": 2.991, "note_off_time": 3.347}, {"pitch": 76, "velocity": 51, "note_on_time": 3.706, "note_off_time": 3.871}, {"pitch": 72, "velocity": 61, "note_on_time": 4.074, "note_off_time": 4.177}, {"pitch": 74, "velocity": 76, "note_on_time": 4.451, "note_off_time": 4.576}, {"pitch": 72, "velocity": 81, "note_on_time": 4.827, "note_off_time": 4.906}, {"pitch": 72, "velocity": 61, "note_on_time": 5.998, "note_off_time": 6.392}, {"pitch": 74, "velocity": 70, "note_on_time": 6.714, "note_off_time": 6.832}, {"pitch": 76, "velocity": 54, "note_on_time": 7.067, "note_off_time": 7.186}, {"pitch": 76, "velocity": 57, "note_on_time": 7.463, "note_off_time": 7.597}, {"pitch": 76, "velocity": 58, "note_on_time": 7.85, "note_off_time": 7.962}, {"pitch": 76, "velocity": 72, "note_on_time": 8.977, "note_off_time": 9.427}]</notes><guidance name="Guidance Mode">None</guidance><error name="Error value">1.3692275</error></trial><trial trial_no="3" timestamp="2022_12_15-12_18_27"><notes name="Played Notes">[{"pitch": 76, "velocity": 51, "note_on_time": 1.476, "note_off_time": 1.786}, {"pitch": 76, "velocity": 49, "note_on_time": 2.234, "note_off_time": 2.383}, {"pitch": 74, "velocity": 25, "note_on_time": 2.623, "note_off_time": 2.755}, {"pitch": 76, "velocity": 60, "note_on_time": 2.969, "note_off_time": 3.287}, {"pitch": 76, "velocity": 59, "note_on_time": 3.699, "note_off_time": 3.858}, {"pitch": 72, "velocity": 61, "note_on_time": 4.057, "note_off_time": 4.202}, {"pitch": 76, "velocity": 63, "note_on_time": 4.437, "note_off_time": 4.584}, {"pitch": 74, "velocity": 66, "note_on_time": 4.78, "note_off_time": 4.899}, {"pitch": 76, "velocity": 62, "note_on_time": 5.139, "note_off_time": 5.263}, {"pitch": 76, "velocity": 51, "note_on_time": 5.517, "note_off_time": 5.699}, {"pitch": 72, "velocity": 57, "note_on_time": 5.932, "note_off_time": 6.311}, {"pitch": 74, "velocity": 48, "note_on_time": 6.694, "note_off_time": 6.808}, {"pitch": 76, "velocity": 46, "note_on_time": 7.04, "note_off_time": 7.183}, {"pitch": 74, "velocity": 48, "note_on_time": 7.426, "note_off_time": 7.515}, {"pitch": 74, "velocity": 57, "note_on_time": 7.763, "note_off_time": 7.85}, {"pitch": 74, "velocity": 71, "note_on_time": 8.132, "note_off_time": 8.214}, {"pitch": 74, "velocity": 67, "note_on_time": 8.511, "note_off_time": 8.612}, {"pitch": 76, "velocity": 73, "note_on_time": 8.899, "note_off_time": 9.234}, {"pitch": 74, "velocity": 43, "note_on_time": 10.113, "note_off_time": 10.226}, {"pitch": 74, "velocity": 55, "note_on_time": 10.454, "note_off_time": 10.602}, {"pitch": 74, "velocity": 66, "note_on_time": 11.199, "note_off_time": 11.328}, {"pitch": 72, "velocity": 45, "note_on_time": 11.551, "note_off_time": 11.612}, {"pitch": 74, "velocity": 53, "note_on_time": 11.946, "note_off_time": 12.078}, {"pitch": 74, "velocity": 68, "note_on_time": 12.472, "note_off_time": 12.512}, {"pitch": 74, "velocity": 40, "note_on_time": 12.919, "note_off_time": 13.039}]</notes><guidance name="Guidance Mode">None</guidance><error name="Error value">1.1869593181818183</error></trial></trials></MIDI>