<MIDI midiNo="2022_08_17-16_13_59"><target_notes><notes name="Note List">[{"pitch": 42, "velocity": 80, "note_on_time": 0.003, "note_off_time": 0.911}, {"pitch": 42, "velocity": 80, "note_on_time": 0.912, "note_off_time": 1.818}, {"pitch": 42, "velocity": 80, "note_on_time": 1.818, "note_off_time": 2.722}, {"pitch": 42, "velocity": 80, "note_on_time": 2.723, "note_off_time": 3.627}, {"pitch": 65, "velocity": 80, "note_on_time": 3.627, "note_off_time": 4.531}, {"pitch": 42, "velocity": 80, "note_on_time": 3.627, "note_off_time": 4.531}, {"pitch": 65, "velocity": 80, "note_on_time": 4.531, "note_off_time": 5.438}, {"pitch": 42, "velocity": 80, "note_on_time": 4.531, "note_off_time": 5.438}, {"pitch": 65, "velocity": 80, "note_on_time": 5.438, "note_off_time": 6.343}, {"pitch": 42, "velocity": 80, "note_on_time": 5.438, "note_off_time": 6.343}, {"pitch": 60, "velocity": 80, "note_on_time": 6.343, "note_off_time": 7.249}, {"pitch": 42, "velocity": 80, "note_on_time": 6.343, "note_off_time": 7.25}, {"pitch": 62, "velocity": 80, "note_on_time": 7.249, "note_off_time": 8.154}, {"pitch": 42, "velocity": 80, "note_on_time": 7.25, "note_off_time": 8.155}, {"pitch": 62, "velocity": 80, "note_on_time": 8.154, "note_off_time": 9.06}, {"pitch": 42, "velocity": 80, "note_on_time": 8.155, "note_off_time": 9.061}, {"pitch": 42, "velocity": 80, "note_on_time": 9.061, "note_off_time": 9.966}, {"pitch": 60, "velocity": 80, "note_on_time": 9.966, "note_off_time": 10.871}, {"pitch": 42, "velocity": 80, "note_on_time": 9.967, "note_off_time": 10.871}, {"pitch": 62, "velocity": 80, "note_on_time": 10.871, "note_off_time": 11.775}, {"pitch": 42, "velocity": 80, "note_on_time": 10.871, "note_off_time": 11.775}, {"pitch": 62, "velocity": 80, "note_on_time": 11.775, "note_off_time": 12.681}, {"pitch": 42, "velocity": 80, "note_on_time": 11.776, "note_off_time": 12.681}, {"pitch": 42, "velocity": 80, "note_on_time": 12.681, "note_off_time": 13.592}, {"pitch": 62, "velocity": 80, "note_on_time": 12.681, "note_off_time": 14.5}, {"pitch": 42, "velocity": 80, "note_on_time": 13.592, "note_off_time": 14.5}, {"pitch": 60, "velocity": 80, "note_on_time": 14.5, "note_off_time": 15.41}, {"pitch": 42, "velocity": 80, "note_on_time": 14.5, "note_off_time": 15.411}, {"pitch": 65, "velocity": 80, "note_on_time": 15.41, "note_off_time": 16.319}, {"pitch": 42, "velocity": 80, "note_on_time": 15.411, "note_off_time": 16.319}, {"pitch": 64, "velocity": 80, "note_on_time": 16.319, "note_off_time": 17.226}, {"pitch": 42, "velocity": 80, "note_on_time": 16.319, "note_off_time": 17.227}, {"pitch": 67, "velocity": 80, "note_on_time": 17.226, "note_off_time": 18.13}, {"pitch": 42, "velocity": 80, "note_on_time": 17.227, "note_off_time": 18.13}, {"pitch": 65, "velocity": 80, "note_on_time": 18.13, "note_off_time": 19.037}, {"pitch": 42, "velocity": 80, "note_on_time": 18.131, "note_off_time": 19.037}, {"pitch": 64, "velocity": 80, "note_on_time": 19.037, "note_off_time": 19.942}, {"pitch": 42, "velocity": 80, "note_on_time": 19.037, "note_off_time": 19.942}, {"pitch": 42, "velocity": 80, "note_on_time": 19.942, "note_off_time": 20.846}, {"pitch": 42, "velocity": 80, "note_on_time": 20.846, "note_off_time": 21.75}, {"pitch": 64, "velocity": 80, "note_on_time": 21.75, "note_off_time": 22.657}, {"pitch": 42, "velocity": 80, "note_on_time": 21.751, "note_off_time": 22.657}, {"pitch": 62, "velocity": 80, "note_on_time": 22.657, "note_off_time": 23.561}, {"pitch": 42, "velocity": 80, "note_on_time": 22.657, "note_off_time": 23.561}, {"pitch": 65, "velocity": 80, "note_on_time": 23.561, "note_off_time": 24.466}, {"pitch": 42, "velocity": 80, "note_on_time": 23.562, "note_off_time": 24.466}, {"pitch": 67, "velocity": 80, "note_on_time": 24.466, "note_off_time": 25.37}, {"pitch": 42, "velocity": 80, "note_on_time": 24.466, "note_off_time": 25.37}, {"pitch": 65, "velocity": 80, "note_on_time": 25.37, "note_off_time": 26.274}, {"pitch": 42, "velocity": 80, "note_on_time": 25.37, "note_off_time": 26.274}, {"pitch": 42, "velocity": 80, "note_on_time": 26.274, "note_off_time": 27.179}, {"pitch": 62, "velocity": 80, "note_on_time": 26.274, "note_off_time": 28.08}, {"pitch": 42, "velocity": 80, "note_on_time": 27.179, "note_off_time": 28.08}, {"pitch": 67, "velocity": 80, "note_on_time": 28.08, "note_off_time": 28.984}, {"pitch": 42, "velocity": 80, "note_on_time": 28.081, "note_off_time": 28.985}, {"pitch": 42, "velocity": 80, "note_on_time": 28.985, "note_off_time": 29.893}, {"pitch": 67, "velocity": 80, "note_on_time": 29.893, "note_off_time": 30.794}, {"pitch": 42, "velocity": 80, "note_on_time": 29.893, "note_off_time": 30.795}, {"pitch": 67, "velocity": 80, "note_on_time": 30.794, "note_off_time": 31.701}, {"pitch": 42, "velocity": 80, "note_on_time": 30.795, "note_off_time": 31.701}, {"pitch": 67, "velocity": 80, "note_on_time": 31.701, "note_off_time": 32.607}, {"pitch": 42, "velocity": 80, "note_on_time": 31.701, "note_off_time": 32.607}]</notes><options name="Option List">((4, 4), [0.5, 0.25], 3, 8, &lt;NoteRangePerHand.C_TO_G: 6&gt;, &lt;NoteRangePerHand.ONE_NOTE: 2&gt;, False, True, True, '67')</options></target_notes><trials><trial trial_no="1" timestamp="2022_08_17-16_13_25"><notes name="Played Notes">[{"pitch": 65, "velocity": 53, "note_on_time": 3.582, "note_off_time": 4.212}, {"pitch": 65, "velocity": 64, "note_on_time": 4.496, "note_off_time": 4.996}, {"pitch": 65, "velocity": 58, "note_on_time": 5.404, "note_off_time": 6.058}, {"pitch": 60, "velocity": 66, "note_on_time": 6.32, "note_off_time": 6.836}, {"pitch": 62, "velocity": 61, "note_on_time": 7.237, "note_off_time": 7.726}, {"pitch": 62, "velocity": 63, "note_on_time": 8.13, "note_off_time": 8.589}, {"pitch": 60, "velocity": 59, "note_on_time": 9.962, "note_off_time": 10.438}, {"pitch": 62, "velocity": 64, "note_on_time": 10.851, "note_off_time": 11.328}, {"pitch": 62, "velocity": 58, "note_on_time": 11.752, "note_off_time": 12.297}, {"pitch": 62, "velocity": 64, "note_on_time": 12.652, "note_off_time": 13.162}, {"pitch": 60, "velocity": 55, "note_on_time": 13.583, "note_off_time": 14.061}, {"pitch": 60, "velocity": 62, "note_on_time": 14.542, "note_off_time": 15.002}, {"pitch": 64, "velocity": 72, "note_on_time": 15.428, "note_off_time": 15.943}, {"pitch": 62, "velocity": 56, "note_on_time": 16.416, "note_off_time": 16.764}, {"pitch": 65, "velocity": 49, "note_on_time": 17.326, "note_off_time": 18.045}, {"pitch": 67, "velocity": 54, "note_on_time": 18.124, "note_off_time": 18.444}, {"pitch": 65, "velocity": 63, "note_on_time": 18.444, "note_off_time": 18.643}, {"pitch": 64, "velocity": 54, "note_on_time": 18.951, "note_off_time": 19.095}, {"pitch": 64, "velocity": 76, "note_on_time": 21.734, "note_off_time": 22.613}, {"pitch": 62, "velocity": 62, "note_on_time": 22.642, "note_off_time": 23.492}, {"pitch": 65, "velocity": 64, "note_on_time": 23.507, "note_off_time": 24.349}, {"pitch": 67, "velocity": 69, "note_on_time": 24.373, "note_off_time": 25.326}, {"pitch": 64, "velocity": 65, "note_on_time": 25.307, "note_off_time": 26.25}, {"pitch": 62, "velocity": 56, "note_on_time": 26.273, "note_off_time": 27.19}, {"pitch": 65, "velocity": 53, "note_on_time": 27.261, "note_off_time": 28.196}, {"pitch": 65, "velocity": 64, "note_on_time": 28.984, "note_off_time": 29.611}, {"pitch": 65, "velocity": 64, "note_on_time": 29.85, "note_off_time": 30.358}, {"pitch": 65, "velocity": 74, "note_on_time": 30.73, "note_off_time": 31.182}]</notes><guidance name="Guidance Mode">None</guidance><error name="Error value">1.3264063478260866</error></trial><trial trial_no="2" timestamp="2022_08_17-16_14_26"><notes name="Played Notes">[{"pitch": 65, "velocity": 62, "note_on_time": 3.586, "note_off_time": 4.168}, {"pitch": 65, "velocity": 62, "note_on_time": 4.5, "note_off_time": 5.043}, {"pitch": 65, "velocity": 59, "note_on_time": 5.379, "note_off_time": 5.944}, {"pitch": 60, "velocity": 60, "note_on_time": 6.298, "note_off_time": 6.837}, {"pitch": 62, "velocity": 59, "note_on_time": 7.207, "note_off_time": 7.676}, {"pitch": 62, "velocity": 54, "note_on_time": 8.14, "note_off_time": 8.506}, {"pitch": 60, "velocity": 56, "note_on_time": 9.899, "note_off_time": 10.365}, {"pitch": 62, "velocity": 59, "note_on_time": 10.843, "note_off_time": 11.336}, {"pitch": 62, "velocity": 61, "note_on_time": 11.773, "note_off_time": 12.262}, {"pitch": 62, "velocity": 68, "note_on_time": 12.675, "note_off_time": 13.117}, {"pitch": 60, "velocity": 63, "note_on_time": 14.489, "note_off_time": 15.109}, {"pitch": 65, "velocity": 74, "note_on_time": 15.36, "note_off_time": 16.235}, {"pitch": 64, "velocity": 64, "note_on_time": 16.257, "note_off_time": 17.142}, {"pitch": 67, "velocity": 60, "note_on_time": 17.18, "note_off_time": 18.03}, {"pitch": 65, "velocity": 57, "note_on_time": 18.068, "note_off_time": 19.003}, {"pitch": 64, "velocity": 66, "note_on_time": 19.008, "note_off_time": 19.652}, {"pitch": 64, "velocity": 67, "note_on_time": 21.783, "note_off_time": 22.635}, {"pitch": 62, "velocity": 63, "note_on_time": 22.672, "note_off_time": 23.476}, {"pitch": 65, "velocity": 66, "note_on_time": 23.52, "note_off_time": 24.374}, {"pitch": 67, "velocity": 68, "note_on_time": 24.394, "note_off_time": 25.322}, {"pitch": 62, "velocity": 55, "note_on_time": 25.346, "note_off_time": 26.359}, {"pitch": 60, "velocity": 34, "note_on_time": 26.676, "note_off_time": 27.021}, {"pitch": 65, "velocity": 60, "note_on_time": 28.945, "note_off_time": 29.505}, {"pitch": 65, "velocity": 64, "note_on_time": 29.87, "note_off_time": 30.389}, {"pitch": 65, "velocity": 60, "note_on_time": 30.788, "note_off_time": 31.288}]</notes><guidance name="Guidance Mode">None</guidance><error name="Error value">0.3221662608695657</error></trial><trial trial_no="3" timestamp="2022_08_17-16_15_15"><notes name="Played Notes">[{"pitch": 65, "velocity": 77, "note_on_time": 3.645, "note_off_time": 4.274}, {"pitch": 65, "velocity": 71, "note_on_time": 4.532, "note_off_time": 5.068}, {"pitch": 65, "velocity": 67, "note_on_time": 5.417, "note_off_time": 6.044}, {"pitch": 60, "velocity": 63, "note_on_time": 6.315, "note_off_time": 7.041}, {"pitch": 62, "velocity": 75, "note_on_time": 7.225, "note_off_time": 7.731}, {"pitch": 62, "velocity": 64, "note_on_time": 8.112, "note_off_time": 8.547}, {"pitch": 60, "velocity": 66, "note_on_time": 9.947, "note_off_time": 10.55}, {"pitch": 62, "velocity": 64, "note_on_time": 10.868, "note_off_time": 11.407}, {"pitch": 62, "velocity": 60, "note_on_time": 11.725, "note_off_time": 12.248}, {"pitch": 62, "velocity": 66, "note_on_time": 12.619, "note_off_time": 14.042}, {"pitch": 60, "velocity": 64, "note_on_time": 14.484, "note_off_time": 15.349}, {"pitch": 65, "velocity": 62, "note_on_time": 15.347, "note_off_time": 16.156}, {"pitch": 64, "velocity": 53, "note_on_time": 16.199, "note_off_time": 17.093}, {"pitch": 67, "velocity": 61, "note_on_time": 17.123, "note_off_time": 18.003}, {"pitch": 65, "velocity": 64, "note_on_time": 18.02, "note_off_time": 18.943}, {"pitch": 64, "velocity": 68, "note_on_time": 18.949, "note_off_time": 19.656}, {"pitch": 64, "velocity": 70, "note_on_time": 21.708, "note_off_time": 22.582}, {"pitch": 62, "velocity": 61, "note_on_time": 22.594, "note_off_time": 23.462}, {"pitch": 65, "velocity": 72, "note_on_time": 23.454, "note_off_time": 24.37}, {"pitch": 67, "velocity": 63, "note_on_time": 24.386, "note_off_time": 25.338}, {"pitch": 62, "velocity": 57, "note_on_time": 25.359, "note_off_time": 25.794}, {"pitch": 64, "velocity": 58, "note_on_time": 25.787, "note_off_time": 26.185}, {"pitch": 62, "velocity": 59, "note_on_time": 26.207, "note_off_time": 26.76}, {"pitch": 60, "velocity": 58, "note_on_time": 27.186, "note_off_time": 27.607}, {"pitch": 62, "velocity": 47, "note_on_time": 27.607, "note_off_time": 27.754}, {"pitch": 62, "velocity": 47, "note_on_time": 28.1, "note_off_time": 28.531}, {"pitch": 62, "velocity": 78, "note_on_time": 28.911, "note_off_time": 29.389}, {"pitch": 64, "velocity": 96, "note_on_time": 29.819, "note_off_time": 30.059}]</notes><guidance name="Guidance Mode">None</guidance><error name="Error value">0.9551077391304363</error></trial></trials></MIDI>