<MIDI midiNo="2022_11_03-13_14_07"><target_notes><notes name="Note List">[{"pitch": 42, "velocity": 80, "note_on_time": 0.005, "note_off_time": 0.369}, {"pitch": 42, "velocity": 80, "note_on_time": 0.369, "note_off_time": 0.741}, {"pitch": 42, "velocity": 80, "note_on_time": 0.741, "note_off_time": 1.113}, {"pitch": 42, "velocity": 80, "note_on_time": 1.114, "note_off_time": 1.487}, {"pitch": 64, "velocity": 80, "note_on_time": 1.487, "note_off_time": 1.858}, {"pitch": 42, "velocity": 80, "note_on_time": 1.488, "note_off_time": 1.858}, {"pitch": 62, "velocity": 80, "note_on_time": 1.858, "note_off_time": 2.23}, {"pitch": 42, "velocity": 80, "note_on_time": 1.858, "note_off_time": 2.231}, {"pitch": 62, "velocity": 80, "note_on_time": 2.23, "note_off_time": 2.604}, {"pitch": 42, "velocity": 80, "note_on_time": 2.232, "note_off_time": 2.604}, {"pitch": 60, "velocity": 80, "note_on_time": 2.604, "note_off_time": 2.982}, {"pitch": 42, "velocity": 80, "note_on_time": 2.604, "note_off_time": 2.982}, {"pitch": 64, "velocity": 80, "note_on_time": 2.982, "note_off_time": 3.354}, {"pitch": 42, "velocity": 80, "note_on_time": 2.983, "note_off_time": 3.354}, {"pitch": 62, "velocity": 80, "note_on_time": 3.354, "note_off_time": 3.726}, {"pitch": 42, "velocity": 80, "note_on_time": 3.354, "note_off_time": 3.726}, {"pitch": 60, "velocity": 80, "note_on_time": 3.726, "note_off_time": 4.099}, {"pitch": 42, "velocity": 80, "note_on_time": 3.727, "note_off_time": 4.1}, {"pitch": 60, "velocity": 80, "note_on_time": 4.099, "note_off_time": 4.471}, {"pitch": 42, "velocity": 80, "note_on_time": 4.1, "note_off_time": 4.471}, {"pitch": 60, "velocity": 80, "note_on_time": 4.471, "note_off_time": 4.843}, {"pitch": 42, "velocity": 80, "note_on_time": 4.471, "note_off_time": 4.843}, {"pitch": 42, "velocity": 80, "note_on_time": 4.843, "note_off_time": 5.216}, {"pitch": 64, "velocity": 80, "note_on_time": 4.843, "note_off_time": 5.589}, {"pitch": 42, "velocity": 80, "note_on_time": 5.216, "note_off_time": 5.589}, {"pitch": 42, "velocity": 80, "note_on_time": 5.59, "note_off_time": 5.963}, {"pitch": 64, "velocity": 80, "note_on_time": 5.963, "note_off_time": 6.339}, {"pitch": 42, "velocity": 80, "note_on_time": 5.964, "note_off_time": 6.34}, {"pitch": 60, "velocity": 80, "note_on_time": 6.339, "note_off_time": 6.715}, {"pitch": 42, "velocity": 80, "note_on_time": 6.34, "note_off_time": 6.715}, {"pitch": 60, "velocity": 80, "note_on_time": 6.715, "note_off_time": 7.088}, {"pitch": 42, "velocity": 80, "note_on_time": 6.715, "note_off_time": 7.088}, {"pitch": 60, "velocity": 80, "note_on_time": 7.088, "note_off_time": 7.463}, {"pitch": 42, "velocity": 80, "note_on_time": 7.088, "note_off_time": 7.463}, {"pitch": 60, "velocity": 80, "note_on_time": 7.463, "note_off_time": 7.841}, {"pitch": 42, "velocity": 80, "note_on_time": 7.463, "note_off_time": 7.841}, {"pitch": 60, "velocity": 80, "note_on_time": 7.841, "note_off_time": 8.213}, {"pitch": 42, "velocity": 80, "note_on_time": 7.841, "note_off_time": 8.213}, {"pitch": 60, "velocity": 80, "note_on_time": 8.213, "note_off_time": 8.586}, {"pitch": 42, "velocity": 80, "note_on_time": 8.213, "note_off_time": 8.586}, {"pitch": 64, "velocity": 80, "note_on_time": 8.586, "note_off_time": 8.961}, {"pitch": 42, "velocity": 80, "note_on_time": 8.587, "note_off_time": 8.961}, {"pitch": 42, "velocity": 80, "note_on_time": 8.961, "note_off_time": 9.334}, {"pitch": 64, "velocity": 80, "note_on_time": 8.961, "note_off_time": 9.708}, {"pitch": 42, "velocity": 80, "note_on_time": 9.334, "note_off_time": 9.709}, {"pitch": 42, "velocity": 80, "note_on_time": 9.709, "note_off_time": 10.081}, {"pitch": 42, "velocity": 80, "note_on_time": 10.082, "note_off_time": 10.454}, {"pitch": 64, "velocity": 80, "note_on_time": 10.454, "note_off_time": 10.828}, {"pitch": 42, "velocity": 80, "note_on_time": 10.455, "note_off_time": 10.828}, {"pitch": 42, "velocity": 80, "note_on_time": 10.829, "note_off_time": 11.2}, {"pitch": 62, "velocity": 80, "note_on_time": 10.828, "note_off_time": 11.575}, {"pitch": 42, "velocity": 80, "note_on_time": 11.201, "note_off_time": 11.575}, {"pitch": 62, "velocity": 80, "note_on_time": 11.575, "note_off_time": 11.95}, {"pitch": 42, "velocity": 80, "note_on_time": 11.576, "note_off_time": 11.95}, {"pitch": 42, "velocity": 80, "note_on_time": 11.95, "note_off_time": 12.325}, {"pitch": 62, "velocity": 80, "note_on_time": 12.325, "note_off_time": 12.7}, {"pitch": 42, "velocity": 80, "note_on_time": 12.326, "note_off_time": 12.7}, {"pitch": 62, "velocity": 80, "note_on_time": 12.7, "note_off_time": 13.073}, {"pitch": 42, "velocity": 80, "note_on_time": 12.7, "note_off_time": 13.073}, {"pitch": 62, "velocity": 80, "note_on_time": 13.073, "note_off_time": 13.446}, {"pitch": 42, "velocity": 80, "note_on_time": 13.074, "note_off_time": 13.446}]</notes><options name="Option List">((4, 4), [0.5, 0.25], 3, 8, &lt;NoteRangePerHand.THREE_NOTES: 4&gt;, &lt;NoteRangePerHand.ONE_NOTE: 2&gt;, False, True, False, '166')</options></target_notes><trials><trial trial_no="1" timestamp="2022_11_03-13_13_52"><notes name="Played Notes">[{"pitch": 64, "velocity": 54, "note_on_time": 1.489, "note_off_time": 1.804}, {"pitch": 62, "velocity": 55, "note_on_time": 1.873, "note_off_time": 2.067}, {"pitch": 62, "velocity": 46, "note_on_time": 2.23, "note_off_time": 2.509}, {"pitch": 60, "velocity": 62, "note_on_time": 2.592, "note_off_time": 2.792}, {"pitch": 64, "velocity": 52, "note_on_time": 2.957, "note_off_time": 3.24}, {"pitch": 62, "velocity": 63, "note_on_time": 3.324, "note_off_time": 3.524}, {"pitch": 60, "velocity": 55, "note_on_time": 3.691, "note_off_time": 3.928}, {"pitch": 60, "velocity": 62, "note_on_time": 4.066, "note_off_time": 4.231}, {"pitch": 60, "velocity": 64, "note_on_time": 4.435, "note_off_time": 4.666}, {"pitch": 62, "velocity": 62, "note_on_time": 4.773, "note_off_time": 5.09}, {"pitch": 64, "velocity": 1, "note_on_time": 5.234, "note_off_time": 5.878}, {"pitch": 64, "velocity": 54, "note_on_time": 6.26, "note_off_time": 6.561}, {"pitch": 60, "velocity": 57, "note_on_time": 6.709, "note_off_time": 6.893}, {"pitch": 60, "velocity": 54, "note_on_time": 7.069, "note_off_time": 7.24}, {"pitch": 60, "velocity": 50, "note_on_time": 7.445, "note_off_time": 7.618}, {"pitch": 60, "velocity": 55, "note_on_time": 7.8, "note_off_time": 7.971}, {"pitch": 60, "velocity": 60, "note_on_time": 8.176, "note_off_time": 8.334}, {"pitch": 60, "velocity": 45, "note_on_time": 8.563, "note_off_time": 8.715}, {"pitch": 60, "velocity": 56, "note_on_time": 8.963, "note_off_time": 9.097}, {"pitch": 62, "velocity": 40, "note_on_time": 9.277, "note_off_time": 9.523}, {"pitch": 64, "velocity": 60, "note_on_time": 9.697, "note_off_time": 9.894}, {"pitch": 60, "velocity": 14, "note_on_time": 9.941, "note_off_time": 10.103}, {"pitch": 62, "velocity": 42, "note_on_time": 10.121, "note_off_time": 11.136}, {"pitch": 62, "velocity": 36, "note_on_time": 11.661, "note_off_time": 11.915}, {"pitch": 60, "velocity": 45, "note_on_time": 12.015, "note_off_time": 12.264}, {"pitch": 60, "velocity": 55, "note_on_time": 12.358, "note_off_time": 13.099}, {"pitch": 64, "velocity": 10, "note_on_time": 13.243, "note_off_time": 13.316}]</notes><guidance name="Guidance Mode">None</guidance><error name="Error value">0.9613484090909082</error></trial><trial trial_no="2" timestamp="2022_11_03-13_14_21"><notes name="Played Notes">[{"pitch": 64, "velocity": 41, "note_on_time": 1.5, "note_off_time": 1.821}, {"pitch": 62, "velocity": 61, "note_on_time": 1.889, "note_off_time": 2.041}, {"pitch": 62, "velocity": 56, "note_on_time": 2.232, "note_off_time": 2.492}, {"pitch": 60, "velocity": 71, "note_on_time": 2.594, "note_off_time": 2.769}, {"pitch": 64, "velocity": 55, "note_on_time": 2.96, "note_off_time": 3.258}, {"pitch": 62, "velocity": 61, "note_on_time": 3.337, "note_off_time": 3.535}, {"pitch": 60, "velocity": 60, "note_on_time": 3.733, "note_off_time": 3.934}, {"pitch": 60, "velocity": 54, "note_on_time": 4.121, "note_off_time": 4.287}, {"pitch": 60, "velocity": 51, "note_on_time": 4.481, "note_off_time": 4.699}, {"pitch": 64, "velocity": 61, "note_on_time": 4.818, "note_off_time": 5.654}, {"pitch": 64, "velocity": 67, "note_on_time": 6.014, "note_off_time": 6.286}, {"pitch": 60, "velocity": 60, "note_on_time": 6.377, "note_off_time": 6.563}, {"pitch": 60, "velocity": 64, "note_on_time": 6.719, "note_off_time": 6.913}, {"pitch": 60, "velocity": 52, "note_on_time": 7.09, "note_off_time": 7.265}, {"pitch": 60, "velocity": 64, "note_on_time": 7.468, "note_off_time": 7.641}, {"pitch": 60, "velocity": 52, "note_on_time": 7.802, "note_off_time": 7.983}, {"pitch": 60, "velocity": 51, "note_on_time": 8.185, "note_off_time": 8.434}, {"pitch": 64, "velocity": 54, "note_on_time": 8.564, "note_off_time": 8.75}, {"pitch": 64, "velocity": 65, "note_on_time": 8.933, "note_off_time": 9.702}, {"pitch": 64, "velocity": 62, "note_on_time": 10.082, "note_off_time": 10.161}, {"pitch": 62, "velocity": 66, "note_on_time": 10.478, "note_off_time": 11.056}, {"pitch": 62, "velocity": 83, "note_on_time": 11.14, "note_off_time": 11.386}, {"pitch": 62, "velocity": 53, "note_on_time": 11.949, "note_off_time": 12.112}, {"pitch": 62, "velocity": 37, "note_on_time": 12.27, "note_off_time": 12.481}, {"pitch": 62, "velocity": 63, "note_on_time": 12.645, "note_off_time": 12.945}]</notes><guidance name="Guidance Mode">None</guidance><error name="Error value">0.04176749999999991</error></trial><trial trial_no="3" timestamp="2022_11_03-13_14_53"><notes name="Played Notes">[{"pitch": 64, "velocity": 60, "note_on_time": 1.498, "note_off_time": 1.751}, {"pitch": 62, "velocity": 63, "note_on_time": 1.871, "note_off_time": 2.056}, {"pitch": 62, "velocity": 53, "note_on_time": 2.223, "note_off_time": 2.484}, {"pitch": 60, "velocity": 60, "note_on_time": 2.581, "note_off_time": 2.773}, {"pitch": 64, "velocity": 60, "note_on_time": 2.963, "note_off_time": 3.265}, {"pitch": 62, "velocity": 8, "note_on_time": 3.362, "note_off_time": 3.604}, {"pitch": 60, "velocity": 74, "note_on_time": 3.709, "note_off_time": 3.93}, {"pitch": 60, "velocity": 62, "note_on_time": 4.094, "note_off_time": 4.263}, {"pitch": 60, "velocity": 49, "note_on_time": 4.437, "note_off_time": 4.655}, {"pitch": 62, "velocity": 60, "note_on_time": 4.809, "note_off_time": 5.497}, {"pitch": 62, "velocity": 63, "note_on_time": 5.957, "note_off_time": 6.191}, {"pitch": 60, "velocity": 73, "note_on_time": 6.312, "note_off_time": 6.513}, {"pitch": 60, "velocity": 75, "note_on_time": 6.662, "note_off_time": 6.844}, {"pitch": 60, "velocity": 46, "note_on_time": 7.052, "note_off_time": 7.235}, {"pitch": 60, "velocity": 51, "note_on_time": 7.397, "note_off_time": 7.586}, {"pitch": 60, "velocity": 52, "note_on_time": 7.775, "note_off_time": 7.948}, {"pitch": 60, "velocity": 43, "note_on_time": 8.17, "note_off_time": 8.373}, {"pitch": 64, "velocity": 52, "note_on_time": 8.522, "note_off_time": 8.729}, {"pitch": 64, "velocity": 63, "note_on_time": 8.909, "note_off_time": 9.618}, {"pitch": 64, "velocity": 59, "note_on_time": 10.451, "note_off_time": 10.75}, {"pitch": 62, "velocity": 64, "note_on_time": 10.813, "note_off_time": 11.083}, {"pitch": 62, "velocity": 1, "note_on_time": 11.232, "note_off_time": 11.547}, {"pitch": 62, "velocity": 82, "note_on_time": 11.605, "note_off_time": 11.811}, {"pitch": 62, "velocity": 57, "note_on_time": 12.266, "note_off_time": 12.463}, {"pitch": 62, "velocity": 54, "note_on_time": 12.655, "note_off_time": 12.814}, {"pitch": 62, "velocity": 52, "note_on_time": 13.02, "note_off_time": 13.323}]</notes><guidance name="Guidance Mode">None</guidance><error name="Error value">0.4795502272727286</error></trial></trials></MIDI>