<MIDI midiNo="2022_12_15-12_20_53"><target_notes><notes name="Note List">[{"pitch": 42, "velocity": 80, "note_on_time": 0.004, "note_off_time": 0.61}, {"pitch": 42, "velocity": 80, "note_on_time": 0.611, "note_off_time": 1.22}, {"pitch": 42, "velocity": 80, "note_on_time": 1.22, "note_off_time": 1.831}, {"pitch": 42, "velocity": 80, "note_on_time": 1.831, "note_off_time": 2.439}, {"pitch": 62, "velocity": 80, "note_on_time": 2.438, "note_off_time": 3.047}, {"pitch": 42, "velocity": 80, "note_on_time": 2.439, "note_off_time": 3.047}, {"pitch": 64, "velocity": 80, "note_on_time": 3.047, "note_off_time": 3.656}, {"pitch": 42, "velocity": 80, "note_on_time": 3.048, "note_off_time": 3.656}, {"pitch": 62, "velocity": 80, "note_on_time": 3.656, "note_off_time": 4.263}, {"pitch": 42, "velocity": 80, "note_on_time": 3.657, "note_off_time": 4.263}, {"pitch": 60, "velocity": 80, "note_on_time": 4.263, "note_off_time": 4.872}, {"pitch": 42, "velocity": 80, "note_on_time": 4.263, "note_off_time": 4.872}, {"pitch": 60, "velocity": 80, "note_on_time": 4.872, "note_off_time": 5.484}, {"pitch": 42, "velocity": 80, "note_on_time": 4.873, "note_off_time": 5.485}, {"pitch": 62, "velocity": 80, "note_on_time": 5.484, "note_off_time": 6.092}, {"pitch": 42, "velocity": 80, "note_on_time": 5.485, "note_off_time": 6.092}, {"pitch": 60, "velocity": 80, "note_on_time": 6.092, "note_off_time": 6.699}, {"pitch": 42, "velocity": 80, "note_on_time": 6.093, "note_off_time": 6.699}, {"pitch": 60, "velocity": 80, "note_on_time": 6.699, "note_off_time": 7.307}, {"pitch": 42, "velocity": 80, "note_on_time": 6.699, "note_off_time": 7.307}, {"pitch": 64, "velocity": 80, "note_on_time": 7.307, "note_off_time": 7.915}, {"pitch": 42, "velocity": 80, "note_on_time": 7.307, "note_off_time": 7.916}, {"pitch": 62, "velocity": 80, "note_on_time": 7.915, "note_off_time": 8.522}, {"pitch": 42, "velocity": 80, "note_on_time": 7.916, "note_off_time": 8.522}, {"pitch": 60, "velocity": 80, "note_on_time": 8.522, "note_off_time": 9.132}, {"pitch": 42, "velocity": 80, "note_on_time": 8.522, "note_off_time": 9.132}, {"pitch": 64, "velocity": 80, "note_on_time": 9.132, "note_off_time": 9.738}, {"pitch": 42, "velocity": 80, "note_on_time": 9.133, "note_off_time": 9.738}, {"pitch": 64, "velocity": 80, "note_on_time": 9.738, "note_off_time": 10.345}, {"pitch": 42, "velocity": 80, "note_on_time": 9.738, "note_off_time": 10.345}, {"pitch": 42, "velocity": 80, "note_on_time": 10.345, "note_off_time": 10.953}, {"pitch": 42, "velocity": 80, "note_on_time": 10.954, "note_off_time": 11.564}, {"pitch": 42, "velocity": 80, "note_on_time": 11.564, "note_off_time": 12.174}, {"pitch": 42, "velocity": 80, "note_on_time": 12.175, "note_off_time": 12.782}, {"pitch": 62, "velocity": 80, "note_on_time": 12.174, "note_off_time": 13.389}, {"pitch": 42, "velocity": 80, "note_on_time": 12.782, "note_off_time": 13.389}, {"pitch": 42, "velocity": 80, "note_on_time": 13.389, "note_off_time": 13.998}, {"pitch": 42, "velocity": 80, "note_on_time": 13.998, "note_off_time": 14.604}, {"pitch": 62, "velocity": 80, "note_on_time": 14.604, "note_off_time": 15.212}, {"pitch": 42, "velocity": 80, "note_on_time": 14.604, "note_off_time": 15.213}, {"pitch": 64, "velocity": 80, "note_on_time": 15.212, "note_off_time": 15.819}, {"pitch": 42, "velocity": 80, "note_on_time": 15.213, "note_off_time": 15.819}, {"pitch": 62, "velocity": 80, "note_on_time": 15.819, "note_off_time": 16.426}, {"pitch": 42, "velocity": 80, "note_on_time": 15.819, "note_off_time": 16.426}, {"pitch": 64, "velocity": 80, "note_on_time": 16.426, "note_off_time": 17.034}, {"pitch": 42, "velocity": 80, "note_on_time": 16.426, "note_off_time": 17.035}, {"pitch": 60, "velocity": 80, "note_on_time": 17.034, "note_off_time": 17.644}, {"pitch": 42, "velocity": 80, "note_on_time": 17.035, "note_off_time": 17.645}, {"pitch": 60, "velocity": 80, "note_on_time": 17.644, "note_off_time": 18.252}, {"pitch": 42, "velocity": 80, "note_on_time": 17.645, "note_off_time": 18.253}, {"pitch": 64, "velocity": 80, "note_on_time": 18.252, "note_off_time": 18.86}, {"pitch": 42, "velocity": 80, "note_on_time": 18.253, "note_off_time": 18.86}, {"pitch": 60, "velocity": 80, "note_on_time": 18.86, "note_off_time": 19.469}, {"pitch": 42, "velocity": 80, "note_on_time": 18.861, "note_off_time": 19.47}, {"pitch": 42, "velocity": 80, "note_on_time": 19.47, "note_off_time": 20.078}, {"pitch": 60, "velocity": 80, "note_on_time": 20.077, "note_off_time": 20.686}, {"pitch": 42, "velocity": 80, "note_on_time": 20.078, "note_off_time": 20.686}, {"pitch": 60, "velocity": 80, "note_on_time": 20.686, "note_off_time": 21.294}, {"pitch": 42, "velocity": 80, "note_on_time": 20.686, "note_off_time": 21.294}, {"pitch": 60, "velocity": 80, "note_on_time": 21.294, "note_off_time": 21.903}, {"pitch": 42, "velocity": 80, "note_on_time": 21.295, "note_off_time": 21.904}]</notes><options name="Option List">((4, 4), [0.5, 0.25], 3, 8, &lt;NoteRangePerHand.THREE_NOTES: 4&gt;, &lt;NoteRangePerHand.ONE_NOTE: 2&gt;, False, True, False, '100')</options></target_notes><trials><trial trial_no="1" timestamp="2022_12_15-12_20_30"><notes name="Played Notes">[{"pitch": 86, "velocity": 55, "note_on_time": 2.47, "note_off_time": 3.033}, {"pitch": 88, "velocity": 62, "note_on_time": 3.058, "note_off_time": 3.644}, {"pitch": 86, "velocity": 73, "note_on_time": 3.667, "note_off_time": 4.244}, {"pitch": 84, "velocity": 66, "note_on_time": 4.235, "note_off_time": 4.563}, {"pitch": 84, "velocity": 75, "note_on_time": 4.884, "note_off_time": 5.125}, {"pitch": 86, "velocity": 59, "note_on_time": 5.495, "note_off_time": 6.073}, {"pitch": 84, "velocity": 65, "note_on_time": 6.109, "note_off_time": 6.282}, {"pitch": 84, "velocity": 55, "note_on_time": 6.739, "note_off_time": 6.878}, {"pitch": 88, "velocity": 62, "note_on_time": 7.304, "note_off_time": 7.64}, {"pitch": 86, "velocity": 49, "note_on_time": 7.886, "note_off_time": 8.069}, {"pitch": 84, "velocity": 52, "note_on_time": 8.475, "note_off_time": 8.616}, {"pitch": 88, "velocity": 64, "note_on_time": 9.077, "note_off_time": 9.211}, {"pitch": 88, "velocity": 76, "note_on_time": 9.71, "note_off_time": 9.959}, {"pitch": 86, "velocity": 55, "note_on_time": 12.167, "note_off_time": 13.003}, {"pitch": 86, "velocity": 51, "note_on_time": 14.578, "note_off_time": 15.114}, {"pitch": 88, "velocity": 52, "note_on_time": 15.162, "note_off_time": 15.717}, {"pitch": 86, "velocity": 59, "note_on_time": 15.77, "note_off_time": 16.33}, {"pitch": 88, "velocity": 62, "note_on_time": 16.35, "note_off_time": 16.93}, {"pitch": 84, "velocity": 55, "note_on_time": 17.003, "note_off_time": 17.124}, {"pitch": 84, "velocity": 62, "note_on_time": 17.578, "note_off_time": 17.727}, {"pitch": 88, "velocity": 47, "note_on_time": 18.231, "note_off_time": 18.781}, {"pitch": 84, "velocity": 51, "note_on_time": 18.859, "note_off_time": 19.043}, {"pitch": 84, "velocity": 65, "note_on_time": 20.054, "note_off_time": 20.18}, {"pitch": 84, "velocity": 51, "note_on_time": 20.662, "note_off_time": 20.816}, {"pitch": 84, "velocity": 72, "note_on_time": 21.269, "note_off_time": 21.385}]</notes><guidance name="Guidance Mode">None</guidance><error name="Error value">1.1612272727272728</error></trial><trial trial_no="2" timestamp="2022_12_15-12_21_11"><notes name="Played Notes">[{"pitch": 86, "velocity": 51, "note_on_time": 2.422, "note_off_time": 2.578}, {"pitch": 88, "velocity": 62, "note_on_time": 3.018, "note_off_time": 3.137}, {"pitch": 86, "velocity": 41, "note_on_time": 3.655, "note_off_time": 3.793}, {"pitch": 84, "velocity": 42, "note_on_time": 4.235, "note_off_time": 4.331}, {"pitch": 84, "velocity": 66, "note_on_time": 4.856, "note_off_time": 4.953}, {"pitch": 86, "velocity": 43, "note_on_time": 5.451, "note_off_time": 5.567}, {"pitch": 84, "velocity": 55, "note_on_time": 6.062, "note_off_time": 6.156}, {"pitch": 84, "velocity": 54, "note_on_time": 6.692, "note_off_time": 6.767}, {"pitch": 88, "velocity": 53, "note_on_time": 7.279, "note_off_time": 7.401}, {"pitch": 86, "velocity": 46, "note_on_time": 7.883, "note_off_time": 8.012}, {"pitch": 84, "velocity": 52, "note_on_time": 8.527, "note_off_time": 8.615}, {"pitch": 88, "velocity": 56, "note_on_time": 9.101, "note_off_time": 9.218}, {"pitch": 88, "velocity": 69, "note_on_time": 9.774, "note_off_time": 9.877}, {"pitch": 86, "velocity": 57, "note_on_time": 12.188, "note_off_time": 12.898}, {"pitch": 86, "velocity": 40, "note_on_time": 14.019, "note_off_time": 14.204}, {"pitch": 88, "velocity": 66, "note_on_time": 14.6, "note_off_time": 14.727}, {"pitch": 86, "velocity": 64, "note_on_time": 15.176, "note_off_time": 15.344}, {"pitch": 88, "velocity": 54, "note_on_time": 15.817, "note_off_time": 15.93}, {"pitch": 84, "velocity": 39, "note_on_time": 16.503, "note_off_time": 16.64}, {"pitch": 84, "velocity": 55, "note_on_time": 17.323, "note_off_time": 17.4}, {"pitch": 86, "velocity": 48, "note_on_time": 17.649, "note_off_time": 17.807}, {"pitch": 84, "velocity": 59, "note_on_time": 19.418, "note_off_time": 19.544}, {"pitch": 84, "velocity": 46, "note_on_time": 20.024, "note_off_time": 20.154}, {"pitch": 84, "velocity": 52, "note_on_time": 20.643, "note_off_time": 20.806}]</notes><guidance name="Guidance Mode">None</guidance><error name="Error value">1.3618181818181796</error></trial><trial trial_no="3" timestamp="2022_12_15-12_21_48"><notes name="Played Notes">[{"pitch": 86, "velocity": 57, "note_on_time": 2.464, "note_off_time": 2.585}, {"pitch": 88, "velocity": 54, "note_on_time": 3.042, "note_off_time": 3.207}, {"pitch": 86, "velocity": 60, "note_on_time": 3.629, "note_off_time": 3.753}, {"pitch": 84, "velocity": 45, "note_on_time": 4.201, "note_off_time": 4.309}, {"pitch": 84, "velocity": 55, "note_on_time": 4.864, "note_off_time": 4.981}, {"pitch": 86, "velocity": 51, "note_on_time": 5.407, "note_off_time": 5.511}, {"pitch": 84, "velocity": 49, "note_on_time": 6.053, "note_off_time": 6.132}, {"pitch": 84, "velocity": 60, "note_on_time": 6.658, "note_off_time": 6.734}, {"pitch": 88, "velocity": 55, "note_on_time": 7.28, "note_off_time": 7.385}, {"pitch": 86, "velocity": 41, "note_on_time": 7.885, "note_off_time": 8.029}, {"pitch": 84, "velocity": 59, "note_on_time": 8.511, "note_off_time": 8.582}, {"pitch": 88, "velocity": 56, "note_on_time": 9.079, "note_off_time": 9.18}, {"pitch": 88, "velocity": 65, "note_on_time": 9.712, "note_off_time": 9.803}, {"pitch": 86, "velocity": 67, "note_on_time": 12.114, "note_off_time": 13.06}, {"pitch": 86, "velocity": 61, "note_on_time": 14.551, "note_off_time": 14.69}, {"pitch": 88, "velocity": 51, "note_on_time": 15.143, "note_off_time": 15.258}, {"pitch": 86, "velocity": 66, "note_on_time": 15.771, "note_off_time": 15.888}, {"pitch": 88, "velocity": 63, "note_on_time": 16.349, "note_off_time": 16.462}, {"pitch": 84, "velocity": 59, "note_on_time": 16.991, "note_off_time": 17.045}, {"pitch": 84, "velocity": 53, "note_on_time": 17.628, "note_off_time": 17.687}, {"pitch": 88, "velocity": 49, "note_on_time": 18.246, "note_off_time": 18.333}, {"pitch": 84, "velocity": 64, "note_on_time": 18.823, "note_off_time": 18.918}, {"pitch": 84, "velocity": 55, "note_on_time": 20.069, "note_off_time": 20.127}, {"pitch": 84, "velocity": 62, "note_on_time": 20.669, "note_off_time": 20.728}, {"pitch": 84, "velocity": 66, "note_on_time": 21.258, "note_off_time": 21.299}]</notes><guidance name="Guidance Mode">None</guidance><error name="Error value">1.1648181818181815</error></trial></trials></MIDI>