<MIDI midiNo="2022_12_01-11_04_24"><target_notes><notes name="Note List">[{"pitch": 42, "velocity": 80, "note_on_time": 0.004, "note_off_time": 0.23}, {"pitch": 42, "velocity": 80, "note_on_time": 0.23, "note_off_time": 0.449}, {"pitch": 42, "velocity": 80, "note_on_time": 0.449, "note_off_time": 0.67}, {"pitch": 42, "velocity": 80, "note_on_time": 0.67, "note_off_time": 0.888}, {"pitch": 65, "velocity": 80, "note_on_time": 0.888, "note_off_time": 1.107}, {"pitch": 42, "velocity": 80, "note_on_time": 0.888, "note_off_time": 1.107}, {"pitch": 64, "velocity": 80, "note_on_time": 1.107, "note_off_time": 1.325}, {"pitch": 42, "velocity": 80, "note_on_time": 1.107, "note_off_time": 1.325}, {"pitch": 64, "velocity": 80, "note_on_time": 1.325, "note_off_time": 1.542}, {"pitch": 42, "velocity": 80, "note_on_time": 1.325, "note_off_time": 1.542}, {"pitch": 62, "velocity": 80, "note_on_time": 1.542, "note_off_time": 1.761}, {"pitch": 42, "velocity": 80, "note_on_time": 1.542, "note_off_time": 1.761}, {"pitch": 60, "velocity": 80, "note_on_time": 1.761, "note_off_time": 1.979}, {"pitch": 42, "velocity": 80, "note_on_time": 1.761, "note_off_time": 1.979}, {"pitch": 42, "velocity": 80, "note_on_time": 1.979, "note_off_time": 2.199}, {"pitch": 42, "velocity": 80, "note_on_time": 2.199, "note_off_time": 2.416}, {"pitch": 42, "velocity": 80, "note_on_time": 2.416, "note_off_time": 2.637}, {"pitch": 65, "velocity": 80, "note_on_time": 2.637, "note_off_time": 2.853}, {"pitch": 42, "velocity": 80, "note_on_time": 2.637, "note_off_time": 2.853}, {"pitch": 65, "velocity": 80, "note_on_time": 2.853, "note_off_time": 3.07}, {"pitch": 42, "velocity": 80, "note_on_time": 2.853, "note_off_time": 3.07}, {"pitch": 42, "velocity": 80, "note_on_time": 3.07, "note_off_time": 3.287}, {"pitch": 42, "velocity": 80, "note_on_time": 3.287, "note_off_time": 3.508}, {"pitch": 65, "velocity": 80, "note_on_time": 3.508, "note_off_time": 3.727}, {"pitch": 42, "velocity": 80, "note_on_time": 3.508, "note_off_time": 3.727}, {"pitch": 60, "velocity": 80, "note_on_time": 3.727, "note_off_time": 3.944}, {"pitch": 42, "velocity": 80, "note_on_time": 3.727, "note_off_time": 3.944}, {"pitch": 62, "velocity": 80, "note_on_time": 3.944, "note_off_time": 4.164}, {"pitch": 42, "velocity": 80, "note_on_time": 3.944, "note_off_time": 4.164}, {"pitch": 64, "velocity": 80, "note_on_time": 4.164, "note_off_time": 4.38}, {"pitch": 42, "velocity": 80, "note_on_time": 4.164, "note_off_time": 4.38}, {"pitch": 65, "velocity": 80, "note_on_time": 4.38, "note_off_time": 4.6}, {"pitch": 42, "velocity": 80, "note_on_time": 4.38, "note_off_time": 4.6}, {"pitch": 42, "velocity": 80, "note_on_time": 4.6, "note_off_time": 4.817}, {"pitch": 62, "velocity": 80, "note_on_time": 4.6, "note_off_time": 5.033}, {"pitch": 42, "velocity": 80, "note_on_time": 4.817, "note_off_time": 5.033}, {"pitch": 42, "velocity": 80, "note_on_time": 5.033, "note_off_time": 5.25}, {"pitch": 62, "velocity": 80, "note_on_time": 5.25, "note_off_time": 5.47}, {"pitch": 42, "velocity": 80, "note_on_time": 5.25, "note_off_time": 5.47}, {"pitch": 65, "velocity": 80, "note_on_time": 5.47, "note_off_time": 5.689}, {"pitch": 42, "velocity": 80, "note_on_time": 5.47, "note_off_time": 5.689}, {"pitch": 67, "velocity": 80, "note_on_time": 5.689, "note_off_time": 5.908}, {"pitch": 42, "velocity": 80, "note_on_time": 5.689, "note_off_time": 5.908}, {"pitch": 62, "velocity": 80, "note_on_time": 5.908, "note_off_time": 6.125}, {"pitch": 42, "velocity": 80, "note_on_time": 5.908, "note_off_time": 6.125}, {"pitch": 65, "velocity": 80, "note_on_time": 6.125, "note_off_time": 6.343}, {"pitch": 42, "velocity": 80, "note_on_time": 6.125, "note_off_time": 6.343}, {"pitch": 42, "velocity": 80, "note_on_time": 6.343, "note_off_time": 6.564}, {"pitch": 60, "velocity": 80, "note_on_time": 6.343, "note_off_time": 6.782}, {"pitch": 42, "velocity": 80, "note_on_time": 6.564, "note_off_time": 6.782}, {"pitch": 42, "velocity": 80, "note_on_time": 6.782, "note_off_time": 6.999}, {"pitch": 42, "velocity": 80, "note_on_time": 6.999, "note_off_time": 7.216}, {"pitch": 60, "velocity": 80, "note_on_time": 7.216, "note_off_time": 7.434}, {"pitch": 42, "velocity": 80, "note_on_time": 7.216, "note_off_time": 7.434}, {"pitch": 60, "velocity": 80, "note_on_time": 7.434, "note_off_time": 7.65}, {"pitch": 42, "velocity": 80, "note_on_time": 7.434, "note_off_time": 7.65}, {"pitch": 60, "velocity": 80, "note_on_time": 7.65, "note_off_time": 7.868}, {"pitch": 42, "velocity": 80, "note_on_time": 7.65, "note_off_time": 7.868}]</notes><options name="Option List">((4, 4), [0.5, 0.25], 3, 8, &lt;NoteRangePerHand.C_TO_G: 6&gt;, &lt;NoteRangePerHand.ONE_NOTE: 2&gt;, False, True, False, 281)</options></target_notes><trials><trial trial_no="1" timestamp="2022_12_01-11_04_14"><notes name="Played Notes">[{"pitch": 65, "velocity": 62, "note_on_time": 0.918, "note_off_time": 1.138}, {"pitch": 64, "velocity": 61, "note_on_time": 1.129, "note_off_time": 1.228}, {"pitch": 64, "velocity": 69, "note_on_time": 1.337, "note_off_time": 1.568}, {"pitch": 62, "velocity": 61, "note_on_time": 1.536, "note_off_time": 1.784}, {"pitch": 60, "velocity": 75, "note_on_time": 1.763, "note_off_time": 1.952}, {"pitch": 65, "velocity": 65, "note_on_time": 2.636, "note_off_time": 2.73}, {"pitch": 65, "velocity": 71, "note_on_time": 2.88, "note_off_time": 3.005}, {"pitch": 65, "velocity": 65, "note_on_time": 3.5, "note_off_time": 3.696}, {"pitch": 60, "velocity": 65, "note_on_time": 3.71, "note_off_time": 3.918}, {"pitch": 62, "velocity": 64, "note_on_time": 3.917, "note_off_time": 4.129}, {"pitch": 64, "velocity": 68, "note_on_time": 4.11, "note_off_time": 4.37}, {"pitch": 65, "velocity": 66, "note_on_time": 4.356, "note_off_time": 4.626}, {"pitch": 62, "velocity": 62, "note_on_time": 4.569, "note_off_time": 4.829}, {"pitch": 62, "velocity": 64, "note_on_time": 5.23, "note_off_time": 5.491}, {"pitch": 65, "velocity": 71, "note_on_time": 5.476, "note_off_time": 5.693}, {"pitch": 67, "velocity": 72, "note_on_time": 5.669, "note_off_time": 5.91}, {"pitch": 62, "velocity": 73, "note_on_time": 5.877, "note_off_time": 6.1}, {"pitch": 65, "velocity": 75, "note_on_time": 6.089, "note_off_time": 6.342}, {"pitch": 60, "velocity": 73, "note_on_time": 6.33, "note_off_time": 6.529}, {"pitch": 60, "velocity": 74, "note_on_time": 7.225, "note_off_time": 7.292}, {"pitch": 60, "velocity": 77, "note_on_time": 7.441, "note_off_time": 7.493}, {"pitch": 60, "velocity": 88, "note_on_time": 7.66, "note_off_time": 7.739}]</notes><guidance name="Guidance Mode">None</guidance><error name="Error value">0.017178157894736732</error></trial><trial trial_no="2" timestamp="2022_12_01-11_04_29"><notes name="Played Notes">[{"pitch": 65, "velocity": 67, "note_on_time": 0.889, "note_off_time": 1.147}, {"pitch": 64, "velocity": 64, "note_on_time": 1.106, "note_off_time": 1.203}, {"pitch": 64, "velocity": 62, "note_on_time": 1.3, "note_off_time": 1.585}, {"pitch": 62, "velocity": 64, "note_on_time": 1.529, "note_off_time": 1.767}, {"pitch": 60, "velocity": 71, "note_on_time": 1.748, "note_off_time": 1.926}, {"pitch": 65, "velocity": 73, "note_on_time": 2.651, "note_off_time": 2.764}, {"pitch": 65, "velocity": 68, "note_on_time": 2.894, "note_off_time": 3.033}, {"pitch": 65, "velocity": 67, "note_on_time": 3.529, "note_off_time": 3.711}, {"pitch": 60, "velocity": 61, "note_on_time": 3.716, "note_off_time": 3.962}, {"pitch": 62, "velocity": 68, "note_on_time": 3.949, "note_off_time": 4.169}, {"pitch": 64, "velocity": 69, "note_on_time": 4.145, "note_off_time": 4.426}, {"pitch": 65, "velocity": 70, "note_on_time": 4.388, "note_off_time": 4.644}, {"pitch": 62, "velocity": 69, "note_on_time": 4.581, "note_off_time": 4.872}, {"pitch": 62, "velocity": 74, "note_on_time": 5.253, "note_off_time": 5.471}, {"pitch": 65, "velocity": 74, "note_on_time": 5.459, "note_off_time": 5.689}, {"pitch": 67, "velocity": 71, "note_on_time": 5.664, "note_off_time": 5.923}, {"pitch": 62, "velocity": 65, "note_on_time": 5.889, "note_off_time": 6.127}, {"pitch": 65, "velocity": 69, "note_on_time": 6.106, "note_off_time": 6.346}, {"pitch": 60, "velocity": 72, "note_on_time": 6.331, "note_off_time": 6.581}, {"pitch": 60, "velocity": 64, "note_on_time": 7.222, "note_off_time": 7.287}, {"pitch": 60, "velocity": 76, "note_on_time": 7.418, "note_off_time": 7.509}, {"pitch": 60, "velocity": 73, "note_on_time": 7.633, "note_off_time": 7.73}]</notes><guidance name="Guidance Mode">None</guidance><error name="Error value">0.01953931578947373</error></trial><trial trial_no="3" timestamp="2022_12_01-11_04_44"><notes name="Played Notes">[{"pitch": 65, "velocity": 71, "note_on_time": 0.892, "note_off_time": 1.138}, {"pitch": 64, "velocity": 68, "note_on_time": 1.108, "note_off_time": 1.175}, {"pitch": 64, "velocity": 68, "note_on_time": 1.304, "note_off_time": 1.549}, {"pitch": 62, "velocity": 69, "note_on_time": 1.494, "note_off_time": 1.752}, {"pitch": 60, "velocity": 78, "note_on_time": 1.723, "note_off_time": 1.883}, {"pitch": 65, "velocity": 77, "note_on_time": 2.611, "note_off_time": 2.725}, {"pitch": 65, "velocity": 66, "note_on_time": 2.834, "note_off_time": 2.95}, {"pitch": 65, "velocity": 74, "note_on_time": 3.452, "note_off_time": 3.67}, {"pitch": 60, "velocity": 76, "note_on_time": 3.677, "note_off_time": 3.907}, {"pitch": 62, "velocity": 66, "note_on_time": 3.89, "note_off_time": 4.122}, {"pitch": 64, "velocity": 71, "note_on_time": 4.09, "note_off_time": 4.377}, {"pitch": 65, "velocity": 75, "note_on_time": 4.334, "note_off_time": 4.577}, {"pitch": 62, "velocity": 70, "note_on_time": 4.523, "note_off_time": 4.785}, {"pitch": 62, "velocity": 64, "note_on_time": 5.265, "note_off_time": 5.475}, {"pitch": 65, "velocity": 67, "note_on_time": 5.46, "note_off_time": 5.687}, {"pitch": 67, "velocity": 73, "note_on_time": 5.667, "note_off_time": 5.949}, {"pitch": 62, "velocity": 73, "note_on_time": 5.897, "note_off_time": 6.139}, {"pitch": 65, "velocity": 70, "note_on_time": 6.114, "note_off_time": 6.368}, {"pitch": 60, "velocity": 64, "note_on_time": 6.345, "note_off_time": 6.561}, {"pitch": 60, "velocity": 74, "note_on_time": 7.208, "note_off_time": 7.289}, {"pitch": 60, "velocity": 64, "note_on_time": 7.423, "note_off_time": 7.511}, {"pitch": 60, "velocity": 74, "note_on_time": 7.646, "note_off_time": 7.745}]</notes><guidance name="Guidance Mode">None</guidance><error name="Error value">0.020486684210526285</error></trial></trials></MIDI>