<MIDI midiNo="2022_11_03-11_06_14"><target_notes><notes name="Note List">[{"pitch": 42, "velocity": 80, "note_on_time": 0.004, "note_off_time": 0.22}, {"pitch": 42, "velocity": 80, "note_on_time": 0.22, "note_off_time": 0.442}, {"pitch": 42, "velocity": 80, "note_on_time": 0.442, "note_off_time": 0.66}, {"pitch": 42, "velocity": 80, "note_on_time": 0.66, "note_off_time": 0.877}, {"pitch": 60, "velocity": 80, "note_on_time": 0.877, "note_off_time": 1.095}, {"pitch": 42, "velocity": 80, "note_on_time": 0.877, "note_off_time": 1.095}, {"pitch": 64, "velocity": 80, "note_on_time": 1.095, "note_off_time": 1.31}, {"pitch": 42, "velocity": 80, "note_on_time": 1.095, "note_off_time": 1.31}, {"pitch": 65, "velocity": 80, "note_on_time": 1.31, "note_off_time": 1.528}, {"pitch": 42, "velocity": 80, "note_on_time": 1.31, "note_off_time": 1.528}, {"pitch": 60, "velocity": 80, "note_on_time": 1.528, "note_off_time": 1.745}, {"pitch": 42, "velocity": 80, "note_on_time": 1.528, "note_off_time": 1.745}, {"pitch": 42, "velocity": 80, "note_on_time": 1.745, "note_off_time": 1.962}, {"pitch": 60, "velocity": 80, "note_on_time": 1.745, "note_off_time": 2.179}, {"pitch": 42, "velocity": 80, "note_on_time": 1.962, "note_off_time": 2.179}, {"pitch": 42, "velocity": 80, "note_on_time": 2.179, "note_off_time": 2.398}, {"pitch": 65, "velocity": 80, "note_on_time": 2.398, "note_off_time": 2.615}, {"pitch": 42, "velocity": 80, "note_on_time": 2.398, "note_off_time": 2.615}, {"pitch": 64, "velocity": 80, "note_on_time": 2.615, "note_off_time": 2.833}, {"pitch": 42, "velocity": 80, "note_on_time": 2.615, "note_off_time": 2.833}, {"pitch": 67, "velocity": 80, "note_on_time": 2.833, "note_off_time": 3.051}, {"pitch": 42, "velocity": 80, "note_on_time": 2.833, "note_off_time": 3.051}, {"pitch": 62, "velocity": 80, "note_on_time": 3.051, "note_off_time": 3.268}, {"pitch": 42, "velocity": 80, "note_on_time": 3.051, "note_off_time": 3.269}, {"pitch": 62, "velocity": 80, "note_on_time": 3.269, "note_off_time": 3.485}, {"pitch": 42, "velocity": 80, "note_on_time": 3.269, "note_off_time": 3.485}, {"pitch": 62, "velocity": 80, "note_on_time": 3.485, "note_off_time": 3.705}, {"pitch": 42, "velocity": 80, "note_on_time": 3.485, "note_off_time": 3.705}, {"pitch": 42, "velocity": 80, "note_on_time": 3.705, "note_off_time": 3.922}, {"pitch": 42, "velocity": 80, "note_on_time": 3.922, "note_off_time": 4.138}, {"pitch": 42, "velocity": 80, "note_on_time": 4.138, "note_off_time": 4.358}, {"pitch": 65, "velocity": 80, "note_on_time": 4.358, "note_off_time": 4.576}, {"pitch": 42, "velocity": 80, "note_on_time": 4.358, "note_off_time": 4.576}, {"pitch": 42, "velocity": 80, "note_on_time": 4.576, "note_off_time": 4.794}, {"pitch": 42, "velocity": 80, "note_on_time": 4.794, "note_off_time": 5.011}, {"pitch": 42, "velocity": 80, "note_on_time": 5.011, "note_off_time": 5.228}, {"pitch": 64, "velocity": 80, "note_on_time": 5.228, "note_off_time": 5.446}, {"pitch": 42, "velocity": 80, "note_on_time": 5.228, "note_off_time": 5.446}, {"pitch": 65, "velocity": 80, "note_on_time": 5.446, "note_off_time": 5.664}, {"pitch": 42, "velocity": 80, "note_on_time": 5.446, "note_off_time": 5.664}, {"pitch": 65, "velocity": 80, "note_on_time": 5.664, "note_off_time": 5.883}, {"pitch": 42, "velocity": 80, "note_on_time": 5.664, "note_off_time": 5.883}, {"pitch": 64, "velocity": 80, "note_on_time": 5.883, "note_off_time": 6.1}, {"pitch": 42, "velocity": 80, "note_on_time": 5.883, "note_off_time": 6.1}, {"pitch": 42, "velocity": 80, "note_on_time": 6.1, "note_off_time": 6.317}, {"pitch": 64, "velocity": 80, "note_on_time": 6.1, "note_off_time": 6.538}, {"pitch": 42, "velocity": 80, "note_on_time": 6.317, "note_off_time": 6.538}, {"pitch": 42, "velocity": 80, "note_on_time": 6.538, "note_off_time": 6.754}, {"pitch": 42, "velocity": 80, "note_on_time": 6.754, "note_off_time": 6.973}, {"pitch": 42, "velocity": 80, "note_on_time": 6.973, "note_off_time": 7.192}, {"pitch": 64, "velocity": 80, "note_on_time": 7.192, "note_off_time": 7.409}, {"pitch": 42, "velocity": 80, "note_on_time": 7.192, "note_off_time": 7.409}, {"pitch": 64, "velocity": 80, "note_on_time": 7.409, "note_off_time": 7.627}, {"pitch": 42, "velocity": 80, "note_on_time": 7.41, "note_off_time": 7.627}, {"pitch": 64, "velocity": 80, "note_on_time": 7.627, "note_off_time": 7.844}, {"pitch": 42, "velocity": 80, "note_on_time": 7.627, "note_off_time": 7.844}]</notes><options name="Option List">((4, 4), [0.5, 0.25], 3, 8, &lt;NoteRangePerHand.C_TO_G: 6&gt;, &lt;NoteRangePerHand.ONE_NOTE: 2&gt;, False, True, False, 281)</options></target_notes><trials><trial trial_no="1" timestamp="2022_11_03-11_06_04"><notes name="Played Notes">[{"pitch": 60, "velocity": 74, "note_on_time": 0.896, "note_off_time": 1.176}, {"pitch": 64, "velocity": 63, "note_on_time": 1.13, "note_off_time": 1.452}, {"pitch": 65, "velocity": 62, "note_on_time": 1.361, "note_off_time": 1.546}, {"pitch": 60, "velocity": 59, "note_on_time": 1.555, "note_off_time": 1.657}, {"pitch": 60, "velocity": 76, "note_on_time": 1.813, "note_off_time": 2.03}, {"pitch": 65, "velocity": 66, "note_on_time": 2.454, "note_off_time": 2.7}, {"pitch": 64, "velocity": 69, "note_on_time": 2.697, "note_off_time": 2.882}, {"pitch": 67, "velocity": 67, "note_on_time": 2.908, "note_off_time": 3.078}, {"pitch": 62, "velocity": 57, "note_on_time": 3.131, "note_off_time": 3.217}, {"pitch": 62, "velocity": 67, "note_on_time": 3.378, "note_off_time": 3.459}, {"pitch": 62, "velocity": 70, "note_on_time": 3.603, "note_off_time": 3.72}, {"pitch": 65, "velocity": 87, "note_on_time": 4.568, "note_off_time": 4.657}, {"pitch": 64, "velocity": 76, "note_on_time": 5.265, "note_off_time": 5.397}, {"pitch": 65, "velocity": 69, "note_on_time": 5.484, "note_off_time": 5.575}, {"pitch": 65, "velocity": 69, "note_on_time": 5.696, "note_off_time": 5.825}, {"pitch": 64, "velocity": 63, "note_on_time": 5.934, "note_off_time": 6.019}, {"pitch": 64, "velocity": 68, "note_on_time": 6.143, "note_off_time": 6.301}, {"pitch": 64, "velocity": 72, "note_on_time": 6.914, "note_off_time": 7.016}, {"pitch": 64, "velocity": 66, "note_on_time": 7.16, "note_off_time": 7.249}, {"pitch": 64, "velocity": 63, "note_on_time": 7.362, "note_off_time": 7.502}]</notes><guidance name="Guidance Mode">None</guidance><error name="Error value">0.049025352941176645</error></trial><trial trial_no="2" timestamp="2022_11_03-11_06_23"><notes name="Played Notes">[{"pitch": 60, "velocity": 74, "note_on_time": 0.881, "note_off_time": 1.188}, {"pitch": 64, "velocity": 61, "note_on_time": 1.11, "note_off_time": 1.406}, {"pitch": 65, "velocity": 72, "note_on_time": 1.343, "note_off_time": 1.606}, {"pitch": 60, "velocity": 65, "note_on_time": 1.563, "note_off_time": 1.667}, {"pitch": 60, "velocity": 84, "note_on_time": 1.818, "note_off_time": 2.018}, {"pitch": 65, "velocity": 75, "note_on_time": 2.423, "note_off_time": 2.581}, {"pitch": 64, "velocity": 70, "note_on_time": 2.622, "note_off_time": 2.8}, {"pitch": 67, "velocity": 73, "note_on_time": 2.829, "note_off_time": 3.014}, {"pitch": 64, "velocity": 61, "note_on_time": 3.025, "note_off_time": 3.095}, {"pitch": 62, "velocity": 63, "note_on_time": 3.109, "note_off_time": 3.164}, {"pitch": 62, "velocity": 69, "note_on_time": 3.309, "note_off_time": 3.388}, {"pitch": 62, "velocity": 72, "note_on_time": 3.535, "note_off_time": 3.641}, {"pitch": 65, "velocity": 73, "note_on_time": 4.373, "note_off_time": 4.444}, {"pitch": 64, "velocity": 67, "note_on_time": 5.051, "note_off_time": 5.275}, {"pitch": 65, "velocity": 82, "note_on_time": 5.28, "note_off_time": 5.369}, {"pitch": 65, "velocity": 65, "note_on_time": 5.492, "note_off_time": 5.638}, {"pitch": 64, "velocity": 65, "note_on_time": 5.713, "note_off_time": 5.815}, {"pitch": 64, "velocity": 74, "note_on_time": 5.951, "note_off_time": 6.08}, {"pitch": 64, "velocity": 75, "note_on_time": 6.748, "note_off_time": 6.834}, {"pitch": 64, "velocity": 76, "note_on_time": 6.963, "note_off_time": 7.072}, {"pitch": 64, "velocity": 71, "note_on_time": 7.184, "note_off_time": 7.37}]</notes><guidance name="Guidance Mode">None</guidance><error name="Error value">0.17310041176470603</error></trial><trial trial_no="3" timestamp="2022_11_03-11_06_40"><notes name="Played Notes">[{"pitch": 60, "velocity": 78, "note_on_time": 0.891, "note_off_time": 1.136}, {"pitch": 64, "velocity": 71, "note_on_time": 1.101, "note_off_time": 1.364}, {"pitch": 65, "velocity": 73, "note_on_time": 1.32, "note_off_time": 1.588}, {"pitch": 60, "velocity": 60, "note_on_time": 1.553, "note_off_time": 1.654}, {"pitch": 60, "velocity": 78, "note_on_time": 1.803, "note_off_time": 1.949}, {"pitch": 65, "velocity": 78, "note_on_time": 2.401, "note_off_time": 2.597}, {"pitch": 64, "velocity": 69, "note_on_time": 2.602, "note_off_time": 2.792}, {"pitch": 67, "velocity": 73, "note_on_time": 2.82, "note_off_time": 2.99}, {"pitch": 62, "velocity": 71, "note_on_time": 3.012, "note_off_time": 3.108}, {"pitch": 62, "velocity": 68, "note_on_time": 3.244, "note_off_time": 3.332}, {"pitch": 62, "velocity": 71, "note_on_time": 3.503, "note_off_time": 3.602}, {"pitch": 65, "velocity": 82, "note_on_time": 4.347, "note_off_time": 4.432}, {"pitch": 64, "velocity": 70, "note_on_time": 5.041, "note_off_time": 5.172}, {"pitch": 65, "velocity": 79, "note_on_time": 5.247, "note_off_time": 5.329}, {"pitch": 65, "velocity": 64, "note_on_time": 5.458, "note_off_time": 5.623}, {"pitch": 64, "velocity": 70, "note_on_time": 5.694, "note_off_time": 5.769}, {"pitch": 64, "velocity": 78, "note_on_time": 5.906, "note_off_time": 6.03}, {"pitch": 64, "velocity": 79, "note_on_time": 6.776, "note_off_time": 6.876}, {"pitch": 64, "velocity": 68, "note_on_time": 6.995, "note_off_time": 7.086}, {"pitch": 64, "velocity": 70, "note_on_time": 7.201, "note_off_time": 7.317}]</notes><guidance name="Guidance Mode">None</guidance><error name="Error value">0.036755588235294234</error></trial></trials></MIDI>