<MIDI midiNo="2022_09_12-11_47_03"><target_notes><notes name="Note List">[{"pitch": 42, "velocity": 80, "note_on_time": 0.004, "note_off_time": 0.266}, {"pitch": 42, "velocity": 80, "note_on_time": 0.266, "note_off_time": 0.531}, {"pitch": 42, "velocity": 80, "note_on_time": 0.532, "note_off_time": 0.796}, {"pitch": 42, "velocity": 80, "note_on_time": 0.796, "note_off_time": 1.061}, {"pitch": 64, "velocity": 80, "note_on_time": 1.061, "note_off_time": 1.325}, {"pitch": 42, "velocity": 80, "note_on_time": 1.061, "note_off_time": 1.325}, {"pitch": 42, "velocity": 80, "note_on_time": 1.325, "note_off_time": 1.59}, {"pitch": 62, "velocity": 80, "note_on_time": 1.325, "note_off_time": 1.855}, {"pitch": 42, "velocity": 80, "note_on_time": 1.591, "note_off_time": 1.855}, {"pitch": 42, "velocity": 80, "note_on_time": 1.855, "note_off_time": 2.119}, {"pitch": 42, "velocity": 80, "note_on_time": 2.12, "note_off_time": 2.385}, {"pitch": 64, "velocity": 80, "note_on_time": 2.119, "note_off_time": 2.648}, {"pitch": 42, "velocity": 80, "note_on_time": 2.385, "note_off_time": 2.648}, {"pitch": 42, "velocity": 80, "note_on_time": 2.649, "note_off_time": 2.913}, {"pitch": 42, "velocity": 80, "note_on_time": 2.914, "note_off_time": 3.179}, {"pitch": 64, "velocity": 80, "note_on_time": 3.178, "note_off_time": 3.444}, {"pitch": 42, "velocity": 80, "note_on_time": 3.179, "note_off_time": 3.444}, {"pitch": 42, "velocity": 80, "note_on_time": 3.444, "note_off_time": 3.71}, {"pitch": 42, "velocity": 80, "note_on_time": 3.71, "note_off_time": 3.974}, {"pitch": 42, "velocity": 80, "note_on_time": 3.974, "note_off_time": 4.237}, {"pitch": 42, "velocity": 80, "note_on_time": 4.237, "note_off_time": 4.504}, {"pitch": 64, "velocity": 80, "note_on_time": 4.237, "note_off_time": 4.769}, {"pitch": 42, "velocity": 80, "note_on_time": 4.504, "note_off_time": 4.769}, {"pitch": 62, "velocity": 80, "note_on_time": 4.769, "note_off_time": 5.033}, {"pitch": 42, "velocity": 80, "note_on_time": 4.769, "note_off_time": 5.034}, {"pitch": 62, "velocity": 80, "note_on_time": 5.033, "note_off_time": 5.298}, {"pitch": 42, "velocity": 80, "note_on_time": 5.034, "note_off_time": 5.298}, {"pitch": 60, "velocity": 80, "note_on_time": 5.298, "note_off_time": 5.564}, {"pitch": 42, "velocity": 80, "note_on_time": 5.298, "note_off_time": 5.565}, {"pitch": 60, "velocity": 80, "note_on_time": 5.564, "note_off_time": 5.828}, {"pitch": 42, "velocity": 80, "note_on_time": 5.565, "note_off_time": 5.829}, {"pitch": 64, "velocity": 80, "note_on_time": 5.828, "note_off_time": 6.093}, {"pitch": 42, "velocity": 80, "note_on_time": 5.829, "note_off_time": 6.093}, {"pitch": 64, "velocity": 80, "note_on_time": 6.093, "note_off_time": 6.357}, {"pitch": 42, "velocity": 80, "note_on_time": 6.094, "note_off_time": 6.358}, {"pitch": 62, "velocity": 80, "note_on_time": 6.357, "note_off_time": 6.622}, {"pitch": 42, "velocity": 80, "note_on_time": 6.358, "note_off_time": 6.623}, {"pitch": 64, "velocity": 80, "note_on_time": 6.622, "note_off_time": 6.887}, {"pitch": 42, "velocity": 80, "note_on_time": 6.623, "note_off_time": 6.888}, {"pitch": 60, "velocity": 80, "note_on_time": 6.887, "note_off_time": 7.153}, {"pitch": 42, "velocity": 80, "note_on_time": 6.888, "note_off_time": 7.153}, {"pitch": 60, "velocity": 80, "note_on_time": 7.153, "note_off_time": 7.417}, {"pitch": 42, "velocity": 80, "note_on_time": 7.154, "note_off_time": 7.417}, {"pitch": 42, "velocity": 80, "note_on_time": 7.418, "note_off_time": 7.682}, {"pitch": 62, "velocity": 80, "note_on_time": 7.417, "note_off_time": 7.946}, {"pitch": 42, "velocity": 80, "note_on_time": 7.682, "note_off_time": 7.946}, {"pitch": 42, "velocity": 80, "note_on_time": 7.947, "note_off_time": 8.209}, {"pitch": 42, "velocity": 80, "note_on_time": 8.209, "note_off_time": 8.476}, {"pitch": 42, "velocity": 80, "note_on_time": 8.476, "note_off_time": 8.741}, {"pitch": 62, "velocity": 80, "note_on_time": 8.741, "note_off_time": 9.004}, {"pitch": 42, "velocity": 80, "note_on_time": 8.741, "note_off_time": 9.004}, {"pitch": 62, "velocity": 80, "note_on_time": 9.004, "note_off_time": 9.269}, {"pitch": 42, "velocity": 80, "note_on_time": 9.004, "note_off_time": 9.269}, {"pitch": 62, "velocity": 80, "note_on_time": 9.269, "note_off_time": 9.533}, {"pitch": 42, "velocity": 80, "note_on_time": 9.27, "note_off_time": 9.533}]</notes><options name="Option List">((4, 4), [0.5, 0.25], 3, 8, &lt;NoteRangePerHand.THREE_NOTES: 4&gt;, &lt;NoteRangePerHand.ONE_NOTE: 2&gt;, False, True, True, '232')</options></target_notes><trials><trial trial_no="1" timestamp="2022_09_12-11_46_52"><notes name="Played Notes">[{"pitch": 64, "velocity": 82, "note_on_time": 1.107, "note_off_time": 1.257}, {"pitch": 62, "velocity": 81, "note_on_time": 1.424, "note_off_time": 1.812}, {"pitch": 64, "velocity": 76, "note_on_time": 2.005, "note_off_time": 2.351}, {"pitch": 64, "velocity": 83, "note_on_time": 3.434, "note_off_time": 3.557}, {"pitch": 64, "velocity": 85, "note_on_time": 4.649, "note_off_time": 5.09}, {"pitch": 62, "velocity": 88, "note_on_time": 5.463, "note_off_time": 5.59}, {"pitch": 62, "velocity": 79, "note_on_time": 5.765, "note_off_time": 5.906}, {"pitch": 60, "velocity": 84, "note_on_time": 6.108, "note_off_time": 6.238}, {"pitch": 60, "velocity": 91, "note_on_time": 6.383, "note_off_time": 6.528}, {"pitch": 64, "velocity": 86, "note_on_time": 6.713, "note_off_time": 6.831}, {"pitch": 64, "velocity": 89, "note_on_time": 6.985, "note_off_time": 7.127}, {"pitch": 62, "velocity": 80, "note_on_time": 7.365, "note_off_time": 7.465}, {"pitch": 64, "velocity": 92, "note_on_time": 7.618, "note_off_time": 7.75}, {"pitch": 60, "velocity": 82, "note_on_time": 7.963, "note_off_time": 8.103}, {"pitch": 60, "velocity": 92, "note_on_time": 8.249, "note_off_time": 8.392}, {"pitch": 62, "velocity": 86, "note_on_time": 8.55, "note_off_time": 8.996}]</notes><guidance name="Guidance Mode">None</guidance><error name="Error value">0.3964487500000001</error></trial><trial trial_no="2" timestamp="2022_09_12-11_47_15"><notes name="Played Notes">[{"pitch": 64, "velocity": 83, "note_on_time": 1.116, "note_off_time": 1.285}, {"pitch": 62, "velocity": 88, "note_on_time": 1.416, "note_off_time": 1.899}, {"pitch": 64, "velocity": 81, "note_on_time": 2.342, "note_off_time": 2.856}, {"pitch": 62, "velocity": 87, "note_on_time": 3.546, "note_off_time": 3.684}, {"pitch": 64, "velocity": 77, "note_on_time": 4.765, "note_off_time": 5.22}, {"pitch": 62, "velocity": 84, "note_on_time": 5.729, "note_off_time": 5.85}, {"pitch": 62, "velocity": 87, "note_on_time": 6.0, "note_off_time": 6.139}, {"pitch": 60, "velocity": 84, "note_on_time": 6.254, "note_off_time": 6.385}, {"pitch": 60, "velocity": 86, "note_on_time": 6.518, "note_off_time": 6.661}, {"pitch": 64, "velocity": 82, "note_on_time": 6.736, "note_off_time": 6.855}, {"pitch": 64, "velocity": 74, "note_on_time": 6.989, "note_off_time": 7.12}, {"pitch": 62, "velocity": 82, "note_on_time": 7.298, "note_off_time": 7.413}, {"pitch": 64, "velocity": 80, "note_on_time": 7.546, "note_off_time": 7.691}, {"pitch": 60, "velocity": 79, "note_on_time": 7.819, "note_off_time": 7.954}, {"pitch": 60, "velocity": 90, "note_on_time": 8.086, "note_off_time": 8.23}, {"pitch": 62, "velocity": 87, "note_on_time": 8.358, "note_off_time": 8.766}]</notes><guidance name="Guidance Mode">None</guidance><error name="Error value">0.3861987500000001</error></trial><trial trial_no="3" timestamp="2022_09_12-11_47_35"><notes name="Played Notes">[{"pitch": 64, "velocity": 85, "note_on_time": 1.312, "note_off_time": 1.468}, {"pitch": 62, "velocity": 91, "note_on_time": 1.603, "note_off_time": 2.017}, {"pitch": 64, "velocity": 84, "note_on_time": 2.184, "note_off_time": 2.669}, {"pitch": 62, "velocity": 83, "note_on_time": 3.32, "note_off_time": 3.649}, {"pitch": 62, "velocity": 67, "note_on_time": 4.425, "note_off_time": 4.855}, {"pitch": 62, "velocity": 82, "note_on_time": 5.557, "note_off_time": 5.668}, {"pitch": 62, "velocity": 85, "note_on_time": 5.836, "note_off_time": 5.974}, {"pitch": 60, "velocity": 79, "note_on_time": 6.119, "note_off_time": 6.256}, {"pitch": 60, "velocity": 89, "note_on_time": 6.402, "note_off_time": 6.533}, {"pitch": 64, "velocity": 86, "note_on_time": 6.66, "note_off_time": 6.779}, {"pitch": 64, "velocity": 88, "note_on_time": 6.94, "note_off_time": 7.074}, {"pitch": 62, "velocity": 87, "note_on_time": 7.194, "note_off_time": 7.33}, {"pitch": 64, "velocity": 85, "note_on_time": 7.467, "note_off_time": 7.638}, {"pitch": 62, "velocity": 52, "note_on_time": 8.002, "note_off_time": 8.112}, {"pitch": 60, "velocity": 88, "note_on_time": 8.283, "note_off_time": 8.403}, {"pitch": 60, "velocity": 87, "note_on_time": 8.517, "note_off_time": 8.657}, {"pitch": 62, "velocity": 90, "note_on_time": 8.831, "note_off_time": 9.266}]</notes><guidance name="Guidance Mode">None</guidance><error name="Error value">0.545845</error></trial></trials></MIDI>