<MIDI midiNo="2022_12_15-12_47_52"><target_notes><notes name="Note List">[{"pitch": 42, "velocity": 80, "note_on_time": 0.003, "note_off_time": 0.737}, {"pitch": 42, "velocity": 80, "note_on_time": 0.737, "note_off_time": 1.472}, {"pitch": 42, "velocity": 80, "note_on_time": 1.472, "note_off_time": 2.206}, {"pitch": 42, "velocity": 80, "note_on_time": 2.206, "note_off_time": 2.936}, {"pitch": 62, "velocity": 80, "note_on_time": 2.936, "note_off_time": 3.671}, {"pitch": 42, "velocity": 80, "note_on_time": 2.936, "note_off_time": 3.671}, {"pitch": 60, "velocity": 80, "note_on_time": 3.671, "note_off_time": 4.403}, {"pitch": 42, "velocity": 80, "note_on_time": 3.671, "note_off_time": 4.403}, {"pitch": 60, "velocity": 80, "note_on_time": 4.403, "note_off_time": 5.135}, {"pitch": 42, "velocity": 80, "note_on_time": 4.403, "note_off_time": 5.135}, {"pitch": 62, "velocity": 80, "note_on_time": 5.135, "note_off_time": 5.868}, {"pitch": 42, "velocity": 80, "note_on_time": 5.135, "note_off_time": 5.868}, {"pitch": 60, "velocity": 80, "note_on_time": 5.868, "note_off_time": 6.599}, {"pitch": 42, "velocity": 80, "note_on_time": 5.868, "note_off_time": 6.599}, {"pitch": 64, "velocity": 80, "note_on_time": 6.599, "note_off_time": 7.333}, {"pitch": 42, "velocity": 80, "note_on_time": 6.599, "note_off_time": 7.333}, {"pitch": 62, "velocity": 80, "note_on_time": 7.333, "note_off_time": 8.069}, {"pitch": 42, "velocity": 80, "note_on_time": 7.333, "note_off_time": 8.069}, {"pitch": 64, "velocity": 80, "note_on_time": 8.069, "note_off_time": 8.804}, {"pitch": 42, "velocity": 80, "note_on_time": 8.069, "note_off_time": 8.804}, {"pitch": 60, "velocity": 80, "note_on_time": 8.804, "note_off_time": 9.538}, {"pitch": 42, "velocity": 80, "note_on_time": 8.804, "note_off_time": 9.538}, {"pitch": 42, "velocity": 80, "note_on_time": 9.538, "note_off_time": 10.272}, {"pitch": 62, "velocity": 80, "note_on_time": 9.538, "note_off_time": 11.006}, {"pitch": 42, "velocity": 80, "note_on_time": 10.272, "note_off_time": 11.006}, {"pitch": 42, "velocity": 80, "note_on_time": 11.006, "note_off_time": 11.745}, {"pitch": 60, "velocity": 80, "note_on_time": 11.745, "note_off_time": 12.481}, {"pitch": 42, "velocity": 80, "note_on_time": 11.745, "note_off_time": 12.481}, {"pitch": 64, "velocity": 80, "note_on_time": 12.481, "note_off_time": 13.215}, {"pitch": 42, "velocity": 80, "note_on_time": 12.481, "note_off_time": 13.216}, {"pitch": 62, "velocity": 80, "note_on_time": 13.216, "note_off_time": 13.947}, {"pitch": 42, "velocity": 80, "note_on_time": 13.216, "note_off_time": 13.947}, {"pitch": 64, "velocity": 80, "note_on_time": 13.947, "note_off_time": 14.68}, {"pitch": 42, "velocity": 80, "note_on_time": 13.947, "note_off_time": 14.68}, {"pitch": 60, "velocity": 80, "note_on_time": 14.68, "note_off_time": 15.41}, {"pitch": 42, "velocity": 80, "note_on_time": 14.68, "note_off_time": 15.41}, {"pitch": 64, "velocity": 80, "note_on_time": 15.41, "note_off_time": 16.143}, {"pitch": 42, "velocity": 80, "note_on_time": 15.41, "note_off_time": 16.143}, {"pitch": 42, "velocity": 80, "note_on_time": 16.143, "note_off_time": 16.873}, {"pitch": 62, "velocity": 80, "note_on_time": 16.143, "note_off_time": 17.607}, {"pitch": 42, "velocity": 80, "note_on_time": 16.873, "note_off_time": 17.607}, {"pitch": 64, "velocity": 80, "note_on_time": 17.607, "note_off_time": 18.341}, {"pitch": 42, "velocity": 80, "note_on_time": 17.607, "note_off_time": 18.341}, {"pitch": 42, "velocity": 80, "note_on_time": 18.341, "note_off_time": 19.073}, {"pitch": 42, "velocity": 80, "note_on_time": 19.073, "note_off_time": 19.803}, {"pitch": 60, "velocity": 80, "note_on_time": 19.803, "note_off_time": 20.536}, {"pitch": 42, "velocity": 80, "note_on_time": 19.803, "note_off_time": 20.536}, {"pitch": 60, "velocity": 80, "note_on_time": 20.536, "note_off_time": 21.27}, {"pitch": 42, "velocity": 80, "note_on_time": 20.536, "note_off_time": 21.27}, {"pitch": 60, "velocity": 80, "note_on_time": 21.27, "note_off_time": 22.006}, {"pitch": 42, "velocity": 80, "note_on_time": 21.27, "note_off_time": 22.006}, {"pitch": 64, "velocity": 80, "note_on_time": 22.006, "note_off_time": 22.741}, {"pitch": 42, "velocity": 80, "note_on_time": 22.006, "note_off_time": 22.741}, {"pitch": 62, "velocity": 80, "note_on_time": 22.741, "note_off_time": 23.474}, {"pitch": 42, "velocity": 80, "note_on_time": 22.741, "note_off_time": 23.474}, {"pitch": 42, "velocity": 80, "note_on_time": 23.474, "note_off_time": 24.209}, {"pitch": 62, "velocity": 80, "note_on_time": 24.209, "note_off_time": 24.941}, {"pitch": 42, "velocity": 80, "note_on_time": 24.209, "note_off_time": 24.941}, {"pitch": 62, "velocity": 80, "note_on_time": 24.941, "note_off_time": 25.676}, {"pitch": 42, "velocity": 80, "note_on_time": 24.941, "note_off_time": 25.676}, {"pitch": 62, "velocity": 80, "note_on_time": 25.676, "note_off_time": 26.411}, {"pitch": 42, "velocity": 80, "note_on_time": 25.676, "note_off_time": 26.411}]</notes><options name="Option List">((4, 4), [0.5, 0.25], 3, 8, &lt;NoteRangePerHand.THREE_NOTES: 4&gt;, &lt;NoteRangePerHand.ONE_NOTE: 2&gt;, False, True, False, 83)</options></target_notes><trials><trial trial_no="1" timestamp="2022_12_15-12_47_24"><notes name="Played Notes">[{"pitch": 74, "velocity": 65, "note_on_time": 3.104, "note_off_time": 3.413}, {"pitch": 72, "velocity": 65, "note_on_time": 3.781, "note_off_time": 4.058}, {"pitch": 72, "velocity": 66, "note_on_time": 4.463, "note_off_time": 4.676}, {"pitch": 74, "velocity": 75, "note_on_time": 5.146, "note_off_time": 5.306}, {"pitch": 72, "velocity": 67, "note_on_time": 5.832, "note_off_time": 6.024}, {"pitch": 76, "velocity": 64, "note_on_time": 6.52, "note_off_time": 6.711}, {"pitch": 74, "velocity": 55, "note_on_time": 7.197, "note_off_time": 7.378}, {"pitch": 76, "velocity": 58, "note_on_time": 7.882, "note_off_time": 8.064}, {"pitch": 72, "velocity": 61, "note_on_time": 8.529, "note_off_time": 8.699}, {"pitch": 74, "velocity": 68, "note_on_time": 9.21, "note_off_time": 10.033}, {"pitch": 72, "velocity": 59, "note_on_time": 11.178, "note_off_time": 11.554}, {"pitch": 76, "velocity": 57, "note_on_time": 11.838, "note_off_time": 12.182}, {"pitch": 74, "velocity": 66, "note_on_time": 12.434, "note_off_time": 12.704}, {"pitch": 76, "velocity": 60, "note_on_time": 13.062, "note_off_time": 13.294}, {"pitch": 72, "velocity": 74, "note_on_time": 13.766, "note_off_time": 13.977}, {"pitch": 74, "velocity": 65, "note_on_time": 14.467, "note_off_time": 14.677}, {"pitch": 74, "velocity": 74, "note_on_time": 15.146, "note_off_time": 15.954}, {"pitch": 76, "velocity": 68, "note_on_time": 16.481, "note_off_time": 16.916}, {"pitch": 72, "velocity": 66, "note_on_time": 18.421, "note_off_time": 18.543}, {"pitch": 72, "velocity": 67, "note_on_time": 19.103, "note_off_time": 19.236}, {"pitch": 72, "velocity": 66, "note_on_time": 19.803, "note_off_time": 19.938}, {"pitch": 76, "velocity": 69, "note_on_time": 20.446, "note_off_time": 20.606}, {"pitch": 74, "velocity": 72, "note_on_time": 21.079, "note_off_time": 21.283}, {"pitch": 74, "velocity": 58, "note_on_time": 22.452, "note_off_time": 22.633}, {"pitch": 74, "velocity": 69, "note_on_time": 23.148, "note_off_time": 23.276}, {"pitch": 74, "velocity": 72, "note_on_time": 23.774, "note_off_time": 23.92}]</notes><guidance name="Guidance Mode">None</guidance><error name="Error value">1.20607047826087</error></trial><trial trial_no="2" timestamp="2022_12_15-12_48_56"><notes name="Played Notes">[{"pitch": 74, "velocity": 55, "note_on_time": 3.186, "note_off_time": 3.361}, {"pitch": 72, "velocity": 63, "note_on_time": 3.82, "note_off_time": 3.964}, {"pitch": 72, "velocity": 65, "note_on_time": 4.484, "note_off_time": 4.617}, {"pitch": 74, "velocity": 70, "note_on_time": 5.08, "note_off_time": 5.247}, {"pitch": 72, "velocity": 69, "note_on_time": 5.71, "note_off_time": 5.838}, {"pitch": 76, "velocity": 65, "note_on_time": 6.381, "note_off_time": 6.534}, {"pitch": 74, "velocity": 55, "note_on_time": 7.006, "note_off_time": 7.143}]</notes><guidance name="Guidance Mode">None</guidance><error name="Error value">1.7947218260869569</error></trial><trial trial_no="3" timestamp="2022_12_15-12_49_35"><notes name="Played Notes">[{"pitch": 74, "velocity": 67, "note_on_time": 1.961, "note_off_time": 2.165}, {"pitch": 72, "velocity": 76, "note_on_time": 2.632, "note_off_time": 2.839}, {"pitch": 72, "velocity": 71, "note_on_time": 3.3, "note_off_time": 3.456}, {"pitch": 74, "velocity": 79, "note_on_time": 3.893, "note_off_time": 4.045}, {"pitch": 72, "velocity": 76, "note_on_time": 4.553, "note_off_time": 4.742}, {"pitch": 76, "velocity": 71, "note_on_time": 5.234, "note_off_time": 5.376}, {"pitch": 74, "velocity": 66, "note_on_time": 5.883, "note_off_time": 6.016}, {"pitch": 76, "velocity": 61, "note_on_time": 6.572, "note_off_time": 6.705}, {"pitch": 72, "velocity": 66, "note_on_time": 7.218, "note_off_time": 7.349}, {"pitch": 74, "velocity": 75, "note_on_time": 7.897, "note_off_time": 8.746}, {"pitch": 72, "velocity": 70, "note_on_time": 9.815, "note_off_time": 9.949}, {"pitch": 76, "velocity": 66, "note_on_time": 10.47, "note_off_time": 10.608}, {"pitch": 74, "velocity": 64, "note_on_time": 11.11, "note_off_time": 11.247}, {"pitch": 76, "velocity": 57, "note_on_time": 11.793, "note_off_time": 11.912}, {"pitch": 72, "velocity": 64, "note_on_time": 12.422, "note_off_time": 12.534}, {"pitch": 76, "velocity": 57, "note_on_time": 13.062, "note_off_time": 13.196}, {"pitch": 74, "velocity": 73, "note_on_time": 13.692, "note_off_time": 14.434}, {"pitch": 76, "velocity": 65, "note_on_time": 14.982, "note_off_time": 15.167}, {"pitch": 72, "velocity": 63, "note_on_time": 16.913, "note_off_time": 17.036}, {"pitch": 72, "velocity": 66, "note_on_time": 17.57, "note_off_time": 17.67}, {"pitch": 72, "velocity": 65, "note_on_time": 18.25, "note_off_time": 18.361}, {"pitch": 76, "velocity": 61, "note_on_time": 18.85, "note_off_time": 18.989}, {"pitch": 74, "velocity": 68, "note_on_time": 19.529, "note_off_time": 19.628}, {"pitch": 74, "velocity": 70, "note_on_time": 20.835, "note_off_time": 20.924}, {"pitch": 74, "velocity": 73, "note_on_time": 21.458, "note_off_time": 21.556}, {"pitch": 74, "velocity": 72, "note_on_time": 22.074, "note_off_time": 22.179}]</notes><guidance name="Guidance Mode">None</guidance><error name="Error value">1.2302878695652177</error></trial><trial trial_no="4" timestamp="2022_12_15-12_50_14"><notes name="Played Notes">[{"pitch": 74, "velocity": 66, "note_on_time": 3.337, "note_off_time": 3.487}, {"pitch": 72, "velocity": 67, "note_on_time": 4.002, "note_off_time": 4.136}, {"pitch": 72, "velocity": 75, "note_on_time": 4.7, "note_off_time": 4.829}, {"pitch": 74, "velocity": 64, "note_on_time": 5.414, "note_off_time": 5.543}, {"pitch": 72, "velocity": 69, "note_on_time": 6.085, "note_off_time": 6.197}, {"pitch": 76, "velocity": 67, "note_on_time": 6.77, "note_off_time": 6.903}, {"pitch": 74, "velocity": 72, "note_on_time": 7.436, "note_off_time": 7.547}, {"pitch": 76, "velocity": 68, "note_on_time": 8.135, "note_off_time": 8.266}, {"pitch": 72, "velocity": 61, "note_on_time": 8.814, "note_off_time": 8.933}, {"pitch": 74, "velocity": 81, "note_on_time": 9.456, "note_off_time": 10.167}, {"pitch": 72, "velocity": 60, "note_on_time": 11.536, "note_off_time": 11.676}, {"pitch": 76, "velocity": 58, "note_on_time": 12.17, "note_off_time": 12.308}, {"pitch": 74, "velocity": 58, "note_on_time": 12.86, "note_off_time": 12.986}, {"pitch": 76, "velocity": 54, "note_on_time": 13.474, "note_off_time": 13.632}, {"pitch": 72, "velocity": 55, "note_on_time": 14.154, "note_off_time": 14.282}, {"pitch": 76, "velocity": 59, "note_on_time": 14.834, "note_off_time": 14.968}, {"pitch": 74, "velocity": 65, "note_on_time": 15.464, "note_off_time": 16.205}, {"pitch": 76, "velocity": 52, "note_on_time": 16.825, "note_off_time": 16.982}, {"pitch": 72, "velocity": 63, "note_on_time": 18.697, "note_off_time": 18.807}, {"pitch": 72, "velocity": 60, "note_on_time": 19.354, "note_off_time": 19.476}, {"pitch": 72, "velocity": 65, "note_on_time": 19.981, "note_off_time": 20.116}, {"pitch": 76, "velocity": 62, "note_on_time": 20.637, "note_off_time": 20.766}, {"pitch": 74, "velocity": 71, "note_on_time": 21.259, "note_off_time": 21.368}, {"pitch": 74, "velocity": 61, "note_on_time": 22.568, "note_off_time": 22.694}, {"pitch": 74, "velocity": 54, "note_on_time": 23.265, "note_off_time": 23.369}, {"pitch": 74, "velocity": 69, "note_on_time": 23.897, "note_off_time": 24.022}]</notes><guidance name="Guidance Mode">None</guidance><error name="Error value">1.2108530869565222</error></trial></trials></MIDI>