<MIDI midiNo="2022_11_21-19_25_56"><target_notes><notes name="Note List">[{"pitch": 42, "velocity": 80, "note_on_time": 0.003, "note_off_time": 0.406}, {"pitch": 42, "velocity": 80, "note_on_time": 0.406, "note_off_time": 0.812}, {"pitch": 42, "velocity": 80, "note_on_time": 0.812, "note_off_time": 1.218}, {"pitch": 42, "velocity": 80, "note_on_time": 1.218, "note_off_time": 1.62}, {"pitch": 42, "velocity": 80, "note_on_time": 1.62, "note_off_time": 2.025}, {"pitch": 62, "velocity": 80, "note_on_time": 1.62, "note_off_time": 2.431}, {"pitch": 42, "velocity": 80, "note_on_time": 2.025, "note_off_time": 2.431}, {"pitch": 42, "velocity": 80, "note_on_time": 2.431, "note_off_time": 2.838}, {"pitch": 42, "velocity": 80, "note_on_time": 2.838, "note_off_time": 3.246}, {"pitch": 62, "velocity": 80, "note_on_time": 3.246, "note_off_time": 3.651}, {"pitch": 42, "velocity": 80, "note_on_time": 3.246, "note_off_time": 3.651}, {"pitch": 42, "velocity": 80, "note_on_time": 3.651, "note_off_time": 4.054}, {"pitch": 42, "velocity": 80, "note_on_time": 4.054, "note_off_time": 4.462}, {"pitch": 42, "velocity": 80, "note_on_time": 4.462, "note_off_time": 4.867}, {"pitch": 60, "velocity": 80, "note_on_time": 4.867, "note_off_time": 5.274}, {"pitch": 42, "velocity": 80, "note_on_time": 4.867, "note_off_time": 5.274}, {"pitch": 60, "velocity": 80, "note_on_time": 5.274, "note_off_time": 5.68}, {"pitch": 42, "velocity": 80, "note_on_time": 5.274, "note_off_time": 5.68}, {"pitch": 60, "velocity": 80, "note_on_time": 5.68, "note_off_time": 6.084}, {"pitch": 42, "velocity": 80, "note_on_time": 5.68, "note_off_time": 6.084}, {"pitch": 62, "velocity": 80, "note_on_time": 6.084, "note_off_time": 6.489}, {"pitch": 42, "velocity": 80, "note_on_time": 6.084, "note_off_time": 6.489}, {"pitch": 64, "velocity": 80, "note_on_time": 6.489, "note_off_time": 6.895}, {"pitch": 42, "velocity": 80, "note_on_time": 6.489, "note_off_time": 6.895}, {"pitch": 60, "velocity": 80, "note_on_time": 6.895, "note_off_time": 7.298}, {"pitch": 42, "velocity": 80, "note_on_time": 6.895, "note_off_time": 7.298}, {"pitch": 64, "velocity": 80, "note_on_time": 7.298, "note_off_time": 7.703}, {"pitch": 42, "velocity": 80, "note_on_time": 7.298, "note_off_time": 7.703}, {"pitch": 62, "velocity": 80, "note_on_time": 7.703, "note_off_time": 8.107}, {"pitch": 42, "velocity": 80, "note_on_time": 7.703, "note_off_time": 8.107}, {"pitch": 42, "velocity": 80, "note_on_time": 8.107, "note_off_time": 8.513}, {"pitch": 60, "velocity": 80, "note_on_time": 8.107, "note_off_time": 8.917}, {"pitch": 42, "velocity": 80, "note_on_time": 8.513, "note_off_time": 8.917}, {"pitch": 42, "velocity": 80, "note_on_time": 8.917, "note_off_time": 9.323}, {"pitch": 42, "velocity": 80, "note_on_time": 9.323, "note_off_time": 9.729}, {"pitch": 64, "velocity": 80, "note_on_time": 9.729, "note_off_time": 10.132}, {"pitch": 42, "velocity": 80, "note_on_time": 9.729, "note_off_time": 10.132}, {"pitch": 62, "velocity": 80, "note_on_time": 10.132, "note_off_time": 10.537}, {"pitch": 42, "velocity": 80, "note_on_time": 10.132, "note_off_time": 10.537}, {"pitch": 64, "velocity": 80, "note_on_time": 10.537, "note_off_time": 10.94}, {"pitch": 42, "velocity": 80, "note_on_time": 10.537, "note_off_time": 10.94}, {"pitch": 60, "velocity": 80, "note_on_time": 10.94, "note_off_time": 11.343}, {"pitch": 42, "velocity": 80, "note_on_time": 10.94, "note_off_time": 11.343}, {"pitch": 64, "velocity": 80, "note_on_time": 11.343, "note_off_time": 11.749}, {"pitch": 42, "velocity": 80, "note_on_time": 11.343, "note_off_time": 11.749}, {"pitch": 62, "velocity": 80, "note_on_time": 11.749, "note_off_time": 12.156}, {"pitch": 42, "velocity": 80, "note_on_time": 11.749, "note_off_time": 12.156}, {"pitch": 60, "velocity": 80, "note_on_time": 12.156, "note_off_time": 12.56}, {"pitch": 42, "velocity": 80, "note_on_time": 12.156, "note_off_time": 12.56}, {"pitch": 60, "velocity": 80, "note_on_time": 12.56, "note_off_time": 12.967}, {"pitch": 42, "velocity": 80, "note_on_time": 12.56, "note_off_time": 12.967}, {"pitch": 42, "velocity": 80, "note_on_time": 12.967, "note_off_time": 13.372}, {"pitch": 60, "velocity": 80, "note_on_time": 13.372, "note_off_time": 13.776}, {"pitch": 42, "velocity": 80, "note_on_time": 13.372, "note_off_time": 13.776}, {"pitch": 60, "velocity": 80, "note_on_time": 13.776, "note_off_time": 14.181}, {"pitch": 42, "velocity": 80, "note_on_time": 13.776, "note_off_time": 14.181}, {"pitch": 60, "velocity": 80, "note_on_time": 14.181, "note_off_time": 14.587}, {"pitch": 42, "velocity": 80, "note_on_time": 14.181, "note_off_time": 14.587}]</notes><options name="Option List">((4, 4), [0.5, 0.25], 3, 8, &lt;NoteRangePerHand.THREE_NOTES: 4&gt;, &lt;NoteRangePerHand.ONE_NOTE: 2&gt;, False, True, False, '150')</options></target_notes><trials><trial trial_no="1" timestamp="2022_11_21-19_25_40"><notes name="Played Notes">[{"pitch": 62, "velocity": 79, "note_on_time": 1.418, "note_off_time": 1.932}, {"pitch": 62, "velocity": 83, "note_on_time": 2.425, "note_off_time": 2.903}, {"pitch": 60, "velocity": 90, "note_on_time": 3.658, "note_off_time": 3.783}, {"pitch": 60, "velocity": 84, "note_on_time": 4.022, "note_off_time": 4.142}, {"pitch": 60, "velocity": 79, "note_on_time": 4.428, "note_off_time": 4.853}, {"pitch": 62, "velocity": 78, "note_on_time": 4.835, "note_off_time": 5.013}, {"pitch": 64, "velocity": 80, "note_on_time": 5.18, "note_off_time": 5.43}, {"pitch": 60, "velocity": 78, "note_on_time": 5.515, "note_off_time": 5.722}, {"pitch": 64, "velocity": 74, "note_on_time": 5.879, "note_off_time": 6.198}, {"pitch": 62, "velocity": 68, "note_on_time": 6.231, "note_off_time": 6.376}, {"pitch": 60, "velocity": 88, "note_on_time": 6.568, "note_off_time": 6.85}, {"pitch": 64, "velocity": 73, "note_on_time": 8.112, "note_off_time": 8.502}, {"pitch": 62, "velocity": 61, "note_on_time": 8.483, "note_off_time": 8.714}, {"pitch": 64, "velocity": 78, "note_on_time": 8.839, "note_off_time": 9.192}, {"pitch": 60, "velocity": 78, "note_on_time": 9.175, "note_off_time": 9.384}, {"pitch": 64, "velocity": 70, "note_on_time": 9.549, "note_off_time": 9.944}, {"pitch": 62, "velocity": 73, "note_on_time": 9.905, "note_off_time": 10.239}, {"pitch": 60, "velocity": 79, "note_on_time": 10.213, "note_off_time": 10.364}, {"pitch": 60, "velocity": 89, "note_on_time": 10.57, "note_off_time": 10.774}, {"pitch": 60, "velocity": 83, "note_on_time": 11.336, "note_off_time": 11.482}, {"pitch": 60, "velocity": 78, "note_on_time": 11.665, "note_off_time": 11.789}, {"pitch": 60, "velocity": 97, "note_on_time": 12.013, "note_off_time": 12.191}]</notes><guidance name="Guidance Mode">None</guidance><error name="Error value">0.09636842105263185</error></trial><trial trial_no="2" timestamp="2022_11_21-19_26_07"><notes name="Played Notes">[{"pitch": 62, "velocity": 68, "note_on_time": 1.143, "note_off_time": 2.008}, {"pitch": 62, "velocity": 84, "note_on_time": 3.131, "note_off_time": 3.417}, {"pitch": 60, "velocity": 87, "note_on_time": 4.753, "note_off_time": 4.881}, {"pitch": 60, "velocity": 81, "note_on_time": 5.118, "note_off_time": 5.279}, {"pitch": 60, "velocity": 67, "note_on_time": 5.488, "note_off_time": 5.943}, {"pitch": 62, "velocity": 73, "note_on_time": 5.904, "note_off_time": 6.116}, {"pitch": 64, "velocity": 62, "note_on_time": 6.26, "note_off_time": 6.716}, {"pitch": 60, "velocity": 82, "note_on_time": 6.738, "note_off_time": 7.099}, {"pitch": 64, "velocity": 75, "note_on_time": 7.163, "note_off_time": 7.508}, {"pitch": 62, "velocity": 69, "note_on_time": 7.543, "note_off_time": 7.822}, {"pitch": 60, "velocity": 84, "note_on_time": 7.927, "note_off_time": 8.392}, {"pitch": 64, "velocity": 72, "note_on_time": 9.383, "note_off_time": 9.763}, {"pitch": 62, "velocity": 65, "note_on_time": 9.754, "note_off_time": 10.071}, {"pitch": 64, "velocity": 72, "note_on_time": 10.111, "note_off_time": 10.522}, {"pitch": 60, "velocity": 85, "note_on_time": 10.493, "note_off_time": 10.882}, {"pitch": 64, "velocity": 70, "note_on_time": 10.875, "note_off_time": 11.267}, {"pitch": 62, "velocity": 65, "note_on_time": 11.231, "note_off_time": 11.666}, {"pitch": 60, "velocity": 84, "note_on_time": 11.64, "note_off_time": 11.814}, {"pitch": 60, "velocity": 90, "note_on_time": 11.981, "note_off_time": 12.222}, {"pitch": 60, "velocity": 85, "note_on_time": 12.775, "note_off_time": 12.917}, {"pitch": 60, "velocity": 87, "note_on_time": 13.124, "note_off_time": 13.246}, {"pitch": 60, "velocity": 98, "note_on_time": 13.455, "note_off_time": 13.682}]</notes><guidance name="Guidance Mode">None</guidance><error name="Error value">0.06126315789473715</error></trial><trial trial_no="3" timestamp="2022_11_21-19_26_30"><notes name="Played Notes">[{"pitch": 62, "velocity": 74, "note_on_time": 2.578, "note_off_time": 3.581}, {"pitch": 62, "velocity": 80, "note_on_time": 4.954, "note_off_time": 5.252}, {"pitch": 60, "velocity": 88, "note_on_time": 6.568, "note_off_time": 6.725}, {"pitch": 60, "velocity": 76, "note_on_time": 6.935, "note_off_time": 7.077}, {"pitch": 60, "velocity": 71, "note_on_time": 7.312, "note_off_time": 7.501}, {"pitch": 60, "velocity": 65, "note_on_time": 7.679, "note_off_time": 8.009}, {"pitch": 62, "velocity": 69, "note_on_time": 8.019, "note_off_time": 8.383}, {"pitch": 64, "velocity": 79, "note_on_time": 8.392, "note_off_time": 8.72}, {"pitch": 60, "velocity": 81, "note_on_time": 8.735, "note_off_time": 9.169}, {"pitch": 64, "velocity": 66, "note_on_time": 9.15, "note_off_time": 9.481}, {"pitch": 62, "velocity": 63, "note_on_time": 9.493, "note_off_time": 9.896}, {"pitch": 60, "velocity": 82, "note_on_time": 9.885, "note_off_time": 10.353}, {"pitch": 64, "velocity": 72, "note_on_time": 11.4, "note_off_time": 11.789}, {"pitch": 62, "velocity": 61, "note_on_time": 11.788, "note_off_time": 12.034}, {"pitch": 64, "velocity": 74, "note_on_time": 12.134, "note_off_time": 12.544}, {"pitch": 60, "velocity": 84, "note_on_time": 12.49, "note_off_time": 12.892}, {"pitch": 64, "velocity": 77, "note_on_time": 12.884, "note_off_time": 13.258}, {"pitch": 62, "velocity": 68, "note_on_time": 13.247, "note_off_time": 13.873}, {"pitch": 60, "velocity": 85, "note_on_time": 13.863, "note_off_time": 14.056}, {"pitch": 60, "velocity": 85, "note_on_time": 14.251, "note_off_time": 14.41}]</notes><guidance name="Guidance Mode">None</guidance><error name="Error value">1.3440000000000003</error></trial><trial trial_no="4" timestamp="2022_11_21-19_26_57"><notes name="Played Notes">[{"pitch": 62, "velocity": 82, "note_on_time": 0.935, "note_off_time": 1.783}, {"pitch": 62, "velocity": 87, "note_on_time": 2.984, "note_off_time": 3.06}, {"pitch": 60, "velocity": 91, "note_on_time": 4.786, "note_off_time": 4.939}, {"pitch": 60, "velocity": 82, "note_on_time": 5.165, "note_off_time": 5.312}, {"pitch": 60, "velocity": 85, "note_on_time": 5.55, "note_off_time": 5.991}, {"pitch": 62, "velocity": 73, "note_on_time": 6.002, "note_off_time": 6.324}, {"pitch": 64, "velocity": 76, "note_on_time": 6.343, "note_off_time": 6.678}, {"pitch": 60, "velocity": 80, "note_on_time": 6.687, "note_off_time": 7.034}, {"pitch": 64, "velocity": 74, "note_on_time": 7.058, "note_off_time": 7.457}, {"pitch": 62, "velocity": 72, "note_on_time": 7.409, "note_off_time": 7.815}, {"pitch": 60, "velocity": 84, "note_on_time": 7.789, "note_off_time": 8.291}, {"pitch": 64, "velocity": 75, "note_on_time": 9.459, "note_off_time": 9.846}, {"pitch": 62, "velocity": 60, "note_on_time": 9.823, "note_off_time": 10.155}, {"pitch": 64, "velocity": 78, "note_on_time": 10.181, "note_off_time": 10.557}, {"pitch": 60, "velocity": 82, "note_on_time": 10.523, "note_off_time": 10.958}, {"pitch": 64, "velocity": 78, "note_on_time": 11.445, "note_off_time": 11.869}, {"pitch": 62, "velocity": 64, "note_on_time": 11.783, "note_off_time": 12.163}, {"pitch": 60, "velocity": 73, "note_on_time": 12.085, "note_off_time": 12.27}, {"pitch": 60, "velocity": 93, "note_on_time": 12.439, "note_off_time": 12.771}, {"pitch": 60, "velocity": 82, "note_on_time": 13.229, "note_off_time": 13.368}, {"pitch": 60, "velocity": 80, "note_on_time": 13.577, "note_off_time": 13.708}, {"pitch": 60, "velocity": 102, "note_on_time": 13.986, "note_off_time": 14.319}]</notes><guidance name="Guidance Mode">None</guidance><error name="Error value">0.10300000000000016</error></trial><trial trial_no="5" timestamp="2022_11_21-19_27_24"><notes name="Played Notes">[{"pitch": 62, "velocity": 77, "note_on_time": 1.107, "note_off_time": 2.244}, {"pitch": 62, "velocity": 77, "note_on_time": 3.264, "note_off_time": 3.588}, {"pitch": 60, "velocity": 72, "note_on_time": 4.869, "note_off_time": 5.049}, {"pitch": 60, "velocity": 81, "note_on_time": 5.246, "note_off_time": 5.399}, {"pitch": 60, "velocity": 85, "note_on_time": 5.65, "note_off_time": 6.164}, {"pitch": 62, "velocity": 70, "note_on_time": 6.149, "note_off_time": 6.535}, {"pitch": 64, "velocity": 71, "note_on_time": 6.523, "note_off_time": 6.885}, {"pitch": 60, "velocity": 79, "note_on_time": 6.895, "note_off_time": 7.367}, {"pitch": 64, "velocity": 63, "note_on_time": 7.356, "note_off_time": 7.701}, {"pitch": 62, "velocity": 66, "note_on_time": 7.714, "note_off_time": 7.981}, {"pitch": 60, "velocity": 85, "note_on_time": 8.098, "note_off_time": 8.881}, {"pitch": 64, "velocity": 71, "note_on_time": 9.814, "note_off_time": 10.169}, {"pitch": 62, "velocity": 63, "note_on_time": 10.16, "note_off_time": 10.524}, {"pitch": 64, "velocity": 72, "note_on_time": 10.534, "note_off_time": 10.862}, {"pitch": 60, "velocity": 85, "note_on_time": 10.872, "note_off_time": 11.337}, {"pitch": 64, "velocity": 62, "note_on_time": 11.395, "note_off_time": 11.751}, {"pitch": 62, "velocity": 61, "note_on_time": 11.782, "note_off_time": 12.155}, {"pitch": 60, "velocity": 76, "note_on_time": 12.136, "note_off_time": 12.345}, {"pitch": 60, "velocity": 79, "note_on_time": 12.504, "note_off_time": 12.82}, {"pitch": 60, "velocity": 78, "note_on_time": 13.557, "note_off_time": 13.781}, {"pitch": 60, "velocity": 75, "note_on_time": 13.981, "note_off_time": 14.139}]</notes><guidance name="Guidance Mode">None</guidance><error name="Error value">0.1451052631578946</error></trial></trials></MIDI>