<MIDI midiNo="2022_08_17-11_39_10"><target_notes><notes name="Note List">[{"pitch": 42, "velocity": 80, "note_on_time": 0.004, "note_off_time": 0.307}, {"pitch": 42, "velocity": 80, "note_on_time": 0.308, "note_off_time": 0.619}, {"pitch": 42, "velocity": 80, "note_on_time": 0.619, "note_off_time": 0.932}, {"pitch": 42, "velocity": 80, "note_on_time": 0.932, "note_off_time": 1.243}, {"pitch": 62, "velocity": 80, "note_on_time": 1.243, "note_off_time": 1.556}, {"pitch": 42, "velocity": 80, "note_on_time": 1.244, "note_off_time": 1.556}, {"pitch": 42, "velocity": 80, "note_on_time": 1.556, "note_off_time": 1.867}, {"pitch": 42, "velocity": 80, "note_on_time": 1.867, "note_off_time": 2.182}, {"pitch": 42, "velocity": 80, "note_on_time": 2.182, "note_off_time": 2.492}, {"pitch": 67, "velocity": 80, "note_on_time": 2.492, "note_off_time": 2.805}, {"pitch": 42, "velocity": 80, "note_on_time": 2.492, "note_off_time": 2.806}, {"pitch": 67, "velocity": 80, "note_on_time": 2.805, "note_off_time": 3.116}, {"pitch": 42, "velocity": 80, "note_on_time": 2.806, "note_off_time": 3.116}, {"pitch": 62, "velocity": 80, "note_on_time": 3.116, "note_off_time": 3.426}, {"pitch": 42, "velocity": 80, "note_on_time": 3.116, "note_off_time": 3.427}, {"pitch": 42, "velocity": 80, "note_on_time": 3.427, "note_off_time": 3.74}, {"pitch": 67, "velocity": 80, "note_on_time": 3.74, "note_off_time": 4.052}, {"pitch": 42, "velocity": 80, "note_on_time": 3.741, "note_off_time": 4.052}, {"pitch": 65, "velocity": 80, "note_on_time": 4.052, "note_off_time": 4.362}, {"pitch": 42, "velocity": 80, "note_on_time": 4.052, "note_off_time": 4.363}, {"pitch": 60, "velocity": 80, "note_on_time": 4.362, "note_off_time": 4.674}, {"pitch": 42, "velocity": 80, "note_on_time": 4.363, "note_off_time": 4.674}, {"pitch": 42, "velocity": 80, "note_on_time": 4.674, "note_off_time": 4.987}, {"pitch": 62, "velocity": 80, "note_on_time": 4.987, "note_off_time": 5.299}, {"pitch": 42, "velocity": 80, "note_on_time": 4.987, "note_off_time": 5.299}, {"pitch": 42, "velocity": 80, "note_on_time": 5.299, "note_off_time": 5.612}, {"pitch": 60, "velocity": 80, "note_on_time": 5.612, "note_off_time": 5.925}, {"pitch": 42, "velocity": 80, "note_on_time": 5.613, "note_off_time": 5.925}, {"pitch": 42, "velocity": 80, "note_on_time": 5.926, "note_off_time": 6.237}, {"pitch": 65, "velocity": 80, "note_on_time": 6.237, "note_off_time": 6.552}, {"pitch": 42, "velocity": 80, "note_on_time": 6.238, "note_off_time": 6.552}, {"pitch": 67, "velocity": 80, "note_on_time": 6.552, "note_off_time": 6.864}, {"pitch": 42, "velocity": 80, "note_on_time": 6.552, "note_off_time": 6.864}, {"pitch": 62, "velocity": 80, "note_on_time": 6.864, "note_off_time": 7.176}, {"pitch": 42, "velocity": 80, "note_on_time": 6.864, "note_off_time": 7.176}, {"pitch": 64, "velocity": 80, "note_on_time": 7.176, "note_off_time": 7.489}, {"pitch": 42, "velocity": 80, "note_on_time": 7.177, "note_off_time": 7.489}, {"pitch": 60, "velocity": 80, "note_on_time": 7.489, "note_off_time": 7.803}, {"pitch": 42, "velocity": 80, "note_on_time": 7.489, "note_off_time": 7.803}, {"pitch": 67, "velocity": 80, "note_on_time": 7.803, "note_off_time": 8.112}, {"pitch": 42, "velocity": 80, "note_on_time": 7.803, "note_off_time": 8.112}, {"pitch": 60, "velocity": 80, "note_on_time": 8.112, "note_off_time": 8.422}, {"pitch": 42, "velocity": 80, "note_on_time": 8.112, "note_off_time": 8.422}, {"pitch": 60, "velocity": 80, "note_on_time": 8.422, "note_off_time": 8.734}, {"pitch": 42, "velocity": 80, "note_on_time": 8.423, "note_off_time": 8.734}, {"pitch": 67, "velocity": 80, "note_on_time": 8.734, "note_off_time": 9.044}, {"pitch": 42, "velocity": 80, "note_on_time": 8.735, "note_off_time": 9.044}, {"pitch": 64, "velocity": 80, "note_on_time": 9.044, "note_off_time": 9.356}, {"pitch": 42, "velocity": 80, "note_on_time": 9.045, "note_off_time": 9.356}, {"pitch": 65, "velocity": 80, "note_on_time": 9.356, "note_off_time": 9.668}, {"pitch": 42, "velocity": 80, "note_on_time": 9.356, "note_off_time": 9.668}, {"pitch": 60, "velocity": 80, "note_on_time": 9.668, "note_off_time": 9.98}, {"pitch": 42, "velocity": 80, "note_on_time": 9.669, "note_off_time": 9.98}, {"pitch": 42, "velocity": 80, "note_on_time": 9.981, "note_off_time": 10.291}, {"pitch": 60, "velocity": 80, "note_on_time": 10.291, "note_off_time": 10.602}, {"pitch": 42, "velocity": 80, "note_on_time": 10.292, "note_off_time": 10.602}, {"pitch": 60, "velocity": 80, "note_on_time": 10.602, "note_off_time": 10.915}, {"pitch": 42, "velocity": 80, "note_on_time": 10.603, "note_off_time": 10.915}, {"pitch": 60, "velocity": 80, "note_on_time": 10.915, "note_off_time": 11.227}, {"pitch": 42, "velocity": 80, "note_on_time": 10.916, "note_off_time": 11.227}]</notes><options name="Option List">((4, 4), [0.25], 3, 8, &lt;NoteRangePerHand.C_TO_G: 6&gt;, &lt;NoteRangePerHand.ONE_NOTE: 2&gt;, False, True, True, '200')</options></target_notes><trials><trial trial_no="1" timestamp="2022_08_17-11_38_57"><notes name="Played Notes">[{"pitch": 60, "velocity": 67, "note_on_time": 4.128, "note_off_time": 4.206}]</notes><guidance name="Guidance Mode">None</guidance><error name="Error value">1.423809523809524</error></trial></trials></MIDI>