<MIDI midiNo="2022_09_22-13_01_38"><target_notes><notes name="Note List">[{"pitch": 42, "velocity": 80, "note_on_time": 0.004, "note_off_time": 0.613}, {"pitch": 42, "velocity": 80, "note_on_time": 0.613, "note_off_time": 1.22}, {"pitch": 42, "velocity": 80, "note_on_time": 1.22, "note_off_time": 1.827}, {"pitch": 42, "velocity": 80, "note_on_time": 1.827, "note_off_time": 2.436}, {"pitch": 60, "velocity": 80, "note_on_time": 2.436, "note_off_time": 3.045}, {"pitch": 42, "velocity": 80, "note_on_time": 2.436, "note_off_time": 3.046}, {"pitch": 42, "velocity": 80, "note_on_time": 3.046, "note_off_time": 3.658}, {"pitch": 62, "velocity": 80, "note_on_time": 3.045, "note_off_time": 4.27}, {"pitch": 42, "velocity": 80, "note_on_time": 3.659, "note_off_time": 4.27}, {"pitch": 42, "velocity": 80, "note_on_time": 4.271, "note_off_time": 4.879}, {"pitch": 60, "velocity": 80, "note_on_time": 4.879, "note_off_time": 5.488}, {"pitch": 42, "velocity": 80, "note_on_time": 4.879, "note_off_time": 5.488}, {"pitch": 60, "velocity": 80, "note_on_time": 5.488, "note_off_time": 6.092}, {"pitch": 42, "velocity": 80, "note_on_time": 5.488, "note_off_time": 6.093}, {"pitch": 62, "velocity": 80, "note_on_time": 6.092, "note_off_time": 6.701}, {"pitch": 42, "velocity": 80, "note_on_time": 6.093, "note_off_time": 6.702}, {"pitch": 62, "velocity": 80, "note_on_time": 6.701, "note_off_time": 7.313}, {"pitch": 42, "velocity": 80, "note_on_time": 6.702, "note_off_time": 7.313}, {"pitch": 42, "velocity": 80, "note_on_time": 7.313, "note_off_time": 7.92}, {"pitch": 62, "velocity": 80, "note_on_time": 7.313, "note_off_time": 8.528}, {"pitch": 42, "velocity": 80, "note_on_time": 7.92, "note_off_time": 8.529}, {"pitch": 60, "velocity": 80, "note_on_time": 8.528, "note_off_time": 9.137}, {"pitch": 42, "velocity": 80, "note_on_time": 8.529, "note_off_time": 9.137}, {"pitch": 42, "velocity": 80, "note_on_time": 9.137, "note_off_time": 9.743}, {"pitch": 60, "velocity": 80, "note_on_time": 9.742, "note_off_time": 10.353}, {"pitch": 42, "velocity": 80, "note_on_time": 9.743, "note_off_time": 10.353}, {"pitch": 60, "velocity": 80, "note_on_time": 10.353, "note_off_time": 10.961}, {"pitch": 42, "velocity": 80, "note_on_time": 10.354, "note_off_time": 10.962}, {"pitch": 42, "velocity": 80, "note_on_time": 10.962, "note_off_time": 11.565}, {"pitch": 62, "velocity": 80, "note_on_time": 10.961, "note_off_time": 12.172}, {"pitch": 42, "velocity": 80, "note_on_time": 11.565, "note_off_time": 12.172}, {"pitch": 62, "velocity": 80, "note_on_time": 12.172, "note_off_time": 12.778}, {"pitch": 42, "velocity": 80, "note_on_time": 12.172, "note_off_time": 12.778}, {"pitch": 62, "velocity": 80, "note_on_time": 12.778, "note_off_time": 13.388}, {"pitch": 42, "velocity": 80, "note_on_time": 12.778, "note_off_time": 13.388}, {"pitch": 60, "velocity": 80, "note_on_time": 13.388, "note_off_time": 13.997}, {"pitch": 42, "velocity": 80, "note_on_time": 13.388, "note_off_time": 13.997}, {"pitch": 60, "velocity": 80, "note_on_time": 13.997, "note_off_time": 14.604}, {"pitch": 42, "velocity": 80, "note_on_time": 13.998, "note_off_time": 14.605}, {"pitch": 62, "velocity": 80, "note_on_time": 14.604, "note_off_time": 15.211}, {"pitch": 42, "velocity": 80, "note_on_time": 14.605, "note_off_time": 15.212}, {"pitch": 62, "velocity": 80, "note_on_time": 15.211, "note_off_time": 15.819}, {"pitch": 42, "velocity": 80, "note_on_time": 15.212, "note_off_time": 15.819}, {"pitch": 60, "velocity": 80, "note_on_time": 15.819, "note_off_time": 16.427}, {"pitch": 42, "velocity": 80, "note_on_time": 15.82, "note_off_time": 16.427}, {"pitch": 62, "velocity": 80, "note_on_time": 16.427, "note_off_time": 17.033}, {"pitch": 42, "velocity": 80, "note_on_time": 16.428, "note_off_time": 17.033}, {"pitch": 42, "velocity": 80, "note_on_time": 17.033, "note_off_time": 17.645}, {"pitch": 60, "velocity": 80, "note_on_time": 17.033, "note_off_time": 18.251}, {"pitch": 42, "velocity": 80, "note_on_time": 17.645, "note_off_time": 18.252}, {"pitch": 42, "velocity": 80, "note_on_time": 18.252, "note_off_time": 18.86}, {"pitch": 62, "velocity": 80, "note_on_time": 18.251, "note_off_time": 19.469}, {"pitch": 42, "velocity": 80, "note_on_time": 18.86, "note_off_time": 19.469}, {"pitch": 42, "velocity": 80, "note_on_time": 19.469, "note_off_time": 20.079}, {"pitch": 62, "velocity": 80, "note_on_time": 20.079, "note_off_time": 20.689}, {"pitch": 42, "velocity": 80, "note_on_time": 20.079, "note_off_time": 20.689}, {"pitch": 62, "velocity": 80, "note_on_time": 20.689, "note_off_time": 21.299}, {"pitch": 42, "velocity": 80, "note_on_time": 20.689, "note_off_time": 21.3}, {"pitch": 62, "velocity": 80, "note_on_time": 21.299, "note_off_time": 21.907}, {"pitch": 42, "velocity": 80, "note_on_time": 21.3, "note_off_time": 21.907}]</notes><options name="Option List">((4, 4), [0.5, 0.25], 3, 8, &lt;NoteRangePerHand.TWO_NOTES: 3&gt;, &lt;NoteRangePerHand.ONE_NOTE: 2&gt;, False, True, True, 100)</options></target_notes><trials><trial trial_no="1" timestamp="2022_09_22-13_01_15"><notes name="Played Notes">[{"pitch": 60, "velocity": 52, "note_on_time": 2.487, "note_off_time": 2.983}, {"pitch": 62, "velocity": 50, "note_on_time": 3.077, "note_off_time": 4.184}, {"pitch": 60, "velocity": 30, "note_on_time": 4.858, "note_off_time": 5.229}, {"pitch": 60, "velocity": 46, "note_on_time": 5.444, "note_off_time": 5.891}, {"pitch": 62, "velocity": 46, "note_on_time": 6.057, "note_off_time": 6.446}, {"pitch": 62, "velocity": 30, "note_on_time": 6.662, "note_off_time": 7.038}, {"pitch": 62, "velocity": 33, "note_on_time": 7.315, "note_off_time": 7.823}, {"pitch": 60, "velocity": 41, "note_on_time": 7.916, "note_off_time": 8.706}, {"pitch": 60, "velocity": 37, "note_on_time": 9.127, "note_off_time": 9.544}, {"pitch": 60, "velocity": 44, "note_on_time": 9.75, "note_off_time": 10.183}, {"pitch": 62, "velocity": 33, "note_on_time": 10.347, "note_off_time": 10.625}, {"pitch": 60, "velocity": 21, "note_on_time": 10.667, "note_off_time": 10.936}, {"pitch": 62, "velocity": 28, "note_on_time": 10.966, "note_off_time": 11.216}, {"pitch": 60, "velocity": 20, "note_on_time": 11.255, "note_off_time": 11.577}, {"pitch": 62, "velocity": 27, "note_on_time": 11.562, "note_off_time": 11.824}, {"pitch": 64, "velocity": 37, "note_on_time": 11.842, "note_off_time": 12.127}, {"pitch": 62, "velocity": 31, "note_on_time": 12.158, "note_off_time": 12.707}, {"pitch": 60, "velocity": 39, "note_on_time": 12.755, "note_off_time": 13.2}]</notes><guidance name="Guidance Mode">None</guidance><error name="Error value">0.8670476190476193</error></trial><trial trial_no="2" timestamp="2022_09_22-13_01_51"><notes name="Played Notes">[{"pitch": 60, "velocity": 55, "note_on_time": 2.357, "note_off_time": 2.861}, {"pitch": 62, "velocity": 51, "note_on_time": 2.888, "note_off_time": 3.873}, {"pitch": 60, "velocity": 45, "note_on_time": 3.921, "note_off_time": 4.333}, {"pitch": 60, "velocity": 47, "note_on_time": 4.465, "note_off_time": 5.001}, {"pitch": 62, "velocity": 46, "note_on_time": 4.986, "note_off_time": 5.347}, {"pitch": 62, "velocity": 31, "note_on_time": 5.532, "note_off_time": 5.826}, {"pitch": 62, "velocity": 40, "note_on_time": 6.06, "note_off_time": 7.076}, {"pitch": 60, "velocity": 44, "note_on_time": 7.081, "note_off_time": 7.904}, {"pitch": 60, "velocity": 41, "note_on_time": 8.101, "note_off_time": 8.456}, {"pitch": 60, "velocity": 30, "note_on_time": 8.632, "note_off_time": 9.135}, {"pitch": 62, "velocity": 33, "note_on_time": 9.171, "note_off_time": 9.37}, {"pitch": 60, "velocity": 24, "note_on_time": 9.42, "note_off_time": 9.629}, {"pitch": 62, "velocity": 32, "note_on_time": 9.662, "note_off_time": 9.893}, {"pitch": 64, "velocity": 41, "note_on_time": 9.909, "note_off_time": 10.084}, {"pitch": 62, "velocity": 52, "note_on_time": 10.12, "note_off_time": 10.209}, {"pitch": 64, "velocity": 39, "note_on_time": 10.203, "note_off_time": 10.348}, {"pitch": 62, "velocity": 26, "note_on_time": 10.314, "note_off_time": 10.681}, {"pitch": 60, "velocity": 44, "note_on_time": 10.704, "note_off_time": 11.318}, {"pitch": 64, "velocity": 29, "note_on_time": 11.271, "note_off_time": 11.412}, {"pitch": 67, "velocity": 51, "note_on_time": 11.268, "note_off_time": 11.413}]</notes><guidance name="Guidance Mode">None</guidance><error name="Error value">1.036523809523811</error></trial></trials></MIDI>