<MIDI midiNo="2022_12_01-12_39_27"><target_notes><notes name="Note List">[{"pitch": 42, "velocity": 80, "note_on_time": 0.003, "note_off_time": 0.379}, {"pitch": 42, "velocity": 80, "note_on_time": 0.379, "note_off_time": 0.754}, {"pitch": 42, "velocity": 80, "note_on_time": 0.754, "note_off_time": 1.127}, {"pitch": 42, "velocity": 80, "note_on_time": 1.128, "note_off_time": 1.5}, {"pitch": 42, "velocity": 80, "note_on_time": 1.5, "note_off_time": 1.875}, {"pitch": 62, "velocity": 80, "note_on_time": 1.5, "note_off_time": 2.251}, {"pitch": 42, "velocity": 80, "note_on_time": 1.875, "note_off_time": 2.251}, {"pitch": 42, "velocity": 80, "note_on_time": 2.251, "note_off_time": 2.624}, {"pitch": 42, "velocity": 80, "note_on_time": 2.625, "note_off_time": 2.997}, {"pitch": 64, "velocity": 80, "note_on_time": 2.997, "note_off_time": 3.371}, {"pitch": 42, "velocity": 80, "note_on_time": 2.997, "note_off_time": 3.371}, {"pitch": 60, "velocity": 80, "note_on_time": 3.371, "note_off_time": 3.745}, {"pitch": 42, "velocity": 80, "note_on_time": 3.371, "note_off_time": 3.745}, {"pitch": 42, "velocity": 80, "note_on_time": 3.745, "note_off_time": 4.119}, {"pitch": 64, "velocity": 80, "note_on_time": 4.118, "note_off_time": 4.492}, {"pitch": 42, "velocity": 80, "note_on_time": 4.119, "note_off_time": 4.492}, {"pitch": 42, "velocity": 80, "note_on_time": 4.493, "note_off_time": 4.865}, {"pitch": 64, "velocity": 80, "note_on_time": 4.492, "note_off_time": 5.237}, {"pitch": 42, "velocity": 80, "note_on_time": 4.865, "note_off_time": 5.237}, {"pitch": 42, "velocity": 80, "note_on_time": 5.237, "note_off_time": 5.611}, {"pitch": 42, "velocity": 80, "note_on_time": 5.611, "note_off_time": 5.983}, {"pitch": 42, "velocity": 80, "note_on_time": 5.984, "note_off_time": 6.357}, {"pitch": 60, "velocity": 80, "note_on_time": 5.983, "note_off_time": 6.729}, {"pitch": 42, "velocity": 80, "note_on_time": 6.357, "note_off_time": 6.729}, {"pitch": 42, "velocity": 80, "note_on_time": 6.729, "note_off_time": 7.101}, {"pitch": 42, "velocity": 80, "note_on_time": 7.101, "note_off_time": 7.472}, {"pitch": 62, "velocity": 80, "note_on_time": 7.472, "note_off_time": 7.845}, {"pitch": 42, "velocity": 80, "note_on_time": 7.472, "note_off_time": 7.845}, {"pitch": 60, "velocity": 80, "note_on_time": 7.845, "note_off_time": 8.219}, {"pitch": 42, "velocity": 80, "note_on_time": 7.846, "note_off_time": 8.219}, {"pitch": 60, "velocity": 80, "note_on_time": 8.219, "note_off_time": 8.595}, {"pitch": 42, "velocity": 80, "note_on_time": 8.219, "note_off_time": 8.596}, {"pitch": 62, "velocity": 80, "note_on_time": 8.595, "note_off_time": 8.968}, {"pitch": 42, "velocity": 80, "note_on_time": 8.596, "note_off_time": 8.968}, {"pitch": 64, "velocity": 80, "note_on_time": 8.968, "note_off_time": 9.341}, {"pitch": 42, "velocity": 80, "note_on_time": 8.968, "note_off_time": 9.341}, {"pitch": 64, "velocity": 80, "note_on_time": 9.341, "note_off_time": 9.718}, {"pitch": 42, "velocity": 80, "note_on_time": 9.341, "note_off_time": 9.718}, {"pitch": 64, "velocity": 80, "note_on_time": 9.718, "note_off_time": 10.092}, {"pitch": 42, "velocity": 80, "note_on_time": 9.718, "note_off_time": 10.092}, {"pitch": 64, "velocity": 80, "note_on_time": 10.092, "note_off_time": 10.465}, {"pitch": 42, "velocity": 80, "note_on_time": 10.093, "note_off_time": 10.465}, {"pitch": 42, "velocity": 80, "note_on_time": 10.466, "note_off_time": 10.84}, {"pitch": 62, "velocity": 80, "note_on_time": 10.465, "note_off_time": 11.21}, {"pitch": 42, "velocity": 80, "note_on_time": 10.84, "note_off_time": 11.211}, {"pitch": 42, "velocity": 80, "note_on_time": 11.211, "note_off_time": 11.584}, {"pitch": 42, "velocity": 80, "note_on_time": 11.584, "note_off_time": 11.959}, {"pitch": 42, "velocity": 80, "note_on_time": 11.96, "note_off_time": 12.336}, {"pitch": 62, "velocity": 80, "note_on_time": 12.336, "note_off_time": 12.707}, {"pitch": 42, "velocity": 80, "note_on_time": 12.336, "note_off_time": 12.707}, {"pitch": 62, "velocity": 80, "note_on_time": 12.707, "note_off_time": 13.08}, {"pitch": 42, "velocity": 80, "note_on_time": 12.708, "note_off_time": 13.08}, {"pitch": 62, "velocity": 80, "note_on_time": 13.08, "note_off_time": 13.452}, {"pitch": 42, "velocity": 80, "note_on_time": 13.081, "note_off_time": 13.453}]</notes><options name="Option List">((4, 4), [0.5, 0.25], 3, 8, &lt;NoteRangePerHand.THREE_NOTES: 4&gt;, &lt;NoteRangePerHand.ONE_NOTE: 2&gt;, False, True, False, '166')</options></target_notes><trials><trial trial_no="1" timestamp="2022_12_01-12_39_12"><notes name="Played Notes">[{"pitch": 62, "velocity": 68, "note_on_time": 4.267, "note_off_time": 5.397}, {"pitch": 64, "velocity": 59, "note_on_time": 5.44, "note_off_time": 6.619}, {"pitch": 60, "velocity": 62, "note_on_time": 6.598, "note_off_time": 7.442}, {"pitch": 64, "velocity": 72, "note_on_time": 7.61, "note_off_time": 8.582}, {"pitch": 60, "velocity": 82, "note_on_time": 8.7, "note_off_time": 9.971}, {"pitch": 62, "velocity": 75, "note_on_time": 11.472, "note_off_time": 12.142}, {"pitch": 60, "velocity": 78, "note_on_time": 12.114, "note_off_time": 12.425}, {"pitch": 60, "velocity": 77, "note_on_time": 12.634, "note_off_time": 13.199}]</notes><guidance name="Guidance Mode">None</guidance><error name="Error value">1.1859559999999998</error></trial><trial trial_no="2" timestamp="2022_12_01-12_39_34"><notes name="Played Notes">[{"pitch": 62, "velocity": 60, "note_on_time": 1.447, "note_off_time": 2.795}, {"pitch": 64, "velocity": 76, "note_on_time": 3.01, "note_off_time": 3.597}, {"pitch": 60, "velocity": 75, "note_on_time": 3.747, "note_off_time": 4.338}, {"pitch": 64, "velocity": 69, "note_on_time": 4.451, "note_off_time": 5.17}, {"pitch": 64, "velocity": 80, "note_on_time": 5.75, "note_off_time": 6.683}, {"pitch": 60, "velocity": 85, "note_on_time": 6.849, "note_off_time": 7.81}, {"pitch": 62, "velocity": 72, "note_on_time": 8.111, "note_off_time": 8.607}, {"pitch": 60, "velocity": 76, "note_on_time": 8.71, "note_off_time": 8.985}, {"pitch": 60, "velocity": 82, "note_on_time": 9.239, "note_off_time": 9.599}, {"pitch": 62, "velocity": 76, "note_on_time": 9.76, "note_off_time": 10.127}, {"pitch": 64, "velocity": 76, "note_on_time": 10.271, "note_off_time": 10.601}, {"pitch": 64, "velocity": 65, "note_on_time": 10.74, "note_off_time": 11.101}, {"pitch": 64, "velocity": 76, "note_on_time": 11.285, "note_off_time": 12.12}]</notes><guidance name="Guidance Mode">None</guidance><error name="Error value">0.9796593333333332</error></trial><trial trial_no="3" timestamp="2022_12_01-12_40_08"><notes name="Played Notes">[{"pitch": 62, "velocity": 83, "note_on_time": 1.46, "note_off_time": 2.368}, {"pitch": 64, "velocity": 75, "note_on_time": 2.782, "note_off_time": 3.277}, {"pitch": 60, "velocity": 79, "note_on_time": 3.472, "note_off_time": 3.917}, {"pitch": 64, "velocity": 71, "note_on_time": 4.047, "note_off_time": 5.023}, {"pitch": 64, "velocity": 70, "note_on_time": 5.304, "note_off_time": 6.423}, {"pitch": 60, "velocity": 76, "note_on_time": 6.639, "note_off_time": 7.925}, {"pitch": 62, "velocity": 79, "note_on_time": 8.06, "note_off_time": 8.508}, {"pitch": 60, "velocity": 80, "note_on_time": 8.597, "note_off_time": 8.922}, {"pitch": 60, "velocity": 77, "note_on_time": 9.103, "note_off_time": 9.446}, {"pitch": 62, "velocity": 69, "note_on_time": 9.626, "note_off_time": 10.046}, {"pitch": 64, "velocity": 73, "note_on_time": 10.18, "note_off_time": 10.574}, {"pitch": 64, "velocity": 57, "note_on_time": 10.68, "note_off_time": 11.072}, {"pitch": 64, "velocity": 74, "note_on_time": 11.21, "note_off_time": 11.864}, {"pitch": 62, "velocity": 75, "note_on_time": 12.047, "note_off_time": 13.211}]</notes><guidance name="Guidance Mode">None</guidance><error name="Error value">0.6951189999999998</error></trial><trial trial_no="4" timestamp="2022_12_01-12_40_42"><notes name="Played Notes">[{"pitch": 62, "velocity": 63, "note_on_time": 1.198, "note_off_time": 2.234}, {"pitch": 64, "velocity": 70, "note_on_time": 2.382, "note_off_time": 2.826}, {"pitch": 60, "velocity": 82, "note_on_time": 2.955, "note_off_time": 3.413}, {"pitch": 64, "velocity": 81, "note_on_time": 3.527, "note_off_time": 4.129}, {"pitch": 64, "velocity": 75, "note_on_time": 4.4, "note_off_time": 5.609}, {"pitch": 60, "velocity": 68, "note_on_time": 5.887, "note_off_time": 6.841}, {"pitch": 62, "velocity": 73, "note_on_time": 7.161, "note_off_time": 7.608}, {"pitch": 60, "velocity": 72, "note_on_time": 7.714, "note_off_time": 8.062}, {"pitch": 60, "velocity": 79, "note_on_time": 8.218, "note_off_time": 8.607}, {"pitch": 62, "velocity": 73, "note_on_time": 8.753, "note_off_time": 9.116}, {"pitch": 64, "velocity": 79, "note_on_time": 9.228, "note_off_time": 9.507}, {"pitch": 64, "velocity": 77, "note_on_time": 9.711, "note_off_time": 9.999}, {"pitch": 64, "velocity": 79, "note_on_time": 10.183, "note_off_time": 10.514}, {"pitch": 62, "velocity": 75, "note_on_time": 10.652, "note_off_time": 11.488}, {"pitch": 62, "velocity": 74, "note_on_time": 11.818, "note_off_time": 12.167}, {"pitch": 62, "velocity": 77, "note_on_time": 12.352, "note_off_time": 12.662}]</notes><guidance name="Guidance Mode">None</guidance><error name="Error value">0.33943700000000004</error></trial></trials></MIDI>