<MIDI midiNo="2022_09_08-12_56_47"><target_notes><notes name="Note List">[{"pitch": 42, "velocity": 80, "note_on_time": 0.003, "note_off_time": 0.419}, {"pitch": 42, "velocity": 80, "note_on_time": 0.419, "note_off_time": 0.824}, {"pitch": 42, "velocity": 80, "note_on_time": 0.824, "note_off_time": 1.227}, {"pitch": 42, "velocity": 80, "note_on_time": 1.227, "note_off_time": 1.633}, {"pitch": 60, "velocity": 80, "note_on_time": 1.633, "note_off_time": 2.035}, {"pitch": 42, "velocity": 80, "note_on_time": 1.633, "note_off_time": 2.036}, {"pitch": 60, "velocity": 80, "note_on_time": 2.035, "note_off_time": 2.436}, {"pitch": 42, "velocity": 80, "note_on_time": 2.036, "note_off_time": 2.436}, {"pitch": 42, "velocity": 80, "note_on_time": 2.436, "note_off_time": 2.841}, {"pitch": 62, "velocity": 80, "note_on_time": 2.436, "note_off_time": 3.25}, {"pitch": 42, "velocity": 80, "note_on_time": 2.841, "note_off_time": 3.251}, {"pitch": 64, "velocity": 80, "note_on_time": 3.25, "note_off_time": 3.653}, {"pitch": 42, "velocity": 80, "note_on_time": 3.251, "note_off_time": 3.653}, {"pitch": 42, "velocity": 80, "note_on_time": 3.653, "note_off_time": 4.06}, {"pitch": 62, "velocity": 80, "note_on_time": 3.653, "note_off_time": 4.464}, {"pitch": 42, "velocity": 80, "note_on_time": 4.061, "note_off_time": 4.464}, {"pitch": 42, "velocity": 80, "note_on_time": 4.464, "note_off_time": 4.868}, {"pitch": 60, "velocity": 80, "note_on_time": 4.868, "note_off_time": 5.273}, {"pitch": 42, "velocity": 80, "note_on_time": 4.868, "note_off_time": 5.273}, {"pitch": 64, "velocity": 80, "note_on_time": 5.273, "note_off_time": 5.676}, {"pitch": 42, "velocity": 80, "note_on_time": 5.274, "note_off_time": 5.677}, {"pitch": 64, "velocity": 80, "note_on_time": 5.676, "note_off_time": 6.08}, {"pitch": 42, "velocity": 80, "note_on_time": 5.677, "note_off_time": 6.08}, {"pitch": 64, "velocity": 80, "note_on_time": 6.08, "note_off_time": 6.483}, {"pitch": 42, "velocity": 80, "note_on_time": 6.08, "note_off_time": 6.483}, {"pitch": 42, "velocity": 80, "note_on_time": 6.483, "note_off_time": 6.889}, {"pitch": 62, "velocity": 80, "note_on_time": 6.483, "note_off_time": 7.292}, {"pitch": 42, "velocity": 80, "note_on_time": 6.889, "note_off_time": 7.292}, {"pitch": 62, "velocity": 80, "note_on_time": 7.292, "note_off_time": 7.696}, {"pitch": 42, "velocity": 80, "note_on_time": 7.293, "note_off_time": 7.696}, {"pitch": 42, "velocity": 80, "note_on_time": 7.697, "note_off_time": 8.1}, {"pitch": 60, "velocity": 80, "note_on_time": 8.099, "note_off_time": 8.504}, {"pitch": 42, "velocity": 80, "note_on_time": 8.1, "note_off_time": 8.504}, {"pitch": 42, "velocity": 80, "note_on_time": 8.504, "note_off_time": 8.909}, {"pitch": 42, "velocity": 80, "note_on_time": 8.909, "note_off_time": 9.316}, {"pitch": 42, "velocity": 80, "note_on_time": 9.317, "note_off_time": 9.72}, {"pitch": 62, "velocity": 80, "note_on_time": 9.719, "note_off_time": 10.123}, {"pitch": 42, "velocity": 80, "note_on_time": 9.72, "note_off_time": 10.124}, {"pitch": 60, "velocity": 80, "note_on_time": 10.123, "note_off_time": 10.529}, {"pitch": 42, "velocity": 80, "note_on_time": 10.124, "note_off_time": 10.529}, {"pitch": 60, "velocity": 80, "note_on_time": 10.529, "note_off_time": 10.934}, {"pitch": 42, "velocity": 80, "note_on_time": 10.529, "note_off_time": 10.934}, {"pitch": 60, "velocity": 80, "note_on_time": 10.934, "note_off_time": 11.339}, {"pitch": 42, "velocity": 80, "note_on_time": 10.934, "note_off_time": 11.339}, {"pitch": 60, "velocity": 80, "note_on_time": 11.339, "note_off_time": 11.743}, {"pitch": 42, "velocity": 80, "note_on_time": 11.339, "note_off_time": 11.743}, {"pitch": 64, "velocity": 80, "note_on_time": 11.743, "note_off_time": 12.146}, {"pitch": 42, "velocity": 80, "note_on_time": 11.743, "note_off_time": 12.146}, {"pitch": 62, "velocity": 80, "note_on_time": 12.146, "note_off_time": 12.552}, {"pitch": 42, "velocity": 80, "note_on_time": 12.146, "note_off_time": 12.552}, {"pitch": 62, "velocity": 80, "note_on_time": 12.552, "note_off_time": 12.957}, {"pitch": 42, "velocity": 80, "note_on_time": 12.552, "note_off_time": 12.957}, {"pitch": 42, "velocity": 80, "note_on_time": 12.957, "note_off_time": 13.364}, {"pitch": 62, "velocity": 80, "note_on_time": 13.364, "note_off_time": 13.768}, {"pitch": 42, "velocity": 80, "note_on_time": 13.364, "note_off_time": 13.768}, {"pitch": 62, "velocity": 80, "note_on_time": 13.768, "note_off_time": 14.17}, {"pitch": 42, "velocity": 80, "note_on_time": 13.768, "note_off_time": 14.171}, {"pitch": 62, "velocity": 80, "note_on_time": 14.17, "note_off_time": 14.578}, {"pitch": 42, "velocity": 80, "note_on_time": 14.171, "note_off_time": 14.579}]</notes><options name="Option List">((4, 4), [0.5, 0.25], 3, 8, &lt;NoteRangePerHand.THREE_NOTES: 4&gt;, &lt;NoteRangePerHand.ONE_NOTE: 2&gt;, False, True, True, 150)</options></target_notes><trials><trial trial_no="1" timestamp="2022_09_08-12_56_32"><notes name="Played Notes">[{"pitch": 60, "velocity": 92, "note_on_time": 1.589, "note_off_time": 1.735}, {"pitch": 60, "velocity": 85, "note_on_time": 2.007, "note_off_time": 2.153}, {"pitch": 62, "velocity": 98, "note_on_time": 2.418, "note_off_time": 3.115}, {"pitch": 64, "velocity": 95, "note_on_time": 3.388, "note_off_time": 3.521}, {"pitch": 62, "velocity": 86, "note_on_time": 3.808, "note_off_time": 4.747}, {"pitch": 60, "velocity": 92, "note_on_time": 5.463, "note_off_time": 5.629}, {"pitch": 64, "velocity": 93, "note_on_time": 5.837, "note_off_time": 5.97}, {"pitch": 64, "velocity": 93, "note_on_time": 6.219, "note_off_time": 6.341}, {"pitch": 64, "velocity": 93, "note_on_time": 6.628, "note_off_time": 6.758}, {"pitch": 62, "velocity": 99, "note_on_time": 7.036, "note_off_time": 7.777}, {"pitch": 62, "velocity": 90, "note_on_time": 8.055, "note_off_time": 8.231}, {"pitch": 60, "velocity": 91, "note_on_time": 8.95, "note_off_time": 9.159}, {"pitch": 62, "velocity": 98, "note_on_time": 10.518, "note_off_time": 10.698}, {"pitch": 60, "velocity": 99, "note_on_time": 10.914, "note_off_time": 11.098}, {"pitch": 60, "velocity": 90, "note_on_time": 11.327, "note_off_time": 11.48}, {"pitch": 60, "velocity": 73, "note_on_time": 11.751, "note_off_time": 11.909}, {"pitch": 60, "velocity": 82, "note_on_time": 12.173, "note_off_time": 12.342}, {"pitch": 60, "velocity": 80, "note_on_time": 12.615, "note_off_time": 12.746}, {"pitch": 64, "velocity": 86, "note_on_time": 13.017, "note_off_time": 13.157}, {"pitch": 62, "velocity": 92, "note_on_time": 13.407, "note_off_time": 13.543}, {"pitch": 62, "velocity": 87, "note_on_time": 13.826, "note_off_time": 13.997}]</notes><guidance name="Guidance Mode">None</guidance><error name="Error value">0.29989999999999983</error></trial><trial trial_no="2" timestamp="2022_09_08-12_57_05"><notes name="Played Notes">[{"pitch": 60, "velocity": 92, "note_on_time": 1.767, "note_off_time": 1.923}, {"pitch": 60, "velocity": 88, "note_on_time": 2.172, "note_off_time": 2.324}, {"pitch": 62, "velocity": 97, "note_on_time": 2.549, "note_off_time": 3.511}, {"pitch": 64, "velocity": 88, "note_on_time": 3.807, "note_off_time": 3.961}, {"pitch": 62, "velocity": 98, "note_on_time": 4.229, "note_off_time": 5.119}, {"pitch": 60, "velocity": 101, "note_on_time": 6.48, "note_off_time": 6.644}, {"pitch": 64, "velocity": 94, "note_on_time": 6.888, "note_off_time": 7.01}, {"pitch": 64, "velocity": 100, "note_on_time": 7.278, "note_off_time": 7.386}, {"pitch": 64, "velocity": 92, "note_on_time": 7.682, "note_off_time": 7.82}, {"pitch": 62, "velocity": 94, "note_on_time": 8.101, "note_off_time": 8.859}, {"pitch": 62, "velocity": 95, "note_on_time": 9.144, "note_off_time": 9.331}, {"pitch": 60, "velocity": 99, "note_on_time": 10.228, "note_off_time": 10.447}, {"pitch": 62, "velocity": 78, "note_on_time": 11.454, "note_off_time": 11.626}, {"pitch": 60, "velocity": 89, "note_on_time": 11.911, "note_off_time": 12.087}, {"pitch": 60, "velocity": 84, "note_on_time": 12.33, "note_off_time": 12.471}, {"pitch": 60, "velocity": 84, "note_on_time": 12.721, "note_off_time": 12.856}, {"pitch": 60, "velocity": 81, "note_on_time": 13.144, "note_off_time": 13.28}, {"pitch": 60, "velocity": 82, "note_on_time": 13.527, "note_off_time": 13.673}, {"pitch": 64, "velocity": 89, "note_on_time": 13.907, "note_off_time": 14.058}, {"pitch": 62, "velocity": 88, "note_on_time": 14.293, "note_off_time": 14.429}]</notes><guidance name="Guidance Mode">None</guidance><error name="Error value">0.5090000000000001</error></trial><trial trial_no="3" timestamp="2022_09_08-12_57_33"><notes name="Played Notes">[{"pitch": 60, "velocity": 92, "note_on_time": 1.298, "note_off_time": 1.449}, {"pitch": 62, "velocity": 68, "note_on_time": 1.732, "note_off_time": 1.843}, {"pitch": 60, "velocity": 75, "note_on_time": 1.725, "note_off_time": 1.854}, {"pitch": 62, "velocity": 96, "note_on_time": 2.426, "note_off_time": 2.989}, {"pitch": 64, "velocity": 87, "note_on_time": 3.724, "note_off_time": 3.916}, {"pitch": 62, "velocity": 96, "note_on_time": 4.12, "note_off_time": 4.863}, {"pitch": 60, "velocity": 83, "note_on_time": 5.518, "note_off_time": 5.707}, {"pitch": 64, "velocity": 84, "note_on_time": 5.899, "note_off_time": 6.051}, {"pitch": 64, "velocity": 80, "note_on_time": 6.254, "note_off_time": 6.375}, {"pitch": 64, "velocity": 77, "note_on_time": 6.593, "note_off_time": 6.708}, {"pitch": 64, "velocity": 84, "note_on_time": 6.987, "note_off_time": 7.184}, {"pitch": 62, "velocity": 96, "note_on_time": 7.37, "note_off_time": 8.223}, {"pitch": 60, "velocity": 87, "note_on_time": 8.829, "note_off_time": 9.025}, {"pitch": 60, "velocity": 91, "note_on_time": 9.274, "note_off_time": 9.432}, {"pitch": 62, "velocity": 94, "note_on_time": 9.854, "note_off_time": 9.998}, {"pitch": 60, "velocity": 86, "note_on_time": 10.335, "note_off_time": 10.496}, {"pitch": 60, "velocity": 95, "note_on_time": 10.747, "note_off_time": 10.901}, {"pitch": 60, "velocity": 90, "note_on_time": 11.147, "note_off_time": 11.295}, {"pitch": 60, "velocity": 90, "note_on_time": 11.591, "note_off_time": 11.785}, {"pitch": 64, "velocity": 90, "note_on_time": 12.018, "note_off_time": 12.264}, {"pitch": 62, "velocity": 99, "note_on_time": 12.424, "note_off_time": 12.681}, {"pitch": 62, "velocity": 96, "note_on_time": 12.89, "note_off_time": 13.122}, {"pitch": 62, "velocity": 92, "note_on_time": 13.703, "note_off_time": 13.871}, {"pitch": 62, "velocity": 90, "note_on_time": 14.079, "note_off_time": 14.215}]</notes><guidance name="Guidance Mode">None</guidance><error name="Error value">1.1344500000000008</error></trial></trials></MIDI>