<MIDI midiNo="2022_11_13-12_31_13"><target_notes><notes name="Note List">[{"pitch": 42, "velocity": 80, "note_on_time": 0.003, "note_off_time": 0.373}, {"pitch": 42, "velocity": 80, "note_on_time": 0.373, "note_off_time": 0.749}, {"pitch": 42, "velocity": 80, "note_on_time": 0.75, "note_off_time": 1.124}, {"pitch": 42, "velocity": 80, "note_on_time": 1.124, "note_off_time": 1.497}, {"pitch": 62, "velocity": 80, "note_on_time": 1.497, "note_off_time": 1.87}, {"pitch": 42, "velocity": 80, "note_on_time": 1.498, "note_off_time": 1.871}, {"pitch": 62, "velocity": 80, "note_on_time": 1.87, "note_off_time": 2.245}, {"pitch": 42, "velocity": 80, "note_on_time": 1.871, "note_off_time": 2.245}, {"pitch": 62, "velocity": 80, "note_on_time": 2.245, "note_off_time": 2.619}, {"pitch": 42, "velocity": 80, "note_on_time": 2.245, "note_off_time": 2.619}, {"pitch": 62, "velocity": 80, "note_on_time": 2.619, "note_off_time": 2.995}, {"pitch": 42, "velocity": 80, "note_on_time": 2.619, "note_off_time": 2.996}, {"pitch": 67, "velocity": 80, "note_on_time": 2.995, "note_off_time": 3.37}, {"pitch": 42, "velocity": 80, "note_on_time": 2.996, "note_off_time": 3.37}, {"pitch": 65, "velocity": 80, "note_on_time": 3.37, "note_off_time": 3.741}, {"pitch": 42, "velocity": 80, "note_on_time": 3.37, "note_off_time": 3.741}, {"pitch": 60, "velocity": 80, "note_on_time": 3.741, "note_off_time": 4.114}, {"pitch": 42, "velocity": 80, "note_on_time": 3.741, "note_off_time": 4.114}, {"pitch": 67, "velocity": 80, "note_on_time": 4.114, "note_off_time": 4.489}, {"pitch": 42, "velocity": 80, "note_on_time": 4.114, "note_off_time": 4.489}, {"pitch": 60, "velocity": 80, "note_on_time": 4.489, "note_off_time": 4.861}, {"pitch": 42, "velocity": 80, "note_on_time": 4.489, "note_off_time": 4.862}, {"pitch": 64, "velocity": 80, "note_on_time": 4.861, "note_off_time": 5.237}, {"pitch": 42, "velocity": 80, "note_on_time": 4.862, "note_off_time": 5.237}, {"pitch": 67, "velocity": 80, "note_on_time": 5.237, "note_off_time": 5.612}, {"pitch": 42, "velocity": 80, "note_on_time": 5.238, "note_off_time": 5.612}, {"pitch": 65, "velocity": 80, "note_on_time": 5.612, "note_off_time": 5.975}, {"pitch": 42, "velocity": 80, "note_on_time": 5.612, "note_off_time": 5.975}, {"pitch": 64, "velocity": 80, "note_on_time": 5.975, "note_off_time": 6.345}, {"pitch": 42, "velocity": 80, "note_on_time": 5.976, "note_off_time": 6.345}, {"pitch": 62, "velocity": 80, "note_on_time": 6.345, "note_off_time": 6.722}, {"pitch": 42, "velocity": 80, "note_on_time": 6.345, "note_off_time": 6.722}, {"pitch": 65, "velocity": 80, "note_on_time": 6.722, "note_off_time": 7.097}, {"pitch": 42, "velocity": 80, "note_on_time": 6.722, "note_off_time": 7.097}, {"pitch": 60, "velocity": 80, "note_on_time": 7.097, "note_off_time": 7.468}, {"pitch": 42, "velocity": 80, "note_on_time": 7.097, "note_off_time": 7.468}, {"pitch": 42, "velocity": 80, "note_on_time": 7.468, "note_off_time": 7.839}, {"pitch": 64, "velocity": 80, "note_on_time": 7.468, "note_off_time": 8.215}, {"pitch": 42, "velocity": 80, "note_on_time": 7.84, "note_off_time": 8.215}, {"pitch": 42, "velocity": 80, "note_on_time": 8.215, "note_off_time": 8.59}, {"pitch": 60, "velocity": 80, "note_on_time": 8.589, "note_off_time": 8.965}, {"pitch": 42, "velocity": 80, "note_on_time": 8.59, "note_off_time": 8.965}, {"pitch": 67, "velocity": 80, "note_on_time": 8.965, "note_off_time": 9.34}, {"pitch": 42, "velocity": 80, "note_on_time": 8.966, "note_off_time": 9.34}, {"pitch": 67, "velocity": 80, "note_on_time": 9.34, "note_off_time": 9.703}, {"pitch": 42, "velocity": 80, "note_on_time": 9.34, "note_off_time": 9.703}, {"pitch": 62, "velocity": 80, "note_on_time": 9.703, "note_off_time": 10.077}, {"pitch": 42, "velocity": 80, "note_on_time": 9.703, "note_off_time": 10.077}, {"pitch": 65, "velocity": 80, "note_on_time": 10.077, "note_off_time": 10.45}, {"pitch": 42, "velocity": 80, "note_on_time": 10.079, "note_off_time": 10.45}, {"pitch": 62, "velocity": 80, "note_on_time": 10.45, "note_off_time": 10.824}, {"pitch": 42, "velocity": 80, "note_on_time": 10.451, "note_off_time": 10.824}, {"pitch": 42, "velocity": 80, "note_on_time": 10.825, "note_off_time": 11.196}, {"pitch": 67, "velocity": 80, "note_on_time": 10.824, "note_off_time": 11.572}, {"pitch": 42, "velocity": 80, "note_on_time": 11.197, "note_off_time": 11.573}, {"pitch": 42, "velocity": 80, "note_on_time": 11.573, "note_off_time": 11.949}, {"pitch": 42, "velocity": 80, "note_on_time": 11.949, "note_off_time": 12.324}, {"pitch": 67, "velocity": 80, "note_on_time": 12.324, "note_off_time": 12.7}, {"pitch": 42, "velocity": 80, "note_on_time": 12.325, "note_off_time": 12.7}, {"pitch": 67, "velocity": 80, "note_on_time": 12.7, "note_off_time": 13.073}, {"pitch": 42, "velocity": 80, "note_on_time": 12.701, "note_off_time": 13.074}, {"pitch": 67, "velocity": 80, "note_on_time": 13.073, "note_off_time": 13.448}, {"pitch": 42, "velocity": 80, "note_on_time": 13.074, "note_off_time": 13.449}]</notes><options name="Option List">((4, 4), [0.5, 0.25], 3, 8, &lt;NoteRangePerHand.C_TO_G: 6&gt;, &lt;NoteRangePerHand.ONE_NOTE: 2&gt;, False, True, False, '166')</options></target_notes><trials><trial trial_no="1" timestamp="2022_11_13-12_30_58"><notes name="Played Notes">[{"pitch": 62, "velocity": 54, "note_on_time": 1.473, "note_off_time": 1.678}, {"pitch": 62, "velocity": 61, "note_on_time": 1.862, "note_off_time": 2.069}, {"pitch": 62, "velocity": 58, "note_on_time": 2.254, "note_off_time": 2.436}, {"pitch": 62, "velocity": 56, "note_on_time": 2.633, "note_off_time": 3.091}, {"pitch": 67, "velocity": 50, "note_on_time": 3.041, "note_off_time": 3.469}, {"pitch": 60, "velocity": 62, "note_on_time": 3.409, "note_off_time": 3.837}, {"pitch": 65, "velocity": 57, "note_on_time": 3.833, "note_off_time": 4.151}, {"pitch": 62, "velocity": 64, "note_on_time": 7.792, "note_off_time": 8.001}, {"pitch": 62, "velocity": 66, "note_on_time": 8.175, "note_off_time": 8.387}, {"pitch": 62, "velocity": 63, "note_on_time": 8.567, "note_off_time": 8.787}, {"pitch": 62, "velocity": 61, "note_on_time": 8.97, "note_off_time": 9.507}, {"pitch": 67, "velocity": 56, "note_on_time": 9.356, "note_off_time": 9.803}, {"pitch": 65, "velocity": 67, "note_on_time": 9.729, "note_off_time": 10.119}, {"pitch": 60, "velocity": 59, "note_on_time": 10.128, "note_off_time": 10.532}, {"pitch": 67, "velocity": 70, "note_on_time": 10.504, "note_off_time": 10.912}, {"pitch": 64, "velocity": 70, "note_on_time": 11.248, "note_off_time": 11.677}, {"pitch": 67, "velocity": 70, "note_on_time": 11.634, "note_off_time": 12.053}, {"pitch": 60, "velocity": 65, "note_on_time": 10.874, "note_off_time": 12.199}, {"pitch": 65, "velocity": 68, "note_on_time": 11.988, "note_off_time": 12.416}, {"pitch": 64, "velocity": 57, "note_on_time": 12.354, "note_off_time": 12.713}, {"pitch": 62, "velocity": 58, "note_on_time": 12.713, "note_off_time": 13.092}, {"pitch": 65, "velocity": 46, "note_on_time": 13.104, "note_off_time": 13.439}]</notes><guidance name="Guidance Mode">None</guidance><error name="Error value">1.5117824999999996</error></trial><trial trial_no="2" timestamp="2022_11_13-12_31_53"><notes name="Played Notes">[{"pitch": 62, "velocity": 52, "note_on_time": 1.444, "note_off_time": 1.642}, {"pitch": 62, "velocity": 58, "note_on_time": 1.812, "note_off_time": 2.015}, {"pitch": 62, "velocity": 62, "note_on_time": 2.191, "note_off_time": 2.405}, {"pitch": 62, "velocity": 66, "note_on_time": 2.573, "note_off_time": 3.259}, {"pitch": 67, "velocity": 67, "note_on_time": 2.97, "note_off_time": 3.464}, {"pitch": 65, "velocity": 69, "note_on_time": 3.317, "note_off_time": 3.712}, {"pitch": 60, "velocity": 62, "note_on_time": 3.709, "note_off_time": 4.119}, {"pitch": 67, "velocity": 68, "note_on_time": 4.078, "note_off_time": 4.686}, {"pitch": 64, "velocity": 59, "note_on_time": 4.813, "note_off_time": 5.23}, {"pitch": 67, "velocity": 67, "note_on_time": 5.176, "note_off_time": 5.653}, {"pitch": 60, "velocity": 57, "note_on_time": 4.448, "note_off_time": 5.778}, {"pitch": 65, "velocity": 70, "note_on_time": 5.549, "note_off_time": 6.031}, {"pitch": 64, "velocity": 60, "note_on_time": 5.925, "note_off_time": 6.333}, {"pitch": 62, "velocity": 56, "note_on_time": 6.305, "note_off_time": 6.696}, {"pitch": 65, "velocity": 73, "note_on_time": 6.672, "note_off_time": 7.045}, {"pitch": 60, "velocity": 62, "note_on_time": 7.044, "note_off_time": 7.468}, {"pitch": 64, "velocity": 65, "note_on_time": 7.439, "note_off_time": 7.981}, {"pitch": 67, "velocity": 72, "note_on_time": 8.937, "note_off_time": 9.147}, {"pitch": 60, "velocity": 61, "note_on_time": 8.546, "note_off_time": 9.308}, {"pitch": 67, "velocity": 68, "note_on_time": 9.318, "note_off_time": 9.672}, {"pitch": 62, "velocity": 66, "note_on_time": 9.689, "note_off_time": 10.078}, {"pitch": 65, "velocity": 72, "note_on_time": 10.051, "note_off_time": 10.411}, {"pitch": 62, "velocity": 61, "note_on_time": 10.426, "note_off_time": 10.844}, {"pitch": 67, "velocity": 71, "note_on_time": 10.802, "note_off_time": 11.321}, {"pitch": 67, "velocity": 71, "note_on_time": 12.321, "note_off_time": 12.518}, {"pitch": 67, "velocity": 72, "note_on_time": 12.713, "note_off_time": 12.938}, {"pitch": 67, "velocity": 77, "note_on_time": 13.114, "note_off_time": 13.346}]</notes><guidance name="Guidance Mode">None</guidance><error name="Error value">0.1644577083333335</error></trial><trial trial_no="3" timestamp="2022_11_13-12_32_22"><notes name="Played Notes">[{"pitch": 62, "velocity": 52, "note_on_time": 1.518, "note_off_time": 1.711}, {"pitch": 62, "velocity": 59, "note_on_time": 1.896, "note_off_time": 2.093}, {"pitch": 62, "velocity": 65, "note_on_time": 2.275, "note_off_time": 2.489}, {"pitch": 62, "velocity": 73, "note_on_time": 2.661, "note_off_time": 3.134}, {"pitch": 67, "velocity": 68, "note_on_time": 3.046, "note_off_time": 3.47}, {"pitch": 65, "velocity": 70, "note_on_time": 3.4, "note_off_time": 3.784}, {"pitch": 60, "velocity": 52, "note_on_time": 3.794, "note_off_time": 4.18}, {"pitch": 67, "velocity": 71, "note_on_time": 4.144, "note_off_time": 4.682}, {"pitch": 64, "velocity": 59, "note_on_time": 4.868, "note_off_time": 5.279}, {"pitch": 67, "velocity": 65, "note_on_time": 5.233, "note_off_time": 5.701}, {"pitch": 60, "velocity": 58, "note_on_time": 4.512, "note_off_time": 5.956}, {"pitch": 65, "velocity": 64, "note_on_time": 5.602, "note_off_time": 6.088}, {"pitch": 64, "velocity": 66, "note_on_time": 5.998, "note_off_time": 6.366}, {"pitch": 62, "velocity": 59, "note_on_time": 6.359, "note_off_time": 6.757}, {"pitch": 65, "velocity": 56, "note_on_time": 6.745, "note_off_time": 7.112}, {"pitch": 60, "velocity": 62, "note_on_time": 7.109, "note_off_time": 7.52}, {"pitch": 64, "velocity": 65, "note_on_time": 7.508, "note_off_time": 8.052}, {"pitch": 67, "velocity": 67, "note_on_time": 8.987, "note_off_time": 9.192}, {"pitch": 60, "velocity": 62, "note_on_time": 8.601, "note_off_time": 9.196}, {"pitch": 67, "velocity": 68, "note_on_time": 9.357, "note_off_time": 9.711}, {"pitch": 62, "velocity": 58, "note_on_time": 9.731, "note_off_time": 10.122}, {"pitch": 65, "velocity": 70, "note_on_time": 10.098, "note_off_time": 10.458}, {"pitch": 62, "velocity": 51, "note_on_time": 10.476, "note_off_time": 10.899}, {"pitch": 67, "velocity": 58, "note_on_time": 10.847, "note_off_time": 11.163}, {"pitch": 67, "velocity": 60, "note_on_time": 12.331, "note_off_time": 12.535}, {"pitch": 67, "velocity": 66, "note_on_time": 12.731, "note_off_time": 12.94}, {"pitch": 67, "velocity": 76, "note_on_time": 13.118, "note_off_time": 13.312}]</notes><guidance name="Guidance Mode">None</guidance><error name="Error value">0.1611985416666669</error></trial></trials></MIDI>