<MIDI midiNo="2022_11_23-17_13_55"><target_notes><notes name="Note List">[{"pitch": 42, "velocity": 80, "note_on_time": 0.004, "note_off_time": 0.227}, {"pitch": 42, "velocity": 80, "note_on_time": 0.228, "note_off_time": 0.446}, {"pitch": 42, "velocity": 80, "note_on_time": 0.446, "note_off_time": 0.664}, {"pitch": 42, "velocity": 80, "note_on_time": 0.664, "note_off_time": 0.881}, {"pitch": 65, "velocity": 80, "note_on_time": 0.881, "note_off_time": 1.099}, {"pitch": 42, "velocity": 80, "note_on_time": 0.881, "note_off_time": 1.099}, {"pitch": 67, "velocity": 80, "note_on_time": 1.099, "note_off_time": 1.315}, {"pitch": 42, "velocity": 80, "note_on_time": 1.099, "note_off_time": 1.315}, {"pitch": 42, "velocity": 80, "note_on_time": 1.315, "note_off_time": 1.531}, {"pitch": 62, "velocity": 80, "note_on_time": 1.315, "note_off_time": 1.752}, {"pitch": 42, "velocity": 80, "note_on_time": 1.531, "note_off_time": 1.752}, {"pitch": 67, "velocity": 80, "note_on_time": 1.752, "note_off_time": 1.968}, {"pitch": 42, "velocity": 80, "note_on_time": 1.752, "note_off_time": 1.968}, {"pitch": 64, "velocity": 80, "note_on_time": 1.968, "note_off_time": 2.184}, {"pitch": 42, "velocity": 80, "note_on_time": 1.968, "note_off_time": 2.184}, {"pitch": 64, "velocity": 80, "note_on_time": 2.184, "note_off_time": 2.4}, {"pitch": 42, "velocity": 80, "note_on_time": 2.184, "note_off_time": 2.4}, {"pitch": 62, "velocity": 80, "note_on_time": 2.4, "note_off_time": 2.618}, {"pitch": 42, "velocity": 80, "note_on_time": 2.4, "note_off_time": 2.618}, {"pitch": 42, "velocity": 80, "note_on_time": 2.618, "note_off_time": 2.836}, {"pitch": 65, "velocity": 80, "note_on_time": 2.618, "note_off_time": 3.055}, {"pitch": 42, "velocity": 80, "note_on_time": 2.836, "note_off_time": 3.055}, {"pitch": 42, "velocity": 80, "note_on_time": 3.055, "note_off_time": 3.272}, {"pitch": 42, "velocity": 80, "note_on_time": 3.272, "note_off_time": 3.49}, {"pitch": 64, "velocity": 80, "note_on_time": 3.49, "note_off_time": 3.708}, {"pitch": 42, "velocity": 80, "note_on_time": 3.49, "note_off_time": 3.708}, {"pitch": 65, "velocity": 80, "note_on_time": 3.708, "note_off_time": 3.926}, {"pitch": 42, "velocity": 80, "note_on_time": 3.708, "note_off_time": 3.926}, {"pitch": 67, "velocity": 80, "note_on_time": 3.926, "note_off_time": 4.155}, {"pitch": 42, "velocity": 80, "note_on_time": 3.926, "note_off_time": 4.155}, {"pitch": 67, "velocity": 80, "note_on_time": 4.155, "note_off_time": 4.371}, {"pitch": 42, "velocity": 80, "note_on_time": 4.155, "note_off_time": 4.371}, {"pitch": 62, "velocity": 80, "note_on_time": 4.371, "note_off_time": 4.587}, {"pitch": 42, "velocity": 80, "note_on_time": 4.371, "note_off_time": 4.587}, {"pitch": 42, "velocity": 80, "note_on_time": 4.587, "note_off_time": 4.805}, {"pitch": 60, "velocity": 80, "note_on_time": 4.587, "note_off_time": 5.023}, {"pitch": 42, "velocity": 80, "note_on_time": 4.805, "note_off_time": 5.023}, {"pitch": 42, "velocity": 80, "note_on_time": 5.023, "note_off_time": 5.242}, {"pitch": 67, "velocity": 80, "note_on_time": 5.242, "note_off_time": 5.458}, {"pitch": 42, "velocity": 80, "note_on_time": 5.242, "note_off_time": 5.458}, {"pitch": 62, "velocity": 80, "note_on_time": 5.458, "note_off_time": 5.675}, {"pitch": 42, "velocity": 80, "note_on_time": 5.458, "note_off_time": 5.675}, {"pitch": 60, "velocity": 80, "note_on_time": 5.675, "note_off_time": 5.891}, {"pitch": 42, "velocity": 80, "note_on_time": 5.675, "note_off_time": 5.891}, {"pitch": 65, "velocity": 80, "note_on_time": 5.891, "note_off_time": 6.111}, {"pitch": 42, "velocity": 80, "note_on_time": 5.891, "note_off_time": 6.111}, {"pitch": 42, "velocity": 80, "note_on_time": 6.111, "note_off_time": 6.329}, {"pitch": 60, "velocity": 80, "note_on_time": 6.111, "note_off_time": 6.548}, {"pitch": 42, "velocity": 80, "note_on_time": 6.329, "note_off_time": 6.548}, {"pitch": 67, "velocity": 80, "note_on_time": 6.548, "note_off_time": 6.763}, {"pitch": 42, "velocity": 80, "note_on_time": 6.548, "note_off_time": 6.764}, {"pitch": 42, "velocity": 80, "note_on_time": 6.764, "note_off_time": 6.98}, {"pitch": 42, "velocity": 80, "note_on_time": 6.98, "note_off_time": 7.198}, {"pitch": 67, "velocity": 80, "note_on_time": 7.198, "note_off_time": 7.416}, {"pitch": 42, "velocity": 80, "note_on_time": 7.198, "note_off_time": 7.416}, {"pitch": 67, "velocity": 80, "note_on_time": 7.416, "note_off_time": 7.633}, {"pitch": 42, "velocity": 80, "note_on_time": 7.416, "note_off_time": 7.633}, {"pitch": 67, "velocity": 80, "note_on_time": 7.633, "note_off_time": 7.848}, {"pitch": 42, "velocity": 80, "note_on_time": 7.633, "note_off_time": 7.848}]</notes><options name="Option List">((4, 4), [0.5, 0.25], 3, 8, &lt;NoteRangePerHand.C_TO_G: 6&gt;, &lt;NoteRangePerHand.ONE_NOTE: 2&gt;, False, True, True, 281)</options></target_notes><trials><trial trial_no="1" timestamp="2022_11_23-17_13_45"><notes name="Played Notes">[{"pitch": 65, "velocity": 94, "note_on_time": 0.898, "note_off_time": 1.129}, {"pitch": 67, "velocity": 76, "note_on_time": 1.107, "note_off_time": 1.381}, {"pitch": 62, "velocity": 84, "note_on_time": 1.354, "note_off_time": 1.554}, {"pitch": 67, "velocity": 78, "note_on_time": 1.761, "note_off_time": 2.007}, {"pitch": 64, "velocity": 69, "note_on_time": 1.988, "note_off_time": 2.07}, {"pitch": 64, "velocity": 79, "note_on_time": 2.22, "note_off_time": 2.394}, {"pitch": 62, "velocity": 68, "note_on_time": 2.412, "note_off_time": 2.511}, {"pitch": 65, "velocity": 83, "note_on_time": 2.647, "note_off_time": 2.918}, {"pitch": 64, "velocity": 86, "note_on_time": 3.545, "note_off_time": 3.769}, {"pitch": 65, "velocity": 73, "note_on_time": 3.752, "note_off_time": 3.978}, {"pitch": 67, "velocity": 74, "note_on_time": 3.972, "note_off_time": 4.061}, {"pitch": 67, "velocity": 75, "note_on_time": 4.186, "note_off_time": 4.352}, {"pitch": 62, "velocity": 73, "note_on_time": 4.412, "note_off_time": 4.602}, {"pitch": 60, "velocity": 78, "note_on_time": 4.62, "note_off_time": 4.921}, {"pitch": 67, "velocity": 68, "note_on_time": 5.378, "note_off_time": 5.532}, {"pitch": 62, "velocity": 55, "note_on_time": 5.594, "note_off_time": 5.794}, {"pitch": 60, "velocity": 85, "note_on_time": 5.854, "note_off_time": 5.991}, {"pitch": 65, "velocity": 70, "note_on_time": 6.093, "note_off_time": 6.284}, {"pitch": 60, "velocity": 88, "note_on_time": 6.428, "note_off_time": 6.743}, {"pitch": 67, "velocity": 85, "note_on_time": 6.94, "note_off_time": 7.241}, {"pitch": 67, "velocity": 76, "note_on_time": 7.457, "note_off_time": 7.552}, {"pitch": 67, "velocity": 74, "note_on_time": 7.67, "note_off_time": 7.772}]</notes><guidance name="Guidance Mode">None</guidance><error name="Error value">0.09721465000000007</error></trial><trial trial_no="2" timestamp="2022_11_23-17_14_05"><notes name="Played Notes">[{"pitch": 65, "velocity": 90, "note_on_time": 0.914, "note_off_time": 1.146}, {"pitch": 67, "velocity": 71, "note_on_time": 1.122, "note_off_time": 1.381}, {"pitch": 62, "velocity": 75, "note_on_time": 1.373, "note_off_time": 1.523}, {"pitch": 67, "velocity": 75, "note_on_time": 1.809, "note_off_time": 2.038}, {"pitch": 64, "velocity": 72, "note_on_time": 2.021, "note_off_time": 2.104}, {"pitch": 64, "velocity": 68, "note_on_time": 2.233, "note_off_time": 2.396}, {"pitch": 62, "velocity": 72, "note_on_time": 2.436, "note_off_time": 2.556}, {"pitch": 65, "velocity": 84, "note_on_time": 2.652, "note_off_time": 2.866}, {"pitch": 64, "velocity": 83, "note_on_time": 3.478, "note_off_time": 3.747}, {"pitch": 65, "velocity": 89, "note_on_time": 3.72, "note_off_time": 3.913}, {"pitch": 67, "velocity": 67, "note_on_time": 3.924, "note_off_time": 4.052}, {"pitch": 67, "velocity": 67, "note_on_time": 4.16, "note_off_time": 4.31}, {"pitch": 62, "velocity": 72, "note_on_time": 4.393, "note_off_time": 4.539}, {"pitch": 60, "velocity": 81, "note_on_time": 4.805, "note_off_time": 4.963}, {"pitch": 67, "velocity": 73, "note_on_time": 5.239, "note_off_time": 5.463}, {"pitch": 62, "velocity": 72, "note_on_time": 5.459, "note_off_time": 5.639}, {"pitch": 60, "velocity": 73, "note_on_time": 5.672, "note_off_time": 5.803}, {"pitch": 65, "velocity": 72, "note_on_time": 5.88, "note_off_time": 6.029}, {"pitch": 60, "velocity": 74, "note_on_time": 6.114, "note_off_time": 6.369}, {"pitch": 67, "velocity": 84, "note_on_time": 6.541, "note_off_time": 6.803}, {"pitch": 67, "velocity": 78, "note_on_time": 6.98, "note_off_time": 7.074}, {"pitch": 67, "velocity": 70, "note_on_time": 7.175, "note_off_time": 7.282}, {"pitch": 67, "velocity": 72, "note_on_time": 7.39, "note_off_time": 7.696}]</notes><guidance name="Guidance Mode">None</guidance><error name="Error value">0.0417853499999999</error></trial><trial trial_no="3" timestamp="2022_11_23-17_14_58"><notes name="Played Notes">[{"pitch": 60, "velocity": 79, "note_on_time": 0.917, "note_off_time": 1.143}, {"pitch": 64, "velocity": 65, "note_on_time": 1.128, "note_off_time": 1.357}, {"pitch": 65, "velocity": 61, "note_on_time": 1.372, "note_off_time": 1.443}, {"pitch": 65, "velocity": 64, "note_on_time": 1.572, "note_off_time": 1.706}, {"pitch": 64, "velocity": 68, "note_on_time": 1.798, "note_off_time": 2.155}, {"pitch": 62, "velocity": 74, "note_on_time": 2.668, "note_off_time": 2.871}, {"pitch": 65, "velocity": 68, "note_on_time": 2.883, "note_off_time": 3.094}, {"pitch": 64, "velocity": 78, "note_on_time": 3.094, "note_off_time": 3.192}, {"pitch": 64, "velocity": 62, "note_on_time": 3.317, "note_off_time": 3.456}, {"pitch": 62, "velocity": 77, "note_on_time": 3.548, "note_off_time": 3.941}, {"pitch": 65, "velocity": 81, "note_on_time": 4.413, "note_off_time": 4.645}, {"pitch": 62, "velocity": 74, "note_on_time": 4.649, "note_off_time": 4.891}, {"pitch": 67, "velocity": 82, "note_on_time": 4.884, "note_off_time": 5.041}, {"pitch": 67, "velocity": 74, "note_on_time": 5.334, "note_off_time": 5.524}, {"pitch": 62, "velocity": 66, "note_on_time": 5.545, "note_off_time": 5.74}, {"pitch": 65, "velocity": 69, "note_on_time": 5.757, "note_off_time": 5.973}, {"pitch": 67, "velocity": 67, "note_on_time": 5.973, "note_off_time": 6.158}, {"pitch": 60, "velocity": 74, "note_on_time": 6.205, "note_off_time": 6.404}, {"pitch": 65, "velocity": 84, "note_on_time": 6.752, "note_off_time": 6.96}, {"pitch": 67, "velocity": 67, "note_on_time": 6.959, "note_off_time": 7.062}, {"pitch": 67, "velocity": 52, "note_on_time": 7.498, "note_off_time": 7.563}, {"pitch": 67, "velocity": 72, "note_on_time": 7.694, "note_off_time": 7.771}, {"pitch": 67, "velocity": 81, "note_on_time": 7.897, "note_off_time": 8.076}]</notes><guidance name="Guidance Mode">None</guidance><error name="Error value">0.99818535</error></trial><trial trial_no="4" timestamp="2022_11_23-17_15_20"><notes name="Played Notes">[{"pitch": 60, "velocity": 83, "note_on_time": 0.886, "note_off_time": 1.117}, {"pitch": 64, "velocity": 79, "note_on_time": 1.083, "note_off_time": 1.309}, {"pitch": 65, "velocity": 75, "note_on_time": 1.307, "note_off_time": 1.388}, {"pitch": 65, "velocity": 78, "note_on_time": 1.511, "note_off_time": 1.682}, {"pitch": 64, "velocity": 84, "note_on_time": 1.762, "note_off_time": 2.042}, {"pitch": 62, "velocity": 86, "note_on_time": 2.681, "note_off_time": 2.898}, {"pitch": 67, "velocity": 73, "note_on_time": 2.884, "note_off_time": 3.118}, {"pitch": 64, "velocity": 78, "note_on_time": 3.117, "note_off_time": 3.227}, {"pitch": 64, "velocity": 58, "note_on_time": 3.333, "note_off_time": 3.498}, {"pitch": 62, "velocity": 76, "note_on_time": 3.702, "note_off_time": 4.061}, {"pitch": 65, "velocity": 81, "note_on_time": 4.565, "note_off_time": 4.755}, {"pitch": 62, "velocity": 73, "note_on_time": 4.776, "note_off_time": 5.026}, {"pitch": 67, "velocity": 77, "note_on_time": 5.005, "note_off_time": 5.231}, {"pitch": 67, "velocity": 74, "note_on_time": 5.465, "note_off_time": 5.67}, {"pitch": 62, "velocity": 68, "note_on_time": 5.689, "note_off_time": 5.903}, {"pitch": 65, "velocity": 76, "note_on_time": 5.903, "note_off_time": 6.127}, {"pitch": 67, "velocity": 69, "note_on_time": 6.117, "note_off_time": 6.283}, {"pitch": 60, "velocity": 79, "note_on_time": 6.336, "note_off_time": 6.529}, {"pitch": 65, "velocity": 80, "note_on_time": 6.794, "note_off_time": 7.019}, {"pitch": 67, "velocity": 77, "note_on_time": 6.999, "note_off_time": 7.127}, {"pitch": 67, "velocity": 81, "note_on_time": 7.488, "note_off_time": 7.595}, {"pitch": 67, "velocity": 83, "note_on_time": 7.674, "note_off_time": 7.777}, {"pitch": 67, "velocity": 83, "note_on_time": 7.897, "note_off_time": 8.045}]</notes><guidance name="Guidance Mode">None</guidance><error name="Error value">0.9979830499999999</error></trial><trial trial_no="5" timestamp="2022_11_23-17_15_39"><notes name="Played Notes">[{"pitch": 60, "velocity": 88, "note_on_time": 0.915, "note_off_time": 1.144}, {"pitch": 64, "velocity": 74, "note_on_time": 1.107, "note_off_time": 1.35}, {"pitch": 65, "velocity": 77, "note_on_time": 1.327, "note_off_time": 1.421}, {"pitch": 65, "velocity": 80, "note_on_time": 1.538, "note_off_time": 1.696}, {"pitch": 64, "velocity": 85, "note_on_time": 1.765, "note_off_time": 2.144}, {"pitch": 62, "velocity": 84, "note_on_time": 2.627, "note_off_time": 2.847}, {"pitch": 65, "velocity": 77, "note_on_time": 2.836, "note_off_time": 3.057}, {"pitch": 64, "velocity": 80, "note_on_time": 3.049, "note_off_time": 3.144}, {"pitch": 64, "velocity": 76, "note_on_time": 3.266, "note_off_time": 3.406}, {"pitch": 62, "velocity": 81, "note_on_time": 3.495, "note_off_time": 3.815}, {"pitch": 65, "velocity": 90, "note_on_time": 4.356, "note_off_time": 4.586}, {"pitch": 62, "velocity": 80, "note_on_time": 4.58, "note_off_time": 4.824}, {"pitch": 67, "velocity": 84, "note_on_time": 4.802, "note_off_time": 4.994}, {"pitch": 67, "velocity": 84, "note_on_time": 5.265, "note_off_time": 5.449}, {"pitch": 62, "velocity": 68, "note_on_time": 5.459, "note_off_time": 5.675}, {"pitch": 65, "velocity": 77, "note_on_time": 5.68, "note_off_time": 5.883}, {"pitch": 67, "velocity": 74, "note_on_time": 5.876, "note_off_time": 6.016}, {"pitch": 60, "velocity": 83, "note_on_time": 6.107, "note_off_time": 6.304}, {"pitch": 65, "velocity": 85, "note_on_time": 6.554, "note_off_time": 6.769}, {"pitch": 67, "velocity": 71, "note_on_time": 6.757, "note_off_time": 6.888}, {"pitch": 67, "velocity": 85, "note_on_time": 7.34, "note_off_time": 7.441}, {"pitch": 67, "velocity": 73, "note_on_time": 7.548, "note_off_time": 7.654}, {"pitch": 67, "velocity": 80, "note_on_time": 7.772, "note_off_time": 7.952}]</notes><guidance name="Guidance Mode">None</guidance><error name="Error value">0.9529830499999999</error></trial><trial trial_no="6" timestamp="2022_11_23-17_17_42"><notes name="Played Notes">[{"pitch": 65, "velocity": 86, "note_on_time": 0.914, "note_off_time": 1.503}, {"pitch": 64, "velocity": 75, "note_on_time": 1.799, "note_off_time": 2.009}, {"pitch": 62, "velocity": 73, "note_on_time": 2.004, "note_off_time": 2.1}, {"pitch": 62, "velocity": 60, "note_on_time": 2.245, "note_off_time": 2.33}, {"pitch": 62, "velocity": 68, "note_on_time": 2.443, "note_off_time": 2.553}, {"pitch": 60, "velocity": 81, "note_on_time": 2.699, "note_off_time": 3.104}, {"pitch": 67, "velocity": 83, "note_on_time": 3.573, "note_off_time": 3.948}, {"pitch": 64, "velocity": 82, "note_on_time": 4.456, "note_off_time": 4.849}, {"pitch": 64, "velocity": 73, "note_on_time": 5.334, "note_off_time": 5.554}, {"pitch": 60, "velocity": 73, "note_on_time": 5.559, "note_off_time": 5.767}, {"pitch": 62, "velocity": 72, "note_on_time": 5.779, "note_off_time": 5.998}, {"pitch": 67, "velocity": 67, "note_on_time": 5.999, "note_off_time": 6.193}, {"pitch": 60, "velocity": 82, "note_on_time": 6.231, "note_off_time": 6.522}, {"pitch": 64, "velocity": 73, "note_on_time": 6.688, "note_off_time": 6.962}, {"pitch": 60, "velocity": 78, "note_on_time": 7.166, "note_off_time": 7.385}, {"pitch": 65, "velocity": 65, "note_on_time": 7.402, "note_off_time": 7.607}, {"pitch": 60, "velocity": 64, "note_on_time": 7.627, "note_off_time": 7.842}, {"pitch": 64, "velocity": 71, "note_on_time": 7.845, "note_off_time": 7.971}, {"pitch": 64, "velocity": 80, "note_on_time": 8.41, "note_off_time": 8.51}]</notes><guidance name="Guidance Mode">None</guidance><error name="Error value">1.0257569</error></trial><trial trial_no="7" timestamp="2022_11_23-17_18_01"><notes name="Played Notes">[{"pitch": 65, "velocity": 84, "note_on_time": 0.898, "note_off_time": 1.548}, {"pitch": 64, "velocity": 67, "note_on_time": 1.791, "note_off_time": 2.004}, {"pitch": 62, "velocity": 61, "note_on_time": 1.999, "note_off_time": 2.098}, {"pitch": 62, "velocity": 56, "note_on_time": 2.236, "note_off_time": 2.313}, {"pitch": 62, "velocity": 58, "note_on_time": 2.452, "note_off_time": 2.539}, {"pitch": 60, "velocity": 71, "note_on_time": 2.706, "note_off_time": 3.051}, {"pitch": 67, "velocity": 71, "note_on_time": 3.576, "note_off_time": 4.047}, {"pitch": 64, "velocity": 74, "note_on_time": 4.446, "note_off_time": 5.013}, {"pitch": 64, "velocity": 79, "note_on_time": 5.358, "note_off_time": 5.535}, {"pitch": 60, "velocity": 69, "note_on_time": 5.567, "note_off_time": 5.798}, {"pitch": 62, "velocity": 74, "note_on_time": 5.801, "note_off_time": 6.014}, {"pitch": 67, "velocity": 70, "note_on_time": 6.014, "note_off_time": 6.208}, {"pitch": 60, "velocity": 79, "note_on_time": 6.26, "note_off_time": 6.505}, {"pitch": 64, "velocity": 67, "note_on_time": 6.737, "note_off_time": 7.042}, {"pitch": 60, "velocity": 76, "note_on_time": 7.242, "note_off_time": 7.452}, {"pitch": 65, "velocity": 67, "note_on_time": 7.458, "note_off_time": 7.672}, {"pitch": 60, "velocity": 67, "note_on_time": 7.694, "note_off_time": 7.915}, {"pitch": 65, "velocity": 59, "note_on_time": 7.931, "note_off_time": 8.081}, {"pitch": 64, "velocity": 62, "note_on_time": 8.179, "note_off_time": 8.503}]</notes><guidance name="Guidance Mode">None</guidance><error name="Error value">1.07173305</error></trial><trial trial_no="8" timestamp="2022_11_23-17_18_21"><notes name="Played Notes">[{"pitch": 65, "velocity": 82, "note_on_time": 0.893, "note_off_time": 1.608}, {"pitch": 64, "velocity": 82, "note_on_time": 1.8, "note_off_time": 2.038}, {"pitch": 62, "velocity": 67, "note_on_time": 2.025, "note_off_time": 2.107}, {"pitch": 62, "velocity": 71, "note_on_time": 2.279, "note_off_time": 2.351}, {"pitch": 62, "velocity": 68, "note_on_time": 2.497, "note_off_time": 2.582}, {"pitch": 60, "velocity": 82, "note_on_time": 2.754, "note_off_time": 3.148}, {"pitch": 67, "velocity": 81, "note_on_time": 3.625, "note_off_time": 4.045}, {"pitch": 64, "velocity": 79, "note_on_time": 4.114, "note_off_time": 4.47}, {"pitch": 64, "velocity": 84, "note_on_time": 4.683, "note_off_time": 4.916}, {"pitch": 60, "velocity": 71, "note_on_time": 4.919, "note_off_time": 5.132}, {"pitch": 62, "velocity": 74, "note_on_time": 5.163, "note_off_time": 5.405}, {"pitch": 67, "velocity": 53, "note_on_time": 5.419, "note_off_time": 5.617}, {"pitch": 60, "velocity": 79, "note_on_time": 5.674, "note_off_time": 6.126}, {"pitch": 64, "velocity": 72, "note_on_time": 6.154, "note_off_time": 6.482}, {"pitch": 60, "velocity": 76, "note_on_time": 6.642, "note_off_time": 6.831}, {"pitch": 65, "velocity": 81, "note_on_time": 6.847, "note_off_time": 7.083}, {"pitch": 60, "velocity": 73, "note_on_time": 7.108, "note_off_time": 7.333}, {"pitch": 64, "velocity": 73, "note_on_time": 7.332, "note_off_time": 7.458}, {"pitch": 64, "velocity": 62, "note_on_time": 7.561, "note_off_time": 7.675}, {"pitch": 64, "velocity": 64, "note_on_time": 7.792, "note_off_time": 7.887}, {"pitch": 64, "velocity": 81, "note_on_time": 8.029, "note_off_time": 8.438}]</notes><guidance name="Guidance Mode">None</guidance><error name="Error value">0.9794261499999999</error></trial><trial trial_no="9" timestamp="2022_11_23-17_19_25"><notes name="Played Notes">[{"pitch": 64, "velocity": 86, "note_on_time": 0.944, "note_off_time": 1.163}, {"pitch": 67, "velocity": 61, "note_on_time": 1.171, "note_off_time": 1.421}, {"pitch": 64, "velocity": 72, "note_on_time": 1.406, "note_off_time": 1.615}, {"pitch": 60, "velocity": 65, "note_on_time": 1.628, "note_off_time": 1.855}, {"pitch": 62, "velocity": 64, "note_on_time": 1.869, "note_off_time": 2.077}, {"pitch": 60, "velocity": 61, "note_on_time": 2.087, "note_off_time": 2.173}, {"pitch": 60, "velocity": 61, "note_on_time": 2.309, "note_off_time": 2.422}, {"pitch": 65, "velocity": 60, "note_on_time": 2.542, "note_off_time": 2.705}, {"pitch": 60, "velocity": 61, "note_on_time": 2.913, "note_off_time": 3.21}, {"pitch": 62, "velocity": 68, "note_on_time": 3.308, "note_off_time": 3.785}, {"pitch": 62, "velocity": 78, "note_on_time": 4.161, "note_off_time": 4.498}, {"pitch": 67, "velocity": 73, "note_on_time": 4.942, "note_off_time": 5.356}, {"pitch": 64, "velocity": 86, "note_on_time": 5.95, "note_off_time": 6.271}, {"pitch": 64, "velocity": 73, "note_on_time": 6.447, "note_off_time": 6.69}, {"pitch": 65, "velocity": 72, "note_on_time": 6.67, "note_off_time": 6.912}, {"pitch": 67, "velocity": 73, "note_on_time": 6.901, "note_off_time": 7.108}, {"pitch": 60, "velocity": 64, "note_on_time": 7.121, "note_off_time": 7.311}, {"pitch": 62, "velocity": 75, "note_on_time": 7.335, "note_off_time": 7.436}, {"pitch": 62, "velocity": 62, "note_on_time": 7.566, "note_off_time": 7.708}, {"pitch": 67, "velocity": 67, "note_on_time": 7.772, "note_off_time": 7.955}, {"pitch": 60, "velocity": 71, "note_on_time": 7.997, "note_off_time": 8.127}, {"pitch": 65, "velocity": 67, "note_on_time": 8.227, "note_off_time": 8.335}, {"pitch": 65, "velocity": 77, "note_on_time": 8.427, "note_off_time": 8.603}]</notes><guidance name="Guidance Mode">None</guidance><error name="Error value">2.6845046000000004</error></trial><trial trial_no="10" timestamp="2022_11_23-17_19_50"><notes name="Played Notes">[{"pitch": 64, "velocity": 87, "note_on_time": 0.917, "note_off_time": 1.153}, {"pitch": 67, "velocity": 69, "note_on_time": 1.145, "note_off_time": 1.41}, {"pitch": 64, "velocity": 78, "note_on_time": 1.369, "note_off_time": 1.585}, {"pitch": 60, "velocity": 73, "note_on_time": 1.584, "note_off_time": 1.823}, {"pitch": 62, "velocity": 76, "note_on_time": 1.819, "note_off_time": 2.065}, {"pitch": 60, "velocity": 73, "note_on_time": 2.046, "note_off_time": 2.14}, {"pitch": 60, "velocity": 78, "note_on_time": 2.268, "note_off_time": 2.421}, {"pitch": 65, "velocity": 75, "note_on_time": 2.482, "note_off_time": 2.634}, {"pitch": 62, "velocity": 76, "note_on_time": 2.695, "note_off_time": 2.985}, {"pitch": 62, "velocity": 84, "note_on_time": 3.495, "note_off_time": 3.8}, {"pitch": 67, "velocity": 85, "note_on_time": 4.348, "note_off_time": 4.753}, {"pitch": 64, "velocity": 84, "note_on_time": 5.34, "note_off_time": 5.868}, {"pitch": 64, "velocity": 82, "note_on_time": 6.229, "note_off_time": 6.483}, {"pitch": 65, "velocity": 74, "note_on_time": 6.447, "note_off_time": 6.681}, {"pitch": 67, "velocity": 67, "note_on_time": 6.674, "note_off_time": 6.883}, {"pitch": 60, "velocity": 72, "note_on_time": 6.88, "note_off_time": 7.104}, {"pitch": 62, "velocity": 75, "note_on_time": 7.101, "note_off_time": 7.209}, {"pitch": 62, "velocity": 77, "note_on_time": 7.344, "note_off_time": 7.548}, {"pitch": 67, "velocity": 70, "note_on_time": 7.558, "note_off_time": 7.759}, {"pitch": 60, "velocity": 75, "note_on_time": 7.768, "note_off_time": 8.013}, {"pitch": 65, "velocity": 81, "note_on_time": 8.011, "note_off_time": 8.115}, {"pitch": 65, "velocity": 78, "note_on_time": 8.227, "note_off_time": 8.423}]</notes><guidance name="Guidance Mode">None</guidance><error name="Error value">1.7158738499999997</error></trial><trial trial_no="11" timestamp="2022_11_23-17_20_16"><notes name="Played Notes">[{"pitch": 64, "velocity": 92, "note_on_time": 0.897, "note_off_time": 1.117}, {"pitch": 67, "velocity": 77, "note_on_time": 1.1, "note_off_time": 1.379}, {"pitch": 64, "velocity": 76, "note_on_time": 1.33, "note_off_time": 1.545}, {"pitch": 60, "velocity": 75, "note_on_time": 1.541, "note_off_time": 1.76}, {"pitch": 62, "velocity": 77, "note_on_time": 1.758, "note_off_time": 1.987}, {"pitch": 60, "velocity": 77, "note_on_time": 1.97, "note_off_time": 2.053}, {"pitch": 60, "velocity": 74, "note_on_time": 2.184, "note_off_time": 2.364}, {"pitch": 65, "velocity": 81, "note_on_time": 2.378, "note_off_time": 2.595}, {"pitch": 62, "velocity": 81, "note_on_time": 2.583, "note_off_time": 2.811}, {"pitch": 62, "velocity": 86, "note_on_time": 3.491, "note_off_time": 3.759}, {"pitch": 67, "velocity": 89, "note_on_time": 4.374, "note_off_time": 4.731}, {"pitch": 64, "velocity": 85, "note_on_time": 5.267, "note_off_time": 5.736}, {"pitch": 64, "velocity": 88, "note_on_time": 6.081, "note_off_time": 6.324}, {"pitch": 65, "velocity": 81, "note_on_time": 6.305, "note_off_time": 6.54}, {"pitch": 67, "velocity": 79, "note_on_time": 6.522, "note_off_time": 6.716}, {"pitch": 60, "velocity": 75, "note_on_time": 6.721, "note_off_time": 6.929}, {"pitch": 62, "velocity": 80, "note_on_time": 6.944, "note_off_time": 7.038}, {"pitch": 62, "velocity": 84, "note_on_time": 7.178, "note_off_time": 7.341}, {"pitch": 67, "velocity": 84, "note_on_time": 7.4, "note_off_time": 7.592}, {"pitch": 60, "velocity": 82, "note_on_time": 7.593, "note_off_time": 7.773}, {"pitch": 65, "velocity": 73, "note_on_time": 7.838, "note_off_time": 7.885}, {"pitch": 64, "velocity": 59, "note_on_time": 7.828, "note_off_time": 7.9}, {"pitch": 65, "velocity": 72, "note_on_time": 8.064, "note_off_time": 8.298}]</notes><guidance name="Guidance Mode">None</guidance><error name="Error value">2.974680749999999</error></trial><trial trial_no="12" timestamp="2022_11_23-17_21_35"><notes name="Played Notes">[{"pitch": 65, "velocity": 81, "note_on_time": 0.924, "note_off_time": 1.122}, {"pitch": 67, "velocity": 51, "note_on_time": 1.138, "note_off_time": 1.403}, {"pitch": 62, "velocity": 77, "note_on_time": 1.37, "note_off_time": 1.652}, {"pitch": 67, "velocity": 76, "note_on_time": 1.824, "note_off_time": 2.082}, {"pitch": 64, "velocity": 63, "note_on_time": 2.05, "note_off_time": 2.115}, {"pitch": 64, "velocity": 75, "note_on_time": 2.273, "note_off_time": 2.466}, {"pitch": 62, "velocity": 64, "note_on_time": 2.494, "note_off_time": 2.61}, {"pitch": 65, "velocity": 75, "note_on_time": 2.715, "note_off_time": 3.11}, {"pitch": 64, "velocity": 72, "note_on_time": 3.537, "note_off_time": 3.771}, {"pitch": 65, "velocity": 63, "note_on_time": 3.753, "note_off_time": 3.964}, {"pitch": 67, "velocity": 63, "note_on_time": 3.978, "note_off_time": 4.059}, {"pitch": 67, "velocity": 67, "note_on_time": 4.188, "note_off_time": 4.35}, {"pitch": 62, "velocity": 13, "note_on_time": 4.479, "note_off_time": 4.628}, {"pitch": 60, "velocity": 79, "note_on_time": 4.888, "note_off_time": 5.133}, {"pitch": 67, "velocity": 81, "note_on_time": 5.76, "note_off_time": 5.97}, {"pitch": 62, "velocity": 64, "note_on_time": 5.956, "note_off_time": 6.173}, {"pitch": 60, "velocity": 68, "note_on_time": 6.197, "note_off_time": 6.424}, {"pitch": 65, "velocity": 73, "note_on_time": 6.427, "note_off_time": 6.592}, {"pitch": 60, "velocity": 80, "note_on_time": 6.664, "note_off_time": 6.983}, {"pitch": 67, "velocity": 74, "note_on_time": 7.151, "note_off_time": 7.566}, {"pitch": 67, "velocity": 76, "note_on_time": 8.036, "note_off_time": 8.133}, {"pitch": 67, "velocity": 71, "note_on_time": 8.249, "note_off_time": 8.342}]</notes><guidance name="Guidance Mode">None</guidance><error name="Error value">0.09978619999999991</error></trial><trial trial_no="13" timestamp="2022_11_23-17_21_53"><notes name="Played Notes">[{"pitch": 65, "velocity": 86, "note_on_time": 0.917, "note_off_time": 1.148}, {"pitch": 67, "velocity": 66, "note_on_time": 1.134, "note_off_time": 1.398}, {"pitch": 62, "velocity": 77, "note_on_time": 1.381, "note_off_time": 1.603}, {"pitch": 67, "velocity": 71, "note_on_time": 1.814, "note_off_time": 2.056}, {"pitch": 64, "velocity": 69, "note_on_time": 2.042, "note_off_time": 2.138}, {"pitch": 64, "velocity": 66, "note_on_time": 2.258, "note_off_time": 2.434}, {"pitch": 62, "velocity": 62, "note_on_time": 2.465, "note_off_time": 2.655}, {"pitch": 65, "velocity": 80, "note_on_time": 2.715, "note_off_time": 3.142}, {"pitch": 64, "velocity": 76, "note_on_time": 3.555, "note_off_time": 3.777}, {"pitch": 65, "velocity": 66, "note_on_time": 3.771, "note_off_time": 4.005}, {"pitch": 67, "velocity": 69, "note_on_time": 4.0, "note_off_time": 4.102}, {"pitch": 67, "velocity": 61, "note_on_time": 4.202, "note_off_time": 4.363}, {"pitch": 62, "velocity": 61, "note_on_time": 4.44, "note_off_time": 4.648}, {"pitch": 60, "velocity": 62, "note_on_time": 4.675, "note_off_time": 4.781}, {"pitch": 67, "velocity": 73, "note_on_time": 5.338, "note_off_time": 5.545}, {"pitch": 62, "velocity": 62, "note_on_time": 5.555, "note_off_time": 5.769}, {"pitch": 60, "velocity": 64, "note_on_time": 5.782, "note_off_time": 5.975}, {"pitch": 65, "velocity": 75, "note_on_time": 5.988, "note_off_time": 6.197}, {"pitch": 60, "velocity": 74, "note_on_time": 6.251, "note_off_time": 6.604}, {"pitch": 67, "velocity": 70, "note_on_time": 7.065, "note_off_time": 7.465}, {"pitch": 67, "velocity": 79, "note_on_time": 7.908, "note_off_time": 8.023}, {"pitch": 67, "velocity": 61, "note_on_time": 8.12, "note_off_time": 8.229}, {"pitch": 67, "velocity": 64, "note_on_time": 8.321, "note_off_time": 8.694}]</notes><guidance name="Guidance Mode">None</guidance><error name="Error value">0.044610049999999964</error></trial><trial trial_no="14" timestamp="2022_11_23-17_22_25"><notes name="Played Notes">[{"pitch": 65, "velocity": 86, "note_on_time": 0.921, "note_off_time": 1.155}, {"pitch": 67, "velocity": 69, "note_on_time": 1.123, "note_off_time": 1.402}, {"pitch": 62, "velocity": 78, "note_on_time": 1.372, "note_off_time": 1.604}, {"pitch": 67, "velocity": 73, "note_on_time": 1.822, "note_off_time": 2.098}, {"pitch": 64, "velocity": 68, "note_on_time": 2.043, "note_off_time": 2.14}, {"pitch": 64, "velocity": 68, "note_on_time": 2.261, "note_off_time": 2.441}, {"pitch": 62, "velocity": 66, "note_on_time": 2.453, "note_off_time": 2.684}, {"pitch": 65, "velocity": 80, "note_on_time": 2.693, "note_off_time": 3.078}, {"pitch": 64, "velocity": 83, "note_on_time": 3.471, "note_off_time": 3.711}, {"pitch": 65, "velocity": 71, "note_on_time": 3.687, "note_off_time": 3.924}, {"pitch": 67, "velocity": 77, "note_on_time": 3.91, "note_off_time": 4.009}, {"pitch": 67, "velocity": 71, "note_on_time": 4.124, "note_off_time": 4.353}, {"pitch": 62, "velocity": 66, "note_on_time": 4.357, "note_off_time": 4.567}, {"pitch": 60, "velocity": 75, "note_on_time": 4.586, "note_off_time": 4.828}, {"pitch": 67, "velocity": 85, "note_on_time": 5.259, "note_off_time": 5.511}, {"pitch": 62, "velocity": 68, "note_on_time": 5.486, "note_off_time": 5.667}, {"pitch": 60, "velocity": 69, "note_on_time": 5.704, "note_off_time": 5.92}, {"pitch": 65, "velocity": 72, "note_on_time": 5.92, "note_off_time": 6.142}, {"pitch": 60, "velocity": 76, "note_on_time": 6.151, "note_off_time": 6.433}, {"pitch": 67, "velocity": 84, "note_on_time": 6.936, "note_off_time": 7.135}, {"pitch": 67, "velocity": 87, "note_on_time": 7.378, "note_off_time": 7.477}, {"pitch": 67, "velocity": 71, "note_on_time": 7.585, "note_off_time": 7.691}, {"pitch": 67, "velocity": 77, "note_on_time": 7.817, "note_off_time": 8.132}]</notes><guidance name="Guidance Mode">None</guidance><error name="Error value">0.04526234999999991</error></trial></trials></MIDI>