<MIDI midiNo="2022_11_03-10_47_43"><target_notes><notes name="Note List">[{"pitch": 42, "velocity": 80, "note_on_time": 0.004, "note_off_time": 0.22}, {"pitch": 42, "velocity": 80, "note_on_time": 0.22, "note_off_time": 0.437}, {"pitch": 42, "velocity": 80, "note_on_time": 0.437, "note_off_time": 0.656}, {"pitch": 42, "velocity": 80, "note_on_time": 0.656, "note_off_time": 0.875}, {"pitch": 42, "velocity": 80, "note_on_time": 0.875, "note_off_time": 1.092}, {"pitch": 62, "velocity": 80, "note_on_time": 0.875, "note_off_time": 1.309}, {"pitch": 42, "velocity": 80, "note_on_time": 1.092, "note_off_time": 1.309}, {"pitch": 42, "velocity": 80, "note_on_time": 1.309, "note_off_time": 1.525}, {"pitch": 42, "velocity": 80, "note_on_time": 1.525, "note_off_time": 1.741}, {"pitch": 67, "velocity": 80, "note_on_time": 1.741, "note_off_time": 1.958}, {"pitch": 42, "velocity": 80, "note_on_time": 1.741, "note_off_time": 1.958}, {"pitch": 67, "velocity": 80, "note_on_time": 1.958, "note_off_time": 2.175}, {"pitch": 42, "velocity": 80, "note_on_time": 1.958, "note_off_time": 2.175}, {"pitch": 62, "velocity": 80, "note_on_time": 2.175, "note_off_time": 2.393}, {"pitch": 42, "velocity": 80, "note_on_time": 2.175, "note_off_time": 2.393}, {"pitch": 65, "velocity": 80, "note_on_time": 2.393, "note_off_time": 2.611}, {"pitch": 42, "velocity": 80, "note_on_time": 2.393, "note_off_time": 2.611}, {"pitch": 60, "velocity": 80, "note_on_time": 2.611, "note_off_time": 2.828}, {"pitch": 42, "velocity": 80, "note_on_time": 2.611, "note_off_time": 2.828}, {"pitch": 65, "velocity": 80, "note_on_time": 2.828, "note_off_time": 3.047}, {"pitch": 42, "velocity": 80, "note_on_time": 2.828, "note_off_time": 3.047}, {"pitch": 60, "velocity": 80, "note_on_time": 3.047, "note_off_time": 3.264}, {"pitch": 42, "velocity": 80, "note_on_time": 3.047, "note_off_time": 3.264}, {"pitch": 65, "velocity": 80, "note_on_time": 3.264, "note_off_time": 3.481}, {"pitch": 42, "velocity": 80, "note_on_time": 3.264, "note_off_time": 3.481}, {"pitch": 64, "velocity": 80, "note_on_time": 3.481, "note_off_time": 3.699}, {"pitch": 42, "velocity": 80, "note_on_time": 3.481, "note_off_time": 3.699}, {"pitch": 62, "velocity": 80, "note_on_time": 3.699, "note_off_time": 3.918}, {"pitch": 42, "velocity": 80, "note_on_time": 3.699, "note_off_time": 3.918}, {"pitch": 65, "velocity": 80, "note_on_time": 3.918, "note_off_time": 4.136}, {"pitch": 42, "velocity": 80, "note_on_time": 3.918, "note_off_time": 4.136}, {"pitch": 64, "velocity": 80, "note_on_time": 4.136, "note_off_time": 4.353}, {"pitch": 42, "velocity": 80, "note_on_time": 4.136, "note_off_time": 4.353}, {"pitch": 62, "velocity": 80, "note_on_time": 4.353, "note_off_time": 4.572}, {"pitch": 42, "velocity": 80, "note_on_time": 4.353, "note_off_time": 4.572}, {"pitch": 65, "velocity": 80, "note_on_time": 4.572, "note_off_time": 4.791}, {"pitch": 42, "velocity": 80, "note_on_time": 4.572, "note_off_time": 4.791}, {"pitch": 64, "velocity": 80, "note_on_time": 4.791, "note_off_time": 5.007}, {"pitch": 42, "velocity": 80, "note_on_time": 4.791, "note_off_time": 5.007}, {"pitch": 67, "velocity": 80, "note_on_time": 5.007, "note_off_time": 5.223}, {"pitch": 42, "velocity": 80, "note_on_time": 5.007, "note_off_time": 5.223}, {"pitch": 60, "velocity": 80, "note_on_time": 5.223, "note_off_time": 5.439}, {"pitch": 42, "velocity": 80, "note_on_time": 5.223, "note_off_time": 5.439}, {"pitch": 42, "velocity": 80, "note_on_time": 5.439, "note_off_time": 5.657}, {"pitch": 65, "velocity": 80, "note_on_time": 5.439, "note_off_time": 5.875}, {"pitch": 42, "velocity": 80, "note_on_time": 5.657, "note_off_time": 5.875}, {"pitch": 64, "velocity": 80, "note_on_time": 5.875, "note_off_time": 6.093}, {"pitch": 42, "velocity": 80, "note_on_time": 5.875, "note_off_time": 6.093}, {"pitch": 64, "velocity": 80, "note_on_time": 6.093, "note_off_time": 6.31}, {"pitch": 42, "velocity": 80, "note_on_time": 6.093, "note_off_time": 6.31}, {"pitch": 42, "velocity": 80, "note_on_time": 6.31, "note_off_time": 6.529}, {"pitch": 42, "velocity": 80, "note_on_time": 6.529, "note_off_time": 6.746}, {"pitch": 42, "velocity": 80, "note_on_time": 6.746, "note_off_time": 6.964}, {"pitch": 42, "velocity": 80, "note_on_time": 6.964, "note_off_time": 7.181}, {"pitch": 64, "velocity": 80, "note_on_time": 7.181, "note_off_time": 7.4}, {"pitch": 42, "velocity": 80, "note_on_time": 7.181, "note_off_time": 7.4}, {"pitch": 64, "velocity": 80, "note_on_time": 7.4, "note_off_time": 7.619}, {"pitch": 42, "velocity": 80, "note_on_time": 7.4, "note_off_time": 7.619}, {"pitch": 64, "velocity": 80, "note_on_time": 7.619, "note_off_time": 7.836}, {"pitch": 42, "velocity": 80, "note_on_time": 7.619, "note_off_time": 7.836}]</notes><options name="Option List">((4, 4), [0.5, 0.25], 3, 8, &lt;NoteRangePerHand.C_TO_G: 6&gt;, &lt;NoteRangePerHand.ONE_NOTE: 2&gt;, False, True, False, '281')</options></target_notes><trials><trial trial_no="1" timestamp="2022_11_03-10_47_34"><notes name="Played Notes">[{"pitch": 62, "velocity": 85, "note_on_time": 0.904, "note_off_time": 1.5}, {"pitch": 67, "velocity": 77, "note_on_time": 1.712, "note_off_time": 1.831}, {"pitch": 67, "velocity": 68, "note_on_time": 1.92, "note_off_time": 2.111}, {"pitch": 62, "velocity": 73, "note_on_time": 2.153, "note_off_time": 2.357}, {"pitch": 65, "velocity": 81, "note_on_time": 2.378, "note_off_time": 2.623}, {"pitch": 64, "velocity": 73, "note_on_time": 2.596, "note_off_time": 2.891}, {"pitch": 60, "velocity": 77, "note_on_time": 2.89, "note_off_time": 3.091}, {"pitch": 65, "velocity": 78, "note_on_time": 3.101, "note_off_time": 3.315}, {"pitch": 60, "velocity": 63, "note_on_time": 3.321, "note_off_time": 3.556}, {"pitch": 65, "velocity": 69, "note_on_time": 3.543, "note_off_time": 3.778}, {"pitch": 64, "velocity": 70, "note_on_time": 3.74, "note_off_time": 4.029}, {"pitch": 62, "velocity": 68, "note_on_time": 3.992, "note_off_time": 4.205}, {"pitch": 65, "velocity": 84, "note_on_time": 4.218, "note_off_time": 4.309}, {"pitch": 65, "velocity": 78, "note_on_time": 4.446, "note_off_time": 4.693}, {"pitch": 64, "velocity": 58, "note_on_time": 4.616, "note_off_time": 4.905}, {"pitch": 62, "velocity": 76, "note_on_time": 4.876, "note_off_time": 5.092}, {"pitch": 65, "velocity": 82, "note_on_time": 5.1, "note_off_time": 5.334}, {"pitch": 67, "velocity": 67, "note_on_time": 5.345, "note_off_time": 5.571}, {"pitch": 60, "velocity": 62, "note_on_time": 5.606, "note_off_time": 5.807}, {"pitch": 65, "velocity": 76, "note_on_time": 5.821, "note_off_time": 6.319}, {"pitch": 64, "velocity": 70, "note_on_time": 6.322, "note_off_time": 6.407}, {"pitch": 64, "velocity": 83, "note_on_time": 6.558, "note_off_time": 6.732}, {"pitch": 64, "velocity": 77, "note_on_time": 7.22, "note_off_time": 7.298}, {"pitch": 64, "velocity": 77, "note_on_time": 7.427, "note_off_time": 7.525}]</notes><guidance name="Guidance Mode">None</guidance><error name="Error value">0.8707391904761907</error></trial></trials></MIDI>