<MIDI midiNo="2022_12_08-12_21_36"><target_notes><notes name="Note List">[{"pitch": 42, "velocity": 80, "note_on_time": 0.005, "note_off_time": 0.377}, {"pitch": 42, "velocity": 80, "note_on_time": 0.377, "note_off_time": 0.753}, {"pitch": 42, "velocity": 80, "note_on_time": 0.753, "note_off_time": 1.127}, {"pitch": 42, "velocity": 80, "note_on_time": 1.128, "note_off_time": 1.501}, {"pitch": 64, "velocity": 80, "note_on_time": 1.501, "note_off_time": 1.875}, {"pitch": 42, "velocity": 80, "note_on_time": 1.501, "note_off_time": 1.875}, {"pitch": 65, "velocity": 80, "note_on_time": 1.875, "note_off_time": 2.247}, {"pitch": 42, "velocity": 80, "note_on_time": 1.875, "note_off_time": 2.247}, {"pitch": 65, "velocity": 80, "note_on_time": 2.247, "note_off_time": 2.624}, {"pitch": 42, "velocity": 80, "note_on_time": 2.247, "note_off_time": 2.624}, {"pitch": 65, "velocity": 80, "note_on_time": 2.624, "note_off_time": 2.995}, {"pitch": 42, "velocity": 80, "note_on_time": 2.625, "note_off_time": 2.996}, {"pitch": 42, "velocity": 80, "note_on_time": 2.996, "note_off_time": 3.368}, {"pitch": 67, "velocity": 80, "note_on_time": 2.995, "note_off_time": 3.742}, {"pitch": 42, "velocity": 80, "note_on_time": 3.368, "note_off_time": 3.742}, {"pitch": 62, "velocity": 80, "note_on_time": 3.742, "note_off_time": 4.105}, {"pitch": 42, "velocity": 80, "note_on_time": 3.743, "note_off_time": 4.106}, {"pitch": 64, "velocity": 80, "note_on_time": 4.105, "note_off_time": 4.48}, {"pitch": 42, "velocity": 80, "note_on_time": 4.106, "note_off_time": 4.48}, {"pitch": 64, "velocity": 80, "note_on_time": 4.48, "note_off_time": 4.855}, {"pitch": 42, "velocity": 80, "note_on_time": 4.48, "note_off_time": 4.855}, {"pitch": 64, "velocity": 80, "note_on_time": 4.855, "note_off_time": 5.231}, {"pitch": 42, "velocity": 80, "note_on_time": 4.855, "note_off_time": 5.231}, {"pitch": 64, "velocity": 80, "note_on_time": 5.231, "note_off_time": 5.606}, {"pitch": 42, "velocity": 80, "note_on_time": 5.231, "note_off_time": 5.607}, {"pitch": 65, "velocity": 80, "note_on_time": 5.606, "note_off_time": 5.982}, {"pitch": 42, "velocity": 80, "note_on_time": 5.607, "note_off_time": 5.982}, {"pitch": 42, "velocity": 80, "note_on_time": 5.982, "note_off_time": 6.354}, {"pitch": 60, "velocity": 80, "note_on_time": 5.982, "note_off_time": 6.729}, {"pitch": 42, "velocity": 80, "note_on_time": 6.354, "note_off_time": 6.729}, {"pitch": 42, "velocity": 80, "note_on_time": 6.729, "note_off_time": 7.106}, {"pitch": 67, "velocity": 80, "note_on_time": 7.106, "note_off_time": 7.48}, {"pitch": 42, "velocity": 80, "note_on_time": 7.106, "note_off_time": 7.48}, {"pitch": 62, "velocity": 80, "note_on_time": 7.48, "note_off_time": 7.852}, {"pitch": 42, "velocity": 80, "note_on_time": 7.48, "note_off_time": 7.852}, {"pitch": 64, "velocity": 80, "note_on_time": 7.852, "note_off_time": 8.226}, {"pitch": 42, "velocity": 80, "note_on_time": 7.852, "note_off_time": 8.226}, {"pitch": 67, "velocity": 80, "note_on_time": 8.226, "note_off_time": 8.6}, {"pitch": 42, "velocity": 80, "note_on_time": 8.226, "note_off_time": 8.6}, {"pitch": 67, "velocity": 80, "note_on_time": 8.6, "note_off_time": 8.972}, {"pitch": 42, "velocity": 80, "note_on_time": 8.6, "note_off_time": 8.972}, {"pitch": 42, "velocity": 80, "note_on_time": 8.973, "note_off_time": 9.346}, {"pitch": 62, "velocity": 80, "note_on_time": 8.972, "note_off_time": 9.719}, {"pitch": 42, "velocity": 80, "note_on_time": 9.346, "note_off_time": 9.719}, {"pitch": 42, "velocity": 80, "note_on_time": 9.72, "note_off_time": 10.093}, {"pitch": 62, "velocity": 80, "note_on_time": 9.719, "note_off_time": 10.465}, {"pitch": 42, "velocity": 80, "note_on_time": 10.093, "note_off_time": 10.466}, {"pitch": 64, "velocity": 80, "note_on_time": 10.465, "note_off_time": 10.839}, {"pitch": 42, "velocity": 80, "note_on_time": 10.466, "note_off_time": 10.839}, {"pitch": 60, "velocity": 80, "note_on_time": 10.839, "note_off_time": 11.214}, {"pitch": 42, "velocity": 80, "note_on_time": 10.839, "note_off_time": 11.215}, {"pitch": 60, "velocity": 80, "note_on_time": 11.214, "note_off_time": 11.587}, {"pitch": 42, "velocity": 80, "note_on_time": 11.215, "note_off_time": 11.587}, {"pitch": 60, "velocity": 80, "note_on_time": 11.587, "note_off_time": 11.951}, {"pitch": 42, "velocity": 80, "note_on_time": 11.587, "note_off_time": 11.952}, {"pitch": 42, "velocity": 80, "note_on_time": 11.952, "note_off_time": 12.325}, {"pitch": 60, "velocity": 80, "note_on_time": 12.325, "note_off_time": 12.699}, {"pitch": 42, "velocity": 80, "note_on_time": 12.326, "note_off_time": 12.7}, {"pitch": 60, "velocity": 80, "note_on_time": 12.699, "note_off_time": 13.073}, {"pitch": 42, "velocity": 80, "note_on_time": 12.7, "note_off_time": 13.073}, {"pitch": 60, "velocity": 80, "note_on_time": 13.073, "note_off_time": 13.447}, {"pitch": 42, "velocity": 80, "note_on_time": 13.073, "note_off_time": 13.448}]</notes><options name="Option List">((4, 4), [0.5, 0.25], 3, 8, &lt;NoteRangePerHand.C_TO_G: 6&gt;, &lt;NoteRangePerHand.ONE_NOTE: 2&gt;, False, True, False, 166)</options></target_notes><trials><trial trial_no="1" timestamp="2022_12_08-12_21_21"><notes name="Played Notes">[{"pitch": 64, "velocity": 67, "note_on_time": 1.888, "note_off_time": 2.152}, {"pitch": 65, "velocity": 72, "note_on_time": 2.261, "note_off_time": 2.525}, {"pitch": 65, "velocity": 66, "note_on_time": 2.644, "note_off_time": 2.903}, {"pitch": 67, "velocity": 68, "note_on_time": 3.018, "note_off_time": 3.646}, {"pitch": 62, "velocity": 59, "note_on_time": 3.725, "note_off_time": 4.07}, {"pitch": 64, "velocity": 65, "note_on_time": 4.101, "note_off_time": 4.351}, {"pitch": 64, "velocity": 63, "note_on_time": 4.499, "note_off_time": 4.744}, {"pitch": 64, "velocity": 64, "note_on_time": 4.882, "note_off_time": 5.102}, {"pitch": 64, "velocity": 70, "note_on_time": 5.266, "note_off_time": 5.618}, {"pitch": 65, "velocity": 69, "note_on_time": 5.633, "note_off_time": 5.961}, {"pitch": 60, "velocity": 60, "note_on_time": 6.02, "note_off_time": 6.772}, {"pitch": 67, "velocity": 68, "note_on_time": 7.1, "note_off_time": 7.506}, {"pitch": 62, "velocity": 73, "note_on_time": 7.498, "note_off_time": 7.837}, {"pitch": 64, "velocity": 62, "note_on_time": 7.871, "note_off_time": 8.216}, {"pitch": 67, "velocity": 68, "note_on_time": 8.228, "note_off_time": 8.432}, {"pitch": 67, "velocity": 58, "note_on_time": 8.599, "note_off_time": 8.96}, {"pitch": 62, "velocity": 55, "note_on_time": 8.989, "note_off_time": 9.56}, {"pitch": 62, "velocity": 63, "note_on_time": 9.718, "note_off_time": 10.283}, {"pitch": 64, "velocity": 61, "note_on_time": 10.451, "note_off_time": 10.801}, {"pitch": 60, "velocity": 60, "note_on_time": 10.84, "note_off_time": 11.061}, {"pitch": 60, "velocity": 64, "note_on_time": 11.217, "note_off_time": 11.444}, {"pitch": 60, "velocity": 61, "note_on_time": 11.597, "note_off_time": 12.007}, {"pitch": 60, "velocity": 65, "note_on_time": 12.327, "note_off_time": 12.533}, {"pitch": 60, "velocity": 54, "note_on_time": 12.713, "note_off_time": 12.916}, {"pitch": 60, "velocity": 65, "note_on_time": 13.075, "note_off_time": 13.441}]</notes><guidance name="Guidance Mode">None</guidance><error name="Error value">0.07577739130434796</error></trial><trial trial_no="2" timestamp="2022_12_08-12_22_08"><notes name="Played Notes">[{"pitch": 64, "velocity": 70, "note_on_time": 1.49, "note_off_time": 1.828}, {"pitch": 65, "velocity": 68, "note_on_time": 1.892, "note_off_time": 2.118}, {"pitch": 65, "velocity": 73, "note_on_time": 2.26, "note_off_time": 2.444}, {"pitch": 65, "velocity": 65, "note_on_time": 2.616, "note_off_time": 2.975}, {"pitch": 67, "velocity": 68, "note_on_time": 2.997, "note_off_time": 3.812}, {"pitch": 62, "velocity": 64, "note_on_time": 3.765, "note_off_time": 4.105}, {"pitch": 64, "velocity": 64, "note_on_time": 4.115, "note_off_time": 4.379}, {"pitch": 64, "velocity": 59, "note_on_time": 4.477, "note_off_time": 4.736}, {"pitch": 64, "velocity": 70, "note_on_time": 4.879, "note_off_time": 5.085}, {"pitch": 64, "velocity": 74, "note_on_time": 5.241, "note_off_time": 5.643}, {"pitch": 65, "velocity": 66, "note_on_time": 5.643, "note_off_time": 5.975}, {"pitch": 60, "velocity": 67, "note_on_time": 6.028, "note_off_time": 6.916}, {"pitch": 67, "velocity": 75, "note_on_time": 7.117, "note_off_time": 7.487}, {"pitch": 62, "velocity": 69, "note_on_time": 7.5, "note_off_time": 7.86}, {"pitch": 64, "velocity": 72, "note_on_time": 7.872, "note_off_time": 8.221}, {"pitch": 67, "velocity": 68, "note_on_time": 8.245, "note_off_time": 8.463}, {"pitch": 67, "velocity": 66, "note_on_time": 8.601, "note_off_time": 8.982}, {"pitch": 62, "velocity": 61, "note_on_time": 9.005, "note_off_time": 9.567}, {"pitch": 62, "velocity": 64, "note_on_time": 9.739, "note_off_time": 10.375}, {"pitch": 64, "velocity": 75, "note_on_time": 10.501, "note_off_time": 10.84}, {"pitch": 60, "velocity": 62, "note_on_time": 10.876, "note_off_time": 11.089}, {"pitch": 60, "velocity": 62, "note_on_time": 11.268, "note_off_time": 11.48}, {"pitch": 60, "velocity": 64, "note_on_time": 11.649, "note_off_time": 12.014}, {"pitch": 60, "velocity": 59, "note_on_time": 12.374, "note_off_time": 12.574}, {"pitch": 60, "velocity": 60, "note_on_time": 12.747, "note_off_time": 12.968}, {"pitch": 60, "velocity": 58, "note_on_time": 13.138, "note_off_time": 13.458}]</notes><guidance name="Guidance Mode">None</guidance><error name="Error value">0.021211956521739125</error></trial><trial trial_no="3" timestamp="2022_12_08-12_22_31"><notes name="Played Notes">[{"pitch": 64, "velocity": 69, "note_on_time": 1.498, "note_off_time": 1.806}, {"pitch": 65, "velocity": 63, "note_on_time": 1.882, "note_off_time": 2.108}, {"pitch": 65, "velocity": 71, "note_on_time": 2.263, "note_off_time": 2.456}, {"pitch": 65, "velocity": 64, "note_on_time": 2.634, "note_off_time": 2.953}, {"pitch": 67, "velocity": 63, "note_on_time": 3.006, "note_off_time": 3.766}, {"pitch": 62, "velocity": 59, "note_on_time": 3.752, "note_off_time": 4.11}, {"pitch": 64, "velocity": 67, "note_on_time": 4.113, "note_off_time": 4.347}, {"pitch": 64, "velocity": 68, "note_on_time": 4.475, "note_off_time": 4.719}, {"pitch": 64, "velocity": 73, "note_on_time": 4.863, "note_off_time": 5.096}, {"pitch": 64, "velocity": 73, "note_on_time": 5.244, "note_off_time": 5.617}, {"pitch": 65, "velocity": 67, "note_on_time": 5.625, "note_off_time": 5.918}, {"pitch": 60, "velocity": 69, "note_on_time": 5.988, "note_off_time": 6.832}, {"pitch": 67, "velocity": 77, "note_on_time": 7.073, "note_off_time": 7.486}, {"pitch": 62, "velocity": 67, "note_on_time": 7.479, "note_off_time": 7.826}, {"pitch": 64, "velocity": 68, "note_on_time": 7.831, "note_off_time": 8.197}, {"pitch": 67, "velocity": 73, "note_on_time": 8.218, "note_off_time": 8.456}, {"pitch": 67, "velocity": 62, "note_on_time": 8.601, "note_off_time": 8.964}, {"pitch": 62, "velocity": 59, "note_on_time": 8.995, "note_off_time": 9.565}, {"pitch": 62, "velocity": 66, "note_on_time": 9.731, "note_off_time": 10.334}, {"pitch": 64, "velocity": 74, "note_on_time": 10.483, "note_off_time": 10.821}, {"pitch": 60, "velocity": 73, "note_on_time": 10.858, "note_off_time": 11.076}, {"pitch": 60, "velocity": 60, "note_on_time": 11.258, "note_off_time": 11.481}, {"pitch": 60, "velocity": 72, "note_on_time": 11.637, "note_off_time": 12.023}, {"pitch": 60, "velocity": 71, "note_on_time": 12.383, "note_off_time": 12.606}, {"pitch": 60, "velocity": 66, "note_on_time": 12.76, "note_off_time": 12.985}]</notes><guidance name="Guidance Mode">None</guidance><error name="Error value">0.07825543478260878</error></trial></trials></MIDI>