<MIDI midiNo="2022_09_08-11_46_09"><target_notes><notes name="Note List">[{"pitch": 42, "velocity": 80, "note_on_time": 0.003, "note_off_time": 0.367}, {"pitch": 42, "velocity": 80, "note_on_time": 0.367, "note_off_time": 0.74}, {"pitch": 42, "velocity": 80, "note_on_time": 0.74, "note_off_time": 1.116}, {"pitch": 42, "velocity": 80, "note_on_time": 1.117, "note_off_time": 1.488}, {"pitch": 60, "velocity": 80, "note_on_time": 1.488, "note_off_time": 1.862}, {"pitch": 42, "velocity": 80, "note_on_time": 1.488, "note_off_time": 1.862}, {"pitch": 42, "velocity": 80, "note_on_time": 1.862, "note_off_time": 2.235}, {"pitch": 64, "velocity": 80, "note_on_time": 2.234, "note_off_time": 2.607}, {"pitch": 42, "velocity": 80, "note_on_time": 2.235, "note_off_time": 2.608}, {"pitch": 64, "velocity": 80, "note_on_time": 2.607, "note_off_time": 2.979}, {"pitch": 42, "velocity": 80, "note_on_time": 2.608, "note_off_time": 2.979}, {"pitch": 42, "velocity": 80, "note_on_time": 2.979, "note_off_time": 3.355}, {"pitch": 62, "velocity": 80, "note_on_time": 2.979, "note_off_time": 3.728}, {"pitch": 42, "velocity": 80, "note_on_time": 3.355, "note_off_time": 3.728}, {"pitch": 42, "velocity": 80, "note_on_time": 3.728, "note_off_time": 4.099}, {"pitch": 60, "velocity": 80, "note_on_time": 4.099, "note_off_time": 4.472}, {"pitch": 42, "velocity": 80, "note_on_time": 4.099, "note_off_time": 4.472}, {"pitch": 62, "velocity": 80, "note_on_time": 4.472, "note_off_time": 4.846}, {"pitch": 42, "velocity": 80, "note_on_time": 4.472, "note_off_time": 4.846}, {"pitch": 64, "velocity": 80, "note_on_time": 4.846, "note_off_time": 5.22}, {"pitch": 42, "velocity": 80, "note_on_time": 4.846, "note_off_time": 5.22}, {"pitch": 60, "velocity": 80, "note_on_time": 5.22, "note_off_time": 5.593}, {"pitch": 42, "velocity": 80, "note_on_time": 5.221, "note_off_time": 5.593}, {"pitch": 62, "velocity": 80, "note_on_time": 5.593, "note_off_time": 5.967}, {"pitch": 42, "velocity": 80, "note_on_time": 5.594, "note_off_time": 5.967}, {"pitch": 64, "velocity": 80, "note_on_time": 5.967, "note_off_time": 6.34}, {"pitch": 42, "velocity": 80, "note_on_time": 5.967, "note_off_time": 6.34}, {"pitch": 60, "velocity": 80, "note_on_time": 6.34, "note_off_time": 6.717}, {"pitch": 42, "velocity": 80, "note_on_time": 6.34, "note_off_time": 6.718}, {"pitch": 42, "velocity": 80, "note_on_time": 6.718, "note_off_time": 7.093}, {"pitch": 62, "velocity": 80, "note_on_time": 6.717, "note_off_time": 7.465}, {"pitch": 42, "velocity": 80, "note_on_time": 7.093, "note_off_time": 7.465}, {"pitch": 42, "velocity": 80, "note_on_time": 7.465, "note_off_time": 7.839}, {"pitch": 60, "velocity": 80, "note_on_time": 7.465, "note_off_time": 8.214}, {"pitch": 42, "velocity": 80, "note_on_time": 7.839, "note_off_time": 8.215}, {"pitch": 62, "velocity": 80, "note_on_time": 8.214, "note_off_time": 8.589}, {"pitch": 42, "velocity": 80, "note_on_time": 8.215, "note_off_time": 8.589}, {"pitch": 60, "velocity": 80, "note_on_time": 8.589, "note_off_time": 8.961}, {"pitch": 42, "velocity": 80, "note_on_time": 8.59, "note_off_time": 8.962}, {"pitch": 62, "velocity": 80, "note_on_time": 8.961, "note_off_time": 9.335}, {"pitch": 42, "velocity": 80, "note_on_time": 8.962, "note_off_time": 9.335}, {"pitch": 60, "velocity": 80, "note_on_time": 9.335, "note_off_time": 9.709}, {"pitch": 42, "velocity": 80, "note_on_time": 9.335, "note_off_time": 9.709}, {"pitch": 62, "velocity": 80, "note_on_time": 9.709, "note_off_time": 10.083}, {"pitch": 42, "velocity": 80, "note_on_time": 9.709, "note_off_time": 10.084}, {"pitch": 60, "velocity": 80, "note_on_time": 10.083, "note_off_time": 10.459}, {"pitch": 42, "velocity": 80, "note_on_time": 10.084, "note_off_time": 10.459}, {"pitch": 60, "velocity": 80, "note_on_time": 10.459, "note_off_time": 10.833}, {"pitch": 42, "velocity": 80, "note_on_time": 10.46, "note_off_time": 10.833}, {"pitch": 60, "velocity": 80, "note_on_time": 10.833, "note_off_time": 11.207}, {"pitch": 42, "velocity": 80, "note_on_time": 10.833, "note_off_time": 11.207}, {"pitch": 60, "velocity": 80, "note_on_time": 11.207, "note_off_time": 11.581}, {"pitch": 42, "velocity": 80, "note_on_time": 11.207, "note_off_time": 11.581}, {"pitch": 60, "velocity": 80, "note_on_time": 11.581, "note_off_time": 11.955}, {"pitch": 42, "velocity": 80, "note_on_time": 11.582, "note_off_time": 11.955}, {"pitch": 42, "velocity": 80, "note_on_time": 11.956, "note_off_time": 12.328}, {"pitch": 60, "velocity": 80, "note_on_time": 12.328, "note_off_time": 12.703}, {"pitch": 42, "velocity": 80, "note_on_time": 12.329, "note_off_time": 12.703}, {"pitch": 60, "velocity": 80, "note_on_time": 12.703, "note_off_time": 13.078}, {"pitch": 42, "velocity": 80, "note_on_time": 12.703, "note_off_time": 13.078}, {"pitch": 60, "velocity": 80, "note_on_time": 13.078, "note_off_time": 13.451}, {"pitch": 42, "velocity": 80, "note_on_time": 13.078, "note_off_time": 13.451}]</notes><options name="Option List">((4, 4), [0.5, 0.25], 3, 8, &lt;NoteRangePerHand.THREE_NOTES: 4&gt;, &lt;NoteRangePerHand.ONE_NOTE: 2&gt;, False, True, True, '166')</options></target_notes><trials><trial trial_no="1" timestamp="2022_09_08-11_45_54"><notes name="Played Notes">[{"pitch": 60, "velocity": 107, "note_on_time": 3.393, "note_off_time": 3.59}, {"pitch": 64, "velocity": 92, "note_on_time": 3.979, "note_off_time": 4.092}, {"pitch": 62, "velocity": 80, "note_on_time": 4.707, "note_off_time": 4.824}, {"pitch": 62, "velocity": 43, "note_on_time": 4.955, "note_off_time": 5.613}, {"pitch": 60, "velocity": 64, "note_on_time": 6.568, "note_off_time": 6.67}, {"pitch": 62, "velocity": 88, "note_on_time": 7.006, "note_off_time": 7.156}, {"pitch": 64, "velocity": 85, "note_on_time": 7.409, "note_off_time": 7.615}, {"pitch": 60, "velocity": 90, "note_on_time": 7.828, "note_off_time": 7.997}, {"pitch": 62, "velocity": 81, "note_on_time": 8.245, "note_off_time": 8.396}, {"pitch": 64, "velocity": 86, "note_on_time": 8.667, "note_off_time": 8.823}, {"pitch": 60, "velocity": 89, "note_on_time": 9.065, "note_off_time": 9.216}, {"pitch": 62, "velocity": 99, "note_on_time": 9.465, "note_off_time": 10.417}, {"pitch": 60, "velocity": 95, "note_on_time": 10.69, "note_off_time": 11.551}, {"pitch": 62, "velocity": 89, "note_on_time": 11.805, "note_off_time": 12.015}, {"pitch": 60, "velocity": 89, "note_on_time": 12.233, "note_off_time": 12.4}, {"pitch": 62, "velocity": 86, "note_on_time": 12.658, "note_off_time": 12.84}, {"pitch": 60, "velocity": 94, "note_on_time": 13.077, "note_off_time": 13.245}]</notes><guidance name="Guidance Mode">None</guidance><error name="Error value">0.9187152173913042</error></trial><trial trial_no="2" timestamp="2022_09_08-11_47_10"><notes name="Played Notes">[{"pitch": 60, "velocity": 96, "note_on_time": 1.551, "note_off_time": 1.702}, {"pitch": 62, "velocity": 89, "note_on_time": 2.306, "note_off_time": 2.407}, {"pitch": 62, "velocity": 85, "note_on_time": 2.679, "note_off_time": 2.785}, {"pitch": 60, "velocity": 84, "note_on_time": 3.124, "note_off_time": 3.817}, {"pitch": 60, "velocity": 91, "note_on_time": 4.655, "note_off_time": 4.81}, {"pitch": 62, "velocity": 91, "note_on_time": 5.025, "note_off_time": 5.176}, {"pitch": 64, "velocity": 84, "note_on_time": 5.461, "note_off_time": 5.585}, {"pitch": 60, "velocity": 84, "note_on_time": 5.863, "note_off_time": 6.027}, {"pitch": 62, "velocity": 86, "note_on_time": 6.266, "note_off_time": 6.405}, {"pitch": 60, "velocity": 85, "note_on_time": 6.694, "note_off_time": 6.841}, {"pitch": 64, "velocity": 90, "note_on_time": 7.127, "note_off_time": 7.279}, {"pitch": 60, "velocity": 94, "note_on_time": 7.552, "note_off_time": 7.694}, {"pitch": 62, "velocity": 96, "note_on_time": 7.961, "note_off_time": 8.672}, {"pitch": 60, "velocity": 103, "note_on_time": 8.848, "note_off_time": 9.35}, {"pitch": 62, "velocity": 90, "note_on_time": 9.583, "note_off_time": 9.759}, {"pitch": 60, "velocity": 86, "note_on_time": 10.006, "note_off_time": 10.17}, {"pitch": 62, "velocity": 90, "note_on_time": 10.393, "note_off_time": 10.564}, {"pitch": 60, "velocity": 90, "note_on_time": 10.805, "note_off_time": 10.957}, {"pitch": 62, "velocity": 83, "note_on_time": 11.181, "note_off_time": 11.316}, {"pitch": 60, "velocity": 87, "note_on_time": 11.572, "note_off_time": 11.702}, {"pitch": 60, "velocity": 86, "note_on_time": 11.984, "note_off_time": 12.114}, {"pitch": 60, "velocity": 84, "note_on_time": 12.372, "note_off_time": 12.498}, {"pitch": 60, "velocity": 88, "note_on_time": 12.773, "note_off_time": 12.992}]</notes><guidance name="Guidance Mode">None</guidance><error name="Error value">0.607453695652174</error></trial><trial trial_no="3" timestamp="2022_09_08-11_47_49"><notes name="Played Notes">[{"pitch": 60, "velocity": 98, "note_on_time": 1.914, "note_off_time": 2.085}, {"pitch": 64, "velocity": 92, "note_on_time": 2.714, "note_off_time": 2.818}, {"pitch": 64, "velocity": 87, "note_on_time": 3.113, "note_off_time": 3.228}, {"pitch": 62, "velocity": 94, "note_on_time": 3.519, "note_off_time": 4.141}, {"pitch": 60, "velocity": 98, "note_on_time": 4.466, "note_off_time": 4.624}, {"pitch": 62, "velocity": 93, "note_on_time": 4.843, "note_off_time": 4.963}, {"pitch": 64, "velocity": 84, "note_on_time": 5.269, "note_off_time": 5.359}, {"pitch": 60, "velocity": 89, "note_on_time": 5.632, "note_off_time": 5.764}, {"pitch": 62, "velocity": 93, "note_on_time": 6.026, "note_off_time": 6.119}, {"pitch": 64, "velocity": 83, "note_on_time": 6.433, "note_off_time": 6.538}, {"pitch": 60, "velocity": 87, "note_on_time": 6.806, "note_off_time": 6.959}, {"pitch": 62, "velocity": 97, "note_on_time": 7.188, "note_off_time": 7.639}, {"pitch": 60, "velocity": 98, "note_on_time": 7.936, "note_off_time": 8.348}, {"pitch": 62, "velocity": 90, "note_on_time": 8.555, "note_off_time": 8.692}, {"pitch": 60, "velocity": 91, "note_on_time": 8.937, "note_off_time": 9.058}, {"pitch": 62, "velocity": 89, "note_on_time": 9.309, "note_off_time": 9.454}, {"pitch": 60, "velocity": 94, "note_on_time": 9.697, "note_off_time": 9.844}, {"pitch": 60, "velocity": 86, "note_on_time": 10.081, "note_off_time": 10.203}, {"pitch": 60, "velocity": 92, "note_on_time": 10.475, "note_off_time": 10.603}, {"pitch": 60, "velocity": 94, "note_on_time": 10.854, "note_off_time": 11.237}, {"pitch": 60, "velocity": 89, "note_on_time": 11.562, "note_off_time": 11.694}, {"pitch": 60, "velocity": 90, "note_on_time": 11.974, "note_off_time": 12.094}, {"pitch": 60, "velocity": 84, "note_on_time": 12.363, "note_off_time": 12.514}]</notes><guidance name="Guidance Mode">None</guidance><error name="Error value">0.21239108695652179</error></trial><trial trial_no="4" timestamp="2022_09_08-11_48_20"><notes name="Played Notes">[{"pitch": 60, "velocity": 84, "note_on_time": 1.889, "note_off_time": 2.052}, {"pitch": 64, "velocity": 88, "note_on_time": 2.279, "note_off_time": 2.393}, {"pitch": 64, "velocity": 92, "note_on_time": 2.675, "note_off_time": 2.83}, {"pitch": 62, "velocity": 91, "note_on_time": 3.063, "note_off_time": 3.548}, {"pitch": 60, "velocity": 92, "note_on_time": 4.083, "note_off_time": 4.272}, {"pitch": 62, "velocity": 88, "note_on_time": 4.476, "note_off_time": 4.597}, {"pitch": 64, "velocity": 88, "note_on_time": 4.865, "note_off_time": 4.999}, {"pitch": 60, "velocity": 82, "note_on_time": 5.261, "note_off_time": 5.402}, {"pitch": 62, "velocity": 84, "note_on_time": 5.658, "note_off_time": 5.761}, {"pitch": 64, "velocity": 84, "note_on_time": 6.063, "note_off_time": 6.152}, {"pitch": 60, "velocity": 79, "note_on_time": 6.433, "note_off_time": 6.555}, {"pitch": 62, "velocity": 88, "note_on_time": 6.832, "note_off_time": 7.351}, {"pitch": 60, "velocity": 95, "note_on_time": 7.59, "note_off_time": 8.049}, {"pitch": 62, "velocity": 83, "note_on_time": 8.308, "note_off_time": 8.476}, {"pitch": 60, "velocity": 85, "note_on_time": 8.684, "note_off_time": 8.846}, {"pitch": 62, "velocity": 84, "note_on_time": 9.07, "note_off_time": 9.229}, {"pitch": 60, "velocity": 89, "note_on_time": 9.453, "note_off_time": 9.601}, {"pitch": 60, "velocity": 77, "note_on_time": 9.867, "note_off_time": 10.022}, {"pitch": 60, "velocity": 81, "note_on_time": 10.243, "note_off_time": 10.381}, {"pitch": 60, "velocity": 77, "note_on_time": 10.63, "note_off_time": 11.098}, {"pitch": 60, "velocity": 87, "note_on_time": 11.678, "note_off_time": 11.838}, {"pitch": 60, "velocity": 85, "note_on_time": 12.062, "note_off_time": 12.229}, {"pitch": 60, "velocity": 97, "note_on_time": 12.436, "note_off_time": 12.601}]</notes><guidance name="Guidance Mode">None</guidance><error name="Error value">0.2744104347826088</error></trial></trials></MIDI>