<MIDI midiNo="2022_11_14-18_24_12"><target_notes><notes name="Note List">[{"pitch": 42, "velocity": 80, "note_on_time": 0.005, "note_off_time": 0.382}, {"pitch": 42, "velocity": 80, "note_on_time": 0.382, "note_off_time": 0.755}, {"pitch": 42, "velocity": 80, "note_on_time": 0.755, "note_off_time": 1.129}, {"pitch": 42, "velocity": 80, "note_on_time": 1.129, "note_off_time": 1.502}, {"pitch": 65, "velocity": 80, "note_on_time": 1.502, "note_off_time": 1.876}, {"pitch": 42, "velocity": 80, "note_on_time": 1.502, "note_off_time": 1.877}, {"pitch": 65, "velocity": 80, "note_on_time": 1.876, "note_off_time": 2.248}, {"pitch": 42, "velocity": 80, "note_on_time": 1.877, "note_off_time": 2.248}, {"pitch": 60, "velocity": 80, "note_on_time": 2.248, "note_off_time": 2.622}, {"pitch": 42, "velocity": 80, "note_on_time": 2.249, "note_off_time": 2.622}, {"pitch": 64, "velocity": 80, "note_on_time": 2.622, "note_off_time": 2.996}, {"pitch": 42, "velocity": 80, "note_on_time": 2.622, "note_off_time": 2.996}, {"pitch": 64, "velocity": 80, "note_on_time": 2.996, "note_off_time": 3.372}, {"pitch": 42, "velocity": 80, "note_on_time": 2.996, "note_off_time": 3.372}, {"pitch": 65, "velocity": 80, "note_on_time": 3.372, "note_off_time": 3.744}, {"pitch": 42, "velocity": 80, "note_on_time": 3.373, "note_off_time": 3.744}, {"pitch": 65, "velocity": 80, "note_on_time": 3.744, "note_off_time": 4.122}, {"pitch": 42, "velocity": 80, "note_on_time": 3.745, "note_off_time": 4.122}, {"pitch": 64, "velocity": 80, "note_on_time": 4.122, "note_off_time": 4.497}, {"pitch": 42, "velocity": 80, "note_on_time": 4.122, "note_off_time": 4.497}, {"pitch": 42, "velocity": 80, "note_on_time": 4.497, "note_off_time": 4.87}, {"pitch": 62, "velocity": 80, "note_on_time": 4.497, "note_off_time": 5.245}, {"pitch": 42, "velocity": 80, "note_on_time": 4.871, "note_off_time": 5.245}, {"pitch": 64, "velocity": 80, "note_on_time": 5.245, "note_off_time": 5.618}, {"pitch": 42, "velocity": 80, "note_on_time": 5.245, "note_off_time": 5.618}, {"pitch": 60, "velocity": 80, "note_on_time": 5.618, "note_off_time": 5.989}, {"pitch": 42, "velocity": 80, "note_on_time": 5.619, "note_off_time": 5.99}, {"pitch": 60, "velocity": 80, "note_on_time": 5.989, "note_off_time": 6.361}, {"pitch": 42, "velocity": 80, "note_on_time": 5.99, "note_off_time": 6.361}, {"pitch": 65, "velocity": 80, "note_on_time": 6.361, "note_off_time": 6.735}, {"pitch": 42, "velocity": 80, "note_on_time": 6.361, "note_off_time": 6.735}, {"pitch": 42, "velocity": 80, "note_on_time": 6.736, "note_off_time": 7.111}, {"pitch": 62, "velocity": 80, "note_on_time": 6.735, "note_off_time": 7.488}, {"pitch": 42, "velocity": 80, "note_on_time": 7.111, "note_off_time": 7.488}, {"pitch": 42, "velocity": 80, "note_on_time": 7.489, "note_off_time": 7.861}, {"pitch": 64, "velocity": 80, "note_on_time": 7.488, "note_off_time": 8.234}, {"pitch": 42, "velocity": 80, "note_on_time": 7.861, "note_off_time": 8.234}, {"pitch": 42, "velocity": 80, "note_on_time": 8.234, "note_off_time": 8.608}, {"pitch": 42, "velocity": 80, "note_on_time": 8.609, "note_off_time": 8.982}, {"pitch": 60, "velocity": 80, "note_on_time": 8.982, "note_off_time": 9.355}, {"pitch": 42, "velocity": 80, "note_on_time": 8.983, "note_off_time": 9.355}, {"pitch": 65, "velocity": 80, "note_on_time": 9.355, "note_off_time": 9.729}, {"pitch": 42, "velocity": 80, "note_on_time": 9.356, "note_off_time": 9.73}, {"pitch": 64, "velocity": 80, "note_on_time": 9.729, "note_off_time": 10.103}, {"pitch": 42, "velocity": 80, "note_on_time": 9.73, "note_off_time": 10.103}, {"pitch": 64, "velocity": 80, "note_on_time": 10.103, "note_off_time": 10.47}, {"pitch": 42, "velocity": 80, "note_on_time": 10.103, "note_off_time": 10.47}, {"pitch": 62, "velocity": 80, "note_on_time": 10.47, "note_off_time": 10.845}, {"pitch": 42, "velocity": 80, "note_on_time": 10.471, "note_off_time": 10.845}, {"pitch": 65, "velocity": 80, "note_on_time": 10.845, "note_off_time": 11.217}, {"pitch": 42, "velocity": 80, "note_on_time": 10.845, "note_off_time": 11.217}, {"pitch": 42, "velocity": 80, "note_on_time": 11.217, "note_off_time": 11.59}, {"pitch": 60, "velocity": 80, "note_on_time": 11.217, "note_off_time": 11.964}, {"pitch": 42, "velocity": 80, "note_on_time": 11.591, "note_off_time": 11.964}, {"pitch": 42, "velocity": 80, "note_on_time": 11.964, "note_off_time": 12.337}, {"pitch": 60, "velocity": 80, "note_on_time": 12.337, "note_off_time": 12.711}, {"pitch": 42, "velocity": 80, "note_on_time": 12.338, "note_off_time": 12.711}, {"pitch": 60, "velocity": 80, "note_on_time": 12.711, "note_off_time": 13.084}, {"pitch": 42, "velocity": 80, "note_on_time": 12.712, "note_off_time": 13.084}, {"pitch": 60, "velocity": 80, "note_on_time": 13.084, "note_off_time": 13.458}, {"pitch": 42, "velocity": 80, "note_on_time": 13.085, "note_off_time": 13.458}]</notes><options name="Option List">((4, 4), [0.5, 0.25], 3, 8, &lt;NoteRangePerHand.FOUR_NOTES: 5&gt;, &lt;NoteRangePerHand.ONE_NOTE: 2&gt;, False, True, False, '166')</options></target_notes><trials><trial trial_no="1" timestamp="2022_11_14-18_23_57"><notes name="Played Notes">[{"pitch": 65, "velocity": 82, "note_on_time": 1.494, "note_off_time": 1.639}, {"pitch": 65, "velocity": 81, "note_on_time": 1.859, "note_off_time": 2.117}, {"pitch": 60, "velocity": 66, "note_on_time": 2.224, "note_off_time": 2.467}, {"pitch": 64, "velocity": 82, "note_on_time": 2.628, "note_off_time": 2.792}, {"pitch": 64, "velocity": 87, "note_on_time": 3.0, "note_off_time": 3.169}, {"pitch": 65, "velocity": 85, "note_on_time": 3.362, "note_off_time": 3.569}, {"pitch": 65, "velocity": 91, "note_on_time": 3.743, "note_off_time": 3.949}, {"pitch": 64, "velocity": 94, "note_on_time": 4.121, "note_off_time": 4.331}, {"pitch": 62, "velocity": 87, "note_on_time": 4.539, "note_off_time": 5.128}, {"pitch": 64, "velocity": 85, "note_on_time": 5.283, "note_off_time": 5.677}, {"pitch": 60, "velocity": 87, "note_on_time": 5.704, "note_off_time": 6.078}, {"pitch": 60, "velocity": 74, "note_on_time": 6.154, "note_off_time": 6.243}, {"pitch": 64, "velocity": 56, "note_on_time": 6.551, "note_off_time": 6.761}, {"pitch": 62, "velocity": 84, "note_on_time": 7.095, "note_off_time": 7.687}, {"pitch": 64, "velocity": 83, "note_on_time": 7.906, "note_off_time": 8.506}, {"pitch": 60, "velocity": 64, "note_on_time": 9.179, "note_off_time": 9.39}, {"pitch": 60, "velocity": 72, "note_on_time": 9.566, "note_off_time": 9.912}, {"pitch": 65, "velocity": 69, "note_on_time": 9.958, "note_off_time": 10.402}, {"pitch": 64, "velocity": 78, "note_on_time": 10.358, "note_off_time": 10.546}, {"pitch": 64, "velocity": 83, "note_on_time": 10.735, "note_off_time": 11.149}, {"pitch": 62, "velocity": 76, "note_on_time": 11.127, "note_off_time": 11.514}, {"pitch": 65, "velocity": 84, "note_on_time": 11.489, "note_off_time": 11.884}, {"pitch": 60, "velocity": 87, "note_on_time": 11.888, "note_off_time": 12.445}, {"pitch": 60, "velocity": 89, "note_on_time": 12.714, "note_off_time": 12.852}, {"pitch": 60, "velocity": 87, "note_on_time": 13.072, "note_off_time": 13.211}]</notes><guidance name="Guidance Mode">None</guidance><error name="Error value">0.368014772727273</error></trial><trial trial_no="2" timestamp="2022_11_14-18_24_44"><notes name="Played Notes">[{"pitch": 65, "velocity": 75, "note_on_time": 1.512, "note_off_time": 1.644}, {"pitch": 65, "velocity": 85, "note_on_time": 1.869, "note_off_time": 2.202}, {"pitch": 60, "velocity": 88, "note_on_time": 2.223, "note_off_time": 2.612}, {"pitch": 64, "velocity": 84, "note_on_time": 2.617, "note_off_time": 2.792}, {"pitch": 64, "velocity": 90, "note_on_time": 3.028, "note_off_time": 3.387}, {"pitch": 65, "velocity": 83, "note_on_time": 3.386, "note_off_time": 3.572}, {"pitch": 65, "velocity": 89, "note_on_time": 3.746, "note_off_time": 4.166}, {"pitch": 64, "velocity": 82, "note_on_time": 4.124, "note_off_time": 4.54}, {"pitch": 62, "velocity": 84, "note_on_time": 4.512, "note_off_time": 5.267}, {"pitch": 64, "velocity": 77, "note_on_time": 5.245, "note_off_time": 5.664}, {"pitch": 60, "velocity": 85, "note_on_time": 5.64, "note_off_time": 5.829}, {"pitch": 60, "velocity": 85, "note_on_time": 6.003, "note_off_time": 6.366}, {"pitch": 65, "velocity": 80, "note_on_time": 6.368, "note_off_time": 6.75}, {"pitch": 62, "velocity": 84, "note_on_time": 6.733, "note_off_time": 7.533}, {"pitch": 64, "velocity": 84, "note_on_time": 7.498, "note_off_time": 8.002}, {"pitch": 60, "velocity": 87, "note_on_time": 8.99, "note_off_time": 9.376}, {"pitch": 65, "velocity": 86, "note_on_time": 9.359, "note_off_time": 9.788}, {"pitch": 64, "velocity": 85, "note_on_time": 9.729, "note_off_time": 9.867}, {"pitch": 64, "velocity": 88, "note_on_time": 10.106, "note_off_time": 10.527}, {"pitch": 62, "velocity": 81, "note_on_time": 10.492, "note_off_time": 10.892}, {"pitch": 65, "velocity": 85, "note_on_time": 10.853, "note_off_time": 11.234}, {"pitch": 60, "velocity": 88, "note_on_time": 11.224, "note_off_time": 11.774}, {"pitch": 60, "velocity": 92, "note_on_time": 11.994, "note_off_time": 12.131}, {"pitch": 60, "velocity": 94, "note_on_time": 12.345, "note_off_time": 12.465}, {"pitch": 60, "velocity": 97, "note_on_time": 12.74, "note_off_time": 13.089}]</notes><guidance name="Guidance Mode">None</guidance><error name="Error value">0.03214613636363654</error></trial><trial trial_no="3" timestamp="2022_11_14-18_25_17"><notes name="Played Notes">[{"pitch": 65, "velocity": 77, "note_on_time": 1.483, "note_off_time": 1.645}, {"pitch": 65, "velocity": 78, "note_on_time": 1.849, "note_off_time": 2.241}, {"pitch": 60, "velocity": 85, "note_on_time": 2.253, "note_off_time": 2.648}, {"pitch": 64, "velocity": 80, "note_on_time": 2.638, "note_off_time": 2.897}, {"pitch": 64, "velocity": 68, "note_on_time": 3.032, "note_off_time": 3.407}, {"pitch": 65, "velocity": 80, "note_on_time": 3.399, "note_off_time": 3.574}, {"pitch": 65, "velocity": 83, "note_on_time": 3.779, "note_off_time": 4.214}, {"pitch": 64, "velocity": 83, "note_on_time": 4.162, "note_off_time": 4.567}, {"pitch": 62, "velocity": 81, "note_on_time": 4.544, "note_off_time": 5.307}, {"pitch": 64, "velocity": 76, "note_on_time": 5.274, "note_off_time": 5.661}, {"pitch": 60, "velocity": 90, "note_on_time": 5.66, "note_off_time": 5.811}, {"pitch": 60, "velocity": 85, "note_on_time": 6.012, "note_off_time": 6.411}, {"pitch": 65, "velocity": 83, "note_on_time": 6.393, "note_off_time": 6.814}, {"pitch": 62, "velocity": 84, "note_on_time": 6.772, "note_off_time": 7.563}, {"pitch": 64, "velocity": 81, "note_on_time": 7.518, "note_off_time": 8.224}, {"pitch": 60, "velocity": 78, "note_on_time": 8.969, "note_off_time": 9.35}, {"pitch": 65, "velocity": 81, "note_on_time": 9.354, "note_off_time": 9.75}, {"pitch": 64, "velocity": 88, "note_on_time": 9.716, "note_off_time": 9.871}, {"pitch": 64, "velocity": 84, "note_on_time": 10.08, "note_off_time": 10.479}, {"pitch": 62, "velocity": 77, "note_on_time": 10.456, "note_off_time": 10.826}, {"pitch": 65, "velocity": 82, "note_on_time": 10.811, "note_off_time": 11.183}, {"pitch": 60, "velocity": 84, "note_on_time": 11.178, "note_off_time": 11.726}, {"pitch": 60, "velocity": 85, "note_on_time": 12.113, "note_off_time": 12.261}, {"pitch": 60, "velocity": 88, "note_on_time": 12.487, "note_off_time": 12.624}, {"pitch": 60, "velocity": 87, "note_on_time": 12.851, "note_off_time": 13.169}]</notes><guidance name="Guidance Mode">None</guidance><error name="Error value">0.022438863636363948</error></trial></trials></MIDI>