<MIDI midiNo="2022_12_15-12_37_47"><target_notes><notes name="Note List">[{"pitch": 42, "velocity": 80, "note_on_time": 0.004, "note_off_time": 0.727}, {"pitch": 42, "velocity": 80, "note_on_time": 0.727, "note_off_time": 1.462}, {"pitch": 42, "velocity": 80, "note_on_time": 1.463, "note_off_time": 2.194}, {"pitch": 42, "velocity": 80, "note_on_time": 2.195, "note_off_time": 2.929}, {"pitch": 62, "velocity": 80, "note_on_time": 2.929, "note_off_time": 3.665}, {"pitch": 42, "velocity": 80, "note_on_time": 2.929, "note_off_time": 3.665}, {"pitch": 42, "velocity": 80, "note_on_time": 3.665, "note_off_time": 4.399}, {"pitch": 62, "velocity": 80, "note_on_time": 4.399, "note_off_time": 5.131}, {"pitch": 42, "velocity": 80, "note_on_time": 4.4, "note_off_time": 5.131}, {"pitch": 42, "velocity": 80, "note_on_time": 5.132, "note_off_time": 5.864}, {"pitch": 42, "velocity": 80, "note_on_time": 5.864, "note_off_time": 6.594}, {"pitch": 64, "velocity": 80, "note_on_time": 5.864, "note_off_time": 7.328}, {"pitch": 42, "velocity": 80, "note_on_time": 6.594, "note_off_time": 7.328}, {"pitch": 42, "velocity": 80, "note_on_time": 7.328, "note_off_time": 8.061}, {"pitch": 42, "velocity": 80, "note_on_time": 8.061, "note_off_time": 8.796}, {"pitch": 42, "velocity": 80, "note_on_time": 8.796, "note_off_time": 9.529}, {"pitch": 60, "velocity": 80, "note_on_time": 8.796, "note_off_time": 10.262}, {"pitch": 42, "velocity": 80, "note_on_time": 9.529, "note_off_time": 10.262}, {"pitch": 42, "velocity": 80, "note_on_time": 10.263, "note_off_time": 10.992}, {"pitch": 42, "velocity": 80, "note_on_time": 10.993, "note_off_time": 11.725}, {"pitch": 64, "velocity": 80, "note_on_time": 11.725, "note_off_time": 12.459}, {"pitch": 42, "velocity": 80, "note_on_time": 11.725, "note_off_time": 12.459}, {"pitch": 60, "velocity": 80, "note_on_time": 12.459, "note_off_time": 13.193}, {"pitch": 42, "velocity": 80, "note_on_time": 12.459, "note_off_time": 13.193}, {"pitch": 60, "velocity": 80, "note_on_time": 13.193, "note_off_time": 13.927}, {"pitch": 42, "velocity": 80, "note_on_time": 13.193, "note_off_time": 13.927}, {"pitch": 62, "velocity": 80, "note_on_time": 13.927, "note_off_time": 14.658}, {"pitch": 42, "velocity": 80, "note_on_time": 13.927, "note_off_time": 14.658}, {"pitch": 42, "velocity": 80, "note_on_time": 14.659, "note_off_time": 15.395}, {"pitch": 60, "velocity": 80, "note_on_time": 14.658, "note_off_time": 16.131}, {"pitch": 42, "velocity": 80, "note_on_time": 15.395, "note_off_time": 16.131}, {"pitch": 42, "velocity": 80, "note_on_time": 16.132, "note_off_time": 16.865}, {"pitch": 64, "velocity": 80, "note_on_time": 16.864, "note_off_time": 17.598}, {"pitch": 42, "velocity": 80, "note_on_time": 16.865, "note_off_time": 17.599}, {"pitch": 42, "velocity": 80, "note_on_time": 17.599, "note_off_time": 18.332}, {"pitch": 64, "velocity": 80, "note_on_time": 17.598, "note_off_time": 19.067}, {"pitch": 42, "velocity": 80, "note_on_time": 18.333, "note_off_time": 19.068}, {"pitch": 42, "velocity": 80, "note_on_time": 19.068, "note_off_time": 19.799}, {"pitch": 42, "velocity": 80, "note_on_time": 19.799, "note_off_time": 20.531}, {"pitch": 42, "velocity": 80, "note_on_time": 20.531, "note_off_time": 21.267}, {"pitch": 62, "velocity": 80, "note_on_time": 20.531, "note_off_time": 21.999}, {"pitch": 42, "velocity": 80, "note_on_time": 21.267, "note_off_time": 21.999}, {"pitch": 42, "velocity": 80, "note_on_time": 21.999, "note_off_time": 22.734}, {"pitch": 42, "velocity": 80, "note_on_time": 22.734, "note_off_time": 23.467}, {"pitch": 42, "velocity": 80, "note_on_time": 23.467, "note_off_time": 24.202}, {"pitch": 62, "velocity": 80, "note_on_time": 24.202, "note_off_time": 24.934}, {"pitch": 42, "velocity": 80, "note_on_time": 24.202, "note_off_time": 24.934}, {"pitch": 62, "velocity": 80, "note_on_time": 24.934, "note_off_time": 25.668}, {"pitch": 42, "velocity": 80, "note_on_time": 24.934, "note_off_time": 25.668}, {"pitch": 62, "velocity": 80, "note_on_time": 25.668, "note_off_time": 26.406}, {"pitch": 42, "velocity": 80, "note_on_time": 25.668, "note_off_time": 26.407}]</notes><options name="Option List">((4, 4), [0.5, 0.25], 3, 8, &lt;NoteRangePerHand.THREE_NOTES: 4&gt;, &lt;NoteRangePerHand.ONE_NOTE: 2&gt;, False, True, False, '83')</options></target_notes><trials><trial trial_no="1" timestamp="2022_12_15-12_37_19"><notes name="Played Notes">[{"pitch": 74, "velocity": 65, "note_on_time": 2.942, "note_off_time": 3.175}, {"pitch": 74, "velocity": 54, "note_on_time": 4.34, "note_off_time": 4.621}, {"pitch": 76, "velocity": 65, "note_on_time": 5.804, "note_off_time": 6.919}, {"pitch": 72, "velocity": 63, "note_on_time": 8.745, "note_off_time": 9.867}, {"pitch": 76, "velocity": 59, "note_on_time": 11.724, "note_off_time": 11.917}, {"pitch": 72, "velocity": 60, "note_on_time": 12.4, "note_off_time": 12.527}, {"pitch": 72, "velocity": 62, "note_on_time": 13.134, "note_off_time": 13.281}, {"pitch": 74, "velocity": 58, "note_on_time": 13.864, "note_off_time": 14.016}, {"pitch": 72, "velocity": 65, "note_on_time": 14.576, "note_off_time": 15.728}, {"pitch": 76, "velocity": 61, "note_on_time": 16.822, "note_off_time": 16.997}, {"pitch": 76, "velocity": 67, "note_on_time": 17.542, "note_off_time": 18.506}, {"pitch": 74, "velocity": 58, "note_on_time": 20.56, "note_off_time": 21.506}, {"pitch": 74, "velocity": 51, "note_on_time": 24.196, "note_off_time": 24.343}, {"pitch": 74, "velocity": 58, "note_on_time": 24.898, "note_off_time": 25.028}, {"pitch": 74, "velocity": 52, "note_on_time": 25.638, "note_off_time": 25.766}]</notes><guidance name="Guidance Mode">None</guidance><error name="Error value">1.2954225833333335</error></trial><trial trial_no="2" timestamp="2022_12_15-12_37_55"><notes name="Played Notes">[{"pitch": 74, "velocity": 57, "note_on_time": 2.962, "note_off_time": 3.14}, {"pitch": 74, "velocity": 68, "note_on_time": 4.417, "note_off_time": 4.599}, {"pitch": 76, "velocity": 65, "note_on_time": 5.856, "note_off_time": 6.877}, {"pitch": 72, "velocity": 63, "note_on_time": 8.782, "note_off_time": 10.036}, {"pitch": 76, "velocity": 62, "note_on_time": 11.689, "note_off_time": 11.887}, {"pitch": 72, "velocity": 51, "note_on_time": 12.38, "note_off_time": 12.548}, {"pitch": 72, "velocity": 57, "note_on_time": 13.156, "note_off_time": 13.29}, {"pitch": 74, "velocity": 53, "note_on_time": 13.905, "note_off_time": 14.097}, {"pitch": 72, "velocity": 59, "note_on_time": 14.659, "note_off_time": 15.68}, {"pitch": 76, "velocity": 44, "note_on_time": 16.837, "note_off_time": 17.021}, {"pitch": 76, "velocity": 52, "note_on_time": 17.58, "note_off_time": 18.619}, {"pitch": 74, "velocity": 50, "note_on_time": 20.524, "note_off_time": 21.394}, {"pitch": 74, "velocity": 52, "note_on_time": 24.184, "note_off_time": 24.316}, {"pitch": 74, "velocity": 54, "note_on_time": 24.886, "note_off_time": 25.019}, {"pitch": 74, "velocity": 59, "note_on_time": 25.594, "note_off_time": 25.701}]</notes><guidance name="Guidance Mode">None</guidance><error name="Error value">1.2809407499999999</error></trial><trial trial_no="3" timestamp="2022_12_15-12_38_32"><notes name="Played Notes">[{"pitch": 74, "velocity": 49, "note_on_time": 2.934, "note_off_time": 3.142}, {"pitch": 74, "velocity": 38, "note_on_time": 4.416, "note_off_time": 4.598}, {"pitch": 76, "velocity": 7, "note_on_time": 5.901, "note_off_time": 7.005}, {"pitch": 72, "velocity": 40, "note_on_time": 8.78, "note_off_time": 9.992}, {"pitch": 76, "velocity": 53, "note_on_time": 11.708, "note_off_time": 11.884}, {"pitch": 72, "velocity": 58, "note_on_time": 12.443, "note_off_time": 12.556}, {"pitch": 72, "velocity": 60, "note_on_time": 13.214, "note_off_time": 13.324}, {"pitch": 74, "velocity": 40, "note_on_time": 13.963, "note_off_time": 14.117}, {"pitch": 72, "velocity": 60, "note_on_time": 14.651, "note_off_time": 15.54}, {"pitch": 76, "velocity": 48, "note_on_time": 16.85, "note_off_time": 17.03}, {"pitch": 76, "velocity": 64, "note_on_time": 17.537, "note_off_time": 18.379}, {"pitch": 74, "velocity": 56, "note_on_time": 20.516, "note_off_time": 21.412}, {"pitch": 74, "velocity": 34, "note_on_time": 24.129, "note_off_time": 24.374}, {"pitch": 74, "velocity": 32, "note_on_time": 24.878, "note_off_time": 25.134}]</notes><guidance name="Guidance Mode">None</guidance><error name="Error value">1.3456923333333333</error></trial></trials></MIDI>