<MIDI midiNo="2022_11_21-16_38_41"><target_notes><notes name="Note List">[{"pitch": 42, "velocity": 80, "note_on_time": 0.004, "note_off_time": 0.357}, {"pitch": 42, "velocity": 80, "note_on_time": 0.357, "note_off_time": 0.713}, {"pitch": 42, "velocity": 80, "note_on_time": 0.714, "note_off_time": 1.072}, {"pitch": 42, "velocity": 80, "note_on_time": 1.073, "note_off_time": 1.431}, {"pitch": 62, "velocity": 80, "note_on_time": 1.431, "note_off_time": 1.79}, {"pitch": 42, "velocity": 80, "note_on_time": 1.432, "note_off_time": 1.79}, {"pitch": 62, "velocity": 80, "note_on_time": 1.79, "note_off_time": 2.148}, {"pitch": 42, "velocity": 80, "note_on_time": 1.791, "note_off_time": 2.148}, {"pitch": 60, "velocity": 80, "note_on_time": 2.148, "note_off_time": 2.506}, {"pitch": 42, "velocity": 80, "note_on_time": 2.148, "note_off_time": 2.506}, {"pitch": 60, "velocity": 80, "note_on_time": 2.506, "note_off_time": 2.863}, {"pitch": 42, "velocity": 80, "note_on_time": 2.506, "note_off_time": 2.864}, {"pitch": 64, "velocity": 80, "note_on_time": 2.863, "note_off_time": 3.222}, {"pitch": 42, "velocity": 80, "note_on_time": 2.864, "note_off_time": 3.223}, {"pitch": 62, "velocity": 80, "note_on_time": 3.222, "note_off_time": 3.581}, {"pitch": 42, "velocity": 80, "note_on_time": 3.223, "note_off_time": 3.581}, {"pitch": 62, "velocity": 80, "note_on_time": 3.581, "note_off_time": 3.939}, {"pitch": 42, "velocity": 80, "note_on_time": 3.581, "note_off_time": 3.939}, {"pitch": 64, "velocity": 80, "note_on_time": 3.939, "note_off_time": 4.297}, {"pitch": 42, "velocity": 80, "note_on_time": 3.939, "note_off_time": 4.298}, {"pitch": 42, "velocity": 80, "note_on_time": 4.298, "note_off_time": 4.657}, {"pitch": 60, "velocity": 80, "note_on_time": 4.297, "note_off_time": 5.014}, {"pitch": 42, "velocity": 80, "note_on_time": 4.657, "note_off_time": 5.014}, {"pitch": 42, "velocity": 80, "note_on_time": 5.015, "note_off_time": 5.371}, {"pitch": 42, "velocity": 80, "note_on_time": 5.371, "note_off_time": 5.732}, {"pitch": 62, "velocity": 80, "note_on_time": 5.732, "note_off_time": 6.091}, {"pitch": 42, "velocity": 80, "note_on_time": 5.732, "note_off_time": 6.091}, {"pitch": 60, "velocity": 80, "note_on_time": 6.091, "note_off_time": 6.447}, {"pitch": 42, "velocity": 80, "note_on_time": 6.091, "note_off_time": 6.447}, {"pitch": 60, "velocity": 80, "note_on_time": 6.447, "note_off_time": 6.804}, {"pitch": 42, "velocity": 80, "note_on_time": 6.448, "note_off_time": 6.804}, {"pitch": 60, "velocity": 80, "note_on_time": 6.804, "note_off_time": 7.163}, {"pitch": 42, "velocity": 80, "note_on_time": 6.804, "note_off_time": 7.163}, {"pitch": 60, "velocity": 80, "note_on_time": 7.163, "note_off_time": 7.524}, {"pitch": 42, "velocity": 80, "note_on_time": 7.163, "note_off_time": 7.524}, {"pitch": 64, "velocity": 80, "note_on_time": 7.524, "note_off_time": 7.884}, {"pitch": 42, "velocity": 80, "note_on_time": 7.525, "note_off_time": 7.884}, {"pitch": 64, "velocity": 80, "note_on_time": 7.884, "note_off_time": 8.242}, {"pitch": 42, "velocity": 80, "note_on_time": 7.884, "note_off_time": 8.242}, {"pitch": 64, "velocity": 80, "note_on_time": 8.242, "note_off_time": 8.598}, {"pitch": 42, "velocity": 80, "note_on_time": 8.243, "note_off_time": 8.599}, {"pitch": 42, "velocity": 80, "note_on_time": 8.599, "note_off_time": 8.958}, {"pitch": 64, "velocity": 80, "note_on_time": 8.598, "note_off_time": 9.315}, {"pitch": 42, "velocity": 80, "note_on_time": 8.959, "note_off_time": 9.315}, {"pitch": 42, "velocity": 80, "note_on_time": 9.316, "note_off_time": 9.673}, {"pitch": 42, "velocity": 80, "note_on_time": 9.674, "note_off_time": 10.029}, {"pitch": 60, "velocity": 80, "note_on_time": 10.029, "note_off_time": 10.387}, {"pitch": 42, "velocity": 80, "note_on_time": 10.03, "note_off_time": 10.387}, {"pitch": 64, "velocity": 80, "note_on_time": 10.387, "note_off_time": 10.745}, {"pitch": 42, "velocity": 80, "note_on_time": 10.387, "note_off_time": 10.745}, {"pitch": 62, "velocity": 80, "note_on_time": 10.745, "note_off_time": 11.103}, {"pitch": 42, "velocity": 80, "note_on_time": 10.746, "note_off_time": 11.103}, {"pitch": 64, "velocity": 80, "note_on_time": 11.103, "note_off_time": 11.461}, {"pitch": 42, "velocity": 80, "note_on_time": 11.103, "note_off_time": 11.461}, {"pitch": 42, "velocity": 80, "note_on_time": 11.462, "note_off_time": 11.821}, {"pitch": 64, "velocity": 80, "note_on_time": 11.821, "note_off_time": 12.18}, {"pitch": 42, "velocity": 80, "note_on_time": 11.821, "note_off_time": 12.18}, {"pitch": 64, "velocity": 80, "note_on_time": 12.18, "note_off_time": 12.537}, {"pitch": 42, "velocity": 80, "note_on_time": 12.18, "note_off_time": 12.537}, {"pitch": 64, "velocity": 80, "note_on_time": 12.537, "note_off_time": 12.896}, {"pitch": 42, "velocity": 80, "note_on_time": 12.537, "note_off_time": 12.896}]</notes><options name="Option List">((4, 4), [0.5, 0.25], 3, 8, &lt;NoteRangePerHand.THREE_NOTES: 4&gt;, &lt;NoteRangePerHand.ONE_NOTE: 2&gt;, False, True, False, '174')</options></target_notes><trials><trial trial_no="1" timestamp="2022_11_21-16_38_27"><notes name="Played Notes">[{"pitch": 62, "velocity": 77, "note_on_time": 1.418, "note_off_time": 1.598}, {"pitch": 62, "velocity": 78, "note_on_time": 1.752, "note_off_time": 1.979}, {"pitch": 60, "velocity": 80, "note_on_time": 2.101, "note_off_time": 2.281}, {"pitch": 60, "velocity": 67, "note_on_time": 2.427, "note_off_time": 2.633}, {"pitch": 64, "velocity": 68, "note_on_time": 2.773, "note_off_time": 3.003}, {"pitch": 62, "velocity": 63, "note_on_time": 3.127, "note_off_time": 3.288}, {"pitch": 62, "velocity": 72, "note_on_time": 3.449, "note_off_time": 3.638}, {"pitch": 64, "velocity": 65, "note_on_time": 3.787, "note_off_time": 3.982}, {"pitch": 60, "velocity": 82, "note_on_time": 4.123, "note_off_time": 4.756}, {"pitch": 62, "velocity": 71, "note_on_time": 5.687, "note_off_time": 5.88}, {"pitch": 62, "velocity": 66, "note_on_time": 6.021, "note_off_time": 6.204}, {"pitch": 60, "velocity": 67, "note_on_time": 6.19, "note_off_time": 6.367}, {"pitch": 60, "velocity": 77, "note_on_time": 6.486, "note_off_time": 6.684}, {"pitch": 60, "velocity": 69, "note_on_time": 6.792, "note_off_time": 7.01}, {"pitch": 60, "velocity": 74, "note_on_time": 7.155, "note_off_time": 7.355}, {"pitch": 64, "velocity": 67, "note_on_time": 7.513, "note_off_time": 7.705}, {"pitch": 64, "velocity": 56, "note_on_time": 7.821, "note_off_time": 8.017}, {"pitch": 64, "velocity": 60, "note_on_time": 8.183, "note_off_time": 8.373}, {"pitch": 64, "velocity": 73, "note_on_time": 8.546, "note_off_time": 9.326}, {"pitch": 59, "velocity": 45, "note_on_time": 10.077, "note_off_time": 10.272}, {"pitch": 60, "velocity": 45, "note_on_time": 10.075, "note_off_time": 10.283}, {"pitch": 64, "velocity": 61, "note_on_time": 10.431, "note_off_time": 10.664}, {"pitch": 62, "velocity": 69, "note_on_time": 10.784, "note_off_time": 10.987}, {"pitch": 64, "velocity": 61, "note_on_time": 11.102, "note_off_time": 11.345}, {"pitch": 64, "velocity": 74, "note_on_time": 11.844, "note_off_time": 12.051}, {"pitch": 64, "velocity": 59, "note_on_time": 12.176, "note_off_time": 12.373}, {"pitch": 64, "velocity": 66, "note_on_time": 12.504, "note_off_time": 12.736}]</notes><guidance name="Guidance Mode">None</guidance><error name="Error value">0.5680253181818181</error></trial><trial trial_no="2" timestamp="2022_11_21-16_38_53"><notes name="Played Notes">[{"pitch": 62, "velocity": 68, "note_on_time": 1.424, "note_off_time": 1.645}, {"pitch": 62, "velocity": 68, "note_on_time": 1.777, "note_off_time": 1.998}, {"pitch": 60, "velocity": 85, "note_on_time": 2.134, "note_off_time": 2.316}, {"pitch": 60, "velocity": 68, "note_on_time": 2.477, "note_off_time": 2.685}, {"pitch": 64, "velocity": 78, "note_on_time": 2.842, "note_off_time": 3.016}, {"pitch": 62, "velocity": 71, "note_on_time": 3.174, "note_off_time": 3.347}, {"pitch": 62, "velocity": 56, "note_on_time": 3.505, "note_off_time": 3.715}, {"pitch": 64, "velocity": 66, "note_on_time": 3.85, "note_off_time": 4.092}, {"pitch": 60, "velocity": 81, "note_on_time": 4.233, "note_off_time": 5.071}, {"pitch": 62, "velocity": 70, "note_on_time": 5.781, "note_off_time": 6.0}, {"pitch": 60, "velocity": 77, "note_on_time": 6.096, "note_off_time": 6.296}, {"pitch": 60, "velocity": 73, "note_on_time": 6.454, "note_off_time": 6.634}, {"pitch": 60, "velocity": 79, "note_on_time": 6.791, "note_off_time": 6.975}, {"pitch": 60, "velocity": 77, "note_on_time": 7.131, "note_off_time": 7.332}, {"pitch": 64, "velocity": 73, "note_on_time": 7.484, "note_off_time": 7.656}, {"pitch": 64, "velocity": 73, "note_on_time": 7.838, "note_off_time": 8.026}, {"pitch": 64, "velocity": 63, "note_on_time": 8.192, "note_off_time": 8.369}, {"pitch": 64, "velocity": 68, "note_on_time": 8.574, "note_off_time": 9.412}, {"pitch": 60, "velocity": 69, "note_on_time": 10.048, "note_off_time": 10.257}, {"pitch": 64, "velocity": 64, "note_on_time": 10.407, "note_off_time": 10.558}, {"pitch": 62, "velocity": 63, "note_on_time": 10.745, "note_off_time": 10.931}, {"pitch": 64, "velocity": 61, "note_on_time": 11.113, "note_off_time": 11.275}, {"pitch": 64, "velocity": 73, "note_on_time": 11.818, "note_off_time": 12.004}, {"pitch": 64, "velocity": 62, "note_on_time": 12.168, "note_off_time": 12.335}, {"pitch": 64, "velocity": 74, "note_on_time": 12.51, "note_off_time": 12.704}]</notes><guidance name="Guidance Mode">None</guidance><error name="Error value">0.025345227272727054</error></trial><trial trial_no="3" timestamp="2022_11_21-16_39_16"><notes name="Played Notes">[{"pitch": 62, "velocity": 66, "note_on_time": 1.416, "note_off_time": 1.621}, {"pitch": 62, "velocity": 73, "note_on_time": 1.78, "note_off_time": 2.005}, {"pitch": 60, "velocity": 79, "note_on_time": 2.145, "note_off_time": 2.335}, {"pitch": 60, "velocity": 64, "note_on_time": 2.465, "note_off_time": 2.692}, {"pitch": 64, "velocity": 72, "note_on_time": 2.827, "note_off_time": 3.031}, {"pitch": 62, "velocity": 70, "note_on_time": 3.159, "note_off_time": 3.311}, {"pitch": 62, "velocity": 72, "note_on_time": 3.477, "note_off_time": 3.654}, {"pitch": 64, "velocity": 68, "note_on_time": 3.797, "note_off_time": 3.969}, {"pitch": 60, "velocity": 70, "note_on_time": 4.142, "note_off_time": 5.093}, {"pitch": 62, "velocity": 68, "note_on_time": 5.773, "note_off_time": 5.976}, {"pitch": 60, "velocity": 71, "note_on_time": 6.11, "note_off_time": 6.293}, {"pitch": 60, "velocity": 67, "note_on_time": 6.464, "note_off_time": 6.638}, {"pitch": 60, "velocity": 66, "note_on_time": 6.807, "note_off_time": 6.973}, {"pitch": 60, "velocity": 67, "note_on_time": 7.137, "note_off_time": 7.306}, {"pitch": 64, "velocity": 67, "note_on_time": 7.49, "note_off_time": 7.657}, {"pitch": 64, "velocity": 56, "note_on_time": 7.816, "note_off_time": 8.007}, {"pitch": 64, "velocity": 74, "note_on_time": 8.181, "note_off_time": 8.354}, {"pitch": 64, "velocity": 71, "note_on_time": 8.549, "note_off_time": 9.441}, {"pitch": 60, "velocity": 65, "note_on_time": 10.044, "note_off_time": 10.24}, {"pitch": 64, "velocity": 59, "note_on_time": 10.391, "note_off_time": 10.579}, {"pitch": 62, "velocity": 68, "note_on_time": 10.74, "note_off_time": 10.91}, {"pitch": 64, "velocity": 67, "note_on_time": 11.084, "note_off_time": 11.276}, {"pitch": 64, "velocity": 74, "note_on_time": 11.806, "note_off_time": 11.994}, {"pitch": 64, "velocity": 70, "note_on_time": 12.15, "note_off_time": 12.356}, {"pitch": 64, "velocity": 69, "note_on_time": 12.495, "note_off_time": 12.706}]</notes><guidance name="Guidance Mode">None</guidance><error name="Error value">0.029904681818181643</error></trial><trial trial_no="4" timestamp="2022_11_21-16_39_40"><notes name="Played Notes">[{"pitch": 62, "velocity": 62, "note_on_time": 1.415, "note_off_time": 1.612}, {"pitch": 62, "velocity": 63, "note_on_time": 1.753, "note_off_time": 1.985}, {"pitch": 60, "velocity": 74, "note_on_time": 2.114, "note_off_time": 2.307}, {"pitch": 60, "velocity": 66, "note_on_time": 2.465, "note_off_time": 2.641}, {"pitch": 64, "velocity": 63, "note_on_time": 2.829, "note_off_time": 3.013}, {"pitch": 62, "velocity": 67, "note_on_time": 3.181, "note_off_time": 3.318}, {"pitch": 62, "velocity": 67, "note_on_time": 3.525, "note_off_time": 3.7}, {"pitch": 64, "velocity": 59, "note_on_time": 3.876, "note_off_time": 4.053}, {"pitch": 60, "velocity": 71, "note_on_time": 4.245, "note_off_time": 5.022}, {"pitch": 62, "velocity": 62, "note_on_time": 5.751, "note_off_time": 5.93}, {"pitch": 60, "velocity": 69, "note_on_time": 6.085, "note_off_time": 6.253}, {"pitch": 60, "velocity": 74, "note_on_time": 6.432, "note_off_time": 6.595}, {"pitch": 60, "velocity": 67, "note_on_time": 6.77, "note_off_time": 6.939}, {"pitch": 60, "velocity": 73, "note_on_time": 7.114, "note_off_time": 7.311}, {"pitch": 64, "velocity": 71, "note_on_time": 7.48, "note_off_time": 7.637}, {"pitch": 64, "velocity": 67, "note_on_time": 7.825, "note_off_time": 7.994}, {"pitch": 64, "velocity": 69, "note_on_time": 8.171, "note_off_time": 8.344}, {"pitch": 64, "velocity": 67, "note_on_time": 8.567, "note_off_time": 9.528}, {"pitch": 60, "velocity": 75, "note_on_time": 10.039, "note_off_time": 10.238}, {"pitch": 64, "velocity": 67, "note_on_time": 10.381, "note_off_time": 10.549}, {"pitch": 62, "velocity": 65, "note_on_time": 10.735, "note_off_time": 10.934}, {"pitch": 64, "velocity": 68, "note_on_time": 11.079, "note_off_time": 11.286}, {"pitch": 64, "velocity": 68, "note_on_time": 11.799, "note_off_time": 11.988}, {"pitch": 64, "velocity": 62, "note_on_time": 12.148, "note_off_time": 12.336}, {"pitch": 64, "velocity": 59, "note_on_time": 12.483, "note_off_time": 12.686}]</notes><guidance name="Guidance Mode">None</guidance><error name="Error value">0.020799772727272483</error></trial><trial trial_no="5" timestamp="2022_11_21-16_40_04"><notes name="Played Notes">[{"pitch": 62, "velocity": 73, "note_on_time": 1.412, "note_off_time": 1.63}, {"pitch": 62, "velocity": 63, "note_on_time": 1.757, "note_off_time": 2.002}, {"pitch": 60, "velocity": 71, "note_on_time": 2.111, "note_off_time": 2.309}, {"pitch": 60, "velocity": 74, "note_on_time": 2.463, "note_off_time": 2.67}, {"pitch": 64, "velocity": 67, "note_on_time": 2.82, "note_off_time": 3.022}, {"pitch": 62, "velocity": 69, "note_on_time": 3.167, "note_off_time": 3.335}, {"pitch": 62, "velocity": 52, "note_on_time": 3.488, "note_off_time": 3.705}, {"pitch": 64, "velocity": 66, "note_on_time": 3.856, "note_off_time": 4.04}, {"pitch": 60, "velocity": 79, "note_on_time": 4.236, "note_off_time": 5.43}, {"pitch": 62, "velocity": 76, "note_on_time": 5.743, "note_off_time": 5.94}, {"pitch": 60, "velocity": 82, "note_on_time": 6.08, "note_off_time": 6.259}, {"pitch": 60, "velocity": 69, "note_on_time": 6.425, "note_off_time": 6.614}, {"pitch": 60, "velocity": 69, "note_on_time": 6.773, "note_off_time": 6.961}, {"pitch": 60, "velocity": 78, "note_on_time": 7.122, "note_off_time": 7.301}, {"pitch": 64, "velocity": 71, "note_on_time": 7.455, "note_off_time": 7.631}, {"pitch": 64, "velocity": 65, "note_on_time": 7.792, "note_off_time": 7.997}, {"pitch": 64, "velocity": 71, "note_on_time": 8.159, "note_off_time": 8.367}, {"pitch": 64, "velocity": 77, "note_on_time": 8.533, "note_off_time": 9.644}, {"pitch": 60, "velocity": 75, "note_on_time": 10.102, "note_off_time": 10.288}, {"pitch": 64, "velocity": 66, "note_on_time": 10.44, "note_off_time": 10.638}, {"pitch": 62, "velocity": 70, "note_on_time": 10.8, "note_off_time": 10.967}, {"pitch": 64, "velocity": 62, "note_on_time": 11.147, "note_off_time": 11.367}, {"pitch": 64, "velocity": 65, "note_on_time": 11.829, "note_off_time": 12.074}, {"pitch": 64, "velocity": 74, "note_on_time": 12.181, "note_off_time": 12.392}, {"pitch": 64, "velocity": 59, "note_on_time": 12.512, "note_off_time": 12.75}]</notes><guidance name="Guidance Mode">None</guidance><error name="Error value">0.02589068181818168</error></trial></trials></MIDI>