<MIDI midiNo="2022_11_03-13_41_36"><target_notes><notes name="Note List">[{"pitch": 42, "velocity": 80, "note_on_time": 0.005, "note_off_time": 0.261}, {"pitch": 42, "velocity": 80, "note_on_time": 0.261, "note_off_time": 0.51}, {"pitch": 42, "velocity": 80, "note_on_time": 0.51, "note_off_time": 0.759}, {"pitch": 42, "velocity": 80, "note_on_time": 0.76, "note_off_time": 1.011}, {"pitch": 62, "velocity": 80, "note_on_time": 1.011, "note_off_time": 1.258}, {"pitch": 42, "velocity": 80, "note_on_time": 1.012, "note_off_time": 1.258}, {"pitch": 64, "velocity": 80, "note_on_time": 1.258, "note_off_time": 1.506}, {"pitch": 42, "velocity": 80, "note_on_time": 1.259, "note_off_time": 1.506}, {"pitch": 62, "velocity": 80, "note_on_time": 1.506, "note_off_time": 1.755}, {"pitch": 42, "velocity": 80, "note_on_time": 1.506, "note_off_time": 1.756}, {"pitch": 60, "velocity": 80, "note_on_time": 1.755, "note_off_time": 2.005}, {"pitch": 42, "velocity": 80, "note_on_time": 1.756, "note_off_time": 2.005}, {"pitch": 42, "velocity": 80, "note_on_time": 2.005, "note_off_time": 2.255}, {"pitch": 64, "velocity": 80, "note_on_time": 2.005, "note_off_time": 2.504}, {"pitch": 42, "velocity": 80, "note_on_time": 2.255, "note_off_time": 2.505}, {"pitch": 42, "velocity": 80, "note_on_time": 2.505, "note_off_time": 2.754}, {"pitch": 62, "velocity": 80, "note_on_time": 2.504, "note_off_time": 3.006}, {"pitch": 42, "velocity": 80, "note_on_time": 2.755, "note_off_time": 3.007}, {"pitch": 62, "velocity": 80, "note_on_time": 3.006, "note_off_time": 3.257}, {"pitch": 42, "velocity": 80, "note_on_time": 3.007, "note_off_time": 3.257}, {"pitch": 62, "velocity": 80, "note_on_time": 3.257, "note_off_time": 3.508}, {"pitch": 42, "velocity": 80, "note_on_time": 3.258, "note_off_time": 3.508}, {"pitch": 62, "velocity": 80, "note_on_time": 3.508, "note_off_time": 3.756}, {"pitch": 42, "velocity": 80, "note_on_time": 3.508, "note_off_time": 3.756}, {"pitch": 62, "velocity": 80, "note_on_time": 3.756, "note_off_time": 4.004}, {"pitch": 42, "velocity": 80, "note_on_time": 3.756, "note_off_time": 4.004}, {"pitch": 62, "velocity": 80, "note_on_time": 4.004, "note_off_time": 4.253}, {"pitch": 42, "velocity": 80, "note_on_time": 4.005, "note_off_time": 4.253}, {"pitch": 60, "velocity": 80, "note_on_time": 4.253, "note_off_time": 4.5}, {"pitch": 42, "velocity": 80, "note_on_time": 4.253, "note_off_time": 4.5}, {"pitch": 64, "velocity": 80, "note_on_time": 4.5, "note_off_time": 4.748}, {"pitch": 42, "velocity": 80, "note_on_time": 4.5, "note_off_time": 4.748}, {"pitch": 60, "velocity": 80, "note_on_time": 4.748, "note_off_time": 4.997}, {"pitch": 42, "velocity": 80, "note_on_time": 4.748, "note_off_time": 4.997}, {"pitch": 62, "velocity": 80, "note_on_time": 4.997, "note_off_time": 5.247}, {"pitch": 42, "velocity": 80, "note_on_time": 4.998, "note_off_time": 5.247}, {"pitch": 60, "velocity": 80, "note_on_time": 5.247, "note_off_time": 5.497}, {"pitch": 42, "velocity": 80, "note_on_time": 5.247, "note_off_time": 5.497}, {"pitch": 42, "velocity": 80, "note_on_time": 5.497, "note_off_time": 5.745}, {"pitch": 60, "velocity": 80, "note_on_time": 5.745, "note_off_time": 5.996}, {"pitch": 42, "velocity": 80, "note_on_time": 5.745, "note_off_time": 5.996}, {"pitch": 64, "velocity": 80, "note_on_time": 5.996, "note_off_time": 6.245}, {"pitch": 42, "velocity": 80, "note_on_time": 5.996, "note_off_time": 6.245}, {"pitch": 64, "velocity": 80, "note_on_time": 6.245, "note_off_time": 6.496}, {"pitch": 42, "velocity": 80, "note_on_time": 6.245, "note_off_time": 6.496}, {"pitch": 62, "velocity": 80, "note_on_time": 6.496, "note_off_time": 6.744}, {"pitch": 42, "velocity": 80, "note_on_time": 6.496, "note_off_time": 6.744}, {"pitch": 60, "velocity": 80, "note_on_time": 6.744, "note_off_time": 6.993}, {"pitch": 42, "velocity": 80, "note_on_time": 6.744, "note_off_time": 6.993}, {"pitch": 60, "velocity": 80, "note_on_time": 6.993, "note_off_time": 7.24}, {"pitch": 42, "velocity": 80, "note_on_time": 6.993, "note_off_time": 7.24}, {"pitch": 60, "velocity": 80, "note_on_time": 7.24, "note_off_time": 7.488}, {"pitch": 42, "velocity": 80, "note_on_time": 7.24, "note_off_time": 7.489}, {"pitch": 64, "velocity": 80, "note_on_time": 7.488, "note_off_time": 7.735}, {"pitch": 42, "velocity": 80, "note_on_time": 7.489, "note_off_time": 7.735}, {"pitch": 62, "velocity": 80, "note_on_time": 7.735, "note_off_time": 7.983}, {"pitch": 42, "velocity": 80, "note_on_time": 7.735, "note_off_time": 7.983}, {"pitch": 42, "velocity": 80, "note_on_time": 7.984, "note_off_time": 8.231}, {"pitch": 62, "velocity": 80, "note_on_time": 8.231, "note_off_time": 8.481}, {"pitch": 42, "velocity": 80, "note_on_time": 8.232, "note_off_time": 8.481}, {"pitch": 62, "velocity": 80, "note_on_time": 8.481, "note_off_time": 8.73}, {"pitch": 42, "velocity": 80, "note_on_time": 8.482, "note_off_time": 8.73}, {"pitch": 62, "velocity": 80, "note_on_time": 8.73, "note_off_time": 8.979}, {"pitch": 42, "velocity": 80, "note_on_time": 8.73, "note_off_time": 8.979}]</notes><options name="Option List">((4, 4), [0.5, 0.25], 3, 8, &lt;NoteRangePerHand.THREE_NOTES: 4&gt;, &lt;NoteRangePerHand.ONE_NOTE: 2&gt;, False, True, False, 248)</options></target_notes><trials><trial trial_no="1" timestamp="2022_11_03-13_41_25"><notes name="Played Notes">[{"pitch": 62, "velocity": 40, "note_on_time": 1.082, "note_off_time": 1.167}, {"pitch": 64, "velocity": 36, "note_on_time": 1.315, "note_off_time": 1.45}, {"pitch": 62, "velocity": 51, "note_on_time": 1.548, "note_off_time": 1.675}, {"pitch": 60, "velocity": 41, "note_on_time": 1.807, "note_off_time": 1.905}, {"pitch": 64, "velocity": 40, "note_on_time": 2.037, "note_off_time": 2.41}, {"pitch": 62, "velocity": 51, "note_on_time": 2.55, "note_off_time": 2.869}, {"pitch": 62, "velocity": 48, "note_on_time": 3.067, "note_off_time": 3.177}, {"pitch": 62, "velocity": 50, "note_on_time": 3.296, "note_off_time": 3.414}, {"pitch": 62, "velocity": 54, "note_on_time": 3.54, "note_off_time": 3.654}, {"pitch": 62, "velocity": 32, "note_on_time": 3.787, "note_off_time": 3.909}, {"pitch": 62, "velocity": 46, "note_on_time": 4.04, "note_off_time": 4.166}, {"pitch": 60, "velocity": 51, "note_on_time": 4.308, "note_off_time": 4.442}, {"pitch": 64, "velocity": 47, "note_on_time": 4.576, "note_off_time": 4.723}, {"pitch": 60, "velocity": 51, "note_on_time": 4.843, "note_off_time": 4.984}, {"pitch": 62, "velocity": 77, "note_on_time": 5.212, "note_off_time": 5.368}, {"pitch": 60, "velocity": 77, "note_on_time": 5.417, "note_off_time": 5.58}, {"pitch": 60, "velocity": 37, "note_on_time": 5.989, "note_off_time": 6.063}, {"pitch": 64, "velocity": 47, "note_on_time": 6.243, "note_off_time": 6.385}, {"pitch": 64, "velocity": 53, "note_on_time": 6.489, "note_off_time": 6.609}, {"pitch": 62, "velocity": 61, "note_on_time": 6.711, "note_off_time": 6.85}, {"pitch": 60, "velocity": 44, "note_on_time": 6.983, "note_off_time": 7.081}, {"pitch": 60, "velocity": 45, "note_on_time": 7.236, "note_off_time": 7.347}, {"pitch": 64, "velocity": 70, "note_on_time": 7.527, "note_off_time": 7.649}, {"pitch": 62, "velocity": 47, "note_on_time": 7.77, "note_off_time": 8.004}, {"pitch": 62, "velocity": 56, "note_on_time": 8.471, "note_off_time": 8.587}, {"pitch": 62, "velocity": 49, "note_on_time": 8.722, "note_off_time": 8.841}]</notes><guidance name="Guidance Mode">None</guidance><error name="Error value">0.13031640000000003</error></trial></trials></MIDI>