<MIDI midiNo="2022_12_01-11_07_10"><target_notes><notes name="Note List">[{"pitch": 42, "velocity": 80, "note_on_time": 0.003, "note_off_time": 0.221}, {"pitch": 42, "velocity": 80, "note_on_time": 0.221, "note_off_time": 0.438}, {"pitch": 42, "velocity": 80, "note_on_time": 0.438, "note_off_time": 0.654}, {"pitch": 42, "velocity": 80, "note_on_time": 0.654, "note_off_time": 0.872}, {"pitch": 65, "velocity": 80, "note_on_time": 0.872, "note_off_time": 1.092}, {"pitch": 42, "velocity": 80, "note_on_time": 0.873, "note_off_time": 1.092}, {"pitch": 62, "velocity": 80, "note_on_time": 1.092, "note_off_time": 1.311}, {"pitch": 42, "velocity": 80, "note_on_time": 1.092, "note_off_time": 1.311}, {"pitch": 60, "velocity": 80, "note_on_time": 1.311, "note_off_time": 1.529}, {"pitch": 42, "velocity": 80, "note_on_time": 1.311, "note_off_time": 1.529}, {"pitch": 67, "velocity": 80, "note_on_time": 1.529, "note_off_time": 1.748}, {"pitch": 42, "velocity": 80, "note_on_time": 1.529, "note_off_time": 1.748}, {"pitch": 42, "velocity": 80, "note_on_time": 1.749, "note_off_time": 1.965}, {"pitch": 67, "velocity": 80, "note_on_time": 1.748, "note_off_time": 2.183}, {"pitch": 42, "velocity": 80, "note_on_time": 1.965, "note_off_time": 2.183}, {"pitch": 62, "velocity": 80, "note_on_time": 2.183, "note_off_time": 2.401}, {"pitch": 42, "velocity": 80, "note_on_time": 2.183, "note_off_time": 2.401}, {"pitch": 42, "velocity": 80, "note_on_time": 2.401, "note_off_time": 2.62}, {"pitch": 62, "velocity": 80, "note_on_time": 2.62, "note_off_time": 2.837}, {"pitch": 42, "velocity": 80, "note_on_time": 2.62, "note_off_time": 2.837}, {"pitch": 67, "velocity": 80, "note_on_time": 2.837, "note_off_time": 3.067}, {"pitch": 42, "velocity": 80, "note_on_time": 2.837, "note_off_time": 3.067}, {"pitch": 62, "velocity": 80, "note_on_time": 3.067, "note_off_time": 3.288}, {"pitch": 42, "velocity": 80, "note_on_time": 3.068, "note_off_time": 3.288}, {"pitch": 64, "velocity": 80, "note_on_time": 3.288, "note_off_time": 3.507}, {"pitch": 42, "velocity": 80, "note_on_time": 3.288, "note_off_time": 3.507}, {"pitch": 60, "velocity": 80, "note_on_time": 3.507, "note_off_time": 3.724}, {"pitch": 42, "velocity": 80, "note_on_time": 3.507, "note_off_time": 3.724}, {"pitch": 64, "velocity": 80, "note_on_time": 3.724, "note_off_time": 3.942}, {"pitch": 42, "velocity": 80, "note_on_time": 3.724, "note_off_time": 3.942}, {"pitch": 67, "velocity": 80, "note_on_time": 3.942, "note_off_time": 4.159}, {"pitch": 42, "velocity": 80, "note_on_time": 3.942, "note_off_time": 4.159}, {"pitch": 64, "velocity": 80, "note_on_time": 4.159, "note_off_time": 4.378}, {"pitch": 42, "velocity": 80, "note_on_time": 4.159, "note_off_time": 4.378}, {"pitch": 60, "velocity": 80, "note_on_time": 4.378, "note_off_time": 4.594}, {"pitch": 42, "velocity": 80, "note_on_time": 4.378, "note_off_time": 4.594}, {"pitch": 67, "velocity": 80, "note_on_time": 4.594, "note_off_time": 4.813}, {"pitch": 42, "velocity": 80, "note_on_time": 4.594, "note_off_time": 4.813}, {"pitch": 65, "velocity": 80, "note_on_time": 4.813, "note_off_time": 5.031}, {"pitch": 42, "velocity": 80, "note_on_time": 4.813, "note_off_time": 5.031}, {"pitch": 67, "velocity": 80, "note_on_time": 5.031, "note_off_time": 5.248}, {"pitch": 42, "velocity": 80, "note_on_time": 5.031, "note_off_time": 5.248}, {"pitch": 42, "velocity": 80, "note_on_time": 5.248, "note_off_time": 5.464}, {"pitch": 60, "velocity": 80, "note_on_time": 5.248, "note_off_time": 5.682}, {"pitch": 42, "velocity": 80, "note_on_time": 5.464, "note_off_time": 5.682}, {"pitch": 42, "velocity": 80, "note_on_time": 5.682, "note_off_time": 5.901}, {"pitch": 42, "velocity": 80, "note_on_time": 5.901, "note_off_time": 6.118}, {"pitch": 67, "velocity": 80, "note_on_time": 6.118, "note_off_time": 6.337}, {"pitch": 42, "velocity": 80, "note_on_time": 6.118, "note_off_time": 6.337}, {"pitch": 62, "velocity": 80, "note_on_time": 6.337, "note_off_time": 6.556}, {"pitch": 42, "velocity": 80, "note_on_time": 6.337, "note_off_time": 6.556}, {"pitch": 67, "velocity": 80, "note_on_time": 6.556, "note_off_time": 6.773}, {"pitch": 42, "velocity": 80, "note_on_time": 6.557, "note_off_time": 6.773}, {"pitch": 62, "velocity": 80, "note_on_time": 6.773, "note_off_time": 6.992}, {"pitch": 42, "velocity": 80, "note_on_time": 6.773, "note_off_time": 6.992}, {"pitch": 42, "velocity": 80, "note_on_time": 6.992, "note_off_time": 7.208}, {"pitch": 62, "velocity": 80, "note_on_time": 7.208, "note_off_time": 7.426}, {"pitch": 42, "velocity": 80, "note_on_time": 7.208, "note_off_time": 7.426}, {"pitch": 62, "velocity": 80, "note_on_time": 7.426, "note_off_time": 7.646}, {"pitch": 42, "velocity": 80, "note_on_time": 7.426, "note_off_time": 7.646}, {"pitch": 62, "velocity": 80, "note_on_time": 7.646, "note_off_time": 7.861}, {"pitch": 42, "velocity": 80, "note_on_time": 7.646, "note_off_time": 7.862}]</notes><options name="Option List">((4, 4), [0.5, 0.25], 3, 8, &lt;NoteRangePerHand.C_TO_G: 6&gt;, &lt;NoteRangePerHand.ONE_NOTE: 2&gt;, False, True, False, 281)</options></target_notes><trials><trial trial_no="1" timestamp="2022_12_01-11_07_00"><notes name="Played Notes">[{"pitch": 65, "velocity": 57, "note_on_time": 0.869, "note_off_time": 1.112}, {"pitch": 62, "velocity": 45, "note_on_time": 1.085, "note_off_time": 1.288}, {"pitch": 60, "velocity": 57, "note_on_time": 1.289, "note_off_time": 1.51}, {"pitch": 67, "velocity": 66, "note_on_time": 1.478, "note_off_time": 1.567}, {"pitch": 67, "velocity": 59, "note_on_time": 1.71, "note_off_time": 2.191}, {"pitch": 62, "velocity": 55, "note_on_time": 2.157, "note_off_time": 2.459}, {"pitch": 62, "velocity": 59, "note_on_time": 2.599, "note_off_time": 2.807}, {"pitch": 67, "velocity": 66, "note_on_time": 2.791, "note_off_time": 3.044}, {"pitch": 62, "velocity": 64, "note_on_time": 3.018, "note_off_time": 3.267}, {"pitch": 64, "velocity": 65, "note_on_time": 3.246, "note_off_time": 3.462}, {"pitch": 60, "velocity": 64, "note_on_time": 3.472, "note_off_time": 3.727}, {"pitch": 64, "velocity": 55, "note_on_time": 3.716, "note_off_time": 3.936}, {"pitch": 67, "velocity": 68, "note_on_time": 3.919, "note_off_time": 4.165}, {"pitch": 64, "velocity": 62, "note_on_time": 4.143, "note_off_time": 4.402}, {"pitch": 60, "velocity": 68, "note_on_time": 4.384, "note_off_time": 4.595}, {"pitch": 67, "velocity": 70, "note_on_time": 4.599, "note_off_time": 4.843}, {"pitch": 65, "velocity": 61, "note_on_time": 4.835, "note_off_time": 5.024}, {"pitch": 67, "velocity": 74, "note_on_time": 5.022, "note_off_time": 5.309}, {"pitch": 60, "velocity": 76, "note_on_time": 5.29, "note_off_time": 5.517}, {"pitch": 67, "velocity": 68, "note_on_time": 6.128, "note_off_time": 6.362}, {"pitch": 62, "velocity": 66, "note_on_time": 6.341, "note_off_time": 6.567}, {"pitch": 67, "velocity": 69, "note_on_time": 6.544, "note_off_time": 6.802}, {"pitch": 62, "velocity": 68, "note_on_time": 6.763, "note_off_time": 6.997}, {"pitch": 62, "velocity": 70, "note_on_time": 7.223, "note_off_time": 7.297}, {"pitch": 62, "velocity": 69, "note_on_time": 7.429, "note_off_time": 7.506}, {"pitch": 62, "velocity": 72, "note_on_time": 7.63, "note_off_time": 7.72}]</notes><guidance name="Guidance Mode">None</guidance><error name="Error value">0.018321086956521758</error></trial><trial trial_no="2" timestamp="2022_12_01-11_07_15"><notes name="Played Notes">[{"pitch": 65, "velocity": 60, "note_on_time": 0.887, "note_off_time": 1.14}, {"pitch": 62, "velocity": 49, "note_on_time": 1.112, "note_off_time": 1.344}, {"pitch": 60, "velocity": 64, "note_on_time": 1.326, "note_off_time": 1.563}, {"pitch": 67, "velocity": 70, "note_on_time": 1.529, "note_off_time": 1.638}, {"pitch": 67, "velocity": 66, "note_on_time": 1.758, "note_off_time": 2.238}, {"pitch": 62, "velocity": 64, "note_on_time": 2.184, "note_off_time": 2.447}, {"pitch": 62, "velocity": 61, "note_on_time": 2.617, "note_off_time": 2.827}, {"pitch": 67, "velocity": 69, "note_on_time": 2.814, "note_off_time": 3.05}, {"pitch": 62, "velocity": 67, "note_on_time": 3.039, "note_off_time": 3.299}, {"pitch": 64, "velocity": 64, "note_on_time": 3.281, "note_off_time": 3.496}, {"pitch": 60, "velocity": 68, "note_on_time": 3.51, "note_off_time": 3.76}, {"pitch": 64, "velocity": 64, "note_on_time": 3.739, "note_off_time": 3.956}, {"pitch": 67, "velocity": 72, "note_on_time": 3.968, "note_off_time": 4.209}, {"pitch": 64, "velocity": 63, "note_on_time": 4.189, "note_off_time": 4.415}, {"pitch": 60, "velocity": 77, "note_on_time": 4.405, "note_off_time": 4.607}, {"pitch": 67, "velocity": 73, "note_on_time": 4.619, "note_off_time": 4.896}, {"pitch": 65, "velocity": 72, "note_on_time": 4.856, "note_off_time": 5.068}, {"pitch": 67, "velocity": 75, "note_on_time": 5.061, "note_off_time": 5.338}, {"pitch": 60, "velocity": 65, "note_on_time": 5.316, "note_off_time": 5.606}, {"pitch": 65, "velocity": 48, "note_on_time": 6.207, "note_off_time": 6.388}, {"pitch": 67, "velocity": 40, "note_on_time": 6.201, "note_off_time": 6.399}, {"pitch": 62, "velocity": 58, "note_on_time": 6.382, "note_off_time": 6.642}, {"pitch": 67, "velocity": 77, "note_on_time": 6.612, "note_off_time": 6.825}, {"pitch": 62, "velocity": 73, "note_on_time": 6.808, "note_off_time": 7.021}, {"pitch": 62, "velocity": 73, "note_on_time": 7.27, "note_off_time": 7.332}, {"pitch": 62, "velocity": 65, "note_on_time": 7.473, "note_off_time": 7.541}, {"pitch": 62, "velocity": 74, "note_on_time": 7.684, "note_off_time": 7.78}]</notes><guidance name="Guidance Mode">None</guidance><error name="Error value">0.2408783043478261</error></trial><trial trial_no="3" timestamp="2022_12_01-11_07_30"><notes name="Played Notes">[{"pitch": 65, "velocity": 1, "note_on_time": 1.098, "note_off_time": 1.149}]</notes><guidance name="Guidance Mode">None</guidance><error name="Error value">1.3376139565217393</error></trial><trial trial_no="4" timestamp="2022_12_01-11_07_59"><notes name="Played Notes">[{"pitch": 65, "velocity": 59, "note_on_time": 0.893, "note_off_time": 1.153}, {"pitch": 62, "velocity": 55, "note_on_time": 1.105, "note_off_time": 1.354}, {"pitch": 60, "velocity": 59, "note_on_time": 1.336, "note_off_time": 1.56}, {"pitch": 67, "velocity": 68, "note_on_time": 1.52, "note_off_time": 1.628}, {"pitch": 67, "velocity": 57, "note_on_time": 1.755, "note_off_time": 2.269}, {"pitch": 62, "velocity": 70, "note_on_time": 2.181, "note_off_time": 2.446}, {"pitch": 62, "velocity": 63, "note_on_time": 2.627, "note_off_time": 2.832}, {"pitch": 67, "velocity": 67, "note_on_time": 2.815, "note_off_time": 3.077}, {"pitch": 62, "velocity": 62, "note_on_time": 3.06, "note_off_time": 3.296}, {"pitch": 64, "velocity": 64, "note_on_time": 3.288, "note_off_time": 3.501}, {"pitch": 60, "velocity": 67, "note_on_time": 3.512, "note_off_time": 3.789}, {"pitch": 64, "velocity": 58, "note_on_time": 3.769, "note_off_time": 3.989}, {"pitch": 67, "velocity": 72, "note_on_time": 3.971, "note_off_time": 4.202}, {"pitch": 64, "velocity": 65, "note_on_time": 4.165, "note_off_time": 4.409}, {"pitch": 60, "velocity": 52, "note_on_time": 4.425, "note_off_time": 4.645}, {"pitch": 67, "velocity": 65, "note_on_time": 4.62, "note_off_time": 4.866}, {"pitch": 65, "velocity": 73, "note_on_time": 4.852, "note_off_time": 5.101}, {"pitch": 67, "velocity": 72, "note_on_time": 5.063, "note_off_time": 5.309}, {"pitch": 60, "velocity": 75, "note_on_time": 5.295, "note_off_time": 5.52}, {"pitch": 67, "velocity": 71, "note_on_time": 6.118, "note_off_time": 6.351}, {"pitch": 62, "velocity": 67, "note_on_time": 6.322, "note_off_time": 6.553}, {"pitch": 67, "velocity": 77, "note_on_time": 6.531, "note_off_time": 6.807}, {"pitch": 62, "velocity": 70, "note_on_time": 6.769, "note_off_time": 7.001}, {"pitch": 62, "velocity": 75, "note_on_time": 7.226, "note_off_time": 7.299}, {"pitch": 62, "velocity": 65, "note_on_time": 7.431, "note_off_time": 7.492}, {"pitch": 62, "velocity": 82, "note_on_time": 7.644, "note_off_time": 7.736}]</notes><guidance name="Guidance Mode">None</guidance><error name="Error value">0.019981260869565236</error></trial></trials></MIDI>