<MIDI midiNo="2022_12_15-13_08_36"><target_notes><notes name="Note List">[{"pitch": 42, "velocity": 80, "note_on_time": 0.004, "note_off_time": 0.734}, {"pitch": 42, "velocity": 80, "note_on_time": 0.734, "note_off_time": 1.467}, {"pitch": 42, "velocity": 80, "note_on_time": 1.467, "note_off_time": 2.2}, {"pitch": 42, "velocity": 80, "note_on_time": 2.2, "note_off_time": 2.933}, {"pitch": 60, "velocity": 80, "note_on_time": 2.933, "note_off_time": 3.668}, {"pitch": 42, "velocity": 80, "note_on_time": 2.934, "note_off_time": 3.668}, {"pitch": 60, "velocity": 80, "note_on_time": 3.668, "note_off_time": 4.401}, {"pitch": 42, "velocity": 80, "note_on_time": 3.668, "note_off_time": 4.401}, {"pitch": 62, "velocity": 80, "note_on_time": 4.401, "note_off_time": 5.136}, {"pitch": 42, "velocity": 80, "note_on_time": 4.402, "note_off_time": 5.136}, {"pitch": 60, "velocity": 80, "note_on_time": 5.136, "note_off_time": 5.868}, {"pitch": 42, "velocity": 80, "note_on_time": 5.136, "note_off_time": 5.868}, {"pitch": 60, "velocity": 80, "note_on_time": 5.868, "note_off_time": 6.603}, {"pitch": 42, "velocity": 80, "note_on_time": 5.868, "note_off_time": 6.603}, {"pitch": 42, "velocity": 80, "note_on_time": 6.604, "note_off_time": 7.338}, {"pitch": 42, "velocity": 80, "note_on_time": 7.339, "note_off_time": 8.07}, {"pitch": 64, "velocity": 80, "note_on_time": 8.07, "note_off_time": 8.804}, {"pitch": 42, "velocity": 80, "note_on_time": 8.07, "note_off_time": 8.805}, {"pitch": 64, "velocity": 80, "note_on_time": 8.804, "note_off_time": 9.537}, {"pitch": 42, "velocity": 80, "note_on_time": 8.805, "note_off_time": 9.537}, {"pitch": 60, "velocity": 80, "note_on_time": 9.537, "note_off_time": 10.272}, {"pitch": 42, "velocity": 80, "note_on_time": 9.538, "note_off_time": 10.272}, {"pitch": 42, "velocity": 80, "note_on_time": 10.272, "note_off_time": 11.009}, {"pitch": 42, "velocity": 80, "note_on_time": 11.009, "note_off_time": 11.744}, {"pitch": 62, "velocity": 80, "note_on_time": 11.744, "note_off_time": 12.478}, {"pitch": 42, "velocity": 80, "note_on_time": 11.745, "note_off_time": 12.478}, {"pitch": 62, "velocity": 80, "note_on_time": 12.478, "note_off_time": 13.213}, {"pitch": 42, "velocity": 80, "note_on_time": 12.478, "note_off_time": 13.214}, {"pitch": 60, "velocity": 80, "note_on_time": 13.213, "note_off_time": 13.947}, {"pitch": 42, "velocity": 80, "note_on_time": 13.214, "note_off_time": 13.947}, {"pitch": 64, "velocity": 80, "note_on_time": 13.947, "note_off_time": 14.679}, {"pitch": 42, "velocity": 80, "note_on_time": 13.948, "note_off_time": 14.679}, {"pitch": 60, "velocity": 80, "note_on_time": 14.679, "note_off_time": 15.412}, {"pitch": 42, "velocity": 80, "note_on_time": 14.68, "note_off_time": 15.412}, {"pitch": 60, "velocity": 80, "note_on_time": 15.412, "note_off_time": 16.145}, {"pitch": 42, "velocity": 80, "note_on_time": 15.412, "note_off_time": 16.145}, {"pitch": 64, "velocity": 80, "note_on_time": 16.145, "note_off_time": 16.877}, {"pitch": 42, "velocity": 80, "note_on_time": 16.146, "note_off_time": 16.877}, {"pitch": 64, "velocity": 80, "note_on_time": 16.877, "note_off_time": 17.614}, {"pitch": 42, "velocity": 80, "note_on_time": 16.877, "note_off_time": 17.615}, {"pitch": 42, "velocity": 80, "note_on_time": 17.615, "note_off_time": 18.345}, {"pitch": 64, "velocity": 80, "note_on_time": 17.614, "note_off_time": 19.082}, {"pitch": 42, "velocity": 80, "note_on_time": 18.345, "note_off_time": 19.082}, {"pitch": 42, "velocity": 80, "note_on_time": 19.082, "note_off_time": 19.816}, {"pitch": 62, "velocity": 80, "note_on_time": 19.816, "note_off_time": 20.549}, {"pitch": 42, "velocity": 80, "note_on_time": 19.816, "note_off_time": 20.55}, {"pitch": 42, "velocity": 80, "note_on_time": 20.55, "note_off_time": 21.281}, {"pitch": 62, "velocity": 80, "note_on_time": 20.549, "note_off_time": 22.016}, {"pitch": 42, "velocity": 80, "note_on_time": 21.282, "note_off_time": 22.016}, {"pitch": 42, "velocity": 80, "note_on_time": 22.017, "note_off_time": 22.753}, {"pitch": 64, "velocity": 80, "note_on_time": 22.753, "note_off_time": 23.488}, {"pitch": 42, "velocity": 80, "note_on_time": 22.754, "note_off_time": 23.489}, {"pitch": 42, "velocity": 80, "note_on_time": 23.489, "note_off_time": 24.226}, {"pitch": 64, "velocity": 80, "note_on_time": 24.226, "note_off_time": 24.96}, {"pitch": 42, "velocity": 80, "note_on_time": 24.226, "note_off_time": 24.96}, {"pitch": 64, "velocity": 80, "note_on_time": 24.96, "note_off_time": 25.692}, {"pitch": 42, "velocity": 80, "note_on_time": 24.96, "note_off_time": 25.692}, {"pitch": 64, "velocity": 80, "note_on_time": 25.692, "note_off_time": 26.425}, {"pitch": 42, "velocity": 80, "note_on_time": 25.693, "note_off_time": 26.426}]</notes><options name="Option List">((4, 4), [0.5, 0.25], 3, 8, &lt;NoteRangePerHand.THREE_NOTES: 4&gt;, &lt;NoteRangePerHand.ONE_NOTE: 2&gt;, False, True, False, 83)</options></target_notes><trials><trial trial_no="1" timestamp="2022_12_15-13_08_08"><notes name="Played Notes">[{"pitch": 72, "velocity": 60, "note_on_time": 2.919, "note_off_time": 3.162}, {"pitch": 72, "velocity": 65, "note_on_time": 3.647, "note_off_time": 3.827}, {"pitch": 74, "velocity": 67, "note_on_time": 4.347, "note_off_time": 4.516}, {"pitch": 72, "velocity": 62, "note_on_time": 5.049, "note_off_time": 5.216}, {"pitch": 72, "velocity": 76, "note_on_time": 5.776, "note_off_time": 5.941}, {"pitch": 76, "velocity": 56, "note_on_time": 8.048, "note_off_time": 8.252}, {"pitch": 76, "velocity": 63, "note_on_time": 8.738, "note_off_time": 8.911}, {"pitch": 72, "velocity": 72, "note_on_time": 9.453, "note_off_time": 9.611}, {"pitch": 74, "velocity": 63, "note_on_time": 11.656, "note_off_time": 11.792}, {"pitch": 74, "velocity": 65, "note_on_time": 12.419, "note_off_time": 12.555}, {"pitch": 72, "velocity": 63, "note_on_time": 13.162, "note_off_time": 13.288}, {"pitch": 76, "velocity": 56, "note_on_time": 13.939, "note_off_time": 14.073}, {"pitch": 72, "velocity": 56, "note_on_time": 14.663, "note_off_time": 14.77}, {"pitch": 72, "velocity": 54, "note_on_time": 15.42, "note_off_time": 15.513}, {"pitch": 76, "velocity": 54, "note_on_time": 16.162, "note_off_time": 16.288}, {"pitch": 76, "velocity": 48, "note_on_time": 16.87, "note_off_time": 17.016}, {"pitch": 76, "velocity": 57, "note_on_time": 17.604, "note_off_time": 18.359}, {"pitch": 74, "velocity": 72, "note_on_time": 20.527, "note_off_time": 21.254}, {"pitch": 76, "velocity": 64, "note_on_time": 22.717, "note_off_time": 22.904}, {"pitch": 76, "velocity": 65, "note_on_time": 24.19, "note_off_time": 24.359}, {"pitch": 76, "velocity": 65, "note_on_time": 24.93, "note_off_time": 25.065}, {"pitch": 76, "velocity": 66, "note_on_time": 25.624, "note_off_time": 25.77}]</notes><guidance name="Guidance Mode">None</guidance><error name="Error value">1.2849708499999999</error></trial><trial trial_no="2" timestamp="2022_12_15-13_08_47"><notes name="Played Notes">[{"pitch": 72, "velocity": 58, "note_on_time": 2.908, "note_off_time": 3.148}, {"pitch": 72, "velocity": 65, "note_on_time": 3.616, "note_off_time": 3.798}, {"pitch": 74, "velocity": 65, "note_on_time": 4.33, "note_off_time": 4.533}, {"pitch": 72, "velocity": 63, "note_on_time": 5.061, "note_off_time": 5.226}, {"pitch": 72, "velocity": 73, "note_on_time": 5.789, "note_off_time": 6.079}, {"pitch": 76, "velocity": 68, "note_on_time": 8.033, "note_off_time": 8.221}, {"pitch": 76, "velocity": 70, "note_on_time": 8.779, "note_off_time": 8.965}, {"pitch": 72, "velocity": 68, "note_on_time": 9.486, "note_off_time": 9.69}, {"pitch": 74, "velocity": 66, "note_on_time": 11.677, "note_off_time": 11.849}, {"pitch": 74, "velocity": 70, "note_on_time": 12.4, "note_off_time": 12.573}, {"pitch": 72, "velocity": 67, "note_on_time": 13.137, "note_off_time": 13.283}, {"pitch": 76, "velocity": 74, "note_on_time": 13.886, "note_off_time": 14.032}, {"pitch": 72, "velocity": 66, "note_on_time": 14.61, "note_off_time": 14.758}, {"pitch": 72, "velocity": 60, "note_on_time": 15.375, "note_off_time": 15.5}, {"pitch": 76, "velocity": 64, "note_on_time": 16.086, "note_off_time": 16.221}, {"pitch": 76, "velocity": 53, "note_on_time": 16.829, "note_off_time": 16.953}, {"pitch": 76, "velocity": 66, "note_on_time": 17.533, "note_off_time": 18.285}, {"pitch": 74, "velocity": 56, "note_on_time": 19.78, "note_off_time": 19.939}, {"pitch": 74, "velocity": 67, "note_on_time": 20.49, "note_off_time": 21.202}, {"pitch": 76, "velocity": 67, "note_on_time": 22.648, "note_off_time": 22.804}, {"pitch": 76, "velocity": 67, "note_on_time": 24.141, "note_off_time": 24.305}, {"pitch": 76, "velocity": 58, "note_on_time": 24.891, "note_off_time": 25.051}, {"pitch": 76, "velocity": 62, "note_on_time": 25.632, "note_off_time": 25.774}]</notes><guidance name="Guidance Mode">None</guidance><error name="Error value">1.1751208499999999</error></trial><trial trial_no="3" timestamp="2022_12_15-13_09_23"><notes name="Played Notes">[{"pitch": 72, "velocity": 47, "note_on_time": 2.967, "note_off_time": 3.137}, {"pitch": 72, "velocity": 54, "note_on_time": 3.662, "note_off_time": 3.801}, {"pitch": 74, "velocity": 63, "note_on_time": 4.377, "note_off_time": 4.555}, {"pitch": 72, "velocity": 55, "note_on_time": 5.109, "note_off_time": 5.249}, {"pitch": 72, "velocity": 59, "note_on_time": 5.831, "note_off_time": 5.98}, {"pitch": 76, "velocity": 62, "note_on_time": 8.028, "note_off_time": 8.183}, {"pitch": 76, "velocity": 68, "note_on_time": 8.713, "note_off_time": 8.865}, {"pitch": 72, "velocity": 64, "note_on_time": 9.492, "note_off_time": 9.628}, {"pitch": 74, "velocity": 52, "note_on_time": 11.653, "note_off_time": 11.823}, {"pitch": 74, "velocity": 61, "note_on_time": 12.379, "note_off_time": 12.537}, {"pitch": 72, "velocity": 53, "note_on_time": 13.137, "note_off_time": 13.27}, {"pitch": 76, "velocity": 65, "note_on_time": 13.866, "note_off_time": 14.006}, {"pitch": 72, "velocity": 65, "note_on_time": 14.622, "note_off_time": 14.755}, {"pitch": 72, "velocity": 60, "note_on_time": 15.353, "note_off_time": 15.476}, {"pitch": 76, "velocity": 63, "note_on_time": 16.061, "note_off_time": 16.195}, {"pitch": 76, "velocity": 51, "note_on_time": 16.801, "note_off_time": 16.96}, {"pitch": 76, "velocity": 68, "note_on_time": 17.57, "note_off_time": 18.414}, {"pitch": 74, "velocity": 61, "note_on_time": 19.78, "note_off_time": 19.951}, {"pitch": 74, "velocity": 56, "note_on_time": 20.519, "note_off_time": 21.22}, {"pitch": 76, "velocity": 63, "note_on_time": 22.727, "note_off_time": 22.914}, {"pitch": 76, "velocity": 63, "note_on_time": 24.174, "note_off_time": 24.316}, {"pitch": 76, "velocity": 53, "note_on_time": 24.902, "note_off_time": 25.052}, {"pitch": 76, "velocity": 69, "note_on_time": 25.602, "note_off_time": 25.726}]</notes><guidance name="Guidance Mode">None</guidance><error name="Error value">1.1732708499999998</error></trial></trials></MIDI>