<MIDI midiNo="2022_12_08-11_40_08"><target_notes><notes name="Note List">[{"pitch": 42, "velocity": 80, "note_on_time": 0.004, "note_off_time": 0.348}, {"pitch": 42, "velocity": 80, "note_on_time": 0.348, "note_off_time": 0.693}, {"pitch": 42, "velocity": 80, "note_on_time": 0.693, "note_off_time": 1.033}, {"pitch": 42, "velocity": 80, "note_on_time": 1.033, "note_off_time": 1.377}, {"pitch": 62, "velocity": 80, "note_on_time": 1.377, "note_off_time": 1.72}, {"pitch": 42, "velocity": 80, "note_on_time": 1.377, "note_off_time": 1.72}, {"pitch": 42, "velocity": 80, "note_on_time": 1.72, "note_off_time": 2.06}, {"pitch": 62, "velocity": 80, "note_on_time": 1.72, "note_off_time": 2.404}, {"pitch": 42, "velocity": 80, "note_on_time": 2.06, "note_off_time": 2.404}, {"pitch": 65, "velocity": 80, "note_on_time": 2.404, "note_off_time": 2.749}, {"pitch": 42, "velocity": 80, "note_on_time": 2.404, "note_off_time": 2.749}, {"pitch": 60, "velocity": 80, "note_on_time": 2.749, "note_off_time": 3.094}, {"pitch": 42, "velocity": 80, "note_on_time": 2.749, "note_off_time": 3.094}, {"pitch": 62, "velocity": 80, "note_on_time": 3.094, "note_off_time": 3.436}, {"pitch": 42, "velocity": 80, "note_on_time": 3.094, "note_off_time": 3.436}, {"pitch": 60, "velocity": 80, "note_on_time": 3.436, "note_off_time": 3.766}, {"pitch": 42, "velocity": 80, "note_on_time": 3.436, "note_off_time": 3.766}, {"pitch": 65, "velocity": 80, "note_on_time": 3.766, "note_off_time": 4.106}, {"pitch": 42, "velocity": 80, "note_on_time": 3.766, "note_off_time": 4.106}, {"pitch": 42, "velocity": 80, "note_on_time": 4.106, "note_off_time": 4.449}, {"pitch": 62, "velocity": 80, "note_on_time": 4.106, "note_off_time": 4.794}, {"pitch": 42, "velocity": 80, "note_on_time": 4.449, "note_off_time": 4.794}, {"pitch": 42, "velocity": 80, "note_on_time": 4.794, "note_off_time": 5.135}, {"pitch": 60, "velocity": 80, "note_on_time": 5.135, "note_off_time": 5.478}, {"pitch": 42, "velocity": 80, "note_on_time": 5.135, "note_off_time": 5.478}, {"pitch": 42, "velocity": 80, "note_on_time": 5.479, "note_off_time": 5.819}, {"pitch": 62, "velocity": 80, "note_on_time": 5.478, "note_off_time": 6.163}, {"pitch": 42, "velocity": 80, "note_on_time": 5.819, "note_off_time": 6.163}, {"pitch": 42, "velocity": 80, "note_on_time": 6.163, "note_off_time": 6.505}, {"pitch": 64, "velocity": 80, "note_on_time": 6.505, "note_off_time": 6.849}, {"pitch": 42, "velocity": 80, "note_on_time": 6.505, "note_off_time": 6.849}, {"pitch": 67, "velocity": 80, "note_on_time": 6.849, "note_off_time": 7.19}, {"pitch": 42, "velocity": 80, "note_on_time": 6.849, "note_off_time": 7.19}, {"pitch": 60, "velocity": 80, "note_on_time": 7.19, "note_off_time": 7.535}, {"pitch": 42, "velocity": 80, "note_on_time": 7.19, "note_off_time": 7.535}, {"pitch": 42, "velocity": 80, "note_on_time": 7.535, "note_off_time": 7.879}, {"pitch": 64, "velocity": 80, "note_on_time": 7.535, "note_off_time": 8.223}, {"pitch": 42, "velocity": 80, "note_on_time": 7.879, "note_off_time": 8.223}, {"pitch": 42, "velocity": 80, "note_on_time": 8.223, "note_off_time": 8.565}, {"pitch": 65, "velocity": 80, "note_on_time": 8.223, "note_off_time": 8.907}, {"pitch": 42, "velocity": 80, "note_on_time": 8.565, "note_off_time": 8.907}, {"pitch": 42, "velocity": 80, "note_on_time": 8.907, "note_off_time": 9.251}, {"pitch": 42, "velocity": 80, "note_on_time": 9.251, "note_off_time": 9.594}, {"pitch": 64, "velocity": 80, "note_on_time": 9.594, "note_off_time": 9.938}, {"pitch": 42, "velocity": 80, "note_on_time": 9.594, "note_off_time": 9.938}, {"pitch": 67, "velocity": 80, "note_on_time": 9.938, "note_off_time": 10.282}, {"pitch": 42, "velocity": 80, "note_on_time": 9.938, "note_off_time": 10.282}, {"pitch": 42, "velocity": 80, "note_on_time": 10.282, "note_off_time": 10.626}, {"pitch": 62, "velocity": 80, "note_on_time": 10.282, "note_off_time": 10.968}, {"pitch": 42, "velocity": 80, "note_on_time": 10.626, "note_off_time": 10.968}, {"pitch": 42, "velocity": 80, "note_on_time": 10.968, "note_off_time": 11.311}, {"pitch": 62, "velocity": 80, "note_on_time": 11.311, "note_off_time": 11.657}, {"pitch": 42, "velocity": 80, "note_on_time": 11.311, "note_off_time": 11.657}, {"pitch": 62, "velocity": 80, "note_on_time": 11.657, "note_off_time": 12.0}, {"pitch": 42, "velocity": 80, "note_on_time": 11.657, "note_off_time": 12.0}, {"pitch": 62, "velocity": 80, "note_on_time": 12.0, "note_off_time": 12.344}, {"pitch": 42, "velocity": 80, "note_on_time": 12.0, "note_off_time": 12.344}]</notes><options name="Option List">((4, 4), [0.5, 0.25], 3, 8, &lt;NoteRangePerHand.C_TO_G: 6&gt;, &lt;NoteRangePerHand.ONE_NOTE: 2&gt;, False, True, False, 182)</options></target_notes><trials><trial trial_no="1" timestamp="2022_12_08-11_39_54"><notes name="Played Notes">[{"pitch": 62, "velocity": 84, "note_on_time": 4.784, "note_off_time": 4.944}, {"pitch": 62, "velocity": 80, "note_on_time": 5.131, "note_off_time": 5.732}, {"pitch": 65, "velocity": 82, "note_on_time": 5.867, "note_off_time": 6.019}, {"pitch": 60, "velocity": 89, "note_on_time": 6.2, "note_off_time": 6.329}, {"pitch": 62, "velocity": 82, "note_on_time": 6.528, "note_off_time": 6.689}, {"pitch": 60, "velocity": 75, "note_on_time": 6.88, "note_off_time": 7.003}, {"pitch": 65, "velocity": 85, "note_on_time": 7.23, "note_off_time": 7.415}, {"pitch": 62, "velocity": 87, "note_on_time": 7.573, "note_off_time": 8.057}, {"pitch": 60, "velocity": 84, "note_on_time": 8.63, "note_off_time": 8.766}, {"pitch": 62, "velocity": 83, "note_on_time": 8.979, "note_off_time": 9.555}, {"pitch": 64, "velocity": 86, "note_on_time": 10.038, "note_off_time": 10.172}, {"pitch": 67, "velocity": 80, "note_on_time": 10.383, "note_off_time": 10.506}, {"pitch": 60, "velocity": 84, "note_on_time": 10.715, "note_off_time": 10.846}, {"pitch": 64, "velocity": 91, "note_on_time": 11.055, "note_off_time": 11.584}]</notes><guidance name="Guidance Mode">None</guidance><error name="Error value">1.2274461111111108</error></trial><trial trial_no="2" timestamp="2022_12_08-11_40_56"><notes name="Played Notes">[{"pitch": 62, "velocity": 90, "note_on_time": 0.125, "note_off_time": 0.283}, {"pitch": 64, "velocity": 90, "note_on_time": 0.428, "note_off_time": 0.584}, {"pitch": 62, "velocity": 87, "note_on_time": 0.769, "note_off_time": 0.892}, {"pitch": 62, "velocity": 81, "note_on_time": 1.105, "note_off_time": 1.266}, {"pitch": 65, "velocity": 89, "note_on_time": 1.419, "note_off_time": 1.798}, {"pitch": 60, "velocity": 90, "note_on_time": 2.114, "note_off_time": 2.236}, {"pitch": 62, "velocity": 84, "note_on_time": 2.43, "note_off_time": 2.596}, {"pitch": 60, "velocity": 82, "note_on_time": 2.765, "note_off_time": 2.888}, {"pitch": 65, "velocity": 92, "note_on_time": 3.095, "note_off_time": 3.273}, {"pitch": 62, "velocity": 91, "note_on_time": 3.432, "note_off_time": 3.931}, {"pitch": 60, "velocity": 87, "note_on_time": 4.484, "note_off_time": 4.611}, {"pitch": 62, "velocity": 89, "note_on_time": 4.819, "note_off_time": 5.28}, {"pitch": 64, "velocity": 79, "note_on_time": 5.885, "note_off_time": 6.023}, {"pitch": 67, "velocity": 73, "note_on_time": 6.221, "note_off_time": 6.348}, {"pitch": 60, "velocity": 86, "note_on_time": 6.553, "note_off_time": 6.673}, {"pitch": 62, "velocity": 86, "note_on_time": 6.904, "note_off_time": 7.267}, {"pitch": 65, "velocity": 88, "note_on_time": 8.016, "note_off_time": 8.537}, {"pitch": 64, "velocity": 85, "note_on_time": 9.406, "note_off_time": 9.545}, {"pitch": 67, "velocity": 67, "note_on_time": 9.717, "note_off_time": 9.857}, {"pitch": 62, "velocity": 76, "note_on_time": 10.082, "note_off_time": 10.209}, {"pitch": 62, "velocity": 89, "note_on_time": 10.806, "note_off_time": 10.915}, {"pitch": 62, "velocity": 88, "note_on_time": 11.111, "note_off_time": 11.198}, {"pitch": 62, "velocity": 93, "note_on_time": 11.416, "note_off_time": 11.555}]</notes><guidance name="Guidance Mode">None</guidance><error name="Error value">0.5820716666666665</error></trial><trial trial_no="3" timestamp="2022_12_08-11_41_21"><notes name="Played Notes">[{"pitch": 62, "velocity": 88, "note_on_time": 0.398, "note_off_time": 0.541}, {"pitch": 64, "velocity": 82, "note_on_time": 0.768, "note_off_time": 0.906}, {"pitch": 62, "velocity": 75, "note_on_time": 1.128, "note_off_time": 1.25}, {"pitch": 62, "velocity": 85, "note_on_time": 2.156, "note_off_time": 2.301}, {"pitch": 62, "velocity": 87, "note_on_time": 2.483, "note_off_time": 2.662}, {"pitch": 65, "velocity": 92, "note_on_time": 2.827, "note_off_time": 2.994}, {"pitch": 60, "velocity": 86, "note_on_time": 3.156, "note_off_time": 3.296}, {"pitch": 62, "velocity": 86, "note_on_time": 3.503, "note_off_time": 3.63}, {"pitch": 60, "velocity": 74, "note_on_time": 3.824, "note_off_time": 3.941}, {"pitch": 65, "velocity": 85, "note_on_time": 4.166, "note_off_time": 4.321}, {"pitch": 62, "velocity": 87, "note_on_time": 4.511, "note_off_time": 5.087}, {"pitch": 60, "velocity": 87, "note_on_time": 5.55, "note_off_time": 5.68}, {"pitch": 62, "velocity": 87, "note_on_time": 5.885, "note_off_time": 6.435}, {"pitch": 64, "velocity": 77, "note_on_time": 6.585, "note_off_time": 6.733}, {"pitch": 67, "velocity": 78, "note_on_time": 6.929, "note_off_time": 7.063}, {"pitch": 60, "velocity": 84, "note_on_time": 7.257, "note_off_time": 7.379}, {"pitch": 64, "velocity": 85, "note_on_time": 7.594, "note_off_time": 7.936}, {"pitch": 65, "velocity": 79, "note_on_time": 7.956, "note_off_time": 8.058}, {"pitch": 65, "velocity": 86, "note_on_time": 8.344, "note_off_time": 8.52}, {"pitch": 64, "velocity": 80, "note_on_time": 9.423, "note_off_time": 9.567}, {"pitch": 67, "velocity": 62, "note_on_time": 9.744, "note_off_time": 9.887}, {"pitch": 62, "velocity": 63, "note_on_time": 10.107, "note_off_time": 10.434}, {"pitch": 62, "velocity": 83, "note_on_time": 10.792, "note_off_time": 10.881}, {"pitch": 62, "velocity": 83, "note_on_time": 11.072, "note_off_time": 11.162}, {"pitch": 62, "velocity": 97, "note_on_time": 11.402, "note_off_time": 11.65}]</notes><guidance name="Guidance Mode">None</guidance><error name="Error value">1.0130549999999998</error></trial><trial trial_no="4" timestamp="2022_12_08-11_41_49"><notes name="Played Notes">[{"pitch": 62, "velocity": 94, "note_on_time": 1.762, "note_off_time": 1.927}, {"pitch": 62, "velocity": 90, "note_on_time": 2.131, "note_off_time": 2.367}, {"pitch": 65, "velocity": 93, "note_on_time": 2.521, "note_off_time": 2.935}, {"pitch": 60, "velocity": 81, "note_on_time": 2.985, "note_off_time": 3.12}, {"pitch": 62, "velocity": 86, "note_on_time": 3.36, "note_off_time": 3.496}, {"pitch": 60, "velocity": 90, "note_on_time": 3.766, "note_off_time": 3.95}, {"pitch": 65, "velocity": 94, "note_on_time": 4.125, "note_off_time": 4.293}, {"pitch": 62, "velocity": 95, "note_on_time": 4.502, "note_off_time": 5.384}, {"pitch": 60, "velocity": 79, "note_on_time": 5.619, "note_off_time": 5.757}, {"pitch": 62, "velocity": 88, "note_on_time": 5.98, "note_off_time": 6.508}, {"pitch": 64, "velocity": 79, "note_on_time": 7.107, "note_off_time": 7.274}, {"pitch": 67, "velocity": 60, "note_on_time": 7.416, "note_off_time": 7.599}, {"pitch": 60, "velocity": 77, "note_on_time": 7.802, "note_off_time": 7.926}, {"pitch": 64, "velocity": 91, "note_on_time": 8.175, "note_off_time": 8.782}, {"pitch": 65, "velocity": 82, "note_on_time": 8.916, "note_off_time": 9.464}, {"pitch": 64, "velocity": 77, "note_on_time": 10.387, "note_off_time": 10.533}, {"pitch": 67, "velocity": 68, "note_on_time": 10.708, "note_off_time": 10.875}, {"pitch": 62, "velocity": 89, "note_on_time": 11.058, "note_off_time": 11.614}, {"pitch": 62, "velocity": 91, "note_on_time": 12.153, "note_off_time": 12.249}]</notes><guidance name="Guidance Mode">None</guidance><error name="Error value">0.22707055555555547</error></trial><trial trial_no="5" timestamp="2022_12_08-11_42_23"><notes name="Played Notes">[{"pitch": 62, "velocity": 89, "note_on_time": 0.384, "note_off_time": 0.579}, {"pitch": 65, "velocity": 66, "note_on_time": 0.809, "note_off_time": 0.891}, {"pitch": 62, "velocity": 83, "note_on_time": 1.137, "note_off_time": 1.568}, {"pitch": 65, "velocity": 92, "note_on_time": 1.83, "note_off_time": 1.961}, {"pitch": 60, "velocity": 86, "note_on_time": 2.186, "note_off_time": 2.303}, {"pitch": 62, "velocity": 88, "note_on_time": 2.536, "note_off_time": 2.716}, {"pitch": 60, "velocity": 78, "note_on_time": 2.881, "note_off_time": 3.001}, {"pitch": 65, "velocity": 88, "note_on_time": 3.248, "note_off_time": 3.761}, {"pitch": 62, "velocity": 85, "note_on_time": 3.928, "note_off_time": 4.478}, {"pitch": 60, "velocity": 89, "note_on_time": 4.945, "note_off_time": 5.074}, {"pitch": 62, "velocity": 90, "note_on_time": 5.31, "note_off_time": 5.904}, {"pitch": 65, "velocity": 46, "note_on_time": 6.143, "note_off_time": 6.196}, {"pitch": 64, "velocity": 66, "note_on_time": 6.292, "note_off_time": 6.437}, {"pitch": 67, "velocity": 73, "note_on_time": 6.594, "note_off_time": 6.716}, {"pitch": 60, "velocity": 88, "note_on_time": 6.932, "note_off_time": 7.052}, {"pitch": 64, "velocity": 85, "note_on_time": 7.308, "note_off_time": 7.883}, {"pitch": 65, "velocity": 91, "note_on_time": 8.051, "note_off_time": 8.738}, {"pitch": 64, "velocity": 88, "note_on_time": 9.451, "note_off_time": 9.618}, {"pitch": 67, "velocity": 73, "note_on_time": 9.771, "note_off_time": 9.923}, {"pitch": 62, "velocity": 89, "note_on_time": 10.113, "note_off_time": 10.89}, {"pitch": 60, "velocity": 74, "note_on_time": 11.501, "note_off_time": 11.62}, {"pitch": 62, "velocity": 67, "note_on_time": 11.489, "note_off_time": 11.792}, {"pitch": 62, "velocity": 97, "note_on_time": 11.866, "note_off_time": 11.97}]</notes><guidance name="Guidance Mode">None</guidance><error name="Error value">0.4120149999999998</error></trial></trials></MIDI>