<MIDI midiNo="2022_09_08-12_07_55"><target_notes><notes name="Note List">[{"pitch": 42, "velocity": 80, "note_on_time": 0.004, "note_off_time": 0.59}, {"pitch": 42, "velocity": 80, "note_on_time": 0.591, "note_off_time": 1.168}, {"pitch": 42, "velocity": 80, "note_on_time": 1.169, "note_off_time": 1.747}, {"pitch": 42, "velocity": 80, "note_on_time": 1.747, "note_off_time": 2.322}, {"pitch": 42, "velocity": 80, "note_on_time": 2.322, "note_off_time": 2.9}, {"pitch": 60, "velocity": 80, "note_on_time": 2.321, "note_off_time": 3.475}, {"pitch": 42, "velocity": 80, "note_on_time": 2.901, "note_off_time": 3.475}, {"pitch": 42, "velocity": 80, "note_on_time": 3.475, "note_off_time": 4.063}, {"pitch": 42, "velocity": 80, "note_on_time": 4.064, "note_off_time": 4.638}, {"pitch": 62, "velocity": 80, "note_on_time": 4.638, "note_off_time": 5.213}, {"pitch": 42, "velocity": 80, "note_on_time": 4.638, "note_off_time": 5.214}, {"pitch": 42, "velocity": 80, "note_on_time": 5.214, "note_off_time": 5.79}, {"pitch": 60, "velocity": 80, "note_on_time": 5.213, "note_off_time": 6.368}, {"pitch": 42, "velocity": 80, "note_on_time": 5.79, "note_off_time": 6.368}, {"pitch": 64, "velocity": 80, "note_on_time": 6.368, "note_off_time": 6.941}, {"pitch": 42, "velocity": 80, "note_on_time": 6.369, "note_off_time": 6.941}, {"pitch": 64, "velocity": 80, "note_on_time": 6.941, "note_off_time": 7.514}, {"pitch": 42, "velocity": 80, "note_on_time": 6.942, "note_off_time": 7.514}, {"pitch": 60, "velocity": 80, "note_on_time": 7.514, "note_off_time": 8.091}, {"pitch": 42, "velocity": 80, "note_on_time": 7.515, "note_off_time": 8.091}, {"pitch": 62, "velocity": 80, "note_on_time": 8.091, "note_off_time": 8.665}, {"pitch": 42, "velocity": 80, "note_on_time": 8.091, "note_off_time": 8.666}, {"pitch": 64, "velocity": 80, "note_on_time": 8.665, "note_off_time": 9.243}, {"pitch": 42, "velocity": 80, "note_on_time": 8.666, "note_off_time": 9.243}, {"pitch": 60, "velocity": 80, "note_on_time": 9.243, "note_off_time": 9.82}, {"pitch": 42, "velocity": 80, "note_on_time": 9.244, "note_off_time": 9.82}, {"pitch": 64, "velocity": 80, "note_on_time": 9.82, "note_off_time": 10.393}, {"pitch": 42, "velocity": 80, "note_on_time": 9.82, "note_off_time": 10.393}, {"pitch": 64, "velocity": 80, "note_on_time": 10.393, "note_off_time": 10.967}, {"pitch": 42, "velocity": 80, "note_on_time": 10.394, "note_off_time": 10.967}, {"pitch": 60, "velocity": 80, "note_on_time": 10.967, "note_off_time": 11.543}, {"pitch": 42, "velocity": 80, "note_on_time": 10.967, "note_off_time": 11.543}, {"pitch": 42, "velocity": 80, "note_on_time": 11.544, "note_off_time": 12.121}, {"pitch": 64, "velocity": 80, "note_on_time": 11.543, "note_off_time": 12.698}, {"pitch": 42, "velocity": 80, "note_on_time": 12.122, "note_off_time": 12.698}, {"pitch": 42, "velocity": 80, "note_on_time": 12.699, "note_off_time": 13.273}, {"pitch": 62, "velocity": 80, "note_on_time": 12.698, "note_off_time": 13.848}, {"pitch": 42, "velocity": 80, "note_on_time": 13.273, "note_off_time": 13.848}, {"pitch": 62, "velocity": 80, "note_on_time": 13.848, "note_off_time": 14.424}, {"pitch": 42, "velocity": 80, "note_on_time": 13.848, "note_off_time": 14.424}, {"pitch": 64, "velocity": 80, "note_on_time": 14.424, "note_off_time": 14.999}, {"pitch": 42, "velocity": 80, "note_on_time": 14.425, "note_off_time": 15.0}, {"pitch": 62, "velocity": 80, "note_on_time": 14.999, "note_off_time": 15.576}, {"pitch": 42, "velocity": 80, "note_on_time": 15.0, "note_off_time": 15.576}, {"pitch": 64, "velocity": 80, "note_on_time": 15.576, "note_off_time": 16.153}, {"pitch": 42, "velocity": 80, "note_on_time": 15.576, "note_off_time": 16.153}, {"pitch": 64, "velocity": 80, "note_on_time": 16.153, "note_off_time": 16.729}, {"pitch": 42, "velocity": 80, "note_on_time": 16.154, "note_off_time": 16.73}, {"pitch": 62, "velocity": 80, "note_on_time": 16.729, "note_off_time": 17.306}, {"pitch": 42, "velocity": 80, "note_on_time": 16.73, "note_off_time": 17.306}, {"pitch": 60, "velocity": 80, "note_on_time": 17.306, "note_off_time": 17.883}, {"pitch": 42, "velocity": 80, "note_on_time": 17.306, "note_off_time": 17.883}, {"pitch": 60, "velocity": 80, "note_on_time": 17.883, "note_off_time": 18.46}, {"pitch": 42, "velocity": 80, "note_on_time": 17.883, "note_off_time": 18.46}, {"pitch": 42, "velocity": 80, "note_on_time": 18.46, "note_off_time": 19.034}, {"pitch": 60, "velocity": 80, "note_on_time": 19.034, "note_off_time": 19.61}, {"pitch": 42, "velocity": 80, "note_on_time": 19.034, "note_off_time": 19.61}, {"pitch": 60, "velocity": 80, "note_on_time": 19.61, "note_off_time": 20.184}, {"pitch": 42, "velocity": 80, "note_on_time": 19.611, "note_off_time": 20.184}, {"pitch": 60, "velocity": 80, "note_on_time": 20.184, "note_off_time": 20.76}, {"pitch": 42, "velocity": 80, "note_on_time": 20.185, "note_off_time": 20.761}]</notes><options name="Option List">((4, 4), [0.5, 0.25], 3, 8, &lt;NoteRangePerHand.THREE_NOTES: 4&gt;, &lt;NoteRangePerHand.ONE_NOTE: 2&gt;, False, True, True, '105')</options></target_notes><trials><trial trial_no="1" timestamp="2022_09_08-12_07_33"><notes name="Played Notes">[{"pitch": 60, "velocity": 71, "note_on_time": 2.306, "note_off_time": 3.076}, {"pitch": 62, "velocity": 88, "note_on_time": 3.924, "note_off_time": 4.104}, {"pitch": 60, "velocity": 90, "note_on_time": 4.412, "note_off_time": 5.098}, {"pitch": 64, "velocity": 87, "note_on_time": 5.399, "note_off_time": 5.556}, {"pitch": 64, "velocity": 90, "note_on_time": 5.862, "note_off_time": 6.035}, {"pitch": 60, "velocity": 86, "note_on_time": 6.376, "note_off_time": 6.574}, {"pitch": 62, "velocity": 88, "note_on_time": 6.842, "note_off_time": 7.001}, {"pitch": 64, "velocity": 81, "note_on_time": 7.329, "note_off_time": 7.498}, {"pitch": 60, "velocity": 81, "note_on_time": 7.792, "note_off_time": 7.983}, {"pitch": 64, "velocity": 85, "note_on_time": 8.242, "note_off_time": 8.382}, {"pitch": 64, "velocity": 80, "note_on_time": 8.736, "note_off_time": 8.872}, {"pitch": 60, "velocity": 77, "note_on_time": 9.181, "note_off_time": 9.357}, {"pitch": 64, "velocity": 84, "note_on_time": 9.675, "note_off_time": 10.466}, {"pitch": 62, "velocity": 91, "note_on_time": 10.548, "note_off_time": 11.224}, {"pitch": 62, "velocity": 90, "note_on_time": 11.531, "note_off_time": 11.682}, {"pitch": 64, "velocity": 83, "note_on_time": 11.993, "note_off_time": 12.148}, {"pitch": 62, "velocity": 77, "note_on_time": 12.49, "note_off_time": 12.66}, {"pitch": 64, "velocity": 84, "note_on_time": 12.927, "note_off_time": 13.079}, {"pitch": 64, "velocity": 81, "note_on_time": 13.366, "note_off_time": 13.531}, {"pitch": 62, "velocity": 77, "note_on_time": 13.799, "note_off_time": 13.95}, {"pitch": 60, "velocity": 89, "note_on_time": 14.224, "note_off_time": 14.412}, {"pitch": 60, "velocity": 79, "note_on_time": 14.69, "note_off_time": 14.919}, {"pitch": 60, "velocity": 83, "note_on_time": 15.642, "note_off_time": 15.818}, {"pitch": 60, "velocity": 74, "note_on_time": 16.1, "note_off_time": 16.277}, {"pitch": 60, "velocity": 84, "note_on_time": 16.595, "note_off_time": 16.803}]</notes><guidance name="Guidance Mode">None</guidance><error name="Error value">0.15569399999999994</error></trial><trial trial_no="2" timestamp="2022_09_08-12_08_15"><notes name="Played Notes">[{"pitch": 60, "velocity": 92, "note_on_time": 3.416, "note_off_time": 4.297}, {"pitch": 62, "velocity": 83, "note_on_time": 5.038, "note_off_time": 5.23}, {"pitch": 60, "velocity": 81, "note_on_time": 5.577, "note_off_time": 6.371}, {"pitch": 64, "velocity": 79, "note_on_time": 7.01, "note_off_time": 7.147}, {"pitch": 64, "velocity": 88, "note_on_time": 7.506, "note_off_time": 7.639}, {"pitch": 60, "velocity": 83, "note_on_time": 7.99, "note_off_time": 8.148}, {"pitch": 62, "velocity": 74, "note_on_time": 8.55, "note_off_time": 8.701}, {"pitch": 64, "velocity": 74, "note_on_time": 9.045, "note_off_time": 9.223}, {"pitch": 60, "velocity": 70, "note_on_time": 9.553, "note_off_time": 9.741}, {"pitch": 64, "velocity": 86, "note_on_time": 10.046, "note_off_time": 10.197}, {"pitch": 64, "velocity": 84, "note_on_time": 10.565, "note_off_time": 10.706}, {"pitch": 60, "velocity": 73, "note_on_time": 11.115, "note_off_time": 11.299}, {"pitch": 64, "velocity": 92, "note_on_time": 11.626, "note_off_time": 12.798}, {"pitch": 62, "velocity": 80, "note_on_time": 13.286, "note_off_time": 14.838}, {"pitch": 62, "velocity": 84, "note_on_time": 15.059, "note_off_time": 15.249}, {"pitch": 64, "velocity": 84, "note_on_time": 15.553, "note_off_time": 15.754}, {"pitch": 62, "velocity": 84, "note_on_time": 16.03, "note_off_time": 16.193}, {"pitch": 64, "velocity": 76, "note_on_time": 16.508, "note_off_time": 16.689}, {"pitch": 64, "velocity": 82, "note_on_time": 17.004, "note_off_time": 17.19}, {"pitch": 62, "velocity": 70, "note_on_time": 17.508, "note_off_time": 17.678}, {"pitch": 60, "velocity": 88, "note_on_time": 18.017, "note_off_time": 18.23}, {"pitch": 60, "velocity": 91, "note_on_time": 18.527, "note_off_time": 18.749}, {"pitch": 60, "velocity": 88, "note_on_time": 20.002, "note_off_time": 20.209}, {"pitch": 60, "velocity": 84, "note_on_time": 20.514, "note_off_time": 20.691}]</notes><guidance name="Guidance Mode">None</guidance><error name="Error value">0.21923981818181787</error></trial><trial trial_no="3" timestamp="2022_09_08-12_08_53"><notes name="Played Notes">[{"pitch": 60, "velocity": 25, "note_on_time": 2.527, "note_off_time": 2.59}, {"pitch": 60, "velocity": 98, "note_on_time": 2.826, "note_off_time": 3.592}, {"pitch": 62, "velocity": 79, "note_on_time": 4.028, "note_off_time": 4.187}, {"pitch": 60, "velocity": 88, "note_on_time": 4.604, "note_off_time": 5.354}, {"pitch": 64, "velocity": 78, "note_on_time": 5.73, "note_off_time": 5.882}, {"pitch": 64, "velocity": 66, "note_on_time": 6.314, "note_off_time": 6.54}, {"pitch": 60, "velocity": 87, "note_on_time": 6.839, "note_off_time": 7.04}, {"pitch": 62, "velocity": 80, "note_on_time": 7.386, "note_off_time": 7.549}, {"pitch": 64, "velocity": 74, "note_on_time": 7.898, "note_off_time": 8.092}, {"pitch": 60, "velocity": 77, "note_on_time": 8.426, "note_off_time": 8.611}, {"pitch": 64, "velocity": 78, "note_on_time": 8.912, "note_off_time": 9.057}, {"pitch": 64, "velocity": 80, "note_on_time": 9.45, "note_off_time": 9.613}, {"pitch": 60, "velocity": 88, "note_on_time": 9.952, "note_off_time": 10.134}, {"pitch": 64, "velocity": 91, "note_on_time": 10.486, "note_off_time": 11.574}, {"pitch": 62, "velocity": 78, "note_on_time": 11.55, "note_off_time": 12.488}, {"pitch": 62, "velocity": 83, "note_on_time": 12.695, "note_off_time": 12.91}, {"pitch": 64, "velocity": 79, "note_on_time": 13.24, "note_off_time": 13.472}, {"pitch": 62, "velocity": 80, "note_on_time": 13.755, "note_off_time": 13.994}, {"pitch": 64, "velocity": 85, "note_on_time": 14.249, "note_off_time": 14.43}, {"pitch": 64, "velocity": 81, "note_on_time": 14.801, "note_off_time": 14.937}, {"pitch": 64, "velocity": 72, "note_on_time": 15.353, "note_off_time": 15.517}, {"pitch": 62, "velocity": 77, "note_on_time": 15.866, "note_off_time": 16.003}, {"pitch": 60, "velocity": 85, "note_on_time": 16.355, "note_off_time": 16.563}, {"pitch": 60, "velocity": 78, "note_on_time": 16.908, "note_off_time": 17.123}, {"pitch": 60, "velocity": 92, "note_on_time": 18.329, "note_off_time": 18.581}, {"pitch": 60, "velocity": 82, "note_on_time": 18.861, "note_off_time": 19.069}, {"pitch": 60, "velocity": 88, "note_on_time": 19.369, "note_off_time": 19.597}]</notes><guidance name="Guidance Mode">None</guidance><error name="Error value">1.1324670909090904</error></trial><trial trial_no="4" timestamp="2022_09_08-12_10_00"><notes name="Played Notes">[{"pitch": 60, "velocity": 89, "note_on_time": 1.666, "note_off_time": 2.968}, {"pitch": 62, "velocity": 77, "note_on_time": 3.985, "note_off_time": 4.171}, {"pitch": 60, "velocity": 85, "note_on_time": 4.56, "note_off_time": 5.532}, {"pitch": 64, "velocity": 82, "note_on_time": 5.885, "note_off_time": 6.06}, {"pitch": 64, "velocity": 80, "note_on_time": 6.424, "note_off_time": 6.6}, {"pitch": 60, "velocity": 84, "note_on_time": 6.927, "note_off_time": 7.134}, {"pitch": 62, "velocity": 84, "note_on_time": 7.432, "note_off_time": 7.645}, {"pitch": 64, "velocity": 82, "note_on_time": 7.953, "note_off_time": 8.148}, {"pitch": 60, "velocity": 85, "note_on_time": 8.46, "note_off_time": 8.671}, {"pitch": 64, "velocity": 76, "note_on_time": 9.002, "note_off_time": 9.155}, {"pitch": 64, "velocity": 78, "note_on_time": 9.546, "note_off_time": 9.741}, {"pitch": 60, "velocity": 72, "note_on_time": 10.073, "note_off_time": 10.314}, {"pitch": 64, "velocity": 80, "note_on_time": 10.668, "note_off_time": 12.235}, {"pitch": 62, "velocity": 74, "note_on_time": 12.184, "note_off_time": 12.987}, {"pitch": 62, "velocity": 80, "note_on_time": 13.287, "note_off_time": 13.5}, {"pitch": 64, "velocity": 78, "note_on_time": 13.794, "note_off_time": 13.985}, {"pitch": 62, "velocity": 71, "note_on_time": 14.325, "note_off_time": 14.482}, {"pitch": 64, "velocity": 65, "note_on_time": 14.881, "note_off_time": 15.016}, {"pitch": 64, "velocity": 78, "note_on_time": 15.414, "note_off_time": 15.57}, {"pitch": 62, "velocity": 78, "note_on_time": 15.945, "note_off_time": 16.108}, {"pitch": 60, "velocity": 64, "note_on_time": 16.56, "note_off_time": 16.741}, {"pitch": 60, "velocity": 79, "note_on_time": 17.075, "note_off_time": 17.387}, {"pitch": 60, "velocity": 68, "note_on_time": 18.3, "note_off_time": 18.505}, {"pitch": 60, "velocity": 79, "note_on_time": 18.815, "note_off_time": 19.015}, {"pitch": 60, "velocity": 79, "note_on_time": 19.307, "note_off_time": 19.556}]</notes><guidance name="Guidance Mode">None</guidance><error name="Error value">0.070733636363636</error></trial><trial trial_no="5" timestamp="2022_09_08-12_12_03"><notes name="Played Notes">[{"pitch": 60, "velocity": 85, "note_on_time": 2.256, "note_off_time": 3.007}, {"pitch": 62, "velocity": 71, "note_on_time": 4.477, "note_off_time": 4.637}, {"pitch": 60, "velocity": 82, "note_on_time": 4.98, "note_off_time": 5.645}, {"pitch": 64, "velocity": 84, "note_on_time": 6.316, "note_off_time": 6.489}, {"pitch": 64, "velocity": 87, "note_on_time": 6.814, "note_off_time": 6.978}, {"pitch": 60, "velocity": 75, "note_on_time": 7.362, "note_off_time": 7.563}, {"pitch": 62, "velocity": 87, "note_on_time": 7.89, "note_off_time": 8.066}, {"pitch": 64, "velocity": 76, "note_on_time": 8.391, "note_off_time": 8.525}, {"pitch": 60, "velocity": 86, "note_on_time": 8.858, "note_off_time": 9.044}, {"pitch": 64, "velocity": 83, "note_on_time": 9.383, "note_off_time": 9.538}, {"pitch": 64, "velocity": 74, "note_on_time": 9.877, "note_off_time": 10.031}, {"pitch": 60, "velocity": 82, "note_on_time": 10.412, "note_off_time": 10.57}, {"pitch": 64, "velocity": 84, "note_on_time": 10.941, "note_off_time": 11.938}, {"pitch": 62, "velocity": 87, "note_on_time": 12.15, "note_off_time": 13.139}, {"pitch": 62, "velocity": 83, "note_on_time": 13.295, "note_off_time": 13.793}, {"pitch": 64, "velocity": 73, "note_on_time": 13.815, "note_off_time": 14.028}, {"pitch": 62, "velocity": 77, "note_on_time": 14.323, "note_off_time": 14.595}, {"pitch": 64, "velocity": 87, "note_on_time": 14.804, "note_off_time": 14.947}, {"pitch": 64, "velocity": 91, "note_on_time": 15.292, "note_off_time": 15.424}, {"pitch": 62, "velocity": 78, "note_on_time": 15.906, "note_off_time": 16.026}, {"pitch": 60, "velocity": 87, "note_on_time": 16.667, "note_off_time": 16.857}, {"pitch": 60, "velocity": 89, "note_on_time": 17.207, "note_off_time": 17.407}, {"pitch": 60, "velocity": 84, "note_on_time": 18.351, "note_off_time": 18.555}, {"pitch": 60, "velocity": 78, "note_on_time": 18.886, "note_off_time": 19.151}, {"pitch": 60, "velocity": 81, "note_on_time": 19.464, "note_off_time": 19.65}]</notes><guidance name="Guidance Mode">None</guidance><error name="Error value">0.0685841818181813</error></trial><trial trial_no="6" timestamp="2022_09_08-12_13_16"><notes name="Played Notes">[{"pitch": 60, "velocity": 102, "note_on_time": 1.24, "note_off_time": 1.901}, {"pitch": 62, "velocity": 93, "note_on_time": 2.096, "note_off_time": 2.293}, {"pitch": 60, "velocity": 100, "note_on_time": 2.517, "note_off_time": 2.973}, {"pitch": 64, "velocity": 95, "note_on_time": 3.222, "note_off_time": 3.324}, {"pitch": 64, "velocity": 87, "note_on_time": 3.634, "note_off_time": 3.795}, {"pitch": 60, "velocity": 94, "note_on_time": 3.998, "note_off_time": 4.137}, {"pitch": 62, "velocity": 94, "note_on_time": 4.402, "note_off_time": 4.519}, {"pitch": 64, "velocity": 70, "note_on_time": 4.81, "note_off_time": 4.928}, {"pitch": 60, "velocity": 90, "note_on_time": 5.153, "note_off_time": 5.325}, {"pitch": 64, "velocity": 88, "note_on_time": 5.555, "note_off_time": 5.662}, {"pitch": 64, "velocity": 90, "note_on_time": 5.962, "note_off_time": 6.104}, {"pitch": 60, "velocity": 94, "note_on_time": 6.341, "note_off_time": 6.478}, {"pitch": 64, "velocity": 93, "note_on_time": 6.748, "note_off_time": 7.268}, {"pitch": 62, "velocity": 89, "note_on_time": 7.268, "note_off_time": 7.836}, {"pitch": 62, "velocity": 91, "note_on_time": 8.04, "note_off_time": 8.2}, {"pitch": 64, "velocity": 90, "note_on_time": 8.422, "note_off_time": 8.615}, {"pitch": 62, "velocity": 89, "note_on_time": 8.818, "note_off_time": 8.971}, {"pitch": 64, "velocity": 94, "note_on_time": 9.21, "note_off_time": 9.333}, {"pitch": 64, "velocity": 90, "note_on_time": 9.612, "note_off_time": 9.75}, {"pitch": 62, "velocity": 86, "note_on_time": 10.035, "note_off_time": 10.165}, {"pitch": 60, "velocity": 94, "note_on_time": 10.444, "note_off_time": 10.607}, {"pitch": 60, "velocity": 95, "note_on_time": 10.852, "note_off_time": 11.021}, {"pitch": 60, "velocity": 92, "note_on_time": 11.292, "note_off_time": 11.448}, {"pitch": 60, "velocity": 94, "note_on_time": 11.709, "note_off_time": 11.86}, {"pitch": 60, "velocity": 100, "note_on_time": 12.107, "note_off_time": 12.239}]</notes><guidance name="Guidance Mode">None</guidance><error name="Error value">0.08059090909090906</error></trial></trials></MIDI>