<MIDI midiNo="2022_12_01-12_58_30"><target_notes><notes name="Note List">[{"pitch": 42, "velocity": 80, "note_on_time": 0.005, "note_off_time": 0.417}, {"pitch": 42, "velocity": 80, "note_on_time": 0.417, "note_off_time": 0.822}, {"pitch": 42, "velocity": 80, "note_on_time": 0.822, "note_off_time": 1.227}, {"pitch": 42, "velocity": 80, "note_on_time": 1.227, "note_off_time": 1.632}, {"pitch": 62, "velocity": 80, "note_on_time": 1.632, "note_off_time": 2.036}, {"pitch": 42, "velocity": 80, "note_on_time": 1.632, "note_off_time": 2.037}, {"pitch": 60, "velocity": 80, "note_on_time": 2.036, "note_off_time": 2.439}, {"pitch": 42, "velocity": 80, "note_on_time": 2.037, "note_off_time": 2.439}, {"pitch": 42, "velocity": 80, "note_on_time": 2.439, "note_off_time": 2.845}, {"pitch": 60, "velocity": 80, "note_on_time": 2.845, "note_off_time": 3.249}, {"pitch": 42, "velocity": 80, "note_on_time": 2.846, "note_off_time": 3.249}, {"pitch": 62, "velocity": 80, "note_on_time": 3.249, "note_off_time": 3.655}, {"pitch": 42, "velocity": 80, "note_on_time": 3.249, "note_off_time": 3.655}, {"pitch": 60, "velocity": 80, "note_on_time": 3.655, "note_off_time": 4.058}, {"pitch": 42, "velocity": 80, "note_on_time": 3.656, "note_off_time": 4.059}, {"pitch": 64, "velocity": 80, "note_on_time": 4.058, "note_off_time": 4.463}, {"pitch": 42, "velocity": 80, "note_on_time": 4.059, "note_off_time": 4.463}, {"pitch": 62, "velocity": 80, "note_on_time": 4.463, "note_off_time": 4.867}, {"pitch": 42, "velocity": 80, "note_on_time": 4.464, "note_off_time": 4.867}, {"pitch": 60, "velocity": 80, "note_on_time": 4.867, "note_off_time": 5.271}, {"pitch": 42, "velocity": 80, "note_on_time": 4.867, "note_off_time": 5.271}, {"pitch": 62, "velocity": 80, "note_on_time": 5.271, "note_off_time": 5.677}, {"pitch": 42, "velocity": 80, "note_on_time": 5.272, "note_off_time": 5.677}, {"pitch": 64, "velocity": 80, "note_on_time": 5.677, "note_off_time": 6.082}, {"pitch": 42, "velocity": 80, "note_on_time": 5.677, "note_off_time": 6.083}, {"pitch": 60, "velocity": 80, "note_on_time": 6.082, "note_off_time": 6.487}, {"pitch": 42, "velocity": 80, "note_on_time": 6.083, "note_off_time": 6.487}, {"pitch": 60, "velocity": 80, "note_on_time": 6.487, "note_off_time": 6.891}, {"pitch": 42, "velocity": 80, "note_on_time": 6.487, "note_off_time": 6.891}, {"pitch": 64, "velocity": 80, "note_on_time": 6.891, "note_off_time": 7.296}, {"pitch": 42, "velocity": 80, "note_on_time": 6.892, "note_off_time": 7.297}, {"pitch": 60, "velocity": 80, "note_on_time": 7.296, "note_off_time": 7.699}, {"pitch": 42, "velocity": 80, "note_on_time": 7.297, "note_off_time": 7.699}, {"pitch": 60, "velocity": 80, "note_on_time": 7.699, "note_off_time": 8.104}, {"pitch": 42, "velocity": 80, "note_on_time": 7.699, "note_off_time": 8.104}, {"pitch": 60, "velocity": 80, "note_on_time": 8.104, "note_off_time": 8.509}, {"pitch": 42, "velocity": 80, "note_on_time": 8.105, "note_off_time": 8.509}, {"pitch": 64, "velocity": 80, "note_on_time": 8.509, "note_off_time": 8.916}, {"pitch": 42, "velocity": 80, "note_on_time": 8.51, "note_off_time": 8.916}, {"pitch": 42, "velocity": 80, "note_on_time": 8.916, "note_off_time": 9.32}, {"pitch": 64, "velocity": 80, "note_on_time": 8.916, "note_off_time": 9.728}, {"pitch": 42, "velocity": 80, "note_on_time": 9.32, "note_off_time": 9.728}, {"pitch": 64, "velocity": 80, "note_on_time": 9.728, "note_off_time": 10.132}, {"pitch": 42, "velocity": 80, "note_on_time": 9.728, "note_off_time": 10.132}, {"pitch": 60, "velocity": 80, "note_on_time": 10.132, "note_off_time": 10.538}, {"pitch": 42, "velocity": 80, "note_on_time": 10.132, "note_off_time": 10.538}, {"pitch": 62, "velocity": 80, "note_on_time": 10.538, "note_off_time": 10.943}, {"pitch": 42, "velocity": 80, "note_on_time": 10.539, "note_off_time": 10.943}, {"pitch": 62, "velocity": 80, "note_on_time": 10.943, "note_off_time": 11.346}, {"pitch": 42, "velocity": 80, "note_on_time": 10.943, "note_off_time": 11.346}, {"pitch": 62, "velocity": 80, "note_on_time": 11.346, "note_off_time": 11.751}, {"pitch": 42, "velocity": 80, "note_on_time": 11.346, "note_off_time": 11.751}, {"pitch": 62, "velocity": 80, "note_on_time": 11.751, "note_off_time": 12.16}, {"pitch": 42, "velocity": 80, "note_on_time": 11.752, "note_off_time": 12.16}, {"pitch": 64, "velocity": 80, "note_on_time": 12.16, "note_off_time": 12.563}, {"pitch": 42, "velocity": 80, "note_on_time": 12.16, "note_off_time": 12.563}, {"pitch": 64, "velocity": 80, "note_on_time": 12.563, "note_off_time": 12.967}, {"pitch": 42, "velocity": 80, "note_on_time": 12.564, "note_off_time": 12.967}, {"pitch": 42, "velocity": 80, "note_on_time": 12.968, "note_off_time": 13.37}, {"pitch": 64, "velocity": 80, "note_on_time": 13.37, "note_off_time": 13.773}, {"pitch": 42, "velocity": 80, "note_on_time": 13.37, "note_off_time": 13.773}, {"pitch": 64, "velocity": 80, "note_on_time": 13.773, "note_off_time": 14.178}, {"pitch": 42, "velocity": 80, "note_on_time": 13.773, "note_off_time": 14.178}, {"pitch": 64, "velocity": 80, "note_on_time": 14.178, "note_off_time": 14.582}, {"pitch": 42, "velocity": 80, "note_on_time": 14.178, "note_off_time": 14.582}]</notes><options name="Option List">((4, 4), [0.5, 0.25], 3, 8, &lt;NoteRangePerHand.THREE_NOTES: 4&gt;, &lt;NoteRangePerHand.ONE_NOTE: 2&gt;, False, True, False, 150)</options></target_notes><trials><trial trial_no="1" timestamp="2022_12_01-12_58_14"><notes name="Played Notes">[{"pitch": 62, "velocity": 75, "note_on_time": 1.612, "note_off_time": 1.905}, {"pitch": 60, "velocity": 81, "note_on_time": 2.034, "note_off_time": 2.473}, {"pitch": 60, "velocity": 92, "note_on_time": 2.927, "note_off_time": 3.262}, {"pitch": 62, "velocity": 77, "note_on_time": 3.434, "note_off_time": 3.769}, {"pitch": 60, "velocity": 83, "note_on_time": 3.888, "note_off_time": 4.166}, {"pitch": 64, "velocity": 79, "note_on_time": 4.324, "note_off_time": 4.607}, {"pitch": 62, "velocity": 78, "note_on_time": 4.745, "note_off_time": 5.015}, {"pitch": 60, "velocity": 74, "note_on_time": 5.162, "note_off_time": 5.367}, {"pitch": 62, "velocity": 75, "note_on_time": 5.562, "note_off_time": 5.837}, {"pitch": 64, "velocity": 76, "note_on_time": 5.989, "note_off_time": 6.207}, {"pitch": 60, "velocity": 78, "note_on_time": 6.414, "note_off_time": 6.642}, {"pitch": 60, "velocity": 78, "note_on_time": 6.893, "note_off_time": 7.123}, {"pitch": 64, "velocity": 65, "note_on_time": 7.369, "note_off_time": 7.612}, {"pitch": 60, "velocity": 84, "note_on_time": 7.769, "note_off_time": 7.998}, {"pitch": 60, "velocity": 86, "note_on_time": 8.205, "note_off_time": 8.437}, {"pitch": 60, "velocity": 87, "note_on_time": 8.645, "note_off_time": 8.866}, {"pitch": 64, "velocity": 74, "note_on_time": 9.082, "note_off_time": 9.351}, {"pitch": 64, "velocity": 76, "note_on_time": 9.551, "note_off_time": 10.342}, {"pitch": 64, "velocity": 76, "note_on_time": 10.561, "note_off_time": 10.827}, {"pitch": 60, "velocity": 83, "note_on_time": 11.005, "note_off_time": 11.241}, {"pitch": 62, "velocity": 77, "note_on_time": 11.427, "note_off_time": 11.625}, {"pitch": 62, "velocity": 81, "note_on_time": 11.82, "note_off_time": 12.026}, {"pitch": 62, "velocity": 76, "note_on_time": 12.188, "note_off_time": 12.363}, {"pitch": 62, "velocity": 79, "note_on_time": 12.582, "note_off_time": 12.774}, {"pitch": 64, "velocity": 79, "note_on_time": 12.937, "note_off_time": 13.107}, {"pitch": 64, "velocity": 88, "note_on_time": 13.345, "note_off_time": 13.564}, {"pitch": 64, "velocity": 77, "note_on_time": 14.118, "note_off_time": 14.303}]</notes><guidance name="Guidance Mode">None</guidance><error name="Error value">0.15049999999999994</error></trial></trials></MIDI>