<MIDI midiNo="2022_08_17-15_03_13"><target_notes><notes name="Note List">[{"pitch": 42, "velocity": 80, "note_on_time": 0.009, "note_off_time": 0.416}, {"pitch": 42, "velocity": 80, "note_on_time": 0.416, "note_off_time": 0.823}, {"pitch": 42, "velocity": 80, "note_on_time": 0.823, "note_off_time": 1.23}, {"pitch": 42, "velocity": 80, "note_on_time": 1.231, "note_off_time": 1.638}, {"pitch": 42, "velocity": 80, "note_on_time": 1.639, "note_off_time": 2.052}, {"pitch": 65, "velocity": 80, "note_on_time": 1.638, "note_off_time": 2.459}, {"pitch": 42, "velocity": 80, "note_on_time": 2.052, "note_off_time": 2.459}, {"pitch": 42, "velocity": 80, "note_on_time": 2.459, "note_off_time": 2.867}, {"pitch": 42, "velocity": 80, "note_on_time": 2.867, "note_off_time": 3.272}, {"pitch": 42, "velocity": 80, "note_on_time": 3.273, "note_off_time": 3.677}, {"pitch": 67, "velocity": 80, "note_on_time": 3.272, "note_off_time": 4.08}, {"pitch": 42, "velocity": 80, "note_on_time": 3.678, "note_off_time": 4.08}, {"pitch": 42, "velocity": 80, "note_on_time": 4.08, "note_off_time": 4.487}, {"pitch": 64, "velocity": 80, "note_on_time": 4.487, "note_off_time": 4.893}, {"pitch": 42, "velocity": 80, "note_on_time": 4.487, "note_off_time": 4.893}, {"pitch": 67, "velocity": 80, "note_on_time": 4.893, "note_off_time": 5.299}, {"pitch": 42, "velocity": 80, "note_on_time": 4.894, "note_off_time": 5.3}, {"pitch": 64, "velocity": 80, "note_on_time": 5.299, "note_off_time": 5.707}, {"pitch": 42, "velocity": 80, "note_on_time": 5.3, "note_off_time": 5.708}, {"pitch": 42, "velocity": 80, "note_on_time": 5.708, "note_off_time": 6.114}, {"pitch": 67, "velocity": 80, "note_on_time": 6.113, "note_off_time": 6.518}, {"pitch": 42, "velocity": 80, "note_on_time": 6.114, "note_off_time": 6.518}, {"pitch": 67, "velocity": 80, "note_on_time": 6.518, "note_off_time": 6.924}, {"pitch": 42, "velocity": 80, "note_on_time": 6.518, "note_off_time": 6.924}, {"pitch": 67, "velocity": 80, "note_on_time": 6.924, "note_off_time": 7.33}, {"pitch": 42, "velocity": 80, "note_on_time": 6.924, "note_off_time": 7.33}, {"pitch": 42, "velocity": 80, "note_on_time": 7.33, "note_off_time": 7.733}, {"pitch": 64, "velocity": 80, "note_on_time": 7.733, "note_off_time": 8.139}, {"pitch": 42, "velocity": 80, "note_on_time": 7.733, "note_off_time": 8.139}, {"pitch": 67, "velocity": 80, "note_on_time": 8.139, "note_off_time": 8.547}, {"pitch": 42, "velocity": 80, "note_on_time": 8.14, "note_off_time": 8.547}, {"pitch": 62, "velocity": 80, "note_on_time": 8.547, "note_off_time": 8.951}, {"pitch": 42, "velocity": 80, "note_on_time": 8.548, "note_off_time": 8.951}, {"pitch": 65, "velocity": 80, "note_on_time": 8.951, "note_off_time": 9.355}, {"pitch": 42, "velocity": 80, "note_on_time": 8.952, "note_off_time": 9.356}, {"pitch": 65, "velocity": 80, "note_on_time": 9.355, "note_off_time": 9.76}, {"pitch": 42, "velocity": 80, "note_on_time": 9.356, "note_off_time": 9.76}, {"pitch": 60, "velocity": 80, "note_on_time": 9.76, "note_off_time": 10.163}, {"pitch": 42, "velocity": 80, "note_on_time": 9.76, "note_off_time": 10.163}, {"pitch": 67, "velocity": 80, "note_on_time": 10.163, "note_off_time": 10.569}, {"pitch": 42, "velocity": 80, "note_on_time": 10.163, "note_off_time": 10.569}, {"pitch": 64, "velocity": 80, "note_on_time": 10.569, "note_off_time": 10.977}, {"pitch": 42, "velocity": 80, "note_on_time": 10.569, "note_off_time": 10.978}, {"pitch": 60, "velocity": 80, "note_on_time": 10.977, "note_off_time": 11.383}, {"pitch": 42, "velocity": 80, "note_on_time": 10.978, "note_off_time": 11.384}, {"pitch": 60, "velocity": 80, "note_on_time": 11.383, "note_off_time": 11.789}, {"pitch": 42, "velocity": 80, "note_on_time": 11.384, "note_off_time": 11.79}, {"pitch": 62, "velocity": 80, "note_on_time": 11.789, "note_off_time": 12.196}, {"pitch": 42, "velocity": 80, "note_on_time": 11.79, "note_off_time": 12.196}, {"pitch": 67, "velocity": 80, "note_on_time": 12.196, "note_off_time": 12.604}, {"pitch": 42, "velocity": 80, "note_on_time": 12.196, "note_off_time": 12.604}, {"pitch": 64, "velocity": 80, "note_on_time": 12.604, "note_off_time": 13.012}, {"pitch": 42, "velocity": 80, "note_on_time": 12.604, "note_off_time": 13.012}, {"pitch": 42, "velocity": 80, "note_on_time": 13.012, "note_off_time": 13.418}, {"pitch": 64, "velocity": 80, "note_on_time": 13.418, "note_off_time": 13.825}, {"pitch": 42, "velocity": 80, "note_on_time": 13.419, "note_off_time": 13.826}, {"pitch": 64, "velocity": 80, "note_on_time": 13.825, "note_off_time": 14.234}, {"pitch": 42, "velocity": 80, "note_on_time": 13.826, "note_off_time": 14.234}, {"pitch": 64, "velocity": 80, "note_on_time": 14.234, "note_off_time": 14.643}, {"pitch": 42, "velocity": 80, "note_on_time": 14.234, "note_off_time": 14.643}]</notes><options name="Option List">((4, 4), [0.5, 0.25], 3, 8, &lt;NoteRangePerHand.C_TO_G: 6&gt;, &lt;NoteRangePerHand.ONE_NOTE: 2&gt;, False, True, True, 150)</options></target_notes><trials><trial trial_no="1" timestamp="2022_08_17-15_02_58"><notes name="Played Notes">[{"pitch": 65, "velocity": 61, "note_on_time": 1.69, "note_off_time": 2.1}, {"pitch": 67, "velocity": 65, "note_on_time": 2.86, "note_off_time": 3.397}, {"pitch": 64, "velocity": 71, "note_on_time": 4.063, "note_off_time": 4.43}, {"pitch": 67, "velocity": 65, "note_on_time": 4.458, "note_off_time": 4.89}, {"pitch": 64, "velocity": 64, "note_on_time": 4.887, "note_off_time": 5.267}, {"pitch": 67, "velocity": 79, "note_on_time": 5.717, "note_off_time": 5.839}, {"pitch": 67, "velocity": 78, "note_on_time": 6.119, "note_off_time": 6.233}, {"pitch": 67, "velocity": 75, "note_on_time": 6.501, "note_off_time": 6.632}, {"pitch": 64, "velocity": 83, "note_on_time": 7.34, "note_off_time": 7.453}, {"pitch": 67, "velocity": 71, "note_on_time": 7.714, "note_off_time": 7.84}, {"pitch": 62, "velocity": 74, "note_on_time": 8.12, "note_off_time": 8.202}, {"pitch": 65, "velocity": 75, "note_on_time": 8.527, "note_off_time": 8.584}, {"pitch": 65, "velocity": 74, "note_on_time": 8.915, "note_off_time": 9.03}, {"pitch": 60, "velocity": 55, "note_on_time": 9.324, "note_off_time": 9.397}, {"pitch": 67, "velocity": 71, "note_on_time": 9.704, "note_off_time": 9.833}, {"pitch": 64, "velocity": 63, "note_on_time": 10.117, "note_off_time": 10.18}, {"pitch": 60, "velocity": 71, "note_on_time": 10.488, "note_off_time": 10.556}, {"pitch": 60, "velocity": 64, "note_on_time": 10.902, "note_off_time": 10.965}, {"pitch": 62, "velocity": 74, "note_on_time": 11.293, "note_off_time": 11.345}, {"pitch": 67, "velocity": 65, "note_on_time": 11.7, "note_off_time": 11.822}, {"pitch": 64, "velocity": 72, "note_on_time": 12.09, "note_off_time": 12.139}, {"pitch": 64, "velocity": 69, "note_on_time": 12.966, "note_off_time": 13.02}, {"pitch": 64, "velocity": 74, "note_on_time": 13.32, "note_off_time": 13.374}, {"pitch": 64, "velocity": 77, "note_on_time": 13.735, "note_off_time": 13.783}]</notes><guidance name="Guidance Mode">None</guidance><error name="Error value">0.04071428571428532</error></trial><trial trial_no="2" timestamp="2022_08_17-15_03_26"><notes name="Played Notes">[{"pitch": 65, "velocity": 66, "note_on_time": 1.619, "note_off_time": 2.041}, {"pitch": 67, "velocity": 71, "note_on_time": 2.869, "note_off_time": 3.286}, {"pitch": 64, "velocity": 72, "note_on_time": 4.048, "note_off_time": 4.127}, {"pitch": 67, "velocity": 69, "note_on_time": 4.435, "note_off_time": 4.559}, {"pitch": 64, "velocity": 67, "note_on_time": 4.837, "note_off_time": 4.91}, {"pitch": 67, "velocity": 71, "note_on_time": 5.688, "note_off_time": 5.805}, {"pitch": 67, "velocity": 72, "note_on_time": 6.074, "note_off_time": 6.179}, {"pitch": 67, "velocity": 73, "note_on_time": 6.46, "note_off_time": 6.575}, {"pitch": 64, "velocity": 75, "note_on_time": 7.311, "note_off_time": 7.402}, {"pitch": 67, "velocity": 72, "note_on_time": 7.684, "note_off_time": 7.811}, {"pitch": 62, "velocity": 72, "note_on_time": 8.098, "note_off_time": 8.196}, {"pitch": 65, "velocity": 63, "note_on_time": 8.512, "note_off_time": 8.574}, {"pitch": 65, "velocity": 71, "note_on_time": 8.897, "note_off_time": 9.01}, {"pitch": 60, "velocity": 78, "note_on_time": 9.304, "note_off_time": 9.405}, {"pitch": 67, "velocity": 74, "note_on_time": 9.723, "note_off_time": 9.85}, {"pitch": 64, "velocity": 68, "note_on_time": 10.137, "note_off_time": 10.192}, {"pitch": 60, "velocity": 76, "note_on_time": 10.524, "note_off_time": 10.582}, {"pitch": 60, "velocity": 79, "note_on_time": 10.954, "note_off_time": 11.018}, {"pitch": 62, "velocity": 64, "note_on_time": 11.372, "note_off_time": 11.425}, {"pitch": 67, "velocity": 77, "note_on_time": 11.77, "note_off_time": 11.891}, {"pitch": 64, "velocity": 65, "note_on_time": 12.171, "note_off_time": 12.219}, {"pitch": 64, "velocity": 70, "note_on_time": 12.978, "note_off_time": 13.034}, {"pitch": 64, "velocity": 73, "note_on_time": 13.384, "note_off_time": 13.431}, {"pitch": 64, "velocity": 69, "note_on_time": 13.734, "note_off_time": 13.786}]</notes><guidance name="Guidance Mode">None</guidance><error name="Error value">0.035857142857142865</error></trial><trial trial_no="3" timestamp="2022_08_17-15_03_56"><notes name="Played Notes">[{"pitch": 65, "velocity": 70, "note_on_time": 1.617, "note_off_time": 2.045}, {"pitch": 67, "velocity": 63, "note_on_time": 2.89, "note_off_time": 3.467}, {"pitch": 64, "velocity": 80, "note_on_time": 4.098, "note_off_time": 4.177}, {"pitch": 67, "velocity": 71, "note_on_time": 4.48, "note_off_time": 4.606}, {"pitch": 64, "velocity": 68, "note_on_time": 4.919, "note_off_time": 4.972}, {"pitch": 67, "velocity": 74, "note_on_time": 5.71, "note_off_time": 5.838}, {"pitch": 67, "velocity": 76, "note_on_time": 6.087, "note_off_time": 6.21}, {"pitch": 67, "velocity": 75, "note_on_time": 6.495, "note_off_time": 6.613}, {"pitch": 64, "velocity": 68, "note_on_time": 7.314, "note_off_time": 7.386}, {"pitch": 67, "velocity": 75, "note_on_time": 7.696, "note_off_time": 7.804}, {"pitch": 62, "velocity": 69, "note_on_time": 8.118, "note_off_time": 8.169}, {"pitch": 65, "velocity": 73, "note_on_time": 8.526, "note_off_time": 8.592}, {"pitch": 65, "velocity": 81, "note_on_time": 8.934, "note_off_time": 9.043}, {"pitch": 60, "velocity": 70, "note_on_time": 9.352, "note_off_time": 9.427}, {"pitch": 67, "velocity": 72, "note_on_time": 9.726, "note_off_time": 9.85}, {"pitch": 64, "velocity": 67, "note_on_time": 10.124, "note_off_time": 10.178}, {"pitch": 60, "velocity": 75, "note_on_time": 10.523, "note_off_time": 10.585}, {"pitch": 60, "velocity": 76, "note_on_time": 10.959, "note_off_time": 11.008}, {"pitch": 62, "velocity": 74, "note_on_time": 11.342, "note_off_time": 11.4}, {"pitch": 67, "velocity": 80, "note_on_time": 11.735, "note_off_time": 11.85}, {"pitch": 64, "velocity": 73, "note_on_time": 12.143, "note_off_time": 12.186}, {"pitch": 64, "velocity": 78, "note_on_time": 12.969, "note_off_time": 13.026}, {"pitch": 64, "velocity": 78, "note_on_time": 13.363, "note_off_time": 13.417}, {"pitch": 64, "velocity": 67, "note_on_time": 13.754, "note_off_time": 13.797}]</notes><guidance name="Guidance Mode">None</guidance><error name="Error value">0.03157142857142853</error></trial></trials></MIDI>