<MIDI midiNo="2022_04_28-15_50_25"><target_notes><notes name="Note List">[{"pitch": 39, "velocity": 100, "note_on_time": 0.004, "note_off_time": 0.333}, {"pitch": 42, "velocity": 100, "note_on_time": 0.333, "note_off_time": 0.661}, {"pitch": 42, "velocity": 100, "note_on_time": 0.661, "note_off_time": 0.986}, {"pitch": 42, "velocity": 100, "note_on_time": 0.987, "note_off_time": 1.312}, {"pitch": 39, "velocity": 100, "note_on_time": 1.312, "note_off_time": 1.639}, {"pitch": 60, "velocity": 100, "note_on_time": 1.311, "note_off_time": 1.966}, {"pitch": 42, "velocity": 100, "note_on_time": 1.64, "note_off_time": 1.967}, {"pitch": 42, "velocity": 100, "note_on_time": 1.968, "note_off_time": 2.296}, {"pitch": 42, "velocity": 100, "note_on_time": 2.297, "note_off_time": 2.621}, {"pitch": 67, "velocity": 100, "note_on_time": 2.621, "note_off_time": 2.791}, {"pitch": 62, "velocity": 100, "note_on_time": 2.791, "note_off_time": 2.961}, {"pitch": 39, "velocity": 100, "note_on_time": 2.621, "note_off_time": 2.962}, {"pitch": 60, "velocity": 100, "note_on_time": 2.961, "note_off_time": 3.132}, {"pitch": 64, "velocity": 100, "note_on_time": 3.132, "note_off_time": 3.304}, {"pitch": 42, "velocity": 100, "note_on_time": 2.963, "note_off_time": 3.304}, {"pitch": 64, "velocity": 100, "note_on_time": 3.304, "note_off_time": 3.633}, {"pitch": 42, "velocity": 100, "note_on_time": 3.304, "note_off_time": 3.633}, {"pitch": 65, "velocity": 100, "note_on_time": 3.633, "note_off_time": 3.96}, {"pitch": 42, "velocity": 100, "note_on_time": 3.633, "note_off_time": 3.961}, {"pitch": 62, "velocity": 100, "note_on_time": 3.96, "note_off_time": 4.286}, {"pitch": 39, "velocity": 100, "note_on_time": 3.961, "note_off_time": 4.286}, {"pitch": 65, "velocity": 100, "note_on_time": 4.286, "note_off_time": 4.612}, {"pitch": 42, "velocity": 100, "note_on_time": 4.286, "note_off_time": 4.613}, {"pitch": 60, "velocity": 100, "note_on_time": 4.612, "note_off_time": 4.784}, {"pitch": 67, "velocity": 100, "note_on_time": 4.784, "note_off_time": 4.955}, {"pitch": 42, "velocity": 100, "note_on_time": 4.613, "note_off_time": 4.956}, {"pitch": 62, "velocity": 100, "note_on_time": 4.955, "note_off_time": 5.281}, {"pitch": 42, "velocity": 100, "note_on_time": 4.956, "note_off_time": 5.282}, {"pitch": 60, "velocity": 100, "note_on_time": 5.281, "note_off_time": 5.607}, {"pitch": 39, "velocity": 100, "note_on_time": 5.282, "note_off_time": 5.607}, {"pitch": 60, "velocity": 100, "note_on_time": 5.607, "note_off_time": 5.935}, {"pitch": 42, "velocity": 100, "note_on_time": 5.607, "note_off_time": 5.935}, {"pitch": 62, "velocity": 100, "note_on_time": 5.935, "note_off_time": 6.108}, {"pitch": 67, "velocity": 100, "note_on_time": 6.108, "note_off_time": 6.279}, {"pitch": 42, "velocity": 100, "note_on_time": 5.936, "note_off_time": 6.279}, {"pitch": 64, "velocity": 100, "note_on_time": 6.279, "note_off_time": 6.608}, {"pitch": 42, "velocity": 100, "note_on_time": 6.279, "note_off_time": 6.609}, {"pitch": 62, "velocity": 100, "note_on_time": 6.608, "note_off_time": 6.781}, {"pitch": 65, "velocity": 100, "note_on_time": 6.781, "note_off_time": 6.951}, {"pitch": 39, "velocity": 100, "note_on_time": 6.609, "note_off_time": 6.951}, {"pitch": 67, "velocity": 100, "note_on_time": 6.951, "note_off_time": 7.28}, {"pitch": 42, "velocity": 100, "note_on_time": 6.952, "note_off_time": 7.28}, {"pitch": 67, "velocity": 100, "note_on_time": 7.28, "note_off_time": 7.609}, {"pitch": 42, "velocity": 100, "note_on_time": 7.28, "note_off_time": 7.609}, {"pitch": 67, "velocity": 100, "note_on_time": 7.609, "note_off_time": 7.78}, {"pitch": 64, "velocity": 100, "note_on_time": 7.78, "note_off_time": 7.953}, {"pitch": 42, "velocity": 100, "note_on_time": 7.609, "note_off_time": 7.953}, {"pitch": 65, "velocity": 100, "note_on_time": 7.953, "note_off_time": 8.282}, {"pitch": 39, "velocity": 100, "note_on_time": 7.953, "note_off_time": 8.282}, {"pitch": 62, "velocity": 100, "note_on_time": 8.282, "note_off_time": 8.608}, {"pitch": 42, "velocity": 100, "note_on_time": 8.282, "note_off_time": 8.608}, {"pitch": 65, "velocity": 100, "note_on_time": 8.608, "note_off_time": 8.78}, {"pitch": 65, "velocity": 100, "note_on_time": 8.78, "note_off_time": 8.951}, {"pitch": 42, "velocity": 100, "note_on_time": 8.608, "note_off_time": 8.951}, {"pitch": 60, "velocity": 100, "note_on_time": 8.951, "note_off_time": 9.28}, {"pitch": 42, "velocity": 100, "note_on_time": 8.951, "note_off_time": 9.28}, {"pitch": 60, "velocity": 100, "note_on_time": 9.28, "note_off_time": 9.606}, {"pitch": 39, "velocity": 100, "note_on_time": 9.28, "note_off_time": 9.606}, {"pitch": 67, "velocity": 100, "note_on_time": 9.606, "note_off_time": 9.779}, {"pitch": 67, "velocity": 100, "note_on_time": 9.779, "note_off_time": 9.95}, {"pitch": 42, "velocity": 100, "note_on_time": 9.607, "note_off_time": 9.95}, {"pitch": 60, "velocity": 100, "note_on_time": 9.95, "note_off_time": 10.121}, {"pitch": 64, "velocity": 100, "note_on_time": 10.121, "note_off_time": 10.293}, {"pitch": 42, "velocity": 100, "note_on_time": 9.951, "note_off_time": 10.293}, {"pitch": 64, "velocity": 100, "note_on_time": 10.293, "note_off_time": 10.618}, {"pitch": 42, "velocity": 100, "note_on_time": 10.294, "note_off_time": 10.618}, {"pitch": 39, "velocity": 100, "note_on_time": 10.618, "note_off_time": 10.945}, {"pitch": 64, "velocity": 100, "note_on_time": 10.944, "note_off_time": 11.271}, {"pitch": 42, "velocity": 100, "note_on_time": 10.945, "note_off_time": 11.271}, {"pitch": 64, "velocity": 100, "note_on_time": 11.271, "note_off_time": 11.598}, {"pitch": 42, "velocity": 100, "note_on_time": 11.271, "note_off_time": 11.598}, {"pitch": 64, "velocity": 100, "note_on_time": 11.598, "note_off_time": 11.923}, {"pitch": 42, "velocity": 100, "note_on_time": 11.598, "note_off_time": 11.923}]</notes><options name="Option List">((4, 4), [0.5, 0.25, 0.125], 3, 8, &lt;NoteRangePerHand.C_TO_G: 6&gt;, &lt;NoteRangePerHand.ONE_NOTE: 2&gt;, False, True, True, '187')</options></target_notes><trials><trial trial_no="1" timestamp="2022_04_28-15_50_10"><notes name="Played Notes">[{"pitch": 60, "velocity": 76, "note_on_time": 1.273, "note_off_time": 2.171}, {"pitch": 67, "velocity": 71, "note_on_time": 2.63, "note_off_time": 2.838}, {"pitch": 62, "velocity": 59, "note_on_time": 2.808, "note_off_time": 2.947}, {"pitch": 60, "velocity": 73, "note_on_time": 2.973, "note_off_time": 3.17}, {"pitch": 64, "velocity": 80, "note_on_time": 3.143, "note_off_time": 3.251}, {"pitch": 65, "velocity": 79, "note_on_time": 3.3, "note_off_time": 3.46}, {"pitch": 64, "velocity": 70, "note_on_time": 3.48, "note_off_time": 3.665}, {"pitch": 65, "velocity": 78, "note_on_time": 3.689, "note_off_time": 3.947}, {"pitch": 62, "velocity": 73, "note_on_time": 3.938, "note_off_time": 4.297}, {"pitch": 65, "velocity": 72, "note_on_time": 4.278, "note_off_time": 4.63}, {"pitch": 60, "velocity": 71, "note_on_time": 4.611, "note_off_time": 4.791}, {"pitch": 67, "velocity": 70, "note_on_time": 4.779, "note_off_time": 4.91}, {"pitch": 64, "velocity": 68, "note_on_time": 4.937, "note_off_time": 5.286}, {"pitch": 60, "velocity": 77, "note_on_time": 5.279, "note_off_time": 5.505}, {"pitch": 60, "velocity": 74, "note_on_time": 5.633, "note_off_time": 5.942}, {"pitch": 62, "velocity": 66, "note_on_time": 5.982, "note_off_time": 6.139}, {"pitch": 67, "velocity": 71, "note_on_time": 6.115, "note_off_time": 6.33}, {"pitch": 64, "velocity": 79, "note_on_time": 6.291, "note_off_time": 6.537}, {"pitch": 60, "velocity": 55, "note_on_time": 6.689, "note_off_time": 6.733}, {"pitch": 64, "velocity": 87, "note_on_time": 6.707, "note_off_time": 6.967}, {"pitch": 65, "velocity": 81, "note_on_time": 6.993, "note_off_time": 7.242}, {"pitch": 67, "velocity": 83, "note_on_time": 7.234, "note_off_time": 7.472}, {"pitch": 67, "velocity": 56, "note_on_time": 7.581, "note_off_time": 7.746}, {"pitch": 65, "velocity": 73, "note_on_time": 7.767, "note_off_time": 7.924}, {"pitch": 64, "velocity": 59, "note_on_time": 7.946, "note_off_time": 8.048}, {"pitch": 67, "velocity": 75, "note_on_time": 8.016, "note_off_time": 8.089}, {"pitch": 65, "velocity": 68, "note_on_time": 8.057, "note_off_time": 8.345}, {"pitch": 62, "velocity": 71, "note_on_time": 8.33, "note_off_time": 8.621}, {"pitch": 65, "velocity": 73, "note_on_time": 8.645, "note_off_time": 8.748}, {"pitch": 65, "velocity": 52, "note_on_time": 8.835, "note_off_time": 8.945}, {"pitch": 59, "velocity": 52, "note_on_time": 9.013, "note_off_time": 9.125}, {"pitch": 60, "velocity": 49, "note_on_time": 9.007, "note_off_time": 9.228}, {"pitch": 60, "velocity": 72, "note_on_time": 9.329, "note_off_time": 9.622}, {"pitch": 67, "velocity": 62, "note_on_time": 9.65, "note_off_time": 9.72}, {"pitch": 67, "velocity": 58, "note_on_time": 9.822, "note_off_time": 9.995}, {"pitch": 62, "velocity": 62, "note_on_time": 10.02, "note_off_time": 10.318}, {"pitch": 64, "velocity": 65, "note_on_time": 10.328, "note_off_time": 10.563}, {"pitch": 64, "velocity": 59, "note_on_time": 10.645, "note_off_time": 10.915}, {"pitch": 64, "velocity": 86, "note_on_time": 11.515, "note_off_time": 11.67}]</notes><guidance name="Guidance Mode">None</guidance><error name="Error value">0.9581116094771245</error></trial><trial trial_no="2" timestamp="2022_04_28-15_50_53"><notes name="Played Notes">[{"pitch": 60, "velocity": 69, "note_on_time": 1.265, "note_off_time": 2.011}, {"pitch": 67, "velocity": 70, "note_on_time": 2.641, "note_off_time": 2.92}, {"pitch": 62, "velocity": 56, "note_on_time": 2.926, "note_off_time": 3.153}, {"pitch": 64, "velocity": 60, "note_on_time": 3.104, "note_off_time": 3.276}, {"pitch": 65, "velocity": 62, "note_on_time": 3.332, "note_off_time": 3.434}, {"pitch": 64, "velocity": 71, "note_on_time": 3.432, "note_off_time": 3.744}, {"pitch": 65, "velocity": 70, "note_on_time": 3.689, "note_off_time": 3.959}, {"pitch": 62, "velocity": 60, "note_on_time": 4.02, "note_off_time": 4.345}, {"pitch": 65, "velocity": 63, "note_on_time": 4.326, "note_off_time": 4.648}, {"pitch": 60, "velocity": 57, "note_on_time": 4.648, "note_off_time": 4.836}, {"pitch": 67, "velocity": 61, "note_on_time": 4.829, "note_off_time": 5.037}, {"pitch": 62, "velocity": 50, "note_on_time": 5.011, "note_off_time": 5.273}, {"pitch": 60, "velocity": 64, "note_on_time": 5.276, "note_off_time": 5.469}, {"pitch": 60, "velocity": 64, "note_on_time": 5.628, "note_off_time": 5.895}, {"pitch": 62, "velocity": 42, "note_on_time": 5.957, "note_off_time": 6.124}, {"pitch": 67, "velocity": 53, "note_on_time": 6.085, "note_off_time": 6.3}, {"pitch": 64, "velocity": 58, "note_on_time": 6.269, "note_off_time": 6.546}, {"pitch": 62, "velocity": 65, "note_on_time": 6.615, "note_off_time": 6.903}, {"pitch": 65, "velocity": 57, "note_on_time": 6.919, "note_off_time": 7.131}, {"pitch": 67, "velocity": 62, "note_on_time": 7.101, "note_off_time": 7.93}, {"pitch": 65, "velocity": 70, "note_on_time": 7.916, "note_off_time": 8.091}, {"pitch": 64, "velocity": 52, "note_on_time": 8.045, "note_off_time": 8.137}, {"pitch": 65, "velocity": 49, "note_on_time": 8.146, "note_off_time": 8.334}, {"pitch": 62, "velocity": 54, "note_on_time": 8.345, "note_off_time": 8.597}, {"pitch": 65, "velocity": 51, "note_on_time": 8.623, "note_off_time": 9.012}, {"pitch": 60, "velocity": 53, "note_on_time": 8.981, "note_off_time": 9.151}, {"pitch": 60, "velocity": 59, "note_on_time": 9.279, "note_off_time": 9.611}, {"pitch": 67, "velocity": 61, "note_on_time": 9.609, "note_off_time": 9.676}, {"pitch": 67, "velocity": 60, "note_on_time": 9.773, "note_off_time": 9.896}, {"pitch": 60, "velocity": 52, "note_on_time": 9.962, "note_off_time": 10.338}, {"pitch": 64, "velocity": 58, "note_on_time": 10.321, "note_off_time": 10.54}, {"pitch": 64, "velocity": 51, "note_on_time": 10.66, "note_off_time": 11.024}, {"pitch": 64, "velocity": 73, "note_on_time": 11.575, "note_off_time": 11.813}]</notes><guidance name="Guidance Mode">None</guidance><error name="Error value">0.7280333088235287</error></trial><trial trial_no="3" timestamp="2022_04_28-15_51_21"><notes name="Played Notes">[{"pitch": 60, "velocity": 60, "note_on_time": 1.295, "note_off_time": 2.124}, {"pitch": 67, "velocity": 65, "note_on_time": 2.623, "note_off_time": 2.826}, {"pitch": 62, "velocity": 45, "note_on_time": 2.822, "note_off_time": 2.961}, {"pitch": 64, "velocity": 73, "note_on_time": 2.981, "note_off_time": 3.084}, {"pitch": 60, "velocity": 51, "note_on_time": 3.094, "note_off_time": 3.248}, {"pitch": 65, "velocity": 78, "note_on_time": 3.434, "note_off_time": 3.594}, {"pitch": 65, "velocity": 54, "note_on_time": 3.704, "note_off_time": 3.782}, {"pitch": 67, "velocity": 70, "note_on_time": 3.733, "note_off_time": 3.939}, {"pitch": 62, "velocity": 63, "note_on_time": 3.956, "note_off_time": 4.283}, {"pitch": 65, "velocity": 64, "note_on_time": 4.269, "note_off_time": 4.612}, {"pitch": 60, "velocity": 58, "note_on_time": 4.612, "note_off_time": 4.834}, {"pitch": 67, "velocity": 40, "note_on_time": 4.787, "note_off_time": 4.964}, {"pitch": 62, "velocity": 44, "note_on_time": 4.959, "note_off_time": 5.241}, {"pitch": 60, "velocity": 55, "note_on_time": 5.25, "note_off_time": 5.485}, {"pitch": 60, "velocity": 60, "note_on_time": 5.608, "note_off_time": 5.855}, {"pitch": 62, "velocity": 42, "note_on_time": 5.97, "note_off_time": 6.086}, {"pitch": 67, "velocity": 56, "note_on_time": 6.08, "note_off_time": 6.276}, {"pitch": 64, "velocity": 54, "note_on_time": 6.256, "note_off_time": 6.514}, {"pitch": 62, "velocity": 50, "note_on_time": 6.587, "note_off_time": 6.783}, {"pitch": 65, "velocity": 66, "note_on_time": 6.766, "note_off_time": 6.944}, {"pitch": 67, "velocity": 73, "note_on_time": 6.952, "note_off_time": 7.177}, {"pitch": 67, "velocity": 66, "note_on_time": 7.279, "note_off_time": 7.629}, {"pitch": 64, "velocity": 55, "note_on_time": 7.626, "note_off_time": 7.824}, {"pitch": 65, "velocity": 72, "note_on_time": 7.962, "note_off_time": 8.31}, {"pitch": 62, "velocity": 60, "note_on_time": 8.303, "note_off_time": 8.56}, {"pitch": 65, "velocity": 60, "note_on_time": 8.628, "note_off_time": 8.7}, {"pitch": 65, "velocity": 69, "note_on_time": 8.794, "note_off_time": 8.934}, {"pitch": 60, "velocity": 59, "note_on_time": 8.948, "note_off_time": 9.174}, {"pitch": 60, "velocity": 68, "note_on_time": 9.289, "note_off_time": 9.575}, {"pitch": 67, "velocity": 64, "note_on_time": 9.628, "note_off_time": 9.696}, {"pitch": 67, "velocity": 64, "note_on_time": 9.795, "note_off_time": 9.95}, {"pitch": 60, "velocity": 68, "note_on_time": 9.969, "note_off_time": 10.183}, {"pitch": 64, "velocity": 60, "note_on_time": 10.162, "note_off_time": 10.218}, {"pitch": 64, "velocity": 76, "note_on_time": 10.292, "note_off_time": 10.527}, {"pitch": 64, "velocity": 78, "note_on_time": 10.971, "note_off_time": 11.127}, {"pitch": 64, "velocity": 77, "note_on_time": 11.29, "note_off_time": 11.446}, {"pitch": 64, "velocity": 86, "note_on_time": 11.619, "note_off_time": 11.831}]</notes><guidance name="Guidance Mode">None</guidance><error name="Error value">0.5849491993464055</error></trial></trials></MIDI>