<MIDI midiNo="2022_11_10-11_32_07"><target_notes><notes name="Note List">[{"pitch": 42, "velocity": 80, "note_on_time": 0.004, "note_off_time": 0.73}, {"pitch": 42, "velocity": 80, "note_on_time": 0.73, "note_off_time": 1.458}, {"pitch": 42, "velocity": 80, "note_on_time": 1.458, "note_off_time": 2.192}, {"pitch": 42, "velocity": 80, "note_on_time": 2.192, "note_off_time": 2.922}, {"pitch": 60, "velocity": 80, "note_on_time": 2.922, "note_off_time": 3.65}, {"pitch": 42, "velocity": 80, "note_on_time": 2.922, "note_off_time": 3.65}, {"pitch": 62, "velocity": 80, "note_on_time": 3.65, "note_off_time": 4.384}, {"pitch": 42, "velocity": 80, "note_on_time": 3.651, "note_off_time": 4.385}, {"pitch": 62, "velocity": 80, "note_on_time": 4.384, "note_off_time": 5.117}, {"pitch": 42, "velocity": 80, "note_on_time": 4.385, "note_off_time": 5.117}, {"pitch": 60, "velocity": 80, "note_on_time": 5.117, "note_off_time": 5.844}, {"pitch": 42, "velocity": 80, "note_on_time": 5.117, "note_off_time": 5.845}, {"pitch": 64, "velocity": 80, "note_on_time": 5.844, "note_off_time": 6.576}, {"pitch": 42, "velocity": 80, "note_on_time": 5.845, "note_off_time": 6.577}, {"pitch": 64, "velocity": 80, "note_on_time": 6.576, "note_off_time": 7.309}, {"pitch": 42, "velocity": 80, "note_on_time": 6.577, "note_off_time": 7.309}, {"pitch": 60, "velocity": 80, "note_on_time": 7.309, "note_off_time": 8.041}, {"pitch": 42, "velocity": 80, "note_on_time": 7.309, "note_off_time": 8.041}, {"pitch": 60, "velocity": 80, "note_on_time": 8.041, "note_off_time": 8.769}, {"pitch": 42, "velocity": 80, "note_on_time": 8.042, "note_off_time": 8.769}, {"pitch": 60, "velocity": 80, "note_on_time": 8.769, "note_off_time": 9.497}, {"pitch": 42, "velocity": 80, "note_on_time": 8.77, "note_off_time": 9.497}, {"pitch": 42, "velocity": 80, "note_on_time": 9.497, "note_off_time": 10.226}, {"pitch": 60, "velocity": 80, "note_on_time": 10.225, "note_off_time": 10.958}, {"pitch": 42, "velocity": 80, "note_on_time": 10.226, "note_off_time": 10.958}, {"pitch": 60, "velocity": 80, "note_on_time": 10.958, "note_off_time": 11.689}, {"pitch": 42, "velocity": 80, "note_on_time": 10.958, "note_off_time": 11.689}, {"pitch": 64, "velocity": 80, "note_on_time": 11.689, "note_off_time": 12.421}, {"pitch": 42, "velocity": 80, "note_on_time": 11.689, "note_off_time": 12.421}, {"pitch": 62, "velocity": 80, "note_on_time": 12.421, "note_off_time": 13.151}, {"pitch": 42, "velocity": 80, "note_on_time": 12.421, "note_off_time": 13.152}, {"pitch": 64, "velocity": 80, "note_on_time": 13.151, "note_off_time": 13.879}, {"pitch": 42, "velocity": 80, "note_on_time": 13.152, "note_off_time": 13.879}, {"pitch": 62, "velocity": 80, "note_on_time": 13.879, "note_off_time": 14.608}, {"pitch": 42, "velocity": 80, "note_on_time": 13.88, "note_off_time": 14.609}, {"pitch": 60, "velocity": 80, "note_on_time": 14.608, "note_off_time": 15.336}, {"pitch": 42, "velocity": 80, "note_on_time": 14.609, "note_off_time": 15.336}, {"pitch": 62, "velocity": 80, "note_on_time": 15.336, "note_off_time": 16.066}, {"pitch": 42, "velocity": 80, "note_on_time": 15.336, "note_off_time": 16.067}, {"pitch": 60, "velocity": 80, "note_on_time": 16.066, "note_off_time": 16.8}, {"pitch": 42, "velocity": 80, "note_on_time": 16.067, "note_off_time": 16.8}, {"pitch": 64, "velocity": 80, "note_on_time": 16.8, "note_off_time": 17.532}, {"pitch": 42, "velocity": 80, "note_on_time": 16.8, "note_off_time": 17.532}, {"pitch": 60, "velocity": 80, "note_on_time": 17.532, "note_off_time": 18.26}, {"pitch": 42, "velocity": 80, "note_on_time": 17.532, "note_off_time": 18.26}, {"pitch": 42, "velocity": 80, "note_on_time": 18.26, "note_off_time": 18.993}, {"pitch": 60, "velocity": 80, "note_on_time": 18.26, "note_off_time": 19.722}, {"pitch": 42, "velocity": 80, "note_on_time": 18.993, "note_off_time": 19.722}, {"pitch": 60, "velocity": 80, "note_on_time": 19.722, "note_off_time": 20.45}, {"pitch": 42, "velocity": 80, "note_on_time": 19.722, "note_off_time": 20.451}, {"pitch": 42, "velocity": 80, "note_on_time": 20.451, "note_off_time": 21.185}, {"pitch": 62, "velocity": 80, "note_on_time": 20.45, "note_off_time": 21.915}, {"pitch": 42, "velocity": 80, "note_on_time": 21.186, "note_off_time": 21.915}, {"pitch": 42, "velocity": 80, "note_on_time": 21.916, "note_off_time": 22.644}, {"pitch": 60, "velocity": 80, "note_on_time": 22.644, "note_off_time": 23.373}, {"pitch": 42, "velocity": 80, "note_on_time": 22.644, "note_off_time": 23.373}, {"pitch": 42, "velocity": 80, "note_on_time": 23.373, "note_off_time": 24.102}, {"pitch": 60, "velocity": 80, "note_on_time": 24.102, "note_off_time": 24.831}, {"pitch": 42, "velocity": 80, "note_on_time": 24.102, "note_off_time": 24.831}, {"pitch": 60, "velocity": 80, "note_on_time": 24.831, "note_off_time": 25.56}, {"pitch": 42, "velocity": 80, "note_on_time": 24.832, "note_off_time": 25.561}, {"pitch": 60, "velocity": 80, "note_on_time": 25.56, "note_off_time": 26.29}, {"pitch": 42, "velocity": 80, "note_on_time": 25.561, "note_off_time": 26.29}]</notes><options name="Option List">((4, 4), [0.5, 0.25], 3, 8, &lt;NoteRangePerHand.THREE_NOTES: 4&gt;, &lt;NoteRangePerHand.ONE_NOTE: 2&gt;, False, True, False, 83)</options></target_notes><trials><trial trial_no="1" timestamp="2022_11_10-11_31_39"><notes name="Played Notes">[{"pitch": 60, "velocity": 81, "note_on_time": 2.887, "note_off_time": 3.206}, {"pitch": 62, "velocity": 77, "note_on_time": 3.586, "note_off_time": 3.881}, {"pitch": 62, "velocity": 74, "note_on_time": 4.298, "note_off_time": 4.58}, {"pitch": 60, "velocity": 82, "note_on_time": 4.992, "note_off_time": 5.245}, {"pitch": 64, "velocity": 75, "note_on_time": 5.688, "note_off_time": 5.935}, {"pitch": 64, "velocity": 75, "note_on_time": 6.432, "note_off_time": 6.643}, {"pitch": 60, "velocity": 75, "note_on_time": 7.115, "note_off_time": 7.375}, {"pitch": 60, "velocity": 85, "note_on_time": 7.823, "note_off_time": 8.057}, {"pitch": 60, "velocity": 83, "note_on_time": 8.57, "note_off_time": 8.822}, {"pitch": 60, "velocity": 77, "note_on_time": 10.141, "note_off_time": 10.442}, {"pitch": 60, "velocity": 82, "note_on_time": 10.843, "note_off_time": 11.115}, {"pitch": 64, "velocity": 73, "note_on_time": 11.556, "note_off_time": 11.86}, {"pitch": 62, "velocity": 82, "note_on_time": 12.293, "note_off_time": 12.57}, {"pitch": 64, "velocity": 77, "note_on_time": 12.988, "note_off_time": 13.286}, {"pitch": 62, "velocity": 77, "note_on_time": 13.736, "note_off_time": 13.998}, {"pitch": 60, "velocity": 75, "note_on_time": 14.456, "note_off_time": 14.742}, {"pitch": 62, "velocity": 80, "note_on_time": 15.206, "note_off_time": 15.476}, {"pitch": 60, "velocity": 84, "note_on_time": 15.929, "note_off_time": 16.205}, {"pitch": 64, "velocity": 76, "note_on_time": 16.7, "note_off_time": 16.956}, {"pitch": 60, "velocity": 85, "note_on_time": 17.434, "note_off_time": 17.715}, {"pitch": 60, "velocity": 85, "note_on_time": 18.13, "note_off_time": 19.165}, {"pitch": 60, "velocity": 81, "note_on_time": 19.633, "note_off_time": 20.198}, {"pitch": 62, "velocity": 76, "note_on_time": 21.171, "note_off_time": 21.28}, {"pitch": 64, "velocity": 40, "note_on_time": 21.349, "note_off_time": 21.697}, {"pitch": 62, "velocity": 68, "note_on_time": 21.834, "note_off_time": 22.562}, {"pitch": 60, "velocity": 82, "note_on_time": 23.25, "note_off_time": 23.537}, {"pitch": 60, "velocity": 88, "note_on_time": 24.712, "note_off_time": 24.981}, {"pitch": 60, "velocity": 82, "note_on_time": 25.394, "note_off_time": 25.673}]</notes><guidance name="Guidance Mode">None</guidance><error name="Error value">0.5862363749999993</error></trial></trials></MIDI>