<MIDI midiNo="2022_12_08-12_50_49"><target_notes><notes name="Note List">[{"pitch": 42, "velocity": 80, "note_on_time": 0.004, "note_off_time": 0.22}, {"pitch": 42, "velocity": 80, "note_on_time": 0.221, "note_off_time": 0.438}, {"pitch": 42, "velocity": 80, "note_on_time": 0.438, "note_off_time": 0.656}, {"pitch": 42, "velocity": 80, "note_on_time": 0.657, "note_off_time": 0.874}, {"pitch": 65, "velocity": 80, "note_on_time": 0.874, "note_off_time": 1.094}, {"pitch": 42, "velocity": 80, "note_on_time": 0.874, "note_off_time": 1.094}, {"pitch": 42, "velocity": 80, "note_on_time": 1.094, "note_off_time": 1.31}, {"pitch": 42, "velocity": 80, "note_on_time": 1.31, "note_off_time": 1.53}, {"pitch": 42, "velocity": 80, "note_on_time": 1.53, "note_off_time": 1.749}, {"pitch": 65, "velocity": 80, "note_on_time": 1.749, "note_off_time": 1.967}, {"pitch": 42, "velocity": 80, "note_on_time": 1.749, "note_off_time": 1.967}, {"pitch": 64, "velocity": 80, "note_on_time": 1.967, "note_off_time": 2.185}, {"pitch": 42, "velocity": 80, "note_on_time": 1.967, "note_off_time": 2.185}, {"pitch": 64, "velocity": 80, "note_on_time": 2.185, "note_off_time": 2.402}, {"pitch": 42, "velocity": 80, "note_on_time": 2.185, "note_off_time": 2.402}, {"pitch": 67, "velocity": 80, "note_on_time": 2.402, "note_off_time": 2.622}, {"pitch": 42, "velocity": 80, "note_on_time": 2.402, "note_off_time": 2.623}, {"pitch": 60, "velocity": 80, "note_on_time": 2.623, "note_off_time": 2.84}, {"pitch": 42, "velocity": 80, "note_on_time": 2.623, "note_off_time": 2.84}, {"pitch": 42, "velocity": 80, "note_on_time": 2.84, "note_off_time": 3.058}, {"pitch": 64, "velocity": 80, "note_on_time": 2.84, "note_off_time": 3.277}, {"pitch": 42, "velocity": 80, "note_on_time": 3.058, "note_off_time": 3.277}, {"pitch": 60, "velocity": 80, "note_on_time": 3.277, "note_off_time": 3.496}, {"pitch": 42, "velocity": 80, "note_on_time": 3.277, "note_off_time": 3.496}, {"pitch": 42, "velocity": 80, "note_on_time": 3.496, "note_off_time": 3.716}, {"pitch": 67, "velocity": 80, "note_on_time": 3.496, "note_off_time": 3.934}, {"pitch": 42, "velocity": 80, "note_on_time": 3.716, "note_off_time": 3.934}, {"pitch": 42, "velocity": 80, "note_on_time": 3.934, "note_off_time": 4.151}, {"pitch": 64, "velocity": 80, "note_on_time": 4.151, "note_off_time": 4.37}, {"pitch": 42, "velocity": 80, "note_on_time": 4.151, "note_off_time": 4.37}, {"pitch": 65, "velocity": 80, "note_on_time": 4.37, "note_off_time": 4.589}, {"pitch": 42, "velocity": 80, "note_on_time": 4.37, "note_off_time": 4.589}, {"pitch": 62, "velocity": 80, "note_on_time": 4.589, "note_off_time": 4.805}, {"pitch": 42, "velocity": 80, "note_on_time": 4.589, "note_off_time": 4.805}, {"pitch": 62, "velocity": 80, "note_on_time": 4.805, "note_off_time": 5.023}, {"pitch": 42, "velocity": 80, "note_on_time": 4.805, "note_off_time": 5.023}, {"pitch": 65, "velocity": 80, "note_on_time": 5.023, "note_off_time": 5.244}, {"pitch": 42, "velocity": 80, "note_on_time": 5.023, "note_off_time": 5.244}, {"pitch": 42, "velocity": 80, "note_on_time": 5.244, "note_off_time": 5.462}, {"pitch": 65, "velocity": 80, "note_on_time": 5.244, "note_off_time": 5.68}, {"pitch": 42, "velocity": 80, "note_on_time": 5.462, "note_off_time": 5.68}, {"pitch": 42, "velocity": 80, "note_on_time": 5.68, "note_off_time": 5.897}, {"pitch": 65, "velocity": 80, "note_on_time": 5.897, "note_off_time": 6.117}, {"pitch": 42, "velocity": 80, "note_on_time": 5.897, "note_off_time": 6.117}, {"pitch": 42, "velocity": 80, "note_on_time": 6.117, "note_off_time": 6.336}, {"pitch": 67, "velocity": 80, "note_on_time": 6.117, "note_off_time": 6.554}, {"pitch": 42, "velocity": 80, "note_on_time": 6.336, "note_off_time": 6.554}, {"pitch": 42, "velocity": 80, "note_on_time": 6.554, "note_off_time": 6.773}, {"pitch": 42, "velocity": 80, "note_on_time": 6.773, "note_off_time": 6.992}, {"pitch": 42, "velocity": 80, "note_on_time": 6.992, "note_off_time": 7.211}, {"pitch": 67, "velocity": 80, "note_on_time": 7.211, "note_off_time": 7.43}, {"pitch": 42, "velocity": 80, "note_on_time": 7.211, "note_off_time": 7.43}, {"pitch": 67, "velocity": 80, "note_on_time": 7.43, "note_off_time": 7.649}, {"pitch": 42, "velocity": 80, "note_on_time": 7.43, "note_off_time": 7.649}, {"pitch": 67, "velocity": 80, "note_on_time": 7.649, "note_off_time": 7.867}, {"pitch": 42, "velocity": 80, "note_on_time": 7.649, "note_off_time": 7.867}]</notes><options name="Option List">((4, 4), [0.5, 0.25], 3, 8, &lt;NoteRangePerHand.C_TO_G: 6&gt;, &lt;NoteRangePerHand.ONE_NOTE: 2&gt;, False, True, False, 281)</options></target_notes><trials><trial trial_no="1" timestamp="2022_12_08-12_50_40"><notes name="Played Notes">[{"pitch": 36, "velocity": 60, "note_on_time": 6.312, "note_off_time": 6.401}]</notes><guidance name="Guidance Mode">None</guidance><error name="Error value">1.4653546470588237</error></trial><trial trial_no="2" timestamp="2022_12_08-12_52_35"><notes name="Played Notes">[{"pitch": 65, "velocity": 70, "note_on_time": 0.877, "note_off_time": 1.538}, {"pitch": 65, "velocity": 61, "note_on_time": 1.788, "note_off_time": 2.018}, {"pitch": 64, "velocity": 66, "note_on_time": 2.001, "note_off_time": 2.087}, {"pitch": 64, "velocity": 64, "note_on_time": 2.215, "note_off_time": 2.4}, {"pitch": 67, "velocity": 67, "note_on_time": 2.417, "note_off_time": 2.642}, {"pitch": 60, "velocity": 72, "note_on_time": 2.631, "note_off_time": 2.841}, {"pitch": 64, "velocity": 64, "note_on_time": 2.853, "note_off_time": 3.239}, {"pitch": 60, "velocity": 65, "note_on_time": 3.257, "note_off_time": 3.463}, {"pitch": 67, "velocity": 58, "note_on_time": 3.494, "note_off_time": 3.905}, {"pitch": 64, "velocity": 69, "note_on_time": 4.14, "note_off_time": 4.354}, {"pitch": 65, "velocity": 64, "note_on_time": 4.365, "note_off_time": 4.571}, {"pitch": 62, "velocity": 65, "note_on_time": 4.588, "note_off_time": 4.684}, {"pitch": 62, "velocity": 64, "note_on_time": 4.795, "note_off_time": 4.986}, {"pitch": 65, "velocity": 66, "note_on_time": 5.013, "note_off_time": 5.114}, {"pitch": 65, "velocity": 70, "note_on_time": 5.236, "note_off_time": 5.671}, {"pitch": 65, "velocity": 64, "note_on_time": 5.9, "note_off_time": 6.055}, {"pitch": 67, "velocity": 73, "note_on_time": 6.121, "note_off_time": 6.948}, {"pitch": 67, "velocity": 81, "note_on_time": 7.184, "note_off_time": 7.276}, {"pitch": 67, "velocity": 71, "note_on_time": 7.407, "note_off_time": 7.501}, {"pitch": 67, "velocity": 72, "note_on_time": 7.633, "note_off_time": 7.836}]</notes><guidance name="Guidance Mode">None</guidance><error name="Error value">0.01348511764705875</error></trial><trial trial_no="3" timestamp="2022_12_08-12_52_52"><notes name="Played Notes">[{"pitch": 65, "velocity": 79, "note_on_time": 0.871, "note_off_time": 1.568}, {"pitch": 65, "velocity": 71, "note_on_time": 1.758, "note_off_time": 1.973}, {"pitch": 64, "velocity": 67, "note_on_time": 1.975, "note_off_time": 2.073}, {"pitch": 64, "velocity": 62, "note_on_time": 2.202, "note_off_time": 2.402}, {"pitch": 67, "velocity": 68, "note_on_time": 2.416, "note_off_time": 2.634}, {"pitch": 60, "velocity": 71, "note_on_time": 2.643, "note_off_time": 2.861}, {"pitch": 64, "velocity": 70, "note_on_time": 2.869, "note_off_time": 3.276}, {"pitch": 60, "velocity": 60, "note_on_time": 3.287, "note_off_time": 3.496}, {"pitch": 67, "velocity": 69, "note_on_time": 3.505, "note_off_time": 3.927}, {"pitch": 64, "velocity": 70, "note_on_time": 4.146, "note_off_time": 4.351}, {"pitch": 65, "velocity": 66, "note_on_time": 4.367, "note_off_time": 4.564}, {"pitch": 62, "velocity": 63, "note_on_time": 4.597, "note_off_time": 4.671}, {"pitch": 62, "velocity": 63, "note_on_time": 4.806, "note_off_time": 4.997}, {"pitch": 65, "velocity": 69, "note_on_time": 5.014, "note_off_time": 5.111}, {"pitch": 65, "velocity": 72, "note_on_time": 5.248, "note_off_time": 5.732}, {"pitch": 65, "velocity": 70, "note_on_time": 5.934, "note_off_time": 6.075}, {"pitch": 67, "velocity": 77, "note_on_time": 6.163, "note_off_time": 6.935}, {"pitch": 67, "velocity": 79, "note_on_time": 7.175, "note_off_time": 7.258}, {"pitch": 67, "velocity": 78, "note_on_time": 7.4, "note_off_time": 7.5}]</notes><guidance name="Guidance Mode">None</guidance><error name="Error value">0.08742629411764713</error></trial><trial trial_no="4" timestamp="2022_12_08-12_53_11"><notes name="Played Notes">[{"pitch": 65, "velocity": 84, "note_on_time": 0.874, "note_off_time": 1.534}, {"pitch": 65, "velocity": 72, "note_on_time": 1.76, "note_off_time": 1.982}, {"pitch": 64, "velocity": 66, "note_on_time": 1.976, "note_off_time": 2.082}, {"pitch": 64, "velocity": 68, "note_on_time": 2.211, "note_off_time": 2.416}, {"pitch": 67, "velocity": 65, "note_on_time": 2.422, "note_off_time": 2.651}, {"pitch": 60, "velocity": 70, "note_on_time": 2.641, "note_off_time": 2.857}, {"pitch": 64, "velocity": 73, "note_on_time": 2.853, "note_off_time": 3.293}, {"pitch": 60, "velocity": 67, "note_on_time": 3.3, "note_off_time": 3.528}, {"pitch": 67, "velocity": 73, "note_on_time": 3.528, "note_off_time": 3.974}, {"pitch": 64, "velocity": 68, "note_on_time": 4.192, "note_off_time": 4.388}, {"pitch": 65, "velocity": 63, "note_on_time": 4.401, "note_off_time": 4.61}, {"pitch": 62, "velocity": 67, "note_on_time": 4.618, "note_off_time": 4.701}, {"pitch": 62, "velocity": 67, "note_on_time": 4.831, "note_off_time": 5.029}, {"pitch": 65, "velocity": 66, "note_on_time": 5.047, "note_off_time": 5.144}, {"pitch": 65, "velocity": 71, "note_on_time": 5.272, "note_off_time": 5.625}, {"pitch": 65, "velocity": 67, "note_on_time": 5.917, "note_off_time": 6.041}, {"pitch": 67, "velocity": 81, "note_on_time": 6.145, "note_off_time": 6.95}, {"pitch": 67, "velocity": 76, "note_on_time": 7.194, "note_off_time": 7.287}, {"pitch": 67, "velocity": 72, "note_on_time": 7.42, "note_off_time": 7.514}, {"pitch": 67, "velocity": 71, "note_on_time": 7.637, "note_off_time": 7.802}]</notes><guidance name="Guidance Mode">None</guidance><error name="Error value">0.011717705882352755</error></trial></trials></MIDI>