<MIDI midiNo="2022_11_21-19_05_16"><target_notes><notes name="Note List">[{"pitch": 42, "velocity": 80, "note_on_time": 0.003, "note_off_time": 0.61}, {"pitch": 42, "velocity": 80, "note_on_time": 0.61, "note_off_time": 1.215}, {"pitch": 42, "velocity": 80, "note_on_time": 1.215, "note_off_time": 1.82}, {"pitch": 42, "velocity": 80, "note_on_time": 1.82, "note_off_time": 2.426}, {"pitch": 42, "velocity": 80, "note_on_time": 2.426, "note_off_time": 3.035}, {"pitch": 62, "velocity": 80, "note_on_time": 2.425, "note_off_time": 3.643}, {"pitch": 42, "velocity": 80, "note_on_time": 3.036, "note_off_time": 3.643}, {"pitch": 62, "velocity": 80, "note_on_time": 3.643, "note_off_time": 4.251}, {"pitch": 42, "velocity": 80, "note_on_time": 3.644, "note_off_time": 4.252}, {"pitch": 60, "velocity": 80, "note_on_time": 4.251, "note_off_time": 4.86}, {"pitch": 42, "velocity": 80, "note_on_time": 4.252, "note_off_time": 4.86}, {"pitch": 60, "velocity": 80, "note_on_time": 4.86, "note_off_time": 5.468}, {"pitch": 42, "velocity": 80, "note_on_time": 4.86, "note_off_time": 5.468}, {"pitch": 60, "velocity": 80, "note_on_time": 5.468, "note_off_time": 6.075}, {"pitch": 42, "velocity": 80, "note_on_time": 5.469, "note_off_time": 6.076}, {"pitch": 62, "velocity": 80, "note_on_time": 6.075, "note_off_time": 6.683}, {"pitch": 42, "velocity": 80, "note_on_time": 6.076, "note_off_time": 6.683}, {"pitch": 62, "velocity": 80, "note_on_time": 6.683, "note_off_time": 7.29}, {"pitch": 42, "velocity": 80, "note_on_time": 6.683, "note_off_time": 7.29}, {"pitch": 60, "velocity": 80, "note_on_time": 7.29, "note_off_time": 7.902}, {"pitch": 42, "velocity": 80, "note_on_time": 7.291, "note_off_time": 7.902}, {"pitch": 42, "velocity": 80, "note_on_time": 7.903, "note_off_time": 8.51}, {"pitch": 60, "velocity": 80, "note_on_time": 7.902, "note_off_time": 9.118}, {"pitch": 42, "velocity": 80, "note_on_time": 8.511, "note_off_time": 9.119}, {"pitch": 42, "velocity": 80, "note_on_time": 9.119, "note_off_time": 9.727}, {"pitch": 60, "velocity": 80, "note_on_time": 9.727, "note_off_time": 10.34}, {"pitch": 42, "velocity": 80, "note_on_time": 9.727, "note_off_time": 10.34}, {"pitch": 42, "velocity": 80, "note_on_time": 10.34, "note_off_time": 10.946}, {"pitch": 42, "velocity": 80, "note_on_time": 10.946, "note_off_time": 11.553}, {"pitch": 42, "velocity": 80, "note_on_time": 11.554, "note_off_time": 12.157}, {"pitch": 64, "velocity": 80, "note_on_time": 12.156, "note_off_time": 12.766}, {"pitch": 42, "velocity": 80, "note_on_time": 12.157, "note_off_time": 12.766}, {"pitch": 64, "velocity": 80, "note_on_time": 12.766, "note_off_time": 13.373}, {"pitch": 42, "velocity": 80, "note_on_time": 12.766, "note_off_time": 13.373}, {"pitch": 60, "velocity": 80, "note_on_time": 13.373, "note_off_time": 13.982}, {"pitch": 42, "velocity": 80, "note_on_time": 13.373, "note_off_time": 13.982}, {"pitch": 62, "velocity": 80, "note_on_time": 13.982, "note_off_time": 14.59}, {"pitch": 42, "velocity": 80, "note_on_time": 13.982, "note_off_time": 14.59}, {"pitch": 64, "velocity": 80, "note_on_time": 14.59, "note_off_time": 15.198}, {"pitch": 42, "velocity": 80, "note_on_time": 14.591, "note_off_time": 15.198}, {"pitch": 64, "velocity": 80, "note_on_time": 15.198, "note_off_time": 15.805}, {"pitch": 42, "velocity": 80, "note_on_time": 15.198, "note_off_time": 15.805}, {"pitch": 64, "velocity": 80, "note_on_time": 15.805, "note_off_time": 16.412}, {"pitch": 42, "velocity": 80, "note_on_time": 15.806, "note_off_time": 16.412}, {"pitch": 62, "velocity": 80, "note_on_time": 16.412, "note_off_time": 17.02}, {"pitch": 42, "velocity": 80, "note_on_time": 16.412, "note_off_time": 17.02}, {"pitch": 42, "velocity": 80, "note_on_time": 17.021, "note_off_time": 17.629}, {"pitch": 62, "velocity": 80, "note_on_time": 17.02, "note_off_time": 18.236}, {"pitch": 42, "velocity": 80, "note_on_time": 17.629, "note_off_time": 18.236}, {"pitch": 42, "velocity": 80, "note_on_time": 18.236, "note_off_time": 18.846}, {"pitch": 60, "velocity": 80, "note_on_time": 18.845, "note_off_time": 19.453}, {"pitch": 42, "velocity": 80, "note_on_time": 18.846, "note_off_time": 19.453}, {"pitch": 42, "velocity": 80, "note_on_time": 19.453, "note_off_time": 20.064}, {"pitch": 60, "velocity": 80, "note_on_time": 20.064, "note_off_time": 20.674}, {"pitch": 42, "velocity": 80, "note_on_time": 20.064, "note_off_time": 20.675}, {"pitch": 60, "velocity": 80, "note_on_time": 20.674, "note_off_time": 21.283}, {"pitch": 42, "velocity": 80, "note_on_time": 20.675, "note_off_time": 21.283}, {"pitch": 60, "velocity": 80, "note_on_time": 21.283, "note_off_time": 21.889}, {"pitch": 42, "velocity": 80, "note_on_time": 21.285, "note_off_time": 21.89}]</notes><options name="Option List">((4, 4), [0.5, 0.25], 3, 8, &lt;NoteRangePerHand.THREE_NOTES: 4&gt;, &lt;NoteRangePerHand.ONE_NOTE: 2&gt;, False, True, False, '100')</options></target_notes><trials><trial trial_no="1" timestamp="2022_11_21-19_04_52"><notes name="Played Notes">[{"pitch": 62, "velocity": 77, "note_on_time": 2.518, "note_off_time": 3.512}, {"pitch": 62, "velocity": 70, "note_on_time": 3.701, "note_off_time": 4.342}, {"pitch": 60, "velocity": 77, "note_on_time": 4.319, "note_off_time": 4.608}, {"pitch": 60, "velocity": 59, "note_on_time": 4.962, "note_off_time": 5.329}, {"pitch": 60, "velocity": 66, "note_on_time": 5.575, "note_off_time": 5.964}, {"pitch": 60, "velocity": 77, "note_on_time": 6.193, "note_off_time": 6.61}, {"pitch": 62, "velocity": 65, "note_on_time": 6.798, "note_off_time": 7.151}, {"pitch": 62, "velocity": 54, "note_on_time": 7.366, "note_off_time": 7.772}, {"pitch": 60, "velocity": 72, "note_on_time": 7.956, "note_off_time": 8.284}, {"pitch": 60, "velocity": 85, "note_on_time": 8.579, "note_off_time": 9.624}, {"pitch": 60, "velocity": 82, "note_on_time": 10.34, "note_off_time": 11.055}, {"pitch": 64, "velocity": 74, "note_on_time": 13.379, "note_off_time": 13.763}, {"pitch": 64, "velocity": 60, "note_on_time": 13.912, "note_off_time": 14.518}, {"pitch": 60, "velocity": 77, "note_on_time": 14.532, "note_off_time": 15.166}, {"pitch": 62, "velocity": 79, "note_on_time": 15.128, "note_off_time": 15.572}, {"pitch": 64, "velocity": 73, "note_on_time": 15.725, "note_off_time": 16.128}, {"pitch": 64, "velocity": 71, "note_on_time": 16.386, "note_off_time": 16.765}, {"pitch": 64, "velocity": 68, "note_on_time": 17.048, "note_off_time": 17.446}, {"pitch": 62, "velocity": 73, "note_on_time": 17.623, "note_off_time": 18.026}, {"pitch": 60, "velocity": 81, "note_on_time": 18.253, "note_off_time": 19.389}, {"pitch": 60, "velocity": 81, "note_on_time": 20.079, "note_off_time": 20.67}]</notes><guidance name="Guidance Mode">None</guidance><error name="Error value">0.7426499999999998</error></trial><trial trial_no="2" timestamp="2022_11_21-19_05_30"><notes name="Played Notes">[{"pitch": 62, "velocity": 77, "note_on_time": 2.44, "note_off_time": 3.44}, {"pitch": 62, "velocity": 66, "note_on_time": 3.688, "note_off_time": 4.329}, {"pitch": 60, "velocity": 75, "note_on_time": 4.314, "note_off_time": 4.803}, {"pitch": 60, "velocity": 88, "note_on_time": 4.888, "note_off_time": 5.253}, {"pitch": 60, "velocity": 85, "note_on_time": 5.467, "note_off_time": 6.102}, {"pitch": 62, "velocity": 78, "note_on_time": 6.077, "note_off_time": 6.317}, {"pitch": 62, "velocity": 77, "note_on_time": 6.713, "note_off_time": 7.111}, {"pitch": 60, "velocity": 73, "note_on_time": 7.327, "note_off_time": 7.727}, {"pitch": 60, "velocity": 89, "note_on_time": 7.956, "note_off_time": 8.887}, {"pitch": 60, "velocity": 92, "note_on_time": 9.712, "note_off_time": 10.227}, {"pitch": 64, "velocity": 60, "note_on_time": 12.251, "note_off_time": 12.395}, {"pitch": 64, "velocity": 72, "note_on_time": 12.837, "note_off_time": 13.175}, {"pitch": 60, "velocity": 72, "note_on_time": 13.39, "note_off_time": 13.871}, {"pitch": 62, "velocity": 70, "note_on_time": 13.978, "note_off_time": 14.323}, {"pitch": 64, "velocity": 74, "note_on_time": 14.609, "note_off_time": 14.901}, {"pitch": 64, "velocity": 72, "note_on_time": 15.192, "note_off_time": 15.464}, {"pitch": 64, "velocity": 78, "note_on_time": 15.831, "note_off_time": 16.094}, {"pitch": 62, "velocity": 66, "note_on_time": 16.399, "note_off_time": 16.715}, {"pitch": 62, "velocity": 82, "note_on_time": 17.041, "note_off_time": 17.816}, {"pitch": 60, "velocity": 87, "note_on_time": 18.816, "note_off_time": 19.358}, {"pitch": 60, "velocity": 81, "note_on_time": 19.974, "note_off_time": 20.301}, {"pitch": 60, "velocity": 77, "note_on_time": 20.58, "note_off_time": 20.87}, {"pitch": 60, "velocity": 91, "note_on_time": 21.18, "note_off_time": 21.706}]</notes><guidance name="Guidance Mode">None</guidance><error name="Error value">0.03499999999999992</error></trial><trial trial_no="3" timestamp="2022_11_21-19_06_11"><notes name="Played Notes">[{"pitch": 62, "velocity": 76, "note_on_time": 2.456, "note_off_time": 3.396}, {"pitch": 62, "velocity": 72, "note_on_time": 3.69, "note_off_time": 4.07}, {"pitch": 60, "velocity": 67, "note_on_time": 4.483, "note_off_time": 4.874}, {"pitch": 60, "velocity": 66, "note_on_time": 4.977, "note_off_time": 5.262}, {"pitch": 60, "velocity": 72, "note_on_time": 5.496, "note_off_time": 5.967}, {"pitch": 62, "velocity": 64, "note_on_time": 6.124, "note_off_time": 6.339}, {"pitch": 62, "velocity": 71, "note_on_time": 6.686, "note_off_time": 7.025}, {"pitch": 60, "velocity": 69, "note_on_time": 7.252, "note_off_time": 7.595}, {"pitch": 60, "velocity": 73, "note_on_time": 7.835, "note_off_time": 8.746}, {"pitch": 60, "velocity": 79, "note_on_time": 9.68, "note_off_time": 10.251}, {"pitch": 62, "velocity": 69, "note_on_time": 11.519, "note_off_time": 11.907}, {"pitch": 62, "velocity": 65, "note_on_time": 12.122, "note_off_time": 12.547}, {"pitch": 60, "velocity": 76, "note_on_time": 12.703, "note_off_time": 13.09}, {"pitch": 62, "velocity": 69, "note_on_time": 13.308, "note_off_time": 13.703}, {"pitch": 64, "velocity": 73, "note_on_time": 13.964, "note_off_time": 14.235}, {"pitch": 64, "velocity": 71, "note_on_time": 14.563, "note_off_time": 14.809}, {"pitch": 64, "velocity": 75, "note_on_time": 15.182, "note_off_time": 15.45}, {"pitch": 62, "velocity": 73, "note_on_time": 15.807, "note_off_time": 16.146}, {"pitch": 62, "velocity": 68, "note_on_time": 16.45, "note_off_time": 17.38}, {"pitch": 60, "velocity": 84, "note_on_time": 18.271, "note_off_time": 18.755}, {"pitch": 60, "velocity": 85, "note_on_time": 20.029, "note_off_time": 20.387}, {"pitch": 60, "velocity": 82, "note_on_time": 20.609, "note_off_time": 20.973}]</notes><guidance name="Guidance Mode">None</guidance><error name="Error value">0.2474499999999999</error></trial></trials></MIDI>