<MIDI midiNo="2022_11_21-16_34_23"><target_notes><notes name="Note List">[{"pitch": 42, "velocity": 80, "note_on_time": 0.005, "note_off_time": 0.253}, {"pitch": 42, "velocity": 80, "note_on_time": 0.253, "note_off_time": 0.504}, {"pitch": 42, "velocity": 80, "note_on_time": 0.505, "note_off_time": 0.755}, {"pitch": 42, "velocity": 80, "note_on_time": 0.755, "note_off_time": 1.003}, {"pitch": 62, "velocity": 80, "note_on_time": 1.003, "note_off_time": 1.251}, {"pitch": 42, "velocity": 80, "note_on_time": 1.003, "note_off_time": 1.251}, {"pitch": 42, "velocity": 80, "note_on_time": 1.251, "note_off_time": 1.501}, {"pitch": 64, "velocity": 80, "note_on_time": 1.251, "note_off_time": 1.749}, {"pitch": 42, "velocity": 80, "note_on_time": 1.501, "note_off_time": 1.749}, {"pitch": 42, "velocity": 80, "note_on_time": 1.749, "note_off_time": 2.001}, {"pitch": 60, "velocity": 80, "note_on_time": 2.001, "note_off_time": 2.253}, {"pitch": 42, "velocity": 80, "note_on_time": 2.001, "note_off_time": 2.253}, {"pitch": 62, "velocity": 80, "note_on_time": 2.253, "note_off_time": 2.501}, {"pitch": 42, "velocity": 80, "note_on_time": 2.253, "note_off_time": 2.502}, {"pitch": 42, "velocity": 80, "note_on_time": 2.502, "note_off_time": 2.751}, {"pitch": 64, "velocity": 80, "note_on_time": 2.501, "note_off_time": 3.001}, {"pitch": 42, "velocity": 80, "note_on_time": 2.752, "note_off_time": 3.001}, {"pitch": 60, "velocity": 80, "note_on_time": 3.001, "note_off_time": 3.248}, {"pitch": 42, "velocity": 80, "note_on_time": 3.001, "note_off_time": 3.248}, {"pitch": 60, "velocity": 80, "note_on_time": 3.248, "note_off_time": 3.498}, {"pitch": 42, "velocity": 80, "note_on_time": 3.248, "note_off_time": 3.498}, {"pitch": 42, "velocity": 80, "note_on_time": 3.499, "note_off_time": 3.748}, {"pitch": 42, "velocity": 80, "note_on_time": 3.748, "note_off_time": 3.999}, {"pitch": 60, "velocity": 80, "note_on_time": 3.998, "note_off_time": 4.246}, {"pitch": 42, "velocity": 80, "note_on_time": 3.999, "note_off_time": 4.246}, {"pitch": 60, "velocity": 80, "note_on_time": 4.246, "note_off_time": 4.496}, {"pitch": 42, "velocity": 80, "note_on_time": 4.247, "note_off_time": 4.496}, {"pitch": 64, "velocity": 80, "note_on_time": 4.496, "note_off_time": 4.746}, {"pitch": 42, "velocity": 80, "note_on_time": 4.496, "note_off_time": 4.746}, {"pitch": 60, "velocity": 80, "note_on_time": 4.746, "note_off_time": 4.993}, {"pitch": 42, "velocity": 80, "note_on_time": 4.746, "note_off_time": 4.993}, {"pitch": 64, "velocity": 80, "note_on_time": 4.993, "note_off_time": 5.244}, {"pitch": 42, "velocity": 80, "note_on_time": 4.993, "note_off_time": 5.244}, {"pitch": 62, "velocity": 80, "note_on_time": 5.244, "note_off_time": 5.494}, {"pitch": 42, "velocity": 80, "note_on_time": 5.244, "note_off_time": 5.494}, {"pitch": 62, "velocity": 80, "note_on_time": 5.494, "note_off_time": 5.742}, {"pitch": 42, "velocity": 80, "note_on_time": 5.494, "note_off_time": 5.742}, {"pitch": 64, "velocity": 80, "note_on_time": 5.742, "note_off_time": 5.991}, {"pitch": 42, "velocity": 80, "note_on_time": 5.742, "note_off_time": 5.991}, {"pitch": 64, "velocity": 80, "note_on_time": 5.991, "note_off_time": 6.241}, {"pitch": 42, "velocity": 80, "note_on_time": 5.991, "note_off_time": 6.241}, {"pitch": 62, "velocity": 80, "note_on_time": 6.241, "note_off_time": 6.489}, {"pitch": 42, "velocity": 80, "note_on_time": 6.242, "note_off_time": 6.489}, {"pitch": 62, "velocity": 80, "note_on_time": 6.489, "note_off_time": 6.737}, {"pitch": 42, "velocity": 80, "note_on_time": 6.49, "note_off_time": 6.737}, {"pitch": 62, "velocity": 80, "note_on_time": 6.737, "note_off_time": 6.986}, {"pitch": 42, "velocity": 80, "note_on_time": 6.737, "note_off_time": 6.987}, {"pitch": 62, "velocity": 80, "note_on_time": 6.986, "note_off_time": 7.235}, {"pitch": 42, "velocity": 80, "note_on_time": 6.987, "note_off_time": 7.235}, {"pitch": 62, "velocity": 80, "note_on_time": 7.235, "note_off_time": 7.483}, {"pitch": 42, "velocity": 80, "note_on_time": 7.235, "note_off_time": 7.484}, {"pitch": 60, "velocity": 80, "note_on_time": 7.483, "note_off_time": 7.732}, {"pitch": 42, "velocity": 80, "note_on_time": 7.484, "note_off_time": 7.733}, {"pitch": 64, "velocity": 80, "note_on_time": 7.732, "note_off_time": 7.983}, {"pitch": 42, "velocity": 80, "note_on_time": 7.733, "note_off_time": 7.983}, {"pitch": 42, "velocity": 80, "note_on_time": 7.984, "note_off_time": 8.233}, {"pitch": 64, "velocity": 80, "note_on_time": 8.233, "note_off_time": 8.483}, {"pitch": 42, "velocity": 80, "note_on_time": 8.233, "note_off_time": 8.484}, {"pitch": 64, "velocity": 80, "note_on_time": 8.483, "note_off_time": 8.733}, {"pitch": 42, "velocity": 80, "note_on_time": 8.484, "note_off_time": 8.733}, {"pitch": 64, "velocity": 80, "note_on_time": 8.733, "note_off_time": 8.984}, {"pitch": 42, "velocity": 80, "note_on_time": 8.733, "note_off_time": 8.984}]</notes><options name="Option List">((4, 4), [0.5, 0.25], 3, 8, &lt;NoteRangePerHand.THREE_NOTES: 4&gt;, &lt;NoteRangePerHand.ONE_NOTE: 2&gt;, False, True, False, 248)</options></target_notes><trials><trial trial_no="1" timestamp="2022_11_21-16_34_13"><notes name="Played Notes">[{"pitch": 62, "velocity": 79, "note_on_time": 0.958, "note_off_time": 1.103}, {"pitch": 64, "velocity": 81, "note_on_time": 1.199, "note_off_time": 1.729}, {"pitch": 60, "velocity": 82, "note_on_time": 2.112, "note_off_time": 2.298}, {"pitch": 62, "velocity": 68, "note_on_time": 2.334, "note_off_time": 2.499}, {"pitch": 64, "velocity": 78, "note_on_time": 2.593, "note_off_time": 2.938}, {"pitch": 60, "velocity": 85, "note_on_time": 3.039, "note_off_time": 3.197}, {"pitch": 60, "velocity": 79, "note_on_time": 3.294, "note_off_time": 3.48}, {"pitch": 60, "velocity": 85, "note_on_time": 3.987, "note_off_time": 4.131}, {"pitch": 60, "velocity": 79, "note_on_time": 4.227, "note_off_time": 4.379}, {"pitch": 64, "velocity": 68, "note_on_time": 4.471, "note_off_time": 4.651}, {"pitch": 60, "velocity": 57, "note_on_time": 4.6, "note_off_time": 4.835}, {"pitch": 64, "velocity": 74, "note_on_time": 4.919, "note_off_time": 5.127}, {"pitch": 62, "velocity": 72, "note_on_time": 5.155, "note_off_time": 5.269}, {"pitch": 62, "velocity": 73, "note_on_time": 5.408, "note_off_time": 5.539}, {"pitch": 64, "velocity": 72, "note_on_time": 5.66, "note_off_time": 5.787}, {"pitch": 64, "velocity": 54, "note_on_time": 5.899, "note_off_time": 6.078}, {"pitch": 62, "velocity": 70, "note_on_time": 6.15, "note_off_time": 6.275}, {"pitch": 62, "velocity": 72, "note_on_time": 6.406, "note_off_time": 6.544}, {"pitch": 62, "velocity": 70, "note_on_time": 6.64, "note_off_time": 6.784}, {"pitch": 62, "velocity": 73, "note_on_time": 6.884, "note_off_time": 7.04}, {"pitch": 62, "velocity": 67, "note_on_time": 7.112, "note_off_time": 7.321}, {"pitch": 60, "velocity": 85, "note_on_time": 7.344, "note_off_time": 7.541}, {"pitch": 64, "velocity": 71, "note_on_time": 7.578, "note_off_time": 7.712}, {"pitch": 64, "velocity": 78, "note_on_time": 8.265, "note_off_time": 8.407}, {"pitch": 64, "velocity": 74, "note_on_time": 8.494, "note_off_time": 8.638}, {"pitch": 64, "velocity": 75, "note_on_time": 8.728, "note_off_time": 8.982}]</notes><guidance name="Guidance Mode">None</guidance><error name="Error value">0.035730652173913094</error></trial></trials></MIDI>