<MIDI midiNo="2022_12_01-10_35_45"><target_notes><notes name="Note List">[{"pitch": 42, "velocity": 80, "note_on_time": 0.005, "note_off_time": 0.184}, {"pitch": 42, "velocity": 80, "note_on_time": 0.185, "note_off_time": 0.355}, {"pitch": 42, "velocity": 80, "note_on_time": 0.355, "note_off_time": 0.525}, {"pitch": 42, "velocity": 80, "note_on_time": 0.525, "note_off_time": 0.699}, {"pitch": 64, "velocity": 80, "note_on_time": 0.699, "note_off_time": 0.871}, {"pitch": 42, "velocity": 80, "note_on_time": 0.699, "note_off_time": 0.871}, {"pitch": 65, "velocity": 80, "note_on_time": 0.871, "note_off_time": 1.042}, {"pitch": 42, "velocity": 80, "note_on_time": 0.871, "note_off_time": 1.042}, {"pitch": 42, "velocity": 80, "note_on_time": 1.043, "note_off_time": 1.213}, {"pitch": 67, "velocity": 80, "note_on_time": 1.042, "note_off_time": 1.383}, {"pitch": 42, "velocity": 80, "note_on_time": 1.213, "note_off_time": 1.384}, {"pitch": 64, "velocity": 80, "note_on_time": 1.383, "note_off_time": 1.553}, {"pitch": 42, "velocity": 80, "note_on_time": 1.384, "note_off_time": 1.553}, {"pitch": 67, "velocity": 80, "note_on_time": 1.553, "note_off_time": 1.726}, {"pitch": 42, "velocity": 80, "note_on_time": 1.554, "note_off_time": 1.726}, {"pitch": 42, "velocity": 80, "note_on_time": 1.726, "note_off_time": 1.897}, {"pitch": 67, "velocity": 80, "note_on_time": 1.897, "note_off_time": 2.069}, {"pitch": 42, "velocity": 80, "note_on_time": 1.897, "note_off_time": 2.069}, {"pitch": 67, "velocity": 80, "note_on_time": 2.069, "note_off_time": 2.238}, {"pitch": 42, "velocity": 80, "note_on_time": 2.069, "note_off_time": 2.238}, {"pitch": 67, "velocity": 80, "note_on_time": 2.238, "note_off_time": 2.408}, {"pitch": 42, "velocity": 80, "note_on_time": 2.238, "note_off_time": 2.409}, {"pitch": 65, "velocity": 80, "note_on_time": 2.408, "note_off_time": 2.578}, {"pitch": 42, "velocity": 80, "note_on_time": 2.409, "note_off_time": 2.578}, {"pitch": 62, "velocity": 80, "note_on_time": 2.578, "note_off_time": 2.749}, {"pitch": 42, "velocity": 80, "note_on_time": 2.578, "note_off_time": 2.749}, {"pitch": 42, "velocity": 80, "note_on_time": 2.75, "note_off_time": 2.921}, {"pitch": 65, "velocity": 80, "note_on_time": 2.749, "note_off_time": 3.092}, {"pitch": 42, "velocity": 80, "note_on_time": 2.921, "note_off_time": 3.093}, {"pitch": 42, "velocity": 80, "note_on_time": 3.093, "note_off_time": 3.262}, {"pitch": 65, "velocity": 80, "note_on_time": 3.262, "note_off_time": 3.433}, {"pitch": 42, "velocity": 80, "note_on_time": 3.262, "note_off_time": 3.434}, {"pitch": 60, "velocity": 80, "note_on_time": 3.433, "note_off_time": 3.605}, {"pitch": 42, "velocity": 80, "note_on_time": 3.434, "note_off_time": 3.605}, {"pitch": 67, "velocity": 80, "note_on_time": 3.605, "note_off_time": 3.777}, {"pitch": 42, "velocity": 80, "note_on_time": 3.605, "note_off_time": 3.777}, {"pitch": 64, "velocity": 80, "note_on_time": 3.777, "note_off_time": 3.949}, {"pitch": 42, "velocity": 80, "note_on_time": 3.777, "note_off_time": 3.949}, {"pitch": 65, "velocity": 80, "note_on_time": 3.949, "note_off_time": 4.122}, {"pitch": 42, "velocity": 80, "note_on_time": 3.95, "note_off_time": 4.122}, {"pitch": 64, "velocity": 80, "note_on_time": 4.122, "note_off_time": 4.292}, {"pitch": 42, "velocity": 80, "note_on_time": 4.122, "note_off_time": 4.293}, {"pitch": 42, "velocity": 80, "note_on_time": 4.293, "note_off_time": 4.465}, {"pitch": 67, "velocity": 80, "note_on_time": 4.292, "note_off_time": 4.634}, {"pitch": 42, "velocity": 80, "note_on_time": 4.465, "note_off_time": 4.634}, {"pitch": 60, "velocity": 80, "note_on_time": 4.634, "note_off_time": 4.806}, {"pitch": 42, "velocity": 80, "note_on_time": 4.634, "note_off_time": 4.806}, {"pitch": 60, "velocity": 80, "note_on_time": 4.806, "note_off_time": 4.976}, {"pitch": 42, "velocity": 80, "note_on_time": 4.806, "note_off_time": 4.977}, {"pitch": 42, "velocity": 80, "note_on_time": 4.977, "note_off_time": 5.147}, {"pitch": 42, "velocity": 80, "note_on_time": 5.147, "note_off_time": 5.319}, {"pitch": 64, "velocity": 80, "note_on_time": 5.319, "note_off_time": 5.489}, {"pitch": 42, "velocity": 80, "note_on_time": 5.319, "note_off_time": 5.489}, {"pitch": 42, "velocity": 80, "note_on_time": 5.489, "note_off_time": 5.663}, {"pitch": 64, "velocity": 80, "note_on_time": 5.663, "note_off_time": 5.834}, {"pitch": 42, "velocity": 80, "note_on_time": 5.663, "note_off_time": 5.834}, {"pitch": 64, "velocity": 80, "note_on_time": 5.834, "note_off_time": 6.004}, {"pitch": 42, "velocity": 80, "note_on_time": 5.834, "note_off_time": 6.004}, {"pitch": 64, "velocity": 80, "note_on_time": 6.004, "note_off_time": 6.176}, {"pitch": 42, "velocity": 80, "note_on_time": 6.004, "note_off_time": 6.176}]</notes><options name="Option List">((4, 4), [0.5, 0.25], 3, 8, &lt;NoteRangePerHand.C_TO_G: 6&gt;, &lt;NoteRangePerHand.ONE_NOTE: 2&gt;, False, True, False, '365')</options></target_notes><trials><trial trial_no="1" timestamp="2022_12_01-10_35_37"><notes name="Played Notes">[{"pitch": 64, "velocity": 72, "note_on_time": 0.742, "note_off_time": 0.946}, {"pitch": 65, "velocity": 97, "note_on_time": 0.93, "note_off_time": 1.082}, {"pitch": 67, "velocity": 67, "note_on_time": 1.082, "note_off_time": 1.304}, {"pitch": 64, "velocity": 75, "note_on_time": 1.295, "note_off_time": 1.422}, {"pitch": 67, "velocity": 79, "note_on_time": 1.471, "note_off_time": 1.715}, {"pitch": 67, "velocity": 79, "note_on_time": 1.97, "note_off_time": 2.023}, {"pitch": 67, "velocity": 77, "note_on_time": 2.136, "note_off_time": 2.218}, {"pitch": 67, "velocity": 82, "note_on_time": 2.303, "note_off_time": 2.525}, {"pitch": 65, "velocity": 80, "note_on_time": 2.489, "note_off_time": 2.656}, {"pitch": 62, "velocity": 77, "note_on_time": 2.663, "note_off_time": 2.913}, {"pitch": 65, "velocity": 91, "note_on_time": 2.879, "note_off_time": 3.287}, {"pitch": 65, "velocity": 89, "note_on_time": 3.441, "note_off_time": 3.612}, {"pitch": 60, "velocity": 79, "note_on_time": 3.623, "note_off_time": 3.802}, {"pitch": 67, "velocity": 81, "note_on_time": 3.806, "note_off_time": 4.012}, {"pitch": 64, "velocity": 72, "note_on_time": 4.015, "note_off_time": 4.224}, {"pitch": 65, "velocity": 76, "note_on_time": 4.214, "note_off_time": 4.429}, {"pitch": 64, "velocity": 74, "note_on_time": 4.419, "note_off_time": 4.611}, {"pitch": 67, "velocity": 84, "note_on_time": 4.594, "note_off_time": 4.942}, {"pitch": 60, "velocity": 81, "note_on_time": 4.96, "note_off_time": 5.06}, {"pitch": 60, "velocity": 84, "note_on_time": 5.16, "note_off_time": 5.265}, {"pitch": 64, "velocity": 85, "note_on_time": 5.566, "note_off_time": 5.681}, {"pitch": 64, "velocity": 85, "note_on_time": 6.077, "note_off_time": 6.146}]</notes><guidance name="Guidance Mode">None</guidance><error name="Error value">0.14976290476190482</error></trial><trial trial_no="2" timestamp="2022_12_01-10_36_01"><notes name="Played Notes">[{"pitch": 64, "velocity": 95, "note_on_time": 0.738, "note_off_time": 0.891}, {"pitch": 65, "velocity": 71, "note_on_time": 0.877, "note_off_time": 1.129}, {"pitch": 67, "velocity": 73, "note_on_time": 1.107, "note_off_time": 1.305}, {"pitch": 64, "velocity": 73, "note_on_time": 1.291, "note_off_time": 1.487}, {"pitch": 67, "velocity": 91, "note_on_time": 1.474, "note_off_time": 1.832}, {"pitch": 67, "velocity": 82, "note_on_time": 1.977, "note_off_time": 2.045}, {"pitch": 67, "velocity": 82, "note_on_time": 2.163, "note_off_time": 2.243}, {"pitch": 67, "velocity": 77, "note_on_time": 2.328, "note_off_time": 2.527}, {"pitch": 65, "velocity": 82, "note_on_time": 2.504, "note_off_time": 2.696}, {"pitch": 62, "velocity": 81, "note_on_time": 2.698, "note_off_time": 2.94}, {"pitch": 65, "velocity": 92, "note_on_time": 2.904, "note_off_time": 3.337}, {"pitch": 65, "velocity": 85, "note_on_time": 3.447, "note_off_time": 3.624}, {"pitch": 60, "velocity": 75, "note_on_time": 3.632, "note_off_time": 3.811}, {"pitch": 67, "velocity": 82, "note_on_time": 3.801, "note_off_time": 4.016}, {"pitch": 64, "velocity": 76, "note_on_time": 4.008, "note_off_time": 4.182}, {"pitch": 65, "velocity": 79, "note_on_time": 4.17, "note_off_time": 4.383}, {"pitch": 64, "velocity": 84, "note_on_time": 4.386, "note_off_time": 4.573}, {"pitch": 67, "velocity": 87, "note_on_time": 4.552, "note_off_time": 4.927}, {"pitch": 60, "velocity": 84, "note_on_time": 4.921, "note_off_time": 5.016}, {"pitch": 60, "velocity": 84, "note_on_time": 5.155, "note_off_time": 5.244}, {"pitch": 64, "velocity": 93, "note_on_time": 5.569, "note_off_time": 5.642}]</notes><guidance name="Guidance Mode">None</guidance><error name="Error value">0.24954304761904766</error></trial><trial trial_no="3" timestamp="2022_12_01-10_36_24"><notes name="Played Notes">[{"pitch": 64, "velocity": 56, "note_on_time": 0.719, "note_off_time": 0.963}, {"pitch": 65, "velocity": 72, "note_on_time": 0.942, "note_off_time": 1.119}, {"pitch": 67, "velocity": 63, "note_on_time": 1.107, "note_off_time": 1.311}, {"pitch": 64, "velocity": 76, "note_on_time": 1.304, "note_off_time": 1.511}, {"pitch": 67, "velocity": 88, "note_on_time": 1.484, "note_off_time": 1.845}, {"pitch": 67, "velocity": 35, "note_on_time": 2.062, "note_off_time": 2.111}, {"pitch": 67, "velocity": 73, "note_on_time": 2.226, "note_off_time": 2.307}, {"pitch": 67, "velocity": 81, "note_on_time": 2.396, "note_off_time": 2.591}, {"pitch": 65, "velocity": 87, "note_on_time": 2.559, "note_off_time": 2.746}, {"pitch": 62, "velocity": 82, "note_on_time": 2.739, "note_off_time": 2.949}, {"pitch": 65, "velocity": 97, "note_on_time": 2.928, "note_off_time": 3.368}, {"pitch": 65, "velocity": 78, "note_on_time": 3.495, "note_off_time": 3.66}, {"pitch": 60, "velocity": 87, "note_on_time": 3.668, "note_off_time": 3.859}, {"pitch": 67, "velocity": 79, "note_on_time": 3.855, "note_off_time": 4.049}, {"pitch": 64, "velocity": 79, "note_on_time": 4.037, "note_off_time": 4.222}, {"pitch": 65, "velocity": 72, "note_on_time": 4.21, "note_off_time": 4.406}, {"pitch": 64, "velocity": 81, "note_on_time": 4.4, "note_off_time": 4.599}, {"pitch": 67, "velocity": 95, "note_on_time": 4.593, "note_off_time": 4.941}, {"pitch": 60, "velocity": 84, "note_on_time": 4.954, "note_off_time": 5.118}, {"pitch": 60, "velocity": 78, "note_on_time": 5.188, "note_off_time": 5.296}, {"pitch": 64, "velocity": 89, "note_on_time": 5.585, "note_off_time": 5.676}, {"pitch": 64, "velocity": 95, "note_on_time": 5.959, "note_off_time": 6.022}]</notes><guidance name="Guidance Mode">None</guidance><error name="Error value">0.15313271428571423</error></trial><trial trial_no="4" timestamp="2022_12_01-10_36_49"><notes name="Played Notes">[{"pitch": 64, "velocity": 77, "note_on_time": 0.698, "note_off_time": 0.852}, {"pitch": 65, "velocity": 78, "note_on_time": 0.82, "note_off_time": 1.086}, {"pitch": 67, "velocity": 79, "note_on_time": 1.047, "note_off_time": 1.237}, {"pitch": 64, "velocity": 75, "note_on_time": 1.215, "note_off_time": 1.435}, {"pitch": 67, "velocity": 92, "note_on_time": 1.401, "note_off_time": 1.783}, {"pitch": 67, "velocity": 78, "note_on_time": 1.906, "note_off_time": 1.973}, {"pitch": 67, "velocity": 83, "note_on_time": 2.074, "note_off_time": 2.152}, {"pitch": 67, "velocity": 83, "note_on_time": 2.248, "note_off_time": 2.449}, {"pitch": 65, "velocity": 81, "note_on_time": 2.399, "note_off_time": 2.567}, {"pitch": 62, "velocity": 73, "note_on_time": 2.569, "note_off_time": 2.778}, {"pitch": 65, "velocity": 94, "note_on_time": 2.732, "note_off_time": 3.111}, {"pitch": 65, "velocity": 87, "note_on_time": 3.231, "note_off_time": 3.406}, {"pitch": 60, "velocity": 76, "note_on_time": 3.415, "note_off_time": 3.587}, {"pitch": 67, "velocity": 80, "note_on_time": 3.573, "note_off_time": 3.761}, {"pitch": 64, "velocity": 84, "note_on_time": 3.745, "note_off_time": 3.927}, {"pitch": 65, "velocity": 77, "note_on_time": 3.921, "note_off_time": 4.124}, {"pitch": 64, "velocity": 75, "note_on_time": 4.113, "note_off_time": 4.29}, {"pitch": 67, "velocity": 91, "note_on_time": 4.272, "note_off_time": 4.634}, {"pitch": 60, "velocity": 79, "note_on_time": 4.617, "note_off_time": 4.709}, {"pitch": 60, "velocity": 102, "note_on_time": 4.909, "note_off_time": 5.003}, {"pitch": 64, "velocity": 95, "note_on_time": 5.252, "note_off_time": 5.338}, {"pitch": 64, "velocity": 88, "note_on_time": 5.75, "note_off_time": 5.813}, {"pitch": 64, "velocity": 86, "note_on_time": 5.904, "note_off_time": 5.974}, {"pitch": 64, "velocity": 100, "note_on_time": 6.05, "note_off_time": 6.117}]</notes><guidance name="Guidance Mode">None</guidance><error name="Error value">0.05111042857142864</error></trial><trial trial_no="5" timestamp="2022_12_01-10_37_08"><notes name="Played Notes">[{"pitch": 64, "velocity": 77, "note_on_time": 0.711, "note_off_time": 0.913}, {"pitch": 65, "velocity": 78, "note_on_time": 0.867, "note_off_time": 1.082}, {"pitch": 67, "velocity": 78, "note_on_time": 1.063, "note_off_time": 1.261}, {"pitch": 65, "velocity": 71, "note_on_time": 1.272, "note_off_time": 1.324}, {"pitch": 64, "velocity": 61, "note_on_time": 1.261, "note_off_time": 1.407}, {"pitch": 67, "velocity": 72, "note_on_time": 1.392, "note_off_time": 1.718}, {"pitch": 67, "velocity": 74, "note_on_time": 1.838, "note_off_time": 1.899}, {"pitch": 67, "velocity": 68, "note_on_time": 2.007, "note_off_time": 2.061}, {"pitch": 67, "velocity": 65, "note_on_time": 2.15, "note_off_time": 2.358}, {"pitch": 65, "velocity": 78, "note_on_time": 2.327, "note_off_time": 2.52}, {"pitch": 62, "velocity": 79, "note_on_time": 2.521, "note_off_time": 2.742}, {"pitch": 65, "velocity": 86, "note_on_time": 2.708, "note_off_time": 3.125}, {"pitch": 65, "velocity": 76, "note_on_time": 3.237, "note_off_time": 3.407}, {"pitch": 60, "velocity": 80, "note_on_time": 3.415, "note_off_time": 3.578}, {"pitch": 67, "velocity": 74, "note_on_time": 3.575, "note_off_time": 3.771}, {"pitch": 64, "velocity": 78, "note_on_time": 3.767, "note_off_time": 3.947}, {"pitch": 65, "velocity": 77, "note_on_time": 3.932, "note_off_time": 4.118}, {"pitch": 64, "velocity": 86, "note_on_time": 4.105, "note_off_time": 4.311}, {"pitch": 67, "velocity": 83, "note_on_time": 4.302, "note_off_time": 4.601}, {"pitch": 60, "velocity": 88, "note_on_time": 4.61, "note_off_time": 4.932}, {"pitch": 60, "velocity": 71, "note_on_time": 5.042, "note_off_time": 5.296}, {"pitch": 64, "velocity": 54, "note_on_time": 5.275, "note_off_time": 5.499}, {"pitch": 64, "velocity": 66, "note_on_time": 5.636, "note_off_time": 5.681}, {"pitch": 64, "velocity": 76, "note_on_time": 5.807, "note_off_time": 5.881}, {"pitch": 64, "velocity": 83, "note_on_time": 5.975, "note_off_time": 6.109}]</notes><guidance name="Guidance Mode">None</guidance><error name="Error value">0.1532644285714285</error></trial></trials></MIDI>