<MIDI midiNo="2022_08_17-14_23_46"><target_notes><notes name="Note List">[{"pitch": 42, "velocity": 80, "note_on_time": 0.003, "note_off_time": 0.607}, {"pitch": 42, "velocity": 80, "note_on_time": 0.607, "note_off_time": 1.216}, {"pitch": 42, "velocity": 80, "note_on_time": 1.216, "note_off_time": 1.822}, {"pitch": 42, "velocity": 80, "note_on_time": 1.822, "note_off_time": 2.429}, {"pitch": 42, "velocity": 80, "note_on_time": 2.429, "note_off_time": 3.039}, {"pitch": 64, "velocity": 80, "note_on_time": 2.429, "note_off_time": 3.648}, {"pitch": 42, "velocity": 80, "note_on_time": 3.04, "note_off_time": 3.649}, {"pitch": 64, "velocity": 80, "note_on_time": 3.648, "note_off_time": 4.26}, {"pitch": 42, "velocity": 80, "note_on_time": 3.649, "note_off_time": 4.26}, {"pitch": 64, "velocity": 80, "note_on_time": 4.26, "note_off_time": 4.868}, {"pitch": 42, "velocity": 80, "note_on_time": 4.261, "note_off_time": 4.869}, {"pitch": 67, "velocity": 80, "note_on_time": 4.868, "note_off_time": 5.476}, {"pitch": 42, "velocity": 80, "note_on_time": 4.869, "note_off_time": 5.477}, {"pitch": 60, "velocity": 80, "note_on_time": 5.476, "note_off_time": 6.084}, {"pitch": 42, "velocity": 80, "note_on_time": 5.477, "note_off_time": 6.084}, {"pitch": 67, "velocity": 80, "note_on_time": 6.084, "note_off_time": 6.691}, {"pitch": 42, "velocity": 80, "note_on_time": 6.084, "note_off_time": 6.692}, {"pitch": 64, "velocity": 80, "note_on_time": 6.691, "note_off_time": 7.302}, {"pitch": 42, "velocity": 80, "note_on_time": 6.692, "note_off_time": 7.303}, {"pitch": 42, "velocity": 80, "note_on_time": 7.303, "note_off_time": 7.911}, {"pitch": 64, "velocity": 80, "note_on_time": 7.302, "note_off_time": 8.521}, {"pitch": 42, "velocity": 80, "note_on_time": 7.911, "note_off_time": 8.521}, {"pitch": 42, "velocity": 80, "note_on_time": 8.521, "note_off_time": 9.13}, {"pitch": 65, "velocity": 80, "note_on_time": 9.13, "note_off_time": 9.741}, {"pitch": 42, "velocity": 80, "note_on_time": 9.131, "note_off_time": 9.742}, {"pitch": 62, "velocity": 80, "note_on_time": 9.741, "note_off_time": 10.351}, {"pitch": 42, "velocity": 80, "note_on_time": 9.742, "note_off_time": 10.351}, {"pitch": 67, "velocity": 80, "note_on_time": 10.351, "note_off_time": 10.96}, {"pitch": 42, "velocity": 80, "note_on_time": 10.352, "note_off_time": 10.96}, {"pitch": 67, "velocity": 80, "note_on_time": 10.96, "note_off_time": 11.569}, {"pitch": 42, "velocity": 80, "note_on_time": 10.961, "note_off_time": 11.569}, {"pitch": 64, "velocity": 80, "note_on_time": 11.569, "note_off_time": 12.176}, {"pitch": 42, "velocity": 80, "note_on_time": 11.57, "note_off_time": 12.176}, {"pitch": 60, "velocity": 80, "note_on_time": 12.176, "note_off_time": 12.787}, {"pitch": 42, "velocity": 80, "note_on_time": 12.176, "note_off_time": 12.787}, {"pitch": 65, "velocity": 80, "note_on_time": 12.787, "note_off_time": 13.396}, {"pitch": 42, "velocity": 80, "note_on_time": 12.788, "note_off_time": 13.396}, {"pitch": 65, "velocity": 80, "note_on_time": 13.396, "note_off_time": 14.004}, {"pitch": 42, "velocity": 80, "note_on_time": 13.396, "note_off_time": 14.004}, {"pitch": 60, "velocity": 80, "note_on_time": 14.004, "note_off_time": 14.613}, {"pitch": 42, "velocity": 80, "note_on_time": 14.005, "note_off_time": 14.614}, {"pitch": 42, "velocity": 80, "note_on_time": 14.614, "note_off_time": 15.222}, {"pitch": 65, "velocity": 80, "note_on_time": 14.613, "note_off_time": 15.833}, {"pitch": 42, "velocity": 80, "note_on_time": 15.222, "note_off_time": 15.833}, {"pitch": 42, "velocity": 80, "note_on_time": 15.833, "note_off_time": 16.44}, {"pitch": 64, "velocity": 80, "note_on_time": 15.833, "note_off_time": 17.052}, {"pitch": 42, "velocity": 80, "note_on_time": 16.44, "note_off_time": 17.052}, {"pitch": 60, "velocity": 80, "note_on_time": 17.052, "note_off_time": 17.659}, {"pitch": 42, "velocity": 80, "note_on_time": 17.052, "note_off_time": 17.659}, {"pitch": 65, "velocity": 80, "note_on_time": 17.659, "note_off_time": 18.27}, {"pitch": 42, "velocity": 80, "note_on_time": 17.659, "note_off_time": 18.27}, {"pitch": 65, "velocity": 80, "note_on_time": 18.27, "note_off_time": 18.876}, {"pitch": 42, "velocity": 80, "note_on_time": 18.27, "note_off_time": 18.877}, {"pitch": 64, "velocity": 80, "note_on_time": 18.876, "note_off_time": 19.485}, {"pitch": 42, "velocity": 80, "note_on_time": 18.877, "note_off_time": 19.485}, {"pitch": 42, "velocity": 80, "note_on_time": 19.486, "note_off_time": 20.095}, {"pitch": 64, "velocity": 80, "note_on_time": 20.095, "note_off_time": 20.707}, {"pitch": 42, "velocity": 80, "note_on_time": 20.096, "note_off_time": 20.708}, {"pitch": 64, "velocity": 80, "note_on_time": 20.707, "note_off_time": 21.32}, {"pitch": 42, "velocity": 80, "note_on_time": 20.708, "note_off_time": 21.321}, {"pitch": 64, "velocity": 80, "note_on_time": 21.32, "note_off_time": 21.925}, {"pitch": 42, "velocity": 80, "note_on_time": 21.321, "note_off_time": 21.925}]</notes><options name="Option List">((4, 4), [0.5, 0.25], 3, 8, &lt;NoteRangePerHand.C_TO_G: 6&gt;, &lt;NoteRangePerHand.ONE_NOTE: 2&gt;, False, True, True, '100')</options></target_notes><trials><trial trial_no="1" timestamp="2022_08_17-14_23_23"><notes name="Played Notes">[{"pitch": 64, "velocity": 60, "note_on_time": 2.411, "note_off_time": 3.186}, {"pitch": 64, "velocity": 83, "note_on_time": 3.633, "note_off_time": 3.761}, {"pitch": 64, "velocity": 70, "note_on_time": 4.221, "note_off_time": 4.354}, {"pitch": 67, "velocity": 69, "note_on_time": 4.846, "note_off_time": 4.997}, {"pitch": 60, "velocity": 66, "note_on_time": 5.407, "note_off_time": 5.531}, {"pitch": 67, "velocity": 76, "note_on_time": 6.022, "note_off_time": 6.135}, {"pitch": 64, "velocity": 84, "note_on_time": 6.635, "note_off_time": 6.713}, {"pitch": 64, "velocity": 72, "note_on_time": 7.223, "note_off_time": 7.972}, {"pitch": 65, "velocity": 69, "note_on_time": 9.023, "note_off_time": 9.156}, {"pitch": 62, "velocity": 72, "note_on_time": 9.611, "note_off_time": 9.718}, {"pitch": 67, "velocity": 76, "note_on_time": 10.218, "note_off_time": 10.355}, {"pitch": 67, "velocity": 72, "note_on_time": 10.84, "note_off_time": 10.979}, {"pitch": 64, "velocity": 59, "note_on_time": 11.46, "note_off_time": 11.556}, {"pitch": 60, "velocity": 65, "note_on_time": 12.019, "note_off_time": 12.13}, {"pitch": 65, "velocity": 71, "note_on_time": 12.659, "note_off_time": 12.791}, {"pitch": 65, "velocity": 67, "note_on_time": 13.308, "note_off_time": 13.438}, {"pitch": 60, "velocity": 59, "note_on_time": 13.947, "note_off_time": 14.061}, {"pitch": 65, "velocity": 67, "note_on_time": 14.616, "note_off_time": 14.721}, {"pitch": 64, "velocity": 66, "note_on_time": 15.234, "note_off_time": 16.0}, {"pitch": 60, "velocity": 67, "note_on_time": 16.438, "note_off_time": 16.63}, {"pitch": 65, "velocity": 75, "note_on_time": 17.097, "note_off_time": 17.231}, {"pitch": 65, "velocity": 61, "note_on_time": 17.711, "note_off_time": 17.851}, {"pitch": 64, "velocity": 68, "note_on_time": 18.31, "note_off_time": 18.432}, {"pitch": 64, "velocity": 77, "note_on_time": 19.446, "note_off_time": 19.549}, {"pitch": 64, "velocity": 65, "note_on_time": 20.007, "note_off_time": 20.116}, {"pitch": 64, "velocity": 66, "note_on_time": 20.57, "note_off_time": 20.696}]</notes><guidance name="Guidance Mode">None</guidance><error name="Error value">0.05378260869565222</error></trial><trial trial_no="2" timestamp="2022_08_17-14_24_03"><notes name="Played Notes">[{"pitch": 64, "velocity": 77, "note_on_time": 2.408, "note_off_time": 3.235}, {"pitch": 64, "velocity": 62, "note_on_time": 3.646, "note_off_time": 3.778}, {"pitch": 64, "velocity": 65, "note_on_time": 4.285, "note_off_time": 4.402}, {"pitch": 67, "velocity": 72, "note_on_time": 4.897, "note_off_time": 5.022}, {"pitch": 60, "velocity": 63, "note_on_time": 5.528, "note_off_time": 5.654}, {"pitch": 67, "velocity": 70, "note_on_time": 6.12, "note_off_time": 6.259}, {"pitch": 64, "velocity": 68, "note_on_time": 6.721, "note_off_time": 6.837}, {"pitch": 64, "velocity": 58, "note_on_time": 7.31, "note_off_time": 7.966}, {"pitch": 65, "velocity": 79, "note_on_time": 8.485, "note_off_time": 8.605}, {"pitch": 62, "velocity": 65, "note_on_time": 9.074, "note_off_time": 9.186}, {"pitch": 67, "velocity": 70, "note_on_time": 9.684, "note_off_time": 9.813}, {"pitch": 67, "velocity": 67, "note_on_time": 10.274, "note_off_time": 10.403}, {"pitch": 64, "velocity": 55, "note_on_time": 10.909, "note_off_time": 11.03}, {"pitch": 60, "velocity": 63, "note_on_time": 11.512, "note_off_time": 11.58}, {"pitch": 65, "velocity": 71, "note_on_time": 12.138, "note_off_time": 12.246}, {"pitch": 65, "velocity": 77, "note_on_time": 12.723, "note_off_time": 12.841}, {"pitch": 60, "velocity": 60, "note_on_time": 13.35, "note_off_time": 13.462}, {"pitch": 65, "velocity": 70, "note_on_time": 13.964, "note_off_time": 14.783}, {"pitch": 64, "velocity": 55, "note_on_time": 15.123, "note_off_time": 15.825}, {"pitch": 60, "velocity": 73, "note_on_time": 16.385, "note_off_time": 16.495}, {"pitch": 65, "velocity": 70, "note_on_time": 16.98, "note_off_time": 17.095}, {"pitch": 65, "velocity": 71, "note_on_time": 17.576, "note_off_time": 17.702}, {"pitch": 64, "velocity": 71, "note_on_time": 18.189, "note_off_time": 18.251}, {"pitch": 64, "velocity": 70, "note_on_time": 19.433, "note_off_time": 19.526}, {"pitch": 64, "velocity": 66, "note_on_time": 20.014, "note_off_time": 20.096}, {"pitch": 64, "velocity": 69, "note_on_time": 20.61, "note_off_time": 20.728}]</notes><guidance name="Guidance Mode">None</guidance><error name="Error value">0.0481739130434784</error></trial><trial trial_no="3" timestamp="2022_08_17-14_24_40"><notes name="Played Notes">[{"pitch": 64, "velocity": 62, "note_on_time": 2.466, "note_off_time": 3.294}, {"pitch": 64, "velocity": 64, "note_on_time": 3.703, "note_off_time": 3.833}, {"pitch": 64, "velocity": 68, "note_on_time": 4.336, "note_off_time": 4.47}, {"pitch": 67, "velocity": 62, "note_on_time": 4.966, "note_off_time": 5.108}, {"pitch": 60, "velocity": 57, "note_on_time": 5.559, "note_off_time": 5.643}, {"pitch": 67, "velocity": 61, "note_on_time": 6.142, "note_off_time": 6.286}, {"pitch": 64, "velocity": 56, "note_on_time": 6.75, "note_off_time": 6.864}, {"pitch": 64, "velocity": 61, "note_on_time": 7.329, "note_off_time": 8.009}, {"pitch": 65, "velocity": 72, "note_on_time": 9.1, "note_off_time": 9.226}, {"pitch": 62, "velocity": 61, "note_on_time": 9.706, "note_off_time": 9.818}, {"pitch": 67, "velocity": 76, "note_on_time": 10.318, "note_off_time": 10.454}, {"pitch": 67, "velocity": 62, "note_on_time": 10.915, "note_off_time": 11.071}, {"pitch": 64, "velocity": 67, "note_on_time": 11.54, "note_off_time": 11.603}, {"pitch": 60, "velocity": 67, "note_on_time": 12.165, "note_off_time": 12.272}, {"pitch": 65, "velocity": 63, "note_on_time": 12.783, "note_off_time": 12.89}, {"pitch": 65, "velocity": 58, "note_on_time": 13.464, "note_off_time": 13.587}, {"pitch": 60, "velocity": 62, "note_on_time": 14.031, "note_off_time": 14.124}, {"pitch": 65, "velocity": 64, "note_on_time": 14.621, "note_off_time": 15.254}, {"pitch": 64, "velocity": 76, "note_on_time": 15.771, "note_off_time": 16.381}, {"pitch": 60, "velocity": 71, "note_on_time": 16.987, "note_off_time": 17.123}, {"pitch": 65, "velocity": 62, "note_on_time": 17.556, "note_off_time": 17.659}, {"pitch": 65, "velocity": 64, "note_on_time": 18.158, "note_off_time": 18.281}, {"pitch": 64, "velocity": 63, "note_on_time": 18.917, "note_off_time": 19.041}, {"pitch": 64, "velocity": 58, "note_on_time": 20.12, "note_off_time": 20.195}, {"pitch": 64, "velocity": 76, "note_on_time": 20.695, "note_off_time": 20.805}, {"pitch": 64, "velocity": 66, "note_on_time": 21.317, "note_off_time": 21.426}]</notes><guidance name="Guidance Mode">None</guidance><error name="Error value">0.030565217391303957</error></trial></trials></MIDI>