<MIDI midiNo="2022_11_13-12_43_42"><target_notes><notes name="Note List">[{"pitch": 42, "velocity": 80, "note_on_time": 0.004, "note_off_time": 0.23}, {"pitch": 42, "velocity": 80, "note_on_time": 0.231, "note_off_time": 0.448}, {"pitch": 42, "velocity": 80, "note_on_time": 0.448, "note_off_time": 0.666}, {"pitch": 42, "velocity": 80, "note_on_time": 0.666, "note_off_time": 0.883}, {"pitch": 64, "velocity": 80, "note_on_time": 0.883, "note_off_time": 1.1}, {"pitch": 42, "velocity": 80, "note_on_time": 0.883, "note_off_time": 1.1}, {"pitch": 62, "velocity": 80, "note_on_time": 1.1, "note_off_time": 1.32}, {"pitch": 42, "velocity": 80, "note_on_time": 1.1, "note_off_time": 1.32}, {"pitch": 65, "velocity": 80, "note_on_time": 1.32, "note_off_time": 1.538}, {"pitch": 42, "velocity": 80, "note_on_time": 1.32, "note_off_time": 1.538}, {"pitch": 65, "velocity": 80, "note_on_time": 1.538, "note_off_time": 1.758}, {"pitch": 42, "velocity": 80, "note_on_time": 1.538, "note_off_time": 1.758}, {"pitch": 62, "velocity": 80, "note_on_time": 1.758, "note_off_time": 1.976}, {"pitch": 42, "velocity": 80, "note_on_time": 1.758, "note_off_time": 1.976}, {"pitch": 65, "velocity": 80, "note_on_time": 1.976, "note_off_time": 2.198}, {"pitch": 42, "velocity": 80, "note_on_time": 1.976, "note_off_time": 2.198}, {"pitch": 67, "velocity": 80, "note_on_time": 2.198, "note_off_time": 2.415}, {"pitch": 42, "velocity": 80, "note_on_time": 2.198, "note_off_time": 2.415}, {"pitch": 64, "velocity": 80, "note_on_time": 2.415, "note_off_time": 2.634}, {"pitch": 42, "velocity": 80, "note_on_time": 2.415, "note_off_time": 2.634}, {"pitch": 42, "velocity": 80, "note_on_time": 2.634, "note_off_time": 2.852}, {"pitch": 65, "velocity": 80, "note_on_time": 2.634, "note_off_time": 3.071}, {"pitch": 42, "velocity": 80, "note_on_time": 2.852, "note_off_time": 3.071}, {"pitch": 42, "velocity": 80, "note_on_time": 3.071, "note_off_time": 3.287}, {"pitch": 42, "velocity": 80, "note_on_time": 3.287, "note_off_time": 3.507}, {"pitch": 60, "velocity": 80, "note_on_time": 3.507, "note_off_time": 3.726}, {"pitch": 42, "velocity": 80, "note_on_time": 3.507, "note_off_time": 3.726}, {"pitch": 42, "velocity": 80, "note_on_time": 3.726, "note_off_time": 3.945}, {"pitch": 65, "velocity": 80, "note_on_time": 3.726, "note_off_time": 4.162}, {"pitch": 42, "velocity": 80, "note_on_time": 3.945, "note_off_time": 4.162}, {"pitch": 42, "velocity": 80, "note_on_time": 4.162, "note_off_time": 4.38}, {"pitch": 64, "velocity": 80, "note_on_time": 4.38, "note_off_time": 4.599}, {"pitch": 42, "velocity": 80, "note_on_time": 4.38, "note_off_time": 4.599}, {"pitch": 62, "velocity": 80, "note_on_time": 4.599, "note_off_time": 4.816}, {"pitch": 42, "velocity": 80, "note_on_time": 4.599, "note_off_time": 4.816}, {"pitch": 67, "velocity": 80, "note_on_time": 4.816, "note_off_time": 5.034}, {"pitch": 42, "velocity": 80, "note_on_time": 4.816, "note_off_time": 5.034}, {"pitch": 62, "velocity": 80, "note_on_time": 5.034, "note_off_time": 5.254}, {"pitch": 42, "velocity": 80, "note_on_time": 5.034, "note_off_time": 5.254}, {"pitch": 42, "velocity": 80, "note_on_time": 5.254, "note_off_time": 5.471}, {"pitch": 65, "velocity": 80, "note_on_time": 5.254, "note_off_time": 5.69}, {"pitch": 42, "velocity": 80, "note_on_time": 5.471, "note_off_time": 5.69}, {"pitch": 67, "velocity": 80, "note_on_time": 5.69, "note_off_time": 5.909}, {"pitch": 42, "velocity": 80, "note_on_time": 5.69, "note_off_time": 5.909}, {"pitch": 67, "velocity": 80, "note_on_time": 5.909, "note_off_time": 6.126}, {"pitch": 42, "velocity": 80, "note_on_time": 5.91, "note_off_time": 6.126}, {"pitch": 67, "velocity": 80, "note_on_time": 6.126, "note_off_time": 6.344}, {"pitch": 42, "velocity": 80, "note_on_time": 6.126, "note_off_time": 6.344}, {"pitch": 62, "velocity": 80, "note_on_time": 6.344, "note_off_time": 6.563}, {"pitch": 42, "velocity": 80, "note_on_time": 6.344, "note_off_time": 6.563}, {"pitch": 62, "velocity": 80, "note_on_time": 6.563, "note_off_time": 6.782}, {"pitch": 42, "velocity": 80, "note_on_time": 6.563, "note_off_time": 6.782}, {"pitch": 65, "velocity": 80, "note_on_time": 6.782, "note_off_time": 6.999}, {"pitch": 42, "velocity": 80, "note_on_time": 6.782, "note_off_time": 6.999}, {"pitch": 42, "velocity": 80, "note_on_time": 6.999, "note_off_time": 7.218}, {"pitch": 65, "velocity": 80, "note_on_time": 7.218, "note_off_time": 7.435}, {"pitch": 42, "velocity": 80, "note_on_time": 7.218, "note_off_time": 7.435}, {"pitch": 65, "velocity": 80, "note_on_time": 7.435, "note_off_time": 7.655}, {"pitch": 42, "velocity": 80, "note_on_time": 7.435, "note_off_time": 7.655}, {"pitch": 65, "velocity": 80, "note_on_time": 7.655, "note_off_time": 7.873}, {"pitch": 42, "velocity": 80, "note_on_time": 7.655, "note_off_time": 7.873}]</notes><options name="Option List">((4, 4), [0.5, 0.25], 3, 8, &lt;NoteRangePerHand.C_TO_G: 6&gt;, &lt;NoteRangePerHand.ONE_NOTE: 2&gt;, False, True, False, 281)</options></target_notes><trials><trial trial_no="1" timestamp="2022_11_13-12_43_33"><notes name="Played Notes">[{"pitch": 64, "velocity": 71, "note_on_time": 0.929, "note_off_time": 1.165}, {"pitch": 62, "velocity": 59, "note_on_time": 1.143, "note_off_time": 1.445}, {"pitch": 65, "velocity": 78, "note_on_time": 1.359, "note_off_time": 1.486}, {"pitch": 65, "velocity": 77, "note_on_time": 1.588, "note_off_time": 1.807}, {"pitch": 65, "velocity": 78, "note_on_time": 2.023, "note_off_time": 2.274}, {"pitch": 62, "velocity": 76, "note_on_time": 1.808, "note_off_time": 2.286}, {"pitch": 67, "velocity": 78, "note_on_time": 2.242, "note_off_time": 2.463}, {"pitch": 64, "velocity": 68, "note_on_time": 2.451, "note_off_time": 2.741}, {"pitch": 65, "velocity": 96, "note_on_time": 2.694, "note_off_time": 2.919}, {"pitch": 60, "velocity": 84, "note_on_time": 3.351, "note_off_time": 3.626}, {"pitch": 65, "velocity": 94, "note_on_time": 3.592, "note_off_time": 3.877}, {"pitch": 64, "velocity": 85, "note_on_time": 4.322, "note_off_time": 4.517}, {"pitch": 62, "velocity": 78, "note_on_time": 4.543, "note_off_time": 4.807}, {"pitch": 67, "velocity": 77, "note_on_time": 4.776, "note_off_time": 4.995}, {"pitch": 62, "velocity": 80, "note_on_time": 5.004, "note_off_time": 5.285}, {"pitch": 65, "velocity": 91, "note_on_time": 5.243, "note_off_time": 5.53}, {"pitch": 67, "velocity": 87, "note_on_time": 5.669, "note_off_time": 5.798}, {"pitch": 67, "velocity": 77, "note_on_time": 5.905, "note_off_time": 6.004}, {"pitch": 67, "velocity": 84, "note_on_time": 6.132, "note_off_time": 6.286}, {"pitch": 62, "velocity": 81, "note_on_time": 6.338, "note_off_time": 6.442}, {"pitch": 62, "velocity": 81, "note_on_time": 6.572, "note_off_time": 6.734}, {"pitch": 65, "velocity": 88, "note_on_time": 6.81, "note_off_time": 6.949}, {"pitch": 65, "velocity": 93, "note_on_time": 7.212, "note_off_time": 7.299}, {"pitch": 65, "velocity": 85, "note_on_time": 7.443, "note_off_time": 7.532}, {"pitch": 65, "velocity": 91, "note_on_time": 7.674, "note_off_time": 7.771}]</notes><guidance name="Guidance Mode">None</guidance><error name="Error value">0.10600704545454537</error></trial></trials></MIDI>