<MIDI midiNo="2022_11_21-17_02_42"><target_notes><notes name="Note List">[{"pitch": 42, "velocity": 80, "note_on_time": 0.004, "note_off_time": 0.259}, {"pitch": 42, "velocity": 80, "note_on_time": 0.26, "note_off_time": 0.509}, {"pitch": 42, "velocity": 80, "note_on_time": 0.509, "note_off_time": 0.759}, {"pitch": 42, "velocity": 80, "note_on_time": 0.759, "note_off_time": 1.006}, {"pitch": 60, "velocity": 80, "note_on_time": 1.006, "note_off_time": 1.254}, {"pitch": 42, "velocity": 80, "note_on_time": 1.007, "note_off_time": 1.255}, {"pitch": 64, "velocity": 80, "note_on_time": 1.254, "note_off_time": 1.504}, {"pitch": 42, "velocity": 80, "note_on_time": 1.255, "note_off_time": 1.504}, {"pitch": 62, "velocity": 80, "note_on_time": 1.504, "note_off_time": 1.752}, {"pitch": 42, "velocity": 80, "note_on_time": 1.504, "note_off_time": 1.753}, {"pitch": 62, "velocity": 80, "note_on_time": 1.752, "note_off_time": 2.002}, {"pitch": 42, "velocity": 80, "note_on_time": 1.753, "note_off_time": 2.002}, {"pitch": 64, "velocity": 80, "note_on_time": 2.002, "note_off_time": 2.249}, {"pitch": 42, "velocity": 80, "note_on_time": 2.002, "note_off_time": 2.249}, {"pitch": 64, "velocity": 80, "note_on_time": 2.249, "note_off_time": 2.5}, {"pitch": 42, "velocity": 80, "note_on_time": 2.25, "note_off_time": 2.5}, {"pitch": 42, "velocity": 80, "note_on_time": 2.5, "note_off_time": 2.749}, {"pitch": 64, "velocity": 80, "note_on_time": 2.5, "note_off_time": 2.997}, {"pitch": 42, "velocity": 80, "note_on_time": 2.749, "note_off_time": 2.997}, {"pitch": 60, "velocity": 80, "note_on_time": 2.997, "note_off_time": 3.247}, {"pitch": 42, "velocity": 80, "note_on_time": 2.998, "note_off_time": 3.247}, {"pitch": 42, "velocity": 80, "note_on_time": 3.247, "note_off_time": 3.496}, {"pitch": 42, "velocity": 80, "note_on_time": 3.496, "note_off_time": 3.747}, {"pitch": 42, "velocity": 80, "note_on_time": 3.747, "note_off_time": 3.997}, {"pitch": 62, "velocity": 80, "note_on_time": 3.997, "note_off_time": 4.245}, {"pitch": 42, "velocity": 80, "note_on_time": 3.997, "note_off_time": 4.245}, {"pitch": 42, "velocity": 80, "note_on_time": 4.245, "note_off_time": 4.494}, {"pitch": 42, "velocity": 80, "note_on_time": 4.494, "note_off_time": 4.743}, {"pitch": 60, "velocity": 80, "note_on_time": 4.743, "note_off_time": 4.993}, {"pitch": 42, "velocity": 80, "note_on_time": 4.743, "note_off_time": 4.993}, {"pitch": 62, "velocity": 80, "note_on_time": 4.993, "note_off_time": 5.242}, {"pitch": 42, "velocity": 80, "note_on_time": 4.993, "note_off_time": 5.242}, {"pitch": 64, "velocity": 80, "note_on_time": 5.242, "note_off_time": 5.494}, {"pitch": 42, "velocity": 80, "note_on_time": 5.242, "note_off_time": 5.494}, {"pitch": 62, "velocity": 80, "note_on_time": 5.494, "note_off_time": 5.742}, {"pitch": 42, "velocity": 80, "note_on_time": 5.494, "note_off_time": 5.742}, {"pitch": 60, "velocity": 80, "note_on_time": 5.742, "note_off_time": 5.992}, {"pitch": 42, "velocity": 80, "note_on_time": 5.742, "note_off_time": 5.992}, {"pitch": 64, "velocity": 80, "note_on_time": 5.992, "note_off_time": 6.238}, {"pitch": 42, "velocity": 80, "note_on_time": 5.992, "note_off_time": 6.239}, {"pitch": 42, "velocity": 80, "note_on_time": 6.239, "note_off_time": 6.486}, {"pitch": 60, "velocity": 80, "note_on_time": 6.486, "note_off_time": 6.735}, {"pitch": 42, "velocity": 80, "note_on_time": 6.487, "note_off_time": 6.736}, {"pitch": 42, "velocity": 80, "note_on_time": 6.736, "note_off_time": 6.984}, {"pitch": 62, "velocity": 80, "note_on_time": 6.984, "note_off_time": 7.234}, {"pitch": 42, "velocity": 80, "note_on_time": 6.984, "note_off_time": 7.234}, {"pitch": 60, "velocity": 80, "note_on_time": 7.234, "note_off_time": 7.484}, {"pitch": 42, "velocity": 80, "note_on_time": 7.235, "note_off_time": 7.485}, {"pitch": 62, "velocity": 80, "note_on_time": 7.484, "note_off_time": 7.733}, {"pitch": 42, "velocity": 80, "note_on_time": 7.485, "note_off_time": 7.733}, {"pitch": 62, "velocity": 80, "note_on_time": 7.733, "note_off_time": 7.98}, {"pitch": 42, "velocity": 80, "note_on_time": 7.733, "note_off_time": 7.98}, {"pitch": 42, "velocity": 80, "note_on_time": 7.98, "note_off_time": 8.228}, {"pitch": 62, "velocity": 80, "note_on_time": 8.228, "note_off_time": 8.476}, {"pitch": 42, "velocity": 80, "note_on_time": 8.229, "note_off_time": 8.476}, {"pitch": 62, "velocity": 80, "note_on_time": 8.476, "note_off_time": 8.727}, {"pitch": 42, "velocity": 80, "note_on_time": 8.476, "note_off_time": 8.727}, {"pitch": 62, "velocity": 80, "note_on_time": 8.727, "note_off_time": 8.976}, {"pitch": 42, "velocity": 80, "note_on_time": 8.727, "note_off_time": 8.976}]</notes><options name="Option List">((4, 4), [0.5, 0.25], 3, 8, &lt;NoteRangePerHand.THREE_NOTES: 4&gt;, &lt;NoteRangePerHand.ONE_NOTE: 2&gt;, False, True, False, 248)</options></target_notes><trials><trial trial_no="1" timestamp="2022_11_21-17_02_32"><notes name="Played Notes">[{"pitch": 60, "velocity": 88, "note_on_time": 1.013, "note_off_time": 1.249}, {"pitch": 64, "velocity": 69, "note_on_time": 1.237, "note_off_time": 1.412}, {"pitch": 62, "velocity": 74, "note_on_time": 1.521, "note_off_time": 1.636}, {"pitch": 62, "velocity": 69, "note_on_time": 1.768, "note_off_time": 1.897}, {"pitch": 64, "velocity": 78, "note_on_time": 2.022, "note_off_time": 2.169}, {"pitch": 64, "velocity": 69, "note_on_time": 2.267, "note_off_time": 2.437}, {"pitch": 64, "velocity": 65, "note_on_time": 2.544, "note_off_time": 2.997}, {"pitch": 60, "velocity": 90, "note_on_time": 3.119, "note_off_time": 3.337}, {"pitch": 62, "velocity": 81, "note_on_time": 4.092, "note_off_time": 4.313}, {"pitch": 60, "velocity": 81, "note_on_time": 4.827, "note_off_time": 4.951}, {"pitch": 62, "velocity": 75, "note_on_time": 5.081, "note_off_time": 5.238}, {"pitch": 64, "velocity": 75, "note_on_time": 5.328, "note_off_time": 5.501}, {"pitch": 62, "velocity": 72, "note_on_time": 5.579, "note_off_time": 5.76}, {"pitch": 60, "velocity": 74, "note_on_time": 5.784, "note_off_time": 5.955}, {"pitch": 64, "velocity": 66, "note_on_time": 6.041, "note_off_time": 6.248}, {"pitch": 60, "velocity": 88, "note_on_time": 6.577, "note_off_time": 6.756}, {"pitch": 62, "velocity": 80, "note_on_time": 7.098, "note_off_time": 7.278}, {"pitch": 60, "velocity": 79, "note_on_time": 7.339, "note_off_time": 7.481}, {"pitch": 62, "velocity": 70, "note_on_time": 7.575, "note_off_time": 7.71}, {"pitch": 62, "velocity": 65, "note_on_time": 7.819, "note_off_time": 7.979}, {"pitch": 62, "velocity": 75, "note_on_time": 8.294, "note_off_time": 8.443}, {"pitch": 62, "velocity": 65, "note_on_time": 8.548, "note_off_time": 8.707}]</notes><guidance name="Guidance Mode">None</guidance><error name="Error value">0.08300524999999995</error></trial><trial trial_no="2" timestamp="2022_11_21-17_02_51"><notes name="Played Notes">[{"pitch": 60, "velocity": 89, "note_on_time": 0.994, "note_off_time": 1.151}, {"pitch": 64, "velocity": 81, "note_on_time": 1.241, "note_off_time": 1.373}, {"pitch": 62, "velocity": 72, "note_on_time": 1.494, "note_off_time": 1.6}, {"pitch": 62, "velocity": 70, "note_on_time": 1.724, "note_off_time": 1.865}, {"pitch": 64, "velocity": 74, "note_on_time": 1.989, "note_off_time": 2.143}, {"pitch": 64, "velocity": 76, "note_on_time": 2.235, "note_off_time": 2.392}, {"pitch": 64, "velocity": 71, "note_on_time": 2.504, "note_off_time": 2.858}, {"pitch": 60, "velocity": 90, "note_on_time": 3.006, "note_off_time": 3.205}, {"pitch": 62, "velocity": 78, "note_on_time": 3.966, "note_off_time": 4.207}, {"pitch": 60, "velocity": 78, "note_on_time": 4.737, "note_off_time": 4.889}, {"pitch": 62, "velocity": 81, "note_on_time": 5.006, "note_off_time": 5.176}, {"pitch": 64, "velocity": 75, "note_on_time": 5.238, "note_off_time": 5.41}, {"pitch": 62, "velocity": 70, "note_on_time": 5.48, "note_off_time": 5.645}, {"pitch": 60, "velocity": 69, "note_on_time": 5.709, "note_off_time": 5.849}, {"pitch": 64, "velocity": 75, "note_on_time": 5.976, "note_off_time": 6.181}, {"pitch": 60, "velocity": 84, "note_on_time": 6.515, "note_off_time": 6.691}, {"pitch": 62, "velocity": 81, "note_on_time": 6.992, "note_off_time": 7.182}, {"pitch": 60, "velocity": 77, "note_on_time": 7.234, "note_off_time": 7.35}, {"pitch": 62, "velocity": 73, "note_on_time": 7.493, "note_off_time": 7.616}, {"pitch": 62, "velocity": 64, "note_on_time": 7.745, "note_off_time": 7.907}, {"pitch": 62, "velocity": 71, "note_on_time": 8.209, "note_off_time": 8.359}, {"pitch": 62, "velocity": 69, "note_on_time": 8.463, "note_off_time": 8.619}, {"pitch": 62, "velocity": 75, "note_on_time": 8.712, "note_off_time": 8.868}]</notes><guidance name="Guidance Mode">None</guidance><error name="Error value">0.01782925000000004</error></trial><trial trial_no="3" timestamp="2022_11_21-17_03_07"><notes name="Played Notes">[{"pitch": 32, "velocity": 23, "note_on_time": 0.088, "note_off_time": 0.152}, {"pitch": 60, "velocity": 90, "note_on_time": 1.013, "note_off_time": 1.193}, {"pitch": 64, "velocity": 76, "note_on_time": 1.27, "note_off_time": 1.423}, {"pitch": 62, "velocity": 74, "note_on_time": 1.515, "note_off_time": 1.643}, {"pitch": 62, "velocity": 68, "note_on_time": 1.752, "note_off_time": 1.898}, {"pitch": 64, "velocity": 79, "note_on_time": 2.005, "note_off_time": 2.161}, {"pitch": 64, "velocity": 78, "note_on_time": 2.249, "note_off_time": 2.394}, {"pitch": 64, "velocity": 70, "note_on_time": 2.504, "note_off_time": 2.827}, {"pitch": 60, "velocity": 86, "note_on_time": 2.987, "note_off_time": 3.202}, {"pitch": 62, "velocity": 84, "note_on_time": 3.996, "note_off_time": 4.212}, {"pitch": 60, "velocity": 78, "note_on_time": 4.743, "note_off_time": 4.873}, {"pitch": 62, "velocity": 77, "note_on_time": 5.0, "note_off_time": 5.169}, {"pitch": 64, "velocity": 66, "note_on_time": 5.242, "note_off_time": 5.446}, {"pitch": 62, "velocity": 68, "note_on_time": 5.491, "note_off_time": 5.69}, {"pitch": 60, "velocity": 75, "note_on_time": 5.709, "note_off_time": 5.897}, {"pitch": 64, "velocity": 66, "note_on_time": 5.982, "note_off_time": 6.184}, {"pitch": 60, "velocity": 86, "note_on_time": 6.5, "note_off_time": 6.693}, {"pitch": 62, "velocity": 79, "note_on_time": 6.963, "note_off_time": 7.174}, {"pitch": 60, "velocity": 55, "note_on_time": 7.2, "note_off_time": 7.388}, {"pitch": 62, "velocity": 81, "note_on_time": 7.468, "note_off_time": 7.585}, {"pitch": 62, "velocity": 77, "note_on_time": 7.754, "note_off_time": 7.88}, {"pitch": 62, "velocity": 74, "note_on_time": 8.248, "note_off_time": 8.404}, {"pitch": 62, "velocity": 69, "note_on_time": 8.503, "note_off_time": 8.66}, {"pitch": 62, "velocity": 85, "note_on_time": 8.74, "note_off_time": 8.919}]</notes><guidance name="Guidance Mode">None</guidance><error name="Error value">0.13139875000000006</error></trial></trials></MIDI>