<MIDI midiNo="2022_09_12-12_13_15"><target_notes><notes name="Note List">[{"pitch": 42, "velocity": 80, "note_on_time": 0.004, "note_off_time": 0.223}, {"pitch": 42, "velocity": 80, "note_on_time": 0.224, "note_off_time": 0.441}, {"pitch": 42, "velocity": 80, "note_on_time": 0.441, "note_off_time": 0.66}, {"pitch": 42, "velocity": 80, "note_on_time": 0.66, "note_off_time": 0.877}, {"pitch": 60, "velocity": 80, "note_on_time": 0.877, "note_off_time": 1.095}, {"pitch": 42, "velocity": 80, "note_on_time": 0.877, "note_off_time": 1.095}, {"pitch": 42, "velocity": 80, "note_on_time": 1.095, "note_off_time": 1.313}, {"pitch": 60, "velocity": 80, "note_on_time": 1.095, "note_off_time": 1.53}, {"pitch": 42, "velocity": 80, "note_on_time": 1.313, "note_off_time": 1.53}, {"pitch": 42, "velocity": 80, "note_on_time": 1.53, "note_off_time": 1.751}, {"pitch": 62, "velocity": 80, "note_on_time": 1.751, "note_off_time": 1.971}, {"pitch": 42, "velocity": 80, "note_on_time": 1.751, "note_off_time": 1.971}, {"pitch": 64, "velocity": 80, "note_on_time": 1.971, "note_off_time": 2.19}, {"pitch": 42, "velocity": 80, "note_on_time": 1.971, "note_off_time": 2.19}, {"pitch": 60, "velocity": 80, "note_on_time": 2.19, "note_off_time": 2.408}, {"pitch": 42, "velocity": 80, "note_on_time": 2.19, "note_off_time": 2.408}, {"pitch": 60, "velocity": 80, "note_on_time": 2.408, "note_off_time": 2.625}, {"pitch": 42, "velocity": 80, "note_on_time": 2.408, "note_off_time": 2.625}, {"pitch": 64, "velocity": 80, "note_on_time": 2.625, "note_off_time": 2.842}, {"pitch": 42, "velocity": 80, "note_on_time": 2.625, "note_off_time": 2.842}, {"pitch": 42, "velocity": 80, "note_on_time": 2.842, "note_off_time": 3.06}, {"pitch": 42, "velocity": 80, "note_on_time": 3.06, "note_off_time": 3.276}, {"pitch": 62, "velocity": 80, "note_on_time": 3.276, "note_off_time": 3.492}, {"pitch": 42, "velocity": 80, "note_on_time": 3.276, "note_off_time": 3.492}, {"pitch": 60, "velocity": 80, "note_on_time": 3.492, "note_off_time": 3.71}, {"pitch": 42, "velocity": 80, "note_on_time": 3.492, "note_off_time": 3.71}, {"pitch": 64, "velocity": 80, "note_on_time": 3.71, "note_off_time": 3.93}, {"pitch": 42, "velocity": 80, "note_on_time": 3.71, "note_off_time": 3.93}, {"pitch": 64, "velocity": 80, "note_on_time": 3.93, "note_off_time": 4.152}, {"pitch": 42, "velocity": 80, "note_on_time": 3.93, "note_off_time": 4.152}, {"pitch": 60, "velocity": 80, "note_on_time": 4.152, "note_off_time": 4.37}, {"pitch": 42, "velocity": 80, "note_on_time": 4.152, "note_off_time": 4.37}, {"pitch": 64, "velocity": 80, "note_on_time": 4.37, "note_off_time": 4.593}, {"pitch": 42, "velocity": 80, "note_on_time": 4.37, "note_off_time": 4.594}, {"pitch": 62, "velocity": 80, "note_on_time": 4.593, "note_off_time": 4.812}, {"pitch": 42, "velocity": 80, "note_on_time": 4.594, "note_off_time": 4.812}, {"pitch": 42, "velocity": 80, "note_on_time": 4.812, "note_off_time": 5.029}, {"pitch": 60, "velocity": 80, "note_on_time": 4.812, "note_off_time": 5.245}, {"pitch": 42, "velocity": 80, "note_on_time": 5.029, "note_off_time": 5.245}, {"pitch": 60, "velocity": 80, "note_on_time": 5.245, "note_off_time": 5.462}, {"pitch": 42, "velocity": 80, "note_on_time": 5.245, "note_off_time": 5.462}, {"pitch": 60, "velocity": 80, "note_on_time": 5.462, "note_off_time": 5.678}, {"pitch": 42, "velocity": 80, "note_on_time": 5.462, "note_off_time": 5.678}, {"pitch": 64, "velocity": 80, "note_on_time": 5.678, "note_off_time": 5.896}, {"pitch": 42, "velocity": 80, "note_on_time": 5.679, "note_off_time": 5.896}, {"pitch": 62, "velocity": 80, "note_on_time": 5.896, "note_off_time": 6.113}, {"pitch": 42, "velocity": 80, "note_on_time": 5.896, "note_off_time": 6.113}, {"pitch": 60, "velocity": 80, "note_on_time": 6.113, "note_off_time": 6.331}, {"pitch": 42, "velocity": 80, "note_on_time": 6.113, "note_off_time": 6.331}, {"pitch": 42, "velocity": 80, "note_on_time": 6.331, "note_off_time": 6.548}, {"pitch": 60, "velocity": 80, "note_on_time": 6.548, "note_off_time": 6.766}, {"pitch": 42, "velocity": 80, "note_on_time": 6.548, "note_off_time": 6.766}, {"pitch": 60, "velocity": 80, "note_on_time": 6.766, "note_off_time": 6.983}, {"pitch": 42, "velocity": 80, "note_on_time": 6.766, "note_off_time": 6.983}, {"pitch": 42, "velocity": 80, "note_on_time": 6.983, "note_off_time": 7.202}, {"pitch": 60, "velocity": 80, "note_on_time": 7.202, "note_off_time": 7.42}, {"pitch": 42, "velocity": 80, "note_on_time": 7.202, "note_off_time": 7.42}, {"pitch": 60, "velocity": 80, "note_on_time": 7.42, "note_off_time": 7.639}, {"pitch": 42, "velocity": 80, "note_on_time": 7.42, "note_off_time": 7.639}, {"pitch": 60, "velocity": 80, "note_on_time": 7.639, "note_off_time": 7.857}, {"pitch": 42, "velocity": 80, "note_on_time": 7.639, "note_off_time": 7.857}]</notes><options name="Option List">((4, 4), [0.5, 0.25], 3, 8, &lt;NoteRangePerHand.THREE_NOTES: 4&gt;, &lt;NoteRangePerHand.ONE_NOTE: 2&gt;, False, True, True, '280')</options></target_notes><trials><trial trial_no="1" timestamp="2022_09_12-12_13_05"><notes name="Played Notes">[{"pitch": 60, "velocity": 104, "note_on_time": 0.915, "note_off_time": 1.027}, {"pitch": 60, "velocity": 91, "note_on_time": 1.125, "note_off_time": 1.476}, {"pitch": 60, "velocity": 100, "note_on_time": 1.747, "note_off_time": 1.874}, {"pitch": 64, "velocity": 99, "note_on_time": 2.01, "note_off_time": 2.129}, {"pitch": 62, "velocity": 85, "note_on_time": 2.297, "note_off_time": 2.4}, {"pitch": 60, "velocity": 46, "note_on_time": 3.105, "note_off_time": 3.271}, {"pitch": 60, "velocity": 98, "note_on_time": 3.516, "note_off_time": 3.69}, {"pitch": 60, "velocity": 89, "note_on_time": 4.634, "note_off_time": 4.772}, {"pitch": 64, "velocity": 95, "note_on_time": 4.934, "note_off_time": 5.029}, {"pitch": 64, "velocity": 79, "note_on_time": 5.149, "note_off_time": 5.322}, {"pitch": 60, "velocity": 94, "note_on_time": 5.58, "note_off_time": 5.726}, {"pitch": 64, "velocity": 91, "note_on_time": 6.131, "note_off_time": 6.25}, {"pitch": 62, "velocity": 88, "note_on_time": 6.355, "note_off_time": 6.467}, {"pitch": 60, "velocity": 100, "note_on_time": 6.59, "note_off_time": 6.888}, {"pitch": 60, "velocity": 102, "note_on_time": 7.054, "note_off_time": 7.143}, {"pitch": 60, "velocity": 102, "note_on_time": 7.268, "note_off_time": 7.401}, {"pitch": 64, "velocity": 88, "note_on_time": 7.615, "note_off_time": 7.751}]</notes><guidance name="Guidance Mode">None</guidance><error name="Error value">0.6825063636363636</error></trial><trial trial_no="2" timestamp="2022_09_12-12_13_24"><notes name="Played Notes">[{"pitch": 60, "velocity": 100, "note_on_time": 0.763, "note_off_time": 0.877}, {"pitch": 60, "velocity": 102, "note_on_time": 0.99, "note_off_time": 1.369}, {"pitch": 60, "velocity": 102, "note_on_time": 1.591, "note_off_time": 1.747}, {"pitch": 64, "velocity": 86, "note_on_time": 2.225, "note_off_time": 2.387}, {"pitch": 60, "velocity": 100, "note_on_time": 2.569, "note_off_time": 2.694}, {"pitch": 60, "velocity": 94, "note_on_time": 2.818, "note_off_time": 2.948}, {"pitch": 64, "velocity": 94, "note_on_time": 3.146, "note_off_time": 3.28}, {"pitch": 62, "velocity": 88, "note_on_time": 3.487, "note_off_time": 3.594}, {"pitch": 60, "velocity": 100, "note_on_time": 3.734, "note_off_time": 3.88}, {"pitch": 64, "velocity": 93, "note_on_time": 4.112, "note_off_time": 4.217}, {"pitch": 64, "velocity": 87, "note_on_time": 4.342, "note_off_time": 4.478}, {"pitch": 60, "velocity": 96, "note_on_time": 4.614, "note_off_time": 4.763}, {"pitch": 64, "velocity": 93, "note_on_time": 5.025, "note_off_time": 5.146}, {"pitch": 62, "velocity": 94, "note_on_time": 5.312, "note_off_time": 5.432}, {"pitch": 60, "velocity": 99, "note_on_time": 5.569, "note_off_time": 5.857}, {"pitch": 60, "velocity": 106, "note_on_time": 6.026, "note_off_time": 6.13}, {"pitch": 60, "velocity": 98, "note_on_time": 6.242, "note_off_time": 6.367}, {"pitch": 64, "velocity": 87, "note_on_time": 6.505, "note_off_time": 6.656}, {"pitch": 62, "velocity": 88, "note_on_time": 6.782, "note_off_time": 6.894}, {"pitch": 60, "velocity": 100, "note_on_time": 7.013, "note_off_time": 7.154}, {"pitch": 60, "velocity": 98, "note_on_time": 7.52, "note_off_time": 7.634}, {"pitch": 60, "velocity": 95, "note_on_time": 7.76, "note_off_time": 7.89}]</notes><guidance name="Guidance Mode">None</guidance><error name="Error value">0.6215065909090909</error></trial><trial trial_no="3" timestamp="2022_09_12-12_13_44"><notes name="Played Notes">[{"pitch": 60, "velocity": 82, "note_on_time": 0.77, "note_off_time": 0.86}, {"pitch": 60, "velocity": 93, "note_on_time": 0.991, "note_off_time": 1.371}, {"pitch": 64, "velocity": 77, "note_on_time": 1.646, "note_off_time": 1.789}, {"pitch": 60, "velocity": 98, "note_on_time": 2.623, "note_off_time": 2.738}, {"pitch": 60, "velocity": 93, "note_on_time": 2.824, "note_off_time": 2.947}, {"pitch": 64, "velocity": 88, "note_on_time": 3.19, "note_off_time": 3.315}, {"pitch": 62, "velocity": 88, "note_on_time": 3.627, "note_off_time": 3.746}, {"pitch": 60, "velocity": 100, "note_on_time": 3.882, "note_off_time": 4.013}, {"pitch": 60, "velocity": 94, "note_on_time": 4.137, "note_off_time": 4.241}, {"pitch": 64, "velocity": 84, "note_on_time": 4.629, "note_off_time": 4.734}, {"pitch": 64, "velocity": 81, "note_on_time": 4.897, "note_off_time": 5.003}, {"pitch": 60, "velocity": 95, "note_on_time": 5.239, "note_off_time": 5.374}, {"pitch": 64, "velocity": 89, "note_on_time": 5.721, "note_off_time": 5.837}, {"pitch": 62, "velocity": 88, "note_on_time": 5.953, "note_off_time": 6.054}, {"pitch": 60, "velocity": 100, "note_on_time": 6.154, "note_off_time": 6.286}, {"pitch": 60, "velocity": 102, "note_on_time": 6.763, "note_off_time": 7.119}, {"pitch": 60, "velocity": 100, "note_on_time": 7.263, "note_off_time": 7.362}, {"pitch": 60, "velocity": 82, "note_on_time": 7.766, "note_off_time": 7.864}]</notes><guidance name="Guidance Mode">None</guidance><error name="Error value">0.6155129545454546</error></trial><trial trial_no="4" timestamp="2022_09_12-12_14_06"><notes name="Played Notes">[{"pitch": 60, "velocity": 92, "note_on_time": 0.972, "note_off_time": 1.103}, {"pitch": 60, "velocity": 96, "note_on_time": 1.197, "note_off_time": 1.667}, {"pitch": 62, "velocity": 86, "note_on_time": 2.624, "note_off_time": 2.786}, {"pitch": 64, "velocity": 95, "note_on_time": 2.879, "note_off_time": 3.036}, {"pitch": 60, "velocity": 95, "note_on_time": 3.177, "note_off_time": 3.294}, {"pitch": 60, "velocity": 95, "note_on_time": 3.415, "note_off_time": 3.567}, {"pitch": 64, "velocity": 88, "note_on_time": 3.802, "note_off_time": 3.951}, {"pitch": 62, "velocity": 88, "note_on_time": 4.153, "note_off_time": 4.255}, {"pitch": 60, "velocity": 97, "note_on_time": 4.414, "note_off_time": 4.552}, {"pitch": 64, "velocity": 85, "note_on_time": 4.847, "note_off_time": 4.961}, {"pitch": 64, "velocity": 80, "note_on_time": 5.078, "note_off_time": 5.238}, {"pitch": 60, "velocity": 96, "note_on_time": 5.34, "note_off_time": 5.49}, {"pitch": 64, "velocity": 90, "note_on_time": 5.716, "note_off_time": 5.841}, {"pitch": 62, "velocity": 87, "note_on_time": 5.942, "note_off_time": 6.071}, {"pitch": 60, "velocity": 98, "note_on_time": 6.188, "note_off_time": 6.429}, {"pitch": 60, "velocity": 100, "note_on_time": 6.637, "note_off_time": 6.726}, {"pitch": 60, "velocity": 96, "note_on_time": 6.825, "note_off_time": 6.944}, {"pitch": 64, "velocity": 91, "note_on_time": 7.116, "note_off_time": 7.256}, {"pitch": 62, "velocity": 83, "note_on_time": 7.474, "note_off_time": 7.58}]</notes><guidance name="Guidance Mode">None</guidance><error name="Error value">0.5613572727272726</error></trial><trial trial_no="5" timestamp="2022_09_12-12_14_26"><notes name="Played Notes">[{"pitch": 60, "velocity": 86, "note_on_time": 0.869, "note_off_time": 0.967}, {"pitch": 60, "velocity": 99, "note_on_time": 1.079, "note_off_time": 1.419}, {"pitch": 62, "velocity": 89, "note_on_time": 1.683, "note_off_time": 1.805}, {"pitch": 64, "velocity": 99, "note_on_time": 1.898, "note_off_time": 2.06}, {"pitch": 60, "velocity": 102, "note_on_time": 2.164, "note_off_time": 2.288}, {"pitch": 60, "velocity": 97, "note_on_time": 2.393, "note_off_time": 2.509}, {"pitch": 64, "velocity": 99, "note_on_time": 2.623, "note_off_time": 2.776}, {"pitch": 62, "velocity": 91, "note_on_time": 2.939, "note_off_time": 3.056}, {"pitch": 60, "velocity": 93, "note_on_time": 3.193, "note_off_time": 3.351}, {"pitch": 64, "velocity": 88, "note_on_time": 3.589, "note_off_time": 3.686}, {"pitch": 64, "velocity": 87, "note_on_time": 3.768, "note_off_time": 3.917}, {"pitch": 60, "velocity": 94, "note_on_time": 4.079, "note_off_time": 4.221}, {"pitch": 64, "velocity": 94, "note_on_time": 4.486, "note_off_time": 4.601}, {"pitch": 62, "velocity": 96, "note_on_time": 4.695, "note_off_time": 4.808}, {"pitch": 60, "velocity": 99, "note_on_time": 4.917, "note_off_time": 5.223}, {"pitch": 60, "velocity": 106, "note_on_time": 5.368, "note_off_time": 5.479}, {"pitch": 60, "velocity": 100, "note_on_time": 5.587, "note_off_time": 5.739}, {"pitch": 64, "velocity": 97, "note_on_time": 5.891, "note_off_time": 6.036}, {"pitch": 62, "velocity": 86, "note_on_time": 6.15, "note_off_time": 6.266}, {"pitch": 60, "velocity": 97, "note_on_time": 6.395, "note_off_time": 6.532}, {"pitch": 60, "velocity": 102, "note_on_time": 6.824, "note_off_time": 6.913}, {"pitch": 60, "velocity": 95, "note_on_time": 7.017, "note_off_time": 7.146}, {"pitch": 60, "velocity": 104, "note_on_time": 7.385, "note_off_time": 7.469}, {"pitch": 60, "velocity": 95, "note_on_time": 7.554, "note_off_time": 7.64}]</notes><guidance name="Guidance Mode">None</guidance><error name="Error value">0.11573386363636363</error></trial><trial trial_no="6" timestamp="2022_09_12-12_14_59"><notes name="Played Notes">[{"pitch": 60, "velocity": 93, "note_on_time": 1.09, "note_off_time": 1.226}, {"pitch": 60, "velocity": 98, "note_on_time": 1.356, "note_off_time": 1.728}, {"pitch": 60, "velocity": 94, "note_on_time": 2.021, "note_off_time": 2.156}, {"pitch": 64, "velocity": 89, "note_on_time": 2.328, "note_off_time": 2.449}, {"pitch": 60, "velocity": 89, "note_on_time": 3.262, "note_off_time": 3.377}, {"pitch": 60, "velocity": 90, "note_on_time": 3.458, "note_off_time": 3.567}, {"pitch": 64, "velocity": 90, "note_on_time": 3.93, "note_off_time": 4.07}, {"pitch": 62, "velocity": 86, "note_on_time": 4.555, "note_off_time": 4.668}, {"pitch": 60, "velocity": 94, "note_on_time": 4.815, "note_off_time": 4.952}, {"pitch": 64, "velocity": 95, "note_on_time": 5.25, "note_off_time": 5.362}, {"pitch": 64, "velocity": 77, "note_on_time": 5.522, "note_off_time": 5.636}, {"pitch": 60, "velocity": 89, "note_on_time": 5.926, "note_off_time": 6.043}, {"pitch": 64, "velocity": 80, "note_on_time": 6.345, "note_off_time": 6.496}, {"pitch": 62, "velocity": 79, "note_on_time": 6.702, "note_off_time": 6.804}, {"pitch": 60, "velocity": 91, "note_on_time": 6.923, "note_off_time": 7.057}, {"pitch": 60, "velocity": 93, "note_on_time": 7.498, "note_off_time": 7.64}, {"pitch": 60, "velocity": 83, "note_on_time": 7.755, "note_off_time": 7.88}, {"pitch": 64, "velocity": 82, "note_on_time": 8.088, "note_off_time": 8.228}, {"pitch": 62, "velocity": 84, "note_on_time": 8.511, "note_off_time": 8.616}, {"pitch": 60, "velocity": 95, "note_on_time": 8.823, "note_off_time": 8.942}, {"pitch": 60, "velocity": 92, "note_on_time": 9.433, "note_off_time": 9.533}, {"pitch": 60, "velocity": 84, "note_on_time": 9.631, "note_off_time": 9.733}, {"pitch": 60, "velocity": 95, "note_on_time": 10.026, "note_off_time": 10.122}, {"pitch": 60, "velocity": 84, "note_on_time": 10.242, "note_off_time": 10.337}]</notes><guidance name="Guidance Mode">None</guidance><error name="Error value">0.22032759090909082</error></trial></trials></MIDI>