<MIDI midiNo="2022_11_10-10_42_30"><target_notes><notes name="Note List">[{"pitch": 42, "velocity": 80, "note_on_time": 0.004, "note_off_time": 0.605}, {"pitch": 42, "velocity": 80, "note_on_time": 0.605, "note_off_time": 1.212}, {"pitch": 42, "velocity": 80, "note_on_time": 1.212, "note_off_time": 1.818}, {"pitch": 42, "velocity": 80, "note_on_time": 1.818, "note_off_time": 2.425}, {"pitch": 62, "velocity": 80, "note_on_time": 2.424, "note_off_time": 3.029}, {"pitch": 42, "velocity": 80, "note_on_time": 2.425, "note_off_time": 3.029}, {"pitch": 42, "velocity": 80, "note_on_time": 3.03, "note_off_time": 3.633}, {"pitch": 42, "velocity": 80, "note_on_time": 3.634, "note_off_time": 4.236}, {"pitch": 62, "velocity": 80, "note_on_time": 4.236, "note_off_time": 4.843}, {"pitch": 42, "velocity": 80, "note_on_time": 4.236, "note_off_time": 4.843}, {"pitch": 60, "velocity": 80, "note_on_time": 4.843, "note_off_time": 5.451}, {"pitch": 42, "velocity": 80, "note_on_time": 4.844, "note_off_time": 5.451}, {"pitch": 60, "velocity": 80, "note_on_time": 5.451, "note_off_time": 6.056}, {"pitch": 42, "velocity": 80, "note_on_time": 5.451, "note_off_time": 6.057}, {"pitch": 62, "velocity": 80, "note_on_time": 6.056, "note_off_time": 6.663}, {"pitch": 42, "velocity": 80, "note_on_time": 6.057, "note_off_time": 6.664}, {"pitch": 62, "velocity": 80, "note_on_time": 6.663, "note_off_time": 7.266}, {"pitch": 42, "velocity": 80, "note_on_time": 6.664, "note_off_time": 7.267}, {"pitch": 62, "velocity": 80, "note_on_time": 7.266, "note_off_time": 7.871}, {"pitch": 42, "velocity": 80, "note_on_time": 7.267, "note_off_time": 7.872}, {"pitch": 60, "velocity": 80, "note_on_time": 7.871, "note_off_time": 8.478}, {"pitch": 42, "velocity": 80, "note_on_time": 7.872, "note_off_time": 8.478}, {"pitch": 60, "velocity": 80, "note_on_time": 8.478, "note_off_time": 9.083}, {"pitch": 42, "velocity": 80, "note_on_time": 8.478, "note_off_time": 9.083}, {"pitch": 62, "velocity": 80, "note_on_time": 9.083, "note_off_time": 9.69}, {"pitch": 42, "velocity": 80, "note_on_time": 9.083, "note_off_time": 9.691}, {"pitch": 42, "velocity": 80, "note_on_time": 9.691, "note_off_time": 10.294}, {"pitch": 62, "velocity": 80, "note_on_time": 9.69, "note_off_time": 10.9}, {"pitch": 42, "velocity": 80, "note_on_time": 10.295, "note_off_time": 10.901}, {"pitch": 62, "velocity": 80, "note_on_time": 10.9, "note_off_time": 11.506}, {"pitch": 42, "velocity": 80, "note_on_time": 10.901, "note_off_time": 11.506}, {"pitch": 62, "velocity": 80, "note_on_time": 11.506, "note_off_time": 12.109}, {"pitch": 42, "velocity": 80, "note_on_time": 11.506, "note_off_time": 12.11}, {"pitch": 42, "velocity": 80, "note_on_time": 12.11, "note_off_time": 12.714}, {"pitch": 60, "velocity": 80, "note_on_time": 12.109, "note_off_time": 13.315}, {"pitch": 42, "velocity": 80, "note_on_time": 12.714, "note_off_time": 13.316}, {"pitch": 62, "velocity": 80, "note_on_time": 13.315, "note_off_time": 13.919}, {"pitch": 42, "velocity": 80, "note_on_time": 13.316, "note_off_time": 13.92}, {"pitch": 62, "velocity": 80, "note_on_time": 13.92, "note_off_time": 14.523}, {"pitch": 42, "velocity": 80, "note_on_time": 13.92, "note_off_time": 14.524}, {"pitch": 42, "velocity": 80, "note_on_time": 14.524, "note_off_time": 15.13}, {"pitch": 62, "velocity": 80, "note_on_time": 14.523, "note_off_time": 15.736}, {"pitch": 42, "velocity": 80, "note_on_time": 15.13, "note_off_time": 15.736}, {"pitch": 42, "velocity": 80, "note_on_time": 15.736, "note_off_time": 16.34}, {"pitch": 42, "velocity": 80, "note_on_time": 16.34, "note_off_time": 16.951}, {"pitch": 62, "velocity": 80, "note_on_time": 16.95, "note_off_time": 17.56}, {"pitch": 42, "velocity": 80, "note_on_time": 16.951, "note_off_time": 17.56}, {"pitch": 62, "velocity": 80, "note_on_time": 17.56, "note_off_time": 18.165}, {"pitch": 42, "velocity": 80, "note_on_time": 17.561, "note_off_time": 18.166}, {"pitch": 60, "velocity": 80, "note_on_time": 18.165, "note_off_time": 18.77}, {"pitch": 42, "velocity": 80, "note_on_time": 18.166, "note_off_time": 18.771}, {"pitch": 60, "velocity": 80, "note_on_time": 18.77, "note_off_time": 19.377}, {"pitch": 42, "velocity": 80, "note_on_time": 18.771, "note_off_time": 19.377}, {"pitch": 42, "velocity": 80, "note_on_time": 19.377, "note_off_time": 19.981}, {"pitch": 60, "velocity": 80, "note_on_time": 19.981, "note_off_time": 20.588}, {"pitch": 42, "velocity": 80, "note_on_time": 19.981, "note_off_time": 20.588}, {"pitch": 60, "velocity": 80, "note_on_time": 20.588, "note_off_time": 21.192}, {"pitch": 42, "velocity": 80, "note_on_time": 20.588, "note_off_time": 21.193}, {"pitch": 60, "velocity": 80, "note_on_time": 21.192, "note_off_time": 21.801}, {"pitch": 42, "velocity": 80, "note_on_time": 21.193, "note_off_time": 21.802}]</notes><options name="Option List">((4, 4), [0.25], 3, 8, &lt;NoteRangePerHand.TWO_NOTES: 3&gt;, &lt;NoteRangePerHand.ONE_NOTE: 2&gt;, False, True, False, '80')</options></target_notes><trials><trial trial_no="1" timestamp="2022_11_10-10_42_06"><notes name="Played Notes">[{"pitch": 62, "velocity": 69, "note_on_time": 2.361, "note_off_time": 2.897}, {"pitch": 60, "velocity": 78, "note_on_time": 3.626, "note_off_time": 3.89}, {"pitch": 62, "velocity": 61, "note_on_time": 13.303, "note_off_time": 14.012}, {"pitch": 62, "velocity": 61, "note_on_time": 14.567, "note_off_time": 15.251}, {"pitch": 60, "velocity": 72, "note_on_time": 15.753, "note_off_time": 15.997}, {"pitch": 60, "velocity": 57, "note_on_time": 16.413, "note_off_time": 16.619}, {"pitch": 62, "velocity": 71, "note_on_time": 16.992, "note_off_time": 17.195}, {"pitch": 62, "velocity": 66, "note_on_time": 17.586, "note_off_time": 17.735}, {"pitch": 62, "velocity": 64, "note_on_time": 18.127, "note_off_time": 18.337}, {"pitch": 60, "velocity": 70, "note_on_time": 18.759, "note_off_time": 18.953}, {"pitch": 60, "velocity": 71, "note_on_time": 19.315, "note_off_time": 19.486}, {"pitch": 62, "velocity": 66, "note_on_time": 19.922, "note_off_time": 20.12}, {"pitch": 60, "velocity": 74, "note_on_time": 20.519, "note_off_time": 20.891}]</notes><guidance name="Guidance Mode">None</guidance><error name="Error value">1.2024761904761905</error></trial><trial trial_no="2" timestamp="2022_11_10-10_43_00"><notes name="Played Notes">[{"pitch": 62, "velocity": 69, "note_on_time": 2.412, "note_off_time": 3.032}, {"pitch": 62, "velocity": 77, "note_on_time": 3.672, "note_off_time": 4.372}, {"pitch": 60, "velocity": 79, "note_on_time": 4.916, "note_off_time": 5.155}, {"pitch": 60, "velocity": 81, "note_on_time": 5.529, "note_off_time": 5.728}, {"pitch": 62, "velocity": 66, "note_on_time": 6.153, "note_off_time": 6.334}, {"pitch": 62, "velocity": 66, "note_on_time": 6.68, "note_off_time": 6.83}, {"pitch": 62, "velocity": 79, "note_on_time": 7.233, "note_off_time": 7.568}, {"pitch": 60, "velocity": 62, "note_on_time": 7.796, "note_off_time": 7.995}, {"pitch": 60, "velocity": 75, "note_on_time": 8.351, "note_off_time": 8.54}, {"pitch": 62, "velocity": 70, "note_on_time": 8.933, "note_off_time": 9.144}, {"pitch": 62, "velocity": 72, "note_on_time": 9.521, "note_off_time": 9.996}, {"pitch": 62, "velocity": 58, "note_on_time": 10.775, "note_off_time": 10.964}, {"pitch": 62, "velocity": 74, "note_on_time": 11.322, "note_off_time": 11.492}, {"pitch": 60, "velocity": 70, "note_on_time": 11.93, "note_off_time": 12.241}, {"pitch": 62, "velocity": 79, "note_on_time": 13.276, "note_off_time": 13.49}, {"pitch": 62, "velocity": 69, "note_on_time": 13.84, "note_off_time": 14.012}, {"pitch": 62, "velocity": 62, "note_on_time": 14.426, "note_off_time": 15.105}, {"pitch": 62, "velocity": 78, "note_on_time": 15.772, "note_off_time": 15.969}, {"pitch": 62, "velocity": 73, "note_on_time": 16.344, "note_off_time": 16.502}, {"pitch": 60, "velocity": 74, "note_on_time": 16.934, "note_off_time": 17.144}, {"pitch": 60, "velocity": 79, "note_on_time": 17.528, "note_off_time": 17.711}, {"pitch": 60, "velocity": 79, "note_on_time": 18.179, "note_off_time": 18.387}, {"pitch": 60, "velocity": 57, "note_on_time": 19.282, "note_off_time": 19.557}, {"pitch": 60, "velocity": 71, "note_on_time": 19.831, "note_off_time": 20.002}, {"pitch": 60, "velocity": 79, "note_on_time": 20.406, "note_off_time": 21.079}]</notes><guidance name="Guidance Mode">None</guidance><error name="Error value">0.4106190476190471</error></trial></trials></MIDI>