<MIDI midiNo="2022_12_01-10_32_27"><target_notes><notes name="Note List">[{"pitch": 42, "velocity": 80, "note_on_time": 0.004, "note_off_time": 0.243}, {"pitch": 42, "velocity": 80, "note_on_time": 0.243, "note_off_time": 0.477}, {"pitch": 42, "velocity": 80, "note_on_time": 0.478, "note_off_time": 0.711}, {"pitch": 42, "velocity": 80, "note_on_time": 0.711, "note_off_time": 0.945}, {"pitch": 65, "velocity": 80, "note_on_time": 0.945, "note_off_time": 1.179}, {"pitch": 42, "velocity": 80, "note_on_time": 0.946, "note_off_time": 1.179}, {"pitch": 60, "velocity": 80, "note_on_time": 1.179, "note_off_time": 1.412}, {"pitch": 42, "velocity": 80, "note_on_time": 1.179, "note_off_time": 1.412}, {"pitch": 60, "velocity": 80, "note_on_time": 1.412, "note_off_time": 1.646}, {"pitch": 42, "velocity": 80, "note_on_time": 1.412, "note_off_time": 1.646}, {"pitch": 62, "velocity": 80, "note_on_time": 1.646, "note_off_time": 1.88}, {"pitch": 42, "velocity": 80, "note_on_time": 1.646, "note_off_time": 1.881}, {"pitch": 42, "velocity": 80, "note_on_time": 1.881, "note_off_time": 2.116}, {"pitch": 62, "velocity": 80, "note_on_time": 1.88, "note_off_time": 2.35}, {"pitch": 42, "velocity": 80, "note_on_time": 2.117, "note_off_time": 2.35}, {"pitch": 42, "velocity": 80, "note_on_time": 2.35, "note_off_time": 2.586}, {"pitch": 64, "velocity": 80, "note_on_time": 2.35, "note_off_time": 2.82}, {"pitch": 42, "velocity": 80, "note_on_time": 2.586, "note_off_time": 2.821}, {"pitch": 42, "velocity": 80, "note_on_time": 2.821, "note_off_time": 3.056}, {"pitch": 65, "velocity": 80, "note_on_time": 2.82, "note_off_time": 3.291}, {"pitch": 42, "velocity": 80, "note_on_time": 3.057, "note_off_time": 3.291}, {"pitch": 42, "velocity": 80, "note_on_time": 3.292, "note_off_time": 3.524}, {"pitch": 64, "velocity": 80, "note_on_time": 3.291, "note_off_time": 3.76}, {"pitch": 42, "velocity": 80, "note_on_time": 3.525, "note_off_time": 3.761}, {"pitch": 60, "velocity": 80, "note_on_time": 3.76, "note_off_time": 3.995}, {"pitch": 42, "velocity": 80, "note_on_time": 3.761, "note_off_time": 3.995}, {"pitch": 42, "velocity": 80, "note_on_time": 3.995, "note_off_time": 4.23}, {"pitch": 42, "velocity": 80, "note_on_time": 4.23, "note_off_time": 4.464}, {"pitch": 60, "velocity": 80, "note_on_time": 4.464, "note_off_time": 4.699}, {"pitch": 42, "velocity": 80, "note_on_time": 4.465, "note_off_time": 4.699}, {"pitch": 42, "velocity": 80, "note_on_time": 4.699, "note_off_time": 4.935}, {"pitch": 67, "velocity": 80, "note_on_time": 4.699, "note_off_time": 5.17}, {"pitch": 42, "velocity": 80, "note_on_time": 4.935, "note_off_time": 5.17}, {"pitch": 42, "velocity": 80, "note_on_time": 5.17, "note_off_time": 5.407}, {"pitch": 42, "velocity": 80, "note_on_time": 5.407, "note_off_time": 5.641}, {"pitch": 60, "velocity": 80, "note_on_time": 5.641, "note_off_time": 5.874}, {"pitch": 42, "velocity": 80, "note_on_time": 5.641, "note_off_time": 5.875}, {"pitch": 64, "velocity": 80, "note_on_time": 5.874, "note_off_time": 6.109}, {"pitch": 42, "velocity": 80, "note_on_time": 5.875, "note_off_time": 6.109}, {"pitch": 64, "velocity": 80, "note_on_time": 6.109, "note_off_time": 6.342}, {"pitch": 42, "velocity": 80, "note_on_time": 6.11, "note_off_time": 6.342}, {"pitch": 62, "velocity": 80, "note_on_time": 6.342, "note_off_time": 6.577}, {"pitch": 42, "velocity": 80, "note_on_time": 6.342, "note_off_time": 6.578}, {"pitch": 42, "velocity": 80, "note_on_time": 6.578, "note_off_time": 6.81}, {"pitch": 67, "velocity": 80, "note_on_time": 6.577, "note_off_time": 7.045}, {"pitch": 42, "velocity": 80, "note_on_time": 6.81, "note_off_time": 7.045}, {"pitch": 42, "velocity": 80, "note_on_time": 7.045, "note_off_time": 7.278}, {"pitch": 42, "velocity": 80, "note_on_time": 7.278, "note_off_time": 7.511}, {"pitch": 42, "velocity": 80, "note_on_time": 7.512, "note_off_time": 7.748}, {"pitch": 67, "velocity": 80, "note_on_time": 7.748, "note_off_time": 7.981}, {"pitch": 42, "velocity": 80, "note_on_time": 7.748, "note_off_time": 7.981}, {"pitch": 67, "velocity": 80, "note_on_time": 7.981, "note_off_time": 8.217}, {"pitch": 42, "velocity": 80, "note_on_time": 7.981, "note_off_time": 8.217}, {"pitch": 67, "velocity": 80, "note_on_time": 8.217, "note_off_time": 8.451}, {"pitch": 42, "velocity": 80, "note_on_time": 8.218, "note_off_time": 8.451}]</notes><options name="Option List">((4, 4), [0.5, 0.25], 3, 8, &lt;NoteRangePerHand.C_TO_G: 6&gt;, &lt;NoteRangePerHand.ONE_NOTE: 2&gt;, False, True, False, '265')</options></target_notes><trials><trial trial_no="1" timestamp="2022_12_01-10_32_17"><notes name="Played Notes">[{"pitch": 65, "velocity": 72, "note_on_time": 0.969, "note_off_time": 1.192}, {"pitch": 60, "velocity": 79, "note_on_time": 1.187, "note_off_time": 1.27}, {"pitch": 60, "velocity": 77, "note_on_time": 1.405, "note_off_time": 1.646}, {"pitch": 62, "velocity": 71, "note_on_time": 1.626, "note_off_time": 1.722}, {"pitch": 62, "velocity": 89, "note_on_time": 1.874, "note_off_time": 2.376}, {"pitch": 64, "velocity": 79, "note_on_time": 2.338, "note_off_time": 2.819}, {"pitch": 65, "velocity": 82, "note_on_time": 2.793, "note_off_time": 3.364}, {"pitch": 64, "velocity": 77, "note_on_time": 3.301, "note_off_time": 3.778}, {"pitch": 60, "velocity": 84, "note_on_time": 3.768, "note_off_time": 4.272}, {"pitch": 60, "velocity": 77, "note_on_time": 4.482, "note_off_time": 4.796}, {"pitch": 67, "velocity": 78, "note_on_time": 4.741, "note_off_time": 5.379}, {"pitch": 60, "velocity": 82, "note_on_time": 5.652, "note_off_time": 5.889}, {"pitch": 64, "velocity": 71, "note_on_time": 5.881, "note_off_time": 5.942}, {"pitch": 64, "velocity": 74, "note_on_time": 6.101, "note_off_time": 6.386}, {"pitch": 62, "velocity": 84, "note_on_time": 6.332, "note_off_time": 6.625}, {"pitch": 67, "velocity": 85, "note_on_time": 6.579, "note_off_time": 7.121}, {"pitch": 67, "velocity": 80, "note_on_time": 7.739, "note_off_time": 7.853}, {"pitch": 67, "velocity": 77, "note_on_time": 7.973, "note_off_time": 8.077}]</notes><guidance name="Guidance Mode">None</guidance><error name="Error value">0.09345531250000011</error></trial><trial trial_no="2" timestamp="2022_12_01-10_32_39"><notes name="Played Notes">[{"pitch": 65, "velocity": 67, "note_on_time": 0.95, "note_off_time": 1.201}, {"pitch": 60, "velocity": 66, "note_on_time": 1.187, "note_off_time": 1.281}, {"pitch": 60, "velocity": 74, "note_on_time": 1.406, "note_off_time": 1.657}, {"pitch": 62, "velocity": 77, "note_on_time": 1.619, "note_off_time": 1.711}, {"pitch": 62, "velocity": 72, "note_on_time": 1.873, "note_off_time": 2.386}, {"pitch": 64, "velocity": 74, "note_on_time": 2.344, "note_off_time": 2.854}, {"pitch": 65, "velocity": 85, "note_on_time": 2.824, "note_off_time": 3.341}, {"pitch": 64, "velocity": 76, "note_on_time": 3.292, "note_off_time": 3.797}, {"pitch": 60, "velocity": 74, "note_on_time": 3.763, "note_off_time": 4.255}, {"pitch": 60, "velocity": 75, "note_on_time": 4.487, "note_off_time": 4.66}, {"pitch": 67, "velocity": 77, "note_on_time": 4.734, "note_off_time": 5.079}, {"pitch": 60, "velocity": 82, "note_on_time": 5.62, "note_off_time": 5.845}, {"pitch": 64, "velocity": 67, "note_on_time": 5.84, "note_off_time": 5.91}, {"pitch": 64, "velocity": 73, "note_on_time": 6.072, "note_off_time": 6.348}, {"pitch": 62, "velocity": 74, "note_on_time": 6.306, "note_off_time": 6.595}, {"pitch": 67, "velocity": 78, "note_on_time": 6.552, "note_off_time": 6.763}, {"pitch": 67, "velocity": 77, "note_on_time": 7.683, "note_off_time": 7.792}, {"pitch": 67, "velocity": 71, "note_on_time": 7.902, "note_off_time": 8.006}, {"pitch": 67, "velocity": 68, "note_on_time": 8.13, "note_off_time": 8.259}]</notes><guidance name="Guidance Mode">None</guidance><error name="Error value">0.016995312499999915</error></trial><trial trial_no="3" timestamp="2022_12_01-10_32_56"><notes name="Played Notes">[{"pitch": 31, "velocity": 1, "note_on_time": 0.237, "note_off_time": 0.368}, {"pitch": 65, "velocity": 56, "note_on_time": 0.915, "note_off_time": 1.186}, {"pitch": 60, "velocity": 72, "note_on_time": 1.174, "note_off_time": 1.261}, {"pitch": 60, "velocity": 66, "note_on_time": 1.408, "note_off_time": 1.657}, {"pitch": 62, "velocity": 67, "note_on_time": 1.62, "note_off_time": 1.703}, {"pitch": 62, "velocity": 76, "note_on_time": 1.844, "note_off_time": 2.38}, {"pitch": 64, "velocity": 76, "note_on_time": 2.342, "note_off_time": 2.853}, {"pitch": 65, "velocity": 82, "note_on_time": 2.83, "note_off_time": 3.34}, {"pitch": 64, "velocity": 78, "note_on_time": 3.292, "note_off_time": 3.799}, {"pitch": 60, "velocity": 79, "note_on_time": 3.768, "note_off_time": 4.185}, {"pitch": 60, "velocity": 69, "note_on_time": 4.492, "note_off_time": 4.785}, {"pitch": 67, "velocity": 77, "note_on_time": 4.732, "note_off_time": 5.011}, {"pitch": 60, "velocity": 67, "note_on_time": 5.631, "note_off_time": 5.872}, {"pitch": 64, "velocity": 70, "note_on_time": 5.853, "note_off_time": 5.937}, {"pitch": 64, "velocity": 72, "note_on_time": 6.101, "note_off_time": 6.397}, {"pitch": 62, "velocity": 73, "note_on_time": 6.335, "note_off_time": 6.611}, {"pitch": 67, "velocity": 80, "note_on_time": 6.581, "note_off_time": 6.889}, {"pitch": 67, "velocity": 82, "note_on_time": 7.705, "note_off_time": 7.818}, {"pitch": 67, "velocity": 77, "note_on_time": 7.949, "note_off_time": 8.056}, {"pitch": 67, "velocity": 75, "note_on_time": 8.187, "note_off_time": 8.302}]</notes><guidance name="Guidance Mode">None</guidance><error name="Error value">0.2138184374999999</error></trial></trials></MIDI>