<MIDI midiNo="2022_08_17-11_40_09"><target_notes><notes name="Note List">[{"pitch": 42, "velocity": 80, "note_on_time": 0.004, "note_off_time": 0.673}, {"pitch": 42, "velocity": 80, "note_on_time": 0.673, "note_off_time": 1.344}, {"pitch": 42, "velocity": 80, "note_on_time": 1.344, "note_off_time": 2.017}, {"pitch": 42, "velocity": 80, "note_on_time": 2.017, "note_off_time": 2.691}, {"pitch": 62, "velocity": 80, "note_on_time": 2.69, "note_off_time": 3.362}, {"pitch": 42, "velocity": 80, "note_on_time": 2.691, "note_off_time": 3.363}, {"pitch": 42, "velocity": 80, "note_on_time": 3.363, "note_off_time": 4.032}, {"pitch": 42, "velocity": 80, "note_on_time": 4.032, "note_off_time": 4.701}, {"pitch": 42, "velocity": 80, "note_on_time": 4.702, "note_off_time": 5.371}, {"pitch": 67, "velocity": 80, "note_on_time": 5.371, "note_off_time": 6.042}, {"pitch": 42, "velocity": 80, "note_on_time": 5.371, "note_off_time": 6.042}, {"pitch": 67, "velocity": 80, "note_on_time": 6.042, "note_off_time": 6.712}, {"pitch": 42, "velocity": 80, "note_on_time": 6.043, "note_off_time": 6.713}, {"pitch": 62, "velocity": 80, "note_on_time": 6.712, "note_off_time": 7.384}, {"pitch": 42, "velocity": 80, "note_on_time": 6.713, "note_off_time": 7.384}, {"pitch": 42, "velocity": 80, "note_on_time": 7.384, "note_off_time": 8.06}, {"pitch": 67, "velocity": 80, "note_on_time": 8.06, "note_off_time": 8.73}, {"pitch": 42, "velocity": 80, "note_on_time": 8.061, "note_off_time": 8.731}, {"pitch": 65, "velocity": 80, "note_on_time": 8.73, "note_off_time": 9.398}, {"pitch": 42, "velocity": 80, "note_on_time": 8.731, "note_off_time": 9.399}, {"pitch": 60, "velocity": 80, "note_on_time": 9.398, "note_off_time": 10.073}, {"pitch": 42, "velocity": 80, "note_on_time": 9.399, "note_off_time": 10.074}, {"pitch": 42, "velocity": 80, "note_on_time": 10.074, "note_off_time": 10.747}, {"pitch": 62, "velocity": 80, "note_on_time": 10.747, "note_off_time": 11.419}, {"pitch": 42, "velocity": 80, "note_on_time": 10.748, "note_off_time": 11.419}, {"pitch": 42, "velocity": 80, "note_on_time": 11.419, "note_off_time": 12.092}, {"pitch": 60, "velocity": 80, "note_on_time": 12.092, "note_off_time": 12.763}, {"pitch": 42, "velocity": 80, "note_on_time": 12.093, "note_off_time": 12.764}, {"pitch": 42, "velocity": 80, "note_on_time": 12.764, "note_off_time": 13.436}, {"pitch": 65, "velocity": 80, "note_on_time": 13.436, "note_off_time": 14.106}, {"pitch": 42, "velocity": 80, "note_on_time": 13.437, "note_off_time": 14.106}, {"pitch": 67, "velocity": 80, "note_on_time": 14.106, "note_off_time": 14.777}, {"pitch": 42, "velocity": 80, "note_on_time": 14.106, "note_off_time": 14.778}, {"pitch": 62, "velocity": 80, "note_on_time": 14.777, "note_off_time": 15.451}, {"pitch": 42, "velocity": 80, "note_on_time": 14.778, "note_off_time": 15.451}, {"pitch": 64, "velocity": 80, "note_on_time": 15.451, "note_off_time": 16.121}, {"pitch": 42, "velocity": 80, "note_on_time": 15.451, "note_off_time": 16.121}, {"pitch": 60, "velocity": 80, "note_on_time": 16.121, "note_off_time": 16.792}, {"pitch": 42, "velocity": 80, "note_on_time": 16.121, "note_off_time": 16.792}, {"pitch": 67, "velocity": 80, "note_on_time": 16.792, "note_off_time": 17.466}, {"pitch": 42, "velocity": 80, "note_on_time": 16.793, "note_off_time": 17.466}, {"pitch": 60, "velocity": 80, "note_on_time": 17.466, "note_off_time": 18.137}, {"pitch": 42, "velocity": 80, "note_on_time": 17.466, "note_off_time": 18.138}, {"pitch": 60, "velocity": 80, "note_on_time": 18.137, "note_off_time": 18.808}, {"pitch": 42, "velocity": 80, "note_on_time": 18.138, "note_off_time": 18.809}, {"pitch": 67, "velocity": 80, "note_on_time": 18.808, "note_off_time": 19.48}, {"pitch": 42, "velocity": 80, "note_on_time": 18.809, "note_off_time": 19.48}, {"pitch": 64, "velocity": 80, "note_on_time": 19.48, "note_off_time": 20.152}, {"pitch": 42, "velocity": 80, "note_on_time": 19.481, "note_off_time": 20.152}, {"pitch": 65, "velocity": 80, "note_on_time": 20.152, "note_off_time": 20.825}, {"pitch": 42, "velocity": 80, "note_on_time": 20.152, "note_off_time": 20.825}, {"pitch": 60, "velocity": 80, "note_on_time": 20.825, "note_off_time": 21.5}, {"pitch": 42, "velocity": 80, "note_on_time": 20.826, "note_off_time": 21.5}, {"pitch": 42, "velocity": 80, "note_on_time": 21.501, "note_off_time": 22.171}, {"pitch": 60, "velocity": 80, "note_on_time": 22.171, "note_off_time": 22.846}, {"pitch": 42, "velocity": 80, "note_on_time": 22.171, "note_off_time": 22.847}, {"pitch": 60, "velocity": 80, "note_on_time": 22.846, "note_off_time": 23.519}, {"pitch": 42, "velocity": 80, "note_on_time": 22.847, "note_off_time": 23.52}, {"pitch": 60, "velocity": 80, "note_on_time": 23.519, "note_off_time": 24.201}, {"pitch": 42, "velocity": 80, "note_on_time": 23.52, "note_off_time": 24.201}]</notes><options name="Option List">((4, 4), [0.25], 3, 8, &lt;NoteRangePerHand.C_TO_G: 6&gt;, &lt;NoteRangePerHand.ONE_NOTE: 2&gt;, False, True, True, 90)</options></target_notes><trials /></MIDI>