<MIDI midiNo="20220202-152151"><target_notes><notes name="Note List">[{"pitch": 62, "velocity": 100, "note_on_time": 1.514, "note_off_time": 1.892}, {"pitch": 62, "velocity": 100, "note_on_time": 1.892, "note_off_time": 2.27}, {"pitch": 60, "velocity": 100, "note_on_time": 2.27, "note_off_time": 2.648}, {"pitch": 62, "velocity": 100, "note_on_time": 2.648, "note_off_time": 3.025}, {"pitch": 60, "velocity": 100, "note_on_time": 3.025, "note_off_time": 3.402}, {"pitch": 62, "velocity": 100, "note_on_time": 3.402, "note_off_time": 3.779}, {"pitch": 62, "velocity": 100, "note_on_time": 4.533, "note_off_time": 4.911}, {"pitch": 62, "velocity": 100, "note_on_time": 4.911, "note_off_time": 5.288}, {"pitch": 62, "velocity": 100, "note_on_time": 5.288, "note_off_time": 5.665}, {"pitch": 64, "velocity": 100, "note_on_time": 5.665, "note_off_time": 6.041}, {"pitch": 60, "velocity": 100, "note_on_time": 6.042, "note_off_time": 6.419}, {"pitch": 60, "velocity": 100, "note_on_time": 6.419, "note_off_time": 6.797}, {"pitch": 60, "velocity": 100, "note_on_time": 6.797, "note_off_time": 7.175}, {"pitch": 64, "velocity": 100, "note_on_time": 7.175, "note_off_time": 7.551}, {"pitch": 62, "velocity": 100, "note_on_time": 7.551, "note_off_time": 8.306}, {"pitch": 62, "velocity": 100, "note_on_time": 9.06, "note_off_time": 9.437}, {"pitch": 62, "velocity": 100, "note_on_time": 9.437, "note_off_time": 10.19}, {"pitch": 60, "velocity": 100, "note_on_time": 10.19, "note_off_time": 10.567}, {"pitch": 60, "velocity": 100, "note_on_time": 10.945, "note_off_time": 11.322}, {"pitch": 60, "velocity": 100, "note_on_time": 11.322, "note_off_time": 11.698}, {"pitch": 60, "velocity": 100, "note_on_time": 11.698, "note_off_time": 12.075}]</notes><options name="Option List">((4, 4), [0.5, 0.25], 3, 7, &lt;NoteRangePerHand.THREE_NOTES: 4&gt;, &lt;NoteRangePerHand.ONE_NOTE: 2&gt;, False, True, True, 161)</options></target_notes><trials><trial trial_no="1" timestamp="20220202-152137"><notes name="Played Notes">[{"pitch": 62, "velocity": 100, "note_on_time": 1.626, "note_off_time": 1.78}, {"pitch": 62, "velocity": 100, "note_on_time": 1.914, "note_off_time": 2.367}, {"pitch": 60, "velocity": 100, "note_on_time": 2.357, "note_off_time": 2.793}, {"pitch": 62, "velocity": 100, "note_on_time": 2.766, "note_off_time": 3.226}, {"pitch": 60, "velocity": 100, "note_on_time": 3.202, "note_off_time": 3.624}, {"pitch": 62, "velocity": 100, "note_on_time": 3.591, "note_off_time": 3.895}, {"pitch": 62, "velocity": 100, "note_on_time": 7.64, "note_off_time": 7.77}, {"pitch": 62, "velocity": 100, "note_on_time": 8.01, "note_off_time": 8.136}, {"pitch": 60, "velocity": 100, "note_on_time": 8.408, "note_off_time": 8.576}, {"pitch": 62, "velocity": 100, "note_on_time": 8.826, "note_off_time": 8.976}, {"pitch": 60, "velocity": 100, "note_on_time": 9.212, "note_off_time": 9.392}, {"pitch": 64, "velocity": 100, "note_on_time": 9.596, "note_off_time": 9.807}, {"pitch": 62, "velocity": 100, "note_on_time": 10.016, "note_off_time": 11.005}, {"pitch": 62, "velocity": 100, "note_on_time": 11.291, "note_off_time": 11.448}]</notes><guidance name="Guidance Mode">None</guidance><error name="Error value">20.278896666666668</error></trial><trial trial_no="2" timestamp="20220202-152208"><notes name="Played Notes">[{"pitch": 62, "velocity": 100, "note_on_time": 1.498, "note_off_time": 1.705}, {"pitch": 62, "velocity": 100, "note_on_time": 1.886, "note_off_time": 2.292}, {"pitch": 60, "velocity": 100, "note_on_time": 2.283, "note_off_time": 2.69}, {"pitch": 62, "velocity": 100, "note_on_time": 2.665, "note_off_time": 3.078}, {"pitch": 60, "velocity": 100, "note_on_time": 3.06, "note_off_time": 3.463}, {"pitch": 62, "velocity": 100, "note_on_time": 3.42, "note_off_time": 3.738}, {"pitch": 62, "velocity": 100, "note_on_time": 4.598, "note_off_time": 4.764}, {"pitch": 62, "velocity": 100, "note_on_time": 4.96, "note_off_time": 5.17}, {"pitch": 62, "velocity": 100, "note_on_time": 5.317, "note_off_time": 5.656}, {"pitch": 64, "velocity": 100, "note_on_time": 5.659, "note_off_time": 6.015}, {"pitch": 60, "velocity": 100, "note_on_time": 6.03, "note_off_time": 6.24}, {"pitch": 60, "velocity": 100, "note_on_time": 6.402, "note_off_time": 6.598}, {"pitch": 60, "velocity": 100, "note_on_time": 6.77, "note_off_time": 7.024}, {"pitch": 64, "velocity": 100, "note_on_time": 7.148, "note_off_time": 7.407}, {"pitch": 62, "velocity": 100, "note_on_time": 7.542, "note_off_time": 8.606}, {"pitch": 62, "velocity": 100, "note_on_time": 9.067, "note_off_time": 9.159}, {"pitch": 62, "velocity": 100, "note_on_time": 9.439, "note_off_time": 10.131}, {"pitch": 60, "velocity": 100, "note_on_time": 10.141, "note_off_time": 10.435}, {"pitch": 60, "velocity": 100, "note_on_time": 10.928, "note_off_time": 11.068}, {"pitch": 60, "velocity": 100, "note_on_time": 11.286, "note_off_time": 11.417}, {"pitch": 60, "velocity": 100, "note_on_time": 11.635, "note_off_time": 11.845}]</notes><guidance name="Guidance Mode">None</guidance><error name="Error value">19.381017777777778</error></trial><trial trial_no="3" timestamp="20220202-152231"><notes name="Played Notes">[{"pitch": 62, "velocity": 100, "note_on_time": 1.509, "note_off_time": 1.645}, {"pitch": 62, "velocity": 100, "note_on_time": 1.912, "note_off_time": 2.303}, {"pitch": 60, "velocity": 100, "note_on_time": 2.307, "note_off_time": 2.716}, {"pitch": 62, "velocity": 100, "note_on_time": 2.685, "note_off_time": 3.065}, {"pitch": 60, "velocity": 100, "note_on_time": 3.066, "note_off_time": 3.446}, {"pitch": 62, "velocity": 100, "note_on_time": 3.419, "note_off_time": 3.739}, {"pitch": 62, "velocity": 100, "note_on_time": 4.493, "note_off_time": 4.649}, {"pitch": 62, "velocity": 100, "note_on_time": 4.891, "note_off_time": 5.048}, {"pitch": 62, "velocity": 100, "note_on_time": 5.264, "note_off_time": 5.422}, {"pitch": 62, "velocity": 100, "note_on_time": 5.636, "note_off_time": 5.776}, {"pitch": 64, "velocity": 100, "note_on_time": 5.986, "note_off_time": 6.261}, {"pitch": 60, "velocity": 100, "note_on_time": 6.37, "note_off_time": 6.699}, {"pitch": 60, "velocity": 100, "note_on_time": 6.821, "note_off_time": 7.047}, {"pitch": 60, "velocity": 100, "note_on_time": 7.145, "note_off_time": 7.37}, {"pitch": 64, "velocity": 100, "note_on_time": 7.5, "note_off_time": 7.79}, {"pitch": 62, "velocity": 100, "note_on_time": 7.885, "note_off_time": 9.14}, {"pitch": 62, "velocity": 100, "note_on_time": 9.376, "note_off_time": 9.52}, {"pitch": 62, "velocity": 100, "note_on_time": 9.784, "note_off_time": 10.546}, {"pitch": 60, "velocity": 100, "note_on_time": 10.54, "note_off_time": 10.848}, {"pitch": 60, "velocity": 100, "note_on_time": 11.338, "note_off_time": 11.593}, {"pitch": 60, "velocity": 100, "note_on_time": 11.706, "note_off_time": 11.912}]</notes><guidance name="Guidance Mode">None</guidance><error name="Error value">20.638852222222223</error></trial><trial trial_no="4" timestamp="20220202-152253"><notes name="Played Notes">[{"pitch": 62, "velocity": 100, "note_on_time": 1.511, "note_off_time": 1.62}, {"pitch": 62, "velocity": 100, "note_on_time": 1.868, "note_off_time": 2.129}, {"pitch": 60, "velocity": 100, "note_on_time": 2.266, "note_off_time": 2.491}, {"pitch": 62, "velocity": 100, "note_on_time": 2.618, "note_off_time": 2.903}, {"pitch": 60, "velocity": 100, "note_on_time": 3.004, "note_off_time": 3.271}, {"pitch": 62, "velocity": 100, "note_on_time": 3.39, "note_off_time": 3.646}, {"pitch": 62, "velocity": 100, "note_on_time": 4.55, "note_off_time": 4.67}, {"pitch": 62, "velocity": 100, "note_on_time": 4.901, "note_off_time": 5.017}, {"pitch": 62, "velocity": 100, "note_on_time": 5.281, "note_off_time": 5.666}, {"pitch": 64, "velocity": 100, "note_on_time": 5.649, "note_off_time": 6.005}, {"pitch": 60, "velocity": 100, "note_on_time": 6.017, "note_off_time": 6.19}, {"pitch": 60, "velocity": 100, "note_on_time": 6.382, "note_off_time": 6.553}, {"pitch": 60, "velocity": 100, "note_on_time": 6.78, "note_off_time": 7.141}, {"pitch": 64, "velocity": 100, "note_on_time": 7.136, "note_off_time": 7.536}, {"pitch": 62, "velocity": 100, "note_on_time": 7.536, "note_off_time": 8.116}, {"pitch": 62, "velocity": 100, "note_on_time": 9.091, "note_off_time": 9.181}, {"pitch": 62, "velocity": 100, "note_on_time": 9.464, "note_off_time": 10.136}, {"pitch": 60, "velocity": 100, "note_on_time": 10.134, "note_off_time": 10.446}, {"pitch": 60, "velocity": 100, "note_on_time": 10.959, "note_off_time": 11.08}, {"pitch": 60, "velocity": 100, "note_on_time": 11.326, "note_off_time": 11.455}, {"pitch": 60, "velocity": 100, "note_on_time": 11.697, "note_off_time": 11.872}]</notes><guidance name="Guidance Mode">None</guidance><error name="Error value">19.569623333333332</error></trial></trials></MIDI>