<MIDI midiNo="2022_09_29-12_42_07"><target_notes><notes name="Note List">[{"pitch": 42, "velocity": 80, "note_on_time": 0.004, "note_off_time": 0.417}, {"pitch": 42, "velocity": 80, "note_on_time": 0.417, "note_off_time": 0.822}, {"pitch": 42, "velocity": 80, "note_on_time": 0.822, "note_off_time": 1.227}, {"pitch": 42, "velocity": 80, "note_on_time": 1.228, "note_off_time": 1.631}, {"pitch": 42, "velocity": 80, "note_on_time": 1.631, "note_off_time": 2.037}, {"pitch": 62, "velocity": 80, "note_on_time": 1.631, "note_off_time": 2.441}, {"pitch": 42, "velocity": 80, "note_on_time": 2.038, "note_off_time": 2.441}, {"pitch": 42, "velocity": 80, "note_on_time": 2.442, "note_off_time": 2.848}, {"pitch": 62, "velocity": 80, "note_on_time": 2.848, "note_off_time": 3.253}, {"pitch": 42, "velocity": 80, "note_on_time": 2.848, "note_off_time": 3.253}, {"pitch": 62, "velocity": 80, "note_on_time": 3.253, "note_off_time": 3.659}, {"pitch": 42, "velocity": 80, "note_on_time": 3.253, "note_off_time": 3.66}, {"pitch": 42, "velocity": 80, "note_on_time": 3.66, "note_off_time": 4.066}, {"pitch": 42, "velocity": 80, "note_on_time": 4.066, "note_off_time": 4.472}, {"pitch": 64, "velocity": 80, "note_on_time": 4.066, "note_off_time": 4.875}, {"pitch": 42, "velocity": 80, "note_on_time": 4.472, "note_off_time": 4.875}, {"pitch": 60, "velocity": 80, "note_on_time": 4.875, "note_off_time": 5.278}, {"pitch": 42, "velocity": 80, "note_on_time": 4.875, "note_off_time": 5.278}, {"pitch": 60, "velocity": 80, "note_on_time": 5.278, "note_off_time": 5.684}, {"pitch": 42, "velocity": 80, "note_on_time": 5.278, "note_off_time": 5.684}, {"pitch": 60, "velocity": 80, "note_on_time": 5.684, "note_off_time": 6.09}, {"pitch": 42, "velocity": 80, "note_on_time": 5.685, "note_off_time": 6.09}, {"pitch": 60, "velocity": 80, "note_on_time": 6.09, "note_off_time": 6.494}, {"pitch": 42, "velocity": 80, "note_on_time": 6.091, "note_off_time": 6.494}, {"pitch": 42, "velocity": 80, "note_on_time": 6.494, "note_off_time": 6.897}, {"pitch": 64, "velocity": 80, "note_on_time": 6.494, "note_off_time": 7.299}, {"pitch": 42, "velocity": 80, "note_on_time": 6.897, "note_off_time": 7.3}, {"pitch": 42, "velocity": 80, "note_on_time": 7.3, "note_off_time": 7.705}, {"pitch": 42, "velocity": 80, "note_on_time": 7.705, "note_off_time": 8.108}, {"pitch": 42, "velocity": 80, "note_on_time": 8.108, "note_off_time": 8.514}, {"pitch": 60, "velocity": 80, "note_on_time": 8.108, "note_off_time": 8.916}, {"pitch": 42, "velocity": 80, "note_on_time": 8.514, "note_off_time": 8.916}, {"pitch": 64, "velocity": 80, "note_on_time": 8.916, "note_off_time": 9.323}, {"pitch": 42, "velocity": 80, "note_on_time": 8.916, "note_off_time": 9.323}, {"pitch": 62, "velocity": 80, "note_on_time": 9.323, "note_off_time": 9.727}, {"pitch": 42, "velocity": 80, "note_on_time": 9.323, "note_off_time": 9.727}, {"pitch": 62, "velocity": 80, "note_on_time": 9.727, "note_off_time": 10.132}, {"pitch": 42, "velocity": 80, "note_on_time": 9.728, "note_off_time": 10.132}, {"pitch": 62, "velocity": 80, "note_on_time": 10.132, "note_off_time": 10.538}, {"pitch": 42, "velocity": 80, "note_on_time": 10.133, "note_off_time": 10.538}, {"pitch": 62, "velocity": 80, "note_on_time": 10.538, "note_off_time": 10.945}, {"pitch": 42, "velocity": 80, "note_on_time": 10.538, "note_off_time": 10.945}, {"pitch": 60, "velocity": 80, "note_on_time": 10.945, "note_off_time": 11.348}, {"pitch": 42, "velocity": 80, "note_on_time": 10.945, "note_off_time": 11.348}, {"pitch": 60, "velocity": 80, "note_on_time": 11.348, "note_off_time": 11.752}, {"pitch": 42, "velocity": 80, "note_on_time": 11.348, "note_off_time": 11.753}, {"pitch": 62, "velocity": 80, "note_on_time": 11.752, "note_off_time": 12.155}, {"pitch": 42, "velocity": 80, "note_on_time": 11.753, "note_off_time": 12.156}, {"pitch": 60, "velocity": 80, "note_on_time": 12.155, "note_off_time": 12.561}, {"pitch": 42, "velocity": 80, "note_on_time": 12.156, "note_off_time": 12.561}, {"pitch": 62, "velocity": 80, "note_on_time": 12.561, "note_off_time": 12.971}, {"pitch": 42, "velocity": 80, "note_on_time": 12.561, "note_off_time": 12.971}, {"pitch": 42, "velocity": 80, "note_on_time": 12.971, "note_off_time": 13.375}, {"pitch": 62, "velocity": 80, "note_on_time": 13.375, "note_off_time": 13.78}, {"pitch": 42, "velocity": 80, "note_on_time": 13.376, "note_off_time": 13.78}, {"pitch": 62, "velocity": 80, "note_on_time": 13.78, "note_off_time": 14.186}, {"pitch": 42, "velocity": 80, "note_on_time": 13.78, "note_off_time": 14.187}, {"pitch": 62, "velocity": 80, "note_on_time": 14.186, "note_off_time": 14.589}, {"pitch": 42, "velocity": 80, "note_on_time": 14.187, "note_off_time": 14.589}]</notes><options name="Option List">((4, 4), [0.5, 0.25], 3, 8, &lt;NoteRangePerHand.THREE_NOTES: 4&gt;, &lt;NoteRangePerHand.ONE_NOTE: 2&gt;, False, True, False, 150)</options></target_notes><trials><trial trial_no="1" timestamp="2022_09_29-12_41_51"><notes name="Played Notes">[{"pitch": 62, "velocity": 65, "note_on_time": 1.689, "note_off_time": 2.094}, {"pitch": 62, "velocity": 83, "note_on_time": 2.839, "note_off_time": 3.304}, {"pitch": 62, "velocity": 86, "note_on_time": 3.634, "note_off_time": 3.798}, {"pitch": 64, "velocity": 90, "note_on_time": 4.034, "note_off_time": 4.627}, {"pitch": 60, "velocity": 89, "note_on_time": 4.836, "note_off_time": 5.005}, {"pitch": 60, "velocity": 89, "note_on_time": 5.24, "note_off_time": 5.457}, {"pitch": 60, "velocity": 88, "note_on_time": 5.665, "note_off_time": 5.84}, {"pitch": 60, "velocity": 85, "note_on_time": 6.079, "note_off_time": 6.264}, {"pitch": 64, "velocity": 85, "note_on_time": 6.488, "note_off_time": 7.503}, {"pitch": 60, "velocity": 92, "note_on_time": 8.114, "note_off_time": 8.799}, {"pitch": 64, "velocity": 70, "note_on_time": 8.868, "note_off_time": 9.305}, {"pitch": 62, "velocity": 87, "note_on_time": 9.299, "note_off_time": 9.572}, {"pitch": 62, "velocity": 72, "note_on_time": 9.679, "note_off_time": 9.899}, {"pitch": 62, "velocity": 89, "note_on_time": 10.107, "note_off_time": 10.358}, {"pitch": 60, "velocity": 91, "note_on_time": 10.506, "note_off_time": 10.704}, {"pitch": 60, "velocity": 90, "note_on_time": 10.901, "note_off_time": 11.154}, {"pitch": 62, "velocity": 83, "note_on_time": 11.337, "note_off_time": 11.641}, {"pitch": 60, "velocity": 84, "note_on_time": 11.705, "note_off_time": 12.037}, {"pitch": 62, "velocity": 78, "note_on_time": 12.148, "note_off_time": 12.725}, {"pitch": 62, "velocity": 77, "note_on_time": 12.953, "note_off_time": 13.133}, {"pitch": 62, "velocity": 88, "note_on_time": 13.351, "note_off_time": 13.534}, {"pitch": 62, "velocity": 98, "note_on_time": 13.756, "note_off_time": 14.017}]</notes><guidance name="Guidance Mode">None</guidance><error name="Error value">0.12739999999999974</error></trial><trial trial_no="2" timestamp="2022_09_29-12_42_20"><notes name="Played Notes">[{"pitch": 62, "velocity": 98, "note_on_time": 1.623, "note_off_time": 2.587}, {"pitch": 62, "velocity": 98, "note_on_time": 2.845, "note_off_time": 3.037}, {"pitch": 62, "velocity": 92, "note_on_time": 3.242, "note_off_time": 3.781}, {"pitch": 64, "velocity": 89, "note_on_time": 4.088, "note_off_time": 4.764}, {"pitch": 60, "velocity": 100, "note_on_time": 4.899, "note_off_time": 5.068}, {"pitch": 60, "velocity": 93, "note_on_time": 5.252, "note_off_time": 5.444}, {"pitch": 60, "velocity": 94, "note_on_time": 5.663, "note_off_time": 5.842}, {"pitch": 60, "velocity": 87, "note_on_time": 6.104, "note_off_time": 6.316}, {"pitch": 64, "velocity": 89, "note_on_time": 6.493, "note_off_time": 7.461}, {"pitch": 60, "velocity": 100, "note_on_time": 8.148, "note_off_time": 8.907}, {"pitch": 64, "velocity": 84, "note_on_time": 8.926, "note_off_time": 9.309}, {"pitch": 62, "velocity": 82, "note_on_time": 9.314, "note_off_time": 9.54}, {"pitch": 62, "velocity": 84, "note_on_time": 9.709, "note_off_time": 9.894}, {"pitch": 62, "velocity": 90, "note_on_time": 10.118, "note_off_time": 10.362}, {"pitch": 60, "velocity": 82, "note_on_time": 10.549, "note_off_time": 10.763}, {"pitch": 60, "velocity": 91, "note_on_time": 10.952, "note_off_time": 11.19}, {"pitch": 62, "velocity": 88, "note_on_time": 11.377, "note_off_time": 11.776}, {"pitch": 60, "velocity": 90, "note_on_time": 11.778, "note_off_time": 12.154}, {"pitch": 62, "velocity": 88, "note_on_time": 12.169, "note_off_time": 13.073}, {"pitch": 62, "velocity": 100, "note_on_time": 13.324, "note_off_time": 13.515}, {"pitch": 62, "velocity": 92, "note_on_time": 13.723, "note_off_time": 13.927}, {"pitch": 62, "velocity": 94, "note_on_time": 14.132, "note_off_time": 14.4}]</notes><guidance name="Guidance Mode">None</guidance><error name="Error value">0.10584999999999985</error></trial><trial trial_no="3" timestamp="2022_09_29-12_42_46"><notes name="Played Notes">[{"pitch": 62, "velocity": 91, "note_on_time": 1.651, "note_off_time": 2.84}, {"pitch": 62, "velocity": 98, "note_on_time": 3.241, "note_off_time": 3.407}, {"pitch": 62, "velocity": 94, "note_on_time": 3.63, "note_off_time": 3.95}, {"pitch": 64, "velocity": 91, "note_on_time": 4.389, "note_off_time": 4.64}, {"pitch": 60, "velocity": 90, "note_on_time": 4.811, "note_off_time": 5.007}, {"pitch": 60, "velocity": 92, "note_on_time": 5.2, "note_off_time": 5.384}, {"pitch": 60, "velocity": 89, "note_on_time": 5.6, "note_off_time": 5.789}, {"pitch": 60, "velocity": 94, "note_on_time": 6.005, "note_off_time": 6.22}, {"pitch": 64, "velocity": 89, "note_on_time": 6.428, "note_off_time": 7.539}, {"pitch": 60, "velocity": 93, "note_on_time": 8.091, "note_off_time": 8.803}, {"pitch": 64, "velocity": 83, "note_on_time": 8.87, "note_off_time": 9.265}, {"pitch": 62, "velocity": 79, "note_on_time": 9.262, "note_off_time": 9.521}, {"pitch": 62, "velocity": 80, "note_on_time": 9.665, "note_off_time": 9.84}, {"pitch": 62, "velocity": 90, "note_on_time": 10.076, "note_off_time": 10.337}, {"pitch": 60, "velocity": 84, "note_on_time": 10.514, "note_off_time": 10.712}, {"pitch": 60, "velocity": 94, "note_on_time": 10.918, "note_off_time": 11.165}, {"pitch": 62, "velocity": 77, "note_on_time": 11.322, "note_off_time": 11.722}, {"pitch": 60, "velocity": 89, "note_on_time": 11.717, "note_off_time": 12.113}, {"pitch": 62, "velocity": 86, "note_on_time": 12.126, "note_off_time": 12.766}, {"pitch": 62, "velocity": 101, "note_on_time": 12.963, "note_off_time": 13.128}, {"pitch": 62, "velocity": 91, "note_on_time": 13.331, "note_off_time": 13.509}, {"pitch": 62, "velocity": 101, "note_on_time": 13.719, "note_off_time": 13.929}]</notes><guidance name="Guidance Mode">None</guidance><error name="Error value">0.12489999999999975</error></trial><trial trial_no="4" timestamp="2022_09_29-12_43_12"><notes name="Played Notes">[{"pitch": 62, "velocity": 90, "note_on_time": 1.634, "note_off_time": 2.579}, {"pitch": 62, "velocity": 84, "note_on_time": 2.813, "note_off_time": 3.009}, {"pitch": 62, "velocity": 92, "note_on_time": 3.187, "note_off_time": 3.719}, {"pitch": 64, "velocity": 90, "note_on_time": 4.031, "note_off_time": 4.793}, {"pitch": 60, "velocity": 96, "note_on_time": 4.82, "note_off_time": 5.035}, {"pitch": 60, "velocity": 89, "note_on_time": 5.22, "note_off_time": 5.435}, {"pitch": 60, "velocity": 96, "note_on_time": 5.626, "note_off_time": 5.834}, {"pitch": 60, "velocity": 94, "note_on_time": 6.044, "note_off_time": 6.276}, {"pitch": 64, "velocity": 85, "note_on_time": 6.464, "note_off_time": 7.351}, {"pitch": 60, "velocity": 90, "note_on_time": 8.115, "note_off_time": 8.846}, {"pitch": 64, "velocity": 75, "note_on_time": 8.906, "note_off_time": 9.293}, {"pitch": 62, "velocity": 77, "note_on_time": 9.301, "note_off_time": 9.564}, {"pitch": 62, "velocity": 77, "note_on_time": 9.704, "note_off_time": 9.934}, {"pitch": 62, "velocity": 82, "note_on_time": 10.102, "note_off_time": 10.303}, {"pitch": 62, "velocity": 79, "note_on_time": 10.499, "note_off_time": 10.815}, {"pitch": 60, "velocity": 90, "note_on_time": 10.941, "note_off_time": 11.152}, {"pitch": 60, "velocity": 98, "note_on_time": 11.34, "note_off_time": 11.63}, {"pitch": 62, "velocity": 87, "note_on_time": 11.746, "note_off_time": 12.121}, {"pitch": 60, "velocity": 84, "note_on_time": 12.143, "note_off_time": 12.529}, {"pitch": 62, "velocity": 88, "note_on_time": 12.554, "note_off_time": 12.995}, {"pitch": 62, "velocity": 90, "note_on_time": 13.353, "note_off_time": 13.535}, {"pitch": 62, "velocity": 87, "note_on_time": 13.735, "note_off_time": 13.906}, {"pitch": 62, "velocity": 94, "note_on_time": 14.118, "note_off_time": 14.386}]</notes><guidance name="Guidance Mode">None</guidance><error name="Error value">0.01590000000000017</error></trial><trial trial_no="5" timestamp="2022_09_29-12_43_37"><notes name="Played Notes">[{"pitch": 62, "velocity": 92, "note_on_time": 1.602, "note_off_time": 2.525}, {"pitch": 62, "velocity": 89, "note_on_time": 3.21, "note_off_time": 3.39}, {"pitch": 62, "velocity": 90, "note_on_time": 3.62, "note_off_time": 3.984}, {"pitch": 64, "velocity": 88, "note_on_time": 4.387, "note_off_time": 5.092}, {"pitch": 60, "velocity": 88, "note_on_time": 5.194, "note_off_time": 5.415}, {"pitch": 60, "velocity": 87, "note_on_time": 5.61, "note_off_time": 5.818}, {"pitch": 60, "velocity": 91, "note_on_time": 6.03, "note_off_time": 6.205}, {"pitch": 60, "velocity": 84, "note_on_time": 6.445, "note_off_time": 6.633}, {"pitch": 64, "velocity": 86, "note_on_time": 6.835, "note_off_time": 7.791}, {"pitch": 60, "velocity": 85, "note_on_time": 8.111, "note_off_time": 8.784}, {"pitch": 64, "velocity": 84, "note_on_time": 8.852, "note_off_time": 9.286}, {"pitch": 62, "velocity": 88, "note_on_time": 9.284, "note_off_time": 9.5}, {"pitch": 62, "velocity": 83, "note_on_time": 9.67, "note_off_time": 9.855}, {"pitch": 62, "velocity": 90, "note_on_time": 10.076, "note_off_time": 10.324}, {"pitch": 60, "velocity": 95, "note_on_time": 10.476, "note_off_time": 10.69}, {"pitch": 60, "velocity": 94, "note_on_time": 10.883, "note_off_time": 11.126}, {"pitch": 62, "velocity": 82, "note_on_time": 11.297, "note_off_time": 11.673}, {"pitch": 60, "velocity": 89, "note_on_time": 11.686, "note_off_time": 12.074}, {"pitch": 62, "velocity": 79, "note_on_time": 12.098, "note_off_time": 12.634}, {"pitch": 62, "velocity": 90, "note_on_time": 12.91, "note_off_time": 13.088}, {"pitch": 62, "velocity": 86, "note_on_time": 13.281, "note_off_time": 13.459}, {"pitch": 62, "velocity": 95, "note_on_time": 13.684, "note_off_time": 13.964}]</notes><guidance name="Guidance Mode">None</guidance><error name="Error value">0.12050000000000002</error></trial><trial trial_no="6" timestamp="2022_09_29-12_44_09"><notes name="Played Notes">[{"pitch": 62, "velocity": 98, "note_on_time": 1.599, "note_off_time": 2.486}, {"pitch": 62, "velocity": 96, "note_on_time": 2.793, "note_off_time": 2.973}, {"pitch": 62, "velocity": 93, "note_on_time": 3.184, "note_off_time": 3.567}, {"pitch": 64, "velocity": 88, "note_on_time": 4.011, "note_off_time": 4.815}, {"pitch": 60, "velocity": 92, "note_on_time": 4.85, "note_off_time": 5.036}, {"pitch": 60, "velocity": 89, "note_on_time": 5.231, "note_off_time": 5.441}, {"pitch": 60, "velocity": 80, "note_on_time": 5.622, "note_off_time": 5.813}, {"pitch": 60, "velocity": 89, "note_on_time": 6.028, "note_off_time": 6.244}, {"pitch": 64, "velocity": 88, "note_on_time": 6.442, "note_off_time": 7.612}, {"pitch": 60, "velocity": 93, "note_on_time": 8.069, "note_off_time": 8.804}, {"pitch": 64, "velocity": 83, "note_on_time": 8.863, "note_off_time": 9.241}, {"pitch": 62, "velocity": 82, "note_on_time": 9.249, "note_off_time": 9.534}, {"pitch": 62, "velocity": 80, "note_on_time": 9.671, "note_off_time": 9.828}, {"pitch": 62, "velocity": 82, "note_on_time": 10.043, "note_off_time": 10.252}, {"pitch": 62, "velocity": 80, "note_on_time": 10.478, "note_off_time": 10.731}, {"pitch": 60, "velocity": 94, "note_on_time": 10.892, "note_off_time": 11.092}, {"pitch": 60, "velocity": 93, "note_on_time": 11.303, "note_off_time": 11.584}, {"pitch": 62, "velocity": 86, "note_on_time": 11.719, "note_off_time": 12.021}, {"pitch": 60, "velocity": 90, "note_on_time": 12.108, "note_off_time": 12.506}, {"pitch": 62, "velocity": 93, "note_on_time": 12.524, "note_off_time": 13.0}, {"pitch": 62, "velocity": 90, "note_on_time": 13.323, "note_off_time": 13.496}, {"pitch": 62, "velocity": 93, "note_on_time": 13.715, "note_off_time": 13.898}, {"pitch": 62, "velocity": 100, "note_on_time": 14.117, "note_off_time": 14.341}]</notes><guidance name="Guidance Mode">None</guidance><error name="Error value">0.016999999999999838</error></trial></trials></MIDI>