<MIDI midiNo="2022_11_21-19_33_47"><target_notes><notes name="Note List">[{"pitch": 42, "velocity": 80, "note_on_time": 0.004, "note_off_time": 0.415}, {"pitch": 42, "velocity": 80, "note_on_time": 0.415, "note_off_time": 0.819}, {"pitch": 42, "velocity": 80, "note_on_time": 0.82, "note_off_time": 1.222}, {"pitch": 42, "velocity": 80, "note_on_time": 1.222, "note_off_time": 1.627}, {"pitch": 62, "velocity": 80, "note_on_time": 1.627, "note_off_time": 2.033}, {"pitch": 42, "velocity": 80, "note_on_time": 1.627, "note_off_time": 2.033}, {"pitch": 62, "velocity": 80, "note_on_time": 2.033, "note_off_time": 2.438}, {"pitch": 42, "velocity": 80, "note_on_time": 2.033, "note_off_time": 2.439}, {"pitch": 60, "velocity": 80, "note_on_time": 2.438, "note_off_time": 2.845}, {"pitch": 42, "velocity": 80, "note_on_time": 2.439, "note_off_time": 2.846}, {"pitch": 62, "velocity": 80, "note_on_time": 2.845, "note_off_time": 3.249}, {"pitch": 42, "velocity": 80, "note_on_time": 2.846, "note_off_time": 3.25}, {"pitch": 62, "velocity": 80, "note_on_time": 3.249, "note_off_time": 3.654}, {"pitch": 42, "velocity": 80, "note_on_time": 3.25, "note_off_time": 3.655}, {"pitch": 62, "velocity": 80, "note_on_time": 3.654, "note_off_time": 4.06}, {"pitch": 42, "velocity": 80, "note_on_time": 3.655, "note_off_time": 4.06}, {"pitch": 60, "velocity": 80, "note_on_time": 4.06, "note_off_time": 4.464}, {"pitch": 42, "velocity": 80, "note_on_time": 4.06, "note_off_time": 4.465}, {"pitch": 62, "velocity": 80, "note_on_time": 4.464, "note_off_time": 4.868}, {"pitch": 42, "velocity": 80, "note_on_time": 4.465, "note_off_time": 4.869}, {"pitch": 64, "velocity": 80, "note_on_time": 4.868, "note_off_time": 5.273}, {"pitch": 42, "velocity": 80, "note_on_time": 4.869, "note_off_time": 5.274}, {"pitch": 42, "velocity": 80, "note_on_time": 5.275, "note_off_time": 5.678}, {"pitch": 60, "velocity": 80, "note_on_time": 5.273, "note_off_time": 6.084}, {"pitch": 42, "velocity": 80, "note_on_time": 5.678, "note_off_time": 6.084}, {"pitch": 42, "velocity": 80, "note_on_time": 6.084, "note_off_time": 6.489}, {"pitch": 60, "velocity": 80, "note_on_time": 6.489, "note_off_time": 6.892}, {"pitch": 42, "velocity": 80, "note_on_time": 6.49, "note_off_time": 6.893}, {"pitch": 64, "velocity": 80, "note_on_time": 6.892, "note_off_time": 7.297}, {"pitch": 42, "velocity": 80, "note_on_time": 6.893, "note_off_time": 7.297}, {"pitch": 62, "velocity": 80, "note_on_time": 7.297, "note_off_time": 7.702}, {"pitch": 42, "velocity": 80, "note_on_time": 7.297, "note_off_time": 7.703}, {"pitch": 64, "velocity": 80, "note_on_time": 7.702, "note_off_time": 8.108}, {"pitch": 42, "velocity": 80, "note_on_time": 7.703, "note_off_time": 8.108}, {"pitch": 62, "velocity": 80, "note_on_time": 8.108, "note_off_time": 8.512}, {"pitch": 42, "velocity": 80, "note_on_time": 8.108, "note_off_time": 8.513}, {"pitch": 62, "velocity": 80, "note_on_time": 8.512, "note_off_time": 8.915}, {"pitch": 42, "velocity": 80, "note_on_time": 8.513, "note_off_time": 8.916}, {"pitch": 62, "velocity": 80, "note_on_time": 8.915, "note_off_time": 9.322}, {"pitch": 42, "velocity": 80, "note_on_time": 8.916, "note_off_time": 9.322}, {"pitch": 60, "velocity": 80, "note_on_time": 9.322, "note_off_time": 9.727}, {"pitch": 42, "velocity": 80, "note_on_time": 9.322, "note_off_time": 9.727}, {"pitch": 64, "velocity": 80, "note_on_time": 9.727, "note_off_time": 10.133}, {"pitch": 42, "velocity": 80, "note_on_time": 9.727, "note_off_time": 10.133}, {"pitch": 64, "velocity": 80, "note_on_time": 10.133, "note_off_time": 10.535}, {"pitch": 42, "velocity": 80, "note_on_time": 10.133, "note_off_time": 10.535}, {"pitch": 62, "velocity": 80, "note_on_time": 10.535, "note_off_time": 10.943}, {"pitch": 42, "velocity": 80, "note_on_time": 10.535, "note_off_time": 10.943}, {"pitch": 64, "velocity": 80, "note_on_time": 10.943, "note_off_time": 11.348}, {"pitch": 42, "velocity": 80, "note_on_time": 10.943, "note_off_time": 11.348}, {"pitch": 60, "velocity": 80, "note_on_time": 11.348, "note_off_time": 11.75}, {"pitch": 42, "velocity": 80, "note_on_time": 11.348, "note_off_time": 11.75}, {"pitch": 60, "velocity": 80, "note_on_time": 11.75, "note_off_time": 12.154}, {"pitch": 42, "velocity": 80, "note_on_time": 11.751, "note_off_time": 12.154}, {"pitch": 60, "velocity": 80, "note_on_time": 12.154, "note_off_time": 12.555}, {"pitch": 42, "velocity": 80, "note_on_time": 12.154, "note_off_time": 12.555}, {"pitch": 62, "velocity": 80, "note_on_time": 12.555, "note_off_time": 12.962}, {"pitch": 42, "velocity": 80, "note_on_time": 12.556, "note_off_time": 12.963}, {"pitch": 42, "velocity": 80, "note_on_time": 12.963, "note_off_time": 13.364}, {"pitch": 62, "velocity": 80, "note_on_time": 13.364, "note_off_time": 13.77}, {"pitch": 42, "velocity": 80, "note_on_time": 13.365, "note_off_time": 13.77}, {"pitch": 62, "velocity": 80, "note_on_time": 13.77, "note_off_time": 14.174}, {"pitch": 42, "velocity": 80, "note_on_time": 13.77, "note_off_time": 14.174}, {"pitch": 62, "velocity": 80, "note_on_time": 14.174, "note_off_time": 14.578}, {"pitch": 42, "velocity": 80, "note_on_time": 14.174, "note_off_time": 14.578}]</notes><options name="Option List">((4, 4), [0.5, 0.25], 3, 8, &lt;NoteRangePerHand.THREE_NOTES: 4&gt;, &lt;NoteRangePerHand.ONE_NOTE: 2&gt;, False, True, False, 150)</options></target_notes><trials><trial trial_no="1" timestamp="2022_11_21-19_33_31"><notes name="Played Notes">[{"pitch": 62, "velocity": 59, "note_on_time": 1.617, "note_off_time": 1.828}, {"pitch": 62, "velocity": 78, "note_on_time": 2.007, "note_off_time": 2.436}, {"pitch": 60, "velocity": 74, "note_on_time": 2.412, "note_off_time": 2.826}, {"pitch": 62, "velocity": 72, "note_on_time": 2.795, "note_off_time": 2.98}, {"pitch": 62, "velocity": 70, "note_on_time": 3.209, "note_off_time": 3.403}, {"pitch": 62, "velocity": 56, "note_on_time": 3.678, "note_off_time": 3.869}, {"pitch": 60, "velocity": 77, "note_on_time": 4.062, "note_off_time": 4.371}, {"pitch": 62, "velocity": 73, "note_on_time": 4.497, "note_off_time": 4.761}, {"pitch": 64, "velocity": 60, "note_on_time": 4.913, "note_off_time": 5.274}, {"pitch": 60, "velocity": 72, "note_on_time": 5.316, "note_off_time": 5.926}, {"pitch": 60, "velocity": 66, "note_on_time": 6.594, "note_off_time": 6.997}, {"pitch": 64, "velocity": 61, "note_on_time": 6.995, "note_off_time": 7.318}, {"pitch": 62, "velocity": 45, "note_on_time": 7.329, "note_off_time": 7.769}, {"pitch": 64, "velocity": 66, "note_on_time": 7.762, "note_off_time": 8.247}, {"pitch": 62, "velocity": 57, "note_on_time": 8.166, "note_off_time": 8.359}, {"pitch": 62, "velocity": 63, "note_on_time": 8.581, "note_off_time": 8.738}, {"pitch": 62, "velocity": 70, "note_on_time": 8.973, "note_off_time": 9.322}, {"pitch": 60, "velocity": 77, "note_on_time": 9.394, "note_off_time": 9.553}, {"pitch": 64, "velocity": 64, "note_on_time": 9.784, "note_off_time": 9.944}, {"pitch": 64, "velocity": 62, "note_on_time": 10.17, "note_off_time": 10.626}, {"pitch": 62, "velocity": 70, "note_on_time": 10.588, "note_off_time": 10.991}, {"pitch": 64, "velocity": 57, "note_on_time": 11.015, "note_off_time": 11.415}, {"pitch": 60, "velocity": 71, "note_on_time": 11.389, "note_off_time": 11.531}, {"pitch": 60, "velocity": 68, "note_on_time": 11.802, "note_off_time": 11.963}, {"pitch": 60, "velocity": 74, "note_on_time": 12.198, "note_off_time": 12.409}, {"pitch": 62, "velocity": 71, "note_on_time": 12.591, "note_off_time": 12.766}, {"pitch": 62, "velocity": 78, "note_on_time": 13.338, "note_off_time": 13.52}, {"pitch": 62, "velocity": 75, "note_on_time": 13.732, "note_off_time": 13.892}, {"pitch": 62, "velocity": 83, "note_on_time": 14.14, "note_off_time": 14.314}]</notes><guidance name="Guidance Mode">None</guidance><error name="Error value">0.022961538461538485</error></trial></trials></MIDI>