<MIDI midiNo="2022_11_03-13_35_19"><target_notes><notes name="Note List">[{"pitch": 42, "velocity": 80, "note_on_time": 0.004, "note_off_time": 0.261}, {"pitch": 42, "velocity": 80, "note_on_time": 0.261, "note_off_time": 0.508}, {"pitch": 42, "velocity": 80, "note_on_time": 0.508, "note_off_time": 0.759}, {"pitch": 42, "velocity": 80, "note_on_time": 0.759, "note_off_time": 1.008}, {"pitch": 42, "velocity": 80, "note_on_time": 1.008, "note_off_time": 1.255}, {"pitch": 60, "velocity": 80, "note_on_time": 1.008, "note_off_time": 1.505}, {"pitch": 42, "velocity": 80, "note_on_time": 1.255, "note_off_time": 1.505}, {"pitch": 42, "velocity": 80, "note_on_time": 1.506, "note_off_time": 1.754}, {"pitch": 62, "velocity": 80, "note_on_time": 1.505, "note_off_time": 2.003}, {"pitch": 42, "velocity": 80, "note_on_time": 1.754, "note_off_time": 2.004}, {"pitch": 64, "velocity": 80, "note_on_time": 2.003, "note_off_time": 2.253}, {"pitch": 42, "velocity": 80, "note_on_time": 2.004, "note_off_time": 2.254}, {"pitch": 42, "velocity": 80, "note_on_time": 2.254, "note_off_time": 2.502}, {"pitch": 60, "velocity": 80, "note_on_time": 2.502, "note_off_time": 2.75}, {"pitch": 42, "velocity": 80, "note_on_time": 2.502, "note_off_time": 2.751}, {"pitch": 62, "velocity": 80, "note_on_time": 2.75, "note_off_time": 3.001}, {"pitch": 42, "velocity": 80, "note_on_time": 2.751, "note_off_time": 3.001}, {"pitch": 62, "velocity": 80, "note_on_time": 3.001, "note_off_time": 3.249}, {"pitch": 42, "velocity": 80, "note_on_time": 3.001, "note_off_time": 3.25}, {"pitch": 60, "velocity": 80, "note_on_time": 3.249, "note_off_time": 3.498}, {"pitch": 42, "velocity": 80, "note_on_time": 3.25, "note_off_time": 3.498}, {"pitch": 60, "velocity": 80, "note_on_time": 3.498, "note_off_time": 3.745}, {"pitch": 42, "velocity": 80, "note_on_time": 3.498, "note_off_time": 3.745}, {"pitch": 60, "velocity": 80, "note_on_time": 3.745, "note_off_time": 3.994}, {"pitch": 42, "velocity": 80, "note_on_time": 3.745, "note_off_time": 3.995}, {"pitch": 64, "velocity": 80, "note_on_time": 3.994, "note_off_time": 4.244}, {"pitch": 42, "velocity": 80, "note_on_time": 3.995, "note_off_time": 4.245}, {"pitch": 64, "velocity": 80, "note_on_time": 4.244, "note_off_time": 4.49}, {"pitch": 42, "velocity": 80, "note_on_time": 4.245, "note_off_time": 4.491}, {"pitch": 62, "velocity": 80, "note_on_time": 4.49, "note_off_time": 4.739}, {"pitch": 42, "velocity": 80, "note_on_time": 4.491, "note_off_time": 4.739}, {"pitch": 60, "velocity": 80, "note_on_time": 4.739, "note_off_time": 4.988}, {"pitch": 42, "velocity": 80, "note_on_time": 4.739, "note_off_time": 4.988}, {"pitch": 60, "velocity": 80, "note_on_time": 4.988, "note_off_time": 5.239}, {"pitch": 42, "velocity": 80, "note_on_time": 4.988, "note_off_time": 5.239}, {"pitch": 60, "velocity": 80, "note_on_time": 5.239, "note_off_time": 5.485}, {"pitch": 42, "velocity": 80, "note_on_time": 5.239, "note_off_time": 5.486}, {"pitch": 64, "velocity": 80, "note_on_time": 5.485, "note_off_time": 5.734}, {"pitch": 42, "velocity": 80, "note_on_time": 5.486, "note_off_time": 5.735}, {"pitch": 64, "velocity": 80, "note_on_time": 5.734, "note_off_time": 5.984}, {"pitch": 42, "velocity": 80, "note_on_time": 5.735, "note_off_time": 5.986}, {"pitch": 60, "velocity": 80, "note_on_time": 5.986, "note_off_time": 6.233}, {"pitch": 42, "velocity": 80, "note_on_time": 5.987, "note_off_time": 6.233}, {"pitch": 64, "velocity": 80, "note_on_time": 6.233, "note_off_time": 6.482}, {"pitch": 42, "velocity": 80, "note_on_time": 6.233, "note_off_time": 6.482}, {"pitch": 64, "velocity": 80, "note_on_time": 6.482, "note_off_time": 6.732}, {"pitch": 42, "velocity": 80, "note_on_time": 6.483, "note_off_time": 6.732}, {"pitch": 64, "velocity": 80, "note_on_time": 6.732, "note_off_time": 6.983}, {"pitch": 42, "velocity": 80, "note_on_time": 6.733, "note_off_time": 6.983}, {"pitch": 62, "velocity": 80, "note_on_time": 6.983, "note_off_time": 7.231}, {"pitch": 42, "velocity": 80, "note_on_time": 6.983, "note_off_time": 7.231}, {"pitch": 42, "velocity": 80, "note_on_time": 7.232, "note_off_time": 7.479}, {"pitch": 42, "velocity": 80, "note_on_time": 7.48, "note_off_time": 7.727}, {"pitch": 42, "velocity": 80, "note_on_time": 7.727, "note_off_time": 7.976}, {"pitch": 42, "velocity": 80, "note_on_time": 7.977, "note_off_time": 8.227}, {"pitch": 62, "velocity": 80, "note_on_time": 8.227, "note_off_time": 8.475}, {"pitch": 42, "velocity": 80, "note_on_time": 8.227, "note_off_time": 8.475}, {"pitch": 62, "velocity": 80, "note_on_time": 8.475, "note_off_time": 8.724}, {"pitch": 42, "velocity": 80, "note_on_time": 8.475, "note_off_time": 8.724}, {"pitch": 62, "velocity": 80, "note_on_time": 8.724, "note_off_time": 8.973}, {"pitch": 42, "velocity": 80, "note_on_time": 8.725, "note_off_time": 8.973}]</notes><options name="Option List">((4, 4), [0.5, 0.25], 3, 8, &lt;NoteRangePerHand.THREE_NOTES: 4&gt;, &lt;NoteRangePerHand.ONE_NOTE: 2&gt;, False, True, False, '248')</options></target_notes><trials><trial trial_no="1" timestamp="2022_11_03-13_35_08"><notes name="Played Notes">[{"pitch": 60, "velocity": 77, "note_on_time": 1.081, "note_off_time": 1.505}, {"pitch": 62, "velocity": 65, "note_on_time": 1.6, "note_off_time": 1.918}, {"pitch": 64, "velocity": 61, "note_on_time": 2.093, "note_off_time": 2.278}, {"pitch": 60, "velocity": 66, "note_on_time": 2.575, "note_off_time": 2.711}, {"pitch": 62, "velocity": 53, "note_on_time": 2.839, "note_off_time": 2.977}, {"pitch": 62, "velocity": 56, "note_on_time": 3.127, "note_off_time": 3.253}, {"pitch": 60, "velocity": 68, "note_on_time": 3.38, "note_off_time": 3.496}, {"pitch": 60, "velocity": 50, "note_on_time": 3.613, "note_off_time": 3.776}, {"pitch": 60, "velocity": 49, "note_on_time": 3.864, "note_off_time": 4.01}, {"pitch": 64, "velocity": 52, "note_on_time": 4.142, "note_off_time": 4.299}, {"pitch": 64, "velocity": 51, "note_on_time": 4.418, "note_off_time": 4.571}, {"pitch": 62, "velocity": 62, "note_on_time": 4.702, "note_off_time": 4.872}, {"pitch": 60, "velocity": 45, "note_on_time": 5.004, "note_off_time": 5.128}, {"pitch": 60, "velocity": 62, "note_on_time": 5.269, "note_off_time": 5.404}, {"pitch": 60, "velocity": 47, "note_on_time": 5.503, "note_off_time": 5.641}, {"pitch": 62, "velocity": 57, "note_on_time": 5.785, "note_off_time": 5.863}, {"pitch": 62, "velocity": 1, "note_on_time": 5.946, "note_off_time": 6.223}, {"pitch": 60, "velocity": 70, "note_on_time": 6.353, "note_off_time": 6.697}, {"pitch": 64, "velocity": 16, "note_on_time": 6.904, "note_off_time": 7.078}, {"pitch": 64, "velocity": 60, "note_on_time": 7.175, "note_off_time": 7.352}, {"pitch": 64, "velocity": 11, "note_on_time": 7.411, "note_off_time": 7.602}, {"pitch": 60, "velocity": 16, "note_on_time": 7.733, "note_off_time": 7.994}, {"pitch": 62, "velocity": 48, "note_on_time": 8.771, "note_off_time": 8.913}]</notes><guidance name="Guidance Mode">None</guidance><error name="Error value">0.4016027272727273</error></trial><trial trial_no="2" timestamp="2022_11_03-13_35_33"><notes name="Played Notes">[{"pitch": 60, "velocity": 63, "note_on_time": 1.02, "note_off_time": 1.421}, {"pitch": 62, "velocity": 63, "note_on_time": 1.519, "note_off_time": 1.744}, {"pitch": 64, "velocity": 70, "note_on_time": 1.976, "note_off_time": 2.148}, {"pitch": 60, "velocity": 54, "note_on_time": 2.469, "note_off_time": 2.626}, {"pitch": 62, "velocity": 43, "note_on_time": 2.751, "note_off_time": 2.88}, {"pitch": 62, "velocity": 51, "note_on_time": 2.995, "note_off_time": 3.118}, {"pitch": 60, "velocity": 64, "note_on_time": 3.255, "note_off_time": 3.386}, {"pitch": 60, "velocity": 47, "note_on_time": 3.486, "note_off_time": 3.657}, {"pitch": 60, "velocity": 46, "note_on_time": 3.738, "note_off_time": 3.88}, {"pitch": 62, "velocity": 66, "note_on_time": 4.014, "note_off_time": 4.155}, {"pitch": 64, "velocity": 61, "note_on_time": 4.243, "note_off_time": 4.385}, {"pitch": 62, "velocity": 75, "note_on_time": 4.524, "note_off_time": 4.655}, {"pitch": 62, "velocity": 21, "note_on_time": 4.781, "note_off_time": 4.823}, {"pitch": 60, "velocity": 54, "note_on_time": 4.872, "note_off_time": 5.227}, {"pitch": 60, "velocity": 33, "note_on_time": 5.357, "note_off_time": 5.493}, {"pitch": 64, "velocity": 58, "note_on_time": 5.568, "note_off_time": 5.72}, {"pitch": 64, "velocity": 49, "note_on_time": 5.842, "note_off_time": 5.968}, {"pitch": 60, "velocity": 74, "note_on_time": 6.142, "note_off_time": 6.271}, {"pitch": 60, "velocity": 81, "note_on_time": 6.431, "note_off_time": 6.502}, {"pitch": 62, "velocity": 73, "note_on_time": 6.497, "note_off_time": 6.635}, {"pitch": 64, "velocity": 71, "note_on_time": 6.755, "note_off_time": 6.881}, {"pitch": 64, "velocity": 56, "note_on_time": 6.986, "note_off_time": 7.127}, {"pitch": 64, "velocity": 20, "note_on_time": 7.3, "note_off_time": 7.394}, {"pitch": 60, "velocity": 59, "note_on_time": 7.521, "note_off_time": 7.701}, {"pitch": 62, "velocity": 15, "note_on_time": 8.504, "note_off_time": 8.627}, {"pitch": 62, "velocity": 54, "note_on_time": 8.741, "note_off_time": 8.877}]</notes><guidance name="Guidance Mode">None</guidance><error name="Error value">0.5221452272727276</error></trial><trial trial_no="3" timestamp="2022_11_03-13_35_53"><notes name="Played Notes">[{"pitch": 60, "velocity": 77, "note_on_time": 0.991, "note_off_time": 1.397}, {"pitch": 62, "velocity": 72, "note_on_time": 1.501, "note_off_time": 1.737}, {"pitch": 64, "velocity": 62, "note_on_time": 1.985, "note_off_time": 2.143}, {"pitch": 60, "velocity": 56, "note_on_time": 2.362, "note_off_time": 2.508}, {"pitch": 62, "velocity": 73, "note_on_time": 2.854, "note_off_time": 2.983}, {"pitch": 60, "velocity": 89, "note_on_time": 3.141, "note_off_time": 3.272}, {"pitch": 60, "velocity": 41, "note_on_time": 3.364, "note_off_time": 3.528}, {"pitch": 60, "velocity": 59, "note_on_time": 3.634, "note_off_time": 3.772}, {"pitch": 64, "velocity": 59, "note_on_time": 3.9, "note_off_time": 4.089}, {"pitch": 64, "velocity": 53, "note_on_time": 4.19, "note_off_time": 4.347}, {"pitch": 62, "velocity": 48, "note_on_time": 4.456, "note_off_time": 4.609}, {"pitch": 60, "velocity": 78, "note_on_time": 4.773, "note_off_time": 4.891}, {"pitch": 60, "velocity": 58, "note_on_time": 5.0, "note_off_time": 5.18}, {"pitch": 64, "velocity": 61, "note_on_time": 5.332, "note_off_time": 5.472}, {"pitch": 64, "velocity": 52, "note_on_time": 5.579, "note_off_time": 5.75}, {"pitch": 62, "velocity": 75, "note_on_time": 5.848, "note_off_time": 5.978}, {"pitch": 60, "velocity": 59, "note_on_time": 6.061, "note_off_time": 6.143}, {"pitch": 64, "velocity": 37, "note_on_time": 6.272, "note_off_time": 6.689}, {"pitch": 64, "velocity": 25, "note_on_time": 6.785, "note_off_time": 6.95}, {"pitch": 60, "velocity": 51, "note_on_time": 7.051, "note_off_time": 7.268}, {"pitch": 62, "velocity": 58, "note_on_time": 8.227, "note_off_time": 8.353}, {"pitch": 62, "velocity": 49, "note_on_time": 8.471, "note_off_time": 8.607}, {"pitch": 62, "velocity": 54, "note_on_time": 8.715, "note_off_time": 8.878}]</notes><guidance name="Guidance Mode">None</guidance><error name="Error value">0.287963409090909</error></trial><trial trial_no="4" timestamp="2022_11_03-13_36_13"><notes name="Played Notes">[{"pitch": 60, "velocity": 62, "note_on_time": 1.034, "note_off_time": 1.452}, {"pitch": 62, "velocity": 60, "note_on_time": 1.556, "note_off_time": 1.746}, {"pitch": 64, "velocity": 53, "note_on_time": 2.037, "note_off_time": 2.165}, {"pitch": 60, "velocity": 62, "note_on_time": 2.563, "note_off_time": 2.703}, {"pitch": 62, "velocity": 57, "note_on_time": 2.799, "note_off_time": 2.918}, {"pitch": 64, "velocity": 1, "note_on_time": 3.238, "note_off_time": 3.436}, {"pitch": 62, "velocity": 70, "note_on_time": 3.425, "note_off_time": 3.567}, {"pitch": 60, "velocity": 60, "note_on_time": 3.763, "note_off_time": 3.865}, {"pitch": 60, "velocity": 30, "note_on_time": 3.999, "note_off_time": 4.072}, {"pitch": 64, "velocity": 46, "note_on_time": 4.254, "note_off_time": 4.42}, {"pitch": 64, "velocity": 71, "note_on_time": 4.508, "note_off_time": 4.657}, {"pitch": 62, "velocity": 51, "note_on_time": 4.761, "note_off_time": 4.89}, {"pitch": 60, "velocity": 55, "note_on_time": 5.016, "note_off_time": 5.139}, {"pitch": 60, "velocity": 61, "note_on_time": 5.27, "note_off_time": 5.397}, {"pitch": 60, "velocity": 52, "note_on_time": 5.517, "note_off_time": 5.637}, {"pitch": 64, "velocity": 66, "note_on_time": 5.751, "note_off_time": 5.91}, {"pitch": 64, "velocity": 59, "note_on_time": 6.001, "note_off_time": 6.143}, {"pitch": 60, "velocity": 81, "note_on_time": 6.357, "note_off_time": 6.477}, {"pitch": 60, "velocity": 59, "note_on_time": 6.578, "note_off_time": 6.71}, {"pitch": 64, "velocity": 33, "note_on_time": 6.823, "note_off_time": 6.943}, {"pitch": 62, "velocity": 56, "note_on_time": 6.932, "note_off_time": 7.066}, {"pitch": 62, "velocity": 58, "note_on_time": 8.249, "note_off_time": 8.363}, {"pitch": 62, "velocity": 39, "note_on_time": 8.505, "note_off_time": 8.625}, {"pitch": 62, "velocity": 55, "note_on_time": 8.742, "note_off_time": 8.924}]</notes><guidance name="Guidance Mode">None</guidance><error name="Error value">0.23380818181818191</error></trial><trial trial_no="5" timestamp="2022_11_03-13_36_35"><notes name="Played Notes">[{"pitch": 60, "velocity": 71, "note_on_time": 0.991, "note_off_time": 1.545}, {"pitch": 62, "velocity": 79, "note_on_time": 1.538, "note_off_time": 1.802}, {"pitch": 64, "velocity": 74, "note_on_time": 2.059, "note_off_time": 2.209}, {"pitch": 60, "velocity": 72, "note_on_time": 2.555, "note_off_time": 2.69}, {"pitch": 62, "velocity": 69, "note_on_time": 2.785, "note_off_time": 2.907}, {"pitch": 64, "velocity": 52, "note_on_time": 3.055, "note_off_time": 3.251}, {"pitch": 62, "velocity": 51, "note_on_time": 3.317, "note_off_time": 3.431}, {"pitch": 62, "velocity": 39, "note_on_time": 3.548, "note_off_time": 3.652}, {"pitch": 60, "velocity": 46, "note_on_time": 3.794, "note_off_time": 3.896}, {"pitch": 64, "velocity": 49, "note_on_time": 4.177, "note_off_time": 4.355}, {"pitch": 64, "velocity": 84, "note_on_time": 4.432, "note_off_time": 4.551}, {"pitch": 62, "velocity": 55, "note_on_time": 4.622, "note_off_time": 4.742}, {"pitch": 60, "velocity": 58, "note_on_time": 4.903, "note_off_time": 5.003}, {"pitch": 60, "velocity": 51, "note_on_time": 5.149, "note_off_time": 5.284}, {"pitch": 60, "velocity": 33, "note_on_time": 5.439, "note_off_time": 5.555}, {"pitch": 64, "velocity": 38, "note_on_time": 5.697, "note_off_time": 5.897}, {"pitch": 64, "velocity": 50, "note_on_time": 5.972, "note_off_time": 6.121}, {"pitch": 60, "velocity": 65, "note_on_time": 6.279, "note_off_time": 6.416}, {"pitch": 62, "velocity": 85, "note_on_time": 6.599, "note_off_time": 6.721}, {"pitch": 62, "velocity": 73, "note_on_time": 6.811, "note_off_time": 6.95}, {"pitch": 62, "velocity": 43, "note_on_time": 7.086, "note_off_time": 7.2}, {"pitch": 60, "velocity": 19, "note_on_time": 7.423, "note_off_time": 7.621}, {"pitch": 62, "velocity": 71, "note_on_time": 8.433, "note_off_time": 8.553}, {"pitch": 62, "velocity": 61, "note_on_time": 8.639, "note_off_time": 8.775}]</notes><guidance name="Guidance Mode">None</guidance><error name="Error value">0.43547818181818193</error></trial></trials></MIDI>