<MIDI midiNo="2022_12_08-11_00_20"><target_notes><notes name="Note List">[{"pitch": 42, "velocity": 80, "note_on_time": 0.004, "note_off_time": 0.255}, {"pitch": 42, "velocity": 80, "note_on_time": 0.255, "note_off_time": 0.504}, {"pitch": 42, "velocity": 80, "note_on_time": 0.504, "note_off_time": 0.755}, {"pitch": 42, "velocity": 80, "note_on_time": 0.755, "note_off_time": 1.003}, {"pitch": 67, "velocity": 80, "note_on_time": 1.003, "note_off_time": 1.253}, {"pitch": 42, "velocity": 80, "note_on_time": 1.004, "note_off_time": 1.253}, {"pitch": 65, "velocity": 80, "note_on_time": 1.253, "note_off_time": 1.502}, {"pitch": 42, "velocity": 80, "note_on_time": 1.253, "note_off_time": 1.502}, {"pitch": 60, "velocity": 80, "note_on_time": 1.502, "note_off_time": 1.752}, {"pitch": 42, "velocity": 80, "note_on_time": 1.502, "note_off_time": 1.752}, {"pitch": 65, "velocity": 80, "note_on_time": 1.752, "note_off_time": 2.003}, {"pitch": 42, "velocity": 80, "note_on_time": 1.752, "note_off_time": 2.003}, {"pitch": 62, "velocity": 80, "note_on_time": 2.003, "note_off_time": 2.252}, {"pitch": 42, "velocity": 80, "note_on_time": 2.003, "note_off_time": 2.253}, {"pitch": 67, "velocity": 80, "note_on_time": 2.252, "note_off_time": 2.503}, {"pitch": 42, "velocity": 80, "note_on_time": 2.253, "note_off_time": 2.503}, {"pitch": 62, "velocity": 80, "note_on_time": 2.503, "note_off_time": 2.751}, {"pitch": 42, "velocity": 80, "note_on_time": 2.503, "note_off_time": 2.751}, {"pitch": 60, "velocity": 80, "note_on_time": 2.751, "note_off_time": 3.002}, {"pitch": 42, "velocity": 80, "note_on_time": 2.751, "note_off_time": 3.002}, {"pitch": 64, "velocity": 80, "note_on_time": 3.002, "note_off_time": 3.252}, {"pitch": 42, "velocity": 80, "note_on_time": 3.002, "note_off_time": 3.253}, {"pitch": 42, "velocity": 80, "note_on_time": 3.253, "note_off_time": 3.503}, {"pitch": 64, "velocity": 80, "note_on_time": 3.252, "note_off_time": 3.752}, {"pitch": 42, "velocity": 80, "note_on_time": 3.503, "note_off_time": 3.752}, {"pitch": 42, "velocity": 80, "note_on_time": 3.753, "note_off_time": 4.001}, {"pitch": 67, "velocity": 80, "note_on_time": 4.001, "note_off_time": 4.252}, {"pitch": 42, "velocity": 80, "note_on_time": 4.001, "note_off_time": 4.252}, {"pitch": 65, "velocity": 80, "note_on_time": 4.252, "note_off_time": 4.502}, {"pitch": 42, "velocity": 80, "note_on_time": 4.252, "note_off_time": 4.502}, {"pitch": 62, "velocity": 80, "note_on_time": 4.502, "note_off_time": 4.751}, {"pitch": 42, "velocity": 80, "note_on_time": 4.502, "note_off_time": 4.751}, {"pitch": 65, "velocity": 80, "note_on_time": 4.751, "note_off_time": 4.999}, {"pitch": 42, "velocity": 80, "note_on_time": 4.752, "note_off_time": 4.999}, {"pitch": 60, "velocity": 80, "note_on_time": 4.999, "note_off_time": 5.248}, {"pitch": 42, "velocity": 80, "note_on_time": 4.999, "note_off_time": 5.248}, {"pitch": 42, "velocity": 80, "note_on_time": 5.249, "note_off_time": 5.497}, {"pitch": 64, "velocity": 80, "note_on_time": 5.248, "note_off_time": 5.747}, {"pitch": 42, "velocity": 80, "note_on_time": 5.498, "note_off_time": 5.747}, {"pitch": 42, "velocity": 80, "note_on_time": 5.748, "note_off_time": 5.996}, {"pitch": 60, "velocity": 80, "note_on_time": 5.996, "note_off_time": 6.247}, {"pitch": 42, "velocity": 80, "note_on_time": 5.997, "note_off_time": 6.247}, {"pitch": 62, "velocity": 80, "note_on_time": 6.247, "note_off_time": 6.497}, {"pitch": 42, "velocity": 80, "note_on_time": 6.248, "note_off_time": 6.497}, {"pitch": 64, "velocity": 80, "note_on_time": 6.497, "note_off_time": 6.747}, {"pitch": 42, "velocity": 80, "note_on_time": 6.497, "note_off_time": 6.747}, {"pitch": 62, "velocity": 80, "note_on_time": 6.747, "note_off_time": 6.995}, {"pitch": 42, "velocity": 80, "note_on_time": 6.747, "note_off_time": 6.995}, {"pitch": 60, "velocity": 80, "note_on_time": 6.995, "note_off_time": 7.246}, {"pitch": 42, "velocity": 80, "note_on_time": 6.995, "note_off_time": 7.247}, {"pitch": 64, "velocity": 80, "note_on_time": 7.246, "note_off_time": 7.496}, {"pitch": 42, "velocity": 80, "note_on_time": 7.247, "note_off_time": 7.496}, {"pitch": 64, "velocity": 80, "note_on_time": 7.496, "note_off_time": 7.747}, {"pitch": 42, "velocity": 80, "note_on_time": 7.497, "note_off_time": 7.748}, {"pitch": 65, "velocity": 80, "note_on_time": 7.747, "note_off_time": 7.995}, {"pitch": 42, "velocity": 80, "note_on_time": 7.748, "note_off_time": 7.995}, {"pitch": 42, "velocity": 80, "note_on_time": 7.995, "note_off_time": 8.244}, {"pitch": 65, "velocity": 80, "note_on_time": 8.244, "note_off_time": 8.494}, {"pitch": 42, "velocity": 80, "note_on_time": 8.245, "note_off_time": 8.495}, {"pitch": 65, "velocity": 80, "note_on_time": 8.494, "note_off_time": 8.744}, {"pitch": 42, "velocity": 80, "note_on_time": 8.495, "note_off_time": 8.744}, {"pitch": 65, "velocity": 80, "note_on_time": 8.744, "note_off_time": 8.995}, {"pitch": 42, "velocity": 80, "note_on_time": 8.745, "note_off_time": 8.995}]</notes><options name="Option List">((4, 4), [0.5, 0.25], 3, 8, &lt;NoteRangePerHand.C_TO_G: 6&gt;, &lt;NoteRangePerHand.ONE_NOTE: 2&gt;, False, True, False, 248)</options></target_notes><trials><trial trial_no="1" timestamp="2022_12_08-11_00_09"><notes name="Played Notes">[{"pitch": 67, "velocity": 67, "note_on_time": 1.033, "note_off_time": 1.262}, {"pitch": 65, "velocity": 65, "note_on_time": 1.265, "note_off_time": 1.53}, {"pitch": 60, "velocity": 72, "note_on_time": 1.522, "note_off_time": 1.76}, {"pitch": 65, "velocity": 62, "note_on_time": 1.772, "note_off_time": 1.978}, {"pitch": 62, "velocity": 57, "note_on_time": 1.99, "note_off_time": 2.238}, {"pitch": 67, "velocity": 69, "note_on_time": 2.24, "note_off_time": 2.494}, {"pitch": 62, "velocity": 60, "note_on_time": 2.5, "note_off_time": 2.738}, {"pitch": 60, "velocity": 71, "note_on_time": 2.744, "note_off_time": 2.993}, {"pitch": 64, "velocity": 64, "note_on_time": 2.998, "note_off_time": 3.114}, {"pitch": 64, "velocity": 56, "note_on_time": 3.234, "note_off_time": 3.573}, {"pitch": 67, "velocity": 52, "note_on_time": 3.979, "note_off_time": 4.195}, {"pitch": 65, "velocity": 56, "note_on_time": 4.232, "note_off_time": 4.479}, {"pitch": 62, "velocity": 60, "note_on_time": 4.489, "note_off_time": 4.693}, {"pitch": 65, "velocity": 59, "note_on_time": 4.729, "note_off_time": 4.975}, {"pitch": 60, "velocity": 76, "note_on_time": 4.991, "note_off_time": 5.191}, {"pitch": 64, "velocity": 44, "note_on_time": 5.232, "note_off_time": 5.598}, {"pitch": 60, "velocity": 60, "note_on_time": 5.947, "note_off_time": 6.197}, {"pitch": 62, "velocity": 62, "note_on_time": 6.221, "note_off_time": 6.477}, {"pitch": 64, "velocity": 68, "note_on_time": 6.488, "note_off_time": 6.731}, {"pitch": 62, "velocity": 68, "note_on_time": 6.724, "note_off_time": 6.941}, {"pitch": 60, "velocity": 68, "note_on_time": 6.966, "note_off_time": 7.243}, {"pitch": 64, "velocity": 59, "note_on_time": 7.246, "note_off_time": 7.338}, {"pitch": 64, "velocity": 72, "note_on_time": 7.509, "note_off_time": 7.717}, {"pitch": 65, "velocity": 72, "note_on_time": 7.747, "note_off_time": 8.095}, {"pitch": 65, "velocity": 57, "note_on_time": 8.272, "note_off_time": 8.347}, {"pitch": 65, "velocity": 67, "note_on_time": 8.531, "note_off_time": 8.625}, {"pitch": 65, "velocity": 62, "note_on_time": 8.763, "note_off_time": 8.892}]</notes><guidance name="Guidance Mode">None</guidance><error name="Error value">0.01569104166666675</error></trial><trial trial_no="2" timestamp="2022_12_08-11_00_27"><notes name="Played Notes">[{"pitch": 67, "velocity": 64, "note_on_time": 1.018, "note_off_time": 1.219}, {"pitch": 65, "velocity": 55, "note_on_time": 1.246, "note_off_time": 1.517}, {"pitch": 60, "velocity": 65, "note_on_time": 1.517, "note_off_time": 1.746}, {"pitch": 65, "velocity": 62, "note_on_time": 1.758, "note_off_time": 2.059}, {"pitch": 62, "velocity": 59, "note_on_time": 2.037, "note_off_time": 2.267}, {"pitch": 67, "velocity": 68, "note_on_time": 2.26, "note_off_time": 2.504}, {"pitch": 62, "velocity": 64, "note_on_time": 2.498, "note_off_time": 2.747}, {"pitch": 60, "velocity": 69, "note_on_time": 2.746, "note_off_time": 3.012}, {"pitch": 64, "velocity": 68, "note_on_time": 3.005, "note_off_time": 3.119}, {"pitch": 64, "velocity": 54, "note_on_time": 3.224, "note_off_time": 3.56}, {"pitch": 67, "velocity": 62, "note_on_time": 3.982, "note_off_time": 4.241}, {"pitch": 65, "velocity": 62, "note_on_time": 4.237, "note_off_time": 4.494}, {"pitch": 62, "velocity": 61, "note_on_time": 4.496, "note_off_time": 4.706}, {"pitch": 65, "velocity": 63, "note_on_time": 4.727, "note_off_time": 4.996}, {"pitch": 60, "velocity": 64, "note_on_time": 4.988, "note_off_time": 5.271}, {"pitch": 64, "velocity": 55, "note_on_time": 5.247, "note_off_time": 5.608}, {"pitch": 60, "velocity": 60, "note_on_time": 5.985, "note_off_time": 6.214}, {"pitch": 62, "velocity": 59, "note_on_time": 6.233, "note_off_time": 6.467}, {"pitch": 64, "velocity": 69, "note_on_time": 6.476, "note_off_time": 6.71}, {"pitch": 62, "velocity": 56, "note_on_time": 6.709, "note_off_time": 6.967}, {"pitch": 60, "velocity": 71, "note_on_time": 6.967, "note_off_time": 7.216}, {"pitch": 64, "velocity": 69, "note_on_time": 7.231, "note_off_time": 7.337}, {"pitch": 64, "velocity": 74, "note_on_time": 7.5, "note_off_time": 7.692}, {"pitch": 65, "velocity": 70, "note_on_time": 7.729, "note_off_time": 8.06}, {"pitch": 65, "velocity": 60, "note_on_time": 8.209, "note_off_time": 8.322}, {"pitch": 65, "velocity": 55, "note_on_time": 8.467, "note_off_time": 8.585}, {"pitch": 65, "velocity": 58, "note_on_time": 8.715, "note_off_time": 8.906}]</notes><guidance name="Guidance Mode">None</guidance><error name="Error value">0.016321458333333372</error></trial><trial trial_no="3" timestamp="2022_12_08-11_00_46"><notes name="Played Notes">[{"pitch": 67, "velocity": 72, "note_on_time": 1.019, "note_off_time": 1.26}, {"pitch": 65, "velocity": 66, "note_on_time": 1.271, "note_off_time": 1.549}, {"pitch": 60, "velocity": 68, "note_on_time": 1.544, "note_off_time": 1.772}, {"pitch": 62, "velocity": 56, "note_on_time": 1.796, "note_off_time": 1.845}, {"pitch": 67, "velocity": 65, "note_on_time": 1.906, "note_off_time": 2.018}, {"pitch": 62, "velocity": 68, "note_on_time": 2.17, "note_off_time": 2.415}, {"pitch": 67, "velocity": 58, "note_on_time": 2.481, "note_off_time": 2.719}, {"pitch": 62, "velocity": 63, "note_on_time": 2.687, "note_off_time": 2.905}, {"pitch": 60, "velocity": 52, "note_on_time": 2.914, "note_off_time": 3.139}, {"pitch": 64, "velocity": 68, "note_on_time": 3.168, "note_off_time": 3.281}, {"pitch": 64, "velocity": 52, "note_on_time": 3.479, "note_off_time": 3.81}, {"pitch": 67, "velocity": 64, "note_on_time": 4.219, "note_off_time": 4.431}, {"pitch": 65, "velocity": 60, "note_on_time": 4.475, "note_off_time": 4.718}, {"pitch": 62, "velocity": 61, "note_on_time": 4.728, "note_off_time": 4.923}, {"pitch": 65, "velocity": 62, "note_on_time": 4.954, "note_off_time": 5.256}, {"pitch": 60, "velocity": 66, "note_on_time": 5.241, "note_off_time": 5.494}, {"pitch": 64, "velocity": 51, "note_on_time": 5.494, "note_off_time": 5.844}, {"pitch": 60, "velocity": 57, "note_on_time": 6.245, "note_off_time": 6.658}, {"pitch": 62, "velocity": 63, "note_on_time": 6.658, "note_off_time": 6.76}, {"pitch": 64, "velocity": 67, "note_on_time": 6.777, "note_off_time": 7.016}, {"pitch": 62, "velocity": 48, "note_on_time": 7.001, "note_off_time": 7.3}, {"pitch": 60, "velocity": 35, "note_on_time": 7.268, "note_off_time": 7.49}, {"pitch": 64, "velocity": 67, "note_on_time": 7.498, "note_off_time": 7.618}, {"pitch": 64, "velocity": 73, "note_on_time": 7.783, "note_off_time": 7.975}, {"pitch": 65, "velocity": 68, "note_on_time": 8.015, "note_off_time": 8.296}, {"pitch": 65, "velocity": 66, "note_on_time": 8.481, "note_off_time": 8.598}, {"pitch": 65, "velocity": 52, "note_on_time": 8.741, "note_off_time": 8.839}]</notes><guidance name="Guidance Mode">None</guidance><error name="Error value">0.5764464583333331</error></trial></trials></MIDI>