<MIDI midiNo="2022_12_15-13_21_32"><target_notes><notes name="Note List">[{"pitch": 42, "velocity": 80, "note_on_time": 0.004, "note_off_time": 0.74}, {"pitch": 42, "velocity": 80, "note_on_time": 0.741, "note_off_time": 1.473}, {"pitch": 42, "velocity": 80, "note_on_time": 1.473, "note_off_time": 2.208}, {"pitch": 42, "velocity": 80, "note_on_time": 2.208, "note_off_time": 2.942}, {"pitch": 62, "velocity": 80, "note_on_time": 2.941, "note_off_time": 3.673}, {"pitch": 42, "velocity": 80, "note_on_time": 2.942, "note_off_time": 3.673}, {"pitch": 60, "velocity": 80, "note_on_time": 3.673, "note_off_time": 4.407}, {"pitch": 42, "velocity": 80, "note_on_time": 3.674, "note_off_time": 4.408}, {"pitch": 60, "velocity": 80, "note_on_time": 4.407, "note_off_time": 5.142}, {"pitch": 42, "velocity": 80, "note_on_time": 4.408, "note_off_time": 5.143}, {"pitch": 62, "velocity": 80, "note_on_time": 5.142, "note_off_time": 5.878}, {"pitch": 42, "velocity": 80, "note_on_time": 5.143, "note_off_time": 5.878}, {"pitch": 60, "velocity": 80, "note_on_time": 5.878, "note_off_time": 6.61}, {"pitch": 42, "velocity": 80, "note_on_time": 5.878, "note_off_time": 6.61}, {"pitch": 64, "velocity": 80, "note_on_time": 6.61, "note_off_time": 7.347}, {"pitch": 42, "velocity": 80, "note_on_time": 6.61, "note_off_time": 7.348}, {"pitch": 62, "velocity": 80, "note_on_time": 7.347, "note_off_time": 8.08}, {"pitch": 42, "velocity": 80, "note_on_time": 7.348, "note_off_time": 8.08}, {"pitch": 64, "velocity": 80, "note_on_time": 8.08, "note_off_time": 8.811}, {"pitch": 42, "velocity": 80, "note_on_time": 8.081, "note_off_time": 8.811}, {"pitch": 60, "velocity": 80, "note_on_time": 8.811, "note_off_time": 9.542}, {"pitch": 42, "velocity": 80, "note_on_time": 8.812, "note_off_time": 9.543}, {"pitch": 42, "velocity": 80, "note_on_time": 9.543, "note_off_time": 10.275}, {"pitch": 62, "velocity": 80, "note_on_time": 9.542, "note_off_time": 11.01}, {"pitch": 42, "velocity": 80, "note_on_time": 10.276, "note_off_time": 11.01}, {"pitch": 42, "velocity": 80, "note_on_time": 11.01, "note_off_time": 11.743}, {"pitch": 60, "velocity": 80, "note_on_time": 11.743, "note_off_time": 12.474}, {"pitch": 42, "velocity": 80, "note_on_time": 11.743, "note_off_time": 12.474}, {"pitch": 64, "velocity": 80, "note_on_time": 12.474, "note_off_time": 13.206}, {"pitch": 42, "velocity": 80, "note_on_time": 12.474, "note_off_time": 13.206}, {"pitch": 62, "velocity": 80, "note_on_time": 13.206, "note_off_time": 13.941}, {"pitch": 42, "velocity": 80, "note_on_time": 13.206, "note_off_time": 13.941}, {"pitch": 64, "velocity": 80, "note_on_time": 13.941, "note_off_time": 14.674}, {"pitch": 42, "velocity": 80, "note_on_time": 13.941, "note_off_time": 14.674}, {"pitch": 60, "velocity": 80, "note_on_time": 14.674, "note_off_time": 15.408}, {"pitch": 42, "velocity": 80, "note_on_time": 14.675, "note_off_time": 15.408}, {"pitch": 64, "velocity": 80, "note_on_time": 15.408, "note_off_time": 16.141}, {"pitch": 42, "velocity": 80, "note_on_time": 15.409, "note_off_time": 16.141}, {"pitch": 42, "velocity": 80, "note_on_time": 16.141, "note_off_time": 16.875}, {"pitch": 62, "velocity": 80, "note_on_time": 16.141, "note_off_time": 17.608}, {"pitch": 42, "velocity": 80, "note_on_time": 16.875, "note_off_time": 17.608}, {"pitch": 64, "velocity": 80, "note_on_time": 17.608, "note_off_time": 18.342}, {"pitch": 42, "velocity": 80, "note_on_time": 17.609, "note_off_time": 18.343}, {"pitch": 42, "velocity": 80, "note_on_time": 18.343, "note_off_time": 19.072}, {"pitch": 42, "velocity": 80, "note_on_time": 19.073, "note_off_time": 19.805}, {"pitch": 60, "velocity": 80, "note_on_time": 19.805, "note_off_time": 20.538}, {"pitch": 42, "velocity": 80, "note_on_time": 19.806, "note_off_time": 20.539}, {"pitch": 60, "velocity": 80, "note_on_time": 20.538, "note_off_time": 21.272}, {"pitch": 42, "velocity": 80, "note_on_time": 20.539, "note_off_time": 21.272}, {"pitch": 60, "velocity": 80, "note_on_time": 21.272, "note_off_time": 22.008}, {"pitch": 42, "velocity": 80, "note_on_time": 21.273, "note_off_time": 22.008}, {"pitch": 64, "velocity": 80, "note_on_time": 22.008, "note_off_time": 22.74}, {"pitch": 42, "velocity": 80, "note_on_time": 22.008, "note_off_time": 22.741}, {"pitch": 62, "velocity": 80, "note_on_time": 22.74, "note_off_time": 23.47}, {"pitch": 42, "velocity": 80, "note_on_time": 22.741, "note_off_time": 23.47}, {"pitch": 42, "velocity": 80, "note_on_time": 23.471, "note_off_time": 24.2}, {"pitch": 62, "velocity": 80, "note_on_time": 24.2, "note_off_time": 24.933}, {"pitch": 42, "velocity": 80, "note_on_time": 24.2, "note_off_time": 24.934}, {"pitch": 62, "velocity": 80, "note_on_time": 24.933, "note_off_time": 25.666}, {"pitch": 42, "velocity": 80, "note_on_time": 24.934, "note_off_time": 25.667}, {"pitch": 62, "velocity": 80, "note_on_time": 25.666, "note_off_time": 26.399}, {"pitch": 42, "velocity": 80, "note_on_time": 25.667, "note_off_time": 26.399}]</notes><options name="Option List">((4, 4), [0.5, 0.25], 3, 8, &lt;NoteRangePerHand.THREE_NOTES: 4&gt;, &lt;NoteRangePerHand.ONE_NOTE: 2&gt;, False, True, False, 83)</options></target_notes><trials><trial trial_no="1" timestamp="2022_12_15-13_21_04"><notes name="Played Notes">[{"pitch": 62, "velocity": 54, "note_on_time": 2.89, "note_off_time": 3.116}, {"pitch": 60, "velocity": 60, "note_on_time": 3.626, "note_off_time": 3.791}, {"pitch": 60, "velocity": 62, "note_on_time": 4.324, "note_off_time": 4.481}, {"pitch": 62, "velocity": 41, "note_on_time": 5.066, "note_off_time": 5.239}, {"pitch": 60, "velocity": 57, "note_on_time": 5.823, "note_off_time": 5.971}, {"pitch": 64, "velocity": 64, "note_on_time": 6.533, "note_off_time": 6.679}, {"pitch": 62, "velocity": 59, "note_on_time": 7.265, "note_off_time": 7.378}, {"pitch": 64, "velocity": 54, "note_on_time": 8.043, "note_off_time": 8.178}, {"pitch": 60, "velocity": 57, "note_on_time": 8.781, "note_off_time": 8.858}, {"pitch": 62, "velocity": 54, "note_on_time": 9.537, "note_off_time": 10.401}, {"pitch": 60, "velocity": 68, "note_on_time": 11.719, "note_off_time": 11.856}, {"pitch": 64, "velocity": 64, "note_on_time": 12.426, "note_off_time": 12.551}, {"pitch": 62, "velocity": 59, "note_on_time": 13.157, "note_off_time": 13.269}, {"pitch": 64, "velocity": 60, "note_on_time": 13.869, "note_off_time": 13.995}, {"pitch": 60, "velocity": 56, "note_on_time": 14.62, "note_off_time": 14.701}, {"pitch": 64, "velocity": 58, "note_on_time": 15.346, "note_off_time": 15.456}, {"pitch": 62, "velocity": 56, "note_on_time": 16.086, "note_off_time": 16.877}, {"pitch": 64, "velocity": 65, "note_on_time": 17.65, "note_off_time": 17.871}, {"pitch": 60, "velocity": 56, "note_on_time": 19.749, "note_off_time": 19.881}, {"pitch": 60, "velocity": 42, "note_on_time": 20.516, "note_off_time": 20.598}, {"pitch": 60, "velocity": 53, "note_on_time": 21.202, "note_off_time": 21.314}, {"pitch": 64, "velocity": 49, "note_on_time": 21.984, "note_off_time": 22.076}, {"pitch": 62, "velocity": 42, "note_on_time": 22.712, "note_off_time": 22.867}, {"pitch": 62, "velocity": 75, "note_on_time": 24.22, "note_off_time": 24.348}, {"pitch": 62, "velocity": 72, "note_on_time": 24.959, "note_off_time": 25.075}, {"pitch": 62, "velocity": 65, "note_on_time": 25.65, "note_off_time": 25.789}]</notes><guidance name="Guidance Mode">None</guidance><error name="Error value">0.03288769565217343</error></trial><trial trial_no="2" timestamp="2022_12_15-13_21_38"><notes name="Played Notes">[{"pitch": 62, "velocity": 50, "note_on_time": 2.941, "note_off_time": 3.098}, {"pitch": 60, "velocity": 50, "note_on_time": 3.644, "note_off_time": 3.753}, {"pitch": 60, "velocity": 46, "note_on_time": 4.343, "note_off_time": 4.44}, {"pitch": 62, "velocity": 50, "note_on_time": 5.117, "note_off_time": 5.235}, {"pitch": 60, "velocity": 46, "note_on_time": 5.786, "note_off_time": 5.883}, {"pitch": 64, "velocity": 55, "note_on_time": 6.513, "note_off_time": 6.67}, {"pitch": 62, "velocity": 51, "note_on_time": 7.226, "note_off_time": 7.373}, {"pitch": 64, "velocity": 62, "note_on_time": 7.972, "note_off_time": 8.11}, {"pitch": 60, "velocity": 48, "note_on_time": 8.711, "note_off_time": 8.824}, {"pitch": 62, "velocity": 57, "note_on_time": 9.415, "note_off_time": 10.307}, {"pitch": 60, "velocity": 53, "note_on_time": 11.746, "note_off_time": 11.877}, {"pitch": 64, "velocity": 52, "note_on_time": 12.475, "note_off_time": 12.619}, {"pitch": 62, "velocity": 52, "note_on_time": 13.168, "note_off_time": 13.321}, {"pitch": 64, "velocity": 47, "note_on_time": 13.915, "note_off_time": 14.055}, {"pitch": 60, "velocity": 53, "note_on_time": 14.628, "note_off_time": 14.761}, {"pitch": 64, "velocity": 49, "note_on_time": 15.349, "note_off_time": 15.457}, {"pitch": 62, "velocity": 56, "note_on_time": 16.054, "note_off_time": 16.829}, {"pitch": 64, "velocity": 52, "note_on_time": 17.572, "note_off_time": 17.732}, {"pitch": 60, "velocity": 51, "note_on_time": 19.791, "note_off_time": 19.874}, {"pitch": 60, "velocity": 52, "note_on_time": 20.483, "note_off_time": 20.584}, {"pitch": 60, "velocity": 50, "note_on_time": 21.237, "note_off_time": 21.327}, {"pitch": 64, "velocity": 54, "note_on_time": 21.952, "note_off_time": 22.075}, {"pitch": 62, "velocity": 53, "note_on_time": 22.677, "note_off_time": 22.817}, {"pitch": 62, "velocity": 61, "note_on_time": 24.164, "note_off_time": 24.301}, {"pitch": 62, "velocity": 52, "note_on_time": 24.922, "note_off_time": 25.049}, {"pitch": 62, "velocity": 58, "note_on_time": 25.651, "note_off_time": 25.773}]</notes><guidance name="Guidance Mode">None</guidance><error name="Error value">0.032607869565217086</error></trial><trial trial_no="3" timestamp="2022_12_15-13_22_15"><notes name="Played Notes">[{"pitch": 62, "velocity": 46, "note_on_time": 2.876, "note_off_time": 3.051}, {"pitch": 60, "velocity": 55, "note_on_time": 3.638, "note_off_time": 3.796}, {"pitch": 60, "velocity": 60, "note_on_time": 4.395, "note_off_time": 4.535}, {"pitch": 62, "velocity": 50, "note_on_time": 5.164, "note_off_time": 5.335}, {"pitch": 60, "velocity": 54, "note_on_time": 5.891, "note_off_time": 6.044}, {"pitch": 64, "velocity": 55, "note_on_time": 6.593, "note_off_time": 6.748}, {"pitch": 62, "velocity": 46, "note_on_time": 7.3, "note_off_time": 7.443}, {"pitch": 64, "velocity": 51, "note_on_time": 8.008, "note_off_time": 8.149}, {"pitch": 60, "velocity": 48, "note_on_time": 8.717, "note_off_time": 8.821}, {"pitch": 62, "velocity": 62, "note_on_time": 9.477, "note_off_time": 10.251}, {"pitch": 60, "velocity": 61, "note_on_time": 11.658, "note_off_time": 11.796}, {"pitch": 64, "velocity": 54, "note_on_time": 12.411, "note_off_time": 12.578}, {"pitch": 62, "velocity": 44, "note_on_time": 13.137, "note_off_time": 13.288}, {"pitch": 64, "velocity": 49, "note_on_time": 13.882, "note_off_time": 14.012}, {"pitch": 60, "velocity": 58, "note_on_time": 14.641, "note_off_time": 14.768}, {"pitch": 64, "velocity": 51, "note_on_time": 15.323, "note_off_time": 15.478}, {"pitch": 62, "velocity": 62, "note_on_time": 16.038, "note_off_time": 16.808}, {"pitch": 62, "velocity": 52, "note_on_time": 17.603, "note_off_time": 17.774}, {"pitch": 60, "velocity": 45, "note_on_time": 19.817, "note_off_time": 19.974}, {"pitch": 60, "velocity": 46, "note_on_time": 20.505, "note_off_time": 20.653}, {"pitch": 60, "velocity": 40, "note_on_time": 21.194, "note_off_time": 21.359}, {"pitch": 64, "velocity": 52, "note_on_time": 21.986, "note_off_time": 22.147}, {"pitch": 62, "velocity": 48, "note_on_time": 22.709, "note_off_time": 22.941}, {"pitch": 62, "velocity": 52, "note_on_time": 24.125, "note_off_time": 24.267}, {"pitch": 62, "velocity": 45, "note_on_time": 24.891, "note_off_time": 25.022}, {"pitch": 62, "velocity": 58, "note_on_time": 25.633, "note_off_time": 25.791}]</notes><guidance name="Guidance Mode">None</guidance><error name="Error value">0.07709560869565196</error></trial></trials></MIDI>