<MIDI midiNo="2022_12_08-12_34_14"><target_notes><notes name="Note List">[{"pitch": 42, "velocity": 80, "note_on_time": 0.004, "note_off_time": 0.226}, {"pitch": 42, "velocity": 80, "note_on_time": 0.226, "note_off_time": 0.446}, {"pitch": 42, "velocity": 80, "note_on_time": 0.446, "note_off_time": 0.664}, {"pitch": 42, "velocity": 80, "note_on_time": 0.664, "note_off_time": 0.882}, {"pitch": 42, "velocity": 80, "note_on_time": 0.882, "note_off_time": 1.1}, {"pitch": 62, "velocity": 80, "note_on_time": 0.882, "note_off_time": 1.319}, {"pitch": 42, "velocity": 80, "note_on_time": 1.1, "note_off_time": 1.319}, {"pitch": 42, "velocity": 80, "note_on_time": 1.319, "note_off_time": 1.536}, {"pitch": 60, "velocity": 80, "note_on_time": 1.536, "note_off_time": 1.754}, {"pitch": 42, "velocity": 80, "note_on_time": 1.536, "note_off_time": 1.754}, {"pitch": 65, "velocity": 80, "note_on_time": 1.754, "note_off_time": 1.976}, {"pitch": 42, "velocity": 80, "note_on_time": 1.754, "note_off_time": 1.976}, {"pitch": 60, "velocity": 80, "note_on_time": 1.976, "note_off_time": 2.195}, {"pitch": 42, "velocity": 80, "note_on_time": 1.976, "note_off_time": 2.195}, {"pitch": 67, "velocity": 80, "note_on_time": 2.195, "note_off_time": 2.413}, {"pitch": 42, "velocity": 80, "note_on_time": 2.195, "note_off_time": 2.413}, {"pitch": 67, "velocity": 80, "note_on_time": 2.413, "note_off_time": 2.631}, {"pitch": 42, "velocity": 80, "note_on_time": 2.413, "note_off_time": 2.631}, {"pitch": 42, "velocity": 80, "note_on_time": 2.631, "note_off_time": 2.85}, {"pitch": 60, "velocity": 80, "note_on_time": 2.631, "note_off_time": 3.067}, {"pitch": 42, "velocity": 80, "note_on_time": 2.85, "note_off_time": 3.067}, {"pitch": 42, "velocity": 80, "note_on_time": 3.067, "note_off_time": 3.284}, {"pitch": 65, "velocity": 80, "note_on_time": 3.284, "note_off_time": 3.503}, {"pitch": 42, "velocity": 80, "note_on_time": 3.284, "note_off_time": 3.503}, {"pitch": 64, "velocity": 80, "note_on_time": 3.503, "note_off_time": 3.721}, {"pitch": 42, "velocity": 80, "note_on_time": 3.503, "note_off_time": 3.721}, {"pitch": 65, "velocity": 80, "note_on_time": 3.721, "note_off_time": 3.942}, {"pitch": 42, "velocity": 80, "note_on_time": 3.721, "note_off_time": 3.942}, {"pitch": 64, "velocity": 80, "note_on_time": 3.942, "note_off_time": 4.159}, {"pitch": 42, "velocity": 80, "note_on_time": 3.942, "note_off_time": 4.159}, {"pitch": 64, "velocity": 80, "note_on_time": 4.159, "note_off_time": 4.378}, {"pitch": 42, "velocity": 80, "note_on_time": 4.159, "note_off_time": 4.378}, {"pitch": 42, "velocity": 80, "note_on_time": 4.378, "note_off_time": 4.594}, {"pitch": 65, "velocity": 80, "note_on_time": 4.378, "note_off_time": 4.813}, {"pitch": 42, "velocity": 80, "note_on_time": 4.594, "note_off_time": 4.813}, {"pitch": 42, "velocity": 80, "note_on_time": 4.813, "note_off_time": 5.031}, {"pitch": 42, "velocity": 80, "note_on_time": 5.031, "note_off_time": 5.25}, {"pitch": 62, "velocity": 80, "note_on_time": 5.25, "note_off_time": 5.467}, {"pitch": 42, "velocity": 80, "note_on_time": 5.25, "note_off_time": 5.467}, {"pitch": 62, "velocity": 80, "note_on_time": 5.467, "note_off_time": 5.684}, {"pitch": 42, "velocity": 80, "note_on_time": 5.467, "note_off_time": 5.684}, {"pitch": 65, "velocity": 80, "note_on_time": 5.684, "note_off_time": 5.902}, {"pitch": 42, "velocity": 80, "note_on_time": 5.684, "note_off_time": 5.902}, {"pitch": 60, "velocity": 80, "note_on_time": 5.902, "note_off_time": 6.118}, {"pitch": 42, "velocity": 80, "note_on_time": 5.902, "note_off_time": 6.118}, {"pitch": 62, "velocity": 80, "note_on_time": 6.118, "note_off_time": 6.338}, {"pitch": 42, "velocity": 80, "note_on_time": 6.118, "note_off_time": 6.338}, {"pitch": 65, "velocity": 80, "note_on_time": 6.338, "note_off_time": 6.557}, {"pitch": 42, "velocity": 80, "note_on_time": 6.338, "note_off_time": 6.557}, {"pitch": 65, "velocity": 80, "note_on_time": 6.557, "note_off_time": 6.777}, {"pitch": 42, "velocity": 80, "note_on_time": 6.557, "note_off_time": 6.777}, {"pitch": 60, "velocity": 80, "note_on_time": 6.777, "note_off_time": 6.996}, {"pitch": 42, "velocity": 80, "note_on_time": 6.777, "note_off_time": 6.996}, {"pitch": 42, "velocity": 80, "note_on_time": 6.996, "note_off_time": 7.215}, {"pitch": 60, "velocity": 80, "note_on_time": 7.215, "note_off_time": 7.434}, {"pitch": 42, "velocity": 80, "note_on_time": 7.215, "note_off_time": 7.434}, {"pitch": 60, "velocity": 80, "note_on_time": 7.434, "note_off_time": 7.65}, {"pitch": 42, "velocity": 80, "note_on_time": 7.434, "note_off_time": 7.65}, {"pitch": 60, "velocity": 80, "note_on_time": 7.65, "note_off_time": 7.869}, {"pitch": 42, "velocity": 80, "note_on_time": 7.65, "note_off_time": 7.869}]</notes><options name="Option List">((4, 4), [0.5, 0.25], 3, 8, &lt;NoteRangePerHand.C_TO_G: 6&gt;, &lt;NoteRangePerHand.ONE_NOTE: 2&gt;, False, True, False, 281)</options></target_notes><trials><trial trial_no="1" timestamp="2022_12_08-12_34_04"><notes name="Played Notes">[{"pitch": 62, "velocity": 67, "note_on_time": 1.132, "note_off_time": 1.53}, {"pitch": 60, "velocity": 56, "note_on_time": 1.837, "note_off_time": 2.051}, {"pitch": 65, "velocity": 73, "note_on_time": 2.053, "note_off_time": 2.25}, {"pitch": 60, "velocity": 66, "note_on_time": 2.279, "note_off_time": 2.534}, {"pitch": 67, "velocity": 72, "note_on_time": 2.521, "note_off_time": 2.608}, {"pitch": 67, "velocity": 70, "note_on_time": 2.725, "note_off_time": 2.927}, {"pitch": 60, "velocity": 72, "note_on_time": 2.963, "note_off_time": 3.534}, {"pitch": 65, "velocity": 68, "note_on_time": 3.794, "note_off_time": 4.034}, {"pitch": 64, "velocity": 78, "note_on_time": 4.023, "note_off_time": 4.216}, {"pitch": 65, "velocity": 71, "note_on_time": 4.229, "note_off_time": 4.47}, {"pitch": 64, "velocity": 73, "note_on_time": 4.451, "note_off_time": 4.564}, {"pitch": 64, "velocity": 59, "note_on_time": 4.659, "note_off_time": 4.849}, {"pitch": 65, "velocity": 69, "note_on_time": 4.89, "note_off_time": 5.501}, {"pitch": 62, "velocity": 73, "note_on_time": 5.786, "note_off_time": 5.879}, {"pitch": 62, "velocity": 54, "note_on_time": 6.001, "note_off_time": 6.2}, {"pitch": 65, "velocity": 68, "note_on_time": 6.219, "note_off_time": 6.445}, {"pitch": 60, "velocity": 68, "note_on_time": 6.444, "note_off_time": 6.649}, {"pitch": 62, "velocity": 70, "note_on_time": 6.655, "note_off_time": 6.846}, {"pitch": 65, "velocity": 71, "note_on_time": 6.865, "note_off_time": 6.937}, {"pitch": 65, "velocity": 73, "note_on_time": 7.09, "note_off_time": 7.261}, {"pitch": 60, "velocity": 59, "note_on_time": 7.31, "note_off_time": 7.559}, {"pitch": 60, "velocity": 53, "note_on_time": 7.747, "note_off_time": 7.83}]</notes><guidance name="Guidance Mode">None</guidance><error name="Error value">0.1379597619047618</error></trial><trial trial_no="2" timestamp="2022_12_08-12_34_42"><notes name="Played Notes">[{"pitch": 62, "velocity": 77, "note_on_time": 1.9, "note_off_time": 2.29}, {"pitch": 60, "velocity": 63, "note_on_time": 2.596, "note_off_time": 2.819}, {"pitch": 65, "velocity": 75, "note_on_time": 2.811, "note_off_time": 3.017}, {"pitch": 60, "velocity": 71, "note_on_time": 3.036, "note_off_time": 3.283}, {"pitch": 67, "velocity": 78, "note_on_time": 3.266, "note_off_time": 3.358}, {"pitch": 67, "velocity": 69, "note_on_time": 3.478, "note_off_time": 3.682}, {"pitch": 60, "velocity": 74, "note_on_time": 3.726, "note_off_time": 4.181}, {"pitch": 65, "velocity": 64, "note_on_time": 4.4, "note_off_time": 4.641}, {"pitch": 64, "velocity": 68, "note_on_time": 4.623, "note_off_time": 4.834}, {"pitch": 65, "velocity": 74, "note_on_time": 4.844, "note_off_time": 5.051}, {"pitch": 64, "velocity": 73, "note_on_time": 5.06, "note_off_time": 5.157}, {"pitch": 64, "velocity": 63, "note_on_time": 5.275, "note_off_time": 5.434}, {"pitch": 65, "velocity": 78, "note_on_time": 5.515, "note_off_time": 6.052}, {"pitch": 62, "velocity": 78, "note_on_time": 6.421, "note_off_time": 6.504}, {"pitch": 62, "velocity": 66, "note_on_time": 6.645, "note_off_time": 6.844}, {"pitch": 65, "velocity": 77, "note_on_time": 6.852, "note_off_time": 7.034}, {"pitch": 60, "velocity": 72, "note_on_time": 7.069, "note_off_time": 7.233}, {"pitch": 62, "velocity": 74, "note_on_time": 7.289, "note_off_time": 7.5}, {"pitch": 65, "velocity": 73, "note_on_time": 7.504, "note_off_time": 7.581}]</notes><guidance name="Guidance Mode">None</guidance><error name="Error value">0.5805032857142857</error></trial><trial trial_no="3" timestamp="2022_12_08-12_34_58"><notes name="Played Notes">[{"pitch": 62, "velocity": 85, "note_on_time": 0.777, "note_off_time": 1.129}, {"pitch": 60, "velocity": 64, "note_on_time": 1.49, "note_off_time": 1.699}, {"pitch": 65, "velocity": 74, "note_on_time": 1.696, "note_off_time": 1.881}, {"pitch": 60, "velocity": 74, "note_on_time": 1.915, "note_off_time": 2.045}, {"pitch": 67, "velocity": 77, "note_on_time": 2.151, "note_off_time": 2.242}, {"pitch": 67, "velocity": 68, "note_on_time": 2.359, "note_off_time": 2.568}, {"pitch": 60, "velocity": 74, "note_on_time": 2.609, "note_off_time": 3.003}, {"pitch": 65, "velocity": 67, "note_on_time": 3.274, "note_off_time": 3.518}, {"pitch": 64, "velocity": 66, "note_on_time": 3.512, "note_off_time": 3.725}, {"pitch": 65, "velocity": 67, "note_on_time": 3.736, "note_off_time": 3.94}, {"pitch": 64, "velocity": 76, "note_on_time": 3.939, "note_off_time": 4.043}, {"pitch": 64, "velocity": 58, "note_on_time": 4.152, "note_off_time": 4.303}, {"pitch": 65, "velocity": 77, "note_on_time": 4.381, "note_off_time": 5.005}, {"pitch": 62, "velocity": 79, "note_on_time": 5.305, "note_off_time": 5.402}, {"pitch": 62, "velocity": 63, "note_on_time": 5.522, "note_off_time": 5.73}, {"pitch": 65, "velocity": 73, "note_on_time": 5.74, "note_off_time": 5.93}, {"pitch": 60, "velocity": 62, "note_on_time": 5.956, "note_off_time": 6.102}, {"pitch": 62, "velocity": 73, "note_on_time": 6.179, "note_off_time": 6.37}, {"pitch": 65, "velocity": 77, "note_on_time": 6.384, "note_off_time": 6.47}, {"pitch": 65, "velocity": 78, "note_on_time": 6.601, "note_off_time": 6.79}, {"pitch": 60, "velocity": 78, "note_on_time": 6.824, "note_off_time": 7.083}, {"pitch": 60, "velocity": 75, "note_on_time": 7.27, "note_off_time": 7.367}, {"pitch": 60, "velocity": 72, "note_on_time": 7.497, "note_off_time": 7.593}]</notes><guidance name="Guidance Mode">None</guidance><error name="Error value">0.07586014285714274</error></trial><trial trial_no="4" timestamp="2022_12_08-12_35_19"><notes name="Played Notes">[{"pitch": 62, "velocity": 68, "note_on_time": 1.167, "note_off_time": 1.594}, {"pitch": 60, "velocity": 58, "note_on_time": 1.85, "note_off_time": 2.063}, {"pitch": 65, "velocity": 61, "note_on_time": 2.081, "note_off_time": 2.254}, {"pitch": 60, "velocity": 64, "note_on_time": 2.288, "note_off_time": 2.424}, {"pitch": 67, "velocity": 67, "note_on_time": 2.515, "note_off_time": 2.599}, {"pitch": 67, "velocity": 71, "note_on_time": 2.718, "note_off_time": 2.93}, {"pitch": 60, "velocity": 75, "note_on_time": 2.97, "note_off_time": 3.369}, {"pitch": 65, "velocity": 69, "note_on_time": 3.632, "note_off_time": 3.878}, {"pitch": 64, "velocity": 68, "note_on_time": 3.867, "note_off_time": 4.072}, {"pitch": 65, "velocity": 71, "note_on_time": 4.091, "note_off_time": 4.319}, {"pitch": 64, "velocity": 74, "note_on_time": 4.305, "note_off_time": 4.406}, {"pitch": 64, "velocity": 64, "note_on_time": 4.53, "note_off_time": 4.693}, {"pitch": 65, "velocity": 68, "note_on_time": 4.75, "note_off_time": 5.294}, {"pitch": 62, "velocity": 67, "note_on_time": 5.659, "note_off_time": 5.745}, {"pitch": 62, "velocity": 67, "note_on_time": 5.869, "note_off_time": 6.081}, {"pitch": 65, "velocity": 76, "note_on_time": 6.078, "note_off_time": 6.272}, {"pitch": 60, "velocity": 70, "note_on_time": 6.291, "note_off_time": 6.513}, {"pitch": 62, "velocity": 67, "note_on_time": 6.518, "note_off_time": 6.726}, {"pitch": 65, "velocity": 71, "note_on_time": 6.743, "note_off_time": 6.823}, {"pitch": 65, "velocity": 76, "note_on_time": 6.966, "note_off_time": 7.151}, {"pitch": 60, "velocity": 73, "note_on_time": 7.189, "note_off_time": 7.427}, {"pitch": 60, "velocity": 72, "note_on_time": 7.627, "note_off_time": 7.72}]</notes><guidance name="Guidance Mode">None</guidance><error name="Error value">0.1307670952380952</error></trial></trials></MIDI>