<MIDI midiNo="2022_11_03-09_28_15"><target_notes><notes name="Note List">[{"pitch": 42, "velocity": 80, "note_on_time": 0.004, "note_off_time": 0.227}, {"pitch": 42, "velocity": 80, "note_on_time": 0.227, "note_off_time": 0.446}, {"pitch": 42, "velocity": 80, "note_on_time": 0.446, "note_off_time": 0.663}, {"pitch": 42, "velocity": 80, "note_on_time": 0.663, "note_off_time": 0.88}, {"pitch": 64, "velocity": 80, "note_on_time": 0.88, "note_off_time": 1.097}, {"pitch": 42, "velocity": 80, "note_on_time": 0.88, "note_off_time": 1.097}, {"pitch": 64, "velocity": 80, "note_on_time": 1.097, "note_off_time": 1.315}, {"pitch": 42, "velocity": 80, "note_on_time": 1.097, "note_off_time": 1.315}, {"pitch": 42, "velocity": 80, "note_on_time": 1.315, "note_off_time": 1.533}, {"pitch": 65, "velocity": 80, "note_on_time": 1.315, "note_off_time": 1.75}, {"pitch": 42, "velocity": 80, "note_on_time": 1.533, "note_off_time": 1.75}, {"pitch": 62, "velocity": 80, "note_on_time": 1.75, "note_off_time": 1.968}, {"pitch": 42, "velocity": 80, "note_on_time": 1.75, "note_off_time": 1.968}, {"pitch": 65, "velocity": 80, "note_on_time": 1.968, "note_off_time": 2.185}, {"pitch": 42, "velocity": 80, "note_on_time": 1.968, "note_off_time": 2.185}, {"pitch": 64, "velocity": 80, "note_on_time": 2.185, "note_off_time": 2.404}, {"pitch": 42, "velocity": 80, "note_on_time": 2.185, "note_off_time": 2.404}, {"pitch": 62, "velocity": 80, "note_on_time": 2.404, "note_off_time": 2.622}, {"pitch": 42, "velocity": 80, "note_on_time": 2.404, "note_off_time": 2.622}, {"pitch": 60, "velocity": 80, "note_on_time": 2.622, "note_off_time": 2.839}, {"pitch": 42, "velocity": 80, "note_on_time": 2.622, "note_off_time": 2.839}, {"pitch": 62, "velocity": 80, "note_on_time": 2.839, "note_off_time": 3.056}, {"pitch": 42, "velocity": 80, "note_on_time": 2.839, "note_off_time": 3.056}, {"pitch": 64, "velocity": 80, "note_on_time": 3.056, "note_off_time": 3.275}, {"pitch": 42, "velocity": 80, "note_on_time": 3.056, "note_off_time": 3.275}, {"pitch": 62, "velocity": 80, "note_on_time": 3.275, "note_off_time": 3.494}, {"pitch": 42, "velocity": 80, "note_on_time": 3.275, "note_off_time": 3.494}, {"pitch": 64, "velocity": 80, "note_on_time": 3.494, "note_off_time": 3.712}, {"pitch": 42, "velocity": 80, "note_on_time": 3.494, "note_off_time": 3.712}, {"pitch": 64, "velocity": 80, "note_on_time": 3.712, "note_off_time": 3.93}, {"pitch": 42, "velocity": 80, "note_on_time": 3.712, "note_off_time": 3.93}, {"pitch": 64, "velocity": 80, "note_on_time": 3.93, "note_off_time": 4.149}, {"pitch": 42, "velocity": 80, "note_on_time": 3.93, "note_off_time": 4.149}, {"pitch": 67, "velocity": 80, "note_on_time": 4.149, "note_off_time": 4.366}, {"pitch": 42, "velocity": 80, "note_on_time": 4.149, "note_off_time": 4.366}, {"pitch": 64, "velocity": 80, "note_on_time": 4.366, "note_off_time": 4.584}, {"pitch": 42, "velocity": 80, "note_on_time": 4.366, "note_off_time": 4.584}, {"pitch": 42, "velocity": 80, "note_on_time": 4.584, "note_off_time": 4.803}, {"pitch": 62, "velocity": 80, "note_on_time": 4.584, "note_off_time": 5.02}, {"pitch": 42, "velocity": 80, "note_on_time": 4.803, "note_off_time": 5.02}, {"pitch": 42, "velocity": 80, "note_on_time": 5.02, "note_off_time": 5.239}, {"pitch": 64, "velocity": 80, "note_on_time": 5.239, "note_off_time": 5.458}, {"pitch": 42, "velocity": 80, "note_on_time": 5.239, "note_off_time": 5.458}, {"pitch": 62, "velocity": 80, "note_on_time": 5.458, "note_off_time": 5.675}, {"pitch": 42, "velocity": 80, "note_on_time": 5.458, "note_off_time": 5.675}, {"pitch": 42, "velocity": 80, "note_on_time": 5.675, "note_off_time": 5.893}, {"pitch": 42, "velocity": 80, "note_on_time": 5.893, "note_off_time": 6.111}, {"pitch": 67, "velocity": 80, "note_on_time": 6.111, "note_off_time": 6.328}, {"pitch": 42, "velocity": 80, "note_on_time": 6.111, "note_off_time": 6.328}, {"pitch": 64, "velocity": 80, "note_on_time": 6.328, "note_off_time": 6.547}, {"pitch": 42, "velocity": 80, "note_on_time": 6.328, "note_off_time": 6.547}, {"pitch": 60, "velocity": 80, "note_on_time": 6.547, "note_off_time": 6.765}, {"pitch": 42, "velocity": 80, "note_on_time": 6.547, "note_off_time": 6.765}, {"pitch": 62, "velocity": 80, "note_on_time": 6.765, "note_off_time": 6.982}, {"pitch": 42, "velocity": 80, "note_on_time": 6.765, "note_off_time": 6.982}, {"pitch": 42, "velocity": 80, "note_on_time": 6.982, "note_off_time": 7.204}, {"pitch": 62, "velocity": 80, "note_on_time": 7.204, "note_off_time": 7.421}, {"pitch": 42, "velocity": 80, "note_on_time": 7.205, "note_off_time": 7.421}, {"pitch": 62, "velocity": 80, "note_on_time": 7.421, "note_off_time": 7.639}, {"pitch": 42, "velocity": 80, "note_on_time": 7.421, "note_off_time": 7.639}, {"pitch": 62, "velocity": 80, "note_on_time": 7.639, "note_off_time": 7.859}, {"pitch": 42, "velocity": 80, "note_on_time": 7.639, "note_off_time": 7.859}]</notes><options name="Option List">((4, 4), [0.5, 0.25], 3, 8, &lt;NoteRangePerHand.C_TO_G: 6&gt;, &lt;NoteRangePerHand.ONE_NOTE: 2&gt;, False, True, False, 281)</options></target_notes><trials><trial trial_no="1" timestamp="2022_11_03-09_28_06"><notes name="Played Notes">[{"pitch": 64, "velocity": 60, "note_on_time": 0.885, "note_off_time": 0.935}, {"pitch": 64, "velocity": 67, "note_on_time": 1.122, "note_off_time": 1.605}, {"pitch": 65, "velocity": 75, "note_on_time": 1.363, "note_off_time": 1.648}, {"pitch": 62, "velocity": 69, "note_on_time": 1.772, "note_off_time": 2.045}, {"pitch": 65, "velocity": 74, "note_on_time": 1.988, "note_off_time": 2.324}, {"pitch": 64, "velocity": 78, "note_on_time": 2.19, "note_off_time": 2.397}, {"pitch": 62, "velocity": 76, "note_on_time": 2.4, "note_off_time": 2.637}, {"pitch": 60, "velocity": 82, "note_on_time": 2.601, "note_off_time": 2.843}, {"pitch": 62, "velocity": 81, "note_on_time": 2.796, "note_off_time": 3.031}, {"pitch": 64, "velocity": 65, "note_on_time": 3.017, "note_off_time": 3.254}, {"pitch": 62, "velocity": 71, "note_on_time": 3.224, "note_off_time": 3.452}, {"pitch": 64, "velocity": 71, "note_on_time": 3.422, "note_off_time": 3.498}, {"pitch": 64, "velocity": 78, "note_on_time": 3.623, "note_off_time": 3.684}, {"pitch": 64, "velocity": 73, "note_on_time": 3.834, "note_off_time": 4.086}, {"pitch": 67, "velocity": 60, "note_on_time": 4.062, "note_off_time": 4.324}, {"pitch": 64, "velocity": 70, "note_on_time": 4.29, "note_off_time": 4.563}, {"pitch": 62, "velocity": 63, "note_on_time": 4.519, "note_off_time": 4.922}, {"pitch": 64, "velocity": 62, "note_on_time": 5.224, "note_off_time": 5.492}, {"pitch": 62, "velocity": 61, "note_on_time": 5.428, "note_off_time": 5.718}, {"pitch": 67, "velocity": 58, "note_on_time": 6.1, "note_off_time": 6.388}, {"pitch": 64, "velocity": 60, "note_on_time": 6.317, "note_off_time": 6.519}, {"pitch": 60, "velocity": 67, "note_on_time": 6.522, "note_off_time": 6.819}, {"pitch": 62, "velocity": 70, "note_on_time": 6.758, "note_off_time": 7.022}, {"pitch": 62, "velocity": 64, "note_on_time": 7.214, "note_off_time": 7.264}, {"pitch": 62, "velocity": 71, "note_on_time": 7.418, "note_off_time": 7.468}, {"pitch": 62, "velocity": 65, "note_on_time": 7.602, "note_off_time": 7.655}]</notes><guidance name="Guidance Mode">None</guidance><error name="Error value">0.01801873913043475</error></trial></trials></MIDI>