<MIDI midiNo="2022_09_29-12_15_36"><target_notes><notes name="Note List">[{"pitch": 42, "velocity": 80, "note_on_time": 0.004, "note_off_time": 0.282}, {"pitch": 42, "velocity": 80, "note_on_time": 0.282, "note_off_time": 0.561}, {"pitch": 42, "velocity": 80, "note_on_time": 0.561, "note_off_time": 0.841}, {"pitch": 42, "velocity": 80, "note_on_time": 0.842, "note_off_time": 1.123}, {"pitch": 64, "velocity": 80, "note_on_time": 1.123, "note_off_time": 1.401}, {"pitch": 42, "velocity": 80, "note_on_time": 1.123, "note_off_time": 1.401}, {"pitch": 62, "velocity": 80, "note_on_time": 1.401, "note_off_time": 1.682}, {"pitch": 42, "velocity": 80, "note_on_time": 1.401, "note_off_time": 1.682}, {"pitch": 42, "velocity": 80, "note_on_time": 1.682, "note_off_time": 1.962}, {"pitch": 64, "velocity": 80, "note_on_time": 1.962, "note_off_time": 2.244}, {"pitch": 42, "velocity": 80, "note_on_time": 1.963, "note_off_time": 2.244}, {"pitch": 64, "velocity": 80, "note_on_time": 2.244, "note_off_time": 2.523}, {"pitch": 42, "velocity": 80, "note_on_time": 2.244, "note_off_time": 2.524}, {"pitch": 64, "velocity": 80, "note_on_time": 2.523, "note_off_time": 2.804}, {"pitch": 42, "velocity": 80, "note_on_time": 2.524, "note_off_time": 2.804}, {"pitch": 42, "velocity": 80, "note_on_time": 2.804, "note_off_time": 3.084}, {"pitch": 64, "velocity": 80, "note_on_time": 2.804, "note_off_time": 3.365}, {"pitch": 42, "velocity": 80, "note_on_time": 3.085, "note_off_time": 3.365}, {"pitch": 42, "velocity": 80, "note_on_time": 3.366, "note_off_time": 3.643}, {"pitch": 64, "velocity": 80, "note_on_time": 3.365, "note_off_time": 3.924}, {"pitch": 42, "velocity": 80, "note_on_time": 3.643, "note_off_time": 3.924}, {"pitch": 42, "velocity": 80, "note_on_time": 3.924, "note_off_time": 4.204}, {"pitch": 42, "velocity": 80, "note_on_time": 4.204, "note_off_time": 4.482}, {"pitch": 64, "velocity": 80, "note_on_time": 4.482, "note_off_time": 4.761}, {"pitch": 42, "velocity": 80, "note_on_time": 4.483, "note_off_time": 4.761}, {"pitch": 60, "velocity": 80, "note_on_time": 4.761, "note_off_time": 5.041}, {"pitch": 42, "velocity": 80, "note_on_time": 4.761, "note_off_time": 5.042}, {"pitch": 62, "velocity": 80, "note_on_time": 5.041, "note_off_time": 5.322}, {"pitch": 42, "velocity": 80, "note_on_time": 5.042, "note_off_time": 5.322}, {"pitch": 42, "velocity": 80, "note_on_time": 5.322, "note_off_time": 5.603}, {"pitch": 60, "velocity": 80, "note_on_time": 5.602, "note_off_time": 5.881}, {"pitch": 42, "velocity": 80, "note_on_time": 5.603, "note_off_time": 5.881}, {"pitch": 42, "velocity": 80, "note_on_time": 5.881, "note_off_time": 6.16}, {"pitch": 42, "velocity": 80, "note_on_time": 6.16, "note_off_time": 6.44}, {"pitch": 42, "velocity": 80, "note_on_time": 6.44, "note_off_time": 6.722}, {"pitch": 42, "velocity": 80, "note_on_time": 6.723, "note_off_time": 6.999}, {"pitch": 60, "velocity": 80, "note_on_time": 6.722, "note_off_time": 7.28}, {"pitch": 42, "velocity": 80, "note_on_time": 7.0, "note_off_time": 7.28}, {"pitch": 42, "velocity": 80, "note_on_time": 7.281, "note_off_time": 7.559}, {"pitch": 64, "velocity": 80, "note_on_time": 7.559, "note_off_time": 7.84}, {"pitch": 42, "velocity": 80, "note_on_time": 7.56, "note_off_time": 7.84}, {"pitch": 60, "velocity": 80, "note_on_time": 7.84, "note_off_time": 8.122}, {"pitch": 42, "velocity": 80, "note_on_time": 7.84, "note_off_time": 8.122}, {"pitch": 62, "velocity": 80, "note_on_time": 8.122, "note_off_time": 8.401}, {"pitch": 42, "velocity": 80, "note_on_time": 8.122, "note_off_time": 8.401}, {"pitch": 62, "velocity": 80, "note_on_time": 8.401, "note_off_time": 8.682}, {"pitch": 42, "velocity": 80, "note_on_time": 8.401, "note_off_time": 8.682}, {"pitch": 60, "velocity": 80, "note_on_time": 8.682, "note_off_time": 8.96}, {"pitch": 42, "velocity": 80, "note_on_time": 8.682, "note_off_time": 8.961}, {"pitch": 42, "velocity": 80, "note_on_time": 8.961, "note_off_time": 9.242}, {"pitch": 60, "velocity": 80, "note_on_time": 9.242, "note_off_time": 9.521}, {"pitch": 42, "velocity": 80, "note_on_time": 9.242, "note_off_time": 9.521}, {"pitch": 60, "velocity": 80, "note_on_time": 9.521, "note_off_time": 9.803}, {"pitch": 42, "velocity": 80, "note_on_time": 9.521, "note_off_time": 9.803}, {"pitch": 60, "velocity": 80, "note_on_time": 9.803, "note_off_time": 10.084}, {"pitch": 42, "velocity": 80, "note_on_time": 9.803, "note_off_time": 10.084}]</notes><options name="Option List">((4, 4), [0.5, 0.25], 3, 8, &lt;NoteRangePerHand.THREE_NOTES: 4&gt;, &lt;NoteRangePerHand.ONE_NOTE: 2&gt;, False, True, False, '225')</options></target_notes><trials><trial trial_no="1" timestamp="2022_09_29-12_15_25"><notes name="Played Notes">[{"pitch": 64, "velocity": 75, "note_on_time": 2.25, "note_off_time": 2.39}, {"pitch": 60, "velocity": 44, "note_on_time": 9.74, "note_off_time": 10.015}]</notes><guidance name="Guidance Mode">None</guidance><error name="Error value">1.3882344705882355</error></trial><trial trial_no="2" timestamp="2022_09_29-12_16_06"><notes name="Played Notes">[{"pitch": 64, "velocity": 83, "note_on_time": 1.109, "note_off_time": 1.416}, {"pitch": 62, "velocity": 82, "note_on_time": 1.41, "note_off_time": 1.754}, {"pitch": 62, "velocity": 90, "note_on_time": 1.998, "note_off_time": 2.34}, {"pitch": 64, "velocity": 84, "note_on_time": 2.723, "note_off_time": 2.89}, {"pitch": 64, "velocity": 56, "note_on_time": 3.009, "note_off_time": 3.169}, {"pitch": 64, "velocity": 85, "note_on_time": 3.333, "note_off_time": 3.474}, {"pitch": 64, "velocity": 85, "note_on_time": 3.624, "note_off_time": 4.156}, {"pitch": 64, "velocity": 74, "note_on_time": 4.27, "note_off_time": 4.655}, {"pitch": 60, "velocity": 89, "note_on_time": 4.998, "note_off_time": 5.193}, {"pitch": 62, "velocity": 74, "note_on_time": 5.299, "note_off_time": 5.443}, {"pitch": 60, "velocity": 79, "note_on_time": 5.601, "note_off_time": 5.847}, {"pitch": 64, "velocity": 51, "note_on_time": 6.155, "note_off_time": 6.285}, {"pitch": 60, "velocity": 70, "note_on_time": 6.502, "note_off_time": 7.034}, {"pitch": 60, "velocity": 98, "note_on_time": 7.284, "note_off_time": 7.668}, {"pitch": 64, "velocity": 87, "note_on_time": 7.801, "note_off_time": 8.026}, {"pitch": 60, "velocity": 89, "note_on_time": 8.105, "note_off_time": 8.27}, {"pitch": 62, "velocity": 93, "note_on_time": 8.384, "note_off_time": 8.518}, {"pitch": 62, "velocity": 96, "note_on_time": 8.663, "note_off_time": 8.822}, {"pitch": 60, "velocity": 94, "note_on_time": 8.929, "note_off_time": 9.3}, {"pitch": 60, "velocity": 85, "note_on_time": 9.696, "note_off_time": 9.861}]</notes><guidance name="Guidance Mode">None</guidance><error name="Error value">0.5192351764705884</error></trial><trial trial_no="3" timestamp="2022_09_29-12_17_04"><notes name="Played Notes">[{"pitch": 64, "velocity": 84, "note_on_time": 1.067, "note_off_time": 1.381}, {"pitch": 62, "velocity": 87, "note_on_time": 1.382, "note_off_time": 1.703}, {"pitch": 64, "velocity": 96, "note_on_time": 1.954, "note_off_time": 2.159}, {"pitch": 62, "velocity": 85, "note_on_time": 2.5, "note_off_time": 2.635}, {"pitch": 64, "velocity": 81, "note_on_time": 2.732, "note_off_time": 2.86}, {"pitch": 64, "velocity": 88, "note_on_time": 3.016, "note_off_time": 3.201}, {"pitch": 64, "velocity": 87, "note_on_time": 3.337, "note_off_time": 3.897}, {"pitch": 62, "velocity": 72, "note_on_time": 4.505, "note_off_time": 4.651}, {"pitch": 60, "velocity": 91, "note_on_time": 4.746, "note_off_time": 4.887}, {"pitch": 64, "velocity": 93, "note_on_time": 5.028, "note_off_time": 5.364}, {"pitch": 60, "velocity": 79, "note_on_time": 5.51, "note_off_time": 6.609}, {"pitch": 60, "velocity": 95, "note_on_time": 7.501, "note_off_time": 7.908}, {"pitch": 64, "velocity": 81, "note_on_time": 8.04, "note_off_time": 8.271}, {"pitch": 60, "velocity": 83, "note_on_time": 8.329, "note_off_time": 8.492}, {"pitch": 62, "velocity": 83, "note_on_time": 8.61, "note_off_time": 8.739}, {"pitch": 62, "velocity": 89, "note_on_time": 8.901, "note_off_time": 9.065}]</notes><guidance name="Guidance Mode">None</guidance><error name="Error value">0.7701177647058824</error></trial><trial trial_no="4" timestamp="2022_09_29-12_17_38"><notes name="Played Notes">[{"pitch": 64, "velocity": 76, "note_on_time": 1.106, "note_off_time": 1.413}, {"pitch": 62, "velocity": 82, "note_on_time": 1.418, "note_off_time": 1.712}, {"pitch": 62, "velocity": 94, "note_on_time": 1.978, "note_off_time": 2.128}, {"pitch": 64, "velocity": 90, "note_on_time": 2.092, "note_off_time": 2.304}, {"pitch": 64, "velocity": 78, "note_on_time": 2.495, "note_off_time": 2.636}, {"pitch": 64, "velocity": 88, "note_on_time": 2.793, "note_off_time": 2.944}, {"pitch": 64, "velocity": 95, "note_on_time": 3.088, "note_off_time": 3.94}, {"pitch": 64, "velocity": 52, "note_on_time": 4.058, "note_off_time": 5.267}, {"pitch": 60, "velocity": 92, "note_on_time": 5.407, "note_off_time": 5.864}, {"pitch": 64, "velocity": 84, "note_on_time": 6.177, "note_off_time": 6.356}, {"pitch": 60, "velocity": 92, "note_on_time": 6.456, "note_off_time": 6.611}, {"pitch": 62, "velocity": 90, "note_on_time": 6.732, "note_off_time": 7.22}, {"pitch": 60, "velocity": 97, "note_on_time": 7.288, "note_off_time": 8.254}, {"pitch": 60, "velocity": 92, "note_on_time": 9.221, "note_off_time": 9.723}]</notes><guidance name="Guidance Mode">None</guidance><error name="Error value">0.723509411764706</error></trial></trials></MIDI>