<MIDI midiNo="2022_12_01-11_01_26"><target_notes><notes name="Note List">[{"pitch": 42, "velocity": 80, "note_on_time": 0.004, "note_off_time": 0.226}, {"pitch": 42, "velocity": 80, "note_on_time": 0.227, "note_off_time": 0.445}, {"pitch": 42, "velocity": 80, "note_on_time": 0.445, "note_off_time": 0.662}, {"pitch": 42, "velocity": 80, "note_on_time": 0.662, "note_off_time": 0.88}, {"pitch": 64, "velocity": 80, "note_on_time": 0.88, "note_off_time": 1.096}, {"pitch": 42, "velocity": 80, "note_on_time": 0.88, "note_off_time": 1.096}, {"pitch": 65, "velocity": 80, "note_on_time": 1.096, "note_off_time": 1.316}, {"pitch": 42, "velocity": 80, "note_on_time": 1.096, "note_off_time": 1.316}, {"pitch": 42, "velocity": 80, "note_on_time": 1.316, "note_off_time": 1.535}, {"pitch": 67, "velocity": 80, "note_on_time": 1.316, "note_off_time": 1.751}, {"pitch": 42, "velocity": 80, "note_on_time": 1.535, "note_off_time": 1.751}, {"pitch": 64, "velocity": 80, "note_on_time": 1.751, "note_off_time": 1.967}, {"pitch": 42, "velocity": 80, "note_on_time": 1.751, "note_off_time": 1.967}, {"pitch": 67, "velocity": 80, "note_on_time": 1.967, "note_off_time": 2.188}, {"pitch": 42, "velocity": 80, "note_on_time": 1.967, "note_off_time": 2.188}, {"pitch": 42, "velocity": 80, "note_on_time": 2.188, "note_off_time": 2.405}, {"pitch": 67, "velocity": 80, "note_on_time": 2.405, "note_off_time": 2.623}, {"pitch": 42, "velocity": 80, "note_on_time": 2.405, "note_off_time": 2.623}, {"pitch": 67, "velocity": 80, "note_on_time": 2.623, "note_off_time": 2.841}, {"pitch": 42, "velocity": 80, "note_on_time": 2.623, "note_off_time": 2.841}, {"pitch": 67, "velocity": 80, "note_on_time": 2.841, "note_off_time": 3.057}, {"pitch": 42, "velocity": 80, "note_on_time": 2.841, "note_off_time": 3.057}, {"pitch": 65, "velocity": 80, "note_on_time": 3.057, "note_off_time": 3.274}, {"pitch": 42, "velocity": 80, "note_on_time": 3.058, "note_off_time": 3.274}, {"pitch": 62, "velocity": 80, "note_on_time": 3.274, "note_off_time": 3.492}, {"pitch": 42, "velocity": 80, "note_on_time": 3.275, "note_off_time": 3.492}, {"pitch": 42, "velocity": 80, "note_on_time": 3.492, "note_off_time": 3.71}, {"pitch": 65, "velocity": 80, "note_on_time": 3.492, "note_off_time": 3.929}, {"pitch": 42, "velocity": 80, "note_on_time": 3.71, "note_off_time": 3.929}, {"pitch": 42, "velocity": 80, "note_on_time": 3.929, "note_off_time": 4.146}, {"pitch": 65, "velocity": 80, "note_on_time": 4.146, "note_off_time": 4.365}, {"pitch": 42, "velocity": 80, "note_on_time": 4.146, "note_off_time": 4.365}, {"pitch": 60, "velocity": 80, "note_on_time": 4.365, "note_off_time": 4.584}, {"pitch": 42, "velocity": 80, "note_on_time": 4.365, "note_off_time": 4.584}, {"pitch": 67, "velocity": 80, "note_on_time": 4.584, "note_off_time": 4.801}, {"pitch": 42, "velocity": 80, "note_on_time": 4.584, "note_off_time": 4.801}, {"pitch": 64, "velocity": 80, "note_on_time": 4.801, "note_off_time": 5.018}, {"pitch": 42, "velocity": 80, "note_on_time": 4.801, "note_off_time": 5.018}, {"pitch": 65, "velocity": 80, "note_on_time": 5.018, "note_off_time": 5.236}, {"pitch": 42, "velocity": 80, "note_on_time": 5.018, "note_off_time": 5.236}, {"pitch": 64, "velocity": 80, "note_on_time": 5.236, "note_off_time": 5.453}, {"pitch": 42, "velocity": 80, "note_on_time": 5.236, "note_off_time": 5.453}, {"pitch": 42, "velocity": 80, "note_on_time": 5.453, "note_off_time": 5.672}, {"pitch": 67, "velocity": 80, "note_on_time": 5.453, "note_off_time": 5.889}, {"pitch": 42, "velocity": 80, "note_on_time": 5.672, "note_off_time": 5.89}, {"pitch": 60, "velocity": 80, "note_on_time": 5.889, "note_off_time": 6.108}, {"pitch": 42, "velocity": 80, "note_on_time": 5.89, "note_off_time": 6.108}, {"pitch": 60, "velocity": 80, "note_on_time": 6.108, "note_off_time": 6.325}, {"pitch": 42, "velocity": 80, "note_on_time": 6.108, "note_off_time": 6.325}, {"pitch": 42, "velocity": 80, "note_on_time": 6.325, "note_off_time": 6.543}, {"pitch": 42, "velocity": 80, "note_on_time": 6.543, "note_off_time": 6.763}, {"pitch": 64, "velocity": 80, "note_on_time": 6.763, "note_off_time": 6.98}, {"pitch": 42, "velocity": 80, "note_on_time": 6.763, "note_off_time": 6.98}, {"pitch": 42, "velocity": 80, "note_on_time": 6.98, "note_off_time": 7.198}, {"pitch": 64, "velocity": 80, "note_on_time": 7.198, "note_off_time": 7.415}, {"pitch": 42, "velocity": 80, "note_on_time": 7.198, "note_off_time": 7.415}, {"pitch": 64, "velocity": 80, "note_on_time": 7.415, "note_off_time": 7.632}, {"pitch": 42, "velocity": 80, "note_on_time": 7.415, "note_off_time": 7.633}, {"pitch": 64, "velocity": 80, "note_on_time": 7.632, "note_off_time": 7.85}, {"pitch": 42, "velocity": 80, "note_on_time": 7.633, "note_off_time": 7.85}]</notes><options name="Option List">((4, 4), [0.5, 0.25], 3, 8, &lt;NoteRangePerHand.C_TO_G: 6&gt;, &lt;NoteRangePerHand.ONE_NOTE: 2&gt;, False, True, False, 281)</options></target_notes><trials><trial trial_no="1" timestamp="2022_12_01-11_01_16"><notes name="Played Notes">[{"pitch": 64, "velocity": 77, "note_on_time": 0.878, "note_off_time": 1.091}, {"pitch": 65, "velocity": 59, "note_on_time": 1.051, "note_off_time": 1.325}, {"pitch": 67, "velocity": 61, "note_on_time": 1.303, "note_off_time": 1.75}, {"pitch": 64, "velocity": 68, "note_on_time": 1.737, "note_off_time": 1.957}, {"pitch": 67, "velocity": 70, "note_on_time": 1.927, "note_off_time": 2.221}, {"pitch": 67, "velocity": 68, "note_on_time": 2.368, "note_off_time": 2.444}, {"pitch": 67, "velocity": 76, "note_on_time": 2.599, "note_off_time": 2.709}, {"pitch": 67, "velocity": 68, "note_on_time": 2.845, "note_off_time": 3.078}, {"pitch": 65, "velocity": 70, "note_on_time": 3.056, "note_off_time": 3.243}, {"pitch": 62, "velocity": 68, "note_on_time": 3.241, "note_off_time": 3.532}, {"pitch": 65, "velocity": 82, "note_on_time": 3.498, "note_off_time": 4.071}, {"pitch": 65, "velocity": 80, "note_on_time": 4.183, "note_off_time": 4.379}, {"pitch": 60, "velocity": 79, "note_on_time": 4.389, "note_off_time": 4.629}, {"pitch": 67, "velocity": 73, "note_on_time": 4.622, "note_off_time": 4.865}, {"pitch": 64, "velocity": 69, "note_on_time": 4.829, "note_off_time": 5.077}, {"pitch": 65, "velocity": 67, "note_on_time": 5.05, "note_off_time": 5.29}, {"pitch": 64, "velocity": 73, "note_on_time": 5.276, "note_off_time": 5.518}, {"pitch": 67, "velocity": 72, "note_on_time": 5.486, "note_off_time": 5.892}, {"pitch": 60, "velocity": 77, "note_on_time": 5.901, "note_off_time": 6.093}, {"pitch": 60, "velocity": 85, "note_on_time": 6.264, "note_off_time": 6.382}, {"pitch": 64, "velocity": 74, "note_on_time": 6.698, "note_off_time": 6.849}, {"pitch": 64, "velocity": 74, "note_on_time": 7.331, "note_off_time": 7.41}, {"pitch": 64, "velocity": 82, "note_on_time": 7.576, "note_off_time": 7.65}]</notes><guidance name="Guidance Mode">None</guidance><error name="Error value">0.09344909523809516</error></trial><trial trial_no="2" timestamp="2022_12_01-11_01_47"><notes name="Played Notes">[{"pitch": 64, "velocity": 52, "note_on_time": 0.908, "note_off_time": 1.155}, {"pitch": 65, "velocity": 70, "note_on_time": 1.112, "note_off_time": 1.379}, {"pitch": 67, "velocity": 70, "note_on_time": 1.361, "note_off_time": 1.809}, {"pitch": 64, "velocity": 63, "note_on_time": 1.798, "note_off_time": 2.08}, {"pitch": 67, "velocity": 68, "note_on_time": 2.05, "note_off_time": 2.342}, {"pitch": 67, "velocity": 62, "note_on_time": 2.468, "note_off_time": 2.545}, {"pitch": 67, "velocity": 62, "note_on_time": 2.677, "note_off_time": 2.774}, {"pitch": 67, "velocity": 59, "note_on_time": 2.912, "note_off_time": 3.178}, {"pitch": 65, "velocity": 66, "note_on_time": 3.136, "note_off_time": 3.361}, {"pitch": 62, "velocity": 55, "note_on_time": 3.373, "note_off_time": 3.676}, {"pitch": 65, "velocity": 68, "note_on_time": 3.618, "note_off_time": 4.256}, {"pitch": 65, "velocity": 66, "note_on_time": 4.376, "note_off_time": 4.574}, {"pitch": 60, "velocity": 65, "note_on_time": 4.588, "note_off_time": 4.82}, {"pitch": 67, "velocity": 58, "note_on_time": 4.805, "note_off_time": 5.076}, {"pitch": 64, "velocity": 58, "note_on_time": 5.037, "note_off_time": 5.259}, {"pitch": 65, "velocity": 67, "note_on_time": 5.242, "note_off_time": 5.491}, {"pitch": 64, "velocity": 68, "note_on_time": 5.471, "note_off_time": 5.725}, {"pitch": 67, "velocity": 65, "note_on_time": 5.701, "note_off_time": 6.177}, {"pitch": 60, "velocity": 57, "note_on_time": 6.156, "note_off_time": 6.364}, {"pitch": 60, "velocity": 66, "note_on_time": 6.497, "note_off_time": 6.803}, {"pitch": 64, "velocity": 74, "note_on_time": 6.935, "note_off_time": 7.247}, {"pitch": 64, "velocity": 70, "note_on_time": 7.641, "note_off_time": 7.713}]</notes><guidance name="Guidance Mode">None</guidance><error name="Error value">0.1504923333333333</error></trial><trial trial_no="3" timestamp="2022_12_01-11_02_15"><notes name="Played Notes">[{"pitch": 64, "velocity": 53, "note_on_time": 0.89, "note_off_time": 1.089}, {"pitch": 65, "velocity": 66, "note_on_time": 1.047, "note_off_time": 1.329}, {"pitch": 67, "velocity": 69, "note_on_time": 1.308, "note_off_time": 1.762}, {"pitch": 64, "velocity": 69, "note_on_time": 1.744, "note_off_time": 2.006}, {"pitch": 67, "velocity": 68, "note_on_time": 1.973, "note_off_time": 2.29}, {"pitch": 67, "velocity": 67, "note_on_time": 2.386, "note_off_time": 2.474}, {"pitch": 67, "velocity": 67, "note_on_time": 2.59, "note_off_time": 2.681}, {"pitch": 67, "velocity": 64, "note_on_time": 2.793, "note_off_time": 3.062}, {"pitch": 65, "velocity": 77, "note_on_time": 3.012, "note_off_time": 3.237}, {"pitch": 62, "velocity": 69, "note_on_time": 3.229, "note_off_time": 3.503}, {"pitch": 65, "velocity": 76, "note_on_time": 3.475, "note_off_time": 4.001}, {"pitch": 65, "velocity": 80, "note_on_time": 4.163, "note_off_time": 4.375}, {"pitch": 60, "velocity": 76, "note_on_time": 4.379, "note_off_time": 4.597}, {"pitch": 67, "velocity": 75, "note_on_time": 4.607, "note_off_time": 4.836}, {"pitch": 64, "velocity": 77, "note_on_time": 4.815, "note_off_time": 5.047}, {"pitch": 65, "velocity": 74, "note_on_time": 5.026, "note_off_time": 5.277}, {"pitch": 64, "velocity": 78, "note_on_time": 5.26, "note_off_time": 5.498}, {"pitch": 67, "velocity": 73, "note_on_time": 5.478, "note_off_time": 5.946}, {"pitch": 60, "velocity": 74, "note_on_time": 5.933, "note_off_time": 6.085}, {"pitch": 60, "velocity": 88, "note_on_time": 6.168, "note_off_time": 6.41}, {"pitch": 64, "velocity": 81, "note_on_time": 6.761, "note_off_time": 7.007}, {"pitch": 64, "velocity": 74, "note_on_time": 7.233, "note_off_time": 7.293}, {"pitch": 64, "velocity": 83, "note_on_time": 7.443, "note_off_time": 7.524}, {"pitch": 64, "velocity": 81, "note_on_time": 7.677, "note_off_time": 7.777}]</notes><guidance name="Guidance Mode">None</guidance><error name="Error value">0.022252047619047585</error></trial></trials></MIDI>