<MIDI midiNo="2022_12_08-11_58_30"><target_notes><notes name="Note List">[{"pitch": 42, "velocity": 80, "note_on_time": 0.004, "note_off_time": 0.34}, {"pitch": 42, "velocity": 80, "note_on_time": 0.34, "note_off_time": 0.685}, {"pitch": 42, "velocity": 80, "note_on_time": 0.685, "note_off_time": 1.027}, {"pitch": 42, "velocity": 80, "note_on_time": 1.027, "note_off_time": 1.368}, {"pitch": 64, "velocity": 80, "note_on_time": 1.368, "note_off_time": 1.712}, {"pitch": 42, "velocity": 80, "note_on_time": 1.368, "note_off_time": 1.712}, {"pitch": 60, "velocity": 80, "note_on_time": 1.712, "note_off_time": 2.055}, {"pitch": 42, "velocity": 80, "note_on_time": 1.712, "note_off_time": 2.055}, {"pitch": 67, "velocity": 80, "note_on_time": 2.055, "note_off_time": 2.399}, {"pitch": 42, "velocity": 80, "note_on_time": 2.055, "note_off_time": 2.399}, {"pitch": 67, "velocity": 80, "note_on_time": 2.399, "note_off_time": 2.742}, {"pitch": 42, "velocity": 80, "note_on_time": 2.399, "note_off_time": 2.742}, {"pitch": 65, "velocity": 80, "note_on_time": 2.742, "note_off_time": 3.085}, {"pitch": 42, "velocity": 80, "note_on_time": 2.742, "note_off_time": 3.085}, {"pitch": 42, "velocity": 80, "note_on_time": 3.085, "note_off_time": 3.429}, {"pitch": 42, "velocity": 80, "note_on_time": 3.429, "note_off_time": 3.773}, {"pitch": 62, "velocity": 80, "note_on_time": 3.773, "note_off_time": 4.116}, {"pitch": 42, "velocity": 80, "note_on_time": 3.773, "note_off_time": 4.117}, {"pitch": 42, "velocity": 80, "note_on_time": 4.117, "note_off_time": 4.459}, {"pitch": 64, "velocity": 80, "note_on_time": 4.116, "note_off_time": 4.802}, {"pitch": 42, "velocity": 80, "note_on_time": 4.46, "note_off_time": 4.802}, {"pitch": 42, "velocity": 80, "note_on_time": 4.802, "note_off_time": 5.146}, {"pitch": 42, "velocity": 80, "note_on_time": 5.146, "note_off_time": 5.488}, {"pitch": 42, "velocity": 80, "note_on_time": 5.488, "note_off_time": 5.831}, {"pitch": 67, "velocity": 80, "note_on_time": 5.488, "note_off_time": 6.173}, {"pitch": 42, "velocity": 80, "note_on_time": 5.831, "note_off_time": 6.173}, {"pitch": 60, "velocity": 80, "note_on_time": 6.173, "note_off_time": 6.516}, {"pitch": 42, "velocity": 80, "note_on_time": 6.174, "note_off_time": 6.516}, {"pitch": 67, "velocity": 80, "note_on_time": 6.516, "note_off_time": 6.859}, {"pitch": 42, "velocity": 80, "note_on_time": 6.517, "note_off_time": 6.859}, {"pitch": 42, "velocity": 80, "note_on_time": 6.859, "note_off_time": 7.201}, {"pitch": 60, "velocity": 80, "note_on_time": 6.859, "note_off_time": 7.545}, {"pitch": 42, "velocity": 80, "note_on_time": 7.201, "note_off_time": 7.545}, {"pitch": 42, "velocity": 80, "note_on_time": 7.545, "note_off_time": 7.885}, {"pitch": 67, "velocity": 80, "note_on_time": 7.545, "note_off_time": 8.227}, {"pitch": 42, "velocity": 80, "note_on_time": 7.885, "note_off_time": 8.227}, {"pitch": 60, "velocity": 80, "note_on_time": 8.227, "note_off_time": 8.569}, {"pitch": 42, "velocity": 80, "note_on_time": 8.228, "note_off_time": 8.569}, {"pitch": 62, "velocity": 80, "note_on_time": 8.569, "note_off_time": 8.911}, {"pitch": 42, "velocity": 80, "note_on_time": 8.57, "note_off_time": 8.911}, {"pitch": 64, "velocity": 80, "note_on_time": 8.911, "note_off_time": 9.253}, {"pitch": 42, "velocity": 80, "note_on_time": 8.911, "note_off_time": 9.253}, {"pitch": 67, "velocity": 80, "note_on_time": 9.253, "note_off_time": 9.594}, {"pitch": 42, "velocity": 80, "note_on_time": 9.253, "note_off_time": 9.595}, {"pitch": 42, "velocity": 80, "note_on_time": 9.595, "note_off_time": 9.936}, {"pitch": 64, "velocity": 80, "note_on_time": 9.594, "note_off_time": 10.281}, {"pitch": 42, "velocity": 80, "note_on_time": 9.936, "note_off_time": 10.281}, {"pitch": 62, "velocity": 80, "note_on_time": 10.281, "note_off_time": 10.624}, {"pitch": 42, "velocity": 80, "note_on_time": 10.282, "note_off_time": 10.624}, {"pitch": 42, "velocity": 80, "note_on_time": 10.624, "note_off_time": 10.966}, {"pitch": 42, "velocity": 80, "note_on_time": 10.967, "note_off_time": 11.308}, {"pitch": 62, "velocity": 80, "note_on_time": 11.308, "note_off_time": 11.652}, {"pitch": 42, "velocity": 80, "note_on_time": 11.309, "note_off_time": 11.652}, {"pitch": 62, "velocity": 80, "note_on_time": 11.652, "note_off_time": 11.995}, {"pitch": 42, "velocity": 80, "note_on_time": 11.652, "note_off_time": 11.995}, {"pitch": 62, "velocity": 80, "note_on_time": 11.995, "note_off_time": 12.339}, {"pitch": 42, "velocity": 80, "note_on_time": 11.996, "note_off_time": 12.339}]</notes><options name="Option List">((4, 4), [0.5, 0.25], 3, 8, &lt;NoteRangePerHand.C_TO_G: 6&gt;, &lt;NoteRangePerHand.ONE_NOTE: 2&gt;, False, True, False, 182)</options></target_notes><trials><trial trial_no="1" timestamp="2022_12_08-11_58_16"><notes name="Played Notes">[{"pitch": 64, "velocity": 84, "note_on_time": 1.414, "note_off_time": 1.618}, {"pitch": 60, "velocity": 87, "note_on_time": 1.73, "note_off_time": 1.88}, {"pitch": 67, "velocity": 84, "note_on_time": 2.066, "note_off_time": 2.224}, {"pitch": 67, "velocity": 79, "note_on_time": 2.407, "note_off_time": 2.597}, {"pitch": 65, "velocity": 98, "note_on_time": 2.751, "note_off_time": 3.005}, {"pitch": 62, "velocity": 84, "note_on_time": 3.772, "note_off_time": 3.924}, {"pitch": 64, "velocity": 99, "note_on_time": 4.127, "note_off_time": 4.7}, {"pitch": 67, "velocity": 92, "note_on_time": 5.215, "note_off_time": 5.759}, {"pitch": 60, "velocity": 84, "note_on_time": 6.182, "note_off_time": 6.308}, {"pitch": 67, "velocity": 83, "note_on_time": 6.51, "note_off_time": 6.646}, {"pitch": 60, "velocity": 86, "note_on_time": 6.833, "note_off_time": 7.417}, {"pitch": 67, "velocity": 81, "note_on_time": 7.552, "note_off_time": 8.044}, {"pitch": 60, "velocity": 85, "note_on_time": 8.225, "note_off_time": 8.361}, {"pitch": 62, "velocity": 74, "note_on_time": 8.564, "note_off_time": 8.719}, {"pitch": 64, "velocity": 81, "note_on_time": 8.896, "note_off_time": 9.066}, {"pitch": 67, "velocity": 75, "note_on_time": 9.249, "note_off_time": 9.424}, {"pitch": 64, "velocity": 90, "note_on_time": 9.592, "note_off_time": 10.221}, {"pitch": 62, "velocity": 92, "note_on_time": 10.312, "note_off_time": 10.717}, {"pitch": 62, "velocity": 84, "note_on_time": 11.288, "note_off_time": 11.447}, {"pitch": 62, "velocity": 86, "note_on_time": 11.626, "note_off_time": 11.751}, {"pitch": 62, "velocity": 94, "note_on_time": 11.957, "note_off_time": 12.064}]</notes><guidance name="Guidance Mode">None</guidance><error name="Error value">0.04747944444444436</error></trial></trials></MIDI>