<MIDI midiNo="2022_09_22-12_46_15"><target_notes><notes name="Note List">[{"pitch": 42, "velocity": 80, "note_on_time": 0.004, "note_off_time": 0.615}, {"pitch": 42, "velocity": 80, "note_on_time": 0.615, "note_off_time": 1.224}, {"pitch": 42, "velocity": 80, "note_on_time": 1.225, "note_off_time": 1.835}, {"pitch": 42, "velocity": 80, "note_on_time": 1.835, "note_off_time": 2.443}, {"pitch": 42, "velocity": 80, "note_on_time": 2.443, "note_off_time": 3.05}, {"pitch": 60, "velocity": 80, "note_on_time": 2.442, "note_off_time": 3.657}, {"pitch": 42, "velocity": 80, "note_on_time": 3.05, "note_off_time": 3.657}, {"pitch": 62, "velocity": 80, "note_on_time": 3.657, "note_off_time": 4.268}, {"pitch": 42, "velocity": 80, "note_on_time": 3.657, "note_off_time": 4.268}, {"pitch": 62, "velocity": 80, "note_on_time": 4.268, "note_off_time": 4.877}, {"pitch": 42, "velocity": 80, "note_on_time": 4.268, "note_off_time": 4.877}, {"pitch": 62, "velocity": 80, "note_on_time": 4.877, "note_off_time": 5.484}, {"pitch": 42, "velocity": 80, "note_on_time": 4.877, "note_off_time": 5.484}, {"pitch": 62, "velocity": 80, "note_on_time": 5.484, "note_off_time": 6.092}, {"pitch": 42, "velocity": 80, "note_on_time": 5.485, "note_off_time": 6.092}, {"pitch": 62, "velocity": 80, "note_on_time": 6.092, "note_off_time": 6.702}, {"pitch": 42, "velocity": 80, "note_on_time": 6.093, "note_off_time": 6.702}, {"pitch": 60, "velocity": 80, "note_on_time": 6.702, "note_off_time": 7.31}, {"pitch": 42, "velocity": 80, "note_on_time": 6.703, "note_off_time": 7.31}, {"pitch": 60, "velocity": 80, "note_on_time": 7.31, "note_off_time": 7.92}, {"pitch": 42, "velocity": 80, "note_on_time": 7.31, "note_off_time": 7.92}, {"pitch": 62, "velocity": 80, "note_on_time": 7.92, "note_off_time": 8.529}, {"pitch": 42, "velocity": 80, "note_on_time": 7.92, "note_off_time": 8.529}, {"pitch": 60, "velocity": 80, "note_on_time": 8.529, "note_off_time": 9.139}, {"pitch": 42, "velocity": 80, "note_on_time": 8.529, "note_off_time": 9.139}, {"pitch": 42, "velocity": 80, "note_on_time": 9.139, "note_off_time": 9.746}, {"pitch": 60, "velocity": 80, "note_on_time": 9.746, "note_off_time": 10.359}, {"pitch": 42, "velocity": 80, "note_on_time": 9.746, "note_off_time": 10.359}, {"pitch": 62, "velocity": 80, "note_on_time": 10.359, "note_off_time": 10.967}, {"pitch": 42, "velocity": 80, "note_on_time": 10.359, "note_off_time": 10.967}, {"pitch": 62, "velocity": 80, "note_on_time": 10.967, "note_off_time": 11.575}, {"pitch": 42, "velocity": 80, "note_on_time": 10.967, "note_off_time": 11.576}, {"pitch": 60, "velocity": 80, "note_on_time": 11.575, "note_off_time": 12.185}, {"pitch": 42, "velocity": 80, "note_on_time": 11.576, "note_off_time": 12.186}, {"pitch": 60, "velocity": 80, "note_on_time": 12.185, "note_off_time": 12.793}, {"pitch": 42, "velocity": 80, "note_on_time": 12.186, "note_off_time": 12.793}, {"pitch": 62, "velocity": 80, "note_on_time": 12.793, "note_off_time": 13.402}, {"pitch": 42, "velocity": 80, "note_on_time": 12.793, "note_off_time": 13.402}, {"pitch": 62, "velocity": 80, "note_on_time": 13.402, "note_off_time": 14.009}, {"pitch": 42, "velocity": 80, "note_on_time": 13.402, "note_off_time": 14.01}, {"pitch": 62, "velocity": 80, "note_on_time": 14.009, "note_off_time": 14.619}, {"pitch": 42, "velocity": 80, "note_on_time": 14.01, "note_off_time": 14.619}, {"pitch": 62, "velocity": 80, "note_on_time": 14.619, "note_off_time": 15.226}, {"pitch": 42, "velocity": 80, "note_on_time": 14.62, "note_off_time": 15.226}, {"pitch": 60, "velocity": 80, "note_on_time": 15.226, "note_off_time": 15.835}, {"pitch": 42, "velocity": 80, "note_on_time": 15.227, "note_off_time": 15.836}, {"pitch": 60, "velocity": 80, "note_on_time": 15.835, "note_off_time": 16.448}, {"pitch": 42, "velocity": 80, "note_on_time": 15.836, "note_off_time": 16.448}, {"pitch": 62, "velocity": 80, "note_on_time": 16.448, "note_off_time": 17.059}, {"pitch": 42, "velocity": 80, "note_on_time": 16.448, "note_off_time": 17.059}, {"pitch": 42, "velocity": 80, "note_on_time": 17.06, "note_off_time": 17.67}, {"pitch": 62, "velocity": 80, "note_on_time": 17.059, "note_off_time": 18.279}, {"pitch": 42, "velocity": 80, "note_on_time": 17.67, "note_off_time": 18.279}, {"pitch": 62, "velocity": 80, "note_on_time": 18.279, "note_off_time": 18.887}, {"pitch": 42, "velocity": 80, "note_on_time": 18.28, "note_off_time": 18.887}, {"pitch": 62, "velocity": 80, "note_on_time": 18.887, "note_off_time": 19.494}, {"pitch": 42, "velocity": 80, "note_on_time": 18.887, "note_off_time": 19.494}, {"pitch": 42, "velocity": 80, "note_on_time": 19.494, "note_off_time": 20.105}, {"pitch": 62, "velocity": 80, "note_on_time": 20.105, "note_off_time": 20.715}, {"pitch": 42, "velocity": 80, "note_on_time": 20.105, "note_off_time": 20.715}, {"pitch": 62, "velocity": 80, "note_on_time": 20.715, "note_off_time": 21.323}, {"pitch": 42, "velocity": 80, "note_on_time": 20.715, "note_off_time": 21.324}, {"pitch": 62, "velocity": 80, "note_on_time": 21.323, "note_off_time": 21.932}, {"pitch": 42, "velocity": 80, "note_on_time": 21.324, "note_off_time": 21.932}]</notes><options name="Option List">((4, 4), [0.5, 0.25], 3, 8, &lt;NoteRangePerHand.TWO_NOTES: 3&gt;, &lt;NoteRangePerHand.ONE_NOTE: 2&gt;, False, True, True, 100)</options></target_notes><trials><trial trial_no="1" timestamp="2022_09_22-12_45_52"><notes name="Played Notes">[{"pitch": 60, "velocity": 39, "note_on_time": 2.451, "note_off_time": 3.533}, {"pitch": 62, "velocity": 38, "note_on_time": 3.577, "note_off_time": 4.043}, {"pitch": 62, "velocity": 34, "note_on_time": 4.247, "note_off_time": 4.658}, {"pitch": 62, "velocity": 32, "note_on_time": 4.888, "note_off_time": 5.231}, {"pitch": 62, "velocity": 32, "note_on_time": 5.454, "note_off_time": 5.842}, {"pitch": 62, "velocity": 39, "note_on_time": 6.062, "note_off_time": 6.517}, {"pitch": 60, "velocity": 32, "note_on_time": 6.697, "note_off_time": 7.13}, {"pitch": 60, "velocity": 41, "note_on_time": 7.337, "note_off_time": 7.784}, {"pitch": 62, "velocity": 38, "note_on_time": 7.935, "note_off_time": 8.456}, {"pitch": 60, "velocity": 30, "note_on_time": 8.528, "note_off_time": 9.096}, {"pitch": 60, "velocity": 33, "note_on_time": 9.74, "note_off_time": 10.273}, {"pitch": 62, "velocity": 31, "note_on_time": 10.287, "note_off_time": 10.686}, {"pitch": 62, "velocity": 37, "note_on_time": 10.934, "note_off_time": 11.486}, {"pitch": 60, "velocity": 18, "note_on_time": 11.552, "note_off_time": 11.986}, {"pitch": 60, "velocity": 28, "note_on_time": 12.162, "note_off_time": 12.723}, {"pitch": 62, "velocity": 36, "note_on_time": 12.779, "note_off_time": 13.159}, {"pitch": 62, "velocity": 27, "note_on_time": 13.389, "note_off_time": 13.733}, {"pitch": 62, "velocity": 32, "note_on_time": 14.0, "note_off_time": 14.376}, {"pitch": 62, "velocity": 23, "note_on_time": 14.648, "note_off_time": 15.064}, {"pitch": 60, "velocity": 19, "note_on_time": 15.242, "note_off_time": 15.556}, {"pitch": 60, "velocity": 26, "note_on_time": 15.838, "note_off_time": 16.226}, {"pitch": 62, "velocity": 27, "note_on_time": 16.458, "note_off_time": 16.786}, {"pitch": 62, "velocity": 31, "note_on_time": 17.079, "note_off_time": 18.0}, {"pitch": 62, "velocity": 32, "note_on_time": 18.274, "note_off_time": 18.65}, {"pitch": 62, "velocity": 33, "note_on_time": 18.929, "note_off_time": 19.486}, {"pitch": 62, "velocity": 21, "note_on_time": 20.086, "note_off_time": 20.452}, {"pitch": 62, "velocity": 23, "note_on_time": 20.739, "note_off_time": 21.075}, {"pitch": 62, "velocity": 23, "note_on_time": 21.341, "note_off_time": 21.731}]</notes><guidance name="Guidance Mode">None</guidance><error name="Error value">0.029839999999999946</error></trial></trials></MIDI>