<MIDI midiNo="2022_09_08-12_30_05"><target_notes><notes name="Note List">[{"pitch": 42, "velocity": 80, "note_on_time": 0.004, "note_off_time": 0.322}, {"pitch": 42, "velocity": 80, "note_on_time": 0.323, "note_off_time": 0.645}, {"pitch": 42, "velocity": 80, "note_on_time": 0.645, "note_off_time": 0.956}, {"pitch": 42, "velocity": 80, "note_on_time": 0.956, "note_off_time": 1.267}, {"pitch": 60, "velocity": 80, "note_on_time": 1.267, "note_off_time": 1.579}, {"pitch": 42, "velocity": 80, "note_on_time": 1.267, "note_off_time": 1.579}, {"pitch": 60, "velocity": 80, "note_on_time": 1.579, "note_off_time": 1.888}, {"pitch": 42, "velocity": 80, "note_on_time": 1.58, "note_off_time": 1.888}, {"pitch": 42, "velocity": 80, "note_on_time": 1.888, "note_off_time": 2.202}, {"pitch": 62, "velocity": 80, "note_on_time": 1.888, "note_off_time": 2.512}, {"pitch": 42, "velocity": 80, "note_on_time": 2.203, "note_off_time": 2.512}, {"pitch": 64, "velocity": 80, "note_on_time": 2.512, "note_off_time": 2.821}, {"pitch": 42, "velocity": 80, "note_on_time": 2.512, "note_off_time": 2.821}, {"pitch": 42, "velocity": 80, "note_on_time": 2.822, "note_off_time": 3.132}, {"pitch": 62, "velocity": 80, "note_on_time": 2.821, "note_off_time": 3.444}, {"pitch": 42, "velocity": 80, "note_on_time": 3.132, "note_off_time": 3.444}, {"pitch": 42, "velocity": 80, "note_on_time": 3.444, "note_off_time": 3.754}, {"pitch": 60, "velocity": 80, "note_on_time": 3.754, "note_off_time": 4.068}, {"pitch": 42, "velocity": 80, "note_on_time": 3.754, "note_off_time": 4.068}, {"pitch": 64, "velocity": 80, "note_on_time": 4.068, "note_off_time": 4.379}, {"pitch": 42, "velocity": 80, "note_on_time": 4.068, "note_off_time": 4.38}, {"pitch": 64, "velocity": 80, "note_on_time": 4.379, "note_off_time": 4.69}, {"pitch": 42, "velocity": 80, "note_on_time": 4.38, "note_off_time": 4.69}, {"pitch": 64, "velocity": 80, "note_on_time": 4.69, "note_off_time": 4.999}, {"pitch": 42, "velocity": 80, "note_on_time": 4.691, "note_off_time": 4.999}, {"pitch": 42, "velocity": 80, "note_on_time": 4.999, "note_off_time": 5.312}, {"pitch": 62, "velocity": 80, "note_on_time": 4.999, "note_off_time": 5.622}, {"pitch": 42, "velocity": 80, "note_on_time": 5.313, "note_off_time": 5.623}, {"pitch": 62, "velocity": 80, "note_on_time": 5.622, "note_off_time": 5.935}, {"pitch": 42, "velocity": 80, "note_on_time": 5.623, "note_off_time": 5.936}, {"pitch": 42, "velocity": 80, "note_on_time": 5.936, "note_off_time": 6.247}, {"pitch": 60, "velocity": 80, "note_on_time": 6.246, "note_off_time": 6.557}, {"pitch": 42, "velocity": 80, "note_on_time": 6.247, "note_off_time": 6.557}, {"pitch": 42, "velocity": 80, "note_on_time": 6.558, "note_off_time": 6.869}, {"pitch": 42, "velocity": 80, "note_on_time": 6.869, "note_off_time": 7.181}, {"pitch": 42, "velocity": 80, "note_on_time": 7.182, "note_off_time": 7.492}, {"pitch": 62, "velocity": 80, "note_on_time": 7.492, "note_off_time": 7.804}, {"pitch": 42, "velocity": 80, "note_on_time": 7.492, "note_off_time": 7.805}, {"pitch": 60, "velocity": 80, "note_on_time": 7.804, "note_off_time": 8.115}, {"pitch": 42, "velocity": 80, "note_on_time": 7.805, "note_off_time": 8.115}, {"pitch": 60, "velocity": 80, "note_on_time": 8.115, "note_off_time": 8.428}, {"pitch": 42, "velocity": 80, "note_on_time": 8.115, "note_off_time": 8.428}, {"pitch": 60, "velocity": 80, "note_on_time": 8.428, "note_off_time": 8.74}, {"pitch": 42, "velocity": 80, "note_on_time": 8.428, "note_off_time": 8.74}, {"pitch": 60, "velocity": 80, "note_on_time": 8.74, "note_off_time": 9.052}, {"pitch": 42, "velocity": 80, "note_on_time": 8.741, "note_off_time": 9.052}, {"pitch": 64, "velocity": 80, "note_on_time": 9.052, "note_off_time": 9.364}, {"pitch": 42, "velocity": 80, "note_on_time": 9.052, "note_off_time": 9.364}, {"pitch": 62, "velocity": 80, "note_on_time": 9.364, "note_off_time": 9.675}, {"pitch": 42, "velocity": 80, "note_on_time": 9.365, "note_off_time": 9.675}, {"pitch": 62, "velocity": 80, "note_on_time": 9.675, "note_off_time": 9.988}, {"pitch": 42, "velocity": 80, "note_on_time": 9.676, "note_off_time": 9.988}, {"pitch": 42, "velocity": 80, "note_on_time": 9.988, "note_off_time": 10.3}, {"pitch": 62, "velocity": 80, "note_on_time": 10.299, "note_off_time": 10.609}, {"pitch": 42, "velocity": 80, "note_on_time": 10.3, "note_off_time": 10.609}, {"pitch": 62, "velocity": 80, "note_on_time": 10.609, "note_off_time": 10.924}, {"pitch": 42, "velocity": 80, "note_on_time": 10.61, "note_off_time": 10.924}, {"pitch": 62, "velocity": 80, "note_on_time": 10.924, "note_off_time": 11.237}, {"pitch": 42, "velocity": 80, "note_on_time": 10.924, "note_off_time": 11.237}]</notes><options name="Option List">((4, 4), [0.5, 0.25], 3, 8, &lt;NoteRangePerHand.THREE_NOTES: 4&gt;, &lt;NoteRangePerHand.ONE_NOTE: 2&gt;, False, True, True, '195')</options></target_notes><trials><trial trial_no="1" timestamp="2022_09_08-12_29_52"><notes name="Played Notes">[{"pitch": 60, "velocity": 91, "note_on_time": 1.276, "note_off_time": 1.391}, {"pitch": 60, "velocity": 92, "note_on_time": 1.585, "note_off_time": 1.734}, {"pitch": 62, "velocity": 103, "note_on_time": 1.911, "note_off_time": 2.391}, {"pitch": 64, "velocity": 98, "note_on_time": 2.579, "note_off_time": 2.753}, {"pitch": 62, "velocity": 104, "note_on_time": 2.909, "note_off_time": 3.336}, {"pitch": 60, "velocity": 103, "note_on_time": 3.548, "note_off_time": 3.714}, {"pitch": 64, "velocity": 91, "note_on_time": 3.903, "note_off_time": 4.026}, {"pitch": 64, "velocity": 90, "note_on_time": 4.233, "note_off_time": 4.366}, {"pitch": 64, "velocity": 101, "note_on_time": 4.553, "note_off_time": 4.712}, {"pitch": 64, "velocity": 89, "note_on_time": 4.879, "note_off_time": 5.032}, {"pitch": 62, "velocity": 99, "note_on_time": 5.206, "note_off_time": 5.328}, {"pitch": 62, "velocity": 95, "note_on_time": 5.573, "note_off_time": 6.058}, {"pitch": 60, "velocity": 101, "note_on_time": 6.593, "note_off_time": 6.749}, {"pitch": 62, "velocity": 93, "note_on_time": 6.934, "note_off_time": 7.048}, {"pitch": 62, "velocity": 90, "note_on_time": 7.262, "note_off_time": 7.375}, {"pitch": 62, "velocity": 77, "note_on_time": 7.614, "note_off_time": 7.784}, {"pitch": 60, "velocity": 93, "note_on_time": 7.9, "note_off_time": 8.037}, {"pitch": 60, "velocity": 88, "note_on_time": 8.256, "note_off_time": 8.395}, {"pitch": 60, "velocity": 90, "note_on_time": 8.595, "note_off_time": 8.746}, {"pitch": 64, "velocity": 81, "note_on_time": 8.918, "note_off_time": 9.076}, {"pitch": 62, "velocity": 83, "note_on_time": 9.256, "note_off_time": 9.389}, {"pitch": 62, "velocity": 77, "note_on_time": 9.598, "note_off_time": 9.729}, {"pitch": 62, "velocity": 87, "note_on_time": 9.987, "note_off_time": 10.072}, {"pitch": 62, "velocity": 86, "note_on_time": 10.329, "note_off_time": 10.434}, {"pitch": 62, "velocity": 81, "note_on_time": 10.63, "note_off_time": 10.753}, {"pitch": 62, "velocity": 90, "note_on_time": 10.947, "note_off_time": 11.05}]</notes><guidance name="Guidance Mode">None</guidance><error name="Error value">0.7110269999999999</error></trial><trial trial_no="2" timestamp="2022_09_08-12_30_43"><notes name="Played Notes">[{"pitch": 60, "velocity": 90, "note_on_time": 1.317, "note_off_time": 1.465}, {"pitch": 60, "velocity": 89, "note_on_time": 1.645, "note_off_time": 1.824}, {"pitch": 62, "velocity": 98, "note_on_time": 1.984, "note_off_time": 2.689}, {"pitch": 64, "velocity": 95, "note_on_time": 2.894, "note_off_time": 3.046}, {"pitch": 62, "velocity": 98, "note_on_time": 3.26, "note_off_time": 4.032}, {"pitch": 60, "velocity": 93, "note_on_time": 4.741, "note_off_time": 4.868}, {"pitch": 64, "velocity": 92, "note_on_time": 5.11, "note_off_time": 5.244}, {"pitch": 64, "velocity": 95, "note_on_time": 5.45, "note_off_time": 5.563}, {"pitch": 64, "velocity": 97, "note_on_time": 5.806, "note_off_time": 5.934}, {"pitch": 64, "velocity": 89, "note_on_time": 6.134, "note_off_time": 6.274}, {"pitch": 62, "velocity": 98, "note_on_time": 6.477, "note_off_time": 7.089}, {"pitch": 62, "velocity": 88, "note_on_time": 7.284, "note_off_time": 7.481}, {"pitch": 60, "velocity": 102, "note_on_time": 8.138, "note_off_time": 8.358}, {"pitch": 62, "velocity": 95, "note_on_time": 9.03, "note_off_time": 9.189}, {"pitch": 60, "velocity": 98, "note_on_time": 9.364, "note_off_time": 9.506}, {"pitch": 60, "velocity": 96, "note_on_time": 9.696, "note_off_time": 9.834}, {"pitch": 60, "velocity": 92, "note_on_time": 10.021, "note_off_time": 10.14}, {"pitch": 60, "velocity": 85, "note_on_time": 10.364, "note_off_time": 10.497}, {"pitch": 64, "velocity": 93, "note_on_time": 10.68, "note_off_time": 10.812}, {"pitch": 62, "velocity": 90, "note_on_time": 10.992, "note_off_time": 11.102}]</notes><guidance name="Guidance Mode">None</guidance><error name="Error value">0.6459348000000003</error></trial><trial trial_no="3" timestamp="2022_09_08-12_31_11"><notes name="Played Notes">[{"pitch": 60, "velocity": 94, "note_on_time": 1.25, "note_off_time": 1.406}, {"pitch": 60, "velocity": 91, "note_on_time": 1.56, "note_off_time": 1.715}, {"pitch": 62, "velocity": 103, "note_on_time": 1.894, "note_off_time": 2.368}, {"pitch": 64, "velocity": 94, "note_on_time": 2.575, "note_off_time": 2.753}, {"pitch": 62, "velocity": 108, "note_on_time": 2.934, "note_off_time": 3.376}, {"pitch": 60, "velocity": 96, "note_on_time": 3.834, "note_off_time": 4.0}, {"pitch": 64, "velocity": 94, "note_on_time": 4.167, "note_off_time": 4.26}, {"pitch": 64, "velocity": 85, "note_on_time": 4.479, "note_off_time": 4.575}, {"pitch": 64, "velocity": 88, "note_on_time": 4.792, "note_off_time": 4.909}, {"pitch": 62, "velocity": 75, "note_on_time": 5.116, "note_off_time": 5.217}, {"pitch": 62, "velocity": 33, "note_on_time": 5.612, "note_off_time": 5.885}, {"pitch": 62, "velocity": 89, "note_on_time": 6.097, "note_off_time": 6.295}, {"pitch": 60, "velocity": 94, "note_on_time": 6.74, "note_off_time": 6.91}, {"pitch": 60, "velocity": 94, "note_on_time": 7.113, "note_off_time": 7.255}, {"pitch": 62, "velocity": 91, "note_on_time": 7.452, "note_off_time": 7.592}, {"pitch": 62, "velocity": 87, "note_on_time": 7.789, "note_off_time": 7.911}, {"pitch": 60, "velocity": 94, "note_on_time": 8.116, "note_off_time": 8.261}, {"pitch": 60, "velocity": 78, "note_on_time": 8.44, "note_off_time": 8.569}, {"pitch": 60, "velocity": 82, "note_on_time": 8.768, "note_off_time": 8.913}, {"pitch": 60, "velocity": 88, "note_on_time": 9.106, "note_off_time": 9.252}, {"pitch": 64, "velocity": 90, "note_on_time": 9.453, "note_off_time": 9.594}, {"pitch": 62, "velocity": 91, "note_on_time": 9.766, "note_off_time": 9.882}, {"pitch": 62, "velocity": 94, "note_on_time": 10.087, "note_off_time": 10.245}, {"pitch": 62, "velocity": 88, "note_on_time": 10.507, "note_off_time": 10.613}, {"pitch": 62, "velocity": 84, "note_on_time": 10.836, "note_off_time": 10.943}]</notes><guidance name="Guidance Mode">None</guidance><error name="Error value">0.6711001999999995</error></trial><trial trial_no="4" timestamp="2022_09_08-12_31_39"><notes name="Played Notes">[{"pitch": 60, "velocity": 102, "note_on_time": 1.252, "note_off_time": 1.395}, {"pitch": 60, "velocity": 102, "note_on_time": 1.577, "note_off_time": 1.709}, {"pitch": 62, "velocity": 103, "note_on_time": 1.9, "note_off_time": 2.53}, {"pitch": 64, "velocity": 88, "note_on_time": 2.715, "note_off_time": 2.884}, {"pitch": 62, "velocity": 96, "note_on_time": 3.056, "note_off_time": 3.769}, {"pitch": 60, "velocity": 102, "note_on_time": 4.123, "note_off_time": 4.278}, {"pitch": 64, "velocity": 91, "note_on_time": 4.462, "note_off_time": 4.576}, {"pitch": 64, "velocity": 86, "note_on_time": 4.801, "note_off_time": 4.909}, {"pitch": 64, "velocity": 96, "note_on_time": 5.109, "note_off_time": 5.248}, {"pitch": 62, "velocity": 95, "note_on_time": 5.425, "note_off_time": 5.95}, {"pitch": 62, "velocity": 90, "note_on_time": 6.206, "note_off_time": 6.436}, {"pitch": 60, "velocity": 107, "note_on_time": 7.07, "note_off_time": 7.286}, {"pitch": 62, "velocity": 96, "note_on_time": 8.224, "note_off_time": 8.352}, {"pitch": 60, "velocity": 88, "note_on_time": 8.601, "note_off_time": 8.723}, {"pitch": 60, "velocity": 87, "note_on_time": 8.891, "note_off_time": 9.007}, {"pitch": 60, "velocity": 97, "note_on_time": 9.19, "note_off_time": 9.304}, {"pitch": 60, "velocity": 94, "note_on_time": 9.491, "note_off_time": 9.638}, {"pitch": 64, "velocity": 91, "note_on_time": 9.811, "note_off_time": 9.965}, {"pitch": 62, "velocity": 89, "note_on_time": 10.139, "note_off_time": 10.255}, {"pitch": 62, "velocity": 96, "note_on_time": 10.465, "note_off_time": 10.612}, {"pitch": 62, "velocity": 93, "note_on_time": 10.958, "note_off_time": 11.098}]</notes><guidance name="Guidance Mode">None</guidance><error name="Error value">0.18610400000000005</error></trial><trial trial_no="5" timestamp="2022_09_08-12_33_36"><notes name="Played Notes">[{"pitch": 60, "velocity": 94, "note_on_time": 2.022, "note_off_time": 2.252}, {"pitch": 60, "velocity": 94, "note_on_time": 2.419, "note_off_time": 2.622}, {"pitch": 62, "velocity": 96, "note_on_time": 2.841, "note_off_time": 3.55}, {"pitch": 64, "velocity": 88, "note_on_time": 3.832, "note_off_time": 4.017}, {"pitch": 62, "velocity": 94, "note_on_time": 4.314, "note_off_time": 5.209}, {"pitch": 60, "velocity": 85, "note_on_time": 6.094, "note_off_time": 6.273}, {"pitch": 64, "velocity": 93, "note_on_time": 6.511, "note_off_time": 6.653}, {"pitch": 64, "velocity": 88, "note_on_time": 6.918, "note_off_time": 7.052}, {"pitch": 64, "velocity": 94, "note_on_time": 7.355, "note_off_time": 7.489}, {"pitch": 62, "velocity": 94, "note_on_time": 7.754, "note_off_time": 8.814}, {"pitch": 62, "velocity": 97, "note_on_time": 9.142, "note_off_time": 9.421}, {"pitch": 60, "velocity": 93, "note_on_time": 10.411, "note_off_time": 10.65}, {"pitch": 62, "velocity": 93, "note_on_time": 13.009, "note_off_time": 13.152}, {"pitch": 60, "velocity": 94, "note_on_time": 13.399, "note_off_time": 13.585}, {"pitch": 60, "velocity": 77, "note_on_time": 13.857, "note_off_time": 13.992}, {"pitch": 60, "velocity": 89, "note_on_time": 14.267, "note_off_time": 14.449}]</notes><guidance name="Guidance Mode">None</guidance><error name="Error value">0.8245500000000001</error></trial></trials></MIDI>