<MIDI midiNo="2022_09_29-12_28_56"><target_notes><notes name="Note List">[{"pitch": 42, "velocity": 80, "note_on_time": 0.004, "note_off_time": 0.3}, {"pitch": 42, "velocity": 80, "note_on_time": 0.3, "note_off_time": 0.594}, {"pitch": 42, "velocity": 80, "note_on_time": 0.594, "note_off_time": 0.875}, {"pitch": 42, "velocity": 80, "note_on_time": 0.875, "note_off_time": 1.171}, {"pitch": 64, "velocity": 80, "note_on_time": 1.17, "note_off_time": 1.451}, {"pitch": 42, "velocity": 80, "note_on_time": 1.171, "note_off_time": 1.451}, {"pitch": 62, "velocity": 80, "note_on_time": 1.451, "note_off_time": 1.733}, {"pitch": 42, "velocity": 80, "note_on_time": 1.451, "note_off_time": 1.733}, {"pitch": 64, "velocity": 80, "note_on_time": 1.733, "note_off_time": 2.029}, {"pitch": 42, "velocity": 80, "note_on_time": 1.734, "note_off_time": 2.029}, {"pitch": 62, "velocity": 80, "note_on_time": 2.029, "note_off_time": 2.311}, {"pitch": 42, "velocity": 80, "note_on_time": 2.03, "note_off_time": 2.311}, {"pitch": 64, "velocity": 80, "note_on_time": 2.311, "note_off_time": 2.607}, {"pitch": 42, "velocity": 80, "note_on_time": 2.311, "note_off_time": 2.608}, {"pitch": 64, "velocity": 80, "note_on_time": 2.607, "note_off_time": 2.901}, {"pitch": 42, "velocity": 80, "note_on_time": 2.608, "note_off_time": 2.902}, {"pitch": 64, "velocity": 80, "note_on_time": 2.901, "note_off_time": 3.195}, {"pitch": 42, "velocity": 80, "note_on_time": 2.902, "note_off_time": 3.195}, {"pitch": 62, "velocity": 80, "note_on_time": 3.195, "note_off_time": 3.49}, {"pitch": 42, "velocity": 80, "note_on_time": 3.195, "note_off_time": 3.491}, {"pitch": 62, "velocity": 80, "note_on_time": 3.49, "note_off_time": 3.785}, {"pitch": 42, "velocity": 80, "note_on_time": 3.491, "note_off_time": 3.785}, {"pitch": 62, "velocity": 80, "note_on_time": 3.785, "note_off_time": 4.081}, {"pitch": 42, "velocity": 80, "note_on_time": 3.785, "note_off_time": 4.081}, {"pitch": 64, "velocity": 80, "note_on_time": 4.081, "note_off_time": 4.376}, {"pitch": 42, "velocity": 80, "note_on_time": 4.081, "note_off_time": 4.376}, {"pitch": 64, "velocity": 80, "note_on_time": 4.376, "note_off_time": 4.672}, {"pitch": 42, "velocity": 80, "note_on_time": 4.376, "note_off_time": 4.672}, {"pitch": 62, "velocity": 80, "note_on_time": 4.672, "note_off_time": 4.965}, {"pitch": 42, "velocity": 80, "note_on_time": 4.672, "note_off_time": 4.966}, {"pitch": 60, "velocity": 80, "note_on_time": 4.965, "note_off_time": 5.258}, {"pitch": 42, "velocity": 80, "note_on_time": 4.966, "note_off_time": 5.258}, {"pitch": 62, "velocity": 80, "note_on_time": 5.258, "note_off_time": 5.539}, {"pitch": 42, "velocity": 80, "note_on_time": 5.259, "note_off_time": 5.54}, {"pitch": 62, "velocity": 80, "note_on_time": 5.539, "note_off_time": 5.82}, {"pitch": 42, "velocity": 80, "note_on_time": 5.54, "note_off_time": 5.821}, {"pitch": 60, "velocity": 80, "note_on_time": 5.82, "note_off_time": 6.116}, {"pitch": 42, "velocity": 80, "note_on_time": 5.821, "note_off_time": 6.116}, {"pitch": 60, "velocity": 80, "note_on_time": 6.116, "note_off_time": 6.41}, {"pitch": 42, "velocity": 80, "note_on_time": 6.116, "note_off_time": 6.41}, {"pitch": 60, "velocity": 80, "note_on_time": 6.41, "note_off_time": 6.706}, {"pitch": 42, "velocity": 80, "note_on_time": 6.411, "note_off_time": 6.706}, {"pitch": 62, "velocity": 80, "note_on_time": 6.706, "note_off_time": 7.001}, {"pitch": 42, "velocity": 80, "note_on_time": 6.706, "note_off_time": 7.002}, {"pitch": 42, "velocity": 80, "note_on_time": 7.002, "note_off_time": 7.296}, {"pitch": 64, "velocity": 80, "note_on_time": 7.001, "note_off_time": 7.577}, {"pitch": 42, "velocity": 80, "note_on_time": 7.296, "note_off_time": 7.577}, {"pitch": 60, "velocity": 80, "note_on_time": 7.577, "note_off_time": 7.871}, {"pitch": 42, "velocity": 80, "note_on_time": 7.578, "note_off_time": 7.871}, {"pitch": 64, "velocity": 80, "note_on_time": 7.871, "note_off_time": 8.165}, {"pitch": 42, "velocity": 80, "note_on_time": 7.872, "note_off_time": 8.165}, {"pitch": 42, "velocity": 80, "note_on_time": 8.165, "note_off_time": 8.446}, {"pitch": 60, "velocity": 80, "note_on_time": 8.165, "note_off_time": 8.741}, {"pitch": 42, "velocity": 80, "note_on_time": 8.446, "note_off_time": 8.741}, {"pitch": 42, "velocity": 80, "note_on_time": 8.742, "note_off_time": 9.037}, {"pitch": 62, "velocity": 80, "note_on_time": 9.036, "note_off_time": 9.319}, {"pitch": 42, "velocity": 80, "note_on_time": 9.037, "note_off_time": 9.319}, {"pitch": 42, "velocity": 80, "note_on_time": 9.32, "note_off_time": 9.6}, {"pitch": 62, "velocity": 80, "note_on_time": 9.6, "note_off_time": 9.895}, {"pitch": 42, "velocity": 80, "note_on_time": 9.6, "note_off_time": 9.895}, {"pitch": 62, "velocity": 80, "note_on_time": 9.895, "note_off_time": 10.177}, {"pitch": 42, "velocity": 80, "note_on_time": 9.896, "note_off_time": 10.177}, {"pitch": 62, "velocity": 80, "note_on_time": 10.177, "note_off_time": 10.472}, {"pitch": 42, "velocity": 80, "note_on_time": 10.177, "note_off_time": 10.472}]</notes><options name="Option List">((4, 4), [0.5, 0.25], 3, 8, &lt;NoteRangePerHand.THREE_NOTES: 4&gt;, &lt;NoteRangePerHand.ONE_NOTE: 2&gt;, False, True, False, 215)</options></target_notes><trials><trial trial_no="1" timestamp="2022_09_29-12_28_44"><notes name="Played Notes">[{"pitch": 64, "velocity": 76, "note_on_time": 1.187, "note_off_time": 1.459}, {"pitch": 62, "velocity": 76, "note_on_time": 1.47, "note_off_time": 1.735}, {"pitch": 64, "velocity": 78, "note_on_time": 1.739, "note_off_time": 2.035}, {"pitch": 62, "velocity": 76, "note_on_time": 2.03, "note_off_time": 2.243}, {"pitch": 64, "velocity": 75, "note_on_time": 2.313, "note_off_time": 2.465}, {"pitch": 64, "velocity": 75, "note_on_time": 2.6, "note_off_time": 2.73}, {"pitch": 64, "velocity": 79, "note_on_time": 2.887, "note_off_time": 3.071}, {"pitch": 62, "velocity": 70, "note_on_time": 3.191, "note_off_time": 3.345}, {"pitch": 62, "velocity": 67, "note_on_time": 3.502, "note_off_time": 3.63}, {"pitch": 62, "velocity": 80, "note_on_time": 3.796, "note_off_time": 3.93}, {"pitch": 64, "velocity": 83, "note_on_time": 4.089, "note_off_time": 4.215}, {"pitch": 64, "velocity": 85, "note_on_time": 4.376, "note_off_time": 4.518}, {"pitch": 62, "velocity": 79, "note_on_time": 4.683, "note_off_time": 4.974}, {"pitch": 60, "velocity": 79, "note_on_time": 4.985, "note_off_time": 5.149}, {"pitch": 62, "velocity": 76, "note_on_time": 5.279, "note_off_time": 5.422}, {"pitch": 62, "velocity": 67, "note_on_time": 5.549, "note_off_time": 5.724}, {"pitch": 60, "velocity": 84, "note_on_time": 5.857, "note_off_time": 5.995}, {"pitch": 60, "velocity": 79, "note_on_time": 6.132, "note_off_time": 6.263}, {"pitch": 60, "velocity": 88, "note_on_time": 6.421, "note_off_time": 6.565}, {"pitch": 62, "velocity": 82, "note_on_time": 6.708, "note_off_time": 6.835}, {"pitch": 64, "velocity": 88, "note_on_time": 7.004, "note_off_time": 7.648}, {"pitch": 60, "velocity": 87, "note_on_time": 7.855, "note_off_time": 8.063}, {"pitch": 64, "velocity": 78, "note_on_time": 8.171, "note_off_time": 8.588}, {"pitch": 60, "velocity": 93, "note_on_time": 8.671, "note_off_time": 9.348}, {"pitch": 62, "velocity": 81, "note_on_time": 9.816, "note_off_time": 9.987}, {"pitch": 62, "velocity": 78, "note_on_time": 10.108, "note_off_time": 10.242}]</notes><guidance name="Guidance Mode">None</guidance><error name="Error value">0.1361530800000001</error></trial></trials></MIDI>