<MIDI midiNo="2022_11_21-16_35_58"><target_notes><notes name="Note List">[{"pitch": 42, "velocity": 80, "note_on_time": 0.004, "note_off_time": 0.253}, {"pitch": 42, "velocity": 80, "note_on_time": 0.253, "note_off_time": 0.502}, {"pitch": 42, "velocity": 80, "note_on_time": 0.502, "note_off_time": 0.75}, {"pitch": 42, "velocity": 80, "note_on_time": 0.75, "note_off_time": 1.003}, {"pitch": 42, "velocity": 80, "note_on_time": 1.003, "note_off_time": 1.252}, {"pitch": 62, "velocity": 80, "note_on_time": 1.002, "note_off_time": 1.5}, {"pitch": 42, "velocity": 80, "note_on_time": 1.252, "note_off_time": 1.5}, {"pitch": 42, "velocity": 80, "note_on_time": 1.5, "note_off_time": 1.748}, {"pitch": 62, "velocity": 80, "note_on_time": 1.5, "note_off_time": 1.995}, {"pitch": 42, "velocity": 80, "note_on_time": 1.749, "note_off_time": 1.995}, {"pitch": 64, "velocity": 80, "note_on_time": 1.995, "note_off_time": 2.244}, {"pitch": 42, "velocity": 80, "note_on_time": 1.995, "note_off_time": 2.244}, {"pitch": 62, "velocity": 80, "note_on_time": 2.244, "note_off_time": 2.495}, {"pitch": 42, "velocity": 80, "note_on_time": 2.245, "note_off_time": 2.495}, {"pitch": 64, "velocity": 80, "note_on_time": 2.495, "note_off_time": 2.743}, {"pitch": 42, "velocity": 80, "note_on_time": 2.495, "note_off_time": 2.744}, {"pitch": 62, "velocity": 80, "note_on_time": 2.743, "note_off_time": 2.991}, {"pitch": 42, "velocity": 80, "note_on_time": 2.744, "note_off_time": 2.992}, {"pitch": 62, "velocity": 80, "note_on_time": 2.991, "note_off_time": 3.243}, {"pitch": 42, "velocity": 80, "note_on_time": 2.992, "note_off_time": 3.243}, {"pitch": 64, "velocity": 80, "note_on_time": 3.243, "note_off_time": 3.492}, {"pitch": 42, "velocity": 80, "note_on_time": 3.243, "note_off_time": 3.493}, {"pitch": 64, "velocity": 80, "note_on_time": 3.492, "note_off_time": 3.743}, {"pitch": 42, "velocity": 80, "note_on_time": 3.493, "note_off_time": 3.743}, {"pitch": 60, "velocity": 80, "note_on_time": 3.743, "note_off_time": 3.992}, {"pitch": 42, "velocity": 80, "note_on_time": 3.744, "note_off_time": 3.992}, {"pitch": 42, "velocity": 80, "note_on_time": 3.992, "note_off_time": 4.243}, {"pitch": 62, "velocity": 80, "note_on_time": 3.992, "note_off_time": 4.494}, {"pitch": 42, "velocity": 80, "note_on_time": 4.243, "note_off_time": 4.495}, {"pitch": 60, "velocity": 80, "note_on_time": 4.494, "note_off_time": 4.743}, {"pitch": 42, "velocity": 80, "note_on_time": 4.495, "note_off_time": 4.743}, {"pitch": 60, "velocity": 80, "note_on_time": 4.743, "note_off_time": 4.992}, {"pitch": 42, "velocity": 80, "note_on_time": 4.744, "note_off_time": 4.992}, {"pitch": 60, "velocity": 80, "note_on_time": 4.992, "note_off_time": 5.24}, {"pitch": 42, "velocity": 80, "note_on_time": 4.992, "note_off_time": 5.24}, {"pitch": 64, "velocity": 80, "note_on_time": 5.24, "note_off_time": 5.49}, {"pitch": 42, "velocity": 80, "note_on_time": 5.241, "note_off_time": 5.49}, {"pitch": 64, "velocity": 80, "note_on_time": 5.49, "note_off_time": 5.74}, {"pitch": 42, "velocity": 80, "note_on_time": 5.49, "note_off_time": 5.74}, {"pitch": 62, "velocity": 80, "note_on_time": 5.74, "note_off_time": 5.988}, {"pitch": 42, "velocity": 80, "note_on_time": 5.741, "note_off_time": 5.989}, {"pitch": 42, "velocity": 80, "note_on_time": 5.989, "note_off_time": 6.235}, {"pitch": 60, "velocity": 80, "note_on_time": 5.988, "note_off_time": 6.485}, {"pitch": 42, "velocity": 80, "note_on_time": 6.235, "note_off_time": 6.485}, {"pitch": 42, "velocity": 80, "note_on_time": 6.486, "note_off_time": 6.734}, {"pitch": 62, "velocity": 80, "note_on_time": 6.485, "note_off_time": 6.985}, {"pitch": 42, "velocity": 80, "note_on_time": 6.734, "note_off_time": 6.985}, {"pitch": 64, "velocity": 80, "note_on_time": 6.985, "note_off_time": 7.233}, {"pitch": 42, "velocity": 80, "note_on_time": 6.986, "note_off_time": 7.233}, {"pitch": 60, "velocity": 80, "note_on_time": 7.233, "note_off_time": 7.484}, {"pitch": 42, "velocity": 80, "note_on_time": 7.234, "note_off_time": 7.485}, {"pitch": 60, "velocity": 80, "note_on_time": 7.484, "note_off_time": 7.735}, {"pitch": 42, "velocity": 80, "note_on_time": 7.485, "note_off_time": 7.735}, {"pitch": 64, "velocity": 80, "note_on_time": 7.735, "note_off_time": 7.984}, {"pitch": 42, "velocity": 80, "note_on_time": 7.736, "note_off_time": 7.984}, {"pitch": 42, "velocity": 80, "note_on_time": 7.984, "note_off_time": 8.233}, {"pitch": 64, "velocity": 80, "note_on_time": 8.233, "note_off_time": 8.483}, {"pitch": 42, "velocity": 80, "note_on_time": 8.234, "note_off_time": 8.483}, {"pitch": 64, "velocity": 80, "note_on_time": 8.483, "note_off_time": 8.731}, {"pitch": 42, "velocity": 80, "note_on_time": 8.483, "note_off_time": 8.732}, {"pitch": 64, "velocity": 80, "note_on_time": 8.731, "note_off_time": 8.981}, {"pitch": 42, "velocity": 80, "note_on_time": 8.732, "note_off_time": 8.981}]</notes><options name="Option List">((4, 4), [0.5, 0.25], 3, 8, &lt;NoteRangePerHand.THREE_NOTES: 4&gt;, &lt;NoteRangePerHand.ONE_NOTE: 2&gt;, False, True, False, '248')</options></target_notes><trials><trial trial_no="1" timestamp="2022_11_21-16_36_10"><notes name="Played Notes">[{"pitch": 62, "velocity": 88, "note_on_time": 0.998, "note_off_time": 1.446}, {"pitch": 62, "velocity": 82, "note_on_time": 1.553, "note_off_time": 1.909}, {"pitch": 64, "velocity": 80, "note_on_time": 2.044, "note_off_time": 2.304}, {"pitch": 62, "velocity": 76, "note_on_time": 2.302, "note_off_time": 2.532}, {"pitch": 64, "velocity": 56, "note_on_time": 2.58, "note_off_time": 2.846}, {"pitch": 62, "velocity": 78, "note_on_time": 2.815, "note_off_time": 3.032}, {"pitch": 62, "velocity": 87, "note_on_time": 3.115, "note_off_time": 3.438}, {"pitch": 64, "velocity": 66, "note_on_time": 3.366, "note_off_time": 3.532}, {"pitch": 64, "velocity": 76, "note_on_time": 3.618, "note_off_time": 3.928}, {"pitch": 60, "velocity": 75, "note_on_time": 3.863, "note_off_time": 4.052}, {"pitch": 62, "velocity": 46, "note_on_time": 4.113, "note_off_time": 4.524}, {"pitch": 60, "velocity": 86, "note_on_time": 4.602, "note_off_time": 4.76}, {"pitch": 60, "velocity": 81, "note_on_time": 4.874, "note_off_time": 5.033}, {"pitch": 60, "velocity": 63, "note_on_time": 5.092, "note_off_time": 5.307}, {"pitch": 64, "velocity": 64, "note_on_time": 5.322, "note_off_time": 5.479}, {"pitch": 64, "velocity": 62, "note_on_time": 5.573, "note_off_time": 5.81}, {"pitch": 62, "velocity": 68, "note_on_time": 5.789, "note_off_time": 6.018}, {"pitch": 60, "velocity": 85, "note_on_time": 6.038, "note_off_time": 6.519}, {"pitch": 62, "velocity": 74, "note_on_time": 6.541, "note_off_time": 6.958}, {"pitch": 64, "velocity": 66, "note_on_time": 6.993, "note_off_time": 7.256}, {"pitch": 60, "velocity": 77, "note_on_time": 7.222, "note_off_time": 7.381}, {"pitch": 60, "velocity": 80, "note_on_time": 7.479, "note_off_time": 7.72}, {"pitch": 64, "velocity": 78, "note_on_time": 7.71, "note_off_time": 7.911}, {"pitch": 64, "velocity": 77, "note_on_time": 8.202, "note_off_time": 8.365}, {"pitch": 64, "velocity": 77, "note_on_time": 8.449, "note_off_time": 8.63}]</notes><guidance name="Guidance Mode">None</guidance><error name="Error value">0.07321065217391315</error></trial><trial trial_no="2" timestamp="2022_11_21-16_36_34"><notes name="Played Notes">[{"pitch": 62, "velocity": 77, "note_on_time": 0.996, "note_off_time": 1.4}, {"pitch": 62, "velocity": 74, "note_on_time": 1.526, "note_off_time": 1.846}, {"pitch": 64, "velocity": 70, "note_on_time": 1.969, "note_off_time": 2.184}, {"pitch": 62, "velocity": 76, "note_on_time": 2.22, "note_off_time": 2.411}, {"pitch": 64, "velocity": 58, "note_on_time": 2.45, "note_off_time": 2.696}, {"pitch": 62, "velocity": 73, "note_on_time": 2.659, "note_off_time": 2.826}, {"pitch": 62, "velocity": 81, "note_on_time": 2.908, "note_off_time": 3.159}, {"pitch": 64, "velocity": 71, "note_on_time": 3.128, "note_off_time": 3.267}, {"pitch": 64, "velocity": 54, "note_on_time": 3.336, "note_off_time": 3.571}, {"pitch": 60, "velocity": 74, "note_on_time": 3.542, "note_off_time": 3.709}, {"pitch": 62, "velocity": 79, "note_on_time": 3.78, "note_off_time": 4.157}, {"pitch": 60, "velocity": 87, "note_on_time": 4.248, "note_off_time": 4.389}, {"pitch": 60, "velocity": 77, "note_on_time": 4.484, "note_off_time": 4.625}, {"pitch": 60, "velocity": 81, "note_on_time": 4.719, "note_off_time": 4.908}, {"pitch": 64, "velocity": 73, "note_on_time": 4.926, "note_off_time": 5.064}, {"pitch": 64, "velocity": 79, "note_on_time": 5.15, "note_off_time": 5.351}, {"pitch": 62, "velocity": 81, "note_on_time": 5.412, "note_off_time": 5.547}, {"pitch": 60, "velocity": 94, "note_on_time": 5.681, "note_off_time": 6.063}, {"pitch": 62, "velocity": 84, "note_on_time": 6.15, "note_off_time": 6.487}, {"pitch": 64, "velocity": 70, "note_on_time": 6.547, "note_off_time": 6.751}, {"pitch": 60, "velocity": 84, "note_on_time": 6.778, "note_off_time": 6.904}, {"pitch": 60, "velocity": 79, "note_on_time": 6.998, "note_off_time": 7.214}, {"pitch": 64, "velocity": 77, "note_on_time": 7.213, "note_off_time": 7.394}, {"pitch": 64, "velocity": 76, "note_on_time": 7.727, "note_off_time": 7.889}, {"pitch": 64, "velocity": 74, "note_on_time": 7.975, "note_off_time": 8.109}, {"pitch": 64, "velocity": 82, "note_on_time": 8.189, "note_off_time": 8.404}]</notes><guidance name="Guidance Mode">None</guidance><error name="Error value">0.026006739130434647</error></trial><trial trial_no="3" timestamp="2022_11_21-16_36_54"><notes name="Played Notes">[{"pitch": 62, "velocity": 79, "note_on_time": 0.985, "note_off_time": 1.365}, {"pitch": 62, "velocity": 72, "note_on_time": 1.5, "note_off_time": 1.864}, {"pitch": 64, "velocity": 76, "note_on_time": 1.972, "note_off_time": 2.201}, {"pitch": 62, "velocity": 61, "note_on_time": 2.2, "note_off_time": 2.422}, {"pitch": 64, "velocity": 62, "note_on_time": 2.434, "note_off_time": 2.681}, {"pitch": 62, "velocity": 77, "note_on_time": 2.663, "note_off_time": 3.037}, {"pitch": 62, "velocity": 61, "note_on_time": 3.139, "note_off_time": 3.28}, {"pitch": 64, "velocity": 84, "note_on_time": 3.271, "note_off_time": 3.486}, {"pitch": 64, "velocity": 63, "note_on_time": 3.547, "note_off_time": 3.757}, {"pitch": 60, "velocity": 72, "note_on_time": 3.7, "note_off_time": 3.93}, {"pitch": 62, "velocity": 72, "note_on_time": 3.957, "note_off_time": 4.342}, {"pitch": 60, "velocity": 90, "note_on_time": 4.471, "note_off_time": 4.6}, {"pitch": 60, "velocity": 77, "note_on_time": 4.706, "note_off_time": 4.885}, {"pitch": 60, "velocity": 77, "note_on_time": 4.945, "note_off_time": 5.14}, {"pitch": 64, "velocity": 71, "note_on_time": 5.173, "note_off_time": 5.311}, {"pitch": 64, "velocity": 68, "note_on_time": 5.399, "note_off_time": 5.597}, {"pitch": 62, "velocity": 61, "note_on_time": 5.614, "note_off_time": 5.822}, {"pitch": 60, "velocity": 79, "note_on_time": 5.835, "note_off_time": 6.337}, {"pitch": 62, "velocity": 72, "note_on_time": 6.346, "note_off_time": 6.812}, {"pitch": 64, "velocity": 74, "note_on_time": 6.801, "note_off_time": 7.033}, {"pitch": 60, "velocity": 77, "note_on_time": 7.02, "note_off_time": 7.2}, {"pitch": 60, "velocity": 76, "note_on_time": 7.272, "note_off_time": 7.539}, {"pitch": 64, "velocity": 78, "note_on_time": 7.526, "note_off_time": 7.738}, {"pitch": 64, "velocity": 79, "note_on_time": 7.969, "note_off_time": 8.119}, {"pitch": 64, "velocity": 73, "note_on_time": 8.211, "note_off_time": 8.376}, {"pitch": 64, "velocity": 81, "note_on_time": 8.455, "note_off_time": 8.674}]</notes><guidance name="Guidance Mode">None</guidance><error name="Error value">0.035724999999999965</error></trial></trials></MIDI>