<MIDI midiNo="2022_10_27-13_21_13"><target_notes><notes name="Note List">[{"pitch": 42, "velocity": 80, "note_on_time": 0.004, "note_off_time": 0.616}, {"pitch": 42, "velocity": 80, "note_on_time": 0.616, "note_off_time": 1.223}, {"pitch": 42, "velocity": 80, "note_on_time": 1.223, "note_off_time": 1.828}, {"pitch": 42, "velocity": 80, "note_on_time": 1.828, "note_off_time": 2.432}, {"pitch": 42, "velocity": 80, "note_on_time": 2.433, "note_off_time": 3.042}, {"pitch": 60, "velocity": 80, "note_on_time": 2.432, "note_off_time": 3.649}, {"pitch": 42, "velocity": 80, "note_on_time": 3.042, "note_off_time": 3.649}, {"pitch": 42, "velocity": 80, "note_on_time": 3.65, "note_off_time": 4.256}, {"pitch": 42, "velocity": 80, "note_on_time": 4.257, "note_off_time": 4.864}, {"pitch": 60, "velocity": 80, "note_on_time": 4.863, "note_off_time": 5.471}, {"pitch": 42, "velocity": 80, "note_on_time": 4.864, "note_off_time": 5.471}, {"pitch": 60, "velocity": 80, "note_on_time": 5.471, "note_off_time": 6.076}, {"pitch": 42, "velocity": 80, "note_on_time": 5.472, "note_off_time": 6.077}, {"pitch": 60, "velocity": 80, "note_on_time": 6.076, "note_off_time": 6.683}, {"pitch": 42, "velocity": 80, "note_on_time": 6.077, "note_off_time": 6.683}, {"pitch": 60, "velocity": 80, "note_on_time": 6.683, "note_off_time": 7.292}, {"pitch": 42, "velocity": 80, "note_on_time": 6.683, "note_off_time": 7.292}, {"pitch": 60, "velocity": 80, "note_on_time": 7.292, "note_off_time": 7.902}, {"pitch": 42, "velocity": 80, "note_on_time": 7.292, "note_off_time": 7.902}, {"pitch": 60, "velocity": 80, "note_on_time": 7.902, "note_off_time": 8.509}, {"pitch": 42, "velocity": 80, "note_on_time": 7.902, "note_off_time": 8.509}, {"pitch": 60, "velocity": 80, "note_on_time": 8.509, "note_off_time": 9.117}, {"pitch": 42, "velocity": 80, "note_on_time": 8.51, "note_off_time": 9.118}, {"pitch": 60, "velocity": 80, "note_on_time": 9.117, "note_off_time": 9.725}, {"pitch": 42, "velocity": 80, "note_on_time": 9.118, "note_off_time": 9.725}, {"pitch": 60, "velocity": 80, "note_on_time": 9.725, "note_off_time": 10.33}, {"pitch": 42, "velocity": 80, "note_on_time": 9.725, "note_off_time": 10.33}, {"pitch": 42, "velocity": 80, "note_on_time": 10.33, "note_off_time": 10.936}, {"pitch": 60, "velocity": 80, "note_on_time": 10.33, "note_off_time": 11.543}, {"pitch": 42, "velocity": 80, "note_on_time": 10.937, "note_off_time": 11.543}, {"pitch": 42, "velocity": 80, "note_on_time": 11.543, "note_off_time": 12.149}, {"pitch": 62, "velocity": 80, "note_on_time": 12.149, "note_off_time": 12.756}, {"pitch": 42, "velocity": 80, "note_on_time": 12.15, "note_off_time": 12.756}, {"pitch": 42, "velocity": 80, "note_on_time": 12.757, "note_off_time": 13.365}, {"pitch": 42, "velocity": 80, "note_on_time": 13.366, "note_off_time": 13.972}, {"pitch": 62, "velocity": 80, "note_on_time": 13.972, "note_off_time": 14.579}, {"pitch": 42, "velocity": 80, "note_on_time": 13.973, "note_off_time": 14.579}, {"pitch": 42, "velocity": 80, "note_on_time": 14.58, "note_off_time": 15.188}, {"pitch": 60, "velocity": 80, "note_on_time": 14.579, "note_off_time": 15.795}, {"pitch": 42, "velocity": 80, "note_on_time": 15.188, "note_off_time": 15.795}, {"pitch": 42, "velocity": 80, "note_on_time": 15.796, "note_off_time": 16.403}, {"pitch": 42, "velocity": 80, "note_on_time": 16.404, "note_off_time": 17.015}, {"pitch": 42, "velocity": 80, "note_on_time": 17.015, "note_off_time": 17.623}, {"pitch": 62, "velocity": 80, "note_on_time": 17.015, "note_off_time": 18.227}, {"pitch": 42, "velocity": 80, "note_on_time": 17.623, "note_off_time": 18.227}, {"pitch": 62, "velocity": 80, "note_on_time": 18.227, "note_off_time": 18.835}, {"pitch": 42, "velocity": 80, "note_on_time": 18.228, "note_off_time": 18.835}, {"pitch": 42, "velocity": 80, "note_on_time": 18.835, "note_off_time": 19.444}, {"pitch": 42, "velocity": 80, "note_on_time": 19.444, "note_off_time": 20.051}, {"pitch": 62, "velocity": 80, "note_on_time": 20.051, "note_off_time": 20.658}, {"pitch": 42, "velocity": 80, "note_on_time": 20.052, "note_off_time": 20.658}, {"pitch": 62, "velocity": 80, "note_on_time": 20.658, "note_off_time": 21.266}, {"pitch": 42, "velocity": 80, "note_on_time": 20.659, "note_off_time": 21.266}, {"pitch": 62, "velocity": 80, "note_on_time": 21.266, "note_off_time": 21.875}, {"pitch": 42, "velocity": 80, "note_on_time": 21.266, "note_off_time": 21.875}]</notes><options name="Option List">((4, 4), [0.5], 3, 8, &lt;NoteRangePerHand.TWO_NOTES: 3&gt;, &lt;NoteRangePerHand.ONE_NOTE: 2&gt;, False, True, False, '80')</options></target_notes><trials><trial trial_no="1" timestamp="2022_10_27-13_20_50"><notes name="Played Notes">[{"pitch": 72, "velocity": 68, "note_on_time": 2.508, "note_off_time": 3.283}, {"pitch": 72, "velocity": 57, "note_on_time": 4.886, "note_off_time": 5.02}, {"pitch": 72, "velocity": 65, "note_on_time": 5.475, "note_off_time": 5.619}, {"pitch": 72, "velocity": 76, "note_on_time": 6.083, "note_off_time": 6.203}, {"pitch": 72, "velocity": 70, "note_on_time": 6.684, "note_off_time": 6.796}, {"pitch": 72, "velocity": 69, "note_on_time": 7.313, "note_off_time": 7.411}, {"pitch": 72, "velocity": 67, "note_on_time": 7.879, "note_off_time": 7.98}, {"pitch": 72, "velocity": 69, "note_on_time": 8.469, "note_off_time": 8.575}, {"pitch": 72, "velocity": 74, "note_on_time": 9.103, "note_off_time": 9.211}, {"pitch": 72, "velocity": 71, "note_on_time": 9.709, "note_off_time": 9.815}, {"pitch": 72, "velocity": 67, "note_on_time": 10.313, "note_off_time": 11.098}, {"pitch": 74, "velocity": 65, "note_on_time": 12.154, "note_off_time": 12.607}, {"pitch": 74, "velocity": 70, "note_on_time": 13.926, "note_off_time": 14.087}, {"pitch": 72, "velocity": 75, "note_on_time": 14.543, "note_off_time": 14.969}, {"pitch": 74, "velocity": 72, "note_on_time": 16.999, "note_off_time": 17.878}, {"pitch": 74, "velocity": 62, "note_on_time": 18.19, "note_off_time": 18.617}, {"pitch": 74, "velocity": 74, "note_on_time": 20.058, "note_off_time": 20.239}, {"pitch": 74, "velocity": 73, "note_on_time": 20.695, "note_off_time": 20.85}, {"pitch": 74, "velocity": 74, "note_on_time": 21.275, "note_off_time": 21.42}]</notes><guidance name="Guidance Mode">None</guidance><error name="Error value">1.2146875</error></trial></trials></MIDI>