<MIDI midiNo="2022_11_10-11_21_23"><target_notes><notes name="Note List">[{"pitch": 42, "velocity": 80, "note_on_time": 0.004, "note_off_time": 1.054}, {"pitch": 42, "velocity": 80, "note_on_time": 1.054, "note_off_time": 2.095}, {"pitch": 42, "velocity": 80, "note_on_time": 2.095, "note_off_time": 3.138}, {"pitch": 42, "velocity": 80, "note_on_time": 3.139, "note_off_time": 4.177}, {"pitch": 42, "velocity": 80, "note_on_time": 4.177, "note_off_time": 5.22}, {"pitch": 60, "velocity": 80, "note_on_time": 4.177, "note_off_time": 6.26}, {"pitch": 42, "velocity": 80, "note_on_time": 5.22, "note_off_time": 6.26}, {"pitch": 42, "velocity": 80, "note_on_time": 6.26, "note_off_time": 7.301}, {"pitch": 42, "velocity": 80, "note_on_time": 7.301, "note_off_time": 8.341}, {"pitch": 60, "velocity": 80, "note_on_time": 8.341, "note_off_time": 9.381}, {"pitch": 42, "velocity": 80, "note_on_time": 8.341, "note_off_time": 9.381}, {"pitch": 60, "velocity": 80, "note_on_time": 9.381, "note_off_time": 10.431}, {"pitch": 42, "velocity": 80, "note_on_time": 9.381, "note_off_time": 10.431}, {"pitch": 64, "velocity": 80, "note_on_time": 10.431, "note_off_time": 11.476}, {"pitch": 42, "velocity": 80, "note_on_time": 10.432, "note_off_time": 11.476}, {"pitch": 60, "velocity": 80, "note_on_time": 11.476, "note_off_time": 12.516}, {"pitch": 42, "velocity": 80, "note_on_time": 11.476, "note_off_time": 12.516}, {"pitch": 64, "velocity": 80, "note_on_time": 12.516, "note_off_time": 13.566}, {"pitch": 42, "velocity": 80, "note_on_time": 12.516, "note_off_time": 13.566}, {"pitch": 62, "velocity": 80, "note_on_time": 13.566, "note_off_time": 14.602}, {"pitch": 42, "velocity": 80, "note_on_time": 13.566, "note_off_time": 14.603}, {"pitch": 60, "velocity": 80, "note_on_time": 14.602, "note_off_time": 15.645}, {"pitch": 42, "velocity": 80, "note_on_time": 14.603, "note_off_time": 15.645}, {"pitch": 64, "velocity": 80, "note_on_time": 15.645, "note_off_time": 16.688}, {"pitch": 42, "velocity": 80, "note_on_time": 15.646, "note_off_time": 16.688}, {"pitch": 60, "velocity": 80, "note_on_time": 16.688, "note_off_time": 17.732}, {"pitch": 42, "velocity": 80, "note_on_time": 16.689, "note_off_time": 17.732}, {"pitch": 42, "velocity": 80, "note_on_time": 17.733, "note_off_time": 18.774}, {"pitch": 42, "velocity": 80, "note_on_time": 18.775, "note_off_time": 19.814}, {"pitch": 42, "velocity": 80, "note_on_time": 19.815, "note_off_time": 20.857}, {"pitch": 60, "velocity": 80, "note_on_time": 20.856, "note_off_time": 21.894}, {"pitch": 42, "velocity": 80, "note_on_time": 20.857, "note_off_time": 21.895}, {"pitch": 62, "velocity": 80, "note_on_time": 21.894, "note_off_time": 22.933}, {"pitch": 42, "velocity": 80, "note_on_time": 21.895, "note_off_time": 22.934}, {"pitch": 64, "velocity": 80, "note_on_time": 22.933, "note_off_time": 23.972}, {"pitch": 42, "velocity": 80, "note_on_time": 22.934, "note_off_time": 23.972}, {"pitch": 64, "velocity": 80, "note_on_time": 23.972, "note_off_time": 25.01}, {"pitch": 42, "velocity": 80, "note_on_time": 23.972, "note_off_time": 25.01}, {"pitch": 62, "velocity": 80, "note_on_time": 25.01, "note_off_time": 26.049}, {"pitch": 42, "velocity": 80, "note_on_time": 25.01, "note_off_time": 26.049}, {"pitch": 42, "velocity": 80, "note_on_time": 26.049, "note_off_time": 27.093}, {"pitch": 64, "velocity": 80, "note_on_time": 26.049, "note_off_time": 28.132}, {"pitch": 42, "velocity": 80, "note_on_time": 27.093, "note_off_time": 28.133}, {"pitch": 42, "velocity": 80, "note_on_time": 28.133, "note_off_time": 29.177}, {"pitch": 42, "velocity": 80, "note_on_time": 29.178, "note_off_time": 30.216}, {"pitch": 64, "velocity": 80, "note_on_time": 29.177, "note_off_time": 31.261}, {"pitch": 42, "velocity": 80, "note_on_time": 30.216, "note_off_time": 31.261}, {"pitch": 42, "velocity": 80, "note_on_time": 31.261, "note_off_time": 32.303}, {"pitch": 42, "velocity": 80, "note_on_time": 32.303, "note_off_time": 33.347}, {"pitch": 42, "velocity": 80, "note_on_time": 33.348, "note_off_time": 34.393}, {"pitch": 64, "velocity": 80, "note_on_time": 34.393, "note_off_time": 35.435}, {"pitch": 42, "velocity": 80, "note_on_time": 34.393, "note_off_time": 35.435}, {"pitch": 64, "velocity": 80, "note_on_time": 35.435, "note_off_time": 36.477}, {"pitch": 42, "velocity": 80, "note_on_time": 35.436, "note_off_time": 36.477}, {"pitch": 64, "velocity": 80, "note_on_time": 36.477, "note_off_time": 37.522}, {"pitch": 42, "velocity": 80, "note_on_time": 36.477, "note_off_time": 37.523}]</notes><options name="Option List">((4, 4), [0.5, 0.25], 3, 8, &lt;NoteRangePerHand.THREE_NOTES: 4&gt;, &lt;NoteRangePerHand.ONE_NOTE: 2&gt;, False, True, False, '58')</options></target_notes><trials><trial trial_no="1" timestamp="2022_11_10-11_20_44"><notes name="Played Notes">[{"pitch": 60, "velocity": 83, "note_on_time": 4.137, "note_off_time": 5.599}, {"pitch": 60, "velocity": 78, "note_on_time": 6.258, "note_off_time": 6.693}, {"pitch": 60, "velocity": 71, "note_on_time": 7.403, "note_off_time": 7.73}, {"pitch": 64, "velocity": 81, "note_on_time": 8.455, "note_off_time": 8.764}, {"pitch": 60, "velocity": 77, "note_on_time": 9.378, "note_off_time": 9.761}, {"pitch": 64, "velocity": 66, "note_on_time": 10.316, "note_off_time": 10.691}, {"pitch": 62, "velocity": 75, "note_on_time": 11.304, "note_off_time": 11.789}, {"pitch": 60, "velocity": 68, "note_on_time": 12.322, "note_off_time": 12.839}, {"pitch": 64, "velocity": 67, "note_on_time": 13.365, "note_off_time": 13.982}, {"pitch": 60, "velocity": 85, "note_on_time": 14.43, "note_off_time": 14.842}, {"pitch": 60, "velocity": 84, "note_on_time": 18.762, "note_off_time": 19.278}, {"pitch": 62, "velocity": 72, "note_on_time": 19.873, "note_off_time": 20.332}, {"pitch": 64, "velocity": 70, "note_on_time": 20.849, "note_off_time": 21.347}, {"pitch": 64, "velocity": 72, "note_on_time": 21.856, "note_off_time": 22.266}, {"pitch": 62, "velocity": 73, "note_on_time": 22.842, "note_off_time": 23.212}, {"pitch": 64, "velocity": 74, "note_on_time": 23.831, "note_off_time": 24.171}, {"pitch": 64, "velocity": 72, "note_on_time": 25.942, "note_off_time": 27.62}, {"pitch": 64, "velocity": 70, "note_on_time": 31.276, "note_off_time": 31.831}, {"pitch": 64, "velocity": 65, "note_on_time": 32.307, "note_off_time": 32.883}, {"pitch": 64, "velocity": 79, "note_on_time": 33.322, "note_off_time": 33.899}]</notes><guidance name="Guidance Mode">None</guidance><error name="Error value">0.240143882352941</error></trial><trial trial_no="2" timestamp="2022_11_10-11_21_40"><notes name="Played Notes">[{"pitch": 60, "velocity": 76, "note_on_time": 4.031, "note_off_time": 5.527}, {"pitch": 60, "velocity": 82, "note_on_time": 8.378, "note_off_time": 8.827}, {"pitch": 60, "velocity": 75, "note_on_time": 9.371, "note_off_time": 9.829}, {"pitch": 64, "velocity": 77, "note_on_time": 10.346, "note_off_time": 10.766}, {"pitch": 60, "velocity": 73, "note_on_time": 11.292, "note_off_time": 11.712}, {"pitch": 64, "velocity": 74, "note_on_time": 12.308, "note_off_time": 12.735}, {"pitch": 62, "velocity": 65, "note_on_time": 13.361, "note_off_time": 13.858}, {"pitch": 60, "velocity": 88, "note_on_time": 14.38, "note_off_time": 14.902}, {"pitch": 64, "velocity": 74, "note_on_time": 15.457, "note_off_time": 15.91}, {"pitch": 60, "velocity": 78, "note_on_time": 16.499, "note_off_time": 16.918}, {"pitch": 60, "velocity": 85, "note_on_time": 20.789, "note_off_time": 21.38}, {"pitch": 62, "velocity": 78, "note_on_time": 21.874, "note_off_time": 22.355}, {"pitch": 64, "velocity": 70, "note_on_time": 22.817, "note_off_time": 23.395}, {"pitch": 64, "velocity": 79, "note_on_time": 23.859, "note_off_time": 24.308}, {"pitch": 62, "velocity": 78, "note_on_time": 24.844, "note_off_time": 25.3}, {"pitch": 64, "velocity": 68, "note_on_time": 25.857, "note_off_time": 27.574}, {"pitch": 64, "velocity": 83, "note_on_time": 29.098, "note_off_time": 30.525}, {"pitch": 64, "velocity": 83, "note_on_time": 34.353, "note_off_time": 34.911}, {"pitch": 64, "velocity": 73, "note_on_time": 35.415, "note_off_time": 35.917}, {"pitch": 64, "velocity": 74, "note_on_time": 36.437, "note_off_time": 36.88}]</notes><guidance name="Guidance Mode">None</guidance><error name="Error value">0.06669023529411788</error></trial><trial trial_no="3" timestamp="2022_11_10-11_22_30"><notes name="Played Notes">[{"pitch": 60, "velocity": 71, "note_on_time": 4.103, "note_off_time": 5.621}, {"pitch": 60, "velocity": 77, "note_on_time": 8.411, "note_off_time": 8.882}, {"pitch": 60, "velocity": 78, "note_on_time": 9.359, "note_off_time": 9.824}, {"pitch": 64, "velocity": 73, "note_on_time": 10.308, "note_off_time": 10.759}, {"pitch": 60, "velocity": 78, "note_on_time": 11.299, "note_off_time": 11.691}, {"pitch": 64, "velocity": 73, "note_on_time": 12.375, "note_off_time": 12.801}, {"pitch": 62, "velocity": 79, "note_on_time": 13.399, "note_off_time": 13.731}, {"pitch": 60, "velocity": 79, "note_on_time": 14.382, "note_off_time": 14.721}, {"pitch": 64, "velocity": 73, "note_on_time": 15.505, "note_off_time": 16.027}, {"pitch": 60, "velocity": 81, "note_on_time": 16.565, "note_off_time": 17.048}, {"pitch": 60, "velocity": 81, "note_on_time": 20.809, "note_off_time": 21.329}, {"pitch": 62, "velocity": 82, "note_on_time": 21.87, "note_off_time": 22.278}, {"pitch": 64, "velocity": 78, "note_on_time": 22.867, "note_off_time": 23.326}, {"pitch": 64, "velocity": 75, "note_on_time": 23.887, "note_off_time": 24.355}, {"pitch": 62, "velocity": 75, "note_on_time": 24.88, "note_off_time": 25.291}, {"pitch": 64, "velocity": 73, "note_on_time": 25.863, "note_off_time": 27.389}, {"pitch": 64, "velocity": 79, "note_on_time": 29.095, "note_off_time": 30.427}, {"pitch": 64, "velocity": 56, "note_on_time": 34.498, "note_off_time": 34.931}, {"pitch": 64, "velocity": 73, "note_on_time": 35.414, "note_off_time": 35.901}, {"pitch": 64, "velocity": 74, "note_on_time": 36.367, "note_off_time": 36.798}]</notes><guidance name="Guidance Mode">None</guidance><error name="Error value">0.08468599999999986</error></trial><trial trial_no="4" timestamp="2022_11_10-11_23_22"><notes name="Played Notes">[{"pitch": 60, "velocity": 82, "note_on_time": 4.066, "note_off_time": 5.602}, {"pitch": 60, "velocity": 80, "note_on_time": 8.33, "note_off_time": 8.879}, {"pitch": 60, "velocity": 88, "note_on_time": 9.357, "note_off_time": 9.819}, {"pitch": 64, "velocity": 80, "note_on_time": 10.318, "note_off_time": 10.724}, {"pitch": 60, "velocity": 75, "note_on_time": 11.272, "note_off_time": 11.721}, {"pitch": 64, "velocity": 73, "note_on_time": 12.324, "note_off_time": 12.758}, {"pitch": 62, "velocity": 80, "note_on_time": 13.436, "note_off_time": 13.791}, {"pitch": 60, "velocity": 79, "note_on_time": 14.443, "note_off_time": 14.903}, {"pitch": 64, "velocity": 76, "note_on_time": 15.462, "note_off_time": 15.881}, {"pitch": 60, "velocity": 84, "note_on_time": 16.476, "note_off_time": 16.916}, {"pitch": 60, "velocity": 81, "note_on_time": 20.762, "note_off_time": 21.322}, {"pitch": 62, "velocity": 79, "note_on_time": 21.819, "note_off_time": 22.349}, {"pitch": 64, "velocity": 77, "note_on_time": 22.787, "note_off_time": 23.347}, {"pitch": 64, "velocity": 74, "note_on_time": 23.809, "note_off_time": 24.279}, {"pitch": 62, "velocity": 80, "note_on_time": 24.792, "note_off_time": 25.287}, {"pitch": 64, "velocity": 78, "note_on_time": 25.785, "note_off_time": 27.263}, {"pitch": 64, "velocity": 80, "note_on_time": 29.037, "note_off_time": 30.378}, {"pitch": 64, "velocity": 74, "note_on_time": 34.348, "note_off_time": 34.918}, {"pitch": 64, "velocity": 71, "note_on_time": 35.405, "note_off_time": 35.954}, {"pitch": 64, "velocity": 74, "note_on_time": 36.42, "note_off_time": 36.913}]</notes><guidance name="Guidance Mode">None</guidance><error name="Error value">0.06574482352941172</error></trial><trial trial_no="5" timestamp="2022_11_10-11_24_12"><notes name="Played Notes">[{"pitch": 60, "velocity": 77, "note_on_time": 4.082, "note_off_time": 5.623}, {"pitch": 60, "velocity": 79, "note_on_time": 7.253, "note_off_time": 7.84}, {"pitch": 60, "velocity": 76, "note_on_time": 8.326, "note_off_time": 8.871}, {"pitch": 64, "velocity": 76, "note_on_time": 9.32, "note_off_time": 9.884}, {"pitch": 60, "velocity": 78, "note_on_time": 10.331, "note_off_time": 10.921}, {"pitch": 64, "velocity": 72, "note_on_time": 11.326, "note_off_time": 11.924}, {"pitch": 62, "velocity": 65, "note_on_time": 12.312, "note_off_time": 12.824}, {"pitch": 60, "velocity": 89, "note_on_time": 13.274, "note_off_time": 13.808}, {"pitch": 64, "velocity": 82, "note_on_time": 14.389, "note_off_time": 14.879}, {"pitch": 60, "velocity": 78, "note_on_time": 15.449, "note_off_time": 15.912}, {"pitch": 60, "velocity": 78, "note_on_time": 19.752, "note_off_time": 20.341}, {"pitch": 62, "velocity": 74, "note_on_time": 20.794, "note_off_time": 21.256}, {"pitch": 64, "velocity": 76, "note_on_time": 21.755, "note_off_time": 22.316}, {"pitch": 64, "velocity": 73, "note_on_time": 22.746, "note_off_time": 23.263}, {"pitch": 62, "velocity": 74, "note_on_time": 23.771, "note_off_time": 24.334}, {"pitch": 64, "velocity": 79, "note_on_time": 24.768, "note_off_time": 26.562}, {"pitch": 64, "velocity": 71, "note_on_time": 28.021, "note_off_time": 29.381}, {"pitch": 64, "velocity": 80, "note_on_time": 33.292, "note_off_time": 33.964}, {"pitch": 64, "velocity": 74, "note_on_time": 34.369, "note_off_time": 34.976}, {"pitch": 64, "velocity": 80, "note_on_time": 35.372, "note_off_time": 35.969}]</notes><guidance name="Guidance Mode">None</guidance><error name="Error value">0.1173267058823531</error></trial><trial trial_no="6" timestamp="2022_11_10-11_25_00"><notes name="Played Notes">[{"pitch": 60, "velocity": 84, "note_on_time": 4.017, "note_off_time": 5.507}, {"pitch": 60, "velocity": 73, "note_on_time": 8.367, "note_off_time": 8.901}, {"pitch": 60, "velocity": 79, "note_on_time": 9.362, "note_off_time": 9.879}, {"pitch": 64, "velocity": 73, "note_on_time": 10.346, "note_off_time": 10.818}, {"pitch": 60, "velocity": 77, "note_on_time": 11.306, "note_off_time": 11.77}, {"pitch": 64, "velocity": 76, "note_on_time": 12.338, "note_off_time": 12.773}, {"pitch": 62, "velocity": 72, "note_on_time": 13.334, "note_off_time": 13.868}, {"pitch": 60, "velocity": 82, "note_on_time": 14.341, "note_off_time": 14.818}, {"pitch": 64, "velocity": 69, "note_on_time": 15.466, "note_off_time": 15.951}, {"pitch": 60, "velocity": 75, "note_on_time": 16.528, "note_off_time": 16.946}, {"pitch": 60, "velocity": 82, "note_on_time": 20.816, "note_off_time": 21.308}, {"pitch": 62, "velocity": 69, "note_on_time": 21.837, "note_off_time": 22.277}, {"pitch": 64, "velocity": 68, "note_on_time": 22.776, "note_off_time": 23.384}, {"pitch": 64, "velocity": 72, "note_on_time": 23.812, "note_off_time": 24.347}, {"pitch": 62, "velocity": 75, "note_on_time": 24.875, "note_off_time": 25.287}, {"pitch": 64, "velocity": 73, "note_on_time": 25.846, "note_off_time": 27.288}, {"pitch": 64, "velocity": 80, "note_on_time": 29.104, "note_off_time": 30.491}, {"pitch": 64, "velocity": 77, "note_on_time": 34.369, "note_off_time": 34.938}, {"pitch": 64, "velocity": 81, "note_on_time": 35.382, "note_off_time": 35.906}, {"pitch": 64, "velocity": 77, "note_on_time": 36.347, "note_off_time": 37.04}]</notes><guidance name="Guidance Mode">None</guidance><error name="Error value">0.07374482352941147</error></trial></trials></MIDI>