<MIDI midiNo="2022_09_29-13_06_31"><target_notes><notes name="Note List">[{"pitch": 42, "velocity": 80, "note_on_time": 0.003, "note_off_time": 0.296}, {"pitch": 42, "velocity": 80, "note_on_time": 0.296, "note_off_time": 0.591}, {"pitch": 42, "velocity": 80, "note_on_time": 0.591, "note_off_time": 0.886}, {"pitch": 42, "velocity": 80, "note_on_time": 0.886, "note_off_time": 1.182}, {"pitch": 42, "velocity": 80, "note_on_time": 1.182, "note_off_time": 1.478}, {"pitch": 64, "velocity": 80, "note_on_time": 1.182, "note_off_time": 1.772}, {"pitch": 42, "velocity": 80, "note_on_time": 1.478, "note_off_time": 1.773}, {"pitch": 42, "velocity": 80, "note_on_time": 1.773, "note_off_time": 2.067}, {"pitch": 42, "velocity": 80, "note_on_time": 2.068, "note_off_time": 2.362}, {"pitch": 60, "velocity": 80, "note_on_time": 2.362, "note_off_time": 2.657}, {"pitch": 42, "velocity": 80, "note_on_time": 2.363, "note_off_time": 2.657}, {"pitch": 42, "velocity": 80, "note_on_time": 2.658, "note_off_time": 2.952}, {"pitch": 64, "velocity": 80, "note_on_time": 2.951, "note_off_time": 3.234}, {"pitch": 42, "velocity": 80, "note_on_time": 2.952, "note_off_time": 3.234}, {"pitch": 64, "velocity": 80, "note_on_time": 3.234, "note_off_time": 3.528}, {"pitch": 42, "velocity": 80, "note_on_time": 3.234, "note_off_time": 3.529}, {"pitch": 64, "velocity": 80, "note_on_time": 3.528, "note_off_time": 3.822}, {"pitch": 42, "velocity": 80, "note_on_time": 3.529, "note_off_time": 3.822}, {"pitch": 64, "velocity": 80, "note_on_time": 3.822, "note_off_time": 4.116}, {"pitch": 42, "velocity": 80, "note_on_time": 3.823, "note_off_time": 4.117}, {"pitch": 62, "velocity": 80, "note_on_time": 4.116, "note_off_time": 4.4}, {"pitch": 42, "velocity": 80, "note_on_time": 4.117, "note_off_time": 4.4}, {"pitch": 60, "velocity": 80, "note_on_time": 4.4, "note_off_time": 4.694}, {"pitch": 42, "velocity": 80, "note_on_time": 4.4, "note_off_time": 4.694}, {"pitch": 64, "velocity": 80, "note_on_time": 4.694, "note_off_time": 4.986}, {"pitch": 42, "velocity": 80, "note_on_time": 4.694, "note_off_time": 4.986}, {"pitch": 60, "velocity": 80, "note_on_time": 4.986, "note_off_time": 5.267}, {"pitch": 42, "velocity": 80, "note_on_time": 4.986, "note_off_time": 5.267}, {"pitch": 62, "velocity": 80, "note_on_time": 5.267, "note_off_time": 5.548}, {"pitch": 42, "velocity": 80, "note_on_time": 5.267, "note_off_time": 5.548}, {"pitch": 62, "velocity": 80, "note_on_time": 5.548, "note_off_time": 5.829}, {"pitch": 42, "velocity": 80, "note_on_time": 5.549, "note_off_time": 5.829}, {"pitch": 64, "velocity": 80, "note_on_time": 5.829, "note_off_time": 6.123}, {"pitch": 42, "velocity": 80, "note_on_time": 5.83, "note_off_time": 6.123}, {"pitch": 42, "velocity": 80, "note_on_time": 6.124, "note_off_time": 6.404}, {"pitch": 64, "velocity": 80, "note_on_time": 6.123, "note_off_time": 6.698}, {"pitch": 42, "velocity": 80, "note_on_time": 6.404, "note_off_time": 6.698}, {"pitch": 62, "velocity": 80, "note_on_time": 6.698, "note_off_time": 6.992}, {"pitch": 42, "velocity": 80, "note_on_time": 6.699, "note_off_time": 6.992}, {"pitch": 62, "velocity": 80, "note_on_time": 6.992, "note_off_time": 7.287}, {"pitch": 42, "velocity": 80, "note_on_time": 6.993, "note_off_time": 7.287}, {"pitch": 64, "velocity": 80, "note_on_time": 7.287, "note_off_time": 7.582}, {"pitch": 42, "velocity": 80, "note_on_time": 7.288, "note_off_time": 7.582}, {"pitch": 60, "velocity": 80, "note_on_time": 7.582, "note_off_time": 7.876}, {"pitch": 42, "velocity": 80, "note_on_time": 7.583, "note_off_time": 7.876}, {"pitch": 60, "velocity": 80, "note_on_time": 7.876, "note_off_time": 8.172}, {"pitch": 42, "velocity": 80, "note_on_time": 7.876, "note_off_time": 8.172}, {"pitch": 64, "velocity": 80, "note_on_time": 8.172, "note_off_time": 8.468}, {"pitch": 42, "velocity": 80, "note_on_time": 8.173, "note_off_time": 8.468}, {"pitch": 64, "velocity": 80, "note_on_time": 8.468, "note_off_time": 8.764}, {"pitch": 42, "velocity": 80, "note_on_time": 8.468, "note_off_time": 8.764}, {"pitch": 60, "velocity": 80, "note_on_time": 8.764, "note_off_time": 9.045}, {"pitch": 42, "velocity": 80, "note_on_time": 8.765, "note_off_time": 9.045}, {"pitch": 42, "velocity": 80, "note_on_time": 9.046, "note_off_time": 9.339}, {"pitch": 42, "velocity": 80, "note_on_time": 9.339, "note_off_time": 9.635}, {"pitch": 60, "velocity": 80, "note_on_time": 9.635, "note_off_time": 9.929}, {"pitch": 42, "velocity": 80, "note_on_time": 9.636, "note_off_time": 9.929}, {"pitch": 60, "velocity": 80, "note_on_time": 9.929, "note_off_time": 10.21}, {"pitch": 42, "velocity": 80, "note_on_time": 9.93, "note_off_time": 10.21}, {"pitch": 60, "velocity": 80, "note_on_time": 10.21, "note_off_time": 10.505}, {"pitch": 42, "velocity": 80, "note_on_time": 10.211, "note_off_time": 10.505}]</notes><options name="Option List">((4, 4), [0.5, 0.25], 3, 8, &lt;NoteRangePerHand.THREE_NOTES: 4&gt;, &lt;NoteRangePerHand.ONE_NOTE: 2&gt;, False, True, False, 215)</options></target_notes><trials><trial trial_no="1" timestamp="2022_09_29-13_06_19"><notes name="Played Notes">[{"pitch": 64, "velocity": 91, "note_on_time": 1.179, "note_off_time": 1.907}, {"pitch": 60, "velocity": 87, "note_on_time": 2.307, "note_off_time": 2.59}, {"pitch": 64, "velocity": 84, "note_on_time": 2.633, "note_off_time": 2.756}, {"pitch": 64, "velocity": 87, "note_on_time": 2.913, "note_off_time": 3.051}, {"pitch": 64, "velocity": 78, "note_on_time": 3.222, "note_off_time": 3.336}, {"pitch": 64, "velocity": 71, "note_on_time": 3.501, "note_off_time": 3.64}, {"pitch": 62, "velocity": 80, "note_on_time": 3.816, "note_off_time": 3.955}, {"pitch": 60, "velocity": 85, "note_on_time": 4.109, "note_off_time": 4.23}, {"pitch": 62, "velocity": 70, "note_on_time": 4.43, "note_off_time": 4.53}, {"pitch": 64, "velocity": 79, "note_on_time": 4.728, "note_off_time": 4.808}, {"pitch": 60, "velocity": 63, "note_on_time": 4.926, "note_off_time": 5.049}, {"pitch": 62, "velocity": 71, "note_on_time": 5.231, "note_off_time": 5.346}, {"pitch": 62, "velocity": 73, "note_on_time": 5.571, "note_off_time": 5.683}, {"pitch": 62, "velocity": 77, "note_on_time": 5.846, "note_off_time": 5.951}, {"pitch": 62, "velocity": 77, "note_on_time": 6.143, "note_off_time": 6.53}, {"pitch": 62, "velocity": 70, "note_on_time": 6.708, "note_off_time": 6.848}, {"pitch": 60, "velocity": 70, "note_on_time": 6.989, "note_off_time": 7.105}, {"pitch": 62, "velocity": 61, "note_on_time": 7.319, "note_off_time": 7.434}, {"pitch": 60, "velocity": 71, "note_on_time": 7.568, "note_off_time": 7.662}, {"pitch": 60, "velocity": 77, "note_on_time": 7.831, "note_off_time": 7.943}, {"pitch": 64, "velocity": 74, "note_on_time": 8.124, "note_off_time": 8.314}, {"pitch": 60, "velocity": 71, "note_on_time": 8.445, "note_off_time": 8.566}, {"pitch": 60, "velocity": 79, "note_on_time": 8.734, "note_off_time": 9.254}, {"pitch": 60, "velocity": 95, "note_on_time": 9.587, "note_off_time": 9.68}, {"pitch": 60, "velocity": 92, "note_on_time": 9.882, "note_off_time": 9.978}, {"pitch": 60, "velocity": 98, "note_on_time": 10.166, "note_off_time": 10.353}]</notes><guidance name="Guidance Mode">None</guidance><error name="Error value">0.5592977727272725</error></trial><trial trial_no="2" timestamp="2022_09_29-13_06_50"><notes name="Played Notes">[{"pitch": 64, "velocity": 89, "note_on_time": 1.155, "note_off_time": 1.926}, {"pitch": 60, "velocity": 97, "note_on_time": 2.34, "note_off_time": 2.783}, {"pitch": 64, "velocity": 90, "note_on_time": 2.928, "note_off_time": 3.061}, {"pitch": 64, "velocity": 88, "note_on_time": 3.213, "note_off_time": 3.332}, {"pitch": 64, "velocity": 88, "note_on_time": 3.509, "note_off_time": 3.614}, {"pitch": 64, "velocity": 88, "note_on_time": 3.798, "note_off_time": 3.917}, {"pitch": 62, "velocity": 80, "note_on_time": 4.09, "note_off_time": 4.226}, {"pitch": 60, "velocity": 87, "note_on_time": 4.363, "note_off_time": 4.497}, {"pitch": 62, "velocity": 85, "note_on_time": 4.666, "note_off_time": 4.776}, {"pitch": 64, "velocity": 83, "note_on_time": 4.927, "note_off_time": 5.067}, {"pitch": 60, "velocity": 82, "note_on_time": 5.217, "note_off_time": 5.332}, {"pitch": 62, "velocity": 79, "note_on_time": 5.525, "note_off_time": 5.604}, {"pitch": 62, "velocity": 86, "note_on_time": 5.809, "note_off_time": 5.913}, {"pitch": 60, "velocity": 86, "note_on_time": 6.096, "note_off_time": 6.196}, {"pitch": 62, "velocity": 78, "note_on_time": 6.388, "note_off_time": 6.481}, {"pitch": 64, "velocity": 68, "note_on_time": 6.986, "note_off_time": 7.079}, {"pitch": 60, "velocity": 52, "note_on_time": 7.26, "note_off_time": 7.363}, {"pitch": 62, "velocity": 73, "note_on_time": 7.558, "note_off_time": 7.676}, {"pitch": 64, "velocity": 79, "note_on_time": 7.828, "note_off_time": 7.979}, {"pitch": 62, "velocity": 76, "note_on_time": 8.144, "note_off_time": 8.222}, {"pitch": 60, "velocity": 85, "note_on_time": 8.408, "note_off_time": 8.513}, {"pitch": 60, "velocity": 85, "note_on_time": 8.711, "note_off_time": 8.804}, {"pitch": 62, "velocity": 74, "note_on_time": 8.974, "note_off_time": 9.068}, {"pitch": 60, "velocity": 79, "note_on_time": 9.27, "note_off_time": 9.375}, {"pitch": 60, "velocity": 84, "note_on_time": 9.805, "note_off_time": 9.9}, {"pitch": 60, "velocity": 89, "note_on_time": 10.073, "note_off_time": 10.167}]</notes><guidance name="Guidance Mode">None</guidance><error name="Error value">0.7069263181818177</error></trial><trial trial_no="3" timestamp="2022_09_29-13_07_15"><notes name="Played Notes">[{"pitch": 64, "velocity": 84, "note_on_time": 1.111, "note_off_time": 1.794}, {"pitch": 60, "velocity": 98, "note_on_time": 2.271, "note_off_time": 2.605}, {"pitch": 64, "velocity": 84, "note_on_time": 2.623, "note_off_time": 2.774}, {"pitch": 64, "velocity": 87, "note_on_time": 2.905, "note_off_time": 3.051}, {"pitch": 64, "velocity": 92, "note_on_time": 3.196, "note_off_time": 3.37}, {"pitch": 62, "velocity": 76, "note_on_time": 3.485, "note_off_time": 3.661}, {"pitch": 60, "velocity": 87, "note_on_time": 3.76, "note_off_time": 3.915}, {"pitch": 64, "velocity": 85, "note_on_time": 4.054, "note_off_time": 4.236}, {"pitch": 60, "velocity": 89, "note_on_time": 4.322, "note_off_time": 4.474}, {"pitch": 62, "velocity": 82, "note_on_time": 4.622, "note_off_time": 4.746}, {"pitch": 62, "velocity": 84, "note_on_time": 4.902, "note_off_time": 5.01}, {"pitch": 64, "velocity": 88, "note_on_time": 5.194, "note_off_time": 5.306}, {"pitch": 64, "velocity": 90, "note_on_time": 5.488, "note_off_time": 5.886}, {"pitch": 62, "velocity": 90, "note_on_time": 6.072, "note_off_time": 6.235}, {"pitch": 62, "velocity": 90, "note_on_time": 6.366, "note_off_time": 6.525}, {"pitch": 64, "velocity": 80, "note_on_time": 6.706, "note_off_time": 6.831}, {"pitch": 60, "velocity": 89, "note_on_time": 6.939, "note_off_time": 7.066}, {"pitch": 60, "velocity": 95, "note_on_time": 7.237, "note_off_time": 7.385}, {"pitch": 64, "velocity": 94, "note_on_time": 7.538, "note_off_time": 7.634}, {"pitch": 64, "velocity": 92, "note_on_time": 7.82, "note_off_time": 7.978}, {"pitch": 60, "velocity": 90, "note_on_time": 8.108, "note_off_time": 8.471}, {"pitch": 60, "velocity": 97, "note_on_time": 8.946, "note_off_time": 9.057}, {"pitch": 60, "velocity": 100, "note_on_time": 9.237, "note_off_time": 9.352}, {"pitch": 60, "velocity": 107, "note_on_time": 9.528, "note_off_time": 9.725}]</notes><guidance name="Guidance Mode">None</guidance><error name="Error value">0.07511595454545478</error></trial></trials></MIDI>