<MIDI midiNo="2022_10_02-13_57_39"><target_notes><notes name="Note List">[{"pitch": 42, "velocity": 80, "note_on_time": 0.005, "note_off_time": 0.257}, {"pitch": 42, "velocity": 80, "note_on_time": 0.257, "note_off_time": 0.506}, {"pitch": 42, "velocity": 80, "note_on_time": 0.506, "note_off_time": 0.755}, {"pitch": 42, "velocity": 80, "note_on_time": 0.756, "note_off_time": 1.004}, {"pitch": 62, "velocity": 80, "note_on_time": 1.004, "note_off_time": 1.255}, {"pitch": 42, "velocity": 80, "note_on_time": 1.004, "note_off_time": 1.255}, {"pitch": 64, "velocity": 80, "note_on_time": 1.255, "note_off_time": 1.504}, {"pitch": 42, "velocity": 80, "note_on_time": 1.255, "note_off_time": 1.505}, {"pitch": 64, "velocity": 80, "note_on_time": 1.504, "note_off_time": 1.753}, {"pitch": 42, "velocity": 80, "note_on_time": 1.505, "note_off_time": 1.753}, {"pitch": 64, "velocity": 80, "note_on_time": 1.753, "note_off_time": 2.003}, {"pitch": 42, "velocity": 80, "note_on_time": 1.754, "note_off_time": 2.004}, {"pitch": 62, "velocity": 80, "note_on_time": 2.003, "note_off_time": 2.254}, {"pitch": 42, "velocity": 80, "note_on_time": 2.004, "note_off_time": 2.255}, {"pitch": 64, "velocity": 80, "note_on_time": 2.254, "note_off_time": 2.501}, {"pitch": 42, "velocity": 80, "note_on_time": 2.255, "note_off_time": 2.501}, {"pitch": 64, "velocity": 80, "note_on_time": 2.501, "note_off_time": 2.75}, {"pitch": 42, "velocity": 80, "note_on_time": 2.502, "note_off_time": 2.75}, {"pitch": 62, "velocity": 80, "note_on_time": 2.75, "note_off_time": 3.0}, {"pitch": 42, "velocity": 80, "note_on_time": 2.75, "note_off_time": 3.0}, {"pitch": 60, "velocity": 80, "note_on_time": 3.0, "note_off_time": 3.251}, {"pitch": 42, "velocity": 80, "note_on_time": 3.0, "note_off_time": 3.251}, {"pitch": 60, "velocity": 80, "note_on_time": 3.251, "note_off_time": 3.498}, {"pitch": 42, "velocity": 80, "note_on_time": 3.251, "note_off_time": 3.498}, {"pitch": 62, "velocity": 80, "note_on_time": 3.498, "note_off_time": 3.747}, {"pitch": 42, "velocity": 80, "note_on_time": 3.498, "note_off_time": 3.748}, {"pitch": 42, "velocity": 80, "note_on_time": 3.748, "note_off_time": 3.997}, {"pitch": 60, "velocity": 80, "note_on_time": 3.997, "note_off_time": 4.246}, {"pitch": 42, "velocity": 80, "note_on_time": 3.997, "note_off_time": 4.246}, {"pitch": 42, "velocity": 80, "note_on_time": 4.246, "note_off_time": 4.494}, {"pitch": 64, "velocity": 80, "note_on_time": 4.494, "note_off_time": 4.744}, {"pitch": 42, "velocity": 80, "note_on_time": 4.495, "note_off_time": 4.744}, {"pitch": 64, "velocity": 80, "note_on_time": 4.744, "note_off_time": 4.994}, {"pitch": 42, "velocity": 80, "note_on_time": 4.745, "note_off_time": 4.994}, {"pitch": 64, "velocity": 80, "note_on_time": 4.994, "note_off_time": 5.244}, {"pitch": 42, "velocity": 80, "note_on_time": 4.995, "note_off_time": 5.244}, {"pitch": 62, "velocity": 80, "note_on_time": 5.244, "note_off_time": 5.493}, {"pitch": 42, "velocity": 80, "note_on_time": 5.244, "note_off_time": 5.493}, {"pitch": 42, "velocity": 80, "note_on_time": 5.493, "note_off_time": 5.742}, {"pitch": 42, "velocity": 80, "note_on_time": 5.742, "note_off_time": 5.991}, {"pitch": 64, "velocity": 80, "note_on_time": 5.991, "note_off_time": 6.24}, {"pitch": 42, "velocity": 80, "note_on_time": 5.991, "note_off_time": 6.241}, {"pitch": 60, "velocity": 80, "note_on_time": 6.24, "note_off_time": 6.49}, {"pitch": 42, "velocity": 80, "note_on_time": 6.241, "note_off_time": 6.49}, {"pitch": 42, "velocity": 80, "note_on_time": 6.49, "note_off_time": 6.738}, {"pitch": 62, "velocity": 80, "note_on_time": 6.737, "note_off_time": 6.987}, {"pitch": 42, "velocity": 80, "note_on_time": 6.738, "note_off_time": 6.987}, {"pitch": 64, "velocity": 80, "note_on_time": 6.987, "note_off_time": 7.235}, {"pitch": 42, "velocity": 80, "note_on_time": 6.987, "note_off_time": 7.236}, {"pitch": 60, "velocity": 80, "note_on_time": 7.235, "note_off_time": 7.485}, {"pitch": 42, "velocity": 80, "note_on_time": 7.236, "note_off_time": 7.486}, {"pitch": 60, "velocity": 80, "note_on_time": 7.485, "note_off_time": 7.736}, {"pitch": 42, "velocity": 80, "note_on_time": 7.486, "note_off_time": 7.736}, {"pitch": 64, "velocity": 80, "note_on_time": 7.736, "note_off_time": 7.984}, {"pitch": 42, "velocity": 80, "note_on_time": 7.736, "note_off_time": 7.984}, {"pitch": 42, "velocity": 80, "note_on_time": 7.985, "note_off_time": 8.233}, {"pitch": 64, "velocity": 80, "note_on_time": 8.233, "note_off_time": 8.483}, {"pitch": 42, "velocity": 80, "note_on_time": 8.233, "note_off_time": 8.483}, {"pitch": 64, "velocity": 80, "note_on_time": 8.483, "note_off_time": 8.731}, {"pitch": 42, "velocity": 80, "note_on_time": 8.484, "note_off_time": 8.731}, {"pitch": 64, "velocity": 80, "note_on_time": 8.731, "note_off_time": 8.981}, {"pitch": 42, "velocity": 80, "note_on_time": 8.731, "note_off_time": 8.981}]</notes><options name="Option List">((4, 4), [0.25], 3, 8, &lt;NoteRangePerHand.THREE_NOTES: 4&gt;, &lt;NoteRangePerHand.ONE_NOTE: 2&gt;, False, True, True, 248)</options></target_notes><trials><trial trial_no="1" timestamp="2022_10_02-13_57_29"><notes name="Played Notes">[{"pitch": 62, "velocity": 60, "note_on_time": 1.037, "note_off_time": 1.349}, {"pitch": 64, "velocity": 60, "note_on_time": 1.287, "note_off_time": 1.411}, {"pitch": 64, "velocity": 41, "note_on_time": 1.545, "note_off_time": 1.678}, {"pitch": 64, "velocity": 48, "note_on_time": 1.816, "note_off_time": 2.033}, {"pitch": 62, "velocity": 46, "note_on_time": 2.056, "note_off_time": 2.294}, {"pitch": 64, "velocity": 58, "note_on_time": 2.305, "note_off_time": 2.433}, {"pitch": 64, "velocity": 52, "note_on_time": 2.565, "note_off_time": 2.798}, {"pitch": 62, "velocity": 57, "note_on_time": 2.776, "note_off_time": 3.011}, {"pitch": 60, "velocity": 51, "note_on_time": 3.04, "note_off_time": 3.16}, {"pitch": 60, "velocity": 57, "note_on_time": 3.28, "note_off_time": 3.443}, {"pitch": 62, "velocity": 51, "note_on_time": 3.508, "note_off_time": 3.711}, {"pitch": 60, "velocity": 62, "note_on_time": 4.031, "note_off_time": 4.258}, {"pitch": 64, "velocity": 53, "note_on_time": 4.281, "note_off_time": 4.393}, {"pitch": 64, "velocity": 42, "note_on_time": 4.539, "note_off_time": 4.768}, {"pitch": 62, "velocity": 49, "note_on_time": 4.78, "note_off_time": 4.977}, {"pitch": 62, "velocity": 54, "note_on_time": 6.025, "note_off_time": 6.339}, {"pitch": 64, "velocity": 62, "note_on_time": 6.306, "note_off_time": 6.575}, {"pitch": 62, "velocity": 51, "note_on_time": 6.577, "note_off_time": 6.759}, {"pitch": 60, "velocity": 48, "note_on_time": 7.514, "note_off_time": 8.088}, {"pitch": 62, "velocity": 49, "note_on_time": 8.407, "note_off_time": 8.748}]</notes><guidance name="Guidance Mode">None</guidance><error name="Error value">0.6254376086956521</error></trial><trial trial_no="2" timestamp="2022_10_02-13_57_51"><notes name="Played Notes">[{"pitch": 62, "velocity": 60, "note_on_time": 1.009, "note_off_time": 1.313}, {"pitch": 64, "velocity": 56, "note_on_time": 1.281, "note_off_time": 1.404}, {"pitch": 64, "velocity": 51, "note_on_time": 1.522, "note_off_time": 1.646}, {"pitch": 64, "velocity": 49, "note_on_time": 1.772, "note_off_time": 1.986}, {"pitch": 62, "velocity": 53, "note_on_time": 2.041, "note_off_time": 2.291}, {"pitch": 64, "velocity": 56, "note_on_time": 2.276, "note_off_time": 2.405}, {"pitch": 64, "velocity": 45, "note_on_time": 2.521, "note_off_time": 2.757}, {"pitch": 62, "velocity": 46, "note_on_time": 2.76, "note_off_time": 2.988}, {"pitch": 60, "velocity": 53, "note_on_time": 3.014, "note_off_time": 3.151}, {"pitch": 62, "velocity": 55, "note_on_time": 3.245, "note_off_time": 3.436}, {"pitch": 60, "velocity": 64, "note_on_time": 4.005, "note_off_time": 4.224}, {"pitch": 64, "velocity": 60, "note_on_time": 4.249, "note_off_time": 4.373}, {"pitch": 64, "velocity": 55, "note_on_time": 4.483, "note_off_time": 4.614}, {"pitch": 64, "velocity": 49, "note_on_time": 4.741, "note_off_time": 4.937}, {"pitch": 62, "velocity": 47, "note_on_time": 4.986, "note_off_time": 5.135}, {"pitch": 64, "velocity": 61, "note_on_time": 6.016, "note_off_time": 6.263}, {"pitch": 60, "velocity": 36, "note_on_time": 6.292, "note_off_time": 6.389}, {"pitch": 62, "velocity": 59, "note_on_time": 6.998, "note_off_time": 7.257}, {"pitch": 64, "velocity": 62, "note_on_time": 7.229, "note_off_time": 7.448}, {"pitch": 60, "velocity": 52, "note_on_time": 7.731, "note_off_time": 7.879}, {"pitch": 60, "velocity": 56, "note_on_time": 7.99, "note_off_time": 8.241}]</notes><guidance name="Guidance Mode">None</guidance><error name="Error value">0.6165708695652174</error></trial><trial trial_no="3" timestamp="2022_10_02-13_58_13"><notes name="Played Notes">[{"pitch": 62, "velocity": 60, "note_on_time": 1.014, "note_off_time": 1.285}, {"pitch": 64, "velocity": 56, "note_on_time": 1.258, "note_off_time": 1.389}, {"pitch": 64, "velocity": 46, "note_on_time": 1.522, "note_off_time": 1.66}, {"pitch": 64, "velocity": 62, "note_on_time": 1.771, "note_off_time": 2.023}, {"pitch": 62, "velocity": 56, "note_on_time": 2.035, "note_off_time": 2.262}, {"pitch": 64, "velocity": 59, "note_on_time": 2.28, "note_off_time": 2.43}, {"pitch": 64, "velocity": 26, "note_on_time": 2.522, "note_off_time": 2.741}, {"pitch": 62, "velocity": 54, "note_on_time": 2.783, "note_off_time": 3.091}, {"pitch": 60, "velocity": 53, "note_on_time": 3.047, "note_off_time": 3.168}, {"pitch": 60, "velocity": 57, "note_on_time": 3.285, "note_off_time": 3.47}, {"pitch": 62, "velocity": 58, "note_on_time": 3.52, "note_off_time": 3.733}, {"pitch": 60, "velocity": 60, "note_on_time": 4.454, "note_off_time": 4.72}, {"pitch": 64, "velocity": 61, "note_on_time": 4.706, "note_off_time": 4.856}, {"pitch": 64, "velocity": 58, "note_on_time": 4.966, "note_off_time": 5.221}, {"pitch": 62, "velocity": 46, "note_on_time": 5.238, "note_off_time": 5.467}, {"pitch": 64, "velocity": 51, "note_on_time": 5.977, "note_off_time": 6.214}, {"pitch": 60, "velocity": 51, "note_on_time": 6.231, "note_off_time": 6.388}, {"pitch": 64, "velocity": 47, "note_on_time": 6.496, "note_off_time": 6.866}, {"pitch": 64, "velocity": 59, "note_on_time": 7.762, "note_off_time": 7.908}, {"pitch": 64, "velocity": 49, "note_on_time": 8.034, "note_off_time": 8.199}, {"pitch": 64, "velocity": 52, "note_on_time": 8.351, "note_off_time": 8.579}]</notes><guidance name="Guidance Mode">None</guidance><error name="Error value">0.6168260869565216</error></trial></trials></MIDI>