<MIDI midiNo="2022_09_29-12_08_19"><target_notes><notes name="Note List">[{"pitch": 42, "velocity": 80, "note_on_time": 0.004, "note_off_time": 0.761}, {"pitch": 42, "velocity": 80, "note_on_time": 0.761, "note_off_time": 1.523}, {"pitch": 42, "velocity": 80, "note_on_time": 1.524, "note_off_time": 2.288}, {"pitch": 42, "velocity": 80, "note_on_time": 2.289, "note_off_time": 3.052}, {"pitch": 62, "velocity": 80, "note_on_time": 3.052, "note_off_time": 3.812}, {"pitch": 42, "velocity": 80, "note_on_time": 3.052, "note_off_time": 3.812}, {"pitch": 60, "velocity": 80, "note_on_time": 3.812, "note_off_time": 4.563}, {"pitch": 42, "velocity": 80, "note_on_time": 3.812, "note_off_time": 4.563}, {"pitch": 62, "velocity": 80, "note_on_time": 4.563, "note_off_time": 5.315}, {"pitch": 42, "velocity": 80, "note_on_time": 4.563, "note_off_time": 5.315}, {"pitch": 60, "velocity": 80, "note_on_time": 5.315, "note_off_time": 6.076}, {"pitch": 42, "velocity": 80, "note_on_time": 5.315, "note_off_time": 6.076}, {"pitch": 62, "velocity": 80, "note_on_time": 6.076, "note_off_time": 6.837}, {"pitch": 42, "velocity": 80, "note_on_time": 6.077, "note_off_time": 6.837}, {"pitch": 60, "velocity": 80, "note_on_time": 6.837, "note_off_time": 7.589}, {"pitch": 42, "velocity": 80, "note_on_time": 6.837, "note_off_time": 7.589}, {"pitch": 62, "velocity": 80, "note_on_time": 7.589, "note_off_time": 8.35}, {"pitch": 42, "velocity": 80, "note_on_time": 7.589, "note_off_time": 8.35}, {"pitch": 60, "velocity": 80, "note_on_time": 8.35, "note_off_time": 9.11}, {"pitch": 42, "velocity": 80, "note_on_time": 8.351, "note_off_time": 9.11}, {"pitch": 62, "velocity": 80, "note_on_time": 9.11, "note_off_time": 9.874}, {"pitch": 42, "velocity": 80, "note_on_time": 9.111, "note_off_time": 9.874}, {"pitch": 60, "velocity": 80, "note_on_time": 9.874, "note_off_time": 10.636}, {"pitch": 42, "velocity": 80, "note_on_time": 9.874, "note_off_time": 10.637}, {"pitch": 62, "velocity": 80, "note_on_time": 10.636, "note_off_time": 11.397}, {"pitch": 42, "velocity": 80, "note_on_time": 10.637, "note_off_time": 11.397}, {"pitch": 60, "velocity": 80, "note_on_time": 11.397, "note_off_time": 12.161}, {"pitch": 42, "velocity": 80, "note_on_time": 11.397, "note_off_time": 12.161}, {"pitch": 62, "velocity": 80, "note_on_time": 12.161, "note_off_time": 12.923}, {"pitch": 42, "velocity": 80, "note_on_time": 12.161, "note_off_time": 12.923}, {"pitch": 62, "velocity": 80, "note_on_time": 12.923, "note_off_time": 13.687}, {"pitch": 42, "velocity": 80, "note_on_time": 12.923, "note_off_time": 13.687}, {"pitch": 62, "velocity": 80, "note_on_time": 13.687, "note_off_time": 14.452}, {"pitch": 42, "velocity": 80, "note_on_time": 13.688, "note_off_time": 14.452}, {"pitch": 62, "velocity": 80, "note_on_time": 14.452, "note_off_time": 15.216}, {"pitch": 42, "velocity": 80, "note_on_time": 14.453, "note_off_time": 15.216}, {"pitch": 60, "velocity": 80, "note_on_time": 15.216, "note_off_time": 15.977}, {"pitch": 42, "velocity": 80, "note_on_time": 15.217, "note_off_time": 15.977}, {"pitch": 62, "velocity": 80, "note_on_time": 15.977, "note_off_time": 16.741}, {"pitch": 42, "velocity": 80, "note_on_time": 15.978, "note_off_time": 16.742}, {"pitch": 60, "velocity": 80, "note_on_time": 16.741, "note_off_time": 17.507}, {"pitch": 42, "velocity": 80, "note_on_time": 16.742, "note_off_time": 17.508}, {"pitch": 62, "velocity": 80, "note_on_time": 17.507, "note_off_time": 18.271}, {"pitch": 42, "velocity": 80, "note_on_time": 17.508, "note_off_time": 18.271}, {"pitch": 60, "velocity": 80, "note_on_time": 18.271, "note_off_time": 19.034}, {"pitch": 42, "velocity": 80, "note_on_time": 18.271, "note_off_time": 19.034}, {"pitch": 60, "velocity": 80, "note_on_time": 19.034, "note_off_time": 19.797}, {"pitch": 42, "velocity": 80, "note_on_time": 19.034, "note_off_time": 19.797}, {"pitch": 62, "velocity": 80, "note_on_time": 19.797, "note_off_time": 20.56}, {"pitch": 42, "velocity": 80, "note_on_time": 19.797, "note_off_time": 20.561}, {"pitch": 60, "velocity": 80, "note_on_time": 20.56, "note_off_time": 21.322}, {"pitch": 42, "velocity": 80, "note_on_time": 20.561, "note_off_time": 21.322}, {"pitch": 62, "velocity": 80, "note_on_time": 21.322, "note_off_time": 22.087}, {"pitch": 42, "velocity": 80, "note_on_time": 21.322, "note_off_time": 22.087}, {"pitch": 42, "velocity": 80, "note_on_time": 22.087, "note_off_time": 22.85}, {"pitch": 42, "velocity": 80, "note_on_time": 22.85, "note_off_time": 23.614}, {"pitch": 42, "velocity": 80, "note_on_time": 23.614, "note_off_time": 24.379}, {"pitch": 42, "velocity": 80, "note_on_time": 24.379, "note_off_time": 25.141}, {"pitch": 62, "velocity": 80, "note_on_time": 25.141, "note_off_time": 25.904}, {"pitch": 42, "velocity": 80, "note_on_time": 25.141, "note_off_time": 25.905}, {"pitch": 62, "velocity": 80, "note_on_time": 25.904, "note_off_time": 26.668}, {"pitch": 42, "velocity": 80, "note_on_time": 25.905, "note_off_time": 26.668}, {"pitch": 62, "velocity": 80, "note_on_time": 26.668, "note_off_time": 27.428}, {"pitch": 42, "velocity": 80, "note_on_time": 26.668, "note_off_time": 27.428}]</notes><options name="Option List">((4, 4), [0.25], 3, 8, &lt;NoteRangePerHand.TWO_NOTES: 3&gt;, &lt;NoteRangePerHand.ONE_NOTE: 2&gt;, False, True, False, '80')</options></target_notes><trials><trial trial_no="1" timestamp="2022_09_29-12_07_50"><notes name="Played Notes">[{"pitch": 62, "velocity": 37, "note_on_time": 3.01, "note_off_time": 3.801}, {"pitch": 60, "velocity": 81, "note_on_time": 3.783, "note_off_time": 4.525}, {"pitch": 62, "velocity": 73, "note_on_time": 4.532, "note_off_time": 5.314}, {"pitch": 60, "velocity": 82, "note_on_time": 5.301, "note_off_time": 6.072}, {"pitch": 62, "velocity": 71, "note_on_time": 6.07, "note_off_time": 6.845}, {"pitch": 60, "velocity": 79, "note_on_time": 6.841, "note_off_time": 7.588}, {"pitch": 62, "velocity": 50, "note_on_time": 7.564, "note_off_time": 8.322}, {"pitch": 60, "velocity": 76, "note_on_time": 8.334, "note_off_time": 9.084}, {"pitch": 62, "velocity": 71, "note_on_time": 9.093, "note_off_time": 9.842}, {"pitch": 60, "velocity": 74, "note_on_time": 9.858, "note_off_time": 10.615}, {"pitch": 62, "velocity": 70, "note_on_time": 10.624, "note_off_time": 11.4}, {"pitch": 60, "velocity": 79, "note_on_time": 11.409, "note_off_time": 12.194}, {"pitch": 62, "velocity": 82, "note_on_time": 12.205, "note_off_time": 12.751}, {"pitch": 62, "velocity": 72, "note_on_time": 12.94, "note_off_time": 13.376}, {"pitch": 62, "velocity": 69, "note_on_time": 13.651, "note_off_time": 14.034}, {"pitch": 62, "velocity": 71, "note_on_time": 14.41, "note_off_time": 14.826}, {"pitch": 60, "velocity": 74, "note_on_time": 15.175, "note_off_time": 15.931}, {"pitch": 62, "velocity": 66, "note_on_time": 15.947, "note_off_time": 16.723}, {"pitch": 60, "velocity": 74, "note_on_time": 16.738, "note_off_time": 17.478}, {"pitch": 62, "velocity": 81, "note_on_time": 17.489, "note_off_time": 18.215}, {"pitch": 60, "velocity": 64, "note_on_time": 18.287, "note_off_time": 18.833}, {"pitch": 60, "velocity": 74, "note_on_time": 19.07, "note_off_time": 19.726}, {"pitch": 62, "velocity": 66, "note_on_time": 19.817, "note_off_time": 20.507}, {"pitch": 60, "velocity": 76, "note_on_time": 20.552, "note_off_time": 21.267}, {"pitch": 62, "velocity": 75, "note_on_time": 21.305, "note_off_time": 22.237}, {"pitch": 62, "velocity": 73, "note_on_time": 25.083, "note_off_time": 25.623}, {"pitch": 62, "velocity": 75, "note_on_time": 25.843, "note_off_time": 26.374}, {"pitch": 62, "velocity": 77, "note_on_time": 26.657, "note_off_time": 27.178}]</notes><guidance name="Guidance Mode">None</guidance><error name="Error value">0.02388000000000009</error></trial></trials></MIDI>