<MIDI midiNo="2022_11_21-16_27_15"><target_notes><notes name="Note List">[{"pitch": 42, "velocity": 80, "note_on_time": 0.004, "note_off_time": 0.237}, {"pitch": 42, "velocity": 80, "note_on_time": 0.237, "note_off_time": 0.471}, {"pitch": 42, "velocity": 80, "note_on_time": 0.471, "note_off_time": 0.705}, {"pitch": 42, "velocity": 80, "note_on_time": 0.705, "note_off_time": 0.939}, {"pitch": 60, "velocity": 80, "note_on_time": 0.938, "note_off_time": 1.172}, {"pitch": 42, "velocity": 80, "note_on_time": 0.939, "note_off_time": 1.172}, {"pitch": 42, "velocity": 80, "note_on_time": 1.172, "note_off_time": 1.406}, {"pitch": 42, "velocity": 80, "note_on_time": 1.407, "note_off_time": 1.643}, {"pitch": 42, "velocity": 80, "note_on_time": 1.644, "note_off_time": 1.876}, {"pitch": 64, "velocity": 80, "note_on_time": 1.876, "note_off_time": 2.108}, {"pitch": 42, "velocity": 80, "note_on_time": 1.876, "note_off_time": 2.109}, {"pitch": 64, "velocity": 80, "note_on_time": 2.108, "note_off_time": 2.341}, {"pitch": 42, "velocity": 80, "note_on_time": 2.109, "note_off_time": 2.341}, {"pitch": 60, "velocity": 80, "note_on_time": 2.341, "note_off_time": 2.574}, {"pitch": 42, "velocity": 80, "note_on_time": 2.341, "note_off_time": 2.574}, {"pitch": 62, "velocity": 80, "note_on_time": 2.574, "note_off_time": 2.81}, {"pitch": 42, "velocity": 80, "note_on_time": 2.574, "note_off_time": 2.81}, {"pitch": 62, "velocity": 80, "note_on_time": 2.81, "note_off_time": 3.043}, {"pitch": 42, "velocity": 80, "note_on_time": 2.81, "note_off_time": 3.043}, {"pitch": 42, "velocity": 80, "note_on_time": 3.044, "note_off_time": 3.275}, {"pitch": 64, "velocity": 80, "note_on_time": 3.043, "note_off_time": 3.509}, {"pitch": 42, "velocity": 80, "note_on_time": 3.275, "note_off_time": 3.509}, {"pitch": 62, "velocity": 80, "note_on_time": 3.509, "note_off_time": 3.743}, {"pitch": 42, "velocity": 80, "note_on_time": 3.509, "note_off_time": 3.744}, {"pitch": 62, "velocity": 80, "note_on_time": 3.743, "note_off_time": 3.978}, {"pitch": 42, "velocity": 80, "note_on_time": 3.744, "note_off_time": 3.979}, {"pitch": 62, "velocity": 80, "note_on_time": 3.978, "note_off_time": 4.212}, {"pitch": 42, "velocity": 80, "note_on_time": 3.979, "note_off_time": 4.212}, {"pitch": 64, "velocity": 80, "note_on_time": 4.212, "note_off_time": 4.447}, {"pitch": 42, "velocity": 80, "note_on_time": 4.212, "note_off_time": 4.448}, {"pitch": 64, "velocity": 80, "note_on_time": 4.447, "note_off_time": 4.682}, {"pitch": 42, "velocity": 80, "note_on_time": 4.448, "note_off_time": 4.682}, {"pitch": 62, "velocity": 80, "note_on_time": 4.682, "note_off_time": 4.915}, {"pitch": 42, "velocity": 80, "note_on_time": 4.683, "note_off_time": 4.915}, {"pitch": 60, "velocity": 80, "note_on_time": 4.915, "note_off_time": 5.149}, {"pitch": 42, "velocity": 80, "note_on_time": 4.915, "note_off_time": 5.15}, {"pitch": 64, "velocity": 80, "note_on_time": 5.149, "note_off_time": 5.381}, {"pitch": 42, "velocity": 80, "note_on_time": 5.15, "note_off_time": 5.381}, {"pitch": 64, "velocity": 80, "note_on_time": 5.381, "note_off_time": 5.613}, {"pitch": 42, "velocity": 80, "note_on_time": 5.381, "note_off_time": 5.613}, {"pitch": 42, "velocity": 80, "note_on_time": 5.613, "note_off_time": 5.847}, {"pitch": 64, "velocity": 80, "note_on_time": 5.613, "note_off_time": 6.079}, {"pitch": 42, "velocity": 80, "note_on_time": 5.847, "note_off_time": 6.08}, {"pitch": 42, "velocity": 80, "note_on_time": 6.08, "note_off_time": 6.313}, {"pitch": 62, "velocity": 80, "note_on_time": 6.313, "note_off_time": 6.547}, {"pitch": 42, "velocity": 80, "note_on_time": 6.314, "note_off_time": 6.547}, {"pitch": 42, "velocity": 80, "note_on_time": 6.547, "note_off_time": 6.781}, {"pitch": 64, "velocity": 80, "note_on_time": 6.547, "note_off_time": 7.016}, {"pitch": 42, "velocity": 80, "note_on_time": 6.781, "note_off_time": 7.017}, {"pitch": 42, "velocity": 80, "note_on_time": 7.017, "note_off_time": 7.255}, {"pitch": 42, "velocity": 80, "note_on_time": 7.255, "note_off_time": 7.489}, {"pitch": 42, "velocity": 80, "note_on_time": 7.489, "note_off_time": 7.723}, {"pitch": 64, "velocity": 80, "note_on_time": 7.723, "note_off_time": 7.955}, {"pitch": 42, "velocity": 80, "note_on_time": 7.723, "note_off_time": 7.956}, {"pitch": 64, "velocity": 80, "note_on_time": 7.955, "note_off_time": 8.189}, {"pitch": 42, "velocity": 80, "note_on_time": 7.956, "note_off_time": 8.19}, {"pitch": 64, "velocity": 80, "note_on_time": 8.189, "note_off_time": 8.423}, {"pitch": 42, "velocity": 80, "note_on_time": 8.19, "note_off_time": 8.424}]</notes><options name="Option List">((4, 4), [0.5, 0.25], 3, 8, &lt;NoteRangePerHand.THREE_NOTES: 4&gt;, &lt;NoteRangePerHand.ONE_NOTE: 2&gt;, False, True, False, '265')</options></target_notes><trials><trial trial_no="1" timestamp="2022_11_21-16_27_05"><notes name="Played Notes">[{"pitch": 60, "velocity": 92, "note_on_time": 0.954, "note_off_time": 1.157}, {"pitch": 64, "velocity": 76, "note_on_time": 1.831, "note_off_time": 1.988}, {"pitch": 64, "velocity": 78, "note_on_time": 2.072, "note_off_time": 2.246}, {"pitch": 60, "velocity": 74, "note_on_time": 2.293, "note_off_time": 2.466}, {"pitch": 62, "velocity": 77, "note_on_time": 2.472, "note_off_time": 2.593}, {"pitch": 62, "velocity": 73, "note_on_time": 2.699, "note_off_time": 2.826}, {"pitch": 64, "velocity": 77, "note_on_time": 2.922, "note_off_time": 3.404}, {"pitch": 62, "velocity": 84, "note_on_time": 3.528, "note_off_time": 3.806}, {"pitch": 62, "velocity": 68, "note_on_time": 3.898, "note_off_time": 3.998}, {"pitch": 62, "velocity": 71, "note_on_time": 4.101, "note_off_time": 4.259}, {"pitch": 64, "velocity": 74, "note_on_time": 4.363, "note_off_time": 4.49}, {"pitch": 64, "velocity": 66, "note_on_time": 4.571, "note_off_time": 4.727}, {"pitch": 62, "velocity": 74, "note_on_time": 4.831, "note_off_time": 5.009}, {"pitch": 60, "velocity": 75, "note_on_time": 5.05, "note_off_time": 5.189}, {"pitch": 64, "velocity": 50, "note_on_time": 5.281, "note_off_time": 5.44}, {"pitch": 64, "velocity": 72, "note_on_time": 5.525, "note_off_time": 5.643}, {"pitch": 64, "velocity": 68, "note_on_time": 5.768, "note_off_time": 6.221}, {"pitch": 62, "velocity": 80, "note_on_time": 6.444, "note_off_time": 6.596}, {"pitch": 64, "velocity": 76, "note_on_time": 6.717, "note_off_time": 7.174}, {"pitch": 64, "velocity": 76, "note_on_time": 7.672, "note_off_time": 7.829}, {"pitch": 64, "velocity": 66, "note_on_time": 7.902, "note_off_time": 8.065}, {"pitch": 64, "velocity": 83, "note_on_time": 8.141, "note_off_time": 8.355}]</notes><guidance name="Guidance Mode">None</guidance><error name="Error value">0.041951315789473684</error></trial><trial trial_no="2" timestamp="2022_11_21-16_27_37"><notes name="Played Notes">[{"pitch": 60, "velocity": 95, "note_on_time": 0.946, "note_off_time": 1.112}, {"pitch": 64, "velocity": 72, "note_on_time": 1.875, "note_off_time": 1.992}, {"pitch": 64, "velocity": 63, "note_on_time": 2.086, "note_off_time": 2.215}, {"pitch": 60, "velocity": 81, "note_on_time": 2.269, "note_off_time": 2.425}, {"pitch": 62, "velocity": 71, "note_on_time": 2.455, "note_off_time": 2.58}, {"pitch": 64, "velocity": 77, "note_on_time": 2.7, "note_off_time": 2.766}, {"pitch": 62, "velocity": 81, "note_on_time": 2.874, "note_off_time": 3.097}, {"pitch": 64, "velocity": 78, "note_on_time": 3.129, "note_off_time": 3.571}, {"pitch": 62, "velocity": 80, "note_on_time": 3.773, "note_off_time": 3.974}, {"pitch": 62, "velocity": 77, "note_on_time": 4.064, "note_off_time": 4.173}, {"pitch": 62, "velocity": 68, "note_on_time": 4.301, "note_off_time": 4.459}, {"pitch": 64, "velocity": 79, "note_on_time": 4.548, "note_off_time": 4.688}, {"pitch": 64, "velocity": 67, "note_on_time": 4.784, "note_off_time": 4.932}, {"pitch": 62, "velocity": 74, "note_on_time": 5.045, "note_off_time": 5.228}, {"pitch": 60, "velocity": 70, "note_on_time": 5.263, "note_off_time": 5.417}, {"pitch": 64, "velocity": 70, "note_on_time": 5.497, "note_off_time": 5.623}, {"pitch": 64, "velocity": 59, "note_on_time": 5.723, "note_off_time": 5.874}, {"pitch": 64, "velocity": 71, "note_on_time": 5.983, "note_off_time": 6.46}, {"pitch": 62, "velocity": 77, "note_on_time": 6.817, "note_off_time": 6.961}, {"pitch": 64, "velocity": 72, "note_on_time": 7.07, "note_off_time": 7.529}, {"pitch": 64, "velocity": 81, "note_on_time": 8.115, "note_off_time": 8.245}]</notes><guidance name="Guidance Mode">None</guidance><error name="Error value">0.6711489473684208</error></trial><trial trial_no="3" timestamp="2022_11_21-16_28_04"><notes name="Played Notes">[{"pitch": 60, "velocity": 88, "note_on_time": 1.144, "note_off_time": 1.345}, {"pitch": 64, "velocity": 75, "note_on_time": 2.109, "note_off_time": 2.234}, {"pitch": 64, "velocity": 54, "note_on_time": 2.34, "note_off_time": 2.519}, {"pitch": 60, "velocity": 77, "note_on_time": 2.622, "note_off_time": 2.801}, {"pitch": 62, "velocity": 67, "note_on_time": 2.811, "note_off_time": 2.923}, {"pitch": 62, "velocity": 73, "note_on_time": 3.05, "note_off_time": 3.184}, {"pitch": 64, "velocity": 85, "note_on_time": 3.303, "note_off_time": 3.878}, {"pitch": 62, "velocity": 71, "note_on_time": 4.009, "note_off_time": 4.133}, {"pitch": 62, "velocity": 60, "note_on_time": 4.247, "note_off_time": 4.368}, {"pitch": 62, "velocity": 64, "note_on_time": 4.478, "note_off_time": 4.59}, {"pitch": 64, "velocity": 75, "note_on_time": 4.736, "note_off_time": 4.892}, {"pitch": 64, "velocity": 74, "note_on_time": 4.982, "note_off_time": 5.141}, {"pitch": 62, "velocity": 69, "note_on_time": 5.236, "note_off_time": 5.385}, {"pitch": 60, "velocity": 74, "note_on_time": 5.469, "note_off_time": 5.615}, {"pitch": 64, "velocity": 62, "note_on_time": 5.711, "note_off_time": 5.815}, {"pitch": 64, "velocity": 41, "note_on_time": 5.938, "note_off_time": 6.073}, {"pitch": 64, "velocity": 79, "note_on_time": 6.195, "note_off_time": 6.753}, {"pitch": 62, "velocity": 74, "note_on_time": 7.182, "note_off_time": 7.342}, {"pitch": 64, "velocity": 79, "note_on_time": 7.469, "note_off_time": 7.938}]</notes><guidance name="Guidance Mode">None</guidance><error name="Error value">0.4809523684210525</error></trial></trials></MIDI>