<MIDI midiNo="2022_11_14-18_47_35"><target_notes><notes name="Note List">[{"pitch": 42, "velocity": 80, "note_on_time": 0.004, "note_off_time": 0.233}, {"pitch": 42, "velocity": 80, "note_on_time": 0.233, "note_off_time": 0.451}, {"pitch": 42, "velocity": 80, "note_on_time": 0.451, "note_off_time": 0.67}, {"pitch": 42, "velocity": 80, "note_on_time": 0.67, "note_off_time": 0.886}, {"pitch": 65, "velocity": 80, "note_on_time": 0.886, "note_off_time": 1.102}, {"pitch": 42, "velocity": 80, "note_on_time": 0.886, "note_off_time": 1.102}, {"pitch": 64, "velocity": 80, "note_on_time": 1.102, "note_off_time": 1.319}, {"pitch": 42, "velocity": 80, "note_on_time": 1.102, "note_off_time": 1.319}, {"pitch": 64, "velocity": 80, "note_on_time": 1.319, "note_off_time": 1.535}, {"pitch": 42, "velocity": 80, "note_on_time": 1.319, "note_off_time": 1.535}, {"pitch": 65, "velocity": 80, "note_on_time": 1.535, "note_off_time": 1.754}, {"pitch": 42, "velocity": 80, "note_on_time": 1.535, "note_off_time": 1.754}, {"pitch": 65, "velocity": 80, "note_on_time": 1.754, "note_off_time": 1.97}, {"pitch": 42, "velocity": 80, "note_on_time": 1.754, "note_off_time": 1.97}, {"pitch": 64, "velocity": 80, "note_on_time": 1.97, "note_off_time": 2.187}, {"pitch": 42, "velocity": 80, "note_on_time": 1.97, "note_off_time": 2.187}, {"pitch": 64, "velocity": 80, "note_on_time": 2.187, "note_off_time": 2.407}, {"pitch": 42, "velocity": 80, "note_on_time": 2.187, "note_off_time": 2.407}, {"pitch": 62, "velocity": 80, "note_on_time": 2.407, "note_off_time": 2.623}, {"pitch": 42, "velocity": 80, "note_on_time": 2.407, "note_off_time": 2.623}, {"pitch": 42, "velocity": 80, "note_on_time": 2.623, "note_off_time": 2.841}, {"pitch": 64, "velocity": 80, "note_on_time": 2.623, "note_off_time": 3.06}, {"pitch": 42, "velocity": 80, "note_on_time": 2.841, "note_off_time": 3.06}, {"pitch": 42, "velocity": 80, "note_on_time": 3.06, "note_off_time": 3.278}, {"pitch": 42, "velocity": 80, "note_on_time": 3.278, "note_off_time": 3.495}, {"pitch": 60, "velocity": 80, "note_on_time": 3.495, "note_off_time": 3.716}, {"pitch": 42, "velocity": 80, "note_on_time": 3.495, "note_off_time": 3.716}, {"pitch": 65, "velocity": 80, "note_on_time": 3.716, "note_off_time": 3.935}, {"pitch": 42, "velocity": 80, "note_on_time": 3.716, "note_off_time": 3.935}, {"pitch": 60, "velocity": 80, "note_on_time": 3.935, "note_off_time": 4.154}, {"pitch": 42, "velocity": 80, "note_on_time": 3.935, "note_off_time": 4.154}, {"pitch": 62, "velocity": 80, "note_on_time": 4.154, "note_off_time": 4.372}, {"pitch": 42, "velocity": 80, "note_on_time": 4.154, "note_off_time": 4.372}, {"pitch": 60, "velocity": 80, "note_on_time": 4.372, "note_off_time": 4.592}, {"pitch": 42, "velocity": 80, "note_on_time": 4.372, "note_off_time": 4.592}, {"pitch": 65, "velocity": 80, "note_on_time": 4.592, "note_off_time": 4.809}, {"pitch": 42, "velocity": 80, "note_on_time": 4.592, "note_off_time": 4.809}, {"pitch": 60, "velocity": 80, "note_on_time": 4.809, "note_off_time": 5.027}, {"pitch": 42, "velocity": 80, "note_on_time": 4.809, "note_off_time": 5.027}, {"pitch": 64, "velocity": 80, "note_on_time": 5.027, "note_off_time": 5.247}, {"pitch": 42, "velocity": 80, "note_on_time": 5.027, "note_off_time": 5.247}, {"pitch": 64, "velocity": 80, "note_on_time": 5.247, "note_off_time": 5.464}, {"pitch": 42, "velocity": 80, "note_on_time": 5.247, "note_off_time": 5.465}, {"pitch": 64, "velocity": 80, "note_on_time": 5.464, "note_off_time": 5.681}, {"pitch": 42, "velocity": 80, "note_on_time": 5.465, "note_off_time": 5.681}, {"pitch": 62, "velocity": 80, "note_on_time": 5.681, "note_off_time": 5.898}, {"pitch": 42, "velocity": 80, "note_on_time": 5.681, "note_off_time": 5.898}, {"pitch": 62, "velocity": 80, "note_on_time": 5.898, "note_off_time": 6.116}, {"pitch": 42, "velocity": 80, "note_on_time": 5.898, "note_off_time": 6.116}, {"pitch": 60, "velocity": 80, "note_on_time": 6.116, "note_off_time": 6.335}, {"pitch": 42, "velocity": 80, "note_on_time": 6.116, "note_off_time": 6.335}, {"pitch": 64, "velocity": 80, "note_on_time": 6.335, "note_off_time": 6.553}, {"pitch": 42, "velocity": 80, "note_on_time": 6.335, "note_off_time": 6.553}, {"pitch": 60, "velocity": 80, "note_on_time": 6.553, "note_off_time": 6.771}, {"pitch": 42, "velocity": 80, "note_on_time": 6.553, "note_off_time": 6.771}, {"pitch": 65, "velocity": 80, "note_on_time": 6.771, "note_off_time": 6.99}, {"pitch": 42, "velocity": 80, "note_on_time": 6.771, "note_off_time": 6.99}, {"pitch": 42, "velocity": 80, "note_on_time": 6.99, "note_off_time": 7.21}, {"pitch": 65, "velocity": 80, "note_on_time": 7.21, "note_off_time": 7.427}, {"pitch": 42, "velocity": 80, "note_on_time": 7.21, "note_off_time": 7.427}, {"pitch": 65, "velocity": 80, "note_on_time": 7.427, "note_off_time": 7.645}, {"pitch": 42, "velocity": 80, "note_on_time": 7.427, "note_off_time": 7.645}, {"pitch": 65, "velocity": 80, "note_on_time": 7.645, "note_off_time": 7.86}, {"pitch": 42, "velocity": 80, "note_on_time": 7.645, "note_off_time": 7.86}]</notes><options name="Option List">((4, 4), [0.5, 0.25], 3, 8, &lt;NoteRangePerHand.FOUR_NOTES: 5&gt;, &lt;NoteRangePerHand.ONE_NOTE: 2&gt;, False, True, False, '281')</options></target_notes><trials><trial trial_no="1" timestamp="2022_11_14-18_47_25"><notes name="Played Notes">[{"pitch": 65, "velocity": 85, "note_on_time": 1.905, "note_off_time": 2.021}, {"pitch": 64, "velocity": 88, "note_on_time": 2.172, "note_off_time": 2.262}, {"pitch": 64, "velocity": 86, "note_on_time": 2.424, "note_off_time": 2.56}, {"pitch": 65, "velocity": 87, "note_on_time": 2.704, "note_off_time": 2.818}, {"pitch": 65, "velocity": 94, "note_on_time": 2.974, "note_off_time": 3.107}, {"pitch": 64, "velocity": 84, "note_on_time": 3.221, "note_off_time": 3.333}, {"pitch": 64, "velocity": 80, "note_on_time": 3.478, "note_off_time": 3.651}, {"pitch": 62, "velocity": 80, "note_on_time": 3.757, "note_off_time": 3.872}, {"pitch": 62, "velocity": 82, "note_on_time": 4.051, "note_off_time": 4.19}, {"pitch": 65, "velocity": 83, "note_on_time": 4.425, "note_off_time": 4.717}, {"pitch": 60, "velocity": 86, "note_on_time": 5.285, "note_off_time": 5.441}, {"pitch": 65, "velocity": 90, "note_on_time": 5.577, "note_off_time": 5.728}, {"pitch": 60, "velocity": 89, "note_on_time": 5.857, "note_off_time": 5.964}, {"pitch": 62, "velocity": 87, "note_on_time": 6.123, "note_off_time": 6.257}, {"pitch": 60, "velocity": 88, "note_on_time": 6.386, "note_off_time": 6.498}, {"pitch": 65, "velocity": 81, "note_on_time": 6.667, "note_off_time": 6.819}, {"pitch": 60, "velocity": 89, "note_on_time": 6.933, "note_off_time": 7.045}, {"pitch": 64, "velocity": 84, "note_on_time": 7.181, "note_off_time": 7.277}, {"pitch": 64, "velocity": 87, "note_on_time": 7.446, "note_off_time": 7.567}]</notes><guidance name="Guidance Mode">None</guidance><error name="Error value">0.8329236799999999</error></trial><trial trial_no="2" timestamp="2022_11_14-18_47_50"><notes name="Played Notes">[{"pitch": 65, "velocity": 86, "note_on_time": 0.853, "note_off_time": 0.987}, {"pitch": 64, "velocity": 88, "note_on_time": 1.119, "note_off_time": 1.229}, {"pitch": 64, "velocity": 94, "note_on_time": 1.379, "note_off_time": 1.537}, {"pitch": 65, "velocity": 88, "note_on_time": 1.651, "note_off_time": 1.783}, {"pitch": 65, "velocity": 83, "note_on_time": 1.925, "note_off_time": 2.066}, {"pitch": 64, "velocity": 84, "note_on_time": 2.189, "note_off_time": 2.291}, {"pitch": 64, "velocity": 91, "note_on_time": 2.449, "note_off_time": 2.58}, {"pitch": 62, "velocity": 88, "note_on_time": 2.72, "note_off_time": 2.847}, {"pitch": 64, "velocity": 101, "note_on_time": 3.032, "note_off_time": 3.382}, {"pitch": 60, "velocity": 89, "note_on_time": 3.668, "note_off_time": 3.782}, {"pitch": 65, "velocity": 96, "note_on_time": 3.961, "note_off_time": 4.091}, {"pitch": 60, "velocity": 90, "note_on_time": 4.253, "note_off_time": 4.384}, {"pitch": 60, "velocity": 83, "note_on_time": 4.588, "note_off_time": 4.723}, {"pitch": 62, "velocity": 74, "note_on_time": 4.583, "note_off_time": 4.91}, {"pitch": 60, "velocity": 81, "note_on_time": 5.064, "note_off_time": 5.188}, {"pitch": 65, "velocity": 86, "note_on_time": 5.338, "note_off_time": 5.466}, {"pitch": 60, "velocity": 85, "note_on_time": 5.629, "note_off_time": 5.746}, {"pitch": 64, "velocity": 86, "note_on_time": 5.898, "note_off_time": 6.022}, {"pitch": 64, "velocity": 91, "note_on_time": 6.18, "note_off_time": 6.318}, {"pitch": 64, "velocity": 88, "note_on_time": 6.457, "note_off_time": 6.611}, {"pitch": 62, "velocity": 79, "note_on_time": 6.756, "note_off_time": 6.922}, {"pitch": 62, "velocity": 78, "note_on_time": 7.12, "note_off_time": 7.245}, {"pitch": 60, "velocity": 84, "note_on_time": 7.403, "note_off_time": 7.522}, {"pitch": 64, "velocity": 86, "note_on_time": 7.665, "note_off_time": 7.764}]</notes><guidance name="Guidance Mode">None</guidance><error name="Error value">0.62655264</error></trial><trial trial_no="3" timestamp="2022_11_14-18_48_10"><notes name="Played Notes">[{"pitch": 65, "velocity": 87, "note_on_time": 1.047, "note_off_time": 1.196}, {"pitch": 64, "velocity": 87, "note_on_time": 1.332, "note_off_time": 1.435}, {"pitch": 64, "velocity": 92, "note_on_time": 1.601, "note_off_time": 1.756}, {"pitch": 65, "velocity": 90, "note_on_time": 1.9, "note_off_time": 2.017}, {"pitch": 65, "velocity": 100, "note_on_time": 2.188, "note_off_time": 2.321}, {"pitch": 64, "velocity": 87, "note_on_time": 2.459, "note_off_time": 2.566}, {"pitch": 64, "velocity": 88, "note_on_time": 2.726, "note_off_time": 2.875}, {"pitch": 62, "velocity": 81, "note_on_time": 3.002, "note_off_time": 3.143}, {"pitch": 64, "velocity": 92, "note_on_time": 3.285, "note_off_time": 3.568}, {"pitch": 60, "velocity": 82, "note_on_time": 3.888, "note_off_time": 4.007}, {"pitch": 65, "velocity": 86, "note_on_time": 4.172, "note_off_time": 4.311}, {"pitch": 60, "velocity": 94, "note_on_time": 4.456, "note_off_time": 4.572}, {"pitch": 62, "velocity": 89, "note_on_time": 4.734, "note_off_time": 4.848}, {"pitch": 60, "velocity": 87, "note_on_time": 4.992, "note_off_time": 5.107}, {"pitch": 65, "velocity": 84, "note_on_time": 5.254, "note_off_time": 5.384}, {"pitch": 60, "velocity": 84, "note_on_time": 5.514, "note_off_time": 5.625}, {"pitch": 64, "velocity": 84, "note_on_time": 5.774, "note_off_time": 5.871}, {"pitch": 64, "velocity": 86, "note_on_time": 6.029, "note_off_time": 6.118}, {"pitch": 64, "velocity": 86, "note_on_time": 6.297, "note_off_time": 6.435}, {"pitch": 62, "velocity": 80, "note_on_time": 6.587, "note_off_time": 6.715}, {"pitch": 62, "velocity": 84, "note_on_time": 6.861, "note_off_time": 7.013}, {"pitch": 60, "velocity": 88, "note_on_time": 7.133, "note_off_time": 7.251}, {"pitch": 64, "velocity": 86, "note_on_time": 7.45, "note_off_time": 7.585}, {"pitch": 60, "velocity": 78, "note_on_time": 7.728, "note_off_time": 7.842}]</notes><guidance name="Guidance Mode">None</guidance><error name="Error value">0.53265172</error></trial><trial trial_no="4" timestamp="2022_11_14-18_48_32"><notes name="Played Notes">[{"pitch": 65, "velocity": 89, "note_on_time": 1.068, "note_off_time": 1.21}, {"pitch": 64, "velocity": 89, "note_on_time": 1.337, "note_off_time": 1.436}, {"pitch": 64, "velocity": 91, "note_on_time": 1.599, "note_off_time": 1.723}, {"pitch": 65, "velocity": 84, "note_on_time": 1.877, "note_off_time": 1.977}, {"pitch": 65, "velocity": 91, "note_on_time": 2.154, "note_off_time": 2.262}, {"pitch": 64, "velocity": 91, "note_on_time": 2.42, "note_off_time": 2.513}, {"pitch": 64, "velocity": 84, "note_on_time": 2.693, "note_off_time": 2.819}, {"pitch": 62, "velocity": 85, "note_on_time": 2.973, "note_off_time": 3.111}, {"pitch": 64, "velocity": 97, "note_on_time": 3.271, "note_off_time": 3.604}, {"pitch": 60, "velocity": 94, "note_on_time": 3.849, "note_off_time": 3.966}, {"pitch": 65, "velocity": 90, "note_on_time": 4.133, "note_off_time": 4.241}, {"pitch": 60, "velocity": 87, "note_on_time": 4.41, "note_off_time": 4.519}, {"pitch": 62, "velocity": 86, "note_on_time": 4.692, "note_off_time": 4.798}, {"pitch": 60, "velocity": 82, "note_on_time": 4.958, "note_off_time": 5.057}, {"pitch": 65, "velocity": 90, "note_on_time": 5.239, "note_off_time": 5.356}, {"pitch": 60, "velocity": 82, "note_on_time": 5.499, "note_off_time": 5.632}, {"pitch": 64, "velocity": 79, "note_on_time": 5.777, "note_off_time": 5.878}, {"pitch": 64, "velocity": 92, "note_on_time": 6.065, "note_off_time": 6.162}, {"pitch": 64, "velocity": 94, "note_on_time": 6.373, "note_off_time": 6.498}, {"pitch": 62, "velocity": 81, "note_on_time": 6.644, "note_off_time": 6.752}, {"pitch": 62, "velocity": 75, "note_on_time": 6.918, "note_off_time": 7.075}, {"pitch": 60, "velocity": 89, "note_on_time": 7.2, "note_off_time": 7.319}, {"pitch": 64, "velocity": 76, "note_on_time": 7.467, "note_off_time": 7.568}, {"pitch": 60, "velocity": 84, "note_on_time": 7.728, "note_off_time": 7.839}]</notes><guidance name="Guidance Mode">None</guidance><error name="Error value">0.41248988</error></trial></trials></MIDI>