<MIDI midiNo="2022_12_15-12_14_31"><target_notes><notes name="Note List">[{"pitch": 42, "velocity": 80, "note_on_time": 0.004, "note_off_time": 0.757}, {"pitch": 42, "velocity": 80, "note_on_time": 0.758, "note_off_time": 1.52}, {"pitch": 42, "velocity": 80, "note_on_time": 1.521, "note_off_time": 2.28}, {"pitch": 42, "velocity": 80, "note_on_time": 2.281, "note_off_time": 3.031}, {"pitch": 62, "velocity": 80, "note_on_time": 3.031, "note_off_time": 3.796}, {"pitch": 42, "velocity": 80, "note_on_time": 3.031, "note_off_time": 3.796}, {"pitch": 42, "velocity": 80, "note_on_time": 3.796, "note_off_time": 4.562}, {"pitch": 42, "velocity": 80, "note_on_time": 4.562, "note_off_time": 5.326}, {"pitch": 42, "velocity": 80, "note_on_time": 5.326, "note_off_time": 6.09}, {"pitch": 62, "velocity": 80, "note_on_time": 6.09, "note_off_time": 6.842}, {"pitch": 42, "velocity": 80, "note_on_time": 6.09, "note_off_time": 6.842}, {"pitch": 60, "velocity": 80, "note_on_time": 6.842, "note_off_time": 7.605}, {"pitch": 42, "velocity": 80, "note_on_time": 6.842, "note_off_time": 7.605}, {"pitch": 62, "velocity": 80, "note_on_time": 7.605, "note_off_time": 8.367}, {"pitch": 42, "velocity": 80, "note_on_time": 7.605, "note_off_time": 8.367}, {"pitch": 60, "velocity": 80, "note_on_time": 8.367, "note_off_time": 9.117}, {"pitch": 42, "velocity": 80, "note_on_time": 8.367, "note_off_time": 9.118}, {"pitch": 42, "velocity": 80, "note_on_time": 9.118, "note_off_time": 9.882}, {"pitch": 62, "velocity": 80, "note_on_time": 9.117, "note_off_time": 10.644}, {"pitch": 42, "velocity": 80, "note_on_time": 9.882, "note_off_time": 10.644}, {"pitch": 42, "velocity": 80, "note_on_time": 10.644, "note_off_time": 11.408}, {"pitch": 62, "velocity": 80, "note_on_time": 10.644, "note_off_time": 12.172}, {"pitch": 42, "velocity": 80, "note_on_time": 11.408, "note_off_time": 12.173}, {"pitch": 60, "velocity": 80, "note_on_time": 12.172, "note_off_time": 12.925}, {"pitch": 42, "velocity": 80, "note_on_time": 12.173, "note_off_time": 12.925}, {"pitch": 60, "velocity": 80, "note_on_time": 12.925, "note_off_time": 13.687}, {"pitch": 42, "velocity": 80, "note_on_time": 12.926, "note_off_time": 13.687}, {"pitch": 60, "velocity": 80, "note_on_time": 13.687, "note_off_time": 14.449}, {"pitch": 42, "velocity": 80, "note_on_time": 13.687, "note_off_time": 14.45}, {"pitch": 60, "velocity": 80, "note_on_time": 14.449, "note_off_time": 15.214}, {"pitch": 42, "velocity": 80, "note_on_time": 14.45, "note_off_time": 15.214}, {"pitch": 62, "velocity": 80, "note_on_time": 15.214, "note_off_time": 15.978}, {"pitch": 42, "velocity": 80, "note_on_time": 15.214, "note_off_time": 15.978}, {"pitch": 62, "velocity": 80, "note_on_time": 15.978, "note_off_time": 16.742}, {"pitch": 42, "velocity": 80, "note_on_time": 15.978, "note_off_time": 16.743}, {"pitch": 60, "velocity": 80, "note_on_time": 16.742, "note_off_time": 17.507}, {"pitch": 42, "velocity": 80, "note_on_time": 16.743, "note_off_time": 17.507}, {"pitch": 62, "velocity": 80, "note_on_time": 17.507, "note_off_time": 18.27}, {"pitch": 42, "velocity": 80, "note_on_time": 17.508, "note_off_time": 18.27}, {"pitch": 60, "velocity": 80, "note_on_time": 18.27, "note_off_time": 19.031}, {"pitch": 42, "velocity": 80, "note_on_time": 18.27, "note_off_time": 19.031}, {"pitch": 42, "velocity": 80, "note_on_time": 19.031, "note_off_time": 19.795}, {"pitch": 42, "velocity": 80, "note_on_time": 19.795, "note_off_time": 20.559}, {"pitch": 42, "velocity": 80, "note_on_time": 20.56, "note_off_time": 21.325}, {"pitch": 42, "velocity": 80, "note_on_time": 21.326, "note_off_time": 22.077}, {"pitch": 60, "velocity": 80, "note_on_time": 21.325, "note_off_time": 22.829}, {"pitch": 42, "velocity": 80, "note_on_time": 22.077, "note_off_time": 22.83}, {"pitch": 42, "velocity": 80, "note_on_time": 22.83, "note_off_time": 23.58}, {"pitch": 42, "velocity": 80, "note_on_time": 23.581, "note_off_time": 24.345}, {"pitch": 42, "velocity": 80, "note_on_time": 24.345, "note_off_time": 25.11}, {"pitch": 60, "velocity": 80, "note_on_time": 25.11, "note_off_time": 25.873}, {"pitch": 42, "velocity": 80, "note_on_time": 25.11, "note_off_time": 25.873}, {"pitch": 60, "velocity": 80, "note_on_time": 25.873, "note_off_time": 26.636}, {"pitch": 42, "velocity": 80, "note_on_time": 25.874, "note_off_time": 26.637}, {"pitch": 60, "velocity": 80, "note_on_time": 26.636, "note_off_time": 27.401}, {"pitch": 42, "velocity": 80, "note_on_time": 26.637, "note_off_time": 27.401}]</notes><options name="Option List">((4, 4), [0.5], 3, 8, &lt;NoteRangePerHand.TWO_NOTES: 3&gt;, &lt;NoteRangePerHand.ONE_NOTE: 2&gt;, False, True, False, 80)</options></target_notes><trials><trial trial_no="1" timestamp="2022_12_15-12_14_02"><notes name="Played Notes">[{"pitch": 74, "velocity": 50, "note_on_time": 3.002, "note_off_time": 3.539}, {"pitch": 74, "velocity": 37, "note_on_time": 6.088, "note_off_time": 6.856}, {"pitch": 72, "velocity": 51, "note_on_time": 6.872, "note_off_time": 7.591}, {"pitch": 74, "velocity": 31, "note_on_time": 7.615, "note_off_time": 8.355}, {"pitch": 72, "velocity": 44, "note_on_time": 8.365, "note_off_time": 9.052}, {"pitch": 74, "velocity": 50, "note_on_time": 9.115, "note_off_time": 9.67}, {"pitch": 74, "velocity": 35, "note_on_time": 10.654, "note_off_time": 11.265}, {"pitch": 72, "velocity": 47, "note_on_time": 12.157, "note_off_time": 12.346}, {"pitch": 72, "velocity": 72, "note_on_time": 12.872, "note_off_time": 12.991}, {"pitch": 72, "velocity": 65, "note_on_time": 13.601, "note_off_time": 13.696}, {"pitch": 72, "velocity": 52, "note_on_time": 14.388, "note_off_time": 14.443}, {"pitch": 74, "velocity": 30, "note_on_time": 15.184, "note_off_time": 15.309}, {"pitch": 74, "velocity": 35, "note_on_time": 15.916, "note_off_time": 16.093}, {"pitch": 72, "velocity": 38, "note_on_time": 16.756, "note_off_time": 16.917}, {"pitch": 74, "velocity": 33, "note_on_time": 17.438, "note_off_time": 17.61}, {"pitch": 72, "velocity": 59, "note_on_time": 18.244, "note_off_time": 18.424}, {"pitch": 72, "velocity": 35, "note_on_time": 21.324, "note_off_time": 22.091}, {"pitch": 72, "velocity": 31, "note_on_time": 25.185, "note_off_time": 25.299}, {"pitch": 72, "velocity": 49, "note_on_time": 25.855, "note_off_time": 25.919}, {"pitch": 72, "velocity": 42, "note_on_time": 26.56, "note_off_time": 26.629}]</notes><guidance name="Guidance Mode">None</guidance><error name="Error value">1.2268235294117646</error></trial></trials></MIDI>