<MIDI midiNo="2022_12_22-12_52_53"><target_notes><notes name="Note List">[{"pitch": 42, "velocity": 80, "note_on_time": 0.003, "note_off_time": 0.255}, {"pitch": 42, "velocity": 80, "note_on_time": 0.255, "note_off_time": 0.505}, {"pitch": 42, "velocity": 80, "note_on_time": 0.505, "note_off_time": 0.755}, {"pitch": 42, "velocity": 80, "note_on_time": 0.755, "note_off_time": 1.005}, {"pitch": 67, "velocity": 80, "note_on_time": 1.004, "note_off_time": 1.253}, {"pitch": 42, "velocity": 80, "note_on_time": 1.005, "note_off_time": 1.254}, {"pitch": 42, "velocity": 80, "note_on_time": 1.254, "note_off_time": 1.503}, {"pitch": 42, "velocity": 80, "note_on_time": 1.504, "note_off_time": 1.753}, {"pitch": 67, "velocity": 80, "note_on_time": 1.753, "note_off_time": 2.001}, {"pitch": 42, "velocity": 80, "note_on_time": 1.753, "note_off_time": 2.001}, {"pitch": 42, "velocity": 80, "note_on_time": 2.001, "note_off_time": 2.25}, {"pitch": 60, "velocity": 80, "note_on_time": 2.001, "note_off_time": 2.498}, {"pitch": 42, "velocity": 80, "note_on_time": 2.251, "note_off_time": 2.498}, {"pitch": 42, "velocity": 80, "note_on_time": 2.498, "note_off_time": 2.748}, {"pitch": 42, "velocity": 80, "note_on_time": 2.748, "note_off_time": 2.997}, {"pitch": 60, "velocity": 80, "note_on_time": 2.997, "note_off_time": 3.248}, {"pitch": 42, "velocity": 80, "note_on_time": 2.997, "note_off_time": 3.248}, {"pitch": 42, "velocity": 80, "note_on_time": 3.248, "note_off_time": 3.497}, {"pitch": 42, "velocity": 80, "note_on_time": 3.497, "note_off_time": 3.745}, {"pitch": 65, "velocity": 80, "note_on_time": 3.744, "note_off_time": 3.995}, {"pitch": 42, "velocity": 80, "note_on_time": 3.745, "note_off_time": 3.995}, {"pitch": 62, "velocity": 80, "note_on_time": 3.995, "note_off_time": 4.243}, {"pitch": 42, "velocity": 80, "note_on_time": 3.995, "note_off_time": 4.243}, {"pitch": 67, "velocity": 80, "note_on_time": 4.243, "note_off_time": 4.492}, {"pitch": 42, "velocity": 80, "note_on_time": 4.244, "note_off_time": 4.493}, {"pitch": 65, "velocity": 80, "note_on_time": 4.492, "note_off_time": 4.745}, {"pitch": 42, "velocity": 80, "note_on_time": 4.493, "note_off_time": 4.745}, {"pitch": 64, "velocity": 80, "note_on_time": 4.745, "note_off_time": 4.992}, {"pitch": 42, "velocity": 80, "note_on_time": 4.746, "note_off_time": 4.992}, {"pitch": 60, "velocity": 80, "note_on_time": 4.992, "note_off_time": 5.241}, {"pitch": 42, "velocity": 80, "note_on_time": 4.993, "note_off_time": 5.241}, {"pitch": 64, "velocity": 80, "note_on_time": 5.241, "note_off_time": 5.491}, {"pitch": 42, "velocity": 80, "note_on_time": 5.242, "note_off_time": 5.492}, {"pitch": 67, "velocity": 80, "note_on_time": 5.491, "note_off_time": 5.742}, {"pitch": 42, "velocity": 80, "note_on_time": 5.492, "note_off_time": 5.743}, {"pitch": 62, "velocity": 80, "note_on_time": 5.742, "note_off_time": 5.991}, {"pitch": 42, "velocity": 80, "note_on_time": 5.743, "note_off_time": 5.991}, {"pitch": 42, "velocity": 80, "note_on_time": 5.991, "note_off_time": 6.241}, {"pitch": 67, "velocity": 80, "note_on_time": 5.991, "note_off_time": 6.49}, {"pitch": 42, "velocity": 80, "note_on_time": 6.241, "note_off_time": 6.491}, {"pitch": 42, "velocity": 80, "note_on_time": 6.491, "note_off_time": 6.74}, {"pitch": 42, "velocity": 80, "note_on_time": 6.74, "note_off_time": 6.99}, {"pitch": 42, "velocity": 80, "note_on_time": 6.99, "note_off_time": 7.239}, {"pitch": 60, "velocity": 80, "note_on_time": 6.989, "note_off_time": 7.488}, {"pitch": 42, "velocity": 80, "note_on_time": 7.239, "note_off_time": 7.488}, {"pitch": 42, "velocity": 80, "note_on_time": 7.488, "note_off_time": 7.738}, {"pitch": 42, "velocity": 80, "note_on_time": 7.738, "note_off_time": 7.988}, {"pitch": 42, "velocity": 80, "note_on_time": 7.988, "note_off_time": 8.237}, {"pitch": 60, "velocity": 80, "note_on_time": 8.237, "note_off_time": 8.485}, {"pitch": 42, "velocity": 80, "note_on_time": 8.237, "note_off_time": 8.485}, {"pitch": 60, "velocity": 80, "note_on_time": 8.485, "note_off_time": 8.733}, {"pitch": 42, "velocity": 80, "note_on_time": 8.485, "note_off_time": 8.733}, {"pitch": 60, "velocity": 80, "note_on_time": 8.733, "note_off_time": 8.984}, {"pitch": 42, "velocity": 80, "note_on_time": 8.734, "note_off_time": 8.984}]</notes><options name="Option List">((4, 4), [0.5, 0.25], 3, 8, &lt;NoteRangePerHand.C_TO_G: 6&gt;, &lt;NoteRangePerHand.ONE_NOTE: 2&gt;, False, True, False, 248)</options></target_notes><trials><trial trial_no="1" timestamp="2022_12_22-12_52_42"><notes name="Played Notes">[{"pitch": 67, "velocity": 70, "note_on_time": 1.018, "note_off_time": 1.269}, {"pitch": 67, "velocity": 67, "note_on_time": 2.221, "note_off_time": 2.454}, {"pitch": 60, "velocity": 75, "note_on_time": 2.488, "note_off_time": 3.057}, {"pitch": 60, "velocity": 69, "note_on_time": 3.459, "note_off_time": 3.75}, {"pitch": 67, "velocity": 73, "note_on_time": 3.752, "note_off_time": 3.91}, {"pitch": 65, "velocity": 64, "note_on_time": 3.929, "note_off_time": 4.212}, {"pitch": 62, "velocity": 70, "note_on_time": 4.239, "note_off_time": 4.437}, {"pitch": 67, "velocity": 62, "note_on_time": 4.455, "note_off_time": 4.722}, {"pitch": 65, "velocity": 64, "note_on_time": 4.728, "note_off_time": 5.0}, {"pitch": 64, "velocity": 73, "note_on_time": 4.997, "note_off_time": 5.363}, {"pitch": 60, "velocity": 66, "note_on_time": 5.465, "note_off_time": 5.714}, {"pitch": 64, "velocity": 63, "note_on_time": 5.723, "note_off_time": 5.966}, {"pitch": 67, "velocity": 63, "note_on_time": 5.98, "note_off_time": 6.209}, {"pitch": 62, "velocity": 67, "note_on_time": 6.219, "note_off_time": 6.48}, {"pitch": 67, "velocity": 71, "note_on_time": 6.521, "note_off_time": 7.035}, {"pitch": 60, "velocity": 79, "note_on_time": 7.469, "note_off_time": 7.906}, {"pitch": 60, "velocity": 79, "note_on_time": 8.546, "note_off_time": 8.655}, {"pitch": 60, "velocity": 76, "note_on_time": 8.829, "note_off_time": 8.947}]</notes><guidance name="Guidance Mode">None</guidance><error name="Error value">0.792991333333334</error></trial><trial trial_no="2" timestamp="2022_12_22-12_53_02"><notes name="Played Notes">[{"pitch": 67, "velocity": 68, "note_on_time": 0.997, "note_off_time": 1.233}, {"pitch": 67, "velocity": 64, "note_on_time": 2.141, "note_off_time": 2.414}, {"pitch": 60, "velocity": 83, "note_on_time": 2.456, "note_off_time": 2.949}, {"pitch": 60, "velocity": 62, "note_on_time": 3.753, "note_off_time": 3.984}, {"pitch": 65, "velocity": 73, "note_on_time": 3.981, "note_off_time": 4.211}, {"pitch": 62, "velocity": 66, "note_on_time": 4.22, "note_off_time": 4.449}, {"pitch": 67, "velocity": 62, "note_on_time": 4.454, "note_off_time": 4.744}, {"pitch": 65, "velocity": 64, "note_on_time": 4.714, "note_off_time": 4.983}, {"pitch": 64, "velocity": 57, "note_on_time": 4.986, "note_off_time": 5.214}, {"pitch": 60, "velocity": 74, "note_on_time": 5.226, "note_off_time": 5.499}, {"pitch": 64, "velocity": 55, "note_on_time": 5.504, "note_off_time": 5.741}, {"pitch": 67, "velocity": 63, "note_on_time": 5.731, "note_off_time": 5.945}, {"pitch": 62, "velocity": 63, "note_on_time": 5.964, "note_off_time": 6.197}, {"pitch": 67, "velocity": 73, "note_on_time": 6.202, "note_off_time": 6.615}, {"pitch": 60, "velocity": 78, "note_on_time": 6.944, "note_off_time": 7.48}, {"pitch": 60, "velocity": 81, "note_on_time": 8.223, "note_off_time": 8.348}, {"pitch": 60, "velocity": 70, "note_on_time": 8.449, "note_off_time": 8.554}, {"pitch": 60, "velocity": 75, "note_on_time": 8.686, "note_off_time": 8.856}]</notes><guidance name="Guidance Mode">None</guidance><error name="Error value">0.11727099999999996</error></trial><trial trial_no="3" timestamp="2022_12_22-12_53_21"><notes name="Played Notes">[{"pitch": 67, "velocity": 75, "note_on_time": 0.997, "note_off_time": 1.301}, {"pitch": 67, "velocity": 71, "note_on_time": 2.18, "note_off_time": 2.43}, {"pitch": 60, "velocity": 78, "note_on_time": 2.472, "note_off_time": 2.932}, {"pitch": 60, "velocity": 71, "note_on_time": 3.739, "note_off_time": 3.993}, {"pitch": 65, "velocity": 68, "note_on_time": 3.976, "note_off_time": 4.202}, {"pitch": 64, "velocity": 64, "note_on_time": 4.208, "note_off_time": 4.401}, {"pitch": 65, "velocity": 74, "note_on_time": 4.508, "note_off_time": 4.598}, {"pitch": 67, "velocity": 63, "note_on_time": 4.618, "note_off_time": 4.897}, {"pitch": 65, "velocity": 79, "note_on_time": 4.885, "note_off_time": 5.105}, {"pitch": 64, "velocity": 71, "note_on_time": 5.114, "note_off_time": 5.311}, {"pitch": 60, "velocity": 68, "note_on_time": 5.305, "note_off_time": 5.504}, {"pitch": 64, "velocity": 52, "note_on_time": 5.513, "note_off_time": 5.713}, {"pitch": 67, "velocity": 69, "note_on_time": 5.724, "note_off_time": 5.95}, {"pitch": 62, "velocity": 70, "note_on_time": 5.96, "note_off_time": 6.298}, {"pitch": 67, "velocity": 74, "note_on_time": 6.477, "note_off_time": 6.904}, {"pitch": 60, "velocity": 67, "note_on_time": 7.321, "note_off_time": 7.885}, {"pitch": 60, "velocity": 81, "note_on_time": 8.728, "note_off_time": 8.871}]</notes><guidance name="Guidance Mode">None</guidance><error name="Error value">1.1811116666666663</error></trial></trials></MIDI>