<MIDI midiNo="2022_10_27-13_24_37"><target_notes><notes name="Note List">[{"pitch": 42, "velocity": 80, "note_on_time": 0.004, "note_off_time": 0.378}, {"pitch": 42, "velocity": 80, "note_on_time": 0.378, "note_off_time": 0.752}, {"pitch": 42, "velocity": 80, "note_on_time": 0.752, "note_off_time": 1.125}, {"pitch": 42, "velocity": 80, "note_on_time": 1.125, "note_off_time": 1.5}, {"pitch": 65, "velocity": 80, "note_on_time": 1.5, "note_off_time": 1.874}, {"pitch": 42, "velocity": 80, "note_on_time": 1.5, "note_off_time": 1.875}, {"pitch": 42, "velocity": 80, "note_on_time": 1.875, "note_off_time": 2.249}, {"pitch": 60, "velocity": 80, "note_on_time": 1.874, "note_off_time": 2.621}, {"pitch": 42, "velocity": 80, "note_on_time": 2.249, "note_off_time": 2.621}, {"pitch": 67, "velocity": 80, "note_on_time": 2.621, "note_off_time": 2.994}, {"pitch": 42, "velocity": 80, "note_on_time": 2.621, "note_off_time": 2.994}, {"pitch": 42, "velocity": 80, "note_on_time": 2.994, "note_off_time": 3.368}, {"pitch": 65, "velocity": 80, "note_on_time": 2.994, "note_off_time": 3.743}, {"pitch": 42, "velocity": 80, "note_on_time": 3.368, "note_off_time": 3.743}, {"pitch": 42, "velocity": 80, "note_on_time": 3.743, "note_off_time": 4.116}, {"pitch": 42, "velocity": 80, "note_on_time": 4.116, "note_off_time": 4.49}, {"pitch": 64, "velocity": 80, "note_on_time": 4.489, "note_off_time": 4.863}, {"pitch": 42, "velocity": 80, "note_on_time": 4.49, "note_off_time": 4.864}, {"pitch": 60, "velocity": 80, "note_on_time": 4.863, "note_off_time": 5.237}, {"pitch": 42, "velocity": 80, "note_on_time": 4.864, "note_off_time": 5.237}, {"pitch": 62, "velocity": 80, "note_on_time": 5.237, "note_off_time": 5.613}, {"pitch": 42, "velocity": 80, "note_on_time": 5.238, "note_off_time": 5.613}, {"pitch": 64, "velocity": 80, "note_on_time": 5.613, "note_off_time": 5.986}, {"pitch": 42, "velocity": 80, "note_on_time": 5.613, "note_off_time": 5.986}, {"pitch": 60, "velocity": 80, "note_on_time": 5.986, "note_off_time": 6.36}, {"pitch": 42, "velocity": 80, "note_on_time": 5.986, "note_off_time": 6.36}, {"pitch": 60, "velocity": 80, "note_on_time": 6.36, "note_off_time": 6.733}, {"pitch": 42, "velocity": 80, "note_on_time": 6.361, "note_off_time": 6.734}, {"pitch": 64, "velocity": 80, "note_on_time": 6.733, "note_off_time": 7.109}, {"pitch": 42, "velocity": 80, "note_on_time": 6.734, "note_off_time": 7.109}, {"pitch": 42, "velocity": 80, "note_on_time": 7.11, "note_off_time": 7.483}, {"pitch": 65, "velocity": 80, "note_on_time": 7.483, "note_off_time": 7.857}, {"pitch": 42, "velocity": 80, "note_on_time": 7.483, "note_off_time": 7.857}, {"pitch": 60, "velocity": 80, "note_on_time": 7.857, "note_off_time": 8.229}, {"pitch": 42, "velocity": 80, "note_on_time": 7.858, "note_off_time": 8.229}, {"pitch": 64, "velocity": 80, "note_on_time": 8.229, "note_off_time": 8.599}, {"pitch": 42, "velocity": 80, "note_on_time": 8.229, "note_off_time": 8.599}, {"pitch": 65, "velocity": 80, "note_on_time": 8.599, "note_off_time": 8.972}, {"pitch": 42, "velocity": 80, "note_on_time": 8.599, "note_off_time": 8.972}, {"pitch": 60, "velocity": 80, "note_on_time": 8.972, "note_off_time": 9.344}, {"pitch": 42, "velocity": 80, "note_on_time": 8.972, "note_off_time": 9.345}, {"pitch": 67, "velocity": 80, "note_on_time": 9.344, "note_off_time": 9.718}, {"pitch": 42, "velocity": 80, "note_on_time": 9.345, "note_off_time": 9.718}, {"pitch": 64, "velocity": 80, "note_on_time": 9.718, "note_off_time": 10.089}, {"pitch": 42, "velocity": 80, "note_on_time": 9.719, "note_off_time": 10.089}, {"pitch": 42, "velocity": 80, "note_on_time": 10.09, "note_off_time": 10.465}, {"pitch": 60, "velocity": 80, "note_on_time": 10.465, "note_off_time": 10.835}, {"pitch": 42, "velocity": 80, "note_on_time": 10.465, "note_off_time": 10.835}, {"pitch": 42, "velocity": 80, "note_on_time": 10.836, "note_off_time": 11.209}, {"pitch": 62, "velocity": 80, "note_on_time": 10.835, "note_off_time": 11.583}, {"pitch": 42, "velocity": 80, "note_on_time": 11.21, "note_off_time": 11.583}, {"pitch": 62, "velocity": 80, "note_on_time": 11.583, "note_off_time": 11.958}, {"pitch": 42, "velocity": 80, "note_on_time": 11.584, "note_off_time": 11.958}, {"pitch": 42, "velocity": 80, "note_on_time": 11.958, "note_off_time": 12.332}, {"pitch": 62, "velocity": 80, "note_on_time": 12.332, "note_off_time": 12.704}, {"pitch": 42, "velocity": 80, "note_on_time": 12.332, "note_off_time": 12.704}, {"pitch": 62, "velocity": 80, "note_on_time": 12.704, "note_off_time": 13.08}, {"pitch": 42, "velocity": 80, "note_on_time": 12.705, "note_off_time": 13.08}, {"pitch": 62, "velocity": 80, "note_on_time": 13.08, "note_off_time": 13.453}, {"pitch": 42, "velocity": 80, "note_on_time": 13.08, "note_off_time": 13.453}]</notes><options name="Option List">((4, 4), [0.5, 0.25], 3, 8, &lt;NoteRangePerHand.C_TO_G: 6&gt;, &lt;NoteRangePerHand.ONE_NOTE: 2&gt;, False, True, False, '166')</options></target_notes><trials><trial trial_no="1" timestamp="2022_10_27-13_24_22"><notes name="Played Notes">[{"pitch": 77, "velocity": 68, "note_on_time": 1.509, "note_off_time": 1.756}, {"pitch": 72, "velocity": 64, "note_on_time": 1.849, "note_off_time": 2.553}, {"pitch": 79, "velocity": 71, "note_on_time": 2.628, "note_off_time": 2.918}, {"pitch": 77, "velocity": 63, "note_on_time": 2.972, "note_off_time": 3.533}, {"pitch": 76, "velocity": 68, "note_on_time": 4.475, "note_off_time": 4.772}, {"pitch": 72, "velocity": 62, "note_on_time": 4.824, "note_off_time": 5.159}, {"pitch": 74, "velocity": 65, "note_on_time": 5.19, "note_off_time": 5.509}, {"pitch": 76, "velocity": 67, "note_on_time": 5.559, "note_off_time": 5.954}, {"pitch": 72, "velocity": 65, "note_on_time": 5.965, "note_off_time": 6.06}, {"pitch": 72, "velocity": 69, "note_on_time": 6.318, "note_off_time": 6.462}, {"pitch": 76, "velocity": 74, "note_on_time": 6.712, "note_off_time": 6.902}, {"pitch": 77, "velocity": 71, "note_on_time": 7.469, "note_off_time": 7.697}, {"pitch": 72, "velocity": 67, "note_on_time": 7.815, "note_off_time": 7.98}, {"pitch": 76, "velocity": 66, "note_on_time": 8.185, "note_off_time": 8.399}, {"pitch": 77, "velocity": 70, "note_on_time": 8.573, "note_off_time": 8.754}, {"pitch": 72, "velocity": 66, "note_on_time": 8.938, "note_off_time": 9.107}, {"pitch": 79, "velocity": 65, "note_on_time": 9.299, "note_off_time": 9.447}, {"pitch": 76, "velocity": 70, "note_on_time": 9.637, "note_off_time": 9.836}, {"pitch": 72, "velocity": 71, "note_on_time": 10.396, "note_off_time": 10.566}, {"pitch": 74, "velocity": 74, "note_on_time": 10.774, "note_off_time": 11.317}, {"pitch": 74, "velocity": 73, "note_on_time": 11.577, "note_off_time": 11.75}, {"pitch": 74, "velocity": 78, "note_on_time": 12.301, "note_off_time": 12.418}, {"pitch": 74, "velocity": 73, "note_on_time": 12.677, "note_off_time": 12.778}, {"pitch": 74, "velocity": 83, "note_on_time": 13.024, "note_off_time": 13.113}]</notes><guidance name="Guidance Mode">None</guidance><error name="Error value">1.1684440476190476</error></trial><trial trial_no="2" timestamp="2022_10_27-13_24_52"><notes name="Played Notes">[{"pitch": 77, "velocity": 72, "note_on_time": 1.53, "note_off_time": 1.816}, {"pitch": 72, "velocity": 72, "note_on_time": 1.891, "note_off_time": 2.533}, {"pitch": 79, "velocity": 74, "note_on_time": 2.628, "note_off_time": 2.88}, {"pitch": 77, "velocity": 62, "note_on_time": 2.971, "note_off_time": 3.611}, {"pitch": 76, "velocity": 64, "note_on_time": 4.475, "note_off_time": 4.788}, {"pitch": 72, "velocity": 63, "note_on_time": 4.822, "note_off_time": 5.118}, {"pitch": 74, "velocity": 77, "note_on_time": 5.198, "note_off_time": 5.494}, {"pitch": 76, "velocity": 61, "note_on_time": 5.534, "note_off_time": 5.888}, {"pitch": 72, "velocity": 65, "note_on_time": 5.915, "note_off_time": 6.02}, {"pitch": 72, "velocity": 70, "note_on_time": 6.298, "note_off_time": 6.434}, {"pitch": 76, "velocity": 68, "note_on_time": 6.669, "note_off_time": 6.854}, {"pitch": 77, "velocity": 68, "note_on_time": 7.43, "note_off_time": 7.626}, {"pitch": 72, "velocity": 68, "note_on_time": 7.781, "note_off_time": 7.99}, {"pitch": 76, "velocity": 60, "note_on_time": 8.141, "note_off_time": 8.52}, {"pitch": 77, "velocity": 65, "note_on_time": 8.529, "note_off_time": 8.839}, {"pitch": 72, "velocity": 66, "note_on_time": 8.895, "note_off_time": 9.121}, {"pitch": 79, "velocity": 64, "note_on_time": 9.275, "note_off_time": 9.479}, {"pitch": 76, "velocity": 69, "note_on_time": 9.624, "note_off_time": 9.962}, {"pitch": 72, "velocity": 65, "note_on_time": 10.367, "note_off_time": 10.649}, {"pitch": 74, "velocity": 70, "note_on_time": 10.751, "note_off_time": 11.351}, {"pitch": 74, "velocity": 79, "note_on_time": 11.55, "note_off_time": 11.995}, {"pitch": 74, "velocity": 77, "note_on_time": 12.438, "note_off_time": 12.552}, {"pitch": 74, "velocity": 71, "note_on_time": 12.774, "note_off_time": 12.876}, {"pitch": 74, "velocity": 73, "note_on_time": 13.108, "note_off_time": 13.194}]</notes><guidance name="Guidance Mode">None</guidance><error name="Error value">1.1735816666666667</error></trial><trial trial_no="3" timestamp="2022_10_27-13_25_24"><notes name="Played Notes">[{"pitch": 77, "velocity": 67, "note_on_time": 1.476, "note_off_time": 1.817}, {"pitch": 72, "velocity": 66, "note_on_time": 1.828, "note_off_time": 2.502}, {"pitch": 79, "velocity": 64, "note_on_time": 2.566, "note_off_time": 2.877}, {"pitch": 77, "velocity": 65, "note_on_time": 2.902, "note_off_time": 3.621}, {"pitch": 76, "velocity": 64, "note_on_time": 4.452, "note_off_time": 4.783}, {"pitch": 72, "velocity": 66, "note_on_time": 4.806, "note_off_time": 5.114}, {"pitch": 74, "velocity": 71, "note_on_time": 5.166, "note_off_time": 5.504}, {"pitch": 76, "velocity": 64, "note_on_time": 5.526, "note_off_time": 5.878}, {"pitch": 72, "velocity": 65, "note_on_time": 5.891, "note_off_time": 6.022}, {"pitch": 72, "velocity": 67, "note_on_time": 6.284, "note_off_time": 6.448}, {"pitch": 76, "velocity": 73, "note_on_time": 6.628, "note_off_time": 6.933}, {"pitch": 77, "velocity": 68, "note_on_time": 7.404, "note_off_time": 7.692}, {"pitch": 72, "velocity": 64, "note_on_time": 7.758, "note_off_time": 8.092}, {"pitch": 76, "velocity": 58, "note_on_time": 8.121, "note_off_time": 8.488}, {"pitch": 77, "velocity": 65, "note_on_time": 8.525, "note_off_time": 8.863}, {"pitch": 72, "velocity": 71, "note_on_time": 8.883, "note_off_time": 9.188}, {"pitch": 79, "velocity": 71, "note_on_time": 9.25, "note_off_time": 9.61}, {"pitch": 76, "velocity": 60, "note_on_time": 9.639, "note_off_time": 9.917}, {"pitch": 72, "velocity": 71, "note_on_time": 10.351, "note_off_time": 10.652}, {"pitch": 74, "velocity": 76, "note_on_time": 10.716, "note_off_time": 11.226}, {"pitch": 74, "velocity": 67, "note_on_time": 11.438, "note_off_time": 11.645}, {"pitch": 74, "velocity": 75, "note_on_time": 12.2, "note_off_time": 12.36}, {"pitch": 74, "velocity": 71, "note_on_time": 12.6, "note_off_time": 12.75}, {"pitch": 74, "velocity": 84, "note_on_time": 13.007, "note_off_time": 13.113}]</notes><guidance name="Guidance Mode">None</guidance><error name="Error value">1.166518333333333</error></trial></trials></MIDI>