<MIDI midiNo="2022_12_22-10_57_07"><target_notes><notes name="Note List">[{"pitch": 42, "velocity": 80, "note_on_time": 0.004, "note_off_time": 0.728}, {"pitch": 42, "velocity": 80, "note_on_time": 0.728, "note_off_time": 1.46}, {"pitch": 42, "velocity": 80, "note_on_time": 1.461, "note_off_time": 2.191}, {"pitch": 42, "velocity": 80, "note_on_time": 2.191, "note_off_time": 2.92}, {"pitch": 62, "velocity": 80, "note_on_time": 2.919, "note_off_time": 3.65}, {"pitch": 42, "velocity": 80, "note_on_time": 2.92, "note_off_time": 3.65}, {"pitch": 62, "velocity": 80, "note_on_time": 3.65, "note_off_time": 4.383}, {"pitch": 42, "velocity": 80, "note_on_time": 3.65, "note_off_time": 4.383}, {"pitch": 60, "velocity": 80, "note_on_time": 4.383, "note_off_time": 5.112}, {"pitch": 42, "velocity": 80, "note_on_time": 4.383, "note_off_time": 5.113}, {"pitch": 64, "velocity": 80, "note_on_time": 5.112, "note_off_time": 5.843}, {"pitch": 42, "velocity": 80, "note_on_time": 5.113, "note_off_time": 5.843}, {"pitch": 60, "velocity": 80, "note_on_time": 5.843, "note_off_time": 6.574}, {"pitch": 42, "velocity": 80, "note_on_time": 5.843, "note_off_time": 6.575}, {"pitch": 42, "velocity": 80, "note_on_time": 6.575, "note_off_time": 7.307}, {"pitch": 42, "velocity": 80, "note_on_time": 7.308, "note_off_time": 8.041}, {"pitch": 42, "velocity": 80, "note_on_time": 8.041, "note_off_time": 8.77}, {"pitch": 64, "velocity": 80, "note_on_time": 8.77, "note_off_time": 9.5}, {"pitch": 42, "velocity": 80, "note_on_time": 8.77, "note_off_time": 9.501}, {"pitch": 42, "velocity": 80, "note_on_time": 9.501, "note_off_time": 10.232}, {"pitch": 42, "velocity": 80, "note_on_time": 10.232, "note_off_time": 10.964}, {"pitch": 42, "velocity": 80, "note_on_time": 10.964, "note_off_time": 11.691}, {"pitch": 62, "velocity": 80, "note_on_time": 11.691, "note_off_time": 12.423}, {"pitch": 42, "velocity": 80, "note_on_time": 11.692, "note_off_time": 12.423}, {"pitch": 62, "velocity": 80, "note_on_time": 12.423, "note_off_time": 13.156}, {"pitch": 42, "velocity": 80, "note_on_time": 12.423, "note_off_time": 13.156}, {"pitch": 60, "velocity": 80, "note_on_time": 13.156, "note_off_time": 13.888}, {"pitch": 42, "velocity": 80, "note_on_time": 13.156, "note_off_time": 13.888}, {"pitch": 62, "velocity": 80, "note_on_time": 13.888, "note_off_time": 14.617}, {"pitch": 42, "velocity": 80, "note_on_time": 13.888, "note_off_time": 14.618}, {"pitch": 62, "velocity": 80, "note_on_time": 14.617, "note_off_time": 15.345}, {"pitch": 42, "velocity": 80, "note_on_time": 14.618, "note_off_time": 15.345}, {"pitch": 62, "velocity": 80, "note_on_time": 15.345, "note_off_time": 16.076}, {"pitch": 42, "velocity": 80, "note_on_time": 15.345, "note_off_time": 16.076}, {"pitch": 60, "velocity": 80, "note_on_time": 16.076, "note_off_time": 16.809}, {"pitch": 42, "velocity": 80, "note_on_time": 16.076, "note_off_time": 16.81}, {"pitch": 62, "velocity": 80, "note_on_time": 16.809, "note_off_time": 17.538}, {"pitch": 42, "velocity": 80, "note_on_time": 16.81, "note_off_time": 17.538}, {"pitch": 60, "velocity": 80, "note_on_time": 17.538, "note_off_time": 18.274}, {"pitch": 42, "velocity": 80, "note_on_time": 17.538, "note_off_time": 18.275}, {"pitch": 64, "velocity": 80, "note_on_time": 18.274, "note_off_time": 19.006}, {"pitch": 42, "velocity": 80, "note_on_time": 18.275, "note_off_time": 19.006}, {"pitch": 64, "velocity": 80, "note_on_time": 19.006, "note_off_time": 19.739}, {"pitch": 42, "velocity": 80, "note_on_time": 19.006, "note_off_time": 19.739}, {"pitch": 64, "velocity": 80, "note_on_time": 19.739, "note_off_time": 20.471}, {"pitch": 42, "velocity": 80, "note_on_time": 19.739, "note_off_time": 20.471}, {"pitch": 60, "velocity": 80, "note_on_time": 20.471, "note_off_time": 21.205}, {"pitch": 42, "velocity": 80, "note_on_time": 20.472, "note_off_time": 21.205}, {"pitch": 60, "velocity": 80, "note_on_time": 21.205, "note_off_time": 21.936}, {"pitch": 42, "velocity": 80, "note_on_time": 21.205, "note_off_time": 21.936}, {"pitch": 60, "velocity": 80, "note_on_time": 21.936, "note_off_time": 22.665}, {"pitch": 42, "velocity": 80, "note_on_time": 21.937, "note_off_time": 22.665}, {"pitch": 64, "velocity": 80, "note_on_time": 22.665, "note_off_time": 23.397}, {"pitch": 42, "velocity": 80, "note_on_time": 22.665, "note_off_time": 23.397}, {"pitch": 42, "velocity": 80, "note_on_time": 23.397, "note_off_time": 24.13}, {"pitch": 64, "velocity": 80, "note_on_time": 24.129, "note_off_time": 24.861}, {"pitch": 42, "velocity": 80, "note_on_time": 24.13, "note_off_time": 24.862}, {"pitch": 64, "velocity": 80, "note_on_time": 24.861, "note_off_time": 25.59}, {"pitch": 42, "velocity": 80, "note_on_time": 24.862, "note_off_time": 25.591}, {"pitch": 64, "velocity": 80, "note_on_time": 25.59, "note_off_time": 26.326}, {"pitch": 42, "velocity": 80, "note_on_time": 25.591, "note_off_time": 26.326}]</notes><options name="Option List">((4, 4), [0.5, 0.25], 3, 8, &lt;NoteRangePerHand.THREE_NOTES: 4&gt;, &lt;NoteRangePerHand.ONE_NOTE: 2&gt;, False, True, False, 83)</options></target_notes><trials><trial trial_no="1" timestamp="2022_12_22-10_57_18"><notes name="Played Notes">[{"pitch": 62, "velocity": 53, "note_on_time": 2.913, "note_off_time": 3.21}, {"pitch": 62, "velocity": 61, "note_on_time": 3.583, "note_off_time": 3.836}, {"pitch": 60, "velocity": 66, "note_on_time": 4.229, "note_off_time": 4.55}, {"pitch": 64, "velocity": 68, "note_on_time": 4.999, "note_off_time": 5.345}, {"pitch": 60, "velocity": 70, "note_on_time": 5.785, "note_off_time": 6.114}, {"pitch": 64, "velocity": 60, "note_on_time": 8.694, "note_off_time": 9.05}, {"pitch": 62, "velocity": 45, "note_on_time": 11.696, "note_off_time": 11.994}, {"pitch": 62, "velocity": 56, "note_on_time": 12.398, "note_off_time": 12.721}, {"pitch": 60, "velocity": 50, "note_on_time": 13.096, "note_off_time": 13.466}, {"pitch": 62, "velocity": 56, "note_on_time": 13.816, "note_off_time": 14.112}, {"pitch": 62, "velocity": 48, "note_on_time": 14.582, "note_off_time": 14.832}, {"pitch": 62, "velocity": 51, "note_on_time": 15.266, "note_off_time": 15.553}, {"pitch": 60, "velocity": 58, "note_on_time": 15.944, "note_off_time": 16.303}, {"pitch": 62, "velocity": 57, "note_on_time": 16.741, "note_off_time": 17.036}, {"pitch": 60, "velocity": 50, "note_on_time": 17.481, "note_off_time": 17.74}, {"pitch": 64, "velocity": 41, "note_on_time": 18.24, "note_off_time": 18.516}, {"pitch": 64, "velocity": 51, "note_on_time": 18.93, "note_off_time": 19.198}, {"pitch": 64, "velocity": 52, "note_on_time": 19.679, "note_off_time": 20.016}, {"pitch": 60, "velocity": 48, "note_on_time": 20.399, "note_off_time": 20.712}, {"pitch": 60, "velocity": 54, "note_on_time": 21.167, "note_off_time": 21.444}, {"pitch": 60, "velocity": 48, "note_on_time": 21.902, "note_off_time": 22.156}, {"pitch": 64, "velocity": 60, "note_on_time": 22.657, "note_off_time": 22.876}, {"pitch": 64, "velocity": 55, "note_on_time": 24.14, "note_off_time": 24.369}, {"pitch": 64, "velocity": 59, "note_on_time": 24.841, "note_off_time": 25.067}, {"pitch": 64, "velocity": 49, "note_on_time": 25.536, "note_off_time": 25.676}]</notes><guidance name="Guidance Mode">None</guidance><error name="Error value">0.04131731818181767</error></trial></trials></MIDI>