<MIDI midiNo="2022_11_21-16_56_57"><target_notes><notes name="Note List">[{"pitch": 42, "velocity": 80, "note_on_time": 0.004, "note_off_time": 0.261}, {"pitch": 42, "velocity": 80, "note_on_time": 0.261, "note_off_time": 0.51}, {"pitch": 42, "velocity": 80, "note_on_time": 0.51, "note_off_time": 0.76}, {"pitch": 42, "velocity": 80, "note_on_time": 0.76, "note_off_time": 1.011}, {"pitch": 62, "velocity": 80, "note_on_time": 1.011, "note_off_time": 1.261}, {"pitch": 42, "velocity": 80, "note_on_time": 1.011, "note_off_time": 1.262}, {"pitch": 42, "velocity": 80, "note_on_time": 1.262, "note_off_time": 1.511}, {"pitch": 64, "velocity": 80, "note_on_time": 1.261, "note_off_time": 1.759}, {"pitch": 42, "velocity": 80, "note_on_time": 1.512, "note_off_time": 1.759}, {"pitch": 42, "velocity": 80, "note_on_time": 1.76, "note_off_time": 2.008}, {"pitch": 60, "velocity": 80, "note_on_time": 2.008, "note_off_time": 2.257}, {"pitch": 42, "velocity": 80, "note_on_time": 2.008, "note_off_time": 2.258}, {"pitch": 62, "velocity": 80, "note_on_time": 2.257, "note_off_time": 2.506}, {"pitch": 42, "velocity": 80, "note_on_time": 2.258, "note_off_time": 2.507}, {"pitch": 42, "velocity": 80, "note_on_time": 2.507, "note_off_time": 2.754}, {"pitch": 64, "velocity": 80, "note_on_time": 2.506, "note_off_time": 3.001}, {"pitch": 42, "velocity": 80, "note_on_time": 2.754, "note_off_time": 3.001}, {"pitch": 60, "velocity": 80, "note_on_time": 3.001, "note_off_time": 3.251}, {"pitch": 42, "velocity": 80, "note_on_time": 3.001, "note_off_time": 3.251}, {"pitch": 60, "velocity": 80, "note_on_time": 3.251, "note_off_time": 3.499}, {"pitch": 42, "velocity": 80, "note_on_time": 3.252, "note_off_time": 3.499}, {"pitch": 42, "velocity": 80, "note_on_time": 3.499, "note_off_time": 3.747}, {"pitch": 42, "velocity": 80, "note_on_time": 3.748, "note_off_time": 3.997}, {"pitch": 60, "velocity": 80, "note_on_time": 3.996, "note_off_time": 4.244}, {"pitch": 42, "velocity": 80, "note_on_time": 3.997, "note_off_time": 4.245}, {"pitch": 60, "velocity": 80, "note_on_time": 4.244, "note_off_time": 4.492}, {"pitch": 42, "velocity": 80, "note_on_time": 4.245, "note_off_time": 4.492}, {"pitch": 64, "velocity": 80, "note_on_time": 4.492, "note_off_time": 4.741}, {"pitch": 42, "velocity": 80, "note_on_time": 4.493, "note_off_time": 4.742}, {"pitch": 60, "velocity": 80, "note_on_time": 4.741, "note_off_time": 4.989}, {"pitch": 42, "velocity": 80, "note_on_time": 4.742, "note_off_time": 4.989}, {"pitch": 64, "velocity": 80, "note_on_time": 4.989, "note_off_time": 5.238}, {"pitch": 42, "velocity": 80, "note_on_time": 4.989, "note_off_time": 5.238}, {"pitch": 62, "velocity": 80, "note_on_time": 5.238, "note_off_time": 5.487}, {"pitch": 42, "velocity": 80, "note_on_time": 5.238, "note_off_time": 5.488}, {"pitch": 62, "velocity": 80, "note_on_time": 5.487, "note_off_time": 5.736}, {"pitch": 42, "velocity": 80, "note_on_time": 5.488, "note_off_time": 5.736}, {"pitch": 64, "velocity": 80, "note_on_time": 5.736, "note_off_time": 5.984}, {"pitch": 42, "velocity": 80, "note_on_time": 5.736, "note_off_time": 5.984}, {"pitch": 64, "velocity": 80, "note_on_time": 5.984, "note_off_time": 6.233}, {"pitch": 42, "velocity": 80, "note_on_time": 5.985, "note_off_time": 6.233}, {"pitch": 62, "velocity": 80, "note_on_time": 6.233, "note_off_time": 6.481}, {"pitch": 42, "velocity": 80, "note_on_time": 6.234, "note_off_time": 6.482}, {"pitch": 62, "velocity": 80, "note_on_time": 6.481, "note_off_time": 6.729}, {"pitch": 42, "velocity": 80, "note_on_time": 6.482, "note_off_time": 6.729}, {"pitch": 62, "velocity": 80, "note_on_time": 6.729, "note_off_time": 6.979}, {"pitch": 42, "velocity": 80, "note_on_time": 6.729, "note_off_time": 6.979}, {"pitch": 62, "velocity": 80, "note_on_time": 6.979, "note_off_time": 7.228}, {"pitch": 42, "velocity": 80, "note_on_time": 6.979, "note_off_time": 7.228}, {"pitch": 62, "velocity": 80, "note_on_time": 7.228, "note_off_time": 7.477}, {"pitch": 42, "velocity": 80, "note_on_time": 7.228, "note_off_time": 7.477}, {"pitch": 60, "velocity": 80, "note_on_time": 7.477, "note_off_time": 7.726}, {"pitch": 42, "velocity": 80, "note_on_time": 7.477, "note_off_time": 7.726}, {"pitch": 64, "velocity": 80, "note_on_time": 7.726, "note_off_time": 7.975}, {"pitch": 42, "velocity": 80, "note_on_time": 7.726, "note_off_time": 7.975}, {"pitch": 42, "velocity": 80, "note_on_time": 7.975, "note_off_time": 8.223}, {"pitch": 64, "velocity": 80, "note_on_time": 8.223, "note_off_time": 8.471}, {"pitch": 42, "velocity": 80, "note_on_time": 8.223, "note_off_time": 8.471}, {"pitch": 64, "velocity": 80, "note_on_time": 8.471, "note_off_time": 8.72}, {"pitch": 42, "velocity": 80, "note_on_time": 8.471, "note_off_time": 8.72}, {"pitch": 64, "velocity": 80, "note_on_time": 8.72, "note_off_time": 8.968}, {"pitch": 42, "velocity": 80, "note_on_time": 8.72, "note_off_time": 8.968}]</notes><options name="Option List">((4, 4), [0.5, 0.25], 3, 8, &lt;NoteRangePerHand.THREE_NOTES: 4&gt;, &lt;NoteRangePerHand.ONE_NOTE: 2&gt;, False, True, False, 248)</options></target_notes><trials><trial trial_no="1" timestamp="2022_11_21-16_56_46"><notes name="Played Notes">[{"pitch": 62, "velocity": 70, "note_on_time": 0.996, "note_off_time": 1.172}, {"pitch": 64, "velocity": 76, "note_on_time": 1.26, "note_off_time": 1.779}, {"pitch": 60, "velocity": 80, "note_on_time": 2.176, "note_off_time": 2.387}, {"pitch": 62, "velocity": 67, "note_on_time": 2.435, "note_off_time": 2.589}, {"pitch": 64, "velocity": 70, "note_on_time": 2.726, "note_off_time": 3.086}, {"pitch": 60, "velocity": 84, "note_on_time": 3.231, "note_off_time": 3.436}, {"pitch": 60, "velocity": 90, "note_on_time": 3.526, "note_off_time": 3.715}, {"pitch": 60, "velocity": 84, "note_on_time": 4.355, "note_off_time": 4.555}, {"pitch": 60, "velocity": 60, "note_on_time": 4.615, "note_off_time": 4.818}, {"pitch": 64, "velocity": 71, "note_on_time": 4.898, "note_off_time": 5.099}, {"pitch": 60, "velocity": 70, "note_on_time": 5.105, "note_off_time": 5.307}, {"pitch": 64, "velocity": 76, "note_on_time": 5.383, "note_off_time": 5.552}, {"pitch": 62, "velocity": 67, "note_on_time": 5.645, "note_off_time": 5.775}, {"pitch": 62, "velocity": 65, "note_on_time": 5.898, "note_off_time": 6.075}, {"pitch": 64, "velocity": 78, "note_on_time": 6.161, "note_off_time": 6.321}, {"pitch": 62, "velocity": 73, "note_on_time": 6.44, "note_off_time": 6.524}, {"pitch": 64, "velocity": 78, "note_on_time": 6.659, "note_off_time": 6.748}, {"pitch": 62, "velocity": 68, "note_on_time": 6.761, "note_off_time": 6.905}, {"pitch": 62, "velocity": 67, "note_on_time": 7.009, "note_off_time": 7.147}, {"pitch": 62, "velocity": 65, "note_on_time": 7.251, "note_off_time": 7.377}, {"pitch": 62, "velocity": 61, "note_on_time": 7.491, "note_off_time": 7.655}, {"pitch": 62, "velocity": 59, "note_on_time": 7.765, "note_off_time": 7.971}, {"pitch": 60, "velocity": 77, "note_on_time": 8.014, "note_off_time": 8.211}, {"pitch": 64, "velocity": 66, "note_on_time": 8.262, "note_off_time": 8.451}, {"pitch": 64, "velocity": 64, "note_on_time": 8.787, "note_off_time": 8.945}]</notes><guidance name="Guidance Mode">None</guidance><error name="Error value">0.28896108695652173</error></trial><trial trial_no="2" timestamp="2022_11_21-16_57_20"><notes name="Played Notes">[{"pitch": 62, "velocity": 81, "note_on_time": 1.037, "note_off_time": 1.21}, {"pitch": 64, "velocity": 81, "note_on_time": 1.301, "note_off_time": 1.83}, {"pitch": 60, "velocity": 64, "note_on_time": 2.113, "note_off_time": 2.331}, {"pitch": 62, "velocity": 69, "note_on_time": 2.37, "note_off_time": 2.541}, {"pitch": 64, "velocity": 79, "note_on_time": 2.656, "note_off_time": 3.063}, {"pitch": 60, "velocity": 83, "note_on_time": 3.18, "note_off_time": 3.368}, {"pitch": 60, "velocity": 79, "note_on_time": 3.467, "note_off_time": 3.673}, {"pitch": 60, "velocity": 88, "note_on_time": 4.317, "note_off_time": 4.497}, {"pitch": 60, "velocity": 81, "note_on_time": 4.594, "note_off_time": 4.763}, {"pitch": 64, "velocity": 74, "note_on_time": 4.86, "note_off_time": 5.03}, {"pitch": 60, "velocity": 82, "note_on_time": 5.08, "note_off_time": 5.221}, {"pitch": 64, "velocity": 79, "note_on_time": 5.338, "note_off_time": 5.487}, {"pitch": 62, "velocity": 76, "note_on_time": 5.62, "note_off_time": 5.734}, {"pitch": 62, "velocity": 79, "note_on_time": 5.88, "note_off_time": 6.023}, {"pitch": 64, "velocity": 77, "note_on_time": 6.134, "note_off_time": 6.277}, {"pitch": 64, "velocity": 64, "note_on_time": 6.383, "note_off_time": 6.559}, {"pitch": 62, "velocity": 78, "note_on_time": 6.682, "note_off_time": 6.817}, {"pitch": 62, "velocity": 68, "note_on_time": 6.943, "note_off_time": 7.091}, {"pitch": 62, "velocity": 65, "note_on_time": 7.209, "note_off_time": 7.376}, {"pitch": 62, "velocity": 72, "note_on_time": 7.48, "note_off_time": 7.644}, {"pitch": 62, "velocity": 70, "note_on_time": 7.749, "note_off_time": 7.932}, {"pitch": 60, "velocity": 82, "note_on_time": 8.004, "note_off_time": 8.176}, {"pitch": 64, "velocity": 76, "note_on_time": 8.255, "note_off_time": 8.43}, {"pitch": 64, "velocity": 76, "note_on_time": 8.741, "note_off_time": 8.905}]</notes><guidance name="Guidance Mode">None</guidance><error name="Error value">0.1398097826086958</error></trial><trial trial_no="3" timestamp="2022_11_21-16_57_54"><notes name="Played Notes">[{"pitch": 62, "velocity": 68, "note_on_time": 1.003, "note_off_time": 1.165}, {"pitch": 64, "velocity": 84, "note_on_time": 1.278, "note_off_time": 1.769}, {"pitch": 60, "velocity": 79, "note_on_time": 2.315, "note_off_time": 2.503}, {"pitch": 62, "velocity": 73, "note_on_time": 2.585, "note_off_time": 2.706}, {"pitch": 64, "velocity": 84, "note_on_time": 2.855, "note_off_time": 3.197}, {"pitch": 60, "velocity": 89, "note_on_time": 3.335, "note_off_time": 3.487}, {"pitch": 60, "velocity": 78, "note_on_time": 3.584, "note_off_time": 3.779}, {"pitch": 60, "velocity": 85, "note_on_time": 4.403, "note_off_time": 4.551}, {"pitch": 60, "velocity": 81, "note_on_time": 4.689, "note_off_time": 4.832}, {"pitch": 64, "velocity": 74, "note_on_time": 4.965, "note_off_time": 5.099}, {"pitch": 60, "velocity": 83, "note_on_time": 5.214, "note_off_time": 5.315}, {"pitch": 64, "velocity": 77, "note_on_time": 5.474, "note_off_time": 5.59}, {"pitch": 62, "velocity": 74, "note_on_time": 5.736, "note_off_time": 5.836}, {"pitch": 62, "velocity": 74, "note_on_time": 5.986, "note_off_time": 6.096}, {"pitch": 64, "velocity": 81, "note_on_time": 6.243, "note_off_time": 6.351}, {"pitch": 64, "velocity": 70, "note_on_time": 6.486, "note_off_time": 6.634}, {"pitch": 62, "velocity": 78, "note_on_time": 6.776, "note_off_time": 6.872}, {"pitch": 62, "velocity": 75, "note_on_time": 7.014, "note_off_time": 7.109}, {"pitch": 62, "velocity": 79, "note_on_time": 7.276, "note_off_time": 7.379}, {"pitch": 62, "velocity": 83, "note_on_time": 7.541, "note_off_time": 7.652}, {"pitch": 62, "velocity": 78, "note_on_time": 7.797, "note_off_time": 7.926}, {"pitch": 60, "velocity": 84, "note_on_time": 8.05, "note_off_time": 8.161}, {"pitch": 64, "velocity": 83, "note_on_time": 8.28, "note_off_time": 8.426}, {"pitch": 64, "velocity": 76, "note_on_time": 8.787, "note_off_time": 8.925}]</notes><guidance name="Guidance Mode">None</guidance><error name="Error value">0.14309717391304372</error></trial></trials></MIDI>