<MIDI midiNo="2022_12_01-12_56_12"><target_notes><notes name="Note List">[{"pitch": 42, "velocity": 80, "note_on_time": 0.004, "note_off_time": 0.321}, {"pitch": 42, "velocity": 80, "note_on_time": 0.321, "note_off_time": 0.633}, {"pitch": 42, "velocity": 80, "note_on_time": 0.634, "note_off_time": 0.943}, {"pitch": 42, "velocity": 80, "note_on_time": 0.944, "note_off_time": 1.255}, {"pitch": 62, "velocity": 80, "note_on_time": 1.254, "note_off_time": 1.566}, {"pitch": 42, "velocity": 80, "note_on_time": 1.255, "note_off_time": 1.566}, {"pitch": 60, "velocity": 80, "note_on_time": 1.566, "note_off_time": 1.877}, {"pitch": 42, "velocity": 80, "note_on_time": 1.566, "note_off_time": 1.878}, {"pitch": 42, "velocity": 80, "note_on_time": 1.878, "note_off_time": 2.188}, {"pitch": 60, "velocity": 80, "note_on_time": 2.188, "note_off_time": 2.501}, {"pitch": 42, "velocity": 80, "note_on_time": 2.188, "note_off_time": 2.501}, {"pitch": 62, "velocity": 80, "note_on_time": 2.501, "note_off_time": 2.809}, {"pitch": 42, "velocity": 80, "note_on_time": 2.501, "note_off_time": 2.809}, {"pitch": 60, "velocity": 80, "note_on_time": 2.809, "note_off_time": 3.124}, {"pitch": 42, "velocity": 80, "note_on_time": 2.81, "note_off_time": 3.124}, {"pitch": 64, "velocity": 80, "note_on_time": 3.124, "note_off_time": 3.448}, {"pitch": 42, "velocity": 80, "note_on_time": 3.124, "note_off_time": 3.448}, {"pitch": 62, "velocity": 80, "note_on_time": 3.448, "note_off_time": 3.771}, {"pitch": 42, "velocity": 80, "note_on_time": 3.448, "note_off_time": 3.772}, {"pitch": 60, "velocity": 80, "note_on_time": 3.771, "note_off_time": 4.081}, {"pitch": 42, "velocity": 80, "note_on_time": 3.772, "note_off_time": 4.081}, {"pitch": 62, "velocity": 80, "note_on_time": 4.081, "note_off_time": 4.391}, {"pitch": 42, "velocity": 80, "note_on_time": 4.081, "note_off_time": 4.392}, {"pitch": 64, "velocity": 80, "note_on_time": 4.391, "note_off_time": 4.715}, {"pitch": 42, "velocity": 80, "note_on_time": 4.392, "note_off_time": 4.715}, {"pitch": 60, "velocity": 80, "note_on_time": 4.715, "note_off_time": 5.026}, {"pitch": 42, "velocity": 80, "note_on_time": 4.716, "note_off_time": 5.026}, {"pitch": 60, "velocity": 80, "note_on_time": 5.026, "note_off_time": 5.338}, {"pitch": 42, "velocity": 80, "note_on_time": 5.026, "note_off_time": 5.339}, {"pitch": 64, "velocity": 80, "note_on_time": 5.338, "note_off_time": 5.651}, {"pitch": 42, "velocity": 80, "note_on_time": 5.34, "note_off_time": 5.651}, {"pitch": 60, "velocity": 80, "note_on_time": 5.651, "note_off_time": 5.963}, {"pitch": 42, "velocity": 80, "note_on_time": 5.651, "note_off_time": 5.964}, {"pitch": 60, "velocity": 80, "note_on_time": 5.963, "note_off_time": 6.287}, {"pitch": 42, "velocity": 80, "note_on_time": 5.964, "note_off_time": 6.288}, {"pitch": 60, "velocity": 80, "note_on_time": 6.287, "note_off_time": 6.598}, {"pitch": 42, "velocity": 80, "note_on_time": 6.288, "note_off_time": 6.598}, {"pitch": 64, "velocity": 80, "note_on_time": 6.598, "note_off_time": 6.911}, {"pitch": 42, "velocity": 80, "note_on_time": 6.599, "note_off_time": 6.911}, {"pitch": 42, "velocity": 80, "note_on_time": 6.912, "note_off_time": 7.222}, {"pitch": 64, "velocity": 80, "note_on_time": 6.911, "note_off_time": 7.532}, {"pitch": 42, "velocity": 80, "note_on_time": 7.222, "note_off_time": 7.532}, {"pitch": 64, "velocity": 80, "note_on_time": 7.532, "note_off_time": 7.844}, {"pitch": 42, "velocity": 80, "note_on_time": 7.533, "note_off_time": 7.844}, {"pitch": 60, "velocity": 80, "note_on_time": 7.844, "note_off_time": 8.154}, {"pitch": 42, "velocity": 80, "note_on_time": 7.845, "note_off_time": 8.154}, {"pitch": 62, "velocity": 80, "note_on_time": 8.154, "note_off_time": 8.466}, {"pitch": 42, "velocity": 80, "note_on_time": 8.154, "note_off_time": 8.467}, {"pitch": 62, "velocity": 80, "note_on_time": 8.466, "note_off_time": 8.777}, {"pitch": 42, "velocity": 80, "note_on_time": 8.467, "note_off_time": 8.777}, {"pitch": 62, "velocity": 80, "note_on_time": 8.777, "note_off_time": 9.088}, {"pitch": 42, "velocity": 80, "note_on_time": 8.777, "note_off_time": 9.088}, {"pitch": 62, "velocity": 80, "note_on_time": 9.088, "note_off_time": 9.4}, {"pitch": 42, "velocity": 80, "note_on_time": 9.089, "note_off_time": 9.4}, {"pitch": 64, "velocity": 80, "note_on_time": 9.4, "note_off_time": 9.709}, {"pitch": 42, "velocity": 80, "note_on_time": 9.4, "note_off_time": 9.71}, {"pitch": 64, "velocity": 80, "note_on_time": 9.709, "note_off_time": 10.021}, {"pitch": 42, "velocity": 80, "note_on_time": 9.71, "note_off_time": 10.021}, {"pitch": 42, "velocity": 80, "note_on_time": 10.022, "note_off_time": 10.332}, {"pitch": 64, "velocity": 80, "note_on_time": 10.332, "note_off_time": 10.645}, {"pitch": 42, "velocity": 80, "note_on_time": 10.332, "note_off_time": 10.645}, {"pitch": 64, "velocity": 80, "note_on_time": 10.645, "note_off_time": 10.954}, {"pitch": 42, "velocity": 80, "note_on_time": 10.645, "note_off_time": 10.955}, {"pitch": 64, "velocity": 80, "note_on_time": 10.954, "note_off_time": 11.267}, {"pitch": 42, "velocity": 80, "note_on_time": 10.955, "note_off_time": 11.267}]</notes><options name="Option List">((4, 4), [0.5, 0.25], 3, 8, &lt;NoteRangePerHand.THREE_NOTES: 4&gt;, &lt;NoteRangePerHand.ONE_NOTE: 2&gt;, False, True, False, '195')</options></target_notes><trials><trial trial_no="1" timestamp="2022_12_01-12_55_59"><notes name="Played Notes">[{"pitch": 62, "velocity": 83, "note_on_time": 1.228, "note_off_time": 1.377}, {"pitch": 64, "velocity": 83, "note_on_time": 1.487, "note_off_time": 1.688}, {"pitch": 60, "velocity": 60, "note_on_time": 2.06, "note_off_time": 2.151}, {"pitch": 62, "velocity": 49, "note_on_time": 2.05, "note_off_time": 2.169}, {"pitch": 60, "velocity": 81, "note_on_time": 2.252, "note_off_time": 2.374}, {"pitch": 60, "velocity": 76, "note_on_time": 2.507, "note_off_time": 2.658}, {"pitch": 62, "velocity": 83, "note_on_time": 2.79, "note_off_time": 2.951}, {"pitch": 60, "velocity": 84, "note_on_time": 3.064, "note_off_time": 3.2}, {"pitch": 64, "velocity": 68, "note_on_time": 3.378, "note_off_time": 3.543}, {"pitch": 62, "velocity": 84, "note_on_time": 3.705, "note_off_time": 3.867}, {"pitch": 60, "velocity": 85, "note_on_time": 4.139, "note_off_time": 4.308}, {"pitch": 62, "velocity": 74, "note_on_time": 4.525, "note_off_time": 4.679}, {"pitch": 64, "velocity": 80, "note_on_time": 4.811, "note_off_time": 4.981}, {"pitch": 60, "velocity": 82, "note_on_time": 5.095, "note_off_time": 5.289}, {"pitch": 60, "velocity": 89, "note_on_time": 5.57, "note_off_time": 5.973}, {"pitch": 62, "velocity": 86, "note_on_time": 6.129, "note_off_time": 6.278}, {"pitch": 60, "velocity": 79, "note_on_time": 6.455, "note_off_time": 6.548}, {"pitch": 60, "velocity": 85, "note_on_time": 6.692, "note_off_time": 6.829}, {"pitch": 60, "velocity": 89, "note_on_time": 7.03, "note_off_time": 7.155}, {"pitch": 64, "velocity": 79, "note_on_time": 7.312, "note_off_time": 7.449}, {"pitch": 64, "velocity": 80, "note_on_time": 7.593, "note_off_time": 8.169}, {"pitch": 64, "velocity": 89, "note_on_time": 8.32, "note_off_time": 8.517}, {"pitch": 60, "velocity": 88, "note_on_time": 8.65, "note_off_time": 8.796}, {"pitch": 62, "velocity": 84, "note_on_time": 8.918, "note_off_time": 9.024}, {"pitch": 62, "velocity": 87, "note_on_time": 9.161, "note_off_time": 9.285}, {"pitch": 62, "velocity": 80, "note_on_time": 9.401, "note_off_time": 9.529}, {"pitch": 62, "velocity": 89, "note_on_time": 9.673, "note_off_time": 9.8}, {"pitch": 64, "velocity": 91, "note_on_time": 9.947, "note_off_time": 10.049}, {"pitch": 64, "velocity": 80, "note_on_time": 10.177, "note_off_time": 10.312}, {"pitch": 64, "velocity": 91, "note_on_time": 10.8, "note_off_time": 10.929}, {"pitch": 64, "velocity": 73, "note_on_time": 11.042, "note_off_time": 11.172}]</notes><guidance name="Guidance Mode">None</guidance><error name="Error value">0.9766330769230769</error></trial><trial trial_no="2" timestamp="2022_12_01-12_56_28"><notes name="Played Notes">[{"pitch": 62, "velocity": 83, "note_on_time": 1.231, "note_off_time": 1.404}, {"pitch": 60, "velocity": 85, "note_on_time": 1.544, "note_off_time": 1.7}, {"pitch": 60, "velocity": 89, "note_on_time": 1.834, "note_off_time": 2.408}, {"pitch": 62, "velocity": 85, "note_on_time": 2.581, "note_off_time": 2.76}, {"pitch": 60, "velocity": 88, "note_on_time": 2.873, "note_off_time": 3.041}, {"pitch": 64, "velocity": 79, "note_on_time": 3.159, "note_off_time": 3.352}, {"pitch": 62, "velocity": 82, "note_on_time": 3.456, "note_off_time": 3.629}, {"pitch": 60, "velocity": 86, "note_on_time": 3.75, "note_off_time": 3.903}, {"pitch": 62, "velocity": 73, "note_on_time": 4.026, "note_off_time": 4.201}, {"pitch": 64, "velocity": 79, "note_on_time": 4.322, "note_off_time": 4.494}, {"pitch": 60, "velocity": 89, "note_on_time": 4.606, "note_off_time": 4.988}, {"pitch": 60, "velocity": 88, "note_on_time": 5.154, "note_off_time": 5.319}, {"pitch": 62, "velocity": 87, "note_on_time": 5.439, "note_off_time": 5.623}, {"pitch": 60, "velocity": 82, "note_on_time": 6.008, "note_off_time": 6.12}, {"pitch": 64, "velocity": 68, "note_on_time": 6.185, "note_off_time": 6.313}, {"pitch": 62, "velocity": 84, "note_on_time": 6.442, "note_off_time": 6.57}, {"pitch": 60, "velocity": 83, "note_on_time": 6.69, "note_off_time": 6.791}, {"pitch": 60, "velocity": 90, "note_on_time": 6.945, "note_off_time": 7.072}, {"pitch": 60, "velocity": 91, "note_on_time": 7.247, "note_off_time": 7.402}, {"pitch": 64, "velocity": 84, "note_on_time": 7.528, "note_off_time": 7.667}, {"pitch": 64, "velocity": 80, "note_on_time": 7.81, "note_off_time": 8.453}, {"pitch": 64, "velocity": 87, "note_on_time": 8.704, "note_off_time": 8.888}, {"pitch": 60, "velocity": 83, "note_on_time": 9.003, "note_off_time": 9.142}, {"pitch": 62, "velocity": 81, "note_on_time": 9.274, "note_off_time": 9.392}, {"pitch": 62, "velocity": 87, "note_on_time": 9.533, "note_off_time": 9.675}, {"pitch": 62, "velocity": 77, "note_on_time": 9.793, "note_off_time": 9.935}, {"pitch": 62, "velocity": 84, "note_on_time": 10.055, "note_off_time": 10.196}, {"pitch": 64, "velocity": 86, "note_on_time": 10.294, "note_off_time": 10.418}, {"pitch": 64, "velocity": 87, "note_on_time": 10.559, "note_off_time": 10.683}, {"pitch": 64, "velocity": 91, "note_on_time": 10.839, "note_off_time": 10.981}]</notes><guidance name="Guidance Mode">None</guidance><error name="Error value">0.6430056923076923</error></trial><trial trial_no="3" timestamp="2022_12_01-12_56_49"><notes name="Played Notes">[{"pitch": 62, "velocity": 84, "note_on_time": 1.243, "note_off_time": 1.423}, {"pitch": 60, "velocity": 87, "note_on_time": 1.552, "note_off_time": 1.717}, {"pitch": 60, "velocity": 92, "note_on_time": 1.858, "note_off_time": 2.337}, {"pitch": 62, "velocity": 88, "note_on_time": 2.569, "note_off_time": 2.746}, {"pitch": 60, "velocity": 92, "note_on_time": 2.873, "note_off_time": 3.014}, {"pitch": 64, "velocity": 78, "note_on_time": 3.152, "note_off_time": 3.339}, {"pitch": 62, "velocity": 81, "note_on_time": 3.461, "note_off_time": 3.637}, {"pitch": 60, "velocity": 87, "note_on_time": 3.767, "note_off_time": 3.943}, {"pitch": 62, "velocity": 80, "note_on_time": 4.049, "note_off_time": 4.24}, {"pitch": 64, "velocity": 75, "note_on_time": 4.339, "note_off_time": 4.547}, {"pitch": 60, "velocity": 86, "note_on_time": 5.1, "note_off_time": 5.334}, {"pitch": 60, "velocity": 81, "note_on_time": 5.631, "note_off_time": 5.953}, {"pitch": 64, "velocity": 82, "note_on_time": 6.144, "note_off_time": 6.336}, {"pitch": 60, "velocity": 87, "note_on_time": 6.457, "note_off_time": 6.589}, {"pitch": 60, "velocity": 88, "note_on_time": 6.748, "note_off_time": 6.896}, {"pitch": 60, "velocity": 91, "note_on_time": 7.039, "note_off_time": 7.194}, {"pitch": 64, "velocity": 77, "note_on_time": 7.568, "note_off_time": 7.73}, {"pitch": 64, "velocity": 80, "note_on_time": 7.889, "note_off_time": 8.543}, {"pitch": 64, "velocity": 82, "note_on_time": 8.723, "note_off_time": 8.933}, {"pitch": 60, "velocity": 88, "note_on_time": 9.239, "note_off_time": 9.396}, {"pitch": 62, "velocity": 81, "note_on_time": 9.514, "note_off_time": 9.635}, {"pitch": 62, "velocity": 84, "note_on_time": 9.775, "note_off_time": 9.902}, {"pitch": 62, "velocity": 81, "note_on_time": 10.048, "note_off_time": 10.185}, {"pitch": 62, "velocity": 81, "note_on_time": 10.338, "note_off_time": 10.47}, {"pitch": 64, "velocity": 80, "note_on_time": 10.625, "note_off_time": 10.761}, {"pitch": 64, "velocity": 88, "note_on_time": 10.91, "note_off_time": 11.076}]</notes><guidance name="Guidance Mode">None</guidance><error name="Error value">0.5149998461538459</error></trial><trial trial_no="4" timestamp="2022_12_01-12_57_13"><notes name="Played Notes">[{"pitch": 62, "velocity": 83, "note_on_time": 1.223, "note_off_time": 1.402}, {"pitch": 60, "velocity": 89, "note_on_time": 1.522, "note_off_time": 1.684}, {"pitch": 60, "velocity": 92, "note_on_time": 1.829, "note_off_time": 2.32}, {"pitch": 62, "velocity": 87, "note_on_time": 2.465, "note_off_time": 2.661}, {"pitch": 60, "velocity": 84, "note_on_time": 2.768, "note_off_time": 2.933}, {"pitch": 64, "velocity": 82, "note_on_time": 3.095, "note_off_time": 3.273}, {"pitch": 60, "velocity": 73, "note_on_time": 3.486, "note_off_time": 3.643}, {"pitch": 62, "velocity": 75, "note_on_time": 3.642, "note_off_time": 3.879}, {"pitch": 60, "velocity": 86, "note_on_time": 3.984, "note_off_time": 4.195}, {"pitch": 62, "velocity": 58, "note_on_time": 4.319, "note_off_time": 4.382}, {"pitch": 64, "velocity": 74, "note_on_time": 4.737, "note_off_time": 5.007}, {"pitch": 60, "velocity": 84, "note_on_time": 5.236, "note_off_time": 5.508}, {"pitch": 60, "velocity": 92, "note_on_time": 5.807, "note_off_time": 5.952}, {"pitch": 64, "velocity": 78, "note_on_time": 6.08, "note_off_time": 6.227}, {"pitch": 60, "velocity": 84, "note_on_time": 6.358, "note_off_time": 6.475}, {"pitch": 60, "velocity": 88, "note_on_time": 6.631, "note_off_time": 6.791}, {"pitch": 60, "velocity": 89, "note_on_time": 6.928, "note_off_time": 7.214}, {"pitch": 64, "velocity": 84, "note_on_time": 7.376, "note_off_time": 7.561}, {"pitch": 64, "velocity": 83, "note_on_time": 7.777, "note_off_time": 8.314}, {"pitch": 64, "velocity": 72, "note_on_time": 8.468, "note_off_time": 8.658}, {"pitch": 60, "velocity": 85, "note_on_time": 8.877, "note_off_time": 9.088}, {"pitch": 62, "velocity": 77, "note_on_time": 9.213, "note_off_time": 9.335}, {"pitch": 62, "velocity": 86, "note_on_time": 9.493, "note_off_time": 9.649}, {"pitch": 62, "velocity": 79, "note_on_time": 9.769, "note_off_time": 9.913}, {"pitch": 62, "velocity": 70, "note_on_time": 10.021, "note_off_time": 10.163}, {"pitch": 64, "velocity": 80, "note_on_time": 10.262, "note_off_time": 10.393}, {"pitch": 64, "velocity": 80, "note_on_time": 10.519, "note_off_time": 10.719}]</notes><guidance name="Guidance Mode">None</guidance><error name="Error value">0.7278164615384614</error></trial><trial trial_no="5" timestamp="2022_12_01-12_57_32"><notes name="Played Notes">[{"pitch": 62, "velocity": 87, "note_on_time": 1.191, "note_off_time": 1.364}, {"pitch": 60, "velocity": 85, "note_on_time": 1.467, "note_off_time": 1.613}, {"pitch": 60, "velocity": 86, "note_on_time": 1.737, "note_off_time": 2.228}, {"pitch": 62, "velocity": 83, "note_on_time": 2.336, "note_off_time": 2.512}, {"pitch": 60, "velocity": 90, "note_on_time": 2.635, "note_off_time": 2.786}, {"pitch": 64, "velocity": 79, "note_on_time": 2.91, "note_off_time": 3.084}, {"pitch": 62, "velocity": 79, "note_on_time": 3.189, "note_off_time": 3.367}, {"pitch": 60, "velocity": 87, "note_on_time": 3.472, "note_off_time": 3.63}, {"pitch": 62, "velocity": 81, "note_on_time": 3.739, "note_off_time": 3.892}, {"pitch": 64, "velocity": 77, "note_on_time": 3.99, "note_off_time": 4.164}, {"pitch": 60, "velocity": 87, "note_on_time": 4.261, "note_off_time": 4.506}, {"pitch": 60, "velocity": 93, "note_on_time": 4.791, "note_off_time": 4.967}, {"pitch": 64, "velocity": 78, "note_on_time": 5.091, "note_off_time": 5.25}, {"pitch": 60, "velocity": 91, "note_on_time": 5.349, "note_off_time": 5.47}, {"pitch": 60, "velocity": 89, "note_on_time": 5.617, "note_off_time": 5.737}, {"pitch": 60, "velocity": 95, "note_on_time": 5.887, "note_off_time": 6.221}, {"pitch": 64, "velocity": 84, "note_on_time": 6.351, "note_off_time": 6.501}, {"pitch": 64, "velocity": 87, "note_on_time": 6.659, "note_off_time": 7.299}, {"pitch": 64, "velocity": 86, "note_on_time": 7.456, "note_off_time": 7.611}, {"pitch": 60, "velocity": 92, "note_on_time": 7.751, "note_off_time": 7.889}, {"pitch": 62, "velocity": 78, "note_on_time": 8.072, "note_off_time": 8.178}, {"pitch": 62, "velocity": 85, "note_on_time": 8.333, "note_off_time": 8.482}, {"pitch": 62, "velocity": 81, "note_on_time": 8.64, "note_off_time": 8.781}, {"pitch": 62, "velocity": 85, "note_on_time": 8.934, "note_off_time": 9.079}, {"pitch": 64, "velocity": 81, "note_on_time": 9.209, "note_off_time": 9.335}, {"pitch": 64, "velocity": 88, "note_on_time": 9.491, "note_off_time": 9.666}, {"pitch": 64, "velocity": 84, "note_on_time": 10.128, "note_off_time": 10.266}, {"pitch": 64, "velocity": 82, "note_on_time": 10.422, "note_off_time": 10.559}, {"pitch": 64, "velocity": 89, "note_on_time": 10.706, "note_off_time": 11.1}]</notes><guidance name="Guidance Mode">None</guidance><error name="Error value">0.06911523076923073</error></trial></trials></MIDI>