<MIDI midiNo="2022_04_28-16_31_59"><target_notes><notes name="Note List">[{"pitch": 39, "velocity": 100, "note_on_time": 0.004, "note_off_time": 0.459}, {"pitch": 42, "velocity": 100, "note_on_time": 0.459, "note_off_time": 0.911}, {"pitch": 42, "velocity": 100, "note_on_time": 0.911, "note_off_time": 1.363}, {"pitch": 42, "velocity": 100, "note_on_time": 1.363, "note_off_time": 1.816}, {"pitch": 67, "velocity": 100, "note_on_time": 1.816, "note_off_time": 2.051}, {"pitch": 65, "velocity": 100, "note_on_time": 2.051, "note_off_time": 2.283}, {"pitch": 39, "velocity": 100, "note_on_time": 1.816, "note_off_time": 2.283}, {"pitch": 65, "velocity": 100, "note_on_time": 2.283, "note_off_time": 2.734}, {"pitch": 42, "velocity": 100, "note_on_time": 2.284, "note_off_time": 2.735}, {"pitch": 64, "velocity": 100, "note_on_time": 2.734, "note_off_time": 3.187}, {"pitch": 42, "velocity": 100, "note_on_time": 2.735, "note_off_time": 3.188}, {"pitch": 65, "velocity": 100, "note_on_time": 3.187, "note_off_time": 3.421}, {"pitch": 62, "velocity": 100, "note_on_time": 3.421, "note_off_time": 3.654}, {"pitch": 42, "velocity": 100, "note_on_time": 3.188, "note_off_time": 3.654}, {"pitch": 62, "velocity": 100, "note_on_time": 3.654, "note_off_time": 4.105}, {"pitch": 39, "velocity": 100, "note_on_time": 3.655, "note_off_time": 4.106}, {"pitch": 67, "velocity": 100, "note_on_time": 4.105, "note_off_time": 4.558}, {"pitch": 42, "velocity": 100, "note_on_time": 4.106, "note_off_time": 4.558}, {"pitch": 60, "velocity": 100, "note_on_time": 4.558, "note_off_time": 4.792}, {"pitch": 67, "velocity": 100, "note_on_time": 4.792, "note_off_time": 5.028}, {"pitch": 42, "velocity": 100, "note_on_time": 4.558, "note_off_time": 5.028}, {"pitch": 60, "velocity": 100, "note_on_time": 5.028, "note_off_time": 5.264}, {"pitch": 65, "velocity": 100, "note_on_time": 5.264, "note_off_time": 5.499}, {"pitch": 42, "velocity": 100, "note_on_time": 5.028, "note_off_time": 5.499}, {"pitch": 67, "velocity": 100, "note_on_time": 5.499, "note_off_time": 5.952}, {"pitch": 39, "velocity": 100, "note_on_time": 5.499, "note_off_time": 5.953}, {"pitch": 42, "velocity": 100, "note_on_time": 5.953, "note_off_time": 6.407}, {"pitch": 64, "velocity": 100, "note_on_time": 5.952, "note_off_time": 6.859}, {"pitch": 42, "velocity": 100, "note_on_time": 6.407, "note_off_time": 6.859}, {"pitch": 42, "velocity": 100, "note_on_time": 6.859, "note_off_time": 7.311}, {"pitch": 67, "velocity": 100, "note_on_time": 7.311, "note_off_time": 7.763}, {"pitch": 39, "velocity": 100, "note_on_time": 7.311, "note_off_time": 7.763}, {"pitch": 65, "velocity": 100, "note_on_time": 7.763, "note_off_time": 8.214}, {"pitch": 42, "velocity": 100, "note_on_time": 7.764, "note_off_time": 8.215}, {"pitch": 65, "velocity": 100, "note_on_time": 8.214, "note_off_time": 8.669}, {"pitch": 42, "velocity": 100, "note_on_time": 8.215, "note_off_time": 8.669}, {"pitch": 60, "velocity": 100, "note_on_time": 8.669, "note_off_time": 9.121}, {"pitch": 42, "velocity": 100, "note_on_time": 8.669, "note_off_time": 9.121}, {"pitch": 60, "velocity": 100, "note_on_time": 9.121, "note_off_time": 9.355}, {"pitch": 65, "velocity": 100, "note_on_time": 9.355, "note_off_time": 9.588}, {"pitch": 39, "velocity": 100, "note_on_time": 9.122, "note_off_time": 9.588}, {"pitch": 60, "velocity": 100, "note_on_time": 9.588, "note_off_time": 9.821}, {"pitch": 65, "velocity": 100, "note_on_time": 9.821, "note_off_time": 10.057}, {"pitch": 42, "velocity": 100, "note_on_time": 9.588, "note_off_time": 10.057}, {"pitch": 65, "velocity": 100, "note_on_time": 10.057, "note_off_time": 10.508}, {"pitch": 42, "velocity": 100, "note_on_time": 10.058, "note_off_time": 10.509}, {"pitch": 67, "velocity": 100, "note_on_time": 10.508, "note_off_time": 10.96}, {"pitch": 42, "velocity": 100, "note_on_time": 10.509, "note_off_time": 10.96}, {"pitch": 62, "velocity": 100, "note_on_time": 10.96, "note_off_time": 11.195}, {"pitch": 64, "velocity": 100, "note_on_time": 11.195, "note_off_time": 11.429}, {"pitch": 39, "velocity": 100, "note_on_time": 10.96, "note_off_time": 11.429}, {"pitch": 65, "velocity": 100, "note_on_time": 11.429, "note_off_time": 11.663}, {"pitch": 64, "velocity": 100, "note_on_time": 11.663, "note_off_time": 11.896}, {"pitch": 42, "velocity": 100, "note_on_time": 11.43, "note_off_time": 11.897}, {"pitch": 62, "velocity": 100, "note_on_time": 11.896, "note_off_time": 12.346}, {"pitch": 42, "velocity": 100, "note_on_time": 11.897, "note_off_time": 12.346}, {"pitch": 62, "velocity": 100, "note_on_time": 12.346, "note_off_time": 12.581}, {"pitch": 62, "velocity": 100, "note_on_time": 12.581, "note_off_time": 12.816}, {"pitch": 42, "velocity": 100, "note_on_time": 12.346, "note_off_time": 12.816}, {"pitch": 64, "velocity": 100, "note_on_time": 12.816, "note_off_time": 13.266}, {"pitch": 39, "velocity": 100, "note_on_time": 12.816, "note_off_time": 13.266}, {"pitch": 42, "velocity": 100, "note_on_time": 13.266, "note_off_time": 13.719}, {"pitch": 42, "velocity": 100, "note_on_time": 13.719, "note_off_time": 14.171}, {"pitch": 60, "velocity": 100, "note_on_time": 13.719, "note_off_time": 14.624}, {"pitch": 42, "velocity": 100, "note_on_time": 14.171, "note_off_time": 14.624}, {"pitch": 39, "velocity": 100, "note_on_time": 14.624, "note_off_time": 15.077}, {"pitch": 60, "velocity": 100, "note_on_time": 15.076, "note_off_time": 15.53}, {"pitch": 42, "velocity": 100, "note_on_time": 15.077, "note_off_time": 15.531}, {"pitch": 60, "velocity": 100, "note_on_time": 15.53, "note_off_time": 15.98}, {"pitch": 42, "velocity": 100, "note_on_time": 15.531, "note_off_time": 15.981}, {"pitch": 60, "velocity": 100, "note_on_time": 15.98, "note_off_time": 16.433}, {"pitch": 42, "velocity": 100, "note_on_time": 15.981, "note_off_time": 16.433}]</notes><options name="Option List">((4, 4), [0.5, 0.25, 0.125], 3, 8, &lt;NoteRangePerHand.C_TO_G: 6&gt;, &lt;NoteRangePerHand.ONE_NOTE: 2&gt;, False, True, True, '135')</options></target_notes><trials><trial trial_no="1" timestamp="2022_04_28-16_31_41"><notes name="Played Notes">[{"pitch": 67, "velocity": 60, "note_on_time": 1.832, "note_off_time": 2.036}, {"pitch": 65, "velocity": 59, "note_on_time": 2.051, "note_off_time": 2.183}, {"pitch": 65, "velocity": 54, "note_on_time": 2.317, "note_off_time": 2.751}, {"pitch": 64, "velocity": 52, "note_on_time": 2.74, "note_off_time": 3.176}, {"pitch": 65, "velocity": 59, "note_on_time": 3.199, "note_off_time": 3.435}, {"pitch": 62, "velocity": 57, "note_on_time": 3.424, "note_off_time": 3.569}, {"pitch": 62, "velocity": 67, "note_on_time": 3.67, "note_off_time": 4.113}, {"pitch": 67, "velocity": 63, "note_on_time": 4.11, "note_off_time": 4.531}, {"pitch": 60, "velocity": 54, "note_on_time": 4.551, "note_off_time": 5.052}, {"pitch": 67, "velocity": 57, "note_on_time": 5.015, "note_off_time": 5.493}, {"pitch": 60, "velocity": 55, "note_on_time": 5.491, "note_off_time": 5.943}, {"pitch": 65, "velocity": 58, "note_on_time": 5.953, "note_off_time": 6.419}, {"pitch": 67, "velocity": 68, "note_on_time": 6.43, "note_off_time": 6.69}, {"pitch": 64, "velocity": 61, "note_on_time": 6.678, "note_off_time": 7.361}, {"pitch": 67, "velocity": 56, "note_on_time": 7.806, "note_off_time": 8.17}, {"pitch": 65, "velocity": 46, "note_on_time": 8.234, "note_off_time": 8.559}, {"pitch": 65, "velocity": 50, "note_on_time": 8.668, "note_off_time": 9.123}, {"pitch": 60, "velocity": 52, "note_on_time": 9.125, "note_off_time": 9.402}, {"pitch": 60, "velocity": 48, "note_on_time": 9.59, "note_off_time": 9.978}, {"pitch": 65, "velocity": 62, "note_on_time": 9.99, "note_off_time": 10.468}, {"pitch": 60, "velocity": 57, "note_on_time": 10.542, "note_off_time": 10.746}, {"pitch": 65, "velocity": 45, "note_on_time": 10.755, "note_off_time": 10.861}, {"pitch": 65, "velocity": 41, "note_on_time": 10.992, "note_off_time": 11.359}, {"pitch": 67, "velocity": 48, "note_on_time": 11.409, "note_off_time": 11.635}, {"pitch": 62, "velocity": 49, "note_on_time": 11.886, "note_off_time": 12.129}, {"pitch": 64, "velocity": 49, "note_on_time": 12.123, "note_off_time": 12.383}, {"pitch": 65, "velocity": 55, "note_on_time": 12.373, "note_off_time": 12.657}, {"pitch": 64, "velocity": 53, "note_on_time": 12.593, "note_off_time": 12.805}, {"pitch": 62, "velocity": 51, "note_on_time": 12.821, "note_off_time": 13.13}, {"pitch": 65, "velocity": 28, "note_on_time": 13.292, "note_off_time": 13.385}, {"pitch": 64, "velocity": 71, "note_on_time": 13.331, "note_off_time": 13.732}, {"pitch": 60, "velocity": 47, "note_on_time": 13.763, "note_off_time": 14.198}, {"pitch": 60, "velocity": 61, "note_on_time": 15.079, "note_off_time": 15.379}, {"pitch": 60, "velocity": 53, "note_on_time": 15.555, "note_off_time": 15.865}]</notes><guidance name="Guidance Mode">None</guidance><error name="Error value">0.3065580959595958</error></trial><trial trial_no="2" timestamp="2022_04_28-16_32_18"><notes name="Played Notes">[{"pitch": 67, "velocity": 60, "note_on_time": 1.797, "note_off_time": 2.033}, {"pitch": 65, "velocity": 63, "note_on_time": 2.038, "note_off_time": 2.185}, {"pitch": 65, "velocity": 62, "note_on_time": 2.292, "note_off_time": 2.743}, {"pitch": 64, "velocity": 64, "note_on_time": 2.74, "note_off_time": 3.115}, {"pitch": 65, "velocity": 58, "note_on_time": 3.205, "note_off_time": 3.462}, {"pitch": 62, "velocity": 54, "note_on_time": 3.432, "note_off_time": 3.561}, {"pitch": 62, "velocity": 57, "note_on_time": 3.682, "note_off_time": 4.096}, {"pitch": 67, "velocity": 67, "note_on_time": 4.109, "note_off_time": 4.547}, {"pitch": 60, "velocity": 64, "note_on_time": 4.575, "note_off_time": 4.827}, {"pitch": 67, "velocity": 61, "note_on_time": 4.833, "note_off_time": 5.066}, {"pitch": 60, "velocity": 62, "note_on_time": 5.054, "note_off_time": 5.277}, {"pitch": 65, "velocity": 58, "note_on_time": 5.273, "note_off_time": 5.561}, {"pitch": 67, "velocity": 74, "note_on_time": 5.513, "note_off_time": 5.952}, {"pitch": 64, "velocity": 72, "note_on_time": 5.935, "note_off_time": 6.844}, {"pitch": 67, "velocity": 72, "note_on_time": 7.292, "note_off_time": 7.729}, {"pitch": 65, "velocity": 62, "note_on_time": 7.758, "note_off_time": 8.082}, {"pitch": 65, "velocity": 53, "note_on_time": 8.204, "note_off_time": 8.643}, {"pitch": 60, "velocity": 50, "note_on_time": 8.663, "note_off_time": 8.967}, {"pitch": 60, "velocity": 61, "note_on_time": 9.124, "note_off_time": 9.347}, {"pitch": 65, "velocity": 47, "note_on_time": 9.369, "note_off_time": 9.557}, {"pitch": 60, "velocity": 53, "note_on_time": 9.589, "note_off_time": 9.789}, {"pitch": 65, "velocity": 47, "note_on_time": 9.798, "note_off_time": 9.943}, {"pitch": 65, "velocity": 64, "note_on_time": 10.042, "note_off_time": 10.485}, {"pitch": 67, "velocity": 68, "note_on_time": 10.475, "note_off_time": 10.946}, {"pitch": 62, "velocity": 52, "note_on_time": 10.96, "note_off_time": 11.27}, {"pitch": 64, "velocity": 57, "note_on_time": 11.181, "note_off_time": 11.445}, {"pitch": 65, "velocity": 60, "note_on_time": 11.413, "note_off_time": 11.697}, {"pitch": 64, "velocity": 60, "note_on_time": 11.637, "note_off_time": 11.868}, {"pitch": 62, "velocity": 52, "note_on_time": 11.892, "note_off_time": 12.238}, {"pitch": 62, "velocity": 42, "note_on_time": 12.35, "note_off_time": 12.455}, {"pitch": 62, "velocity": 53, "note_on_time": 12.565, "note_off_time": 12.784}, {"pitch": 64, "velocity": 53, "note_on_time": 12.823, "note_off_time": 13.269}, {"pitch": 60, "velocity": 59, "note_on_time": 13.724, "note_off_time": 14.608}, {"pitch": 60, "velocity": 54, "note_on_time": 15.065, "note_off_time": 15.369}, {"pitch": 60, "velocity": 55, "note_on_time": 15.528, "note_off_time": 15.824}, {"pitch": 60, "velocity": 68, "note_on_time": 15.983, "note_off_time": 16.4}]</notes><guidance name="Guidance Mode">None</guidance><error name="Error value">0.06276979797979797</error></trial><trial trial_no="3" timestamp="2022_04_28-16_32_53"><notes name="Played Notes">[{"pitch": 67, "velocity": 54, "note_on_time": 1.779, "note_off_time": 1.979}, {"pitch": 65, "velocity": 43, "note_on_time": 2.025, "note_off_time": 2.168}, {"pitch": 65, "velocity": 61, "note_on_time": 2.27, "note_off_time": 2.63}, {"pitch": 64, "velocity": 56, "note_on_time": 2.688, "note_off_time": 3.098}, {"pitch": 65, "velocity": 65, "note_on_time": 3.187, "note_off_time": 3.416}, {"pitch": 62, "velocity": 49, "note_on_time": 3.416, "note_off_time": 3.552}, {"pitch": 62, "velocity": 54, "note_on_time": 3.67, "note_off_time": 4.093}, {"pitch": 67, "velocity": 64, "note_on_time": 4.106, "note_off_time": 4.542}, {"pitch": 60, "velocity": 64, "note_on_time": 4.553, "note_off_time": 4.946}, {"pitch": 67, "velocity": 74, "note_on_time": 5.026, "note_off_time": 5.483}, {"pitch": 65, "velocity": 68, "note_on_time": 5.607, "note_off_time": 5.717}, {"pitch": 67, "velocity": 70, "note_on_time": 5.687, "note_off_time": 6.008}, {"pitch": 64, "velocity": 70, "note_on_time": 5.964, "note_off_time": 6.543}, {"pitch": 67, "velocity": 67, "note_on_time": 6.824, "note_off_time": 7.761}, {"pitch": 65, "velocity": 61, "note_on_time": 7.8, "note_off_time": 8.12}, {"pitch": 65, "velocity": 64, "note_on_time": 8.23, "note_off_time": 8.658}, {"pitch": 60, "velocity": 42, "note_on_time": 8.673, "note_off_time": 8.966}, {"pitch": 60, "velocity": 64, "note_on_time": 9.109, "note_off_time": 9.334}, {"pitch": 65, "velocity": 65, "note_on_time": 9.337, "note_off_time": 9.607}, {"pitch": 60, "velocity": 51, "note_on_time": 9.585, "note_off_time": 9.857}, {"pitch": 67, "velocity": 57, "note_on_time": 9.77, "note_off_time": 9.951}, {"pitch": 65, "velocity": 65, "note_on_time": 10.027, "note_off_time": 10.464}, {"pitch": 67, "velocity": 72, "note_on_time": 10.487, "note_off_time": 10.822}, {"pitch": 62, "velocity": 59, "note_on_time": 11.39, "note_off_time": 11.681}, {"pitch": 64, "velocity": 41, "note_on_time": 11.65, "note_off_time": 11.835}, {"pitch": 65, "velocity": 57, "note_on_time": 11.893, "note_off_time": 12.159}, {"pitch": 64, "velocity": 42, "note_on_time": 12.115, "note_off_time": 12.343}, {"pitch": 62, "velocity": 43, "note_on_time": 12.383, "note_off_time": 13.068}, {"pitch": 64, "velocity": 59, "note_on_time": 13.055, "note_off_time": 13.671}, {"pitch": 60, "velocity": 43, "note_on_time": 13.686, "note_off_time": 14.071}, {"pitch": 60, "velocity": 58, "note_on_time": 15.059, "note_off_time": 15.362}, {"pitch": 60, "velocity": 60, "note_on_time": 15.516, "note_off_time": 15.809}]</notes><guidance name="Guidance Mode">None</guidance><error name="Error value">0.5109720151515152</error></trial><trial trial_no="4" timestamp="2022_04_28-16_33_34"><notes name="Played Notes">[{"pitch": 67, "velocity": 45, "note_on_time": 1.8, "note_off_time": 1.985}, {"pitch": 65, "velocity": 49, "note_on_time": 2.036, "note_off_time": 2.156}, {"pitch": 65, "velocity": 51, "note_on_time": 2.273, "note_off_time": 2.67}, {"pitch": 64, "velocity": 44, "note_on_time": 2.709, "note_off_time": 3.174}, {"pitch": 65, "velocity": 56, "note_on_time": 3.206, "note_off_time": 3.416}, {"pitch": 62, "velocity": 43, "note_on_time": 3.43, "note_off_time": 3.58}, {"pitch": 62, "velocity": 57, "note_on_time": 3.676, "note_off_time": 4.099}, {"pitch": 67, "velocity": 60, "note_on_time": 4.111, "note_off_time": 4.526}, {"pitch": 60, "velocity": 53, "note_on_time": 4.569, "note_off_time": 4.846}, {"pitch": 67, "velocity": 58, "note_on_time": 4.806, "note_off_time": 5.212}, {"pitch": 60, "velocity": 57, "note_on_time": 5.031, "note_off_time": 5.243}, {"pitch": 65, "velocity": 52, "note_on_time": 5.257, "note_off_time": 5.538}, {"pitch": 67, "velocity": 68, "note_on_time": 5.513, "note_off_time": 5.954}, {"pitch": 64, "velocity": 62, "note_on_time": 5.938, "note_off_time": 6.837}, {"pitch": 67, "velocity": 67, "note_on_time": 7.299, "note_off_time": 7.738}, {"pitch": 65, "velocity": 63, "note_on_time": 7.773, "note_off_time": 8.078}, {"pitch": 65, "velocity": 52, "note_on_time": 8.203, "note_off_time": 8.623}, {"pitch": 60, "velocity": 55, "note_on_time": 8.642, "note_off_time": 8.949}, {"pitch": 60, "velocity": 61, "note_on_time": 9.103, "note_off_time": 9.309}, {"pitch": 65, "velocity": 51, "note_on_time": 9.322, "note_off_time": 9.529}, {"pitch": 60, "velocity": 51, "note_on_time": 9.561, "note_off_time": 9.77}, {"pitch": 65, "velocity": 50, "note_on_time": 9.783, "note_off_time": 9.944}, {"pitch": 65, "velocity": 67, "note_on_time": 10.037, "note_off_time": 10.477}, {"pitch": 67, "velocity": 67, "note_on_time": 10.472, "note_off_time": 10.881}, {"pitch": 62, "velocity": 49, "note_on_time": 10.941, "note_off_time": 11.204}, {"pitch": 64, "velocity": 61, "note_on_time": 11.157, "note_off_time": 11.427}, {"pitch": 65, "velocity": 61, "note_on_time": 11.399, "note_off_time": 11.669}, {"pitch": 64, "velocity": 59, "note_on_time": 11.62, "note_off_time": 11.86}, {"pitch": 62, "velocity": 57, "note_on_time": 11.886, "note_off_time": 12.239}, {"pitch": 62, "velocity": 48, "note_on_time": 12.339, "note_off_time": 12.467}, {"pitch": 62, "velocity": 62, "note_on_time": 12.574, "note_off_time": 12.803}, {"pitch": 64, "velocity": 66, "note_on_time": 12.816, "note_off_time": 13.219}, {"pitch": 60, "velocity": 70, "note_on_time": 13.709, "note_off_time": 14.578}, {"pitch": 60, "velocity": 61, "note_on_time": 15.107, "note_off_time": 15.305}, {"pitch": 60, "velocity": 68, "note_on_time": 15.552, "note_off_time": 15.807}, {"pitch": 60, "velocity": 78, "note_on_time": 15.984, "note_off_time": 16.253}]</notes><guidance name="Guidance Mode">None</guidance><error name="Error value">0.07708837373737387</error></trial><trial trial_no="5" timestamp="2022_04_28-16_34_04"><notes name="Played Notes">[{"pitch": 67, "velocity": 63, "note_on_time": 1.83, "note_off_time": 2.255}, {"pitch": 65, "velocity": 52, "note_on_time": 2.267, "note_off_time": 2.46}, {"pitch": 64, "velocity": 37, "note_on_time": 2.508, "note_off_time": 2.682}, {"pitch": 65, "velocity": 51, "note_on_time": 2.892, "note_off_time": 2.967}, {"pitch": 64, "velocity": 26, "note_on_time": 2.758, "note_off_time": 3.262}, {"pitch": 65, "velocity": 65, "note_on_time": 3.213, "note_off_time": 3.507}, {"pitch": 62, "velocity": 33, "note_on_time": 3.498, "note_off_time": 3.598}, {"pitch": 62, "velocity": 63, "note_on_time": 3.689, "note_off_time": 4.018}, {"pitch": 67, "velocity": 63, "note_on_time": 4.141, "note_off_time": 4.583}, {"pitch": 60, "velocity": 62, "note_on_time": 4.587, "note_off_time": 4.816}, {"pitch": 67, "velocity": 66, "note_on_time": 4.807, "note_off_time": 5.09}, {"pitch": 60, "velocity": 59, "note_on_time": 5.042, "note_off_time": 5.288}, {"pitch": 65, "velocity": 48, "note_on_time": 5.297, "note_off_time": 5.553}, {"pitch": 67, "velocity": 69, "note_on_time": 5.536, "note_off_time": 5.968}, {"pitch": 64, "velocity": 64, "note_on_time": 5.951, "note_off_time": 6.846}, {"pitch": 67, "velocity": 69, "note_on_time": 7.296, "note_off_time": 7.686}, {"pitch": 65, "velocity": 66, "note_on_time": 7.75, "note_off_time": 8.068}, {"pitch": 65, "velocity": 63, "note_on_time": 8.231, "note_off_time": 8.663}, {"pitch": 60, "velocity": 44, "note_on_time": 8.699, "note_off_time": 8.968}, {"pitch": 60, "velocity": 66, "note_on_time": 9.133, "note_off_time": 9.352}, {"pitch": 65, "velocity": 53, "note_on_time": 9.361, "note_off_time": 9.573}, {"pitch": 60, "velocity": 51, "note_on_time": 9.597, "note_off_time": 9.809}, {"pitch": 65, "velocity": 52, "note_on_time": 9.82, "note_off_time": 9.953}, {"pitch": 65, "velocity": 52, "note_on_time": 10.071, "note_off_time": 10.529}, {"pitch": 67, "velocity": 60, "note_on_time": 10.519, "note_off_time": 10.926}, {"pitch": 62, "velocity": 44, "note_on_time": 10.988, "note_off_time": 11.227}, {"pitch": 64, "velocity": 59, "note_on_time": 11.186, "note_off_time": 11.439}, {"pitch": 65, "velocity": 57, "note_on_time": 11.422, "note_off_time": 11.679}, {"pitch": 64, "velocity": 51, "note_on_time": 11.64, "note_off_time": 11.889}, {"pitch": 62, "velocity": 42, "note_on_time": 11.918, "note_off_time": 12.235}, {"pitch": 62, "velocity": 49, "note_on_time": 12.358, "note_off_time": 12.482}, {"pitch": 62, "velocity": 55, "note_on_time": 12.598, "note_off_time": 12.843}, {"pitch": 64, "velocity": 52, "note_on_time": 12.861, "note_off_time": 13.42}, {"pitch": 60, "velocity": 51, "note_on_time": 13.783, "note_off_time": 14.653}, {"pitch": 60, "velocity": 61, "note_on_time": 15.064, "note_off_time": 15.345}, {"pitch": 60, "velocity": 55, "note_on_time": 15.543, "note_off_time": 15.835}, {"pitch": 60, "velocity": 58, "note_on_time": 16.005, "note_off_time": 16.332}]</notes><guidance name="Guidance Mode">None</guidance><error name="Error value">0.23777476767676745</error></trial><trial trial_no="6" timestamp="2022_04_28-16_34_36"><notes name="Played Notes">[{"pitch": 67, "velocity": 50, "note_on_time": 1.761, "note_off_time": 1.986}, {"pitch": 65, "velocity": 59, "note_on_time": 2.018, "note_off_time": 2.146}, {"pitch": 65, "velocity": 56, "note_on_time": 2.253, "note_off_time": 2.68}, {"pitch": 64, "velocity": 49, "note_on_time": 2.705, "note_off_time": 3.085}, {"pitch": 65, "velocity": 53, "note_on_time": 3.19, "note_off_time": 3.44}, {"pitch": 62, "velocity": 48, "note_on_time": 3.415, "note_off_time": 3.57}, {"pitch": 62, "velocity": 59, "note_on_time": 3.665, "note_off_time": 4.102}, {"pitch": 67, "velocity": 62, "note_on_time": 4.112, "note_off_time": 4.563}, {"pitch": 60, "velocity": 67, "note_on_time": 4.566, "note_off_time": 4.87}, {"pitch": 67, "velocity": 61, "note_on_time": 4.88, "note_off_time": 5.033}, {"pitch": 60, "velocity": 62, "note_on_time": 5.091, "note_off_time": 5.291}, {"pitch": 65, "velocity": 46, "note_on_time": 5.285, "note_off_time": 5.577}, {"pitch": 67, "velocity": 64, "note_on_time": 5.538, "note_off_time": 5.967}, {"pitch": 64, "velocity": 64, "note_on_time": 5.953, "note_off_time": 6.943}, {"pitch": 67, "velocity": 66, "note_on_time": 7.313, "note_off_time": 7.706}, {"pitch": 65, "velocity": 45, "note_on_time": 7.757, "note_off_time": 8.067}, {"pitch": 65, "velocity": 37, "note_on_time": 8.211, "note_off_time": 8.666}, {"pitch": 60, "velocity": 41, "note_on_time": 8.678, "note_off_time": 8.974}, {"pitch": 60, "velocity": 57, "note_on_time": 9.139, "note_off_time": 9.344}, {"pitch": 65, "velocity": 51, "note_on_time": 9.363, "note_off_time": 9.582}, {"pitch": 60, "velocity": 51, "note_on_time": 9.593, "note_off_time": 9.79}, {"pitch": 65, "velocity": 50, "note_on_time": 9.8, "note_off_time": 9.951}, {"pitch": 65, "velocity": 55, "note_on_time": 10.061, "note_off_time": 10.537}, {"pitch": 67, "velocity": 53, "note_on_time": 10.51, "note_off_time": 10.959}, {"pitch": 62, "velocity": 42, "note_on_time": 10.981, "note_off_time": 11.269}, {"pitch": 64, "velocity": 55, "note_on_time": 11.18, "note_off_time": 11.467}, {"pitch": 65, "velocity": 51, "note_on_time": 11.42, "note_off_time": 11.718}, {"pitch": 64, "velocity": 53, "note_on_time": 11.639, "note_off_time": 11.884}, {"pitch": 62, "velocity": 46, "note_on_time": 11.892, "note_off_time": 12.24}, {"pitch": 62, "velocity": 42, "note_on_time": 12.351, "note_off_time": 12.478}, {"pitch": 62, "velocity": 57, "note_on_time": 12.585, "note_off_time": 12.759}, {"pitch": 64, "velocity": 52, "note_on_time": 12.832, "note_off_time": 13.207}, {"pitch": 60, "velocity": 55, "note_on_time": 13.706, "note_off_time": 14.615}, {"pitch": 60, "velocity": 51, "note_on_time": 15.052, "note_off_time": 15.366}, {"pitch": 60, "velocity": 53, "note_on_time": 15.534, "note_off_time": 15.825}]</notes><guidance name="Guidance Mode">None</guidance><error name="Error value">0.11994012121212143</error></trial><trial trial_no="7" timestamp="2022_04_28-16_38_50"><notes name="Played Notes">[{"pitch": 67, "velocity": 58, "note_on_time": 1.41, "note_off_time": 1.548}, {"pitch": 65, "velocity": 55, "note_on_time": 1.626, "note_off_time": 1.707}, {"pitch": 65, "velocity": 57, "note_on_time": 1.815, "note_off_time": 2.179}, {"pitch": 64, "velocity": 68, "note_on_time": 2.188, "note_off_time": 2.358}, {"pitch": 65, "velocity": 45, "note_on_time": 2.383, "note_off_time": 2.553}, {"pitch": 62, "velocity": 61, "note_on_time": 2.55, "note_off_time": 2.779}, {"pitch": 60, "velocity": 53, "note_on_time": 2.905, "note_off_time": 3.144}, {"pitch": 67, "velocity": 48, "note_on_time": 3.186, "note_off_time": 3.54}, {"pitch": 60, "velocity": 52, "note_on_time": 3.595, "note_off_time": 3.736}, {"pitch": 65, "velocity": 34, "note_on_time": 3.772, "note_off_time": 3.927}, {"pitch": 60, "velocity": 47, "note_on_time": 3.947, "note_off_time": 4.155}, {"pitch": 65, "velocity": 44, "note_on_time": 4.155, "note_off_time": 4.256}, {"pitch": 67, "velocity": 43, "note_on_time": 4.37, "note_off_time": 4.729}, {"pitch": 65, "velocity": 39, "note_on_time": 4.743, "note_off_time": 4.807}, {"pitch": 65, "velocity": 48, "note_on_time": 4.914, "note_off_time": 5.074}, {"pitch": 60, "velocity": 1, "note_on_time": 5.237, "note_off_time": 5.348}, {"pitch": 60, "velocity": 62, "note_on_time": 5.455, "note_off_time": 5.613}, {"pitch": 67, "velocity": 47, "note_on_time": 5.635, "note_off_time": 5.794}, {"pitch": 60, "velocity": 52, "note_on_time": 5.814, "note_off_time": 6.002}, {"pitch": 65, "velocity": 30, "note_on_time": 6.013, "note_off_time": 6.16}, {"pitch": 64, "velocity": 41, "note_on_time": 6.228, "note_off_time": 6.317}, {"pitch": 60, "velocity": 48, "note_on_time": 6.303, "note_off_time": 6.493}, {"pitch": 62, "velocity": 50, "note_on_time": 6.471, "note_off_time": 6.631}, {"pitch": 64, "velocity": 34, "note_on_time": 6.624, "note_off_time": 6.733}, {"pitch": 65, "velocity": 41, "note_on_time": 6.75, "note_off_time": 6.928}, {"pitch": 62, "velocity": 45, "note_on_time": 6.948, "note_off_time": 7.11}, {"pitch": 64, "velocity": 26, "note_on_time": 7.159, "note_off_time": 7.402}, {"pitch": 60, "velocity": 39, "note_on_time": 7.574, "note_off_time": 7.718}, {"pitch": 60, "velocity": 61, "note_on_time": 7.943, "note_off_time": 8.127}, {"pitch": 60, "velocity": 67, "note_on_time": 8.281, "note_off_time": 8.554}, {"pitch": 60, "velocity": 21, "note_on_time": 10.999, "note_off_time": 11.234}, {"pitch": 60, "velocity": 50, "note_on_time": 12.163, "note_off_time": 12.315}, {"pitch": 60, "velocity": 48, "note_on_time": 12.495, "note_off_time": 12.706}, {"pitch": 60, "velocity": 62, "note_on_time": 12.831, "note_off_time": 13.023}]</notes><guidance name="Guidance Mode">None</guidance><error name="Error value">0.6371532777777777</error></trial></trials></MIDI>