<MIDI midiNo="2022_12_15-13_18_37"><target_notes><notes name="Note List">[{"pitch": 42, "velocity": 80, "note_on_time": 0.004, "note_off_time": 0.739}, {"pitch": 42, "velocity": 80, "note_on_time": 0.739, "note_off_time": 1.471}, {"pitch": 42, "velocity": 80, "note_on_time": 1.471, "note_off_time": 2.202}, {"pitch": 42, "velocity": 80, "note_on_time": 2.202, "note_off_time": 2.935}, {"pitch": 60, "velocity": 80, "note_on_time": 2.935, "note_off_time": 3.668}, {"pitch": 42, "velocity": 80, "note_on_time": 2.936, "note_off_time": 3.668}, {"pitch": 42, "velocity": 80, "note_on_time": 3.668, "note_off_time": 4.399}, {"pitch": 42, "velocity": 80, "note_on_time": 4.4, "note_off_time": 5.137}, {"pitch": 64, "velocity": 80, "note_on_time": 4.399, "note_off_time": 5.87}, {"pitch": 42, "velocity": 80, "note_on_time": 5.137, "note_off_time": 5.87}, {"pitch": 62, "velocity": 80, "note_on_time": 5.87, "note_off_time": 6.602}, {"pitch": 42, "velocity": 80, "note_on_time": 5.871, "note_off_time": 6.602}, {"pitch": 62, "velocity": 80, "note_on_time": 6.602, "note_off_time": 7.335}, {"pitch": 42, "velocity": 80, "note_on_time": 6.602, "note_off_time": 7.335}, {"pitch": 60, "velocity": 80, "note_on_time": 7.335, "note_off_time": 8.066}, {"pitch": 42, "velocity": 80, "note_on_time": 7.335, "note_off_time": 8.067}, {"pitch": 60, "velocity": 80, "note_on_time": 8.066, "note_off_time": 8.801}, {"pitch": 42, "velocity": 80, "note_on_time": 8.067, "note_off_time": 8.802}, {"pitch": 42, "velocity": 80, "note_on_time": 8.802, "note_off_time": 9.536}, {"pitch": 64, "velocity": 80, "note_on_time": 8.801, "note_off_time": 10.268}, {"pitch": 42, "velocity": 80, "note_on_time": 9.536, "note_off_time": 10.268}, {"pitch": 42, "velocity": 80, "note_on_time": 10.269, "note_off_time": 11.007}, {"pitch": 42, "velocity": 80, "note_on_time": 11.007, "note_off_time": 11.744}, {"pitch": 42, "velocity": 80, "note_on_time": 11.744, "note_off_time": 12.479}, {"pitch": 64, "velocity": 80, "note_on_time": 11.744, "note_off_time": 13.212}, {"pitch": 42, "velocity": 80, "note_on_time": 12.48, "note_off_time": 13.212}, {"pitch": 42, "velocity": 80, "note_on_time": 13.213, "note_off_time": 13.947}, {"pitch": 62, "velocity": 80, "note_on_time": 13.212, "note_off_time": 14.683}, {"pitch": 42, "velocity": 80, "note_on_time": 13.947, "note_off_time": 14.683}, {"pitch": 42, "velocity": 80, "note_on_time": 14.684, "note_off_time": 15.418}, {"pitch": 62, "velocity": 80, "note_on_time": 14.683, "note_off_time": 16.151}, {"pitch": 42, "velocity": 80, "note_on_time": 15.419, "note_off_time": 16.151}, {"pitch": 62, "velocity": 80, "note_on_time": 16.151, "note_off_time": 16.885}, {"pitch": 42, "velocity": 80, "note_on_time": 16.152, "note_off_time": 16.886}, {"pitch": 42, "velocity": 80, "note_on_time": 16.886, "note_off_time": 17.618}, {"pitch": 62, "velocity": 80, "note_on_time": 17.618, "note_off_time": 18.354}, {"pitch": 42, "velocity": 80, "note_on_time": 17.618, "note_off_time": 18.354}, {"pitch": 62, "velocity": 80, "note_on_time": 18.354, "note_off_time": 19.085}, {"pitch": 42, "velocity": 80, "note_on_time": 18.354, "note_off_time": 19.085}, {"pitch": 62, "velocity": 80, "note_on_time": 19.085, "note_off_time": 19.817}, {"pitch": 42, "velocity": 80, "note_on_time": 19.085, "note_off_time": 19.817}, {"pitch": 62, "velocity": 80, "note_on_time": 19.817, "note_off_time": 20.554}, {"pitch": 42, "velocity": 80, "note_on_time": 19.818, "note_off_time": 20.554}, {"pitch": 62, "velocity": 80, "note_on_time": 20.554, "note_off_time": 21.287}, {"pitch": 42, "velocity": 80, "note_on_time": 20.555, "note_off_time": 21.288}, {"pitch": 64, "velocity": 80, "note_on_time": 21.287, "note_off_time": 22.023}, {"pitch": 42, "velocity": 80, "note_on_time": 21.288, "note_off_time": 22.023}, {"pitch": 60, "velocity": 80, "note_on_time": 22.023, "note_off_time": 22.748}, {"pitch": 42, "velocity": 80, "note_on_time": 22.023, "note_off_time": 22.749}, {"pitch": 62, "velocity": 80, "note_on_time": 22.748, "note_off_time": 23.481}, {"pitch": 42, "velocity": 80, "note_on_time": 22.749, "note_off_time": 23.481}, {"pitch": 42, "velocity": 80, "note_on_time": 23.482, "note_off_time": 24.218}, {"pitch": 62, "velocity": 80, "note_on_time": 24.218, "note_off_time": 24.951}, {"pitch": 42, "velocity": 80, "note_on_time": 24.218, "note_off_time": 24.951}, {"pitch": 62, "velocity": 80, "note_on_time": 24.951, "note_off_time": 25.689}, {"pitch": 42, "velocity": 80, "note_on_time": 24.951, "note_off_time": 25.689}, {"pitch": 62, "velocity": 80, "note_on_time": 25.689, "note_off_time": 26.422}, {"pitch": 42, "velocity": 80, "note_on_time": 25.69, "note_off_time": 26.423}]</notes><options name="Option List">((4, 4), [0.5, 0.25], 3, 8, &lt;NoteRangePerHand.THREE_NOTES: 4&gt;, &lt;NoteRangePerHand.ONE_NOTE: 2&gt;, False, True, False, 83)</options></target_notes><trials><trial trial_no="1" timestamp="2022_12_15-13_18_09"><notes name="Played Notes">[{"pitch": 60, "velocity": 71, "note_on_time": 2.935, "note_off_time": 3.126}, {"pitch": 64, "velocity": 70, "note_on_time": 4.409, "note_off_time": 5.153}, {"pitch": 62, "velocity": 62, "note_on_time": 5.822, "note_off_time": 6.02}, {"pitch": 62, "velocity": 65, "note_on_time": 6.553, "note_off_time": 6.749}, {"pitch": 60, "velocity": 71, "note_on_time": 7.267, "note_off_time": 7.406}, {"pitch": 60, "velocity": 70, "note_on_time": 7.996, "note_off_time": 8.111}, {"pitch": 64, "velocity": 70, "note_on_time": 8.766, "note_off_time": 9.744}, {"pitch": 64, "velocity": 63, "note_on_time": 11.674, "note_off_time": 12.454}, {"pitch": 62, "velocity": 66, "note_on_time": 13.163, "note_off_time": 13.944}, {"pitch": 62, "velocity": 64, "note_on_time": 14.616, "note_off_time": 15.476}, {"pitch": 62, "velocity": 72, "note_on_time": 16.068, "note_off_time": 16.288}, {"pitch": 62, "velocity": 79, "note_on_time": 17.594, "note_off_time": 17.734}, {"pitch": 62, "velocity": 57, "note_on_time": 18.318, "note_off_time": 18.457}, {"pitch": 62, "velocity": 59, "note_on_time": 19.087, "note_off_time": 19.214}, {"pitch": 62, "velocity": 53, "note_on_time": 19.763, "note_off_time": 19.926}, {"pitch": 62, "velocity": 64, "note_on_time": 20.518, "note_off_time": 20.641}, {"pitch": 64, "velocity": 58, "note_on_time": 21.234, "note_off_time": 21.367}, {"pitch": 60, "velocity": 50, "note_on_time": 21.983, "note_off_time": 22.099}, {"pitch": 62, "velocity": 56, "note_on_time": 22.749, "note_off_time": 22.933}, {"pitch": 62, "velocity": 71, "note_on_time": 24.182, "note_off_time": 24.299}, {"pitch": 62, "velocity": 64, "note_on_time": 24.919, "note_off_time": 25.045}, {"pitch": 62, "velocity": 78, "note_on_time": 25.603, "note_off_time": 25.734}]</notes><guidance name="Guidance Mode">None</guidance><error name="Error value">0.029086052631578665</error></trial><trial trial_no="2" timestamp="2022_12_15-13_18_44"><notes name="Played Notes">[{"pitch": 60, "velocity": 64, "note_on_time": 2.937, "note_off_time": 3.114}, {"pitch": 64, "velocity": 62, "note_on_time": 4.437, "note_off_time": 5.124}, {"pitch": 62, "velocity": 67, "note_on_time": 5.837, "note_off_time": 6.01}, {"pitch": 62, "velocity": 73, "note_on_time": 6.574, "note_off_time": 6.707}, {"pitch": 60, "velocity": 62, "note_on_time": 7.322, "note_off_time": 7.444}, {"pitch": 60, "velocity": 67, "note_on_time": 8.051, "note_off_time": 8.189}, {"pitch": 64, "velocity": 64, "note_on_time": 8.781, "note_off_time": 9.628}, {"pitch": 64, "velocity": 60, "note_on_time": 11.712, "note_off_time": 12.432}, {"pitch": 62, "velocity": 71, "note_on_time": 13.141, "note_off_time": 13.913}, {"pitch": 62, "velocity": 56, "note_on_time": 14.644, "note_off_time": 15.335}, {"pitch": 62, "velocity": 61, "note_on_time": 16.109, "note_off_time": 16.419}, {"pitch": 62, "velocity": 65, "note_on_time": 17.568, "note_off_time": 17.697}, {"pitch": 62, "velocity": 65, "note_on_time": 18.296, "note_off_time": 18.418}, {"pitch": 62, "velocity": 53, "note_on_time": 19.026, "note_off_time": 19.16}, {"pitch": 62, "velocity": 52, "note_on_time": 19.735, "note_off_time": 19.851}, {"pitch": 62, "velocity": 51, "note_on_time": 20.507, "note_off_time": 20.64}, {"pitch": 64, "velocity": 55, "note_on_time": 21.229, "note_off_time": 21.355}, {"pitch": 60, "velocity": 44, "note_on_time": 21.939, "note_off_time": 22.087}, {"pitch": 62, "velocity": 52, "note_on_time": 22.723, "note_off_time": 22.887}, {"pitch": 62, "velocity": 67, "note_on_time": 24.163, "note_off_time": 24.306}, {"pitch": 62, "velocity": 56, "note_on_time": 24.963, "note_off_time": 25.093}, {"pitch": 62, "velocity": 57, "note_on_time": 25.701, "note_off_time": 25.783}]</notes><guidance name="Guidance Mode">None</guidance><error name="Error value">0.028758789473684418</error></trial><trial trial_no="3" timestamp="2022_12_15-13_19_36"><notes name="Played Notes">[{"pitch": 60, "velocity": 55, "note_on_time": 2.973, "note_off_time": 3.216}, {"pitch": 64, "velocity": 70, "note_on_time": 4.394, "note_off_time": 5.129}, {"pitch": 62, "velocity": 53, "note_on_time": 5.842, "note_off_time": 6.063}, {"pitch": 62, "velocity": 51, "note_on_time": 6.569, "note_off_time": 6.761}, {"pitch": 60, "velocity": 46, "note_on_time": 7.309, "note_off_time": 7.452}, {"pitch": 60, "velocity": 64, "note_on_time": 8.052, "note_off_time": 8.159}, {"pitch": 64, "velocity": 56, "note_on_time": 8.74, "note_off_time": 9.614}, {"pitch": 64, "velocity": 56, "note_on_time": 11.727, "note_off_time": 12.472}, {"pitch": 62, "velocity": 51, "note_on_time": 13.188, "note_off_time": 13.941}, {"pitch": 62, "velocity": 61, "note_on_time": 14.578, "note_off_time": 15.338}, {"pitch": 62, "velocity": 65, "note_on_time": 16.057, "note_off_time": 16.198}, {"pitch": 62, "velocity": 69, "note_on_time": 17.562, "note_off_time": 17.695}, {"pitch": 62, "velocity": 57, "note_on_time": 18.303, "note_off_time": 18.423}, {"pitch": 62, "velocity": 57, "note_on_time": 19.031, "note_off_time": 19.148}, {"pitch": 62, "velocity": 52, "note_on_time": 19.75, "note_off_time": 19.871}, {"pitch": 62, "velocity": 59, "note_on_time": 20.481, "note_off_time": 20.609}, {"pitch": 64, "velocity": 64, "note_on_time": 21.184, "note_off_time": 21.29}, {"pitch": 60, "velocity": 49, "note_on_time": 21.932, "note_off_time": 22.043}, {"pitch": 62, "velocity": 66, "note_on_time": 22.647, "note_off_time": 22.762}, {"pitch": 62, "velocity": 60, "note_on_time": 24.128, "note_off_time": 24.26}, {"pitch": 62, "velocity": 60, "note_on_time": 24.889, "note_off_time": 25.014}, {"pitch": 62, "velocity": 57, "note_on_time": 25.596, "note_off_time": 25.741}]</notes><guidance name="Guidance Mode">None</guidance><error name="Error value">0.02839036842105246</error></trial></trials></MIDI>