<MIDI midiNo="2022_12_08-11_30_23"><target_notes><notes name="Note List">[{"pitch": 42, "velocity": 80, "note_on_time": 0.004, "note_off_time": 0.369}, {"pitch": 42, "velocity": 80, "note_on_time": 0.369, "note_off_time": 0.744}, {"pitch": 42, "velocity": 80, "note_on_time": 0.744, "note_off_time": 1.118}, {"pitch": 42, "velocity": 80, "note_on_time": 1.118, "note_off_time": 1.492}, {"pitch": 64, "velocity": 80, "note_on_time": 1.491, "note_off_time": 1.863}, {"pitch": 42, "velocity": 80, "note_on_time": 1.492, "note_off_time": 1.863}, {"pitch": 42, "velocity": 80, "note_on_time": 1.864, "note_off_time": 2.236}, {"pitch": 42, "velocity": 80, "note_on_time": 2.236, "note_off_time": 2.61}, {"pitch": 42, "velocity": 80, "note_on_time": 2.61, "note_off_time": 2.984}, {"pitch": 67, "velocity": 80, "note_on_time": 2.984, "note_off_time": 3.358}, {"pitch": 42, "velocity": 80, "note_on_time": 2.985, "note_off_time": 3.359}, {"pitch": 42, "velocity": 80, "note_on_time": 3.359, "note_off_time": 3.732}, {"pitch": 67, "velocity": 80, "note_on_time": 3.732, "note_off_time": 4.106}, {"pitch": 42, "velocity": 80, "note_on_time": 3.732, "note_off_time": 4.106}, {"pitch": 62, "velocity": 80, "note_on_time": 4.106, "note_off_time": 4.479}, {"pitch": 42, "velocity": 80, "note_on_time": 4.107, "note_off_time": 4.479}, {"pitch": 42, "velocity": 80, "note_on_time": 4.48, "note_off_time": 4.849}, {"pitch": 62, "velocity": 80, "note_on_time": 4.479, "note_off_time": 5.22}, {"pitch": 42, "velocity": 80, "note_on_time": 4.85, "note_off_time": 5.22}, {"pitch": 42, "velocity": 80, "note_on_time": 5.22, "note_off_time": 5.589}, {"pitch": 60, "velocity": 80, "note_on_time": 5.589, "note_off_time": 5.961}, {"pitch": 42, "velocity": 80, "note_on_time": 5.59, "note_off_time": 5.961}, {"pitch": 64, "velocity": 80, "note_on_time": 5.961, "note_off_time": 6.337}, {"pitch": 42, "velocity": 80, "note_on_time": 5.961, "note_off_time": 6.337}, {"pitch": 65, "velocity": 80, "note_on_time": 6.337, "note_off_time": 6.708}, {"pitch": 42, "velocity": 80, "note_on_time": 6.337, "note_off_time": 6.708}, {"pitch": 62, "velocity": 80, "note_on_time": 6.708, "note_off_time": 7.08}, {"pitch": 42, "velocity": 80, "note_on_time": 6.708, "note_off_time": 7.081}, {"pitch": 62, "velocity": 80, "note_on_time": 7.08, "note_off_time": 7.454}, {"pitch": 42, "velocity": 80, "note_on_time": 7.081, "note_off_time": 7.454}, {"pitch": 64, "velocity": 80, "note_on_time": 7.454, "note_off_time": 7.828}, {"pitch": 42, "velocity": 80, "note_on_time": 7.455, "note_off_time": 7.829}, {"pitch": 67, "velocity": 80, "note_on_time": 7.828, "note_off_time": 8.199}, {"pitch": 42, "velocity": 80, "note_on_time": 7.829, "note_off_time": 8.199}, {"pitch": 67, "velocity": 80, "note_on_time": 8.199, "note_off_time": 8.572}, {"pitch": 42, "velocity": 80, "note_on_time": 8.199, "note_off_time": 8.572}, {"pitch": 65, "velocity": 80, "note_on_time": 8.572, "note_off_time": 8.948}, {"pitch": 42, "velocity": 80, "note_on_time": 8.572, "note_off_time": 8.948}, {"pitch": 60, "velocity": 80, "note_on_time": 8.948, "note_off_time": 9.323}, {"pitch": 42, "velocity": 80, "note_on_time": 8.948, "note_off_time": 9.323}, {"pitch": 64, "velocity": 80, "note_on_time": 9.323, "note_off_time": 9.698}, {"pitch": 42, "velocity": 80, "note_on_time": 9.324, "note_off_time": 9.698}, {"pitch": 65, "velocity": 80, "note_on_time": 9.698, "note_off_time": 10.069}, {"pitch": 42, "velocity": 80, "note_on_time": 9.698, "note_off_time": 10.07}, {"pitch": 65, "velocity": 80, "note_on_time": 10.069, "note_off_time": 10.444}, {"pitch": 42, "velocity": 80, "note_on_time": 10.07, "note_off_time": 10.444}, {"pitch": 42, "velocity": 80, "note_on_time": 10.444, "note_off_time": 10.821}, {"pitch": 62, "velocity": 80, "note_on_time": 10.444, "note_off_time": 11.195}, {"pitch": 42, "velocity": 80, "note_on_time": 10.822, "note_off_time": 11.196}, {"pitch": 42, "velocity": 80, "note_on_time": 11.196, "note_off_time": 11.567}, {"pitch": 42, "velocity": 80, "note_on_time": 11.567, "note_off_time": 11.942}, {"pitch": 42, "velocity": 80, "note_on_time": 11.942, "note_off_time": 12.317}, {"pitch": 62, "velocity": 80, "note_on_time": 12.317, "note_off_time": 12.692}, {"pitch": 42, "velocity": 80, "note_on_time": 12.317, "note_off_time": 12.693}, {"pitch": 62, "velocity": 80, "note_on_time": 12.692, "note_off_time": 13.067}, {"pitch": 42, "velocity": 80, "note_on_time": 12.693, "note_off_time": 13.067}, {"pitch": 62, "velocity": 80, "note_on_time": 13.067, "note_off_time": 13.44}, {"pitch": 42, "velocity": 80, "note_on_time": 13.067, "note_off_time": 13.44}]</notes><options name="Option List">((4, 4), [0.5, 0.25], 3, 8, &lt;NoteRangePerHand.C_TO_G: 6&gt;, &lt;NoteRangePerHand.ONE_NOTE: 2&gt;, False, True, False, '166')</options></target_notes><trials><trial trial_no="1" timestamp="2022_12_08-11_30_08"><notes name="Played Notes">[{"pitch": 64, "velocity": 87, "note_on_time": 1.539, "note_off_time": 1.661}, {"pitch": 67, "velocity": 80, "note_on_time": 2.584, "note_off_time": 2.741}, {"pitch": 67, "velocity": 72, "note_on_time": 3.139, "note_off_time": 3.247}, {"pitch": 62, "velocity": 49, "note_on_time": 3.836, "note_off_time": 3.939}, {"pitch": 62, "velocity": 87, "note_on_time": 4.303, "note_off_time": 4.643}, {"pitch": 60, "velocity": 92, "note_on_time": 5.256, "note_off_time": 5.438}, {"pitch": 62, "velocity": 60, "note_on_time": 5.674, "note_off_time": 5.818}, {"pitch": 64, "velocity": 35, "note_on_time": 6.335, "note_off_time": 6.366}]</notes><guidance name="Guidance Mode">None</guidance><error name="Error value">1.2266786842105262</error></trial><trial trial_no="2" timestamp="2022_12_08-11_30_42"><notes name="Played Notes">[{"pitch": 64, "velocity": 101, "note_on_time": 1.474, "note_off_time": 1.578}, {"pitch": 67, "velocity": 91, "note_on_time": 2.608, "note_off_time": 2.742}, {"pitch": 67, "velocity": 89, "note_on_time": 3.289, "note_off_time": 3.479}, {"pitch": 62, "velocity": 90, "note_on_time": 3.699, "note_off_time": 3.859}, {"pitch": 62, "velocity": 93, "note_on_time": 4.079, "note_off_time": 4.444}, {"pitch": 60, "velocity": 88, "note_on_time": 4.943, "note_off_time": 5.186}, {"pitch": 64, "velocity": 73, "note_on_time": 5.419, "note_off_time": 5.534}, {"pitch": 65, "velocity": 88, "note_on_time": 5.822, "note_off_time": 5.995}, {"pitch": 62, "velocity": 90, "note_on_time": 6.21, "note_off_time": 6.316}, {"pitch": 62, "velocity": 89, "note_on_time": 6.6, "note_off_time": 6.996}, {"pitch": 64, "velocity": 91, "note_on_time": 7.488, "note_off_time": 7.673}, {"pitch": 67, "velocity": 86, "note_on_time": 7.864, "note_off_time": 8.022}, {"pitch": 67, "velocity": 82, "note_on_time": 8.238, "note_off_time": 8.431}, {"pitch": 65, "velocity": 85, "note_on_time": 8.611, "note_off_time": 8.793}, {"pitch": 60, "velocity": 77, "note_on_time": 8.993, "note_off_time": 9.17}, {"pitch": 62, "velocity": 82, "note_on_time": 9.357, "note_off_time": 9.49}, {"pitch": 64, "velocity": 92, "note_on_time": 9.745, "note_off_time": 10.124}, {"pitch": 65, "velocity": 86, "note_on_time": 10.124, "note_off_time": 10.175}, {"pitch": 65, "velocity": 78, "note_on_time": 10.387, "note_off_time": 10.512}, {"pitch": 62, "velocity": 86, "note_on_time": 10.739, "note_off_time": 10.926}, {"pitch": 62, "velocity": 94, "note_on_time": 11.927, "note_off_time": 12.06}, {"pitch": 62, "velocity": 98, "note_on_time": 12.289, "note_off_time": 12.374}, {"pitch": 62, "velocity": 103, "note_on_time": 12.67, "note_off_time": 12.881}]</notes><guidance name="Guidance Mode">None</guidance><error name="Error value">0.40803500000000015</error></trial><trial trial_no="3" timestamp="2022_12_08-11_31_08"><notes name="Played Notes">[{"pitch": 64, "velocity": 91, "note_on_time": 1.479, "note_off_time": 1.571}, {"pitch": 67, "velocity": 84, "note_on_time": 2.659, "note_off_time": 2.805}, {"pitch": 67, "velocity": 82, "note_on_time": 3.372, "note_off_time": 3.515}, {"pitch": 62, "velocity": 80, "note_on_time": 3.84, "note_off_time": 3.936}, {"pitch": 62, "velocity": 90, "note_on_time": 4.407, "note_off_time": 4.873}, {"pitch": 60, "velocity": 85, "note_on_time": 5.606, "note_off_time": 5.761}, {"pitch": 64, "velocity": 76, "note_on_time": 6.065, "note_off_time": 6.213}, {"pitch": 65, "velocity": 66, "note_on_time": 6.468, "note_off_time": 6.737}, {"pitch": 62, "velocity": 74, "note_on_time": 6.926, "note_off_time": 7.055}, {"pitch": 62, "velocity": 88, "note_on_time": 7.333, "note_off_time": 7.57}, {"pitch": 64, "velocity": 88, "note_on_time": 8.207, "note_off_time": 8.359}, {"pitch": 67, "velocity": 80, "note_on_time": 8.584, "note_off_time": 8.713}, {"pitch": 67, "velocity": 78, "note_on_time": 8.98, "note_off_time": 9.156}, {"pitch": 65, "velocity": 85, "note_on_time": 9.35, "note_off_time": 9.511}, {"pitch": 60, "velocity": 88, "note_on_time": 9.752, "note_off_time": 9.911}, {"pitch": 64, "velocity": 75, "note_on_time": 10.135, "note_off_time": 10.29}, {"pitch": 65, "velocity": 90, "note_on_time": 10.509, "note_off_time": 10.666}, {"pitch": 65, "velocity": 81, "note_on_time": 10.882, "note_off_time": 11.001}, {"pitch": 62, "velocity": 94, "note_on_time": 11.215, "note_off_time": 11.465}, {"pitch": 62, "velocity": 96, "note_on_time": 12.735, "note_off_time": 12.894}, {"pitch": 62, "velocity": 91, "note_on_time": 13.095, "note_off_time": 13.207}]</notes><guidance name="Guidance Mode">None</guidance><error name="Error value">0.1596021052631579</error></trial></trials></MIDI>