<MIDI midiNo="2022_11_10-11_45_28"><target_notes><notes name="Note List">[{"pitch": 42, "velocity": 80, "note_on_time": 0.004, "note_off_time": 0.728}, {"pitch": 42, "velocity": 80, "note_on_time": 0.728, "note_off_time": 1.46}, {"pitch": 42, "velocity": 80, "note_on_time": 1.46, "note_off_time": 2.19}, {"pitch": 42, "velocity": 80, "note_on_time": 2.19, "note_off_time": 2.923}, {"pitch": 64, "velocity": 80, "note_on_time": 2.923, "note_off_time": 3.653}, {"pitch": 42, "velocity": 80, "note_on_time": 2.923, "note_off_time": 3.653}, {"pitch": 62, "velocity": 80, "note_on_time": 3.653, "note_off_time": 4.385}, {"pitch": 42, "velocity": 80, "note_on_time": 3.653, "note_off_time": 4.385}, {"pitch": 64, "velocity": 80, "note_on_time": 4.385, "note_off_time": 5.118}, {"pitch": 42, "velocity": 80, "note_on_time": 4.385, "note_off_time": 5.118}, {"pitch": 64, "velocity": 80, "note_on_time": 5.118, "note_off_time": 5.847}, {"pitch": 42, "velocity": 80, "note_on_time": 5.118, "note_off_time": 5.848}, {"pitch": 64, "velocity": 80, "note_on_time": 5.847, "note_off_time": 6.578}, {"pitch": 42, "velocity": 80, "note_on_time": 5.848, "note_off_time": 6.579}, {"pitch": 62, "velocity": 80, "note_on_time": 6.578, "note_off_time": 7.312}, {"pitch": 42, "velocity": 80, "note_on_time": 6.579, "note_off_time": 7.312}, {"pitch": 60, "velocity": 80, "note_on_time": 7.312, "note_off_time": 8.044}, {"pitch": 42, "velocity": 80, "note_on_time": 7.312, "note_off_time": 8.045}, {"pitch": 62, "velocity": 80, "note_on_time": 8.044, "note_off_time": 8.775}, {"pitch": 42, "velocity": 80, "note_on_time": 8.045, "note_off_time": 8.775}, {"pitch": 60, "velocity": 80, "note_on_time": 8.775, "note_off_time": 9.505}, {"pitch": 42, "velocity": 80, "note_on_time": 8.775, "note_off_time": 9.505}, {"pitch": 60, "velocity": 80, "note_on_time": 9.505, "note_off_time": 10.236}, {"pitch": 42, "velocity": 80, "note_on_time": 9.505, "note_off_time": 10.236}, {"pitch": 64, "velocity": 80, "note_on_time": 10.236, "note_off_time": 10.966}, {"pitch": 42, "velocity": 80, "note_on_time": 10.237, "note_off_time": 10.967}, {"pitch": 60, "velocity": 80, "note_on_time": 10.966, "note_off_time": 11.7}, {"pitch": 42, "velocity": 80, "note_on_time": 10.967, "note_off_time": 11.7}, {"pitch": 64, "velocity": 80, "note_on_time": 11.7, "note_off_time": 12.429}, {"pitch": 42, "velocity": 80, "note_on_time": 11.7, "note_off_time": 12.43}, {"pitch": 64, "velocity": 80, "note_on_time": 12.429, "note_off_time": 13.158}, {"pitch": 42, "velocity": 80, "note_on_time": 12.43, "note_off_time": 13.159}, {"pitch": 62, "velocity": 80, "note_on_time": 13.158, "note_off_time": 13.89}, {"pitch": 42, "velocity": 80, "note_on_time": 13.159, "note_off_time": 13.89}, {"pitch": 64, "velocity": 80, "note_on_time": 13.89, "note_off_time": 14.622}, {"pitch": 42, "velocity": 80, "note_on_time": 13.891, "note_off_time": 14.622}, {"pitch": 42, "velocity": 80, "note_on_time": 14.622, "note_off_time": 15.353}, {"pitch": 64, "velocity": 80, "note_on_time": 14.622, "note_off_time": 16.085}, {"pitch": 42, "velocity": 80, "note_on_time": 15.353, "note_off_time": 16.085}, {"pitch": 42, "velocity": 80, "note_on_time": 16.086, "note_off_time": 16.818}, {"pitch": 42, "velocity": 80, "note_on_time": 16.818, "note_off_time": 17.55}, {"pitch": 64, "velocity": 80, "note_on_time": 17.55, "note_off_time": 18.281}, {"pitch": 42, "velocity": 80, "note_on_time": 17.551, "note_off_time": 18.282}, {"pitch": 42, "velocity": 80, "note_on_time": 18.282, "note_off_time": 19.011}, {"pitch": 60, "velocity": 80, "note_on_time": 18.281, "note_off_time": 19.743}, {"pitch": 42, "velocity": 80, "note_on_time": 19.011, "note_off_time": 19.743}, {"pitch": 64, "velocity": 80, "note_on_time": 19.743, "note_off_time": 20.474}, {"pitch": 42, "velocity": 80, "note_on_time": 19.743, "note_off_time": 20.474}, {"pitch": 62, "velocity": 80, "note_on_time": 20.474, "note_off_time": 21.209}, {"pitch": 42, "velocity": 80, "note_on_time": 20.474, "note_off_time": 21.209}, {"pitch": 64, "velocity": 80, "note_on_time": 21.209, "note_off_time": 21.939}, {"pitch": 42, "velocity": 80, "note_on_time": 21.209, "note_off_time": 21.939}, {"pitch": 62, "velocity": 80, "note_on_time": 21.939, "note_off_time": 22.668}, {"pitch": 42, "velocity": 80, "note_on_time": 21.939, "note_off_time": 22.668}, {"pitch": 60, "velocity": 80, "note_on_time": 22.668, "note_off_time": 23.4}, {"pitch": 42, "velocity": 80, "note_on_time": 22.668, "note_off_time": 23.4}, {"pitch": 42, "velocity": 80, "note_on_time": 23.4, "note_off_time": 24.132}, {"pitch": 60, "velocity": 80, "note_on_time": 24.132, "note_off_time": 24.865}, {"pitch": 42, "velocity": 80, "note_on_time": 24.132, "note_off_time": 24.865}, {"pitch": 60, "velocity": 80, "note_on_time": 24.865, "note_off_time": 25.597}, {"pitch": 42, "velocity": 80, "note_on_time": 24.865, "note_off_time": 25.597}, {"pitch": 60, "velocity": 80, "note_on_time": 25.597, "note_off_time": 26.326}, {"pitch": 42, "velocity": 80, "note_on_time": 25.597, "note_off_time": 26.326}]</notes><options name="Option List">((4, 4), [0.5, 0.25], 3, 8, &lt;NoteRangePerHand.THREE_NOTES: 4&gt;, &lt;NoteRangePerHand.ONE_NOTE: 2&gt;, False, True, False, 83)</options></target_notes><trials><trial trial_no="1" timestamp="2022_11_10-11_45_00"><notes name="Played Notes">[{"pitch": 64, "velocity": 68, "note_on_time": 2.849, "note_off_time": 3.21}, {"pitch": 62, "velocity": 69, "note_on_time": 3.554, "note_off_time": 3.877}, {"pitch": 64, "velocity": 76, "note_on_time": 4.264, "note_off_time": 4.587}, {"pitch": 64, "velocity": 81, "note_on_time": 4.964, "note_off_time": 5.273}, {"pitch": 64, "velocity": 78, "note_on_time": 5.719, "note_off_time": 6.008}, {"pitch": 62, "velocity": 74, "note_on_time": 6.467, "note_off_time": 6.725}, {"pitch": 60, "velocity": 74, "note_on_time": 7.138, "note_off_time": 7.402}, {"pitch": 62, "velocity": 81, "note_on_time": 7.858, "note_off_time": 8.122}, {"pitch": 60, "velocity": 75, "note_on_time": 8.608, "note_off_time": 8.869}, {"pitch": 60, "velocity": 87, "note_on_time": 9.354, "note_off_time": 9.619}, {"pitch": 64, "velocity": 73, "note_on_time": 10.11, "note_off_time": 10.371}, {"pitch": 60, "velocity": 74, "note_on_time": 10.835, "note_off_time": 11.094}, {"pitch": 64, "velocity": 73, "note_on_time": 11.55, "note_off_time": 11.832}, {"pitch": 64, "velocity": 73, "note_on_time": 12.271, "note_off_time": 12.509}, {"pitch": 62, "velocity": 65, "note_on_time": 12.99, "note_off_time": 13.265}, {"pitch": 64, "velocity": 79, "note_on_time": 13.72, "note_off_time": 14.01}, {"pitch": 64, "velocity": 66, "note_on_time": 14.447, "note_off_time": 15.611}, {"pitch": 64, "velocity": 73, "note_on_time": 17.554, "note_off_time": 17.787}, {"pitch": 60, "velocity": 79, "note_on_time": 18.259, "note_off_time": 19.389}, {"pitch": 64, "velocity": 81, "note_on_time": 19.71, "note_off_time": 20.018}, {"pitch": 62, "velocity": 71, "note_on_time": 20.651, "note_off_time": 20.997}, {"pitch": 64, "velocity": 62, "note_on_time": 21.322, "note_off_time": 21.647}, {"pitch": 62, "velocity": 78, "note_on_time": 22.033, "note_off_time": 22.297}, {"pitch": 60, "velocity": 84, "note_on_time": 22.705, "note_off_time": 22.975}, {"pitch": 60, "velocity": 75, "note_on_time": 24.035, "note_off_time": 24.294}, {"pitch": 60, "velocity": 82, "note_on_time": 24.706, "note_off_time": 24.977}, {"pitch": 60, "velocity": 82, "note_on_time": 25.39, "note_off_time": 25.74}]</notes><guidance name="Guidance Mode">None</guidance><error name="Error value">0.04391212499999982</error></trial><trial trial_no="2" timestamp="2022_11_10-11_45_41"><notes name="Played Notes">[{"pitch": 64, "velocity": 68, "note_on_time": 2.892, "note_off_time": 3.184}, {"pitch": 62, "velocity": 66, "note_on_time": 3.624, "note_off_time": 3.88}, {"pitch": 64, "velocity": 75, "note_on_time": 4.305, "note_off_time": 4.57}, {"pitch": 64, "velocity": 80, "note_on_time": 5.031, "note_off_time": 5.257}, {"pitch": 64, "velocity": 80, "note_on_time": 5.788, "note_off_time": 6.014}, {"pitch": 62, "velocity": 76, "note_on_time": 6.513, "note_off_time": 6.724}, {"pitch": 60, "velocity": 77, "note_on_time": 7.234, "note_off_time": 7.463}, {"pitch": 62, "velocity": 79, "note_on_time": 7.949, "note_off_time": 8.144}, {"pitch": 60, "velocity": 79, "note_on_time": 8.663, "note_off_time": 8.892}, {"pitch": 60, "velocity": 77, "note_on_time": 9.398, "note_off_time": 9.629}, {"pitch": 64, "velocity": 67, "note_on_time": 10.122, "note_off_time": 10.359}, {"pitch": 60, "velocity": 79, "note_on_time": 10.849, "note_off_time": 11.08}, {"pitch": 64, "velocity": 79, "note_on_time": 11.584, "note_off_time": 11.797}, {"pitch": 64, "velocity": 74, "note_on_time": 12.334, "note_off_time": 12.552}, {"pitch": 62, "velocity": 76, "note_on_time": 13.03, "note_off_time": 13.266}, {"pitch": 64, "velocity": 73, "note_on_time": 13.716, "note_off_time": 14.013}, {"pitch": 64, "velocity": 70, "note_on_time": 14.44, "note_off_time": 15.509}, {"pitch": 64, "velocity": 70, "note_on_time": 16.779, "note_off_time": 17.006}, {"pitch": 60, "velocity": 75, "note_on_time": 17.443, "note_off_time": 18.473}, {"pitch": 64, "velocity": 73, "note_on_time": 18.951, "note_off_time": 19.346}, {"pitch": 62, "velocity": 73, "note_on_time": 19.679, "note_off_time": 19.988}, {"pitch": 64, "velocity": 72, "note_on_time": 20.388, "note_off_time": 20.686}, {"pitch": 62, "velocity": 74, "note_on_time": 21.104, "note_off_time": 21.327}, {"pitch": 60, "velocity": 77, "note_on_time": 21.807, "note_off_time": 22.082}, {"pitch": 60, "velocity": 77, "note_on_time": 23.286, "note_off_time": 23.527}, {"pitch": 60, "velocity": 85, "note_on_time": 23.974, "note_off_time": 24.239}, {"pitch": 60, "velocity": 82, "note_on_time": 24.627, "note_off_time": 24.984}]</notes><guidance name="Guidance Mode">None</guidance><error name="Error value">0.04532879166666668</error></trial><trial trial_no="3" timestamp="2022_11_10-11_46_18"><notes name="Played Notes">[{"pitch": 64, "velocity": 79, "note_on_time": 2.915, "note_off_time": 3.179}, {"pitch": 62, "velocity": 76, "note_on_time": 3.63, "note_off_time": 3.88}, {"pitch": 64, "velocity": 78, "note_on_time": 4.334, "note_off_time": 4.568}, {"pitch": 64, "velocity": 80, "note_on_time": 5.062, "note_off_time": 5.264}, {"pitch": 64, "velocity": 76, "note_on_time": 5.795, "note_off_time": 6.001}, {"pitch": 62, "velocity": 74, "note_on_time": 6.549, "note_off_time": 6.741}, {"pitch": 60, "velocity": 77, "note_on_time": 7.235, "note_off_time": 7.441}, {"pitch": 62, "velocity": 79, "note_on_time": 7.941, "note_off_time": 8.135}, {"pitch": 60, "velocity": 78, "note_on_time": 8.69, "note_off_time": 8.894}, {"pitch": 60, "velocity": 85, "note_on_time": 9.417, "note_off_time": 9.589}, {"pitch": 64, "velocity": 76, "note_on_time": 10.141, "note_off_time": 10.317}, {"pitch": 60, "velocity": 82, "note_on_time": 10.884, "note_off_time": 11.093}, {"pitch": 64, "velocity": 70, "note_on_time": 11.652, "note_off_time": 11.851}, {"pitch": 64, "velocity": 75, "note_on_time": 12.357, "note_off_time": 12.561}, {"pitch": 62, "velocity": 78, "note_on_time": 13.06, "note_off_time": 13.277}, {"pitch": 64, "velocity": 72, "note_on_time": 13.775, "note_off_time": 13.964}, {"pitch": 64, "velocity": 81, "note_on_time": 14.469, "note_off_time": 15.695}, {"pitch": 64, "velocity": 69, "note_on_time": 17.536, "note_off_time": 17.755}, {"pitch": 60, "velocity": 83, "note_on_time": 18.244, "note_off_time": 19.317}, {"pitch": 64, "velocity": 75, "note_on_time": 19.696, "note_off_time": 19.983}, {"pitch": 62, "velocity": 69, "note_on_time": 20.455, "note_off_time": 20.685}, {"pitch": 64, "velocity": 74, "note_on_time": 21.148, "note_off_time": 21.396}, {"pitch": 62, "velocity": 78, "note_on_time": 21.902, "note_off_time": 22.082}, {"pitch": 60, "velocity": 79, "note_on_time": 22.633, "note_off_time": 22.839}, {"pitch": 60, "velocity": 72, "note_on_time": 24.065, "note_off_time": 24.268}, {"pitch": 60, "velocity": 80, "note_on_time": 24.716, "note_off_time": 24.937}, {"pitch": 60, "velocity": 89, "note_on_time": 25.448, "note_off_time": 25.666}]</notes><guidance name="Guidance Mode">None</guidance><error name="Error value">0.02893937499999984</error></trial></trials></MIDI>