<MIDI midiNo="2022_12_01-13_25_06"><target_notes><notes name="Note List">[{"pitch": 42, "velocity": 80, "note_on_time": 0.004, "note_off_time": 0.407}, {"pitch": 42, "velocity": 80, "note_on_time": 0.408, "note_off_time": 0.81}, {"pitch": 42, "velocity": 80, "note_on_time": 0.81, "note_off_time": 1.215}, {"pitch": 42, "velocity": 80, "note_on_time": 1.216, "note_off_time": 1.631}, {"pitch": 64, "velocity": 80, "note_on_time": 1.63, "note_off_time": 2.037}, {"pitch": 42, "velocity": 80, "note_on_time": 1.631, "note_off_time": 2.038}, {"pitch": 64, "velocity": 80, "note_on_time": 2.037, "note_off_time": 2.442}, {"pitch": 42, "velocity": 80, "note_on_time": 2.038, "note_off_time": 2.442}, {"pitch": 60, "velocity": 80, "note_on_time": 2.442, "note_off_time": 2.845}, {"pitch": 42, "velocity": 80, "note_on_time": 2.442, "note_off_time": 2.846}, {"pitch": 60, "velocity": 80, "note_on_time": 2.845, "note_off_time": 3.249}, {"pitch": 42, "velocity": 80, "note_on_time": 2.846, "note_off_time": 3.25}, {"pitch": 42, "velocity": 80, "note_on_time": 3.25, "note_off_time": 3.654}, {"pitch": 62, "velocity": 80, "note_on_time": 3.249, "note_off_time": 4.059}, {"pitch": 42, "velocity": 80, "note_on_time": 3.654, "note_off_time": 4.059}, {"pitch": 42, "velocity": 80, "note_on_time": 4.059, "note_off_time": 4.463}, {"pitch": 42, "velocity": 80, "note_on_time": 4.464, "note_off_time": 4.869}, {"pitch": 64, "velocity": 80, "note_on_time": 4.869, "note_off_time": 5.273}, {"pitch": 42, "velocity": 80, "note_on_time": 4.869, "note_off_time": 5.273}, {"pitch": 42, "velocity": 80, "note_on_time": 5.274, "note_off_time": 5.678}, {"pitch": 42, "velocity": 80, "note_on_time": 5.679, "note_off_time": 6.083}, {"pitch": 42, "velocity": 80, "note_on_time": 6.084, "note_off_time": 6.487}, {"pitch": 64, "velocity": 80, "note_on_time": 6.487, "note_off_time": 6.89}, {"pitch": 42, "velocity": 80, "note_on_time": 6.487, "note_off_time": 6.89}, {"pitch": 62, "velocity": 80, "note_on_time": 6.89, "note_off_time": 7.296}, {"pitch": 42, "velocity": 80, "note_on_time": 6.89, "note_off_time": 7.296}, {"pitch": 62, "velocity": 80, "note_on_time": 7.296, "note_off_time": 7.702}, {"pitch": 42, "velocity": 80, "note_on_time": 7.297, "note_off_time": 7.702}, {"pitch": 62, "velocity": 80, "note_on_time": 7.702, "note_off_time": 8.105}, {"pitch": 42, "velocity": 80, "note_on_time": 7.702, "note_off_time": 8.106}, {"pitch": 64, "velocity": 80, "note_on_time": 8.105, "note_off_time": 8.511}, {"pitch": 42, "velocity": 80, "note_on_time": 8.106, "note_off_time": 8.511}, {"pitch": 64, "velocity": 80, "note_on_time": 8.511, "note_off_time": 8.916}, {"pitch": 42, "velocity": 80, "note_on_time": 8.511, "note_off_time": 8.916}, {"pitch": 64, "velocity": 80, "note_on_time": 8.916, "note_off_time": 9.326}, {"pitch": 42, "velocity": 80, "note_on_time": 8.916, "note_off_time": 9.326}, {"pitch": 64, "velocity": 80, "note_on_time": 9.326, "note_off_time": 9.729}, {"pitch": 42, "velocity": 80, "note_on_time": 9.327, "note_off_time": 9.729}, {"pitch": 64, "velocity": 80, "note_on_time": 9.729, "note_off_time": 10.132}, {"pitch": 42, "velocity": 80, "note_on_time": 9.73, "note_off_time": 10.133}, {"pitch": 42, "velocity": 80, "note_on_time": 10.133, "note_off_time": 10.538}, {"pitch": 64, "velocity": 80, "note_on_time": 10.132, "note_off_time": 10.941}, {"pitch": 42, "velocity": 80, "note_on_time": 10.539, "note_off_time": 10.941}, {"pitch": 42, "velocity": 80, "note_on_time": 10.942, "note_off_time": 11.347}, {"pitch": 60, "velocity": 80, "note_on_time": 11.347, "note_off_time": 11.751}, {"pitch": 42, "velocity": 80, "note_on_time": 11.348, "note_off_time": 11.751}, {"pitch": 42, "velocity": 80, "note_on_time": 11.751, "note_off_time": 12.156}, {"pitch": 42, "velocity": 80, "note_on_time": 12.156, "note_off_time": 12.562}, {"pitch": 42, "velocity": 80, "note_on_time": 12.562, "note_off_time": 12.968}, {"pitch": 42, "velocity": 80, "note_on_time": 12.969, "note_off_time": 13.369}, {"pitch": 60, "velocity": 80, "note_on_time": 13.369, "note_off_time": 13.778}, {"pitch": 42, "velocity": 80, "note_on_time": 13.369, "note_off_time": 13.779}, {"pitch": 60, "velocity": 80, "note_on_time": 13.778, "note_off_time": 14.181}, {"pitch": 42, "velocity": 80, "note_on_time": 13.779, "note_off_time": 14.181}, {"pitch": 60, "velocity": 80, "note_on_time": 14.181, "note_off_time": 14.586}, {"pitch": 42, "velocity": 80, "note_on_time": 14.181, "note_off_time": 14.586}]</notes><options name="Option List">((4, 4), [0.5, 0.25], 3, 8, &lt;NoteRangePerHand.THREE_NOTES: 4&gt;, &lt;NoteRangePerHand.ONE_NOTE: 2&gt;, False, True, False, 150)</options></target_notes><trials><trial trial_no="1" timestamp="2022_12_01-13_24_50"><notes name="Played Notes">[{"pitch": 64, "velocity": 71, "note_on_time": 1.585, "note_off_time": 1.795}, {"pitch": 64, "velocity": 74, "note_on_time": 1.954, "note_off_time": 2.193}, {"pitch": 60, "velocity": 81, "note_on_time": 2.359, "note_off_time": 2.55}, {"pitch": 60, "velocity": 86, "note_on_time": 2.748, "note_off_time": 2.931}, {"pitch": 62, "velocity": 80, "note_on_time": 3.14, "note_off_time": 3.802}, {"pitch": 64, "velocity": 73, "note_on_time": 4.407, "note_off_time": 4.788}, {"pitch": 64, "velocity": 79, "note_on_time": 5.887, "note_off_time": 6.129}, {"pitch": 62, "velocity": 76, "note_on_time": 6.267, "note_off_time": 6.484}, {"pitch": 62, "velocity": 79, "note_on_time": 6.641, "note_off_time": 6.848}, {"pitch": 62, "velocity": 77, "note_on_time": 7.016, "note_off_time": 7.221}, {"pitch": 64, "velocity": 76, "note_on_time": 7.379, "note_off_time": 7.563}, {"pitch": 64, "velocity": 72, "note_on_time": 7.739, "note_off_time": 7.955}, {"pitch": 64, "velocity": 75, "note_on_time": 8.118, "note_off_time": 8.303}, {"pitch": 64, "velocity": 72, "note_on_time": 8.478, "note_off_time": 8.621}, {"pitch": 64, "velocity": 77, "note_on_time": 8.825, "note_off_time": 8.973}, {"pitch": 64, "velocity": 71, "note_on_time": 9.223, "note_off_time": 9.857}, {"pitch": 60, "velocity": 81, "note_on_time": 10.461, "note_off_time": 10.846}, {"pitch": 60, "velocity": 77, "note_on_time": 11.826, "note_off_time": 12.031}, {"pitch": 60, "velocity": 82, "note_on_time": 12.201, "note_off_time": 12.424}, {"pitch": 60, "velocity": 84, "note_on_time": 12.605, "note_off_time": 12.988}]</notes><guidance name="Guidance Mode">None</guidance><error name="Error value">0.08670588235294123</error></trial><trial trial_no="2" timestamp="2022_12_01-13_25_12"><notes name="Played Notes">[{"pitch": 64, "velocity": 73, "note_on_time": 1.588, "note_off_time": 1.776}, {"pitch": 64, "velocity": 77, "note_on_time": 1.957, "note_off_time": 2.155}, {"pitch": 60, "velocity": 84, "note_on_time": 2.359, "note_off_time": 2.544}, {"pitch": 60, "velocity": 84, "note_on_time": 2.741, "note_off_time": 2.914}, {"pitch": 62, "velocity": 79, "note_on_time": 3.137, "note_off_time": 3.849}, {"pitch": 64, "velocity": 68, "note_on_time": 4.717, "note_off_time": 5.01}, {"pitch": 64, "velocity": 73, "note_on_time": 6.2, "note_off_time": 6.461}, {"pitch": 62, "velocity": 80, "note_on_time": 6.589, "note_off_time": 6.818}, {"pitch": 62, "velocity": 79, "note_on_time": 6.978, "note_off_time": 7.196}, {"pitch": 62, "velocity": 76, "note_on_time": 7.374, "note_off_time": 7.58}, {"pitch": 64, "velocity": 85, "note_on_time": 7.738, "note_off_time": 7.932}, {"pitch": 64, "velocity": 70, "note_on_time": 8.113, "note_off_time": 8.31}, {"pitch": 64, "velocity": 73, "note_on_time": 8.506, "note_off_time": 8.669}, {"pitch": 64, "velocity": 71, "note_on_time": 8.876, "note_off_time": 9.028}, {"pitch": 64, "velocity": 67, "note_on_time": 9.253, "note_off_time": 9.396}, {"pitch": 64, "velocity": 62, "note_on_time": 9.667, "note_off_time": 10.398}, {"pitch": 60, "velocity": 87, "note_on_time": 11.047, "note_off_time": 11.415}, {"pitch": 60, "velocity": 78, "note_on_time": 12.876, "note_off_time": 13.05}, {"pitch": 60, "velocity": 82, "note_on_time": 13.264, "note_off_time": 13.489}, {"pitch": 60, "velocity": 82, "note_on_time": 13.713, "note_off_time": 13.974}]</notes><guidance name="Guidance Mode">None</guidance><error name="Error value">0.04500000000000018</error></trial><trial trial_no="3" timestamp="2022_12_01-13_25_35"><notes name="Played Notes">[{"pitch": 64, "velocity": 71, "note_on_time": 1.586, "note_off_time": 1.767}, {"pitch": 64, "velocity": 69, "note_on_time": 1.975, "note_off_time": 2.19}, {"pitch": 60, "velocity": 74, "note_on_time": 2.351, "note_off_time": 2.531}, {"pitch": 60, "velocity": 82, "note_on_time": 2.752, "note_off_time": 2.957}, {"pitch": 62, "velocity": 78, "note_on_time": 3.163, "note_off_time": 3.803}, {"pitch": 64, "velocity": 81, "note_on_time": 4.521, "note_off_time": 5.098}, {"pitch": 64, "velocity": 68, "note_on_time": 5.783, "note_off_time": 5.984}, {"pitch": 62, "velocity": 79, "note_on_time": 6.119, "note_off_time": 6.318}, {"pitch": 62, "velocity": 71, "note_on_time": 6.49, "note_off_time": 6.691}, {"pitch": 62, "velocity": 73, "note_on_time": 6.888, "note_off_time": 7.069}, {"pitch": 64, "velocity": 68, "note_on_time": 7.24, "note_off_time": 7.398}, {"pitch": 64, "velocity": 72, "note_on_time": 7.633, "note_off_time": 7.806}, {"pitch": 64, "velocity": 73, "note_on_time": 8.008, "note_off_time": 8.155}, {"pitch": 64, "velocity": 75, "note_on_time": 8.387, "note_off_time": 8.532}, {"pitch": 64, "velocity": 74, "note_on_time": 8.791, "note_off_time": 8.928}, {"pitch": 64, "velocity": 70, "note_on_time": 9.176, "note_off_time": 9.839}, {"pitch": 60, "velocity": 75, "note_on_time": 10.513, "note_off_time": 10.8}, {"pitch": 60, "velocity": 73, "note_on_time": 11.765, "note_off_time": 11.938}, {"pitch": 60, "velocity": 79, "note_on_time": 12.169, "note_off_time": 12.361}, {"pitch": 60, "velocity": 78, "note_on_time": 12.575, "note_off_time": 13.005}]</notes><guidance name="Guidance Mode">None</guidance><error name="Error value">0.10217647058823522</error></trial></trials></MIDI>