<MIDI midiNo="2022_09_08-12_54_35"><target_notes><notes name="Note List">[{"pitch": 42, "velocity": 80, "note_on_time": 0.004, "note_off_time": 0.406}, {"pitch": 42, "velocity": 80, "note_on_time": 0.406, "note_off_time": 0.812}, {"pitch": 42, "velocity": 80, "note_on_time": 0.812, "note_off_time": 1.214}, {"pitch": 42, "velocity": 80, "note_on_time": 1.214, "note_off_time": 1.621}, {"pitch": 64, "velocity": 80, "note_on_time": 1.621, "note_off_time": 2.028}, {"pitch": 42, "velocity": 80, "note_on_time": 1.622, "note_off_time": 2.028}, {"pitch": 62, "velocity": 80, "note_on_time": 2.028, "note_off_time": 2.432}, {"pitch": 42, "velocity": 80, "note_on_time": 2.028, "note_off_time": 2.433}, {"pitch": 64, "velocity": 80, "note_on_time": 2.432, "note_off_time": 2.836}, {"pitch": 42, "velocity": 80, "note_on_time": 2.433, "note_off_time": 2.836}, {"pitch": 64, "velocity": 80, "note_on_time": 2.836, "note_off_time": 3.242}, {"pitch": 42, "velocity": 80, "note_on_time": 2.836, "note_off_time": 3.243}, {"pitch": 64, "velocity": 80, "note_on_time": 3.242, "note_off_time": 3.644}, {"pitch": 42, "velocity": 80, "note_on_time": 3.243, "note_off_time": 3.644}, {"pitch": 64, "velocity": 80, "note_on_time": 3.644, "note_off_time": 4.052}, {"pitch": 42, "velocity": 80, "note_on_time": 3.645, "note_off_time": 4.052}, {"pitch": 62, "velocity": 80, "note_on_time": 4.052, "note_off_time": 4.457}, {"pitch": 42, "velocity": 80, "note_on_time": 4.052, "note_off_time": 4.457}, {"pitch": 64, "velocity": 80, "note_on_time": 4.457, "note_off_time": 4.86}, {"pitch": 42, "velocity": 80, "note_on_time": 4.457, "note_off_time": 4.86}, {"pitch": 42, "velocity": 80, "note_on_time": 4.86, "note_off_time": 5.263}, {"pitch": 60, "velocity": 80, "note_on_time": 4.86, "note_off_time": 5.669}, {"pitch": 42, "velocity": 80, "note_on_time": 5.263, "note_off_time": 5.669}, {"pitch": 60, "velocity": 80, "note_on_time": 5.669, "note_off_time": 6.074}, {"pitch": 42, "velocity": 80, "note_on_time": 5.669, "note_off_time": 6.075}, {"pitch": 42, "velocity": 80, "note_on_time": 6.075, "note_off_time": 6.481}, {"pitch": 60, "velocity": 80, "note_on_time": 6.481, "note_off_time": 6.884}, {"pitch": 42, "velocity": 80, "note_on_time": 6.482, "note_off_time": 6.885}, {"pitch": 64, "velocity": 80, "note_on_time": 6.884, "note_off_time": 7.29}, {"pitch": 42, "velocity": 80, "note_on_time": 6.885, "note_off_time": 7.291}, {"pitch": 42, "velocity": 80, "note_on_time": 7.291, "note_off_time": 7.694}, {"pitch": 60, "velocity": 80, "note_on_time": 7.694, "note_off_time": 8.1}, {"pitch": 42, "velocity": 80, "note_on_time": 7.695, "note_off_time": 8.1}, {"pitch": 60, "velocity": 80, "note_on_time": 8.1, "note_off_time": 8.506}, {"pitch": 42, "velocity": 80, "note_on_time": 8.1, "note_off_time": 8.506}, {"pitch": 60, "velocity": 80, "note_on_time": 8.506, "note_off_time": 8.911}, {"pitch": 42, "velocity": 80, "note_on_time": 8.506, "note_off_time": 8.911}, {"pitch": 42, "velocity": 80, "note_on_time": 8.912, "note_off_time": 9.315}, {"pitch": 62, "velocity": 80, "note_on_time": 8.911, "note_off_time": 9.72}, {"pitch": 42, "velocity": 80, "note_on_time": 9.316, "note_off_time": 9.72}, {"pitch": 60, "velocity": 80, "note_on_time": 9.72, "note_off_time": 10.126}, {"pitch": 42, "velocity": 80, "note_on_time": 9.721, "note_off_time": 10.126}, {"pitch": 60, "velocity": 80, "note_on_time": 10.126, "note_off_time": 10.531}, {"pitch": 42, "velocity": 80, "note_on_time": 10.126, "note_off_time": 10.531}, {"pitch": 42, "velocity": 80, "note_on_time": 10.531, "note_off_time": 10.939}, {"pitch": 62, "velocity": 80, "note_on_time": 10.939, "note_off_time": 11.344}, {"pitch": 42, "velocity": 80, "note_on_time": 10.939, "note_off_time": 11.344}, {"pitch": 42, "velocity": 80, "note_on_time": 11.345, "note_off_time": 11.751}, {"pitch": 62, "velocity": 80, "note_on_time": 11.344, "note_off_time": 12.158}, {"pitch": 42, "velocity": 80, "note_on_time": 11.752, "note_off_time": 12.158}, {"pitch": 60, "velocity": 80, "note_on_time": 12.158, "note_off_time": 12.563}, {"pitch": 42, "velocity": 80, "note_on_time": 12.158, "note_off_time": 12.563}, {"pitch": 60, "velocity": 80, "note_on_time": 12.563, "note_off_time": 12.967}, {"pitch": 42, "velocity": 80, "note_on_time": 12.564, "note_off_time": 12.967}, {"pitch": 42, "velocity": 80, "note_on_time": 12.967, "note_off_time": 13.372}, {"pitch": 60, "velocity": 80, "note_on_time": 13.372, "note_off_time": 13.779}, {"pitch": 42, "velocity": 80, "note_on_time": 13.372, "note_off_time": 13.779}, {"pitch": 60, "velocity": 80, "note_on_time": 13.779, "note_off_time": 14.185}, {"pitch": 42, "velocity": 80, "note_on_time": 13.78, "note_off_time": 14.185}, {"pitch": 60, "velocity": 80, "note_on_time": 14.185, "note_off_time": 14.589}, {"pitch": 42, "velocity": 80, "note_on_time": 14.186, "note_off_time": 14.59}]</notes><options name="Option List">((4, 4), [0.5, 0.25], 3, 8, &lt;NoteRangePerHand.THREE_NOTES: 4&gt;, &lt;NoteRangePerHand.ONE_NOTE: 2&gt;, False, True, True, 150)</options></target_notes><trials><trial trial_no="1" timestamp="2022_09_08-12_54_19"><notes name="Played Notes">[{"pitch": 64, "velocity": 86, "note_on_time": 1.552, "note_off_time": 1.717}, {"pitch": 62, "velocity": 88, "note_on_time": 1.945, "note_off_time": 2.09}, {"pitch": 64, "velocity": 93, "note_on_time": 2.315, "note_off_time": 2.45}, {"pitch": 64, "velocity": 90, "note_on_time": 2.706, "note_off_time": 2.843}, {"pitch": 64, "velocity": 94, "note_on_time": 3.103, "note_off_time": 3.22}, {"pitch": 64, "velocity": 92, "note_on_time": 3.513, "note_off_time": 3.651}, {"pitch": 62, "velocity": 95, "note_on_time": 3.892, "note_off_time": 4.025}, {"pitch": 64, "velocity": 90, "note_on_time": 4.308, "note_off_time": 4.435}, {"pitch": 60, "velocity": 89, "note_on_time": 4.744, "note_off_time": 4.908}, {"pitch": 60, "velocity": 94, "note_on_time": 5.474, "note_off_time": 5.692}, {"pitch": 60, "velocity": 92, "note_on_time": 6.639, "note_off_time": 6.823}, {"pitch": 64, "velocity": 91, "note_on_time": 7.022, "note_off_time": 7.171}, {"pitch": 60, "velocity": 92, "note_on_time": 7.827, "note_off_time": 7.995}, {"pitch": 60, "velocity": 89, "note_on_time": 8.219, "note_off_time": 8.375}, {"pitch": 60, "velocity": 87, "note_on_time": 8.634, "note_off_time": 8.791}, {"pitch": 62, "velocity": 96, "note_on_time": 9.031, "note_off_time": 9.832}, {"pitch": 60, "velocity": 89, "note_on_time": 10.24, "note_off_time": 10.402}, {"pitch": 60, "velocity": 85, "note_on_time": 10.706, "note_off_time": 10.875}, {"pitch": 62, "velocity": 93, "note_on_time": 11.496, "note_off_time": 11.642}, {"pitch": 62, "velocity": 96, "note_on_time": 11.88, "note_off_time": 12.523}, {"pitch": 60, "velocity": 87, "note_on_time": 12.77, "note_off_time": 12.944}, {"pitch": 60, "velocity": 89, "note_on_time": 13.176, "note_off_time": 13.374}, {"pitch": 60, "velocity": 94, "note_on_time": 14.008, "note_off_time": 14.142}, {"pitch": 60, "velocity": 92, "note_on_time": 14.377, "note_off_time": 14.504}]</notes><guidance name="Guidance Mode">None</guidance><error name="Error value">0.12159090909090874</error></trial><trial trial_no="2" timestamp="2022_09_08-12_54_52"><notes name="Played Notes">[{"pitch": 64, "velocity": 88, "note_on_time": 1.575, "note_off_time": 1.732}, {"pitch": 62, "velocity": 91, "note_on_time": 1.966, "note_off_time": 2.149}, {"pitch": 64, "velocity": 86, "note_on_time": 2.42, "note_off_time": 2.582}, {"pitch": 64, "velocity": 91, "note_on_time": 2.844, "note_off_time": 2.971}, {"pitch": 64, "velocity": 90, "note_on_time": 3.255, "note_off_time": 3.382}, {"pitch": 64, "velocity": 93, "note_on_time": 3.678, "note_off_time": 3.816}, {"pitch": 62, "velocity": 91, "note_on_time": 4.076, "note_off_time": 4.221}, {"pitch": 64, "velocity": 90, "note_on_time": 4.49, "note_off_time": 4.624}, {"pitch": 60, "velocity": 82, "note_on_time": 4.908, "note_off_time": 5.097}, {"pitch": 60, "velocity": 91, "note_on_time": 5.717, "note_off_time": 5.926}, {"pitch": 60, "velocity": 92, "note_on_time": 6.899, "note_off_time": 7.07}, {"pitch": 64, "velocity": 87, "note_on_time": 7.352, "note_off_time": 7.489}, {"pitch": 60, "velocity": 101, "note_on_time": 8.235, "note_off_time": 8.391}, {"pitch": 60, "velocity": 87, "note_on_time": 8.621, "note_off_time": 8.772}, {"pitch": 60, "velocity": 91, "note_on_time": 9.017, "note_off_time": 9.186}, {"pitch": 62, "velocity": 99, "note_on_time": 9.419, "note_off_time": 10.002}, {"pitch": 60, "velocity": 97, "note_on_time": 10.253, "note_off_time": 10.422}, {"pitch": 60, "velocity": 90, "note_on_time": 10.674, "note_off_time": 10.861}, {"pitch": 62, "velocity": 91, "note_on_time": 11.386, "note_off_time": 11.56}, {"pitch": 62, "velocity": 96, "note_on_time": 11.782, "note_off_time": 12.296}, {"pitch": 60, "velocity": 99, "note_on_time": 12.539, "note_off_time": 12.718}, {"pitch": 60, "velocity": 95, "note_on_time": 12.974, "note_off_time": 13.145}, {"pitch": 60, "velocity": 87, "note_on_time": 13.581, "note_off_time": 13.761}, {"pitch": 60, "velocity": 88, "note_on_time": 14.025, "note_off_time": 14.189}]</notes><guidance name="Guidance Mode">None</guidance><error name="Error value">0.1165454545454546</error></trial><trial trial_no="3" timestamp="2022_09_08-12_55_26"><notes name="Played Notes">[{"pitch": 64, "velocity": 86, "note_on_time": 1.603, "note_off_time": 1.881}, {"pitch": 62, "velocity": 88, "note_on_time": 2.009, "note_off_time": 2.182}, {"pitch": 64, "velocity": 94, "note_on_time": 2.41, "note_off_time": 2.531}, {"pitch": 64, "velocity": 100, "note_on_time": 2.819, "note_off_time": 2.929}, {"pitch": 64, "velocity": 92, "note_on_time": 3.387, "note_off_time": 3.52}, {"pitch": 64, "velocity": 90, "note_on_time": 3.77, "note_off_time": 3.902}, {"pitch": 64, "velocity": 94, "note_on_time": 4.168, "note_off_time": 4.304}, {"pitch": 62, "velocity": 83, "note_on_time": 4.578, "note_off_time": 4.698}, {"pitch": 64, "velocity": 86, "note_on_time": 5.009, "note_off_time": 5.13}, {"pitch": 60, "velocity": 95, "note_on_time": 5.447, "note_off_time": 6.052}, {"pitch": 60, "velocity": 90, "note_on_time": 6.346, "note_off_time": 6.534}, {"pitch": 60, "velocity": 96, "note_on_time": 7.314, "note_off_time": 7.499}, {"pitch": 64, "velocity": 92, "note_on_time": 7.72, "note_off_time": 7.895}, {"pitch": 60, "velocity": 87, "note_on_time": 8.919, "note_off_time": 9.07}, {"pitch": 60, "velocity": 93, "note_on_time": 9.335, "note_off_time": 9.486}, {"pitch": 60, "velocity": 88, "note_on_time": 9.761, "note_off_time": 9.922}, {"pitch": 62, "velocity": 101, "note_on_time": 10.136, "note_off_time": 11.013}, {"pitch": 60, "velocity": 103, "note_on_time": 11.21, "note_off_time": 11.351}, {"pitch": 60, "velocity": 88, "note_on_time": 11.638, "note_off_time": 11.796}, {"pitch": 62, "velocity": 98, "note_on_time": 12.046, "note_off_time": 12.166}, {"pitch": 62, "velocity": 98, "note_on_time": 12.45, "note_off_time": 13.259}, {"pitch": 60, "velocity": 98, "note_on_time": 13.578, "note_off_time": 13.728}, {"pitch": 60, "velocity": 95, "note_on_time": 13.975, "note_off_time": 14.104}, {"pitch": 60, "velocity": 92, "note_on_time": 14.354, "note_off_time": 14.495}]</notes><guidance name="Guidance Mode">None</guidance><error name="Error value">0.6704545454545455</error></trial></trials></MIDI>