<MIDI midiNo="2022_10_02-13_52_24"><target_notes><notes name="Note List">[{"pitch": 42, "velocity": 80, "note_on_time": 0.004, "note_off_time": 0.254}, {"pitch": 42, "velocity": 80, "note_on_time": 0.254, "note_off_time": 0.501}, {"pitch": 42, "velocity": 80, "note_on_time": 0.502, "note_off_time": 0.751}, {"pitch": 42, "velocity": 80, "note_on_time": 0.751, "note_off_time": 1.0}, {"pitch": 62, "velocity": 80, "note_on_time": 0.999, "note_off_time": 1.248}, {"pitch": 42, "velocity": 80, "note_on_time": 1.0, "note_off_time": 1.248}, {"pitch": 42, "velocity": 80, "note_on_time": 1.248, "note_off_time": 1.497}, {"pitch": 60, "velocity": 80, "note_on_time": 1.497, "note_off_time": 1.746}, {"pitch": 42, "velocity": 80, "note_on_time": 1.498, "note_off_time": 1.746}, {"pitch": 62, "velocity": 80, "note_on_time": 1.746, "note_off_time": 1.996}, {"pitch": 42, "velocity": 80, "note_on_time": 1.747, "note_off_time": 1.997}, {"pitch": 60, "velocity": 80, "note_on_time": 1.996, "note_off_time": 2.245}, {"pitch": 42, "velocity": 80, "note_on_time": 1.997, "note_off_time": 2.245}, {"pitch": 64, "velocity": 80, "note_on_time": 2.245, "note_off_time": 2.493}, {"pitch": 42, "velocity": 80, "note_on_time": 2.245, "note_off_time": 2.494}, {"pitch": 62, "velocity": 80, "note_on_time": 2.493, "note_off_time": 2.743}, {"pitch": 42, "velocity": 80, "note_on_time": 2.494, "note_off_time": 2.743}, {"pitch": 62, "velocity": 80, "note_on_time": 2.743, "note_off_time": 2.993}, {"pitch": 42, "velocity": 80, "note_on_time": 2.743, "note_off_time": 2.994}, {"pitch": 64, "velocity": 80, "note_on_time": 2.993, "note_off_time": 3.244}, {"pitch": 42, "velocity": 80, "note_on_time": 2.994, "note_off_time": 3.245}, {"pitch": 42, "velocity": 80, "note_on_time": 3.245, "note_off_time": 3.496}, {"pitch": 62, "velocity": 80, "note_on_time": 3.495, "note_off_time": 3.744}, {"pitch": 42, "velocity": 80, "note_on_time": 3.496, "note_off_time": 3.745}, {"pitch": 42, "velocity": 80, "note_on_time": 3.745, "note_off_time": 3.995}, {"pitch": 62, "velocity": 80, "note_on_time": 3.994, "note_off_time": 4.243}, {"pitch": 42, "velocity": 80, "note_on_time": 3.995, "note_off_time": 4.244}, {"pitch": 64, "velocity": 80, "note_on_time": 4.243, "note_off_time": 4.494}, {"pitch": 42, "velocity": 80, "note_on_time": 4.244, "note_off_time": 4.494}, {"pitch": 62, "velocity": 80, "note_on_time": 4.494, "note_off_time": 4.742}, {"pitch": 42, "velocity": 80, "note_on_time": 4.494, "note_off_time": 4.742}, {"pitch": 60, "velocity": 80, "note_on_time": 4.742, "note_off_time": 4.991}, {"pitch": 42, "velocity": 80, "note_on_time": 4.743, "note_off_time": 4.991}, {"pitch": 60, "velocity": 80, "note_on_time": 4.991, "note_off_time": 5.241}, {"pitch": 42, "velocity": 80, "note_on_time": 4.991, "note_off_time": 5.241}, {"pitch": 64, "velocity": 80, "note_on_time": 5.241, "note_off_time": 5.491}, {"pitch": 42, "velocity": 80, "note_on_time": 5.242, "note_off_time": 5.492}, {"pitch": 42, "velocity": 80, "note_on_time": 5.492, "note_off_time": 5.741}, {"pitch": 64, "velocity": 80, "note_on_time": 5.741, "note_off_time": 5.993}, {"pitch": 42, "velocity": 80, "note_on_time": 5.742, "note_off_time": 5.993}, {"pitch": 60, "velocity": 80, "note_on_time": 5.993, "note_off_time": 6.241}, {"pitch": 42, "velocity": 80, "note_on_time": 5.994, "note_off_time": 6.242}, {"pitch": 64, "velocity": 80, "note_on_time": 6.241, "note_off_time": 6.491}, {"pitch": 42, "velocity": 80, "note_on_time": 6.242, "note_off_time": 6.492}, {"pitch": 64, "velocity": 80, "note_on_time": 6.491, "note_off_time": 6.74}, {"pitch": 42, "velocity": 80, "note_on_time": 6.492, "note_off_time": 6.74}, {"pitch": 60, "velocity": 80, "note_on_time": 6.74, "note_off_time": 6.99}, {"pitch": 42, "velocity": 80, "note_on_time": 6.74, "note_off_time": 6.99}, {"pitch": 64, "velocity": 80, "note_on_time": 6.99, "note_off_time": 7.238}, {"pitch": 42, "velocity": 80, "note_on_time": 6.99, "note_off_time": 7.239}, {"pitch": 62, "velocity": 80, "note_on_time": 7.238, "note_off_time": 7.487}, {"pitch": 42, "velocity": 80, "note_on_time": 7.239, "note_off_time": 7.487}, {"pitch": 60, "velocity": 80, "note_on_time": 7.487, "note_off_time": 7.736}, {"pitch": 42, "velocity": 80, "note_on_time": 7.488, "note_off_time": 7.736}, {"pitch": 42, "velocity": 80, "note_on_time": 7.736, "note_off_time": 7.985}, {"pitch": 42, "velocity": 80, "note_on_time": 7.985, "note_off_time": 8.235}, {"pitch": 60, "velocity": 80, "note_on_time": 8.235, "note_off_time": 8.489}, {"pitch": 42, "velocity": 80, "note_on_time": 8.235, "note_off_time": 8.489}, {"pitch": 60, "velocity": 80, "note_on_time": 8.489, "note_off_time": 8.737}, {"pitch": 42, "velocity": 80, "note_on_time": 8.49, "note_off_time": 8.738}, {"pitch": 60, "velocity": 80, "note_on_time": 8.737, "note_off_time": 8.988}, {"pitch": 42, "velocity": 80, "note_on_time": 8.738, "note_off_time": 8.988}]</notes><options name="Option List">((4, 4), [0.25], 3, 8, &lt;NoteRangePerHand.THREE_NOTES: 4&gt;, &lt;NoteRangePerHand.ONE_NOTE: 2&gt;, False, True, True, 248)</options></target_notes><trials><trial trial_no="1" timestamp="2022_10_02-13_52_13"><notes name="Played Notes">[{"pitch": 62, "velocity": 65, "note_on_time": 0.983, "note_off_time": 1.23}, {"pitch": 60, "velocity": 52, "note_on_time": 1.506, "note_off_time": 1.719}, {"pitch": 62, "velocity": 54, "note_on_time": 1.783, "note_off_time": 2.033}, {"pitch": 60, "velocity": 54, "note_on_time": 2.065, "note_off_time": 2.29}, {"pitch": 64, "velocity": 56, "note_on_time": 2.323, "note_off_time": 2.588}, {"pitch": 62, "velocity": 54, "note_on_time": 2.569, "note_off_time": 2.666}, {"pitch": 62, "velocity": 54, "note_on_time": 2.831, "note_off_time": 3.048}, {"pitch": 64, "velocity": 61, "note_on_time": 3.093, "note_off_time": 3.294}, {"pitch": 62, "velocity": 56, "note_on_time": 4.131, "note_off_time": 4.264}, {"pitch": 62, "velocity": 54, "note_on_time": 4.388, "note_off_time": 4.609}, {"pitch": 64, "velocity": 55, "note_on_time": 4.66, "note_off_time": 4.905}, {"pitch": 62, "velocity": 52, "note_on_time": 4.909, "note_off_time": 5.209}, {"pitch": 60, "velocity": 50, "note_on_time": 5.221, "note_off_time": 5.325}, {"pitch": 60, "velocity": 42, "note_on_time": 5.471, "note_off_time": 5.678}, {"pitch": 64, "velocity": 43, "note_on_time": 5.764, "note_off_time": 5.981}, {"pitch": 64, "velocity": 51, "note_on_time": 6.225, "note_off_time": 6.5}, {"pitch": 60, "velocity": 45, "note_on_time": 6.561, "note_off_time": 6.693}, {"pitch": 64, "velocity": 41, "note_on_time": 6.813, "note_off_time": 6.933}, {"pitch": 64, "velocity": 45, "note_on_time": 7.062, "note_off_time": 7.278}, {"pitch": 60, "velocity": 36, "note_on_time": 7.334, "note_off_time": 7.501}, {"pitch": 64, "velocity": 46, "note_on_time": 7.584, "note_off_time": 7.871}, {"pitch": 62, "velocity": 46, "note_on_time": 7.881, "note_off_time": 8.112}, {"pitch": 60, "velocity": 50, "note_on_time": 8.16, "note_off_time": 8.355}]</notes><guidance name="Guidance Mode">None</guidance><error name="Error value">0.6015963043478262</error></trial><trial trial_no="2" timestamp="2022_10_02-13_52_41"><notes name="Played Notes">[{"pitch": 62, "velocity": 65, "note_on_time": 0.994, "note_off_time": 1.207}, {"pitch": 60, "velocity": 63, "note_on_time": 1.488, "note_off_time": 1.694}, {"pitch": 62, "velocity": 58, "note_on_time": 1.772, "note_off_time": 1.997}, {"pitch": 60, "velocity": 49, "note_on_time": 2.03, "note_off_time": 2.221}, {"pitch": 64, "velocity": 51, "note_on_time": 2.286, "note_off_time": 2.491}, {"pitch": 62, "velocity": 58, "note_on_time": 2.54, "note_off_time": 2.647}, {"pitch": 62, "velocity": 52, "note_on_time": 2.781, "note_off_time": 3.001}, {"pitch": 64, "velocity": 60, "note_on_time": 3.511, "note_off_time": 3.733}, {"pitch": 62, "velocity": 61, "note_on_time": 3.982, "note_off_time": 4.216}, {"pitch": 64, "velocity": 58, "note_on_time": 4.521, "note_off_time": 4.775}, {"pitch": 62, "velocity": 58, "note_on_time": 4.788, "note_off_time": 4.949}, {"pitch": 60, "velocity": 60, "note_on_time": 5.057, "note_off_time": 5.187}, {"pitch": 60, "velocity": 59, "note_on_time": 5.313, "note_off_time": 5.489}, {"pitch": 64, "velocity": 52, "note_on_time": 6.279, "note_off_time": 6.505}, {"pitch": 60, "velocity": 45, "note_on_time": 7.37, "note_off_time": 7.611}, {"pitch": 64, "velocity": 49, "note_on_time": 7.629, "note_off_time": 7.778}, {"pitch": 64, "velocity": 49, "note_on_time": 7.915, "note_off_time": 8.324}, {"pitch": 62, "velocity": 46, "note_on_time": 8.288, "note_off_time": 8.71}]</notes><guidance name="Guidance Mode">None</guidance><error name="Error value">0.8187713043478261</error></trial><trial trial_no="3" timestamp="2022_10_02-13_53_04"><notes name="Played Notes">[{"pitch": 62, "velocity": 56, "note_on_time": 0.987, "note_off_time": 1.216}, {"pitch": 60, "velocity": 59, "note_on_time": 1.487, "note_off_time": 1.745}, {"pitch": 62, "velocity": 52, "note_on_time": 1.79, "note_off_time": 2.026}, {"pitch": 60, "velocity": 53, "note_on_time": 2.031, "note_off_time": 2.292}, {"pitch": 64, "velocity": 57, "note_on_time": 2.294, "note_off_time": 2.538}, {"pitch": 62, "velocity": 61, "note_on_time": 2.548, "note_off_time": 2.687}, {"pitch": 62, "velocity": 59, "note_on_time": 2.805, "note_off_time": 3.044}, {"pitch": 64, "velocity": 62, "note_on_time": 3.05, "note_off_time": 3.261}, {"pitch": 62, "velocity": 69, "note_on_time": 3.557, "note_off_time": 3.692}, {"pitch": 62, "velocity": 60, "note_on_time": 3.809, "note_off_time": 4.011}, {"pitch": 64, "velocity": 57, "note_on_time": 4.043, "note_off_time": 4.319}, {"pitch": 62, "velocity": 59, "note_on_time": 4.295, "note_off_time": 4.585}, {"pitch": 60, "velocity": 68, "note_on_time": 4.57, "note_off_time": 4.737}, {"pitch": 60, "velocity": 60, "note_on_time": 4.841, "note_off_time": 5.085}, {"pitch": 64, "velocity": 17, "note_on_time": 5.126, "note_off_time": 5.431}, {"pitch": 64, "velocity": 57, "note_on_time": 5.58, "note_off_time": 5.975}, {"pitch": 60, "velocity": 48, "note_on_time": 6.09, "note_off_time": 6.343}, {"pitch": 64, "velocity": 47, "note_on_time": 6.335, "note_off_time": 6.507}, {"pitch": 64, "velocity": 56, "note_on_time": 6.62, "note_off_time": 6.836}, {"pitch": 60, "velocity": 37, "note_on_time": 6.931, "note_off_time": 7.125}, {"pitch": 64, "velocity": 56, "note_on_time": 7.163, "note_off_time": 7.468}, {"pitch": 62, "velocity": 50, "note_on_time": 7.463, "note_off_time": 7.78}, {"pitch": 60, "velocity": 64, "note_on_time": 7.743, "note_off_time": 8.125}, {"pitch": 60, "velocity": 69, "note_on_time": 8.253, "note_off_time": 8.435}, {"pitch": 60, "velocity": 43, "note_on_time": 8.514, "note_off_time": 8.692}]</notes><guidance name="Guidance Mode">None</guidance><error name="Error value">0.10885152173913047</error></trial><trial trial_no="4" timestamp="2022_10_02-13_53_33"><notes name="Played Notes">[{"pitch": 62, "velocity": 66, "note_on_time": 1.044, "note_off_time": 1.265}, {"pitch": 60, "velocity": 61, "note_on_time": 1.584, "note_off_time": 1.85}, {"pitch": 62, "velocity": 55, "note_on_time": 1.861, "note_off_time": 2.117}, {"pitch": 60, "velocity": 61, "note_on_time": 2.112, "note_off_time": 2.368}, {"pitch": 64, "velocity": 55, "note_on_time": 2.368, "note_off_time": 2.652}, {"pitch": 62, "velocity": 50, "note_on_time": 2.638, "note_off_time": 2.801}, {"pitch": 62, "velocity": 50, "note_on_time": 2.926, "note_off_time": 3.169}, {"pitch": 64, "velocity": 61, "note_on_time": 3.18, "note_off_time": 3.429}, {"pitch": 62, "velocity": 51, "note_on_time": 3.431, "note_off_time": 3.654}, {"pitch": 62, "velocity": 52, "note_on_time": 4.266, "note_off_time": 4.527}, {"pitch": 64, "velocity": 61, "note_on_time": 4.526, "note_off_time": 4.792}, {"pitch": 62, "velocity": 54, "note_on_time": 4.784, "note_off_time": 5.076}, {"pitch": 60, "velocity": 64, "note_on_time": 5.045, "note_off_time": 5.277}, {"pitch": 62, "velocity": 59, "note_on_time": 5.293, "note_off_time": 5.616}, {"pitch": 64, "velocity": 62, "note_on_time": 5.583, "note_off_time": 5.769}, {"pitch": 64, "velocity": 61, "note_on_time": 6.14, "note_off_time": 6.419}, {"pitch": 60, "velocity": 57, "note_on_time": 6.403, "note_off_time": 6.611}, {"pitch": 64, "velocity": 48, "note_on_time": 6.652, "note_off_time": 6.813}, {"pitch": 64, "velocity": 46, "note_on_time": 6.946, "note_off_time": 7.239}, {"pitch": 60, "velocity": 54, "note_on_time": 7.261, "note_off_time": 7.526}, {"pitch": 64, "velocity": 57, "note_on_time": 7.533, "note_off_time": 7.872}, {"pitch": 62, "velocity": 48, "note_on_time": 7.846, "note_off_time": 8.105}, {"pitch": 60, "velocity": 59, "note_on_time": 8.094, "note_off_time": 8.455}]</notes><guidance name="Guidance Mode">None</guidance><error name="Error value">0.43013500000000016</error></trial><trial trial_no="5" timestamp="2022_10_02-13_54_26"><notes name="Played Notes">[{"pitch": 64, "velocity": 54, "note_on_time": 1.037, "note_off_time": 1.16}, {"pitch": 64, "velocity": 52, "note_on_time": 1.3, "note_off_time": 1.537}, {"pitch": 60, "velocity": 52, "note_on_time": 1.574, "note_off_time": 1.762}, {"pitch": 62, "velocity": 51, "note_on_time": 2.052, "note_off_time": 2.325}, {"pitch": 64, "velocity": 54, "note_on_time": 2.325, "note_off_time": 2.573}, {"pitch": 62, "velocity": 41, "note_on_time": 2.595, "note_off_time": 2.854}, {"pitch": 60, "velocity": 66, "note_on_time": 2.843, "note_off_time": 3.044}, {"pitch": 64, "velocity": 53, "note_on_time": 3.103, "note_off_time": 3.228}, {"pitch": 64, "velocity": 45, "note_on_time": 3.351, "note_off_time": 3.634}, {"pitch": 62, "velocity": 49, "note_on_time": 3.63, "note_off_time": 3.873}, {"pitch": 60, "velocity": 43, "note_on_time": 3.878, "note_off_time": 4.127}, {"pitch": 64, "velocity": 51, "note_on_time": 4.13, "note_off_time": 4.369}, {"pitch": 60, "velocity": 59, "note_on_time": 4.378, "note_off_time": 4.636}, {"pitch": 62, "velocity": 47, "note_on_time": 4.641, "note_off_time": 4.905}, {"pitch": 60, "velocity": 63, "note_on_time": 4.899, "note_off_time": 5.034}, {"pitch": 60, "velocity": 52, "note_on_time": 5.169, "note_off_time": 5.442}, {"pitch": 60, "velocity": 57, "note_on_time": 5.736, "note_off_time": 6.011}, {"pitch": 64, "velocity": 53, "note_on_time": 5.999, "note_off_time": 6.3}, {"pitch": 62, "velocity": 46, "note_on_time": 6.288, "note_off_time": 6.411}, {"pitch": 62, "velocity": 44, "note_on_time": 6.546, "note_off_time": 6.805}, {"pitch": 64, "velocity": 53, "note_on_time": 6.79, "note_off_time": 7.084}, {"pitch": 62, "velocity": 48, "note_on_time": 7.067, "note_off_time": 7.311}, {"pitch": 60, "velocity": 47, "note_on_time": 7.32, "note_off_time": 7.547}, {"pitch": 62, "velocity": 60, "note_on_time": 7.559, "note_off_time": 7.766}, {"pitch": 62, "velocity": 57, "note_on_time": 8.274, "note_off_time": 8.432}, {"pitch": 62, "velocity": 58, "note_on_time": 8.526, "note_off_time": 8.692}, {"pitch": 62, "velocity": 65, "note_on_time": 8.784, "note_off_time": 9.016}]</notes><guidance name="Guidance Mode">None</guidance><error name="Error value">1.223341086956522</error></trial><trial trial_no="6" timestamp="2022_10_02-13_54_49"><notes name="Played Notes">[{"pitch": 64, "velocity": 58, "note_on_time": 1.059, "note_off_time": 1.194}, {"pitch": 64, "velocity": 54, "note_on_time": 1.313, "note_off_time": 1.574}, {"pitch": 60, "velocity": 65, "note_on_time": 1.591, "note_off_time": 1.777}, {"pitch": 62, "velocity": 65, "note_on_time": 2.037, "note_off_time": 2.359}, {"pitch": 60, "velocity": 66, "note_on_time": 2.309, "note_off_time": 2.504}, {"pitch": 62, "velocity": 49, "note_on_time": 2.562, "note_off_time": 2.884}, {"pitch": 60, "velocity": 71, "note_on_time": 2.824, "note_off_time": 3.013}, {"pitch": 62, "velocity": 45, "note_on_time": 3.095, "note_off_time": 3.182}, {"pitch": 64, "velocity": 49, "note_on_time": 3.377, "note_off_time": 3.498}, {"pitch": 64, "velocity": 47, "note_on_time": 3.625, "note_off_time": 3.877}, {"pitch": 62, "velocity": 45, "note_on_time": 3.886, "note_off_time": 4.124}, {"pitch": 60, "velocity": 49, "note_on_time": 4.133, "note_off_time": 4.399}, {"pitch": 64, "velocity": 51, "note_on_time": 4.404, "note_off_time": 4.662}, {"pitch": 60, "velocity": 46, "note_on_time": 4.666, "note_off_time": 4.929}, {"pitch": 62, "velocity": 42, "note_on_time": 4.942, "note_off_time": 5.224}, {"pitch": 60, "velocity": 65, "note_on_time": 5.214, "note_off_time": 5.423}, {"pitch": 60, "velocity": 27, "note_on_time": 5.483, "note_off_time": 5.716}, {"pitch": 60, "velocity": 58, "note_on_time": 6.241, "note_off_time": 6.55}, {"pitch": 64, "velocity": 56, "note_on_time": 6.502, "note_off_time": 6.718}, {"pitch": 62, "velocity": 45, "note_on_time": 6.763, "note_off_time": 6.885}, {"pitch": 62, "velocity": 49, "note_on_time": 7.018, "note_off_time": 7.145}, {"pitch": 62, "velocity": 51, "note_on_time": 7.265, "note_off_time": 7.519}, {"pitch": 64, "velocity": 59, "note_on_time": 7.528, "note_off_time": 7.767}, {"pitch": 62, "velocity": 48, "note_on_time": 7.785, "note_off_time": 8.06}, {"pitch": 60, "velocity": 60, "note_on_time": 8.037, "note_off_time": 8.199}, {"pitch": 62, "velocity": 63, "note_on_time": 8.745, "note_off_time": 8.893}, {"pitch": 62, "velocity": 57, "note_on_time": 8.999, "note_off_time": 9.165}, {"pitch": 62, "velocity": 67, "note_on_time": 9.277, "note_off_time": 9.507}]</notes><guidance name="Guidance Mode">None</guidance><error name="Error value">1.1431293478260869</error></trial><trial trial_no="7" timestamp="2022_10_02-13_55_18"><notes name="Played Notes">[{"pitch": 64, "velocity": 57, "note_on_time": 1.195, "note_off_time": 1.373}, {"pitch": 64, "velocity": 55, "note_on_time": 1.497, "note_off_time": 1.763}, {"pitch": 60, "velocity": 61, "note_on_time": 1.806, "note_off_time": 2.036}, {"pitch": 62, "velocity": 64, "note_on_time": 2.524, "note_off_time": 2.822}, {"pitch": 64, "velocity": 62, "note_on_time": 2.794, "note_off_time": 3.058}, {"pitch": 62, "velocity": 58, "note_on_time": 3.039, "note_off_time": 3.326}, {"pitch": 60, "velocity": 64, "note_on_time": 3.304, "note_off_time": 3.501}, {"pitch": 64, "velocity": 58, "note_on_time": 3.556, "note_off_time": 3.69}, {"pitch": 64, "velocity": 58, "note_on_time": 3.805, "note_off_time": 4.07}, {"pitch": 62, "velocity": 60, "note_on_time": 4.058, "note_off_time": 4.324}, {"pitch": 60, "velocity": 59, "note_on_time": 4.305, "note_off_time": 4.497}, {"pitch": 64, "velocity": 58, "note_on_time": 4.565, "note_off_time": 4.88}, {"pitch": 60, "velocity": 68, "note_on_time": 4.85, "note_off_time": 5.113}, {"pitch": 62, "velocity": 51, "note_on_time": 5.117, "note_off_time": 5.386}, {"pitch": 60, "velocity": 67, "note_on_time": 5.363, "note_off_time": 6.043}, {"pitch": 60, "velocity": 62, "note_on_time": 6.504, "note_off_time": 6.812}, {"pitch": 64, "velocity": 56, "note_on_time": 6.763, "note_off_time": 7.346}, {"pitch": 62, "velocity": 50, "note_on_time": 7.323, "note_off_time": 7.666}, {"pitch": 62, "velocity": 53, "note_on_time": 8.465, "note_off_time": 8.615}, {"pitch": 62, "velocity": 50, "note_on_time": 8.723, "note_off_time": 8.887}, {"pitch": 62, "velocity": 60, "note_on_time": 9.001, "note_off_time": 9.295}]</notes><guidance name="Guidance Mode">None</guidance><error name="Error value">1.2224782608695652</error></trial><trial trial_no="8" timestamp="2022_10_02-13_55_50"><notes name="Played Notes">[{"pitch": 64, "velocity": 56, "note_on_time": 0.991, "note_off_time": 1.126}, {"pitch": 64, "velocity": 48, "note_on_time": 1.25, "note_off_time": 1.516}, {"pitch": 60, "velocity": 62, "note_on_time": 1.53, "note_off_time": 1.749}, {"pitch": 62, "velocity": 65, "note_on_time": 2.022, "note_off_time": 2.304}, {"pitch": 60, "velocity": 60, "note_on_time": 2.259, "note_off_time": 2.496}, {"pitch": 64, "velocity": 52, "note_on_time": 2.526, "note_off_time": 2.811}, {"pitch": 62, "velocity": 52, "note_on_time": 2.798, "note_off_time": 2.975}, {"pitch": 60, "velocity": 52, "note_on_time": 3.041, "note_off_time": 3.177}, {"pitch": 60, "velocity": 36, "note_on_time": 3.278, "note_off_time": 3.534}, {"pitch": 64, "velocity": 55, "note_on_time": 3.543, "note_off_time": 3.695}, {"pitch": 62, "velocity": 47, "note_on_time": 3.828, "note_off_time": 4.117}, {"pitch": 60, "velocity": 55, "note_on_time": 4.091, "note_off_time": 4.242}, {"pitch": 64, "velocity": 52, "note_on_time": 4.571, "note_off_time": 4.793}, {"pitch": 60, "velocity": 43, "note_on_time": 4.817, "note_off_time": 5.044}, {"pitch": 62, "velocity": 40, "note_on_time": 5.069, "note_off_time": 5.307}, {"pitch": 60, "velocity": 63, "note_on_time": 5.318, "note_off_time": 5.468}, {"pitch": 60, "velocity": 67, "note_on_time": 5.58, "note_off_time": 5.837}, {"pitch": 60, "velocity": 60, "note_on_time": 6.479, "note_off_time": 6.723}, {"pitch": 62, "velocity": 51, "note_on_time": 6.721, "note_off_time": 6.924}, {"pitch": 62, "velocity": 20, "note_on_time": 7.057, "note_off_time": 7.77}, {"pitch": 62, "velocity": 61, "note_on_time": 8.337, "note_off_time": 8.485}, {"pitch": 62, "velocity": 48, "note_on_time": 8.587, "note_off_time": 8.752}, {"pitch": 62, "velocity": 59, "note_on_time": 8.857, "note_off_time": 9.204}]</notes><guidance name="Guidance Mode">None</guidance><error name="Error value">0.9935471739130435</error></trial></trials></MIDI>