<MIDI midiNo="2022_11_03-13_28_23"><target_notes><notes name="Note List">[{"pitch": 42, "velocity": 80, "note_on_time": 0.004, "note_off_time": 0.255}, {"pitch": 42, "velocity": 80, "note_on_time": 0.256, "note_off_time": 0.505}, {"pitch": 42, "velocity": 80, "note_on_time": 0.505, "note_off_time": 0.752}, {"pitch": 42, "velocity": 80, "note_on_time": 0.752, "note_off_time": 1.004}, {"pitch": 42, "velocity": 80, "note_on_time": 1.004, "note_off_time": 1.253}, {"pitch": 60, "velocity": 80, "note_on_time": 1.004, "note_off_time": 1.504}, {"pitch": 42, "velocity": 80, "note_on_time": 1.254, "note_off_time": 1.505}, {"pitch": 42, "velocity": 80, "note_on_time": 1.505, "note_off_time": 1.753}, {"pitch": 42, "velocity": 80, "note_on_time": 1.753, "note_off_time": 2.003}, {"pitch": 62, "velocity": 80, "note_on_time": 2.003, "note_off_time": 2.251}, {"pitch": 42, "velocity": 80, "note_on_time": 2.004, "note_off_time": 2.251}, {"pitch": 60, "velocity": 80, "note_on_time": 2.251, "note_off_time": 2.5}, {"pitch": 42, "velocity": 80, "note_on_time": 2.251, "note_off_time": 2.501}, {"pitch": 60, "velocity": 80, "note_on_time": 2.5, "note_off_time": 2.749}, {"pitch": 42, "velocity": 80, "note_on_time": 2.501, "note_off_time": 2.749}, {"pitch": 64, "velocity": 80, "note_on_time": 2.749, "note_off_time": 2.998}, {"pitch": 42, "velocity": 80, "note_on_time": 2.75, "note_off_time": 2.998}, {"pitch": 42, "velocity": 80, "note_on_time": 2.998, "note_off_time": 3.248}, {"pitch": 62, "velocity": 80, "note_on_time": 2.998, "note_off_time": 3.496}, {"pitch": 42, "velocity": 80, "note_on_time": 3.249, "note_off_time": 3.497}, {"pitch": 42, "velocity": 80, "note_on_time": 3.497, "note_off_time": 3.746}, {"pitch": 42, "velocity": 80, "note_on_time": 3.746, "note_off_time": 3.995}, {"pitch": 64, "velocity": 80, "note_on_time": 3.995, "note_off_time": 4.245}, {"pitch": 42, "velocity": 80, "note_on_time": 3.995, "note_off_time": 4.246}, {"pitch": 64, "velocity": 80, "note_on_time": 4.245, "note_off_time": 4.493}, {"pitch": 42, "velocity": 80, "note_on_time": 4.246, "note_off_time": 4.493}, {"pitch": 62, "velocity": 80, "note_on_time": 4.493, "note_off_time": 4.743}, {"pitch": 42, "velocity": 80, "note_on_time": 4.493, "note_off_time": 4.743}, {"pitch": 60, "velocity": 80, "note_on_time": 4.743, "note_off_time": 4.989}, {"pitch": 42, "velocity": 80, "note_on_time": 4.743, "note_off_time": 4.99}, {"pitch": 62, "velocity": 80, "note_on_time": 4.989, "note_off_time": 5.237}, {"pitch": 42, "velocity": 80, "note_on_time": 4.99, "note_off_time": 5.237}, {"pitch": 64, "velocity": 80, "note_on_time": 5.237, "note_off_time": 5.488}, {"pitch": 42, "velocity": 80, "note_on_time": 5.238, "note_off_time": 5.489}, {"pitch": 62, "velocity": 80, "note_on_time": 5.488, "note_off_time": 5.737}, {"pitch": 42, "velocity": 80, "note_on_time": 5.489, "note_off_time": 5.737}, {"pitch": 60, "velocity": 80, "note_on_time": 5.737, "note_off_time": 5.985}, {"pitch": 42, "velocity": 80, "note_on_time": 5.738, "note_off_time": 5.985}, {"pitch": 62, "velocity": 80, "note_on_time": 5.985, "note_off_time": 6.235}, {"pitch": 42, "velocity": 80, "note_on_time": 5.985, "note_off_time": 6.235}, {"pitch": 60, "velocity": 80, "note_on_time": 6.235, "note_off_time": 6.484}, {"pitch": 42, "velocity": 80, "note_on_time": 6.235, "note_off_time": 6.484}, {"pitch": 60, "velocity": 80, "note_on_time": 6.484, "note_off_time": 6.732}, {"pitch": 42, "velocity": 80, "note_on_time": 6.485, "note_off_time": 6.733}, {"pitch": 60, "velocity": 80, "note_on_time": 6.732, "note_off_time": 6.982}, {"pitch": 42, "velocity": 80, "note_on_time": 6.733, "note_off_time": 6.982}, {"pitch": 42, "velocity": 80, "note_on_time": 6.983, "note_off_time": 7.23}, {"pitch": 60, "velocity": 80, "note_on_time": 6.982, "note_off_time": 7.478}, {"pitch": 42, "velocity": 80, "note_on_time": 7.23, "note_off_time": 7.478}, {"pitch": 42, "velocity": 80, "note_on_time": 7.479, "note_off_time": 7.728}, {"pitch": 42, "velocity": 80, "note_on_time": 7.728, "note_off_time": 7.977}, {"pitch": 42, "velocity": 80, "note_on_time": 7.977, "note_off_time": 8.226}, {"pitch": 60, "velocity": 80, "note_on_time": 8.226, "note_off_time": 8.476}, {"pitch": 42, "velocity": 80, "note_on_time": 8.226, "note_off_time": 8.476}, {"pitch": 60, "velocity": 80, "note_on_time": 8.476, "note_off_time": 8.724}, {"pitch": 42, "velocity": 80, "note_on_time": 8.476, "note_off_time": 8.724}, {"pitch": 60, "velocity": 80, "note_on_time": 8.724, "note_off_time": 8.971}, {"pitch": 42, "velocity": 80, "note_on_time": 8.724, "note_off_time": 8.972}]</notes><options name="Option List">((4, 4), [0.5, 0.25], 3, 8, &lt;NoteRangePerHand.THREE_NOTES: 4&gt;, &lt;NoteRangePerHand.ONE_NOTE: 2&gt;, False, True, False, '248')</options></target_notes><trials><trial trial_no="1" timestamp="2022_11_03-13_28_12"><notes name="Played Notes">[{"pitch": 60, "velocity": 72, "note_on_time": 1.035, "note_off_time": 1.534}, {"pitch": 62, "velocity": 70, "note_on_time": 2.111, "note_off_time": 2.307}, {"pitch": 60, "velocity": 74, "note_on_time": 2.352, "note_off_time": 2.497}, {"pitch": 60, "velocity": 60, "note_on_time": 2.594, "note_off_time": 2.737}, {"pitch": 64, "velocity": 47, "note_on_time": 2.825, "note_off_time": 3.079}, {"pitch": 62, "velocity": 64, "note_on_time": 3.083, "note_off_time": 3.827}, {"pitch": 62, "velocity": 55, "note_on_time": 4.144, "note_off_time": 4.331}, {"pitch": 62, "velocity": 45, "note_on_time": 4.383, "note_off_time": 4.558}, {"pitch": 64, "velocity": 22, "note_on_time": 4.653, "note_off_time": 4.841}, {"pitch": 62, "velocity": 55, "note_on_time": 4.834, "note_off_time": 5.083}, {"pitch": 60, "velocity": 40, "note_on_time": 5.082, "note_off_time": 5.218}, {"pitch": 64, "velocity": 30, "note_on_time": 5.34, "note_off_time": 5.73}, {"pitch": 62, "velocity": 42, "note_on_time": 5.843, "note_off_time": 6.094}, {"pitch": 60, "velocity": 75, "note_on_time": 6.776, "note_off_time": 6.912}, {"pitch": 64, "velocity": 44, "note_on_time": 7.054, "note_off_time": 7.126}, {"pitch": 62, "velocity": 1, "note_on_time": 7.043, "note_off_time": 7.435}, {"pitch": 64, "velocity": 46, "note_on_time": 7.569, "note_off_time": 7.654}, {"pitch": 60, "velocity": 46, "note_on_time": 8.714, "note_off_time": 8.851}]</notes><guidance name="Guidance Mode">None</guidance><error name="Error value">0.7057963157894738</error></trial><trial trial_no="2" timestamp="2022_11_03-13_28_33"><notes name="Played Notes">[{"pitch": 60, "velocity": 80, "note_on_time": 1.023, "note_off_time": 1.705}, {"pitch": 64, "velocity": 52, "note_on_time": 2.134, "note_off_time": 2.314}, {"pitch": 62, "velocity": 37, "note_on_time": 2.355, "note_off_time": 2.512}, {"pitch": 62, "velocity": 63, "note_on_time": 2.612, "note_off_time": 2.742}, {"pitch": 64, "velocity": 38, "note_on_time": 2.879, "note_off_time": 3.123}, {"pitch": 62, "velocity": 64, "note_on_time": 3.142, "note_off_time": 3.828}, {"pitch": 64, "velocity": 52, "note_on_time": 4.154, "note_off_time": 4.31}, {"pitch": 64, "velocity": 55, "note_on_time": 4.413, "note_off_time": 4.575}, {"pitch": 62, "velocity": 1, "note_on_time": 4.755, "note_off_time": 4.915}, {"pitch": 60, "velocity": 25, "note_on_time": 5.05, "note_off_time": 5.147}, {"pitch": 60, "velocity": 47, "note_on_time": 5.291, "note_off_time": 5.366}, {"pitch": 62, "velocity": 59, "note_on_time": 5.381, "note_off_time": 5.578}, {"pitch": 64, "velocity": 65, "note_on_time": 5.644, "note_off_time": 5.792}, {"pitch": 62, "velocity": 47, "note_on_time": 5.871, "note_off_time": 6.043}, {"pitch": 60, "velocity": 45, "note_on_time": 6.152, "note_off_time": 6.263}, {"pitch": 64, "velocity": 62, "note_on_time": 6.495, "note_off_time": 6.717}, {"pitch": 62, "velocity": 74, "note_on_time": 6.718, "note_off_time": 6.885}, {"pitch": 62, "velocity": 58, "note_on_time": 7.005, "note_off_time": 7.428}, {"pitch": 60, "velocity": 20, "note_on_time": 7.519, "note_off_time": 7.632}, {"pitch": 60, "velocity": 51, "note_on_time": 8.608, "note_off_time": 8.707}, {"pitch": 60, "velocity": 41, "note_on_time": 8.806, "note_off_time": 8.971}]</notes><guidance name="Guidance Mode">None</guidance><error name="Error value">0.7137573684210525</error></trial><trial trial_no="3" timestamp="2022_11_03-13_28_52"><notes name="Played Notes">[{"pitch": 60, "velocity": 84, "note_on_time": 1.016, "note_off_time": 1.544}, {"pitch": 62, "velocity": 64, "note_on_time": 2.111, "note_off_time": 2.323}, {"pitch": 60, "velocity": 70, "note_on_time": 2.373, "note_off_time": 2.503}, {"pitch": 60, "velocity": 55, "note_on_time": 2.615, "note_off_time": 2.776}, {"pitch": 64, "velocity": 73, "note_on_time": 2.889, "note_off_time": 3.081}, {"pitch": 62, "velocity": 68, "note_on_time": 3.111, "note_off_time": 3.671}, {"pitch": 64, "velocity": 49, "note_on_time": 4.135, "note_off_time": 4.319}, {"pitch": 62, "velocity": 59, "note_on_time": 4.418, "note_off_time": 4.615}, {"pitch": 60, "velocity": 60, "note_on_time": 4.679, "note_off_time": 4.81}, {"pitch": 62, "velocity": 47, "note_on_time": 4.941, "note_off_time": 5.116}, {"pitch": 64, "velocity": 54, "note_on_time": 5.219, "note_off_time": 5.395}, {"pitch": 62, "velocity": 43, "note_on_time": 5.463, "note_off_time": 5.636}, {"pitch": 60, "velocity": 63, "note_on_time": 5.752, "note_off_time": 5.928}, {"pitch": 62, "velocity": 55, "note_on_time": 6.012, "note_off_time": 6.181}, {"pitch": 64, "velocity": 40, "note_on_time": 6.303, "note_off_time": 6.35}, {"pitch": 62, "velocity": 74, "note_on_time": 6.347, "note_off_time": 6.535}, {"pitch": 60, "velocity": 68, "note_on_time": 6.51, "note_off_time": 7.712}, {"pitch": 60, "velocity": 56, "note_on_time": 7.828, "note_off_time": 7.957}, {"pitch": 60, "velocity": 22, "note_on_time": 8.044, "note_off_time": 8.187}, {"pitch": 60, "velocity": 44, "note_on_time": 8.3, "note_off_time": 8.572}]</notes><guidance name="Guidance Mode">None</guidance><error name="Error value">0.2889357894736842</error></trial></trials></MIDI>