<MIDI midiNo="2022_10_02-13_26_26"><target_notes><notes name="Note List">[{"pitch": 42, "velocity": 80, "note_on_time": 0.003, "note_off_time": 0.256}, {"pitch": 42, "velocity": 80, "note_on_time": 0.257, "note_off_time": 0.507}, {"pitch": 42, "velocity": 80, "note_on_time": 0.507, "note_off_time": 0.755}, {"pitch": 42, "velocity": 80, "note_on_time": 0.755, "note_off_time": 1.005}, {"pitch": 64, "velocity": 80, "note_on_time": 1.005, "note_off_time": 1.253}, {"pitch": 42, "velocity": 80, "note_on_time": 1.005, "note_off_time": 1.253}, {"pitch": 64, "velocity": 80, "note_on_time": 1.253, "note_off_time": 1.502}, {"pitch": 42, "velocity": 80, "note_on_time": 1.253, "note_off_time": 1.503}, {"pitch": 60, "velocity": 80, "note_on_time": 1.502, "note_off_time": 1.752}, {"pitch": 42, "velocity": 80, "note_on_time": 1.503, "note_off_time": 1.752}, {"pitch": 42, "velocity": 80, "note_on_time": 1.752, "note_off_time": 2.001}, {"pitch": 62, "velocity": 80, "note_on_time": 2.001, "note_off_time": 2.25}, {"pitch": 42, "velocity": 80, "note_on_time": 2.001, "note_off_time": 2.25}, {"pitch": 64, "velocity": 80, "note_on_time": 2.25, "note_off_time": 2.499}, {"pitch": 42, "velocity": 80, "note_on_time": 2.25, "note_off_time": 2.499}, {"pitch": 62, "velocity": 80, "note_on_time": 2.499, "note_off_time": 2.749}, {"pitch": 42, "velocity": 80, "note_on_time": 2.499, "note_off_time": 2.749}, {"pitch": 60, "velocity": 80, "note_on_time": 2.749, "note_off_time": 2.997}, {"pitch": 42, "velocity": 80, "note_on_time": 2.749, "note_off_time": 2.998}, {"pitch": 64, "velocity": 80, "note_on_time": 2.997, "note_off_time": 3.247}, {"pitch": 42, "velocity": 80, "note_on_time": 2.998, "note_off_time": 3.247}, {"pitch": 64, "velocity": 80, "note_on_time": 3.247, "note_off_time": 3.495}, {"pitch": 42, "velocity": 80, "note_on_time": 3.247, "note_off_time": 3.495}, {"pitch": 62, "velocity": 80, "note_on_time": 3.495, "note_off_time": 3.744}, {"pitch": 42, "velocity": 80, "note_on_time": 3.496, "note_off_time": 3.745}, {"pitch": 60, "velocity": 80, "note_on_time": 3.744, "note_off_time": 3.993}, {"pitch": 42, "velocity": 80, "note_on_time": 3.745, "note_off_time": 3.994}, {"pitch": 64, "velocity": 80, "note_on_time": 3.993, "note_off_time": 4.243}, {"pitch": 42, "velocity": 80, "note_on_time": 3.994, "note_off_time": 4.243}, {"pitch": 60, "velocity": 80, "note_on_time": 4.243, "note_off_time": 4.491}, {"pitch": 42, "velocity": 80, "note_on_time": 4.244, "note_off_time": 4.491}, {"pitch": 62, "velocity": 80, "note_on_time": 4.491, "note_off_time": 4.741}, {"pitch": 42, "velocity": 80, "note_on_time": 4.491, "note_off_time": 4.741}, {"pitch": 60, "velocity": 80, "note_on_time": 4.741, "note_off_time": 4.992}, {"pitch": 42, "velocity": 80, "note_on_time": 4.741, "note_off_time": 4.993}, {"pitch": 60, "velocity": 80, "note_on_time": 4.992, "note_off_time": 5.241}, {"pitch": 42, "velocity": 80, "note_on_time": 4.993, "note_off_time": 5.241}, {"pitch": 42, "velocity": 80, "note_on_time": 5.241, "note_off_time": 5.488}, {"pitch": 42, "velocity": 80, "note_on_time": 5.489, "note_off_time": 5.739}, {"pitch": 42, "velocity": 80, "note_on_time": 5.739, "note_off_time": 5.991}, {"pitch": 60, "velocity": 80, "note_on_time": 5.991, "note_off_time": 6.24}, {"pitch": 42, "velocity": 80, "note_on_time": 5.991, "note_off_time": 6.24}, {"pitch": 64, "velocity": 80, "note_on_time": 6.24, "note_off_time": 6.489}, {"pitch": 42, "velocity": 80, "note_on_time": 6.241, "note_off_time": 6.489}, {"pitch": 62, "velocity": 80, "note_on_time": 6.489, "note_off_time": 6.741}, {"pitch": 42, "velocity": 80, "note_on_time": 6.49, "note_off_time": 6.741}, {"pitch": 62, "velocity": 80, "note_on_time": 6.741, "note_off_time": 6.99}, {"pitch": 42, "velocity": 80, "note_on_time": 6.741, "note_off_time": 6.99}, {"pitch": 62, "velocity": 80, "note_on_time": 6.99, "note_off_time": 7.24}, {"pitch": 42, "velocity": 80, "note_on_time": 6.99, "note_off_time": 7.24}, {"pitch": 64, "velocity": 80, "note_on_time": 7.24, "note_off_time": 7.49}, {"pitch": 42, "velocity": 80, "note_on_time": 7.241, "note_off_time": 7.49}, {"pitch": 60, "velocity": 80, "note_on_time": 7.49, "note_off_time": 7.737}, {"pitch": 42, "velocity": 80, "note_on_time": 7.491, "note_off_time": 7.737}, {"pitch": 62, "velocity": 80, "note_on_time": 7.737, "note_off_time": 7.985}, {"pitch": 42, "velocity": 80, "note_on_time": 7.737, "note_off_time": 7.985}, {"pitch": 42, "velocity": 80, "note_on_time": 7.986, "note_off_time": 8.236}, {"pitch": 62, "velocity": 80, "note_on_time": 8.236, "note_off_time": 8.484}, {"pitch": 42, "velocity": 80, "note_on_time": 8.236, "note_off_time": 8.485}, {"pitch": 62, "velocity": 80, "note_on_time": 8.484, "note_off_time": 8.733}, {"pitch": 42, "velocity": 80, "note_on_time": 8.485, "note_off_time": 8.734}, {"pitch": 62, "velocity": 80, "note_on_time": 8.733, "note_off_time": 8.983}, {"pitch": 42, "velocity": 80, "note_on_time": 8.734, "note_off_time": 8.983}]</notes><options name="Option List">((4, 4), [0.25], 3, 8, &lt;NoteRangePerHand.THREE_NOTES: 4&gt;, &lt;NoteRangePerHand.ONE_NOTE: 2&gt;, False, True, True, '248')</options></target_notes><trials><trial trial_no="1" timestamp="2022_10_02-13_26_15"><notes name="Played Notes">[{"pitch": 64, "velocity": 60, "note_on_time": 1.016, "note_off_time": 1.175}, {"pitch": 64, "velocity": 63, "note_on_time": 1.284, "note_off_time": 1.498}, {"pitch": 60, "velocity": 58, "note_on_time": 1.547, "note_off_time": 1.732}, {"pitch": 62, "velocity": 64, "note_on_time": 2.034, "note_off_time": 2.25}, {"pitch": 64, "velocity": 56, "note_on_time": 2.275, "note_off_time": 2.483}, {"pitch": 62, "velocity": 52, "note_on_time": 2.526, "note_off_time": 2.817}, {"pitch": 60, "velocity": 61, "note_on_time": 2.8, "note_off_time": 2.968}, {"pitch": 64, "velocity": 61, "note_on_time": 3.054, "note_off_time": 3.181}, {"pitch": 64, "velocity": 61, "note_on_time": 3.281, "note_off_time": 3.559}, {"pitch": 62, "velocity": 60, "note_on_time": 3.549, "note_off_time": 3.788}, {"pitch": 60, "velocity": 61, "note_on_time": 3.797, "note_off_time": 3.942}, {"pitch": 64, "velocity": 57, "note_on_time": 4.051, "note_off_time": 4.281}, {"pitch": 60, "velocity": 66, "note_on_time": 4.289, "note_off_time": 4.456}, {"pitch": 64, "velocity": 34, "note_on_time": 4.566, "note_off_time": 5.226}, {"pitch": 60, "velocity": 59, "note_on_time": 5.528, "note_off_time": 5.691}, {"pitch": 60, "velocity": 61, "note_on_time": 6.044, "note_off_time": 6.238}, {"pitch": 64, "velocity": 51, "note_on_time": 6.286, "note_off_time": 6.546}, {"pitch": 62, "velocity": 52, "note_on_time": 6.55, "note_off_time": 6.64}, {"pitch": 62, "velocity": 46, "note_on_time": 6.788, "note_off_time": 6.931}, {"pitch": 62, "velocity": 62, "note_on_time": 7.044, "note_off_time": 7.261}, {"pitch": 64, "velocity": 53, "note_on_time": 7.287, "note_off_time": 7.527}, {"pitch": 60, "velocity": 61, "note_on_time": 7.542, "note_off_time": 7.719}, {"pitch": 62, "velocity": 49, "note_on_time": 7.776, "note_off_time": 7.945}, {"pitch": 62, "velocity": 64, "note_on_time": 8.512, "note_off_time": 8.666}, {"pitch": 62, "velocity": 54, "note_on_time": 8.758, "note_off_time": 8.922}]</notes><guidance name="Guidance Mode">None</guidance><error name="Error value">0.1751829166666667</error></trial><trial trial_no="2" timestamp="2022_10_02-13_26_41"><notes name="Played Notes">[{"pitch": 64, "velocity": 55, "note_on_time": 1.013, "note_off_time": 1.159}, {"pitch": 64, "velocity": 61, "note_on_time": 1.276, "note_off_time": 1.475}, {"pitch": 60, "velocity": 66, "note_on_time": 1.55, "note_off_time": 1.722}, {"pitch": 62, "velocity": 73, "note_on_time": 2.036, "note_off_time": 2.251}, {"pitch": 64, "velocity": 59, "note_on_time": 2.273, "note_off_time": 2.6}, {"pitch": 62, "velocity": 68, "note_on_time": 2.559, "note_off_time": 2.832}, {"pitch": 60, "velocity": 71, "note_on_time": 2.806, "note_off_time": 2.978}, {"pitch": 64, "velocity": 62, "note_on_time": 3.072, "note_off_time": 3.235}, {"pitch": 62, "velocity": 56, "note_on_time": 3.333, "note_off_time": 3.597}, {"pitch": 60, "velocity": 67, "note_on_time": 3.596, "note_off_time": 3.761}, {"pitch": 64, "velocity": 57, "note_on_time": 3.843, "note_off_time": 4.139}, {"pitch": 60, "velocity": 49, "note_on_time": 4.175, "note_off_time": 4.313}, {"pitch": 64, "velocity": 59, "note_on_time": 4.457, "note_off_time": 4.67}, {"pitch": 64, "velocity": 73, "note_on_time": 4.76, "note_off_time": 5.008}, {"pitch": 62, "velocity": 49, "note_on_time": 5.039, "note_off_time": 5.181}, {"pitch": 60, "velocity": 46, "note_on_time": 5.325, "note_off_time": 5.474}, {"pitch": 60, "velocity": 60, "note_on_time": 5.6, "note_off_time": 5.794}, {"pitch": 60, "velocity": 64, "note_on_time": 5.908, "note_off_time": 6.17}, {"pitch": 64, "velocity": 57, "note_on_time": 6.169, "note_off_time": 6.418}, {"pitch": 62, "velocity": 55, "note_on_time": 6.448, "note_off_time": 6.599}, {"pitch": 62, "velocity": 58, "note_on_time": 6.76, "note_off_time": 6.929}, {"pitch": 62, "velocity": 61, "note_on_time": 7.034, "note_off_time": 7.241}, {"pitch": 64, "velocity": 53, "note_on_time": 7.28, "note_off_time": 7.543}, {"pitch": 60, "velocity": 49, "note_on_time": 7.57, "note_off_time": 7.828}, {"pitch": 62, "velocity": 61, "note_on_time": 8.678, "note_off_time": 8.803}]</notes><guidance name="Guidance Mode">None</guidance><error name="Error value">0.6204464583333335</error></trial><trial trial_no="3" timestamp="2022_10_02-13_27_07"><notes name="Played Notes">[{"pitch": 64, "velocity": 65, "note_on_time": 1.003, "note_off_time": 1.143}, {"pitch": 64, "velocity": 57, "note_on_time": 1.256, "note_off_time": 1.455}, {"pitch": 60, "velocity": 62, "note_on_time": 1.518, "note_off_time": 1.734}, {"pitch": 62, "velocity": 66, "note_on_time": 2.0, "note_off_time": 2.221}, {"pitch": 64, "velocity": 61, "note_on_time": 2.241, "note_off_time": 2.495}, {"pitch": 62, "velocity": 62, "note_on_time": 2.489, "note_off_time": 2.76}, {"pitch": 60, "velocity": 70, "note_on_time": 2.75, "note_off_time": 2.923}, {"pitch": 64, "velocity": 55, "note_on_time": 3.001, "note_off_time": 3.126}, {"pitch": 64, "velocity": 45, "note_on_time": 3.245, "note_off_time": 3.505}, {"pitch": 62, "velocity": 59, "note_on_time": 3.499, "note_off_time": 3.725}, {"pitch": 60, "velocity": 62, "note_on_time": 3.735, "note_off_time": 3.887}, {"pitch": 64, "velocity": 55, "note_on_time": 3.974, "note_off_time": 4.265}, {"pitch": 60, "velocity": 69, "note_on_time": 4.309, "note_off_time": 4.488}, {"pitch": 64, "velocity": 51, "note_on_time": 4.537, "note_off_time": 4.882}, {"pitch": 62, "velocity": 57, "note_on_time": 4.835, "note_off_time": 4.947}, {"pitch": 60, "velocity": 60, "note_on_time": 5.143, "note_off_time": 5.304}, {"pitch": 60, "velocity": 63, "note_on_time": 6.059, "note_off_time": 6.311}, {"pitch": 64, "velocity": 54, "note_on_time": 6.326, "note_off_time": 6.617}, {"pitch": 62, "velocity": 62, "note_on_time": 6.6, "note_off_time": 6.73}, {"pitch": 62, "velocity": 49, "note_on_time": 6.885, "note_off_time": 7.022}, {"pitch": 62, "velocity": 49, "note_on_time": 7.175, "note_off_time": 7.362}, {"pitch": 64, "velocity": 49, "note_on_time": 7.396, "note_off_time": 7.678}, {"pitch": 60, "velocity": 51, "note_on_time": 7.697, "note_off_time": 7.939}, {"pitch": 60, "velocity": 46, "note_on_time": 8.331, "note_off_time": 8.435}]</notes><guidance name="Guidance Mode">None</guidance><error name="Error value">0.4236250000000001</error></trial></trials></MIDI>