<MIDI midiNo="2022_12_15-12_54_53"><target_notes><notes name="Note List">[{"pitch": 42, "velocity": 80, "note_on_time": 0.005, "note_off_time": 1.051}, {"pitch": 42, "velocity": 80, "note_on_time": 1.051, "note_off_time": 2.097}, {"pitch": 42, "velocity": 80, "note_on_time": 2.097, "note_off_time": 3.144}, {"pitch": 42, "velocity": 80, "note_on_time": 3.144, "note_off_time": 4.189}, {"pitch": 60, "velocity": 80, "note_on_time": 4.189, "note_off_time": 5.235}, {"pitch": 42, "velocity": 80, "note_on_time": 4.189, "note_off_time": 5.236}, {"pitch": 42, "velocity": 80, "note_on_time": 5.236, "note_off_time": 6.282}, {"pitch": 42, "velocity": 80, "note_on_time": 6.282, "note_off_time": 7.328}, {"pitch": 64, "velocity": 80, "note_on_time": 6.282, "note_off_time": 8.377}, {"pitch": 42, "velocity": 80, "note_on_time": 7.329, "note_off_time": 8.377}, {"pitch": 62, "velocity": 80, "note_on_time": 8.377, "note_off_time": 9.413}, {"pitch": 42, "velocity": 80, "note_on_time": 8.378, "note_off_time": 9.413}, {"pitch": 62, "velocity": 80, "note_on_time": 9.413, "note_off_time": 10.454}, {"pitch": 42, "velocity": 80, "note_on_time": 9.414, "note_off_time": 10.454}, {"pitch": 60, "velocity": 80, "note_on_time": 10.454, "note_off_time": 11.497}, {"pitch": 42, "velocity": 80, "note_on_time": 10.454, "note_off_time": 11.497}, {"pitch": 60, "velocity": 80, "note_on_time": 11.497, "note_off_time": 12.544}, {"pitch": 42, "velocity": 80, "note_on_time": 11.497, "note_off_time": 12.544}, {"pitch": 42, "velocity": 80, "note_on_time": 12.544, "note_off_time": 13.588}, {"pitch": 64, "velocity": 80, "note_on_time": 12.544, "note_off_time": 14.638}, {"pitch": 42, "velocity": 80, "note_on_time": 13.588, "note_off_time": 14.638}, {"pitch": 42, "velocity": 80, "note_on_time": 14.639, "note_off_time": 15.687}, {"pitch": 42, "velocity": 80, "note_on_time": 15.687, "note_off_time": 16.729}, {"pitch": 42, "velocity": 80, "note_on_time": 16.73, "note_off_time": 17.774}, {"pitch": 64, "velocity": 80, "note_on_time": 16.729, "note_off_time": 18.823}, {"pitch": 42, "velocity": 80, "note_on_time": 17.774, "note_off_time": 18.823}, {"pitch": 42, "velocity": 80, "note_on_time": 18.823, "note_off_time": 19.871}, {"pitch": 62, "velocity": 80, "note_on_time": 18.823, "note_off_time": 20.915}, {"pitch": 42, "velocity": 80, "note_on_time": 19.872, "note_off_time": 20.916}, {"pitch": 42, "velocity": 80, "note_on_time": 20.916, "note_off_time": 21.963}, {"pitch": 62, "velocity": 80, "note_on_time": 20.915, "note_off_time": 23.009}, {"pitch": 42, "velocity": 80, "note_on_time": 21.963, "note_off_time": 23.009}, {"pitch": 62, "velocity": 80, "note_on_time": 23.009, "note_off_time": 24.053}, {"pitch": 42, "velocity": 80, "note_on_time": 23.009, "note_off_time": 24.053}, {"pitch": 42, "velocity": 80, "note_on_time": 24.054, "note_off_time": 25.1}, {"pitch": 62, "velocity": 80, "note_on_time": 25.1, "note_off_time": 26.143}, {"pitch": 42, "velocity": 80, "note_on_time": 25.101, "note_off_time": 26.143}, {"pitch": 62, "velocity": 80, "note_on_time": 26.143, "note_off_time": 27.189}, {"pitch": 42, "velocity": 80, "note_on_time": 26.144, "note_off_time": 27.189}, {"pitch": 62, "velocity": 80, "note_on_time": 27.189, "note_off_time": 28.235}, {"pitch": 42, "velocity": 80, "note_on_time": 27.189, "note_off_time": 28.236}, {"pitch": 62, "velocity": 80, "note_on_time": 28.235, "note_off_time": 29.279}, {"pitch": 42, "velocity": 80, "note_on_time": 28.236, "note_off_time": 29.279}, {"pitch": 62, "velocity": 80, "note_on_time": 29.279, "note_off_time": 30.326}, {"pitch": 42, "velocity": 80, "note_on_time": 29.28, "note_off_time": 30.326}, {"pitch": 64, "velocity": 80, "note_on_time": 30.326, "note_off_time": 31.374}, {"pitch": 42, "velocity": 80, "note_on_time": 30.327, "note_off_time": 31.374}, {"pitch": 60, "velocity": 80, "note_on_time": 31.374, "note_off_time": 32.416}, {"pitch": 42, "velocity": 80, "note_on_time": 31.375, "note_off_time": 32.416}, {"pitch": 62, "velocity": 80, "note_on_time": 32.416, "note_off_time": 33.459}, {"pitch": 42, "velocity": 80, "note_on_time": 32.416, "note_off_time": 33.459}, {"pitch": 42, "velocity": 80, "note_on_time": 33.459, "note_off_time": 34.508}, {"pitch": 62, "velocity": 80, "note_on_time": 34.507, "note_off_time": 35.551}, {"pitch": 42, "velocity": 80, "note_on_time": 34.508, "note_off_time": 35.551}, {"pitch": 62, "velocity": 80, "note_on_time": 35.551, "note_off_time": 36.598}, {"pitch": 42, "velocity": 80, "note_on_time": 35.552, "note_off_time": 36.598}, {"pitch": 62, "velocity": 80, "note_on_time": 36.598, "note_off_time": 37.644}, {"pitch": 42, "velocity": 80, "note_on_time": 36.598, "note_off_time": 37.644}]</notes><options name="Option List">((4, 4), [0.5, 0.25], 3, 8, &lt;NoteRangePerHand.THREE_NOTES: 4&gt;, &lt;NoteRangePerHand.ONE_NOTE: 2&gt;, False, True, False, '58')</options></target_notes><trials><trial trial_no="1" timestamp="2022_12_15-12_54_14"><notes name="Played Notes">[{"pitch": 72, "velocity": 73, "note_on_time": 4.174, "note_off_time": 4.59}, {"pitch": 76, "velocity": 75, "note_on_time": 12.681, "note_off_time": 13.719}, {"pitch": 74, "velocity": 85, "note_on_time": 14.62, "note_off_time": 15.649}, {"pitch": 74, "velocity": 68, "note_on_time": 16.585, "note_off_time": 17.785}, {"pitch": 74, "velocity": 68, "note_on_time": 18.748, "note_off_time": 18.927}, {"pitch": 74, "velocity": 68, "note_on_time": 20.881, "note_off_time": 21.017}, {"pitch": 74, "velocity": 66, "note_on_time": 21.921, "note_off_time": 22.055}, {"pitch": 74, "velocity": 56, "note_on_time": 22.991, "note_off_time": 23.148}, {"pitch": 74, "velocity": 61, "note_on_time": 23.945, "note_off_time": 24.124}, {"pitch": 74, "velocity": 56, "note_on_time": 24.987, "note_off_time": 25.095}, {"pitch": 76, "velocity": 28, "note_on_time": 26.058, "note_off_time": 26.265}, {"pitch": 72, "velocity": 49, "note_on_time": 27.086, "note_off_time": 27.202}, {"pitch": 74, "velocity": 39, "note_on_time": 28.179, "note_off_time": 28.333}, {"pitch": 74, "velocity": 57, "note_on_time": 30.233, "note_off_time": 30.415}, {"pitch": 74, "velocity": 55, "note_on_time": 31.417, "note_off_time": 31.574}, {"pitch": 74, "velocity": 63, "note_on_time": 32.377, "note_off_time": 32.532}]</notes><guidance name="Guidance Mode">None</guidance><error name="Error value">1.8276202105263157</error></trial><trial trial_no="2" timestamp="2022_12_15-12_55_31"><notes name="Played Notes">[{"pitch": 72, "velocity": 72, "note_on_time": 4.103, "note_off_time": 4.574}, {"pitch": 76, "velocity": 75, "note_on_time": 6.212, "note_off_time": 7.411}, {"pitch": 74, "velocity": 84, "note_on_time": 8.233, "note_off_time": 8.516}, {"pitch": 74, "velocity": 75, "note_on_time": 9.276, "note_off_time": 9.494}, {"pitch": 72, "velocity": 75, "note_on_time": 10.39, "note_off_time": 10.586}, {"pitch": 72, "velocity": 79, "note_on_time": 11.416, "note_off_time": 11.625}, {"pitch": 76, "velocity": 66, "note_on_time": 12.563, "note_off_time": 13.874}, {"pitch": 76, "velocity": 72, "note_on_time": 16.71, "note_off_time": 17.727}, {"pitch": 74, "velocity": 57, "note_on_time": 18.782, "note_off_time": 19.871}, {"pitch": 74, "velocity": 70, "note_on_time": 20.813, "note_off_time": 21.976}, {"pitch": 74, "velocity": 64, "note_on_time": 22.927, "note_off_time": 23.263}, {"pitch": 74, "velocity": 67, "note_on_time": 25.029, "note_off_time": 25.285}, {"pitch": 74, "velocity": 67, "note_on_time": 26.052, "note_off_time": 26.263}, {"pitch": 74, "velocity": 67, "note_on_time": 27.018, "note_off_time": 27.236}, {"pitch": 74, "velocity": 64, "note_on_time": 28.072, "note_off_time": 28.285}, {"pitch": 74, "velocity": 71, "note_on_time": 29.123, "note_off_time": 29.324}, {"pitch": 76, "velocity": 67, "note_on_time": 30.317, "note_off_time": 30.544}, {"pitch": 72, "velocity": 72, "note_on_time": 31.429, "note_off_time": 31.574}, {"pitch": 74, "velocity": 75, "note_on_time": 32.406, "note_off_time": 32.591}, {"pitch": 74, "velocity": 59, "note_on_time": 34.361, "note_off_time": 34.518}, {"pitch": 74, "velocity": 64, "note_on_time": 35.586, "note_off_time": 35.75}, {"pitch": 74, "velocity": 56, "note_on_time": 36.646, "note_off_time": 36.889}]</notes><guidance name="Guidance Mode">None</guidance><error name="Error value">1.2192472631578946</error></trial><trial trial_no="3" timestamp="2022_12_15-12_56_44"><notes name="Played Notes">[{"pitch": 72, "velocity": 63, "note_on_time": 4.113, "note_off_time": 4.511}, {"pitch": 76, "velocity": 63, "note_on_time": 6.167, "note_off_time": 7.176}, {"pitch": 74, "velocity": 55, "note_on_time": 8.298, "note_off_time": 8.553}, {"pitch": 74, "velocity": 61, "note_on_time": 9.327, "note_off_time": 9.544}, {"pitch": 72, "velocity": 65, "note_on_time": 10.373, "note_off_time": 10.585}, {"pitch": 72, "velocity": 65, "note_on_time": 11.387, "note_off_time": 11.541}, {"pitch": 76, "velocity": 71, "note_on_time": 12.443, "note_off_time": 13.841}, {"pitch": 76, "velocity": 67, "note_on_time": 16.824, "note_off_time": 17.532}, {"pitch": 74, "velocity": 63, "note_on_time": 18.773, "note_off_time": 19.864}, {"pitch": 74, "velocity": 59, "note_on_time": 20.75, "note_off_time": 21.907}, {"pitch": 74, "velocity": 64, "note_on_time": 22.947, "note_off_time": 23.132}, {"pitch": 74, "velocity": 64, "note_on_time": 25.025, "note_off_time": 25.198}, {"pitch": 74, "velocity": 51, "note_on_time": 26.203, "note_off_time": 26.335}, {"pitch": 74, "velocity": 46, "note_on_time": 27.142, "note_off_time": 27.288}, {"pitch": 74, "velocity": 52, "note_on_time": 28.162, "note_off_time": 28.348}, {"pitch": 74, "velocity": 54, "note_on_time": 29.226, "note_off_time": 29.402}, {"pitch": 76, "velocity": 62, "note_on_time": 30.323, "note_off_time": 30.466}, {"pitch": 72, "velocity": 54, "note_on_time": 31.371, "note_off_time": 31.51}, {"pitch": 74, "velocity": 66, "note_on_time": 32.372, "note_off_time": 32.533}, {"pitch": 74, "velocity": 54, "note_on_time": 34.417, "note_off_time": 34.657}, {"pitch": 74, "velocity": 49, "note_on_time": 35.499, "note_off_time": 35.655}, {"pitch": 74, "velocity": 58, "note_on_time": 36.567, "note_off_time": 36.724}]</notes><guidance name="Guidance Mode">None</guidance><error name="Error value">1.22239947368421</error></trial><trial trial_no="4" timestamp="2022_12_15-12_57_35"><notes name="Played Notes">[{"pitch": 72, "velocity": 67, "note_on_time": 4.199, "note_off_time": 4.507}, {"pitch": 76, "velocity": 70, "note_on_time": 6.338, "note_off_time": 7.576}, {"pitch": 74, "velocity": 52, "note_on_time": 8.338, "note_off_time": 8.701}, {"pitch": 74, "velocity": 54, "note_on_time": 9.338, "note_off_time": 9.596}, {"pitch": 72, "velocity": 52, "note_on_time": 10.349, "note_off_time": 10.587}, {"pitch": 72, "velocity": 58, "note_on_time": 11.387, "note_off_time": 11.593}, {"pitch": 76, "velocity": 65, "note_on_time": 12.431, "note_off_time": 13.661}, {"pitch": 76, "velocity": 59, "note_on_time": 16.711, "note_off_time": 17.805}, {"pitch": 74, "velocity": 53, "note_on_time": 18.738, "note_off_time": 19.741}, {"pitch": 74, "velocity": 63, "note_on_time": 20.879, "note_off_time": 21.87}, {"pitch": 74, "velocity": 66, "note_on_time": 23.025, "note_off_time": 23.213}, {"pitch": 74, "velocity": 63, "note_on_time": 25.1, "note_off_time": 25.263}, {"pitch": 74, "velocity": 56, "note_on_time": 26.157, "note_off_time": 26.291}, {"pitch": 74, "velocity": 59, "note_on_time": 27.123, "note_off_time": 27.257}, {"pitch": 74, "velocity": 57, "note_on_time": 28.194, "note_off_time": 28.358}, {"pitch": 74, "velocity": 56, "note_on_time": 29.201, "note_off_time": 29.361}, {"pitch": 76, "velocity": 55, "note_on_time": 30.225, "note_off_time": 30.395}, {"pitch": 72, "velocity": 59, "note_on_time": 31.288, "note_off_time": 31.411}, {"pitch": 74, "velocity": 59, "note_on_time": 32.355, "note_off_time": 32.491}, {"pitch": 74, "velocity": 64, "note_on_time": 34.438, "note_off_time": 34.581}, {"pitch": 74, "velocity": 63, "note_on_time": 35.509, "note_off_time": 35.66}, {"pitch": 74, "velocity": 49, "note_on_time": 36.521, "note_off_time": 36.661}]</notes><guidance name="Guidance Mode">None</guidance><error name="Error value">1.202563052631579</error></trial><trial trial_no="5" timestamp="2022_12_15-12_58_26"><notes name="Played Notes">[{"pitch": 72, "velocity": 56, "note_on_time": 4.113, "note_off_time": 4.64}, {"pitch": 76, "velocity": 64, "note_on_time": 6.319, "note_off_time": 7.493}, {"pitch": 74, "velocity": 52, "note_on_time": 8.284, "note_off_time": 8.508}, {"pitch": 74, "velocity": 40, "note_on_time": 9.384, "note_off_time": 9.545}, {"pitch": 72, "velocity": 39, "note_on_time": 10.405, "note_off_time": 10.502}, {"pitch": 72, "velocity": 45, "note_on_time": 11.475, "note_off_time": 11.573}, {"pitch": 76, "velocity": 55, "note_on_time": 12.512, "note_off_time": 13.686}, {"pitch": 76, "velocity": 60, "note_on_time": 16.691, "note_off_time": 17.664}, {"pitch": 74, "velocity": 64, "note_on_time": 18.684, "note_off_time": 19.75}, {"pitch": 74, "velocity": 55, "note_on_time": 20.819, "note_off_time": 21.842}, {"pitch": 72, "velocity": 52, "note_on_time": 22.944, "note_off_time": 23.541}, {"pitch": 74, "velocity": 57, "note_on_time": 25.064, "note_off_time": 25.338}, {"pitch": 74, "velocity": 62, "note_on_time": 26.094, "note_off_time": 26.264}, {"pitch": 74, "velocity": 55, "note_on_time": 27.053, "note_off_time": 27.207}, {"pitch": 74, "velocity": 64, "note_on_time": 28.098, "note_off_time": 28.267}, {"pitch": 74, "velocity": 55, "note_on_time": 29.245, "note_off_time": 29.45}, {"pitch": 76, "velocity": 53, "note_on_time": 30.353, "note_off_time": 30.503}, {"pitch": 72, "velocity": 43, "note_on_time": 31.39, "note_off_time": 31.519}, {"pitch": 74, "velocity": 55, "note_on_time": 32.35, "note_off_time": 32.492}, {"pitch": 74, "velocity": 56, "note_on_time": 34.419, "note_off_time": 34.553}, {"pitch": 74, "velocity": 60, "note_on_time": 35.438, "note_off_time": 35.563}, {"pitch": 74, "velocity": 55, "note_on_time": 36.446, "note_off_time": 36.576}]</notes><guidance name="Guidance Mode">None</guidance><error name="Error value">1.2128262105263148</error></trial></trials></MIDI>