<MIDI midiNo="2022_08_17-16_42_04"><target_notes><notes name="Note List">[{"pitch": 42, "velocity": 80, "note_on_time": 0.003, "note_off_time": 1.207}, {"pitch": 42, "velocity": 80, "note_on_time": 1.207, "note_off_time": 2.409}, {"pitch": 42, "velocity": 80, "note_on_time": 2.409, "note_off_time": 3.611}, {"pitch": 42, "velocity": 80, "note_on_time": 3.611, "note_off_time": 4.827}, {"pitch": 60, "velocity": 80, "note_on_time": 4.827, "note_off_time": 6.031}, {"pitch": 42, "velocity": 80, "note_on_time": 4.827, "note_off_time": 6.031}, {"pitch": 64, "velocity": 80, "note_on_time": 6.031, "note_off_time": 7.246}, {"pitch": 42, "velocity": 80, "note_on_time": 6.031, "note_off_time": 7.246}, {"pitch": 64, "velocity": 80, "note_on_time": 7.246, "note_off_time": 8.449}, {"pitch": 42, "velocity": 80, "note_on_time": 7.246, "note_off_time": 8.45}, {"pitch": 62, "velocity": 80, "note_on_time": 8.45, "note_off_time": 9.665}, {"pitch": 42, "velocity": 80, "note_on_time": 8.45, "note_off_time": 9.665}, {"pitch": 42, "velocity": 80, "note_on_time": 9.665, "note_off_time": 10.869}, {"pitch": 62, "velocity": 80, "note_on_time": 9.665, "note_off_time": 12.07}, {"pitch": 42, "velocity": 80, "note_on_time": 10.869, "note_off_time": 12.07}, {"pitch": 62, "velocity": 80, "note_on_time": 12.07, "note_off_time": 13.273}, {"pitch": 42, "velocity": 80, "note_on_time": 12.07, "note_off_time": 13.273}, {"pitch": 65, "velocity": 80, "note_on_time": 13.273, "note_off_time": 14.476}, {"pitch": 42, "velocity": 80, "note_on_time": 13.273, "note_off_time": 14.476}, {"pitch": 65, "velocity": 80, "note_on_time": 14.476, "note_off_time": 15.683}, {"pitch": 42, "velocity": 80, "note_on_time": 14.476, "note_off_time": 15.683}, {"pitch": 42, "velocity": 80, "note_on_time": 15.683, "note_off_time": 16.897}, {"pitch": 42, "velocity": 80, "note_on_time": 16.897, "note_off_time": 18.103}, {"pitch": 65, "velocity": 80, "note_on_time": 18.103, "note_off_time": 19.317}, {"pitch": 42, "velocity": 80, "note_on_time": 18.103, "note_off_time": 19.317}, {"pitch": 64, "velocity": 80, "note_on_time": 19.317, "note_off_time": 20.523}, {"pitch": 42, "velocity": 80, "note_on_time": 19.317, "note_off_time": 20.523}, {"pitch": 67, "velocity": 80, "note_on_time": 20.523, "note_off_time": 21.726}, {"pitch": 42, "velocity": 80, "note_on_time": 20.523, "note_off_time": 21.726}, {"pitch": 62, "velocity": 80, "note_on_time": 21.726, "note_off_time": 22.941}, {"pitch": 42, "velocity": 80, "note_on_time": 21.726, "note_off_time": 22.941}, {"pitch": 67, "velocity": 80, "note_on_time": 22.941, "note_off_time": 24.144}, {"pitch": 42, "velocity": 80, "note_on_time": 22.941, "note_off_time": 24.144}, {"pitch": 67, "velocity": 80, "note_on_time": 24.144, "note_off_time": 25.344}, {"pitch": 42, "velocity": 80, "note_on_time": 24.144, "note_off_time": 25.344}, {"pitch": 64, "velocity": 80, "note_on_time": 25.344, "note_off_time": 26.552}, {"pitch": 42, "velocity": 80, "note_on_time": 25.344, "note_off_time": 26.552}, {"pitch": 65, "velocity": 80, "note_on_time": 26.552, "note_off_time": 27.767}, {"pitch": 42, "velocity": 80, "note_on_time": 26.552, "note_off_time": 27.767}, {"pitch": 64, "velocity": 80, "note_on_time": 27.767, "note_off_time": 28.973}, {"pitch": 42, "velocity": 80, "note_on_time": 27.767, "note_off_time": 28.973}, {"pitch": 67, "velocity": 80, "note_on_time": 28.973, "note_off_time": 30.176}, {"pitch": 42, "velocity": 80, "note_on_time": 28.973, "note_off_time": 30.176}, {"pitch": 64, "velocity": 80, "note_on_time": 30.176, "note_off_time": 31.381}, {"pitch": 42, "velocity": 80, "note_on_time": 30.176, "note_off_time": 31.381}, {"pitch": 67, "velocity": 80, "note_on_time": 31.381, "note_off_time": 32.595}, {"pitch": 42, "velocity": 80, "note_on_time": 31.381, "note_off_time": 32.595}, {"pitch": 60, "velocity": 80, "note_on_time": 32.595, "note_off_time": 33.803}, {"pitch": 42, "velocity": 80, "note_on_time": 32.595, "note_off_time": 33.803}, {"pitch": 64, "velocity": 80, "note_on_time": 33.803, "note_off_time": 35.004}, {"pitch": 42, "velocity": 80, "note_on_time": 33.803, "note_off_time": 35.004}, {"pitch": 67, "velocity": 80, "note_on_time": 35.004, "note_off_time": 36.209}, {"pitch": 42, "velocity": 80, "note_on_time": 35.004, "note_off_time": 36.209}, {"pitch": 60, "velocity": 80, "note_on_time": 36.209, "note_off_time": 37.409}, {"pitch": 42, "velocity": 80, "note_on_time": 36.209, "note_off_time": 37.409}, {"pitch": 65, "velocity": 80, "note_on_time": 37.409, "note_off_time": 38.61}, {"pitch": 42, "velocity": 80, "note_on_time": 37.409, "note_off_time": 38.61}, {"pitch": 42, "velocity": 80, "note_on_time": 38.61, "note_off_time": 39.813}, {"pitch": 65, "velocity": 80, "note_on_time": 39.813, "note_off_time": 41.017}, {"pitch": 42, "velocity": 80, "note_on_time": 39.813, "note_off_time": 41.017}, {"pitch": 65, "velocity": 80, "note_on_time": 41.017, "note_off_time": 42.231}, {"pitch": 42, "velocity": 80, "note_on_time": 41.017, "note_off_time": 42.231}, {"pitch": 65, "velocity": 80, "note_on_time": 42.231, "note_off_time": 43.436}, {"pitch": 42, "velocity": 80, "note_on_time": 42.231, "note_off_time": 43.436}]</notes><options name="Option List">((4, 4), [0.5, 0.25], 3, 8, &lt;NoteRangePerHand.C_TO_G: 6&gt;, &lt;NoteRangePerHand.ONE_NOTE: 2&gt;, False, True, True, '50')</options></target_notes><trials><trial trial_no="1" timestamp="2022_08_17-16_41_19"><notes name="Played Notes">[{"pitch": 60, "velocity": 75, "note_on_time": 4.013, "note_off_time": 4.96}, {"pitch": 64, "velocity": 68, "note_on_time": 4.923, "note_off_time": 5.51}, {"pitch": 64, "velocity": 65, "note_on_time": 5.833, "note_off_time": 6.75}, {"pitch": 62, "velocity": 64, "note_on_time": 6.767, "note_off_time": 7.331}, {"pitch": 62, "velocity": 72, "note_on_time": 7.638, "note_off_time": 8.56}, {"pitch": 62, "velocity": 64, "note_on_time": 9.424, "note_off_time": 10.378}, {"pitch": 64, "velocity": 58, "note_on_time": 10.406, "note_off_time": 11.049}, {"pitch": 64, "velocity": 57, "note_on_time": 11.352, "note_off_time": 11.966}, {"pitch": 65, "velocity": 64, "note_on_time": 14.067, "note_off_time": 14.889}, {"pitch": 64, "velocity": 63, "note_on_time": 14.889, "note_off_time": 15.683}, {"pitch": 67, "velocity": 65, "note_on_time": 15.772, "note_off_time": 16.654}, {"pitch": 64, "velocity": 62, "note_on_time": 16.666, "note_off_time": 17.365}, {"pitch": 65, "velocity": 49, "note_on_time": 19.386, "note_off_time": 19.481}, {"pitch": 67, "velocity": 31, "note_on_time": 19.488, "note_off_time": 20.386}, {"pitch": 64, "velocity": 60, "note_on_time": 20.38, "note_off_time": 21.259}, {"pitch": 65, "velocity": 55, "note_on_time": 21.312, "note_off_time": 22.381}, {"pitch": 64, "velocity": 63, "note_on_time": 22.399, "note_off_time": 23.314}, {"pitch": 67, "velocity": 70, "note_on_time": 23.303, "note_off_time": 27.208}, {"pitch": 62, "velocity": 57, "note_on_time": 27.23, "note_off_time": 28.642}, {"pitch": 67, "velocity": 53, "note_on_time": 28.827, "note_off_time": 29.717}, {"pitch": 60, "velocity": 51, "note_on_time": 29.735, "note_off_time": 30.582}, {"pitch": 64, "velocity": 64, "note_on_time": 30.582, "note_off_time": 31.462}, {"pitch": 67, "velocity": 61, "note_on_time": 31.477, "note_off_time": 32.36}, {"pitch": 60, "velocity": 62, "note_on_time": 32.369, "note_off_time": 33.303}, {"pitch": 64, "velocity": 65, "note_on_time": 33.271, "note_off_time": 33.944}, {"pitch": 64, "velocity": 73, "note_on_time": 34.967, "note_off_time": 35.458}, {"pitch": 64, "velocity": 73, "note_on_time": 35.834, "note_off_time": 36.267}, {"pitch": 64, "velocity": 74, "note_on_time": 36.689, "note_off_time": 36.897}]</notes><guidance name="Guidance Mode">None</guidance><error name="Error value">0.9124800000000007</error></trial><trial trial_no="2" timestamp="2022_08_17-16_42_19"><notes name="Played Notes">[{"pitch": 60, "velocity": 71, "note_on_time": 3.528, "note_off_time": 4.466}, {"pitch": 64, "velocity": 65, "note_on_time": 4.435, "note_off_time": 5.314}, {"pitch": 64, "velocity": 41, "note_on_time": 5.364, "note_off_time": 6.253}, {"pitch": 62, "velocity": 48, "note_on_time": 6.294, "note_off_time": 6.999}, {"pitch": 62, "velocity": 57, "note_on_time": 7.205, "note_off_time": 8.35}, {"pitch": 62, "velocity": 67, "note_on_time": 9.058, "note_off_time": 9.996}, {"pitch": 65, "velocity": 64, "note_on_time": 10.004, "note_off_time": 10.74}, {"pitch": 65, "velocity": 52, "note_on_time": 10.977, "note_off_time": 11.893}, {"pitch": 65, "velocity": 64, "note_on_time": 13.681, "note_off_time": 14.638}, {"pitch": 64, "velocity": 65, "note_on_time": 14.66, "note_off_time": 15.557}, {"pitch": 67, "velocity": 71, "note_on_time": 15.565, "note_off_time": 16.546}, {"pitch": 62, "velocity": 54, "note_on_time": 16.552, "note_off_time": 17.543}, {"pitch": 67, "velocity": 55, "note_on_time": 17.632, "note_off_time": 18.265}, {"pitch": 67, "velocity": 72, "note_on_time": 18.584, "note_off_time": 19.556}, {"pitch": 62, "velocity": 13, "note_on_time": 19.602, "note_off_time": 20.554}, {"pitch": 64, "velocity": 59, "note_on_time": 20.557, "note_off_time": 21.551}, {"pitch": 62, "velocity": 65, "note_on_time": 21.59, "note_off_time": 22.636}, {"pitch": 67, "velocity": 71, "note_on_time": 22.621, "note_off_time": 23.561}, {"pitch": 64, "velocity": 61, "note_on_time": 23.573, "note_off_time": 24.479}, {"pitch": 67, "velocity": 62, "note_on_time": 24.485, "note_off_time": 25.315}, {"pitch": 60, "velocity": 60, "note_on_time": 25.346, "note_off_time": 26.245}, {"pitch": 64, "velocity": 64, "note_on_time": 26.238, "note_off_time": 27.168}, {"pitch": 67, "velocity": 68, "note_on_time": 27.186, "note_off_time": 28.064}, {"pitch": 60, "velocity": 62, "note_on_time": 28.077, "note_off_time": 28.985}, {"pitch": 65, "velocity": 68, "note_on_time": 28.983, "note_off_time": 29.725}, {"pitch": 65, "velocity": 42, "note_on_time": 31.018, "note_off_time": 31.13}, {"pitch": 64, "velocity": 75, "note_on_time": 31.139, "note_off_time": 31.609}, {"pitch": 64, "velocity": 73, "note_on_time": 31.996, "note_off_time": 32.515}, {"pitch": 64, "velocity": 73, "note_on_time": 32.914, "note_off_time": 34.033}]</notes><guidance name="Guidance Mode">None</guidance><error name="Error value">1.022560000000003</error></trial><trial trial_no="3" timestamp="2022_08_17-16_43_15"><notes name="Played Notes">[{"pitch": 60, "velocity": 65, "note_on_time": 3.753, "note_off_time": 4.746}, {"pitch": 64, "velocity": 66, "note_on_time": 4.702, "note_off_time": 5.309}, {"pitch": 64, "velocity": 65, "note_on_time": 5.64, "note_off_time": 6.581}, {"pitch": 62, "velocity": 64, "note_on_time": 6.605, "note_off_time": 7.119}, {"pitch": 62, "velocity": 67, "note_on_time": 7.577, "note_off_time": 8.724}, {"pitch": 62, "velocity": 64, "note_on_time": 9.468, "note_off_time": 10.404}, {"pitch": 65, "velocity": 66, "note_on_time": 10.387, "note_off_time": 10.869}, {"pitch": 65, "velocity": 65, "note_on_time": 11.314, "note_off_time": 11.9}, {"pitch": 65, "velocity": 71, "note_on_time": 14.0, "note_off_time": 14.883}, {"pitch": 64, "velocity": 72, "note_on_time": 14.9, "note_off_time": 15.797}, {"pitch": 67, "velocity": 71, "note_on_time": 15.823, "note_off_time": 16.752}, {"pitch": 62, "velocity": 63, "note_on_time": 16.767, "note_off_time": 17.706}, {"pitch": 67, "velocity": 78, "note_on_time": 17.709, "note_off_time": 18.264}, {"pitch": 67, "velocity": 77, "note_on_time": 18.653, "note_off_time": 19.572}, {"pitch": 64, "velocity": 66, "note_on_time": 19.581, "note_off_time": 20.441}, {"pitch": 65, "velocity": 67, "note_on_time": 20.469, "note_off_time": 21.379}, {"pitch": 64, "velocity": 65, "note_on_time": 21.376, "note_off_time": 22.346}, {"pitch": 67, "velocity": 71, "note_on_time": 22.346, "note_off_time": 23.224}, {"pitch": 64, "velocity": 67, "note_on_time": 23.246, "note_off_time": 24.236}, {"pitch": 67, "velocity": 73, "note_on_time": 24.221, "note_off_time": 25.132}, {"pitch": 60, "velocity": 64, "note_on_time": 25.147, "note_off_time": 26.056}, {"pitch": 64, "velocity": 76, "note_on_time": 26.045, "note_off_time": 26.948}, {"pitch": 67, "velocity": 77, "note_on_time": 26.934, "note_off_time": 27.811}, {"pitch": 60, "velocity": 64, "note_on_time": 27.823, "note_off_time": 28.729}, {"pitch": 65, "velocity": 79, "note_on_time": 28.71, "note_off_time": 29.278}, {"pitch": 64, "velocity": 78, "note_on_time": 30.513, "note_off_time": 31.063}, {"pitch": 64, "velocity": 51, "note_on_time": 31.465, "note_off_time": 32.002}, {"pitch": 64, "velocity": 81, "note_on_time": 32.402, "note_off_time": 32.824}]</notes><guidance name="Guidance Mode">None</guidance><error name="Error value">0.4620400000000005</error></trial><trial trial_no="4" timestamp="2022_08_17-16_44_09"><notes name="Played Notes">[{"pitch": 60, "velocity": 65, "note_on_time": 4.336, "note_off_time": 5.42}, {"pitch": 64, "velocity": 71, "note_on_time": 5.363, "note_off_time": 5.936}, {"pitch": 64, "velocity": 65, "note_on_time": 6.357, "note_off_time": 7.329}, {"pitch": 62, "velocity": 58, "note_on_time": 7.355, "note_off_time": 7.86}, {"pitch": 62, "velocity": 60, "note_on_time": 8.359, "note_off_time": 9.622}, {"pitch": 62, "velocity": 66, "note_on_time": 10.395, "note_off_time": 11.426}, {"pitch": 65, "velocity": 69, "note_on_time": 11.408, "note_off_time": 12.05}, {"pitch": 65, "velocity": 67, "note_on_time": 12.388, "note_off_time": 12.98}, {"pitch": 65, "velocity": 63, "note_on_time": 15.304, "note_off_time": 16.26}, {"pitch": 64, "velocity": 71, "note_on_time": 16.269, "note_off_time": 17.211}, {"pitch": 67, "velocity": 77, "note_on_time": 17.23, "note_off_time": 18.174}, {"pitch": 62, "velocity": 54, "note_on_time": 18.191, "note_off_time": 19.149}, {"pitch": 67, "velocity": 78, "note_on_time": 19.147, "note_off_time": 19.599}, {"pitch": 67, "velocity": 71, "note_on_time": 20.113, "note_off_time": 21.058}, {"pitch": 64, "velocity": 56, "note_on_time": 21.059, "note_off_time": 21.994}, {"pitch": 65, "velocity": 67, "note_on_time": 21.993, "note_off_time": 22.959}, {"pitch": 64, "velocity": 71, "note_on_time": 22.963, "note_off_time": 23.895}, {"pitch": 67, "velocity": 75, "note_on_time": 23.915, "note_off_time": 24.827}, {"pitch": 64, "velocity": 66, "note_on_time": 24.839, "note_off_time": 25.78}, {"pitch": 67, "velocity": 65, "note_on_time": 25.789, "note_off_time": 26.667}, {"pitch": 60, "velocity": 65, "note_on_time": 26.693, "note_off_time": 27.654}, {"pitch": 64, "velocity": 66, "note_on_time": 27.649, "note_off_time": 28.596}, {"pitch": 67, "velocity": 77, "note_on_time": 28.597, "note_off_time": 29.499}, {"pitch": 60, "velocity": 66, "note_on_time": 29.504, "note_off_time": 30.447}, {"pitch": 65, "velocity": 67, "note_on_time": 30.437, "note_off_time": 30.982}, {"pitch": 65, "velocity": 77, "note_on_time": 32.294, "note_off_time": 32.762}, {"pitch": 65, "velocity": 79, "note_on_time": 33.203, "note_off_time": 33.669}, {"pitch": 65, "velocity": 78, "note_on_time": 34.111, "note_off_time": 34.699}]</notes><guidance name="Guidance Mode">None</guidance><error name="Error value">0.2970000000000007</error></trial><trial trial_no="5" timestamp="2022_08_17-16_45_01"><notes name="Played Notes">[{"pitch": 60, "velocity": 67, "note_on_time": 7.177, "note_off_time": 8.189}, {"pitch": 64, "velocity": 62, "note_on_time": 8.167, "note_off_time": 8.692}, {"pitch": 64, "velocity": 68, "note_on_time": 9.094, "note_off_time": 10.066}, {"pitch": 62, "velocity": 68, "note_on_time": 10.076, "note_off_time": 10.6}, {"pitch": 62, "velocity": 72, "note_on_time": 11.03, "note_off_time": 12.102}, {"pitch": 62, "velocity": 69, "note_on_time": 12.9, "note_off_time": 13.786}, {"pitch": 65, "velocity": 75, "note_on_time": 13.791, "note_off_time": 14.259}, {"pitch": 65, "velocity": 73, "note_on_time": 14.656, "note_off_time": 15.33}, {"pitch": 65, "velocity": 73, "note_on_time": 17.354, "note_off_time": 18.229}, {"pitch": 64, "velocity": 74, "note_on_time": 18.247, "note_off_time": 19.154}, {"pitch": 67, "velocity": 75, "note_on_time": 19.164, "note_off_time": 20.034}, {"pitch": 62, "velocity": 72, "note_on_time": 20.051, "note_off_time": 20.963}, {"pitch": 67, "velocity": 77, "note_on_time": 20.95, "note_off_time": 21.418}, {"pitch": 67, "velocity": 75, "note_on_time": 21.851, "note_off_time": 22.757}, {"pitch": 64, "velocity": 65, "note_on_time": 22.77, "note_off_time": 23.667}, {"pitch": 65, "velocity": 67, "note_on_time": 23.68, "note_off_time": 24.582}, {"pitch": 64, "velocity": 71, "note_on_time": 24.579, "note_off_time": 25.483}, {"pitch": 67, "velocity": 72, "note_on_time": 25.481, "note_off_time": 26.413}, {"pitch": 64, "velocity": 61, "note_on_time": 26.408, "note_off_time": 27.336}, {"pitch": 67, "velocity": 76, "note_on_time": 27.321, "note_off_time": 28.207}, {"pitch": 60, "velocity": 68, "note_on_time": 28.233, "note_off_time": 29.171}, {"pitch": 64, "velocity": 74, "note_on_time": 29.144, "note_off_time": 30.05}, {"pitch": 67, "velocity": 76, "note_on_time": 30.044, "note_off_time": 30.934}, {"pitch": 60, "velocity": 67, "note_on_time": 30.938, "note_off_time": 31.859}, {"pitch": 65, "velocity": 71, "note_on_time": 31.857, "note_off_time": 32.66}, {"pitch": 65, "velocity": 73, "note_on_time": 33.709, "note_off_time": 34.292}, {"pitch": 65, "velocity": 71, "note_on_time": 34.598, "note_off_time": 35.16}, {"pitch": 65, "velocity": 77, "note_on_time": 35.525, "note_off_time": 36.307}]</notes><guidance name="Guidance Mode">None</guidance><error name="Error value">0.35408000000000056</error></trial><trial trial_no="6" timestamp="2022_08_17-16_45_58"><notes name="Played Notes">[{"pitch": 60, "velocity": 78, "note_on_time": 4.196, "note_off_time": 5.216}, {"pitch": 64, "velocity": 80, "note_on_time": 5.182, "note_off_time": 5.836}, {"pitch": 64, "velocity": 76, "note_on_time": 6.153, "note_off_time": 7.09}, {"pitch": 62, "velocity": 68, "note_on_time": 7.093, "note_off_time": 7.929}, {"pitch": 62, "velocity": 62, "note_on_time": 8.058, "note_off_time": 9.544}, {"pitch": 62, "velocity": 77, "note_on_time": 10.02, "note_off_time": 10.907}, {"pitch": 64, "velocity": 68, "note_on_time": 10.929, "note_off_time": 11.832}, {"pitch": 65, "velocity": 54, "note_on_time": 11.888, "note_off_time": 12.127}, {"pitch": 65, "velocity": 70, "note_on_time": 13.716, "note_off_time": 14.605}, {"pitch": 64, "velocity": 68, "note_on_time": 14.626, "note_off_time": 15.536}, {"pitch": 67, "velocity": 75, "note_on_time": 15.566, "note_off_time": 16.538}, {"pitch": 64, "velocity": 64, "note_on_time": 16.543, "note_off_time": 17.481}, {"pitch": 67, "velocity": 69, "note_on_time": 17.491, "note_off_time": 18.113}, {"pitch": 67, "velocity": 73, "note_on_time": 18.435, "note_off_time": 19.315}, {"pitch": 62, "velocity": 57, "note_on_time": 19.352, "note_off_time": 20.31}, {"pitch": 65, "velocity": 66, "note_on_time": 20.308, "note_off_time": 21.268}, {"pitch": 64, "velocity": 71, "note_on_time": 21.277, "note_off_time": 22.244}, {"pitch": 67, "velocity": 69, "note_on_time": 22.265, "note_off_time": 23.195}, {"pitch": 62, "velocity": 69, "note_on_time": 23.204, "note_off_time": 24.19}, {"pitch": 67, "velocity": 72, "note_on_time": 24.175, "note_off_time": 25.09}, {"pitch": 60, "velocity": 68, "note_on_time": 25.111, "note_off_time": 25.966}, {"pitch": 64, "velocity": 69, "note_on_time": 25.996, "note_off_time": 26.967}, {"pitch": 67, "velocity": 79, "note_on_time": 26.967, "note_off_time": 27.904}, {"pitch": 60, "velocity": 69, "note_on_time": 27.918, "note_off_time": 28.858}, {"pitch": 65, "velocity": 87, "note_on_time": 28.836, "note_off_time": 29.743}, {"pitch": 65, "velocity": 78, "note_on_time": 30.598, "note_off_time": 31.117}, {"pitch": 65, "velocity": 73, "note_on_time": 31.486, "note_off_time": 31.951}, {"pitch": 65, "velocity": 76, "note_on_time": 32.375, "note_off_time": 33.268}]</notes><guidance name="Guidance Mode">None</guidance><error name="Error value">0.5208400000000006</error></trial><trial trial_no="7" timestamp="2022_08_17-16_46_53"><notes name="Played Notes">[{"pitch": 60, "velocity": 72, "note_on_time": 4.904, "note_off_time": 6.101}, {"pitch": 64, "velocity": 68, "note_on_time": 6.059, "note_off_time": 6.869}, {"pitch": 64, "velocity": 71, "note_on_time": 7.248, "note_off_time": 8.366}, {"pitch": 62, "velocity": 65, "note_on_time": 8.393, "note_off_time": 9.139}, {"pitch": 62, "velocity": 73, "note_on_time": 9.606, "note_off_time": 11.573}, {"pitch": 62, "velocity": 63, "note_on_time": 12.025, "note_off_time": 13.163}, {"pitch": 65, "velocity": 61, "note_on_time": 13.168, "note_off_time": 13.894}, {"pitch": 65, "velocity": 71, "note_on_time": 14.346, "note_off_time": 15.362}, {"pitch": 65, "velocity": 81, "note_on_time": 17.984, "note_off_time": 19.186}, {"pitch": 64, "velocity": 72, "note_on_time": 19.202, "note_off_time": 20.409}, {"pitch": 67, "velocity": 70, "note_on_time": 20.423, "note_off_time": 21.63}, {"pitch": 62, "velocity": 60, "note_on_time": 21.655, "note_off_time": 22.953}, {"pitch": 67, "velocity": 68, "note_on_time": 22.925, "note_off_time": 23.581}, {"pitch": 67, "velocity": 68, "note_on_time": 24.171, "note_off_time": 25.352}, {"pitch": 62, "velocity": 60, "note_on_time": 25.367, "note_off_time": 26.491}, {"pitch": 64, "velocity": 65, "note_on_time": 26.486, "note_off_time": 27.775}, {"pitch": 62, "velocity": 59, "note_on_time": 27.8, "note_off_time": 28.917}, {"pitch": 67, "velocity": 73, "note_on_time": 28.916, "note_off_time": 30.022}, {"pitch": 64, "velocity": 56, "note_on_time": 30.043, "note_off_time": 31.247}, {"pitch": 67, "velocity": 62, "note_on_time": 31.263, "note_off_time": 32.399}, {"pitch": 60, "velocity": 63, "note_on_time": 32.416, "note_off_time": 33.628}, {"pitch": 64, "velocity": 70, "note_on_time": 33.61, "note_off_time": 34.876}, {"pitch": 67, "velocity": 76, "note_on_time": 34.874, "note_off_time": 36.077}, {"pitch": 60, "velocity": 70, "note_on_time": 36.092, "note_off_time": 37.35}, {"pitch": 65, "velocity": 70, "note_on_time": 37.349, "note_off_time": 38.389}, {"pitch": 65, "velocity": 64, "note_on_time": 39.743, "note_off_time": 40.479}, {"pitch": 65, "velocity": 67, "note_on_time": 40.952, "note_off_time": 41.773}, {"pitch": 65, "velocity": 73, "note_on_time": 42.198, "note_off_time": 43.331}]</notes><guidance name="Guidance Mode">None</guidance><error name="Error value">0.16303999999999977</error></trial></trials></MIDI>