<MIDI midiNo="2022_10_27-13_48_06"><target_notes><notes name="Note List">[{"pitch": 42, "velocity": 80, "note_on_time": 0.004, "note_off_time": 0.297}, {"pitch": 42, "velocity": 80, "note_on_time": 0.297, "note_off_time": 0.592}, {"pitch": 42, "velocity": 80, "note_on_time": 0.592, "note_off_time": 0.872}, {"pitch": 42, "velocity": 80, "note_on_time": 0.872, "note_off_time": 1.154}, {"pitch": 60, "velocity": 80, "note_on_time": 1.154, "note_off_time": 1.435}, {"pitch": 42, "velocity": 80, "note_on_time": 1.154, "note_off_time": 1.435}, {"pitch": 64, "velocity": 80, "note_on_time": 1.435, "note_off_time": 1.719}, {"pitch": 42, "velocity": 80, "note_on_time": 1.435, "note_off_time": 1.719}, {"pitch": 62, "velocity": 80, "note_on_time": 1.719, "note_off_time": 1.999}, {"pitch": 42, "velocity": 80, "note_on_time": 1.719, "note_off_time": 1.999}, {"pitch": 60, "velocity": 80, "note_on_time": 1.999, "note_off_time": 2.292}, {"pitch": 42, "velocity": 80, "note_on_time": 1.999, "note_off_time": 2.292}, {"pitch": 42, "velocity": 80, "note_on_time": 2.292, "note_off_time": 2.587}, {"pitch": 65, "velocity": 80, "note_on_time": 2.292, "note_off_time": 2.883}, {"pitch": 42, "velocity": 80, "note_on_time": 2.587, "note_off_time": 2.883}, {"pitch": 42, "velocity": 80, "note_on_time": 2.883, "note_off_time": 3.163}, {"pitch": 42, "velocity": 80, "note_on_time": 3.163, "note_off_time": 3.443}, {"pitch": 62, "velocity": 80, "note_on_time": 3.443, "note_off_time": 3.738}, {"pitch": 42, "velocity": 80, "note_on_time": 3.443, "note_off_time": 3.738}, {"pitch": 60, "velocity": 80, "note_on_time": 3.738, "note_off_time": 4.02}, {"pitch": 42, "velocity": 80, "note_on_time": 3.738, "note_off_time": 4.02}, {"pitch": 42, "velocity": 80, "note_on_time": 4.02, "note_off_time": 4.315}, {"pitch": 65, "velocity": 80, "note_on_time": 4.02, "note_off_time": 4.596}, {"pitch": 42, "velocity": 80, "note_on_time": 4.315, "note_off_time": 4.596}, {"pitch": 67, "velocity": 80, "note_on_time": 4.596, "note_off_time": 4.891}, {"pitch": 42, "velocity": 80, "note_on_time": 4.596, "note_off_time": 4.891}, {"pitch": 42, "velocity": 80, "note_on_time": 4.891, "note_off_time": 5.172}, {"pitch": 60, "velocity": 80, "note_on_time": 5.172, "note_off_time": 5.452}, {"pitch": 42, "velocity": 80, "note_on_time": 5.172, "note_off_time": 5.452}, {"pitch": 65, "velocity": 80, "note_on_time": 5.452, "note_off_time": 5.733}, {"pitch": 42, "velocity": 80, "note_on_time": 5.452, "note_off_time": 5.733}, {"pitch": 42, "velocity": 80, "note_on_time": 5.733, "note_off_time": 6.027}, {"pitch": 65, "velocity": 80, "note_on_time": 5.733, "note_off_time": 6.322}, {"pitch": 42, "velocity": 80, "note_on_time": 6.027, "note_off_time": 6.322}, {"pitch": 42, "velocity": 80, "note_on_time": 6.322, "note_off_time": 6.605}, {"pitch": 42, "velocity": 80, "note_on_time": 6.605, "note_off_time": 6.901}, {"pitch": 62, "velocity": 80, "note_on_time": 6.901, "note_off_time": 7.182}, {"pitch": 42, "velocity": 80, "note_on_time": 6.901, "note_off_time": 7.182}, {"pitch": 67, "velocity": 80, "note_on_time": 7.182, "note_off_time": 7.476}, {"pitch": 42, "velocity": 80, "note_on_time": 7.182, "note_off_time": 7.476}, {"pitch": 65, "velocity": 80, "note_on_time": 7.476, "note_off_time": 7.771}, {"pitch": 42, "velocity": 80, "note_on_time": 7.476, "note_off_time": 7.771}, {"pitch": 60, "velocity": 80, "note_on_time": 7.771, "note_off_time": 8.067}, {"pitch": 42, "velocity": 80, "note_on_time": 7.771, "note_off_time": 8.067}, {"pitch": 60, "velocity": 80, "note_on_time": 8.067, "note_off_time": 8.361}, {"pitch": 42, "velocity": 80, "note_on_time": 8.067, "note_off_time": 8.361}, {"pitch": 64, "velocity": 80, "note_on_time": 8.361, "note_off_time": 8.656}, {"pitch": 42, "velocity": 80, "note_on_time": 8.361, "note_off_time": 8.656}, {"pitch": 67, "velocity": 80, "note_on_time": 8.656, "note_off_time": 8.951}, {"pitch": 42, "velocity": 80, "note_on_time": 8.656, "note_off_time": 8.951}, {"pitch": 67, "velocity": 80, "note_on_time": 8.951, "note_off_time": 9.246}, {"pitch": 42, "velocity": 80, "note_on_time": 8.951, "note_off_time": 9.246}, {"pitch": 42, "velocity": 80, "note_on_time": 9.246, "note_off_time": 9.527}, {"pitch": 67, "velocity": 80, "note_on_time": 9.527, "note_off_time": 9.808}, {"pitch": 42, "velocity": 80, "note_on_time": 9.527, "note_off_time": 9.808}, {"pitch": 67, "velocity": 80, "note_on_time": 9.808, "note_off_time": 10.104}, {"pitch": 42, "velocity": 80, "note_on_time": 9.808, "note_off_time": 10.104}, {"pitch": 67, "velocity": 80, "note_on_time": 10.104, "note_off_time": 10.399}, {"pitch": 42, "velocity": 80, "note_on_time": 10.104, "note_off_time": 10.399}]</notes><options name="Option List">((4, 4), [0.5, 0.25], 3, 8, &lt;NoteRangePerHand.C_TO_G: 6&gt;, &lt;NoteRangePerHand.ONE_NOTE: 2&gt;, False, True, False, '215')</options></target_notes><trials><trial trial_no="1" timestamp="2022_10_27-13_47_54"><notes name="Played Notes">[{"pitch": 72, "velocity": 69, "note_on_time": 1.054, "note_off_time": 1.227}, {"pitch": 76, "velocity": 74, "note_on_time": 1.348, "note_off_time": 1.591}, {"pitch": 74, "velocity": 62, "note_on_time": 1.625, "note_off_time": 1.832}, {"pitch": 72, "velocity": 72, "note_on_time": 1.914, "note_off_time": 2.056}, {"pitch": 77, "velocity": 80, "note_on_time": 2.224, "note_off_time": 2.668}, {"pitch": 74, "velocity": 70, "note_on_time": 3.403, "note_off_time": 3.637}, {"pitch": 72, "velocity": 70, "note_on_time": 3.678, "note_off_time": 3.85}, {"pitch": 77, "velocity": 81, "note_on_time": 3.99, "note_off_time": 4.434}, {"pitch": 79, "velocity": 82, "note_on_time": 4.568, "note_off_time": 4.983}, {"pitch": 72, "velocity": 71, "note_on_time": 5.193, "note_off_time": 5.319}, {"pitch": 76, "velocity": 81, "note_on_time": 5.507, "note_off_time": 5.632}, {"pitch": 76, "velocity": 63, "note_on_time": 5.823, "note_off_time": 5.984}, {"pitch": 74, "velocity": 74, "note_on_time": 6.978, "note_off_time": 7.134}, {"pitch": 79, "velocity": 76, "note_on_time": 7.289, "note_off_time": 7.466}, {"pitch": 77, "velocity": 72, "note_on_time": 7.586, "note_off_time": 7.77}, {"pitch": 72, "velocity": 74, "note_on_time": 7.87, "note_off_time": 7.988}, {"pitch": 72, "velocity": 69, "note_on_time": 8.168, "note_off_time": 8.325}, {"pitch": 76, "velocity": 78, "note_on_time": 8.479, "note_off_time": 8.62}, {"pitch": 79, "velocity": 75, "note_on_time": 8.766, "note_off_time": 8.917}, {"pitch": 79, "velocity": 82, "note_on_time": 9.074, "note_off_time": 9.254}, {"pitch": 79, "velocity": 76, "note_on_time": 9.65, "note_off_time": 9.799}, {"pitch": 79, "velocity": 76, "note_on_time": 9.962, "note_off_time": 10.109}]</notes><guidance name="Guidance Mode">None</guidance><error name="Error value">1.1913637500000003</error></trial><trial trial_no="2" timestamp="2022_10_27-13_48_17"><notes name="Played Notes">[{"pitch": 72, "velocity": 73, "note_on_time": 1.117, "note_off_time": 1.293}, {"pitch": 76, "velocity": 74, "note_on_time": 1.413, "note_off_time": 1.619}, {"pitch": 74, "velocity": 78, "note_on_time": 1.711, "note_off_time": 1.889}, {"pitch": 72, "velocity": 77, "note_on_time": 2.001, "note_off_time": 2.124}, {"pitch": 77, "velocity": 84, "note_on_time": 2.303, "note_off_time": 2.75}, {"pitch": 74, "velocity": 76, "note_on_time": 3.521, "note_off_time": 3.744}, {"pitch": 72, "velocity": 76, "note_on_time": 3.803, "note_off_time": 3.931}, {"pitch": 77, "velocity": 79, "note_on_time": 4.101, "note_off_time": 4.552}, {"pitch": 79, "velocity": 85, "note_on_time": 4.728, "note_off_time": 4.97}, {"pitch": 72, "velocity": 78, "note_on_time": 5.346, "note_off_time": 5.477}, {"pitch": 77, "velocity": 84, "note_on_time": 5.643, "note_off_time": 5.774}, {"pitch": 77, "velocity": 84, "note_on_time": 5.959, "note_off_time": 6.372}, {"pitch": 74, "velocity": 78, "note_on_time": 7.202, "note_off_time": 7.331}, {"pitch": 79, "velocity": 78, "note_on_time": 7.502, "note_off_time": 7.674}, {"pitch": 77, "velocity": 79, "note_on_time": 7.817, "note_off_time": 7.973}, {"pitch": 72, "velocity": 78, "note_on_time": 8.103, "note_off_time": 8.214}, {"pitch": 72, "velocity": 91, "note_on_time": 8.498, "note_off_time": 8.612}, {"pitch": 76, "velocity": 76, "note_on_time": 8.825, "note_off_time": 8.956}, {"pitch": 79, "velocity": 78, "note_on_time": 9.104, "note_off_time": 9.252}, {"pitch": 79, "velocity": 84, "note_on_time": 9.412, "note_off_time": 9.558}, {"pitch": 79, "velocity": 81, "note_on_time": 10.004, "note_off_time": 10.147}]</notes><guidance name="Guidance Mode">None</guidance><error name="Error value">1.2206448</error></trial><trial trial_no="3" timestamp="2022_10_27-13_48_40"><notes name="Played Notes">[{"pitch": 72, "velocity": 74, "note_on_time": 1.233, "note_off_time": 1.388}, {"pitch": 76, "velocity": 78, "note_on_time": 1.517, "note_off_time": 1.716}, {"pitch": 74, "velocity": 76, "note_on_time": 1.813, "note_off_time": 1.989}, {"pitch": 72, "velocity": 82, "note_on_time": 2.089, "note_off_time": 2.205}, {"pitch": 77, "velocity": 87, "note_on_time": 2.406, "note_off_time": 2.832}, {"pitch": 74, "velocity": 79, "note_on_time": 3.573, "note_off_time": 3.75}, {"pitch": 72, "velocity": 78, "note_on_time": 3.846, "note_off_time": 3.968}, {"pitch": 77, "velocity": 84, "note_on_time": 4.166, "note_off_time": 4.594}, {"pitch": 79, "velocity": 87, "note_on_time": 4.738, "note_off_time": 4.943}, {"pitch": 72, "velocity": 75, "note_on_time": 5.345, "note_off_time": 5.469}, {"pitch": 77, "velocity": 81, "note_on_time": 5.622, "note_off_time": 5.748}, {"pitch": 77, "velocity": 86, "note_on_time": 5.939, "note_off_time": 6.279}, {"pitch": 74, "velocity": 74, "note_on_time": 7.075, "note_off_time": 7.224}, {"pitch": 79, "velocity": 80, "note_on_time": 7.363, "note_off_time": 7.528}, {"pitch": 77, "velocity": 78, "note_on_time": 7.649, "note_off_time": 7.808}, {"pitch": 72, "velocity": 70, "note_on_time": 7.937, "note_off_time": 8.038}, {"pitch": 72, "velocity": 73, "note_on_time": 8.232, "note_off_time": 8.347}, {"pitch": 76, "velocity": 74, "note_on_time": 8.505, "note_off_time": 8.642}, {"pitch": 79, "velocity": 80, "note_on_time": 8.802, "note_off_time": 8.942}, {"pitch": 79, "velocity": 79, "note_on_time": 9.084, "note_off_time": 9.248}, {"pitch": 79, "velocity": 83, "note_on_time": 9.691, "note_off_time": 9.818}, {"pitch": 79, "velocity": 72, "note_on_time": 9.991, "note_off_time": 10.124}, {"pitch": 79, "velocity": 72, "note_on_time": 10.257, "note_off_time": 10.372}]</notes><guidance name="Guidance Mode">None</guidance><error name="Error value">1.1716775499999998</error></trial><trial trial_no="4" timestamp="2022_10_27-13_49_16"><notes name="Played Notes">[{"pitch": 72, "velocity": 73, "note_on_time": 1.239, "note_off_time": 1.378}, {"pitch": 76, "velocity": 78, "note_on_time": 1.519, "note_off_time": 1.698}, {"pitch": 74, "velocity": 84, "note_on_time": 1.795, "note_off_time": 1.97}, {"pitch": 72, "velocity": 77, "note_on_time": 2.079, "note_off_time": 2.203}, {"pitch": 77, "velocity": 83, "note_on_time": 2.38, "note_off_time": 2.804}, {"pitch": 74, "velocity": 79, "note_on_time": 3.565, "note_off_time": 3.774}, {"pitch": 72, "velocity": 73, "note_on_time": 3.854, "note_off_time": 3.977}, {"pitch": 77, "velocity": 84, "note_on_time": 4.173, "note_off_time": 4.579}, {"pitch": 79, "velocity": 82, "note_on_time": 4.741, "note_off_time": 5.134}, {"pitch": 72, "velocity": 74, "note_on_time": 5.347, "note_off_time": 5.499}, {"pitch": 77, "velocity": 84, "note_on_time": 5.643, "note_off_time": 5.767}, {"pitch": 77, "velocity": 84, "note_on_time": 5.943, "note_off_time": 6.366}, {"pitch": 74, "velocity": 73, "note_on_time": 7.115, "note_off_time": 7.271}, {"pitch": 79, "velocity": 79, "note_on_time": 7.421, "note_off_time": 7.591}, {"pitch": 77, "velocity": 72, "note_on_time": 7.73, "note_off_time": 7.901}, {"pitch": 72, "velocity": 77, "note_on_time": 8.012, "note_off_time": 8.114}, {"pitch": 72, "velocity": 73, "note_on_time": 8.309, "note_off_time": 8.45}, {"pitch": 76, "velocity": 76, "note_on_time": 8.595, "note_off_time": 8.745}, {"pitch": 79, "velocity": 84, "note_on_time": 8.886, "note_off_time": 9.026}, {"pitch": 79, "velocity": 90, "note_on_time": 9.178, "note_off_time": 9.333}, {"pitch": 79, "velocity": 78, "note_on_time": 9.771, "note_off_time": 9.916}, {"pitch": 79, "velocity": 77, "note_on_time": 10.084, "note_off_time": 10.229}]</notes><guidance name="Guidance Mode">None</guidance><error name="Error value">1.1879068500000003</error></trial><trial trial_no="5" timestamp="2022_10_27-13_49_44"><notes name="Played Notes">[{"pitch": 72, "velocity": 73, "note_on_time": 1.88, "note_off_time": 2.03}, {"pitch": 76, "velocity": 72, "note_on_time": 2.173, "note_off_time": 2.362}, {"pitch": 74, "velocity": 73, "note_on_time": 2.461, "note_off_time": 2.626}, {"pitch": 72, "velocity": 73, "note_on_time": 2.737, "note_off_time": 2.862}, {"pitch": 77, "velocity": 90, "note_on_time": 3.039, "note_off_time": 3.436}, {"pitch": 74, "velocity": 74, "note_on_time": 4.19, "note_off_time": 4.382}, {"pitch": 72, "velocity": 76, "note_on_time": 4.496, "note_off_time": 4.621}, {"pitch": 77, "velocity": 87, "note_on_time": 4.82, "note_off_time": 5.215}, {"pitch": 79, "velocity": 78, "note_on_time": 5.386, "note_off_time": 5.627}, {"pitch": 72, "velocity": 71, "note_on_time": 5.97, "note_off_time": 6.097}, {"pitch": 77, "velocity": 84, "note_on_time": 6.262, "note_off_time": 6.388}, {"pitch": 77, "velocity": 83, "note_on_time": 6.561, "note_off_time": 6.918}, {"pitch": 74, "velocity": 77, "note_on_time": 7.734, "note_off_time": 7.88}, {"pitch": 79, "velocity": 79, "note_on_time": 8.007, "note_off_time": 8.166}, {"pitch": 77, "velocity": 77, "note_on_time": 8.308, "note_off_time": 8.464}, {"pitch": 72, "velocity": 77, "note_on_time": 8.589, "note_off_time": 8.694}, {"pitch": 72, "velocity": 73, "note_on_time": 8.87, "note_off_time": 8.988}, {"pitch": 76, "velocity": 75, "note_on_time": 9.157, "note_off_time": 9.283}, {"pitch": 79, "velocity": 76, "note_on_time": 9.444, "note_off_time": 9.559}, {"pitch": 79, "velocity": 78, "note_on_time": 9.733, "note_off_time": 9.879}]</notes><guidance name="Guidance Mode">None</guidance><error name="Error value">1.21880515</error></trial></trials></MIDI>