<MIDI midiNo="2022_11_23-17_02_26"><target_notes><notes name="Note List">[{"pitch": 42, "velocity": 80, "note_on_time": 0.004, "note_off_time": 0.225}, {"pitch": 42, "velocity": 80, "note_on_time": 0.225, "note_off_time": 0.442}, {"pitch": 42, "velocity": 80, "note_on_time": 0.442, "note_off_time": 0.661}, {"pitch": 42, "velocity": 80, "note_on_time": 0.661, "note_off_time": 0.878}, {"pitch": 64, "velocity": 80, "note_on_time": 0.878, "note_off_time": 1.097}, {"pitch": 42, "velocity": 80, "note_on_time": 0.878, "note_off_time": 1.097}, {"pitch": 67, "velocity": 80, "note_on_time": 1.097, "note_off_time": 1.314}, {"pitch": 42, "velocity": 80, "note_on_time": 1.097, "note_off_time": 1.314}, {"pitch": 64, "velocity": 80, "note_on_time": 1.314, "note_off_time": 1.531}, {"pitch": 42, "velocity": 80, "note_on_time": 1.314, "note_off_time": 1.531}, {"pitch": 60, "velocity": 80, "note_on_time": 1.531, "note_off_time": 1.747}, {"pitch": 42, "velocity": 80, "note_on_time": 1.531, "note_off_time": 1.747}, {"pitch": 62, "velocity": 80, "note_on_time": 1.747, "note_off_time": 1.965}, {"pitch": 42, "velocity": 80, "note_on_time": 1.747, "note_off_time": 1.965}, {"pitch": 60, "velocity": 80, "note_on_time": 1.965, "note_off_time": 2.183}, {"pitch": 42, "velocity": 80, "note_on_time": 1.965, "note_off_time": 2.183}, {"pitch": 60, "velocity": 80, "note_on_time": 2.183, "note_off_time": 2.399}, {"pitch": 42, "velocity": 80, "note_on_time": 2.183, "note_off_time": 2.399}, {"pitch": 65, "velocity": 80, "note_on_time": 2.399, "note_off_time": 2.616}, {"pitch": 42, "velocity": 80, "note_on_time": 2.4, "note_off_time": 2.616}, {"pitch": 62, "velocity": 80, "note_on_time": 2.616, "note_off_time": 2.834}, {"pitch": 42, "velocity": 80, "note_on_time": 2.616, "note_off_time": 2.834}, {"pitch": 42, "velocity": 80, "note_on_time": 2.834, "note_off_time": 3.052}, {"pitch": 42, "velocity": 80, "note_on_time": 3.052, "note_off_time": 3.268}, {"pitch": 42, "velocity": 80, "note_on_time": 3.268, "note_off_time": 3.487}, {"pitch": 62, "velocity": 80, "note_on_time": 3.487, "note_off_time": 3.703}, {"pitch": 42, "velocity": 80, "note_on_time": 3.487, "note_off_time": 3.703}, {"pitch": 42, "velocity": 80, "note_on_time": 3.703, "note_off_time": 3.919}, {"pitch": 42, "velocity": 80, "note_on_time": 3.919, "note_off_time": 4.135}, {"pitch": 67, "velocity": 80, "note_on_time": 4.135, "note_off_time": 4.352}, {"pitch": 42, "velocity": 80, "note_on_time": 4.135, "note_off_time": 4.352}, {"pitch": 42, "velocity": 80, "note_on_time": 4.352, "note_off_time": 4.571}, {"pitch": 64, "velocity": 80, "note_on_time": 4.352, "note_off_time": 4.789}, {"pitch": 42, "velocity": 80, "note_on_time": 4.571, "note_off_time": 4.789}, {"pitch": 64, "velocity": 80, "note_on_time": 4.789, "note_off_time": 5.006}, {"pitch": 42, "velocity": 80, "note_on_time": 4.789, "note_off_time": 5.006}, {"pitch": 65, "velocity": 80, "note_on_time": 5.006, "note_off_time": 5.223}, {"pitch": 42, "velocity": 80, "note_on_time": 5.006, "note_off_time": 5.223}, {"pitch": 67, "velocity": 80, "note_on_time": 5.223, "note_off_time": 5.44}, {"pitch": 42, "velocity": 80, "note_on_time": 5.223, "note_off_time": 5.44}, {"pitch": 60, "velocity": 80, "note_on_time": 5.44, "note_off_time": 5.657}, {"pitch": 42, "velocity": 80, "note_on_time": 5.44, "note_off_time": 5.657}, {"pitch": 62, "velocity": 80, "note_on_time": 5.657, "note_off_time": 5.876}, {"pitch": 42, "velocity": 80, "note_on_time": 5.657, "note_off_time": 5.877}, {"pitch": 62, "velocity": 80, "note_on_time": 5.876, "note_off_time": 6.093}, {"pitch": 42, "velocity": 80, "note_on_time": 5.877, "note_off_time": 6.093}, {"pitch": 67, "velocity": 80, "note_on_time": 6.093, "note_off_time": 6.31}, {"pitch": 42, "velocity": 80, "note_on_time": 6.093, "note_off_time": 6.31}, {"pitch": 60, "velocity": 80, "note_on_time": 6.31, "note_off_time": 6.528}, {"pitch": 42, "velocity": 80, "note_on_time": 6.31, "note_off_time": 6.528}, {"pitch": 65, "velocity": 80, "note_on_time": 6.528, "note_off_time": 6.744}, {"pitch": 42, "velocity": 80, "note_on_time": 6.528, "note_off_time": 6.744}, {"pitch": 65, "velocity": 80, "note_on_time": 6.744, "note_off_time": 6.962}, {"pitch": 42, "velocity": 80, "note_on_time": 6.744, "note_off_time": 6.962}, {"pitch": 42, "velocity": 80, "note_on_time": 6.962, "note_off_time": 7.18}, {"pitch": 65, "velocity": 80, "note_on_time": 7.18, "note_off_time": 7.396}, {"pitch": 42, "velocity": 80, "note_on_time": 7.18, "note_off_time": 7.396}, {"pitch": 65, "velocity": 80, "note_on_time": 7.396, "note_off_time": 7.612}, {"pitch": 42, "velocity": 80, "note_on_time": 7.396, "note_off_time": 7.612}, {"pitch": 65, "velocity": 80, "note_on_time": 7.612, "note_off_time": 7.828}, {"pitch": 42, "velocity": 80, "note_on_time": 7.612, "note_off_time": 7.828}]</notes><options name="Option List">((4, 4), [0.5, 0.25], 3, 8, &lt;NoteRangePerHand.C_TO_G: 6&gt;, &lt;NoteRangePerHand.ONE_NOTE: 2&gt;, False, True, True, 281)</options></target_notes><trials><trial trial_no="1" timestamp="2022_11_23-17_02_16"><notes name="Played Notes">[{"pitch": 64, "velocity": 82, "note_on_time": 1.03, "note_off_time": 1.245}, {"pitch": 67, "velocity": 74, "note_on_time": 1.246, "note_off_time": 1.479}, {"pitch": 64, "velocity": 64, "note_on_time": 1.468, "note_off_time": 1.71}, {"pitch": 60, "velocity": 67, "note_on_time": 1.719, "note_off_time": 1.848}, {"pitch": 62, "velocity": 66, "note_on_time": 1.966, "note_off_time": 2.066}, {"pitch": 60, "velocity": 59, "note_on_time": 2.214, "note_off_time": 2.288}, {"pitch": 60, "velocity": 70, "note_on_time": 2.464, "note_off_time": 2.578}, {"pitch": 65, "velocity": 65, "note_on_time": 2.692, "note_off_time": 2.794}, {"pitch": 62, "velocity": 75, "note_on_time": 2.926, "note_off_time": 3.138}, {"pitch": 62, "velocity": 72, "note_on_time": 3.752, "note_off_time": 3.936}, {"pitch": 67, "velocity": 76, "note_on_time": 4.205, "note_off_time": 4.405}, {"pitch": 64, "velocity": 73, "note_on_time": 4.658, "note_off_time": 5.098}, {"pitch": 64, "velocity": 73, "note_on_time": 5.507, "note_off_time": 5.729}, {"pitch": 65, "velocity": 63, "note_on_time": 5.751, "note_off_time": 5.966}, {"pitch": 67, "velocity": 70, "note_on_time": 5.983, "note_off_time": 6.136}, {"pitch": 60, "velocity": 58, "note_on_time": 6.193, "note_off_time": 6.354}, {"pitch": 62, "velocity": 60, "note_on_time": 6.417, "note_off_time": 6.513}, {"pitch": 62, "velocity": 56, "note_on_time": 6.643, "note_off_time": 6.767}, {"pitch": 67, "velocity": 70, "note_on_time": 6.874, "note_off_time": 7.021}, {"pitch": 60, "velocity": 60, "note_on_time": 7.089, "note_off_time": 7.199}, {"pitch": 65, "velocity": 25, "note_on_time": 7.343, "note_off_time": 7.423}, {"pitch": 65, "velocity": 51, "note_on_time": 7.543, "note_off_time": 7.666}]</notes><guidance name="Guidance Mode">None</guidance><error name="Error value">0.26356295454545453</error></trial></trials></MIDI>