<MIDI midiNo="2022_11_14-18_59_13"><target_notes><notes name="Note List">[{"pitch": 42, "velocity": 80, "note_on_time": 0.004, "note_off_time": 0.232}, {"pitch": 42, "velocity": 80, "note_on_time": 0.232, "note_off_time": 0.449}, {"pitch": 42, "velocity": 80, "note_on_time": 0.449, "note_off_time": 0.666}, {"pitch": 42, "velocity": 80, "note_on_time": 0.666, "note_off_time": 0.883}, {"pitch": 42, "velocity": 80, "note_on_time": 0.883, "note_off_time": 1.101}, {"pitch": 65, "velocity": 80, "note_on_time": 0.883, "note_off_time": 1.32}, {"pitch": 42, "velocity": 80, "note_on_time": 1.101, "note_off_time": 1.32}, {"pitch": 42, "velocity": 80, "note_on_time": 1.32, "note_off_time": 1.538}, {"pitch": 42, "velocity": 80, "note_on_time": 1.538, "note_off_time": 1.757}, {"pitch": 62, "velocity": 80, "note_on_time": 1.757, "note_off_time": 1.974}, {"pitch": 42, "velocity": 80, "note_on_time": 1.757, "note_off_time": 1.974}, {"pitch": 62, "velocity": 80, "note_on_time": 1.974, "note_off_time": 2.193}, {"pitch": 42, "velocity": 80, "note_on_time": 1.974, "note_off_time": 2.193}, {"pitch": 60, "velocity": 80, "note_on_time": 2.193, "note_off_time": 2.409}, {"pitch": 42, "velocity": 80, "note_on_time": 2.193, "note_off_time": 2.409}, {"pitch": 64, "velocity": 80, "note_on_time": 2.409, "note_off_time": 2.628}, {"pitch": 42, "velocity": 80, "note_on_time": 2.409, "note_off_time": 2.628}, {"pitch": 65, "velocity": 80, "note_on_time": 2.628, "note_off_time": 2.847}, {"pitch": 42, "velocity": 80, "note_on_time": 2.628, "note_off_time": 2.847}, {"pitch": 62, "velocity": 80, "note_on_time": 2.847, "note_off_time": 3.066}, {"pitch": 42, "velocity": 80, "note_on_time": 2.847, "note_off_time": 3.066}, {"pitch": 65, "velocity": 80, "note_on_time": 3.066, "note_off_time": 3.283}, {"pitch": 42, "velocity": 80, "note_on_time": 3.066, "note_off_time": 3.283}, {"pitch": 62, "velocity": 80, "note_on_time": 3.283, "note_off_time": 3.501}, {"pitch": 42, "velocity": 80, "note_on_time": 3.283, "note_off_time": 3.501}, {"pitch": 62, "velocity": 80, "note_on_time": 3.501, "note_off_time": 3.72}, {"pitch": 42, "velocity": 80, "note_on_time": 3.501, "note_off_time": 3.72}, {"pitch": 42, "velocity": 80, "note_on_time": 3.72, "note_off_time": 3.938}, {"pitch": 65, "velocity": 80, "note_on_time": 3.72, "note_off_time": 4.158}, {"pitch": 42, "velocity": 80, "note_on_time": 3.938, "note_off_time": 4.158}, {"pitch": 62, "velocity": 80, "note_on_time": 4.158, "note_off_time": 4.375}, {"pitch": 42, "velocity": 80, "note_on_time": 4.158, "note_off_time": 4.375}, {"pitch": 64, "velocity": 80, "note_on_time": 4.375, "note_off_time": 4.593}, {"pitch": 42, "velocity": 80, "note_on_time": 4.375, "note_off_time": 4.593}, {"pitch": 65, "velocity": 80, "note_on_time": 4.593, "note_off_time": 4.811}, {"pitch": 42, "velocity": 80, "note_on_time": 4.593, "note_off_time": 4.811}, {"pitch": 65, "velocity": 80, "note_on_time": 4.811, "note_off_time": 5.029}, {"pitch": 42, "velocity": 80, "note_on_time": 4.811, "note_off_time": 5.029}, {"pitch": 60, "velocity": 80, "note_on_time": 5.029, "note_off_time": 5.245}, {"pitch": 42, "velocity": 80, "note_on_time": 5.03, "note_off_time": 5.245}, {"pitch": 42, "velocity": 80, "note_on_time": 5.245, "note_off_time": 5.463}, {"pitch": 60, "velocity": 80, "note_on_time": 5.245, "note_off_time": 5.68}, {"pitch": 42, "velocity": 80, "note_on_time": 5.463, "note_off_time": 5.68}, {"pitch": 42, "velocity": 80, "note_on_time": 5.68, "note_off_time": 5.898}, {"pitch": 42, "velocity": 80, "note_on_time": 5.898, "note_off_time": 6.115}, {"pitch": 64, "velocity": 80, "note_on_time": 6.115, "note_off_time": 6.333}, {"pitch": 42, "velocity": 80, "note_on_time": 6.115, "note_off_time": 6.333}, {"pitch": 65, "velocity": 80, "note_on_time": 6.333, "note_off_time": 6.551}, {"pitch": 42, "velocity": 80, "note_on_time": 6.333, "note_off_time": 6.551}, {"pitch": 60, "velocity": 80, "note_on_time": 6.551, "note_off_time": 6.768}, {"pitch": 42, "velocity": 80, "note_on_time": 6.551, "note_off_time": 6.768}, {"pitch": 62, "velocity": 80, "note_on_time": 6.768, "note_off_time": 6.986}, {"pitch": 42, "velocity": 80, "note_on_time": 6.768, "note_off_time": 6.986}, {"pitch": 42, "velocity": 80, "note_on_time": 6.986, "note_off_time": 7.205}, {"pitch": 62, "velocity": 80, "note_on_time": 7.205, "note_off_time": 7.423}, {"pitch": 42, "velocity": 80, "note_on_time": 7.205, "note_off_time": 7.423}, {"pitch": 62, "velocity": 80, "note_on_time": 7.423, "note_off_time": 7.641}, {"pitch": 42, "velocity": 80, "note_on_time": 7.423, "note_off_time": 7.641}, {"pitch": 62, "velocity": 80, "note_on_time": 7.641, "note_off_time": 7.858}, {"pitch": 42, "velocity": 80, "note_on_time": 7.642, "note_off_time": 7.858}]</notes><options name="Option List">((4, 4), [0.5, 0.25], 3, 8, &lt;NoteRangePerHand.FOUR_NOTES: 5&gt;, &lt;NoteRangePerHand.ONE_NOTE: 2&gt;, False, True, False, 281)</options></target_notes><trials><trial trial_no="1" timestamp="2022_11_14-18_59_04"><notes name="Played Notes">[{"pitch": 65, "velocity": 79, "note_on_time": 0.904, "note_off_time": 1.297}, {"pitch": 62, "velocity": 81, "note_on_time": 1.702, "note_off_time": 1.818}, {"pitch": 62, "velocity": 68, "note_on_time": 1.935, "note_off_time": 2.185}, {"pitch": 60, "velocity": 84, "note_on_time": 2.184, "note_off_time": 2.439}, {"pitch": 64, "velocity": 80, "note_on_time": 2.421, "note_off_time": 2.707}, {"pitch": 65, "velocity": 82, "note_on_time": 2.672, "note_off_time": 2.902}, {"pitch": 62, "velocity": 76, "note_on_time": 2.9, "note_off_time": 3.12}, {"pitch": 65, "velocity": 77, "note_on_time": 3.123, "note_off_time": 3.361}, {"pitch": 62, "velocity": 78, "note_on_time": 3.347, "note_off_time": 3.479}, {"pitch": 62, "velocity": 89, "note_on_time": 3.623, "note_off_time": 3.876}, {"pitch": 65, "velocity": 87, "note_on_time": 3.859, "note_off_time": 4.185}, {"pitch": 62, "velocity": 77, "note_on_time": 4.317, "note_off_time": 4.619}, {"pitch": 64, "velocity": 81, "note_on_time": 4.585, "note_off_time": 4.845}, {"pitch": 65, "velocity": 80, "note_on_time": 4.812, "note_off_time": 4.917}, {"pitch": 65, "velocity": 81, "note_on_time": 5.065, "note_off_time": 5.331}, {"pitch": 60, "velocity": 88, "note_on_time": 5.316, "note_off_time": 5.424}, {"pitch": 60, "velocity": 92, "note_on_time": 5.565, "note_off_time": 5.842}, {"pitch": 64, "velocity": 79, "note_on_time": 6.087, "note_off_time": 6.327}, {"pitch": 65, "velocity": 78, "note_on_time": 6.318, "note_off_time": 6.538}, {"pitch": 60, "velocity": 82, "note_on_time": 6.547, "note_off_time": 6.756}, {"pitch": 62, "velocity": 77, "note_on_time": 6.772, "note_off_time": 6.882}, {"pitch": 62, "velocity": 77, "note_on_time": 7.212, "note_off_time": 7.306}, {"pitch": 62, "velocity": 89, "note_on_time": 7.462, "note_off_time": 7.549}]</notes><guidance name="Guidance Mode">None</guidance><error name="Error value">0.1020095714285713</error></trial><trial trial_no="2" timestamp="2022_11_14-18_59_27"><notes name="Played Notes">[{"pitch": 65, "velocity": 81, "note_on_time": 0.885, "note_off_time": 1.281}, {"pitch": 62, "velocity": 78, "note_on_time": 1.741, "note_off_time": 1.962}, {"pitch": 62, "velocity": 81, "note_on_time": 2.048, "note_off_time": 2.259}, {"pitch": 60, "velocity": 80, "note_on_time": 2.259, "note_off_time": 2.461}, {"pitch": 64, "velocity": 80, "note_on_time": 2.488, "note_off_time": 2.639}, {"pitch": 65, "velocity": 84, "note_on_time": 2.8, "note_off_time": 3.045}, {"pitch": 62, "velocity": 79, "note_on_time": 3.034, "note_off_time": 3.261}, {"pitch": 65, "velocity": 79, "note_on_time": 3.266, "note_off_time": 3.511}, {"pitch": 62, "velocity": 75, "note_on_time": 3.509, "note_off_time": 3.643}, {"pitch": 62, "velocity": 70, "note_on_time": 3.744, "note_off_time": 3.987}, {"pitch": 65, "velocity": 76, "note_on_time": 3.987, "note_off_time": 4.405}, {"pitch": 62, "velocity": 74, "note_on_time": 4.531, "note_off_time": 4.818}, {"pitch": 64, "velocity": 68, "note_on_time": 5.148, "note_off_time": 5.384}, {"pitch": 65, "velocity": 69, "note_on_time": 5.39, "note_off_time": 5.556}, {"pitch": 65, "velocity": 75, "note_on_time": 5.658, "note_off_time": 5.949}, {"pitch": 60, "velocity": 86, "note_on_time": 5.941, "note_off_time": 6.072}, {"pitch": 60, "velocity": 93, "note_on_time": 6.204, "note_off_time": 6.527}, {"pitch": 64, "velocity": 77, "note_on_time": 6.729, "note_off_time": 6.988}, {"pitch": 65, "velocity": 74, "note_on_time": 6.979, "note_off_time": 7.234}, {"pitch": 60, "velocity": 74, "note_on_time": 7.238, "note_off_time": 7.487}, {"pitch": 62, "velocity": 77, "note_on_time": 7.484, "note_off_time": 7.579}, {"pitch": 62, "velocity": 71, "note_on_time": 7.75, "note_off_time": 7.844}]</notes><guidance name="Guidance Mode">None</guidance><error name="Error value">0.18686452380952367</error></trial><trial trial_no="3" timestamp="2022_11_14-18_59_48"><notes name="Played Notes">[{"pitch": 65, "velocity": 80, "note_on_time": 0.92, "note_off_time": 1.289}, {"pitch": 62, "velocity": 81, "note_on_time": 1.7, "note_off_time": 1.801}, {"pitch": 62, "velocity": 86, "note_on_time": 1.945, "note_off_time": 2.209}, {"pitch": 60, "velocity": 88, "note_on_time": 2.201, "note_off_time": 2.448}, {"pitch": 64, "velocity": 83, "note_on_time": 2.446, "note_off_time": 2.699}, {"pitch": 65, "velocity": 84, "note_on_time": 2.68, "note_off_time": 2.903}, {"pitch": 62, "velocity": 80, "note_on_time": 2.908, "note_off_time": 3.14}, {"pitch": 65, "velocity": 78, "note_on_time": 3.132, "note_off_time": 3.394}, {"pitch": 62, "velocity": 74, "note_on_time": 3.373, "note_off_time": 3.472}, {"pitch": 62, "velocity": 87, "note_on_time": 3.612, "note_off_time": 3.852}, {"pitch": 65, "velocity": 85, "note_on_time": 3.834, "note_off_time": 4.147}, {"pitch": 62, "velocity": 64, "note_on_time": 4.322, "note_off_time": 4.598}, {"pitch": 64, "velocity": 84, "note_on_time": 4.566, "note_off_time": 4.768}, {"pitch": 65, "velocity": 76, "note_on_time": 4.792, "note_off_time": 4.941}, {"pitch": 65, "velocity": 78, "note_on_time": 5.064, "note_off_time": 5.348}, {"pitch": 60, "velocity": 90, "note_on_time": 5.345, "note_off_time": 5.469}, {"pitch": 60, "velocity": 107, "note_on_time": 5.613, "note_off_time": 5.961}, {"pitch": 64, "velocity": 76, "note_on_time": 6.196, "note_off_time": 6.432}, {"pitch": 65, "velocity": 68, "note_on_time": 6.436, "note_off_time": 6.692}, {"pitch": 60, "velocity": 82, "note_on_time": 6.709, "note_off_time": 6.974}, {"pitch": 62, "velocity": 75, "note_on_time": 6.971, "note_off_time": 7.062}, {"pitch": 62, "velocity": 72, "note_on_time": 7.223, "note_off_time": 7.344}, {"pitch": 62, "velocity": 67, "note_on_time": 7.454, "note_off_time": 7.556}]</notes><guidance name="Guidance Mode">None</guidance><error name="Error value">0.11344252380952378</error></trial></trials></MIDI>