<MIDI midiNo="2022_12_22-13_32_42"><target_notes><notes name="Note List">[{"pitch": 42, "velocity": 80, "note_on_time": 0.005, "note_off_time": 0.297}, {"pitch": 42, "velocity": 80, "note_on_time": 0.297, "note_off_time": 0.578}, {"pitch": 42, "velocity": 80, "note_on_time": 0.578, "note_off_time": 0.874}, {"pitch": 42, "velocity": 80, "note_on_time": 0.874, "note_off_time": 1.169}, {"pitch": 64, "velocity": 80, "note_on_time": 1.169, "note_off_time": 1.465}, {"pitch": 42, "velocity": 80, "note_on_time": 1.169, "note_off_time": 1.465}, {"pitch": 60, "velocity": 80, "note_on_time": 1.465, "note_off_time": 1.76}, {"pitch": 42, "velocity": 80, "note_on_time": 1.465, "note_off_time": 1.76}, {"pitch": 60, "velocity": 80, "note_on_time": 1.76, "note_off_time": 2.041}, {"pitch": 42, "velocity": 80, "note_on_time": 1.76, "note_off_time": 2.041}, {"pitch": 62, "velocity": 80, "note_on_time": 2.041, "note_off_time": 2.334}, {"pitch": 42, "velocity": 80, "note_on_time": 2.042, "note_off_time": 2.334}, {"pitch": 42, "velocity": 80, "note_on_time": 2.334, "note_off_time": 2.617}, {"pitch": 62, "velocity": 80, "note_on_time": 2.334, "note_off_time": 2.898}, {"pitch": 42, "velocity": 80, "note_on_time": 2.617, "note_off_time": 2.898}, {"pitch": 42, "velocity": 80, "note_on_time": 2.898, "note_off_time": 3.195}, {"pitch": 60, "velocity": 80, "note_on_time": 2.898, "note_off_time": 3.488}, {"pitch": 42, "velocity": 80, "note_on_time": 3.195, "note_off_time": 3.489}, {"pitch": 60, "velocity": 80, "note_on_time": 3.488, "note_off_time": 3.784}, {"pitch": 42, "velocity": 80, "note_on_time": 3.489, "note_off_time": 3.784}, {"pitch": 60, "velocity": 80, "note_on_time": 3.784, "note_off_time": 4.08}, {"pitch": 42, "velocity": 80, "note_on_time": 3.785, "note_off_time": 4.08}, {"pitch": 62, "velocity": 80, "note_on_time": 4.08, "note_off_time": 4.361}, {"pitch": 42, "velocity": 80, "note_on_time": 4.08, "note_off_time": 4.361}, {"pitch": 64, "velocity": 80, "note_on_time": 4.361, "note_off_time": 4.642}, {"pitch": 42, "velocity": 80, "note_on_time": 4.362, "note_off_time": 4.642}, {"pitch": 42, "velocity": 80, "note_on_time": 4.642, "note_off_time": 4.937}, {"pitch": 60, "velocity": 80, "note_on_time": 4.642, "note_off_time": 5.231}, {"pitch": 42, "velocity": 80, "note_on_time": 4.937, "note_off_time": 5.231}, {"pitch": 42, "velocity": 80, "note_on_time": 5.232, "note_off_time": 5.527}, {"pitch": 64, "velocity": 80, "note_on_time": 5.527, "note_off_time": 5.808}, {"pitch": 42, "velocity": 80, "note_on_time": 5.527, "note_off_time": 5.808}, {"pitch": 42, "velocity": 80, "note_on_time": 5.808, "note_off_time": 6.103}, {"pitch": 60, "velocity": 80, "note_on_time": 5.808, "note_off_time": 6.384}, {"pitch": 42, "velocity": 80, "note_on_time": 6.104, "note_off_time": 6.384}, {"pitch": 42, "velocity": 80, "note_on_time": 6.385, "note_off_time": 6.665}, {"pitch": 42, "velocity": 80, "note_on_time": 6.666, "note_off_time": 6.948}, {"pitch": 62, "velocity": 80, "note_on_time": 6.948, "note_off_time": 7.243}, {"pitch": 42, "velocity": 80, "note_on_time": 6.949, "note_off_time": 7.244}, {"pitch": 42, "velocity": 80, "note_on_time": 7.244, "note_off_time": 7.526}, {"pitch": 62, "velocity": 80, "note_on_time": 7.243, "note_off_time": 7.807}, {"pitch": 42, "velocity": 80, "note_on_time": 7.526, "note_off_time": 7.807}, {"pitch": 62, "velocity": 80, "note_on_time": 7.807, "note_off_time": 8.102}, {"pitch": 42, "velocity": 80, "note_on_time": 7.808, "note_off_time": 8.103}, {"pitch": 62, "velocity": 80, "note_on_time": 8.102, "note_off_time": 8.397}, {"pitch": 42, "velocity": 80, "note_on_time": 8.103, "note_off_time": 8.398}, {"pitch": 60, "velocity": 80, "note_on_time": 8.397, "note_off_time": 8.68}, {"pitch": 42, "velocity": 80, "note_on_time": 8.398, "note_off_time": 8.68}, {"pitch": 64, "velocity": 80, "note_on_time": 8.68, "note_off_time": 8.961}, {"pitch": 42, "velocity": 80, "note_on_time": 8.68, "note_off_time": 8.962}, {"pitch": 42, "velocity": 80, "note_on_time": 8.962, "note_off_time": 9.242}, {"pitch": 42, "velocity": 80, "note_on_time": 9.242, "note_off_time": 9.538}, {"pitch": 64, "velocity": 80, "note_on_time": 9.538, "note_off_time": 9.833}, {"pitch": 42, "velocity": 80, "note_on_time": 9.539, "note_off_time": 9.833}, {"pitch": 64, "velocity": 80, "note_on_time": 9.833, "note_off_time": 10.129}, {"pitch": 42, "velocity": 80, "note_on_time": 9.833, "note_off_time": 10.129}, {"pitch": 64, "velocity": 80, "note_on_time": 10.129, "note_off_time": 10.411}, {"pitch": 42, "velocity": 80, "note_on_time": 10.129, "note_off_time": 10.411}]</notes><options name="Option List">((4, 4), [0.5, 0.25], 3, 8, &lt;NoteRangePerHand.THREE_NOTES: 4&gt;, &lt;NoteRangePerHand.ONE_NOTE: 2&gt;, False, True, False, '215')</options></target_notes><trials><trial trial_no="1" timestamp="2022_12_22-13_32_30"><notes name="Played Notes">[{"pitch": 64, "velocity": 92, "note_on_time": 1.226, "note_off_time": 1.404}, {"pitch": 60, "velocity": 96, "note_on_time": 1.499, "note_off_time": 1.628}, {"pitch": 60, "velocity": 94, "note_on_time": 1.77, "note_off_time": 1.909}, {"pitch": 62, "velocity": 88, "note_on_time": 2.038, "note_off_time": 2.176}, {"pitch": 62, "velocity": 99, "note_on_time": 2.336, "note_off_time": 2.753}, {"pitch": 60, "velocity": 102, "note_on_time": 2.883, "note_off_time": 3.307}, {"pitch": 62, "velocity": 96, "note_on_time": 3.464, "note_off_time": 3.599}, {"pitch": 62, "velocity": 81, "note_on_time": 3.728, "note_off_time": 3.86}, {"pitch": 64, "velocity": 94, "note_on_time": 3.99, "note_off_time": 4.217}, {"pitch": 62, "velocity": 88, "note_on_time": 4.327, "note_off_time": 4.525}, {"pitch": 60, "velocity": 100, "note_on_time": 4.626, "note_off_time": 5.084}, {"pitch": 64, "velocity": 100, "note_on_time": 5.27, "note_off_time": 5.65}, {"pitch": 60, "velocity": 94, "note_on_time": 6.27, "note_off_time": 6.768}, {"pitch": 62, "velocity": 91, "note_on_time": 7.074, "note_off_time": 7.216}, {"pitch": 62, "velocity": 99, "note_on_time": 7.37, "note_off_time": 7.726}, {"pitch": 62, "velocity": 99, "note_on_time": 7.882, "note_off_time": 8.029}, {"pitch": 62, "velocity": 87, "note_on_time": 8.16, "note_off_time": 8.296}, {"pitch": 60, "velocity": 92, "note_on_time": 8.425, "note_off_time": 8.583}, {"pitch": 64, "velocity": 94, "note_on_time": 8.835, "note_off_time": 9.015}, {"pitch": 64, "velocity": 95, "note_on_time": 9.517, "note_off_time": 9.623}, {"pitch": 64, "velocity": 97, "note_on_time": 9.81, "note_off_time": 9.9}, {"pitch": 64, "velocity": 95, "note_on_time": 10.07, "note_off_time": 10.153}]</notes><guidance name="Guidance Mode">None</guidance><error name="Error value">0.2636787894736843</error></trial><trial trial_no="2" timestamp="2022_12_22-13_32_50"><notes name="Played Notes">[{"pitch": 64, "velocity": 84, "note_on_time": 1.209, "note_off_time": 1.379}, {"pitch": 60, "velocity": 96, "note_on_time": 1.506, "note_off_time": 1.634}, {"pitch": 60, "velocity": 94, "note_on_time": 1.79, "note_off_time": 1.931}, {"pitch": 62, "velocity": 86, "note_on_time": 2.111, "note_off_time": 2.234}, {"pitch": 62, "velocity": 104, "note_on_time": 2.426, "note_off_time": 2.979}, {"pitch": 60, "velocity": 100, "note_on_time": 3.297, "note_off_time": 3.839}, {"pitch": 60, "velocity": 90, "note_on_time": 4.115, "note_off_time": 4.266}, {"pitch": 60, "velocity": 94, "note_on_time": 4.411, "note_off_time": 4.577}, {"pitch": 64, "velocity": 81, "note_on_time": 4.788, "note_off_time": 5.003}, {"pitch": 64, "velocity": 88, "note_on_time": 5.691, "note_off_time": 5.915}, {"pitch": 60, "velocity": 81, "note_on_time": 5.905, "note_off_time": 6.108}, {"pitch": 64, "velocity": 50, "note_on_time": 6.603, "note_off_time": 6.924}, {"pitch": 60, "velocity": 90, "note_on_time": 7.085, "note_off_time": 7.38}, {"pitch": 62, "velocity": 92, "note_on_time": 8.038, "note_off_time": 8.163}, {"pitch": 62, "velocity": 94, "note_on_time": 8.32, "note_off_time": 8.486}, {"pitch": 62, "velocity": 90, "note_on_time": 9.219, "note_off_time": 9.378}, {"pitch": 62, "velocity": 88, "note_on_time": 9.529, "note_off_time": 9.686}, {"pitch": 60, "velocity": 92, "note_on_time": 9.814, "note_off_time": 9.961}, {"pitch": 64, "velocity": 88, "note_on_time": 10.105, "note_off_time": 10.275}]</notes><guidance name="Guidance Mode">None</guidance><error name="Error value">0.7001851052631579</error></trial><trial trial_no="3" timestamp="2022_12_22-13_33_12"><notes name="Played Notes">[{"pitch": 64, "velocity": 86, "note_on_time": 1.191, "note_off_time": 1.344}, {"pitch": 62, "velocity": 89, "note_on_time": 1.476, "note_off_time": 1.629}, {"pitch": 62, "velocity": 95, "note_on_time": 1.788, "note_off_time": 1.951}, {"pitch": 62, "velocity": 89, "note_on_time": 3.526, "note_off_time": 3.712}, {"pitch": 60, "velocity": 84, "note_on_time": 3.857, "note_off_time": 4.014}, {"pitch": 62, "velocity": 83, "note_on_time": 4.397, "note_off_time": 4.54}, {"pitch": 62, "velocity": 89, "note_on_time": 4.693, "note_off_time": 4.864}, {"pitch": 64, "velocity": 84, "note_on_time": 4.975, "note_off_time": 5.244}, {"pitch": 60, "velocity": 84, "note_on_time": 5.479, "note_off_time": 6.0}, {"pitch": 64, "velocity": 90, "note_on_time": 6.141, "note_off_time": 6.421}, {"pitch": 60, "velocity": 88, "note_on_time": 6.875, "note_off_time": 7.399}, {"pitch": 62, "velocity": 90, "note_on_time": 7.589, "note_off_time": 7.731}, {"pitch": 62, "velocity": 93, "note_on_time": 7.886, "note_off_time": 8.266}, {"pitch": 62, "velocity": 82, "note_on_time": 8.401, "note_off_time": 8.515}, {"pitch": 62, "velocity": 85, "note_on_time": 8.662, "note_off_time": 8.915}, {"pitch": 60, "velocity": 94, "note_on_time": 9.255, "note_off_time": 9.473}, {"pitch": 64, "velocity": 83, "note_on_time": 9.558, "note_off_time": 9.843}, {"pitch": 64, "velocity": 94, "note_on_time": 10.051, "note_off_time": 10.141}, {"pitch": 64, "velocity": 83, "note_on_time": 10.259, "note_off_time": 10.366}]</notes><guidance name="Guidance Mode">None</guidance><error name="Error value">0.5237658947368419</error></trial></trials></MIDI>