<MIDI midiNo="2022_11_21-18_22_55"><target_notes><notes name="Note List">[{"pitch": 42, "velocity": 80, "note_on_time": 0.004, "note_off_time": 0.348}, {"pitch": 42, "velocity": 80, "note_on_time": 0.349, "note_off_time": 0.691}, {"pitch": 42, "velocity": 80, "note_on_time": 0.691, "note_off_time": 1.032}, {"pitch": 42, "velocity": 80, "note_on_time": 1.032, "note_off_time": 1.375}, {"pitch": 67, "velocity": 80, "note_on_time": 1.375, "note_off_time": 1.716}, {"pitch": 42, "velocity": 80, "note_on_time": 1.376, "note_off_time": 1.716}, {"pitch": 65, "velocity": 80, "note_on_time": 1.716, "note_off_time": 2.057}, {"pitch": 42, "velocity": 80, "note_on_time": 1.716, "note_off_time": 2.058}, {"pitch": 67, "velocity": 80, "note_on_time": 2.057, "note_off_time": 2.401}, {"pitch": 42, "velocity": 80, "note_on_time": 2.058, "note_off_time": 2.401}, {"pitch": 62, "velocity": 80, "note_on_time": 2.401, "note_off_time": 2.743}, {"pitch": 42, "velocity": 80, "note_on_time": 2.402, "note_off_time": 2.743}, {"pitch": 60, "velocity": 80, "note_on_time": 2.743, "note_off_time": 3.088}, {"pitch": 42, "velocity": 80, "note_on_time": 2.743, "note_off_time": 3.088}, {"pitch": 62, "velocity": 80, "note_on_time": 3.088, "note_off_time": 3.433}, {"pitch": 42, "velocity": 80, "note_on_time": 3.088, "note_off_time": 3.433}, {"pitch": 64, "velocity": 80, "note_on_time": 3.433, "note_off_time": 3.775}, {"pitch": 42, "velocity": 80, "note_on_time": 3.433, "note_off_time": 3.775}, {"pitch": 67, "velocity": 80, "note_on_time": 3.775, "note_off_time": 4.117}, {"pitch": 42, "velocity": 80, "note_on_time": 3.775, "note_off_time": 4.117}, {"pitch": 67, "velocity": 80, "note_on_time": 4.117, "note_off_time": 4.463}, {"pitch": 42, "velocity": 80, "note_on_time": 4.118, "note_off_time": 4.463}, {"pitch": 65, "velocity": 80, "note_on_time": 4.463, "note_off_time": 4.806}, {"pitch": 42, "velocity": 80, "note_on_time": 4.464, "note_off_time": 4.806}, {"pitch": 64, "velocity": 80, "note_on_time": 4.806, "note_off_time": 5.15}, {"pitch": 42, "velocity": 80, "note_on_time": 4.807, "note_off_time": 5.15}, {"pitch": 64, "velocity": 80, "note_on_time": 5.15, "note_off_time": 5.496}, {"pitch": 42, "velocity": 80, "note_on_time": 5.15, "note_off_time": 5.496}, {"pitch": 42, "velocity": 80, "note_on_time": 5.497, "note_off_time": 5.838}, {"pitch": 64, "velocity": 80, "note_on_time": 5.496, "note_off_time": 6.181}, {"pitch": 42, "velocity": 80, "note_on_time": 5.838, "note_off_time": 6.181}, {"pitch": 42, "velocity": 80, "note_on_time": 6.182, "note_off_time": 6.525}, {"pitch": 42, "velocity": 80, "note_on_time": 6.525, "note_off_time": 6.868}, {"pitch": 42, "velocity": 80, "note_on_time": 6.868, "note_off_time": 7.209}, {"pitch": 65, "velocity": 80, "note_on_time": 6.868, "note_off_time": 7.54}, {"pitch": 42, "velocity": 80, "note_on_time": 7.21, "note_off_time": 7.54}, {"pitch": 42, "velocity": 80, "note_on_time": 7.541, "note_off_time": 7.88}, {"pitch": 42, "velocity": 80, "note_on_time": 7.88, "note_off_time": 8.225}, {"pitch": 42, "velocity": 80, "note_on_time": 8.225, "note_off_time": 8.566}, {"pitch": 64, "velocity": 80, "note_on_time": 8.225, "note_off_time": 8.908}, {"pitch": 42, "velocity": 80, "note_on_time": 8.566, "note_off_time": 8.909}, {"pitch": 60, "velocity": 80, "note_on_time": 8.908, "note_off_time": 9.251}, {"pitch": 42, "velocity": 80, "note_on_time": 8.909, "note_off_time": 9.251}, {"pitch": 60, "velocity": 80, "note_on_time": 9.251, "note_off_time": 9.592}, {"pitch": 42, "velocity": 80, "note_on_time": 9.252, "note_off_time": 9.592}, {"pitch": 42, "velocity": 80, "note_on_time": 9.592, "note_off_time": 9.935}, {"pitch": 62, "velocity": 80, "note_on_time": 9.592, "note_off_time": 10.279}, {"pitch": 42, "velocity": 80, "note_on_time": 9.935, "note_off_time": 10.279}, {"pitch": 62, "velocity": 80, "note_on_time": 10.279, "note_off_time": 10.623}, {"pitch": 42, "velocity": 80, "note_on_time": 10.279, "note_off_time": 10.623}, {"pitch": 67, "velocity": 80, "note_on_time": 10.623, "note_off_time": 10.967}, {"pitch": 42, "velocity": 80, "note_on_time": 10.623, "note_off_time": 10.967}, {"pitch": 42, "velocity": 80, "note_on_time": 10.968, "note_off_time": 11.308}, {"pitch": 67, "velocity": 80, "note_on_time": 11.308, "note_off_time": 11.649}, {"pitch": 42, "velocity": 80, "note_on_time": 11.308, "note_off_time": 11.649}, {"pitch": 67, "velocity": 80, "note_on_time": 11.649, "note_off_time": 11.993}, {"pitch": 42, "velocity": 80, "note_on_time": 11.65, "note_off_time": 11.993}, {"pitch": 67, "velocity": 80, "note_on_time": 11.993, "note_off_time": 12.336}, {"pitch": 42, "velocity": 80, "note_on_time": 11.994, "note_off_time": 12.336}]</notes><options name="Option List">((4, 4), [0.5, 0.25], 3, 8, &lt;NoteRangePerHand.C_TO_G: 6&gt;, &lt;NoteRangePerHand.ONE_NOTE: 2&gt;, False, True, False, 182)</options></target_notes><trials><trial trial_no="1" timestamp="2022_11_21-18_22_41"><notes name="Played Notes">[{"pitch": 67, "velocity": 91, "note_on_time": 1.388, "note_off_time": 1.72}, {"pitch": 65, "velocity": 82, "note_on_time": 1.721, "note_off_time": 2.027}, {"pitch": 67, "velocity": 78, "note_on_time": 2.05, "note_off_time": 2.401}, {"pitch": 62, "velocity": 78, "note_on_time": 2.394, "note_off_time": 2.751}, {"pitch": 60, "velocity": 85, "note_on_time": 2.732, "note_off_time": 3.094}, {"pitch": 62, "velocity": 85, "note_on_time": 3.082, "note_off_time": 3.52}, {"pitch": 64, "velocity": 98, "note_on_time": 3.511, "note_off_time": 3.777}, {"pitch": 67, "velocity": 87, "note_on_time": 3.796, "note_off_time": 3.915}, {"pitch": 67, "velocity": 97, "note_on_time": 4.127, "note_off_time": 4.522}, {"pitch": 65, "velocity": 92, "note_on_time": 4.51, "note_off_time": 4.806}, {"pitch": 62, "velocity": 91, "note_on_time": 4.813, "note_off_time": 4.891}, {"pitch": 62, "velocity": 91, "note_on_time": 5.148, "note_off_time": 5.354}, {"pitch": 62, "velocity": 99, "note_on_time": 5.494, "note_off_time": 6.16}, {"pitch": 64, "velocity": 95, "note_on_time": 6.187, "note_off_time": 6.713}, {"pitch": 62, "velocity": 93, "note_on_time": 7.239, "note_off_time": 7.711}, {"pitch": 60, "velocity": 100, "note_on_time": 7.964, "note_off_time": 8.056}, {"pitch": 60, "velocity": 98, "note_on_time": 8.29, "note_off_time": 8.603}, {"pitch": 62, "velocity": 90, "note_on_time": 8.629, "note_off_time": 9.467}, {"pitch": 62, "velocity": 85, "note_on_time": 9.557, "note_off_time": 9.928}, {"pitch": 67, "velocity": 71, "note_on_time": 9.927, "note_off_time": 10.177}, {"pitch": 67, "velocity": 101, "note_on_time": 10.625, "note_off_time": 10.697}, {"pitch": 67, "velocity": 92, "note_on_time": 10.938, "note_off_time": 11.008}, {"pitch": 67, "velocity": 94, "note_on_time": 11.305, "note_off_time": 11.425}]</notes><guidance name="Guidance Mode">None</guidance><error name="Error value">0.33333250000000014</error></trial><trial trial_no="2" timestamp="2022_11_21-18_23_08"><notes name="Played Notes">[{"pitch": 67, "velocity": 92, "note_on_time": 1.373, "note_off_time": 1.704}, {"pitch": 65, "velocity": 87, "note_on_time": 1.708, "note_off_time": 2.038}, {"pitch": 67, "velocity": 73, "note_on_time": 2.059, "note_off_time": 2.424}, {"pitch": 62, "velocity": 81, "note_on_time": 2.408, "note_off_time": 2.772}, {"pitch": 60, "velocity": 87, "note_on_time": 2.757, "note_off_time": 3.128}, {"pitch": 62, "velocity": 84, "note_on_time": 3.108, "note_off_time": 3.444}, {"pitch": 64, "velocity": 86, "note_on_time": 3.438, "note_off_time": 3.753}, {"pitch": 67, "velocity": 93, "note_on_time": 3.766, "note_off_time": 3.842}, {"pitch": 67, "velocity": 103, "note_on_time": 4.119, "note_off_time": 4.462}, {"pitch": 65, "velocity": 90, "note_on_time": 4.46, "note_off_time": 4.776}, {"pitch": 62, "velocity": 101, "note_on_time": 4.791, "note_off_time": 4.846}, {"pitch": 62, "velocity": 102, "note_on_time": 5.125, "note_off_time": 5.195}, {"pitch": 62, "velocity": 102, "note_on_time": 5.459, "note_off_time": 5.78}, {"pitch": 65, "velocity": 105, "note_on_time": 6.796, "note_off_time": 7.147}, {"pitch": 64, "velocity": 96, "note_on_time": 8.233, "note_off_time": 8.704}, {"pitch": 60, "velocity": 100, "note_on_time": 8.713, "note_off_time": 8.82}, {"pitch": 60, "velocity": 98, "note_on_time": 9.181, "note_off_time": 9.505}, {"pitch": 62, "velocity": 92, "note_on_time": 9.54, "note_off_time": 9.99}, {"pitch": 62, "velocity": 95, "note_on_time": 10.285, "note_off_time": 10.644}, {"pitch": 67, "velocity": 98, "note_on_time": 10.966, "note_off_time": 11.161}, {"pitch": 67, "velocity": 99, "note_on_time": 11.979, "note_off_time": 12.052}]</notes><guidance name="Guidance Mode">None</guidance><error name="Error value">0.31809700000000013</error></trial><trial trial_no="3" timestamp="2022_11_21-18_23_32"><notes name="Played Notes">[{"pitch": 67, "velocity": 84, "note_on_time": 1.449, "note_off_time": 1.724}, {"pitch": 65, "velocity": 86, "note_on_time": 1.717, "note_off_time": 2.085}, {"pitch": 67, "velocity": 84, "note_on_time": 2.085, "note_off_time": 2.404}, {"pitch": 62, "velocity": 81, "note_on_time": 2.405, "note_off_time": 2.784}, {"pitch": 60, "velocity": 89, "note_on_time": 2.754, "note_off_time": 3.103}, {"pitch": 62, "velocity": 84, "note_on_time": 3.099, "note_off_time": 3.468}, {"pitch": 64, "velocity": 81, "note_on_time": 3.455, "note_off_time": 3.766}, {"pitch": 67, "velocity": 90, "note_on_time": 3.775, "note_off_time": 3.848}, {"pitch": 67, "velocity": 98, "note_on_time": 4.114, "note_off_time": 4.496}, {"pitch": 65, "velocity": 90, "note_on_time": 4.482, "note_off_time": 4.785}, {"pitch": 62, "velocity": 98, "note_on_time": 4.811, "note_off_time": 4.873}, {"pitch": 62, "velocity": 101, "note_on_time": 5.139, "note_off_time": 5.202}, {"pitch": 62, "velocity": 107, "note_on_time": 5.479, "note_off_time": 5.751}, {"pitch": 65, "velocity": 102, "note_on_time": 6.822, "note_off_time": 7.165}, {"pitch": 62, "velocity": 92, "note_on_time": 8.193, "note_off_time": 8.65}, {"pitch": 60, "velocity": 101, "note_on_time": 8.933, "note_off_time": 9.054}, {"pitch": 60, "velocity": 98, "note_on_time": 9.303, "note_off_time": 9.58}, {"pitch": 62, "velocity": 95, "note_on_time": 9.627, "note_off_time": 9.989}, {"pitch": 62, "velocity": 98, "note_on_time": 10.311, "note_off_time": 10.67}, {"pitch": 67, "velocity": 101, "note_on_time": 10.991, "note_off_time": 11.222}, {"pitch": 67, "velocity": 99, "note_on_time": 12.006, "note_off_time": 12.087}]</notes><guidance name="Guidance Mode">None</guidance><error name="Error value">0.3906645</error></trial></trials></MIDI>