<MIDI midiNo="2022_10_26-14_39_19"><target_notes><notes name="Note List">[{"pitch": 42, "velocity": 80, "note_on_time": 0.004, "note_off_time": 0.228}, {"pitch": 42, "velocity": 80, "note_on_time": 0.229, "note_off_time": 0.446}, {"pitch": 42, "velocity": 80, "note_on_time": 0.446, "note_off_time": 0.663}, {"pitch": 42, "velocity": 80, "note_on_time": 0.663, "note_off_time": 0.882}, {"pitch": 60, "velocity": 80, "note_on_time": 0.882, "note_off_time": 1.1}, {"pitch": 42, "velocity": 80, "note_on_time": 0.882, "note_off_time": 1.1}, {"pitch": 42, "velocity": 80, "note_on_time": 1.1, "note_off_time": 1.318}, {"pitch": 42, "velocity": 80, "note_on_time": 1.318, "note_off_time": 1.535}, {"pitch": 42, "velocity": 80, "note_on_time": 1.535, "note_off_time": 1.751}, {"pitch": 60, "velocity": 80, "note_on_time": 1.751, "note_off_time": 1.97}, {"pitch": 42, "velocity": 80, "note_on_time": 1.751, "note_off_time": 1.97}, {"pitch": 65, "velocity": 80, "note_on_time": 1.97, "note_off_time": 2.188}, {"pitch": 42, "velocity": 80, "note_on_time": 1.97, "note_off_time": 2.188}, {"pitch": 65, "velocity": 80, "note_on_time": 2.188, "note_off_time": 2.405}, {"pitch": 42, "velocity": 80, "note_on_time": 2.189, "note_off_time": 2.405}, {"pitch": 62, "velocity": 80, "note_on_time": 2.405, "note_off_time": 2.623}, {"pitch": 42, "velocity": 80, "note_on_time": 2.405, "note_off_time": 2.623}, {"pitch": 60, "velocity": 80, "note_on_time": 2.623, "note_off_time": 2.839}, {"pitch": 42, "velocity": 80, "note_on_time": 2.623, "note_off_time": 2.839}, {"pitch": 67, "velocity": 80, "note_on_time": 2.839, "note_off_time": 3.058}, {"pitch": 42, "velocity": 80, "note_on_time": 2.839, "note_off_time": 3.058}, {"pitch": 64, "velocity": 80, "note_on_time": 3.058, "note_off_time": 3.276}, {"pitch": 42, "velocity": 80, "note_on_time": 3.058, "note_off_time": 3.276}, {"pitch": 64, "velocity": 80, "note_on_time": 3.276, "note_off_time": 3.494}, {"pitch": 42, "velocity": 80, "note_on_time": 3.276, "note_off_time": 3.494}, {"pitch": 62, "velocity": 80, "note_on_time": 3.494, "note_off_time": 3.716}, {"pitch": 42, "velocity": 80, "note_on_time": 3.494, "note_off_time": 3.716}, {"pitch": 60, "velocity": 80, "note_on_time": 3.716, "note_off_time": 3.934}, {"pitch": 42, "velocity": 80, "note_on_time": 3.716, "note_off_time": 3.934}, {"pitch": 64, "velocity": 80, "note_on_time": 3.934, "note_off_time": 4.15}, {"pitch": 42, "velocity": 80, "note_on_time": 3.934, "note_off_time": 4.15}, {"pitch": 67, "velocity": 80, "note_on_time": 4.15, "note_off_time": 4.367}, {"pitch": 42, "velocity": 80, "note_on_time": 4.15, "note_off_time": 4.367}, {"pitch": 64, "velocity": 80, "note_on_time": 4.367, "note_off_time": 4.587}, {"pitch": 42, "velocity": 80, "note_on_time": 4.367, "note_off_time": 4.587}, {"pitch": 60, "velocity": 80, "note_on_time": 4.587, "note_off_time": 4.805}, {"pitch": 42, "velocity": 80, "note_on_time": 4.588, "note_off_time": 4.805}, {"pitch": 64, "velocity": 80, "note_on_time": 4.805, "note_off_time": 5.022}, {"pitch": 42, "velocity": 80, "note_on_time": 4.805, "note_off_time": 5.022}, {"pitch": 64, "velocity": 80, "note_on_time": 5.022, "note_off_time": 5.24}, {"pitch": 42, "velocity": 80, "note_on_time": 5.022, "note_off_time": 5.24}, {"pitch": 65, "velocity": 80, "note_on_time": 5.24, "note_off_time": 5.458}, {"pitch": 42, "velocity": 80, "note_on_time": 5.24, "note_off_time": 5.458}, {"pitch": 60, "velocity": 80, "note_on_time": 5.458, "note_off_time": 5.678}, {"pitch": 42, "velocity": 80, "note_on_time": 5.458, "note_off_time": 5.678}, {"pitch": 64, "velocity": 80, "note_on_time": 5.678, "note_off_time": 5.896}, {"pitch": 42, "velocity": 80, "note_on_time": 5.678, "note_off_time": 5.896}, {"pitch": 64, "velocity": 80, "note_on_time": 5.896, "note_off_time": 6.114}, {"pitch": 42, "velocity": 80, "note_on_time": 5.896, "note_off_time": 6.114}, {"pitch": 42, "velocity": 80, "note_on_time": 6.114, "note_off_time": 6.332}, {"pitch": 64, "velocity": 80, "note_on_time": 6.114, "note_off_time": 6.551}, {"pitch": 42, "velocity": 80, "note_on_time": 6.332, "note_off_time": 6.551}, {"pitch": 42, "velocity": 80, "note_on_time": 6.551, "note_off_time": 6.769}, {"pitch": 42, "velocity": 80, "note_on_time": 6.769, "note_off_time": 6.988}, {"pitch": 42, "velocity": 80, "note_on_time": 6.988, "note_off_time": 7.205}, {"pitch": 64, "velocity": 80, "note_on_time": 7.205, "note_off_time": 7.421}, {"pitch": 42, "velocity": 80, "note_on_time": 7.205, "note_off_time": 7.421}, {"pitch": 64, "velocity": 80, "note_on_time": 7.421, "note_off_time": 7.642}, {"pitch": 42, "velocity": 80, "note_on_time": 7.421, "note_off_time": 7.642}, {"pitch": 64, "velocity": 80, "note_on_time": 7.642, "note_off_time": 7.861}, {"pitch": 42, "velocity": 80, "note_on_time": 7.642, "note_off_time": 7.861}]</notes><options name="Option List">((4, 4), [0.5, 0.25], 3, 8, &lt;NoteRangePerHand.C_TO_G: 6&gt;, &lt;NoteRangePerHand.ONE_NOTE: 2&gt;, False, True, True, 281)</options></target_notes><trials><trial trial_no="1" timestamp="2022_10_26-14_39_09"><notes name="Played Notes">[{"pitch": 60, "velocity": 90, "note_on_time": 0.9, "note_off_time": 1.171}, {"pitch": 60, "velocity": 78, "note_on_time": 1.796, "note_off_time": 1.971}, {"pitch": 65, "velocity": 70, "note_on_time": 1.999, "note_off_time": 2.078}, {"pitch": 65, "velocity": 84, "note_on_time": 2.243, "note_off_time": 2.464}, {"pitch": 62, "velocity": 67, "note_on_time": 2.474, "note_off_time": 2.702}, {"pitch": 60, "velocity": 70, "note_on_time": 2.706, "note_off_time": 2.863}, {"pitch": 67, "velocity": 66, "note_on_time": 2.914, "note_off_time": 3.173}, {"pitch": 64, "velocity": 54, "note_on_time": 3.166, "note_off_time": 3.249}, {"pitch": 64, "velocity": 66, "note_on_time": 3.414, "note_off_time": 3.651}, {"pitch": 62, "velocity": 66, "note_on_time": 3.666, "note_off_time": 3.907}, {"pitch": 60, "velocity": 66, "note_on_time": 3.906, "note_off_time": 4.084}, {"pitch": 64, "velocity": 55, "note_on_time": 4.205, "note_off_time": 4.349}, {"pitch": 67, "velocity": 63, "note_on_time": 4.406, "note_off_time": 4.633}, {"pitch": 62, "velocity": 71, "note_on_time": 4.674, "note_off_time": 4.899}, {"pitch": 60, "velocity": 74, "note_on_time": 4.912, "note_off_time": 5.123}, {"pitch": 64, "velocity": 70, "note_on_time": 5.138, "note_off_time": 5.228}, {"pitch": 64, "velocity": 72, "note_on_time": 5.38, "note_off_time": 5.472}, {"pitch": 64, "velocity": 59, "note_on_time": 5.66, "note_off_time": 5.727}, {"pitch": 65, "velocity": 67, "note_on_time": 5.782, "note_off_time": 5.921}, {"pitch": 65, "velocity": 68, "note_on_time": 6.07, "note_off_time": 6.183}, {"pitch": 60, "velocity": 57, "note_on_time": 6.264, "note_off_time": 6.369}, {"pitch": 64, "velocity": 46, "note_on_time": 6.483, "note_off_time": 6.556}, {"pitch": 64, "velocity": 76, "note_on_time": 6.723, "note_off_time": 7.088}, {"pitch": 64, "velocity": 79, "note_on_time": 7.501, "note_off_time": 7.588}, {"pitch": 64, "velocity": 78, "note_on_time": 7.742, "note_off_time": 7.814}]</notes><guidance name="Guidance Mode">None</guidance><error name="Error value">0.325329409090909</error></trial><trial trial_no="2" timestamp="2022_10_26-14_39_32"><notes name="Played Notes">[{"pitch": 60, "velocity": 82, "note_on_time": 0.903, "note_off_time": 1.127}, {"pitch": 60, "velocity": 84, "note_on_time": 1.791, "note_off_time": 2.029}, {"pitch": 65, "velocity": 77, "note_on_time": 2.008, "note_off_time": 2.113}, {"pitch": 65, "velocity": 75, "note_on_time": 2.254, "note_off_time": 2.485}, {"pitch": 62, "velocity": 69, "note_on_time": 2.487, "note_off_time": 2.729}, {"pitch": 60, "velocity": 76, "note_on_time": 2.726, "note_off_time": 2.944}, {"pitch": 67, "velocity": 64, "note_on_time": 2.951, "note_off_time": 3.206}, {"pitch": 64, "velocity": 60, "note_on_time": 3.201, "note_off_time": 3.314}, {"pitch": 64, "velocity": 56, "note_on_time": 3.469, "note_off_time": 3.723}, {"pitch": 62, "velocity": 66, "note_on_time": 3.724, "note_off_time": 3.953}, {"pitch": 60, "velocity": 72, "note_on_time": 3.956, "note_off_time": 4.217}, {"pitch": 64, "velocity": 66, "note_on_time": 4.196, "note_off_time": 4.422}, {"pitch": 67, "velocity": 71, "note_on_time": 4.426, "note_off_time": 4.686}, {"pitch": 64, "velocity": 64, "note_on_time": 4.672, "note_off_time": 4.908}, {"pitch": 60, "velocity": 73, "note_on_time": 4.904, "note_off_time": 5.16}, {"pitch": 64, "velocity": 71, "note_on_time": 5.149, "note_off_time": 5.254}, {"pitch": 64, "velocity": 61, "note_on_time": 5.379, "note_off_time": 5.623}, {"pitch": 65, "velocity": 67, "note_on_time": 5.666, "note_off_time": 5.912}, {"pitch": 60, "velocity": 69, "note_on_time": 5.901, "note_off_time": 6.171}, {"pitch": 64, "velocity": 69, "note_on_time": 6.155, "note_off_time": 6.244}, {"pitch": 64, "velocity": 76, "note_on_time": 6.393, "note_off_time": 6.455}, {"pitch": 64, "velocity": 98, "note_on_time": 6.644, "note_off_time": 6.976}]</notes><guidance name="Guidance Mode">None</guidance><error name="Error value">0.27273640909090907</error></trial><trial trial_no="3" timestamp="2022_10_26-14_39_54"><notes name="Played Notes">[{"pitch": 60, "velocity": 94, "note_on_time": 0.865, "note_off_time": 1.063}, {"pitch": 60, "velocity": 87, "note_on_time": 1.772, "note_off_time": 1.981}, {"pitch": 65, "velocity": 79, "note_on_time": 1.967, "note_off_time": 2.038}, {"pitch": 65, "velocity": 86, "note_on_time": 2.191, "note_off_time": 2.411}, {"pitch": 62, "velocity": 68, "note_on_time": 2.42, "note_off_time": 2.542}, {"pitch": 60, "velocity": 81, "note_on_time": 2.64, "note_off_time": 2.798}, {"pitch": 67, "velocity": 71, "note_on_time": 2.843, "note_off_time": 3.047}, {"pitch": 64, "velocity": 67, "note_on_time": 3.078, "note_off_time": 3.153}, {"pitch": 64, "velocity": 78, "note_on_time": 3.307, "note_off_time": 3.411}, {"pitch": 62, "velocity": 79, "note_on_time": 3.503, "note_off_time": 3.677}, {"pitch": 60, "velocity": 77, "note_on_time": 3.708, "note_off_time": 3.922}, {"pitch": 64, "velocity": 79, "note_on_time": 3.953, "note_off_time": 4.153}, {"pitch": 67, "velocity": 73, "note_on_time": 4.167, "note_off_time": 4.323}, {"pitch": 64, "velocity": 72, "note_on_time": 4.356, "note_off_time": 4.589}, {"pitch": 60, "velocity": 79, "note_on_time": 4.605, "note_off_time": 4.82}, {"pitch": 64, "velocity": 76, "note_on_time": 4.83, "note_off_time": 4.924}, {"pitch": 64, "velocity": 72, "note_on_time": 5.049, "note_off_time": 5.231}, {"pitch": 65, "velocity": 61, "note_on_time": 5.281, "note_off_time": 5.499}, {"pitch": 60, "velocity": 88, "note_on_time": 5.491, "note_off_time": 5.683}, {"pitch": 64, "velocity": 76, "note_on_time": 5.708, "note_off_time": 5.798}, {"pitch": 64, "velocity": 77, "note_on_time": 5.925, "note_off_time": 6.003}, {"pitch": 64, "velocity": 107, "note_on_time": 6.147, "note_off_time": 6.432}, {"pitch": 64, "velocity": 90, "note_on_time": 7.233, "note_off_time": 7.311}, {"pitch": 64, "velocity": 95, "note_on_time": 7.45, "note_off_time": 7.533}, {"pitch": 64, "velocity": 110, "note_on_time": 7.666, "note_off_time": 7.793}]</notes><guidance name="Guidance Mode">None</guidance><error name="Error value">0.015821045454545327</error></trial></trials></MIDI>