<MIDI midiNo="2022_11_03-09_22_38"><target_notes><notes name="Note List">[{"pitch": 42, "velocity": 80, "note_on_time": 0.003, "note_off_time": 0.23}, {"pitch": 42, "velocity": 80, "note_on_time": 0.23, "note_off_time": 0.449}, {"pitch": 42, "velocity": 80, "note_on_time": 0.449, "note_off_time": 0.665}, {"pitch": 42, "velocity": 80, "note_on_time": 0.665, "note_off_time": 0.882}, {"pitch": 65, "velocity": 80, "note_on_time": 0.882, "note_off_time": 1.098}, {"pitch": 42, "velocity": 80, "note_on_time": 0.882, "note_off_time": 1.098}, {"pitch": 67, "velocity": 80, "note_on_time": 1.098, "note_off_time": 1.316}, {"pitch": 42, "velocity": 80, "note_on_time": 1.098, "note_off_time": 1.316}, {"pitch": 65, "velocity": 80, "note_on_time": 1.316, "note_off_time": 1.534}, {"pitch": 42, "velocity": 80, "note_on_time": 1.316, "note_off_time": 1.534}, {"pitch": 64, "velocity": 80, "note_on_time": 1.534, "note_off_time": 1.75}, {"pitch": 42, "velocity": 80, "note_on_time": 1.534, "note_off_time": 1.75}, {"pitch": 60, "velocity": 80, "note_on_time": 1.75, "note_off_time": 1.968}, {"pitch": 42, "velocity": 80, "note_on_time": 1.75, "note_off_time": 1.968}, {"pitch": 65, "velocity": 80, "note_on_time": 1.968, "note_off_time": 2.186}, {"pitch": 42, "velocity": 80, "note_on_time": 1.968, "note_off_time": 2.186}, {"pitch": 62, "velocity": 80, "note_on_time": 2.186, "note_off_time": 2.406}, {"pitch": 42, "velocity": 80, "note_on_time": 2.186, "note_off_time": 2.406}, {"pitch": 64, "velocity": 80, "note_on_time": 2.406, "note_off_time": 2.625}, {"pitch": 42, "velocity": 80, "note_on_time": 2.406, "note_off_time": 2.625}, {"pitch": 65, "velocity": 80, "note_on_time": 2.625, "note_off_time": 2.843}, {"pitch": 42, "velocity": 80, "note_on_time": 2.625, "note_off_time": 2.843}, {"pitch": 64, "velocity": 80, "note_on_time": 2.843, "note_off_time": 3.063}, {"pitch": 42, "velocity": 80, "note_on_time": 2.843, "note_off_time": 3.063}, {"pitch": 60, "velocity": 80, "note_on_time": 3.063, "note_off_time": 3.283}, {"pitch": 42, "velocity": 80, "note_on_time": 3.063, "note_off_time": 3.283}, {"pitch": 67, "velocity": 80, "note_on_time": 3.283, "note_off_time": 3.501}, {"pitch": 42, "velocity": 80, "note_on_time": 3.283, "note_off_time": 3.501}, {"pitch": 42, "velocity": 80, "note_on_time": 3.501, "note_off_time": 3.719}, {"pitch": 65, "velocity": 80, "note_on_time": 3.501, "note_off_time": 3.938}, {"pitch": 42, "velocity": 80, "note_on_time": 3.719, "note_off_time": 3.938}, {"pitch": 42, "velocity": 80, "note_on_time": 3.938, "note_off_time": 4.156}, {"pitch": 42, "velocity": 80, "note_on_time": 4.156, "note_off_time": 4.376}, {"pitch": 62, "velocity": 80, "note_on_time": 4.376, "note_off_time": 4.593}, {"pitch": 42, "velocity": 80, "note_on_time": 4.376, "note_off_time": 4.593}, {"pitch": 62, "velocity": 80, "note_on_time": 4.593, "note_off_time": 4.81}, {"pitch": 42, "velocity": 80, "note_on_time": 4.593, "note_off_time": 4.81}, {"pitch": 67, "velocity": 80, "note_on_time": 4.81, "note_off_time": 5.027}, {"pitch": 42, "velocity": 80, "note_on_time": 4.81, "note_off_time": 5.027}, {"pitch": 67, "velocity": 80, "note_on_time": 5.027, "note_off_time": 5.244}, {"pitch": 42, "velocity": 80, "note_on_time": 5.027, "note_off_time": 5.244}, {"pitch": 64, "velocity": 80, "note_on_time": 5.244, "note_off_time": 5.461}, {"pitch": 42, "velocity": 80, "note_on_time": 5.244, "note_off_time": 5.461}, {"pitch": 65, "velocity": 80, "note_on_time": 5.461, "note_off_time": 5.678}, {"pitch": 42, "velocity": 80, "note_on_time": 5.461, "note_off_time": 5.678}, {"pitch": 60, "velocity": 80, "note_on_time": 5.678, "note_off_time": 5.897}, {"pitch": 42, "velocity": 80, "note_on_time": 5.678, "note_off_time": 5.897}, {"pitch": 60, "velocity": 80, "note_on_time": 5.897, "note_off_time": 6.115}, {"pitch": 42, "velocity": 80, "note_on_time": 5.897, "note_off_time": 6.115}, {"pitch": 65, "velocity": 80, "note_on_time": 6.115, "note_off_time": 6.332}, {"pitch": 42, "velocity": 80, "note_on_time": 6.115, "note_off_time": 6.332}, {"pitch": 62, "velocity": 80, "note_on_time": 6.332, "note_off_time": 6.549}, {"pitch": 42, "velocity": 80, "note_on_time": 6.332, "note_off_time": 6.549}, {"pitch": 65, "velocity": 80, "note_on_time": 6.549, "note_off_time": 6.766}, {"pitch": 42, "velocity": 80, "note_on_time": 6.549, "note_off_time": 6.766}, {"pitch": 42, "velocity": 80, "note_on_time": 6.766, "note_off_time": 6.984}, {"pitch": 42, "velocity": 80, "note_on_time": 6.984, "note_off_time": 7.201}, {"pitch": 65, "velocity": 80, "note_on_time": 7.201, "note_off_time": 7.421}, {"pitch": 42, "velocity": 80, "note_on_time": 7.201, "note_off_time": 7.421}, {"pitch": 65, "velocity": 80, "note_on_time": 7.421, "note_off_time": 7.638}, {"pitch": 42, "velocity": 80, "note_on_time": 7.421, "note_off_time": 7.638}, {"pitch": 65, "velocity": 80, "note_on_time": 7.638, "note_off_time": 7.86}, {"pitch": 42, "velocity": 80, "note_on_time": 7.638, "note_off_time": 7.86}]</notes><options name="Option List">((4, 4), [0.5, 0.25], 3, 8, &lt;NoteRangePerHand.C_TO_G: 6&gt;, &lt;NoteRangePerHand.ONE_NOTE: 2&gt;, False, True, False, 281)</options></target_notes><trials><trial trial_no="1" timestamp="2022_11_03-09_22_29"><notes name="Played Notes">[{"pitch": 65, "velocity": 65, "note_on_time": 2.498, "note_off_time": 2.796}, {"pitch": 67, "velocity": 66, "note_on_time": 2.788, "note_off_time": 3.138}, {"pitch": 65, "velocity": 61, "note_on_time": 3.073, "note_off_time": 3.389}, {"pitch": 64, "velocity": 66, "note_on_time": 3.336, "note_off_time": 3.637}, {"pitch": 60, "velocity": 62, "note_on_time": 3.63, "note_off_time": 3.91}, {"pitch": 65, "velocity": 62, "note_on_time": 3.901, "note_off_time": 4.183}, {"pitch": 62, "velocity": 67, "note_on_time": 4.157, "note_off_time": 4.495}, {"pitch": 64, "velocity": 68, "note_on_time": 4.434, "note_off_time": 4.749}, {"pitch": 65, "velocity": 63, "note_on_time": 4.723, "note_off_time": 5.112}, {"pitch": 64, "velocity": 57, "note_on_time": 4.996, "note_off_time": 5.26}, {"pitch": 60, "velocity": 60, "note_on_time": 5.263, "note_off_time": 5.558}, {"pitch": 67, "velocity": 60, "note_on_time": 5.528, "note_off_time": 5.882}, {"pitch": 65, "velocity": 50, "note_on_time": 5.832, "note_off_time": 6.544}, {"pitch": 62, "velocity": 45, "note_on_time": 7.115, "note_off_time": 7.341}, {"pitch": 62, "velocity": 54, "note_on_time": 7.448, "note_off_time": 7.777}]</notes><guidance name="Guidance Mode">None</guidance><error name="Error value">0.9739422916666667</error></trial><trial trial_no="2" timestamp="2022_11_03-09_22_55"><notes name="Played Notes">[{"pitch": 65, "velocity": 59, "note_on_time": 1.108, "note_off_time": 1.334}, {"pitch": 67, "velocity": 66, "note_on_time": 1.331, "note_off_time": 1.659}, {"pitch": 65, "velocity": 69, "note_on_time": 1.563, "note_off_time": 1.828}, {"pitch": 64, "velocity": 69, "note_on_time": 1.762, "note_off_time": 1.98}, {"pitch": 60, "velocity": 64, "note_on_time": 1.983, "note_off_time": 2.193}, {"pitch": 65, "velocity": 59, "note_on_time": 2.197, "note_off_time": 2.42}, {"pitch": 62, "velocity": 50, "note_on_time": 2.4, "note_off_time": 2.659}, {"pitch": 64, "velocity": 61, "note_on_time": 2.612, "note_off_time": 2.859}, {"pitch": 65, "velocity": 59, "note_on_time": 2.841, "note_off_time": 3.163}, {"pitch": 64, "velocity": 55, "note_on_time": 3.055, "note_off_time": 3.276}, {"pitch": 60, "velocity": 60, "note_on_time": 3.275, "note_off_time": 3.535}, {"pitch": 67, "velocity": 57, "note_on_time": 3.481, "note_off_time": 3.797}, {"pitch": 65, "velocity": 60, "note_on_time": 3.714, "note_off_time": 4.248}, {"pitch": 62, "velocity": 49, "note_on_time": 4.568, "note_off_time": 4.704}, {"pitch": 62, "velocity": 64, "note_on_time": 4.808, "note_off_time": 5.074}, {"pitch": 67, "velocity": 55, "note_on_time": 5.019, "note_off_time": 5.142}, {"pitch": 67, "velocity": 69, "note_on_time": 5.231, "note_off_time": 5.516}, {"pitch": 64, "velocity": 62, "note_on_time": 5.489, "note_off_time": 5.719}, {"pitch": 65, "velocity": 63, "note_on_time": 5.695, "note_off_time": 5.916}, {"pitch": 60, "velocity": 64, "note_on_time": 5.903, "note_off_time": 5.988}, {"pitch": 60, "velocity": 58, "note_on_time": 6.102, "note_off_time": 6.316}, {"pitch": 65, "velocity": 47, "note_on_time": 6.357, "note_off_time": 6.523}, {"pitch": 62, "velocity": 45, "note_on_time": 6.542, "note_off_time": 6.815}, {"pitch": 65, "velocity": 57, "note_on_time": 6.772, "note_off_time": 7.239}, {"pitch": 65, "velocity": 59, "note_on_time": 7.437, "note_off_time": 7.536}, {"pitch": 65, "velocity": 61, "note_on_time": 7.649, "note_off_time": 7.739}]</notes><guidance name="Guidance Mode">None</guidance><error name="Error value">0.06418845833333343</error></trial><trial trial_no="3" timestamp="2022_11_03-09_23_14"><notes name="Played Notes">[{"pitch": 65, "velocity": 51, "note_on_time": 0.712, "note_off_time": 0.921}, {"pitch": 67, "velocity": 57, "note_on_time": 0.933, "note_off_time": 1.233}, {"pitch": 65, "velocity": 63, "note_on_time": 1.145, "note_off_time": 1.419}, {"pitch": 64, "velocity": 64, "note_on_time": 1.343, "note_off_time": 1.571}, {"pitch": 60, "velocity": 58, "note_on_time": 1.566, "note_off_time": 1.755}, {"pitch": 65, "velocity": 57, "note_on_time": 1.764, "note_off_time": 1.977}, {"pitch": 62, "velocity": 55, "note_on_time": 1.969, "note_off_time": 2.216}, {"pitch": 64, "velocity": 60, "note_on_time": 2.169, "note_off_time": 2.411}, {"pitch": 65, "velocity": 60, "note_on_time": 2.401, "note_off_time": 2.688}, {"pitch": 64, "velocity": 53, "note_on_time": 2.607, "note_off_time": 2.809}, {"pitch": 60, "velocity": 58, "note_on_time": 2.818, "note_off_time": 3.066}, {"pitch": 67, "velocity": 55, "note_on_time": 3.025, "note_off_time": 3.3}, {"pitch": 65, "velocity": 51, "note_on_time": 3.242, "note_off_time": 3.845}, {"pitch": 62, "velocity": 44, "note_on_time": 4.171, "note_off_time": 4.294}, {"pitch": 62, "velocity": 56, "note_on_time": 4.399, "note_off_time": 4.674}, {"pitch": 67, "velocity": 54, "note_on_time": 4.617, "note_off_time": 4.727}, {"pitch": 67, "velocity": 60, "note_on_time": 4.824, "note_off_time": 5.107}, {"pitch": 64, "velocity": 56, "note_on_time": 5.085, "note_off_time": 5.317}, {"pitch": 65, "velocity": 59, "note_on_time": 5.301, "note_off_time": 5.54}, {"pitch": 60, "velocity": 62, "note_on_time": 5.521, "note_off_time": 5.62}, {"pitch": 60, "velocity": 51, "note_on_time": 5.74, "note_off_time": 5.936}, {"pitch": 65, "velocity": 57, "note_on_time": 5.967, "note_off_time": 6.183}, {"pitch": 62, "velocity": 49, "note_on_time": 6.184, "note_off_time": 6.44}, {"pitch": 65, "velocity": 55, "note_on_time": 6.423, "note_off_time": 6.904}, {"pitch": 65, "velocity": 50, "note_on_time": 7.219, "note_off_time": 7.291}, {"pitch": 65, "velocity": 62, "note_on_time": 7.453, "note_off_time": 7.535}, {"pitch": 65, "velocity": 49, "note_on_time": 7.693, "note_off_time": 7.811}]</notes><guidance name="Guidance Mode">None</guidance><error name="Error value">0.02155004166666649</error></trial><trial trial_no="4" timestamp="2022_11_03-09_23_31"><notes name="Played Notes">[{"pitch": 65, "velocity": 55, "note_on_time": 0.8, "note_off_time": 1.031}, {"pitch": 67, "velocity": 60, "note_on_time": 1.036, "note_off_time": 1.301}, {"pitch": 65, "velocity": 62, "note_on_time": 1.248, "note_off_time": 1.491}, {"pitch": 64, "velocity": 61, "note_on_time": 1.428, "note_off_time": 1.643}, {"pitch": 60, "velocity": 64, "note_on_time": 1.647, "note_off_time": 1.831}, {"pitch": 65, "velocity": 57, "note_on_time": 1.839, "note_off_time": 2.047}, {"pitch": 62, "velocity": 60, "note_on_time": 2.032, "note_off_time": 2.278}, {"pitch": 64, "velocity": 58, "note_on_time": 2.216, "note_off_time": 2.465}, {"pitch": 65, "velocity": 62, "note_on_time": 2.443, "note_off_time": 2.726}, {"pitch": 64, "velocity": 56, "note_on_time": 2.65, "note_off_time": 2.846}, {"pitch": 60, "velocity": 55, "note_on_time": 2.855, "note_off_time": 3.118}, {"pitch": 67, "velocity": 45, "note_on_time": 3.05, "note_off_time": 3.338}, {"pitch": 65, "velocity": 58, "note_on_time": 3.281, "note_off_time": 3.929}, {"pitch": 62, "velocity": 52, "note_on_time": 4.287, "note_off_time": 4.412}, {"pitch": 62, "velocity": 49, "note_on_time": 4.526, "note_off_time": 4.795}, {"pitch": 67, "velocity": 52, "note_on_time": 4.751, "note_off_time": 4.86}, {"pitch": 67, "velocity": 65, "note_on_time": 4.95, "note_off_time": 5.212}, {"pitch": 64, "velocity": 55, "note_on_time": 5.202, "note_off_time": 5.407}, {"pitch": 65, "velocity": 56, "note_on_time": 5.396, "note_off_time": 5.634}, {"pitch": 60, "velocity": 53, "note_on_time": 5.627, "note_off_time": 5.703}, {"pitch": 60, "velocity": 54, "note_on_time": 5.821, "note_off_time": 6.014}, {"pitch": 65, "velocity": 54, "note_on_time": 6.041, "note_off_time": 6.194}, {"pitch": 62, "velocity": 52, "note_on_time": 6.236, "note_off_time": 6.485}, {"pitch": 65, "velocity": 56, "note_on_time": 6.454, "note_off_time": 6.938}, {"pitch": 65, "velocity": 64, "note_on_time": 7.141, "note_off_time": 7.211}, {"pitch": 65, "velocity": 56, "note_on_time": 7.365, "note_off_time": 7.436}, {"pitch": 65, "velocity": 61, "note_on_time": 7.578, "note_off_time": 7.68}]</notes><guidance name="Guidance Mode">None</guidance><error name="Error value">0.02434937500000003</error></trial><trial trial_no="5" timestamp="2022_11_03-09_23_46"><notes name="Played Notes">[{"pitch": 65, "velocity": 55, "note_on_time": 0.971, "note_off_time": 1.186}, {"pitch": 67, "velocity": 53, "note_on_time": 1.202, "note_off_time": 1.447}, {"pitch": 65, "velocity": 59, "note_on_time": 1.403, "note_off_time": 1.633}, {"pitch": 64, "velocity": 63, "note_on_time": 1.589, "note_off_time": 1.79}, {"pitch": 60, "velocity": 63, "note_on_time": 1.792, "note_off_time": 1.974}, {"pitch": 65, "velocity": 58, "note_on_time": 1.978, "note_off_time": 2.178}, {"pitch": 62, "velocity": 67, "note_on_time": 2.169, "note_off_time": 2.423}, {"pitch": 64, "velocity": 62, "note_on_time": 2.363, "note_off_time": 2.573}, {"pitch": 65, "velocity": 63, "note_on_time": 2.557, "note_off_time": 2.844}, {"pitch": 64, "velocity": 62, "note_on_time": 2.752, "note_off_time": 2.94}, {"pitch": 60, "velocity": 61, "note_on_time": 2.94, "note_off_time": 3.188}, {"pitch": 67, "velocity": 54, "note_on_time": 3.136, "note_off_time": 3.415}, {"pitch": 65, "velocity": 53, "note_on_time": 3.354, "note_off_time": 3.901}, {"pitch": 62, "velocity": 40, "note_on_time": 4.18, "note_off_time": 4.271}, {"pitch": 62, "velocity": 43, "note_on_time": 4.4, "note_off_time": 4.662}, {"pitch": 67, "velocity": 56, "note_on_time": 4.602, "note_off_time": 4.706}, {"pitch": 67, "velocity": 61, "note_on_time": 4.8, "note_off_time": 5.044}, {"pitch": 64, "velocity": 59, "note_on_time": 5.029, "note_off_time": 5.259}, {"pitch": 65, "velocity": 59, "note_on_time": 5.235, "note_off_time": 5.434}, {"pitch": 60, "velocity": 57, "note_on_time": 5.444, "note_off_time": 5.522}, {"pitch": 60, "velocity": 55, "note_on_time": 5.643, "note_off_time": 5.818}, {"pitch": 65, "velocity": 60, "note_on_time": 5.848, "note_off_time": 6.014}, {"pitch": 62, "velocity": 57, "note_on_time": 6.033, "note_off_time": 6.29}, {"pitch": 65, "velocity": 56, "note_on_time": 6.262, "note_off_time": 6.77}, {"pitch": 65, "velocity": 59, "note_on_time": 6.993, "note_off_time": 7.059}, {"pitch": 65, "velocity": 59, "note_on_time": 7.2, "note_off_time": 7.263}, {"pitch": 65, "velocity": 54, "note_on_time": 7.403, "note_off_time": 7.492}]</notes><guidance name="Guidance Mode">None</guidance><error name="Error value">0.020285208333333454</error></trial></trials></MIDI>