<MIDI midiNo="2022_12_22-13_45_24"><target_notes><notes name="Note List">[{"pitch": 42, "velocity": 80, "note_on_time": 0.004, "note_off_time": 0.294}, {"pitch": 42, "velocity": 80, "note_on_time": 0.294, "note_off_time": 0.589}, {"pitch": 42, "velocity": 80, "note_on_time": 0.59, "note_off_time": 0.886}, {"pitch": 42, "velocity": 80, "note_on_time": 0.886, "note_off_time": 1.181}, {"pitch": 64, "velocity": 80, "note_on_time": 1.181, "note_off_time": 1.462}, {"pitch": 42, "velocity": 80, "note_on_time": 1.181, "note_off_time": 1.462}, {"pitch": 64, "velocity": 80, "note_on_time": 1.462, "note_off_time": 1.757}, {"pitch": 42, "velocity": 80, "note_on_time": 1.462, "note_off_time": 1.757}, {"pitch": 60, "velocity": 80, "note_on_time": 1.757, "note_off_time": 2.051}, {"pitch": 42, "velocity": 80, "note_on_time": 1.758, "note_off_time": 2.051}, {"pitch": 62, "velocity": 80, "note_on_time": 2.051, "note_off_time": 2.333}, {"pitch": 42, "velocity": 80, "note_on_time": 2.051, "note_off_time": 2.333}, {"pitch": 42, "velocity": 80, "note_on_time": 2.333, "note_off_time": 2.628}, {"pitch": 62, "velocity": 80, "note_on_time": 2.333, "note_off_time": 2.91}, {"pitch": 42, "velocity": 80, "note_on_time": 2.629, "note_off_time": 2.911}, {"pitch": 42, "velocity": 80, "note_on_time": 2.911, "note_off_time": 3.206}, {"pitch": 42, "velocity": 80, "note_on_time": 3.206, "note_off_time": 3.5}, {"pitch": 62, "velocity": 80, "note_on_time": 3.5, "note_off_time": 3.795}, {"pitch": 42, "velocity": 80, "note_on_time": 3.5, "note_off_time": 3.795}, {"pitch": 42, "velocity": 80, "note_on_time": 3.795, "note_off_time": 4.076}, {"pitch": 62, "velocity": 80, "note_on_time": 3.795, "note_off_time": 4.363}, {"pitch": 42, "velocity": 80, "note_on_time": 4.076, "note_off_time": 4.363}, {"pitch": 62, "velocity": 80, "note_on_time": 4.363, "note_off_time": 4.658}, {"pitch": 42, "velocity": 80, "note_on_time": 4.363, "note_off_time": 4.658}, {"pitch": 60, "velocity": 80, "note_on_time": 4.658, "note_off_time": 4.954}, {"pitch": 42, "velocity": 80, "note_on_time": 4.659, "note_off_time": 4.955}, {"pitch": 60, "velocity": 80, "note_on_time": 4.954, "note_off_time": 5.25}, {"pitch": 42, "velocity": 80, "note_on_time": 4.955, "note_off_time": 5.251}, {"pitch": 62, "velocity": 80, "note_on_time": 5.25, "note_off_time": 5.546}, {"pitch": 42, "velocity": 80, "note_on_time": 5.251, "note_off_time": 5.546}, {"pitch": 62, "velocity": 80, "note_on_time": 5.546, "note_off_time": 5.842}, {"pitch": 42, "velocity": 80, "note_on_time": 5.547, "note_off_time": 5.843}, {"pitch": 64, "velocity": 80, "note_on_time": 5.842, "note_off_time": 6.138}, {"pitch": 42, "velocity": 80, "note_on_time": 5.843, "note_off_time": 6.138}, {"pitch": 62, "velocity": 80, "note_on_time": 6.138, "note_off_time": 6.421}, {"pitch": 42, "velocity": 80, "note_on_time": 6.138, "note_off_time": 6.421}, {"pitch": 62, "velocity": 80, "note_on_time": 6.421, "note_off_time": 6.716}, {"pitch": 42, "velocity": 80, "note_on_time": 6.421, "note_off_time": 6.716}, {"pitch": 64, "velocity": 80, "note_on_time": 6.716, "note_off_time": 7.011}, {"pitch": 42, "velocity": 80, "note_on_time": 6.716, "note_off_time": 7.012}, {"pitch": 42, "velocity": 80, "note_on_time": 7.012, "note_off_time": 7.307}, {"pitch": 64, "velocity": 80, "note_on_time": 7.011, "note_off_time": 7.589}, {"pitch": 42, "velocity": 80, "note_on_time": 7.308, "note_off_time": 7.59}, {"pitch": 42, "velocity": 80, "note_on_time": 7.59, "note_off_time": 7.885}, {"pitch": 62, "velocity": 80, "note_on_time": 7.885, "note_off_time": 8.179}, {"pitch": 42, "velocity": 80, "note_on_time": 7.886, "note_off_time": 8.18}, {"pitch": 42, "velocity": 80, "note_on_time": 8.18, "note_off_time": 8.461}, {"pitch": 60, "velocity": 80, "note_on_time": 8.179, "note_off_time": 8.743}, {"pitch": 42, "velocity": 80, "note_on_time": 8.462, "note_off_time": 8.743}, {"pitch": 42, "velocity": 80, "note_on_time": 8.743, "note_off_time": 9.026}, {"pitch": 60, "velocity": 80, "note_on_time": 9.026, "note_off_time": 9.321}, {"pitch": 42, "velocity": 80, "note_on_time": 9.027, "note_off_time": 9.322}, {"pitch": 42, "velocity": 80, "note_on_time": 9.322, "note_off_time": 9.603}, {"pitch": 60, "velocity": 80, "note_on_time": 9.603, "note_off_time": 9.899}, {"pitch": 42, "velocity": 80, "note_on_time": 9.604, "note_off_time": 9.899}, {"pitch": 60, "velocity": 80, "note_on_time": 9.899, "note_off_time": 10.18}, {"pitch": 42, "velocity": 80, "note_on_time": 9.899, "note_off_time": 10.18}, {"pitch": 60, "velocity": 80, "note_on_time": 10.18, "note_off_time": 10.475}, {"pitch": 42, "velocity": 80, "note_on_time": 10.18, "note_off_time": 10.475}]</notes><options name="Option List">((4, 4), [0.5, 0.25], 3, 8, &lt;NoteRangePerHand.THREE_NOTES: 4&gt;, &lt;NoteRangePerHand.ONE_NOTE: 2&gt;, False, True, False, 215)</options></target_notes><trials><trial trial_no="1" timestamp="2022_12_22-13_45_12"><notes name="Played Notes">[{"pitch": 64, "velocity": 72, "note_on_time": 1.228, "note_off_time": 1.384}, {"pitch": 64, "velocity": 85, "note_on_time": 1.539, "note_off_time": 1.707}, {"pitch": 60, "velocity": 92, "note_on_time": 1.913, "note_off_time": 2.085}, {"pitch": 62, "velocity": 85, "note_on_time": 2.206, "note_off_time": 2.358}, {"pitch": 62, "velocity": 94, "note_on_time": 2.539, "note_off_time": 3.105}, {"pitch": 62, "velocity": 83, "note_on_time": 3.281, "note_off_time": 3.406}, {"pitch": 62, "velocity": 91, "note_on_time": 3.588, "note_off_time": 4.057}, {"pitch": 62, "velocity": 87, "note_on_time": 4.178, "note_off_time": 4.365}, {"pitch": 60, "velocity": 98, "note_on_time": 4.651, "note_off_time": 4.822}, {"pitch": 60, "velocity": 82, "note_on_time": 4.941, "note_off_time": 5.099}, {"pitch": 62, "velocity": 91, "note_on_time": 5.241, "note_off_time": 5.394}, {"pitch": 62, "velocity": 78, "note_on_time": 5.517, "note_off_time": 5.677}, {"pitch": 64, "velocity": 90, "note_on_time": 5.838, "note_off_time": 6.001}, {"pitch": 62, "velocity": 86, "note_on_time": 6.134, "note_off_time": 6.283}, {"pitch": 62, "velocity": 82, "note_on_time": 6.45, "note_off_time": 6.615}, {"pitch": 64, "velocity": 80, "note_on_time": 6.744, "note_off_time": 6.888}, {"pitch": 64, "velocity": 94, "note_on_time": 7.051, "note_off_time": 7.536}, {"pitch": 62, "velocity": 93, "note_on_time": 8.109, "note_off_time": 8.509}, {"pitch": 60, "velocity": 82, "note_on_time": 8.677, "note_off_time": 9.281}, {"pitch": 60, "velocity": 98, "note_on_time": 9.651, "note_off_time": 9.973}, {"pitch": 60, "velocity": 102, "note_on_time": 10.171, "note_off_time": 10.348}]</notes><guidance name="Guidance Mode">None</guidance><error name="Error value">0.21525514999999998</error></trial></trials></MIDI>