<MIDI midiNo="2022_08_17-14_39_47"><target_notes><notes name="Note List">[{"pitch": 42, "velocity": 80, "note_on_time": 0.003, "note_off_time": 0.406}, {"pitch": 42, "velocity": 80, "note_on_time": 0.406, "note_off_time": 0.813}, {"pitch": 42, "velocity": 80, "note_on_time": 0.813, "note_off_time": 1.218}, {"pitch": 42, "velocity": 80, "note_on_time": 1.218, "note_off_time": 1.625}, {"pitch": 42, "velocity": 80, "note_on_time": 1.625, "note_off_time": 2.033}, {"pitch": 62, "velocity": 80, "note_on_time": 1.624, "note_off_time": 2.439}, {"pitch": 42, "velocity": 80, "note_on_time": 2.033, "note_off_time": 2.44}, {"pitch": 42, "velocity": 80, "note_on_time": 2.44, "note_off_time": 2.845}, {"pitch": 42, "velocity": 80, "note_on_time": 2.845, "note_off_time": 3.249}, {"pitch": 65, "velocity": 80, "note_on_time": 3.249, "note_off_time": 3.654}, {"pitch": 42, "velocity": 80, "note_on_time": 3.249, "note_off_time": 3.654}, {"pitch": 42, "velocity": 80, "note_on_time": 3.654, "note_off_time": 4.059}, {"pitch": 42, "velocity": 80, "note_on_time": 4.059, "note_off_time": 4.466}, {"pitch": 42, "velocity": 80, "note_on_time": 4.467, "note_off_time": 4.871}, {"pitch": 65, "velocity": 80, "note_on_time": 4.87, "note_off_time": 5.277}, {"pitch": 42, "velocity": 80, "note_on_time": 4.871, "note_off_time": 5.277}, {"pitch": 60, "velocity": 80, "note_on_time": 5.277, "note_off_time": 5.682}, {"pitch": 42, "velocity": 80, "note_on_time": 5.277, "note_off_time": 5.682}, {"pitch": 64, "velocity": 80, "note_on_time": 5.682, "note_off_time": 6.087}, {"pitch": 42, "velocity": 80, "note_on_time": 5.682, "note_off_time": 6.088}, {"pitch": 65, "velocity": 80, "note_on_time": 6.087, "note_off_time": 6.493}, {"pitch": 42, "velocity": 80, "note_on_time": 6.088, "note_off_time": 6.493}, {"pitch": 64, "velocity": 80, "note_on_time": 6.493, "note_off_time": 6.899}, {"pitch": 42, "velocity": 80, "note_on_time": 6.494, "note_off_time": 6.899}, {"pitch": 65, "velocity": 80, "note_on_time": 6.899, "note_off_time": 7.308}, {"pitch": 42, "velocity": 80, "note_on_time": 6.899, "note_off_time": 7.308}, {"pitch": 65, "velocity": 80, "note_on_time": 7.308, "note_off_time": 7.715}, {"pitch": 42, "velocity": 80, "note_on_time": 7.309, "note_off_time": 7.715}, {"pitch": 65, "velocity": 80, "note_on_time": 7.715, "note_off_time": 8.122}, {"pitch": 42, "velocity": 80, "note_on_time": 7.715, "note_off_time": 8.122}, {"pitch": 64, "velocity": 80, "note_on_time": 8.122, "note_off_time": 8.533}, {"pitch": 42, "velocity": 80, "note_on_time": 8.122, "note_off_time": 8.533}, {"pitch": 60, "velocity": 80, "note_on_time": 8.533, "note_off_time": 8.938}, {"pitch": 42, "velocity": 80, "note_on_time": 8.533, "note_off_time": 8.939}, {"pitch": 67, "velocity": 80, "note_on_time": 8.938, "note_off_time": 9.346}, {"pitch": 42, "velocity": 80, "note_on_time": 8.939, "note_off_time": 9.346}, {"pitch": 65, "velocity": 80, "note_on_time": 9.346, "note_off_time": 9.752}, {"pitch": 42, "velocity": 80, "note_on_time": 9.346, "note_off_time": 9.752}, {"pitch": 67, "velocity": 80, "note_on_time": 9.752, "note_off_time": 10.156}, {"pitch": 42, "velocity": 80, "note_on_time": 9.752, "note_off_time": 10.157}, {"pitch": 42, "velocity": 80, "note_on_time": 10.157, "note_off_time": 10.562}, {"pitch": 42, "velocity": 80, "note_on_time": 10.563, "note_off_time": 10.967}, {"pitch": 60, "velocity": 80, "note_on_time": 10.562, "note_off_time": 11.374}, {"pitch": 42, "velocity": 80, "note_on_time": 10.968, "note_off_time": 11.374}, {"pitch": 42, "velocity": 80, "note_on_time": 11.374, "note_off_time": 11.778}, {"pitch": 65, "velocity": 80, "note_on_time": 11.374, "note_off_time": 12.185}, {"pitch": 42, "velocity": 80, "note_on_time": 11.778, "note_off_time": 12.185}, {"pitch": 42, "velocity": 80, "note_on_time": 12.186, "note_off_time": 12.59}, {"pitch": 62, "velocity": 80, "note_on_time": 12.59, "note_off_time": 12.997}, {"pitch": 42, "velocity": 80, "note_on_time": 12.59, "note_off_time": 12.997}, {"pitch": 42, "velocity": 80, "note_on_time": 12.997, "note_off_time": 13.402}, {"pitch": 62, "velocity": 80, "note_on_time": 13.402, "note_off_time": 13.806}, {"pitch": 42, "velocity": 80, "note_on_time": 13.403, "note_off_time": 13.806}, {"pitch": 62, "velocity": 80, "note_on_time": 13.806, "note_off_time": 14.213}, {"pitch": 42, "velocity": 80, "note_on_time": 13.806, "note_off_time": 14.214}, {"pitch": 62, "velocity": 80, "note_on_time": 14.213, "note_off_time": 14.62}, {"pitch": 42, "velocity": 80, "note_on_time": 14.214, "note_off_time": 14.62}]</notes><options name="Option List">((4, 4), [0.5, 0.25], 3, 8, &lt;NoteRangePerHand.C_TO_G: 6&gt;, &lt;NoteRangePerHand.ONE_NOTE: 2&gt;, False, True, True, '150')</options></target_notes><trials><trial trial_no="1" timestamp="2022_08_17-14_39_31"><notes name="Played Notes">[{"pitch": 62, "velocity": 72, "note_on_time": 1.613, "note_off_time": 2.173}, {"pitch": 65, "velocity": 78, "note_on_time": 2.855, "note_off_time": 2.979}, {"pitch": 65, "velocity": 77, "note_on_time": 4.078, "note_off_time": 4.463}, {"pitch": 60, "velocity": 68, "note_on_time": 4.454, "note_off_time": 4.894}, {"pitch": 64, "velocity": 70, "note_on_time": 4.881, "note_off_time": 5.264}, {"pitch": 65, "velocity": 69, "note_on_time": 5.283, "note_off_time": 5.678}, {"pitch": 64, "velocity": 74, "note_on_time": 5.671, "note_off_time": 6.074}, {"pitch": 65, "velocity": 78, "note_on_time": 6.079, "note_off_time": 6.216}, {"pitch": 65, "velocity": 78, "note_on_time": 6.491, "note_off_time": 6.61}, {"pitch": 65, "velocity": 77, "note_on_time": 6.899, "note_off_time": 7.308}, {"pitch": 64, "velocity": 71, "note_on_time": 7.299, "note_off_time": 7.688}, {"pitch": 60, "velocity": 57, "note_on_time": 7.726, "note_off_time": 8.133}, {"pitch": 67, "velocity": 66, "note_on_time": 8.111, "note_off_time": 8.545}, {"pitch": 65, "velocity": 70, "note_on_time": 8.527, "note_off_time": 8.943}, {"pitch": 67, "velocity": 73, "note_on_time": 8.953, "note_off_time": 9.098}, {"pitch": 60, "velocity": 82, "note_on_time": 9.758, "note_off_time": 10.344}, {"pitch": 65, "velocity": 74, "note_on_time": 10.631, "note_off_time": 11.244}, {"pitch": 62, "velocity": 62, "note_on_time": 11.792, "note_off_time": 11.954}, {"pitch": 62, "velocity": 69, "note_on_time": 12.628, "note_off_time": 12.707}, {"pitch": 62, "velocity": 80, "note_on_time": 12.988, "note_off_time": 13.072}, {"pitch": 62, "velocity": 79, "note_on_time": 13.383, "note_off_time": 13.444}]</notes><guidance name="Guidance Mode">None</guidance><error name="Error value">0.06166666666666665</error></trial><trial trial_no="2" timestamp="2022_08_17-14_40_00"><notes name="Played Notes">[{"pitch": 62, "velocity": 69, "note_on_time": 1.668, "note_off_time": 2.215}, {"pitch": 65, "velocity": 70, "note_on_time": 3.274, "note_off_time": 3.509}, {"pitch": 65, "velocity": 69, "note_on_time": 4.969, "note_off_time": 5.318}, {"pitch": 60, "velocity": 68, "note_on_time": 5.311, "note_off_time": 5.723}, {"pitch": 64, "velocity": 73, "note_on_time": 5.718, "note_off_time": 6.101}, {"pitch": 65, "velocity": 68, "note_on_time": 6.117, "note_off_time": 6.513}, {"pitch": 64, "velocity": 62, "note_on_time": 6.512, "note_off_time": 6.923}, {"pitch": 65, "velocity": 71, "note_on_time": 6.91, "note_off_time": 7.069}, {"pitch": 65, "velocity": 74, "note_on_time": 7.309, "note_off_time": 7.429}, {"pitch": 65, "velocity": 77, "note_on_time": 7.719, "note_off_time": 8.115}, {"pitch": 64, "velocity": 71, "note_on_time": 8.125, "note_off_time": 8.503}, {"pitch": 60, "velocity": 68, "note_on_time": 8.528, "note_off_time": 8.915}, {"pitch": 67, "velocity": 73, "note_on_time": 8.923, "note_off_time": 9.302}, {"pitch": 65, "velocity": 81, "note_on_time": 9.315, "note_off_time": 9.718}, {"pitch": 67, "velocity": 81, "note_on_time": 9.729, "note_off_time": 9.893}, {"pitch": 60, "velocity": 78, "note_on_time": 10.556, "note_off_time": 11.339}, {"pitch": 65, "velocity": 51, "note_on_time": 11.37, "note_off_time": 12.337}, {"pitch": 62, "velocity": 82, "note_on_time": 13.018, "note_off_time": 13.155}, {"pitch": 62, "velocity": 60, "note_on_time": 14.056, "note_off_time": 14.168}, {"pitch": 62, "velocity": 73, "note_on_time": 14.418, "note_off_time": 14.512}]</notes><guidance name="Guidance Mode">None</guidance><error name="Error value">0.11933333333333349</error></trial><trial trial_no="3" timestamp="2022_08_17-14_40_30"><notes name="Played Notes">[{"pitch": 62, "velocity": 61, "note_on_time": 1.676, "note_off_time": 2.258}, {"pitch": 65, "velocity": 64, "note_on_time": 3.277, "note_off_time": 3.483}, {"pitch": 65, "velocity": 64, "note_on_time": 4.916, "note_off_time": 5.345}, {"pitch": 60, "velocity": 65, "note_on_time": 5.331, "note_off_time": 5.718}, {"pitch": 64, "velocity": 73, "note_on_time": 5.712, "note_off_time": 6.119}, {"pitch": 65, "velocity": 74, "note_on_time": 6.131, "note_off_time": 6.543}, {"pitch": 64, "velocity": 73, "note_on_time": 6.539, "note_off_time": 6.955}, {"pitch": 65, "velocity": 68, "note_on_time": 6.953, "note_off_time": 7.068}, {"pitch": 65, "velocity": 74, "note_on_time": 7.377, "note_off_time": 7.49}, {"pitch": 65, "velocity": 75, "note_on_time": 7.776, "note_off_time": 7.882}, {"pitch": 64, "velocity": 66, "note_on_time": 8.215, "note_off_time": 8.586}, {"pitch": 60, "velocity": 68, "note_on_time": 8.596, "note_off_time": 9.042}, {"pitch": 67, "velocity": 73, "note_on_time": 9.046, "note_off_time": 9.456}, {"pitch": 65, "velocity": 71, "note_on_time": 9.462, "note_off_time": 9.863}, {"pitch": 67, "velocity": 73, "note_on_time": 9.873, "note_off_time": 9.998}, {"pitch": 60, "velocity": 76, "note_on_time": 10.635, "note_off_time": 11.362}, {"pitch": 65, "velocity": 71, "note_on_time": 12.203, "note_off_time": 12.616}, {"pitch": 62, "velocity": 77, "note_on_time": 13.801, "note_off_time": 13.881}]</notes><guidance name="Guidance Mode">None</guidance><error name="Error value">0.40238888888888885</error></trial></trials></MIDI>