<MIDI midiNo="2022_09_29-12_35_28"><target_notes><notes name="Note List">[{"pitch": 42, "velocity": 80, "note_on_time": 0.003, "note_off_time": 0.29}, {"pitch": 42, "velocity": 80, "note_on_time": 0.29, "note_off_time": 0.571}, {"pitch": 42, "velocity": 80, "note_on_time": 0.571, "note_off_time": 0.852}, {"pitch": 42, "velocity": 80, "note_on_time": 0.852, "note_off_time": 1.134}, {"pitch": 42, "velocity": 80, "note_on_time": 1.134, "note_off_time": 1.415}, {"pitch": 64, "velocity": 80, "note_on_time": 1.134, "note_off_time": 1.697}, {"pitch": 42, "velocity": 80, "note_on_time": 1.415, "note_off_time": 1.697}, {"pitch": 42, "velocity": 80, "note_on_time": 1.697, "note_off_time": 1.992}, {"pitch": 42, "velocity": 80, "note_on_time": 1.992, "note_off_time": 2.287}, {"pitch": 60, "velocity": 80, "note_on_time": 2.287, "note_off_time": 2.582}, {"pitch": 42, "velocity": 80, "note_on_time": 2.287, "note_off_time": 2.582}, {"pitch": 42, "velocity": 80, "note_on_time": 2.582, "note_off_time": 2.876}, {"pitch": 64, "velocity": 80, "note_on_time": 2.876, "note_off_time": 3.171}, {"pitch": 42, "velocity": 80, "note_on_time": 2.876, "note_off_time": 3.171}, {"pitch": 64, "velocity": 80, "note_on_time": 3.171, "note_off_time": 3.466}, {"pitch": 42, "velocity": 80, "note_on_time": 3.171, "note_off_time": 3.466}, {"pitch": 64, "velocity": 80, "note_on_time": 3.466, "note_off_time": 3.749}, {"pitch": 42, "velocity": 80, "note_on_time": 3.466, "note_off_time": 3.749}, {"pitch": 64, "velocity": 80, "note_on_time": 3.749, "note_off_time": 4.03}, {"pitch": 42, "velocity": 80, "note_on_time": 3.749, "note_off_time": 4.03}, {"pitch": 62, "velocity": 80, "note_on_time": 4.03, "note_off_time": 4.324}, {"pitch": 42, "velocity": 80, "note_on_time": 4.03, "note_off_time": 4.324}, {"pitch": 60, "velocity": 80, "note_on_time": 4.324, "note_off_time": 4.619}, {"pitch": 42, "velocity": 80, "note_on_time": 4.324, "note_off_time": 4.619}, {"pitch": 64, "velocity": 80, "note_on_time": 4.619, "note_off_time": 4.912}, {"pitch": 42, "velocity": 80, "note_on_time": 4.619, "note_off_time": 4.912}, {"pitch": 60, "velocity": 80, "note_on_time": 4.912, "note_off_time": 5.194}, {"pitch": 42, "velocity": 80, "note_on_time": 4.912, "note_off_time": 5.194}, {"pitch": 62, "velocity": 80, "note_on_time": 5.194, "note_off_time": 5.475}, {"pitch": 42, "velocity": 80, "note_on_time": 5.194, "note_off_time": 5.475}, {"pitch": 62, "velocity": 80, "note_on_time": 5.475, "note_off_time": 5.757}, {"pitch": 42, "velocity": 80, "note_on_time": 5.475, "note_off_time": 5.757}, {"pitch": 64, "velocity": 80, "note_on_time": 5.757, "note_off_time": 6.051}, {"pitch": 42, "velocity": 80, "note_on_time": 5.757, "note_off_time": 6.051}, {"pitch": 42, "velocity": 80, "note_on_time": 6.051, "note_off_time": 6.331}, {"pitch": 64, "velocity": 80, "note_on_time": 6.051, "note_off_time": 6.613}, {"pitch": 42, "velocity": 80, "note_on_time": 6.331, "note_off_time": 6.613}, {"pitch": 62, "velocity": 80, "note_on_time": 6.613, "note_off_time": 6.894}, {"pitch": 42, "velocity": 80, "note_on_time": 6.613, "note_off_time": 6.894}, {"pitch": 62, "velocity": 80, "note_on_time": 6.894, "note_off_time": 7.175}, {"pitch": 42, "velocity": 80, "note_on_time": 6.894, "note_off_time": 7.175}, {"pitch": 64, "velocity": 80, "note_on_time": 7.175, "note_off_time": 7.47}, {"pitch": 42, "velocity": 80, "note_on_time": 7.175, "note_off_time": 7.47}, {"pitch": 60, "velocity": 80, "note_on_time": 7.47, "note_off_time": 7.764}, {"pitch": 42, "velocity": 80, "note_on_time": 7.47, "note_off_time": 7.764}, {"pitch": 60, "velocity": 80, "note_on_time": 7.764, "note_off_time": 8.057}, {"pitch": 42, "velocity": 80, "note_on_time": 7.764, "note_off_time": 8.057}, {"pitch": 64, "velocity": 80, "note_on_time": 8.057, "note_off_time": 8.338}, {"pitch": 42, "velocity": 80, "note_on_time": 8.057, "note_off_time": 8.338}, {"pitch": 64, "velocity": 80, "note_on_time": 8.338, "note_off_time": 8.62}, {"pitch": 42, "velocity": 80, "note_on_time": 8.338, "note_off_time": 8.62}, {"pitch": 60, "velocity": 80, "note_on_time": 8.62, "note_off_time": 8.914}, {"pitch": 42, "velocity": 80, "note_on_time": 8.62, "note_off_time": 8.914}, {"pitch": 42, "velocity": 80, "note_on_time": 8.914, "note_off_time": 9.195}, {"pitch": 42, "velocity": 80, "note_on_time": 9.195, "note_off_time": 9.489}, {"pitch": 60, "velocity": 80, "note_on_time": 9.489, "note_off_time": 9.771}, {"pitch": 42, "velocity": 80, "note_on_time": 9.489, "note_off_time": 9.771}, {"pitch": 60, "velocity": 80, "note_on_time": 9.771, "note_off_time": 10.066}, {"pitch": 42, "velocity": 80, "note_on_time": 9.771, "note_off_time": 10.066}, {"pitch": 60, "velocity": 80, "note_on_time": 10.066, "note_off_time": 10.361}, {"pitch": 42, "velocity": 80, "note_on_time": 10.066, "note_off_time": 10.361}]</notes><options name="Option List">((4, 4), [0.5, 0.25], 3, 8, &lt;NoteRangePerHand.THREE_NOTES: 4&gt;, &lt;NoteRangePerHand.ONE_NOTE: 2&gt;, False, True, False, '215')</options></target_notes><trials><trial trial_no="1" timestamp="2022_09_29-12_35_16"><notes name="Played Notes">[{"pitch": 64, "velocity": 86, "note_on_time": 1.525, "note_off_time": 2.398}, {"pitch": 60, "velocity": 94, "note_on_time": 2.482, "note_off_time": 3.016}, {"pitch": 64, "velocity": 88, "note_on_time": 3.227, "note_off_time": 3.361}, {"pitch": 64, "velocity": 93, "note_on_time": 3.545, "note_off_time": 3.813}, {"pitch": 62, "velocity": 88, "note_on_time": 3.848, "note_off_time": 3.927}, {"pitch": 64, "velocity": 93, "note_on_time": 4.106, "note_off_time": 4.277}, {"pitch": 64, "velocity": 81, "note_on_time": 4.443, "note_off_time": 4.602}, {"pitch": 62, "velocity": 91, "note_on_time": 4.724, "note_off_time": 4.967}, {"pitch": 60, "velocity": 90, "note_on_time": 5.047, "note_off_time": 5.252}, {"pitch": 62, "velocity": 88, "note_on_time": 5.354, "note_off_time": 5.642}, {"pitch": 60, "velocity": 94, "note_on_time": 5.659, "note_off_time": 5.832}, {"pitch": 60, "velocity": 84, "note_on_time": 5.97, "note_off_time": 6.084}, {"pitch": 64, "velocity": 75, "note_on_time": 6.252, "note_off_time": 6.41}, {"pitch": 64, "velocity": 63, "note_on_time": 6.572, "note_off_time": 6.676}, {"pitch": 62, "velocity": 69, "note_on_time": 6.879, "note_off_time": 7.018}, {"pitch": 64, "velocity": 82, "note_on_time": 7.204, "note_off_time": 7.326}, {"pitch": 64, "velocity": 75, "note_on_time": 7.499, "note_off_time": 7.968}, {"pitch": 62, "velocity": 74, "note_on_time": 7.991, "note_off_time": 8.487}, {"pitch": 64, "velocity": 60, "note_on_time": 8.514, "note_off_time": 8.827}, {"pitch": 62, "velocity": 72, "note_on_time": 8.848, "note_off_time": 9.011}, {"pitch": 60, "velocity": 84, "note_on_time": 9.126, "note_off_time": 9.241}, {"pitch": 60, "velocity": 91, "note_on_time": 9.426, "note_off_time": 9.6}, {"pitch": 62, "velocity": 81, "note_on_time": 9.733, "note_off_time": 9.883}]</notes><guidance name="Guidance Mode">None</guidance><error name="Error value">0.6551661363636365</error></trial><trial trial_no="2" timestamp="2022_09_29-12_35_44"><notes name="Played Notes">[{"pitch": 64, "velocity": 87, "note_on_time": 1.181, "note_off_time": 2.118}, {"pitch": 60, "velocity": 90, "note_on_time": 2.568, "note_off_time": 2.96}, {"pitch": 64, "velocity": 91, "note_on_time": 3.096, "note_off_time": 3.235}, {"pitch": 64, "velocity": 92, "note_on_time": 3.377, "note_off_time": 3.595}, {"pitch": 62, "velocity": 86, "note_on_time": 3.664, "note_off_time": 3.753}, {"pitch": 64, "velocity": 71, "note_on_time": 3.905, "note_off_time": 4.104}, {"pitch": 62, "velocity": 87, "note_on_time": 4.247, "note_off_time": 4.434}, {"pitch": 60, "velocity": 95, "note_on_time": 4.525, "note_off_time": 4.725}, {"pitch": 62, "velocity": 90, "note_on_time": 4.814, "note_off_time": 5.029}, {"pitch": 64, "velocity": 85, "note_on_time": 5.377, "note_off_time": 5.531}, {"pitch": 60, "velocity": 79, "note_on_time": 5.638, "note_off_time": 5.792}, {"pitch": 62, "velocity": 82, "note_on_time": 5.922, "note_off_time": 6.042}, {"pitch": 62, "velocity": 91, "note_on_time": 6.189, "note_off_time": 6.337}, {"pitch": 64, "velocity": 89, "note_on_time": 6.471, "note_off_time": 6.604}, {"pitch": 64, "velocity": 101, "note_on_time": 6.757, "note_off_time": 7.216}, {"pitch": 62, "velocity": 93, "note_on_time": 7.296, "note_off_time": 7.694}, {"pitch": 62, "velocity": 74, "note_on_time": 7.831, "note_off_time": 8.006}, {"pitch": 64, "velocity": 74, "note_on_time": 8.452, "note_off_time": 8.619}, {"pitch": 60, "velocity": 86, "note_on_time": 8.78, "note_off_time": 8.91}, {"pitch": 60, "velocity": 85, "note_on_time": 9.084, "note_off_time": 9.276}, {"pitch": 62, "velocity": 87, "note_on_time": 9.395, "note_off_time": 9.591}, {"pitch": 62, "velocity": 78, "note_on_time": 9.795, "note_off_time": 9.947}, {"pitch": 60, "velocity": 77, "note_on_time": 10.109, "note_off_time": 10.38}]</notes><guidance name="Guidance Mode">None</guidance><error name="Error value">0.6652178636363637</error></trial><trial trial_no="3" timestamp="2022_09_29-12_36_14"><notes name="Played Notes">[{"pitch": 64, "velocity": 94, "note_on_time": 1.407, "note_off_time": 2.346}, {"pitch": 60, "velocity": 95, "note_on_time": 2.574, "note_off_time": 2.797}, {"pitch": 64, "velocity": 88, "note_on_time": 2.902, "note_off_time": 3.033}, {"pitch": 64, "velocity": 98, "note_on_time": 3.177, "note_off_time": 3.533}, {"pitch": 64, "velocity": 84, "note_on_time": 3.899, "note_off_time": 4.067}, {"pitch": 64, "velocity": 81, "note_on_time": 4.195, "note_off_time": 4.307}, {"pitch": 62, "velocity": 70, "note_on_time": 4.442, "note_off_time": 4.615}, {"pitch": 60, "velocity": 92, "note_on_time": 4.76, "note_off_time": 4.91}, {"pitch": 62, "velocity": 83, "note_on_time": 5.036, "note_off_time": 5.219}, {"pitch": 60, "velocity": 94, "note_on_time": 5.326, "note_off_time": 5.475}, {"pitch": 62, "velocity": 76, "note_on_time": 5.598, "note_off_time": 5.725}, {"pitch": 62, "velocity": 87, "note_on_time": 5.908, "note_off_time": 6.05}, {"pitch": 64, "velocity": 78, "note_on_time": 6.19, "note_off_time": 6.337}, {"pitch": 64, "velocity": 88, "note_on_time": 6.487, "note_off_time": 6.974}, {"pitch": 62, "velocity": 83, "note_on_time": 7.087, "note_off_time": 7.264}, {"pitch": 62, "velocity": 81, "note_on_time": 7.361, "note_off_time": 7.569}, {"pitch": 64, "velocity": 73, "note_on_time": 7.823, "note_off_time": 8.012}, {"pitch": 62, "velocity": 66, "note_on_time": 8.104, "note_off_time": 8.201}, {"pitch": 60, "velocity": 85, "note_on_time": 8.351, "note_off_time": 8.539}, {"pitch": 62, "velocity": 80, "note_on_time": 8.706, "note_off_time": 8.814}, {"pitch": 62, "velocity": 86, "note_on_time": 8.996, "note_off_time": 9.125}, {"pitch": 60, "velocity": 92, "note_on_time": 9.282, "note_off_time": 10.093}]</notes><guidance name="Guidance Mode">None</guidance><error name="Error value">0.43126645454545454</error></trial><trial trial_no="4" timestamp="2022_09_29-12_37_11"><notes name="Played Notes">[{"pitch": 64, "velocity": 89, "note_on_time": 1.573, "note_off_time": 2.524}, {"pitch": 60, "velocity": 97, "note_on_time": 2.71, "note_off_time": 3.315}, {"pitch": 64, "velocity": 91, "note_on_time": 3.526, "note_off_time": 3.67}, {"pitch": 64, "velocity": 98, "note_on_time": 3.816, "note_off_time": 3.938}, {"pitch": 64, "velocity": 90, "note_on_time": 4.114, "note_off_time": 4.32}, {"pitch": 62, "velocity": 84, "note_on_time": 4.406, "note_off_time": 4.595}, {"pitch": 60, "velocity": 95, "note_on_time": 4.691, "note_off_time": 4.848}, {"pitch": 64, "velocity": 80, "note_on_time": 4.986, "note_off_time": 5.1}, {"pitch": 60, "velocity": 89, "note_on_time": 5.354, "note_off_time": 5.485}, {"pitch": 62, "velocity": 80, "note_on_time": 5.627, "note_off_time": 5.739}, {"pitch": 62, "velocity": 89, "note_on_time": 5.912, "note_off_time": 6.056}, {"pitch": 62, "velocity": 94, "note_on_time": 6.194, "note_off_time": 6.43}, {"pitch": 64, "velocity": 73, "note_on_time": 6.483, "note_off_time": 6.683}, {"pitch": 64, "velocity": 85, "note_on_time": 6.796, "note_off_time": 7.214}, {"pitch": 62, "velocity": 84, "note_on_time": 7.569, "note_off_time": 7.79}, {"pitch": 64, "velocity": 86, "note_on_time": 7.905, "note_off_time": 8.135}, {"pitch": 62, "velocity": 86, "note_on_time": 8.179, "note_off_time": 8.379}, {"pitch": 60, "velocity": 95, "note_on_time": 8.452, "note_off_time": 8.6}, {"pitch": 60, "velocity": 94, "note_on_time": 8.751, "note_off_time": 8.899}, {"pitch": 64, "velocity": 85, "note_on_time": 9.026, "note_off_time": 9.158}, {"pitch": 64, "velocity": 87, "note_on_time": 9.307, "note_off_time": 9.496}, {"pitch": 60, "velocity": 88, "note_on_time": 9.578, "note_off_time": 9.955}]</notes><guidance name="Guidance Mode">None</guidance><error name="Error value">0.5903808636363638</error></trial><trial trial_no="5" timestamp="2022_09_29-12_37_35"><notes name="Played Notes">[{"pitch": 64, "velocity": 84, "note_on_time": 1.619, "note_off_time": 2.366}, {"pitch": 60, "velocity": 95, "note_on_time": 3.04, "note_off_time": 3.238}, {"pitch": 64, "velocity": 92, "note_on_time": 3.36, "note_off_time": 3.489}, {"pitch": 64, "velocity": 100, "note_on_time": 3.637, "note_off_time": 3.757}, {"pitch": 64, "velocity": 86, "note_on_time": 3.921, "note_off_time": 4.074}, {"pitch": 64, "velocity": 91, "note_on_time": 4.218, "note_off_time": 4.373}, {"pitch": 62, "velocity": 77, "note_on_time": 4.491, "note_off_time": 4.68}, {"pitch": 60, "velocity": 89, "note_on_time": 4.797, "note_off_time": 4.97}, {"pitch": 64, "velocity": 83, "note_on_time": 5.108, "note_off_time": 5.292}, {"pitch": 60, "velocity": 84, "note_on_time": 5.375, "note_off_time": 5.545}, {"pitch": 62, "velocity": 74, "note_on_time": 5.688, "note_off_time": 5.816}, {"pitch": 62, "velocity": 72, "note_on_time": 5.964, "note_off_time": 6.144}, {"pitch": 62, "velocity": 75, "note_on_time": 6.257, "note_off_time": 6.365}, {"pitch": 64, "velocity": 86, "note_on_time": 6.514, "note_off_time": 6.711}, {"pitch": 64, "velocity": 83, "note_on_time": 6.83, "note_off_time": 7.383}, {"pitch": 62, "velocity": 81, "note_on_time": 7.839, "note_off_time": 7.981}, {"pitch": 64, "velocity": 92, "note_on_time": 8.116, "note_off_time": 8.234}, {"pitch": 62, "velocity": 90, "note_on_time": 8.406, "note_off_time": 8.507}, {"pitch": 64, "velocity": 74, "note_on_time": 8.818, "note_off_time": 8.927}, {"pitch": 60, "velocity": 82, "note_on_time": 9.048, "note_off_time": 9.159}, {"pitch": 60, "velocity": 87, "note_on_time": 9.333, "note_off_time": 9.484}, {"pitch": 64, "velocity": 76, "note_on_time": 9.67, "note_off_time": 9.849}, {"pitch": 64, "velocity": 65, "note_on_time": 9.959, "note_off_time": 10.153}]</notes><guidance name="Guidance Mode">None</guidance><error name="Error value">0.4569153636363634</error></trial><trial trial_no="6" timestamp="2022_09_29-12_38_02"><notes name="Played Notes">[{"pitch": 64, "velocity": 83, "note_on_time": 1.485, "note_off_time": 2.282}, {"pitch": 60, "velocity": 90, "note_on_time": 2.563, "note_off_time": 2.957}, {"pitch": 64, "velocity": 87, "note_on_time": 3.085, "note_off_time": 3.223}, {"pitch": 64, "velocity": 92, "note_on_time": 3.366, "note_off_time": 3.489}, {"pitch": 64, "velocity": 88, "note_on_time": 3.658, "note_off_time": 3.83}, {"pitch": 62, "velocity": 82, "note_on_time": 3.96, "note_off_time": 4.132}, {"pitch": 60, "velocity": 85, "note_on_time": 4.207, "note_off_time": 4.376}, {"pitch": 62, "velocity": 83, "note_on_time": 4.514, "note_off_time": 4.714}, {"pitch": 60, "velocity": 85, "note_on_time": 4.82, "note_off_time": 4.974}, {"pitch": 62, "velocity": 85, "note_on_time": 5.215, "note_off_time": 5.307}, {"pitch": 62, "velocity": 74, "note_on_time": 5.486, "note_off_time": 5.626}, {"pitch": 64, "velocity": 78, "note_on_time": 5.866, "note_off_time": 6.007}, {"pitch": 64, "velocity": 102, "note_on_time": 6.163, "note_off_time": 6.719}, {"pitch": 62, "velocity": 79, "note_on_time": 7.205, "note_off_time": 7.318}, {"pitch": 62, "velocity": 93, "note_on_time": 7.501, "note_off_time": 7.632}, {"pitch": 64, "velocity": 86, "note_on_time": 7.783, "note_off_time": 7.977}, {"pitch": 60, "velocity": 84, "note_on_time": 8.078, "note_off_time": 8.204}, {"pitch": 60, "velocity": 92, "note_on_time": 8.368, "note_off_time": 8.554}, {"pitch": 64, "velocity": 84, "note_on_time": 8.671, "note_off_time": 8.804}, {"pitch": 64, "velocity": 83, "note_on_time": 8.975, "note_off_time": 9.191}, {"pitch": 60, "velocity": 84, "note_on_time": 9.285, "note_off_time": 9.921}]</notes><guidance name="Guidance Mode">None</guidance><error name="Error value">0.45844827272727284</error></trial><trial trial_no="7" timestamp="2022_09_29-12_38_41"><notes name="Played Notes">[{"pitch": 64, "velocity": 90, "note_on_time": 1.119, "note_off_time": 2.05}, {"pitch": 60, "velocity": 91, "note_on_time": 2.345, "note_off_time": 2.587}, {"pitch": 64, "velocity": 84, "note_on_time": 2.665, "note_off_time": 2.783}, {"pitch": 64, "velocity": 90, "note_on_time": 2.954, "note_off_time": 3.075}, {"pitch": 64, "velocity": 92, "note_on_time": 3.239, "note_off_time": 3.414}, {"pitch": 62, "velocity": 81, "note_on_time": 3.543, "note_off_time": 3.728}, {"pitch": 60, "velocity": 89, "note_on_time": 3.84, "note_off_time": 4.01}, {"pitch": 62, "velocity": 74, "note_on_time": 4.147, "note_off_time": 4.235}, {"pitch": 64, "velocity": 62, "note_on_time": 4.216, "note_off_time": 4.349}, {"pitch": 60, "velocity": 94, "note_on_time": 4.507, "note_off_time": 4.623}, {"pitch": 62, "velocity": 83, "note_on_time": 4.75, "note_off_time": 4.867}, {"pitch": 62, "velocity": 81, "note_on_time": 5.027, "note_off_time": 5.138}, {"pitch": 64, "velocity": 85, "note_on_time": 5.279, "note_off_time": 5.398}, {"pitch": 64, "velocity": 90, "note_on_time": 5.558, "note_off_time": 6.087}, {"pitch": 60, "velocity": 95, "note_on_time": 6.399, "note_off_time": 6.567}, {"pitch": 62, "velocity": 85, "note_on_time": 6.945, "note_off_time": 7.057}, {"pitch": 62, "velocity": 72, "note_on_time": 7.233, "note_off_time": 7.332}, {"pitch": 60, "velocity": 77, "note_on_time": 7.563, "note_off_time": 7.683}, {"pitch": 60, "velocity": 94, "note_on_time": 7.841, "note_off_time": 7.99}, {"pitch": 64, "velocity": 84, "note_on_time": 8.14, "note_off_time": 8.259}, {"pitch": 64, "velocity": 86, "note_on_time": 8.425, "note_off_time": 8.558}, {"pitch": 60, "velocity": 93, "note_on_time": 8.705, "note_off_time": 9.472}, {"pitch": 60, "velocity": 92, "note_on_time": 9.606, "note_off_time": 9.698}, {"pitch": 60, "velocity": 101, "note_on_time": 9.865, "note_off_time": 9.986}, {"pitch": 60, "velocity": 110, "note_on_time": 10.131, "note_off_time": 10.349}]</notes><guidance name="Guidance Mode">None</guidance><error name="Error value">0.2934655</error></trial></trials></MIDI>