<MIDI midiNo="2022_12_22-10_48_19"><target_notes><notes name="Note List">[{"pitch": 42, "velocity": 80, "note_on_time": 0.004, "note_off_time": 0.73}, {"pitch": 42, "velocity": 80, "note_on_time": 0.73, "note_off_time": 1.457}, {"pitch": 42, "velocity": 80, "note_on_time": 1.458, "note_off_time": 2.187}, {"pitch": 42, "velocity": 80, "note_on_time": 2.187, "note_off_time": 2.921}, {"pitch": 60, "velocity": 80, "note_on_time": 2.921, "note_off_time": 3.651}, {"pitch": 42, "velocity": 80, "note_on_time": 2.922, "note_off_time": 3.651}, {"pitch": 42, "velocity": 80, "note_on_time": 3.652, "note_off_time": 4.382}, {"pitch": 60, "velocity": 80, "note_on_time": 3.651, "note_off_time": 5.117}, {"pitch": 42, "velocity": 80, "note_on_time": 4.382, "note_off_time": 5.117}, {"pitch": 42, "velocity": 80, "note_on_time": 5.118, "note_off_time": 5.846}, {"pitch": 64, "velocity": 80, "note_on_time": 5.846, "note_off_time": 6.577}, {"pitch": 42, "velocity": 80, "note_on_time": 5.846, "note_off_time": 6.577}, {"pitch": 42, "velocity": 80, "note_on_time": 6.578, "note_off_time": 7.312}, {"pitch": 62, "velocity": 80, "note_on_time": 7.312, "note_off_time": 8.042}, {"pitch": 42, "velocity": 80, "note_on_time": 7.312, "note_off_time": 8.042}, {"pitch": 64, "velocity": 80, "note_on_time": 8.042, "note_off_time": 8.776}, {"pitch": 42, "velocity": 80, "note_on_time": 8.042, "note_off_time": 8.776}, {"pitch": 62, "velocity": 80, "note_on_time": 8.776, "note_off_time": 9.51}, {"pitch": 42, "velocity": 80, "note_on_time": 8.777, "note_off_time": 9.51}, {"pitch": 42, "velocity": 80, "note_on_time": 9.51, "note_off_time": 10.24}, {"pitch": 64, "velocity": 80, "note_on_time": 10.24, "note_off_time": 10.973}, {"pitch": 42, "velocity": 80, "note_on_time": 10.24, "note_off_time": 10.973}, {"pitch": 62, "velocity": 80, "note_on_time": 10.973, "note_off_time": 11.705}, {"pitch": 42, "velocity": 80, "note_on_time": 10.974, "note_off_time": 11.705}, {"pitch": 62, "velocity": 80, "note_on_time": 11.705, "note_off_time": 12.438}, {"pitch": 42, "velocity": 80, "note_on_time": 11.705, "note_off_time": 12.439}, {"pitch": 60, "velocity": 80, "note_on_time": 12.438, "note_off_time": 13.169}, {"pitch": 42, "velocity": 80, "note_on_time": 12.439, "note_off_time": 13.17}, {"pitch": 62, "velocity": 80, "note_on_time": 13.169, "note_off_time": 13.9}, {"pitch": 42, "velocity": 80, "note_on_time": 13.17, "note_off_time": 13.9}, {"pitch": 60, "velocity": 80, "note_on_time": 13.9, "note_off_time": 14.634}, {"pitch": 42, "velocity": 80, "note_on_time": 13.9, "note_off_time": 14.634}, {"pitch": 62, "velocity": 80, "note_on_time": 14.634, "note_off_time": 15.367}, {"pitch": 42, "velocity": 80, "note_on_time": 14.635, "note_off_time": 15.367}, {"pitch": 64, "velocity": 80, "note_on_time": 15.367, "note_off_time": 16.098}, {"pitch": 42, "velocity": 80, "note_on_time": 15.367, "note_off_time": 16.098}, {"pitch": 64, "velocity": 80, "note_on_time": 16.098, "note_off_time": 16.827}, {"pitch": 42, "velocity": 80, "note_on_time": 16.099, "note_off_time": 16.828}, {"pitch": 62, "velocity": 80, "note_on_time": 16.827, "note_off_time": 17.56}, {"pitch": 42, "velocity": 80, "note_on_time": 16.828, "note_off_time": 17.561}, {"pitch": 64, "velocity": 80, "note_on_time": 17.56, "note_off_time": 18.292}, {"pitch": 42, "velocity": 80, "note_on_time": 17.561, "note_off_time": 18.292}, {"pitch": 42, "velocity": 80, "note_on_time": 18.292, "note_off_time": 19.023}, {"pitch": 42, "velocity": 80, "note_on_time": 19.024, "note_off_time": 19.755}, {"pitch": 60, "velocity": 80, "note_on_time": 19.023, "note_off_time": 20.489}, {"pitch": 42, "velocity": 80, "note_on_time": 19.755, "note_off_time": 20.489}, {"pitch": 62, "velocity": 80, "note_on_time": 20.489, "note_off_time": 21.219}, {"pitch": 42, "velocity": 80, "note_on_time": 20.489, "note_off_time": 21.22}, {"pitch": 64, "velocity": 80, "note_on_time": 21.219, "note_off_time": 21.951}, {"pitch": 42, "velocity": 80, "note_on_time": 21.22, "note_off_time": 21.951}, {"pitch": 62, "velocity": 80, "note_on_time": 21.951, "note_off_time": 22.684}, {"pitch": 42, "velocity": 80, "note_on_time": 21.951, "note_off_time": 22.684}, {"pitch": 64, "velocity": 80, "note_on_time": 22.684, "note_off_time": 23.414}, {"pitch": 42, "velocity": 80, "note_on_time": 22.684, "note_off_time": 23.415}, {"pitch": 42, "velocity": 80, "note_on_time": 23.415, "note_off_time": 24.147}, {"pitch": 64, "velocity": 80, "note_on_time": 24.147, "note_off_time": 24.881}, {"pitch": 42, "velocity": 80, "note_on_time": 24.147, "note_off_time": 24.882}, {"pitch": 64, "velocity": 80, "note_on_time": 24.881, "note_off_time": 25.613}, {"pitch": 42, "velocity": 80, "note_on_time": 24.882, "note_off_time": 25.614}, {"pitch": 64, "velocity": 80, "note_on_time": 25.613, "note_off_time": 26.346}, {"pitch": 42, "velocity": 80, "note_on_time": 25.614, "note_off_time": 26.347}]</notes><options name="Option List">((4, 4), [0.5, 0.25], 3, 8, &lt;NoteRangePerHand.THREE_NOTES: 4&gt;, &lt;NoteRangePerHand.ONE_NOTE: 2&gt;, False, True, False, '83')</options></target_notes><trials><trial trial_no="1" timestamp="2022_12_22-10_47_51"><notes name="Played Notes">[{"pitch": 60, "velocity": 62, "note_on_time": 2.955, "note_off_time": 3.351}, {"pitch": 60, "velocity": 66, "note_on_time": 3.634, "note_off_time": 5.772}, {"pitch": 64, "velocity": 59, "note_on_time": 5.865, "note_off_time": 7.873}, {"pitch": 62, "velocity": 60, "note_on_time": 7.937, "note_off_time": 8.538}, {"pitch": 64, "velocity": 62, "note_on_time": 8.702, "note_off_time": 9.318}, {"pitch": 62, "velocity": 48, "note_on_time": 9.475, "note_off_time": 11.035}, {"pitch": 64, "velocity": 47, "note_on_time": 11.656, "note_off_time": 12.302}, {"pitch": 62, "velocity": 57, "note_on_time": 12.404, "note_off_time": 12.769}, {"pitch": 62, "velocity": 65, "note_on_time": 13.131, "note_off_time": 13.556}, {"pitch": 60, "velocity": 62, "note_on_time": 13.827, "note_off_time": 14.389}, {"pitch": 62, "velocity": 56, "note_on_time": 14.608, "note_off_time": 15.022}, {"pitch": 60, "velocity": 52, "note_on_time": 15.338, "note_off_time": 15.852}, {"pitch": 62, "velocity": 62, "note_on_time": 16.078, "note_off_time": 16.552}, {"pitch": 64, "velocity": 64, "note_on_time": 16.816, "note_off_time": 17.232}, {"pitch": 64, "velocity": 46, "note_on_time": 17.599, "note_off_time": 17.979}, {"pitch": 62, "velocity": 48, "note_on_time": 18.206, "note_off_time": 18.628}, {"pitch": 64, "velocity": 56, "note_on_time": 18.995, "note_off_time": 20.933}, {"pitch": 60, "velocity": 29, "note_on_time": 21.222, "note_off_time": 23.22}, {"pitch": 62, "velocity": 61, "note_on_time": 23.365, "note_off_time": 24.004}, {"pitch": 64, "velocity": 58, "note_on_time": 24.089, "note_off_time": 24.944}, {"pitch": 62, "velocity": 49, "note_on_time": 24.844, "note_off_time": 25.449}]</notes><guidance name="Guidance Mode">None</guidance><error name="Error value">0.6925445909090912</error></trial><trial trial_no="2" timestamp="2022_12_22-10_48_30"><notes name="Played Notes">[{"pitch": 60, "velocity": 66, "note_on_time": 2.936, "note_off_time": 3.343}, {"pitch": 60, "velocity": 66, "note_on_time": 3.66, "note_off_time": 6.043}, {"pitch": 62, "velocity": 57, "note_on_time": 6.658, "note_off_time": 6.803}, {"pitch": 64, "velocity": 39, "note_on_time": 6.844, "note_off_time": 7.181}, {"pitch": 60, "velocity": 63, "note_on_time": 7.334, "note_off_time": 7.891}, {"pitch": 64, "velocity": 55, "note_on_time": 9.656, "note_off_time": 10.28}, {"pitch": 62, "velocity": 69, "note_on_time": 10.373, "note_off_time": 10.718}, {"pitch": 62, "velocity": 64, "note_on_time": 11.056, "note_off_time": 11.484}, {"pitch": 60, "velocity": 65, "note_on_time": 11.697, "note_off_time": 12.196}, {"pitch": 62, "velocity": 62, "note_on_time": 12.41, "note_off_time": 12.81}, {"pitch": 60, "velocity": 59, "note_on_time": 13.116, "note_off_time": 13.67}, {"pitch": 62, "velocity": 58, "note_on_time": 13.866, "note_off_time": 14.285}, {"pitch": 64, "velocity": 49, "note_on_time": 14.581, "note_off_time": 14.942}, {"pitch": 64, "velocity": 60, "note_on_time": 15.315, "note_off_time": 15.927}, {"pitch": 62, "velocity": 44, "note_on_time": 16.049, "note_off_time": 16.54}, {"pitch": 64, "velocity": 60, "note_on_time": 16.811, "note_off_time": 17.813}, {"pitch": 60, "velocity": 26, "note_on_time": 18.39, "note_off_time": 19.892}, {"pitch": 64, "velocity": 57, "note_on_time": 20.44, "note_off_time": 20.898}, {"pitch": 62, "velocity": 48, "note_on_time": 21.168, "note_off_time": 21.51}, {"pitch": 64, "velocity": 45, "note_on_time": 21.851, "note_off_time": 22.402}, {"pitch": 64, "velocity": 51, "note_on_time": 22.671, "note_off_time": 23.048}, {"pitch": 64, "velocity": 53, "note_on_time": 23.427, "note_off_time": 23.905}, {"pitch": 64, "velocity": 48, "note_on_time": 24.376, "note_off_time": 24.72}, {"pitch": 64, "velocity": 49, "note_on_time": 24.979, "note_off_time": 25.671}]</notes><guidance name="Guidance Mode">None</guidance><error name="Error value">0.43345950000000033</error></trial><trial trial_no="3" timestamp="2022_12_22-10_49_28"><notes name="Played Notes">[{"pitch": 60, "velocity": 54, "note_on_time": 2.863, "note_off_time": 3.32}, {"pitch": 60, "velocity": 63, "note_on_time": 3.614, "note_off_time": 4.726}, {"pitch": 64, "velocity": 55, "note_on_time": 5.819, "note_off_time": 6.329}, {"pitch": 64, "velocity": 58, "note_on_time": 7.381, "note_off_time": 7.723}, {"pitch": 64, "velocity": 57, "note_on_time": 8.042, "note_off_time": 8.47}, {"pitch": 62, "velocity": 60, "note_on_time": 8.767, "note_off_time": 9.144}, {"pitch": 64, "velocity": 64, "note_on_time": 10.222, "note_off_time": 10.66}, {"pitch": 62, "velocity": 49, "note_on_time": 10.997, "note_off_time": 11.345}, {"pitch": 62, "velocity": 45, "note_on_time": 11.767, "note_off_time": 12.122}, {"pitch": 60, "velocity": 68, "note_on_time": 12.402, "note_off_time": 12.835}, {"pitch": 62, "velocity": 64, "note_on_time": 13.131, "note_off_time": 13.441}, {"pitch": 60, "velocity": 64, "note_on_time": 13.805, "note_off_time": 14.179}, {"pitch": 62, "velocity": 65, "note_on_time": 14.543, "note_off_time": 14.861}, {"pitch": 64, "velocity": 57, "note_on_time": 15.295, "note_off_time": 15.662}, {"pitch": 64, "velocity": 54, "note_on_time": 16.038, "note_off_time": 16.489}, {"pitch": 62, "velocity": 60, "note_on_time": 16.752, "note_off_time": 17.115}, {"pitch": 64, "velocity": 61, "note_on_time": 17.521, "note_off_time": 17.888}, {"pitch": 60, "velocity": 57, "note_on_time": 18.996, "note_off_time": 20.028}, {"pitch": 62, "velocity": 57, "note_on_time": 20.664, "note_off_time": 20.949}, {"pitch": 64, "velocity": 58, "note_on_time": 21.312, "note_off_time": 21.715}, {"pitch": 62, "velocity": 56, "note_on_time": 22.0, "note_off_time": 22.361}, {"pitch": 64, "velocity": 59, "note_on_time": 22.675, "note_off_time": 23.112}, {"pitch": 64, "velocity": 62, "note_on_time": 24.046, "note_off_time": 24.408}, {"pitch": 64, "velocity": 45, "note_on_time": 24.766, "note_off_time": 25.163}, {"pitch": 64, "velocity": 43, "note_on_time": 25.549, "note_off_time": 25.858}]</notes><guidance name="Guidance Mode">None</guidance><error name="Error value">0.09828177272727304</error></trial><trial trial_no="4" timestamp="2022_12_22-10_50_03"><notes name="Played Notes">[{"pitch": 60, "velocity": 68, "note_on_time": 2.973, "note_off_time": 3.313}, {"pitch": 60, "velocity": 63, "note_on_time": 3.674, "note_off_time": 4.511}, {"pitch": 64, "velocity": 67, "note_on_time": 5.154, "note_off_time": 5.586}, {"pitch": 62, "velocity": 54, "note_on_time": 6.586, "note_off_time": 6.973}, {"pitch": 64, "velocity": 64, "note_on_time": 7.367, "note_off_time": 7.762}, {"pitch": 62, "velocity": 54, "note_on_time": 8.109, "note_off_time": 8.416}, {"pitch": 64, "velocity": 68, "note_on_time": 9.459, "note_off_time": 9.921}, {"pitch": 62, "velocity": 46, "note_on_time": 10.202, "note_off_time": 10.588}, {"pitch": 62, "velocity": 62, "note_on_time": 10.948, "note_off_time": 11.224}, {"pitch": 60, "velocity": 65, "note_on_time": 11.696, "note_off_time": 12.08}, {"pitch": 62, "velocity": 63, "note_on_time": 12.453, "note_off_time": 12.775}, {"pitch": 60, "velocity": 65, "note_on_time": 13.145, "note_off_time": 13.545}, {"pitch": 62, "velocity": 54, "note_on_time": 13.881, "note_off_time": 14.126}, {"pitch": 64, "velocity": 53, "note_on_time": 14.649, "note_off_time": 14.966}, {"pitch": 64, "velocity": 63, "note_on_time": 15.366, "note_off_time": 15.684}, {"pitch": 62, "velocity": 63, "note_on_time": 16.079, "note_off_time": 16.462}, {"pitch": 64, "velocity": 61, "note_on_time": 16.851, "note_off_time": 17.114}, {"pitch": 60, "velocity": 56, "note_on_time": 18.225, "note_off_time": 19.311}, {"pitch": 62, "velocity": 62, "note_on_time": 19.742, "note_off_time": 20.169}, {"pitch": 64, "velocity": 64, "note_on_time": 20.461, "note_off_time": 20.915}, {"pitch": 62, "velocity": 56, "note_on_time": 21.215, "note_off_time": 21.697}, {"pitch": 64, "velocity": 56, "note_on_time": 21.923, "note_off_time": 22.402}, {"pitch": 64, "velocity": 52, "note_on_time": 23.368, "note_off_time": 23.746}, {"pitch": 64, "velocity": 61, "note_on_time": 24.059, "note_off_time": 24.409}, {"pitch": 64, "velocity": 68, "note_on_time": 24.815, "note_off_time": 25.053}]</notes><guidance name="Guidance Mode">None</guidance><error name="Error value">0.06420249999999966</error></trial><trial trial_no="5" timestamp="2022_12_22-10_50_38"><notes name="Played Notes">[{"pitch": 60, "velocity": 69, "note_on_time": 2.846, "note_off_time": 3.298}, {"pitch": 60, "velocity": 65, "note_on_time": 3.646, "note_off_time": 4.433}, {"pitch": 64, "velocity": 73, "note_on_time": 5.264, "note_off_time": 5.659}, {"pitch": 62, "velocity": 60, "note_on_time": 6.644, "note_off_time": 6.995}, {"pitch": 64, "velocity": 56, "note_on_time": 7.365, "note_off_time": 7.828}, {"pitch": 62, "velocity": 13, "note_on_time": 8.235, "note_off_time": 8.663}, {"pitch": 64, "velocity": 56, "note_on_time": 9.47, "note_off_time": 9.91}, {"pitch": 62, "velocity": 59, "note_on_time": 10.191, "note_off_time": 10.525}, {"pitch": 62, "velocity": 63, "note_on_time": 10.922, "note_off_time": 11.216}, {"pitch": 60, "velocity": 55, "note_on_time": 11.649, "note_off_time": 12.056}, {"pitch": 62, "velocity": 49, "note_on_time": 12.414, "note_off_time": 12.775}, {"pitch": 60, "velocity": 57, "note_on_time": 13.102, "note_off_time": 13.57}, {"pitch": 62, "velocity": 51, "note_on_time": 13.857, "note_off_time": 14.204}, {"pitch": 64, "velocity": 57, "note_on_time": 14.546, "note_off_time": 14.989}, {"pitch": 64, "velocity": 63, "note_on_time": 15.309, "note_off_time": 15.799}, {"pitch": 62, "velocity": 60, "note_on_time": 16.061, "note_off_time": 16.472}, {"pitch": 64, "velocity": 63, "note_on_time": 16.8, "note_off_time": 17.188}, {"pitch": 60, "velocity": 56, "note_on_time": 18.215, "note_off_time": 19.305}, {"pitch": 62, "velocity": 64, "note_on_time": 19.784, "note_off_time": 20.173}, {"pitch": 64, "velocity": 61, "note_on_time": 20.498, "note_off_time": 20.912}, {"pitch": 62, "velocity": 60, "note_on_time": 21.222, "note_off_time": 21.625}, {"pitch": 64, "velocity": 63, "note_on_time": 21.955, "note_off_time": 22.293}, {"pitch": 64, "velocity": 57, "note_on_time": 23.409, "note_off_time": 23.797}, {"pitch": 64, "velocity": 62, "note_on_time": 24.125, "note_off_time": 24.466}, {"pitch": 64, "velocity": 67, "note_on_time": 24.814, "note_off_time": 25.063}]</notes><guidance name="Guidance Mode">None</guidance><error name="Error value">0.06904049999999948</error></trial></trials></MIDI>