<MIDI midiNo="2022_08_17-12_15_57"><target_notes><notes name="Note List">[{"pitch": 42, "velocity": 80, "note_on_time": 0.004, "note_off_time": 0.379}, {"pitch": 42, "velocity": 80, "note_on_time": 0.38, "note_off_time": 0.755}, {"pitch": 42, "velocity": 80, "note_on_time": 0.755, "note_off_time": 1.13}, {"pitch": 42, "velocity": 80, "note_on_time": 1.13, "note_off_time": 1.503}, {"pitch": 65, "velocity": 80, "note_on_time": 1.502, "note_off_time": 1.879}, {"pitch": 42, "velocity": 80, "note_on_time": 1.503, "note_off_time": 1.879}, {"pitch": 42, "velocity": 80, "note_on_time": 1.88, "note_off_time": 2.255}, {"pitch": 62, "velocity": 80, "note_on_time": 1.879, "note_off_time": 2.63}, {"pitch": 42, "velocity": 80, "note_on_time": 2.255, "note_off_time": 2.63}, {"pitch": 67, "velocity": 80, "note_on_time": 2.63, "note_off_time": 3.003}, {"pitch": 42, "velocity": 80, "note_on_time": 2.63, "note_off_time": 3.003}, {"pitch": 65, "velocity": 80, "note_on_time": 3.003, "note_off_time": 3.376}, {"pitch": 42, "velocity": 80, "note_on_time": 3.003, "note_off_time": 3.377}, {"pitch": 60, "velocity": 80, "note_on_time": 3.376, "note_off_time": 3.749}, {"pitch": 42, "velocity": 80, "note_on_time": 3.377, "note_off_time": 3.749}, {"pitch": 60, "velocity": 80, "note_on_time": 3.749, "note_off_time": 4.124}, {"pitch": 42, "velocity": 80, "note_on_time": 3.749, "note_off_time": 4.124}, {"pitch": 67, "velocity": 80, "note_on_time": 4.124, "note_off_time": 4.498}, {"pitch": 42, "velocity": 80, "note_on_time": 4.125, "note_off_time": 4.499}, {"pitch": 42, "velocity": 80, "note_on_time": 4.499, "note_off_time": 4.875}, {"pitch": 64, "velocity": 80, "note_on_time": 4.498, "note_off_time": 5.248}, {"pitch": 42, "velocity": 80, "note_on_time": 4.876, "note_off_time": 5.248}, {"pitch": 42, "velocity": 80, "note_on_time": 5.248, "note_off_time": 5.622}, {"pitch": 42, "velocity": 80, "note_on_time": 5.623, "note_off_time": 5.995}, {"pitch": 42, "velocity": 80, "note_on_time": 5.995, "note_off_time": 6.37}, {"pitch": 60, "velocity": 80, "note_on_time": 5.995, "note_off_time": 6.745}, {"pitch": 42, "velocity": 80, "note_on_time": 6.37, "note_off_time": 6.745}, {"pitch": 42, "velocity": 80, "note_on_time": 6.745, "note_off_time": 7.12}, {"pitch": 42, "velocity": 80, "note_on_time": 7.12, "note_off_time": 7.492}, {"pitch": 42, "velocity": 80, "note_on_time": 7.493, "note_off_time": 7.866}, {"pitch": 64, "velocity": 80, "note_on_time": 7.492, "note_off_time": 8.24}, {"pitch": 42, "velocity": 80, "note_on_time": 7.867, "note_off_time": 8.24}, {"pitch": 42, "velocity": 80, "note_on_time": 8.24, "note_off_time": 8.614}, {"pitch": 42, "velocity": 80, "note_on_time": 8.614, "note_off_time": 8.986}, {"pitch": 42, "velocity": 80, "note_on_time": 8.986, "note_off_time": 9.359}, {"pitch": 60, "velocity": 80, "note_on_time": 8.985, "note_off_time": 9.734}, {"pitch": 42, "velocity": 80, "note_on_time": 9.36, "note_off_time": 9.734}, {"pitch": 42, "velocity": 80, "note_on_time": 9.734, "note_off_time": 10.108}, {"pitch": 42, "velocity": 80, "note_on_time": 10.109, "note_off_time": 10.485}, {"pitch": 65, "velocity": 80, "note_on_time": 10.485, "note_off_time": 10.86}, {"pitch": 42, "velocity": 80, "note_on_time": 10.486, "note_off_time": 10.86}, {"pitch": 64, "velocity": 80, "note_on_time": 10.86, "note_off_time": 11.232}, {"pitch": 42, "velocity": 80, "note_on_time": 10.861, "note_off_time": 11.233}, {"pitch": 62, "velocity": 80, "note_on_time": 11.232, "note_off_time": 11.608}, {"pitch": 42, "velocity": 80, "note_on_time": 11.233, "note_off_time": 11.608}, {"pitch": 60, "velocity": 80, "note_on_time": 11.608, "note_off_time": 11.983}, {"pitch": 42, "velocity": 80, "note_on_time": 11.609, "note_off_time": 11.983}, {"pitch": 42, "velocity": 80, "note_on_time": 11.983, "note_off_time": 12.356}, {"pitch": 60, "velocity": 80, "note_on_time": 12.356, "note_off_time": 12.729}, {"pitch": 42, "velocity": 80, "note_on_time": 12.356, "note_off_time": 12.729}, {"pitch": 60, "velocity": 80, "note_on_time": 12.729, "note_off_time": 13.104}, {"pitch": 42, "velocity": 80, "note_on_time": 12.729, "note_off_time": 13.104}, {"pitch": 60, "velocity": 80, "note_on_time": 13.104, "note_off_time": 13.478}, {"pitch": 42, "velocity": 80, "note_on_time": 13.105, "note_off_time": 13.478}]</notes><options name="Option List">((4, 4), [0.5, 0.25], 3, 8, &lt;NoteRangePerHand.C_TO_G: 6&gt;, &lt;NoteRangePerHand.ONE_NOTE: 2&gt;, False, True, True, 166)</options></target_notes><trials><trial trial_no="1" timestamp="2022_08_17-12_15_42"><notes name="Played Notes">[{"pitch": 65, "velocity": 63, "note_on_time": 1.54, "note_off_time": 1.917}, {"pitch": 62, "velocity": 60, "note_on_time": 1.929, "note_off_time": 2.679}, {"pitch": 67, "velocity": 66, "note_on_time": 2.66, "note_off_time": 3.041}, {"pitch": 65, "velocity": 61, "note_on_time": 3.056, "note_off_time": 3.359}, {"pitch": 60, "velocity": 70, "note_on_time": 3.395, "note_off_time": 3.556}, {"pitch": 60, "velocity": 69, "note_on_time": 3.794, "note_off_time": 3.923}, {"pitch": 67, "velocity": 65, "note_on_time": 4.137, "note_off_time": 4.293}, {"pitch": 64, "velocity": 67, "note_on_time": 4.48, "note_off_time": 5.148}, {"pitch": 60, "velocity": 69, "note_on_time": 5.974, "note_off_time": 6.515}, {"pitch": 64, "velocity": 69, "note_on_time": 7.494, "note_off_time": 8.029}, {"pitch": 60, "velocity": 68, "note_on_time": 8.983, "note_off_time": 9.378}, {"pitch": 65, "velocity": 66, "note_on_time": 10.46, "note_off_time": 10.642}, {"pitch": 64, "velocity": 66, "note_on_time": 10.864, "note_off_time": 11.042}, {"pitch": 62, "velocity": 60, "note_on_time": 11.268, "note_off_time": 11.41}, {"pitch": 60, "velocity": 74, "note_on_time": 11.633, "note_off_time": 11.81}, {"pitch": 60, "velocity": 71, "note_on_time": 12.338, "note_off_time": 12.49}, {"pitch": 60, "velocity": 72, "note_on_time": 12.753, "note_off_time": 12.896}, {"pitch": 60, "velocity": 77, "note_on_time": 13.151, "note_off_time": 13.302}]</notes><guidance name="Guidance Mode">None</guidance><error name="Error value">1.996889333333333</error></trial><trial trial_no="2" timestamp="2022_08_17-12_16_15"><notes name="Played Notes">[{"pitch": 65, "velocity": 62, "note_on_time": 1.549, "note_off_time": 1.937}, {"pitch": 62, "velocity": 51, "note_on_time": 1.934, "note_off_time": 2.51}, {"pitch": 67, "velocity": 57, "note_on_time": 2.642, "note_off_time": 3.034}, {"pitch": 65, "velocity": 48, "note_on_time": 3.065, "note_off_time": 3.382}, {"pitch": 60, "velocity": 60, "note_on_time": 3.418, "note_off_time": 3.545}, {"pitch": 60, "velocity": 57, "note_on_time": 3.804, "note_off_time": 3.951}, {"pitch": 67, "velocity": 56, "note_on_time": 4.142, "note_off_time": 4.482}, {"pitch": 64, "velocity": 63, "note_on_time": 4.524, "note_off_time": 5.067}, {"pitch": 60, "velocity": 59, "note_on_time": 5.971, "note_off_time": 6.527}, {"pitch": 64, "velocity": 57, "note_on_time": 7.449, "note_off_time": 7.992}, {"pitch": 60, "velocity": 63, "note_on_time": 8.978, "note_off_time": 9.52}, {"pitch": 65, "velocity": 69, "note_on_time": 10.477, "note_off_time": 10.631}, {"pitch": 64, "velocity": 59, "note_on_time": 10.85, "note_off_time": 10.996}, {"pitch": 62, "velocity": 55, "note_on_time": 11.229, "note_off_time": 11.372}, {"pitch": 60, "velocity": 59, "note_on_time": 11.613, "note_off_time": 11.82}, {"pitch": 60, "velocity": 65, "note_on_time": 12.365, "note_off_time": 12.497}, {"pitch": 60, "velocity": 66, "note_on_time": 12.756, "note_off_time": 12.9}, {"pitch": 60, "velocity": 67, "note_on_time": 13.13, "note_off_time": 13.284}]</notes><guidance name="Guidance Mode">None</guidance><error name="Error value">2.4321930000000003</error></trial><trial trial_no="3" timestamp="2022_08_17-12_16_54"><notes name="Played Notes">[{"pitch": 65, "velocity": 61, "note_on_time": 1.517, "note_off_time": 1.898}, {"pitch": 62, "velocity": 57, "note_on_time": 1.917, "note_off_time": 2.643}, {"pitch": 67, "velocity": 61, "note_on_time": 2.661, "note_off_time": 3.028}, {"pitch": 65, "velocity": 52, "note_on_time": 3.045, "note_off_time": 3.412}, {"pitch": 60, "velocity": 63, "note_on_time": 3.433, "note_off_time": 3.556}, {"pitch": 60, "velocity": 65, "note_on_time": 3.804, "note_off_time": 3.904}, {"pitch": 67, "velocity": 62, "note_on_time": 4.147, "note_off_time": 4.257}, {"pitch": 64, "velocity": 61, "note_on_time": 4.504, "note_off_time": 5.083}, {"pitch": 60, "velocity": 68, "note_on_time": 5.985, "note_off_time": 6.418}, {"pitch": 64, "velocity": 65, "note_on_time": 7.457, "note_off_time": 7.997}, {"pitch": 60, "velocity": 60, "note_on_time": 8.954, "note_off_time": 9.458}, {"pitch": 65, "velocity": 68, "note_on_time": 10.503, "note_off_time": 10.672}, {"pitch": 64, "velocity": 56, "note_on_time": 10.855, "note_off_time": 11.027}, {"pitch": 62, "velocity": 54, "note_on_time": 11.247, "note_off_time": 11.378}, {"pitch": 60, "velocity": 67, "note_on_time": 11.614, "note_off_time": 11.833}, {"pitch": 60, "velocity": 68, "note_on_time": 12.378, "note_off_time": 12.504}, {"pitch": 60, "velocity": 60, "note_on_time": 12.788, "note_off_time": 12.894}, {"pitch": 60, "velocity": 65, "note_on_time": 13.144, "note_off_time": 13.263}]</notes><guidance name="Guidance Mode">None</guidance><error name="Error value">1.851808</error></trial></trials></MIDI>