<MIDI midiNo="2022_12_15-12_51_27"><target_notes><notes name="Note List">[{"pitch": 42, "velocity": 80, "note_on_time": 0.004, "note_off_time": 0.738}, {"pitch": 42, "velocity": 80, "note_on_time": 0.738, "note_off_time": 1.471}, {"pitch": 42, "velocity": 80, "note_on_time": 1.472, "note_off_time": 2.205}, {"pitch": 42, "velocity": 80, "note_on_time": 2.205, "note_off_time": 2.941}, {"pitch": 62, "velocity": 80, "note_on_time": 2.941, "note_off_time": 3.676}, {"pitch": 42, "velocity": 80, "note_on_time": 2.941, "note_off_time": 3.676}, {"pitch": 60, "velocity": 80, "note_on_time": 3.676, "note_off_time": 4.407}, {"pitch": 42, "velocity": 80, "note_on_time": 3.677, "note_off_time": 4.407}, {"pitch": 60, "velocity": 80, "note_on_time": 4.407, "note_off_time": 5.14}, {"pitch": 42, "velocity": 80, "note_on_time": 4.408, "note_off_time": 5.141}, {"pitch": 62, "velocity": 80, "note_on_time": 5.14, "note_off_time": 5.871}, {"pitch": 42, "velocity": 80, "note_on_time": 5.141, "note_off_time": 5.871}, {"pitch": 60, "velocity": 80, "note_on_time": 5.871, "note_off_time": 6.606}, {"pitch": 42, "velocity": 80, "note_on_time": 5.872, "note_off_time": 6.606}, {"pitch": 64, "velocity": 80, "note_on_time": 6.606, "note_off_time": 7.338}, {"pitch": 42, "velocity": 80, "note_on_time": 6.607, "note_off_time": 7.338}, {"pitch": 62, "velocity": 80, "note_on_time": 7.338, "note_off_time": 8.072}, {"pitch": 42, "velocity": 80, "note_on_time": 7.339, "note_off_time": 8.072}, {"pitch": 64, "velocity": 80, "note_on_time": 8.072, "note_off_time": 8.806}, {"pitch": 42, "velocity": 80, "note_on_time": 8.072, "note_off_time": 8.806}, {"pitch": 60, "velocity": 80, "note_on_time": 8.806, "note_off_time": 9.538}, {"pitch": 42, "velocity": 80, "note_on_time": 8.806, "note_off_time": 9.538}, {"pitch": 42, "velocity": 80, "note_on_time": 9.538, "note_off_time": 10.273}, {"pitch": 62, "velocity": 80, "note_on_time": 9.538, "note_off_time": 11.006}, {"pitch": 42, "velocity": 80, "note_on_time": 10.273, "note_off_time": 11.006}, {"pitch": 42, "velocity": 80, "note_on_time": 11.006, "note_off_time": 11.743}, {"pitch": 60, "velocity": 80, "note_on_time": 11.743, "note_off_time": 12.481}, {"pitch": 42, "velocity": 80, "note_on_time": 11.743, "note_off_time": 12.481}, {"pitch": 64, "velocity": 80, "note_on_time": 12.481, "note_off_time": 13.212}, {"pitch": 42, "velocity": 80, "note_on_time": 12.482, "note_off_time": 13.212}, {"pitch": 62, "velocity": 80, "note_on_time": 13.212, "note_off_time": 13.948}, {"pitch": 42, "velocity": 80, "note_on_time": 13.212, "note_off_time": 13.948}, {"pitch": 64, "velocity": 80, "note_on_time": 13.948, "note_off_time": 14.678}, {"pitch": 42, "velocity": 80, "note_on_time": 13.948, "note_off_time": 14.679}, {"pitch": 60, "velocity": 80, "note_on_time": 14.678, "note_off_time": 15.411}, {"pitch": 42, "velocity": 80, "note_on_time": 14.679, "note_off_time": 15.411}, {"pitch": 64, "velocity": 80, "note_on_time": 15.411, "note_off_time": 16.143}, {"pitch": 42, "velocity": 80, "note_on_time": 15.411, "note_off_time": 16.143}, {"pitch": 42, "velocity": 80, "note_on_time": 16.144, "note_off_time": 16.879}, {"pitch": 62, "velocity": 80, "note_on_time": 16.143, "note_off_time": 17.613}, {"pitch": 42, "velocity": 80, "note_on_time": 16.879, "note_off_time": 17.613}, {"pitch": 64, "velocity": 80, "note_on_time": 17.613, "note_off_time": 18.348}, {"pitch": 42, "velocity": 80, "note_on_time": 17.613, "note_off_time": 18.348}, {"pitch": 42, "velocity": 80, "note_on_time": 18.349, "note_off_time": 19.079}, {"pitch": 42, "velocity": 80, "note_on_time": 19.079, "note_off_time": 19.817}, {"pitch": 60, "velocity": 80, "note_on_time": 19.816, "note_off_time": 20.549}, {"pitch": 42, "velocity": 80, "note_on_time": 19.817, "note_off_time": 20.549}, {"pitch": 60, "velocity": 80, "note_on_time": 20.549, "note_off_time": 21.279}, {"pitch": 42, "velocity": 80, "note_on_time": 20.55, "note_off_time": 21.279}, {"pitch": 60, "velocity": 80, "note_on_time": 21.279, "note_off_time": 22.014}, {"pitch": 42, "velocity": 80, "note_on_time": 21.279, "note_off_time": 22.014}, {"pitch": 64, "velocity": 80, "note_on_time": 22.014, "note_off_time": 22.748}, {"pitch": 42, "velocity": 80, "note_on_time": 22.015, "note_off_time": 22.748}, {"pitch": 62, "velocity": 80, "note_on_time": 22.748, "note_off_time": 23.482}, {"pitch": 42, "velocity": 80, "note_on_time": 22.748, "note_off_time": 23.482}, {"pitch": 42, "velocity": 80, "note_on_time": 23.482, "note_off_time": 24.214}, {"pitch": 62, "velocity": 80, "note_on_time": 24.214, "note_off_time": 24.949}, {"pitch": 42, "velocity": 80, "note_on_time": 24.215, "note_off_time": 24.95}, {"pitch": 62, "velocity": 80, "note_on_time": 24.949, "note_off_time": 25.686}, {"pitch": 42, "velocity": 80, "note_on_time": 24.95, "note_off_time": 25.686}, {"pitch": 62, "velocity": 80, "note_on_time": 25.686, "note_off_time": 26.42}, {"pitch": 42, "velocity": 80, "note_on_time": 25.686, "note_off_time": 26.42}]</notes><options name="Option List">((4, 4), [0.5, 0.25], 3, 8, &lt;NoteRangePerHand.THREE_NOTES: 4&gt;, &lt;NoteRangePerHand.ONE_NOTE: 2&gt;, False, True, False, 83)</options></target_notes><trials><trial trial_no="1" timestamp="2022_12_15-12_50_59"><notes name="Played Notes">[{"pitch": 74, "velocity": 57, "note_on_time": 2.879, "note_off_time": 3.086}, {"pitch": 72, "velocity": 60, "note_on_time": 3.638, "note_off_time": 3.805}, {"pitch": 72, "velocity": 55, "note_on_time": 4.352, "note_off_time": 4.485}, {"pitch": 74, "velocity": 59, "note_on_time": 5.08, "note_off_time": 5.218}, {"pitch": 72, "velocity": 53, "note_on_time": 5.82, "note_off_time": 5.906}, {"pitch": 76, "velocity": 65, "note_on_time": 6.559, "note_off_time": 6.701}, {"pitch": 74, "velocity": 59, "note_on_time": 7.287, "note_off_time": 7.408}, {"pitch": 76, "velocity": 56, "note_on_time": 8.008, "note_off_time": 8.167}, {"pitch": 72, "velocity": 52, "note_on_time": 8.764, "note_off_time": 8.878}, {"pitch": 74, "velocity": 64, "note_on_time": 9.489, "note_off_time": 10.825}, {"pitch": 72, "velocity": 52, "note_on_time": 11.707, "note_off_time": 11.865}, {"pitch": 76, "velocity": 55, "note_on_time": 12.43, "note_off_time": 12.593}, {"pitch": 74, "velocity": 59, "note_on_time": 13.177, "note_off_time": 13.315}, {"pitch": 76, "velocity": 59, "note_on_time": 13.896, "note_off_time": 14.029}, {"pitch": 72, "velocity": 58, "note_on_time": 14.62, "note_off_time": 14.731}, {"pitch": 76, "velocity": 51, "note_on_time": 15.395, "note_off_time": 15.549}, {"pitch": 74, "velocity": 74, "note_on_time": 16.13, "note_off_time": 16.938}, {"pitch": 76, "velocity": 59, "note_on_time": 17.577, "note_off_time": 17.685}, {"pitch": 72, "velocity": 70, "note_on_time": 19.786, "note_off_time": 19.888}, {"pitch": 72, "velocity": 43, "note_on_time": 20.549, "note_off_time": 20.623}, {"pitch": 72, "velocity": 50, "note_on_time": 21.255, "note_off_time": 21.325}, {"pitch": 76, "velocity": 58, "note_on_time": 22.002, "note_off_time": 22.136}, {"pitch": 74, "velocity": 39, "note_on_time": 22.72, "note_off_time": 22.852}, {"pitch": 74, "velocity": 52, "note_on_time": 24.171, "note_off_time": 24.302}, {"pitch": 74, "velocity": 43, "note_on_time": 24.908, "note_off_time": 25.06}, {"pitch": 74, "velocity": 55, "note_on_time": 25.611, "note_off_time": 25.725}]</notes><guidance name="Guidance Mode">None</guidance><error name="Error value">1.1493509130434778</error></trial></trials></MIDI>