<MIDI midiNo="2022_10_27-13_44_41"><target_notes><notes name="Note List">[{"pitch": 42, "velocity": 80, "note_on_time": 0.004, "note_off_time": 0.287}, {"pitch": 42, "velocity": 80, "note_on_time": 0.287, "note_off_time": 0.583}, {"pitch": 42, "velocity": 80, "note_on_time": 0.584, "note_off_time": 0.864}, {"pitch": 42, "velocity": 80, "note_on_time": 0.864, "note_off_time": 1.145}, {"pitch": 42, "velocity": 80, "note_on_time": 1.145, "note_off_time": 1.441}, {"pitch": 67, "velocity": 80, "note_on_time": 1.145, "note_off_time": 1.735}, {"pitch": 42, "velocity": 80, "note_on_time": 1.441, "note_off_time": 1.735}, {"pitch": 42, "velocity": 80, "note_on_time": 1.735, "note_off_time": 2.029}, {"pitch": 64, "velocity": 80, "note_on_time": 2.029, "note_off_time": 2.31}, {"pitch": 42, "velocity": 80, "note_on_time": 2.029, "note_off_time": 2.31}, {"pitch": 42, "velocity": 80, "note_on_time": 2.311, "note_off_time": 2.605}, {"pitch": 64, "velocity": 80, "note_on_time": 2.31, "note_off_time": 2.897}, {"pitch": 42, "velocity": 80, "note_on_time": 2.605, "note_off_time": 2.897}, {"pitch": 42, "velocity": 80, "note_on_time": 2.898, "note_off_time": 3.181}, {"pitch": 67, "velocity": 80, "note_on_time": 2.897, "note_off_time": 3.463}, {"pitch": 42, "velocity": 80, "note_on_time": 3.181, "note_off_time": 3.463}, {"pitch": 42, "velocity": 80, "note_on_time": 3.463, "note_off_time": 3.759}, {"pitch": 64, "velocity": 80, "note_on_time": 3.463, "note_off_time": 4.053}, {"pitch": 42, "velocity": 80, "note_on_time": 3.759, "note_off_time": 4.053}, {"pitch": 42, "velocity": 80, "note_on_time": 4.053, "note_off_time": 4.348}, {"pitch": 60, "velocity": 80, "note_on_time": 4.348, "note_off_time": 4.629}, {"pitch": 42, "velocity": 80, "note_on_time": 4.348, "note_off_time": 4.629}, {"pitch": 60, "velocity": 80, "note_on_time": 4.629, "note_off_time": 4.923}, {"pitch": 42, "velocity": 80, "note_on_time": 4.63, "note_off_time": 4.923}, {"pitch": 42, "velocity": 80, "note_on_time": 4.923, "note_off_time": 5.217}, {"pitch": 42, "velocity": 80, "note_on_time": 5.217, "note_off_time": 5.51}, {"pitch": 42, "velocity": 80, "note_on_time": 5.51, "note_off_time": 5.792}, {"pitch": 42, "velocity": 80, "note_on_time": 5.792, "note_off_time": 6.074}, {"pitch": 64, "velocity": 80, "note_on_time": 5.792, "note_off_time": 6.369}, {"pitch": 42, "velocity": 80, "note_on_time": 6.074, "note_off_time": 6.37}, {"pitch": 42, "velocity": 80, "note_on_time": 6.37, "note_off_time": 6.665}, {"pitch": 42, "velocity": 80, "note_on_time": 6.666, "note_off_time": 6.961}, {"pitch": 62, "velocity": 80, "note_on_time": 6.961, "note_off_time": 7.243}, {"pitch": 42, "velocity": 80, "note_on_time": 6.961, "note_off_time": 7.243}, {"pitch": 67, "velocity": 80, "note_on_time": 7.243, "note_off_time": 7.538}, {"pitch": 42, "velocity": 80, "note_on_time": 7.243, "note_off_time": 7.538}, {"pitch": 64, "velocity": 80, "note_on_time": 7.538, "note_off_time": 7.819}, {"pitch": 42, "velocity": 80, "note_on_time": 7.538, "note_off_time": 7.819}, {"pitch": 64, "velocity": 80, "note_on_time": 7.819, "note_off_time": 8.115}, {"pitch": 42, "velocity": 80, "note_on_time": 7.819, "note_off_time": 8.115}, {"pitch": 42, "velocity": 80, "note_on_time": 8.115, "note_off_time": 8.409}, {"pitch": 65, "velocity": 80, "note_on_time": 8.115, "note_off_time": 8.704}, {"pitch": 42, "velocity": 80, "note_on_time": 8.41, "note_off_time": 8.704}, {"pitch": 64, "velocity": 80, "note_on_time": 8.704, "note_off_time": 8.987}, {"pitch": 42, "velocity": 80, "note_on_time": 8.704, "note_off_time": 8.987}, {"pitch": 42, "velocity": 80, "note_on_time": 8.987, "note_off_time": 9.28}, {"pitch": 42, "velocity": 80, "note_on_time": 9.281, "note_off_time": 9.577}, {"pitch": 64, "velocity": 80, "note_on_time": 9.576, "note_off_time": 9.871}, {"pitch": 42, "velocity": 80, "note_on_time": 9.578, "note_off_time": 9.871}, {"pitch": 64, "velocity": 80, "note_on_time": 9.871, "note_off_time": 10.152}, {"pitch": 42, "velocity": 80, "note_on_time": 9.871, "note_off_time": 10.152}, {"pitch": 64, "velocity": 80, "note_on_time": 10.152, "note_off_time": 10.448}, {"pitch": 42, "velocity": 80, "note_on_time": 10.152, "note_off_time": 10.449}]</notes><options name="Option List">((4, 4), [0.5, 0.25], 3, 8, &lt;NoteRangePerHand.C_TO_G: 6&gt;, &lt;NoteRangePerHand.ONE_NOTE: 2&gt;, False, True, False, '215')</options></target_notes><trials><trial trial_no="1" timestamp="2022_10_27-13_44_30"><notes name="Played Notes">[{"pitch": 79, "velocity": 88, "note_on_time": 1.175, "note_off_time": 1.7}, {"pitch": 76, "velocity": 78, "note_on_time": 2.063, "note_off_time": 2.188}, {"pitch": 76, "velocity": 84, "note_on_time": 2.384, "note_off_time": 2.809}, {"pitch": 79, "velocity": 87, "note_on_time": 2.952, "note_off_time": 3.306}, {"pitch": 76, "velocity": 80, "note_on_time": 3.551, "note_off_time": 4.094}, {"pitch": 72, "velocity": 78, "note_on_time": 4.43, "note_off_time": 4.55}, {"pitch": 72, "velocity": 83, "note_on_time": 4.759, "note_off_time": 5.211}, {"pitch": 76, "velocity": 82, "note_on_time": 5.924, "note_off_time": 6.462}, {"pitch": 74, "velocity": 74, "note_on_time": 7.212, "note_off_time": 7.433}, {"pitch": 79, "velocity": 84, "note_on_time": 7.554, "note_off_time": 7.74}, {"pitch": 76, "velocity": 87, "note_on_time": 7.867, "note_off_time": 8.017}, {"pitch": 76, "velocity": 85, "note_on_time": 8.183, "note_off_time": 8.342}, {"pitch": 77, "velocity": 88, "note_on_time": 8.481, "note_off_time": 8.921}, {"pitch": 76, "velocity": 81, "note_on_time": 9.093, "note_off_time": 9.364}, {"pitch": 76, "velocity": 77, "note_on_time": 10.173, "note_off_time": 10.309}]</notes><guidance name="Guidance Mode">None</guidance><error name="Error value">1.3014531428571428</error></trial><trial trial_no="2" timestamp="2022_10_27-13_44_56"><notes name="Played Notes">[{"pitch": 79, "velocity": 83, "note_on_time": 1.169, "note_off_time": 1.64}, {"pitch": 76, "velocity": 84, "note_on_time": 2.078, "note_off_time": 2.22}, {"pitch": 76, "velocity": 87, "note_on_time": 2.417, "note_off_time": 2.843}, {"pitch": 79, "velocity": 90, "note_on_time": 3.023, "note_off_time": 3.349}, {"pitch": 76, "velocity": 84, "note_on_time": 3.63, "note_off_time": 4.047}, {"pitch": 72, "velocity": 83, "note_on_time": 4.664, "note_off_time": 4.792}, {"pitch": 72, "velocity": 89, "note_on_time": 5.016, "note_off_time": 5.384}, {"pitch": 76, "velocity": 83, "note_on_time": 6.416, "note_off_time": 6.987}, {"pitch": 74, "velocity": 67, "note_on_time": 7.879, "note_off_time": 8.096}, {"pitch": 79, "velocity": 79, "note_on_time": 8.219, "note_off_time": 8.402}, {"pitch": 76, "velocity": 82, "note_on_time": 8.571, "note_off_time": 8.736}, {"pitch": 76, "velocity": 81, "note_on_time": 8.913, "note_off_time": 9.067}, {"pitch": 77, "velocity": 88, "note_on_time": 9.26, "note_off_time": 9.757}, {"pitch": 76, "velocity": 81, "note_on_time": 9.971, "note_off_time": 10.224}]</notes><guidance name="Guidance Mode">None</guidance><error name="Error value">1.3786304999999999</error></trial><trial trial_no="3" timestamp="2022_10_27-13_45_27"><notes name="Played Notes">[{"pitch": 79, "velocity": 87, "note_on_time": 1.148, "note_off_time": 1.615}, {"pitch": 76, "velocity": 83, "note_on_time": 2.044, "note_off_time": 2.178}, {"pitch": 76, "velocity": 89, "note_on_time": 2.355, "note_off_time": 2.736}, {"pitch": 79, "velocity": 90, "note_on_time": 2.951, "note_off_time": 3.225}, {"pitch": 76, "velocity": 84, "note_on_time": 3.511, "note_off_time": 3.958}, {"pitch": 72, "velocity": 78, "note_on_time": 4.419, "note_off_time": 4.527}, {"pitch": 72, "velocity": 78, "note_on_time": 4.712, "note_off_time": 5.098}, {"pitch": 76, "velocity": 83, "note_on_time": 5.862, "note_off_time": 6.405}, {"pitch": 74, "velocity": 72, "note_on_time": 7.045, "note_off_time": 7.244}, {"pitch": 79, "velocity": 83, "note_on_time": 7.335, "note_off_time": 7.477}, {"pitch": 76, "velocity": 82, "note_on_time": 7.633, "note_off_time": 7.768}, {"pitch": 76, "velocity": 78, "note_on_time": 7.913, "note_off_time": 8.033}, {"pitch": 77, "velocity": 88, "note_on_time": 8.208, "note_off_time": 8.532}, {"pitch": 76, "velocity": 87, "note_on_time": 8.766, "note_off_time": 9.004}, {"pitch": 76, "velocity": 83, "note_on_time": 9.632, "note_off_time": 9.75}, {"pitch": 76, "velocity": 81, "note_on_time": 9.912, "note_off_time": 10.043}, {"pitch": 76, "velocity": 89, "note_on_time": 10.195, "note_off_time": 10.324}]</notes><guidance name="Guidance Mode">None</guidance><error name="Error value">1.2425812142857144</error></trial></trials></MIDI>