<MIDI midiNo="2022_12_08-10_45_42"><target_notes><notes name="Note List">[{"pitch": 42, "velocity": 80, "note_on_time": 0.004, "note_off_time": 0.258}, {"pitch": 42, "velocity": 80, "note_on_time": 0.258, "note_off_time": 0.507}, {"pitch": 42, "velocity": 80, "note_on_time": 0.507, "note_off_time": 0.757}, {"pitch": 42, "velocity": 80, "note_on_time": 0.757, "note_off_time": 1.007}, {"pitch": 67, "velocity": 80, "note_on_time": 1.007, "note_off_time": 1.259}, {"pitch": 42, "velocity": 80, "note_on_time": 1.007, "note_off_time": 1.259}, {"pitch": 62, "velocity": 80, "note_on_time": 1.259, "note_off_time": 1.507}, {"pitch": 42, "velocity": 80, "note_on_time": 1.259, "note_off_time": 1.507}, {"pitch": 62, "velocity": 80, "note_on_time": 1.507, "note_off_time": 1.757}, {"pitch": 42, "velocity": 80, "note_on_time": 1.507, "note_off_time": 1.757}, {"pitch": 64, "velocity": 80, "note_on_time": 1.757, "note_off_time": 2.005}, {"pitch": 42, "velocity": 80, "note_on_time": 1.757, "note_off_time": 2.005}, {"pitch": 60, "velocity": 80, "note_on_time": 2.005, "note_off_time": 2.255}, {"pitch": 42, "velocity": 80, "note_on_time": 2.005, "note_off_time": 2.255}, {"pitch": 62, "velocity": 80, "note_on_time": 2.255, "note_off_time": 2.504}, {"pitch": 42, "velocity": 80, "note_on_time": 2.255, "note_off_time": 2.504}, {"pitch": 42, "velocity": 80, "note_on_time": 2.504, "note_off_time": 2.753}, {"pitch": 67, "velocity": 80, "note_on_time": 2.753, "note_off_time": 3.004}, {"pitch": 42, "velocity": 80, "note_on_time": 2.753, "note_off_time": 3.004}, {"pitch": 67, "velocity": 80, "note_on_time": 3.004, "note_off_time": 3.252}, {"pitch": 42, "velocity": 80, "note_on_time": 3.004, "note_off_time": 3.252}, {"pitch": 65, "velocity": 80, "note_on_time": 3.252, "note_off_time": 3.503}, {"pitch": 42, "velocity": 80, "note_on_time": 3.252, "note_off_time": 3.503}, {"pitch": 62, "velocity": 80, "note_on_time": 3.503, "note_off_time": 3.751}, {"pitch": 42, "velocity": 80, "note_on_time": 3.503, "note_off_time": 3.751}, {"pitch": 62, "velocity": 80, "note_on_time": 3.751, "note_off_time": 4.001}, {"pitch": 42, "velocity": 80, "note_on_time": 3.751, "note_off_time": 4.001}, {"pitch": 67, "velocity": 80, "note_on_time": 4.001, "note_off_time": 4.25}, {"pitch": 42, "velocity": 80, "note_on_time": 4.001, "note_off_time": 4.25}, {"pitch": 62, "velocity": 80, "note_on_time": 4.25, "note_off_time": 4.498}, {"pitch": 42, "velocity": 80, "note_on_time": 4.25, "note_off_time": 4.498}, {"pitch": 42, "velocity": 80, "note_on_time": 4.498, "note_off_time": 4.748}, {"pitch": 42, "velocity": 80, "note_on_time": 4.748, "note_off_time": 4.998}, {"pitch": 42, "velocity": 80, "note_on_time": 4.998, "note_off_time": 5.246}, {"pitch": 60, "velocity": 80, "note_on_time": 4.998, "note_off_time": 5.494}, {"pitch": 42, "velocity": 80, "note_on_time": 5.246, "note_off_time": 5.494}, {"pitch": 42, "velocity": 80, "note_on_time": 5.494, "note_off_time": 5.744}, {"pitch": 60, "velocity": 80, "note_on_time": 5.744, "note_off_time": 5.994}, {"pitch": 42, "velocity": 80, "note_on_time": 5.744, "note_off_time": 5.994}, {"pitch": 64, "velocity": 80, "note_on_time": 5.994, "note_off_time": 6.243}, {"pitch": 42, "velocity": 80, "note_on_time": 5.994, "note_off_time": 6.243}, {"pitch": 65, "velocity": 80, "note_on_time": 6.243, "note_off_time": 6.491}, {"pitch": 42, "velocity": 80, "note_on_time": 6.243, "note_off_time": 6.491}, {"pitch": 60, "velocity": 80, "note_on_time": 6.491, "note_off_time": 6.74}, {"pitch": 42, "velocity": 80, "note_on_time": 6.491, "note_off_time": 6.74}, {"pitch": 67, "velocity": 80, "note_on_time": 6.74, "note_off_time": 6.989}, {"pitch": 42, "velocity": 80, "note_on_time": 6.74, "note_off_time": 6.989}, {"pitch": 62, "velocity": 80, "note_on_time": 6.989, "note_off_time": 7.238}, {"pitch": 42, "velocity": 80, "note_on_time": 6.989, "note_off_time": 7.238}, {"pitch": 42, "velocity": 80, "note_on_time": 7.238, "note_off_time": 7.488}, {"pitch": 42, "velocity": 80, "note_on_time": 7.488, "note_off_time": 7.737}, {"pitch": 42, "velocity": 80, "note_on_time": 7.737, "note_off_time": 7.986}, {"pitch": 42, "velocity": 80, "note_on_time": 7.986, "note_off_time": 8.235}, {"pitch": 62, "velocity": 80, "note_on_time": 8.235, "note_off_time": 8.487}, {"pitch": 42, "velocity": 80, "note_on_time": 8.235, "note_off_time": 8.487}, {"pitch": 62, "velocity": 80, "note_on_time": 8.487, "note_off_time": 8.736}, {"pitch": 42, "velocity": 80, "note_on_time": 8.487, "note_off_time": 8.736}, {"pitch": 62, "velocity": 80, "note_on_time": 8.736, "note_off_time": 8.987}, {"pitch": 42, "velocity": 80, "note_on_time": 8.736, "note_off_time": 8.987}]</notes><options name="Option List">((4, 4), [0.5, 0.25], 3, 8, &lt;NoteRangePerHand.C_TO_G: 6&gt;, &lt;NoteRangePerHand.ONE_NOTE: 2&gt;, False, True, False, 248)</options></target_notes><trials /></MIDI>