<MIDI midiNo="2023_06_19-16_33_59"><target_notes><notes name="Note List">[{"pitch": 60, "velocity": 40, "note_on_time": 0.009, "note_off_time": 1.018}, {"pitch": 64, "velocity": 40, "note_on_time": 0.009, "note_off_time": 1.019}, {"pitch": 67, "velocity": 40, "note_on_time": 0.009, "note_off_time": 1.02}, {"pitch": 48, "velocity": 40, "note_on_time": 0.009, "note_off_time": 1.02}, {"pitch": 52, "velocity": 40, "note_on_time": 1.02, "note_off_time": 2.031}, {"pitch": 55, "velocity": 40, "note_on_time": 1.02, "note_off_time": 2.032}, {"pitch": 79, "velocity": 40, "note_on_time": 2.031, "note_off_time": 3.054}, {"pitch": 48, "velocity": 40, "note_on_time": 2.032, "note_off_time": 3.054}, {"pitch": 52, "velocity": 40, "note_on_time": 3.054, "note_off_time": 4.055}, {"pitch": 55, "velocity": 40, "note_on_time": 3.054, "note_off_time": 4.055}, {"pitch": 48, "velocity": 40, "note_on_time": 4.055, "note_off_time": 5.066}, {"pitch": 52, "velocity": 40, "note_on_time": 5.066, "note_off_time": 6.077}, {"pitch": 55, "velocity": 40, "note_on_time": 5.066, "note_off_time": 6.077}, {"pitch": 48, "velocity": 40, "note_on_time": 6.077, "note_off_time": 7.093}, {"pitch": 52, "velocity": 40, "note_on_time": 7.093, "note_off_time": 8.103}, {"pitch": 55, "velocity": 40, "note_on_time": 7.093, "note_off_time": 8.103}, {"pitch": 60, "velocity": 40, "note_on_time": 8.102, "note_off_time": 9.111}, {"pitch": 64, "velocity": 40, "note_on_time": 8.102, "note_off_time": 9.112}, {"pitch": 67, "velocity": 40, "note_on_time": 8.103, "note_off_time": 9.112}, {"pitch": 48, "velocity": 40, "note_on_time": 8.103, "note_off_time": 9.113}, {"pitch": 52, "velocity": 40, "note_on_time": 9.113, "note_off_time": 10.121}, {"pitch": 55, "velocity": 40, "note_on_time": 9.113, "note_off_time": 10.121}, {"pitch": 76, "velocity": 40, "note_on_time": 10.121, "note_off_time": 11.134}, {"pitch": 48, "velocity": 40, "note_on_time": 10.121, "note_off_time": 11.134}, {"pitch": 52, "velocity": 40, "note_on_time": 11.134, "note_off_time": 12.139}, {"pitch": 55, "velocity": 40, "note_on_time": 11.134, "note_off_time": 12.139}, {"pitch": 48, "velocity": 40, "note_on_time": 12.139, "note_off_time": 13.152}, {"pitch": 52, "velocity": 40, "note_on_time": 13.152, "note_off_time": 14.16}, {"pitch": 55, "velocity": 40, "note_on_time": 13.152, "note_off_time": 14.16}, {"pitch": 48, "velocity": 40, "note_on_time": 14.16, "note_off_time": 15.174}, {"pitch": 52, "velocity": 40, "note_on_time": 15.174, "note_off_time": 16.187}, {"pitch": 55, "velocity": 40, "note_on_time": 15.174, "note_off_time": 16.188}, {"pitch": 60, "velocity": 40, "note_on_time": 16.186, "note_off_time": 17.198}, {"pitch": 64, "velocity": 40, "note_on_time": 16.187, "note_off_time": 17.2}, {"pitch": 67, "velocity": 40, "note_on_time": 16.187, "note_off_time": 17.2}, {"pitch": 48, "velocity": 40, "note_on_time": 16.188, "note_off_time": 17.2}, {"pitch": 52, "velocity": 40, "note_on_time": 17.201, "note_off_time": 18.213}, {"pitch": 55, "velocity": 40, "note_on_time": 17.201, "note_off_time": 18.213}, {"pitch": 77, "velocity": 40, "note_on_time": 18.213, "note_off_time": 19.228}, {"pitch": 48, "velocity": 40, "note_on_time": 18.213, "note_off_time": 19.228}, {"pitch": 52, "velocity": 40, "note_on_time": 19.228, "note_off_time": 20.237}, {"pitch": 55, "velocity": 40, "note_on_time": 19.228, "note_off_time": 20.237}, {"pitch": 48, "velocity": 40, "note_on_time": 20.237, "note_off_time": 21.244}, {"pitch": 52, "velocity": 40, "note_on_time": 21.244, "note_off_time": 22.251}, {"pitch": 55, "velocity": 40, "note_on_time": 21.244, "note_off_time": 22.251}, {"pitch": 48, "velocity": 40, "note_on_time": 22.251, "note_off_time": 23.256}, {"pitch": 52, "velocity": 40, "note_on_time": 23.256, "note_off_time": 24.26}, {"pitch": 55, "velocity": 40, "note_on_time": 23.256, "note_off_time": 24.26}, {"pitch": 60, "velocity": 40, "note_on_time": 24.259, "note_off_time": 25.265}, {"pitch": 64, "velocity": 40, "note_on_time": 24.259, "note_off_time": 25.266}, {"pitch": 67, "velocity": 40, "note_on_time": 24.26, "note_off_time": 25.266}, {"pitch": 48, "velocity": 40, "note_on_time": 24.26, "note_off_time": 25.267}, {"pitch": 52, "velocity": 40, "note_on_time": 25.267, "note_off_time": 26.277}, {"pitch": 55, "velocity": 40, "note_on_time": 25.267, "note_off_time": 26.278}, {"pitch": 79, "velocity": 40, "note_on_time": 26.277, "note_off_time": 27.283}, {"pitch": 48, "velocity": 40, "note_on_time": 26.278, "note_off_time": 27.283}, {"pitch": 52, "velocity": 40, "note_on_time": 27.283, "note_off_time": 28.293}, {"pitch": 55, "velocity": 40, "note_on_time": 27.283, "note_off_time": 28.293}, {"pitch": 48, "velocity": 40, "note_on_time": 28.293, "note_off_time": 29.299}, {"pitch": 52, "velocity": 40, "note_on_time": 29.299, "note_off_time": 30.315}, {"pitch": 55, "velocity": 40, "note_on_time": 29.299, "note_off_time": 30.315}, {"pitch": 48, "velocity": 40, "note_on_time": 30.315, "note_off_time": 31.326}, {"pitch": 52, "velocity": 40, "note_on_time": 31.326, "note_off_time": 32.341}, {"pitch": 55, "velocity": 40, "note_on_time": 31.326, "note_off_time": 32.341}, {"pitch": 60, "velocity": 40, "note_on_time": 32.34, "note_off_time": 33.345}, {"pitch": 64, "velocity": 40, "note_on_time": 32.34, "note_off_time": 33.347}, {"pitch": 67, "velocity": 40, "note_on_time": 32.34, "note_off_time": 33.347}, {"pitch": 48, "velocity": 40, "note_on_time": 32.341, "note_off_time": 33.348}, {"pitch": 52, "velocity": 40, "note_on_time": 33.348, "note_off_time": 34.359}, {"pitch": 55, "velocity": 40, "note_on_time": 33.348, "note_off_time": 34.359}, {"pitch": 76, "velocity": 40, "note_on_time": 34.359, "note_off_time": 35.365}, {"pitch": 48, "velocity": 40, "note_on_time": 34.36, "note_off_time": 35.366}, {"pitch": 52, "velocity": 40, "note_on_time": 35.366, "note_off_time": 36.373}, {"pitch": 55, "velocity": 40, "note_on_time": 35.366, "note_off_time": 36.373}, {"pitch": 48, "velocity": 40, "note_on_time": 36.373, "note_off_time": 37.381}, {"pitch": 52, "velocity": 40, "note_on_time": 37.381, "note_off_time": 38.382}, {"pitch": 55, "velocity": 40, "note_on_time": 37.381, "note_off_time": 38.382}, {"pitch": 48, "velocity": 40, "note_on_time": 38.382, "note_off_time": 39.391}, {"pitch": 52, "velocity": 40, "note_on_time": 39.391, "note_off_time": 40.404}, {"pitch": 55, "velocity": 40, "note_on_time": 39.391, "note_off_time": 40.404}, {"pitch": 60, "velocity": 40, "note_on_time": 40.403, "note_off_time": 41.411}, {"pitch": 64, "velocity": 40, "note_on_time": 40.403, "note_off_time": 41.413}, {"pitch": 67, "velocity": 40, "note_on_time": 40.404, "note_off_time": 41.413}, {"pitch": 77, "velocity": 40, "note_on_time": 42.418, "note_off_time": 43.427}, {"pitch": 60, "velocity": 40, "note_on_time": 48.431, "note_off_time": 49.437}, {"pitch": 64, "velocity": 40, "note_on_time": 48.431, "note_off_time": 49.438}, {"pitch": 67, "velocity": 40, "note_on_time": 48.432, "note_off_time": 49.439}, {"pitch": 74, "velocity": 40, "note_on_time": 50.443, "note_off_time": 51.467}, {"pitch": 60, "velocity": 40, "note_on_time": 56.483, "note_off_time": 57.496}, {"pitch": 64, "velocity": 40, "note_on_time": 56.483, "note_off_time": 57.497}, {"pitch": 67, "velocity": 40, "note_on_time": 56.484, "note_off_time": 57.498}, {"pitch": 72, "velocity": 40, "note_on_time": 58.507, "note_off_time": 59.515}, {"pitch": 60, "velocity": 40, "note_on_time": 64.516, "note_off_time": 65.529}, {"pitch": 64, "velocity": 40, "note_on_time": 64.517, "note_off_time": 65.53}, {"pitch": 67, "velocity": 40, "note_on_time": 64.517, "note_off_time": 65.531}, {"pitch": 74, "velocity": 40, "note_on_time": 66.538, "note_off_time": 67.539}, {"pitch": 60, "velocity": 40, "note_on_time": 72.549, "note_off_time": 73.56}, {"pitch": 64, "velocity": 40, "note_on_time": 72.55, "note_off_time": 73.561}, {"pitch": 67, "velocity": 40, "note_on_time": 72.551, "note_off_time": 73.562}, {"pitch": 79, "velocity": 40, "note_on_time": 74.575, "note_off_time": 75.587}, {"pitch": 60, "velocity": 40, "note_on_time": 80.595, "note_off_time": 81.616}, {"pitch": 64, "velocity": 40, "note_on_time": 80.595, "note_off_time": 81.617}, {"pitch": 67, "velocity": 40, "note_on_time": 80.596, "note_off_time": 81.624}, {"pitch": 72, "velocity": 40, "note_on_time": 82.642, "note_off_time": 83.648}, {"pitch": 60, "velocity": 40, "note_on_time": 88.661, "note_off_time": 89.667}, {"pitch": 64, "velocity": 40, "note_on_time": 88.661, "note_off_time": 89.667}, {"pitch": 67, "velocity": 40, "note_on_time": 88.662, "note_off_time": 89.667}, {"pitch": 77, "velocity": 40, "note_on_time": 90.669, "note_off_time": 91.673}, {"pitch": 60, "velocity": 40, "note_on_time": 96.675, "note_off_time": 97.684}, {"pitch": 64, "velocity": 40, "note_on_time": 96.676, "note_off_time": 97.685}, {"pitch": 67, "velocity": 40, "note_on_time": 96.676, "note_off_time": 97.685}, {"pitch": 74, "velocity": 40, "note_on_time": 98.695, "note_off_time": 99.702}, {"pitch": 60, "velocity": 40, "note_on_time": 104.715, "note_off_time": 105.717}, {"pitch": 64, "velocity": 40, "note_on_time": 104.716, "note_off_time": 105.718}, {"pitch": 67, "velocity": 40, "note_on_time": 104.716, "note_off_time": 105.719}, {"pitch": 72, "velocity": 40, "note_on_time": 106.727, "note_off_time": 107.736}, {"pitch": 60, "velocity": 40, "note_on_time": 112.737, "note_off_time": 113.749}, {"pitch": 64, "velocity": 40, "note_on_time": 112.738, "note_off_time": 113.75}, {"pitch": 67, "velocity": 40, "note_on_time": 112.738, "note_off_time": 113.751}, {"pitch": 74, "velocity": 40, "note_on_time": 114.762, "note_off_time": 115.777}, {"pitch": 60, "velocity": 40, "note_on_time": 120.779, "note_off_time": 121.787}, {"pitch": 64, "velocity": 40, "note_on_time": 120.78, "note_off_time": 121.788}, {"pitch": 67, "velocity": 40, "note_on_time": 120.78, "note_off_time": 121.789}, {"pitch": 77, "velocity": 40, "note_on_time": 122.798, "note_off_time": 123.805}, {"pitch": 60, "velocity": 40, "note_on_time": 128.82, "note_off_time": 129.83}, {"pitch": 64, "velocity": 40, "note_on_time": 128.821, "note_off_time": 129.831}, {"pitch": 67, "velocity": 40, "note_on_time": 128.821, "note_off_time": 129.831}, {"pitch": 76, "velocity": 40, "note_on_time": 130.835, "note_off_time": 131.849}, {"pitch": 60, "velocity": 40, "note_on_time": 136.864, "note_off_time": 137.872}, {"pitch": 64, "velocity": 40, "note_on_time": 136.865, "note_off_time": 137.873}, {"pitch": 67, "velocity": 40, "note_on_time": 136.865, "note_off_time": 137.873}, {"pitch": 72, "velocity": 40, "note_on_time": 138.879, "note_off_time": 139.889}, {"pitch": 60, "velocity": 40, "note_on_time": 144.904, "note_off_time": 145.906}, {"pitch": 64, "velocity": 40, "note_on_time": 144.905, "note_off_time": 145.908}, {"pitch": 67, "velocity": 40, "note_on_time": 144.905, "note_off_time": 145.908}, {"pitch": 79, "velocity": 40, "note_on_time": 146.922, "note_off_time": 147.932}, {"pitch": 60, "velocity": 40, "note_on_time": 152.944, "note_off_time": 153.959}, {"pitch": 64, "velocity": 40, "note_on_time": 152.945, "note_off_time": 153.959}, {"pitch": 67, "velocity": 40, "note_on_time": 152.945, "note_off_time": 153.96}, {"pitch": 76, "velocity": 40, "note_on_time": 154.968, "note_off_time": 155.975}, {"pitch": 60, "velocity": 40, "note_on_time": 160.978, "note_off_time": 161.991}, {"pitch": 64, "velocity": 40, "note_on_time": 160.979, "note_off_time": 161.992}, {"pitch": 67, "velocity": 40, "note_on_time": 160.979, "note_off_time": 161.992}, {"pitch": 79, "velocity": 40, "note_on_time": 163.008, "note_off_time": 164.013}]</notes><options name="Option List">((4, 4), [0.5, 0.25], 3, 8, &lt;NoteRangePerHand.TWO_NOTES: 3&gt;, &lt;NoteRangePerHand.ONE_NOTE: 2&gt;, False, True, True, 100)</options></target_notes><trials><trial trial_no="1" timestamp="2023_06_19-16_31_15"><notes name="Played Notes">[{"pitch": 72, "velocity": 55, "note_on_time": 3.711, "note_off_time": 4.045}, {"pitch": 76, "velocity": 43, "note_on_time": 5.426, "note_off_time": 6.195}, {"pitch": 76, "velocity": 42, "note_on_time": 11.404, "note_off_time": 11.914}, {"pitch": 77, "velocity": 27, "note_on_time": 19.599, "note_off_time": 20.227}, {"pitch": 79, "velocity": 55, "note_on_time": 27.867, "note_off_time": 28.278}, {"pitch": 77, "velocity": 43, "note_on_time": 36.14, "note_off_time": 36.712}, {"pitch": 76, "velocity": 54, "note_on_time": 37.137, "note_off_time": 38.232}, {"pitch": 77, "velocity": 12, "note_on_time": 43.593, "note_off_time": 44.373}, {"pitch": 76, "velocity": 43, "note_on_time": 52.136, "note_off_time": 52.645}, {"pitch": 74, "velocity": 70, "note_on_time": 52.852, "note_off_time": 53.447}, {"pitch": 74, "velocity": 14, "note_on_time": 55.891, "note_off_time": 55.988}, {"pitch": 74, "velocity": 39, "note_on_time": 60.59, "note_off_time": 60.995}, {"pitch": 72, "velocity": 74, "note_on_time": 61.202, "note_off_time": 62.292}, {"pitch": 76, "velocity": 40, "note_on_time": 68.135, "note_off_time": 68.721}, {"pitch": 74, "velocity": 20, "note_on_time": 69.423, "note_off_time": 69.752}, {"pitch": 77, "velocity": 48, "note_on_time": 75.959, "note_off_time": 76.393}, {"pitch": 79, "velocity": 73, "note_on_time": 76.711, "note_off_time": 77.715}, {"pitch": 76, "velocity": 45, "note_on_time": 84.112, "note_off_time": 84.548}, {"pitch": 74, "velocity": 58, "note_on_time": 84.927, "note_off_time": 85.681}, {"pitch": 77, "velocity": 44, "note_on_time": 92.837, "note_off_time": 93.55}, {"pitch": 76, "velocity": 46, "note_on_time": 100.315, "note_off_time": 100.869}, {"pitch": 74, "velocity": 47, "note_on_time": 101.212, "note_off_time": 102.547}, {"pitch": 72, "velocity": 49, "note_on_time": 108.422, "note_off_time": 109.162}, {"pitch": 76, "velocity": 45, "note_on_time": 116.511, "note_off_time": 117.08}, {"pitch": 74, "velocity": 54, "note_on_time": 117.338, "note_off_time": 118.313}, {"pitch": 77, "velocity": 52, "note_on_time": 123.829, "note_off_time": 124.476}, {"pitch": 76, "velocity": 47, "note_on_time": 132.68, "note_off_time": 133.493}, {"pitch": 74, "velocity": 34, "note_on_time": 140.244, "note_off_time": 140.639}, {"pitch": 72, "velocity": 70, "note_on_time": 140.816, "note_off_time": 141.871}, {"pitch": 79, "velocity": 49, "note_on_time": 148.256, "note_off_time": 149.117}, {"pitch": 77, "velocity": 20, "note_on_time": 156.043, "note_off_time": 156.634}, {"pitch": 76, "velocity": 67, "note_on_time": 156.895, "note_off_time": 157.868}]</notes><guidance name="Guidance Mode">None</guidance><error name="Error value">99</error></trial><trial trial_no="2" timestamp="2023_06_19-16_37_29"><notes name="Played Notes">[{"pitch": 72, "velocity": 58, "note_on_time": 3.737, "note_off_time": 4.016}, {"pitch": 74, "velocity": 54, "note_on_time": 4.305, "note_off_time": 4.574}, {"pitch": 76, "velocity": 50, "note_on_time": 4.868, "note_off_time": 5.109}, {"pitch": 77, "velocity": 44, "note_on_time": 5.474, "note_off_time": 5.695}, {"pitch": 79, "velocity": 55, "note_on_time": 6.13, "note_off_time": 6.396}, {"pitch": 72, "velocity": 57, "note_on_time": 7.352, "note_off_time": 7.593}, {"pitch": 74, "velocity": 57, "note_on_time": 7.877, "note_off_time": 8.095}, {"pitch": 76, "velocity": 54, "note_on_time": 8.47, "note_off_time": 8.684}, {"pitch": 77, "velocity": 46, "note_on_time": 9.031, "note_off_time": 9.223}, {"pitch": 79, "velocity": 51, "note_on_time": 9.632, "note_off_time": 9.891}, {"pitch": 72, "velocity": 53, "note_on_time": 10.995, "note_off_time": 11.222}, {"pitch": 74, "velocity": 48, "note_on_time": 11.565, "note_off_time": 11.781}, {"pitch": 76, "velocity": 53, "note_on_time": 12.164, "note_off_time": 12.374}, {"pitch": 77, "velocity": 52, "note_on_time": 12.753, "note_off_time": 12.975}, {"pitch": 79, "velocity": 57, "note_on_time": 13.378, "note_off_time": 13.652}, {"pitch": 72, "velocity": 51, "note_on_time": 14.628, "note_off_time": 14.87}, {"pitch": 74, "velocity": 49, "note_on_time": 15.206, "note_off_time": 15.407}, {"pitch": 76, "velocity": 48, "note_on_time": 15.769, "note_off_time": 15.946}, {"pitch": 77, "velocity": 46, "note_on_time": 16.345, "note_off_time": 16.546}, {"pitch": 79, "velocity": 43, "note_on_time": 16.921, "note_off_time": 17.164}, {"pitch": 79, "velocity": 67, "note_on_time": 20.486, "note_off_time": 20.701}, {"pitch": 77, "velocity": 45, "note_on_time": 21.002, "note_off_time": 21.216}, {"pitch": 79, "velocity": 55, "note_on_time": 23.237, "note_off_time": 23.468}, {"pitch": 77, "velocity": 35, "note_on_time": 23.74, "note_off_time": 23.96}, {"pitch": 76, "velocity": 45, "note_on_time": 24.317, "note_off_time": 24.441}, {"pitch": 72, "velocity": 57, "note_on_time": 24.997, "note_off_time": 25.216}, {"pitch": 79, "velocity": 49, "note_on_time": 28.001, "note_off_time": 28.236}, {"pitch": 77, "velocity": 47, "note_on_time": 28.569, "note_off_time": 28.805}, {"pitch": 76, "velocity": 47, "note_on_time": 29.164, "note_off_time": 29.363}, {"pitch": 74, "velocity": 46, "note_on_time": 29.74, "note_off_time": 29.934}, {"pitch": 72, "velocity": 59, "note_on_time": 30.289, "note_off_time": 30.521}, {"pitch": 79, "velocity": 36, "note_on_time": 32.823, "note_off_time": 33.058}, {"pitch": 77, "velocity": 51, "note_on_time": 33.413, "note_off_time": 33.64}, {"pitch": 76, "velocity": 53, "note_on_time": 34.016, "note_off_time": 34.219}, {"pitch": 74, "velocity": 44, "note_on_time": 34.548, "note_off_time": 34.735}, {"pitch": 72, "velocity": 70, "note_on_time": 35.126, "note_off_time": 35.592}, {"pitch": 79, "velocity": 50, "note_on_time": 37.717, "note_off_time": 37.951}, {"pitch": 77, "velocity": 46, "note_on_time": 38.312, "note_off_time": 38.535}, {"pitch": 76, "velocity": 56, "note_on_time": 38.901, "note_off_time": 39.087}, {"pitch": 74, "velocity": 43, "note_on_time": 39.424, "note_off_time": 39.63}, {"pitch": 72, "velocity": 56, "note_on_time": 40.034, "note_off_time": 40.503}, {"pitch": 79, "velocity": 52, "note_on_time": 42.474, "note_off_time": 42.716}, {"pitch": 77, "velocity": 47, "note_on_time": 43.116, "note_off_time": 43.328}, {"pitch": 76, "velocity": 41, "note_on_time": 43.691, "note_off_time": 43.903}, {"pitch": 74, "velocity": 54, "note_on_time": 44.235, "note_off_time": 44.426}, {"pitch": 72, "velocity": 61, "note_on_time": 44.813, "note_off_time": 45.329}, {"pitch": 76, "velocity": 62, "note_on_time": 50.003, "note_off_time": 50.224}, {"pitch": 77, "velocity": 52, "note_on_time": 50.526, "note_off_time": 50.747}, {"pitch": 79, "velocity": 52, "note_on_time": 51.109, "note_off_time": 51.313}, {"pitch": 72, "velocity": 51, "note_on_time": 51.7, "note_off_time": 52.015}, {"pitch": 74, "velocity": 52, "note_on_time": 54.797, "note_off_time": 55.042}, {"pitch": 76, "velocity": 52, "note_on_time": 55.34, "note_off_time": 55.539}, {"pitch": 77, "velocity": 48, "note_on_time": 55.971, "note_off_time": 56.201}, {"pitch": 74, "velocity": 54, "note_on_time": 59.612, "note_off_time": 59.846}, {"pitch": 76, "velocity": 58, "note_on_time": 60.173, "note_off_time": 60.39}, {"pitch": 77, "velocity": 53, "note_on_time": 60.725, "note_off_time": 60.928}, {"pitch": 79, "velocity": 56, "note_on_time": 61.271, "note_off_time": 61.477}, {"pitch": 72, "velocity": 53, "note_on_time": 62.073, "note_off_time": 62.404}, {"pitch": 74, "velocity": 49, "note_on_time": 63.275, "note_off_time": 63.513}, {"pitch": 76, "velocity": 50, "note_on_time": 63.856, "note_off_time": 64.067}, {"pitch": 77, "velocity": 42, "note_on_time": 64.422, "note_off_time": 64.625}, {"pitch": 79, "velocity": 57, "note_on_time": 65.063, "note_off_time": 65.264}, {"pitch": 72, "velocity": 44, "note_on_time": 65.633, "note_off_time": 66.055}, {"pitch": 74, "velocity": 54, "note_on_time": 66.879, "note_off_time": 67.105}, {"pitch": 76, "velocity": 43, "note_on_time": 67.444, "note_off_time": 67.658}, {"pitch": 77, "velocity": 53, "note_on_time": 68.032, "note_off_time": 68.228}, {"pitch": 79, "velocity": 54, "note_on_time": 68.605, "note_off_time": 68.807}, {"pitch": 72, "velocity": 67, "note_on_time": 69.226, "note_off_time": 69.752}, {"pitch": 77, "velocity": 62, "note_on_time": 74.273, "note_off_time": 74.495}, {"pitch": 76, "velocity": 54, "note_on_time": 74.807, "note_off_time": 75.056}, {"pitch": 74, "velocity": 50, "note_on_time": 75.406, "note_off_time": 75.6}, {"pitch": 72, "velocity": 55, "note_on_time": 75.965, "note_off_time": 76.219}, {"pitch": 79, "velocity": 47, "note_on_time": 76.651, "note_off_time": 77.358}, {"pitch": 77, "velocity": 52, "note_on_time": 77.915, "note_off_time": 78.137}, {"pitch": 76, "velocity": 52, "note_on_time": 78.462, "note_off_time": 78.675}, {"pitch": 74, "velocity": 48, "note_on_time": 79.038, "note_off_time": 79.247}, {"pitch": 72, "velocity": 52, "note_on_time": 79.594, "note_off_time": 79.806}, {"pitch": 79, "velocity": 63, "note_on_time": 80.251, "note_off_time": 80.85}, {"pitch": 77, "velocity": 61, "note_on_time": 81.527, "note_off_time": 81.751}, {"pitch": 76, "velocity": 55, "note_on_time": 82.161, "note_off_time": 82.349}, {"pitch": 74, "velocity": 52, "note_on_time": 82.683, "note_off_time": 82.898}, {"pitch": 72, "velocity": 54, "note_on_time": 83.28, "note_off_time": 83.5}, {"pitch": 79, "velocity": 52, "note_on_time": 83.902, "note_off_time": 84.494}, {"pitch": 77, "velocity": 55, "note_on_time": 85.186, "note_off_time": 85.408}, {"pitch": 76, "velocity": 55, "note_on_time": 85.737, "note_off_time": 85.965}, {"pitch": 74, "velocity": 48, "note_on_time": 86.319, "note_off_time": 86.51}, {"pitch": 72, "velocity": 42, "note_on_time": 86.935, "note_off_time": 87.163}, {"pitch": 79, "velocity": 59, "note_on_time": 87.618, "note_off_time": 88.316}, {"pitch": 77, "velocity": 63, "note_on_time": 88.828, "note_off_time": 89.04}, {"pitch": 76, "velocity": 48, "note_on_time": 89.395, "note_off_time": 89.597}, {"pitch": 74, "velocity": 48, "note_on_time": 89.973, "note_off_time": 90.172}, {"pitch": 72, "velocity": 49, "note_on_time": 90.6, "note_off_time": 90.8}, {"pitch": 79, "velocity": 63, "note_on_time": 91.213, "note_off_time": 91.792}, {"pitch": 76, "velocity": 51, "note_on_time": 96.16, "note_off_time": 96.39}, {"pitch": 77, "velocity": 55, "note_on_time": 96.732, "note_off_time": 96.922}, {"pitch": 79, "velocity": 48, "note_on_time": 97.327, "note_off_time": 97.537}, {"pitch": 74, "velocity": 49, "note_on_time": 97.908, "note_off_time": 98.08}, {"pitch": 72, "velocity": 56, "note_on_time": 98.503, "note_off_time": 99.133}, {"pitch": 76, "velocity": 54, "note_on_time": 99.796, "note_off_time": 100.004}, {"pitch": 77, "velocity": 48, "note_on_time": 100.337, "note_off_time": 100.526}, {"pitch": 79, "velocity": 42, "note_on_time": 100.934, "note_off_time": 101.153}, {"pitch": 74, "velocity": 46, "note_on_time": 101.48, "note_off_time": 101.69}, {"pitch": 72, "velocity": 62, "note_on_time": 102.132, "note_off_time": 102.608}, {"pitch": 76, "velocity": 58, "note_on_time": 103.436, "note_off_time": 103.659}, {"pitch": 77, "velocity": 54, "note_on_time": 104.034, "note_off_time": 104.242}, {"pitch": 79, "velocity": 55, "note_on_time": 104.598, "note_off_time": 104.822}, {"pitch": 74, "velocity": 52, "note_on_time": 105.157, "note_off_time": 105.361}, {"pitch": 72, "velocity": 62, "note_on_time": 105.797, "note_off_time": 106.408}, {"pitch": 76, "velocity": 59, "note_on_time": 107.11, "note_off_time": 107.358}, {"pitch": 77, "velocity": 57, "note_on_time": 107.697, "note_off_time": 107.913}, {"pitch": 79, "velocity": 52, "note_on_time": 108.261, "note_off_time": 108.473}, {"pitch": 74, "velocity": 58, "note_on_time": 108.857, "note_off_time": 109.06}, {"pitch": 72, "velocity": 53, "note_on_time": 109.452, "note_off_time": 110.251}, {"pitch": 76, "velocity": 54, "note_on_time": 113.159, "note_off_time": 113.387}, {"pitch": 74, "velocity": 56, "note_on_time": 113.818, "note_off_time": 114.004}, {"pitch": 72, "velocity": 50, "note_on_time": 114.282, "note_off_time": 114.508}, {"pitch": 77, "velocity": 51, "note_on_time": 114.877, "note_off_time": 115.055}, {"pitch": 79, "velocity": 62, "note_on_time": 115.444, "note_off_time": 116.056}, {"pitch": 76, "velocity": 52, "note_on_time": 116.808, "note_off_time": 117.014}, {"pitch": 74, "velocity": 42, "note_on_time": 117.354, "note_off_time": 117.578}, {"pitch": 72, "velocity": 61, "note_on_time": 117.949, "note_off_time": 118.176}, {"pitch": 77, "velocity": 60, "note_on_time": 118.522, "note_off_time": 118.73}, {"pitch": 79, "velocity": 63, "note_on_time": 119.072, "note_off_time": 119.725}, {"pitch": 76, "velocity": 57, "note_on_time": 120.389, "note_off_time": 120.672}, {"pitch": 74, "velocity": 60, "note_on_time": 120.939, "note_off_time": 121.167}, {"pitch": 72, "velocity": 61, "note_on_time": 121.499, "note_off_time": 121.753}, {"pitch": 77, "velocity": 53, "note_on_time": 122.102, "note_off_time": 122.365}, {"pitch": 79, "velocity": 63, "note_on_time": 122.67, "note_off_time": 123.354}, {"pitch": 76, "velocity": 52, "note_on_time": 124.125, "note_off_time": 124.341}, {"pitch": 74, "velocity": 61, "note_on_time": 124.644, "note_off_time": 124.926}, {"pitch": 72, "velocity": 56, "note_on_time": 125.211, "note_off_time": 125.442}, {"pitch": 77, "velocity": 57, "note_on_time": 125.808, "note_off_time": 126.04}, {"pitch": 79, "velocity": 57, "note_on_time": 126.389, "note_off_time": 127.092}, {"pitch": 76, "velocity": 54, "note_on_time": 127.714, "note_off_time": 127.953}, {"pitch": 74, "velocity": 55, "note_on_time": 128.284, "note_off_time": 128.494}, {"pitch": 72, "velocity": 63, "note_on_time": 128.849, "note_off_time": 129.074}, {"pitch": 77, "velocity": 54, "note_on_time": 129.399, "note_off_time": 129.623}, {"pitch": 79, "velocity": 64, "note_on_time": 130.193, "note_off_time": 130.986}, {"pitch": 77, "velocity": 62, "note_on_time": 135.06, "note_off_time": 135.297}, {"pitch": 79, "velocity": 56, "note_on_time": 135.642, "note_off_time": 135.889}, {"pitch": 76, "velocity": 52, "note_on_time": 136.201, "note_off_time": 136.404}, {"pitch": 74, "velocity": 47, "note_on_time": 136.718, "note_off_time": 136.92}, {"pitch": 72, "velocity": 54, "note_on_time": 137.361, "note_off_time": 138.113}, {"pitch": 77, "velocity": 54, "note_on_time": 138.663, "note_off_time": 138.918}, {"pitch": 79, "velocity": 58, "note_on_time": 139.239, "note_off_time": 139.47}, {"pitch": 76, "velocity": 50, "note_on_time": 139.817, "note_off_time": 140.047}, {"pitch": 74, "velocity": 54, "note_on_time": 140.419, "note_off_time": 140.619}, {"pitch": 72, "velocity": 60, "note_on_time": 141.031, "note_off_time": 141.742}, {"pitch": 77, "velocity": 59, "note_on_time": 142.265, "note_off_time": 142.534}, {"pitch": 79, "velocity": 52, "note_on_time": 142.854, "note_off_time": 143.081}, {"pitch": 76, "velocity": 44, "note_on_time": 143.464, "note_off_time": 143.667}, {"pitch": 74, "velocity": 38, "note_on_time": 144.037, "note_off_time": 144.248}, {"pitch": 72, "velocity": 61, "note_on_time": 144.682, "note_off_time": 145.443}, {"pitch": 77, "velocity": 61, "note_on_time": 145.934, "note_off_time": 146.178}, {"pitch": 79, "velocity": 53, "note_on_time": 146.503, "note_off_time": 146.73}, {"pitch": 77, "velocity": 48, "note_on_time": 147.118, "note_off_time": 147.279}, {"pitch": 77, "velocity": 67, "note_on_time": 148.711, "note_off_time": 148.97}, {"pitch": 79, "velocity": 56, "note_on_time": 149.267, "note_off_time": 149.51}, {"pitch": 76, "velocity": 56, "note_on_time": 150.261, "note_off_time": 150.512}, {"pitch": 74, "velocity": 49, "note_on_time": 150.78, "note_off_time": 150.968}, {"pitch": 72, "velocity": 56, "note_on_time": 151.311, "note_off_time": 152.209}, {"pitch": 74, "velocity": 57, "note_on_time": 154.487, "note_off_time": 154.736}, {"pitch": 72, "velocity": 47, "note_on_time": 155.054, "note_off_time": 155.298}, {"pitch": 76, "velocity": 52, "note_on_time": 155.641, "note_off_time": 155.864}, {"pitch": 77, "velocity": 54, "note_on_time": 156.223, "note_off_time": 156.421}, {"pitch": 79, "velocity": 61, "note_on_time": 156.84, "note_off_time": 157.608}, {"pitch": 74, "velocity": 52, "note_on_time": 158.233, "note_off_time": 158.473}, {"pitch": 72, "velocity": 49, "note_on_time": 158.712, "note_off_time": 158.97}, {"pitch": 76, "velocity": 36, "note_on_time": 159.27, "note_off_time": 159.503}, {"pitch": 77, "velocity": 59, "note_on_time": 159.856, "note_off_time": 160.082}, {"pitch": 79, "velocity": 46, "note_on_time": 160.493, "note_off_time": 161.137}, {"pitch": 74, "velocity": 64, "note_on_time": 161.716, "note_off_time": 161.958}, {"pitch": 72, "velocity": 57, "note_on_time": 162.261, "note_off_time": 162.497}, {"pitch": 76, "velocity": 57, "note_on_time": 162.888, "note_off_time": 163.14}, {"pitch": 77, "velocity": 48, "note_on_time": 163.44, "note_off_time": 163.674}, {"pitch": 79, "velocity": 48, "note_on_time": 163.985, "note_off_time": 164.637}, {"pitch": 74, "velocity": 55, "note_on_time": 165.346, "note_off_time": 165.567}, {"pitch": 72, "velocity": 66, "note_on_time": 165.9, "note_off_time": 166.142}, {"pitch": 76, "velocity": 53, "note_on_time": 166.468, "note_off_time": 166.697}, {"pitch": 77, "velocity": 48, "note_on_time": 167.035, "note_off_time": 167.27}, {"pitch": 79, "velocity": 64, "note_on_time": 167.619, "note_off_time": 168.715}, {"pitch": 72, "velocity": 58, "note_on_time": 176.394, "note_off_time": 176.694}, {"pitch": 74, "velocity": 58, "note_on_time": 176.941, "note_off_time": 177.207}, {"pitch": 76, "velocity": 52, "note_on_time": 177.484, "note_off_time": 177.791}, {"pitch": 77, "velocity": 58, "note_on_time": 178.083, "note_off_time": 178.356}, {"pitch": 79, "velocity": 44, "note_on_time": 178.717, "note_off_time": 179.461}, {"pitch": 72, "velocity": 56, "note_on_time": 179.995, "note_off_time": 180.326}, {"pitch": 72, "velocity": 68, "note_on_time": 184.484, "note_off_time": 184.713}, {"pitch": 74, "velocity": 52, "note_on_time": 184.99, "note_off_time": 185.189}, {"pitch": 76, "velocity": 60, "note_on_time": 185.469, "note_off_time": 185.677}, {"pitch": 77, "velocity": 54, "note_on_time": 185.963, "note_off_time": 186.181}, {"pitch": 79, "velocity": 18, "note_on_time": 186.537, "note_off_time": 186.876}, {"pitch": 72, "velocity": 61, "note_on_time": 188.481, "note_off_time": 188.755}, {"pitch": 74, "velocity": 57, "note_on_time": 189.085, "note_off_time": 189.32}, {"pitch": 76, "velocity": 47, "note_on_time": 189.616, "note_off_time": 189.866}, {"pitch": 77, "velocity": 61, "note_on_time": 190.24, "note_off_time": 190.456}, {"pitch": 79, "velocity": 53, "note_on_time": 190.842, "note_off_time": 191.458}, {"pitch": 72, "velocity": 63, "note_on_time": 192.147, "note_off_time": 192.46}, {"pitch": 74, "velocity": 56, "note_on_time": 192.722, "note_off_time": 192.973}, {"pitch": 76, "velocity": 33, "note_on_time": 193.324, "note_off_time": 193.578}, {"pitch": 77, "velocity": 51, "note_on_time": 193.957, "note_off_time": 194.176}]</notes><guidance name="Guidance Mode">None</guidance><error name="Error value">99</error></trial><trial trial_no="3" timestamp="2023_06_19-16_42_54"><notes name="Played Notes">[{"pitch": 72, "velocity": 61, "note_on_time": 2.501, "note_off_time": 2.809}, {"pitch": 74, "velocity": 43, "note_on_time": 3.04, "note_off_time": 3.336}, {"pitch": 76, "velocity": 52, "note_on_time": 3.621, "note_off_time": 3.862}, {"pitch": 77, "velocity": 52, "note_on_time": 4.229, "note_off_time": 4.449}, {"pitch": 79, "velocity": 61, "note_on_time": 4.855, "note_off_time": 5.467}, {"pitch": 72, "velocity": 63, "note_on_time": 6.137, "note_off_time": 6.413}, {"pitch": 74, "velocity": 59, "note_on_time": 6.683, "note_off_time": 6.972}, {"pitch": 76, "velocity": 50, "note_on_time": 7.249, "note_off_time": 7.519}, {"pitch": 77, "velocity": 46, "note_on_time": 7.904, "note_off_time": 8.155}, {"pitch": 79, "velocity": 54, "note_on_time": 8.499, "note_off_time": 9.036}, {"pitch": 72, "velocity": 65, "note_on_time": 9.765, "note_off_time": 10.034}, {"pitch": 74, "velocity": 52, "note_on_time": 10.331, "note_off_time": 10.615}, {"pitch": 76, "velocity": 51, "note_on_time": 10.921, "note_off_time": 11.169}, {"pitch": 77, "velocity": 55, "note_on_time": 11.501, "note_off_time": 11.728}, {"pitch": 79, "velocity": 50, "note_on_time": 12.078, "note_off_time": 12.74}, {"pitch": 72, "velocity": 51, "note_on_time": 13.4, "note_off_time": 13.697}, {"pitch": 74, "velocity": 55, "note_on_time": 13.98, "note_off_time": 14.24}, {"pitch": 76, "velocity": 41, "note_on_time": 14.556, "note_off_time": 14.791}, {"pitch": 77, "velocity": 59, "note_on_time": 15.168, "note_off_time": 15.39}, {"pitch": 79, "velocity": 64, "note_on_time": 15.847, "note_off_time": 16.43}, {"pitch": 79, "velocity": 51, "note_on_time": 17.075, "note_off_time": 17.373}, {"pitch": 77, "velocity": 46, "note_on_time": 17.67, "note_off_time": 17.917}, {"pitch": 76, "velocity": 54, "note_on_time": 18.247, "note_off_time": 18.5}, {"pitch": 74, "velocity": 60, "note_on_time": 18.822, "note_off_time": 19.04}, {"pitch": 72, "velocity": 66, "note_on_time": 19.432, "note_off_time": 20.113}, {"pitch": 79, "velocity": 58, "note_on_time": 20.694, "note_off_time": 20.936}, {"pitch": 77, "velocity": 54, "note_on_time": 21.275, "note_off_time": 21.596}, {"pitch": 76, "velocity": 51, "note_on_time": 21.866, "note_off_time": 22.092}, {"pitch": 74, "velocity": 56, "note_on_time": 22.39, "note_off_time": 22.586}, {"pitch": 72, "velocity": 60, "note_on_time": 22.987, "note_off_time": 23.677}, {"pitch": 77, "velocity": 22, "note_on_time": 24.548, "note_off_time": 24.627}, {"pitch": 79, "velocity": 18, "note_on_time": 24.437, "note_off_time": 24.792}, {"pitch": 77, "velocity": 27, "note_on_time": 25.276, "note_off_time": 25.383}, {"pitch": 79, "velocity": 77, "note_on_time": 25.909, "note_off_time": 26.32}, {"pitch": 79, "velocity": 73, "note_on_time": 26.846, "note_off_time": 27.117}, {"pitch": 77, "velocity": 61, "note_on_time": 27.363, "note_off_time": 27.598}, {"pitch": 76, "velocity": 57, "note_on_time": 27.941, "note_off_time": 28.161}, {"pitch": 74, "velocity": 53, "note_on_time": 28.48, "note_off_time": 28.71}, {"pitch": 72, "velocity": 63, "note_on_time": 29.162, "note_off_time": 29.818}, {"pitch": 79, "velocity": 62, "note_on_time": 30.509, "note_off_time": 30.777}, {"pitch": 77, "velocity": 59, "note_on_time": 31.084, "note_off_time": 31.317}, {"pitch": 76, "velocity": 49, "note_on_time": 31.647, "note_off_time": 31.855}, {"pitch": 74, "velocity": 59, "note_on_time": 32.22, "note_off_time": 32.447}, {"pitch": 72, "velocity": 63, "note_on_time": 32.845, "note_off_time": 33.501}, {"pitch": 74, "velocity": 60, "note_on_time": 34.155, "note_off_time": 34.442}, {"pitch": 76, "velocity": 56, "note_on_time": 34.699, "note_off_time": 34.951}, {"pitch": 77, "velocity": 57, "note_on_time": 35.271, "note_off_time": 35.506}, {"pitch": 79, "velocity": 62, "note_on_time": 35.879, "note_off_time": 36.118}, {"pitch": 72, "velocity": 59, "note_on_time": 36.465, "note_off_time": 37.257}, {"pitch": 74, "velocity": 62, "note_on_time": 37.776, "note_off_time": 38.033}, {"pitch": 76, "velocity": 52, "note_on_time": 38.342, "note_off_time": 38.58}, {"pitch": 77, "velocity": 58, "note_on_time": 38.916, "note_off_time": 39.14}, {"pitch": 79, "velocity": 57, "note_on_time": 39.505, "note_off_time": 39.748}, {"pitch": 72, "velocity": 59, "note_on_time": 40.093, "note_off_time": 40.785}, {"pitch": 74, "velocity": 67, "note_on_time": 41.432, "note_off_time": 41.674}, {"pitch": 76, "velocity": 54, "note_on_time": 41.978, "note_off_time": 42.199}, {"pitch": 77, "velocity": 62, "note_on_time": 42.535, "note_off_time": 42.763}, {"pitch": 79, "velocity": 59, "note_on_time": 43.129, "note_off_time": 43.391}, {"pitch": 72, "velocity": 64, "note_on_time": 43.772, "note_off_time": 44.621}, {"pitch": 74, "velocity": 57, "note_on_time": 45.039, "note_off_time": 45.288}, {"pitch": 76, "velocity": 36, "note_on_time": 45.665, "note_off_time": 45.862}, {"pitch": 77, "velocity": 50, "note_on_time": 46.189, "note_off_time": 46.421}, {"pitch": 79, "velocity": 59, "note_on_time": 46.793, "note_off_time": 47.071}, {"pitch": 72, "velocity": 58, "note_on_time": 47.398, "note_off_time": 48.062}, {"pitch": 77, "velocity": 49, "note_on_time": 48.818, "note_off_time": 49.069}, {"pitch": 76, "velocity": 58, "note_on_time": 49.309, "note_off_time": 49.558}, {"pitch": 74, "velocity": 56, "note_on_time": 49.852, "note_off_time": 50.075}, {"pitch": 72, "velocity": 47, "note_on_time": 50.398, "note_off_time": 50.655}, {"pitch": 79, "velocity": 62, "note_on_time": 50.994, "note_off_time": 51.785}, {"pitch": 77, "velocity": 60, "note_on_time": 52.346, "note_off_time": 52.581}, {"pitch": 76, "velocity": 52, "note_on_time": 52.883, "note_off_time": 53.178}, {"pitch": 74, "velocity": 48, "note_on_time": 53.491, "note_off_time": 53.759}, {"pitch": 72, "velocity": 61, "note_on_time": 54.114, "note_off_time": 54.366}, {"pitch": 79, "velocity": 59, "note_on_time": 54.666, "note_off_time": 55.356}, {"pitch": 77, "velocity": 60, "note_on_time": 55.895, "note_off_time": 56.301}, {"pitch": 76, "velocity": 56, "note_on_time": 56.534, "note_off_time": 56.829}, {"pitch": 74, "velocity": 52, "note_on_time": 57.131, "note_off_time": 57.371}, {"pitch": 72, "velocity": 56, "note_on_time": 57.727, "note_off_time": 57.953}, {"pitch": 79, "velocity": 61, "note_on_time": 58.317, "note_off_time": 58.982}, {"pitch": 77, "velocity": 51, "note_on_time": 59.601, "note_off_time": 59.833}, {"pitch": 76, "velocity": 53, "note_on_time": 60.165, "note_off_time": 60.4}, {"pitch": 74, "velocity": 46, "note_on_time": 60.727, "note_off_time": 60.976}, {"pitch": 72, "velocity": 62, "note_on_time": 61.338, "note_off_time": 61.57}, {"pitch": 79, "velocity": 58, "note_on_time": 61.895, "note_off_time": 62.482}, {"pitch": 76, "velocity": 61, "note_on_time": 63.338, "note_off_time": 63.614}, {"pitch": 77, "velocity": 37, "note_on_time": 63.856, "note_off_time": 64.124}, {"pitch": 79, "velocity": 53, "note_on_time": 64.411, "note_off_time": 64.623}, {"pitch": 74, "velocity": 59, "note_on_time": 64.964, "note_off_time": 65.186}, {"pitch": 72, "velocity": 52, "note_on_time": 65.574, "note_off_time": 66.271}, {"pitch": 76, "velocity": 49, "note_on_time": 66.823, "note_off_time": 67.103}, {"pitch": 77, "velocity": 58, "note_on_time": 67.542, "note_off_time": 67.827}, {"pitch": 79, "velocity": 56, "note_on_time": 68.118, "note_off_time": 68.362}, {"pitch": 74, "velocity": 51, "note_on_time": 68.655, "note_off_time": 68.904}, {"pitch": 72, "velocity": 55, "note_on_time": 69.265, "note_off_time": 69.976}, {"pitch": 76, "velocity": 50, "note_on_time": 70.535, "note_off_time": 70.823}, {"pitch": 77, "velocity": 41, "note_on_time": 71.125, "note_off_time": 71.478}, {"pitch": 79, "velocity": 51, "note_on_time": 71.753, "note_off_time": 72.039}, {"pitch": 74, "velocity": 40, "note_on_time": 72.292, "note_off_time": 72.664}, {"pitch": 72, "velocity": 60, "note_on_time": 72.977, "note_off_time": 73.574}, {"pitch": 76, "velocity": 58, "note_on_time": 74.229, "note_off_time": 74.461}, {"pitch": 77, "velocity": 58, "note_on_time": 74.805, "note_off_time": 75.027}, {"pitch": 79, "velocity": 49, "note_on_time": 75.352, "note_off_time": 75.692}, {"pitch": 74, "velocity": 55, "note_on_time": 75.954, "note_off_time": 76.288}, {"pitch": 72, "velocity": 53, "note_on_time": 76.62, "note_off_time": 77.393}, {"pitch": 76, "velocity": 56, "note_on_time": 77.858, "note_off_time": 78.134}, {"pitch": 74, "velocity": 46, "note_on_time": 78.435, "note_off_time": 78.682}, {"pitch": 72, "velocity": 52, "note_on_time": 79.036, "note_off_time": 79.275}, {"pitch": 77, "velocity": 59, "note_on_time": 79.599, "note_off_time": 79.855}, {"pitch": 79, "velocity": 54, "note_on_time": 80.194, "note_off_time": 80.878}, {"pitch": 76, "velocity": 58, "note_on_time": 81.473, "note_off_time": 81.724}, {"pitch": 74, "velocity": 50, "note_on_time": 82.045, "note_off_time": 82.294}, {"pitch": 72, "velocity": 54, "note_on_time": 82.609, "note_off_time": 82.875}, {"pitch": 77, "velocity": 53, "note_on_time": 83.243, "note_off_time": 83.463}, {"pitch": 79, "velocity": 64, "note_on_time": 83.812, "note_off_time": 84.502}, {"pitch": 76, "velocity": 52, "note_on_time": 85.02, "note_off_time": 85.227}, {"pitch": 74, "velocity": 46, "note_on_time": 85.703, "note_off_time": 85.908}, {"pitch": 72, "velocity": 42, "note_on_time": 86.304, "note_off_time": 86.541}, {"pitch": 77, "velocity": 51, "note_on_time": 86.874, "note_off_time": 87.116}, {"pitch": 79, "velocity": 56, "note_on_time": 87.542, "note_off_time": 88.275}, {"pitch": 76, "velocity": 55, "note_on_time": 88.823, "note_off_time": 89.057}, {"pitch": 74, "velocity": 48, "note_on_time": 89.389, "note_off_time": 89.651}, {"pitch": 72, "velocity": 51, "note_on_time": 89.956, "note_off_time": 90.263}, {"pitch": 77, "velocity": 52, "note_on_time": 90.56, "note_off_time": 90.77}, {"pitch": 79, "velocity": 53, "note_on_time": 91.118, "note_off_time": 91.763}, {"pitch": 77, "velocity": 51, "note_on_time": 92.36, "note_off_time": 92.672}, {"pitch": 79, "velocity": 46, "note_on_time": 93.084, "note_off_time": 93.316}, {"pitch": 76, "velocity": 1, "note_on_time": 93.771, "note_off_time": 94.044}, {"pitch": 74, "velocity": 46, "note_on_time": 94.28, "note_off_time": 94.511}, {"pitch": 72, "velocity": 44, "note_on_time": 94.827, "note_off_time": 95.441}, {"pitch": 77, "velocity": 52, "note_on_time": 96.073, "note_off_time": 96.316}, {"pitch": 79, "velocity": 46, "note_on_time": 96.714, "note_off_time": 96.958}, {"pitch": 76, "velocity": 39, "note_on_time": 97.315, "note_off_time": 97.536}, {"pitch": 74, "velocity": 51, "note_on_time": 97.872, "note_off_time": 98.106}, {"pitch": 72, "velocity": 57, "note_on_time": 98.469, "note_off_time": 99.201}, {"pitch": 77, "velocity": 57, "note_on_time": 99.675, "note_off_time": 99.927}, {"pitch": 79, "velocity": 46, "note_on_time": 100.275, "note_off_time": 100.51}, {"pitch": 76, "velocity": 49, "note_on_time": 100.843, "note_off_time": 101.059}, {"pitch": 74, "velocity": 51, "note_on_time": 101.438, "note_off_time": 101.656}, {"pitch": 72, "velocity": 48, "note_on_time": 102.098, "note_off_time": 102.852}, {"pitch": 77, "velocity": 42, "note_on_time": 103.35, "note_off_time": 103.6}, {"pitch": 79, "velocity": 53, "note_on_time": 103.914, "note_off_time": 104.16}, {"pitch": 76, "velocity": 50, "note_on_time": 104.504, "note_off_time": 104.749}, {"pitch": 74, "velocity": 51, "note_on_time": 105.122, "note_off_time": 105.333}, {"pitch": 72, "velocity": 55, "note_on_time": 105.719, "note_off_time": 106.426}, {"pitch": 74, "velocity": 59, "note_on_time": 107.045, "note_off_time": 107.302}, {"pitch": 72, "velocity": 48, "note_on_time": 107.643, "note_off_time": 107.933}, {"pitch": 76, "velocity": 44, "note_on_time": 108.199, "note_off_time": 108.447}, {"pitch": 77, "velocity": 51, "note_on_time": 108.759, "note_off_time": 109.001}, {"pitch": 79, "velocity": 52, "note_on_time": 109.387, "note_off_time": 109.926}, {"pitch": 74, "velocity": 56, "note_on_time": 110.678, "note_off_time": 110.898}, {"pitch": 72, "velocity": 48, "note_on_time": 111.211, "note_off_time": 111.463}, {"pitch": 76, "velocity": 32, "note_on_time": 111.791, "note_off_time": 112.049}, {"pitch": 77, "velocity": 50, "note_on_time": 112.416, "note_off_time": 112.655}, {"pitch": 79, "velocity": 51, "note_on_time": 113.014, "note_off_time": 113.622}, {"pitch": 74, "velocity": 61, "note_on_time": 114.255, "note_off_time": 114.484}, {"pitch": 72, "velocity": 53, "note_on_time": 114.861, "note_off_time": 115.083}, {"pitch": 76, "velocity": 55, "note_on_time": 115.453, "note_off_time": 115.678}, {"pitch": 77, "velocity": 53, "note_on_time": 116.075, "note_off_time": 116.307}, {"pitch": 79, "velocity": 49, "note_on_time": 116.685, "note_off_time": 117.422}, {"pitch": 74, "velocity": 54, "note_on_time": 117.983, "note_off_time": 118.204}, {"pitch": 72, "velocity": 57, "note_on_time": 118.494, "note_off_time": 118.736}, {"pitch": 76, "velocity": 45, "note_on_time": 119.115, "note_off_time": 119.355}, {"pitch": 77, "velocity": 47, "note_on_time": 119.711, "note_off_time": 119.959}, {"pitch": 79, "velocity": 56, "note_on_time": 120.336, "note_off_time": 120.88}, {"pitch": 72, "velocity": 59, "note_on_time": 121.581, "note_off_time": 121.833}, {"pitch": 74, "velocity": 49, "note_on_time": 122.182, "note_off_time": 122.502}, {"pitch": 76, "velocity": 40, "note_on_time": 122.816, "note_off_time": 123.061}, {"pitch": 77, "velocity": 47, "note_on_time": 123.371, "note_off_time": 123.586}, {"pitch": 79, "velocity": 47, "note_on_time": 123.966, "note_off_time": 124.471}, {"pitch": 72, "velocity": 53, "note_on_time": 125.259, "note_off_time": 125.505}, {"pitch": 74, "velocity": 39, "note_on_time": 125.901, "note_off_time": 126.135}, {"pitch": 76, "velocity": 28, "note_on_time": 126.478, "note_off_time": 126.712}, {"pitch": 77, "velocity": 54, "note_on_time": 127.051, "note_off_time": 127.27}, {"pitch": 79, "velocity": 39, "note_on_time": 127.616, "note_off_time": 128.209}, {"pitch": 72, "velocity": 55, "note_on_time": 128.806, "note_off_time": 129.102}, {"pitch": 74, "velocity": 45, "note_on_time": 129.514, "note_off_time": 129.733}, {"pitch": 76, "velocity": 44, "note_on_time": 130.077, "note_off_time": 130.309}, {"pitch": 77, "velocity": 46, "note_on_time": 130.655, "note_off_time": 130.854}, {"pitch": 79, "velocity": 44, "note_on_time": 131.255, "note_off_time": 131.814}, {"pitch": 72, "velocity": 55, "note_on_time": 132.522, "note_off_time": 132.802}, {"pitch": 74, "velocity": 52, "note_on_time": 133.111, "note_off_time": 133.463}, {"pitch": 76, "velocity": 36, "note_on_time": 133.667, "note_off_time": 133.992}, {"pitch": 77, "velocity": 46, "note_on_time": 134.334, "note_off_time": 134.612}, {"pitch": 79, "velocity": 45, "note_on_time": 134.968, "note_off_time": 135.673}, {"pitch": 79, "velocity": 49, "note_on_time": 136.181, "note_off_time": 136.447}, {"pitch": 77, "velocity": 51, "note_on_time": 136.732, "note_off_time": 137.015}, {"pitch": 76, "velocity": 36, "note_on_time": 137.361, "note_off_time": 137.624}, {"pitch": 74, "velocity": 48, "note_on_time": 137.941, "note_off_time": 138.159}, {"pitch": 72, "velocity": 54, "note_on_time": 138.575, "note_off_time": 139.463}, {"pitch": 79, "velocity": 52, "note_on_time": 139.819, "note_off_time": 140.092}, {"pitch": 77, "velocity": 47, "note_on_time": 140.422, "note_off_time": 140.747}, {"pitch": 76, "velocity": 41, "note_on_time": 141.027, "note_off_time": 141.289}, {"pitch": 74, "velocity": 46, "note_on_time": 141.614, "note_off_time": 141.848}, {"pitch": 72, "velocity": 45, "note_on_time": 142.228, "note_off_time": 143.138}, {"pitch": 79, "velocity": 44, "note_on_time": 143.472, "note_off_time": 143.768}, {"pitch": 77, "velocity": 49, "note_on_time": 144.062, "note_off_time": 144.331}, {"pitch": 76, "velocity": 45, "note_on_time": 144.662, "note_off_time": 144.928}, {"pitch": 74, "velocity": 39, "note_on_time": 145.269, "note_off_time": 145.486}, {"pitch": 72, "velocity": 50, "note_on_time": 145.877, "note_off_time": 146.518}, {"pitch": 79, "velocity": 35, "note_on_time": 147.105, "note_off_time": 147.41}, {"pitch": 77, "velocity": 35, "note_on_time": 147.712, "note_off_time": 147.972}, {"pitch": 76, "velocity": 48, "note_on_time": 148.285, "note_off_time": 148.544}, {"pitch": 74, "velocity": 45, "note_on_time": 148.924, "note_off_time": 149.162}, {"pitch": 72, "velocity": 46, "note_on_time": 149.506, "note_off_time": 150.196}, {"pitch": 74, "velocity": 49, "note_on_time": 150.83, "note_off_time": 151.143}, {"pitch": 76, "velocity": 44, "note_on_time": 151.395, "note_off_time": 151.654}, {"pitch": 77, "velocity": 48, "note_on_time": 151.977, "note_off_time": 152.241}, {"pitch": 79, "velocity": 47, "note_on_time": 152.57, "note_off_time": 152.852}, {"pitch": 72, "velocity": 50, "note_on_time": 153.186, "note_off_time": 153.917}, {"pitch": 74, "velocity": 50, "note_on_time": 154.484, "note_off_time": 154.737}, {"pitch": 76, "velocity": 23, "note_on_time": 155.08, "note_off_time": 155.332}, {"pitch": 77, "velocity": 42, "note_on_time": 155.647, "note_off_time": 155.902}, {"pitch": 79, "velocity": 34, "note_on_time": 156.217, "note_off_time": 156.479}, {"pitch": 72, "velocity": 48, "note_on_time": 156.806, "note_off_time": 157.552}, {"pitch": 74, "velocity": 52, "note_on_time": 158.061, "note_off_time": 158.292}, {"pitch": 76, "velocity": 40, "note_on_time": 158.625, "note_off_time": 158.879}, {"pitch": 77, "velocity": 48, "note_on_time": 159.22, "note_off_time": 159.573}, {"pitch": 79, "velocity": 40, "note_on_time": 159.793, "note_off_time": 160.055}, {"pitch": 72, "velocity": 50, "note_on_time": 160.427, "note_off_time": 161.111}, {"pitch": 74, "velocity": 56, "note_on_time": 161.735, "note_off_time": 161.996}, {"pitch": 76, "velocity": 47, "note_on_time": 162.302, "note_off_time": 162.558}, {"pitch": 77, "velocity": 58, "note_on_time": 162.856, "note_off_time": 163.127}, {"pitch": 79, "velocity": 50, "note_on_time": 163.447, "note_off_time": 163.76}, {"pitch": 72, "velocity": 47, "note_on_time": 164.1, "note_off_time": 164.811}, {"pitch": 77, "velocity": 52, "note_on_time": 165.373, "note_off_time": 165.667}, {"pitch": 76, "velocity": 50, "note_on_time": 165.949, "note_off_time": 166.204}, {"pitch": 74, "velocity": 53, "note_on_time": 166.552, "note_off_time": 166.799}, {"pitch": 72, "velocity": 54, "note_on_time": 167.097, "note_off_time": 167.411}, {"pitch": 79, "velocity": 60, "note_on_time": 167.723, "note_off_time": 168.351}, {"pitch": 77, "velocity": 34, "note_on_time": 169.038, "note_off_time": 169.302}, {"pitch": 76, "velocity": 58, "note_on_time": 169.593, "note_off_time": 169.894}, {"pitch": 74, "velocity": 50, "note_on_time": 170.214, "note_off_time": 170.45}, {"pitch": 72, "velocity": 52, "note_on_time": 170.778, "note_off_time": 171.008}, {"pitch": 79, "velocity": 51, "note_on_time": 171.357, "note_off_time": 171.925}, {"pitch": 77, "velocity": 51, "note_on_time": 172.507, "note_off_time": 172.736}, {"pitch": 76, "velocity": 37, "note_on_time": 173.333, "note_off_time": 173.56}, {"pitch": 74, "velocity": 51, "note_on_time": 173.89, "note_off_time": 174.081}, {"pitch": 72, "velocity": 47, "note_on_time": 174.444, "note_off_time": 174.657}, {"pitch": 79, "velocity": 58, "note_on_time": 174.959, "note_off_time": 175.513}, {"pitch": 77, "velocity": 47, "note_on_time": 176.282, "note_off_time": 176.55}, {"pitch": 76, "velocity": 51, "note_on_time": 176.858, "note_off_time": 177.083}, {"pitch": 74, "velocity": 52, "note_on_time": 177.43, "note_off_time": 177.64}, {"pitch": 72, "velocity": 44, "note_on_time": 178.004, "note_off_time": 178.243}, {"pitch": 79, "velocity": 48, "note_on_time": 178.578, "note_off_time": 179.098}, {"pitch": 76, "velocity": 41, "note_on_time": 179.897, "note_off_time": 180.187}, {"pitch": 77, "velocity": 29, "note_on_time": 180.48, "note_off_time": 180.765}, {"pitch": 79, "velocity": 55, "note_on_time": 181.103, "note_off_time": 181.333}, {"pitch": 74, "velocity": 46, "note_on_time": 181.671, "note_off_time": 181.868}, {"pitch": 72, "velocity": 38, "note_on_time": 182.313, "note_off_time": 182.867}, {"pitch": 76, "velocity": 48, "note_on_time": 183.55, "note_off_time": 183.801}, {"pitch": 77, "velocity": 50, "note_on_time": 184.127, "note_off_time": 184.366}, {"pitch": 79, "velocity": 47, "note_on_time": 184.726, "note_off_time": 184.97}, {"pitch": 74, "velocity": 48, "note_on_time": 185.275, "note_off_time": 185.497}, {"pitch": 72, "velocity": 46, "note_on_time": 185.997, "note_off_time": 186.704}, {"pitch": 76, "velocity": 49, "note_on_time": 187.288, "note_off_time": 187.52}, {"pitch": 77, "velocity": 43, "note_on_time": 187.868, "note_off_time": 188.113}, {"pitch": 79, "velocity": 43, "note_on_time": 188.441, "note_off_time": 188.694}, {"pitch": 74, "velocity": 51, "note_on_time": 189.007, "note_off_time": 189.241}, {"pitch": 72, "velocity": 54, "note_on_time": 189.674, "note_off_time": 190.421}, {"pitch": 76, "velocity": 52, "note_on_time": 190.924, "note_off_time": 191.182}, {"pitch": 77, "velocity": 49, "note_on_time": 191.512, "note_off_time": 191.778}, {"pitch": 79, "velocity": 37, "note_on_time": 192.11, "note_off_time": 192.412}, {"pitch": 74, "velocity": 45, "note_on_time": 192.714, "note_off_time": 192.99}, {"pitch": 72, "velocity": 40, "note_on_time": 193.313, "note_off_time": 193.88}]</notes><guidance name="Guidance Mode">None</guidance><error name="Error value">99</error></trial></trials></MIDI>