<MIDI midiNo="2023_06_19-16_04_10"><target_notes><notes name="Note List">[{"pitch": 60, "velocity": 40, "note_on_time": 0.011, "note_off_time": 1.017}, {"pitch": 64, "velocity": 40, "note_on_time": 0.011, "note_off_time": 1.018}, {"pitch": 67, "velocity": 40, "note_on_time": 0.011, "note_off_time": 1.018}, {"pitch": 48, "velocity": 40, "note_on_time": 0.011, "note_off_time": 1.019}, {"pitch": 52, "velocity": 40, "note_on_time": 1.019, "note_off_time": 2.026}, {"pitch": 55, "velocity": 40, "note_on_time": 1.019, "note_off_time": 2.027}, {"pitch": 76, "velocity": 40, "note_on_time": 2.026, "note_off_time": 3.041}, {"pitch": 48, "velocity": 40, "note_on_time": 2.028, "note_off_time": 3.041}, {"pitch": 52, "velocity": 40, "note_on_time": 3.041, "note_off_time": 4.046}, {"pitch": 55, "velocity": 40, "note_on_time": 3.041, "note_off_time": 4.046}, {"pitch": 48, "velocity": 40, "note_on_time": 4.046, "note_off_time": 5.06}, {"pitch": 52, "velocity": 40, "note_on_time": 5.06, "note_off_time": 6.069}, {"pitch": 55, "velocity": 40, "note_on_time": 5.06, "note_off_time": 6.069}, {"pitch": 48, "velocity": 40, "note_on_time": 6.069, "note_off_time": 7.079}, {"pitch": 52, "velocity": 40, "note_on_time": 7.079, "note_off_time": 8.089}, {"pitch": 55, "velocity": 40, "note_on_time": 7.079, "note_off_time": 8.089}, {"pitch": 60, "velocity": 40, "note_on_time": 8.087, "note_off_time": 9.1}, {"pitch": 64, "velocity": 40, "note_on_time": 8.088, "note_off_time": 9.1}, {"pitch": 67, "velocity": 40, "note_on_time": 8.088, "note_off_time": 9.101}, {"pitch": 48, "velocity": 40, "note_on_time": 8.089, "note_off_time": 9.101}, {"pitch": 52, "velocity": 40, "note_on_time": 9.101, "note_off_time": 10.116}, {"pitch": 55, "velocity": 40, "note_on_time": 9.102, "note_off_time": 10.117}, {"pitch": 74, "velocity": 40, "note_on_time": 10.116, "note_off_time": 11.13}, {"pitch": 48, "velocity": 40, "note_on_time": 10.117, "note_off_time": 11.13}, {"pitch": 52, "velocity": 40, "note_on_time": 11.131, "note_off_time": 12.138}, {"pitch": 55, "velocity": 40, "note_on_time": 11.131, "note_off_time": 12.138}, {"pitch": 48, "velocity": 40, "note_on_time": 12.138, "note_off_time": 13.146}, {"pitch": 52, "velocity": 40, "note_on_time": 13.146, "note_off_time": 14.155}, {"pitch": 55, "velocity": 40, "note_on_time": 13.146, "note_off_time": 14.155}, {"pitch": 48, "velocity": 40, "note_on_time": 14.155, "note_off_time": 15.166}, {"pitch": 52, "velocity": 40, "note_on_time": 15.166, "note_off_time": 16.177}, {"pitch": 55, "velocity": 40, "note_on_time": 15.166, "note_off_time": 16.177}, {"pitch": 60, "velocity": 40, "note_on_time": 16.175, "note_off_time": 17.18}, {"pitch": 64, "velocity": 40, "note_on_time": 16.176, "note_off_time": 17.181}, {"pitch": 67, "velocity": 40, "note_on_time": 16.176, "note_off_time": 17.182}, {"pitch": 48, "velocity": 40, "note_on_time": 16.177, "note_off_time": 17.182}, {"pitch": 52, "velocity": 40, "note_on_time": 17.182, "note_off_time": 18.192}, {"pitch": 55, "velocity": 40, "note_on_time": 17.182, "note_off_time": 18.192}, {"pitch": 76, "velocity": 40, "note_on_time": 18.191, "note_off_time": 19.204}, {"pitch": 48, "velocity": 40, "note_on_time": 18.192, "note_off_time": 19.204}, {"pitch": 52, "velocity": 40, "note_on_time": 19.205, "note_off_time": 20.219}, {"pitch": 55, "velocity": 40, "note_on_time": 19.205, "note_off_time": 20.219}, {"pitch": 48, "velocity": 40, "note_on_time": 20.219, "note_off_time": 21.23}, {"pitch": 52, "velocity": 40, "note_on_time": 21.23, "note_off_time": 22.239}, {"pitch": 55, "velocity": 40, "note_on_time": 21.23, "note_off_time": 22.239}, {"pitch": 48, "velocity": 40, "note_on_time": 22.239, "note_off_time": 23.251}, {"pitch": 52, "velocity": 40, "note_on_time": 23.251, "note_off_time": 24.265}, {"pitch": 55, "velocity": 40, "note_on_time": 23.251, "note_off_time": 24.265}, {"pitch": 60, "velocity": 40, "note_on_time": 24.264, "note_off_time": 25.273}, {"pitch": 64, "velocity": 40, "note_on_time": 24.265, "note_off_time": 25.274}, {"pitch": 67, "velocity": 40, "note_on_time": 24.265, "note_off_time": 25.274}, {"pitch": 48, "velocity": 40, "note_on_time": 24.265, "note_off_time": 25.274}, {"pitch": 52, "velocity": 40, "note_on_time": 25.274, "note_off_time": 26.289}, {"pitch": 55, "velocity": 40, "note_on_time": 25.274, "note_off_time": 26.289}, {"pitch": 79, "velocity": 40, "note_on_time": 26.289, "note_off_time": 27.303}, {"pitch": 48, "velocity": 40, "note_on_time": 26.289, "note_off_time": 27.303}, {"pitch": 52, "velocity": 40, "note_on_time": 27.304, "note_off_time": 28.315}, {"pitch": 55, "velocity": 40, "note_on_time": 27.304, "note_off_time": 28.315}, {"pitch": 48, "velocity": 40, "note_on_time": 28.315, "note_off_time": 29.33}, {"pitch": 52, "velocity": 40, "note_on_time": 29.33, "note_off_time": 30.343}, {"pitch": 55, "velocity": 40, "note_on_time": 29.33, "note_off_time": 30.343}, {"pitch": 48, "velocity": 40, "note_on_time": 30.343, "note_off_time": 31.352}, {"pitch": 52, "velocity": 40, "note_on_time": 31.352, "note_off_time": 32.361}, {"pitch": 55, "velocity": 40, "note_on_time": 31.352, "note_off_time": 32.361}, {"pitch": 60, "velocity": 40, "note_on_time": 32.36, "note_off_time": 33.373}, {"pitch": 64, "velocity": 40, "note_on_time": 32.361, "note_off_time": 33.373}, {"pitch": 67, "velocity": 40, "note_on_time": 32.361, "note_off_time": 33.373}, {"pitch": 48, "velocity": 40, "note_on_time": 32.361, "note_off_time": 33.373}, {"pitch": 52, "velocity": 40, "note_on_time": 33.373, "note_off_time": 34.381}, {"pitch": 55, "velocity": 40, "note_on_time": 33.373, "note_off_time": 34.381}, {"pitch": 72, "velocity": 40, "note_on_time": 34.381, "note_off_time": 35.389}, {"pitch": 48, "velocity": 40, "note_on_time": 34.381, "note_off_time": 35.389}, {"pitch": 52, "velocity": 40, "note_on_time": 35.389, "note_off_time": 36.398}, {"pitch": 55, "velocity": 40, "note_on_time": 35.389, "note_off_time": 36.398}, {"pitch": 48, "velocity": 40, "note_on_time": 36.398, "note_off_time": 37.4}, {"pitch": 52, "velocity": 40, "note_on_time": 37.4, "note_off_time": 38.403}, {"pitch": 55, "velocity": 40, "note_on_time": 37.4, "note_off_time": 38.403}, {"pitch": 48, "velocity": 40, "note_on_time": 38.403, "note_off_time": 39.411}, {"pitch": 52, "velocity": 40, "note_on_time": 39.411, "note_off_time": 40.415}, {"pitch": 55, "velocity": 40, "note_on_time": 39.411, "note_off_time": 40.415}, {"pitch": 60, "velocity": 40, "note_on_time": 40.414, "note_off_time": 41.429}, {"pitch": 64, "velocity": 40, "note_on_time": 40.415, "note_off_time": 41.43}, {"pitch": 67, "velocity": 40, "note_on_time": 40.415, "note_off_time": 41.431}, {"pitch": 74, "velocity": 40, "note_on_time": 42.442, "note_off_time": 43.457}, {"pitch": 60, "velocity": 40, "note_on_time": 48.462, "note_off_time": 49.471}, {"pitch": 64, "velocity": 40, "note_on_time": 48.463, "note_off_time": 49.471}, {"pitch": 67, "velocity": 40, "note_on_time": 48.463, "note_off_time": 49.472}, {"pitch": 79, "velocity": 40, "note_on_time": 50.482, "note_off_time": 51.497}, {"pitch": 60, "velocity": 40, "note_on_time": 56.512, "note_off_time": 57.516}, {"pitch": 64, "velocity": 40, "note_on_time": 56.514, "note_off_time": 57.517}, {"pitch": 67, "velocity": 40, "note_on_time": 56.514, "note_off_time": 57.518}, {"pitch": 74, "velocity": 40, "note_on_time": 58.525, "note_off_time": 59.527}, {"pitch": 60, "velocity": 40, "note_on_time": 64.542, "note_off_time": 65.55}, {"pitch": 64, "velocity": 40, "note_on_time": 64.544, "note_off_time": 65.551}, {"pitch": 67, "velocity": 40, "note_on_time": 64.544, "note_off_time": 65.552}, {"pitch": 72, "velocity": 40, "note_on_time": 66.557, "note_off_time": 67.572}, {"pitch": 60, "velocity": 40, "note_on_time": 72.589, "note_off_time": 73.599}, {"pitch": 64, "velocity": 40, "note_on_time": 72.59, "note_off_time": 73.6}, {"pitch": 67, "velocity": 40, "note_on_time": 72.591, "note_off_time": 73.601}, {"pitch": 77, "velocity": 40, "note_on_time": 74.605, "note_off_time": 75.618}, {"pitch": 60, "velocity": 40, "note_on_time": 80.632, "note_off_time": 81.648}, {"pitch": 64, "velocity": 40, "note_on_time": 80.633, "note_off_time": 81.65}, {"pitch": 67, "velocity": 40, "note_on_time": 80.633, "note_off_time": 81.65}, {"pitch": 72, "velocity": 40, "note_on_time": 82.653, "note_off_time": 83.668}, {"pitch": 60, "velocity": 40, "note_on_time": 88.671, "note_off_time": 89.676}, {"pitch": 64, "velocity": 40, "note_on_time": 88.672, "note_off_time": 89.677}, {"pitch": 67, "velocity": 40, "note_on_time": 88.672, "note_off_time": 89.678}, {"pitch": 77, "velocity": 40, "note_on_time": 90.681, "note_off_time": 91.697}, {"pitch": 60, "velocity": 40, "note_on_time": 96.701, "note_off_time": 97.71}, {"pitch": 64, "velocity": 40, "note_on_time": 96.702, "note_off_time": 97.711}, {"pitch": 67, "velocity": 40, "note_on_time": 96.702, "note_off_time": 97.712}, {"pitch": 76, "velocity": 40, "note_on_time": 98.717, "note_off_time": 99.719}, {"pitch": 60, "velocity": 40, "note_on_time": 104.725, "note_off_time": 105.737}, {"pitch": 64, "velocity": 40, "note_on_time": 104.726, "note_off_time": 105.738}, {"pitch": 67, "velocity": 40, "note_on_time": 104.726, "note_off_time": 105.739}, {"pitch": 79, "velocity": 40, "note_on_time": 106.746, "note_off_time": 107.747}, {"pitch": 60, "velocity": 40, "note_on_time": 112.751, "note_off_time": 113.764}, {"pitch": 64, "velocity": 40, "note_on_time": 112.751, "note_off_time": 113.765}, {"pitch": 67, "velocity": 40, "note_on_time": 112.752, "note_off_time": 113.766}, {"pitch": 74, "velocity": 40, "note_on_time": 114.778, "note_off_time": 115.791}, {"pitch": 60, "velocity": 40, "note_on_time": 120.804, "note_off_time": 121.817}, {"pitch": 64, "velocity": 40, "note_on_time": 120.804, "note_off_time": 121.818}, {"pitch": 67, "velocity": 40, "note_on_time": 120.805, "note_off_time": 121.819}, {"pitch": 77, "velocity": 40, "note_on_time": 122.834, "note_off_time": 123.843}, {"pitch": 60, "velocity": 40, "note_on_time": 128.852, "note_off_time": 129.865}, {"pitch": 64, "velocity": 40, "note_on_time": 128.854, "note_off_time": 129.866}, {"pitch": 67, "velocity": 40, "note_on_time": 128.854, "note_off_time": 129.867}, {"pitch": 76, "velocity": 40, "note_on_time": 130.87, "note_off_time": 131.872}, {"pitch": 60, "velocity": 40, "note_on_time": 136.878, "note_off_time": 137.882}, {"pitch": 64, "velocity": 40, "note_on_time": 136.879, "note_off_time": 137.883}, {"pitch": 67, "velocity": 40, "note_on_time": 136.879, "note_off_time": 137.884}, {"pitch": 79, "velocity": 40, "note_on_time": 138.896, "note_off_time": 139.91}, {"pitch": 60, "velocity": 40, "note_on_time": 144.921, "note_off_time": 145.93}, {"pitch": 64, "velocity": 40, "note_on_time": 144.922, "note_off_time": 145.931}, {"pitch": 67, "velocity": 40, "note_on_time": 144.923, "note_off_time": 145.932}, {"pitch": 77, "velocity": 40, "note_on_time": 146.938, "note_off_time": 147.941}, {"pitch": 60, "velocity": 40, "note_on_time": 152.943, "note_off_time": 153.95}, {"pitch": 64, "velocity": 40, "note_on_time": 152.943, "note_off_time": 153.951}, {"pitch": 67, "velocity": 40, "note_on_time": 152.944, "note_off_time": 153.952}, {"pitch": 72, "velocity": 40, "note_on_time": 154.956, "note_off_time": 155.961}, {"pitch": 60, "velocity": 40, "note_on_time": 160.971, "note_off_time": 161.983}, {"pitch": 64, "velocity": 40, "note_on_time": 160.972, "note_off_time": 161.984}, {"pitch": 67, "velocity": 40, "note_on_time": 160.973, "note_off_time": 161.985}, {"pitch": 76, "velocity": 40, "note_on_time": 162.996, "note_off_time": 164.0}]</notes><options name="Option List">((4, 4), [0.5, 0.25], 3, 8, &lt;NoteRangePerHand.TWO_NOTES: 3&gt;, &lt;NoteRangePerHand.ONE_NOTE: 2&gt;, False, True, True, 100)</options></target_notes><trials><trial trial_no="1" timestamp="2023_06_19-16_01_26"><notes name="Played Notes">[{"pitch": 76, "velocity": 28, "note_on_time": 4.901, "note_off_time": 5.325}, {"pitch": 74, "velocity": 74, "note_on_time": 11.631, "note_off_time": 11.835}, {"pitch": 76, "velocity": 65, "note_on_time": 23.017, "note_off_time": 23.286}, {"pitch": 77, "velocity": 50, "note_on_time": 30.16, "note_off_time": 30.414}, {"pitch": 72, "velocity": 67, "note_on_time": 35.69, "note_off_time": 35.904}, {"pitch": 74, "velocity": 60, "note_on_time": 46.019, "note_off_time": 46.252}, {"pitch": 76, "velocity": 51, "note_on_time": 55.894, "note_off_time": 56.219}, {"pitch": 74, "velocity": 50, "note_on_time": 61.647, "note_off_time": 61.851}, {"pitch": 74, "velocity": 65, "note_on_time": 69.833, "note_off_time": 70.085}, {"pitch": 77, "velocity": 50, "note_on_time": 78.565, "note_off_time": 78.908}, {"pitch": 74, "velocity": 53, "note_on_time": 85.628, "note_off_time": 85.903}, {"pitch": 76, "velocity": 44, "note_on_time": 87.99, "note_off_time": 88.199}, {"pitch": 74, "velocity": 60, "note_on_time": 93.845, "note_off_time": 94.068}, {"pitch": 76, "velocity": 55, "note_on_time": 102.88, "note_off_time": 103.187}, {"pitch": 77, "velocity": 39, "note_on_time": 109.731, "note_off_time": 110.029}, {"pitch": 74, "velocity": 62, "note_on_time": 117.859, "note_off_time": 118.122}, {"pitch": 74, "velocity": 16, "note_on_time": 127.283, "note_off_time": 127.743}, {"pitch": 74, "velocity": 70, "note_on_time": 140.737, "note_off_time": 140.959}, {"pitch": 72, "velocity": 68, "note_on_time": 148.521, "note_off_time": 148.733}, {"pitch": 79, "velocity": 41, "note_on_time": 151.813, "note_off_time": 152.153}, {"pitch": 72, "velocity": 50, "note_on_time": 156.653, "note_off_time": 156.874}]</notes><guidance name="Guidance Mode">None</guidance><error name="Error value">99</error></trial><trial trial_no="2" timestamp="2023_06_19-16_06_09"><notes name="Played Notes">[{"pitch": 72, "velocity": 46, "note_on_time": 1.379, "note_off_time": 1.756}, {"pitch": 74, "velocity": 39, "note_on_time": 1.603, "note_off_time": 1.88}, {"pitch": 76, "velocity": 47, "note_on_time": 1.73, "note_off_time": 2.151}, {"pitch": 77, "velocity": 42, "note_on_time": 2.014, "note_off_time": 2.322}, {"pitch": 79, "velocity": 29, "note_on_time": 2.416, "note_off_time": 2.617}, {"pitch": 72, "velocity": 23, "note_on_time": 2.892, "note_off_time": 3.084}, {"pitch": 74, "velocity": 42, "note_on_time": 3.115, "note_off_time": 3.346}, {"pitch": 76, "velocity": 35, "note_on_time": 3.32, "note_off_time": 3.542}, {"pitch": 77, "velocity": 46, "note_on_time": 3.538, "note_off_time": 3.78}, {"pitch": 79, "velocity": 40, "note_on_time": 3.787, "note_off_time": 4.02}, {"pitch": 72, "velocity": 33, "note_on_time": 4.258, "note_off_time": 4.379}, {"pitch": 74, "velocity": 38, "note_on_time": 4.388, "note_off_time": 4.6}, {"pitch": 76, "velocity": 54, "note_on_time": 4.615, "note_off_time": 4.848}, {"pitch": 77, "velocity": 50, "note_on_time": 4.842, "note_off_time": 5.074}, {"pitch": 79, "velocity": 47, "note_on_time": 5.079, "note_off_time": 5.281}, {"pitch": 72, "velocity": 49, "note_on_time": 5.717, "note_off_time": 5.957}, {"pitch": 73, "velocity": 52, "note_on_time": 5.907, "note_off_time": 6.179}, {"pitch": 74, "velocity": 44, "note_on_time": 6.188, "note_off_time": 6.383}, {"pitch": 75, "velocity": 1, "note_on_time": 6.453, "note_off_time": 6.785}, {"pitch": 72, "velocity": 41, "note_on_time": 7.331, "note_off_time": 7.49}, {"pitch": 73, "velocity": 61, "note_on_time": 7.452, "note_off_time": 7.785}, {"pitch": 72, "velocity": 27, "note_on_time": 9.766, "note_off_time": 10.169}, {"pitch": 74, "velocity": 25, "note_on_time": 10.075, "note_off_time": 10.275}, {"pitch": 76, "velocity": 57, "note_on_time": 10.295, "note_off_time": 10.69}, {"pitch": 77, "velocity": 56, "note_on_time": 10.594, "note_off_time": 11.1}, {"pitch": 79, "velocity": 54, "note_on_time": 10.855, "note_off_time": 11.185}, {"pitch": 72, "velocity": 30, "note_on_time": 12.932, "note_off_time": 13.266}, {"pitch": 74, "velocity": 44, "note_on_time": 13.221, "note_off_time": 13.445}, {"pitch": 76, "velocity": 59, "note_on_time": 13.449, "note_off_time": 13.747}, {"pitch": 77, "velocity": 52, "note_on_time": 13.723, "note_off_time": 13.967}, {"pitch": 79, "velocity": 51, "note_on_time": 13.982, "note_off_time": 14.227}, {"pitch": 72, "velocity": 39, "note_on_time": 15.732, "note_off_time": 15.919}, {"pitch": 74, "velocity": 36, "note_on_time": 15.958, "note_off_time": 16.107}, {"pitch": 76, "velocity": 32, "note_on_time": 16.131, "note_off_time": 16.363}, {"pitch": 74, "velocity": 35, "note_on_time": 16.505, "note_off_time": 16.846}, {"pitch": 72, "velocity": 1, "note_on_time": 17.008, "note_off_time": 17.176}, {"pitch": 72, "velocity": 35, "note_on_time": 17.974, "note_off_time": 18.239}, {"pitch": 74, "velocity": 55, "note_on_time": 18.178, "note_off_time": 18.302}, {"pitch": 76, "velocity": 76, "note_on_time": 18.311, "note_off_time": 18.665}, {"pitch": 77, "velocity": 49, "note_on_time": 18.559, "note_off_time": 18.806}, {"pitch": 79, "velocity": 52, "note_on_time": 18.814, "note_off_time": 19.072}, {"pitch": 72, "velocity": 24, "note_on_time": 19.483, "note_off_time": 19.726}, {"pitch": 74, "velocity": 42, "note_on_time": 19.707, "note_off_time": 19.839}, {"pitch": 76, "velocity": 73, "note_on_time": 19.843, "note_off_time": 20.194}, {"pitch": 77, "velocity": 55, "note_on_time": 20.079, "note_off_time": 20.351}, {"pitch": 79, "velocity": 1, "note_on_time": 20.44, "note_off_time": 20.669}, {"pitch": 72, "velocity": 44, "note_on_time": 21.061, "note_off_time": 21.25}, {"pitch": 74, "velocity": 55, "note_on_time": 21.267, "note_off_time": 21.453}, {"pitch": 76, "velocity": 66, "note_on_time": 21.452, "note_off_time": 21.841}, {"pitch": 77, "velocity": 59, "note_on_time": 21.674, "note_off_time": 21.976}, {"pitch": 79, "velocity": 67, "note_on_time": 21.953, "note_off_time": 22.337}, {"pitch": 72, "velocity": 17, "note_on_time": 22.653, "note_off_time": 22.911}, {"pitch": 74, "velocity": 48, "note_on_time": 22.891, "note_off_time": 23.112}, {"pitch": 76, "velocity": 47, "note_on_time": 23.064, "note_off_time": 23.47}, {"pitch": 77, "velocity": 52, "note_on_time": 23.321, "note_off_time": 23.636}, {"pitch": 79, "velocity": 64, "note_on_time": 23.593, "note_off_time": 24.128}, {"pitch": 72, "velocity": 42, "note_on_time": 24.176, "note_off_time": 24.268}, {"pitch": 74, "velocity": 56, "note_on_time": 24.341, "note_off_time": 24.587}, {"pitch": 76, "velocity": 67, "note_on_time": 24.557, "note_off_time": 24.797}, {"pitch": 77, "velocity": 71, "note_on_time": 24.764, "note_off_time": 25.014}, {"pitch": 79, "velocity": 59, "note_on_time": 25.04, "note_off_time": 25.602}, {"pitch": 72, "velocity": 49, "note_on_time": 25.659, "note_off_time": 25.865}, {"pitch": 74, "velocity": 62, "note_on_time": 25.852, "note_off_time": 26.077}, {"pitch": 76, "velocity": 59, "note_on_time": 26.062, "note_off_time": 26.294}, {"pitch": 77, "velocity": 74, "note_on_time": 26.256, "note_off_time": 26.43}, {"pitch": 79, "velocity": 70, "note_on_time": 26.39, "note_off_time": 27.109}, {"pitch": 72, "velocity": 23, "note_on_time": 27.164, "note_off_time": 27.353}, {"pitch": 74, "velocity": 51, "note_on_time": 27.387, "note_off_time": 27.571}, {"pitch": 76, "velocity": 72, "note_on_time": 27.572, "note_off_time": 27.799}, {"pitch": 77, "velocity": 51, "note_on_time": 27.775, "note_off_time": 28.099}, {"pitch": 79, "velocity": 55, "note_on_time": 28.034, "note_off_time": 28.737}, {"pitch": 72, "velocity": 51, "note_on_time": 28.725, "note_off_time": 28.894}, {"pitch": 74, "velocity": 58, "note_on_time": 28.917, "note_off_time": 29.18}, {"pitch": 76, "velocity": 66, "note_on_time": 29.145, "note_off_time": 29.48}, {"pitch": 77, "velocity": 56, "note_on_time": 29.372, "note_off_time": 29.613}, {"pitch": 79, "velocity": 44, "note_on_time": 29.594, "note_off_time": 30.245}, {"pitch": 72, "velocity": 44, "note_on_time": 30.265, "note_off_time": 30.445}, {"pitch": 74, "velocity": 44, "note_on_time": 30.446, "note_off_time": 30.672}, {"pitch": 76, "velocity": 72, "note_on_time": 30.641, "note_off_time": 30.888}, {"pitch": 77, "velocity": 54, "note_on_time": 30.886, "note_off_time": 31.133}, {"pitch": 79, "velocity": 61, "note_on_time": 31.147, "note_off_time": 31.726}, {"pitch": 72, "velocity": 33, "note_on_time": 31.762, "note_off_time": 31.859}, {"pitch": 74, "velocity": 56, "note_on_time": 31.858, "note_off_time": 32.119}, {"pitch": 76, "velocity": 70, "note_on_time": 32.108, "note_off_time": 32.772}, {"pitch": 77, "velocity": 50, "note_on_time": 32.651, "note_off_time": 32.986}, {"pitch": 79, "velocity": 46, "note_on_time": 33.028, "note_off_time": 33.909}, {"pitch": 72, "velocity": 24, "note_on_time": 33.955, "note_off_time": 34.282}, {"pitch": 74, "velocity": 45, "note_on_time": 34.257, "note_off_time": 34.535}, {"pitch": 76, "velocity": 68, "note_on_time": 34.54, "note_off_time": 34.894}, {"pitch": 77, "velocity": 57, "note_on_time": 34.832, "note_off_time": 35.157}, {"pitch": 79, "velocity": 60, "note_on_time": 35.161, "note_off_time": 36.493}, {"pitch": 72, "velocity": 45, "note_on_time": 36.471, "note_off_time": 37.073}, {"pitch": 74, "velocity": 36, "note_on_time": 36.857, "note_off_time": 37.085}, {"pitch": 76, "velocity": 61, "note_on_time": 37.096, "note_off_time": 37.608}, {"pitch": 77, "velocity": 46, "note_on_time": 37.447, "note_off_time": 37.824}, {"pitch": 79, "velocity": 62, "note_on_time": 37.752, "note_off_time": 38.927}, {"pitch": 72, "velocity": 55, "note_on_time": 38.961, "note_off_time": 39.309}, {"pitch": 74, "velocity": 53, "note_on_time": 39.269, "note_off_time": 39.373}, {"pitch": 76, "velocity": 59, "note_on_time": 39.414, "note_off_time": 39.831}, {"pitch": 74, "velocity": 62, "note_on_time": 39.821, "note_off_time": 40.158}, {"pitch": 72, "velocity": 48, "note_on_time": 40.129, "note_off_time": 40.682}, {"pitch": 74, "velocity": 49, "note_on_time": 40.545, "note_off_time": 40.722}, {"pitch": 76, "velocity": 72, "note_on_time": 40.734, "note_off_time": 41.465}, {"pitch": 72, "velocity": 56, "note_on_time": 41.445, "note_off_time": 41.721}, {"pitch": 74, "velocity": 63, "note_on_time": 41.73, "note_off_time": 41.898}, {"pitch": 76, "velocity": 71, "note_on_time": 41.932, "note_off_time": 42.303}, {"pitch": 77, "velocity": 62, "note_on_time": 42.237, "note_off_time": 42.563}, {"pitch": 79, "velocity": 62, "note_on_time": 42.564, "note_off_time": 43.766}, {"pitch": 72, "velocity": 55, "note_on_time": 43.796, "note_off_time": 43.979}, {"pitch": 74, "velocity": 40, "note_on_time": 44.1, "note_off_time": 44.276}, {"pitch": 76, "velocity": 64, "note_on_time": 44.378, "note_off_time": 44.807}, {"pitch": 74, "velocity": 61, "note_on_time": 44.716, "note_off_time": 45.106}, {"pitch": 72, "velocity": 33, "note_on_time": 44.996, "note_off_time": 45.51}, {"pitch": 74, "velocity": 37, "note_on_time": 45.44, "note_off_time": 45.641}, {"pitch": 76, "velocity": 56, "note_on_time": 45.639, "note_off_time": 46.105}, {"pitch": 77, "velocity": 57, "note_on_time": 45.927, "note_off_time": 46.213}, {"pitch": 79, "velocity": 66, "note_on_time": 46.227, "note_off_time": 46.587}, {"pitch": 77, "velocity": 44, "note_on_time": 46.57, "note_off_time": 46.768}, {"pitch": 76, "velocity": 1, "note_on_time": 46.864, "note_off_time": 47.482}, {"pitch": 77, "velocity": 48, "note_on_time": 47.412, "note_off_time": 47.699}, {"pitch": 79, "velocity": 51, "note_on_time": 47.662, "note_off_time": 48.514}, {"pitch": 77, "velocity": 62, "note_on_time": 47.979, "note_off_time": 48.544}, {"pitch": 76, "velocity": 74, "note_on_time": 48.518, "note_off_time": 48.854}, {"pitch": 74, "velocity": 64, "note_on_time": 48.818, "note_off_time": 49.104}, {"pitch": 72, "velocity": 68, "note_on_time": 49.087, "note_off_time": 49.721}, {"pitch": 74, "velocity": 51, "note_on_time": 49.599, "note_off_time": 49.736}, {"pitch": 76, "velocity": 36, "note_on_time": 49.762, "note_off_time": 50.141}, {"pitch": 74, "velocity": 60, "note_on_time": 50.021, "note_off_time": 50.351}, {"pitch": 72, "velocity": 57, "note_on_time": 50.328, "note_off_time": 51.068}, {"pitch": 74, "velocity": 61, "note_on_time": 50.993, "note_off_time": 51.133}, {"pitch": 76, "velocity": 56, "note_on_time": 51.145, "note_off_time": 51.5}, {"pitch": 77, "velocity": 48, "note_on_time": 51.41, "note_off_time": 51.725}, {"pitch": 79, "velocity": 66, "note_on_time": 51.686, "note_off_time": 52.113}, {"pitch": 72, "velocity": 16, "note_on_time": 52.197, "note_off_time": 52.54}, {"pitch": 72, "velocity": 58, "note_on_time": 52.736, "note_off_time": 53.045}, {"pitch": 74, "velocity": 68, "note_on_time": 52.926, "note_off_time": 53.211}, {"pitch": 76, "velocity": 38, "note_on_time": 53.142, "note_off_time": 53.542}, {"pitch": 72, "velocity": 42, "note_on_time": 54.063, "note_off_time": 54.437}, {"pitch": 74, "velocity": 55, "note_on_time": 54.303, "note_off_time": 54.962}, {"pitch": 76, "velocity": 35, "note_on_time": 54.559, "note_off_time": 54.962}, {"pitch": 77, "velocity": 46, "note_on_time": 54.862, "note_off_time": 55.689}, {"pitch": 79, "velocity": 32, "note_on_time": 55.387, "note_off_time": 55.937}, {"pitch": 72, "velocity": 28, "note_on_time": 56.139, "note_off_time": 56.451}, {"pitch": 74, "velocity": 31, "note_on_time": 56.45, "note_off_time": 56.712}, {"pitch": 76, "velocity": 53, "note_on_time": 56.668, "note_off_time": 57.103}, {"pitch": 77, "velocity": 51, "note_on_time": 56.927, "note_off_time": 57.202}, {"pitch": 79, "velocity": 59, "note_on_time": 57.16, "note_off_time": 57.564}, {"pitch": 77, "velocity": 62, "note_on_time": 57.465, "note_off_time": 57.744}, {"pitch": 76, "velocity": 73, "note_on_time": 57.739, "note_off_time": 58.138}, {"pitch": 77, "velocity": 54, "note_on_time": 58.069, "note_off_time": 58.387}, {"pitch": 79, "velocity": 65, "note_on_time": 58.385, "note_off_time": 58.714}, {"pitch": 77, "velocity": 81, "note_on_time": 58.668, "note_off_time": 58.851}, {"pitch": 76, "velocity": 56, "note_on_time": 58.872, "note_off_time": 59.158}, {"pitch": 74, "velocity": 66, "note_on_time": 59.165, "note_off_time": 59.448}, {"pitch": 72, "velocity": 44, "note_on_time": 59.495, "note_off_time": 59.839}, {"pitch": 74, "velocity": 73, "note_on_time": 59.823, "note_off_time": 59.985}, {"pitch": 76, "velocity": 67, "note_on_time": 60.005, "note_off_time": 60.336}, {"pitch": 74, "velocity": 74, "note_on_time": 60.319, "note_off_time": 60.624}, {"pitch": 72, "velocity": 58, "note_on_time": 60.599, "note_off_time": 60.851}, {"pitch": 74, "velocity": 68, "note_on_time": 60.877, "note_off_time": 61.118}, {"pitch": 76, "velocity": 67, "note_on_time": 61.089, "note_off_time": 61.444}, {"pitch": 77, "velocity": 50, "note_on_time": 61.356, "note_off_time": 61.85}, {"pitch": 79, "velocity": 61, "note_on_time": 61.645, "note_off_time": 62.17}, {"pitch": 77, "velocity": 60, "note_on_time": 62.103, "note_off_time": 62.399}, {"pitch": 79, "velocity": 60, "note_on_time": 62.422, "note_off_time": 62.795}, {"pitch": 77, "velocity": 69, "note_on_time": 62.736, "note_off_time": 62.911}, {"pitch": 76, "velocity": 65, "note_on_time": 62.925, "note_off_time": 63.222}, {"pitch": 74, "velocity": 61, "note_on_time": 63.191, "note_off_time": 63.489}, {"pitch": 72, "velocity": 34, "note_on_time": 63.513, "note_off_time": 63.987}, {"pitch": 74, "velocity": 66, "note_on_time": 63.972, "note_off_time": 64.274}, {"pitch": 72, "velocity": 53, "note_on_time": 64.226, "note_off_time": 64.721}, {"pitch": 74, "velocity": 55, "note_on_time": 64.535, "note_off_time": 64.731}, {"pitch": 76, "velocity": 61, "note_on_time": 64.717, "note_off_time": 65.065}, {"pitch": 77, "velocity": 24, "note_on_time": 65.003, "note_off_time": 65.408}, {"pitch": 76, "velocity": 54, "note_on_time": 65.379, "note_off_time": 65.653}, {"pitch": 74, "velocity": 68, "note_on_time": 65.661, "note_off_time": 65.918}, {"pitch": 74, "velocity": 48, "note_on_time": 66.216, "note_off_time": 66.357}, {"pitch": 72, "velocity": 66, "note_on_time": 65.901, "note_off_time": 66.505}, {"pitch": 76, "velocity": 59, "note_on_time": 66.481, "note_off_time": 66.798}, {"pitch": 77, "velocity": 49, "note_on_time": 66.742, "note_off_time": 67.089}, {"pitch": 79, "velocity": 54, "note_on_time": 67.033, "note_off_time": 67.469}, {"pitch": 77, "velocity": 54, "note_on_time": 67.398, "note_off_time": 67.601}, {"pitch": 76, "velocity": 66, "note_on_time": 67.633, "note_off_time": 67.878}, {"pitch": 74, "velocity": 62, "note_on_time": 67.867, "note_off_time": 68.122}, {"pitch": 72, "velocity": 69, "note_on_time": 68.127, "note_off_time": 68.451}, {"pitch": 74, "velocity": 63, "note_on_time": 68.429, "note_off_time": 68.575}, {"pitch": 76, "velocity": 66, "note_on_time": 68.635, "note_off_time": 68.853}, {"pitch": 74, "velocity": 64, "note_on_time": 68.838, "note_off_time": 69.118}, {"pitch": 72, "velocity": 71, "note_on_time": 69.102, "note_off_time": 69.481}, {"pitch": 74, "velocity": 63, "note_on_time": 69.453, "note_off_time": 69.604}, {"pitch": 76, "velocity": 62, "note_on_time": 69.643, "note_off_time": 69.906}, {"pitch": 77, "velocity": 54, "note_on_time": 69.875, "note_off_time": 70.183}, {"pitch": 81, "velocity": 31, "note_on_time": 70.221, "note_off_time": 70.356}, {"pitch": 79, "velocity": 46, "note_on_time": 70.199, "note_off_time": 70.685}, {"pitch": 77, "velocity": 1, "note_on_time": 71.032, "note_off_time": 71.364}, {"pitch": 76, "velocity": 59, "note_on_time": 71.627, "note_off_time": 71.841}, {"pitch": 77, "velocity": 70, "note_on_time": 71.788, "note_off_time": 72.148}, {"pitch": 79, "velocity": 72, "note_on_time": 72.016, "note_off_time": 72.329}, {"pitch": 72, "velocity": 49, "note_on_time": 72.892, "note_off_time": 73.185}, {"pitch": 74, "velocity": 56, "note_on_time": 73.166, "note_off_time": 73.348}, {"pitch": 76, "velocity": 55, "note_on_time": 73.365, "note_off_time": 73.691}, {"pitch": 77, "velocity": 48, "note_on_time": 73.65, "note_off_time": 73.997}, {"pitch": 79, "velocity": 62, "note_on_time": 73.982, "note_off_time": 74.653}, {"pitch": 72, "velocity": 31, "note_on_time": 75.225, "note_off_time": 75.506}, {"pitch": 74, "velocity": 52, "note_on_time": 75.465, "note_off_time": 75.702}, {"pitch": 76, "velocity": 57, "note_on_time": 75.698, "note_off_time": 75.933}, {"pitch": 74, "velocity": 64, "note_on_time": 75.95, "note_off_time": 76.23}, {"pitch": 72, "velocity": 56, "note_on_time": 76.21, "note_off_time": 76.427}, {"pitch": 74, "velocity": 55, "note_on_time": 76.504, "note_off_time": 76.799}, {"pitch": 76, "velocity": 52, "note_on_time": 76.769, "note_off_time": 77.041}, {"pitch": 74, "velocity": 72, "note_on_time": 77.037, "note_off_time": 77.342}, {"pitch": 72, "velocity": 44, "note_on_time": 77.361, "note_off_time": 77.61}, {"pitch": 74, "velocity": 58, "note_on_time": 77.64, "note_off_time": 77.821}, {"pitch": 76, "velocity": 70, "note_on_time": 77.829, "note_off_time": 78.157}, {"pitch": 77, "velocity": 49, "note_on_time": 78.071, "note_off_time": 78.376}, {"pitch": 76, "velocity": 68, "note_on_time": 78.373, "note_off_time": 78.621}, {"pitch": 74, "velocity": 60, "note_on_time": 78.64, "note_off_time": 78.852}, {"pitch": 76, "velocity": 65, "note_on_time": 78.874, "note_off_time": 79.12}, {"pitch": 77, "velocity": 49, "note_on_time": 79.145, "note_off_time": 79.439}, {"pitch": 77, "velocity": 28, "note_on_time": 79.507, "note_off_time": 79.684}, {"pitch": 79, "velocity": 38, "note_on_time": 79.464, "note_off_time": 80.191}, {"pitch": 77, "velocity": 50, "note_on_time": 80.093, "note_off_time": 80.268}, {"pitch": 76, "velocity": 72, "note_on_time": 80.288, "note_off_time": 80.559}, {"pitch": 74, "velocity": 65, "note_on_time": 80.55, "note_off_time": 80.797}, {"pitch": 76, "velocity": 76, "note_on_time": 80.806, "note_off_time": 81.117}, {"pitch": 77, "velocity": 52, "note_on_time": 81.05, "note_off_time": 81.321}, {"pitch": 79, "velocity": 37, "note_on_time": 81.378, "note_off_time": 82.04}, {"pitch": 72, "velocity": 42, "note_on_time": 82.51, "note_off_time": 82.905}, {"pitch": 74, "velocity": 45, "note_on_time": 82.804, "note_off_time": 82.924}, {"pitch": 76, "velocity": 60, "note_on_time": 82.922, "note_off_time": 83.299}, {"pitch": 77, "velocity": 59, "note_on_time": 83.215, "note_off_time": 83.506}, {"pitch": 76, "velocity": 72, "note_on_time": 83.5, "note_off_time": 83.755}, {"pitch": 74, "velocity": 54, "note_on_time": 83.74, "note_off_time": 84.004}, {"pitch": 72, "velocity": 51, "note_on_time": 83.985, "note_off_time": 84.651}, {"pitch": 74, "velocity": 53, "note_on_time": 84.58, "note_off_time": 84.745}, {"pitch": 76, "velocity": 49, "note_on_time": 84.791, "note_off_time": 85.178}, {"pitch": 77, "velocity": 51, "note_on_time": 85.069, "note_off_time": 85.406}, {"pitch": 79, "velocity": 39, "note_on_time": 85.396, "note_off_time": 85.838}, {"pitch": 72, "velocity": 56, "note_on_time": 85.926, "note_off_time": 86.09}, {"pitch": 74, "velocity": 50, "note_on_time": 86.118, "note_off_time": 86.343}, {"pitch": 76, "velocity": 65, "note_on_time": 86.333, "note_off_time": 86.598}, {"pitch": 77, "velocity": 49, "note_on_time": 86.594, "note_off_time": 86.925}, {"pitch": 79, "velocity": 23, "note_on_time": 86.956, "note_off_time": 87.526}, {"pitch": 72, "velocity": 30, "note_on_time": 87.514, "note_off_time": 87.73}, {"pitch": 74, "velocity": 24, "note_on_time": 87.845, "note_off_time": 88.095}, {"pitch": 76, "velocity": 52, "note_on_time": 88.082, "note_off_time": 88.419}, {"pitch": 77, "velocity": 46, "note_on_time": 88.386, "note_off_time": 88.748}, {"pitch": 79, "velocity": 56, "note_on_time": 88.704, "note_off_time": 89.072}, {"pitch": 77, "velocity": 64, "note_on_time": 89.007, "note_off_time": 89.238}, {"pitch": 76, "velocity": 67, "note_on_time": 89.24, "note_off_time": 89.482}, {"pitch": 74, "velocity": 54, "note_on_time": 89.514, "note_off_time": 89.799}, {"pitch": 72, "velocity": 56, "note_on_time": 89.807, "note_off_time": 89.989}, {"pitch": 74, "velocity": 50, "note_on_time": 90.261, "note_off_time": 90.495}, {"pitch": 72, "velocity": 42, "note_on_time": 90.519, "note_off_time": 90.714}, {"pitch": 72, "velocity": 38, "note_on_time": 90.862, "note_off_time": 91.026}, {"pitch": 72, "velocity": 1, "note_on_time": 91.277, "note_off_time": 92.047}, {"pitch": 74, "velocity": 14, "note_on_time": 92.63, "note_off_time": 92.728}, {"pitch": 72, "velocity": 56, "note_on_time": 92.341, "note_off_time": 92.819}, {"pitch": 76, "velocity": 60, "note_on_time": 92.707, "note_off_time": 93.168}, {"pitch": 77, "velocity": 54, "note_on_time": 93.062, "note_off_time": 93.406}, {"pitch": 79, "velocity": 57, "note_on_time": 93.363, "note_off_time": 93.872}, {"pitch": 72, "velocity": 58, "note_on_time": 93.881, "note_off_time": 94.076}, {"pitch": 74, "velocity": 50, "note_on_time": 94.144, "note_off_time": 94.283}, {"pitch": 76, "velocity": 59, "note_on_time": 94.324, "note_off_time": 94.579}, {"pitch": 77, "velocity": 52, "note_on_time": 94.553, "note_off_time": 94.803}, {"pitch": 79, "velocity": 39, "note_on_time": 94.851, "note_off_time": 95.179}, {"pitch": 77, "velocity": 35, "note_on_time": 95.518, "note_off_time": 95.584}, {"pitch": 76, "velocity": 70, "note_on_time": 95.194, "note_off_time": 95.726}, {"pitch": 77, "velocity": 31, "note_on_time": 95.711, "note_off_time": 96.057}, {"pitch": 72, "velocity": 49, "note_on_time": 97.072, "note_off_time": 97.535}, {"pitch": 74, "velocity": 46, "note_on_time": 97.364, "note_off_time": 97.72}, {"pitch": 76, "velocity": 49, "note_on_time": 97.577, "note_off_time": 97.911}, {"pitch": 77, "velocity": 38, "note_on_time": 97.854, "note_off_time": 98.126}, {"pitch": 79, "velocity": 46, "note_on_time": 98.199, "note_off_time": 98.521}, {"pitch": 77, "velocity": 55, "note_on_time": 98.581, "note_off_time": 99.154}, {"pitch": 79, "velocity": 46, "note_on_time": 98.95, "note_off_time": 99.437}, {"pitch": 77, "velocity": 18, "note_on_time": 100.3, "note_off_time": 100.449}, {"pitch": 79, "velocity": 18, "note_on_time": 100.448, "note_off_time": 100.784}, {"pitch": 72, "velocity": 50, "note_on_time": 101.907, "note_off_time": 102.185}, {"pitch": 74, "velocity": 44, "note_on_time": 102.169, "note_off_time": 102.402}, {"pitch": 76, "velocity": 36, "note_on_time": 102.432, "note_off_time": 102.959}, {"pitch": 77, "velocity": 44, "note_on_time": 102.725, "note_off_time": 103.016}, {"pitch": 79, "velocity": 52, "note_on_time": 103.027, "note_off_time": 103.35}, {"pitch": 77, "velocity": 49, "note_on_time": 103.355, "note_off_time": 103.622}, {"pitch": 79, "velocity": 41, "note_on_time": 103.673, "note_off_time": 104.008}, {"pitch": 77, "velocity": 66, "note_on_time": 103.992, "note_off_time": 104.189}, {"pitch": 76, "velocity": 53, "note_on_time": 104.205, "note_off_time": 104.495}, {"pitch": 74, "velocity": 54, "note_on_time": 104.51, "note_off_time": 104.796}, {"pitch": 72, "velocity": 38, "note_on_time": 104.873, "note_off_time": 105.178}, {"pitch": 74, "velocity": 51, "note_on_time": 105.189, "note_off_time": 105.384}, {"pitch": 76, "velocity": 51, "note_on_time": 105.418, "note_off_time": 105.788}, {"pitch": 77, "velocity": 45, "note_on_time": 105.684, "note_off_time": 105.918}, {"pitch": 79, "velocity": 63, "note_on_time": 105.975, "note_off_time": 106.415}, {"pitch": 77, "velocity": 52, "note_on_time": 106.304, "note_off_time": 106.505}, {"pitch": 76, "velocity": 56, "note_on_time": 106.655, "note_off_time": 106.803}, {"pitch": 77, "velocity": 25, "note_on_time": 106.879, "note_off_time": 107.671}, {"pitch": 76, "velocity": 58, "note_on_time": 107.68, "note_off_time": 108.087}, {"pitch": 79, "velocity": 45, "note_on_time": 108.254, "note_off_time": 108.826}, {"pitch": 77, "velocity": 56, "note_on_time": 108.634, "note_off_time": 108.871}, {"pitch": 76, "velocity": 54, "note_on_time": 108.832, "note_off_time": 109.114}, {"pitch": 74, "velocity": 60, "note_on_time": 109.107, "note_off_time": 109.371}, {"pitch": 72, "velocity": 64, "note_on_time": 109.375, "note_off_time": 109.553}, {"pitch": 79, "velocity": 46, "note_on_time": 109.879, "note_off_time": 110.578}, {"pitch": 77, "velocity": 44, "note_on_time": 111.317, "note_off_time": 111.534}, {"pitch": 79, "velocity": 50, "note_on_time": 111.008, "note_off_time": 111.577}, {"pitch": 76, "velocity": 47, "note_on_time": 111.528, "note_off_time": 111.789}, {"pitch": 74, "velocity": 55, "note_on_time": 111.797, "note_off_time": 112.065}, {"pitch": 72, "velocity": 61, "note_on_time": 112.032, "note_off_time": 112.243}, {"pitch": 79, "velocity": 22, "note_on_time": 112.403, "note_off_time": 112.83}, {"pitch": 77, "velocity": 36, "note_on_time": 112.787, "note_off_time": 113.012}, {"pitch": 76, "velocity": 60, "note_on_time": 112.999, "note_off_time": 113.256}, {"pitch": 74, "velocity": 52, "note_on_time": 113.258, "note_off_time": 113.546}, {"pitch": 72, "velocity": 65, "note_on_time": 113.496, "note_off_time": 113.703}, {"pitch": 79, "velocity": 37, "note_on_time": 113.918, "note_off_time": 114.352}, {"pitch": 77, "velocity": 46, "note_on_time": 114.254, "note_off_time": 114.43}, {"pitch": 76, "velocity": 74, "note_on_time": 114.424, "note_off_time": 114.718}, {"pitch": 74, "velocity": 60, "note_on_time": 114.689, "note_off_time": 114.928}, {"pitch": 72, "velocity": 60, "note_on_time": 114.927, "note_off_time": 115.094}, {"pitch": 74, "velocity": 56, "note_on_time": 115.174, "note_off_time": 115.324}, {"pitch": 76, "velocity": 66, "note_on_time": 115.333, "note_off_time": 115.628}, {"pitch": 77, "velocity": 59, "note_on_time": 115.571, "note_off_time": 115.866}, {"pitch": 79, "velocity": 40, "note_on_time": 115.858, "note_off_time": 116.176}, {"pitch": 79, "velocity": 56, "note_on_time": 116.306, "note_off_time": 116.601}, {"pitch": 77, "velocity": 46, "note_on_time": 116.57, "note_off_time": 116.669}, {"pitch": 76, "velocity": 49, "note_on_time": 116.704, "note_off_time": 116.955}, {"pitch": 74, "velocity": 54, "note_on_time": 116.955, "note_off_time": 117.258}, {"pitch": 72, "velocity": 62, "note_on_time": 117.201, "note_off_time": 117.381}, {"pitch": 74, "velocity": 55, "note_on_time": 117.496, "note_off_time": 117.682}, {"pitch": 76, "velocity": 65, "note_on_time": 117.687, "note_off_time": 117.963}, {"pitch": 77, "velocity": 51, "note_on_time": 117.924, "note_off_time": 118.218}, {"pitch": 79, "velocity": 53, "note_on_time": 118.187, "note_off_time": 118.51}, {"pitch": 77, "velocity": 55, "note_on_time": 118.529, "note_off_time": 118.679}, {"pitch": 76, "velocity": 57, "note_on_time": 118.71, "note_off_time": 118.937}, {"pitch": 74, "velocity": 58, "note_on_time": 118.934, "note_off_time": 119.196}, {"pitch": 72, "velocity": 58, "note_on_time": 119.183, "note_off_time": 119.483}, {"pitch": 74, "velocity": 45, "note_on_time": 119.498, "note_off_time": 119.631}, {"pitch": 76, "velocity": 71, "note_on_time": 119.634, "note_off_time": 119.949}, {"pitch": 77, "velocity": 56, "note_on_time": 119.871, "note_off_time": 120.168}, {"pitch": 79, "velocity": 41, "note_on_time": 120.172, "note_off_time": 120.661}, {"pitch": 77, "velocity": 60, "note_on_time": 120.612, "note_off_time": 120.831}, {"pitch": 76, "velocity": 60, "note_on_time": 120.84, "note_off_time": 121.085}, {"pitch": 74, "velocity": 58, "note_on_time": 121.07, "note_off_time": 121.376}, {"pitch": 72, "velocity": 61, "note_on_time": 121.331, "note_off_time": 121.769}, {"pitch": 74, "velocity": 56, "note_on_time": 121.716, "note_off_time": 121.867}, {"pitch": 76, "velocity": 56, "note_on_time": 121.848, "note_off_time": 122.403}, {"pitch": 77, "velocity": 60, "note_on_time": 122.133, "note_off_time": 122.467}, {"pitch": 79, "velocity": 40, "note_on_time": 122.43, "note_off_time": 122.974}, {"pitch": 77, "velocity": 55, "note_on_time": 122.868, "note_off_time": 123.042}, {"pitch": 76, "velocity": 56, "note_on_time": 123.067, "note_off_time": 123.288}, {"pitch": 74, "velocity": 58, "note_on_time": 123.281, "note_off_time": 123.591}, {"pitch": 72, "velocity": 58, "note_on_time": 123.559, "note_off_time": 124.002}, {"pitch": 74, "velocity": 66, "note_on_time": 124.017, "note_off_time": 124.356}, {"pitch": 72, "velocity": 53, "note_on_time": 124.27, "note_off_time": 124.496}, {"pitch": 72, "velocity": 63, "note_on_time": 125.099, "note_off_time": 125.397}, {"pitch": 74, "velocity": 51, "note_on_time": 125.336, "note_off_time": 125.55}, {"pitch": 76, "velocity": 55, "note_on_time": 125.544, "note_off_time": 125.981}, {"pitch": 77, "velocity": 50, "note_on_time": 125.841, "note_off_time": 126.168}, {"pitch": 79, "velocity": 53, "note_on_time": 126.119, "note_off_time": 126.392}, {"pitch": 72, "velocity": 28, "note_on_time": 126.588, "note_off_time": 126.837}, {"pitch": 74, "velocity": 55, "note_on_time": 126.856, "note_off_time": 127.017}, {"pitch": 76, "velocity": 55, "note_on_time": 126.995, "note_off_time": 127.386}, {"pitch": 77, "velocity": 51, "note_on_time": 127.245, "note_off_time": 127.561}, {"pitch": 79, "velocity": 48, "note_on_time": 127.515, "note_off_time": 127.842}, {"pitch": 72, "velocity": 51, "note_on_time": 127.963, "note_off_time": 128.187}, {"pitch": 74, "velocity": 57, "note_on_time": 128.184, "note_off_time": 128.383}, {"pitch": 76, "velocity": 54, "note_on_time": 128.387, "note_off_time": 128.678}, {"pitch": 77, "velocity": 41, "note_on_time": 128.633, "note_off_time": 128.945}, {"pitch": 79, "velocity": 38, "note_on_time": 128.95, "note_off_time": 129.41}, {"pitch": 77, "velocity": 57, "note_on_time": 129.382, "note_off_time": 129.48}, {"pitch": 76, "velocity": 60, "note_on_time": 129.49, "note_off_time": 129.756}, {"pitch": 74, "velocity": 52, "note_on_time": 129.786, "note_off_time": 129.985}, {"pitch": 72, "velocity": 56, "note_on_time": 130.018, "note_off_time": 130.354}, {"pitch": 74, "velocity": 50, "note_on_time": 130.416, "note_off_time": 130.529}, {"pitch": 76, "velocity": 62, "note_on_time": 130.542, "note_off_time": 131.091}, {"pitch": 77, "velocity": 57, "note_on_time": 130.801, "note_off_time": 131.139}, {"pitch": 79, "velocity": 23, "note_on_time": 131.127, "note_off_time": 131.611}, {"pitch": 77, "velocity": 38, "note_on_time": 131.583, "note_off_time": 131.635}, {"pitch": 76, "velocity": 43, "note_on_time": 131.665, "note_off_time": 131.895}, {"pitch": 74, "velocity": 64, "note_on_time": 131.915, "note_off_time": 132.193}, {"pitch": 72, "velocity": 59, "note_on_time": 132.178, "note_off_time": 132.665}, {"pitch": 74, "velocity": 53, "note_on_time": 132.633, "note_off_time": 132.776}, {"pitch": 77, "velocity": 51, "note_on_time": 133.018, "note_off_time": 133.321}, {"pitch": 76, "velocity": 61, "note_on_time": 132.767, "note_off_time": 133.325}, {"pitch": 79, "velocity": 37, "note_on_time": 133.278, "note_off_time": 133.782}, {"pitch": 77, "velocity": 53, "note_on_time": 133.718, "note_off_time": 133.94}, {"pitch": 76, "velocity": 59, "note_on_time": 133.895, "note_off_time": 134.186}, {"pitch": 74, "velocity": 60, "note_on_time": 134.195, "note_off_time": 134.457}, {"pitch": 72, "velocity": 59, "note_on_time": 134.484, "note_off_time": 134.672}, {"pitch": 72, "velocity": 18, "note_on_time": 134.858, "note_off_time": 135.12}, {"pitch": 74, "velocity": 55, "note_on_time": 135.09, "note_off_time": 135.335}, {"pitch": 76, "velocity": 47, "note_on_time": 135.318, "note_off_time": 135.879}, {"pitch": 77, "velocity": 48, "note_on_time": 135.569, "note_off_time": 135.896}, {"pitch": 79, "velocity": 29, "note_on_time": 135.859, "note_off_time": 136.388}, {"pitch": 77, "velocity": 37, "note_on_time": 136.336, "note_off_time": 136.559}, {"pitch": 76, "velocity": 44, "note_on_time": 136.582, "note_off_time": 136.829}, {"pitch": 74, "velocity": 62, "note_on_time": 136.829, "note_off_time": 137.091}, {"pitch": 72, "velocity": 67, "note_on_time": 137.089, "note_off_time": 137.594}, {"pitch": 74, "velocity": 52, "note_on_time": 137.558, "note_off_time": 137.669}, {"pitch": 76, "velocity": 58, "note_on_time": 137.658, "note_off_time": 138.046}, {"pitch": 77, "velocity": 51, "note_on_time": 137.931, "note_off_time": 138.24}, {"pitch": 79, "velocity": 54, "note_on_time": 138.185, "note_off_time": 138.687}, {"pitch": 77, "velocity": 47, "note_on_time": 138.654, "note_off_time": 138.866}, {"pitch": 76, "velocity": 52, "note_on_time": 138.866, "note_off_time": 139.14}, {"pitch": 74, "velocity": 70, "note_on_time": 139.147, "note_off_time": 139.405}, {"pitch": 72, "velocity": 62, "note_on_time": 139.4, "note_off_time": 139.829}, {"pitch": 74, "velocity": 60, "note_on_time": 139.828, "note_off_time": 140.009}, {"pitch": 76, "velocity": 69, "note_on_time": 139.994, "note_off_time": 140.475}, {"pitch": 77, "velocity": 52, "note_on_time": 140.224, "note_off_time": 140.526}, {"pitch": 79, "velocity": 59, "note_on_time": 140.486, "note_off_time": 141.028}, {"pitch": 77, "velocity": 57, "note_on_time": 140.964, "note_off_time": 141.14}, {"pitch": 76, "velocity": 59, "note_on_time": 141.138, "note_off_time": 141.394}, {"pitch": 74, "velocity": 61, "note_on_time": 141.377, "note_off_time": 141.655}, {"pitch": 72, "velocity": 66, "note_on_time": 141.647, "note_off_time": 142.183}, {"pitch": 74, "velocity": 56, "note_on_time": 142.13, "note_off_time": 142.447}, {"pitch": 76, "velocity": 62, "note_on_time": 142.272, "note_off_time": 142.767}, {"pitch": 77, "velocity": 63, "note_on_time": 142.695, "note_off_time": 142.91}, {"pitch": 79, "velocity": 33, "note_on_time": 142.87, "note_off_time": 143.421}, {"pitch": 77, "velocity": 54, "note_on_time": 143.366, "note_off_time": 143.515}, {"pitch": 76, "velocity": 1, "note_on_time": 143.58, "note_off_time": 144.085}, {"pitch": 72, "velocity": 62, "note_on_time": 144.573, "note_off_time": 144.827}, {"pitch": 74, "velocity": 50, "note_on_time": 144.814, "note_off_time": 145.016}, {"pitch": 76, "velocity": 64, "note_on_time": 145.0, "note_off_time": 145.496}, {"pitch": 77, "velocity": 39, "note_on_time": 145.258, "note_off_time": 145.543}, {"pitch": 79, "velocity": 47, "note_on_time": 145.533, "note_off_time": 146.028}, {"pitch": 77, "velocity": 52, "note_on_time": 145.951, "note_off_time": 146.163}, {"pitch": 76, "velocity": 58, "note_on_time": 146.161, "note_off_time": 146.492}, {"pitch": 74, "velocity": 50, "note_on_time": 146.454, "note_off_time": 146.696}, {"pitch": 72, "velocity": 70, "note_on_time": 146.688, "note_off_time": 147.105}, {"pitch": 74, "velocity": 55, "note_on_time": 147.108, "note_off_time": 147.24}, {"pitch": 76, "velocity": 46, "note_on_time": 147.22, "note_off_time": 147.563}, {"pitch": 77, "velocity": 61, "note_on_time": 147.47, "note_off_time": 147.791}, {"pitch": 79, "velocity": 55, "note_on_time": 147.719, "note_off_time": 148.192}, {"pitch": 77, "velocity": 64, "note_on_time": 148.151, "note_off_time": 148.318}, {"pitch": 76, "velocity": 69, "note_on_time": 148.312, "note_off_time": 148.58}, {"pitch": 74, "velocity": 66, "note_on_time": 148.561, "note_off_time": 148.798}, {"pitch": 72, "velocity": 75, "note_on_time": 148.796, "note_off_time": 149.284}, {"pitch": 74, "velocity": 54, "note_on_time": 149.27, "note_off_time": 149.348}, {"pitch": 76, "velocity": 60, "note_on_time": 149.381, "note_off_time": 149.684}, {"pitch": 74, "velocity": 76, "note_on_time": 149.669, "note_off_time": 149.962}, {"pitch": 76, "velocity": 57, "note_on_time": 149.963, "note_off_time": 150.526}, {"pitch": 77, "velocity": 57, "note_on_time": 150.393, "note_off_time": 150.676}, {"pitch": 79, "velocity": 55, "note_on_time": 150.632, "note_off_time": 151.049}, {"pitch": 77, "velocity": 46, "note_on_time": 150.968, "note_off_time": 151.176}, {"pitch": 76, "velocity": 61, "note_on_time": 151.172, "note_off_time": 151.386}, {"pitch": 74, "velocity": 61, "note_on_time": 151.395, "note_off_time": 151.653}, {"pitch": 72, "velocity": 62, "note_on_time": 151.635, "note_off_time": 152.082}, {"pitch": 74, "velocity": 51, "note_on_time": 152.024, "note_off_time": 152.128}, {"pitch": 76, "velocity": 61, "note_on_time": 152.112, "note_off_time": 152.464}, {"pitch": 77, "velocity": 53, "note_on_time": 152.375, "note_off_time": 152.611}, {"pitch": 77, "velocity": 55, "note_on_time": 153.219, "note_off_time": 153.416}, {"pitch": 79, "velocity": 41, "note_on_time": 152.651, "note_off_time": 153.466}, {"pitch": 76, "velocity": 64, "note_on_time": 153.434, "note_off_time": 153.637}, {"pitch": 74, "velocity": 58, "note_on_time": 153.649, "note_off_time": 153.917}, {"pitch": 72, "velocity": 67, "note_on_time": 153.901, "note_off_time": 154.479}, {"pitch": 74, "velocity": 36, "note_on_time": 154.373, "note_off_time": 154.481}, {"pitch": 76, "velocity": 69, "note_on_time": 154.476, "note_off_time": 154.875}, {"pitch": 77, "velocity": 53, "note_on_time": 154.736, "note_off_time": 155.144}, {"pitch": 79, "velocity": 23, "note_on_time": 155.119, "note_off_time": 155.599}, {"pitch": 77, "velocity": 54, "note_on_time": 155.561, "note_off_time": 155.695}, {"pitch": 76, "velocity": 60, "note_on_time": 155.666, "note_off_time": 155.911}, {"pitch": 74, "velocity": 59, "note_on_time": 155.919, "note_off_time": 156.16}, {"pitch": 72, "velocity": 59, "note_on_time": 156.177, "note_off_time": 156.624}, {"pitch": 74, "velocity": 57, "note_on_time": 156.592, "note_off_time": 156.725}, {"pitch": 76, "velocity": 62, "note_on_time": 156.689, "note_off_time": 157.071}, {"pitch": 77, "velocity": 59, "note_on_time": 156.956, "note_off_time": 157.25}, {"pitch": 79, "velocity": 37, "note_on_time": 157.201, "note_off_time": 157.717}, {"pitch": 77, "velocity": 75, "note_on_time": 157.671, "note_off_time": 157.817}, {"pitch": 76, "velocity": 66, "note_on_time": 157.774, "note_off_time": 158.037}, {"pitch": 72, "velocity": 59, "note_on_time": 158.303, "note_off_time": 158.572}, {"pitch": 74, "velocity": 57, "note_on_time": 158.047, "note_off_time": 158.708}, {"pitch": 72, "velocity": 38, "note_on_time": 158.828, "note_off_time": 159.126}, {"pitch": 74, "velocity": 56, "note_on_time": 159.066, "note_off_time": 159.245}, {"pitch": 76, "velocity": 52, "note_on_time": 159.235, "note_off_time": 159.84}, {"pitch": 77, "velocity": 46, "note_on_time": 159.543, "note_off_time": 159.867}, {"pitch": 79, "velocity": 58, "note_on_time": 159.81, "note_off_time": 160.311}, {"pitch": 77, "velocity": 56, "note_on_time": 160.25, "note_off_time": 160.312}, {"pitch": 76, "velocity": 61, "note_on_time": 160.341, "note_off_time": 160.601}, {"pitch": 74, "velocity": 57, "note_on_time": 160.597, "note_off_time": 161.054}, {"pitch": 72, "velocity": 45, "note_on_time": 160.891, "note_off_time": 161.439}, {"pitch": 74, "velocity": 57, "note_on_time": 161.387, "note_off_time": 161.522}, {"pitch": 76, "velocity": 58, "note_on_time": 161.503, "note_off_time": 161.894}, {"pitch": 77, "velocity": 58, "note_on_time": 161.763, "note_off_time": 162.049}, {"pitch": 79, "velocity": 65, "note_on_time": 162.009, "note_off_time": 162.52}, {"pitch": 77, "velocity": 61, "note_on_time": 162.444, "note_off_time": 162.711}, {"pitch": 76, "velocity": 62, "note_on_time": 162.56, "note_off_time": 162.854}, {"pitch": 74, "velocity": 70, "note_on_time": 162.851, "note_off_time": 163.125}, {"pitch": 72, "velocity": 56, "note_on_time": 163.109, "note_off_time": 163.723}, {"pitch": 74, "velocity": 61, "note_on_time": 163.67, "note_off_time": 163.82}, {"pitch": 76, "velocity": 69, "note_on_time": 163.795, "note_off_time": 164.11}, {"pitch": 77, "velocity": 65, "note_on_time": 164.051, "note_off_time": 164.363}, {"pitch": 77, "velocity": 63, "note_on_time": 164.692, "note_off_time": 164.862}, {"pitch": 79, "velocity": 59, "note_on_time": 164.296, "note_off_time": 164.897}, {"pitch": 76, "velocity": 66, "note_on_time": 164.834, "note_off_time": 165.059}, {"pitch": 74, "velocity": 63, "note_on_time": 165.071, "note_off_time": 165.298}, {"pitch": 72, "velocity": 60, "note_on_time": 165.303, "note_off_time": 165.854}, {"pitch": 74, "velocity": 56, "note_on_time": 165.78, "note_off_time": 165.922}, {"pitch": 76, "velocity": 57, "note_on_time": 165.89, "note_off_time": 166.255}, {"pitch": 77, "velocity": 54, "note_on_time": 166.158, "note_off_time": 166.392}, {"pitch": 79, "velocity": 34, "note_on_time": 166.391, "note_off_time": 166.952}, {"pitch": 77, "velocity": 57, "note_on_time": 166.878, "note_off_time": 167.024}, {"pitch": 76, "velocity": 46, "note_on_time": 167.011, "note_off_time": 167.274}, {"pitch": 74, "velocity": 59, "note_on_time": 167.248, "note_off_time": 167.483}, {"pitch": 74, "velocity": 50, "note_on_time": 167.879, "note_off_time": 168.026}, {"pitch": 72, "velocity": 74, "note_on_time": 167.448, "note_off_time": 168.161}, {"pitch": 76, "velocity": 55, "note_on_time": 167.998, "note_off_time": 168.41}, {"pitch": 77, "velocity": 57, "note_on_time": 168.301, "note_off_time": 168.586}, {"pitch": 79, "velocity": 54, "note_on_time": 168.559, "note_off_time": 168.972}, {"pitch": 77, "velocity": 47, "note_on_time": 169.026, "note_off_time": 169.241}, {"pitch": 76, "velocity": 47, "note_on_time": 169.025, "note_off_time": 169.558}, {"pitch": 74, "velocity": 48, "note_on_time": 169.523, "note_off_time": 169.734}, {"pitch": 72, "velocity": 53, "note_on_time": 169.713, "note_off_time": 170.336}, {"pitch": 74, "velocity": 62, "note_on_time": 170.21, "note_off_time": 170.389}, {"pitch": 76, "velocity": 60, "note_on_time": 170.356, "note_off_time": 170.736}, {"pitch": 77, "velocity": 56, "note_on_time": 170.587, "note_off_time": 170.776}, {"pitch": 79, "velocity": 53, "note_on_time": 170.737, "note_off_time": 171.219}, {"pitch": 76, "velocity": 45, "note_on_time": 171.284, "note_off_time": 171.559}, {"pitch": 74, "velocity": 55, "note_on_time": 172.152, "note_off_time": 172.832}, {"pitch": 72, "velocity": 46, "note_on_time": 171.924, "note_off_time": 172.85}, {"pitch": 76, "velocity": 25, "note_on_time": 172.418, "note_off_time": 173.241}, {"pitch": 77, "velocity": 45, "note_on_time": 172.858, "note_off_time": 173.309}, {"pitch": 79, "velocity": 64, "note_on_time": 173.228, "note_off_time": 173.792}, {"pitch": 77, "velocity": 51, "note_on_time": 173.618, "note_off_time": 173.82}, {"pitch": 76, "velocity": 73, "note_on_time": 173.795, "note_off_time": 174.098}, {"pitch": 74, "velocity": 56, "note_on_time": 174.083, "note_off_time": 174.344}, {"pitch": 72, "velocity": 64, "note_on_time": 174.33, "note_off_time": 174.782}, {"pitch": 74, "velocity": 57, "note_on_time": 174.714, "note_off_time": 174.859}, {"pitch": 76, "velocity": 65, "note_on_time": 174.835, "note_off_time": 175.225}, {"pitch": 77, "velocity": 51, "note_on_time": 175.105, "note_off_time": 175.374}, {"pitch": 77, "velocity": 55, "note_on_time": 175.782, "note_off_time": 175.919}, {"pitch": 79, "velocity": 28, "note_on_time": 175.396, "note_off_time": 175.922}, {"pitch": 76, "velocity": 68, "note_on_time": 175.865, "note_off_time": 176.158}, {"pitch": 74, "velocity": 60, "note_on_time": 176.16, "note_off_time": 176.402}, {"pitch": 72, "velocity": 57, "note_on_time": 176.394, "note_off_time": 176.899}, {"pitch": 74, "velocity": 56, "note_on_time": 176.897, "note_off_time": 177.0}, {"pitch": 76, "velocity": 56, "note_on_time": 177.017, "note_off_time": 177.43}, {"pitch": 77, "velocity": 58, "note_on_time": 177.299, "note_off_time": 177.587}, {"pitch": 79, "velocity": 48, "note_on_time": 177.556, "note_off_time": 178.135}, {"pitch": 77, "velocity": 59, "note_on_time": 177.981, "note_off_time": 178.169}, {"pitch": 76, "velocity": 53, "note_on_time": 178.161, "note_off_time": 178.395}, {"pitch": 74, "velocity": 65, "note_on_time": 178.393, "note_off_time": 178.661}, {"pitch": 72, "velocity": 65, "note_on_time": 178.646, "note_off_time": 178.995}, {"pitch": 74, "velocity": 67, "note_on_time": 178.984, "note_off_time": 179.19}, {"pitch": 76, "velocity": 63, "note_on_time": 179.147, "note_off_time": 179.806}, {"pitch": 77, "velocity": 71, "note_on_time": 179.726, "note_off_time": 180.066}, {"pitch": 79, "velocity": 67, "note_on_time": 180.024, "note_off_time": 180.548}, {"pitch": 77, "velocity": 49, "note_on_time": 180.415, "note_off_time": 180.59}, {"pitch": 76, "velocity": 65, "note_on_time": 180.58, "note_off_time": 180.869}, {"pitch": 74, "velocity": 61, "note_on_time": 180.856, "note_off_time": 181.128}, {"pitch": 74, "velocity": 53, "note_on_time": 181.51, "note_off_time": 181.69}, {"pitch": 72, "velocity": 54, "note_on_time": 181.104, "note_off_time": 181.741}, {"pitch": 77, "velocity": 38, "note_on_time": 181.987, "note_off_time": 182.095}, {"pitch": 76, "velocity": 57, "note_on_time": 181.66, "note_off_time": 182.367}, {"pitch": 79, "velocity": 47, "note_on_time": 182.304, "note_off_time": 182.769}, {"pitch": 77, "velocity": 59, "note_on_time": 182.745, "note_off_time": 183.0}, {"pitch": 76, "velocity": 63, "note_on_time": 182.92, "note_off_time": 183.222}, {"pitch": 74, "velocity": 60, "note_on_time": 183.206, "note_off_time": 183.521}, {"pitch": 72, "velocity": 54, "note_on_time": 183.483, "note_off_time": 184.038}, {"pitch": 74, "velocity": 58, "note_on_time": 183.886, "note_off_time": 184.071}, {"pitch": 76, "velocity": 62, "note_on_time": 184.029, "note_off_time": 184.577}, {"pitch": 77, "velocity": 51, "note_on_time": 184.285, "note_off_time": 184.627}, {"pitch": 79, "velocity": 62, "note_on_time": 184.552, "note_off_time": 185.095}, {"pitch": 77, "velocity": 53, "note_on_time": 185.004, "note_off_time": 185.178}, {"pitch": 76, "velocity": 56, "note_on_time": 185.084, "note_off_time": 185.397}, {"pitch": 74, "velocity": 52, "note_on_time": 185.389, "note_off_time": 185.693}, {"pitch": 74, "velocity": 44, "note_on_time": 186.173, "note_off_time": 186.365}, {"pitch": 72, "velocity": 50, "note_on_time": 185.653, "note_off_time": 186.39}, {"pitch": 76, "velocity": 67, "note_on_time": 186.365, "note_off_time": 186.95}, {"pitch": 77, "velocity": 57, "note_on_time": 186.625, "note_off_time": 186.961}, {"pitch": 77, "velocity": 51, "note_on_time": 187.379, "note_off_time": 187.567}, {"pitch": 79, "velocity": 54, "note_on_time": 186.889, "note_off_time": 187.631}, {"pitch": 76, "velocity": 40, "note_on_time": 187.522, "note_off_time": 187.797}, {"pitch": 74, "velocity": 57, "note_on_time": 187.776, "note_off_time": 188.155}, {"pitch": 72, "velocity": 67, "note_on_time": 188.001, "note_off_time": 188.496}, {"pitch": 74, "velocity": 27, "note_on_time": 188.433, "note_off_time": 188.595}, {"pitch": 76, "velocity": 69, "note_on_time": 188.552, "note_off_time": 189.046}, {"pitch": 77, "velocity": 58, "note_on_time": 188.815, "note_off_time": 189.163}, {"pitch": 79, "velocity": 56, "note_on_time": 188.959, "note_off_time": 189.672}, {"pitch": 76, "velocity": 11, "note_on_time": 189.736, "note_off_time": 189.886}, {"pitch": 77, "velocity": 12, "note_on_time": 189.735, "note_off_time": 189.904}, {"pitch": 72, "velocity": 40, "note_on_time": 190.339, "note_off_time": 190.631}, {"pitch": 74, "velocity": 51, "note_on_time": 190.616, "note_off_time": 190.858}, {"pitch": 77, "velocity": 16, "note_on_time": 191.098, "note_off_time": 191.486}, {"pitch": 76, "velocity": 50, "note_on_time": 190.786, "note_off_time": 191.51}, {"pitch": 72, "velocity": 46, "note_on_time": 191.788, "note_off_time": 192.26}, {"pitch": 74, "velocity": 59, "note_on_time": 192.212, "note_off_time": 192.407}, {"pitch": 76, "velocity": 45, "note_on_time": 192.35, "note_off_time": 192.724}, {"pitch": 77, "velocity": 65, "note_on_time": 192.629, "note_off_time": 192.997}, {"pitch": 79, "velocity": 40, "note_on_time": 193.008, "note_off_time": 193.53}, {"pitch": 77, "velocity": 52, "note_on_time": 193.413, "note_off_time": 193.624}, {"pitch": 76, "velocity": 56, "note_on_time": 193.585, "note_off_time": 193.856}, {"pitch": 74, "velocity": 68, "note_on_time": 193.865, "note_off_time": 194.119}]</notes><guidance name="Guidance Mode">None</guidance><error name="Error value">99</error></trial><trial trial_no="3" timestamp="2023_06_19-16_11_40"><notes name="Played Notes">[{"pitch": 72, "velocity": 49, "note_on_time": 2.467, "note_off_time": 2.967}, {"pitch": 74, "velocity": 30, "note_on_time": 2.834, "note_off_time": 3.001}, {"pitch": 76, "velocity": 56, "note_on_time": 3.024, "note_off_time": 3.426}, {"pitch": 77, "velocity": 58, "note_on_time": 3.346, "note_off_time": 3.605}, {"pitch": 79, "velocity": 52, "note_on_time": 3.574, "note_off_time": 4.047}, {"pitch": 72, "velocity": 44, "note_on_time": 4.046, "note_off_time": 4.165}, {"pitch": 74, "velocity": 49, "note_on_time": 4.197, "note_off_time": 4.453}, {"pitch": 76, "velocity": 61, "note_on_time": 4.433, "note_off_time": 4.801}, {"pitch": 77, "velocity": 61, "note_on_time": 4.772, "note_off_time": 5.135}, {"pitch": 72, "velocity": 17, "note_on_time": 7.376, "note_off_time": 7.608}, {"pitch": 74, "velocity": 24, "note_on_time": 7.727, "note_off_time": 7.866}, {"pitch": 76, "velocity": 59, "note_on_time": 7.897, "note_off_time": 8.289}, {"pitch": 77, "velocity": 49, "note_on_time": 8.221, "note_off_time": 8.459}, {"pitch": 79, "velocity": 54, "note_on_time": 8.452, "note_off_time": 8.756}, {"pitch": 77, "velocity": 20, "note_on_time": 8.841, "note_off_time": 8.979}, {"pitch": 76, "velocity": 73, "note_on_time": 8.959, "note_off_time": 9.255}, {"pitch": 74, "velocity": 64, "note_on_time": 9.269, "note_off_time": 9.521}, {"pitch": 72, "velocity": 57, "note_on_time": 9.498, "note_off_time": 10.052}, {"pitch": 74, "velocity": 48, "note_on_time": 9.97, "note_off_time": 10.099}, {"pitch": 76, "velocity": 72, "note_on_time": 10.107, "note_off_time": 10.612}, {"pitch": 77, "velocity": 55, "note_on_time": 10.366, "note_off_time": 10.654}, {"pitch": 79, "velocity": 46, "note_on_time": 10.625, "note_off_time": 11.083}, {"pitch": 77, "velocity": 44, "note_on_time": 11.057, "note_off_time": 11.368}, {"pitch": 76, "velocity": 63, "note_on_time": 11.205, "note_off_time": 11.58}, {"pitch": 74, "velocity": 64, "note_on_time": 11.547, "note_off_time": 11.826}, {"pitch": 72, "velocity": 54, "note_on_time": 11.805, "note_off_time": 12.024}, {"pitch": 74, "velocity": 39, "note_on_time": 12.249, "note_off_time": 12.416}, {"pitch": 76, "velocity": 78, "note_on_time": 12.421, "note_off_time": 12.792}, {"pitch": 77, "velocity": 51, "note_on_time": 12.696, "note_off_time": 13.003}, {"pitch": 79, "velocity": 64, "note_on_time": 12.977, "note_off_time": 13.429}, {"pitch": 77, "velocity": 47, "note_on_time": 13.368, "note_off_time": 13.558}, {"pitch": 76, "velocity": 70, "note_on_time": 13.555, "note_off_time": 13.83}, {"pitch": 74, "velocity": 56, "note_on_time": 13.82, "note_off_time": 14.063}, {"pitch": 72, "velocity": 41, "note_on_time": 14.073, "note_off_time": 14.481}, {"pitch": 74, "velocity": 45, "note_on_time": 14.463, "note_off_time": 14.602}, {"pitch": 76, "velocity": 68, "note_on_time": 14.614, "note_off_time": 14.857}, {"pitch": 77, "velocity": 65, "note_on_time": 14.815, "note_off_time": 15.07}, {"pitch": 79, "velocity": 48, "note_on_time": 15.102, "note_off_time": 15.5}, {"pitch": 77, "velocity": 38, "note_on_time": 15.476, "note_off_time": 15.663}, {"pitch": 76, "velocity": 69, "note_on_time": 15.641, "note_off_time": 15.965}, {"pitch": 74, "velocity": 48, "note_on_time": 15.962, "note_off_time": 16.22}, {"pitch": 72, "velocity": 50, "note_on_time": 16.212, "note_off_time": 16.696}, {"pitch": 74, "velocity": 40, "note_on_time": 16.61, "note_off_time": 16.757}, {"pitch": 76, "velocity": 67, "note_on_time": 16.752, "note_off_time": 17.033}, {"pitch": 77, "velocity": 59, "note_on_time": 16.961, "note_off_time": 17.225}, {"pitch": 79, "velocity": 60, "note_on_time": 17.217, "note_off_time": 17.637}, {"pitch": 77, "velocity": 36, "note_on_time": 17.584, "note_off_time": 17.732}, {"pitch": 76, "velocity": 61, "note_on_time": 17.735, "note_off_time": 18.055}, {"pitch": 74, "velocity": 53, "note_on_time": 18.052, "note_off_time": 18.318}, {"pitch": 72, "velocity": 54, "note_on_time": 18.309, "note_off_time": 18.723}, {"pitch": 74, "velocity": 52, "note_on_time": 18.733, "note_off_time": 18.906}, {"pitch": 76, "velocity": 68, "note_on_time": 18.899, "note_off_time": 19.341}, {"pitch": 77, "velocity": 47, "note_on_time": 19.178, "note_off_time": 19.482}, {"pitch": 79, "velocity": 22, "note_on_time": 19.5, "note_off_time": 20.01}, {"pitch": 77, "velocity": 46, "note_on_time": 19.925, "note_off_time": 20.143}, {"pitch": 76, "velocity": 64, "note_on_time": 20.114, "note_off_time": 20.487}, {"pitch": 74, "velocity": 54, "note_on_time": 20.45, "note_off_time": 20.722}, {"pitch": 72, "velocity": 53, "note_on_time": 20.691, "note_off_time": 21.194}, {"pitch": 74, "velocity": 44, "note_on_time": 21.151, "note_off_time": 21.321}, {"pitch": 76, "velocity": 60, "note_on_time": 21.33, "note_off_time": 21.679}, {"pitch": 77, "velocity": 48, "note_on_time": 21.566, "note_off_time": 21.841}, {"pitch": 79, "velocity": 59, "note_on_time": 21.838, "note_off_time": 22.286}, {"pitch": 77, "velocity": 66, "note_on_time": 22.254, "note_off_time": 22.461}, {"pitch": 76, "velocity": 62, "note_on_time": 22.45, "note_off_time": 22.693}, {"pitch": 74, "velocity": 60, "note_on_time": 22.718, "note_off_time": 23.022}, {"pitch": 72, "velocity": 51, "note_on_time": 22.983, "note_off_time": 23.459}, {"pitch": 74, "velocity": 54, "note_on_time": 23.449, "note_off_time": 23.688}, {"pitch": 76, "velocity": 54, "note_on_time": 23.656, "note_off_time": 23.978}, {"pitch": 77, "velocity": 46, "note_on_time": 23.894, "note_off_time": 24.237}, {"pitch": 79, "velocity": 37, "note_on_time": 24.222, "note_off_time": 25.054}, {"pitch": 77, "velocity": 4, "note_on_time": 24.757, "note_off_time": 25.191}, {"pitch": 76, "velocity": 76, "note_on_time": 25.196, "note_off_time": 25.523}, {"pitch": 74, "velocity": 64, "note_on_time": 25.534, "note_off_time": 25.816}, {"pitch": 72, "velocity": 46, "note_on_time": 25.774, "note_off_time": 26.383}, {"pitch": 74, "velocity": 53, "note_on_time": 26.227, "note_off_time": 26.431}, {"pitch": 76, "velocity": 73, "note_on_time": 26.43, "note_off_time": 26.772}, {"pitch": 77, "velocity": 65, "note_on_time": 26.67, "note_off_time": 26.975}, {"pitch": 79, "velocity": 47, "note_on_time": 26.929, "note_off_time": 27.417}, {"pitch": 77, "velocity": 49, "note_on_time": 27.356, "note_off_time": 27.631}, {"pitch": 76, "velocity": 59, "note_on_time": 27.589, "note_off_time": 27.827}, {"pitch": 74, "velocity": 57, "note_on_time": 27.832, "note_off_time": 28.082}, {"pitch": 72, "velocity": 58, "note_on_time": 28.084, "note_off_time": 28.718}, {"pitch": 74, "velocity": 40, "note_on_time": 28.563, "note_off_time": 28.731}, {"pitch": 76, "velocity": 65, "note_on_time": 28.743, "note_off_time": 29.155}, {"pitch": 77, "velocity": 46, "note_on_time": 28.982, "note_off_time": 29.309}, {"pitch": 79, "velocity": 51, "note_on_time": 29.257, "note_off_time": 29.76}, {"pitch": 77, "velocity": 45, "note_on_time": 29.694, "note_off_time": 30.057}, {"pitch": 76, "velocity": 56, "note_on_time": 29.943, "note_off_time": 30.22}, {"pitch": 74, "velocity": 47, "note_on_time": 30.212, "note_off_time": 30.753}, {"pitch": 72, "velocity": 51, "note_on_time": 30.479, "note_off_time": 31.129}, {"pitch": 74, "velocity": 12, "note_on_time": 31.059, "note_off_time": 31.254}, {"pitch": 76, "velocity": 33, "note_on_time": 31.207, "note_off_time": 31.431}, {"pitch": 72, "velocity": 54, "note_on_time": 31.906, "note_off_time": 32.17}, {"pitch": 74, "velocity": 43, "note_on_time": 32.074, "note_off_time": 32.268}, {"pitch": 76, "velocity": 60, "note_on_time": 32.236, "note_off_time": 32.589}, {"pitch": 77, "velocity": 56, "note_on_time": 32.459, "note_off_time": 32.734}, {"pitch": 79, "velocity": 55, "note_on_time": 32.703, "note_off_time": 33.099}, {"pitch": 77, "velocity": 60, "note_on_time": 33.068, "note_off_time": 33.226}, {"pitch": 76, "velocity": 51, "note_on_time": 33.189, "note_off_time": 33.378}, {"pitch": 74, "velocity": 52, "note_on_time": 33.396, "note_off_time": 33.604}, {"pitch": 72, "velocity": 59, "note_on_time": 33.597, "note_off_time": 34.172}, {"pitch": 74, "velocity": 48, "note_on_time": 34.019, "note_off_time": 34.222}, {"pitch": 76, "velocity": 84, "note_on_time": 34.221, "note_off_time": 34.47}, {"pitch": 77, "velocity": 72, "note_on_time": 34.398, "note_off_time": 34.653}, {"pitch": 79, "velocity": 38, "note_on_time": 34.624, "note_off_time": 35.065}, {"pitch": 77, "velocity": 48, "note_on_time": 35.055, "note_off_time": 35.219}, {"pitch": 76, "velocity": 54, "note_on_time": 35.143, "note_off_time": 35.431}, {"pitch": 74, "velocity": 56, "note_on_time": 35.427, "note_off_time": 35.62}, {"pitch": 72, "velocity": 55, "note_on_time": 35.595, "note_off_time": 36.09}, {"pitch": 74, "velocity": 55, "note_on_time": 36.025, "note_off_time": 36.174}, {"pitch": 76, "velocity": 69, "note_on_time": 36.161, "note_off_time": 36.432}, {"pitch": 77, "velocity": 56, "note_on_time": 36.359, "note_off_time": 36.63}, {"pitch": 79, "velocity": 41, "note_on_time": 36.589, "note_off_time": 37.001}, {"pitch": 77, "velocity": 59, "note_on_time": 36.928, "note_off_time": 37.076}, {"pitch": 76, "velocity": 59, "note_on_time": 37.049, "note_off_time": 37.271}, {"pitch": 74, "velocity": 52, "note_on_time": 37.263, "note_off_time": 37.45}, {"pitch": 72, "velocity": 65, "note_on_time": 37.441, "note_off_time": 37.914}, {"pitch": 74, "velocity": 52, "note_on_time": 37.799, "note_off_time": 37.974}, {"pitch": 76, "velocity": 67, "note_on_time": 37.93, "note_off_time": 38.176}, {"pitch": 77, "velocity": 60, "note_on_time": 38.129, "note_off_time": 38.349}, {"pitch": 79, "velocity": 50, "note_on_time": 38.317, "note_off_time": 38.686}, {"pitch": 77, "velocity": 61, "note_on_time": 38.65, "note_off_time": 38.908}, {"pitch": 76, "velocity": 66, "note_on_time": 38.747, "note_off_time": 39.163}, {"pitch": 74, "velocity": 45, "note_on_time": 39.088, "note_off_time": 39.348}, {"pitch": 72, "velocity": 52, "note_on_time": 39.303, "note_off_time": 39.649}, {"pitch": 72, "velocity": 52, "note_on_time": 39.805, "note_off_time": 40.058}, {"pitch": 74, "velocity": 56, "note_on_time": 39.991, "note_off_time": 40.15}, {"pitch": 76, "velocity": 72, "note_on_time": 40.114, "note_off_time": 40.399}, {"pitch": 77, "velocity": 58, "note_on_time": 40.303, "note_off_time": 40.555}, {"pitch": 79, "velocity": 59, "note_on_time": 40.503, "note_off_time": 40.892}, {"pitch": 77, "velocity": 55, "note_on_time": 40.844, "note_off_time": 41.043}, {"pitch": 76, "velocity": 55, "note_on_time": 41.023, "note_off_time": 41.316}, {"pitch": 74, "velocity": 52, "note_on_time": 41.301, "note_off_time": 41.525}, {"pitch": 72, "velocity": 52, "note_on_time": 41.508, "note_off_time": 41.95}, {"pitch": 74, "velocity": 50, "note_on_time": 41.886, "note_off_time": 42.037}, {"pitch": 76, "velocity": 56, "note_on_time": 42.01, "note_off_time": 42.506}, {"pitch": 77, "velocity": 55, "note_on_time": 42.24, "note_off_time": 42.508}, {"pitch": 79, "velocity": 61, "note_on_time": 42.457, "note_off_time": 42.891}, {"pitch": 77, "velocity": 52, "note_on_time": 42.818, "note_off_time": 42.984}, {"pitch": 76, "velocity": 61, "note_on_time": 42.953, "note_off_time": 43.252}, {"pitch": 74, "velocity": 58, "note_on_time": 43.221, "note_off_time": 43.49}, {"pitch": 72, "velocity": 57, "note_on_time": 43.469, "note_off_time": 43.965}, {"pitch": 74, "velocity": 53, "note_on_time": 43.867, "note_off_time": 44.05}, {"pitch": 76, "velocity": 70, "note_on_time": 44.024, "note_off_time": 44.508}, {"pitch": 77, "velocity": 62, "note_on_time": 44.265, "note_off_time": 44.649}, {"pitch": 79, "velocity": 31, "note_on_time": 44.613, "note_off_time": 45.144}, {"pitch": 72, "velocity": 55, "note_on_time": 46.166, "note_off_time": 46.49}, {"pitch": 74, "velocity": 46, "note_on_time": 46.441, "note_off_time": 46.621}, {"pitch": 76, "velocity": 36, "note_on_time": 46.655, "note_off_time": 47.055}, {"pitch": 77, "velocity": 66, "note_on_time": 47.004, "note_off_time": 47.323}, {"pitch": 79, "velocity": 51, "note_on_time": 47.328, "note_off_time": 47.71}, {"pitch": 77, "velocity": 51, "note_on_time": 47.633, "note_off_time": 47.898}, {"pitch": 76, "velocity": 46, "note_on_time": 47.894, "note_off_time": 48.308}, {"pitch": 74, "velocity": 46, "note_on_time": 48.254, "note_off_time": 48.561}, {"pitch": 72, "velocity": 40, "note_on_time": 48.609, "note_off_time": 48.921}, {"pitch": 74, "velocity": 50, "note_on_time": 48.919, "note_off_time": 49.173}, {"pitch": 76, "velocity": 60, "note_on_time": 49.14, "note_off_time": 49.652}, {"pitch": 77, "velocity": 33, "note_on_time": 49.481, "note_off_time": 49.828}, {"pitch": 79, "velocity": 51, "note_on_time": 49.781, "note_off_time": 50.281}, {"pitch": 77, "velocity": 48, "note_on_time": 50.111, "note_off_time": 50.465}, {"pitch": 76, "velocity": 51, "note_on_time": 50.309, "note_off_time": 50.676}, {"pitch": 74, "velocity": 35, "note_on_time": 50.633, "note_off_time": 51.022}, {"pitch": 72, "velocity": 32, "note_on_time": 50.922, "note_off_time": 51.464}, {"pitch": 74, "velocity": 55, "note_on_time": 51.387, "note_off_time": 51.647}, {"pitch": 77, "velocity": 45, "note_on_time": 51.899, "note_off_time": 52.048}, {"pitch": 76, "velocity": 56, "note_on_time": 51.595, "note_off_time": 52.194}, {"pitch": 79, "velocity": 57, "note_on_time": 52.152, "note_off_time": 52.543}, {"pitch": 77, "velocity": 46, "note_on_time": 52.488, "note_off_time": 52.731}, {"pitch": 76, "velocity": 49, "note_on_time": 52.626, "note_off_time": 53.023}, {"pitch": 74, "velocity": 44, "note_on_time": 52.923, "note_off_time": 53.197}, {"pitch": 72, "velocity": 41, "note_on_time": 53.231, "note_off_time": 53.589}, {"pitch": 72, "velocity": 45, "note_on_time": 53.719, "note_off_time": 53.941}, {"pitch": 74, "velocity": 53, "note_on_time": 53.884, "note_off_time": 54.171}, {"pitch": 76, "velocity": 29, "note_on_time": 54.093, "note_off_time": 54.466}, {"pitch": 77, "velocity": 66, "note_on_time": 54.289, "note_off_time": 54.503}, {"pitch": 79, "velocity": 64, "note_on_time": 54.475, "note_off_time": 54.884}, {"pitch": 77, "velocity": 54, "note_on_time": 54.81, "note_off_time": 55.147}, {"pitch": 76, "velocity": 37, "note_on_time": 54.935, "note_off_time": 55.184}, {"pitch": 74, "velocity": 50, "note_on_time": 55.168, "note_off_time": 55.435}, {"pitch": 72, "velocity": 53, "note_on_time": 55.427, "note_off_time": 55.805}, {"pitch": 74, "velocity": 51, "note_on_time": 55.742, "note_off_time": 55.895}, {"pitch": 76, "velocity": 65, "note_on_time": 55.855, "note_off_time": 56.147}, {"pitch": 77, "velocity": 54, "note_on_time": 56.064, "note_off_time": 56.233}, {"pitch": 79, "velocity": 54, "note_on_time": 56.217, "note_off_time": 56.575}, {"pitch": 77, "velocity": 56, "note_on_time": 56.515, "note_off_time": 56.689}, {"pitch": 76, "velocity": 46, "note_on_time": 56.626, "note_off_time": 56.875}, {"pitch": 74, "velocity": 55, "note_on_time": 56.841, "note_off_time": 57.067}, {"pitch": 72, "velocity": 59, "note_on_time": 57.032, "note_off_time": 57.511}, {"pitch": 74, "velocity": 51, "note_on_time": 57.361, "note_off_time": 57.529}, {"pitch": 76, "velocity": 69, "note_on_time": 57.481, "note_off_time": 57.754}, {"pitch": 77, "velocity": 60, "note_on_time": 57.693, "note_off_time": 57.9}, {"pitch": 79, "velocity": 44, "note_on_time": 57.876, "note_off_time": 58.243}, {"pitch": 77, "velocity": 64, "note_on_time": 58.19, "note_off_time": 58.363}, {"pitch": 76, "velocity": 65, "note_on_time": 58.292, "note_off_time": 58.544}, {"pitch": 74, "velocity": 52, "note_on_time": 58.49, "note_off_time": 58.692}, {"pitch": 74, "velocity": 51, "note_on_time": 58.957, "note_off_time": 59.124}, {"pitch": 72, "velocity": 61, "note_on_time": 58.691, "note_off_time": 59.171}, {"pitch": 76, "velocity": 66, "note_on_time": 59.088, "note_off_time": 59.408}, {"pitch": 77, "velocity": 56, "note_on_time": 59.32, "note_off_time": 59.504}, {"pitch": 79, "velocity": 49, "note_on_time": 59.469, "note_off_time": 59.869}, {"pitch": 77, "velocity": 59, "note_on_time": 59.81, "note_off_time": 59.982}, {"pitch": 76, "velocity": 56, "note_on_time": 59.899, "note_off_time": 60.173}, {"pitch": 74, "velocity": 60, "note_on_time": 60.162, "note_off_time": 60.361}, {"pitch": 72, "velocity": 62, "note_on_time": 60.354, "note_off_time": 60.702}, {"pitch": 74, "velocity": 53, "note_on_time": 60.628, "note_off_time": 60.831}, {"pitch": 76, "velocity": 65, "note_on_time": 60.777, "note_off_time": 61.095}, {"pitch": 79, "velocity": 18, "note_on_time": 61.147, "note_off_time": 61.539}, {"pitch": 72, "velocity": 50, "note_on_time": 61.923, "note_off_time": 62.205}, {"pitch": 74, "velocity": 50, "note_on_time": 62.081, "note_off_time": 62.282}, {"pitch": 76, "velocity": 66, "note_on_time": 62.22, "note_off_time": 62.816}, {"pitch": 77, "velocity": 50, "note_on_time": 62.648, "note_off_time": 62.968}, {"pitch": 79, "velocity": 49, "note_on_time": 62.945, "note_off_time": 63.408}, {"pitch": 72, "velocity": 38, "note_on_time": 63.354, "note_off_time": 63.587}, {"pitch": 74, "velocity": 56, "note_on_time": 63.566, "note_off_time": 63.823}, {"pitch": 76, "velocity": 64, "note_on_time": 63.766, "note_off_time": 64.113}, {"pitch": 77, "velocity": 48, "note_on_time": 64.001, "note_off_time": 64.14}, {"pitch": 79, "velocity": 40, "note_on_time": 64.079, "note_off_time": 64.486}, {"pitch": 72, "velocity": 69, "note_on_time": 65.581, "note_off_time": 65.849}, {"pitch": 74, "velocity": 56, "note_on_time": 65.83, "note_off_time": 66.046}, {"pitch": 76, "velocity": 46, "note_on_time": 66.032, "note_off_time": 66.704}, {"pitch": 77, "velocity": 70, "note_on_time": 66.46, "note_off_time": 66.832}, {"pitch": 79, "velocity": 51, "note_on_time": 66.779, "note_off_time": 67.243}, {"pitch": 77, "velocity": 64, "note_on_time": 67.077, "note_off_time": 67.38}, {"pitch": 76, "velocity": 60, "note_on_time": 67.282, "note_off_time": 67.583}, {"pitch": 74, "velocity": 63, "note_on_time": 67.537, "note_off_time": 67.791}, {"pitch": 72, "velocity": 65, "note_on_time": 67.766, "note_off_time": 68.247}, {"pitch": 74, "velocity": 53, "note_on_time": 68.038, "note_off_time": 68.274}, {"pitch": 76, "velocity": 54, "note_on_time": 68.236, "note_off_time": 68.844}, {"pitch": 77, "velocity": 35, "note_on_time": 68.513, "note_off_time": 68.906}, {"pitch": 79, "velocity": 56, "note_on_time": 68.769, "note_off_time": 69.389}, {"pitch": 77, "velocity": 43, "note_on_time": 69.215, "note_off_time": 69.49}, {"pitch": 76, "velocity": 42, "note_on_time": 69.351, "note_off_time": 69.713}, {"pitch": 74, "velocity": 49, "note_on_time": 69.581, "note_off_time": 69.811}, {"pitch": 74, "velocity": 39, "note_on_time": 70.168, "note_off_time": 70.516}, {"pitch": 77, "velocity": 51, "note_on_time": 70.682, "note_off_time": 70.915}, {"pitch": 76, "velocity": 52, "note_on_time": 70.365, "note_off_time": 70.934}, {"pitch": 72, "velocity": 50, "note_on_time": 69.791, "note_off_time": 71.08}, {"pitch": 74, "velocity": 48, "note_on_time": 71.624, "note_off_time": 71.906}, {"pitch": 72, "velocity": 47, "note_on_time": 71.393, "note_off_time": 71.978}, {"pitch": 76, "velocity": 60, "note_on_time": 71.833, "note_off_time": 72.187}, {"pitch": 79, "velocity": 22, "note_on_time": 72.151, "note_off_time": 72.42}, {"pitch": 74, "velocity": 51, "note_on_time": 75.62, "note_off_time": 75.813}, {"pitch": 72, "velocity": 42, "note_on_time": 75.34, "note_off_time": 75.823}, {"pitch": 76, "velocity": 34, "note_on_time": 75.822, "note_off_time": 76.444}, {"pitch": 77, "velocity": 45, "note_on_time": 76.204, "note_off_time": 76.521}, {"pitch": 79, "velocity": 56, "note_on_time": 76.493, "note_off_time": 76.955}, {"pitch": 77, "velocity": 54, "note_on_time": 76.809, "note_off_time": 77.054}, {"pitch": 76, "velocity": 53, "note_on_time": 77.01, "note_off_time": 77.396}, {"pitch": 74, "velocity": 60, "note_on_time": 77.302, "note_off_time": 77.67}, {"pitch": 72, "velocity": 52, "note_on_time": 77.631, "note_off_time": 78.005}, {"pitch": 74, "velocity": 57, "note_on_time": 77.935, "note_off_time": 78.156}, {"pitch": 76, "velocity": 56, "note_on_time": 78.102, "note_off_time": 78.681}, {"pitch": 77, "velocity": 61, "note_on_time": 78.406, "note_off_time": 78.771}, {"pitch": 77, "velocity": 45, "note_on_time": 79.038, "note_off_time": 79.271}, {"pitch": 79, "velocity": 51, "note_on_time": 78.708, "note_off_time": 79.396}, {"pitch": 76, "velocity": 53, "note_on_time": 79.158, "note_off_time": 79.677}, {"pitch": 74, "velocity": 57, "note_on_time": 79.44, "note_off_time": 79.734}, {"pitch": 72, "velocity": 53, "note_on_time": 79.717, "note_off_time": 79.92}, {"pitch": 72, "velocity": 51, "note_on_time": 80.07, "note_off_time": 80.329}, {"pitch": 74, "velocity": 56, "note_on_time": 80.265, "note_off_time": 80.538}, {"pitch": 76, "velocity": 57, "note_on_time": 80.477, "note_off_time": 80.841}, {"pitch": 77, "velocity": 55, "note_on_time": 80.732, "note_off_time": 81.049}, {"pitch": 79, "velocity": 57, "note_on_time": 80.999, "note_off_time": 81.392}, {"pitch": 77, "velocity": 62, "note_on_time": 81.37, "note_off_time": 81.69}, {"pitch": 76, "velocity": 57, "note_on_time": 81.515, "note_off_time": 81.847}, {"pitch": 74, "velocity": 55, "note_on_time": 81.811, "note_off_time": 82.023}, {"pitch": 72, "velocity": 46, "note_on_time": 82.028, "note_off_time": 82.404}, {"pitch": 74, "velocity": 55, "note_on_time": 82.377, "note_off_time": 82.542}, {"pitch": 76, "velocity": 55, "note_on_time": 82.523, "note_off_time": 82.816}, {"pitch": 77, "velocity": 67, "note_on_time": 82.76, "note_off_time": 83.065}, {"pitch": 77, "velocity": 1, "note_on_time": 83.233, "note_off_time": 83.405}, {"pitch": 79, "velocity": 1, "note_on_time": 83.253, "note_off_time": 83.701}, {"pitch": 79, "velocity": 42, "note_on_time": 83.799, "note_off_time": 84.304}, {"pitch": 77, "velocity": 39, "note_on_time": 84.233, "note_off_time": 84.321}, {"pitch": 76, "velocity": 49, "note_on_time": 84.333, "note_off_time": 84.72}, {"pitch": 74, "velocity": 61, "note_on_time": 84.622, "note_off_time": 84.893}, {"pitch": 72, "velocity": 59, "note_on_time": 84.836, "note_off_time": 85.48}, {"pitch": 74, "velocity": 49, "note_on_time": 85.269, "note_off_time": 85.489}, {"pitch": 76, "velocity": 63, "note_on_time": 85.463, "note_off_time": 85.87}, {"pitch": 77, "velocity": 60, "note_on_time": 85.722, "note_off_time": 86.087}, {"pitch": 77, "velocity": 57, "note_on_time": 86.454, "note_off_time": 86.717}, {"pitch": 76, "velocity": 60, "note_on_time": 86.611, "note_off_time": 86.896}, {"pitch": 79, "velocity": 40, "note_on_time": 86.044, "note_off_time": 87.098}, {"pitch": 74, "velocity": 61, "note_on_time": 86.852, "note_off_time": 87.109}, {"pitch": 72, "velocity": 56, "note_on_time": 87.104, "note_off_time": 87.581}, {"pitch": 74, "velocity": 60, "note_on_time": 87.487, "note_off_time": 87.672}, {"pitch": 76, "velocity": 52, "note_on_time": 87.633, "note_off_time": 88.059}, {"pitch": 77, "velocity": 57, "note_on_time": 87.881, "note_off_time": 88.249}, {"pitch": 79, "velocity": 58, "note_on_time": 88.161, "note_off_time": 88.701}, {"pitch": 77, "velocity": 38, "note_on_time": 88.568, "note_off_time": 88.864}, {"pitch": 76, "velocity": 1, "note_on_time": 88.713, "note_off_time": 89.075}, {"pitch": 74, "velocity": 55, "note_on_time": 89.015, "note_off_time": 89.292}, {"pitch": 72, "velocity": 51, "note_on_time": 89.262, "note_off_time": 89.896}, {"pitch": 74, "velocity": 42, "note_on_time": 89.749, "note_off_time": 89.897}, {"pitch": 76, "velocity": 70, "note_on_time": 89.872, "note_off_time": 90.244}, {"pitch": 77, "velocity": 61, "note_on_time": 90.123, "note_off_time": 90.516}, {"pitch": 81, "velocity": 41, "note_on_time": 90.486, "note_off_time": 90.662}, {"pitch": 79, "velocity": 42, "note_on_time": 90.473, "note_off_time": 90.801}, {"pitch": 72, "velocity": 54, "note_on_time": 91.557, "note_off_time": 91.882}, {"pitch": 74, "velocity": 60, "note_on_time": 91.849, "note_off_time": 91.99}, {"pitch": 76, "velocity": 52, "note_on_time": 91.978, "note_off_time": 92.319}, {"pitch": 77, "velocity": 59, "note_on_time": 92.213, "note_off_time": 92.544}, {"pitch": 79, "velocity": 71, "note_on_time": 92.446, "note_off_time": 92.919}, {"pitch": 72, "velocity": 56, "note_on_time": 92.939, "note_off_time": 93.182}, {"pitch": 74, "velocity": 50, "note_on_time": 93.213, "note_off_time": 93.316}, {"pitch": 76, "velocity": 63, "note_on_time": 93.305, "note_off_time": 93.603}, {"pitch": 77, "velocity": 66, "note_on_time": 93.539, "note_off_time": 93.817}, {"pitch": 79, "velocity": 42, "note_on_time": 93.812, "note_off_time": 94.138}, {"pitch": 77, "velocity": 62, "note_on_time": 94.064, "note_off_time": 94.305}, {"pitch": 76, "velocity": 60, "note_on_time": 94.226, "note_off_time": 94.508}, {"pitch": 74, "velocity": 51, "note_on_time": 94.473, "note_off_time": 94.71}, {"pitch": 72, "velocity": 56, "note_on_time": 94.7, "note_off_time": 95.046}, {"pitch": 74, "velocity": 52, "note_on_time": 94.99, "note_off_time": 95.138}, {"pitch": 76, "velocity": 64, "note_on_time": 95.099, "note_off_time": 95.469}, {"pitch": 77, "velocity": 58, "note_on_time": 95.316, "note_off_time": 95.676}, {"pitch": 77, "velocity": 57, "note_on_time": 95.926, "note_off_time": 96.151}, {"pitch": 79, "velocity": 33, "note_on_time": 95.583, "note_off_time": 96.197}, {"pitch": 76, "velocity": 41, "note_on_time": 96.03, "note_off_time": 96.368}, {"pitch": 74, "velocity": 52, "note_on_time": 96.29, "note_off_time": 96.526}, {"pitch": 72, "velocity": 59, "note_on_time": 96.517, "note_off_time": 96.978}, {"pitch": 74, "velocity": 52, "note_on_time": 96.791, "note_off_time": 97.01}, {"pitch": 76, "velocity": 60, "note_on_time": 96.956, "note_off_time": 97.647}, {"pitch": 77, "velocity": 44, "note_on_time": 97.245, "note_off_time": 97.691}, {"pitch": 77, "velocity": 58, "note_on_time": 98.039, "note_off_time": 98.359}, {"pitch": 76, "velocity": 48, "note_on_time": 98.247, "note_off_time": 98.509}, {"pitch": 79, "velocity": 17, "note_on_time": 97.651, "note_off_time": 98.585}, {"pitch": 74, "velocity": 55, "note_on_time": 98.483, "note_off_time": 98.769}, {"pitch": 74, "velocity": 39, "note_on_time": 99.15, "note_off_time": 99.319}, {"pitch": 72, "velocity": 61, "note_on_time": 98.743, "note_off_time": 99.448}, {"pitch": 79, "velocity": 45, "note_on_time": 100.827, "note_off_time": 101.239}, {"pitch": 77, "velocity": 50, "note_on_time": 101.156, "note_off_time": 101.584}, {"pitch": 76, "velocity": 43, "note_on_time": 101.389, "note_off_time": 101.982}, {"pitch": 74, "velocity": 55, "note_on_time": 101.64, "note_off_time": 102.126}, {"pitch": 72, "velocity": 49, "note_on_time": 102.008, "note_off_time": 102.306}, {"pitch": 79, "velocity": 52, "note_on_time": 102.295, "note_off_time": 102.735}, {"pitch": 77, "velocity": 42, "note_on_time": 102.631, "note_off_time": 102.809}, {"pitch": 76, "velocity": 62, "note_on_time": 102.801, "note_off_time": 103.042}, {"pitch": 74, "velocity": 49, "note_on_time": 103.035, "note_off_time": 103.434}, {"pitch": 72, "velocity": 51, "note_on_time": 103.283, "note_off_time": 103.692}, {"pitch": 74, "velocity": 51, "note_on_time": 103.685, "note_off_time": 103.793}, {"pitch": 76, "velocity": 71, "note_on_time": 103.786, "note_off_time": 104.101}, {"pitch": 77, "velocity": 55, "note_on_time": 104.035, "note_off_time": 104.308}, {"pitch": 79, "velocity": 49, "note_on_time": 104.264, "note_off_time": 104.772}, {"pitch": 77, "velocity": 64, "note_on_time": 104.648, "note_off_time": 104.889}, {"pitch": 76, "velocity": 26, "note_on_time": 104.853, "note_off_time": 105.126}, {"pitch": 74, "velocity": 56, "note_on_time": 105.086, "note_off_time": 105.353}, {"pitch": 72, "velocity": 54, "note_on_time": 105.345, "note_off_time": 105.814}, {"pitch": 74, "velocity": 49, "note_on_time": 105.759, "note_off_time": 105.916}, {"pitch": 76, "velocity": 59, "note_on_time": 105.884, "note_off_time": 106.457}, {"pitch": 77, "velocity": 48, "note_on_time": 106.105, "note_off_time": 106.578}, {"pitch": 79, "velocity": 28, "note_on_time": 106.446, "note_off_time": 107.056}, {"pitch": 77, "velocity": 55, "note_on_time": 106.907, "note_off_time": 107.12}, {"pitch": 76, "velocity": 52, "note_on_time": 107.101, "note_off_time": 107.389}, {"pitch": 74, "velocity": 52, "note_on_time": 107.324, "note_off_time": 107.528}, {"pitch": 74, "velocity": 32, "note_on_time": 107.932, "note_off_time": 108.07}, {"pitch": 72, "velocity": 66, "note_on_time": 107.526, "note_off_time": 108.116}, {"pitch": 76, "velocity": 60, "note_on_time": 108.054, "note_off_time": 108.396}, {"pitch": 77, "velocity": 54, "note_on_time": 108.313, "note_off_time": 108.652}, {"pitch": 79, "velocity": 51, "note_on_time": 108.592, "note_off_time": 109.08}, {"pitch": 77, "velocity": 46, "note_on_time": 108.992, "note_off_time": 109.217}, {"pitch": 76, "velocity": 43, "note_on_time": 109.146, "note_off_time": 109.459}, {"pitch": 74, "velocity": 45, "note_on_time": 109.43, "note_off_time": 109.723}, {"pitch": 74, "velocity": 1, "note_on_time": 110.345, "note_off_time": 110.464}, {"pitch": 72, "velocity": 48, "note_on_time": 109.697, "note_off_time": 110.475}, {"pitch": 76, "velocity": 55, "note_on_time": 110.413, "note_off_time": 110.79}, {"pitch": 77, "velocity": 50, "note_on_time": 110.622, "note_off_time": 110.86}, {"pitch": 79, "velocity": 45, "note_on_time": 110.732, "note_off_time": 111.391}, {"pitch": 77, "velocity": 47, "note_on_time": 111.305, "note_off_time": 111.591}, {"pitch": 76, "velocity": 58, "note_on_time": 111.489, "note_off_time": 111.731}, {"pitch": 74, "velocity": 62, "note_on_time": 111.707, "note_off_time": 111.935}, {"pitch": 72, "velocity": 63, "note_on_time": 111.926, "note_off_time": 112.489}, {"pitch": 74, "velocity": 50, "note_on_time": 112.292, "note_off_time": 112.526}, {"pitch": 79, "velocity": 41, "note_on_time": 112.722, "note_off_time": 112.907}, {"pitch": 76, "velocity": 61, "note_on_time": 112.473, "note_off_time": 113.045}, {"pitch": 77, "velocity": 65, "note_on_time": 112.924, "note_off_time": 113.087}, {"pitch": 72, "velocity": 46, "note_on_time": 113.605, "note_off_time": 113.873}, {"pitch": 74, "velocity": 52, "note_on_time": 113.81, "note_off_time": 113.999}, {"pitch": 76, "velocity": 58, "note_on_time": 113.975, "note_off_time": 114.378}, {"pitch": 77, "velocity": 58, "note_on_time": 114.2, "note_off_time": 114.553}, {"pitch": 79, "velocity": 31, "note_on_time": 114.546, "note_off_time": 115.013}, {"pitch": 77, "velocity": 43, "note_on_time": 114.846, "note_off_time": 115.022}, {"pitch": 76, "velocity": 48, "note_on_time": 115.007, "note_off_time": 115.304}, {"pitch": 74, "velocity": 47, "note_on_time": 115.268, "note_off_time": 115.546}, {"pitch": 72, "velocity": 50, "note_on_time": 115.525, "note_off_time": 115.942}, {"pitch": 79, "velocity": 49, "note_on_time": 115.927, "note_off_time": 116.375}, {"pitch": 77, "velocity": 34, "note_on_time": 116.22, "note_off_time": 116.441}, {"pitch": 76, "velocity": 52, "note_on_time": 116.373, "note_off_time": 116.591}, {"pitch": 74, "velocity": 54, "note_on_time": 116.581, "note_off_time": 116.795}, {"pitch": 72, "velocity": 58, "note_on_time": 116.773, "note_off_time": 117.249}, {"pitch": 74, "velocity": 48, "note_on_time": 117.069, "note_off_time": 117.311}, {"pitch": 76, "velocity": 54, "note_on_time": 117.24, "note_off_time": 117.653}, {"pitch": 77, "velocity": 51, "note_on_time": 117.489, "note_off_time": 117.793}, {"pitch": 79, "velocity": 47, "note_on_time": 117.71, "note_off_time": 118.148}, {"pitch": 77, "velocity": 40, "note_on_time": 118.028, "note_off_time": 118.185}, {"pitch": 76, "velocity": 55, "note_on_time": 118.124, "note_off_time": 118.424}, {"pitch": 74, "velocity": 48, "note_on_time": 118.352, "note_off_time": 118.597}, {"pitch": 72, "velocity": 60, "note_on_time": 118.559, "note_off_time": 118.916}, {"pitch": 74, "velocity": 53, "note_on_time": 118.897, "note_off_time": 119.029}, {"pitch": 76, "velocity": 63, "note_on_time": 119.009, "note_off_time": 119.362}, {"pitch": 77, "velocity": 57, "note_on_time": 119.232, "note_off_time": 119.648}, {"pitch": 79, "velocity": 39, "note_on_time": 119.439, "note_off_time": 120.031}, {"pitch": 77, "velocity": 38, "note_on_time": 120.011, "note_off_time": 120.087}, {"pitch": 76, "velocity": 63, "note_on_time": 120.064, "note_off_time": 120.377}, {"pitch": 74, "velocity": 53, "note_on_time": 120.34, "note_off_time": 120.566}, {"pitch": 72, "velocity": 61, "note_on_time": 120.534, "note_off_time": 120.868}, {"pitch": 74, "velocity": 54, "note_on_time": 120.875, "note_off_time": 121.089}, {"pitch": 76, "velocity": 62, "note_on_time": 121.028, "note_off_time": 121.443}, {"pitch": 77, "velocity": 53, "note_on_time": 121.245, "note_off_time": 121.566}, {"pitch": 79, "velocity": 48, "note_on_time": 121.504, "note_off_time": 121.938}, {"pitch": 77, "velocity": 46, "note_on_time": 121.85, "note_off_time": 122.137}, {"pitch": 76, "velocity": 59, "note_on_time": 122.04, "note_off_time": 122.391}, {"pitch": 74, "velocity": 49, "note_on_time": 122.326, "note_off_time": 122.581}, {"pitch": 72, "velocity": 45, "note_on_time": 122.569, "note_off_time": 123.169}, {"pitch": 74, "velocity": 51, "note_on_time": 123.095, "note_off_time": 123.274}, {"pitch": 76, "velocity": 55, "note_on_time": 123.244, "note_off_time": 123.603}, {"pitch": 77, "velocity": 54, "note_on_time": 123.506, "note_off_time": 123.927}, {"pitch": 77, "velocity": 54, "note_on_time": 124.249, "note_off_time": 124.52}, {"pitch": 76, "velocity": 52, "note_on_time": 124.413, "note_off_time": 124.705}, {"pitch": 79, "velocity": 37, "note_on_time": 123.821, "note_off_time": 124.806}, {"pitch": 74, "velocity": 50, "note_on_time": 124.664, "note_off_time": 124.91}, {"pitch": 72, "velocity": 57, "note_on_time": 124.878, "note_off_time": 125.395}, {"pitch": 74, "velocity": 47, "note_on_time": 125.325, "note_off_time": 125.515}, {"pitch": 76, "velocity": 46, "note_on_time": 125.47, "note_off_time": 125.791}, {"pitch": 77, "velocity": 48, "note_on_time": 125.737, "note_off_time": 126.05}, {"pitch": 77, "velocity": 23, "note_on_time": 126.373, "note_off_time": 126.666}, {"pitch": 79, "velocity": 21, "note_on_time": 125.906, "note_off_time": 126.768}, {"pitch": 72, "velocity": 56, "note_on_time": 127.513, "note_off_time": 127.802}, {"pitch": 74, "velocity": 53, "note_on_time": 127.791, "note_off_time": 128.134}, {"pitch": 76, "velocity": 60, "note_on_time": 128.074, "note_off_time": 128.466}, {"pitch": 77, "velocity": 57, "note_on_time": 128.388, "note_off_time": 128.761}, {"pitch": 79, "velocity": 58, "note_on_time": 128.677, "note_off_time": 129.153}, {"pitch": 72, "velocity": 33, "note_on_time": 129.107, "note_off_time": 129.518}, {"pitch": 74, "velocity": 54, "note_on_time": 129.491, "note_off_time": 129.704}, {"pitch": 76, "velocity": 57, "note_on_time": 129.703, "note_off_time": 130.02}, {"pitch": 77, "velocity": 61, "note_on_time": 129.96, "note_off_time": 130.294}, {"pitch": 79, "velocity": 61, "note_on_time": 130.238, "note_off_time": 130.68}, {"pitch": 77, "velocity": 42, "note_on_time": 130.517, "note_off_time": 130.878}, {"pitch": 76, "velocity": 37, "note_on_time": 130.788, "note_off_time": 131.076}, {"pitch": 74, "velocity": 50, "note_on_time": 131.03, "note_off_time": 131.255}, {"pitch": 72, "velocity": 60, "note_on_time": 131.241, "note_off_time": 131.501}, {"pitch": 74, "velocity": 58, "note_on_time": 131.5, "note_off_time": 131.691}, {"pitch": 76, "velocity": 58, "note_on_time": 131.665, "note_off_time": 131.945}, {"pitch": 77, "velocity": 64, "note_on_time": 131.895, "note_off_time": 132.181}, {"pitch": 77, "velocity": 60, "note_on_time": 132.597, "note_off_time": 132.863}, {"pitch": 76, "velocity": 46, "note_on_time": 132.749, "note_off_time": 133.065}, {"pitch": 79, "velocity": 29, "note_on_time": 132.207, "note_off_time": 133.083}, {"pitch": 74, "velocity": 50, "note_on_time": 133.001, "note_off_time": 133.284}, {"pitch": 72, "velocity": 47, "note_on_time": 133.269, "note_off_time": 133.615}, {"pitch": 74, "velocity": 47, "note_on_time": 133.59, "note_off_time": 133.752}, {"pitch": 76, "velocity": 58, "note_on_time": 133.717, "note_off_time": 134.014}, {"pitch": 77, "velocity": 57, "note_on_time": 133.936, "note_off_time": 134.185}, {"pitch": 76, "velocity": 49, "note_on_time": 134.17, "note_off_time": 134.746}, {"pitch": 74, "velocity": 47, "note_on_time": 134.66, "note_off_time": 134.965}, {"pitch": 77, "velocity": 58, "note_on_time": 134.97, "note_off_time": 135.358}, {"pitch": 74, "velocity": 49, "note_on_time": 135.369, "note_off_time": 135.667}, {"pitch": 76, "velocity": 25, "note_on_time": 135.724, "note_off_time": 136.197}, {"pitch": 72, "velocity": 38, "note_on_time": 136.347, "note_off_time": 136.477}, {"pitch": 76, "velocity": 40, "note_on_time": 136.551, "note_off_time": 136.663}, {"pitch": 74, "velocity": 46, "note_on_time": 136.106, "note_off_time": 136.779}, {"pitch": 72, "velocity": 36, "note_on_time": 137.26, "note_off_time": 137.635}, {"pitch": 74, "velocity": 40, "note_on_time": 137.542, "note_off_time": 137.726}, {"pitch": 76, "velocity": 30, "note_on_time": 137.625, "note_off_time": 137.959}, {"pitch": 77, "velocity": 62, "note_on_time": 137.849, "note_off_time": 138.213}, {"pitch": 76, "velocity": 58, "note_on_time": 138.16, "note_off_time": 138.382}, {"pitch": 74, "velocity": 56, "note_on_time": 138.381, "note_off_time": 138.639}, {"pitch": 76, "velocity": 33, "note_on_time": 138.67, "note_off_time": 139.09}, {"pitch": 77, "velocity": 56, "note_on_time": 138.854, "note_off_time": 139.1}, {"pitch": 79, "velocity": 44, "note_on_time": 139.055, "note_off_time": 139.947}, {"pitch": 77, "velocity": 24, "note_on_time": 139.698, "note_off_time": 139.992}, {"pitch": 76, "velocity": 54, "note_on_time": 139.897, "note_off_time": 140.149}, {"pitch": 74, "velocity": 52, "note_on_time": 140.124, "note_off_time": 140.364}, {"pitch": 72, "velocity": 63, "note_on_time": 140.36, "note_off_time": 140.597}, {"pitch": 74, "velocity": 61, "note_on_time": 140.598, "note_off_time": 140.736}, {"pitch": 76, "velocity": 68, "note_on_time": 140.716, "note_off_time": 140.98}, {"pitch": 77, "velocity": 64, "note_on_time": 140.909, "note_off_time": 141.299}, {"pitch": 77, "velocity": 57, "note_on_time": 141.547, "note_off_time": 141.715}, {"pitch": 79, "velocity": 36, "note_on_time": 141.19, "note_off_time": 141.724}, {"pitch": 76, "velocity": 54, "note_on_time": 141.659, "note_off_time": 141.896}, {"pitch": 74, "velocity": 63, "note_on_time": 141.871, "note_off_time": 142.094}, {"pitch": 72, "velocity": 69, "note_on_time": 142.083, "note_off_time": 142.358}, {"pitch": 74, "velocity": 48, "note_on_time": 142.378, "note_off_time": 142.677}, {"pitch": 76, "velocity": 70, "note_on_time": 142.492, "note_off_time": 142.82}, {"pitch": 77, "velocity": 56, "note_on_time": 142.724, "note_off_time": 142.947}, {"pitch": 79, "velocity": 42, "note_on_time": 142.933, "note_off_time": 143.327}, {"pitch": 77, "velocity": 50, "note_on_time": 143.229, "note_off_time": 143.517}, {"pitch": 76, "velocity": 53, "note_on_time": 143.342, "note_off_time": 143.57}, {"pitch": 74, "velocity": 49, "note_on_time": 143.545, "note_off_time": 143.768}, {"pitch": 72, "velocity": 55, "note_on_time": 143.788, "note_off_time": 144.117}, {"pitch": 74, "velocity": 60, "note_on_time": 144.113, "note_off_time": 144.255}, {"pitch": 76, "velocity": 66, "note_on_time": 144.23, "note_off_time": 144.521}, {"pitch": 77, "velocity": 61, "note_on_time": 144.448, "note_off_time": 144.724}, {"pitch": 79, "velocity": 53, "note_on_time": 144.673, "note_off_time": 145.046}, {"pitch": 77, "velocity": 59, "note_on_time": 144.985, "note_off_time": 145.122}, {"pitch": 76, "velocity": 53, "note_on_time": 145.102, "note_off_time": 145.375}, {"pitch": 74, "velocity": 62, "note_on_time": 145.348, "note_off_time": 145.552}, {"pitch": 72, "velocity": 53, "note_on_time": 145.56, "note_off_time": 145.834}, {"pitch": 74, "velocity": 57, "note_on_time": 145.829, "note_off_time": 145.963}, {"pitch": 76, "velocity": 65, "note_on_time": 145.947, "note_off_time": 146.239}, {"pitch": 77, "velocity": 62, "note_on_time": 146.154, "note_off_time": 146.452}, {"pitch": 79, "velocity": 58, "note_on_time": 146.423, "note_off_time": 146.815}, {"pitch": 77, "velocity": 53, "note_on_time": 146.746, "note_off_time": 146.884}, {"pitch": 76, "velocity": 40, "note_on_time": 146.899, "note_off_time": 147.103}, {"pitch": 74, "velocity": 48, "note_on_time": 147.107, "note_off_time": 147.306}, {"pitch": 72, "velocity": 64, "note_on_time": 147.324, "note_off_time": 147.538}, {"pitch": 74, "velocity": 48, "note_on_time": 147.56, "note_off_time": 147.681}, {"pitch": 76, "velocity": 65, "note_on_time": 147.686, "note_off_time": 147.962}, {"pitch": 77, "velocity": 62, "note_on_time": 147.885, "note_off_time": 148.186}, {"pitch": 79, "velocity": 21, "note_on_time": 148.211, "note_off_time": 148.659}, {"pitch": 77, "velocity": 59, "note_on_time": 148.602, "note_off_time": 148.748}, {"pitch": 76, "velocity": 62, "note_on_time": 148.711, "note_off_time": 148.933}, {"pitch": 74, "velocity": 61, "note_on_time": 148.909, "note_off_time": 149.105}, {"pitch": 72, "velocity": 68, "note_on_time": 149.11, "note_off_time": 149.427}, {"pitch": 74, "velocity": 54, "note_on_time": 149.426, "note_off_time": 149.541}, {"pitch": 76, "velocity": 66, "note_on_time": 149.502, "note_off_time": 149.789}, {"pitch": 77, "velocity": 63, "note_on_time": 149.699, "note_off_time": 149.991}, {"pitch": 79, "velocity": 50, "note_on_time": 149.926, "note_off_time": 150.395}, {"pitch": 77, "velocity": 60, "note_on_time": 150.32, "note_off_time": 150.56}, {"pitch": 76, "velocity": 54, "note_on_time": 150.494, "note_off_time": 150.698}, {"pitch": 74, "velocity": 57, "note_on_time": 150.679, "note_off_time": 150.914}, {"pitch": 72, "velocity": 70, "note_on_time": 150.911, "note_off_time": 151.161}, {"pitch": 74, "velocity": 57, "note_on_time": 151.187, "note_off_time": 151.331}, {"pitch": 76, "velocity": 67, "note_on_time": 151.306, "note_off_time": 151.662}, {"pitch": 77, "velocity": 58, "note_on_time": 151.519, "note_off_time": 151.85}, {"pitch": 79, "velocity": 13, "note_on_time": 151.809, "note_off_time": 152.278}, {"pitch": 77, "velocity": 54, "note_on_time": 152.2, "note_off_time": 152.418}, {"pitch": 76, "velocity": 44, "note_on_time": 152.386, "note_off_time": 152.588}, {"pitch": 74, "velocity": 61, "note_on_time": 152.583, "note_off_time": 152.797}, {"pitch": 72, "velocity": 59, "note_on_time": 152.783, "note_off_time": 152.979}, {"pitch": 74, "velocity": 18, "note_on_time": 153.117, "note_off_time": 153.211}, {"pitch": 72, "velocity": 8, "note_on_time": 153.146, "note_off_time": 153.493}, {"pitch": 72, "velocity": 62, "note_on_time": 153.672, "note_off_time": 153.938}, {"pitch": 74, "velocity": 64, "note_on_time": 153.873, "note_off_time": 153.994}, {"pitch": 76, "velocity": 69, "note_on_time": 153.963, "note_off_time": 154.259}, {"pitch": 77, "velocity": 61, "note_on_time": 154.178, "note_off_time": 154.479}, {"pitch": 79, "velocity": 57, "note_on_time": 154.421, "note_off_time": 154.749}, {"pitch": 77, "velocity": 70, "note_on_time": 154.751, "note_off_time": 154.89}, {"pitch": 76, "velocity": 53, "note_on_time": 155.042, "note_off_time": 155.188}, {"pitch": 74, "velocity": 49, "note_on_time": 155.141, "note_off_time": 155.398}, {"pitch": 72, "velocity": 64, "note_on_time": 155.377, "note_off_time": 155.675}, {"pitch": 74, "velocity": 55, "note_on_time": 155.689, "note_off_time": 155.806}, {"pitch": 76, "velocity": 73, "note_on_time": 155.801, "note_off_time": 156.165}, {"pitch": 77, "velocity": 57, "note_on_time": 155.997, "note_off_time": 156.175}, {"pitch": 79, "velocity": 43, "note_on_time": 156.17, "note_off_time": 156.671}, {"pitch": 77, "velocity": 70, "note_on_time": 156.557, "note_off_time": 156.722}, {"pitch": 76, "velocity": 47, "note_on_time": 156.656, "note_off_time": 156.937}, {"pitch": 74, "velocity": 54, "note_on_time": 156.831, "note_off_time": 157.045}, {"pitch": 72, "velocity": 61, "note_on_time": 157.024, "note_off_time": 157.571}, {"pitch": 74, "velocity": 47, "note_on_time": 157.49, "note_off_time": 157.639}, {"pitch": 76, "velocity": 67, "note_on_time": 157.6, "note_off_time": 157.822}, {"pitch": 77, "velocity": 55, "note_on_time": 157.754, "note_off_time": 157.99}, {"pitch": 79, "velocity": 32, "note_on_time": 157.975, "note_off_time": 158.576}, {"pitch": 72, "velocity": 41, "note_on_time": 158.625, "note_off_time": 158.775}, {"pitch": 74, "velocity": 60, "note_on_time": 158.774, "note_off_time": 158.962}, {"pitch": 76, "velocity": 66, "note_on_time": 158.922, "note_off_time": 159.302}, {"pitch": 77, "velocity": 51, "note_on_time": 159.156, "note_off_time": 159.427}, {"pitch": 79, "velocity": 48, "note_on_time": 159.352, "note_off_time": 159.744}, {"pitch": 72, "velocity": 46, "note_on_time": 159.936, "note_off_time": 160.18}, {"pitch": 74, "velocity": 58, "note_on_time": 160.18, "note_off_time": 160.288}, {"pitch": 76, "velocity": 68, "note_on_time": 160.281, "note_off_time": 160.541}, {"pitch": 77, "velocity": 61, "note_on_time": 160.481, "note_off_time": 160.636}, {"pitch": 79, "velocity": 41, "note_on_time": 160.63, "note_off_time": 161.058}, {"pitch": 77, "velocity": 32, "note_on_time": 161.003, "note_off_time": 161.247}, {"pitch": 76, "velocity": 33, "note_on_time": 161.053, "note_off_time": 161.367}, {"pitch": 74, "velocity": 56, "note_on_time": 161.346, "note_off_time": 161.492}, {"pitch": 72, "velocity": 67, "note_on_time": 161.494, "note_off_time": 161.728}, {"pitch": 79, "velocity": 53, "note_on_time": 161.767, "note_off_time": 162.126}, {"pitch": 77, "velocity": 45, "note_on_time": 162.041, "note_off_time": 162.217}, {"pitch": 76, "velocity": 49, "note_on_time": 162.189, "note_off_time": 162.406}, {"pitch": 74, "velocity": 58, "note_on_time": 162.397, "note_off_time": 162.573}, {"pitch": 72, "velocity": 57, "note_on_time": 162.581, "note_off_time": 162.847}, {"pitch": 74, "velocity": 64, "note_on_time": 162.819, "note_off_time": 162.919}, {"pitch": 76, "velocity": 69, "note_on_time": 162.911, "note_off_time": 163.153}, {"pitch": 77, "velocity": 63, "note_on_time": 163.086, "note_off_time": 163.393}, {"pitch": 79, "velocity": 50, "note_on_time": 163.318, "note_off_time": 163.596}, {"pitch": 77, "velocity": 48, "note_on_time": 163.607, "note_off_time": 163.785}, {"pitch": 76, "velocity": 59, "note_on_time": 163.739, "note_off_time": 163.978}, {"pitch": 74, "velocity": 65, "note_on_time": 163.977, "note_off_time": 164.197}, {"pitch": 72, "velocity": 66, "note_on_time": 164.2, "note_off_time": 164.482}, {"pitch": 74, "velocity": 60, "note_on_time": 164.502, "note_off_time": 164.628}, {"pitch": 76, "velocity": 67, "note_on_time": 164.625, "note_off_time": 164.848}, {"pitch": 77, "velocity": 56, "note_on_time": 164.786, "note_off_time": 165.076}, {"pitch": 79, "velocity": 42, "note_on_time": 164.993, "note_off_time": 165.335}, {"pitch": 77, "velocity": 54, "note_on_time": 165.325, "note_off_time": 165.497}, {"pitch": 76, "velocity": 63, "note_on_time": 165.428, "note_off_time": 165.643}, {"pitch": 74, "velocity": 57, "note_on_time": 165.583, "note_off_time": 165.866}, {"pitch": 74, "velocity": 39, "note_on_time": 166.272, "note_off_time": 166.497}, {"pitch": 72, "velocity": 48, "note_on_time": 165.825, "note_off_time": 166.52}, {"pitch": 76, "velocity": 73, "note_on_time": 166.499, "note_off_time": 166.704}, {"pitch": 77, "velocity": 65, "note_on_time": 166.642, "note_off_time": 166.941}, {"pitch": 79, "velocity": 57, "note_on_time": 166.876, "note_off_time": 167.265}, {"pitch": 77, "velocity": 1, "note_on_time": 167.368, "note_off_time": 167.511}, {"pitch": 76, "velocity": 44, "note_on_time": 167.392, "note_off_time": 167.763}, {"pitch": 74, "velocity": 55, "note_on_time": 167.515, "note_off_time": 167.788}, {"pitch": 72, "velocity": 61, "note_on_time": 167.805, "note_off_time": 168.056}, {"pitch": 77, "velocity": 1, "note_on_time": 168.064, "note_off_time": 168.152}, {"pitch": 76, "velocity": 49, "note_on_time": 168.064, "note_off_time": 168.192}, {"pitch": 72, "velocity": 57, "note_on_time": 170.12, "note_off_time": 170.354}, {"pitch": 74, "velocity": 52, "note_on_time": 170.428, "note_off_time": 170.659}, {"pitch": 76, "velocity": 45, "note_on_time": 170.694, "note_off_time": 171.348}, {"pitch": 77, "velocity": 37, "note_on_time": 171.081, "note_off_time": 171.784}, {"pitch": 79, "velocity": 18, "note_on_time": 171.68, "note_off_time": 171.907}, {"pitch": 74, "velocity": 49, "note_on_time": 172.59, "note_off_time": 172.862}, {"pitch": 72, "velocity": 56, "note_on_time": 172.347, "note_off_time": 172.975}, {"pitch": 76, "velocity": 33, "note_on_time": 172.644, "note_off_time": 173.024}, {"pitch": 77, "velocity": 68, "note_on_time": 172.855, "note_off_time": 173.076}, {"pitch": 72, "velocity": 54, "note_on_time": 173.578, "note_off_time": 173.957}, {"pitch": 74, "velocity": 33, "note_on_time": 173.856, "note_off_time": 174.034}, {"pitch": 76, "velocity": 39, "note_on_time": 173.936, "note_off_time": 174.361}, {"pitch": 72, "velocity": 47, "note_on_time": 174.96, "note_off_time": 175.261}, {"pitch": 74, "velocity": 55, "note_on_time": 175.243, "note_off_time": 175.427}, {"pitch": 76, "velocity": 42, "note_on_time": 175.511, "note_off_time": 176.196}, {"pitch": 77, "velocity": 46, "note_on_time": 176.065, "note_off_time": 176.229}, {"pitch": 79, "velocity": 53, "note_on_time": 176.508, "note_off_time": 176.892}, {"pitch": 77, "velocity": 62, "note_on_time": 176.848, "note_off_time": 177.07}, {"pitch": 76, "velocity": 46, "note_on_time": 177.019, "note_off_time": 177.254}, {"pitch": 74, "velocity": 65, "note_on_time": 177.23, "note_off_time": 177.452}, {"pitch": 72, "velocity": 58, "note_on_time": 177.399, "note_off_time": 177.883}, {"pitch": 74, "velocity": 57, "note_on_time": 177.824, "note_off_time": 177.993}, {"pitch": 76, "velocity": 37, "note_on_time": 177.967, "note_off_time": 178.282}, {"pitch": 77, "velocity": 58, "note_on_time": 178.197, "note_off_time": 178.664}, {"pitch": 79, "velocity": 32, "note_on_time": 178.525, "note_off_time": 179.067}, {"pitch": 77, "velocity": 61, "note_on_time": 178.974, "note_off_time": 179.148}, {"pitch": 76, "velocity": 42, "note_on_time": 179.087, "note_off_time": 179.371}, {"pitch": 74, "velocity": 58, "note_on_time": 179.321, "note_off_time": 179.589}, {"pitch": 72, "velocity": 56, "note_on_time": 179.525, "note_off_time": 179.91}, {"pitch": 74, "velocity": 58, "note_on_time": 179.92, "note_off_time": 180.063}, {"pitch": 76, "velocity": 52, "note_on_time": 180.025, "note_off_time": 180.375}, {"pitch": 77, "velocity": 57, "note_on_time": 180.282, "note_off_time": 180.559}, {"pitch": 79, "velocity": 46, "note_on_time": 180.5, "note_off_time": 180.93}, {"pitch": 77, "velocity": 45, "note_on_time": 180.84, "note_off_time": 181.061}, {"pitch": 76, "velocity": 50, "note_on_time": 181.014, "note_off_time": 181.304}, {"pitch": 74, "velocity": 49, "note_on_time": 181.265, "note_off_time": 181.479}, {"pitch": 72, "velocity": 51, "note_on_time": 181.466, "note_off_time": 181.925}, {"pitch": 74, "velocity": 44, "note_on_time": 181.875, "note_off_time": 182.066}, {"pitch": 76, "velocity": 40, "note_on_time": 182.018, "note_off_time": 182.381}, {"pitch": 77, "velocity": 57, "note_on_time": 182.286, "note_off_time": 182.65}, {"pitch": 77, "velocity": 13, "note_on_time": 182.964, "note_off_time": 183.286}, {"pitch": 79, "velocity": 45, "note_on_time": 182.589, "note_off_time": 183.488}, {"pitch": 72, "velocity": 60, "note_on_time": 184.026, "note_off_time": 184.27}, {"pitch": 74, "velocity": 55, "note_on_time": 184.254, "note_off_time": 184.435}, {"pitch": 76, "velocity": 59, "note_on_time": 184.432, "note_off_time": 184.866}, {"pitch": 77, "velocity": 43, "note_on_time": 184.638, "note_off_time": 184.928}, {"pitch": 72, "velocity": 58, "note_on_time": 185.288, "note_off_time": 185.497}, {"pitch": 74, "velocity": 54, "note_on_time": 185.542, "note_off_time": 185.727}, {"pitch": 76, "velocity": 58, "note_on_time": 185.738, "note_off_time": 185.986}, {"pitch": 77, "velocity": 59, "note_on_time": 185.973, "note_off_time": 186.253}, {"pitch": 79, "velocity": 56, "note_on_time": 186.244, "note_off_time": 186.545}, {"pitch": 77, "velocity": 65, "note_on_time": 186.531, "note_off_time": 186.662}, {"pitch": 76, "velocity": 43, "note_on_time": 186.682, "note_off_time": 186.888}, {"pitch": 74, "velocity": 63, "note_on_time": 186.892, "note_off_time": 187.12}, {"pitch": 72, "velocity": 40, "note_on_time": 187.144, "note_off_time": 187.463}, {"pitch": 74, "velocity": 52, "note_on_time": 187.484, "note_off_time": 187.659}, {"pitch": 76, "velocity": 63, "note_on_time": 187.656, "note_off_time": 187.904}, {"pitch": 77, "velocity": 66, "note_on_time": 187.888, "note_off_time": 188.104}, {"pitch": 79, "velocity": 42, "note_on_time": 188.032, "note_off_time": 188.428}, {"pitch": 77, "velocity": 60, "note_on_time": 188.367, "note_off_time": 188.548}, {"pitch": 76, "velocity": 46, "note_on_time": 188.513, "note_off_time": 188.738}, {"pitch": 74, "velocity": 52, "note_on_time": 188.715, "note_off_time": 188.951}, {"pitch": 72, "velocity": 47, "note_on_time": 188.941, "note_off_time": 189.404}, {"pitch": 74, "velocity": 49, "note_on_time": 189.353, "note_off_time": 189.518}, {"pitch": 76, "velocity": 63, "note_on_time": 189.502, "note_off_time": 189.771}, {"pitch": 77, "velocity": 60, "note_on_time": 189.73, "note_off_time": 190.072}, {"pitch": 77, "velocity": 55, "note_on_time": 190.403, "note_off_time": 190.594}, {"pitch": 79, "velocity": 41, "note_on_time": 190.012, "note_off_time": 190.645}, {"pitch": 76, "velocity": 61, "note_on_time": 190.556, "note_off_time": 190.824}, {"pitch": 74, "velocity": 58, "note_on_time": 190.796, "note_off_time": 191.006}, {"pitch": 72, "velocity": 67, "note_on_time": 190.995, "note_off_time": 191.331}, {"pitch": 74, "velocity": 58, "note_on_time": 191.378, "note_off_time": 191.517}, {"pitch": 76, "velocity": 70, "note_on_time": 191.521, "note_off_time": 191.894}, {"pitch": 77, "velocity": 51, "note_on_time": 191.755, "note_off_time": 192.13}, {"pitch": 79, "velocity": 56, "note_on_time": 192.071, "note_off_time": 192.483}, {"pitch": 77, "velocity": 40, "note_on_time": 192.406, "note_off_time": 192.566}, {"pitch": 76, "velocity": 55, "note_on_time": 192.466, "note_off_time": 192.75}, {"pitch": 74, "velocity": 47, "note_on_time": 192.735, "note_off_time": 192.964}, {"pitch": 72, "velocity": 58, "note_on_time": 192.963, "note_off_time": 193.335}, {"pitch": 79, "velocity": 60, "note_on_time": 193.282, "note_off_time": 193.621}, {"pitch": 77, "velocity": 49, "note_on_time": 193.556, "note_off_time": 193.698}, {"pitch": 76, "velocity": 50, "note_on_time": 193.662, "note_off_time": 193.885}, {"pitch": 74, "velocity": 54, "note_on_time": 193.879, "note_off_time": 194.094}, {"pitch": 72, "velocity": 58, "note_on_time": 194.078, "note_off_time": 194.279}]</notes><guidance name="Guidance Mode">None</guidance><error name="Error value">99</error></trial></trials></MIDI>