<MIDI midiNo="2023_06_26-14_24_38"><target_notes><notes name="Note List">[{"pitch": 60, "velocity": 40, "note_on_time": 0.01, "note_off_time": 1.013}, {"pitch": 64, "velocity": 40, "note_on_time": 0.01, "note_off_time": 1.014}, {"pitch": 67, "velocity": 40, "note_on_time": 0.01, "note_off_time": 1.015}, {"pitch": 48, "velocity": 40, "note_on_time": 0.01, "note_off_time": 1.015}, {"pitch": 52, "velocity": 40, "note_on_time": 1.015, "note_off_time": 2.026}, {"pitch": 55, "velocity": 40, "note_on_time": 1.015, "note_off_time": 2.026}, {"pitch": 72, "velocity": 40, "note_on_time": 2.026, "note_off_time": 3.042}, {"pitch": 48, "velocity": 40, "note_on_time": 2.027, "note_off_time": 3.042}, {"pitch": 52, "velocity": 40, "note_on_time": 3.043, "note_off_time": 4.053}, {"pitch": 55, "velocity": 40, "note_on_time": 3.043, "note_off_time": 4.053}, {"pitch": 48, "velocity": 40, "note_on_time": 4.053, "note_off_time": 5.059}, {"pitch": 52, "velocity": 40, "note_on_time": 5.059, "note_off_time": 6.065}, {"pitch": 55, "velocity": 40, "note_on_time": 5.059, "note_off_time": 6.065}, {"pitch": 48, "velocity": 40, "note_on_time": 6.065, "note_off_time": 7.08}, {"pitch": 52, "velocity": 40, "note_on_time": 7.08, "note_off_time": 8.097}, {"pitch": 55, "velocity": 40, "note_on_time": 7.08, "note_off_time": 8.097}, {"pitch": 60, "velocity": 40, "note_on_time": 8.096, "note_off_time": 9.103}, {"pitch": 64, "velocity": 40, "note_on_time": 8.097, "note_off_time": 9.104}, {"pitch": 67, "velocity": 40, "note_on_time": 8.097, "note_off_time": 9.105}, {"pitch": 48, "velocity": 40, "note_on_time": 8.097, "note_off_time": 9.105}, {"pitch": 52, "velocity": 40, "note_on_time": 9.105, "note_off_time": 10.106}, {"pitch": 55, "velocity": 40, "note_on_time": 9.105, "note_off_time": 10.106}, {"pitch": 74, "velocity": 40, "note_on_time": 10.106, "note_off_time": 11.114}, {"pitch": 48, "velocity": 40, "note_on_time": 10.106, "note_off_time": 11.115}, {"pitch": 52, "velocity": 40, "note_on_time": 11.115, "note_off_time": 12.119}, {"pitch": 55, "velocity": 40, "note_on_time": 11.115, "note_off_time": 12.119}, {"pitch": 48, "velocity": 40, "note_on_time": 12.119, "note_off_time": 13.123}, {"pitch": 52, "velocity": 40, "note_on_time": 13.123, "note_off_time": 14.128}, {"pitch": 55, "velocity": 40, "note_on_time": 13.123, "note_off_time": 14.128}, {"pitch": 48, "velocity": 40, "note_on_time": 14.128, "note_off_time": 15.131}, {"pitch": 52, "velocity": 40, "note_on_time": 15.131, "note_off_time": 16.153}, {"pitch": 55, "velocity": 40, "note_on_time": 15.131, "note_off_time": 16.153}, {"pitch": 60, "velocity": 40, "note_on_time": 16.152, "note_off_time": 17.158}, {"pitch": 64, "velocity": 40, "note_on_time": 16.153, "note_off_time": 17.158}, {"pitch": 67, "velocity": 40, "note_on_time": 16.153, "note_off_time": 17.159}, {"pitch": 48, "velocity": 40, "note_on_time": 16.153, "note_off_time": 17.159}, {"pitch": 52, "velocity": 40, "note_on_time": 17.159, "note_off_time": 18.167}, {"pitch": 55, "velocity": 40, "note_on_time": 17.159, "note_off_time": 18.167}, {"pitch": 76, "velocity": 40, "note_on_time": 18.166, "note_off_time": 19.167}, {"pitch": 48, "velocity": 40, "note_on_time": 18.167, "note_off_time": 19.167}, {"pitch": 52, "velocity": 40, "note_on_time": 19.169, "note_off_time": 20.17}, {"pitch": 55, "velocity": 40, "note_on_time": 19.169, "note_off_time": 20.17}, {"pitch": 48, "velocity": 40, "note_on_time": 20.17, "note_off_time": 21.174}, {"pitch": 52, "velocity": 40, "note_on_time": 21.174, "note_off_time": 22.176}, {"pitch": 55, "velocity": 40, "note_on_time": 21.174, "note_off_time": 22.176}, {"pitch": 48, "velocity": 40, "note_on_time": 22.176, "note_off_time": 23.198}, {"pitch": 52, "velocity": 40, "note_on_time": 23.198, "note_off_time": 24.208}, {"pitch": 55, "velocity": 40, "note_on_time": 23.198, "note_off_time": 24.208}, {"pitch": 60, "velocity": 40, "note_on_time": 24.207, "note_off_time": 25.214}, {"pitch": 64, "velocity": 40, "note_on_time": 24.208, "note_off_time": 25.216}, {"pitch": 67, "velocity": 40, "note_on_time": 24.208, "note_off_time": 25.216}, {"pitch": 48, "velocity": 40, "note_on_time": 24.208, "note_off_time": 25.216}, {"pitch": 52, "velocity": 40, "note_on_time": 25.216, "note_off_time": 26.218}, {"pitch": 55, "velocity": 40, "note_on_time": 25.216, "note_off_time": 26.218}, {"pitch": 77, "velocity": 40, "note_on_time": 26.218, "note_off_time": 27.221}, {"pitch": 48, "velocity": 40, "note_on_time": 26.218, "note_off_time": 27.221}, {"pitch": 52, "velocity": 40, "note_on_time": 27.221, "note_off_time": 28.229}, {"pitch": 55, "velocity": 40, "note_on_time": 27.221, "note_off_time": 28.229}, {"pitch": 48, "velocity": 40, "note_on_time": 28.229, "note_off_time": 29.241}, {"pitch": 52, "velocity": 40, "note_on_time": 29.241, "note_off_time": 30.25}, {"pitch": 55, "velocity": 40, "note_on_time": 29.241, "note_off_time": 30.25}, {"pitch": 48, "velocity": 40, "note_on_time": 30.25, "note_off_time": 31.253}, {"pitch": 52, "velocity": 40, "note_on_time": 31.253, "note_off_time": 32.256}, {"pitch": 55, "velocity": 40, "note_on_time": 31.253, "note_off_time": 32.256}, {"pitch": 60, "velocity": 40, "note_on_time": 32.254, "note_off_time": 33.267}, {"pitch": 64, "velocity": 40, "note_on_time": 32.255, "note_off_time": 33.268}, {"pitch": 67, "velocity": 40, "note_on_time": 32.256, "note_off_time": 33.269}, {"pitch": 48, "velocity": 40, "note_on_time": 32.256, "note_off_time": 33.269}, {"pitch": 52, "velocity": 40, "note_on_time": 33.269, "note_off_time": 34.275}, {"pitch": 55, "velocity": 40, "note_on_time": 33.269, "note_off_time": 34.275}, {"pitch": 74, "velocity": 40, "note_on_time": 34.275, "note_off_time": 35.291}, {"pitch": 48, "velocity": 40, "note_on_time": 34.275, "note_off_time": 35.291}, {"pitch": 52, "velocity": 40, "note_on_time": 35.291, "note_off_time": 36.305}, {"pitch": 55, "velocity": 40, "note_on_time": 35.291, "note_off_time": 36.305}, {"pitch": 48, "velocity": 40, "note_on_time": 36.305, "note_off_time": 37.309}, {"pitch": 52, "velocity": 40, "note_on_time": 37.309, "note_off_time": 38.314}, {"pitch": 55, "velocity": 40, "note_on_time": 37.309, "note_off_time": 38.314}, {"pitch": 48, "velocity": 40, "note_on_time": 38.314, "note_off_time": 39.324}, {"pitch": 52, "velocity": 40, "note_on_time": 39.324, "note_off_time": 40.329}, {"pitch": 55, "velocity": 40, "note_on_time": 39.324, "note_off_time": 40.329}, {"pitch": 60, "velocity": 40, "note_on_time": 40.328, "note_off_time": 41.337}, {"pitch": 64, "velocity": 40, "note_on_time": 40.329, "note_off_time": 41.338}, {"pitch": 67, "velocity": 40, "note_on_time": 40.329, "note_off_time": 41.338}, {"pitch": 79, "velocity": 40, "note_on_time": 42.344, "note_off_time": 43.352}, {"pitch": 60, "velocity": 40, "note_on_time": 48.366, "note_off_time": 49.37}, {"pitch": 64, "velocity": 40, "note_on_time": 48.368, "note_off_time": 49.37}, {"pitch": 67, "velocity": 40, "note_on_time": 48.368, "note_off_time": 49.371}, {"pitch": 77, "velocity": 40, "note_on_time": 50.386, "note_off_time": 51.391}, {"pitch": 60, "velocity": 40, "note_on_time": 56.396, "note_off_time": 57.4}, {"pitch": 64, "velocity": 40, "note_on_time": 56.397, "note_off_time": 57.401}, {"pitch": 67, "velocity": 40, "note_on_time": 56.397, "note_off_time": 57.401}, {"pitch": 79, "velocity": 40, "note_on_time": 58.403, "note_off_time": 59.411}, {"pitch": 60, "velocity": 40, "note_on_time": 64.422, "note_off_time": 65.425}, {"pitch": 64, "velocity": 40, "note_on_time": 64.423, "note_off_time": 65.426}, {"pitch": 67, "velocity": 40, "note_on_time": 64.424, "note_off_time": 65.426}, {"pitch": 76, "velocity": 40, "note_on_time": 66.437, "note_off_time": 67.449}, {"pitch": 60, "velocity": 40, "note_on_time": 72.461, "note_off_time": 73.469}, {"pitch": 64, "velocity": 40, "note_on_time": 72.462, "note_off_time": 73.47}, {"pitch": 67, "velocity": 40, "note_on_time": 72.462, "note_off_time": 73.471}, {"pitch": 72, "velocity": 40, "note_on_time": 74.486, "note_off_time": 75.487}, {"pitch": 60, "velocity": 40, "note_on_time": 80.501, "note_off_time": 81.507}, {"pitch": 64, "velocity": 40, "note_on_time": 80.502, "note_off_time": 81.508}, {"pitch": 67, "velocity": 40, "note_on_time": 80.502, "note_off_time": 81.508}, {"pitch": 77, "velocity": 40, "note_on_time": 82.521, "note_off_time": 83.529}, {"pitch": 60, "velocity": 40, "note_on_time": 88.536, "note_off_time": 89.547}, {"pitch": 64, "velocity": 40, "note_on_time": 88.536, "note_off_time": 89.548}, {"pitch": 67, "velocity": 40, "note_on_time": 88.537, "note_off_time": 89.549}, {"pitch": 79, "velocity": 40, "note_on_time": 90.555, "note_off_time": 91.562}, {"pitch": 60, "velocity": 40, "note_on_time": 96.57, "note_off_time": 97.583}, {"pitch": 64, "velocity": 40, "note_on_time": 96.571, "note_off_time": 97.584}, {"pitch": 67, "velocity": 40, "note_on_time": 96.571, "note_off_time": 97.585}, {"pitch": 76, "velocity": 40, "note_on_time": 98.593, "note_off_time": 99.605}, {"pitch": 60, "velocity": 40, "note_on_time": 104.618, "note_off_time": 105.622}, {"pitch": 64, "velocity": 40, "note_on_time": 104.619, "note_off_time": 105.623}, {"pitch": 67, "velocity": 40, "note_on_time": 104.619, "note_off_time": 105.623}, {"pitch": 72, "velocity": 40, "note_on_time": 106.636, "note_off_time": 107.652}, {"pitch": 60, "velocity": 40, "note_on_time": 112.664, "note_off_time": 113.679}, {"pitch": 64, "velocity": 40, "note_on_time": 112.665, "note_off_time": 113.68}, {"pitch": 67, "velocity": 40, "note_on_time": 112.665, "note_off_time": 113.681}, {"pitch": 76, "velocity": 40, "note_on_time": 114.685, "note_off_time": 115.701}, {"pitch": 60, "velocity": 40, "note_on_time": 120.705, "note_off_time": 121.717}, {"pitch": 64, "velocity": 40, "note_on_time": 120.706, "note_off_time": 121.718}, {"pitch": 67, "velocity": 40, "note_on_time": 120.706, "note_off_time": 121.719}, {"pitch": 77, "velocity": 40, "note_on_time": 122.732, "note_off_time": 123.735}, {"pitch": 60, "velocity": 40, "note_on_time": 128.737, "note_off_time": 129.749}, {"pitch": 64, "velocity": 40, "note_on_time": 128.738, "note_off_time": 129.75}, {"pitch": 67, "velocity": 40, "note_on_time": 128.738, "note_off_time": 129.751}, {"pitch": 74, "velocity": 40, "note_on_time": 130.764, "note_off_time": 131.771}, {"pitch": 60, "velocity": 40, "note_on_time": 136.774, "note_off_time": 137.792}, {"pitch": 64, "velocity": 40, "note_on_time": 136.775, "note_off_time": 137.793}, {"pitch": 67, "velocity": 40, "note_on_time": 136.775, "note_off_time": 137.793}, {"pitch": 72, "velocity": 40, "note_on_time": 138.797, "note_off_time": 139.798}, {"pitch": 60, "velocity": 40, "note_on_time": 144.811, "note_off_time": 145.814}, {"pitch": 64, "velocity": 40, "note_on_time": 144.812, "note_off_time": 145.816}, {"pitch": 67, "velocity": 40, "note_on_time": 144.812, "note_off_time": 145.816}, {"pitch": 74, "velocity": 40, "note_on_time": 146.82, "note_off_time": 147.835}, {"pitch": 60, "velocity": 40, "note_on_time": 152.845, "note_off_time": 153.859}, {"pitch": 64, "velocity": 40, "note_on_time": 152.846, "note_off_time": 153.859}, {"pitch": 67, "velocity": 40, "note_on_time": 152.847, "note_off_time": 153.86}, {"pitch": 79, "velocity": 40, "note_on_time": 154.862, "note_off_time": 155.864}, {"pitch": 60, "velocity": 40, "note_on_time": 160.878, "note_off_time": 161.905}, {"pitch": 64, "velocity": 40, "note_on_time": 160.879, "note_off_time": 161.905}, {"pitch": 67, "velocity": 40, "note_on_time": 160.879, "note_off_time": 161.905}, {"pitch": 72, "velocity": 40, "note_on_time": 162.916, "note_off_time": 163.93}]</notes><options name="Option List">((4, 4), [0.5, 0.25], 3, 8, &lt;NoteRangePerHand.TWO_NOTES: 3&gt;, &lt;NoteRangePerHand.ONE_NOTE: 2&gt;, False, True, True, 100)</options></target_notes><trials><trial trial_no="1" timestamp="2023_06_26-14_21_54"><notes name="Played Notes">[{"pitch": 72, "velocity": 57, "note_on_time": 3.753, "note_off_time": 4.422}, {"pitch": 74, "velocity": 52, "note_on_time": 11.792, "note_off_time": 12.599}, {"pitch": 76, "velocity": 63, "note_on_time": 19.633, "note_off_time": 20.534}, {"pitch": 77, "velocity": 60, "note_on_time": 27.662, "note_off_time": 28.643}, {"pitch": 72, "velocity": 61, "note_on_time": 36.21, "note_off_time": 36.724}, {"pitch": 76, "velocity": 37, "note_on_time": 38.175, "note_off_time": 38.869}, {"pitch": 77, "velocity": 47, "note_on_time": 39.923, "note_off_time": 40.66}, {"pitch": 79, "velocity": 56, "note_on_time": 43.884, "note_off_time": 44.897}, {"pitch": 74, "velocity": 56, "note_on_time": 52.002, "note_off_time": 52.371}, {"pitch": 76, "velocity": 49, "note_on_time": 53.216, "note_off_time": 54.082}, {"pitch": 77, "velocity": 66, "note_on_time": 54.718, "note_off_time": 55.386}, {"pitch": 79, "velocity": 62, "note_on_time": 60.009, "note_off_time": 61.028}, {"pitch": 74, "velocity": 45, "note_on_time": 68.152, "note_off_time": 68.62}, {"pitch": 76, "velocity": 45, "note_on_time": 70.204, "note_off_time": 71.404}, {"pitch": 72, "velocity": 56, "note_on_time": 76.14, "note_off_time": 77.285}, {"pitch": 74, "velocity": 58, "note_on_time": 84.169, "note_off_time": 84.623}, {"pitch": 77, "velocity": 60, "note_on_time": 85.883, "note_off_time": 87.221}, {"pitch": 79, "velocity": 66, "note_on_time": 92.427, "note_off_time": 93.735}, {"pitch": 76, "velocity": 59, "note_on_time": 100.112, "note_off_time": 101.267}, {"pitch": 72, "velocity": 57, "note_on_time": 108.244, "note_off_time": 109.498}, {"pitch": 74, "velocity": 50, "note_on_time": 117.404, "note_off_time": 117.907}, {"pitch": 76, "velocity": 67, "note_on_time": 118.443, "note_off_time": 119.507}, {"pitch": 74, "velocity": 58, "note_on_time": 124.713, "note_off_time": 125.24}, {"pitch": 77, "velocity": 59, "note_on_time": 125.873, "note_off_time": 127.03}, {"pitch": 77, "velocity": 65, "note_on_time": 132.673, "note_off_time": 133.121}, {"pitch": 74, "velocity": 53, "note_on_time": 133.484, "note_off_time": 134.78}, {"pitch": 72, "velocity": 46, "note_on_time": 140.305, "note_off_time": 141.272}, {"pitch": 74, "velocity": 56, "note_on_time": 150.195, "note_off_time": 151.254}, {"pitch": 77, "velocity": 58, "note_on_time": 156.447, "note_off_time": 157.039}, {"pitch": 76, "velocity": 56, "note_on_time": 158.429, "note_off_time": 158.89}, {"pitch": 79, "velocity": 62, "note_on_time": 159.237, "note_off_time": 159.983}]</notes><guidance name="Guidance Mode">None</guidance><error name="Error value">99</error></trial></trials></MIDI>