<MIDI midiNo="2023_06_12-15_29_11"><target_notes><notes name="Note List">[{"pitch": 60, "velocity": 40, "note_on_time": 0.009, "note_off_time": 1.011}, {"pitch": 64, "velocity": 40, "note_on_time": 0.009, "note_off_time": 1.012}, {"pitch": 67, "velocity": 40, "note_on_time": 0.01, "note_off_time": 1.012}, {"pitch": 48, "velocity": 40, "note_on_time": 0.01, "note_off_time": 1.012}, {"pitch": 52, "velocity": 40, "note_on_time": 1.012, "note_off_time": 2.027}, {"pitch": 55, "velocity": 40, "note_on_time": 1.012, "note_off_time": 2.027}, {"pitch": 74, "velocity": 40, "note_on_time": 2.027, "note_off_time": 3.036}, {"pitch": 48, "velocity": 40, "note_on_time": 2.027, "note_off_time": 3.036}, {"pitch": 52, "velocity": 40, "note_on_time": 3.037, "note_off_time": 4.051}, {"pitch": 55, "velocity": 40, "note_on_time": 3.037, "note_off_time": 4.051}, {"pitch": 48, "velocity": 40, "note_on_time": 4.051, "note_off_time": 5.06}, {"pitch": 52, "velocity": 40, "note_on_time": 5.06, "note_off_time": 6.07}, {"pitch": 55, "velocity": 40, "note_on_time": 5.06, "note_off_time": 6.07}, {"pitch": 48, "velocity": 40, "note_on_time": 6.07, "note_off_time": 7.085}, {"pitch": 52, "velocity": 40, "note_on_time": 7.085, "note_off_time": 8.1}, {"pitch": 55, "velocity": 40, "note_on_time": 7.085, "note_off_time": 8.1}, {"pitch": 60, "velocity": 40, "note_on_time": 8.099, "note_off_time": 9.122}, {"pitch": 64, "velocity": 40, "note_on_time": 8.099, "note_off_time": 9.123}, {"pitch": 67, "velocity": 40, "note_on_time": 8.1, "note_off_time": 9.124}, {"pitch": 48, "velocity": 40, "note_on_time": 8.1, "note_off_time": 9.124}, {"pitch": 52, "velocity": 40, "note_on_time": 9.124, "note_off_time": 10.127}, {"pitch": 55, "velocity": 40, "note_on_time": 9.124, "note_off_time": 10.127}, {"pitch": 72, "velocity": 40, "note_on_time": 10.127, "note_off_time": 11.143}, {"pitch": 48, "velocity": 40, "note_on_time": 10.127, "note_off_time": 11.143}, {"pitch": 52, "velocity": 40, "note_on_time": 11.143, "note_off_time": 12.158}, {"pitch": 55, "velocity": 40, "note_on_time": 11.143, "note_off_time": 12.158}, {"pitch": 48, "velocity": 40, "note_on_time": 12.158, "note_off_time": 13.169}, {"pitch": 52, "velocity": 40, "note_on_time": 13.169, "note_off_time": 14.183}, {"pitch": 55, "velocity": 40, "note_on_time": 13.169, "note_off_time": 14.183}, {"pitch": 48, "velocity": 40, "note_on_time": 14.183, "note_off_time": 15.192}, {"pitch": 52, "velocity": 40, "note_on_time": 15.192, "note_off_time": 16.203}, {"pitch": 55, "velocity": 40, "note_on_time": 15.192, "note_off_time": 16.204}, {"pitch": 60, "velocity": 40, "note_on_time": 16.203, "note_off_time": 17.206}, {"pitch": 64, "velocity": 40, "note_on_time": 16.203, "note_off_time": 17.206}, {"pitch": 67, "velocity": 40, "note_on_time": 16.203, "note_off_time": 17.207}, {"pitch": 48, "velocity": 40, "note_on_time": 16.204, "note_off_time": 17.207}, {"pitch": 52, "velocity": 40, "note_on_time": 17.207, "note_off_time": 18.209}, {"pitch": 55, "velocity": 40, "note_on_time": 17.207, "note_off_time": 18.209}, {"pitch": 74, "velocity": 40, "note_on_time": 18.209, "note_off_time": 19.222}, {"pitch": 48, "velocity": 40, "note_on_time": 18.209, "note_off_time": 19.222}, {"pitch": 52, "velocity": 40, "note_on_time": 19.222, "note_off_time": 20.235}, {"pitch": 55, "velocity": 40, "note_on_time": 19.222, "note_off_time": 20.235}, {"pitch": 48, "velocity": 40, "note_on_time": 20.235, "note_off_time": 21.238}, {"pitch": 52, "velocity": 40, "note_on_time": 21.238, "note_off_time": 22.261}, {"pitch": 55, "velocity": 40, "note_on_time": 21.238, "note_off_time": 22.261}, {"pitch": 48, "velocity": 40, "note_on_time": 22.261, "note_off_time": 23.277}, {"pitch": 52, "velocity": 40, "note_on_time": 23.277, "note_off_time": 24.294}, {"pitch": 55, "velocity": 40, "note_on_time": 23.277, "note_off_time": 24.294}, {"pitch": 60, "velocity": 40, "note_on_time": 24.293, "note_off_time": 25.309}, {"pitch": 64, "velocity": 40, "note_on_time": 24.294, "note_off_time": 25.31}, {"pitch": 67, "velocity": 40, "note_on_time": 24.294, "note_off_time": 25.311}, {"pitch": 48, "velocity": 40, "note_on_time": 24.294, "note_off_time": 25.311}, {"pitch": 52, "velocity": 40, "note_on_time": 25.311, "note_off_time": 26.321}, {"pitch": 55, "velocity": 40, "note_on_time": 25.311, "note_off_time": 26.322}, {"pitch": 79, "velocity": 40, "note_on_time": 26.321, "note_off_time": 27.335}, {"pitch": 48, "velocity": 40, "note_on_time": 26.322, "note_off_time": 27.335}, {"pitch": 52, "velocity": 40, "note_on_time": 27.336, "note_off_time": 28.343}, {"pitch": 55, "velocity": 40, "note_on_time": 27.336, "note_off_time": 28.343}, {"pitch": 48, "velocity": 40, "note_on_time": 28.343, "note_off_time": 29.344}, {"pitch": 52, "velocity": 40, "note_on_time": 29.344, "note_off_time": 30.347}, {"pitch": 55, "velocity": 40, "note_on_time": 29.344, "note_off_time": 30.347}, {"pitch": 48, "velocity": 40, "note_on_time": 30.347, "note_off_time": 31.364}, {"pitch": 52, "velocity": 40, "note_on_time": 31.364, "note_off_time": 32.374}, {"pitch": 55, "velocity": 40, "note_on_time": 31.364, "note_off_time": 32.374}, {"pitch": 60, "velocity": 40, "note_on_time": 32.374, "note_off_time": 33.387}, {"pitch": 64, "velocity": 40, "note_on_time": 32.374, "note_off_time": 33.388}, {"pitch": 67, "velocity": 40, "note_on_time": 32.374, "note_off_time": 33.388}, {"pitch": 48, "velocity": 40, "note_on_time": 32.374, "note_off_time": 33.388}, {"pitch": 52, "velocity": 40, "note_on_time": 33.388, "note_off_time": 34.401}, {"pitch": 55, "velocity": 40, "note_on_time": 33.388, "note_off_time": 34.401}, {"pitch": 77, "velocity": 40, "note_on_time": 34.4, "note_off_time": 35.415}, {"pitch": 48, "velocity": 40, "note_on_time": 34.401, "note_off_time": 35.415}, {"pitch": 52, "velocity": 40, "note_on_time": 35.416, "note_off_time": 36.418}, {"pitch": 55, "velocity": 40, "note_on_time": 35.416, "note_off_time": 36.418}, {"pitch": 48, "velocity": 40, "note_on_time": 36.418, "note_off_time": 37.425}, {"pitch": 52, "velocity": 40, "note_on_time": 37.425, "note_off_time": 38.438}, {"pitch": 55, "velocity": 40, "note_on_time": 37.425, "note_off_time": 38.438}, {"pitch": 48, "velocity": 40, "note_on_time": 38.438, "note_off_time": 39.452}, {"pitch": 52, "velocity": 40, "note_on_time": 39.452, "note_off_time": 40.461}, {"pitch": 55, "velocity": 40, "note_on_time": 39.452, "note_off_time": 40.461}, {"pitch": 60, "velocity": 40, "note_on_time": 40.46, "note_off_time": 41.478}, {"pitch": 64, "velocity": 40, "note_on_time": 40.461, "note_off_time": 41.479}, {"pitch": 67, "velocity": 40, "note_on_time": 40.461, "note_off_time": 41.48}, {"pitch": 79, "velocity": 40, "note_on_time": 42.486, "note_off_time": 43.502}, {"pitch": 60, "velocity": 40, "note_on_time": 48.506, "note_off_time": 49.523}, {"pitch": 64, "velocity": 40, "note_on_time": 48.507, "note_off_time": 49.524}, {"pitch": 67, "velocity": 40, "note_on_time": 48.507, "note_off_time": 49.525}, {"pitch": 77, "velocity": 40, "note_on_time": 50.535, "note_off_time": 51.538}, {"pitch": 60, "velocity": 40, "note_on_time": 56.539, "note_off_time": 57.553}, {"pitch": 64, "velocity": 40, "note_on_time": 56.54, "note_off_time": 57.554}, {"pitch": 67, "velocity": 40, "note_on_time": 56.54, "note_off_time": 57.554}, {"pitch": 72, "velocity": 40, "note_on_time": 58.571, "note_off_time": 59.573}, {"pitch": 60, "velocity": 40, "note_on_time": 64.588, "note_off_time": 65.602}, {"pitch": 64, "velocity": 40, "note_on_time": 64.588, "note_off_time": 65.602}, {"pitch": 67, "velocity": 40, "note_on_time": 64.588, "note_off_time": 65.603}, {"pitch": 76, "velocity": 40, "note_on_time": 66.615, "note_off_time": 67.62}, {"pitch": 60, "velocity": 40, "note_on_time": 72.632, "note_off_time": 73.636}, {"pitch": 64, "velocity": 40, "note_on_time": 72.633, "note_off_time": 73.637}, {"pitch": 67, "velocity": 40, "note_on_time": 72.633, "note_off_time": 73.637}, {"pitch": 77, "velocity": 40, "note_on_time": 74.646, "note_off_time": 75.66}, {"pitch": 60, "velocity": 40, "note_on_time": 80.664, "note_off_time": 81.675}, {"pitch": 64, "velocity": 40, "note_on_time": 80.665, "note_off_time": 81.675}, {"pitch": 67, "velocity": 40, "note_on_time": 80.666, "note_off_time": 81.676}, {"pitch": 79, "velocity": 40, "note_on_time": 82.693, "note_off_time": 83.706}, {"pitch": 60, "velocity": 40, "note_on_time": 88.712, "note_off_time": 89.728}, {"pitch": 64, "velocity": 40, "note_on_time": 88.713, "note_off_time": 89.729}, {"pitch": 67, "velocity": 40, "note_on_time": 88.713, "note_off_time": 89.729}, {"pitch": 76, "velocity": 40, "note_on_time": 90.74, "note_off_time": 91.752}, {"pitch": 60, "velocity": 40, "note_on_time": 96.756, "note_off_time": 97.767}, {"pitch": 64, "velocity": 40, "note_on_time": 96.757, "note_off_time": 97.768}, {"pitch": 67, "velocity": 40, "note_on_time": 96.757, "note_off_time": 97.769}, {"pitch": 77, "velocity": 40, "note_on_time": 98.78, "note_off_time": 99.782}, {"pitch": 60, "velocity": 40, "note_on_time": 104.79, "note_off_time": 105.802}, {"pitch": 64, "velocity": 40, "note_on_time": 104.791, "note_off_time": 105.803}, {"pitch": 67, "velocity": 40, "note_on_time": 104.792, "note_off_time": 105.804}, {"pitch": 76, "velocity": 40, "note_on_time": 106.805, "note_off_time": 107.811}, {"pitch": 60, "velocity": 40, "note_on_time": 112.817, "note_off_time": 113.829}, {"pitch": 64, "velocity": 40, "note_on_time": 112.817, "note_off_time": 113.83}, {"pitch": 67, "velocity": 40, "note_on_time": 112.818, "note_off_time": 113.831}, {"pitch": 79, "velocity": 40, "note_on_time": 114.831, "note_off_time": 115.843}, {"pitch": 60, "velocity": 40, "note_on_time": 120.846, "note_off_time": 121.851}, {"pitch": 64, "velocity": 40, "note_on_time": 120.847, "note_off_time": 121.852}, {"pitch": 67, "velocity": 40, "note_on_time": 120.847, "note_off_time": 121.853}, {"pitch": 72, "velocity": 40, "note_on_time": 122.859, "note_off_time": 123.868}, {"pitch": 60, "velocity": 40, "note_on_time": 128.875, "note_off_time": 129.892}, {"pitch": 64, "velocity": 40, "note_on_time": 128.876, "note_off_time": 129.893}, {"pitch": 67, "velocity": 40, "note_on_time": 128.876, "note_off_time": 129.893}, {"pitch": 76, "velocity": 40, "note_on_time": 130.903, "note_off_time": 131.916}, {"pitch": 60, "velocity": 40, "note_on_time": 136.923, "note_off_time": 137.928}, {"pitch": 64, "velocity": 40, "note_on_time": 136.924, "note_off_time": 137.928}, {"pitch": 67, "velocity": 40, "note_on_time": 136.924, "note_off_time": 137.928}, {"pitch": 74, "velocity": 40, "note_on_time": 138.929, "note_off_time": 139.931}, {"pitch": 60, "velocity": 40, "note_on_time": 144.946, "note_off_time": 145.962}, {"pitch": 64, "velocity": 40, "note_on_time": 144.947, "note_off_time": 145.964}, {"pitch": 67, "velocity": 40, "note_on_time": 144.947, "note_off_time": 145.964}, {"pitch": 72, "velocity": 40, "note_on_time": 146.978, "note_off_time": 147.986}, {"pitch": 60, "velocity": 40, "note_on_time": 153.0, "note_off_time": 154.017}, {"pitch": 64, "velocity": 40, "note_on_time": 153.001, "note_off_time": 154.018}, {"pitch": 67, "velocity": 40, "note_on_time": 153.002, "note_off_time": 154.018}, {"pitch": 74, "velocity": 40, "note_on_time": 155.028, "note_off_time": 156.041}, {"pitch": 60, "velocity": 40, "note_on_time": 161.048, "note_off_time": 162.05}, {"pitch": 64, "velocity": 40, "note_on_time": 161.048, "note_off_time": 162.051}, {"pitch": 67, "velocity": 40, "note_on_time": 161.049, "note_off_time": 162.051}, {"pitch": 74, "velocity": 40, "note_on_time": 163.055, "note_off_time": 164.071}]</notes><options name="Option List">((4, 4), [0.5, 0.25], 3, 8, &lt;NoteRangePerHand.TWO_NOTES: 3&gt;, &lt;NoteRangePerHand.ONE_NOTE: 2&gt;, False, True, True, 100)</options></target_notes><trials><trial trial_no="1" timestamp="2023_06_12-15_26_27"><notes name="Played Notes">[{"pitch": 77, "velocity": 63, "note_on_time": 3.657, "note_off_time": 3.931}, {"pitch": 79, "velocity": 67, "note_on_time": 4.943, "note_off_time": 5.212}, {"pitch": 77, "velocity": 58, "note_on_time": 5.642, "note_off_time": 5.865}, {"pitch": 76, "velocity": 61, "note_on_time": 11.684, "note_off_time": 12.312}, {"pitch": 77, "velocity": 67, "note_on_time": 13.772, "note_off_time": 14.365}, {"pitch": 74, "velocity": 74, "note_on_time": 15.264, "note_off_time": 15.621}, {"pitch": 77, "velocity": 74, "note_on_time": 16.154, "note_off_time": 16.466}, {"pitch": 79, "velocity": 62, "note_on_time": 19.705, "note_off_time": 20.191}, {"pitch": 77, "velocity": 46, "note_on_time": 20.577, "note_off_time": 20.95}, {"pitch": 76, "velocity": 20, "note_on_time": 21.549, "note_off_time": 21.93}, {"pitch": 74, "velocity": 78, "note_on_time": 22.544, "note_off_time": 22.7}, {"pitch": 79, "velocity": 73, "note_on_time": 27.879, "note_off_time": 28.458}, {"pitch": 74, "velocity": 66, "note_on_time": 35.79, "note_off_time": 36.248}, {"pitch": 76, "velocity": 69, "note_on_time": 36.957, "note_off_time": 37.597}, {"pitch": 74, "velocity": 41, "note_on_time": 38.931, "note_off_time": 39.106}, {"pitch": 76, "velocity": 60, "note_on_time": 39.203, "note_off_time": 39.391}, {"pitch": 72, "velocity": 64, "note_on_time": 40.54, "note_off_time": 40.833}, {"pitch": 77, "velocity": 55, "note_on_time": 44.287, "note_off_time": 44.949}, {"pitch": 76, "velocity": 22, "note_on_time": 47.216, "note_off_time": 47.522}, {"pitch": 77, "velocity": 37, "note_on_time": 48.051, "note_off_time": 48.307}, {"pitch": 76, "velocity": 65, "note_on_time": 52.243, "note_off_time": 52.834}, {"pitch": 72, "velocity": 66, "note_on_time": 60.181, "note_off_time": 60.85}, {"pitch": 77, "velocity": 58, "note_on_time": 68.198, "note_off_time": 68.675}, {"pitch": 76, "velocity": 67, "note_on_time": 69.483, "note_off_time": 70.18}, {"pitch": 77, "velocity": 74, "note_on_time": 76.215, "note_off_time": 76.762}, {"pitch": 77, "velocity": 48, "note_on_time": 79.046, "note_off_time": 79.279}, {"pitch": 79, "velocity": 65, "note_on_time": 84.38, "note_off_time": 84.969}, {"pitch": 74, "velocity": 61, "note_on_time": 92.241, "note_off_time": 92.76}, {"pitch": 76, "velocity": 60, "note_on_time": 93.369, "note_off_time": 94.237}, {"pitch": 77, "velocity": 62, "note_on_time": 100.53, "note_off_time": 101.38}, {"pitch": 76, "velocity": 53, "note_on_time": 108.924, "note_off_time": 109.92}, {"pitch": 77, "velocity": 55, "note_on_time": 116.443, "note_off_time": 116.942}, {"pitch": 79, "velocity": 66, "note_on_time": 117.56, "note_off_time": 117.832}, {"pitch": 79, "velocity": 42, "note_on_time": 118.433, "note_off_time": 119.279}, {"pitch": 74, "velocity": 65, "note_on_time": 124.494, "note_off_time": 124.934}, {"pitch": 76, "velocity": 64, "note_on_time": 125.773, "note_off_time": 127.067}, {"pitch": 72, "velocity": 46, "note_on_time": 128.475, "note_off_time": 128.715}, {"pitch": 72, "velocity": 64, "note_on_time": 132.715, "note_off_time": 133.13}, {"pitch": 74, "velocity": 75, "note_on_time": 133.72, "note_off_time": 134.249}, {"pitch": 74, "velocity": 49, "note_on_time": 135.584, "note_off_time": 136.153}, {"pitch": 77, "velocity": 62, "note_on_time": 140.199, "note_off_time": 141.074}, {"pitch": 76, "velocity": 55, "note_on_time": 141.779, "note_off_time": 142.404}, {"pitch": 77, "velocity": 68, "note_on_time": 148.63, "note_off_time": 149.114}, {"pitch": 76, "velocity": 65, "note_on_time": 149.429, "note_off_time": 149.97}, {"pitch": 72, "velocity": 78, "note_on_time": 150.715, "note_off_time": 151.572}, {"pitch": 77, "velocity": 58, "note_on_time": 156.943, "note_off_time": 157.686}]</notes><guidance name="Guidance Mode">None</guidance><error name="Error value">99</error></trial></trials></MIDI>