<MIDI midiNo="2023_06_14-12_21_12"><target_notes><notes name="Note List">[{"pitch": 60, "velocity": 40, "note_on_time": 0.01, "note_off_time": 1.014}, {"pitch": 64, "velocity": 40, "note_on_time": 0.01, "note_off_time": 1.015}, {"pitch": 67, "velocity": 40, "note_on_time": 0.01, "note_off_time": 1.016}, {"pitch": 48, "velocity": 40, "note_on_time": 0.01, "note_off_time": 1.016}, {"pitch": 52, "velocity": 40, "note_on_time": 1.016, "note_off_time": 2.017}, {"pitch": 55, "velocity": 40, "note_on_time": 1.016, "note_off_time": 2.019}, {"pitch": 79, "velocity": 40, "note_on_time": 2.017, "note_off_time": 3.019}, {"pitch": 48, "velocity": 40, "note_on_time": 2.019, "note_off_time": 3.019}, {"pitch": 52, "velocity": 40, "note_on_time": 3.02, "note_off_time": 4.032}, {"pitch": 55, "velocity": 40, "note_on_time": 3.02, "note_off_time": 4.033}, {"pitch": 48, "velocity": 40, "note_on_time": 4.033, "note_off_time": 5.044}, {"pitch": 52, "velocity": 40, "note_on_time": 5.044, "note_off_time": 6.051}, {"pitch": 55, "velocity": 40, "note_on_time": 5.044, "note_off_time": 6.051}, {"pitch": 48, "velocity": 40, "note_on_time": 6.051, "note_off_time": 7.064}, {"pitch": 52, "velocity": 40, "note_on_time": 7.064, "note_off_time": 8.082}, {"pitch": 55, "velocity": 40, "note_on_time": 7.064, "note_off_time": 8.082}, {"pitch": 60, "velocity": 40, "note_on_time": 8.079, "note_off_time": 9.087}, {"pitch": 64, "velocity": 40, "note_on_time": 8.081, "note_off_time": 9.088}, {"pitch": 67, "velocity": 40, "note_on_time": 8.081, "note_off_time": 9.089}, {"pitch": 48, "velocity": 40, "note_on_time": 8.082, "note_off_time": 9.089}, {"pitch": 52, "velocity": 40, "note_on_time": 9.089, "note_off_time": 10.096}, {"pitch": 55, "velocity": 40, "note_on_time": 9.089, "note_off_time": 10.097}, {"pitch": 74, "velocity": 40, "note_on_time": 10.096, "note_off_time": 11.109}, {"pitch": 48, "velocity": 40, "note_on_time": 10.097, "note_off_time": 11.109}, {"pitch": 52, "velocity": 40, "note_on_time": 11.11, "note_off_time": 12.122}, {"pitch": 55, "velocity": 40, "note_on_time": 11.11, "note_off_time": 12.122}, {"pitch": 48, "velocity": 40, "note_on_time": 12.122, "note_off_time": 13.133}, {"pitch": 52, "velocity": 40, "note_on_time": 13.133, "note_off_time": 14.148}, {"pitch": 55, "velocity": 40, "note_on_time": 13.133, "note_off_time": 14.148}, {"pitch": 48, "velocity": 40, "note_on_time": 14.149, "note_off_time": 15.152}, {"pitch": 52, "velocity": 40, "note_on_time": 15.152, "note_off_time": 16.163}, {"pitch": 55, "velocity": 40, "note_on_time": 15.152, "note_off_time": 16.163}, {"pitch": 60, "velocity": 40, "note_on_time": 16.162, "note_off_time": 17.175}, {"pitch": 64, "velocity": 40, "note_on_time": 16.162, "note_off_time": 17.176}, {"pitch": 67, "velocity": 40, "note_on_time": 16.163, "note_off_time": 17.177}, {"pitch": 48, "velocity": 40, "note_on_time": 16.164, "note_off_time": 17.177}, {"pitch": 52, "velocity": 40, "note_on_time": 17.177, "note_off_time": 18.192}, {"pitch": 55, "velocity": 40, "note_on_time": 17.177, "note_off_time": 18.193}, {"pitch": 79, "velocity": 40, "note_on_time": 18.192, "note_off_time": 19.208}, {"pitch": 48, "velocity": 40, "note_on_time": 18.193, "note_off_time": 19.208}, {"pitch": 52, "velocity": 40, "note_on_time": 19.209, "note_off_time": 20.22}, {"pitch": 55, "velocity": 40, "note_on_time": 19.209, "note_off_time": 20.22}, {"pitch": 48, "velocity": 40, "note_on_time": 20.22, "note_off_time": 21.231}, {"pitch": 52, "velocity": 40, "note_on_time": 21.231, "note_off_time": 22.24}, {"pitch": 55, "velocity": 40, "note_on_time": 21.231, "note_off_time": 22.24}, {"pitch": 48, "velocity": 40, "note_on_time": 22.24, "note_off_time": 23.249}, {"pitch": 52, "velocity": 40, "note_on_time": 23.249, "note_off_time": 24.257}, {"pitch": 55, "velocity": 40, "note_on_time": 23.249, "note_off_time": 24.257}, {"pitch": 60, "velocity": 40, "note_on_time": 24.257, "note_off_time": 25.265}, {"pitch": 64, "velocity": 40, "note_on_time": 24.257, "note_off_time": 25.266}, {"pitch": 67, "velocity": 40, "note_on_time": 24.257, "note_off_time": 25.267}, {"pitch": 48, "velocity": 40, "note_on_time": 24.257, "note_off_time": 25.267}, {"pitch": 52, "velocity": 40, "note_on_time": 25.267, "note_off_time": 26.276}, {"pitch": 55, "velocity": 40, "note_on_time": 25.267, "note_off_time": 26.277}, {"pitch": 74, "velocity": 40, "note_on_time": 26.276, "note_off_time": 27.291}, {"pitch": 48, "velocity": 40, "note_on_time": 26.277, "note_off_time": 27.291}, {"pitch": 52, "velocity": 40, "note_on_time": 27.291, "note_off_time": 28.303}, {"pitch": 55, "velocity": 40, "note_on_time": 27.291, "note_off_time": 28.303}, {"pitch": 48, "velocity": 40, "note_on_time": 28.303, "note_off_time": 29.31}, {"pitch": 52, "velocity": 40, "note_on_time": 29.31, "note_off_time": 30.316}, {"pitch": 55, "velocity": 40, "note_on_time": 29.31, "note_off_time": 30.316}, {"pitch": 48, "velocity": 40, "note_on_time": 30.316, "note_off_time": 31.326}, {"pitch": 52, "velocity": 40, "note_on_time": 31.326, "note_off_time": 32.339}, {"pitch": 55, "velocity": 40, "note_on_time": 31.326, "note_off_time": 32.339}, {"pitch": 60, "velocity": 40, "note_on_time": 32.338, "note_off_time": 33.351}, {"pitch": 64, "velocity": 40, "note_on_time": 32.338, "note_off_time": 33.352}, {"pitch": 67, "velocity": 40, "note_on_time": 32.339, "note_off_time": 33.352}, {"pitch": 48, "velocity": 40, "note_on_time": 32.339, "note_off_time": 33.353}, {"pitch": 52, "velocity": 40, "note_on_time": 33.353, "note_off_time": 34.363}, {"pitch": 55, "velocity": 40, "note_on_time": 33.353, "note_off_time": 34.363}, {"pitch": 76, "velocity": 40, "note_on_time": 34.362, "note_off_time": 35.367}, {"pitch": 48, "velocity": 40, "note_on_time": 34.363, "note_off_time": 35.367}, {"pitch": 52, "velocity": 40, "note_on_time": 35.368, "note_off_time": 36.37}, {"pitch": 55, "velocity": 40, "note_on_time": 35.368, "note_off_time": 36.37}, {"pitch": 48, "velocity": 40, "note_on_time": 36.37, "note_off_time": 37.38}, {"pitch": 52, "velocity": 40, "note_on_time": 37.38, "note_off_time": 38.392}, {"pitch": 55, "velocity": 40, "note_on_time": 37.38, "note_off_time": 38.392}, {"pitch": 48, "velocity": 40, "note_on_time": 38.392, "note_off_time": 39.403}, {"pitch": 52, "velocity": 40, "note_on_time": 39.403, "note_off_time": 40.414}, {"pitch": 55, "velocity": 40, "note_on_time": 39.403, "note_off_time": 40.414}, {"pitch": 60, "velocity": 40, "note_on_time": 40.413, "note_off_time": 41.424}, {"pitch": 64, "velocity": 40, "note_on_time": 40.413, "note_off_time": 41.425}, {"pitch": 67, "velocity": 40, "note_on_time": 40.414, "note_off_time": 41.425}, {"pitch": 72, "velocity": 40, "note_on_time": 42.426, "note_off_time": 43.441}, {"pitch": 60, "velocity": 40, "note_on_time": 48.445, "note_off_time": 49.451}, {"pitch": 64, "velocity": 40, "note_on_time": 48.446, "note_off_time": 49.452}, {"pitch": 67, "velocity": 40, "note_on_time": 48.446, "note_off_time": 49.452}, {"pitch": 76, "velocity": 40, "note_on_time": 50.458, "note_off_time": 51.469}, {"pitch": 60, "velocity": 40, "note_on_time": 56.472, "note_off_time": 57.485}, {"pitch": 64, "velocity": 40, "note_on_time": 56.473, "note_off_time": 57.487}, {"pitch": 67, "velocity": 40, "note_on_time": 56.473, "note_off_time": 57.487}, {"pitch": 77, "velocity": 40, "note_on_time": 58.502, "note_off_time": 59.514}, {"pitch": 60, "velocity": 40, "note_on_time": 64.515, "note_off_time": 65.532}, {"pitch": 64, "velocity": 40, "note_on_time": 64.516, "note_off_time": 65.533}, {"pitch": 67, "velocity": 40, "note_on_time": 64.517, "note_off_time": 65.533}, {"pitch": 76, "velocity": 40, "note_on_time": 66.546, "note_off_time": 67.554}, {"pitch": 60, "velocity": 40, "note_on_time": 72.558, "note_off_time": 73.571}, {"pitch": 64, "velocity": 40, "note_on_time": 72.559, "note_off_time": 73.572}, {"pitch": 67, "velocity": 40, "note_on_time": 72.559, "note_off_time": 73.573}, {"pitch": 72, "velocity": 40, "note_on_time": 74.586, "note_off_time": 75.59}, {"pitch": 60, "velocity": 40, "note_on_time": 80.605, "note_off_time": 81.616}, {"pitch": 64, "velocity": 40, "note_on_time": 80.605, "note_off_time": 81.617}, {"pitch": 67, "velocity": 40, "note_on_time": 80.606, "note_off_time": 81.617}, {"pitch": 77, "velocity": 40, "note_on_time": 82.631, "note_off_time": 83.641}, {"pitch": 60, "velocity": 40, "note_on_time": 88.652, "note_off_time": 89.664}, {"pitch": 64, "velocity": 40, "note_on_time": 88.652, "note_off_time": 89.664}, {"pitch": 67, "velocity": 40, "note_on_time": 88.652, "note_off_time": 89.664}, {"pitch": 72, "velocity": 40, "note_on_time": 90.677, "note_off_time": 91.691}, {"pitch": 60, "velocity": 40, "note_on_time": 96.701, "note_off_time": 97.71}, {"pitch": 64, "velocity": 40, "note_on_time": 96.702, "note_off_time": 97.711}, {"pitch": 67, "velocity": 40, "note_on_time": 96.702, "note_off_time": 97.711}, {"pitch": 79, "velocity": 40, "note_on_time": 98.725, "note_off_time": 99.74}, {"pitch": 60, "velocity": 40, "note_on_time": 104.752, "note_off_time": 105.761}, {"pitch": 64, "velocity": 40, "note_on_time": 104.753, "note_off_time": 105.762}, {"pitch": 67, "velocity": 40, "note_on_time": 104.754, "note_off_time": 105.763}, {"pitch": 74, "velocity": 40, "note_on_time": 106.771, "note_off_time": 107.774}, {"pitch": 60, "velocity": 40, "note_on_time": 112.78, "note_off_time": 113.792}, {"pitch": 64, "velocity": 40, "note_on_time": 112.781, "note_off_time": 113.793}, {"pitch": 67, "velocity": 40, "note_on_time": 112.781, "note_off_time": 113.793}, {"pitch": 77, "velocity": 40, "note_on_time": 114.807, "note_off_time": 115.811}, {"pitch": 60, "velocity": 40, "note_on_time": 120.816, "note_off_time": 121.826}, {"pitch": 64, "velocity": 40, "note_on_time": 120.817, "note_off_time": 121.827}, {"pitch": 67, "velocity": 40, "note_on_time": 120.817, "note_off_time": 121.828}, {"pitch": 79, "velocity": 40, "note_on_time": 122.838, "note_off_time": 123.852}, {"pitch": 60, "velocity": 40, "note_on_time": 128.853, "note_off_time": 129.864}, {"pitch": 64, "velocity": 40, "note_on_time": 128.854, "note_off_time": 129.864}, {"pitch": 67, "velocity": 40, "note_on_time": 128.855, "note_off_time": 129.865}, {"pitch": 77, "velocity": 40, "note_on_time": 130.881, "note_off_time": 131.899}, {"pitch": 60, "velocity": 40, "note_on_time": 136.904, "note_off_time": 137.911}, {"pitch": 64, "velocity": 40, "note_on_time": 136.905, "note_off_time": 137.913}, {"pitch": 67, "velocity": 40, "note_on_time": 136.905, "note_off_time": 137.913}, {"pitch": 74, "velocity": 40, "note_on_time": 138.924, "note_off_time": 139.936}, {"pitch": 60, "velocity": 40, "note_on_time": 144.944, "note_off_time": 145.947}, {"pitch": 64, "velocity": 40, "note_on_time": 144.945, "note_off_time": 145.947}, {"pitch": 67, "velocity": 40, "note_on_time": 144.946, "note_off_time": 145.948}, {"pitch": 72, "velocity": 40, "note_on_time": 146.962, "note_off_time": 147.974}, {"pitch": 60, "velocity": 40, "note_on_time": 152.978, "note_off_time": 153.994}, {"pitch": 64, "velocity": 40, "note_on_time": 152.979, "note_off_time": 153.994}, {"pitch": 67, "velocity": 40, "note_on_time": 152.979, "note_off_time": 153.995}, {"pitch": 76, "velocity": 40, "note_on_time": 155.011, "note_off_time": 156.025}, {"pitch": 60, "velocity": 40, "note_on_time": 161.027, "note_off_time": 162.042}, {"pitch": 64, "velocity": 40, "note_on_time": 161.028, "note_off_time": 162.043}, {"pitch": 67, "velocity": 40, "note_on_time": 161.029, "note_off_time": 162.044}, {"pitch": 79, "velocity": 40, "note_on_time": 163.059, "note_off_time": 164.063}]</notes><options name="Option List">((4, 4), [0.5, 0.25], 3, 8, &lt;NoteRangePerHand.TWO_NOTES: 3&gt;, &lt;NoteRangePerHand.ONE_NOTE: 2&gt;, False, True, True, 100)</options></target_notes><trials><trial trial_no="1" timestamp="2023_06_14-12_18_27"><notes name="Played Notes">[{"pitch": 72, "velocity": 44, "note_on_time": 3.472, "note_off_time": 3.644}, {"pitch": 74, "velocity": 34, "note_on_time": 4.36, "note_off_time": 4.531}, {"pitch": 76, "velocity": 37, "note_on_time": 5.025, "note_off_time": 5.205}, {"pitch": 77, "velocity": 43, "note_on_time": 5.683, "note_off_time": 5.842}, {"pitch": 79, "velocity": 33, "note_on_time": 6.151, "note_off_time": 6.43}, {"pitch": 79, "velocity": 51, "note_on_time": 7.482, "note_off_time": 7.673}, {"pitch": 79, "velocity": 39, "note_on_time": 8.114, "note_off_time": 8.261}, {"pitch": 77, "velocity": 34, "note_on_time": 12.272, "note_off_time": 12.446}, {"pitch": 76, "velocity": 40, "note_on_time": 12.852, "note_off_time": 13.016}, {"pitch": 74, "velocity": 30, "note_on_time": 13.682, "note_off_time": 13.837}, {"pitch": 72, "velocity": 39, "note_on_time": 14.338, "note_off_time": 14.517}, {"pitch": 74, "velocity": 23, "note_on_time": 20.308, "note_off_time": 20.486}, {"pitch": 72, "velocity": 31, "note_on_time": 22.082, "note_off_time": 22.229}, {"pitch": 76, "velocity": 42, "note_on_time": 23.82, "note_off_time": 23.959}, {"pitch": 76, "velocity": 30, "note_on_time": 28.188, "note_off_time": 28.389}, {"pitch": 77, "velocity": 26, "note_on_time": 29.141, "note_off_time": 29.354}, {"pitch": 74, "velocity": 56, "note_on_time": 30.488, "note_off_time": 30.637}, {"pitch": 72, "velocity": 38, "note_on_time": 31.653, "note_off_time": 31.848}, {"pitch": 76, "velocity": 30, "note_on_time": 36.006, "note_off_time": 36.167}, {"pitch": 72, "velocity": 31, "note_on_time": 37.023, "note_off_time": 37.199}, {"pitch": 74, "velocity": 47, "note_on_time": 37.86, "note_off_time": 38.013}, {"pitch": 77, "velocity": 44, "note_on_time": 38.881, "note_off_time": 39.061}, {"pitch": 79, "velocity": 42, "note_on_time": 39.643, "note_off_time": 39.886}, {"pitch": 77, "velocity": 34, "note_on_time": 44.555, "note_off_time": 44.766}, {"pitch": 74, "velocity": 44, "note_on_time": 46.589, "note_off_time": 46.783}, {"pitch": 72, "velocity": 31, "note_on_time": 47.529, "note_off_time": 47.709}, {"pitch": 77, "velocity": 31, "note_on_time": 48.604, "note_off_time": 48.723}, {"pitch": 77, "velocity": 33, "note_on_time": 52.45, "note_off_time": 52.629}, {"pitch": 72, "velocity": 13, "note_on_time": 53.617, "note_off_time": 53.847}, {"pitch": 74, "velocity": 48, "note_on_time": 55.271, "note_off_time": 55.425}, {"pitch": 79, "velocity": 29, "note_on_time": 56.209, "note_off_time": 56.468}, {"pitch": 72, "velocity": 42, "note_on_time": 60.342, "note_off_time": 60.505}, {"pitch": 74, "velocity": 32, "note_on_time": 61.71, "note_off_time": 61.857}, {"pitch": 77, "velocity": 31, "note_on_time": 62.626, "note_off_time": 62.798}, {"pitch": 79, "velocity": 36, "note_on_time": 63.733, "note_off_time": 63.974}, {"pitch": 74, "velocity": 23, "note_on_time": 68.855, "note_off_time": 69.047}, {"pitch": 77, "velocity": 32, "note_on_time": 69.926, "note_off_time": 70.081}, {"pitch": 76, "velocity": 47, "note_on_time": 70.811, "note_off_time": 70.954}, {"pitch": 72, "velocity": 36, "note_on_time": 72.186, "note_off_time": 72.366}, {"pitch": 72, "velocity": 32, "note_on_time": 76.058, "note_off_time": 76.254}, {"pitch": 74, "velocity": 45, "note_on_time": 77.383, "note_off_time": 77.55}, {"pitch": 76, "velocity": 54, "note_on_time": 78.537, "note_off_time": 78.685}, {"pitch": 77, "velocity": 45, "note_on_time": 80.137, "note_off_time": 80.269}, {"pitch": 79, "velocity": 27, "note_on_time": 84.037, "note_off_time": 84.303}, {"pitch": 76, "velocity": 28, "note_on_time": 85.228, "note_off_time": 85.415}, {"pitch": 74, "velocity": 47, "note_on_time": 86.265, "note_off_time": 86.397}, {"pitch": 77, "velocity": 44, "note_on_time": 87.334, "note_off_time": 87.5}, {"pitch": 72, "velocity": 45, "note_on_time": 88.425, "note_off_time": 88.581}, {"pitch": 74, "velocity": 40, "note_on_time": 92.72, "note_off_time": 92.895}, {"pitch": 76, "velocity": 33, "note_on_time": 93.906, "note_off_time": 94.1}, {"pitch": 77, "velocity": 42, "note_on_time": 95.067, "note_off_time": 95.253}, {"pitch": 79, "velocity": 35, "note_on_time": 95.938, "note_off_time": 96.158}, {"pitch": 72, "velocity": 37, "note_on_time": 96.699, "note_off_time": 96.854}, {"pitch": 79, "velocity": 13, "note_on_time": 100.706, "note_off_time": 100.97}, {"pitch": 74, "velocity": 47, "note_on_time": 101.649, "note_off_time": 101.808}, {"pitch": 72, "velocity": 41, "note_on_time": 102.933, "note_off_time": 103.134}, {"pitch": 76, "velocity": 34, "note_on_time": 104.135, "note_off_time": 104.319}, {"pitch": 76, "velocity": 19, "note_on_time": 108.329, "note_off_time": 108.537}, {"pitch": 74, "velocity": 42, "note_on_time": 109.139, "note_off_time": 109.303}, {"pitch": 72, "velocity": 33, "note_on_time": 110.359, "note_off_time": 110.53}, {"pitch": 77, "velocity": 40, "note_on_time": 111.68, "note_off_time": 111.843}, {"pitch": 79, "velocity": 46, "note_on_time": 112.804, "note_off_time": 112.998}, {"pitch": 72, "velocity": 44, "note_on_time": 116.433, "note_off_time": 116.583}, {"pitch": 76, "velocity": 49, "note_on_time": 117.24, "note_off_time": 117.416}, {"pitch": 77, "velocity": 39, "note_on_time": 118.288, "note_off_time": 118.478}, {"pitch": 74, "velocity": 41, "note_on_time": 119.613, "note_off_time": 119.732}, {"pitch": 79, "velocity": 39, "note_on_time": 120.907, "note_off_time": 121.054}, {"pitch": 72, "velocity": 21, "note_on_time": 124.843, "note_off_time": 125.001}, {"pitch": 74, "velocity": 1, "note_on_time": 126.007, "note_off_time": 126.264}, {"pitch": 76, "velocity": 58, "note_on_time": 126.746, "note_off_time": 126.926}, {"pitch": 77, "velocity": 38, "note_on_time": 127.513, "note_off_time": 127.726}, {"pitch": 79, "velocity": 36, "note_on_time": 129.016, "note_off_time": 129.148}, {"pitch": 76, "velocity": 34, "note_on_time": 132.729, "note_off_time": 132.899}, {"pitch": 74, "velocity": 40, "note_on_time": 133.545, "note_off_time": 133.741}, {"pitch": 72, "velocity": 40, "note_on_time": 134.5, "note_off_time": 134.71}, {"pitch": 77, "velocity": 41, "note_on_time": 135.449, "note_off_time": 135.65}, {"pitch": 79, "velocity": 44, "note_on_time": 136.587, "note_off_time": 136.783}, {"pitch": 72, "velocity": 38, "note_on_time": 140.233, "note_off_time": 140.459}, {"pitch": 74, "velocity": 46, "note_on_time": 141.002, "note_off_time": 141.176}, {"pitch": 76, "velocity": 36, "note_on_time": 141.78, "note_off_time": 141.933}, {"pitch": 77, "velocity": 33, "note_on_time": 142.746, "note_off_time": 142.961}, {"pitch": 79, "velocity": 40, "note_on_time": 143.737, "note_off_time": 143.902}, {"pitch": 74, "velocity": 30, "note_on_time": 149.068, "note_off_time": 149.246}, {"pitch": 76, "velocity": 36, "note_on_time": 149.892, "note_off_time": 150.112}, {"pitch": 72, "velocity": 37, "note_on_time": 150.65, "note_off_time": 150.839}, {"pitch": 77, "velocity": 43, "note_on_time": 151.632, "note_off_time": 151.822}, {"pitch": 79, "velocity": 28, "note_on_time": 152.447, "note_off_time": 152.668}, {"pitch": 77, "velocity": 34, "note_on_time": 156.429, "note_off_time": 156.617}, {"pitch": 79, "velocity": 32, "note_on_time": 157.057, "note_off_time": 157.263}, {"pitch": 76, "velocity": 41, "note_on_time": 158.209, "note_off_time": 158.38}, {"pitch": 74, "velocity": 40, "note_on_time": 159.576, "note_off_time": 159.728}, {"pitch": 72, "velocity": 36, "note_on_time": 160.436, "note_off_time": 160.603}]</notes><guidance name="Guidance Mode">None</guidance><error name="Error value">99</error></trial><trial trial_no="2" timestamp="2023_06_14-12_22_38"><notes name="Played Notes">[{"pitch": 72, "velocity": 34, "note_on_time": 0.924, "note_off_time": 1.165}, {"pitch": 74, "velocity": 60, "note_on_time": 1.476, "note_off_time": 1.634}, {"pitch": 76, "velocity": 45, "note_on_time": 1.849, "note_off_time": 2.039}, {"pitch": 77, "velocity": 57, "note_on_time": 2.331, "note_off_time": 2.521}, {"pitch": 79, "velocity": 36, "note_on_time": 2.732, "note_off_time": 3.003}, {"pitch": 72, "velocity": 22, "note_on_time": 3.43, "note_off_time": 3.648}, {"pitch": 74, "velocity": 58, "note_on_time": 3.856, "note_off_time": 4.017}, {"pitch": 76, "velocity": 49, "note_on_time": 4.252, "note_off_time": 4.435}, {"pitch": 77, "velocity": 46, "note_on_time": 4.655, "note_off_time": 4.815}, {"pitch": 79, "velocity": 5, "note_on_time": 5.069, "note_off_time": 5.323}, {"pitch": 72, "velocity": 44, "note_on_time": 5.606, "note_off_time": 5.788}, {"pitch": 74, "velocity": 60, "note_on_time": 6.085, "note_off_time": 6.25}, {"pitch": 76, "velocity": 52, "note_on_time": 6.461, "note_off_time": 6.628}, {"pitch": 77, "velocity": 59, "note_on_time": 6.923, "note_off_time": 7.109}, {"pitch": 79, "velocity": 32, "note_on_time": 7.312, "note_off_time": 7.539}, {"pitch": 72, "velocity": 52, "note_on_time": 7.812, "note_off_time": 7.968}, {"pitch": 74, "velocity": 59, "note_on_time": 8.276, "note_off_time": 8.424}, {"pitch": 76, "velocity": 58, "note_on_time": 8.66, "note_off_time": 8.844}, {"pitch": 77, "velocity": 56, "note_on_time": 9.194, "note_off_time": 9.365}, {"pitch": 79, "velocity": 38, "note_on_time": 9.665, "note_off_time": 9.884}, {"pitch": 72, "velocity": 45, "note_on_time": 10.162, "note_off_time": 10.344}, {"pitch": 74, "velocity": 48, "note_on_time": 10.619, "note_off_time": 10.767}, {"pitch": 76, "velocity": 56, "note_on_time": 11.063, "note_off_time": 11.22}, {"pitch": 77, "velocity": 56, "note_on_time": 11.549, "note_off_time": 11.696}, {"pitch": 79, "velocity": 33, "note_on_time": 11.979, "note_off_time": 12.175}, {"pitch": 79, "velocity": 45, "note_on_time": 12.49, "note_off_time": 12.698}, {"pitch": 77, "velocity": 57, "note_on_time": 13.256, "note_off_time": 13.388}, {"pitch": 76, "velocity": 64, "note_on_time": 13.655, "note_off_time": 13.804}, {"pitch": 74, "velocity": 61, "note_on_time": 14.132, "note_off_time": 14.272}, {"pitch": 72, "velocity": 43, "note_on_time": 14.566, "note_off_time": 14.73}, {"pitch": 79, "velocity": 38, "note_on_time": 14.998, "note_off_time": 15.242}, {"pitch": 77, "velocity": 52, "note_on_time": 15.5, "note_off_time": 15.657}, {"pitch": 76, "velocity": 57, "note_on_time": 15.954, "note_off_time": 16.1}, {"pitch": 74, "velocity": 58, "note_on_time": 16.37, "note_off_time": 16.507}, {"pitch": 72, "velocity": 49, "note_on_time": 16.76, "note_off_time": 16.918}, {"pitch": 79, "velocity": 47, "note_on_time": 17.164, "note_off_time": 17.39}, {"pitch": 77, "velocity": 41, "note_on_time": 17.675, "note_off_time": 17.83}, {"pitch": 76, "velocity": 55, "note_on_time": 18.138, "note_off_time": 18.28}, {"pitch": 74, "velocity": 54, "note_on_time": 18.583, "note_off_time": 18.72}, {"pitch": 72, "velocity": 46, "note_on_time": 18.967, "note_off_time": 19.138}, {"pitch": 79, "velocity": 46, "note_on_time": 19.418, "note_off_time": 19.654}, {"pitch": 77, "velocity": 46, "note_on_time": 20.114, "note_off_time": 20.236}, {"pitch": 76, "velocity": 59, "note_on_time": 20.506, "note_off_time": 20.664}, {"pitch": 74, "velocity": 52, "note_on_time": 20.915, "note_off_time": 21.047}, {"pitch": 72, "velocity": 44, "note_on_time": 21.308, "note_off_time": 21.46}, {"pitch": 79, "velocity": 54, "note_on_time": 21.714, "note_off_time": 21.917}, {"pitch": 77, "velocity": 45, "note_on_time": 22.236, "note_off_time": 22.361}, {"pitch": 76, "velocity": 50, "note_on_time": 22.698, "note_off_time": 22.858}, {"pitch": 74, "velocity": 38, "note_on_time": 23.209, "note_off_time": 23.368}, {"pitch": 72, "velocity": 46, "note_on_time": 23.593, "note_off_time": 23.746}, {"pitch": 79, "velocity": 46, "note_on_time": 23.954, "note_off_time": 24.153}, {"pitch": 77, "velocity": 50, "note_on_time": 24.418, "note_off_time": 24.591}, {"pitch": 76, "velocity": 52, "note_on_time": 24.848, "note_off_time": 25.001}, {"pitch": 74, "velocity": 55, "note_on_time": 25.29, "note_off_time": 25.422}, {"pitch": 72, "velocity": 41, "note_on_time": 25.699, "note_off_time": 25.844}, {"pitch": 76, "velocity": 6, "note_on_time": 28.24, "note_off_time": 28.433}, {"pitch": 77, "velocity": 56, "note_on_time": 28.707, "note_off_time": 28.854}, {"pitch": 77, "velocity": 35, "note_on_time": 30.466, "note_off_time": 30.701}, {"pitch": 79, "velocity": 55, "note_on_time": 30.903, "note_off_time": 31.159}, {"pitch": 72, "velocity": 42, "note_on_time": 33.052, "note_off_time": 33.225}, {"pitch": 74, "velocity": 62, "note_on_time": 33.764, "note_off_time": 33.93}, {"pitch": 76, "velocity": 48, "note_on_time": 34.151, "note_off_time": 34.337}, {"pitch": 77, "velocity": 58, "note_on_time": 34.498, "note_off_time": 34.672}, {"pitch": 79, "velocity": 52, "note_on_time": 34.853, "note_off_time": 35.115}, {"pitch": 72, "velocity": 50, "note_on_time": 35.662, "note_off_time": 35.845}, {"pitch": 74, "velocity": 56, "note_on_time": 36.301, "note_off_time": 36.465}, {"pitch": 76, "velocity": 52, "note_on_time": 36.646, "note_off_time": 36.806}, {"pitch": 77, "velocity": 50, "note_on_time": 36.999, "note_off_time": 37.163}, {"pitch": 79, "velocity": 42, "note_on_time": 37.367, "note_off_time": 37.594}, {"pitch": 72, "velocity": 46, "note_on_time": 37.802, "note_off_time": 37.988}, {"pitch": 74, "velocity": 51, "note_on_time": 38.54, "note_off_time": 38.661}, {"pitch": 76, "velocity": 56, "note_on_time": 38.896, "note_off_time": 39.041}, {"pitch": 77, "velocity": 56, "note_on_time": 39.239, "note_off_time": 39.403}, {"pitch": 79, "velocity": 51, "note_on_time": 39.602, "note_off_time": 39.794}, {"pitch": 72, "velocity": 54, "note_on_time": 40.022, "note_off_time": 40.229}, {"pitch": 74, "velocity": 47, "note_on_time": 40.974, "note_off_time": 41.118}, {"pitch": 76, "velocity": 48, "note_on_time": 41.43, "note_off_time": 41.585}, {"pitch": 77, "velocity": 47, "note_on_time": 41.778, "note_off_time": 41.947}, {"pitch": 79, "velocity": 27, "note_on_time": 42.166, "note_off_time": 42.414}, {"pitch": 72, "velocity": 43, "note_on_time": 42.68, "note_off_time": 42.875}, {"pitch": 74, "velocity": 43, "note_on_time": 43.475, "note_off_time": 43.635}, {"pitch": 76, "velocity": 47, "note_on_time": 43.914, "note_off_time": 44.065}, {"pitch": 77, "velocity": 47, "note_on_time": 44.28, "note_off_time": 44.436}, {"pitch": 79, "velocity": 52, "note_on_time": 44.642, "note_off_time": 44.872}, {"pitch": 72, "velocity": 45, "note_on_time": 45.109, "note_off_time": 45.324}, {"pitch": 74, "velocity": 54, "note_on_time": 45.843, "note_off_time": 45.983}, {"pitch": 76, "velocity": 57, "note_on_time": 46.204, "note_off_time": 46.372}, {"pitch": 77, "velocity": 47, "note_on_time": 46.556, "note_off_time": 46.702}, {"pitch": 79, "velocity": 49, "note_on_time": 46.912, "note_off_time": 47.094}, {"pitch": 72, "velocity": 43, "note_on_time": 47.35, "note_off_time": 47.53}, {"pitch": 77, "velocity": 46, "note_on_time": 48.747, "note_off_time": 48.915}, {"pitch": 76, "velocity": 43, "note_on_time": 49.153, "note_off_time": 49.36}, {"pitch": 74, "velocity": 53, "note_on_time": 49.56, "note_off_time": 49.731}, {"pitch": 72, "velocity": 35, "note_on_time": 49.976, "note_off_time": 50.151}, {"pitch": 79, "velocity": 60, "note_on_time": 50.408, "note_off_time": 50.64}, {"pitch": 77, "velocity": 44, "note_on_time": 51.151, "note_off_time": 51.328}, {"pitch": 76, "velocity": 64, "note_on_time": 51.549, "note_off_time": 51.717}, {"pitch": 74, "velocity": 58, "note_on_time": 51.942, "note_off_time": 52.074}, {"pitch": 72, "velocity": 34, "note_on_time": 52.352, "note_off_time": 52.488}, {"pitch": 79, "velocity": 37, "note_on_time": 52.776, "note_off_time": 52.979}, {"pitch": 77, "velocity": 45, "note_on_time": 53.358, "note_off_time": 53.525}, {"pitch": 76, "velocity": 59, "note_on_time": 53.762, "note_off_time": 53.901}, {"pitch": 74, "velocity": 56, "note_on_time": 54.179, "note_off_time": 54.341}, {"pitch": 72, "velocity": 44, "note_on_time": 54.594, "note_off_time": 54.72}, {"pitch": 79, "velocity": 49, "note_on_time": 55.332, "note_off_time": 55.502}, {"pitch": 77, "velocity": 53, "note_on_time": 56.097, "note_off_time": 56.304}, {"pitch": 76, "velocity": 55, "note_on_time": 56.536, "note_off_time": 56.689}, {"pitch": 74, "velocity": 42, "note_on_time": 56.938, "note_off_time": 57.113}, {"pitch": 72, "velocity": 33, "note_on_time": 57.374, "note_off_time": 57.556}, {"pitch": 79, "velocity": 58, "note_on_time": 58.013, "note_off_time": 58.201}, {"pitch": 77, "velocity": 45, "note_on_time": 58.54, "note_off_time": 58.671}, {"pitch": 76, "velocity": 45, "note_on_time": 58.921, "note_off_time": 59.052}, {"pitch": 74, "velocity": 56, "note_on_time": 59.359, "note_off_time": 59.496}, {"pitch": 72, "velocity": 36, "note_on_time": 59.761, "note_off_time": 59.896}, {"pitch": 79, "velocity": 62, "note_on_time": 60.165, "note_off_time": 60.356}, {"pitch": 76, "velocity": 50, "note_on_time": 61.87, "note_off_time": 62.04}, {"pitch": 77, "velocity": 49, "note_on_time": 62.264, "note_off_time": 62.421}, {"pitch": 79, "velocity": 41, "note_on_time": 62.639, "note_off_time": 62.871}, {"pitch": 74, "velocity": 38, "note_on_time": 63.33, "note_off_time": 63.507}, {"pitch": 72, "velocity": 39, "note_on_time": 63.782, "note_off_time": 63.944}, {"pitch": 76, "velocity": 50, "note_on_time": 64.704, "note_off_time": 64.872}, {"pitch": 77, "velocity": 51, "note_on_time": 65.045, "note_off_time": 65.22}, {"pitch": 79, "velocity": 54, "note_on_time": 65.384, "note_off_time": 65.618}, {"pitch": 74, "velocity": 65, "note_on_time": 66.401, "note_off_time": 66.548}, {"pitch": 72, "velocity": 38, "note_on_time": 66.782, "note_off_time": 66.911}, {"pitch": 76, "velocity": 54, "note_on_time": 67.416, "note_off_time": 67.566}, {"pitch": 77, "velocity": 47, "note_on_time": 67.758, "note_off_time": 67.929}, {"pitch": 79, "velocity": 46, "note_on_time": 68.122, "note_off_time": 68.359}, {"pitch": 74, "velocity": 54, "note_on_time": 68.943, "note_off_time": 69.095}, {"pitch": 72, "velocity": 38, "note_on_time": 69.366, "note_off_time": 69.508}, {"pitch": 76, "velocity": 51, "note_on_time": 69.999, "note_off_time": 70.15}, {"pitch": 77, "velocity": 52, "note_on_time": 70.359, "note_off_time": 70.523}, {"pitch": 79, "velocity": 45, "note_on_time": 70.711, "note_off_time": 70.92}, {"pitch": 74, "velocity": 44, "note_on_time": 71.513, "note_off_time": 71.662}, {"pitch": 72, "velocity": 39, "note_on_time": 71.911, "note_off_time": 72.089}, {"pitch": 76, "velocity": 61, "note_on_time": 72.45, "note_off_time": 72.586}, {"pitch": 77, "velocity": 28, "note_on_time": 72.827, "note_off_time": 73.034}, {"pitch": 79, "velocity": 48, "note_on_time": 73.259, "note_off_time": 73.503}, {"pitch": 74, "velocity": 55, "note_on_time": 74.081, "note_off_time": 74.223}, {"pitch": 72, "velocity": 46, "note_on_time": 74.465, "note_off_time": 74.613}, {"pitch": 76, "velocity": 53, "note_on_time": 75.395, "note_off_time": 75.563}, {"pitch": 77, "velocity": 54, "note_on_time": 75.736, "note_off_time": 75.899}, {"pitch": 79, "velocity": 43, "note_on_time": 76.088, "note_off_time": 76.325}, {"pitch": 74, "velocity": 46, "note_on_time": 76.709, "note_off_time": 76.853}, {"pitch": 72, "velocity": 44, "note_on_time": 77.074, "note_off_time": 77.213}, {"pitch": 76, "velocity": 47, "note_on_time": 78.45, "note_off_time": 78.616}, {"pitch": 74, "velocity": 51, "note_on_time": 78.811, "note_off_time": 78.964}, {"pitch": 72, "velocity": 30, "note_on_time": 79.184, "note_off_time": 79.331}, {"pitch": 77, "velocity": 43, "note_on_time": 79.795, "note_off_time": 79.953}, {"pitch": 79, "velocity": 45, "note_on_time": 80.125, "note_off_time": 80.347}, {"pitch": 76, "velocity": 49, "note_on_time": 81.006, "note_off_time": 81.195}, {"pitch": 74, "velocity": 54, "note_on_time": 81.387, "note_off_time": 81.54}, {"pitch": 72, "velocity": 32, "note_on_time": 81.787, "note_off_time": 81.95}, {"pitch": 76, "velocity": 19, "note_on_time": 82.478, "note_off_time": 82.555}, {"pitch": 77, "velocity": 66, "note_on_time": 83.174, "note_off_time": 83.323}, {"pitch": 79, "velocity": 33, "note_on_time": 83.48, "note_off_time": 83.699}, {"pitch": 76, "velocity": 51, "note_on_time": 84.377, "note_off_time": 84.53}, {"pitch": 74, "velocity": 64, "note_on_time": 84.742, "note_off_time": 84.88}, {"pitch": 72, "velocity": 42, "note_on_time": 85.084, "note_off_time": 85.256}, {"pitch": 77, "velocity": 52, "note_on_time": 85.558, "note_off_time": 85.733}, {"pitch": 79, "velocity": 35, "note_on_time": 85.908, "note_off_time": 86.116}, {"pitch": 76, "velocity": 46, "note_on_time": 86.51, "note_off_time": 86.666}, {"pitch": 74, "velocity": 52, "note_on_time": 86.896, "note_off_time": 87.03}, {"pitch": 72, "velocity": 42, "note_on_time": 87.26, "note_off_time": 87.46}, {"pitch": 77, "velocity": 59, "note_on_time": 87.875, "note_off_time": 88.044}, {"pitch": 79, "velocity": 29, "note_on_time": 88.234, "note_off_time": 88.556}, {"pitch": 76, "velocity": 58, "note_on_time": 89.066, "note_off_time": 89.2}, {"pitch": 74, "velocity": 52, "note_on_time": 89.402, "note_off_time": 89.542}, {"pitch": 72, "velocity": 47, "note_on_time": 89.732, "note_off_time": 89.91}, {"pitch": 77, "velocity": 55, "note_on_time": 90.465, "note_off_time": 90.637}, {"pitch": 79, "velocity": 20, "note_on_time": 90.823, "note_off_time": 91.035}, {"pitch": 77, "velocity": 43, "note_on_time": 93.219, "note_off_time": 93.412}, {"pitch": 79, "velocity": 38, "note_on_time": 94.083, "note_off_time": 94.314}, {"pitch": 76, "velocity": 57, "note_on_time": 94.723, "note_off_time": 94.917}, {"pitch": 74, "velocity": 58, "note_on_time": 95.257, "note_off_time": 95.399}, {"pitch": 72, "velocity": 36, "note_on_time": 95.683, "note_off_time": 95.872}, {"pitch": 76, "velocity": 31, "note_on_time": 96.533, "note_off_time": 96.7}, {"pitch": 77, "velocity": 69, "note_on_time": 99.102, "note_off_time": 99.259}, {"pitch": 79, "velocity": 58, "note_on_time": 99.433, "note_off_time": 99.64}, {"pitch": 76, "velocity": 52, "note_on_time": 100.209, "note_off_time": 100.375}, {"pitch": 74, "velocity": 64, "note_on_time": 100.578, "note_off_time": 100.731}, {"pitch": 72, "velocity": 44, "note_on_time": 100.941, "note_off_time": 101.129}, {"pitch": 77, "velocity": 51, "note_on_time": 101.545, "note_off_time": 101.72}, {"pitch": 79, "velocity": 53, "note_on_time": 101.922, "note_off_time": 102.154}, {"pitch": 76, "velocity": 46, "note_on_time": 102.559, "note_off_time": 102.712}, {"pitch": 74, "velocity": 57, "note_on_time": 102.919, "note_off_time": 103.084}, {"pitch": 72, "velocity": 46, "note_on_time": 103.258, "note_off_time": 103.442}, {"pitch": 77, "velocity": 48, "note_on_time": 104.004, "note_off_time": 104.171}, {"pitch": 79, "velocity": 43, "note_on_time": 104.348, "note_off_time": 104.591}, {"pitch": 76, "velocity": 53, "note_on_time": 104.845, "note_off_time": 105.034}, {"pitch": 74, "velocity": 55, "note_on_time": 105.385, "note_off_time": 105.521}, {"pitch": 72, "velocity": 45, "note_on_time": 105.774, "note_off_time": 105.935}, {"pitch": 77, "velocity": 52, "note_on_time": 107.072, "note_off_time": 107.256}, {"pitch": 79, "velocity": 53, "note_on_time": 107.445, "note_off_time": 107.651}, {"pitch": 76, "velocity": 1, "note_on_time": 108.069, "note_off_time": 108.278}, {"pitch": 74, "velocity": 74, "note_on_time": 108.59, "note_off_time": 108.747}, {"pitch": 72, "velocity": 45, "note_on_time": 108.972, "note_off_time": 109.147}, {"pitch": 74, "velocity": 53, "note_on_time": 110.59, "note_off_time": 110.748}, {"pitch": 72, "velocity": 37, "note_on_time": 111.22, "note_off_time": 111.398}, {"pitch": 76, "velocity": 54, "note_on_time": 111.685, "note_off_time": 111.861}, {"pitch": 77, "velocity": 62, "note_on_time": 112.159, "note_off_time": 112.321}, {"pitch": 79, "velocity": 33, "note_on_time": 112.583, "note_off_time": 112.821}, {"pitch": 76, "velocity": 62, "note_on_time": 114.551, "note_off_time": 114.723}, {"pitch": 74, "velocity": 61, "note_on_time": 114.944, "note_off_time": 115.106}, {"pitch": 74, "velocity": 73, "note_on_time": 117.154, "note_off_time": 117.319}, {"pitch": 72, "velocity": 45, "note_on_time": 117.499, "note_off_time": 117.66}, {"pitch": 76, "velocity": 57, "note_on_time": 117.895, "note_off_time": 118.075}, {"pitch": 77, "velocity": 39, "note_on_time": 118.362, "note_off_time": 118.538}, {"pitch": 79, "velocity": 48, "note_on_time": 118.715, "note_off_time": 118.953}, {"pitch": 74, "velocity": 56, "note_on_time": 119.451, "note_off_time": 119.619}, {"pitch": 72, "velocity": 43, "note_on_time": 119.787, "note_off_time": 119.941}, {"pitch": 76, "velocity": 10, "note_on_time": 120.357, "note_off_time": 120.531}, {"pitch": 77, "velocity": 57, "note_on_time": 120.824, "note_off_time": 121.011}, {"pitch": 79, "velocity": 37, "note_on_time": 121.21, "note_off_time": 121.454}, {"pitch": 74, "velocity": 56, "note_on_time": 122.002, "note_off_time": 122.163}, {"pitch": 72, "velocity": 48, "note_on_time": 122.362, "note_off_time": 122.523}, {"pitch": 76, "velocity": 61, "note_on_time": 122.81, "note_off_time": 122.964}, {"pitch": 77, "velocity": 55, "note_on_time": 123.377, "note_off_time": 123.537}, {"pitch": 79, "velocity": 43, "note_on_time": 123.73, "note_off_time": 123.947}, {"pitch": 74, "velocity": 60, "note_on_time": 124.497, "note_off_time": 124.645}, {"pitch": 72, "velocity": 46, "note_on_time": 124.838, "note_off_time": 124.971}, {"pitch": 76, "velocity": 52, "note_on_time": 125.32, "note_off_time": 125.485}, {"pitch": 77, "velocity": 49, "note_on_time": 126.163, "note_off_time": 126.353}, {"pitch": 79, "velocity": 49, "note_on_time": 126.536, "note_off_time": 126.765}, {"pitch": 74, "velocity": 62, "note_on_time": 127.251, "note_off_time": 127.393}, {"pitch": 72, "velocity": 37, "note_on_time": 127.602, "note_off_time": 127.751}, {"pitch": 76, "velocity": 38, "note_on_time": 128.279, "note_off_time": 128.436}, {"pitch": 77, "velocity": 51, "note_on_time": 128.977, "note_off_time": 129.124}, {"pitch": 79, "velocity": 38, "note_on_time": 129.326, "note_off_time": 129.545}, {"pitch": 74, "velocity": 50, "note_on_time": 130.679, "note_off_time": 130.868}, {"pitch": 72, "velocity": 38, "note_on_time": 131.107, "note_off_time": 131.308}, {"pitch": 76, "velocity": 33, "note_on_time": 131.729, "note_off_time": 131.928}, {"pitch": 77, "velocity": 56, "note_on_time": 132.128, "note_off_time": 132.287}, {"pitch": 79, "velocity": 40, "note_on_time": 132.456, "note_off_time": 132.705}, {"pitch": 74, "velocity": 62, "note_on_time": 133.199, "note_off_time": 133.356}, {"pitch": 72, "velocity": 43, "note_on_time": 133.543, "note_off_time": 133.698}, {"pitch": 76, "velocity": 56, "note_on_time": 133.996, "note_off_time": 134.136}, {"pitch": 77, "velocity": 33, "note_on_time": 134.389, "note_off_time": 134.559}, {"pitch": 79, "velocity": 47, "note_on_time": 134.748, "note_off_time": 135.001}, {"pitch": 74, "velocity": 54, "note_on_time": 135.746, "note_off_time": 135.892}, {"pitch": 72, "velocity": 23, "note_on_time": 136.102, "note_off_time": 136.292}, {"pitch": 76, "velocity": 49, "note_on_time": 136.582, "note_off_time": 136.76}, {"pitch": 77, "velocity": 38, "note_on_time": 136.978, "note_off_time": 137.121}, {"pitch": 72, "velocity": 17, "note_on_time": 142.645, "note_off_time": 142.849}, {"pitch": 74, "velocity": 65, "note_on_time": 143.06, "note_off_time": 143.237}, {"pitch": 76, "velocity": 58, "note_on_time": 143.43, "note_off_time": 143.585}, {"pitch": 77, "velocity": 51, "note_on_time": 144.069, "note_off_time": 144.238}, {"pitch": 79, "velocity": 59, "note_on_time": 144.423, "note_off_time": 144.651}, {"pitch": 72, "velocity": 36, "note_on_time": 145.267, "note_off_time": 145.434}, {"pitch": 74, "velocity": 62, "note_on_time": 145.693, "note_off_time": 145.85}, {"pitch": 76, "velocity": 57, "note_on_time": 146.04, "note_off_time": 146.194}, {"pitch": 77, "velocity": 42, "note_on_time": 146.412, "note_off_time": 146.598}, {"pitch": 79, "velocity": 60, "note_on_time": 146.779, "note_off_time": 147.001}, {"pitch": 72, "velocity": 39, "note_on_time": 147.277, "note_off_time": 147.507}, {"pitch": 74, "velocity": 38, "note_on_time": 147.746, "note_off_time": 147.915}, {"pitch": 76, "velocity": 40, "note_on_time": 148.155, "note_off_time": 148.34}, {"pitch": 77, "velocity": 56, "note_on_time": 148.708, "note_off_time": 148.854}, {"pitch": 79, "velocity": 42, "note_on_time": 149.051, "note_off_time": 149.249}, {"pitch": 72, "velocity": 33, "note_on_time": 149.626, "note_off_time": 149.787}, {"pitch": 74, "velocity": 48, "note_on_time": 150.14, "note_off_time": 150.317}, {"pitch": 76, "velocity": 48, "note_on_time": 150.543, "note_off_time": 150.687}, {"pitch": 77, "velocity": 49, "note_on_time": 150.986, "note_off_time": 151.175}, {"pitch": 79, "velocity": 45, "note_on_time": 151.35, "note_off_time": 151.552}, {"pitch": 72, "velocity": 36, "note_on_time": 151.803, "note_off_time": 151.955}, {"pitch": 74, "velocity": 58, "note_on_time": 152.247, "note_off_time": 152.391}, {"pitch": 76, "velocity": 55, "note_on_time": 152.59, "note_off_time": 152.723}, {"pitch": 77, "velocity": 50, "note_on_time": 153.067, "note_off_time": 153.23}, {"pitch": 79, "velocity": 40, "note_on_time": 153.484, "note_off_time": 153.735}, {"pitch": 79, "velocity": 47, "note_on_time": 154.595, "note_off_time": 154.865}, {"pitch": 77, "velocity": 48, "note_on_time": 155.221, "note_off_time": 155.402}, {"pitch": 76, "velocity": 60, "note_on_time": 155.618, "note_off_time": 155.776}, {"pitch": 74, "velocity": 53, "note_on_time": 155.987, "note_off_time": 156.122}, {"pitch": 72, "velocity": 46, "note_on_time": 156.382, "note_off_time": 156.528}, {"pitch": 79, "velocity": 48, "note_on_time": 156.757, "note_off_time": 156.996}, {"pitch": 77, "velocity": 50, "note_on_time": 157.532, "note_off_time": 157.701}, {"pitch": 76, "velocity": 50, "note_on_time": 157.93, "note_off_time": 158.123}, {"pitch": 74, "velocity": 62, "note_on_time": 158.316, "note_off_time": 158.477}, {"pitch": 72, "velocity": 35, "note_on_time": 158.731, "note_off_time": 158.889}, {"pitch": 79, "velocity": 57, "note_on_time": 159.123, "note_off_time": 159.359}, {"pitch": 77, "velocity": 56, "note_on_time": 159.686, "note_off_time": 159.833}, {"pitch": 76, "velocity": 56, "note_on_time": 160.093, "note_off_time": 160.247}, {"pitch": 74, "velocity": 28, "note_on_time": 160.537, "note_off_time": 160.731}, {"pitch": 72, "velocity": 54, "note_on_time": 161.308, "note_off_time": 161.522}, {"pitch": 79, "velocity": 46, "note_on_time": 161.838, "note_off_time": 162.052}, {"pitch": 77, "velocity": 57, "note_on_time": 162.45, "note_off_time": 162.584}, {"pitch": 76, "velocity": 50, "note_on_time": 162.834, "note_off_time": 162.959}, {"pitch": 74, "velocity": 55, "note_on_time": 163.197, "note_off_time": 163.323}, {"pitch": 72, "velocity": 38, "note_on_time": 163.64, "note_off_time": 163.8}, {"pitch": 74, "velocity": 64, "note_on_time": 165.14, "note_off_time": 165.272}, {"pitch": 76, "velocity": 46, "note_on_time": 165.505, "note_off_time": 165.661}, {"pitch": 77, "velocity": 39, "note_on_time": 165.863, "note_off_time": 166.046}, {"pitch": 79, "velocity": 51, "note_on_time": 166.209, "note_off_time": 166.423}, {"pitch": 72, "velocity": 43, "note_on_time": 166.625, "note_off_time": 166.804}, {"pitch": 74, "velocity": 64, "note_on_time": 167.228, "note_off_time": 167.352}, {"pitch": 76, "velocity": 44, "note_on_time": 167.595, "note_off_time": 167.749}, {"pitch": 77, "velocity": 49, "note_on_time": 167.974, "note_off_time": 168.162}, {"pitch": 79, "velocity": 41, "note_on_time": 168.355, "note_off_time": 168.567}, {"pitch": 72, "velocity": 53, "note_on_time": 168.776, "note_off_time": 168.987}, {"pitch": 74, "velocity": 56, "note_on_time": 169.379, "note_off_time": 169.51}, {"pitch": 76, "velocity": 48, "note_on_time": 169.729, "note_off_time": 169.89}, {"pitch": 77, "velocity": 48, "note_on_time": 170.078, "note_off_time": 170.257}, {"pitch": 79, "velocity": 46, "note_on_time": 170.434, "note_off_time": 170.643}, {"pitch": 72, "velocity": 40, "note_on_time": 170.838, "note_off_time": 171.032}, {"pitch": 74, "velocity": 50, "note_on_time": 171.397, "note_off_time": 171.533}, {"pitch": 76, "velocity": 46, "note_on_time": 171.74, "note_off_time": 171.849}, {"pitch": 77, "velocity": 36, "note_on_time": 172.098, "note_off_time": 172.271}, {"pitch": 79, "velocity": 56, "note_on_time": 172.452, "note_off_time": 172.642}, {"pitch": 72, "velocity": 49, "note_on_time": 172.898, "note_off_time": 173.053}, {"pitch": 74, "velocity": 53, "note_on_time": 173.382, "note_off_time": 173.496}, {"pitch": 76, "velocity": 50, "note_on_time": 173.677, "note_off_time": 173.83}, {"pitch": 77, "velocity": 44, "note_on_time": 174.001, "note_off_time": 174.164}, {"pitch": 79, "velocity": 58, "note_on_time": 174.326, "note_off_time": 174.508}, {"pitch": 72, "velocity": 40, "note_on_time": 174.708, "note_off_time": 174.864}, {"pitch": 77, "velocity": 44, "note_on_time": 175.877, "note_off_time": 176.042}, {"pitch": 76, "velocity": 48, "note_on_time": 176.228, "note_off_time": 176.403}, {"pitch": 74, "velocity": 47, "note_on_time": 176.575, "note_off_time": 176.757}, {"pitch": 72, "velocity": 24, "note_on_time": 177.014, "note_off_time": 177.168}, {"pitch": 79, "velocity": 50, "note_on_time": 177.435, "note_off_time": 177.669}, {"pitch": 77, "velocity": 49, "note_on_time": 178.176, "note_off_time": 178.344}, {"pitch": 76, "velocity": 44, "note_on_time": 178.562, "note_off_time": 178.727}, {"pitch": 74, "velocity": 56, "note_on_time": 179.011, "note_off_time": 179.183}, {"pitch": 72, "velocity": 37, "note_on_time": 179.427, "note_off_time": 179.565}, {"pitch": 79, "velocity": 48, "note_on_time": 179.897, "note_off_time": 180.082}, {"pitch": 77, "velocity": 52, "note_on_time": 180.446, "note_off_time": 180.598}, {"pitch": 76, "velocity": 55, "note_on_time": 180.783, "note_off_time": 180.948}, {"pitch": 74, "velocity": 44, "note_on_time": 181.153, "note_off_time": 181.316}, {"pitch": 72, "velocity": 47, "note_on_time": 181.566, "note_off_time": 181.708}, {"pitch": 79, "velocity": 59, "note_on_time": 181.923, "note_off_time": 182.096}, {"pitch": 77, "velocity": 42, "note_on_time": 182.651, "note_off_time": 182.821}, {"pitch": 76, "velocity": 49, "note_on_time": 183.05, "note_off_time": 183.193}, {"pitch": 74, "velocity": 45, "note_on_time": 183.591, "note_off_time": 183.751}, {"pitch": 72, "velocity": 49, "note_on_time": 183.989, "note_off_time": 184.126}, {"pitch": 79, "velocity": 60, "note_on_time": 184.382, "note_off_time": 184.557}, {"pitch": 77, "velocity": 60, "note_on_time": 184.935, "note_off_time": 185.095}, {"pitch": 76, "velocity": 48, "note_on_time": 185.292, "note_off_time": 185.454}, {"pitch": 74, "velocity": 49, "note_on_time": 185.637, "note_off_time": 185.792}, {"pitch": 72, "velocity": 50, "note_on_time": 185.988, "note_off_time": 186.14}, {"pitch": 79, "velocity": 52, "note_on_time": 186.437, "note_off_time": 186.629}, {"pitch": 76, "velocity": 36, "note_on_time": 187.774, "note_off_time": 187.98}, {"pitch": 77, "velocity": 17, "note_on_time": 188.233, "note_off_time": 188.428}, {"pitch": 79, "velocity": 41, "note_on_time": 188.648, "note_off_time": 188.907}, {"pitch": 74, "velocity": 65, "note_on_time": 189.972, "note_off_time": 190.122}, {"pitch": 72, "velocity": 43, "note_on_time": 190.346, "note_off_time": 190.487}, {"pitch": 76, "velocity": 61, "note_on_time": 190.843, "note_off_time": 190.967}, {"pitch": 77, "velocity": 54, "note_on_time": 191.163, "note_off_time": 191.323}, {"pitch": 79, "velocity": 49, "note_on_time": 191.487, "note_off_time": 191.732}, {"pitch": 74, "velocity": 56, "note_on_time": 192.201, "note_off_time": 192.334}, {"pitch": 72, "velocity": 42, "note_on_time": 192.538, "note_off_time": 192.678}, {"pitch": 76, "velocity": 64, "note_on_time": 193.05, "note_off_time": 193.212}, {"pitch": 77, "velocity": 47, "note_on_time": 193.429, "note_off_time": 193.59}, {"pitch": 79, "velocity": 45, "note_on_time": 193.764, "note_off_time": 193.993}, {"pitch": 74, "velocity": 50, "note_on_time": 194.359, "note_off_time": 194.517}]</notes><guidance name="Guidance Mode">None</guidance><error name="Error value">99</error></trial><trial trial_no="3" timestamp="2023_06_14-12_27_38"><notes name="Played Notes">[{"pitch": 72, "velocity": 55, "note_on_time": 0.996, "note_off_time": 1.229}, {"pitch": 74, "velocity": 56, "note_on_time": 1.436, "note_off_time": 1.584}, {"pitch": 76, "velocity": 55, "note_on_time": 1.765, "note_off_time": 1.944}, {"pitch": 77, "velocity": 45, "note_on_time": 2.135, "note_off_time": 2.3}, {"pitch": 79, "velocity": 45, "note_on_time": 2.462, "note_off_time": 2.707}, {"pitch": 72, "velocity": 44, "note_on_time": 3.052, "note_off_time": 3.231}, {"pitch": 74, "velocity": 28, "note_on_time": 3.468, "note_off_time": 3.651}, {"pitch": 76, "velocity": 56, "note_on_time": 3.83, "note_off_time": 4.029}, {"pitch": 77, "velocity": 53, "note_on_time": 4.213, "note_off_time": 4.389}, {"pitch": 79, "velocity": 40, "note_on_time": 4.533, "note_off_time": 4.786}, {"pitch": 72, "velocity": 45, "note_on_time": 5.003, "note_off_time": 5.192}, {"pitch": 74, "velocity": 49, "note_on_time": 5.495, "note_off_time": 5.66}, {"pitch": 76, "velocity": 53, "note_on_time": 5.846, "note_off_time": 6.011}, {"pitch": 77, "velocity": 44, "note_on_time": 6.247, "note_off_time": 6.423}, {"pitch": 79, "velocity": 40, "note_on_time": 6.584, "note_off_time": 6.806}, {"pitch": 72, "velocity": 37, "note_on_time": 7.071, "note_off_time": 7.28}, {"pitch": 74, "velocity": 50, "note_on_time": 7.59, "note_off_time": 7.728}, {"pitch": 76, "velocity": 51, "note_on_time": 7.913, "note_off_time": 8.074}, {"pitch": 77, "velocity": 57, "note_on_time": 8.277, "note_off_time": 8.44}, {"pitch": 79, "velocity": 45, "note_on_time": 8.613, "note_off_time": 8.816}, {"pitch": 72, "velocity": 47, "note_on_time": 9.036, "note_off_time": 9.187}, {"pitch": 74, "velocity": 64, "note_on_time": 9.462, "note_off_time": 9.591}, {"pitch": 76, "velocity": 53, "note_on_time": 9.78, "note_off_time": 9.916}, {"pitch": 77, "velocity": 46, "note_on_time": 10.16, "note_off_time": 10.346}, {"pitch": 79, "velocity": 33, "note_on_time": 10.554, "note_off_time": 10.766}, {"pitch": 79, "velocity": 44, "note_on_time": 11.386, "note_off_time": 11.552}, {"pitch": 77, "velocity": 50, "note_on_time": 11.781, "note_off_time": 11.945}, {"pitch": 76, "velocity": 49, "note_on_time": 12.12, "note_off_time": 12.255}, {"pitch": 74, "velocity": 60, "note_on_time": 12.492, "note_off_time": 12.639}, {"pitch": 72, "velocity": 43, "note_on_time": 12.796, "note_off_time": 12.957}, {"pitch": 79, "velocity": 51, "note_on_time": 13.167, "note_off_time": 13.38}, {"pitch": 77, "velocity": 51, "note_on_time": 13.537, "note_off_time": 13.681}, {"pitch": 76, "velocity": 53, "note_on_time": 13.866, "note_off_time": 14.026}, {"pitch": 74, "velocity": 45, "note_on_time": 14.216, "note_off_time": 14.366}, {"pitch": 72, "velocity": 45, "note_on_time": 14.515, "note_off_time": 14.679}, {"pitch": 79, "velocity": 46, "note_on_time": 14.872, "note_off_time": 15.086}, {"pitch": 77, "velocity": 44, "note_on_time": 15.251, "note_off_time": 15.449}, {"pitch": 76, "velocity": 45, "note_on_time": 15.741, "note_off_time": 15.918}, {"pitch": 74, "velocity": 51, "note_on_time": 16.143, "note_off_time": 16.284}, {"pitch": 72, "velocity": 52, "note_on_time": 16.485, "note_off_time": 16.626}, {"pitch": 79, "velocity": 52, "note_on_time": 16.823, "note_off_time": 16.996}, {"pitch": 77, "velocity": 50, "note_on_time": 17.214, "note_off_time": 17.355}, {"pitch": 76, "velocity": 44, "note_on_time": 17.561, "note_off_time": 17.719}, {"pitch": 74, "velocity": 53, "note_on_time": 17.989, "note_off_time": 18.134}, {"pitch": 72, "velocity": 52, "note_on_time": 18.335, "note_off_time": 18.502}, {"pitch": 79, "velocity": 51, "note_on_time": 19.269, "note_off_time": 19.448}, {"pitch": 77, "velocity": 52, "note_on_time": 19.609, "note_off_time": 19.682}, {"pitch": 76, "velocity": 55, "note_on_time": 19.944, "note_off_time": 20.078}, {"pitch": 74, "velocity": 56, "note_on_time": 20.306, "note_off_time": 20.457}, {"pitch": 72, "velocity": 56, "note_on_time": 20.66, "note_off_time": 20.821}, {"pitch": 74, "velocity": 65, "note_on_time": 21.686, "note_off_time": 21.812}, {"pitch": 76, "velocity": 54, "note_on_time": 21.979, "note_off_time": 22.121}, {"pitch": 77, "velocity": 52, "note_on_time": 22.305, "note_off_time": 22.459}, {"pitch": 79, "velocity": 46, "note_on_time": 22.61, "note_off_time": 22.811}, {"pitch": 72, "velocity": 50, "note_on_time": 22.975, "note_off_time": 23.15}, {"pitch": 74, "velocity": 60, "note_on_time": 23.588, "note_off_time": 23.718}, {"pitch": 76, "velocity": 53, "note_on_time": 23.901, "note_off_time": 24.044}, {"pitch": 77, "velocity": 60, "note_on_time": 24.257, "note_off_time": 24.421}, {"pitch": 79, "velocity": 55, "note_on_time": 24.589, "note_off_time": 24.776}, {"pitch": 72, "velocity": 47, "note_on_time": 24.964, "note_off_time": 25.137}, {"pitch": 74, "velocity": 54, "note_on_time": 25.701, "note_off_time": 25.846}, {"pitch": 76, "velocity": 49, "note_on_time": 26.011, "note_off_time": 26.17}, {"pitch": 77, "velocity": 53, "note_on_time": 26.373, "note_off_time": 26.561}, {"pitch": 79, "velocity": 51, "note_on_time": 26.722, "note_off_time": 26.921}, {"pitch": 72, "velocity": 52, "note_on_time": 27.154, "note_off_time": 27.326}, {"pitch": 74, "velocity": 50, "note_on_time": 27.834, "note_off_time": 27.975}, {"pitch": 76, "velocity": 54, "note_on_time": 28.186, "note_off_time": 28.332}, {"pitch": 77, "velocity": 50, "note_on_time": 28.51, "note_off_time": 28.663}, {"pitch": 79, "velocity": 46, "note_on_time": 28.843, "note_off_time": 29.045}, {"pitch": 72, "velocity": 52, "note_on_time": 29.25, "note_off_time": 29.402}, {"pitch": 77, "velocity": 66, "note_on_time": 30.418, "note_off_time": 30.567}, {"pitch": 76, "velocity": 55, "note_on_time": 30.73, "note_off_time": 30.894}, {"pitch": 74, "velocity": 49, "note_on_time": 31.076, "note_off_time": 31.236}, {"pitch": 72, "velocity": 44, "note_on_time": 31.392, "note_off_time": 31.553}, {"pitch": 79, "velocity": 47, "note_on_time": 31.739, "note_off_time": 31.967}, {"pitch": 77, "velocity": 49, "note_on_time": 32.275, "note_off_time": 32.431}, {"pitch": 76, "velocity": 52, "note_on_time": 32.612, "note_off_time": 32.788}, {"pitch": 74, "velocity": 23, "note_on_time": 32.971, "note_off_time": 33.145}, {"pitch": 72, "velocity": 42, "note_on_time": 33.594, "note_off_time": 33.768}, {"pitch": 79, "velocity": 42, "note_on_time": 33.99, "note_off_time": 34.229}, {"pitch": 77, "velocity": 48, "note_on_time": 34.559, "note_off_time": 34.719}, {"pitch": 76, "velocity": 44, "note_on_time": 34.913, "note_off_time": 35.082}, {"pitch": 74, "velocity": 54, "note_on_time": 35.234, "note_off_time": 35.388}, {"pitch": 72, "velocity": 38, "note_on_time": 35.568, "note_off_time": 35.731}, {"pitch": 79, "velocity": 44, "note_on_time": 36.092, "note_off_time": 36.353}, {"pitch": 77, "velocity": 61, "note_on_time": 36.584, "note_off_time": 36.725}, {"pitch": 76, "velocity": 49, "note_on_time": 36.849, "note_off_time": 37.026}, {"pitch": 74, "velocity": 44, "note_on_time": 37.144, "note_off_time": 37.321}, {"pitch": 72, "velocity": 43, "note_on_time": 37.449, "note_off_time": 37.603}, {"pitch": 79, "velocity": 56, "note_on_time": 37.79, "note_off_time": 38.038}, {"pitch": 77, "velocity": 44, "note_on_time": 38.389, "note_off_time": 38.552}, {"pitch": 76, "velocity": 45, "note_on_time": 39.035, "note_off_time": 39.196}, {"pitch": 74, "velocity": 48, "note_on_time": 39.331, "note_off_time": 39.467}, {"pitch": 72, "velocity": 45, "note_on_time": 39.646, "note_off_time": 39.818}, {"pitch": 79, "velocity": 59, "note_on_time": 40.051, "note_off_time": 40.213}, {"pitch": 76, "velocity": 61, "note_on_time": 41.489, "note_off_time": 41.656}, {"pitch": 77, "velocity": 51, "note_on_time": 41.909, "note_off_time": 42.085}, {"pitch": 79, "velocity": 41, "note_on_time": 42.246, "note_off_time": 42.45}, {"pitch": 74, "velocity": 65, "note_on_time": 42.942, "note_off_time": 43.105}, {"pitch": 72, "velocity": 34, "note_on_time": 43.295, "note_off_time": 43.434}, {"pitch": 76, "velocity": 56, "note_on_time": 44.504, "note_off_time": 44.646}, {"pitch": 77, "velocity": 51, "note_on_time": 44.775, "note_off_time": 44.949}, {"pitch": 79, "velocity": 47, "note_on_time": 45.089, "note_off_time": 45.281}, {"pitch": 74, "velocity": 53, "note_on_time": 45.652, "note_off_time": 45.79}, {"pitch": 72, "velocity": 35, "note_on_time": 45.996, "note_off_time": 46.178}, {"pitch": 76, "velocity": 37, "note_on_time": 46.647, "note_off_time": 46.788}, {"pitch": 77, "velocity": 54, "note_on_time": 46.955, "note_off_time": 47.115}, {"pitch": 79, "velocity": 33, "note_on_time": 47.217, "note_off_time": 47.427}, {"pitch": 74, "velocity": 65, "note_on_time": 47.698, "note_off_time": 47.847}, {"pitch": 72, "velocity": 36, "note_on_time": 47.976, "note_off_time": 48.138}, {"pitch": 76, "velocity": 36, "note_on_time": 48.855, "note_off_time": 49.006}, {"pitch": 77, "velocity": 39, "note_on_time": 49.143, "note_off_time": 49.313}, {"pitch": 79, "velocity": 44, "note_on_time": 49.473, "note_off_time": 49.693}, {"pitch": 74, "velocity": 60, "note_on_time": 49.962, "note_off_time": 50.094}, {"pitch": 72, "velocity": 45, "note_on_time": 50.339, "note_off_time": 50.523}, {"pitch": 76, "velocity": 55, "note_on_time": 50.821, "note_off_time": 50.952}, {"pitch": 77, "velocity": 44, "note_on_time": 51.1, "note_off_time": 51.321}, {"pitch": 79, "velocity": 16, "note_on_time": 51.537, "note_off_time": 51.829}, {"pitch": 74, "velocity": 57, "note_on_time": 52.438, "note_off_time": 52.595}, {"pitch": 72, "velocity": 36, "note_on_time": 52.79, "note_off_time": 52.918}, {"pitch": 76, "velocity": 60, "note_on_time": 53.726, "note_off_time": 53.881}, {"pitch": 74, "velocity": 49, "note_on_time": 54.034, "note_off_time": 54.197}, {"pitch": 72, "velocity": 29, "note_on_time": 54.349, "note_off_time": 54.548}, {"pitch": 77, "velocity": 45, "note_on_time": 54.998, "note_off_time": 55.148}, {"pitch": 79, "velocity": 39, "note_on_time": 55.296, "note_off_time": 55.489}, {"pitch": 76, "velocity": 52, "note_on_time": 55.812, "note_off_time": 55.962}, {"pitch": 74, "velocity": 46, "note_on_time": 56.129, "note_off_time": 56.297}, {"pitch": 72, "velocity": 41, "note_on_time": 56.43, "note_off_time": 56.608}, {"pitch": 77, "velocity": 43, "note_on_time": 56.865, "note_off_time": 57.025}, {"pitch": 79, "velocity": 53, "note_on_time": 57.204, "note_off_time": 57.407}, {"pitch": 76, "velocity": 42, "note_on_time": 57.766, "note_off_time": 57.94}, {"pitch": 74, "velocity": 45, "note_on_time": 58.086, "note_off_time": 58.248}, {"pitch": 72, "velocity": 40, "note_on_time": 58.392, "note_off_time": 58.563}, {"pitch": 77, "velocity": 54, "note_on_time": 58.719, "note_off_time": 58.9}, {"pitch": 79, "velocity": 41, "note_on_time": 59.065, "note_off_time": 59.262}, {"pitch": 76, "velocity": 47, "note_on_time": 59.605, "note_off_time": 59.768}, {"pitch": 74, "velocity": 47, "note_on_time": 59.908, "note_off_time": 60.087}, {"pitch": 72, "velocity": 46, "note_on_time": 60.223, "note_off_time": 60.387}, {"pitch": 77, "velocity": 48, "note_on_time": 60.581, "note_off_time": 60.768}, {"pitch": 79, "velocity": 34, "note_on_time": 60.933, "note_off_time": 61.133}, {"pitch": 77, "velocity": 52, "note_on_time": 61.921, "note_off_time": 62.089}, {"pitch": 79, "velocity": 58, "note_on_time": 62.253, "note_off_time": 62.48}, {"pitch": 76, "velocity": 49, "note_on_time": 62.998, "note_off_time": 63.162}, {"pitch": 74, "velocity": 56, "note_on_time": 63.341, "note_off_time": 63.51}, {"pitch": 72, "velocity": 45, "note_on_time": 63.716, "note_off_time": 63.929}, {"pitch": 77, "velocity": 45, "note_on_time": 64.261, "note_off_time": 64.422}, {"pitch": 79, "velocity": 36, "note_on_time": 64.584, "note_off_time": 64.814}, {"pitch": 76, "velocity": 49, "note_on_time": 65.045, "note_off_time": 65.189}, {"pitch": 74, "velocity": 52, "note_on_time": 65.379, "note_off_time": 65.578}, {"pitch": 72, "velocity": 41, "note_on_time": 65.722, "note_off_time": 65.894}, {"pitch": 77, "velocity": 49, "note_on_time": 66.058, "note_off_time": 66.248}, {"pitch": 79, "velocity": 49, "note_on_time": 66.419, "note_off_time": 66.62}, {"pitch": 76, "velocity": 55, "note_on_time": 66.844, "note_off_time": 67.022}, {"pitch": 74, "velocity": 44, "note_on_time": 67.142, "note_off_time": 67.277}, {"pitch": 76, "velocity": 47, "note_on_time": 67.292, "note_off_time": 67.37}, {"pitch": 72, "velocity": 44, "note_on_time": 68.08, "note_off_time": 68.229}, {"pitch": 77, "velocity": 56, "note_on_time": 68.832, "note_off_time": 68.973}, {"pitch": 79, "velocity": 44, "note_on_time": 69.138, "note_off_time": 69.339}, {"pitch": 76, "velocity": 48, "note_on_time": 69.584, "note_off_time": 69.745}, {"pitch": 74, "velocity": 59, "note_on_time": 69.916, "note_off_time": 70.078}, {"pitch": 72, "velocity": 36, "note_on_time": 70.334, "note_off_time": 70.518}, {"pitch": 76, "velocity": 40, "note_on_time": 71.788, "note_off_time": 72.007}, {"pitch": 74, "velocity": 44, "note_on_time": 72.26, "note_off_time": 72.47}, {"pitch": 74, "velocity": 57, "note_on_time": 73.832, "note_off_time": 73.992}, {"pitch": 72, "velocity": 37, "note_on_time": 74.174, "note_off_time": 74.311}, {"pitch": 77, "velocity": 31, "note_on_time": 74.701, "note_off_time": 74.943}, {"pitch": 77, "velocity": 32, "note_on_time": 75.335, "note_off_time": 75.408}, {"pitch": 79, "velocity": 19, "note_on_time": 75.265, "note_off_time": 75.428}, {"pitch": 77, "velocity": 60, "note_on_time": 75.765, "note_off_time": 75.908}, {"pitch": 79, "velocity": 52, "note_on_time": 76.023, "note_off_time": 76.192}, {"pitch": 76, "velocity": 51, "note_on_time": 76.839, "note_off_time": 77.016}, {"pitch": 74, "velocity": 55, "note_on_time": 77.149, "note_off_time": 77.294}, {"pitch": 77, "velocity": 34, "note_on_time": 77.55, "note_off_time": 77.707}, {"pitch": 74, "velocity": 30, "note_on_time": 79.298, "note_off_time": 79.472}, {"pitch": 72, "velocity": 39, "note_on_time": 79.729, "note_off_time": 79.885}, {"pitch": 76, "velocity": 27, "note_on_time": 80.243, "note_off_time": 80.427}, {"pitch": 77, "velocity": 46, "note_on_time": 80.616, "note_off_time": 80.796}, {"pitch": 79, "velocity": 48, "note_on_time": 80.961, "note_off_time": 81.197}, {"pitch": 74, "velocity": 42, "note_on_time": 81.631, "note_off_time": 81.777}, {"pitch": 72, "velocity": 37, "note_on_time": 81.946, "note_off_time": 82.087}, {"pitch": 76, "velocity": 60, "note_on_time": 82.342, "note_off_time": 82.484}, {"pitch": 77, "velocity": 54, "note_on_time": 82.648, "note_off_time": 82.797}, {"pitch": 79, "velocity": 27, "note_on_time": 82.959, "note_off_time": 83.174}, {"pitch": 74, "velocity": 53, "note_on_time": 83.78, "note_off_time": 83.936}, {"pitch": 72, "velocity": 37, "note_on_time": 84.078, "note_off_time": 84.21}, {"pitch": 76, "velocity": 55, "note_on_time": 84.409, "note_off_time": 84.552}, {"pitch": 77, "velocity": 44, "note_on_time": 84.737, "note_off_time": 84.954}, {"pitch": 79, "velocity": 60, "note_on_time": 85.144, "note_off_time": 85.329}, {"pitch": 74, "velocity": 1, "note_on_time": 85.822, "note_off_time": 85.987}, {"pitch": 72, "velocity": 39, "note_on_time": 86.256, "note_off_time": 86.443}, {"pitch": 76, "velocity": 46, "note_on_time": 86.823, "note_off_time": 86.961}, {"pitch": 77, "velocity": 45, "note_on_time": 87.138, "note_off_time": 87.305}, {"pitch": 79, "velocity": 46, "note_on_time": 87.47, "note_off_time": 87.666}, {"pitch": 74, "velocity": 47, "note_on_time": 88.231, "note_off_time": 88.374}, {"pitch": 72, "velocity": 30, "note_on_time": 88.554, "note_off_time": 88.704}, {"pitch": 76, "velocity": 59, "note_on_time": 89.05, "note_off_time": 89.221}, {"pitch": 77, "velocity": 46, "note_on_time": 89.457, "note_off_time": 89.604}, {"pitch": 79, "velocity": 57, "note_on_time": 89.845, "note_off_time": 90.018}, {"pitch": 72, "velocity": 38, "note_on_time": 90.818, "note_off_time": 91.002}, {"pitch": 74, "velocity": 58, "note_on_time": 91.173, "note_off_time": 91.29}, {"pitch": 76, "velocity": 52, "note_on_time": 91.505, "note_off_time": 91.667}, {"pitch": 77, "velocity": 52, "note_on_time": 91.85, "note_off_time": 91.989}, {"pitch": 79, "velocity": 36, "note_on_time": 92.174, "note_off_time": 92.389}, {"pitch": 72, "velocity": 41, "note_on_time": 92.651, "note_off_time": 92.817}, {"pitch": 74, "velocity": 33, "note_on_time": 93.084, "note_off_time": 93.257}, {"pitch": 76, "velocity": 47, "note_on_time": 93.505, "note_off_time": 93.672}, {"pitch": 77, "velocity": 57, "note_on_time": 93.952, "note_off_time": 94.081}, {"pitch": 79, "velocity": 42, "note_on_time": 94.267, "note_off_time": 94.442}, {"pitch": 72, "velocity": 45, "note_on_time": 94.77, "note_off_time": 94.95}, {"pitch": 74, "velocity": 56, "note_on_time": 95.136, "note_off_time": 95.244}, {"pitch": 76, "velocity": 49, "note_on_time": 95.451, "note_off_time": 95.586}, {"pitch": 77, "velocity": 41, "note_on_time": 95.867, "note_off_time": 96.049}, {"pitch": 79, "velocity": 65, "note_on_time": 96.267, "note_off_time": 96.421}, {"pitch": 72, "velocity": 37, "note_on_time": 96.725, "note_off_time": 96.88}, {"pitch": 74, "velocity": 54, "note_on_time": 97.224, "note_off_time": 97.359}, {"pitch": 76, "velocity": 56, "note_on_time": 97.647, "note_off_time": 97.79}, {"pitch": 77, "velocity": 59, "note_on_time": 98.008, "note_off_time": 98.142}, {"pitch": 79, "velocity": 40, "note_on_time": 98.354, "note_off_time": 98.515}, {"pitch": 72, "velocity": 40, "note_on_time": 98.777, "note_off_time": 98.926}, {"pitch": 74, "velocity": 56, "note_on_time": 99.198, "note_off_time": 99.301}, {"pitch": 76, "velocity": 45, "note_on_time": 99.53, "note_off_time": 99.66}, {"pitch": 77, "velocity": 46, "note_on_time": 99.904, "note_off_time": 100.036}, {"pitch": 79, "velocity": 45, "note_on_time": 100.29, "note_off_time": 100.498}, {"pitch": 72, "velocity": 37, "note_on_time": 100.771, "note_off_time": 100.937}, {"pitch": 74, "velocity": 61, "note_on_time": 101.214, "note_off_time": 101.336}, {"pitch": 76, "velocity": 43, "note_on_time": 101.536, "note_off_time": 101.652}, {"pitch": 77, "velocity": 55, "note_on_time": 102.195, "note_off_time": 102.328}, {"pitch": 79, "velocity": 38, "note_on_time": 102.541, "note_off_time": 102.706}, {"pitch": 79, "velocity": 39, "note_on_time": 103.622, "note_off_time": 103.833}, {"pitch": 76, "velocity": 49, "note_on_time": 104.035, "note_off_time": 104.172}, {"pitch": 77, "velocity": 67, "note_on_time": 104.798, "note_off_time": 104.918}, {"pitch": 76, "velocity": 58, "note_on_time": 105.176, "note_off_time": 105.312}, {"pitch": 74, "velocity": 51, "note_on_time": 105.446, "note_off_time": 105.612}, {"pitch": 72, "velocity": 47, "note_on_time": 105.747, "note_off_time": 105.891}, {"pitch": 79, "velocity": 58, "note_on_time": 106.137, "note_off_time": 106.322}, {"pitch": 77, "velocity": 52, "note_on_time": 106.722, "note_off_time": 106.856}, {"pitch": 76, "velocity": 53, "note_on_time": 107.05, "note_off_time": 107.238}, {"pitch": 74, "velocity": 49, "note_on_time": 107.39, "note_off_time": 107.538}, {"pitch": 72, "velocity": 37, "note_on_time": 107.727, "note_off_time": 107.869}, {"pitch": 79, "velocity": 59, "note_on_time": 108.114, "note_off_time": 108.301}, {"pitch": 77, "velocity": 40, "note_on_time": 108.816, "note_off_time": 109.007}, {"pitch": 76, "velocity": 48, "note_on_time": 109.3, "note_off_time": 109.466}, {"pitch": 74, "velocity": 62, "note_on_time": 110.042, "note_off_time": 110.204}, {"pitch": 72, "velocity": 32, "note_on_time": 110.396, "note_off_time": 110.522}, {"pitch": 79, "velocity": 58, "note_on_time": 110.785, "note_off_time": 111.003}, {"pitch": 77, "velocity": 60, "note_on_time": 111.278, "note_off_time": 111.404}, {"pitch": 76, "velocity": 52, "note_on_time": 111.637, "note_off_time": 111.781}, {"pitch": 74, "velocity": 57, "note_on_time": 112.064, "note_off_time": 112.191}, {"pitch": 72, "velocity": 41, "note_on_time": 112.421, "note_off_time": 112.556}, {"pitch": 79, "velocity": 48, "note_on_time": 112.77, "note_off_time": 112.919}, {"pitch": 77, "velocity": 48, "note_on_time": 113.272, "note_off_time": 113.413}, {"pitch": 76, "velocity": 46, "note_on_time": 113.665, "note_off_time": 113.825}, {"pitch": 74, "velocity": 45, "note_on_time": 114.065, "note_off_time": 114.187}, {"pitch": 72, "velocity": 44, "note_on_time": 114.404, "note_off_time": 114.545}, {"pitch": 79, "velocity": 43, "note_on_time": 114.791, "note_off_time": 115.008}, {"pitch": 77, "velocity": 48, "note_on_time": 115.198, "note_off_time": 115.3}, {"pitch": 76, "velocity": 51, "note_on_time": 115.529, "note_off_time": 115.669}, {"pitch": 74, "velocity": 52, "note_on_time": 115.937, "note_off_time": 116.039}, {"pitch": 72, "velocity": 44, "note_on_time": 116.321, "note_off_time": 116.472}, {"pitch": 74, "velocity": 33, "note_on_time": 117.383, "note_off_time": 117.561}, {"pitch": 76, "velocity": 49, "note_on_time": 117.828, "note_off_time": 117.975}, {"pitch": 77, "velocity": 37, "note_on_time": 118.225, "note_off_time": 118.373}, {"pitch": 79, "velocity": 46, "note_on_time": 118.591, "note_off_time": 118.856}, {"pitch": 72, "velocity": 30, "note_on_time": 119.005, "note_off_time": 119.117}, {"pitch": 74, "velocity": 64, "note_on_time": 119.461, "note_off_time": 119.6}, {"pitch": 76, "velocity": 53, "note_on_time": 119.805, "note_off_time": 119.924}, {"pitch": 77, "velocity": 48, "note_on_time": 120.175, "note_off_time": 120.32}, {"pitch": 79, "velocity": 48, "note_on_time": 120.55, "note_off_time": 120.69}, {"pitch": 72, "velocity": 36, "note_on_time": 121.309, "note_off_time": 121.442}, {"pitch": 74, "velocity": 54, "note_on_time": 121.729, "note_off_time": 121.844}, {"pitch": 76, "velocity": 49, "note_on_time": 122.041, "note_off_time": 122.176}, {"pitch": 77, "velocity": 50, "note_on_time": 122.365, "note_off_time": 122.486}, {"pitch": 79, "velocity": 52, "note_on_time": 122.705, "note_off_time": 122.882}, {"pitch": 72, "velocity": 46, "note_on_time": 123.1, "note_off_time": 123.278}, {"pitch": 74, "velocity": 38, "note_on_time": 123.602, "note_off_time": 123.758}, {"pitch": 76, "velocity": 55, "note_on_time": 123.968, "note_off_time": 124.1}, {"pitch": 77, "velocity": 43, "note_on_time": 124.351, "note_off_time": 124.517}, {"pitch": 79, "velocity": 52, "note_on_time": 124.712, "note_off_time": 124.879}, {"pitch": 72, "velocity": 43, "note_on_time": 125.105, "note_off_time": 125.257}, {"pitch": 74, "velocity": 62, "note_on_time": 125.679, "note_off_time": 125.796}, {"pitch": 76, "velocity": 53, "note_on_time": 125.962, "note_off_time": 126.117}, {"pitch": 77, "velocity": 43, "note_on_time": 126.315, "note_off_time": 126.469}, {"pitch": 79, "velocity": 49, "note_on_time": 126.65, "note_off_time": 126.81}, {"pitch": 72, "velocity": 45, "note_on_time": 127.047, "note_off_time": 127.205}, {"pitch": 77, "velocity": 56, "note_on_time": 127.733, "note_off_time": 127.865}, {"pitch": 76, "velocity": 49, "note_on_time": 128.06, "note_off_time": 128.219}, {"pitch": 74, "velocity": 47, "note_on_time": 128.364, "note_off_time": 128.527}, {"pitch": 72, "velocity": 46, "note_on_time": 128.709, "note_off_time": 128.868}, {"pitch": 79, "velocity": 54, "note_on_time": 129.053, "note_off_time": 129.248}, {"pitch": 77, "velocity": 51, "note_on_time": 129.599, "note_off_time": 129.77}, {"pitch": 76, "velocity": 52, "note_on_time": 129.942, "note_off_time": 130.104}, {"pitch": 74, "velocity": 52, "note_on_time": 130.263, "note_off_time": 130.427}, {"pitch": 72, "velocity": 46, "note_on_time": 130.629, "note_off_time": 130.767}, {"pitch": 79, "velocity": 55, "note_on_time": 130.959, "note_off_time": 131.117}, {"pitch": 77, "velocity": 22, "note_on_time": 131.619, "note_off_time": 131.794}, {"pitch": 76, "velocity": 61, "note_on_time": 132.016, "note_off_time": 132.179}, {"pitch": 74, "velocity": 46, "note_on_time": 132.293, "note_off_time": 132.447}, {"pitch": 72, "velocity": 35, "note_on_time": 132.659, "note_off_time": 132.809}, {"pitch": 79, "velocity": 61, "note_on_time": 132.972, "note_off_time": 133.147}, {"pitch": 77, "velocity": 49, "note_on_time": 133.408, "note_off_time": 133.554}, {"pitch": 76, "velocity": 42, "note_on_time": 133.724, "note_off_time": 133.951}, {"pitch": 74, "velocity": 50, "note_on_time": 134.02, "note_off_time": 134.223}, {"pitch": 72, "velocity": 40, "note_on_time": 134.427, "note_off_time": 134.551}, {"pitch": 79, "velocity": 54, "note_on_time": 134.766, "note_off_time": 134.924}, {"pitch": 76, "velocity": 60, "note_on_time": 135.953, "note_off_time": 136.09}, {"pitch": 77, "velocity": 45, "note_on_time": 136.276, "note_off_time": 136.44}, {"pitch": 79, "velocity": 49, "note_on_time": 136.627, "note_off_time": 136.913}, {"pitch": 74, "velocity": 52, "note_on_time": 137.142, "note_off_time": 137.284}, {"pitch": 72, "velocity": 47, "note_on_time": 137.549, "note_off_time": 137.71}, {"pitch": 76, "velocity": 55, "note_on_time": 138.034, "note_off_time": 138.183}, {"pitch": 77, "velocity": 45, "note_on_time": 138.343, "note_off_time": 138.529}, {"pitch": 79, "velocity": 57, "note_on_time": 138.732, "note_off_time": 138.878}, {"pitch": 72, "velocity": 36, "note_on_time": 139.496, "note_off_time": 139.613}, {"pitch": 74, "velocity": 54, "note_on_time": 139.96, "note_off_time": 140.1}, {"pitch": 72, "velocity": 46, "note_on_time": 140.302, "note_off_time": 140.458}, {"pitch": 76, "velocity": 37, "note_on_time": 141.282, "note_off_time": 141.444}, {"pitch": 77, "velocity": 53, "note_on_time": 141.781, "note_off_time": 141.918}, {"pitch": 79, "velocity": 43, "note_on_time": 142.102, "note_off_time": 142.253}, {"pitch": 74, "velocity": 54, "note_on_time": 142.649, "note_off_time": 142.794}, {"pitch": 72, "velocity": 31, "note_on_time": 142.977, "note_off_time": 143.106}, {"pitch": 74, "velocity": 49, "note_on_time": 143.966, "note_off_time": 144.099}, {"pitch": 76, "velocity": 54, "note_on_time": 144.304, "note_off_time": 144.448}, {"pitch": 79, "velocity": 54, "note_on_time": 145.624, "note_off_time": 145.827}, {"pitch": 74, "velocity": 53, "note_on_time": 146.353, "note_off_time": 146.487}, {"pitch": 72, "velocity": 45, "note_on_time": 146.637, "note_off_time": 146.777}, {"pitch": 76, "velocity": 44, "note_on_time": 147.296, "note_off_time": 147.458}, {"pitch": 77, "velocity": 60, "note_on_time": 147.605, "note_off_time": 147.761}, {"pitch": 79, "velocity": 40, "note_on_time": 147.945, "note_off_time": 148.141}, {"pitch": 74, "velocity": 47, "note_on_time": 148.567, "note_off_time": 148.72}, {"pitch": 72, "velocity": 39, "note_on_time": 148.865, "note_off_time": 149.003}, {"pitch": 76, "velocity": 55, "note_on_time": 149.874, "note_off_time": 150.008}, {"pitch": 77, "velocity": 52, "note_on_time": 150.196, "note_off_time": 150.333}, {"pitch": 79, "velocity": 46, "note_on_time": 150.547, "note_off_time": 150.738}, {"pitch": 74, "velocity": 57, "note_on_time": 151.39, "note_off_time": 151.539}, {"pitch": 72, "velocity": 39, "note_on_time": 151.707, "note_off_time": 151.839}, {"pitch": 76, "velocity": 23, "note_on_time": 152.192, "note_off_time": 152.344}, {"pitch": 77, "velocity": 59, "note_on_time": 152.703, "note_off_time": 152.827}, {"pitch": 79, "velocity": 40, "note_on_time": 153.022, "note_off_time": 153.224}, {"pitch": 74, "velocity": 52, "note_on_time": 153.753, "note_off_time": 153.894}, {"pitch": 72, "velocity": 38, "note_on_time": 154.08, "note_off_time": 154.211}, {"pitch": 76, "velocity": 41, "note_on_time": 154.955, "note_off_time": 155.121}, {"pitch": 74, "velocity": 54, "note_on_time": 155.306, "note_off_time": 155.48}, {"pitch": 72, "velocity": 35, "note_on_time": 155.652, "note_off_time": 155.799}, {"pitch": 77, "velocity": 51, "note_on_time": 156.125, "note_off_time": 156.278}, {"pitch": 79, "velocity": 39, "note_on_time": 156.45, "note_off_time": 156.633}, {"pitch": 76, "velocity": 54, "note_on_time": 157.584, "note_off_time": 157.758}, {"pitch": 74, "velocity": 53, "note_on_time": 157.933, "note_off_time": 158.131}, {"pitch": 72, "velocity": 35, "note_on_time": 158.301, "note_off_time": 158.446}, {"pitch": 77, "velocity": 50, "note_on_time": 158.923, "note_off_time": 159.138}, {"pitch": 79, "velocity": 6, "note_on_time": 159.319, "note_off_time": 159.518}, {"pitch": 76, "velocity": 51, "note_on_time": 160.212, "note_off_time": 160.358}, {"pitch": 74, "velocity": 52, "note_on_time": 160.554, "note_off_time": 160.713}, {"pitch": 72, "velocity": 35, "note_on_time": 160.868, "note_off_time": 161.032}, {"pitch": 77, "velocity": 64, "note_on_time": 161.416, "note_off_time": 161.571}, {"pitch": 79, "velocity": 25, "note_on_time": 161.768, "note_off_time": 161.991}, {"pitch": 76, "velocity": 43, "note_on_time": 162.563, "note_off_time": 162.709}, {"pitch": 74, "velocity": 62, "note_on_time": 162.895, "note_off_time": 163.051}, {"pitch": 72, "velocity": 49, "note_on_time": 163.175, "note_off_time": 163.33}, {"pitch": 77, "velocity": 46, "note_on_time": 163.532, "note_off_time": 163.687}, {"pitch": 79, "velocity": 21, "note_on_time": 163.624, "note_off_time": 164.178}, {"pitch": 76, "velocity": 54, "note_on_time": 164.518, "note_off_time": 164.686}, {"pitch": 74, "velocity": 54, "note_on_time": 164.862, "note_off_time": 164.997}, {"pitch": 72, "velocity": 44, "note_on_time": 165.156, "note_off_time": 165.315}, {"pitch": 77, "velocity": 62, "note_on_time": 165.726, "note_off_time": 165.876}, {"pitch": 79, "velocity": 45, "note_on_time": 166.071, "note_off_time": 166.281}, {"pitch": 76, "velocity": 49, "note_on_time": 166.74, "note_off_time": 166.903}, {"pitch": 74, "velocity": 46, "note_on_time": 167.068, "note_off_time": 167.221}, {"pitch": 72, "velocity": 43, "note_on_time": 167.367, "note_off_time": 167.533}, {"pitch": 77, "velocity": 51, "note_on_time": 167.848, "note_off_time": 167.992}, {"pitch": 79, "velocity": 33, "note_on_time": 168.174, "note_off_time": 168.368}, {"pitch": 76, "velocity": 52, "note_on_time": 168.664, "note_off_time": 168.851}, {"pitch": 74, "velocity": 52, "note_on_time": 168.982, "note_off_time": 169.124}, {"pitch": 72, "velocity": 28, "note_on_time": 169.309, "note_off_time": 169.421}, {"pitch": 77, "velocity": 41, "note_on_time": 169.752, "note_off_time": 169.873}, {"pitch": 79, "velocity": 23, "note_on_time": 170.169, "note_off_time": 170.393}, {"pitch": 77, "velocity": 45, "note_on_time": 171.436, "note_off_time": 171.582}, {"pitch": 79, "velocity": 48, "note_on_time": 171.801, "note_off_time": 172.034}, {"pitch": 76, "velocity": 59, "note_on_time": 172.485, "note_off_time": 172.661}, {"pitch": 74, "velocity": 53, "note_on_time": 172.793, "note_off_time": 172.939}, {"pitch": 72, "velocity": 37, "note_on_time": 173.115, "note_off_time": 173.288}, {"pitch": 76, "velocity": 55, "note_on_time": 173.606, "note_off_time": 173.744}, {"pitch": 77, "velocity": 47, "note_on_time": 175.303, "note_off_time": 175.368}, {"pitch": 77, "velocity": 38, "note_on_time": 175.783, "note_off_time": 175.961}, {"pitch": 79, "velocity": 46, "note_on_time": 176.365, "note_off_time": 176.573}, {"pitch": 76, "velocity": 55, "note_on_time": 177.048, "note_off_time": 177.198}, {"pitch": 74, "velocity": 57, "note_on_time": 177.357, "note_off_time": 177.534}, {"pitch": 72, "velocity": 52, "note_on_time": 177.659, "note_off_time": 177.821}, {"pitch": 77, "velocity": 39, "note_on_time": 178.156, "note_off_time": 178.364}, {"pitch": 79, "velocity": 51, "note_on_time": 178.537, "note_off_time": 178.735}, {"pitch": 76, "velocity": 47, "note_on_time": 179.389, "note_off_time": 179.564}, {"pitch": 74, "velocity": 48, "note_on_time": 179.738, "note_off_time": 179.914}, {"pitch": 72, "velocity": 49, "note_on_time": 180.131, "note_off_time": 180.308}, {"pitch": 77, "velocity": 58, "note_on_time": 180.911, "note_off_time": 181.036}, {"pitch": 79, "velocity": 40, "note_on_time": 181.244, "note_off_time": 181.396}, {"pitch": 76, "velocity": 43, "note_on_time": 182.003, "note_off_time": 182.18}, {"pitch": 74, "velocity": 53, "note_on_time": 182.363, "note_off_time": 182.535}, {"pitch": 72, "velocity": 46, "note_on_time": 182.719, "note_off_time": 182.876}, {"pitch": 77, "velocity": 60, "note_on_time": 183.189, "note_off_time": 183.336}, {"pitch": 79, "velocity": 52, "note_on_time": 183.526, "note_off_time": 183.703}, {"pitch": 76, "velocity": 36, "note_on_time": 184.097, "note_off_time": 184.267}, {"pitch": 74, "velocity": 53, "note_on_time": 184.42, "note_off_time": 184.587}, {"pitch": 72, "velocity": 53, "note_on_time": 184.771, "note_off_time": 184.95}, {"pitch": 77, "velocity": 55, "note_on_time": 185.302, "note_off_time": 185.464}, {"pitch": 79, "velocity": 41, "note_on_time": 185.631, "note_off_time": 185.866}, {"pitch": 76, "velocity": 48, "note_on_time": 186.136, "note_off_time": 186.308}, {"pitch": 74, "velocity": 46, "note_on_time": 186.489, "note_off_time": 186.648}, {"pitch": 72, "velocity": 22, "note_on_time": 186.934, "note_off_time": 187.117}, {"pitch": 77, "velocity": 53, "note_on_time": 187.58, "note_off_time": 187.729}, {"pitch": 79, "velocity": 35, "note_on_time": 187.909, "note_off_time": 188.093}, {"pitch": 76, "velocity": 45, "note_on_time": 188.38, "note_off_time": 188.535}, {"pitch": 74, "velocity": 42, "note_on_time": 188.75, "note_off_time": 188.88}, {"pitch": 72, "velocity": 37, "note_on_time": 189.182, "note_off_time": 189.355}, {"pitch": 76, "velocity": 34, "note_on_time": 190.29, "note_off_time": 190.454}, {"pitch": 74, "velocity": 54, "note_on_time": 193.939, "note_off_time": 194.113}]</notes><guidance name="Guidance Mode">None</guidance><error name="Error value">99</error></trial></trials></MIDI>