<MIDI midiNo="2023_06_14-13_32_03"><target_notes><notes name="Note List">[{"pitch": 60, "velocity": 40, "note_on_time": 0.01, "note_off_time": 1.026}, {"pitch": 64, "velocity": 40, "note_on_time": 0.01, "note_off_time": 1.027}, {"pitch": 67, "velocity": 40, "note_on_time": 0.01, "note_off_time": 1.028}, {"pitch": 48, "velocity": 40, "note_on_time": 0.01, "note_off_time": 1.028}, {"pitch": 52, "velocity": 40, "note_on_time": 1.028, "note_off_time": 2.032}, {"pitch": 55, "velocity": 40, "note_on_time": 1.028, "note_off_time": 2.033}, {"pitch": 77, "velocity": 40, "note_on_time": 2.032, "note_off_time": 3.047}, {"pitch": 48, "velocity": 40, "note_on_time": 2.033, "note_off_time": 3.047}, {"pitch": 52, "velocity": 40, "note_on_time": 3.047, "note_off_time": 4.056}, {"pitch": 55, "velocity": 40, "note_on_time": 3.047, "note_off_time": 4.056}, {"pitch": 48, "velocity": 40, "note_on_time": 4.056, "note_off_time": 5.068}, {"pitch": 52, "velocity": 40, "note_on_time": 5.068, "note_off_time": 6.082}, {"pitch": 55, "velocity": 40, "note_on_time": 5.068, "note_off_time": 6.082}, {"pitch": 48, "velocity": 40, "note_on_time": 6.082, "note_off_time": 7.094}, {"pitch": 52, "velocity": 40, "note_on_time": 7.094, "note_off_time": 8.107}, {"pitch": 55, "velocity": 40, "note_on_time": 7.094, "note_off_time": 8.107}, {"pitch": 60, "velocity": 40, "note_on_time": 8.106, "note_off_time": 9.115}, {"pitch": 64, "velocity": 40, "note_on_time": 8.107, "note_off_time": 9.115}, {"pitch": 67, "velocity": 40, "note_on_time": 8.107, "note_off_time": 9.116}, {"pitch": 48, "velocity": 40, "note_on_time": 8.107, "note_off_time": 9.116}, {"pitch": 52, "velocity": 40, "note_on_time": 9.116, "note_off_time": 10.129}, {"pitch": 55, "velocity": 40, "note_on_time": 9.116, "note_off_time": 10.13}, {"pitch": 76, "velocity": 40, "note_on_time": 10.129, "note_off_time": 11.131}, {"pitch": 48, "velocity": 40, "note_on_time": 10.13, "note_off_time": 11.131}, {"pitch": 52, "velocity": 40, "note_on_time": 11.131, "note_off_time": 12.137}, {"pitch": 55, "velocity": 40, "note_on_time": 11.131, "note_off_time": 12.137}, {"pitch": 48, "velocity": 40, "note_on_time": 12.137, "note_off_time": 13.153}, {"pitch": 52, "velocity": 40, "note_on_time": 13.153, "note_off_time": 14.165}, {"pitch": 55, "velocity": 40, "note_on_time": 13.153, "note_off_time": 14.165}, {"pitch": 48, "velocity": 40, "note_on_time": 14.165, "note_off_time": 15.17}, {"pitch": 52, "velocity": 40, "note_on_time": 15.17, "note_off_time": 16.174}, {"pitch": 55, "velocity": 40, "note_on_time": 15.17, "note_off_time": 16.175}, {"pitch": 60, "velocity": 40, "note_on_time": 16.173, "note_off_time": 17.181}, {"pitch": 64, "velocity": 40, "note_on_time": 16.173, "note_off_time": 17.182}, {"pitch": 67, "velocity": 40, "note_on_time": 16.174, "note_off_time": 17.183}, {"pitch": 48, "velocity": 40, "note_on_time": 16.175, "note_off_time": 17.183}, {"pitch": 52, "velocity": 40, "note_on_time": 17.183, "note_off_time": 18.189}, {"pitch": 55, "velocity": 40, "note_on_time": 17.183, "note_off_time": 18.19}, {"pitch": 72, "velocity": 40, "note_on_time": 18.189, "note_off_time": 19.192}, {"pitch": 48, "velocity": 40, "note_on_time": 18.19, "note_off_time": 19.192}, {"pitch": 52, "velocity": 40, "note_on_time": 19.193, "note_off_time": 20.204}, {"pitch": 55, "velocity": 40, "note_on_time": 19.193, "note_off_time": 20.204}, {"pitch": 48, "velocity": 40, "note_on_time": 20.204, "note_off_time": 21.214}, {"pitch": 52, "velocity": 40, "note_on_time": 21.214, "note_off_time": 22.221}, {"pitch": 55, "velocity": 40, "note_on_time": 21.214, "note_off_time": 22.221}, {"pitch": 48, "velocity": 40, "note_on_time": 22.221, "note_off_time": 23.234}, {"pitch": 52, "velocity": 40, "note_on_time": 23.234, "note_off_time": 24.249}, {"pitch": 55, "velocity": 40, "note_on_time": 23.234, "note_off_time": 24.25}, {"pitch": 60, "velocity": 40, "note_on_time": 24.247, "note_off_time": 25.262}, {"pitch": 64, "velocity": 40, "note_on_time": 24.249, "note_off_time": 25.263}, {"pitch": 67, "velocity": 40, "note_on_time": 24.249, "note_off_time": 25.263}, {"pitch": 48, "velocity": 40, "note_on_time": 24.25, "note_off_time": 25.263}, {"pitch": 52, "velocity": 40, "note_on_time": 25.264, "note_off_time": 26.276}, {"pitch": 55, "velocity": 40, "note_on_time": 25.264, "note_off_time": 26.277}, {"pitch": 76, "velocity": 40, "note_on_time": 26.276, "note_off_time": 27.298}, {"pitch": 48, "velocity": 40, "note_on_time": 26.277, "note_off_time": 27.299}, {"pitch": 52, "velocity": 40, "note_on_time": 27.299, "note_off_time": 28.304}, {"pitch": 55, "velocity": 40, "note_on_time": 27.299, "note_off_time": 28.304}, {"pitch": 48, "velocity": 40, "note_on_time": 28.304, "note_off_time": 29.309}, {"pitch": 52, "velocity": 40, "note_on_time": 29.309, "note_off_time": 30.323}, {"pitch": 55, "velocity": 40, "note_on_time": 29.309, "note_off_time": 30.323}, {"pitch": 48, "velocity": 40, "note_on_time": 30.323, "note_off_time": 31.326}, {"pitch": 52, "velocity": 40, "note_on_time": 31.326, "note_off_time": 32.341}, {"pitch": 55, "velocity": 40, "note_on_time": 31.326, "note_off_time": 32.341}, {"pitch": 60, "velocity": 40, "note_on_time": 32.34, "note_off_time": 33.347}, {"pitch": 64, "velocity": 40, "note_on_time": 32.341, "note_off_time": 33.348}, {"pitch": 67, "velocity": 40, "note_on_time": 32.341, "note_off_time": 33.349}, {"pitch": 48, "velocity": 40, "note_on_time": 32.341, "note_off_time": 33.349}, {"pitch": 52, "velocity": 40, "note_on_time": 33.349, "note_off_time": 34.361}, {"pitch": 55, "velocity": 40, "note_on_time": 33.349, "note_off_time": 34.362}, {"pitch": 74, "velocity": 40, "note_on_time": 34.361, "note_off_time": 35.372}, {"pitch": 48, "velocity": 40, "note_on_time": 34.362, "note_off_time": 35.373}, {"pitch": 52, "velocity": 40, "note_on_time": 35.373, "note_off_time": 36.378}, {"pitch": 55, "velocity": 40, "note_on_time": 35.373, "note_off_time": 36.378}, {"pitch": 48, "velocity": 40, "note_on_time": 36.378, "note_off_time": 37.389}, {"pitch": 52, "velocity": 40, "note_on_time": 37.389, "note_off_time": 38.401}, {"pitch": 55, "velocity": 40, "note_on_time": 37.389, "note_off_time": 38.401}, {"pitch": 48, "velocity": 40, "note_on_time": 38.401, "note_off_time": 39.413}, {"pitch": 52, "velocity": 40, "note_on_time": 39.413, "note_off_time": 40.42}, {"pitch": 55, "velocity": 40, "note_on_time": 39.414, "note_off_time": 40.42}, {"pitch": 60, "velocity": 40, "note_on_time": 40.419, "note_off_time": 41.429}, {"pitch": 64, "velocity": 40, "note_on_time": 40.42, "note_off_time": 41.43}, {"pitch": 67, "velocity": 40, "note_on_time": 40.42, "note_off_time": 41.43}, {"pitch": 76, "velocity": 40, "note_on_time": 42.442, "note_off_time": 43.455}, {"pitch": 60, "velocity": 40, "note_on_time": 48.466, "note_off_time": 49.482}, {"pitch": 64, "velocity": 40, "note_on_time": 48.466, "note_off_time": 49.483}, {"pitch": 67, "velocity": 40, "note_on_time": 48.467, "note_off_time": 49.484}, {"pitch": 79, "velocity": 40, "note_on_time": 50.492, "note_off_time": 51.494}, {"pitch": 60, "velocity": 40, "note_on_time": 56.498, "note_off_time": 57.514}, {"pitch": 64, "velocity": 40, "note_on_time": 56.499, "note_off_time": 57.515}, {"pitch": 67, "velocity": 40, "note_on_time": 56.499, "note_off_time": 57.516}, {"pitch": 74, "velocity": 40, "note_on_time": 58.523, "note_off_time": 59.527}, {"pitch": 60, "velocity": 40, "note_on_time": 64.533, "note_off_time": 65.549}, {"pitch": 64, "velocity": 40, "note_on_time": 64.533, "note_off_time": 65.55}, {"pitch": 67, "velocity": 40, "note_on_time": 64.534, "note_off_time": 65.551}, {"pitch": 77, "velocity": 40, "note_on_time": 66.559, "note_off_time": 67.572}, {"pitch": 60, "velocity": 40, "note_on_time": 72.587, "note_off_time": 73.595}, {"pitch": 64, "velocity": 40, "note_on_time": 72.587, "note_off_time": 73.596}, {"pitch": 67, "velocity": 40, "note_on_time": 72.588, "note_off_time": 73.597}, {"pitch": 79, "velocity": 40, "note_on_time": 74.608, "note_off_time": 75.612}, {"pitch": 60, "velocity": 40, "note_on_time": 80.618, "note_off_time": 81.622}, {"pitch": 64, "velocity": 40, "note_on_time": 80.619, "note_off_time": 81.623}, {"pitch": 67, "velocity": 40, "note_on_time": 80.619, "note_off_time": 81.624}, {"pitch": 77, "velocity": 40, "note_on_time": 82.636, "note_off_time": 83.646}, {"pitch": 60, "velocity": 40, "note_on_time": 88.653, "note_off_time": 89.667}, {"pitch": 64, "velocity": 40, "note_on_time": 88.654, "note_off_time": 89.667}, {"pitch": 67, "velocity": 40, "note_on_time": 88.655, "note_off_time": 89.668}, {"pitch": 72, "velocity": 40, "note_on_time": 90.674, "note_off_time": 91.689}, {"pitch": 60, "velocity": 40, "note_on_time": 96.696, "note_off_time": 97.699}, {"pitch": 64, "velocity": 40, "note_on_time": 96.697, "note_off_time": 97.699}, {"pitch": 67, "velocity": 40, "note_on_time": 96.697, "note_off_time": 97.7}, {"pitch": 79, "velocity": 40, "note_on_time": 98.71, "note_off_time": 99.714}, {"pitch": 60, "velocity": 40, "note_on_time": 104.723, "note_off_time": 105.736}, {"pitch": 64, "velocity": 40, "note_on_time": 104.723, "note_off_time": 105.736}, {"pitch": 67, "velocity": 40, "note_on_time": 104.724, "note_off_time": 105.737}, {"pitch": 74, "velocity": 40, "note_on_time": 106.741, "note_off_time": 107.757}, {"pitch": 60, "velocity": 40, "note_on_time": 112.768, "note_off_time": 113.782}, {"pitch": 64, "velocity": 40, "note_on_time": 112.769, "note_off_time": 113.783}, {"pitch": 67, "velocity": 40, "note_on_time": 112.77, "note_off_time": 113.783}, {"pitch": 72, "velocity": 40, "note_on_time": 114.79, "note_off_time": 115.807}, {"pitch": 60, "velocity": 40, "note_on_time": 120.808, "note_off_time": 121.819}, {"pitch": 64, "velocity": 40, "note_on_time": 120.809, "note_off_time": 121.82}, {"pitch": 67, "velocity": 40, "note_on_time": 120.809, "note_off_time": 121.82}, {"pitch": 77, "velocity": 40, "note_on_time": 122.832, "note_off_time": 123.835}, {"pitch": 60, "velocity": 40, "note_on_time": 128.849, "note_off_time": 129.865}, {"pitch": 64, "velocity": 40, "note_on_time": 128.85, "note_off_time": 129.866}, {"pitch": 67, "velocity": 40, "note_on_time": 128.851, "note_off_time": 129.866}, {"pitch": 76, "velocity": 40, "note_on_time": 130.879, "note_off_time": 131.889}, {"pitch": 60, "velocity": 40, "note_on_time": 136.897, "note_off_time": 137.901}, {"pitch": 64, "velocity": 40, "note_on_time": 136.898, "note_off_time": 137.902}, {"pitch": 67, "velocity": 40, "note_on_time": 136.898, "note_off_time": 137.903}, {"pitch": 79, "velocity": 40, "note_on_time": 138.909, "note_off_time": 139.923}, {"pitch": 60, "velocity": 40, "note_on_time": 144.927, "note_off_time": 145.939}, {"pitch": 64, "velocity": 40, "note_on_time": 144.928, "note_off_time": 145.94}, {"pitch": 67, "velocity": 40, "note_on_time": 144.928, "note_off_time": 145.94}, {"pitch": 72, "velocity": 40, "note_on_time": 146.942, "note_off_time": 147.952}, {"pitch": 60, "velocity": 40, "note_on_time": 152.967, "note_off_time": 153.977}, {"pitch": 64, "velocity": 40, "note_on_time": 152.967, "note_off_time": 153.978}, {"pitch": 67, "velocity": 40, "note_on_time": 152.968, "note_off_time": 153.978}, {"pitch": 74, "velocity": 40, "note_on_time": 154.988, "note_off_time": 155.998}, {"pitch": 60, "velocity": 40, "note_on_time": 161.01, "note_off_time": 162.026}, {"pitch": 64, "velocity": 40, "note_on_time": 161.01, "note_off_time": 162.026}, {"pitch": 67, "velocity": 40, "note_on_time": 161.011, "note_off_time": 162.027}, {"pitch": 77, "velocity": 40, "note_on_time": 163.038, "note_off_time": 164.05}]</notes><options name="Option List">((4, 4), [0.5, 0.25], 3, 8, &lt;NoteRangePerHand.TWO_NOTES: 3&gt;, &lt;NoteRangePerHand.ONE_NOTE: 2&gt;, False, True, True, 100)</options></target_notes><trials><trial trial_no="1" timestamp="2023_06_14-13_29_19"><notes name="Played Notes">[{"pitch": 74, "velocity": 59, "note_on_time": 5.037, "note_off_time": 5.366}, {"pitch": 76, "velocity": 35, "note_on_time": 9.785, "note_off_time": 10.709}, {"pitch": 76, "velocity": 44, "note_on_time": 11.136, "note_off_time": 11.837}, {"pitch": 76, "velocity": 13, "note_on_time": 19.867, "note_off_time": 20.563}, {"pitch": 74, "velocity": 51, "note_on_time": 22.792, "note_off_time": 23.362}, {"pitch": 77, "velocity": 53, "note_on_time": 23.843, "note_off_time": 24.322}, {"pitch": 79, "velocity": 61, "note_on_time": 28.314, "note_off_time": 28.78}, {"pitch": 77, "velocity": 55, "note_on_time": 29.411, "note_off_time": 29.991}, {"pitch": 72, "velocity": 44, "note_on_time": 36.462, "note_off_time": 37.059}, {"pitch": 74, "velocity": 62, "note_on_time": 38.786, "note_off_time": 39.254}, {"pitch": 77, "velocity": 44, "note_on_time": 44.147, "note_off_time": 44.774}, {"pitch": 79, "velocity": 49, "note_on_time": 51.815, "note_off_time": 52.391}, {"pitch": 72, "velocity": 50, "note_on_time": 60.15, "note_off_time": 60.799}, {"pitch": 76, "velocity": 54, "note_on_time": 68.553, "note_off_time": 69.116}, {"pitch": 77, "velocity": 45, "note_on_time": 72.642, "note_off_time": 72.966}, {"pitch": 77, "velocity": 47, "note_on_time": 76.559, "note_off_time": 77.11}, {"pitch": 79, "velocity": 52, "note_on_time": 78.018, "note_off_time": 78.813}, {"pitch": 72, "velocity": 51, "note_on_time": 84.089, "note_off_time": 84.518}, {"pitch": 74, "velocity": 60, "note_on_time": 85.195, "note_off_time": 85.576}, {"pitch": 76, "velocity": 32, "note_on_time": 86.128, "note_off_time": 86.842}, {"pitch": 74, "velocity": 59, "note_on_time": 93.063, "note_off_time": 93.456}, {"pitch": 76, "velocity": 54, "note_on_time": 94.035, "note_off_time": 94.519}, {"pitch": 72, "velocity": 51, "note_on_time": 94.825, "note_off_time": 95.249}, {"pitch": 77, "velocity": 55, "note_on_time": 101.33, "note_off_time": 101.72}, {"pitch": 79, "velocity": 51, "note_on_time": 102.376, "note_off_time": 103.423}, {"pitch": 72, "velocity": 46, "note_on_time": 108.195, "note_off_time": 108.749}, {"pitch": 74, "velocity": 42, "note_on_time": 109.376, "note_off_time": 110.202}, {"pitch": 72, "velocity": 42, "note_on_time": 116.234, "note_off_time": 116.749}, {"pitch": 79, "velocity": 53, "note_on_time": 124.436, "note_off_time": 125.027}, {"pitch": 77, "velocity": 1, "note_on_time": 128.355, "note_off_time": 128.738}, {"pitch": 77, "velocity": 41, "note_on_time": 133.077, "note_off_time": 133.83}, {"pitch": 79, "velocity": 50, "note_on_time": 140.588, "note_off_time": 141.22}, {"pitch": 72, "velocity": 54, "note_on_time": 148.365, "note_off_time": 148.948}, {"pitch": 74, "velocity": 51, "note_on_time": 156.472, "note_off_time": 157.129}]</notes><guidance name="Guidance Mode">None</guidance><error name="Error value">99</error></trial><trial trial_no="2" timestamp="2023_06_14-13_33_22"><notes name="Played Notes">[{"pitch": 72, "velocity": 43, "note_on_time": 4.93, "note_off_time": 5.554}, {"pitch": 76, "velocity": 55, "note_on_time": 7.346, "note_off_time": 8.001}, {"pitch": 79, "velocity": 47, "note_on_time": 9.75, "note_off_time": 10.017}, {"pitch": 77, "velocity": 50, "note_on_time": 10.373, "note_off_time": 10.824}, {"pitch": 72, "velocity": 48, "note_on_time": 12.251, "note_off_time": 12.852}, {"pitch": 76, "velocity": 57, "note_on_time": 14.597, "note_off_time": 15.274}, {"pitch": 74, "velocity": 60, "note_on_time": 15.894, "note_off_time": 16.566}, {"pitch": 77, "velocity": 51, "note_on_time": 17.071, "note_off_time": 17.407}, {"pitch": 79, "velocity": 46, "note_on_time": 17.686, "note_off_time": 17.93}, {"pitch": 77, "velocity": 55, "note_on_time": 18.27, "note_off_time": 18.898}, {"pitch": 79, "velocity": 48, "note_on_time": 19.541, "note_off_time": 20.065}, {"pitch": 76, "velocity": 50, "note_on_time": 20.692, "note_off_time": 21.011}, {"pitch": 74, "velocity": 56, "note_on_time": 21.297, "note_off_time": 21.571}, {"pitch": 72, "velocity": 30, "note_on_time": 21.967, "note_off_time": 22.604}, {"pitch": 79, "velocity": 43, "note_on_time": 23.102, "note_off_time": 23.725}, {"pitch": 72, "velocity": 49, "note_on_time": 24.385, "note_off_time": 24.69}, {"pitch": 74, "velocity": 51, "note_on_time": 24.962, "note_off_time": 25.211}, {"pitch": 76, "velocity": 46, "note_on_time": 25.557, "note_off_time": 26.111}, {"pitch": 72, "velocity": 52, "note_on_time": 26.827, "note_off_time": 27.112}, {"pitch": 79, "velocity": 40, "note_on_time": 27.36, "note_off_time": 27.688}, {"pitch": 77, "velocity": 53, "note_on_time": 28.0, "note_off_time": 28.53}, {"pitch": 76, "velocity": 57, "note_on_time": 29.248, "note_off_time": 29.534}, {"pitch": 79, "velocity": 51, "note_on_time": 29.808, "note_off_time": 30.247}, {"pitch": 74, "velocity": 47, "note_on_time": 30.536, "note_off_time": 30.894}, {"pitch": 72, "velocity": 48, "note_on_time": 31.624, "note_off_time": 31.949}, {"pitch": 74, "velocity": 45, "note_on_time": 32.143, "note_off_time": 32.404}, {"pitch": 72, "velocity": 44, "note_on_time": 35.355, "note_off_time": 35.907}, {"pitch": 76, "velocity": 52, "note_on_time": 36.519, "note_off_time": 37.089}, {"pitch": 79, "velocity": 56, "note_on_time": 37.778, "note_off_time": 38.172}, {"pitch": 76, "velocity": 55, "note_on_time": 38.388, "note_off_time": 38.666}, {"pitch": 79, "velocity": 66, "note_on_time": 38.927, "note_off_time": 39.567}, {"pitch": 74, "velocity": 62, "note_on_time": 40.205, "note_off_time": 40.581}, {"pitch": 72, "velocity": 35, "note_on_time": 40.773, "note_off_time": 41.189}, {"pitch": 76, "velocity": 52, "note_on_time": 41.423, "note_off_time": 41.771}, {"pitch": 77, "velocity": 53, "note_on_time": 42.027, "note_off_time": 42.275}, {"pitch": 79, "velocity": 49, "note_on_time": 42.572, "note_off_time": 43.277}, {"pitch": 79, "velocity": 56, "note_on_time": 43.857, "note_off_time": 44.536}, {"pitch": 72, "velocity": 46, "note_on_time": 45.007, "note_off_time": 45.558}, {"pitch": 74, "velocity": 55, "note_on_time": 45.581, "note_off_time": 45.903}, {"pitch": 72, "velocity": 49, "note_on_time": 46.219, "note_off_time": 46.806}, {"pitch": 74, "velocity": 38, "note_on_time": 47.462, "note_off_time": 47.811}, {"pitch": 76, "velocity": 56, "note_on_time": 48.077, "note_off_time": 48.32}, {"pitch": 74, "velocity": 49, "note_on_time": 48.674, "note_off_time": 49.159}, {"pitch": 76, "velocity": 46, "note_on_time": 49.867, "note_off_time": 50.138}, {"pitch": 77, "velocity": 49, "note_on_time": 50.428, "note_off_time": 50.656}, {"pitch": 76, "velocity": 55, "note_on_time": 51.04, "note_off_time": 51.357}, {"pitch": 76, "velocity": 49, "note_on_time": 51.612, "note_off_time": 51.917}, {"pitch": 76, "velocity": 39, "note_on_time": 52.265, "note_off_time": 52.965}, {"pitch": 79, "velocity": 33, "note_on_time": 53.509, "note_off_time": 54.223}, {"pitch": 72, "velocity": 45, "note_on_time": 54.793, "note_off_time": 55.197}, {"pitch": 74, "velocity": 48, "note_on_time": 55.428, "note_off_time": 55.625}, {"pitch": 76, "velocity": 54, "note_on_time": 55.986, "note_off_time": 56.575}, {"pitch": 74, "velocity": 47, "note_on_time": 57.181, "note_off_time": 57.657}, {"pitch": 72, "velocity": 17, "note_on_time": 57.816, "note_off_time": 58.164}, {"pitch": 72, "velocity": 41, "note_on_time": 58.44, "note_off_time": 59.1}, {"pitch": 74, "velocity": 53, "note_on_time": 59.638, "note_off_time": 59.903}, {"pitch": 77, "velocity": 56, "note_on_time": 60.15, "note_off_time": 60.395}, {"pitch": 79, "velocity": 31, "note_on_time": 60.783, "note_off_time": 61.254}, {"pitch": 79, "velocity": 54, "note_on_time": 61.395, "note_off_time": 62.11}, {"pitch": 77, "velocity": 62, "note_on_time": 62.11, "note_off_time": 62.62}, {"pitch": 76, "velocity": 41, "note_on_time": 63.249, "note_off_time": 63.842}, {"pitch": 72, "velocity": 52, "note_on_time": 64.509, "note_off_time": 65.061}, {"pitch": 74, "velocity": 50, "note_on_time": 65.033, "note_off_time": 65.741}, {"pitch": 76, "velocity": 52, "note_on_time": 65.637, "note_off_time": 66.254}, {"pitch": 79, "velocity": 44, "note_on_time": 66.904, "note_off_time": 67.545}, {"pitch": 79, "velocity": 34, "note_on_time": 68.175, "note_off_time": 68.792}, {"pitch": 79, "velocity": 53, "note_on_time": 69.291, "note_off_time": 69.887}, {"pitch": 77, "velocity": 50, "note_on_time": 69.924, "note_off_time": 70.687}, {"pitch": 76, "velocity": 46, "note_on_time": 70.487, "note_off_time": 71.124}, {"pitch": 74, "velocity": 59, "note_on_time": 71.113, "note_off_time": 71.653}, {"pitch": 72, "velocity": 42, "note_on_time": 71.668, "note_off_time": 72.184}, {"pitch": 79, "velocity": 57, "note_on_time": 74.188, "note_off_time": 74.801}, {"pitch": 72, "velocity": 51, "note_on_time": 75.417, "note_off_time": 76.083}, {"pitch": 79, "velocity": 52, "note_on_time": 76.668, "note_off_time": 77.397}, {"pitch": 72, "velocity": 52, "note_on_time": 77.865, "note_off_time": 78.561}, {"pitch": 79, "velocity": 57, "note_on_time": 79.152, "note_off_time": 79.417}, {"pitch": 77, "velocity": 60, "note_on_time": 79.723, "note_off_time": 80.034}, {"pitch": 79, "velocity": 53, "note_on_time": 80.262, "note_off_time": 80.94}, {"pitch": 72, "velocity": 52, "note_on_time": 81.55, "note_off_time": 82.122}, {"pitch": 72, "velocity": 51, "note_on_time": 82.758, "note_off_time": 83.337}, {"pitch": 79, "velocity": 23, "note_on_time": 83.977, "note_off_time": 84.321}, {"pitch": 76, "velocity": 59, "note_on_time": 84.598, "note_off_time": 84.814}, {"pitch": 79, "velocity": 55, "note_on_time": 85.17, "note_off_time": 85.813}, {"pitch": 72, "velocity": 59, "note_on_time": 86.393, "note_off_time": 86.663}, {"pitch": 76, "velocity": 62, "note_on_time": 86.986, "note_off_time": 87.281}, {"pitch": 72, "velocity": 42, "note_on_time": 87.544, "note_off_time": 88.224}, {"pitch": 72, "velocity": 50, "note_on_time": 88.813, "note_off_time": 89.131}, {"pitch": 74, "velocity": 48, "note_on_time": 89.332, "note_off_time": 89.562}, {"pitch": 79, "velocity": 43, "note_on_time": 89.989, "note_off_time": 90.622}, {"pitch": 79, "velocity": 45, "note_on_time": 91.188, "note_off_time": 91.548}, {"pitch": 74, "velocity": 55, "note_on_time": 91.769, "note_off_time": 91.921}, {"pitch": 74, "velocity": 56, "note_on_time": 92.355, "note_off_time": 92.964}, {"pitch": 72, "velocity": 31, "note_on_time": 93.533, "note_off_time": 93.779}, {"pitch": 74, "velocity": 60, "note_on_time": 94.138, "note_off_time": 94.344}, {"pitch": 76, "velocity": 52, "note_on_time": 94.75, "note_off_time": 95.308}, {"pitch": 77, "velocity": 51, "note_on_time": 95.853, "note_off_time": 96.088}, {"pitch": 79, "velocity": 49, "note_on_time": 98.642, "note_off_time": 99.323}, {"pitch": 76, "velocity": 58, "note_on_time": 99.832, "note_off_time": 100.467}, {"pitch": 72, "velocity": 48, "note_on_time": 101.011, "note_off_time": 101.426}, {"pitch": 74, "velocity": 65, "note_on_time": 101.598, "note_off_time": 101.831}, {"pitch": 76, "velocity": 60, "note_on_time": 102.195, "note_off_time": 102.828}, {"pitch": 79, "velocity": 47, "note_on_time": 103.438, "note_off_time": 103.783}, {"pitch": 77, "velocity": 42, "note_on_time": 103.758, "note_off_time": 104.073}, {"pitch": 76, "velocity": 51, "note_on_time": 104.071, "note_off_time": 104.377}, {"pitch": 74, "velocity": 60, "note_on_time": 104.689, "note_off_time": 105.119}, {"pitch": 72, "velocity": 48, "note_on_time": 105.252, "note_off_time": 105.461}, {"pitch": 72, "velocity": 42, "note_on_time": 105.83, "note_off_time": 106.473}, {"pitch": 74, "velocity": 45, "note_on_time": 106.4, "note_off_time": 106.602}, {"pitch": 76, "velocity": 57, "note_on_time": 106.975, "note_off_time": 107.57}, {"pitch": 77, "velocity": 59, "note_on_time": 108.323, "note_off_time": 108.758}, {"pitch": 79, "velocity": 29, "note_on_time": 108.872, "note_off_time": 109.127}, {"pitch": 79, "velocity": 47, "note_on_time": 109.422, "note_off_time": 110.117}, {"pitch": 76, "velocity": 56, "note_on_time": 110.736, "note_off_time": 110.963}, {"pitch": 74, "velocity": 51, "note_on_time": 111.275, "note_off_time": 111.513}, {"pitch": 72, "velocity": 49, "note_on_time": 111.914, "note_off_time": 112.587}, {"pitch": 72, "velocity": 52, "note_on_time": 113.151, "note_off_time": 113.455}, {"pitch": 74, "velocity": 54, "note_on_time": 113.722, "note_off_time": 113.909}, {"pitch": 76, "velocity": 52, "note_on_time": 114.352, "note_off_time": 115.022}, {"pitch": 77, "velocity": 49, "note_on_time": 114.95, "note_off_time": 115.155}, {"pitch": 79, "velocity": 55, "note_on_time": 115.518, "note_off_time": 115.802}, {"pitch": 79, "velocity": 54, "note_on_time": 116.093, "note_off_time": 116.365}, {"pitch": 77, "velocity": 59, "note_on_time": 116.741, "note_off_time": 117.382}, {"pitch": 72, "velocity": 51, "note_on_time": 118.089, "note_off_time": 118.372}, {"pitch": 76, "velocity": 53, "note_on_time": 119.183, "note_off_time": 119.76}, {"pitch": 72, "velocity": 47, "note_on_time": 120.388, "note_off_time": 120.608}, {"pitch": 77, "velocity": 54, "note_on_time": 120.777, "note_off_time": 121.071}, {"pitch": 72, "velocity": 46, "note_on_time": 121.299, "note_off_time": 121.55}, {"pitch": 77, "velocity": 51, "note_on_time": 121.636, "note_off_time": 122.137}, {"pitch": 79, "velocity": 56, "note_on_time": 122.87, "note_off_time": 123.092}, {"pitch": 76, "velocity": 40, "note_on_time": 123.242, "note_off_time": 123.479}, {"pitch": 79, "velocity": 35, "note_on_time": 123.786, "note_off_time": 124.046}, {"pitch": 74, "velocity": 50, "note_on_time": 124.16, "note_off_time": 124.457}, {"pitch": 72, "velocity": 54, "note_on_time": 124.71, "note_off_time": 124.997}, {"pitch": 74, "velocity": 62, "note_on_time": 125.294, "note_off_time": 126.113}, {"pitch": 76, "velocity": 53, "note_on_time": 126.499, "note_off_time": 126.808}, {"pitch": 79, "velocity": 37, "note_on_time": 127.711, "note_off_time": 127.94}, {"pitch": 79, "velocity": 50, "note_on_time": 128.117, "note_off_time": 128.375}, {"pitch": 76, "velocity": 57, "note_on_time": 128.599, "note_off_time": 128.839}, {"pitch": 79, "velocity": 53, "note_on_time": 128.867, "note_off_time": 129.527}, {"pitch": 74, "velocity": 48, "note_on_time": 129.523, "note_off_time": 129.758}, {"pitch": 72, "velocity": 58, "note_on_time": 130.117, "note_off_time": 130.799}, {"pitch": 76, "velocity": 55, "note_on_time": 130.743, "note_off_time": 131.289}, {"pitch": 74, "velocity": 38, "note_on_time": 131.314, "note_off_time": 131.893}, {"pitch": 72, "velocity": 37, "note_on_time": 132.542, "note_off_time": 132.932}, {"pitch": 74, "velocity": 53, "note_on_time": 132.885, "note_off_time": 133.512}, {"pitch": 76, "velocity": 38, "note_on_time": 133.443, "note_off_time": 133.774}, {"pitch": 74, "velocity": 59, "note_on_time": 133.774, "note_off_time": 134.376}, {"pitch": 72, "velocity": 41, "note_on_time": 134.407, "note_off_time": 135.238}, {"pitch": 79, "velocity": 51, "note_on_time": 135.096, "note_off_time": 136.261}, {"pitch": 79, "velocity": 49, "note_on_time": 136.401, "note_off_time": 136.908}, {"pitch": 79, "velocity": 35, "note_on_time": 137.785, "note_off_time": 138.329}, {"pitch": 74, "velocity": 47, "note_on_time": 138.311, "note_off_time": 138.652}, {"pitch": 72, "velocity": 66, "note_on_time": 144.724, "note_off_time": 145.326}, {"pitch": 76, "velocity": 68, "note_on_time": 145.955, "note_off_time": 146.248}, {"pitch": 72, "velocity": 53, "note_on_time": 146.343, "note_off_time": 146.673}, {"pitch": 76, "velocity": 60, "note_on_time": 147.148, "note_off_time": 147.418}, {"pitch": 74, "velocity": 45, "note_on_time": 147.517, "note_off_time": 147.768}, {"pitch": 79, "velocity": 61, "note_on_time": 148.081, "note_off_time": 148.595}, {"pitch": 76, "velocity": 44, "note_on_time": 148.394, "note_off_time": 148.825}, {"pitch": 76, "velocity": 45, "note_on_time": 148.972, "note_off_time": 149.285}, {"pitch": 77, "velocity": 60, "note_on_time": 149.591, "note_off_time": 150.284}, {"pitch": 79, "velocity": 42, "note_on_time": 150.179, "note_off_time": 150.43}, {"pitch": 79, "velocity": 48, "note_on_time": 150.762, "note_off_time": 151.201}, {"pitch": 77, "velocity": 58, "note_on_time": 151.139, "note_off_time": 151.449}, {"pitch": 72, "velocity": 20, "note_on_time": 151.751, "note_off_time": 151.878}, {"pitch": 72, "velocity": 64, "note_on_time": 152.065, "note_off_time": 152.649}, {"pitch": 74, "velocity": 45, "note_on_time": 152.704, "note_off_time": 153.498}, {"pitch": 76, "velocity": 49, "note_on_time": 153.291, "note_off_time": 153.925}, {"pitch": 74, "velocity": 60, "note_on_time": 154.497, "note_off_time": 154.917}, {"pitch": 76, "velocity": 48, "note_on_time": 154.804, "note_off_time": 155.057}, {"pitch": 72, "velocity": 46, "note_on_time": 155.377, "note_off_time": 155.673}, {"pitch": 76, "velocity": 53, "note_on_time": 155.666, "note_off_time": 156.055}, {"pitch": 77, "velocity": 56, "note_on_time": 156.225, "note_off_time": 156.443}, {"pitch": 79, "velocity": 44, "note_on_time": 156.797, "note_off_time": 157.408}, {"pitch": 77, "velocity": 30, "note_on_time": 157.132, "note_off_time": 157.514}, {"pitch": 76, "velocity": 35, "note_on_time": 157.736, "note_off_time": 158.037}, {"pitch": 74, "velocity": 57, "note_on_time": 158.085, "note_off_time": 158.443}, {"pitch": 72, "velocity": 45, "note_on_time": 158.753, "note_off_time": 158.949}, {"pitch": 79, "velocity": 56, "note_on_time": 159.204, "note_off_time": 159.84}, {"pitch": 79, "velocity": 35, "note_on_time": 160.514, "note_off_time": 161.141}, {"pitch": 76, "velocity": 60, "note_on_time": 161.135, "note_off_time": 161.329}, {"pitch": 79, "velocity": 62, "note_on_time": 161.707, "note_off_time": 161.965}, {"pitch": 76, "velocity": 52, "note_on_time": 162.079, "note_off_time": 162.311}, {"pitch": 79, "velocity": 49, "note_on_time": 162.526, "note_off_time": 162.858}, {"pitch": 77, "velocity": 39, "note_on_time": 162.917, "note_off_time": 163.444}, {"pitch": 74, "velocity": 40, "note_on_time": 163.531, "note_off_time": 163.779}, {"pitch": 72, "velocity": 52, "note_on_time": 164.177, "note_off_time": 164.932}, {"pitch": 74, "velocity": 56, "note_on_time": 164.8, "note_off_time": 165.039}, {"pitch": 72, "velocity": 49, "note_on_time": 165.414, "note_off_time": 166.162}, {"pitch": 74, "velocity": 50, "note_on_time": 166.004, "note_off_time": 166.24}, {"pitch": 72, "velocity": 48, "note_on_time": 166.608, "note_off_time": 167.31}, {"pitch": 74, "velocity": 55, "note_on_time": 167.16, "note_off_time": 167.409}, {"pitch": 79, "velocity": 69, "note_on_time": 167.914, "note_off_time": 168.609}, {"pitch": 79, "velocity": 45, "note_on_time": 169.05, "note_off_time": 169.667}, {"pitch": 76, "velocity": 66, "note_on_time": 169.658, "note_off_time": 169.868}, {"pitch": 76, "velocity": 57, "note_on_time": 170.759, "note_off_time": 170.954}, {"pitch": 79, "velocity": 49, "note_on_time": 170.209, "note_off_time": 171.087}, {"pitch": 72, "velocity": 46, "note_on_time": 171.377, "note_off_time": 171.72}, {"pitch": 74, "velocity": 49, "note_on_time": 171.728, "note_off_time": 171.963}, {"pitch": 72, "velocity": 41, "note_on_time": 172.29, "note_off_time": 172.66}, {"pitch": 74, "velocity": 55, "note_on_time": 172.607, "note_off_time": 173.248}, {"pitch": 79, "velocity": 37, "note_on_time": 173.929, "note_off_time": 174.353}, {"pitch": 79, "velocity": 52, "note_on_time": 175.189, "note_off_time": 175.791}, {"pitch": 79, "velocity": 48, "note_on_time": 176.362, "note_off_time": 176.871}, {"pitch": 77, "velocity": 46, "note_on_time": 176.709, "note_off_time": 176.92}, {"pitch": 76, "velocity": 40, "note_on_time": 177.249, "note_off_time": 177.447}, {"pitch": 79, "velocity": 49, "note_on_time": 177.584, "note_off_time": 178.197}, {"pitch": 74, "velocity": 51, "note_on_time": 178.196, "note_off_time": 178.419}, {"pitch": 72, "velocity": 60, "note_on_time": 178.809, "note_off_time": 179.495}, {"pitch": 79, "velocity": 46, "note_on_time": 179.995, "note_off_time": 180.717}, {"pitch": 72, "velocity": 56, "note_on_time": 181.186, "note_off_time": 181.557}, {"pitch": 74, "velocity": 55, "note_on_time": 181.572, "note_off_time": 181.862}, {"pitch": 72, "velocity": 49, "note_on_time": 182.074, "note_off_time": 182.61}, {"pitch": 74, "velocity": 54, "note_on_time": 182.423, "note_off_time": 183.086}, {"pitch": 72, "velocity": 48, "note_on_time": 183.67, "note_off_time": 184.047}, {"pitch": 74, "velocity": 55, "note_on_time": 183.983, "note_off_time": 184.251}, {"pitch": 76, "velocity": 57, "note_on_time": 184.521, "note_off_time": 184.729}, {"pitch": 77, "velocity": 60, "note_on_time": 184.858, "note_off_time": 185.318}, {"pitch": 76, "velocity": 49, "note_on_time": 185.419, "note_off_time": 185.701}, {"pitch": 77, "velocity": 22, "note_on_time": 186.082, "note_off_time": 186.65}, {"pitch": 76, "velocity": 43, "note_on_time": 186.697, "note_off_time": 186.924}, {"pitch": 77, "velocity": 52, "note_on_time": 187.212, "note_off_time": 187.856}, {"pitch": 76, "velocity": 57, "note_on_time": 187.812, "note_off_time": 188.044}, {"pitch": 76, "velocity": 54, "note_on_time": 188.428, "note_off_time": 188.886}, {"pitch": 77, "velocity": 55, "note_on_time": 188.749, "note_off_time": 189.319}, {"pitch": 79, "velocity": 50, "note_on_time": 189.283, "note_off_time": 190.293}, {"pitch": 77, "velocity": 58, "note_on_time": 189.647, "note_off_time": 190.404}, {"pitch": 76, "velocity": 51, "note_on_time": 190.25, "note_off_time": 190.492}, {"pitch": 76, "velocity": 48, "note_on_time": 190.839, "note_off_time": 191.542}, {"pitch": 74, "velocity": 56, "note_on_time": 191.458, "note_off_time": 191.73}, {"pitch": 72, "velocity": 54, "note_on_time": 192.03, "note_off_time": 192.72}, {"pitch": 72, "velocity": 58, "note_on_time": 193.413, "note_off_time": 193.704}, {"pitch": 74, "velocity": 55, "note_on_time": 193.769, "note_off_time": 194.081}]</notes><guidance name="Guidance Mode">None</guidance><error name="Error value">99</error></trial><trial trial_no="3" timestamp="2023_06_14-13_41_36"><notes name="Played Notes">[{"pitch": 77, "velocity": 70, "note_on_time": 4.889, "note_off_time": 5.589}, {"pitch": 72, "velocity": 72, "note_on_time": 7.342, "note_off_time": 7.588}, {"pitch": 74, "velocity": 64, "note_on_time": 7.688, "note_off_time": 8.005}, {"pitch": 72, "velocity": 59, "note_on_time": 9.706, "note_off_time": 10.015}, {"pitch": 74, "velocity": 61, "note_on_time": 10.015, "note_off_time": 10.214}, {"pitch": 76, "velocity": 56, "note_on_time": 10.357, "note_off_time": 10.627}, {"pitch": 79, "velocity": 66, "note_on_time": 10.949, "note_off_time": 11.665}, {"pitch": 72, "velocity": 56, "note_on_time": 12.219, "note_off_time": 12.474}, {"pitch": 74, "velocity": 67, "note_on_time": 12.541, "note_off_time": 12.833}, {"pitch": 72, "velocity": 49, "note_on_time": 13.083, "note_off_time": 13.342}, {"pitch": 74, "velocity": 52, "note_on_time": 13.4, "note_off_time": 13.693}, {"pitch": 76, "velocity": 60, "note_on_time": 13.967, "note_off_time": 14.203}, {"pitch": 76, "velocity": 56, "note_on_time": 14.976, "note_off_time": 15.188}, {"pitch": 79, "velocity": 68, "note_on_time": 14.557, "note_off_time": 15.311}, {"pitch": 77, "velocity": 55, "note_on_time": 15.522, "note_off_time": 15.667}, {"pitch": 76, "velocity": 57, "note_on_time": 15.828, "note_off_time": 16.307}, {"pitch": 74, "velocity": 51, "note_on_time": 16.46, "note_off_time": 16.681}, {"pitch": 72, "velocity": 50, "note_on_time": 17.053, "note_off_time": 17.495}, {"pitch": 74, "velocity": 54, "note_on_time": 17.412, "note_off_time": 17.678}, {"pitch": 72, "velocity": 51, "note_on_time": 17.907, "note_off_time": 18.107}, {"pitch": 74, "velocity": 53, "note_on_time": 18.248, "note_off_time": 18.613}, {"pitch": 76, "velocity": 65, "note_on_time": 18.855, "note_off_time": 19.036}, {"pitch": 77, "velocity": 62, "note_on_time": 19.471, "note_off_time": 20.155}, {"pitch": 79, "velocity": 36, "note_on_time": 20.007, "note_off_time": 20.359}, {"pitch": 79, "velocity": 44, "note_on_time": 20.661, "note_off_time": 21.333}, {"pitch": 79, "velocity": 50, "note_on_time": 21.928, "note_off_time": 22.417}, {"pitch": 77, "velocity": 43, "note_on_time": 22.309, "note_off_time": 22.493}, {"pitch": 76, "velocity": 60, "note_on_time": 22.842, "note_off_time": 22.956}, {"pitch": 79, "velocity": 57, "note_on_time": 23.166, "note_off_time": 23.686}, {"pitch": 72, "velocity": 47, "note_on_time": 24.399, "note_off_time": 24.616}, {"pitch": 74, "velocity": 50, "note_on_time": 24.775, "note_off_time": 25.002}, {"pitch": 72, "velocity": 46, "note_on_time": 25.27, "note_off_time": 25.563}, {"pitch": 74, "velocity": 56, "note_on_time": 25.598, "note_off_time": 25.929}, {"pitch": 76, "velocity": 58, "note_on_time": 26.183, "note_off_time": 26.391}, {"pitch": 72, "velocity": 43, "note_on_time": 26.799, "note_off_time": 27.094}, {"pitch": 74, "velocity": 56, "note_on_time": 27.128, "note_off_time": 27.411}, {"pitch": 72, "velocity": 49, "note_on_time": 27.652, "note_off_time": 27.815}, {"pitch": 74, "velocity": 51, "note_on_time": 27.958, "note_off_time": 28.131}, {"pitch": 76, "velocity": 54, "note_on_time": 28.241, "note_off_time": 28.403}, {"pitch": 77, "velocity": 59, "note_on_time": 28.536, "note_off_time": 28.923}, {"pitch": 76, "velocity": 45, "note_on_time": 29.762, "note_off_time": 29.987}, {"pitch": 79, "velocity": 48, "note_on_time": 29.146, "note_off_time": 30.028}, {"pitch": 79, "velocity": 46, "note_on_time": 30.343, "note_off_time": 31.009}, {"pitch": 79, "velocity": 18, "note_on_time": 31.658, "note_off_time": 32.221}, {"pitch": 76, "velocity": 60, "note_on_time": 32.272, "note_off_time": 32.484}, {"pitch": 76, "velocity": 50, "note_on_time": 32.868, "note_off_time": 33.564}, {"pitch": 79, "velocity": 52, "note_on_time": 33.476, "note_off_time": 33.649}, {"pitch": 79, "velocity": 43, "note_on_time": 34.046, "note_off_time": 34.86}, {"pitch": 76, "velocity": 45, "note_on_time": 34.62, "note_off_time": 34.888}, {"pitch": 74, "velocity": 41, "note_on_time": 35.259, "note_off_time": 35.923}, {"pitch": 72, "velocity": 55, "note_on_time": 36.612, "note_off_time": 36.91}, {"pitch": 74, "velocity": 44, "note_on_time": 36.982, "note_off_time": 37.204}, {"pitch": 72, "velocity": 49, "note_on_time": 37.591, "note_off_time": 37.924}, {"pitch": 74, "velocity": 54, "note_on_time": 37.926, "note_off_time": 38.149}, {"pitch": 76, "velocity": 62, "note_on_time": 38.489, "note_off_time": 38.696}, {"pitch": 79, "velocity": 22, "note_on_time": 38.996, "note_off_time": 39.688}, {"pitch": 79, "velocity": 49, "note_on_time": 40.176, "note_off_time": 40.886}, {"pitch": 76, "velocity": 56, "note_on_time": 41.416, "note_off_time": 41.742}, {"pitch": 79, "velocity": 49, "note_on_time": 41.741, "note_off_time": 42.037}, {"pitch": 76, "velocity": 49, "note_on_time": 42.265, "note_off_time": 42.63}, {"pitch": 79, "velocity": 50, "note_on_time": 42.599, "note_off_time": 43.048}, {"pitch": 77, "velocity": 59, "note_on_time": 43.197, "note_off_time": 43.428}, {"pitch": 79, "velocity": 54, "note_on_time": 43.797, "note_off_time": 44.518}, {"pitch": 72, "velocity": 57, "note_on_time": 45.014, "note_off_time": 45.746}, {"pitch": 79, "velocity": 55, "note_on_time": 46.286, "note_off_time": 46.969}, {"pitch": 72, "velocity": 51, "note_on_time": 47.466, "note_off_time": 48.09}, {"pitch": 79, "velocity": 64, "note_on_time": 48.729, "note_off_time": 48.975}, {"pitch": 72, "velocity": 51, "note_on_time": 49.274, "note_off_time": 49.577}, {"pitch": 74, "velocity": 58, "note_on_time": 49.897, "note_off_time": 50.64}, {"pitch": 76, "velocity": 46, "note_on_time": 50.544, "note_off_time": 50.788}, {"pitch": 76, "velocity": 58, "note_on_time": 51.158, "note_off_time": 51.41}, {"pitch": 74, "velocity": 46, "note_on_time": 51.514, "note_off_time": 51.76}, {"pitch": 76, "velocity": 55, "note_on_time": 52.071, "note_off_time": 52.252}, {"pitch": 74, "velocity": 46, "note_on_time": 52.371, "note_off_time": 52.693}, {"pitch": 72, "velocity": 38, "note_on_time": 53.005, "note_off_time": 53.246}, {"pitch": 72, "velocity": 52, "note_on_time": 53.641, "note_off_time": 54.334}, {"pitch": 79, "velocity": 53, "note_on_time": 54.763, "note_off_time": 55.491}, {"pitch": 74, "velocity": 49, "note_on_time": 55.957, "note_off_time": 56.194}, {"pitch": 76, "velocity": 56, "note_on_time": 56.319, "note_off_time": 56.525}, {"pitch": 74, "velocity": 45, "note_on_time": 56.79, "note_off_time": 57.079}, {"pitch": 76, "velocity": 50, "note_on_time": 57.121, "note_off_time": 57.304}, {"pitch": 79, "velocity": 58, "note_on_time": 57.669, "note_off_time": 57.987}, {"pitch": 76, "velocity": 60, "note_on_time": 58.254, "note_off_time": 58.921}, {"pitch": 79, "velocity": 52, "note_on_time": 59.353, "note_off_time": 60.015}, {"pitch": 77, "velocity": 60, "note_on_time": 60.411, "note_off_time": 60.624}, {"pitch": 79, "velocity": 45, "note_on_time": 60.721, "note_off_time": 61.0}, {"pitch": 77, "velocity": 49, "note_on_time": 61.243, "note_off_time": 61.508}, {"pitch": 79, "velocity": 46, "note_on_time": 61.554, "note_off_time": 61.898}, {"pitch": 79, "velocity": 43, "note_on_time": 62.113, "note_off_time": 62.405}, {"pitch": 76, "velocity": 41, "note_on_time": 62.661, "note_off_time": 63.277}, {"pitch": 74, "velocity": 43, "note_on_time": 63.877, "note_off_time": 64.494}, {"pitch": 72, "velocity": 46, "note_on_time": 65.104, "note_off_time": 65.328}, {"pitch": 74, "velocity": 55, "note_on_time": 65.477, "note_off_time": 65.689}, {"pitch": 72, "velocity": 49, "note_on_time": 65.958, "note_off_time": 66.225}, {"pitch": 74, "velocity": 46, "note_on_time": 66.293, "note_off_time": 66.547}, {"pitch": 72, "velocity": 40, "note_on_time": 66.868, "note_off_time": 67.103}, {"pitch": 76, "velocity": 36, "note_on_time": 67.51, "note_off_time": 68.239}, {"pitch": 77, "velocity": 27, "note_on_time": 68.83, "note_off_time": 69.445}, {"pitch": 79, "velocity": 53, "note_on_time": 70.027, "note_off_time": 70.693}, {"pitch": 76, "velocity": 56, "note_on_time": 71.242, "note_off_time": 71.852}, {"pitch": 79, "velocity": 49, "note_on_time": 72.458, "note_off_time": 72.72}, {"pitch": 76, "velocity": 41, "note_on_time": 72.767, "note_off_time": 73.096}, {"pitch": 79, "velocity": 60, "note_on_time": 73.299, "note_off_time": 73.598}, {"pitch": 76, "velocity": 40, "note_on_time": 73.643, "note_off_time": 73.885}, {"pitch": 74, "velocity": 41, "note_on_time": 74.226, "note_off_time": 74.424}, {"pitch": 72, "velocity": 49, "note_on_time": 74.815, "note_off_time": 75.607}, {"pitch": 74, "velocity": 64, "note_on_time": 75.481, "note_off_time": 75.805}, {"pitch": 72, "velocity": 40, "note_on_time": 76.101, "note_off_time": 76.703}, {"pitch": 79, "velocity": 64, "note_on_time": 77.282, "note_off_time": 77.994}, {"pitch": 77, "velocity": 59, "note_on_time": 78.507, "note_off_time": 79.187}, {"pitch": 79, "velocity": 51, "note_on_time": 79.767, "note_off_time": 80.189}, {"pitch": 79, "velocity": 42, "note_on_time": 80.368, "note_off_time": 80.633}, {"pitch": 79, "velocity": 53, "note_on_time": 80.912, "note_off_time": 81.567}, {"pitch": 77, "velocity": 51, "note_on_time": 81.501, "note_off_time": 81.728}, {"pitch": 76, "velocity": 64, "note_on_time": 82.083, "note_off_time": 82.761}, {"pitch": 72, "velocity": 49, "note_on_time": 83.337, "note_off_time": 83.938}, {"pitch": 74, "velocity": 55, "note_on_time": 83.966, "note_off_time": 84.25}, {"pitch": 72, "velocity": 40, "note_on_time": 84.54, "note_off_time": 85.107}, {"pitch": 72, "velocity": 58, "note_on_time": 87.046, "note_off_time": 87.327}, {"pitch": 74, "velocity": 61, "note_on_time": 87.373, "note_off_time": 87.59}, {"pitch": 72, "velocity": 45, "note_on_time": 87.9, "note_off_time": 88.143}, {"pitch": 74, "velocity": 38, "note_on_time": 88.243, "note_off_time": 88.43}, {"pitch": 76, "velocity": 50, "note_on_time": 88.855, "note_off_time": 88.999}, {"pitch": 79, "velocity": 57, "note_on_time": 89.391, "note_off_time": 90.084}, {"pitch": 76, "velocity": 56, "note_on_time": 89.961, "note_off_time": 90.185}, {"pitch": 79, "velocity": 56, "note_on_time": 90.53, "note_off_time": 91.251}, {"pitch": 77, "velocity": 50, "note_on_time": 91.833, "note_off_time": 92.129}, {"pitch": 79, "velocity": 31, "note_on_time": 92.221, "note_off_time": 92.514}, {"pitch": 77, "velocity": 58, "note_on_time": 92.751, "note_off_time": 92.992}, {"pitch": 76, "velocity": 1, "note_on_time": 93.369, "note_off_time": 93.702}, {"pitch": 72, "velocity": 42, "note_on_time": 94.232, "note_off_time": 94.685}, {"pitch": 77, "velocity": 27, "note_on_time": 96.893, "note_off_time": 97.182}, {"pitch": 72, "velocity": 71, "note_on_time": 101.016, "note_off_time": 101.65}, {"pitch": 74, "velocity": 73, "note_on_time": 102.224, "note_off_time": 102.797}, {"pitch": 72, "velocity": 54, "note_on_time": 103.423, "note_off_time": 103.71}, {"pitch": 74, "velocity": 52, "note_on_time": 103.8, "note_off_time": 104.053}, {"pitch": 72, "velocity": 53, "note_on_time": 104.328, "note_off_time": 104.65}, {"pitch": 74, "velocity": 49, "note_on_time": 104.696, "note_off_time": 104.909}, {"pitch": 76, "velocity": 53, "note_on_time": 105.297, "note_off_time": 105.484}, {"pitch": 79, "velocity": 62, "note_on_time": 105.852, "note_off_time": 106.556}, {"pitch": 76, "velocity": 48, "note_on_time": 107.094, "note_off_time": 107.691}, {"pitch": 79, "velocity": 54, "note_on_time": 108.335, "note_off_time": 108.677}, {"pitch": 77, "velocity": 54, "note_on_time": 108.686, "note_off_time": 108.909}, {"pitch": 79, "velocity": 56, "note_on_time": 109.159, "note_off_time": 109.401}, {"pitch": 77, "velocity": 55, "note_on_time": 109.552, "note_off_time": 109.809}, {"pitch": 74, "velocity": 42, "note_on_time": 110.169, "note_off_time": 110.39}, {"pitch": 72, "velocity": 54, "note_on_time": 110.769, "note_off_time": 111.467}, {"pitch": 76, "velocity": 67, "note_on_time": 111.96, "note_off_time": 112.642}, {"pitch": 72, "velocity": 51, "note_on_time": 113.151, "note_off_time": 113.415}, {"pitch": 74, "velocity": 61, "note_on_time": 113.517, "note_off_time": 113.748}, {"pitch": 72, "velocity": 55, "note_on_time": 114.021, "note_off_time": 114.257}, {"pitch": 74, "velocity": 57, "note_on_time": 114.358, "note_off_time": 114.617}, {"pitch": 72, "velocity": 49, "note_on_time": 114.909, "note_off_time": 115.13}, {"pitch": 79, "velocity": 57, "note_on_time": 115.516, "note_off_time": 116.357}, {"pitch": 79, "velocity": 58, "note_on_time": 116.79, "note_off_time": 117.502}, {"pitch": 79, "velocity": 54, "note_on_time": 117.984, "note_off_time": 118.269}, {"pitch": 76, "velocity": 58, "note_on_time": 118.334, "note_off_time": 118.551}, {"pitch": 79, "velocity": 61, "note_on_time": 118.808, "note_off_time": 119.168}, {"pitch": 76, "velocity": 49, "note_on_time": 119.133, "note_off_time": 119.303}, {"pitch": 76, "velocity": 57, "note_on_time": 119.695, "note_off_time": 119.916}, {"pitch": 74, "velocity": 45, "note_on_time": 120.285, "note_off_time": 120.96}, {"pitch": 72, "velocity": 46, "note_on_time": 121.694, "note_off_time": 122.281}, {"pitch": 72, "velocity": 50, "note_on_time": 122.938, "note_off_time": 123.21}, {"pitch": 76, "velocity": 62, "note_on_time": 123.252, "note_off_time": 123.508}, {"pitch": 72, "velocity": 49, "note_on_time": 123.789, "note_off_time": 124.101}, {"pitch": 76, "velocity": 52, "note_on_time": 124.131, "note_off_time": 124.395}, {"pitch": 79, "velocity": 49, "note_on_time": 124.774, "note_off_time": 124.98}, {"pitch": 79, "velocity": 44, "note_on_time": 125.355, "note_off_time": 126.065}, {"pitch": 77, "velocity": 65, "note_on_time": 125.935, "note_off_time": 126.206}, {"pitch": 79, "velocity": 39, "note_on_time": 126.543, "note_off_time": 127.257}, {"pitch": 76, "velocity": 55, "note_on_time": 127.146, "note_off_time": 127.295}, {"pitch": 72, "velocity": 48, "note_on_time": 127.784, "note_off_time": 128.01}, {"pitch": 74, "velocity": 59, "note_on_time": 128.107, "note_off_time": 128.311}, {"pitch": 76, "velocity": 59, "note_on_time": 128.64, "note_off_time": 128.753}, {"pitch": 74, "velocity": 56, "note_on_time": 128.935, "note_off_time": 129.671}, {"pitch": 76, "velocity": 51, "note_on_time": 129.546, "note_off_time": 129.821}, {"pitch": 77, "velocity": 38, "note_on_time": 130.186, "note_off_time": 130.896}, {"pitch": 79, "velocity": 36, "note_on_time": 130.813, "note_off_time": 131.185}, {"pitch": 77, "velocity": 62, "note_on_time": 131.44, "note_off_time": 132.071}, {"pitch": 76, "velocity": 49, "note_on_time": 132.06, "note_off_time": 132.275}, {"pitch": 72, "velocity": 56, "note_on_time": 133.015, "note_off_time": 133.296}, {"pitch": 74, "velocity": 51, "note_on_time": 132.601, "note_off_time": 133.311}, {"pitch": 74, "velocity": 53, "note_on_time": 133.565, "note_off_time": 134.027}, {"pitch": 72, "velocity": 58, "note_on_time": 133.872, "note_off_time": 134.099}, {"pitch": 72, "velocity": 59, "note_on_time": 134.447, "note_off_time": 134.753}, {"pitch": 74, "velocity": 57, "note_on_time": 135.064, "note_off_time": 135.767}, {"pitch": 76, "velocity": 61, "note_on_time": 135.652, "note_off_time": 136.094}, {"pitch": 77, "velocity": 55, "note_on_time": 136.268, "note_off_time": 136.88}, {"pitch": 79, "velocity": 58, "note_on_time": 137.52, "note_off_time": 138.031}, {"pitch": 76, "velocity": 39, "note_on_time": 137.815, "note_off_time": 138.046}, {"pitch": 79, "velocity": 57, "note_on_time": 138.342, "note_off_time": 138.825}, {"pitch": 76, "velocity": 39, "note_on_time": 138.682, "note_off_time": 138.876}, {"pitch": 79, "velocity": 53, "note_on_time": 139.18, "note_off_time": 139.604}, {"pitch": 72, "velocity": 58, "note_on_time": 139.843, "note_off_time": 140.517}, {"pitch": 77, "velocity": 46, "note_on_time": 141.213, "note_off_time": 141.824}, {"pitch": 79, "velocity": 56, "note_on_time": 142.397, "note_off_time": 142.916}, {"pitch": 72, "velocity": 47, "note_on_time": 142.826, "note_off_time": 143.087}, {"pitch": 72, "velocity": 48, "note_on_time": 143.396, "note_off_time": 143.941}, {"pitch": 79, "velocity": 39, "note_on_time": 143.726, "note_off_time": 144.07}, {"pitch": 79, "velocity": 61, "note_on_time": 144.328, "note_off_time": 144.582}, {"pitch": 72, "velocity": 51, "note_on_time": 144.87, "note_off_time": 145.538}, {"pitch": 74, "velocity": 61, "note_on_time": 146.52, "note_off_time": 146.74}, {"pitch": 72, "velocity": 45, "note_on_time": 146.005, "note_off_time": 146.793}, {"pitch": 76, "velocity": 57, "note_on_time": 147.153, "note_off_time": 147.785}, {"pitch": 74, "velocity": 59, "note_on_time": 147.724, "note_off_time": 147.9}, {"pitch": 77, "velocity": 38, "note_on_time": 148.303, "note_off_time": 148.925}, {"pitch": 76, "velocity": 31, "note_on_time": 148.837, "note_off_time": 149.11}, {"pitch": 79, "velocity": 47, "note_on_time": 149.429, "note_off_time": 150.034}, {"pitch": 72, "velocity": 55, "note_on_time": 155.763, "note_off_time": 156.471}, {"pitch": 74, "velocity": 61, "note_on_time": 156.969, "note_off_time": 157.646}, {"pitch": 72, "velocity": 51, "note_on_time": 158.175, "note_off_time": 158.498}, {"pitch": 74, "velocity": 46, "note_on_time": 158.54, "note_off_time": 158.812}, {"pitch": 72, "velocity": 55, "note_on_time": 159.047, "note_off_time": 159.272}, {"pitch": 74, "velocity": 65, "note_on_time": 159.425, "note_off_time": 159.629}, {"pitch": 74, "velocity": 64, "note_on_time": 160.023, "note_off_time": 160.264}, {"pitch": 76, "velocity": 30, "note_on_time": 160.737, "note_off_time": 160.912}, {"pitch": 76, "velocity": 43, "note_on_time": 161.381, "note_off_time": 161.58}, {"pitch": 72, "velocity": 74, "note_on_time": 175.231, "note_off_time": 175.821}, {"pitch": 74, "velocity": 72, "note_on_time": 176.357, "note_off_time": 177.014}, {"pitch": 72, "velocity": 68, "note_on_time": 177.576, "note_off_time": 177.938}, {"pitch": 74, "velocity": 73, "note_on_time": 177.921, "note_off_time": 178.11}, {"pitch": 72, "velocity": 65, "note_on_time": 178.399, "note_off_time": 178.602}, {"pitch": 74, "velocity": 53, "note_on_time": 178.801, "note_off_time": 178.99}, {"pitch": 76, "velocity": 52, "note_on_time": 179.403, "note_off_time": 179.562}, {"pitch": 77, "velocity": 59, "note_on_time": 180.037, "note_off_time": 180.773}, {"pitch": 79, "velocity": 65, "note_on_time": 184.983, "note_off_time": 185.644}, {"pitch": 79, "velocity": 55, "note_on_time": 190.966, "note_off_time": 191.668}, {"pitch": 77, "velocity": 63, "note_on_time": 192.197, "note_off_time": 192.895}, {"pitch": 79, "velocity": 71, "note_on_time": 193.413, "note_off_time": 193.783}, {"pitch": 77, "velocity": 58, "note_on_time": 193.811, "note_off_time": 194.026}, {"pitch": 79, "velocity": 71, "note_on_time": 194.304, "note_off_time": 194.512}]</notes><guidance name="Guidance Mode">None</guidance><error name="Error value">99</error></trial></trials></MIDI>