<MIDI midiNo="2023_06_19-10_36_33"><target_notes><notes name="Note List">[{"pitch": 60, "velocity": 40, "note_on_time": 0.01, "note_off_time": 1.025}, {"pitch": 64, "velocity": 40, "note_on_time": 0.01, "note_off_time": 1.026}, {"pitch": 67, "velocity": 40, "note_on_time": 0.01, "note_off_time": 1.027}, {"pitch": 48, "velocity": 40, "note_on_time": 0.01, "note_off_time": 1.027}, {"pitch": 52, "velocity": 40, "note_on_time": 1.027, "note_off_time": 2.035}, {"pitch": 55, "velocity": 40, "note_on_time": 1.027, "note_off_time": 2.035}, {"pitch": 77, "velocity": 40, "note_on_time": 2.034, "note_off_time": 3.041}, {"pitch": 48, "velocity": 40, "note_on_time": 2.035, "note_off_time": 3.041}, {"pitch": 52, "velocity": 40, "note_on_time": 3.041, "note_off_time": 4.057}, {"pitch": 55, "velocity": 40, "note_on_time": 3.041, "note_off_time": 4.057}, {"pitch": 48, "velocity": 40, "note_on_time": 4.057, "note_off_time": 5.062}, {"pitch": 52, "velocity": 40, "note_on_time": 5.062, "note_off_time": 6.073}, {"pitch": 55, "velocity": 40, "note_on_time": 5.062, "note_off_time": 6.073}, {"pitch": 48, "velocity": 40, "note_on_time": 6.073, "note_off_time": 7.089}, {"pitch": 52, "velocity": 40, "note_on_time": 7.089, "note_off_time": 8.1}, {"pitch": 55, "velocity": 40, "note_on_time": 7.089, "note_off_time": 8.1}, {"pitch": 60, "velocity": 40, "note_on_time": 8.097, "note_off_time": 9.111}, {"pitch": 64, "velocity": 40, "note_on_time": 8.098, "note_off_time": 9.112}, {"pitch": 67, "velocity": 40, "note_on_time": 8.098, "note_off_time": 9.113}, {"pitch": 48, "velocity": 40, "note_on_time": 8.1, "note_off_time": 9.113}, {"pitch": 52, "velocity": 40, "note_on_time": 9.113, "note_off_time": 10.126}, {"pitch": 55, "velocity": 40, "note_on_time": 9.113, "note_off_time": 10.126}, {"pitch": 74, "velocity": 40, "note_on_time": 10.126, "note_off_time": 11.134}, {"pitch": 48, "velocity": 40, "note_on_time": 10.126, "note_off_time": 11.134}, {"pitch": 52, "velocity": 40, "note_on_time": 11.135, "note_off_time": 12.146}, {"pitch": 55, "velocity": 40, "note_on_time": 11.135, "note_off_time": 12.146}, {"pitch": 48, "velocity": 40, "note_on_time": 12.146, "note_off_time": 13.157}, {"pitch": 52, "velocity": 40, "note_on_time": 13.157, "note_off_time": 14.17}, {"pitch": 55, "velocity": 40, "note_on_time": 13.157, "note_off_time": 14.17}, {"pitch": 48, "velocity": 40, "note_on_time": 14.17, "note_off_time": 15.182}, {"pitch": 52, "velocity": 40, "note_on_time": 15.182, "note_off_time": 16.2}, {"pitch": 55, "velocity": 40, "note_on_time": 15.182, "note_off_time": 16.2}, {"pitch": 60, "velocity": 40, "note_on_time": 16.199, "note_off_time": 17.208}, {"pitch": 64, "velocity": 40, "note_on_time": 16.2, "note_off_time": 17.209}, {"pitch": 67, "velocity": 40, "note_on_time": 16.2, "note_off_time": 17.209}, {"pitch": 48, "velocity": 40, "note_on_time": 16.2, "note_off_time": 17.21}, {"pitch": 52, "velocity": 40, "note_on_time": 17.21, "note_off_time": 18.217}, {"pitch": 55, "velocity": 40, "note_on_time": 17.21, "note_off_time": 18.217}, {"pitch": 79, "velocity": 40, "note_on_time": 18.217, "note_off_time": 19.225}, {"pitch": 48, "velocity": 40, "note_on_time": 18.217, "note_off_time": 19.225}, {"pitch": 52, "velocity": 40, "note_on_time": 19.225, "note_off_time": 20.236}, {"pitch": 55, "velocity": 40, "note_on_time": 19.225, "note_off_time": 20.236}, {"pitch": 48, "velocity": 40, "note_on_time": 20.236, "note_off_time": 21.244}, {"pitch": 52, "velocity": 40, "note_on_time": 21.244, "note_off_time": 22.258}, {"pitch": 55, "velocity": 40, "note_on_time": 21.244, "note_off_time": 22.258}, {"pitch": 48, "velocity": 40, "note_on_time": 22.258, "note_off_time": 23.27}, {"pitch": 52, "velocity": 40, "note_on_time": 23.27, "note_off_time": 24.279}, {"pitch": 55, "velocity": 40, "note_on_time": 23.27, "note_off_time": 24.279}, {"pitch": 60, "velocity": 40, "note_on_time": 24.278, "note_off_time": 25.293}, {"pitch": 64, "velocity": 40, "note_on_time": 24.279, "note_off_time": 25.295}, {"pitch": 67, "velocity": 40, "note_on_time": 24.279, "note_off_time": 25.295}, {"pitch": 48, "velocity": 40, "note_on_time": 24.279, "note_off_time": 25.295}, {"pitch": 52, "velocity": 40, "note_on_time": 25.296, "note_off_time": 26.297}, {"pitch": 55, "velocity": 40, "note_on_time": 25.296, "note_off_time": 26.298}, {"pitch": 77, "velocity": 40, "note_on_time": 26.297, "note_off_time": 27.308}, {"pitch": 48, "velocity": 40, "note_on_time": 26.298, "note_off_time": 27.308}, {"pitch": 52, "velocity": 40, "note_on_time": 27.308, "note_off_time": 28.317}, {"pitch": 55, "velocity": 40, "note_on_time": 27.308, "note_off_time": 28.317}, {"pitch": 48, "velocity": 40, "note_on_time": 28.317, "note_off_time": 29.319}, {"pitch": 52, "velocity": 40, "note_on_time": 29.319, "note_off_time": 30.33}, {"pitch": 55, "velocity": 40, "note_on_time": 29.319, "note_off_time": 30.33}, {"pitch": 48, "velocity": 40, "note_on_time": 30.33, "note_off_time": 31.331}, {"pitch": 52, "velocity": 40, "note_on_time": 31.331, "note_off_time": 32.34}, {"pitch": 55, "velocity": 40, "note_on_time": 31.331, "note_off_time": 32.34}, {"pitch": 60, "velocity": 40, "note_on_time": 32.338, "note_off_time": 33.356}, {"pitch": 64, "velocity": 40, "note_on_time": 32.339, "note_off_time": 33.357}, {"pitch": 67, "velocity": 40, "note_on_time": 32.339, "note_off_time": 33.357}, {"pitch": 48, "velocity": 40, "note_on_time": 32.34, "note_off_time": 33.357}, {"pitch": 52, "velocity": 40, "note_on_time": 33.357, "note_off_time": 34.37}, {"pitch": 55, "velocity": 40, "note_on_time": 33.357, "note_off_time": 34.37}, {"pitch": 79, "velocity": 40, "note_on_time": 34.369, "note_off_time": 35.382}, {"pitch": 48, "velocity": 40, "note_on_time": 34.37, "note_off_time": 35.382}, {"pitch": 52, "velocity": 40, "note_on_time": 35.382, "note_off_time": 36.392}, {"pitch": 55, "velocity": 40, "note_on_time": 35.382, "note_off_time": 36.392}, {"pitch": 48, "velocity": 40, "note_on_time": 36.392, "note_off_time": 37.403}, {"pitch": 52, "velocity": 40, "note_on_time": 37.403, "note_off_time": 38.407}, {"pitch": 55, "velocity": 40, "note_on_time": 37.403, "note_off_time": 38.407}, {"pitch": 48, "velocity": 40, "note_on_time": 38.407, "note_off_time": 39.418}, {"pitch": 52, "velocity": 40, "note_on_time": 39.418, "note_off_time": 40.428}, {"pitch": 55, "velocity": 40, "note_on_time": 39.418, "note_off_time": 40.428}, {"pitch": 60, "velocity": 40, "note_on_time": 40.428, "note_off_time": 41.441}, {"pitch": 64, "velocity": 40, "note_on_time": 40.428, "note_off_time": 41.442}, {"pitch": 67, "velocity": 40, "note_on_time": 40.428, "note_off_time": 41.443}, {"pitch": 77, "velocity": 40, "note_on_time": 42.455, "note_off_time": 43.467}, {"pitch": 60, "velocity": 40, "note_on_time": 48.469, "note_off_time": 49.485}, {"pitch": 64, "velocity": 40, "note_on_time": 48.47, "note_off_time": 49.486}, {"pitch": 67, "velocity": 40, "note_on_time": 48.47, "note_off_time": 49.487}, {"pitch": 74, "velocity": 40, "note_on_time": 50.49, "note_off_time": 51.505}, {"pitch": 60, "velocity": 40, "note_on_time": 56.517, "note_off_time": 57.519}, {"pitch": 64, "velocity": 40, "note_on_time": 56.518, "note_off_time": 57.52}, {"pitch": 67, "velocity": 40, "note_on_time": 56.519, "note_off_time": 57.52}, {"pitch": 72, "velocity": 40, "note_on_time": 58.534, "note_off_time": 59.542}, {"pitch": 60, "velocity": 40, "note_on_time": 64.55, "note_off_time": 65.555}, {"pitch": 64, "velocity": 40, "note_on_time": 64.551, "note_off_time": 65.556}, {"pitch": 67, "velocity": 40, "note_on_time": 64.551, "note_off_time": 65.556}, {"pitch": 76, "velocity": 40, "note_on_time": 66.565, "note_off_time": 67.567}, {"pitch": 60, "velocity": 40, "note_on_time": 72.578, "note_off_time": 73.593}, {"pitch": 64, "velocity": 40, "note_on_time": 72.579, "note_off_time": 73.594}, {"pitch": 67, "velocity": 40, "note_on_time": 72.58, "note_off_time": 73.594}, {"pitch": 79, "velocity": 40, "note_on_time": 74.604, "note_off_time": 75.617}, {"pitch": 60, "velocity": 40, "note_on_time": 80.622, "note_off_time": 81.632}, {"pitch": 64, "velocity": 40, "note_on_time": 80.623, "note_off_time": 81.633}, {"pitch": 67, "velocity": 40, "note_on_time": 80.624, "note_off_time": 81.634}, {"pitch": 76, "velocity": 40, "note_on_time": 82.645, "note_off_time": 83.66}, {"pitch": 60, "velocity": 40, "note_on_time": 88.675, "note_off_time": 89.682}, {"pitch": 64, "velocity": 40, "note_on_time": 88.676, "note_off_time": 89.683}, {"pitch": 67, "velocity": 40, "note_on_time": 88.676, "note_off_time": 89.684}, {"pitch": 74, "velocity": 40, "note_on_time": 90.698, "note_off_time": 91.706}, {"pitch": 60, "velocity": 40, "note_on_time": 96.722, "note_off_time": 97.737}, {"pitch": 64, "velocity": 40, "note_on_time": 96.722, "note_off_time": 97.739}, {"pitch": 67, "velocity": 40, "note_on_time": 96.722, "note_off_time": 97.74}, {"pitch": 76, "velocity": 40, "note_on_time": 98.741, "note_off_time": 99.746}, {"pitch": 60, "velocity": 40, "note_on_time": 104.749, "note_off_time": 105.751}, {"pitch": 64, "velocity": 40, "note_on_time": 104.75, "note_off_time": 105.752}, {"pitch": 67, "velocity": 40, "note_on_time": 104.75, "note_off_time": 105.753}, {"pitch": 72, "velocity": 40, "note_on_time": 106.761, "note_off_time": 107.773}, {"pitch": 60, "velocity": 40, "note_on_time": 112.78, "note_off_time": 113.789}, {"pitch": 64, "velocity": 40, "note_on_time": 112.78, "note_off_time": 113.789}, {"pitch": 67, "velocity": 40, "note_on_time": 112.781, "note_off_time": 113.789}, {"pitch": 76, "velocity": 40, "note_on_time": 114.805, "note_off_time": 115.818}, {"pitch": 60, "velocity": 40, "note_on_time": 120.824, "note_off_time": 121.839}, {"pitch": 64, "velocity": 40, "note_on_time": 120.825, "note_off_time": 121.84}, {"pitch": 67, "velocity": 40, "note_on_time": 120.825, "note_off_time": 121.84}, {"pitch": 72, "velocity": 40, "note_on_time": 122.849, "note_off_time": 123.862}, {"pitch": 60, "velocity": 40, "note_on_time": 128.87, "note_off_time": 129.886}, {"pitch": 64, "velocity": 40, "note_on_time": 128.871, "note_off_time": 129.887}, {"pitch": 67, "velocity": 40, "note_on_time": 128.871, "note_off_time": 129.887}, {"pitch": 74, "velocity": 40, "note_on_time": 130.903, "note_off_time": 131.913}, {"pitch": 60, "velocity": 40, "note_on_time": 136.922, "note_off_time": 137.926}, {"pitch": 64, "velocity": 40, "note_on_time": 136.923, "note_off_time": 137.927}, {"pitch": 67, "velocity": 40, "note_on_time": 136.923, "note_off_time": 137.927}, {"pitch": 79, "velocity": 40, "note_on_time": 138.931, "note_off_time": 139.934}, {"pitch": 60, "velocity": 40, "note_on_time": 144.938, "note_off_time": 145.943}, {"pitch": 64, "velocity": 40, "note_on_time": 144.938, "note_off_time": 145.944}, {"pitch": 67, "velocity": 40, "note_on_time": 144.939, "note_off_time": 145.944}, {"pitch": 77, "velocity": 40, "note_on_time": 146.954, "note_off_time": 147.969}, {"pitch": 60, "velocity": 40, "note_on_time": 152.98, "note_off_time": 153.996}, {"pitch": 64, "velocity": 40, "note_on_time": 152.98, "note_off_time": 153.997}, {"pitch": 67, "velocity": 40, "note_on_time": 152.981, "note_off_time": 153.997}, {"pitch": 72, "velocity": 40, "note_on_time": 155.004, "note_off_time": 156.017}, {"pitch": 60, "velocity": 40, "note_on_time": 161.028, "note_off_time": 162.042}, {"pitch": 64, "velocity": 40, "note_on_time": 161.029, "note_off_time": 162.043}, {"pitch": 67, "velocity": 40, "note_on_time": 161.029, "note_off_time": 162.043}, {"pitch": 77, "velocity": 40, "note_on_time": 163.062, "note_off_time": 164.075}]</notes><options name="Option List">((4, 4), [0.5, 0.25], 3, 8, &lt;NoteRangePerHand.TWO_NOTES: 3&gt;, &lt;NoteRangePerHand.ONE_NOTE: 2&gt;, False, True, True, 100)</options></target_notes><trials><trial trial_no="1" timestamp="2023_06_19-10_33_49"><notes name="Played Notes">[{"pitch": 76, "velocity": 71, "note_on_time": 3.816, "note_off_time": 4.016}, {"pitch": 72, "velocity": 16, "note_on_time": 3.907, "note_off_time": 4.031}, {"pitch": 79, "velocity": 33, "note_on_time": 5.126, "note_off_time": 5.313}, {"pitch": 79, "velocity": 53, "note_on_time": 8.398, "note_off_time": 8.586}, {"pitch": 77, "velocity": 50, "note_on_time": 8.411, "note_off_time": 8.591}, {"pitch": 76, "velocity": 1, "note_on_time": 8.29, "note_off_time": 8.642}, {"pitch": 72, "velocity": 10, "note_on_time": 8.228, "note_off_time": 8.709}, {"pitch": 79, "velocity": 48, "note_on_time": 11.265, "note_off_time": 11.417}, {"pitch": 76, "velocity": 73, "note_on_time": 13.314, "note_off_time": 13.485}, {"pitch": 72, "velocity": 45, "note_on_time": 13.293, "note_off_time": 13.53}, {"pitch": 79, "velocity": 42, "note_on_time": 14.394, "note_off_time": 14.563}, {"pitch": 79, "velocity": 58, "note_on_time": 19.838, "note_off_time": 20.092}, {"pitch": 76, "velocity": 1, "note_on_time": 19.755, "note_off_time": 20.23}, {"pitch": 79, "velocity": 43, "note_on_time": 20.812, "note_off_time": 20.915}, {"pitch": 76, "velocity": 83, "note_on_time": 20.743, "note_off_time": 20.994}, {"pitch": 72, "velocity": 68, "note_on_time": 20.757, "note_off_time": 21.034}, {"pitch": 77, "velocity": 31, "note_on_time": 22.776, "note_off_time": 23.093}, {"pitch": 74, "velocity": 49, "note_on_time": 22.753, "note_off_time": 23.155}, {"pitch": 79, "velocity": 43, "note_on_time": 23.91, "note_off_time": 24.108}, {"pitch": 74, "velocity": 59, "note_on_time": 26.363, "note_off_time": 26.62}, {"pitch": 77, "velocity": 36, "note_on_time": 26.392, "note_off_time": 26.63}, {"pitch": 79, "velocity": 46, "note_on_time": 27.066, "note_off_time": 27.301}, {"pitch": 76, "velocity": 45, "note_on_time": 34.046, "note_off_time": 34.399}, {"pitch": 74, "velocity": 55, "note_on_time": 34.008, "note_off_time": 34.409}, {"pitch": 79, "velocity": 1, "note_on_time": 34.127, "note_off_time": 34.424}, {"pitch": 72, "velocity": 46, "note_on_time": 34.01, "note_off_time": 34.434}, {"pitch": 76, "velocity": 52, "note_on_time": 36.531, "note_off_time": 36.751}, {"pitch": 79, "velocity": 34, "note_on_time": 36.501, "note_off_time": 36.792}, {"pitch": 77, "velocity": 66, "note_on_time": 36.504, "note_off_time": 36.83}, {"pitch": 76, "velocity": 61, "note_on_time": 38.359, "note_off_time": 38.591}, {"pitch": 72, "velocity": 62, "note_on_time": 39.154, "note_off_time": 39.334}, {"pitch": 74, "velocity": 70, "note_on_time": 42.38, "note_off_time": 42.56}, {"pitch": 72, "velocity": 38, "note_on_time": 42.328, "note_off_time": 42.632}, {"pitch": 79, "velocity": 52, "note_on_time": 52.142, "note_off_time": 52.358}, {"pitch": 77, "velocity": 36, "note_on_time": 60.34, "note_off_time": 60.534}, {"pitch": 76, "velocity": 38, "note_on_time": 68.165, "note_off_time": 68.33}, {"pitch": 76, "velocity": 48, "note_on_time": 77.124, "note_off_time": 77.35}, {"pitch": 74, "velocity": 13, "note_on_time": 80.459, "note_off_time": 80.661}, {"pitch": 74, "velocity": 43, "note_on_time": 84.04, "note_off_time": 84.252}, {"pitch": 72, "velocity": 18, "note_on_time": 86.128, "note_off_time": 86.384}, {"pitch": 74, "velocity": 28, "note_on_time": 88.335, "note_off_time": 88.503}, {"pitch": 74, "velocity": 36, "note_on_time": 92.79, "note_off_time": 93.053}, {"pitch": 74, "velocity": 31, "note_on_time": 95.445, "note_off_time": 95.622}, {"pitch": 74, "velocity": 44, "note_on_time": 100.367, "note_off_time": 100.704}, {"pitch": 72, "velocity": 13, "note_on_time": 103.001, "note_off_time": 103.278}, {"pitch": 72, "velocity": 27, "note_on_time": 108.278, "note_off_time": 108.71}, {"pitch": 72, "velocity": 38, "note_on_time": 116.38, "note_off_time": 116.808}, {"pitch": 76, "velocity": 55, "note_on_time": 120.814, "note_off_time": 120.977}, {"pitch": 76, "velocity": 60, "note_on_time": 124.368, "note_off_time": 124.747}, {"pitch": 74, "velocity": 49, "note_on_time": 125.419, "note_off_time": 125.878}, {"pitch": 74, "velocity": 38, "note_on_time": 132.573, "note_off_time": 133.158}, {"pitch": 76, "velocity": 56, "note_on_time": 140.447, "note_off_time": 141.136}, {"pitch": 77, "velocity": 35, "note_on_time": 142.878, "note_off_time": 143.128}, {"pitch": 76, "velocity": 34, "note_on_time": 144.683, "note_off_time": 144.863}, {"pitch": 77, "velocity": 22, "note_on_time": 149.138, "note_off_time": 149.59}, {"pitch": 77, "velocity": 46, "note_on_time": 156.828, "note_off_time": 157.39}, {"pitch": 79, "velocity": 44, "note_on_time": 158.092, "note_off_time": 158.709}, {"pitch": 76, "velocity": 65, "note_on_time": 159.667, "note_off_time": 160.189}]</notes><guidance name="Guidance Mode">None</guidance><error name="Error value">99</error></trial><trial trial_no="2" timestamp="2023_06_19-10_38_33"><notes name="Played Notes">[{"pitch": 72, "velocity": 34, "note_on_time": 5.554, "note_off_time": 5.713}, {"pitch": 74, "velocity": 31, "note_on_time": 6.147, "note_off_time": 6.298}, {"pitch": 76, "velocity": 35, "note_on_time": 6.647, "note_off_time": 6.812}, {"pitch": 77, "velocity": 36, "note_on_time": 7.176, "note_off_time": 7.368}, {"pitch": 79, "velocity": 35, "note_on_time": 7.702, "note_off_time": 7.938}, {"pitch": 72, "velocity": 23, "note_on_time": 8.341, "note_off_time": 8.513}, {"pitch": 74, "velocity": 42, "note_on_time": 8.847, "note_off_time": 9.025}, {"pitch": 76, "velocity": 42, "note_on_time": 9.325, "note_off_time": 9.489}, {"pitch": 77, "velocity": 38, "note_on_time": 9.858, "note_off_time": 10.047}, {"pitch": 79, "velocity": 42, "note_on_time": 10.374, "note_off_time": 10.62}, {"pitch": 72, "velocity": 28, "note_on_time": 11.034, "note_off_time": 11.21}, {"pitch": 74, "velocity": 41, "note_on_time": 11.485, "note_off_time": 11.65}, {"pitch": 76, "velocity": 49, "note_on_time": 11.968, "note_off_time": 12.148}, {"pitch": 77, "velocity": 38, "note_on_time": 12.487, "note_off_time": 12.687}, {"pitch": 79, "velocity": 44, "note_on_time": 12.988, "note_off_time": 13.197}, {"pitch": 72, "velocity": 19, "note_on_time": 13.591, "note_off_time": 13.76}, {"pitch": 74, "velocity": 31, "note_on_time": 14.138, "note_off_time": 14.289}, {"pitch": 76, "velocity": 46, "note_on_time": 14.641, "note_off_time": 14.795}, {"pitch": 77, "velocity": 34, "note_on_time": 15.132, "note_off_time": 15.305}, {"pitch": 79, "velocity": 19, "note_on_time": 15.701, "note_off_time": 15.943}, {"pitch": 79, "velocity": 37, "note_on_time": 16.274, "note_off_time": 16.485}, {"pitch": 77, "velocity": 38, "note_on_time": 16.81, "note_off_time": 16.995}, {"pitch": 76, "velocity": 46, "note_on_time": 17.306, "note_off_time": 17.447}, {"pitch": 74, "velocity": 39, "note_on_time": 17.823, "note_off_time": 17.968}, {"pitch": 72, "velocity": 20, "note_on_time": 18.343, "note_off_time": 18.55}, {"pitch": 79, "velocity": 26, "note_on_time": 18.901, "note_off_time": 19.124}, {"pitch": 77, "velocity": 30, "note_on_time": 19.411, "note_off_time": 19.582}, {"pitch": 76, "velocity": 14, "note_on_time": 19.996, "note_off_time": 20.155}, {"pitch": 74, "velocity": 30, "note_on_time": 20.489, "note_off_time": 20.613}, {"pitch": 72, "velocity": 31, "note_on_time": 20.994, "note_off_time": 21.166}, {"pitch": 79, "velocity": 34, "note_on_time": 21.531, "note_off_time": 21.721}, {"pitch": 77, "velocity": 40, "note_on_time": 22.047, "note_off_time": 22.21}, {"pitch": 76, "velocity": 32, "note_on_time": 22.549, "note_off_time": 22.703}, {"pitch": 74, "velocity": 32, "note_on_time": 23.091, "note_off_time": 23.238}, {"pitch": 72, "velocity": 27, "note_on_time": 23.614, "note_off_time": 23.787}, {"pitch": 79, "velocity": 32, "note_on_time": 24.166, "note_off_time": 24.377}, {"pitch": 77, "velocity": 42, "note_on_time": 24.633, "note_off_time": 24.784}, {"pitch": 76, "velocity": 46, "note_on_time": 25.148, "note_off_time": 25.285}, {"pitch": 74, "velocity": 35, "note_on_time": 25.743, "note_off_time": 25.904}, {"pitch": 72, "velocity": 41, "note_on_time": 26.381, "note_off_time": 26.535}, {"pitch": 74, "velocity": 42, "note_on_time": 27.333, "note_off_time": 27.472}, {"pitch": 76, "velocity": 49, "note_on_time": 27.826, "note_off_time": 27.971}, {"pitch": 77, "velocity": 19, "note_on_time": 28.418, "note_off_time": 28.603}, {"pitch": 79, "velocity": 34, "note_on_time": 28.97, "note_off_time": 29.175}, {"pitch": 72, "velocity": 25, "note_on_time": 29.601, "note_off_time": 29.735}, {"pitch": 74, "velocity": 52, "note_on_time": 30.193, "note_off_time": 30.349}, {"pitch": 76, "velocity": 56, "note_on_time": 30.728, "note_off_time": 30.884}, {"pitch": 77, "velocity": 39, "note_on_time": 31.211, "note_off_time": 31.399}, {"pitch": 79, "velocity": 31, "note_on_time": 31.753, "note_off_time": 31.945}, {"pitch": 72, "velocity": 36, "note_on_time": 32.367, "note_off_time": 32.518}, {"pitch": 74, "velocity": 39, "note_on_time": 32.998, "note_off_time": 33.124}, {"pitch": 76, "velocity": 42, "note_on_time": 33.453, "note_off_time": 33.596}, {"pitch": 77, "velocity": 37, "note_on_time": 33.938, "note_off_time": 34.132}, {"pitch": 79, "velocity": 23, "note_on_time": 34.519, "note_off_time": 34.712}, {"pitch": 72, "velocity": 24, "note_on_time": 35.175, "note_off_time": 35.341}, {"pitch": 74, "velocity": 39, "note_on_time": 35.788, "note_off_time": 35.92}, {"pitch": 76, "velocity": 53, "note_on_time": 36.311, "note_off_time": 36.464}, {"pitch": 77, "velocity": 38, "note_on_time": 36.843, "note_off_time": 37.017}, {"pitch": 79, "velocity": 13, "note_on_time": 37.343, "note_off_time": 37.575}, {"pitch": 72, "velocity": 27, "note_on_time": 37.947, "note_off_time": 38.096}, {"pitch": 74, "velocity": 42, "note_on_time": 38.436, "note_off_time": 38.591}, {"pitch": 76, "velocity": 34, "note_on_time": 38.931, "note_off_time": 39.065}, {"pitch": 77, "velocity": 36, "note_on_time": 39.429, "note_off_time": 39.637}, {"pitch": 79, "velocity": 23, "note_on_time": 39.965, "note_off_time": 40.137}, {"pitch": 72, "velocity": 19, "note_on_time": 40.565, "note_off_time": 40.728}, {"pitch": 77, "velocity": 40, "note_on_time": 41.486, "note_off_time": 41.691}, {"pitch": 76, "velocity": 55, "note_on_time": 42.012, "note_off_time": 42.166}, {"pitch": 74, "velocity": 42, "note_on_time": 42.725, "note_off_time": 42.867}, {"pitch": 72, "velocity": 9, "note_on_time": 43.279, "note_off_time": 43.441}, {"pitch": 79, "velocity": 31, "note_on_time": 43.851, "note_off_time": 44.041}, {"pitch": 77, "velocity": 39, "note_on_time": 44.559, "note_off_time": 44.724}, {"pitch": 76, "velocity": 36, "note_on_time": 45.034, "note_off_time": 45.154}, {"pitch": 74, "velocity": 36, "note_on_time": 45.646, "note_off_time": 45.783}, {"pitch": 72, "velocity": 16, "note_on_time": 46.177, "note_off_time": 46.343}, {"pitch": 79, "velocity": 38, "note_on_time": 46.688, "note_off_time": 46.906}, {"pitch": 77, "velocity": 30, "note_on_time": 47.39, "note_off_time": 47.564}, {"pitch": 76, "velocity": 39, "note_on_time": 47.957, "note_off_time": 48.097}, {"pitch": 74, "velocity": 37, "note_on_time": 48.457, "note_off_time": 48.613}, {"pitch": 72, "velocity": 13, "note_on_time": 48.986, "note_off_time": 49.166}, {"pitch": 79, "velocity": 24, "note_on_time": 49.509, "note_off_time": 49.716}, {"pitch": 76, "velocity": 28, "note_on_time": 50.234, "note_off_time": 50.393}, {"pitch": 76, "velocity": 37, "note_on_time": 53.172, "note_off_time": 53.241}, {"pitch": 76, "velocity": 57, "note_on_time": 53.852, "note_off_time": 54.025}, {"pitch": 74, "velocity": 49, "note_on_time": 54.336, "note_off_time": 54.468}, {"pitch": 72, "velocity": 20, "note_on_time": 54.827, "note_off_time": 54.994}, {"pitch": 79, "velocity": 32, "note_on_time": 55.386, "note_off_time": 55.593}, {"pitch": 76, "velocity": 55, "note_on_time": 57.658, "note_off_time": 57.817}, {"pitch": 77, "velocity": 35, "note_on_time": 58.129, "note_off_time": 58.314}, {"pitch": 79, "velocity": 43, "note_on_time": 58.567, "note_off_time": 58.779}, {"pitch": 74, "velocity": 38, "note_on_time": 59.145, "note_off_time": 59.305}, {"pitch": 72, "velocity": 36, "note_on_time": 59.601, "note_off_time": 59.784}, {"pitch": 76, "velocity": 47, "note_on_time": 60.508, "note_off_time": 60.65}, {"pitch": 77, "velocity": 36, "note_on_time": 60.987, "note_off_time": 61.189}, {"pitch": 79, "velocity": 42, "note_on_time": 61.456, "note_off_time": 61.642}, {"pitch": 74, "velocity": 39, "note_on_time": 61.916, "note_off_time": 62.06}, {"pitch": 72, "velocity": 28, "note_on_time": 62.405, "note_off_time": 62.578}, {"pitch": 76, "velocity": 47, "note_on_time": 63.046, "note_off_time": 63.192}, {"pitch": 77, "velocity": 35, "note_on_time": 63.563, "note_off_time": 63.746}, {"pitch": 79, "velocity": 33, "note_on_time": 64.02, "note_off_time": 64.22}, {"pitch": 74, "velocity": 44, "note_on_time": 64.57, "note_off_time": 64.693}, {"pitch": 72, "velocity": 27, "note_on_time": 65.097, "note_off_time": 65.262}, {"pitch": 76, "velocity": 54, "note_on_time": 65.958, "note_off_time": 66.114}, {"pitch": 77, "velocity": 38, "note_on_time": 66.421, "note_off_time": 66.596}, {"pitch": 79, "velocity": 30, "note_on_time": 66.906, "note_off_time": 67.06}, {"pitch": 74, "velocity": 37, "note_on_time": 67.553, "note_off_time": 67.645}, {"pitch": 72, "velocity": 25, "note_on_time": 68.147, "note_off_time": 68.337}, {"pitch": 76, "velocity": 37, "note_on_time": 70.074, "note_off_time": 70.211}, {"pitch": 74, "velocity": 49, "note_on_time": 70.54, "note_off_time": 70.67}, {"pitch": 72, "velocity": 27, "note_on_time": 71.058, "note_off_time": 71.24}, {"pitch": 77, "velocity": 41, "note_on_time": 71.607, "note_off_time": 71.768}, {"pitch": 79, "velocity": 35, "note_on_time": 72.112, "note_off_time": 72.311}, {"pitch": 76, "velocity": 44, "note_on_time": 73.117, "note_off_time": 73.263}, {"pitch": 74, "velocity": 30, "note_on_time": 73.65, "note_off_time": 73.794}, {"pitch": 72, "velocity": 30, "note_on_time": 74.14, "note_off_time": 74.298}, {"pitch": 77, "velocity": 33, "note_on_time": 74.627, "note_off_time": 74.788}, {"pitch": 79, "velocity": 36, "note_on_time": 75.15, "note_off_time": 75.339}, {"pitch": 76, "velocity": 37, "note_on_time": 76.239, "note_off_time": 76.384}, {"pitch": 74, "velocity": 41, "note_on_time": 76.801, "note_off_time": 76.906}, {"pitch": 72, "velocity": 25, "note_on_time": 77.293, "note_off_time": 77.458}, {"pitch": 77, "velocity": 38, "note_on_time": 77.833, "note_off_time": 78.005}, {"pitch": 79, "velocity": 34, "note_on_time": 78.331, "note_off_time": 78.504}, {"pitch": 76, "velocity": 34, "note_on_time": 79.298, "note_off_time": 79.432}, {"pitch": 74, "velocity": 36, "note_on_time": 79.788, "note_off_time": 79.894}, {"pitch": 72, "velocity": 33, "note_on_time": 80.241, "note_off_time": 80.394}, {"pitch": 77, "velocity": 33, "note_on_time": 81.441, "note_off_time": 81.611}, {"pitch": 79, "velocity": 23, "note_on_time": 81.943, "note_off_time": 82.138}, {"pitch": 77, "velocity": 40, "note_on_time": 82.995, "note_off_time": 83.16}, {"pitch": 79, "velocity": 33, "note_on_time": 83.47, "note_off_time": 83.635}, {"pitch": 76, "velocity": 45, "note_on_time": 84.135, "note_off_time": 84.271}, {"pitch": 74, "velocity": 33, "note_on_time": 84.603, "note_off_time": 84.7}, {"pitch": 72, "velocity": 31, "note_on_time": 85.069, "note_off_time": 85.256}, {"pitch": 77, "velocity": 35, "note_on_time": 85.788, "note_off_time": 85.96}, {"pitch": 79, "velocity": 30, "note_on_time": 86.3, "note_off_time": 86.475}, {"pitch": 76, "velocity": 39, "note_on_time": 87.028, "note_off_time": 87.159}, {"pitch": 74, "velocity": 35, "note_on_time": 87.459, "note_off_time": 87.575}, {"pitch": 72, "velocity": 36, "note_on_time": 87.943, "note_off_time": 88.127}, {"pitch": 77, "velocity": 9, "note_on_time": 88.857, "note_off_time": 89.055}, {"pitch": 79, "velocity": 30, "note_on_time": 89.347, "note_off_time": 89.549}, {"pitch": 76, "velocity": 46, "note_on_time": 89.951, "note_off_time": 90.096}, {"pitch": 74, "velocity": 38, "note_on_time": 90.407, "note_off_time": 90.537}, {"pitch": 72, "velocity": 27, "note_on_time": 90.927, "note_off_time": 91.087}, {"pitch": 77, "velocity": 28, "note_on_time": 91.628, "note_off_time": 91.812}, {"pitch": 79, "velocity": 38, "note_on_time": 92.496, "note_off_time": 92.696}, {"pitch": 76, "velocity": 45, "note_on_time": 93.16, "note_off_time": 93.328}, {"pitch": 74, "velocity": 31, "note_on_time": 93.688, "note_off_time": 93.814}, {"pitch": 72, "velocity": 26, "note_on_time": 94.264, "note_off_time": 94.438}, {"pitch": 74, "velocity": 32, "note_on_time": 95.934, "note_off_time": 96.067}, {"pitch": 72, "velocity": 21, "note_on_time": 96.445, "note_off_time": 96.65}, {"pitch": 76, "velocity": 47, "note_on_time": 97.317, "note_off_time": 97.455}, {"pitch": 77, "velocity": 35, "note_on_time": 97.746, "note_off_time": 97.948}, {"pitch": 77, "velocity": 33, "note_on_time": 98.309, "note_off_time": 98.482}, {"pitch": 76, "velocity": 54, "note_on_time": 100.131, "note_off_time": 100.3}, {"pitch": 74, "velocity": 47, "note_on_time": 100.645, "note_off_time": 100.777}, {"pitch": 77, "velocity": 33, "note_on_time": 101.22, "note_off_time": 101.417}, {"pitch": 77, "velocity": 39, "note_on_time": 102.987, "note_off_time": 103.178}, {"pitch": 79, "velocity": 36, "note_on_time": 103.333, "note_off_time": 103.479}, {"pitch": 76, "velocity": 46, "note_on_time": 106.366, "note_off_time": 106.519}, {"pitch": 74, "velocity": 50, "note_on_time": 106.882, "note_off_time": 107.011}, {"pitch": 77, "velocity": 48, "note_on_time": 107.824, "note_off_time": 108.02}, {"pitch": 79, "velocity": 23, "note_on_time": 108.774, "note_off_time": 108.966}, {"pitch": 74, "velocity": 59, "note_on_time": 111.318, "note_off_time": 111.46}, {"pitch": 74, "velocity": 29, "note_on_time": 111.877, "note_off_time": 111.957}, {"pitch": 72, "velocity": 3, "note_on_time": 111.865, "note_off_time": 112.158}, {"pitch": 74, "velocity": 43, "note_on_time": 113.318, "note_off_time": 113.448}, {"pitch": 72, "velocity": 44, "note_on_time": 113.771, "note_off_time": 113.926}, {"pitch": 76, "velocity": 51, "note_on_time": 114.311, "note_off_time": 114.471}, {"pitch": 77, "velocity": 36, "note_on_time": 115.248, "note_off_time": 115.437}, {"pitch": 79, "velocity": 50, "note_on_time": 115.816, "note_off_time": 116.041}, {"pitch": 74, "velocity": 47, "note_on_time": 117.039, "note_off_time": 117.171}, {"pitch": 72, "velocity": 35, "note_on_time": 117.561, "note_off_time": 117.74}, {"pitch": 76, "velocity": 44, "note_on_time": 118.139, "note_off_time": 118.311}, {"pitch": 77, "velocity": 55, "note_on_time": 118.637, "note_off_time": 118.814}, {"pitch": 79, "velocity": 46, "note_on_time": 119.098, "note_off_time": 119.343}, {"pitch": 74, "velocity": 35, "note_on_time": 120.266, "note_off_time": 120.403}, {"pitch": 72, "velocity": 36, "note_on_time": 120.74, "note_off_time": 120.937}, {"pitch": 76, "velocity": 43, "note_on_time": 121.326, "note_off_time": 121.454}, {"pitch": 77, "velocity": 47, "note_on_time": 121.749, "note_off_time": 121.92}, {"pitch": 79, "velocity": 42, "note_on_time": 122.279, "note_off_time": 122.497}, {"pitch": 74, "velocity": 28, "note_on_time": 123.711, "note_off_time": 123.85}, {"pitch": 72, "velocity": 5, "note_on_time": 124.25, "note_off_time": 124.406}, {"pitch": 76, "velocity": 38, "note_on_time": 124.802, "note_off_time": 124.923}, {"pitch": 77, "velocity": 45, "note_on_time": 125.317, "note_off_time": 125.502}, {"pitch": 79, "velocity": 39, "note_on_time": 125.85, "note_off_time": 126.09}, {"pitch": 74, "velocity": 35, "note_on_time": 127.391, "note_off_time": 127.536}, {"pitch": 72, "velocity": 31, "note_on_time": 131.686, "note_off_time": 131.812}, {"pitch": 74, "velocity": 46, "note_on_time": 132.125, "note_off_time": 132.271}, {"pitch": 76, "velocity": 43, "note_on_time": 132.619, "note_off_time": 132.755}, {"pitch": 77, "velocity": 37, "note_on_time": 133.064, "note_off_time": 133.239}, {"pitch": 79, "velocity": 37, "note_on_time": 133.516, "note_off_time": 133.716}, {"pitch": 72, "velocity": 21, "note_on_time": 134.221, "note_off_time": 134.359}, {"pitch": 74, "velocity": 51, "note_on_time": 134.666, "note_off_time": 134.813}, {"pitch": 76, "velocity": 46, "note_on_time": 135.077, "note_off_time": 135.255}, {"pitch": 77, "velocity": 37, "note_on_time": 135.514, "note_off_time": 135.709}, {"pitch": 79, "velocity": 1, "note_on_time": 136.26, "note_off_time": 136.595}, {"pitch": 79, "velocity": 58, "note_on_time": 136.737, "note_off_time": 136.871}, {"pitch": 72, "velocity": 40, "note_on_time": 137.599, "note_off_time": 137.776}, {"pitch": 74, "velocity": 44, "note_on_time": 138.061, "note_off_time": 138.192}, {"pitch": 76, "velocity": 51, "note_on_time": 138.483, "note_off_time": 138.628}, {"pitch": 77, "velocity": 46, "note_on_time": 138.905, "note_off_time": 139.081}, {"pitch": 79, "velocity": 49, "note_on_time": 139.355, "note_off_time": 139.553}, {"pitch": 72, "velocity": 36, "note_on_time": 140.248, "note_off_time": 140.421}, {"pitch": 74, "velocity": 46, "note_on_time": 140.732, "note_off_time": 140.859}, {"pitch": 76, "velocity": 52, "note_on_time": 141.119, "note_off_time": 141.272}, {"pitch": 77, "velocity": 46, "note_on_time": 141.587, "note_off_time": 141.769}, {"pitch": 79, "velocity": 39, "note_on_time": 142.123, "note_off_time": 142.348}, {"pitch": 79, "velocity": 37, "note_on_time": 143.617, "note_off_time": 143.877}, {"pitch": 77, "velocity": 39, "note_on_time": 144.138, "note_off_time": 144.359}, {"pitch": 76, "velocity": 52, "note_on_time": 144.552, "note_off_time": 144.701}, {"pitch": 74, "velocity": 43, "note_on_time": 145.017, "note_off_time": 145.148}, {"pitch": 72, "velocity": 40, "note_on_time": 145.472, "note_off_time": 145.624}, {"pitch": 79, "velocity": 37, "note_on_time": 146.224, "note_off_time": 146.438}, {"pitch": 77, "velocity": 41, "note_on_time": 146.723, "note_off_time": 146.902}, {"pitch": 76, "velocity": 42, "note_on_time": 147.177, "note_off_time": 147.316}, {"pitch": 74, "velocity": 41, "note_on_time": 147.634, "note_off_time": 147.785}, {"pitch": 72, "velocity": 35, "note_on_time": 148.321, "note_off_time": 148.427}, {"pitch": 79, "velocity": 39, "note_on_time": 149.06, "note_off_time": 149.253}, {"pitch": 77, "velocity": 38, "note_on_time": 149.518, "note_off_time": 149.674}, {"pitch": 76, "velocity": 36, "note_on_time": 149.948, "note_off_time": 150.071}, {"pitch": 74, "velocity": 31, "note_on_time": 150.384, "note_off_time": 150.477}, {"pitch": 72, "velocity": 27, "note_on_time": 150.929, "note_off_time": 151.09}, {"pitch": 74, "velocity": 28, "note_on_time": 151.999, "note_off_time": 152.098}, {"pitch": 76, "velocity": 58, "note_on_time": 152.415, "note_off_time": 152.556}, {"pitch": 77, "velocity": 42, "note_on_time": 152.864, "note_off_time": 153.032}, {"pitch": 79, "velocity": 44, "note_on_time": 153.278, "note_off_time": 153.489}, {"pitch": 72, "velocity": 36, "note_on_time": 153.781, "note_off_time": 153.934}, {"pitch": 74, "velocity": 38, "note_on_time": 154.898, "note_off_time": 155.005}, {"pitch": 76, "velocity": 45, "note_on_time": 155.34, "note_off_time": 155.448}, {"pitch": 77, "velocity": 38, "note_on_time": 155.751, "note_off_time": 155.932}, {"pitch": 79, "velocity": 37, "note_on_time": 156.174, "note_off_time": 156.36}, {"pitch": 72, "velocity": 39, "note_on_time": 156.628, "note_off_time": 156.795}, {"pitch": 74, "velocity": 36, "note_on_time": 157.509, "note_off_time": 157.626}, {"pitch": 76, "velocity": 32, "note_on_time": 157.923, "note_off_time": 158.044}, {"pitch": 77, "velocity": 43, "note_on_time": 158.338, "note_off_time": 158.503}, {"pitch": 79, "velocity": 41, "note_on_time": 158.763, "note_off_time": 158.945}, {"pitch": 72, "velocity": 38, "note_on_time": 159.262, "note_off_time": 159.469}, {"pitch": 77, "velocity": 45, "note_on_time": 160.447, "note_off_time": 160.621}, {"pitch": 76, "velocity": 43, "note_on_time": 160.915, "note_off_time": 161.056}, {"pitch": 74, "velocity": 36, "note_on_time": 161.505, "note_off_time": 161.613}, {"pitch": 72, "velocity": 35, "note_on_time": 161.974, "note_off_time": 162.168}, {"pitch": 79, "velocity": 48, "note_on_time": 162.456, "note_off_time": 162.665}, {"pitch": 77, "velocity": 40, "note_on_time": 164.137, "note_off_time": 164.297}, {"pitch": 76, "velocity": 47, "note_on_time": 164.529, "note_off_time": 164.669}, {"pitch": 74, "velocity": 43, "note_on_time": 164.994, "note_off_time": 165.115}, {"pitch": 72, "velocity": 20, "note_on_time": 165.46, "note_off_time": 165.597}, {"pitch": 79, "velocity": 52, "note_on_time": 165.896, "note_off_time": 166.103}, {"pitch": 77, "velocity": 38, "note_on_time": 167.1, "note_off_time": 167.272}, {"pitch": 76, "velocity": 36, "note_on_time": 167.534, "note_off_time": 167.669}, {"pitch": 74, "velocity": 29, "note_on_time": 167.975, "note_off_time": 168.089}, {"pitch": 72, "velocity": 27, "note_on_time": 168.402, "note_off_time": 168.553}, {"pitch": 79, "velocity": 46, "note_on_time": 168.841, "note_off_time": 169.033}, {"pitch": 76, "velocity": 51, "note_on_time": 170.29, "note_off_time": 170.432}, {"pitch": 77, "velocity": 43, "note_on_time": 170.72, "note_off_time": 170.868}, {"pitch": 79, "velocity": 41, "note_on_time": 171.159, "note_off_time": 171.327}, {"pitch": 74, "velocity": 38, "note_on_time": 171.679, "note_off_time": 171.779}, {"pitch": 72, "velocity": 28, "note_on_time": 172.131, "note_off_time": 172.282}, {"pitch": 76, "velocity": 39, "note_on_time": 173.062, "note_off_time": 173.195}, {"pitch": 77, "velocity": 38, "note_on_time": 173.509, "note_off_time": 173.649}, {"pitch": 79, "velocity": 44, "note_on_time": 173.907, "note_off_time": 174.107}, {"pitch": 74, "velocity": 50, "note_on_time": 174.743, "note_off_time": 174.883}, {"pitch": 72, "velocity": 31, "note_on_time": 175.227, "note_off_time": 175.392}, {"pitch": 76, "velocity": 43, "note_on_time": 176.607, "note_off_time": 176.745}, {"pitch": 77, "velocity": 39, "note_on_time": 177.029, "note_off_time": 177.172}, {"pitch": 79, "velocity": 44, "note_on_time": 177.425, "note_off_time": 177.614}, {"pitch": 74, "velocity": 34, "note_on_time": 178.057, "note_off_time": 178.147}, {"pitch": 72, "velocity": 13, "note_on_time": 178.597, "note_off_time": 178.749}, {"pitch": 76, "velocity": 56, "note_on_time": 179.813, "note_off_time": 179.968}, {"pitch": 74, "velocity": 34, "note_on_time": 180.339, "note_off_time": 180.448}, {"pitch": 72, "velocity": 31, "note_on_time": 180.892, "note_off_time": 181.061}, {"pitch": 77, "velocity": 44, "note_on_time": 181.431, "note_off_time": 181.601}, {"pitch": 79, "velocity": 41, "note_on_time": 181.911, "note_off_time": 182.105}, {"pitch": 76, "velocity": 47, "note_on_time": 183.043, "note_off_time": 183.187}, {"pitch": 74, "velocity": 43, "note_on_time": 183.541, "note_off_time": 183.629}, {"pitch": 72, "velocity": 28, "note_on_time": 184.063, "note_off_time": 184.218}, {"pitch": 77, "velocity": 33, "note_on_time": 185.265, "note_off_time": 185.428}, {"pitch": 79, "velocity": 51, "note_on_time": 185.732, "note_off_time": 185.932}, {"pitch": 76, "velocity": 39, "note_on_time": 186.99, "note_off_time": 187.108}, {"pitch": 74, "velocity": 44, "note_on_time": 187.438, "note_off_time": 187.537}, {"pitch": 72, "velocity": 31, "note_on_time": 187.84, "note_off_time": 188.005}, {"pitch": 77, "velocity": 39, "note_on_time": 188.284, "note_off_time": 188.432}, {"pitch": 79, "velocity": 44, "note_on_time": 188.717, "note_off_time": 188.899}, {"pitch": 76, "velocity": 24, "note_on_time": 189.888, "note_off_time": 190.026}, {"pitch": 74, "velocity": 35, "note_on_time": 190.366, "note_off_time": 190.478}, {"pitch": 72, "velocity": 23, "note_on_time": 190.826, "note_off_time": 191.005}, {"pitch": 77, "velocity": 36, "note_on_time": 191.307, "note_off_time": 191.485}, {"pitch": 79, "velocity": 30, "note_on_time": 191.835, "note_off_time": 191.997}, {"pitch": 77, "velocity": 35, "note_on_time": 193.314, "note_off_time": 193.471}, {"pitch": 79, "velocity": 40, "note_on_time": 193.754, "note_off_time": 193.969}]</notes><guidance name="Guidance Mode">None</guidance><error name="Error value">99</error></trial><trial trial_no="3" timestamp="2023_06_19-10_43_25"><notes name="Played Notes">[{"pitch": 72, "velocity": 48, "note_on_time": 2.393, "note_off_time": 2.556}, {"pitch": 74, "velocity": 43, "note_on_time": 2.913, "note_off_time": 3.069}, {"pitch": 76, "velocity": 43, "note_on_time": 3.427, "note_off_time": 3.58}, {"pitch": 77, "velocity": 37, "note_on_time": 3.947, "note_off_time": 4.138}, {"pitch": 79, "velocity": 39, "note_on_time": 4.442, "note_off_time": 4.641}, {"pitch": 72, "velocity": 34, "note_on_time": 7.36, "note_off_time": 7.506}, {"pitch": 74, "velocity": 33, "note_on_time": 7.886, "note_off_time": 8.024}, {"pitch": 76, "velocity": 46, "note_on_time": 8.395, "note_off_time": 8.56}, {"pitch": 77, "velocity": 39, "note_on_time": 8.967, "note_off_time": 9.144}, {"pitch": 79, "velocity": 50, "note_on_time": 9.449, "note_off_time": 9.636}, {"pitch": 72, "velocity": 25, "note_on_time": 12.061, "note_off_time": 12.207}, {"pitch": 74, "velocity": 23, "note_on_time": 12.689, "note_off_time": 12.824}, {"pitch": 76, "velocity": 32, "note_on_time": 13.238, "note_off_time": 13.383}, {"pitch": 77, "velocity": 31, "note_on_time": 13.767, "note_off_time": 13.97}, {"pitch": 79, "velocity": 35, "note_on_time": 14.303, "note_off_time": 14.523}, {"pitch": 72, "velocity": 33, "note_on_time": 17.035, "note_off_time": 17.162}, {"pitch": 74, "velocity": 38, "note_on_time": 17.637, "note_off_time": 17.754}, {"pitch": 76, "velocity": 48, "note_on_time": 18.146, "note_off_time": 18.293}, {"pitch": 77, "velocity": 41, "note_on_time": 18.665, "note_off_time": 18.836}, {"pitch": 79, "velocity": 33, "note_on_time": 19.22, "note_off_time": 19.429}, {"pitch": 79, "velocity": 32, "note_on_time": 21.851, "note_off_time": 22.035}, {"pitch": 77, "velocity": 39, "note_on_time": 22.369, "note_off_time": 22.534}, {"pitch": 76, "velocity": 37, "note_on_time": 22.906, "note_off_time": 23.069}, {"pitch": 74, "velocity": 28, "note_on_time": 23.484, "note_off_time": 23.629}, {"pitch": 72, "velocity": 31, "note_on_time": 24.054, "note_off_time": 24.232}, {"pitch": 79, "velocity": 25, "note_on_time": 26.709, "note_off_time": 26.877}, {"pitch": 77, "velocity": 21, "note_on_time": 27.25, "note_off_time": 27.371}, {"pitch": 76, "velocity": 21, "note_on_time": 27.791, "note_off_time": 27.935}, {"pitch": 74, "velocity": 30, "note_on_time": 28.362, "note_off_time": 28.489}, {"pitch": 72, "velocity": 31, "note_on_time": 28.963, "note_off_time": 29.105}, {"pitch": 79, "velocity": 28, "note_on_time": 31.587, "note_off_time": 31.757}, {"pitch": 77, "velocity": 33, "note_on_time": 32.119, "note_off_time": 32.277}, {"pitch": 76, "velocity": 43, "note_on_time": 32.658, "note_off_time": 32.809}, {"pitch": 74, "velocity": 30, "note_on_time": 33.264, "note_off_time": 33.387}, {"pitch": 72, "velocity": 34, "note_on_time": 33.983, "note_off_time": 34.151}, {"pitch": 79, "velocity": 5, "note_on_time": 36.414, "note_off_time": 36.607}, {"pitch": 77, "velocity": 31, "note_on_time": 36.983, "note_off_time": 37.136}, {"pitch": 76, "velocity": 34, "note_on_time": 37.552, "note_off_time": 37.69}, {"pitch": 74, "velocity": 35, "note_on_time": 38.16, "note_off_time": 38.282}, {"pitch": 72, "velocity": 30, "note_on_time": 38.772, "note_off_time": 38.925}, {"pitch": 74, "velocity": 31, "note_on_time": 41.373, "note_off_time": 41.497}, {"pitch": 76, "velocity": 43, "note_on_time": 41.927, "note_off_time": 42.061}, {"pitch": 77, "velocity": 35, "note_on_time": 42.482, "note_off_time": 42.667}, {"pitch": 79, "velocity": 39, "note_on_time": 43.0, "note_off_time": 43.203}, {"pitch": 72, "velocity": 31, "note_on_time": 43.68, "note_off_time": 43.819}, {"pitch": 74, "velocity": 37, "note_on_time": 46.24, "note_off_time": 46.382}, {"pitch": 76, "velocity": 45, "note_on_time": 46.794, "note_off_time": 46.936}, {"pitch": 77, "velocity": 40, "note_on_time": 47.405, "note_off_time": 47.577}, {"pitch": 79, "velocity": 36, "note_on_time": 47.949, "note_off_time": 48.146}, {"pitch": 72, "velocity": 27, "note_on_time": 48.616, "note_off_time": 48.794}, {"pitch": 74, "velocity": 18, "note_on_time": 51.094, "note_off_time": 51.233}, {"pitch": 76, "velocity": 43, "note_on_time": 51.65, "note_off_time": 51.786}, {"pitch": 77, "velocity": 33, "note_on_time": 52.211, "note_off_time": 52.38}, {"pitch": 79, "velocity": 30, "note_on_time": 52.765, "note_off_time": 52.972}, {"pitch": 72, "velocity": 18, "note_on_time": 53.484, "note_off_time": 53.621}, {"pitch": 74, "velocity": 23, "note_on_time": 55.963, "note_off_time": 56.092}, {"pitch": 76, "velocity": 30, "note_on_time": 56.511, "note_off_time": 56.648}, {"pitch": 77, "velocity": 16, "note_on_time": 57.087, "note_off_time": 57.261}, {"pitch": 79, "velocity": 35, "note_on_time": 57.677, "note_off_time": 57.872}, {"pitch": 72, "velocity": 26, "note_on_time": 58.874, "note_off_time": 58.994}, {"pitch": 77, "velocity": 34, "note_on_time": 63.306, "note_off_time": 63.474}, {"pitch": 76, "velocity": 37, "note_on_time": 63.849, "note_off_time": 64.006}, {"pitch": 74, "velocity": 48, "note_on_time": 64.454, "note_off_time": 64.588}, {"pitch": 72, "velocity": 27, "note_on_time": 65.048, "note_off_time": 65.198}, {"pitch": 79, "velocity": 25, "note_on_time": 65.657, "note_off_time": 65.871}, {"pitch": 77, "velocity": 33, "note_on_time": 68.148, "note_off_time": 68.326}, {"pitch": 76, "velocity": 29, "note_on_time": 68.719, "note_off_time": 68.851}, {"pitch": 74, "velocity": 24, "note_on_time": 69.344, "note_off_time": 69.455}, {"pitch": 72, "velocity": 14, "note_on_time": 69.959, "note_off_time": 70.139}, {"pitch": 79, "velocity": 28, "note_on_time": 70.528, "note_off_time": 70.721}, {"pitch": 77, "velocity": 38, "note_on_time": 72.958, "note_off_time": 73.151}, {"pitch": 76, "velocity": 44, "note_on_time": 73.525, "note_off_time": 73.671}, {"pitch": 74, "velocity": 36, "note_on_time": 74.148, "note_off_time": 74.283}, {"pitch": 72, "velocity": 22, "note_on_time": 74.752, "note_off_time": 74.889}, {"pitch": 79, "velocity": 38, "note_on_time": 75.38, "note_off_time": 75.569}, {"pitch": 77, "velocity": 36, "note_on_time": 77.906, "note_off_time": 78.093}, {"pitch": 76, "velocity": 52, "note_on_time": 78.449, "note_off_time": 78.616}, {"pitch": 74, "velocity": 31, "note_on_time": 79.071, "note_off_time": 79.211}, {"pitch": 72, "velocity": 25, "note_on_time": 79.654, "note_off_time": 79.807}, {"pitch": 79, "velocity": 33, "note_on_time": 80.245, "note_off_time": 80.431}, {"pitch": 76, "velocity": 36, "note_on_time": 82.736, "note_off_time": 82.867}, {"pitch": 77, "velocity": 30, "note_on_time": 83.35, "note_off_time": 83.511}, {"pitch": 77, "velocity": 34, "note_on_time": 83.955, "note_off_time": 84.15}, {"pitch": 74, "velocity": 39, "note_on_time": 84.638, "note_off_time": 84.771}, {"pitch": 72, "velocity": 31, "note_on_time": 85.206, "note_off_time": 85.367}, {"pitch": 76, "velocity": 37, "note_on_time": 87.606, "note_off_time": 87.777}, {"pitch": 77, "velocity": 30, "note_on_time": 88.194, "note_off_time": 88.366}, {"pitch": 79, "velocity": 35, "note_on_time": 88.808, "note_off_time": 88.959}, {"pitch": 76, "velocity": 45, "note_on_time": 89.396, "note_off_time": 89.542}, {"pitch": 74, "velocity": 28, "note_on_time": 90.592, "note_off_time": 90.684}, {"pitch": 76, "velocity": 41, "note_on_time": 92.586, "note_off_time": 92.721}, {"pitch": 77, "velocity": 41, "note_on_time": 93.111, "note_off_time": 93.271}, {"pitch": 79, "velocity": 47, "note_on_time": 93.654, "note_off_time": 93.824}, {"pitch": 74, "velocity": 41, "note_on_time": 94.474, "note_off_time": 94.603}, {"pitch": 72, "velocity": 28, "note_on_time": 94.988, "note_off_time": 95.139}, {"pitch": 76, "velocity": 30, "note_on_time": 97.356, "note_off_time": 97.486}, {"pitch": 77, "velocity": 42, "note_on_time": 97.877, "note_off_time": 98.059}, {"pitch": 79, "velocity": 30, "note_on_time": 98.446, "note_off_time": 98.633}, {"pitch": 74, "velocity": 35, "note_on_time": 99.02, "note_off_time": 99.165}, {"pitch": 72, "velocity": 28, "note_on_time": 99.688, "note_off_time": 99.836}, {"pitch": 76, "velocity": 19, "note_on_time": 102.292, "note_off_time": 102.415}, {"pitch": 77, "velocity": 50, "note_on_time": 103.332, "note_off_time": 103.49}, {"pitch": 79, "velocity": 36, "note_on_time": 103.734, "note_off_time": 103.916}, {"pitch": 74, "velocity": 38, "note_on_time": 104.3, "note_off_time": 104.404}, {"pitch": 72, "velocity": 16, "note_on_time": 104.914, "note_off_time": 105.031}, {"pitch": 76, "velocity": 12, "note_on_time": 107.13, "note_off_time": 107.281}, {"pitch": 74, "velocity": 31, "note_on_time": 107.699, "note_off_time": 107.831}, {"pitch": 72, "velocity": 23, "note_on_time": 108.239, "note_off_time": 108.403}, {"pitch": 77, "velocity": 43, "note_on_time": 108.776, "note_off_time": 108.96}, {"pitch": 79, "velocity": 40, "note_on_time": 109.356, "note_off_time": 109.584}, {"pitch": 76, "velocity": 49, "note_on_time": 111.953, "note_off_time": 112.117}, {"pitch": 74, "velocity": 33, "note_on_time": 112.512, "note_off_time": 112.66}, {"pitch": 72, "velocity": 26, "note_on_time": 113.067, "note_off_time": 113.226}, {"pitch": 77, "velocity": 35, "note_on_time": 113.607, "note_off_time": 113.81}, {"pitch": 79, "velocity": 39, "note_on_time": 114.214, "note_off_time": 114.408}, {"pitch": 76, "velocity": 7, "note_on_time": 116.813, "note_off_time": 116.964}, {"pitch": 74, "velocity": 38, "note_on_time": 117.416, "note_off_time": 117.535}, {"pitch": 72, "velocity": 26, "note_on_time": 117.937, "note_off_time": 118.081}, {"pitch": 77, "velocity": 44, "note_on_time": 118.529, "note_off_time": 118.732}, {"pitch": 79, "velocity": 33, "note_on_time": 119.135, "note_off_time": 119.327}, {"pitch": 76, "velocity": 37, "note_on_time": 121.699, "note_off_time": 121.857}, {"pitch": 74, "velocity": 36, "note_on_time": 122.276, "note_off_time": 122.41}, {"pitch": 72, "velocity": 28, "note_on_time": 122.818, "note_off_time": 122.985}, {"pitch": 77, "velocity": 31, "note_on_time": 123.376, "note_off_time": 123.551}, {"pitch": 79, "velocity": 37, "note_on_time": 123.98, "note_off_time": 124.175}, {"pitch": 77, "velocity": 23, "note_on_time": 126.601, "note_off_time": 126.753}, {"pitch": 79, "velocity": 24, "note_on_time": 127.128, "note_off_time": 127.316}, {"pitch": 76, "velocity": 39, "note_on_time": 127.737, "note_off_time": 127.906}, {"pitch": 74, "velocity": 23, "note_on_time": 128.369, "note_off_time": 128.465}, {"pitch": 72, "velocity": 9, "note_on_time": 128.998, "note_off_time": 129.133}, {"pitch": 77, "velocity": 36, "note_on_time": 131.414, "note_off_time": 131.589}, {"pitch": 79, "velocity": 24, "note_on_time": 131.989, "note_off_time": 132.169}, {"pitch": 76, "velocity": 45, "note_on_time": 132.618, "note_off_time": 132.758}, {"pitch": 74, "velocity": 29, "note_on_time": 133.227, "note_off_time": 133.334}, {"pitch": 72, "velocity": 32, "note_on_time": 133.905, "note_off_time": 134.028}, {"pitch": 77, "velocity": 41, "note_on_time": 136.254, "note_off_time": 136.417}, {"pitch": 79, "velocity": 26, "note_on_time": 136.852, "note_off_time": 137.008}, {"pitch": 76, "velocity": 23, "note_on_time": 137.514, "note_off_time": 137.624}, {"pitch": 74, "velocity": 41, "note_on_time": 138.125, "note_off_time": 138.249}, {"pitch": 72, "velocity": 31, "note_on_time": 138.721, "note_off_time": 138.857}, {"pitch": 77, "velocity": 43, "note_on_time": 141.14, "note_off_time": 141.298}, {"pitch": 79, "velocity": 22, "note_on_time": 141.748, "note_off_time": 141.913}, {"pitch": 76, "velocity": 9, "note_on_time": 142.377, "note_off_time": 142.522}, {"pitch": 74, "velocity": 37, "note_on_time": 142.977, "note_off_time": 143.059}, {"pitch": 72, "velocity": 23, "note_on_time": 143.614, "note_off_time": 143.715}, {"pitch": 74, "velocity": 35, "note_on_time": 146.059, "note_off_time": 146.178}, {"pitch": 72, "velocity": 10, "note_on_time": 146.593, "note_off_time": 146.749}, {"pitch": 76, "velocity": 33, "note_on_time": 147.192, "note_off_time": 147.364}, {"pitch": 77, "velocity": 40, "note_on_time": 147.777, "note_off_time": 147.935}, {"pitch": 79, "velocity": 41, "note_on_time": 148.383, "note_off_time": 148.575}, {"pitch": 74, "velocity": 33, "note_on_time": 150.943, "note_off_time": 151.055}, {"pitch": 72, "velocity": 27, "note_on_time": 151.505, "note_off_time": 151.633}, {"pitch": 76, "velocity": 44, "note_on_time": 152.046, "note_off_time": 152.183}, {"pitch": 77, "velocity": 44, "note_on_time": 152.634, "note_off_time": 152.809}, {"pitch": 79, "velocity": 42, "note_on_time": 153.235, "note_off_time": 153.429}, {"pitch": 74, "velocity": 41, "note_on_time": 155.731, "note_off_time": 155.867}, {"pitch": 72, "velocity": 37, "note_on_time": 156.32, "note_off_time": 156.437}, {"pitch": 76, "velocity": 36, "note_on_time": 156.889, "note_off_time": 157.037}, {"pitch": 77, "velocity": 48, "note_on_time": 157.458, "note_off_time": 157.626}, {"pitch": 79, "velocity": 44, "note_on_time": 158.034, "note_off_time": 158.225}, {"pitch": 74, "velocity": 30, "note_on_time": 160.644, "note_off_time": 160.782}, {"pitch": 72, "velocity": 28, "note_on_time": 161.17, "note_off_time": 161.309}, {"pitch": 76, "velocity": 27, "note_on_time": 161.761, "note_off_time": 161.88}, {"pitch": 77, "velocity": 38, "note_on_time": 162.289, "note_off_time": 162.465}, {"pitch": 79, "velocity": 34, "note_on_time": 162.881, "note_off_time": 163.079}, {"pitch": 72, "velocity": 40, "note_on_time": 165.825, "note_off_time": 165.944}, {"pitch": 74, "velocity": 44, "note_on_time": 166.353, "note_off_time": 166.496}, {"pitch": 76, "velocity": 44, "note_on_time": 166.869, "note_off_time": 167.025}, {"pitch": 77, "velocity": 34, "note_on_time": 167.406, "note_off_time": 167.586}, {"pitch": 79, "velocity": 43, "note_on_time": 167.861, "note_off_time": 168.104}, {"pitch": 72, "velocity": 33, "note_on_time": 170.281, "note_off_time": 170.422}, {"pitch": 74, "velocity": 55, "note_on_time": 171.197, "note_off_time": 171.328}, {"pitch": 76, "velocity": 47, "note_on_time": 171.649, "note_off_time": 171.799}, {"pitch": 77, "velocity": 40, "note_on_time": 172.093, "note_off_time": 172.282}, {"pitch": 79, "velocity": 51, "note_on_time": 172.582, "note_off_time": 172.794}, {"pitch": 72, "velocity": 31, "note_on_time": 175.152, "note_off_time": 175.306}, {"pitch": 74, "velocity": 45, "note_on_time": 175.742, "note_off_time": 175.88}, {"pitch": 76, "velocity": 43, "note_on_time": 176.286, "note_off_time": 176.429}, {"pitch": 77, "velocity": 38, "note_on_time": 176.83, "note_off_time": 177.004}, {"pitch": 79, "velocity": 47, "note_on_time": 177.336, "note_off_time": 177.522}, {"pitch": 79, "velocity": 25, "note_on_time": 180.029, "note_off_time": 180.217}, {"pitch": 77, "velocity": 43, "note_on_time": 180.554, "note_off_time": 180.733}, {"pitch": 76, "velocity": 46, "note_on_time": 181.088, "note_off_time": 181.245}, {"pitch": 74, "velocity": 38, "note_on_time": 181.642, "note_off_time": 181.791}, {"pitch": 72, "velocity": 38, "note_on_time": 182.177, "note_off_time": 182.322}, {"pitch": 79, "velocity": 24, "note_on_time": 184.887, "note_off_time": 185.075}, {"pitch": 77, "velocity": 39, "note_on_time": 185.406, "note_off_time": 185.577}, {"pitch": 76, "velocity": 48, "note_on_time": 185.993, "note_off_time": 186.139}, {"pitch": 74, "velocity": 43, "note_on_time": 186.549, "note_off_time": 186.688}, {"pitch": 72, "velocity": 24, "note_on_time": 187.135, "note_off_time": 187.283}, {"pitch": 79, "velocity": 34, "note_on_time": 189.747, "note_off_time": 189.943}, {"pitch": 77, "velocity": 31, "note_on_time": 190.294, "note_off_time": 190.47}, {"pitch": 76, "velocity": 37, "note_on_time": 190.831, "note_off_time": 190.977}, {"pitch": 74, "velocity": 36, "note_on_time": 191.432, "note_off_time": 191.578}, {"pitch": 72, "velocity": 36, "note_on_time": 192.003, "note_off_time": 192.146}]</notes><guidance name="Guidance Mode">None</guidance><error name="Error value">99</error></trial></trials></MIDI>