<MIDI midiNo="2023_06_12-12_49_37"><target_notes><notes name="Note List">[{"pitch": 60, "velocity": 40, "note_on_time": 0.01, "note_off_time": 1.016}, {"pitch": 64, "velocity": 40, "note_on_time": 0.01, "note_off_time": 1.017}, {"pitch": 67, "velocity": 40, "note_on_time": 0.01, "note_off_time": 1.017}, {"pitch": 48, "velocity": 40, "note_on_time": 0.01, "note_off_time": 1.018}, {"pitch": 52, "velocity": 40, "note_on_time": 1.018, "note_off_time": 2.02}, {"pitch": 55, "velocity": 40, "note_on_time": 1.018, "note_off_time": 2.02}, {"pitch": 72, "velocity": 40, "note_on_time": 2.02, "note_off_time": 3.026}, {"pitch": 48, "velocity": 40, "note_on_time": 2.02, "note_off_time": 3.026}, {"pitch": 52, "velocity": 40, "note_on_time": 3.026, "note_off_time": 4.033}, {"pitch": 55, "velocity": 40, "note_on_time": 3.026, "note_off_time": 4.033}, {"pitch": 48, "velocity": 40, "note_on_time": 4.033, "note_off_time": 5.046}, {"pitch": 52, "velocity": 40, "note_on_time": 5.046, "note_off_time": 6.058}, {"pitch": 55, "velocity": 40, "note_on_time": 5.046, "note_off_time": 6.058}, {"pitch": 48, "velocity": 40, "note_on_time": 6.058, "note_off_time": 7.066}, {"pitch": 52, "velocity": 40, "note_on_time": 7.066, "note_off_time": 8.08}, {"pitch": 55, "velocity": 40, "note_on_time": 7.066, "note_off_time": 8.08}, {"pitch": 60, "velocity": 40, "note_on_time": 8.079, "note_off_time": 9.089}, {"pitch": 64, "velocity": 40, "note_on_time": 8.079, "note_off_time": 9.09}, {"pitch": 67, "velocity": 40, "note_on_time": 8.08, "note_off_time": 9.09}, {"pitch": 48, "velocity": 40, "note_on_time": 8.08, "note_off_time": 9.09}, {"pitch": 52, "velocity": 40, "note_on_time": 9.09, "note_off_time": 10.104}, {"pitch": 55, "velocity": 40, "note_on_time": 9.09, "note_off_time": 10.105}, {"pitch": 77, "velocity": 40, "note_on_time": 10.104, "note_off_time": 11.12}, {"pitch": 48, "velocity": 40, "note_on_time": 10.105, "note_off_time": 11.121}, {"pitch": 52, "velocity": 40, "note_on_time": 11.121, "note_off_time": 12.128}, {"pitch": 55, "velocity": 40, "note_on_time": 11.121, "note_off_time": 12.128}, {"pitch": 48, "velocity": 40, "note_on_time": 12.128, "note_off_time": 13.141}, {"pitch": 52, "velocity": 40, "note_on_time": 13.141, "note_off_time": 14.148}, {"pitch": 55, "velocity": 40, "note_on_time": 13.141, "note_off_time": 14.148}, {"pitch": 48, "velocity": 40, "note_on_time": 14.149, "note_off_time": 15.168}, {"pitch": 52, "velocity": 40, "note_on_time": 15.168, "note_off_time": 16.175}, {"pitch": 55, "velocity": 40, "note_on_time": 15.168, "note_off_time": 16.175}, {"pitch": 60, "velocity": 40, "note_on_time": 16.173, "note_off_time": 17.181}, {"pitch": 64, "velocity": 40, "note_on_time": 16.174, "note_off_time": 17.182}, {"pitch": 67, "velocity": 40, "note_on_time": 16.174, "note_off_time": 17.183}, {"pitch": 48, "velocity": 40, "note_on_time": 16.175, "note_off_time": 17.183}, {"pitch": 52, "velocity": 40, "note_on_time": 17.183, "note_off_time": 18.191}, {"pitch": 55, "velocity": 40, "note_on_time": 17.183, "note_off_time": 18.191}, {"pitch": 79, "velocity": 40, "note_on_time": 18.19, "note_off_time": 19.2}, {"pitch": 48, "velocity": 40, "note_on_time": 18.191, "note_off_time": 19.2}, {"pitch": 52, "velocity": 40, "note_on_time": 19.2, "note_off_time": 20.225}, {"pitch": 55, "velocity": 40, "note_on_time": 19.2, "note_off_time": 20.225}, {"pitch": 48, "velocity": 40, "note_on_time": 20.225, "note_off_time": 21.239}, {"pitch": 52, "velocity": 40, "note_on_time": 21.239, "note_off_time": 22.252}, {"pitch": 55, "velocity": 40, "note_on_time": 21.239, "note_off_time": 22.252}, {"pitch": 48, "velocity": 40, "note_on_time": 22.252, "note_off_time": 23.265}, {"pitch": 52, "velocity": 40, "note_on_time": 23.265, "note_off_time": 24.279}, {"pitch": 55, "velocity": 40, "note_on_time": 23.265, "note_off_time": 24.279}, {"pitch": 60, "velocity": 40, "note_on_time": 24.278, "note_off_time": 25.301}, {"pitch": 64, "velocity": 40, "note_on_time": 24.279, "note_off_time": 25.302}, {"pitch": 67, "velocity": 40, "note_on_time": 24.279, "note_off_time": 25.303}, {"pitch": 48, "velocity": 40, "note_on_time": 24.28, "note_off_time": 25.303}, {"pitch": 52, "velocity": 40, "note_on_time": 25.303, "note_off_time": 26.306}, {"pitch": 55, "velocity": 40, "note_on_time": 25.303, "note_off_time": 26.306}, {"pitch": 74, "velocity": 40, "note_on_time": 26.306, "note_off_time": 27.316}, {"pitch": 48, "velocity": 40, "note_on_time": 26.307, "note_off_time": 27.316}, {"pitch": 52, "velocity": 40, "note_on_time": 27.316, "note_off_time": 28.328}, {"pitch": 55, "velocity": 40, "note_on_time": 27.317, "note_off_time": 28.328}, {"pitch": 48, "velocity": 40, "note_on_time": 28.328, "note_off_time": 29.343}, {"pitch": 52, "velocity": 40, "note_on_time": 29.343, "note_off_time": 30.356}, {"pitch": 55, "velocity": 40, "note_on_time": 29.343, "note_off_time": 30.356}, {"pitch": 48, "velocity": 40, "note_on_time": 30.356, "note_off_time": 31.367}, {"pitch": 52, "velocity": 40, "note_on_time": 31.367, "note_off_time": 32.379}, {"pitch": 55, "velocity": 40, "note_on_time": 31.367, "note_off_time": 32.38}, {"pitch": 60, "velocity": 40, "note_on_time": 32.378, "note_off_time": 33.391}, {"pitch": 64, "velocity": 40, "note_on_time": 32.379, "note_off_time": 33.392}, {"pitch": 67, "velocity": 40, "note_on_time": 32.379, "note_off_time": 33.392}, {"pitch": 48, "velocity": 40, "note_on_time": 32.38, "note_off_time": 33.393}, {"pitch": 52, "velocity": 40, "note_on_time": 33.393, "note_off_time": 34.395}, {"pitch": 55, "velocity": 40, "note_on_time": 33.393, "note_off_time": 34.396}, {"pitch": 76, "velocity": 40, "note_on_time": 34.395, "note_off_time": 35.409}, {"pitch": 48, "velocity": 40, "note_on_time": 34.396, "note_off_time": 35.409}, {"pitch": 52, "velocity": 40, "note_on_time": 35.409, "note_off_time": 36.417}, {"pitch": 55, "velocity": 40, "note_on_time": 35.409, "note_off_time": 36.417}, {"pitch": 48, "velocity": 40, "note_on_time": 36.417, "note_off_time": 37.423}, {"pitch": 52, "velocity": 40, "note_on_time": 37.423, "note_off_time": 38.425}, {"pitch": 55, "velocity": 40, "note_on_time": 37.423, "note_off_time": 38.425}, {"pitch": 48, "velocity": 40, "note_on_time": 38.425, "note_off_time": 39.437}, {"pitch": 52, "velocity": 40, "note_on_time": 39.437, "note_off_time": 40.452}, {"pitch": 55, "velocity": 40, "note_on_time": 39.437, "note_off_time": 40.452}, {"pitch": 60, "velocity": 40, "note_on_time": 40.45, "note_off_time": 41.461}, {"pitch": 64, "velocity": 40, "note_on_time": 40.451, "note_off_time": 41.462}, {"pitch": 67, "velocity": 40, "note_on_time": 40.451, "note_off_time": 41.463}, {"pitch": 79, "velocity": 40, "note_on_time": 42.47, "note_off_time": 43.477}, {"pitch": 60, "velocity": 40, "note_on_time": 48.482, "note_off_time": 49.492}, {"pitch": 64, "velocity": 40, "note_on_time": 48.483, "note_off_time": 49.493}, {"pitch": 67, "velocity": 40, "note_on_time": 48.483, "note_off_time": 49.493}, {"pitch": 76, "velocity": 40, "note_on_time": 50.507, "note_off_time": 51.52}, {"pitch": 60, "velocity": 40, "note_on_time": 56.534, "note_off_time": 57.546}, {"pitch": 64, "velocity": 40, "note_on_time": 56.535, "note_off_time": 57.546}, {"pitch": 67, "velocity": 40, "note_on_time": 56.535, "note_off_time": 57.547}, {"pitch": 77, "velocity": 40, "note_on_time": 58.56, "note_off_time": 59.568}, {"pitch": 60, "velocity": 40, "note_on_time": 64.584, "note_off_time": 65.594}, {"pitch": 64, "velocity": 40, "note_on_time": 64.585, "note_off_time": 65.595}, {"pitch": 67, "velocity": 40, "note_on_time": 64.585, "note_off_time": 65.596}, {"pitch": 72, "velocity": 40, "note_on_time": 66.604, "note_off_time": 67.617}, {"pitch": 60, "velocity": 40, "note_on_time": 72.63, "note_off_time": 73.64}, {"pitch": 64, "velocity": 40, "note_on_time": 72.631, "note_off_time": 73.641}, {"pitch": 67, "velocity": 40, "note_on_time": 72.632, "note_off_time": 73.642}, {"pitch": 76, "velocity": 40, "note_on_time": 74.658, "note_off_time": 75.661}, {"pitch": 60, "velocity": 40, "note_on_time": 80.672, "note_off_time": 81.683}, {"pitch": 64, "velocity": 40, "note_on_time": 80.673, "note_off_time": 81.684}, {"pitch": 67, "velocity": 40, "note_on_time": 80.674, "note_off_time": 81.685}, {"pitch": 77, "velocity": 40, "note_on_time": 82.687, "note_off_time": 83.691}, {"pitch": 60, "velocity": 40, "note_on_time": 88.698, "note_off_time": 89.711}, {"pitch": 64, "velocity": 40, "note_on_time": 88.699, "note_off_time": 89.711}, {"pitch": 67, "velocity": 40, "note_on_time": 88.699, "note_off_time": 89.712}, {"pitch": 79, "velocity": 40, "note_on_time": 90.72, "note_off_time": 91.733}, {"pitch": 60, "velocity": 40, "note_on_time": 96.736, "note_off_time": 97.749}, {"pitch": 64, "velocity": 40, "note_on_time": 96.736, "note_off_time": 97.749}, {"pitch": 67, "velocity": 40, "note_on_time": 96.737, "note_off_time": 97.75}, {"pitch": 72, "velocity": 40, "note_on_time": 98.76, "note_off_time": 99.768}, {"pitch": 60, "velocity": 40, "note_on_time": 104.772, "note_off_time": 105.787}, {"pitch": 64, "velocity": 40, "note_on_time": 104.773, "note_off_time": 105.787}, {"pitch": 67, "velocity": 40, "note_on_time": 104.773, "note_off_time": 105.788}, {"pitch": 74, "velocity": 40, "note_on_time": 106.795, "note_off_time": 107.808}, {"pitch": 60, "velocity": 40, "note_on_time": 112.816, "note_off_time": 113.823}, {"pitch": 64, "velocity": 40, "note_on_time": 112.817, "note_off_time": 113.824}, {"pitch": 67, "velocity": 40, "note_on_time": 112.817, "note_off_time": 113.825}, {"pitch": 76, "velocity": 40, "note_on_time": 114.835, "note_off_time": 115.843}, {"pitch": 60, "velocity": 40, "note_on_time": 120.848, "note_off_time": 121.862}, {"pitch": 64, "velocity": 40, "note_on_time": 120.849, "note_off_time": 121.862}, {"pitch": 67, "velocity": 40, "note_on_time": 120.849, "note_off_time": 121.863}, {"pitch": 79, "velocity": 40, "note_on_time": 122.873, "note_off_time": 123.889}, {"pitch": 60, "velocity": 40, "note_on_time": 128.905, "note_off_time": 129.93}, {"pitch": 64, "velocity": 40, "note_on_time": 128.906, "note_off_time": 129.933}, {"pitch": 67, "velocity": 40, "note_on_time": 128.907, "note_off_time": 129.933}, {"pitch": 74, "velocity": 40, "note_on_time": 130.943, "note_off_time": 131.954}, {"pitch": 60, "velocity": 40, "note_on_time": 136.958, "note_off_time": 137.964}, {"pitch": 64, "velocity": 40, "note_on_time": 136.959, "note_off_time": 137.965}, {"pitch": 67, "velocity": 40, "note_on_time": 136.96, "note_off_time": 137.965}, {"pitch": 77, "velocity": 40, "note_on_time": 138.983, "note_off_time": 139.987}, {"pitch": 60, "velocity": 40, "note_on_time": 144.992, "note_off_time": 145.998}, {"pitch": 64, "velocity": 40, "note_on_time": 144.992, "note_off_time": 146.0}, {"pitch": 67, "velocity": 40, "note_on_time": 144.993, "note_off_time": 146.0}, {"pitch": 72, "velocity": 40, "note_on_time": 147.005, "note_off_time": 148.018}, {"pitch": 60, "velocity": 40, "note_on_time": 153.032, "note_off_time": 154.048}, {"pitch": 64, "velocity": 40, "note_on_time": 153.034, "note_off_time": 154.049}, {"pitch": 67, "velocity": 40, "note_on_time": 153.034, "note_off_time": 154.05}, {"pitch": 74, "velocity": 40, "note_on_time": 155.061, "note_off_time": 156.069}, {"pitch": 60, "velocity": 40, "note_on_time": 161.072, "note_off_time": 162.075}, {"pitch": 64, "velocity": 40, "note_on_time": 161.073, "note_off_time": 162.076}, {"pitch": 67, "velocity": 40, "note_on_time": 161.073, "note_off_time": 162.076}, {"pitch": 72, "velocity": 40, "note_on_time": 163.092, "note_off_time": 164.093}]</notes><options name="Option List">((4, 4), [0.5, 0.25], 3, 8, &lt;NoteRangePerHand.TWO_NOTES: 3&gt;, &lt;NoteRangePerHand.ONE_NOTE: 2&gt;, False, True, True, 100)</options></target_notes><trials><trial trial_no="1" timestamp="2023_06_12-12_46_53"><notes name="Played Notes">[{"pitch": 72, "velocity": 63, "note_on_time": 1.822, "note_off_time": 2.323}, {"pitch": 76, "velocity": 59, "note_on_time": 2.827, "note_off_time": 3.168}, {"pitch": 79, "velocity": 49, "note_on_time": 3.849, "note_off_time": 4.181}, {"pitch": 77, "velocity": 49, "note_on_time": 4.529, "note_off_time": 4.928}, {"pitch": 74, "velocity": 40, "note_on_time": 5.485, "note_off_time": 5.924}, {"pitch": 76, "velocity": 54, "note_on_time": 6.214, "note_off_time": 6.667}, {"pitch": 77, "velocity": 32, "note_on_time": 7.211, "note_off_time": 7.577}, {"pitch": 72, "velocity": 39, "note_on_time": 7.95, "note_off_time": 8.55}, {"pitch": 72, "velocity": 49, "note_on_time": 9.647, "note_off_time": 10.073}, {"pitch": 74, "velocity": 42, "note_on_time": 10.65, "note_off_time": 10.917}, {"pitch": 72, "velocity": 61, "note_on_time": 11.325, "note_off_time": 12.252}, {"pitch": 76, "velocity": 39, "note_on_time": 12.614, "note_off_time": 13.235}, {"pitch": 77, "velocity": 49, "note_on_time": 13.214, "note_off_time": 13.498}, {"pitch": 79, "velocity": 37, "note_on_time": 13.873, "note_off_time": 14.247}, {"pitch": 76, "velocity": 36, "note_on_time": 14.891, "note_off_time": 15.038}, {"pitch": 74, "velocity": 55, "note_on_time": 15.249, "note_off_time": 15.472}, {"pitch": 72, "velocity": 62, "note_on_time": 15.762, "note_off_time": 16.117}, {"pitch": 72, "velocity": 65, "note_on_time": 16.804, "note_off_time": 17.012}, {"pitch": 72, "velocity": 33, "note_on_time": 17.901, "note_off_time": 18.905}, {"pitch": 72, "velocity": 59, "note_on_time": 19.559, "note_off_time": 20.103}, {"pitch": 72, "velocity": 43, "note_on_time": 20.434, "note_off_time": 20.882}, {"pitch": 74, "velocity": 31, "note_on_time": 21.335, "note_off_time": 21.941}, {"pitch": 77, "velocity": 44, "note_on_time": 22.256, "note_off_time": 22.565}, {"pitch": 79, "velocity": 44, "note_on_time": 22.873, "note_off_time": 23.351}, {"pitch": 76, "velocity": 38, "note_on_time": 23.622, "note_off_time": 24.005}, {"pitch": 74, "velocity": 46, "note_on_time": 24.385, "note_off_time": 24.701}, {"pitch": 74, "velocity": 52, "note_on_time": 25.588, "note_off_time": 25.96}, {"pitch": 76, "velocity": 23, "note_on_time": 26.901, "note_off_time": 27.304}, {"pitch": 76, "velocity": 47, "note_on_time": 27.946, "note_off_time": 28.304}, {"pitch": 74, "velocity": 58, "note_on_time": 28.296, "note_off_time": 28.839}, {"pitch": 76, "velocity": 63, "note_on_time": 28.772, "note_off_time": 29.145}, {"pitch": 77, "velocity": 45, "note_on_time": 29.197, "note_off_time": 29.769}, {"pitch": 72, "velocity": 13, "note_on_time": 30.422, "note_off_time": 30.822}, {"pitch": 74, "velocity": 44, "note_on_time": 31.215, "note_off_time": 31.496}, {"pitch": 76, "velocity": 55, "note_on_time": 31.898, "note_off_time": 32.164}, {"pitch": 77, "velocity": 38, "note_on_time": 32.561, "note_off_time": 32.699}, {"pitch": 77, "velocity": 66, "note_on_time": 33.266, "note_off_time": 33.478}, {"pitch": 79, "velocity": 60, "note_on_time": 34.277, "note_off_time": 34.475}, {"pitch": 77, "velocity": 40, "note_on_time": 35.409, "note_off_time": 35.615}, {"pitch": 74, "velocity": 47, "note_on_time": 36.271, "note_off_time": 36.478}, {"pitch": 72, "velocity": 45, "note_on_time": 36.874, "note_off_time": 37.166}, {"pitch": 76, "velocity": 52, "note_on_time": 37.646, "note_off_time": 37.896}, {"pitch": 74, "velocity": 35, "note_on_time": 38.458, "note_off_time": 38.718}, {"pitch": 77, "velocity": 39, "note_on_time": 39.471, "note_off_time": 39.715}, {"pitch": 79, "velocity": 48, "note_on_time": 40.062, "note_off_time": 40.332}, {"pitch": 79, "velocity": 55, "note_on_time": 41.058, "note_off_time": 41.272}, {"pitch": 79, "velocity": 18, "note_on_time": 42.135, "note_off_time": 42.684}, {"pitch": 77, "velocity": 49, "note_on_time": 43.011, "note_off_time": 43.289}, {"pitch": 76, "velocity": 49, "note_on_time": 43.793, "note_off_time": 44.045}, {"pitch": 74, "velocity": 28, "note_on_time": 44.791, "note_off_time": 45.019}, {"pitch": 74, "velocity": 47, "note_on_time": 46.317, "note_off_time": 46.545}, {"pitch": 76, "velocity": 48, "note_on_time": 46.787, "note_off_time": 47.057}, {"pitch": 77, "velocity": 40, "note_on_time": 47.593, "note_off_time": 47.914}, {"pitch": 79, "velocity": 20, "note_on_time": 48.394, "note_off_time": 48.746}, {"pitch": 79, "velocity": 19, "note_on_time": 49.588, "note_off_time": 49.906}, {"pitch": 72, "velocity": 64, "note_on_time": 50.554, "note_off_time": 50.81}, {"pitch": 76, "velocity": 41, "note_on_time": 51.831, "note_off_time": 52.032}, {"pitch": 74, "velocity": 1, "note_on_time": 52.555, "note_off_time": 52.869}, {"pitch": 74, "velocity": 36, "note_on_time": 53.258, "note_off_time": 53.516}, {"pitch": 77, "velocity": 39, "note_on_time": 54.001, "note_off_time": 54.261}, {"pitch": 79, "velocity": 27, "note_on_time": 54.618, "note_off_time": 54.906}, {"pitch": 76, "velocity": 46, "note_on_time": 55.369, "note_off_time": 55.836}, {"pitch": 74, "velocity": 43, "note_on_time": 56.305, "note_off_time": 56.919}, {"pitch": 74, "velocity": 36, "note_on_time": 57.35, "note_off_time": 57.664}, {"pitch": 76, "velocity": 47, "note_on_time": 57.969, "note_off_time": 58.239}, {"pitch": 77, "velocity": 44, "note_on_time": 58.75, "note_off_time": 59.009}, {"pitch": 79, "velocity": 27, "note_on_time": 59.568, "note_off_time": 59.849}, {"pitch": 74, "velocity": 42, "note_on_time": 60.36, "note_off_time": 60.618}, {"pitch": 72, "velocity": 58, "note_on_time": 61.055, "note_off_time": 61.462}, {"pitch": 77, "velocity": 42, "note_on_time": 62.03, "note_off_time": 62.446}, {"pitch": 79, "velocity": 25, "note_on_time": 62.845, "note_off_time": 63.218}, {"pitch": 76, "velocity": 39, "note_on_time": 63.932, "note_off_time": 64.227}, {"pitch": 74, "velocity": 33, "note_on_time": 64.634, "note_off_time": 65.188}, {"pitch": 76, "velocity": 20, "note_on_time": 65.673, "note_off_time": 65.978}, {"pitch": 79, "velocity": 49, "note_on_time": 66.672, "note_off_time": 66.936}, {"pitch": 77, "velocity": 31, "note_on_time": 67.396, "note_off_time": 67.724}, {"pitch": 79, "velocity": 13, "note_on_time": 68.225, "note_off_time": 68.583}, {"pitch": 72, "velocity": 42, "note_on_time": 69.37, "note_off_time": 69.734}, {"pitch": 74, "velocity": 23, "note_on_time": 70.279, "note_off_time": 70.734}, {"pitch": 76, "velocity": 30, "note_on_time": 71.229, "note_off_time": 71.649}, {"pitch": 77, "velocity": 38, "note_on_time": 72.052, "note_off_time": 72.358}, {"pitch": 79, "velocity": 24, "note_on_time": 72.794, "note_off_time": 73.217}, {"pitch": 79, "velocity": 39, "note_on_time": 73.765, "note_off_time": 74.117}, {"pitch": 77, "velocity": 37, "note_on_time": 74.559, "note_off_time": 74.828}, {"pitch": 76, "velocity": 36, "note_on_time": 75.299, "note_off_time": 75.92}, {"pitch": 72, "velocity": 57, "note_on_time": 76.368, "note_off_time": 76.633}, {"pitch": 74, "velocity": 37, "note_on_time": 77.162, "note_off_time": 77.404}, {"pitch": 76, "velocity": 39, "note_on_time": 77.753, "note_off_time": 78.065}, {"pitch": 77, "velocity": 56, "note_on_time": 78.474, "note_off_time": 78.794}, {"pitch": 79, "velocity": 19, "note_on_time": 79.17, "note_off_time": 79.729}, {"pitch": 79, "velocity": 33, "note_on_time": 80.19, "note_off_time": 80.557}, {"pitch": 77, "velocity": 41, "note_on_time": 81.069, "note_off_time": 81.285}, {"pitch": 76, "velocity": 43, "note_on_time": 81.837, "note_off_time": 82.058}, {"pitch": 74, "velocity": 39, "note_on_time": 82.552, "note_off_time": 82.755}, {"pitch": 72, "velocity": 41, "note_on_time": 83.401, "note_off_time": 83.641}, {"pitch": 79, "velocity": 42, "note_on_time": 84.827, "note_off_time": 85.053}, {"pitch": 77, "velocity": 49, "note_on_time": 85.452, "note_off_time": 85.714}, {"pitch": 76, "velocity": 51, "note_on_time": 86.102, "note_off_time": 86.348}, {"pitch": 74, "velocity": 42, "note_on_time": 86.86, "note_off_time": 87.18}, {"pitch": 72, "velocity": 46, "note_on_time": 87.626, "note_off_time": 88.287}, {"pitch": 74, "velocity": 32, "note_on_time": 88.906, "note_off_time": 89.374}, {"pitch": 76, "velocity": 37, "note_on_time": 90.24, "note_off_time": 90.545}, {"pitch": 77, "velocity": 8, "note_on_time": 91.017, "note_off_time": 91.592}, {"pitch": 79, "velocity": 18, "note_on_time": 92.061, "note_off_time": 92.737}, {"pitch": 81, "velocity": 29, "note_on_time": 93.14, "note_off_time": 93.908}, {"pitch": 81, "velocity": 28, "note_on_time": 94.596, "note_off_time": 94.844}, {"pitch": 79, "velocity": 36, "note_on_time": 95.204, "note_off_time": 95.469}, {"pitch": 77, "velocity": 38, "note_on_time": 95.789, "note_off_time": 96.037}, {"pitch": 76, "velocity": 34, "note_on_time": 96.387, "note_off_time": 96.689}, {"pitch": 72, "velocity": 51, "note_on_time": 97.291, "note_off_time": 97.517}, {"pitch": 74, "velocity": 45, "note_on_time": 97.983, "note_off_time": 98.235}, {"pitch": 76, "velocity": 55, "note_on_time": 98.642, "note_off_time": 98.858}, {"pitch": 77, "velocity": 54, "note_on_time": 99.606, "note_off_time": 99.833}, {"pitch": 79, "velocity": 51, "note_on_time": 100.288, "note_off_time": 100.673}, {"pitch": 77, "velocity": 58, "note_on_time": 100.972, "note_off_time": 101.207}, {"pitch": 76, "velocity": 45, "note_on_time": 101.614, "note_off_time": 101.862}, {"pitch": 77, "velocity": 39, "note_on_time": 102.297, "note_off_time": 102.514}, {"pitch": 76, "velocity": 45, "note_on_time": 103.017, "note_off_time": 103.193}, {"pitch": 74, "velocity": 35, "note_on_time": 103.717, "note_off_time": 103.917}, {"pitch": 76, "velocity": 36, "note_on_time": 104.693, "note_off_time": 104.901}, {"pitch": 77, "velocity": 25, "note_on_time": 105.785, "note_off_time": 106.01}, {"pitch": 79, "velocity": 29, "note_on_time": 106.523, "note_off_time": 106.787}, {"pitch": 74, "velocity": 26, "note_on_time": 107.903, "note_off_time": 108.095}, {"pitch": 76, "velocity": 18, "note_on_time": 108.73, "note_off_time": 108.999}, {"pitch": 77, "velocity": 23, "note_on_time": 109.571, "note_off_time": 109.821}, {"pitch": 74, "velocity": 12, "note_on_time": 110.69, "note_off_time": 110.938}, {"pitch": 77, "velocity": 4, "note_on_time": 111.505, "note_off_time": 111.832}, {"pitch": 79, "velocity": 33, "note_on_time": 112.303, "note_off_time": 112.614}, {"pitch": 79, "velocity": 31, "note_on_time": 114.221, "note_off_time": 114.475}, {"pitch": 77, "velocity": 16, "note_on_time": 114.987, "note_off_time": 115.197}, {"pitch": 72, "velocity": 30, "note_on_time": 116.099, "note_off_time": 116.518}, {"pitch": 74, "velocity": 37, "note_on_time": 117.022, "note_off_time": 117.369}, {"pitch": 76, "velocity": 29, "note_on_time": 117.741, "note_off_time": 118.09}, {"pitch": 77, "velocity": 47, "note_on_time": 118.468, "note_off_time": 118.681}, {"pitch": 79, "velocity": 37, "note_on_time": 119.155, "note_off_time": 119.471}, {"pitch": 74, "velocity": 37, "note_on_time": 119.939, "note_off_time": 120.185}, {"pitch": 76, "velocity": 38, "note_on_time": 120.724, "note_off_time": 121.046}, {"pitch": 74, "velocity": 22, "note_on_time": 122.005, "note_off_time": 122.256}, {"pitch": 76, "velocity": 29, "note_on_time": 122.877, "note_off_time": 123.149}, {"pitch": 77, "velocity": 36, "note_on_time": 123.669, "note_off_time": 123.947}, {"pitch": 79, "velocity": 37, "note_on_time": 124.333, "note_off_time": 124.622}, {"pitch": 81, "velocity": 35, "note_on_time": 125.7, "note_off_time": 126.071}, {"pitch": 79, "velocity": 1, "note_on_time": 126.527, "note_off_time": 126.938}, {"pitch": 77, "velocity": 2, "note_on_time": 127.399, "note_off_time": 127.78}, {"pitch": 76, "velocity": 50, "note_on_time": 128.456, "note_off_time": 128.712}, {"pitch": 74, "velocity": 34, "note_on_time": 129.284, "note_off_time": 129.507}, {"pitch": 74, "velocity": 43, "note_on_time": 130.172, "note_off_time": 130.348}, {"pitch": 76, "velocity": 40, "note_on_time": 130.558, "note_off_time": 130.82}, {"pitch": 77, "velocity": 46, "note_on_time": 131.406, "note_off_time": 131.612}, {"pitch": 79, "velocity": 48, "note_on_time": 132.199, "note_off_time": 132.484}, {"pitch": 72, "velocity": 31, "note_on_time": 133.064, "note_off_time": 133.415}, {"pitch": 74, "velocity": 54, "note_on_time": 133.822, "note_off_time": 134.065}, {"pitch": 76, "velocity": 53, "note_on_time": 134.491, "note_off_time": 134.738}, {"pitch": 79, "velocity": 49, "note_on_time": 135.632, "note_off_time": 135.881}, {"pitch": 77, "velocity": 36, "note_on_time": 136.224, "note_off_time": 136.488}, {"pitch": 76, "velocity": 41, "note_on_time": 136.866, "note_off_time": 137.11}, {"pitch": 76, "velocity": 59, "note_on_time": 137.914, "note_off_time": 138.208}, {"pitch": 76, "velocity": 43, "note_on_time": 138.811, "note_off_time": 139.064}, {"pitch": 74, "velocity": 42, "note_on_time": 139.726, "note_off_time": 140.001}, {"pitch": 74, "velocity": 43, "note_on_time": 140.39, "note_off_time": 140.679}, {"pitch": 74, "velocity": 37, "note_on_time": 140.98, "note_off_time": 142.067}, {"pitch": 77, "velocity": 50, "note_on_time": 141.952, "note_off_time": 142.454}, {"pitch": 79, "velocity": 57, "note_on_time": 142.351, "note_off_time": 142.841}, {"pitch": 77, "velocity": 57, "note_on_time": 142.794, "note_off_time": 143.37}, {"pitch": 76, "velocity": 49, "note_on_time": 143.444, "note_off_time": 143.714}, {"pitch": 72, "velocity": 48, "note_on_time": 144.161, "note_off_time": 144.494}, {"pitch": 74, "velocity": 27, "note_on_time": 144.912, "note_off_time": 145.554}, {"pitch": 74, "velocity": 36, "note_on_time": 146.143, "note_off_time": 146.393}, {"pitch": 74, "velocity": 35, "note_on_time": 146.808, "note_off_time": 147.073}, {"pitch": 74, "velocity": 36, "note_on_time": 147.566, "note_off_time": 147.916}, {"pitch": 76, "velocity": 42, "note_on_time": 147.952, "note_off_time": 148.235}, {"pitch": 77, "velocity": 1, "note_on_time": 148.496, "note_off_time": 148.701}, {"pitch": 79, "velocity": 12, "note_on_time": 148.45, "note_off_time": 148.718}, {"pitch": 79, "velocity": 57, "note_on_time": 148.949, "note_off_time": 149.32}, {"pitch": 77, "velocity": 51, "note_on_time": 149.343, "note_off_time": 149.575}, {"pitch": 72, "velocity": 54, "note_on_time": 149.857, "note_off_time": 150.263}, {"pitch": 76, "velocity": 39, "note_on_time": 150.46, "note_off_time": 150.919}, {"pitch": 74, "velocity": 39, "note_on_time": 151.058, "note_off_time": 151.625}, {"pitch": 77, "velocity": 47, "note_on_time": 151.6, "note_off_time": 151.955}, {"pitch": 79, "velocity": 60, "note_on_time": 152.241, "note_off_time": 152.753}, {"pitch": 72, "velocity": 31, "note_on_time": 153.274, "note_off_time": 153.5}, {"pitch": 72, "velocity": 62, "note_on_time": 154.116, "note_off_time": 154.334}, {"pitch": 74, "velocity": 40, "note_on_time": 154.712, "note_off_time": 155.385}, {"pitch": 77, "velocity": 15, "note_on_time": 155.465, "note_off_time": 155.986}, {"pitch": 76, "velocity": 37, "note_on_time": 155.914, "note_off_time": 156.397}, {"pitch": 74, "velocity": 52, "note_on_time": 156.412, "note_off_time": 157.426}, {"pitch": 77, "velocity": 37, "note_on_time": 157.248, "note_off_time": 157.669}, {"pitch": 77, "velocity": 1, "note_on_time": 158.135, "note_off_time": 158.902}, {"pitch": 76, "velocity": 42, "note_on_time": 158.859, "note_off_time": 159.147}, {"pitch": 74, "velocity": 39, "note_on_time": 159.593, "note_off_time": 160.022}, {"pitch": 72, "velocity": 26, "note_on_time": 160.059, "note_off_time": 160.273}, {"pitch": 77, "velocity": 41, "note_on_time": 160.848, "note_off_time": 161.094}, {"pitch": 77, "velocity": 11, "note_on_time": 162.068, "note_off_time": 162.516}, {"pitch": 77, "velocity": 48, "note_on_time": 162.767, "note_off_time": 163.044}, {"pitch": 76, "velocity": 42, "note_on_time": 163.273, "note_off_time": 163.964}]</notes><guidance name="Guidance Mode">None</guidance><error name="Error value">99</error></trial></trials></MIDI>