<MIDI midiNo="2023_06_06-10_27_32"><target_notes><notes name="Note List">[{"pitch": 60, "velocity": 40, "note_on_time": 0.01, "note_off_time": 1.019}, {"pitch": 64, "velocity": 40, "note_on_time": 0.01, "note_off_time": 1.02}, {"pitch": 67, "velocity": 40, "note_on_time": 0.011, "note_off_time": 1.021}, {"pitch": 48, "velocity": 40, "note_on_time": 0.011, "note_off_time": 1.021}, {"pitch": 52, "velocity": 40, "note_on_time": 1.021, "note_off_time": 2.035}, {"pitch": 55, "velocity": 40, "note_on_time": 1.021, "note_off_time": 2.035}, {"pitch": 76, "velocity": 40, "note_on_time": 2.035, "note_off_time": 3.049}, {"pitch": 48, "velocity": 40, "note_on_time": 2.035, "note_off_time": 3.049}, {"pitch": 52, "velocity": 40, "note_on_time": 3.049, "note_off_time": 4.062}, {"pitch": 55, "velocity": 40, "note_on_time": 3.049, "note_off_time": 4.062}, {"pitch": 48, "velocity": 40, "note_on_time": 4.062, "note_off_time": 5.078}, {"pitch": 52, "velocity": 40, "note_on_time": 5.078, "note_off_time": 6.08}, {"pitch": 55, "velocity": 40, "note_on_time": 5.078, "note_off_time": 6.08}, {"pitch": 48, "velocity": 40, "note_on_time": 6.08, "note_off_time": 7.091}, {"pitch": 52, "velocity": 40, "note_on_time": 7.091, "note_off_time": 8.105}, {"pitch": 55, "velocity": 40, "note_on_time": 7.091, "note_off_time": 8.106}, {"pitch": 60, "velocity": 40, "note_on_time": 8.104, "note_off_time": 9.108}, {"pitch": 64, "velocity": 40, "note_on_time": 8.105, "note_off_time": 9.108}, {"pitch": 67, "velocity": 40, "note_on_time": 8.105, "note_off_time": 9.109}, {"pitch": 48, "velocity": 40, "note_on_time": 8.106, "note_off_time": 9.109}, {"pitch": 52, "velocity": 40, "note_on_time": 9.109, "note_off_time": 10.112}, {"pitch": 55, "velocity": 40, "note_on_time": 9.109, "note_off_time": 10.112}, {"pitch": 72, "velocity": 40, "note_on_time": 10.111, "note_off_time": 11.122}, {"pitch": 48, "velocity": 40, "note_on_time": 10.112, "note_off_time": 11.122}, {"pitch": 52, "velocity": 40, "note_on_time": 11.122, "note_off_time": 12.135}, {"pitch": 55, "velocity": 40, "note_on_time": 11.122, "note_off_time": 12.135}, {"pitch": 48, "velocity": 40, "note_on_time": 12.135, "note_off_time": 13.14}, {"pitch": 52, "velocity": 40, "note_on_time": 13.14, "note_off_time": 14.153}, {"pitch": 55, "velocity": 40, "note_on_time": 13.14, "note_off_time": 14.153}, {"pitch": 48, "velocity": 40, "note_on_time": 14.153, "note_off_time": 15.157}, {"pitch": 52, "velocity": 40, "note_on_time": 15.157, "note_off_time": 16.16}, {"pitch": 55, "velocity": 40, "note_on_time": 15.157, "note_off_time": 16.16}, {"pitch": 60, "velocity": 40, "note_on_time": 16.158, "note_off_time": 17.174}, {"pitch": 64, "velocity": 40, "note_on_time": 16.159, "note_off_time": 17.174}, {"pitch": 67, "velocity": 40, "note_on_time": 16.159, "note_off_time": 17.175}, {"pitch": 48, "velocity": 40, "note_on_time": 16.16, "note_off_time": 17.175}, {"pitch": 52, "velocity": 40, "note_on_time": 17.175, "note_off_time": 18.186}, {"pitch": 55, "velocity": 40, "note_on_time": 17.175, "note_off_time": 18.187}, {"pitch": 74, "velocity": 40, "note_on_time": 18.186, "note_off_time": 19.201}, {"pitch": 48, "velocity": 40, "note_on_time": 18.187, "note_off_time": 19.201}, {"pitch": 52, "velocity": 40, "note_on_time": 19.201, "note_off_time": 20.206}, {"pitch": 55, "velocity": 40, "note_on_time": 19.201, "note_off_time": 20.206}, {"pitch": 48, "velocity": 40, "note_on_time": 20.206, "note_off_time": 21.218}, {"pitch": 52, "velocity": 40, "note_on_time": 21.218, "note_off_time": 22.23}, {"pitch": 55, "velocity": 40, "note_on_time": 21.218, "note_off_time": 22.23}, {"pitch": 48, "velocity": 40, "note_on_time": 22.23, "note_off_time": 23.243}, {"pitch": 52, "velocity": 40, "note_on_time": 23.243, "note_off_time": 24.258}, {"pitch": 55, "velocity": 40, "note_on_time": 23.243, "note_off_time": 24.258}, {"pitch": 60, "velocity": 40, "note_on_time": 24.257, "note_off_time": 25.267}, {"pitch": 64, "velocity": 40, "note_on_time": 24.258, "note_off_time": 25.268}, {"pitch": 67, "velocity": 40, "note_on_time": 24.258, "note_off_time": 25.269}, {"pitch": 48, "velocity": 40, "note_on_time": 24.258, "note_off_time": 25.269}, {"pitch": 52, "velocity": 40, "note_on_time": 25.269, "note_off_time": 26.279}, {"pitch": 55, "velocity": 40, "note_on_time": 25.269, "note_off_time": 26.279}, {"pitch": 72, "velocity": 40, "note_on_time": 26.278, "note_off_time": 27.293}, {"pitch": 48, "velocity": 40, "note_on_time": 26.279, "note_off_time": 27.293}, {"pitch": 52, "velocity": 40, "note_on_time": 27.293, "note_off_time": 28.3}, {"pitch": 55, "velocity": 40, "note_on_time": 27.293, "note_off_time": 28.3}, {"pitch": 48, "velocity": 40, "note_on_time": 28.3, "note_off_time": 29.315}, {"pitch": 52, "velocity": 40, "note_on_time": 29.315, "note_off_time": 30.319}, {"pitch": 55, "velocity": 40, "note_on_time": 29.315, "note_off_time": 30.319}, {"pitch": 48, "velocity": 40, "note_on_time": 30.319, "note_off_time": 31.332}, {"pitch": 52, "velocity": 40, "note_on_time": 31.332, "note_off_time": 32.348}, {"pitch": 55, "velocity": 40, "note_on_time": 31.332, "note_off_time": 32.348}, {"pitch": 60, "velocity": 40, "note_on_time": 32.346, "note_off_time": 33.364}, {"pitch": 64, "velocity": 40, "note_on_time": 32.347, "note_off_time": 33.365}, {"pitch": 67, "velocity": 40, "note_on_time": 32.348, "note_off_time": 33.365}, {"pitch": 48, "velocity": 40, "note_on_time": 32.348, "note_off_time": 33.365}, {"pitch": 52, "velocity": 40, "note_on_time": 33.365, "note_off_time": 34.376}, {"pitch": 55, "velocity": 40, "note_on_time": 33.365, "note_off_time": 34.376}, {"pitch": 76, "velocity": 40, "note_on_time": 34.376, "note_off_time": 35.386}, {"pitch": 48, "velocity": 40, "note_on_time": 34.376, "note_off_time": 35.386}, {"pitch": 52, "velocity": 40, "note_on_time": 35.388, "note_off_time": 36.403}, {"pitch": 55, "velocity": 40, "note_on_time": 35.388, "note_off_time": 36.403}, {"pitch": 48, "velocity": 40, "note_on_time": 36.403, "note_off_time": 37.415}, {"pitch": 52, "velocity": 40, "note_on_time": 37.415, "note_off_time": 38.416}, {"pitch": 55, "velocity": 40, "note_on_time": 37.415, "note_off_time": 38.416}, {"pitch": 48, "velocity": 40, "note_on_time": 38.416, "note_off_time": 39.419}, {"pitch": 52, "velocity": 40, "note_on_time": 39.419, "note_off_time": 40.434}, {"pitch": 55, "velocity": 40, "note_on_time": 39.419, "note_off_time": 40.434}, {"pitch": 60, "velocity": 40, "note_on_time": 40.432, "note_off_time": 41.442}, {"pitch": 64, "velocity": 40, "note_on_time": 40.433, "note_off_time": 41.443}, {"pitch": 67, "velocity": 40, "note_on_time": 40.433, "note_off_time": 41.444}, {"pitch": 72, "velocity": 40, "note_on_time": 42.455, "note_off_time": 43.466}, {"pitch": 60, "velocity": 40, "note_on_time": 48.469, "note_off_time": 49.485}, {"pitch": 64, "velocity": 40, "note_on_time": 48.47, "note_off_time": 49.486}, {"pitch": 67, "velocity": 40, "note_on_time": 48.47, "note_off_time": 49.487}, {"pitch": 74, "velocity": 40, "note_on_time": 50.499, "note_off_time": 51.512}, {"pitch": 60, "velocity": 40, "note_on_time": 56.526, "note_off_time": 57.542}, {"pitch": 64, "velocity": 40, "note_on_time": 56.527, "note_off_time": 57.544}, {"pitch": 67, "velocity": 40, "note_on_time": 56.527, "note_off_time": 57.544}, {"pitch": 72, "velocity": 40, "note_on_time": 58.553, "note_off_time": 59.568}, {"pitch": 60, "velocity": 40, "note_on_time": 64.574, "note_off_time": 65.595}, {"pitch": 64, "velocity": 40, "note_on_time": 64.575, "note_off_time": 65.596}, {"pitch": 67, "velocity": 40, "note_on_time": 64.575, "note_off_time": 65.596}, {"pitch": 76, "velocity": 40, "note_on_time": 66.631, "note_off_time": 67.646}, {"pitch": 60, "velocity": 40, "note_on_time": 72.649, "note_off_time": 73.658}, {"pitch": 64, "velocity": 40, "note_on_time": 72.649, "note_off_time": 73.659}, {"pitch": 67, "velocity": 40, "note_on_time": 72.65, "note_off_time": 73.66}, {"pitch": 74, "velocity": 40, "note_on_time": 74.67, "note_off_time": 75.678}, {"pitch": 60, "velocity": 40, "note_on_time": 80.683, "note_off_time": 81.708}, {"pitch": 64, "velocity": 40, "note_on_time": 80.684, "note_off_time": 81.708}, {"pitch": 67, "velocity": 40, "note_on_time": 80.684, "note_off_time": 81.709}, {"pitch": 76, "velocity": 40, "note_on_time": 82.713, "note_off_time": 83.724}, {"pitch": 60, "velocity": 40, "note_on_time": 88.727, "note_off_time": 89.732}, {"pitch": 64, "velocity": 40, "note_on_time": 88.728, "note_off_time": 89.733}, {"pitch": 67, "velocity": 40, "note_on_time": 88.728, "note_off_time": 89.733}, {"pitch": 72, "velocity": 40, "note_on_time": 90.746, "note_off_time": 91.759}, {"pitch": 60, "velocity": 40, "note_on_time": 96.765, "note_off_time": 97.768}, {"pitch": 64, "velocity": 40, "note_on_time": 96.766, "note_off_time": 97.77}, {"pitch": 67, "velocity": 40, "note_on_time": 96.766, "note_off_time": 97.77}, {"pitch": 76, "velocity": 40, "note_on_time": 98.78, "note_off_time": 99.793}, {"pitch": 60, "velocity": 40, "note_on_time": 104.805, "note_off_time": 105.817}, {"pitch": 64, "velocity": 40, "note_on_time": 104.806, "note_off_time": 105.818}, {"pitch": 67, "velocity": 40, "note_on_time": 104.806, "note_off_time": 105.818}, {"pitch": 74, "velocity": 40, "note_on_time": 106.825, "note_off_time": 107.836}, {"pitch": 60, "velocity": 40, "note_on_time": 112.845, "note_off_time": 113.85}, {"pitch": 64, "velocity": 40, "note_on_time": 112.845, "note_off_time": 113.85}, {"pitch": 67, "velocity": 40, "note_on_time": 112.846, "note_off_time": 113.851}, {"pitch": 72, "velocity": 40, "note_on_time": 114.858, "note_off_time": 115.874}, {"pitch": 60, "velocity": 40, "note_on_time": 120.885, "note_off_time": 121.901}, {"pitch": 64, "velocity": 40, "note_on_time": 120.886, "note_off_time": 121.902}, {"pitch": 67, "velocity": 40, "note_on_time": 120.886, "note_off_time": 121.903}, {"pitch": 74, "velocity": 40, "note_on_time": 122.921, "note_off_time": 123.934}, {"pitch": 60, "velocity": 40, "note_on_time": 128.942, "note_off_time": 129.956}, {"pitch": 64, "velocity": 40, "note_on_time": 128.944, "note_off_time": 129.957}, {"pitch": 67, "velocity": 40, "note_on_time": 128.944, "note_off_time": 129.957}, {"pitch": 72, "velocity": 40, "note_on_time": 130.968, "note_off_time": 131.981}, {"pitch": 60, "velocity": 40, "note_on_time": 136.984, "note_off_time": 138.0}, {"pitch": 64, "velocity": 40, "note_on_time": 136.985, "note_off_time": 138.001}, {"pitch": 67, "velocity": 40, "note_on_time": 136.985, "note_off_time": 138.002}, {"pitch": 74, "velocity": 40, "note_on_time": 139.011, "note_off_time": 140.026}, {"pitch": 60, "velocity": 40, "note_on_time": 145.047, "note_off_time": 146.057}, {"pitch": 64, "velocity": 40, "note_on_time": 145.048, "note_off_time": 146.058}, {"pitch": 67, "velocity": 40, "note_on_time": 145.048, "note_off_time": 146.058}, {"pitch": 76, "velocity": 40, "note_on_time": 147.068, "note_off_time": 148.081}, {"pitch": 60, "velocity": 40, "note_on_time": 153.089, "note_off_time": 154.099}, {"pitch": 64, "velocity": 40, "note_on_time": 153.089, "note_off_time": 154.099}, {"pitch": 67, "velocity": 40, "note_on_time": 153.09, "note_off_time": 154.099}, {"pitch": 74, "velocity": 40, "note_on_time": 155.112, "note_off_time": 156.116}, {"pitch": 60, "velocity": 40, "note_on_time": 161.121, "note_off_time": 162.129}, {"pitch": 64, "velocity": 40, "note_on_time": 161.121, "note_off_time": 162.13}, {"pitch": 67, "velocity": 40, "note_on_time": 161.121, "note_off_time": 162.131}, {"pitch": 76, "velocity": 40, "note_on_time": 163.134, "note_off_time": 164.14}, {"pitch": 60, "velocity": 40, "note_on_time": 169.145, "note_off_time": 170.151}, {"pitch": 64, "velocity": 40, "note_on_time": 169.146, "note_off_time": 170.151}, {"pitch": 67, "velocity": 40, "note_on_time": 169.147, "note_off_time": 170.152}, {"pitch": 76, "velocity": 40, "note_on_time": 171.163, "note_off_time": 172.175}]</notes><options name="Option List">((4, 4), [0.5, 0.25], 3, 8, &lt;NoteRangePerHand.TWO_NOTES: 3&gt;, &lt;NoteRangePerHand.ONE_NOTE: 2&gt;, False, True, True, 100)</options></target_notes><trials><trial trial_no="1" timestamp="2023_06_06-10_24_40"><notes name="Played Notes">[{"pitch": 76, "velocity": 68, "note_on_time": 3.716, "note_off_time": 4.404}, {"pitch": 74, "velocity": 60, "note_on_time": 11.256, "note_off_time": 11.566}, {"pitch": 72, "velocity": 30, "note_on_time": 11.678, "note_off_time": 11.962}]</notes><guidance name="Guidance Mode">None</guidance><error name="Error value">99</error></trial></trials></MIDI>