<MIDI midiNo="2023_06_19-10_50_07"><target_notes><notes name="Note List">[{"pitch": 60, "velocity": 40, "note_on_time": 0.012, "note_off_time": 1.016}, {"pitch": 64, "velocity": 40, "note_on_time": 0.012, "note_off_time": 1.017}, {"pitch": 67, "velocity": 40, "note_on_time": 0.012, "note_off_time": 1.017}, {"pitch": 48, "velocity": 40, "note_on_time": 0.012, "note_off_time": 1.017}, {"pitch": 52, "velocity": 40, "note_on_time": 1.017, "note_off_time": 2.027}, {"pitch": 55, "velocity": 40, "note_on_time": 1.018, "note_off_time": 2.027}, {"pitch": 79, "velocity": 40, "note_on_time": 2.026, "note_off_time": 3.037}, {"pitch": 48, "velocity": 40, "note_on_time": 2.027, "note_off_time": 3.037}, {"pitch": 52, "velocity": 40, "note_on_time": 3.037, "note_off_time": 4.047}, {"pitch": 55, "velocity": 40, "note_on_time": 3.037, "note_off_time": 4.047}, {"pitch": 48, "velocity": 40, "note_on_time": 4.047, "note_off_time": 5.063}, {"pitch": 52, "velocity": 40, "note_on_time": 5.063, "note_off_time": 6.073}, {"pitch": 55, "velocity": 40, "note_on_time": 5.063, "note_off_time": 6.073}, {"pitch": 48, "velocity": 40, "note_on_time": 6.073, "note_off_time": 7.084}, {"pitch": 52, "velocity": 40, "note_on_time": 7.084, "note_off_time": 8.098}, {"pitch": 55, "velocity": 40, "note_on_time": 7.084, "note_off_time": 8.099}, {"pitch": 60, "velocity": 40, "note_on_time": 8.097, "note_off_time": 9.112}, {"pitch": 64, "velocity": 40, "note_on_time": 8.098, "note_off_time": 9.113}, {"pitch": 67, "velocity": 40, "note_on_time": 8.098, "note_off_time": 9.113}, {"pitch": 48, "velocity": 40, "note_on_time": 8.099, "note_off_time": 9.113}, {"pitch": 52, "velocity": 40, "note_on_time": 9.114, "note_off_time": 10.128}, {"pitch": 55, "velocity": 40, "note_on_time": 9.114, "note_off_time": 10.129}, {"pitch": 76, "velocity": 40, "note_on_time": 10.128, "note_off_time": 11.13}, {"pitch": 48, "velocity": 40, "note_on_time": 10.129, "note_off_time": 11.131}, {"pitch": 52, "velocity": 40, "note_on_time": 11.131, "note_off_time": 12.144}, {"pitch": 55, "velocity": 40, "note_on_time": 11.131, "note_off_time": 12.144}, {"pitch": 48, "velocity": 40, "note_on_time": 12.144, "note_off_time": 13.152}, {"pitch": 52, "velocity": 40, "note_on_time": 13.152, "note_off_time": 14.163}, {"pitch": 55, "velocity": 40, "note_on_time": 13.152, "note_off_time": 14.163}, {"pitch": 48, "velocity": 40, "note_on_time": 14.163, "note_off_time": 15.176}, {"pitch": 52, "velocity": 40, "note_on_time": 15.176, "note_off_time": 16.192}, {"pitch": 55, "velocity": 40, "note_on_time": 15.176, "note_off_time": 16.192}, {"pitch": 60, "velocity": 40, "note_on_time": 16.19, "note_off_time": 17.199}, {"pitch": 64, "velocity": 40, "note_on_time": 16.191, "note_off_time": 17.2}, {"pitch": 67, "velocity": 40, "note_on_time": 16.191, "note_off_time": 17.2}, {"pitch": 48, "velocity": 40, "note_on_time": 16.192, "note_off_time": 17.2}, {"pitch": 52, "velocity": 40, "note_on_time": 17.201, "note_off_time": 18.212}, {"pitch": 55, "velocity": 40, "note_on_time": 17.201, "note_off_time": 18.212}, {"pitch": 77, "velocity": 40, "note_on_time": 18.212, "note_off_time": 19.219}, {"pitch": 48, "velocity": 40, "note_on_time": 18.212, "note_off_time": 19.219}, {"pitch": 52, "velocity": 40, "note_on_time": 19.22, "note_off_time": 20.23}, {"pitch": 55, "velocity": 40, "note_on_time": 19.22, "note_off_time": 20.23}, {"pitch": 48, "velocity": 40, "note_on_time": 20.23, "note_off_time": 21.241}, {"pitch": 52, "velocity": 40, "note_on_time": 21.241, "note_off_time": 22.253}, {"pitch": 55, "velocity": 40, "note_on_time": 21.241, "note_off_time": 22.253}, {"pitch": 48, "velocity": 40, "note_on_time": 22.253, "note_off_time": 23.263}, {"pitch": 52, "velocity": 40, "note_on_time": 23.263, "note_off_time": 24.279}, {"pitch": 55, "velocity": 40, "note_on_time": 23.263, "note_off_time": 24.279}, {"pitch": 60, "velocity": 40, "note_on_time": 24.277, "note_off_time": 25.285}, {"pitch": 64, "velocity": 40, "note_on_time": 24.278, "note_off_time": 25.286}, {"pitch": 67, "velocity": 40, "note_on_time": 24.278, "note_off_time": 25.286}, {"pitch": 48, "velocity": 40, "note_on_time": 24.279, "note_off_time": 25.286}, {"pitch": 52, "velocity": 40, "note_on_time": 25.287, "note_off_time": 26.296}, {"pitch": 55, "velocity": 40, "note_on_time": 25.288, "note_off_time": 26.297}, {"pitch": 72, "velocity": 40, "note_on_time": 26.296, "note_off_time": 27.305}, {"pitch": 48, "velocity": 40, "note_on_time": 26.297, "note_off_time": 27.305}, {"pitch": 52, "velocity": 40, "note_on_time": 27.306, "note_off_time": 28.314}, {"pitch": 55, "velocity": 40, "note_on_time": 27.306, "note_off_time": 28.314}, {"pitch": 48, "velocity": 40, "note_on_time": 28.314, "note_off_time": 29.323}, {"pitch": 52, "velocity": 40, "note_on_time": 29.323, "note_off_time": 30.329}, {"pitch": 55, "velocity": 40, "note_on_time": 29.323, "note_off_time": 30.329}, {"pitch": 48, "velocity": 40, "note_on_time": 30.329, "note_off_time": 31.331}, {"pitch": 52, "velocity": 40, "note_on_time": 31.331, "note_off_time": 32.344}, {"pitch": 55, "velocity": 40, "note_on_time": 31.331, "note_off_time": 32.345}, {"pitch": 60, "velocity": 40, "note_on_time": 32.343, "note_off_time": 33.358}, {"pitch": 64, "velocity": 40, "note_on_time": 32.344, "note_off_time": 33.359}, {"pitch": 67, "velocity": 40, "note_on_time": 32.344, "note_off_time": 33.359}, {"pitch": 48, "velocity": 40, "note_on_time": 32.345, "note_off_time": 33.359}, {"pitch": 52, "velocity": 40, "note_on_time": 33.359, "note_off_time": 34.375}, {"pitch": 55, "velocity": 40, "note_on_time": 33.36, "note_off_time": 34.376}, {"pitch": 79, "velocity": 40, "note_on_time": 34.375, "note_off_time": 35.384}, {"pitch": 48, "velocity": 40, "note_on_time": 34.376, "note_off_time": 35.384}, {"pitch": 52, "velocity": 40, "note_on_time": 35.384, "note_off_time": 36.397}, {"pitch": 55, "velocity": 40, "note_on_time": 35.384, "note_off_time": 36.397}, {"pitch": 48, "velocity": 40, "note_on_time": 36.397, "note_off_time": 37.411}, {"pitch": 52, "velocity": 40, "note_on_time": 37.411, "note_off_time": 38.426}, {"pitch": 55, "velocity": 40, "note_on_time": 37.412, "note_off_time": 38.426}, {"pitch": 48, "velocity": 40, "note_on_time": 38.426, "note_off_time": 39.438}, {"pitch": 52, "velocity": 40, "note_on_time": 39.438, "note_off_time": 40.452}, {"pitch": 55, "velocity": 40, "note_on_time": 39.438, "note_off_time": 40.453}, {"pitch": 60, "velocity": 40, "note_on_time": 40.451, "note_off_time": 41.459}, {"pitch": 64, "velocity": 40, "note_on_time": 40.452, "note_off_time": 41.46}, {"pitch": 67, "velocity": 40, "note_on_time": 40.452, "note_off_time": 41.46}, {"pitch": 77, "velocity": 40, "note_on_time": 42.469, "note_off_time": 43.471}, {"pitch": 60, "velocity": 40, "note_on_time": 48.487, "note_off_time": 49.5}, {"pitch": 64, "velocity": 40, "note_on_time": 48.487, "note_off_time": 49.501}, {"pitch": 67, "velocity": 40, "note_on_time": 48.488, "note_off_time": 49.501}, {"pitch": 74, "velocity": 40, "note_on_time": 50.513, "note_off_time": 51.526}, {"pitch": 60, "velocity": 40, "note_on_time": 56.53, "note_off_time": 57.534}, {"pitch": 64, "velocity": 40, "note_on_time": 56.531, "note_off_time": 57.535}, {"pitch": 67, "velocity": 40, "note_on_time": 56.531, "note_off_time": 57.535}, {"pitch": 76, "velocity": 40, "note_on_time": 58.544, "note_off_time": 59.557}, {"pitch": 60, "velocity": 40, "note_on_time": 64.558, "note_off_time": 65.568}, {"pitch": 64, "velocity": 40, "note_on_time": 64.56, "note_off_time": 65.569}, {"pitch": 67, "velocity": 40, "note_on_time": 64.56, "note_off_time": 65.569}, {"pitch": 72, "velocity": 40, "note_on_time": 66.57, "note_off_time": 67.584}, {"pitch": 60, "velocity": 40, "note_on_time": 72.59, "note_off_time": 73.601}, {"pitch": 64, "velocity": 40, "note_on_time": 72.591, "note_off_time": 73.602}, {"pitch": 67, "velocity": 40, "note_on_time": 72.591, "note_off_time": 73.603}, {"pitch": 74, "velocity": 40, "note_on_time": 74.617, "note_off_time": 75.634}, {"pitch": 60, "velocity": 40, "note_on_time": 80.644, "note_off_time": 81.656}, {"pitch": 64, "velocity": 40, "note_on_time": 80.645, "note_off_time": 81.656}, {"pitch": 67, "velocity": 40, "note_on_time": 80.645, "note_off_time": 81.657}, {"pitch": 76, "velocity": 40, "note_on_time": 82.669, "note_off_time": 83.681}, {"pitch": 60, "velocity": 40, "note_on_time": 88.685, "note_off_time": 89.7}, {"pitch": 64, "velocity": 40, "note_on_time": 88.686, "note_off_time": 89.701}, {"pitch": 67, "velocity": 40, "note_on_time": 88.686, "note_off_time": 89.701}, {"pitch": 77, "velocity": 40, "note_on_time": 90.707, "note_off_time": 91.722}, {"pitch": 60, "velocity": 40, "note_on_time": 96.733, "note_off_time": 97.749}, {"pitch": 64, "velocity": 40, "note_on_time": 96.733, "note_off_time": 97.75}, {"pitch": 67, "velocity": 40, "note_on_time": 96.734, "note_off_time": 97.75}, {"pitch": 79, "velocity": 40, "note_on_time": 98.753, "note_off_time": 99.765}, {"pitch": 60, "velocity": 40, "note_on_time": 104.777, "note_off_time": 105.791}, {"pitch": 64, "velocity": 40, "note_on_time": 104.777, "note_off_time": 105.792}, {"pitch": 67, "velocity": 40, "note_on_time": 104.778, "note_off_time": 105.792}, {"pitch": 74, "velocity": 40, "note_on_time": 106.805, "note_off_time": 107.815}, {"pitch": 60, "velocity": 40, "note_on_time": 112.819, "note_off_time": 113.824}, {"pitch": 64, "velocity": 40, "note_on_time": 112.82, "note_off_time": 113.825}, {"pitch": 67, "velocity": 40, "note_on_time": 112.82, "note_off_time": 113.825}, {"pitch": 72, "velocity": 40, "note_on_time": 114.835, "note_off_time": 115.841}, {"pitch": 60, "velocity": 40, "note_on_time": 120.854, "note_off_time": 121.858}, {"pitch": 64, "velocity": 40, "note_on_time": 120.854, "note_off_time": 121.859}, {"pitch": 67, "velocity": 40, "note_on_time": 120.855, "note_off_time": 121.859}, {"pitch": 77, "velocity": 40, "note_on_time": 122.869, "note_off_time": 123.881}, {"pitch": 60, "velocity": 40, "note_on_time": 128.888, "note_off_time": 129.898}, {"pitch": 64, "velocity": 40, "note_on_time": 128.889, "note_off_time": 129.898}, {"pitch": 67, "velocity": 40, "note_on_time": 128.889, "note_off_time": 129.899}, {"pitch": 76, "velocity": 40, "note_on_time": 130.904, "note_off_time": 131.915}, {"pitch": 60, "velocity": 40, "note_on_time": 136.919, "note_off_time": 137.927}, {"pitch": 64, "velocity": 40, "note_on_time": 136.919, "note_off_time": 137.928}, {"pitch": 67, "velocity": 40, "note_on_time": 136.92, "note_off_time": 137.928}, {"pitch": 74, "velocity": 40, "note_on_time": 138.931, "note_off_time": 139.937}, {"pitch": 60, "velocity": 40, "note_on_time": 144.952, "note_off_time": 145.964}, {"pitch": 64, "velocity": 40, "note_on_time": 144.953, "note_off_time": 145.97}, {"pitch": 67, "velocity": 40, "note_on_time": 144.953, "note_off_time": 145.971}, {"pitch": 79, "velocity": 40, "note_on_time": 146.973, "note_off_time": 147.984}, {"pitch": 60, "velocity": 40, "note_on_time": 152.996, "note_off_time": 154.006}, {"pitch": 64, "velocity": 40, "note_on_time": 152.996, "note_off_time": 154.007}, {"pitch": 67, "velocity": 40, "note_on_time": 152.997, "note_off_time": 154.007}, {"pitch": 72, "velocity": 40, "note_on_time": 155.018, "note_off_time": 156.032}, {"pitch": 60, "velocity": 40, "note_on_time": 161.037, "note_off_time": 162.05}, {"pitch": 64, "velocity": 40, "note_on_time": 161.038, "note_off_time": 162.051}, {"pitch": 67, "velocity": 40, "note_on_time": 161.038, "note_off_time": 162.051}, {"pitch": 79, "velocity": 40, "note_on_time": 163.064, "note_off_time": 164.078}]</notes><options name="Option List">((4, 4), [0.5, 0.25], 3, 8, &lt;NoteRangePerHand.TWO_NOTES: 3&gt;, &lt;NoteRangePerHand.ONE_NOTE: 2&gt;, False, True, True, 100)</options></target_notes><trials><trial trial_no="1" timestamp="2023_06_19-10_47_23"><notes name="Played Notes">[{"pitch": 72, "velocity": 46, "note_on_time": 2.027, "note_off_time": 2.208}, {"pitch": 72, "velocity": 40, "note_on_time": 12.345, "note_off_time": 12.576}, {"pitch": 74, "velocity": 39, "note_on_time": 14.634, "note_off_time": 14.817}, {"pitch": 76, "velocity": 43, "note_on_time": 19.299, "note_off_time": 19.953}, {"pitch": 77, "velocity": 32, "note_on_time": 23.324, "note_off_time": 23.556}, {"pitch": 76, "velocity": 46, "note_on_time": 28.501, "note_off_time": 29.009}, {"pitch": 74, "velocity": 47, "note_on_time": 29.55, "note_off_time": 29.749}, {"pitch": 79, "velocity": 50, "note_on_time": 35.836, "note_off_time": 36.193}, {"pitch": 77, "velocity": 41, "note_on_time": 43.87, "note_off_time": 44.412}, {"pitch": 76, "velocity": 54, "note_on_time": 52.219, "note_off_time": 53.066}, {"pitch": 74, "velocity": 46, "note_on_time": 53.549, "note_off_time": 54.344}, {"pitch": 74, "velocity": 45, "note_on_time": 60.033, "note_off_time": 60.606}, {"pitch": 72, "velocity": 38, "note_on_time": 61.037, "note_off_time": 61.57}, {"pitch": 76, "velocity": 57, "note_on_time": 61.884, "note_off_time": 62.754}, {"pitch": 76, "velocity": 52, "note_on_time": 68.788, "note_off_time": 69.204}, {"pitch": 72, "velocity": 38, "note_on_time": 69.822, "note_off_time": 70.549}, {"pitch": 72, "velocity": 43, "note_on_time": 76.077, "note_off_time": 77.338}, {"pitch": 74, "velocity": 20, "note_on_time": 79.273, "note_off_time": 79.612}, {"pitch": 74, "velocity": 38, "note_on_time": 84.557, "note_off_time": 85.297}, {"pitch": 77, "velocity": 54, "note_on_time": 92.448, "note_off_time": 93.034}, {"pitch": 79, "velocity": 30, "note_on_time": 99.896, "note_off_time": 100.364}, {"pitch": 76, "velocity": 61, "note_on_time": 108.407, "note_off_time": 108.862}, {"pitch": 77, "velocity": 49, "note_on_time": 109.181, "note_off_time": 109.728}, {"pitch": 74, "velocity": 55, "note_on_time": 110.412, "note_off_time": 111.144}, {"pitch": 74, "velocity": 50, "note_on_time": 116.326, "note_off_time": 117.352}, {"pitch": 76, "velocity": 49, "note_on_time": 117.957, "note_off_time": 118.407}, {"pitch": 72, "velocity": 16, "note_on_time": 119.101, "note_off_time": 119.411}, {"pitch": 77, "velocity": 47, "note_on_time": 124.84, "note_off_time": 125.433}, {"pitch": 77, "velocity": 40, "note_on_time": 132.664, "note_off_time": 133.157}, {"pitch": 79, "velocity": 50, "note_on_time": 133.391, "note_off_time": 134.027}, {"pitch": 76, "velocity": 52, "note_on_time": 134.247, "note_off_time": 135.431}, {"pitch": 76, "velocity": 52, "note_on_time": 140.337, "note_off_time": 141.121}, {"pitch": 77, "velocity": 46, "note_on_time": 141.428, "note_off_time": 142.246}, {"pitch": 74, "velocity": 41, "note_on_time": 142.427, "note_off_time": 143.477}, {"pitch": 79, "velocity": 20, "note_on_time": 148.18, "note_off_time": 148.837}, {"pitch": 76, "velocity": 51, "note_on_time": 157.245, "note_off_time": 157.837}, {"pitch": 77, "velocity": 49, "note_on_time": 158.257, "note_off_time": 159.429}, {"pitch": 74, "velocity": 45, "note_on_time": 160.228, "note_off_time": 161.342}]</notes><guidance name="Guidance Mode">None</guidance><error name="Error value">99</error></trial></trials></MIDI>