<MIDI midiNo="2023_06_06-12_04_35"><target_notes><notes name="Note List">[{"pitch": 60, "velocity": 40, "note_on_time": 0.011, "note_off_time": 1.016}, {"pitch": 64, "velocity": 40, "note_on_time": 0.011, "note_off_time": 1.017}, {"pitch": 67, "velocity": 40, "note_on_time": 0.012, "note_off_time": 1.018}, {"pitch": 48, "velocity": 40, "note_on_time": 0.012, "note_off_time": 1.018}, {"pitch": 52, "velocity": 40, "note_on_time": 1.018, "note_off_time": 2.023}, {"pitch": 55, "velocity": 40, "note_on_time": 1.018, "note_off_time": 2.024}, {"pitch": 79, "velocity": 40, "note_on_time": 2.023, "note_off_time": 3.031}, {"pitch": 48, "velocity": 40, "note_on_time": 2.024, "note_off_time": 3.032}, {"pitch": 52, "velocity": 40, "note_on_time": 3.032, "note_off_time": 4.037}, {"pitch": 55, "velocity": 40, "note_on_time": 3.032, "note_off_time": 4.037}, {"pitch": 48, "velocity": 40, "note_on_time": 4.037, "note_off_time": 5.051}, {"pitch": 52, "velocity": 40, "note_on_time": 5.051, "note_off_time": 6.066}, {"pitch": 55, "velocity": 40, "note_on_time": 5.051, "note_off_time": 6.066}, {"pitch": 48, "velocity": 40, "note_on_time": 6.066, "note_off_time": 7.068}, {"pitch": 52, "velocity": 40, "note_on_time": 7.068, "note_off_time": 8.084}, {"pitch": 55, "velocity": 40, "note_on_time": 7.068, "note_off_time": 8.084}, {"pitch": 60, "velocity": 40, "note_on_time": 8.082, "note_off_time": 9.092}, {"pitch": 64, "velocity": 40, "note_on_time": 8.083, "note_off_time": 9.093}, {"pitch": 67, "velocity": 40, "note_on_time": 8.084, "note_off_time": 9.093}, {"pitch": 48, "velocity": 40, "note_on_time": 8.084, "note_off_time": 9.093}, {"pitch": 52, "velocity": 40, "note_on_time": 9.093, "note_off_time": 10.095}, {"pitch": 55, "velocity": 40, "note_on_time": 9.093, "note_off_time": 10.095}, {"pitch": 77, "velocity": 40, "note_on_time": 10.095, "note_off_time": 11.108}, {"pitch": 48, "velocity": 40, "note_on_time": 10.096, "note_off_time": 11.108}, {"pitch": 52, "velocity": 40, "note_on_time": 11.108, "note_off_time": 12.113}, {"pitch": 55, "velocity": 40, "note_on_time": 11.108, "note_off_time": 12.113}, {"pitch": 48, "velocity": 40, "note_on_time": 12.113, "note_off_time": 13.123}, {"pitch": 52, "velocity": 40, "note_on_time": 13.123, "note_off_time": 14.132}, {"pitch": 55, "velocity": 40, "note_on_time": 13.123, "note_off_time": 14.132}, {"pitch": 48, "velocity": 40, "note_on_time": 14.132, "note_off_time": 15.144}, {"pitch": 52, "velocity": 40, "note_on_time": 15.144, "note_off_time": 16.148}, {"pitch": 55, "velocity": 40, "note_on_time": 15.144, "note_off_time": 16.148}, {"pitch": 60, "velocity": 40, "note_on_time": 16.147, "note_off_time": 17.157}, {"pitch": 64, "velocity": 40, "note_on_time": 16.148, "note_off_time": 17.157}, {"pitch": 67, "velocity": 40, "note_on_time": 16.148, "note_off_time": 17.157}, {"pitch": 48, "velocity": 40, "note_on_time": 16.148, "note_off_time": 17.157}, {"pitch": 52, "velocity": 40, "note_on_time": 17.157, "note_off_time": 18.174}, {"pitch": 55, "velocity": 40, "note_on_time": 17.157, "note_off_time": 18.174}, {"pitch": 79, "velocity": 40, "note_on_time": 18.174, "note_off_time": 19.186}, {"pitch": 48, "velocity": 40, "note_on_time": 18.174, "note_off_time": 19.186}, {"pitch": 52, "velocity": 40, "note_on_time": 19.186, "note_off_time": 20.197}, {"pitch": 55, "velocity": 40, "note_on_time": 19.186, "note_off_time": 20.197}, {"pitch": 48, "velocity": 40, "note_on_time": 20.197, "note_off_time": 21.209}, {"pitch": 52, "velocity": 40, "note_on_time": 21.209, "note_off_time": 22.223}, {"pitch": 55, "velocity": 40, "note_on_time": 21.209, "note_off_time": 22.223}, {"pitch": 48, "velocity": 40, "note_on_time": 22.223, "note_off_time": 23.227}, {"pitch": 52, "velocity": 40, "note_on_time": 23.227, "note_off_time": 24.235}, {"pitch": 55, "velocity": 40, "note_on_time": 23.227, "note_off_time": 24.235}, {"pitch": 60, "velocity": 40, "note_on_time": 24.234, "note_off_time": 25.25}, {"pitch": 64, "velocity": 40, "note_on_time": 24.234, "note_off_time": 25.251}, {"pitch": 67, "velocity": 40, "note_on_time": 24.235, "note_off_time": 25.251}, {"pitch": 48, "velocity": 40, "note_on_time": 24.235, "note_off_time": 25.251}, {"pitch": 52, "velocity": 40, "note_on_time": 25.252, "note_off_time": 26.266}, {"pitch": 55, "velocity": 40, "note_on_time": 25.252, "note_off_time": 26.266}, {"pitch": 76, "velocity": 40, "note_on_time": 26.266, "note_off_time": 27.276}, {"pitch": 48, "velocity": 40, "note_on_time": 26.266, "note_off_time": 27.276}, {"pitch": 52, "velocity": 40, "note_on_time": 27.277, "note_off_time": 28.282}, {"pitch": 55, "velocity": 40, "note_on_time": 27.277, "note_off_time": 28.282}, {"pitch": 48, "velocity": 40, "note_on_time": 28.283, "note_off_time": 29.301}, {"pitch": 52, "velocity": 40, "note_on_time": 29.301, "note_off_time": 30.305}, {"pitch": 55, "velocity": 40, "note_on_time": 29.301, "note_off_time": 30.305}, {"pitch": 48, "velocity": 40, "note_on_time": 30.305, "note_off_time": 31.319}, {"pitch": 52, "velocity": 40, "note_on_time": 31.319, "note_off_time": 32.333}, {"pitch": 55, "velocity": 40, "note_on_time": 31.319, "note_off_time": 32.334}, {"pitch": 60, "velocity": 40, "note_on_time": 32.332, "note_off_time": 33.344}, {"pitch": 64, "velocity": 40, "note_on_time": 32.333, "note_off_time": 33.345}, {"pitch": 67, "velocity": 40, "note_on_time": 32.333, "note_off_time": 33.345}, {"pitch": 48, "velocity": 40, "note_on_time": 32.334, "note_off_time": 33.346}, {"pitch": 52, "velocity": 40, "note_on_time": 33.346, "note_off_time": 34.36}, {"pitch": 55, "velocity": 40, "note_on_time": 33.346, "note_off_time": 34.361}, {"pitch": 74, "velocity": 40, "note_on_time": 34.36, "note_off_time": 35.364}, {"pitch": 48, "velocity": 40, "note_on_time": 34.361, "note_off_time": 35.364}, {"pitch": 52, "velocity": 40, "note_on_time": 35.364, "note_off_time": 36.368}, {"pitch": 55, "velocity": 40, "note_on_time": 35.364, "note_off_time": 36.368}, {"pitch": 48, "velocity": 40, "note_on_time": 36.368, "note_off_time": 37.37}, {"pitch": 52, "velocity": 40, "note_on_time": 37.37, "note_off_time": 38.373}, {"pitch": 55, "velocity": 40, "note_on_time": 37.37, "note_off_time": 38.373}, {"pitch": 48, "velocity": 40, "note_on_time": 38.373, "note_off_time": 39.383}, {"pitch": 52, "velocity": 40, "note_on_time": 39.383, "note_off_time": 40.4}, {"pitch": 55, "velocity": 40, "note_on_time": 39.383, "note_off_time": 40.4}, {"pitch": 60, "velocity": 40, "note_on_time": 40.399, "note_off_time": 41.412}, {"pitch": 64, "velocity": 40, "note_on_time": 40.399, "note_off_time": 41.413}, {"pitch": 67, "velocity": 40, "note_on_time": 40.4, "note_off_time": 41.413}, {"pitch": 76, "velocity": 40, "note_on_time": 42.419, "note_off_time": 43.421}, {"pitch": 60, "velocity": 40, "note_on_time": 48.423, "note_off_time": 49.435}, {"pitch": 64, "velocity": 40, "note_on_time": 48.423, "note_off_time": 49.436}, {"pitch": 67, "velocity": 40, "note_on_time": 48.424, "note_off_time": 49.436}, {"pitch": 77, "velocity": 40, "note_on_time": 50.445, "note_off_time": 51.459}, {"pitch": 60, "velocity": 40, "note_on_time": 56.472, "note_off_time": 57.489}, {"pitch": 64, "velocity": 40, "note_on_time": 56.473, "note_off_time": 57.49}, {"pitch": 67, "velocity": 40, "note_on_time": 56.473, "note_off_time": 57.49}, {"pitch": 76, "velocity": 40, "note_on_time": 58.503, "note_off_time": 59.511}, {"pitch": 60, "velocity": 40, "note_on_time": 64.518, "note_off_time": 65.531}, {"pitch": 64, "velocity": 40, "note_on_time": 64.519, "note_off_time": 65.532}, {"pitch": 67, "velocity": 40, "note_on_time": 64.519, "note_off_time": 65.532}, {"pitch": 72, "velocity": 40, "note_on_time": 66.547, "note_off_time": 67.562}, {"pitch": 60, "velocity": 40, "note_on_time": 72.61, "note_off_time": 73.624}, {"pitch": 64, "velocity": 40, "note_on_time": 72.61, "note_off_time": 73.625}, {"pitch": 67, "velocity": 40, "note_on_time": 72.611, "note_off_time": 73.625}, {"pitch": 74, "velocity": 40, "note_on_time": 74.635, "note_off_time": 75.646}, {"pitch": 60, "velocity": 40, "note_on_time": 80.662, "note_off_time": 81.665}, {"pitch": 64, "velocity": 40, "note_on_time": 80.664, "note_off_time": 81.665}, {"pitch": 67, "velocity": 40, "note_on_time": 80.664, "note_off_time": 81.666}, {"pitch": 76, "velocity": 40, "note_on_time": 82.668, "note_off_time": 83.679}, {"pitch": 60, "velocity": 40, "note_on_time": 88.694, "note_off_time": 89.698}, {"pitch": 64, "velocity": 40, "note_on_time": 88.695, "note_off_time": 89.699}, {"pitch": 67, "velocity": 40, "note_on_time": 88.695, "note_off_time": 89.699}, {"pitch": 72, "velocity": 40, "note_on_time": 90.709, "note_off_time": 91.723}, {"pitch": 60, "velocity": 40, "note_on_time": 96.739, "note_off_time": 97.74}, {"pitch": 64, "velocity": 40, "note_on_time": 96.739, "note_off_time": 97.741}, {"pitch": 67, "velocity": 40, "note_on_time": 96.74, "note_off_time": 97.741}, {"pitch": 79, "velocity": 40, "note_on_time": 98.752, "note_off_time": 99.768}, {"pitch": 60, "velocity": 40, "note_on_time": 104.773, "note_off_time": 105.783}, {"pitch": 64, "velocity": 40, "note_on_time": 104.774, "note_off_time": 105.783}, {"pitch": 67, "velocity": 40, "note_on_time": 104.774, "note_off_time": 105.784}, {"pitch": 74, "velocity": 40, "note_on_time": 106.787, "note_off_time": 107.802}, {"pitch": 60, "velocity": 40, "note_on_time": 112.811, "note_off_time": 113.814}, {"pitch": 64, "velocity": 40, "note_on_time": 112.812, "note_off_time": 113.815}, {"pitch": 67, "velocity": 40, "note_on_time": 112.812, "note_off_time": 113.815}, {"pitch": 77, "velocity": 40, "note_on_time": 114.831, "note_off_time": 115.846}, {"pitch": 60, "velocity": 40, "note_on_time": 120.862, "note_off_time": 121.874}, {"pitch": 64, "velocity": 40, "note_on_time": 120.863, "note_off_time": 121.875}, {"pitch": 67, "velocity": 40, "note_on_time": 120.864, "note_off_time": 121.875}, {"pitch": 72, "velocity": 40, "note_on_time": 122.883, "note_off_time": 123.897}, {"pitch": 60, "velocity": 40, "note_on_time": 128.905, "note_off_time": 129.917}, {"pitch": 64, "velocity": 40, "note_on_time": 128.906, "note_off_time": 129.918}, {"pitch": 67, "velocity": 40, "note_on_time": 128.906, "note_off_time": 129.918}, {"pitch": 79, "velocity": 40, "note_on_time": 130.945, "note_off_time": 131.949}, {"pitch": 60, "velocity": 40, "note_on_time": 136.962, "note_off_time": 137.978}, {"pitch": 64, "velocity": 40, "note_on_time": 136.963, "note_off_time": 137.979}, {"pitch": 67, "velocity": 40, "note_on_time": 136.963, "note_off_time": 137.979}, {"pitch": 74, "velocity": 40, "note_on_time": 138.991, "note_off_time": 139.995}, {"pitch": 60, "velocity": 40, "note_on_time": 144.999, "note_off_time": 146.005}, {"pitch": 64, "velocity": 40, "note_on_time": 144.999, "note_off_time": 146.006}, {"pitch": 67, "velocity": 40, "note_on_time": 145.0, "note_off_time": 146.007}, {"pitch": 72, "velocity": 40, "note_on_time": 147.014, "note_off_time": 148.018}, {"pitch": 60, "velocity": 40, "note_on_time": 153.025, "note_off_time": 154.038}, {"pitch": 64, "velocity": 40, "note_on_time": 153.026, "note_off_time": 154.039}, {"pitch": 67, "velocity": 40, "note_on_time": 153.026, "note_off_time": 154.039}, {"pitch": 77, "velocity": 40, "note_on_time": 155.052, "note_off_time": 156.06}, {"pitch": 60, "velocity": 40, "note_on_time": 161.07, "note_off_time": 162.076}, {"pitch": 64, "velocity": 40, "note_on_time": 161.071, "note_off_time": 162.077}, {"pitch": 67, "velocity": 40, "note_on_time": 161.071, "note_off_time": 162.077}, {"pitch": 79, "velocity": 40, "note_on_time": 163.085, "note_off_time": 164.101}]</notes><options name="Option List">((4, 4), [0.5, 0.25], 3, 8, &lt;NoteRangePerHand.TWO_NOTES: 3&gt;, &lt;NoteRangePerHand.ONE_NOTE: 2&gt;, False, True, True, 100)</options></target_notes><trials><trial trial_no="1" timestamp="2023_06_06-12_01_51"><notes name="Played Notes">[{"pitch": 77, "velocity": 71, "note_on_time": 3.64, "note_off_time": 4.032}, {"pitch": 79, "velocity": 67, "note_on_time": 4.481, "note_off_time": 4.918}, {"pitch": 77, "velocity": 60, "note_on_time": 11.719, "note_off_time": 12.688}, {"pitch": 79, "velocity": 43, "note_on_time": 19.584, "note_off_time": 20.714}, {"pitch": 76, "velocity": 55, "note_on_time": 27.593, "note_off_time": 28.912}, {"pitch": 74, "velocity": 60, "note_on_time": 36.09, "note_off_time": 37.194}, {"pitch": 76, "velocity": 53, "note_on_time": 43.87, "note_off_time": 45.117}, {"pitch": 77, "velocity": 56, "note_on_time": 51.996, "note_off_time": 53.294}, {"pitch": 76, "velocity": 61, "note_on_time": 60.125, "note_off_time": 61.379}, {"pitch": 72, "velocity": 50, "note_on_time": 67.886, "note_off_time": 69.565}, {"pitch": 74, "velocity": 52, "note_on_time": 76.215, "note_off_time": 77.408}, {"pitch": 77, "velocity": 41, "note_on_time": 84.059, "note_off_time": 84.487}, {"pitch": 79, "velocity": 70, "note_on_time": 84.648, "note_off_time": 85.004}, {"pitch": 76, "velocity": 58, "note_on_time": 85.267, "note_off_time": 86.87}, {"pitch": 72, "velocity": 52, "note_on_time": 92.117, "note_off_time": 93.397}, {"pitch": 79, "velocity": 58, "note_on_time": 99.934, "note_off_time": 101.152}, {"pitch": 76, "velocity": 69, "note_on_time": 108.43, "note_off_time": 108.778}, {"pitch": 74, "velocity": 55, "note_on_time": 108.932, "note_off_time": 110.051}, {"pitch": 77, "velocity": 48, "note_on_time": 116.546, "note_off_time": 117.67}, {"pitch": 72, "velocity": 53, "note_on_time": 124.227, "note_off_time": 125.145}, {"pitch": 79, "velocity": 60, "note_on_time": 132.125, "note_off_time": 133.068}, {"pitch": 74, "velocity": 56, "note_on_time": 140.837, "note_off_time": 141.934}, {"pitch": 72, "velocity": 46, "note_on_time": 148.411, "note_off_time": 149.424}, {"pitch": 77, "velocity": 42, "note_on_time": 156.422, "note_off_time": 157.813}]</notes><guidance name="Guidance Mode">None</guidance><error name="Error value">99</error></trial></trials></MIDI>