<MIDI midiNo="2023_06_06-11_51_44"><target_notes><notes name="Note List">[{"pitch": 60, "velocity": 40, "note_on_time": 0.01, "note_off_time": 1.019}, {"pitch": 64, "velocity": 40, "note_on_time": 0.01, "note_off_time": 1.019}, {"pitch": 67, "velocity": 40, "note_on_time": 0.01, "note_off_time": 1.02}, {"pitch": 48, "velocity": 40, "note_on_time": 0.01, "note_off_time": 1.02}, {"pitch": 52, "velocity": 40, "note_on_time": 1.02, "note_off_time": 2.036}, {"pitch": 55, "velocity": 40, "note_on_time": 1.02, "note_off_time": 2.037}, {"pitch": 79, "velocity": 40, "note_on_time": 2.036, "note_off_time": 3.073}, {"pitch": 48, "velocity": 40, "note_on_time": 2.037, "note_off_time": 3.073}, {"pitch": 52, "velocity": 40, "note_on_time": 3.073, "note_off_time": 4.076}, {"pitch": 55, "velocity": 40, "note_on_time": 3.073, "note_off_time": 4.076}, {"pitch": 48, "velocity": 40, "note_on_time": 4.076, "note_off_time": 5.09}, {"pitch": 52, "velocity": 40, "note_on_time": 5.09, "note_off_time": 6.102}, {"pitch": 55, "velocity": 40, "note_on_time": 5.09, "note_off_time": 6.102}, {"pitch": 48, "velocity": 40, "note_on_time": 6.102, "note_off_time": 7.11}, {"pitch": 52, "velocity": 40, "note_on_time": 7.11, "note_off_time": 8.126}, {"pitch": 55, "velocity": 40, "note_on_time": 7.11, "note_off_time": 8.126}, {"pitch": 60, "velocity": 40, "note_on_time": 8.125, "note_off_time": 9.128}, {"pitch": 64, "velocity": 40, "note_on_time": 8.125, "note_off_time": 9.129}, {"pitch": 67, "velocity": 40, "note_on_time": 8.126, "note_off_time": 9.13}, {"pitch": 48, "velocity": 40, "note_on_time": 8.126, "note_off_time": 9.13}, {"pitch": 52, "velocity": 40, "note_on_time": 9.13, "note_off_time": 10.136}, {"pitch": 55, "velocity": 40, "note_on_time": 9.13, "note_off_time": 10.136}, {"pitch": 77, "velocity": 40, "note_on_time": 10.135, "note_off_time": 11.151}, {"pitch": 48, "velocity": 40, "note_on_time": 10.136, "note_off_time": 11.151}, {"pitch": 52, "velocity": 40, "note_on_time": 11.152, "note_off_time": 12.164}, {"pitch": 55, "velocity": 40, "note_on_time": 11.152, "note_off_time": 12.164}, {"pitch": 48, "velocity": 40, "note_on_time": 12.164, "note_off_time": 13.178}, {"pitch": 52, "velocity": 40, "note_on_time": 13.178, "note_off_time": 14.183}, {"pitch": 55, "velocity": 40, "note_on_time": 13.178, "note_off_time": 14.183}, {"pitch": 48, "velocity": 40, "note_on_time": 14.183, "note_off_time": 15.22}, {"pitch": 52, "velocity": 40, "note_on_time": 15.22, "note_off_time": 16.224}, {"pitch": 55, "velocity": 40, "note_on_time": 15.22, "note_off_time": 16.224}, {"pitch": 60, "velocity": 40, "note_on_time": 16.223, "note_off_time": 17.237}, {"pitch": 64, "velocity": 40, "note_on_time": 16.223, "note_off_time": 17.237}, {"pitch": 67, "velocity": 40, "note_on_time": 16.224, "note_off_time": 17.238}, {"pitch": 48, "velocity": 40, "note_on_time": 16.224, "note_off_time": 17.238}, {"pitch": 52, "velocity": 40, "note_on_time": 17.238, "note_off_time": 18.244}, {"pitch": 55, "velocity": 40, "note_on_time": 17.238, "note_off_time": 18.244}, {"pitch": 79, "velocity": 40, "note_on_time": 18.244, "note_off_time": 19.257}, {"pitch": 48, "velocity": 40, "note_on_time": 18.244, "note_off_time": 19.257}, {"pitch": 52, "velocity": 40, "note_on_time": 19.257, "note_off_time": 20.267}, {"pitch": 55, "velocity": 40, "note_on_time": 19.257, "note_off_time": 20.267}, {"pitch": 48, "velocity": 40, "note_on_time": 20.267, "note_off_time": 21.284}, {"pitch": 52, "velocity": 40, "note_on_time": 21.284, "note_off_time": 22.295}, {"pitch": 55, "velocity": 40, "note_on_time": 21.284, "note_off_time": 22.295}, {"pitch": 48, "velocity": 40, "note_on_time": 22.295, "note_off_time": 23.309}, {"pitch": 52, "velocity": 40, "note_on_time": 23.309, "note_off_time": 24.321}, {"pitch": 55, "velocity": 40, "note_on_time": 23.309, "note_off_time": 24.321}, {"pitch": 60, "velocity": 40, "note_on_time": 24.319, "note_off_time": 25.33}, {"pitch": 64, "velocity": 40, "note_on_time": 24.32, "note_off_time": 25.331}, {"pitch": 67, "velocity": 40, "note_on_time": 24.32, "note_off_time": 25.331}, {"pitch": 48, "velocity": 40, "note_on_time": 24.321, "note_off_time": 25.331}, {"pitch": 52, "velocity": 40, "note_on_time": 25.331, "note_off_time": 26.345}, {"pitch": 55, "velocity": 40, "note_on_time": 25.331, "note_off_time": 26.345}, {"pitch": 74, "velocity": 40, "note_on_time": 26.345, "note_off_time": 27.359}, {"pitch": 48, "velocity": 40, "note_on_time": 26.345, "note_off_time": 27.359}, {"pitch": 52, "velocity": 40, "note_on_time": 27.36, "note_off_time": 28.372}, {"pitch": 55, "velocity": 40, "note_on_time": 27.36, "note_off_time": 28.372}, {"pitch": 48, "velocity": 40, "note_on_time": 28.372, "note_off_time": 29.378}, {"pitch": 52, "velocity": 40, "note_on_time": 29.378, "note_off_time": 30.391}, {"pitch": 55, "velocity": 40, "note_on_time": 29.378, "note_off_time": 30.391}, {"pitch": 48, "velocity": 40, "note_on_time": 30.391, "note_off_time": 31.398}, {"pitch": 52, "velocity": 40, "note_on_time": 31.398, "note_off_time": 32.411}, {"pitch": 55, "velocity": 40, "note_on_time": 31.398, "note_off_time": 32.411}, {"pitch": 60, "velocity": 40, "note_on_time": 32.41, "note_off_time": 33.421}, {"pitch": 64, "velocity": 40, "note_on_time": 32.41, "note_off_time": 33.422}, {"pitch": 67, "velocity": 40, "note_on_time": 32.411, "note_off_time": 33.423}, {"pitch": 48, "velocity": 40, "note_on_time": 32.411, "note_off_time": 33.423}, {"pitch": 52, "velocity": 40, "note_on_time": 33.423, "note_off_time": 34.429}, {"pitch": 55, "velocity": 40, "note_on_time": 33.423, "note_off_time": 34.429}, {"pitch": 77, "velocity": 40, "note_on_time": 34.429, "note_off_time": 35.443}, {"pitch": 48, "velocity": 40, "note_on_time": 34.429, "note_off_time": 35.444}, {"pitch": 52, "velocity": 40, "note_on_time": 35.444, "note_off_time": 36.455}, {"pitch": 55, "velocity": 40, "note_on_time": 35.444, "note_off_time": 36.456}, {"pitch": 48, "velocity": 40, "note_on_time": 36.456, "note_off_time": 37.469}, {"pitch": 52, "velocity": 40, "note_on_time": 37.469, "note_off_time": 38.483}, {"pitch": 55, "velocity": 40, "note_on_time": 37.469, "note_off_time": 38.483}, {"pitch": 48, "velocity": 40, "note_on_time": 38.483, "note_off_time": 39.492}, {"pitch": 52, "velocity": 40, "note_on_time": 39.492, "note_off_time": 40.507}, {"pitch": 55, "velocity": 40, "note_on_time": 39.492, "note_off_time": 40.507}, {"pitch": 60, "velocity": 40, "note_on_time": 40.506, "note_off_time": 41.518}, {"pitch": 64, "velocity": 40, "note_on_time": 40.507, "note_off_time": 41.519}, {"pitch": 67, "velocity": 40, "note_on_time": 40.507, "note_off_time": 41.52}, {"pitch": 76, "velocity": 40, "note_on_time": 42.535, "note_off_time": 43.548}, {"pitch": 60, "velocity": 40, "note_on_time": 48.556, "note_off_time": 49.567}, {"pitch": 64, "velocity": 40, "note_on_time": 48.557, "note_off_time": 49.567}, {"pitch": 67, "velocity": 40, "note_on_time": 48.557, "note_off_time": 49.568}, {"pitch": 74, "velocity": 40, "note_on_time": 50.58, "note_off_time": 51.582}, {"pitch": 60, "velocity": 40, "note_on_time": 56.583, "note_off_time": 57.598}, {"pitch": 64, "velocity": 40, "note_on_time": 56.584, "note_off_time": 57.598}, {"pitch": 67, "velocity": 40, "note_on_time": 56.585, "note_off_time": 57.598}, {"pitch": 72, "velocity": 40, "note_on_time": 58.601, "note_off_time": 59.612}, {"pitch": 60, "velocity": 40, "note_on_time": 64.618, "note_off_time": 65.629}, {"pitch": 64, "velocity": 40, "note_on_time": 64.619, "note_off_time": 65.63}, {"pitch": 67, "velocity": 40, "note_on_time": 64.619, "note_off_time": 65.63}, {"pitch": 79, "velocity": 40, "note_on_time": 66.646, "note_off_time": 67.647}, {"pitch": 60, "velocity": 40, "note_on_time": 72.658, "note_off_time": 73.668}, {"pitch": 64, "velocity": 40, "note_on_time": 72.658, "note_off_time": 73.669}, {"pitch": 67, "velocity": 40, "note_on_time": 72.659, "note_off_time": 73.669}, {"pitch": 72, "velocity": 40, "note_on_time": 74.685, "note_off_time": 75.701}, {"pitch": 60, "velocity": 40, "note_on_time": 80.707, "note_off_time": 81.724}, {"pitch": 64, "velocity": 40, "note_on_time": 80.708, "note_off_time": 81.724}, {"pitch": 67, "velocity": 40, "note_on_time": 80.709, "note_off_time": 81.725}, {"pitch": 74, "velocity": 40, "note_on_time": 82.734, "note_off_time": 83.736}, {"pitch": 60, "velocity": 40, "note_on_time": 88.741, "note_off_time": 89.743}, {"pitch": 64, "velocity": 40, "note_on_time": 88.741, "note_off_time": 89.743}, {"pitch": 67, "velocity": 40, "note_on_time": 88.742, "note_off_time": 89.744}, {"pitch": 77, "velocity": 40, "note_on_time": 90.752, "note_off_time": 91.763}, {"pitch": 60, "velocity": 40, "note_on_time": 96.778, "note_off_time": 97.796}, {"pitch": 64, "velocity": 40, "note_on_time": 96.779, "note_off_time": 97.796}, {"pitch": 67, "velocity": 40, "note_on_time": 96.779, "note_off_time": 97.797}, {"pitch": 74, "velocity": 40, "note_on_time": 98.82, "note_off_time": 99.836}, {"pitch": 60, "velocity": 40, "note_on_time": 104.844, "note_off_time": 105.86}, {"pitch": 64, "velocity": 40, "note_on_time": 104.845, "note_off_time": 105.861}, {"pitch": 67, "velocity": 40, "note_on_time": 104.846, "note_off_time": 105.862}, {"pitch": 76, "velocity": 40, "note_on_time": 106.866, "note_off_time": 107.871}, {"pitch": 60, "velocity": 40, "note_on_time": 112.885, "note_off_time": 113.887}, {"pitch": 64, "velocity": 40, "note_on_time": 112.885, "note_off_time": 113.888}, {"pitch": 67, "velocity": 40, "note_on_time": 112.886, "note_off_time": 113.888}, {"pitch": 72, "velocity": 40, "note_on_time": 114.9, "note_off_time": 115.913}, {"pitch": 60, "velocity": 40, "note_on_time": 120.918, "note_off_time": 121.926}, {"pitch": 64, "velocity": 40, "note_on_time": 120.919, "note_off_time": 121.928}, {"pitch": 67, "velocity": 40, "note_on_time": 120.919, "note_off_time": 121.928}, {"pitch": 76, "velocity": 40, "note_on_time": 122.935, "note_off_time": 123.94}, {"pitch": 60, "velocity": 40, "note_on_time": 128.956, "note_off_time": 129.972}, {"pitch": 64, "velocity": 40, "note_on_time": 128.956, "note_off_time": 129.973}, {"pitch": 67, "velocity": 40, "note_on_time": 128.957, "note_off_time": 129.973}, {"pitch": 72, "velocity": 40, "note_on_time": 130.979, "note_off_time": 131.991}, {"pitch": 60, "velocity": 40, "note_on_time": 136.996, "note_off_time": 138.013}, {"pitch": 64, "velocity": 40, "note_on_time": 136.997, "note_off_time": 138.013}, {"pitch": 67, "velocity": 40, "note_on_time": 136.998, "note_off_time": 138.013}, {"pitch": 79, "velocity": 40, "note_on_time": 139.021, "note_off_time": 140.024}, {"pitch": 60, "velocity": 40, "note_on_time": 145.029, "note_off_time": 146.035}, {"pitch": 64, "velocity": 40, "note_on_time": 145.03, "note_off_time": 146.036}, {"pitch": 67, "velocity": 40, "note_on_time": 145.03, "note_off_time": 146.037}, {"pitch": 76, "velocity": 40, "note_on_time": 147.039, "note_off_time": 148.046}, {"pitch": 60, "velocity": 40, "note_on_time": 153.056, "note_off_time": 154.062}, {"pitch": 64, "velocity": 40, "note_on_time": 153.057, "note_off_time": 154.063}, {"pitch": 67, "velocity": 40, "note_on_time": 153.057, "note_off_time": 154.064}, {"pitch": 77, "velocity": 40, "note_on_time": 155.073, "note_off_time": 156.082}, {"pitch": 60, "velocity": 40, "note_on_time": 161.095, "note_off_time": 162.1}, {"pitch": 64, "velocity": 40, "note_on_time": 161.096, "note_off_time": 162.101}, {"pitch": 67, "velocity": 40, "note_on_time": 161.096, "note_off_time": 162.102}, {"pitch": 79, "velocity": 40, "note_on_time": 163.105, "note_off_time": 164.111}]</notes><options name="Option List">((4, 4), [0.5, 0.25], 3, 8, &lt;NoteRangePerHand.TWO_NOTES: 3&gt;, &lt;NoteRangePerHand.ONE_NOTE: 2&gt;, False, True, True, 100)</options></target_notes><trials><trial trial_no="1" timestamp="2023_06_06-11_49_00"><notes name="Played Notes">[{"pitch": 79, "velocity": 54, "note_on_time": 2.224, "note_off_time": 2.661}, {"pitch": 72, "velocity": 66, "note_on_time": 2.225, "note_off_time": 2.675}, {"pitch": 76, "velocity": 47, "note_on_time": 2.231, "note_off_time": 2.744}, {"pitch": 72, "velocity": 59, "note_on_time": 4.433, "note_off_time": 5.291}, {"pitch": 79, "velocity": 49, "note_on_time": 4.431, "note_off_time": 5.555}, {"pitch": 76, "velocity": 47, "note_on_time": 4.432, "note_off_time": 6.066}, {"pitch": 72, "velocity": 60, "note_on_time": 7.231, "note_off_time": 8.678}, {"pitch": 77, "velocity": 39, "note_on_time": 12.156, "note_off_time": 14.061}, {"pitch": 79, "velocity": 61, "note_on_time": 19.431, "note_off_time": 21.836}, {"pitch": 74, "velocity": 43, "note_on_time": 27.952, "note_off_time": 30.412}, {"pitch": 77, "velocity": 60, "note_on_time": 36.269, "note_off_time": 39.126}, {"pitch": 79, "velocity": 53, "note_on_time": 44.056, "note_off_time": 45.756}, {"pitch": 76, "velocity": 50, "note_on_time": 46.552, "note_off_time": 47.513}, {"pitch": 74, "velocity": 59, "note_on_time": 52.64, "note_off_time": 53.559}, {"pitch": 72, "velocity": 53, "note_on_time": 60.014, "note_off_time": 61.246}, {"pitch": 79, "velocity": 55, "note_on_time": 68.115, "note_off_time": 69.496}, {"pitch": 74, "velocity": 55, "note_on_time": 76.26, "note_off_time": 77.062}, {"pitch": 77, "velocity": 60, "note_on_time": 77.805, "note_off_time": 78.123}, {"pitch": 76, "velocity": 69, "note_on_time": 78.295, "note_off_time": 79.425}, {"pitch": 74, "velocity": 47, "note_on_time": 84.245, "note_off_time": 85.195}, {"pitch": 77, "velocity": 55, "note_on_time": 92.724, "note_off_time": 93.815}, {"pitch": 74, "velocity": 56, "note_on_time": 100.396, "note_off_time": 101.576}, {"pitch": 79, "velocity": 51, "note_on_time": 109.1, "note_off_time": 109.597}, {"pitch": 76, "velocity": 54, "note_on_time": 110.054, "note_off_time": 111.013}, {"pitch": 72, "velocity": 57, "note_on_time": 116.411, "note_off_time": 117.507}, {"pitch": 74, "velocity": 55, "note_on_time": 124.838, "note_off_time": 125.207}, {"pitch": 77, "velocity": 69, "note_on_time": 125.569, "note_off_time": 125.994}, {"pitch": 76, "velocity": 73, "note_on_time": 126.196, "note_off_time": 127.084}, {"pitch": 72, "velocity": 54, "note_on_time": 132.417, "note_off_time": 133.49}, {"pitch": 79, "velocity": 54, "note_on_time": 140.361, "note_off_time": 141.276}, {"pitch": 76, "velocity": 55, "note_on_time": 149.158, "note_off_time": 150.237}, {"pitch": 77, "velocity": 50, "note_on_time": 156.693, "note_off_time": 157.858}]</notes><guidance name="Guidance Mode">None</guidance><error name="Error value">99</error></trial><trial trial_no="2" timestamp="2023_06_06-11_52_47"><notes name="Played Notes">[{"pitch": 72, "velocity": 41, "note_on_time": 1.852, "note_off_time": 2.457}, {"pitch": 79, "velocity": 60, "note_on_time": 2.447, "note_off_time": 3.107}, {"pitch": 77, "velocity": 56, "note_on_time": 3.015, "note_off_time": 3.685}, {"pitch": 76, "velocity": 60, "note_on_time": 3.684, "note_off_time": 4.366}, {"pitch": 74, "velocity": 62, "note_on_time": 4.289, "note_off_time": 5.04}, {"pitch": 79, "velocity": 62, "note_on_time": 4.997, "note_off_time": 5.575}, {"pitch": 77, "velocity": 48, "note_on_time": 5.517, "note_off_time": 6.117}, {"pitch": 76, "velocity": 58, "note_on_time": 6.078, "note_off_time": 6.84}, {"pitch": 74, "velocity": 55, "note_on_time": 6.735, "note_off_time": 7.378}, {"pitch": 72, "velocity": 66, "note_on_time": 7.335, "note_off_time": 7.993}, {"pitch": 76, "velocity": 53, "note_on_time": 7.941, "note_off_time": 8.636}, {"pitch": 79, "velocity": 60, "note_on_time": 8.546, "note_off_time": 9.382}, {"pitch": 72, "velocity": 48, "note_on_time": 10.207, "note_off_time": 10.779}, {"pitch": 76, "velocity": 38, "note_on_time": 10.798, "note_off_time": 11.369}, {"pitch": 79, "velocity": 39, "note_on_time": 11.38, "note_off_time": 11.756}, {"pitch": 72, "velocity": 51, "note_on_time": 12.234, "note_off_time": 12.747}, {"pitch": 74, "velocity": 49, "note_on_time": 12.754, "note_off_time": 13.317}, {"pitch": 76, "velocity": 50, "note_on_time": 13.32, "note_off_time": 13.946}, {"pitch": 77, "velocity": 51, "note_on_time": 13.955, "note_off_time": 14.69}, {"pitch": 79, "velocity": 54, "note_on_time": 14.656, "note_off_time": 15.259}, {"pitch": 77, "velocity": 46, "note_on_time": 15.255, "note_off_time": 15.88}, {"pitch": 76, "velocity": 52, "note_on_time": 15.881, "note_off_time": 16.519}, {"pitch": 74, "velocity": 45, "note_on_time": 16.447, "note_off_time": 17.154}, {"pitch": 72, "velocity": 60, "note_on_time": 17.122, "note_off_time": 17.777}, {"pitch": 76, "velocity": 49, "note_on_time": 17.763, "note_off_time": 18.401}, {"pitch": 79, "velocity": 51, "note_on_time": 18.342, "note_off_time": 18.997}, {"pitch": 76, "velocity": 36, "note_on_time": 18.967, "note_off_time": 19.583}, {"pitch": 72, "velocity": 44, "note_on_time": 19.573, "note_off_time": 20.248}, {"pitch": 76, "velocity": 58, "note_on_time": 20.19, "note_off_time": 20.837}, {"pitch": 79, "velocity": 50, "note_on_time": 20.745, "note_off_time": 21.361}, {"pitch": 76, "velocity": 48, "note_on_time": 21.337, "note_off_time": 21.945}, {"pitch": 72, "velocity": 59, "note_on_time": 21.91, "note_off_time": 22.557}, {"pitch": 74, "velocity": 54, "note_on_time": 22.515, "note_off_time": 23.268}, {"pitch": 76, "velocity": 68, "note_on_time": 23.242, "note_off_time": 23.852}, {"pitch": 77, "velocity": 49, "note_on_time": 23.84, "note_off_time": 24.471}, {"pitch": 79, "velocity": 31, "note_on_time": 24.424, "note_off_time": 24.715}, {"pitch": 79, "velocity": 47, "note_on_time": 25.183, "note_off_time": 25.46}, {"pitch": 79, "velocity": 34, "note_on_time": 25.666, "note_off_time": 26.235}, {"pitch": 79, "velocity": 46, "note_on_time": 26.806, "note_off_time": 27.493}, {"pitch": 77, "velocity": 39, "note_on_time": 27.435, "note_off_time": 28.036}, {"pitch": 76, "velocity": 49, "note_on_time": 28.059, "note_off_time": 28.699}, {"pitch": 74, "velocity": 39, "note_on_time": 28.684, "note_off_time": 29.392}, {"pitch": 72, "velocity": 61, "note_on_time": 29.282, "note_off_time": 29.586}, {"pitch": 72, "velocity": 42, "note_on_time": 29.927, "note_off_time": 30.179}, {"pitch": 72, "velocity": 47, "note_on_time": 30.565, "note_off_time": 31.151}, {"pitch": 72, "velocity": 53, "note_on_time": 31.749, "note_off_time": 32.334}, {"pitch": 79, "velocity": 49, "note_on_time": 32.337, "note_off_time": 32.887}, {"pitch": 74, "velocity": 46, "note_on_time": 32.939, "note_off_time": 33.537}, {"pitch": 77, "velocity": 45, "note_on_time": 33.55, "note_off_time": 34.127}, {"pitch": 76, "velocity": 60, "note_on_time": 34.121, "note_off_time": 34.765}, {"pitch": 77, "velocity": 43, "note_on_time": 34.716, "note_off_time": 35.395}, {"pitch": 74, "velocity": 50, "note_on_time": 35.395, "note_off_time": 36.007}, {"pitch": 79, "velocity": 56, "note_on_time": 36.001, "note_off_time": 36.684}, {"pitch": 72, "velocity": 44, "note_on_time": 36.662, "note_off_time": 37.215}, {"pitch": 74, "velocity": 56, "note_on_time": 37.182, "note_off_time": 37.804}, {"pitch": 76, "velocity": 65, "note_on_time": 37.732, "note_off_time": 38.356}, {"pitch": 77, "velocity": 53, "note_on_time": 38.323, "note_off_time": 39.005}, {"pitch": 79, "velocity": 63, "note_on_time": 38.935, "note_off_time": 39.436}, {"pitch": 79, "velocity": 45, "note_on_time": 39.616, "note_off_time": 40.055}, {"pitch": 79, "velocity": 48, "note_on_time": 40.293, "note_off_time": 41.047}, {"pitch": 79, "velocity": 51, "note_on_time": 41.425, "note_off_time": 42.064}, {"pitch": 77, "velocity": 51, "note_on_time": 42.049, "note_off_time": 42.744}, {"pitch": 76, "velocity": 49, "note_on_time": 42.735, "note_off_time": 43.416}, {"pitch": 74, "velocity": 58, "note_on_time": 43.267, "note_off_time": 43.915}, {"pitch": 72, "velocity": 51, "note_on_time": 43.841, "note_off_time": 44.216}, {"pitch": 72, "velocity": 39, "note_on_time": 44.487, "note_off_time": 44.749}, {"pitch": 72, "velocity": 41, "note_on_time": 45.081, "note_off_time": 45.929}, {"pitch": 72, "velocity": 69, "note_on_time": 46.323, "note_off_time": 46.928}, {"pitch": 74, "velocity": 56, "note_on_time": 46.896, "note_off_time": 47.464}, {"pitch": 76, "velocity": 56, "note_on_time": 47.462, "note_off_time": 48.081}, {"pitch": 77, "velocity": 51, "note_on_time": 48.117, "note_off_time": 48.777}, {"pitch": 79, "velocity": 57, "note_on_time": 48.731, "note_off_time": 49.433}, {"pitch": 77, "velocity": 43, "note_on_time": 49.313, "note_off_time": 49.961}, {"pitch": 76, "velocity": 54, "note_on_time": 49.911, "note_off_time": 50.618}, {"pitch": 74, "velocity": 38, "note_on_time": 50.525, "note_off_time": 51.244}, {"pitch": 72, "velocity": 51, "note_on_time": 51.224, "note_off_time": 51.816}, {"pitch": 79, "velocity": 53, "note_on_time": 51.793, "note_off_time": 52.397}, {"pitch": 76, "velocity": 53, "note_on_time": 52.425, "note_off_time": 53.048}, {"pitch": 72, "velocity": 52, "note_on_time": 53.002, "note_off_time": 53.684}, {"pitch": 79, "velocity": 60, "note_on_time": 53.71, "note_off_time": 55.418}, {"pitch": 79, "velocity": 47, "note_on_time": 55.979, "note_off_time": 56.502}, {"pitch": 77, "velocity": 49, "note_on_time": 56.557, "note_off_time": 57.155}, {"pitch": 76, "velocity": 51, "note_on_time": 57.223, "note_off_time": 57.888}, {"pitch": 74, "velocity": 36, "note_on_time": 57.897, "note_off_time": 58.419}, {"pitch": 72, "velocity": 16, "note_on_time": 58.47, "note_off_time": 59.024}, {"pitch": 74, "velocity": 38, "note_on_time": 59.042, "note_off_time": 59.645}, {"pitch": 76, "velocity": 65, "note_on_time": 59.651, "note_off_time": 60.321}, {"pitch": 77, "velocity": 45, "note_on_time": 60.275, "note_off_time": 60.953}, {"pitch": 79, "velocity": 66, "note_on_time": 60.892, "note_off_time": 61.532}, {"pitch": 72, "velocity": 56, "note_on_time": 61.544, "note_off_time": 62.165}, {"pitch": 79, "velocity": 51, "note_on_time": 62.147, "note_off_time": 62.779}, {"pitch": 72, "velocity": 49, "note_on_time": 62.778, "note_off_time": 63.351}, {"pitch": 79, "velocity": 60, "note_on_time": 63.358, "note_off_time": 65.808}, {"pitch": 72, "velocity": 43, "note_on_time": 65.831, "note_off_time": 66.45}, {"pitch": 74, "velocity": 52, "note_on_time": 66.455, "note_off_time": 67.074}, {"pitch": 76, "velocity": 38, "note_on_time": 67.036, "note_off_time": 67.695}, {"pitch": 76, "velocity": 43, "note_on_time": 68.221, "note_off_time": 68.801}, {"pitch": 77, "velocity": 39, "note_on_time": 68.841, "note_off_time": 69.493}, {"pitch": 79, "velocity": 52, "note_on_time": 69.439, "note_off_time": 70.24}, {"pitch": 79, "velocity": 27, "note_on_time": 70.65, "note_off_time": 71.189}, {"pitch": 77, "velocity": 37, "note_on_time": 71.233, "note_off_time": 71.885}, {"pitch": 76, "velocity": 38, "note_on_time": 71.888, "note_off_time": 72.504}, {"pitch": 74, "velocity": 46, "note_on_time": 72.477, "note_off_time": 73.114}, {"pitch": 72, "velocity": 45, "note_on_time": 73.095, "note_off_time": 73.358}, {"pitch": 72, "velocity": 28, "note_on_time": 73.701, "note_off_time": 73.97}, {"pitch": 72, "velocity": 41, "note_on_time": 74.362, "note_off_time": 75.013}, {"pitch": 72, "velocity": 52, "note_on_time": 75.503, "note_off_time": 76.101}, {"pitch": 74, "velocity": 43, "note_on_time": 76.121, "note_off_time": 76.717}, {"pitch": 76, "velocity": 41, "note_on_time": 76.737, "note_off_time": 77.328}, {"pitch": 77, "velocity": 42, "note_on_time": 77.303, "note_off_time": 77.987}, {"pitch": 79, "velocity": 70, "note_on_time": 77.95, "note_off_time": 78.517}, {"pitch": 76, "velocity": 51, "note_on_time": 78.503, "note_off_time": 79.202}, {"pitch": 79, "velocity": 46, "note_on_time": 79.135, "note_off_time": 79.864}, {"pitch": 79, "velocity": 45, "note_on_time": 80.296, "note_off_time": 81.051}, {"pitch": 77, "velocity": 58, "note_on_time": 80.954, "note_off_time": 81.502}, {"pitch": 76, "velocity": 47, "note_on_time": 81.51, "note_off_time": 82.286}, {"pitch": 74, "velocity": 34, "note_on_time": 82.209, "note_off_time": 82.793}, {"pitch": 72, "velocity": 37, "note_on_time": 82.833, "note_off_time": 83.386}, {"pitch": 72, "velocity": 42, "note_on_time": 83.964, "note_off_time": 84.741}, {"pitch": 72, "velocity": 41, "note_on_time": 85.279, "note_off_time": 85.838}, {"pitch": 79, "velocity": 48, "note_on_time": 85.841, "note_off_time": 86.398}, {"pitch": 74, "velocity": 35, "note_on_time": 86.434, "note_off_time": 86.993}, {"pitch": 77, "velocity": 57, "note_on_time": 87.009, "note_off_time": 87.665}, {"pitch": 72, "velocity": 44, "note_on_time": 87.637, "note_off_time": 88.272}, {"pitch": 79, "velocity": 38, "note_on_time": 88.251, "note_off_time": 88.915}, {"pitch": 74, "velocity": 50, "note_on_time": 88.905, "note_off_time": 89.498}, {"pitch": 77, "velocity": 55, "note_on_time": 89.505, "note_off_time": 90.172}, {"pitch": 79, "velocity": 64, "note_on_time": 90.102, "note_off_time": 90.778}, {"pitch": 77, "velocity": 51, "note_on_time": 90.718, "note_off_time": 91.333}, {"pitch": 76, "velocity": 49, "note_on_time": 91.409, "note_off_time": 92.011}, {"pitch": 74, "velocity": 34, "note_on_time": 91.986, "note_off_time": 92.597}, {"pitch": 72, "velocity": 50, "note_on_time": 92.605, "note_off_time": 92.876}, {"pitch": 72, "velocity": 41, "note_on_time": 93.206, "note_off_time": 93.478}, {"pitch": 72, "velocity": 37, "note_on_time": 93.815, "note_off_time": 94.519}, {"pitch": 72, "velocity": 38, "note_on_time": 95.086, "note_off_time": 95.653}, {"pitch": 74, "velocity": 36, "note_on_time": 95.654, "note_off_time": 96.22}, {"pitch": 76, "velocity": 36, "note_on_time": 96.268, "note_off_time": 96.849}, {"pitch": 77, "velocity": 51, "note_on_time": 96.825, "note_off_time": 97.511}, {"pitch": 79, "velocity": 52, "note_on_time": 97.438, "note_off_time": 98.109}, {"pitch": 77, "velocity": 54, "note_on_time": 98.043, "note_off_time": 98.681}, {"pitch": 76, "velocity": 49, "note_on_time": 98.591, "note_off_time": 99.389}, {"pitch": 74, "velocity": 39, "note_on_time": 99.284, "note_off_time": 99.942}, {"pitch": 72, "velocity": 43, "note_on_time": 99.915, "note_off_time": 100.525}, {"pitch": 79, "velocity": 58, "note_on_time": 100.503, "note_off_time": 101.163}, {"pitch": 72, "velocity": 39, "note_on_time": 101.124, "note_off_time": 101.719}, {"pitch": 79, "velocity": 46, "note_on_time": 101.699, "note_off_time": 102.316}, {"pitch": 72, "velocity": 48, "note_on_time": 102.302, "note_off_time": 104.116}, {"pitch": 72, "velocity": 39, "note_on_time": 104.64, "note_off_time": 105.366}, {"pitch": 74, "velocity": 44, "note_on_time": 105.324, "note_off_time": 105.913}, {"pitch": 76, "velocity": 62, "note_on_time": 105.902, "note_off_time": 106.545}, {"pitch": 76, "velocity": 52, "note_on_time": 107.147, "note_off_time": 108.272}, {"pitch": 77, "velocity": 49, "note_on_time": 107.741, "note_off_time": 108.292}, {"pitch": 79, "velocity": 33, "note_on_time": 108.329, "note_off_time": 109.027}, {"pitch": 79, "velocity": 51, "note_on_time": 109.596, "note_off_time": 110.162}, {"pitch": 77, "velocity": 28, "note_on_time": 110.202, "note_off_time": 110.763}, {"pitch": 76, "velocity": 36, "note_on_time": 110.78, "note_off_time": 111.446}, {"pitch": 74, "velocity": 47, "note_on_time": 111.389, "note_off_time": 112.057}, {"pitch": 72, "velocity": 55, "note_on_time": 112.024, "note_off_time": 112.228}, {"pitch": 72, "velocity": 43, "note_on_time": 112.642, "note_off_time": 112.919}, {"pitch": 72, "velocity": 20, "note_on_time": 113.344, "note_off_time": 114.04}, {"pitch": 79, "velocity": 52, "note_on_time": 114.434, "note_off_time": 115.135}, {"pitch": 77, "velocity": 41, "note_on_time": 115.029, "note_off_time": 115.626}, {"pitch": 76, "velocity": 54, "note_on_time": 115.626, "note_off_time": 116.417}, {"pitch": 79, "velocity": 40, "note_on_time": 116.772, "note_off_time": 117.546}, {"pitch": 77, "velocity": 49, "note_on_time": 117.409, "note_off_time": 118.109}, {"pitch": 76, "velocity": 49, "note_on_time": 118.089, "note_off_time": 118.762}, {"pitch": 72, "velocity": 49, "note_on_time": 119.35, "note_off_time": 119.942}, {"pitch": 74, "velocity": 45, "note_on_time": 119.937, "note_off_time": 120.504}, {"pitch": 76, "velocity": 51, "note_on_time": 120.52, "note_off_time": 121.109}, {"pitch": 77, "velocity": 48, "note_on_time": 121.113, "note_off_time": 121.831}, {"pitch": 79, "velocity": 50, "note_on_time": 121.758, "note_off_time": 122.324}, {"pitch": 79, "velocity": 54, "note_on_time": 122.435, "note_off_time": 122.705}, {"pitch": 79, "velocity": 42, "note_on_time": 122.94, "note_off_time": 123.636}, {"pitch": 79, "velocity": 40, "note_on_time": 124.136, "note_off_time": 124.415}, {"pitch": 79, "velocity": 33, "note_on_time": 124.742, "note_off_time": 125.08}, {"pitch": 79, "velocity": 34, "note_on_time": 125.43, "note_off_time": 125.708}, {"pitch": 79, "velocity": 30, "note_on_time": 126.004, "note_off_time": 126.293}, {"pitch": 77, "velocity": 38, "note_on_time": 126.631, "note_off_time": 126.897}, {"pitch": 77, "velocity": 37, "note_on_time": 127.243, "note_off_time": 127.489}, {"pitch": 77, "velocity": 32, "note_on_time": 127.803, "note_off_time": 128.11}, {"pitch": 77, "velocity": 34, "note_on_time": 128.436, "note_off_time": 128.685}, {"pitch": 76, "velocity": 49, "note_on_time": 129.088, "note_off_time": 129.391}, {"pitch": 76, "velocity": 44, "note_on_time": 129.673, "note_off_time": 130.002}, {"pitch": 76, "velocity": 21, "note_on_time": 130.307, "note_off_time": 130.56}, {"pitch": 76, "velocity": 45, "note_on_time": 130.9, "note_off_time": 131.15}, {"pitch": 74, "velocity": 49, "note_on_time": 131.512, "note_off_time": 131.736}, {"pitch": 74, "velocity": 27, "note_on_time": 132.117, "note_off_time": 132.337}, {"pitch": 74, "velocity": 32, "note_on_time": 132.729, "note_off_time": 132.927}, {"pitch": 74, "velocity": 36, "note_on_time": 133.312, "note_off_time": 133.492}, {"pitch": 72, "velocity": 31, "note_on_time": 133.91, "note_off_time": 134.182}, {"pitch": 72, "velocity": 41, "note_on_time": 134.507, "note_off_time": 134.782}, {"pitch": 72, "velocity": 43, "note_on_time": 135.122, "note_off_time": 135.903}, {"pitch": 72, "velocity": 37, "note_on_time": 136.295, "note_off_time": 136.557}, {"pitch": 72, "velocity": 41, "note_on_time": 136.918, "note_off_time": 137.145}, {"pitch": 72, "velocity": 35, "note_on_time": 137.57, "note_off_time": 138.28}, {"pitch": 72, "velocity": 49, "note_on_time": 138.845, "note_off_time": 139.457}, {"pitch": 74, "velocity": 50, "note_on_time": 139.45, "note_off_time": 140.023}, {"pitch": 76, "velocity": 47, "note_on_time": 140.018, "note_off_time": 140.646}, {"pitch": 77, "velocity": 52, "note_on_time": 140.639, "note_off_time": 141.325}, {"pitch": 79, "velocity": 46, "note_on_time": 141.261, "note_off_time": 141.89}, {"pitch": 77, "velocity": 53, "note_on_time": 141.841, "note_off_time": 142.369}, {"pitch": 76, "velocity": 45, "note_on_time": 142.382, "note_off_time": 143.031}, {"pitch": 74, "velocity": 30, "note_on_time": 142.99, "note_off_time": 143.587}, {"pitch": 72, "velocity": 34, "note_on_time": 143.621, "note_off_time": 143.866}, {"pitch": 72, "velocity": 27, "note_on_time": 144.254, "note_off_time": 144.49}, {"pitch": 72, "velocity": 30, "note_on_time": 144.865, "note_off_time": 145.536}, {"pitch": 72, "velocity": 1, "note_on_time": 146.162, "note_off_time": 146.48}, {"pitch": 72, "velocity": 51, "note_on_time": 146.701, "note_off_time": 147.024}, {"pitch": 72, "velocity": 50, "note_on_time": 147.275, "note_off_time": 147.928}, {"pitch": 79, "velocity": 64, "note_on_time": 148.46, "note_off_time": 148.762}, {"pitch": 79, "velocity": 50, "note_on_time": 149.051, "note_off_time": 149.305}, {"pitch": 79, "velocity": 51, "note_on_time": 149.674, "note_off_time": 150.546}, {"pitch": 77, "velocity": 46, "note_on_time": 150.948, "note_off_time": 151.294}, {"pitch": 77, "velocity": 46, "note_on_time": 151.556, "note_off_time": 151.844}, {"pitch": 77, "velocity": 48, "note_on_time": 152.134, "note_off_time": 152.772}, {"pitch": 76, "velocity": 42, "note_on_time": 153.353, "note_off_time": 153.667}, {"pitch": 76, "velocity": 47, "note_on_time": 153.976, "note_off_time": 154.258}, {"pitch": 76, "velocity": 47, "note_on_time": 154.564, "note_off_time": 154.866}, {"pitch": 76, "velocity": 48, "note_on_time": 155.17, "note_off_time": 155.511}, {"pitch": 74, "velocity": 46, "note_on_time": 155.819, "note_off_time": 156.041}, {"pitch": 74, "velocity": 38, "note_on_time": 156.41, "note_off_time": 156.592}, {"pitch": 74, "velocity": 41, "note_on_time": 157.002, "note_off_time": 157.188}, {"pitch": 74, "velocity": 44, "note_on_time": 157.624, "note_off_time": 157.844}, {"pitch": 72, "velocity": 44, "note_on_time": 158.24, "note_off_time": 158.454}, {"pitch": 72, "velocity": 40, "note_on_time": 158.807, "note_off_time": 159.035}, {"pitch": 72, "velocity": 42, "note_on_time": 159.476, "note_off_time": 159.662}, {"pitch": 72, "velocity": 36, "note_on_time": 160.063, "note_off_time": 160.276}, {"pitch": 72, "velocity": 56, "note_on_time": 160.683, "note_off_time": 162.485}, {"pitch": 72, "velocity": 47, "note_on_time": 163.077, "note_off_time": 163.385}, {"pitch": 72, "velocity": 37, "note_on_time": 163.731, "note_off_time": 164.068}, {"pitch": 74, "velocity": 51, "note_on_time": 164.35, "note_off_time": 164.565}, {"pitch": 74, "velocity": 46, "note_on_time": 164.939, "note_off_time": 165.171}, {"pitch": 76, "velocity": 66, "note_on_time": 165.526, "note_off_time": 165.813}, {"pitch": 76, "velocity": 38, "note_on_time": 166.133, "note_off_time": 166.473}, {"pitch": 77, "velocity": 50, "note_on_time": 166.774, "note_off_time": 166.991}, {"pitch": 77, "velocity": 48, "note_on_time": 167.333, "note_off_time": 167.579}, {"pitch": 79, "velocity": 45, "note_on_time": 168.016, "note_off_time": 168.223}, {"pitch": 79, "velocity": 53, "note_on_time": 168.565, "note_off_time": 168.816}, {"pitch": 79, "velocity": 46, "note_on_time": 169.196, "note_off_time": 169.511}, {"pitch": 77, "velocity": 57, "note_on_time": 169.479, "note_off_time": 169.766}, {"pitch": 76, "velocity": 54, "note_on_time": 169.773, "note_off_time": 170.068}, {"pitch": 74, "velocity": 44, "note_on_time": 170.073, "note_off_time": 170.377}, {"pitch": 72, "velocity": 42, "note_on_time": 170.403, "note_off_time": 171.852}, {"pitch": 72, "velocity": 42, "note_on_time": 172.788, "note_off_time": 173.485}, {"pitch": 74, "velocity": 53, "note_on_time": 173.437, "note_off_time": 174.054}, {"pitch": 76, "velocity": 52, "note_on_time": 174.029, "note_off_time": 174.604}, {"pitch": 77, "velocity": 60, "note_on_time": 174.58, "note_off_time": 175.34}, {"pitch": 79, "velocity": 47, "note_on_time": 175.326, "note_off_time": 175.869}, {"pitch": 77, "velocity": 53, "note_on_time": 175.825, "note_off_time": 176.44}, {"pitch": 76, "velocity": 59, "note_on_time": 176.438, "note_off_time": 177.036}, {"pitch": 74, "velocity": 46, "note_on_time": 177.017, "note_off_time": 177.753}, {"pitch": 72, "velocity": 33, "note_on_time": 177.758, "note_off_time": 178.056}, {"pitch": 74, "velocity": 35, "note_on_time": 178.035, "note_off_time": 178.348}, {"pitch": 76, "velocity": 41, "note_on_time": 178.326, "note_off_time": 178.791}, {"pitch": 77, "velocity": 43, "note_on_time": 178.584, "note_off_time": 178.852}, {"pitch": 79, "velocity": 43, "note_on_time": 178.869, "note_off_time": 179.221}, {"pitch": 77, "velocity": 44, "note_on_time": 179.141, "note_off_time": 179.432}, {"pitch": 76, "velocity": 47, "note_on_time": 179.43, "note_off_time": 179.728}, {"pitch": 74, "velocity": 32, "note_on_time": 179.745, "note_off_time": 180.145}, {"pitch": 72, "velocity": 54, "note_on_time": 180.156, "note_off_time": 180.807}, {"pitch": 72, "velocity": 42, "note_on_time": 182.571, "note_off_time": 183.177}, {"pitch": 74, "velocity": 46, "note_on_time": 183.747, "note_off_time": 184.494}, {"pitch": 76, "velocity": 35, "note_on_time": 184.964, "note_off_time": 185.597}, {"pitch": 77, "velocity": 54, "note_on_time": 186.15, "note_off_time": 186.908}, {"pitch": 79, "velocity": 52, "note_on_time": 187.455, "note_off_time": 188.055}, {"pitch": 77, "velocity": 54, "note_on_time": 188.065, "note_off_time": 188.624}, {"pitch": 76, "velocity": 51, "note_on_time": 188.635, "note_off_time": 189.279}, {"pitch": 74, "velocity": 39, "note_on_time": 189.217, "note_off_time": 189.831}, {"pitch": 72, "velocity": 51, "note_on_time": 189.85, "note_off_time": 190.53}, {"pitch": 72, "velocity": 49, "note_on_time": 192.263, "note_off_time": 192.849}, {"pitch": 79, "velocity": 48, "note_on_time": 192.848, "note_off_time": 193.533}, {"pitch": 74, "velocity": 52, "note_on_time": 193.532, "note_off_time": 194.146}]</notes><guidance name="Guidance Mode">None</guidance><error name="Error value">99</error></trial><trial trial_no="3" timestamp="2023_06_06-11_58_04"><notes name="Played Notes">[{"pitch": 72, "velocity": 23, "note_on_time": 2.563, "note_off_time": 3.133}, {"pitch": 74, "velocity": 48, "note_on_time": 3.124, "note_off_time": 3.698}, {"pitch": 76, "velocity": 52, "note_on_time": 3.73, "note_off_time": 4.355}, {"pitch": 77, "velocity": 56, "note_on_time": 4.362, "note_off_time": 4.976}, {"pitch": 79, "velocity": 64, "note_on_time": 4.936, "note_off_time": 5.655}, {"pitch": 77, "velocity": 53, "note_on_time": 5.553, "note_off_time": 6.128}, {"pitch": 76, "velocity": 44, "note_on_time": 6.104, "note_off_time": 6.788}, {"pitch": 74, "velocity": 47, "note_on_time": 6.71, "note_off_time": 7.383}, {"pitch": 72, "velocity": 31, "note_on_time": 7.365, "note_off_time": 7.879}, {"pitch": 76, "velocity": 38, "note_on_time": 7.94, "note_off_time": 8.534}, {"pitch": 79, "velocity": 53, "note_on_time": 8.495, "note_off_time": 9.087}, {"pitch": 76, "velocity": 57, "note_on_time": 9.047, "note_off_time": 9.835}, {"pitch": 72, "velocity": 50, "note_on_time": 9.752, "note_off_time": 10.371}, {"pitch": 76, "velocity": 52, "note_on_time": 10.333, "note_off_time": 11.095}, {"pitch": 79, "velocity": 52, "note_on_time": 11.011, "note_off_time": 11.614}, {"pitch": 76, "velocity": 27, "note_on_time": 11.523, "note_off_time": 12.263}, {"pitch": 79, "velocity": 58, "note_on_time": 12.172, "note_off_time": 12.913}, {"pitch": 77, "velocity": 56, "note_on_time": 12.758, "note_off_time": 13.42}, {"pitch": 76, "velocity": 46, "note_on_time": 13.414, "note_off_time": 14.135}, {"pitch": 74, "velocity": 42, "note_on_time": 14.041, "note_off_time": 14.72}, {"pitch": 72, "velocity": 42, "note_on_time": 14.7, "note_off_time": 15.322}, {"pitch": 74, "velocity": 38, "note_on_time": 15.287, "note_off_time": 15.88}, {"pitch": 76, "velocity": 48, "note_on_time": 15.82, "note_off_time": 16.536}, {"pitch": 77, "velocity": 53, "note_on_time": 16.416, "note_off_time": 17.11}, {"pitch": 79, "velocity": 59, "note_on_time": 17.042, "note_off_time": 17.726}, {"pitch": 72, "velocity": 45, "note_on_time": 17.663, "note_off_time": 18.378}, {"pitch": 77, "velocity": 46, "note_on_time": 18.322, "note_off_time": 18.955}, {"pitch": 74, "velocity": 46, "note_on_time": 18.941, "note_off_time": 19.535}, {"pitch": 72, "velocity": 55, "note_on_time": 19.498, "note_off_time": 21.927}, {"pitch": 79, "velocity": 61, "note_on_time": 21.895, "note_off_time": 23.091}, {"pitch": 77, "velocity": 52, "note_on_time": 22.506, "note_off_time": 23.137}, {"pitch": 76, "velocity": 52, "note_on_time": 23.108, "note_off_time": 23.738}, {"pitch": 74, "velocity": 52, "note_on_time": 23.685, "note_off_time": 24.427}, {"pitch": 72, "velocity": 59, "note_on_time": 24.347, "note_off_time": 24.993}, {"pitch": 74, "velocity": 43, "note_on_time": 24.933, "note_off_time": 25.635}, {"pitch": 76, "velocity": 32, "note_on_time": 25.551, "note_off_time": 26.28}, {"pitch": 77, "velocity": 45, "note_on_time": 26.147, "note_off_time": 26.889}, {"pitch": 79, "velocity": 51, "note_on_time": 26.809, "note_off_time": 27.484}, {"pitch": 77, "velocity": 59, "note_on_time": 27.364, "note_off_time": 28.049}, {"pitch": 79, "velocity": 42, "note_on_time": 27.984, "note_off_time": 28.753}, {"pitch": 77, "velocity": 24, "note_on_time": 28.643, "note_off_time": 29.302}, {"pitch": 79, "velocity": 57, "note_on_time": 29.209, "note_off_time": 31.92}, {"pitch": 72, "velocity": 30, "note_on_time": 31.728, "note_off_time": 32.891}, {"pitch": 74, "velocity": 42, "note_on_time": 32.343, "note_off_time": 32.958}, {"pitch": 76, "velocity": 54, "note_on_time": 32.903, "note_off_time": 33.511}, {"pitch": 77, "velocity": 56, "note_on_time": 33.467, "note_off_time": 34.274}, {"pitch": 79, "velocity": 47, "note_on_time": 34.18, "note_off_time": 34.855}, {"pitch": 77, "velocity": 52, "note_on_time": 34.677, "note_off_time": 35.354}, {"pitch": 76, "velocity": 45, "note_on_time": 35.366, "note_off_time": 36.007}, {"pitch": 74, "velocity": 44, "note_on_time": 35.94, "note_off_time": 36.601}, {"pitch": 72, "velocity": 48, "note_on_time": 36.563, "note_off_time": 37.16}, {"pitch": 76, "velocity": 50, "note_on_time": 37.117, "note_off_time": 37.845}, {"pitch": 79, "velocity": 57, "note_on_time": 37.763, "note_off_time": 38.405}, {"pitch": 76, "velocity": 62, "note_on_time": 38.338, "note_off_time": 39.048}, {"pitch": 72, "velocity": 52, "note_on_time": 38.912, "note_off_time": 39.356}, {"pitch": 76, "velocity": 55, "note_on_time": 39.245, "note_off_time": 39.586}, {"pitch": 79, "velocity": 47, "note_on_time": 39.511, "note_off_time": 40.069}, {"pitch": 76, "velocity": 23, "note_on_time": 39.848, "note_off_time": 40.455}, {"pitch": 72, "velocity": 38, "note_on_time": 40.289, "note_off_time": 41.099}, {"pitch": 79, "velocity": 49, "note_on_time": 41.405, "note_off_time": 41.894}, {"pitch": 77, "velocity": 30, "note_on_time": 41.71, "note_off_time": 42.012}, {"pitch": 76, "velocity": 43, "note_on_time": 42.012, "note_off_time": 42.414}, {"pitch": 74, "velocity": 34, "note_on_time": 42.336, "note_off_time": 42.654}, {"pitch": 72, "velocity": 50, "note_on_time": 42.623, "note_off_time": 43.008}, {"pitch": 74, "velocity": 36, "note_on_time": 42.971, "note_off_time": 43.48}, {"pitch": 76, "velocity": 39, "note_on_time": 43.21, "note_off_time": 43.632}, {"pitch": 77, "velocity": 55, "note_on_time": 43.527, "note_off_time": 43.93}, {"pitch": 79, "velocity": 53, "note_on_time": 43.842, "note_off_time": 44.586}, {"pitch": 79, "velocity": 47, "note_on_time": 44.989, "note_off_time": 45.832}, {"pitch": 72, "velocity": 34, "note_on_time": 46.33, "note_off_time": 46.837}, {"pitch": 74, "velocity": 35, "note_on_time": 46.875, "note_off_time": 47.421}, {"pitch": 76, "velocity": 38, "note_on_time": 47.439, "note_off_time": 48.569}, {"pitch": 77, "velocity": 50, "note_on_time": 48.087, "note_off_time": 48.684}, {"pitch": 79, "velocity": 23, "note_on_time": 48.666, "note_off_time": 49.008}, {"pitch": 79, "velocity": 31, "note_on_time": 49.269, "note_off_time": 49.46}, {"pitch": 79, "velocity": 12, "note_on_time": 49.733, "note_off_time": 50.677}, {"pitch": 79, "velocity": 40, "note_on_time": 51.118, "note_off_time": 51.912}, {"pitch": 77, "velocity": 49, "note_on_time": 51.699, "note_off_time": 52.358}, {"pitch": 76, "velocity": 20, "note_on_time": 52.347, "note_off_time": 53.116}, {"pitch": 74, "velocity": 50, "note_on_time": 53.013, "note_off_time": 53.687}, {"pitch": 72, "velocity": 54, "note_on_time": 53.601, "note_off_time": 54.368}, {"pitch": 79, "velocity": 50, "note_on_time": 54.236, "note_off_time": 56.18}, {"pitch": 74, "velocity": 52, "note_on_time": 56.139, "note_off_time": 56.721}, {"pitch": 77, "velocity": 52, "note_on_time": 56.673, "note_off_time": 57.313}, {"pitch": 76, "velocity": 51, "note_on_time": 57.315, "note_off_time": 57.918}, {"pitch": 77, "velocity": 58, "note_on_time": 57.856, "note_off_time": 58.506}, {"pitch": 74, "velocity": 46, "note_on_time": 58.497, "note_off_time": 59.239}, {"pitch": 77, "velocity": 56, "note_on_time": 59.238, "note_off_time": 59.79}, {"pitch": 76, "velocity": 49, "note_on_time": 59.737, "note_off_time": 60.428}, {"pitch": 77, "velocity": 43, "note_on_time": 60.343, "note_off_time": 60.968}, {"pitch": 79, "velocity": 33, "note_on_time": 60.881, "note_off_time": 62.115}, {"pitch": 77, "velocity": 55, "note_on_time": 61.446, "note_off_time": 62.38}, {"pitch": 76, "velocity": 48, "note_on_time": 62.133, "note_off_time": 62.806}, {"pitch": 74, "velocity": 49, "note_on_time": 62.747, "note_off_time": 63.534}, {"pitch": 72, "velocity": 53, "note_on_time": 63.417, "note_off_time": 65.163}, {"pitch": 72, "velocity": 34, "note_on_time": 65.811, "note_off_time": 66.363}, {"pitch": 74, "velocity": 44, "note_on_time": 66.376, "note_off_time": 67.004}, {"pitch": 76, "velocity": 51, "note_on_time": 66.983, "note_off_time": 67.673}, {"pitch": 76, "velocity": 47, "note_on_time": 68.222, "note_off_time": 68.787}, {"pitch": 77, "velocity": 56, "note_on_time": 68.736, "note_off_time": 69.477}, {"pitch": 79, "velocity": 59, "note_on_time": 69.398, "note_off_time": 70.001}, {"pitch": 79, "velocity": 42, "note_on_time": 70.599, "note_off_time": 71.349}, {"pitch": 77, "velocity": 44, "note_on_time": 71.254, "note_off_time": 71.931}, {"pitch": 79, "velocity": 49, "note_on_time": 71.859, "note_off_time": 72.544}, {"pitch": 77, "velocity": 62, "note_on_time": 72.429, "note_off_time": 73.096}, {"pitch": 76, "velocity": 52, "note_on_time": 73.053, "note_off_time": 73.789}, {"pitch": 74, "velocity": 48, "note_on_time": 73.647, "note_off_time": 74.38}, {"pitch": 72, "velocity": 50, "note_on_time": 74.339, "note_off_time": 75.062}, {"pitch": 72, "velocity": 24, "note_on_time": 75.542, "note_off_time": 76.12}, {"pitch": 74, "velocity": 27, "note_on_time": 76.174, "note_off_time": 76.731}, {"pitch": 76, "velocity": 45, "note_on_time": 76.715, "note_off_time": 77.354}, {"pitch": 77, "velocity": 51, "note_on_time": 77.334, "note_off_time": 77.964}, {"pitch": 79, "velocity": 52, "note_on_time": 77.948, "note_off_time": 78.596}, {"pitch": 77, "velocity": 49, "note_on_time": 78.533, "note_off_time": 79.211}, {"pitch": 76, "velocity": 48, "note_on_time": 79.207, "note_off_time": 79.813}, {"pitch": 74, "velocity": 30, "note_on_time": 79.784, "note_off_time": 80.479}, {"pitch": 72, "velocity": 38, "note_on_time": 80.443, "note_off_time": 81.074}, {"pitch": 79, "velocity": 6, "note_on_time": 81.026, "note_off_time": 81.628}, {"pitch": 72, "velocity": 19, "note_on_time": 81.651, "note_off_time": 82.173}, {"pitch": 79, "velocity": 48, "note_on_time": 82.157, "note_off_time": 82.753}, {"pitch": 72, "velocity": 36, "note_on_time": 82.829, "note_off_time": 84.003}, {"pitch": 72, "velocity": 44, "note_on_time": 85.218, "note_off_time": 85.499}, {"pitch": 72, "velocity": 53, "note_on_time": 85.83, "note_off_time": 86.15}, {"pitch": 72, "velocity": 51, "note_on_time": 86.472, "note_off_time": 87.257}, {"pitch": 74, "velocity": 45, "note_on_time": 87.721, "note_off_time": 87.985}, {"pitch": 74, "velocity": 42, "note_on_time": 88.321, "note_off_time": 88.588}, {"pitch": 74, "velocity": 38, "note_on_time": 88.947, "note_off_time": 89.771}, {"pitch": 76, "velocity": 34, "note_on_time": 90.109, "note_off_time": 90.399}, {"pitch": 76, "velocity": 28, "note_on_time": 90.737, "note_off_time": 91.006}, {"pitch": 76, "velocity": 55, "note_on_time": 91.286, "note_off_time": 91.999}, {"pitch": 77, "velocity": 57, "note_on_time": 92.501, "note_off_time": 92.793}, {"pitch": 79, "velocity": 66, "note_on_time": 93.135, "note_off_time": 93.369}, {"pitch": 77, "velocity": 53, "note_on_time": 93.895, "note_off_time": 94.332}, {"pitch": 79, "velocity": 64, "note_on_time": 94.96, "note_off_time": 95.203}, {"pitch": 79, "velocity": 46, "note_on_time": 95.565, "note_off_time": 95.823}, {"pitch": 79, "velocity": 45, "note_on_time": 96.226, "note_off_time": 96.945}, {"pitch": 79, "velocity": 62, "note_on_time": 97.436, "note_off_time": 98.083}, {"pitch": 77, "velocity": 63, "note_on_time": 97.984, "note_off_time": 98.666}, {"pitch": 76, "velocity": 60, "note_on_time": 98.615, "note_off_time": 99.385}, {"pitch": 74, "velocity": 64, "note_on_time": 99.273, "note_off_time": 99.913}, {"pitch": 72, "velocity": 61, "note_on_time": 99.851, "note_off_time": 100.196}, {"pitch": 72, "velocity": 51, "note_on_time": 100.474, "note_off_time": 100.737}, {"pitch": 72, "velocity": 49, "note_on_time": 101.113, "note_off_time": 101.773}, {"pitch": 72, "velocity": 49, "note_on_time": 102.358, "note_off_time": 102.621}, {"pitch": 74, "velocity": 49, "note_on_time": 102.636, "note_off_time": 102.967}, {"pitch": 76, "velocity": 56, "note_on_time": 102.929, "note_off_time": 103.29}, {"pitch": 77, "velocity": 64, "note_on_time": 103.22, "note_off_time": 103.602}, {"pitch": 79, "velocity": 68, "note_on_time": 103.54, "note_off_time": 104.116}, {"pitch": 79, "velocity": 52, "note_on_time": 104.702, "note_off_time": 105.034}, {"pitch": 79, "velocity": 45, "note_on_time": 105.325, "note_off_time": 105.613}, {"pitch": 79, "velocity": 43, "note_on_time": 105.942, "note_off_time": 106.896}, {"pitch": 79, "velocity": 54, "note_on_time": 107.165, "note_off_time": 107.547}, {"pitch": 77, "velocity": 53, "note_on_time": 107.439, "note_off_time": 107.75}, {"pitch": 76, "velocity": 41, "note_on_time": 107.749, "note_off_time": 108.075}, {"pitch": 74, "velocity": 40, "note_on_time": 108.044, "note_off_time": 108.369}, {"pitch": 72, "velocity": 51, "note_on_time": 108.369, "note_off_time": 108.916}, {"pitch": 72, "velocity": 42, "note_on_time": 109.54, "note_off_time": 109.789}, {"pitch": 72, "velocity": 36, "note_on_time": 110.175, "note_off_time": 110.414}, {"pitch": 72, "velocity": 37, "note_on_time": 110.866, "note_off_time": 111.564}, {"pitch": 72, "velocity": 37, "note_on_time": 112.056, "note_off_time": 112.653}, {"pitch": 76, "velocity": 55, "note_on_time": 112.646, "note_off_time": 113.316}, {"pitch": 79, "velocity": 59, "note_on_time": 113.247, "note_off_time": 113.895}, {"pitch": 76, "velocity": 58, "note_on_time": 113.862, "note_off_time": 114.544}, {"pitch": 79, "velocity": 59, "note_on_time": 114.47, "note_off_time": 115.154}, {"pitch": 76, "velocity": 50, "note_on_time": 115.069, "note_off_time": 115.802}, {"pitch": 72, "velocity": 50, "note_on_time": 115.69, "note_off_time": 116.329}, {"pitch": 76, "velocity": 54, "note_on_time": 116.302, "note_off_time": 117.019}, {"pitch": 72, "velocity": 45, "note_on_time": 116.937, "note_off_time": 117.548}, {"pitch": 76, "velocity": 50, "note_on_time": 117.49, "note_off_time": 118.142}, {"pitch": 79, "velocity": 66, "note_on_time": 118.067, "note_off_time": 118.812}, {"pitch": 79, "velocity": 45, "note_on_time": 119.297, "note_off_time": 119.929}, {"pitch": 76, "velocity": 40, "note_on_time": 119.943, "note_off_time": 120.619}, {"pitch": 72, "velocity": 41, "note_on_time": 120.592, "note_off_time": 121.197}, {"pitch": 72, "velocity": 43, "note_on_time": 121.778, "note_off_time": 121.966}, {"pitch": 72, "velocity": 52, "note_on_time": 122.334, "note_off_time": 122.611}, {"pitch": 76, "velocity": 43, "note_on_time": 122.98, "note_off_time": 123.307}, {"pitch": 76, "velocity": 42, "note_on_time": 123.603, "note_off_time": 124.073}, {"pitch": 79, "velocity": 62, "note_on_time": 124.19, "note_off_time": 124.524}, {"pitch": 79, "velocity": 50, "note_on_time": 124.801, "note_off_time": 125.061}, {"pitch": 79, "velocity": 40, "note_on_time": 125.408, "note_off_time": 126.103}, {"pitch": 79, "velocity": 55, "note_on_time": 126.585, "note_off_time": 126.826}, {"pitch": 79, "velocity": 23, "note_on_time": 127.136, "note_off_time": 127.531}, {"pitch": 76, "velocity": 37, "note_on_time": 127.887, "note_off_time": 128.139}, {"pitch": 76, "velocity": 38, "note_on_time": 128.432, "note_off_time": 128.724}, {"pitch": 72, "velocity": 40, "note_on_time": 129.05, "note_off_time": 129.289}, {"pitch": 72, "velocity": 47, "note_on_time": 129.595, "note_off_time": 129.829}, {"pitch": 72, "velocity": 44, "note_on_time": 130.25, "note_off_time": 130.962}, {"pitch": 72, "velocity": 37, "note_on_time": 131.566, "note_off_time": 132.068}, {"pitch": 74, "velocity": 47, "note_on_time": 132.135, "note_off_time": 132.665}, {"pitch": 76, "velocity": 39, "note_on_time": 132.694, "note_off_time": 132.989}, {"pitch": 76, "velocity": 44, "note_on_time": 133.275, "note_off_time": 133.537}, {"pitch": 76, "velocity": 51, "note_on_time": 133.912, "note_off_time": 134.562}, {"pitch": 77, "velocity": 70, "note_on_time": 134.468, "note_off_time": 135.216}, {"pitch": 79, "velocity": 62, "note_on_time": 135.111, "note_off_time": 135.332}, {"pitch": 79, "velocity": 55, "note_on_time": 135.783, "note_off_time": 135.963}, {"pitch": 79, "velocity": 54, "note_on_time": 136.34, "note_off_time": 136.529}, {"pitch": 79, "velocity": 44, "note_on_time": 136.891, "note_off_time": 137.098}, {"pitch": 79, "velocity": 33, "note_on_time": 137.525, "note_off_time": 137.726}, {"pitch": 77, "velocity": 42, "note_on_time": 138.134, "note_off_time": 138.367}, {"pitch": 76, "velocity": 56, "note_on_time": 138.885, "note_off_time": 139.166}, {"pitch": 74, "velocity": 33, "note_on_time": 139.464, "note_off_time": 139.676}, {"pitch": 72, "velocity": 51, "note_on_time": 139.975, "note_off_time": 140.706}, {"pitch": 72, "velocity": 24, "note_on_time": 141.22, "note_off_time": 141.602}, {"pitch": 74, "velocity": 45, "note_on_time": 141.81, "note_off_time": 142.159}, {"pitch": 76, "velocity": 36, "note_on_time": 142.477, "note_off_time": 142.821}, {"pitch": 77, "velocity": 46, "note_on_time": 143.035, "note_off_time": 143.764}, {"pitch": 79, "velocity": 60, "note_on_time": 143.779, "note_off_time": 144.327}, {"pitch": 77, "velocity": 59, "note_on_time": 144.307, "note_off_time": 144.888}, {"pitch": 79, "velocity": 59, "note_on_time": 144.838, "note_off_time": 145.464}, {"pitch": 79, "velocity": 60, "note_on_time": 146.102, "note_off_time": 146.875}, {"pitch": 77, "velocity": 53, "note_on_time": 146.712, "note_off_time": 147.383}, {"pitch": 76, "velocity": 52, "note_on_time": 147.366, "note_off_time": 148.023}, {"pitch": 74, "velocity": 59, "note_on_time": 147.96, "note_off_time": 148.652}, {"pitch": 72, "velocity": 49, "note_on_time": 148.562, "note_off_time": 149.189}, {"pitch": 74, "velocity": 48, "note_on_time": 149.161, "note_off_time": 149.819}, {"pitch": 72, "velocity": 53, "note_on_time": 149.77, "note_off_time": 150.715}, {"pitch": 72, "velocity": 38, "note_on_time": 151.11, "note_off_time": 151.693}, {"pitch": 74, "velocity": 34, "note_on_time": 151.664, "note_off_time": 152.207}, {"pitch": 76, "velocity": 39, "note_on_time": 152.2, "note_off_time": 153.046}, {"pitch": 76, "velocity": 40, "note_on_time": 153.432, "note_off_time": 154.013}, {"pitch": 77, "velocity": 49, "note_on_time": 154.085, "note_off_time": 154.709}, {"pitch": 79, "velocity": 51, "note_on_time": 154.708, "note_off_time": 155.391}, {"pitch": 72, "velocity": 27, "note_on_time": 155.969, "note_off_time": 156.231}, {"pitch": 74, "velocity": 42, "note_on_time": 156.251, "note_off_time": 156.513}, {"pitch": 76, "velocity": 43, "note_on_time": 156.518, "note_off_time": 156.893}, {"pitch": 77, "velocity": 49, "note_on_time": 156.795, "note_off_time": 157.159}, {"pitch": 79, "velocity": 42, "note_on_time": 157.115, "note_off_time": 157.689}, {"pitch": 79, "velocity": 40, "note_on_time": 158.315, "note_off_time": 158.668}, {"pitch": 77, "velocity": 43, "note_on_time": 158.61, "note_off_time": 158.878}, {"pitch": 76, "velocity": 38, "note_on_time": 158.91, "note_off_time": 159.187}, {"pitch": 74, "velocity": 35, "note_on_time": 159.225, "note_off_time": 159.505}, {"pitch": 72, "velocity": 38, "note_on_time": 159.563, "note_off_time": 160.083}, {"pitch": 72, "velocity": 35, "note_on_time": 160.761, "note_off_time": 161.261}, {"pitch": 74, "velocity": 54, "note_on_time": 161.26, "note_off_time": 161.888}, {"pitch": 76, "velocity": 54, "note_on_time": 161.881, "note_off_time": 162.563}, {"pitch": 76, "velocity": 36, "note_on_time": 163.187, "note_off_time": 163.779}, {"pitch": 74, "velocity": 17, "note_on_time": 163.802, "note_off_time": 164.373}, {"pitch": 72, "velocity": 29, "note_on_time": 164.366, "note_off_time": 165.037}, {"pitch": 72, "velocity": 50, "note_on_time": 165.594, "note_off_time": 166.268}, {"pitch": 74, "velocity": 38, "note_on_time": 166.231, "note_off_time": 166.8}, {"pitch": 76, "velocity": 45, "note_on_time": 166.804, "note_off_time": 167.527}, {"pitch": 77, "velocity": 46, "note_on_time": 167.386, "note_off_time": 168.055}, {"pitch": 79, "velocity": 46, "note_on_time": 168.048, "note_off_time": 168.718}, {"pitch": 77, "velocity": 55, "note_on_time": 168.65, "note_off_time": 169.297}, {"pitch": 76, "velocity": 51, "note_on_time": 169.253, "note_off_time": 169.933}, {"pitch": 74, "velocity": 45, "note_on_time": 169.869, "note_off_time": 170.511}, {"pitch": 72, "velocity": 37, "note_on_time": 170.497, "note_off_time": 171.585}, {"pitch": 72, "velocity": 41, "note_on_time": 172.287, "note_off_time": 172.548}, {"pitch": 72, "velocity": 48, "note_on_time": 172.932, "note_off_time": 174.244}, {"pitch": 72, "velocity": 39, "note_on_time": 175.32, "note_off_time": 175.619}, {"pitch": 72, "velocity": 46, "note_on_time": 175.944, "note_off_time": 176.208}, {"pitch": 72, "velocity": 44, "note_on_time": 176.559, "note_off_time": 177.223}, {"pitch": 74, "velocity": 55, "note_on_time": 177.747, "note_off_time": 177.972}, {"pitch": 74, "velocity": 31, "note_on_time": 178.44, "note_off_time": 178.654}, {"pitch": 74, "velocity": 49, "note_on_time": 179.04, "note_off_time": 179.331}, {"pitch": 76, "velocity": 43, "note_on_time": 180.19, "note_off_time": 180.45}, {"pitch": 76, "velocity": 43, "note_on_time": 180.822, "note_off_time": 181.087}, {"pitch": 76, "velocity": 41, "note_on_time": 181.451, "note_off_time": 182.232}, {"pitch": 77, "velocity": 47, "note_on_time": 182.798, "note_off_time": 183.115}, {"pitch": 77, "velocity": 37, "note_on_time": 183.327, "note_off_time": 183.601}, {"pitch": 77, "velocity": 51, "note_on_time": 183.888, "note_off_time": 184.561}, {"pitch": 79, "velocity": 45, "note_on_time": 185.062, "note_off_time": 185.726}, {"pitch": 77, "velocity": 56, "note_on_time": 185.716, "note_off_time": 186.323}, {"pitch": 76, "velocity": 42, "note_on_time": 186.373, "note_off_time": 186.908}, {"pitch": 76, "velocity": 43, "note_on_time": 187.507, "note_off_time": 188.049}, {"pitch": 74, "velocity": 46, "note_on_time": 188.106, "note_off_time": 188.696}, {"pitch": 72, "velocity": 43, "note_on_time": 188.715, "note_off_time": 189.588}, {"pitch": 72, "velocity": 41, "note_on_time": 190.018, "note_off_time": 190.714}, {"pitch": 76, "velocity": 47, "note_on_time": 190.656, "note_off_time": 191.175}, {"pitch": 79, "velocity": 35, "note_on_time": 191.198, "note_off_time": 191.739}, {"pitch": 76, "velocity": 29, "note_on_time": 191.786, "note_off_time": 192.342}, {"pitch": 72, "velocity": 35, "note_on_time": 192.474, "note_off_time": 194.303}]</notes><guidance name="Guidance Mode">None</guidance><error name="Error value">99</error></trial></trials></MIDI>