<MIDI midiNo="2023_06_21-13_00_58"><target_notes><notes name="Note List">[{"pitch": 60, "velocity": 40, "note_on_time": 0.01, "note_off_time": 1.018}, {"pitch": 64, "velocity": 40, "note_on_time": 0.01, "note_off_time": 1.019}, {"pitch": 67, "velocity": 40, "note_on_time": 0.01, "note_off_time": 1.02}, {"pitch": 48, "velocity": 40, "note_on_time": 0.01, "note_off_time": 1.02}, {"pitch": 52, "velocity": 40, "note_on_time": 1.02, "note_off_time": 2.031}, {"pitch": 55, "velocity": 40, "note_on_time": 1.02, "note_off_time": 2.031}, {"pitch": 79, "velocity": 40, "note_on_time": 2.031, "note_off_time": 3.042}, {"pitch": 48, "velocity": 40, "note_on_time": 2.031, "note_off_time": 3.043}, {"pitch": 52, "velocity": 40, "note_on_time": 3.043, "note_off_time": 4.053}, {"pitch": 55, "velocity": 40, "note_on_time": 3.043, "note_off_time": 4.053}, {"pitch": 48, "velocity": 40, "note_on_time": 4.053, "note_off_time": 5.062}, {"pitch": 52, "velocity": 40, "note_on_time": 5.062, "note_off_time": 6.071}, {"pitch": 55, "velocity": 40, "note_on_time": 5.062, "note_off_time": 6.071}, {"pitch": 48, "velocity": 40, "note_on_time": 6.071, "note_off_time": 7.083}, {"pitch": 52, "velocity": 40, "note_on_time": 7.083, "note_off_time": 8.097}, {"pitch": 55, "velocity": 40, "note_on_time": 7.083, "note_off_time": 8.098}, {"pitch": 60, "velocity": 40, "note_on_time": 8.096, "note_off_time": 9.106}, {"pitch": 64, "velocity": 40, "note_on_time": 8.097, "note_off_time": 9.107}, {"pitch": 67, "velocity": 40, "note_on_time": 8.097, "note_off_time": 9.107}, {"pitch": 48, "velocity": 40, "note_on_time": 8.098, "note_off_time": 9.107}, {"pitch": 52, "velocity": 40, "note_on_time": 9.107, "note_off_time": 10.11}, {"pitch": 55, "velocity": 40, "note_on_time": 9.107, "note_off_time": 10.11}, {"pitch": 77, "velocity": 40, "note_on_time": 10.11, "note_off_time": 11.12}, {"pitch": 48, "velocity": 40, "note_on_time": 10.11, "note_off_time": 11.12}, {"pitch": 52, "velocity": 40, "note_on_time": 11.12, "note_off_time": 12.126}, {"pitch": 55, "velocity": 40, "note_on_time": 11.12, "note_off_time": 12.126}, {"pitch": 48, "velocity": 40, "note_on_time": 12.126, "note_off_time": 13.128}, {"pitch": 52, "velocity": 40, "note_on_time": 13.128, "note_off_time": 14.133}, {"pitch": 55, "velocity": 40, "note_on_time": 13.128, "note_off_time": 14.133}, {"pitch": 48, "velocity": 40, "note_on_time": 14.133, "note_off_time": 15.145}, {"pitch": 52, "velocity": 40, "note_on_time": 15.15, "note_off_time": 16.164}, {"pitch": 55, "velocity": 40, "note_on_time": 15.15, "note_off_time": 16.164}, {"pitch": 60, "velocity": 40, "note_on_time": 16.162, "note_off_time": 17.179}, {"pitch": 64, "velocity": 40, "note_on_time": 16.163, "note_off_time": 17.179}, {"pitch": 67, "velocity": 40, "note_on_time": 16.163, "note_off_time": 17.179}, {"pitch": 48, "velocity": 40, "note_on_time": 16.164, "note_off_time": 17.179}, {"pitch": 52, "velocity": 40, "note_on_time": 17.18, "note_off_time": 18.189}, {"pitch": 55, "velocity": 40, "note_on_time": 17.18, "note_off_time": 18.189}, {"pitch": 72, "velocity": 40, "note_on_time": 18.188, "note_off_time": 19.2}, {"pitch": 48, "velocity": 40, "note_on_time": 18.189, "note_off_time": 19.2}, {"pitch": 52, "velocity": 40, "note_on_time": 19.201, "note_off_time": 20.211}, {"pitch": 55, "velocity": 40, "note_on_time": 19.202, "note_off_time": 20.211}, {"pitch": 48, "velocity": 40, "note_on_time": 20.211, "note_off_time": 21.224}, {"pitch": 52, "velocity": 40, "note_on_time": 21.224, "note_off_time": 22.228}, {"pitch": 55, "velocity": 40, "note_on_time": 21.224, "note_off_time": 22.228}, {"pitch": 48, "velocity": 40, "note_on_time": 22.228, "note_off_time": 23.241}, {"pitch": 52, "velocity": 40, "note_on_time": 23.241, "note_off_time": 24.259}, {"pitch": 55, "velocity": 40, "note_on_time": 23.241, "note_off_time": 24.259}, {"pitch": 60, "velocity": 40, "note_on_time": 24.257, "note_off_time": 25.272}, {"pitch": 64, "velocity": 40, "note_on_time": 24.258, "note_off_time": 25.273}, {"pitch": 67, "velocity": 40, "note_on_time": 24.258, "note_off_time": 25.273}, {"pitch": 48, "velocity": 40, "note_on_time": 24.259, "note_off_time": 25.273}, {"pitch": 52, "velocity": 40, "note_on_time": 25.274, "note_off_time": 26.277}, {"pitch": 55, "velocity": 40, "note_on_time": 25.274, "note_off_time": 26.277}, {"pitch": 76, "velocity": 40, "note_on_time": 26.276, "note_off_time": 27.284}, {"pitch": 48, "velocity": 40, "note_on_time": 26.277, "note_off_time": 27.285}, {"pitch": 52, "velocity": 40, "note_on_time": 27.285, "note_off_time": 28.295}, {"pitch": 55, "velocity": 40, "note_on_time": 27.286, "note_off_time": 28.295}, {"pitch": 48, "velocity": 40, "note_on_time": 28.295, "note_off_time": 29.304}, {"pitch": 52, "velocity": 40, "note_on_time": 29.304, "note_off_time": 30.316}, {"pitch": 55, "velocity": 40, "note_on_time": 29.304, "note_off_time": 30.316}, {"pitch": 48, "velocity": 40, "note_on_time": 30.317, "note_off_time": 31.327}, {"pitch": 52, "velocity": 40, "note_on_time": 31.327, "note_off_time": 32.343}, {"pitch": 55, "velocity": 40, "note_on_time": 31.327, "note_off_time": 32.344}, {"pitch": 60, "velocity": 40, "note_on_time": 32.341, "note_off_time": 33.352}, {"pitch": 64, "velocity": 40, "note_on_time": 32.342, "note_off_time": 33.353}, {"pitch": 67, "velocity": 40, "note_on_time": 32.342, "note_off_time": 33.353}, {"pitch": 48, "velocity": 40, "note_on_time": 32.344, "note_off_time": 33.354}, {"pitch": 52, "velocity": 40, "note_on_time": 33.354, "note_off_time": 34.365}, {"pitch": 55, "velocity": 40, "note_on_time": 33.354, "note_off_time": 34.366}, {"pitch": 72, "velocity": 40, "note_on_time": 34.365, "note_off_time": 35.376}, {"pitch": 48, "velocity": 40, "note_on_time": 34.366, "note_off_time": 35.376}, {"pitch": 52, "velocity": 40, "note_on_time": 35.376, "note_off_time": 36.391}, {"pitch": 55, "velocity": 40, "note_on_time": 35.376, "note_off_time": 36.391}, {"pitch": 48, "velocity": 40, "note_on_time": 36.391, "note_off_time": 37.4}, {"pitch": 52, "velocity": 40, "note_on_time": 37.4, "note_off_time": 38.401}, {"pitch": 55, "velocity": 40, "note_on_time": 37.4, "note_off_time": 38.401}, {"pitch": 48, "velocity": 40, "note_on_time": 38.401, "note_off_time": 39.416}, {"pitch": 52, "velocity": 40, "note_on_time": 39.416, "note_off_time": 40.432}, {"pitch": 55, "velocity": 40, "note_on_time": 39.416, "note_off_time": 40.432}, {"pitch": 60, "velocity": 40, "note_on_time": 40.43, "note_off_time": 41.439}, {"pitch": 64, "velocity": 40, "note_on_time": 40.431, "note_off_time": 41.441}, {"pitch": 67, "velocity": 40, "note_on_time": 40.432, "note_off_time": 41.441}, {"pitch": 77, "velocity": 40, "note_on_time": 42.453, "note_off_time": 43.464}, {"pitch": 60, "velocity": 40, "note_on_time": 48.471, "note_off_time": 49.474}, {"pitch": 64, "velocity": 40, "note_on_time": 48.472, "note_off_time": 49.475}, {"pitch": 67, "velocity": 40, "note_on_time": 48.472, "note_off_time": 49.476}, {"pitch": 74, "velocity": 40, "note_on_time": 50.491, "note_off_time": 51.497}, {"pitch": 60, "velocity": 40, "note_on_time": 56.505, "note_off_time": 57.516}, {"pitch": 64, "velocity": 40, "note_on_time": 56.506, "note_off_time": 57.517}, {"pitch": 67, "velocity": 40, "note_on_time": 56.506, "note_off_time": 57.518}, {"pitch": 72, "velocity": 40, "note_on_time": 58.522, "note_off_time": 59.535}, {"pitch": 60, "velocity": 40, "note_on_time": 64.543, "note_off_time": 65.552}, {"pitch": 64, "velocity": 40, "note_on_time": 64.544, "note_off_time": 65.553}, {"pitch": 67, "velocity": 40, "note_on_time": 64.545, "note_off_time": 65.554}, {"pitch": 79, "velocity": 40, "note_on_time": 66.556, "note_off_time": 67.566}, {"pitch": 60, "velocity": 40, "note_on_time": 72.573, "note_off_time": 73.59}, {"pitch": 64, "velocity": 40, "note_on_time": 72.573, "note_off_time": 73.591}, {"pitch": 67, "velocity": 40, "note_on_time": 72.573, "note_off_time": 73.592}, {"pitch": 72, "velocity": 40, "note_on_time": 74.599, "note_off_time": 75.614}, {"pitch": 60, "velocity": 40, "note_on_time": 80.622, "note_off_time": 81.637}, {"pitch": 64, "velocity": 40, "note_on_time": 80.622, "note_off_time": 81.637}, {"pitch": 67, "velocity": 40, "note_on_time": 80.623, "note_off_time": 81.638}, {"pitch": 74, "velocity": 40, "note_on_time": 82.644, "note_off_time": 83.658}, {"pitch": 60, "velocity": 40, "note_on_time": 88.668, "note_off_time": 89.682}, {"pitch": 64, "velocity": 40, "note_on_time": 88.669, "note_off_time": 89.682}, {"pitch": 67, "velocity": 40, "note_on_time": 88.67, "note_off_time": 89.683}, {"pitch": 76, "velocity": 40, "note_on_time": 90.689, "note_off_time": 91.699}, {"pitch": 60, "velocity": 40, "note_on_time": 96.71, "note_off_time": 97.725}, {"pitch": 64, "velocity": 40, "note_on_time": 96.71, "note_off_time": 97.726}, {"pitch": 67, "velocity": 40, "note_on_time": 96.711, "note_off_time": 97.727}, {"pitch": 77, "velocity": 40, "note_on_time": 98.735, "note_off_time": 99.737}, {"pitch": 60, "velocity": 40, "note_on_time": 104.741, "note_off_time": 105.754}, {"pitch": 64, "velocity": 40, "note_on_time": 104.742, "note_off_time": 105.755}, {"pitch": 67, "velocity": 40, "note_on_time": 104.742, "note_off_time": 105.756}, {"pitch": 79, "velocity": 40, "note_on_time": 106.765, "note_off_time": 107.777}, {"pitch": 60, "velocity": 40, "note_on_time": 112.782, "note_off_time": 113.792}, {"pitch": 64, "velocity": 40, "note_on_time": 112.782, "note_off_time": 113.793}, {"pitch": 67, "velocity": 40, "note_on_time": 112.782, "note_off_time": 113.793}, {"pitch": 76, "velocity": 40, "note_on_time": 114.809, "note_off_time": 115.811}, {"pitch": 60, "velocity": 40, "note_on_time": 120.825, "note_off_time": 121.84}, {"pitch": 64, "velocity": 40, "note_on_time": 120.826, "note_off_time": 121.841}, {"pitch": 67, "velocity": 40, "note_on_time": 120.826, "note_off_time": 121.841}, {"pitch": 79, "velocity": 40, "note_on_time": 122.855, "note_off_time": 123.868}, {"pitch": 60, "velocity": 40, "note_on_time": 128.883, "note_off_time": 129.886}, {"pitch": 64, "velocity": 40, "note_on_time": 128.884, "note_off_time": 129.887}, {"pitch": 67, "velocity": 40, "note_on_time": 128.884, "note_off_time": 129.888}, {"pitch": 77, "velocity": 40, "note_on_time": 130.9, "note_off_time": 131.916}, {"pitch": 60, "velocity": 40, "note_on_time": 136.924, "note_off_time": 137.936}, {"pitch": 64, "velocity": 40, "note_on_time": 136.926, "note_off_time": 137.938}, {"pitch": 67, "velocity": 40, "note_on_time": 136.926, "note_off_time": 137.939}, {"pitch": 74, "velocity": 40, "note_on_time": 138.944, "note_off_time": 139.95}, {"pitch": 60, "velocity": 40, "note_on_time": 144.962, "note_off_time": 145.977}, {"pitch": 64, "velocity": 40, "note_on_time": 144.963, "note_off_time": 145.978}, {"pitch": 67, "velocity": 40, "note_on_time": 144.964, "note_off_time": 145.978}, {"pitch": 76, "velocity": 40, "note_on_time": 146.986, "note_off_time": 148.001}, {"pitch": 60, "velocity": 40, "note_on_time": 153.024, "note_off_time": 154.026}, {"pitch": 64, "velocity": 40, "note_on_time": 153.025, "note_off_time": 154.027}, {"pitch": 67, "velocity": 40, "note_on_time": 153.025, "note_off_time": 154.028}, {"pitch": 74, "velocity": 40, "note_on_time": 155.032, "note_off_time": 156.048}, {"pitch": 60, "velocity": 40, "note_on_time": 161.053, "note_off_time": 162.059}, {"pitch": 64, "velocity": 40, "note_on_time": 161.054, "note_off_time": 162.06}, {"pitch": 67, "velocity": 40, "note_on_time": 161.054, "note_off_time": 162.063}, {"pitch": 79, "velocity": 40, "note_on_time": 163.07, "note_off_time": 164.08}]</notes><options name="Option List">((4, 4), [0.5, 0.25], 3, 8, &lt;NoteRangePerHand.TWO_NOTES: 3&gt;, &lt;NoteRangePerHand.ONE_NOTE: 2&gt;, False, True, True, 100)</options></target_notes><trials><trial trial_no="1" timestamp="2023_06_21-12_58_14"><notes name="Played Notes">[{"pitch": 72, "velocity": 50, "note_on_time": 0.946, "note_off_time": 1.107}, {"pitch": 72, "velocity": 59, "note_on_time": 3.727, "note_off_time": 3.918}, {"pitch": 76, "velocity": 46, "note_on_time": 5.904, "note_off_time": 6.069}, {"pitch": 74, "velocity": 74, "note_on_time": 7.978, "note_off_time": 8.18}, {"pitch": 79, "velocity": 49, "note_on_time": 11.836, "note_off_time": 12.015}, {"pitch": 72, "velocity": 58, "note_on_time": 13.511, "note_off_time": 13.691}, {"pitch": 74, "velocity": 75, "note_on_time": 17.787, "note_off_time": 17.972}, {"pitch": 74, "velocity": 63, "note_on_time": 28.504, "note_off_time": 28.692}, {"pitch": 79, "velocity": 44, "note_on_time": 29.057, "note_off_time": 29.228}, {"pitch": 72, "velocity": 51, "note_on_time": 31.297, "note_off_time": 31.483}, {"pitch": 74, "velocity": 62, "note_on_time": 36.122, "note_off_time": 36.302}, {"pitch": 79, "velocity": 61, "note_on_time": 36.572, "note_off_time": 36.741}, {"pitch": 74, "velocity": 66, "note_on_time": 42.27, "note_off_time": 42.452}, {"pitch": 79, "velocity": 59, "note_on_time": 42.763, "note_off_time": 42.916}, {"pitch": 74, "velocity": 61, "note_on_time": 52.093, "note_off_time": 52.255}, {"pitch": 79, "velocity": 49, "note_on_time": 52.479, "note_off_time": 52.609}, {"pitch": 74, "velocity": 70, "note_on_time": 59.937, "note_off_time": 60.081}, {"pitch": 79, "velocity": 66, "note_on_time": 60.42, "note_off_time": 60.58}, {"pitch": 74, "velocity": 56, "note_on_time": 68.546, "note_off_time": 68.704}, {"pitch": 79, "velocity": 59, "note_on_time": 68.986, "note_off_time": 69.142}, {"pitch": 74, "velocity": 66, "note_on_time": 76.488, "note_off_time": 76.663}, {"pitch": 79, "velocity": 23, "note_on_time": 77.056, "note_off_time": 77.21}, {"pitch": 74, "velocity": 62, "note_on_time": 84.036, "note_off_time": 84.204}, {"pitch": 76, "velocity": 73, "note_on_time": 84.479, "note_off_time": 84.657}, {"pitch": 74, "velocity": 60, "note_on_time": 91.803, "note_off_time": 91.941}, {"pitch": 72, "velocity": 61, "note_on_time": 92.186, "note_off_time": 92.376}, {"pitch": 74, "velocity": 56, "note_on_time": 100.213, "note_off_time": 100.396}, {"pitch": 76, "velocity": 70, "note_on_time": 100.599, "note_off_time": 100.776}, {"pitch": 77, "velocity": 50, "note_on_time": 100.971, "note_off_time": 101.174}, {"pitch": 72, "velocity": 53, "note_on_time": 101.445, "note_off_time": 101.615}, {"pitch": 76, "velocity": 56, "note_on_time": 101.797, "note_off_time": 101.978}, {"pitch": 74, "velocity": 45, "note_on_time": 102.183, "note_off_time": 102.337}, {"pitch": 74, "velocity": 59, "note_on_time": 108.507, "note_off_time": 108.661}, {"pitch": 77, "velocity": 57, "note_on_time": 110.019, "note_off_time": 110.198}, {"pitch": 74, "velocity": 63, "note_on_time": 116.734, "note_off_time": 116.937}, {"pitch": 77, "velocity": 51, "note_on_time": 117.694, "note_off_time": 117.854}, {"pitch": 72, "velocity": 56, "note_on_time": 118.672, "note_off_time": 118.78}, {"pitch": 74, "velocity": 62, "note_on_time": 125.004, "note_off_time": 125.135}, {"pitch": 72, "velocity": 65, "note_on_time": 125.424, "note_off_time": 125.571}, {"pitch": 77, "velocity": 39, "note_on_time": 128.806, "note_off_time": 129.0}, {"pitch": 74, "velocity": 63, "note_on_time": 130.317, "note_off_time": 130.43}, {"pitch": 76, "velocity": 45, "note_on_time": 131.813, "note_off_time": 131.96}, {"pitch": 74, "velocity": 68, "note_on_time": 143.932, "note_off_time": 144.074}, {"pitch": 77, "velocity": 61, "note_on_time": 144.381, "note_off_time": 144.535}, {"pitch": 74, "velocity": 47, "note_on_time": 147.251, "note_off_time": 147.376}, {"pitch": 77, "velocity": 55, "note_on_time": 147.954, "note_off_time": 148.129}, {"pitch": 74, "velocity": 68, "note_on_time": 157.129, "note_off_time": 157.259}, {"pitch": 72, "velocity": 55, "note_on_time": 158.122, "note_off_time": 158.262}]</notes><guidance name="Guidance Mode">None</guidance><error name="Error value">99</error></trial><trial trial_no="2" timestamp="2023_06_21-13_01_49"><notes name="Played Notes">[{"pitch": 72, "velocity": 44, "note_on_time": 4.772, "note_off_time": 5.009}, {"pitch": 74, "velocity": 66, "note_on_time": 5.364, "note_off_time": 5.57}, {"pitch": 76, "velocity": 59, "note_on_time": 5.954, "note_off_time": 6.115}, {"pitch": 77, "velocity": 30, "note_on_time": 6.491, "note_off_time": 6.727}, {"pitch": 79, "velocity": 40, "note_on_time": 7.098, "note_off_time": 7.304}, {"pitch": 79, "velocity": 52, "note_on_time": 8.113, "note_off_time": 8.302}, {"pitch": 77, "velocity": 33, "note_on_time": 8.578, "note_off_time": 8.798}, {"pitch": 76, "velocity": 34, "note_on_time": 9.125, "note_off_time": 9.284}, {"pitch": 74, "velocity": 58, "note_on_time": 9.494, "note_off_time": 9.623}, {"pitch": 72, "velocity": 49, "note_on_time": 9.893, "note_off_time": 10.031}, {"pitch": 72, "velocity": 49, "note_on_time": 10.371, "note_off_time": 10.529}, {"pitch": 74, "velocity": 41, "note_on_time": 10.76, "note_off_time": 10.937}, {"pitch": 76, "velocity": 60, "note_on_time": 11.076, "note_off_time": 11.217}, {"pitch": 77, "velocity": 47, "note_on_time": 11.374, "note_off_time": 11.567}, {"pitch": 79, "velocity": 36, "note_on_time": 11.851, "note_off_time": 11.988}, {"pitch": 74, "velocity": 67, "note_on_time": 13.478, "note_off_time": 13.611}, {"pitch": 74, "velocity": 44, "note_on_time": 13.776, "note_off_time": 13.894}, {"pitch": 74, "velocity": 59, "note_on_time": 14.002, "note_off_time": 14.127}, {"pitch": 72, "velocity": 60, "note_on_time": 14.364, "note_off_time": 14.494}, {"pitch": 72, "velocity": 41, "note_on_time": 14.623, "note_off_time": 14.732}, {"pitch": 76, "velocity": 57, "note_on_time": 14.945, "note_off_time": 15.034}, {"pitch": 77, "velocity": 45, "note_on_time": 15.208, "note_off_time": 15.296}, {"pitch": 79, "velocity": 45, "note_on_time": 15.213, "note_off_time": 15.373}, {"pitch": 74, "velocity": 52, "note_on_time": 15.876, "note_off_time": 15.995}, {"pitch": 74, "velocity": 56, "note_on_time": 16.192, "note_off_time": 16.244}, {"pitch": 74, "velocity": 46, "note_on_time": 16.382, "note_off_time": 16.496}, {"pitch": 72, "velocity": 55, "note_on_time": 16.675, "note_off_time": 16.827}, {"pitch": 74, "velocity": 60, "note_on_time": 17.092, "note_off_time": 17.2}, {"pitch": 77, "velocity": 39, "note_on_time": 17.406, "note_off_time": 17.537}, {"pitch": 79, "velocity": 53, "note_on_time": 17.809, "note_off_time": 18.038}, {"pitch": 74, "velocity": 51, "note_on_time": 20.701, "note_off_time": 20.823}, {"pitch": 74, "velocity": 24, "note_on_time": 20.977, "note_off_time": 21.036}, {"pitch": 74, "velocity": 21, "note_on_time": 21.203, "note_off_time": 21.271}, {"pitch": 74, "velocity": 37, "note_on_time": 21.403, "note_off_time": 21.466}, {"pitch": 74, "velocity": 59, "note_on_time": 21.568, "note_off_time": 21.708}, {"pitch": 76, "velocity": 54, "note_on_time": 22.188, "note_off_time": 22.327}, {"pitch": 77, "velocity": 56, "note_on_time": 22.469, "note_off_time": 22.667}, {"pitch": 79, "velocity": 32, "note_on_time": 23.613, "note_off_time": 23.769}, {"pitch": 79, "velocity": 31, "note_on_time": 23.903, "note_off_time": 23.991}, {"pitch": 74, "velocity": 63, "note_on_time": 24.125, "note_off_time": 24.246}, {"pitch": 72, "velocity": 53, "note_on_time": 24.365, "note_off_time": 24.449}, {"pitch": 72, "velocity": 49, "note_on_time": 24.587, "note_off_time": 24.664}, {"pitch": 74, "velocity": 63, "note_on_time": 24.804, "note_off_time": 24.876}, {"pitch": 74, "velocity": 51, "note_on_time": 25.027, "note_off_time": 25.323}, {"pitch": 76, "velocity": 33, "note_on_time": 25.747, "note_off_time": 25.876}, {"pitch": 74, "velocity": 35, "note_on_time": 25.477, "note_off_time": 25.903}, {"pitch": 76, "velocity": 1, "note_on_time": 26.027, "note_off_time": 26.127}, {"pitch": 77, "velocity": 19, "note_on_time": 26.259, "note_off_time": 26.326}, {"pitch": 74, "velocity": 1, "note_on_time": 26.441, "note_off_time": 26.537}, {"pitch": 72, "velocity": 28, "note_on_time": 26.487, "note_off_time": 26.545}, {"pitch": 77, "velocity": 9, "note_on_time": 26.645, "note_off_time": 26.722}, {"pitch": 72, "velocity": 46, "note_on_time": 26.658, "note_off_time": 26.734}, {"pitch": 74, "velocity": 70, "note_on_time": 26.946, "note_off_time": 27.063}, {"pitch": 74, "velocity": 60, "note_on_time": 27.17, "note_off_time": 27.218}, {"pitch": 74, "velocity": 51, "note_on_time": 27.321, "note_off_time": 27.378}, {"pitch": 74, "velocity": 14, "note_on_time": 27.49, "note_off_time": 27.528}, {"pitch": 72, "velocity": 22, "note_on_time": 26.819, "note_off_time": 27.62}, {"pitch": 76, "velocity": 72, "note_on_time": 27.622, "note_off_time": 27.696}, {"pitch": 76, "velocity": 46, "note_on_time": 27.893, "note_off_time": 27.969}, {"pitch": 77, "velocity": 57, "note_on_time": 28.124, "note_off_time": 28.257}, {"pitch": 77, "velocity": 55, "note_on_time": 28.353, "note_off_time": 28.447}, {"pitch": 79, "velocity": 27, "note_on_time": 26.679, "note_off_time": 28.555}, {"pitch": 72, "velocity": 18, "note_on_time": 28.627, "note_off_time": 28.804}, {"pitch": 74, "velocity": 65, "note_on_time": 29.591, "note_off_time": 29.668}, {"pitch": 74, "velocity": 45, "note_on_time": 29.827, "note_off_time": 29.916}, {"pitch": 74, "velocity": 54, "note_on_time": 30.033, "note_off_time": 30.124}, {"pitch": 72, "velocity": 47, "note_on_time": 42.513, "note_off_time": 42.621}, {"pitch": 72, "velocity": 49, "note_on_time": 42.781, "note_off_time": 42.84}, {"pitch": 74, "velocity": 57, "note_on_time": 43.411, "note_off_time": 43.461}, {"pitch": 74, "velocity": 49, "note_on_time": 43.626, "note_off_time": 43.754}, {"pitch": 76, "velocity": 63, "note_on_time": 44.067, "note_off_time": 44.221}, {"pitch": 77, "velocity": 40, "note_on_time": 44.689, "note_off_time": 44.865}, {"pitch": 79, "velocity": 63, "note_on_time": 45.056, "note_off_time": 45.202}, {"pitch": 74, "velocity": 48, "note_on_time": 48.013, "note_off_time": 48.098}, {"pitch": 74, "velocity": 52, "note_on_time": 48.91, "note_off_time": 49.02}, {"pitch": 74, "velocity": 50, "note_on_time": 49.843, "note_off_time": 49.964}, {"pitch": 72, "velocity": 61, "note_on_time": 50.139, "note_off_time": 50.275}, {"pitch": 74, "velocity": 52, "note_on_time": 50.864, "note_off_time": 50.982}, {"pitch": 74, "velocity": 52, "note_on_time": 51.099, "note_off_time": 51.255}, {"pitch": 76, "velocity": 66, "note_on_time": 51.503, "note_off_time": 51.666}, {"pitch": 74, "velocity": 50, "note_on_time": 52.436, "note_off_time": 52.558}, {"pitch": 74, "velocity": 52, "note_on_time": 52.711, "note_off_time": 52.851}, {"pitch": 76, "velocity": 49, "note_on_time": 53.066, "note_off_time": 53.227}, {"pitch": 77, "velocity": 48, "note_on_time": 53.589, "note_off_time": 53.747}, {"pitch": 74, "velocity": 46, "note_on_time": 54.385, "note_off_time": 54.446}, {"pitch": 74, "velocity": 43, "note_on_time": 54.602, "note_off_time": 54.728}, {"pitch": 76, "velocity": 55, "note_on_time": 54.926, "note_off_time": 55.007}, {"pitch": 77, "velocity": 43, "note_on_time": 55.259, "note_off_time": 55.419}, {"pitch": 74, "velocity": 53, "note_on_time": 55.609, "note_off_time": 55.706}, {"pitch": 74, "velocity": 52, "note_on_time": 55.897, "note_off_time": 56.021}, {"pitch": 76, "velocity": 37, "note_on_time": 56.22, "note_off_time": 56.314}, {"pitch": 76, "velocity": 30, "note_on_time": 56.472, "note_off_time": 56.595}, {"pitch": 76, "velocity": 64, "note_on_time": 56.686, "note_off_time": 56.821}, {"pitch": 74, "velocity": 44, "note_on_time": 56.986, "note_off_time": 57.042}, {"pitch": 74, "velocity": 49, "note_on_time": 57.243, "note_off_time": 57.307}, {"pitch": 74, "velocity": 57, "note_on_time": 57.487, "note_off_time": 57.575}, {"pitch": 74, "velocity": 64, "note_on_time": 57.698, "note_off_time": 57.792}, {"pitch": 74, "velocity": 44, "note_on_time": 62.668, "note_off_time": 62.799}, {"pitch": 74, "velocity": 23, "note_on_time": 62.961, "note_off_time": 63.042}, {"pitch": 74, "velocity": 49, "note_on_time": 63.197, "note_off_time": 63.301}, {"pitch": 74, "velocity": 56, "note_on_time": 63.42, "note_off_time": 63.521}, {"pitch": 74, "velocity": 57, "note_on_time": 63.627, "note_off_time": 63.709}, {"pitch": 74, "velocity": 64, "note_on_time": 63.819, "note_off_time": 63.935}, {"pitch": 76, "velocity": 60, "note_on_time": 64.17, "note_off_time": 64.382}, {"pitch": 77, "velocity": 51, "note_on_time": 64.49, "note_off_time": 64.665}, {"pitch": 74, "velocity": 60, "note_on_time": 65.708, "note_off_time": 65.798}, {"pitch": 74, "velocity": 49, "note_on_time": 65.919, "note_off_time": 66.028}, {"pitch": 74, "velocity": 55, "note_on_time": 66.14, "note_off_time": 66.273}, {"pitch": 76, "velocity": 54, "note_on_time": 66.424, "note_off_time": 66.59}, {"pitch": 77, "velocity": 45, "note_on_time": 66.725, "note_off_time": 66.945}, {"pitch": 72, "velocity": 60, "note_on_time": 67.265, "note_off_time": 67.526}, {"pitch": 79, "velocity": 49, "note_on_time": 67.554, "note_off_time": 67.814}, {"pitch": 72, "velocity": 1, "note_on_time": 67.66, "note_off_time": 67.863}, {"pitch": 74, "velocity": 43, "note_on_time": 70.075, "note_off_time": 70.172}, {"pitch": 74, "velocity": 42, "note_on_time": 70.305, "note_off_time": 70.403}, {"pitch": 74, "velocity": 39, "note_on_time": 70.54, "note_off_time": 70.627}, {"pitch": 74, "velocity": 64, "note_on_time": 70.743, "note_off_time": 70.862}, {"pitch": 76, "velocity": 56, "note_on_time": 71.096, "note_off_time": 71.288}, {"pitch": 77, "velocity": 47, "note_on_time": 71.446, "note_off_time": 71.67}, {"pitch": 72, "velocity": 1, "note_on_time": 71.923, "note_off_time": 72.154}, {"pitch": 74, "velocity": 63, "note_on_time": 72.325, "note_off_time": 72.5}, {"pitch": 74, "velocity": 43, "note_on_time": 72.602, "note_off_time": 72.664}, {"pitch": 76, "velocity": 44, "note_on_time": 72.839, "note_off_time": 73.023}, {"pitch": 72, "velocity": 56, "note_on_time": 73.262, "note_off_time": 73.44}, {"pitch": 74, "velocity": 72, "note_on_time": 73.586, "note_off_time": 73.704}, {"pitch": 76, "velocity": 52, "note_on_time": 73.799, "note_off_time": 74.02}, {"pitch": 72, "velocity": 54, "note_on_time": 74.192, "note_off_time": 74.43}, {"pitch": 77, "velocity": 30, "note_on_time": 86.814, "note_off_time": 86.968}, {"pitch": 77, "velocity": 39, "note_on_time": 87.113, "note_off_time": 87.234}, {"pitch": 77, "velocity": 37, "note_on_time": 87.411, "note_off_time": 87.491}, {"pitch": 77, "velocity": 52, "note_on_time": 87.656, "note_off_time": 87.801}, {"pitch": 77, "velocity": 58, "note_on_time": 87.916, "note_off_time": 88.016}, {"pitch": 77, "velocity": 52, "note_on_time": 88.141, "note_off_time": 88.289}, {"pitch": 77, "velocity": 53, "note_on_time": 88.404, "note_off_time": 88.538}, {"pitch": 77, "velocity": 43, "note_on_time": 88.642, "note_off_time": 88.767}, {"pitch": 72, "velocity": 53, "note_on_time": 89.078, "note_off_time": 89.228}, {"pitch": 74, "velocity": 58, "note_on_time": 89.403, "note_off_time": 89.557}, {"pitch": 76, "velocity": 40, "note_on_time": 89.674, "note_off_time": 89.864}, {"pitch": 74, "velocity": 44, "note_on_time": 89.967, "note_off_time": 90.096}, {"pitch": 74, "velocity": 52, "note_on_time": 90.852, "note_off_time": 91.005}, {"pitch": 76, "velocity": 60, "note_on_time": 91.067, "note_off_time": 91.243}, {"pitch": 74, "velocity": 63, "note_on_time": 91.313, "note_off_time": 91.457}, {"pitch": 79, "velocity": 1, "note_on_time": 91.865, "note_off_time": 91.954}, {"pitch": 74, "velocity": 51, "note_on_time": 91.996, "note_off_time": 92.146}, {"pitch": 77, "velocity": 56, "note_on_time": 92.206, "note_off_time": 92.357}, {"pitch": 76, "velocity": 59, "note_on_time": 92.191, "note_off_time": 92.362}, {"pitch": 79, "velocity": 39, "note_on_time": 92.198, "note_off_time": 92.455}, {"pitch": 74, "velocity": 58, "note_on_time": 92.688, "note_off_time": 92.841}, {"pitch": 74, "velocity": 60, "note_on_time": 93.012, "note_off_time": 93.114}, {"pitch": 74, "velocity": 46, "note_on_time": 93.246, "note_off_time": 93.347}, {"pitch": 72, "velocity": 1, "note_on_time": 90.08, "note_off_time": 94.436}, {"pitch": 72, "velocity": 59, "note_on_time": 94.566, "note_off_time": 94.7}, {"pitch": 72, "velocity": 52, "note_on_time": 94.852, "note_off_time": 94.914}, {"pitch": 72, "velocity": 57, "note_on_time": 95.088, "note_off_time": 95.187}, {"pitch": 72, "velocity": 56, "note_on_time": 95.336, "note_off_time": 95.438}, {"pitch": 72, "velocity": 59, "note_on_time": 95.591, "note_off_time": 95.665}, {"pitch": 72, "velocity": 51, "note_on_time": 95.833, "note_off_time": 95.945}, {"pitch": 72, "velocity": 65, "note_on_time": 98.98, "note_off_time": 99.127}, {"pitch": 72, "velocity": 49, "note_on_time": 99.3, "note_off_time": 99.423}, {"pitch": 72, "velocity": 52, "note_on_time": 99.597, "note_off_time": 99.699}, {"pitch": 72, "velocity": 45, "note_on_time": 99.869, "note_off_time": 99.986}, {"pitch": 72, "velocity": 45, "note_on_time": 100.186, "note_off_time": 100.302}, {"pitch": 72, "velocity": 54, "note_on_time": 100.458, "note_off_time": 100.621}, {"pitch": 74, "velocity": 51, "note_on_time": 100.745, "note_off_time": 100.925}, {"pitch": 72, "velocity": 46, "note_on_time": 101.466, "note_off_time": 101.613}, {"pitch": 72, "velocity": 40, "note_on_time": 101.762, "note_off_time": 101.841}, {"pitch": 72, "velocity": 55, "note_on_time": 102.019, "note_off_time": 102.163}, {"pitch": 74, "velocity": 61, "note_on_time": 102.329, "note_off_time": 102.423}, {"pitch": 72, "velocity": 52, "note_on_time": 102.712, "note_off_time": 102.911}, {"pitch": 74, "velocity": 53, "note_on_time": 103.099, "note_off_time": 103.258}, {"pitch": 76, "velocity": 26, "note_on_time": 103.918, "note_off_time": 104.103}, {"pitch": 77, "velocity": 57, "note_on_time": 104.231, "note_off_time": 104.736}, {"pitch": 79, "velocity": 53, "note_on_time": 104.542, "note_off_time": 104.824}, {"pitch": 72, "velocity": 25, "note_on_time": 105.172, "note_off_time": 105.346}, {"pitch": 74, "velocity": 51, "note_on_time": 105.192, "note_off_time": 105.663}, {"pitch": 76, "velocity": 67, "note_on_time": 105.706, "note_off_time": 106.057}, {"pitch": 74, "velocity": 53, "note_on_time": 106.066, "note_off_time": 106.255}, {"pitch": 72, "velocity": 30, "note_on_time": 106.059, "note_off_time": 106.291}, {"pitch": 79, "velocity": 23, "note_on_time": 106.38, "note_off_time": 106.56}, {"pitch": 72, "velocity": 23, "note_on_time": 106.464, "note_off_time": 106.685}, {"pitch": 76, "velocity": 54, "note_on_time": 106.761, "note_off_time": 106.804}, {"pitch": 76, "velocity": 59, "note_on_time": 106.976, "note_off_time": 107.081}, {"pitch": 74, "velocity": 40, "note_on_time": 107.242, "note_off_time": 107.283}, {"pitch": 74, "velocity": 66, "note_on_time": 107.385, "note_off_time": 107.43}, {"pitch": 74, "velocity": 52, "note_on_time": 107.54, "note_off_time": 107.607}, {"pitch": 74, "velocity": 77, "note_on_time": 107.699, "note_off_time": 107.8}, {"pitch": 79, "velocity": 28, "note_on_time": 111.628, "note_off_time": 111.82}, {"pitch": 79, "velocity": 26, "note_on_time": 112.027, "note_off_time": 112.181}, {"pitch": 79, "velocity": 51, "note_on_time": 112.312, "note_off_time": 112.473}, {"pitch": 79, "velocity": 40, "note_on_time": 112.621, "note_off_time": 113.053}, {"pitch": 77, "velocity": 22, "note_on_time": 113.816, "note_off_time": 113.937}, {"pitch": 74, "velocity": 40, "note_on_time": 114.117, "note_off_time": 114.213}, {"pitch": 74, "velocity": 49, "note_on_time": 114.341, "note_off_time": 114.47}, {"pitch": 79, "velocity": 35, "note_on_time": 113.206, "note_off_time": 114.477}, {"pitch": 74, "velocity": 40, "note_on_time": 114.615, "note_off_time": 114.721}, {"pitch": 76, "velocity": 54, "note_on_time": 114.847, "note_off_time": 115.0}, {"pitch": 79, "velocity": 27, "note_on_time": 115.139, "note_off_time": 115.275}, {"pitch": 74, "velocity": 40, "note_on_time": 115.356, "note_off_time": 115.511}, {"pitch": 72, "velocity": 56, "note_on_time": 115.901, "note_off_time": 116.019}, {"pitch": 72, "velocity": 53, "note_on_time": 116.175, "note_off_time": 116.271}, {"pitch": 72, "velocity": 42, "note_on_time": 116.452, "note_off_time": 116.521}, {"pitch": 72, "velocity": 55, "note_on_time": 116.697, "note_off_time": 116.782}, {"pitch": 76, "velocity": 54, "note_on_time": 116.98, "note_off_time": 117.191}, {"pitch": 79, "velocity": 49, "note_on_time": 117.277, "note_off_time": 117.552}, {"pitch": 74, "velocity": 3, "note_on_time": 117.903, "note_off_time": 118.09}, {"pitch": 76, "velocity": 21, "note_on_time": 118.161, "note_off_time": 118.596}, {"pitch": 79, "velocity": 9, "note_on_time": 118.332, "note_off_time": 118.605}, {"pitch": 74, "velocity": 28, "note_on_time": 118.832, "note_off_time": 118.897}, {"pitch": 74, "velocity": 62, "note_on_time": 119.012, "note_off_time": 119.104}, {"pitch": 74, "velocity": 53, "note_on_time": 119.217, "note_off_time": 119.307}, {"pitch": 74, "velocity": 46, "note_on_time": 119.433, "note_off_time": 119.509}, {"pitch": 72, "velocity": 51, "note_on_time": 119.656, "note_off_time": 119.769}, {"pitch": 74, "velocity": 53, "note_on_time": 119.998, "note_off_time": 120.133}, {"pitch": 79, "velocity": 38, "note_on_time": 120.358, "note_off_time": 120.636}, {"pitch": 74, "velocity": 45, "note_on_time": 120.736, "note_off_time": 121.128}, {"pitch": 72, "velocity": 52, "note_on_time": 121.308, "note_off_time": 121.398}, {"pitch": 72, "velocity": 46, "note_on_time": 121.55, "note_off_time": 121.689}, {"pitch": 72, "velocity": 40, "note_on_time": 121.804, "note_off_time": 121.906}, {"pitch": 72, "velocity": 44, "note_on_time": 122.058, "note_off_time": 122.173}, {"pitch": 74, "velocity": 46, "note_on_time": 122.064, "note_off_time": 122.197}, {"pitch": 76, "velocity": 64, "note_on_time": 122.303, "note_off_time": 122.435}, {"pitch": 79, "velocity": 25, "note_on_time": 122.49, "note_off_time": 122.683}, {"pitch": 72, "velocity": 25, "note_on_time": 123.054, "note_off_time": 123.204}, {"pitch": 72, "velocity": 29, "note_on_time": 123.309, "note_off_time": 123.375}, {"pitch": 76, "velocity": 67, "note_on_time": 123.679, "note_off_time": 123.788}, {"pitch": 72, "velocity": 23, "note_on_time": 124.235, "note_off_time": 124.307}, {"pitch": 79, "velocity": 55, "note_on_time": 123.909, "note_off_time": 124.327}, {"pitch": 74, "velocity": 65, "note_on_time": 124.565, "note_off_time": 124.639}, {"pitch": 74, "velocity": 55, "note_on_time": 124.766, "note_off_time": 124.844}, {"pitch": 74, "velocity": 46, "note_on_time": 125.016, "note_off_time": 125.063}, {"pitch": 72, "velocity": 37, "note_on_time": 125.017, "note_off_time": 125.073}, {"pitch": 79, "velocity": 46, "note_on_time": 129.234, "note_off_time": 129.463}, {"pitch": 77, "velocity": 35, "note_on_time": 130.034, "note_off_time": 130.26}, {"pitch": 76, "velocity": 45, "note_on_time": 130.697, "note_off_time": 130.876}, {"pitch": 74, "velocity": 50, "note_on_time": 131.213, "note_off_time": 131.403}, {"pitch": 72, "velocity": 41, "note_on_time": 131.779, "note_off_time": 131.946}, {"pitch": 72, "velocity": 38, "note_on_time": 132.312, "note_off_time": 132.534}, {"pitch": 74, "velocity": 26, "note_on_time": 132.859, "note_off_time": 133.001}, {"pitch": 76, "velocity": 25, "note_on_time": 133.378, "note_off_time": 133.454}, {"pitch": 77, "velocity": 33, "note_on_time": 133.861, "note_off_time": 134.047}, {"pitch": 79, "velocity": 58, "note_on_time": 134.291, "note_off_time": 134.572}, {"pitch": 72, "velocity": 46, "note_on_time": 135.253, "note_off_time": 135.432}, {"pitch": 74, "velocity": 57, "note_on_time": 135.633, "note_off_time": 135.793}, {"pitch": 76, "velocity": 64, "note_on_time": 135.905, "note_off_time": 136.04}, {"pitch": 79, "velocity": 42, "note_on_time": 136.159, "note_off_time": 136.395}, {"pitch": 76, "velocity": 55, "note_on_time": 136.821, "note_off_time": 137.07}, {"pitch": 74, "velocity": 57, "note_on_time": 137.096, "note_off_time": 137.351}, {"pitch": 76, "velocity": 55, "note_on_time": 137.931, "note_off_time": 138.083}, {"pitch": 74, "velocity": 52, "note_on_time": 138.381, "note_off_time": 138.579}, {"pitch": 79, "velocity": 9, "note_on_time": 138.728, "note_off_time": 138.911}, {"pitch": 72, "velocity": 33, "note_on_time": 137.677, "note_off_time": 139.026}, {"pitch": 72, "velocity": 25, "note_on_time": 139.122, "note_off_time": 139.204}, {"pitch": 74, "velocity": 57, "note_on_time": 139.121, "note_off_time": 139.209}, {"pitch": 72, "velocity": 52, "note_on_time": 142.696, "note_off_time": 142.925}, {"pitch": 74, "velocity": 50, "note_on_time": 143.034, "note_off_time": 143.349}, {"pitch": 76, "velocity": 65, "note_on_time": 143.353, "note_off_time": 143.602}, {"pitch": 77, "velocity": 35, "note_on_time": 143.686, "note_off_time": 144.097}, {"pitch": 79, "velocity": 1, "note_on_time": 144.026, "note_off_time": 144.343}, {"pitch": 77, "velocity": 12, "note_on_time": 145.327, "note_off_time": 145.493}, {"pitch": 76, "velocity": 50, "note_on_time": 146.349, "note_off_time": 146.624}, {"pitch": 77, "velocity": 59, "note_on_time": 145.744, "note_off_time": 146.659}, {"pitch": 79, "velocity": 45, "note_on_time": 144.783, "note_off_time": 146.713}, {"pitch": 74, "velocity": 60, "note_on_time": 146.615, "note_off_time": 146.833}, {"pitch": 72, "velocity": 8, "note_on_time": 146.6, "note_off_time": 146.977}, {"pitch": 74, "velocity": 53, "note_on_time": 147.587, "note_off_time": 147.689}, {"pitch": 74, "velocity": 49, "note_on_time": 147.811, "note_off_time": 147.924}, {"pitch": 79, "velocity": 13, "note_on_time": 147.319, "note_off_time": 150.498}, {"pitch": 74, "velocity": 54, "note_on_time": 150.546, "note_off_time": 151.145}, {"pitch": 74, "velocity": 52, "note_on_time": 151.558, "note_off_time": 151.682}, {"pitch": 74, "velocity": 49, "note_on_time": 151.8, "note_off_time": 151.899}, {"pitch": 77, "velocity": 30, "note_on_time": 152.496, "note_off_time": 152.593}, {"pitch": 79, "velocity": 31, "note_on_time": 152.53, "note_off_time": 152.723}, {"pitch": 79, "velocity": 26, "note_on_time": 152.862, "note_off_time": 153.319}, {"pitch": 72, "velocity": 55, "note_on_time": 152.036, "note_off_time": 153.443}, {"pitch": 74, "velocity": 10, "note_on_time": 153.531, "note_off_time": 153.674}, {"pitch": 76, "velocity": 49, "note_on_time": 153.855, "note_off_time": 153.985}, {"pitch": 74, "velocity": 40, "note_on_time": 154.135, "note_off_time": 154.379}, {"pitch": 72, "velocity": 21, "note_on_time": 157.476, "note_off_time": 157.7}, {"pitch": 74, "velocity": 41, "note_on_time": 157.873, "note_off_time": 158.071}, {"pitch": 76, "velocity": 41, "note_on_time": 158.671, "note_off_time": 158.85}, {"pitch": 79, "velocity": 53, "note_on_time": 159.033, "note_off_time": 159.576}, {"pitch": 74, "velocity": 56, "note_on_time": 159.839, "note_off_time": 160.111}, {"pitch": 76, "velocity": 31, "note_on_time": 160.151, "note_off_time": 160.465}, {"pitch": 79, "velocity": 30, "note_on_time": 160.581, "note_off_time": 160.858}, {"pitch": 72, "velocity": 14, "note_on_time": 160.995, "note_off_time": 161.176}, {"pitch": 74, "velocity": 39, "note_on_time": 163.7, "note_off_time": 163.898}, {"pitch": 72, "velocity": 52, "note_on_time": 163.329, "note_off_time": 164.179}, {"pitch": 76, "velocity": 58, "note_on_time": 164.016, "note_off_time": 164.265}, {"pitch": 79, "velocity": 50, "note_on_time": 164.359, "note_off_time": 164.745}, {"pitch": 74, "velocity": 38, "note_on_time": 165.369, "note_off_time": 165.514}, {"pitch": 74, "velocity": 22, "note_on_time": 165.634, "note_off_time": 165.75}, {"pitch": 72, "velocity": 36, "note_on_time": 165.862, "note_off_time": 166.042}, {"pitch": 72, "velocity": 40, "note_on_time": 166.165, "note_off_time": 166.301}, {"pitch": 74, "velocity": 28, "note_on_time": 166.472, "note_off_time": 166.559}, {"pitch": 72, "velocity": 40, "note_on_time": 166.427, "note_off_time": 166.814}, {"pitch": 76, "velocity": 59, "note_on_time": 166.693, "note_off_time": 166.86}, {"pitch": 79, "velocity": 59, "note_on_time": 166.966, "note_off_time": 167.353}, {"pitch": 76, "velocity": 19, "note_on_time": 167.608, "note_off_time": 167.716}, {"pitch": 76, "velocity": 5, "note_on_time": 167.96, "note_off_time": 168.132}, {"pitch": 74, "velocity": 62, "note_on_time": 168.112, "note_off_time": 168.407}, {"pitch": 72, "velocity": 1, "note_on_time": 168.342, "note_off_time": 168.487}, {"pitch": 77, "velocity": 16, "note_on_time": 168.496, "note_off_time": 168.771}, {"pitch": 76, "velocity": 1, "note_on_time": 168.542, "note_off_time": 168.797}, {"pitch": 79, "velocity": 22, "note_on_time": 168.445, "note_off_time": 168.827}, {"pitch": 74, "velocity": 78, "note_on_time": 168.808, "note_off_time": 168.985}, {"pitch": 72, "velocity": 36, "note_on_time": 168.78, "note_off_time": 169.06}, {"pitch": 77, "velocity": 46, "note_on_time": 169.058, "note_off_time": 169.155}, {"pitch": 76, "velocity": 50, "note_on_time": 169.025, "note_off_time": 169.169}, {"pitch": 79, "velocity": 59, "note_on_time": 169.058, "note_off_time": 169.261}, {"pitch": 74, "velocity": 13, "note_on_time": 172.029, "note_off_time": 172.148}, {"pitch": 74, "velocity": 45, "note_on_time": 172.431, "note_off_time": 172.547}, {"pitch": 74, "velocity": 38, "note_on_time": 172.724, "note_off_time": 172.827}, {"pitch": 74, "velocity": 22, "note_on_time": 173.002, "note_off_time": 173.094}, {"pitch": 74, "velocity": 32, "note_on_time": 173.248, "note_off_time": 173.317}, {"pitch": 74, "velocity": 41, "note_on_time": 173.459, "note_off_time": 173.542}, {"pitch": 74, "velocity": 30, "note_on_time": 173.71, "note_off_time": 173.788}, {"pitch": 74, "velocity": 31, "note_on_time": 173.939, "note_off_time": 174.041}, {"pitch": 74, "velocity": 36, "note_on_time": 174.162, "note_off_time": 174.243}, {"pitch": 74, "velocity": 51, "note_on_time": 174.36, "note_off_time": 174.453}, {"pitch": 72, "velocity": 45, "note_on_time": 174.591, "note_off_time": 174.754}, {"pitch": 72, "velocity": 37, "note_on_time": 175.518, "note_off_time": 175.668}, {"pitch": 72, "velocity": 59, "note_on_time": 175.779, "note_off_time": 175.865}, {"pitch": 72, "velocity": 47, "note_on_time": 176.033, "note_off_time": 176.152}, {"pitch": 74, "velocity": 58, "note_on_time": 176.275, "note_off_time": 176.473}, {"pitch": 74, "velocity": 52, "note_on_time": 176.813, "note_off_time": 176.929}, {"pitch": 74, "velocity": 56, "note_on_time": 177.042, "note_off_time": 177.148}, {"pitch": 74, "velocity": 56, "note_on_time": 177.264, "note_off_time": 177.333}, {"pitch": 72, "velocity": 42, "note_on_time": 177.502, "note_off_time": 177.665}, {"pitch": 74, "velocity": 42, "note_on_time": 178.597, "note_off_time": 178.657}, {"pitch": 74, "velocity": 34, "note_on_time": 178.824, "note_off_time": 178.925}, {"pitch": 74, "velocity": 37, "note_on_time": 179.071, "note_off_time": 179.165}, {"pitch": 74, "velocity": 54, "note_on_time": 179.286, "note_off_time": 179.374}, {"pitch": 74, "velocity": 38, "note_on_time": 179.5, "note_off_time": 179.583}, {"pitch": 74, "velocity": 26, "note_on_time": 179.72, "note_off_time": 179.794}, {"pitch": 74, "velocity": 5, "note_on_time": 179.965, "note_off_time": 180.076}, {"pitch": 74, "velocity": 41, "note_on_time": 180.17, "note_off_time": 180.282}, {"pitch": 72, "velocity": 49, "note_on_time": 183.741, "note_off_time": 183.911}, {"pitch": 72, "velocity": 36, "note_on_time": 184.033, "note_off_time": 184.137}, {"pitch": 74, "velocity": 65, "note_on_time": 184.321, "note_off_time": 184.439}, {"pitch": 74, "velocity": 53, "note_on_time": 184.55, "note_off_time": 184.676}, {"pitch": 74, "velocity": 57, "note_on_time": 187.264, "note_off_time": 187.385}, {"pitch": 74, "velocity": 29, "note_on_time": 187.547, "note_off_time": 187.629}, {"pitch": 76, "velocity": 59, "note_on_time": 187.707, "note_off_time": 188.064}, {"pitch": 79, "velocity": 57, "note_on_time": 187.997, "note_off_time": 188.239}, {"pitch": 76, "velocity": 46, "note_on_time": 188.447, "note_off_time": 188.629}]</notes><guidance name="Guidance Mode">None</guidance><error name="Error value">99</error></trial><trial trial_no="3" timestamp="2023_06_21-13_08_09"><notes name="Played Notes">[{"pitch": 72, "velocity": 40, "note_on_time": 2.957, "note_off_time": 3.236}, {"pitch": 72, "velocity": 49, "note_on_time": 6.098, "note_off_time": 6.453}, {"pitch": 74, "velocity": 47, "note_on_time": 6.616, "note_off_time": 6.824}, {"pitch": 76, "velocity": 66, "note_on_time": 7.164, "note_off_time": 7.579}, {"pitch": 77, "velocity": 53, "note_on_time": 7.671, "note_off_time": 7.922}, {"pitch": 79, "velocity": 64, "note_on_time": 8.096, "note_off_time": 8.327}, {"pitch": 72, "velocity": 33, "note_on_time": 8.894, "note_off_time": 9.057}, {"pitch": 74, "velocity": 62, "note_on_time": 9.331, "note_off_time": 9.473}, {"pitch": 74, "velocity": 54, "note_on_time": 9.78, "note_off_time": 9.933}, {"pitch": 74, "velocity": 55, "note_on_time": 10.191, "note_off_time": 10.356}, {"pitch": 74, "velocity": 52, "note_on_time": 10.635, "note_off_time": 10.818}, {"pitch": 74, "velocity": 44, "note_on_time": 11.084, "note_off_time": 11.286}, {"pitch": 76, "velocity": 68, "note_on_time": 11.429, "note_off_time": 11.62}, {"pitch": 74, "velocity": 62, "note_on_time": 11.897, "note_off_time": 12.032}, {"pitch": 74, "velocity": 56, "note_on_time": 12.295, "note_off_time": 12.466}, {"pitch": 76, "velocity": 57, "note_on_time": 12.684, "note_off_time": 12.886}, {"pitch": 74, "velocity": 52, "note_on_time": 13.117, "note_off_time": 13.276}, {"pitch": 74, "velocity": 55, "note_on_time": 13.45, "note_off_time": 13.642}, {"pitch": 76, "velocity": 63, "note_on_time": 13.773, "note_off_time": 13.954}, {"pitch": 76, "velocity": 37, "note_on_time": 14.117, "note_off_time": 14.194}, {"pitch": 74, "velocity": 61, "note_on_time": 14.205, "note_off_time": 14.318}, {"pitch": 74, "velocity": 50, "note_on_time": 14.448, "note_off_time": 14.59}, {"pitch": 74, "velocity": 52, "note_on_time": 14.722, "note_off_time": 14.865}, {"pitch": 76, "velocity": 47, "note_on_time": 15.062, "note_off_time": 15.138}, {"pitch": 76, "velocity": 48, "note_on_time": 15.287, "note_off_time": 15.431}, {"pitch": 74, "velocity": 59, "note_on_time": 15.622, "note_off_time": 15.723}, {"pitch": 74, "velocity": 56, "note_on_time": 15.837, "note_off_time": 15.973}, {"pitch": 76, "velocity": 45, "note_on_time": 16.17, "note_off_time": 16.258}, {"pitch": 76, "velocity": 46, "note_on_time": 16.412, "note_off_time": 16.57}, {"pitch": 74, "velocity": 62, "note_on_time": 16.742, "note_off_time": 16.832}, {"pitch": 74, "velocity": 51, "note_on_time": 16.952, "note_off_time": 17.088}, {"pitch": 76, "velocity": 57, "note_on_time": 17.24, "note_off_time": 17.309}, {"pitch": 76, "velocity": 59, "note_on_time": 17.42, "note_off_time": 17.54}, {"pitch": 74, "velocity": 47, "note_on_time": 17.704, "note_off_time": 17.791}, {"pitch": 74, "velocity": 44, "note_on_time": 17.898, "note_off_time": 18.005}, {"pitch": 76, "velocity": 61, "note_on_time": 18.166, "note_off_time": 18.232}, {"pitch": 76, "velocity": 52, "note_on_time": 18.333, "note_off_time": 18.402}, {"pitch": 77, "velocity": 35, "note_on_time": 18.743, "note_off_time": 18.933}, {"pitch": 77, "velocity": 6, "note_on_time": 19.063, "note_off_time": 19.229}, {"pitch": 79, "velocity": 54, "note_on_time": 19.044, "note_off_time": 19.437}, {"pitch": 74, "velocity": 9, "note_on_time": 19.718, "note_off_time": 20.024}, {"pitch": 72, "velocity": 1, "note_on_time": 19.623, "note_off_time": 20.133}, {"pitch": 76, "velocity": 56, "note_on_time": 20.025, "note_off_time": 20.239}, {"pitch": 76, "velocity": 23, "note_on_time": 20.315, "note_off_time": 20.404}, {"pitch": 77, "velocity": 36, "note_on_time": 20.51, "note_off_time": 20.721}, {"pitch": 79, "velocity": 42, "note_on_time": 20.541, "note_off_time": 20.905}, {"pitch": 77, "velocity": 24, "note_on_time": 21.107, "note_off_time": 21.33}, {"pitch": 77, "velocity": 35, "note_on_time": 21.413, "note_off_time": 21.541}, {"pitch": 74, "velocity": 33, "note_on_time": 21.69, "note_off_time": 21.782}, {"pitch": 76, "velocity": 23, "note_on_time": 21.82, "note_off_time": 22.073}, {"pitch": 79, "velocity": 46, "note_on_time": 22.245, "note_off_time": 22.404}, {"pitch": 74, "velocity": 1, "note_on_time": 22.334, "note_off_time": 22.428}, {"pitch": 74, "velocity": 45, "note_on_time": 22.598, "note_off_time": 22.665}, {"pitch": 74, "velocity": 32, "note_on_time": 22.767, "note_off_time": 22.852}, {"pitch": 76, "velocity": 21, "note_on_time": 22.899, "note_off_time": 23.083}, {"pitch": 74, "velocity": 16, "note_on_time": 23.317, "note_off_time": 23.435}, {"pitch": 74, "velocity": 61, "note_on_time": 23.704, "note_off_time": 23.752}, {"pitch": 74, "velocity": 58, "note_on_time": 23.848, "note_off_time": 23.889}, {"pitch": 74, "velocity": 69, "note_on_time": 23.975, "note_off_time": 24.032}, {"pitch": 72, "velocity": 11, "note_on_time": 22.279, "note_off_time": 24.038}, {"pitch": 74, "velocity": 66, "note_on_time": 24.127, "note_off_time": 24.167}, {"pitch": 74, "velocity": 58, "note_on_time": 24.258, "note_off_time": 24.303}, {"pitch": 74, "velocity": 62, "note_on_time": 24.983, "note_off_time": 25.339}, {"pitch": 76, "velocity": 58, "note_on_time": 25.446, "note_off_time": 25.652}, {"pitch": 72, "velocity": 64, "note_on_time": 24.681, "note_off_time": 25.952}, {"pitch": 77, "velocity": 51, "note_on_time": 25.677, "note_off_time": 25.957}, {"pitch": 79, "velocity": 58, "note_on_time": 26.03, "note_off_time": 26.273}, {"pitch": 74, "velocity": 46, "note_on_time": 27.223, "note_off_time": 27.364}, {"pitch": 74, "velocity": 54, "note_on_time": 27.541, "note_off_time": 27.638}, {"pitch": 74, "velocity": 43, "note_on_time": 27.768, "note_off_time": 27.879}, {"pitch": 74, "velocity": 54, "note_on_time": 27.992, "note_off_time": 28.087}, {"pitch": 74, "velocity": 56, "note_on_time": 28.193, "note_off_time": 28.287}, {"pitch": 74, "velocity": 58, "note_on_time": 28.394, "note_off_time": 28.493}, {"pitch": 76, "velocity": 49, "note_on_time": 28.687, "note_off_time": 28.833}, {"pitch": 77, "velocity": 56, "note_on_time": 28.965, "note_off_time": 29.168}, {"pitch": 79, "velocity": 31, "note_on_time": 29.208, "note_off_time": 29.451}, {"pitch": 72, "velocity": 45, "note_on_time": 29.489, "note_off_time": 29.668}, {"pitch": 74, "velocity": 48, "note_on_time": 30.605, "note_off_time": 30.678}, {"pitch": 74, "velocity": 36, "note_on_time": 30.826, "note_off_time": 30.933}, {"pitch": 74, "velocity": 55, "note_on_time": 31.043, "note_off_time": 31.137}, {"pitch": 74, "velocity": 57, "note_on_time": 31.244, "note_off_time": 31.31}, {"pitch": 74, "velocity": 53, "note_on_time": 31.426, "note_off_time": 31.498}, {"pitch": 74, "velocity": 50, "note_on_time": 31.606, "note_off_time": 31.706}, {"pitch": 76, "velocity": 26, "note_on_time": 31.974, "note_off_time": 32.042}, {"pitch": 77, "velocity": 46, "note_on_time": 31.944, "note_off_time": 32.096}, {"pitch": 77, "velocity": 17, "note_on_time": 32.206, "note_off_time": 32.334}, {"pitch": 76, "velocity": 44, "note_on_time": 32.242, "note_off_time": 32.558}, {"pitch": 74, "velocity": 27, "note_on_time": 32.621, "note_off_time": 32.717}, {"pitch": 74, "velocity": 49, "note_on_time": 32.85, "note_off_time": 32.942}, {"pitch": 74, "velocity": 60, "note_on_time": 33.052, "note_off_time": 33.136}, {"pitch": 74, "velocity": 45, "note_on_time": 33.251, "note_off_time": 33.324}, {"pitch": 74, "velocity": 56, "note_on_time": 35.064, "note_off_time": 35.19}, {"pitch": 74, "velocity": 40, "note_on_time": 35.384, "note_off_time": 35.472}, {"pitch": 74, "velocity": 32, "note_on_time": 35.651, "note_off_time": 35.739}, {"pitch": 74, "velocity": 38, "note_on_time": 35.887, "note_off_time": 35.991}, {"pitch": 74, "velocity": 39, "note_on_time": 36.125, "note_off_time": 36.223}, {"pitch": 74, "velocity": 52, "note_on_time": 36.338, "note_off_time": 36.455}, {"pitch": 74, "velocity": 40, "note_on_time": 38.046, "note_off_time": 38.181}, {"pitch": 74, "velocity": 46, "note_on_time": 38.302, "note_off_time": 38.474}, {"pitch": 76, "velocity": 56, "note_on_time": 38.515, "note_off_time": 38.709}, {"pitch": 77, "velocity": 19, "note_on_time": 38.681, "note_off_time": 38.982}, {"pitch": 79, "velocity": 44, "note_on_time": 38.777, "note_off_time": 39.054}, {"pitch": 72, "velocity": 35, "note_on_time": 39.236, "note_off_time": 39.448}, {"pitch": 74, "velocity": 62, "note_on_time": 39.558, "note_off_time": 39.684}, {"pitch": 76, "velocity": 56, "note_on_time": 39.781, "note_off_time": 39.948}, {"pitch": 79, "velocity": 38, "note_on_time": 39.98, "note_off_time": 40.31}, {"pitch": 76, "velocity": 19, "note_on_time": 40.534, "note_off_time": 40.58}, {"pitch": 74, "velocity": 21, "note_on_time": 40.344, "note_off_time": 40.691}, {"pitch": 76, "velocity": 50, "note_on_time": 40.756, "note_off_time": 41.032}, {"pitch": 74, "velocity": 73, "note_on_time": 41.113, "note_off_time": 41.197}, {"pitch": 74, "velocity": 58, "note_on_time": 41.279, "note_off_time": 41.327}, {"pitch": 74, "velocity": 72, "note_on_time": 41.417, "note_off_time": 41.509}, {"pitch": 74, "velocity": 58, "note_on_time": 44.804, "note_off_time": 44.915}, {"pitch": 74, "velocity": 47, "note_on_time": 45.049, "note_off_time": 45.174}, {"pitch": 74, "velocity": 48, "note_on_time": 45.306, "note_off_time": 45.422}, {"pitch": 74, "velocity": 59, "note_on_time": 45.544, "note_off_time": 45.653}, {"pitch": 74, "velocity": 59, "note_on_time": 45.767, "note_off_time": 45.863}, {"pitch": 74, "velocity": 52, "note_on_time": 45.978, "note_off_time": 46.082}, {"pitch": 74, "velocity": 47, "note_on_time": 46.208, "note_off_time": 46.292}, {"pitch": 74, "velocity": 57, "note_on_time": 46.412, "note_off_time": 46.5}, {"pitch": 74, "velocity": 50, "note_on_time": 46.614, "note_off_time": 46.703}, {"pitch": 74, "velocity": 53, "note_on_time": 46.829, "note_off_time": 46.948}, {"pitch": 76, "velocity": 57, "note_on_time": 46.988, "note_off_time": 47.178}, {"pitch": 76, "velocity": 62, "note_on_time": 47.262, "note_off_time": 47.548}, {"pitch": 76, "velocity": 39, "note_on_time": 47.64, "note_off_time": 47.716}, {"pitch": 76, "velocity": 61, "note_on_time": 47.808, "note_off_time": 47.878}, {"pitch": 74, "velocity": 51, "note_on_time": 48.172, "note_off_time": 48.274}, {"pitch": 74, "velocity": 53, "note_on_time": 48.412, "note_off_time": 48.526}, {"pitch": 74, "velocity": 44, "note_on_time": 48.646, "note_off_time": 48.725}, {"pitch": 74, "velocity": 54, "note_on_time": 48.861, "note_off_time": 48.989}, {"pitch": 76, "velocity": 60, "note_on_time": 49.112, "note_off_time": 49.238}, {"pitch": 76, "velocity": 54, "note_on_time": 49.352, "note_off_time": 49.512}, {"pitch": 74, "velocity": 54, "note_on_time": 49.619, "note_off_time": 49.775}, {"pitch": 74, "velocity": 49, "note_on_time": 49.923, "note_off_time": 50.067}, {"pitch": 76, "velocity": 54, "note_on_time": 50.238, "note_off_time": 50.407}, {"pitch": 74, "velocity": 51, "note_on_time": 50.503, "note_off_time": 50.679}, {"pitch": 76, "velocity": 51, "note_on_time": 50.813, "note_off_time": 50.976}, {"pitch": 74, "velocity": 52, "note_on_time": 51.059, "note_off_time": 51.238}, {"pitch": 76, "velocity": 56, "note_on_time": 51.337, "note_off_time": 51.562}, {"pitch": 74, "velocity": 45, "note_on_time": 51.622, "note_off_time": 51.883}, {"pitch": 76, "velocity": 64, "note_on_time": 51.91, "note_off_time": 52.189}, {"pitch": 74, "velocity": 26, "note_on_time": 52.262, "note_off_time": 52.487}, {"pitch": 76, "velocity": 54, "note_on_time": 52.504, "note_off_time": 52.796}, {"pitch": 74, "velocity": 40, "note_on_time": 52.854, "note_off_time": 53.119}, {"pitch": 79, "velocity": 43, "note_on_time": 53.163, "note_off_time": 53.398}, {"pitch": 77, "velocity": 42, "note_on_time": 53.653, "note_off_time": 54.086}, {"pitch": 74, "velocity": 33, "note_on_time": 54.038, "note_off_time": 54.261}, {"pitch": 76, "velocity": 49, "note_on_time": 54.418, "note_off_time": 54.634}, {"pitch": 74, "velocity": 1, "note_on_time": 54.754, "note_off_time": 54.989}, {"pitch": 72, "velocity": 27, "note_on_time": 54.806, "note_off_time": 54.994}, {"pitch": 77, "velocity": 18, "note_on_time": 55.027, "note_off_time": 55.273}, {"pitch": 74, "velocity": 47, "note_on_time": 55.262, "note_off_time": 55.386}, {"pitch": 74, "velocity": 38, "note_on_time": 55.522, "note_off_time": 55.608}, {"pitch": 74, "velocity": 28, "note_on_time": 55.772, "note_off_time": 55.846}, {"pitch": 74, "velocity": 30, "note_on_time": 56.702, "note_off_time": 56.785}, {"pitch": 74, "velocity": 40, "note_on_time": 56.954, "note_off_time": 57.052}, {"pitch": 74, "velocity": 48, "note_on_time": 57.169, "note_off_time": 57.266}, {"pitch": 74, "velocity": 38, "note_on_time": 57.399, "note_off_time": 57.476}, {"pitch": 74, "velocity": 45, "note_on_time": 57.608, "note_off_time": 57.686}, {"pitch": 74, "velocity": 40, "note_on_time": 57.818, "note_off_time": 57.89}, {"pitch": 74, "velocity": 41, "note_on_time": 58.02, "note_off_time": 58.099}, {"pitch": 72, "velocity": 36, "note_on_time": 58.304, "note_off_time": 58.437}, {"pitch": 74, "velocity": 62, "note_on_time": 58.58, "note_off_time": 58.729}, {"pitch": 76, "velocity": 49, "note_on_time": 58.894, "note_off_time": 59.055}, {"pitch": 77, "velocity": 27, "note_on_time": 59.19, "note_off_time": 59.292}, {"pitch": 79, "velocity": 48, "note_on_time": 59.135, "note_off_time": 59.368}, {"pitch": 76, "velocity": 46, "note_on_time": 59.565, "note_off_time": 59.649}, {"pitch": 76, "velocity": 60, "note_on_time": 59.764, "note_off_time": 59.874}, {"pitch": 76, "velocity": 54, "note_on_time": 59.976, "note_off_time": 60.027}, {"pitch": 76, "velocity": 73, "note_on_time": 60.096, "note_off_time": 60.218}, {"pitch": 74, "velocity": 57, "note_on_time": 62.581, "note_off_time": 62.741}, {"pitch": 74, "velocity": 58, "note_on_time": 62.934, "note_off_time": 63.055}, {"pitch": 74, "velocity": 45, "note_on_time": 63.224, "note_off_time": 63.349}, {"pitch": 74, "velocity": 47, "note_on_time": 63.504, "note_off_time": 63.626}, {"pitch": 74, "velocity": 44, "note_on_time": 63.769, "note_off_time": 63.881}, {"pitch": 74, "velocity": 41, "note_on_time": 64.025, "note_off_time": 64.137}, {"pitch": 74, "velocity": 53, "note_on_time": 64.311, "note_off_time": 64.404}, {"pitch": 74, "velocity": 42, "note_on_time": 64.564, "note_off_time": 64.674}, {"pitch": 74, "velocity": 47, "note_on_time": 64.813, "note_off_time": 64.925}, {"pitch": 74, "velocity": 44, "note_on_time": 65.062, "note_off_time": 65.179}, {"pitch": 74, "velocity": 49, "note_on_time": 65.314, "note_off_time": 65.372}, {"pitch": 72, "velocity": 65, "note_on_time": 65.558, "note_off_time": 65.766}, {"pitch": 74, "velocity": 66, "note_on_time": 66.379, "note_off_time": 66.486}, {"pitch": 74, "velocity": 62, "note_on_time": 66.589, "note_off_time": 66.709}, {"pitch": 72, "velocity": 56, "note_on_time": 66.893, "note_off_time": 67.051}, {"pitch": 72, "velocity": 41, "note_on_time": 67.593, "note_off_time": 67.748}, {"pitch": 72, "velocity": 39, "note_on_time": 67.901, "note_off_time": 68.036}, {"pitch": 72, "velocity": 49, "note_on_time": 68.195, "note_off_time": 68.312}, {"pitch": 72, "velocity": 47, "note_on_time": 68.45, "note_off_time": 68.603}, {"pitch": 74, "velocity": 57, "note_on_time": 68.749, "note_off_time": 68.877}, {"pitch": 74, "velocity": 56, "note_on_time": 68.997, "note_off_time": 69.112}, {"pitch": 74, "velocity": 55, "note_on_time": 69.229, "note_off_time": 69.348}, {"pitch": 76, "velocity": 32, "note_on_time": 69.531, "note_off_time": 69.909}, {"pitch": 77, "velocity": 40, "note_on_time": 69.7, "note_off_time": 69.982}, {"pitch": 79, "velocity": 49, "note_on_time": 69.783, "note_off_time": 69.992}, {"pitch": 76, "velocity": 24, "note_on_time": 70.233, "note_off_time": 70.634}, {"pitch": 79, "velocity": 23, "note_on_time": 70.456, "note_off_time": 70.653}, {"pitch": 77, "velocity": 13, "note_on_time": 70.501, "note_off_time": 70.656}, {"pitch": 74, "velocity": 20, "note_on_time": 70.895, "note_off_time": 71.026}, {"pitch": 76, "velocity": 1, "note_on_time": 70.947, "note_off_time": 71.498}, {"pitch": 77, "velocity": 39, "note_on_time": 71.375, "note_off_time": 71.679}, {"pitch": 77, "velocity": 54, "note_on_time": 72.044, "note_off_time": 72.219}, {"pitch": 77, "velocity": 32, "note_on_time": 72.379, "note_off_time": 72.579}, {"pitch": 77, "velocity": 2, "note_on_time": 72.714, "note_off_time": 72.824}, {"pitch": 74, "velocity": 37, "note_on_time": 72.873, "note_off_time": 72.975}, {"pitch": 74, "velocity": 36, "note_on_time": 73.087, "note_off_time": 73.161}, {"pitch": 74, "velocity": 1, "note_on_time": 73.424, "note_off_time": 73.716}, {"pitch": 76, "velocity": 43, "note_on_time": 73.759, "note_off_time": 73.99}, {"pitch": 74, "velocity": 48, "note_on_time": 74.005, "note_off_time": 74.315}, {"pitch": 72, "velocity": 27, "note_on_time": 74.35, "note_off_time": 74.489}, {"pitch": 77, "velocity": 38, "note_on_time": 74.621, "note_off_time": 74.882}, {"pitch": 74, "velocity": 43, "note_on_time": 74.864, "note_off_time": 75.057}, {"pitch": 76, "velocity": 59, "note_on_time": 75.11, "note_off_time": 75.264}, {"pitch": 74, "velocity": 42, "note_on_time": 77.714, "note_off_time": 77.82}, {"pitch": 74, "velocity": 47, "note_on_time": 77.974, "note_off_time": 78.088}, {"pitch": 74, "velocity": 49, "note_on_time": 78.237, "note_off_time": 78.329}, {"pitch": 74, "velocity": 47, "note_on_time": 78.453, "note_off_time": 78.572}, {"pitch": 76, "velocity": 59, "note_on_time": 78.712, "note_off_time": 78.897}, {"pitch": 77, "velocity": 39, "note_on_time": 79.007, "note_off_time": 79.197}, {"pitch": 79, "velocity": 15, "note_on_time": 79.047, "note_off_time": 79.27}, {"pitch": 76, "velocity": 34, "note_on_time": 79.413, "note_off_time": 79.638}, {"pitch": 72, "velocity": 52, "note_on_time": 79.917, "note_off_time": 80.091}, {"pitch": 76, "velocity": 17, "note_on_time": 80.4, "note_off_time": 80.454}, {"pitch": 74, "velocity": 1, "note_on_time": 80.656, "note_off_time": 80.806}, {"pitch": 76, "velocity": 53, "note_on_time": 80.905, "note_off_time": 80.998}, {"pitch": 74, "velocity": 32, "note_on_time": 81.097, "note_off_time": 81.223}, {"pitch": 74, "velocity": 23, "note_on_time": 81.321, "note_off_time": 81.396}, {"pitch": 74, "velocity": 39, "note_on_time": 82.223, "note_off_time": 82.29}, {"pitch": 74, "velocity": 50, "note_on_time": 82.417, "note_off_time": 82.476}, {"pitch": 74, "velocity": 31, "note_on_time": 82.617, "note_off_time": 82.691}, {"pitch": 74, "velocity": 61, "note_on_time": 82.806, "note_off_time": 82.9}, {"pitch": 74, "velocity": 41, "note_on_time": 83.003, "note_off_time": 83.078}, {"pitch": 74, "velocity": 46, "note_on_time": 83.21, "note_off_time": 83.279}, {"pitch": 76, "velocity": 51, "note_on_time": 83.468, "note_off_time": 83.543}, {"pitch": 77, "velocity": 43, "note_on_time": 83.816, "note_off_time": 84.193}, {"pitch": 79, "velocity": 39, "note_on_time": 83.973, "note_off_time": 84.463}, {"pitch": 76, "velocity": 57, "note_on_time": 84.458, "note_off_time": 84.652}, {"pitch": 72, "velocity": 23, "note_on_time": 84.266, "note_off_time": 84.694}, {"pitch": 74, "velocity": 60, "note_on_time": 87.857, "note_off_time": 87.967}, {"pitch": 74, "velocity": 44, "note_on_time": 88.145, "note_off_time": 88.228}, {"pitch": 74, "velocity": 43, "note_on_time": 88.377, "note_off_time": 88.454}, {"pitch": 74, "velocity": 47, "note_on_time": 88.612, "note_off_time": 88.69}, {"pitch": 74, "velocity": 55, "note_on_time": 88.841, "note_off_time": 88.948}, {"pitch": 76, "velocity": 57, "note_on_time": 89.104, "note_off_time": 89.26}, {"pitch": 74, "velocity": 56, "note_on_time": 89.789, "note_off_time": 89.895}, {"pitch": 74, "velocity": 42, "note_on_time": 90.024, "note_off_time": 90.133}, {"pitch": 74, "velocity": 39, "note_on_time": 90.274, "note_off_time": 90.407}, {"pitch": 76, "velocity": 51, "note_on_time": 90.589, "note_off_time": 90.727}, {"pitch": 74, "velocity": 50, "note_on_time": 91.503, "note_off_time": 91.599}, {"pitch": 74, "velocity": 44, "note_on_time": 91.728, "note_off_time": 91.837}, {"pitch": 74, "velocity": 50, "note_on_time": 91.956, "note_off_time": 92.043}, {"pitch": 76, "velocity": 61, "note_on_time": 92.243, "note_off_time": 92.374}, {"pitch": 74, "velocity": 50, "note_on_time": 93.135, "note_off_time": 93.238}, {"pitch": 74, "velocity": 43, "note_on_time": 93.378, "note_off_time": 93.488}, {"pitch": 74, "velocity": 40, "note_on_time": 93.626, "note_off_time": 93.701}, {"pitch": 74, "velocity": 52, "note_on_time": 93.826, "note_off_time": 93.931}, {"pitch": 74, "velocity": 29, "note_on_time": 94.07, "note_off_time": 94.145}, {"pitch": 74, "velocity": 44, "note_on_time": 94.273, "note_off_time": 94.374}, {"pitch": 74, "velocity": 58, "note_on_time": 94.482, "note_off_time": 94.587}, {"pitch": 76, "velocity": 32, "note_on_time": 94.768, "note_off_time": 94.868}, {"pitch": 76, "velocity": 58, "note_on_time": 95.315, "note_off_time": 95.452}, {"pitch": 76, "velocity": 42, "note_on_time": 95.584, "note_off_time": 95.688}, {"pitch": 76, "velocity": 52, "note_on_time": 95.819, "note_off_time": 95.93}, {"pitch": 76, "velocity": 43, "note_on_time": 96.007, "note_off_time": 96.085}, {"pitch": 74, "velocity": 56, "note_on_time": 96.222, "note_off_time": 96.322}, {"pitch": 74, "velocity": 40, "note_on_time": 96.439, "note_off_time": 96.528}, {"pitch": 74, "velocity": 52, "note_on_time": 96.642, "note_off_time": 96.727}, {"pitch": 76, "velocity": 55, "note_on_time": 96.899, "note_off_time": 97.064}, {"pitch": 74, "velocity": 61, "note_on_time": 97.12, "note_off_time": 97.226}, {"pitch": 76, "velocity": 39, "note_on_time": 97.332, "note_off_time": 97.434}, {"pitch": 74, "velocity": 53, "note_on_time": 97.456, "note_off_time": 97.57}, {"pitch": 74, "velocity": 62, "note_on_time": 97.807, "note_off_time": 97.902}, {"pitch": 76, "velocity": 7, "note_on_time": 97.759, "note_off_time": 97.916}, {"pitch": 72, "velocity": 40, "note_on_time": 100.043, "note_off_time": 100.179}, {"pitch": 72, "velocity": 18, "note_on_time": 100.355, "note_off_time": 100.474}, {"pitch": 72, "velocity": 41, "note_on_time": 100.681, "note_off_time": 100.823}, {"pitch": 72, "velocity": 45, "note_on_time": 100.969, "note_off_time": 101.094}, {"pitch": 72, "velocity": 49, "note_on_time": 101.296, "note_off_time": 101.436}, {"pitch": 72, "velocity": 37, "note_on_time": 101.623, "note_off_time": 101.743}, {"pitch": 72, "velocity": 57, "note_on_time": 101.953, "note_off_time": 102.067}, {"pitch": 72, "velocity": 51, "note_on_time": 102.257, "note_off_time": 102.466}, {"pitch": 79, "velocity": 68, "note_on_time": 102.554, "note_off_time": 102.764}, {"pitch": 72, "velocity": 57, "note_on_time": 103.206, "note_off_time": 103.319}, {"pitch": 72, "velocity": 46, "note_on_time": 103.482, "note_off_time": 103.581}, {"pitch": 72, "velocity": 53, "note_on_time": 103.772, "note_off_time": 103.89}, {"pitch": 72, "velocity": 45, "note_on_time": 104.048, "note_off_time": 104.166}, {"pitch": 72, "velocity": 46, "note_on_time": 104.341, "note_off_time": 104.505}, {"pitch": 72, "velocity": 13, "note_on_time": 104.991, "note_off_time": 105.086}, {"pitch": 79, "velocity": 68, "note_on_time": 104.92, "note_off_time": 105.101}, {"pitch": 72, "velocity": 44, "note_on_time": 105.677, "note_off_time": 105.885}, {"pitch": 74, "velocity": 68, "note_on_time": 106.16, "note_off_time": 106.338}, {"pitch": 72, "velocity": 54, "note_on_time": 106.658, "note_off_time": 106.902}, {"pitch": 74, "velocity": 62, "note_on_time": 107.14, "note_off_time": 107.327}, {"pitch": 72, "velocity": 53, "note_on_time": 107.596, "note_off_time": 107.832}, {"pitch": 74, "velocity": 53, "note_on_time": 108.081, "note_off_time": 108.29}, {"pitch": 72, "velocity": 30, "note_on_time": 108.578, "note_off_time": 108.841}, {"pitch": 74, "velocity": 56, "note_on_time": 109.116, "note_off_time": 109.27}, {"pitch": 72, "velocity": 30, "note_on_time": 109.571, "note_off_time": 109.823}, {"pitch": 74, "velocity": 49, "note_on_time": 110.078, "note_off_time": 110.211}, {"pitch": 72, "velocity": 36, "note_on_time": 110.461, "note_off_time": 110.664}, {"pitch": 74, "velocity": 54, "note_on_time": 110.912, "note_off_time": 111.079}, {"pitch": 72, "velocity": 34, "note_on_time": 111.357, "note_off_time": 111.54}, {"pitch": 74, "velocity": 53, "note_on_time": 111.821, "note_off_time": 111.98}, {"pitch": 74, "velocity": 36, "note_on_time": 112.291, "note_off_time": 112.425}, {"pitch": 72, "velocity": 38, "note_on_time": 112.756, "note_off_time": 112.973}, {"pitch": 74, "velocity": 68, "note_on_time": 113.219, "note_off_time": 113.419}, {"pitch": 72, "velocity": 52, "note_on_time": 113.68, "note_off_time": 113.907}, {"pitch": 74, "velocity": 53, "note_on_time": 114.138, "note_off_time": 114.28}, {"pitch": 72, "velocity": 27, "note_on_time": 114.582, "note_off_time": 114.799}, {"pitch": 72, "velocity": 37, "note_on_time": 115.085, "note_off_time": 115.258}, {"pitch": 74, "velocity": 61, "note_on_time": 115.085, "note_off_time": 115.265}, {"pitch": 72, "velocity": 54, "note_on_time": 115.576, "note_off_time": 115.768}, {"pitch": 74, "velocity": 62, "note_on_time": 116.032, "note_off_time": 116.227}, {"pitch": 72, "velocity": 24, "note_on_time": 116.08, "note_off_time": 116.552}, {"pitch": 76, "velocity": 49, "note_on_time": 116.739, "note_off_time": 116.907}, {"pitch": 77, "velocity": 37, "note_on_time": 117.08, "note_off_time": 117.462}, {"pitch": 79, "velocity": 13, "note_on_time": 117.257, "note_off_time": 117.585}, {"pitch": 79, "velocity": 41, "note_on_time": 117.805, "note_off_time": 118.179}, {"pitch": 76, "velocity": 17, "note_on_time": 118.118, "note_off_time": 118.284}, {"pitch": 74, "velocity": 25, "note_on_time": 118.232, "note_off_time": 118.356}, {"pitch": 76, "velocity": 31, "note_on_time": 118.418, "note_off_time": 118.515}, {"pitch": 79, "velocity": 10, "note_on_time": 118.745, "note_off_time": 118.856}, {"pitch": 74, "velocity": 36, "note_on_time": 118.902, "note_off_time": 118.965}, {"pitch": 74, "velocity": 20, "note_on_time": 119.079, "note_off_time": 119.24}, {"pitch": 76, "velocity": 1, "note_on_time": 119.623, "note_off_time": 119.782}, {"pitch": 72, "velocity": 1, "note_on_time": 118.775, "note_off_time": 119.936}, {"pitch": 79, "velocity": 1, "note_on_time": 119.287, "note_off_time": 120.091}, {"pitch": 74, "velocity": 84, "note_on_time": 120.163, "note_off_time": 120.221}, {"pitch": 74, "velocity": 60, "note_on_time": 120.366, "note_off_time": 120.393}, {"pitch": 79, "velocity": 49, "note_on_time": 120.623, "note_off_time": 120.891}, {"pitch": 76, "velocity": 58, "note_on_time": 121.288, "note_off_time": 121.468}, {"pitch": 76, "velocity": 52, "note_on_time": 121.632, "note_off_time": 121.774}, {"pitch": 76, "velocity": 64, "note_on_time": 121.892, "note_off_time": 122.03}, {"pitch": 76, "velocity": 49, "note_on_time": 122.136, "note_off_time": 122.237}, {"pitch": 76, "velocity": 39, "note_on_time": 122.35, "note_off_time": 122.569}, {"pitch": 72, "velocity": 59, "note_on_time": 122.644, "note_off_time": 122.808}, {"pitch": 74, "velocity": 52, "note_on_time": 123.441, "note_off_time": 123.518}, {"pitch": 74, "velocity": 39, "note_on_time": 123.706, "note_off_time": 123.858}, {"pitch": 74, "velocity": 31, "note_on_time": 123.961, "note_off_time": 124.117}, {"pitch": 76, "velocity": 49, "note_on_time": 124.281, "note_off_time": 124.472}, {"pitch": 79, "velocity": 51, "note_on_time": 124.592, "note_off_time": 124.803}, {"pitch": 72, "velocity": 36, "note_on_time": 125.341, "note_off_time": 125.467}, {"pitch": 72, "velocity": 40, "note_on_time": 125.652, "note_off_time": 125.796}, {"pitch": 72, "velocity": 40, "note_on_time": 125.96, "note_off_time": 126.086}, {"pitch": 72, "velocity": 27, "note_on_time": 126.262, "note_off_time": 126.389}, {"pitch": 72, "velocity": 51, "note_on_time": 126.529, "note_off_time": 126.685}, {"pitch": 72, "velocity": 47, "note_on_time": 126.835, "note_off_time": 126.992}, {"pitch": 74, "velocity": 49, "note_on_time": 127.139, "note_off_time": 127.261}, {"pitch": 74, "velocity": 43, "note_on_time": 127.404, "note_off_time": 127.526}, {"pitch": 74, "velocity": 32, "note_on_time": 127.682, "note_off_time": 127.765}, {"pitch": 74, "velocity": 31, "note_on_time": 127.928, "note_off_time": 128.007}, {"pitch": 74, "velocity": 41, "note_on_time": 128.186, "note_off_time": 128.264}, {"pitch": 74, "velocity": 40, "note_on_time": 128.439, "note_off_time": 128.521}, {"pitch": 74, "velocity": 42, "note_on_time": 128.667, "note_off_time": 128.77}, {"pitch": 74, "velocity": 41, "note_on_time": 128.903, "note_off_time": 129.014}, {"pitch": 74, "velocity": 47, "note_on_time": 129.141, "note_off_time": 129.239}, {"pitch": 74, "velocity": 40, "note_on_time": 129.386, "note_off_time": 129.478}, {"pitch": 74, "velocity": 42, "note_on_time": 129.614, "note_off_time": 129.706}, {"pitch": 74, "velocity": 36, "note_on_time": 129.851, "note_off_time": 129.922}, {"pitch": 74, "velocity": 47, "note_on_time": 130.036, "note_off_time": 130.143}, {"pitch": 76, "velocity": 55, "note_on_time": 130.305, "note_off_time": 130.535}, {"pitch": 79, "velocity": 55, "note_on_time": 130.606, "note_off_time": 130.962}, {"pitch": 76, "velocity": 63, "note_on_time": 130.911, "note_off_time": 131.17}, {"pitch": 72, "velocity": 54, "note_on_time": 133.668, "note_off_time": 133.837}, {"pitch": 72, "velocity": 54, "note_on_time": 133.958, "note_off_time": 134.077}, {"pitch": 72, "velocity": 54, "note_on_time": 134.238, "note_off_time": 134.368}, {"pitch": 72, "velocity": 43, "note_on_time": 134.522, "note_off_time": 134.666}, {"pitch": 72, "velocity": 7, "note_on_time": 134.866, "note_off_time": 134.959}, {"pitch": 74, "velocity": 45, "note_on_time": 134.841, "note_off_time": 134.989}, {"pitch": 76, "velocity": 55, "note_on_time": 135.114, "note_off_time": 135.324}, {"pitch": 79, "velocity": 52, "note_on_time": 135.363, "note_off_time": 135.551}, {"pitch": 74, "velocity": 55, "note_on_time": 136.03, "note_off_time": 136.194}, {"pitch": 72, "velocity": 29, "note_on_time": 136.029, "note_off_time": 136.205}, {"pitch": 74, "velocity": 50, "note_on_time": 136.3, "note_off_time": 136.405}, {"pitch": 72, "velocity": 18, "note_on_time": 136.306, "note_off_time": 136.452}, {"pitch": 72, "velocity": 51, "note_on_time": 136.584, "note_off_time": 136.734}, {"pitch": 72, "velocity": 51, "note_on_time": 136.863, "note_off_time": 137.017}, {"pitch": 76, "velocity": 39, "note_on_time": 137.146, "note_off_time": 137.331}, {"pitch": 77, "velocity": 38, "note_on_time": 137.465, "note_off_time": 137.636}, {"pitch": 79, "velocity": 56, "note_on_time": 137.428, "note_off_time": 137.693}, {"pitch": 76, "velocity": 49, "note_on_time": 137.731, "note_off_time": 137.934}, {"pitch": 72, "velocity": 18, "note_on_time": 137.721, "note_off_time": 138.098}, {"pitch": 72, "velocity": 39, "note_on_time": 138.452, "note_off_time": 138.6}, {"pitch": 72, "velocity": 52, "note_on_time": 138.739, "note_off_time": 138.888}, {"pitch": 72, "velocity": 52, "note_on_time": 139.028, "note_off_time": 139.169}, {"pitch": 72, "velocity": 55, "note_on_time": 139.305, "note_off_time": 139.433}, {"pitch": 72, "velocity": 56, "note_on_time": 139.605, "note_off_time": 139.74}, {"pitch": 74, "velocity": 50, "note_on_time": 139.881, "note_off_time": 140.085}, {"pitch": 76, "velocity": 59, "note_on_time": 140.154, "note_off_time": 140.409}, {"pitch": 79, "velocity": 57, "note_on_time": 140.698, "note_off_time": 140.925}, {"pitch": 76, "velocity": 51, "note_on_time": 140.997, "note_off_time": 141.171}, {"pitch": 77, "velocity": 40, "note_on_time": 141.324, "note_off_time": 141.455}, {"pitch": 79, "velocity": 50, "note_on_time": 141.263, "note_off_time": 141.513}, {"pitch": 77, "velocity": 22, "note_on_time": 141.678, "note_off_time": 141.791}, {"pitch": 74, "velocity": 26, "note_on_time": 141.843, "note_off_time": 142.081}, {"pitch": 77, "velocity": 13, "note_on_time": 142.165, "note_off_time": 142.359}, {"pitch": 76, "velocity": 57, "note_on_time": 142.17, "note_off_time": 142.639}, {"pitch": 74, "velocity": 1, "note_on_time": 142.414, "note_off_time": 142.761}, {"pitch": 74, "velocity": 25, "note_on_time": 145.216, "note_off_time": 145.379}, {"pitch": 74, "velocity": 55, "note_on_time": 145.492, "note_off_time": 145.621}, {"pitch": 74, "velocity": 39, "note_on_time": 145.766, "note_off_time": 145.864}, {"pitch": 72, "velocity": 1, "note_on_time": 141.638, "note_off_time": 145.949}, {"pitch": 74, "velocity": 45, "note_on_time": 145.995, "note_off_time": 146.111}, {"pitch": 74, "velocity": 40, "note_on_time": 146.257, "note_off_time": 146.367}, {"pitch": 74, "velocity": 39, "note_on_time": 146.521, "note_off_time": 146.626}, {"pitch": 74, "velocity": 36, "note_on_time": 146.787, "note_off_time": 146.884}, {"pitch": 74, "velocity": 38, "note_on_time": 147.051, "note_off_time": 147.136}, {"pitch": 74, "velocity": 48, "note_on_time": 147.31, "note_off_time": 147.411}, {"pitch": 74, "velocity": 46, "note_on_time": 147.581, "note_off_time": 147.674}, {"pitch": 74, "velocity": 43, "note_on_time": 147.837, "note_off_time": 147.908}, {"pitch": 74, "velocity": 43, "note_on_time": 148.081, "note_off_time": 148.167}, {"pitch": 74, "velocity": 38, "note_on_time": 148.328, "note_off_time": 148.404}, {"pitch": 74, "velocity": 45, "note_on_time": 148.557, "note_off_time": 148.645}, {"pitch": 74, "velocity": 49, "note_on_time": 148.774, "note_off_time": 148.861}, {"pitch": 74, "velocity": 53, "note_on_time": 148.981, "note_off_time": 149.073}, {"pitch": 74, "velocity": 49, "note_on_time": 149.192, "note_off_time": 149.255}, {"pitch": 74, "velocity": 49, "note_on_time": 149.39, "note_off_time": 149.451}, {"pitch": 72, "velocity": 43, "note_on_time": 149.563, "note_off_time": 149.74}, {"pitch": 72, "velocity": 47, "note_on_time": 150.183, "note_off_time": 150.311}, {"pitch": 72, "velocity": 39, "note_on_time": 150.491, "note_off_time": 150.619}, {"pitch": 72, "velocity": 51, "note_on_time": 150.794, "note_off_time": 150.909}, {"pitch": 72, "velocity": 44, "note_on_time": 151.064, "note_off_time": 151.181}, {"pitch": 72, "velocity": 46, "note_on_time": 151.355, "note_off_time": 151.449}, {"pitch": 74, "velocity": 46, "note_on_time": 151.852, "note_off_time": 152.001}, {"pitch": 72, "velocity": 44, "note_on_time": 151.622, "note_off_time": 152.156}, {"pitch": 74, "velocity": 32, "note_on_time": 153.134, "note_off_time": 153.253}, {"pitch": 74, "velocity": 38, "note_on_time": 153.412, "note_off_time": 153.538}, {"pitch": 74, "velocity": 40, "note_on_time": 153.675, "note_off_time": 153.769}, {"pitch": 74, "velocity": 23, "note_on_time": 153.934, "note_off_time": 154.103}, {"pitch": 74, "velocity": 57, "note_on_time": 154.235, "note_off_time": 154.355}, {"pitch": 74, "velocity": 46, "note_on_time": 154.492, "note_off_time": 154.577}, {"pitch": 74, "velocity": 33, "note_on_time": 154.729, "note_off_time": 154.832}, {"pitch": 74, "velocity": 41, "note_on_time": 154.967, "note_off_time": 155.062}, {"pitch": 74, "velocity": 41, "note_on_time": 155.195, "note_off_time": 155.308}, {"pitch": 74, "velocity": 44, "note_on_time": 155.439, "note_off_time": 155.554}, {"pitch": 74, "velocity": 52, "note_on_time": 155.671, "note_off_time": 155.773}, {"pitch": 74, "velocity": 50, "note_on_time": 155.895, "note_off_time": 156.002}, {"pitch": 74, "velocity": 49, "note_on_time": 156.116, "note_off_time": 156.211}, {"pitch": 74, "velocity": 48, "note_on_time": 156.327, "note_off_time": 156.396}, {"pitch": 74, "velocity": 50, "note_on_time": 156.516, "note_off_time": 156.609}, {"pitch": 74, "velocity": 50, "note_on_time": 156.994, "note_off_time": 157.081}, {"pitch": 74, "velocity": 55, "note_on_time": 157.242, "note_off_time": 157.334}, {"pitch": 74, "velocity": 22, "note_on_time": 157.487, "note_off_time": 157.535}, {"pitch": 74, "velocity": 51, "note_on_time": 157.641, "note_off_time": 157.709}, {"pitch": 74, "velocity": 53, "note_on_time": 157.83, "note_off_time": 157.903}, {"pitch": 74, "velocity": 9, "note_on_time": 158.027, "note_off_time": 158.112}, {"pitch": 76, "velocity": 58, "note_on_time": 158.113, "note_off_time": 158.502}, {"pitch": 79, "velocity": 64, "note_on_time": 158.385, "note_off_time": 158.685}, {"pitch": 77, "velocity": 58, "note_on_time": 158.389, "note_off_time": 158.8}, {"pitch": 76, "velocity": 9, "note_on_time": 158.724, "note_off_time": 158.835}, {"pitch": 77, "velocity": 53, "note_on_time": 158.978, "note_off_time": 159.102}, {"pitch": 77, "velocity": 52, "note_on_time": 159.222, "note_off_time": 159.419}, {"pitch": 74, "velocity": 51, "note_on_time": 159.45, "note_off_time": 159.613}, {"pitch": 76, "velocity": 6, "note_on_time": 159.686, "note_off_time": 159.868}, {"pitch": 74, "velocity": 43, "note_on_time": 160.175, "note_off_time": 160.354}, {"pitch": 72, "velocity": 16, "note_on_time": 159.922, "note_off_time": 160.557}, {"pitch": 76, "velocity": 39, "note_on_time": 160.541, "note_off_time": 160.62}, {"pitch": 72, "velocity": 1, "note_on_time": 160.905, "note_off_time": 161.154}, {"pitch": 79, "velocity": 58, "note_on_time": 161.304, "note_off_time": 161.811}, {"pitch": 76, "velocity": 55, "note_on_time": 161.917, "note_off_time": 162.043}, {"pitch": 76, "velocity": 47, "note_on_time": 162.55, "note_off_time": 162.684}, {"pitch": 74, "velocity": 31, "note_on_time": 162.831, "note_off_time": 162.919}, {"pitch": 74, "velocity": 56, "note_on_time": 163.042, "note_off_time": 163.14}, {"pitch": 74, "velocity": 40, "note_on_time": 163.281, "note_off_time": 163.359}, {"pitch": 74, "velocity": 46, "note_on_time": 163.476, "note_off_time": 163.566}, {"pitch": 74, "velocity": 41, "note_on_time": 163.689, "note_off_time": 163.754}, {"pitch": 74, "velocity": 33, "note_on_time": 163.904, "note_off_time": 163.968}, {"pitch": 72, "velocity": 21, "note_on_time": 164.135, "note_off_time": 164.237}, {"pitch": 74, "velocity": 14, "note_on_time": 164.397, "note_off_time": 164.448}, {"pitch": 72, "velocity": 23, "note_on_time": 164.377, "note_off_time": 164.496}, {"pitch": 72, "velocity": 28, "note_on_time": 164.626, "note_off_time": 164.725}, {"pitch": 74, "velocity": 54, "note_on_time": 164.851, "note_off_time": 164.945}, {"pitch": 72, "velocity": 7, "note_on_time": 164.895, "note_off_time": 164.998}, {"pitch": 72, "velocity": 30, "note_on_time": 165.09, "note_off_time": 165.242}, {"pitch": 72, "velocity": 54, "note_on_time": 165.363, "note_off_time": 165.439}, {"pitch": 74, "velocity": 7, "note_on_time": 165.455, "note_off_time": 165.528}, {"pitch": 74, "velocity": 46, "note_on_time": 165.599, "note_off_time": 165.731}, {"pitch": 76, "velocity": 57, "note_on_time": 165.831, "note_off_time": 166.278}, {"pitch": 77, "velocity": 43, "note_on_time": 166.114, "note_off_time": 166.299}, {"pitch": 79, "velocity": 57, "note_on_time": 166.071, "note_off_time": 166.341}, {"pitch": 76, "velocity": 36, "note_on_time": 166.521, "note_off_time": 166.771}, {"pitch": 72, "velocity": 37, "note_on_time": 170.047, "note_off_time": 170.276}, {"pitch": 72, "velocity": 53, "note_on_time": 170.491, "note_off_time": 170.744}, {"pitch": 72, "velocity": 52, "note_on_time": 170.954, "note_off_time": 171.169}, {"pitch": 72, "velocity": 61, "note_on_time": 171.394, "note_off_time": 171.616}, {"pitch": 72, "velocity": 54, "note_on_time": 171.844, "note_off_time": 172.062}, {"pitch": 72, "velocity": 56, "note_on_time": 172.278, "note_off_time": 172.487}, {"pitch": 72, "velocity": 55, "note_on_time": 172.729, "note_off_time": 172.94}, {"pitch": 72, "velocity": 53, "note_on_time": 173.194, "note_off_time": 173.405}, {"pitch": 72, "velocity": 33, "note_on_time": 173.626, "note_off_time": 173.786}, {"pitch": 74, "velocity": 58, "note_on_time": 173.954, "note_off_time": 174.154}, {"pitch": 72, "velocity": 52, "note_on_time": 174.588, "note_off_time": 174.763}, {"pitch": 72, "velocity": 51, "note_on_time": 174.953, "note_off_time": 175.142}, {"pitch": 72, "velocity": 48, "note_on_time": 175.253, "note_off_time": 175.437}, {"pitch": 72, "velocity": 62, "note_on_time": 175.562, "note_off_time": 175.712}, {"pitch": 74, "velocity": 51, "note_on_time": 175.91, "note_off_time": 176.065}, {"pitch": 74, "velocity": 52, "note_on_time": 176.197, "note_off_time": 176.299}, {"pitch": 74, "velocity": 49, "note_on_time": 176.426, "note_off_time": 176.532}, {"pitch": 74, "velocity": 49, "note_on_time": 176.651, "note_off_time": 176.779}, {"pitch": 72, "velocity": 57, "note_on_time": 176.918, "note_off_time": 177.043}, {"pitch": 72, "velocity": 34, "note_on_time": 177.2, "note_off_time": 177.309}, {"pitch": 74, "velocity": 51, "note_on_time": 177.245, "note_off_time": 177.349}, {"pitch": 74, "velocity": 58, "note_on_time": 177.453, "note_off_time": 177.541}, {"pitch": 74, "velocity": 58, "note_on_time": 177.667, "note_off_time": 177.75}, {"pitch": 74, "velocity": 56, "note_on_time": 177.866, "note_off_time": 177.955}, {"pitch": 74, "velocity": 65, "note_on_time": 178.049, "note_off_time": 178.125}, {"pitch": 74, "velocity": 58, "note_on_time": 178.23, "note_off_time": 178.278}, {"pitch": 74, "velocity": 62, "note_on_time": 178.374, "note_off_time": 178.425}, {"pitch": 74, "velocity": 58, "note_on_time": 178.67, "note_off_time": 178.732}, {"pitch": 74, "velocity": 72, "note_on_time": 178.816, "note_off_time": 178.864}, {"pitch": 74, "velocity": 68, "note_on_time": 178.963, "note_off_time": 179.002}, {"pitch": 74, "velocity": 62, "note_on_time": 179.091, "note_off_time": 179.165}, {"pitch": 74, "velocity": 59, "note_on_time": 179.261, "note_off_time": 179.29}, {"pitch": 74, "velocity": 74, "note_on_time": 179.38, "note_off_time": 179.455}, {"pitch": 72, "velocity": 67, "note_on_time": 179.675, "note_off_time": 179.812}, {"pitch": 74, "velocity": 67, "note_on_time": 179.929, "note_off_time": 180.043}, {"pitch": 72, "velocity": 38, "note_on_time": 180.217, "note_off_time": 180.331}, {"pitch": 74, "velocity": 52, "note_on_time": 180.243, "note_off_time": 180.368}, {"pitch": 74, "velocity": 47, "note_on_time": 180.496, "note_off_time": 180.573}, {"pitch": 72, "velocity": 51, "note_on_time": 180.5, "note_off_time": 180.605}, {"pitch": 74, "velocity": 65, "note_on_time": 180.729, "note_off_time": 180.855}, {"pitch": 74, "velocity": 60, "note_on_time": 180.96, "note_off_time": 181.057}, {"pitch": 74, "velocity": 58, "note_on_time": 181.163, "note_off_time": 181.272}, {"pitch": 74, "velocity": 65, "note_on_time": 181.369, "note_off_time": 181.473}, {"pitch": 72, "velocity": 37, "note_on_time": 181.575, "note_off_time": 181.672}, {"pitch": 72, "velocity": 62, "note_on_time": 181.792, "note_off_time": 181.876}, {"pitch": 74, "velocity": 41, "note_on_time": 182.016, "note_off_time": 182.122}, {"pitch": 74, "velocity": 73, "note_on_time": 182.189, "note_off_time": 182.288}, {"pitch": 74, "velocity": 70, "note_on_time": 182.366, "note_off_time": 182.427}, {"pitch": 74, "velocity": 57, "note_on_time": 182.537, "note_off_time": 182.61}, {"pitch": 79, "velocity": 28, "note_on_time": 183.108, "note_off_time": 183.349}, {"pitch": 76, "velocity": 62, "note_on_time": 182.773, "note_off_time": 183.796}, {"pitch": 77, "velocity": 42, "note_on_time": 183.07, "note_off_time": 184.163}, {"pitch": 79, "velocity": 59, "note_on_time": 183.639, "note_off_time": 184.181}, {"pitch": 74, "velocity": 40, "note_on_time": 184.387, "note_off_time": 184.525}, {"pitch": 76, "velocity": 44, "note_on_time": 184.543, "note_off_time": 184.708}, {"pitch": 76, "velocity": 64, "note_on_time": 184.799, "note_off_time": 184.849}, {"pitch": 76, "velocity": 50, "note_on_time": 184.941, "note_off_time": 184.998}, {"pitch": 74, "velocity": 33, "note_on_time": 185.01, "note_off_time": 185.067}, {"pitch": 76, "velocity": 53, "note_on_time": 185.084, "note_off_time": 185.146}, {"pitch": 77, "velocity": 31, "note_on_time": 185.122, "note_off_time": 185.167}, {"pitch": 77, "velocity": 27, "note_on_time": 185.245, "note_off_time": 185.345}, {"pitch": 79, "velocity": 33, "note_on_time": 185.122, "note_off_time": 185.346}, {"pitch": 76, "velocity": 47, "note_on_time": 185.243, "note_off_time": 185.354}, {"pitch": 74, "velocity": 89, "note_on_time": 185.333, "note_off_time": 185.422}, {"pitch": 76, "velocity": 40, "note_on_time": 185.459, "note_off_time": 185.5}, {"pitch": 74, "velocity": 70, "note_on_time": 185.505, "note_off_time": 185.547}, {"pitch": 74, "velocity": 65, "note_on_time": 185.632, "note_off_time": 185.677}, {"pitch": 77, "velocity": 29, "note_on_time": 185.595, "note_off_time": 185.793}, {"pitch": 74, "velocity": 52, "note_on_time": 185.795, "note_off_time": 185.832}, {"pitch": 77, "velocity": 62, "note_on_time": 185.865, "note_off_time": 185.925}, {"pitch": 72, "velocity": 37, "note_on_time": 185.743, "note_off_time": 185.948}, {"pitch": 79, "velocity": 32, "note_on_time": 185.549, "note_off_time": 186.488}, {"pitch": 76, "velocity": 61, "note_on_time": 186.422, "note_off_time": 186.731}, {"pitch": 74, "velocity": 49, "note_on_time": 187.094, "note_off_time": 187.213}, {"pitch": 76, "velocity": 55, "note_on_time": 187.262, "note_off_time": 187.354}, {"pitch": 77, "velocity": 49, "note_on_time": 187.266, "note_off_time": 187.357}, {"pitch": 79, "velocity": 39, "note_on_time": 187.319, "note_off_time": 187.392}, {"pitch": 74, "velocity": 66, "note_on_time": 187.372, "note_off_time": 187.419}, {"pitch": 74, "velocity": 55, "note_on_time": 187.489, "note_off_time": 187.559}, {"pitch": 77, "velocity": 73, "note_on_time": 187.594, "note_off_time": 187.645}, {"pitch": 76, "velocity": 74, "note_on_time": 187.591, "note_off_time": 187.651}, {"pitch": 79, "velocity": 36, "note_on_time": 187.612, "note_off_time": 187.688}, {"pitch": 74, "velocity": 81, "note_on_time": 187.896, "note_off_time": 187.995}, {"pitch": 76, "velocity": 62, "note_on_time": 188.012, "note_off_time": 188.06}, {"pitch": 77, "velocity": 60, "note_on_time": 188.156, "note_off_time": 188.246}, {"pitch": 79, "velocity": 39, "note_on_time": 188.119, "note_off_time": 188.265}, {"pitch": 76, "velocity": 74, "note_on_time": 188.601, "note_off_time": 188.82}, {"pitch": 79, "velocity": 44, "note_on_time": 189.501, "note_off_time": 189.86}, {"pitch": 79, "velocity": 33, "note_on_time": 190.052, "note_off_time": 190.26}, {"pitch": 77, "velocity": 1, "note_on_time": 190.55, "note_off_time": 190.687}, {"pitch": 79, "velocity": 44, "note_on_time": 190.453, "note_off_time": 190.695}, {"pitch": 79, "velocity": 52, "note_on_time": 190.837, "note_off_time": 190.999}, {"pitch": 77, "velocity": 69, "note_on_time": 190.83, "note_off_time": 191.018}, {"pitch": 77, "velocity": 58, "note_on_time": 191.15, "note_off_time": 191.554}, {"pitch": 76, "velocity": 55, "note_on_time": 191.642, "note_off_time": 191.722}, {"pitch": 76, "velocity": 69, "note_on_time": 191.857, "note_off_time": 191.967}, {"pitch": 76, "velocity": 63, "note_on_time": 192.06, "note_off_time": 192.156}, {"pitch": 74, "velocity": 51, "note_on_time": 192.268, "note_off_time": 192.333}, {"pitch": 74, "velocity": 59, "note_on_time": 192.446, "note_off_time": 192.564}, {"pitch": 74, "velocity": 65, "note_on_time": 192.664, "note_off_time": 192.754}, {"pitch": 72, "velocity": 30, "note_on_time": 192.875, "note_off_time": 192.946}, {"pitch": 72, "velocity": 54, "note_on_time": 193.062, "note_off_time": 193.131}, {"pitch": 72, "velocity": 58, "note_on_time": 193.243, "note_off_time": 193.328}, {"pitch": 72, "velocity": 55, "note_on_time": 193.456, "note_off_time": 193.526}, {"pitch": 72, "velocity": 52, "note_on_time": 193.665, "note_off_time": 193.729}, {"pitch": 72, "velocity": 30, "note_on_time": 193.854, "note_off_time": 194.225}, {"pitch": 76, "velocity": 61, "note_on_time": 194.147, "note_off_time": 194.306}, {"pitch": 76, "velocity": 10, "note_on_time": 194.364, "note_off_time": 194.43}]</notes><guidance name="Guidance Mode">None</guidance><error name="Error value">99</error></trial></trials></MIDI>