<MIDI midiNo="2023_06_06-11_26_46"><target_notes><notes name="Note List">[{"pitch": 60, "velocity": 40, "note_on_time": 0.01, "note_off_time": 1.018}, {"pitch": 64, "velocity": 40, "note_on_time": 0.01, "note_off_time": 1.019}, {"pitch": 67, "velocity": 40, "note_on_time": 0.011, "note_off_time": 1.02}, {"pitch": 48, "velocity": 40, "note_on_time": 0.011, "note_off_time": 1.02}, {"pitch": 52, "velocity": 40, "note_on_time": 1.02, "note_off_time": 2.025}, {"pitch": 55, "velocity": 40, "note_on_time": 1.02, "note_off_time": 2.026}, {"pitch": 77, "velocity": 40, "note_on_time": 2.024, "note_off_time": 3.032}, {"pitch": 48, "velocity": 40, "note_on_time": 2.026, "note_off_time": 3.032}, {"pitch": 52, "velocity": 40, "note_on_time": 3.032, "note_off_time": 4.035}, {"pitch": 55, "velocity": 40, "note_on_time": 3.032, "note_off_time": 4.035}, {"pitch": 48, "velocity": 40, "note_on_time": 4.035, "note_off_time": 5.038}, {"pitch": 52, "velocity": 40, "note_on_time": 5.038, "note_off_time": 6.044}, {"pitch": 55, "velocity": 40, "note_on_time": 5.038, "note_off_time": 6.044}, {"pitch": 48, "velocity": 40, "note_on_time": 6.044, "note_off_time": 7.046}, {"pitch": 52, "velocity": 40, "note_on_time": 7.046, "note_off_time": 8.062}, {"pitch": 55, "velocity": 40, "note_on_time": 7.046, "note_off_time": 8.062}, {"pitch": 60, "velocity": 40, "note_on_time": 8.061, "note_off_time": 9.078}, {"pitch": 64, "velocity": 40, "note_on_time": 8.061, "note_off_time": 9.079}, {"pitch": 67, "velocity": 40, "note_on_time": 8.062, "note_off_time": 9.08}, {"pitch": 48, "velocity": 40, "note_on_time": 8.062, "note_off_time": 9.08}, {"pitch": 52, "velocity": 40, "note_on_time": 9.08, "note_off_time": 10.088}, {"pitch": 55, "velocity": 40, "note_on_time": 9.08, "note_off_time": 10.088}, {"pitch": 76, "velocity": 40, "note_on_time": 10.088, "note_off_time": 11.102}, {"pitch": 48, "velocity": 40, "note_on_time": 10.088, "note_off_time": 11.102}, {"pitch": 52, "velocity": 40, "note_on_time": 11.103, "note_off_time": 12.114}, {"pitch": 55, "velocity": 40, "note_on_time": 11.103, "note_off_time": 12.114}, {"pitch": 48, "velocity": 40, "note_on_time": 12.114, "note_off_time": 13.125}, {"pitch": 52, "velocity": 40, "note_on_time": 13.125, "note_off_time": 14.141}, {"pitch": 55, "velocity": 40, "note_on_time": 13.125, "note_off_time": 14.141}, {"pitch": 48, "velocity": 40, "note_on_time": 14.141, "note_off_time": 15.148}, {"pitch": 52, "velocity": 40, "note_on_time": 15.148, "note_off_time": 16.166}, {"pitch": 55, "velocity": 40, "note_on_time": 15.148, "note_off_time": 16.166}, {"pitch": 60, "velocity": 40, "note_on_time": 16.164, "note_off_time": 17.171}, {"pitch": 64, "velocity": 40, "note_on_time": 16.165, "note_off_time": 17.171}, {"pitch": 67, "velocity": 40, "note_on_time": 16.165, "note_off_time": 17.171}, {"pitch": 48, "velocity": 40, "note_on_time": 16.166, "note_off_time": 17.172}, {"pitch": 52, "velocity": 40, "note_on_time": 17.172, "note_off_time": 18.178}, {"pitch": 55, "velocity": 40, "note_on_time": 17.172, "note_off_time": 18.178}, {"pitch": 74, "velocity": 40, "note_on_time": 18.178, "note_off_time": 19.183}, {"pitch": 48, "velocity": 40, "note_on_time": 18.178, "note_off_time": 19.184}, {"pitch": 52, "velocity": 40, "note_on_time": 19.184, "note_off_time": 20.197}, {"pitch": 55, "velocity": 40, "note_on_time": 19.184, "note_off_time": 20.197}, {"pitch": 48, "velocity": 40, "note_on_time": 20.197, "note_off_time": 21.206}, {"pitch": 52, "velocity": 40, "note_on_time": 21.206, "note_off_time": 22.218}, {"pitch": 55, "velocity": 40, "note_on_time": 21.206, "note_off_time": 22.218}, {"pitch": 48, "velocity": 40, "note_on_time": 22.218, "note_off_time": 23.232}, {"pitch": 52, "velocity": 40, "note_on_time": 23.232, "note_off_time": 24.236}, {"pitch": 55, "velocity": 40, "note_on_time": 23.232, "note_off_time": 24.237}, {"pitch": 60, "velocity": 40, "note_on_time": 24.235, "note_off_time": 25.247}, {"pitch": 64, "velocity": 40, "note_on_time": 24.236, "note_off_time": 25.248}, {"pitch": 67, "velocity": 40, "note_on_time": 24.236, "note_off_time": 25.249}, {"pitch": 48, "velocity": 40, "note_on_time": 24.237, "note_off_time": 25.249}, {"pitch": 52, "velocity": 40, "note_on_time": 25.249, "note_off_time": 26.264}, {"pitch": 55, "velocity": 40, "note_on_time": 25.249, "note_off_time": 26.265}, {"pitch": 79, "velocity": 40, "note_on_time": 26.264, "note_off_time": 27.267}, {"pitch": 48, "velocity": 40, "note_on_time": 26.265, "note_off_time": 27.267}, {"pitch": 52, "velocity": 40, "note_on_time": 27.267, "note_off_time": 28.287}, {"pitch": 55, "velocity": 40, "note_on_time": 27.267, "note_off_time": 28.287}, {"pitch": 48, "velocity": 40, "note_on_time": 28.287, "note_off_time": 29.301}, {"pitch": 52, "velocity": 40, "note_on_time": 29.301, "note_off_time": 30.317}, {"pitch": 55, "velocity": 40, "note_on_time": 29.301, "note_off_time": 30.317}, {"pitch": 48, "velocity": 40, "note_on_time": 30.317, "note_off_time": 31.319}, {"pitch": 52, "velocity": 40, "note_on_time": 31.319, "note_off_time": 32.329}, {"pitch": 55, "velocity": 40, "note_on_time": 31.319, "note_off_time": 32.329}, {"pitch": 60, "velocity": 40, "note_on_time": 32.327, "note_off_time": 33.339}, {"pitch": 64, "velocity": 40, "note_on_time": 32.328, "note_off_time": 33.34}, {"pitch": 67, "velocity": 40, "note_on_time": 32.328, "note_off_time": 33.341}, {"pitch": 48, "velocity": 40, "note_on_time": 32.329, "note_off_time": 33.341}, {"pitch": 52, "velocity": 40, "note_on_time": 33.341, "note_off_time": 34.347}, {"pitch": 55, "velocity": 40, "note_on_time": 33.341, "note_off_time": 34.348}, {"pitch": 77, "velocity": 40, "note_on_time": 34.347, "note_off_time": 35.357}, {"pitch": 48, "velocity": 40, "note_on_time": 34.348, "note_off_time": 35.358}, {"pitch": 52, "velocity": 40, "note_on_time": 35.358, "note_off_time": 36.37}, {"pitch": 55, "velocity": 40, "note_on_time": 35.358, "note_off_time": 36.37}, {"pitch": 48, "velocity": 40, "note_on_time": 36.37, "note_off_time": 37.372}, {"pitch": 52, "velocity": 40, "note_on_time": 37.372, "note_off_time": 38.38}, {"pitch": 55, "velocity": 40, "note_on_time": 37.372, "note_off_time": 38.38}, {"pitch": 48, "velocity": 40, "note_on_time": 38.38, "note_off_time": 39.391}, {"pitch": 52, "velocity": 40, "note_on_time": 39.391, "note_off_time": 40.407}, {"pitch": 55, "velocity": 40, "note_on_time": 39.391, "note_off_time": 40.407}, {"pitch": 60, "velocity": 40, "note_on_time": 40.405, "note_off_time": 41.418}, {"pitch": 64, "velocity": 40, "note_on_time": 40.406, "note_off_time": 41.419}, {"pitch": 67, "velocity": 40, "note_on_time": 40.406, "note_off_time": 41.42}, {"pitch": 76, "velocity": 40, "note_on_time": 42.431, "note_off_time": 43.433}, {"pitch": 60, "velocity": 40, "note_on_time": 48.446, "note_off_time": 49.457}, {"pitch": 64, "velocity": 40, "note_on_time": 48.447, "note_off_time": 49.458}, {"pitch": 67, "velocity": 40, "note_on_time": 48.447, "note_off_time": 49.458}, {"pitch": 79, "velocity": 40, "note_on_time": 50.468, "note_off_time": 51.47}, {"pitch": 60, "velocity": 40, "note_on_time": 56.475, "note_off_time": 57.485}, {"pitch": 64, "velocity": 40, "note_on_time": 56.476, "note_off_time": 57.489}, {"pitch": 67, "velocity": 40, "note_on_time": 56.476, "note_off_time": 57.489}, {"pitch": 76, "velocity": 40, "note_on_time": 58.5, "note_off_time": 59.516}, {"pitch": 60, "velocity": 40, "note_on_time": 64.519, "note_off_time": 65.534}, {"pitch": 64, "velocity": 40, "note_on_time": 64.52, "note_off_time": 65.535}, {"pitch": 67, "velocity": 40, "note_on_time": 64.521, "note_off_time": 65.536}, {"pitch": 79, "velocity": 40, "note_on_time": 66.55, "note_off_time": 67.565}, {"pitch": 60, "velocity": 40, "note_on_time": 72.575, "note_off_time": 73.58}, {"pitch": 64, "velocity": 40, "note_on_time": 72.576, "note_off_time": 73.582}, {"pitch": 67, "velocity": 40, "note_on_time": 72.577, "note_off_time": 73.582}, {"pitch": 77, "velocity": 40, "note_on_time": 74.597, "note_off_time": 75.61}, {"pitch": 60, "velocity": 40, "note_on_time": 80.619, "note_off_time": 81.635}, {"pitch": 64, "velocity": 40, "note_on_time": 80.62, "note_off_time": 81.636}, {"pitch": 67, "velocity": 40, "note_on_time": 80.62, "note_off_time": 81.636}, {"pitch": 74, "velocity": 40, "note_on_time": 82.649, "note_off_time": 83.662}, {"pitch": 60, "velocity": 40, "note_on_time": 88.68, "note_off_time": 89.689}, {"pitch": 64, "velocity": 40, "note_on_time": 88.681, "note_off_time": 89.69}, {"pitch": 67, "velocity": 40, "note_on_time": 88.682, "note_off_time": 89.691}, {"pitch": 72, "velocity": 40, "note_on_time": 90.698, "note_off_time": 91.7}, {"pitch": 60, "velocity": 40, "note_on_time": 96.71, "note_off_time": 97.72}, {"pitch": 64, "velocity": 40, "note_on_time": 96.711, "note_off_time": 97.721}, {"pitch": 67, "velocity": 40, "note_on_time": 96.711, "note_off_time": 97.721}, {"pitch": 77, "velocity": 40, "note_on_time": 98.734, "note_off_time": 99.75}, {"pitch": 60, "velocity": 40, "note_on_time": 104.758, "note_off_time": 105.774}, {"pitch": 64, "velocity": 40, "note_on_time": 104.759, "note_off_time": 105.776}, {"pitch": 67, "velocity": 40, "note_on_time": 104.759, "note_off_time": 105.776}, {"pitch": 72, "velocity": 40, "note_on_time": 106.785, "note_off_time": 107.786}, {"pitch": 60, "velocity": 40, "note_on_time": 112.793, "note_off_time": 113.8}, {"pitch": 64, "velocity": 40, "note_on_time": 112.794, "note_off_time": 113.8}, {"pitch": 67, "velocity": 40, "note_on_time": 112.795, "note_off_time": 113.801}, {"pitch": 74, "velocity": 40, "note_on_time": 114.809, "note_off_time": 115.822}, {"pitch": 60, "velocity": 40, "note_on_time": 120.832, "note_off_time": 121.836}, {"pitch": 64, "velocity": 40, "note_on_time": 120.832, "note_off_time": 121.837}, {"pitch": 67, "velocity": 40, "note_on_time": 120.833, "note_off_time": 121.838}, {"pitch": 72, "velocity": 40, "note_on_time": 122.841, "note_off_time": 123.856}, {"pitch": 60, "velocity": 40, "note_on_time": 128.87, "note_off_time": 129.878}, {"pitch": 64, "velocity": 40, "note_on_time": 128.871, "note_off_time": 129.879}, {"pitch": 67, "velocity": 40, "note_on_time": 128.871, "note_off_time": 129.88}, {"pitch": 79, "velocity": 40, "note_on_time": 130.898, "note_off_time": 131.905}, {"pitch": 60, "velocity": 40, "note_on_time": 136.912, "note_off_time": 137.914}, {"pitch": 64, "velocity": 40, "note_on_time": 136.913, "note_off_time": 137.915}, {"pitch": 67, "velocity": 40, "note_on_time": 136.913, "note_off_time": 137.915}, {"pitch": 74, "velocity": 40, "note_on_time": 138.917, "note_off_time": 139.922}, {"pitch": 60, "velocity": 40, "note_on_time": 144.934, "note_off_time": 145.937}, {"pitch": 64, "velocity": 40, "note_on_time": 144.935, "note_off_time": 145.938}, {"pitch": 67, "velocity": 40, "note_on_time": 144.935, "note_off_time": 145.938}, {"pitch": 76, "velocity": 40, "note_on_time": 146.94, "note_off_time": 147.955}, {"pitch": 60, "velocity": 40, "note_on_time": 152.956, "note_off_time": 153.971}, {"pitch": 64, "velocity": 40, "note_on_time": 152.956, "note_off_time": 153.972}, {"pitch": 67, "velocity": 40, "note_on_time": 152.956, "note_off_time": 153.973}, {"pitch": 72, "velocity": 40, "note_on_time": 154.982, "note_off_time": 155.991}, {"pitch": 60, "velocity": 40, "note_on_time": 160.992, "note_off_time": 161.994}, {"pitch": 64, "velocity": 40, "note_on_time": 160.993, "note_off_time": 161.995}, {"pitch": 67, "velocity": 40, "note_on_time": 160.993, "note_off_time": 161.995}, {"pitch": 77, "velocity": 40, "note_on_time": 163.003, "note_off_time": 164.006}]</notes><options name="Option List">((4, 4), [0.5, 0.25], 3, 8, &lt;NoteRangePerHand.TWO_NOTES: 3&gt;, &lt;NoteRangePerHand.ONE_NOTE: 2&gt;, False, True, True, 100)</options></target_notes><trials><trial trial_no="1" timestamp="2023_06_06-11_24_02"><notes name="Played Notes">[{"pitch": 79, "velocity": 62, "note_on_time": 4.335, "note_off_time": 6.32}, {"pitch": 77, "velocity": 32, "note_on_time": 11.965, "note_off_time": 14.792}, {"pitch": 76, "velocity": 48, "note_on_time": 15.24, "note_off_time": 16.238}, {"pitch": 76, "velocity": 55, "note_on_time": 16.447, "note_off_time": 17.637}, {"pitch": 79, "velocity": 63, "note_on_time": 19.269, "note_off_time": 20.019}, {"pitch": 77, "velocity": 64, "note_on_time": 20.279, "note_off_time": 22.778}, {"pitch": 74, "velocity": 65, "note_on_time": 28.407, "note_off_time": 28.828}, {"pitch": 79, "velocity": 59, "note_on_time": 29.277, "note_off_time": 30.465}, {"pitch": 79, "velocity": 18, "note_on_time": 30.64, "note_off_time": 33.142}, {"pitch": 77, "velocity": 55, "note_on_time": 35.943, "note_off_time": 37.329}, {"pitch": 76, "velocity": 52, "note_on_time": 43.664, "note_off_time": 45.182}, {"pitch": 79, "velocity": 59, "note_on_time": 51.788, "note_off_time": 53.093}, {"pitch": 77, "velocity": 60, "note_on_time": 59.838, "note_off_time": 60.372}, {"pitch": 76, "velocity": 63, "note_on_time": 60.809, "note_off_time": 61.635}, {"pitch": 76, "velocity": 40, "note_on_time": 61.825, "note_off_time": 62.881}, {"pitch": 77, "velocity": 60, "note_on_time": 67.991, "note_off_time": 68.387}, {"pitch": 79, "velocity": 76, "note_on_time": 68.742, "note_off_time": 71.942}, {"pitch": 77, "velocity": 55, "note_on_time": 76.152, "note_off_time": 77.287}, {"pitch": 76, "velocity": 55, "note_on_time": 84.058, "note_off_time": 84.482}, {"pitch": 74, "velocity": 70, "note_on_time": 84.752, "note_off_time": 86.243}, {"pitch": 72, "velocity": 60, "note_on_time": 92.238, "note_off_time": 93.29}, {"pitch": 77, "velocity": 60, "note_on_time": 100.147, "note_off_time": 101.092}, {"pitch": 76, "velocity": 60, "note_on_time": 107.913, "note_off_time": 108.349}, {"pitch": 74, "velocity": 64, "note_on_time": 108.646, "note_off_time": 109.162}, {"pitch": 72, "velocity": 56, "note_on_time": 110.682, "note_off_time": 111.152}, {"pitch": 76, "velocity": 52, "note_on_time": 116.76, "note_off_time": 117.204}, {"pitch": 74, "velocity": 68, "note_on_time": 117.56, "note_off_time": 119.537}, {"pitch": 72, "velocity": 54, "note_on_time": 124.164, "note_off_time": 125.209}, {"pitch": 79, "velocity": 69, "note_on_time": 132.242, "note_off_time": 133.254}, {"pitch": 76, "velocity": 51, "note_on_time": 140.321, "note_off_time": 140.611}, {"pitch": 74, "velocity": 74, "note_on_time": 140.948, "note_off_time": 142.08}, {"pitch": 72, "velocity": 57, "note_on_time": 148.097, "note_off_time": 148.4}, {"pitch": 76, "velocity": 72, "note_on_time": 148.774, "note_off_time": 150.173}, {"pitch": 72, "velocity": 53, "note_on_time": 155.924, "note_off_time": 156.225}, {"pitch": 72, "velocity": 75, "note_on_time": 156.429, "note_off_time": 158.026}]</notes><guidance name="Guidance Mode">None</guidance><error name="Error value">99</error></trial><trial trial_no="2" timestamp="2023_06_06-11_28_08"><notes name="Played Notes">[{"pitch": 72, "velocity": 63, "note_on_time": 7.38, "note_off_time": 9.16}, {"pitch": 74, "velocity": 58, "note_on_time": 7.769, "note_off_time": 9.183}, {"pitch": 76, "velocity": 60, "note_on_time": 8.194, "note_off_time": 9.213}, {"pitch": 77, "velocity": 70, "note_on_time": 8.651, "note_off_time": 9.295}, {"pitch": 79, "velocity": 66, "note_on_time": 9.008, "note_off_time": 9.349}, {"pitch": 72, "velocity": 65, "note_on_time": 9.655, "note_off_time": 11.253}, {"pitch": 74, "velocity": 56, "note_on_time": 10.049, "note_off_time": 11.255}, {"pitch": 76, "velocity": 51, "note_on_time": 10.416, "note_off_time": 11.361}, {"pitch": 77, "velocity": 63, "note_on_time": 10.773, "note_off_time": 11.394}, {"pitch": 79, "velocity": 58, "note_on_time": 11.115, "note_off_time": 11.448}, {"pitch": 72, "velocity": 74, "note_on_time": 11.718, "note_off_time": 13.171}, {"pitch": 74, "velocity": 58, "note_on_time": 12.066, "note_off_time": 13.252}, {"pitch": 76, "velocity": 64, "note_on_time": 12.407, "note_off_time": 13.363}, {"pitch": 77, "velocity": 56, "note_on_time": 12.754, "note_off_time": 13.416}, {"pitch": 79, "velocity": 64, "note_on_time": 13.118, "note_off_time": 13.474}, {"pitch": 72, "velocity": 72, "note_on_time": 14.017, "note_off_time": 15.197}, {"pitch": 74, "velocity": 68, "note_on_time": 14.374, "note_off_time": 15.751}, {"pitch": 76, "velocity": 54, "note_on_time": 14.732, "note_off_time": 15.8}, {"pitch": 77, "velocity": 59, "note_on_time": 15.119, "note_off_time": 15.87}, {"pitch": 79, "velocity": 53, "note_on_time": 15.532, "note_off_time": 16.159}, {"pitch": 79, "velocity": 63, "note_on_time": 16.504, "note_off_time": 17.63}, {"pitch": 77, "velocity": 53, "note_on_time": 16.884, "note_off_time": 17.879}, {"pitch": 76, "velocity": 66, "note_on_time": 17.2, "note_off_time": 17.974}, {"pitch": 74, "velocity": 72, "note_on_time": 17.502, "note_off_time": 18.118}, {"pitch": 72, "velocity": 73, "note_on_time": 17.846, "note_off_time": 18.186}, {"pitch": 79, "velocity": 47, "note_on_time": 18.537, "note_off_time": 18.669}, {"pitch": 77, "velocity": 53, "note_on_time": 18.547, "note_off_time": 19.965}, {"pitch": 76, "velocity": 53, "note_on_time": 19.11, "note_off_time": 20.027}, {"pitch": 74, "velocity": 69, "note_on_time": 19.552, "note_off_time": 20.039}, {"pitch": 72, "velocity": 63, "note_on_time": 19.888, "note_off_time": 20.06}, {"pitch": 79, "velocity": 70, "note_on_time": 20.596, "note_off_time": 21.515}, {"pitch": 77, "velocity": 78, "note_on_time": 20.918, "note_off_time": 21.857}, {"pitch": 76, "velocity": 62, "note_on_time": 21.166, "note_off_time": 21.92}, {"pitch": 74, "velocity": 65, "note_on_time": 21.452, "note_off_time": 21.949}, {"pitch": 72, "velocity": 78, "note_on_time": 21.765, "note_off_time": 21.998}, {"pitch": 77, "velocity": 61, "note_on_time": 22.598, "note_off_time": 23.33}, {"pitch": 79, "velocity": 68, "note_on_time": 22.272, "note_off_time": 23.373}, {"pitch": 76, "velocity": 57, "note_on_time": 22.937, "note_off_time": 23.831}, {"pitch": 74, "velocity": 64, "note_on_time": 23.24, "note_off_time": 24.098}, {"pitch": 72, "velocity": 61, "note_on_time": 23.639, "note_off_time": 24.236}, {"pitch": 77, "velocity": 58, "note_on_time": 25.269, "note_off_time": 26.62}, {"pitch": 76, "velocity": 58, "note_on_time": 25.57, "note_off_time": 26.809}, {"pitch": 74, "velocity": 49, "note_on_time": 25.951, "note_off_time": 26.862}, {"pitch": 72, "velocity": 57, "note_on_time": 26.419, "note_off_time": 26.966}, {"pitch": 79, "velocity": 60, "note_on_time": 24.964, "note_off_time": 27.001}, {"pitch": 74, "velocity": 65, "note_on_time": 28.518, "note_off_time": 29.871}, {"pitch": 76, "velocity": 50, "note_on_time": 29.02, "note_off_time": 29.956}, {"pitch": 77, "velocity": 69, "note_on_time": 29.399, "note_off_time": 30.252}, {"pitch": 79, "velocity": 66, "note_on_time": 29.781, "note_off_time": 30.545}, {"pitch": 72, "velocity": 71, "note_on_time": 30.215, "note_off_time": 30.718}, {"pitch": 74, "velocity": 76, "note_on_time": 31.132, "note_off_time": 32.15}, {"pitch": 76, "velocity": 69, "note_on_time": 31.409, "note_off_time": 32.207}, {"pitch": 77, "velocity": 69, "note_on_time": 31.733, "note_off_time": 32.511}, {"pitch": 74, "velocity": 54, "note_on_time": 32.45, "note_off_time": 32.703}, {"pitch": 72, "velocity": 56, "note_on_time": 32.445, "note_off_time": 33.076}, {"pitch": 79, "velocity": 62, "note_on_time": 32.03, "note_off_time": 33.13}, {"pitch": 74, "velocity": 74, "note_on_time": 33.283, "note_off_time": 34.024}, {"pitch": 76, "velocity": 72, "note_on_time": 33.569, "note_off_time": 34.302}, {"pitch": 77, "velocity": 70, "note_on_time": 33.901, "note_off_time": 34.588}, {"pitch": 79, "velocity": 72, "note_on_time": 34.224, "note_off_time": 34.691}, {"pitch": 72, "velocity": 71, "note_on_time": 34.604, "note_off_time": 35.341}, {"pitch": 74, "velocity": 81, "note_on_time": 35.242, "note_off_time": 35.633}, {"pitch": 76, "velocity": 75, "note_on_time": 35.515, "note_off_time": 35.939}, {"pitch": 77, "velocity": 77, "note_on_time": 35.828, "note_off_time": 36.257}, {"pitch": 77, "velocity": 1, "note_on_time": 36.533, "note_off_time": 36.757}, {"pitch": 79, "velocity": 77, "note_on_time": 36.122, "note_off_time": 36.867}, {"pitch": 72, "velocity": 71, "note_on_time": 36.642, "note_off_time": 37.348}, {"pitch": 77, "velocity": 73, "note_on_time": 39.554, "note_off_time": 40.33}, {"pitch": 76, "velocity": 73, "note_on_time": 39.849, "note_off_time": 41.323}, {"pitch": 72, "velocity": 71, "note_on_time": 40.63, "note_off_time": 41.365}, {"pitch": 74, "velocity": 72, "note_on_time": 40.228, "note_off_time": 41.366}, {"pitch": 79, "velocity": 79, "note_on_time": 41.284, "note_off_time": 42.109}, {"pitch": 77, "velocity": 79, "note_on_time": 42.054, "note_off_time": 42.706}, {"pitch": 76, "velocity": 69, "note_on_time": 42.354, "note_off_time": 43.156}, {"pitch": 74, "velocity": 70, "note_on_time": 42.67, "note_off_time": 43.61}, {"pitch": 72, "velocity": 70, "note_on_time": 43.016, "note_off_time": 43.69}, {"pitch": 79, "velocity": 76, "note_on_time": 43.573, "note_off_time": 44.784}, {"pitch": 77, "velocity": 63, "note_on_time": 44.14, "note_off_time": 44.815}, {"pitch": 76, "velocity": 49, "note_on_time": 44.4, "note_off_time": 45.116}, {"pitch": 74, "velocity": 75, "note_on_time": 44.697, "note_off_time": 45.234}, {"pitch": 72, "velocity": 86, "note_on_time": 45.08, "note_off_time": 45.728}, {"pitch": 79, "velocity": 69, "note_on_time": 45.634, "note_off_time": 46.441}, {"pitch": 77, "velocity": 75, "note_on_time": 46.344, "note_off_time": 46.783}, {"pitch": 76, "velocity": 79, "note_on_time": 46.616, "note_off_time": 47.018}, {"pitch": 74, "velocity": 79, "note_on_time": 46.882, "note_off_time": 47.962}, {"pitch": 72, "velocity": 78, "note_on_time": 47.212, "note_off_time": 48.004}, {"pitch": 79, "velocity": 80, "note_on_time": 47.885, "note_off_time": 49.739}, {"pitch": 76, "velocity": 70, "note_on_time": 50.454, "note_off_time": 51.316}, {"pitch": 77, "velocity": 71, "note_on_time": 50.859, "note_off_time": 51.769}, {"pitch": 79, "velocity": 71, "note_on_time": 51.224, "note_off_time": 52.073}, {"pitch": 74, "velocity": 79, "note_on_time": 51.714, "note_off_time": 52.127}, {"pitch": 72, "velocity": 74, "note_on_time": 52.006, "note_off_time": 52.922}, {"pitch": 76, "velocity": 74, "note_on_time": 52.562, "note_off_time": 52.923}, {"pitch": 77, "velocity": 71, "note_on_time": 52.839, "note_off_time": 53.279}, {"pitch": 79, "velocity": 79, "note_on_time": 53.179, "note_off_time": 53.995}, {"pitch": 74, "velocity": 69, "note_on_time": 53.623, "note_off_time": 54.077}, {"pitch": 72, "velocity": 73, "note_on_time": 53.938, "note_off_time": 55.489}, {"pitch": 76, "velocity": 73, "note_on_time": 54.852, "note_off_time": 55.511}, {"pitch": 77, "velocity": 72, "note_on_time": 55.103, "note_off_time": 55.541}, {"pitch": 74, "velocity": 70, "note_on_time": 55.903, "note_off_time": 56.284}, {"pitch": 79, "velocity": 72, "note_on_time": 55.4, "note_off_time": 56.342}, {"pitch": 76, "velocity": 62, "note_on_time": 56.819, "note_off_time": 57.234}, {"pitch": 72, "velocity": 80, "note_on_time": 56.216, "note_off_time": 57.367}, {"pitch": 77, "velocity": 70, "note_on_time": 57.071, "note_off_time": 57.465}, {"pitch": 74, "velocity": 71, "note_on_time": 57.924, "note_off_time": 58.409}, {"pitch": 72, "velocity": 70, "note_on_time": 58.235, "note_off_time": 59.134}, {"pitch": 79, "velocity": 74, "note_on_time": 57.364, "note_off_time": 59.217}, {"pitch": 76, "velocity": 73, "note_on_time": 60.077, "note_off_time": 61.346}, {"pitch": 74, "velocity": 80, "note_on_time": 60.4, "note_off_time": 61.392}, {"pitch": 72, "velocity": 72, "note_on_time": 60.788, "note_off_time": 61.769}, {"pitch": 77, "velocity": 74, "note_on_time": 61.343, "note_off_time": 62.094}, {"pitch": 79, "velocity": 76, "note_on_time": 61.725, "note_off_time": 63.172}, {"pitch": 76, "velocity": 75, "note_on_time": 62.832, "note_off_time": 63.205}, {"pitch": 74, "velocity": 78, "note_on_time": 63.078, "note_off_time": 63.566}, {"pitch": 77, "velocity": 65, "note_on_time": 63.878, "note_off_time": 64.347}, {"pitch": 72, "velocity": 76, "note_on_time": 63.438, "note_off_time": 64.555}, {"pitch": 79, "velocity": 76, "note_on_time": 64.262, "note_off_time": 65.521}, {"pitch": 76, "velocity": 72, "note_on_time": 65.173, "note_off_time": 65.586}, {"pitch": 74, "velocity": 78, "note_on_time": 65.448, "note_off_time": 66.156}, {"pitch": 72, "velocity": 81, "note_on_time": 65.78, "note_off_time": 66.653}, {"pitch": 77, "velocity": 59, "note_on_time": 66.223, "note_off_time": 66.733}, {"pitch": 79, "velocity": 83, "note_on_time": 66.646, "note_off_time": 67.508}, {"pitch": 76, "velocity": 75, "note_on_time": 67.418, "note_off_time": 67.743}, {"pitch": 74, "velocity": 82, "note_on_time": 67.669, "note_off_time": 68.088}, {"pitch": 77, "velocity": 70, "note_on_time": 68.459, "note_off_time": 68.999}, {"pitch": 72, "velocity": 78, "note_on_time": 67.983, "note_off_time": 69.335}, {"pitch": 79, "velocity": 74, "note_on_time": 68.881, "note_off_time": 70.553}, {"pitch": 77, "velocity": 83, "note_on_time": 70.782, "note_off_time": 71.429}, {"pitch": 77, "velocity": 1, "note_on_time": 71.535, "note_off_time": 71.819}, {"pitch": 79, "velocity": 74, "note_on_time": 71.317, "note_off_time": 72.791}, {"pitch": 76, "velocity": 72, "note_on_time": 72.336, "note_off_time": 72.797}, {"pitch": 74, "velocity": 76, "note_on_time": 72.683, "note_off_time": 73.193}, {"pitch": 77, "velocity": 71, "note_on_time": 73.64, "note_off_time": 74.077}, {"pitch": 72, "velocity": 78, "note_on_time": 73.055, "note_off_time": 74.131}, {"pitch": 76, "velocity": 64, "note_on_time": 74.525, "note_off_time": 74.907}, {"pitch": 79, "velocity": 78, "note_on_time": 74.022, "note_off_time": 74.999}, {"pitch": 74, "velocity": 73, "note_on_time": 74.783, "note_off_time": 75.187}, {"pitch": 77, "velocity": 73, "note_on_time": 75.567, "note_off_time": 76.051}, {"pitch": 72, "velocity": 80, "note_on_time": 75.097, "note_off_time": 76.119}, {"pitch": 76, "velocity": 67, "note_on_time": 76.581, "note_off_time": 76.946}, {"pitch": 79, "velocity": 74, "note_on_time": 75.963, "note_off_time": 76.989}, {"pitch": 74, "velocity": 73, "note_on_time": 76.849, "note_off_time": 77.517}, {"pitch": 77, "velocity": 55, "note_on_time": 77.761, "note_off_time": 78.282}, {"pitch": 72, "velocity": 77, "note_on_time": 77.168, "note_off_time": 78.423}, {"pitch": 76, "velocity": 78, "note_on_time": 78.918, "note_off_time": 79.41}, {"pitch": 79, "velocity": 56, "note_on_time": 78.236, "note_off_time": 79.431}, {"pitch": 74, "velocity": 80, "note_on_time": 79.242, "note_off_time": 79.675}, {"pitch": 72, "velocity": 81, "note_on_time": 79.561, "note_off_time": 80.85}, {"pitch": 74, "velocity": 79, "note_on_time": 81.15, "note_off_time": 81.666}, {"pitch": 76, "velocity": 72, "note_on_time": 82.169, "note_off_time": 82.535}, {"pitch": 77, "velocity": 75, "note_on_time": 82.476, "note_off_time": 82.836}, {"pitch": 72, "velocity": 74, "note_on_time": 81.57, "note_off_time": 82.891}, {"pitch": 79, "velocity": 82, "note_on_time": 82.785, "note_off_time": 83.778}, {"pitch": 74, "velocity": 71, "note_on_time": 83.387, "note_off_time": 83.803}, {"pitch": 76, "velocity": 71, "note_on_time": 84.217, "note_off_time": 84.725}, {"pitch": 77, "velocity": 78, "note_on_time": 84.661, "note_off_time": 85.035}, {"pitch": 72, "velocity": 62, "note_on_time": 83.682, "note_off_time": 85.06}, {"pitch": 79, "velocity": 82, "note_on_time": 84.966, "note_off_time": 85.981}, {"pitch": 74, "velocity": 46, "note_on_time": 85.561, "note_off_time": 86.106}, {"pitch": 76, "velocity": 72, "note_on_time": 86.648, "note_off_time": 86.947}, {"pitch": 77, "velocity": 80, "note_on_time": 86.909, "note_off_time": 87.243}, {"pitch": 72, "velocity": 76, "note_on_time": 86.044, "note_off_time": 87.315}, {"pitch": 79, "velocity": 74, "note_on_time": 87.197, "note_off_time": 87.901}, {"pitch": 74, "velocity": 81, "note_on_time": 87.729, "note_off_time": 88.157}, {"pitch": 72, "velocity": 78, "note_on_time": 88.084, "note_off_time": 88.982}, {"pitch": 76, "velocity": 77, "note_on_time": 88.604, "note_off_time": 88.998}, {"pitch": 77, "velocity": 78, "note_on_time": 88.883, "note_off_time": 89.281}, {"pitch": 79, "velocity": 81, "note_on_time": 89.191, "note_off_time": 90.739}, {"pitch": 74, "velocity": 68, "note_on_time": 99.62, "note_off_time": 100.397}, {"pitch": 72, "velocity": 60, "note_on_time": 99.124, "note_off_time": 100.505}, {"pitch": 76, "velocity": 70, "note_on_time": 99.927, "note_off_time": 100.679}, {"pitch": 77, "velocity": 77, "note_on_time": 100.289, "note_off_time": 100.737}, {"pitch": 79, "velocity": 75, "note_on_time": 100.652, "note_off_time": 101.237}, {"pitch": 74, "velocity": 73, "note_on_time": 101.484, "note_off_time": 102.146}, {"pitch": 72, "velocity": 66, "note_on_time": 101.123, "note_off_time": 102.154}, {"pitch": 76, "velocity": 69, "note_on_time": 101.776, "note_off_time": 102.491}, {"pitch": 77, "velocity": 74, "note_on_time": 102.077, "note_off_time": 102.594}, {"pitch": 79, "velocity": 60, "note_on_time": 102.473, "note_off_time": 103.218}, {"pitch": 76, "velocity": 64, "note_on_time": 103.674, "note_off_time": 104.013}, {"pitch": 74, "velocity": 68, "note_on_time": 103.331, "note_off_time": 104.038}, {"pitch": 72, "velocity": 67, "note_on_time": 102.997, "note_off_time": 104.078}, {"pitch": 77, "velocity": 73, "note_on_time": 103.953, "note_off_time": 104.277}, {"pitch": 79, "velocity": 58, "note_on_time": 104.236, "note_off_time": 104.894}, {"pitch": 72, "velocity": 67, "note_on_time": 104.783, "note_off_time": 105.487}, {"pitch": 74, "velocity": 67, "note_on_time": 105.137, "note_off_time": 105.532}, {"pitch": 76, "velocity": 80, "note_on_time": 105.43, "note_off_time": 106.127}, {"pitch": 77, "velocity": 71, "note_on_time": 105.698, "note_off_time": 106.271}, {"pitch": 79, "velocity": 54, "note_on_time": 106.07, "note_off_time": 106.421}, {"pitch": 79, "velocity": 72, "note_on_time": 106.633, "note_off_time": 107.372}, {"pitch": 77, "velocity": 70, "note_on_time": 106.987, "note_off_time": 107.605}, {"pitch": 76, "velocity": 65, "note_on_time": 107.234, "note_off_time": 107.944}, {"pitch": 74, "velocity": 66, "note_on_time": 107.541, "note_off_time": 107.985}, {"pitch": 72, "velocity": 77, "note_on_time": 107.886, "note_off_time": 108.52}, {"pitch": 79, "velocity": 38, "note_on_time": 108.306, "note_off_time": 109.311}, {"pitch": 77, "velocity": 68, "note_on_time": 108.784, "note_off_time": 109.322}, {"pitch": 76, "velocity": 64, "note_on_time": 109.02, "note_off_time": 109.547}, {"pitch": 74, "velocity": 78, "note_on_time": 109.303, "note_off_time": 109.658}, {"pitch": 72, "velocity": 81, "note_on_time": 109.606, "note_off_time": 110.388}, {"pitch": 77, "velocity": 62, "note_on_time": 110.592, "note_off_time": 111.235}, {"pitch": 79, "velocity": 72, "note_on_time": 110.201, "note_off_time": 111.273}, {"pitch": 76, "velocity": 69, "note_on_time": 110.898, "note_off_time": 111.447}, {"pitch": 74, "velocity": 76, "note_on_time": 111.203, "note_off_time": 111.601}, {"pitch": 72, "velocity": 77, "note_on_time": 111.535, "note_off_time": 112.53}, {"pitch": 79, "velocity": 48, "note_on_time": 112.084, "note_off_time": 113.166}, {"pitch": 77, "velocity": 65, "note_on_time": 112.419, "note_off_time": 113.244}, {"pitch": 74, "velocity": 73, "note_on_time": 113.127, "note_off_time": 113.877}, {"pitch": 76, "velocity": 73, "note_on_time": 112.791, "note_off_time": 114.008}, {"pitch": 72, "velocity": 72, "note_on_time": 113.503, "note_off_time": 114.052}, {"pitch": 74, "velocity": 77, "note_on_time": 114.398, "note_off_time": 115.042}, {"pitch": 76, "velocity": 79, "note_on_time": 114.66, "note_off_time": 115.319}, {"pitch": 77, "velocity": 73, "note_on_time": 114.947, "note_off_time": 115.407}, {"pitch": 79, "velocity": 77, "note_on_time": 115.264, "note_off_time": 116.385}, {"pitch": 72, "velocity": 74, "note_on_time": 115.636, "note_off_time": 116.56}, {"pitch": 74, "velocity": 73, "note_on_time": 116.312, "note_off_time": 116.735}, {"pitch": 76, "velocity": 74, "note_on_time": 116.63, "note_off_time": 117.075}, {"pitch": 77, "velocity": 77, "note_on_time": 116.935, "note_off_time": 117.394}, {"pitch": 79, "velocity": 72, "note_on_time": 117.23, "note_off_time": 118.396}, {"pitch": 72, "velocity": 55, "note_on_time": 117.672, "note_off_time": 118.402}, {"pitch": 74, "velocity": 85, "note_on_time": 118.309, "note_off_time": 118.916}, {"pitch": 76, "velocity": 76, "note_on_time": 118.598, "note_off_time": 119.047}, {"pitch": 77, "velocity": 76, "note_on_time": 118.879, "note_off_time": 119.311}, {"pitch": 79, "velocity": 69, "note_on_time": 119.185, "note_off_time": 119.735}, {"pitch": 72, "velocity": 77, "note_on_time": 119.611, "note_off_time": 120.338}, {"pitch": 74, "velocity": 78, "note_on_time": 120.16, "note_off_time": 120.458}, {"pitch": 76, "velocity": 87, "note_on_time": 120.406, "note_off_time": 120.81}, {"pitch": 77, "velocity": 82, "note_on_time": 120.684, "note_off_time": 122.122}, {"pitch": 79, "velocity": 71, "note_on_time": 121.02, "note_off_time": 122.179}, {"pitch": 72, "velocity": 71, "note_on_time": 121.548, "note_off_time": 122.738}, {"pitch": 74, "velocity": 78, "note_on_time": 123.291, "note_off_time": 124.134}, {"pitch": 76, "velocity": 76, "note_on_time": 123.695, "note_off_time": 124.528}, {"pitch": 77, "velocity": 62, "note_on_time": 124.031, "note_off_time": 124.966}, {"pitch": 79, "velocity": 71, "note_on_time": 124.418, "note_off_time": 126.423}, {"pitch": 72, "velocity": 70, "note_on_time": 124.863, "note_off_time": 127.169}, {"pitch": 74, "velocity": 82, "note_on_time": 128.052, "note_off_time": 128.851}, {"pitch": 76, "velocity": 77, "note_on_time": 128.384, "note_off_time": 129.45}, {"pitch": 77, "velocity": 72, "note_on_time": 128.674, "note_off_time": 129.854}, {"pitch": 79, "velocity": 71, "note_on_time": 129.318, "note_off_time": 129.978}, {"pitch": 77, "velocity": 79, "note_on_time": 135.008, "note_off_time": 136.015}, {"pitch": 76, "velocity": 82, "note_on_time": 135.559, "note_off_time": 136.366}, {"pitch": 74, "velocity": 79, "note_on_time": 135.898, "note_off_time": 136.37}, {"pitch": 72, "velocity": 84, "note_on_time": 136.232, "note_off_time": 136.754}, {"pitch": 79, "velocity": 74, "note_on_time": 136.577, "note_off_time": 137.464}, {"pitch": 77, "velocity": 79, "note_on_time": 137.099, "note_off_time": 137.715}, {"pitch": 76, "velocity": 78, "note_on_time": 137.371, "note_off_time": 138.091}, {"pitch": 74, "velocity": 72, "note_on_time": 137.672, "note_off_time": 138.177}, {"pitch": 72, "velocity": 80, "note_on_time": 138.05, "note_off_time": 138.606}, {"pitch": 79, "velocity": 78, "note_on_time": 138.456, "note_off_time": 139.157}, {"pitch": 77, "velocity": 80, "note_on_time": 139.034, "note_off_time": 139.583}, {"pitch": 76, "velocity": 73, "note_on_time": 139.328, "note_off_time": 139.818}, {"pitch": 74, "velocity": 71, "note_on_time": 139.637, "note_off_time": 140.074}, {"pitch": 72, "velocity": 76, "note_on_time": 139.958, "note_off_time": 140.509}, {"pitch": 79, "velocity": 70, "note_on_time": 140.404, "note_off_time": 141.358}, {"pitch": 77, "velocity": 72, "note_on_time": 140.992, "note_off_time": 141.582}, {"pitch": 76, "velocity": 72, "note_on_time": 141.284, "note_off_time": 142.03}, {"pitch": 74, "velocity": 74, "note_on_time": 141.562, "note_off_time": 142.064}, {"pitch": 72, "velocity": 77, "note_on_time": 141.919, "note_off_time": 144.04}, {"pitch": 79, "velocity": 73, "note_on_time": 142.644, "note_off_time": 144.096}, {"pitch": 76, "velocity": 68, "note_on_time": 145.8, "note_off_time": 146.669}, {"pitch": 77, "velocity": 69, "note_on_time": 146.167, "note_off_time": 147.043}, {"pitch": 79, "velocity": 76, "note_on_time": 146.527, "note_off_time": 147.102}, {"pitch": 74, "velocity": 85, "note_on_time": 146.939, "note_off_time": 147.373}, {"pitch": 72, "velocity": 80, "note_on_time": 147.268, "note_off_time": 148.21}, {"pitch": 76, "velocity": 74, "note_on_time": 147.861, "note_off_time": 148.234}, {"pitch": 79, "velocity": 75, "note_on_time": 148.445, "note_off_time": 148.963}, {"pitch": 77, "velocity": 77, "note_on_time": 148.128, "note_off_time": 148.991}, {"pitch": 74, "velocity": 82, "note_on_time": 148.809, "note_off_time": 149.166}, {"pitch": 72, "velocity": 78, "note_on_time": 149.105, "note_off_time": 149.958}, {"pitch": 76, "velocity": 68, "note_on_time": 149.629, "note_off_time": 150.03}, {"pitch": 77, "velocity": 77, "note_on_time": 149.906, "note_off_time": 150.486}, {"pitch": 74, "velocity": 66, "note_on_time": 150.567, "note_off_time": 150.982}, {"pitch": 79, "velocity": 66, "note_on_time": 150.193, "note_off_time": 151.027}, {"pitch": 76, "velocity": 74, "note_on_time": 151.478, "note_off_time": 151.797}, {"pitch": 77, "velocity": 73, "note_on_time": 151.726, "note_off_time": 152.121}, {"pitch": 72, "velocity": 74, "note_on_time": 150.907, "note_off_time": 152.143}, {"pitch": 74, "velocity": 78, "note_on_time": 152.488, "note_off_time": 152.924}, {"pitch": 79, "velocity": 75, "note_on_time": 152.044, "note_off_time": 154.705}, {"pitch": 72, "velocity": 72, "note_on_time": 152.815, "note_off_time": 154.754}, {"pitch": 76, "velocity": 79, "note_on_time": 155.092, "note_off_time": 155.77}, {"pitch": 74, "velocity": 72, "note_on_time": 155.382, "note_off_time": 155.786}, {"pitch": 77, "velocity": 76, "note_on_time": 156.03, "note_off_time": 156.368}, {"pitch": 72, "velocity": 72, "note_on_time": 155.665, "note_off_time": 156.417}, {"pitch": 79, "velocity": 73, "note_on_time": 156.304, "note_off_time": 157.231}, {"pitch": 76, "velocity": 73, "note_on_time": 156.892, "note_off_time": 157.236}, {"pitch": 74, "velocity": 84, "note_on_time": 157.149, "note_off_time": 157.597}, {"pitch": 77, "velocity": 74, "note_on_time": 158.1, "note_off_time": 158.433}, {"pitch": 72, "velocity": 81, "note_on_time": 157.499, "note_off_time": 158.499}, {"pitch": 79, "velocity": 73, "note_on_time": 158.377, "note_off_time": 159.315}, {"pitch": 76, "velocity": 71, "note_on_time": 159.028, "note_off_time": 159.401}, {"pitch": 74, "velocity": 78, "note_on_time": 159.282, "note_off_time": 159.696}, {"pitch": 77, "velocity": 68, "note_on_time": 160.284, "note_off_time": 160.584}, {"pitch": 72, "velocity": 80, "note_on_time": 159.624, "note_off_time": 160.647}, {"pitch": 79, "velocity": 70, "note_on_time": 160.545, "note_off_time": 161.481}, {"pitch": 76, "velocity": 69, "note_on_time": 161.113, "note_off_time": 161.487}, {"pitch": 74, "velocity": 79, "note_on_time": 161.387, "note_off_time": 161.703}, {"pitch": 77, "velocity": 70, "note_on_time": 162.179, "note_off_time": 162.572}, {"pitch": 72, "velocity": 79, "note_on_time": 161.641, "note_off_time": 163.952}, {"pitch": 79, "velocity": 71, "note_on_time": 162.452, "note_off_time": 163.953}, {"pitch": 77, "velocity": 77, "note_on_time": 164.171, "note_off_time": 165.425}, {"pitch": 79, "velocity": 75, "note_on_time": 164.653, "note_off_time": 165.706}, {"pitch": 76, "velocity": 70, "note_on_time": 165.289, "note_off_time": 165.99}, {"pitch": 74, "velocity": 71, "note_on_time": 165.594, "note_off_time": 166.035}, {"pitch": 77, "velocity": 70, "note_on_time": 166.449, "note_off_time": 166.894}, {"pitch": 72, "velocity": 79, "note_on_time": 165.955, "note_off_time": 166.897}, {"pitch": 79, "velocity": 74, "note_on_time": 166.808, "note_off_time": 167.654}, {"pitch": 76, "velocity": 67, "note_on_time": 167.302, "note_off_time": 167.724}, {"pitch": 74, "velocity": 76, "note_on_time": 167.601, "note_off_time": 167.94}, {"pitch": 77, "velocity": 65, "note_on_time": 168.294, "note_off_time": 168.744}, {"pitch": 72, "velocity": 81, "note_on_time": 167.879, "note_off_time": 168.801}, {"pitch": 79, "velocity": 73, "note_on_time": 168.681, "note_off_time": 169.348}, {"pitch": 76, "velocity": 77, "note_on_time": 169.197, "note_off_time": 169.599}, {"pitch": 74, "velocity": 80, "note_on_time": 169.475, "note_off_time": 169.837}, {"pitch": 77, "velocity": 68, "note_on_time": 170.171, "note_off_time": 170.621}, {"pitch": 72, "velocity": 70, "note_on_time": 169.778, "note_off_time": 170.624}, {"pitch": 79, "velocity": 73, "note_on_time": 170.565, "note_off_time": 171.452}, {"pitch": 76, "velocity": 67, "note_on_time": 171.104, "note_off_time": 171.524}, {"pitch": 74, "velocity": 76, "note_on_time": 171.387, "note_off_time": 171.827}, {"pitch": 72, "velocity": 77, "note_on_time": 171.698, "note_off_time": 172.72}, {"pitch": 74, "velocity": 71, "note_on_time": 172.902, "note_off_time": 173.976}, {"pitch": 72, "velocity": 72, "note_on_time": 173.303, "note_off_time": 174.352}, {"pitch": 76, "velocity": 66, "note_on_time": 173.968, "note_off_time": 174.427}, {"pitch": 77, "velocity": 80, "note_on_time": 174.344, "note_off_time": 174.892}, {"pitch": 79, "velocity": 72, "note_on_time": 174.693, "note_off_time": 175.42}, {"pitch": 74, "velocity": 73, "note_on_time": 175.304, "note_off_time": 175.687}, {"pitch": 72, "velocity": 68, "note_on_time": 175.605, "note_off_time": 176.297}, {"pitch": 76, "velocity": 75, "note_on_time": 175.969, "note_off_time": 176.328}, {"pitch": 77, "velocity": 78, "note_on_time": 176.209, "note_off_time": 176.593}, {"pitch": 74, "velocity": 62, "note_on_time": 176.986, "note_off_time": 177.382}, {"pitch": 79, "velocity": 70, "note_on_time": 176.519, "note_off_time": 177.418}, {"pitch": 72, "velocity": 73, "note_on_time": 177.327, "note_off_time": 177.804}, {"pitch": 76, "velocity": 73, "note_on_time": 177.673, "note_off_time": 178.091}, {"pitch": 77, "velocity": 72, "note_on_time": 177.916, "note_off_time": 178.359}, {"pitch": 79, "velocity": 71, "note_on_time": 178.228, "note_off_time": 178.94}, {"pitch": 74, "velocity": 66, "note_on_time": 178.715, "note_off_time": 179.134}, {"pitch": 76, "velocity": 69, "note_on_time": 179.453, "note_off_time": 179.833}, {"pitch": 72, "velocity": 72, "note_on_time": 179.064, "note_off_time": 179.852}, {"pitch": 77, "velocity": 79, "note_on_time": 179.727, "note_off_time": 180.127}, {"pitch": 79, "velocity": 62, "note_on_time": 180.045, "note_off_time": 184.604}, {"pitch": 72, "velocity": 72, "note_on_time": 185.366, "note_off_time": 186.639}, {"pitch": 74, "velocity": 73, "note_on_time": 185.894, "note_off_time": 186.73}, {"pitch": 76, "velocity": 64, "note_on_time": 186.272, "note_off_time": 187.063}, {"pitch": 77, "velocity": 63, "note_on_time": 186.623, "note_off_time": 187.104}, {"pitch": 79, "velocity": 61, "note_on_time": 187.017, "note_off_time": 187.987}, {"pitch": 72, "velocity": 55, "note_on_time": 187.522, "note_off_time": 188.633}, {"pitch": 74, "velocity": 56, "note_on_time": 187.899, "note_off_time": 188.658}, {"pitch": 76, "velocity": 48, "note_on_time": 188.31, "note_off_time": 189.222}, {"pitch": 77, "velocity": 67, "note_on_time": 188.618, "note_off_time": 189.275}, {"pitch": 79, "velocity": 53, "note_on_time": 189.132, "note_off_time": 189.769}, {"pitch": 72, "velocity": 64, "note_on_time": 189.63, "note_off_time": 190.432}, {"pitch": 74, "velocity": 57, "note_on_time": 190.03, "note_off_time": 190.576}, {"pitch": 76, "velocity": 57, "note_on_time": 190.367, "note_off_time": 190.967}, {"pitch": 77, "velocity": 64, "note_on_time": 190.606, "note_off_time": 191.015}, {"pitch": 79, "velocity": 65, "note_on_time": 190.961, "note_off_time": 191.585}, {"pitch": 74, "velocity": 66, "note_on_time": 191.838, "note_off_time": 192.398}, {"pitch": 72, "velocity": 68, "note_on_time": 191.472, "note_off_time": 192.518}, {"pitch": 76, "velocity": 67, "note_on_time": 192.107, "note_off_time": 192.657}, {"pitch": 77, "velocity": 70, "note_on_time": 192.398, "note_off_time": 192.856}, {"pitch": 79, "velocity": 60, "note_on_time": 192.71, "note_off_time": 193.06}, {"pitch": 79, "velocity": 65, "note_on_time": 193.288, "note_off_time": 194.003}, {"pitch": 77, "velocity": 63, "note_on_time": 193.607, "note_off_time": 194.216}, {"pitch": 76, "velocity": 59, "note_on_time": 193.844, "note_off_time": 194.522}]</notes><guidance name="Guidance Mode">None</guidance><error name="Error value">99</error></trial><trial trial_no="3" timestamp="2023_06_06-11_34_47"><notes name="Played Notes">[{"pitch": 74, "velocity": 63, "note_on_time": 2.761, "note_off_time": 3.852}, {"pitch": 72, "velocity": 65, "note_on_time": 2.372, "note_off_time": 3.873}, {"pitch": 76, "velocity": 67, "note_on_time": 3.137, "note_off_time": 3.901}, {"pitch": 77, "velocity": 68, "note_on_time": 3.432, "note_off_time": 3.903}, {"pitch": 79, "velocity": 70, "note_on_time": 3.813, "note_off_time": 4.335}, {"pitch": 72, "velocity": 75, "note_on_time": 4.223, "note_off_time": 4.962}, {"pitch": 76, "velocity": 76, "note_on_time": 4.86, "note_off_time": 5.24}, {"pitch": 74, "velocity": 72, "note_on_time": 4.564, "note_off_time": 5.285}, {"pitch": 77, "velocity": 72, "note_on_time": 5.129, "note_off_time": 5.626}, {"pitch": 79, "velocity": 48, "note_on_time": 5.487, "note_off_time": 6.095}, {"pitch": 74, "velocity": 72, "note_on_time": 6.327, "note_off_time": 6.933}, {"pitch": 72, "velocity": 77, "note_on_time": 6.008, "note_off_time": 6.984}, {"pitch": 76, "velocity": 74, "note_on_time": 6.602, "note_off_time": 7.264}, {"pitch": 77, "velocity": 74, "note_on_time": 6.868, "note_off_time": 7.381}, {"pitch": 77, "velocity": 27, "note_on_time": 7.561, "note_off_time": 7.716}, {"pitch": 79, "velocity": 71, "note_on_time": 7.201, "note_off_time": 7.771}, {"pitch": 74, "velocity": 71, "note_on_time": 8.018, "note_off_time": 8.812}, {"pitch": 72, "velocity": 78, "note_on_time": 7.701, "note_off_time": 8.926}, {"pitch": 76, "velocity": 75, "note_on_time": 8.31, "note_off_time": 9.026}, {"pitch": 77, "velocity": 74, "note_on_time": 8.601, "note_off_time": 9.061}, {"pitch": 79, "velocity": 70, "note_on_time": 8.911, "note_off_time": 9.189}, {"pitch": 79, "velocity": 63, "note_on_time": 9.433, "note_off_time": 10.145}, {"pitch": 77, "velocity": 74, "note_on_time": 9.766, "note_off_time": 10.452}, {"pitch": 76, "velocity": 77, "note_on_time": 10.039, "note_off_time": 10.699}, {"pitch": 74, "velocity": 74, "note_on_time": 10.328, "note_off_time": 10.769}, {"pitch": 72, "velocity": 75, "note_on_time": 10.62, "note_off_time": 11.752}, {"pitch": 79, "velocity": 71, "note_on_time": 11.055, "note_off_time": 12.309}, {"pitch": 77, "velocity": 61, "note_on_time": 11.425, "note_off_time": 12.339}, {"pitch": 76, "velocity": 62, "note_on_time": 11.695, "note_off_time": 12.379}, {"pitch": 74, "velocity": 65, "note_on_time": 12.001, "note_off_time": 12.402}, {"pitch": 72, "velocity": 80, "note_on_time": 12.304, "note_off_time": 12.92}, {"pitch": 79, "velocity": 72, "note_on_time": 12.795, "note_off_time": 13.796}, {"pitch": 77, "velocity": 60, "note_on_time": 13.149, "note_off_time": 14.083}, {"pitch": 76, "velocity": 65, "note_on_time": 13.426, "note_off_time": 14.152}, {"pitch": 74, "velocity": 68, "note_on_time": 13.749, "note_off_time": 14.178}, {"pitch": 72, "velocity": 80, "note_on_time": 14.086, "note_off_time": 14.709}, {"pitch": 77, "velocity": 64, "note_on_time": 14.892, "note_off_time": 16.292}, {"pitch": 74, "velocity": 63, "note_on_time": 15.576, "note_off_time": 16.325}, {"pitch": 76, "velocity": 66, "note_on_time": 15.22, "note_off_time": 16.525}, {"pitch": 72, "velocity": 76, "note_on_time": 15.985, "note_off_time": 16.629}, {"pitch": 79, "velocity": 68, "note_on_time": 14.54, "note_off_time": 16.756}, {"pitch": 74, "velocity": 67, "note_on_time": 16.975, "note_off_time": 18.036}, {"pitch": 76, "velocity": 75, "note_on_time": 17.301, "note_off_time": 18.288}, {"pitch": 77, "velocity": 71, "note_on_time": 17.593, "note_off_time": 18.367}, {"pitch": 79, "velocity": 69, "note_on_time": 17.916, "note_off_time": 18.9}, {"pitch": 72, "velocity": 83, "note_on_time": 18.304, "note_off_time": 19.182}, {"pitch": 74, "velocity": 77, "note_on_time": 18.829, "note_off_time": 19.46}, {"pitch": 76, "velocity": 79, "note_on_time": 19.095, "note_off_time": 19.806}, {"pitch": 77, "velocity": 71, "note_on_time": 19.38, "note_off_time": 20.237}, {"pitch": 72, "velocity": 64, "note_on_time": 20.141, "note_off_time": 20.706}, {"pitch": 79, "velocity": 69, "note_on_time": 19.729, "note_off_time": 20.731}, {"pitch": 74, "velocity": 66, "note_on_time": 20.653, "note_off_time": 21.261}, {"pitch": 76, "velocity": 78, "note_on_time": 20.915, "note_off_time": 21.566}, {"pitch": 77, "velocity": 70, "note_on_time": 21.178, "note_off_time": 21.627}, {"pitch": 79, "velocity": 70, "note_on_time": 21.499, "note_off_time": 22.094}, {"pitch": 72, "velocity": 72, "note_on_time": 21.978, "note_off_time": 22.898}, {"pitch": 74, "velocity": 75, "note_on_time": 22.387, "note_off_time": 22.97}, {"pitch": 76, "velocity": 73, "note_on_time": 22.635, "note_off_time": 23.304}, {"pitch": 77, "velocity": 72, "note_on_time": 22.869, "note_off_time": 23.786}, {"pitch": 79, "velocity": 72, "note_on_time": 23.215, "note_off_time": 24.409}, {"pitch": 72, "velocity": 66, "note_on_time": 23.765, "note_off_time": 24.508}, {"pitch": 77, "velocity": 68, "note_on_time": 24.5, "note_off_time": 25.911}, {"pitch": 76, "velocity": 72, "note_on_time": 24.817, "note_off_time": 25.92}, {"pitch": 74, "velocity": 61, "note_on_time": 25.112, "note_off_time": 25.933}, {"pitch": 72, "velocity": 65, "note_on_time": 25.425, "note_off_time": 26.048}, {"pitch": 79, "velocity": 72, "note_on_time": 25.864, "note_off_time": 26.936}, {"pitch": 77, "velocity": 71, "note_on_time": 26.354, "note_off_time": 27.246}, {"pitch": 76, "velocity": 66, "note_on_time": 26.591, "note_off_time": 27.537}, {"pitch": 74, "velocity": 66, "note_on_time": 26.918, "note_off_time": 27.562}, {"pitch": 72, "velocity": 79, "note_on_time": 27.296, "note_off_time": 27.902}, {"pitch": 79, "velocity": 84, "note_on_time": 27.756, "note_off_time": 28.652}, {"pitch": 77, "velocity": 62, "note_on_time": 28.197, "note_off_time": 28.899}, {"pitch": 76, "velocity": 69, "note_on_time": 28.485, "note_off_time": 29.17}, {"pitch": 74, "velocity": 71, "note_on_time": 28.789, "note_off_time": 29.199}, {"pitch": 72, "velocity": 76, "note_on_time": 29.1, "note_off_time": 29.597}, {"pitch": 79, "velocity": 82, "note_on_time": 29.492, "note_off_time": 30.557}, {"pitch": 77, "velocity": 77, "note_on_time": 29.972, "note_off_time": 30.615}, {"pitch": 76, "velocity": 58, "note_on_time": 30.272, "note_off_time": 30.963}, {"pitch": 74, "velocity": 70, "note_on_time": 30.522, "note_off_time": 31.531}, {"pitch": 72, "velocity": 84, "note_on_time": 30.865, "note_off_time": 31.84}, {"pitch": 79, "velocity": 70, "note_on_time": 31.486, "note_off_time": 32.156}, {"pitch": 76, "velocity": 70, "note_on_time": 32.232, "note_off_time": 33.553}, {"pitch": 77, "velocity": 74, "note_on_time": 32.662, "note_off_time": 33.783}, {"pitch": 79, "velocity": 64, "note_on_time": 33.059, "note_off_time": 33.795}, {"pitch": 74, "velocity": 84, "note_on_time": 33.494, "note_off_time": 33.888}, {"pitch": 72, "velocity": 82, "note_on_time": 33.82, "note_off_time": 34.539}, {"pitch": 76, "velocity": 84, "note_on_time": 34.182, "note_off_time": 34.854}, {"pitch": 77, "velocity": 74, "note_on_time": 34.431, "note_off_time": 34.902}, {"pitch": 79, "velocity": 74, "note_on_time": 34.766, "note_off_time": 35.609}, {"pitch": 74, "velocity": 75, "note_on_time": 35.158, "note_off_time": 35.64}, {"pitch": 76, "velocity": 73, "note_on_time": 35.945, "note_off_time": 36.284}, {"pitch": 77, "velocity": 75, "note_on_time": 36.189, "note_off_time": 36.526}, {"pitch": 72, "velocity": 81, "note_on_time": 35.523, "note_off_time": 36.641}, {"pitch": 79, "velocity": 79, "note_on_time": 36.479, "note_off_time": 37.326}, {"pitch": 74, "velocity": 74, "note_on_time": 36.89, "note_off_time": 37.38}, {"pitch": 72, "velocity": 82, "note_on_time": 37.286, "note_off_time": 38.045}, {"pitch": 76, "velocity": 77, "note_on_time": 37.681, "note_off_time": 38.139}, {"pitch": 77, "velocity": 74, "note_on_time": 37.908, "note_off_time": 38.261}, {"pitch": 74, "velocity": 65, "note_on_time": 38.665, "note_off_time": 40.176}, {"pitch": 72, "velocity": 72, "note_on_time": 39.122, "note_off_time": 40.432}, {"pitch": 79, "velocity": 69, "note_on_time": 38.187, "note_off_time": 40.61}, {"pitch": 76, "velocity": 77, "note_on_time": 40.6, "note_off_time": 41.388}, {"pitch": 74, "velocity": 72, "note_on_time": 40.906, "note_off_time": 41.415}, {"pitch": 77, "velocity": 78, "note_on_time": 41.579, "note_off_time": 41.896}, {"pitch": 72, "velocity": 81, "note_on_time": 41.218, "note_off_time": 41.979}, {"pitch": 79, "velocity": 76, "note_on_time": 41.857, "note_off_time": 42.656}, {"pitch": 76, "velocity": 73, "note_on_time": 42.31, "note_off_time": 42.733}, {"pitch": 74, "velocity": 79, "note_on_time": 42.602, "note_off_time": 42.974}, {"pitch": 77, "velocity": 72, "note_on_time": 43.21, "note_off_time": 43.554}, {"pitch": 72, "velocity": 77, "note_on_time": 42.871, "note_off_time": 43.781}, {"pitch": 79, "velocity": 72, "note_on_time": 43.491, "note_off_time": 44.287}, {"pitch": 76, "velocity": 76, "note_on_time": 44.201, "note_off_time": 44.869}, {"pitch": 74, "velocity": 78, "note_on_time": 44.477, "note_off_time": 44.884}, {"pitch": 77, "velocity": 67, "note_on_time": 45.157, "note_off_time": 45.465}, {"pitch": 72, "velocity": 78, "note_on_time": 44.781, "note_off_time": 45.621}, {"pitch": 79, "velocity": 64, "note_on_time": 45.412, "note_off_time": 46.101}, {"pitch": 76, "velocity": 72, "note_on_time": 45.957, "note_off_time": 46.587}, {"pitch": 74, "velocity": 75, "note_on_time": 46.237, "note_off_time": 46.622}, {"pitch": 77, "velocity": 70, "note_on_time": 46.886, "note_off_time": 47.275}, {"pitch": 72, "velocity": 78, "note_on_time": 46.51, "note_off_time": 47.654}, {"pitch": 79, "velocity": 70, "note_on_time": 47.184, "note_off_time": 48.056}, {"pitch": 77, "velocity": 84, "note_on_time": 48.314, "note_off_time": 48.803}, {"pitch": 79, "velocity": 74, "note_on_time": 48.696, "note_off_time": 49.227}, {"pitch": 76, "velocity": 77, "note_on_time": 49.118, "note_off_time": 49.813}, {"pitch": 74, "velocity": 76, "note_on_time": 49.401, "note_off_time": 49.834}, {"pitch": 77, "velocity": 80, "note_on_time": 50.345, "note_off_time": 50.717}, {"pitch": 72, "velocity": 78, "note_on_time": 49.726, "note_off_time": 50.895}, {"pitch": 79, "velocity": 74, "note_on_time": 50.669, "note_off_time": 51.446}, {"pitch": 76, "velocity": 71, "note_on_time": 51.079, "note_off_time": 51.557}, {"pitch": 74, "velocity": 78, "note_on_time": 51.408, "note_off_time": 51.868}, {"pitch": 77, "velocity": 74, "note_on_time": 52.192, "note_off_time": 52.542}, {"pitch": 72, "velocity": 78, "note_on_time": 51.722, "note_off_time": 52.721}, {"pitch": 79, "velocity": 72, "note_on_time": 52.53, "note_off_time": 53.069}, {"pitch": 76, "velocity": 72, "note_on_time": 52.945, "note_off_time": 53.572}, {"pitch": 74, "velocity": 68, "note_on_time": 53.226, "note_off_time": 53.613}, {"pitch": 77, "velocity": 76, "note_on_time": 53.951, "note_off_time": 54.404}, {"pitch": 72, "velocity": 76, "note_on_time": 53.532, "note_off_time": 54.424}, {"pitch": 79, "velocity": 62, "note_on_time": 54.307, "note_off_time": 54.97}, {"pitch": 74, "velocity": 78, "note_on_time": 55.153, "note_off_time": 55.945}, {"pitch": 76, "velocity": 72, "note_on_time": 54.895, "note_off_time": 56.029}, {"pitch": 72, "velocity": 78, "note_on_time": 55.472, "note_off_time": 56.128}, {"pitch": 74, "velocity": 65, "note_on_time": 56.371, "note_off_time": 57.274}, {"pitch": 76, "velocity": 77, "note_on_time": 57.175, "note_off_time": 57.532}, {"pitch": 72, "velocity": 74, "note_on_time": 56.76, "note_off_time": 57.547}, {"pitch": 77, "velocity": 76, "note_on_time": 57.416, "note_off_time": 57.779}, {"pitch": 79, "velocity": 70, "note_on_time": 57.714, "note_off_time": 58.321}, {"pitch": 74, "velocity": 74, "note_on_time": 58.094, "note_off_time": 58.873}, {"pitch": 72, "velocity": 71, "note_on_time": 58.454, "note_off_time": 59.099}, {"pitch": 76, "velocity": 73, "note_on_time": 58.813, "note_off_time": 59.181}, {"pitch": 77, "velocity": 78, "note_on_time": 59.073, "note_off_time": 59.46}, {"pitch": 74, "velocity": 48, "note_on_time": 59.825, "note_off_time": 59.982}, {"pitch": 76, "velocity": 48, "note_on_time": 59.817, "note_off_time": 59.984}, {"pitch": 79, "velocity": 74, "note_on_time": 59.315, "note_off_time": 60.283}, {"pitch": 74, "velocity": 80, "note_on_time": 60.153, "note_off_time": 60.609}, {"pitch": 72, "velocity": 84, "note_on_time": 60.539, "note_off_time": 61.271}, {"pitch": 76, "velocity": 79, "note_on_time": 60.911, "note_off_time": 61.288}, {"pitch": 77, "velocity": 78, "note_on_time": 61.142, "note_off_time": 61.482}, {"pitch": 79, "velocity": 73, "note_on_time": 61.401, "note_off_time": 61.951}, {"pitch": 74, "velocity": 76, "note_on_time": 61.889, "note_off_time": 62.247}, {"pitch": 76, "velocity": 76, "note_on_time": 62.594, "note_off_time": 62.96}, {"pitch": 77, "velocity": 77, "note_on_time": 62.838, "note_off_time": 63.237}, {"pitch": 72, "velocity": 76, "note_on_time": 62.165, "note_off_time": 63.267}, {"pitch": 79, "velocity": 76, "note_on_time": 63.146, "note_off_time": 65.104}, {"pitch": 72, "velocity": 65, "note_on_time": 66.177, "note_off_time": 66.65}, {"pitch": 74, "velocity": 66, "note_on_time": 66.57, "note_off_time": 67.013}, {"pitch": 76, "velocity": 67, "note_on_time": 66.968, "note_off_time": 67.406}, {"pitch": 77, "velocity": 72, "note_on_time": 67.379, "note_off_time": 67.903}, {"pitch": 79, "velocity": 60, "note_on_time": 67.862, "note_off_time": 68.362}, {"pitch": 72, "velocity": 73, "note_on_time": 68.281, "note_off_time": 68.779}, {"pitch": 74, "velocity": 73, "note_on_time": 68.693, "note_off_time": 69.034}, {"pitch": 76, "velocity": 72, "note_on_time": 68.947, "note_off_time": 69.376}, {"pitch": 77, "velocity": 74, "note_on_time": 69.3, "note_off_time": 69.754}, {"pitch": 79, "velocity": 74, "note_on_time": 69.646, "note_off_time": 70.274}, {"pitch": 72, "velocity": 56, "note_on_time": 70.092, "note_off_time": 70.519}, {"pitch": 74, "velocity": 79, "note_on_time": 70.413, "note_off_time": 70.837}, {"pitch": 76, "velocity": 69, "note_on_time": 70.733, "note_off_time": 71.108}, {"pitch": 77, "velocity": 66, "note_on_time": 71.013, "note_off_time": 71.432}, {"pitch": 79, "velocity": 73, "note_on_time": 71.336, "note_off_time": 71.847}, {"pitch": 72, "velocity": 63, "note_on_time": 71.74, "note_off_time": 72.711}, {"pitch": 74, "velocity": 71, "note_on_time": 72.108, "note_off_time": 72.758}, {"pitch": 76, "velocity": 61, "note_on_time": 72.382, "note_off_time": 73.174}, {"pitch": 77, "velocity": 70, "note_on_time": 72.676, "note_off_time": 73.227}, {"pitch": 79, "velocity": 44, "note_on_time": 73.097, "note_off_time": 73.356}, {"pitch": 79, "velocity": 70, "note_on_time": 73.527, "note_off_time": 74.378}, {"pitch": 77, "velocity": 67, "note_on_time": 73.898, "note_off_time": 74.653}, {"pitch": 76, "velocity": 66, "note_on_time": 74.235, "note_off_time": 74.906}, {"pitch": 74, "velocity": 65, "note_on_time": 74.56, "note_off_time": 74.922}, {"pitch": 72, "velocity": 69, "note_on_time": 74.839, "note_off_time": 75.311}, {"pitch": 79, "velocity": 60, "note_on_time": 75.174, "note_off_time": 76.57}, {"pitch": 77, "velocity": 68, "note_on_time": 75.54, "note_off_time": 76.644}, {"pitch": 74, "velocity": 65, "note_on_time": 76.256, "note_off_time": 76.65}, {"pitch": 76, "velocity": 55, "note_on_time": 75.907, "note_off_time": 76.658}, {"pitch": 72, "velocity": 66, "note_on_time": 76.55, "note_off_time": 77.371}, {"pitch": 79, "velocity": 74, "note_on_time": 76.936, "note_off_time": 77.985}, {"pitch": 77, "velocity": 60, "note_on_time": 77.286, "note_off_time": 78.325}, {"pitch": 76, "velocity": 60, "note_on_time": 77.652, "note_off_time": 78.389}, {"pitch": 74, "velocity": 56, "note_on_time": 77.946, "note_off_time": 78.397}, {"pitch": 72, "velocity": 74, "note_on_time": 78.267, "note_off_time": 79.213}, {"pitch": 79, "velocity": 67, "note_on_time": 78.689, "note_off_time": 79.779}, {"pitch": 77, "velocity": 63, "note_on_time": 79.077, "note_off_time": 79.856}, {"pitch": 74, "velocity": 61, "note_on_time": 79.735, "note_off_time": 80.274}, {"pitch": 72, "velocity": 74, "note_on_time": 80.138, "note_off_time": 80.606}, {"pitch": 76, "velocity": 60, "note_on_time": 79.405, "note_off_time": 80.632}, {"pitch": 74, "velocity": 81, "note_on_time": 81.199, "note_off_time": 81.943}, {"pitch": 76, "velocity": 70, "note_on_time": 81.59, "note_off_time": 82.366}, {"pitch": 77, "velocity": 40, "note_on_time": 81.782, "note_off_time": 82.661}, {"pitch": 79, "velocity": 65, "note_on_time": 82.263, "note_off_time": 83.076}, {"pitch": 72, "velocity": 79, "note_on_time": 82.646, "note_off_time": 83.129}, {"pitch": 74, "velocity": 81, "note_on_time": 83.038, "note_off_time": 83.445}, {"pitch": 76, "velocity": 76, "note_on_time": 83.323, "note_off_time": 84.053}, {"pitch": 77, "velocity": 78, "note_on_time": 83.63, "note_off_time": 84.166}, {"pitch": 79, "velocity": 63, "note_on_time": 84.032, "note_off_time": 84.7}, {"pitch": 72, "velocity": 74, "note_on_time": 84.452, "note_off_time": 84.96}, {"pitch": 74, "velocity": 73, "note_on_time": 84.871, "note_off_time": 85.544}, {"pitch": 76, "velocity": 76, "note_on_time": 85.185, "note_off_time": 85.896}, {"pitch": 77, "velocity": 70, "note_on_time": 85.476, "note_off_time": 86.236}, {"pitch": 72, "velocity": 73, "note_on_time": 86.199, "note_off_time": 86.724}, {"pitch": 79, "velocity": 60, "note_on_time": 85.833, "note_off_time": 86.734}, {"pitch": 74, "velocity": 74, "note_on_time": 86.606, "note_off_time": 87.301}, {"pitch": 76, "velocity": 76, "note_on_time": 86.954, "note_off_time": 87.627}, {"pitch": 77, "velocity": 74, "note_on_time": 87.242, "note_off_time": 87.761}, {"pitch": 72, "velocity": 68, "note_on_time": 87.977, "note_off_time": 89.111}, {"pitch": 79, "velocity": 60, "note_on_time": 87.576, "note_off_time": 89.159}, {"pitch": 77, "velocity": 72, "note_on_time": 89.648, "note_off_time": 90.247}, {"pitch": 74, "velocity": 64, "note_on_time": 90.28, "note_off_time": 90.782}, {"pitch": 76, "velocity": 74, "note_on_time": 89.926, "note_off_time": 90.787}, {"pitch": 72, "velocity": 76, "note_on_time": 90.641, "note_off_time": 91.141}, {"pitch": 79, "velocity": 77, "note_on_time": 91.043, "note_off_time": 91.56}, {"pitch": 77, "velocity": 72, "note_on_time": 91.444, "note_off_time": 91.946}, {"pitch": 74, "velocity": 67, "note_on_time": 92.085, "note_off_time": 92.49}, {"pitch": 76, "velocity": 72, "note_on_time": 91.758, "note_off_time": 92.5}, {"pitch": 72, "velocity": 72, "note_on_time": 92.399, "note_off_time": 92.906}, {"pitch": 79, "velocity": 69, "note_on_time": 92.799, "note_off_time": 93.347}, {"pitch": 77, "velocity": 66, "note_on_time": 93.268, "note_off_time": 93.826}, {"pitch": 76, "velocity": 73, "note_on_time": 93.623, "note_off_time": 94.053}, {"pitch": 74, "velocity": 70, "note_on_time": 93.913, "note_off_time": 94.356}, {"pitch": 72, "velocity": 76, "note_on_time": 94.214, "note_off_time": 94.773}, {"pitch": 79, "velocity": 82, "note_on_time": 94.641, "note_off_time": 95.489}, {"pitch": 77, "velocity": 65, "note_on_time": 95.149, "note_off_time": 95.796}, {"pitch": 74, "velocity": 64, "note_on_time": 95.753, "note_off_time": 96.344}, {"pitch": 76, "velocity": 67, "note_on_time": 95.416, "note_off_time": 96.372}, {"pitch": 72, "velocity": 72, "note_on_time": 96.163, "note_off_time": 97.382}, {"pitch": 79, "velocity": 67, "note_on_time": 96.789, "note_off_time": 97.73}, {"pitch": 77, "velocity": 77, "note_on_time": 98.4, "note_off_time": 99.589}, {"pitch": 79, "velocity": 62, "note_on_time": 98.754, "note_off_time": 99.602}, {"pitch": 76, "velocity": 65, "note_on_time": 98.095, "note_off_time": 99.603}, {"pitch": 74, "velocity": 85, "note_on_time": 99.497, "note_off_time": 99.959}, {"pitch": 72, "velocity": 84, "note_on_time": 99.893, "note_off_time": 100.659}, {"pitch": 76, "velocity": 78, "note_on_time": 100.314, "note_off_time": 100.699}, {"pitch": 77, "velocity": 76, "note_on_time": 100.555, "note_off_time": 100.987}, {"pitch": 74, "velocity": 73, "note_on_time": 101.249, "note_off_time": 101.658}, {"pitch": 79, "velocity": 64, "note_on_time": 100.878, "note_off_time": 101.737}, {"pitch": 76, "velocity": 74, "note_on_time": 101.952, "note_off_time": 102.429}, {"pitch": 77, "velocity": 74, "note_on_time": 102.164, "note_off_time": 102.569}, {"pitch": 72, "velocity": 76, "note_on_time": 101.589, "note_off_time": 102.593}, {"pitch": 79, "velocity": 62, "note_on_time": 102.489, "note_off_time": 103.295}, {"pitch": 74, "velocity": 66, "note_on_time": 102.9, "note_off_time": 103.356}, {"pitch": 72, "velocity": 64, "note_on_time": 103.287, "note_off_time": 104.114}, {"pitch": 76, "velocity": 74, "note_on_time": 103.703, "note_off_time": 104.209}, {"pitch": 77, "velocity": 73, "note_on_time": 103.951, "note_off_time": 104.283}, {"pitch": 74, "velocity": 69, "note_on_time": 104.621, "note_off_time": 105.208}, {"pitch": 79, "velocity": 64, "note_on_time": 104.222, "note_off_time": 105.67}, {"pitch": 72, "velocity": 66, "note_on_time": 105.034, "note_off_time": 105.714}, {"pitch": 76, "velocity": 71, "note_on_time": 105.899, "note_off_time": 106.734}, {"pitch": 74, "velocity": 72, "note_on_time": 106.249, "note_off_time": 106.939}, {"pitch": 77, "velocity": 68, "note_on_time": 106.964, "note_off_time": 107.34}, {"pitch": 72, "velocity": 74, "note_on_time": 106.605, "note_off_time": 107.572}, {"pitch": 79, "velocity": 65, "note_on_time": 107.303, "note_off_time": 108.246}, {"pitch": 76, "velocity": 74, "note_on_time": 108.174, "note_off_time": 108.804}, {"pitch": 74, "velocity": 80, "note_on_time": 108.441, "note_off_time": 108.841}, {"pitch": 77, "velocity": 74, "note_on_time": 109.124, "note_off_time": 109.461}, {"pitch": 72, "velocity": 72, "note_on_time": 108.76, "note_off_time": 109.476}, {"pitch": 79, "velocity": 71, "note_on_time": 109.404, "note_off_time": 110.18}, {"pitch": 76, "velocity": 77, "note_on_time": 110.099, "note_off_time": 110.532}, {"pitch": 74, "velocity": 73, "note_on_time": 110.375, "note_off_time": 110.742}, {"pitch": 77, "velocity": 71, "note_on_time": 111.043, "note_off_time": 111.403}, {"pitch": 72, "velocity": 77, "note_on_time": 110.675, "note_off_time": 112.01}, {"pitch": 79, "velocity": 70, "note_on_time": 111.334, "note_off_time": 112.034}, {"pitch": 76, "velocity": 67, "note_on_time": 111.95, "note_off_time": 112.574}, {"pitch": 74, "velocity": 69, "note_on_time": 112.218, "note_off_time": 112.62}, {"pitch": 77, "velocity": 66, "note_on_time": 113.19, "note_off_time": 113.617}, {"pitch": 79, "velocity": 68, "note_on_time": 113.529, "note_off_time": 114.3}, {"pitch": 72, "velocity": 80, "note_on_time": 112.552, "note_off_time": 114.343}, {"pitch": 77, "velocity": 72, "note_on_time": 114.552, "note_off_time": 115.063}, {"pitch": 79, "velocity": 78, "note_on_time": 114.915, "note_off_time": 115.734}, {"pitch": 76, "velocity": 70, "note_on_time": 115.651, "note_off_time": 116.252}, {"pitch": 74, "velocity": 71, "note_on_time": 115.928, "note_off_time": 116.292}, {"pitch": 77, "velocity": 78, "note_on_time": 116.893, "note_off_time": 117.263}, {"pitch": 72, "velocity": 72, "note_on_time": 116.236, "note_off_time": 117.462}, {"pitch": 79, "velocity": 67, "note_on_time": 117.224, "note_off_time": 117.772}, {"pitch": 76, "velocity": 71, "note_on_time": 117.708, "note_off_time": 118.276}, {"pitch": 74, "velocity": 70, "note_on_time": 117.953, "note_off_time": 118.335}, {"pitch": 77, "velocity": 62, "note_on_time": 118.735, "note_off_time": 119.227}, {"pitch": 72, "velocity": 76, "note_on_time": 118.275, "note_off_time": 119.232}, {"pitch": 79, "velocity": 72, "note_on_time": 119.151, "note_off_time": 119.707}, {"pitch": 76, "velocity": 71, "note_on_time": 119.624, "note_off_time": 120.25}, {"pitch": 74, "velocity": 64, "note_on_time": 119.912, "note_off_time": 120.263}, {"pitch": 77, "velocity": 61, "note_on_time": 120.702, "note_off_time": 121.138}, {"pitch": 72, "velocity": 73, "note_on_time": 120.205, "note_off_time": 121.213}, {"pitch": 79, "velocity": 73, "note_on_time": 121.063, "note_off_time": 121.702}, {"pitch": 74, "velocity": 63, "note_on_time": 121.904, "note_off_time": 122.394}, {"pitch": 76, "velocity": 66, "note_on_time": 121.61, "note_off_time": 122.423}, {"pitch": 72, "velocity": 65, "note_on_time": 122.238, "note_off_time": 122.698}, {"pitch": 74, "velocity": 62, "note_on_time": 122.948, "note_off_time": 123.829}, {"pitch": 76, "velocity": 75, "note_on_time": 123.998, "note_off_time": 124.334}, {"pitch": 72, "velocity": 71, "note_on_time": 123.33, "note_off_time": 124.393}, {"pitch": 77, "velocity": 74, "note_on_time": 124.246, "note_off_time": 124.66}, {"pitch": 79, "velocity": 66, "note_on_time": 124.564, "note_off_time": 125.573}, {"pitch": 74, "velocity": 81, "note_on_time": 125.472, "note_off_time": 125.933}, {"pitch": 76, "velocity": 66, "note_on_time": 126.252, "note_off_time": 126.615}, {"pitch": 72, "velocity": 78, "note_on_time": 125.87, "note_off_time": 126.628}, {"pitch": 77, "velocity": 75, "note_on_time": 126.492, "note_off_time": 126.807}, {"pitch": 72, "velocity": 1, "note_on_time": 126.837, "note_off_time": 126.899}, {"pitch": 79, "velocity": 63, "note_on_time": 126.769, "note_off_time": 127.274}, {"pitch": 74, "velocity": 71, "note_on_time": 127.184, "note_off_time": 127.549}, {"pitch": 76, "velocity": 73, "note_on_time": 127.875, "note_off_time": 128.136}, {"pitch": 77, "velocity": 72, "note_on_time": 128.07, "note_off_time": 128.388}, {"pitch": 72, "velocity": 74, "note_on_time": 127.5, "note_off_time": 128.479}, {"pitch": 79, "velocity": 66, "note_on_time": 128.336, "note_off_time": 128.871}, {"pitch": 74, "velocity": 65, "note_on_time": 128.795, "note_off_time": 129.239}, {"pitch": 76, "velocity": 76, "note_on_time": 129.564, "note_off_time": 129.848}, {"pitch": 72, "velocity": 74, "note_on_time": 129.177, "note_off_time": 129.959}, {"pitch": 77, "velocity": 80, "note_on_time": 129.786, "note_off_time": 130.128}, {"pitch": 72, "velocity": 1, "note_on_time": 130.096, "note_off_time": 130.158}, {"pitch": 79, "velocity": 78, "note_on_time": 130.062, "note_off_time": 132.338}, {"pitch": 72, "velocity": 67, "note_on_time": 132.567, "note_off_time": 133.621}, {"pitch": 74, "velocity": 72, "note_on_time": 133.194, "note_off_time": 133.697}, {"pitch": 76, "velocity": 69, "note_on_time": 133.581, "note_off_time": 134.021}, {"pitch": 77, "velocity": 72, "note_on_time": 133.97, "note_off_time": 134.462}, {"pitch": 79, "velocity": 68, "note_on_time": 134.357, "note_off_time": 135.312}, {"pitch": 72, "velocity": 58, "note_on_time": 134.925, "note_off_time": 135.447}, {"pitch": 74, "velocity": 62, "note_on_time": 135.337, "note_off_time": 135.833}, {"pitch": 76, "velocity": 63, "note_on_time": 135.743, "note_off_time": 136.263}, {"pitch": 77, "velocity": 69, "note_on_time": 136.086, "note_off_time": 136.529}, {"pitch": 79, "velocity": 39, "note_on_time": 136.447, "note_off_time": 137.398}, {"pitch": 72, "velocity": 62, "note_on_time": 136.926, "note_off_time": 137.836}, {"pitch": 74, "velocity": 61, "note_on_time": 137.383, "note_off_time": 138.11}, {"pitch": 76, "velocity": 56, "note_on_time": 137.746, "note_off_time": 138.414}, {"pitch": 77, "velocity": 69, "note_on_time": 138.091, "note_off_time": 138.42}, {"pitch": 79, "velocity": 58, "note_on_time": 138.418, "note_off_time": 139.038}, {"pitch": 72, "velocity": 57, "note_on_time": 138.913, "note_off_time": 139.656}, {"pitch": 74, "velocity": 66, "note_on_time": 139.31, "note_off_time": 140.045}, {"pitch": 76, "velocity": 55, "note_on_time": 139.631, "note_off_time": 140.365}, {"pitch": 77, "velocity": 61, "note_on_time": 139.946, "note_off_time": 140.406}, {"pitch": 79, "velocity": 46, "note_on_time": 140.324, "note_off_time": 140.493}, {"pitch": 76, "velocity": 55, "note_on_time": 141.085, "note_off_time": 141.388}, {"pitch": 77, "velocity": 35, "note_on_time": 141.077, "note_off_time": 141.407}, {"pitch": 79, "velocity": 74, "note_on_time": 140.733, "note_off_time": 141.75}, {"pitch": 76, "velocity": 68, "note_on_time": 141.644, "note_off_time": 142.033}, {"pitch": 74, "velocity": 79, "note_on_time": 141.963, "note_off_time": 142.377}, {"pitch": 72, "velocity": 74, "note_on_time": 142.309, "note_off_time": 142.763}, {"pitch": 79, "velocity": 57, "note_on_time": 142.661, "note_off_time": 143.142}, {"pitch": 77, "velocity": 72, "note_on_time": 143.02, "note_off_time": 143.517}, {"pitch": 76, "velocity": 71, "note_on_time": 143.348, "note_off_time": 144.04}, {"pitch": 74, "velocity": 65, "note_on_time": 143.629, "note_off_time": 144.087}, {"pitch": 72, "velocity": 72, "note_on_time": 143.996, "note_off_time": 144.615}, {"pitch": 79, "velocity": 43, "note_on_time": 144.405, "note_off_time": 145.385}, {"pitch": 77, "velocity": 64, "note_on_time": 144.794, "note_off_time": 145.518}, {"pitch": 76, "velocity": 53, "note_on_time": 145.093, "note_off_time": 145.753}, {"pitch": 74, "velocity": 64, "note_on_time": 145.383, "note_off_time": 145.764}, {"pitch": 72, "velocity": 67, "note_on_time": 145.687, "note_off_time": 146.71}, {"pitch": 79, "velocity": 51, "note_on_time": 146.121, "note_off_time": 147.273}, {"pitch": 77, "velocity": 68, "note_on_time": 146.583, "note_off_time": 148.141}, {"pitch": 74, "velocity": 61, "note_on_time": 147.219, "note_off_time": 148.169}, {"pitch": 76, "velocity": 66, "note_on_time": 146.933, "note_off_time": 148.254}, {"pitch": 72, "velocity": 69, "note_on_time": 147.631, "note_off_time": 148.318}, {"pitch": 74, "velocity": 76, "note_on_time": 148.964, "note_off_time": 149.61}, {"pitch": 76, "velocity": 72, "note_on_time": 149.236, "note_off_time": 149.945}, {"pitch": 77, "velocity": 72, "note_on_time": 149.529, "note_off_time": 150.08}, {"pitch": 79, "velocity": 56, "note_on_time": 149.878, "note_off_time": 150.66}, {"pitch": 72, "velocity": 73, "note_on_time": 150.253, "note_off_time": 150.707}, {"pitch": 74, "velocity": 76, "note_on_time": 150.609, "note_off_time": 151.009}, {"pitch": 76, "velocity": 75, "note_on_time": 150.936, "note_off_time": 151.55}, {"pitch": 77, "velocity": 75, "note_on_time": 151.181, "note_off_time": 151.611}, {"pitch": 79, "velocity": 70, "note_on_time": 151.505, "note_off_time": 152.003}, {"pitch": 72, "velocity": 75, "note_on_time": 151.854, "note_off_time": 152.311}, {"pitch": 74, "velocity": 74, "note_on_time": 152.234, "note_off_time": 152.88}, {"pitch": 76, "velocity": 72, "note_on_time": 152.584, "note_off_time": 153.171}, {"pitch": 77, "velocity": 66, "note_on_time": 152.855, "note_off_time": 153.26}, {"pitch": 72, "velocity": 73, "note_on_time": 153.502, "note_off_time": 153.918}, {"pitch": 79, "velocity": 67, "note_on_time": 153.138, "note_off_time": 153.982}, {"pitch": 74, "velocity": 73, "note_on_time": 153.832, "note_off_time": 154.531}, {"pitch": 76, "velocity": 77, "note_on_time": 154.175, "note_off_time": 154.624}, {"pitch": 77, "velocity": 70, "note_on_time": 154.436, "note_off_time": 154.854}, {"pitch": 79, "velocity": 63, "note_on_time": 154.747, "note_off_time": 156.261}, {"pitch": 72, "velocity": 75, "note_on_time": 155.162, "note_off_time": 156.345}, {"pitch": 77, "velocity": 77, "note_on_time": 156.994, "note_off_time": 157.78}, {"pitch": 76, "velocity": 63, "note_on_time": 157.346, "note_off_time": 158.221}, {"pitch": 74, "velocity": 66, "note_on_time": 157.657, "note_off_time": 158.238}, {"pitch": 72, "velocity": 74, "note_on_time": 158.008, "note_off_time": 158.895}, {"pitch": 79, "velocity": 67, "note_on_time": 158.372, "note_off_time": 159.143}, {"pitch": 77, "velocity": 68, "note_on_time": 158.803, "note_off_time": 159.438}, {"pitch": 76, "velocity": 63, "note_on_time": 159.094, "note_off_time": 159.834}, {"pitch": 74, "velocity": 68, "note_on_time": 159.407, "note_off_time": 159.858}, {"pitch": 72, "velocity": 76, "note_on_time": 159.76, "note_off_time": 160.298}, {"pitch": 79, "velocity": 73, "note_on_time": 160.117, "note_off_time": 160.744}, {"pitch": 77, "velocity": 67, "note_on_time": 160.62, "note_off_time": 161.256}, {"pitch": 76, "velocity": 68, "note_on_time": 160.923, "note_off_time": 161.605}, {"pitch": 74, "velocity": 58, "note_on_time": 161.216, "note_off_time": 161.634}, {"pitch": 79, "velocity": 70, "note_on_time": 161.898, "note_off_time": 162.488}, {"pitch": 72, "velocity": 75, "note_on_time": 161.544, "note_off_time": 162.553}, {"pitch": 77, "velocity": 69, "note_on_time": 162.379, "note_off_time": 163.126}, {"pitch": 74, "velocity": 60, "note_on_time": 163.061, "note_off_time": 163.462}, {"pitch": 76, "velocity": 63, "note_on_time": 162.707, "note_off_time": 163.517}, {"pitch": 72, "velocity": 63, "note_on_time": 163.318, "note_off_time": 164.686}, {"pitch": 79, "velocity": 67, "note_on_time": 163.855, "note_off_time": 165.209}, {"pitch": 76, "velocity": 72, "note_on_time": 165.195, "note_off_time": 165.954}, {"pitch": 77, "velocity": 77, "note_on_time": 165.471, "note_off_time": 166.635}, {"pitch": 79, "velocity": 57, "note_on_time": 165.797, "note_off_time": 166.647}, {"pitch": 74, "velocity": 79, "note_on_time": 166.489, "note_off_time": 166.918}, {"pitch": 76, "velocity": 73, "note_on_time": 167.463, "note_off_time": 167.852}, {"pitch": 77, "velocity": 72, "note_on_time": 167.719, "note_off_time": 168.061}, {"pitch": 72, "velocity": 78, "note_on_time": 166.839, "note_off_time": 168.068}, {"pitch": 74, "velocity": 72, "note_on_time": 168.374, "note_off_time": 168.8}, {"pitch": 79, "velocity": 66, "note_on_time": 167.99, "note_off_time": 168.824}, {"pitch": 72, "velocity": 72, "note_on_time": 168.727, "note_off_time": 169.402}, {"pitch": 76, "velocity": 67, "note_on_time": 169.12, "note_off_time": 169.6}, {"pitch": 77, "velocity": 72, "note_on_time": 169.331, "note_off_time": 169.691}, {"pitch": 79, "velocity": 70, "note_on_time": 169.599, "note_off_time": 170.419}, {"pitch": 74, "velocity": 65, "note_on_time": 169.998, "note_off_time": 170.46}, {"pitch": 76, "velocity": 71, "note_on_time": 170.846, "note_off_time": 171.135}, {"pitch": 77, "velocity": 72, "note_on_time": 171.075, "note_off_time": 171.427}, {"pitch": 72, "velocity": 72, "note_on_time": 170.389, "note_off_time": 171.676}, {"pitch": 74, "velocity": 71, "note_on_time": 171.779, "note_off_time": 172.42}, {"pitch": 79, "velocity": 62, "note_on_time": 171.35, "note_off_time": 173.155}, {"pitch": 72, "velocity": 72, "note_on_time": 172.247, "note_off_time": 173.175}, {"pitch": 76, "velocity": 74, "note_on_time": 173.475, "note_off_time": 174.134}, {"pitch": 74, "velocity": 70, "note_on_time": 173.743, "note_off_time": 174.159}, {"pitch": 77, "velocity": 69, "note_on_time": 174.512, "note_off_time": 174.871}, {"pitch": 72, "velocity": 85, "note_on_time": 174.056, "note_off_time": 174.991}, {"pitch": 79, "velocity": 74, "note_on_time": 174.814, "note_off_time": 175.355}, {"pitch": 76, "velocity": 77, "note_on_time": 175.257, "note_off_time": 175.625}, {"pitch": 76, "velocity": 50, "note_on_time": 175.716, "note_off_time": 175.9}, {"pitch": 74, "velocity": 79, "note_on_time": 175.526, "note_off_time": 176.199}, {"pitch": 77, "velocity": 66, "note_on_time": 176.616, "note_off_time": 176.919}, {"pitch": 72, "velocity": 87, "note_on_time": 176.156, "note_off_time": 177.021}, {"pitch": 79, "velocity": 76, "note_on_time": 176.867, "note_off_time": 177.466}, {"pitch": 76, "velocity": 69, "note_on_time": 177.379, "note_off_time": 177.928}, {"pitch": 74, "velocity": 75, "note_on_time": 177.634, "note_off_time": 178.018}, {"pitch": 77, "velocity": 66, "note_on_time": 178.33, "note_off_time": 178.706}, {"pitch": 72, "velocity": 75, "note_on_time": 177.939, "note_off_time": 178.778}, {"pitch": 79, "velocity": 59, "note_on_time": 178.648, "note_off_time": 179.239}, {"pitch": 76, "velocity": 70, "note_on_time": 179.164, "note_off_time": 179.753}, {"pitch": 74, "velocity": 67, "note_on_time": 179.423, "note_off_time": 179.775}, {"pitch": 77, "velocity": 73, "note_on_time": 180.234, "note_off_time": 180.631}, {"pitch": 72, "velocity": 78, "note_on_time": 179.711, "note_off_time": 180.976}, {"pitch": 79, "velocity": 59, "note_on_time": 180.492, "note_off_time": 181.022}, {"pitch": 77, "velocity": 74, "note_on_time": 181.198, "note_off_time": 181.606}, {"pitch": 76, "velocity": 70, "note_on_time": 182.151, "note_off_time": 182.483}, {"pitch": 79, "velocity": 66, "note_on_time": 181.475, "note_off_time": 182.499}, {"pitch": 74, "velocity": 78, "note_on_time": 182.406, "note_off_time": 182.82}, {"pitch": 77, "velocity": 70, "note_on_time": 183.167, "note_off_time": 183.508}, {"pitch": 72, "velocity": 72, "note_on_time": 182.747, "note_off_time": 183.606}, {"pitch": 79, "velocity": 59, "note_on_time": 183.45, "note_off_time": 184.195}, {"pitch": 76, "velocity": 63, "note_on_time": 183.895, "note_off_time": 184.484}, {"pitch": 74, "velocity": 67, "note_on_time": 184.194, "note_off_time": 184.546}, {"pitch": 77, "velocity": 69, "note_on_time": 184.871, "note_off_time": 185.216}, {"pitch": 72, "velocity": 70, "note_on_time": 184.478, "note_off_time": 185.294}, {"pitch": 79, "velocity": 70, "note_on_time": 185.129, "note_off_time": 185.783}, {"pitch": 76, "velocity": 70, "note_on_time": 185.659, "note_off_time": 185.996}, {"pitch": 74, "velocity": 77, "note_on_time": 185.923, "note_off_time": 186.254}, {"pitch": 77, "velocity": 70, "note_on_time": 186.61, "note_off_time": 186.912}, {"pitch": 72, "velocity": 77, "note_on_time": 186.19, "note_off_time": 187.407}, {"pitch": 79, "velocity": 67, "note_on_time": 186.855, "note_off_time": 187.724}, {"pitch": 74, "velocity": 78, "note_on_time": 187.881, "note_off_time": 188.681}, {"pitch": 76, "velocity": 67, "note_on_time": 187.616, "note_off_time": 188.8}, {"pitch": 72, "velocity": 66, "note_on_time": 188.28, "note_off_time": 188.942}, {"pitch": 74, "velocity": 72, "note_on_time": 189.244, "note_off_time": 189.727}, {"pitch": 76, "velocity": 69, "note_on_time": 190.087, "note_off_time": 190.36}, {"pitch": 77, "velocity": 73, "note_on_time": 190.288, "note_off_time": 190.638}, {"pitch": 72, "velocity": 76, "note_on_time": 189.634, "note_off_time": 190.67}, {"pitch": 79, "velocity": 62, "note_on_time": 190.554, "note_off_time": 191.107}, {"pitch": 74, "velocity": 63, "note_on_time": 190.93, "note_off_time": 191.384}, {"pitch": 76, "velocity": 72, "note_on_time": 191.699, "note_off_time": 192.04}, {"pitch": 72, "velocity": 73, "note_on_time": 191.308, "note_off_time": 192.077}, {"pitch": 77, "velocity": 73, "note_on_time": 191.91, "note_off_time": 192.232}, {"pitch": 79, "velocity": 66, "note_on_time": 192.156, "note_off_time": 192.826}, {"pitch": 74, "velocity": 65, "note_on_time": 192.606, "note_off_time": 193.105}, {"pitch": 76, "velocity": 71, "note_on_time": 193.388, "note_off_time": 193.683}, {"pitch": 77, "velocity": 74, "note_on_time": 193.589, "note_off_time": 193.927}, {"pitch": 72, "velocity": 76, "note_on_time": 193.015, "note_off_time": 193.943}, {"pitch": 79, "velocity": 72, "note_on_time": 193.847, "note_off_time": 194.368}]</notes><guidance name="Guidance Mode">None</guidance><error name="Error value">99</error></trial></trials></MIDI>