<MIDI midiNo="2023_06_19-11_50_01"><target_notes><notes name="Note List">[{"pitch": 60, "velocity": 40, "note_on_time": 0.01, "note_off_time": 1.013}, {"pitch": 64, "velocity": 40, "note_on_time": 0.01, "note_off_time": 1.014}, {"pitch": 67, "velocity": 40, "note_on_time": 0.01, "note_off_time": 1.014}, {"pitch": 48, "velocity": 40, "note_on_time": 0.01, "note_off_time": 1.014}, {"pitch": 52, "velocity": 40, "note_on_time": 1.014, "note_off_time": 2.016}, {"pitch": 55, "velocity": 40, "note_on_time": 1.014, "note_off_time": 2.016}, {"pitch": 74, "velocity": 40, "note_on_time": 2.016, "note_off_time": 3.025}, {"pitch": 48, "velocity": 40, "note_on_time": 2.017, "note_off_time": 3.025}, {"pitch": 52, "velocity": 40, "note_on_time": 3.025, "note_off_time": 4.036}, {"pitch": 55, "velocity": 40, "note_on_time": 3.025, "note_off_time": 4.036}, {"pitch": 48, "velocity": 40, "note_on_time": 4.036, "note_off_time": 5.046}, {"pitch": 52, "velocity": 40, "note_on_time": 5.046, "note_off_time": 6.058}, {"pitch": 55, "velocity": 40, "note_on_time": 5.046, "note_off_time": 6.058}, {"pitch": 48, "velocity": 40, "note_on_time": 6.058, "note_off_time": 7.069}, {"pitch": 52, "velocity": 40, "note_on_time": 7.069, "note_off_time": 8.081}, {"pitch": 55, "velocity": 40, "note_on_time": 7.069, "note_off_time": 8.081}, {"pitch": 60, "velocity": 40, "note_on_time": 8.08, "note_off_time": 9.094}, {"pitch": 64, "velocity": 40, "note_on_time": 8.08, "note_off_time": 9.096}, {"pitch": 67, "velocity": 40, "note_on_time": 8.081, "note_off_time": 9.096}, {"pitch": 48, "velocity": 40, "note_on_time": 8.081, "note_off_time": 9.096}, {"pitch": 52, "velocity": 40, "note_on_time": 9.096, "note_off_time": 10.109}, {"pitch": 55, "velocity": 40, "note_on_time": 9.096, "note_off_time": 10.11}, {"pitch": 72, "velocity": 40, "note_on_time": 10.109, "note_off_time": 11.123}, {"pitch": 48, "velocity": 40, "note_on_time": 10.11, "note_off_time": 11.123}, {"pitch": 52, "velocity": 40, "note_on_time": 11.123, "note_off_time": 12.131}, {"pitch": 55, "velocity": 40, "note_on_time": 11.123, "note_off_time": 12.131}, {"pitch": 48, "velocity": 40, "note_on_time": 12.131, "note_off_time": 13.136}, {"pitch": 52, "velocity": 40, "note_on_time": 13.136, "note_off_time": 14.149}, {"pitch": 55, "velocity": 40, "note_on_time": 13.136, "note_off_time": 14.149}, {"pitch": 48, "velocity": 40, "note_on_time": 14.149, "note_off_time": 15.159}, {"pitch": 52, "velocity": 40, "note_on_time": 15.159, "note_off_time": 16.172}, {"pitch": 55, "velocity": 40, "note_on_time": 15.159, "note_off_time": 16.173}, {"pitch": 60, "velocity": 40, "note_on_time": 16.171, "note_off_time": 17.185}, {"pitch": 64, "velocity": 40, "note_on_time": 16.172, "note_off_time": 17.186}, {"pitch": 67, "velocity": 40, "note_on_time": 16.172, "note_off_time": 17.187}, {"pitch": 48, "velocity": 40, "note_on_time": 16.173, "note_off_time": 17.187}, {"pitch": 52, "velocity": 40, "note_on_time": 17.187, "note_off_time": 18.199}, {"pitch": 55, "velocity": 40, "note_on_time": 17.187, "note_off_time": 18.199}, {"pitch": 74, "velocity": 40, "note_on_time": 18.199, "note_off_time": 19.207}, {"pitch": 48, "velocity": 40, "note_on_time": 18.199, "note_off_time": 19.208}, {"pitch": 52, "velocity": 40, "note_on_time": 19.208, "note_off_time": 20.219}, {"pitch": 55, "velocity": 40, "note_on_time": 19.208, "note_off_time": 20.219}, {"pitch": 48, "velocity": 40, "note_on_time": 20.22, "note_off_time": 21.228}, {"pitch": 52, "velocity": 40, "note_on_time": 21.228, "note_off_time": 22.241}, {"pitch": 55, "velocity": 40, "note_on_time": 21.228, "note_off_time": 22.241}, {"pitch": 48, "velocity": 40, "note_on_time": 22.241, "note_off_time": 23.253}, {"pitch": 52, "velocity": 40, "note_on_time": 23.253, "note_off_time": 24.264}, {"pitch": 55, "velocity": 40, "note_on_time": 23.253, "note_off_time": 24.264}, {"pitch": 60, "velocity": 40, "note_on_time": 24.262, "note_off_time": 25.273}, {"pitch": 64, "velocity": 40, "note_on_time": 24.263, "note_off_time": 25.274}, {"pitch": 67, "velocity": 40, "note_on_time": 24.263, "note_off_time": 25.275}, {"pitch": 48, "velocity": 40, "note_on_time": 24.264, "note_off_time": 25.275}, {"pitch": 52, "velocity": 40, "note_on_time": 25.275, "note_off_time": 26.284}, {"pitch": 55, "velocity": 40, "note_on_time": 25.275, "note_off_time": 26.285}, {"pitch": 79, "velocity": 40, "note_on_time": 26.284, "note_off_time": 27.293}, {"pitch": 48, "velocity": 40, "note_on_time": 26.285, "note_off_time": 27.294}, {"pitch": 52, "velocity": 40, "note_on_time": 27.294, "note_off_time": 28.299}, {"pitch": 55, "velocity": 40, "note_on_time": 27.294, "note_off_time": 28.299}, {"pitch": 48, "velocity": 40, "note_on_time": 28.299, "note_off_time": 29.308}, {"pitch": 52, "velocity": 40, "note_on_time": 29.308, "note_off_time": 30.317}, {"pitch": 55, "velocity": 40, "note_on_time": 29.308, "note_off_time": 30.317}, {"pitch": 48, "velocity": 40, "note_on_time": 30.317, "note_off_time": 31.328}, {"pitch": 52, "velocity": 40, "note_on_time": 31.328, "note_off_time": 32.339}, {"pitch": 55, "velocity": 40, "note_on_time": 31.328, "note_off_time": 32.339}, {"pitch": 60, "velocity": 40, "note_on_time": 32.337, "note_off_time": 33.349}, {"pitch": 64, "velocity": 40, "note_on_time": 32.338, "note_off_time": 33.349}, {"pitch": 67, "velocity": 40, "note_on_time": 32.338, "note_off_time": 33.35}, {"pitch": 48, "velocity": 40, "note_on_time": 32.339, "note_off_time": 33.35}, {"pitch": 52, "velocity": 40, "note_on_time": 33.35, "note_off_time": 34.36}, {"pitch": 55, "velocity": 40, "note_on_time": 33.35, "note_off_time": 34.36}, {"pitch": 72, "velocity": 40, "note_on_time": 34.359, "note_off_time": 35.362}, {"pitch": 48, "velocity": 40, "note_on_time": 34.36, "note_off_time": 35.363}, {"pitch": 52, "velocity": 40, "note_on_time": 35.363, "note_off_time": 36.368}, {"pitch": 55, "velocity": 40, "note_on_time": 35.363, "note_off_time": 36.368}, {"pitch": 48, "velocity": 40, "note_on_time": 36.368, "note_off_time": 37.381}, {"pitch": 52, "velocity": 40, "note_on_time": 37.381, "note_off_time": 38.386}, {"pitch": 55, "velocity": 40, "note_on_time": 37.381, "note_off_time": 38.386}, {"pitch": 48, "velocity": 40, "note_on_time": 38.386, "note_off_time": 39.396}, {"pitch": 52, "velocity": 40, "note_on_time": 39.396, "note_off_time": 40.411}, {"pitch": 55, "velocity": 40, "note_on_time": 39.396, "note_off_time": 40.412}, {"pitch": 60, "velocity": 40, "note_on_time": 40.41, "note_off_time": 41.425}, {"pitch": 64, "velocity": 40, "note_on_time": 40.411, "note_off_time": 41.426}, {"pitch": 67, "velocity": 40, "note_on_time": 40.411, "note_off_time": 41.427}, {"pitch": 77, "velocity": 40, "note_on_time": 42.435, "note_off_time": 43.436}, {"pitch": 60, "velocity": 40, "note_on_time": 48.448, "note_off_time": 49.46}, {"pitch": 64, "velocity": 40, "note_on_time": 48.449, "note_off_time": 49.461}, {"pitch": 67, "velocity": 40, "note_on_time": 48.449, "note_off_time": 49.461}, {"pitch": 72, "velocity": 40, "note_on_time": 50.479, "note_off_time": 51.493}, {"pitch": 60, "velocity": 40, "note_on_time": 56.505, "note_off_time": 57.516}, {"pitch": 64, "velocity": 40, "note_on_time": 56.506, "note_off_time": 57.517}, {"pitch": 67, "velocity": 40, "note_on_time": 56.506, "note_off_time": 57.518}, {"pitch": 76, "velocity": 40, "note_on_time": 58.53, "note_off_time": 59.544}, {"pitch": 60, "velocity": 40, "note_on_time": 64.549, "note_off_time": 65.555}, {"pitch": 64, "velocity": 40, "note_on_time": 64.55, "note_off_time": 65.557}, {"pitch": 67, "velocity": 40, "note_on_time": 64.551, "note_off_time": 65.557}, {"pitch": 77, "velocity": 40, "note_on_time": 66.565, "note_off_time": 67.581}, {"pitch": 60, "velocity": 40, "note_on_time": 72.592, "note_off_time": 73.607}, {"pitch": 64, "velocity": 40, "note_on_time": 72.592, "note_off_time": 73.608}, {"pitch": 67, "velocity": 40, "note_on_time": 72.593, "note_off_time": 73.609}, {"pitch": 76, "velocity": 40, "note_on_time": 74.616, "note_off_time": 75.627}, {"pitch": 60, "velocity": 40, "note_on_time": 80.632, "note_off_time": 81.647}, {"pitch": 64, "velocity": 40, "note_on_time": 80.633, "note_off_time": 81.648}, {"pitch": 67, "velocity": 40, "note_on_time": 80.633, "note_off_time": 81.648}, {"pitch": 74, "velocity": 40, "note_on_time": 82.652, "note_off_time": 83.664}, {"pitch": 60, "velocity": 40, "note_on_time": 88.671, "note_off_time": 89.675}, {"pitch": 64, "velocity": 40, "note_on_time": 88.672, "note_off_time": 89.675}, {"pitch": 67, "velocity": 40, "note_on_time": 88.672, "note_off_time": 89.676}, {"pitch": 76, "velocity": 40, "note_on_time": 90.685, "note_off_time": 91.716}, {"pitch": 60, "velocity": 40, "note_on_time": 96.718, "note_off_time": 97.731}, {"pitch": 64, "velocity": 40, "note_on_time": 96.718, "note_off_time": 97.735}, {"pitch": 67, "velocity": 40, "note_on_time": 96.719, "note_off_time": 97.739}, {"pitch": 77, "velocity": 40, "note_on_time": 98.74, "note_off_time": 99.752}, {"pitch": 60, "velocity": 40, "note_on_time": 104.757, "note_off_time": 105.765}, {"pitch": 64, "velocity": 40, "note_on_time": 104.758, "note_off_time": 105.765}, {"pitch": 67, "velocity": 40, "note_on_time": 104.758, "note_off_time": 105.766}, {"pitch": 79, "velocity": 40, "note_on_time": 106.776, "note_off_time": 107.791}, {"pitch": 60, "velocity": 40, "note_on_time": 112.799, "note_off_time": 113.809}, {"pitch": 64, "velocity": 40, "note_on_time": 112.8, "note_off_time": 113.81}, {"pitch": 67, "velocity": 40, "note_on_time": 112.801, "note_off_time": 113.811}, {"pitch": 74, "velocity": 40, "note_on_time": 114.82, "note_off_time": 115.832}, {"pitch": 60, "velocity": 40, "note_on_time": 120.843, "note_off_time": 121.852}, {"pitch": 64, "velocity": 40, "note_on_time": 120.843, "note_off_time": 121.853}, {"pitch": 67, "velocity": 40, "note_on_time": 120.844, "note_off_time": 121.854}, {"pitch": 79, "velocity": 40, "note_on_time": 122.862, "note_off_time": 123.876}, {"pitch": 60, "velocity": 40, "note_on_time": 128.877, "note_off_time": 129.891}, {"pitch": 64, "velocity": 40, "note_on_time": 128.878, "note_off_time": 129.892}, {"pitch": 67, "velocity": 40, "note_on_time": 128.879, "note_off_time": 129.892}, {"pitch": 76, "velocity": 40, "note_on_time": 130.905, "note_off_time": 131.912}, {"pitch": 60, "velocity": 40, "note_on_time": 136.925, "note_off_time": 137.937}, {"pitch": 64, "velocity": 40, "note_on_time": 136.926, "note_off_time": 137.938}, {"pitch": 67, "velocity": 40, "note_on_time": 136.927, "note_off_time": 137.938}, {"pitch": 79, "velocity": 40, "note_on_time": 138.949, "note_off_time": 139.964}, {"pitch": 60, "velocity": 40, "note_on_time": 144.97, "note_off_time": 145.981}, {"pitch": 64, "velocity": 40, "note_on_time": 144.971, "note_off_time": 145.982}, {"pitch": 67, "velocity": 40, "note_on_time": 144.971, "note_off_time": 145.983}, {"pitch": 72, "velocity": 40, "note_on_time": 146.99, "note_off_time": 148.004}, {"pitch": 60, "velocity": 40, "note_on_time": 153.015, "note_off_time": 154.033}, {"pitch": 64, "velocity": 40, "note_on_time": 153.015, "note_off_time": 154.033}, {"pitch": 67, "velocity": 40, "note_on_time": 153.016, "note_off_time": 154.034}, {"pitch": 77, "velocity": 40, "note_on_time": 155.043, "note_off_time": 156.058}, {"pitch": 60, "velocity": 40, "note_on_time": 161.07, "note_off_time": 162.084}, {"pitch": 64, "velocity": 40, "note_on_time": 161.071, "note_off_time": 162.085}, {"pitch": 67, "velocity": 40, "note_on_time": 161.072, "note_off_time": 162.086}, {"pitch": 74, "velocity": 40, "note_on_time": 163.096, "note_off_time": 164.108}]</notes><options name="Option List">((4, 4), [0.5, 0.25], 3, 8, &lt;NoteRangePerHand.TWO_NOTES: 3&gt;, &lt;NoteRangePerHand.ONE_NOTE: 2&gt;, False, True, True, 100)</options></target_notes><trials><trial trial_no="1" timestamp="2023_06_19-11_47_17"><notes name="Played Notes">[{"pitch": 77, "velocity": 63, "note_on_time": 2.93, "note_off_time": 3.408}, {"pitch": 79, "velocity": 57, "note_on_time": 3.593, "note_off_time": 3.912}, {"pitch": 74, "velocity": 62, "note_on_time": 4.327, "note_off_time": 4.521}, {"pitch": 76, "velocity": 63, "note_on_time": 4.513, "note_off_time": 4.822}, {"pitch": 74, "velocity": 46, "note_on_time": 5.052, "note_off_time": 5.113}, {"pitch": 74, "velocity": 43, "note_on_time": 5.233, "note_off_time": 5.408}, {"pitch": 72, "velocity": 62, "note_on_time": 6.112, "note_off_time": 6.297}, {"pitch": 74, "velocity": 58, "note_on_time": 6.251, "note_off_time": 6.43}, {"pitch": 76, "velocity": 51, "note_on_time": 6.391, "note_off_time": 6.603}, {"pitch": 74, "velocity": 42, "note_on_time": 6.727, "note_off_time": 6.853}, {"pitch": 74, "velocity": 61, "note_on_time": 10.657, "note_off_time": 11.079}, {"pitch": 72, "velocity": 70, "note_on_time": 11.838, "note_off_time": 12.345}, {"pitch": 76, "velocity": 52, "note_on_time": 14.311, "note_off_time": 14.51}, {"pitch": 72, "velocity": 42, "note_on_time": 14.64, "note_off_time": 14.949}, {"pitch": 76, "velocity": 36, "note_on_time": 14.95, "note_off_time": 15.14}, {"pitch": 72, "velocity": 70, "note_on_time": 19.529, "note_off_time": 20.076}, {"pitch": 74, "velocity": 58, "note_on_time": 20.707, "note_off_time": 20.965}, {"pitch": 72, "velocity": 30, "note_on_time": 21.06, "note_off_time": 21.298}, {"pitch": 74, "velocity": 32, "note_on_time": 21.407, "note_off_time": 21.744}, {"pitch": 77, "velocity": 67, "note_on_time": 27.131, "note_off_time": 27.739}, {"pitch": 79, "velocity": 55, "note_on_time": 28.268, "note_off_time": 28.644}, {"pitch": 79, "velocity": 58, "note_on_time": 28.977, "note_off_time": 29.153}, {"pitch": 79, "velocity": 61, "note_on_time": 29.241, "note_off_time": 29.306}, {"pitch": 79, "velocity": 38, "note_on_time": 29.434, "note_off_time": 29.538}, {"pitch": 72, "velocity": 51, "note_on_time": 35.249, "note_off_time": 35.54}, {"pitch": 72, "velocity": 49, "note_on_time": 35.691, "note_off_time": 36.341}, {"pitch": 72, "velocity": 52, "note_on_time": 43.452, "note_off_time": 43.912}, {"pitch": 74, "velocity": 56, "note_on_time": 44.112, "note_off_time": 44.478}, {"pitch": 74, "velocity": 58, "note_on_time": 45.586, "note_off_time": 46.193}, {"pitch": 74, "velocity": 70, "note_on_time": 52.012, "note_off_time": 52.451}, {"pitch": 72, "velocity": 60, "note_on_time": 52.503, "note_off_time": 52.773}, {"pitch": 72, "velocity": 53, "note_on_time": 52.993, "note_off_time": 53.309}, {"pitch": 76, "velocity": 57, "note_on_time": 53.457, "note_off_time": 53.782}, {"pitch": 72, "velocity": 40, "note_on_time": 54.691, "note_off_time": 54.949}, {"pitch": 74, "velocity": 59, "note_on_time": 60.458, "note_off_time": 60.836}, {"pitch": 76, "velocity": 72, "note_on_time": 61.442, "note_off_time": 61.951}, {"pitch": 76, "velocity": 56, "note_on_time": 62.223, "note_off_time": 62.468}, {"pitch": 77, "velocity": 53, "note_on_time": 68.255, "note_off_time": 69.143}, {"pitch": 77, "velocity": 62, "note_on_time": 69.381, "note_off_time": 69.571}, {"pitch": 77, "velocity": 55, "note_on_time": 69.691, "note_off_time": 69.851}, {"pitch": 76, "velocity": 56, "note_on_time": 76.431, "note_off_time": 77.502}, {"pitch": 72, "velocity": 68, "note_on_time": 85.521, "note_off_time": 86.002}, {"pitch": 76, "velocity": 63, "note_on_time": 92.36, "note_off_time": 94.235}, {"pitch": 77, "velocity": 66, "note_on_time": 100.353, "note_off_time": 101.652}, {"pitch": 79, "velocity": 72, "note_on_time": 107.673, "note_off_time": 107.994}, {"pitch": 79, "velocity": 65, "note_on_time": 108.236, "note_off_time": 109.176}, {"pitch": 72, "velocity": 66, "note_on_time": 116.481, "note_off_time": 117.673}, {"pitch": 76, "velocity": 65, "note_on_time": 124.827, "note_off_time": 125.223}, {"pitch": 77, "velocity": 62, "note_on_time": 125.366, "note_off_time": 125.652}, {"pitch": 77, "velocity": 65, "note_on_time": 125.892, "note_off_time": 126.278}, {"pitch": 77, "velocity": 55, "note_on_time": 127.307, "note_off_time": 127.784}, {"pitch": 77, "velocity": 65, "note_on_time": 132.996, "note_off_time": 133.372}, {"pitch": 76, "velocity": 57, "note_on_time": 133.518, "note_off_time": 133.721}, {"pitch": 76, "velocity": 61, "note_on_time": 134.398, "note_off_time": 134.443}, {"pitch": 76, "velocity": 50, "note_on_time": 134.535, "note_off_time": 134.604}, {"pitch": 76, "velocity": 48, "note_on_time": 134.707, "note_off_time": 134.786}, {"pitch": 77, "velocity": 73, "note_on_time": 140.264, "note_off_time": 140.824}, {"pitch": 79, "velocity": 64, "note_on_time": 140.952, "note_off_time": 141.354}, {"pitch": 79, "velocity": 56, "note_on_time": 141.495, "note_off_time": 141.852}, {"pitch": 79, "velocity": 52, "note_on_time": 141.937, "note_off_time": 142.102}, {"pitch": 72, "velocity": 31, "note_on_time": 142.689, "note_off_time": 142.959}, {"pitch": 79, "velocity": 9, "note_on_time": 142.833, "note_off_time": 143.064}, {"pitch": 79, "velocity": 38, "note_on_time": 143.237, "note_off_time": 143.304}, {"pitch": 79, "velocity": 47, "note_on_time": 143.379, "note_off_time": 144.74}, {"pitch": 74, "velocity": 64, "note_on_time": 149.106, "note_off_time": 149.459}, {"pitch": 76, "velocity": 49, "note_on_time": 149.541, "note_off_time": 149.747}, {"pitch": 76, "velocity": 36, "note_on_time": 149.971, "note_off_time": 150.119}, {"pitch": 72, "velocity": 53, "note_on_time": 150.225, "note_off_time": 150.472}, {"pitch": 72, "velocity": 46, "note_on_time": 151.048, "note_off_time": 151.294}, {"pitch": 74, "velocity": 61, "note_on_time": 151.237, "note_off_time": 151.365}, {"pitch": 76, "velocity": 48, "note_on_time": 151.354, "note_off_time": 151.59}, {"pitch": 77, "velocity": 59, "note_on_time": 151.542, "note_off_time": 151.785}, {"pitch": 76, "velocity": 57, "note_on_time": 151.982, "note_off_time": 152.067}, {"pitch": 77, "velocity": 55, "note_on_time": 152.222, "note_off_time": 152.341}, {"pitch": 77, "velocity": 27, "note_on_time": 152.479, "note_off_time": 152.822}, {"pitch": 76, "velocity": 47, "note_on_time": 152.87, "note_off_time": 153.019}, {"pitch": 77, "velocity": 28, "note_on_time": 153.06, "note_off_time": 153.213}, {"pitch": 77, "velocity": 67, "note_on_time": 157.693, "note_off_time": 159.009}]</notes><guidance name="Guidance Mode">None</guidance><error name="Error value">99</error></trial></trials></MIDI>