<MIDI midiNo="2023_06_08-13_42_00"><target_notes><notes name="Note List">[{"pitch": 60, "velocity": 40, "note_on_time": 0.009, "note_off_time": 1.025}, {"pitch": 64, "velocity": 40, "note_on_time": 0.01, "note_off_time": 1.026}, {"pitch": 67, "velocity": 40, "note_on_time": 0.01, "note_off_time": 1.027}, {"pitch": 48, "velocity": 40, "note_on_time": 0.01, "note_off_time": 1.027}, {"pitch": 52, "velocity": 40, "note_on_time": 1.027, "note_off_time": 2.031}, {"pitch": 55, "velocity": 40, "note_on_time": 1.027, "note_off_time": 2.031}, {"pitch": 74, "velocity": 40, "note_on_time": 2.031, "note_off_time": 3.042}, {"pitch": 48, "velocity": 40, "note_on_time": 2.031, "note_off_time": 3.042}, {"pitch": 52, "velocity": 40, "note_on_time": 3.042, "note_off_time": 4.044}, {"pitch": 55, "velocity": 40, "note_on_time": 3.042, "note_off_time": 4.044}, {"pitch": 48, "velocity": 40, "note_on_time": 4.044, "note_off_time": 5.051}, {"pitch": 52, "velocity": 40, "note_on_time": 5.051, "note_off_time": 6.064}, {"pitch": 55, "velocity": 40, "note_on_time": 5.051, "note_off_time": 6.064}, {"pitch": 48, "velocity": 40, "note_on_time": 6.064, "note_off_time": 7.075}, {"pitch": 52, "velocity": 40, "note_on_time": 7.075, "note_off_time": 8.085}, {"pitch": 55, "velocity": 40, "note_on_time": 7.075, "note_off_time": 8.085}, {"pitch": 60, "velocity": 40, "note_on_time": 8.084, "note_off_time": 9.099}, {"pitch": 64, "velocity": 40, "note_on_time": 8.085, "note_off_time": 9.1}, {"pitch": 67, "velocity": 40, "note_on_time": 8.085, "note_off_time": 9.101}, {"pitch": 48, "velocity": 40, "note_on_time": 8.085, "note_off_time": 9.101}, {"pitch": 52, "velocity": 40, "note_on_time": 9.101, "note_off_time": 10.11}, {"pitch": 55, "velocity": 40, "note_on_time": 9.101, "note_off_time": 10.11}, {"pitch": 72, "velocity": 40, "note_on_time": 10.109, "note_off_time": 11.126}, {"pitch": 48, "velocity": 40, "note_on_time": 10.11, "note_off_time": 11.126}, {"pitch": 52, "velocity": 40, "note_on_time": 11.126, "note_off_time": 12.134}, {"pitch": 55, "velocity": 40, "note_on_time": 11.126, "note_off_time": 12.134}, {"pitch": 48, "velocity": 40, "note_on_time": 12.134, "note_off_time": 13.143}, {"pitch": 52, "velocity": 40, "note_on_time": 13.143, "note_off_time": 14.156}, {"pitch": 55, "velocity": 40, "note_on_time": 13.143, "note_off_time": 14.156}, {"pitch": 48, "velocity": 40, "note_on_time": 14.156, "note_off_time": 15.167}, {"pitch": 52, "velocity": 40, "note_on_time": 15.167, "note_off_time": 16.183}, {"pitch": 55, "velocity": 40, "note_on_time": 15.167, "note_off_time": 16.183}, {"pitch": 60, "velocity": 40, "note_on_time": 16.182, "note_off_time": 17.199}, {"pitch": 64, "velocity": 40, "note_on_time": 16.182, "note_off_time": 17.2}, {"pitch": 67, "velocity": 40, "note_on_time": 16.183, "note_off_time": 17.2}, {"pitch": 48, "velocity": 40, "note_on_time": 16.183, "note_off_time": 17.2}, {"pitch": 52, "velocity": 40, "note_on_time": 17.2, "note_off_time": 18.209}, {"pitch": 55, "velocity": 40, "note_on_time": 17.2, "note_off_time": 18.21}, {"pitch": 77, "velocity": 40, "note_on_time": 18.209, "note_off_time": 19.228}, {"pitch": 48, "velocity": 40, "note_on_time": 18.21, "note_off_time": 19.228}, {"pitch": 52, "velocity": 40, "note_on_time": 19.228, "note_off_time": 20.24}, {"pitch": 55, "velocity": 40, "note_on_time": 19.228, "note_off_time": 20.24}, {"pitch": 48, "velocity": 40, "note_on_time": 20.24, "note_off_time": 21.252}, {"pitch": 52, "velocity": 40, "note_on_time": 21.252, "note_off_time": 22.254}, {"pitch": 55, "velocity": 40, "note_on_time": 21.252, "note_off_time": 22.254}, {"pitch": 48, "velocity": 40, "note_on_time": 22.254, "note_off_time": 23.263}, {"pitch": 52, "velocity": 40, "note_on_time": 23.263, "note_off_time": 24.273}, {"pitch": 55, "velocity": 40, "note_on_time": 23.263, "note_off_time": 24.273}, {"pitch": 60, "velocity": 40, "note_on_time": 24.271, "note_off_time": 25.289}, {"pitch": 64, "velocity": 40, "note_on_time": 24.272, "note_off_time": 25.289}, {"pitch": 67, "velocity": 40, "note_on_time": 24.272, "note_off_time": 25.289}, {"pitch": 48, "velocity": 40, "note_on_time": 24.273, "note_off_time": 25.289}, {"pitch": 52, "velocity": 40, "note_on_time": 25.29, "note_off_time": 26.295}, {"pitch": 55, "velocity": 40, "note_on_time": 25.29, "note_off_time": 26.295}, {"pitch": 76, "velocity": 40, "note_on_time": 26.295, "note_off_time": 27.3}, {"pitch": 48, "velocity": 40, "note_on_time": 26.295, "note_off_time": 27.3}, {"pitch": 52, "velocity": 40, "note_on_time": 27.3, "note_off_time": 28.314}, {"pitch": 55, "velocity": 40, "note_on_time": 27.3, "note_off_time": 28.314}, {"pitch": 48, "velocity": 40, "note_on_time": 28.314, "note_off_time": 29.328}, {"pitch": 52, "velocity": 40, "note_on_time": 29.328, "note_off_time": 30.335}, {"pitch": 55, "velocity": 40, "note_on_time": 29.328, "note_off_time": 30.335}, {"pitch": 48, "velocity": 40, "note_on_time": 30.335, "note_off_time": 31.349}, {"pitch": 52, "velocity": 40, "note_on_time": 31.349, "note_off_time": 32.363}, {"pitch": 55, "velocity": 40, "note_on_time": 31.349, "note_off_time": 32.363}, {"pitch": 60, "velocity": 40, "note_on_time": 32.361, "note_off_time": 33.372}, {"pitch": 64, "velocity": 40, "note_on_time": 32.362, "note_off_time": 33.373}, {"pitch": 67, "velocity": 40, "note_on_time": 32.362, "note_off_time": 33.373}, {"pitch": 48, "velocity": 40, "note_on_time": 32.363, "note_off_time": 33.374}, {"pitch": 52, "velocity": 40, "note_on_time": 33.374, "note_off_time": 34.384}, {"pitch": 55, "velocity": 40, "note_on_time": 33.374, "note_off_time": 34.385}, {"pitch": 79, "velocity": 40, "note_on_time": 34.384, "note_off_time": 35.394}, {"pitch": 48, "velocity": 40, "note_on_time": 34.385, "note_off_time": 35.394}, {"pitch": 52, "velocity": 40, "note_on_time": 35.394, "note_off_time": 36.406}, {"pitch": 55, "velocity": 40, "note_on_time": 35.395, "note_off_time": 36.406}, {"pitch": 48, "velocity": 40, "note_on_time": 36.406, "note_off_time": 37.421}, {"pitch": 52, "velocity": 40, "note_on_time": 37.421, "note_off_time": 38.43}, {"pitch": 55, "velocity": 40, "note_on_time": 37.421, "note_off_time": 38.43}, {"pitch": 48, "velocity": 40, "note_on_time": 38.43, "note_off_time": 39.441}, {"pitch": 52, "velocity": 40, "note_on_time": 39.441, "note_off_time": 40.454}, {"pitch": 55, "velocity": 40, "note_on_time": 39.441, "note_off_time": 40.454}, {"pitch": 60, "velocity": 40, "note_on_time": 40.452, "note_off_time": 41.461}, {"pitch": 64, "velocity": 40, "note_on_time": 40.453, "note_off_time": 41.462}, {"pitch": 67, "velocity": 40, "note_on_time": 40.454, "note_off_time": 41.462}, {"pitch": 76, "velocity": 40, "note_on_time": 42.477, "note_off_time": 43.492}, {"pitch": 60, "velocity": 40, "note_on_time": 48.501, "note_off_time": 49.506}, {"pitch": 64, "velocity": 40, "note_on_time": 48.502, "note_off_time": 49.507}, {"pitch": 67, "velocity": 40, "note_on_time": 48.503, "note_off_time": 49.507}, {"pitch": 77, "velocity": 40, "note_on_time": 50.513, "note_off_time": 51.52}, {"pitch": 60, "velocity": 40, "note_on_time": 56.533, "note_off_time": 57.541}, {"pitch": 64, "velocity": 40, "note_on_time": 56.534, "note_off_time": 57.541}, {"pitch": 67, "velocity": 40, "note_on_time": 56.534, "note_off_time": 57.542}, {"pitch": 72, "velocity": 40, "note_on_time": 58.552, "note_off_time": 59.559}, {"pitch": 60, "velocity": 40, "note_on_time": 64.562, "note_off_time": 65.571}, {"pitch": 64, "velocity": 40, "note_on_time": 64.563, "note_off_time": 65.571}, {"pitch": 67, "velocity": 40, "note_on_time": 64.564, "note_off_time": 65.572}, {"pitch": 79, "velocity": 40, "note_on_time": 66.578, "note_off_time": 67.594}, {"pitch": 60, "velocity": 40, "note_on_time": 72.597, "note_off_time": 73.603}, {"pitch": 64, "velocity": 40, "note_on_time": 72.598, "note_off_time": 73.604}, {"pitch": 67, "velocity": 40, "note_on_time": 72.598, "note_off_time": 73.604}, {"pitch": 77, "velocity": 40, "note_on_time": 74.614, "note_off_time": 75.625}, {"pitch": 60, "velocity": 40, "note_on_time": 80.628, "note_off_time": 81.641}, {"pitch": 64, "velocity": 40, "note_on_time": 80.629, "note_off_time": 81.642}, {"pitch": 67, "velocity": 40, "note_on_time": 80.63, "note_off_time": 81.643}, {"pitch": 76, "velocity": 40, "note_on_time": 82.654, "note_off_time": 83.668}, {"pitch": 60, "velocity": 40, "note_on_time": 88.676, "note_off_time": 89.682}, {"pitch": 64, "velocity": 40, "note_on_time": 88.676, "note_off_time": 89.683}, {"pitch": 67, "velocity": 40, "note_on_time": 88.677, "note_off_time": 89.683}, {"pitch": 74, "velocity": 40, "note_on_time": 90.695, "note_off_time": 91.707}, {"pitch": 60, "velocity": 40, "note_on_time": 96.714, "note_off_time": 97.722}, {"pitch": 64, "velocity": 40, "note_on_time": 96.715, "note_off_time": 97.723}, {"pitch": 67, "velocity": 40, "note_on_time": 96.715, "note_off_time": 97.724}, {"pitch": 72, "velocity": 40, "note_on_time": 98.733, "note_off_time": 99.746}, {"pitch": 60, "velocity": 40, "note_on_time": 104.75, "note_off_time": 105.763}, {"pitch": 64, "velocity": 40, "note_on_time": 104.751, "note_off_time": 105.764}, {"pitch": 67, "velocity": 40, "note_on_time": 104.751, "note_off_time": 105.764}, {"pitch": 79, "velocity": 40, "note_on_time": 106.772, "note_off_time": 107.787}, {"pitch": 60, "velocity": 40, "note_on_time": 112.802, "note_off_time": 113.817}, {"pitch": 64, "velocity": 40, "note_on_time": 112.803, "note_off_time": 113.818}, {"pitch": 67, "velocity": 40, "note_on_time": 112.803, "note_off_time": 113.819}, {"pitch": 76, "velocity": 40, "note_on_time": 114.826, "note_off_time": 115.836}, {"pitch": 60, "velocity": 40, "note_on_time": 120.849, "note_off_time": 121.86}, {"pitch": 64, "velocity": 40, "note_on_time": 120.849, "note_off_time": 121.861}, {"pitch": 67, "velocity": 40, "note_on_time": 120.85, "note_off_time": 121.862}, {"pitch": 74, "velocity": 40, "note_on_time": 122.873, "note_off_time": 123.882}, {"pitch": 60, "velocity": 40, "note_on_time": 128.885, "note_off_time": 129.895}, {"pitch": 64, "velocity": 40, "note_on_time": 128.886, "note_off_time": 129.896}, {"pitch": 67, "velocity": 40, "note_on_time": 128.887, "note_off_time": 129.896}, {"pitch": 72, "velocity": 40, "note_on_time": 130.902, "note_off_time": 131.914}, {"pitch": 60, "velocity": 40, "note_on_time": 136.93, "note_off_time": 137.936}, {"pitch": 64, "velocity": 40, "note_on_time": 136.931, "note_off_time": 137.938}, {"pitch": 67, "velocity": 40, "note_on_time": 136.931, "note_off_time": 137.938}, {"pitch": 77, "velocity": 40, "note_on_time": 138.941, "note_off_time": 139.947}, {"pitch": 60, "velocity": 40, "note_on_time": 144.949, "note_off_time": 145.966}, {"pitch": 64, "velocity": 40, "note_on_time": 144.951, "note_off_time": 145.967}, {"pitch": 67, "velocity": 40, "note_on_time": 144.951, "note_off_time": 145.968}, {"pitch": 74, "velocity": 40, "note_on_time": 146.969, "note_off_time": 147.973}, {"pitch": 60, "velocity": 40, "note_on_time": 152.976, "note_off_time": 153.983}, {"pitch": 64, "velocity": 40, "note_on_time": 152.977, "note_off_time": 153.984}, {"pitch": 67, "velocity": 40, "note_on_time": 152.977, "note_off_time": 153.985}, {"pitch": 79, "velocity": 40, "note_on_time": 154.992, "note_off_time": 156.006}, {"pitch": 60, "velocity": 40, "note_on_time": 161.014, "note_off_time": 162.028}, {"pitch": 64, "velocity": 40, "note_on_time": 161.015, "note_off_time": 162.029}, {"pitch": 67, "velocity": 40, "note_on_time": 161.015, "note_off_time": 162.029}, {"pitch": 74, "velocity": 40, "note_on_time": 163.041, "note_off_time": 164.045}]</notes><options name="Option List">((4, 4), [0.5, 0.25], 3, 8, &lt;NoteRangePerHand.TWO_NOTES: 3&gt;, &lt;NoteRangePerHand.ONE_NOTE: 2&gt;, False, True, True, 100)</options></target_notes><trials><trial trial_no="1" timestamp="2023_06_08-13_39_16"><notes name="Played Notes">[{"pitch": 72, "velocity": 23, "note_on_time": 3.794, "note_off_time": 4.1}, {"pitch": 74, "velocity": 50, "note_on_time": 4.974, "note_off_time": 5.602}, {"pitch": 72, "velocity": 41, "note_on_time": 11.538, "note_off_time": 12.449}, {"pitch": 74, "velocity": 56, "note_on_time": 19.774, "note_off_time": 20.269}, {"pitch": 77, "velocity": 64, "note_on_time": 20.736, "note_off_time": 21.53}, {"pitch": 72, "velocity": 38, "note_on_time": 27.848, "note_off_time": 28.294}, {"pitch": 74, "velocity": 61, "note_on_time": 28.631, "note_off_time": 29.301}, {"pitch": 76, "velocity": 49, "note_on_time": 29.747, "note_off_time": 30.846}, {"pitch": 77, "velocity": 54, "note_on_time": 36.132, "note_off_time": 36.565}, {"pitch": 76, "velocity": 62, "note_on_time": 36.88, "note_off_time": 37.393}, {"pitch": 74, "velocity": 68, "note_on_time": 37.714, "note_off_time": 38.184}, {"pitch": 79, "velocity": 63, "note_on_time": 38.902, "note_off_time": 39.793}, {"pitch": 72, "velocity": 49, "note_on_time": 43.718, "note_off_time": 44.16}, {"pitch": 74, "velocity": 61, "note_on_time": 44.496, "note_off_time": 45.375}, {"pitch": 76, "velocity": 58, "note_on_time": 45.778, "note_off_time": 46.652}, {"pitch": 76, "velocity": 38, "note_on_time": 52.192, "note_off_time": 53.306}, {"pitch": 77, "velocity": 46, "note_on_time": 60.364, "note_off_time": 60.774}, {"pitch": 74, "velocity": 59, "note_on_time": 61.163, "note_off_time": 61.911}, {"pitch": 72, "velocity": 56, "note_on_time": 62.272, "note_off_time": 63.213}, {"pitch": 79, "velocity": 45, "note_on_time": 68.079, "note_off_time": 69.097}, {"pitch": 72, "velocity": 42, "note_on_time": 76.153, "note_off_time": 76.568}, {"pitch": 74, "velocity": 58, "note_on_time": 76.892, "note_off_time": 77.668}, {"pitch": 76, "velocity": 56, "note_on_time": 78.096, "note_off_time": 78.948}, {"pitch": 72, "velocity": 49, "note_on_time": 84.681, "note_off_time": 85.034}, {"pitch": 74, "velocity": 56, "note_on_time": 85.368, "note_off_time": 86.18}, {"pitch": 76, "velocity": 46, "note_on_time": 86.785, "note_off_time": 87.585}, {"pitch": 76, "velocity": 49, "note_on_time": 92.2, "note_off_time": 92.671}, {"pitch": 74, "velocity": 60, "note_on_time": 93.03, "note_off_time": 93.842}, {"pitch": 79, "velocity": 57, "note_on_time": 100.81, "note_off_time": 101.284}, {"pitch": 77, "velocity": 26, "note_on_time": 101.687, "note_off_time": 102.472}, {"pitch": 76, "velocity": 58, "note_on_time": 102.911, "note_off_time": 103.474}, {"pitch": 74, "velocity": 60, "note_on_time": 103.675, "note_off_time": 104.138}, {"pitch": 79, "velocity": 66, "note_on_time": 108.963, "note_off_time": 109.737}, {"pitch": 72, "velocity": 62, "note_on_time": 116.204, "note_off_time": 116.621}, {"pitch": 74, "velocity": 62, "note_on_time": 117.072, "note_off_time": 117.918}, {"pitch": 76, "velocity": 45, "note_on_time": 118.284, "note_off_time": 119.058}, {"pitch": 72, "velocity": 40, "note_on_time": 124.438, "note_off_time": 125.189}, {"pitch": 74, "velocity": 56, "note_on_time": 125.703, "note_off_time": 126.788}, {"pitch": 72, "velocity": 49, "note_on_time": 132.49, "note_off_time": 133.648}, {"pitch": 79, "velocity": 42, "note_on_time": 140.272, "note_off_time": 141.008}, {"pitch": 77, "velocity": 57, "note_on_time": 141.56, "note_off_time": 142.557}, {"pitch": 72, "velocity": 40, "note_on_time": 148.631, "note_off_time": 149.509}, {"pitch": 74, "velocity": 55, "note_on_time": 149.819, "note_off_time": 150.889}, {"pitch": 79, "velocity": 46, "note_on_time": 156.439, "note_off_time": 157.498}]</notes><guidance name="Guidance Mode">None</guidance><error name="Error value">99</error></trial></trials></MIDI>