<MIDI midiNo="2023_06_06-10_52_36"><target_notes><notes name="Note List">[{"pitch": 60, "velocity": 40, "note_on_time": 0.009, "note_off_time": 1.013}, {"pitch": 64, "velocity": 40, "note_on_time": 0.009, "note_off_time": 1.013}, {"pitch": 67, "velocity": 40, "note_on_time": 0.01, "note_off_time": 1.014}, {"pitch": 48, "velocity": 40, "note_on_time": 0.01, "note_off_time": 1.014}, {"pitch": 52, "velocity": 40, "note_on_time": 1.014, "note_off_time": 2.024}, {"pitch": 55, "velocity": 40, "note_on_time": 1.014, "note_off_time": 2.024}, {"pitch": 76, "velocity": 40, "note_on_time": 2.024, "note_off_time": 3.027}, {"pitch": 48, "velocity": 40, "note_on_time": 2.024, "note_off_time": 3.027}, {"pitch": 52, "velocity": 40, "note_on_time": 3.027, "note_off_time": 4.037}, {"pitch": 55, "velocity": 40, "note_on_time": 3.027, "note_off_time": 4.037}, {"pitch": 48, "velocity": 40, "note_on_time": 4.037, "note_off_time": 5.04}, {"pitch": 52, "velocity": 40, "note_on_time": 5.04, "note_off_time": 6.054}, {"pitch": 55, "velocity": 40, "note_on_time": 5.04, "note_off_time": 6.054}, {"pitch": 48, "velocity": 40, "note_on_time": 6.054, "note_off_time": 7.057}, {"pitch": 52, "velocity": 40, "note_on_time": 7.057, "note_off_time": 8.068}, {"pitch": 55, "velocity": 40, "note_on_time": 7.057, "note_off_time": 8.068}, {"pitch": 60, "velocity": 40, "note_on_time": 8.066, "note_off_time": 9.083}, {"pitch": 64, "velocity": 40, "note_on_time": 8.067, "note_off_time": 9.084}, {"pitch": 67, "velocity": 40, "note_on_time": 8.067, "note_off_time": 9.084}, {"pitch": 48, "velocity": 40, "note_on_time": 8.068, "note_off_time": 9.084}, {"pitch": 52, "velocity": 40, "note_on_time": 9.084, "note_off_time": 10.095}, {"pitch": 55, "velocity": 40, "note_on_time": 9.084, "note_off_time": 10.095}, {"pitch": 72, "velocity": 40, "note_on_time": 10.095, "note_off_time": 11.108}, {"pitch": 48, "velocity": 40, "note_on_time": 10.095, "note_off_time": 11.108}, {"pitch": 52, "velocity": 40, "note_on_time": 11.108, "note_off_time": 12.116}, {"pitch": 55, "velocity": 40, "note_on_time": 11.108, "note_off_time": 12.116}, {"pitch": 48, "velocity": 40, "note_on_time": 12.116, "note_off_time": 13.127}, {"pitch": 52, "velocity": 40, "note_on_time": 13.127, "note_off_time": 14.14}, {"pitch": 55, "velocity": 40, "note_on_time": 13.127, "note_off_time": 14.14}, {"pitch": 48, "velocity": 40, "note_on_time": 14.14, "note_off_time": 15.155}, {"pitch": 52, "velocity": 40, "note_on_time": 15.155, "note_off_time": 16.17}, {"pitch": 55, "velocity": 40, "note_on_time": 15.155, "note_off_time": 16.17}, {"pitch": 60, "velocity": 40, "note_on_time": 16.168, "note_off_time": 17.181}, {"pitch": 64, "velocity": 40, "note_on_time": 16.169, "note_off_time": 17.182}, {"pitch": 67, "velocity": 40, "note_on_time": 16.17, "note_off_time": 17.183}, {"pitch": 48, "velocity": 40, "note_on_time": 16.17, "note_off_time": 17.183}, {"pitch": 52, "velocity": 40, "note_on_time": 17.183, "note_off_time": 18.191}, {"pitch": 55, "velocity": 40, "note_on_time": 17.183, "note_off_time": 18.191}, {"pitch": 74, "velocity": 40, "note_on_time": 18.191, "note_off_time": 19.201}, {"pitch": 48, "velocity": 40, "note_on_time": 18.191, "note_off_time": 19.201}, {"pitch": 52, "velocity": 40, "note_on_time": 19.203, "note_off_time": 20.205}, {"pitch": 55, "velocity": 40, "note_on_time": 19.203, "note_off_time": 20.205}, {"pitch": 48, "velocity": 40, "note_on_time": 20.205, "note_off_time": 21.217}, {"pitch": 52, "velocity": 40, "note_on_time": 21.217, "note_off_time": 22.231}, {"pitch": 55, "velocity": 40, "note_on_time": 21.217, "note_off_time": 22.231}, {"pitch": 48, "velocity": 40, "note_on_time": 22.231, "note_off_time": 23.246}, {"pitch": 52, "velocity": 40, "note_on_time": 23.246, "note_off_time": 24.261}, {"pitch": 55, "velocity": 40, "note_on_time": 23.246, "note_off_time": 24.261}, {"pitch": 60, "velocity": 40, "note_on_time": 24.26, "note_off_time": 25.272}, {"pitch": 64, "velocity": 40, "note_on_time": 24.26, "note_off_time": 25.273}, {"pitch": 67, "velocity": 40, "note_on_time": 24.261, "note_off_time": 25.273}, {"pitch": 48, "velocity": 40, "note_on_time": 24.261, "note_off_time": 25.274}, {"pitch": 52, "velocity": 40, "note_on_time": 25.274, "note_off_time": 26.287}, {"pitch": 55, "velocity": 40, "note_on_time": 25.274, "note_off_time": 26.288}, {"pitch": 79, "velocity": 40, "note_on_time": 26.287, "note_off_time": 27.298}, {"pitch": 48, "velocity": 40, "note_on_time": 26.288, "note_off_time": 27.299}, {"pitch": 52, "velocity": 40, "note_on_time": 27.299, "note_off_time": 28.309}, {"pitch": 55, "velocity": 40, "note_on_time": 27.299, "note_off_time": 28.309}, {"pitch": 48, "velocity": 40, "note_on_time": 28.309, "note_off_time": 29.319}, {"pitch": 52, "velocity": 40, "note_on_time": 29.319, "note_off_time": 30.334}, {"pitch": 55, "velocity": 40, "note_on_time": 29.319, "note_off_time": 30.334}, {"pitch": 48, "velocity": 40, "note_on_time": 30.334, "note_off_time": 31.346}, {"pitch": 52, "velocity": 40, "note_on_time": 31.346, "note_off_time": 32.361}, {"pitch": 55, "velocity": 40, "note_on_time": 31.346, "note_off_time": 32.361}, {"pitch": 60, "velocity": 40, "note_on_time": 32.359, "note_off_time": 33.375}, {"pitch": 64, "velocity": 40, "note_on_time": 32.36, "note_off_time": 33.376}, {"pitch": 67, "velocity": 40, "note_on_time": 32.36, "note_off_time": 33.376}, {"pitch": 48, "velocity": 40, "note_on_time": 32.361, "note_off_time": 33.376}, {"pitch": 52, "velocity": 40, "note_on_time": 33.376, "note_off_time": 34.39}, {"pitch": 55, "velocity": 40, "note_on_time": 33.376, "note_off_time": 34.39}, {"pitch": 72, "velocity": 40, "note_on_time": 34.389, "note_off_time": 35.404}, {"pitch": 48, "velocity": 40, "note_on_time": 34.39, "note_off_time": 35.404}, {"pitch": 52, "velocity": 40, "note_on_time": 35.404, "note_off_time": 36.412}, {"pitch": 55, "velocity": 40, "note_on_time": 35.404, "note_off_time": 36.412}, {"pitch": 48, "velocity": 40, "note_on_time": 36.412, "note_off_time": 37.426}, {"pitch": 52, "velocity": 40, "note_on_time": 37.426, "note_off_time": 38.438}, {"pitch": 55, "velocity": 40, "note_on_time": 37.426, "note_off_time": 38.438}, {"pitch": 48, "velocity": 40, "note_on_time": 38.438, "note_off_time": 39.45}, {"pitch": 52, "velocity": 40, "note_on_time": 39.45, "note_off_time": 40.477}, {"pitch": 55, "velocity": 40, "note_on_time": 39.45, "note_off_time": 40.477}, {"pitch": 60, "velocity": 40, "note_on_time": 40.459, "note_off_time": 41.488}, {"pitch": 64, "velocity": 40, "note_on_time": 40.466, "note_off_time": 41.489}, {"pitch": 67, "velocity": 40, "note_on_time": 40.477, "note_off_time": 41.49}, {"pitch": 74, "velocity": 40, "note_on_time": 42.498, "note_off_time": 43.511}, {"pitch": 60, "velocity": 40, "note_on_time": 48.524, "note_off_time": 49.536}, {"pitch": 64, "velocity": 40, "note_on_time": 48.524, "note_off_time": 49.537}, {"pitch": 67, "velocity": 40, "note_on_time": 48.525, "note_off_time": 49.537}, {"pitch": 77, "velocity": 40, "note_on_time": 50.55, "note_off_time": 51.563}, {"pitch": 60, "velocity": 40, "note_on_time": 56.571, "note_off_time": 57.578}, {"pitch": 64, "velocity": 40, "note_on_time": 56.571, "note_off_time": 57.579}, {"pitch": 67, "velocity": 40, "note_on_time": 56.571, "note_off_time": 57.579}, {"pitch": 76, "velocity": 40, "note_on_time": 58.587, "note_off_time": 59.588}, {"pitch": 60, "velocity": 40, "note_on_time": 64.622, "note_off_time": 65.639}, {"pitch": 64, "velocity": 40, "note_on_time": 64.623, "note_off_time": 65.639}, {"pitch": 67, "velocity": 40, "note_on_time": 64.623, "note_off_time": 65.64}, {"pitch": 77, "velocity": 40, "note_on_time": 66.654, "note_off_time": 67.663}, {"pitch": 60, "velocity": 40, "note_on_time": 72.669, "note_off_time": 73.68}, {"pitch": 64, "velocity": 40, "note_on_time": 72.67, "note_off_time": 73.681}, {"pitch": 67, "velocity": 40, "note_on_time": 72.67, "note_off_time": 73.682}, {"pitch": 72, "velocity": 40, "note_on_time": 74.692, "note_off_time": 75.702}, {"pitch": 60, "velocity": 40, "note_on_time": 80.716, "note_off_time": 81.725}, {"pitch": 64, "velocity": 40, "note_on_time": 80.717, "note_off_time": 81.726}, {"pitch": 67, "velocity": 40, "note_on_time": 80.717, "note_off_time": 81.727}, {"pitch": 74, "velocity": 40, "note_on_time": 82.74, "note_off_time": 83.753}, {"pitch": 60, "velocity": 40, "note_on_time": 88.755, "note_off_time": 89.758}, {"pitch": 64, "velocity": 40, "note_on_time": 88.756, "note_off_time": 89.759}, {"pitch": 67, "velocity": 40, "note_on_time": 88.756, "note_off_time": 89.76}, {"pitch": 77, "velocity": 40, "note_on_time": 90.773, "note_off_time": 91.785}, {"pitch": 60, "velocity": 40, "note_on_time": 96.794, "note_off_time": 97.81}, {"pitch": 64, "velocity": 40, "note_on_time": 96.795, "note_off_time": 97.811}, {"pitch": 67, "velocity": 40, "note_on_time": 96.795, "note_off_time": 97.811}, {"pitch": 74, "velocity": 40, "note_on_time": 98.815, "note_off_time": 99.817}, {"pitch": 60, "velocity": 40, "note_on_time": 104.818, "note_off_time": 105.833}, {"pitch": 64, "velocity": 40, "note_on_time": 104.819, "note_off_time": 105.833}, {"pitch": 67, "velocity": 40, "note_on_time": 104.82, "note_off_time": 105.834}, {"pitch": 77, "velocity": 40, "note_on_time": 106.836, "note_off_time": 107.849}, {"pitch": 60, "velocity": 40, "note_on_time": 112.863, "note_off_time": 113.878}, {"pitch": 64, "velocity": 40, "note_on_time": 112.863, "note_off_time": 113.879}, {"pitch": 67, "velocity": 40, "note_on_time": 112.864, "note_off_time": 113.88}, {"pitch": 76, "velocity": 40, "note_on_time": 114.88, "note_off_time": 115.895}, {"pitch": 60, "velocity": 40, "note_on_time": 120.901, "note_off_time": 121.926}, {"pitch": 64, "velocity": 40, "note_on_time": 120.901, "note_off_time": 121.927}, {"pitch": 67, "velocity": 40, "note_on_time": 120.901, "note_off_time": 121.928}, {"pitch": 79, "velocity": 40, "note_on_time": 122.932, "note_off_time": 123.944}, {"pitch": 60, "velocity": 40, "note_on_time": 128.953, "note_off_time": 129.964}, {"pitch": 64, "velocity": 40, "note_on_time": 128.954, "note_off_time": 129.965}, {"pitch": 67, "velocity": 40, "note_on_time": 128.954, "note_off_time": 129.966}, {"pitch": 72, "velocity": 40, "note_on_time": 130.972, "note_off_time": 131.974}, {"pitch": 60, "velocity": 40, "note_on_time": 136.983, "note_off_time": 137.996}, {"pitch": 64, "velocity": 40, "note_on_time": 136.983, "note_off_time": 137.997}, {"pitch": 67, "velocity": 40, "note_on_time": 136.984, "note_off_time": 138.001}, {"pitch": 79, "velocity": 40, "note_on_time": 139.008, "note_off_time": 140.017}, {"pitch": 60, "velocity": 40, "note_on_time": 145.028, "note_off_time": 146.043}, {"pitch": 64, "velocity": 40, "note_on_time": 145.028, "note_off_time": 146.044}, {"pitch": 67, "velocity": 40, "note_on_time": 145.03, "note_off_time": 146.045}, {"pitch": 76, "velocity": 40, "note_on_time": 147.053, "note_off_time": 148.066}, {"pitch": 60, "velocity": 40, "note_on_time": 153.079, "note_off_time": 154.084}, {"pitch": 64, "velocity": 40, "note_on_time": 153.079, "note_off_time": 154.084}, {"pitch": 67, "velocity": 40, "note_on_time": 153.079, "note_off_time": 154.084}, {"pitch": 79, "velocity": 40, "note_on_time": 155.093, "note_off_time": 156.102}, {"pitch": 60, "velocity": 40, "note_on_time": 161.105, "note_off_time": 162.118}, {"pitch": 64, "velocity": 40, "note_on_time": 161.106, "note_off_time": 162.119}, {"pitch": 67, "velocity": 40, "note_on_time": 161.106, "note_off_time": 162.119}, {"pitch": 76, "velocity": 40, "note_on_time": 163.131, "note_off_time": 164.141}]</notes><options name="Option List">((4, 4), [0.5, 0.25], 3, 8, &lt;NoteRangePerHand.TWO_NOTES: 3&gt;, &lt;NoteRangePerHand.ONE_NOTE: 2&gt;, False, True, True, 100)</options></target_notes><trials><trial trial_no="1" timestamp="2023_06_06-10_49_52"><notes name="Played Notes">[{"pitch": 76, "velocity": 40, "note_on_time": 3.779, "note_off_time": 4.717}, {"pitch": 77, "velocity": 21, "note_on_time": 11.688, "note_off_time": 12.038}, {"pitch": 77, "velocity": 69, "note_on_time": 12.199, "note_off_time": 12.622}, {"pitch": 74, "velocity": 60, "note_on_time": 15.228, "note_off_time": 16.248}, {"pitch": 74, "velocity": 15, "note_on_time": 19.296, "note_off_time": 20.484}, {"pitch": 79, "velocity": 39, "note_on_time": 27.5, "note_off_time": 28.452}, {"pitch": 74, "velocity": 74, "note_on_time": 36.031, "note_off_time": 36.823}, {"pitch": 72, "velocity": 21, "note_on_time": 36.872, "note_off_time": 38.007}, {"pitch": 72, "velocity": 67, "note_on_time": 44.939, "note_off_time": 45.62}, {"pitch": 74, "velocity": 63, "note_on_time": 45.861, "note_off_time": 46.803}, {"pitch": 76, "velocity": 19, "note_on_time": 51.509, "note_off_time": 52.095}, {"pitch": 77, "velocity": 54, "note_on_time": 52.184, "note_off_time": 53.599}, {"pitch": 77, "velocity": 28, "note_on_time": 60.168, "note_off_time": 60.64}, {"pitch": 79, "velocity": 33, "note_on_time": 61.054, "note_off_time": 61.457}, {"pitch": 76, "velocity": 42, "note_on_time": 61.673, "note_off_time": 63.671}, {"pitch": 77, "velocity": 29, "note_on_time": 68.181, "note_off_time": 69.521}, {"pitch": 74, "velocity": 30, "note_on_time": 76.176, "note_off_time": 76.65}, {"pitch": 72, "velocity": 43, "note_on_time": 76.824, "note_off_time": 77.84}, {"pitch": 72, "velocity": 42, "note_on_time": 84.088, "note_off_time": 84.704}, {"pitch": 74, "velocity": 48, "note_on_time": 84.914, "note_off_time": 86.293}, {"pitch": 76, "velocity": 9, "note_on_time": 91.976, "note_off_time": 92.369}, {"pitch": 77, "velocity": 50, "note_on_time": 92.478, "note_off_time": 93.1}, {"pitch": 74, "velocity": 66, "note_on_time": 100.135, "note_off_time": 100.866}, {"pitch": 74, "velocity": 44, "note_on_time": 106.637, "note_off_time": 107.694}, {"pitch": 76, "velocity": 51, "note_on_time": 116.294, "note_off_time": 118.228}, {"pitch": 76, "velocity": 60, "note_on_time": 125.259, "note_off_time": 125.522}, {"pitch": 77, "velocity": 57, "note_on_time": 125.61, "note_off_time": 125.959}, {"pitch": 79, "velocity": 44, "note_on_time": 126.074, "note_off_time": 127.13}, {"pitch": 77, "velocity": 37, "note_on_time": 132.355, "note_off_time": 132.745}, {"pitch": 76, "velocity": 67, "note_on_time": 132.871, "note_off_time": 133.259}, {"pitch": 74, "velocity": 56, "note_on_time": 133.253, "note_off_time": 135.51}, {"pitch": 81, "velocity": 53, "note_on_time": 140.13, "note_off_time": 140.509}, {"pitch": 79, "velocity": 38, "note_on_time": 140.717, "note_off_time": 141.105}, {"pitch": 79, "velocity": 66, "note_on_time": 141.394, "note_off_time": 142.149}, {"pitch": 76, "velocity": 56, "note_on_time": 148.585, "note_off_time": 150.089}, {"pitch": 79, "velocity": 1, "note_on_time": 156.527, "note_off_time": 157.223}]</notes><guidance name="Guidance Mode">None</guidance><error name="Error value">99</error></trial><trial trial_no="2" timestamp="2023_06_06-10_53_47"><notes name="Played Notes">[{"pitch": 74, "velocity": 55, "note_on_time": 7.323, "note_off_time": 8.128}, {"pitch": 76, "velocity": 30, "note_on_time": 7.913, "note_off_time": 8.296}, {"pitch": 76, "velocity": 60, "note_on_time": 8.477, "note_off_time": 8.857}, {"pitch": 77, "velocity": 68, "note_on_time": 9.176, "note_off_time": 9.543}, {"pitch": 72, "velocity": 65, "note_on_time": 9.814, "note_off_time": 10.281}, {"pitch": 74, "velocity": 72, "note_on_time": 10.4, "note_off_time": 10.784}, {"pitch": 76, "velocity": 68, "note_on_time": 10.987, "note_off_time": 11.306}, {"pitch": 72, "velocity": 79, "note_on_time": 11.528, "note_off_time": 11.881}, {"pitch": 74, "velocity": 67, "note_on_time": 12.147, "note_off_time": 12.407}, {"pitch": 76, "velocity": 80, "note_on_time": 12.71, "note_off_time": 13.043}, {"pitch": 77, "velocity": 63, "note_on_time": 13.328, "note_off_time": 13.606}, {"pitch": 79, "velocity": 75, "note_on_time": 13.894, "note_off_time": 14.19}, {"pitch": 79, "velocity": 68, "note_on_time": 14.471, "note_off_time": 14.865}, {"pitch": 76, "velocity": 68, "note_on_time": 15.162, "note_off_time": 15.294}, {"pitch": 77, "velocity": 55, "note_on_time": 15.162, "note_off_time": 15.384}, {"pitch": 77, "velocity": 57, "note_on_time": 16.064, "note_off_time": 16.357}, {"pitch": 76, "velocity": 65, "note_on_time": 16.522, "note_off_time": 16.747}, {"pitch": 74, "velocity": 70, "note_on_time": 16.966, "note_off_time": 17.187}, {"pitch": 72, "velocity": 78, "note_on_time": 17.436, "note_off_time": 17.777}, {"pitch": 72, "velocity": 54, "note_on_time": 17.985, "note_off_time": 18.376}, {"pitch": 74, "velocity": 67, "note_on_time": 18.522, "note_off_time": 18.757}, {"pitch": 72, "velocity": 67, "note_on_time": 18.946, "note_off_time": 19.338}, {"pitch": 74, "velocity": 62, "note_on_time": 19.489, "note_off_time": 19.865}, {"pitch": 76, "velocity": 63, "note_on_time": 20.067, "note_off_time": 20.369}, {"pitch": 77, "velocity": 63, "note_on_time": 20.629, "note_off_time": 20.981}, {"pitch": 79, "velocity": 58, "note_on_time": 21.197, "note_off_time": 21.466}, {"pitch": 79, "velocity": 60, "note_on_time": 21.745, "note_off_time": 22.171}, {"pitch": 77, "velocity": 34, "note_on_time": 22.378, "note_off_time": 22.602}, {"pitch": 77, "velocity": 84, "note_on_time": 22.805, "note_off_time": 23.061}, {"pitch": 76, "velocity": 72, "note_on_time": 23.237, "note_off_time": 23.545}, {"pitch": 74, "velocity": 69, "note_on_time": 23.748, "note_off_time": 23.994}, {"pitch": 72, "velocity": 69, "note_on_time": 24.282, "note_off_time": 24.636}, {"pitch": 72, "velocity": 55, "note_on_time": 24.853, "note_off_time": 25.169}, {"pitch": 72, "velocity": 64, "note_on_time": 25.409, "note_off_time": 25.969}, {"pitch": 74, "velocity": 62, "note_on_time": 25.961, "note_off_time": 26.312}, {"pitch": 76, "velocity": 56, "note_on_time": 26.459, "note_off_time": 26.791}, {"pitch": 77, "velocity": 61, "note_on_time": 26.979, "note_off_time": 27.232}, {"pitch": 77, "velocity": 49, "note_on_time": 27.552, "note_off_time": 27.821}, {"pitch": 79, "velocity": 41, "note_on_time": 28.076, "note_off_time": 28.307}, {"pitch": 79, "velocity": 40, "note_on_time": 28.545, "note_off_time": 28.826}, {"pitch": 79, "velocity": 64, "note_on_time": 29.068, "note_off_time": 29.371}, {"pitch": 79, "velocity": 64, "note_on_time": 29.53, "note_off_time": 29.8}, {"pitch": 77, "velocity": 64, "note_on_time": 30.03, "note_off_time": 30.264}, {"pitch": 76, "velocity": 50, "note_on_time": 30.545, "note_off_time": 30.777}, {"pitch": 74, "velocity": 59, "note_on_time": 30.997, "note_off_time": 31.2}, {"pitch": 76, "velocity": 62, "note_on_time": 31.434, "note_off_time": 31.642}, {"pitch": 77, "velocity": 68, "note_on_time": 31.885, "note_off_time": 32.102}, {"pitch": 74, "velocity": 1, "note_on_time": 32.51, "note_off_time": 32.699}, {"pitch": 74, "velocity": 66, "note_on_time": 32.856, "note_off_time": 33.084}, {"pitch": 72, "velocity": 52, "note_on_time": 33.294, "note_off_time": 33.526}, {"pitch": 74, "velocity": 67, "note_on_time": 33.774, "note_off_time": 34.013}, {"pitch": 76, "velocity": 30, "note_on_time": 33.918, "note_off_time": 34.029}, {"pitch": 77, "velocity": 72, "note_on_time": 34.265, "note_off_time": 34.54}, {"pitch": 79, "velocity": 57, "note_on_time": 34.912, "note_off_time": 35.183}, {"pitch": 79, "velocity": 64, "note_on_time": 35.364, "note_off_time": 35.659}, {"pitch": 77, "velocity": 46, "note_on_time": 35.891, "note_off_time": 36.127}, {"pitch": 76, "velocity": 65, "note_on_time": 36.303, "note_off_time": 36.537}, {"pitch": 74, "velocity": 34, "note_on_time": 36.788, "note_off_time": 37.069}, {"pitch": 72, "velocity": 70, "note_on_time": 37.264, "note_off_time": 37.523}, {"pitch": 72, "velocity": 72, "note_on_time": 37.698, "note_off_time": 38.022}, {"pitch": 74, "velocity": 70, "note_on_time": 38.262, "note_off_time": 38.52}, {"pitch": 76, "velocity": 64, "note_on_time": 38.742, "note_off_time": 38.996}, {"pitch": 77, "velocity": 56, "note_on_time": 39.228, "note_off_time": 39.51}, {"pitch": 79, "velocity": 59, "note_on_time": 39.711, "note_off_time": 39.942}, {"pitch": 79, "velocity": 53, "note_on_time": 40.191, "note_off_time": 40.577}, {"pitch": 77, "velocity": 8, "note_on_time": 40.669, "note_off_time": 40.937}, {"pitch": 76, "velocity": 51, "note_on_time": 41.167, "note_off_time": 41.409}, {"pitch": 74, "velocity": 63, "note_on_time": 41.614, "note_off_time": 41.831}, {"pitch": 72, "velocity": 69, "note_on_time": 42.067, "note_off_time": 42.282}, {"pitch": 72, "velocity": 48, "note_on_time": 42.518, "note_off_time": 42.734}, {"pitch": 72, "velocity": 67, "note_on_time": 42.92, "note_off_time": 43.178}, {"pitch": 72, "velocity": 63, "note_on_time": 43.358, "note_off_time": 43.621}, {"pitch": 72, "velocity": 59, "note_on_time": 43.814, "note_off_time": 44.036}, {"pitch": 72, "velocity": 60, "note_on_time": 44.255, "note_off_time": 44.452}, {"pitch": 76, "velocity": 65, "note_on_time": 44.696, "note_off_time": 44.868}, {"pitch": 71, "velocity": 46, "note_on_time": 45.157, "note_off_time": 45.322}, {"pitch": 72, "velocity": 46, "note_on_time": 45.155, "note_off_time": 45.399}, {"pitch": 77, "velocity": 73, "note_on_time": 45.619, "note_off_time": 45.811}, {"pitch": 76, "velocity": 57, "note_on_time": 46.104, "note_off_time": 46.274}, {"pitch": 74, "velocity": 37, "note_on_time": 46.096, "note_off_time": 46.358}, {"pitch": 74, "velocity": 69, "note_on_time": 47.056, "note_off_time": 47.246}, {"pitch": 76, "velocity": 70, "note_on_time": 47.526, "note_off_time": 47.693}, {"pitch": 77, "velocity": 75, "note_on_time": 47.916, "note_off_time": 48.105}, {"pitch": 72, "velocity": 80, "note_on_time": 48.796, "note_off_time": 48.97}, {"pitch": 74, "velocity": 37, "note_on_time": 49.234, "note_off_time": 49.324}, {"pitch": 74, "velocity": 55, "note_on_time": 49.698, "note_off_time": 49.879}, {"pitch": 76, "velocity": 72, "note_on_time": 50.073, "note_off_time": 50.247}, {"pitch": 72, "velocity": 67, "note_on_time": 50.452, "note_off_time": 50.95}, {"pitch": 74, "velocity": 66, "note_on_time": 50.795, "note_off_time": 50.968}, {"pitch": 76, "velocity": 73, "note_on_time": 51.168, "note_off_time": 51.388}, {"pitch": 72, "velocity": 60, "note_on_time": 51.516, "note_off_time": 51.758}, {"pitch": 74, "velocity": 54, "note_on_time": 51.887, "note_off_time": 52.041}, {"pitch": 77, "velocity": 69, "note_on_time": 52.211, "note_off_time": 52.41}, {"pitch": 79, "velocity": 68, "note_on_time": 52.739, "note_off_time": 53.003}, {"pitch": 79, "velocity": 77, "note_on_time": 53.179, "note_off_time": 53.442}, {"pitch": 76, "velocity": 70, "note_on_time": 53.715, "note_off_time": 53.919}, {"pitch": 77, "velocity": 60, "note_on_time": 54.139, "note_off_time": 54.323}, {"pitch": 76, "velocity": 72, "note_on_time": 54.775, "note_off_time": 54.98}, {"pitch": 74, "velocity": 55, "note_on_time": 55.363, "note_off_time": 55.594}, {"pitch": 72, "velocity": 72, "note_on_time": 55.755, "note_off_time": 55.994}, {"pitch": 74, "velocity": 63, "note_on_time": 56.203, "note_off_time": 56.397}, {"pitch": 76, "velocity": 60, "note_on_time": 56.611, "note_off_time": 56.852}, {"pitch": 77, "velocity": 64, "note_on_time": 57.041, "note_off_time": 57.257}, {"pitch": 79, "velocity": 50, "note_on_time": 57.49, "note_off_time": 57.722}, {"pitch": 72, "velocity": 73, "note_on_time": 57.987, "note_off_time": 58.323}, {"pitch": 74, "velocity": 77, "note_on_time": 58.554, "note_off_time": 58.803}, {"pitch": 76, "velocity": 62, "note_on_time": 59.006, "note_off_time": 59.273}, {"pitch": 72, "velocity": 73, "note_on_time": 59.615, "note_off_time": 59.853}, {"pitch": 74, "velocity": 70, "note_on_time": 60.046, "note_off_time": 60.315}, {"pitch": 76, "velocity": 59, "note_on_time": 60.591, "note_off_time": 60.77}, {"pitch": 77, "velocity": 66, "note_on_time": 60.959, "note_off_time": 61.203}, {"pitch": 77, "velocity": 65, "note_on_time": 61.433, "note_off_time": 61.67}, {"pitch": 77, "velocity": 57, "note_on_time": 61.914, "note_off_time": 62.146}, {"pitch": 79, "velocity": 75, "note_on_time": 62.388, "note_off_time": 62.669}, {"pitch": 79, "velocity": 45, "note_on_time": 62.916, "note_off_time": 63.141}, {"pitch": 79, "velocity": 62, "note_on_time": 63.328, "note_off_time": 63.615}, {"pitch": 77, "velocity": 70, "note_on_time": 63.825, "note_off_time": 63.991}, {"pitch": 76, "velocity": 70, "note_on_time": 64.241, "note_off_time": 64.446}, {"pitch": 76, "velocity": 38, "note_on_time": 64.711, "note_off_time": 64.934}, {"pitch": 72, "velocity": 63, "note_on_time": 65.418, "note_off_time": 65.664}, {"pitch": 74, "velocity": 57, "note_on_time": 65.885, "note_off_time": 66.116}, {"pitch": 76, "velocity": 47, "note_on_time": 66.339, "note_off_time": 66.562}, {"pitch": 76, "velocity": 17, "note_on_time": 66.858, "note_off_time": 66.97}, {"pitch": 77, "velocity": 46, "note_on_time": 66.771, "note_off_time": 67.031}, {"pitch": 79, "velocity": 71, "note_on_time": 67.2, "note_off_time": 67.519}, {"pitch": 79, "velocity": 50, "note_on_time": 67.642, "note_off_time": 67.873}, {"pitch": 77, "velocity": 60, "note_on_time": 68.08, "note_off_time": 68.327}, {"pitch": 76, "velocity": 64, "note_on_time": 68.474, "note_off_time": 68.721}, {"pitch": 74, "velocity": 57, "note_on_time": 68.988, "note_off_time": 69.172}, {"pitch": 74, "velocity": 57, "note_on_time": 69.384, "note_off_time": 69.647}, {"pitch": 76, "velocity": 50, "note_on_time": 69.755, "note_off_time": 70.028}, {"pitch": 77, "velocity": 61, "note_on_time": 70.173, "note_off_time": 70.388}, {"pitch": 77, "velocity": 48, "note_on_time": 70.56, "note_off_time": 70.822}, {"pitch": 79, "velocity": 35, "note_on_time": 70.978, "note_off_time": 71.204}, {"pitch": 72, "velocity": 73, "note_on_time": 71.417, "note_off_time": 71.61}, {"pitch": 74, "velocity": 69, "note_on_time": 71.807, "note_off_time": 72.023}, {"pitch": 72, "velocity": 65, "note_on_time": 72.282, "note_off_time": 72.526}, {"pitch": 74, "velocity": 64, "note_on_time": 72.692, "note_off_time": 72.906}, {"pitch": 77, "velocity": 60, "note_on_time": 73.096, "note_off_time": 73.343}, {"pitch": 72, "velocity": 66, "note_on_time": 73.508, "note_off_time": 73.949}, {"pitch": 74, "velocity": 54, "note_on_time": 73.94, "note_off_time": 74.091}, {"pitch": 76, "velocity": 54, "note_on_time": 74.307, "note_off_time": 74.501}, {"pitch": 79, "velocity": 52, "note_on_time": 74.718, "note_off_time": 74.926}, {"pitch": 77, "velocity": 49, "note_on_time": 75.106, "note_off_time": 75.302}, {"pitch": 76, "velocity": 64, "note_on_time": 75.535, "note_off_time": 75.873}, {"pitch": 74, "velocity": 44, "note_on_time": 75.879, "note_off_time": 76.11}, {"pitch": 72, "velocity": 46, "note_on_time": 76.256, "note_off_time": 76.47}, {"pitch": 72, "velocity": 39, "note_on_time": 76.734, "note_off_time": 76.978}, {"pitch": 74, "velocity": 43, "note_on_time": 77.237, "note_off_time": 77.449}, {"pitch": 76, "velocity": 45, "note_on_time": 77.728, "note_off_time": 77.953}, {"pitch": 77, "velocity": 51, "note_on_time": 78.119, "note_off_time": 78.358}, {"pitch": 79, "velocity": 62, "note_on_time": 78.585, "note_off_time": 78.79}, {"pitch": 79, "velocity": 60, "note_on_time": 78.99, "note_off_time": 79.205}, {"pitch": 79, "velocity": 57, "note_on_time": 79.405, "note_off_time": 79.604}, {"pitch": 77, "velocity": 59, "note_on_time": 79.809, "note_off_time": 80.011}, {"pitch": 76, "velocity": 39, "note_on_time": 80.288, "note_off_time": 80.47}, {"pitch": 74, "velocity": 48, "note_on_time": 80.666, "note_off_time": 80.871}, {"pitch": 72, "velocity": 38, "note_on_time": 81.096, "note_off_time": 81.296}, {"pitch": 72, "velocity": 58, "note_on_time": 81.524, "note_off_time": 81.738}, {"pitch": 74, "velocity": 41, "note_on_time": 81.949, "note_off_time": 82.099}, {"pitch": 76, "velocity": 57, "note_on_time": 82.328, "note_off_time": 82.564}, {"pitch": 77, "velocity": 55, "note_on_time": 82.72, "note_off_time": 82.93}, {"pitch": 79, "velocity": 42, "note_on_time": 83.221, "note_off_time": 83.457}, {"pitch": 79, "velocity": 52, "note_on_time": 83.673, "note_off_time": 83.982}, {"pitch": 77, "velocity": 57, "note_on_time": 84.133, "note_off_time": 84.366}, {"pitch": 76, "velocity": 38, "note_on_time": 84.585, "note_off_time": 84.853}, {"pitch": 74, "velocity": 51, "note_on_time": 85.023, "note_off_time": 85.284}, {"pitch": 72, "velocity": 58, "note_on_time": 85.401, "note_off_time": 85.641}, {"pitch": 72, "velocity": 54, "note_on_time": 85.856, "note_off_time": 86.057}, {"pitch": 72, "velocity": 61, "note_on_time": 86.271, "note_off_time": 86.474}, {"pitch": 72, "velocity": 51, "note_on_time": 86.657, "note_off_time": 86.893}, {"pitch": 72, "velocity": 45, "note_on_time": 87.015, "note_off_time": 87.266}, {"pitch": 79, "velocity": 65, "note_on_time": 87.452, "note_off_time": 87.687}, {"pitch": 72, "velocity": 57, "note_on_time": 87.806, "note_off_time": 88.022}, {"pitch": 72, "velocity": 56, "note_on_time": 88.208, "note_off_time": 88.367}, {"pitch": 77, "velocity": 59, "note_on_time": 88.571, "note_off_time": 88.785}, {"pitch": 72, "velocity": 49, "note_on_time": 88.881, "note_off_time": 89.109}, {"pitch": 72, "velocity": 54, "note_on_time": 89.281, "note_off_time": 89.508}, {"pitch": 76, "velocity": 55, "note_on_time": 89.629, "note_off_time": 89.867}, {"pitch": 72, "velocity": 63, "note_on_time": 90.018, "note_off_time": 90.249}, {"pitch": 72, "velocity": 65, "note_on_time": 90.413, "note_off_time": 90.568}, {"pitch": 72, "velocity": 59, "note_on_time": 90.767, "note_off_time": 90.93}, {"pitch": 74, "velocity": 70, "note_on_time": 91.084, "note_off_time": 91.29}, {"pitch": 72, "velocity": 53, "note_on_time": 91.425, "note_off_time": 91.609}, {"pitch": 76, "velocity": 43, "note_on_time": 91.835, "note_off_time": 92.127}, {"pitch": 72, "velocity": 53, "note_on_time": 92.275, "note_off_time": 92.437}, {"pitch": 77, "velocity": 51, "note_on_time": 92.667, "note_off_time": 92.726}, {"pitch": 79, "velocity": 53, "note_on_time": 92.643, "note_off_time": 92.896}, {"pitch": 79, "velocity": 75, "note_on_time": 93.083, "note_off_time": 93.273}, {"pitch": 79, "velocity": 68, "note_on_time": 93.468, "note_off_time": 93.687}, {"pitch": 79, "velocity": 73, "note_on_time": 94.257, "note_off_time": 94.462}, {"pitch": 77, "velocity": 51, "note_on_time": 94.746, "note_off_time": 95.007}, {"pitch": 76, "velocity": 38, "note_on_time": 95.109, "note_off_time": 95.322}, {"pitch": 74, "velocity": 62, "note_on_time": 95.443, "note_off_time": 95.666}, {"pitch": 72, "velocity": 52, "note_on_time": 95.703, "note_off_time": 95.922}, {"pitch": 72, "velocity": 44, "note_on_time": 96.116, "note_off_time": 96.24}, {"pitch": 79, "velocity": 56, "note_on_time": 96.593, "note_off_time": 96.815}, {"pitch": 72, "velocity": 51, "note_on_time": 96.925, "note_off_time": 97.132}, {"pitch": 79, "velocity": 47, "note_on_time": 97.286, "note_off_time": 97.524}, {"pitch": 72, "velocity": 58, "note_on_time": 97.655, "note_off_time": 97.835}, {"pitch": 79, "velocity": 71, "note_on_time": 97.96, "note_off_time": 98.188}, {"pitch": 76, "velocity": 68, "note_on_time": 98.374, "note_off_time": 98.663}, {"pitch": 72, "velocity": 49, "note_on_time": 98.72, "note_off_time": 98.966}, {"pitch": 79, "velocity": 47, "note_on_time": 99.065, "note_off_time": 99.284}, {"pitch": 72, "velocity": 47, "note_on_time": 99.342, "note_off_time": 99.662}, {"pitch": 79, "velocity": 46, "note_on_time": 99.693, "note_off_time": 99.924}, {"pitch": 72, "velocity": 23, "note_on_time": 100.134, "note_off_time": 100.363}, {"pitch": 79, "velocity": 39, "note_on_time": 100.464, "note_off_time": 100.669}, {"pitch": 76, "velocity": 67, "note_on_time": 100.794, "note_off_time": 101.045}, {"pitch": 72, "velocity": 52, "note_on_time": 101.052, "note_off_time": 101.39}, {"pitch": 77, "velocity": 23, "note_on_time": 101.708, "note_off_time": 101.768}, {"pitch": 79, "velocity": 59, "note_on_time": 101.365, "note_off_time": 101.785}, {"pitch": 76, "velocity": 65, "note_on_time": 101.741, "note_off_time": 102.066}, {"pitch": 72, "velocity": 60, "note_on_time": 102.468, "note_off_time": 102.773}, {"pitch": 74, "velocity": 52, "note_on_time": 102.723, "note_off_time": 102.963}, {"pitch": 76, "velocity": 44, "note_on_time": 103.022, "note_off_time": 103.387}, {"pitch": 77, "velocity": 52, "note_on_time": 103.246, "note_off_time": 103.592}, {"pitch": 79, "velocity": 65, "note_on_time": 103.557, "note_off_time": 103.713}, {"pitch": 79, "velocity": 51, "note_on_time": 104.053, "note_off_time": 104.352}, {"pitch": 77, "velocity": 26, "note_on_time": 104.326, "note_off_time": 104.558}, {"pitch": 76, "velocity": 9, "note_on_time": 104.611, "note_off_time": 104.942}, {"pitch": 74, "velocity": 56, "note_on_time": 104.831, "note_off_time": 105.135}, {"pitch": 72, "velocity": 56, "note_on_time": 105.101, "note_off_time": 105.264}, {"pitch": 72, "velocity": 47, "note_on_time": 105.51, "note_off_time": 105.701}, {"pitch": 74, "velocity": 64, "note_on_time": 105.706, "note_off_time": 105.953}, {"pitch": 76, "velocity": 39, "note_on_time": 105.911, "note_off_time": 106.142}, {"pitch": 77, "velocity": 1, "note_on_time": 106.18, "note_off_time": 106.527}, {"pitch": 79, "velocity": 50, "note_on_time": 106.397, "note_off_time": 106.618}, {"pitch": 79, "velocity": 51, "note_on_time": 106.838, "note_off_time": 107.021}, {"pitch": 79, "velocity": 53, "note_on_time": 107.212, "note_off_time": 107.577}, {"pitch": 72, "velocity": 64, "note_on_time": 107.673, "note_off_time": 107.868}, {"pitch": 72, "velocity": 59, "note_on_time": 108.058, "note_off_time": 108.269}, {"pitch": 72, "velocity": 62, "note_on_time": 108.46, "note_off_time": 108.645}, {"pitch": 74, "velocity": 35, "note_on_time": 108.96, "note_off_time": 109.029}, {"pitch": 76, "velocity": 39, "note_on_time": 108.946, "note_off_time": 109.082}, {"pitch": 76, "velocity": 64, "note_on_time": 109.302, "note_off_time": 109.456}, {"pitch": 76, "velocity": 62, "note_on_time": 109.686, "note_off_time": 109.828}, {"pitch": 74, "velocity": 66, "note_on_time": 110.015, "note_off_time": 110.157}, {"pitch": 77, "velocity": 69, "note_on_time": 110.369, "note_off_time": 110.534}, {"pitch": 74, "velocity": 49, "note_on_time": 110.789, "note_off_time": 110.966}, {"pitch": 72, "velocity": 45, "note_on_time": 110.785, "note_off_time": 111.033}, {"pitch": 72, "velocity": 54, "note_on_time": 111.248, "note_off_time": 111.434}, {"pitch": 72, "velocity": 66, "note_on_time": 111.676, "note_off_time": 111.91}, {"pitch": 72, "velocity": 65, "note_on_time": 112.106, "note_off_time": 112.341}, {"pitch": 74, "velocity": 59, "note_on_time": 112.517, "note_off_time": 112.741}, {"pitch": 74, "velocity": 56, "note_on_time": 112.975, "note_off_time": 113.154}, {"pitch": 74, "velocity": 56, "note_on_time": 113.425, "note_off_time": 113.611}, {"pitch": 76, "velocity": 56, "note_on_time": 113.793, "note_off_time": 114.006}, {"pitch": 76, "velocity": 52, "note_on_time": 114.225, "note_off_time": 114.437}, {"pitch": 76, "velocity": 58, "note_on_time": 114.615, "note_off_time": 114.805}, {"pitch": 77, "velocity": 53, "note_on_time": 115.001, "note_off_time": 115.185}, {"pitch": 77, "velocity": 40, "note_on_time": 115.449, "note_off_time": 115.657}, {"pitch": 77, "velocity": 42, "note_on_time": 115.819, "note_off_time": 116.006}, {"pitch": 77, "velocity": 52, "note_on_time": 116.265, "note_off_time": 116.465}, {"pitch": 79, "velocity": 46, "note_on_time": 116.264, "note_off_time": 116.472}, {"pitch": 77, "velocity": 44, "note_on_time": 116.641, "note_off_time": 116.84}, {"pitch": 77, "velocity": 52, "note_on_time": 116.997, "note_off_time": 117.176}, {"pitch": 71, "velocity": 72, "note_on_time": 117.343, "note_off_time": 117.569}, {"pitch": 72, "velocity": 67, "note_on_time": 117.682, "note_off_time": 117.861}, {"pitch": 71, "velocity": 64, "note_on_time": 118.293, "note_off_time": 118.488}, {"pitch": 74, "velocity": 72, "note_on_time": 118.663, "note_off_time": 118.836}, {"pitch": 71, "velocity": 58, "note_on_time": 118.979, "note_off_time": 119.205}, {"pitch": 76, "velocity": 23, "note_on_time": 119.443, "note_off_time": 119.683}, {"pitch": 76, "velocity": 84, "note_on_time": 119.847, "note_off_time": 120.051}, {"pitch": 77, "velocity": 73, "note_on_time": 120.305, "note_off_time": 120.47}, {"pitch": 72, "velocity": 23, "note_on_time": 120.775, "note_off_time": 120.861}, {"pitch": 71, "velocity": 72, "note_on_time": 121.178, "note_off_time": 121.363}, {"pitch": 72, "velocity": 69, "note_on_time": 121.537, "note_off_time": 121.732}, {"pitch": 74, "velocity": 59, "note_on_time": 121.945, "note_off_time": 122.143}, {"pitch": 71, "velocity": 58, "note_on_time": 122.359, "note_off_time": 122.574}, {"pitch": 77, "velocity": 70, "note_on_time": 123.249, "note_off_time": 123.467}, {"pitch": 76, "velocity": 72, "note_on_time": 123.62, "note_off_time": 123.824}, {"pitch": 74, "velocity": 54, "note_on_time": 123.99, "note_off_time": 124.192}, {"pitch": 72, "velocity": 55, "note_on_time": 124.348, "note_off_time": 124.564}, {"pitch": 71, "velocity": 57, "note_on_time": 124.756, "note_off_time": 124.975}, {"pitch": 71, "velocity": 50, "note_on_time": 125.182, "note_off_time": 125.369}, {"pitch": 71, "velocity": 62, "note_on_time": 125.647, "note_off_time": 125.832}, {"pitch": 71, "velocity": 59, "note_on_time": 126.041, "note_off_time": 126.266}, {"pitch": 72, "velocity": 61, "note_on_time": 126.414, "note_off_time": 126.639}, {"pitch": 71, "velocity": 28, "note_on_time": 126.813, "note_off_time": 126.957}, {"pitch": 74, "velocity": 39, "note_on_time": 127.59, "note_off_time": 127.646}, {"pitch": 76, "velocity": 44, "note_on_time": 127.563, "note_off_time": 127.749}, {"pitch": 74, "velocity": 57, "note_on_time": 127.929, "note_off_time": 128.14}, {"pitch": 72, "velocity": 58, "note_on_time": 128.312, "note_off_time": 128.541}, {"pitch": 77, "velocity": 41, "note_on_time": 126.782, "note_off_time": 128.548}, {"pitch": 71, "velocity": 44, "note_on_time": 128.711, "note_off_time": 128.988}, {"pitch": 72, "velocity": 62, "note_on_time": 129.086, "note_off_time": 129.351}, {"pitch": 74, "velocity": 41, "note_on_time": 129.52, "note_off_time": 129.865}, {"pitch": 72, "velocity": 64, "note_on_time": 130.063, "note_off_time": 130.477}, {"pitch": 74, "velocity": 47, "note_on_time": 130.464, "note_off_time": 130.864}, {"pitch": 72, "velocity": 52, "note_on_time": 130.803, "note_off_time": 130.95}, {"pitch": 71, "velocity": 53, "note_on_time": 130.899, "note_off_time": 131.537}, {"pitch": 76, "velocity": 54, "note_on_time": 131.514, "note_off_time": 132.085}, {"pitch": 74, "velocity": 44, "note_on_time": 131.969, "note_off_time": 132.479}, {"pitch": 72, "velocity": 70, "note_on_time": 132.329, "note_off_time": 132.695}, {"pitch": 71, "velocity": 48, "note_on_time": 132.62, "note_off_time": 133.276}, {"pitch": 77, "velocity": 65, "note_on_time": 133.39, "note_off_time": 133.768}, {"pitch": 76, "velocity": 52, "note_on_time": 133.807, "note_off_time": 134.516}, {"pitch": 74, "velocity": 60, "note_on_time": 134.13, "note_off_time": 134.536}, {"pitch": 72, "velocity": 66, "note_on_time": 134.45, "note_off_time": 134.743}, {"pitch": 71, "velocity": 53, "note_on_time": 134.776, "note_off_time": 135.083}, {"pitch": 71, "velocity": 46, "note_on_time": 135.287, "note_off_time": 135.508}, {"pitch": 74, "velocity": 59, "note_on_time": 137.652, "note_off_time": 137.914}, {"pitch": 72, "velocity": 65, "note_on_time": 137.335, "note_off_time": 138.103}, {"pitch": 76, "velocity": 42, "note_on_time": 138.021, "note_off_time": 138.234}, {"pitch": 72, "velocity": 56, "note_on_time": 138.354, "note_off_time": 138.826}, {"pitch": 74, "velocity": 65, "note_on_time": 138.714, "note_off_time": 138.918}, {"pitch": 76, "velocity": 38, "note_on_time": 139.144, "note_off_time": 139.423}, {"pitch": 72, "velocity": 50, "note_on_time": 139.589, "note_off_time": 139.861}, {"pitch": 74, "velocity": 60, "note_on_time": 139.943, "note_off_time": 140.232}, {"pitch": 76, "velocity": 49, "note_on_time": 140.332, "note_off_time": 140.564}, {"pitch": 79, "velocity": 51, "note_on_time": 140.698, "note_off_time": 140.945}, {"pitch": 77, "velocity": 51, "note_on_time": 141.495, "note_off_time": 141.685}, {"pitch": 79, "velocity": 55, "note_on_time": 141.114, "note_off_time": 141.943}, {"pitch": 76, "velocity": 41, "note_on_time": 141.749, "note_off_time": 142.204}, {"pitch": 74, "velocity": 55, "note_on_time": 142.009, "note_off_time": 142.295}, {"pitch": 72, "velocity": 53, "note_on_time": 142.3, "note_off_time": 142.516}, {"pitch": 72, "velocity": 58, "note_on_time": 142.721, "note_off_time": 142.941}, {"pitch": 74, "velocity": 66, "note_on_time": 143.104, "note_off_time": 143.312}, {"pitch": 76, "velocity": 46, "note_on_time": 143.463, "note_off_time": 143.666}, {"pitch": 72, "velocity": 53, "note_on_time": 143.796, "note_off_time": 144.087}, {"pitch": 74, "velocity": 51, "note_on_time": 144.173, "note_off_time": 144.393}, {"pitch": 72, "velocity": 57, "note_on_time": 144.557, "note_off_time": 144.818}, {"pitch": 72, "velocity": 40, "note_on_time": 144.956, "note_off_time": 145.167}, {"pitch": 74, "velocity": 52, "note_on_time": 145.321, "note_off_time": 145.538}, {"pitch": 76, "velocity": 64, "note_on_time": 145.635, "note_off_time": 145.855}, {"pitch": 77, "velocity": 67, "note_on_time": 145.992, "note_off_time": 146.209}, {"pitch": 79, "velocity": 71, "note_on_time": 146.321, "note_off_time": 146.549}, {"pitch": 79, "velocity": 60, "note_on_time": 146.699, "note_off_time": 146.988}, {"pitch": 77, "velocity": 75, "note_on_time": 147.038, "note_off_time": 147.265}, {"pitch": 76, "velocity": 67, "note_on_time": 147.35, "note_off_time": 147.607}, {"pitch": 74, "velocity": 67, "note_on_time": 147.723, "note_off_time": 147.945}, {"pitch": 72, "velocity": 58, "note_on_time": 148.131, "note_off_time": 148.331}, {"pitch": 72, "velocity": 49, "note_on_time": 148.555, "note_off_time": 148.8}, {"pitch": 72, "velocity": 66, "note_on_time": 148.894, "note_off_time": 149.217}, {"pitch": 72, "velocity": 48, "note_on_time": 149.356, "note_off_time": 149.603}, {"pitch": 72, "velocity": 13, "note_on_time": 149.791, "note_off_time": 149.935}, {"pitch": 79, "velocity": 67, "note_on_time": 149.708, "note_off_time": 150.044}, {"pitch": 72, "velocity": 55, "note_on_time": 150.119, "note_off_time": 150.337}, {"pitch": 72, "velocity": 54, "note_on_time": 150.513, "note_off_time": 150.942}, {"pitch": 79, "velocity": 51, "note_on_time": 150.767, "note_off_time": 151.036}, {"pitch": 72, "velocity": 52, "note_on_time": 151.255, "note_off_time": 151.749}, {"pitch": 76, "velocity": 64, "note_on_time": 152.167, "note_off_time": 152.347}, {"pitch": 72, "velocity": 63, "note_on_time": 151.895, "note_off_time": 152.453}, {"pitch": 79, "velocity": 26, "note_on_time": 152.718, "note_off_time": 152.833}, {"pitch": 72, "velocity": 72, "note_on_time": 152.7, "note_off_time": 152.852}, {"pitch": 72, "velocity": 60, "note_on_time": 153.016, "note_off_time": 153.25}, {"pitch": 77, "velocity": 67, "note_on_time": 153.289, "note_off_time": 153.429}, {"pitch": 77, "velocity": 57, "note_on_time": 153.723, "note_off_time": 153.965}, {"pitch": 77, "velocity": 59, "note_on_time": 154.124, "note_off_time": 154.257}, {"pitch": 77, "velocity": 20, "note_on_time": 154.419, "note_off_time": 154.627}, {"pitch": 74, "velocity": 51, "note_on_time": 154.511, "note_off_time": 154.711}, {"pitch": 74, "velocity": 54, "note_on_time": 154.824, "note_off_time": 155.008}, {"pitch": 77, "velocity": 73, "note_on_time": 155.175, "note_off_time": 155.328}, {"pitch": 77, "velocity": 61, "note_on_time": 155.481, "note_off_time": 155.629}, {"pitch": 74, "velocity": 49, "note_on_time": 155.79, "note_off_time": 155.936}, {"pitch": 74, "velocity": 61, "note_on_time": 156.088, "note_off_time": 156.229}, {"pitch": 77, "velocity": 59, "note_on_time": 156.344, "note_off_time": 156.465}, {"pitch": 79, "velocity": 49, "note_on_time": 156.461, "note_off_time": 156.782}, {"pitch": 79, "velocity": 39, "note_on_time": 156.917, "note_off_time": 157.093}, {"pitch": 79, "velocity": 53, "note_on_time": 157.211, "note_off_time": 157.339}, {"pitch": 79, "velocity": 43, "note_on_time": 157.532, "note_off_time": 158.006}, {"pitch": 77, "velocity": 44, "note_on_time": 157.871, "note_off_time": 158.016}, {"pitch": 76, "velocity": 64, "note_on_time": 158.128, "note_off_time": 158.31}, {"pitch": 74, "velocity": 52, "note_on_time": 158.416, "note_off_time": 158.64}, {"pitch": 72, "velocity": 56, "note_on_time": 158.728, "note_off_time": 158.895}, {"pitch": 72, "velocity": 55, "note_on_time": 159.358, "note_off_time": 159.542}, {"pitch": 72, "velocity": 51, "note_on_time": 159.702, "note_off_time": 159.938}, {"pitch": 74, "velocity": 63, "note_on_time": 159.992, "note_off_time": 160.207}, {"pitch": 76, "velocity": 46, "note_on_time": 160.354, "note_off_time": 160.57}, {"pitch": 77, "velocity": 65, "note_on_time": 160.672, "note_off_time": 160.856}, {"pitch": 79, "velocity": 64, "note_on_time": 160.946, "note_off_time": 161.223}, {"pitch": 79, "velocity": 56, "note_on_time": 161.389, "note_off_time": 161.609}, {"pitch": 79, "velocity": 54, "note_on_time": 161.739, "note_off_time": 161.9}, {"pitch": 79, "velocity": 47, "note_on_time": 162.071, "note_off_time": 162.384}, {"pitch": 77, "velocity": 69, "note_on_time": 162.334, "note_off_time": 162.573}, {"pitch": 76, "velocity": 13, "note_on_time": 162.577, "note_off_time": 162.826}, {"pitch": 76, "velocity": 61, "note_on_time": 162.99, "note_off_time": 163.184}, {"pitch": 76, "velocity": 46, "note_on_time": 163.288, "note_off_time": 163.497}, {"pitch": 76, "velocity": 57, "note_on_time": 163.624, "note_off_time": 163.891}, {"pitch": 72, "velocity": 59, "note_on_time": 164.226, "note_off_time": 164.404}, {"pitch": 72, "velocity": 61, "note_on_time": 164.537, "note_off_time": 164.722}, {"pitch": 79, "velocity": 64, "note_on_time": 163.872, "note_off_time": 165.033}, {"pitch": 72, "velocity": 54, "note_on_time": 164.858, "note_off_time": 165.08}, {"pitch": 76, "velocity": 67, "note_on_time": 165.131, "note_off_time": 165.33}, {"pitch": 79, "velocity": 74, "note_on_time": 165.392, "note_off_time": 165.61}, {"pitch": 79, "velocity": 60, "note_on_time": 165.727, "note_off_time": 165.918}, {"pitch": 79, "velocity": 19, "note_on_time": 165.972, "note_off_time": 166.185}, {"pitch": 79, "velocity": 49, "note_on_time": 166.343, "note_off_time": 166.509}, {"pitch": 76, "velocity": 61, "note_on_time": 166.903, "note_off_time": 167.046}, {"pitch": 74, "velocity": 28, "note_on_time": 167.246, "note_off_time": 167.473}, {"pitch": 72, "velocity": 30, "note_on_time": 167.603, "note_off_time": 167.808}, {"pitch": 72, "velocity": 40, "note_on_time": 168.174, "note_off_time": 168.416}, {"pitch": 72, "velocity": 40, "note_on_time": 168.536, "note_off_time": 168.699}, {"pitch": 72, "velocity": 38, "note_on_time": 168.839, "note_off_time": 169.013}, {"pitch": 72, "velocity": 65, "note_on_time": 169.121, "note_off_time": 169.326}, {"pitch": 72, "velocity": 73, "note_on_time": 169.445, "note_off_time": 169.64}, {"pitch": 79, "velocity": 61, "note_on_time": 166.64, "note_off_time": 170.053}, {"pitch": 72, "velocity": 48, "note_on_time": 170.198, "note_off_time": 170.378}, {"pitch": 72, "velocity": 55, "note_on_time": 170.5, "note_off_time": 170.658}, {"pitch": 72, "velocity": 58, "note_on_time": 170.8, "note_off_time": 171.209}, {"pitch": 77, "velocity": 26, "note_on_time": 171.178, "note_off_time": 171.276}, {"pitch": 76, "velocity": 79, "note_on_time": 171.178, "note_off_time": 171.449}, {"pitch": 76, "velocity": 60, "note_on_time": 171.548, "note_off_time": 171.808}, {"pitch": 76, "velocity": 71, "note_on_time": 171.916, "note_off_time": 172.084}, {"pitch": 76, "velocity": 46, "note_on_time": 172.197, "note_off_time": 172.565}, {"pitch": 77, "velocity": 67, "note_on_time": 172.444, "note_off_time": 172.622}, {"pitch": 77, "velocity": 58, "note_on_time": 172.779, "note_off_time": 172.963}, {"pitch": 77, "velocity": 54, "note_on_time": 173.096, "note_off_time": 173.225}, {"pitch": 77, "velocity": 55, "note_on_time": 173.349, "note_off_time": 173.571}, {"pitch": 72, "velocity": 51, "note_on_time": 173.625, "note_off_time": 173.8}, {"pitch": 74, "velocity": 42, "note_on_time": 173.624, "note_off_time": 173.802}, {"pitch": 74, "velocity": 38, "note_on_time": 173.974, "note_off_time": 174.087}, {"pitch": 74, "velocity": 54, "note_on_time": 174.211, "note_off_time": 174.366}, {"pitch": 74, "velocity": 46, "note_on_time": 174.509, "note_off_time": 174.667}, {"pitch": 74, "velocity": 31, "note_on_time": 174.828, "note_off_time": 174.936}, {"pitch": 72, "velocity": 27, "note_on_time": 175.16, "note_off_time": 175.261}, {"pitch": 72, "velocity": 63, "note_on_time": 175.436, "note_off_time": 175.597}, {"pitch": 72, "velocity": 65, "note_on_time": 175.713, "note_off_time": 175.828}, {"pitch": 72, "velocity": 54, "note_on_time": 176.002, "note_off_time": 176.133}, {"pitch": 72, "velocity": 65, "note_on_time": 176.293, "note_off_time": 176.429}, {"pitch": 76, "velocity": 65, "note_on_time": 176.565, "note_off_time": 176.736}, {"pitch": 76, "velocity": 50, "note_on_time": 176.87, "note_off_time": 177.042}, {"pitch": 76, "velocity": 22, "note_on_time": 177.193, "note_off_time": 177.339}, {"pitch": 76, "velocity": 28, "note_on_time": 177.471, "note_off_time": 177.638}, {"pitch": 77, "velocity": 51, "note_on_time": 177.823, "note_off_time": 177.93}, {"pitch": 79, "velocity": 61, "note_on_time": 177.83, "note_off_time": 177.933}, {"pitch": 79, "velocity": 47, "note_on_time": 178.063, "note_off_time": 178.229}, {"pitch": 79, "velocity": 48, "note_on_time": 178.352, "note_off_time": 178.515}, {"pitch": 79, "velocity": 55, "note_on_time": 178.7, "note_off_time": 178.925}, {"pitch": 77, "velocity": 38, "note_on_time": 179.223, "note_off_time": 179.324}, {"pitch": 72, "velocity": 32, "note_on_time": 179.814, "note_off_time": 180.045}, {"pitch": 72, "velocity": 23, "note_on_time": 180.143, "note_off_time": 180.332}, {"pitch": 72, "velocity": 69, "note_on_time": 180.472, "note_off_time": 180.654}, {"pitch": 72, "velocity": 59, "note_on_time": 180.79, "note_off_time": 180.974}, {"pitch": 72, "velocity": 56, "note_on_time": 181.121, "note_off_time": 181.336}, {"pitch": 74, "velocity": 32, "note_on_time": 181.488, "note_off_time": 181.61}, {"pitch": 74, "velocity": 30, "note_on_time": 181.746, "note_off_time": 181.857}, {"pitch": 74, "velocity": 25, "note_on_time": 182.038, "note_off_time": 182.146}, {"pitch": 74, "velocity": 50, "note_on_time": 182.308, "note_off_time": 182.453}, {"pitch": 76, "velocity": 57, "note_on_time": 182.586, "note_off_time": 182.727}, {"pitch": 76, "velocity": 35, "note_on_time": 182.881, "note_off_time": 183.005}, {"pitch": 76, "velocity": 27, "note_on_time": 183.148, "note_off_time": 183.276}, {"pitch": 77, "velocity": 46, "note_on_time": 183.514, "note_off_time": 183.697}, {"pitch": 77, "velocity": 15, "note_on_time": 183.933, "note_off_time": 184.062}, {"pitch": 79, "velocity": 26, "note_on_time": 183.93, "note_off_time": 184.441}, {"pitch": 72, "velocity": 45, "note_on_time": 184.905, "note_off_time": 185.292}, {"pitch": 74, "velocity": 11, "note_on_time": 185.247, "note_off_time": 185.448}, {"pitch": 79, "velocity": 35, "note_on_time": 184.663, "note_off_time": 186.077}, {"pitch": 76, "velocity": 32, "note_on_time": 185.624, "note_off_time": 186.087}, {"pitch": 77, "velocity": 50, "note_on_time": 185.884, "note_off_time": 186.16}, {"pitch": 79, "velocity": 61, "note_on_time": 186.312, "note_off_time": 186.577}, {"pitch": 77, "velocity": 43, "note_on_time": 186.763, "note_off_time": 186.961}, {"pitch": 76, "velocity": 43, "note_on_time": 187.044, "note_off_time": 187.307}, {"pitch": 74, "velocity": 49, "note_on_time": 187.183, "note_off_time": 187.42}, {"pitch": 79, "velocity": 27, "note_on_time": 186.691, "note_off_time": 187.5}, {"pitch": 72, "velocity": 50, "note_on_time": 187.364, "note_off_time": 187.536}, {"pitch": 72, "velocity": 48, "note_on_time": 187.7, "note_off_time": 187.866}, {"pitch": 72, "velocity": 53, "note_on_time": 188.018, "note_off_time": 188.176}, {"pitch": 74, "velocity": 32, "note_on_time": 188.314, "note_off_time": 188.474}, {"pitch": 72, "velocity": 66, "note_on_time": 188.74, "note_off_time": 188.969}, {"pitch": 74, "velocity": 50, "note_on_time": 189.028, "note_off_time": 189.286}, {"pitch": 72, "velocity": 55, "note_on_time": 189.288, "note_off_time": 189.598}, {"pitch": 74, "velocity": 55, "note_on_time": 189.599, "note_off_time": 189.9}, {"pitch": 72, "velocity": 61, "note_on_time": 189.866, "note_off_time": 190.199}, {"pitch": 77, "velocity": 69, "note_on_time": 190.173, "note_off_time": 190.429}, {"pitch": 72, "velocity": 60, "note_on_time": 190.437, "note_off_time": 190.75}, {"pitch": 74, "velocity": 58, "note_on_time": 190.738, "note_off_time": 190.976}, {"pitch": 76, "velocity": 34, "note_on_time": 191.127, "note_off_time": 191.333}, {"pitch": 76, "velocity": 48, "note_on_time": 191.515, "note_off_time": 191.738}, {"pitch": 76, "velocity": 51, "note_on_time": 191.855, "note_off_time": 192.037}, {"pitch": 79, "velocity": 51, "note_on_time": 192.178, "note_off_time": 192.636}, {"pitch": 79, "velocity": 50, "note_on_time": 192.728, "note_off_time": 192.899}, {"pitch": 79, "velocity": 65, "note_on_time": 193.013, "note_off_time": 193.305}, {"pitch": 77, "velocity": 66, "note_on_time": 193.266, "note_off_time": 193.429}, {"pitch": 77, "velocity": 42, "note_on_time": 193.56, "note_off_time": 193.716}, {"pitch": 77, "velocity": 53, "note_on_time": 193.846, "note_off_time": 193.994}, {"pitch": 77, "velocity": 46, "note_on_time": 194.133, "note_off_time": 194.314}, {"pitch": 76, "velocity": 51, "note_on_time": 194.392, "note_off_time": 194.576}]</notes><guidance name="Guidance Mode">None</guidance><error name="Error value">99</error></trial><trial trial_no="3" timestamp="2023_06_06-11_00_26"><notes name="Played Notes">[{"pitch": 72, "velocity": 73, "note_on_time": 1.905, "note_off_time": 2.227}, {"pitch": 74, "velocity": 70, "note_on_time": 2.486, "note_off_time": 2.844}, {"pitch": 76, "velocity": 52, "note_on_time": 3.041, "note_off_time": 3.359}, {"pitch": 77, "velocity": 58, "note_on_time": 3.585, "note_off_time": 3.873}, {"pitch": 79, "velocity": 54, "note_on_time": 4.095, "note_off_time": 4.34}, {"pitch": 72, "velocity": 54, "note_on_time": 4.555, "note_off_time": 4.804}, {"pitch": 74, "velocity": 60, "note_on_time": 5.008, "note_off_time": 5.228}, {"pitch": 74, "velocity": 54, "note_on_time": 5.445, "note_off_time": 5.868}, {"pitch": 72, "velocity": 59, "note_on_time": 5.884, "note_off_time": 6.326}, {"pitch": 76, "velocity": 63, "note_on_time": 6.344, "note_off_time": 6.71}, {"pitch": 77, "velocity": 59, "note_on_time": 6.788, "note_off_time": 7.052}, {"pitch": 79, "velocity": 66, "note_on_time": 7.182, "note_off_time": 7.446}, {"pitch": 79, "velocity": 62, "note_on_time": 7.64, "note_off_time": 7.953}, {"pitch": 77, "velocity": 61, "note_on_time": 8.077, "note_off_time": 8.29}, {"pitch": 76, "velocity": 62, "note_on_time": 8.449, "note_off_time": 8.663}, {"pitch": 74, "velocity": 67, "note_on_time": 8.849, "note_off_time": 9.068}, {"pitch": 72, "velocity": 55, "note_on_time": 9.204, "note_off_time": 9.413}, {"pitch": 72, "velocity": 52, "note_on_time": 9.571, "note_off_time": 9.779}, {"pitch": 72, "velocity": 56, "note_on_time": 9.93, "note_off_time": 10.16}, {"pitch": 79, "velocity": 53, "note_on_time": 10.238, "note_off_time": 10.685}, {"pitch": 77, "velocity": 59, "note_on_time": 10.638, "note_off_time": 10.892}, {"pitch": 76, "velocity": 47, "note_on_time": 10.994, "note_off_time": 11.255}, {"pitch": 74, "velocity": 70, "note_on_time": 11.329, "note_off_time": 11.545}, {"pitch": 76, "velocity": 49, "note_on_time": 11.72, "note_off_time": 11.907}, {"pitch": 77, "velocity": 54, "note_on_time": 11.996, "note_off_time": 12.202}, {"pitch": 79, "velocity": 60, "note_on_time": 12.322, "note_off_time": 12.586}, {"pitch": 79, "velocity": 55, "note_on_time": 12.844, "note_off_time": 13.572}, {"pitch": 79, "velocity": 44, "note_on_time": 13.929, "note_off_time": 14.202}, {"pitch": 76, "velocity": 47, "note_on_time": 14.52, "note_off_time": 14.803}, {"pitch": 74, "velocity": 45, "note_on_time": 14.841, "note_off_time": 15.102}, {"pitch": 72, "velocity": 57, "note_on_time": 15.136, "note_off_time": 15.585}, {"pitch": 72, "velocity": 66, "note_on_time": 15.767, "note_off_time": 16.113}, {"pitch": 74, "velocity": 41, "note_on_time": 16.953, "note_off_time": 17.184}, {"pitch": 72, "velocity": 61, "note_on_time": 16.393, "note_off_time": 17.226}, {"pitch": 76, "velocity": 39, "note_on_time": 17.21, "note_off_time": 17.682}, {"pitch": 77, "velocity": 53, "note_on_time": 17.515, "note_off_time": 17.793}, {"pitch": 79, "velocity": 48, "note_on_time": 17.87, "note_off_time": 18.146}, {"pitch": 77, "velocity": 55, "note_on_time": 18.178, "note_off_time": 18.401}, {"pitch": 76, "velocity": 38, "note_on_time": 18.407, "note_off_time": 18.783}, {"pitch": 74, "velocity": 51, "note_on_time": 18.697, "note_off_time": 18.943}, {"pitch": 76, "velocity": 59, "note_on_time": 19.232, "note_off_time": 19.483}, {"pitch": 77, "velocity": 68, "note_on_time": 19.422, "note_off_time": 19.65}, {"pitch": 77, "velocity": 52, "note_on_time": 19.844, "note_off_time": 20.085}, {"pitch": 76, "velocity": 58, "note_on_time": 19.994, "note_off_time": 20.294}, {"pitch": 74, "velocity": 42, "note_on_time": 20.507, "note_off_time": 20.689}, {"pitch": 76, "velocity": 48, "note_on_time": 20.77, "note_off_time": 20.934}, {"pitch": 77, "velocity": 58, "note_on_time": 20.896, "note_off_time": 21.032}, {"pitch": 79, "velocity": 9, "note_on_time": 21.215, "note_off_time": 21.518}, {"pitch": 72, "velocity": 52, "note_on_time": 21.622, "note_off_time": 21.873}, {"pitch": 74, "velocity": 54, "note_on_time": 21.994, "note_off_time": 22.22}, {"pitch": 76, "velocity": 63, "note_on_time": 22.344, "note_off_time": 22.558}, {"pitch": 77, "velocity": 63, "note_on_time": 22.718, "note_off_time": 22.861}, {"pitch": 77, "velocity": 55, "note_on_time": 23.062, "note_off_time": 23.245}, {"pitch": 79, "velocity": 66, "note_on_time": 23.383, "note_off_time": 23.73}, {"pitch": 72, "velocity": 68, "note_on_time": 23.718, "note_off_time": 24.005}, {"pitch": 74, "velocity": 56, "note_on_time": 24.029, "note_off_time": 24.234}, {"pitch": 76, "velocity": 60, "note_on_time": 24.403, "note_off_time": 24.644}, {"pitch": 72, "velocity": 56, "note_on_time": 24.711, "note_off_time": 25.04}, {"pitch": 74, "velocity": 73, "note_on_time": 25.024, "note_off_time": 25.285}, {"pitch": 77, "velocity": 58, "note_on_time": 25.649, "note_off_time": 25.956}, {"pitch": 79, "velocity": 53, "note_on_time": 26.176, "note_off_time": 26.688}, {"pitch": 74, "velocity": 54, "note_on_time": 26.845, "note_off_time": 26.996}, {"pitch": 72, "velocity": 59, "note_on_time": 26.524, "note_off_time": 27.179}, {"pitch": 76, "velocity": 40, "note_on_time": 27.221, "note_off_time": 27.44}, {"pitch": 77, "velocity": 61, "note_on_time": 27.539, "note_off_time": 27.727}, {"pitch": 79, "velocity": 49, "note_on_time": 27.83, "note_off_time": 28.366}, {"pitch": 79, "velocity": 58, "note_on_time": 28.465, "note_off_time": 28.702}, {"pitch": 79, "velocity": 55, "note_on_time": 28.842, "note_off_time": 29.034}, {"pitch": 79, "velocity": 48, "note_on_time": 29.202, "note_off_time": 29.495}, {"pitch": 72, "velocity": 62, "note_on_time": 29.505, "note_off_time": 29.747}, {"pitch": 74, "velocity": 38, "note_on_time": 29.843, "note_off_time": 29.991}, {"pitch": 76, "velocity": 42, "note_on_time": 30.144, "note_off_time": 30.316}, {"pitch": 76, "velocity": 30, "note_on_time": 30.518, "note_off_time": 30.683}, {"pitch": 76, "velocity": 40, "note_on_time": 30.827, "note_off_time": 30.986}, {"pitch": 76, "velocity": 52, "note_on_time": 31.156, "note_off_time": 31.342}, {"pitch": 76, "velocity": 47, "note_on_time": 31.51, "note_off_time": 31.715}, {"pitch": 76, "velocity": 47, "note_on_time": 31.825, "note_off_time": 32.035}, {"pitch": 77, "velocity": 74, "note_on_time": 32.131, "note_off_time": 32.345}, {"pitch": 79, "velocity": 71, "note_on_time": 32.401, "note_off_time": 32.691}, {"pitch": 72, "velocity": 56, "note_on_time": 32.71, "note_off_time": 33.0}, {"pitch": 74, "velocity": 64, "note_on_time": 33.009, "note_off_time": 33.176}, {"pitch": 74, "velocity": 28, "note_on_time": 33.304, "note_off_time": 33.458}, {"pitch": 74, "velocity": 39, "note_on_time": 33.606, "note_off_time": 33.745}, {"pitch": 74, "velocity": 45, "note_on_time": 33.909, "note_off_time": 34.029}, {"pitch": 74, "velocity": 35, "note_on_time": 34.217, "note_off_time": 34.367}, {"pitch": 79, "velocity": 69, "note_on_time": 34.474, "note_off_time": 34.766}, {"pitch": 76, "velocity": 73, "note_on_time": 34.764, "note_off_time": 35.034}, {"pitch": 77, "velocity": 63, "note_on_time": 35.037, "note_off_time": 35.257}, {"pitch": 72, "velocity": 72, "note_on_time": 35.351, "note_off_time": 35.612}, {"pitch": 74, "velocity": 68, "note_on_time": 35.611, "note_off_time": 35.77}, {"pitch": 74, "velocity": 52, "note_on_time": 35.886, "note_off_time": 36.042}, {"pitch": 74, "velocity": 41, "note_on_time": 36.201, "note_off_time": 36.344}, {"pitch": 74, "velocity": 35, "note_on_time": 36.485, "note_off_time": 36.664}, {"pitch": 76, "velocity": 53, "note_on_time": 36.736, "note_off_time": 36.965}, {"pitch": 77, "velocity": 61, "note_on_time": 37.019, "note_off_time": 37.232}, {"pitch": 72, "velocity": 36, "note_on_time": 37.592, "note_off_time": 37.863}, {"pitch": 74, "velocity": 51, "note_on_time": 37.861, "note_off_time": 38.124}, {"pitch": 79, "velocity": 66, "note_on_time": 37.256, "note_off_time": 38.23}, {"pitch": 76, "velocity": 49, "note_on_time": 38.177, "note_off_time": 38.435}, {"pitch": 77, "velocity": 68, "note_on_time": 38.422, "note_off_time": 38.707}, {"pitch": 79, "velocity": 39, "note_on_time": 38.736, "note_off_time": 39.08}, {"pitch": 79, "velocity": 68, "note_on_time": 39.285, "note_off_time": 39.608}, {"pitch": 79, "velocity": 55, "note_on_time": 39.832, "note_off_time": 40.085}, {"pitch": 76, "velocity": 51, "note_on_time": 40.612, "note_off_time": 40.836}, {"pitch": 79, "velocity": 52, "note_on_time": 40.29, "note_off_time": 40.984}, {"pitch": 72, "velocity": 67, "note_on_time": 40.857, "note_off_time": 41.128}, {"pitch": 74, "velocity": 54, "note_on_time": 41.13, "note_off_time": 41.296}, {"pitch": 77, "velocity": 60, "note_on_time": 41.39, "note_off_time": 41.584}, {"pitch": 79, "velocity": 60, "note_on_time": 41.827, "note_off_time": 42.315}, {"pitch": 76, "velocity": 46, "note_on_time": 42.077, "note_off_time": 42.35}, {"pitch": 72, "velocity": 34, "note_on_time": 42.392, "note_off_time": 42.698}, {"pitch": 74, "velocity": 50, "note_on_time": 42.69, "note_off_time": 42.881}, {"pitch": 76, "velocity": 48, "note_on_time": 42.867, "note_off_time": 43.009}, {"pitch": 77, "velocity": 50, "note_on_time": 43.017, "note_off_time": 43.264}, {"pitch": 79, "velocity": 33, "note_on_time": 42.989, "note_off_time": 43.399}, {"pitch": 79, "velocity": 31, "note_on_time": 43.487, "note_off_time": 43.757}, {"pitch": 72, "velocity": 34, "note_on_time": 44.311, "note_off_time": 44.445}, {"pitch": 79, "velocity": 39, "note_on_time": 43.892, "note_off_time": 44.468}, {"pitch": 76, "velocity": 59, "note_on_time": 44.683, "note_off_time": 44.903}, {"pitch": 72, "velocity": 64, "note_on_time": 45.08, "note_off_time": 45.327}, {"pitch": 74, "velocity": 68, "note_on_time": 45.421, "note_off_time": 45.625}, {"pitch": 76, "velocity": 62, "note_on_time": 45.78, "note_off_time": 46.024}, {"pitch": 77, "velocity": 68, "note_on_time": 46.104, "note_off_time": 46.31}, {"pitch": 79, "velocity": 71, "note_on_time": 46.435, "note_off_time": 46.624}, {"pitch": 72, "velocity": 74, "note_on_time": 46.724, "note_off_time": 46.961}, {"pitch": 74, "velocity": 85, "note_on_time": 47.002, "note_off_time": 47.232}, {"pitch": 76, "velocity": 50, "note_on_time": 47.294, "note_off_time": 47.482}, {"pitch": 74, "velocity": 86, "note_on_time": 47.83, "note_off_time": 48.057}, {"pitch": 72, "velocity": 76, "note_on_time": 47.55, "note_off_time": 48.125}, {"pitch": 76, "velocity": 63, "note_on_time": 48.092, "note_off_time": 48.302}, {"pitch": 74, "velocity": 79, "note_on_time": 48.608, "note_off_time": 48.921}, {"pitch": 72, "velocity": 62, "note_on_time": 48.315, "note_off_time": 48.94}, {"pitch": 76, "velocity": 66, "note_on_time": 48.832, "note_off_time": 49.091}, {"pitch": 77, "velocity": 66, "note_on_time": 49.078, "note_off_time": 49.353}, {"pitch": 79, "velocity": 80, "note_on_time": 49.324, "note_off_time": 49.542}, {"pitch": 72, "velocity": 60, "note_on_time": 49.522, "note_off_time": 49.809}, {"pitch": 74, "velocity": 71, "note_on_time": 49.798, "note_off_time": 50.211}, {"pitch": 76, "velocity": 68, "note_on_time": 50.06, "note_off_time": 50.739}, {"pitch": 77, "velocity": 46, "note_on_time": 50.446, "note_off_time": 50.81}, {"pitch": 79, "velocity": 61, "note_on_time": 50.894, "note_off_time": 51.204}, {"pitch": 79, "velocity": 49, "note_on_time": 51.341, "note_off_time": 51.609}, {"pitch": 77, "velocity": 33, "note_on_time": 51.844, "note_off_time": 51.997}, {"pitch": 79, "velocity": 14, "note_on_time": 51.799, "note_off_time": 52.188}, {"pitch": 77, "velocity": 61, "note_on_time": 52.197, "note_off_time": 52.528}, {"pitch": 76, "velocity": 45, "note_on_time": 52.435, "note_off_time": 52.697}, {"pitch": 74, "velocity": 47, "note_on_time": 52.867, "note_off_time": 53.04}, {"pitch": 72, "velocity": 56, "note_on_time": 53.21, "note_off_time": 53.452}, {"pitch": 72, "velocity": 51, "note_on_time": 53.62, "note_off_time": 53.867}, {"pitch": 72, "velocity": 10, "note_on_time": 53.969, "note_off_time": 54.192}, {"pitch": 72, "velocity": 61, "note_on_time": 54.32, "note_off_time": 54.588}, {"pitch": 76, "velocity": 56, "note_on_time": 54.624, "note_off_time": 54.881}, {"pitch": 79, "velocity": 53, "note_on_time": 54.884, "note_off_time": 55.177}, {"pitch": 79, "velocity": 55, "note_on_time": 55.41, "note_off_time": 55.802}, {"pitch": 77, "velocity": 60, "note_on_time": 55.661, "note_off_time": 55.967}, {"pitch": 76, "velocity": 47, "note_on_time": 55.895, "note_off_time": 56.176}, {"pitch": 79, "velocity": 58, "note_on_time": 56.423, "note_off_time": 56.882}, {"pitch": 77, "velocity": 63, "note_on_time": 56.786, "note_off_time": 57.058}, {"pitch": 76, "velocity": 53, "note_on_time": 57.165, "note_off_time": 57.374}, {"pitch": 74, "velocity": 68, "note_on_time": 57.464, "note_off_time": 57.752}, {"pitch": 72, "velocity": 69, "note_on_time": 57.769, "note_off_time": 57.988}, {"pitch": 72, "velocity": 70, "note_on_time": 58.264, "note_off_time": 58.496}, {"pitch": 76, "velocity": 65, "note_on_time": 58.804, "note_off_time": 59.049}, {"pitch": 79, "velocity": 60, "note_on_time": 59.257, "note_off_time": 59.561}, {"pitch": 79, "velocity": 76, "note_on_time": 59.737, "note_off_time": 60.038}, {"pitch": 76, "velocity": 31, "note_on_time": 60.269, "note_off_time": 60.406}, {"pitch": 76, "velocity": 67, "note_on_time": 60.596, "note_off_time": 60.811}, {"pitch": 72, "velocity": 66, "note_on_time": 60.959, "note_off_time": 61.237}, {"pitch": 74, "velocity": 42, "note_on_time": 61.372, "note_off_time": 61.449}, {"pitch": 72, "velocity": 55, "note_on_time": 61.435, "note_off_time": 61.613}, {"pitch": 72, "velocity": 57, "note_on_time": 61.84, "note_off_time": 62.11}, {"pitch": 74, "velocity": 65, "note_on_time": 62.254, "note_off_time": 62.452}, {"pitch": 72, "velocity": 70, "note_on_time": 62.615, "note_off_time": 62.982}, {"pitch": 74, "velocity": 53, "note_on_time": 63.127, "note_off_time": 63.268}, {"pitch": 77, "velocity": 44, "note_on_time": 63.49, "note_off_time": 63.637}, {"pitch": 74, "velocity": 62, "note_on_time": 63.818, "note_off_time": 64.071}, {"pitch": 77, "velocity": 67, "note_on_time": 64.186, "note_off_time": 64.379}, {"pitch": 79, "velocity": 55, "note_on_time": 64.504, "note_off_time": 64.727}, {"pitch": 79, "velocity": 44, "note_on_time": 64.896, "note_off_time": 65.313}, {"pitch": 77, "velocity": 58, "note_on_time": 65.235, "note_off_time": 65.426}, {"pitch": 74, "velocity": 65, "note_on_time": 65.552, "note_off_time": 65.72}, {"pitch": 72, "velocity": 65, "note_on_time": 65.853, "note_off_time": 66.033}, {"pitch": 74, "velocity": 60, "note_on_time": 66.189, "note_off_time": 66.463}, {"pitch": 74, "velocity": 72, "note_on_time": 66.9, "note_off_time": 67.096}, {"pitch": 77, "velocity": 46, "note_on_time": 67.234, "note_off_time": 67.4}, {"pitch": 74, "velocity": 68, "note_on_time": 67.85, "note_off_time": 68.055}, {"pitch": 79, "velocity": 53, "note_on_time": 68.23, "note_off_time": 68.544}, {"pitch": 76, "velocity": 57, "note_on_time": 68.825, "note_off_time": 69.074}, {"pitch": 72, "velocity": 71, "note_on_time": 69.174, "note_off_time": 69.36}, {"pitch": 77, "velocity": 55, "note_on_time": 69.548, "note_off_time": 69.767}, {"pitch": 74, "velocity": 54, "note_on_time": 69.919, "note_off_time": 70.092}, {"pitch": 79, "velocity": 39, "note_on_time": 70.226, "note_off_time": 70.435}, {"pitch": 72, "velocity": 71, "note_on_time": 70.552, "note_off_time": 70.8}, {"pitch": 77, "velocity": 59, "note_on_time": 71.285, "note_off_time": 71.563}, {"pitch": 74, "velocity": 58, "note_on_time": 71.724, "note_off_time": 72.043}, {"pitch": 77, "velocity": 53, "note_on_time": 72.197, "note_off_time": 72.46}, {"pitch": 76, "velocity": 65, "note_on_time": 72.592, "note_off_time": 72.842}, {"pitch": 74, "velocity": 54, "note_on_time": 72.968, "note_off_time": 73.152}, {"pitch": 72, "velocity": 28, "note_on_time": 73.364, "note_off_time": 73.636}, {"pitch": 74, "velocity": 41, "note_on_time": 73.768, "note_off_time": 73.995}, {"pitch": 76, "velocity": 38, "note_on_time": 74.187, "note_off_time": 74.469}, {"pitch": 72, "velocity": 42, "note_on_time": 74.56, "note_off_time": 74.851}, {"pitch": 74, "velocity": 46, "note_on_time": 74.973, "note_off_time": 75.179}, {"pitch": 76, "velocity": 48, "note_on_time": 75.378, "note_off_time": 75.604}, {"pitch": 79, "velocity": 21, "note_on_time": 75.806, "note_off_time": 76.008}, {"pitch": 79, "velocity": 59, "note_on_time": 76.159, "note_off_time": 76.401}, {"pitch": 79, "velocity": 51, "note_on_time": 76.573, "note_off_time": 76.786}, {"pitch": 76, "velocity": 36, "note_on_time": 77.166, "note_off_time": 77.411}, {"pitch": 74, "velocity": 37, "note_on_time": 77.549, "note_off_time": 77.759}, {"pitch": 72, "velocity": 55, "note_on_time": 77.89, "note_off_time": 78.074}, {"pitch": 72, "velocity": 57, "note_on_time": 78.233, "note_off_time": 78.46}, {"pitch": 72, "velocity": 46, "note_on_time": 78.657, "note_off_time": 78.809}, {"pitch": 72, "velocity": 58, "note_on_time": 79.006, "note_off_time": 79.233}, {"pitch": 74, "velocity": 60, "note_on_time": 79.344, "note_off_time": 79.555}, {"pitch": 76, "velocity": 60, "note_on_time": 79.719, "note_off_time": 79.958}, {"pitch": 77, "velocity": 67, "note_on_time": 80.086, "note_off_time": 80.276}, {"pitch": 77, "velocity": 62, "note_on_time": 80.462, "note_off_time": 80.64}, {"pitch": 77, "velocity": 40, "note_on_time": 80.843, "note_off_time": 80.999}, {"pitch": 77, "velocity": 36, "note_on_time": 81.203, "note_off_time": 81.398}, {"pitch": 79, "velocity": 62, "note_on_time": 81.526, "note_off_time": 81.819}, {"pitch": 77, "velocity": 58, "note_on_time": 81.959, "note_off_time": 82.215}, {"pitch": 76, "velocity": 68, "note_on_time": 82.272, "note_off_time": 82.511}, {"pitch": 74, "velocity": 51, "note_on_time": 82.601, "note_off_time": 82.782}, {"pitch": 72, "velocity": 63, "note_on_time": 82.888, "note_off_time": 83.094}, {"pitch": 72, "velocity": 60, "note_on_time": 83.296, "note_off_time": 83.497}, {"pitch": 72, "velocity": 67, "note_on_time": 83.782, "note_off_time": 83.961}, {"pitch": 72, "velocity": 72, "note_on_time": 84.244, "note_off_time": 84.459}, {"pitch": 79, "velocity": 72, "note_on_time": 84.66, "note_off_time": 84.937}, {"pitch": 79, "velocity": 72, "note_on_time": 85.111, "note_off_time": 85.354}, {"pitch": 79, "velocity": 52, "note_on_time": 85.509, "note_off_time": 85.808}, {"pitch": 72, "velocity": 62, "note_on_time": 85.866, "note_off_time": 86.076}, {"pitch": 72, "velocity": 44, "note_on_time": 86.479, "note_off_time": 86.604}, {"pitch": 79, "velocity": 1, "note_on_time": 86.451, "note_off_time": 87.136}, {"pitch": 79, "velocity": 55, "note_on_time": 87.315, "note_off_time": 87.523}, {"pitch": 79, "velocity": 43, "note_on_time": 87.705, "note_off_time": 87.89}, {"pitch": 72, "velocity": 74, "note_on_time": 88.021, "note_off_time": 88.189}, {"pitch": 76, "velocity": 68, "note_on_time": 88.311, "note_off_time": 88.506}, {"pitch": 72, "velocity": 71, "note_on_time": 88.657, "note_off_time": 88.822}, {"pitch": 74, "velocity": 75, "note_on_time": 88.991, "note_off_time": 89.172}, {"pitch": 77, "velocity": 62, "note_on_time": 89.505, "note_off_time": 89.715}, {"pitch": 77, "velocity": 65, "note_on_time": 89.979, "note_off_time": 90.12}, {"pitch": 79, "velocity": 27, "note_on_time": 90.7, "note_off_time": 90.989}, {"pitch": 79, "velocity": 48, "note_on_time": 91.096, "note_off_time": 91.368}, {"pitch": 79, "velocity": 46, "note_on_time": 91.47, "note_off_time": 91.665}, {"pitch": 76, "velocity": 52, "note_on_time": 92.202, "note_off_time": 92.353}, {"pitch": 79, "velocity": 70, "note_on_time": 91.808, "note_off_time": 92.368}, {"pitch": 76, "velocity": 30, "note_on_time": 92.505, "note_off_time": 92.705}, {"pitch": 76, "velocity": 51, "note_on_time": 92.87, "note_off_time": 93.028}, {"pitch": 76, "velocity": 51, "note_on_time": 93.162, "note_off_time": 93.4}, {"pitch": 74, "velocity": 49, "note_on_time": 93.478, "note_off_time": 93.648}, {"pitch": 74, "velocity": 60, "note_on_time": 93.762, "note_off_time": 93.973}, {"pitch": 72, "velocity": 56, "note_on_time": 93.988, "note_off_time": 94.193}, {"pitch": 74, "velocity": 65, "note_on_time": 94.301, "note_off_time": 94.637}, {"pitch": 76, "velocity": 65, "note_on_time": 94.586, "note_off_time": 95.272}, {"pitch": 77, "velocity": 64, "note_on_time": 94.85, "note_off_time": 95.315}, {"pitch": 77, "velocity": 62, "note_on_time": 95.515, "note_off_time": 95.888}, {"pitch": 76, "velocity": 42, "note_on_time": 95.778, "note_off_time": 96.028}, {"pitch": 76, "velocity": 44, "note_on_time": 96.217, "note_off_time": 96.501}, {"pitch": 77, "velocity": 39, "note_on_time": 96.457, "note_off_time": 96.663}, {"pitch": 77, "velocity": 61, "note_on_time": 96.898, "note_off_time": 97.197}, {"pitch": 76, "velocity": 49, "note_on_time": 97.134, "note_off_time": 97.394}, {"pitch": 76, "velocity": 69, "note_on_time": 97.615, "note_off_time": 97.98}, {"pitch": 77, "velocity": 66, "note_on_time": 97.865, "note_off_time": 98.149}, {"pitch": 72, "velocity": 60, "note_on_time": 98.307, "note_off_time": 98.534}, {"pitch": 74, "velocity": 54, "note_on_time": 98.559, "note_off_time": 98.772}, {"pitch": 74, "velocity": 58, "note_on_time": 99.074, "note_off_time": 99.282}, {"pitch": 76, "velocity": 49, "note_on_time": 99.439, "note_off_time": 99.752}, {"pitch": 77, "velocity": 46, "note_on_time": 99.751, "note_off_time": 100.028}, {"pitch": 79, "velocity": 46, "note_on_time": 100.032, "note_off_time": 100.263}, {"pitch": 79, "velocity": 56, "note_on_time": 100.428, "note_off_time": 100.83}, {"pitch": 72, "velocity": 52, "note_on_time": 100.724, "note_off_time": 100.913}, {"pitch": 74, "velocity": 37, "note_on_time": 101.302, "note_off_time": 101.482}, {"pitch": 74, "velocity": 53, "note_on_time": 101.592, "note_off_time": 101.754}, {"pitch": 74, "velocity": 51, "note_on_time": 101.912, "note_off_time": 102.138}, {"pitch": 72, "velocity": 59, "note_on_time": 102.179, "note_off_time": 102.651}, {"pitch": 74, "velocity": 52, "note_on_time": 102.636, "note_off_time": 102.763}, {"pitch": 74, "velocity": 40, "note_on_time": 102.891, "note_off_time": 103.018}, {"pitch": 74, "velocity": 37, "note_on_time": 103.186, "note_off_time": 103.304}, {"pitch": 74, "velocity": 34, "note_on_time": 103.44, "note_off_time": 103.688}, {"pitch": 72, "velocity": 56, "note_on_time": 103.716, "note_off_time": 103.956}, {"pitch": 76, "velocity": 54, "note_on_time": 104.206, "note_off_time": 104.377}, {"pitch": 77, "velocity": 1, "note_on_time": 104.56, "note_off_time": 104.71}, {"pitch": 77, "velocity": 48, "note_on_time": 104.896, "note_off_time": 105.05}, {"pitch": 77, "velocity": 45, "note_on_time": 105.172, "note_off_time": 105.338}, {"pitch": 77, "velocity": 57, "note_on_time": 105.477, "note_off_time": 105.652}, {"pitch": 79, "velocity": 42, "note_on_time": 105.778, "note_off_time": 106.021}, {"pitch": 79, "velocity": 35, "note_on_time": 106.155, "note_off_time": 106.315}, {"pitch": 79, "velocity": 54, "note_on_time": 106.426, "note_off_time": 106.627}, {"pitch": 79, "velocity": 45, "note_on_time": 106.735, "note_off_time": 106.9}, {"pitch": 74, "velocity": 70, "note_on_time": 107.378, "note_off_time": 107.56}, {"pitch": 79, "velocity": 43, "note_on_time": 107.023, "note_off_time": 107.781}, {"pitch": 74, "velocity": 38, "note_on_time": 107.683, "note_off_time": 107.807}, {"pitch": 74, "velocity": 24, "note_on_time": 108.045, "note_off_time": 108.13}, {"pitch": 74, "velocity": 37, "note_on_time": 108.275, "note_off_time": 108.417}, {"pitch": 74, "velocity": 48, "note_on_time": 108.55, "note_off_time": 108.704}, {"pitch": 76, "velocity": 62, "note_on_time": 108.85, "note_off_time": 109.022}, {"pitch": 76, "velocity": 37, "note_on_time": 109.152, "note_off_time": 109.314}, {"pitch": 76, "velocity": 43, "note_on_time": 109.437, "note_off_time": 109.603}, {"pitch": 76, "velocity": 52, "note_on_time": 109.719, "note_off_time": 109.925}, {"pitch": 72, "velocity": 72, "note_on_time": 109.992, "note_off_time": 110.396}, {"pitch": 72, "velocity": 54, "note_on_time": 110.533, "note_off_time": 110.693}, {"pitch": 72, "velocity": 51, "note_on_time": 110.819, "note_off_time": 110.959}, {"pitch": 74, "velocity": 62, "note_on_time": 111.091, "note_off_time": 111.224}, {"pitch": 74, "velocity": 33, "note_on_time": 111.36, "note_off_time": 111.482}, {"pitch": 74, "velocity": 39, "note_on_time": 111.642, "note_off_time": 111.771}, {"pitch": 74, "velocity": 38, "note_on_time": 111.916, "note_off_time": 112.07}, {"pitch": 77, "velocity": 59, "note_on_time": 112.181, "note_off_time": 112.367}, {"pitch": 77, "velocity": 41, "note_on_time": 112.476, "note_off_time": 112.627}, {"pitch": 77, "velocity": 61, "note_on_time": 112.735, "note_off_time": 112.895}, {"pitch": 77, "velocity": 46, "note_on_time": 113.025, "note_off_time": 113.163}, {"pitch": 79, "velocity": 69, "note_on_time": 113.258, "note_off_time": 113.59}, {"pitch": 72, "velocity": 62, "note_on_time": 113.514, "note_off_time": 113.75}, {"pitch": 74, "velocity": 51, "note_on_time": 113.814, "note_off_time": 113.975}, {"pitch": 76, "velocity": 59, "note_on_time": 114.094, "note_off_time": 114.246}, {"pitch": 77, "velocity": 64, "note_on_time": 114.385, "note_off_time": 114.687}, {"pitch": 79, "velocity": 22, "note_on_time": 114.425, "note_off_time": 114.696}, {"pitch": 77, "velocity": 67, "note_on_time": 114.887, "note_off_time": 115.172}, {"pitch": 77, "velocity": 68, "note_on_time": 115.387, "note_off_time": 115.64}, {"pitch": 79, "velocity": 54, "note_on_time": 115.778, "note_off_time": 116.336}, {"pitch": 77, "velocity": 68, "note_on_time": 116.213, "note_off_time": 116.533}, {"pitch": 76, "velocity": 67, "note_on_time": 116.553, "note_off_time": 116.863}, {"pitch": 74, "velocity": 57, "note_on_time": 116.875, "note_off_time": 117.225}, {"pitch": 72, "velocity": 86, "note_on_time": 117.132, "note_off_time": 117.399}, {"pitch": 72, "velocity": 61, "note_on_time": 117.558, "note_off_time": 117.802}, {"pitch": 74, "velocity": 1, "note_on_time": 118.059, "note_off_time": 118.27}, {"pitch": 72, "velocity": 65, "note_on_time": 118.319, "note_off_time": 118.511}, {"pitch": 72, "velocity": 63, "note_on_time": 118.668, "note_off_time": 118.829}, {"pitch": 72, "velocity": 58, "note_on_time": 119.036, "note_off_time": 119.326}, {"pitch": 76, "velocity": 50, "note_on_time": 119.528, "note_off_time": 119.71}, {"pitch": 76, "velocity": 49, "note_on_time": 119.842, "note_off_time": 120.014}, {"pitch": 76, "velocity": 49, "note_on_time": 120.128, "note_off_time": 120.335}, {"pitch": 79, "velocity": 71, "note_on_time": 120.372, "note_off_time": 120.857}, {"pitch": 79, "velocity": 70, "note_on_time": 120.94, "note_off_time": 121.162}, {"pitch": 77, "velocity": 70, "note_on_time": 121.204, "note_off_time": 121.36}, {"pitch": 77, "velocity": 43, "note_on_time": 121.489, "note_off_time": 121.641}, {"pitch": 77, "velocity": 51, "note_on_time": 121.737, "note_off_time": 121.832}, {"pitch": 74, "velocity": 51, "note_on_time": 122.011, "note_off_time": 122.149}, {"pitch": 74, "velocity": 55, "note_on_time": 122.264, "note_off_time": 122.401}, {"pitch": 74, "velocity": 60, "note_on_time": 122.504, "note_off_time": 122.614}, {"pitch": 72, "velocity": 50, "note_on_time": 122.763, "note_off_time": 122.871}, {"pitch": 72, "velocity": 50, "note_on_time": 123.008, "note_off_time": 123.141}, {"pitch": 72, "velocity": 37, "note_on_time": 123.253, "note_off_time": 123.416}, {"pitch": 72, "velocity": 35, "note_on_time": 123.49, "note_off_time": 123.607}, {"pitch": 72, "velocity": 51, "note_on_time": 123.728, "note_off_time": 123.898}, {"pitch": 72, "velocity": 62, "note_on_time": 124.019, "note_off_time": 124.437}, {"pitch": 72, "velocity": 49, "note_on_time": 124.647, "note_off_time": 124.972}, {"pitch": 74, "velocity": 62, "note_on_time": 125.107, "note_off_time": 125.323}, {"pitch": 76, "velocity": 73, "note_on_time": 125.518, "note_off_time": 125.747}, {"pitch": 72, "velocity": 54, "note_on_time": 125.966, "note_off_time": 126.201}, {"pitch": 74, "velocity": 50, "note_on_time": 126.332, "note_off_time": 126.522}, {"pitch": 76, "velocity": 61, "note_on_time": 126.675, "note_off_time": 126.864}, {"pitch": 77, "velocity": 64, "note_on_time": 126.961, "note_off_time": 127.176}, {"pitch": 77, "velocity": 66, "note_on_time": 127.313, "note_off_time": 127.516}, {"pitch": 77, "velocity": 66, "note_on_time": 127.635, "note_off_time": 128.001}, {"pitch": 76, "velocity": 68, "note_on_time": 127.927, "note_off_time": 128.181}, {"pitch": 74, "velocity": 72, "note_on_time": 128.224, "note_off_time": 128.428}, {"pitch": 72, "velocity": 40, "note_on_time": 128.481, "note_off_time": 128.783}, {"pitch": 79, "velocity": 52, "note_on_time": 128.824, "note_off_time": 129.068}, {"pitch": 72, "velocity": 36, "note_on_time": 129.13, "note_off_time": 129.413}, {"pitch": 74, "velocity": 58, "note_on_time": 129.412, "note_off_time": 129.623}, {"pitch": 76, "velocity": 60, "note_on_time": 129.678, "note_off_time": 129.898}, {"pitch": 77, "velocity": 44, "note_on_time": 129.944, "note_off_time": 130.151}, {"pitch": 79, "velocity": 32, "note_on_time": 130.333, "note_off_time": 130.511}, {"pitch": 72, "velocity": 39, "note_on_time": 130.577, "note_off_time": 130.834}, {"pitch": 74, "velocity": 64, "note_on_time": 130.856, "note_off_time": 131.026}, {"pitch": 76, "velocity": 60, "note_on_time": 131.136, "note_off_time": 131.303}, {"pitch": 79, "velocity": 51, "note_on_time": 131.411, "note_off_time": 131.751}, {"pitch": 72, "velocity": 39, "note_on_time": 131.649, "note_off_time": 132.142}, {"pitch": 74, "velocity": 48, "note_on_time": 131.936, "note_off_time": 132.151}, {"pitch": 76, "velocity": 44, "note_on_time": 132.18, "note_off_time": 132.368}, {"pitch": 72, "velocity": 43, "note_on_time": 132.677, "note_off_time": 132.981}, {"pitch": 74, "velocity": 29, "note_on_time": 132.995, "note_off_time": 133.109}, {"pitch": 79, "velocity": 58, "note_on_time": 132.442, "note_off_time": 133.177}, {"pitch": 76, "velocity": 47, "note_on_time": 133.296, "note_off_time": 133.465}, {"pitch": 77, "velocity": 40, "note_on_time": 133.568, "note_off_time": 133.725}, {"pitch": 77, "velocity": 46, "note_on_time": 133.918, "note_off_time": 134.038}, {"pitch": 77, "velocity": 58, "note_on_time": 134.163, "note_off_time": 134.429}, {"pitch": 74, "velocity": 71, "note_on_time": 134.424, "note_off_time": 134.669}, {"pitch": 72, "velocity": 51, "note_on_time": 134.666, "note_off_time": 134.93}, {"pitch": 77, "velocity": 49, "note_on_time": 134.923, "note_off_time": 135.277}, {"pitch": 74, "velocity": 50, "note_on_time": 135.219, "note_off_time": 135.489}, {"pitch": 72, "velocity": 52, "note_on_time": 135.451, "note_off_time": 135.731}, {"pitch": 77, "velocity": 62, "note_on_time": 135.708, "note_off_time": 136.065}, {"pitch": 74, "velocity": 48, "note_on_time": 135.956, "note_off_time": 136.239}, {"pitch": 72, "velocity": 54, "note_on_time": 136.184, "note_off_time": 136.698}, {"pitch": 72, "velocity": 42, "note_on_time": 136.942, "note_off_time": 137.204}, {"pitch": 74, "velocity": 48, "note_on_time": 137.23, "note_off_time": 137.443}, {"pitch": 76, "velocity": 49, "note_on_time": 137.459, "note_off_time": 137.732}, {"pitch": 77, "velocity": 69, "note_on_time": 137.752, "note_off_time": 138.014}, {"pitch": 72, "velocity": 55, "note_on_time": 138.266, "note_off_time": 138.53}, {"pitch": 74, "velocity": 64, "note_on_time": 138.488, "note_off_time": 138.681}, {"pitch": 77, "velocity": 66, "note_on_time": 138.699, "note_off_time": 138.934}, {"pitch": 72, "velocity": 47, "note_on_time": 138.965, "note_off_time": 139.243}, {"pitch": 74, "velocity": 62, "note_on_time": 139.214, "note_off_time": 139.452}, {"pitch": 77, "velocity": 59, "note_on_time": 139.462, "note_off_time": 139.739}, {"pitch": 72, "velocity": 61, "note_on_time": 139.749, "note_off_time": 140.043}, {"pitch": 74, "velocity": 58, "note_on_time": 139.994, "note_off_time": 140.219}, {"pitch": 77, "velocity": 67, "note_on_time": 140.23, "note_off_time": 140.434}, {"pitch": 77, "velocity": 56, "note_on_time": 140.557, "note_off_time": 140.931}, {"pitch": 74, "velocity": 69, "note_on_time": 140.856, "note_off_time": 141.122}, {"pitch": 72, "velocity": 53, "note_on_time": 141.075, "note_off_time": 141.665}, {"pitch": 74, "velocity": 56, "note_on_time": 141.832, "note_off_time": 142.168}, {"pitch": 76, "velocity": 63, "note_on_time": 142.063, "note_off_time": 142.451}, {"pitch": 77, "velocity": 22, "note_on_time": 142.367, "note_off_time": 142.505}, {"pitch": 79, "velocity": 45, "note_on_time": 142.361, "note_off_time": 142.586}, {"pitch": 79, "velocity": 20, "note_on_time": 142.734, "note_off_time": 142.891}, {"pitch": 79, "velocity": 36, "note_on_time": 143.057, "note_off_time": 143.22}, {"pitch": 77, "velocity": 51, "note_on_time": 143.552, "note_off_time": 143.923}, {"pitch": 76, "velocity": 44, "note_on_time": 143.697, "note_off_time": 143.934}, {"pitch": 79, "velocity": 40, "note_on_time": 143.355, "note_off_time": 144.065}, {"pitch": 74, "velocity": 56, "note_on_time": 144.02, "note_off_time": 144.247}, {"pitch": 72, "velocity": 48, "note_on_time": 144.378, "note_off_time": 144.527}, {"pitch": 72, "velocity": 55, "note_on_time": 144.706, "note_off_time": 144.974}, {"pitch": 74, "velocity": 59, "note_on_time": 144.986, "note_off_time": 145.177}, {"pitch": 76, "velocity": 59, "note_on_time": 145.282, "note_off_time": 145.477}, {"pitch": 77, "velocity": 66, "note_on_time": 145.564, "note_off_time": 145.814}, {"pitch": 79, "velocity": 36, "note_on_time": 145.853, "note_off_time": 146.135}, {"pitch": 72, "velocity": 47, "note_on_time": 146.112, "note_off_time": 146.33}, {"pitch": 74, "velocity": 68, "note_on_time": 146.393, "note_off_time": 146.598}, {"pitch": 76, "velocity": 49, "note_on_time": 146.673, "note_off_time": 146.914}, {"pitch": 77, "velocity": 1, "note_on_time": 146.929, "note_off_time": 147.135}, {"pitch": 79, "velocity": 1, "note_on_time": 147.006, "note_off_time": 147.289}, {"pitch": 79, "velocity": 55, "note_on_time": 147.512, "note_off_time": 147.707}, {"pitch": 79, "velocity": 53, "note_on_time": 147.83, "note_off_time": 148.015}, {"pitch": 79, "velocity": 39, "note_on_time": 148.17, "note_off_time": 148.507}, {"pitch": 77, "velocity": 53, "note_on_time": 148.487, "note_off_time": 148.645}, {"pitch": 77, "velocity": 64, "note_on_time": 148.765, "note_off_time": 148.971}, {"pitch": 76, "velocity": 65, "note_on_time": 149.03, "note_off_time": 149.227}, {"pitch": 76, "velocity": 58, "note_on_time": 149.331, "note_off_time": 149.547}, {"pitch": 74, "velocity": 1, "note_on_time": 149.724, "note_off_time": 149.931}, {"pitch": 74, "velocity": 48, "note_on_time": 150.043, "note_off_time": 150.183}, {"pitch": 74, "velocity": 54, "note_on_time": 150.327, "note_off_time": 150.509}, {"pitch": 72, "velocity": 42, "note_on_time": 150.548, "note_off_time": 151.014}, {"pitch": 72, "velocity": 36, "note_on_time": 151.223, "note_off_time": 151.31}, {"pitch": 72, "velocity": 39, "note_on_time": 151.516, "note_off_time": 151.646}, {"pitch": 72, "velocity": 18, "note_on_time": 151.843, "note_off_time": 152.045}, {"pitch": 77, "velocity": 49, "note_on_time": 152.168, "note_off_time": 152.406}, {"pitch": 72, "velocity": 50, "note_on_time": 152.456, "note_off_time": 152.669}, {"pitch": 77, "velocity": 35, "note_on_time": 152.738, "note_off_time": 152.934}, {"pitch": 72, "velocity": 36, "note_on_time": 152.981, "note_off_time": 153.206}, {"pitch": 76, "velocity": 39, "note_on_time": 153.258, "note_off_time": 153.51}, {"pitch": 72, "velocity": 53, "note_on_time": 153.509, "note_off_time": 153.816}, {"pitch": 76, "velocity": 45, "note_on_time": 153.789, "note_off_time": 153.957}, {"pitch": 72, "velocity": 5, "note_on_time": 153.932, "note_off_time": 154.275}, {"pitch": 76, "velocity": 61, "note_on_time": 154.251, "note_off_time": 154.56}, {"pitch": 79, "velocity": 20, "note_on_time": 154.704, "note_off_time": 155.218}, {"pitch": 72, "velocity": 20, "note_on_time": 154.942, "note_off_time": 155.257}, {"pitch": 79, "velocity": 43, "note_on_time": 155.597, "note_off_time": 155.86}, {"pitch": 72, "velocity": 42, "note_on_time": 155.859, "note_off_time": 156.064}, {"pitch": 79, "velocity": 22, "note_on_time": 156.099, "note_off_time": 156.354}, {"pitch": 72, "velocity": 49, "note_on_time": 156.372, "note_off_time": 156.644}, {"pitch": 79, "velocity": 51, "note_on_time": 156.613, "note_off_time": 156.867}, {"pitch": 72, "velocity": 51, "note_on_time": 156.854, "note_off_time": 157.17}, {"pitch": 76, "velocity": 50, "note_on_time": 157.179, "note_off_time": 157.431}, {"pitch": 76, "velocity": 48, "note_on_time": 157.735, "note_off_time": 157.911}, {"pitch": 72, "velocity": 58, "note_on_time": 157.449, "note_off_time": 158.148}, {"pitch": 72, "velocity": 52, "note_on_time": 158.493, "note_off_time": 158.736}, {"pitch": 76, "velocity": 46, "note_on_time": 158.902, "note_off_time": 159.151}, {"pitch": 72, "velocity": 37, "note_on_time": 159.176, "note_off_time": 159.454}, {"pitch": 76, "velocity": 55, "note_on_time": 159.461, "note_off_time": 159.76}, {"pitch": 72, "velocity": 35, "note_on_time": 159.789, "note_off_time": 160.081}, {"pitch": 77, "velocity": 55, "note_on_time": 160.051, "note_off_time": 160.269}, {"pitch": 72, "velocity": 42, "note_on_time": 160.286, "note_off_time": 160.563}, {"pitch": 77, "velocity": 45, "note_on_time": 160.586, "note_off_time": 160.841}, {"pitch": 72, "velocity": 38, "note_on_time": 160.822, "note_off_time": 161.116}, {"pitch": 77, "velocity": 35, "note_on_time": 161.113, "note_off_time": 161.37}, {"pitch": 72, "velocity": 44, "note_on_time": 161.386, "note_off_time": 161.632}, {"pitch": 79, "velocity": 42, "note_on_time": 161.674, "note_off_time": 161.988}, {"pitch": 72, "velocity": 49, "note_on_time": 161.95, "note_off_time": 162.187}, {"pitch": 79, "velocity": 1, "note_on_time": 162.313, "note_off_time": 162.479}, {"pitch": 72, "velocity": 52, "note_on_time": 162.419, "note_off_time": 162.576}, {"pitch": 79, "velocity": 25, "note_on_time": 162.75, "note_off_time": 163.056}, {"pitch": 72, "velocity": 12, "note_on_time": 163.176, "note_off_time": 163.309}, {"pitch": 74, "velocity": 50, "note_on_time": 163.516, "note_off_time": 163.725}, {"pitch": 72, "velocity": 59, "note_on_time": 163.773, "note_off_time": 164.081}, {"pitch": 74, "velocity": 71, "note_on_time": 164.045, "note_off_time": 164.375}, {"pitch": 76, "velocity": 56, "note_on_time": 164.288, "note_off_time": 164.582}, {"pitch": 77, "velocity": 52, "note_on_time": 164.54, "note_off_time": 164.872}, {"pitch": 79, "velocity": 61, "note_on_time": 164.842, "note_off_time": 165.029}, {"pitch": 79, "velocity": 40, "note_on_time": 165.149, "note_off_time": 165.47}, {"pitch": 77, "velocity": 67, "note_on_time": 165.415, "note_off_time": 165.76}, {"pitch": 76, "velocity": 68, "note_on_time": 165.665, "note_off_time": 166.004}, {"pitch": 74, "velocity": 66, "note_on_time": 165.928, "note_off_time": 166.236}, {"pitch": 72, "velocity": 57, "note_on_time": 166.196, "note_off_time": 166.382}, {"pitch": 72, "velocity": 31, "note_on_time": 166.499, "note_off_time": 166.748}, {"pitch": 74, "velocity": 60, "note_on_time": 166.762, "note_off_time": 167.021}, {"pitch": 76, "velocity": 57, "note_on_time": 166.977, "note_off_time": 167.27}, {"pitch": 77, "velocity": 68, "note_on_time": 167.228, "note_off_time": 167.477}, {"pitch": 79, "velocity": 71, "note_on_time": 167.506, "note_off_time": 167.746}, {"pitch": 77, "velocity": 68, "note_on_time": 167.93, "note_off_time": 168.146}, {"pitch": 77, "velocity": 74, "note_on_time": 168.248, "note_off_time": 168.468}, {"pitch": 77, "velocity": 68, "note_on_time": 168.589, "note_off_time": 169.113}, {"pitch": 76, "velocity": 58, "note_on_time": 169.303, "note_off_time": 169.484}, {"pitch": 76, "velocity": 39, "note_on_time": 169.618, "note_off_time": 169.795}, {"pitch": 76, "velocity": 62, "note_on_time": 169.973, "note_off_time": 170.156}, {"pitch": 74, "velocity": 68, "note_on_time": 170.368, "note_off_time": 170.532}, {"pitch": 74, "velocity": 56, "note_on_time": 170.652, "note_off_time": 170.821}, {"pitch": 74, "velocity": 53, "note_on_time": 170.964, "note_off_time": 171.12}, {"pitch": 72, "velocity": 54, "note_on_time": 171.331, "note_off_time": 171.457}, {"pitch": 72, "velocity": 14, "note_on_time": 171.669, "note_off_time": 171.806}, {"pitch": 72, "velocity": 52, "note_on_time": 171.969, "note_off_time": 172.099}, {"pitch": 72, "velocity": 61, "note_on_time": 172.292, "note_off_time": 172.451}, {"pitch": 72, "velocity": 51, "note_on_time": 172.655, "note_off_time": 172.811}, {"pitch": 72, "velocity": 53, "note_on_time": 172.937, "note_off_time": 173.121}, {"pitch": 74, "velocity": 76, "note_on_time": 173.232, "note_off_time": 173.424}, {"pitch": 76, "velocity": 65, "note_on_time": 173.535, "note_off_time": 173.734}, {"pitch": 77, "velocity": 58, "note_on_time": 173.859, "note_off_time": 174.055}, {"pitch": 79, "velocity": 55, "note_on_time": 174.161, "note_off_time": 174.378}, {"pitch": 79, "velocity": 72, "note_on_time": 174.627, "note_off_time": 174.814}, {"pitch": 79, "velocity": 49, "note_on_time": 174.975, "note_off_time": 175.422}, {"pitch": 77, "velocity": 66, "note_on_time": 175.309, "note_off_time": 175.559}, {"pitch": 76, "velocity": 67, "note_on_time": 175.663, "note_off_time": 175.878}, {"pitch": 76, "velocity": 52, "note_on_time": 176.026, "note_off_time": 176.225}, {"pitch": 74, "velocity": 83, "note_on_time": 176.322, "note_off_time": 176.585}, {"pitch": 72, "velocity": 59, "note_on_time": 176.654, "note_off_time": 176.82}, {"pitch": 72, "velocity": 42, "note_on_time": 177.004, "note_off_time": 177.174}, {"pitch": 72, "velocity": 45, "note_on_time": 177.325, "note_off_time": 177.462}, {"pitch": 72, "velocity": 58, "note_on_time": 177.663, "note_off_time": 177.859}, {"pitch": 74, "velocity": 56, "note_on_time": 177.911, "note_off_time": 178.083}, {"pitch": 76, "velocity": 58, "note_on_time": 178.271, "note_off_time": 178.422}, {"pitch": 76, "velocity": 48, "note_on_time": 178.58, "note_off_time": 178.719}, {"pitch": 76, "velocity": 55, "note_on_time": 178.877, "note_off_time": 179.03}, {"pitch": 76, "velocity": 54, "note_on_time": 179.168, "note_off_time": 179.319}, {"pitch": 79, "velocity": 30, "note_on_time": 179.41, "note_off_time": 179.622}, {"pitch": 79, "velocity": 57, "note_on_time": 179.731, "note_off_time": 179.87}, {"pitch": 79, "velocity": 46, "note_on_time": 180.003, "note_off_time": 180.203}, {"pitch": 79, "velocity": 66, "note_on_time": 180.305, "note_off_time": 180.526}, {"pitch": 72, "velocity": 53, "note_on_time": 180.593, "note_off_time": 180.762}, {"pitch": 72, "velocity": 51, "note_on_time": 180.872, "note_off_time": 181.057}, {"pitch": 74, "velocity": 69, "note_on_time": 181.138, "note_off_time": 181.32}, {"pitch": 76, "velocity": 67, "note_on_time": 181.419, "note_off_time": 181.609}, {"pitch": 77, "velocity": 64, "note_on_time": 181.714, "note_off_time": 181.911}, {"pitch": 77, "velocity": 47, "note_on_time": 182.393, "note_off_time": 182.473}, {"pitch": 79, "velocity": 69, "note_on_time": 182.001, "note_off_time": 182.495}, {"pitch": 77, "velocity": 53, "note_on_time": 182.712, "note_off_time": 182.919}, {"pitch": 76, "velocity": 38, "note_on_time": 183.038, "note_off_time": 183.249}, {"pitch": 74, "velocity": 65, "note_on_time": 183.256, "note_off_time": 183.416}, {"pitch": 72, "velocity": 42, "note_on_time": 183.756, "note_off_time": 183.891}, {"pitch": 72, "velocity": 54, "note_on_time": 184.024, "note_off_time": 184.203}, {"pitch": 74, "velocity": 67, "note_on_time": 184.275, "note_off_time": 184.448}, {"pitch": 76, "velocity": 40, "note_on_time": 184.633, "note_off_time": 184.779}, {"pitch": 72, "velocity": 63, "note_on_time": 184.928, "note_off_time": 185.161}, {"pitch": 74, "velocity": 67, "note_on_time": 185.182, "note_off_time": 185.42}, {"pitch": 76, "velocity": 37, "note_on_time": 185.559, "note_off_time": 185.766}, {"pitch": 76, "velocity": 60, "note_on_time": 186.133, "note_off_time": 186.296}, {"pitch": 76, "velocity": 37, "note_on_time": 186.43, "note_off_time": 186.638}, {"pitch": 76, "velocity": 47, "note_on_time": 186.767, "note_off_time": 186.906}, {"pitch": 76, "velocity": 65, "note_on_time": 187.083, "note_off_time": 187.235}, {"pitch": 76, "velocity": 51, "note_on_time": 187.366, "note_off_time": 187.536}, {"pitch": 77, "velocity": 70, "note_on_time": 187.614, "note_off_time": 187.788}, {"pitch": 77, "velocity": 48, "note_on_time": 187.928, "note_off_time": 188.063}, {"pitch": 77, "velocity": 52, "note_on_time": 188.189, "note_off_time": 188.374}, {"pitch": 77, "velocity": 40, "note_on_time": 188.533, "note_off_time": 188.653}, {"pitch": 77, "velocity": 41, "note_on_time": 188.789, "note_off_time": 188.939}, {"pitch": 79, "velocity": 55, "note_on_time": 189.089, "note_off_time": 189.299}, {"pitch": 79, "velocity": 47, "note_on_time": 189.423, "note_off_time": 189.608}, {"pitch": 79, "velocity": 33, "note_on_time": 189.681, "note_off_time": 190.459}, {"pitch": 72, "velocity": 30, "note_on_time": 190.276, "note_off_time": 190.498}, {"pitch": 74, "velocity": 66, "note_on_time": 190.53, "note_off_time": 190.695}, {"pitch": 76, "velocity": 62, "note_on_time": 190.809, "note_off_time": 190.981}, {"pitch": 72, "velocity": 48, "note_on_time": 191.11, "note_off_time": 191.391}, {"pitch": 74, "velocity": 60, "note_on_time": 191.378, "note_off_time": 191.563}, {"pitch": 76, "velocity": 46, "note_on_time": 191.727, "note_off_time": 191.886}, {"pitch": 77, "velocity": 48, "note_on_time": 192.073, "note_off_time": 192.242}, {"pitch": 79, "velocity": 37, "note_on_time": 192.379, "note_off_time": 192.595}, {"pitch": 72, "velocity": 41, "note_on_time": 192.687, "note_off_time": 192.917}, {"pitch": 74, "velocity": 61, "note_on_time": 192.968, "note_off_time": 193.118}, {"pitch": 76, "velocity": 52, "note_on_time": 193.273, "note_off_time": 193.451}, {"pitch": 77, "velocity": 70, "note_on_time": 193.527, "note_off_time": 193.835}, {"pitch": 79, "velocity": 56, "note_on_time": 193.876, "note_off_time": 194.177}, {"pitch": 72, "velocity": 39, "note_on_time": 194.114, "note_off_time": 194.421}]</notes><guidance name="Guidance Mode">None</guidance><error name="Error value">99</error></trial></trials></MIDI>