<MIDI midiNo="2023_06_11-12_46_03"><target_notes><notes name="Note List">[{"pitch": 60, "velocity": 40, "note_on_time": 0.009, "note_off_time": 1.019}, {"pitch": 64, "velocity": 40, "note_on_time": 0.01, "note_off_time": 1.02}, {"pitch": 67, "velocity": 40, "note_on_time": 0.01, "note_off_time": 1.021}, {"pitch": 48, "velocity": 40, "note_on_time": 0.01, "note_off_time": 1.021}, {"pitch": 52, "velocity": 40, "note_on_time": 1.022, "note_off_time": 2.027}, {"pitch": 55, "velocity": 40, "note_on_time": 1.022, "note_off_time": 2.027}, {"pitch": 79, "velocity": 40, "note_on_time": 2.026, "note_off_time": 3.036}, {"pitch": 48, "velocity": 40, "note_on_time": 2.027, "note_off_time": 3.036}, {"pitch": 52, "velocity": 40, "note_on_time": 3.037, "note_off_time": 4.044}, {"pitch": 55, "velocity": 40, "note_on_time": 3.037, "note_off_time": 4.044}, {"pitch": 48, "velocity": 40, "note_on_time": 4.044, "note_off_time": 5.059}, {"pitch": 52, "velocity": 40, "note_on_time": 5.059, "note_off_time": 6.066}, {"pitch": 55, "velocity": 40, "note_on_time": 5.059, "note_off_time": 6.066}, {"pitch": 48, "velocity": 40, "note_on_time": 6.066, "note_off_time": 7.072}, {"pitch": 52, "velocity": 40, "note_on_time": 7.072, "note_off_time": 8.084}, {"pitch": 55, "velocity": 40, "note_on_time": 7.072, "note_off_time": 8.084}, {"pitch": 60, "velocity": 40, "note_on_time": 8.083, "note_off_time": 9.092}, {"pitch": 64, "velocity": 40, "note_on_time": 8.083, "note_off_time": 9.093}, {"pitch": 67, "velocity": 40, "note_on_time": 8.084, "note_off_time": 9.093}, {"pitch": 48, "velocity": 40, "note_on_time": 8.084, "note_off_time": 9.093}, {"pitch": 52, "velocity": 40, "note_on_time": 9.093, "note_off_time": 10.103}, {"pitch": 55, "velocity": 40, "note_on_time": 9.093, "note_off_time": 10.104}, {"pitch": 76, "velocity": 40, "note_on_time": 10.103, "note_off_time": 11.117}, {"pitch": 48, "velocity": 40, "note_on_time": 10.104, "note_off_time": 11.118}, {"pitch": 52, "velocity": 40, "note_on_time": 11.118, "note_off_time": 12.127}, {"pitch": 55, "velocity": 40, "note_on_time": 11.118, "note_off_time": 12.127}, {"pitch": 48, "velocity": 40, "note_on_time": 12.127, "note_off_time": 13.141}, {"pitch": 52, "velocity": 40, "note_on_time": 13.141, "note_off_time": 14.15}, {"pitch": 55, "velocity": 40, "note_on_time": 13.141, "note_off_time": 14.15}, {"pitch": 48, "velocity": 40, "note_on_time": 14.15, "note_off_time": 15.163}, {"pitch": 52, "velocity": 40, "note_on_time": 15.163, "note_off_time": 16.168}, {"pitch": 55, "velocity": 40, "note_on_time": 15.163, "note_off_time": 16.168}, {"pitch": 60, "velocity": 40, "note_on_time": 16.167, "note_off_time": 17.182}, {"pitch": 64, "velocity": 40, "note_on_time": 16.168, "note_off_time": 17.183}, {"pitch": 67, "velocity": 40, "note_on_time": 16.168, "note_off_time": 17.183}, {"pitch": 48, "velocity": 40, "note_on_time": 16.168, "note_off_time": 17.184}, {"pitch": 52, "velocity": 40, "note_on_time": 17.184, "note_off_time": 18.195}, {"pitch": 55, "velocity": 40, "note_on_time": 17.184, "note_off_time": 18.195}, {"pitch": 77, "velocity": 40, "note_on_time": 18.195, "note_off_time": 19.209}, {"pitch": 48, "velocity": 40, "note_on_time": 18.195, "note_off_time": 19.209}, {"pitch": 52, "velocity": 40, "note_on_time": 19.209, "note_off_time": 20.219}, {"pitch": 55, "velocity": 40, "note_on_time": 19.209, "note_off_time": 20.219}, {"pitch": 48, "velocity": 40, "note_on_time": 20.219, "note_off_time": 21.229}, {"pitch": 52, "velocity": 40, "note_on_time": 21.229, "note_off_time": 22.23}, {"pitch": 55, "velocity": 40, "note_on_time": 21.229, "note_off_time": 22.23}, {"pitch": 48, "velocity": 40, "note_on_time": 22.23, "note_off_time": 23.235}, {"pitch": 52, "velocity": 40, "note_on_time": 23.235, "note_off_time": 24.252}, {"pitch": 55, "velocity": 40, "note_on_time": 23.235, "note_off_time": 24.252}, {"pitch": 60, "velocity": 40, "note_on_time": 24.251, "note_off_time": 25.263}, {"pitch": 64, "velocity": 40, "note_on_time": 24.251, "note_off_time": 25.264}, {"pitch": 67, "velocity": 40, "note_on_time": 24.252, "note_off_time": 25.264}, {"pitch": 48, "velocity": 40, "note_on_time": 24.252, "note_off_time": 25.264}, {"pitch": 52, "velocity": 40, "note_on_time": 25.264, "note_off_time": 26.281}, {"pitch": 55, "velocity": 40, "note_on_time": 25.264, "note_off_time": 26.281}, {"pitch": 79, "velocity": 40, "note_on_time": 26.28, "note_off_time": 27.294}, {"pitch": 48, "velocity": 40, "note_on_time": 26.281, "note_off_time": 27.294}, {"pitch": 52, "velocity": 40, "note_on_time": 27.294, "note_off_time": 28.295}, {"pitch": 55, "velocity": 40, "note_on_time": 27.294, "note_off_time": 28.295}, {"pitch": 48, "velocity": 40, "note_on_time": 28.295, "note_off_time": 29.299}, {"pitch": 52, "velocity": 40, "note_on_time": 29.299, "note_off_time": 30.304}, {"pitch": 55, "velocity": 40, "note_on_time": 29.299, "note_off_time": 30.304}, {"pitch": 48, "velocity": 40, "note_on_time": 30.304, "note_off_time": 31.311}, {"pitch": 52, "velocity": 40, "note_on_time": 31.311, "note_off_time": 32.327}, {"pitch": 55, "velocity": 40, "note_on_time": 31.311, "note_off_time": 32.327}, {"pitch": 60, "velocity": 40, "note_on_time": 32.326, "note_off_time": 33.342}, {"pitch": 64, "velocity": 40, "note_on_time": 32.327, "note_off_time": 33.343}, {"pitch": 67, "velocity": 40, "note_on_time": 32.327, "note_off_time": 33.343}, {"pitch": 48, "velocity": 40, "note_on_time": 32.328, "note_off_time": 33.343}, {"pitch": 52, "velocity": 40, "note_on_time": 33.343, "note_off_time": 34.352}, {"pitch": 55, "velocity": 40, "note_on_time": 33.343, "note_off_time": 34.353}, {"pitch": 72, "velocity": 40, "note_on_time": 34.352, "note_off_time": 35.367}, {"pitch": 48, "velocity": 40, "note_on_time": 34.353, "note_off_time": 35.367}, {"pitch": 52, "velocity": 40, "note_on_time": 35.367, "note_off_time": 36.383}, {"pitch": 55, "velocity": 40, "note_on_time": 35.367, "note_off_time": 36.383}, {"pitch": 48, "velocity": 40, "note_on_time": 36.383, "note_off_time": 37.394}, {"pitch": 52, "velocity": 40, "note_on_time": 37.394, "note_off_time": 38.407}, {"pitch": 55, "velocity": 40, "note_on_time": 37.394, "note_off_time": 38.407}, {"pitch": 48, "velocity": 40, "note_on_time": 38.407, "note_off_time": 39.421}, {"pitch": 52, "velocity": 40, "note_on_time": 39.421, "note_off_time": 40.423}, {"pitch": 55, "velocity": 40, "note_on_time": 39.421, "note_off_time": 40.423}, {"pitch": 60, "velocity": 40, "note_on_time": 40.423, "note_off_time": 41.425}, {"pitch": 64, "velocity": 40, "note_on_time": 40.423, "note_off_time": 41.426}, {"pitch": 67, "velocity": 40, "note_on_time": 40.423, "note_off_time": 41.427}, {"pitch": 76, "velocity": 40, "note_on_time": 42.439, "note_off_time": 43.441}, {"pitch": 60, "velocity": 40, "note_on_time": 48.446, "note_off_time": 49.449}, {"pitch": 64, "velocity": 40, "note_on_time": 48.447, "note_off_time": 49.45}, {"pitch": 67, "velocity": 40, "note_on_time": 48.447, "note_off_time": 49.451}, {"pitch": 74, "velocity": 40, "note_on_time": 50.456, "note_off_time": 51.464}, {"pitch": 60, "velocity": 40, "note_on_time": 56.474, "note_off_time": 57.489}, {"pitch": 64, "velocity": 40, "note_on_time": 56.475, "note_off_time": 57.49}, {"pitch": 67, "velocity": 40, "note_on_time": 56.475, "note_off_time": 57.49}, {"pitch": 72, "velocity": 40, "note_on_time": 58.501, "note_off_time": 59.512}, {"pitch": 60, "velocity": 40, "note_on_time": 64.522, "note_off_time": 65.533}, {"pitch": 64, "velocity": 40, "note_on_time": 64.523, "note_off_time": 65.533}, {"pitch": 67, "velocity": 40, "note_on_time": 64.523, "note_off_time": 65.534}, {"pitch": 79, "velocity": 40, "note_on_time": 66.55, "note_off_time": 67.562}, {"pitch": 60, "velocity": 40, "note_on_time": 72.567, "note_off_time": 73.569}, {"pitch": 64, "velocity": 40, "note_on_time": 72.568, "note_off_time": 73.57}, {"pitch": 67, "velocity": 40, "note_on_time": 72.568, "note_off_time": 73.57}, {"pitch": 77, "velocity": 40, "note_on_time": 74.582, "note_off_time": 75.583}, {"pitch": 60, "velocity": 40, "note_on_time": 80.596, "note_off_time": 81.604}, {"pitch": 64, "velocity": 40, "note_on_time": 80.596, "note_off_time": 81.605}, {"pitch": 67, "velocity": 40, "note_on_time": 80.596, "note_off_time": 81.606}, {"pitch": 72, "velocity": 40, "note_on_time": 82.617, "note_off_time": 83.618}, {"pitch": 60, "velocity": 40, "note_on_time": 88.625, "note_off_time": 89.643}, {"pitch": 64, "velocity": 40, "note_on_time": 88.626, "note_off_time": 89.644}, {"pitch": 67, "velocity": 40, "note_on_time": 88.627, "note_off_time": 89.645}, {"pitch": 76, "velocity": 40, "note_on_time": 90.651, "note_off_time": 91.658}, {"pitch": 60, "velocity": 40, "note_on_time": 96.661, "note_off_time": 97.669}, {"pitch": 64, "velocity": 40, "note_on_time": 96.661, "note_off_time": 97.669}, {"pitch": 67, "velocity": 40, "note_on_time": 96.662, "note_off_time": 97.67}, {"pitch": 74, "velocity": 40, "note_on_time": 98.673, "note_off_time": 99.689}, {"pitch": 60, "velocity": 40, "note_on_time": 104.695, "note_off_time": 105.697}, {"pitch": 64, "velocity": 40, "note_on_time": 104.696, "note_off_time": 105.698}, {"pitch": 67, "velocity": 40, "note_on_time": 104.696, "note_off_time": 105.699}, {"pitch": 79, "velocity": 40, "note_on_time": 106.711, "note_off_time": 107.717}, {"pitch": 60, "velocity": 40, "note_on_time": 112.727, "note_off_time": 113.742}, {"pitch": 64, "velocity": 40, "note_on_time": 112.728, "note_off_time": 113.743}, {"pitch": 67, "velocity": 40, "note_on_time": 112.729, "note_off_time": 113.743}, {"pitch": 74, "velocity": 40, "note_on_time": 114.752, "note_off_time": 115.764}, {"pitch": 60, "velocity": 40, "note_on_time": 120.765, "note_off_time": 121.773}, {"pitch": 64, "velocity": 40, "note_on_time": 120.765, "note_off_time": 121.78}, {"pitch": 67, "velocity": 40, "note_on_time": 120.766, "note_off_time": 121.781}, {"pitch": 76, "velocity": 40, "note_on_time": 122.785, "note_off_time": 123.799}, {"pitch": 60, "velocity": 40, "note_on_time": 128.804, "note_off_time": 129.812}, {"pitch": 64, "velocity": 40, "note_on_time": 128.806, "note_off_time": 129.814}, {"pitch": 67, "velocity": 40, "note_on_time": 128.806, "note_off_time": 129.814}, {"pitch": 77, "velocity": 40, "note_on_time": 130.824, "note_off_time": 131.835}, {"pitch": 60, "velocity": 40, "note_on_time": 136.841, "note_off_time": 137.852}, {"pitch": 64, "velocity": 40, "note_on_time": 136.842, "note_off_time": 137.854}, {"pitch": 67, "velocity": 40, "note_on_time": 136.842, "note_off_time": 137.854}, {"pitch": 72, "velocity": 40, "note_on_time": 138.87, "note_off_time": 139.872}, {"pitch": 60, "velocity": 40, "note_on_time": 144.882, "note_off_time": 145.895}, {"pitch": 64, "velocity": 40, "note_on_time": 144.882, "note_off_time": 145.896}, {"pitch": 67, "velocity": 40, "note_on_time": 144.882, "note_off_time": 145.897}, {"pitch": 74, "velocity": 40, "note_on_time": 146.907, "note_off_time": 147.914}, {"pitch": 60, "velocity": 40, "note_on_time": 152.928, "note_off_time": 153.932}, {"pitch": 64, "velocity": 40, "note_on_time": 152.928, "note_off_time": 153.932}, {"pitch": 67, "velocity": 40, "note_on_time": 152.928, "note_off_time": 153.932}, {"pitch": 77, "velocity": 40, "note_on_time": 154.94, "note_off_time": 155.953}, {"pitch": 60, "velocity": 40, "note_on_time": 160.962, "note_off_time": 161.972}, {"pitch": 64, "velocity": 40, "note_on_time": 160.963, "note_off_time": 161.973}, {"pitch": 67, "velocity": 40, "note_on_time": 160.963, "note_off_time": 161.974}, {"pitch": 79, "velocity": 40, "note_on_time": 162.985, "note_off_time": 163.99}]</notes><options name="Option List">((4, 4), [0.5, 0.25], 3, 8, &lt;NoteRangePerHand.TWO_NOTES: 3&gt;, &lt;NoteRangePerHand.ONE_NOTE: 2&gt;, False, True, True, 100)</options></target_notes><trials><trial trial_no="1" timestamp="2023_06_11-12_43_19"><notes name="Played Notes">[{"pitch": 74, "velocity": 22, "note_on_time": 12.439, "note_off_time": 12.937}, {"pitch": 79, "velocity": 35, "note_on_time": 15.45, "note_off_time": 15.807}, {"pitch": 77, "velocity": 74, "note_on_time": 18.894, "note_off_time": 19.181}, {"pitch": 77, "velocity": 81, "note_on_time": 19.677, "note_off_time": 19.995}, {"pitch": 76, "velocity": 45, "note_on_time": 21.223, "note_off_time": 21.61}, {"pitch": 76, "velocity": 57, "note_on_time": 25.853, "note_off_time": 26.365}, {"pitch": 74, "velocity": 62, "note_on_time": 27.7, "note_off_time": 28.243}, {"pitch": 74, "velocity": 62, "note_on_time": 33.943, "note_off_time": 34.622}, {"pitch": 76, "velocity": 49, "note_on_time": 37.892, "note_off_time": 38.35}, {"pitch": 77, "velocity": 54, "note_on_time": 39.396, "note_off_time": 40.203}, {"pitch": 79, "velocity": 41, "note_on_time": 42.226, "note_off_time": 42.627}, {"pitch": 72, "velocity": 60, "note_on_time": 44.522, "note_off_time": 45.363}, {"pitch": 76, "velocity": 59, "note_on_time": 50.637, "note_off_time": 51.126}, {"pitch": 74, "velocity": 67, "note_on_time": 56.018, "note_off_time": 56.724}, {"pitch": 74, "velocity": 71, "note_on_time": 58.647, "note_off_time": 59.417}, {"pitch": 77, "velocity": 32, "note_on_time": 66.714, "note_off_time": 67.402}, {"pitch": 77, "velocity": 38, "note_on_time": 76.008, "note_off_time": 76.286}, {"pitch": 79, "velocity": 59, "note_on_time": 82.593, "note_off_time": 83.133}, {"pitch": 76, "velocity": 43, "note_on_time": 84.411, "note_off_time": 85.045}, {"pitch": 77, "velocity": 37, "note_on_time": 90.164, "note_off_time": 90.651}, {"pitch": 79, "velocity": 56, "note_on_time": 91.52, "note_off_time": 91.984}, {"pitch": 74, "velocity": 75, "note_on_time": 92.518, "note_off_time": 93.055}, {"pitch": 72, "velocity": 35, "note_on_time": 94.028, "note_off_time": 94.935}, {"pitch": 72, "velocity": 48, "note_on_time": 98.233, "note_off_time": 99.06}, {"pitch": 74, "velocity": 56, "note_on_time": 108.692, "note_off_time": 109.544}, {"pitch": 77, "velocity": 58, "note_on_time": 114.312, "note_off_time": 114.86}, {"pitch": 74, "velocity": 63, "note_on_time": 115.583, "note_off_time": 115.97}, {"pitch": 74, "velocity": 73, "note_on_time": 116.324, "note_off_time": 116.845}, {"pitch": 76, "velocity": 43, "note_on_time": 117.709, "note_off_time": 118.316}, {"pitch": 74, "velocity": 58, "note_on_time": 132.899, "note_off_time": 133.723}, {"pitch": 77, "velocity": 58, "note_on_time": 140.741, "note_off_time": 141.404}, {"pitch": 76, "velocity": 49, "note_on_time": 149.627, "note_off_time": 150.376}, {"pitch": 79, "velocity": 38, "note_on_time": 157.329, "note_off_time": 158.198}]</notes><guidance name="Guidance Mode">None</guidance><error name="Error value">99</error></trial><trial trial_no="2" timestamp="2023_06_11-12_47_39"><notes name="Played Notes">[{"pitch": 72, "velocity": 56, "note_on_time": 4.041, "note_off_time": 4.652}, {"pitch": 74, "velocity": 71, "note_on_time": 4.537, "note_off_time": 4.746}, {"pitch": 76, "velocity": 51, "note_on_time": 5.029, "note_off_time": 5.257}, {"pitch": 77, "velocity": 45, "note_on_time": 5.592, "note_off_time": 5.852}, {"pitch": 79, "velocity": 56, "note_on_time": 6.159, "note_off_time": 6.453}, {"pitch": 72, "velocity": 50, "note_on_time": 7.828, "note_off_time": 8.145}, {"pitch": 74, "velocity": 77, "note_on_time": 8.372, "note_off_time": 8.602}, {"pitch": 76, "velocity": 53, "note_on_time": 8.844, "note_off_time": 9.033}, {"pitch": 77, "velocity": 63, "note_on_time": 9.387, "note_off_time": 9.631}, {"pitch": 79, "velocity": 59, "note_on_time": 9.865, "note_off_time": 10.141}, {"pitch": 72, "velocity": 47, "note_on_time": 11.024, "note_off_time": 11.379}, {"pitch": 74, "velocity": 53, "note_on_time": 11.619, "note_off_time": 11.847}, {"pitch": 76, "velocity": 60, "note_on_time": 12.009, "note_off_time": 12.239}, {"pitch": 77, "velocity": 57, "note_on_time": 12.465, "note_off_time": 12.668}, {"pitch": 79, "velocity": 37, "note_on_time": 12.912, "note_off_time": 13.194}, {"pitch": 72, "velocity": 9, "note_on_time": 13.879, "note_off_time": 14.184}, {"pitch": 74, "velocity": 72, "note_on_time": 14.428, "note_off_time": 14.614}, {"pitch": 76, "velocity": 56, "note_on_time": 14.829, "note_off_time": 15.033}, {"pitch": 77, "velocity": 58, "note_on_time": 15.227, "note_off_time": 15.414}, {"pitch": 79, "velocity": 53, "note_on_time": 15.752, "note_off_time": 16.075}, {"pitch": 79, "velocity": 50, "note_on_time": 16.946, "note_off_time": 17.231}, {"pitch": 77, "velocity": 55, "note_on_time": 17.539, "note_off_time": 17.729}, {"pitch": 76, "velocity": 31, "note_on_time": 18.153, "note_off_time": 18.465}, {"pitch": 74, "velocity": 72, "note_on_time": 18.768, "note_off_time": 18.979}, {"pitch": 72, "velocity": 57, "note_on_time": 19.355, "note_off_time": 19.598}, {"pitch": 79, "velocity": 54, "note_on_time": 20.028, "note_off_time": 20.318}, {"pitch": 77, "velocity": 51, "note_on_time": 20.616, "note_off_time": 20.795}, {"pitch": 76, "velocity": 50, "note_on_time": 21.129, "note_off_time": 21.355}, {"pitch": 74, "velocity": 65, "note_on_time": 21.633, "note_off_time": 21.791}, {"pitch": 72, "velocity": 61, "note_on_time": 22.113, "note_off_time": 22.308}, {"pitch": 79, "velocity": 46, "note_on_time": 22.645, "note_off_time": 22.922}, {"pitch": 77, "velocity": 46, "note_on_time": 23.278, "note_off_time": 23.511}, {"pitch": 76, "velocity": 56, "note_on_time": 24.321, "note_off_time": 24.501}, {"pitch": 74, "velocity": 57, "note_on_time": 24.864, "note_off_time": 25.053}, {"pitch": 72, "velocity": 50, "note_on_time": 25.385, "note_off_time": 25.647}, {"pitch": 79, "velocity": 37, "note_on_time": 26.137, "note_off_time": 26.542}, {"pitch": 77, "velocity": 27, "note_on_time": 26.859, "note_off_time": 27.094}, {"pitch": 76, "velocity": 62, "note_on_time": 27.344, "note_off_time": 27.563}, {"pitch": 74, "velocity": 57, "note_on_time": 27.808, "note_off_time": 28.039}, {"pitch": 72, "velocity": 55, "note_on_time": 28.327, "note_off_time": 28.581}, {"pitch": 79, "velocity": 58, "note_on_time": 28.993, "note_off_time": 29.307}, {"pitch": 77, "velocity": 60, "note_on_time": 29.67, "note_off_time": 29.864}, {"pitch": 76, "velocity": 48, "note_on_time": 30.153, "note_off_time": 30.388}, {"pitch": 74, "velocity": 61, "note_on_time": 30.666, "note_off_time": 30.868}, {"pitch": 72, "velocity": 56, "note_on_time": 31.249, "note_off_time": 31.546}, {"pitch": 79, "velocity": 36, "note_on_time": 32.261, "note_off_time": 32.515}, {"pitch": 77, "velocity": 54, "note_on_time": 32.709, "note_off_time": 32.936}, {"pitch": 76, "velocity": 58, "note_on_time": 33.224, "note_off_time": 33.492}, {"pitch": 74, "velocity": 59, "note_on_time": 33.653, "note_off_time": 33.845}, {"pitch": 72, "velocity": 50, "note_on_time": 34.191, "note_off_time": 34.47}, {"pitch": 74, "velocity": 64, "note_on_time": 37.103, "note_off_time": 37.421}, {"pitch": 76, "velocity": 51, "note_on_time": 37.684, "note_off_time": 37.902}, {"pitch": 76, "velocity": 41, "note_on_time": 38.107, "note_off_time": 38.303}, {"pitch": 77, "velocity": 63, "note_on_time": 38.602, "note_off_time": 38.835}, {"pitch": 79, "velocity": 25, "note_on_time": 39.362, "note_off_time": 39.79}, {"pitch": 72, "velocity": 61, "note_on_time": 40.06, "note_off_time": 40.277}, {"pitch": 74, "velocity": 50, "note_on_time": 40.805, "note_off_time": 41.0}, {"pitch": 76, "velocity": 53, "note_on_time": 41.282, "note_off_time": 41.484}, {"pitch": 77, "velocity": 51, "note_on_time": 41.722, "note_off_time": 41.943}, {"pitch": 79, "velocity": 41, "note_on_time": 42.204, "note_off_time": 42.432}, {"pitch": 72, "velocity": 48, "note_on_time": 42.825, "note_off_time": 43.038}, {"pitch": 74, "velocity": 60, "note_on_time": 43.518, "note_off_time": 43.717}, {"pitch": 76, "velocity": 44, "note_on_time": 43.976, "note_off_time": 44.147}, {"pitch": 77, "velocity": 39, "note_on_time": 44.557, "note_off_time": 44.79}, {"pitch": 79, "velocity": 37, "note_on_time": 45.112, "note_off_time": 45.618}, {"pitch": 72, "velocity": 50, "note_on_time": 46.146, "note_off_time": 46.392}, {"pitch": 74, "velocity": 62, "note_on_time": 47.311, "note_off_time": 47.479}, {"pitch": 76, "velocity": 55, "note_on_time": 47.716, "note_off_time": 47.901}, {"pitch": 77, "velocity": 59, "note_on_time": 48.077, "note_off_time": 48.242}, {"pitch": 79, "velocity": 49, "note_on_time": 48.485, "note_off_time": 48.807}, {"pitch": 72, "velocity": 39, "note_on_time": 49.239, "note_off_time": 49.52}, {"pitch": 74, "velocity": 50, "note_on_time": 54.511, "note_off_time": 54.752}, {"pitch": 76, "velocity": 31, "note_on_time": 54.999, "note_off_time": 55.208}, {"pitch": 77, "velocity": 26, "note_on_time": 55.44, "note_off_time": 55.687}, {"pitch": 72, "velocity": 54, "note_on_time": 55.92, "note_off_time": 56.197}, {"pitch": 79, "velocity": 62, "note_on_time": 56.428, "note_off_time": 56.701}, {"pitch": 74, "velocity": 60, "note_on_time": 57.032, "note_off_time": 57.243}, {"pitch": 76, "velocity": 27, "note_on_time": 57.535, "note_off_time": 57.784}, {"pitch": 77, "velocity": 57, "note_on_time": 58.025, "note_off_time": 58.198}, {"pitch": 72, "velocity": 41, "note_on_time": 58.485, "note_off_time": 58.706}, {"pitch": 79, "velocity": 46, "note_on_time": 58.982, "note_off_time": 59.242}, {"pitch": 74, "velocity": 49, "note_on_time": 59.552, "note_off_time": 59.776}, {"pitch": 76, "velocity": 56, "note_on_time": 60.011, "note_off_time": 60.221}, {"pitch": 77, "velocity": 54, "note_on_time": 60.453, "note_off_time": 60.617}, {"pitch": 72, "velocity": 41, "note_on_time": 60.894, "note_off_time": 61.133}, {"pitch": 79, "velocity": 49, "note_on_time": 61.38, "note_off_time": 61.669}, {"pitch": 74, "velocity": 62, "note_on_time": 61.939, "note_off_time": 62.181}, {"pitch": 76, "velocity": 49, "note_on_time": 62.416, "note_off_time": 62.613}, {"pitch": 77, "velocity": 57, "note_on_time": 62.824, "note_off_time": 62.955}, {"pitch": 72, "velocity": 41, "note_on_time": 63.248, "note_off_time": 63.488}, {"pitch": 79, "velocity": 49, "note_on_time": 63.972, "note_off_time": 64.252}, {"pitch": 72, "velocity": 61, "note_on_time": 67.953, "note_off_time": 68.154}, {"pitch": 74, "velocity": 39, "note_on_time": 69.362, "note_off_time": 69.614}, {"pitch": 79, "velocity": 52, "note_on_time": 70.538, "note_off_time": 70.841}, {"pitch": 77, "velocity": 15, "note_on_time": 71.044, "note_off_time": 71.28}, {"pitch": 76, "velocity": 69, "note_on_time": 71.741, "note_off_time": 71.926}, {"pitch": 72, "velocity": 54, "note_on_time": 72.591, "note_off_time": 72.836}, {"pitch": 74, "velocity": 67, "note_on_time": 74.56, "note_off_time": 74.791}, {"pitch": 79, "velocity": 56, "note_on_time": 75.095, "note_off_time": 75.374}, {"pitch": 77, "velocity": 42, "note_on_time": 75.505, "note_off_time": 75.697}, {"pitch": 76, "velocity": 61, "note_on_time": 75.966, "note_off_time": 76.201}, {"pitch": 72, "velocity": 45, "note_on_time": 76.657, "note_off_time": 76.921}, {"pitch": 74, "velocity": 52, "note_on_time": 78.824, "note_off_time": 79.045}, {"pitch": 79, "velocity": 58, "note_on_time": 80.119, "note_off_time": 80.324}, {"pitch": 77, "velocity": 57, "note_on_time": 80.533, "note_off_time": 80.694}, {"pitch": 76, "velocity": 59, "note_on_time": 80.926, "note_off_time": 81.118}, {"pitch": 72, "velocity": 62, "note_on_time": 81.829, "note_off_time": 82.037}, {"pitch": 79, "velocity": 51, "note_on_time": 82.631, "note_off_time": 82.875}, {"pitch": 72, "velocity": 65, "note_on_time": 84.051, "note_off_time": 84.192}, {"pitch": 74, "velocity": 70, "note_on_time": 84.481, "note_off_time": 84.641}, {"pitch": 79, "velocity": 51, "note_on_time": 84.852, "note_off_time": 85.248}, {"pitch": 77, "velocity": 31, "note_on_time": 85.276, "note_off_time": 85.47}, {"pitch": 76, "velocity": 77, "note_on_time": 85.768, "note_off_time": 86.04}, {"pitch": 72, "velocity": 39, "note_on_time": 87.427, "note_off_time": 87.647}, {"pitch": 79, "velocity": 49, "note_on_time": 88.414, "note_off_time": 88.702}, {"pitch": 77, "velocity": 62, "note_on_time": 90.94, "note_off_time": 91.113}, {"pitch": 76, "velocity": 62, "note_on_time": 91.338, "note_off_time": 91.509}, {"pitch": 74, "velocity": 70, "note_on_time": 91.777, "note_off_time": 92.094}, {"pitch": 76, "velocity": 64, "note_on_time": 95.672, "note_off_time": 95.914}, {"pitch": 74, "velocity": 56, "note_on_time": 96.221, "note_off_time": 96.414}, {"pitch": 72, "velocity": 41, "note_on_time": 96.712, "note_off_time": 96.918}, {"pitch": 77, "velocity": 46, "note_on_time": 97.383, "note_off_time": 97.582}, {"pitch": 79, "velocity": 58, "note_on_time": 97.838, "note_off_time": 98.034}, {"pitch": 76, "velocity": 55, "note_on_time": 99.599, "note_off_time": 99.81}, {"pitch": 74, "velocity": 72, "note_on_time": 100.321, "note_off_time": 100.557}, {"pitch": 72, "velocity": 46, "note_on_time": 100.756, "note_off_time": 101.007}, {"pitch": 77, "velocity": 55, "note_on_time": 102.638, "note_off_time": 102.85}, {"pitch": 79, "velocity": 60, "note_on_time": 103.035, "note_off_time": 103.311}, {"pitch": 76, "velocity": 51, "note_on_time": 104.041, "note_off_time": 104.23}, {"pitch": 74, "velocity": 63, "note_on_time": 104.422, "note_off_time": 104.63}, {"pitch": 72, "velocity": 41, "note_on_time": 104.826, "note_off_time": 105.028}, {"pitch": 77, "velocity": 41, "note_on_time": 106.085, "note_off_time": 106.323}, {"pitch": 79, "velocity": 51, "note_on_time": 106.572, "note_off_time": 106.928}, {"pitch": 76, "velocity": 55, "note_on_time": 107.344, "note_off_time": 107.555}, {"pitch": 74, "velocity": 62, "note_on_time": 107.807, "note_off_time": 108.026}, {"pitch": 72, "velocity": 45, "note_on_time": 108.257, "note_off_time": 108.471}, {"pitch": 79, "velocity": 49, "note_on_time": 108.69, "note_off_time": 108.913}, {"pitch": 77, "velocity": 50, "note_on_time": 109.173, "note_off_time": 109.385}, {"pitch": 72, "velocity": 55, "note_on_time": 110.031, "note_off_time": 110.272}, {"pitch": 76, "velocity": 67, "note_on_time": 113.185, "note_off_time": 113.387}, {"pitch": 74, "velocity": 72, "note_on_time": 113.55, "note_off_time": 113.744}, {"pitch": 72, "velocity": 47, "note_on_time": 113.911, "note_off_time": 114.111}, {"pitch": 79, "velocity": 66, "note_on_time": 114.246, "note_off_time": 114.476}, {"pitch": 77, "velocity": 29, "note_on_time": 114.726, "note_off_time": 115.151}, {"pitch": 77, "velocity": 55, "note_on_time": 118.245, "note_off_time": 118.506}, {"pitch": 79, "velocity": 53, "note_on_time": 119.243, "note_off_time": 119.638}, {"pitch": 76, "velocity": 53, "note_on_time": 119.924, "note_off_time": 120.08}, {"pitch": 74, "velocity": 70, "note_on_time": 120.547, "note_off_time": 120.698}, {"pitch": 72, "velocity": 59, "note_on_time": 121.06, "note_off_time": 121.26}, {"pitch": 77, "velocity": 36, "note_on_time": 121.942, "note_off_time": 122.175}, {"pitch": 79, "velocity": 56, "note_on_time": 122.463, "note_off_time": 122.821}, {"pitch": 76, "velocity": 58, "note_on_time": 122.939, "note_off_time": 123.081}, {"pitch": 74, "velocity": 74, "note_on_time": 123.272, "note_off_time": 123.495}, {"pitch": 72, "velocity": 47, "note_on_time": 123.664, "note_off_time": 123.911}, {"pitch": 77, "velocity": 41, "note_on_time": 124.611, "note_off_time": 124.896}, {"pitch": 79, "velocity": 35, "note_on_time": 125.348, "note_off_time": 125.632}, {"pitch": 76, "velocity": 41, "note_on_time": 126.676, "note_off_time": 126.88}, {"pitch": 74, "velocity": 72, "note_on_time": 127.019, "note_off_time": 127.213}, {"pitch": 72, "velocity": 58, "note_on_time": 127.409, "note_off_time": 127.646}, {"pitch": 77, "velocity": 71, "note_on_time": 128.499, "note_off_time": 128.702}, {"pitch": 79, "velocity": 61, "note_on_time": 128.938, "note_off_time": 129.117}, {"pitch": 76, "velocity": 49, "note_on_time": 129.432, "note_off_time": 129.623}, {"pitch": 74, "velocity": 39, "note_on_time": 129.77, "note_off_time": 129.956}, {"pitch": 72, "velocity": 56, "note_on_time": 130.198, "note_off_time": 130.412}, {"pitch": 74, "velocity": 61, "note_on_time": 133.516, "note_off_time": 133.759}, {"pitch": 72, "velocity": 60, "note_on_time": 134.017, "note_off_time": 134.24}, {"pitch": 76, "velocity": 67, "note_on_time": 134.585, "note_off_time": 134.802}, {"pitch": 77, "velocity": 66, "note_on_time": 134.974, "note_off_time": 135.178}, {"pitch": 79, "velocity": 62, "note_on_time": 135.39, "note_off_time": 135.631}, {"pitch": 74, "velocity": 55, "note_on_time": 135.998, "note_off_time": 136.149}, {"pitch": 72, "velocity": 58, "note_on_time": 136.355, "note_off_time": 136.529}, {"pitch": 76, "velocity": 67, "note_on_time": 136.721, "note_off_time": 136.914}, {"pitch": 77, "velocity": 54, "note_on_time": 137.058, "note_off_time": 137.223}, {"pitch": 79, "velocity": 62, "note_on_time": 137.402, "note_off_time": 137.561}, {"pitch": 74, "velocity": 64, "note_on_time": 137.977, "note_off_time": 138.162}, {"pitch": 72, "velocity": 53, "note_on_time": 138.338, "note_off_time": 138.511}, {"pitch": 76, "velocity": 59, "note_on_time": 138.699, "note_off_time": 138.867}, {"pitch": 77, "velocity": 63, "note_on_time": 138.997, "note_off_time": 139.163}, {"pitch": 79, "velocity": 55, "note_on_time": 139.317, "note_off_time": 139.468}, {"pitch": 74, "velocity": 67, "note_on_time": 140.167, "note_off_time": 140.352}, {"pitch": 71, "velocity": 28, "note_on_time": 140.627, "note_off_time": 140.705}, {"pitch": 72, "velocity": 26, "note_on_time": 140.619, "note_off_time": 140.835}, {"pitch": 76, "velocity": 60, "note_on_time": 141.506, "note_off_time": 141.751}, {"pitch": 77, "velocity": 41, "note_on_time": 142.423, "note_off_time": 142.628}, {"pitch": 79, "velocity": 57, "note_on_time": 142.861, "note_off_time": 143.383}, {"pitch": 72, "velocity": 68, "note_on_time": 148.145, "note_off_time": 148.377}, {"pitch": 74, "velocity": 74, "note_on_time": 148.69, "note_off_time": 148.911}, {"pitch": 76, "velocity": 61, "note_on_time": 149.14, "note_off_time": 149.33}, {"pitch": 77, "velocity": 72, "note_on_time": 149.625, "note_off_time": 149.825}, {"pitch": 79, "velocity": 53, "note_on_time": 150.106, "note_off_time": 150.36}, {"pitch": 72, "velocity": 56, "note_on_time": 150.774, "note_off_time": 150.966}, {"pitch": 74, "velocity": 68, "note_on_time": 151.182, "note_off_time": 151.353}, {"pitch": 76, "velocity": 59, "note_on_time": 151.484, "note_off_time": 151.648}, {"pitch": 77, "velocity": 57, "note_on_time": 151.823, "note_off_time": 152.029}, {"pitch": 79, "velocity": 46, "note_on_time": 152.385, "note_off_time": 152.668}, {"pitch": 72, "velocity": 51, "note_on_time": 153.076, "note_off_time": 153.295}, {"pitch": 74, "velocity": 71, "note_on_time": 153.415, "note_off_time": 153.576}, {"pitch": 76, "velocity": 63, "note_on_time": 153.705, "note_off_time": 153.853}, {"pitch": 77, "velocity": 53, "note_on_time": 154.031, "note_off_time": 154.196}, {"pitch": 79, "velocity": 50, "note_on_time": 154.339, "note_off_time": 154.631}, {"pitch": 72, "velocity": 55, "note_on_time": 154.842, "note_off_time": 155.066}, {"pitch": 74, "velocity": 60, "note_on_time": 155.152, "note_off_time": 155.28}, {"pitch": 76, "velocity": 56, "note_on_time": 155.44, "note_off_time": 155.604}, {"pitch": 77, "velocity": 52, "note_on_time": 155.783, "note_off_time": 155.92}, {"pitch": 79, "velocity": 56, "note_on_time": 156.126, "note_off_time": 156.379}, {"pitch": 79, "velocity": 48, "note_on_time": 157.103, "note_off_time": 157.371}, {"pitch": 77, "velocity": 42, "note_on_time": 157.46, "note_off_time": 157.619}, {"pitch": 76, "velocity": 49, "note_on_time": 157.784, "note_off_time": 158.001}, {"pitch": 74, "velocity": 36, "note_on_time": 158.084, "note_off_time": 158.337}, {"pitch": 72, "velocity": 56, "note_on_time": 158.472, "note_off_time": 158.706}, {"pitch": 79, "velocity": 54, "note_on_time": 158.945, "note_off_time": 159.202}, {"pitch": 77, "velocity": 43, "note_on_time": 159.318, "note_off_time": 159.562}, {"pitch": 76, "velocity": 58, "note_on_time": 159.653, "note_off_time": 159.894}, {"pitch": 74, "velocity": 40, "note_on_time": 159.999, "note_off_time": 160.166}, {"pitch": 72, "velocity": 55, "note_on_time": 160.371, "note_off_time": 160.545}, {"pitch": 79, "velocity": 57, "note_on_time": 160.838, "note_off_time": 161.296}, {"pitch": 77, "velocity": 29, "note_on_time": 161.201, "note_off_time": 161.446}, {"pitch": 74, "velocity": 46, "note_on_time": 161.946, "note_off_time": 162.082}, {"pitch": 76, "velocity": 68, "note_on_time": 161.577, "note_off_time": 162.381}, {"pitch": 72, "velocity": 64, "note_on_time": 162.286, "note_off_time": 162.409}, {"pitch": 79, "velocity": 60, "note_on_time": 163.187, "note_off_time": 163.526}, {"pitch": 74, "velocity": 60, "note_on_time": 165.148, "note_off_time": 165.523}, {"pitch": 76, "velocity": 57, "note_on_time": 164.853, "note_off_time": 165.537}, {"pitch": 77, "velocity": 56, "note_on_time": 164.567, "note_off_time": 165.578}, {"pitch": 72, "velocity": 61, "note_on_time": 165.501, "note_off_time": 165.697}, {"pitch": 79, "velocity": 54, "note_on_time": 164.285, "note_off_time": 165.715}, {"pitch": 72, "velocity": 42, "note_on_time": 170.357, "note_off_time": 170.629}, {"pitch": 79, "velocity": 35, "note_on_time": 171.618, "note_off_time": 172.042}, {"pitch": 77, "velocity": 61, "note_on_time": 172.591, "note_off_time": 172.776}, {"pitch": 76, "velocity": 61, "note_on_time": 172.857, "note_off_time": 173.051}, {"pitch": 74, "velocity": 72, "note_on_time": 173.138, "note_off_time": 173.323}, {"pitch": 72, "velocity": 61, "note_on_time": 173.641, "note_off_time": 173.932}, {"pitch": 79, "velocity": 59, "note_on_time": 174.026, "note_off_time": 174.289}, {"pitch": 77, "velocity": 30, "note_on_time": 174.443, "note_off_time": 174.713}, {"pitch": 76, "velocity": 76, "note_on_time": 175.044, "note_off_time": 175.263}, {"pitch": 74, "velocity": 49, "note_on_time": 175.383, "note_off_time": 175.585}, {"pitch": 72, "velocity": 56, "note_on_time": 175.853, "note_off_time": 176.03}, {"pitch": 79, "velocity": 69, "note_on_time": 176.233, "note_off_time": 176.427}, {"pitch": 77, "velocity": 54, "note_on_time": 176.668, "note_off_time": 176.84}, {"pitch": 76, "velocity": 41, "note_on_time": 177.017, "note_off_time": 177.223}, {"pitch": 74, "velocity": 26, "note_on_time": 177.598, "note_off_time": 177.839}, {"pitch": 72, "velocity": 42, "note_on_time": 180.058, "note_off_time": 181.442}, {"pitch": 79, "velocity": 65, "note_on_time": 180.842, "note_off_time": 181.501}, {"pitch": 77, "velocity": 60, "note_on_time": 182.598, "note_off_time": 182.759}, {"pitch": 77, "velocity": 38, "note_on_time": 182.927, "note_off_time": 182.978}, {"pitch": 76, "velocity": 36, "note_on_time": 182.911, "note_off_time": 183.05}, {"pitch": 74, "velocity": 74, "note_on_time": 183.315, "note_off_time": 183.568}, {"pitch": 81, "velocity": 47, "note_on_time": 184.67, "note_off_time": 184.827}, {"pitch": 79, "velocity": 48, "note_on_time": 184.654, "note_off_time": 185.623}, {"pitch": 72, "velocity": 65, "note_on_time": 184.09, "note_off_time": 185.642}, {"pitch": 77, "velocity": 61, "note_on_time": 186.138, "note_off_time": 186.297}, {"pitch": 76, "velocity": 60, "note_on_time": 186.468, "note_off_time": 186.666}, {"pitch": 74, "velocity": 47, "note_on_time": 186.765, "note_off_time": 186.941}, {"pitch": 72, "velocity": 66, "note_on_time": 187.332, "note_off_time": 187.561}, {"pitch": 79, "velocity": 55, "note_on_time": 187.89, "note_off_time": 188.135}, {"pitch": 77, "velocity": 57, "note_on_time": 188.365, "note_off_time": 188.522}, {"pitch": 76, "velocity": 55, "note_on_time": 188.692, "note_off_time": 188.92}, {"pitch": 74, "velocity": 58, "note_on_time": 188.986, "note_off_time": 189.172}, {"pitch": 72, "velocity": 58, "note_on_time": 189.519, "note_off_time": 189.781}, {"pitch": 79, "velocity": 59, "note_on_time": 189.989, "note_off_time": 190.234}, {"pitch": 77, "velocity": 54, "note_on_time": 190.483, "note_off_time": 190.721}, {"pitch": 76, "velocity": 39, "note_on_time": 190.777, "note_off_time": 191.094}, {"pitch": 74, "velocity": 68, "note_on_time": 191.071, "note_off_time": 191.402}, {"pitch": 72, "velocity": 38, "note_on_time": 192.163, "note_off_time": 192.647}, {"pitch": 79, "velocity": 62, "note_on_time": 192.643, "note_off_time": 192.849}, {"pitch": 77, "velocity": 42, "note_on_time": 192.996, "note_off_time": 193.249}, {"pitch": 76, "velocity": 35, "note_on_time": 193.297, "note_off_time": 193.575}, {"pitch": 74, "velocity": 67, "note_on_time": 193.588, "note_off_time": 193.865}]</notes><guidance name="Guidance Mode">None</guidance><error name="Error value">99</error></trial><trial trial_no="3" timestamp="2023_06_11-12_52_29"><notes name="Played Notes">[{"pitch": 72, "velocity": 51, "note_on_time": 1.983, "note_off_time": 2.224}, {"pitch": 74, "velocity": 62, "note_on_time": 2.405, "note_off_time": 2.611}, {"pitch": 76, "velocity": 49, "note_on_time": 2.807, "note_off_time": 3.009}, {"pitch": 77, "velocity": 66, "note_on_time": 3.201, "note_off_time": 3.357}, {"pitch": 79, "velocity": 57, "note_on_time": 3.62, "note_off_time": 3.836}, {"pitch": 72, "velocity": 60, "note_on_time": 4.22, "note_off_time": 4.393}, {"pitch": 74, "velocity": 69, "note_on_time": 4.618, "note_off_time": 4.813}, {"pitch": 76, "velocity": 46, "note_on_time": 4.943, "note_off_time": 5.119}, {"pitch": 77, "velocity": 53, "note_on_time": 5.299, "note_off_time": 5.44}, {"pitch": 79, "velocity": 56, "note_on_time": 5.701, "note_off_time": 5.929}, {"pitch": 72, "velocity": 58, "note_on_time": 6.241, "note_off_time": 6.409}, {"pitch": 74, "velocity": 63, "note_on_time": 6.606, "note_off_time": 6.781}, {"pitch": 76, "velocity": 53, "note_on_time": 6.911, "note_off_time": 7.08}, {"pitch": 77, "velocity": 60, "note_on_time": 7.241, "note_off_time": 7.396}, {"pitch": 79, "velocity": 57, "note_on_time": 7.633, "note_off_time": 7.834}, {"pitch": 72, "velocity": 55, "note_on_time": 8.149, "note_off_time": 8.316}, {"pitch": 74, "velocity": 56, "note_on_time": 8.447, "note_off_time": 8.605}, {"pitch": 76, "velocity": 55, "note_on_time": 8.737, "note_off_time": 8.918}, {"pitch": 77, "velocity": 55, "note_on_time": 9.048, "note_off_time": 9.205}, {"pitch": 79, "velocity": 49, "note_on_time": 9.517, "note_off_time": 9.768}, {"pitch": 79, "velocity": 47, "note_on_time": 11.218, "note_off_time": 11.455}, {"pitch": 77, "velocity": 24, "note_on_time": 11.59, "note_off_time": 11.853}, {"pitch": 76, "velocity": 64, "note_on_time": 12.043, "note_off_time": 12.256}, {"pitch": 74, "velocity": 72, "note_on_time": 12.411, "note_off_time": 12.613}, {"pitch": 72, "velocity": 64, "note_on_time": 12.804, "note_off_time": 12.995}, {"pitch": 79, "velocity": 58, "note_on_time": 13.197, "note_off_time": 13.393}, {"pitch": 77, "velocity": 49, "note_on_time": 13.619, "note_off_time": 13.797}, {"pitch": 76, "velocity": 55, "note_on_time": 14.047, "note_off_time": 14.223}, {"pitch": 74, "velocity": 74, "note_on_time": 14.373, "note_off_time": 14.553}, {"pitch": 72, "velocity": 56, "note_on_time": 14.733, "note_off_time": 14.926}, {"pitch": 79, "velocity": 43, "note_on_time": 15.13, "note_off_time": 15.497}, {"pitch": 77, "velocity": 61, "note_on_time": 15.744, "note_off_time": 15.972}, {"pitch": 76, "velocity": 43, "note_on_time": 16.526, "note_off_time": 16.754}, {"pitch": 74, "velocity": 58, "note_on_time": 16.924, "note_off_time": 17.126}, {"pitch": 72, "velocity": 82, "note_on_time": 17.275, "note_off_time": 17.441}, {"pitch": 79, "velocity": 57, "note_on_time": 18.848, "note_off_time": 19.182}, {"pitch": 77, "velocity": 58, "note_on_time": 19.279, "note_off_time": 19.377}, {"pitch": 76, "velocity": 38, "note_on_time": 19.762, "note_off_time": 19.96}, {"pitch": 79, "velocity": 3, "note_on_time": 19.401, "note_off_time": 20.101}, {"pitch": 74, "velocity": 71, "note_on_time": 20.113, "note_off_time": 20.286}, {"pitch": 72, "velocity": 62, "note_on_time": 20.531, "note_off_time": 20.815}, {"pitch": 72, "velocity": 67, "note_on_time": 22.032, "note_off_time": 22.332}, {"pitch": 79, "velocity": 60, "note_on_time": 23.135, "note_off_time": 23.443}, {"pitch": 77, "velocity": 57, "note_on_time": 23.804, "note_off_time": 23.95}, {"pitch": 76, "velocity": 37, "note_on_time": 24.174, "note_off_time": 24.336}, {"pitch": 74, "velocity": 73, "note_on_time": 24.554, "note_off_time": 24.792}, {"pitch": 72, "velocity": 64, "note_on_time": 25.297, "note_off_time": 25.512}, {"pitch": 79, "velocity": 58, "note_on_time": 25.868, "note_off_time": 26.119}, {"pitch": 77, "velocity": 58, "note_on_time": 26.517, "note_off_time": 26.686}, {"pitch": 76, "velocity": 47, "note_on_time": 26.905, "note_off_time": 27.049}, {"pitch": 74, "velocity": 51, "note_on_time": 27.234, "note_off_time": 27.42}, {"pitch": 72, "velocity": 66, "note_on_time": 27.748, "note_off_time": 27.999}, {"pitch": 79, "velocity": 55, "note_on_time": 28.221, "note_off_time": 28.434}, {"pitch": 77, "velocity": 48, "note_on_time": 28.668, "note_off_time": 28.843}, {"pitch": 76, "velocity": 57, "note_on_time": 28.989, "note_off_time": 29.16}, {"pitch": 74, "velocity": 61, "note_on_time": 29.299, "note_off_time": 29.461}, {"pitch": 72, "velocity": 58, "note_on_time": 29.762, "note_off_time": 30.044}, {"pitch": 79, "velocity": 58, "note_on_time": 30.139, "note_off_time": 30.335}, {"pitch": 77, "velocity": 60, "note_on_time": 30.592, "note_off_time": 30.794}, {"pitch": 76, "velocity": 53, "note_on_time": 30.903, "note_off_time": 31.086}, {"pitch": 74, "velocity": 66, "note_on_time": 31.237, "note_off_time": 31.48}, {"pitch": 72, "velocity": 70, "note_on_time": 39.426, "note_off_time": 39.685}, {"pitch": 79, "velocity": 60, "note_on_time": 39.807, "note_off_time": 40.017}, {"pitch": 77, "velocity": 49, "note_on_time": 40.181, "note_off_time": 40.368}, {"pitch": 76, "velocity": 61, "note_on_time": 40.497, "note_off_time": 40.66}, {"pitch": 74, "velocity": 74, "note_on_time": 40.818, "note_off_time": 41.031}, {"pitch": 72, "velocity": 67, "note_on_time": 41.866, "note_off_time": 42.088}, {"pitch": 79, "velocity": 58, "note_on_time": 42.259, "note_off_time": 42.481}, {"pitch": 77, "velocity": 49, "note_on_time": 42.714, "note_off_time": 42.864}, {"pitch": 76, "velocity": 72, "note_on_time": 43.07, "note_off_time": 43.286}, {"pitch": 72, "velocity": 36, "note_on_time": 43.517, "note_off_time": 43.713}, {"pitch": 74, "velocity": 40, "note_on_time": 43.513, "note_off_time": 43.762}, {"pitch": 72, "velocity": 61, "note_on_time": 45.13, "note_off_time": 45.364}, {"pitch": 79, "velocity": 23, "note_on_time": 45.624, "note_off_time": 46.207}, {"pitch": 77, "velocity": 55, "note_on_time": 46.437, "note_off_time": 46.614}, {"pitch": 76, "velocity": 60, "note_on_time": 46.763, "note_off_time": 46.952}, {"pitch": 74, "velocity": 78, "note_on_time": 47.111, "note_off_time": 47.348}, {"pitch": 72, "velocity": 58, "note_on_time": 48.416, "note_off_time": 48.701}, {"pitch": 79, "velocity": 65, "note_on_time": 48.906, "note_off_time": 49.194}, {"pitch": 77, "velocity": 45, "note_on_time": 49.406, "note_off_time": 49.656}, {"pitch": 76, "velocity": 52, "note_on_time": 49.779, "note_off_time": 50.051}, {"pitch": 74, "velocity": 80, "note_on_time": 50.202, "note_off_time": 50.418}, {"pitch": 76, "velocity": 66, "note_on_time": 53.282, "note_off_time": 53.515}, {"pitch": 77, "velocity": 71, "note_on_time": 53.637, "note_off_time": 53.817}, {"pitch": 77, "velocity": 27, "note_on_time": 54.026, "note_off_time": 54.088}, {"pitch": 79, "velocity": 55, "note_on_time": 54.042, "note_off_time": 54.961}, {"pitch": 74, "velocity": 77, "note_on_time": 55.469, "note_off_time": 55.657}, {"pitch": 72, "velocity": 62, "note_on_time": 55.837, "note_off_time": 56.033}, {"pitch": 76, "velocity": 64, "note_on_time": 56.339, "note_off_time": 56.492}, {"pitch": 77, "velocity": 64, "note_on_time": 56.738, "note_off_time": 56.922}, {"pitch": 79, "velocity": 62, "note_on_time": 57.345, "note_off_time": 57.563}, {"pitch": 74, "velocity": 68, "note_on_time": 57.999, "note_off_time": 58.164}, {"pitch": 72, "velocity": 59, "note_on_time": 58.35, "note_off_time": 58.578}, {"pitch": 76, "velocity": 61, "note_on_time": 59.359, "note_off_time": 59.59}, {"pitch": 77, "velocity": 65, "note_on_time": 59.708, "note_off_time": 59.899}, {"pitch": 79, "velocity": 35, "note_on_time": 60.156, "note_off_time": 60.455}, {"pitch": 74, "velocity": 70, "note_on_time": 60.815, "note_off_time": 60.959}, {"pitch": 72, "velocity": 58, "note_on_time": 61.162, "note_off_time": 61.332}, {"pitch": 76, "velocity": 68, "note_on_time": 61.755, "note_off_time": 61.936}, {"pitch": 77, "velocity": 40, "note_on_time": 62.068, "note_off_time": 62.269}, {"pitch": 79, "velocity": 54, "note_on_time": 62.427, "note_off_time": 62.658}, {"pitch": 74, "velocity": 70, "note_on_time": 62.946, "note_off_time": 63.176}, {"pitch": 72, "velocity": 60, "note_on_time": 63.309, "note_off_time": 63.569}, {"pitch": 76, "velocity": 67, "note_on_time": 66.972, "note_off_time": 67.198}, {"pitch": 74, "velocity": 72, "note_on_time": 67.452, "note_off_time": 67.659}, {"pitch": 72, "velocity": 61, "note_on_time": 67.924, "note_off_time": 68.261}, {"pitch": 77, "velocity": 65, "note_on_time": 72.928, "note_off_time": 73.128}, {"pitch": 79, "velocity": 48, "note_on_time": 73.32, "note_off_time": 73.559}, {"pitch": 76, "velocity": 60, "note_on_time": 75.291, "note_off_time": 75.551}, {"pitch": 77, "velocity": 63, "note_on_time": 76.688, "note_off_time": 76.873}, {"pitch": 79, "velocity": 43, "note_on_time": 77.064, "note_off_time": 77.353}, {"pitch": 74, "velocity": 61, "note_on_time": 77.48, "note_off_time": 77.663}, {"pitch": 72, "velocity": 55, "note_on_time": 77.859, "note_off_time": 78.062}, {"pitch": 76, "velocity": 72, "note_on_time": 78.268, "note_off_time": 78.471}, {"pitch": 77, "velocity": 52, "note_on_time": 78.597, "note_off_time": 78.774}, {"pitch": 79, "velocity": 42, "note_on_time": 79.424, "note_off_time": 79.68}, {"pitch": 74, "velocity": 69, "note_on_time": 80.197, "note_off_time": 80.379}, {"pitch": 72, "velocity": 53, "note_on_time": 80.547, "note_off_time": 80.814}, {"pitch": 76, "velocity": 68, "note_on_time": 81.101, "note_off_time": 81.317}, {"pitch": 77, "velocity": 35, "note_on_time": 81.855, "note_off_time": 82.096}, {"pitch": 79, "velocity": 48, "note_on_time": 83.356, "note_off_time": 83.741}, {"pitch": 74, "velocity": 63, "note_on_time": 84.006, "note_off_time": 84.168}, {"pitch": 72, "velocity": 59, "note_on_time": 84.459, "note_off_time": 84.658}, {"pitch": 76, "velocity": 62, "note_on_time": 91.139, "note_off_time": 91.325}, {"pitch": 74, "velocity": 75, "note_on_time": 91.477, "note_off_time": 91.69}, {"pitch": 72, "velocity": 55, "note_on_time": 91.83, "note_off_time": 92.056}, {"pitch": 77, "velocity": 63, "note_on_time": 93.818, "note_off_time": 93.966}, {"pitch": 79, "velocity": 64, "note_on_time": 94.183, "note_off_time": 94.439}, {"pitch": 77, "velocity": 66, "note_on_time": 97.118, "note_off_time": 97.288}, {"pitch": 79, "velocity": 64, "note_on_time": 97.521, "note_off_time": 97.845}, {"pitch": 76, "velocity": 56, "note_on_time": 98.821, "note_off_time": 98.987}, {"pitch": 74, "velocity": 66, "note_on_time": 99.138, "note_off_time": 99.328}, {"pitch": 72, "velocity": 51, "note_on_time": 99.491, "note_off_time": 99.703}, {"pitch": 77, "velocity": 50, "note_on_time": 100.073, "note_off_time": 100.216}, {"pitch": 79, "velocity": 55, "note_on_time": 100.938, "note_off_time": 101.374}, {"pitch": 76, "velocity": 43, "note_on_time": 102.188, "note_off_time": 102.394}, {"pitch": 74, "velocity": 69, "note_on_time": 102.521, "note_off_time": 102.703}, {"pitch": 72, "velocity": 59, "note_on_time": 102.874, "note_off_time": 103.042}, {"pitch": 77, "velocity": 57, "note_on_time": 104.33, "note_off_time": 104.533}, {"pitch": 79, "velocity": 62, "note_on_time": 105.107, "note_off_time": 105.469}, {"pitch": 76, "velocity": 60, "note_on_time": 105.684, "note_off_time": 105.85}, {"pitch": 74, "velocity": 59, "note_on_time": 105.969, "note_off_time": 106.155}, {"pitch": 72, "velocity": 53, "note_on_time": 106.326, "note_off_time": 106.512}, {"pitch": 77, "velocity": 50, "note_on_time": 107.205, "note_off_time": 107.455}, {"pitch": 79, "velocity": 46, "note_on_time": 107.64, "note_off_time": 107.928}, {"pitch": 76, "velocity": 63, "note_on_time": 108.078, "note_off_time": 108.233}, {"pitch": 74, "velocity": 62, "note_on_time": 108.344, "note_off_time": 108.549}, {"pitch": 72, "velocity": 53, "note_on_time": 108.648, "note_off_time": 108.821}, {"pitch": 77, "velocity": 49, "note_on_time": 110.667, "note_off_time": 110.877}, {"pitch": 79, "velocity": 52, "note_on_time": 111.039, "note_off_time": 111.418}, {"pitch": 76, "velocity": 49, "note_on_time": 111.539, "note_off_time": 111.666}, {"pitch": 74, "velocity": 72, "note_on_time": 111.853, "note_off_time": 112.011}, {"pitch": 72, "velocity": 56, "note_on_time": 112.207, "note_off_time": 112.601}, {"pitch": 74, "velocity": 83, "note_on_time": 114.414, "note_off_time": 114.623}, {"pitch": 72, "velocity": 52, "note_on_time": 114.844, "note_off_time": 115.079}, {"pitch": 76, "velocity": 44, "note_on_time": 116.551, "note_off_time": 116.752}, {"pitch": 77, "velocity": 66, "note_on_time": 116.869, "note_off_time": 117.029}, {"pitch": 79, "velocity": 62, "note_on_time": 117.176, "note_off_time": 117.407}, {"pitch": 74, "velocity": 70, "note_on_time": 117.733, "note_off_time": 117.889}, {"pitch": 72, "velocity": 51, "note_on_time": 118.104, "note_off_time": 118.38}, {"pitch": 76, "velocity": 46, "note_on_time": 118.95, "note_off_time": 119.138}, {"pitch": 77, "velocity": 72, "note_on_time": 119.281, "note_off_time": 119.458}, {"pitch": 79, "velocity": 50, "note_on_time": 119.601, "note_off_time": 119.807}, {"pitch": 74, "velocity": 73, "note_on_time": 120.12, "note_off_time": 120.276}, {"pitch": 72, "velocity": 42, "note_on_time": 120.492, "note_off_time": 120.719}, {"pitch": 76, "velocity": 56, "note_on_time": 120.884, "note_off_time": 121.046}, {"pitch": 77, "velocity": 40, "note_on_time": 121.198, "note_off_time": 121.398}, {"pitch": 79, "velocity": 42, "note_on_time": 121.862, "note_off_time": 122.108}, {"pitch": 74, "velocity": 55, "note_on_time": 122.459, "note_off_time": 122.621}, {"pitch": 72, "velocity": 49, "note_on_time": 122.843, "note_off_time": 123.083}, {"pitch": 76, "velocity": 52, "note_on_time": 123.922, "note_off_time": 124.11}, {"pitch": 77, "velocity": 53, "note_on_time": 124.218, "note_off_time": 124.39}, {"pitch": 79, "velocity": 68, "note_on_time": 124.59, "note_off_time": 124.958}, {"pitch": 74, "velocity": 55, "note_on_time": 126.028, "note_off_time": 126.139}, {"pitch": 72, "velocity": 47, "note_on_time": 126.385, "note_off_time": 126.559}, {"pitch": 76, "velocity": 69, "note_on_time": 126.799, "note_off_time": 126.966}, {"pitch": 77, "velocity": 58, "note_on_time": 127.087, "note_off_time": 127.293}, {"pitch": 79, "velocity": 58, "note_on_time": 127.509, "note_off_time": 127.849}, {"pitch": 72, "velocity": 50, "note_on_time": 129.24, "note_off_time": 129.525}, {"pitch": 74, "velocity": 67, "note_on_time": 129.722, "note_off_time": 129.924}, {"pitch": 76, "velocity": 52, "note_on_time": 130.081, "note_off_time": 130.295}, {"pitch": 77, "velocity": 56, "note_on_time": 130.414, "note_off_time": 130.588}, {"pitch": 79, "velocity": 55, "note_on_time": 130.77, "note_off_time": 131.029}, {"pitch": 72, "velocity": 55, "note_on_time": 131.438, "note_off_time": 131.641}, {"pitch": 74, "velocity": 65, "note_on_time": 131.728, "note_off_time": 131.883}, {"pitch": 76, "velocity": 45, "note_on_time": 132.021, "note_off_time": 132.194}, {"pitch": 77, "velocity": 43, "note_on_time": 132.334, "note_off_time": 132.498}, {"pitch": 79, "velocity": 56, "note_on_time": 132.669, "note_off_time": 132.899}, {"pitch": 72, "velocity": 44, "note_on_time": 133.222, "note_off_time": 133.407}, {"pitch": 74, "velocity": 60, "note_on_time": 133.48, "note_off_time": 133.652}, {"pitch": 76, "velocity": 42, "note_on_time": 133.754, "note_off_time": 133.923}, {"pitch": 77, "velocity": 48, "note_on_time": 134.054, "note_off_time": 134.281}, {"pitch": 79, "velocity": 49, "note_on_time": 134.45, "note_off_time": 134.729}, {"pitch": 72, "velocity": 48, "note_on_time": 134.923, "note_off_time": 135.117}, {"pitch": 74, "velocity": 65, "note_on_time": 135.201, "note_off_time": 135.367}, {"pitch": 76, "velocity": 59, "note_on_time": 135.478, "note_off_time": 135.659}, {"pitch": 77, "velocity": 58, "note_on_time": 135.774, "note_off_time": 135.909}, {"pitch": 79, "velocity": 52, "note_on_time": 136.069, "note_off_time": 136.265}, {"pitch": 79, "velocity": 62, "note_on_time": 137.238, "note_off_time": 137.439}, {"pitch": 77, "velocity": 51, "note_on_time": 137.562, "note_off_time": 137.736}, {"pitch": 76, "velocity": 48, "note_on_time": 137.917, "note_off_time": 138.157}, {"pitch": 74, "velocity": 61, "note_on_time": 138.271, "note_off_time": 138.465}, {"pitch": 72, "velocity": 56, "note_on_time": 138.603, "note_off_time": 138.78}, {"pitch": 77, "velocity": 21, "note_on_time": 139.482, "note_off_time": 139.924}, {"pitch": 79, "velocity": 56, "note_on_time": 139.095, "note_off_time": 140.156}, {"pitch": 76, "velocity": 72, "note_on_time": 139.983, "note_off_time": 140.164}, {"pitch": 74, "velocity": 67, "note_on_time": 141.089, "note_off_time": 141.23}, {"pitch": 72, "velocity": 53, "note_on_time": 141.394, "note_off_time": 141.527}, {"pitch": 77, "velocity": 46, "note_on_time": 143.284, "note_off_time": 143.561}, {"pitch": 79, "velocity": 71, "note_on_time": 145.958, "note_off_time": 146.194}, {"pitch": 77, "velocity": 66, "note_on_time": 146.467, "note_off_time": 146.646}, {"pitch": 76, "velocity": 33, "note_on_time": 146.856, "note_off_time": 147.065}, {"pitch": 74, "velocity": 77, "note_on_time": 147.163, "note_off_time": 147.347}, {"pitch": 72, "velocity": 51, "note_on_time": 147.462, "note_off_time": 147.649}, {"pitch": 72, "velocity": 37, "note_on_time": 153.549, "note_off_time": 153.824}, {"pitch": 79, "velocity": 58, "note_on_time": 153.911, "note_off_time": 154.164}, {"pitch": 77, "velocity": 42, "note_on_time": 154.434, "note_off_time": 154.641}, {"pitch": 76, "velocity": 71, "note_on_time": 154.789, "note_off_time": 154.943}, {"pitch": 74, "velocity": 74, "note_on_time": 155.074, "note_off_time": 155.269}, {"pitch": 72, "velocity": 56, "note_on_time": 155.704, "note_off_time": 155.941}, {"pitch": 77, "velocity": 55, "note_on_time": 156.427, "note_off_time": 156.612}, {"pitch": 79, "velocity": 57, "note_on_time": 156.05, "note_off_time": 156.752}, {"pitch": 76, "velocity": 60, "note_on_time": 156.716, "note_off_time": 156.898}, {"pitch": 74, "velocity": 69, "note_on_time": 157.065, "note_off_time": 157.276}, {"pitch": 72, "velocity": 58, "note_on_time": 157.562, "note_off_time": 157.762}, {"pitch": 79, "velocity": 62, "note_on_time": 157.891, "note_off_time": 158.207}, {"pitch": 77, "velocity": 44, "note_on_time": 158.241, "note_off_time": 158.588}, {"pitch": 76, "velocity": 60, "note_on_time": 158.54, "note_off_time": 158.758}, {"pitch": 74, "velocity": 58, "note_on_time": 158.876, "note_off_time": 159.108}, {"pitch": 72, "velocity": 65, "note_on_time": 159.442, "note_off_time": 159.745}, {"pitch": 77, "velocity": 52, "note_on_time": 160.033, "note_off_time": 160.454}, {"pitch": 76, "velocity": 55, "note_on_time": 160.334, "note_off_time": 160.6}, {"pitch": 79, "velocity": 58, "note_on_time": 159.735, "note_off_time": 160.728}, {"pitch": 74, "velocity": 45, "note_on_time": 160.631, "note_off_time": 160.921}, {"pitch": 72, "velocity": 58, "note_on_time": 161.98, "note_off_time": 162.275}, {"pitch": 77, "velocity": 46, "note_on_time": 162.553, "note_off_time": 162.952}, {"pitch": 76, "velocity": 56, "note_on_time": 162.825, "note_off_time": 163.212}, {"pitch": 79, "velocity": 61, "note_on_time": 162.267, "note_off_time": 163.287}, {"pitch": 74, "velocity": 72, "note_on_time": 163.202, "note_off_time": 163.553}, {"pitch": 72, "velocity": 68, "note_on_time": 172.996, "note_off_time": 173.227}, {"pitch": 74, "velocity": 67, "note_on_time": 174.428, "note_off_time": 174.669}, {"pitch": 76, "velocity": 58, "note_on_time": 174.96, "note_off_time": 175.14}, {"pitch": 76, "velocity": 70, "note_on_time": 177.823, "note_off_time": 178.044}, {"pitch": 77, "velocity": 59, "note_on_time": 178.214, "note_off_time": 178.431}, {"pitch": 77, "velocity": 52, "note_on_time": 178.611, "note_off_time": 178.686}, {"pitch": 79, "velocity": 41, "note_on_time": 178.628, "note_off_time": 178.974}, {"pitch": 74, "velocity": 78, "note_on_time": 179.16, "note_off_time": 179.355}, {"pitch": 72, "velocity": 55, "note_on_time": 179.522, "note_off_time": 179.744}, {"pitch": 76, "velocity": 76, "note_on_time": 179.97, "note_off_time": 180.195}, {"pitch": 77, "velocity": 64, "note_on_time": 180.296, "note_off_time": 180.457}, {"pitch": 79, "velocity": 21, "note_on_time": 180.806, "note_off_time": 181.173}, {"pitch": 74, "velocity": 60, "note_on_time": 181.302, "note_off_time": 181.443}, {"pitch": 72, "velocity": 61, "note_on_time": 181.667, "note_off_time": 181.855}, {"pitch": 76, "velocity": 71, "note_on_time": 182.143, "note_off_time": 182.333}, {"pitch": 77, "velocity": 57, "note_on_time": 182.434, "note_off_time": 182.602}, {"pitch": 79, "velocity": 62, "note_on_time": 182.771, "note_off_time": 182.962}, {"pitch": 74, "velocity": 67, "note_on_time": 183.251, "note_off_time": 183.432}, {"pitch": 72, "velocity": 49, "note_on_time": 183.53, "note_off_time": 183.696}, {"pitch": 76, "velocity": 54, "note_on_time": 184.118, "note_off_time": 184.341}, {"pitch": 77, "velocity": 64, "note_on_time": 184.563, "note_off_time": 184.751}, {"pitch": 79, "velocity": 70, "note_on_time": 184.902, "note_off_time": 185.141}, {"pitch": 74, "velocity": 60, "note_on_time": 185.36, "note_off_time": 185.56}, {"pitch": 72, "velocity": 58, "note_on_time": 185.626, "note_off_time": 185.792}, {"pitch": 76, "velocity": 77, "note_on_time": 186.469, "note_off_time": 186.657}, {"pitch": 77, "velocity": 60, "note_on_time": 186.728, "note_off_time": 186.91}, {"pitch": 79, "velocity": 61, "note_on_time": 187.011, "note_off_time": 187.151}, {"pitch": 74, "velocity": 61, "note_on_time": 187.408, "note_off_time": 187.602}, {"pitch": 72, "velocity": 54, "note_on_time": 187.697, "note_off_time": 187.857}, {"pitch": 79, "velocity": 67, "note_on_time": 190.13, "note_off_time": 190.454}, {"pitch": 77, "velocity": 66, "note_on_time": 190.573, "note_off_time": 190.718}, {"pitch": 76, "velocity": 49, "note_on_time": 191.037, "note_off_time": 191.263}, {"pitch": 79, "velocity": 64, "note_on_time": 194.111, "note_off_time": 194.366}, {"pitch": 77, "velocity": 56, "note_on_time": 194.584, "note_off_time": 194.705}]</notes><guidance name="Guidance Mode">None</guidance><error name="Error value">99</error></trial></trials></MIDI>