<MIDI midiNo="2023_06_14-15_50_39"><target_notes><notes name="Note List">[{"pitch": 60, "velocity": 40, "note_on_time": 0.01, "note_off_time": 1.022}, {"pitch": 64, "velocity": 40, "note_on_time": 0.01, "note_off_time": 1.023}, {"pitch": 67, "velocity": 40, "note_on_time": 0.011, "note_off_time": 1.024}, {"pitch": 48, "velocity": 40, "note_on_time": 0.011, "note_off_time": 1.024}, {"pitch": 52, "velocity": 40, "note_on_time": 1.024, "note_off_time": 2.035}, {"pitch": 55, "velocity": 40, "note_on_time": 1.024, "note_off_time": 2.035}, {"pitch": 77, "velocity": 40, "note_on_time": 2.035, "note_off_time": 3.044}, {"pitch": 48, "velocity": 40, "note_on_time": 2.035, "note_off_time": 3.044}, {"pitch": 52, "velocity": 40, "note_on_time": 3.044, "note_off_time": 4.054}, {"pitch": 55, "velocity": 40, "note_on_time": 3.044, "note_off_time": 4.054}, {"pitch": 48, "velocity": 40, "note_on_time": 4.054, "note_off_time": 5.057}, {"pitch": 52, "velocity": 40, "note_on_time": 5.057, "note_off_time": 6.067}, {"pitch": 55, "velocity": 40, "note_on_time": 5.057, "note_off_time": 6.067}, {"pitch": 48, "velocity": 40, "note_on_time": 6.067, "note_off_time": 7.074}, {"pitch": 52, "velocity": 40, "note_on_time": 7.074, "note_off_time": 8.089}, {"pitch": 55, "velocity": 40, "note_on_time": 7.074, "note_off_time": 8.089}, {"pitch": 60, "velocity": 40, "note_on_time": 8.087, "note_off_time": 9.105}, {"pitch": 64, "velocity": 40, "note_on_time": 8.088, "note_off_time": 9.106}, {"pitch": 67, "velocity": 40, "note_on_time": 8.088, "note_off_time": 9.107}, {"pitch": 48, "velocity": 40, "note_on_time": 8.089, "note_off_time": 9.107}, {"pitch": 52, "velocity": 40, "note_on_time": 9.107, "note_off_time": 10.12}, {"pitch": 55, "velocity": 40, "note_on_time": 9.107, "note_off_time": 10.121}, {"pitch": 76, "velocity": 40, "note_on_time": 10.12, "note_off_time": 11.129}, {"pitch": 48, "velocity": 40, "note_on_time": 10.121, "note_off_time": 11.13}, {"pitch": 52, "velocity": 40, "note_on_time": 11.13, "note_off_time": 12.132}, {"pitch": 55, "velocity": 40, "note_on_time": 11.13, "note_off_time": 12.132}, {"pitch": 48, "velocity": 40, "note_on_time": 12.132, "note_off_time": 13.145}, {"pitch": 52, "velocity": 40, "note_on_time": 13.145, "note_off_time": 14.156}, {"pitch": 55, "velocity": 40, "note_on_time": 13.145, "note_off_time": 14.156}, {"pitch": 48, "velocity": 40, "note_on_time": 14.156, "note_off_time": 15.158}, {"pitch": 52, "velocity": 40, "note_on_time": 15.158, "note_off_time": 16.172}, {"pitch": 55, "velocity": 40, "note_on_time": 15.158, "note_off_time": 16.172}, {"pitch": 60, "velocity": 40, "note_on_time": 16.17, "note_off_time": 17.185}, {"pitch": 64, "velocity": 40, "note_on_time": 16.171, "note_off_time": 17.186}, {"pitch": 67, "velocity": 40, "note_on_time": 16.171, "note_off_time": 17.187}, {"pitch": 48, "velocity": 40, "note_on_time": 16.172, "note_off_time": 17.187}, {"pitch": 52, "velocity": 40, "note_on_time": 17.187, "note_off_time": 18.194}, {"pitch": 55, "velocity": 40, "note_on_time": 17.187, "note_off_time": 18.194}, {"pitch": 77, "velocity": 40, "note_on_time": 18.193, "note_off_time": 19.207}, {"pitch": 48, "velocity": 40, "note_on_time": 18.194, "note_off_time": 19.207}, {"pitch": 52, "velocity": 40, "note_on_time": 19.207, "note_off_time": 20.217}, {"pitch": 55, "velocity": 40, "note_on_time": 19.207, "note_off_time": 20.217}, {"pitch": 48, "velocity": 40, "note_on_time": 20.217, "note_off_time": 21.231}, {"pitch": 52, "velocity": 40, "note_on_time": 21.231, "note_off_time": 22.239}, {"pitch": 55, "velocity": 40, "note_on_time": 21.231, "note_off_time": 22.239}, {"pitch": 48, "velocity": 40, "note_on_time": 22.239, "note_off_time": 23.251}, {"pitch": 52, "velocity": 40, "note_on_time": 23.251, "note_off_time": 24.267}, {"pitch": 55, "velocity": 40, "note_on_time": 23.251, "note_off_time": 24.267}, {"pitch": 60, "velocity": 40, "note_on_time": 24.265, "note_off_time": 25.276}, {"pitch": 64, "velocity": 40, "note_on_time": 24.266, "note_off_time": 25.277}, {"pitch": 67, "velocity": 40, "note_on_time": 24.266, "note_off_time": 25.278}, {"pitch": 48, "velocity": 40, "note_on_time": 24.267, "note_off_time": 25.278}, {"pitch": 52, "velocity": 40, "note_on_time": 25.278, "note_off_time": 26.288}, {"pitch": 55, "velocity": 40, "note_on_time": 25.278, "note_off_time": 26.289}, {"pitch": 72, "velocity": 40, "note_on_time": 26.288, "note_off_time": 27.3}, {"pitch": 48, "velocity": 40, "note_on_time": 26.289, "note_off_time": 27.3}, {"pitch": 52, "velocity": 40, "note_on_time": 27.301, "note_off_time": 28.311}, {"pitch": 55, "velocity": 40, "note_on_time": 27.301, "note_off_time": 28.311}, {"pitch": 48, "velocity": 40, "note_on_time": 28.311, "note_off_time": 29.327}, {"pitch": 52, "velocity": 40, "note_on_time": 29.327, "note_off_time": 30.34}, {"pitch": 55, "velocity": 40, "note_on_time": 29.327, "note_off_time": 30.34}, {"pitch": 48, "velocity": 40, "note_on_time": 30.34, "note_off_time": 31.351}, {"pitch": 52, "velocity": 40, "note_on_time": 31.351, "note_off_time": 32.363}, {"pitch": 55, "velocity": 40, "note_on_time": 31.351, "note_off_time": 32.363}, {"pitch": 60, "velocity": 40, "note_on_time": 32.362, "note_off_time": 33.374}, {"pitch": 64, "velocity": 40, "note_on_time": 32.362, "note_off_time": 33.374}, {"pitch": 67, "velocity": 40, "note_on_time": 32.363, "note_off_time": 33.375}, {"pitch": 48, "velocity": 40, "note_on_time": 32.363, "note_off_time": 33.375}, {"pitch": 52, "velocity": 40, "note_on_time": 33.375, "note_off_time": 34.388}, {"pitch": 55, "velocity": 40, "note_on_time": 33.375, "note_off_time": 34.389}, {"pitch": 74, "velocity": 40, "note_on_time": 34.388, "note_off_time": 35.403}, {"pitch": 48, "velocity": 40, "note_on_time": 34.389, "note_off_time": 35.404}, {"pitch": 52, "velocity": 40, "note_on_time": 35.404, "note_off_time": 36.422}, {"pitch": 55, "velocity": 40, "note_on_time": 35.404, "note_off_time": 36.422}, {"pitch": 48, "velocity": 40, "note_on_time": 36.422, "note_off_time": 37.424}, {"pitch": 52, "velocity": 40, "note_on_time": 37.424, "note_off_time": 38.434}, {"pitch": 55, "velocity": 40, "note_on_time": 37.424, "note_off_time": 38.434}, {"pitch": 48, "velocity": 40, "note_on_time": 38.434, "note_off_time": 39.449}, {"pitch": 52, "velocity": 40, "note_on_time": 39.449, "note_off_time": 40.466}, {"pitch": 55, "velocity": 40, "note_on_time": 39.449, "note_off_time": 40.466}, {"pitch": 60, "velocity": 40, "note_on_time": 40.465, "note_off_time": 41.478}, {"pitch": 64, "velocity": 40, "note_on_time": 40.466, "note_off_time": 41.479}, {"pitch": 67, "velocity": 40, "note_on_time": 40.466, "note_off_time": 41.48}, {"pitch": 77, "velocity": 40, "note_on_time": 42.484, "note_off_time": 43.485}, {"pitch": 60, "velocity": 40, "note_on_time": 48.496, "note_off_time": 49.513}, {"pitch": 64, "velocity": 40, "note_on_time": 48.498, "note_off_time": 49.514}, {"pitch": 67, "velocity": 40, "note_on_time": 48.498, "note_off_time": 49.515}, {"pitch": 79, "velocity": 40, "note_on_time": 50.526, "note_off_time": 51.539}, {"pitch": 60, "velocity": 40, "note_on_time": 56.547, "note_off_time": 57.553}, {"pitch": 64, "velocity": 40, "note_on_time": 56.547, "note_off_time": 57.554}, {"pitch": 67, "velocity": 40, "note_on_time": 56.548, "note_off_time": 57.555}, {"pitch": 74, "velocity": 40, "note_on_time": 58.566, "note_off_time": 59.579}, {"pitch": 60, "velocity": 40, "note_on_time": 64.584, "note_off_time": 65.594}, {"pitch": 64, "velocity": 40, "note_on_time": 64.584, "note_off_time": 65.595}, {"pitch": 67, "velocity": 40, "note_on_time": 64.585, "note_off_time": 65.596}, {"pitch": 72, "velocity": 40, "note_on_time": 66.609, "note_off_time": 67.617}, {"pitch": 60, "velocity": 40, "note_on_time": 72.63, "note_off_time": 73.638}, {"pitch": 64, "velocity": 40, "note_on_time": 72.631, "note_off_time": 73.639}, {"pitch": 67, "velocity": 40, "note_on_time": 72.631, "note_off_time": 73.64}, {"pitch": 79, "velocity": 40, "note_on_time": 74.651, "note_off_time": 75.665}, {"pitch": 60, "velocity": 40, "note_on_time": 80.674, "note_off_time": 81.676}, {"pitch": 64, "velocity": 40, "note_on_time": 80.674, "note_off_time": 81.679}, {"pitch": 67, "velocity": 40, "note_on_time": 80.675, "note_off_time": 81.682}, {"pitch": 76, "velocity": 40, "note_on_time": 82.693, "note_off_time": 83.695}, {"pitch": 60, "velocity": 40, "note_on_time": 88.701, "note_off_time": 89.717}, {"pitch": 64, "velocity": 40, "note_on_time": 88.702, "note_off_time": 89.718}, {"pitch": 67, "velocity": 40, "note_on_time": 88.703, "note_off_time": 89.718}, {"pitch": 79, "velocity": 40, "note_on_time": 90.735, "note_off_time": 91.747}, {"pitch": 60, "velocity": 40, "note_on_time": 96.757, "note_off_time": 97.771}, {"pitch": 64, "velocity": 40, "note_on_time": 96.758, "note_off_time": 97.772}, {"pitch": 67, "velocity": 40, "note_on_time": 96.758, "note_off_time": 97.773}, {"pitch": 76, "velocity": 40, "note_on_time": 98.784, "note_off_time": 99.788}, {"pitch": 60, "velocity": 40, "note_on_time": 104.797, "note_off_time": 105.801}, {"pitch": 64, "velocity": 40, "note_on_time": 104.797, "note_off_time": 105.802}, {"pitch": 67, "velocity": 40, "note_on_time": 104.798, "note_off_time": 105.803}, {"pitch": 72, "velocity": 40, "note_on_time": 106.817, "note_off_time": 107.824}, {"pitch": 60, "velocity": 40, "note_on_time": 112.829, "note_off_time": 113.832}, {"pitch": 64, "velocity": 40, "note_on_time": 112.831, "note_off_time": 113.833}, {"pitch": 67, "velocity": 40, "note_on_time": 112.831, "note_off_time": 113.833}, {"pitch": 74, "velocity": 40, "note_on_time": 114.845, "note_off_time": 115.856}, {"pitch": 60, "velocity": 40, "note_on_time": 120.858, "note_off_time": 121.884}, {"pitch": 64, "velocity": 40, "note_on_time": 120.86, "note_off_time": 121.885}, {"pitch": 67, "velocity": 40, "note_on_time": 120.86, "note_off_time": 121.885}, {"pitch": 72, "velocity": 40, "note_on_time": 122.901, "note_off_time": 123.909}, {"pitch": 60, "velocity": 40, "note_on_time": 128.924, "note_off_time": 129.927}, {"pitch": 64, "velocity": 40, "note_on_time": 128.925, "note_off_time": 129.928}, {"pitch": 67, "velocity": 40, "note_on_time": 128.925, "note_off_time": 129.929}, {"pitch": 77, "velocity": 40, "note_on_time": 130.941, "note_off_time": 131.947}, {"pitch": 60, "velocity": 40, "note_on_time": 136.952, "note_off_time": 137.963}, {"pitch": 64, "velocity": 40, "note_on_time": 136.952, "note_off_time": 137.964}, {"pitch": 67, "velocity": 40, "note_on_time": 136.953, "note_off_time": 137.965}, {"pitch": 74, "velocity": 40, "note_on_time": 138.978, "note_off_time": 139.989}, {"pitch": 60, "velocity": 40, "note_on_time": 144.992, "note_off_time": 146.0}, {"pitch": 64, "velocity": 40, "note_on_time": 144.993, "note_off_time": 146.001}, {"pitch": 67, "velocity": 40, "note_on_time": 144.993, "note_off_time": 146.001}, {"pitch": 79, "velocity": 40, "note_on_time": 147.016, "note_off_time": 148.03}, {"pitch": 60, "velocity": 40, "note_on_time": 153.044, "note_off_time": 154.058}, {"pitch": 64, "velocity": 40, "note_on_time": 153.045, "note_off_time": 154.059}, {"pitch": 67, "velocity": 40, "note_on_time": 153.046, "note_off_time": 154.059}, {"pitch": 76, "velocity": 40, "note_on_time": 155.069, "note_off_time": 156.072}, {"pitch": 60, "velocity": 40, "note_on_time": 161.083, "note_off_time": 162.094}, {"pitch": 64, "velocity": 40, "note_on_time": 161.085, "note_off_time": 162.095}, {"pitch": 67, "velocity": 40, "note_on_time": 161.085, "note_off_time": 162.096}, {"pitch": 77, "velocity": 40, "note_on_time": 163.108, "note_off_time": 164.121}]</notes><options name="Option List">((4, 4), [0.5, 0.25], 3, 8, &lt;NoteRangePerHand.TWO_NOTES: 3&gt;, &lt;NoteRangePerHand.ONE_NOTE: 2&gt;, False, True, True, 100)</options></target_notes><trials><trial trial_no="1" timestamp="2023_06_14-15_47_55"><notes name="Played Notes">[{"pitch": 77, "velocity": 32, "note_on_time": 9.296, "note_off_time": 9.51}, {"pitch": 76, "velocity": 37, "note_on_time": 9.268, "note_off_time": 9.515}, {"pitch": 74, "velocity": 57, "note_on_time": 9.21, "note_off_time": 9.542}, {"pitch": 72, "velocity": 42, "note_on_time": 9.153, "note_off_time": 9.863}, {"pitch": 74, "velocity": 62, "note_on_time": 12.32, "note_off_time": 12.614}, {"pitch": 77, "velocity": 55, "note_on_time": 12.338, "note_off_time": 12.614}, {"pitch": 72, "velocity": 24, "note_on_time": 12.211, "note_off_time": 12.723}, {"pitch": 72, "velocity": 42, "note_on_time": 20.161, "note_off_time": 20.439}, {"pitch": 76, "velocity": 46, "note_on_time": 27.498, "note_off_time": 27.756}, {"pitch": 74, "velocity": 48, "note_on_time": 28.329, "note_off_time": 28.527}, {"pitch": 79, "velocity": 65, "note_on_time": 29.161, "note_off_time": 29.489}, {"pitch": 67, "velocity": 54, "note_on_time": 30.017, "note_off_time": 30.231}, {"pitch": 72, "velocity": 74, "note_on_time": 31.109, "note_off_time": 31.569}, {"pitch": 71, "velocity": 73, "note_on_time": 32.199, "note_off_time": 32.421}, {"pitch": 71, "velocity": 77, "note_on_time": 33.39, "note_off_time": 33.582}, {"pitch": 76, "velocity": 51, "note_on_time": 36.653, "note_off_time": 36.847}, {"pitch": 72, "velocity": 72, "note_on_time": 42.148, "note_off_time": 42.323}, {"pitch": 86, "velocity": 26, "note_on_time": 45.024, "note_off_time": 45.288}, {"pitch": 79, "velocity": 64, "note_on_time": 45.868, "note_off_time": 46.257}, {"pitch": 74, "velocity": 67, "note_on_time": 46.942, "note_off_time": 47.939}, {"pitch": 74, "velocity": 74, "note_on_time": 48.368, "note_off_time": 49.012}, {"pitch": 55, "velocity": 57, "note_on_time": 50.756, "note_off_time": 51.074}, {"pitch": 64, "velocity": 60, "note_on_time": 53.801, "note_off_time": 54.006}, {"pitch": 62, "velocity": 38, "note_on_time": 54.627, "note_off_time": 54.971}, {"pitch": 74, "velocity": 34, "note_on_time": 56.269, "note_off_time": 56.605}, {"pitch": 76, "velocity": 80, "note_on_time": 57.816, "note_off_time": 58.872}, {"pitch": 71, "velocity": 69, "note_on_time": 61.03, "note_off_time": 61.247}, {"pitch": 69, "velocity": 60, "note_on_time": 61.785, "note_off_time": 62.181}, {"pitch": 67, "velocity": 46, "note_on_time": 63.758, "note_off_time": 64.623}, {"pitch": 65, "velocity": 83, "note_on_time": 65.374, "note_off_time": 66.462}, {"pitch": 64, "velocity": 84, "note_on_time": 67.97, "note_off_time": 69.203}, {"pitch": 62, "velocity": 72, "note_on_time": 69.975, "note_off_time": 70.22}, {"pitch": 64, "velocity": 81, "note_on_time": 70.647, "note_off_time": 71.671}, {"pitch": 72, "velocity": 51, "note_on_time": 85.399, "note_off_time": 86.25}, {"pitch": 74, "velocity": 57, "note_on_time": 106.219, "note_off_time": 106.402}, {"pitch": 76, "velocity": 52, "note_on_time": 118.273, "note_off_time": 118.479}, {"pitch": 72, "velocity": 60, "note_on_time": 122.101, "note_off_time": 122.344}, {"pitch": 74, "velocity": 70, "note_on_time": 122.869, "note_off_time": 123.163}, {"pitch": 77, "velocity": 59, "note_on_time": 130.501, "note_off_time": 130.77}, {"pitch": 79, "velocity": 46, "note_on_time": 132.777, "note_off_time": 133.008}, {"pitch": 72, "velocity": 43, "note_on_time": 138.05, "note_off_time": 138.413}, {"pitch": 74, "velocity": 45, "note_on_time": 140.41, "note_off_time": 140.636}, {"pitch": 76, "velocity": 56, "note_on_time": 145.931, "note_off_time": 146.231}, {"pitch": 77, "velocity": 26, "note_on_time": 146.699, "note_off_time": 146.9}, {"pitch": 79, "velocity": 23, "note_on_time": 148.311, "note_off_time": 148.605}, {"pitch": 77, "velocity": 54, "note_on_time": 156.586, "note_off_time": 156.825}]</notes><guidance name="Guidance Mode">None</guidance><error name="Error value">99</error></trial><trial trial_no="2" timestamp="2023_06_14-15_51_19"><notes name="Played Notes">[{"pitch": 74, "velocity": 56, "note_on_time": 5.656, "note_off_time": 5.854}, {"pitch": 76, "velocity": 39, "note_on_time": 6.118, "note_off_time": 6.349}, {"pitch": 76, "velocity": 25, "note_on_time": 6.601, "note_off_time": 6.826}, {"pitch": 74, "velocity": 40, "note_on_time": 6.986, "note_off_time": 7.146}, {"pitch": 74, "velocity": 22, "note_on_time": 7.357, "note_off_time": 7.51}, {"pitch": 74, "velocity": 23, "note_on_time": 7.606, "note_off_time": 7.821}, {"pitch": 74, "velocity": 37, "note_on_time": 7.916, "note_off_time": 8.093}, {"pitch": 76, "velocity": 38, "note_on_time": 8.236, "note_off_time": 8.342}, {"pitch": 77, "velocity": 44, "note_on_time": 8.532, "note_off_time": 8.886}, {"pitch": 79, "velocity": 48, "note_on_time": 9.091, "note_off_time": 9.345}, {"pitch": 79, "velocity": 44, "note_on_time": 9.617, "note_off_time": 9.848}, {"pitch": 77, "velocity": 11, "note_on_time": 9.956, "note_off_time": 10.546}, {"pitch": 76, "velocity": 21, "note_on_time": 10.378, "note_off_time": 10.893}, {"pitch": 74, "velocity": 22, "note_on_time": 10.82, "note_off_time": 11.268}, {"pitch": 72, "velocity": 36, "note_on_time": 11.273, "note_off_time": 11.715}, {"pitch": 74, "velocity": 20, "note_on_time": 11.867, "note_off_time": 12.026}, {"pitch": 76, "velocity": 31, "note_on_time": 12.055, "note_off_time": 12.502}, {"pitch": 77, "velocity": 21, "note_on_time": 12.436, "note_off_time": 13.008}, {"pitch": 77, "velocity": 35, "note_on_time": 13.13, "note_off_time": 13.415}, {"pitch": 76, "velocity": 25, "note_on_time": 13.399, "note_off_time": 13.756}, {"pitch": 74, "velocity": 34, "note_on_time": 13.727, "note_off_time": 14.216}, {"pitch": 76, "velocity": 34, "note_on_time": 14.1, "note_off_time": 14.368}, {"pitch": 77, "velocity": 23, "note_on_time": 14.464, "note_off_time": 14.833}, {"pitch": 79, "velocity": 39, "note_on_time": 14.86, "note_off_time": 15.349}, {"pitch": 77, "velocity": 1, "note_on_time": 15.469, "note_off_time": 15.731}, {"pitch": 76, "velocity": 19, "note_on_time": 15.631, "note_off_time": 16.154}, {"pitch": 74, "velocity": 20, "note_on_time": 15.985, "note_off_time": 16.46}, {"pitch": 72, "velocity": 27, "note_on_time": 16.385, "note_off_time": 16.724}, {"pitch": 79, "velocity": 39, "note_on_time": 16.842, "note_off_time": 17.252}, {"pitch": 77, "velocity": 37, "note_on_time": 17.257, "note_off_time": 17.668}, {"pitch": 76, "velocity": 20, "note_on_time": 17.657, "note_off_time": 17.978}, {"pitch": 77, "velocity": 41, "note_on_time": 18.106, "note_off_time": 18.292}, {"pitch": 77, "velocity": 47, "note_on_time": 18.44, "note_off_time": 18.625}, {"pitch": 77, "velocity": 41, "note_on_time": 18.79, "note_off_time": 19.069}, {"pitch": 76, "velocity": 29, "note_on_time": 19.002, "note_off_time": 19.36}, {"pitch": 74, "velocity": 31, "note_on_time": 19.363, "note_off_time": 20.04}, {"pitch": 72, "velocity": 19, "note_on_time": 20.094, "note_off_time": 20.884}, {"pitch": 72, "velocity": 4, "note_on_time": 20.984, "note_off_time": 21.105}, {"pitch": 77, "velocity": 30, "note_on_time": 21.776, "note_off_time": 21.882}, {"pitch": 79, "velocity": 36, "note_on_time": 21.866, "note_off_time": 22.267}, {"pitch": 72, "velocity": 33, "note_on_time": 21.333, "note_off_time": 22.58}, {"pitch": 76, "velocity": 35, "note_on_time": 22.483, "note_off_time": 22.712}, {"pitch": 74, "velocity": 37, "note_on_time": 22.71, "note_off_time": 23.381}, {"pitch": 79, "velocity": 34, "note_on_time": 23.105, "note_off_time": 23.461}, {"pitch": 77, "velocity": 16, "note_on_time": 23.544, "note_off_time": 23.787}, {"pitch": 76, "velocity": 11, "note_on_time": 23.853, "note_off_time": 24.138}, {"pitch": 74, "velocity": 37, "note_on_time": 24.137, "note_off_time": 24.362}, {"pitch": 77, "velocity": 13, "note_on_time": 24.404, "note_off_time": 24.804}, {"pitch": 74, "velocity": 4, "note_on_time": 25.157, "note_off_time": 25.225}, {"pitch": 76, "velocity": 20, "note_on_time": 24.799, "note_off_time": 25.257}, {"pitch": 77, "velocity": 13, "note_on_time": 25.398, "note_off_time": 25.749}, {"pitch": 76, "velocity": 1, "note_on_time": 25.687, "note_off_time": 26.022}, {"pitch": 74, "velocity": 31, "note_on_time": 26.004, "note_off_time": 26.235}, {"pitch": 72, "velocity": 40, "note_on_time": 26.319, "note_off_time": 26.558}, {"pitch": 79, "velocity": 33, "note_on_time": 26.873, "note_off_time": 27.097}, {"pitch": 79, "velocity": 32, "note_on_time": 27.304, "note_off_time": 27.483}, {"pitch": 77, "velocity": 18, "note_on_time": 27.675, "note_off_time": 27.842}, {"pitch": 77, "velocity": 32, "note_on_time": 27.994, "note_off_time": 28.141}, {"pitch": 74, "velocity": 29, "note_on_time": 28.466, "note_off_time": 28.658}, {"pitch": 72, "velocity": 27, "note_on_time": 28.718, "note_off_time": 28.944}, {"pitch": 79, "velocity": 1, "note_on_time": 29.033, "note_off_time": 29.451}, {"pitch": 77, "velocity": 33, "note_on_time": 29.377, "note_off_time": 29.778}, {"pitch": 76, "velocity": 1, "note_on_time": 29.673, "note_off_time": 29.902}, {"pitch": 74, "velocity": 26, "note_on_time": 29.876, "note_off_time": 30.084}, {"pitch": 72, "velocity": 1, "note_on_time": 30.365, "note_off_time": 30.757}, {"pitch": 79, "velocity": 9, "note_on_time": 30.282, "note_off_time": 30.9}, {"pitch": 77, "velocity": 34, "note_on_time": 30.628, "note_off_time": 31.065}, {"pitch": 76, "velocity": 1, "note_on_time": 30.888, "note_off_time": 31.173}, {"pitch": 74, "velocity": 40, "note_on_time": 31.115, "note_off_time": 31.33}, {"pitch": 72, "velocity": 13, "note_on_time": 31.578, "note_off_time": 31.882}, {"pitch": 79, "velocity": 28, "note_on_time": 31.497, "note_off_time": 31.909}, {"pitch": 77, "velocity": 44, "note_on_time": 31.8, "note_off_time": 32.099}, {"pitch": 76, "velocity": 28, "note_on_time": 31.952, "note_off_time": 32.274}, {"pitch": 74, "velocity": 33, "note_on_time": 32.253, "note_off_time": 32.588}, {"pitch": 72, "velocity": 33, "note_on_time": 32.662, "note_off_time": 32.909}, {"pitch": 72, "velocity": 33, "note_on_time": 33.212, "note_off_time": 33.463}, {"pitch": 76, "velocity": 33, "note_on_time": 33.539, "note_off_time": 33.814}, {"pitch": 79, "velocity": 31, "note_on_time": 33.986, "note_off_time": 34.285}, {"pitch": 77, "velocity": 53, "note_on_time": 34.469, "note_off_time": 34.648}, {"pitch": 76, "velocity": 36, "note_on_time": 34.558, "note_off_time": 34.877}, {"pitch": 74, "velocity": 40, "note_on_time": 34.864, "note_off_time": 35.026}, {"pitch": 72, "velocity": 33, "note_on_time": 35.151, "note_off_time": 35.368}, {"pitch": 79, "velocity": 32, "note_on_time": 35.564, "note_off_time": 35.863}, {"pitch": 76, "velocity": 37, "note_on_time": 36.036, "note_off_time": 36.279}, {"pitch": 74, "velocity": 35, "note_on_time": 36.418, "note_off_time": 36.576}, {"pitch": 72, "velocity": 25, "note_on_time": 36.736, "note_off_time": 36.919}, {"pitch": 79, "velocity": 30, "note_on_time": 37.108, "note_off_time": 37.353}, {"pitch": 77, "velocity": 30, "note_on_time": 37.568, "note_off_time": 37.797}, {"pitch": 76, "velocity": 25, "note_on_time": 37.947, "note_off_time": 38.169}, {"pitch": 74, "velocity": 12, "note_on_time": 38.318, "note_off_time": 38.469}, {"pitch": 72, "velocity": 20, "note_on_time": 38.596, "note_off_time": 38.836}, {"pitch": 79, "velocity": 27, "note_on_time": 39.035, "note_off_time": 39.296}, {"pitch": 77, "velocity": 32, "note_on_time": 39.436, "note_off_time": 39.579}, {"pitch": 76, "velocity": 1, "note_on_time": 39.766, "note_off_time": 39.911}, {"pitch": 74, "velocity": 27, "note_on_time": 39.905, "note_off_time": 40.243}, {"pitch": 72, "velocity": 18, "note_on_time": 40.303, "note_off_time": 40.953}, {"pitch": 72, "velocity": 41, "note_on_time": 41.409, "note_off_time": 41.611}, {"pitch": 72, "velocity": 50, "note_on_time": 41.896, "note_off_time": 42.055}, {"pitch": 79, "velocity": 49, "note_on_time": 42.237, "note_off_time": 42.433}, {"pitch": 79, "velocity": 56, "note_on_time": 42.568, "note_off_time": 42.793}, {"pitch": 72, "velocity": 37, "note_on_time": 42.922, "note_off_time": 43.153}, {"pitch": 74, "velocity": 47, "note_on_time": 43.056, "note_off_time": 43.333}, {"pitch": 77, "velocity": 10, "note_on_time": 43.527, "note_off_time": 43.713}, {"pitch": 79, "velocity": 27, "note_on_time": 43.717, "note_off_time": 44.103}, {"pitch": 76, "velocity": 10, "note_on_time": 44.258, "note_off_time": 44.509}, {"pitch": 74, "velocity": 40, "note_on_time": 44.672, "note_off_time": 44.86}, {"pitch": 77, "velocity": 1, "note_on_time": 45.079, "note_off_time": 45.502}, {"pitch": 76, "velocity": 16, "note_on_time": 45.471, "note_off_time": 45.96}, {"pitch": 74, "velocity": 1, "note_on_time": 46.1, "note_off_time": 46.336}, {"pitch": 76, "velocity": 39, "note_on_time": 46.401, "note_off_time": 46.768}, {"pitch": 77, "velocity": 11, "note_on_time": 46.793, "note_off_time": 47.296}, {"pitch": 76, "velocity": 14, "note_on_time": 47.179, "note_off_time": 47.561}, {"pitch": 74, "velocity": 23, "note_on_time": 47.561, "note_off_time": 47.765}, {"pitch": 77, "velocity": 21, "note_on_time": 47.904, "note_off_time": 48.194}, {"pitch": 76, "velocity": 26, "note_on_time": 48.198, "note_off_time": 48.601}, {"pitch": 74, "velocity": 30, "note_on_time": 48.539, "note_off_time": 48.871}, {"pitch": 77, "velocity": 31, "note_on_time": 48.906, "note_off_time": 49.217}, {"pitch": 76, "velocity": 31, "note_on_time": 49.227, "note_off_time": 49.537}, {"pitch": 74, "velocity": 34, "note_on_time": 49.582, "note_off_time": 49.914}, {"pitch": 77, "velocity": 46, "note_on_time": 49.992, "note_off_time": 50.494}, {"pitch": 79, "velocity": 37, "note_on_time": 50.787, "note_off_time": 50.979}, {"pitch": 77, "velocity": 39, "note_on_time": 51.176, "note_off_time": 51.387}, {"pitch": 76, "velocity": 33, "note_on_time": 51.519, "note_off_time": 51.773}, {"pitch": 74, "velocity": 36, "note_on_time": 51.843, "note_off_time": 51.988}, {"pitch": 72, "velocity": 32, "note_on_time": 52.159, "note_off_time": 52.382}, {"pitch": 77, "velocity": 34, "note_on_time": 52.518, "note_off_time": 52.794}, {"pitch": 74, "velocity": 25, "note_on_time": 52.976, "note_off_time": 53.334}, {"pitch": 79, "velocity": 21, "note_on_time": 53.497, "note_off_time": 53.773}, {"pitch": 77, "velocity": 33, "note_on_time": 53.91, "note_off_time": 54.081}, {"pitch": 76, "velocity": 1, "note_on_time": 54.167, "note_off_time": 54.469}, {"pitch": 74, "velocity": 39, "note_on_time": 54.505, "note_off_time": 54.703}, {"pitch": 77, "velocity": 51, "note_on_time": 54.951, "note_off_time": 55.191}, {"pitch": 77, "velocity": 52, "note_on_time": 55.446, "note_off_time": 55.684}, {"pitch": 76, "velocity": 27, "note_on_time": 55.777, "note_off_time": 56.182}, {"pitch": 74, "velocity": 31, "note_on_time": 56.088, "note_off_time": 57.035}, {"pitch": 76, "velocity": 41, "note_on_time": 56.622, "note_off_time": 57.128}, {"pitch": 77, "velocity": 49, "note_on_time": 57.149, "note_off_time": 57.741}, {"pitch": 76, "velocity": 40, "note_on_time": 57.656, "note_off_time": 58.174}, {"pitch": 74, "velocity": 28, "note_on_time": 58.057, "note_off_time": 58.524}, {"pitch": 72, "velocity": 49, "note_on_time": 58.395, "note_off_time": 59.332}, {"pitch": 77, "velocity": 50, "note_on_time": 59.561, "note_off_time": 59.78}, {"pitch": 76, "velocity": 28, "note_on_time": 59.842, "note_off_time": 60.204}, {"pitch": 79, "velocity": 51, "note_on_time": 60.566, "note_off_time": 60.858}, {"pitch": 77, "velocity": 21, "note_on_time": 61.064, "note_off_time": 61.178}, {"pitch": 79, "velocity": 39, "note_on_time": 61.35, "note_off_time": 61.58}, {"pitch": 72, "velocity": 33, "note_on_time": 61.861, "note_off_time": 61.998}, {"pitch": 72, "velocity": 31, "note_on_time": 62.196, "note_off_time": 62.391}, {"pitch": 79, "velocity": 39, "note_on_time": 62.509, "note_off_time": 62.688}, {"pitch": 79, "velocity": 48, "note_on_time": 62.857, "note_off_time": 63.021}, {"pitch": 72, "velocity": 38, "note_on_time": 63.173, "note_off_time": 63.284}, {"pitch": 72, "velocity": 43, "note_on_time": 63.479, "note_off_time": 63.621}, {"pitch": 77, "velocity": 41, "note_on_time": 63.786, "note_off_time": 63.954}, {"pitch": 76, "velocity": 34, "note_on_time": 63.915, "note_off_time": 64.269}, {"pitch": 74, "velocity": 30, "note_on_time": 64.247, "note_off_time": 64.559}, {"pitch": 77, "velocity": 38, "note_on_time": 64.6, "note_off_time": 65.043}, {"pitch": 76, "velocity": 38, "note_on_time": 64.938, "note_off_time": 65.269}, {"pitch": 74, "velocity": 23, "note_on_time": 65.33, "note_off_time": 65.565}, {"pitch": 77, "velocity": 27, "note_on_time": 65.641, "note_off_time": 66.137}, {"pitch": 76, "velocity": 38, "note_on_time": 65.963, "note_off_time": 66.348}, {"pitch": 74, "velocity": 36, "note_on_time": 66.295, "note_off_time": 66.745}, {"pitch": 77, "velocity": 49, "note_on_time": 66.672, "note_off_time": 67.099}, {"pitch": 76, "velocity": 46, "note_on_time": 67.036, "note_off_time": 67.347}, {"pitch": 74, "velocity": 33, "note_on_time": 67.396, "note_off_time": 67.556}, {"pitch": 72, "velocity": 41, "note_on_time": 67.705, "note_off_time": 67.932}, {"pitch": 79, "velocity": 42, "note_on_time": 68.119, "note_off_time": 68.443}, {"pitch": 77, "velocity": 52, "note_on_time": 68.748, "note_off_time": 68.916}, {"pitch": 76, "velocity": 51, "note_on_time": 69.048, "note_off_time": 69.257}, {"pitch": 74, "velocity": 30, "note_on_time": 69.382, "note_off_time": 69.598}, {"pitch": 72, "velocity": 27, "note_on_time": 69.656, "note_off_time": 69.877}, {"pitch": 79, "velocity": 12, "note_on_time": 70.002, "note_off_time": 70.413}, {"pitch": 77, "velocity": 43, "note_on_time": 70.321, "note_off_time": 70.575}, {"pitch": 76, "velocity": 33, "note_on_time": 70.598, "note_off_time": 70.906}, {"pitch": 74, "velocity": 26, "note_on_time": 70.908, "note_off_time": 71.064}, {"pitch": 72, "velocity": 39, "note_on_time": 71.177, "note_off_time": 71.405}, {"pitch": 79, "velocity": 38, "note_on_time": 71.631, "note_off_time": 72.261}, {"pitch": 76, "velocity": 51, "note_on_time": 72.913, "note_off_time": 73.397}, {"pitch": 74, "velocity": 46, "note_on_time": 73.254, "note_off_time": 73.426}, {"pitch": 76, "velocity": 7, "note_on_time": 73.727, "note_off_time": 73.898}, {"pitch": 74, "velocity": 40, "note_on_time": 73.674, "note_off_time": 73.907}, {"pitch": 77, "velocity": 9, "note_on_time": 73.724, "note_off_time": 73.936}, {"pitch": 72, "velocity": 50, "note_on_time": 73.649, "note_off_time": 73.942}, {"pitch": 79, "velocity": 55, "note_on_time": 73.645, "note_off_time": 73.964}, {"pitch": 76, "velocity": 23, "note_on_time": 74.326, "note_off_time": 74.562}, {"pitch": 77, "velocity": 21, "note_on_time": 74.307, "note_off_time": 74.597}, {"pitch": 74, "velocity": 35, "note_on_time": 74.306, "note_off_time": 74.607}, {"pitch": 72, "velocity": 62, "note_on_time": 74.23, "note_off_time": 74.671}, {"pitch": 79, "velocity": 63, "note_on_time": 74.224, "note_off_time": 74.728}, {"pitch": 77, "velocity": 61, "note_on_time": 74.891, "note_off_time": 75.736}, {"pitch": 76, "velocity": 65, "note_on_time": 74.909, "note_off_time": 75.786}, {"pitch": 72, "velocity": 39, "note_on_time": 76.014, "note_off_time": 76.35}, {"pitch": 72, "velocity": 18, "note_on_time": 76.611, "note_off_time": 76.745}, {"pitch": 79, "velocity": 53, "note_on_time": 76.468, "note_off_time": 76.85}, {"pitch": 77, "velocity": 41, "note_on_time": 76.84, "note_off_time": 77.196}, {"pitch": 76, "velocity": 40, "note_on_time": 76.855, "note_off_time": 77.417}, {"pitch": 74, "velocity": 48, "note_on_time": 77.181, "note_off_time": 77.485}, {"pitch": 77, "velocity": 34, "note_on_time": 77.516, "note_off_time": 77.995}, {"pitch": 76, "velocity": 30, "note_on_time": 77.836, "note_off_time": 78.202}, {"pitch": 74, "velocity": 28, "note_on_time": 78.228, "note_off_time": 78.453}, {"pitch": 77, "velocity": 36, "note_on_time": 78.525, "note_off_time": 79.02}, {"pitch": 76, "velocity": 16, "note_on_time": 78.901, "note_off_time": 79.27}, {"pitch": 74, "velocity": 21, "note_on_time": 79.34, "note_off_time": 79.624}, {"pitch": 72, "velocity": 29, "note_on_time": 79.734, "note_off_time": 80.154}, {"pitch": 79, "velocity": 51, "note_on_time": 80.317, "note_off_time": 80.675}, {"pitch": 79, "velocity": 42, "note_on_time": 80.873, "note_off_time": 81.119}, {"pitch": 79, "velocity": 25, "note_on_time": 81.186, "note_off_time": 81.408}, {"pitch": 72, "velocity": 55, "note_on_time": 81.485, "note_off_time": 81.826}, {"pitch": 77, "velocity": 32, "note_on_time": 82.142, "note_off_time": 82.473}, {"pitch": 76, "velocity": 45, "note_on_time": 82.128, "note_off_time": 82.49}, {"pitch": 72, "velocity": 46, "note_on_time": 82.824, "note_off_time": 83.103}, {"pitch": 77, "velocity": 66, "note_on_time": 83.406, "note_off_time": 83.663}, {"pitch": 76, "velocity": 53, "note_on_time": 83.426, "note_off_time": 83.706}, {"pitch": 74, "velocity": 39, "note_on_time": 84.011, "note_off_time": 84.148}, {"pitch": 74, "velocity": 40, "note_on_time": 84.301, "note_off_time": 84.409}, {"pitch": 76, "velocity": 46, "note_on_time": 84.633, "note_off_time": 84.982}, {"pitch": 77, "velocity": 13, "note_on_time": 85.123, "note_off_time": 85.413}, {"pitch": 76, "velocity": 37, "note_on_time": 85.454, "note_off_time": 85.804}, {"pitch": 74, "velocity": 12, "note_on_time": 85.839, "note_off_time": 86.094}, {"pitch": 77, "velocity": 40, "note_on_time": 86.121, "note_off_time": 86.531}, {"pitch": 76, "velocity": 35, "note_on_time": 86.447, "note_off_time": 86.866}, {"pitch": 79, "velocity": 57, "note_on_time": 87.018, "note_off_time": 87.348}, {"pitch": 77, "velocity": 37, "note_on_time": 87.597, "note_off_time": 87.726}, {"pitch": 77, "velocity": 37, "note_on_time": 87.934, "note_off_time": 88.142}, {"pitch": 76, "velocity": 47, "note_on_time": 88.213, "note_off_time": 88.538}, {"pitch": 74, "velocity": 42, "note_on_time": 88.537, "note_off_time": 88.712}, {"pitch": 72, "velocity": 39, "note_on_time": 88.804, "note_off_time": 89.13}, {"pitch": 79, "velocity": 55, "note_on_time": 89.402, "note_off_time": 89.728}, {"pitch": 77, "velocity": 24, "note_on_time": 90.023, "note_off_time": 90.209}, {"pitch": 76, "velocity": 1, "note_on_time": 90.233, "note_off_time": 90.464}, {"pitch": 74, "velocity": 1, "note_on_time": 90.573, "note_off_time": 90.877}, {"pitch": 77, "velocity": 37, "note_on_time": 90.905, "note_off_time": 91.242}, {"pitch": 76, "velocity": 32, "note_on_time": 91.16, "note_off_time": 91.43}, {"pitch": 74, "velocity": 26, "note_on_time": 91.376, "note_off_time": 91.709}, {"pitch": 72, "velocity": 41, "note_on_time": 91.773, "note_off_time": 92.039}, {"pitch": 72, "velocity": 52, "note_on_time": 92.404, "note_off_time": 92.588}, {"pitch": 72, "velocity": 34, "note_on_time": 92.875, "note_off_time": 93.167}, {"pitch": 76, "velocity": 23, "note_on_time": 93.257, "note_off_time": 93.445}, {"pitch": 77, "velocity": 35, "note_on_time": 93.323, "note_off_time": 93.629}, {"pitch": 79, "velocity": 35, "note_on_time": 93.653, "note_off_time": 94.017}, {"pitch": 76, "velocity": 48, "note_on_time": 94.077, "note_off_time": 94.498}, {"pitch": 74, "velocity": 36, "note_on_time": 94.485, "note_off_time": 94.65}, {"pitch": 72, "velocity": 32, "note_on_time": 94.712, "note_off_time": 94.959}, {"pitch": 79, "velocity": 14, "note_on_time": 95.036, "note_off_time": 95.389}, {"pitch": 76, "velocity": 33, "note_on_time": 95.539, "note_off_time": 95.994}, {"pitch": 72, "velocity": 45, "note_on_time": 96.055, "note_off_time": 96.344}, {"pitch": 79, "velocity": 37, "note_on_time": 96.516, "note_off_time": 97.013}, {"pitch": 77, "velocity": 1, "note_on_time": 97.206, "note_off_time": 97.421}, {"pitch": 76, "velocity": 27, "note_on_time": 97.363, "note_off_time": 97.726}, {"pitch": 74, "velocity": 35, "note_on_time": 97.676, "note_off_time": 97.998}, {"pitch": 72, "velocity": 28, "note_on_time": 97.937, "note_off_time": 98.47}, {"pitch": 74, "velocity": 55, "note_on_time": 98.448, "note_off_time": 98.776}, {"pitch": 76, "velocity": 46, "note_on_time": 98.85, "note_off_time": 99.159}, {"pitch": 77, "velocity": 22, "note_on_time": 99.077, "note_off_time": 99.558}, {"pitch": 79, "velocity": 30, "note_on_time": 99.428, "note_off_time": 99.752}, {"pitch": 77, "velocity": 1, "note_on_time": 99.809, "note_off_time": 100.104}, {"pitch": 76, "velocity": 6, "note_on_time": 99.937, "note_off_time": 100.319}, {"pitch": 74, "velocity": 36, "note_on_time": 100.22, "note_off_time": 100.479}, {"pitch": 72, "velocity": 16, "note_on_time": 100.52, "note_off_time": 100.832}, {"pitch": 79, "velocity": 43, "note_on_time": 100.9, "note_off_time": 101.438}, {"pitch": 77, "velocity": 27, "note_on_time": 101.567, "note_off_time": 101.797}, {"pitch": 77, "velocity": 49, "note_on_time": 101.935, "note_off_time": 102.033}, {"pitch": 77, "velocity": 46, "note_on_time": 102.21, "note_off_time": 102.396}, {"pitch": 76, "velocity": 43, "note_on_time": 102.517, "note_off_time": 102.794}, {"pitch": 74, "velocity": 40, "note_on_time": 102.823, "note_off_time": 103.014}, {"pitch": 72, "velocity": 54, "note_on_time": 103.376, "note_off_time": 103.62}, {"pitch": 74, "velocity": 45, "note_on_time": 103.94, "note_off_time": 104.168}, {"pitch": 76, "velocity": 34, "note_on_time": 104.281, "note_off_time": 104.428}, {"pitch": 77, "velocity": 42, "note_on_time": 104.599, "note_off_time": 104.849}, {"pitch": 79, "velocity": 43, "note_on_time": 105.214, "note_off_time": 105.424}, {"pitch": 77, "velocity": 27, "note_on_time": 105.551, "note_off_time": 105.769}, {"pitch": 76, "velocity": 50, "note_on_time": 105.882, "note_off_time": 106.112}, {"pitch": 74, "velocity": 42, "note_on_time": 106.495, "note_off_time": 106.634}, {"pitch": 72, "velocity": 57, "note_on_time": 107.036, "note_off_time": 107.378}, {"pitch": 74, "velocity": 72, "note_on_time": 108.34, "note_off_time": 108.476}, {"pitch": 74, "velocity": 56, "note_on_time": 108.648, "note_off_time": 108.76}, {"pitch": 76, "velocity": 76, "note_on_time": 108.946, "note_off_time": 109.09}, {"pitch": 77, "velocity": 57, "note_on_time": 109.208, "note_off_time": 109.353}, {"pitch": 76, "velocity": 77, "note_on_time": 109.503, "note_off_time": 109.738}, {"pitch": 74, "velocity": 71, "note_on_time": 110.092, "note_off_time": 110.308}, {"pitch": 77, "velocity": 74, "note_on_time": 110.655, "note_off_time": 110.807}, {"pitch": 77, "velocity": 55, "note_on_time": 110.92, "note_off_time": 111.083}, {"pitch": 76, "velocity": 50, "note_on_time": 111.238, "note_off_time": 111.377}, {"pitch": 74, "velocity": 52, "note_on_time": 111.538, "note_off_time": 111.652}, {"pitch": 77, "velocity": 56, "note_on_time": 111.855, "note_off_time": 112.244}, {"pitch": 76, "velocity": 66, "note_on_time": 112.492, "note_off_time": 112.748}, {"pitch": 79, "velocity": 63, "note_on_time": 113.046, "note_off_time": 113.183}, {"pitch": 79, "velocity": 41, "note_on_time": 113.309, "note_off_time": 113.41}, {"pitch": 79, "velocity": 47, "note_on_time": 113.58, "note_off_time": 113.756}, {"pitch": 79, "velocity": 38, "note_on_time": 113.893, "note_off_time": 114.07}, {"pitch": 77, "velocity": 54, "note_on_time": 114.187, "note_off_time": 114.337}, {"pitch": 76, "velocity": 47, "note_on_time": 114.451, "note_off_time": 114.541}, {"pitch": 76, "velocity": 57, "note_on_time": 114.728, "note_off_time": 114.9}, {"pitch": 72, "velocity": 26, "note_on_time": 115.049, "note_off_time": 115.107}, {"pitch": 72, "velocity": 46, "note_on_time": 115.304, "note_off_time": 115.409}, {"pitch": 74, "velocity": 52, "note_on_time": 115.596, "note_off_time": 115.74}, {"pitch": 76, "velocity": 42, "note_on_time": 115.866, "note_off_time": 116.019}, {"pitch": 77, "velocity": 30, "note_on_time": 116.097, "note_off_time": 116.375}, {"pitch": 79, "velocity": 38, "note_on_time": 116.556, "note_off_time": 116.897}, {"pitch": 72, "velocity": 53, "note_on_time": 117.261, "note_off_time": 117.42}, {"pitch": 74, "velocity": 30, "note_on_time": 117.611, "note_off_time": 117.696}, {"pitch": 74, "velocity": 54, "note_on_time": 117.872, "note_off_time": 118.04}, {"pitch": 79, "velocity": 51, "note_on_time": 118.233, "note_off_time": 118.545}, {"pitch": 79, "velocity": 54, "note_on_time": 118.813, "note_off_time": 119.018}, {"pitch": 79, "velocity": 27, "note_on_time": 119.121, "note_off_time": 119.32}, {"pitch": 77, "velocity": 33, "note_on_time": 119.495, "note_off_time": 119.85}, {"pitch": 76, "velocity": 46, "note_on_time": 119.792, "note_off_time": 119.939}, {"pitch": 74, "velocity": 49, "note_on_time": 120.118, "note_off_time": 120.246}, {"pitch": 72, "velocity": 50, "note_on_time": 120.415, "note_off_time": 120.604}, {"pitch": 76, "velocity": 36, "note_on_time": 120.793, "note_off_time": 121.113}, {"pitch": 74, "velocity": 37, "note_on_time": 121.122, "note_off_time": 121.383}, {"pitch": 77, "velocity": 24, "note_on_time": 121.451, "note_off_time": 121.889}, {"pitch": 76, "velocity": 18, "note_on_time": 121.764, "note_off_time": 122.092}, {"pitch": 74, "velocity": 29, "note_on_time": 122.104, "note_off_time": 122.354}, {"pitch": 77, "velocity": 1, "note_on_time": 122.566, "note_off_time": 122.957}, {"pitch": 76, "velocity": 36, "note_on_time": 122.9, "note_off_time": 123.204}, {"pitch": 74, "velocity": 40, "note_on_time": 123.19, "note_off_time": 123.422}, {"pitch": 77, "velocity": 1, "note_on_time": 123.537, "note_off_time": 123.974}, {"pitch": 76, "velocity": 31, "note_on_time": 123.876, "note_off_time": 124.251}, {"pitch": 74, "velocity": 28, "note_on_time": 124.164, "note_off_time": 124.387}, {"pitch": 72, "velocity": 44, "note_on_time": 124.619, "note_off_time": 125.465}, {"pitch": 72, "velocity": 54, "note_on_time": 125.916, "note_off_time": 126.45}, {"pitch": 77, "velocity": 31, "note_on_time": 127.153, "note_off_time": 127.579}, {"pitch": 76, "velocity": 51, "note_on_time": 127.119, "note_off_time": 127.609}, {"pitch": 79, "velocity": 64, "note_on_time": 127.087, "note_off_time": 127.656}, {"pitch": 74, "velocity": 71, "note_on_time": 127.08, "note_off_time": 127.685}, {"pitch": 72, "velocity": 48, "note_on_time": 127.072, "note_off_time": 127.702}, {"pitch": 79, "velocity": 45, "note_on_time": 128.185, "note_off_time": 128.764}, {"pitch": 76, "velocity": 46, "note_on_time": 128.201, "note_off_time": 128.774}, {"pitch": 77, "velocity": 54, "note_on_time": 128.178, "note_off_time": 128.776}, {"pitch": 74, "velocity": 58, "note_on_time": 128.17, "note_off_time": 128.792}, {"pitch": 72, "velocity": 14, "note_on_time": 128.123, "note_off_time": 128.822}, {"pitch": 77, "velocity": 35, "note_on_time": 129.266, "note_off_time": 129.867}, {"pitch": 76, "velocity": 38, "note_on_time": 129.262, "note_off_time": 129.869}, {"pitch": 74, "velocity": 55, "note_on_time": 129.287, "note_off_time": 129.878}, {"pitch": 72, "velocity": 20, "note_on_time": 129.304, "note_off_time": 129.893}, {"pitch": 74, "velocity": 27, "note_on_time": 130.372, "note_off_time": 130.69}, {"pitch": 79, "velocity": 63, "note_on_time": 130.309, "note_off_time": 130.797}, {"pitch": 72, "velocity": 59, "note_on_time": 130.308, "note_off_time": 130.842}, {"pitch": 77, "velocity": 58, "note_on_time": 130.931, "note_off_time": 131.145}, {"pitch": 77, "velocity": 37, "note_on_time": 131.25, "note_off_time": 131.414}, {"pitch": 76, "velocity": 49, "note_on_time": 131.553, "note_off_time": 131.752}, {"pitch": 74, "velocity": 46, "note_on_time": 131.836, "note_off_time": 132.021}, {"pitch": 72, "velocity": 27, "note_on_time": 132.109, "note_off_time": 132.29}, {"pitch": 79, "velocity": 22, "note_on_time": 132.178, "note_off_time": 132.649}, {"pitch": 77, "velocity": 33, "note_on_time": 132.589, "note_off_time": 132.777}, {"pitch": 76, "velocity": 46, "note_on_time": 132.615, "note_off_time": 133.025}, {"pitch": 74, "velocity": 27, "note_on_time": 132.84, "note_off_time": 133.083}, {"pitch": 72, "velocity": 27, "note_on_time": 133.024, "note_off_time": 133.416}, {"pitch": 79, "velocity": 53, "note_on_time": 133.34, "note_off_time": 134.096}, {"pitch": 79, "velocity": 67, "note_on_time": 134.352, "note_off_time": 134.582}, {"pitch": 79, "velocity": 64, "note_on_time": 134.767, "note_off_time": 134.973}, {"pitch": 77, "velocity": 68, "note_on_time": 135.077, "note_off_time": 135.285}, {"pitch": 77, "velocity": 54, "note_on_time": 135.39, "note_off_time": 135.586}, {"pitch": 76, "velocity": 47, "note_on_time": 135.647, "note_off_time": 136.087}, {"pitch": 74, "velocity": 46, "note_on_time": 136.019, "note_off_time": 136.368}, {"pitch": 72, "velocity": 43, "note_on_time": 136.324, "note_off_time": 136.784}, {"pitch": 79, "velocity": 56, "note_on_time": 136.907, "note_off_time": 137.254}, {"pitch": 72, "velocity": 58, "note_on_time": 137.471, "note_off_time": 137.631}, {"pitch": 72, "velocity": 37, "note_on_time": 137.994, "note_off_time": 138.244}, {"pitch": 77, "velocity": 45, "note_on_time": 138.58, "note_off_time": 138.808}, {"pitch": 72, "velocity": 47, "note_on_time": 138.677, "note_off_time": 138.845}, {"pitch": 74, "velocity": 31, "note_on_time": 138.781, "note_off_time": 138.85}, {"pitch": 76, "velocity": 49, "note_on_time": 139.198, "note_off_time": 139.385}, {"pitch": 79, "velocity": 22, "note_on_time": 139.259, "note_off_time": 139.388}, {"pitch": 77, "velocity": 41, "note_on_time": 139.214, "note_off_time": 139.39}, {"pitch": 74, "velocity": 58, "note_on_time": 139.189, "note_off_time": 139.391}, {"pitch": 72, "velocity": 41, "note_on_time": 139.191, "note_off_time": 139.393}, {"pitch": 72, "velocity": 12, "note_on_time": 139.842, "note_off_time": 140.022}, {"pitch": 77, "velocity": 32, "note_on_time": 139.823, "note_off_time": 140.026}, {"pitch": 76, "velocity": 50, "note_on_time": 139.788, "note_off_time": 140.04}, {"pitch": 74, "velocity": 58, "note_on_time": 139.771, "note_off_time": 140.041}, {"pitch": 76, "velocity": 56, "note_on_time": 140.435, "note_off_time": 140.679}, {"pitch": 72, "velocity": 37, "note_on_time": 140.435, "note_off_time": 140.681}, {"pitch": 74, "velocity": 40, "note_on_time": 140.411, "note_off_time": 140.693}, {"pitch": 72, "velocity": 44, "note_on_time": 141.013, "note_off_time": 141.239}, {"pitch": 77, "velocity": 43, "note_on_time": 141.046, "note_off_time": 141.3}, {"pitch": 79, "velocity": 53, "note_on_time": 140.974, "note_off_time": 141.301}, {"pitch": 76, "velocity": 40, "note_on_time": 141.61, "note_off_time": 141.819}, {"pitch": 79, "velocity": 2, "note_on_time": 141.701, "note_off_time": 141.876}, {"pitch": 72, "velocity": 39, "note_on_time": 141.626, "note_off_time": 141.897}, {"pitch": 74, "velocity": 61, "note_on_time": 141.635, "note_off_time": 141.902}, {"pitch": 72, "velocity": 1, "note_on_time": 142.286, "note_off_time": 142.428}, {"pitch": 79, "velocity": 45, "note_on_time": 142.111, "note_off_time": 142.529}, {"pitch": 72, "velocity": 55, "note_on_time": 142.785, "note_off_time": 143.019}, {"pitch": 79, "velocity": 55, "note_on_time": 142.786, "note_off_time": 143.048}, {"pitch": 76, "velocity": 54, "note_on_time": 143.352, "note_off_time": 143.585}, {"pitch": 79, "velocity": 41, "note_on_time": 143.859, "note_off_time": 144.175}, {"pitch": 77, "velocity": 24, "note_on_time": 144.232, "note_off_time": 144.529}, {"pitch": 76, "velocity": 40, "note_on_time": 144.413, "note_off_time": 144.773}, {"pitch": 74, "velocity": 44, "note_on_time": 144.678, "note_off_time": 144.904}, {"pitch": 79, "velocity": 34, "note_on_time": 144.951, "note_off_time": 145.472}, {"pitch": 76, "velocity": 50, "note_on_time": 145.5, "note_off_time": 146.016}, {"pitch": 74, "velocity": 45, "note_on_time": 145.985, "note_off_time": 146.18}, {"pitch": 72, "velocity": 16, "note_on_time": 146.486, "note_off_time": 146.752}, {"pitch": 79, "velocity": 48, "note_on_time": 146.452, "note_off_time": 146.883}, {"pitch": 72, "velocity": 8, "note_on_time": 146.895, "note_off_time": 147.035}, {"pitch": 75, "velocity": 54, "note_on_time": 147.363, "note_off_time": 147.571}, {"pitch": 74, "velocity": 50, "note_on_time": 147.869, "note_off_time": 148.0}, {"pitch": 74, "velocity": 43, "note_on_time": 148.165, "note_off_time": 148.299}, {"pitch": 76, "velocity": 46, "note_on_time": 148.479, "note_off_time": 148.655}, {"pitch": 79, "velocity": 35, "note_on_time": 148.717, "note_off_time": 149.087}, {"pitch": 76, "velocity": 57, "note_on_time": 149.02, "note_off_time": 149.601}, {"pitch": 74, "velocity": 46, "note_on_time": 149.631, "note_off_time": 149.954}, {"pitch": 72, "velocity": 41, "note_on_time": 149.642, "note_off_time": 150.483}, {"pitch": 79, "velocity": 45, "note_on_time": 150.133, "note_off_time": 150.571}, {"pitch": 74, "velocity": 56, "note_on_time": 150.767, "note_off_time": 150.952}, {"pitch": 79, "velocity": 35, "note_on_time": 151.024, "note_off_time": 151.437}, {"pitch": 79, "velocity": 41, "note_on_time": 151.666, "note_off_time": 152.128}, {"pitch": 77, "velocity": 25, "note_on_time": 152.09, "note_off_time": 152.523}, {"pitch": 76, "velocity": 15, "note_on_time": 152.363, "note_off_time": 152.663}, {"pitch": 74, "velocity": 30, "note_on_time": 152.65, "note_off_time": 152.819}, {"pitch": 79, "velocity": 4, "note_on_time": 152.782, "note_off_time": 153.213}, {"pitch": 77, "velocity": 31, "note_on_time": 153.138, "note_off_time": 153.38}, {"pitch": 76, "velocity": 32, "note_on_time": 153.283, "note_off_time": 153.807}, {"pitch": 74, "velocity": 9, "note_on_time": 153.667, "note_off_time": 153.811}, {"pitch": 72, "velocity": 24, "note_on_time": 153.795, "note_off_time": 154.168}, {"pitch": 77, "velocity": 38, "note_on_time": 154.232, "note_off_time": 154.535}, {"pitch": 76, "velocity": 25, "note_on_time": 154.346, "note_off_time": 154.743}, {"pitch": 72, "velocity": 11, "note_on_time": 154.826, "note_off_time": 155.461}, {"pitch": 77, "velocity": 37, "note_on_time": 155.361, "note_off_time": 155.802}, {"pitch": 76, "velocity": 31, "note_on_time": 155.515, "note_off_time": 155.988}, {"pitch": 74, "velocity": 25, "note_on_time": 155.896, "note_off_time": 156.298}, {"pitch": 72, "velocity": 1, "note_on_time": 156.225, "note_off_time": 156.711}, {"pitch": 77, "velocity": 30, "note_on_time": 156.633, "note_off_time": 156.982}, {"pitch": 79, "velocity": 44, "note_on_time": 157.251, "note_off_time": 157.585}, {"pitch": 72, "velocity": 45, "note_on_time": 157.782, "note_off_time": 157.987}, {"pitch": 79, "velocity": 1, "note_on_time": 158.267, "note_off_time": 158.424}, {"pitch": 72, "velocity": 33, "note_on_time": 158.267, "note_off_time": 158.497}, {"pitch": 72, "velocity": 24, "note_on_time": 158.71, "note_off_time": 158.936}, {"pitch": 72, "velocity": 38, "note_on_time": 159.16, "note_off_time": 159.359}, {"pitch": 76, "velocity": 46, "note_on_time": 159.586, "note_off_time": 159.823}, {"pitch": 74, "velocity": 46, "note_on_time": 160.068, "note_off_time": 160.229}, {"pitch": 74, "velocity": 40, "note_on_time": 160.478, "note_off_time": 160.641}, {"pitch": 74, "velocity": 39, "note_on_time": 160.848, "note_off_time": 160.994}, {"pitch": 76, "velocity": 51, "note_on_time": 161.191, "note_off_time": 161.388}, {"pitch": 76, "velocity": 39, "note_on_time": 161.613, "note_off_time": 161.776}, {"pitch": 76, "velocity": 43, "note_on_time": 161.936, "note_off_time": 162.106}, {"pitch": 77, "velocity": 42, "note_on_time": 162.278, "note_off_time": 162.481}, {"pitch": 77, "velocity": 23, "note_on_time": 162.693, "note_off_time": 162.92}, {"pitch": 79, "velocity": 40, "note_on_time": 163.043, "note_off_time": 163.262}, {"pitch": 79, "velocity": 24, "note_on_time": 163.401, "note_off_time": 163.626}, {"pitch": 77, "velocity": 41, "note_on_time": 163.755, "note_off_time": 164.159}, {"pitch": 76, "velocity": 38, "note_on_time": 164.024, "note_off_time": 164.298}, {"pitch": 74, "velocity": 31, "note_on_time": 164.656, "note_off_time": 164.9}, {"pitch": 72, "velocity": 45, "note_on_time": 165.098, "note_off_time": 165.394}, {"pitch": 79, "velocity": 45, "note_on_time": 165.745, "note_off_time": 166.049}, {"pitch": 77, "velocity": 54, "note_on_time": 166.135, "note_off_time": 166.608}, {"pitch": 76, "velocity": 46, "note_on_time": 166.479, "note_off_time": 166.706}, {"pitch": 74, "velocity": 29, "note_on_time": 166.808, "note_off_time": 166.995}, {"pitch": 72, "velocity": 51, "note_on_time": 167.111, "note_off_time": 167.325}, {"pitch": 77, "velocity": 19, "note_on_time": 167.589, "note_off_time": 167.968}, {"pitch": 76, "velocity": 41, "note_on_time": 167.993, "note_off_time": 168.268}, {"pitch": 74, "velocity": 33, "note_on_time": 168.275, "note_off_time": 168.504}, {"pitch": 72, "velocity": 26, "note_on_time": 168.564, "note_off_time": 168.807}, {"pitch": 79, "velocity": 36, "note_on_time": 168.578, "note_off_time": 168.973}, {"pitch": 79, "velocity": 1, "note_on_time": 169.091, "note_off_time": 169.39}, {"pitch": 77, "velocity": 1, "note_on_time": 169.36, "note_off_time": 169.503}, {"pitch": 76, "velocity": 45, "note_on_time": 169.379, "note_off_time": 169.686}, {"pitch": 74, "velocity": 44, "note_on_time": 169.649, "note_off_time": 169.897}, {"pitch": 72, "velocity": 44, "note_on_time": 169.888, "note_off_time": 170.216}, {"pitch": 79, "velocity": 1, "note_on_time": 170.148, "note_off_time": 170.762}, {"pitch": 72, "velocity": 46, "note_on_time": 170.784, "note_off_time": 171.048}, {"pitch": 72, "velocity": 48, "note_on_time": 171.309, "note_off_time": 171.519}, {"pitch": 74, "velocity": 52, "note_on_time": 171.717, "note_off_time": 171.902}, {"pitch": 76, "velocity": 53, "note_on_time": 172.029, "note_off_time": 172.209}, {"pitch": 77, "velocity": 35, "note_on_time": 172.366, "note_off_time": 172.53}, {"pitch": 79, "velocity": 32, "note_on_time": 172.662, "note_off_time": 173.068}, {"pitch": 72, "velocity": 36, "note_on_time": 173.276, "note_off_time": 173.674}, {"pitch": 74, "velocity": 48, "note_on_time": 173.896, "note_off_time": 174.086}, {"pitch": 76, "velocity": 6, "note_on_time": 174.1, "note_off_time": 174.475}, {"pitch": 77, "velocity": 54, "note_on_time": 174.384, "note_off_time": 174.711}, {"pitch": 79, "velocity": 31, "note_on_time": 174.507, "note_off_time": 174.912}, {"pitch": 77, "velocity": 46, "note_on_time": 175.052, "note_off_time": 175.378}, {"pitch": 76, "velocity": 31, "note_on_time": 175.106, "note_off_time": 175.59}, {"pitch": 74, "velocity": 52, "note_on_time": 175.618, "note_off_time": 175.931}, {"pitch": 79, "velocity": 4, "note_on_time": 176.136, "note_off_time": 176.52}, {"pitch": 76, "velocity": 1, "note_on_time": 176.616, "note_off_time": 176.961}, {"pitch": 74, "velocity": 28, "note_on_time": 176.935, "note_off_time": 177.208}, {"pitch": 77, "velocity": 31, "note_on_time": 177.252, "note_off_time": 177.809}, {"pitch": 76, "velocity": 29, "note_on_time": 177.568, "note_off_time": 177.991}, {"pitch": 74, "velocity": 33, "note_on_time": 177.896, "note_off_time": 178.323}, {"pitch": 76, "velocity": 50, "note_on_time": 178.445, "note_off_time": 178.774}, {"pitch": 77, "velocity": 25, "note_on_time": 178.966, "note_off_time": 179.228}, {"pitch": 76, "velocity": 23, "note_on_time": 179.355, "note_off_time": 179.65}, {"pitch": 74, "velocity": 33, "note_on_time": 179.705, "note_off_time": 179.884}, {"pitch": 77, "velocity": 20, "note_on_time": 179.992, "note_off_time": 180.638}, {"pitch": 76, "velocity": 38, "note_on_time": 180.503, "note_off_time": 180.875}, {"pitch": 74, "velocity": 29, "note_on_time": 180.904, "note_off_time": 181.221}, {"pitch": 79, "velocity": 26, "note_on_time": 181.246, "note_off_time": 181.82}, {"pitch": 79, "velocity": 46, "note_on_time": 182.524, "note_off_time": 183.04}, {"pitch": 72, "velocity": 53, "note_on_time": 183.699, "note_off_time": 184.177}, {"pitch": 79, "velocity": 62, "note_on_time": 183.675, "note_off_time": 184.298}, {"pitch": 76, "velocity": 46, "note_on_time": 184.854, "note_off_time": 185.356}, {"pitch": 74, "velocity": 60, "note_on_time": 184.837, "note_off_time": 185.393}, {"pitch": 77, "velocity": 64, "note_on_time": 184.811, "note_off_time": 185.423}, {"pitch": 79, "velocity": 24, "note_on_time": 184.864, "note_off_time": 185.435}, {"pitch": 72, "velocity": 60, "note_on_time": 184.805, "note_off_time": 185.446}, {"pitch": 77, "velocity": 55, "note_on_time": 185.978, "note_off_time": 186.358}, {"pitch": 76, "velocity": 42, "note_on_time": 185.925, "note_off_time": 186.406}, {"pitch": 74, "velocity": 44, "note_on_time": 186.29, "note_off_time": 186.621}, {"pitch": 72, "velocity": 22, "note_on_time": 186.673, "note_off_time": 186.805}, {"pitch": 77, "velocity": 45, "note_on_time": 186.655, "note_off_time": 186.98}, {"pitch": 76, "velocity": 44, "note_on_time": 186.689, "note_off_time": 187.094}, {"pitch": 74, "velocity": 44, "note_on_time": 187.027, "note_off_time": 187.403}, {"pitch": 77, "velocity": 46, "note_on_time": 187.413, "note_off_time": 187.729}, {"pitch": 76, "velocity": 30, "note_on_time": 187.677, "note_off_time": 187.975}, {"pitch": 74, "velocity": 43, "note_on_time": 187.97, "note_off_time": 188.137}, {"pitch": 77, "velocity": 31, "note_on_time": 188.216, "note_off_time": 188.503}, {"pitch": 76, "velocity": 43, "note_on_time": 188.481, "note_off_time": 188.81}, {"pitch": 74, "velocity": 39, "note_on_time": 188.797, "note_off_time": 189.092}, {"pitch": 77, "velocity": 40, "note_on_time": 189.135, "note_off_time": 189.752}, {"pitch": 76, "velocity": 30, "note_on_time": 189.719, "note_off_time": 190.033}, {"pitch": 74, "velocity": 34, "note_on_time": 190.012, "note_off_time": 190.387}, {"pitch": 77, "velocity": 27, "note_on_time": 190.401, "note_off_time": 190.681}, {"pitch": 76, "velocity": 39, "note_on_time": 190.631, "note_off_time": 190.929}, {"pitch": 74, "velocity": 51, "note_on_time": 190.897, "note_off_time": 191.174}, {"pitch": 77, "velocity": 52, "note_on_time": 191.446, "note_off_time": 191.712}, {"pitch": 76, "velocity": 27, "note_on_time": 191.956, "note_off_time": 192.192}, {"pitch": 74, "velocity": 33, "note_on_time": 192.241, "note_off_time": 192.424}, {"pitch": 72, "velocity": 32, "note_on_time": 192.497, "note_off_time": 192.834}, {"pitch": 79, "velocity": 17, "note_on_time": 193.295, "note_off_time": 193.525}, {"pitch": 72, "velocity": 48, "note_on_time": 193.654, "note_off_time": 193.901}, {"pitch": 72, "velocity": 23, "note_on_time": 194.207, "note_off_time": 194.423}]</notes><guidance name="Guidance Mode">None</guidance><error name="Error value">99</error></trial><trial trial_no="3" timestamp="2023_06_14-15_56_57"><notes name="Played Notes">[{"pitch": 72, "velocity": 23, "note_on_time": 1.847, "note_off_time": 1.947}, {"pitch": 79, "velocity": 58, "note_on_time": 1.767, "note_off_time": 2.127}, {"pitch": 72, "velocity": 49, "note_on_time": 2.311, "note_off_time": 2.484}, {"pitch": 79, "velocity": 39, "note_on_time": 2.272, "note_off_time": 2.566}, {"pitch": 72, "velocity": 48, "note_on_time": 2.696, "note_off_time": 2.853}, {"pitch": 79, "velocity": 34, "note_on_time": 2.716, "note_off_time": 2.89}, {"pitch": 72, "velocity": 54, "note_on_time": 3.062, "note_off_time": 3.259}, {"pitch": 79, "velocity": 49, "note_on_time": 3.059, "note_off_time": 3.264}, {"pitch": 77, "velocity": 42, "note_on_time": 3.37, "note_off_time": 3.477}, {"pitch": 72, "velocity": 12, "note_on_time": 3.326, "note_off_time": 3.483}, {"pitch": 72, "velocity": 44, "note_on_time": 3.654, "note_off_time": 3.814}, {"pitch": 79, "velocity": 54, "note_on_time": 3.658, "note_off_time": 3.851}, {"pitch": 72, "velocity": 43, "note_on_time": 3.999, "note_off_time": 4.082}, {"pitch": 77, "velocity": 51, "note_on_time": 4.277, "note_off_time": 4.412}, {"pitch": 77, "velocity": 52, "note_on_time": 4.548, "note_off_time": 4.696}, {"pitch": 72, "velocity": 54, "note_on_time": 4.84, "note_off_time": 4.955}, {"pitch": 72, "velocity": 49, "note_on_time": 5.13, "note_off_time": 5.25}, {"pitch": 77, "velocity": 40, "note_on_time": 5.433, "note_off_time": 5.536}, {"pitch": 72, "velocity": 41, "note_on_time": 5.416, "note_off_time": 5.541}, {"pitch": 79, "velocity": 46, "note_on_time": 5.702, "note_off_time": 5.859}, {"pitch": 72, "velocity": 40, "note_on_time": 6.041, "note_off_time": 6.154}, {"pitch": 72, "velocity": 20, "note_on_time": 6.331, "note_off_time": 6.405}, {"pitch": 79, "velocity": 43, "note_on_time": 6.002, "note_off_time": 6.488}, {"pitch": 74, "velocity": 58, "note_on_time": 6.644, "note_off_time": 6.752}, {"pitch": 72, "velocity": 44, "note_on_time": 6.94, "note_off_time": 7.038}, {"pitch": 74, "velocity": 40, "note_on_time": 6.951, "note_off_time": 7.079}, {"pitch": 72, "velocity": 59, "note_on_time": 7.252, "note_off_time": 7.393}, {"pitch": 72, "velocity": 50, "note_on_time": 7.529, "note_off_time": 7.657}, {"pitch": 72, "velocity": 50, "note_on_time": 7.826, "note_off_time": 7.944}, {"pitch": 74, "velocity": 23, "note_on_time": 8.169, "note_off_time": 8.24}, {"pitch": 74, "velocity": 51, "note_on_time": 8.468, "note_off_time": 8.591}, {"pitch": 77, "velocity": 53, "note_on_time": 8.756, "note_off_time": 8.899}, {"pitch": 77, "velocity": 35, "note_on_time": 9.056, "note_off_time": 9.191}, {"pitch": 77, "velocity": 27, "note_on_time": 9.397, "note_off_time": 9.587}, {"pitch": 77, "velocity": 37, "note_on_time": 9.674, "note_off_time": 9.872}, {"pitch": 76, "velocity": 46, "note_on_time": 9.959, "note_off_time": 10.312}, {"pitch": 74, "velocity": 30, "note_on_time": 10.304, "note_off_time": 10.446}, {"pitch": 77, "velocity": 52, "note_on_time": 10.581, "note_off_time": 10.967}, {"pitch": 76, "velocity": 33, "note_on_time": 10.89, "note_off_time": 11.148}, {"pitch": 74, "velocity": 51, "note_on_time": 10.999, "note_off_time": 11.343}, {"pitch": 79, "velocity": 37, "note_on_time": 11.403, "note_off_time": 11.961}, {"pitch": 79, "velocity": 27, "note_on_time": 12.237, "note_off_time": 12.409}, {"pitch": 79, "velocity": 43, "note_on_time": 12.574, "note_off_time": 12.767}, {"pitch": 72, "velocity": 3, "note_on_time": 12.974, "note_off_time": 13.13}, {"pitch": 72, "velocity": 62, "note_on_time": 13.24, "note_off_time": 13.358}, {"pitch": 72, "velocity": 52, "note_on_time": 13.528, "note_off_time": 13.623}, {"pitch": 72, "velocity": 35, "note_on_time": 13.836, "note_off_time": 13.926}, {"pitch": 74, "velocity": 39, "note_on_time": 14.554, "note_off_time": 14.653}, {"pitch": 74, "velocity": 5, "note_on_time": 14.894, "note_off_time": 15.071}, {"pitch": 76, "velocity": 42, "note_on_time": 15.218, "note_off_time": 15.504}, {"pitch": 74, "velocity": 46, "note_on_time": 15.514, "note_off_time": 15.72}, {"pitch": 72, "velocity": 49, "note_on_time": 16.303, "note_off_time": 16.521}, {"pitch": 76, "velocity": 41, "note_on_time": 16.75, "note_off_time": 17.169}, {"pitch": 74, "velocity": 42, "note_on_time": 17.054, "note_off_time": 17.408}, {"pitch": 72, "velocity": 38, "note_on_time": 17.333, "note_off_time": 17.687}, {"pitch": 76, "velocity": 40, "note_on_time": 17.597, "note_off_time": 18.047}, {"pitch": 74, "velocity": 28, "note_on_time": 17.924, "note_off_time": 18.383}, {"pitch": 79, "velocity": 30, "note_on_time": 18.558, "note_off_time": 18.935}, {"pitch": 72, "velocity": 22, "note_on_time": 18.199, "note_off_time": 19.056}, {"pitch": 77, "velocity": 45, "note_on_time": 18.872, "note_off_time": 19.133}, {"pitch": 76, "velocity": 29, "note_on_time": 19.15, "note_off_time": 19.423}, {"pitch": 77, "velocity": 43, "note_on_time": 19.809, "note_off_time": 20.089}, {"pitch": 76, "velocity": 27, "note_on_time": 20.091, "note_off_time": 20.305}, {"pitch": 79, "velocity": 35, "note_on_time": 19.504, "note_off_time": 20.342}, {"pitch": 74, "velocity": 56, "note_on_time": 20.539, "note_off_time": 20.807}, {"pitch": 77, "velocity": 41, "note_on_time": 20.798, "note_off_time": 21.182}, {"pitch": 76, "velocity": 41, "note_on_time": 21.05, "note_off_time": 21.402}, {"pitch": 74, "velocity": 43, "note_on_time": 21.301, "note_off_time": 21.53}, {"pitch": 77, "velocity": 29, "note_on_time": 21.552, "note_off_time": 21.905}, {"pitch": 76, "velocity": 38, "note_on_time": 21.759, "note_off_time": 22.096}, {"pitch": 74, "velocity": 40, "note_on_time": 22.004, "note_off_time": 22.162}, {"pitch": 72, "velocity": 33, "note_on_time": 22.118, "note_off_time": 22.82}, {"pitch": 76, "velocity": 49, "note_on_time": 22.966, "note_off_time": 23.274}, {"pitch": 74, "velocity": 41, "note_on_time": 23.244, "note_off_time": 23.489}, {"pitch": 72, "velocity": 42, "note_on_time": 23.486, "note_off_time": 23.813}, {"pitch": 76, "velocity": 40, "note_on_time": 23.71, "note_off_time": 24.175}, {"pitch": 74, "velocity": 35, "note_on_time": 23.999, "note_off_time": 24.248}, {"pitch": 77, "velocity": 40, "note_on_time": 24.632, "note_off_time": 24.973}, {"pitch": 79, "velocity": 27, "note_on_time": 24.97, "note_off_time": 25.273}, {"pitch": 72, "velocity": 27, "note_on_time": 24.236, "note_off_time": 25.388}, {"pitch": 76, "velocity": 36, "note_on_time": 25.487, "note_off_time": 25.883}, {"pitch": 79, "velocity": 31, "note_on_time": 26.12, "note_off_time": 26.637}, {"pitch": 77, "velocity": 34, "note_on_time": 26.5, "note_off_time": 26.756}, {"pitch": 76, "velocity": 41, "note_on_time": 26.758, "note_off_time": 27.025}, {"pitch": 79, "velocity": 32, "note_on_time": 27.058, "note_off_time": 27.446}, {"pitch": 77, "velocity": 26, "note_on_time": 27.303, "note_off_time": 27.566}, {"pitch": 76, "velocity": 26, "note_on_time": 27.536, "note_off_time": 27.842}, {"pitch": 72, "velocity": 16, "note_on_time": 27.981, "note_off_time": 28.203}, {"pitch": 72, "velocity": 44, "note_on_time": 28.4, "note_off_time": 28.526}, {"pitch": 79, "velocity": 22, "note_on_time": 28.078, "note_off_time": 28.583}, {"pitch": 72, "velocity": 55, "note_on_time": 28.72, "note_off_time": 28.867}, {"pitch": 72, "velocity": 54, "note_on_time": 29.004, "note_off_time": 29.151}, {"pitch": 79, "velocity": 42, "note_on_time": 29.404, "note_off_time": 30.309}, {"pitch": 72, "velocity": 56, "note_on_time": 29.327, "note_off_time": 30.312}, {"pitch": 79, "velocity": 54, "note_on_time": 30.67, "note_off_time": 31.447}, {"pitch": 74, "velocity": 33, "note_on_time": 30.956, "note_off_time": 31.451}, {"pitch": 72, "velocity": 42, "note_on_time": 30.671, "note_off_time": 31.471}, {"pitch": 76, "velocity": 31, "note_on_time": 30.957, "note_off_time": 31.498}, {"pitch": 77, "velocity": 1, "note_on_time": 31.017, "note_off_time": 31.507}, {"pitch": 72, "velocity": 53, "note_on_time": 32.748, "note_off_time": 33.255}, {"pitch": 79, "velocity": 42, "note_on_time": 32.842, "note_off_time": 33.305}, {"pitch": 76, "velocity": 1, "note_on_time": 34.298, "note_off_time": 34.457}, {"pitch": 77, "velocity": 37, "note_on_time": 34.068, "note_off_time": 34.459}, {"pitch": 72, "velocity": 35, "note_on_time": 33.975, "note_off_time": 34.492}, {"pitch": 79, "velocity": 41, "note_on_time": 34.026, "note_off_time": 34.507}, {"pitch": 77, "velocity": 41, "note_on_time": 35.247, "note_off_time": 35.667}, {"pitch": 72, "velocity": 29, "note_on_time": 35.188, "note_off_time": 35.735}, {"pitch": 76, "velocity": 26, "note_on_time": 36.579, "note_off_time": 36.923}, {"pitch": 77, "velocity": 51, "note_on_time": 36.493, "note_off_time": 36.946}, {"pitch": 72, "velocity": 49, "note_on_time": 36.457, "note_off_time": 36.99}, {"pitch": 77, "velocity": 45, "note_on_time": 37.616, "note_off_time": 38.047}, {"pitch": 72, "velocity": 70, "note_on_time": 37.631, "note_off_time": 38.047}, {"pitch": 79, "velocity": 30, "note_on_time": 37.589, "note_off_time": 38.118}, {"pitch": 72, "velocity": 61, "note_on_time": 38.722, "note_off_time": 39.181}, {"pitch": 72, "velocity": 31, "note_on_time": 39.905, "note_off_time": 40.358}, {"pitch": 74, "velocity": 57, "note_on_time": 40.0, "note_off_time": 40.421}, {"pitch": 77, "velocity": 51, "note_on_time": 40.0, "note_off_time": 40.424}, {"pitch": 76, "velocity": 61, "note_on_time": 39.957, "note_off_time": 40.44}, {"pitch": 74, "velocity": 53, "note_on_time": 41.067, "note_off_time": 41.581}, {"pitch": 77, "velocity": 54, "note_on_time": 41.586, "note_off_time": 42.152}, {"pitch": 76, "velocity": 64, "note_on_time": 40.945, "note_off_time": 42.287}, {"pitch": 74, "velocity": 60, "note_on_time": 42.128, "note_off_time": 42.376}, {"pitch": 76, "velocity": 33, "note_on_time": 42.362, "note_off_time": 42.747}, {"pitch": 77, "velocity": 39, "note_on_time": 42.41, "note_off_time": 42.77}, {"pitch": 74, "velocity": 60, "note_on_time": 42.7, "note_off_time": 42.936}, {"pitch": 77, "velocity": 38, "note_on_time": 42.941, "note_off_time": 43.336}, {"pitch": 76, "velocity": 1, "note_on_time": 43.118, "note_off_time": 43.485}, {"pitch": 74, "velocity": 57, "note_on_time": 43.362, "note_off_time": 43.605}, {"pitch": 77, "velocity": 46, "note_on_time": 43.591, "note_off_time": 44.008}, {"pitch": 76, "velocity": 1, "note_on_time": 43.779, "note_off_time": 44.115}, {"pitch": 74, "velocity": 59, "note_on_time": 44.003, "note_off_time": 44.253}, {"pitch": 77, "velocity": 52, "note_on_time": 44.224, "note_off_time": 44.641}, {"pitch": 76, "velocity": 16, "note_on_time": 44.293, "note_off_time": 44.743}, {"pitch": 74, "velocity": 37, "note_on_time": 44.615, "note_off_time": 44.874}, {"pitch": 77, "velocity": 24, "note_on_time": 44.92, "note_off_time": 45.219}, {"pitch": 76, "velocity": 38, "note_on_time": 44.905, "note_off_time": 45.223}, {"pitch": 74, "velocity": 47, "note_on_time": 45.396, "note_off_time": 45.573}, {"pitch": 74, "velocity": 54, "note_on_time": 45.698, "note_off_time": 45.837}, {"pitch": 76, "velocity": 37, "note_on_time": 46.007, "note_off_time": 46.169}, {"pitch": 77, "velocity": 5, "note_on_time": 46.051, "note_off_time": 46.523}, {"pitch": 79, "velocity": 19, "note_on_time": 46.409, "note_off_time": 48.74}, {"pitch": 72, "velocity": 35, "note_on_time": 48.856, "note_off_time": 49.034}, {"pitch": 72, "velocity": 59, "note_on_time": 49.299, "note_off_time": 49.434}, {"pitch": 72, "velocity": 52, "note_on_time": 49.619, "note_off_time": 49.762}, {"pitch": 74, "velocity": 56, "note_on_time": 49.927, "note_off_time": 50.041}, {"pitch": 76, "velocity": 37, "note_on_time": 50.232, "note_off_time": 50.403}, {"pitch": 76, "velocity": 51, "note_on_time": 50.512, "note_off_time": 50.73}, {"pitch": 79, "velocity": 53, "note_on_time": 50.773, "note_off_time": 51.126}, {"pitch": 77, "velocity": 48, "note_on_time": 51.135, "note_off_time": 51.661}, {"pitch": 76, "velocity": 37, "note_on_time": 51.386, "note_off_time": 51.725}, {"pitch": 74, "velocity": 43, "note_on_time": 51.69, "note_off_time": 51.853}, {"pitch": 72, "velocity": 27, "note_on_time": 51.958, "note_off_time": 52.065}, {"pitch": 72, "velocity": 46, "note_on_time": 52.236, "note_off_time": 52.576}, {"pitch": 76, "velocity": 65, "note_on_time": 52.8, "note_off_time": 53.076}, {"pitch": 79, "velocity": 59, "note_on_time": 53.367, "note_off_time": 53.582}, {"pitch": 79, "velocity": 46, "note_on_time": 53.684, "note_off_time": 53.783}, {"pitch": 77, "velocity": 42, "note_on_time": 53.951, "note_off_time": 54.134}, {"pitch": 76, "velocity": 36, "note_on_time": 54.204, "note_off_time": 54.484}, {"pitch": 74, "velocity": 36, "note_on_time": 54.525, "note_off_time": 54.8}, {"pitch": 72, "velocity": 66, "note_on_time": 55.116, "note_off_time": 55.335}, {"pitch": 74, "velocity": 53, "note_on_time": 55.697, "note_off_time": 55.826}, {"pitch": 76, "velocity": 60, "note_on_time": 55.973, "note_off_time": 56.179}, {"pitch": 79, "velocity": 51, "note_on_time": 56.244, "note_off_time": 56.59}, {"pitch": 76, "velocity": 1, "note_on_time": 56.808, "note_off_time": 57.038}, {"pitch": 74, "velocity": 56, "note_on_time": 56.926, "note_off_time": 57.096}, {"pitch": 72, "velocity": 39, "note_on_time": 57.234, "note_off_time": 57.591}, {"pitch": 79, "velocity": 54, "note_on_time": 57.475, "note_off_time": 57.861}, {"pitch": 76, "velocity": 47, "note_on_time": 58.066, "note_off_time": 58.468}, {"pitch": 74, "velocity": 24, "note_on_time": 58.41, "note_off_time": 58.679}, {"pitch": 72, "velocity": 38, "note_on_time": 58.627, "note_off_time": 58.958}, {"pitch": 79, "velocity": 4, "note_on_time": 58.81, "note_off_time": 59.27}, {"pitch": 77, "velocity": 21, "note_on_time": 59.179, "note_off_time": 59.553}, {"pitch": 76, "velocity": 1, "note_on_time": 59.344, "note_off_time": 59.632}, {"pitch": 74, "velocity": 27, "note_on_time": 59.564, "note_off_time": 59.707}, {"pitch": 72, "velocity": 4, "note_on_time": 59.716, "note_off_time": 60.345}, {"pitch": 79, "velocity": 26, "note_on_time": 59.765, "note_off_time": 60.387}, {"pitch": 76, "velocity": 10, "note_on_time": 60.28, "note_off_time": 60.633}, {"pitch": 74, "velocity": 42, "note_on_time": 60.581, "note_off_time": 60.864}, {"pitch": 72, "velocity": 27, "note_on_time": 60.786, "note_off_time": 61.16}, {"pitch": 77, "velocity": 24, "note_on_time": 61.02, "note_off_time": 61.348}, {"pitch": 76, "velocity": 41, "note_on_time": 61.292, "note_off_time": 61.562}, {"pitch": 72, "velocity": 40, "note_on_time": 61.556, "note_off_time": 62.107}, {"pitch": 77, "velocity": 38, "note_on_time": 61.827, "note_off_time": 62.217}, {"pitch": 76, "velocity": 43, "note_on_time": 62.078, "note_off_time": 62.359}, {"pitch": 74, "velocity": 30, "note_on_time": 62.333, "note_off_time": 62.544}, {"pitch": 72, "velocity": 1, "note_on_time": 62.43, "note_off_time": 62.774}, {"pitch": 77, "velocity": 39, "note_on_time": 62.697, "note_off_time": 63.154}, {"pitch": 76, "velocity": 19, "note_on_time": 62.99, "note_off_time": 63.288}, {"pitch": 74, "velocity": 37, "note_on_time": 63.18, "note_off_time": 63.441}, {"pitch": 72, "velocity": 25, "note_on_time": 63.354, "note_off_time": 63.758}, {"pitch": 79, "velocity": 59, "note_on_time": 63.909, "note_off_time": 64.562}, {"pitch": 72, "velocity": 23, "note_on_time": 64.616, "note_off_time": 64.73}, {"pitch": 79, "velocity": 17, "note_on_time": 64.642, "note_off_time": 65.054}, {"pitch": 72, "velocity": 1, "note_on_time": 64.924, "note_off_time": 65.665}, {"pitch": 72, "velocity": 43, "note_on_time": 65.82, "note_off_time": 65.955}, {"pitch": 72, "velocity": 42, "note_on_time": 66.115, "note_off_time": 66.24}, {"pitch": 72, "velocity": 31, "note_on_time": 66.402, "note_off_time": 66.491}, {"pitch": 72, "velocity": 53, "note_on_time": 66.677, "note_off_time": 66.794}, {"pitch": 79, "velocity": 43, "note_on_time": 65.514, "note_off_time": 67.352}, {"pitch": 72, "velocity": 44, "note_on_time": 67.174, "note_off_time": 67.384}, {"pitch": 72, "velocity": 30, "note_on_time": 67.519, "note_off_time": 67.645}, {"pitch": 74, "velocity": 38, "note_on_time": 67.525, "note_off_time": 67.651}, {"pitch": 76, "velocity": 58, "note_on_time": 67.815, "note_off_time": 67.942}, {"pitch": 77, "velocity": 54, "note_on_time": 68.088, "note_off_time": 68.24}, {"pitch": 76, "velocity": 59, "note_on_time": 68.387, "note_off_time": 68.543}, {"pitch": 74, "velocity": 47, "note_on_time": 68.687, "note_off_time": 68.791}, {"pitch": 72, "velocity": 54, "note_on_time": 68.94, "note_off_time": 69.065}, {"pitch": 72, "velocity": 50, "note_on_time": 69.238, "note_off_time": 69.575}, {"pitch": 79, "velocity": 68, "note_on_time": 69.817, "note_off_time": 70.156}, {"pitch": 79, "velocity": 62, "note_on_time": 70.454, "note_off_time": 70.649}, {"pitch": 77, "velocity": 40, "note_on_time": 70.795, "note_off_time": 70.877}, {"pitch": 77, "velocity": 42, "note_on_time": 71.059, "note_off_time": 71.204}, {"pitch": 76, "velocity": 58, "note_on_time": 71.076, "note_off_time": 71.278}, {"pitch": 74, "velocity": 55, "note_on_time": 71.41, "note_off_time": 71.508}, {"pitch": 74, "velocity": 61, "note_on_time": 71.716, "note_off_time": 71.883}, {"pitch": 72, "velocity": 82, "note_on_time": 72.312, "note_off_time": 72.566}, {"pitch": 79, "velocity": 73, "note_on_time": 72.875, "note_off_time": 73.243}, {"pitch": 77, "velocity": 53, "note_on_time": 73.191, "note_off_time": 73.331}, {"pitch": 76, "velocity": 64, "note_on_time": 73.476, "note_off_time": 73.628}, {"pitch": 74, "velocity": 56, "note_on_time": 73.778, "note_off_time": 73.863}, {"pitch": 77, "velocity": 43, "note_on_time": 74.078, "note_off_time": 74.477}, {"pitch": 76, "velocity": 72, "note_on_time": 74.7, "note_off_time": 74.951}, {"pitch": 74, "velocity": 62, "note_on_time": 75.328, "note_off_time": 75.433}, {"pitch": 77, "velocity": 69, "note_on_time": 75.616, "note_off_time": 75.755}, {"pitch": 77, "velocity": 59, "note_on_time": 75.888, "note_off_time": 76.057}, {"pitch": 77, "velocity": 58, "note_on_time": 76.196, "note_off_time": 76.397}, {"pitch": 76, "velocity": 65, "note_on_time": 76.511, "note_off_time": 76.932}, {"pitch": 74, "velocity": 66, "note_on_time": 77.165, "note_off_time": 77.47}, {"pitch": 77, "velocity": 80, "note_on_time": 77.742, "note_off_time": 78.158}, {"pitch": 76, "velocity": 62, "note_on_time": 78.306, "note_off_time": 78.534}, {"pitch": 74, "velocity": 60, "note_on_time": 78.605, "note_off_time": 78.762}, {"pitch": 72, "velocity": 65, "note_on_time": 78.923, "note_off_time": 79.724}, {"pitch": 74, "velocity": 67, "note_on_time": 80.237, "note_off_time": 80.355}, {"pitch": 76, "velocity": 62, "note_on_time": 80.542, "note_off_time": 80.646}, {"pitch": 77, "velocity": 58, "note_on_time": 80.833, "note_off_time": 80.956}, {"pitch": 76, "velocity": 56, "note_on_time": 81.102, "note_off_time": 81.233}, {"pitch": 74, "velocity": 64, "note_on_time": 81.425, "note_off_time": 81.72}, {"pitch": 77, "velocity": 62, "note_on_time": 81.972, "note_off_time": 82.288}, {"pitch": 76, "velocity": 72, "note_on_time": 82.58, "note_off_time": 82.702}, {"pitch": 74, "velocity": 54, "note_on_time": 82.872, "note_off_time": 82.951}, {"pitch": 77, "velocity": 61, "note_on_time": 83.156, "note_off_time": 83.309}, {"pitch": 76, "velocity": 63, "note_on_time": 83.433, "note_off_time": 83.556}, {"pitch": 74, "velocity": 64, "note_on_time": 83.761, "note_off_time": 84.024}, {"pitch": 79, "velocity": 84, "note_on_time": 84.368, "note_off_time": 84.674}, {"pitch": 79, "velocity": 58, "note_on_time": 84.924, "note_off_time": 85.071}, {"pitch": 79, "velocity": 51, "note_on_time": 85.18, "note_off_time": 85.298}, {"pitch": 79, "velocity": 68, "note_on_time": 85.461, "note_off_time": 85.646}, {"pitch": 77, "velocity": 62, "note_on_time": 85.764, "note_off_time": 85.901}, {"pitch": 76, "velocity": 60, "note_on_time": 86.068, "note_off_time": 86.233}, {"pitch": 76, "velocity": 20, "note_on_time": 86.379, "note_off_time": 86.441}, {"pitch": 77, "velocity": 53, "note_on_time": 86.373, "note_off_time": 86.493}, {"pitch": 77, "velocity": 49, "note_on_time": 86.642, "note_off_time": 86.889}, {"pitch": 76, "velocity": 40, "note_on_time": 86.898, "note_off_time": 87.287}, {"pitch": 74, "velocity": 14, "note_on_time": 87.278, "note_off_time": 87.706}, {"pitch": 76, "velocity": 42, "note_on_time": 87.746, "note_off_time": 88.182}, {"pitch": 77, "velocity": 55, "note_on_time": 88.036, "note_off_time": 88.319}, {"pitch": 79, "velocity": 71, "note_on_time": 88.654, "note_off_time": 89.364}, {"pitch": 79, "velocity": 72, "note_on_time": 89.852, "note_off_time": 90.681}, {"pitch": 72, "velocity": 81, "note_on_time": 91.132, "note_off_time": 91.86}, {"pitch": 77, "velocity": 38, "note_on_time": 92.437, "note_off_time": 93.006}, {"pitch": 74, "velocity": 67, "note_on_time": 92.407, "note_off_time": 93.008}, {"pitch": 72, "velocity": 61, "note_on_time": 92.387, "note_off_time": 93.021}, {"pitch": 76, "velocity": 49, "note_on_time": 92.373, "note_off_time": 93.032}, {"pitch": 74, "velocity": 49, "note_on_time": 93.603, "note_off_time": 94.094}, {"pitch": 72, "velocity": 47, "note_on_time": 93.523, "note_off_time": 94.099}, {"pitch": 77, "velocity": 1, "note_on_time": 93.672, "note_off_time": 94.126}, {"pitch": 76, "velocity": 1, "note_on_time": 93.782, "note_off_time": 94.128}, {"pitch": 79, "velocity": 39, "note_on_time": 93.518, "note_off_time": 94.18}, {"pitch": 72, "velocity": 3, "note_on_time": 94.661, "note_off_time": 95.312}, {"pitch": 77, "velocity": 44, "note_on_time": 94.742, "note_off_time": 95.313}, {"pitch": 74, "velocity": 55, "note_on_time": 94.741, "note_off_time": 95.315}, {"pitch": 76, "velocity": 54, "note_on_time": 94.749, "note_off_time": 95.324}, {"pitch": 79, "velocity": 9, "note_on_time": 94.667, "note_off_time": 95.329}, {"pitch": 76, "velocity": 64, "note_on_time": 95.937, "note_off_time": 96.507}, {"pitch": 77, "velocity": 64, "note_on_time": 95.948, "note_off_time": 96.515}, {"pitch": 79, "velocity": 67, "note_on_time": 95.919, "note_off_time": 96.57}, {"pitch": 72, "velocity": 57, "note_on_time": 95.921, "note_off_time": 96.581}, {"pitch": 74, "velocity": 68, "note_on_time": 95.936, "note_off_time": 96.688}, {"pitch": 77, "velocity": 79, "note_on_time": 97.04, "note_off_time": 97.43}, {"pitch": 76, "velocity": 27, "note_on_time": 97.158, "note_off_time": 97.633}, {"pitch": 74, "velocity": 40, "note_on_time": 97.525, "note_off_time": 97.859}, {"pitch": 77, "velocity": 56, "note_on_time": 97.841, "note_off_time": 98.421}, {"pitch": 76, "velocity": 45, "note_on_time": 98.15, "note_off_time": 98.564}, {"pitch": 74, "velocity": 53, "note_on_time": 98.44, "note_off_time": 98.912}, {"pitch": 77, "velocity": 66, "note_on_time": 98.987, "note_off_time": 99.47}, {"pitch": 74, "velocity": 47, "note_on_time": 99.635, "note_off_time": 99.734}, {"pitch": 72, "velocity": 31, "note_on_time": 98.464, "note_off_time": 99.935}, {"pitch": 74, "velocity": 55, "note_on_time": 99.898, "note_off_time": 100.006}, {"pitch": 74, "velocity": 65, "note_on_time": 100.191, "note_off_time": 100.305}, {"pitch": 77, "velocity": 57, "note_on_time": 100.462, "note_off_time": 100.607}, {"pitch": 77, "velocity": 50, "note_on_time": 100.794, "note_off_time": 101.231}, {"pitch": 72, "velocity": 34, "note_on_time": 100.832, "note_off_time": 101.24}, {"pitch": 74, "velocity": 62, "note_on_time": 101.396, "note_off_time": 101.702}, {"pitch": 79, "velocity": 23, "note_on_time": 101.986, "note_off_time": 102.508}, {"pitch": 79, "velocity": 61, "note_on_time": 102.628, "note_off_time": 102.831}, {"pitch": 79, "velocity": 58, "note_on_time": 102.985, "note_off_time": 103.197}, {"pitch": 79, "velocity": 51, "note_on_time": 103.282, "note_off_time": 103.481}, {"pitch": 72, "velocity": 52, "note_on_time": 103.58, "note_off_time": 103.687}, {"pitch": 72, "velocity": 59, "note_on_time": 103.875, "note_off_time": 103.988}, {"pitch": 72, "velocity": 53, "note_on_time": 104.188, "note_off_time": 104.324}, {"pitch": 74, "velocity": 47, "note_on_time": 104.505, "note_off_time": 104.574}, {"pitch": 74, "velocity": 49, "note_on_time": 104.786, "note_off_time": 104.883}, {"pitch": 74, "velocity": 42, "note_on_time": 105.082, "note_off_time": 105.236}, {"pitch": 76, "velocity": 57, "note_on_time": 105.361, "note_off_time": 105.527}, {"pitch": 77, "velocity": 45, "note_on_time": 105.707, "note_off_time": 106.337}, {"pitch": 79, "velocity": 59, "note_on_time": 106.868, "note_off_time": 107.06}, {"pitch": 79, "velocity": 60, "note_on_time": 107.159, "note_off_time": 107.31}, {"pitch": 79, "velocity": 61, "note_on_time": 107.43, "note_off_time": 107.598}, {"pitch": 79, "velocity": 53, "note_on_time": 107.689, "note_off_time": 107.895}, {"pitch": 77, "velocity": 39, "note_on_time": 108.194, "note_off_time": 108.345}, {"pitch": 77, "velocity": 51, "note_on_time": 108.468, "note_off_time": 108.615}, {"pitch": 76, "velocity": 55, "note_on_time": 108.799, "note_off_time": 108.932}, {"pitch": 76, "velocity": 33, "note_on_time": 109.092, "note_off_time": 109.192}, {"pitch": 74, "velocity": 61, "note_on_time": 109.391, "note_off_time": 109.526}, {"pitch": 74, "velocity": 64, "note_on_time": 109.65, "note_off_time": 109.783}, {"pitch": 72, "velocity": 48, "note_on_time": 109.922, "note_off_time": 110.039}, {"pitch": 77, "velocity": 60, "note_on_time": 110.212, "note_off_time": 110.395}, {"pitch": 76, "velocity": 64, "note_on_time": 110.535, "note_off_time": 110.997}, {"pitch": 79, "velocity": 68, "note_on_time": 111.15, "note_off_time": 111.504}, {"pitch": 76, "velocity": 68, "note_on_time": 111.772, "note_off_time": 111.924}, {"pitch": 74, "velocity": 49, "note_on_time": 112.075, "note_off_time": 112.183}, {"pitch": 72, "velocity": 46, "note_on_time": 112.378, "note_off_time": 112.513}, {"pitch": 77, "velocity": 33, "note_on_time": 113.078, "note_off_time": 113.274}, {"pitch": 79, "velocity": 44, "note_on_time": 112.671, "note_off_time": 113.287}, {"pitch": 74, "velocity": 68, "note_on_time": 113.664, "note_off_time": 113.859}, {"pitch": 72, "velocity": 65, "note_on_time": 114.276, "note_off_time": 114.409}, {"pitch": 79, "velocity": 64, "note_on_time": 114.56, "note_off_time": 114.733}, {"pitch": 79, "velocity": 60, "note_on_time": 114.842, "note_off_time": 115.013}, {"pitch": 79, "velocity": 60, "note_on_time": 115.113, "note_off_time": 115.297}, {"pitch": 77, "velocity": 33, "note_on_time": 115.486, "note_off_time": 115.607}, {"pitch": 79, "velocity": 32, "note_on_time": 115.491, "note_off_time": 116.083}, {"pitch": 72, "velocity": 68, "note_on_time": 116.602, "note_off_time": 116.732}, {"pitch": 72, "velocity": 41, "note_on_time": 116.887, "note_off_time": 116.971}, {"pitch": 72, "velocity": 64, "note_on_time": 117.211, "note_off_time": 117.42}, {"pitch": 74, "velocity": 29, "note_on_time": 117.814, "note_off_time": 117.865}, {"pitch": 74, "velocity": 54, "note_on_time": 118.034, "note_off_time": 118.134}, {"pitch": 74, "velocity": 49, "note_on_time": 118.365, "note_off_time": 118.535}, {"pitch": 76, "velocity": 68, "note_on_time": 118.936, "note_off_time": 119.047}, {"pitch": 76, "velocity": 56, "note_on_time": 119.202, "note_off_time": 119.314}, {"pitch": 77, "velocity": 60, "note_on_time": 119.498, "note_off_time": 119.64}, {"pitch": 79, "velocity": 54, "note_on_time": 119.749, "note_off_time": 119.935}, {"pitch": 77, "velocity": 61, "note_on_time": 120.065, "note_off_time": 120.244}, {"pitch": 76, "velocity": 66, "note_on_time": 120.347, "note_off_time": 120.612}, {"pitch": 74, "velocity": 61, "note_on_time": 120.633, "note_off_time": 120.939}, {"pitch": 79, "velocity": 71, "note_on_time": 121.268, "note_off_time": 121.67}, {"pitch": 79, "velocity": 62, "note_on_time": 121.923, "note_off_time": 122.129}, {"pitch": 79, "velocity": 35, "note_on_time": 122.224, "note_off_time": 122.343}, {"pitch": 79, "velocity": 56, "note_on_time": 122.481, "note_off_time": 122.633}, {"pitch": 79, "velocity": 50, "note_on_time": 122.766, "note_off_time": 122.921}, {"pitch": 72, "velocity": 61, "note_on_time": 123.024, "note_off_time": 123.174}, {"pitch": 72, "velocity": 29, "note_on_time": 123.347, "note_off_time": 123.425}, {"pitch": 72, "velocity": 53, "note_on_time": 123.627, "note_off_time": 124.041}, {"pitch": 79, "velocity": 42, "note_on_time": 124.281, "note_off_time": 124.556}, {"pitch": 72, "velocity": 59, "note_on_time": 124.228, "note_off_time": 124.609}, {"pitch": 72, "velocity": 54, "note_on_time": 124.861, "note_off_time": 125.128}, {"pitch": 79, "velocity": 60, "note_on_time": 124.853, "note_off_time": 125.197}, {"pitch": 72, "velocity": 67, "note_on_time": 125.452, "note_off_time": 126.183}, {"pitch": 79, "velocity": 62, "note_on_time": 125.463, "note_off_time": 126.188}, {"pitch": 77, "velocity": 69, "note_on_time": 126.551, "note_off_time": 126.97}, {"pitch": 76, "velocity": 55, "note_on_time": 126.822, "note_off_time": 127.03}, {"pitch": 74, "velocity": 23, "note_on_time": 127.188, "note_off_time": 127.329}, {"pitch": 77, "velocity": 47, "note_on_time": 127.436, "note_off_time": 128.204}, {"pitch": 76, "velocity": 53, "note_on_time": 127.701, "note_off_time": 128.319}, {"pitch": 74, "velocity": 53, "note_on_time": 128.28, "note_off_time": 128.456}, {"pitch": 72, "velocity": 63, "note_on_time": 128.774, "note_off_time": 128.928}, {"pitch": 76, "velocity": 59, "note_on_time": 129.341, "note_off_time": 130.0}, {"pitch": 74, "velocity": 57, "note_on_time": 129.918, "note_off_time": 130.326}, {"pitch": 72, "velocity": 35, "note_on_time": 130.576, "note_off_time": 130.825}, {"pitch": 79, "velocity": 1, "note_on_time": 130.824, "note_off_time": 131.319}, {"pitch": 79, "velocity": 54, "note_on_time": 131.452, "note_off_time": 131.621}, {"pitch": 79, "velocity": 58, "note_on_time": 131.739, "note_off_time": 132.136}, {"pitch": 77, "velocity": 36, "note_on_time": 132.077, "note_off_time": 132.18}, {"pitch": 76, "velocity": 62, "note_on_time": 132.354, "note_off_time": 132.69}, {"pitch": 74, "velocity": 56, "note_on_time": 132.654, "note_off_time": 132.908}, {"pitch": 72, "velocity": 63, "note_on_time": 133.202, "note_off_time": 133.418}, {"pitch": 79, "velocity": 48, "note_on_time": 133.678, "note_off_time": 134.08}, {"pitch": 77, "velocity": 15, "note_on_time": 134.007, "note_off_time": 134.513}, {"pitch": 76, "velocity": 53, "note_on_time": 134.249, "note_off_time": 134.668}, {"pitch": 74, "velocity": 36, "note_on_time": 134.583, "note_off_time": 134.814}, {"pitch": 79, "velocity": 1, "note_on_time": 135.017, "note_off_time": 135.258}, {"pitch": 72, "velocity": 46, "note_on_time": 134.808, "note_off_time": 135.392}, {"pitch": 74, "velocity": 50, "note_on_time": 135.898, "note_off_time": 136.152}, {"pitch": 77, "velocity": 31, "note_on_time": 136.214, "note_off_time": 136.82}, {"pitch": 76, "velocity": 47, "note_on_time": 136.638, "note_off_time": 136.915}, {"pitch": 74, "velocity": 30, "note_on_time": 136.907, "note_off_time": 137.172}, {"pitch": 72, "velocity": 37, "note_on_time": 137.187, "note_off_time": 137.487}, {"pitch": 79, "velocity": 1, "note_on_time": 137.737, "note_off_time": 138.172}, {"pitch": 77, "velocity": 37, "note_on_time": 137.996, "note_off_time": 138.208}, {"pitch": 76, "velocity": 36, "note_on_time": 138.306, "note_off_time": 138.63}, {"pitch": 74, "velocity": 35, "note_on_time": 138.493, "note_off_time": 138.704}, {"pitch": 72, "velocity": 33, "note_on_time": 138.644, "note_off_time": 139.141}, {"pitch": 79, "velocity": 9, "note_on_time": 138.977, "note_off_time": 139.376}, {"pitch": 76, "velocity": 17, "note_on_time": 139.304, "note_off_time": 139.648}, {"pitch": 74, "velocity": 47, "note_on_time": 139.509, "note_off_time": 139.799}, {"pitch": 72, "velocity": 40, "note_on_time": 139.722, "note_off_time": 140.08}, {"pitch": 79, "velocity": 21, "note_on_time": 139.917, "note_off_time": 140.2}, {"pitch": 76, "velocity": 29, "note_on_time": 140.217, "note_off_time": 140.595}, {"pitch": 74, "velocity": 52, "note_on_time": 140.444, "note_off_time": 140.693}, {"pitch": 72, "velocity": 35, "note_on_time": 140.673, "note_off_time": 141.571}, {"pitch": 79, "velocity": 1, "note_on_time": 140.858, "note_off_time": 141.808}, {"pitch": 76, "velocity": 45, "note_on_time": 141.669, "note_off_time": 142.181}, {"pitch": 74, "velocity": 39, "note_on_time": 141.937, "note_off_time": 142.232}, {"pitch": 79, "velocity": 37, "note_on_time": 142.222, "note_off_time": 142.682}, {"pitch": 77, "velocity": 32, "note_on_time": 142.561, "note_off_time": 142.965}, {"pitch": 76, "velocity": 33, "note_on_time": 142.651, "note_off_time": 143.1}, {"pitch": 74, "velocity": 47, "note_on_time": 142.963, "note_off_time": 143.154}, {"pitch": 72, "velocity": 32, "note_on_time": 143.163, "note_off_time": 143.524}, {"pitch": 79, "velocity": 16, "note_on_time": 143.186, "note_off_time": 143.743}, {"pitch": 77, "velocity": 2, "note_on_time": 143.645, "note_off_time": 143.922}, {"pitch": 76, "velocity": 47, "note_on_time": 143.684, "note_off_time": 143.983}, {"pitch": 74, "velocity": 45, "note_on_time": 143.9, "note_off_time": 144.116}, {"pitch": 72, "velocity": 44, "note_on_time": 144.115, "note_off_time": 144.469}, {"pitch": 74, "velocity": 47, "note_on_time": 144.461, "note_off_time": 144.758}, {"pitch": 76, "velocity": 45, "note_on_time": 144.727, "note_off_time": 144.966}, {"pitch": 77, "velocity": 50, "note_on_time": 144.849, "note_off_time": 145.407}, {"pitch": 76, "velocity": 9, "note_on_time": 145.318, "note_off_time": 145.467}, {"pitch": 74, "velocity": 56, "note_on_time": 145.346, "note_off_time": 145.777}, {"pitch": 77, "velocity": 44, "note_on_time": 145.745, "note_off_time": 146.305}, {"pitch": 76, "velocity": 38, "note_on_time": 146.035, "note_off_time": 146.441}, {"pitch": 74, "velocity": 41, "note_on_time": 146.344, "note_off_time": 146.591}, {"pitch": 72, "velocity": 35, "note_on_time": 146.388, "note_off_time": 146.963}, {"pitch": 77, "velocity": 19, "note_on_time": 146.792, "note_off_time": 147.288}, {"pitch": 74, "velocity": 56, "note_on_time": 147.75, "note_off_time": 148.077}, {"pitch": 76, "velocity": 45, "note_on_time": 147.129, "note_off_time": 148.09}, {"pitch": 74, "velocity": 62, "note_on_time": 148.332, "note_off_time": 148.679}, {"pitch": 76, "velocity": 54, "note_on_time": 148.922, "note_off_time": 149.101}, {"pitch": 74, "velocity": 54, "note_on_time": 148.983, "note_off_time": 149.166}, {"pitch": 76, "velocity": 41, "note_on_time": 149.257, "note_off_time": 149.614}, {"pitch": 74, "velocity": 52, "note_on_time": 149.573, "note_off_time": 149.688}, {"pitch": 74, "velocity": 38, "note_on_time": 149.844, "note_off_time": 149.977}, {"pitch": 72, "velocity": 52, "note_on_time": 150.173, "note_off_time": 150.364}, {"pitch": 72, "velocity": 55, "note_on_time": 150.714, "note_off_time": 151.439}, {"pitch": 79, "velocity": 61, "note_on_time": 151.897, "note_off_time": 152.422}, {"pitch": 79, "velocity": 65, "note_on_time": 152.801, "note_off_time": 152.951}, {"pitch": 79, "velocity": 67, "note_on_time": 153.119, "note_off_time": 154.019}, {"pitch": 72, "velocity": 66, "note_on_time": 154.373, "note_off_time": 155.037}, {"pitch": 72, "velocity": 70, "note_on_time": 155.224, "note_off_time": 155.383}, {"pitch": 72, "velocity": 78, "note_on_time": 155.545, "note_off_time": 156.301}, {"pitch": 77, "velocity": 70, "note_on_time": 156.719, "note_off_time": 156.926}, {"pitch": 76, "velocity": 49, "note_on_time": 157.028, "note_off_time": 157.204}, {"pitch": 74, "velocity": 62, "note_on_time": 157.321, "note_off_time": 157.49}, {"pitch": 76, "velocity": 61, "note_on_time": 157.919, "note_off_time": 158.638}, {"pitch": 77, "velocity": 66, "note_on_time": 157.605, "note_off_time": 158.642}, {"pitch": 72, "velocity": 69, "note_on_time": 159.25, "note_off_time": 159.942}, {"pitch": 74, "velocity": 71, "note_on_time": 161.675, "note_off_time": 161.994}, {"pitch": 76, "velocity": 57, "note_on_time": 161.945, "note_off_time": 162.511}, {"pitch": 72, "velocity": 62, "note_on_time": 160.454, "note_off_time": 162.555}, {"pitch": 74, "velocity": 33, "note_on_time": 162.418, "note_off_time": 162.835}, {"pitch": 74, "velocity": 21, "note_on_time": 163.181, "note_off_time": 163.27}, {"pitch": 74, "velocity": 48, "note_on_time": 163.488, "note_off_time": 163.617}, {"pitch": 76, "velocity": 66, "note_on_time": 162.74, "note_off_time": 163.813}, {"pitch": 74, "velocity": 38, "note_on_time": 163.76, "note_off_time": 163.908}, {"pitch": 79, "velocity": 51, "note_on_time": 164.013, "note_off_time": 164.386}, {"pitch": 77, "velocity": 55, "note_on_time": 164.568, "note_off_time": 165.125}, {"pitch": 76, "velocity": 47, "note_on_time": 164.823, "note_off_time": 165.236}, {"pitch": 74, "velocity": 40, "note_on_time": 165.141, "note_off_time": 165.344}, {"pitch": 72, "velocity": 33, "note_on_time": 165.355, "note_off_time": 165.741}, {"pitch": 79, "velocity": 42, "note_on_time": 165.625, "note_off_time": 166.229}, {"pitch": 77, "velocity": 45, "note_on_time": 166.613, "note_off_time": 166.822}, {"pitch": 76, "velocity": 52, "note_on_time": 166.931, "note_off_time": 167.107}, {"pitch": 72, "velocity": 28, "note_on_time": 167.486, "note_off_time": 167.646}, {"pitch": 74, "velocity": 52, "note_on_time": 167.532, "note_off_time": 167.676}, {"pitch": 72, "velocity": 35, "note_on_time": 167.82, "note_off_time": 168.285}, {"pitch": 79, "velocity": 55, "note_on_time": 168.382, "note_off_time": 168.718}, {"pitch": 77, "velocity": 55, "note_on_time": 168.903, "note_off_time": 169.092}, {"pitch": 77, "velocity": 47, "note_on_time": 169.221, "note_off_time": 169.371}, {"pitch": 76, "velocity": 17, "note_on_time": 169.473, "note_off_time": 169.725}, {"pitch": 74, "velocity": 25, "note_on_time": 169.798, "note_off_time": 169.875}, {"pitch": 72, "velocity": 52, "note_on_time": 170.113, "note_off_time": 170.504}, {"pitch": 76, "velocity": 39, "note_on_time": 170.635, "note_off_time": 170.887}, {"pitch": 77, "velocity": 59, "note_on_time": 170.672, "note_off_time": 171.145}, {"pitch": 76, "velocity": 46, "note_on_time": 171.294, "note_off_time": 171.647}, {"pitch": 74, "velocity": 52, "note_on_time": 171.842, "note_off_time": 172.01}, {"pitch": 77, "velocity": 46, "note_on_time": 172.159, "note_off_time": 172.436}, {"pitch": 79, "velocity": 63, "note_on_time": 172.468, "note_off_time": 172.976}, {"pitch": 79, "velocity": 46, "note_on_time": 173.23, "note_off_time": 173.362}, {"pitch": 79, "velocity": 58, "note_on_time": 173.521, "note_off_time": 173.776}, {"pitch": 77, "velocity": 16, "note_on_time": 173.895, "note_off_time": 174.481}, {"pitch": 76, "velocity": 13, "note_on_time": 174.288, "note_off_time": 174.733}, {"pitch": 74, "velocity": 47, "note_on_time": 174.651, "note_off_time": 174.913}, {"pitch": 72, "velocity": 40, "note_on_time": 174.911, "note_off_time": 175.247}, {"pitch": 72, "velocity": 64, "note_on_time": 175.477, "note_off_time": 175.893}, {"pitch": 74, "velocity": 50, "note_on_time": 176.062, "note_off_time": 176.157}, {"pitch": 74, "velocity": 24, "note_on_time": 176.34, "note_off_time": 176.444}, {"pitch": 74, "velocity": 12, "note_on_time": 176.681, "note_off_time": 176.732}, {"pitch": 77, "velocity": 42, "note_on_time": 176.76, "note_off_time": 177.307}, {"pitch": 76, "velocity": 5, "note_on_time": 177.263, "note_off_time": 177.688}, {"pitch": 79, "velocity": 57, "note_on_time": 177.744, "note_off_time": 178.329}, {"pitch": 79, "velocity": 59, "note_on_time": 178.521, "note_off_time": 178.742}, {"pitch": 79, "velocity": 48, "note_on_time": 178.829, "note_off_time": 179.5}, {"pitch": 79, "velocity": 49, "note_on_time": 179.633, "note_off_time": 179.802}, {"pitch": 79, "velocity": 59, "note_on_time": 179.92, "note_off_time": 180.291}, {"pitch": 79, "velocity": 27, "note_on_time": 180.505, "note_off_time": 180.77}, {"pitch": 77, "velocity": 62, "note_on_time": 180.497, "note_off_time": 180.837}, {"pitch": 76, "velocity": 54, "note_on_time": 181.06, "note_off_time": 181.191}, {"pitch": 74, "velocity": 33, "note_on_time": 181.364, "note_off_time": 181.437}, {"pitch": 74, "velocity": 50, "note_on_time": 181.664, "note_off_time": 181.813}, {"pitch": 74, "velocity": 19, "note_on_time": 181.955, "note_off_time": 182.019}, {"pitch": 72, "velocity": 1, "note_on_time": 182.004, "note_off_time": 182.105}, {"pitch": 72, "velocity": 52, "note_on_time": 182.215, "note_off_time": 182.653}, {"pitch": 74, "velocity": 67, "note_on_time": 182.85, "note_off_time": 183.143}, {"pitch": 79, "velocity": 56, "note_on_time": 183.477, "note_off_time": 183.691}, {"pitch": 79, "velocity": 26, "note_on_time": 183.765, "note_off_time": 183.92}, {"pitch": 79, "velocity": 56, "note_on_time": 184.04, "note_off_time": 184.516}, {"pitch": 77, "velocity": 47, "note_on_time": 184.682, "note_off_time": 184.914}, {"pitch": 76, "velocity": 54, "note_on_time": 184.71, "note_off_time": 185.076}, {"pitch": 74, "velocity": 68, "note_on_time": 185.304, "note_off_time": 185.559}, {"pitch": 72, "velocity": 73, "note_on_time": 185.886, "note_off_time": 186.003}, {"pitch": 72, "velocity": 45, "note_on_time": 186.144, "note_off_time": 186.258}, {"pitch": 72, "velocity": 56, "note_on_time": 186.438, "note_off_time": 186.561}, {"pitch": 72, "velocity": 36, "note_on_time": 186.746, "note_off_time": 186.865}, {"pitch": 72, "velocity": 41, "note_on_time": 187.085, "note_off_time": 187.843}, {"pitch": 72, "velocity": 39, "note_on_time": 188.389, "note_off_time": 188.479}, {"pitch": 79, "velocity": 75, "note_on_time": 188.352, "note_off_time": 189.011}, {"pitch": 79, "velocity": 84, "note_on_time": 189.535, "note_off_time": 190.268}, {"pitch": 72, "velocity": 82, "note_on_time": 189.539, "note_off_time": 190.29}, {"pitch": 72, "velocity": 72, "note_on_time": 190.81, "note_off_time": 191.459}, {"pitch": 74, "velocity": 70, "note_on_time": 190.83, "note_off_time": 191.466}, {"pitch": 77, "velocity": 67, "note_on_time": 190.829, "note_off_time": 191.473}, {"pitch": 76, "velocity": 74, "note_on_time": 190.819, "note_off_time": 191.477}, {"pitch": 72, "velocity": 59, "note_on_time": 192.005, "note_off_time": 192.649}, {"pitch": 74, "velocity": 68, "note_on_time": 192.012, "note_off_time": 192.677}, {"pitch": 79, "velocity": 34, "note_on_time": 191.959, "note_off_time": 192.691}, {"pitch": 76, "velocity": 54, "note_on_time": 192.033, "note_off_time": 192.714}, {"pitch": 77, "velocity": 61, "note_on_time": 191.991, "note_off_time": 192.718}, {"pitch": 74, "velocity": 71, "note_on_time": 193.197, "note_off_time": 193.885}, {"pitch": 76, "velocity": 66, "note_on_time": 193.203, "note_off_time": 193.967}, {"pitch": 77, "velocity": 62, "note_on_time": 193.203, "note_off_time": 193.969}]</notes><guidance name="Guidance Mode">None</guidance><error name="Error value">99</error></trial></trials></MIDI>