<MIDI midiNo="2023_06_19-12_07_54"><target_notes><notes name="Note List">[{"pitch": 60, "velocity": 40, "note_on_time": 0.01, "note_off_time": 1.026}, {"pitch": 64, "velocity": 40, "note_on_time": 0.011, "note_off_time": 1.027}, {"pitch": 67, "velocity": 40, "note_on_time": 0.011, "note_off_time": 1.028}, {"pitch": 48, "velocity": 40, "note_on_time": 0.011, "note_off_time": 1.028}, {"pitch": 52, "velocity": 40, "note_on_time": 1.028, "note_off_time": 2.038}, {"pitch": 55, "velocity": 40, "note_on_time": 1.028, "note_off_time": 2.039}, {"pitch": 74, "velocity": 40, "note_on_time": 2.038, "note_off_time": 3.048}, {"pitch": 48, "velocity": 40, "note_on_time": 2.039, "note_off_time": 3.048}, {"pitch": 52, "velocity": 40, "note_on_time": 3.048, "note_off_time": 4.061}, {"pitch": 55, "velocity": 40, "note_on_time": 3.048, "note_off_time": 4.061}, {"pitch": 48, "velocity": 40, "note_on_time": 4.061, "note_off_time": 5.076}, {"pitch": 52, "velocity": 40, "note_on_time": 5.076, "note_off_time": 6.087}, {"pitch": 55, "velocity": 40, "note_on_time": 5.076, "note_off_time": 6.087}, {"pitch": 48, "velocity": 40, "note_on_time": 6.087, "note_off_time": 7.103}, {"pitch": 52, "velocity": 40, "note_on_time": 7.103, "note_off_time": 8.119}, {"pitch": 55, "velocity": 40, "note_on_time": 7.103, "note_off_time": 8.119}, {"pitch": 60, "velocity": 40, "note_on_time": 8.118, "note_off_time": 9.134}, {"pitch": 64, "velocity": 40, "note_on_time": 8.119, "note_off_time": 9.135}, {"pitch": 67, "velocity": 40, "note_on_time": 8.119, "note_off_time": 9.135}, {"pitch": 48, "velocity": 40, "note_on_time": 8.119, "note_off_time": 9.136}, {"pitch": 52, "velocity": 40, "note_on_time": 9.136, "note_off_time": 10.152}, {"pitch": 55, "velocity": 40, "note_on_time": 9.136, "note_off_time": 10.153}, {"pitch": 72, "velocity": 40, "note_on_time": 10.152, "note_off_time": 11.158}, {"pitch": 48, "velocity": 40, "note_on_time": 10.153, "note_off_time": 11.159}, {"pitch": 52, "velocity": 40, "note_on_time": 11.159, "note_off_time": 12.188}, {"pitch": 55, "velocity": 40, "note_on_time": 11.159, "note_off_time": 12.189}, {"pitch": 48, "velocity": 40, "note_on_time": 12.189, "note_off_time": 13.197}, {"pitch": 52, "velocity": 40, "note_on_time": 13.197, "note_off_time": 14.211}, {"pitch": 55, "velocity": 40, "note_on_time": 13.197, "note_off_time": 14.211}, {"pitch": 48, "velocity": 40, "note_on_time": 14.211, "note_off_time": 15.223}, {"pitch": 52, "velocity": 40, "note_on_time": 15.223, "note_off_time": 16.24}, {"pitch": 55, "velocity": 40, "note_on_time": 15.223, "note_off_time": 16.241}, {"pitch": 60, "velocity": 40, "note_on_time": 16.239, "note_off_time": 17.25}, {"pitch": 64, "velocity": 40, "note_on_time": 16.24, "note_off_time": 17.251}, {"pitch": 67, "velocity": 40, "note_on_time": 16.24, "note_off_time": 17.252}, {"pitch": 48, "velocity": 40, "note_on_time": 16.241, "note_off_time": 17.252}, {"pitch": 52, "velocity": 40, "note_on_time": 17.252, "note_off_time": 18.261}, {"pitch": 55, "velocity": 40, "note_on_time": 17.252, "note_off_time": 18.261}, {"pitch": 76, "velocity": 40, "note_on_time": 18.261, "note_off_time": 19.277}, {"pitch": 48, "velocity": 40, "note_on_time": 18.261, "note_off_time": 19.277}, {"pitch": 52, "velocity": 40, "note_on_time": 19.278, "note_off_time": 20.289}, {"pitch": 55, "velocity": 40, "note_on_time": 19.278, "note_off_time": 20.289}, {"pitch": 48, "velocity": 40, "note_on_time": 20.289, "note_off_time": 21.299}, {"pitch": 52, "velocity": 40, "note_on_time": 21.299, "note_off_time": 22.309}, {"pitch": 55, "velocity": 40, "note_on_time": 21.299, "note_off_time": 22.309}, {"pitch": 48, "velocity": 40, "note_on_time": 22.309, "note_off_time": 23.324}, {"pitch": 52, "velocity": 40, "note_on_time": 23.324, "note_off_time": 24.333}, {"pitch": 55, "velocity": 40, "note_on_time": 23.324, "note_off_time": 24.334}, {"pitch": 60, "velocity": 40, "note_on_time": 24.332, "note_off_time": 25.338}, {"pitch": 64, "velocity": 40, "note_on_time": 24.333, "note_off_time": 25.346}, {"pitch": 67, "velocity": 40, "note_on_time": 24.333, "note_off_time": 25.357}, {"pitch": 48, "velocity": 40, "note_on_time": 24.334, "note_off_time": 25.357}, {"pitch": 52, "velocity": 40, "note_on_time": 25.357, "note_off_time": 26.368}, {"pitch": 55, "velocity": 40, "note_on_time": 25.357, "note_off_time": 26.369}, {"pitch": 72, "velocity": 40, "note_on_time": 26.368, "note_off_time": 27.379}, {"pitch": 48, "velocity": 40, "note_on_time": 26.369, "note_off_time": 27.379}, {"pitch": 52, "velocity": 40, "note_on_time": 27.38, "note_off_time": 28.393}, {"pitch": 55, "velocity": 40, "note_on_time": 27.38, "note_off_time": 28.393}, {"pitch": 48, "velocity": 40, "note_on_time": 28.393, "note_off_time": 29.407}, {"pitch": 52, "velocity": 40, "note_on_time": 29.407, "note_off_time": 30.415}, {"pitch": 55, "velocity": 40, "note_on_time": 29.407, "note_off_time": 30.415}, {"pitch": 48, "velocity": 40, "note_on_time": 30.415, "note_off_time": 31.425}, {"pitch": 52, "velocity": 40, "note_on_time": 31.425, "note_off_time": 32.436}, {"pitch": 55, "velocity": 40, "note_on_time": 31.425, "note_off_time": 32.436}, {"pitch": 60, "velocity": 40, "note_on_time": 32.434, "note_off_time": 33.442}, {"pitch": 64, "velocity": 40, "note_on_time": 32.434, "note_off_time": 33.443}, {"pitch": 67, "velocity": 40, "note_on_time": 32.436, "note_off_time": 33.443}, {"pitch": 48, "velocity": 40, "note_on_time": 32.436, "note_off_time": 33.443}, {"pitch": 52, "velocity": 40, "note_on_time": 33.443, "note_off_time": 34.454}, {"pitch": 55, "velocity": 40, "note_on_time": 33.443, "note_off_time": 34.454}, {"pitch": 77, "velocity": 40, "note_on_time": 34.454, "note_off_time": 35.47}, {"pitch": 48, "velocity": 40, "note_on_time": 34.455, "note_off_time": 35.47}, {"pitch": 52, "velocity": 40, "note_on_time": 35.47, "note_off_time": 36.477}, {"pitch": 55, "velocity": 40, "note_on_time": 35.47, "note_off_time": 36.477}, {"pitch": 48, "velocity": 40, "note_on_time": 36.477, "note_off_time": 37.487}, {"pitch": 52, "velocity": 40, "note_on_time": 37.487, "note_off_time": 38.492}, {"pitch": 55, "velocity": 40, "note_on_time": 37.487, "note_off_time": 38.492}, {"pitch": 48, "velocity": 40, "note_on_time": 38.492, "note_off_time": 39.497}, {"pitch": 52, "velocity": 40, "note_on_time": 39.497, "note_off_time": 40.513}, {"pitch": 55, "velocity": 40, "note_on_time": 39.497, "note_off_time": 40.513}, {"pitch": 60, "velocity": 40, "note_on_time": 40.511, "note_off_time": 41.528}, {"pitch": 64, "velocity": 40, "note_on_time": 40.512, "note_off_time": 41.53}, {"pitch": 67, "velocity": 40, "note_on_time": 40.513, "note_off_time": 41.53}, {"pitch": 76, "velocity": 40, "note_on_time": 42.541, "note_off_time": 43.544}, {"pitch": 60, "velocity": 40, "note_on_time": 48.556, "note_off_time": 49.568}, {"pitch": 64, "velocity": 40, "note_on_time": 48.556, "note_off_time": 49.569}, {"pitch": 67, "velocity": 40, "note_on_time": 48.557, "note_off_time": 49.569}, {"pitch": 77, "velocity": 40, "note_on_time": 50.575, "note_off_time": 51.582}, {"pitch": 60, "velocity": 40, "note_on_time": 56.585, "note_off_time": 57.602}, {"pitch": 64, "velocity": 40, "note_on_time": 56.587, "note_off_time": 57.603}, {"pitch": 67, "velocity": 40, "note_on_time": 56.587, "note_off_time": 57.604}, {"pitch": 79, "velocity": 40, "note_on_time": 58.613, "note_off_time": 59.615}, {"pitch": 60, "velocity": 40, "note_on_time": 64.624, "note_off_time": 65.641}, {"pitch": 64, "velocity": 40, "note_on_time": 64.625, "note_off_time": 65.642}, {"pitch": 67, "velocity": 40, "note_on_time": 64.625, "note_off_time": 65.642}, {"pitch": 72, "velocity": 40, "note_on_time": 66.658, "note_off_time": 67.661}, {"pitch": 60, "velocity": 40, "note_on_time": 72.677, "note_off_time": 73.683}, {"pitch": 64, "velocity": 40, "note_on_time": 72.678, "note_off_time": 73.684}, {"pitch": 67, "velocity": 40, "note_on_time": 72.678, "note_off_time": 73.685}, {"pitch": 76, "velocity": 40, "note_on_time": 74.693, "note_off_time": 75.708}, {"pitch": 60, "velocity": 40, "note_on_time": 80.715, "note_off_time": 81.73}, {"pitch": 64, "velocity": 40, "note_on_time": 80.716, "note_off_time": 81.731}, {"pitch": 67, "velocity": 40, "note_on_time": 80.716, "note_off_time": 81.732}, {"pitch": 79, "velocity": 40, "note_on_time": 82.741, "note_off_time": 83.753}, {"pitch": 60, "velocity": 40, "note_on_time": 88.763, "note_off_time": 89.772}, {"pitch": 64, "velocity": 40, "note_on_time": 88.764, "note_off_time": 89.773}, {"pitch": 67, "velocity": 40, "note_on_time": 88.764, "note_off_time": 89.775}, {"pitch": 74, "velocity": 40, "note_on_time": 90.785, "note_off_time": 91.792}, {"pitch": 60, "velocity": 40, "note_on_time": 96.796, "note_off_time": 97.813}, {"pitch": 64, "velocity": 40, "note_on_time": 96.797, "note_off_time": 97.814}, {"pitch": 67, "velocity": 40, "note_on_time": 96.797, "note_off_time": 97.814}, {"pitch": 79, "velocity": 40, "note_on_time": 98.828, "note_off_time": 99.835}, {"pitch": 60, "velocity": 40, "note_on_time": 104.844, "note_off_time": 105.846}, {"pitch": 64, "velocity": 40, "note_on_time": 104.845, "note_off_time": 105.846}, {"pitch": 67, "velocity": 40, "note_on_time": 104.846, "note_off_time": 105.848}, {"pitch": 76, "velocity": 40, "note_on_time": 106.85, "note_off_time": 107.857}, {"pitch": 60, "velocity": 40, "note_on_time": 112.865, "note_off_time": 113.874}, {"pitch": 64, "velocity": 40, "note_on_time": 112.867, "note_off_time": 113.875}, {"pitch": 67, "velocity": 40, "note_on_time": 112.867, "note_off_time": 113.876}, {"pitch": 77, "velocity": 40, "note_on_time": 114.89, "note_off_time": 115.906}, {"pitch": 60, "velocity": 40, "note_on_time": 120.919, "note_off_time": 121.922}, {"pitch": 64, "velocity": 40, "note_on_time": 120.92, "note_off_time": 121.924}, {"pitch": 67, "velocity": 40, "note_on_time": 120.92, "note_off_time": 121.924}, {"pitch": 74, "velocity": 40, "note_on_time": 122.931, "note_off_time": 123.941}, {"pitch": 60, "velocity": 40, "note_on_time": 128.945, "note_off_time": 129.961}, {"pitch": 64, "velocity": 40, "note_on_time": 128.946, "note_off_time": 129.961}, {"pitch": 67, "velocity": 40, "note_on_time": 128.946, "note_off_time": 129.962}, {"pitch": 77, "velocity": 40, "note_on_time": 130.97, "note_off_time": 131.974}, {"pitch": 60, "velocity": 40, "note_on_time": 136.978, "note_off_time": 137.982}, {"pitch": 64, "velocity": 40, "note_on_time": 136.979, "note_off_time": 137.983}, {"pitch": 67, "velocity": 40, "note_on_time": 136.979, "note_off_time": 137.984}, {"pitch": 74, "velocity": 40, "note_on_time": 138.997, "note_off_time": 140.009}, {"pitch": 60, "velocity": 40, "note_on_time": 145.017, "note_off_time": 146.034}, {"pitch": 64, "velocity": 40, "note_on_time": 145.018, "note_off_time": 146.035}, {"pitch": 67, "velocity": 40, "note_on_time": 145.018, "note_off_time": 146.036}, {"pitch": 72, "velocity": 40, "note_on_time": 147.037, "note_off_time": 148.05}, {"pitch": 60, "velocity": 40, "note_on_time": 153.054, "note_off_time": 154.069}, {"pitch": 64, "velocity": 40, "note_on_time": 153.055, "note_off_time": 154.07}, {"pitch": 67, "velocity": 40, "note_on_time": 153.055, "note_off_time": 154.071}, {"pitch": 79, "velocity": 40, "note_on_time": 155.084, "note_off_time": 156.098}, {"pitch": 60, "velocity": 40, "note_on_time": 161.101, "note_off_time": 162.109}, {"pitch": 64, "velocity": 40, "note_on_time": 161.102, "note_off_time": 162.11}, {"pitch": 67, "velocity": 40, "note_on_time": 161.102, "note_off_time": 162.11}, {"pitch": 74, "velocity": 40, "note_on_time": 163.114, "note_off_time": 164.124}]</notes><options name="Option List">((4, 4), [0.5, 0.25], 3, 8, &lt;NoteRangePerHand.TWO_NOTES: 3&gt;, &lt;NoteRangePerHand.ONE_NOTE: 2&gt;, False, True, True, 100)</options></target_notes><trials><trial trial_no="1" timestamp="2023_06_19-12_05_10"><notes name="Played Notes">[{"pitch": 72, "velocity": 53, "note_on_time": 3.859, "note_off_time": 4.319}, {"pitch": 74, "velocity": 47, "note_on_time": 5.826, "note_off_time": 6.667}, {"pitch": 74, "velocity": 50, "note_on_time": 6.893, "note_off_time": 7.189}, {"pitch": 74, "velocity": 49, "note_on_time": 14.519, "note_off_time": 15.115}, {"pitch": 72, "velocity": 57, "note_on_time": 15.552, "note_off_time": 16.206}, {"pitch": 76, "velocity": 51, "note_on_time": 20.421, "note_off_time": 21.629}, {"pitch": 72, "velocity": 37, "note_on_time": 27.947, "note_off_time": 28.912}, {"pitch": 77, "velocity": 21, "note_on_time": 37.459, "note_off_time": 38.408}, {"pitch": 76, "velocity": 60, "note_on_time": 44.821, "note_off_time": 45.79}, {"pitch": 77, "velocity": 46, "note_on_time": 52.196, "note_off_time": 53.256}, {"pitch": 79, "velocity": 66, "note_on_time": 59.949, "note_off_time": 60.941}, {"pitch": 72, "velocity": 48, "note_on_time": 68.745, "note_off_time": 69.913}, {"pitch": 74, "velocity": 43, "note_on_time": 76.018, "note_off_time": 76.53}, {"pitch": 76, "velocity": 56, "note_on_time": 76.949, "note_off_time": 78.144}, {"pitch": 77, "velocity": 44, "note_on_time": 85.281, "note_off_time": 85.753}, {"pitch": 79, "velocity": 50, "note_on_time": 86.376, "note_off_time": 87.716}, {"pitch": 74, "velocity": 35, "note_on_time": 92.743, "note_off_time": 94.018}, {"pitch": 79, "velocity": 44, "note_on_time": 101.09, "note_off_time": 102.332}, {"pitch": 77, "velocity": 46, "note_on_time": 109.402, "note_off_time": 109.812}, {"pitch": 76, "velocity": 53, "note_on_time": 110.338, "note_off_time": 111.858}, {"pitch": 77, "velocity": 28, "note_on_time": 116.894, "note_off_time": 117.901}, {"pitch": 74, "velocity": 53, "note_on_time": 124.548, "note_off_time": 125.613}, {"pitch": 76, "velocity": 7, "note_on_time": 133.214, "note_off_time": 133.666}, {"pitch": 77, "velocity": 42, "note_on_time": 134.157, "note_off_time": 135.314}, {"pitch": 72, "velocity": 37, "note_on_time": 140.908, "note_off_time": 141.364}, {"pitch": 74, "velocity": 61, "note_on_time": 141.82, "note_off_time": 142.964}, {"pitch": 72, "velocity": 50, "note_on_time": 148.956, "note_off_time": 149.983}, {"pitch": 79, "velocity": 51, "note_on_time": 156.581, "note_off_time": 157.615}]</notes><guidance name="Guidance Mode">None</guidance><error name="Error value">99</error></trial><trial trial_no="2" timestamp="2023_06_19-12_10_19"><notes name="Played Notes">[{"pitch": 72, "velocity": 40, "note_on_time": 3.084, "note_off_time": 3.422}, {"pitch": 74, "velocity": 49, "note_on_time": 3.491, "note_off_time": 3.773}, {"pitch": 76, "velocity": 47, "note_on_time": 3.883, "note_off_time": 4.135}, {"pitch": 77, "velocity": 23, "note_on_time": 4.236, "note_off_time": 4.608}, {"pitch": 79, "velocity": 45, "note_on_time": 4.647, "note_off_time": 5.163}, {"pitch": 79, "velocity": 55, "note_on_time": 5.558, "note_off_time": 5.812}, {"pitch": 77, "velocity": 40, "note_on_time": 5.967, "note_off_time": 6.174}, {"pitch": 76, "velocity": 1, "note_on_time": 6.338, "note_off_time": 6.536}, {"pitch": 72, "velocity": 57, "note_on_time": 7.649, "note_off_time": 7.853}, {"pitch": 74, "velocity": 52, "note_on_time": 7.96, "note_off_time": 8.115}, {"pitch": 76, "velocity": 48, "note_on_time": 8.259, "note_off_time": 8.442}, {"pitch": 77, "velocity": 42, "note_on_time": 8.566, "note_off_time": 8.802}, {"pitch": 79, "velocity": 43, "note_on_time": 8.93, "note_off_time": 9.241}, {"pitch": 72, "velocity": 35, "note_on_time": 9.761, "note_off_time": 9.953}, {"pitch": 74, "velocity": 53, "note_on_time": 10.068, "note_off_time": 10.235}, {"pitch": 76, "velocity": 41, "note_on_time": 10.381, "note_off_time": 10.572}, {"pitch": 77, "velocity": 33, "note_on_time": 10.707, "note_off_time": 10.935}, {"pitch": 79, "velocity": 53, "note_on_time": 11.056, "note_off_time": 11.313}, {"pitch": 72, "velocity": 41, "note_on_time": 12.119, "note_off_time": 12.335}, {"pitch": 74, "velocity": 46, "note_on_time": 12.469, "note_off_time": 12.652}, {"pitch": 76, "velocity": 46, "note_on_time": 12.767, "note_off_time": 12.965}, {"pitch": 77, "velocity": 25, "note_on_time": 13.11, "note_off_time": 13.367}, {"pitch": 79, "velocity": 51, "note_on_time": 13.443, "note_off_time": 13.709}, {"pitch": 72, "velocity": 35, "note_on_time": 14.507, "note_off_time": 14.702}, {"pitch": 74, "velocity": 40, "note_on_time": 14.93, "note_off_time": 15.089}, {"pitch": 76, "velocity": 55, "note_on_time": 15.246, "note_off_time": 15.418}, {"pitch": 77, "velocity": 35, "note_on_time": 15.526, "note_off_time": 15.725}, {"pitch": 79, "velocity": 47, "note_on_time": 15.851, "note_off_time": 16.245}, {"pitch": 79, "velocity": 43, "note_on_time": 17.016, "note_off_time": 17.243}, {"pitch": 77, "velocity": 44, "note_on_time": 17.341, "note_off_time": 17.517}, {"pitch": 76, "velocity": 51, "note_on_time": 17.653, "note_off_time": 17.847}, {"pitch": 74, "velocity": 47, "note_on_time": 17.955, "note_off_time": 18.167}, {"pitch": 72, "velocity": 42, "note_on_time": 18.271, "note_off_time": 18.62}, {"pitch": 79, "velocity": 49, "note_on_time": 19.41, "note_off_time": 19.615}, {"pitch": 77, "velocity": 7, "note_on_time": 19.749, "note_off_time": 19.992}, {"pitch": 76, "velocity": 44, "note_on_time": 20.074, "note_off_time": 20.284}, {"pitch": 74, "velocity": 44, "note_on_time": 20.375, "note_off_time": 20.595}, {"pitch": 72, "velocity": 47, "note_on_time": 20.679, "note_off_time": 21.057}, {"pitch": 79, "velocity": 48, "note_on_time": 21.937, "note_off_time": 22.15}, {"pitch": 77, "velocity": 31, "note_on_time": 22.251, "note_off_time": 22.512}, {"pitch": 76, "velocity": 62, "note_on_time": 22.531, "note_off_time": 22.765}, {"pitch": 74, "velocity": 45, "note_on_time": 22.832, "note_off_time": 23.085}, {"pitch": 72, "velocity": 54, "note_on_time": 23.13, "note_off_time": 23.432}, {"pitch": 79, "velocity": 42, "note_on_time": 24.32, "note_off_time": 24.519}, {"pitch": 77, "velocity": 17, "note_on_time": 24.643, "note_off_time": 24.878}, {"pitch": 76, "velocity": 45, "note_on_time": 24.955, "note_off_time": 25.18}, {"pitch": 74, "velocity": 48, "note_on_time": 25.253, "note_off_time": 25.503}, {"pitch": 72, "velocity": 44, "note_on_time": 25.557, "note_off_time": 25.93}, {"pitch": 74, "velocity": 46, "note_on_time": 26.843, "note_off_time": 27.091}, {"pitch": 76, "velocity": 44, "note_on_time": 27.129, "note_off_time": 27.423}, {"pitch": 77, "velocity": 1, "note_on_time": 27.414, "note_off_time": 27.788}, {"pitch": 79, "velocity": 28, "note_on_time": 27.718, "note_off_time": 28.066}, {"pitch": 72, "velocity": 39, "note_on_time": 28.119, "note_off_time": 28.796}, {"pitch": 74, "velocity": 49, "note_on_time": 29.239, "note_off_time": 29.446}, {"pitch": 76, "velocity": 49, "note_on_time": 29.56, "note_off_time": 29.815}, {"pitch": 77, "velocity": 49, "note_on_time": 29.877, "note_off_time": 30.107}, {"pitch": 79, "velocity": 33, "note_on_time": 30.176, "note_off_time": 30.387}, {"pitch": 72, "velocity": 46, "note_on_time": 30.474, "note_off_time": 31.215}, {"pitch": 74, "velocity": 45, "note_on_time": 31.701, "note_off_time": 31.909}, {"pitch": 76, "velocity": 42, "note_on_time": 32.004, "note_off_time": 32.188}, {"pitch": 77, "velocity": 47, "note_on_time": 32.286, "note_off_time": 32.56}, {"pitch": 79, "velocity": 51, "note_on_time": 32.565, "note_off_time": 32.814}, {"pitch": 72, "velocity": 47, "note_on_time": 32.919, "note_off_time": 33.649}, {"pitch": 74, "velocity": 42, "note_on_time": 34.127, "note_off_time": 34.347}, {"pitch": 76, "velocity": 45, "note_on_time": 34.422, "note_off_time": 34.64}, {"pitch": 77, "velocity": 40, "note_on_time": 34.738, "note_off_time": 34.956}, {"pitch": 79, "velocity": 51, "note_on_time": 35.021, "note_off_time": 35.236}, {"pitch": 72, "velocity": 33, "note_on_time": 35.371, "note_off_time": 35.945}, {"pitch": 77, "velocity": 46, "note_on_time": 36.554, "note_off_time": 36.75}, {"pitch": 76, "velocity": 41, "note_on_time": 36.826, "note_off_time": 37.043}, {"pitch": 74, "velocity": 24, "note_on_time": 37.177, "note_off_time": 37.417}, {"pitch": 72, "velocity": 42, "note_on_time": 37.47, "note_off_time": 37.737}, {"pitch": 79, "velocity": 43, "note_on_time": 37.791, "note_off_time": 38.638}, {"pitch": 77, "velocity": 30, "note_on_time": 38.983, "note_off_time": 39.187}, {"pitch": 76, "velocity": 42, "note_on_time": 39.238, "note_off_time": 39.507}, {"pitch": 74, "velocity": 23, "note_on_time": 39.599, "note_off_time": 39.866}, {"pitch": 72, "velocity": 49, "note_on_time": 39.883, "note_off_time": 40.122}, {"pitch": 79, "velocity": 46, "note_on_time": 40.222, "note_off_time": 40.97}, {"pitch": 77, "velocity": 42, "note_on_time": 41.407, "note_off_time": 41.655}, {"pitch": 76, "velocity": 45, "note_on_time": 41.682, "note_off_time": 41.922}, {"pitch": 74, "velocity": 22, "note_on_time": 42.034, "note_off_time": 42.324}, {"pitch": 72, "velocity": 38, "note_on_time": 42.331, "note_off_time": 42.567}, {"pitch": 79, "velocity": 38, "note_on_time": 42.684, "note_off_time": 43.382}, {"pitch": 77, "velocity": 45, "note_on_time": 43.886, "note_off_time": 44.073}, {"pitch": 76, "velocity": 34, "note_on_time": 44.179, "note_off_time": 44.421}, {"pitch": 74, "velocity": 36, "note_on_time": 44.513, "note_off_time": 44.754}, {"pitch": 72, "velocity": 42, "note_on_time": 44.774, "note_off_time": 45.007}, {"pitch": 79, "velocity": 42, "note_on_time": 45.121, "note_off_time": 45.737}, {"pitch": 76, "velocity": 49, "note_on_time": 47.538, "note_off_time": 47.739}, {"pitch": 77, "velocity": 45, "note_on_time": 47.825, "note_off_time": 48.028}, {"pitch": 79, "velocity": 38, "note_on_time": 48.137, "note_off_time": 48.373}, {"pitch": 74, "velocity": 40, "note_on_time": 48.469, "note_off_time": 48.711}, {"pitch": 72, "velocity": 38, "note_on_time": 48.754, "note_off_time": 49.005}, {"pitch": 76, "velocity": 44, "note_on_time": 49.994, "note_off_time": 50.236}, {"pitch": 77, "velocity": 36, "note_on_time": 50.318, "note_off_time": 50.538}, {"pitch": 79, "velocity": 43, "note_on_time": 50.594, "note_off_time": 50.81}, {"pitch": 74, "velocity": 50, "note_on_time": 50.903, "note_off_time": 51.153}, {"pitch": 72, "velocity": 40, "note_on_time": 51.196, "note_off_time": 51.46}, {"pitch": 76, "velocity": 54, "note_on_time": 52.375, "note_off_time": 52.584}, {"pitch": 77, "velocity": 45, "note_on_time": 52.687, "note_off_time": 52.872}, {"pitch": 79, "velocity": 36, "note_on_time": 52.988, "note_off_time": 53.257}, {"pitch": 74, "velocity": 44, "note_on_time": 53.292, "note_off_time": 53.519}, {"pitch": 72, "velocity": 45, "note_on_time": 53.579, "note_off_time": 53.84}, {"pitch": 76, "velocity": 48, "note_on_time": 54.795, "note_off_time": 55.063}, {"pitch": 77, "velocity": 31, "note_on_time": 55.079, "note_off_time": 55.351}, {"pitch": 79, "velocity": 36, "note_on_time": 55.387, "note_off_time": 55.702}, {"pitch": 74, "velocity": 45, "note_on_time": 55.72, "note_off_time": 55.962}, {"pitch": 72, "velocity": 44, "note_on_time": 55.994, "note_off_time": 56.248}, {"pitch": 76, "velocity": 32, "note_on_time": 57.229, "note_off_time": 57.5}, {"pitch": 74, "velocity": 45, "note_on_time": 57.537, "note_off_time": 57.823}, {"pitch": 72, "velocity": 41, "note_on_time": 57.841, "note_off_time": 58.093}, {"pitch": 77, "velocity": 29, "note_on_time": 58.167, "note_off_time": 58.45}, {"pitch": 79, "velocity": 54, "note_on_time": 58.439, "note_off_time": 59.209}, {"pitch": 76, "velocity": 38, "note_on_time": 59.658, "note_off_time": 59.927}, {"pitch": 74, "velocity": 42, "note_on_time": 59.965, "note_off_time": 60.19}, {"pitch": 72, "velocity": 37, "note_on_time": 60.264, "note_off_time": 60.517}, {"pitch": 77, "velocity": 33, "note_on_time": 60.591, "note_off_time": 60.879}, {"pitch": 79, "velocity": 42, "note_on_time": 60.868, "note_off_time": 61.631}, {"pitch": 76, "velocity": 48, "note_on_time": 62.055, "note_off_time": 62.302}, {"pitch": 74, "velocity": 50, "note_on_time": 62.336, "note_off_time": 62.572}, {"pitch": 72, "velocity": 31, "note_on_time": 62.64, "note_off_time": 62.857}, {"pitch": 77, "velocity": 39, "note_on_time": 63.04, "note_off_time": 63.295}, {"pitch": 79, "velocity": 40, "note_on_time": 63.319, "note_off_time": 64.007}, {"pitch": 76, "velocity": 46, "note_on_time": 64.5, "note_off_time": 64.767}, {"pitch": 74, "velocity": 58, "note_on_time": 64.776, "note_off_time": 65.031}, {"pitch": 72, "velocity": 42, "note_on_time": 65.05, "note_off_time": 65.276}, {"pitch": 77, "velocity": 22, "note_on_time": 65.476, "note_off_time": 65.82}, {"pitch": 79, "velocity": 47, "note_on_time": 65.785, "note_off_time": 66.329}, {"pitch": 77, "velocity": 44, "note_on_time": 66.966, "note_off_time": 67.271}, {"pitch": 79, "velocity": 59, "note_on_time": 67.257, "note_off_time": 67.501}, {"pitch": 76, "velocity": 43, "note_on_time": 67.613, "note_off_time": 67.892}, {"pitch": 74, "velocity": 57, "note_on_time": 67.891, "note_off_time": 68.146}, {"pitch": 72, "velocity": 50, "note_on_time": 68.156, "note_off_time": 68.614}, {"pitch": 77, "velocity": 39, "note_on_time": 69.408, "note_off_time": 69.698}, {"pitch": 79, "velocity": 45, "note_on_time": 69.68, "note_off_time": 69.971}, {"pitch": 76, "velocity": 53, "note_on_time": 70.005, "note_off_time": 70.275}, {"pitch": 74, "velocity": 50, "note_on_time": 70.27, "note_off_time": 70.533}, {"pitch": 72, "velocity": 31, "note_on_time": 70.553, "note_off_time": 71.213}, {"pitch": 77, "velocity": 40, "note_on_time": 71.823, "note_off_time": 72.108}, {"pitch": 79, "velocity": 55, "note_on_time": 72.092, "note_off_time": 72.33}, {"pitch": 76, "velocity": 46, "note_on_time": 72.412, "note_off_time": 72.688}, {"pitch": 74, "velocity": 61, "note_on_time": 72.687, "note_off_time": 72.959}, {"pitch": 72, "velocity": 40, "note_on_time": 72.968, "note_off_time": 73.42}, {"pitch": 77, "velocity": 46, "note_on_time": 74.239, "note_off_time": 74.491}, {"pitch": 79, "velocity": 36, "note_on_time": 74.55, "note_off_time": 74.786}, {"pitch": 76, "velocity": 36, "note_on_time": 74.923, "note_off_time": 75.193}, {"pitch": 74, "velocity": 47, "note_on_time": 75.176, "note_off_time": 75.431}, {"pitch": 72, "velocity": 44, "note_on_time": 75.445, "note_off_time": 75.988}, {"pitch": 74, "velocity": 44, "note_on_time": 76.658, "note_off_time": 76.938}, {"pitch": 72, "velocity": 50, "note_on_time": 76.939, "note_off_time": 77.204}, {"pitch": 76, "velocity": 33, "note_on_time": 77.297, "note_off_time": 77.665}, {"pitch": 77, "velocity": 43, "note_on_time": 77.555, "note_off_time": 77.801}, {"pitch": 79, "velocity": 34, "note_on_time": 77.839, "note_off_time": 78.675}, {"pitch": 74, "velocity": 50, "note_on_time": 79.094, "note_off_time": 79.385}, {"pitch": 72, "velocity": 45, "note_on_time": 79.379, "note_off_time": 79.654}, {"pitch": 76, "velocity": 41, "note_on_time": 79.718, "note_off_time": 79.964}, {"pitch": 77, "velocity": 32, "note_on_time": 79.973, "note_off_time": 80.223}, {"pitch": 79, "velocity": 36, "note_on_time": 80.266, "note_off_time": 81.056}, {"pitch": 74, "velocity": 35, "note_on_time": 81.56, "note_off_time": 81.831}, {"pitch": 72, "velocity": 53, "note_on_time": 81.823, "note_off_time": 82.094}, {"pitch": 76, "velocity": 33, "note_on_time": 82.13, "note_off_time": 82.555}, {"pitch": 77, "velocity": 38, "note_on_time": 82.403, "note_off_time": 82.712}, {"pitch": 79, "velocity": 45, "note_on_time": 82.696, "note_off_time": 83.478}, {"pitch": 74, "velocity": 42, "note_on_time": 83.952, "note_off_time": 84.23}, {"pitch": 72, "velocity": 52, "note_on_time": 84.216, "note_off_time": 84.483}, {"pitch": 76, "velocity": 41, "note_on_time": 84.543, "note_off_time": 84.973}, {"pitch": 77, "velocity": 50, "note_on_time": 84.834, "note_off_time": 85.136}, {"pitch": 79, "velocity": 41, "note_on_time": 85.13, "note_off_time": 85.968}, {"pitch": 72, "velocity": 47, "note_on_time": 91.267, "note_off_time": 91.542}, {"pitch": 74, "velocity": 12, "note_on_time": 91.63, "note_off_time": 91.781}, {"pitch": 76, "velocity": 27, "note_on_time": 91.845, "note_off_time": 92.258}, {"pitch": 77, "velocity": 44, "note_on_time": 92.131, "note_off_time": 92.446}, {"pitch": 79, "velocity": 49, "note_on_time": 92.425, "note_off_time": 92.913}, {"pitch": 72, "velocity": 40, "note_on_time": 93.681, "note_off_time": 93.936}, {"pitch": 74, "velocity": 27, "note_on_time": 93.995, "note_off_time": 94.228}, {"pitch": 76, "velocity": 39, "note_on_time": 94.247, "note_off_time": 94.651}, {"pitch": 77, "velocity": 41, "note_on_time": 94.537, "note_off_time": 94.81}, {"pitch": 79, "velocity": 38, "note_on_time": 94.824, "note_off_time": 95.271}, {"pitch": 72, "velocity": 46, "note_on_time": 96.06, "note_off_time": 96.359}, {"pitch": 74, "velocity": 12, "note_on_time": 96.414, "note_off_time": 96.698}, {"pitch": 76, "velocity": 44, "note_on_time": 96.667, "note_off_time": 97.109}, {"pitch": 77, "velocity": 41, "note_on_time": 96.951, "note_off_time": 97.237}, {"pitch": 79, "velocity": 44, "note_on_time": 97.25, "note_off_time": 97.86}, {"pitch": 72, "velocity": 42, "note_on_time": 98.524, "note_off_time": 98.807}, {"pitch": 74, "velocity": 46, "note_on_time": 98.839, "note_off_time": 99.077}, {"pitch": 76, "velocity": 34, "note_on_time": 99.102, "note_off_time": 99.546}, {"pitch": 77, "velocity": 33, "note_on_time": 99.427, "note_off_time": 99.707}, {"pitch": 79, "velocity": 46, "note_on_time": 99.739, "note_off_time": 100.135}, {"pitch": 79, "velocity": 54, "note_on_time": 100.942, "note_off_time": 101.196}, {"pitch": 77, "velocity": 26, "note_on_time": 101.184, "note_off_time": 101.516}, {"pitch": 76, "velocity": 41, "note_on_time": 101.517, "note_off_time": 101.806}, {"pitch": 74, "velocity": 43, "note_on_time": 101.854, "note_off_time": 102.135}, {"pitch": 72, "velocity": 51, "note_on_time": 102.127, "note_off_time": 102.556}, {"pitch": 79, "velocity": 55, "note_on_time": 103.362, "note_off_time": 103.913}, {"pitch": 77, "velocity": 26, "note_on_time": 103.654, "note_off_time": 103.95}, {"pitch": 76, "velocity": 53, "note_on_time": 103.93, "note_off_time": 104.217}, {"pitch": 74, "velocity": 51, "note_on_time": 104.252, "note_off_time": 104.526}, {"pitch": 72, "velocity": 46, "note_on_time": 104.521, "note_off_time": 104.965}, {"pitch": 79, "velocity": 31, "note_on_time": 105.794, "note_off_time": 106.08}, {"pitch": 77, "velocity": 43, "note_on_time": 106.091, "note_off_time": 106.375}, {"pitch": 76, "velocity": 45, "note_on_time": 106.375, "note_off_time": 106.636}, {"pitch": 74, "velocity": 28, "note_on_time": 106.71, "note_off_time": 106.961}, {"pitch": 72, "velocity": 35, "note_on_time": 106.952, "note_off_time": 107.516}, {"pitch": 79, "velocity": 51, "note_on_time": 108.262, "note_off_time": 108.536}, {"pitch": 77, "velocity": 36, "note_on_time": 108.56, "note_off_time": 108.847}, {"pitch": 76, "velocity": 46, "note_on_time": 108.862, "note_off_time": 109.117}, {"pitch": 74, "velocity": 47, "note_on_time": 109.157, "note_off_time": 109.478}, {"pitch": 72, "velocity": 47, "note_on_time": 109.464, "note_off_time": 110.007}, {"pitch": 74, "velocity": 41, "note_on_time": 110.728, "note_off_time": 110.925}, {"pitch": 76, "velocity": 12, "note_on_time": 110.899, "note_off_time": 111.482}, {"pitch": 77, "velocity": 31, "note_on_time": 111.243, "note_off_time": 111.624}, {"pitch": 79, "velocity": 44, "note_on_time": 111.589, "note_off_time": 111.957}, {"pitch": 72, "velocity": 42, "note_on_time": 111.977, "note_off_time": 112.746}, {"pitch": 74, "velocity": 40, "note_on_time": 113.159, "note_off_time": 113.382}, {"pitch": 76, "velocity": 46, "note_on_time": 113.429, "note_off_time": 113.875}, {"pitch": 77, "velocity": 33, "note_on_time": 113.751, "note_off_time": 114.115}, {"pitch": 79, "velocity": 31, "note_on_time": 114.138, "note_off_time": 114.441}, {"pitch": 72, "velocity": 48, "note_on_time": 114.492, "note_off_time": 114.945}, {"pitch": 74, "velocity": 46, "note_on_time": 115.573, "note_off_time": 115.807}, {"pitch": 76, "velocity": 37, "note_on_time": 115.84, "note_off_time": 116.118}, {"pitch": 77, "velocity": 28, "note_on_time": 116.148, "note_off_time": 116.388}, {"pitch": 79, "velocity": 43, "note_on_time": 116.404, "note_off_time": 116.725}, {"pitch": 72, "velocity": 42, "note_on_time": 116.751, "note_off_time": 117.418}, {"pitch": 74, "velocity": 44, "note_on_time": 118.003, "note_off_time": 118.26}, {"pitch": 76, "velocity": 43, "note_on_time": 118.288, "note_off_time": 118.737}, {"pitch": 77, "velocity": 34, "note_on_time": 118.572, "note_off_time": 118.826}, {"pitch": 79, "velocity": 49, "note_on_time": 118.814, "note_off_time": 119.154}, {"pitch": 72, "velocity": 41, "note_on_time": 119.178, "note_off_time": 119.631}, {"pitch": 77, "velocity": 39, "note_on_time": 120.426, "note_off_time": 120.719}, {"pitch": 76, "velocity": 42, "note_on_time": 120.662, "note_off_time": 121.011}, {"pitch": 74, "velocity": 37, "note_on_time": 120.991, "note_off_time": 121.326}, {"pitch": 72, "velocity": 45, "note_on_time": 121.3, "note_off_time": 121.6}, {"pitch": 79, "velocity": 41, "note_on_time": 121.632, "note_off_time": 122.496}, {"pitch": 77, "velocity": 32, "note_on_time": 122.831, "note_off_time": 123.092}, {"pitch": 76, "velocity": 50, "note_on_time": 123.087, "note_off_time": 123.379}, {"pitch": 74, "velocity": 43, "note_on_time": 123.388, "note_off_time": 123.705}, {"pitch": 72, "velocity": 39, "note_on_time": 123.697, "note_off_time": 123.983}, {"pitch": 79, "velocity": 45, "note_on_time": 124.016, "note_off_time": 124.757}, {"pitch": 77, "velocity": 45, "note_on_time": 125.3, "note_off_time": 125.645}, {"pitch": 76, "velocity": 41, "note_on_time": 125.608, "note_off_time": 125.868}, {"pitch": 74, "velocity": 35, "note_on_time": 125.902, "note_off_time": 126.177}, {"pitch": 72, "velocity": 43, "note_on_time": 126.193, "note_off_time": 126.446}, {"pitch": 79, "velocity": 34, "note_on_time": 126.532, "note_off_time": 127.245}, {"pitch": 77, "velocity": 31, "note_on_time": 127.688, "note_off_time": 127.945}, {"pitch": 76, "velocity": 36, "note_on_time": 127.974, "note_off_time": 128.279}, {"pitch": 74, "velocity": 40, "note_on_time": 128.288, "note_off_time": 128.587}, {"pitch": 72, "velocity": 45, "note_on_time": 128.549, "note_off_time": 128.843}, {"pitch": 79, "velocity": 52, "note_on_time": 128.859, "note_off_time": 129.603}, {"pitch": 76, "velocity": 42, "note_on_time": 130.155, "note_off_time": 130.448}, {"pitch": 77, "velocity": 23, "note_on_time": 130.48, "note_off_time": 131.058}, {"pitch": 79, "velocity": 31, "note_on_time": 130.755, "note_off_time": 131.171}, {"pitch": 74, "velocity": 53, "note_on_time": 131.088, "note_off_time": 131.345}, {"pitch": 72, "velocity": 46, "note_on_time": 131.368, "note_off_time": 132.05}, {"pitch": 76, "velocity": 43, "note_on_time": 132.563, "note_off_time": 132.88}, {"pitch": 77, "velocity": 36, "note_on_time": 132.816, "note_off_time": 133.106}, {"pitch": 79, "velocity": 40, "note_on_time": 133.116, "note_off_time": 133.405}, {"pitch": 76, "velocity": 43, "note_on_time": 133.423, "note_off_time": 133.509}, {"pitch": 74, "velocity": 44, "note_on_time": 133.837, "note_off_time": 134.104}, {"pitch": 72, "velocity": 44, "note_on_time": 134.102, "note_off_time": 134.507}, {"pitch": 76, "velocity": 43, "note_on_time": 135.077, "note_off_time": 135.318}, {"pitch": 77, "velocity": 46, "note_on_time": 135.299, "note_off_time": 135.578}, {"pitch": 79, "velocity": 46, "note_on_time": 135.581, "note_off_time": 135.808}, {"pitch": 74, "velocity": 38, "note_on_time": 135.889, "note_off_time": 136.141}, {"pitch": 72, "velocity": 38, "note_on_time": 136.172, "note_off_time": 136.558}, {"pitch": 76, "velocity": 45, "note_on_time": 137.406, "note_off_time": 137.666}, {"pitch": 77, "velocity": 16, "note_on_time": 137.702, "note_off_time": 138.035}, {"pitch": 79, "velocity": 22, "note_on_time": 137.967, "note_off_time": 138.436}, {"pitch": 74, "velocity": 41, "note_on_time": 138.382, "note_off_time": 138.641}, {"pitch": 72, "velocity": 37, "note_on_time": 138.672, "note_off_time": 139.229}, {"pitch": 77, "velocity": 37, "note_on_time": 139.86, "note_off_time": 140.145}, {"pitch": 76, "velocity": 44, "note_on_time": 140.135, "note_off_time": 140.473}, {"pitch": 74, "velocity": 38, "note_on_time": 140.416, "note_off_time": 140.727}, {"pitch": 72, "velocity": 22, "note_on_time": 140.671, "note_off_time": 140.978}, {"pitch": 77, "velocity": 32, "note_on_time": 141.005, "note_off_time": 141.509}, {"pitch": 79, "velocity": 20, "note_on_time": 141.399, "note_off_time": 141.953}, {"pitch": 77, "velocity": 24, "note_on_time": 142.318, "note_off_time": 142.562}, {"pitch": 76, "velocity": 38, "note_on_time": 142.541, "note_off_time": 143.091}, {"pitch": 76, "velocity": 40, "note_on_time": 143.624, "note_off_time": 143.845}, {"pitch": 74, "velocity": 40, "note_on_time": 143.87, "note_off_time": 144.186}, {"pitch": 72, "velocity": 37, "note_on_time": 144.132, "note_off_time": 144.372}, {"pitch": 77, "velocity": 32, "note_on_time": 144.464, "note_off_time": 144.782}, {"pitch": 79, "velocity": 51, "note_on_time": 144.746, "note_off_time": 145.492}, {"pitch": 76, "velocity": 36, "note_on_time": 145.903, "note_off_time": 146.206}, {"pitch": 74, "velocity": 36, "note_on_time": 146.244, "note_off_time": 146.503}, {"pitch": 72, "velocity": 43, "note_on_time": 146.493, "note_off_time": 146.742}, {"pitch": 77, "velocity": 35, "note_on_time": 146.858, "note_off_time": 147.214}, {"pitch": 79, "velocity": 60, "note_on_time": 147.156, "note_off_time": 147.846}, {"pitch": 76, "velocity": 54, "note_on_time": 148.346, "note_off_time": 148.653}, {"pitch": 74, "velocity": 39, "note_on_time": 148.653, "note_off_time": 148.942}, {"pitch": 72, "velocity": 40, "note_on_time": 148.925, "note_off_time": 149.194}, {"pitch": 77, "velocity": 33, "note_on_time": 149.274, "note_off_time": 149.587}, {"pitch": 79, "velocity": 33, "note_on_time": 149.593, "note_off_time": 150.342}, {"pitch": 76, "velocity": 40, "note_on_time": 150.864, "note_off_time": 151.14}, {"pitch": 74, "velocity": 36, "note_on_time": 151.132, "note_off_time": 151.45}, {"pitch": 72, "velocity": 44, "note_on_time": 151.421, "note_off_time": 151.685}, {"pitch": 77, "velocity": 32, "note_on_time": 151.758, "note_off_time": 152.061}, {"pitch": 79, "velocity": 46, "note_on_time": 152.029, "note_off_time": 152.563}, {"pitch": 77, "velocity": 48, "note_on_time": 153.242, "note_off_time": 153.564}, {"pitch": 79, "velocity": 47, "note_on_time": 153.524, "note_off_time": 153.781}, {"pitch": 76, "velocity": 49, "note_on_time": 153.846, "note_off_time": 154.149}, {"pitch": 74, "velocity": 49, "note_on_time": 154.111, "note_off_time": 154.371}, {"pitch": 72, "velocity": 39, "note_on_time": 154.391, "note_off_time": 154.819}, {"pitch": 77, "velocity": 37, "note_on_time": 155.698, "note_off_time": 156.002}, {"pitch": 79, "velocity": 36, "note_on_time": 155.998, "note_off_time": 156.183}, {"pitch": 76, "velocity": 34, "note_on_time": 156.333, "note_off_time": 156.628}, {"pitch": 74, "velocity": 46, "note_on_time": 156.602, "note_off_time": 156.838}, {"pitch": 72, "velocity": 31, "note_on_time": 156.866, "note_off_time": 157.431}, {"pitch": 77, "velocity": 17, "note_on_time": 158.043, "note_off_time": 158.642}, {"pitch": 79, "velocity": 31, "note_on_time": 158.36, "note_off_time": 158.665}, {"pitch": 76, "velocity": 24, "note_on_time": 158.714, "note_off_time": 158.948}, {"pitch": 74, "velocity": 38, "note_on_time": 158.939, "note_off_time": 159.236}, {"pitch": 72, "velocity": 32, "note_on_time": 159.246, "note_off_time": 159.931}, {"pitch": 79, "velocity": 30, "note_on_time": 160.865, "note_off_time": 161.107}, {"pitch": 77, "velocity": 41, "note_on_time": 160.558, "note_off_time": 161.143}, {"pitch": 76, "velocity": 39, "note_on_time": 161.164, "note_off_time": 161.505}, {"pitch": 74, "velocity": 48, "note_on_time": 161.461, "note_off_time": 161.745}, {"pitch": 72, "velocity": 42, "note_on_time": 161.744, "note_off_time": 162.3}, {"pitch": 74, "velocity": 35, "note_on_time": 163.003, "note_off_time": 163.327}, {"pitch": 72, "velocity": 56, "note_on_time": 163.286, "note_off_time": 163.57}, {"pitch": 76, "velocity": 41, "note_on_time": 163.596, "note_off_time": 163.875}, {"pitch": 77, "velocity": 23, "note_on_time": 163.863, "note_off_time": 164.195}, {"pitch": 79, "velocity": 45, "note_on_time": 164.152, "note_off_time": 164.865}, {"pitch": 74, "velocity": 38, "note_on_time": 165.394, "note_off_time": 165.72}, {"pitch": 72, "velocity": 36, "note_on_time": 165.694, "note_off_time": 165.995}, {"pitch": 76, "velocity": 38, "note_on_time": 166.058, "note_off_time": 166.311}, {"pitch": 77, "velocity": 33, "note_on_time": 166.327, "note_off_time": 166.614}, {"pitch": 79, "velocity": 48, "note_on_time": 166.59, "note_off_time": 167.353}, {"pitch": 74, "velocity": 42, "note_on_time": 167.885, "note_off_time": 168.185}, {"pitch": 72, "velocity": 53, "note_on_time": 168.132, "note_off_time": 168.399}, {"pitch": 76, "velocity": 38, "note_on_time": 168.455, "note_off_time": 168.788}, {"pitch": 77, "velocity": 34, "note_on_time": 168.714, "note_off_time": 169.012}, {"pitch": 79, "velocity": 40, "note_on_time": 168.995, "note_off_time": 169.643}, {"pitch": 74, "velocity": 37, "note_on_time": 170.293, "note_off_time": 170.622}, {"pitch": 72, "velocity": 49, "note_on_time": 170.581, "note_off_time": 170.823}, {"pitch": 76, "velocity": 28, "note_on_time": 170.932, "note_off_time": 171.37}, {"pitch": 77, "velocity": 27, "note_on_time": 171.224, "note_off_time": 171.517}, {"pitch": 79, "velocity": 35, "note_on_time": 171.498, "note_off_time": 172.206}, {"pitch": 72, "velocity": 60, "note_on_time": 175.198, "note_off_time": 175.462}, {"pitch": 74, "velocity": 47, "note_on_time": 175.483, "note_off_time": 175.7}, {"pitch": 76, "velocity": 33, "note_on_time": 175.747, "note_off_time": 176.137}, {"pitch": 77, "velocity": 41, "note_on_time": 176.03, "note_off_time": 176.349}, {"pitch": 79, "velocity": 50, "note_on_time": 176.335, "note_off_time": 176.799}, {"pitch": 72, "velocity": 56, "note_on_time": 177.575, "note_off_time": 177.817}, {"pitch": 74, "velocity": 33, "note_on_time": 177.867, "note_off_time": 178.197}, {"pitch": 76, "velocity": 50, "note_on_time": 178.179, "note_off_time": 178.571}, {"pitch": 77, "velocity": 30, "note_on_time": 178.461, "note_off_time": 178.821}, {"pitch": 79, "velocity": 47, "note_on_time": 178.771, "note_off_time": 179.18}, {"pitch": 72, "velocity": 38, "note_on_time": 180.037, "note_off_time": 180.317}, {"pitch": 74, "velocity": 42, "note_on_time": 180.322, "note_off_time": 180.594}, {"pitch": 76, "velocity": 45, "note_on_time": 180.589, "note_off_time": 181.028}, {"pitch": 77, "velocity": 44, "note_on_time": 180.879, "note_off_time": 181.163}, {"pitch": 79, "velocity": 45, "note_on_time": 181.162, "note_off_time": 181.783}, {"pitch": 72, "velocity": 40, "note_on_time": 182.433, "note_off_time": 182.772}, {"pitch": 74, "velocity": 47, "note_on_time": 182.762, "note_off_time": 183.029}, {"pitch": 76, "velocity": 45, "note_on_time": 183.025, "note_off_time": 183.487}, {"pitch": 77, "velocity": 37, "note_on_time": 183.336, "note_off_time": 183.652}, {"pitch": 79, "velocity": 49, "note_on_time": 183.63, "note_off_time": 184.212}, {"pitch": 79, "velocity": 54, "note_on_time": 184.873, "note_off_time": 185.13}, {"pitch": 77, "velocity": 10, "note_on_time": 185.073, "note_off_time": 185.462}, {"pitch": 76, "velocity": 28, "note_on_time": 185.324, "note_off_time": 185.845}, {"pitch": 74, "velocity": 48, "note_on_time": 185.848, "note_off_time": 186.205}, {"pitch": 72, "velocity": 56, "note_on_time": 186.144, "note_off_time": 186.89}, {"pitch": 79, "velocity": 41, "note_on_time": 187.28, "note_off_time": 187.594}, {"pitch": 77, "velocity": 52, "note_on_time": 187.612, "note_off_time": 187.924}, {"pitch": 76, "velocity": 41, "note_on_time": 187.923, "note_off_time": 188.219}, {"pitch": 74, "velocity": 42, "note_on_time": 188.222, "note_off_time": 188.501}, {"pitch": 72, "velocity": 51, "note_on_time": 188.487, "note_off_time": 188.981}, {"pitch": 77, "velocity": 18, "note_on_time": 190.08, "note_off_time": 190.403}, {"pitch": 79, "velocity": 56, "note_on_time": 189.765, "note_off_time": 190.407}, {"pitch": 76, "velocity": 45, "note_on_time": 190.395, "note_off_time": 190.64}, {"pitch": 74, "velocity": 38, "note_on_time": 190.669, "note_off_time": 190.971}, {"pitch": 72, "velocity": 49, "note_on_time": 190.942, "note_off_time": 191.283}, {"pitch": 77, "velocity": 30, "note_on_time": 192.455, "note_off_time": 192.755}, {"pitch": 79, "velocity": 50, "note_on_time": 192.149, "note_off_time": 192.763}, {"pitch": 76, "velocity": 42, "note_on_time": 192.741, "note_off_time": 193.069}, {"pitch": 74, "velocity": 45, "note_on_time": 193.035, "note_off_time": 193.347}, {"pitch": 72, "velocity": 49, "note_on_time": 193.333, "note_off_time": 193.888}]</notes><guidance name="Guidance Mode">None</guidance><error name="Error value">99</error></trial><trial trial_no="3" timestamp="2023_06_19-12_15_54"><notes name="Played Notes">[{"pitch": 72, "velocity": 55, "note_on_time": 2.5, "note_off_time": 2.792}, {"pitch": 74, "velocity": 61, "note_on_time": 2.8, "note_off_time": 3.045}, {"pitch": 76, "velocity": 56, "note_on_time": 3.103, "note_off_time": 3.595}, {"pitch": 77, "velocity": 47, "note_on_time": 3.401, "note_off_time": 3.648}, {"pitch": 79, "velocity": 1, "note_on_time": 3.642, "note_off_time": 4.389}, {"pitch": 72, "velocity": 57, "note_on_time": 4.954, "note_off_time": 5.189}, {"pitch": 74, "velocity": 55, "note_on_time": 5.21, "note_off_time": 5.475}, {"pitch": 76, "velocity": 55, "note_on_time": 5.524, "note_off_time": 5.788}, {"pitch": 77, "velocity": 41, "note_on_time": 5.818, "note_off_time": 6.078}, {"pitch": 79, "velocity": 54, "note_on_time": 6.1, "note_off_time": 6.829}, {"pitch": 72, "velocity": 60, "note_on_time": 7.303, "note_off_time": 7.54}, {"pitch": 74, "velocity": 52, "note_on_time": 7.611, "note_off_time": 7.889}, {"pitch": 76, "velocity": 43, "note_on_time": 7.947, "note_off_time": 8.235}, {"pitch": 77, "velocity": 32, "note_on_time": 8.249, "note_off_time": 8.513}, {"pitch": 79, "velocity": 45, "note_on_time": 8.544, "note_off_time": 9.228}, {"pitch": 72, "velocity": 61, "note_on_time": 9.685, "note_off_time": 9.959}, {"pitch": 74, "velocity": 56, "note_on_time": 10.011, "note_off_time": 10.298}, {"pitch": 76, "velocity": 49, "note_on_time": 10.317, "note_off_time": 10.606}, {"pitch": 77, "velocity": 41, "note_on_time": 10.646, "note_off_time": 10.946}, {"pitch": 79, "velocity": 44, "note_on_time": 10.941, "note_off_time": 11.685}, {"pitch": 79, "velocity": 55, "note_on_time": 12.12, "note_off_time": 12.585}, {"pitch": 77, "velocity": 45, "note_on_time": 12.449, "note_off_time": 12.713}, {"pitch": 76, "velocity": 46, "note_on_time": 12.739, "note_off_time": 13.016}, {"pitch": 74, "velocity": 52, "note_on_time": 13.064, "note_off_time": 13.323}, {"pitch": 72, "velocity": 47, "note_on_time": 13.351, "note_off_time": 14.005}, {"pitch": 79, "velocity": 51, "note_on_time": 14.588, "note_off_time": 14.982}, {"pitch": 77, "velocity": 43, "note_on_time": 14.882, "note_off_time": 15.193}, {"pitch": 76, "velocity": 45, "note_on_time": 15.19, "note_off_time": 15.486}, {"pitch": 74, "velocity": 48, "note_on_time": 15.491, "note_off_time": 15.803}, {"pitch": 72, "velocity": 51, "note_on_time": 15.799, "note_off_time": 16.404}, {"pitch": 79, "velocity": 49, "note_on_time": 17.025, "note_off_time": 17.491}, {"pitch": 77, "velocity": 37, "note_on_time": 17.339, "note_off_time": 17.602}, {"pitch": 76, "velocity": 39, "note_on_time": 17.636, "note_off_time": 17.955}, {"pitch": 74, "velocity": 49, "note_on_time": 17.942, "note_off_time": 18.242}, {"pitch": 72, "velocity": 56, "note_on_time": 18.236, "note_off_time": 18.849}, {"pitch": 79, "velocity": 56, "note_on_time": 19.462, "note_off_time": 19.746}, {"pitch": 77, "velocity": 35, "note_on_time": 19.763, "note_off_time": 20.062}, {"pitch": 76, "velocity": 51, "note_on_time": 20.057, "note_off_time": 20.346}, {"pitch": 74, "velocity": 45, "note_on_time": 20.371, "note_off_time": 20.666}, {"pitch": 72, "velocity": 47, "note_on_time": 20.681, "note_off_time": 21.066}, {"pitch": 74, "velocity": 45, "note_on_time": 21.917, "note_off_time": 22.199}, {"pitch": 76, "velocity": 54, "note_on_time": 22.209, "note_off_time": 22.649}, {"pitch": 77, "velocity": 31, "note_on_time": 22.516, "note_off_time": 22.935}, {"pitch": 79, "velocity": 25, "note_on_time": 22.794, "note_off_time": 23.151}, {"pitch": 72, "velocity": 46, "note_on_time": 23.16, "note_off_time": 24.027}, {"pitch": 74, "velocity": 50, "note_on_time": 24.391, "note_off_time": 24.571}, {"pitch": 76, "velocity": 43, "note_on_time": 24.633, "note_off_time": 24.882}, {"pitch": 77, "velocity": 25, "note_on_time": 24.939, "note_off_time": 25.186}, {"pitch": 79, "velocity": 42, "note_on_time": 25.189, "note_off_time": 25.52}, {"pitch": 72, "velocity": 47, "note_on_time": 25.537, "note_off_time": 26.348}, {"pitch": 74, "velocity": 54, "note_on_time": 26.776, "note_off_time": 27.021}, {"pitch": 76, "velocity": 40, "note_on_time": 27.033, "note_off_time": 27.47}, {"pitch": 77, "velocity": 33, "note_on_time": 27.352, "note_off_time": 27.607}, {"pitch": 79, "velocity": 35, "note_on_time": 27.626, "note_off_time": 27.927}, {"pitch": 72, "velocity": 42, "note_on_time": 27.97, "note_off_time": 28.753}, {"pitch": 74, "velocity": 41, "note_on_time": 29.208, "note_off_time": 29.434}, {"pitch": 76, "velocity": 12, "note_on_time": 29.524, "note_off_time": 29.943}, {"pitch": 77, "velocity": 30, "note_on_time": 29.825, "note_off_time": 30.103}, {"pitch": 79, "velocity": 43, "note_on_time": 30.087, "note_off_time": 30.382}, {"pitch": 72, "velocity": 42, "note_on_time": 30.404, "note_off_time": 31.168}, {"pitch": 77, "velocity": 35, "note_on_time": 31.663, "note_off_time": 31.957}, {"pitch": 76, "velocity": 54, "note_on_time": 31.917, "note_off_time": 32.299}, {"pitch": 74, "velocity": 57, "note_on_time": 32.224, "note_off_time": 32.536}, {"pitch": 72, "velocity": 51, "note_on_time": 32.501, "note_off_time": 32.811}, {"pitch": 79, "velocity": 52, "note_on_time": 32.795, "note_off_time": 34.028}, {"pitch": 77, "velocity": 41, "note_on_time": 34.131, "note_off_time": 34.416}, {"pitch": 76, "velocity": 56, "note_on_time": 34.357, "note_off_time": 34.716}, {"pitch": 74, "velocity": 55, "note_on_time": 34.678, "note_off_time": 34.921}, {"pitch": 72, "velocity": 46, "note_on_time": 34.889, "note_off_time": 35.21}, {"pitch": 79, "velocity": 62, "note_on_time": 35.194, "note_off_time": 36.483}, {"pitch": 77, "velocity": 30, "note_on_time": 36.498, "note_off_time": 36.753}, {"pitch": 76, "velocity": 49, "note_on_time": 36.734, "note_off_time": 37.084}, {"pitch": 74, "velocity": 52, "note_on_time": 37.043, "note_off_time": 37.347}, {"pitch": 72, "velocity": 44, "note_on_time": 37.308, "note_off_time": 37.651}, {"pitch": 79, "velocity": 46, "note_on_time": 37.636, "note_off_time": 39.037}, {"pitch": 77, "velocity": 23, "note_on_time": 38.86, "note_off_time": 39.2}, {"pitch": 76, "velocity": 27, "note_on_time": 39.19, "note_off_time": 39.575}, {"pitch": 74, "velocity": 43, "note_on_time": 39.531, "note_off_time": 39.882}, {"pitch": 72, "velocity": 35, "note_on_time": 39.822, "note_off_time": 40.133}, {"pitch": 79, "velocity": 63, "note_on_time": 40.118, "note_off_time": 41.096}, {"pitch": 76, "velocity": 48, "note_on_time": 41.385, "note_off_time": 41.83}, {"pitch": 77, "velocity": 37, "note_on_time": 41.699, "note_off_time": 42.22}, {"pitch": 79, "velocity": 13, "note_on_time": 42.092, "note_off_time": 42.522}, {"pitch": 74, "velocity": 46, "note_on_time": 42.41, "note_off_time": 42.706}, {"pitch": 72, "velocity": 44, "note_on_time": 42.709, "note_off_time": 43.42}, {"pitch": 74, "velocity": 48, "note_on_time": 43.827, "note_off_time": 44.126}, {"pitch": 76, "velocity": 45, "note_on_time": 44.119, "note_off_time": 44.546}, {"pitch": 77, "velocity": 30, "note_on_time": 44.397, "note_off_time": 44.646}, {"pitch": 79, "velocity": 32, "note_on_time": 44.62, "note_off_time": 45.237}, {"pitch": 76, "velocity": 56, "note_on_time": 46.173, "note_off_time": 46.648}, {"pitch": 77, "velocity": 42, "note_on_time": 46.492, "note_off_time": 47.119}, {"pitch": 74, "velocity": 51, "note_on_time": 47.175, "note_off_time": 47.446}, {"pitch": 79, "velocity": 1, "note_on_time": 46.827, "note_off_time": 47.458}, {"pitch": 72, "velocity": 53, "note_on_time": 47.443, "note_off_time": 48.426}, {"pitch": 76, "velocity": 49, "note_on_time": 48.646, "note_off_time": 49.053}, {"pitch": 77, "velocity": 29, "note_on_time": 48.924, "note_off_time": 49.207}, {"pitch": 79, "velocity": 41, "note_on_time": 49.226, "note_off_time": 49.799}, {"pitch": 74, "velocity": 20, "note_on_time": 49.587, "note_off_time": 49.848}, {"pitch": 72, "velocity": 37, "note_on_time": 49.834, "note_off_time": 50.683}, {"pitch": 76, "velocity": 44, "note_on_time": 51.113, "note_off_time": 51.376}, {"pitch": 77, "velocity": 38, "note_on_time": 51.362, "note_off_time": 51.664}, {"pitch": 74, "velocity": 34, "note_on_time": 52.012, "note_off_time": 52.259}, {"pitch": 79, "velocity": 35, "note_on_time": 51.662, "note_off_time": 52.337}, {"pitch": 72, "velocity": 35, "note_on_time": 52.278, "note_off_time": 53.446}, {"pitch": 76, "velocity": 46, "note_on_time": 53.516, "note_off_time": 53.927}, {"pitch": 77, "velocity": 38, "note_on_time": 53.817, "note_off_time": 54.07}, {"pitch": 79, "velocity": 44, "note_on_time": 54.069, "note_off_time": 54.43}, {"pitch": 74, "velocity": 35, "note_on_time": 54.391, "note_off_time": 54.678}, {"pitch": 72, "velocity": 39, "note_on_time": 54.67, "note_off_time": 55.323}, {"pitch": 76, "velocity": 47, "note_on_time": 55.9, "note_off_time": 56.164}, {"pitch": 74, "velocity": 46, "note_on_time": 56.181, "note_off_time": 56.575}, {"pitch": 72, "velocity": 32, "note_on_time": 56.485, "note_off_time": 56.861}, {"pitch": 77, "velocity": 35, "note_on_time": 56.865, "note_off_time": 57.2}, {"pitch": 79, "velocity": 41, "note_on_time": 57.165, "note_off_time": 58.405}, {"pitch": 76, "velocity": 29, "note_on_time": 58.398, "note_off_time": 58.66}, {"pitch": 74, "velocity": 47, "note_on_time": 58.684, "note_off_time": 58.938}, {"pitch": 72, "velocity": 30, "note_on_time": 58.965, "note_off_time": 59.234}, {"pitch": 77, "velocity": 31, "note_on_time": 59.294, "note_off_time": 59.593}, {"pitch": 79, "velocity": 36, "note_on_time": 59.585, "note_off_time": 60.636}, {"pitch": 76, "velocity": 40, "note_on_time": 60.837, "note_off_time": 61.03}, {"pitch": 74, "velocity": 29, "note_on_time": 61.074, "note_off_time": 61.334}, {"pitch": 72, "velocity": 23, "note_on_time": 61.355, "note_off_time": 61.681}, {"pitch": 77, "velocity": 30, "note_on_time": 61.736, "note_off_time": 61.995}, {"pitch": 79, "velocity": 41, "note_on_time": 62.043, "note_off_time": 63.2}, {"pitch": 76, "velocity": 40, "note_on_time": 63.25, "note_off_time": 63.51}, {"pitch": 74, "velocity": 38, "note_on_time": 63.524, "note_off_time": 63.795}, {"pitch": 72, "velocity": 48, "note_on_time": 63.789, "note_off_time": 64.077}, {"pitch": 77, "velocity": 38, "note_on_time": 64.122, "note_off_time": 64.44}, {"pitch": 79, "velocity": 51, "note_on_time": 64.437, "note_off_time": 65.608}, {"pitch": 77, "velocity": 42, "note_on_time": 65.672, "note_off_time": 65.927}, {"pitch": 79, "velocity": 42, "note_on_time": 65.975, "note_off_time": 66.614}, {"pitch": 76, "velocity": 45, "note_on_time": 66.325, "note_off_time": 66.629}, {"pitch": 74, "velocity": 41, "note_on_time": 66.58, "note_off_time": 66.858}, {"pitch": 72, "velocity": 36, "note_on_time": 66.872, "note_off_time": 67.806}, {"pitch": 77, "velocity": 46, "note_on_time": 68.141, "note_off_time": 68.374}, {"pitch": 79, "velocity": 54, "note_on_time": 68.41, "note_off_time": 68.925}, {"pitch": 76, "velocity": 45, "note_on_time": 68.724, "note_off_time": 68.999}, {"pitch": 74, "velocity": 48, "note_on_time": 68.982, "note_off_time": 69.309}, {"pitch": 72, "velocity": 31, "note_on_time": 69.318, "note_off_time": 70.254}, {"pitch": 77, "velocity": 31, "note_on_time": 70.578, "note_off_time": 70.837}, {"pitch": 76, "velocity": 42, "note_on_time": 71.127, "note_off_time": 71.397}, {"pitch": 79, "velocity": 56, "note_on_time": 70.823, "note_off_time": 71.473}, {"pitch": 74, "velocity": 39, "note_on_time": 71.421, "note_off_time": 71.709}, {"pitch": 72, "velocity": 42, "note_on_time": 71.709, "note_off_time": 72.625}, {"pitch": 77, "velocity": 45, "note_on_time": 72.988, "note_off_time": 73.271}, {"pitch": 79, "velocity": 46, "note_on_time": 73.255, "note_off_time": 73.783}, {"pitch": 76, "velocity": 49, "note_on_time": 73.572, "note_off_time": 73.843}, {"pitch": 74, "velocity": 46, "note_on_time": 73.838, "note_off_time": 74.121}, {"pitch": 72, "velocity": 37, "note_on_time": 74.15, "note_off_time": 74.998}, {"pitch": 74, "velocity": 33, "note_on_time": 75.424, "note_off_time": 75.745}, {"pitch": 72, "velocity": 52, "note_on_time": 75.713, "note_off_time": 75.994}, {"pitch": 76, "velocity": 38, "note_on_time": 76.013, "note_off_time": 76.486}, {"pitch": 77, "velocity": 27, "note_on_time": 76.382, "note_off_time": 76.67}, {"pitch": 79, "velocity": 17, "note_on_time": 76.638, "note_off_time": 77.637}, {"pitch": 74, "velocity": 42, "note_on_time": 77.822, "note_off_time": 78.07}, {"pitch": 72, "velocity": 56, "note_on_time": 78.093, "note_off_time": 78.368}, {"pitch": 76, "velocity": 53, "note_on_time": 78.398, "note_off_time": 78.638}, {"pitch": 77, "velocity": 35, "note_on_time": 78.719, "note_off_time": 79.007}, {"pitch": 79, "velocity": 49, "note_on_time": 79.006, "note_off_time": 80.233}, {"pitch": 74, "velocity": 42, "note_on_time": 80.275, "note_off_time": 80.514}, {"pitch": 72, "velocity": 30, "note_on_time": 80.579, "note_off_time": 80.877}, {"pitch": 76, "velocity": 37, "note_on_time": 80.906, "note_off_time": 81.356}, {"pitch": 77, "velocity": 26, "note_on_time": 81.219, "note_off_time": 81.421}, {"pitch": 79, "velocity": 49, "note_on_time": 81.455, "note_off_time": 82.438}, {"pitch": 74, "velocity": 46, "note_on_time": 82.698, "note_off_time": 82.898}, {"pitch": 72, "velocity": 35, "note_on_time": 82.939, "note_off_time": 83.271}, {"pitch": 76, "velocity": 38, "note_on_time": 83.279, "note_off_time": 83.666}, {"pitch": 77, "velocity": 28, "note_on_time": 83.596, "note_off_time": 83.866}, {"pitch": 79, "velocity": 37, "note_on_time": 83.867, "note_off_time": 84.711}, {"pitch": 72, "velocity": 57, "note_on_time": 85.088, "note_off_time": 85.357}, {"pitch": 74, "velocity": 50, "note_on_time": 85.407, "note_off_time": 85.646}, {"pitch": 76, "velocity": 32, "note_on_time": 85.659, "note_off_time": 86.242}, {"pitch": 77, "velocity": 14, "note_on_time": 86.051, "note_off_time": 86.346}, {"pitch": 79, "velocity": 46, "note_on_time": 86.35, "note_off_time": 87.349}, {"pitch": 72, "velocity": 53, "note_on_time": 87.587, "note_off_time": 87.854}, {"pitch": 74, "velocity": 37, "note_on_time": 87.898, "note_off_time": 88.161}, {"pitch": 76, "velocity": 51, "note_on_time": 88.134, "note_off_time": 88.573}, {"pitch": 77, "velocity": 30, "note_on_time": 88.416, "note_off_time": 88.706}, {"pitch": 79, "velocity": 43, "note_on_time": 88.715, "note_off_time": 89.536}, {"pitch": 72, "velocity": 52, "note_on_time": 90.0, "note_off_time": 90.211}, {"pitch": 74, "velocity": 51, "note_on_time": 90.285, "note_off_time": 90.58}, {"pitch": 76, "velocity": 51, "note_on_time": 90.566, "note_off_time": 91.085}, {"pitch": 77, "velocity": 30, "note_on_time": 90.91, "note_off_time": 91.225}, {"pitch": 79, "velocity": 40, "note_on_time": 91.212, "note_off_time": 91.999}, {"pitch": 72, "velocity": 46, "note_on_time": 92.474, "note_off_time": 92.708}, {"pitch": 74, "velocity": 31, "note_on_time": 92.777, "note_off_time": 93.042}, {"pitch": 76, "velocity": 51, "note_on_time": 93.046, "note_off_time": 93.561}, {"pitch": 77, "velocity": 23, "note_on_time": 93.318, "note_off_time": 93.661}, {"pitch": 79, "velocity": 35, "note_on_time": 93.638, "note_off_time": 94.4}, {"pitch": 77, "velocity": 47, "note_on_time": 95.154, "note_off_time": 95.466}, {"pitch": 76, "velocity": 49, "note_on_time": 95.413, "note_off_time": 95.747}, {"pitch": 79, "velocity": 51, "note_on_time": 94.844, "note_off_time": 96.0}, {"pitch": 74, "velocity": 34, "note_on_time": 95.733, "note_off_time": 96.007}, {"pitch": 72, "velocity": 45, "note_on_time": 95.999, "note_off_time": 96.831}, {"pitch": 79, "velocity": 57, "note_on_time": 97.256, "note_off_time": 97.962}, {"pitch": 77, "velocity": 33, "note_on_time": 97.586, "note_off_time": 97.983}, {"pitch": 76, "velocity": 52, "note_on_time": 97.902, "note_off_time": 98.245}, {"pitch": 74, "velocity": 42, "note_on_time": 98.218, "note_off_time": 98.486}, {"pitch": 72, "velocity": 46, "note_on_time": 98.53, "note_off_time": 99.466}, {"pitch": 79, "velocity": 59, "note_on_time": 99.791, "note_off_time": 100.192}, {"pitch": 77, "velocity": 30, "note_on_time": 100.054, "note_off_time": 100.38}, {"pitch": 76, "velocity": 46, "note_on_time": 100.358, "note_off_time": 100.638}, {"pitch": 74, "velocity": 49, "note_on_time": 100.629, "note_off_time": 100.94}, {"pitch": 72, "velocity": 45, "note_on_time": 100.914, "note_off_time": 101.76}, {"pitch": 79, "velocity": 43, "note_on_time": 102.168, "note_off_time": 102.578}, {"pitch": 77, "velocity": 40, "note_on_time": 102.472, "note_off_time": 102.784}, {"pitch": 76, "velocity": 45, "note_on_time": 102.757, "note_off_time": 103.022}, {"pitch": 74, "velocity": 34, "note_on_time": 103.056, "note_off_time": 103.328}, {"pitch": 72, "velocity": 49, "note_on_time": 103.344, "note_off_time": 104.242}, {"pitch": 74, "velocity": 20, "note_on_time": 104.698, "note_off_time": 104.959}, {"pitch": 76, "velocity": 50, "note_on_time": 104.933, "note_off_time": 105.334}, {"pitch": 77, "velocity": 26, "note_on_time": 105.186, "note_off_time": 105.578}, {"pitch": 79, "velocity": 30, "note_on_time": 105.475, "note_off_time": 105.808}, {"pitch": 72, "velocity": 39, "note_on_time": 105.793, "note_off_time": 106.897}, {"pitch": 74, "velocity": 47, "note_on_time": 107.054, "note_off_time": 107.267}, {"pitch": 76, "velocity": 40, "note_on_time": 107.285, "note_off_time": 107.754}, {"pitch": 77, "velocity": 44, "note_on_time": 107.617, "note_off_time": 107.818}, {"pitch": 79, "velocity": 38, "note_on_time": 107.844, "note_off_time": 108.179}, {"pitch": 72, "velocity": 43, "note_on_time": 108.167, "note_off_time": 109.28}, {"pitch": 74, "velocity": 51, "note_on_time": 109.445, "note_off_time": 109.647}, {"pitch": 76, "velocity": 42, "note_on_time": 109.679, "note_off_time": 110.047}, {"pitch": 77, "velocity": 32, "note_on_time": 109.987, "note_off_time": 110.349}, {"pitch": 79, "velocity": 34, "note_on_time": 110.303, "note_off_time": 110.612}, {"pitch": 72, "velocity": 41, "note_on_time": 110.63, "note_off_time": 111.541}, {"pitch": 74, "velocity": 50, "note_on_time": 111.895, "note_off_time": 112.157}, {"pitch": 76, "velocity": 40, "note_on_time": 112.142, "note_off_time": 112.544}, {"pitch": 77, "velocity": 37, "note_on_time": 112.461, "note_off_time": 112.654}, {"pitch": 79, "velocity": 10, "note_on_time": 112.655, "note_off_time": 113.043}, {"pitch": 72, "velocity": 43, "note_on_time": 113.042, "note_off_time": 114.103}, {"pitch": 77, "velocity": 38, "note_on_time": 114.331, "note_off_time": 114.614}, {"pitch": 76, "velocity": 47, "note_on_time": 114.605, "note_off_time": 114.917}, {"pitch": 74, "velocity": 43, "note_on_time": 114.88, "note_off_time": 115.168}, {"pitch": 72, "velocity": 54, "note_on_time": 115.155, "note_off_time": 115.472}, {"pitch": 79, "velocity": 52, "note_on_time": 115.454, "note_off_time": 116.798}, {"pitch": 77, "velocity": 54, "note_on_time": 116.648, "note_off_time": 116.92}, {"pitch": 76, "velocity": 30, "note_on_time": 116.967, "note_off_time": 117.295}, {"pitch": 74, "velocity": 38, "note_on_time": 117.274, "note_off_time": 117.593}, {"pitch": 72, "velocity": 45, "note_on_time": 117.619, "note_off_time": 117.883}, {"pitch": 79, "velocity": 55, "note_on_time": 117.94, "note_off_time": 119.146}, {"pitch": 77, "velocity": 1, "note_on_time": 119.111, "note_off_time": 119.57}, {"pitch": 76, "velocity": 27, "note_on_time": 119.477, "note_off_time": 119.721}, {"pitch": 74, "velocity": 49, "note_on_time": 119.744, "note_off_time": 119.991}, {"pitch": 72, "velocity": 51, "note_on_time": 120.025, "note_off_time": 120.284}, {"pitch": 79, "velocity": 52, "note_on_time": 120.34, "note_off_time": 121.298}, {"pitch": 77, "velocity": 57, "note_on_time": 121.559, "note_off_time": 121.786}, {"pitch": 76, "velocity": 44, "note_on_time": 121.831, "note_off_time": 122.071}, {"pitch": 74, "velocity": 41, "note_on_time": 122.197, "note_off_time": 122.347}, {"pitch": 72, "velocity": 27, "note_on_time": 122.402, "note_off_time": 122.715}, {"pitch": 79, "velocity": 52, "note_on_time": 122.747, "note_off_time": 123.765}, {"pitch": 76, "velocity": 54, "note_on_time": 124.033, "note_off_time": 124.413}, {"pitch": 77, "velocity": 41, "note_on_time": 124.323, "note_off_time": 124.584}, {"pitch": 79, "velocity": 47, "note_on_time": 124.598, "note_off_time": 124.943}, {"pitch": 74, "velocity": 51, "note_on_time": 124.894, "note_off_time": 125.134}, {"pitch": 72, "velocity": 40, "note_on_time": 125.182, "note_off_time": 126.136}, {"pitch": 76, "velocity": 48, "note_on_time": 126.411, "note_off_time": 126.657}, {"pitch": 77, "velocity": 26, "note_on_time": 126.717, "note_off_time": 126.938}, {"pitch": 79, "velocity": 38, "note_on_time": 126.993, "note_off_time": 127.365}, {"pitch": 74, "velocity": 41, "note_on_time": 127.332, "note_off_time": 127.549}, {"pitch": 72, "velocity": 43, "note_on_time": 127.6, "note_off_time": 128.469}, {"pitch": 76, "velocity": 58, "note_on_time": 128.862, "note_off_time": 129.271}, {"pitch": 77, "velocity": 42, "note_on_time": 129.155, "note_off_time": 129.386}, {"pitch": 79, "velocity": 50, "note_on_time": 129.44, "note_off_time": 129.841}, {"pitch": 74, "velocity": 45, "note_on_time": 129.761, "note_off_time": 130.003}, {"pitch": 72, "velocity": 40, "note_on_time": 130.068, "note_off_time": 130.8}, {"pitch": 76, "velocity": 49, "note_on_time": 131.309, "note_off_time": 131.601}, {"pitch": 77, "velocity": 26, "note_on_time": 131.605, "note_off_time": 131.796}, {"pitch": 74, "velocity": 41, "note_on_time": 132.188, "note_off_time": 132.433}, {"pitch": 79, "velocity": 25, "note_on_time": 131.831, "note_off_time": 132.459}, {"pitch": 72, "velocity": 54, "note_on_time": 132.47, "note_off_time": 133.292}, {"pitch": 76, "velocity": 40, "note_on_time": 133.712, "note_off_time": 133.952}, {"pitch": 74, "velocity": 48, "note_on_time": 134.006, "note_off_time": 134.274}, {"pitch": 72, "velocity": 39, "note_on_time": 134.3, "note_off_time": 134.608}, {"pitch": 77, "velocity": 37, "note_on_time": 134.63, "note_off_time": 134.862}, {"pitch": 79, "velocity": 51, "note_on_time": 134.918, "note_off_time": 135.937}, {"pitch": 76, "velocity": 53, "note_on_time": 136.161, "note_off_time": 136.425}, {"pitch": 74, "velocity": 54, "note_on_time": 136.428, "note_off_time": 136.697}, {"pitch": 72, "velocity": 48, "note_on_time": 136.726, "note_off_time": 136.944}, {"pitch": 77, "velocity": 37, "note_on_time": 137.041, "note_off_time": 137.308}, {"pitch": 79, "velocity": 53, "note_on_time": 137.33, "note_off_time": 138.48}, {"pitch": 76, "velocity": 37, "note_on_time": 138.594, "note_off_time": 138.941}, {"pitch": 74, "velocity": 44, "note_on_time": 138.893, "note_off_time": 139.175}, {"pitch": 72, "velocity": 52, "note_on_time": 139.174, "note_off_time": 139.415}, {"pitch": 77, "velocity": 26, "note_on_time": 139.468, "note_off_time": 139.685}, {"pitch": 79, "velocity": 47, "note_on_time": 139.751, "note_off_time": 141.03}, {"pitch": 76, "velocity": 49, "note_on_time": 141.032, "note_off_time": 141.264}, {"pitch": 74, "velocity": 53, "note_on_time": 141.27, "note_off_time": 141.558}, {"pitch": 72, "velocity": 54, "note_on_time": 141.55, "note_off_time": 141.801}, {"pitch": 77, "velocity": 40, "note_on_time": 141.873, "note_off_time": 142.171}, {"pitch": 79, "velocity": 55, "note_on_time": 142.156, "note_off_time": 142.934}, {"pitch": 77, "velocity": 27, "note_on_time": 143.46, "note_off_time": 143.787}, {"pitch": 79, "velocity": 62, "note_on_time": 143.754, "note_off_time": 144.166}, {"pitch": 76, "velocity": 52, "note_on_time": 144.041, "note_off_time": 144.25}, {"pitch": 74, "velocity": 40, "note_on_time": 144.283, "note_off_time": 144.576}, {"pitch": 72, "velocity": 46, "note_on_time": 144.575, "note_off_time": 145.491}, {"pitch": 77, "velocity": 46, "note_on_time": 145.813, "note_off_time": 146.086}, {"pitch": 79, "velocity": 41, "note_on_time": 146.125, "note_off_time": 146.527}, {"pitch": 76, "velocity": 50, "note_on_time": 146.466, "note_off_time": 146.704}, {"pitch": 74, "velocity": 45, "note_on_time": 146.716, "note_off_time": 146.993}, {"pitch": 72, "velocity": 47, "note_on_time": 147.009, "note_off_time": 147.683}, {"pitch": 77, "velocity": 47, "note_on_time": 148.311, "note_off_time": 148.512}, {"pitch": 79, "velocity": 41, "note_on_time": 148.557, "note_off_time": 148.915}, {"pitch": 76, "velocity": 47, "note_on_time": 148.869, "note_off_time": 149.143}, {"pitch": 74, "velocity": 45, "note_on_time": 149.124, "note_off_time": 149.434}, {"pitch": 72, "velocity": 47, "note_on_time": 149.467, "note_off_time": 150.3}, {"pitch": 77, "velocity": 42, "note_on_time": 150.728, "note_off_time": 150.956}, {"pitch": 79, "velocity": 51, "note_on_time": 150.988, "note_off_time": 151.371}, {"pitch": 76, "velocity": 32, "note_on_time": 151.357, "note_off_time": 151.799}, {"pitch": 74, "velocity": 23, "note_on_time": 151.681, "note_off_time": 151.947}, {"pitch": 72, "velocity": 39, "note_on_time": 151.927, "note_off_time": 152.818}, {"pitch": 74, "velocity": 44, "note_on_time": 153.143, "note_off_time": 153.43}, {"pitch": 72, "velocity": 44, "note_on_time": 153.415, "note_off_time": 153.665}, {"pitch": 76, "velocity": 33, "note_on_time": 153.74, "note_off_time": 154.145}, {"pitch": 77, "velocity": 37, "note_on_time": 154.031, "note_off_time": 154.253}, {"pitch": 79, "velocity": 39, "note_on_time": 154.308, "note_off_time": 155.367}, {"pitch": 74, "velocity": 47, "note_on_time": 155.624, "note_off_time": 155.869}, {"pitch": 72, "velocity": 56, "note_on_time": 155.873, "note_off_time": 156.161}, {"pitch": 76, "velocity": 43, "note_on_time": 156.19, "note_off_time": 156.684}, {"pitch": 77, "velocity": 45, "note_on_time": 156.496, "note_off_time": 156.781}, {"pitch": 79, "velocity": 53, "note_on_time": 156.767, "note_off_time": 157.592}, {"pitch": 74, "velocity": 50, "note_on_time": 158.036, "note_off_time": 158.282}, {"pitch": 72, "velocity": 57, "note_on_time": 158.315, "note_off_time": 158.59}, {"pitch": 76, "velocity": 53, "note_on_time": 158.602, "note_off_time": 159.052}, {"pitch": 77, "velocity": 41, "note_on_time": 158.93, "note_off_time": 159.201}, {"pitch": 79, "velocity": 36, "note_on_time": 159.209, "note_off_time": 160.001}, {"pitch": 74, "velocity": 44, "note_on_time": 160.437, "note_off_time": 160.704}, {"pitch": 72, "velocity": 65, "note_on_time": 160.708, "note_off_time": 160.972}, {"pitch": 76, "velocity": 43, "note_on_time": 161.03, "note_off_time": 161.435}, {"pitch": 77, "velocity": 36, "note_on_time": 161.388, "note_off_time": 161.678}, {"pitch": 79, "velocity": 51, "note_on_time": 161.692, "note_off_time": 162.485}, {"pitch": 72, "velocity": 54, "note_on_time": 162.943, "note_off_time": 163.181}, {"pitch": 74, "velocity": 37, "note_on_time": 163.228, "note_off_time": 163.55}, {"pitch": 76, "velocity": 46, "note_on_time": 163.522, "note_off_time": 164.043}, {"pitch": 77, "velocity": 39, "note_on_time": 163.838, "note_off_time": 164.133}, {"pitch": 79, "velocity": 41, "note_on_time": 164.104, "note_off_time": 165.112}, {"pitch": 72, "velocity": 49, "note_on_time": 165.395, "note_off_time": 165.636}, {"pitch": 74, "velocity": 49, "note_on_time": 165.655, "note_off_time": 165.955}, {"pitch": 76, "velocity": 52, "note_on_time": 165.925, "note_off_time": 166.487}, {"pitch": 77, "velocity": 31, "note_on_time": 166.259, "note_off_time": 166.562}, {"pitch": 79, "velocity": 45, "note_on_time": 166.534, "note_off_time": 167.463}, {"pitch": 72, "velocity": 52, "note_on_time": 167.785, "note_off_time": 168.042}, {"pitch": 74, "velocity": 55, "note_on_time": 168.03, "note_off_time": 168.421}, {"pitch": 76, "velocity": 60, "note_on_time": 168.362, "note_off_time": 168.757}, {"pitch": 77, "velocity": 35, "note_on_time": 168.611, "note_off_time": 168.935}, {"pitch": 79, "velocity": 59, "note_on_time": 168.91, "note_off_time": 169.853}, {"pitch": 72, "velocity": 49, "note_on_time": 170.209, "note_off_time": 170.467}, {"pitch": 74, "velocity": 52, "note_on_time": 170.508, "note_off_time": 170.793}, {"pitch": 76, "velocity": 43, "note_on_time": 170.762, "note_off_time": 171.313}, {"pitch": 77, "velocity": 27, "note_on_time": 171.117, "note_off_time": 171.422}, {"pitch": 79, "velocity": 55, "note_on_time": 171.404, "note_off_time": 172.192}, {"pitch": 79, "velocity": 53, "note_on_time": 172.567, "note_off_time": 173.062}, {"pitch": 77, "velocity": 49, "note_on_time": 172.885, "note_off_time": 173.157}, {"pitch": 76, "velocity": 1, "note_on_time": 173.11, "note_off_time": 173.477}, {"pitch": 74, "velocity": 29, "note_on_time": 173.454, "note_off_time": 173.773}, {"pitch": 72, "velocity": 52, "note_on_time": 173.769, "note_off_time": 174.76}, {"pitch": 79, "velocity": 56, "note_on_time": 175.056, "note_off_time": 175.572}, {"pitch": 77, "velocity": 35, "note_on_time": 175.406, "note_off_time": 175.667}, {"pitch": 76, "velocity": 43, "note_on_time": 175.704, "note_off_time": 175.971}, {"pitch": 74, "velocity": 50, "note_on_time": 175.985, "note_off_time": 176.233}, {"pitch": 72, "velocity": 54, "note_on_time": 176.258, "note_off_time": 177.054}, {"pitch": 79, "velocity": 49, "note_on_time": 177.496, "note_off_time": 178.014}, {"pitch": 77, "velocity": 50, "note_on_time": 177.874, "note_off_time": 178.114}, {"pitch": 76, "velocity": 42, "note_on_time": 178.104, "note_off_time": 178.376}, {"pitch": 74, "velocity": 38, "note_on_time": 178.404, "note_off_time": 178.652}, {"pitch": 72, "velocity": 49, "note_on_time": 178.688, "note_off_time": 179.618}, {"pitch": 79, "velocity": 52, "note_on_time": 179.95, "note_off_time": 180.213}, {"pitch": 77, "velocity": 50, "note_on_time": 180.233, "note_off_time": 180.469}, {"pitch": 76, "velocity": 49, "note_on_time": 180.501, "note_off_time": 180.728}, {"pitch": 74, "velocity": 34, "note_on_time": 180.81, "note_off_time": 181.052}, {"pitch": 72, "velocity": 49, "note_on_time": 181.116, "note_off_time": 181.969}, {"pitch": 74, "velocity": 49, "note_on_time": 182.394, "note_off_time": 182.602}, {"pitch": 76, "velocity": 36, "note_on_time": 182.646, "note_off_time": 183.122}, {"pitch": 77, "velocity": 41, "note_on_time": 182.962, "note_off_time": 183.196}, {"pitch": 79, "velocity": 29, "note_on_time": 183.201, "note_off_time": 183.571}, {"pitch": 72, "velocity": 33, "note_on_time": 183.562, "note_off_time": 184.561}, {"pitch": 74, "velocity": 43, "note_on_time": 184.827, "note_off_time": 185.053}, {"pitch": 76, "velocity": 40, "note_on_time": 185.103, "note_off_time": 185.331}, {"pitch": 77, "velocity": 31, "note_on_time": 185.398, "note_off_time": 185.622}, {"pitch": 79, "velocity": 48, "note_on_time": 185.642, "note_off_time": 185.953}, {"pitch": 72, "velocity": 53, "note_on_time": 185.971, "note_off_time": 186.965}, {"pitch": 74, "velocity": 48, "note_on_time": 187.278, "note_off_time": 187.505}, {"pitch": 76, "velocity": 37, "note_on_time": 187.515, "note_off_time": 187.832}, {"pitch": 77, "velocity": 50, "note_on_time": 187.822, "note_off_time": 188.044}, {"pitch": 79, "velocity": 46, "note_on_time": 188.043, "note_off_time": 188.377}, {"pitch": 72, "velocity": 45, "note_on_time": 188.384, "note_off_time": 189.427}, {"pitch": 74, "velocity": 44, "note_on_time": 189.658, "note_off_time": 189.87}, {"pitch": 76, "velocity": 43, "note_on_time": 189.897, "note_off_time": 190.214}, {"pitch": 77, "velocity": 40, "note_on_time": 190.206, "note_off_time": 190.432}, {"pitch": 79, "velocity": 44, "note_on_time": 190.456, "note_off_time": 190.785}, {"pitch": 72, "velocity": 45, "note_on_time": 190.784, "note_off_time": 191.724}, {"pitch": 77, "velocity": 45, "note_on_time": 192.042, "note_off_time": 192.257}, {"pitch": 76, "velocity": 38, "note_on_time": 192.304, "note_off_time": 192.597}, {"pitch": 74, "velocity": 36, "note_on_time": 192.625, "note_off_time": 192.896}, {"pitch": 72, "velocity": 47, "note_on_time": 192.917, "note_off_time": 193.176}, {"pitch": 79, "velocity": 51, "note_on_time": 193.18, "note_off_time": 194.311}]</notes><guidance name="Guidance Mode">None</guidance><error name="Error value">99</error></trial></trials></MIDI>