<MIDI midiNo="2023_06_19-11_36_38"><target_notes><notes name="Note List">[{"pitch": 60, "velocity": 40, "note_on_time": 0.009, "note_off_time": 1.017}, {"pitch": 64, "velocity": 40, "note_on_time": 0.009, "note_off_time": 1.018}, {"pitch": 67, "velocity": 40, "note_on_time": 0.01, "note_off_time": 1.018}, {"pitch": 48, "velocity": 40, "note_on_time": 0.01, "note_off_time": 1.019}, {"pitch": 52, "velocity": 40, "note_on_time": 1.019, "note_off_time": 2.03}, {"pitch": 55, "velocity": 40, "note_on_time": 1.019, "note_off_time": 2.031}, {"pitch": 77, "velocity": 40, "note_on_time": 2.03, "note_off_time": 3.043}, {"pitch": 48, "velocity": 40, "note_on_time": 2.031, "note_off_time": 3.043}, {"pitch": 52, "velocity": 40, "note_on_time": 3.043, "note_off_time": 4.055}, {"pitch": 55, "velocity": 40, "note_on_time": 3.043, "note_off_time": 4.055}, {"pitch": 48, "velocity": 40, "note_on_time": 4.055, "note_off_time": 5.067}, {"pitch": 52, "velocity": 40, "note_on_time": 5.067, "note_off_time": 6.078}, {"pitch": 55, "velocity": 40, "note_on_time": 5.067, "note_off_time": 6.078}, {"pitch": 48, "velocity": 40, "note_on_time": 6.078, "note_off_time": 7.086}, {"pitch": 52, "velocity": 40, "note_on_time": 7.086, "note_off_time": 8.097}, {"pitch": 55, "velocity": 40, "note_on_time": 7.086, "note_off_time": 8.097}, {"pitch": 60, "velocity": 40, "note_on_time": 8.095, "note_off_time": 9.111}, {"pitch": 64, "velocity": 40, "note_on_time": 8.096, "note_off_time": 9.112}, {"pitch": 67, "velocity": 40, "note_on_time": 8.096, "note_off_time": 9.112}, {"pitch": 48, "velocity": 40, "note_on_time": 8.097, "note_off_time": 9.113}, {"pitch": 52, "velocity": 40, "note_on_time": 9.113, "note_off_time": 10.125}, {"pitch": 55, "velocity": 40, "note_on_time": 9.113, "note_off_time": 10.125}, {"pitch": 76, "velocity": 40, "note_on_time": 10.125, "note_off_time": 11.138}, {"pitch": 48, "velocity": 40, "note_on_time": 10.125, "note_off_time": 11.138}, {"pitch": 52, "velocity": 40, "note_on_time": 11.138, "note_off_time": 12.148}, {"pitch": 55, "velocity": 40, "note_on_time": 11.138, "note_off_time": 12.148}, {"pitch": 48, "velocity": 40, "note_on_time": 12.148, "note_off_time": 13.149}, {"pitch": 52, "velocity": 40, "note_on_time": 13.149, "note_off_time": 14.156}, {"pitch": 55, "velocity": 40, "note_on_time": 13.149, "note_off_time": 14.156}, {"pitch": 48, "velocity": 40, "note_on_time": 14.156, "note_off_time": 15.163}, {"pitch": 52, "velocity": 40, "note_on_time": 15.163, "note_off_time": 16.17}, {"pitch": 55, "velocity": 40, "note_on_time": 15.163, "note_off_time": 16.17}, {"pitch": 60, "velocity": 40, "note_on_time": 16.169, "note_off_time": 17.181}, {"pitch": 64, "velocity": 40, "note_on_time": 16.17, "note_off_time": 17.182}, {"pitch": 67, "velocity": 40, "note_on_time": 16.17, "note_off_time": 17.182}, {"pitch": 48, "velocity": 40, "note_on_time": 16.17, "note_off_time": 17.182}, {"pitch": 52, "velocity": 40, "note_on_time": 17.182, "note_off_time": 18.193}, {"pitch": 55, "velocity": 40, "note_on_time": 17.182, "note_off_time": 18.194}, {"pitch": 72, "velocity": 40, "note_on_time": 18.193, "note_off_time": 19.207}, {"pitch": 48, "velocity": 40, "note_on_time": 18.194, "note_off_time": 19.207}, {"pitch": 52, "velocity": 40, "note_on_time": 19.207, "note_off_time": 20.22}, {"pitch": 55, "velocity": 40, "note_on_time": 19.207, "note_off_time": 20.22}, {"pitch": 48, "velocity": 40, "note_on_time": 20.22, "note_off_time": 21.224}, {"pitch": 52, "velocity": 40, "note_on_time": 21.224, "note_off_time": 22.236}, {"pitch": 55, "velocity": 40, "note_on_time": 21.224, "note_off_time": 22.236}, {"pitch": 48, "velocity": 40, "note_on_time": 22.236, "note_off_time": 23.242}, {"pitch": 52, "velocity": 40, "note_on_time": 23.242, "note_off_time": 24.258}, {"pitch": 55, "velocity": 40, "note_on_time": 23.242, "note_off_time": 24.258}, {"pitch": 60, "velocity": 40, "note_on_time": 24.256, "note_off_time": 25.265}, {"pitch": 64, "velocity": 40, "note_on_time": 24.257, "note_off_time": 25.266}, {"pitch": 67, "velocity": 40, "note_on_time": 24.257, "note_off_time": 25.267}, {"pitch": 48, "velocity": 40, "note_on_time": 24.258, "note_off_time": 25.267}, {"pitch": 52, "velocity": 40, "note_on_time": 25.267, "note_off_time": 26.28}, {"pitch": 55, "velocity": 40, "note_on_time": 25.267, "note_off_time": 26.28}, {"pitch": 79, "velocity": 40, "note_on_time": 26.28, "note_off_time": 27.295}, {"pitch": 48, "velocity": 40, "note_on_time": 26.28, "note_off_time": 27.295}, {"pitch": 52, "velocity": 40, "note_on_time": 27.295, "note_off_time": 28.308}, {"pitch": 55, "velocity": 40, "note_on_time": 27.295, "note_off_time": 28.309}, {"pitch": 48, "velocity": 40, "note_on_time": 28.309, "note_off_time": 29.312}, {"pitch": 52, "velocity": 40, "note_on_time": 29.312, "note_off_time": 30.313}, {"pitch": 55, "velocity": 40, "note_on_time": 29.312, "note_off_time": 30.313}, {"pitch": 48, "velocity": 40, "note_on_time": 30.313, "note_off_time": 31.321}, {"pitch": 52, "velocity": 40, "note_on_time": 31.321, "note_off_time": 32.334}, {"pitch": 55, "velocity": 40, "note_on_time": 31.321, "note_off_time": 32.334}, {"pitch": 60, "velocity": 40, "note_on_time": 32.332, "note_off_time": 33.342}, {"pitch": 64, "velocity": 40, "note_on_time": 32.334, "note_off_time": 33.343}, {"pitch": 67, "velocity": 40, "note_on_time": 32.334, "note_off_time": 33.343}, {"pitch": 48, "velocity": 40, "note_on_time": 32.334, "note_off_time": 33.344}, {"pitch": 52, "velocity": 40, "note_on_time": 33.344, "note_off_time": 34.357}, {"pitch": 55, "velocity": 40, "note_on_time": 33.344, "note_off_time": 34.357}, {"pitch": 72, "velocity": 40, "note_on_time": 34.357, "note_off_time": 35.37}, {"pitch": 48, "velocity": 40, "note_on_time": 34.357, "note_off_time": 35.37}, {"pitch": 52, "velocity": 40, "note_on_time": 35.371, "note_off_time": 36.378}, {"pitch": 55, "velocity": 40, "note_on_time": 35.371, "note_off_time": 36.38}, {"pitch": 48, "velocity": 40, "note_on_time": 36.38, "note_off_time": 37.39}, {"pitch": 52, "velocity": 40, "note_on_time": 37.39, "note_off_time": 38.398}, {"pitch": 55, "velocity": 40, "note_on_time": 37.39, "note_off_time": 38.398}, {"pitch": 48, "velocity": 40, "note_on_time": 38.398, "note_off_time": 39.41}, {"pitch": 52, "velocity": 40, "note_on_time": 39.41, "note_off_time": 40.422}, {"pitch": 55, "velocity": 40, "note_on_time": 39.41, "note_off_time": 40.422}, {"pitch": 60, "velocity": 40, "note_on_time": 40.42, "note_off_time": 41.43}, {"pitch": 64, "velocity": 40, "note_on_time": 40.421, "note_off_time": 41.431}, {"pitch": 67, "velocity": 40, "note_on_time": 40.422, "note_off_time": 41.432}, {"pitch": 79, "velocity": 40, "note_on_time": 42.439, "note_off_time": 43.452}, {"pitch": 60, "velocity": 40, "note_on_time": 48.465, "note_off_time": 49.479}, {"pitch": 64, "velocity": 40, "note_on_time": 48.465, "note_off_time": 49.479}, {"pitch": 67, "velocity": 40, "note_on_time": 48.466, "note_off_time": 49.48}, {"pitch": 74, "velocity": 40, "note_on_time": 50.49, "note_off_time": 51.499}, {"pitch": 60, "velocity": 40, "note_on_time": 56.506, "note_off_time": 57.508}, {"pitch": 64, "velocity": 40, "note_on_time": 56.507, "note_off_time": 57.509}, {"pitch": 67, "velocity": 40, "note_on_time": 56.507, "note_off_time": 57.509}, {"pitch": 77, "velocity": 40, "note_on_time": 58.515, "note_off_time": 59.524}, {"pitch": 60, "velocity": 40, "note_on_time": 64.531, "note_off_time": 65.548}, {"pitch": 64, "velocity": 40, "note_on_time": 64.532, "note_off_time": 65.549}, {"pitch": 67, "velocity": 40, "note_on_time": 64.532, "note_off_time": 65.549}, {"pitch": 76, "velocity": 40, "note_on_time": 66.561, "note_off_time": 67.562}, {"pitch": 60, "velocity": 40, "note_on_time": 72.571, "note_off_time": 73.577}, {"pitch": 64, "velocity": 40, "note_on_time": 72.572, "note_off_time": 73.578}, {"pitch": 67, "velocity": 40, "note_on_time": 72.572, "note_off_time": 73.579}, {"pitch": 74, "velocity": 40, "note_on_time": 74.592, "note_off_time": 75.603}, {"pitch": 60, "velocity": 40, "note_on_time": 80.619, "note_off_time": 81.63}, {"pitch": 64, "velocity": 40, "note_on_time": 80.62, "note_off_time": 81.631}, {"pitch": 67, "velocity": 40, "note_on_time": 80.62, "note_off_time": 81.632}, {"pitch": 79, "velocity": 40, "note_on_time": 82.641, "note_off_time": 83.652}, {"pitch": 60, "velocity": 40, "note_on_time": 88.66, "note_off_time": 89.671}, {"pitch": 64, "velocity": 40, "note_on_time": 88.661, "note_off_time": 89.672}, {"pitch": 67, "velocity": 40, "note_on_time": 88.661, "note_off_time": 89.673}, {"pitch": 76, "velocity": 40, "note_on_time": 90.674, "note_off_time": 91.677}, {"pitch": 60, "velocity": 40, "note_on_time": 96.692, "note_off_time": 97.709}, {"pitch": 64, "velocity": 40, "note_on_time": 96.693, "note_off_time": 97.71}, {"pitch": 67, "velocity": 40, "note_on_time": 96.693, "note_off_time": 97.711}, {"pitch": 72, "velocity": 40, "note_on_time": 98.715, "note_off_time": 99.729}, {"pitch": 60, "velocity": 40, "note_on_time": 104.738, "note_off_time": 105.755}, {"pitch": 64, "velocity": 40, "note_on_time": 104.739, "note_off_time": 105.756}, {"pitch": 67, "velocity": 40, "note_on_time": 104.739, "note_off_time": 105.757}, {"pitch": 76, "velocity": 40, "note_on_time": 106.768, "note_off_time": 107.781}, {"pitch": 60, "velocity": 40, "note_on_time": 112.787, "note_off_time": 113.797}, {"pitch": 64, "velocity": 40, "note_on_time": 112.787, "note_off_time": 113.797}, {"pitch": 67, "velocity": 40, "note_on_time": 112.788, "note_off_time": 113.798}, {"pitch": 74, "velocity": 40, "note_on_time": 114.811, "note_off_time": 115.826}, {"pitch": 60, "velocity": 40, "note_on_time": 120.838, "note_off_time": 121.85}, {"pitch": 64, "velocity": 40, "note_on_time": 120.839, "note_off_time": 121.851}, {"pitch": 67, "velocity": 40, "note_on_time": 120.839, "note_off_time": 121.851}, {"pitch": 79, "velocity": 40, "note_on_time": 122.857, "note_off_time": 123.863}, {"pitch": 60, "velocity": 40, "note_on_time": 128.876, "note_off_time": 129.884}, {"pitch": 64, "velocity": 40, "note_on_time": 128.877, "note_off_time": 129.885}, {"pitch": 67, "velocity": 40, "note_on_time": 128.877, "note_off_time": 129.886}, {"pitch": 77, "velocity": 40, "note_on_time": 130.9, "note_off_time": 131.903}, {"pitch": 60, "velocity": 40, "note_on_time": 136.908, "note_off_time": 137.919}, {"pitch": 64, "velocity": 40, "note_on_time": 136.91, "note_off_time": 137.92}, {"pitch": 67, "velocity": 40, "note_on_time": 136.91, "note_off_time": 137.921}, {"pitch": 72, "velocity": 40, "note_on_time": 138.928, "note_off_time": 139.939}, {"pitch": 60, "velocity": 40, "note_on_time": 144.941, "note_off_time": 145.956}, {"pitch": 64, "velocity": 40, "note_on_time": 144.942, "note_off_time": 145.957}, {"pitch": 67, "velocity": 40, "note_on_time": 144.942, "note_off_time": 145.958}, {"pitch": 74, "velocity": 40, "note_on_time": 146.97, "note_off_time": 147.979}, {"pitch": 60, "velocity": 40, "note_on_time": 152.987, "note_off_time": 154.0}, {"pitch": 64, "velocity": 40, "note_on_time": 152.988, "note_off_time": 154.001}, {"pitch": 67, "velocity": 40, "note_on_time": 152.988, "note_off_time": 154.001}, {"pitch": 77, "velocity": 40, "note_on_time": 155.013, "note_off_time": 156.027}, {"pitch": 60, "velocity": 40, "note_on_time": 161.037, "note_off_time": 162.05}, {"pitch": 64, "velocity": 40, "note_on_time": 161.039, "note_off_time": 162.05}, {"pitch": 67, "velocity": 40, "note_on_time": 161.039, "note_off_time": 162.051}, {"pitch": 77, "velocity": 40, "note_on_time": 163.059, "note_off_time": 164.07}]</notes><options name="Option List">((4, 4), [0.5, 0.25], 3, 8, &lt;NoteRangePerHand.TWO_NOTES: 3&gt;, &lt;NoteRangePerHand.ONE_NOTE: 2&gt;, False, True, True, 100)</options></target_notes><trials><trial trial_no="1" timestamp="2023_06_19-11_33_54"><notes name="Played Notes">[{"pitch": 77, "velocity": 64, "note_on_time": 3.138, "note_off_time": 3.694}, {"pitch": 76, "velocity": 46, "note_on_time": 11.527, "note_off_time": 12.61}, {"pitch": 74, "velocity": 55, "note_on_time": 19.171, "note_off_time": 20.523}, {"pitch": 72, "velocity": 52, "note_on_time": 22.836, "note_off_time": 23.207}, {"pitch": 72, "velocity": 52, "note_on_time": 24.039, "note_off_time": 24.194}, {"pitch": 74, "velocity": 55, "note_on_time": 24.186, "note_off_time": 24.326}, {"pitch": 76, "velocity": 46, "note_on_time": 24.332, "note_off_time": 24.519}, {"pitch": 77, "velocity": 79, "note_on_time": 27.493, "note_off_time": 28.107}, {"pitch": 79, "velocity": 57, "note_on_time": 28.308, "note_off_time": 28.806}, {"pitch": 79, "velocity": 68, "note_on_time": 29.004, "note_off_time": 29.335}, {"pitch": 79, "velocity": 65, "note_on_time": 30.282, "note_off_time": 30.381}, {"pitch": 79, "velocity": 68, "note_on_time": 30.475, "note_off_time": 30.562}, {"pitch": 72, "velocity": 51, "note_on_time": 36.38, "note_off_time": 37.388}, {"pitch": 72, "velocity": 52, "note_on_time": 37.617, "note_off_time": 37.799}, {"pitch": 72, "velocity": 46, "note_on_time": 37.931, "note_off_time": 38.136}, {"pitch": 77, "velocity": 61, "note_on_time": 44.867, "note_off_time": 45.414}, {"pitch": 76, "velocity": 43, "note_on_time": 45.626, "note_off_time": 45.834}, {"pitch": 79, "velocity": 47, "note_on_time": 46.247, "note_off_time": 46.372}, {"pitch": 79, "velocity": 75, "note_on_time": 46.452, "note_off_time": 46.588}, {"pitch": 79, "velocity": 49, "note_on_time": 48.495, "note_off_time": 48.766}, {"pitch": 74, "velocity": 53, "note_on_time": 52.135, "note_off_time": 53.031}, {"pitch": 74, "velocity": 56, "note_on_time": 53.372, "note_off_time": 54.511}, {"pitch": 74, "velocity": 56, "note_on_time": 59.956, "note_off_time": 60.358}, {"pitch": 76, "velocity": 61, "note_on_time": 60.506, "note_off_time": 60.715}, {"pitch": 76, "velocity": 64, "note_on_time": 61.43, "note_off_time": 61.803}, {"pitch": 77, "velocity": 41, "note_on_time": 61.888, "note_off_time": 62.073}, {"pitch": 77, "velocity": 55, "note_on_time": 62.544, "note_off_time": 63.395}, {"pitch": 74, "velocity": 55, "note_on_time": 68.794, "note_off_time": 69.108}, {"pitch": 76, "velocity": 65, "note_on_time": 69.662, "note_off_time": 70.38}, {"pitch": 76, "velocity": 44, "note_on_time": 70.596, "note_off_time": 70.814}, {"pitch": 76, "velocity": 33, "note_on_time": 71.098, "note_off_time": 71.306}, {"pitch": 74, "velocity": 52, "note_on_time": 76.518, "note_off_time": 77.692}, {"pitch": 77, "velocity": 64, "note_on_time": 84.013, "note_off_time": 84.422}, {"pitch": 79, "velocity": 66, "note_on_time": 84.598, "note_off_time": 84.785}, {"pitch": 79, "velocity": 25, "note_on_time": 85.905, "note_off_time": 87.146}, {"pitch": 74, "velocity": 61, "note_on_time": 92.307, "note_off_time": 92.761}, {"pitch": 76, "velocity": 63, "note_on_time": 93.396, "note_off_time": 93.827}, {"pitch": 77, "velocity": 40, "note_on_time": 94.632, "note_off_time": 94.877}, {"pitch": 72, "velocity": 41, "note_on_time": 95.459, "note_off_time": 95.676}, {"pitch": 72, "velocity": 48, "note_on_time": 96.512, "note_off_time": 96.668}, {"pitch": 74, "velocity": 45, "note_on_time": 96.678, "note_off_time": 96.845}, {"pitch": 76, "velocity": 47, "note_on_time": 96.878, "note_off_time": 97.066}, {"pitch": 72, "velocity": 57, "note_on_time": 100.18, "note_off_time": 101.424}, {"pitch": 76, "velocity": 66, "note_on_time": 108.363, "note_off_time": 109.219}, {"pitch": 72, "velocity": 41, "note_on_time": 116.006, "note_off_time": 116.474}, {"pitch": 74, "velocity": 44, "note_on_time": 116.705, "note_off_time": 116.999}, {"pitch": 74, "velocity": 51, "note_on_time": 117.296, "note_off_time": 117.912}, {"pitch": 74, "velocity": 60, "note_on_time": 119.232, "note_off_time": 119.456}, {"pitch": 77, "velocity": 59, "note_on_time": 124.195, "note_off_time": 124.536}, {"pitch": 79, "velocity": 62, "note_on_time": 124.801, "note_off_time": 125.389}, {"pitch": 79, "velocity": 21, "note_on_time": 125.802, "note_off_time": 126.533}, {"pitch": 74, "velocity": 52, "note_on_time": 132.453, "note_off_time": 132.94}, {"pitch": 72, "velocity": 54, "note_on_time": 133.243, "note_off_time": 133.499}, {"pitch": 76, "velocity": 41, "note_on_time": 133.604, "note_off_time": 133.821}, {"pitch": 76, "velocity": 39, "note_on_time": 134.221, "note_off_time": 134.461}, {"pitch": 77, "velocity": 42, "note_on_time": 134.498, "note_off_time": 134.789}, {"pitch": 72, "velocity": 1, "note_on_time": 135.524, "note_off_time": 135.734}, {"pitch": 72, "velocity": 60, "note_on_time": 135.92, "note_off_time": 136.064}, {"pitch": 74, "velocity": 58, "note_on_time": 136.073, "note_off_time": 136.243}, {"pitch": 76, "velocity": 46, "note_on_time": 136.214, "note_off_time": 136.503}, {"pitch": 77, "velocity": 54, "note_on_time": 136.438, "note_off_time": 136.678}, {"pitch": 72, "velocity": 50, "note_on_time": 140.29, "note_off_time": 141.285}, {"pitch": 76, "velocity": 47, "note_on_time": 148.636, "note_off_time": 149.208}, {"pitch": 77, "velocity": 55, "note_on_time": 149.713, "note_off_time": 150.393}, {"pitch": 77, "velocity": 16, "note_on_time": 151.134, "note_off_time": 151.254}, {"pitch": 77, "velocity": 49, "note_on_time": 151.373, "note_off_time": 151.575}, {"pitch": 77, "velocity": 55, "note_on_time": 156.57, "note_off_time": 157.369}]</notes><guidance name="Guidance Mode">None</guidance><error name="Error value">99</error></trial><trial trial_no="2" timestamp="2023_06_19-11_37_53"><notes name="Played Notes">[{"pitch": 72, "velocity": 50, "note_on_time": 4.918, "note_off_time": 5.22}, {"pitch": 74, "velocity": 49, "note_on_time": 5.097, "note_off_time": 5.292}, {"pitch": 76, "velocity": 51, "note_on_time": 5.224, "note_off_time": 5.589}, {"pitch": 77, "velocity": 60, "note_on_time": 5.445, "note_off_time": 5.656}, {"pitch": 79, "velocity": 70, "note_on_time": 5.603, "note_off_time": 5.895}, {"pitch": 72, "velocity": 51, "note_on_time": 6.214, "note_off_time": 6.44}, {"pitch": 74, "velocity": 63, "note_on_time": 6.39, "note_off_time": 6.639}, {"pitch": 76, "velocity": 51, "note_on_time": 6.582, "note_off_time": 6.936}, {"pitch": 77, "velocity": 48, "note_on_time": 6.795, "note_off_time": 7.076}, {"pitch": 79, "velocity": 59, "note_on_time": 6.988, "note_off_time": 7.329}, {"pitch": 72, "velocity": 54, "note_on_time": 7.559, "note_off_time": 7.836}, {"pitch": 74, "velocity": 58, "note_on_time": 7.782, "note_off_time": 8.006}, {"pitch": 76, "velocity": 65, "note_on_time": 7.95, "note_off_time": 8.31}, {"pitch": 77, "velocity": 68, "note_on_time": 8.183, "note_off_time": 8.457}, {"pitch": 79, "velocity": 14, "note_on_time": 8.486, "note_off_time": 8.935}, {"pitch": 72, "velocity": 67, "note_on_time": 9.184, "note_off_time": 9.498}, {"pitch": 74, "velocity": 58, "note_on_time": 9.344, "note_off_time": 9.523}, {"pitch": 76, "velocity": 58, "note_on_time": 9.47, "note_off_time": 9.863}, {"pitch": 77, "velocity": 65, "note_on_time": 9.672, "note_off_time": 9.982}, {"pitch": 79, "velocity": 77, "note_on_time": 9.884, "note_off_time": 10.146}, {"pitch": 79, "velocity": 62, "note_on_time": 10.516, "note_off_time": 10.78}, {"pitch": 77, "velocity": 60, "note_on_time": 10.73, "note_off_time": 11.07}, {"pitch": 76, "velocity": 51, "note_on_time": 10.939, "note_off_time": 11.414}, {"pitch": 74, "velocity": 55, "note_on_time": 11.3, "note_off_time": 11.768}, {"pitch": 72, "velocity": 70, "note_on_time": 11.704, "note_off_time": 12.109}, {"pitch": 79, "velocity": 52, "note_on_time": 12.233, "note_off_time": 12.705}, {"pitch": 77, "velocity": 56, "note_on_time": 12.492, "note_off_time": 12.768}, {"pitch": 76, "velocity": 76, "note_on_time": 12.673, "note_off_time": 13.076}, {"pitch": 74, "velocity": 64, "note_on_time": 12.988, "note_off_time": 13.449}, {"pitch": 72, "velocity": 72, "note_on_time": 13.376, "note_off_time": 13.766}, {"pitch": 79, "velocity": 59, "note_on_time": 14.103, "note_off_time": 14.574}, {"pitch": 77, "velocity": 54, "note_on_time": 14.393, "note_off_time": 14.626}, {"pitch": 76, "velocity": 72, "note_on_time": 14.556, "note_off_time": 14.919}, {"pitch": 74, "velocity": 62, "note_on_time": 14.861, "note_off_time": 15.261}, {"pitch": 72, "velocity": 70, "note_on_time": 15.187, "note_off_time": 16.128}, {"pitch": 74, "velocity": 55, "note_on_time": 17.074, "note_off_time": 17.326}, {"pitch": 76, "velocity": 54, "note_on_time": 17.19, "note_off_time": 17.754}, {"pitch": 77, "velocity": 58, "note_on_time": 17.416, "note_off_time": 17.767}, {"pitch": 79, "velocity": 58, "note_on_time": 17.688, "note_off_time": 18.311}, {"pitch": 72, "velocity": 65, "note_on_time": 18.218, "note_off_time": 18.67}, {"pitch": 74, "velocity": 48, "note_on_time": 18.727, "note_off_time": 19.022}, {"pitch": 76, "velocity": 58, "note_on_time": 18.979, "note_off_time": 19.444}, {"pitch": 77, "velocity": 45, "note_on_time": 19.216, "note_off_time": 19.55}, {"pitch": 79, "velocity": 64, "note_on_time": 19.433, "note_off_time": 19.913}, {"pitch": 72, "velocity": 72, "note_on_time": 19.927, "note_off_time": 20.5}, {"pitch": 74, "velocity": 48, "note_on_time": 20.416, "note_off_time": 20.555}, {"pitch": 76, "velocity": 60, "note_on_time": 20.481, "note_off_time": 21.035}, {"pitch": 77, "velocity": 62, "note_on_time": 20.749, "note_off_time": 21.049}, {"pitch": 79, "velocity": 60, "note_on_time": 21.0, "note_off_time": 21.528}, {"pitch": 72, "velocity": 75, "note_on_time": 21.51, "note_off_time": 22.148}, {"pitch": 74, "velocity": 56, "note_on_time": 21.993, "note_off_time": 22.151}, {"pitch": 76, "velocity": 51, "note_on_time": 22.101, "note_off_time": 22.52}, {"pitch": 77, "velocity": 72, "note_on_time": 22.339, "note_off_time": 22.61}, {"pitch": 79, "velocity": 69, "note_on_time": 22.534, "note_off_time": 23.436}, {"pitch": 72, "velocity": 73, "note_on_time": 23.453, "note_off_time": 23.776}, {"pitch": 77, "velocity": 55, "note_on_time": 28.027, "note_off_time": 28.245}, {"pitch": 76, "velocity": 72, "note_on_time": 28.128, "note_off_time": 28.505}, {"pitch": 74, "velocity": 70, "note_on_time": 28.43, "note_off_time": 28.803}, {"pitch": 72, "velocity": 74, "note_on_time": 28.791, "note_off_time": 29.207}, {"pitch": 77, "velocity": 46, "note_on_time": 29.81, "note_off_time": 30.004}, {"pitch": 76, "velocity": 58, "note_on_time": 29.922, "note_off_time": 30.229}, {"pitch": 79, "velocity": 73, "note_on_time": 29.134, "note_off_time": 30.269}, {"pitch": 74, "velocity": 67, "note_on_time": 30.175, "note_off_time": 30.466}, {"pitch": 72, "velocity": 72, "note_on_time": 30.466, "note_off_time": 31.012}, {"pitch": 77, "velocity": 60, "note_on_time": 31.658, "note_off_time": 31.921}, {"pitch": 76, "velocity": 63, "note_on_time": 31.845, "note_off_time": 32.197}, {"pitch": 79, "velocity": 70, "note_on_time": 30.962, "note_off_time": 32.232}, {"pitch": 74, "velocity": 65, "note_on_time": 32.101, "note_off_time": 32.444}, {"pitch": 72, "velocity": 67, "note_on_time": 32.397, "note_off_time": 33.018}, {"pitch": 77, "velocity": 48, "note_on_time": 33.469, "note_off_time": 33.726}, {"pitch": 79, "velocity": 76, "note_on_time": 32.928, "note_off_time": 33.804}, {"pitch": 76, "velocity": 46, "note_on_time": 33.625, "note_off_time": 33.962}, {"pitch": 74, "velocity": 72, "note_on_time": 33.897, "note_off_time": 34.338}, {"pitch": 72, "velocity": 60, "note_on_time": 34.262, "note_off_time": 34.796}, {"pitch": 79, "velocity": 71, "note_on_time": 34.765, "note_off_time": 36.187}, {"pitch": 76, "velocity": 52, "note_on_time": 36.678, "note_off_time": 37.21}, {"pitch": 77, "velocity": 51, "note_on_time": 36.888, "note_off_time": 37.367}, {"pitch": 74, "velocity": 41, "note_on_time": 37.847, "note_off_time": 38.075}, {"pitch": 79, "velocity": 56, "note_on_time": 37.113, "note_off_time": 38.292}, {"pitch": 72, "velocity": 54, "note_on_time": 38.032, "note_off_time": 38.438}, {"pitch": 76, "velocity": 59, "note_on_time": 39.018, "note_off_time": 39.376}, {"pitch": 77, "velocity": 64, "note_on_time": 39.215, "note_off_time": 39.456}, {"pitch": 74, "velocity": 50, "note_on_time": 39.927, "note_off_time": 40.144}, {"pitch": 79, "velocity": 63, "note_on_time": 39.38, "note_off_time": 40.343}, {"pitch": 72, "velocity": 59, "note_on_time": 40.104, "note_off_time": 40.399}, {"pitch": 76, "velocity": 57, "note_on_time": 41.318, "note_off_time": 41.634}, {"pitch": 77, "velocity": 66, "note_on_time": 41.465, "note_off_time": 41.744}, {"pitch": 74, "velocity": 51, "note_on_time": 42.204, "note_off_time": 42.428}, {"pitch": 79, "velocity": 71, "note_on_time": 41.617, "note_off_time": 42.499}, {"pitch": 72, "velocity": 64, "note_on_time": 42.364, "note_off_time": 42.64}, {"pitch": 76, "velocity": 50, "note_on_time": 43.314, "note_off_time": 43.628}, {"pitch": 77, "velocity": 71, "note_on_time": 43.458, "note_off_time": 43.863}, {"pitch": 79, "velocity": 73, "note_on_time": 43.709, "note_off_time": 44.429}, {"pitch": 74, "velocity": 55, "note_on_time": 44.229, "note_off_time": 44.448}, {"pitch": 72, "velocity": 59, "note_on_time": 44.391, "note_off_time": 44.638}, {"pitch": 76, "velocity": 60, "note_on_time": 45.214, "note_off_time": 45.538}, {"pitch": 77, "velocity": 58, "note_on_time": 45.361, "note_off_time": 45.647}, {"pitch": 74, "velocity": 47, "note_on_time": 46.045, "note_off_time": 46.255}, {"pitch": 79, "velocity": 56, "note_on_time": 45.548, "note_off_time": 46.28}, {"pitch": 72, "velocity": 52, "note_on_time": 46.19, "note_off_time": 46.539}, {"pitch": 76, "velocity": 49, "note_on_time": 47.738, "note_off_time": 47.963}, {"pitch": 74, "velocity": 57, "note_on_time": 47.888, "note_off_time": 48.186}, {"pitch": 77, "velocity": 55, "note_on_time": 49.688, "note_off_time": 49.825}, {"pitch": 72, "velocity": 57, "note_on_time": 48.094, "note_off_time": 49.984}, {"pitch": 79, "velocity": 52, "note_on_time": 49.791, "note_off_time": 50.052}, {"pitch": 76, "velocity": 53, "note_on_time": 50.998, "note_off_time": 51.211}, {"pitch": 74, "velocity": 57, "note_on_time": 51.166, "note_off_time": 51.426}, {"pitch": 72, "velocity": 63, "note_on_time": 51.386, "note_off_time": 52.217}, {"pitch": 77, "velocity": 21, "note_on_time": 52.142, "note_off_time": 52.468}, {"pitch": 77, "velocity": 63, "note_on_time": 52.615, "note_off_time": 52.91}, {"pitch": 79, "velocity": 61, "note_on_time": 52.829, "note_off_time": 53.204}, {"pitch": 76, "velocity": 40, "note_on_time": 53.66, "note_off_time": 53.896}, {"pitch": 74, "velocity": 62, "note_on_time": 53.802, "note_off_time": 54.135}, {"pitch": 72, "velocity": 72, "note_on_time": 54.06, "note_off_time": 54.769}, {"pitch": 77, "velocity": 59, "note_on_time": 54.661, "note_off_time": 54.922}, {"pitch": 79, "velocity": 71, "note_on_time": 54.824, "note_off_time": 55.649}, {"pitch": 76, "velocity": 58, "note_on_time": 55.545, "note_off_time": 55.701}, {"pitch": 74, "velocity": 66, "note_on_time": 55.662, "note_off_time": 55.898}, {"pitch": 72, "velocity": 72, "note_on_time": 55.866, "note_off_time": 56.444}, {"pitch": 77, "velocity": 49, "note_on_time": 56.31, "note_off_time": 56.519}, {"pitch": 79, "velocity": 61, "note_on_time": 56.458, "note_off_time": 56.864}, {"pitch": 77, "velocity": 48, "note_on_time": 60.702, "note_off_time": 60.989}, {"pitch": 76, "velocity": 41, "note_on_time": 61.501, "note_off_time": 61.738}, {"pitch": 79, "velocity": 62, "note_on_time": 60.854, "note_off_time": 61.896}, {"pitch": 74, "velocity": 70, "note_on_time": 61.716, "note_off_time": 61.995}, {"pitch": 72, "velocity": 60, "note_on_time": 61.97, "note_off_time": 62.691}, {"pitch": 77, "velocity": 55, "note_on_time": 62.639, "note_off_time": 62.919}, {"pitch": 76, "velocity": 43, "note_on_time": 63.447, "note_off_time": 63.746}, {"pitch": 74, "velocity": 50, "note_on_time": 63.567, "note_off_time": 63.801}, {"pitch": 79, "velocity": 70, "note_on_time": 62.842, "note_off_time": 63.998}, {"pitch": 72, "velocity": 63, "note_on_time": 63.76, "note_off_time": 64.452}, {"pitch": 77, "velocity": 37, "note_on_time": 64.497, "note_off_time": 64.741}, {"pitch": 77, "velocity": 53, "note_on_time": 65.941, "note_off_time": 66.252}, {"pitch": 77, "velocity": 57, "note_on_time": 66.617, "note_off_time": 66.849}, {"pitch": 79, "velocity": 61, "note_on_time": 66.18, "note_off_time": 66.851}, {"pitch": 76, "velocity": 53, "note_on_time": 66.773, "note_off_time": 67.07}, {"pitch": 74, "velocity": 66, "note_on_time": 67.012, "note_off_time": 67.838}, {"pitch": 72, "velocity": 72, "note_on_time": 68.22, "note_off_time": 68.435}, {"pitch": 74, "velocity": 65, "note_on_time": 72.902, "note_off_time": 73.226}, {"pitch": 76, "velocity": 54, "note_on_time": 73.382, "note_off_time": 73.667}, {"pitch": 72, "velocity": 65, "note_on_time": 73.121, "note_off_time": 73.736}, {"pitch": 77, "velocity": 59, "note_on_time": 73.587, "note_off_time": 73.833}, {"pitch": 76, "velocity": 23, "note_on_time": 74.321, "note_off_time": 74.477}, {"pitch": 74, "velocity": 61, "note_on_time": 74.804, "note_off_time": 75.182}, {"pitch": 79, "velocity": 42, "note_on_time": 73.799, "note_off_time": 75.255}, {"pitch": 72, "velocity": 67, "note_on_time": 74.999, "note_off_time": 75.497}, {"pitch": 76, "velocity": 63, "note_on_time": 75.488, "note_off_time": 75.875}, {"pitch": 77, "velocity": 59, "note_on_time": 75.717, "note_off_time": 76.006}, {"pitch": 74, "velocity": 28, "note_on_time": 76.454, "note_off_time": 76.753}, {"pitch": 79, "velocity": 73, "note_on_time": 75.9, "note_off_time": 76.832}, {"pitch": 72, "velocity": 77, "note_on_time": 76.717, "note_off_time": 77.13}, {"pitch": 76, "velocity": 63, "note_on_time": 77.119, "note_off_time": 77.528}, {"pitch": 77, "velocity": 49, "note_on_time": 77.348, "note_off_time": 77.6}, {"pitch": 74, "velocity": 52, "note_on_time": 77.934, "note_off_time": 78.181}, {"pitch": 72, "velocity": 64, "note_on_time": 78.131, "note_off_time": 78.371}, {"pitch": 79, "velocity": 68, "note_on_time": 77.542, "note_off_time": 78.758}, {"pitch": 76, "velocity": 63, "note_on_time": 78.588, "note_off_time": 78.991}, {"pitch": 77, "velocity": 44, "note_on_time": 78.809, "note_off_time": 79.095}, {"pitch": 79, "velocity": 73, "note_on_time": 79.014, "note_off_time": 79.476}, {"pitch": 72, "velocity": 17, "note_on_time": 81.087, "note_off_time": 81.195}, {"pitch": 72, "velocity": 53, "note_on_time": 85.079, "note_off_time": 85.433}, {"pitch": 74, "velocity": 59, "note_on_time": 85.284, "note_off_time": 85.498}, {"pitch": 76, "velocity": 53, "note_on_time": 85.402, "note_off_time": 85.841}, {"pitch": 77, "velocity": 53, "note_on_time": 85.722, "note_off_time": 86.047}, {"pitch": 79, "velocity": 56, "note_on_time": 85.811, "note_off_time": 86.189}, {"pitch": 72, "velocity": 49, "note_on_time": 86.23, "note_off_time": 86.532}, {"pitch": 74, "velocity": 56, "note_on_time": 86.375, "note_off_time": 86.697}, {"pitch": 76, "velocity": 53, "note_on_time": 86.505, "note_off_time": 87.124}, {"pitch": 77, "velocity": 54, "note_on_time": 87.109, "note_off_time": 87.493}, {"pitch": 79, "velocity": 56, "note_on_time": 87.454, "note_off_time": 87.875}, {"pitch": 72, "velocity": 46, "note_on_time": 87.918, "note_off_time": 88.319}, {"pitch": 74, "velocity": 51, "note_on_time": 88.22, "note_off_time": 88.58}, {"pitch": 76, "velocity": 55, "note_on_time": 88.527, "note_off_time": 88.968}, {"pitch": 77, "velocity": 68, "note_on_time": 88.83, "note_off_time": 89.179}, {"pitch": 79, "velocity": 72, "note_on_time": 89.134, "note_off_time": 89.784}, {"pitch": 77, "velocity": 51, "note_on_time": 92.702, "note_off_time": 92.982}, {"pitch": 79, "velocity": 59, "note_on_time": 92.388, "note_off_time": 92.985}, {"pitch": 76, "velocity": 69, "note_on_time": 92.932, "note_off_time": 93.328}, {"pitch": 74, "velocity": 70, "note_on_time": 93.258, "note_off_time": 93.63}, {"pitch": 72, "velocity": 68, "note_on_time": 93.597, "note_off_time": 94.133}, {"pitch": 77, "velocity": 53, "note_on_time": 94.271, "note_off_time": 94.548}, {"pitch": 79, "velocity": 53, "note_on_time": 94.013, "note_off_time": 94.601}, {"pitch": 76, "velocity": 63, "note_on_time": 94.526, "note_off_time": 94.882}, {"pitch": 74, "velocity": 70, "note_on_time": 94.845, "note_off_time": 95.122}, {"pitch": 79, "velocity": 34, "note_on_time": 95.454, "note_off_time": 95.967}, {"pitch": 72, "velocity": 64, "note_on_time": 95.124, "note_off_time": 96.082}, {"pitch": 77, "velocity": 56, "note_on_time": 95.912, "note_off_time": 96.186}, {"pitch": 76, "velocity": 66, "note_on_time": 96.132, "note_off_time": 96.506}, {"pitch": 74, "velocity": 64, "note_on_time": 96.43, "note_off_time": 96.763}, {"pitch": 72, "velocity": 63, "note_on_time": 96.747, "note_off_time": 97.485}, {"pitch": 74, "velocity": 50, "note_on_time": 99.69, "note_off_time": 99.932}, {"pitch": 76, "velocity": 45, "note_on_time": 99.859, "note_off_time": 100.323}, {"pitch": 77, "velocity": 66, "note_on_time": 100.122, "note_off_time": 100.419}, {"pitch": 79, "velocity": 68, "note_on_time": 100.322, "note_off_time": 100.827}, {"pitch": 72, "velocity": 61, "note_on_time": 100.674, "note_off_time": 101.027}, {"pitch": 74, "velocity": 68, "note_on_time": 101.012, "note_off_time": 101.242}, {"pitch": 76, "velocity": 55, "note_on_time": 101.192, "note_off_time": 101.584}, {"pitch": 77, "velocity": 62, "note_on_time": 101.415, "note_off_time": 101.748}, {"pitch": 79, "velocity": 71, "note_on_time": 101.679, "note_off_time": 102.433}, {"pitch": 72, "velocity": 52, "note_on_time": 102.364, "note_off_time": 102.945}, {"pitch": 74, "velocity": 56, "note_on_time": 102.803, "note_off_time": 103.003}, {"pitch": 76, "velocity": 53, "note_on_time": 102.957, "note_off_time": 103.458}, {"pitch": 77, "velocity": 60, "note_on_time": 103.239, "note_off_time": 103.541}, {"pitch": 79, "velocity": 65, "note_on_time": 103.435, "note_off_time": 103.843}, {"pitch": 72, "velocity": 69, "note_on_time": 103.838, "note_off_time": 104.195}, {"pitch": 74, "velocity": 55, "note_on_time": 104.137, "note_off_time": 104.298}, {"pitch": 79, "velocity": 30, "note_on_time": 104.549, "note_off_time": 104.614}, {"pitch": 76, "velocity": 62, "note_on_time": 104.274, "note_off_time": 104.85}, {"pitch": 77, "velocity": 47, "note_on_time": 104.767, "note_off_time": 105.148}, {"pitch": 79, "velocity": 60, "note_on_time": 105.034, "note_off_time": 105.707}, {"pitch": 72, "velocity": 65, "note_on_time": 105.513, "note_off_time": 107.476}, {"pitch": 77, "velocity": 60, "note_on_time": 110.638, "note_off_time": 110.864}, {"pitch": 76, "velocity": 66, "note_on_time": 110.794, "note_off_time": 111.132}, {"pitch": 74, "velocity": 66, "note_on_time": 111.059, "note_off_time": 111.349}, {"pitch": 72, "velocity": 68, "note_on_time": 111.326, "note_off_time": 111.743}, {"pitch": 79, "velocity": 68, "note_on_time": 111.607, "note_off_time": 112.237}, {"pitch": 77, "velocity": 51, "note_on_time": 112.175, "note_off_time": 112.379}, {"pitch": 76, "velocity": 72, "note_on_time": 112.341, "note_off_time": 112.687}, {"pitch": 74, "velocity": 66, "note_on_time": 112.646, "note_off_time": 112.904}, {"pitch": 72, "velocity": 62, "note_on_time": 112.876, "note_off_time": 113.724}, {"pitch": 79, "velocity": 68, "note_on_time": 113.222, "note_off_time": 113.833}, {"pitch": 77, "velocity": 63, "note_on_time": 113.76, "note_off_time": 114.013}, {"pitch": 76, "velocity": 60, "note_on_time": 113.984, "note_off_time": 114.276}, {"pitch": 74, "velocity": 64, "note_on_time": 114.224, "note_off_time": 114.554}, {"pitch": 72, "velocity": 65, "note_on_time": 114.501, "note_off_time": 114.962}, {"pitch": 77, "velocity": 46, "note_on_time": 115.363, "note_off_time": 115.556}, {"pitch": 79, "velocity": 79, "note_on_time": 114.882, "note_off_time": 115.618}, {"pitch": 76, "velocity": 69, "note_on_time": 115.515, "note_off_time": 115.859}, {"pitch": 74, "velocity": 56, "note_on_time": 115.801, "note_off_time": 116.095}, {"pitch": 72, "velocity": 60, "note_on_time": 116.058, "note_off_time": 116.561}, {"pitch": 79, "velocity": 61, "note_on_time": 116.428, "note_off_time": 116.87}, {"pitch": 76, "velocity": 23, "note_on_time": 119.176, "note_off_time": 119.504}, {"pitch": 77, "velocity": 66, "note_on_time": 119.383, "note_off_time": 119.696}, {"pitch": 74, "velocity": 53, "note_on_time": 120.497, "note_off_time": 120.71}, {"pitch": 79, "velocity": 69, "note_on_time": 119.621, "note_off_time": 120.797}, {"pitch": 72, "velocity": 65, "note_on_time": 120.687, "note_off_time": 121.53}, {"pitch": 76, "velocity": 33, "note_on_time": 121.529, "note_off_time": 121.979}, {"pitch": 77, "velocity": 67, "note_on_time": 121.82, "note_off_time": 122.127}, {"pitch": 74, "velocity": 24, "note_on_time": 122.667, "note_off_time": 122.938}, {"pitch": 79, "velocity": 67, "note_on_time": 122.069, "note_off_time": 123.017}, {"pitch": 72, "velocity": 68, "note_on_time": 122.884, "note_off_time": 123.191}, {"pitch": 76, "velocity": 49, "note_on_time": 123.569, "note_off_time": 123.988}, {"pitch": 77, "velocity": 41, "note_on_time": 123.801, "note_off_time": 124.108}, {"pitch": 74, "velocity": 55, "note_on_time": 124.531, "note_off_time": 124.735}, {"pitch": 79, "velocity": 80, "note_on_time": 124.027, "note_off_time": 124.822}, {"pitch": 72, "velocity": 55, "note_on_time": 124.688, "note_off_time": 125.589}, {"pitch": 76, "velocity": 59, "note_on_time": 125.602, "note_off_time": 125.997}, {"pitch": 77, "velocity": 70, "note_on_time": 125.878, "note_off_time": 126.245}, {"pitch": 74, "velocity": 63, "note_on_time": 126.912, "note_off_time": 127.188}, {"pitch": 79, "velocity": 64, "note_on_time": 126.126, "note_off_time": 127.294}, {"pitch": 72, "velocity": 59, "note_on_time": 127.156, "note_off_time": 127.575}, {"pitch": 76, "velocity": 57, "note_on_time": 129.011, "note_off_time": 129.288}, {"pitch": 74, "velocity": 64, "note_on_time": 129.185, "note_off_time": 129.527}, {"pitch": 77, "velocity": 64, "note_on_time": 130.38, "note_off_time": 130.588}, {"pitch": 72, "velocity": 65, "note_on_time": 129.425, "note_off_time": 131.104}, {"pitch": 79, "velocity": 42, "note_on_time": 130.623, "note_off_time": 131.205}, {"pitch": 76, "velocity": 42, "note_on_time": 131.351, "note_off_time": 131.715}, {"pitch": 74, "velocity": 62, "note_on_time": 131.611, "note_off_time": 131.973}, {"pitch": 77, "velocity": 55, "note_on_time": 132.367, "note_off_time": 132.63}, {"pitch": 72, "velocity": 47, "note_on_time": 131.889, "note_off_time": 132.872}, {"pitch": 76, "velocity": 35, "note_on_time": 133.348, "note_off_time": 133.642}, {"pitch": 74, "velocity": 64, "note_on_time": 133.555, "note_off_time": 133.892}, {"pitch": 72, "velocity": 57, "note_on_time": 133.813, "note_off_time": 134.376}, {"pitch": 79, "velocity": 67, "note_on_time": 132.565, "note_off_time": 134.433}, {"pitch": 77, "velocity": 39, "note_on_time": 134.315, "note_off_time": 134.685}, {"pitch": 79, "velocity": 32, "note_on_time": 134.55, "note_off_time": 135.075}, {"pitch": 76, "velocity": 61, "note_on_time": 136.423, "note_off_time": 136.731}, {"pitch": 74, "velocity": 64, "note_on_time": 136.638, "note_off_time": 136.881}, {"pitch": 72, "velocity": 67, "note_on_time": 136.843, "note_off_time": 137.251}, {"pitch": 77, "velocity": 56, "note_on_time": 137.127, "note_off_time": 137.417}, {"pitch": 79, "velocity": 59, "note_on_time": 137.3, "note_off_time": 137.753}, {"pitch": 77, "velocity": 69, "note_on_time": 142.064, "note_off_time": 142.343}, {"pitch": 79, "velocity": 52, "note_on_time": 142.316, "note_off_time": 142.596}, {"pitch": 77, "velocity": 20, "note_on_time": 142.482, "note_off_time": 142.613}, {"pitch": 76, "velocity": 47, "note_on_time": 143.044, "note_off_time": 143.279}, {"pitch": 74, "velocity": 59, "note_on_time": 143.223, "note_off_time": 143.51}, {"pitch": 72, "velocity": 63, "note_on_time": 143.475, "note_off_time": 144.281}, {"pitch": 77, "velocity": 53, "note_on_time": 144.516, "note_off_time": 144.705}, {"pitch": 76, "velocity": 38, "note_on_time": 145.259, "note_off_time": 145.5}, {"pitch": 74, "velocity": 56, "note_on_time": 145.466, "note_off_time": 145.721}, {"pitch": 79, "velocity": 58, "note_on_time": 144.627, "note_off_time": 145.781}, {"pitch": 72, "velocity": 61, "note_on_time": 145.714, "note_off_time": 146.273}, {"pitch": 77, "velocity": 58, "note_on_time": 146.51, "note_off_time": 146.792}, {"pitch": 76, "velocity": 37, "note_on_time": 147.262, "note_off_time": 147.485}, {"pitch": 79, "velocity": 62, "note_on_time": 146.708, "note_off_time": 147.616}, {"pitch": 74, "velocity": 64, "note_on_time": 147.442, "note_off_time": 147.707}, {"pitch": 72, "velocity": 65, "note_on_time": 147.683, "note_off_time": 148.355}, {"pitch": 77, "velocity": 57, "note_on_time": 148.432, "note_off_time": 148.731}, {"pitch": 76, "velocity": 41, "note_on_time": 149.108, "note_off_time": 149.365}, {"pitch": 74, "velocity": 58, "note_on_time": 149.32, "note_off_time": 149.568}, {"pitch": 79, "velocity": 55, "note_on_time": 148.625, "note_off_time": 149.622}, {"pitch": 72, "velocity": 55, "note_on_time": 149.556, "note_off_time": 149.787}, {"pitch": 74, "velocity": 46, "note_on_time": 153.121, "note_off_time": 153.463}, {"pitch": 72, "velocity": 53, "note_on_time": 153.325, "note_off_time": 153.683}, {"pitch": 76, "velocity": 58, "note_on_time": 153.536, "note_off_time": 153.906}, {"pitch": 77, "velocity": 60, "note_on_time": 153.765, "note_off_time": 154.059}, {"pitch": 79, "velocity": 32, "note_on_time": 153.956, "note_off_time": 154.584}, {"pitch": 74, "velocity": 56, "note_on_time": 154.527, "note_off_time": 154.773}, {"pitch": 72, "velocity": 61, "note_on_time": 154.739, "note_off_time": 155.011}, {"pitch": 76, "velocity": 51, "note_on_time": 154.912, "note_off_time": 155.336}, {"pitch": 77, "velocity": 64, "note_on_time": 155.13, "note_off_time": 155.45}, {"pitch": 79, "velocity": 70, "note_on_time": 155.316, "note_off_time": 155.754}, {"pitch": 74, "velocity": 49, "note_on_time": 155.745, "note_off_time": 155.945}, {"pitch": 72, "velocity": 65, "note_on_time": 155.878, "note_off_time": 156.191}, {"pitch": 76, "velocity": 58, "note_on_time": 156.094, "note_off_time": 156.495}, {"pitch": 77, "velocity": 58, "note_on_time": 156.305, "note_off_time": 156.683}, {"pitch": 79, "velocity": 66, "note_on_time": 156.521, "note_off_time": 156.858}, {"pitch": 74, "velocity": 22, "note_on_time": 157.048, "note_off_time": 157.317}, {"pitch": 72, "velocity": 60, "note_on_time": 157.267, "note_off_time": 157.55}, {"pitch": 76, "velocity": 58, "note_on_time": 157.472, "note_off_time": 157.877}, {"pitch": 77, "velocity": 60, "note_on_time": 157.692, "note_off_time": 158.057}, {"pitch": 79, "velocity": 64, "note_on_time": 157.908, "note_off_time": 158.286}, {"pitch": 74, "velocity": 42, "note_on_time": 158.353, "note_off_time": 158.633}, {"pitch": 72, "velocity": 66, "note_on_time": 158.58, "note_off_time": 158.917}, {"pitch": 76, "velocity": 56, "note_on_time": 158.863, "note_off_time": 159.269}, {"pitch": 77, "velocity": 58, "note_on_time": 159.063, "note_off_time": 159.546}, {"pitch": 79, "velocity": 48, "note_on_time": 159.304, "note_off_time": 159.652}, {"pitch": 72, "velocity": 46, "note_on_time": 160.973, "note_off_time": 161.168}, {"pitch": 74, "velocity": 55, "note_on_time": 161.046, "note_off_time": 161.316}, {"pitch": 76, "velocity": 51, "note_on_time": 161.238, "note_off_time": 161.61}, {"pitch": 77, "velocity": 57, "note_on_time": 161.456, "note_off_time": 161.72}, {"pitch": 79, "velocity": 50, "note_on_time": 161.509, "note_off_time": 161.996}, {"pitch": 77, "velocity": 1, "note_on_time": 162.725, "note_off_time": 163.095}, {"pitch": 79, "velocity": 63, "note_on_time": 162.277, "note_off_time": 163.599}, {"pitch": 77, "velocity": 44, "note_on_time": 163.306, "note_off_time": 163.646}, {"pitch": 76, "velocity": 60, "note_on_time": 163.518, "note_off_time": 163.838}, {"pitch": 74, "velocity": 62, "note_on_time": 163.802, "note_off_time": 164.098}, {"pitch": 72, "velocity": 29, "note_on_time": 164.14, "note_off_time": 164.255}, {"pitch": 72, "velocity": 62, "note_on_time": 166.455, "note_off_time": 166.641}, {"pitch": 74, "velocity": 58, "note_on_time": 166.586, "note_off_time": 166.767}, {"pitch": 76, "velocity": 57, "note_on_time": 166.697, "note_off_time": 166.962}, {"pitch": 79, "velocity": 66, "note_on_time": 166.95, "note_off_time": 167.175}, {"pitch": 77, "velocity": 58, "note_on_time": 166.931, "note_off_time": 167.261}, {"pitch": 72, "velocity": 52, "note_on_time": 167.701, "note_off_time": 167.961}, {"pitch": 74, "velocity": 55, "note_on_time": 167.852, "note_off_time": 168.036}, {"pitch": 76, "velocity": 53, "note_on_time": 167.978, "note_off_time": 168.462}, {"pitch": 77, "velocity": 66, "note_on_time": 168.217, "note_off_time": 168.495}, {"pitch": 79, "velocity": 67, "note_on_time": 168.494, "note_off_time": 168.698}, {"pitch": 72, "velocity": 20, "note_on_time": 168.937, "note_off_time": 169.185}, {"pitch": 74, "velocity": 64, "note_on_time": 169.153, "note_off_time": 169.333}, {"pitch": 76, "velocity": 66, "note_on_time": 169.301, "note_off_time": 169.581}, {"pitch": 77, "velocity": 66, "note_on_time": 169.533, "note_off_time": 169.803}, {"pitch": 79, "velocity": 47, "note_on_time": 169.815, "note_off_time": 170.116}, {"pitch": 72, "velocity": 55, "note_on_time": 170.224, "note_off_time": 170.464}, {"pitch": 74, "velocity": 55, "note_on_time": 170.421, "note_off_time": 170.602}, {"pitch": 76, "velocity": 28, "note_on_time": 170.594, "note_off_time": 170.899}, {"pitch": 77, "velocity": 67, "note_on_time": 170.809, "note_off_time": 171.077}, {"pitch": 79, "velocity": 20, "note_on_time": 171.125, "note_off_time": 171.299}, {"pitch": 79, "velocity": 62, "note_on_time": 171.457, "note_off_time": 171.757}, {"pitch": 77, "velocity": 59, "note_on_time": 171.707, "note_off_time": 171.989}, {"pitch": 76, "velocity": 50, "note_on_time": 171.914, "note_off_time": 172.305}, {"pitch": 74, "velocity": 58, "note_on_time": 172.246, "note_off_time": 172.503}, {"pitch": 79, "velocity": 40, "note_on_time": 172.803, "note_off_time": 173.304}, {"pitch": 72, "velocity": 61, "note_on_time": 172.467, "note_off_time": 173.351}, {"pitch": 77, "velocity": 41, "note_on_time": 173.096, "note_off_time": 173.429}, {"pitch": 76, "velocity": 73, "note_on_time": 173.386, "note_off_time": 173.729}, {"pitch": 74, "velocity": 60, "note_on_time": 173.651, "note_off_time": 173.931}, {"pitch": 79, "velocity": 56, "note_on_time": 174.15, "note_off_time": 174.536}, {"pitch": 72, "velocity": 60, "note_on_time": 173.908, "note_off_time": 174.539}, {"pitch": 76, "velocity": 56, "note_on_time": 174.511, "note_off_time": 174.673}, {"pitch": 77, "velocity": 45, "note_on_time": 174.509, "note_off_time": 174.903}, {"pitch": 77, "velocity": 63, "note_on_time": 175.123, "note_off_time": 175.395}, {"pitch": 76, "velocity": 66, "note_on_time": 175.367, "note_off_time": 175.602}, {"pitch": 72, "velocity": 43, "note_on_time": 175.6, "note_off_time": 175.938}, {"pitch": 79, "velocity": 64, "note_on_time": 176.471, "note_off_time": 177.342}, {"pitch": 77, "velocity": 56, "note_on_time": 176.922, "note_off_time": 177.509}, {"pitch": 76, "velocity": 53, "note_on_time": 177.176, "note_off_time": 177.646}, {"pitch": 74, "velocity": 70, "note_on_time": 177.572, "note_off_time": 178.06}, {"pitch": 72, "velocity": 62, "note_on_time": 178.022, "note_off_time": 179.004}, {"pitch": 74, "velocity": 53, "note_on_time": 178.957, "note_off_time": 179.094}, {"pitch": 76, "velocity": 64, "note_on_time": 179.049, "note_off_time": 179.573}, {"pitch": 77, "velocity": 63, "note_on_time": 179.3, "note_off_time": 179.609}, {"pitch": 79, "velocity": 68, "note_on_time": 179.524, "note_off_time": 179.965}, {"pitch": 72, "velocity": 55, "note_on_time": 179.858, "note_off_time": 180.104}, {"pitch": 74, "velocity": 61, "note_on_time": 180.088, "note_off_time": 180.247}, {"pitch": 76, "velocity": 47, "note_on_time": 180.219, "note_off_time": 180.693}, {"pitch": 77, "velocity": 17, "note_on_time": 180.534, "note_off_time": 180.858}, {"pitch": 79, "velocity": 58, "note_on_time": 181.048, "note_off_time": 181.17}, {"pitch": 77, "velocity": 15, "note_on_time": 181.136, "note_off_time": 181.396}, {"pitch": 79, "velocity": 47, "note_on_time": 181.318, "note_off_time": 181.526}, {"pitch": 72, "velocity": 27, "note_on_time": 181.789, "note_off_time": 182.104}, {"pitch": 74, "velocity": 73, "note_on_time": 182.417, "note_off_time": 182.635}, {"pitch": 76, "velocity": 50, "note_on_time": 182.601, "note_off_time": 182.985}, {"pitch": 77, "velocity": 66, "note_on_time": 182.849, "note_off_time": 183.24}, {"pitch": 79, "velocity": 68, "note_on_time": 183.073, "note_off_time": 183.553}, {"pitch": 72, "velocity": 67, "note_on_time": 183.532, "note_off_time": 184.004}, {"pitch": 74, "velocity": 53, "note_on_time": 184.008, "note_off_time": 184.264}, {"pitch": 76, "velocity": 64, "note_on_time": 184.251, "note_off_time": 184.799}, {"pitch": 77, "velocity": 68, "note_on_time": 184.49, "note_off_time": 184.957}, {"pitch": 79, "velocity": 48, "note_on_time": 184.778, "note_off_time": 185.157}, {"pitch": 72, "velocity": 51, "note_on_time": 185.153, "note_off_time": 185.494}, {"pitch": 77, "velocity": 38, "note_on_time": 188.211, "note_off_time": 188.647}, {"pitch": 76, "velocity": 64, "note_on_time": 188.583, "note_off_time": 188.971}, {"pitch": 74, "velocity": 62, "note_on_time": 188.89, "note_off_time": 189.157}, {"pitch": 72, "velocity": 63, "note_on_time": 189.124, "note_off_time": 189.566}, {"pitch": 79, "velocity": 52, "note_on_time": 189.409, "note_off_time": 189.827}, {"pitch": 77, "velocity": 52, "note_on_time": 189.833, "note_off_time": 190.21}, {"pitch": 76, "velocity": 53, "note_on_time": 190.11, "note_off_time": 190.422}, {"pitch": 74, "velocity": 56, "note_on_time": 190.369, "note_off_time": 190.605}, {"pitch": 72, "velocity": 57, "note_on_time": 190.619, "note_off_time": 191.188}, {"pitch": 79, "velocity": 50, "note_on_time": 191.116, "note_off_time": 191.658}, {"pitch": 77, "velocity": 57, "note_on_time": 191.597, "note_off_time": 191.866}, {"pitch": 76, "velocity": 63, "note_on_time": 191.822, "note_off_time": 192.139}, {"pitch": 74, "velocity": 55, "note_on_time": 192.101, "note_off_time": 192.603}, {"pitch": 72, "velocity": 62, "note_on_time": 192.437, "note_off_time": 192.751}, {"pitch": 79, "velocity": 52, "note_on_time": 192.721, "note_off_time": 193.459}, {"pitch": 77, "velocity": 49, "note_on_time": 193.401, "note_off_time": 193.644}, {"pitch": 76, "velocity": 62, "note_on_time": 193.608, "note_off_time": 193.928}]</notes><guidance name="Guidance Mode">None</guidance><error name="Error value">99</error></trial><trial trial_no="3" timestamp="2023_06_19-11_43_24"><notes name="Played Notes">[{"pitch": 72, "velocity": 49, "note_on_time": 4.803, "note_off_time": 5.326}, {"pitch": 74, "velocity": 62, "note_on_time": 5.122, "note_off_time": 5.373}, {"pitch": 76, "velocity": 40, "note_on_time": 5.34, "note_off_time": 5.928}, {"pitch": 77, "velocity": 66, "note_on_time": 5.682, "note_off_time": 5.959}, {"pitch": 79, "velocity": 73, "note_on_time": 5.916, "note_off_time": 6.272}, {"pitch": 72, "velocity": 66, "note_on_time": 6.284, "note_off_time": 6.637}, {"pitch": 74, "velocity": 68, "note_on_time": 6.532, "note_off_time": 6.748}, {"pitch": 76, "velocity": 60, "note_on_time": 6.679, "note_off_time": 7.093}, {"pitch": 77, "velocity": 70, "note_on_time": 6.967, "note_off_time": 7.238}, {"pitch": 79, "velocity": 82, "note_on_time": 7.178, "note_off_time": 7.513}, {"pitch": 72, "velocity": 57, "note_on_time": 7.57, "note_off_time": 7.937}, {"pitch": 74, "velocity": 42, "note_on_time": 7.797, "note_off_time": 8.081}, {"pitch": 76, "velocity": 69, "note_on_time": 7.997, "note_off_time": 8.349}, {"pitch": 77, "velocity": 76, "note_on_time": 8.232, "note_off_time": 8.503}, {"pitch": 79, "velocity": 72, "note_on_time": 8.466, "note_off_time": 9.361}, {"pitch": 77, "velocity": 57, "note_on_time": 11.152, "note_off_time": 11.441}, {"pitch": 79, "velocity": 53, "note_on_time": 10.95, "note_off_time": 11.453}, {"pitch": 76, "velocity": 55, "note_on_time": 11.356, "note_off_time": 11.743}, {"pitch": 74, "velocity": 72, "note_on_time": 11.636, "note_off_time": 11.929}, {"pitch": 79, "velocity": 50, "note_on_time": 12.168, "note_off_time": 12.57}, {"pitch": 72, "velocity": 73, "note_on_time": 11.863, "note_off_time": 12.579}, {"pitch": 77, "velocity": 58, "note_on_time": 12.471, "note_off_time": 12.737}, {"pitch": 76, "velocity": 73, "note_on_time": 12.644, "note_off_time": 13.018}, {"pitch": 74, "velocity": 68, "note_on_time": 12.936, "note_off_time": 13.169}, {"pitch": 72, "velocity": 75, "note_on_time": 13.132, "note_off_time": 13.576}, {"pitch": 79, "velocity": 62, "note_on_time": 13.425, "note_off_time": 13.828}, {"pitch": 77, "velocity": 59, "note_on_time": 13.649, "note_off_time": 13.959}, {"pitch": 76, "velocity": 74, "note_on_time": 13.854, "note_off_time": 14.459}, {"pitch": 74, "velocity": 65, "note_on_time": 14.233, "note_off_time": 14.739}, {"pitch": 72, "velocity": 78, "note_on_time": 14.689, "note_off_time": 15.425}, {"pitch": 74, "velocity": 65, "note_on_time": 17.028, "note_off_time": 17.24}, {"pitch": 76, "velocity": 62, "note_on_time": 17.136, "note_off_time": 17.535}, {"pitch": 77, "velocity": 67, "note_on_time": 17.37, "note_off_time": 17.678}, {"pitch": 79, "velocity": 68, "note_on_time": 17.572, "note_off_time": 17.901}, {"pitch": 72, "velocity": 73, "note_on_time": 17.866, "note_off_time": 18.139}, {"pitch": 74, "velocity": 67, "note_on_time": 18.107, "note_off_time": 18.343}, {"pitch": 76, "velocity": 46, "note_on_time": 18.274, "note_off_time": 18.68}, {"pitch": 77, "velocity": 65, "note_on_time": 18.509, "note_off_time": 18.903}, {"pitch": 79, "velocity": 59, "note_on_time": 18.777, "note_off_time": 19.188}, {"pitch": 72, "velocity": 64, "note_on_time": 19.094, "note_off_time": 19.318}, {"pitch": 74, "velocity": 74, "note_on_time": 19.279, "note_off_time": 19.546}, {"pitch": 76, "velocity": 64, "note_on_time": 19.486, "note_off_time": 19.901}, {"pitch": 77, "velocity": 73, "note_on_time": 19.712, "note_off_time": 20.083}, {"pitch": 79, "velocity": 74, "note_on_time": 19.931, "note_off_time": 20.646}, {"pitch": 72, "velocity": 41, "note_on_time": 20.31, "note_off_time": 20.732}, {"pitch": 74, "velocity": 56, "note_on_time": 20.66, "note_off_time": 20.98}, {"pitch": 76, "velocity": 52, "note_on_time": 20.89, "note_off_time": 21.319}, {"pitch": 77, "velocity": 65, "note_on_time": 21.135, "note_off_time": 21.425}, {"pitch": 79, "velocity": 77, "note_on_time": 21.338, "note_off_time": 21.928}, {"pitch": 72, "velocity": 78, "note_on_time": 21.783, "note_off_time": 23.043}, {"pitch": 72, "velocity": 8, "note_on_time": 23.249, "note_off_time": 23.653}, {"pitch": 77, "velocity": 56, "note_on_time": 26.631, "note_off_time": 26.879}, {"pitch": 76, "velocity": 70, "note_on_time": 26.796, "note_off_time": 27.104}, {"pitch": 74, "velocity": 62, "note_on_time": 27.01, "note_off_time": 27.336}, {"pitch": 72, "velocity": 68, "note_on_time": 27.244, "note_off_time": 27.887}, {"pitch": 79, "velocity": 61, "note_on_time": 27.684, "note_off_time": 28.123}, {"pitch": 77, "velocity": 46, "note_on_time": 28.09, "note_off_time": 28.317}, {"pitch": 76, "velocity": 58, "note_on_time": 28.234, "note_off_time": 28.565}, {"pitch": 74, "velocity": 69, "note_on_time": 28.47, "note_off_time": 28.778}, {"pitch": 72, "velocity": 72, "note_on_time": 28.707, "note_off_time": 29.212}, {"pitch": 79, "velocity": 43, "note_on_time": 29.021, "note_off_time": 29.419}, {"pitch": 77, "velocity": 43, "note_on_time": 29.393, "note_off_time": 29.637}, {"pitch": 76, "velocity": 63, "note_on_time": 29.556, "note_off_time": 30.038}, {"pitch": 74, "velocity": 58, "note_on_time": 29.821, "note_off_time": 30.15}, {"pitch": 72, "velocity": 65, "note_on_time": 30.088, "note_off_time": 30.697}, {"pitch": 79, "velocity": 53, "note_on_time": 30.376, "note_off_time": 31.165}, {"pitch": 77, "velocity": 45, "note_on_time": 30.785, "note_off_time": 31.166}, {"pitch": 76, "velocity": 70, "note_on_time": 31.065, "note_off_time": 31.371}, {"pitch": 74, "velocity": 64, "note_on_time": 31.284, "note_off_time": 31.619}, {"pitch": 72, "velocity": 74, "note_on_time": 31.548, "note_off_time": 31.991}, {"pitch": 79, "velocity": 64, "note_on_time": 31.846, "note_off_time": 32.875}, {"pitch": 77, "velocity": 48, "note_on_time": 32.453, "note_off_time": 32.905}, {"pitch": 76, "velocity": 60, "note_on_time": 32.648, "note_off_time": 33.022}, {"pitch": 74, "velocity": 65, "note_on_time": 32.885, "note_off_time": 33.249}, {"pitch": 72, "velocity": 53, "note_on_time": 33.178, "note_off_time": 34.0}, {"pitch": 79, "velocity": 76, "note_on_time": 33.646, "note_off_time": 35.4}, {"pitch": 77, "velocity": 46, "note_on_time": 36.511, "note_off_time": 36.992}, {"pitch": 79, "velocity": 31, "note_on_time": 37.042, "note_off_time": 37.139}, {"pitch": 76, "velocity": 62, "note_on_time": 38.546, "note_off_time": 38.968}, {"pitch": 77, "velocity": 64, "note_on_time": 38.711, "note_off_time": 39.163}, {"pitch": 79, "velocity": 41, "note_on_time": 38.874, "note_off_time": 39.673}, {"pitch": 74, "velocity": 58, "note_on_time": 39.986, "note_off_time": 40.226}, {"pitch": 72, "velocity": 60, "note_on_time": 40.146, "note_off_time": 40.547}, {"pitch": 76, "velocity": 57, "note_on_time": 40.678, "note_off_time": 41.018}, {"pitch": 77, "velocity": 67, "note_on_time": 40.874, "note_off_time": 41.577}, {"pitch": 79, "velocity": 59, "note_on_time": 41.117, "note_off_time": 41.889}, {"pitch": 74, "velocity": 59, "note_on_time": 41.78, "note_off_time": 42.063}, {"pitch": 72, "velocity": 73, "note_on_time": 41.996, "note_off_time": 42.488}, {"pitch": 76, "velocity": 63, "note_on_time": 42.396, "note_off_time": 42.654}, {"pitch": 77, "velocity": 72, "note_on_time": 42.547, "note_off_time": 42.822}, {"pitch": 79, "velocity": 58, "note_on_time": 42.705, "note_off_time": 43.333}, {"pitch": 74, "velocity": 61, "note_on_time": 43.286, "note_off_time": 43.56}, {"pitch": 72, "velocity": 59, "note_on_time": 43.426, "note_off_time": 43.89}, {"pitch": 76, "velocity": 49, "note_on_time": 43.874, "note_off_time": 44.227}, {"pitch": 77, "velocity": 70, "note_on_time": 44.091, "note_off_time": 44.483}, {"pitch": 79, "velocity": 66, "note_on_time": 44.294, "note_off_time": 44.888}, {"pitch": 74, "velocity": 64, "note_on_time": 44.742, "note_off_time": 44.963}, {"pitch": 72, "velocity": 67, "note_on_time": 44.9, "note_off_time": 45.857}, {"pitch": 76, "velocity": 52, "note_on_time": 45.707, "note_off_time": 46.037}, {"pitch": 77, "velocity": 67, "note_on_time": 45.941, "note_off_time": 46.368}, {"pitch": 74, "velocity": 55, "note_on_time": 46.964, "note_off_time": 47.203}, {"pitch": 79, "velocity": 66, "note_on_time": 46.26, "note_off_time": 47.272}, {"pitch": 72, "velocity": 66, "note_on_time": 47.148, "note_off_time": 47.849}, {"pitch": 76, "velocity": 67, "note_on_time": 47.766, "note_off_time": 48.211}, {"pitch": 77, "velocity": 65, "note_on_time": 47.95, "note_off_time": 48.775}, {"pitch": 79, "velocity": 68, "note_on_time": 48.152, "note_off_time": 48.893}, {"pitch": 74, "velocity": 56, "note_on_time": 48.714, "note_off_time": 48.973}, {"pitch": 72, "velocity": 68, "note_on_time": 48.883, "note_off_time": 49.171}, {"pitch": 76, "velocity": 63, "note_on_time": 52.3, "note_off_time": 52.664}, {"pitch": 74, "velocity": 62, "note_on_time": 52.509, "note_off_time": 53.012}, {"pitch": 77, "velocity": 64, "note_on_time": 54.042, "note_off_time": 54.258}, {"pitch": 72, "velocity": 65, "note_on_time": 52.807, "note_off_time": 54.317}, {"pitch": 79, "velocity": 59, "note_on_time": 54.172, "note_off_time": 54.979}, {"pitch": 76, "velocity": 61, "note_on_time": 54.808, "note_off_time": 55.093}, {"pitch": 74, "velocity": 61, "note_on_time": 54.998, "note_off_time": 55.3}, {"pitch": 77, "velocity": 41, "note_on_time": 55.889, "note_off_time": 56.119}, {"pitch": 72, "velocity": 68, "note_on_time": 55.247, "note_off_time": 56.152}, {"pitch": 76, "velocity": 52, "note_on_time": 56.622, "note_off_time": 56.919}, {"pitch": 79, "velocity": 69, "note_on_time": 56.009, "note_off_time": 56.955}, {"pitch": 74, "velocity": 64, "note_on_time": 56.849, "note_off_time": 57.161}, {"pitch": 76, "velocity": 9, "note_on_time": 57.724, "note_off_time": 57.837}, {"pitch": 72, "velocity": 72, "note_on_time": 57.106, "note_off_time": 57.859}, {"pitch": 77, "velocity": 62, "note_on_time": 57.751, "note_off_time": 58.047}, {"pitch": 79, "velocity": 61, "note_on_time": 57.966, "note_off_time": 58.435}, {"pitch": 76, "velocity": 56, "note_on_time": 58.59, "note_off_time": 58.871}, {"pitch": 74, "velocity": 65, "note_on_time": 58.816, "note_off_time": 59.065}, {"pitch": 77, "velocity": 52, "note_on_time": 59.644, "note_off_time": 59.836}, {"pitch": 72, "velocity": 73, "note_on_time": 59.023, "note_off_time": 59.922}, {"pitch": 76, "velocity": 48, "note_on_time": 60.369, "note_off_time": 60.623}, {"pitch": 79, "velocity": 64, "note_on_time": 59.787, "note_off_time": 60.774}, {"pitch": 74, "velocity": 62, "note_on_time": 60.552, "note_off_time": 60.813}, {"pitch": 72, "velocity": 70, "note_on_time": 60.764, "note_off_time": 61.318}, {"pitch": 77, "velocity": 60, "note_on_time": 61.262, "note_off_time": 61.53}, {"pitch": 79, "velocity": 28, "note_on_time": 61.387, "note_off_time": 61.944}, {"pitch": 76, "velocity": 41, "note_on_time": 61.932, "note_off_time": 62.207}, {"pitch": 74, "velocity": 57, "note_on_time": 62.141, "note_off_time": 62.385}, {"pitch": 72, "velocity": 50, "note_on_time": 62.384, "note_off_time": 63.059}, {"pitch": 77, "velocity": 63, "note_on_time": 63.826, "note_off_time": 64.083}, {"pitch": 79, "velocity": 58, "note_on_time": 63.955, "note_off_time": 65.177}, {"pitch": 77, "velocity": 65, "note_on_time": 66.686, "note_off_time": 67.06}, {"pitch": 79, "velocity": 63, "note_on_time": 66.807, "note_off_time": 67.072}, {"pitch": 76, "velocity": 64, "note_on_time": 67.057, "note_off_time": 67.357}, {"pitch": 74, "velocity": 65, "note_on_time": 67.289, "note_off_time": 67.568}, {"pitch": 72, "velocity": 68, "note_on_time": 67.492, "note_off_time": 67.868}, {"pitch": 76, "velocity": 26, "note_on_time": 67.987, "note_off_time": 68.145}, {"pitch": 77, "velocity": 57, "note_on_time": 68.11, "note_off_time": 68.363}, {"pitch": 77, "velocity": 72, "note_on_time": 68.807, "note_off_time": 69.068}, {"pitch": 79, "velocity": 66, "note_on_time": 68.981, "note_off_time": 69.92}, {"pitch": 76, "velocity": 52, "note_on_time": 69.878, "note_off_time": 70.087}, {"pitch": 74, "velocity": 64, "note_on_time": 70.016, "note_off_time": 70.442}, {"pitch": 72, "velocity": 65, "note_on_time": 70.265, "note_off_time": 70.648}, {"pitch": 77, "velocity": 61, "note_on_time": 71.047, "note_off_time": 71.265}, {"pitch": 79, "velocity": 4, "note_on_time": 71.211, "note_off_time": 71.588}, {"pitch": 79, "velocity": 72, "note_on_time": 71.784, "note_off_time": 72.653}, {"pitch": 76, "velocity": 57, "note_on_time": 72.503, "note_off_time": 72.803}, {"pitch": 74, "velocity": 64, "note_on_time": 72.731, "note_off_time": 72.956}, {"pitch": 72, "velocity": 70, "note_on_time": 72.937, "note_off_time": 73.729}, {"pitch": 77, "velocity": 49, "note_on_time": 73.695, "note_off_time": 73.934}, {"pitch": 76, "velocity": 43, "note_on_time": 74.933, "note_off_time": 75.175}, {"pitch": 79, "velocity": 62, "note_on_time": 73.816, "note_off_time": 75.493}, {"pitch": 74, "velocity": 60, "note_on_time": 75.119, "note_off_time": 75.579}, {"pitch": 72, "velocity": 56, "note_on_time": 75.365, "note_off_time": 75.77}, {"pitch": 74, "velocity": 56, "note_on_time": 78.845, "note_off_time": 79.243}, {"pitch": 72, "velocity": 61, "note_on_time": 79.05, "note_off_time": 79.705}, {"pitch": 76, "velocity": 35, "note_on_time": 79.582, "note_off_time": 79.983}, {"pitch": 77, "velocity": 52, "note_on_time": 79.77, "note_off_time": 80.036}, {"pitch": 79, "velocity": 71, "note_on_time": 79.94, "note_off_time": 80.489}, {"pitch": 74, "velocity": 57, "note_on_time": 80.405, "note_off_time": 80.612}, {"pitch": 72, "velocity": 68, "note_on_time": 80.559, "note_off_time": 81.048}, {"pitch": 76, "velocity": 47, "note_on_time": 80.926, "note_off_time": 81.27}, {"pitch": 77, "velocity": 57, "note_on_time": 81.076, "note_off_time": 81.359}, {"pitch": 79, "velocity": 63, "note_on_time": 81.267, "note_off_time": 81.814}, {"pitch": 74, "velocity": 48, "note_on_time": 81.703, "note_off_time": 82.214}, {"pitch": 72, "velocity": 61, "note_on_time": 82.141, "note_off_time": 82.59}, {"pitch": 76, "velocity": 50, "note_on_time": 82.522, "note_off_time": 82.835}, {"pitch": 77, "velocity": 60, "note_on_time": 82.73, "note_off_time": 82.973}, {"pitch": 79, "velocity": 52, "note_on_time": 82.902, "note_off_time": 83.422}, {"pitch": 74, "velocity": 47, "note_on_time": 83.315, "note_off_time": 83.533}, {"pitch": 72, "velocity": 57, "note_on_time": 83.487, "note_off_time": 84.053}, {"pitch": 76, "velocity": 56, "note_on_time": 83.976, "note_off_time": 84.233}, {"pitch": 77, "velocity": 65, "note_on_time": 84.173, "note_off_time": 84.384}, {"pitch": 79, "velocity": 39, "note_on_time": 84.342, "note_off_time": 84.863}, {"pitch": 72, "velocity": 54, "note_on_time": 84.81, "note_off_time": 84.902}, {"pitch": 74, "velocity": 64, "note_on_time": 84.886, "note_off_time": 85.332}, {"pitch": 74, "velocity": 67, "note_on_time": 85.748, "note_off_time": 85.981}, {"pitch": 72, "velocity": 63, "note_on_time": 85.907, "note_off_time": 86.351}, {"pitch": 76, "velocity": 52, "note_on_time": 86.413, "note_off_time": 86.961}, {"pitch": 77, "velocity": 1, "note_on_time": 86.647, "note_off_time": 87.062}, {"pitch": 79, "velocity": 69, "note_on_time": 86.977, "note_off_time": 87.524}, {"pitch": 74, "velocity": 60, "note_on_time": 87.407, "note_off_time": 87.667}, {"pitch": 72, "velocity": 69, "note_on_time": 87.623, "note_off_time": 88.195}, {"pitch": 74, "velocity": 33, "note_on_time": 88.309, "note_off_time": 88.364}, {"pitch": 76, "velocity": 55, "note_on_time": 88.102, "note_off_time": 88.524}, {"pitch": 77, "velocity": 36, "note_on_time": 88.503, "note_off_time": 88.626}, {"pitch": 79, "velocity": 68, "note_on_time": 88.483, "note_off_time": 88.825}, {"pitch": 74, "velocity": 64, "note_on_time": 89.234, "note_off_time": 89.439}, {"pitch": 72, "velocity": 56, "note_on_time": 89.401, "note_off_time": 89.696}, {"pitch": 76, "velocity": 56, "note_on_time": 89.63, "note_off_time": 90.004}, {"pitch": 77, "velocity": 67, "note_on_time": 89.855, "note_off_time": 90.184}, {"pitch": 79, "velocity": 67, "note_on_time": 90.099, "note_off_time": 90.517}, {"pitch": 74, "velocity": 47, "note_on_time": 92.523, "note_off_time": 92.654}, {"pitch": 72, "velocity": 61, "note_on_time": 92.304, "note_off_time": 92.694}, {"pitch": 76, "velocity": 60, "note_on_time": 92.593, "note_off_time": 93.048}, {"pitch": 77, "velocity": 61, "note_on_time": 92.849, "note_off_time": 93.195}, {"pitch": 79, "velocity": 48, "note_on_time": 92.999, "note_off_time": 93.295}, {"pitch": 72, "velocity": 53, "note_on_time": 93.315, "note_off_time": 93.576}, {"pitch": 74, "velocity": 55, "note_on_time": 93.499, "note_off_time": 93.731}, {"pitch": 76, "velocity": 51, "note_on_time": 93.613, "note_off_time": 94.078}, {"pitch": 77, "velocity": 59, "note_on_time": 93.869, "note_off_time": 94.266}, {"pitch": 79, "velocity": 74, "note_on_time": 94.192, "note_off_time": 94.622}, {"pitch": 72, "velocity": 53, "note_on_time": 94.534, "note_off_time": 94.856}, {"pitch": 74, "velocity": 64, "note_on_time": 94.759, "note_off_time": 94.96}, {"pitch": 76, "velocity": 61, "note_on_time": 94.897, "note_off_time": 95.363}, {"pitch": 77, "velocity": 68, "note_on_time": 95.128, "note_off_time": 95.494}, {"pitch": 79, "velocity": 64, "note_on_time": 95.348, "note_off_time": 95.941}, {"pitch": 77, "velocity": 55, "note_on_time": 98.72, "note_off_time": 98.973}, {"pitch": 79, "velocity": 61, "note_on_time": 98.458, "note_off_time": 99.003}, {"pitch": 76, "velocity": 60, "note_on_time": 98.888, "note_off_time": 99.282}, {"pitch": 74, "velocity": 64, "note_on_time": 99.158, "note_off_time": 99.453}, {"pitch": 72, "velocity": 66, "note_on_time": 99.429, "note_off_time": 100.015}, {"pitch": 77, "velocity": 48, "note_on_time": 100.146, "note_off_time": 100.466}, {"pitch": 79, "velocity": 62, "note_on_time": 99.818, "note_off_time": 100.501}, {"pitch": 76, "velocity": 59, "note_on_time": 100.372, "note_off_time": 100.798}, {"pitch": 74, "velocity": 58, "note_on_time": 100.668, "note_off_time": 101.036}, {"pitch": 72, "velocity": 66, "note_on_time": 100.97, "note_off_time": 101.392}, {"pitch": 79, "velocity": 54, "note_on_time": 101.303, "note_off_time": 102.041}, {"pitch": 77, "velocity": 44, "note_on_time": 101.581, "note_off_time": 102.091}, {"pitch": 76, "velocity": 35, "note_on_time": 101.84, "note_off_time": 102.342}, {"pitch": 74, "velocity": 51, "note_on_time": 102.132, "note_off_time": 102.443}, {"pitch": 72, "velocity": 63, "note_on_time": 102.372, "note_off_time": 102.775}, {"pitch": 74, "velocity": 47, "note_on_time": 104.582, "note_off_time": 104.876}, {"pitch": 76, "velocity": 54, "note_on_time": 104.718, "note_off_time": 105.196}, {"pitch": 77, "velocity": 67, "note_on_time": 104.944, "note_off_time": 105.317}, {"pitch": 79, "velocity": 71, "note_on_time": 105.168, "note_off_time": 105.571}, {"pitch": 72, "velocity": 69, "note_on_time": 105.482, "note_off_time": 105.751}, {"pitch": 74, "velocity": 70, "note_on_time": 105.708, "note_off_time": 105.873}, {"pitch": 76, "velocity": 58, "note_on_time": 105.818, "note_off_time": 106.3}, {"pitch": 77, "velocity": 65, "note_on_time": 106.078, "note_off_time": 106.405}, {"pitch": 79, "velocity": 35, "note_on_time": 106.195, "note_off_time": 106.647}, {"pitch": 72, "velocity": 56, "note_on_time": 106.558, "note_off_time": 106.922}, {"pitch": 74, "velocity": 56, "note_on_time": 106.749, "note_off_time": 107.163}, {"pitch": 76, "velocity": 51, "note_on_time": 106.897, "note_off_time": 107.577}, {"pitch": 77, "velocity": 60, "note_on_time": 107.476, "note_off_time": 108.191}, {"pitch": 79, "velocity": 61, "note_on_time": 107.94, "note_off_time": 108.336}, {"pitch": 72, "velocity": 55, "note_on_time": 108.254, "note_off_time": 108.678}, {"pitch": 74, "velocity": 61, "note_on_time": 108.544, "note_off_time": 108.766}, {"pitch": 76, "velocity": 40, "note_on_time": 108.684, "note_off_time": 109.232}, {"pitch": 77, "velocity": 70, "note_on_time": 108.978, "note_off_time": 109.256}, {"pitch": 79, "velocity": 70, "note_on_time": 109.182, "note_off_time": 110.37}, {"pitch": 72, "velocity": 76, "note_on_time": 109.685, "note_off_time": 111.221}, {"pitch": 77, "velocity": 63, "note_on_time": 111.737, "note_off_time": 112.097}, {"pitch": 76, "velocity": 64, "note_on_time": 111.932, "note_off_time": 112.252}, {"pitch": 74, "velocity": 59, "note_on_time": 112.138, "note_off_time": 112.396}, {"pitch": 72, "velocity": 64, "note_on_time": 112.332, "note_off_time": 112.682}, {"pitch": 77, "velocity": 55, "note_on_time": 113.002, "note_off_time": 113.242}, {"pitch": 79, "velocity": 67, "note_on_time": 112.555, "note_off_time": 113.275}, {"pitch": 76, "velocity": 56, "note_on_time": 113.166, "note_off_time": 113.498}, {"pitch": 74, "velocity": 65, "note_on_time": 113.414, "note_off_time": 113.717}, {"pitch": 72, "velocity": 65, "note_on_time": 113.673, "note_off_time": 113.921}, {"pitch": 79, "velocity": 70, "note_on_time": 113.883, "note_off_time": 114.446}, {"pitch": 77, "velocity": 49, "note_on_time": 114.232, "note_off_time": 114.502}, {"pitch": 76, "velocity": 53, "note_on_time": 114.402, "note_off_time": 114.681}, {"pitch": 74, "velocity": 60, "note_on_time": 114.628, "note_off_time": 114.851}, {"pitch": 72, "velocity": 73, "note_on_time": 114.807, "note_off_time": 115.125}, {"pitch": 77, "velocity": 47, "note_on_time": 115.062, "note_off_time": 115.21}, {"pitch": 79, "velocity": 66, "note_on_time": 115.126, "note_off_time": 115.792}, {"pitch": 77, "velocity": 59, "note_on_time": 115.686, "note_off_time": 115.95}, {"pitch": 76, "velocity": 46, "note_on_time": 115.874, "note_off_time": 116.176}, {"pitch": 74, "velocity": 61, "note_on_time": 116.089, "note_off_time": 116.315}, {"pitch": 72, "velocity": 78, "note_on_time": 116.278, "note_off_time": 116.601}, {"pitch": 79, "velocity": 69, "note_on_time": 116.493, "note_off_time": 117.154}, {"pitch": 77, "velocity": 62, "note_on_time": 116.957, "note_off_time": 117.293}, {"pitch": 76, "velocity": 10, "note_on_time": 117.185, "note_off_time": 117.574}, {"pitch": 74, "velocity": 63, "note_on_time": 117.515, "note_off_time": 117.801}, {"pitch": 72, "velocity": 68, "note_on_time": 117.767, "note_off_time": 118.106}, {"pitch": 81, "velocity": 60, "note_on_time": 118.022, "note_off_time": 118.147}, {"pitch": 79, "velocity": 48, "note_on_time": 118.012, "note_off_time": 118.407}, {"pitch": 76, "velocity": 64, "note_on_time": 121.615, "note_off_time": 122.006}, {"pitch": 77, "velocity": 24, "note_on_time": 121.749, "note_off_time": 122.133}, {"pitch": 74, "velocity": 59, "note_on_time": 122.632, "note_off_time": 122.9}, {"pitch": 72, "velocity": 65, "note_on_time": 122.853, "note_off_time": 123.24}, {"pitch": 79, "velocity": 74, "note_on_time": 121.986, "note_off_time": 123.251}, {"pitch": 76, "velocity": 55, "note_on_time": 123.574, "note_off_time": 123.892}, {"pitch": 77, "velocity": 54, "note_on_time": 123.791, "note_off_time": 124.208}, {"pitch": 74, "velocity": 54, "note_on_time": 124.74, "note_off_time": 124.911}, {"pitch": 79, "velocity": 77, "note_on_time": 124.175, "note_off_time": 125.039}, {"pitch": 72, "velocity": 72, "note_on_time": 124.887, "note_off_time": 125.7}, {"pitch": 76, "velocity": 62, "note_on_time": 126.197, "note_off_time": 126.763}, {"pitch": 77, "velocity": 61, "note_on_time": 126.397, "note_off_time": 127.059}, {"pitch": 72, "velocity": 54, "note_on_time": 127.301, "note_off_time": 127.407}, {"pitch": 79, "velocity": 59, "note_on_time": 126.589, "note_off_time": 127.555}, {"pitch": 74, "velocity": 26, "note_on_time": 127.199, "note_off_time": 127.759}, {"pitch": 76, "velocity": 52, "note_on_time": 128.231, "note_off_time": 128.757}, {"pitch": 77, "velocity": 66, "note_on_time": 128.467, "note_off_time": 128.821}, {"pitch": 74, "velocity": 55, "note_on_time": 129.1, "note_off_time": 129.347}, {"pitch": 79, "velocity": 52, "note_on_time": 128.621, "note_off_time": 129.65}, {"pitch": 72, "velocity": 58, "note_on_time": 129.296, "note_off_time": 129.868}, {"pitch": 76, "velocity": 53, "note_on_time": 129.848, "note_off_time": 130.301}, {"pitch": 77, "velocity": 55, "note_on_time": 130.081, "note_off_time": 130.378}, {"pitch": 74, "velocity": 54, "note_on_time": 130.818, "note_off_time": 131.176}, {"pitch": 79, "velocity": 74, "note_on_time": 130.321, "note_off_time": 131.336}, {"pitch": 72, "velocity": 57, "note_on_time": 131.074, "note_off_time": 131.646}, {"pitch": 74, "velocity": 52, "note_on_time": 131.913, "note_off_time": 132.792}, {"pitch": 72, "velocity": 61, "note_on_time": 132.172, "note_off_time": 133.042}, {"pitch": 76, "velocity": 53, "note_on_time": 132.923, "note_off_time": 133.456}, {"pitch": 77, "velocity": 56, "note_on_time": 133.123, "note_off_time": 133.623}, {"pitch": 79, "velocity": 69, "note_on_time": 133.329, "note_off_time": 133.752}, {"pitch": 74, "velocity": 54, "note_on_time": 133.64, "note_off_time": 133.925}, {"pitch": 72, "velocity": 64, "note_on_time": 133.856, "note_off_time": 134.348}, {"pitch": 76, "velocity": 67, "note_on_time": 134.268, "note_off_time": 134.63}, {"pitch": 77, "velocity": 65, "note_on_time": 134.49, "note_off_time": 134.814}, {"pitch": 79, "velocity": 77, "note_on_time": 134.772, "note_off_time": 135.273}, {"pitch": 74, "velocity": 52, "note_on_time": 135.155, "note_off_time": 135.439}, {"pitch": 72, "velocity": 54, "note_on_time": 135.377, "note_off_time": 135.814}, {"pitch": 76, "velocity": 64, "note_on_time": 137.24, "note_off_time": 137.494}, {"pitch": 74, "velocity": 63, "note_on_time": 137.417, "note_off_time": 137.728}, {"pitch": 72, "velocity": 64, "note_on_time": 137.636, "note_off_time": 138.14}, {"pitch": 77, "velocity": 27, "note_on_time": 137.983, "note_off_time": 138.396}, {"pitch": 76, "velocity": 70, "note_on_time": 139.151, "note_off_time": 139.427}, {"pitch": 74, "velocity": 61, "note_on_time": 139.331, "note_off_time": 139.682}, {"pitch": 72, "velocity": 62, "note_on_time": 139.567, "note_off_time": 140.54}, {"pitch": 76, "velocity": 72, "note_on_time": 140.863, "note_off_time": 141.17}, {"pitch": 74, "velocity": 59, "note_on_time": 141.066, "note_off_time": 141.467}, {"pitch": 77, "velocity": 62, "note_on_time": 141.685, "note_off_time": 142.068}, {"pitch": 72, "velocity": 58, "note_on_time": 141.261, "note_off_time": 142.288}, {"pitch": 79, "velocity": 71, "note_on_time": 142.008, "note_off_time": 142.55}, {"pitch": 76, "velocity": 49, "note_on_time": 142.497, "note_off_time": 142.791}, {"pitch": 74, "velocity": 62, "note_on_time": 142.732, "note_off_time": 143.029}, {"pitch": 77, "velocity": 66, "note_on_time": 143.471, "note_off_time": 143.808}, {"pitch": 72, "velocity": 65, "note_on_time": 142.986, "note_off_time": 143.923}, {"pitch": 79, "velocity": 67, "note_on_time": 143.705, "note_off_time": 144.182}, {"pitch": 76, "velocity": 31, "note_on_time": 144.104, "note_off_time": 144.477}, {"pitch": 74, "velocity": 50, "note_on_time": 144.389, "note_off_time": 144.662}, {"pitch": 72, "velocity": 54, "note_on_time": 144.582, "note_off_time": 145.106}, {"pitch": 77, "velocity": 61, "note_on_time": 144.957, "note_off_time": 145.335}, {"pitch": 76, "velocity": 43, "note_on_time": 145.886, "note_off_time": 146.212}, {"pitch": 79, "velocity": 41, "note_on_time": 145.251, "note_off_time": 146.308}, {"pitch": 74, "velocity": 53, "note_on_time": 146.098, "note_off_time": 146.388}, {"pitch": 72, "velocity": 64, "note_on_time": 146.343, "note_off_time": 147.398}, {"pitch": 77, "velocity": 66, "note_on_time": 147.181, "note_off_time": 147.554}, {"pitch": 81, "velocity": 48, "note_on_time": 147.422, "note_off_time": 147.579}, {"pitch": 79, "velocity": 47, "note_on_time": 147.414, "note_off_time": 147.827}, {"pitch": 77, "velocity": 65, "note_on_time": 150.719, "note_off_time": 151.199}, {"pitch": 76, "velocity": 53, "note_on_time": 151.413, "note_off_time": 151.766}, {"pitch": 74, "velocity": 72, "note_on_time": 151.647, "note_off_time": 151.944}, {"pitch": 79, "velocity": 66, "note_on_time": 151.016, "note_off_time": 152.049}, {"pitch": 72, "velocity": 60, "note_on_time": 151.878, "note_off_time": 152.675}, {"pitch": 77, "velocity": 64, "note_on_time": 152.582, "note_off_time": 152.857}, {"pitch": 76, "velocity": 51, "note_on_time": 153.303, "note_off_time": 153.664}, {"pitch": 79, "velocity": 73, "note_on_time": 152.796, "note_off_time": 153.731}, {"pitch": 74, "velocity": 63, "note_on_time": 153.527, "note_off_time": 153.798}, {"pitch": 72, "velocity": 65, "note_on_time": 153.742, "note_off_time": 154.332}, {"pitch": 76, "velocity": 57, "note_on_time": 154.384, "note_off_time": 154.516}, {"pitch": 77, "velocity": 14, "note_on_time": 154.401, "note_off_time": 154.704}, {"pitch": 77, "velocity": 63, "note_on_time": 154.92, "note_off_time": 155.524}, {"pitch": 79, "velocity": 44, "note_on_time": 155.016, "note_off_time": 155.544}, {"pitch": 76, "velocity": 54, "note_on_time": 155.523, "note_off_time": 155.856}, {"pitch": 74, "velocity": 58, "note_on_time": 155.743, "note_off_time": 155.983}, {"pitch": 72, "velocity": 64, "note_on_time": 155.918, "note_off_time": 156.403}, {"pitch": 79, "velocity": 70, "note_on_time": 156.629, "note_off_time": 157.059}, {"pitch": 77, "velocity": 59, "note_on_time": 156.348, "note_off_time": 157.082}, {"pitch": 76, "velocity": 58, "note_on_time": 157.007, "note_off_time": 157.34}, {"pitch": 74, "velocity": 57, "note_on_time": 157.253, "note_off_time": 157.554}, {"pitch": 72, "velocity": 74, "note_on_time": 157.503, "note_off_time": 157.802}, {"pitch": 74, "velocity": 52, "note_on_time": 160.266, "note_off_time": 160.621}, {"pitch": 72, "velocity": 55, "note_on_time": 160.471, "note_off_time": 161.049}, {"pitch": 76, "velocity": 23, "note_on_time": 160.818, "note_off_time": 161.339}, {"pitch": 77, "velocity": 72, "note_on_time": 161.066, "note_off_time": 161.464}, {"pitch": 79, "velocity": 71, "note_on_time": 161.283, "note_off_time": 161.763}, {"pitch": 74, "velocity": 51, "note_on_time": 161.671, "note_off_time": 161.914}, {"pitch": 72, "velocity": 66, "note_on_time": 161.861, "note_off_time": 162.274}, {"pitch": 76, "velocity": 51, "note_on_time": 162.161, "note_off_time": 162.626}, {"pitch": 77, "velocity": 63, "note_on_time": 162.402, "note_off_time": 162.725}, {"pitch": 79, "velocity": 69, "note_on_time": 162.587, "note_off_time": 163.123}, {"pitch": 74, "velocity": 38, "note_on_time": 163.031, "note_off_time": 163.328}, {"pitch": 72, "velocity": 69, "note_on_time": 163.263, "note_off_time": 163.691}, {"pitch": 76, "velocity": 55, "note_on_time": 163.53, "note_off_time": 164.146}, {"pitch": 77, "velocity": 69, "note_on_time": 163.842, "note_off_time": 164.456}, {"pitch": 79, "velocity": 63, "note_on_time": 164.106, "note_off_time": 164.595}, {"pitch": 74, "velocity": 65, "note_on_time": 164.521, "note_off_time": 164.787}, {"pitch": 72, "velocity": 68, "note_on_time": 164.733, "note_off_time": 165.271}, {"pitch": 76, "velocity": 60, "note_on_time": 165.124, "note_off_time": 165.554}, {"pitch": 77, "velocity": 73, "note_on_time": 165.38, "note_off_time": 165.905}, {"pitch": 79, "velocity": 57, "note_on_time": 165.611, "note_off_time": 166.633}, {"pitch": 74, "velocity": 59, "note_on_time": 168.649, "note_off_time": 169.014}, {"pitch": 72, "velocity": 57, "note_on_time": 168.871, "note_off_time": 169.37}, {"pitch": 76, "velocity": 52, "note_on_time": 169.103, "note_off_time": 169.606}, {"pitch": 77, "velocity": 70, "note_on_time": 169.322, "note_off_time": 169.799}, {"pitch": 79, "velocity": 74, "note_on_time": 169.566, "note_off_time": 170.022}, {"pitch": 72, "velocity": 62, "note_on_time": 170.386, "note_off_time": 170.75}, {"pitch": 74, "velocity": 47, "note_on_time": 170.575, "note_off_time": 170.943}, {"pitch": 76, "velocity": 1, "note_on_time": 170.835, "note_off_time": 171.184}, {"pitch": 77, "velocity": 61, "note_on_time": 171.108, "note_off_time": 171.392}, {"pitch": 72, "velocity": 50, "note_on_time": 171.81, "note_off_time": 172.167}, {"pitch": 74, "velocity": 67, "note_on_time": 172.01, "note_off_time": 172.231}, {"pitch": 76, "velocity": 62, "note_on_time": 172.17, "note_off_time": 172.513}, {"pitch": 77, "velocity": 66, "note_on_time": 172.389, "note_off_time": 172.763}, {"pitch": 79, "velocity": 67, "note_on_time": 172.491, "note_off_time": 172.788}, {"pitch": 72, "velocity": 61, "note_on_time": 172.937, "note_off_time": 173.332}, {"pitch": 74, "velocity": 64, "note_on_time": 173.139, "note_off_time": 173.53}, {"pitch": 76, "velocity": 40, "note_on_time": 173.261, "note_off_time": 173.975}, {"pitch": 74, "velocity": 62, "note_on_time": 175.115, "note_off_time": 175.39}, {"pitch": 72, "velocity": 68, "note_on_time": 174.871, "note_off_time": 175.793}, {"pitch": 76, "velocity": 65, "note_on_time": 175.317, "note_off_time": 175.997}, {"pitch": 77, "velocity": 64, "note_on_time": 175.645, "note_off_time": 176.066}, {"pitch": 79, "velocity": 75, "note_on_time": 175.929, "note_off_time": 176.292}, {"pitch": 74, "velocity": 68, "note_on_time": 176.564, "note_off_time": 176.835}, {"pitch": 72, "velocity": 49, "note_on_time": 176.302, "note_off_time": 176.943}, {"pitch": 76, "velocity": 58, "note_on_time": 176.764, "note_off_time": 177.307}, {"pitch": 77, "velocity": 74, "note_on_time": 177.066, "note_off_time": 177.417}, {"pitch": 79, "velocity": 68, "note_on_time": 177.319, "note_off_time": 177.861}, {"pitch": 72, "velocity": 44, "note_on_time": 177.7, "note_off_time": 178.158}, {"pitch": 74, "velocity": 64, "note_on_time": 178.006, "note_off_time": 178.276}, {"pitch": 76, "velocity": 55, "note_on_time": 178.202, "note_off_time": 179.223}, {"pitch": 77, "velocity": 52, "note_on_time": 178.566, "note_off_time": 179.391}, {"pitch": 79, "velocity": 56, "note_on_time": 178.838, "note_off_time": 179.678}, {"pitch": 79, "velocity": 50, "note_on_time": 181.034, "note_off_time": 181.824}, {"pitch": 77, "velocity": 48, "note_on_time": 181.329, "note_off_time": 182.03}, {"pitch": 76, "velocity": 59, "note_on_time": 181.621, "note_off_time": 182.102}, {"pitch": 74, "velocity": 48, "note_on_time": 181.948, "note_off_time": 182.248}, {"pitch": 72, "velocity": 59, "note_on_time": 182.21, "note_off_time": 182.747}, {"pitch": 77, "velocity": 43, "note_on_time": 182.897, "note_off_time": 183.579}, {"pitch": 76, "velocity": 36, "note_on_time": 183.213, "note_off_time": 183.581}, {"pitch": 74, "velocity": 57, "note_on_time": 183.488, "note_off_time": 183.773}, {"pitch": 79, "velocity": 61, "note_on_time": 182.588, "note_off_time": 183.785}, {"pitch": 72, "velocity": 65, "note_on_time": 183.719, "note_off_time": 184.215}, {"pitch": 79, "velocity": 55, "note_on_time": 184.058, "note_off_time": 185.009}, {"pitch": 77, "velocity": 45, "note_on_time": 184.383, "note_off_time": 185.069}, {"pitch": 76, "velocity": 50, "note_on_time": 184.704, "note_off_time": 185.141}, {"pitch": 74, "velocity": 55, "note_on_time": 184.97, "note_off_time": 185.319}, {"pitch": 72, "velocity": 64, "note_on_time": 185.227, "note_off_time": 185.645}, {"pitch": 74, "velocity": 42, "note_on_time": 187.039, "note_off_time": 187.341}, {"pitch": 76, "velocity": 58, "note_on_time": 187.255, "note_off_time": 187.654}, {"pitch": 77, "velocity": 58, "note_on_time": 187.474, "note_off_time": 187.727}, {"pitch": 79, "velocity": 58, "note_on_time": 187.645, "note_off_time": 188.049}, {"pitch": 72, "velocity": 64, "note_on_time": 187.979, "note_off_time": 188.499}, {"pitch": 74, "velocity": 55, "note_on_time": 188.861, "note_off_time": 189.067}, {"pitch": 76, "velocity": 54, "note_on_time": 188.994, "note_off_time": 189.411}, {"pitch": 77, "velocity": 69, "note_on_time": 189.202, "note_off_time": 189.58}, {"pitch": 79, "velocity": 67, "note_on_time": 189.472, "note_off_time": 190.155}, {"pitch": 72, "velocity": 67, "note_on_time": 189.828, "note_off_time": 190.257}, {"pitch": 74, "velocity": 41, "note_on_time": 190.142, "note_off_time": 190.355}, {"pitch": 76, "velocity": 59, "note_on_time": 190.273, "note_off_time": 190.746}, {"pitch": 77, "velocity": 71, "note_on_time": 190.562, "note_off_time": 190.912}, {"pitch": 79, "velocity": 78, "note_on_time": 190.829, "note_off_time": 191.326}, {"pitch": 72, "velocity": 57, "note_on_time": 191.195, "note_off_time": 191.572}, {"pitch": 74, "velocity": 48, "note_on_time": 191.489, "note_off_time": 191.695}, {"pitch": 76, "velocity": 57, "note_on_time": 191.634, "note_off_time": 192.186}, {"pitch": 77, "velocity": 63, "note_on_time": 191.889, "note_off_time": 192.213}, {"pitch": 74, "velocity": 42, "note_on_time": 192.537, "note_off_time": 192.729}, {"pitch": 79, "velocity": 64, "note_on_time": 192.155, "note_off_time": 193.157}]</notes><guidance name="Guidance Mode">None</guidance><error name="Error value">99</error></trial></trials></MIDI>