<MIDI midiNo="2023_06_13-11_31_32"><target_notes><notes name="Note List">[{"pitch": 60, "velocity": 40, "note_on_time": 0.01, "note_off_time": 1.016}, {"pitch": 64, "velocity": 40, "note_on_time": 0.01, "note_off_time": 1.017}, {"pitch": 67, "velocity": 40, "note_on_time": 0.01, "note_off_time": 1.017}, {"pitch": 48, "velocity": 40, "note_on_time": 0.01, "note_off_time": 1.018}, {"pitch": 52, "velocity": 40, "note_on_time": 1.018, "note_off_time": 2.028}, {"pitch": 55, "velocity": 40, "note_on_time": 1.018, "note_off_time": 2.028}, {"pitch": 74, "velocity": 40, "note_on_time": 2.028, "note_off_time": 3.036}, {"pitch": 48, "velocity": 40, "note_on_time": 2.028, "note_off_time": 3.036}, {"pitch": 52, "velocity": 40, "note_on_time": 3.037, "note_off_time": 4.056}, {"pitch": 55, "velocity": 40, "note_on_time": 3.037, "note_off_time": 4.056}, {"pitch": 48, "velocity": 40, "note_on_time": 4.056, "note_off_time": 5.059}, {"pitch": 52, "velocity": 40, "note_on_time": 5.059, "note_off_time": 6.075}, {"pitch": 55, "velocity": 40, "note_on_time": 5.059, "note_off_time": 6.075}, {"pitch": 48, "velocity": 40, "note_on_time": 6.075, "note_off_time": 7.089}, {"pitch": 52, "velocity": 40, "note_on_time": 7.089, "note_off_time": 8.098}, {"pitch": 55, "velocity": 40, "note_on_time": 7.089, "note_off_time": 8.098}, {"pitch": 60, "velocity": 40, "note_on_time": 8.097, "note_off_time": 9.109}, {"pitch": 64, "velocity": 40, "note_on_time": 8.098, "note_off_time": 9.11}, {"pitch": 67, "velocity": 40, "note_on_time": 8.098, "note_off_time": 9.111}, {"pitch": 48, "velocity": 40, "note_on_time": 8.099, "note_off_time": 9.111}, {"pitch": 52, "velocity": 40, "note_on_time": 9.111, "note_off_time": 10.118}, {"pitch": 55, "velocity": 40, "note_on_time": 9.111, "note_off_time": 10.119}, {"pitch": 72, "velocity": 40, "note_on_time": 10.118, "note_off_time": 11.129}, {"pitch": 48, "velocity": 40, "note_on_time": 10.119, "note_off_time": 11.129}, {"pitch": 52, "velocity": 40, "note_on_time": 11.129, "note_off_time": 12.134}, {"pitch": 55, "velocity": 40, "note_on_time": 11.129, "note_off_time": 12.134}, {"pitch": 48, "velocity": 40, "note_on_time": 12.134, "note_off_time": 13.143}, {"pitch": 52, "velocity": 40, "note_on_time": 13.143, "note_off_time": 14.156}, {"pitch": 55, "velocity": 40, "note_on_time": 13.143, "note_off_time": 14.156}, {"pitch": 48, "velocity": 40, "note_on_time": 14.156, "note_off_time": 15.159}, {"pitch": 52, "velocity": 40, "note_on_time": 15.159, "note_off_time": 16.171}, {"pitch": 55, "velocity": 40, "note_on_time": 15.159, "note_off_time": 16.171}, {"pitch": 60, "velocity": 40, "note_on_time": 16.169, "note_off_time": 17.18}, {"pitch": 64, "velocity": 40, "note_on_time": 16.17, "note_off_time": 17.181}, {"pitch": 67, "velocity": 40, "note_on_time": 16.171, "note_off_time": 17.182}, {"pitch": 48, "velocity": 40, "note_on_time": 16.171, "note_off_time": 17.182}, {"pitch": 52, "velocity": 40, "note_on_time": 17.182, "note_off_time": 18.19}, {"pitch": 55, "velocity": 40, "note_on_time": 17.182, "note_off_time": 18.19}, {"pitch": 77, "velocity": 40, "note_on_time": 18.19, "note_off_time": 19.198}, {"pitch": 48, "velocity": 40, "note_on_time": 18.19, "note_off_time": 19.199}, {"pitch": 52, "velocity": 40, "note_on_time": 19.199, "note_off_time": 20.212}, {"pitch": 55, "velocity": 40, "note_on_time": 19.199, "note_off_time": 20.212}, {"pitch": 48, "velocity": 40, "note_on_time": 20.212, "note_off_time": 21.226}, {"pitch": 52, "velocity": 40, "note_on_time": 21.226, "note_off_time": 22.235}, {"pitch": 55, "velocity": 40, "note_on_time": 21.226, "note_off_time": 22.235}, {"pitch": 48, "velocity": 40, "note_on_time": 22.235, "note_off_time": 23.243}, {"pitch": 52, "velocity": 40, "note_on_time": 23.243, "note_off_time": 24.26}, {"pitch": 55, "velocity": 40, "note_on_time": 23.243, "note_off_time": 24.26}, {"pitch": 60, "velocity": 40, "note_on_time": 24.259, "note_off_time": 25.272}, {"pitch": 64, "velocity": 40, "note_on_time": 24.259, "note_off_time": 25.273}, {"pitch": 67, "velocity": 40, "note_on_time": 24.26, "note_off_time": 25.273}, {"pitch": 48, "velocity": 40, "note_on_time": 24.26, "note_off_time": 25.273}, {"pitch": 52, "velocity": 40, "note_on_time": 25.274, "note_off_time": 26.289}, {"pitch": 55, "velocity": 40, "note_on_time": 25.274, "note_off_time": 26.289}, {"pitch": 72, "velocity": 40, "note_on_time": 26.289, "note_off_time": 27.298}, {"pitch": 48, "velocity": 40, "note_on_time": 26.289, "note_off_time": 27.298}, {"pitch": 52, "velocity": 40, "note_on_time": 27.298, "note_off_time": 28.308}, {"pitch": 55, "velocity": 40, "note_on_time": 27.298, "note_off_time": 28.308}, {"pitch": 48, "velocity": 40, "note_on_time": 28.308, "note_off_time": 29.318}, {"pitch": 52, "velocity": 40, "note_on_time": 29.318, "note_off_time": 30.328}, {"pitch": 55, "velocity": 40, "note_on_time": 29.318, "note_off_time": 30.328}, {"pitch": 48, "velocity": 40, "note_on_time": 30.328, "note_off_time": 31.344}, {"pitch": 52, "velocity": 40, "note_on_time": 31.344, "note_off_time": 32.36}, {"pitch": 55, "velocity": 40, "note_on_time": 31.344, "note_off_time": 32.36}, {"pitch": 60, "velocity": 40, "note_on_time": 32.359, "note_off_time": 33.369}, {"pitch": 64, "velocity": 40, "note_on_time": 32.36, "note_off_time": 33.37}, {"pitch": 67, "velocity": 40, "note_on_time": 32.36, "note_off_time": 33.37}, {"pitch": 48, "velocity": 40, "note_on_time": 32.36, "note_off_time": 33.37}, {"pitch": 52, "velocity": 40, "note_on_time": 33.371, "note_off_time": 34.381}, {"pitch": 55, "velocity": 40, "note_on_time": 33.371, "note_off_time": 34.382}, {"pitch": 79, "velocity": 40, "note_on_time": 34.381, "note_off_time": 35.395}, {"pitch": 48, "velocity": 40, "note_on_time": 34.382, "note_off_time": 35.396}, {"pitch": 52, "velocity": 40, "note_on_time": 35.396, "note_off_time": 36.401}, {"pitch": 55, "velocity": 40, "note_on_time": 35.396, "note_off_time": 36.401}, {"pitch": 48, "velocity": 40, "note_on_time": 36.401, "note_off_time": 37.413}, {"pitch": 52, "velocity": 40, "note_on_time": 37.413, "note_off_time": 38.426}, {"pitch": 55, "velocity": 40, "note_on_time": 37.413, "note_off_time": 38.426}, {"pitch": 48, "velocity": 40, "note_on_time": 38.426, "note_off_time": 39.437}, {"pitch": 52, "velocity": 40, "note_on_time": 39.437, "note_off_time": 40.442}, {"pitch": 55, "velocity": 40, "note_on_time": 39.437, "note_off_time": 40.443}, {"pitch": 60, "velocity": 40, "note_on_time": 40.44, "note_off_time": 41.457}, {"pitch": 64, "velocity": 40, "note_on_time": 40.442, "note_off_time": 41.457}, {"pitch": 67, "velocity": 40, "note_on_time": 40.442, "note_off_time": 41.458}, {"pitch": 72, "velocity": 40, "note_on_time": 42.463, "note_off_time": 43.467}, {"pitch": 60, "velocity": 40, "note_on_time": 48.482, "note_off_time": 49.49}, {"pitch": 64, "velocity": 40, "note_on_time": 48.483, "note_off_time": 49.491}, {"pitch": 67, "velocity": 40, "note_on_time": 48.483, "note_off_time": 49.491}, {"pitch": 76, "velocity": 40, "note_on_time": 50.5, "note_off_time": 51.508}, {"pitch": 60, "velocity": 40, "note_on_time": 56.519, "note_off_time": 57.524}, {"pitch": 64, "velocity": 40, "note_on_time": 56.52, "note_off_time": 57.525}, {"pitch": 67, "velocity": 40, "note_on_time": 56.52, "note_off_time": 57.526}, {"pitch": 79, "velocity": 40, "note_on_time": 58.539, "note_off_time": 59.548}, {"pitch": 60, "velocity": 40, "note_on_time": 64.557, "note_off_time": 65.563}, {"pitch": 64, "velocity": 40, "note_on_time": 64.559, "note_off_time": 65.564}, {"pitch": 67, "velocity": 40, "note_on_time": 64.559, "note_off_time": 65.564}, {"pitch": 74, "velocity": 40, "note_on_time": 66.57, "note_off_time": 67.58}, {"pitch": 60, "velocity": 40, "note_on_time": 72.583, "note_off_time": 73.593}, {"pitch": 64, "velocity": 40, "note_on_time": 72.584, "note_off_time": 73.594}, {"pitch": 67, "velocity": 40, "note_on_time": 72.584, "note_off_time": 73.594}, {"pitch": 77, "velocity": 40, "note_on_time": 74.609, "note_off_time": 75.619}, {"pitch": 60, "velocity": 40, "note_on_time": 80.623, "note_off_time": 81.635}, {"pitch": 64, "velocity": 40, "note_on_time": 80.623, "note_off_time": 81.636}, {"pitch": 67, "velocity": 40, "note_on_time": 80.623, "note_off_time": 81.636}, {"pitch": 79, "velocity": 40, "note_on_time": 82.65, "note_off_time": 83.663}, {"pitch": 60, "velocity": 40, "note_on_time": 88.666, "note_off_time": 89.676}, {"pitch": 64, "velocity": 40, "note_on_time": 88.667, "note_off_time": 89.677}, {"pitch": 67, "velocity": 40, "note_on_time": 88.667, "note_off_time": 89.678}, {"pitch": 74, "velocity": 40, "note_on_time": 90.687, "note_off_time": 91.71}, {"pitch": 60, "velocity": 40, "note_on_time": 96.726, "note_off_time": 97.74}, {"pitch": 64, "velocity": 40, "note_on_time": 96.727, "note_off_time": 97.741}, {"pitch": 67, "velocity": 40, "note_on_time": 96.727, "note_off_time": 97.742}, {"pitch": 76, "velocity": 40, "note_on_time": 98.755, "note_off_time": 99.759}, {"pitch": 60, "velocity": 40, "note_on_time": 104.767, "note_off_time": 105.783}, {"pitch": 64, "velocity": 40, "note_on_time": 104.768, "note_off_time": 105.783}, {"pitch": 67, "velocity": 40, "note_on_time": 104.768, "note_off_time": 105.784}, {"pitch": 72, "velocity": 40, "note_on_time": 106.789, "note_off_time": 107.803}, {"pitch": 60, "velocity": 40, "note_on_time": 112.805, "note_off_time": 113.819}, {"pitch": 64, "velocity": 40, "note_on_time": 112.806, "note_off_time": 113.82}, {"pitch": 67, "velocity": 40, "note_on_time": 112.806, "note_off_time": 113.821}, {"pitch": 77, "velocity": 40, "note_on_time": 114.823, "note_off_time": 115.837}, {"pitch": 60, "velocity": 40, "note_on_time": 120.853, "note_off_time": 121.87}, {"pitch": 64, "velocity": 40, "note_on_time": 120.854, "note_off_time": 121.871}, {"pitch": 67, "velocity": 40, "note_on_time": 120.854, "note_off_time": 121.872}, {"pitch": 76, "velocity": 40, "note_on_time": 122.883, "note_off_time": 123.885}, {"pitch": 60, "velocity": 40, "note_on_time": 128.898, "note_off_time": 129.911}, {"pitch": 64, "velocity": 40, "note_on_time": 128.899, "note_off_time": 129.912}, {"pitch": 67, "velocity": 40, "note_on_time": 128.899, "note_off_time": 129.912}, {"pitch": 77, "velocity": 40, "note_on_time": 130.915, "note_off_time": 131.932}, {"pitch": 60, "velocity": 40, "note_on_time": 136.938, "note_off_time": 137.952}, {"pitch": 64, "velocity": 40, "note_on_time": 136.94, "note_off_time": 137.954}, {"pitch": 67, "velocity": 40, "note_on_time": 136.94, "note_off_time": 137.954}, {"pitch": 79, "velocity": 40, "note_on_time": 138.967, "note_off_time": 139.98}, {"pitch": 60, "velocity": 40, "note_on_time": 144.992, "note_off_time": 146.004}, {"pitch": 64, "velocity": 40, "note_on_time": 144.993, "note_off_time": 146.005}, {"pitch": 67, "velocity": 40, "note_on_time": 144.993, "note_off_time": 146.006}, {"pitch": 76, "velocity": 40, "note_on_time": 147.017, "note_off_time": 148.022}, {"pitch": 60, "velocity": 40, "note_on_time": 153.029, "note_off_time": 154.045}, {"pitch": 64, "velocity": 40, "note_on_time": 153.03, "note_off_time": 154.049}, {"pitch": 67, "velocity": 40, "note_on_time": 153.03, "note_off_time": 154.054}, {"pitch": 74, "velocity": 40, "note_on_time": 155.058, "note_off_time": 156.07}, {"pitch": 60, "velocity": 40, "note_on_time": 161.082, "note_off_time": 162.094}, {"pitch": 64, "velocity": 40, "note_on_time": 161.083, "note_off_time": 162.094}, {"pitch": 67, "velocity": 40, "note_on_time": 161.084, "note_off_time": 162.094}, {"pitch": 74, "velocity": 40, "note_on_time": 163.107, "note_off_time": 164.124}]</notes><options name="Option List">((4, 4), [0.5, 0.25], 3, 8, &lt;NoteRangePerHand.TWO_NOTES: 3&gt;, &lt;NoteRangePerHand.ONE_NOTE: 2&gt;, False, True, True, 100)</options></target_notes><trials><trial trial_no="1" timestamp="2023_06_13-11_28_48"><notes name="Played Notes">[{"pitch": 72, "velocity": 1, "note_on_time": 1.277, "note_off_time": 1.698}, {"pitch": 74, "velocity": 43, "note_on_time": 2.021, "note_off_time": 2.397}, {"pitch": 76, "velocity": 40, "note_on_time": 2.538, "note_off_time": 2.865}, {"pitch": 77, "velocity": 35, "note_on_time": 3.003, "note_off_time": 3.279}, {"pitch": 79, "velocity": 50, "note_on_time": 3.473, "note_off_time": 3.863}, {"pitch": 72, "velocity": 24, "note_on_time": 12.671, "note_off_time": 13.472}, {"pitch": 79, "velocity": 43, "note_on_time": 19.323, "note_off_time": 20.022}, {"pitch": 74, "velocity": 46, "note_on_time": 27.944, "note_off_time": 28.379}, {"pitch": 79, "velocity": 30, "note_on_time": 35.511, "note_off_time": 36.017}, {"pitch": 76, "velocity": 32, "note_on_time": 44.227, "note_off_time": 45.128}, {"pitch": 76, "velocity": 20, "note_on_time": 51.811, "note_off_time": 52.284}, {"pitch": 77, "velocity": 5, "note_on_time": 59.779, "note_off_time": 60.118}, {"pitch": 74, "velocity": 60, "note_on_time": 61.0, "note_off_time": 61.397}, {"pitch": 77, "velocity": 65, "note_on_time": 68.548, "note_off_time": 69.05}, {"pitch": 76, "velocity": 69, "note_on_time": 69.551, "note_off_time": 69.954}, {"pitch": 77, "velocity": 56, "note_on_time": 71.517, "note_off_time": 72.083}, {"pitch": 77, "velocity": 61, "note_on_time": 75.749, "note_off_time": 76.03}, {"pitch": 77, "velocity": 46, "note_on_time": 83.487, "note_off_time": 83.711}, {"pitch": 71, "velocity": 34, "note_on_time": 85.305, "note_off_time": 85.755}, {"pitch": 76, "velocity": 48, "note_on_time": 92.425, "note_off_time": 93.142}, {"pitch": 74, "velocity": 65, "note_on_time": 93.485, "note_off_time": 93.913}, {"pitch": 77, "velocity": 60, "note_on_time": 94.213, "note_off_time": 94.83}, {"pitch": 77, "velocity": 41, "note_on_time": 100.486, "note_off_time": 101.511}, {"pitch": 76, "velocity": 62, "note_on_time": 102.216, "note_off_time": 102.543}, {"pitch": 74, "velocity": 48, "note_on_time": 102.723, "note_off_time": 103.067}, {"pitch": 72, "velocity": 42, "note_on_time": 103.234, "note_off_time": 103.585}, {"pitch": 71, "velocity": 9, "note_on_time": 103.889, "note_off_time": 104.444}, {"pitch": 71, "velocity": 33, "note_on_time": 108.332, "note_off_time": 109.1}, {"pitch": 71, "velocity": 13, "note_on_time": 116.533, "note_off_time": 117.511}, {"pitch": 77, "velocity": 29, "note_on_time": 124.288, "note_off_time": 125.233}, {"pitch": 77, "velocity": 20, "note_on_time": 132.244, "note_off_time": 132.997}, {"pitch": 77, "velocity": 57, "note_on_time": 141.813, "note_off_time": 142.787}, {"pitch": 77, "velocity": 53, "note_on_time": 149.293, "note_off_time": 150.559}, {"pitch": 76, "velocity": 51, "note_on_time": 159.27, "note_off_time": 160.06}]</notes><guidance name="Guidance Mode">None</guidance><error name="Error value">99</error></trial><trial trial_no="2" timestamp="2023_06_13-11_32_07"><notes name="Played Notes">[{"pitch": 77, "velocity": 26, "note_on_time": 1.843, "note_off_time": 2.077}, {"pitch": 76, "velocity": 47, "note_on_time": 2.452, "note_off_time": 2.714}, {"pitch": 77, "velocity": 44, "note_on_time": 3.041, "note_off_time": 3.313}, {"pitch": 76, "velocity": 38, "note_on_time": 3.662, "note_off_time": 3.934}, {"pitch": 77, "velocity": 44, "note_on_time": 4.24, "note_off_time": 4.505}, {"pitch": 72, "velocity": 33, "note_on_time": 4.916, "note_off_time": 5.19}, {"pitch": 74, "velocity": 50, "note_on_time": 5.555, "note_off_time": 5.827}, {"pitch": 76, "velocity": 49, "note_on_time": 6.169, "note_off_time": 6.573}, {"pitch": 77, "velocity": 33, "note_on_time": 6.834, "note_off_time": 7.193}, {"pitch": 79, "velocity": 53, "note_on_time": 7.478, "note_off_time": 7.801}, {"pitch": 74, "velocity": 30, "note_on_time": 9.818, "note_off_time": 10.106}, {"pitch": 76, "velocity": 40, "note_on_time": 10.379, "note_off_time": 10.626}, {"pitch": 77, "velocity": 58, "note_on_time": 10.96, "note_off_time": 11.222}, {"pitch": 76, "velocity": 41, "note_on_time": 11.534, "note_off_time": 11.835}, {"pitch": 77, "velocity": 40, "note_on_time": 12.171, "note_off_time": 12.491}, {"pitch": 76, "velocity": 38, "note_on_time": 12.77, "note_off_time": 13.018}, {"pitch": 74, "velocity": 39, "note_on_time": 13.355, "note_off_time": 13.588}, {"pitch": 74, "velocity": 31, "note_on_time": 13.978, "note_off_time": 14.247}, {"pitch": 76, "velocity": 23, "note_on_time": 13.921, "note_off_time": 14.379}, {"pitch": 77, "velocity": 42, "note_on_time": 14.596, "note_off_time": 14.898}, {"pitch": 74, "velocity": 51, "note_on_time": 15.213, "note_off_time": 15.529}, {"pitch": 76, "velocity": 1, "note_on_time": 15.33, "note_off_time": 15.563}, {"pitch": 77, "velocity": 49, "note_on_time": 15.835, "note_off_time": 16.208}, {"pitch": 79, "velocity": 62, "note_on_time": 16.405, "note_off_time": 16.851}, {"pitch": 77, "velocity": 24, "note_on_time": 17.079, "note_off_time": 17.46}, {"pitch": 76, "velocity": 40, "note_on_time": 17.656, "note_off_time": 17.934}, {"pitch": 74, "velocity": 43, "note_on_time": 18.201, "note_off_time": 18.438}, {"pitch": 72, "velocity": 21, "note_on_time": 18.936, "note_off_time": 19.235}, {"pitch": 72, "velocity": 14, "note_on_time": 19.532, "note_off_time": 19.744}, {"pitch": 72, "velocity": 19, "note_on_time": 20.136, "note_off_time": 20.363}, {"pitch": 76, "velocity": 39, "note_on_time": 20.66, "note_off_time": 20.876}, {"pitch": 76, "velocity": 49, "note_on_time": 21.234, "note_off_time": 21.484}, {"pitch": 72, "velocity": 16, "note_on_time": 21.887, "note_off_time": 22.121}, {"pitch": 72, "velocity": 1, "note_on_time": 22.43, "note_off_time": 22.655}, {"pitch": 76, "velocity": 32, "note_on_time": 23.07, "note_off_time": 23.658}, {"pitch": 77, "velocity": 50, "note_on_time": 24.36, "note_off_time": 24.677}, {"pitch": 77, "velocity": 3, "note_on_time": 24.878, "note_off_time": 25.289}, {"pitch": 74, "velocity": 44, "note_on_time": 25.554, "note_off_time": 26.236}, {"pitch": 76, "velocity": 36, "note_on_time": 26.758, "note_off_time": 27.269}, {"pitch": 77, "velocity": 29, "note_on_time": 27.32, "note_off_time": 27.613}, {"pitch": 79, "velocity": 34, "note_on_time": 28.017, "note_off_time": 28.844}, {"pitch": 77, "velocity": 44, "note_on_time": 29.129, "note_off_time": 29.874}, {"pitch": 76, "velocity": 54, "note_on_time": 30.11, "note_off_time": 30.22}, {"pitch": 76, "velocity": 28, "note_on_time": 30.305, "note_off_time": 31.05}, {"pitch": 74, "velocity": 38, "note_on_time": 31.65, "note_off_time": 32.386}, {"pitch": 72, "velocity": 14, "note_on_time": 32.663, "note_off_time": 32.737}, {"pitch": 72, "velocity": 41, "note_on_time": 32.847, "note_off_time": 33.668}, {"pitch": 76, "velocity": 48, "note_on_time": 34.08, "note_off_time": 34.486}, {"pitch": 77, "velocity": 43, "note_on_time": 34.676, "note_off_time": 34.979}, {"pitch": 79, "velocity": 22, "note_on_time": 35.292, "note_off_time": 35.625}, {"pitch": 77, "velocity": 19, "note_on_time": 35.823, "note_off_time": 36.135}, {"pitch": 76, "velocity": 37, "note_on_time": 36.466, "note_off_time": 36.759}, {"pitch": 77, "velocity": 57, "note_on_time": 37.046, "note_off_time": 37.358}, {"pitch": 76, "velocity": 39, "note_on_time": 37.673, "note_off_time": 38.563}, {"pitch": 77, "velocity": 51, "note_on_time": 38.907, "note_off_time": 39.624}, {"pitch": 74, "velocity": 49, "note_on_time": 39.878, "note_off_time": 39.989}, {"pitch": 74, "velocity": 41, "note_on_time": 40.072, "note_off_time": 41.047}, {"pitch": 76, "velocity": 36, "note_on_time": 41.357, "note_off_time": 42.075}, {"pitch": 77, "velocity": 61, "note_on_time": 42.353, "note_off_time": 42.59}, {"pitch": 77, "velocity": 51, "note_on_time": 42.742, "note_off_time": 43.36}, {"pitch": 79, "velocity": 49, "note_on_time": 43.786, "note_off_time": 44.178}, {"pitch": 74, "velocity": 33, "note_on_time": 44.392, "note_off_time": 44.668}, {"pitch": 76, "velocity": 51, "note_on_time": 44.955, "note_off_time": 45.238}, {"pitch": 72, "velocity": 33, "note_on_time": 45.565, "note_off_time": 45.876}, {"pitch": 74, "velocity": 1, "note_on_time": 46.19, "note_off_time": 46.488}, {"pitch": 76, "velocity": 45, "note_on_time": 46.768, "note_off_time": 47.065}, {"pitch": 79, "velocity": 41, "note_on_time": 47.404, "note_off_time": 48.086}, {"pitch": 77, "velocity": 58, "note_on_time": 48.658, "note_off_time": 49.267}, {"pitch": 76, "velocity": 28, "note_on_time": 49.603, "note_off_time": 49.796}, {"pitch": 77, "velocity": 42, "note_on_time": 49.846, "note_off_time": 50.301}, {"pitch": 74, "velocity": 4, "note_on_time": 50.839, "note_off_time": 51.013}, {"pitch": 76, "velocity": 58, "note_on_time": 51.078, "note_off_time": 51.457}, {"pitch": 72, "velocity": 31, "note_on_time": 52.049, "note_off_time": 52.211}, {"pitch": 74, "velocity": 56, "note_on_time": 52.24, "note_off_time": 52.841}, {"pitch": 76, "velocity": 19, "note_on_time": 53.511, "note_off_time": 54.107}, {"pitch": 77, "velocity": 40, "note_on_time": 54.079, "note_off_time": 54.372}, {"pitch": 74, "velocity": 40, "note_on_time": 54.634, "note_off_time": 54.906}, {"pitch": 76, "velocity": 55, "note_on_time": 55.209, "note_off_time": 55.537}, {"pitch": 77, "velocity": 52, "note_on_time": 55.85, "note_off_time": 56.153}, {"pitch": 79, "velocity": 47, "note_on_time": 56.463, "note_off_time": 56.779}, {"pitch": 74, "velocity": 53, "note_on_time": 57.069, "note_off_time": 57.825}, {"pitch": 76, "velocity": 25, "note_on_time": 58.287, "note_off_time": 58.908}, {"pitch": 77, "velocity": 64, "note_on_time": 59.28, "note_off_time": 59.419}, {"pitch": 76, "velocity": 27, "note_on_time": 59.487, "note_off_time": 60.224}, {"pitch": 77, "velocity": 41, "note_on_time": 60.548, "note_off_time": 60.717}, {"pitch": 74, "velocity": 42, "note_on_time": 61.729, "note_off_time": 61.884}, {"pitch": 77, "velocity": 24, "note_on_time": 62.146, "note_off_time": 62.637}, {"pitch": 76, "velocity": 45, "note_on_time": 63.173, "note_off_time": 63.713}, {"pitch": 77, "velocity": 62, "note_on_time": 64.138, "note_off_time": 64.278}, {"pitch": 76, "velocity": 30, "note_on_time": 64.361, "note_off_time": 64.641}, {"pitch": 72, "velocity": 12, "note_on_time": 65.163, "note_off_time": 65.349}, {"pitch": 72, "velocity": 30, "note_on_time": 65.674, "note_off_time": 65.974}, {"pitch": 74, "velocity": 32, "note_on_time": 66.162, "note_off_time": 66.484}, {"pitch": 76, "velocity": 26, "note_on_time": 66.809, "note_off_time": 67.383}, {"pitch": 79, "velocity": 48, "note_on_time": 67.986, "note_off_time": 68.234}, {"pitch": 77, "velocity": 49, "note_on_time": 68.537, "note_off_time": 68.793}, {"pitch": 79, "velocity": 29, "note_on_time": 69.309, "note_off_time": 69.989}, {"pitch": 77, "velocity": 44, "note_on_time": 70.311, "note_off_time": 70.459}, {"pitch": 79, "velocity": 38, "note_on_time": 70.519, "note_off_time": 70.829}, {"pitch": 76, "velocity": 19, "note_on_time": 71.43, "note_off_time": 71.663}, {"pitch": 77, "velocity": 33, "note_on_time": 71.668, "note_off_time": 72.111}, {"pitch": 72, "velocity": 46, "note_on_time": 72.917, "note_off_time": 73.288}, {"pitch": 74, "velocity": 37, "note_on_time": 73.511, "note_off_time": 73.825}, {"pitch": 76, "velocity": 53, "note_on_time": 74.097, "note_off_time": 74.489}, {"pitch": 77, "velocity": 54, "note_on_time": 74.665, "note_off_time": 74.949}, {"pitch": 76, "velocity": 45, "note_on_time": 75.334, "note_off_time": 75.642}, {"pitch": 74, "velocity": 47, "note_on_time": 75.879, "note_off_time": 76.191}, {"pitch": 76, "velocity": 44, "note_on_time": 76.475, "note_off_time": 77.199}, {"pitch": 77, "velocity": 20, "note_on_time": 77.714, "note_off_time": 78.179}, {"pitch": 76, "velocity": 26, "note_on_time": 78.328, "note_off_time": 78.565}, {"pitch": 77, "velocity": 42, "note_on_time": 78.793, "note_off_time": 78.939}, {"pitch": 76, "velocity": 26, "note_on_time": 79.037, "note_off_time": 79.412}, {"pitch": 74, "velocity": 9, "note_on_time": 79.945, "note_off_time": 80.119}, {"pitch": 76, "velocity": 13, "note_on_time": 80.211, "note_off_time": 80.65}, {"pitch": 72, "velocity": 61, "note_on_time": 81.072, "note_off_time": 81.221}, {"pitch": 74, "velocity": 47, "note_on_time": 81.279, "note_off_time": 81.729}, {"pitch": 74, "velocity": 40, "note_on_time": 82.293, "note_off_time": 82.535}, {"pitch": 76, "velocity": 36, "note_on_time": 82.497, "note_off_time": 82.99}, {"pitch": 77, "velocity": 57, "note_on_time": 83.572, "note_off_time": 83.731}, {"pitch": 77, "velocity": 27, "note_on_time": 83.805, "note_off_time": 84.111}, {"pitch": 79, "velocity": 63, "note_on_time": 84.456, "note_off_time": 84.838}, {"pitch": 77, "velocity": 36, "note_on_time": 85.032, "note_off_time": 85.455}, {"pitch": 79, "velocity": 54, "note_on_time": 85.644, "note_off_time": 86.117}, {"pitch": 77, "velocity": 24, "note_on_time": 86.286, "note_off_time": 86.876}, {"pitch": 76, "velocity": 12, "note_on_time": 87.407, "note_off_time": 87.788}, {"pitch": 77, "velocity": 16, "note_on_time": 88.062, "note_off_time": 88.333}, {"pitch": 76, "velocity": 26, "note_on_time": 88.76, "note_off_time": 88.951}, {"pitch": 74, "velocity": 22, "note_on_time": 89.901, "note_off_time": 90.139}, {"pitch": 72, "velocity": 40, "note_on_time": 89.915, "note_off_time": 90.192}, {"pitch": 76, "velocity": 30, "note_on_time": 90.961, "note_off_time": 91.046}, {"pitch": 77, "velocity": 40, "note_on_time": 91.176, "note_off_time": 91.473}, {"pitch": 79, "velocity": 46, "note_on_time": 92.346, "note_off_time": 92.591}, {"pitch": 76, "velocity": 23, "note_on_time": 92.993, "note_off_time": 93.336}, {"pitch": 74, "velocity": 37, "note_on_time": 93.527, "note_off_time": 93.804}, {"pitch": 76, "velocity": 40, "note_on_time": 94.081, "note_off_time": 94.306}, {"pitch": 77, "velocity": 51, "note_on_time": 94.666, "note_off_time": 94.926}, {"pitch": 79, "velocity": 38, "note_on_time": 95.26, "note_off_time": 95.524}, {"pitch": 76, "velocity": 24, "note_on_time": 95.857, "note_off_time": 96.578}, {"pitch": 72, "velocity": 47, "note_on_time": 97.184, "note_off_time": 97.732}, {"pitch": 76, "velocity": 60, "note_on_time": 98.176, "note_off_time": 98.321}, {"pitch": 77, "velocity": 5, "note_on_time": 98.506, "note_off_time": 99.091}, {"pitch": 74, "velocity": 1, "note_on_time": 99.605, "note_off_time": 100.144}, {"pitch": 72, "velocity": 53, "note_on_time": 100.473, "note_off_time": 100.622}, {"pitch": 74, "velocity": 1, "note_on_time": 100.8, "note_off_time": 101.281}, {"pitch": 76, "velocity": 9, "note_on_time": 100.782, "note_off_time": 101.299}, {"pitch": 77, "velocity": 32, "note_on_time": 102.027, "note_off_time": 102.323}, {"pitch": 76, "velocity": 51, "note_on_time": 102.571, "note_off_time": 102.793}, {"pitch": 74, "velocity": 52, "note_on_time": 103.069, "note_off_time": 103.326}, {"pitch": 72, "velocity": 62, "note_on_time": 104.188, "note_off_time": 104.598}, {"pitch": 76, "velocity": 49, "note_on_time": 105.412, "note_off_time": 105.575}, {"pitch": 76, "velocity": 45, "note_on_time": 105.689, "note_off_time": 106.38}, {"pitch": 77, "velocity": 30, "note_on_time": 106.923, "note_off_time": 107.654}, {"pitch": 79, "velocity": 51, "note_on_time": 108.147, "note_off_time": 108.9}, {"pitch": 77, "velocity": 37, "note_on_time": 109.26, "note_off_time": 109.501}, {"pitch": 76, "velocity": 31, "note_on_time": 109.932, "note_off_time": 110.242}, {"pitch": 74, "velocity": 22, "note_on_time": 110.681, "note_off_time": 111.397}, {"pitch": 76, "velocity": 52, "note_on_time": 111.729, "note_off_time": 112.076}, {"pitch": 76, "velocity": 39, "note_on_time": 112.261, "note_off_time": 112.655}, {"pitch": 77, "velocity": 44, "note_on_time": 112.944, "note_off_time": 113.445}, {"pitch": 79, "velocity": 38, "note_on_time": 114.232, "note_off_time": 114.497}, {"pitch": 77, "velocity": 42, "note_on_time": 114.792, "note_off_time": 115.0}, {"pitch": 79, "velocity": 30, "note_on_time": 115.386, "note_off_time": 115.97}, {"pitch": 76, "velocity": 36, "note_on_time": 116.673, "note_off_time": 117.258}, {"pitch": 77, "velocity": 53, "note_on_time": 117.57, "note_off_time": 117.694}, {"pitch": 77, "velocity": 48, "note_on_time": 117.786, "note_off_time": 118.345}, {"pitch": 74, "velocity": 23, "note_on_time": 119.099, "note_off_time": 119.726}, {"pitch": 76, "velocity": 38, "note_on_time": 120.066, "note_off_time": 120.847}, {"pitch": 74, "velocity": 31, "note_on_time": 121.41, "note_off_time": 121.697}, {"pitch": 76, "velocity": 21, "note_on_time": 122.059, "note_off_time": 122.437}, {"pitch": 74, "velocity": 29, "note_on_time": 122.696, "note_off_time": 123.015}, {"pitch": 76, "velocity": 10, "note_on_time": 123.342, "note_off_time": 123.639}, {"pitch": 72, "velocity": 45, "note_on_time": 123.917, "note_off_time": 124.261}, {"pitch": 72, "velocity": 33, "note_on_time": 124.492, "note_off_time": 124.899}, {"pitch": 74, "velocity": 31, "note_on_time": 125.211, "note_off_time": 126.011}, {"pitch": 76, "velocity": 38, "note_on_time": 126.374, "note_off_time": 127.008}, {"pitch": 72, "velocity": 67, "note_on_time": 127.287, "note_off_time": 127.401}, {"pitch": 72, "velocity": 55, "note_on_time": 127.494, "note_off_time": 128.196}, {"pitch": 74, "velocity": 71, "note_on_time": 128.738, "note_off_time": 129.464}, {"pitch": 76, "velocity": 56, "note_on_time": 129.767, "note_off_time": 129.916}, {"pitch": 76, "velocity": 43, "note_on_time": 130.015, "note_off_time": 130.574}, {"pitch": 76, "velocity": 63, "note_on_time": 131.186, "note_off_time": 131.904}, {"pitch": 77, "velocity": 53, "note_on_time": 132.391, "note_off_time": 132.995}, {"pitch": 79, "velocity": 30, "note_on_time": 133.605, "note_off_time": 133.9}, {"pitch": 76, "velocity": 53, "note_on_time": 134.191, "note_off_time": 134.546}, {"pitch": 77, "velocity": 37, "note_on_time": 134.813, "note_off_time": 135.543}, {"pitch": 74, "velocity": 28, "note_on_time": 135.962, "note_off_time": 136.328}, {"pitch": 76, "velocity": 45, "note_on_time": 136.343, "note_off_time": 136.86}, {"pitch": 74, "velocity": 2, "note_on_time": 137.092, "note_off_time": 137.26}, {"pitch": 76, "velocity": 27, "note_on_time": 137.362, "note_off_time": 137.808}, {"pitch": 72, "velocity": 44, "note_on_time": 138.443, "note_off_time": 138.587}, {"pitch": 74, "velocity": 42, "note_on_time": 138.584, "note_off_time": 139.112}, {"pitch": 72, "velocity": 37, "note_on_time": 139.469, "note_off_time": 139.594}, {"pitch": 74, "velocity": 20, "note_on_time": 139.625, "note_off_time": 140.141}, {"pitch": 76, "velocity": 32, "note_on_time": 140.838, "note_off_time": 141.266}, {"pitch": 77, "velocity": 34, "note_on_time": 141.428, "note_off_time": 141.695}, {"pitch": 79, "velocity": 51, "note_on_time": 142.019, "note_off_time": 142.33}, {"pitch": 77, "velocity": 43, "note_on_time": 142.574, "note_off_time": 142.789}, {"pitch": 76, "velocity": 37, "note_on_time": 143.14, "note_off_time": 143.457}, {"pitch": 74, "velocity": 22, "note_on_time": 143.79, "note_off_time": 144.192}, {"pitch": 77, "velocity": 46, "note_on_time": 144.404, "note_off_time": 144.521}, {"pitch": 76, "velocity": 21, "note_on_time": 144.622, "note_off_time": 145.189}, {"pitch": 77, "velocity": 40, "note_on_time": 145.745, "note_off_time": 146.324}, {"pitch": 79, "velocity": 25, "note_on_time": 146.393, "note_off_time": 146.802}, {"pitch": 77, "velocity": 27, "note_on_time": 146.944, "note_off_time": 147.361}, {"pitch": 76, "velocity": 54, "note_on_time": 147.879, "note_off_time": 148.067}, {"pitch": 76, "velocity": 33, "note_on_time": 148.118, "note_off_time": 148.679}, {"pitch": 77, "velocity": 42, "note_on_time": 149.111, "note_off_time": 149.272}, {"pitch": 76, "velocity": 36, "note_on_time": 149.289, "note_off_time": 149.773}, {"pitch": 74, "velocity": 43, "note_on_time": 150.618, "note_off_time": 150.93}, {"pitch": 76, "velocity": 37, "note_on_time": 151.249, "note_off_time": 151.541}, {"pitch": 74, "velocity": 51, "note_on_time": 151.789, "note_off_time": 152.116}, {"pitch": 76, "velocity": 42, "note_on_time": 152.356, "note_off_time": 152.626}, {"pitch": 72, "velocity": 62, "note_on_time": 153.033, "note_off_time": 153.734}, {"pitch": 74, "velocity": 59, "note_on_time": 154.007, "note_off_time": 154.129}, {"pitch": 74, "velocity": 41, "note_on_time": 154.234, "note_off_time": 154.858}, {"pitch": 76, "velocity": 47, "note_on_time": 155.454, "note_off_time": 155.897}, {"pitch": 77, "velocity": 43, "note_on_time": 156.074, "note_off_time": 156.406}, {"pitch": 79, "velocity": 32, "note_on_time": 156.728, "note_off_time": 157.047}, {"pitch": 74, "velocity": 41, "note_on_time": 157.299, "note_off_time": 157.635}, {"pitch": 76, "velocity": 56, "note_on_time": 157.865, "note_off_time": 158.542}, {"pitch": 77, "velocity": 59, "note_on_time": 158.863, "note_off_time": 159.708}, {"pitch": 79, "velocity": 41, "note_on_time": 160.235, "note_off_time": 160.561}, {"pitch": 76, "velocity": 24, "note_on_time": 160.857, "note_off_time": 161.198}, {"pitch": 77, "velocity": 35, "note_on_time": 161.422, "note_off_time": 161.761}, {"pitch": 74, "velocity": 31, "note_on_time": 162.019, "note_off_time": 162.441}, {"pitch": 76, "velocity": 23, "note_on_time": 162.625, "note_off_time": 163.304}, {"pitch": 72, "velocity": 43, "note_on_time": 163.674, "note_off_time": 163.858}, {"pitch": 74, "velocity": 52, "note_on_time": 163.867, "note_off_time": 164.632}, {"pitch": 76, "velocity": 64, "note_on_time": 165.122, "note_off_time": 165.93}, {"pitch": 77, "velocity": 60, "note_on_time": 166.182, "note_off_time": 166.361}, {"pitch": 77, "velocity": 52, "note_on_time": 166.474, "note_off_time": 167.137}, {"pitch": 76, "velocity": 46, "note_on_time": 167.638, "note_off_time": 168.186}, {"pitch": 74, "velocity": 59, "note_on_time": 168.726, "note_off_time": 168.878}, {"pitch": 74, "velocity": 42, "note_on_time": 168.977, "note_off_time": 169.579}, {"pitch": 72, "velocity": 63, "note_on_time": 170.047, "note_off_time": 170.657}, {"pitch": 74, "velocity": 62, "note_on_time": 170.661, "note_off_time": 171.068}, {"pitch": 76, "velocity": 60, "note_on_time": 171.271, "note_off_time": 171.617}, {"pitch": 77, "velocity": 65, "note_on_time": 171.835, "note_off_time": 172.118}, {"pitch": 79, "velocity": 61, "note_on_time": 172.401, "note_off_time": 172.753}, {"pitch": 77, "velocity": 54, "note_on_time": 173.093, "note_off_time": 173.339}, {"pitch": 76, "velocity": 49, "note_on_time": 173.652, "note_off_time": 174.384}, {"pitch": 74, "velocity": 58, "note_on_time": 174.82, "note_off_time": 175.56}, {"pitch": 76, "velocity": 44, "note_on_time": 175.875, "note_off_time": 176.026}, {"pitch": 74, "velocity": 42, "note_on_time": 176.049, "note_off_time": 176.513}, {"pitch": 72, "velocity": 60, "note_on_time": 177.079, "note_off_time": 177.292}, {"pitch": 74, "velocity": 38, "note_on_time": 177.313, "note_off_time": 178.098}, {"pitch": 72, "velocity": 54, "note_on_time": 178.277, "note_off_time": 178.521}, {"pitch": 74, "velocity": 60, "note_on_time": 178.478, "note_off_time": 179.008}, {"pitch": 76, "velocity": 43, "note_on_time": 179.68, "note_off_time": 180.11}, {"pitch": 74, "velocity": 27, "note_on_time": 180.281, "note_off_time": 180.613}, {"pitch": 76, "velocity": 48, "note_on_time": 180.888, "note_off_time": 181.183}, {"pitch": 77, "velocity": 57, "note_on_time": 181.459, "note_off_time": 181.842}, {"pitch": 76, "velocity": 55, "note_on_time": 182.139, "note_off_time": 182.887}, {"pitch": 79, "velocity": 59, "note_on_time": 183.163, "note_off_time": 183.332}, {"pitch": 79, "velocity": 40, "note_on_time": 183.413, "note_off_time": 183.997}, {"pitch": 76, "velocity": 37, "note_on_time": 184.643, "note_off_time": 185.089}, {"pitch": 77, "velocity": 35, "note_on_time": 185.173, "note_off_time": 185.656}, {"pitch": 76, "velocity": 36, "note_on_time": 185.737, "note_off_time": 186.327}, {"pitch": 77, "velocity": 49, "note_on_time": 186.332, "note_off_time": 186.68}, {"pitch": 76, "velocity": 56, "note_on_time": 187.969, "note_off_time": 188.084}, {"pitch": 76, "velocity": 48, "note_on_time": 188.197, "note_off_time": 188.62}, {"pitch": 74, "velocity": 30, "note_on_time": 186.945, "note_off_time": 188.764}, {"pitch": 72, "velocity": 49, "note_on_time": 189.5, "note_off_time": 190.393}, {"pitch": 74, "velocity": 50, "note_on_time": 190.041, "note_off_time": 190.497}, {"pitch": 72, "velocity": 53, "note_on_time": 190.571, "note_off_time": 191.584}, {"pitch": 74, "velocity": 48, "note_on_time": 191.161, "note_off_time": 191.701}, {"pitch": 72, "velocity": 63, "note_on_time": 191.832, "note_off_time": 192.514}, {"pitch": 74, "velocity": 49, "note_on_time": 192.871, "note_off_time": 193.0}, {"pitch": 72, "velocity": 60, "note_on_time": 192.998, "note_off_time": 193.736}]</notes><guidance name="Guidance Mode">None</guidance><error name="Error value">99</error></trial><trial trial_no="3" timestamp="2023_06_13-11_36_44"><notes name="Played Notes">[{"pitch": 74, "velocity": 51, "note_on_time": 2.482, "note_off_time": 3.414}, {"pitch": 76, "velocity": 56, "note_on_time": 3.529, "note_off_time": 3.689}, {"pitch": 74, "velocity": 65, "note_on_time": 3.723, "note_off_time": 4.599}, {"pitch": 77, "velocity": 45, "note_on_time": 4.796, "note_off_time": 5.608}, {"pitch": 76, "velocity": 77, "note_on_time": 5.057, "note_off_time": 5.747}, {"pitch": 79, "velocity": 59, "note_on_time": 5.942, "note_off_time": 6.273}, {"pitch": 77, "velocity": 54, "note_on_time": 6.196, "note_off_time": 6.798}, {"pitch": 79, "velocity": 66, "note_on_time": 7.187, "note_off_time": 7.375}, {"pitch": 77, "velocity": 92, "note_on_time": 7.384, "note_off_time": 8.023}, {"pitch": 79, "velocity": 72, "note_on_time": 7.975, "note_off_time": 8.886}, {"pitch": 77, "velocity": 74, "note_on_time": 8.534, "note_off_time": 9.038}, {"pitch": 77, "velocity": 59, "note_on_time": 9.591, "note_off_time": 9.719}, {"pitch": 76, "velocity": 66, "note_on_time": 9.739, "note_off_time": 10.404}, {"pitch": 74, "velocity": 58, "note_on_time": 10.727, "note_off_time": 10.91}, {"pitch": 72, "velocity": 58, "note_on_time": 11.93, "note_off_time": 12.005}, {"pitch": 76, "velocity": 53, "note_on_time": 10.927, "note_off_time": 12.678}, {"pitch": 72, "velocity": 36, "note_on_time": 12.092, "note_off_time": 12.793}, {"pitch": 77, "velocity": 47, "note_on_time": 13.137, "note_off_time": 13.341}, {"pitch": 74, "velocity": 62, "note_on_time": 13.333, "note_off_time": 14.007}, {"pitch": 76, "velocity": 42, "note_on_time": 14.616, "note_off_time": 14.994}, {"pitch": 77, "velocity": 63, "note_on_time": 15.234, "note_off_time": 15.689}, {"pitch": 79, "velocity": 35, "note_on_time": 15.81, "note_off_time": 16.233}, {"pitch": 77, "velocity": 60, "note_on_time": 16.34, "note_off_time": 16.678}, {"pitch": 79, "velocity": 32, "note_on_time": 16.986, "note_off_time": 18.017}, {"pitch": 77, "velocity": 45, "note_on_time": 18.114, "note_off_time": 18.314}, {"pitch": 79, "velocity": 47, "note_on_time": 18.323, "note_off_time": 18.822}, {"pitch": 74, "velocity": 41, "note_on_time": 19.581, "note_off_time": 20.11}, {"pitch": 77, "velocity": 31, "note_on_time": 20.026, "note_off_time": 20.489}, {"pitch": 76, "velocity": 45, "note_on_time": 20.576, "note_off_time": 20.798}, {"pitch": 77, "velocity": 75, "note_on_time": 20.791, "note_off_time": 21.319}, {"pitch": 74, "velocity": 40, "note_on_time": 21.735, "note_off_time": 21.959}, {"pitch": 76, "velocity": 46, "note_on_time": 21.919, "note_off_time": 22.293}, {"pitch": 74, "velocity": 60, "note_on_time": 22.917, "note_off_time": 23.039}, {"pitch": 74, "velocity": 51, "note_on_time": 23.158, "note_off_time": 23.571}, {"pitch": 72, "velocity": 50, "note_on_time": 22.389, "note_off_time": 23.594}, {"pitch": 76, "velocity": 28, "note_on_time": 24.34, "note_off_time": 24.908}, {"pitch": 77, "velocity": 58, "note_on_time": 24.829, "note_off_time": 25.122}, {"pitch": 77, "velocity": 30, "note_on_time": 25.412, "note_off_time": 25.463}, {"pitch": 79, "velocity": 58, "note_on_time": 25.471, "note_off_time": 25.679}, {"pitch": 77, "velocity": 58, "note_on_time": 25.687, "note_off_time": 26.033}, {"pitch": 74, "velocity": 48, "note_on_time": 26.595, "note_off_time": 26.762}, {"pitch": 76, "velocity": 44, "note_on_time": 26.743, "note_off_time": 27.124}, {"pitch": 77, "velocity": 47, "note_on_time": 27.75, "note_off_time": 27.87}, {"pitch": 79, "velocity": 60, "note_on_time": 27.828, "note_off_time": 28.362}, {"pitch": 76, "velocity": 13, "note_on_time": 29.078, "note_off_time": 29.305}, {"pitch": 77, "velocity": 51, "note_on_time": 29.338, "note_off_time": 29.723}, {"pitch": 74, "velocity": 47, "note_on_time": 30.063, "note_off_time": 30.289}, {"pitch": 76, "velocity": 39, "note_on_time": 30.254, "note_off_time": 30.695}, {"pitch": 77, "velocity": 41, "note_on_time": 31.661, "note_off_time": 32.134}, {"pitch": 79, "velocity": 19, "note_on_time": 31.69, "note_off_time": 32.16}, {"pitch": 76, "velocity": 56, "note_on_time": 32.493, "note_off_time": 32.664}, {"pitch": 77, "velocity": 40, "note_on_time": 32.683, "note_off_time": 33.014}, {"pitch": 74, "velocity": 25, "note_on_time": 33.863, "note_off_time": 33.989}, {"pitch": 76, "velocity": 27, "note_on_time": 34.03, "note_off_time": 34.487}, {"pitch": 72, "velocity": 38, "note_on_time": 34.719, "note_off_time": 35.005}, {"pitch": 74, "velocity": 41, "note_on_time": 35.26, "note_off_time": 35.562}, {"pitch": 76, "velocity": 56, "note_on_time": 35.841, "note_off_time": 36.113}, {"pitch": 77, "velocity": 59, "note_on_time": 36.418, "note_off_time": 36.929}, {"pitch": 79, "velocity": 16, "note_on_time": 37.574, "note_off_time": 37.732}, {"pitch": 81, "velocity": 42, "note_on_time": 37.746, "note_off_time": 38.24}, {"pitch": 77, "velocity": 46, "note_on_time": 38.67, "note_off_time": 38.823}, {"pitch": 79, "velocity": 44, "note_on_time": 38.827, "note_off_time": 39.344}, {"pitch": 76, "velocity": 53, "note_on_time": 39.813, "note_off_time": 39.945}, {"pitch": 77, "velocity": 44, "note_on_time": 39.944, "note_off_time": 40.332}, {"pitch": 74, "velocity": 42, "note_on_time": 41.123, "note_off_time": 41.365}, {"pitch": 76, "velocity": 67, "note_on_time": 41.311, "note_off_time": 41.945}, {"pitch": 74, "velocity": 52, "note_on_time": 42.311, "note_off_time": 42.48}, {"pitch": 72, "velocity": 58, "note_on_time": 42.514, "note_off_time": 42.908}, {"pitch": 76, "velocity": 68, "note_on_time": 43.816, "note_off_time": 44.065}, {"pitch": 74, "velocity": 59, "note_on_time": 44.313, "note_off_time": 44.556}, {"pitch": 77, "velocity": 39, "note_on_time": 44.906, "note_off_time": 45.527}, {"pitch": 76, "velocity": 68, "note_on_time": 45.964, "note_off_time": 46.111}, {"pitch": 77, "velocity": 59, "note_on_time": 46.195, "note_off_time": 46.567}, {"pitch": 74, "velocity": 53, "note_on_time": 47.215, "note_off_time": 47.985}, {"pitch": 76, "velocity": 54, "note_on_time": 47.463, "note_off_time": 48.017}, {"pitch": 72, "velocity": 80, "note_on_time": 48.672, "note_off_time": 49.557}, {"pitch": 74, "velocity": 66, "note_on_time": 49.928, "note_off_time": 50.654}, {"pitch": 77, "velocity": 70, "note_on_time": 51.112, "note_off_time": 51.504}, {"pitch": 79, "velocity": 71, "note_on_time": 51.691, "note_off_time": 52.073}, {"pitch": 76, "velocity": 67, "note_on_time": 52.263, "note_off_time": 53.074}, {"pitch": 74, "velocity": 73, "note_on_time": 53.539, "note_off_time": 54.214}, {"pitch": 76, "velocity": 75, "note_on_time": 54.576, "note_off_time": 54.733}, {"pitch": 72, "velocity": 69, "note_on_time": 54.776, "note_off_time": 55.396}, {"pitch": 76, "velocity": 56, "note_on_time": 55.799, "note_off_time": 55.964}, {"pitch": 79, "velocity": 53, "note_on_time": 56.011, "note_off_time": 56.543}, {"pitch": 76, "velocity": 47, "note_on_time": 56.585, "note_off_time": 57.533}, {"pitch": 79, "velocity": 48, "note_on_time": 57.126, "note_off_time": 57.822}, {"pitch": 77, "velocity": 69, "note_on_time": 58.109, "note_off_time": 58.739}, {"pitch": 76, "velocity": 62, "note_on_time": 59.358, "note_off_time": 59.491}, {"pitch": 76, "velocity": 33, "note_on_time": 59.574, "note_off_time": 59.961}, {"pitch": 74, "velocity": 51, "note_on_time": 60.475, "note_off_time": 60.61}, {"pitch": 74, "velocity": 50, "note_on_time": 60.732, "note_off_time": 61.044}, {"pitch": 77, "velocity": 44, "note_on_time": 61.477, "note_off_time": 61.78}, {"pitch": 76, "velocity": 53, "note_on_time": 62.187, "note_off_time": 62.716}, {"pitch": 74, "velocity": 58, "note_on_time": 63.237, "note_off_time": 63.468}, {"pitch": 77, "velocity": 49, "note_on_time": 63.815, "note_off_time": 63.993}, {"pitch": 74, "velocity": 31, "note_on_time": 65.205, "note_off_time": 65.458}, {"pitch": 74, "velocity": 57, "note_on_time": 65.553, "note_off_time": 65.744}, {"pitch": 76, "velocity": 63, "note_on_time": 68.745, "note_off_time": 69.004}, {"pitch": 77, "velocity": 55, "note_on_time": 69.239, "note_off_time": 69.467}, {"pitch": 76, "velocity": 54, "note_on_time": 70.411, "note_off_time": 70.683}, {"pitch": 77, "velocity": 47, "note_on_time": 70.804, "note_off_time": 70.967}, {"pitch": 74, "velocity": 44, "note_on_time": 71.419, "note_off_time": 71.549}, {"pitch": 74, "velocity": 44, "note_on_time": 71.703, "note_off_time": 72.401}, {"pitch": 72, "velocity": 65, "note_on_time": 72.944, "note_off_time": 73.446}, {"pitch": 76, "velocity": 42, "note_on_time": 73.61, "note_off_time": 73.98}, {"pitch": 74, "velocity": 35, "note_on_time": 74.187, "note_off_time": 74.581}, {"pitch": 77, "velocity": 44, "note_on_time": 74.744, "note_off_time": 75.211}, {"pitch": 76, "velocity": 43, "note_on_time": 75.307, "note_off_time": 76.028}, {"pitch": 79, "velocity": 49, "note_on_time": 76.337, "note_off_time": 76.512}, {"pitch": 79, "velocity": 51, "note_on_time": 76.605, "note_off_time": 77.224}, {"pitch": 72, "velocity": 57, "note_on_time": 77.779, "note_off_time": 78.228}, {"pitch": 74, "velocity": 25, "note_on_time": 78.389, "note_off_time": 78.656}, {"pitch": 76, "velocity": 44, "note_on_time": 78.951, "note_off_time": 79.218}, {"pitch": 77, "velocity": 34, "note_on_time": 79.546, "note_off_time": 79.808}, {"pitch": 79, "velocity": 66, "note_on_time": 80.173, "note_off_time": 81.141}, {"pitch": 72, "velocity": 67, "note_on_time": 81.213, "note_off_time": 81.326}, {"pitch": 72, "velocity": 47, "note_on_time": 81.463, "note_off_time": 82.229}, {"pitch": 76, "velocity": 50, "note_on_time": 82.678, "note_off_time": 83.021}, {"pitch": 74, "velocity": 27, "note_on_time": 83.295, "note_off_time": 83.555}, {"pitch": 77, "velocity": 55, "note_on_time": 83.824, "note_off_time": 84.136}, {"pitch": 74, "velocity": 40, "note_on_time": 84.419, "note_off_time": 84.685}, {"pitch": 77, "velocity": 50, "note_on_time": 85.043, "note_off_time": 86.157}, {"pitch": 72, "velocity": 61, "note_on_time": 86.154, "note_off_time": 86.256}, {"pitch": 72, "velocity": 45, "note_on_time": 86.347, "note_off_time": 86.967}, {"pitch": 79, "velocity": 54, "note_on_time": 87.523, "note_off_time": 87.849}, {"pitch": 79, "velocity": 41, "note_on_time": 88.051, "note_off_time": 88.367}, {"pitch": 77, "velocity": 59, "note_on_time": 88.676, "note_off_time": 89.548}, {"pitch": 71, "velocity": 25, "note_on_time": 90.238, "note_off_time": 90.324}, {"pitch": 71, "velocity": 22, "note_on_time": 90.479, "note_off_time": 90.622}, {"pitch": 76, "velocity": 23, "note_on_time": 91.036, "note_off_time": 91.562}, {"pitch": 74, "velocity": 10, "note_on_time": 91.057, "note_off_time": 91.582}, {"pitch": 76, "velocity": 46, "note_on_time": 92.326, "note_off_time": 92.598}, {"pitch": 74, "velocity": 49, "note_on_time": 92.852, "note_off_time": 93.098}, {"pitch": 72, "velocity": 35, "note_on_time": 93.406, "note_off_time": 93.741}, {"pitch": 71, "velocity": 42, "note_on_time": 94.182, "note_off_time": 94.446}, {"pitch": 72, "velocity": 47, "note_on_time": 94.792, "note_off_time": 95.336}, {"pitch": 74, "velocity": 49, "note_on_time": 95.852, "note_off_time": 96.002}, {"pitch": 76, "velocity": 44, "note_on_time": 96.136, "note_off_time": 96.65}, {"pitch": 77, "velocity": 47, "note_on_time": 97.283, "note_off_time": 97.574}, {"pitch": 76, "velocity": 48, "note_on_time": 97.818, "note_off_time": 98.037}, {"pitch": 72, "velocity": 19, "note_on_time": 98.405, "note_off_time": 98.716}, {"pitch": 76, "velocity": 28, "note_on_time": 99.059, "note_off_time": 99.329}, {"pitch": 74, "velocity": 22, "note_on_time": 99.662, "note_off_time": 100.176}, {"pitch": 76, "velocity": 56, "note_on_time": 100.599, "note_off_time": 100.712}, {"pitch": 76, "velocity": 45, "note_on_time": 100.826, "note_off_time": 101.283}, {"pitch": 71, "velocity": 60, "note_on_time": 102.039, "note_off_time": 102.384}, {"pitch": 71, "velocity": 36, "note_on_time": 102.557, "note_off_time": 102.948}, {"pitch": 74, "velocity": 12, "note_on_time": 103.218, "note_off_time": 103.363}, {"pitch": 72, "velocity": 47, "note_on_time": 103.444, "note_off_time": 103.974}, {"pitch": 74, "velocity": 50, "note_on_time": 104.407, "note_off_time": 104.585}, {"pitch": 76, "velocity": 13, "note_on_time": 104.679, "note_off_time": 105.094}, {"pitch": 77, "velocity": 54, "note_on_time": 105.516, "note_off_time": 105.693}, {"pitch": 76, "velocity": 37, "note_on_time": 105.789, "note_off_time": 106.19}, {"pitch": 74, "velocity": 42, "note_on_time": 106.947, "note_off_time": 107.23}, {"pitch": 72, "velocity": 52, "note_on_time": 107.556, "note_off_time": 107.935}, {"pitch": 76, "velocity": 29, "note_on_time": 108.094, "note_off_time": 108.574}, {"pitch": 72, "velocity": 49, "note_on_time": 108.756, "note_off_time": 108.961}, {"pitch": 71, "velocity": 36, "note_on_time": 109.338, "note_off_time": 109.983}, {"pitch": 71, "velocity": 63, "note_on_time": 110.31, "note_off_time": 110.49}, {"pitch": 74, "velocity": 29, "note_on_time": 110.604, "note_off_time": 111.219}, {"pitch": 71, "velocity": 43, "note_on_time": 111.583, "note_off_time": 111.751}, {"pitch": 74, "velocity": 22, "note_on_time": 111.861, "note_off_time": 112.389}, {"pitch": 76, "velocity": 41, "note_on_time": 112.787, "note_off_time": 112.982}, {"pitch": 72, "velocity": 38, "note_on_time": 113.053, "note_off_time": 113.622}, {"pitch": 76, "velocity": 33, "note_on_time": 113.974, "note_off_time": 114.166}, {"pitch": 72, "velocity": 46, "note_on_time": 114.222, "note_off_time": 114.52}, {"pitch": 74, "velocity": 57, "note_on_time": 115.192, "note_off_time": 115.442}, {"pitch": 77, "velocity": 29, "note_on_time": 115.44, "note_off_time": 116.009}, {"pitch": 76, "velocity": 47, "note_on_time": 116.382, "note_off_time": 117.083}, {"pitch": 74, "velocity": 40, "note_on_time": 117.644, "note_off_time": 117.851}, {"pitch": 72, "velocity": 63, "note_on_time": 118.234, "note_off_time": 118.568}, {"pitch": 74, "velocity": 33, "note_on_time": 119.104, "note_off_time": 119.682}, {"pitch": 72, "velocity": 56, "note_on_time": 120.064, "note_off_time": 120.242}, {"pitch": 74, "velocity": 33, "note_on_time": 120.308, "note_off_time": 120.763}, {"pitch": 71, "velocity": 45, "note_on_time": 121.316, "note_off_time": 121.447}, {"pitch": 72, "velocity": 44, "note_on_time": 121.59, "note_off_time": 121.882}, {"pitch": 69, "velocity": 54, "note_on_time": 122.147, "note_off_time": 122.357}, {"pitch": 72, "velocity": 56, "note_on_time": 122.764, "note_off_time": 123.314}, {"pitch": 69, "velocity": 62, "note_on_time": 123.659, "note_off_time": 123.724}, {"pitch": 69, "velocity": 62, "note_on_time": 123.848, "note_off_time": 124.514}, {"pitch": 71, "velocity": 57, "note_on_time": 124.889, "note_off_time": 125.095}, {"pitch": 74, "velocity": 38, "note_on_time": 125.161, "note_off_time": 125.709}, {"pitch": 76, "velocity": 52, "note_on_time": 126.213, "note_off_time": 126.555}, {"pitch": 72, "velocity": 49, "note_on_time": 126.848, "note_off_time": 126.992}, {"pitch": 72, "velocity": 68, "note_on_time": 127.258, "note_off_time": 127.359}, {"pitch": 72, "velocity": 66, "note_on_time": 127.458, "note_off_time": 128.573}, {"pitch": 76, "velocity": 52, "note_on_time": 128.772, "note_off_time": 129.337}, {"pitch": 74, "velocity": 36, "note_on_time": 129.375, "note_off_time": 129.76}, {"pitch": 76, "velocity": 49, "note_on_time": 130.027, "note_off_time": 130.552}, {"pitch": 71, "velocity": 75, "note_on_time": 131.209, "note_off_time": 131.932}, {"pitch": 74, "velocity": 62, "note_on_time": 132.234, "note_off_time": 132.378}, {"pitch": 74, "velocity": 36, "note_on_time": 132.486, "note_off_time": 133.04}, {"pitch": 69, "velocity": 64, "note_on_time": 133.633, "note_off_time": 134.363}, {"pitch": 71, "velocity": 63, "note_on_time": 134.709, "note_off_time": 134.817}, {"pitch": 71, "velocity": 58, "note_on_time": 134.91, "note_off_time": 135.451}, {"pitch": 74, "velocity": 34, "note_on_time": 136.063, "note_off_time": 136.404}, {"pitch": 72, "velocity": 49, "note_on_time": 136.595, "note_off_time": 136.828}, {"pitch": 71, "velocity": 51, "note_on_time": 137.195, "note_off_time": 137.489}, {"pitch": 76, "velocity": 48, "note_on_time": 137.8, "note_off_time": 138.02}, {"pitch": 77, "velocity": 48, "note_on_time": 138.393, "note_off_time": 138.985}, {"pitch": 74, "velocity": 30, "note_on_time": 139.48, "note_off_time": 139.657}, {"pitch": 76, "velocity": 39, "note_on_time": 139.725, "note_off_time": 140.212}, {"pitch": 72, "velocity": 35, "note_on_time": 140.749, "note_off_time": 141.397}, {"pitch": 71, "velocity": 1, "note_on_time": 141.824, "note_off_time": 141.994}, {"pitch": 71, "velocity": 45, "note_on_time": 142.147, "note_off_time": 142.878}, {"pitch": 74, "velocity": 22, "note_on_time": 143.466, "note_off_time": 144.115}, {"pitch": 71, "velocity": 39, "note_on_time": 144.405, "note_off_time": 144.58}, {"pitch": 74, "velocity": 22, "note_on_time": 144.673, "note_off_time": 145.231}, {"pitch": 71, "velocity": 73, "note_on_time": 145.708, "note_off_time": 146.6}, {"pitch": 74, "velocity": 7, "note_on_time": 147.09, "note_off_time": 147.723}, {"pitch": 71, "velocity": 3, "note_on_time": 148.361, "note_off_time": 149.024}, {"pitch": 74, "velocity": 13, "note_on_time": 149.477, "note_off_time": 150.06}, {"pitch": 74, "velocity": 49, "note_on_time": 151.239, "note_off_time": 151.581}, {"pitch": 71, "velocity": 70, "note_on_time": 150.721, "note_off_time": 151.756}, {"pitch": 74, "velocity": 39, "note_on_time": 151.863, "note_off_time": 152.258}, {"pitch": 71, "velocity": 52, "note_on_time": 152.474, "note_off_time": 152.798}, {"pitch": 74, "velocity": 39, "note_on_time": 153.114, "note_off_time": 153.49}, {"pitch": 72, "velocity": 51, "note_on_time": 153.711, "note_off_time": 154.113}, {"pitch": 76, "velocity": 53, "note_on_time": 154.282, "note_off_time": 155.223}, {"pitch": 74, "velocity": 50, "note_on_time": 155.506, "note_off_time": 156.041}, {"pitch": 77, "velocity": 36, "note_on_time": 156.068, "note_off_time": 156.6}, {"pitch": 76, "velocity": 43, "note_on_time": 156.671, "note_off_time": 157.015}, {"pitch": 74, "velocity": 44, "note_on_time": 157.304, "note_off_time": 157.686}, {"pitch": 76, "velocity": 42, "note_on_time": 157.891, "note_off_time": 158.423}, {"pitch": 72, "velocity": 1, "note_on_time": 159.054, "note_off_time": 159.318}, {"pitch": 71, "velocity": 69, "note_on_time": 159.305, "note_off_time": 159.757}, {"pitch": 72, "velocity": 40, "note_on_time": 160.266, "note_off_time": 160.461}, {"pitch": 74, "velocity": 51, "note_on_time": 160.489, "note_off_time": 161.039}, {"pitch": 71, "velocity": 35, "note_on_time": 161.362, "note_off_time": 161.522}, {"pitch": 72, "velocity": 46, "note_on_time": 161.536, "note_off_time": 161.983}, {"pitch": 69, "velocity": 52, "note_on_time": 162.194, "note_off_time": 162.664}, {"pitch": 71, "velocity": 53, "note_on_time": 162.806, "note_off_time": 163.132}, {"pitch": 72, "velocity": 63, "note_on_time": 163.393, "note_off_time": 163.703}, {"pitch": 74, "velocity": 54, "note_on_time": 163.994, "note_off_time": 164.323}, {"pitch": 76, "velocity": 58, "note_on_time": 164.58, "note_off_time": 164.891}, {"pitch": 77, "velocity": 56, "note_on_time": 165.16, "note_off_time": 165.711}, {"pitch": 76, "velocity": 44, "note_on_time": 166.128, "note_off_time": 166.259}, {"pitch": 76, "velocity": 48, "note_on_time": 166.401, "note_off_time": 166.857}, {"pitch": 74, "velocity": 46, "note_on_time": 167.097, "note_off_time": 167.369}, {"pitch": 72, "velocity": 50, "note_on_time": 167.655, "note_off_time": 168.0}, {"pitch": 74, "velocity": 51, "note_on_time": 168.25, "note_off_time": 168.649}, {"pitch": 71, "velocity": 57, "note_on_time": 168.862, "note_off_time": 169.464}, {"pitch": 74, "velocity": 44, "note_on_time": 169.414, "note_off_time": 169.806}, {"pitch": 71, "velocity": 62, "note_on_time": 169.85, "note_off_time": 170.036}, {"pitch": 72, "velocity": 65, "note_on_time": 170.061, "note_off_time": 170.812}, {"pitch": 71, "velocity": 51, "note_on_time": 171.068, "note_off_time": 171.218}, {"pitch": 72, "velocity": 46, "note_on_time": 171.26, "note_off_time": 171.622}, {"pitch": 74, "velocity": 44, "note_on_time": 171.944, "note_off_time": 172.202}, {"pitch": 76, "velocity": 33, "note_on_time": 172.498, "note_off_time": 172.802}, {"pitch": 74, "velocity": 55, "note_on_time": 173.012, "note_off_time": 173.237}, {"pitch": 72, "velocity": 41, "note_on_time": 173.498, "note_off_time": 173.772}, {"pitch": 76, "velocity": 41, "note_on_time": 173.855, "note_off_time": 174.314}, {"pitch": 71, "velocity": 62, "note_on_time": 174.69, "note_off_time": 174.89}, {"pitch": 72, "velocity": 23, "note_on_time": 174.965, "note_off_time": 175.491}, {"pitch": 74, "velocity": 48, "note_on_time": 175.757, "note_off_time": 175.963}, {"pitch": 72, "velocity": 33, "note_on_time": 176.035, "note_off_time": 176.579}, {"pitch": 76, "velocity": 46, "note_on_time": 176.737, "note_off_time": 177.064}, {"pitch": 77, "velocity": 35, "note_on_time": 177.338, "note_off_time": 177.818}, {"pitch": 76, "velocity": 35, "note_on_time": 178.006, "note_off_time": 178.237}, {"pitch": 74, "velocity": 45, "note_on_time": 178.586, "note_off_time": 179.288}, {"pitch": 72, "velocity": 49, "note_on_time": 179.628, "note_off_time": 179.786}, {"pitch": 76, "velocity": 38, "note_on_time": 179.844, "note_off_time": 180.423}, {"pitch": 71, "velocity": 56, "note_on_time": 180.855, "note_off_time": 180.997}, {"pitch": 74, "velocity": 42, "note_on_time": 181.076, "note_off_time": 181.586}, {"pitch": 72, "velocity": 56, "note_on_time": 182.043, "note_off_time": 182.226}, {"pitch": 76, "velocity": 38, "note_on_time": 182.283, "note_off_time": 182.793}, {"pitch": 74, "velocity": 40, "note_on_time": 183.285, "note_off_time": 183.455}, {"pitch": 77, "velocity": 41, "note_on_time": 183.508, "note_off_time": 183.998}, {"pitch": 74, "velocity": 36, "note_on_time": 184.106, "note_off_time": 184.628}, {"pitch": 76, "velocity": 39, "note_on_time": 184.695, "note_off_time": 185.321}, {"pitch": 72, "velocity": 54, "note_on_time": 185.373, "note_off_time": 185.87}, {"pitch": 74, "velocity": 49, "note_on_time": 185.931, "note_off_time": 186.826}, {"pitch": 71, "velocity": 9, "note_on_time": 187.039, "note_off_time": 187.253}, {"pitch": 74, "velocity": 32, "note_on_time": 187.331, "note_off_time": 187.832}, {"pitch": 72, "velocity": 53, "note_on_time": 188.183, "note_off_time": 188.351}, {"pitch": 76, "velocity": 45, "note_on_time": 188.432, "note_off_time": 188.985}, {"pitch": 74, "velocity": 31, "note_on_time": 189.299, "note_off_time": 189.506}, {"pitch": 77, "velocity": 45, "note_on_time": 189.535, "note_off_time": 190.098}, {"pitch": 74, "velocity": 48, "note_on_time": 190.149, "note_off_time": 190.705}, {"pitch": 76, "velocity": 39, "note_on_time": 190.746, "note_off_time": 191.26}, {"pitch": 72, "velocity": 46, "note_on_time": 191.274, "note_off_time": 191.628}, {"pitch": 74, "velocity": 29, "note_on_time": 191.747, "note_off_time": 191.984}, {"pitch": 72, "velocity": 40, "note_on_time": 192.054, "note_off_time": 192.453}, {"pitch": 71, "velocity": 32, "note_on_time": 192.048, "note_off_time": 192.496}, {"pitch": 74, "velocity": 31, "note_on_time": 193.034, "note_off_time": 193.184}, {"pitch": 72, "velocity": 38, "note_on_time": 193.244, "note_off_time": 193.631}, {"pitch": 71, "velocity": 62, "note_on_time": 193.884, "note_off_time": 194.216}]</notes><guidance name="Guidance Mode">None</guidance><error name="Error value">99</error></trial></trials></MIDI>