<MIDI midiNo="2023_06_19-11_08_54"><target_notes><notes name="Note List">[{"pitch": 60, "velocity": 40, "note_on_time": 0.011, "note_off_time": 1.017}, {"pitch": 64, "velocity": 40, "note_on_time": 0.011, "note_off_time": 1.019}, {"pitch": 67, "velocity": 40, "note_on_time": 0.011, "note_off_time": 1.019}, {"pitch": 48, "velocity": 40, "note_on_time": 0.011, "note_off_time": 1.019}, {"pitch": 52, "velocity": 40, "note_on_time": 1.019, "note_off_time": 2.031}, {"pitch": 55, "velocity": 40, "note_on_time": 1.019, "note_off_time": 2.031}, {"pitch": 76, "velocity": 40, "note_on_time": 2.03, "note_off_time": 3.04}, {"pitch": 48, "velocity": 40, "note_on_time": 2.031, "note_off_time": 3.04}, {"pitch": 52, "velocity": 40, "note_on_time": 3.041, "note_off_time": 4.043}, {"pitch": 55, "velocity": 40, "note_on_time": 3.041, "note_off_time": 4.043}, {"pitch": 48, "velocity": 40, "note_on_time": 4.043, "note_off_time": 5.057}, {"pitch": 52, "velocity": 40, "note_on_time": 5.057, "note_off_time": 6.069}, {"pitch": 55, "velocity": 40, "note_on_time": 5.057, "note_off_time": 6.069}, {"pitch": 48, "velocity": 40, "note_on_time": 6.069, "note_off_time": 7.079}, {"pitch": 52, "velocity": 40, "note_on_time": 7.079, "note_off_time": 8.094}, {"pitch": 55, "velocity": 40, "note_on_time": 7.079, "note_off_time": 8.094}, {"pitch": 60, "velocity": 40, "note_on_time": 8.093, "note_off_time": 9.102}, {"pitch": 64, "velocity": 40, "note_on_time": 8.094, "note_off_time": 9.103}, {"pitch": 67, "velocity": 40, "note_on_time": 8.094, "note_off_time": 9.104}, {"pitch": 48, "velocity": 40, "note_on_time": 8.094, "note_off_time": 9.104}, {"pitch": 52, "velocity": 40, "note_on_time": 9.104, "note_off_time": 10.115}, {"pitch": 55, "velocity": 40, "note_on_time": 9.104, "note_off_time": 10.116}, {"pitch": 72, "velocity": 40, "note_on_time": 10.115, "note_off_time": 11.127}, {"pitch": 48, "velocity": 40, "note_on_time": 10.116, "note_off_time": 11.127}, {"pitch": 52, "velocity": 40, "note_on_time": 11.128, "note_off_time": 12.142}, {"pitch": 55, "velocity": 40, "note_on_time": 11.128, "note_off_time": 12.142}, {"pitch": 48, "velocity": 40, "note_on_time": 12.142, "note_off_time": 13.153}, {"pitch": 52, "velocity": 40, "note_on_time": 13.153, "note_off_time": 14.168}, {"pitch": 55, "velocity": 40, "note_on_time": 13.153, "note_off_time": 14.168}, {"pitch": 48, "velocity": 40, "note_on_time": 14.168, "note_off_time": 15.173}, {"pitch": 52, "velocity": 40, "note_on_time": 15.173, "note_off_time": 16.188}, {"pitch": 55, "velocity": 40, "note_on_time": 15.173, "note_off_time": 16.188}, {"pitch": 60, "velocity": 40, "note_on_time": 16.186, "note_off_time": 17.197}, {"pitch": 64, "velocity": 40, "note_on_time": 16.187, "note_off_time": 17.198}, {"pitch": 67, "velocity": 40, "note_on_time": 16.187, "note_off_time": 17.198}, {"pitch": 48, "velocity": 40, "note_on_time": 16.188, "note_off_time": 17.199}, {"pitch": 52, "velocity": 40, "note_on_time": 17.199, "note_off_time": 18.214}, {"pitch": 55, "velocity": 40, "note_on_time": 17.199, "note_off_time": 18.214}, {"pitch": 76, "velocity": 40, "note_on_time": 18.214, "note_off_time": 19.217}, {"pitch": 48, "velocity": 40, "note_on_time": 18.214, "note_off_time": 19.217}, {"pitch": 52, "velocity": 40, "note_on_time": 19.217, "note_off_time": 20.228}, {"pitch": 55, "velocity": 40, "note_on_time": 19.217, "note_off_time": 20.228}, {"pitch": 48, "velocity": 40, "note_on_time": 20.228, "note_off_time": 21.231}, {"pitch": 52, "velocity": 40, "note_on_time": 21.231, "note_off_time": 22.246}, {"pitch": 55, "velocity": 40, "note_on_time": 21.231, "note_off_time": 22.246}, {"pitch": 48, "velocity": 40, "note_on_time": 22.246, "note_off_time": 23.252}, {"pitch": 52, "velocity": 40, "note_on_time": 23.252, "note_off_time": 24.257}, {"pitch": 55, "velocity": 40, "note_on_time": 23.252, "note_off_time": 24.257}, {"pitch": 60, "velocity": 40, "note_on_time": 24.256, "note_off_time": 25.269}, {"pitch": 64, "velocity": 40, "note_on_time": 24.256, "note_off_time": 25.269}, {"pitch": 67, "velocity": 40, "note_on_time": 24.257, "note_off_time": 25.269}, {"pitch": 48, "velocity": 40, "note_on_time": 24.257, "note_off_time": 25.269}, {"pitch": 52, "velocity": 40, "note_on_time": 25.27, "note_off_time": 26.277}, {"pitch": 55, "velocity": 40, "note_on_time": 25.27, "note_off_time": 26.277}, {"pitch": 74, "velocity": 40, "note_on_time": 26.277, "note_off_time": 27.287}, {"pitch": 48, "velocity": 40, "note_on_time": 26.277, "note_off_time": 27.287}, {"pitch": 52, "velocity": 40, "note_on_time": 27.288, "note_off_time": 28.288}, {"pitch": 55, "velocity": 40, "note_on_time": 27.288, "note_off_time": 28.288}, {"pitch": 48, "velocity": 40, "note_on_time": 28.288, "note_off_time": 29.296}, {"pitch": 52, "velocity": 40, "note_on_time": 29.296, "note_off_time": 30.301}, {"pitch": 55, "velocity": 40, "note_on_time": 29.296, "note_off_time": 30.301}, {"pitch": 48, "velocity": 40, "note_on_time": 30.301, "note_off_time": 31.316}, {"pitch": 52, "velocity": 40, "note_on_time": 31.316, "note_off_time": 32.331}, {"pitch": 55, "velocity": 40, "note_on_time": 31.316, "note_off_time": 32.331}, {"pitch": 60, "velocity": 40, "note_on_time": 32.33, "note_off_time": 33.338}, {"pitch": 64, "velocity": 40, "note_on_time": 32.33, "note_off_time": 33.339}, {"pitch": 67, "velocity": 40, "note_on_time": 32.331, "note_off_time": 33.34}, {"pitch": 48, "velocity": 40, "note_on_time": 32.331, "note_off_time": 33.34}, {"pitch": 52, "velocity": 40, "note_on_time": 33.34, "note_off_time": 34.352}, {"pitch": 55, "velocity": 40, "note_on_time": 33.34, "note_off_time": 34.353}, {"pitch": 76, "velocity": 40, "note_on_time": 34.352, "note_off_time": 35.365}, {"pitch": 48, "velocity": 40, "note_on_time": 34.353, "note_off_time": 35.365}, {"pitch": 52, "velocity": 40, "note_on_time": 35.366, "note_off_time": 36.376}, {"pitch": 55, "velocity": 40, "note_on_time": 35.366, "note_off_time": 36.376}, {"pitch": 48, "velocity": 40, "note_on_time": 36.376, "note_off_time": 37.384}, {"pitch": 52, "velocity": 40, "note_on_time": 37.384, "note_off_time": 38.393}, {"pitch": 55, "velocity": 40, "note_on_time": 37.384, "note_off_time": 38.393}, {"pitch": 48, "velocity": 40, "note_on_time": 38.393, "note_off_time": 39.394}, {"pitch": 52, "velocity": 40, "note_on_time": 39.394, "note_off_time": 40.405}, {"pitch": 55, "velocity": 40, "note_on_time": 39.394, "note_off_time": 40.405}, {"pitch": 60, "velocity": 40, "note_on_time": 40.404, "note_off_time": 41.413}, {"pitch": 64, "velocity": 40, "note_on_time": 40.405, "note_off_time": 41.42}, {"pitch": 67, "velocity": 40, "note_on_time": 40.405, "note_off_time": 41.426}, {"pitch": 77, "velocity": 40, "note_on_time": 42.439, "note_off_time": 43.452}, {"pitch": 60, "velocity": 40, "note_on_time": 48.464, "note_off_time": 49.475}, {"pitch": 64, "velocity": 40, "note_on_time": 48.465, "note_off_time": 49.476}, {"pitch": 67, "velocity": 40, "note_on_time": 48.465, "note_off_time": 49.476}, {"pitch": 72, "velocity": 40, "note_on_time": 50.492, "note_off_time": 51.506}, {"pitch": 60, "velocity": 40, "note_on_time": 56.528, "note_off_time": 57.532}, {"pitch": 64, "velocity": 40, "note_on_time": 56.529, "note_off_time": 57.532}, {"pitch": 67, "velocity": 40, "note_on_time": 56.529, "note_off_time": 57.533}, {"pitch": 79, "velocity": 40, "note_on_time": 58.539, "note_off_time": 59.547}, {"pitch": 60, "velocity": 40, "note_on_time": 64.562, "note_off_time": 65.575}, {"pitch": 64, "velocity": 40, "note_on_time": 64.563, "note_off_time": 65.576}, {"pitch": 67, "velocity": 40, "note_on_time": 64.563, "note_off_time": 65.577}, {"pitch": 77, "velocity": 40, "note_on_time": 66.587, "note_off_time": 67.6}, {"pitch": 60, "velocity": 40, "note_on_time": 72.612, "note_off_time": 73.637}, {"pitch": 64, "velocity": 40, "note_on_time": 72.613, "note_off_time": 73.639}, {"pitch": 67, "velocity": 40, "note_on_time": 72.613, "note_off_time": 73.639}, {"pitch": 79, "velocity": 40, "note_on_time": 74.642, "note_off_time": 75.646}, {"pitch": 60, "velocity": 40, "note_on_time": 80.661, "note_off_time": 81.671}, {"pitch": 64, "velocity": 40, "note_on_time": 80.662, "note_off_time": 81.672}, {"pitch": 67, "velocity": 40, "note_on_time": 80.662, "note_off_time": 81.672}, {"pitch": 77, "velocity": 40, "note_on_time": 82.686, "note_off_time": 83.699}, {"pitch": 60, "velocity": 40, "note_on_time": 88.702, "note_off_time": 89.716}, {"pitch": 64, "velocity": 40, "note_on_time": 88.703, "note_off_time": 89.717}, {"pitch": 67, "velocity": 40, "note_on_time": 88.704, "note_off_time": 89.718}, {"pitch": 74, "velocity": 40, "note_on_time": 90.724, "note_off_time": 91.727}, {"pitch": 60, "velocity": 40, "note_on_time": 96.742, "note_off_time": 97.752}, {"pitch": 64, "velocity": 40, "note_on_time": 96.743, "note_off_time": 97.753}, {"pitch": 67, "velocity": 40, "note_on_time": 96.743, "note_off_time": 97.754}, {"pitch": 76, "velocity": 40, "note_on_time": 98.768, "note_off_time": 99.782}, {"pitch": 60, "velocity": 40, "note_on_time": 104.788, "note_off_time": 105.8}, {"pitch": 64, "velocity": 40, "note_on_time": 104.789, "note_off_time": 105.801}, {"pitch": 67, "velocity": 40, "note_on_time": 104.789, "note_off_time": 105.802}, {"pitch": 72, "velocity": 40, "note_on_time": 106.81, "note_off_time": 107.826}, {"pitch": 60, "velocity": 40, "note_on_time": 112.833, "note_off_time": 113.847}, {"pitch": 64, "velocity": 40, "note_on_time": 112.834, "note_off_time": 113.848}, {"pitch": 67, "velocity": 40, "note_on_time": 112.834, "note_off_time": 113.848}, {"pitch": 79, "velocity": 40, "note_on_time": 114.859, "note_off_time": 115.864}, {"pitch": 60, "velocity": 40, "note_on_time": 120.869, "note_off_time": 121.878}, {"pitch": 64, "velocity": 40, "note_on_time": 120.869, "note_off_time": 121.879}, {"pitch": 67, "velocity": 40, "note_on_time": 120.87, "note_off_time": 121.88}, {"pitch": 77, "velocity": 40, "note_on_time": 122.885, "note_off_time": 123.891}, {"pitch": 60, "velocity": 40, "note_on_time": 128.904, "note_off_time": 129.916}, {"pitch": 64, "velocity": 40, "note_on_time": 128.905, "note_off_time": 129.918}, {"pitch": 67, "velocity": 40, "note_on_time": 128.905, "note_off_time": 129.918}, {"pitch": 74, "velocity": 40, "note_on_time": 130.927, "note_off_time": 131.938}, {"pitch": 60, "velocity": 40, "note_on_time": 136.953, "note_off_time": 137.958}, {"pitch": 64, "velocity": 40, "note_on_time": 136.954, "note_off_time": 137.958}, {"pitch": 67, "velocity": 40, "note_on_time": 136.954, "note_off_time": 137.959}, {"pitch": 72, "velocity": 40, "note_on_time": 138.97, "note_off_time": 139.985}, {"pitch": 60, "velocity": 40, "note_on_time": 144.994, "note_off_time": 146.008}, {"pitch": 64, "velocity": 40, "note_on_time": 144.995, "note_off_time": 146.009}, {"pitch": 67, "velocity": 40, "note_on_time": 144.995, "note_off_time": 146.01}, {"pitch": 79, "velocity": 40, "note_on_time": 147.015, "note_off_time": 148.028}, {"pitch": 60, "velocity": 40, "note_on_time": 153.039, "note_off_time": 154.052}, {"pitch": 64, "velocity": 40, "note_on_time": 153.04, "note_off_time": 154.053}, {"pitch": 67, "velocity": 40, "note_on_time": 153.041, "note_off_time": 154.054}, {"pitch": 74, "velocity": 40, "note_on_time": 155.064, "note_off_time": 156.075}, {"pitch": 60, "velocity": 40, "note_on_time": 161.08, "note_off_time": 162.086}, {"pitch": 64, "velocity": 40, "note_on_time": 161.081, "note_off_time": 162.087}, {"pitch": 67, "velocity": 40, "note_on_time": 161.081, "note_off_time": 162.088}, {"pitch": 76, "velocity": 40, "note_on_time": 163.099, "note_off_time": 164.115}]</notes><options name="Option List">((4, 4), [0.5, 0.25], 3, 8, &lt;NoteRangePerHand.TWO_NOTES: 3&gt;, &lt;NoteRangePerHand.ONE_NOTE: 2&gt;, False, True, True, 100)</options></target_notes><trials><trial trial_no="1" timestamp="2023_06_19-11_06_09"><notes name="Played Notes">[{"pitch": 74, "velocity": 32, "note_on_time": 6.216, "note_off_time": 6.648}, {"pitch": 77, "velocity": 50, "note_on_time": 9.711, "note_off_time": 10.369}, {"pitch": 77, "velocity": 42, "note_on_time": 13.574, "note_off_time": 15.049}, {"pitch": 72, "velocity": 21, "note_on_time": 20.027, "note_off_time": 20.723}, {"pitch": 77, "velocity": 57, "note_on_time": 35.815, "note_off_time": 36.805}, {"pitch": 77, "velocity": 61, "note_on_time": 44.653, "note_off_time": 45.46}, {"pitch": 74, "velocity": 51, "note_on_time": 53.753, "note_off_time": 54.825}, {"pitch": 79, "velocity": 35, "note_on_time": 61.111, "note_off_time": 62.186}, {"pitch": 77, "velocity": 51, "note_on_time": 68.745, "note_off_time": 69.812}, {"pitch": 79, "velocity": 59, "note_on_time": 76.665, "note_off_time": 78.596}, {"pitch": 77, "velocity": 51, "note_on_time": 84.914, "note_off_time": 86.582}, {"pitch": 72, "velocity": 31, "note_on_time": 93.241, "note_off_time": 94.498}, {"pitch": 74, "velocity": 57, "note_on_time": 96.459, "note_off_time": 97.115}, {"pitch": 76, "velocity": 40, "note_on_time": 101.78, "note_off_time": 103.322}, {"pitch": 74, "velocity": 43, "note_on_time": 109.234, "note_off_time": 110.233}, {"pitch": 79, "velocity": 32, "note_on_time": 116.893, "note_off_time": 118.63}, {"pitch": 77, "velocity": 40, "note_on_time": 125.03, "note_off_time": 126.429}, {"pitch": 76, "velocity": 52, "note_on_time": 133.039, "note_off_time": 133.948}, {"pitch": 74, "velocity": 57, "note_on_time": 134.443, "note_off_time": 136.303}, {"pitch": 72, "velocity": 34, "note_on_time": 140.977, "note_off_time": 142.304}, {"pitch": 79, "velocity": 52, "note_on_time": 148.822, "note_off_time": 150.137}, {"pitch": 76, "velocity": 55, "note_on_time": 157.481, "note_off_time": 158.259}, {"pitch": 74, "velocity": 52, "note_on_time": 158.628, "note_off_time": 160.456}]</notes><guidance name="Guidance Mode">None</guidance><error name="Error value">99</error></trial><trial trial_no="2" timestamp="2023_06_19-11_09_47"><notes name="Played Notes">[{"pitch": 72, "velocity": 1, "note_on_time": 2.531, "note_off_time": 3.042}, {"pitch": 74, "velocity": 41, "note_on_time": 3.08, "note_off_time": 3.626}, {"pitch": 72, "velocity": 27, "note_on_time": 3.675, "note_off_time": 4.611}, {"pitch": 74, "velocity": 31, "note_on_time": 4.897, "note_off_time": 5.355}, {"pitch": 72, "velocity": 10, "note_on_time": 5.454, "note_off_time": 5.713}, {"pitch": 79, "velocity": 31, "note_on_time": 7.267, "note_off_time": 7.782}, {"pitch": 77, "velocity": 18, "note_on_time": 8.596, "note_off_time": 9.124}, {"pitch": 76, "velocity": 37, "note_on_time": 9.765, "note_off_time": 10.079}, {"pitch": 72, "velocity": 40, "note_on_time": 10.327, "note_off_time": 10.608}, {"pitch": 76, "velocity": 42, "note_on_time": 10.91, "note_off_time": 11.459}, {"pitch": 72, "velocity": 38, "note_on_time": 12.216, "note_off_time": 12.869}, {"pitch": 72, "velocity": 33, "note_on_time": 13.381, "note_off_time": 14.063}, {"pitch": 74, "velocity": 30, "note_on_time": 14.636, "note_off_time": 15.021}, {"pitch": 76, "velocity": 46, "note_on_time": 15.232, "note_off_time": 15.465}, {"pitch": 74, "velocity": 51, "note_on_time": 15.817, "note_off_time": 16.396}, {"pitch": 77, "velocity": 35, "note_on_time": 17.054, "note_off_time": 17.428}, {"pitch": 79, "velocity": 47, "note_on_time": 17.653, "note_off_time": 17.993}, {"pitch": 72, "velocity": 36, "note_on_time": 18.275, "note_off_time": 18.454}, {"pitch": 79, "velocity": 40, "note_on_time": 18.846, "note_off_time": 19.324}, {"pitch": 76, "velocity": 51, "note_on_time": 19.503, "note_off_time": 19.957}, {"pitch": 74, "velocity": 29, "note_on_time": 20.031, "note_off_time": 20.195}, {"pitch": 72, "velocity": 48, "note_on_time": 20.681, "note_off_time": 21.291}, {"pitch": 72, "velocity": 37, "note_on_time": 21.92, "note_off_time": 22.126}, {"pitch": 74, "velocity": 22, "note_on_time": 22.547, "note_off_time": 22.68}, {"pitch": 77, "velocity": 55, "note_on_time": 23.091, "note_off_time": 23.476}, {"pitch": 77, "velocity": 18, "note_on_time": 24.409, "note_off_time": 24.697}, {"pitch": 76, "velocity": 52, "note_on_time": 25.529, "note_off_time": 25.975}, {"pitch": 79, "velocity": 27, "note_on_time": 26.751, "note_off_time": 27.198}, {"pitch": 76, "velocity": 49, "note_on_time": 27.362, "note_off_time": 27.426}, {"pitch": 76, "velocity": 38, "note_on_time": 27.632, "note_off_time": 27.703}, {"pitch": 72, "velocity": 42, "note_on_time": 27.974, "note_off_time": 28.511}, {"pitch": 72, "velocity": 36, "note_on_time": 29.151, "note_off_time": 29.756}, {"pitch": 74, "velocity": 37, "note_on_time": 29.786, "note_off_time": 29.944}, {"pitch": 76, "velocity": 50, "note_on_time": 30.359, "note_off_time": 30.93}, {"pitch": 79, "velocity": 40, "note_on_time": 31.662, "note_off_time": 31.985}, {"pitch": 72, "velocity": 43, "note_on_time": 32.825, "note_off_time": 33.202}, {"pitch": 77, "velocity": 25, "note_on_time": 34.614, "note_off_time": 35.355}, {"pitch": 79, "velocity": 18, "note_on_time": 34.048, "note_off_time": 35.646}, {"pitch": 76, "velocity": 35, "note_on_time": 35.231, "note_off_time": 35.705}, {"pitch": 79, "velocity": 36, "note_on_time": 36.501, "note_off_time": 37.161}, {"pitch": 74, "velocity": 45, "note_on_time": 37.816, "note_off_time": 38.147}, {"pitch": 79, "velocity": 23, "note_on_time": 37.856, "note_off_time": 38.37}, {"pitch": 72, "velocity": 48, "note_on_time": 37.816, "note_off_time": 38.483}, {"pitch": 76, "velocity": 25, "note_on_time": 39.535, "note_off_time": 39.992}, {"pitch": 74, "velocity": 20, "note_on_time": 40.289, "note_off_time": 40.562}, {"pitch": 79, "velocity": 54, "note_on_time": 38.876, "note_off_time": 40.799}, {"pitch": 72, "velocity": 23, "note_on_time": 41.43, "note_off_time": 43.28}, {"pitch": 77, "velocity": 51, "note_on_time": 43.197, "note_off_time": 43.632}, {"pitch": 74, "velocity": 29, "note_on_time": 42.017, "note_off_time": 43.635}, {"pitch": 76, "velocity": 47, "note_on_time": 42.601, "note_off_time": 43.64}, {"pitch": 79, "velocity": 30, "note_on_time": 43.866, "note_off_time": 44.205}, {"pitch": 79, "velocity": 51, "note_on_time": 44.42, "note_off_time": 44.734}, {"pitch": 79, "velocity": 46, "note_on_time": 45.034, "note_off_time": 45.698}, {"pitch": 77, "velocity": 42, "note_on_time": 46.252, "note_off_time": 46.663}, {"pitch": 76, "velocity": 43, "note_on_time": 46.832, "note_off_time": 47.394}, {"pitch": 74, "velocity": 32, "note_on_time": 47.394, "note_off_time": 48.199}, {"pitch": 72, "velocity": 31, "note_on_time": 47.955, "note_off_time": 48.596}, {"pitch": 79, "velocity": 46, "note_on_time": 48.655, "note_off_time": 48.974}, {"pitch": 79, "velocity": 54, "note_on_time": 49.26, "note_off_time": 49.551}, {"pitch": 72, "velocity": 31, "note_on_time": 49.899, "note_off_time": 50.098}, {"pitch": 72, "velocity": 23, "note_on_time": 51.089, "note_off_time": 51.923}, {"pitch": 79, "velocity": 3, "note_on_time": 51.714, "note_off_time": 52.478}, {"pitch": 76, "velocity": 39, "note_on_time": 52.347, "note_off_time": 52.713}, {"pitch": 76, "velocity": 57, "note_on_time": 53.572, "note_off_time": 53.782}, {"pitch": 77, "velocity": 56, "note_on_time": 54.131, "note_off_time": 54.39}, {"pitch": 79, "velocity": 52, "note_on_time": 54.735, "note_off_time": 55.145}, {"pitch": 76, "velocity": 31, "note_on_time": 57.164, "note_off_time": 57.93}, {"pitch": 77, "velocity": 20, "note_on_time": 56.604, "note_off_time": 58.169}, {"pitch": 79, "velocity": 22, "note_on_time": 55.974, "note_off_time": 58.309}, {"pitch": 74, "velocity": 47, "note_on_time": 57.773, "note_off_time": 58.403}, {"pitch": 72, "velocity": 21, "note_on_time": 58.414, "note_off_time": 58.68}, {"pitch": 72, "velocity": 41, "note_on_time": 59.008, "note_off_time": 59.241}, {"pitch": 72, "velocity": 39, "note_on_time": 59.618, "note_off_time": 60.093}, {"pitch": 79, "velocity": 1, "note_on_time": 63.093, "note_off_time": 63.756}, {"pitch": 79, "velocity": 38, "note_on_time": 65.598, "note_off_time": 65.88}, {"pitch": 79, "velocity": 48, "note_on_time": 66.195, "note_off_time": 66.379}, {"pitch": 79, "velocity": 43, "note_on_time": 66.51, "note_off_time": 66.673}, {"pitch": 79, "velocity": 45, "note_on_time": 66.798, "note_off_time": 67.158}, {"pitch": 79, "velocity": 31, "note_on_time": 67.417, "note_off_time": 67.801}, {"pitch": 77, "velocity": 31, "note_on_time": 68.239, "note_off_time": 68.574}, {"pitch": 76, "velocity": 15, "note_on_time": 68.796, "note_off_time": 69.282}, {"pitch": 74, "velocity": 44, "note_on_time": 69.41, "note_off_time": 69.795}, {"pitch": 79, "velocity": 16, "note_on_time": 70.522, "note_off_time": 70.782}, {"pitch": 79, "velocity": 46, "note_on_time": 71.083, "note_off_time": 71.248}, {"pitch": 79, "velocity": 42, "note_on_time": 71.385, "note_off_time": 71.529}, {"pitch": 79, "velocity": 42, "note_on_time": 71.673, "note_off_time": 71.832}, {"pitch": 79, "velocity": 19, "note_on_time": 72.288, "note_off_time": 72.539}, {"pitch": 79, "velocity": 11, "note_on_time": 72.878, "note_off_time": 73.922}, {"pitch": 77, "velocity": 68, "note_on_time": 73.655, "note_off_time": 74.306}, {"pitch": 72, "velocity": 42, "note_on_time": 74.27, "note_off_time": 74.931}, {"pitch": 74, "velocity": 33, "note_on_time": 76.018, "note_off_time": 76.573}, {"pitch": 72, "velocity": 17, "note_on_time": 75.387, "note_off_time": 76.88}, {"pitch": 76, "velocity": 31, "note_on_time": 76.622, "note_off_time": 76.968}, {"pitch": 76, "velocity": 33, "note_on_time": 78.509, "note_off_time": 79.071}, {"pitch": 74, "velocity": 37, "note_on_time": 79.07, "note_off_time": 79.42}, {"pitch": 72, "velocity": 23, "note_on_time": 77.855, "note_off_time": 79.562}, {"pitch": 76, "velocity": 35, "note_on_time": 80.871, "note_off_time": 81.305}, {"pitch": 72, "velocity": 40, "note_on_time": 80.244, "note_off_time": 81.325}, {"pitch": 74, "velocity": 44, "note_on_time": 81.197, "note_off_time": 81.477}, {"pitch": 72, "velocity": 29, "note_on_time": 81.742, "note_off_time": 81.962}, {"pitch": 72, "velocity": 24, "note_on_time": 82.375, "note_off_time": 82.543}, {"pitch": 76, "velocity": 50, "note_on_time": 82.911, "note_off_time": 83.351}, {"pitch": 77, "velocity": 26, "note_on_time": 83.342, "note_off_time": 83.685}, {"pitch": 79, "velocity": 29, "note_on_time": 84.034, "note_off_time": 84.581}, {"pitch": 79, "velocity": 43, "note_on_time": 85.163, "note_off_time": 85.702}, {"pitch": 79, "velocity": 14, "note_on_time": 86.363, "note_off_time": 86.825}, {"pitch": 77, "velocity": 14, "note_on_time": 88.37, "note_off_time": 89.19}, {"pitch": 79, "velocity": 38, "note_on_time": 87.606, "note_off_time": 89.241}, {"pitch": 76, "velocity": 46, "note_on_time": 88.93, "note_off_time": 89.327}, {"pitch": 77, "velocity": 38, "note_on_time": 90.621, "note_off_time": 91.297}, {"pitch": 79, "velocity": 32, "note_on_time": 90.016, "note_off_time": 91.482}, {"pitch": 76, "velocity": 52, "note_on_time": 91.233, "note_off_time": 91.615}, {"pitch": 76, "velocity": 38, "note_on_time": 92.444, "note_off_time": 93.789}, {"pitch": 77, "velocity": 33, "note_on_time": 92.978, "note_off_time": 93.97}, {"pitch": 79, "velocity": 26, "note_on_time": 93.747, "note_off_time": 94.165}, {"pitch": 72, "velocity": 36, "note_on_time": 94.913, "note_off_time": 95.079}, {"pitch": 72, "velocity": 27, "note_on_time": 96.169, "note_off_time": 96.452}, {"pitch": 72, "velocity": 38, "note_on_time": 97.342, "note_off_time": 97.624}, {"pitch": 74, "velocity": 53, "note_on_time": 97.923, "note_off_time": 98.109}, {"pitch": 72, "velocity": 39, "note_on_time": 98.502, "note_off_time": 99.06}, {"pitch": 74, "velocity": 41, "note_on_time": 99.785, "note_off_time": 100.198}, {"pitch": 76, "velocity": 39, "note_on_time": 100.239, "note_off_time": 100.598}, {"pitch": 77, "velocity": 10, "note_on_time": 101.09, "note_off_time": 101.429}, {"pitch": 77, "velocity": 62, "note_on_time": 102.258, "note_off_time": 102.39}, {"pitch": 79, "velocity": 52, "note_on_time": 102.817, "note_off_time": 103.018}, {"pitch": 79, "velocity": 33, "note_on_time": 103.364, "note_off_time": 103.75}, {"pitch": 77, "velocity": 1, "note_on_time": 104.788, "note_off_time": 105.154}, {"pitch": 79, "velocity": 37, "note_on_time": 105.231, "note_off_time": 105.405}, {"pitch": 79, "velocity": 31, "note_on_time": 105.514, "note_off_time": 105.645}, {"pitch": 79, "velocity": 39, "note_on_time": 105.813, "note_off_time": 105.959}, {"pitch": 79, "velocity": 25, "note_on_time": 106.372, "note_off_time": 106.614}, {"pitch": 77, "velocity": 39, "note_on_time": 107.012, "note_off_time": 107.505}, {"pitch": 76, "velocity": 37, "note_on_time": 107.638, "note_off_time": 108.204}, {"pitch": 74, "velocity": 39, "note_on_time": 108.274, "note_off_time": 108.463}, {"pitch": 77, "velocity": 41, "note_on_time": 109.424, "note_off_time": 109.623}, {"pitch": 79, "velocity": 33, "note_on_time": 109.972, "note_off_time": 110.136}, {"pitch": 79, "velocity": 46, "note_on_time": 110.284, "note_off_time": 110.415}, {"pitch": 79, "velocity": 36, "note_on_time": 110.574, "note_off_time": 110.699}, {"pitch": 79, "velocity": 17, "note_on_time": 111.168, "note_off_time": 111.436}, {"pitch": 74, "velocity": 1, "note_on_time": 112.693, "note_off_time": 113.006}, {"pitch": 72, "velocity": 47, "note_on_time": 111.888, "note_off_time": 113.599}, {"pitch": 74, "velocity": 51, "note_on_time": 113.235, "note_off_time": 113.664}, {"pitch": 79, "velocity": 32, "note_on_time": 114.299, "note_off_time": 115.334}, {"pitch": 79, "velocity": 40, "note_on_time": 115.576, "note_off_time": 116.189}, {"pitch": 77, "velocity": 33, "note_on_time": 117.341, "note_off_time": 118.009}, {"pitch": 76, "velocity": 48, "note_on_time": 117.964, "note_off_time": 118.254}, {"pitch": 79, "velocity": 16, "note_on_time": 116.763, "note_off_time": 118.487}, {"pitch": 79, "velocity": 32, "note_on_time": 119.17, "note_off_time": 119.711}, {"pitch": 79, "velocity": 24, "note_on_time": 120.372, "note_off_time": 120.879}, {"pitch": 74, "velocity": 36, "note_on_time": 122.228, "note_off_time": 123.104}, {"pitch": 76, "velocity": 36, "note_on_time": 122.838, "note_off_time": 123.106}, {"pitch": 72, "velocity": 43, "note_on_time": 121.639, "note_off_time": 123.361}, {"pitch": 76, "velocity": 38, "note_on_time": 124.066, "note_off_time": 124.618}, {"pitch": 76, "velocity": 1, "note_on_time": 125.276, "note_off_time": 125.787}, {"pitch": 74, "velocity": 46, "note_on_time": 126.491, "note_off_time": 127.131}, {"pitch": 72, "velocity": 38, "note_on_time": 127.01, "note_off_time": 127.434}, {"pitch": 74, "velocity": 23, "note_on_time": 127.71, "note_off_time": 128.27}, {"pitch": 79, "velocity": 38, "note_on_time": 129.104, "note_off_time": 129.719}, {"pitch": 79, "velocity": 37, "note_on_time": 130.121, "note_off_time": 130.703}, {"pitch": 77, "velocity": 29, "note_on_time": 131.953, "note_off_time": 132.731}, {"pitch": 76, "velocity": 57, "note_on_time": 132.512, "note_off_time": 132.816}, {"pitch": 79, "velocity": 33, "note_on_time": 131.325, "note_off_time": 132.821}, {"pitch": 72, "velocity": 27, "note_on_time": 133.799, "note_off_time": 133.995}, {"pitch": 72, "velocity": 24, "note_on_time": 134.347, "note_off_time": 134.545}, {"pitch": 72, "velocity": 37, "note_on_time": 134.914, "note_off_time": 135.512}, {"pitch": 79, "velocity": 46, "note_on_time": 136.079, "note_off_time": 136.431}, {"pitch": 79, "velocity": 30, "note_on_time": 136.739, "note_off_time": 137.021}, {"pitch": 79, "velocity": 33, "note_on_time": 137.377, "note_off_time": 137.955}, {"pitch": 77, "velocity": 38, "note_on_time": 139.198, "note_off_time": 139.327}, {"pitch": 77, "velocity": 31, "note_on_time": 139.518, "note_off_time": 139.578}, {"pitch": 77, "velocity": 36, "note_on_time": 139.766, "note_off_time": 139.986}, {"pitch": 79, "velocity": 25, "note_on_time": 138.584, "note_off_time": 140.645}, {"pitch": 77, "velocity": 38, "note_on_time": 140.995, "note_off_time": 141.342}, {"pitch": 76, "velocity": 30, "note_on_time": 141.663, "note_off_time": 142.13}, {"pitch": 74, "velocity": 30, "note_on_time": 142.335, "note_off_time": 142.857}, {"pitch": 79, "velocity": 1, "note_on_time": 143.597, "note_off_time": 144.355}, {"pitch": 79, "velocity": 20, "note_on_time": 144.733, "note_off_time": 145.317}, {"pitch": 77, "velocity": 51, "note_on_time": 145.913, "note_off_time": 146.333}, {"pitch": 76, "velocity": 59, "note_on_time": 146.519, "note_off_time": 146.84}, {"pitch": 74, "velocity": 39, "note_on_time": 147.17, "note_off_time": 147.614}, {"pitch": 72, "velocity": 17, "note_on_time": 148.383, "note_off_time": 148.89}, {"pitch": 72, "velocity": 27, "note_on_time": 149.573, "note_off_time": 150.043}, {"pitch": 76, "velocity": 23, "note_on_time": 151.389, "note_off_time": 151.887}, {"pitch": 74, "velocity": 16, "note_on_time": 150.779, "note_off_time": 151.985}, {"pitch": 77, "velocity": 42, "note_on_time": 151.983, "note_off_time": 152.475}, {"pitch": 79, "velocity": 31, "note_on_time": 153.247, "note_off_time": 153.541}, {"pitch": 79, "velocity": 36, "note_on_time": 153.789, "note_off_time": 153.944}, {"pitch": 79, "velocity": 44, "note_on_time": 154.091, "note_off_time": 154.226}, {"pitch": 79, "velocity": 42, "note_on_time": 154.387, "note_off_time": 154.582}, {"pitch": 77, "velocity": 42, "note_on_time": 155.596, "note_off_time": 157.081}, {"pitch": 76, "velocity": 40, "note_on_time": 156.216, "note_off_time": 157.118}, {"pitch": 74, "velocity": 41, "note_on_time": 156.859, "note_off_time": 157.151}, {"pitch": 79, "velocity": 31, "note_on_time": 154.997, "note_off_time": 157.187}, {"pitch": 79, "velocity": 43, "note_on_time": 158.069, "note_off_time": 158.32}, {"pitch": 79, "velocity": 35, "note_on_time": 158.638, "note_off_time": 158.812}, {"pitch": 79, "velocity": 49, "note_on_time": 158.965, "note_off_time": 159.112}, {"pitch": 79, "velocity": 44, "note_on_time": 159.27, "note_off_time": 159.442}, {"pitch": 79, "velocity": 49, "note_on_time": 159.872, "note_off_time": 160.041}, {"pitch": 77, "velocity": 38, "note_on_time": 160.466, "note_off_time": 161.854}, {"pitch": 76, "velocity": 38, "note_on_time": 161.068, "note_off_time": 161.863}, {"pitch": 74, "velocity": 39, "note_on_time": 161.734, "note_off_time": 161.982}, {"pitch": 72, "velocity": 31, "note_on_time": 162.988, "note_off_time": 163.197}, {"pitch": 72, "velocity": 27, "note_on_time": 163.564, "note_off_time": 163.804}, {"pitch": 72, "velocity": 13, "note_on_time": 164.212, "note_off_time": 164.772}, {"pitch": 79, "velocity": 21, "note_on_time": 165.309, "note_off_time": 165.595}, {"pitch": 79, "velocity": 41, "note_on_time": 165.925, "note_off_time": 166.148}, {"pitch": 79, "velocity": 32, "note_on_time": 166.533, "note_off_time": 166.887}, {"pitch": 79, "velocity": 43, "note_on_time": 167.795, "note_off_time": 168.003}, {"pitch": 79, "velocity": 46, "note_on_time": 168.336, "note_off_time": 168.517}, {"pitch": 79, "velocity": 24, "note_on_time": 168.645, "note_off_time": 168.789}, {"pitch": 79, "velocity": 31, "note_on_time": 168.945, "note_off_time": 169.097}, {"pitch": 76, "velocity": 25, "note_on_time": 171.388, "note_off_time": 171.737}, {"pitch": 79, "velocity": 16, "note_on_time": 169.521, "note_off_time": 171.74}, {"pitch": 74, "velocity": 13, "note_on_time": 170.808, "note_off_time": 171.75}, {"pitch": 72, "velocity": 30, "note_on_time": 170.184, "note_off_time": 171.787}, {"pitch": 74, "velocity": 18, "note_on_time": 173.911, "note_off_time": 174.174}, {"pitch": 72, "velocity": 27, "note_on_time": 173.263, "note_off_time": 174.261}, {"pitch": 79, "velocity": 21, "note_on_time": 172.636, "note_off_time": 174.361}, {"pitch": 74, "velocity": 16, "note_on_time": 175.834, "note_off_time": 176.673}, {"pitch": 72, "velocity": 28, "note_on_time": 175.276, "note_off_time": 176.848}, {"pitch": 79, "velocity": 13, "note_on_time": 176.318, "note_off_time": 176.895}, {"pitch": 79, "velocity": 40, "note_on_time": 177.468, "note_off_time": 177.716}, {"pitch": 79, "velocity": 38, "note_on_time": 178.073, "note_off_time": 178.241}, {"pitch": 79, "velocity": 45, "note_on_time": 178.376, "note_off_time": 178.535}, {"pitch": 79, "velocity": 32, "note_on_time": 178.71, "note_off_time": 178.879}, {"pitch": 79, "velocity": 38, "note_on_time": 179.261, "note_off_time": 179.493}, {"pitch": 77, "velocity": 51, "note_on_time": 179.928, "note_off_time": 180.729}, {"pitch": 76, "velocity": 32, "note_on_time": 180.607, "note_off_time": 181.283}, {"pitch": 74, "velocity": 44, "note_on_time": 181.178, "note_off_time": 181.467}, {"pitch": 72, "velocity": 26, "note_on_time": 182.367, "note_off_time": 182.583}, {"pitch": 72, "velocity": 8, "note_on_time": 182.995, "note_off_time": 183.223}, {"pitch": 72, "velocity": 35, "note_on_time": 183.585, "note_off_time": 184.141}, {"pitch": 79, "velocity": 45, "note_on_time": 184.78, "note_off_time": 185.044}, {"pitch": 79, "velocity": 32, "note_on_time": 185.366, "note_off_time": 185.648}, {"pitch": 79, "velocity": 47, "note_on_time": 185.954, "note_off_time": 186.573}, {"pitch": 77, "velocity": 46, "note_on_time": 187.293, "note_off_time": 187.419}, {"pitch": 79, "velocity": 38, "note_on_time": 187.795, "note_off_time": 187.946}, {"pitch": 79, "velocity": 54, "note_on_time": 188.071, "note_off_time": 188.214}, {"pitch": 79, "velocity": 44, "note_on_time": 188.357, "note_off_time": 188.515}, {"pitch": 79, "velocity": 52, "note_on_time": 188.95, "note_off_time": 189.154}, {"pitch": 77, "velocity": 54, "note_on_time": 189.586, "note_off_time": 190.972}, {"pitch": 76, "velocity": 57, "note_on_time": 190.205, "note_off_time": 190.996}, {"pitch": 74, "velocity": 28, "note_on_time": 190.848, "note_off_time": 191.108}, {"pitch": 72, "velocity": 37, "note_on_time": 192.097, "note_off_time": 192.244}, {"pitch": 72, "velocity": 33, "note_on_time": 192.674, "note_off_time": 192.838}, {"pitch": 72, "velocity": 44, "note_on_time": 193.254, "note_off_time": 193.554}]</notes><guidance name="Guidance Mode">None</guidance><error name="Error value">99</error></trial><trial trial_no="3" timestamp="2023_06_19-11_15_52"><notes name="Played Notes">[{"pitch": 72, "velocity": 6, "note_on_time": 4.965, "note_off_time": 5.246}, {"pitch": 72, "velocity": 29, "note_on_time": 5.588, "note_off_time": 5.781}, {"pitch": 72, "velocity": 27, "note_on_time": 6.159, "note_off_time": 6.605}, {"pitch": 79, "velocity": 28, "note_on_time": 7.387, "note_off_time": 7.616}, {"pitch": 79, "velocity": 39, "note_on_time": 7.962, "note_off_time": 8.215}, {"pitch": 79, "velocity": 38, "note_on_time": 8.568, "note_off_time": 8.92}, {"pitch": 77, "velocity": 57, "note_on_time": 9.896, "note_off_time": 10.002}, {"pitch": 79, "velocity": 16, "note_on_time": 9.975, "note_off_time": 10.142}, {"pitch": 77, "velocity": 49, "note_on_time": 11.022, "note_off_time": 11.101}, {"pitch": 77, "velocity": 51, "note_on_time": 11.514, "note_off_time": 11.693}, {"pitch": 76, "velocity": 31, "note_on_time": 12.148, "note_off_time": 12.845}, {"pitch": 74, "velocity": 56, "note_on_time": 12.766, "note_off_time": 13.107}, {"pitch": 72, "velocity": 39, "note_on_time": 13.426, "note_off_time": 13.758}, {"pitch": 72, "velocity": 49, "note_on_time": 14.68, "note_off_time": 14.821}, {"pitch": 72, "velocity": 41, "note_on_time": 15.248, "note_off_time": 15.403}, {"pitch": 72, "velocity": 46, "note_on_time": 15.804, "note_off_time": 16.134}, {"pitch": 79, "velocity": 53, "note_on_time": 17.054, "note_off_time": 17.273}, {"pitch": 79, "velocity": 51, "note_on_time": 17.616, "note_off_time": 17.844}, {"pitch": 79, "velocity": 43, "note_on_time": 18.223, "note_off_time": 18.581}, {"pitch": 79, "velocity": 45, "note_on_time": 19.487, "note_off_time": 19.694}, {"pitch": 79, "velocity": 36, "note_on_time": 20.022, "note_off_time": 20.181}, {"pitch": 79, "velocity": 54, "note_on_time": 20.31, "note_off_time": 20.465}, {"pitch": 77, "velocity": 56, "note_on_time": 20.649, "note_off_time": 20.817}, {"pitch": 76, "velocity": 68, "note_on_time": 21.25, "note_off_time": 21.386}, {"pitch": 74, "velocity": 50, "note_on_time": 21.864, "note_off_time": 22.427}, {"pitch": 72, "velocity": 37, "note_on_time": 22.517, "note_off_time": 23.012}, {"pitch": 72, "velocity": 33, "note_on_time": 23.246, "note_off_time": 23.783}, {"pitch": 79, "velocity": 29, "note_on_time": 24.413, "note_off_time": 24.773}, {"pitch": 79, "velocity": 30, "note_on_time": 25.563, "note_off_time": 25.991}, {"pitch": 77, "velocity": 43, "note_on_time": 27.407, "note_off_time": 28.131}, {"pitch": 76, "velocity": 56, "note_on_time": 27.986, "note_off_time": 28.199}, {"pitch": 79, "velocity": 33, "note_on_time": 26.845, "note_off_time": 28.271}, {"pitch": 79, "velocity": 49, "note_on_time": 29.21, "note_off_time": 29.811}, {"pitch": 79, "velocity": 31, "note_on_time": 30.439, "note_off_time": 30.903}, {"pitch": 77, "velocity": 40, "note_on_time": 31.699, "note_off_time": 32.458}, {"pitch": 76, "velocity": 52, "note_on_time": 32.254, "note_off_time": 32.52}, {"pitch": 76, "velocity": 52, "note_on_time": 32.808, "note_off_time": 33.31}, {"pitch": 72, "velocity": 25, "note_on_time": 34.126, "note_off_time": 34.281}, {"pitch": 72, "velocity": 32, "note_on_time": 34.676, "note_off_time": 34.863}, {"pitch": 72, "velocity": 26, "note_on_time": 35.275, "note_off_time": 35.74}, {"pitch": 79, "velocity": 50, "note_on_time": 36.548, "note_off_time": 36.797}, {"pitch": 79, "velocity": 35, "note_on_time": 37.143, "note_off_time": 37.365}, {"pitch": 79, "velocity": 38, "note_on_time": 37.729, "note_off_time": 38.065}, {"pitch": 79, "velocity": 32, "note_on_time": 38.986, "note_off_time": 39.271}, {"pitch": 79, "velocity": 27, "note_on_time": 39.567, "note_off_time": 39.716}, {"pitch": 79, "velocity": 40, "note_on_time": 39.867, "note_off_time": 39.988}, {"pitch": 79, "velocity": 50, "note_on_time": 40.144, "note_off_time": 40.291}, {"pitch": 76, "velocity": 37, "note_on_time": 42.036, "note_off_time": 43.134}, {"pitch": 77, "velocity": 5, "note_on_time": 41.351, "note_off_time": 43.159}, {"pitch": 79, "velocity": 30, "note_on_time": 40.712, "note_off_time": 43.204}, {"pitch": 72, "velocity": 27, "note_on_time": 42.665, "note_off_time": 43.239}, {"pitch": 72, "velocity": 1, "note_on_time": 43.836, "note_off_time": 44.423}, {"pitch": 72, "velocity": 21, "note_on_time": 45.065, "note_off_time": 45.675}, {"pitch": 74, "velocity": 18, "note_on_time": 46.346, "note_off_time": 46.782}, {"pitch": 76, "velocity": 25, "note_on_time": 46.933, "note_off_time": 47.124}, {"pitch": 77, "velocity": 24, "note_on_time": 47.505, "note_off_time": 47.955}, {"pitch": 77, "velocity": 36, "note_on_time": 48.693, "note_off_time": 49.173}, {"pitch": 76, "velocity": 51, "note_on_time": 49.258, "note_off_time": 49.603}, {"pitch": 79, "velocity": 7, "note_on_time": 49.866, "note_off_time": 50.672}, {"pitch": 76, "velocity": 20, "note_on_time": 50.589, "note_off_time": 50.837}, {"pitch": 79, "velocity": 14, "note_on_time": 51.199, "note_off_time": 51.656}, {"pitch": 76, "velocity": 1, "note_on_time": 52.522, "note_off_time": 52.935}, {"pitch": 79, "velocity": 21, "note_on_time": 53.588, "note_off_time": 53.987}, {"pitch": 79, "velocity": 27, "note_on_time": 54.787, "note_off_time": 55.369}, {"pitch": 77, "velocity": 40, "note_on_time": 56.718, "note_off_time": 56.909}, {"pitch": 79, "velocity": 26, "note_on_time": 55.964, "note_off_time": 57.589}, {"pitch": 76, "velocity": 36, "note_on_time": 57.329, "note_off_time": 57.764}, {"pitch": 79, "velocity": 19, "note_on_time": 58.447, "note_off_time": 58.917}, {"pitch": 79, "velocity": 30, "note_on_time": 59.64, "note_off_time": 60.208}, {"pitch": 77, "velocity": 48, "note_on_time": 61.4, "note_off_time": 62.284}, {"pitch": 79, "velocity": 13, "note_on_time": 60.902, "note_off_time": 62.285}, {"pitch": 76, "velocity": 28, "note_on_time": 62.004, "note_off_time": 62.323}, {"pitch": 72, "velocity": 33, "note_on_time": 63.305, "note_off_time": 63.507}, {"pitch": 72, "velocity": 23, "note_on_time": 63.926, "note_off_time": 64.119}, {"pitch": 72, "velocity": 34, "note_on_time": 64.54, "note_off_time": 64.927}, {"pitch": 79, "velocity": 31, "note_on_time": 65.76, "note_off_time": 66.008}, {"pitch": 79, "velocity": 36, "note_on_time": 66.316, "note_off_time": 66.568}, {"pitch": 79, "velocity": 27, "note_on_time": 66.928, "note_off_time": 67.385}, {"pitch": 79, "velocity": 34, "note_on_time": 68.173, "note_off_time": 68.388}, {"pitch": 79, "velocity": 33, "note_on_time": 68.737, "note_off_time": 68.898}, {"pitch": 79, "velocity": 36, "note_on_time": 69.07, "note_off_time": 69.204}, {"pitch": 79, "velocity": 42, "note_on_time": 69.351, "note_off_time": 69.515}, {"pitch": 79, "velocity": 33, "note_on_time": 69.963, "note_off_time": 70.156}, {"pitch": 72, "velocity": 22, "note_on_time": 71.184, "note_off_time": 71.892}, {"pitch": 79, "velocity": 29, "note_on_time": 70.537, "note_off_time": 71.965}, {"pitch": 74, "velocity": 24, "note_on_time": 71.801, "note_off_time": 72.03}, {"pitch": 79, "velocity": 32, "note_on_time": 73.671, "note_off_time": 73.954}, {"pitch": 79, "velocity": 32, "note_on_time": 74.249, "note_off_time": 74.766}, {"pitch": 72, "velocity": 33, "note_on_time": 76.171, "note_off_time": 76.898}, {"pitch": 79, "velocity": 17, "note_on_time": 75.515, "note_off_time": 76.957}, {"pitch": 74, "velocity": 1, "note_on_time": 76.847, "note_off_time": 77.156}, {"pitch": 79, "velocity": 35, "note_on_time": 77.845, "note_off_time": 78.055}, {"pitch": 79, "velocity": 36, "note_on_time": 78.411, "note_off_time": 78.584}, {"pitch": 79, "velocity": 38, "note_on_time": 78.747, "note_off_time": 78.884}, {"pitch": 79, "velocity": 37, "note_on_time": 79.047, "note_off_time": 79.192}, {"pitch": 79, "velocity": 23, "note_on_time": 79.672, "note_off_time": 79.861}, {"pitch": 77, "velocity": 29, "note_on_time": 80.932, "note_off_time": 81.402}, {"pitch": 76, "velocity": 30, "note_on_time": 81.49, "note_off_time": 81.962}, {"pitch": 79, "velocity": 25, "note_on_time": 80.261, "note_off_time": 82.275}, {"pitch": 72, "velocity": 3, "note_on_time": 82.747, "note_off_time": 82.964}, {"pitch": 72, "velocity": 30, "note_on_time": 83.395, "note_off_time": 83.583}, {"pitch": 72, "velocity": 41, "note_on_time": 83.961, "note_off_time": 84.357}, {"pitch": 79, "velocity": 35, "note_on_time": 85.18, "note_off_time": 85.454}, {"pitch": 79, "velocity": 55, "note_on_time": 85.754, "note_off_time": 86.092}, {"pitch": 79, "velocity": 25, "note_on_time": 86.346, "note_off_time": 86.719}, {"pitch": 77, "velocity": 25, "note_on_time": 87.608, "note_off_time": 87.83}, {"pitch": 77, "velocity": 30, "note_on_time": 88.173, "note_off_time": 88.315}, {"pitch": 77, "velocity": 32, "note_on_time": 88.477, "note_off_time": 88.576}, {"pitch": 79, "velocity": 34, "note_on_time": 89.345, "note_off_time": 89.642}, {"pitch": 77, "velocity": 1, "note_on_time": 90.592, "note_off_time": 91.664}, {"pitch": 76, "velocity": 46, "note_on_time": 91.23, "note_off_time": 91.692}, {"pitch": 79, "velocity": 23, "note_on_time": 90.007, "note_off_time": 91.892}, {"pitch": 72, "velocity": 23, "note_on_time": 92.482, "note_off_time": 92.675}, {"pitch": 72, "velocity": 38, "note_on_time": 93.12, "note_off_time": 93.326}, {"pitch": 72, "velocity": 44, "note_on_time": 93.671, "note_off_time": 94.063}, {"pitch": 79, "velocity": 37, "note_on_time": 94.911, "note_off_time": 95.19}, {"pitch": 79, "velocity": 30, "note_on_time": 95.503, "note_off_time": 95.714}, {"pitch": 79, "velocity": 39, "note_on_time": 96.089, "note_off_time": 96.595}, {"pitch": 79, "velocity": 38, "note_on_time": 97.341, "note_off_time": 97.547}, {"pitch": 79, "velocity": 49, "note_on_time": 97.891, "note_off_time": 98.07}, {"pitch": 79, "velocity": 32, "note_on_time": 98.207, "note_off_time": 98.309}, {"pitch": 79, "velocity": 53, "note_on_time": 98.484, "note_off_time": 98.694}, {"pitch": 79, "velocity": 33, "note_on_time": 99.091, "note_off_time": 99.372}, {"pitch": 76, "velocity": 39, "note_on_time": 100.32, "note_off_time": 101.061}, {"pitch": 77, "velocity": 45, "note_on_time": 99.714, "note_off_time": 101.081}, {"pitch": 79, "velocity": 1, "note_on_time": 99.673, "note_off_time": 101.213}, {"pitch": 74, "velocity": 40, "note_on_time": 100.933, "note_off_time": 101.36}, {"pitch": 72, "velocity": 32, "note_on_time": 102.202, "note_off_time": 102.378}, {"pitch": 72, "velocity": 31, "note_on_time": 102.793, "note_off_time": 102.941}, {"pitch": 72, "velocity": 40, "note_on_time": 103.403, "note_off_time": 103.864}, {"pitch": 79, "velocity": 38, "note_on_time": 104.7, "note_off_time": 105.004}, {"pitch": 79, "velocity": 46, "note_on_time": 105.307, "note_off_time": 105.53}, {"pitch": 79, "velocity": 40, "note_on_time": 105.896, "note_off_time": 106.363}, {"pitch": 79, "velocity": 19, "note_on_time": 107.11, "note_off_time": 107.311}, {"pitch": 79, "velocity": 50, "note_on_time": 107.644, "note_off_time": 107.803}, {"pitch": 79, "velocity": 48, "note_on_time": 107.937, "note_off_time": 108.075}, {"pitch": 79, "velocity": 41, "note_on_time": 108.223, "note_off_time": 108.416}, {"pitch": 76, "velocity": 39, "note_on_time": 110.084, "note_off_time": 110.986}, {"pitch": 79, "velocity": 42, "note_on_time": 108.847, "note_off_time": 110.992}, {"pitch": 77, "velocity": 32, "note_on_time": 109.457, "note_off_time": 111.046}, {"pitch": 74, "velocity": 31, "note_on_time": 110.718, "note_off_time": 111.231}, {"pitch": 72, "velocity": 31, "note_on_time": 111.961, "note_off_time": 112.208}, {"pitch": 72, "velocity": 37, "note_on_time": 112.602, "note_off_time": 112.793}, {"pitch": 72, "velocity": 37, "note_on_time": 113.124, "note_off_time": 113.573}, {"pitch": 79, "velocity": 31, "note_on_time": 114.306, "note_off_time": 114.71}, {"pitch": 77, "velocity": 58, "note_on_time": 114.986, "note_off_time": 115.197}, {"pitch": 79, "velocity": 35, "note_on_time": 115.579, "note_off_time": 116.196}, {"pitch": 79, "velocity": 26, "note_on_time": 116.766, "note_off_time": 117.003}, {"pitch": 79, "velocity": 38, "note_on_time": 117.358, "note_off_time": 117.521}, {"pitch": 79, "velocity": 50, "note_on_time": 117.664, "note_off_time": 117.831}, {"pitch": 79, "velocity": 34, "note_on_time": 117.986, "note_off_time": 118.168}, {"pitch": 79, "velocity": 40, "note_on_time": 118.565, "note_off_time": 118.788}, {"pitch": 76, "velocity": 32, "note_on_time": 120.402, "note_off_time": 120.69}, {"pitch": 77, "velocity": 10, "note_on_time": 119.796, "note_off_time": 120.701}, {"pitch": 79, "velocity": 35, "note_on_time": 119.182, "note_off_time": 120.812}, {"pitch": 72, "velocity": 30, "note_on_time": 121.648, "note_off_time": 121.831}, {"pitch": 72, "velocity": 32, "note_on_time": 122.222, "note_off_time": 122.388}, {"pitch": 72, "velocity": 36, "note_on_time": 122.808, "note_off_time": 123.175}, {"pitch": 79, "velocity": 43, "note_on_time": 124.034, "note_off_time": 124.32}, {"pitch": 79, "velocity": 18, "note_on_time": 124.714, "note_off_time": 124.911}, {"pitch": 79, "velocity": 36, "note_on_time": 125.243, "note_off_time": 125.626}, {"pitch": 72, "velocity": 28, "note_on_time": 126.546, "note_off_time": 126.79}, {"pitch": 79, "velocity": 7, "note_on_time": 127.036, "note_off_time": 127.304}, {"pitch": 72, "velocity": 1, "note_on_time": 127.582, "note_off_time": 127.669}, {"pitch": 79, "velocity": 8, "note_on_time": 128.01, "note_off_time": 128.333}, {"pitch": 72, "velocity": 34, "note_on_time": 128.93, "note_off_time": 129.584}, {"pitch": 79, "velocity": 1, "note_on_time": 129.399, "note_off_time": 129.942}, {"pitch": 77, "velocity": 18, "note_on_time": 130.179, "note_off_time": 130.638}, {"pitch": 72, "velocity": 30, "note_on_time": 131.343, "note_off_time": 131.558}, {"pitch": 72, "velocity": 19, "note_on_time": 131.989, "note_off_time": 132.163}, {"pitch": 72, "velocity": 36, "note_on_time": 132.529, "note_off_time": 132.737}, {"pitch": 79, "velocity": 42, "note_on_time": 133.765, "note_off_time": 134.074}, {"pitch": 79, "velocity": 47, "note_on_time": 134.354, "note_off_time": 134.572}, {"pitch": 79, "velocity": 35, "note_on_time": 134.951, "note_off_time": 135.348}, {"pitch": 79, "velocity": 31, "note_on_time": 136.216, "note_off_time": 136.45}, {"pitch": 79, "velocity": 29, "note_on_time": 136.846, "note_off_time": 136.961}, {"pitch": 79, "velocity": 18, "note_on_time": 137.155, "note_off_time": 137.248}, {"pitch": 79, "velocity": 29, "note_on_time": 137.457, "note_off_time": 137.597}, {"pitch": 79, "velocity": 21, "note_on_time": 137.979, "note_off_time": 138.236}, {"pitch": 77, "velocity": 10, "note_on_time": 138.616, "note_off_time": 139.564}, {"pitch": 76, "velocity": 40, "note_on_time": 139.286, "note_off_time": 139.662}, {"pitch": 74, "velocity": 38, "note_on_time": 139.936, "note_off_time": 140.256}, {"pitch": 72, "velocity": 27, "note_on_time": 141.043, "note_off_time": 141.256}, {"pitch": 72, "velocity": 18, "note_on_time": 141.677, "note_off_time": 141.888}, {"pitch": 72, "velocity": 18, "note_on_time": 142.271, "note_off_time": 142.509}, {"pitch": 74, "velocity": 1, "note_on_time": 143.674, "note_off_time": 143.869}, {"pitch": 74, "velocity": 43, "note_on_time": 144.156, "note_off_time": 144.289}, {"pitch": 74, "velocity": 28, "note_on_time": 144.679, "note_off_time": 145.195}, {"pitch": 74, "velocity": 26, "note_on_time": 145.902, "note_off_time": 146.033}, {"pitch": 74, "velocity": 41, "note_on_time": 146.457, "note_off_time": 146.589}, {"pitch": 74, "velocity": 13, "note_on_time": 147.043, "note_off_time": 147.207}, {"pitch": 74, "velocity": 45, "note_on_time": 147.64, "note_off_time": 147.814}, {"pitch": 76, "velocity": 46, "note_on_time": 148.285, "note_off_time": 149.032}, {"pitch": 74, "velocity": 35, "note_on_time": 148.908, "note_off_time": 149.535}, {"pitch": 72, "velocity": 31, "note_on_time": 149.529, "note_off_time": 149.853}, {"pitch": 72, "velocity": 30, "note_on_time": 150.81, "note_off_time": 151.044}, {"pitch": 72, "velocity": 36, "note_on_time": 151.431, "note_off_time": 151.667}, {"pitch": 72, "velocity": 36, "note_on_time": 152.017, "note_off_time": 152.275}, {"pitch": 79, "velocity": 46, "note_on_time": 153.269, "note_off_time": 153.525}, {"pitch": 79, "velocity": 39, "note_on_time": 153.894, "note_off_time": 154.117}, {"pitch": 79, "velocity": 49, "note_on_time": 154.467, "note_off_time": 154.673}, {"pitch": 79, "velocity": 33, "note_on_time": 155.786, "note_off_time": 156.007}, {"pitch": 79, "velocity": 32, "note_on_time": 156.286, "note_off_time": 156.45}, {"pitch": 79, "velocity": 37, "note_on_time": 156.612, "note_off_time": 156.725}, {"pitch": 79, "velocity": 36, "note_on_time": 156.89, "note_off_time": 157.063}, {"pitch": 79, "velocity": 42, "note_on_time": 157.469, "note_off_time": 157.617}, {"pitch": 76, "velocity": 37, "note_on_time": 158.039, "note_off_time": 158.759}, {"pitch": 74, "velocity": 39, "note_on_time": 158.67, "note_off_time": 159.143}, {"pitch": 72, "velocity": 24, "note_on_time": 159.297, "note_off_time": 159.728}, {"pitch": 72, "velocity": 37, "note_on_time": 160.552, "note_off_time": 160.773}, {"pitch": 72, "velocity": 37, "note_on_time": 161.131, "note_off_time": 161.352}, {"pitch": 72, "velocity": 49, "note_on_time": 161.692, "note_off_time": 162.164}, {"pitch": 77, "velocity": 3, "note_on_time": 163.061, "note_off_time": 163.385}, {"pitch": 77, "velocity": 42, "note_on_time": 163.644, "note_off_time": 163.923}, {"pitch": 77, "velocity": 46, "note_on_time": 164.196, "note_off_time": 164.685}, {"pitch": 72, "velocity": 48, "note_on_time": 165.399, "note_off_time": 165.617}, {"pitch": 72, "velocity": 42, "note_on_time": 165.95, "note_off_time": 166.079}, {"pitch": 72, "velocity": 16, "note_on_time": 166.281, "note_off_time": 166.369}, {"pitch": 72, "velocity": 45, "note_on_time": 166.56, "note_off_time": 166.735}, {"pitch": 72, "velocity": 50, "note_on_time": 167.163, "note_off_time": 167.369}, {"pitch": 77, "velocity": 50, "note_on_time": 167.747, "note_off_time": 168.786}, {"pitch": 76, "velocity": 54, "note_on_time": 168.352, "note_off_time": 169.145}, {"pitch": 74, "velocity": 43, "note_on_time": 169.009, "note_off_time": 169.328}, {"pitch": 72, "velocity": 14, "note_on_time": 170.368, "note_off_time": 170.549}, {"pitch": 72, "velocity": 31, "note_on_time": 170.951, "note_off_time": 171.091}, {"pitch": 72, "velocity": 49, "note_on_time": 171.456, "note_off_time": 171.693}, {"pitch": 79, "velocity": 35, "note_on_time": 172.672, "note_off_time": 172.934}, {"pitch": 79, "velocity": 37, "note_on_time": 173.28, "note_off_time": 173.497}, {"pitch": 79, "velocity": 52, "note_on_time": 173.834, "note_off_time": 174.428}, {"pitch": 79, "velocity": 27, "note_on_time": 175.108, "note_off_time": 175.384}, {"pitch": 79, "velocity": 33, "note_on_time": 175.744, "note_off_time": 175.931}, {"pitch": 79, "velocity": 40, "note_on_time": 176.076, "note_off_time": 176.227}, {"pitch": 79, "velocity": 39, "note_on_time": 176.383, "note_off_time": 176.526}, {"pitch": 79, "velocity": 29, "note_on_time": 176.947, "note_off_time": 177.177}, {"pitch": 77, "velocity": 49, "note_on_time": 177.557, "note_off_time": 178.423}, {"pitch": 76, "velocity": 64, "note_on_time": 178.119, "note_off_time": 178.882}, {"pitch": 74, "velocity": 38, "note_on_time": 178.789, "note_off_time": 179.077}, {"pitch": 72, "velocity": 35, "note_on_time": 180.04, "note_off_time": 180.213}, {"pitch": 72, "velocity": 51, "note_on_time": 180.584, "note_off_time": 180.811}, {"pitch": 72, "velocity": 55, "note_on_time": 181.167, "note_off_time": 181.888}, {"pitch": 79, "velocity": 48, "note_on_time": 182.426, "note_off_time": 182.69}, {"pitch": 79, "velocity": 46, "note_on_time": 183.01, "note_off_time": 183.262}, {"pitch": 79, "velocity": 47, "note_on_time": 183.601, "note_off_time": 184.091}, {"pitch": 77, "velocity": 22, "note_on_time": 184.919, "note_off_time": 185.027}, {"pitch": 79, "velocity": 55, "note_on_time": 185.441, "note_off_time": 185.595}, {"pitch": 79, "velocity": 54, "note_on_time": 185.715, "note_off_time": 185.868}, {"pitch": 79, "velocity": 48, "note_on_time": 186.0, "note_off_time": 186.232}, {"pitch": 79, "velocity": 42, "note_on_time": 186.616, "note_off_time": 186.866}, {"pitch": 76, "velocity": 47, "note_on_time": 187.895, "note_off_time": 188.191}, {"pitch": 77, "velocity": 48, "note_on_time": 187.257, "note_off_time": 188.437}, {"pitch": 74, "velocity": 32, "note_on_time": 188.505, "note_off_time": 188.87}, {"pitch": 74, "velocity": 36, "note_on_time": 189.74, "note_off_time": 190.27}, {"pitch": 74, "velocity": 10, "note_on_time": 191.022, "note_off_time": 191.546}, {"pitch": 79, "velocity": 39, "note_on_time": 192.144, "note_off_time": 192.441}, {"pitch": 79, "velocity": 48, "note_on_time": 192.759, "note_off_time": 193.063}, {"pitch": 79, "velocity": 50, "note_on_time": 193.374, "note_off_time": 194.003}]</notes><guidance name="Guidance Mode">None</guidance><error name="Error value">99</error></trial></trials></MIDI>