<MIDI midiNo="2023_06_19-17_17_49"><target_notes><notes name="Note List">[{"pitch": 60, "velocity": 40, "note_on_time": 0.01, "note_off_time": 1.021}, {"pitch": 64, "velocity": 40, "note_on_time": 0.01, "note_off_time": 1.022}, {"pitch": 67, "velocity": 40, "note_on_time": 0.01, "note_off_time": 1.022}, {"pitch": 48, "velocity": 40, "note_on_time": 0.01, "note_off_time": 1.022}, {"pitch": 52, "velocity": 40, "note_on_time": 1.022, "note_off_time": 2.036}, {"pitch": 55, "velocity": 40, "note_on_time": 1.022, "note_off_time": 2.037}, {"pitch": 79, "velocity": 40, "note_on_time": 2.036, "note_off_time": 3.039}, {"pitch": 48, "velocity": 40, "note_on_time": 2.037, "note_off_time": 3.039}, {"pitch": 52, "velocity": 40, "note_on_time": 3.04, "note_off_time": 4.042}, {"pitch": 55, "velocity": 40, "note_on_time": 3.04, "note_off_time": 4.042}, {"pitch": 48, "velocity": 40, "note_on_time": 4.042, "note_off_time": 5.051}, {"pitch": 52, "velocity": 40, "note_on_time": 5.051, "note_off_time": 6.059}, {"pitch": 55, "velocity": 40, "note_on_time": 5.051, "note_off_time": 6.059}, {"pitch": 48, "velocity": 40, "note_on_time": 6.059, "note_off_time": 7.073}, {"pitch": 52, "velocity": 40, "note_on_time": 7.073, "note_off_time": 8.078}, {"pitch": 55, "velocity": 40, "note_on_time": 7.073, "note_off_time": 8.078}, {"pitch": 60, "velocity": 40, "note_on_time": 8.077, "note_off_time": 9.086}, {"pitch": 64, "velocity": 40, "note_on_time": 8.078, "note_off_time": 9.087}, {"pitch": 67, "velocity": 40, "note_on_time": 8.078, "note_off_time": 9.087}, {"pitch": 48, "velocity": 40, "note_on_time": 8.078, "note_off_time": 9.087}, {"pitch": 52, "velocity": 40, "note_on_time": 9.088, "note_off_time": 10.101}, {"pitch": 55, "velocity": 40, "note_on_time": 9.088, "note_off_time": 10.101}, {"pitch": 74, "velocity": 40, "note_on_time": 10.1, "note_off_time": 11.115}, {"pitch": 48, "velocity": 40, "note_on_time": 10.101, "note_off_time": 11.115}, {"pitch": 52, "velocity": 40, "note_on_time": 11.115, "note_off_time": 12.122}, {"pitch": 55, "velocity": 40, "note_on_time": 11.116, "note_off_time": 12.122}, {"pitch": 48, "velocity": 40, "note_on_time": 12.122, "note_off_time": 13.133}, {"pitch": 52, "velocity": 40, "note_on_time": 13.133, "note_off_time": 14.148}, {"pitch": 55, "velocity": 40, "note_on_time": 13.133, "note_off_time": 14.15}, {"pitch": 48, "velocity": 40, "note_on_time": 14.15, "note_off_time": 15.164}, {"pitch": 52, "velocity": 40, "note_on_time": 15.164, "note_off_time": 16.168}, {"pitch": 55, "velocity": 40, "note_on_time": 15.164, "note_off_time": 16.168}, {"pitch": 60, "velocity": 40, "note_on_time": 16.167, "note_off_time": 17.184}, {"pitch": 64, "velocity": 40, "note_on_time": 16.168, "note_off_time": 17.185}, {"pitch": 67, "velocity": 40, "note_on_time": 16.168, "note_off_time": 17.185}, {"pitch": 48, "velocity": 40, "note_on_time": 16.169, "note_off_time": 17.185}, {"pitch": 52, "velocity": 40, "note_on_time": 17.186, "note_off_time": 18.197}, {"pitch": 55, "velocity": 40, "note_on_time": 17.186, "note_off_time": 18.198}, {"pitch": 79, "velocity": 40, "note_on_time": 18.197, "note_off_time": 19.206}, {"pitch": 48, "velocity": 40, "note_on_time": 18.198, "note_off_time": 19.206}, {"pitch": 52, "velocity": 40, "note_on_time": 19.207, "note_off_time": 20.218}, {"pitch": 55, "velocity": 40, "note_on_time": 19.207, "note_off_time": 20.218}, {"pitch": 48, "velocity": 40, "note_on_time": 20.218, "note_off_time": 21.22}, {"pitch": 52, "velocity": 40, "note_on_time": 21.22, "note_off_time": 22.234}, {"pitch": 55, "velocity": 40, "note_on_time": 21.22, "note_off_time": 22.234}, {"pitch": 48, "velocity": 40, "note_on_time": 22.234, "note_off_time": 23.246}, {"pitch": 52, "velocity": 40, "note_on_time": 23.246, "note_off_time": 24.254}, {"pitch": 55, "velocity": 40, "note_on_time": 23.246, "note_off_time": 24.254}, {"pitch": 60, "velocity": 40, "note_on_time": 24.253, "note_off_time": 25.256}, {"pitch": 64, "velocity": 40, "note_on_time": 24.253, "note_off_time": 25.257}, {"pitch": 67, "velocity": 40, "note_on_time": 24.254, "note_off_time": 25.257}, {"pitch": 48, "velocity": 40, "note_on_time": 24.254, "note_off_time": 25.257}, {"pitch": 52, "velocity": 40, "note_on_time": 25.258, "note_off_time": 26.26}, {"pitch": 55, "velocity": 40, "note_on_time": 25.258, "note_off_time": 26.261}, {"pitch": 72, "velocity": 40, "note_on_time": 26.26, "note_off_time": 27.262}, {"pitch": 48, "velocity": 40, "note_on_time": 26.261, "note_off_time": 27.262}, {"pitch": 52, "velocity": 40, "note_on_time": 27.262, "note_off_time": 28.267}, {"pitch": 55, "velocity": 40, "note_on_time": 27.262, "note_off_time": 28.267}, {"pitch": 48, "velocity": 40, "note_on_time": 28.267, "note_off_time": 29.269}, {"pitch": 52, "velocity": 40, "note_on_time": 29.269, "note_off_time": 30.274}, {"pitch": 55, "velocity": 40, "note_on_time": 29.269, "note_off_time": 30.274}, {"pitch": 48, "velocity": 40, "note_on_time": 30.274, "note_off_time": 31.278}, {"pitch": 52, "velocity": 40, "note_on_time": 31.278, "note_off_time": 32.288}, {"pitch": 55, "velocity": 40, "note_on_time": 31.278, "note_off_time": 32.288}, {"pitch": 60, "velocity": 40, "note_on_time": 32.287, "note_off_time": 33.296}, {"pitch": 64, "velocity": 40, "note_on_time": 32.288, "note_off_time": 33.297}, {"pitch": 67, "velocity": 40, "note_on_time": 32.288, "note_off_time": 33.297}, {"pitch": 48, "velocity": 40, "note_on_time": 32.289, "note_off_time": 33.298}, {"pitch": 52, "velocity": 40, "note_on_time": 33.298, "note_off_time": 34.307}, {"pitch": 55, "velocity": 40, "note_on_time": 33.298, "note_off_time": 34.307}, {"pitch": 74, "velocity": 40, "note_on_time": 34.307, "note_off_time": 35.312}, {"pitch": 48, "velocity": 40, "note_on_time": 34.307, "note_off_time": 35.312}, {"pitch": 52, "velocity": 40, "note_on_time": 35.312, "note_off_time": 36.315}, {"pitch": 55, "velocity": 40, "note_on_time": 35.312, "note_off_time": 36.315}, {"pitch": 48, "velocity": 40, "note_on_time": 36.315, "note_off_time": 37.324}, {"pitch": 52, "velocity": 40, "note_on_time": 37.324, "note_off_time": 38.328}, {"pitch": 55, "velocity": 40, "note_on_time": 37.324, "note_off_time": 38.328}, {"pitch": 48, "velocity": 40, "note_on_time": 38.328, "note_off_time": 39.341}, {"pitch": 52, "velocity": 40, "note_on_time": 39.341, "note_off_time": 40.348}, {"pitch": 55, "velocity": 40, "note_on_time": 39.341, "note_off_time": 40.348}, {"pitch": 60, "velocity": 40, "note_on_time": 40.347, "note_off_time": 41.351}, {"pitch": 64, "velocity": 40, "note_on_time": 40.348, "note_off_time": 41.352}, {"pitch": 67, "velocity": 40, "note_on_time": 40.348, "note_off_time": 41.353}, {"pitch": 72, "velocity": 40, "note_on_time": 42.36, "note_off_time": 43.37}, {"pitch": 60, "velocity": 40, "note_on_time": 48.377, "note_off_time": 49.378}, {"pitch": 64, "velocity": 40, "note_on_time": 48.377, "note_off_time": 49.379}, {"pitch": 67, "velocity": 40, "note_on_time": 48.377, "note_off_time": 49.379}, {"pitch": 76, "velocity": 40, "note_on_time": 50.389, "note_off_time": 51.4}, {"pitch": 60, "velocity": 40, "note_on_time": 56.402, "note_off_time": 57.412}, {"pitch": 64, "velocity": 40, "note_on_time": 56.403, "note_off_time": 57.413}, {"pitch": 67, "velocity": 40, "note_on_time": 56.403, "note_off_time": 57.413}, {"pitch": 79, "velocity": 40, "note_on_time": 58.421, "note_off_time": 59.422}, {"pitch": 60, "velocity": 40, "note_on_time": 64.429, "note_off_time": 65.44}, {"pitch": 64, "velocity": 40, "note_on_time": 64.43, "note_off_time": 65.441}, {"pitch": 67, "velocity": 40, "note_on_time": 64.43, "note_off_time": 65.441}, {"pitch": 77, "velocity": 40, "note_on_time": 66.459, "note_off_time": 67.473}, {"pitch": 60, "velocity": 40, "note_on_time": 72.48, "note_off_time": 73.484}, {"pitch": 64, "velocity": 40, "note_on_time": 72.48, "note_off_time": 73.485}, {"pitch": 67, "velocity": 40, "note_on_time": 72.482, "note_off_time": 73.485}, {"pitch": 76, "velocity": 40, "note_on_time": 74.499, "note_off_time": 75.509}, {"pitch": 60, "velocity": 40, "note_on_time": 80.52, "note_off_time": 81.536}, {"pitch": 64, "velocity": 40, "note_on_time": 80.521, "note_off_time": 81.537}, {"pitch": 67, "velocity": 40, "note_on_time": 80.521, "note_off_time": 81.541}, {"pitch": 72, "velocity": 40, "note_on_time": 82.555, "note_off_time": 83.564}, {"pitch": 60, "velocity": 40, "note_on_time": 88.58, "note_off_time": 89.591}, {"pitch": 64, "velocity": 40, "note_on_time": 88.58, "note_off_time": 89.592}, {"pitch": 67, "velocity": 40, "note_on_time": 88.581, "note_off_time": 89.592}, {"pitch": 77, "velocity": 40, "note_on_time": 90.6, "note_off_time": 91.617}, {"pitch": 60, "velocity": 40, "note_on_time": 96.621, "note_off_time": 97.633}, {"pitch": 64, "velocity": 40, "note_on_time": 96.622, "note_off_time": 97.634}, {"pitch": 67, "velocity": 40, "note_on_time": 96.622, "note_off_time": 97.634}, {"pitch": 79, "velocity": 40, "note_on_time": 98.644, "note_off_time": 99.651}, {"pitch": 60, "velocity": 40, "note_on_time": 104.655, "note_off_time": 105.666}, {"pitch": 64, "velocity": 40, "note_on_time": 104.656, "note_off_time": 105.667}, {"pitch": 67, "velocity": 40, "note_on_time": 104.656, "note_off_time": 105.668}, {"pitch": 72, "velocity": 40, "note_on_time": 106.671, "note_off_time": 107.687}, {"pitch": 60, "velocity": 40, "note_on_time": 112.689, "note_off_time": 113.706}, {"pitch": 64, "velocity": 40, "note_on_time": 112.69, "note_off_time": 113.707}, {"pitch": 67, "velocity": 40, "note_on_time": 112.69, "note_off_time": 113.707}, {"pitch": 76, "velocity": 40, "note_on_time": 114.714, "note_off_time": 115.723}, {"pitch": 60, "velocity": 40, "note_on_time": 120.733, "note_off_time": 121.744}, {"pitch": 64, "velocity": 40, "note_on_time": 120.734, "note_off_time": 121.745}, {"pitch": 67, "velocity": 40, "note_on_time": 120.734, "note_off_time": 121.745}, {"pitch": 74, "velocity": 40, "note_on_time": 122.75, "note_off_time": 123.762}, {"pitch": 60, "velocity": 40, "note_on_time": 128.769, "note_off_time": 129.774}, {"pitch": 64, "velocity": 40, "note_on_time": 128.77, "note_off_time": 129.775}, {"pitch": 67, "velocity": 40, "note_on_time": 128.77, "note_off_time": 129.775}, {"pitch": 77, "velocity": 40, "note_on_time": 130.776, "note_off_time": 131.779}, {"pitch": 60, "velocity": 40, "note_on_time": 136.789, "note_off_time": 137.791}, {"pitch": 64, "velocity": 40, "note_on_time": 136.79, "note_off_time": 137.793}, {"pitch": 67, "velocity": 40, "note_on_time": 136.79, "note_off_time": 137.793}, {"pitch": 76, "velocity": 40, "note_on_time": 138.802, "note_off_time": 139.823}, {"pitch": 60, "velocity": 40, "note_on_time": 144.824, "note_off_time": 145.828}, {"pitch": 64, "velocity": 40, "note_on_time": 144.825, "note_off_time": 145.829}, {"pitch": 67, "velocity": 40, "note_on_time": 144.825, "note_off_time": 145.829}, {"pitch": 74, "velocity": 40, "note_on_time": 146.835, "note_off_time": 147.847}, {"pitch": 60, "velocity": 40, "note_on_time": 152.856, "note_off_time": 153.859}, {"pitch": 64, "velocity": 40, "note_on_time": 152.857, "note_off_time": 153.86}, {"pitch": 67, "velocity": 40, "note_on_time": 152.857, "note_off_time": 153.86}, {"pitch": 77, "velocity": 40, "note_on_time": 154.869, "note_off_time": 155.875}, {"pitch": 60, "velocity": 40, "note_on_time": 160.885, "note_off_time": 161.897}, {"pitch": 64, "velocity": 40, "note_on_time": 160.886, "note_off_time": 161.898}, {"pitch": 67, "velocity": 40, "note_on_time": 160.886, "note_off_time": 161.898}, {"pitch": 79, "velocity": 40, "note_on_time": 162.91, "note_off_time": 163.915}]</notes><options name="Option List">((4, 4), [0.5, 0.25], 3, 8, &lt;NoteRangePerHand.TWO_NOTES: 3&gt;, &lt;NoteRangePerHand.ONE_NOTE: 2&gt;, False, True, True, 100)</options></target_notes><trials><trial trial_no="1" timestamp="2023_06_19-17_15_05"><notes name="Played Notes">[{"pitch": 79, "velocity": 59, "note_on_time": 2.862, "note_off_time": 3.238}, {"pitch": 79, "velocity": 73, "note_on_time": 3.547, "note_off_time": 4.506}, {"pitch": 76, "velocity": 63, "note_on_time": 12.407, "note_off_time": 12.711}, {"pitch": 74, "velocity": 69, "note_on_time": 12.884, "note_off_time": 13.896}, {"pitch": 79, "velocity": 63, "note_on_time": 19.423, "note_off_time": 20.655}, {"pitch": 72, "velocity": 54, "note_on_time": 27.589, "note_off_time": 28.904}, {"pitch": 74, "velocity": 44, "note_on_time": 35.577, "note_off_time": 36.807}, {"pitch": 72, "velocity": 72, "note_on_time": 43.522, "note_off_time": 44.567}, {"pitch": 76, "velocity": 56, "note_on_time": 54.197, "note_off_time": 55.189}, {"pitch": 79, "velocity": 40, "note_on_time": 59.585, "note_off_time": 60.552}, {"pitch": 77, "velocity": 49, "note_on_time": 68.254, "note_off_time": 69.418}, {"pitch": 76, "velocity": 62, "note_on_time": 75.75, "note_off_time": 76.644}, {"pitch": 72, "velocity": 35, "note_on_time": 83.822, "note_off_time": 84.988}, {"pitch": 76, "velocity": 48, "note_on_time": 92.898, "note_off_time": 93.213}, {"pitch": 77, "velocity": 66, "note_on_time": 93.364, "note_off_time": 94.095}, {"pitch": 79, "velocity": 52, "note_on_time": 99.434, "note_off_time": 99.712}, {"pitch": 79, "velocity": 42, "note_on_time": 100.172, "note_off_time": 101.148}, {"pitch": 72, "velocity": 39, "note_on_time": 107.824, "note_off_time": 108.743}, {"pitch": 77, "velocity": 56, "note_on_time": 117.53, "note_off_time": 117.886}, {"pitch": 76, "velocity": 56, "note_on_time": 118.192, "note_off_time": 119.065}, {"pitch": 74, "velocity": 35, "note_on_time": 124.849, "note_off_time": 125.827}, {"pitch": 76, "velocity": 18, "note_on_time": 133.338, "note_off_time": 133.683}, {"pitch": 77, "velocity": 58, "note_on_time": 133.864, "note_off_time": 134.783}, {"pitch": 76, "velocity": 61, "note_on_time": 143.428, "note_off_time": 144.28}, {"pitch": 74, "velocity": 49, "note_on_time": 148.484, "note_off_time": 149.464}, {"pitch": 77, "velocity": 33, "note_on_time": 159.089, "note_off_time": 160.113}]</notes><guidance name="Guidance Mode">None</guidance><error name="Error value">99</error></trial></trials></MIDI>