<MIDI midiNo="2023_06_12-12_37_32"><target_notes><notes name="Note List">[{"pitch": 60, "velocity": 40, "note_on_time": 0.009, "note_off_time": 1.022}, {"pitch": 64, "velocity": 40, "note_on_time": 0.009, "note_off_time": 1.023}, {"pitch": 67, "velocity": 40, "note_on_time": 0.009, "note_off_time": 1.023}, {"pitch": 48, "velocity": 40, "note_on_time": 0.009, "note_off_time": 1.023}, {"pitch": 52, "velocity": 40, "note_on_time": 1.024, "note_off_time": 2.037}, {"pitch": 55, "velocity": 40, "note_on_time": 1.024, "note_off_time": 2.038}, {"pitch": 72, "velocity": 40, "note_on_time": 2.037, "note_off_time": 3.051}, {"pitch": 48, "velocity": 40, "note_on_time": 2.038, "note_off_time": 3.052}, {"pitch": 52, "velocity": 40, "note_on_time": 3.052, "note_off_time": 4.054}, {"pitch": 55, "velocity": 40, "note_on_time": 3.052, "note_off_time": 4.054}, {"pitch": 48, "velocity": 40, "note_on_time": 4.054, "note_off_time": 5.055}, {"pitch": 52, "velocity": 40, "note_on_time": 5.055, "note_off_time": 6.068}, {"pitch": 55, "velocity": 40, "note_on_time": 5.055, "note_off_time": 6.068}, {"pitch": 48, "velocity": 40, "note_on_time": 6.068, "note_off_time": 7.082}, {"pitch": 52, "velocity": 40, "note_on_time": 7.082, "note_off_time": 8.096}, {"pitch": 55, "velocity": 40, "note_on_time": 7.082, "note_off_time": 8.097}, {"pitch": 60, "velocity": 40, "note_on_time": 8.095, "note_off_time": 9.105}, {"pitch": 64, "velocity": 40, "note_on_time": 8.096, "note_off_time": 9.107}, {"pitch": 67, "velocity": 40, "note_on_time": 8.096, "note_off_time": 9.107}, {"pitch": 48, "velocity": 40, "note_on_time": 8.097, "note_off_time": 9.107}, {"pitch": 52, "velocity": 40, "note_on_time": 9.108, "note_off_time": 10.115}, {"pitch": 55, "velocity": 40, "note_on_time": 9.108, "note_off_time": 10.116}, {"pitch": 77, "velocity": 40, "note_on_time": 10.115, "note_off_time": 11.117}, {"pitch": 48, "velocity": 40, "note_on_time": 10.116, "note_off_time": 11.117}, {"pitch": 52, "velocity": 40, "note_on_time": 11.118, "note_off_time": 12.131}, {"pitch": 55, "velocity": 40, "note_on_time": 11.118, "note_off_time": 12.131}, {"pitch": 48, "velocity": 40, "note_on_time": 12.131, "note_off_time": 13.135}, {"pitch": 52, "velocity": 40, "note_on_time": 13.135, "note_off_time": 14.143}, {"pitch": 55, "velocity": 40, "note_on_time": 13.135, "note_off_time": 14.143}, {"pitch": 48, "velocity": 40, "note_on_time": 14.143, "note_off_time": 15.15}, {"pitch": 52, "velocity": 40, "note_on_time": 15.15, "note_off_time": 16.162}, {"pitch": 55, "velocity": 40, "note_on_time": 15.15, "note_off_time": 16.162}, {"pitch": 60, "velocity": 40, "note_on_time": 16.161, "note_off_time": 17.177}, {"pitch": 64, "velocity": 40, "note_on_time": 16.162, "note_off_time": 17.178}, {"pitch": 67, "velocity": 40, "note_on_time": 16.162, "note_off_time": 17.178}, {"pitch": 48, "velocity": 40, "note_on_time": 16.163, "note_off_time": 17.178}, {"pitch": 52, "velocity": 40, "note_on_time": 17.179, "note_off_time": 18.18}, {"pitch": 55, "velocity": 40, "note_on_time": 17.179, "note_off_time": 18.181}, {"pitch": 74, "velocity": 40, "note_on_time": 18.18, "note_off_time": 19.195}, {"pitch": 48, "velocity": 40, "note_on_time": 18.181, "note_off_time": 19.195}, {"pitch": 52, "velocity": 40, "note_on_time": 19.196, "note_off_time": 20.205}, {"pitch": 55, "velocity": 40, "note_on_time": 19.196, "note_off_time": 20.205}, {"pitch": 48, "velocity": 40, "note_on_time": 20.205, "note_off_time": 21.209}, {"pitch": 52, "velocity": 40, "note_on_time": 21.209, "note_off_time": 22.222}, {"pitch": 55, "velocity": 40, "note_on_time": 21.209, "note_off_time": 22.222}, {"pitch": 48, "velocity": 40, "note_on_time": 22.222, "note_off_time": 23.229}, {"pitch": 52, "velocity": 40, "note_on_time": 23.229, "note_off_time": 24.247}, {"pitch": 55, "velocity": 40, "note_on_time": 23.229, "note_off_time": 24.247}, {"pitch": 60, "velocity": 40, "note_on_time": 24.246, "note_off_time": 25.253}, {"pitch": 64, "velocity": 40, "note_on_time": 24.246, "note_off_time": 25.253}, {"pitch": 67, "velocity": 40, "note_on_time": 24.247, "note_off_time": 25.254}, {"pitch": 48, "velocity": 40, "note_on_time": 24.247, "note_off_time": 25.254}, {"pitch": 52, "velocity": 40, "note_on_time": 25.254, "note_off_time": 26.258}, {"pitch": 55, "velocity": 40, "note_on_time": 25.254, "note_off_time": 26.258}, {"pitch": 76, "velocity": 40, "note_on_time": 26.258, "note_off_time": 27.262}, {"pitch": 48, "velocity": 40, "note_on_time": 26.258, "note_off_time": 27.262}, {"pitch": 52, "velocity": 40, "note_on_time": 27.262, "note_off_time": 28.272}, {"pitch": 55, "velocity": 40, "note_on_time": 27.262, "note_off_time": 28.272}, {"pitch": 48, "velocity": 40, "note_on_time": 28.272, "note_off_time": 29.277}, {"pitch": 52, "velocity": 40, "note_on_time": 29.277, "note_off_time": 30.29}, {"pitch": 55, "velocity": 40, "note_on_time": 29.277, "note_off_time": 30.29}, {"pitch": 48, "velocity": 40, "note_on_time": 30.29, "note_off_time": 31.306}, {"pitch": 52, "velocity": 40, "note_on_time": 31.306, "note_off_time": 32.313}, {"pitch": 55, "velocity": 40, "note_on_time": 31.306, "note_off_time": 32.313}, {"pitch": 60, "velocity": 40, "note_on_time": 32.312, "note_off_time": 33.321}, {"pitch": 64, "velocity": 40, "note_on_time": 32.312, "note_off_time": 33.322}, {"pitch": 67, "velocity": 40, "note_on_time": 32.313, "note_off_time": 33.323}, {"pitch": 48, "velocity": 40, "note_on_time": 32.313, "note_off_time": 33.323}, {"pitch": 52, "velocity": 40, "note_on_time": 33.323, "note_off_time": 34.327}, {"pitch": 55, "velocity": 40, "note_on_time": 33.323, "note_off_time": 34.327}, {"pitch": 77, "velocity": 40, "note_on_time": 34.326, "note_off_time": 35.336}, {"pitch": 48, "velocity": 40, "note_on_time": 34.327, "note_off_time": 35.337}, {"pitch": 52, "velocity": 40, "note_on_time": 35.337, "note_off_time": 36.351}, {"pitch": 55, "velocity": 40, "note_on_time": 35.337, "note_off_time": 36.351}, {"pitch": 48, "velocity": 40, "note_on_time": 36.351, "note_off_time": 37.365}, {"pitch": 52, "velocity": 40, "note_on_time": 37.365, "note_off_time": 38.379}, {"pitch": 55, "velocity": 40, "note_on_time": 37.365, "note_off_time": 38.379}, {"pitch": 48, "velocity": 40, "note_on_time": 38.379, "note_off_time": 39.395}, {"pitch": 52, "velocity": 40, "note_on_time": 39.395, "note_off_time": 40.41}, {"pitch": 55, "velocity": 40, "note_on_time": 39.395, "note_off_time": 40.41}, {"pitch": 60, "velocity": 40, "note_on_time": 40.409, "note_off_time": 41.414}, {"pitch": 64, "velocity": 40, "note_on_time": 40.41, "note_off_time": 41.415}, {"pitch": 67, "velocity": 40, "note_on_time": 40.41, "note_off_time": 41.415}, {"pitch": 74, "velocity": 40, "note_on_time": 42.42, "note_off_time": 43.431}, {"pitch": 60, "velocity": 40, "note_on_time": 48.439, "note_off_time": 49.451}, {"pitch": 64, "velocity": 40, "note_on_time": 48.44, "note_off_time": 49.452}, {"pitch": 67, "velocity": 40, "note_on_time": 48.441, "note_off_time": 49.452}, {"pitch": 76, "velocity": 40, "note_on_time": 50.459, "note_off_time": 51.476}, {"pitch": 60, "velocity": 40, "note_on_time": 56.48, "note_off_time": 57.493}, {"pitch": 64, "velocity": 40, "note_on_time": 56.481, "note_off_time": 57.493}, {"pitch": 67, "velocity": 40, "note_on_time": 56.481, "note_off_time": 57.494}, {"pitch": 79, "velocity": 40, "note_on_time": 58.501, "note_off_time": 59.506}, {"pitch": 60, "velocity": 40, "note_on_time": 64.508, "note_off_time": 65.515}, {"pitch": 64, "velocity": 40, "note_on_time": 64.509, "note_off_time": 65.516}, {"pitch": 67, "velocity": 40, "note_on_time": 64.509, "note_off_time": 65.517}, {"pitch": 77, "velocity": 40, "note_on_time": 66.526, "note_off_time": 67.538}, {"pitch": 60, "velocity": 40, "note_on_time": 72.54, "note_off_time": 73.554}, {"pitch": 64, "velocity": 40, "note_on_time": 72.541, "note_off_time": 73.555}, {"pitch": 67, "velocity": 40, "note_on_time": 72.541, "note_off_time": 73.556}, {"pitch": 74, "velocity": 40, "note_on_time": 74.568, "note_off_time": 75.582}, {"pitch": 60, "velocity": 40, "note_on_time": 80.585, "note_off_time": 81.599}, {"pitch": 64, "velocity": 40, "note_on_time": 80.586, "note_off_time": 81.6}, {"pitch": 67, "velocity": 40, "note_on_time": 80.586, "note_off_time": 81.6}, {"pitch": 79, "velocity": 40, "note_on_time": 82.604, "note_off_time": 83.614}, {"pitch": 60, "velocity": 40, "note_on_time": 88.616, "note_off_time": 89.624}, {"pitch": 64, "velocity": 40, "note_on_time": 88.617, "note_off_time": 89.625}, {"pitch": 67, "velocity": 40, "note_on_time": 88.618, "note_off_time": 89.625}, {"pitch": 72, "velocity": 40, "note_on_time": 90.632, "note_off_time": 91.64}, {"pitch": 60, "velocity": 40, "note_on_time": 96.648, "note_off_time": 97.665}, {"pitch": 64, "velocity": 40, "note_on_time": 96.649, "note_off_time": 97.665}, {"pitch": 67, "velocity": 40, "note_on_time": 96.65, "note_off_time": 97.666}, {"pitch": 76, "velocity": 40, "note_on_time": 98.677, "note_off_time": 99.687}, {"pitch": 60, "velocity": 40, "note_on_time": 104.696, "note_off_time": 105.7}, {"pitch": 64, "velocity": 40, "note_on_time": 104.697, "note_off_time": 105.7}, {"pitch": 67, "velocity": 40, "note_on_time": 104.698, "note_off_time": 105.702}, {"pitch": 79, "velocity": 40, "note_on_time": 106.717, "note_off_time": 107.726}, {"pitch": 60, "velocity": 40, "note_on_time": 112.741, "note_off_time": 113.75}, {"pitch": 64, "velocity": 40, "note_on_time": 112.741, "note_off_time": 113.751}, {"pitch": 67, "velocity": 40, "note_on_time": 112.742, "note_off_time": 113.752}, {"pitch": 76, "velocity": 40, "note_on_time": 114.755, "note_off_time": 115.765}, {"pitch": 60, "velocity": 40, "note_on_time": 120.777, "note_off_time": 121.779}, {"pitch": 64, "velocity": 40, "note_on_time": 120.777, "note_off_time": 121.78}, {"pitch": 67, "velocity": 40, "note_on_time": 120.778, "note_off_time": 121.78}, {"pitch": 74, "velocity": 40, "note_on_time": 122.788, "note_off_time": 123.8}, {"pitch": 60, "velocity": 40, "note_on_time": 128.813, "note_off_time": 129.819}, {"pitch": 64, "velocity": 40, "note_on_time": 128.814, "note_off_time": 129.819}, {"pitch": 67, "velocity": 40, "note_on_time": 128.814, "note_off_time": 129.82}, {"pitch": 72, "velocity": 40, "note_on_time": 130.826, "note_off_time": 131.84}, {"pitch": 60, "velocity": 40, "note_on_time": 136.855, "note_off_time": 137.864}, {"pitch": 64, "velocity": 40, "note_on_time": 136.856, "note_off_time": 137.864}, {"pitch": 67, "velocity": 40, "note_on_time": 136.856, "note_off_time": 137.865}, {"pitch": 77, "velocity": 40, "note_on_time": 138.875, "note_off_time": 139.886}, {"pitch": 60, "velocity": 40, "note_on_time": 144.897, "note_off_time": 145.902}, {"pitch": 64, "velocity": 40, "note_on_time": 144.897, "note_off_time": 145.902}, {"pitch": 67, "velocity": 40, "note_on_time": 144.898, "note_off_time": 145.903}, {"pitch": 72, "velocity": 40, "note_on_time": 146.905, "note_off_time": 147.918}, {"pitch": 60, "velocity": 40, "note_on_time": 152.931, "note_off_time": 153.945}, {"pitch": 64, "velocity": 40, "note_on_time": 152.931, "note_off_time": 153.946}, {"pitch": 67, "velocity": 40, "note_on_time": 152.932, "note_off_time": 153.946}, {"pitch": 79, "velocity": 40, "note_on_time": 154.96, "note_off_time": 155.966}, {"pitch": 60, "velocity": 40, "note_on_time": 160.976, "note_off_time": 161.985}, {"pitch": 64, "velocity": 40, "note_on_time": 160.977, "note_off_time": 161.986}, {"pitch": 67, "velocity": 40, "note_on_time": 160.977, "note_off_time": 161.987}, {"pitch": 72, "velocity": 40, "note_on_time": 162.998, "note_off_time": 164.01}]</notes><options name="Option List">((4, 4), [0.5, 0.25], 3, 8, &lt;NoteRangePerHand.TWO_NOTES: 3&gt;, &lt;NoteRangePerHand.ONE_NOTE: 2&gt;, False, True, True, 100)</options></target_notes><trials><trial trial_no="1" timestamp="2023_06_12-12_34_48"><notes name="Played Notes">[{"pitch": 72, "velocity": 52, "note_on_time": 1.748, "note_off_time": 2.05}, {"pitch": 74, "velocity": 40, "note_on_time": 2.755, "note_off_time": 2.966}, {"pitch": 76, "velocity": 48, "note_on_time": 4.048, "note_off_time": 4.227}, {"pitch": 77, "velocity": 61, "note_on_time": 4.931, "note_off_time": 5.208}, {"pitch": 79, "velocity": 54, "note_on_time": 5.747, "note_off_time": 6.198}, {"pitch": 74, "velocity": 57, "note_on_time": 7.915, "note_off_time": 8.186}, {"pitch": 72, "velocity": 59, "note_on_time": 12.875, "note_off_time": 13.11}, {"pitch": 76, "velocity": 58, "note_on_time": 15.441, "note_off_time": 15.665}, {"pitch": 77, "velocity": 66, "note_on_time": 20.591, "note_off_time": 20.845}, {"pitch": 76, "velocity": 67, "note_on_time": 22.571, "note_off_time": 22.897}, {"pitch": 74, "velocity": 35, "note_on_time": 23.636, "note_off_time": 24.268}, {"pitch": 72, "velocity": 33, "note_on_time": 28.995, "note_off_time": 29.198}, {"pitch": 79, "velocity": 66, "note_on_time": 30.367, "note_off_time": 30.577}, {"pitch": 77, "velocity": 61, "note_on_time": 31.401, "note_off_time": 31.675}, {"pitch": 74, "velocity": 68, "note_on_time": 35.954, "note_off_time": 36.224}, {"pitch": 76, "velocity": 49, "note_on_time": 37.426, "note_off_time": 37.808}, {"pitch": 72, "velocity": 53, "note_on_time": 39.052, "note_off_time": 39.303}, {"pitch": 77, "velocity": 56, "note_on_time": 40.426, "note_off_time": 40.642}, {"pitch": 79, "velocity": 61, "note_on_time": 45.058, "note_off_time": 45.255}, {"pitch": 76, "velocity": 54, "note_on_time": 46.437, "note_off_time": 46.575}, {"pitch": 72, "velocity": 48, "note_on_time": 47.651, "note_off_time": 47.859}, {"pitch": 74, "velocity": 54, "note_on_time": 49.941, "note_off_time": 50.092}, {"pitch": 76, "velocity": 54, "note_on_time": 51.843, "note_off_time": 52.094}, {"pitch": 74, "velocity": 59, "note_on_time": 52.179, "note_off_time": 52.317}, {"pitch": 72, "velocity": 53, "note_on_time": 53.052, "note_off_time": 53.332}, {"pitch": 74, "velocity": 56, "note_on_time": 53.396, "note_off_time": 53.555}, {"pitch": 76, "velocity": 61, "note_on_time": 54.495, "note_off_time": 54.805}, {"pitch": 77, "velocity": 57, "note_on_time": 54.809, "note_off_time": 55.042}, {"pitch": 76, "velocity": 46, "note_on_time": 55.657, "note_off_time": 55.917}, {"pitch": 74, "velocity": 75, "note_on_time": 55.888, "note_off_time": 56.044}, {"pitch": 72, "velocity": 53, "note_on_time": 56.508, "note_off_time": 56.981}, {"pitch": 72, "velocity": 75, "note_on_time": 60.571, "note_off_time": 60.758}, {"pitch": 79, "velocity": 62, "note_on_time": 61.835, "note_off_time": 62.217}, {"pitch": 77, "velocity": 51, "note_on_time": 63.436, "note_off_time": 63.695}, {"pitch": 74, "velocity": 40, "note_on_time": 64.688, "note_off_time": 64.772}, {"pitch": 76, "velocity": 64, "note_on_time": 65.927, "note_off_time": 66.134}, {"pitch": 72, "velocity": 47, "note_on_time": 68.833, "note_off_time": 69.116}, {"pitch": 74, "velocity": 49, "note_on_time": 70.128, "note_off_time": 70.355}, {"pitch": 76, "velocity": 53, "note_on_time": 71.318, "note_off_time": 71.514}, {"pitch": 77, "velocity": 54, "note_on_time": 72.985, "note_off_time": 73.143}, {"pitch": 79, "velocity": 9, "note_on_time": 75.079, "note_off_time": 75.613}, {"pitch": 74, "velocity": 74, "note_on_time": 76.937, "note_off_time": 77.114}, {"pitch": 72, "velocity": 57, "note_on_time": 77.635, "note_off_time": 77.903}, {"pitch": 74, "velocity": 43, "note_on_time": 78.062, "note_off_time": 78.258}, {"pitch": 76, "velocity": 41, "note_on_time": 78.251, "note_off_time": 78.687}, {"pitch": 77, "velocity": 58, "note_on_time": 78.797, "note_off_time": 79.195}, {"pitch": 79, "velocity": 60, "note_on_time": 79.259, "note_off_time": 79.539}, {"pitch": 79, "velocity": 41, "note_on_time": 79.831, "note_off_time": 80.516}, {"pitch": 77, "velocity": 51, "note_on_time": 80.458, "note_off_time": 81.274}, {"pitch": 77, "velocity": 69, "note_on_time": 82.243, "note_off_time": 82.651}, {"pitch": 76, "velocity": 36, "note_on_time": 82.863, "note_off_time": 83.152}, {"pitch": 74, "velocity": 44, "note_on_time": 83.468, "note_off_time": 83.753}, {"pitch": 72, "velocity": 62, "note_on_time": 84.107, "note_off_time": 84.951}, {"pitch": 76, "velocity": 36, "note_on_time": 85.209, "note_off_time": 85.982}, {"pitch": 77, "velocity": 48, "note_on_time": 85.889, "note_off_time": 86.385}, {"pitch": 79, "velocity": 57, "note_on_time": 87.186, "note_off_time": 87.589}, {"pitch": 76, "velocity": 70, "note_on_time": 88.359, "note_off_time": 88.773}, {"pitch": 74, "velocity": 66, "note_on_time": 88.768, "note_off_time": 88.895}, {"pitch": 74, "velocity": 38, "note_on_time": 90.469, "note_off_time": 90.626}, {"pitch": 72, "velocity": 41, "note_on_time": 91.048, "note_off_time": 91.241}, {"pitch": 72, "velocity": 78, "note_on_time": 91.934, "note_off_time": 92.145}, {"pitch": 74, "velocity": 51, "note_on_time": 92.747, "note_off_time": 92.942}, {"pitch": 76, "velocity": 59, "note_on_time": 94.259, "note_off_time": 94.492}, {"pitch": 79, "velocity": 64, "note_on_time": 95.268, "note_off_time": 95.528}, {"pitch": 77, "velocity": 69, "note_on_time": 96.084, "note_off_time": 96.3}, {"pitch": 76, "velocity": 27, "note_on_time": 97.58, "note_off_time": 97.776}, {"pitch": 76, "velocity": 62, "note_on_time": 100.592, "note_off_time": 100.796}, {"pitch": 74, "velocity": 52, "note_on_time": 101.124, "note_off_time": 101.378}, {"pitch": 72, "velocity": 53, "note_on_time": 101.793, "note_off_time": 102.044}, {"pitch": 79, "velocity": 61, "note_on_time": 102.874, "note_off_time": 103.08}, {"pitch": 77, "velocity": 65, "note_on_time": 103.695, "note_off_time": 103.932}, {"pitch": 76, "velocity": 55, "note_on_time": 104.555, "note_off_time": 104.831}, {"pitch": 74, "velocity": 7, "note_on_time": 107.646, "note_off_time": 107.906}, {"pitch": 72, "velocity": 33, "note_on_time": 108.638, "note_off_time": 108.898}, {"pitch": 76, "velocity": 52, "note_on_time": 110.288, "note_off_time": 110.549}, {"pitch": 77, "velocity": 50, "note_on_time": 111.275, "note_off_time": 111.49}, {"pitch": 74, "velocity": 56, "note_on_time": 112.236, "note_off_time": 112.45}, {"pitch": 72, "velocity": 60, "note_on_time": 114.443, "note_off_time": 114.611}, {"pitch": 72, "velocity": 60, "note_on_time": 115.619, "note_off_time": 115.83}, {"pitch": 76, "velocity": 49, "note_on_time": 116.145, "note_off_time": 116.382}, {"pitch": 77, "velocity": 53, "note_on_time": 117.004, "note_off_time": 117.218}, {"pitch": 79, "velocity": 31, "note_on_time": 117.609, "note_off_time": 117.841}, {"pitch": 79, "velocity": 59, "note_on_time": 118.576, "note_off_time": 118.896}, {"pitch": 76, "velocity": 67, "note_on_time": 118.833, "note_off_time": 118.981}, {"pitch": 76, "velocity": 39, "note_on_time": 119.283, "note_off_time": 119.613}, {"pitch": 74, "velocity": 51, "note_on_time": 119.607, "note_off_time": 119.904}, {"pitch": 77, "velocity": 69, "note_on_time": 120.143, "note_off_time": 120.468}, {"pitch": 72, "velocity": 61, "note_on_time": 120.842, "note_off_time": 121.187}, {"pitch": 72, "velocity": 56, "note_on_time": 122.533, "note_off_time": 122.908}, {"pitch": 79, "velocity": 67, "note_on_time": 123.843, "note_off_time": 124.149}, {"pitch": 77, "velocity": 56, "note_on_time": 124.949, "note_off_time": 125.195}, {"pitch": 76, "velocity": 49, "note_on_time": 125.714, "note_off_time": 125.989}, {"pitch": 74, "velocity": 43, "note_on_time": 126.387, "note_off_time": 126.642}, {"pitch": 79, "velocity": 69, "note_on_time": 127.783, "note_off_time": 128.036}, {"pitch": 72, "velocity": 79, "note_on_time": 128.394, "note_off_time": 128.559}, {"pitch": 72, "velocity": 79, "note_on_time": 130.12, "note_off_time": 130.225}, {"pitch": 72, "velocity": 46, "note_on_time": 131.534, "note_off_time": 131.801}, {"pitch": 72, "velocity": 49, "note_on_time": 132.194, "note_off_time": 132.947}, {"pitch": 74, "velocity": 57, "note_on_time": 132.913, "note_off_time": 133.408}, {"pitch": 76, "velocity": 64, "note_on_time": 133.317, "note_off_time": 133.539}, {"pitch": 77, "velocity": 58, "note_on_time": 133.974, "note_off_time": 134.482}, {"pitch": 79, "velocity": 57, "note_on_time": 134.415, "note_off_time": 134.889}, {"pitch": 79, "velocity": 38, "note_on_time": 135.566, "note_off_time": 135.962}, {"pitch": 77, "velocity": 69, "note_on_time": 135.875, "note_off_time": 136.222}, {"pitch": 76, "velocity": 67, "note_on_time": 136.181, "note_off_time": 136.649}, {"pitch": 74, "velocity": 49, "note_on_time": 136.516, "note_off_time": 136.903}, {"pitch": 72, "velocity": 65, "note_on_time": 136.906, "note_off_time": 137.497}, {"pitch": 74, "velocity": 58, "note_on_time": 137.785, "note_off_time": 138.106}, {"pitch": 76, "velocity": 61, "note_on_time": 138.104, "note_off_time": 138.511}, {"pitch": 77, "velocity": 62, "note_on_time": 138.531, "note_off_time": 138.984}, {"pitch": 79, "velocity": 64, "note_on_time": 138.985, "note_off_time": 139.567}, {"pitch": 76, "velocity": 47, "note_on_time": 140.014, "note_off_time": 140.261}, {"pitch": 74, "velocity": 55, "note_on_time": 140.522, "note_off_time": 140.745}, {"pitch": 77, "velocity": 64, "note_on_time": 140.986, "note_off_time": 141.175}, {"pitch": 79, "velocity": 52, "note_on_time": 141.531, "note_off_time": 141.958}, {"pitch": 76, "velocity": 67, "note_on_time": 141.935, "note_off_time": 142.264}, {"pitch": 79, "velocity": 74, "note_on_time": 142.275, "note_off_time": 142.936}, {"pitch": 77, "velocity": 71, "note_on_time": 142.858, "note_off_time": 143.193}, {"pitch": 74, "velocity": 23, "note_on_time": 143.326, "note_off_time": 143.586}, {"pitch": 76, "velocity": 29, "note_on_time": 143.321, "note_off_time": 143.596}, {"pitch": 74, "velocity": 56, "note_on_time": 144.02, "note_off_time": 144.719}, {"pitch": 72, "velocity": 44, "note_on_time": 144.701, "note_off_time": 144.911}, {"pitch": 72, "velocity": 41, "note_on_time": 145.951, "note_off_time": 146.164}, {"pitch": 74, "velocity": 59, "note_on_time": 146.379, "note_off_time": 146.594}, {"pitch": 76, "velocity": 51, "note_on_time": 146.872, "note_off_time": 147.112}, {"pitch": 77, "velocity": 50, "note_on_time": 147.763, "note_off_time": 147.972}, {"pitch": 79, "velocity": 39, "note_on_time": 148.464, "note_off_time": 148.762}, {"pitch": 76, "velocity": 55, "note_on_time": 150.043, "note_off_time": 150.318}, {"pitch": 77, "velocity": 36, "note_on_time": 150.397, "note_off_time": 150.621}, {"pitch": 79, "velocity": 57, "note_on_time": 150.714, "note_off_time": 150.99}, {"pitch": 74, "velocity": 56, "note_on_time": 151.474, "note_off_time": 151.726}, {"pitch": 72, "velocity": 64, "note_on_time": 151.987, "note_off_time": 152.266}, {"pitch": 76, "velocity": 64, "note_on_time": 152.55, "note_off_time": 152.794}, {"pitch": 77, "velocity": 60, "note_on_time": 153.04, "note_off_time": 153.302}, {"pitch": 79, "velocity": 62, "note_on_time": 153.925, "note_off_time": 154.128}, {"pitch": 74, "velocity": 71, "note_on_time": 155.859, "note_off_time": 156.069}, {"pitch": 72, "velocity": 64, "note_on_time": 156.626, "note_off_time": 156.823}, {"pitch": 76, "velocity": 45, "note_on_time": 157.935, "note_off_time": 158.148}, {"pitch": 72, "velocity": 50, "note_on_time": 159.524, "note_off_time": 159.736}, {"pitch": 74, "velocity": 52, "note_on_time": 160.412, "note_off_time": 160.616}, {"pitch": 76, "velocity": 49, "note_on_time": 160.948, "note_off_time": 161.341}, {"pitch": 76, "velocity": 21, "note_on_time": 162.584, "note_off_time": 162.767}]</notes><guidance name="Guidance Mode">None</guidance><error name="Error value">99</error></trial><trial trial_no="2" timestamp="2023_06_12-12_38_13"><notes name="Played Notes">[{"pitch": 72, "velocity": 24, "note_on_time": 1.995, "note_off_time": 2.252}, {"pitch": 74, "velocity": 42, "note_on_time": 2.604, "note_off_time": 2.886}, {"pitch": 76, "velocity": 46, "note_on_time": 2.999, "note_off_time": 3.24}, {"pitch": 79, "velocity": 17, "note_on_time": 3.522, "note_off_time": 3.831}, {"pitch": 79, "velocity": 45, "note_on_time": 4.1, "note_off_time": 4.443}, {"pitch": 76, "velocity": 46, "note_on_time": 4.739, "note_off_time": 5.001}, {"pitch": 77, "velocity": 33, "note_on_time": 5.286, "note_off_time": 5.597}, {"pitch": 74, "velocity": 43, "note_on_time": 5.839, "note_off_time": 6.36}, {"pitch": 72, "velocity": 32, "note_on_time": 6.44, "note_off_time": 7.095}, {"pitch": 76, "velocity": 40, "note_on_time": 7.157, "note_off_time": 7.674}, {"pitch": 77, "velocity": 48, "note_on_time": 7.664, "note_off_time": 7.93}, {"pitch": 79, "velocity": 28, "note_on_time": 8.337, "note_off_time": 8.634}, {"pitch": 74, "velocity": 42, "note_on_time": 9.105, "note_off_time": 9.417}, {"pitch": 76, "velocity": 35, "note_on_time": 9.729, "note_off_time": 10.028}, {"pitch": 77, "velocity": 39, "note_on_time": 10.421, "note_off_time": 10.703}, {"pitch": 72, "velocity": 47, "note_on_time": 11.112, "note_off_time": 11.398}, {"pitch": 74, "velocity": 37, "note_on_time": 11.85, "note_off_time": 12.797}, {"pitch": 79, "velocity": 41, "note_on_time": 12.81, "note_off_time": 13.03}, {"pitch": 79, "velocity": 26, "note_on_time": 13.865, "note_off_time": 14.156}, {"pitch": 76, "velocity": 31, "note_on_time": 14.599, "note_off_time": 15.282}, {"pitch": 72, "velocity": 42, "note_on_time": 15.298, "note_off_time": 15.918}, {"pitch": 74, "velocity": 49, "note_on_time": 15.898, "note_off_time": 16.249}, {"pitch": 72, "velocity": 52, "note_on_time": 16.263, "note_off_time": 16.531}, {"pitch": 74, "velocity": 56, "note_on_time": 16.53, "note_off_time": 17.314}, {"pitch": 77, "velocity": 71, "note_on_time": 17.291, "note_off_time": 18.092}, {"pitch": 79, "velocity": 54, "note_on_time": 17.971, "note_off_time": 18.777}, {"pitch": 76, "velocity": 65, "note_on_time": 18.718, "note_off_time": 19.381}, {"pitch": 74, "velocity": 33, "note_on_time": 19.325, "note_off_time": 20.326}, {"pitch": 72, "velocity": 61, "note_on_time": 20.28, "note_off_time": 20.612}, {"pitch": 76, "velocity": 62, "note_on_time": 21.074, "note_off_time": 21.314}, {"pitch": 77, "velocity": 46, "note_on_time": 21.645, "note_off_time": 21.905}, {"pitch": 79, "velocity": 52, "note_on_time": 22.263, "note_off_time": 22.782}, {"pitch": 77, "velocity": 47, "note_on_time": 23.335, "note_off_time": 23.808}, {"pitch": 76, "velocity": 59, "note_on_time": 23.792, "note_off_time": 24.002}, {"pitch": 72, "velocity": 28, "note_on_time": 24.437, "note_off_time": 24.841}, {"pitch": 74, "velocity": 48, "note_on_time": 25.135, "note_off_time": 25.501}, {"pitch": 76, "velocity": 51, "note_on_time": 25.519, "note_off_time": 25.88}, {"pitch": 77, "velocity": 50, "note_on_time": 26.043, "note_off_time": 26.313}, {"pitch": 79, "velocity": 27, "note_on_time": 26.644, "note_off_time": 27.25}, {"pitch": 72, "velocity": 14, "note_on_time": 27.529, "note_off_time": 27.616}, {"pitch": 74, "velocity": 25, "note_on_time": 27.519, "note_off_time": 28.025}, {"pitch": 74, "velocity": 55, "note_on_time": 28.313, "note_off_time": 28.598}, {"pitch": 76, "velocity": 48, "note_on_time": 28.812, "note_off_time": 29.065}, {"pitch": 77, "velocity": 53, "note_on_time": 29.293, "note_off_time": 29.702}, {"pitch": 79, "velocity": 43, "note_on_time": 29.862, "note_off_time": 30.126}, {"pitch": 81, "velocity": 54, "note_on_time": 30.452, "note_off_time": 30.754}, {"pitch": 81, "velocity": 41, "note_on_time": 31.165, "note_off_time": 31.46}, {"pitch": 79, "velocity": 27, "note_on_time": 31.979, "note_off_time": 32.836}, {"pitch": 72, "velocity": 21, "note_on_time": 32.744, "note_off_time": 33.663}, {"pitch": 74, "velocity": 49, "note_on_time": 33.603, "note_off_time": 34.171}, {"pitch": 72, "velocity": 61, "note_on_time": 34.163, "note_off_time": 34.75}, {"pitch": 76, "velocity": 55, "note_on_time": 34.735, "note_off_time": 35.308}, {"pitch": 77, "velocity": 56, "note_on_time": 35.243, "note_off_time": 35.875}, {"pitch": 79, "velocity": 68, "note_on_time": 35.83, "note_off_time": 36.511}, {"pitch": 74, "velocity": 45, "note_on_time": 36.454, "note_off_time": 36.888}, {"pitch": 76, "velocity": 54, "note_on_time": 36.892, "note_off_time": 37.338}, {"pitch": 77, "velocity": 66, "note_on_time": 37.323, "note_off_time": 38.006}, {"pitch": 72, "velocity": 36, "note_on_time": 37.951, "note_off_time": 38.523}, {"pitch": 74, "velocity": 56, "note_on_time": 38.385, "note_off_time": 38.844}, {"pitch": 76, "velocity": 63, "note_on_time": 38.793, "note_off_time": 39.409}, {"pitch": 79, "velocity": 28, "note_on_time": 39.512, "note_off_time": 40.134}, {"pitch": 77, "velocity": 55, "note_on_time": 40.025, "note_off_time": 40.253}, {"pitch": 76, "velocity": 21, "note_on_time": 40.851, "note_off_time": 41.472}, {"pitch": 74, "velocity": 44, "note_on_time": 41.339, "note_off_time": 41.565}, {"pitch": 74, "velocity": 14, "note_on_time": 41.883, "note_off_time": 42.098}, {"pitch": 72, "velocity": 52, "note_on_time": 42.143, "note_off_time": 43.104}, {"pitch": 79, "velocity": 46, "note_on_time": 42.933, "note_off_time": 43.207}, {"pitch": 79, "velocity": 52, "note_on_time": 43.516, "note_off_time": 43.785}, {"pitch": 79, "velocity": 54, "note_on_time": 44.034, "note_off_time": 44.511}, {"pitch": 77, "velocity": 55, "note_on_time": 44.647, "note_off_time": 45.229}, {"pitch": 76, "velocity": 44, "note_on_time": 45.169, "note_off_time": 45.474}, {"pitch": 74, "velocity": 56, "note_on_time": 45.662, "note_off_time": 46.216}, {"pitch": 72, "velocity": 55, "note_on_time": 46.238, "note_off_time": 46.882}, {"pitch": 77, "velocity": 64, "note_on_time": 46.795, "note_off_time": 47.257}, {"pitch": 76, "velocity": 62, "note_on_time": 47.212, "note_off_time": 47.655}, {"pitch": 74, "velocity": 43, "note_on_time": 47.663, "note_off_time": 47.969}, {"pitch": 74, "velocity": 46, "note_on_time": 48.565, "note_off_time": 48.74}, {"pitch": 74, "velocity": 57, "note_on_time": 48.952, "note_off_time": 49.106}, {"pitch": 74, "velocity": 53, "note_on_time": 49.272, "note_off_time": 49.602}, {"pitch": 76, "velocity": 57, "note_on_time": 49.634, "note_off_time": 50.085}, {"pitch": 77, "velocity": 72, "note_on_time": 50.033, "note_off_time": 50.459}, {"pitch": 79, "velocity": 68, "note_on_time": 50.364, "note_off_time": 50.936}, {"pitch": 76, "velocity": 62, "note_on_time": 50.852, "note_off_time": 51.253}, {"pitch": 74, "velocity": 50, "note_on_time": 51.262, "note_off_time": 51.81}, {"pitch": 72, "velocity": 56, "note_on_time": 51.708, "note_off_time": 52.1}, {"pitch": 76, "velocity": 51, "note_on_time": 52.355, "note_off_time": 52.795}, {"pitch": 74, "velocity": 58, "note_on_time": 52.796, "note_off_time": 53.093}, {"pitch": 77, "velocity": 57, "note_on_time": 53.287, "note_off_time": 53.798}, {"pitch": 72, "velocity": 65, "note_on_time": 53.906, "note_off_time": 54.364}, {"pitch": 74, "velocity": 44, "note_on_time": 54.393, "note_off_time": 54.614}, {"pitch": 76, "velocity": 43, "note_on_time": 54.909, "note_off_time": 55.129}, {"pitch": 77, "velocity": 47, "note_on_time": 55.401, "note_off_time": 55.607}, {"pitch": 79, "velocity": 58, "note_on_time": 55.844, "note_off_time": 56.272}, {"pitch": 77, "velocity": 55, "note_on_time": 56.623, "note_off_time": 57.105}, {"pitch": 76, "velocity": 51, "note_on_time": 57.161, "note_off_time": 57.692}, {"pitch": 74, "velocity": 55, "note_on_time": 57.662, "note_off_time": 58.185}, {"pitch": 72, "velocity": 52, "note_on_time": 58.187, "note_off_time": 58.425}, {"pitch": 72, "velocity": 48, "note_on_time": 58.725, "note_off_time": 58.991}, {"pitch": 74, "velocity": 50, "note_on_time": 59.332, "note_off_time": 59.555}, {"pitch": 76, "velocity": 35, "note_on_time": 59.952, "note_off_time": 60.209}, {"pitch": 77, "velocity": 52, "note_on_time": 60.479, "note_off_time": 60.687}, {"pitch": 79, "velocity": 57, "note_on_time": 60.986, "note_off_time": 61.219}, {"pitch": 77, "velocity": 51, "note_on_time": 61.512, "note_off_time": 61.763}, {"pitch": 76, "velocity": 49, "note_on_time": 62.098, "note_off_time": 62.324}, {"pitch": 74, "velocity": 23, "note_on_time": 62.653, "note_off_time": 62.907}, {"pitch": 72, "velocity": 55, "note_on_time": 63.131, "note_off_time": 63.388}, {"pitch": 74, "velocity": 39, "note_on_time": 63.62, "note_off_time": 63.832}, {"pitch": 76, "velocity": 36, "note_on_time": 64.161, "note_off_time": 64.388}, {"pitch": 77, "velocity": 59, "note_on_time": 64.665, "note_off_time": 64.883}, {"pitch": 79, "velocity": 52, "note_on_time": 65.148, "note_off_time": 65.433}, {"pitch": 76, "velocity": 39, "note_on_time": 65.839, "note_off_time": 66.054}, {"pitch": 74, "velocity": 50, "note_on_time": 66.322, "note_off_time": 66.536}, {"pitch": 72, "velocity": 59, "note_on_time": 66.799, "note_off_time": 67.004}, {"pitch": 77, "velocity": 55, "note_on_time": 67.639, "note_off_time": 67.772}, {"pitch": 79, "velocity": 65, "note_on_time": 68.134, "note_off_time": 68.324}, {"pitch": 79, "velocity": 52, "note_on_time": 68.537, "note_off_time": 68.738}, {"pitch": 76, "velocity": 52, "note_on_time": 69.03, "note_off_time": 69.228}, {"pitch": 74, "velocity": 61, "note_on_time": 69.471, "note_off_time": 69.651}, {"pitch": 72, "velocity": 68, "note_on_time": 69.892, "note_off_time": 70.097}, {"pitch": 76, "velocity": 52, "note_on_time": 70.774, "note_off_time": 71.125}, {"pitch": 74, "velocity": 55, "note_on_time": 71.19, "note_off_time": 71.41}, {"pitch": 74, "velocity": 34, "note_on_time": 71.58, "note_off_time": 71.675}, {"pitch": 77, "velocity": 59, "note_on_time": 71.688, "note_off_time": 71.971}, {"pitch": 79, "velocity": 61, "note_on_time": 72.291, "note_off_time": 72.635}, {"pitch": 77, "velocity": 55, "note_on_time": 72.867, "note_off_time": 73.14}, {"pitch": 76, "velocity": 55, "note_on_time": 73.438, "note_off_time": 73.672}, {"pitch": 74, "velocity": 55, "note_on_time": 73.987, "note_off_time": 74.22}, {"pitch": 72, "velocity": 54, "note_on_time": 74.512, "note_off_time": 74.74}, {"pitch": 74, "velocity": 53, "note_on_time": 75.1, "note_off_time": 75.324}, {"pitch": 76, "velocity": 51, "note_on_time": 75.597, "note_off_time": 75.821}, {"pitch": 77, "velocity": 50, "note_on_time": 76.124, "note_off_time": 76.344}, {"pitch": 79, "velocity": 58, "note_on_time": 76.628, "note_off_time": 76.887}, {"pitch": 72, "velocity": 50, "note_on_time": 77.333, "note_off_time": 77.54}, {"pitch": 72, "velocity": 50, "note_on_time": 77.883, "note_off_time": 78.154}, {"pitch": 74, "velocity": 27, "note_on_time": 78.265, "note_off_time": 78.811}, {"pitch": 76, "velocity": 56, "note_on_time": 78.696, "note_off_time": 79.036}, {"pitch": 77, "velocity": 20, "note_on_time": 79.231, "note_off_time": 79.529}, {"pitch": 79, "velocity": 47, "note_on_time": 79.867, "note_off_time": 80.158}, {"pitch": 77, "velocity": 48, "note_on_time": 80.292, "note_off_time": 80.538}, {"pitch": 76, "velocity": 63, "note_on_time": 80.747, "note_off_time": 81.357}, {"pitch": 74, "velocity": 44, "note_on_time": 81.388, "note_off_time": 81.816}, {"pitch": 72, "velocity": 53, "note_on_time": 81.815, "note_off_time": 82.737}, {"pitch": 74, "velocity": 49, "note_on_time": 82.665, "note_off_time": 83.137}, {"pitch": 76, "velocity": 58, "note_on_time": 83.098, "note_off_time": 83.657}, {"pitch": 77, "velocity": 57, "note_on_time": 83.509, "note_off_time": 84.145}, {"pitch": 79, "velocity": 74, "note_on_time": 84.066, "note_off_time": 84.502}, {"pitch": 77, "velocity": 53, "note_on_time": 84.583, "note_off_time": 85.124}, {"pitch": 76, "velocity": 67, "note_on_time": 85.047, "note_off_time": 85.512}, {"pitch": 74, "velocity": 51, "note_on_time": 85.478, "note_off_time": 85.933}, {"pitch": 72, "velocity": 62, "note_on_time": 85.882, "note_off_time": 86.555}, {"pitch": 74, "velocity": 39, "note_on_time": 86.585, "note_off_time": 87.186}, {"pitch": 76, "velocity": 5, "note_on_time": 87.788, "note_off_time": 88.295}, {"pitch": 76, "velocity": 65, "note_on_time": 88.506, "note_off_time": 88.964}, {"pitch": 77, "velocity": 66, "note_on_time": 88.892, "note_off_time": 89.29}, {"pitch": 79, "velocity": 60, "note_on_time": 89.287, "note_off_time": 89.561}, {"pitch": 72, "velocity": 49, "note_on_time": 87.181, "note_off_time": 90.091}, {"pitch": 79, "velocity": 27, "note_on_time": 89.939, "note_off_time": 90.538}, {"pitch": 77, "velocity": 54, "note_on_time": 90.445, "note_off_time": 91.006}, {"pitch": 76, "velocity": 68, "note_on_time": 90.936, "note_off_time": 91.404}, {"pitch": 74, "velocity": 60, "note_on_time": 91.354, "note_off_time": 91.863}, {"pitch": 72, "velocity": 60, "note_on_time": 91.785, "note_off_time": 92.451}, {"pitch": 74, "velocity": 66, "note_on_time": 92.438, "note_off_time": 93.088}, {"pitch": 76, "velocity": 44, "note_on_time": 92.978, "note_off_time": 93.704}, {"pitch": 71, "velocity": 1, "note_on_time": 94.069, "note_off_time": 94.35}, {"pitch": 77, "velocity": 36, "note_on_time": 94.252, "note_off_time": 94.433}, {"pitch": 77, "velocity": 53, "note_on_time": 94.716, "note_off_time": 95.426}, {"pitch": 76, "velocity": 8, "note_on_time": 95.403, "note_off_time": 96.052}, {"pitch": 76, "velocity": 58, "note_on_time": 96.237, "note_off_time": 96.466}, {"pitch": 76, "velocity": 38, "note_on_time": 96.696, "note_off_time": 96.925}, {"pitch": 76, "velocity": 26, "note_on_time": 97.48, "note_off_time": 97.828}, {"pitch": 77, "velocity": 1, "note_on_time": 96.632, "note_off_time": 97.926}, {"pitch": 76, "velocity": 59, "note_on_time": 98.086, "note_off_time": 98.576}, {"pitch": 74, "velocity": 56, "note_on_time": 98.575, "note_off_time": 98.868}, {"pitch": 72, "velocity": 41, "note_on_time": 99.306, "note_off_time": 99.576}, {"pitch": 74, "velocity": 49, "note_on_time": 99.887, "note_off_time": 100.076}, {"pitch": 72, "velocity": 35, "note_on_time": 100.136, "note_off_time": 100.405}, {"pitch": 74, "velocity": 39, "note_on_time": 100.69, "note_off_time": 100.969}, {"pitch": 77, "velocity": 63, "note_on_time": 101.271, "note_off_time": 101.537}, {"pitch": 79, "velocity": 55, "note_on_time": 101.805, "note_off_time": 102.022}, {"pitch": 77, "velocity": 55, "note_on_time": 102.352, "note_off_time": 102.615}, {"pitch": 74, "velocity": 17, "note_on_time": 103.126, "note_off_time": 103.185}, {"pitch": 76, "velocity": 30, "note_on_time": 103.097, "note_off_time": 103.457}, {"pitch": 74, "velocity": 60, "note_on_time": 103.74, "note_off_time": 104.006}, {"pitch": 76, "velocity": 58, "note_on_time": 104.282, "note_off_time": 104.542}, {"pitch": 77, "velocity": 56, "note_on_time": 104.841, "note_off_time": 105.112}, {"pitch": 79, "velocity": 48, "note_on_time": 105.5, "note_off_time": 105.787}, {"pitch": 74, "velocity": 55, "note_on_time": 106.231, "note_off_time": 106.605}, {"pitch": 76, "velocity": 51, "note_on_time": 106.762, "note_off_time": 107.173}, {"pitch": 79, "velocity": 16, "note_on_time": 107.313, "note_off_time": 107.418}, {"pitch": 77, "velocity": 11, "note_on_time": 107.317, "note_off_time": 107.838}, {"pitch": 79, "velocity": 52, "note_on_time": 108.13, "note_off_time": 108.523}, {"pitch": 74, "velocity": 49, "note_on_time": 108.866, "note_off_time": 109.19}, {"pitch": 72, "velocity": 32, "note_on_time": 109.432, "note_off_time": 109.696}, {"pitch": 76, "velocity": 45, "note_on_time": 110.019, "note_off_time": 110.327}, {"pitch": 77, "velocity": 59, "note_on_time": 110.594, "note_off_time": 111.251}, {"pitch": 79, "velocity": 62, "note_on_time": 111.178, "note_off_time": 111.665}, {"pitch": 76, "velocity": 43, "note_on_time": 111.637, "note_off_time": 112.295}, {"pitch": 74, "velocity": 44, "note_on_time": 112.215, "note_off_time": 112.807}, {"pitch": 72, "velocity": 62, "note_on_time": 112.744, "note_off_time": 113.116}, {"pitch": 74, "velocity": 15, "note_on_time": 113.19, "note_off_time": 113.931}, {"pitch": 76, "velocity": 51, "note_on_time": 113.811, "note_off_time": 114.65}, {"pitch": 77, "velocity": 40, "note_on_time": 114.411, "note_off_time": 114.79}, {"pitch": 79, "velocity": 59, "note_on_time": 115.035, "note_off_time": 115.489}, {"pitch": 77, "velocity": 60, "note_on_time": 115.452, "note_off_time": 115.676}, {"pitch": 76, "velocity": 53, "note_on_time": 115.97, "note_off_time": 116.411}, {"pitch": 74, "velocity": 56, "note_on_time": 116.384, "note_off_time": 116.869}, {"pitch": 72, "velocity": 61, "note_on_time": 116.852, "note_off_time": 117.272}, {"pitch": 74, "velocity": 61, "note_on_time": 117.411, "note_off_time": 117.628}, {"pitch": 76, "velocity": 48, "note_on_time": 117.784, "note_off_time": 118.024}, {"pitch": 77, "velocity": 57, "note_on_time": 118.21, "note_off_time": 118.429}, {"pitch": 79, "velocity": 65, "note_on_time": 118.721, "note_off_time": 119.184}, {"pitch": 79, "velocity": 52, "note_on_time": 119.516, "note_off_time": 119.894}, {"pitch": 79, "velocity": 46, "note_on_time": 120.244, "note_off_time": 120.911}, {"pitch": 77, "velocity": 35, "note_on_time": 120.79, "note_off_time": 121.286}, {"pitch": 76, "velocity": 40, "note_on_time": 121.351, "note_off_time": 121.992}, {"pitch": 74, "velocity": 46, "note_on_time": 121.914, "note_off_time": 122.451}, {"pitch": 72, "velocity": 50, "note_on_time": 122.47, "note_off_time": 123.074}, {"pitch": 74, "velocity": 52, "note_on_time": 122.938, "note_off_time": 123.384}, {"pitch": 76, "velocity": 55, "note_on_time": 123.29, "note_off_time": 123.828}, {"pitch": 77, "velocity": 69, "note_on_time": 123.693, "note_off_time": 124.879}, {"pitch": 79, "velocity": 62, "note_on_time": 124.819, "note_off_time": 125.586}, {"pitch": 77, "velocity": 51, "note_on_time": 125.472, "note_off_time": 125.996}, {"pitch": 74, "velocity": 51, "note_on_time": 126.006, "note_off_time": 126.513}, {"pitch": 76, "velocity": 62, "note_on_time": 126.494, "note_off_time": 126.99}, {"pitch": 72, "velocity": 44, "note_on_time": 126.944, "note_off_time": 127.621}, {"pitch": 74, "velocity": 56, "note_on_time": 127.48, "note_off_time": 128.085}, {"pitch": 76, "velocity": 58, "note_on_time": 128.002, "note_off_time": 128.674}, {"pitch": 77, "velocity": 63, "note_on_time": 128.523, "note_off_time": 129.122}, {"pitch": 79, "velocity": 65, "note_on_time": 129.032, "note_off_time": 129.75}, {"pitch": 74, "velocity": 67, "note_on_time": 129.668, "note_off_time": 130.46}, {"pitch": 76, "velocity": 67, "note_on_time": 130.433, "note_off_time": 130.847}, {"pitch": 72, "velocity": 50, "note_on_time": 130.85, "note_off_time": 131.673}, {"pitch": 77, "velocity": 64, "note_on_time": 131.496, "note_off_time": 132.106}, {"pitch": 72, "velocity": 1, "note_on_time": 131.813, "note_off_time": 132.149}, {"pitch": 79, "velocity": 62, "note_on_time": 132.044, "note_off_time": 132.681}, {"pitch": 77, "velocity": 68, "note_on_time": 132.594, "note_off_time": 133.169}, {"pitch": 76, "velocity": 68, "note_on_time": 133.073, "note_off_time": 133.764}, {"pitch": 74, "velocity": 59, "note_on_time": 133.674, "note_off_time": 134.316}, {"pitch": 72, "velocity": 71, "note_on_time": 134.228, "note_off_time": 134.871}, {"pitch": 74, "velocity": 65, "note_on_time": 134.812, "note_off_time": 135.478}, {"pitch": 76, "velocity": 53, "note_on_time": 135.336, "note_off_time": 135.846}, {"pitch": 79, "velocity": 29, "note_on_time": 135.857, "note_off_time": 135.968}, {"pitch": 77, "velocity": 30, "note_on_time": 135.877, "note_off_time": 136.227}, {"pitch": 79, "velocity": 56, "note_on_time": 136.506, "note_off_time": 136.993}, {"pitch": 77, "velocity": 64, "note_on_time": 136.968, "note_off_time": 137.388}, {"pitch": 77, "velocity": 51, "note_on_time": 137.611, "note_off_time": 138.248}, {"pitch": 76, "velocity": 57, "note_on_time": 138.163, "note_off_time": 139.114}, {"pitch": 76, "velocity": 60, "note_on_time": 139.311, "note_off_time": 139.629}, {"pitch": 74, "velocity": 41, "note_on_time": 139.444, "note_off_time": 140.383}, {"pitch": 72, "velocity": 54, "note_on_time": 140.225, "note_off_time": 140.493}, {"pitch": 74, "velocity": 1, "note_on_time": 140.476, "note_off_time": 140.658}, {"pitch": 74, "velocity": 1, "note_on_time": 140.928, "note_off_time": 141.116}, {"pitch": 72, "velocity": 59, "note_on_time": 141.035, "note_off_time": 141.327}, {"pitch": 74, "velocity": 60, "note_on_time": 141.302, "note_off_time": 142.329}, {"pitch": 76, "velocity": 30, "note_on_time": 141.905, "note_off_time": 142.681}, {"pitch": 76, "velocity": 57, "note_on_time": 143.034, "note_off_time": 143.784}, {"pitch": 77, "velocity": 24, "note_on_time": 143.63, "note_off_time": 144.501}, {"pitch": 76, "velocity": 57, "note_on_time": 144.373, "note_off_time": 145.108}, {"pitch": 79, "velocity": 42, "note_on_time": 145.043, "note_off_time": 145.546}, {"pitch": 76, "velocity": 38, "note_on_time": 145.524, "note_off_time": 146.0}, {"pitch": 72, "velocity": 19, "note_on_time": 145.976, "note_off_time": 146.503}, {"pitch": 74, "velocity": 35, "note_on_time": 146.633, "note_off_time": 146.734}, {"pitch": 72, "velocity": 30, "note_on_time": 146.748, "note_off_time": 147.277}, {"pitch": 74, "velocity": 55, "note_on_time": 147.234, "note_off_time": 147.754}, {"pitch": 76, "velocity": 58, "note_on_time": 147.704, "note_off_time": 148.509}, {"pitch": 77, "velocity": 45, "note_on_time": 148.357, "note_off_time": 148.627}, {"pitch": 76, "velocity": 17, "note_on_time": 149.232, "note_off_time": 149.333}, {"pitch": 79, "velocity": 45, "note_on_time": 148.58, "note_off_time": 149.46}, {"pitch": 77, "velocity": 18, "note_on_time": 149.211, "note_off_time": 149.802}, {"pitch": 76, "velocity": 53, "note_on_time": 149.72, "note_off_time": 150.448}, {"pitch": 74, "velocity": 38, "note_on_time": 150.381, "note_off_time": 151.187}, {"pitch": 76, "velocity": 53, "note_on_time": 151.14, "note_off_time": 151.681}, {"pitch": 77, "velocity": 58, "note_on_time": 151.649, "note_off_time": 152.458}, {"pitch": 74, "velocity": 24, "note_on_time": 152.37, "note_off_time": 153.32}, {"pitch": 72, "velocity": 56, "note_on_time": 153.23, "note_off_time": 153.998}, {"pitch": 74, "velocity": 58, "note_on_time": 153.851, "note_off_time": 154.402}, {"pitch": 76, "velocity": 60, "note_on_time": 154.275, "note_off_time": 154.984}, {"pitch": 77, "velocity": 47, "note_on_time": 155.019, "note_off_time": 155.17}, {"pitch": 76, "velocity": 50, "note_on_time": 155.094, "note_off_time": 155.779}, {"pitch": 77, "velocity": 60, "note_on_time": 155.698, "note_off_time": 156.328}, {"pitch": 76, "velocity": 15, "note_on_time": 156.337, "note_off_time": 156.669}, {"pitch": 74, "velocity": 55, "note_on_time": 156.687, "note_off_time": 157.314}, {"pitch": 72, "velocity": 53, "note_on_time": 157.189, "note_off_time": 157.647}, {"pitch": 74, "velocity": 55, "note_on_time": 157.634, "note_off_time": 158.059}, {"pitch": 76, "velocity": 54, "note_on_time": 158.033, "note_off_time": 158.71}, {"pitch": 77, "velocity": 39, "note_on_time": 158.626, "note_off_time": 159.337}, {"pitch": 79, "velocity": 56, "note_on_time": 159.267, "note_off_time": 159.748}, {"pitch": 77, "velocity": 51, "note_on_time": 159.712, "note_off_time": 160.259}, {"pitch": 76, "velocity": 54, "note_on_time": 160.165, "note_off_time": 160.69}, {"pitch": 74, "velocity": 61, "note_on_time": 160.655, "note_off_time": 161.231}, {"pitch": 72, "velocity": 57, "note_on_time": 161.144, "note_off_time": 162.243}, {"pitch": 71, "velocity": 49, "note_on_time": 162.072, "note_off_time": 162.554}, {"pitch": 72, "velocity": 53, "note_on_time": 162.553, "note_off_time": 162.845}, {"pitch": 74, "velocity": 52, "note_on_time": 162.871, "note_off_time": 163.824}, {"pitch": 72, "velocity": 35, "note_on_time": 163.833, "note_off_time": 163.964}, {"pitch": 76, "velocity": 53, "note_on_time": 163.881, "note_off_time": 164.615}, {"pitch": 77, "velocity": 51, "note_on_time": 164.468, "note_off_time": 164.959}, {"pitch": 76, "velocity": 41, "note_on_time": 164.87, "note_off_time": 165.422}, {"pitch": 79, "velocity": 37, "note_on_time": 165.329, "note_off_time": 165.963}, {"pitch": 77, "velocity": 50, "note_on_time": 165.809, "note_off_time": 166.198}, {"pitch": 76, "velocity": 32, "note_on_time": 166.311, "note_off_time": 166.634}, {"pitch": 74, "velocity": 33, "note_on_time": 166.909, "note_off_time": 167.105}, {"pitch": 72, "velocity": 48, "note_on_time": 167.352, "note_off_time": 167.56}, {"pitch": 76, "velocity": 40, "note_on_time": 167.934, "note_off_time": 168.133}, {"pitch": 76, "velocity": 47, "note_on_time": 168.25, "note_off_time": 168.434}, {"pitch": 76, "velocity": 42, "note_on_time": 168.565, "note_off_time": 168.75}, {"pitch": 77, "velocity": 44, "note_on_time": 169.034, "note_off_time": 169.574}, {"pitch": 79, "velocity": 48, "note_on_time": 169.608, "note_off_time": 170.182}, {"pitch": 76, "velocity": 57, "note_on_time": 170.095, "note_off_time": 170.613}, {"pitch": 74, "velocity": 51, "note_on_time": 170.612, "note_off_time": 171.136}, {"pitch": 72, "velocity": 50, "note_on_time": 171.083, "note_off_time": 172.1}, {"pitch": 74, "velocity": 42, "note_on_time": 172.09, "note_off_time": 172.687}, {"pitch": 76, "velocity": 47, "note_on_time": 172.612, "note_off_time": 173.253}, {"pitch": 77, "velocity": 31, "note_on_time": 173.173, "note_off_time": 174.22}, {"pitch": 79, "velocity": 51, "note_on_time": 174.129, "note_off_time": 174.819}, {"pitch": 81, "velocity": 59, "note_on_time": 174.696, "note_off_time": 175.574}, {"pitch": 79, "velocity": 21, "note_on_time": 175.442, "note_off_time": 176.24}, {"pitch": 81, "velocity": 1, "note_on_time": 175.872, "note_off_time": 176.397}, {"pitch": 77, "velocity": 38, "note_on_time": 176.289, "note_off_time": 176.739}, {"pitch": 79, "velocity": 60, "note_on_time": 176.7, "note_off_time": 177.45}, {"pitch": 76, "velocity": 28, "note_on_time": 177.373, "note_off_time": 178.167}, {"pitch": 77, "velocity": 52, "note_on_time": 178.071, "note_off_time": 178.552}, {"pitch": 76, "velocity": 58, "note_on_time": 178.442, "note_off_time": 179.036}, {"pitch": 74, "velocity": 48, "note_on_time": 178.976, "note_off_time": 179.735}, {"pitch": 72, "velocity": 55, "note_on_time": 179.544, "note_off_time": 180.383}, {"pitch": 71, "velocity": 49, "note_on_time": 180.282, "note_off_time": 181.165}, {"pitch": 72, "velocity": 52, "note_on_time": 181.005, "note_off_time": 181.686}, {"pitch": 74, "velocity": 50, "note_on_time": 181.667, "note_off_time": 182.306}, {"pitch": 76, "velocity": 41, "note_on_time": 182.172, "note_off_time": 183.399}, {"pitch": 77, "velocity": 62, "note_on_time": 183.346, "note_off_time": 183.791}, {"pitch": 79, "velocity": 71, "note_on_time": 183.841, "note_off_time": 184.703}, {"pitch": 76, "velocity": 43, "note_on_time": 184.631, "note_off_time": 185.22}, {"pitch": 74, "velocity": 59, "note_on_time": 185.127, "note_off_time": 185.701}, {"pitch": 72, "velocity": 53, "note_on_time": 185.717, "note_off_time": 186.525}, {"pitch": 76, "velocity": 54, "note_on_time": 186.409, "note_off_time": 186.945}, {"pitch": 77, "velocity": 54, "note_on_time": 186.895, "note_off_time": 187.581}, {"pitch": 79, "velocity": 45, "note_on_time": 187.523, "note_off_time": 188.405}, {"pitch": 76, "velocity": 61, "note_on_time": 188.321, "note_off_time": 188.966}, {"pitch": 74, "velocity": 38, "note_on_time": 188.96, "note_off_time": 189.609}, {"pitch": 72, "velocity": 61, "note_on_time": 189.523, "note_off_time": 190.566}, {"pitch": 76, "velocity": 17, "note_on_time": 190.535, "note_off_time": 191.253}, {"pitch": 77, "velocity": 41, "note_on_time": 191.172, "note_off_time": 192.25}, {"pitch": 79, "velocity": 55, "note_on_time": 192.247, "note_off_time": 193.036}, {"pitch": 77, "velocity": 47, "note_on_time": 192.843, "note_off_time": 193.571}, {"pitch": 76, "velocity": 34, "note_on_time": 193.517, "note_off_time": 194.193}]</notes><guidance name="Guidance Mode">None</guidance><error name="Error value">99</error></trial><trial trial_no="3" timestamp="2023_06_12-12_43_03"><notes name="Played Notes">[{"pitch": 72, "velocity": 1, "note_on_time": 0.986, "note_off_time": 1.631}, {"pitch": 74, "velocity": 38, "note_on_time": 1.478, "note_off_time": 1.971}, {"pitch": 76, "velocity": 57, "note_on_time": 1.891, "note_off_time": 2.59}, {"pitch": 77, "velocity": 64, "note_on_time": 2.469, "note_off_time": 4.004}, {"pitch": 76, "velocity": 38, "note_on_time": 3.868, "note_off_time": 4.545}, {"pitch": 74, "velocity": 43, "note_on_time": 4.455, "note_off_time": 5.238}, {"pitch": 72, "velocity": 58, "note_on_time": 5.111, "note_off_time": 5.858}, {"pitch": 74, "velocity": 52, "note_on_time": 5.71, "note_off_time": 6.346}, {"pitch": 76, "velocity": 49, "note_on_time": 6.257, "note_off_time": 6.976}, {"pitch": 79, "velocity": 49, "note_on_time": 8.157, "note_off_time": 8.551}, {"pitch": 77, "velocity": 54, "note_on_time": 6.877, "note_off_time": 9.017}, {"pitch": 76, "velocity": 1, "note_on_time": 8.877, "note_off_time": 9.172}, {"pitch": 77, "velocity": 68, "note_on_time": 9.116, "note_off_time": 9.524}, {"pitch": 76, "velocity": 55, "note_on_time": 9.444, "note_off_time": 9.986}, {"pitch": 74, "velocity": 46, "note_on_time": 9.937, "note_off_time": 10.523}, {"pitch": 74, "velocity": 23, "note_on_time": 11.247, "note_off_time": 11.578}, {"pitch": 72, "velocity": 58, "note_on_time": 10.447, "note_off_time": 12.008}, {"pitch": 74, "velocity": 54, "note_on_time": 11.94, "note_off_time": 12.493}, {"pitch": 76, "velocity": 59, "note_on_time": 12.381, "note_off_time": 13.038}, {"pitch": 79, "velocity": 51, "note_on_time": 14.152, "note_off_time": 14.62}, {"pitch": 77, "velocity": 65, "note_on_time": 12.95, "note_off_time": 15.143}, {"pitch": 76, "velocity": 50, "note_on_time": 15.087, "note_off_time": 15.691}, {"pitch": 74, "velocity": 58, "note_on_time": 15.585, "note_off_time": 16.257}, {"pitch": 72, "velocity": 54, "note_on_time": 16.162, "note_off_time": 17.3}, {"pitch": 74, "velocity": 47, "note_on_time": 17.171, "note_off_time": 17.85}, {"pitch": 76, "velocity": 52, "note_on_time": 17.778, "note_off_time": 18.484}, {"pitch": 77, "velocity": 53, "note_on_time": 18.327, "note_off_time": 19.332}, {"pitch": 79, "velocity": 51, "note_on_time": 19.193, "note_off_time": 19.786}, {"pitch": 77, "velocity": 62, "note_on_time": 19.658, "note_off_time": 20.361}, {"pitch": 76, "velocity": 53, "note_on_time": 20.204, "note_off_time": 21.061}, {"pitch": 74, "velocity": 46, "note_on_time": 20.979, "note_off_time": 21.63}, {"pitch": 72, "velocity": 52, "note_on_time": 21.491, "note_off_time": 22.05}, {"pitch": 74, "velocity": 51, "note_on_time": 21.985, "note_off_time": 22.579}, {"pitch": 76, "velocity": 38, "note_on_time": 22.467, "note_off_time": 23.421}, {"pitch": 76, "velocity": 33, "note_on_time": 23.884, "note_off_time": 24.239}, {"pitch": 74, "velocity": 51, "note_on_time": 24.276, "note_off_time": 24.881}, {"pitch": 72, "velocity": 61, "note_on_time": 24.724, "note_off_time": 25.868}, {"pitch": 77, "velocity": 55, "note_on_time": 23.3, "note_off_time": 26.164}, {"pitch": 76, "velocity": 41, "note_on_time": 26.105, "note_off_time": 26.599}, {"pitch": 74, "velocity": 52, "note_on_time": 26.516, "note_off_time": 27.038}, {"pitch": 76, "velocity": 45, "note_on_time": 26.955, "note_off_time": 27.48}, {"pitch": 77, "velocity": 44, "note_on_time": 27.373, "note_off_time": 28.464}, {"pitch": 76, "velocity": 49, "note_on_time": 28.266, "note_off_time": 28.944}, {"pitch": 74, "velocity": 46, "note_on_time": 28.881, "note_off_time": 29.516}, {"pitch": 72, "velocity": 51, "note_on_time": 29.346, "note_off_time": 30.352}, {"pitch": 74, "velocity": 41, "note_on_time": 30.254, "note_off_time": 30.722}, {"pitch": 76, "velocity": 49, "note_on_time": 30.631, "note_off_time": 31.444}, {"pitch": 77, "velocity": 63, "note_on_time": 31.465, "note_off_time": 32.222}, {"pitch": 79, "velocity": 46, "note_on_time": 32.098, "note_off_time": 32.803}, {"pitch": 77, "velocity": 52, "note_on_time": 32.739, "note_off_time": 33.489}, {"pitch": 76, "velocity": 56, "note_on_time": 33.373, "note_off_time": 34.052}, {"pitch": 74, "velocity": 51, "note_on_time": 34.009, "note_off_time": 34.612}, {"pitch": 72, "velocity": 57, "note_on_time": 34.54, "note_off_time": 35.053}, {"pitch": 74, "velocity": 56, "note_on_time": 35.033, "note_off_time": 35.711}, {"pitch": 76, "velocity": 50, "note_on_time": 35.579, "note_off_time": 36.514}, {"pitch": 77, "velocity": 40, "note_on_time": 36.511, "note_off_time": 37.097}, {"pitch": 76, "velocity": 45, "note_on_time": 37.013, "note_off_time": 37.771}, {"pitch": 74, "velocity": 58, "note_on_time": 37.6, "note_off_time": 38.157}, {"pitch": 76, "velocity": 57, "note_on_time": 38.079, "note_off_time": 38.725}, {"pitch": 74, "velocity": 56, "note_on_time": 38.625, "note_off_time": 39.272}, {"pitch": 72, "velocity": 46, "note_on_time": 39.187, "note_off_time": 40.142}, {"pitch": 74, "velocity": 53, "note_on_time": 40.048, "note_off_time": 40.641}, {"pitch": 76, "velocity": 66, "note_on_time": 40.564, "note_off_time": 41.382}, {"pitch": 77, "velocity": 60, "note_on_time": 41.224, "note_off_time": 41.895}, {"pitch": 74, "velocity": 55, "note_on_time": 41.802, "note_off_time": 42.559}, {"pitch": 72, "velocity": 53, "note_on_time": 42.511, "note_off_time": 43.74}, {"pitch": 76, "velocity": 30, "note_on_time": 43.549, "note_off_time": 44.143}, {"pitch": 77, "velocity": 42, "note_on_time": 43.988, "note_off_time": 44.87}, {"pitch": 76, "velocity": 51, "note_on_time": 44.745, "note_off_time": 45.38}, {"pitch": 74, "velocity": 54, "note_on_time": 45.321, "note_off_time": 45.888}, {"pitch": 72, "velocity": 65, "note_on_time": 45.776, "note_off_time": 46.431}, {"pitch": 74, "velocity": 37, "note_on_time": 46.4, "note_off_time": 46.733}, {"pitch": 72, "velocity": 55, "note_on_time": 46.652, "note_off_time": 47.182}, {"pitch": 71, "velocity": 52, "note_on_time": 47.138, "note_off_time": 47.498}, {"pitch": 72, "velocity": 52, "note_on_time": 47.491, "note_off_time": 48.204}, {"pitch": 74, "velocity": 53, "note_on_time": 48.119, "note_off_time": 48.751}, {"pitch": 76, "velocity": 40, "note_on_time": 48.662, "note_off_time": 49.909}, {"pitch": 77, "velocity": 58, "note_on_time": 49.717, "note_off_time": 50.402}, {"pitch": 76, "velocity": 27, "note_on_time": 50.295, "note_off_time": 50.918}, {"pitch": 74, "velocity": 49, "note_on_time": 50.844, "note_off_time": 51.781}, {"pitch": 72, "velocity": 60, "note_on_time": 51.701, "note_off_time": 52.042}, {"pitch": 74, "velocity": 51, "note_on_time": 52.026, "note_off_time": 52.363}, {"pitch": 72, "velocity": 58, "note_on_time": 52.329, "note_off_time": 52.729}, {"pitch": 76, "velocity": 49, "note_on_time": 52.925, "note_off_time": 53.851}, {"pitch": 77, "velocity": 1, "note_on_time": 53.826, "note_off_time": 54.475}, {"pitch": 76, "velocity": 48, "note_on_time": 54.762, "note_off_time": 55.403}, {"pitch": 76, "velocity": 39, "note_on_time": 55.849, "note_off_time": 56.421}, {"pitch": 77, "velocity": 66, "note_on_time": 55.347, "note_off_time": 56.598}, {"pitch": 79, "velocity": 45, "note_on_time": 56.522, "note_off_time": 57.232}, {"pitch": 77, "velocity": 50, "note_on_time": 57.124, "note_off_time": 57.658}, {"pitch": 77, "velocity": 11, "note_on_time": 57.785, "note_off_time": 58.252}, {"pitch": 76, "velocity": 48, "note_on_time": 58.137, "note_off_time": 58.565}, {"pitch": 77, "velocity": 57, "note_on_time": 58.529, "note_off_time": 58.961}, {"pitch": 76, "velocity": 46, "note_on_time": 58.865, "note_off_time": 59.497}, {"pitch": 74, "velocity": 24, "note_on_time": 59.551, "note_off_time": 60.097}, {"pitch": 72, "velocity": 45, "note_on_time": 60.0, "note_off_time": 60.493}, {"pitch": 74, "velocity": 42, "note_on_time": 60.484, "note_off_time": 60.92}, {"pitch": 72, "velocity": 52, "note_on_time": 60.846, "note_off_time": 61.818}, {"pitch": 74, "velocity": 35, "note_on_time": 61.494, "note_off_time": 61.976}, {"pitch": 76, "velocity": 27, "note_on_time": 61.896, "note_off_time": 63.081}, {"pitch": 74, "velocity": 17, "note_on_time": 62.472, "note_off_time": 63.858}, {"pitch": 77, "velocity": 36, "note_on_time": 63.745, "note_off_time": 64.3}, {"pitch": 76, "velocity": 47, "note_on_time": 64.214, "note_off_time": 64.708}, {"pitch": 74, "velocity": 48, "note_on_time": 64.64, "note_off_time": 65.422}, {"pitch": 79, "velocity": 50, "note_on_time": 65.389, "note_off_time": 66.113}, {"pitch": 77, "velocity": 58, "note_on_time": 66.017, "note_off_time": 66.365}, {"pitch": 76, "velocity": 52, "note_on_time": 66.627, "note_off_time": 66.942}, {"pitch": 74, "velocity": 40, "note_on_time": 67.209, "note_off_time": 67.411}, {"pitch": 72, "velocity": 41, "note_on_time": 67.719, "note_off_time": 68.018}, {"pitch": 74, "velocity": 32, "note_on_time": 68.143, "note_off_time": 68.748}, {"pitch": 76, "velocity": 31, "note_on_time": 68.656, "note_off_time": 69.176}, {"pitch": 74, "velocity": 30, "note_on_time": 69.18, "note_off_time": 69.786}, {"pitch": 72, "velocity": 36, "note_on_time": 69.681, "note_off_time": 70.04}, {"pitch": 74, "velocity": 39, "note_on_time": 70.046, "note_off_time": 70.619}, {"pitch": 76, "velocity": 38, "note_on_time": 70.558, "note_off_time": 71.451}, {"pitch": 77, "velocity": 42, "note_on_time": 71.432, "note_off_time": 72.447}, {"pitch": 79, "velocity": 50, "note_on_time": 72.388, "note_off_time": 72.938}, {"pitch": 77, "velocity": 1, "note_on_time": 72.962, "note_off_time": 73.501}, {"pitch": 79, "velocity": 49, "note_on_time": 73.485, "note_off_time": 73.857}, {"pitch": 77, "velocity": 46, "note_on_time": 73.836, "note_off_time": 74.315}, {"pitch": 76, "velocity": 40, "note_on_time": 74.339, "note_off_time": 74.803}, {"pitch": 74, "velocity": 10, "note_on_time": 74.837, "note_off_time": 75.129}, {"pitch": 76, "velocity": 37, "note_on_time": 75.112, "note_off_time": 75.573}, {"pitch": 74, "velocity": 27, "note_on_time": 75.458, "note_off_time": 75.702}, {"pitch": 72, "velocity": 6, "note_on_time": 75.788, "note_off_time": 76.116}, {"pitch": 74, "velocity": 43, "note_on_time": 76.145, "note_off_time": 76.55}, {"pitch": 76, "velocity": 33, "note_on_time": 76.545, "note_off_time": 77.467}, {"pitch": 77, "velocity": 32, "note_on_time": 77.336, "note_off_time": 78.195}, {"pitch": 79, "velocity": 44, "note_on_time": 78.159, "note_off_time": 78.653}, {"pitch": 77, "velocity": 36, "note_on_time": 78.687, "note_off_time": 79.223}, {"pitch": 76, "velocity": 37, "note_on_time": 79.249, "note_off_time": 80.064}, {"pitch": 74, "velocity": 26, "note_on_time": 80.065, "note_off_time": 80.343}, {"pitch": 72, "velocity": 28, "note_on_time": 80.759, "note_off_time": 81.166}, {"pitch": 74, "velocity": 27, "note_on_time": 81.368, "note_off_time": 81.702}, {"pitch": 76, "velocity": 30, "note_on_time": 81.889, "note_off_time": 82.606}, {"pitch": 74, "velocity": 44, "note_on_time": 82.554, "note_off_time": 83.046}, {"pitch": 77, "velocity": 23, "note_on_time": 83.148, "note_off_time": 83.871}, {"pitch": 76, "velocity": 29, "note_on_time": 83.736, "note_off_time": 84.427}, {"pitch": 74, "velocity": 1, "note_on_time": 84.726, "note_off_time": 85.262}, {"pitch": 76, "velocity": 32, "note_on_time": 85.231, "note_off_time": 85.764}, {"pitch": 74, "velocity": 18, "note_on_time": 85.831, "note_off_time": 86.392}, {"pitch": 72, "velocity": 42, "note_on_time": 86.401, "note_off_time": 86.837}, {"pitch": 74, "velocity": 8, "note_on_time": 86.858, "note_off_time": 87.574}, {"pitch": 76, "velocity": 30, "note_on_time": 87.476, "note_off_time": 88.409}, {"pitch": 77, "velocity": 49, "note_on_time": 88.388, "note_off_time": 89.591}, {"pitch": 76, "velocity": 27, "note_on_time": 89.503, "note_off_time": 90.276}, {"pitch": 74, "velocity": 27, "note_on_time": 90.268, "note_off_time": 90.657}, {"pitch": 76, "velocity": 44, "note_on_time": 90.724, "note_off_time": 91.158}, {"pitch": 74, "velocity": 26, "note_on_time": 91.182, "note_off_time": 91.764}, {"pitch": 72, "velocity": 46, "note_on_time": 91.641, "note_off_time": 92.103}, {"pitch": 74, "velocity": 25, "note_on_time": 92.003, "note_off_time": 92.582}, {"pitch": 72, "velocity": 52, "note_on_time": 92.539, "note_off_time": 92.984}, {"pitch": 74, "velocity": 30, "note_on_time": 92.922, "note_off_time": 93.621}, {"pitch": 76, "velocity": 39, "note_on_time": 93.558, "note_off_time": 94.218}, {"pitch": 77, "velocity": 44, "note_on_time": 94.241, "note_off_time": 94.688}, {"pitch": 76, "velocity": 36, "note_on_time": 94.701, "note_off_time": 95.172}, {"pitch": 74, "velocity": 31, "note_on_time": 95.177, "note_off_time": 95.522}, {"pitch": 76, "velocity": 48, "note_on_time": 95.505, "note_off_time": 96.088}, {"pitch": 77, "velocity": 48, "note_on_time": 96.004, "note_off_time": 96.725}, {"pitch": 76, "velocity": 38, "note_on_time": 96.63, "note_off_time": 97.25}, {"pitch": 77, "velocity": 1, "note_on_time": 97.016, "note_off_time": 97.36}, {"pitch": 74, "velocity": 21, "note_on_time": 97.28, "note_off_time": 97.869}, {"pitch": 72, "velocity": 44, "note_on_time": 97.747, "note_off_time": 98.312}, {"pitch": 74, "velocity": 26, "note_on_time": 98.285, "note_off_time": 98.921}, {"pitch": 72, "velocity": 51, "note_on_time": 98.862, "note_off_time": 99.202}, {"pitch": 76, "velocity": 22, "note_on_time": 99.44, "note_off_time": 100.282}, {"pitch": 77, "velocity": 49, "note_on_time": 100.232, "note_off_time": 100.68}, {"pitch": 76, "velocity": 36, "note_on_time": 100.722, "note_off_time": 101.193}, {"pitch": 77, "velocity": 39, "note_on_time": 101.183, "note_off_time": 102.361}, {"pitch": 74, "velocity": 1, "note_on_time": 102.015, "note_off_time": 102.967}, {"pitch": 76, "velocity": 42, "note_on_time": 102.959, "note_off_time": 103.658}, {"pitch": 74, "velocity": 24, "note_on_time": 103.953, "note_off_time": 105.171}, {"pitch": 72, "velocity": 21, "note_on_time": 105.186, "note_off_time": 105.613}, {"pitch": 74, "velocity": 32, "note_on_time": 105.698, "note_off_time": 106.236}, {"pitch": 76, "velocity": 35, "note_on_time": 106.248, "note_off_time": 106.897}, {"pitch": 77, "velocity": 37, "note_on_time": 106.71, "note_off_time": 107.128}, {"pitch": 77, "velocity": 47, "note_on_time": 107.346, "note_off_time": 107.642}, {"pitch": 76, "velocity": 16, "note_on_time": 108.162, "note_off_time": 109.115}, {"pitch": 74, "velocity": 1, "note_on_time": 109.303, "note_off_time": 110.847}, {"pitch": 71, "velocity": 29, "note_on_time": 110.71, "note_off_time": 111.388}, {"pitch": 72, "velocity": 45, "note_on_time": 111.305, "note_off_time": 111.947}, {"pitch": 71, "velocity": 44, "note_on_time": 111.848, "note_off_time": 112.312}, {"pitch": 72, "velocity": 53, "note_on_time": 112.234, "note_off_time": 112.532}, {"pitch": 74, "velocity": 1, "note_on_time": 112.91, "note_off_time": 113.083}, {"pitch": 77, "velocity": 4, "note_on_time": 113.79, "note_off_time": 114.144}, {"pitch": 72, "velocity": 14, "note_on_time": 113.092, "note_off_time": 114.493}, {"pitch": 77, "velocity": 45, "note_on_time": 114.529, "note_off_time": 114.797}, {"pitch": 79, "velocity": 13, "note_on_time": 113.779, "note_off_time": 114.906}, {"pitch": 76, "velocity": 23, "note_on_time": 114.976, "note_off_time": 115.995}, {"pitch": 77, "velocity": 53, "note_on_time": 115.057, "note_off_time": 116.134}, {"pitch": 74, "velocity": 43, "note_on_time": 116.036, "note_off_time": 116.585}, {"pitch": 76, "velocity": 38, "note_on_time": 116.532, "note_off_time": 117.335}, {"pitch": 74, "velocity": 36, "note_on_time": 117.207, "note_off_time": 117.423}, {"pitch": 72, "velocity": 30, "note_on_time": 117.352, "note_off_time": 117.808}, {"pitch": 74, "velocity": 38, "note_on_time": 117.853, "note_off_time": 118.358}, {"pitch": 72, "velocity": 51, "note_on_time": 118.361, "note_off_time": 118.873}, {"pitch": 76, "velocity": 54, "note_on_time": 118.841, "note_off_time": 119.531}, {"pitch": 77, "velocity": 41, "note_on_time": 119.393, "note_off_time": 120.455}, {"pitch": 76, "velocity": 38, "note_on_time": 120.171, "note_off_time": 120.771}, {"pitch": 76, "velocity": 50, "note_on_time": 122.714, "note_off_time": 123.43}, {"pitch": 77, "velocity": 1, "note_on_time": 120.75, "note_off_time": 123.495}, {"pitch": 74, "velocity": 51, "note_on_time": 123.387, "note_off_time": 124.453}, {"pitch": 72, "velocity": 49, "note_on_time": 124.358, "note_off_time": 124.814}, {"pitch": 74, "velocity": 45, "note_on_time": 124.763, "note_off_time": 125.607}, {"pitch": 74, "velocity": 1, "note_on_time": 125.881, "note_off_time": 126.114}, {"pitch": 76, "velocity": 48, "note_on_time": 125.34, "note_off_time": 126.23}, {"pitch": 77, "velocity": 56, "note_on_time": 126.087, "note_off_time": 126.777}, {"pitch": 79, "velocity": 46, "note_on_time": 126.768, "note_off_time": 127.792}, {"pitch": 77, "velocity": 39, "note_on_time": 127.664, "note_off_time": 128.145}, {"pitch": 79, "velocity": 49, "note_on_time": 128.125, "note_off_time": 128.704}, {"pitch": 77, "velocity": 38, "note_on_time": 128.571, "note_off_time": 129.242}, {"pitch": 76, "velocity": 23, "note_on_time": 129.2, "note_off_time": 130.114}, {"pitch": 74, "velocity": 42, "note_on_time": 130.052, "note_off_time": 130.606}, {"pitch": 72, "velocity": 49, "note_on_time": 130.556, "note_off_time": 131.06}, {"pitch": 74, "velocity": 31, "note_on_time": 131.052, "note_off_time": 131.57}, {"pitch": 76, "velocity": 36, "note_on_time": 131.461, "note_off_time": 132.721}, {"pitch": 77, "velocity": 34, "note_on_time": 132.038, "note_off_time": 132.745}, {"pitch": 79, "velocity": 59, "note_on_time": 132.665, "note_off_time": 133.482}, {"pitch": 77, "velocity": 45, "note_on_time": 133.179, "note_off_time": 134.087}, {"pitch": 76, "velocity": 31, "note_on_time": 133.711, "note_off_time": 134.5}, {"pitch": 77, "velocity": 64, "note_on_time": 134.452, "note_off_time": 134.943}, {"pitch": 76, "velocity": 52, "note_on_time": 134.829, "note_off_time": 135.268}, {"pitch": 74, "velocity": 33, "note_on_time": 135.324, "note_off_time": 135.848}, {"pitch": 72, "velocity": 44, "note_on_time": 135.799, "note_off_time": 136.389}, {"pitch": 74, "velocity": 30, "note_on_time": 136.253, "note_off_time": 136.978}, {"pitch": 76, "velocity": 37, "note_on_time": 136.77, "note_off_time": 137.22}, {"pitch": 74, "velocity": 3, "note_on_time": 137.186, "note_off_time": 137.406}, {"pitch": 72, "velocity": 5, "note_on_time": 137.205, "note_off_time": 137.766}, {"pitch": 76, "velocity": 41, "note_on_time": 138.179, "note_off_time": 138.482}, {"pitch": 74, "velocity": 56, "note_on_time": 137.71, "note_off_time": 139.066}, {"pitch": 77, "velocity": 42, "note_on_time": 139.15, "note_off_time": 139.738}, {"pitch": 76, "velocity": 46, "note_on_time": 139.56, "note_off_time": 140.114}, {"pitch": 76, "velocity": 1, "note_on_time": 141.358, "note_off_time": 141.566}, {"pitch": 74, "velocity": 30, "note_on_time": 141.413, "note_off_time": 141.842}, {"pitch": 76, "velocity": 59, "note_on_time": 141.815, "note_off_time": 142.369}, {"pitch": 77, "velocity": 48, "note_on_time": 142.268, "note_off_time": 143.244}, {"pitch": 77, "velocity": 55, "note_on_time": 143.583, "note_off_time": 144.012}, {"pitch": 79, "velocity": 50, "note_on_time": 143.147, "note_off_time": 144.048}, {"pitch": 76, "velocity": 55, "note_on_time": 143.973, "note_off_time": 144.487}, {"pitch": 74, "velocity": 36, "note_on_time": 144.509, "note_off_time": 144.924}, {"pitch": 72, "velocity": 54, "note_on_time": 144.917, "note_off_time": 145.502}, {"pitch": 74, "velocity": 42, "note_on_time": 145.452, "note_off_time": 145.882}, {"pitch": 72, "velocity": 61, "note_on_time": 145.795, "note_off_time": 146.188}, {"pitch": 74, "velocity": 39, "note_on_time": 146.124, "note_off_time": 146.53}, {"pitch": 76, "velocity": 46, "note_on_time": 146.427, "note_off_time": 147.097}, {"pitch": 77, "velocity": 53, "note_on_time": 147.104, "note_off_time": 147.788}, {"pitch": 79, "velocity": 49, "note_on_time": 147.777, "note_off_time": 148.414}, {"pitch": 77, "velocity": 49, "note_on_time": 148.269, "note_off_time": 148.819}, {"pitch": 76, "velocity": 30, "note_on_time": 148.832, "note_off_time": 149.269}, {"pitch": 74, "velocity": 44, "note_on_time": 149.263, "note_off_time": 149.985}, {"pitch": 72, "velocity": 32, "note_on_time": 149.951, "note_off_time": 150.821}, {"pitch": 74, "velocity": 30, "note_on_time": 150.754, "note_off_time": 151.721}, {"pitch": 77, "velocity": 43, "note_on_time": 151.752, "note_off_time": 152.335}, {"pitch": 76, "velocity": 48, "note_on_time": 152.202, "note_off_time": 152.799}, {"pitch": 79, "velocity": 34, "note_on_time": 152.774, "note_off_time": 153.65}, {"pitch": 77, "velocity": 1, "note_on_time": 153.582, "note_off_time": 154.036}, {"pitch": 77, "velocity": 1, "note_on_time": 154.209, "note_off_time": 154.695}, {"pitch": 76, "velocity": 43, "note_on_time": 154.62, "note_off_time": 155.149}, {"pitch": 77, "velocity": 59, "note_on_time": 155.101, "note_off_time": 155.596}, {"pitch": 76, "velocity": 36, "note_on_time": 155.447, "note_off_time": 155.908}, {"pitch": 74, "velocity": 17, "note_on_time": 155.935, "note_off_time": 156.569}, {"pitch": 72, "velocity": 48, "note_on_time": 156.445, "note_off_time": 157.086}, {"pitch": 74, "velocity": 12, "note_on_time": 156.906, "note_off_time": 157.683}, {"pitch": 72, "velocity": 53, "note_on_time": 157.606, "note_off_time": 158.227}, {"pitch": 74, "velocity": 34, "note_on_time": 158.12, "note_off_time": 158.798}, {"pitch": 76, "velocity": 33, "note_on_time": 158.641, "note_off_time": 159.329}, {"pitch": 76, "velocity": 1, "note_on_time": 159.613, "note_off_time": 160.668}, {"pitch": 77, "velocity": 30, "note_on_time": 160.671, "note_off_time": 161.329}, {"pitch": 79, "velocity": 35, "note_on_time": 161.188, "note_off_time": 162.289}, {"pitch": 77, "velocity": 27, "note_on_time": 162.288, "note_off_time": 163.013}, {"pitch": 76, "velocity": 23, "note_on_time": 162.966, "note_off_time": 163.966}, {"pitch": 77, "velocity": 46, "note_on_time": 163.927, "note_off_time": 164.452}, {"pitch": 76, "velocity": 38, "note_on_time": 164.377, "note_off_time": 165.084}, {"pitch": 74, "velocity": 14, "note_on_time": 165.119, "note_off_time": 165.985}, {"pitch": 72, "velocity": 46, "note_on_time": 165.784, "note_off_time": 166.767}, {"pitch": 71, "velocity": 34, "note_on_time": 166.693, "note_off_time": 167.263}, {"pitch": 72, "velocity": 29, "note_on_time": 167.165, "note_off_time": 167.553}, {"pitch": 71, "velocity": 15, "note_on_time": 167.543, "note_off_time": 168.094}, {"pitch": 72, "velocity": 40, "note_on_time": 168.143, "note_off_time": 168.428}, {"pitch": 72, "velocity": 53, "note_on_time": 168.617, "note_off_time": 168.996}, {"pitch": 74, "velocity": 31, "note_on_time": 168.975, "note_off_time": 169.477}, {"pitch": 76, "velocity": 45, "note_on_time": 169.354, "note_off_time": 170.041}, {"pitch": 77, "velocity": 63, "note_on_time": 169.905, "note_off_time": 170.309}, {"pitch": 79, "velocity": 45, "note_on_time": 170.557, "note_off_time": 171.055}, {"pitch": 77, "velocity": 47, "note_on_time": 171.013, "note_off_time": 171.579}, {"pitch": 76, "velocity": 46, "note_on_time": 171.504, "note_off_time": 172.183}, {"pitch": 74, "velocity": 34, "note_on_time": 172.168, "note_off_time": 172.745}, {"pitch": 72, "velocity": 51, "note_on_time": 172.661, "note_off_time": 173.126}, {"pitch": 74, "velocity": 23, "note_on_time": 173.139, "note_off_time": 173.55}, {"pitch": 76, "velocity": 46, "note_on_time": 173.508, "note_off_time": 174.079}, {"pitch": 77, "velocity": 55, "note_on_time": 173.999, "note_off_time": 175.128}, {"pitch": 76, "velocity": 40, "note_on_time": 174.698, "note_off_time": 175.193}, {"pitch": 74, "velocity": 25, "note_on_time": 175.189, "note_off_time": 175.553}, {"pitch": 72, "velocity": 21, "note_on_time": 176.002, "note_off_time": 176.956}, {"pitch": 74, "velocity": 35, "note_on_time": 176.849, "note_off_time": 177.258}, {"pitch": 76, "velocity": 28, "note_on_time": 177.317, "note_off_time": 177.783}, {"pitch": 77, "velocity": 41, "note_on_time": 177.765, "note_off_time": 178.179}, {"pitch": 77, "velocity": 43, "note_on_time": 178.605, "note_off_time": 179.871}, {"pitch": 72, "velocity": 23, "note_on_time": 180.028, "note_off_time": 180.45}, {"pitch": 76, "velocity": 50, "note_on_time": 180.55, "note_off_time": 181.062}, {"pitch": 79, "velocity": 49, "note_on_time": 181.051, "note_off_time": 181.952}, {"pitch": 77, "velocity": 53, "note_on_time": 181.664, "note_off_time": 182.192}, {"pitch": 76, "velocity": 52, "note_on_time": 182.075, "note_off_time": 182.672}, {"pitch": 74, "velocity": 26, "note_on_time": 182.69, "note_off_time": 183.588}, {"pitch": 72, "velocity": 39, "note_on_time": 183.497, "note_off_time": 183.972}, {"pitch": 74, "velocity": 26, "note_on_time": 183.971, "note_off_time": 184.964}, {"pitch": 76, "velocity": 39, "note_on_time": 184.437, "note_off_time": 185.043}, {"pitch": 77, "velocity": 48, "note_on_time": 184.932, "note_off_time": 186.05}, {"pitch": 79, "velocity": 61, "note_on_time": 186.0, "note_off_time": 186.577}, {"pitch": 77, "velocity": 44, "note_on_time": 186.46, "note_off_time": 186.869}, {"pitch": 77, "velocity": 31, "note_on_time": 187.225, "note_off_time": 188.009}, {"pitch": 79, "velocity": 44, "note_on_time": 186.843, "note_off_time": 188.16}, {"pitch": 76, "velocity": 57, "note_on_time": 187.908, "note_off_time": 188.939}, {"pitch": 74, "velocity": 40, "note_on_time": 188.833, "note_off_time": 189.423}, {"pitch": 72, "velocity": 39, "note_on_time": 189.401, "note_off_time": 189.826}, {"pitch": 74, "velocity": 51, "note_on_time": 189.878, "note_off_time": 190.445}, {"pitch": 76, "velocity": 51, "note_on_time": 190.411, "note_off_time": 192.095}, {"pitch": 77, "velocity": 50, "note_on_time": 190.908, "note_off_time": 192.15}, {"pitch": 79, "velocity": 12, "note_on_time": 191.933, "note_off_time": 192.345}, {"pitch": 77, "velocity": 53, "note_on_time": 192.693, "note_off_time": 193.293}, {"pitch": 76, "velocity": 51, "note_on_time": 193.2, "note_off_time": 193.673}, {"pitch": 74, "velocity": 40, "note_on_time": 193.619, "note_off_time": 194.112}]</notes><guidance name="Guidance Mode">None</guidance><error name="Error value">99</error></trial></trials></MIDI>