<MIDI midiNo="2023_06_19-17_01_42"><target_notes><notes name="Note List">[{"pitch": 60, "velocity": 40, "note_on_time": 0.01, "note_off_time": 1.017}, {"pitch": 64, "velocity": 40, "note_on_time": 0.01, "note_off_time": 1.018}, {"pitch": 67, "velocity": 40, "note_on_time": 0.01, "note_off_time": 1.019}, {"pitch": 48, "velocity": 40, "note_on_time": 0.01, "note_off_time": 1.019}, {"pitch": 52, "velocity": 40, "note_on_time": 1.019, "note_off_time": 2.034}, {"pitch": 55, "velocity": 40, "note_on_time": 1.019, "note_off_time": 2.034}, {"pitch": 77, "velocity": 40, "note_on_time": 2.033, "note_off_time": 3.046}, {"pitch": 48, "velocity": 40, "note_on_time": 2.034, "note_off_time": 3.046}, {"pitch": 52, "velocity": 40, "note_on_time": 3.047, "note_off_time": 4.052}, {"pitch": 55, "velocity": 40, "note_on_time": 3.047, "note_off_time": 4.052}, {"pitch": 48, "velocity": 40, "note_on_time": 4.052, "note_off_time": 5.062}, {"pitch": 52, "velocity": 40, "note_on_time": 5.062, "note_off_time": 6.069}, {"pitch": 55, "velocity": 40, "note_on_time": 5.062, "note_off_time": 6.069}, {"pitch": 48, "velocity": 40, "note_on_time": 6.069, "note_off_time": 7.081}, {"pitch": 52, "velocity": 40, "note_on_time": 7.081, "note_off_time": 8.088}, {"pitch": 55, "velocity": 40, "note_on_time": 7.081, "note_off_time": 8.088}, {"pitch": 60, "velocity": 40, "note_on_time": 8.088, "note_off_time": 9.092}, {"pitch": 64, "velocity": 40, "note_on_time": 8.088, "note_off_time": 9.093}, {"pitch": 67, "velocity": 40, "note_on_time": 8.088, "note_off_time": 9.094}, {"pitch": 48, "velocity": 40, "note_on_time": 8.088, "note_off_time": 9.094}, {"pitch": 52, "velocity": 40, "note_on_time": 9.094, "note_off_time": 10.105}, {"pitch": 55, "velocity": 40, "note_on_time": 9.094, "note_off_time": 10.106}, {"pitch": 74, "velocity": 40, "note_on_time": 10.105, "note_off_time": 11.115}, {"pitch": 48, "velocity": 40, "note_on_time": 10.106, "note_off_time": 11.116}, {"pitch": 52, "velocity": 40, "note_on_time": 11.116, "note_off_time": 12.124}, {"pitch": 55, "velocity": 40, "note_on_time": 11.116, "note_off_time": 12.124}, {"pitch": 48, "velocity": 40, "note_on_time": 12.124, "note_off_time": 13.136}, {"pitch": 52, "velocity": 40, "note_on_time": 13.136, "note_off_time": 14.145}, {"pitch": 55, "velocity": 40, "note_on_time": 13.136, "note_off_time": 14.145}, {"pitch": 48, "velocity": 40, "note_on_time": 14.145, "note_off_time": 15.159}, {"pitch": 52, "velocity": 40, "note_on_time": 15.159, "note_off_time": 16.165}, {"pitch": 55, "velocity": 40, "note_on_time": 15.159, "note_off_time": 16.165}, {"pitch": 60, "velocity": 40, "note_on_time": 16.163, "note_off_time": 17.176}, {"pitch": 64, "velocity": 40, "note_on_time": 16.164, "note_off_time": 17.177}, {"pitch": 67, "velocity": 40, "note_on_time": 16.164, "note_off_time": 17.178}, {"pitch": 48, "velocity": 40, "note_on_time": 16.165, "note_off_time": 17.178}, {"pitch": 52, "velocity": 40, "note_on_time": 17.178, "note_off_time": 18.189}, {"pitch": 55, "velocity": 40, "note_on_time": 17.178, "note_off_time": 18.189}, {"pitch": 76, "velocity": 40, "note_on_time": 18.189, "note_off_time": 19.197}, {"pitch": 48, "velocity": 40, "note_on_time": 18.189, "note_off_time": 19.197}, {"pitch": 52, "velocity": 40, "note_on_time": 19.197, "note_off_time": 20.207}, {"pitch": 55, "velocity": 40, "note_on_time": 19.197, "note_off_time": 20.207}, {"pitch": 48, "velocity": 40, "note_on_time": 20.207, "note_off_time": 21.215}, {"pitch": 52, "velocity": 40, "note_on_time": 21.215, "note_off_time": 22.23}, {"pitch": 55, "velocity": 40, "note_on_time": 21.215, "note_off_time": 22.23}, {"pitch": 48, "velocity": 40, "note_on_time": 22.23, "note_off_time": 23.235}, {"pitch": 52, "velocity": 40, "note_on_time": 23.235, "note_off_time": 24.245}, {"pitch": 55, "velocity": 40, "note_on_time": 23.235, "note_off_time": 24.245}, {"pitch": 60, "velocity": 40, "note_on_time": 24.243, "note_off_time": 25.253}, {"pitch": 64, "velocity": 40, "note_on_time": 24.244, "note_off_time": 25.254}, {"pitch": 67, "velocity": 40, "note_on_time": 24.244, "note_off_time": 25.255}, {"pitch": 48, "velocity": 40, "note_on_time": 24.245, "note_off_time": 25.255}, {"pitch": 52, "velocity": 40, "note_on_time": 25.255, "note_off_time": 26.265}, {"pitch": 55, "velocity": 40, "note_on_time": 25.255, "note_off_time": 26.266}, {"pitch": 79, "velocity": 40, "note_on_time": 26.265, "note_off_time": 27.273}, {"pitch": 48, "velocity": 40, "note_on_time": 26.266, "note_off_time": 27.274}, {"pitch": 52, "velocity": 40, "note_on_time": 27.274, "note_off_time": 28.277}, {"pitch": 55, "velocity": 40, "note_on_time": 27.274, "note_off_time": 28.277}, {"pitch": 48, "velocity": 40, "note_on_time": 28.277, "note_off_time": 29.292}, {"pitch": 52, "velocity": 40, "note_on_time": 29.292, "note_off_time": 30.301}, {"pitch": 55, "velocity": 40, "note_on_time": 29.292, "note_off_time": 30.301}, {"pitch": 48, "velocity": 40, "note_on_time": 30.301, "note_off_time": 31.313}, {"pitch": 52, "velocity": 40, "note_on_time": 31.313, "note_off_time": 32.325}, {"pitch": 55, "velocity": 40, "note_on_time": 31.313, "note_off_time": 32.325}, {"pitch": 60, "velocity": 40, "note_on_time": 32.323, "note_off_time": 33.334}, {"pitch": 64, "velocity": 40, "note_on_time": 32.324, "note_off_time": 33.335}, {"pitch": 67, "velocity": 40, "note_on_time": 32.324, "note_off_time": 33.335}, {"pitch": 48, "velocity": 40, "note_on_time": 32.325, "note_off_time": 33.336}, {"pitch": 52, "velocity": 40, "note_on_time": 33.336, "note_off_time": 34.341}, {"pitch": 55, "velocity": 40, "note_on_time": 33.336, "note_off_time": 34.342}, {"pitch": 74, "velocity": 40, "note_on_time": 34.341, "note_off_time": 35.352}, {"pitch": 48, "velocity": 40, "note_on_time": 34.342, "note_off_time": 35.353}, {"pitch": 52, "velocity": 40, "note_on_time": 35.353, "note_off_time": 36.362}, {"pitch": 55, "velocity": 40, "note_on_time": 35.353, "note_off_time": 36.362}, {"pitch": 48, "velocity": 40, "note_on_time": 36.362, "note_off_time": 37.377}, {"pitch": 52, "velocity": 40, "note_on_time": 37.377, "note_off_time": 38.393}, {"pitch": 55, "velocity": 40, "note_on_time": 37.377, "note_off_time": 38.393}, {"pitch": 48, "velocity": 40, "note_on_time": 38.393, "note_off_time": 39.406}, {"pitch": 52, "velocity": 40, "note_on_time": 39.406, "note_off_time": 40.418}, {"pitch": 55, "velocity": 40, "note_on_time": 39.406, "note_off_time": 40.418}, {"pitch": 60, "velocity": 40, "note_on_time": 40.417, "note_off_time": 41.425}, {"pitch": 64, "velocity": 40, "note_on_time": 40.418, "note_off_time": 41.426}, {"pitch": 67, "velocity": 40, "note_on_time": 40.418, "note_off_time": 41.427}, {"pitch": 79, "velocity": 40, "note_on_time": 42.433, "note_off_time": 43.445}, {"pitch": 60, "velocity": 40, "note_on_time": 48.461, "note_off_time": 49.471}, {"pitch": 64, "velocity": 40, "note_on_time": 48.462, "note_off_time": 49.473}, {"pitch": 67, "velocity": 40, "note_on_time": 48.463, "note_off_time": 49.473}, {"pitch": 72, "velocity": 40, "note_on_time": 50.482, "note_off_time": 51.487}, {"pitch": 60, "velocity": 40, "note_on_time": 56.491, "note_off_time": 57.503}, {"pitch": 64, "velocity": 40, "note_on_time": 56.492, "note_off_time": 57.504}, {"pitch": 67, "velocity": 40, "note_on_time": 56.492, "note_off_time": 57.505}, {"pitch": 77, "velocity": 40, "note_on_time": 58.517, "note_off_time": 59.528}, {"pitch": 60, "velocity": 40, "note_on_time": 64.537, "note_off_time": 65.553}, {"pitch": 64, "velocity": 40, "note_on_time": 64.538, "note_off_time": 65.554}, {"pitch": 67, "velocity": 40, "note_on_time": 64.539, "note_off_time": 65.555}, {"pitch": 74, "velocity": 40, "note_on_time": 66.568, "note_off_time": 67.575}, {"pitch": 60, "velocity": 40, "note_on_time": 72.584, "note_off_time": 73.592}, {"pitch": 64, "velocity": 40, "note_on_time": 72.585, "note_off_time": 73.592}, {"pitch": 67, "velocity": 40, "note_on_time": 72.585, "note_off_time": 73.594}, {"pitch": 76, "velocity": 40, "note_on_time": 74.601, "note_off_time": 75.613}, {"pitch": 60, "velocity": 40, "note_on_time": 80.627, "note_off_time": 81.64}, {"pitch": 64, "velocity": 40, "note_on_time": 80.628, "note_off_time": 81.641}, {"pitch": 67, "velocity": 40, "note_on_time": 80.628, "note_off_time": 81.642}, {"pitch": 77, "velocity": 40, "note_on_time": 82.652, "note_off_time": 83.656}, {"pitch": 60, "velocity": 40, "note_on_time": 88.665, "note_off_time": 89.674}, {"pitch": 64, "velocity": 40, "note_on_time": 88.665, "note_off_time": 89.675}, {"pitch": 67, "velocity": 40, "note_on_time": 88.666, "note_off_time": 89.676}, {"pitch": 76, "velocity": 40, "note_on_time": 90.685, "note_off_time": 91.7}, {"pitch": 60, "velocity": 40, "note_on_time": 96.71, "note_off_time": 97.714}, {"pitch": 64, "velocity": 40, "note_on_time": 96.711, "note_off_time": 97.715}, {"pitch": 67, "velocity": 40, "note_on_time": 96.712, "note_off_time": 97.715}, {"pitch": 79, "velocity": 40, "note_on_time": 98.719, "note_off_time": 99.726}, {"pitch": 60, "velocity": 40, "note_on_time": 104.742, "note_off_time": 105.757}, {"pitch": 64, "velocity": 40, "note_on_time": 104.743, "note_off_time": 105.758}, {"pitch": 67, "velocity": 40, "note_on_time": 104.743, "note_off_time": 105.759}, {"pitch": 72, "velocity": 40, "note_on_time": 106.769, "note_off_time": 107.78}, {"pitch": 60, "velocity": 40, "note_on_time": 112.794, "note_off_time": 113.808}, {"pitch": 64, "velocity": 40, "note_on_time": 112.795, "note_off_time": 113.809}, {"pitch": 67, "velocity": 40, "note_on_time": 112.795, "note_off_time": 113.809}, {"pitch": 79, "velocity": 40, "note_on_time": 114.814, "note_off_time": 115.822}, {"pitch": 60, "velocity": 40, "note_on_time": 120.829, "note_off_time": 121.846}, {"pitch": 64, "velocity": 40, "note_on_time": 120.83, "note_off_time": 121.847}, {"pitch": 67, "velocity": 40, "note_on_time": 120.83, "note_off_time": 121.848}, {"pitch": 76, "velocity": 40, "note_on_time": 122.857, "note_off_time": 123.869}, {"pitch": 60, "velocity": 40, "note_on_time": 128.87, "note_off_time": 129.885}, {"pitch": 64, "velocity": 40, "note_on_time": 128.871, "note_off_time": 129.885}, {"pitch": 67, "velocity": 40, "note_on_time": 128.871, "note_off_time": 129.885}, {"pitch": 72, "velocity": 40, "note_on_time": 130.886, "note_off_time": 131.901}, {"pitch": 60, "velocity": 40, "note_on_time": 136.906, "note_off_time": 137.923}, {"pitch": 64, "velocity": 40, "note_on_time": 136.907, "note_off_time": 137.923}, {"pitch": 67, "velocity": 40, "note_on_time": 136.907, "note_off_time": 137.924}, {"pitch": 77, "velocity": 40, "note_on_time": 138.932, "note_off_time": 139.944}, {"pitch": 60, "velocity": 40, "note_on_time": 144.955, "note_off_time": 145.966}, {"pitch": 64, "velocity": 40, "note_on_time": 144.957, "note_off_time": 145.967}, {"pitch": 67, "velocity": 40, "note_on_time": 144.957, "note_off_time": 145.968}, {"pitch": 74, "velocity": 40, "note_on_time": 146.98, "note_off_time": 147.988}, {"pitch": 60, "velocity": 40, "note_on_time": 153.0, "note_off_time": 154.013}, {"pitch": 64, "velocity": 40, "note_on_time": 153.002, "note_off_time": 154.013}, {"pitch": 67, "velocity": 40, "note_on_time": 153.002, "note_off_time": 154.014}, {"pitch": 72, "velocity": 40, "note_on_time": 155.03, "note_off_time": 156.033}, {"pitch": 60, "velocity": 40, "note_on_time": 161.041, "note_off_time": 162.059}, {"pitch": 64, "velocity": 40, "note_on_time": 161.042, "note_off_time": 162.06}, {"pitch": 67, "velocity": 40, "note_on_time": 161.042, "note_off_time": 162.061}, {"pitch": 77, "velocity": 40, "note_on_time": 163.062, "note_off_time": 164.071}]</notes><options name="Option List">((4, 4), [0.5, 0.25], 3, 8, &lt;NoteRangePerHand.TWO_NOTES: 3&gt;, &lt;NoteRangePerHand.ONE_NOTE: 2&gt;, False, True, True, 100)</options></target_notes><trials><trial trial_no="1" timestamp="2023_06_19-16_58_58"><notes name="Played Notes">[{"pitch": 77, "velocity": 54, "note_on_time": 7.051, "note_off_time": 8.276}, {"pitch": 76, "velocity": 59, "note_on_time": 11.471, "note_off_time": 12.142}, {"pitch": 74, "velocity": 46, "note_on_time": 14.411, "note_off_time": 16.532}, {"pitch": 76, "velocity": 45, "note_on_time": 21.558, "note_off_time": 23.183}, {"pitch": 79, "velocity": 49, "note_on_time": 29.9, "note_off_time": 31.39}, {"pitch": 76, "velocity": 48, "note_on_time": 38.077, "note_off_time": 38.569}, {"pitch": 74, "velocity": 64, "note_on_time": 39.01, "note_off_time": 42.964}, {"pitch": 79, "velocity": 54, "note_on_time": 44.021, "note_off_time": 45.759}, {"pitch": 72, "velocity": 55, "note_on_time": 51.777, "note_off_time": 53.298}, {"pitch": 74, "velocity": 59, "note_on_time": 61.167, "note_off_time": 61.527}, {"pitch": 77, "velocity": 66, "note_on_time": 62.326, "note_off_time": 64.324}, {"pitch": 74, "velocity": 52, "note_on_time": 68.637, "note_off_time": 70.016}, {"pitch": 76, "velocity": 60, "note_on_time": 76.007, "note_off_time": 77.287}, {"pitch": 77, "velocity": 66, "note_on_time": 83.905, "note_off_time": 85.092}, {"pitch": 76, "velocity": 51, "note_on_time": 91.971, "note_off_time": 93.206}, {"pitch": 79, "velocity": 53, "note_on_time": 99.991, "note_off_time": 100.997}, {"pitch": 72, "velocity": 67, "note_on_time": 108.048, "note_off_time": 109.323}, {"pitch": 79, "velocity": 58, "note_on_time": 116.038, "note_off_time": 117.268}, {"pitch": 74, "velocity": 52, "note_on_time": 124.071, "note_off_time": 124.61}, {"pitch": 76, "velocity": 60, "note_on_time": 124.799, "note_off_time": 126.083}, {"pitch": 72, "velocity": 35, "note_on_time": 132.174, "note_off_time": 133.174}, {"pitch": 76, "velocity": 38, "note_on_time": 140.97, "note_off_time": 141.265}, {"pitch": 77, "velocity": 72, "note_on_time": 141.481, "note_off_time": 142.533}, {"pitch": 76, "velocity": 51, "note_on_time": 149.518, "note_off_time": 149.806}, {"pitch": 74, "velocity": 68, "note_on_time": 150.06, "note_off_time": 151.122}, {"pitch": 72, "velocity": 53, "note_on_time": 156.296, "note_off_time": 157.178}]</notes><guidance name="Guidance Mode">None</guidance><error name="Error value">99</error></trial><trial trial_no="2" timestamp="2023_06_19-17_03_20"><notes name="Played Notes">[{"pitch": 72, "velocity": 45, "note_on_time": 2.486, "note_off_time": 4.045}, {"pitch": 76, "velocity": 54, "note_on_time": 2.484, "note_off_time": 4.147}, {"pitch": 72, "velocity": 51, "note_on_time": 6.725, "note_off_time": 7.461}, {"pitch": 74, "velocity": 56, "note_on_time": 7.033, "note_off_time": 7.702}, {"pitch": 76, "velocity": 62, "note_on_time": 7.344, "note_off_time": 8.564}, {"pitch": 77, "velocity": 50, "note_on_time": 8.262, "note_off_time": 8.627}, {"pitch": 79, "velocity": 51, "note_on_time": 8.551, "note_off_time": 9.557}, {"pitch": 77, "velocity": 57, "note_on_time": 9.434, "note_off_time": 10.219}, {"pitch": 76, "velocity": 65, "note_on_time": 9.731, "note_off_time": 10.437}, {"pitch": 74, "velocity": 61, "note_on_time": 10.352, "note_off_time": 11.568}, {"pitch": 72, "velocity": 26, "note_on_time": 11.573, "note_off_time": 12.139}, {"pitch": 74, "velocity": 48, "note_on_time": 12.114, "note_off_time": 12.901}, {"pitch": 76, "velocity": 57, "note_on_time": 12.776, "note_off_time": 14.588}, {"pitch": 77, "velocity": 57, "note_on_time": 14.629, "note_off_time": 15.633}, {"pitch": 76, "velocity": 58, "note_on_time": 15.493, "note_off_time": 15.837}, {"pitch": 74, "velocity": 66, "note_on_time": 15.809, "note_off_time": 16.68}, {"pitch": 72, "velocity": 42, "note_on_time": 16.696, "note_off_time": 17.128}, {"pitch": 74, "velocity": 62, "note_on_time": 17.001, "note_off_time": 17.368}, {"pitch": 76, "velocity": 50, "note_on_time": 17.299, "note_off_time": 17.689}, {"pitch": 74, "velocity": 64, "note_on_time": 17.601, "note_off_time": 17.942}, {"pitch": 72, "velocity": 51, "note_on_time": 17.917, "note_off_time": 18.088}, {"pitch": 72, "velocity": 45, "note_on_time": 18.216, "note_off_time": 19.396}, {"pitch": 76, "velocity": 70, "note_on_time": 19.485, "note_off_time": 20.661}, {"pitch": 77, "velocity": 74, "note_on_time": 20.369, "note_off_time": 20.696}, {"pitch": 79, "velocity": 53, "note_on_time": 20.695, "note_off_time": 21.612}, {"pitch": 77, "velocity": 66, "note_on_time": 21.598, "note_off_time": 21.903}, {"pitch": 79, "velocity": 60, "note_on_time": 21.885, "note_off_time": 22.562}, {"pitch": 77, "velocity": 68, "note_on_time": 22.47, "note_off_time": 23.078}, {"pitch": 76, "velocity": 59, "note_on_time": 23.125, "note_off_time": 24.394}, {"pitch": 74, "velocity": 63, "note_on_time": 24.364, "note_off_time": 25.209}, {"pitch": 72, "velocity": 51, "note_on_time": 25.226, "note_off_time": 25.505}, {"pitch": 74, "velocity": 64, "note_on_time": 25.518, "note_off_time": 25.847}, {"pitch": 76, "velocity": 60, "note_on_time": 25.794, "note_off_time": 26.142}, {"pitch": 74, "velocity": 47, "note_on_time": 26.104, "note_off_time": 26.423}, {"pitch": 72, "velocity": 20, "note_on_time": 26.441, "note_off_time": 26.616}, {"pitch": 72, "velocity": 65, "note_on_time": 26.732, "note_off_time": 29.125}, {"pitch": 74, "velocity": 76, "note_on_time": 29.174, "note_off_time": 30.141}, {"pitch": 76, "velocity": 60, "note_on_time": 30.122, "note_off_time": 30.446}, {"pitch": 77, "velocity": 74, "note_on_time": 30.392, "note_off_time": 31.212}, {"pitch": 74, "velocity": 52, "note_on_time": 31.298, "note_off_time": 31.672}, {"pitch": 76, "velocity": 65, "note_on_time": 31.596, "note_off_time": 32.237}, {"pitch": 77, "velocity": 55, "note_on_time": 32.217, "note_off_time": 32.79}, {"pitch": 79, "velocity": 64, "note_on_time": 32.806, "note_off_time": 33.819}, {"pitch": 79, "velocity": 68, "note_on_time": 34.028, "note_off_time": 35.278}, {"pitch": 77, "velocity": 65, "note_on_time": 34.925, "note_off_time": 35.394}, {"pitch": 76, "velocity": 67, "note_on_time": 35.242, "note_off_time": 35.67}, {"pitch": 74, "velocity": 58, "note_on_time": 35.557, "note_off_time": 35.852}, {"pitch": 72, "velocity": 55, "note_on_time": 35.865, "note_off_time": 36.043}, {"pitch": 74, "velocity": 56, "note_on_time": 36.171, "note_off_time": 36.463}, {"pitch": 72, "velocity": 60, "note_on_time": 36.447, "note_off_time": 38.329}, {"pitch": 74, "velocity": 61, "note_on_time": 38.319, "note_off_time": 38.95}, {"pitch": 76, "velocity": 75, "note_on_time": 38.896, "note_off_time": 40.069}, {"pitch": 77, "velocity": 70, "note_on_time": 39.778, "note_off_time": 40.105}, {"pitch": 79, "velocity": 64, "note_on_time": 40.086, "note_off_time": 40.986}, {"pitch": 77, "velocity": 61, "note_on_time": 40.979, "note_off_time": 41.261}, {"pitch": 79, "velocity": 70, "note_on_time": 41.254, "note_off_time": 41.896}, {"pitch": 76, "velocity": 60, "note_on_time": 41.91, "note_off_time": 42.528}, {"pitch": 79, "velocity": 58, "note_on_time": 42.532, "note_off_time": 43.488}, {"pitch": 77, "velocity": 66, "note_on_time": 43.403, "note_off_time": 43.776}, {"pitch": 76, "velocity": 69, "note_on_time": 43.729, "note_off_time": 44.621}, {"pitch": 74, "velocity": 60, "note_on_time": 44.62, "note_off_time": 44.94}, {"pitch": 72, "velocity": 69, "note_on_time": 44.927, "note_off_time": 45.251}, {"pitch": 74, "velocity": 54, "note_on_time": 45.199, "note_off_time": 45.505}, {"pitch": 76, "velocity": 60, "note_on_time": 45.497, "note_off_time": 45.848}, {"pitch": 74, "velocity": 71, "note_on_time": 45.811, "note_off_time": 46.113}, {"pitch": 72, "velocity": 74, "note_on_time": 46.118, "note_off_time": 48.55}, {"pitch": 74, "velocity": 68, "note_on_time": 48.567, "note_off_time": 49.869}, {"pitch": 76, "velocity": 68, "note_on_time": 49.787, "note_off_time": 51.079}, {"pitch": 77, "velocity": 70, "note_on_time": 51.01, "note_off_time": 52.865}, {"pitch": 76, "velocity": 61, "note_on_time": 52.896, "note_off_time": 53.234}, {"pitch": 77, "velocity": 74, "note_on_time": 53.171, "note_off_time": 53.498}, {"pitch": 79, "velocity": 65, "note_on_time": 53.505, "note_off_time": 54.465}, {"pitch": 77, "velocity": 72, "note_on_time": 54.362, "note_off_time": 54.748}, {"pitch": 76, "velocity": 62, "note_on_time": 54.69, "note_off_time": 55.234}, {"pitch": 74, "velocity": 58, "note_on_time": 55.25, "note_off_time": 55.538}, {"pitch": 76, "velocity": 58, "note_on_time": 55.544, "note_off_time": 55.839}, {"pitch": 74, "velocity": 61, "note_on_time": 55.856, "note_off_time": 56.472}, {"pitch": 72, "velocity": 50, "note_on_time": 56.464, "note_off_time": 56.848}, {"pitch": 72, "velocity": 67, "note_on_time": 57.101, "note_off_time": 58.267}, {"pitch": 74, "velocity": 65, "note_on_time": 58.322, "note_off_time": 59.282}, {"pitch": 76, "velocity": 70, "note_on_time": 59.215, "note_off_time": 59.569}, {"pitch": 77, "velocity": 66, "note_on_time": 59.521, "note_off_time": 60.407}, {"pitch": 76, "velocity": 58, "note_on_time": 60.429, "note_off_time": 60.726}, {"pitch": 77, "velocity": 69, "note_on_time": 60.707, "note_off_time": 61.326}, {"pitch": 79, "velocity": 64, "note_on_time": 61.329, "note_off_time": 61.762}, {"pitch": 79, "velocity": 54, "note_on_time": 61.949, "note_off_time": 63.287}, {"pitch": 77, "velocity": 68, "note_on_time": 63.222, "note_off_time": 64.171}, {"pitch": 76, "velocity": 64, "note_on_time": 64.094, "note_off_time": 64.416}, {"pitch": 74, "velocity": 57, "note_on_time": 64.418, "note_off_time": 64.616}, {"pitch": 76, "velocity": 65, "note_on_time": 64.677, "note_off_time": 64.99}, {"pitch": 74, "velocity": 62, "note_on_time": 65.003, "note_off_time": 65.352}, {"pitch": 76, "velocity": 60, "note_on_time": 65.298, "note_off_time": 65.478}, {"pitch": 74, "velocity": 7, "note_on_time": 65.494, "note_off_time": 65.6}, {"pitch": 72, "velocity": 63, "note_on_time": 65.635, "note_off_time": 67.235}, {"pitch": 72, "velocity": 52, "note_on_time": 67.44, "note_off_time": 67.749}, {"pitch": 74, "velocity": 66, "note_on_time": 67.758, "note_off_time": 68.095}, {"pitch": 76, "velocity": 72, "note_on_time": 68.068, "note_off_time": 68.915}, {"pitch": 74, "velocity": 55, "note_on_time": 68.952, "note_off_time": 69.288}, {"pitch": 76, "velocity": 66, "note_on_time": 69.25, "note_off_time": 70.215}, {"pitch": 74, "velocity": 54, "note_on_time": 70.216, "note_off_time": 70.49}, {"pitch": 76, "velocity": 57, "note_on_time": 70.493, "note_off_time": 71.099}, {"pitch": 72, "velocity": 58, "note_on_time": 71.105, "note_off_time": 71.69}, {"pitch": 76, "velocity": 64, "note_on_time": 71.693, "note_off_time": 72.909}, {"pitch": 77, "velocity": 57, "note_on_time": 72.93, "note_off_time": 73.811}, {"pitch": 79, "velocity": 20, "note_on_time": 73.826, "note_off_time": 73.932}, {"pitch": 77, "velocity": 68, "note_on_time": 74.104, "note_off_time": 74.407}, {"pitch": 76, "velocity": 66, "note_on_time": 74.415, "note_off_time": 74.734}, {"pitch": 74, "velocity": 46, "note_on_time": 74.715, "note_off_time": 75.034}, {"pitch": 72, "velocity": 65, "note_on_time": 75.021, "note_off_time": 75.278}, {"pitch": 76, "velocity": 42, "note_on_time": 75.359, "note_off_time": 75.602}, {"pitch": 74, "velocity": 44, "note_on_time": 75.359, "note_off_time": 76.885}, {"pitch": 72, "velocity": 66, "note_on_time": 77.169, "note_off_time": 77.694}, {"pitch": 76, "velocity": 67, "note_on_time": 77.459, "note_off_time": 78.059}, {"pitch": 77, "velocity": 75, "note_on_time": 77.821, "note_off_time": 78.644}, {"pitch": 79, "velocity": 58, "note_on_time": 78.658, "note_off_time": 78.848}, {"pitch": 79, "velocity": 60, "note_on_time": 78.954, "note_off_time": 79.756}, {"pitch": 77, "velocity": 65, "note_on_time": 79.835, "note_off_time": 80.212}, {"pitch": 76, "velocity": 57, "note_on_time": 80.158, "note_off_time": 80.462}, {"pitch": 74, "velocity": 46, "note_on_time": 80.458, "note_off_time": 80.752}, {"pitch": 76, "velocity": 56, "note_on_time": 80.76, "note_off_time": 81.056}, {"pitch": 77, "velocity": 64, "note_on_time": 81.041, "note_off_time": 81.392}, {"pitch": 76, "velocity": 59, "note_on_time": 81.361, "note_off_time": 81.992}, {"pitch": 74, "velocity": 54, "note_on_time": 81.977, "note_off_time": 82.556}, {"pitch": 72, "velocity": 73, "note_on_time": 82.587, "note_off_time": 83.826}, {"pitch": 74, "velocity": 65, "note_on_time": 83.813, "note_off_time": 84.999}, {"pitch": 76, "velocity": 58, "note_on_time": 85.04, "note_off_time": 85.622}, {"pitch": 72, "velocity": 58, "note_on_time": 85.66, "note_off_time": 85.964}, {"pitch": 72, "velocity": 70, "note_on_time": 86.234, "note_off_time": 87.319}, {"pitch": 77, "velocity": 67, "note_on_time": 87.482, "note_off_time": 88.306}, {"pitch": 79, "velocity": 54, "note_on_time": 88.375, "note_off_time": 88.791}, {"pitch": 77, "velocity": 61, "note_on_time": 88.717, "note_off_time": 89.08}, {"pitch": 76, "velocity": 51, "note_on_time": 89.024, "note_off_time": 89.344}, {"pitch": 74, "velocity": 58, "note_on_time": 89.335, "note_off_time": 89.648}, {"pitch": 72, "velocity": 55, "note_on_time": 89.648, "note_off_time": 89.955}, {"pitch": 74, "velocity": 58, "note_on_time": 89.998, "note_off_time": 90.574}, {"pitch": 72, "velocity": 59, "note_on_time": 90.577, "note_off_time": 91.129}, {"pitch": 76, "velocity": 60, "note_on_time": 91.173, "note_off_time": 92.13}, {"pitch": 74, "velocity": 55, "note_on_time": 92.369, "note_off_time": 93.225}, {"pitch": 76, "velocity": 57, "note_on_time": 93.241, "note_off_time": 93.553}, {"pitch": 77, "velocity": 66, "note_on_time": 93.539, "note_off_time": 93.842}, {"pitch": 79, "velocity": 52, "note_on_time": 93.849, "note_off_time": 94.131}, {"pitch": 77, "velocity": 68, "note_on_time": 94.171, "note_off_time": 94.435}, {"pitch": 76, "velocity": 69, "note_on_time": 94.451, "note_off_time": 94.979}, {"pitch": 74, "velocity": 58, "note_on_time": 94.783, "note_off_time": 95.423}, {"pitch": 72, "velocity": 49, "note_on_time": 95.376, "note_off_time": 95.74}, {"pitch": 72, "velocity": 49, "note_on_time": 96.016, "note_off_time": 97.034}, {"pitch": 72, "velocity": 49, "note_on_time": 97.237, "note_off_time": 98.135}, {"pitch": 74, "velocity": 58, "note_on_time": 98.139, "note_off_time": 98.455}, {"pitch": 76, "velocity": 64, "note_on_time": 98.433, "note_off_time": 99.249}, {"pitch": 74, "velocity": 53, "note_on_time": 99.309, "note_off_time": 99.61}, {"pitch": 76, "velocity": 54, "note_on_time": 99.641, "note_off_time": 100.29}, {"pitch": 77, "velocity": 67, "note_on_time": 100.201, "note_off_time": 100.775}, {"pitch": 79, "velocity": 57, "note_on_time": 100.86, "note_off_time": 102.129}, {"pitch": 77, "velocity": 62, "note_on_time": 102.104, "note_off_time": 103.009}, {"pitch": 76, "velocity": 75, "note_on_time": 103.006, "note_off_time": 103.337}, {"pitch": 74, "velocity": 58, "note_on_time": 103.31, "note_off_time": 103.544}, {"pitch": 72, "velocity": 48, "note_on_time": 103.57, "note_off_time": 103.834}, {"pitch": 74, "velocity": 64, "note_on_time": 103.872, "note_off_time": 104.13}, {"pitch": 76, "velocity": 54, "note_on_time": 104.158, "note_off_time": 104.48}, {"pitch": 72, "velocity": 66, "note_on_time": 104.488, "note_off_time": 105.824}, {"pitch": 74, "velocity": 47, "note_on_time": 106.347, "note_off_time": 106.702}, {"pitch": 76, "velocity": 66, "note_on_time": 106.646, "note_off_time": 106.967}, {"pitch": 77, "velocity": 74, "note_on_time": 106.95, "note_off_time": 107.535}, {"pitch": 79, "velocity": 33, "note_on_time": 107.579, "note_off_time": 108.055}, {"pitch": 79, "velocity": 45, "note_on_time": 108.218, "note_off_time": 109.15}, {"pitch": 77, "velocity": 66, "note_on_time": 109.078, "note_off_time": 109.313}, {"pitch": 76, "velocity": 62, "note_on_time": 109.376, "note_off_time": 109.621}, {"pitch": 77, "velocity": 49, "note_on_time": 109.661, "note_off_time": 109.996}, {"pitch": 76, "velocity": 70, "note_on_time": 109.981, "note_off_time": 110.221}, {"pitch": 79, "velocity": 50, "note_on_time": 110.294, "note_off_time": 110.451}, {"pitch": 79, "velocity": 58, "note_on_time": 110.626, "note_off_time": 111.669}, {"pitch": 77, "velocity": 72, "note_on_time": 111.794, "note_off_time": 112.594}, {"pitch": 76, "velocity": 53, "note_on_time": 112.671, "note_off_time": 112.966}, {"pitch": 74, "velocity": 58, "note_on_time": 113.004, "note_off_time": 113.294}, {"pitch": 76, "velocity": 46, "note_on_time": 113.353, "note_off_time": 113.721}, {"pitch": 77, "velocity": 5, "note_on_time": 113.758, "note_off_time": 114.045}, {"pitch": 76, "velocity": 56, "note_on_time": 114.129, "note_off_time": 114.421}, {"pitch": 74, "velocity": 56, "note_on_time": 114.406, "note_off_time": 114.933}, {"pitch": 72, "velocity": 41, "note_on_time": 114.885, "note_off_time": 115.304}, {"pitch": 72, "velocity": 60, "note_on_time": 115.485, "note_off_time": 116.305}, {"pitch": 72, "velocity": 51, "note_on_time": 116.618, "note_off_time": 117.039}, {"pitch": 74, "velocity": 49, "note_on_time": 116.918, "note_off_time": 117.259}, {"pitch": 76, "velocity": 62, "note_on_time": 117.208, "note_off_time": 117.818}, {"pitch": 77, "velocity": 63, "note_on_time": 117.493, "note_off_time": 117.872}, {"pitch": 79, "velocity": 62, "note_on_time": 117.826, "note_off_time": 118.841}, {"pitch": 72, "velocity": 48, "note_on_time": 119.077, "note_off_time": 119.511}, {"pitch": 74, "velocity": 50, "note_on_time": 119.378, "note_off_time": 119.697}, {"pitch": 76, "velocity": 54, "note_on_time": 119.64, "note_off_time": 120.161}, {"pitch": 77, "velocity": 51, "note_on_time": 119.966, "note_off_time": 120.281}, {"pitch": 79, "velocity": 51, "note_on_time": 120.282, "note_off_time": 121.25}, {"pitch": 79, "velocity": 64, "note_on_time": 121.498, "note_off_time": 122.348}, {"pitch": 77, "velocity": 64, "note_on_time": 122.428, "note_off_time": 122.584}, {"pitch": 77, "velocity": 55, "note_on_time": 122.724, "note_off_time": 122.871}, {"pitch": 76, "velocity": 69, "note_on_time": 122.994, "note_off_time": 123.176}, {"pitch": 76, "velocity": 49, "note_on_time": 123.291, "note_off_time": 123.576}, {"pitch": 74, "velocity": 64, "note_on_time": 123.596, "note_off_time": 123.829}, {"pitch": 72, "velocity": 50, "note_on_time": 123.897, "note_off_time": 125.304}, {"pitch": 72, "velocity": 55, "note_on_time": 125.755, "note_off_time": 126.07}, {"pitch": 74, "velocity": 64, "note_on_time": 126.047, "note_off_time": 126.359}, {"pitch": 76, "velocity": 68, "note_on_time": 126.334, "note_off_time": 127.129}, {"pitch": 72, "velocity": 51, "note_on_time": 127.231, "note_off_time": 127.501}, {"pitch": 76, "velocity": 61, "note_on_time": 127.534, "note_off_time": 128.098}, {"pitch": 74, "velocity": 53, "note_on_time": 128.109, "note_off_time": 128.784}, {"pitch": 76, "velocity": 61, "note_on_time": 128.737, "note_off_time": 129.385}, {"pitch": 77, "velocity": 63, "note_on_time": 129.33, "note_off_time": 129.921}, {"pitch": 79, "velocity": 60, "note_on_time": 129.971, "note_off_time": 130.984}, {"pitch": 79, "velocity": 68, "note_on_time": 131.258, "note_off_time": 132.108}, {"pitch": 77, "velocity": 63, "note_on_time": 132.132, "note_off_time": 132.389}, {"pitch": 76, "velocity": 59, "note_on_time": 132.435, "note_off_time": 132.685}, {"pitch": 74, "velocity": 60, "note_on_time": 132.721, "note_off_time": 132.98}, {"pitch": 76, "velocity": 57, "note_on_time": 133.042, "note_off_time": 133.465}, {"pitch": 77, "velocity": 62, "note_on_time": 133.467, "note_off_time": 133.623}, {"pitch": 72, "velocity": 59, "note_on_time": 133.667, "note_off_time": 135.238}, {"pitch": 72, "velocity": 53, "note_on_time": 135.478, "note_off_time": 135.798}, {"pitch": 74, "velocity": 58, "note_on_time": 135.794, "note_off_time": 136.072}, {"pitch": 76, "velocity": 67, "note_on_time": 136.088, "note_off_time": 136.589}, {"pitch": 77, "velocity": 56, "note_on_time": 136.672, "note_off_time": 137.212}, {"pitch": 79, "velocity": 63, "note_on_time": 137.282, "note_off_time": 138.292}, {"pitch": 79, "velocity": 45, "note_on_time": 138.559, "note_off_time": 139.481}, {"pitch": 76, "velocity": 54, "note_on_time": 139.466, "note_off_time": 139.74}, {"pitch": 77, "velocity": 59, "note_on_time": 139.77, "note_off_time": 139.828}, {"pitch": 79, "velocity": 36, "note_on_time": 139.836, "note_off_time": 140.721}, {"pitch": 76, "velocity": 57, "note_on_time": 140.955, "note_off_time": 141.24}, {"pitch": 77, "velocity": 62, "note_on_time": 141.251, "note_off_time": 141.489}, {"pitch": 79, "velocity": 51, "note_on_time": 141.527, "note_off_time": 141.95}, {"pitch": 77, "velocity": 59, "note_on_time": 141.837, "note_off_time": 142.197}, {"pitch": 76, "velocity": 62, "note_on_time": 142.147, "note_off_time": 142.491}, {"pitch": 74, "velocity": 45, "note_on_time": 142.462, "note_off_time": 142.726}, {"pitch": 72, "velocity": 49, "note_on_time": 142.777, "note_off_time": 142.949}, {"pitch": 76, "velocity": 60, "note_on_time": 143.046, "note_off_time": 143.347}, {"pitch": 72, "velocity": 50, "note_on_time": 143.365, "note_off_time": 144.854}, {"pitch": 74, "velocity": 52, "note_on_time": 145.2, "note_off_time": 145.631}, {"pitch": 76, "velocity": 58, "note_on_time": 145.522, "note_off_time": 145.77}, {"pitch": 77, "velocity": 64, "note_on_time": 145.773, "note_off_time": 146.708}, {"pitch": 76, "velocity": 57, "note_on_time": 146.756, "note_off_time": 147.013}, {"pitch": 77, "velocity": 59, "note_on_time": 147.019, "note_off_time": 147.846}, {"pitch": 76, "velocity": 51, "note_on_time": 147.91, "note_off_time": 148.237}, {"pitch": 79, "velocity": 38, "note_on_time": 148.274, "note_off_time": 148.827}, {"pitch": 76, "velocity": 55, "note_on_time": 148.872, "note_off_time": 149.462}, {"pitch": 79, "velocity": 54, "note_on_time": 149.478, "note_off_time": 150.554}, {"pitch": 77, "velocity": 56, "note_on_time": 150.678, "note_off_time": 151.611}, {"pitch": 76, "velocity": 62, "note_on_time": 151.58, "note_off_time": 151.852}, {"pitch": 74, "velocity": 50, "note_on_time": 151.88, "note_off_time": 152.106}, {"pitch": 76, "velocity": 59, "note_on_time": 152.162, "note_off_time": 152.451}, {"pitch": 72, "velocity": 44, "note_on_time": 152.473, "note_off_time": 152.723}, {"pitch": 76, "velocity": 62, "note_on_time": 152.762, "note_off_time": 153.052}, {"pitch": 74, "velocity": 55, "note_on_time": 153.066, "note_off_time": 153.501}, {"pitch": 72, "velocity": 44, "note_on_time": 153.708, "note_off_time": 154.101}, {"pitch": 72, "velocity": 57, "note_on_time": 154.365, "note_off_time": 155.361}, {"pitch": 72, "velocity": 52, "note_on_time": 155.616, "note_off_time": 155.922}, {"pitch": 74, "velocity": 55, "note_on_time": 155.901, "note_off_time": 156.328}, {"pitch": 76, "velocity": 54, "note_on_time": 156.196, "note_off_time": 156.751}, {"pitch": 77, "velocity": 58, "note_on_time": 156.472, "note_off_time": 156.826}, {"pitch": 79, "velocity": 59, "note_on_time": 156.784, "note_off_time": 157.903}, {"pitch": 72, "velocity": 56, "note_on_time": 157.975, "note_off_time": 158.325}, {"pitch": 74, "velocity": 59, "note_on_time": 158.286, "note_off_time": 158.696}, {"pitch": 76, "velocity": 62, "note_on_time": 158.543, "note_off_time": 159.144}, {"pitch": 77, "velocity": 63, "note_on_time": 158.837, "note_off_time": 159.167}, {"pitch": 79, "velocity": 48, "note_on_time": 159.163, "note_off_time": 160.103}, {"pitch": 74, "velocity": 25, "note_on_time": 160.126, "note_off_time": 160.369}, {"pitch": 79, "velocity": 57, "note_on_time": 160.381, "note_off_time": 161.239}, {"pitch": 76, "velocity": 47, "note_on_time": 161.256, "note_off_time": 161.557}, {"pitch": 79, "velocity": 55, "note_on_time": 161.582, "note_off_time": 162.531}, {"pitch": 76, "velocity": 40, "note_on_time": 162.564, "note_off_time": 162.852}, {"pitch": 76, "velocity": 61, "note_on_time": 163.44, "note_off_time": 164.031}, {"pitch": 79, "velocity": 53, "note_on_time": 162.84, "note_off_time": 164.479}, {"pitch": 72, "velocity": 46, "note_on_time": 164.096, "note_off_time": 165.304}, {"pitch": 72, "velocity": 41, "note_on_time": 165.559, "note_off_time": 165.916}, {"pitch": 74, "velocity": 60, "note_on_time": 165.869, "note_off_time": 166.27}, {"pitch": 76, "velocity": 60, "note_on_time": 166.136, "note_off_time": 166.603}, {"pitch": 77, "velocity": 69, "note_on_time": 166.451, "note_off_time": 167.897}, {"pitch": 72, "velocity": 59, "note_on_time": 168.032, "note_off_time": 168.458}, {"pitch": 74, "velocity": 58, "note_on_time": 168.343, "note_off_time": 168.88}, {"pitch": 76, "velocity": 55, "note_on_time": 168.635, "note_off_time": 168.975}, {"pitch": 77, "velocity": 67, "note_on_time": 168.915, "note_off_time": 170.344}, {"pitch": 72, "velocity": 66, "note_on_time": 170.388, "note_off_time": 170.821}, {"pitch": 74, "velocity": 56, "note_on_time": 170.71, "note_off_time": 171.249}, {"pitch": 76, "velocity": 60, "note_on_time": 170.997, "note_off_time": 171.319}, {"pitch": 77, "velocity": 70, "note_on_time": 171.296, "note_off_time": 171.889}, {"pitch": 74, "velocity": 34, "note_on_time": 172.011, "note_off_time": 172.584}, {"pitch": 77, "velocity": 61, "note_on_time": 172.573, "note_off_time": 173.205}, {"pitch": 74, "velocity": 51, "note_on_time": 173.224, "note_off_time": 173.803}, {"pitch": 77, "velocity": 64, "note_on_time": 173.786, "note_off_time": 174.987}, {"pitch": 74, "velocity": 74, "note_on_time": 175.05, "note_off_time": 175.948}, {"pitch": 76, "velocity": 59, "note_on_time": 175.926, "note_off_time": 176.267}, {"pitch": 74, "velocity": 59, "note_on_time": 176.255, "note_off_time": 176.502}, {"pitch": 76, "velocity": 51, "note_on_time": 176.51, "note_off_time": 176.817}, {"pitch": 74, "velocity": 55, "note_on_time": 176.83, "note_off_time": 177.118}, {"pitch": 76, "velocity": 55, "note_on_time": 177.112, "note_off_time": 177.442}, {"pitch": 72, "velocity": 61, "note_on_time": 177.441, "note_off_time": 179.048}, {"pitch": 72, "velocity": 55, "note_on_time": 179.245, "note_off_time": 179.549}, {"pitch": 74, "velocity": 59, "note_on_time": 179.519, "note_off_time": 179.789}, {"pitch": 76, "velocity": 64, "note_on_time": 179.802, "note_off_time": 180.401}, {"pitch": 79, "velocity": 56, "note_on_time": 180.416, "note_off_time": 180.808}, {"pitch": 79, "velocity": 61, "note_on_time": 181.018, "note_off_time": 181.663}, {"pitch": 72, "velocity": 51, "note_on_time": 181.648, "note_off_time": 181.98}, {"pitch": 74, "velocity": 60, "note_on_time": 181.948, "note_off_time": 182.241}, {"pitch": 76, "velocity": 60, "note_on_time": 182.277, "note_off_time": 182.822}, {"pitch": 79, "velocity": 49, "note_on_time": 182.845, "note_off_time": 183.236}, {"pitch": 79, "velocity": 62, "note_on_time": 183.498, "note_off_time": 184.544}, {"pitch": 77, "velocity": 62, "note_on_time": 184.732, "note_off_time": 185.688}, {"pitch": 76, "velocity": 53, "note_on_time": 185.622, "note_off_time": 185.938}, {"pitch": 74, "velocity": 68, "note_on_time": 185.927, "note_off_time": 186.172}, {"pitch": 72, "velocity": 51, "note_on_time": 186.196, "note_off_time": 186.474}, {"pitch": 74, "velocity": 63, "note_on_time": 186.509, "note_off_time": 186.784}, {"pitch": 76, "velocity": 56, "note_on_time": 186.813, "note_off_time": 187.144}, {"pitch": 72, "velocity": 59, "note_on_time": 187.157, "note_off_time": 188.772}, {"pitch": 74, "velocity": 66, "note_on_time": 189.607, "note_off_time": 190.507}, {"pitch": 76, "velocity": 54, "note_on_time": 190.494, "note_off_time": 190.868}, {"pitch": 77, "velocity": 64, "note_on_time": 190.814, "note_off_time": 191.602}, {"pitch": 76, "velocity": 57, "note_on_time": 191.717, "note_off_time": 192.026}, {"pitch": 77, "velocity": 59, "note_on_time": 192.025, "note_off_time": 192.602}, {"pitch": 74, "velocity": 52, "note_on_time": 192.632, "note_off_time": 193.222}, {"pitch": 77, "velocity": 65, "note_on_time": 193.252, "note_off_time": 194.414}]</notes><guidance name="Guidance Mode">None</guidance><error name="Error value">99</error></trial><trial trial_no="3" timestamp="2023_06_19-17_10_09"><notes name="Played Notes">[{"pitch": 72, "velocity": 34, "note_on_time": 4.909, "note_off_time": 5.5}, {"pitch": 74, "velocity": 55, "note_on_time": 5.242, "note_off_time": 5.69}, {"pitch": 76, "velocity": 52, "note_on_time": 5.527, "note_off_time": 6.079}, {"pitch": 77, "velocity": 65, "note_on_time": 5.829, "note_off_time": 6.201}, {"pitch": 79, "velocity": 30, "note_on_time": 6.163, "note_off_time": 7.05}, {"pitch": 76, "velocity": 41, "note_on_time": 7.026, "note_off_time": 7.389}, {"pitch": 79, "velocity": 54, "note_on_time": 7.355, "note_off_time": 8.092}, {"pitch": 76, "velocity": 44, "note_on_time": 7.941, "note_off_time": 8.559}, {"pitch": 72, "velocity": 31, "note_on_time": 9.788, "note_off_time": 10.13}, {"pitch": 79, "velocity": 44, "note_on_time": 8.535, "note_off_time": 10.14}, {"pitch": 74, "velocity": 55, "note_on_time": 10.08, "note_off_time": 10.608}, {"pitch": 76, "velocity": 54, "note_on_time": 10.342, "note_off_time": 10.687}, {"pitch": 77, "velocity": 37, "note_on_time": 10.67, "note_off_time": 10.966}, {"pitch": 79, "velocity": 54, "note_on_time": 10.96, "note_off_time": 11.978}, {"pitch": 76, "velocity": 67, "note_on_time": 11.887, "note_off_time": 12.154}, {"pitch": 79, "velocity": 48, "note_on_time": 12.163, "note_off_time": 13.332}, {"pitch": 76, "velocity": 56, "note_on_time": 12.779, "note_off_time": 13.397}, {"pitch": 72, "velocity": 60, "note_on_time": 13.381, "note_off_time": 14.542}, {"pitch": 77, "velocity": 54, "note_on_time": 14.579, "note_off_time": 15.489}, {"pitch": 76, "velocity": 55, "note_on_time": 15.51, "note_off_time": 15.788}, {"pitch": 77, "velocity": 53, "note_on_time": 15.802, "note_off_time": 16.629}, {"pitch": 76, "velocity": 52, "note_on_time": 16.697, "note_off_time": 17.01}, {"pitch": 77, "velocity": 55, "note_on_time": 17.017, "note_off_time": 17.587}, {"pitch": 76, "velocity": 53, "note_on_time": 17.612, "note_off_time": 18.236}, {"pitch": 79, "velocity": 49, "note_on_time": 18.231, "note_off_time": 19.203}, {"pitch": 79, "velocity": 42, "note_on_time": 19.452, "note_off_time": 20.427}, {"pitch": 77, "velocity": 66, "note_on_time": 20.369, "note_off_time": 20.851}, {"pitch": 76, "velocity": 59, "note_on_time": 20.693, "note_off_time": 21.025}, {"pitch": 74, "velocity": 55, "note_on_time": 20.961, "note_off_time": 21.247}, {"pitch": 72, "velocity": 49, "note_on_time": 21.277, "note_off_time": 21.502}, {"pitch": 74, "velocity": 50, "note_on_time": 21.573, "note_off_time": 21.859}, {"pitch": 72, "velocity": 52, "note_on_time": 21.859, "note_off_time": 23.86}, {"pitch": 77, "velocity": 62, "note_on_time": 24.328, "note_off_time": 25.166}, {"pitch": 79, "velocity": 50, "note_on_time": 25.212, "note_off_time": 25.617}, {"pitch": 77, "velocity": 63, "note_on_time": 25.524, "note_off_time": 26.378}, {"pitch": 79, "velocity": 52, "note_on_time": 26.412, "note_off_time": 27.013}, {"pitch": 77, "velocity": 64, "note_on_time": 26.736, "note_off_time": 27.331}, {"pitch": 76, "velocity": 60, "note_on_time": 27.349, "note_off_time": 27.99}, {"pitch": 74, "velocity": 62, "note_on_time": 27.96, "note_off_time": 29.129}, {"pitch": 72, "velocity": 53, "note_on_time": 29.16, "note_off_time": 30.085}, {"pitch": 76, "velocity": 56, "note_on_time": 30.097, "note_off_time": 30.374}, {"pitch": 74, "velocity": 47, "note_on_time": 30.386, "note_off_time": 30.696}, {"pitch": 72, "velocity": 37, "note_on_time": 30.68, "note_off_time": 30.982}, {"pitch": 74, "velocity": 59, "note_on_time": 30.983, "note_off_time": 31.263}, {"pitch": 76, "velocity": 58, "note_on_time": 31.266, "note_off_time": 31.585}, {"pitch": 72, "velocity": 56, "note_on_time": 31.597, "note_off_time": 33.67}, {"pitch": 74, "velocity": 59, "note_on_time": 33.98, "note_off_time": 34.901}, {"pitch": 72, "velocity": 44, "note_on_time": 34.901, "note_off_time": 35.183}, {"pitch": 74, "velocity": 67, "note_on_time": 35.227, "note_off_time": 36.105}, {"pitch": 72, "velocity": 38, "note_on_time": 36.124, "note_off_time": 36.442}, {"pitch": 74, "velocity": 55, "note_on_time": 36.455, "note_off_time": 37.011}, {"pitch": 77, "velocity": 62, "note_on_time": 36.988, "note_off_time": 37.605}, {"pitch": 76, "velocity": 60, "note_on_time": 37.589, "note_off_time": 38.762}, {"pitch": 72, "velocity": 43, "note_on_time": 38.818, "note_off_time": 39.702}, {"pitch": 74, "velocity": 42, "note_on_time": 39.733, "note_off_time": 40.034}, {"pitch": 76, "velocity": 49, "note_on_time": 40.046, "note_off_time": 40.339}, {"pitch": 74, "velocity": 49, "note_on_time": 40.339, "note_off_time": 40.668}, {"pitch": 72, "velocity": 28, "note_on_time": 40.66, "note_off_time": 40.934}, {"pitch": 76, "velocity": 57, "note_on_time": 40.958, "note_off_time": 41.264}, {"pitch": 72, "velocity": 48, "note_on_time": 41.278, "note_off_time": 43.654}, {"pitch": 74, "velocity": 67, "note_on_time": 43.711, "note_off_time": 44.004}, {"pitch": 76, "velocity": 37, "note_on_time": 43.999, "note_off_time": 44.301}, {"pitch": 74, "velocity": 52, "note_on_time": 44.302, "note_off_time": 44.601}, {"pitch": 76, "velocity": 45, "note_on_time": 44.584, "note_off_time": 44.882}, {"pitch": 74, "velocity": 59, "note_on_time": 44.901, "note_off_time": 45.206}, {"pitch": 76, "velocity": 45, "note_on_time": 45.206, "note_off_time": 45.485}, {"pitch": 74, "velocity": 50, "note_on_time": 45.507, "note_off_time": 45.805}, {"pitch": 76, "velocity": 43, "note_on_time": 45.823, "note_off_time": 46.117}, {"pitch": 74, "velocity": 52, "note_on_time": 46.129, "note_off_time": 46.827}, {"pitch": 76, "velocity": 62, "note_on_time": 46.74, "note_off_time": 47.369}, {"pitch": 77, "velocity": 60, "note_on_time": 47.351, "note_off_time": 48.38}, {"pitch": 76, "velocity": 57, "note_on_time": 48.591, "note_off_time": 48.852}, {"pitch": 77, "velocity": 58, "note_on_time": 48.856, "note_off_time": 49.108}, {"pitch": 76, "velocity": 54, "note_on_time": 49.145, "note_off_time": 49.442}, {"pitch": 77, "velocity": 58, "note_on_time": 49.453, "note_off_time": 49.736}, {"pitch": 76, "velocity": 57, "note_on_time": 49.742, "note_off_time": 50.073}, {"pitch": 77, "velocity": 49, "note_on_time": 50.075, "note_off_time": 50.395}, {"pitch": 76, "velocity": 61, "note_on_time": 50.399, "note_off_time": 50.684}, {"pitch": 77, "velocity": 50, "note_on_time": 50.704, "note_off_time": 50.989}, {"pitch": 76, "velocity": 62, "note_on_time": 51.002, "note_off_time": 51.555}, {"pitch": 79, "velocity": 51, "note_on_time": 51.599, "note_off_time": 52.063}, {"pitch": 79, "velocity": 61, "note_on_time": 52.258, "note_off_time": 53.212}, {"pitch": 79, "velocity": 51, "note_on_time": 53.475, "note_off_time": 54.479}, {"pitch": 77, "velocity": 56, "note_on_time": 54.419, "note_off_time": 54.704}, {"pitch": 76, "velocity": 64, "note_on_time": 54.723, "note_off_time": 55.779}, {"pitch": 77, "velocity": 1, "note_on_time": 55.738, "note_off_time": 56.001}, {"pitch": 77, "velocity": 58, "note_on_time": 56.835, "note_off_time": 57.164}, {"pitch": 79, "velocity": 55, "note_on_time": 55.992, "note_off_time": 57.169}, {"pitch": 76, "velocity": 56, "note_on_time": 57.163, "note_off_time": 57.955}, {"pitch": 77, "velocity": 52, "note_on_time": 58.015, "note_off_time": 58.31}, {"pitch": 76, "velocity": 55, "note_on_time": 58.328, "note_off_time": 59.255}, {"pitch": 77, "velocity": 53, "note_on_time": 59.272, "note_off_time": 59.579}, {"pitch": 76, "velocity": 52, "note_on_time": 59.581, "note_off_time": 60.388}, {"pitch": 76, "velocity": 60, "note_on_time": 60.513, "note_off_time": 60.794}, {"pitch": 72, "velocity": 56, "note_on_time": 60.817, "note_off_time": 62.448}, {"pitch": 72, "velocity": 42, "note_on_time": 62.619, "note_off_time": 62.881}, {"pitch": 74, "velocity": 67, "note_on_time": 62.913, "note_off_time": 63.277}, {"pitch": 76, "velocity": 66, "note_on_time": 63.234, "note_off_time": 63.879}, {"pitch": 77, "velocity": 63, "note_on_time": 63.844, "note_off_time": 64.416}, {"pitch": 79, "velocity": 51, "note_on_time": 64.453, "note_off_time": 65.039}, {"pitch": 72, "velocity": 40, "note_on_time": 65.059, "note_off_time": 65.378}, {"pitch": 74, "velocity": 53, "note_on_time": 65.349, "note_off_time": 65.673}, {"pitch": 76, "velocity": 63, "note_on_time": 65.654, "note_off_time": 66.659}, {"pitch": 77, "velocity": 57, "note_on_time": 66.223, "note_off_time": 66.817}, {"pitch": 79, "velocity": 59, "note_on_time": 66.85, "note_off_time": 67.89}, {"pitch": 79, "velocity": 57, "note_on_time": 68.063, "note_off_time": 69.101}, {"pitch": 77, "velocity": 56, "note_on_time": 68.952, "note_off_time": 69.371}, {"pitch": 76, "velocity": 51, "note_on_time": 69.279, "note_off_time": 69.583}, {"pitch": 74, "velocity": 51, "note_on_time": 69.582, "note_off_time": 69.847}, {"pitch": 72, "velocity": 45, "note_on_time": 69.89, "note_off_time": 70.081}, {"pitch": 76, "velocity": 54, "note_on_time": 70.182, "note_off_time": 70.453}, {"pitch": 72, "velocity": 42, "note_on_time": 70.48, "note_off_time": 72.144}, {"pitch": 74, "velocity": 54, "note_on_time": 72.281, "note_off_time": 72.67}, {"pitch": 76, "velocity": 56, "note_on_time": 72.574, "note_off_time": 72.907}, {"pitch": 77, "velocity": 67, "note_on_time": 72.9, "note_off_time": 73.726}, {"pitch": 74, "velocity": 47, "note_on_time": 73.819, "note_off_time": 74.098}, {"pitch": 77, "velocity": 54, "note_on_time": 74.126, "note_off_time": 74.882}, {"pitch": 74, "velocity": 44, "note_on_time": 75.01, "note_off_time": 75.33}, {"pitch": 77, "velocity": 67, "note_on_time": 75.465, "note_off_time": 75.932}, {"pitch": 76, "velocity": 53, "note_on_time": 75.959, "note_off_time": 76.503}, {"pitch": 79, "velocity": 51, "note_on_time": 76.544, "note_off_time": 77.596}, {"pitch": 79, "velocity": 42, "note_on_time": 77.804, "note_off_time": 78.781}, {"pitch": 77, "velocity": 54, "note_on_time": 78.667, "note_off_time": 79.132}, {"pitch": 76, "velocity": 55, "note_on_time": 78.993, "note_off_time": 79.395}, {"pitch": 74, "velocity": 47, "note_on_time": 79.276, "note_off_time": 79.578}, {"pitch": 72, "velocity": 27, "note_on_time": 79.619, "note_off_time": 79.829}, {"pitch": 76, "velocity": 41, "note_on_time": 79.889, "note_off_time": 80.176}, {"pitch": 72, "velocity": 38, "note_on_time": 80.177, "note_off_time": 81.916}, {"pitch": 74, "velocity": 33, "note_on_time": 82.631, "note_off_time": 82.981}, {"pitch": 76, "velocity": 62, "note_on_time": 82.934, "note_off_time": 83.268}, {"pitch": 77, "velocity": 65, "note_on_time": 83.233, "note_off_time": 83.592}, {"pitch": 79, "velocity": 52, "note_on_time": 83.544, "note_off_time": 85.022}, {"pitch": 74, "velocity": 37, "note_on_time": 85.025, "note_off_time": 85.345}, {"pitch": 76, "velocity": 57, "note_on_time": 85.341, "note_off_time": 85.616}, {"pitch": 77, "velocity": 60, "note_on_time": 85.622, "note_off_time": 86.009}, {"pitch": 79, "velocity": 55, "note_on_time": 85.983, "note_off_time": 87.09}, {"pitch": 77, "velocity": 62, "note_on_time": 87.178, "note_off_time": 87.562}, {"pitch": 76, "velocity": 57, "note_on_time": 87.493, "note_off_time": 87.746}, {"pitch": 74, "velocity": 53, "note_on_time": 87.774, "note_off_time": 88.019}, {"pitch": 76, "velocity": 49, "note_on_time": 88.073, "note_off_time": 88.399}, {"pitch": 77, "velocity": 68, "note_on_time": 88.35, "note_off_time": 88.641}, {"pitch": 79, "velocity": 50, "note_on_time": 88.65, "note_off_time": 89.07}, {"pitch": 77, "velocity": 49, "note_on_time": 88.965, "note_off_time": 89.493}, {"pitch": 76, "velocity": 53, "note_on_time": 89.287, "note_off_time": 89.621}, {"pitch": 74, "velocity": 51, "note_on_time": 89.582, "note_off_time": 89.864}, {"pitch": 72, "velocity": 49, "note_on_time": 89.895, "note_off_time": 90.15}, {"pitch": 74, "velocity": 53, "note_on_time": 90.184, "note_off_time": 90.504}, {"pitch": 76, "velocity": 42, "note_on_time": 90.51, "note_off_time": 90.861}, {"pitch": 74, "velocity": 56, "note_on_time": 90.819, "note_off_time": 91.136}, {"pitch": 72, "velocity": 54, "note_on_time": 91.13, "note_off_time": 92.029}, {"pitch": 72, "velocity": 26, "note_on_time": 92.346, "note_off_time": 92.622}, {"pitch": 74, "velocity": 51, "note_on_time": 92.64, "note_off_time": 93.176}, {"pitch": 76, "velocity": 60, "note_on_time": 92.94, "note_off_time": 93.46}, {"pitch": 77, "velocity": 57, "note_on_time": 93.238, "note_off_time": 93.549}, {"pitch": 79, "velocity": 40, "note_on_time": 93.594, "note_off_time": 94.35}, {"pitch": 72, "velocity": 37, "note_on_time": 94.756, "note_off_time": 95.05}, {"pitch": 74, "velocity": 45, "note_on_time": 95.077, "note_off_time": 95.554}, {"pitch": 76, "velocity": 58, "note_on_time": 95.351, "note_off_time": 95.72}, {"pitch": 77, "velocity": 53, "note_on_time": 95.646, "note_off_time": 95.934}, {"pitch": 79, "velocity": 49, "note_on_time": 95.948, "note_off_time": 96.866}, {"pitch": 76, "velocity": 44, "note_on_time": 96.889, "note_off_time": 97.228}, {"pitch": 79, "velocity": 56, "note_on_time": 97.201, "note_off_time": 98.092}, {"pitch": 76, "velocity": 50, "note_on_time": 98.08, "note_off_time": 98.374}, {"pitch": 79, "velocity": 52, "note_on_time": 98.375, "note_off_time": 98.875}, {"pitch": 77, "velocity": 55, "note_on_time": 98.693, "note_off_time": 99.197}, {"pitch": 76, "velocity": 60, "note_on_time": 99.012, "note_off_time": 99.284}, {"pitch": 74, "velocity": 31, "note_on_time": 99.382, "note_off_time": 99.626}, {"pitch": 72, "velocity": 49, "note_on_time": 99.617, "note_off_time": 100.93}, {"pitch": 72, "velocity": 40, "note_on_time": 102.093, "note_off_time": 102.385}, {"pitch": 74, "velocity": 55, "note_on_time": 102.379, "note_off_time": 102.777}, {"pitch": 76, "velocity": 59, "note_on_time": 102.688, "note_off_time": 103.045}, {"pitch": 77, "velocity": 52, "note_on_time": 102.994, "note_off_time": 103.245}, {"pitch": 72, "velocity": 39, "note_on_time": 103.282, "note_off_time": 103.615}, {"pitch": 74, "velocity": 57, "note_on_time": 103.601, "note_off_time": 104.153}, {"pitch": 76, "velocity": 48, "note_on_time": 103.907, "note_off_time": 104.215}, {"pitch": 77, "velocity": 58, "note_on_time": 104.196, "note_off_time": 104.508}, {"pitch": 72, "velocity": 38, "note_on_time": 104.554, "note_off_time": 104.828}, {"pitch": 74, "velocity": 48, "note_on_time": 104.846, "note_off_time": 105.309}, {"pitch": 76, "velocity": 49, "note_on_time": 105.12, "note_off_time": 105.365}, {"pitch": 79, "velocity": 54, "note_on_time": 105.406, "note_off_time": 105.931}, {"pitch": 72, "velocity": 51, "note_on_time": 105.743, "note_off_time": 106.271}, {"pitch": 74, "velocity": 49, "note_on_time": 106.058, "note_off_time": 106.466}, {"pitch": 76, "velocity": 56, "note_on_time": 106.344, "note_off_time": 106.642}, {"pitch": 79, "velocity": 39, "note_on_time": 106.613, "note_off_time": 106.819}, {"pitch": 79, "velocity": 64, "note_on_time": 106.941, "note_off_time": 107.633}, {"pitch": 77, "velocity": 60, "note_on_time": 107.54, "note_off_time": 107.949}, {"pitch": 76, "velocity": 66, "note_on_time": 107.856, "note_off_time": 108.165}, {"pitch": 74, "velocity": 55, "note_on_time": 108.161, "note_off_time": 108.468}, {"pitch": 72, "velocity": 36, "note_on_time": 108.458, "note_off_time": 108.749}, {"pitch": 74, "velocity": 68, "note_on_time": 108.766, "note_off_time": 109.063}, {"pitch": 76, "velocity": 59, "note_on_time": 109.073, "note_off_time": 109.373}, {"pitch": 72, "velocity": 46, "note_on_time": 109.372, "note_off_time": 110.859}, {"pitch": 74, "velocity": 18, "note_on_time": 110.926, "note_off_time": 111.361}, {"pitch": 76, "velocity": 56, "note_on_time": 111.211, "note_off_time": 111.799}, {"pitch": 77, "velocity": 55, "note_on_time": 111.521, "note_off_time": 111.891}, {"pitch": 79, "velocity": 54, "note_on_time": 111.853, "note_off_time": 112.348}, {"pitch": 74, "velocity": 1, "note_on_time": 112.201, "note_off_time": 112.434}, {"pitch": 76, "velocity": 15, "note_on_time": 112.47, "note_off_time": 112.811}, {"pitch": 77, "velocity": 59, "note_on_time": 112.76, "note_off_time": 113.081}, {"pitch": 79, "velocity": 49, "note_on_time": 113.028, "note_off_time": 113.353}, {"pitch": 74, "velocity": 55, "note_on_time": 113.331, "note_off_time": 113.678}, {"pitch": 76, "velocity": 47, "note_on_time": 113.583, "note_off_time": 114.135}, {"pitch": 77, "velocity": 74, "note_on_time": 113.901, "note_off_time": 114.225}, {"pitch": 79, "velocity": 50, "note_on_time": 114.172, "note_off_time": 114.533}, {"pitch": 72, "velocity": 49, "note_on_time": 114.51, "note_off_time": 114.799}, {"pitch": 74, "velocity": 51, "note_on_time": 114.809, "note_off_time": 115.278}, {"pitch": 76, "velocity": 60, "note_on_time": 115.111, "note_off_time": 115.453}, {"pitch": 77, "velocity": 59, "note_on_time": 115.415, "note_off_time": 115.663}, {"pitch": 72, "velocity": 52, "note_on_time": 115.711, "note_off_time": 116.038}, {"pitch": 74, "velocity": 64, "note_on_time": 116.02, "note_off_time": 116.458}, {"pitch": 76, "velocity": 54, "note_on_time": 116.293, "note_off_time": 116.669}, {"pitch": 77, "velocity": 70, "note_on_time": 116.615, "note_off_time": 117.318}, {"pitch": 76, "velocity": 66, "note_on_time": 117.23, "note_off_time": 117.583}, {"pitch": 74, "velocity": 66, "note_on_time": 117.536, "note_off_time": 117.845}, {"pitch": 72, "velocity": 55, "note_on_time": 117.854, "note_off_time": 118.147}, {"pitch": 76, "velocity": 56, "note_on_time": 118.136, "note_off_time": 118.536}, {"pitch": 74, "velocity": 59, "note_on_time": 118.455, "note_off_time": 118.734}, {"pitch": 72, "velocity": 47, "note_on_time": 118.763, "note_off_time": 119.005}, {"pitch": 72, "velocity": 19, "note_on_time": 119.094, "note_off_time": 120.064}, {"pitch": 74, "velocity": 52, "note_on_time": 120.65, "note_off_time": 120.892}, {"pitch": 76, "velocity": 54, "note_on_time": 120.825, "note_off_time": 121.527}, {"pitch": 77, "velocity": 62, "note_on_time": 121.447, "note_off_time": 122.751}, {"pitch": 74, "velocity": 46, "note_on_time": 123.051, "note_off_time": 123.313}, {"pitch": 76, "velocity": 57, "note_on_time": 123.23, "note_off_time": 123.999}, {"pitch": 77, "velocity": 56, "note_on_time": 123.985, "note_off_time": 125.395}, {"pitch": 72, "velocity": 48, "note_on_time": 125.456, "note_off_time": 125.761}, {"pitch": 74, "velocity": 67, "note_on_time": 125.76, "note_off_time": 126.257}, {"pitch": 76, "velocity": 57, "note_on_time": 126.072, "note_off_time": 126.387}, {"pitch": 77, "velocity": 67, "note_on_time": 126.382, "note_off_time": 126.924}, {"pitch": 74, "velocity": 47, "note_on_time": 126.959, "note_off_time": 127.587}, {"pitch": 76, "velocity": 53, "note_on_time": 127.299, "note_off_time": 127.632}, {"pitch": 77, "velocity": 70, "note_on_time": 127.627, "note_off_time": 128.225}, {"pitch": 76, "velocity": 64, "note_on_time": 128.173, "note_off_time": 128.466}, {"pitch": 74, "velocity": 52, "note_on_time": 128.478, "note_off_time": 128.794}, {"pitch": 72, "velocity": 64, "note_on_time": 128.782, "note_off_time": 130.639}, {"pitch": 79, "velocity": 59, "note_on_time": 130.659, "note_off_time": 131.074}, {"pitch": 79, "velocity": 61, "note_on_time": 131.298, "note_off_time": 132.448}, {"pitch": 77, "velocity": 61, "note_on_time": 132.145, "note_off_time": 132.522}, {"pitch": 76, "velocity": 69, "note_on_time": 132.472, "note_off_time": 133.418}, {"pitch": 77, "velocity": 64, "note_on_time": 133.348, "note_off_time": 133.603}, {"pitch": 79, "velocity": 47, "note_on_time": 133.645, "note_off_time": 134.641}, {"pitch": 77, "velocity": 57, "note_on_time": 134.565, "note_off_time": 134.974}, {"pitch": 76, "velocity": 59, "note_on_time": 134.891, "note_off_time": 135.789}, {"pitch": 74, "velocity": 64, "note_on_time": 135.788, "note_off_time": 136.101}, {"pitch": 72, "velocity": 44, "note_on_time": 136.086, "note_off_time": 136.673}, {"pitch": 74, "velocity": 53, "note_on_time": 136.695, "note_off_time": 137.311}, {"pitch": 76, "velocity": 65, "note_on_time": 137.312, "note_off_time": 138.259}, {"pitch": 74, "velocity": 56, "note_on_time": 138.21, "note_off_time": 138.527}, {"pitch": 72, "velocity": 52, "note_on_time": 138.514, "note_off_time": 139.845}, {"pitch": 72, "velocity": 60, "note_on_time": 140.071, "note_off_time": 140.508}, {"pitch": 74, "velocity": 36, "note_on_time": 140.449, "note_off_time": 140.886}, {"pitch": 76, "velocity": 55, "note_on_time": 140.699, "note_off_time": 141.026}, {"pitch": 77, "velocity": 70, "note_on_time": 140.993, "note_off_time": 141.767}, {"pitch": 79, "velocity": 53, "note_on_time": 141.865, "note_off_time": 142.083}, {"pitch": 79, "velocity": 57, "note_on_time": 142.196, "note_off_time": 143.313}, {"pitch": 76, "velocity": 60, "note_on_time": 143.455, "note_off_time": 144.363}, {"pitch": 79, "velocity": 58, "note_on_time": 144.288, "note_off_time": 144.489}, {"pitch": 79, "velocity": 51, "note_on_time": 144.608, "note_off_time": 145.575}, {"pitch": 76, "velocity": 63, "note_on_time": 145.515, "note_off_time": 145.829}, {"pitch": 79, "velocity": 57, "note_on_time": 145.834, "note_off_time": 146.744}, {"pitch": 76, "velocity": 56, "note_on_time": 146.753, "note_off_time": 147.095}, {"pitch": 74, "velocity": 62, "note_on_time": 147.034, "note_off_time": 147.319}, {"pitch": 72, "velocity": 54, "note_on_time": 147.332, "note_off_time": 147.555}, {"pitch": 74, "velocity": 56, "note_on_time": 147.639, "note_off_time": 147.897}, {"pitch": 72, "velocity": 68, "note_on_time": 147.994, "note_off_time": 148.416}, {"pitch": 72, "velocity": 47, "note_on_time": 148.511, "note_off_time": 149.922}, {"pitch": 74, "velocity": 61, "note_on_time": 150.093, "note_off_time": 150.435}, {"pitch": 76, "velocity": 58, "note_on_time": 150.384, "note_off_time": 150.865}, {"pitch": 77, "velocity": 46, "note_on_time": 150.709, "note_off_time": 151.425}, {"pitch": 76, "velocity": 59, "note_on_time": 151.308, "note_off_time": 151.624}, {"pitch": 74, "velocity": 46, "note_on_time": 151.614, "note_off_time": 152.152}, {"pitch": 74, "velocity": 17, "note_on_time": 152.541, "note_off_time": 152.756}, {"pitch": 72, "velocity": 5, "note_on_time": 152.882, "note_off_time": 153.087}, {"pitch": 74, "velocity": 39, "note_on_time": 153.15, "note_off_time": 153.641}, {"pitch": 76, "velocity": 52, "note_on_time": 153.741, "note_off_time": 154.192}, {"pitch": 76, "velocity": 61, "note_on_time": 154.322, "note_off_time": 155.035}, {"pitch": 72, "velocity": 54, "note_on_time": 155.262, "note_off_time": 155.472}, {"pitch": 74, "velocity": 60, "note_on_time": 155.569, "note_off_time": 156.426}, {"pitch": 76, "velocity": 54, "note_on_time": 156.465, "note_off_time": 156.716}, {"pitch": 72, "velocity": 51, "note_on_time": 156.752, "note_off_time": 156.971}, {"pitch": 74, "velocity": 58, "note_on_time": 157.053, "note_off_time": 157.336}, {"pitch": 76, "velocity": 47, "note_on_time": 157.333, "note_off_time": 157.66}, {"pitch": 74, "velocity": 51, "note_on_time": 157.644, "note_off_time": 157.944}, {"pitch": 72, "velocity": 58, "note_on_time": 157.943, "note_off_time": 159.307}, {"pitch": 79, "velocity": 49, "note_on_time": 159.52, "note_off_time": 159.692}, {"pitch": 79, "velocity": 41, "note_on_time": 159.83, "note_off_time": 161.354}, {"pitch": 77, "velocity": 62, "note_on_time": 161.385, "note_off_time": 161.725}, {"pitch": 76, "velocity": 69, "note_on_time": 161.716, "note_off_time": 162.44}, {"pitch": 77, "velocity": 67, "note_on_time": 162.609, "note_off_time": 162.921}, {"pitch": 79, "velocity": 65, "note_on_time": 162.907, "note_off_time": 163.895}, {"pitch": 77, "velocity": 63, "note_on_time": 163.848, "note_off_time": 164.21}, {"pitch": 76, "velocity": 66, "note_on_time": 164.149, "note_off_time": 165.035}, {"pitch": 77, "velocity": 62, "note_on_time": 165.057, "note_off_time": 165.381}, {"pitch": 76, "velocity": 60, "note_on_time": 165.379, "note_off_time": 166.389}, {"pitch": 74, "velocity": 54, "note_on_time": 166.285, "note_off_time": 166.574}, {"pitch": 72, "velocity": 54, "note_on_time": 166.589, "note_off_time": 166.806}, {"pitch": 74, "velocity": 52, "note_on_time": 166.891, "note_off_time": 167.182}, {"pitch": 76, "velocity": 51, "note_on_time": 167.157, "note_off_time": 167.427}, {"pitch": 77, "velocity": 54, "note_on_time": 167.426, "note_off_time": 167.719}, {"pitch": 74, "velocity": 59, "note_on_time": 167.747, "note_off_time": 168.367}, {"pitch": 72, "velocity": 43, "note_on_time": 168.358, "note_off_time": 168.871}, {"pitch": 72, "velocity": 54, "note_on_time": 169.006, "note_off_time": 169.965}, {"pitch": 72, "velocity": 56, "note_on_time": 170.213, "note_off_time": 170.441}, {"pitch": 74, "velocity": 59, "note_on_time": 170.492, "note_off_time": 171.028}, {"pitch": 76, "velocity": 58, "note_on_time": 170.808, "note_off_time": 171.159}, {"pitch": 77, "velocity": 58, "note_on_time": 171.091, "note_off_time": 171.432}, {"pitch": 79, "velocity": 58, "note_on_time": 171.421, "note_off_time": 172.51}, {"pitch": 72, "velocity": 46, "note_on_time": 172.596, "note_off_time": 172.907}, {"pitch": 74, "velocity": 51, "note_on_time": 172.901, "note_off_time": 173.28}, {"pitch": 76, "velocity": 55, "note_on_time": 173.204, "note_off_time": 173.622}, {"pitch": 77, "velocity": 51, "note_on_time": 173.538, "note_off_time": 173.837}, {"pitch": 79, "velocity": 49, "note_on_time": 173.848, "note_off_time": 174.758}, {"pitch": 76, "velocity": 56, "note_on_time": 174.725, "note_off_time": 175.062}, {"pitch": 79, "velocity": 62, "note_on_time": 175.061, "note_off_time": 176.039}, {"pitch": 76, "velocity": 40, "note_on_time": 175.94, "note_off_time": 176.23}, {"pitch": 77, "velocity": 61, "note_on_time": 176.269, "note_off_time": 176.76}, {"pitch": 76, "velocity": 59, "note_on_time": 176.528, "note_off_time": 176.937}, {"pitch": 74, "velocity": 48, "note_on_time": 176.877, "note_off_time": 177.125}, {"pitch": 76, "velocity": 56, "note_on_time": 177.189, "note_off_time": 177.497}, {"pitch": 72, "velocity": 63, "note_on_time": 177.492, "note_off_time": 179.533}, {"pitch": 76, "velocity": 53, "note_on_time": 179.896, "note_off_time": 180.16}, {"pitch": 74, "velocity": 52, "note_on_time": 180.172, "note_off_time": 180.5}, {"pitch": 76, "velocity": 54, "note_on_time": 180.495, "note_off_time": 180.791}, {"pitch": 74, "velocity": 47, "note_on_time": 180.811, "note_off_time": 181.088}, {"pitch": 76, "velocity": 56, "note_on_time": 181.081, "note_off_time": 181.378}, {"pitch": 74, "velocity": 48, "note_on_time": 181.39, "note_off_time": 181.692}, {"pitch": 76, "velocity": 54, "note_on_time": 181.7, "note_off_time": 181.999}, {"pitch": 74, "velocity": 44, "note_on_time": 181.99, "note_off_time": 182.269}, {"pitch": 77, "velocity": 65, "note_on_time": 182.284, "note_off_time": 182.609}, {"pitch": 76, "velocity": 53, "note_on_time": 182.567, "note_off_time": 182.921}, {"pitch": 77, "velocity": 52, "note_on_time": 182.902, "note_off_time": 183.211}, {"pitch": 76, "velocity": 55, "note_on_time": 183.222, "note_off_time": 183.522}, {"pitch": 77, "velocity": 54, "note_on_time": 183.528, "note_off_time": 183.911}, {"pitch": 76, "velocity": 58, "note_on_time": 183.898, "note_off_time": 184.171}, {"pitch": 77, "velocity": 59, "note_on_time": 184.143, "note_off_time": 184.561}, {"pitch": 76, "velocity": 55, "note_on_time": 184.462, "note_off_time": 184.729}, {"pitch": 79, "velocity": 59, "note_on_time": 184.758, "note_off_time": 185.202}, {"pitch": 77, "velocity": 50, "note_on_time": 185.066, "note_off_time": 185.491}, {"pitch": 79, "velocity": 52, "note_on_time": 185.483, "note_off_time": 185.727}, {"pitch": 77, "velocity": 41, "note_on_time": 185.757, "note_off_time": 185.974}, {"pitch": 79, "velocity": 48, "note_on_time": 186.008, "note_off_time": 186.28}, {"pitch": 77, "velocity": 34, "note_on_time": 186.325, "note_off_time": 186.51}, {"pitch": 79, "velocity": 42, "note_on_time": 186.557, "note_off_time": 186.865}, {"pitch": 77, "velocity": 42, "note_on_time": 186.846, "note_off_time": 187.213}, {"pitch": 76, "velocity": 69, "note_on_time": 187.13, "note_off_time": 188.763}, {"pitch": 74, "velocity": 51, "note_on_time": 188.687, "note_off_time": 189.008}, {"pitch": 72, "velocity": 45, "note_on_time": 189.008, "note_off_time": 189.223}, {"pitch": 74, "velocity": 55, "note_on_time": 189.307, "note_off_time": 189.594}, {"pitch": 76, "velocity": 64, "note_on_time": 189.611, "note_off_time": 190.46}, {"pitch": 77, "velocity": 63, "note_on_time": 190.541, "note_off_time": 190.839}, {"pitch": 79, "velocity": 47, "note_on_time": 190.839, "note_off_time": 191.718}, {"pitch": 76, "velocity": 59, "note_on_time": 191.702, "note_off_time": 191.999}, {"pitch": 79, "velocity": 44, "note_on_time": 192.01, "note_off_time": 192.641}, {"pitch": 76, "velocity": 44, "note_on_time": 192.63, "note_off_time": 193.235}]</notes><guidance name="Guidance Mode">None</guidance><error name="Error value">99</error></trial></trials></MIDI>