<MIDI midiNo="2023_06_19-12_22_22"><target_notes><notes name="Note List">[{"pitch": 60, "velocity": 40, "note_on_time": 0.01, "note_off_time": 1.021}, {"pitch": 64, "velocity": 40, "note_on_time": 0.011, "note_off_time": 1.021}, {"pitch": 67, "velocity": 40, "note_on_time": 0.011, "note_off_time": 1.022}, {"pitch": 48, "velocity": 40, "note_on_time": 0.011, "note_off_time": 1.022}, {"pitch": 52, "velocity": 40, "note_on_time": 1.022, "note_off_time": 2.033}, {"pitch": 55, "velocity": 40, "note_on_time": 1.022, "note_off_time": 2.034}, {"pitch": 79, "velocity": 40, "note_on_time": 2.033, "note_off_time": 3.048}, {"pitch": 48, "velocity": 40, "note_on_time": 2.034, "note_off_time": 3.049}, {"pitch": 52, "velocity": 40, "note_on_time": 3.049, "note_off_time": 4.051}, {"pitch": 55, "velocity": 40, "note_on_time": 3.049, "note_off_time": 4.051}, {"pitch": 48, "velocity": 40, "note_on_time": 4.051, "note_off_time": 5.061}, {"pitch": 52, "velocity": 40, "note_on_time": 5.061, "note_off_time": 6.065}, {"pitch": 55, "velocity": 40, "note_on_time": 5.061, "note_off_time": 6.065}, {"pitch": 48, "velocity": 40, "note_on_time": 6.065, "note_off_time": 7.078}, {"pitch": 52, "velocity": 40, "note_on_time": 7.078, "note_off_time": 8.085}, {"pitch": 55, "velocity": 40, "note_on_time": 7.078, "note_off_time": 8.086}, {"pitch": 60, "velocity": 40, "note_on_time": 8.083, "note_off_time": 9.09}, {"pitch": 64, "velocity": 40, "note_on_time": 8.085, "note_off_time": 9.091}, {"pitch": 67, "velocity": 40, "note_on_time": 8.085, "note_off_time": 9.091}, {"pitch": 48, "velocity": 40, "note_on_time": 8.086, "note_off_time": 9.092}, {"pitch": 52, "velocity": 40, "note_on_time": 9.092, "note_off_time": 10.101}, {"pitch": 55, "velocity": 40, "note_on_time": 9.092, "note_off_time": 10.101}, {"pitch": 77, "velocity": 40, "note_on_time": 10.101, "note_off_time": 11.113}, {"pitch": 48, "velocity": 40, "note_on_time": 10.102, "note_off_time": 11.113}, {"pitch": 52, "velocity": 40, "note_on_time": 11.114, "note_off_time": 12.129}, {"pitch": 55, "velocity": 40, "note_on_time": 11.114, "note_off_time": 12.129}, {"pitch": 48, "velocity": 40, "note_on_time": 12.129, "note_off_time": 13.133}, {"pitch": 52, "velocity": 40, "note_on_time": 13.133, "note_off_time": 14.14}, {"pitch": 55, "velocity": 40, "note_on_time": 13.133, "note_off_time": 14.14}, {"pitch": 48, "velocity": 40, "note_on_time": 14.14, "note_off_time": 15.155}, {"pitch": 52, "velocity": 40, "note_on_time": 15.155, "note_off_time": 16.159}, {"pitch": 55, "velocity": 40, "note_on_time": 15.155, "note_off_time": 16.159}, {"pitch": 60, "velocity": 40, "note_on_time": 16.157, "note_off_time": 17.168}, {"pitch": 64, "velocity": 40, "note_on_time": 16.158, "note_off_time": 17.169}, {"pitch": 67, "velocity": 40, "note_on_time": 16.159, "note_off_time": 17.169}, {"pitch": 48, "velocity": 40, "note_on_time": 16.159, "note_off_time": 17.169}, {"pitch": 52, "velocity": 40, "note_on_time": 17.17, "note_off_time": 18.176}, {"pitch": 55, "velocity": 40, "note_on_time": 17.17, "note_off_time": 18.176}, {"pitch": 72, "velocity": 40, "note_on_time": 18.176, "note_off_time": 19.189}, {"pitch": 48, "velocity": 40, "note_on_time": 18.177, "note_off_time": 19.19}, {"pitch": 52, "velocity": 40, "note_on_time": 19.19, "note_off_time": 20.203}, {"pitch": 55, "velocity": 40, "note_on_time": 19.19, "note_off_time": 20.203}, {"pitch": 48, "velocity": 40, "note_on_time": 20.203, "note_off_time": 21.215}, {"pitch": 52, "velocity": 40, "note_on_time": 21.215, "note_off_time": 22.222}, {"pitch": 55, "velocity": 40, "note_on_time": 21.215, "note_off_time": 22.222}, {"pitch": 48, "velocity": 40, "note_on_time": 22.222, "note_off_time": 23.225}, {"pitch": 52, "velocity": 40, "note_on_time": 23.225, "note_off_time": 24.234}, {"pitch": 55, "velocity": 40, "note_on_time": 23.225, "note_off_time": 24.235}, {"pitch": 60, "velocity": 40, "note_on_time": 24.233, "note_off_time": 25.236}, {"pitch": 64, "velocity": 40, "note_on_time": 24.234, "note_off_time": 25.237}, {"pitch": 67, "velocity": 40, "note_on_time": 24.234, "note_off_time": 25.237}, {"pitch": 48, "velocity": 40, "note_on_time": 24.235, "note_off_time": 25.237}, {"pitch": 52, "velocity": 40, "note_on_time": 25.237, "note_off_time": 26.253}, {"pitch": 55, "velocity": 40, "note_on_time": 25.237, "note_off_time": 26.254}, {"pitch": 79, "velocity": 40, "note_on_time": 26.253, "note_off_time": 27.254}, {"pitch": 48, "velocity": 40, "note_on_time": 26.254, "note_off_time": 27.256}, {"pitch": 52, "velocity": 40, "note_on_time": 27.256, "note_off_time": 28.261}, {"pitch": 55, "velocity": 40, "note_on_time": 27.256, "note_off_time": 28.261}, {"pitch": 48, "velocity": 40, "note_on_time": 28.261, "note_off_time": 29.27}, {"pitch": 52, "velocity": 40, "note_on_time": 29.27, "note_off_time": 30.281}, {"pitch": 55, "velocity": 40, "note_on_time": 29.27, "note_off_time": 30.281}, {"pitch": 48, "velocity": 40, "note_on_time": 30.281, "note_off_time": 31.293}, {"pitch": 52, "velocity": 40, "note_on_time": 31.293, "note_off_time": 32.301}, {"pitch": 55, "velocity": 40, "note_on_time": 31.293, "note_off_time": 32.301}, {"pitch": 60, "velocity": 40, "note_on_time": 32.299, "note_off_time": 33.301}, {"pitch": 64, "velocity": 40, "note_on_time": 32.3, "note_off_time": 33.303}, {"pitch": 67, "velocity": 40, "note_on_time": 32.301, "note_off_time": 33.303}, {"pitch": 48, "velocity": 40, "note_on_time": 32.301, "note_off_time": 33.303}, {"pitch": 52, "velocity": 40, "note_on_time": 33.304, "note_off_time": 34.313}, {"pitch": 55, "velocity": 40, "note_on_time": 33.304, "note_off_time": 34.314}, {"pitch": 77, "velocity": 40, "note_on_time": 34.313, "note_off_time": 35.322}, {"pitch": 48, "velocity": 40, "note_on_time": 34.314, "note_off_time": 35.322}, {"pitch": 52, "velocity": 40, "note_on_time": 35.323, "note_off_time": 36.325}, {"pitch": 55, "velocity": 40, "note_on_time": 35.323, "note_off_time": 36.325}, {"pitch": 48, "velocity": 40, "note_on_time": 36.325, "note_off_time": 37.335}, {"pitch": 52, "velocity": 40, "note_on_time": 37.335, "note_off_time": 38.336}, {"pitch": 55, "velocity": 40, "note_on_time": 37.335, "note_off_time": 38.336}, {"pitch": 48, "velocity": 40, "note_on_time": 38.336, "note_off_time": 39.346}, {"pitch": 52, "velocity": 40, "note_on_time": 39.346, "note_off_time": 40.356}, {"pitch": 55, "velocity": 40, "note_on_time": 39.346, "note_off_time": 40.356}, {"pitch": 60, "velocity": 40, "note_on_time": 40.355, "note_off_time": 41.367}, {"pitch": 64, "velocity": 40, "note_on_time": 40.356, "note_off_time": 41.368}, {"pitch": 67, "velocity": 40, "note_on_time": 40.356, "note_off_time": 41.368}, {"pitch": 74, "velocity": 40, "note_on_time": 42.383, "note_off_time": 43.387}, {"pitch": 60, "velocity": 40, "note_on_time": 48.39, "note_off_time": 49.403}, {"pitch": 64, "velocity": 40, "note_on_time": 48.391, "note_off_time": 49.403}, {"pitch": 67, "velocity": 40, "note_on_time": 48.391, "note_off_time": 49.404}, {"pitch": 76, "velocity": 40, "note_on_time": 50.413, "note_off_time": 51.415}, {"pitch": 60, "velocity": 40, "note_on_time": 56.418, "note_off_time": 57.43}, {"pitch": 64, "velocity": 40, "note_on_time": 56.419, "note_off_time": 57.431}, {"pitch": 67, "velocity": 40, "note_on_time": 56.419, "note_off_time": 57.431}, {"pitch": 77, "velocity": 40, "note_on_time": 58.442, "note_off_time": 59.454}, {"pitch": 60, "velocity": 40, "note_on_time": 64.458, "note_off_time": 65.46}, {"pitch": 64, "velocity": 40, "note_on_time": 64.458, "note_off_time": 65.461}, {"pitch": 67, "velocity": 40, "note_on_time": 64.459, "note_off_time": 65.461}, {"pitch": 72, "velocity": 40, "note_on_time": 66.475, "note_off_time": 67.481}, {"pitch": 60, "velocity": 40, "note_on_time": 72.486, "note_off_time": 73.497}, {"pitch": 64, "velocity": 40, "note_on_time": 72.487, "note_off_time": 73.498}, {"pitch": 67, "velocity": 40, "note_on_time": 72.487, "note_off_time": 73.498}, {"pitch": 74, "velocity": 40, "note_on_time": 74.509, "note_off_time": 75.519}, {"pitch": 60, "velocity": 40, "note_on_time": 80.529, "note_off_time": 81.539}, {"pitch": 64, "velocity": 40, "note_on_time": 80.53, "note_off_time": 81.539}, {"pitch": 67, "velocity": 40, "note_on_time": 80.53, "note_off_time": 81.539}, {"pitch": 79, "velocity": 40, "note_on_time": 82.553, "note_off_time": 83.565}, {"pitch": 60, "velocity": 40, "note_on_time": 88.576, "note_off_time": 89.582}, {"pitch": 64, "velocity": 40, "note_on_time": 88.578, "note_off_time": 89.583}, {"pitch": 67, "velocity": 40, "note_on_time": 88.578, "note_off_time": 89.584}, {"pitch": 72, "velocity": 40, "note_on_time": 90.589, "note_off_time": 91.592}, {"pitch": 60, "velocity": 40, "note_on_time": 96.599, "note_off_time": 97.601}, {"pitch": 64, "velocity": 40, "note_on_time": 96.6, "note_off_time": 97.602}, {"pitch": 67, "velocity": 40, "note_on_time": 96.6, "note_off_time": 97.602}, {"pitch": 76, "velocity": 40, "note_on_time": 98.603, "note_off_time": 99.606}, {"pitch": 60, "velocity": 40, "note_on_time": 104.619, "note_off_time": 105.636}, {"pitch": 64, "velocity": 40, "note_on_time": 104.62, "note_off_time": 105.637}, {"pitch": 67, "velocity": 40, "note_on_time": 104.62, "note_off_time": 105.637}, {"pitch": 77, "velocity": 40, "note_on_time": 106.644, "note_off_time": 107.648}, {"pitch": 60, "velocity": 40, "note_on_time": 112.654, "note_off_time": 113.665}, {"pitch": 64, "velocity": 40, "note_on_time": 112.654, "note_off_time": 113.666}, {"pitch": 67, "velocity": 40, "note_on_time": 112.655, "note_off_time": 113.667}, {"pitch": 74, "velocity": 40, "note_on_time": 114.675, "note_off_time": 115.686}, {"pitch": 60, "velocity": 40, "note_on_time": 120.689, "note_off_time": 121.706}, {"pitch": 64, "velocity": 40, "note_on_time": 120.69, "note_off_time": 121.707}, {"pitch": 67, "velocity": 40, "note_on_time": 120.69, "note_off_time": 121.707}, {"pitch": 76, "velocity": 40, "note_on_time": 122.72, "note_off_time": 123.734}, {"pitch": 60, "velocity": 40, "note_on_time": 128.743, "note_off_time": 129.746}, {"pitch": 64, "velocity": 40, "note_on_time": 128.744, "note_off_time": 129.747}, {"pitch": 67, "velocity": 40, "note_on_time": 128.744, "note_off_time": 129.748}, {"pitch": 74, "velocity": 40, "note_on_time": 130.758, "note_off_time": 131.77}, {"pitch": 60, "velocity": 40, "note_on_time": 136.781, "note_off_time": 137.794}, {"pitch": 64, "velocity": 40, "note_on_time": 136.781, "note_off_time": 137.794}, {"pitch": 67, "velocity": 40, "note_on_time": 136.781, "note_off_time": 137.795}, {"pitch": 79, "velocity": 40, "note_on_time": 138.796, "note_off_time": 139.799}, {"pitch": 60, "velocity": 40, "note_on_time": 144.801, "note_off_time": 145.804}, {"pitch": 64, "velocity": 40, "note_on_time": 144.802, "note_off_time": 145.805}, {"pitch": 67, "velocity": 40, "note_on_time": 144.802, "note_off_time": 145.805}, {"pitch": 72, "velocity": 40, "note_on_time": 146.812, "note_off_time": 147.826}, {"pitch": 60, "velocity": 40, "note_on_time": 152.843, "note_off_time": 153.848}, {"pitch": 64, "velocity": 40, "note_on_time": 152.844, "note_off_time": 153.849}, {"pitch": 67, "velocity": 40, "note_on_time": 152.844, "note_off_time": 153.849}, {"pitch": 76, "velocity": 40, "note_on_time": 154.86, "note_off_time": 155.867}, {"pitch": 60, "velocity": 40, "note_on_time": 160.88, "note_off_time": 161.886}, {"pitch": 64, "velocity": 40, "note_on_time": 160.881, "note_off_time": 161.886}, {"pitch": 67, "velocity": 40, "note_on_time": 160.881, "note_off_time": 161.887}, {"pitch": 79, "velocity": 40, "note_on_time": 162.897, "note_off_time": 163.911}]</notes><options name="Option List">((4, 4), [0.5, 0.25], 3, 8, &lt;NoteRangePerHand.TWO_NOTES: 3&gt;, &lt;NoteRangePerHand.ONE_NOTE: 2&gt;, False, True, True, 100)</options></target_notes><trials><trial trial_no="1" timestamp="2023_06_19-12_19_38"><notes name="Played Notes">[{"pitch": 79, "velocity": 19, "note_on_time": 5.112, "note_off_time": 6.34}, {"pitch": 74, "velocity": 72, "note_on_time": 11.638, "note_off_time": 12.148}, {"pitch": 76, "velocity": 62, "note_on_time": 12.534, "note_off_time": 13.686}, {"pitch": 77, "velocity": 43, "note_on_time": 13.832, "note_off_time": 14.442}, {"pitch": 77, "velocity": 49, "note_on_time": 14.634, "note_off_time": 15.09}, {"pitch": 72, "velocity": 57, "note_on_time": 20.066, "note_off_time": 21.475}, {"pitch": 74, "velocity": 38, "note_on_time": 28.035, "note_off_time": 28.414}, {"pitch": 76, "velocity": 11, "note_on_time": 29.159, "note_off_time": 29.518}, {"pitch": 77, "velocity": 45, "note_on_time": 29.814, "note_off_time": 30.327}, {"pitch": 79, "velocity": 65, "note_on_time": 30.624, "note_off_time": 32.132}, {"pitch": 74, "velocity": 40, "note_on_time": 36.209, "note_off_time": 36.575}, {"pitch": 76, "velocity": 54, "note_on_time": 37.119, "note_off_time": 38.331}, {"pitch": 77, "velocity": 35, "note_on_time": 38.556, "note_off_time": 39.058}, {"pitch": 74, "velocity": 32, "note_on_time": 43.744, "note_off_time": 44.601}, {"pitch": 76, "velocity": 52, "note_on_time": 52.002, "note_off_time": 53.261}, {"pitch": 77, "velocity": 1, "note_on_time": 60.322, "note_off_time": 61.584}, {"pitch": 72, "velocity": 35, "note_on_time": 68.096, "note_off_time": 69.138}, {"pitch": 74, "velocity": 35, "note_on_time": 75.625, "note_off_time": 76.608}, {"pitch": 79, "velocity": 57, "note_on_time": 83.79, "note_off_time": 84.686}, {"pitch": 72, "velocity": 44, "note_on_time": 92.029, "note_off_time": 93.232}, {"pitch": 74, "velocity": 45, "note_on_time": 99.721, "note_off_time": 100.153}, {"pitch": 76, "velocity": 20, "note_on_time": 100.741, "note_off_time": 101.963}, {"pitch": 77, "velocity": 1, "note_on_time": 107.893, "note_off_time": 108.821}, {"pitch": 74, "velocity": 34, "note_on_time": 115.804, "note_off_time": 116.836}, {"pitch": 76, "velocity": 55, "note_on_time": 124.236, "note_off_time": 125.324}, {"pitch": 74, "velocity": 31, "note_on_time": 132.333, "note_off_time": 133.333}, {"pitch": 79, "velocity": 49, "note_on_time": 139.925, "note_off_time": 141.19}, {"pitch": 72, "velocity": 38, "note_on_time": 148.02, "note_off_time": 148.963}, {"pitch": 74, "velocity": 41, "note_on_time": 156.189, "note_off_time": 156.602}, {"pitch": 76, "velocity": 61, "note_on_time": 157.114, "note_off_time": 158.439}]</notes><guidance name="Guidance Mode">None</guidance><error name="Error value">99</error></trial></trials></MIDI>