<MIDI midiNo="2023_06_11-10_41_17"><target_notes><notes name="Note List">[{"pitch": 60, "velocity": 40, "note_on_time": 0.009, "note_off_time": 1.016}, {"pitch": 64, "velocity": 40, "note_on_time": 0.009, "note_off_time": 1.017}, {"pitch": 67, "velocity": 40, "note_on_time": 0.009, "note_off_time": 1.017}, {"pitch": 48, "velocity": 40, "note_on_time": 0.009, "note_off_time": 1.018}, {"pitch": 52, "velocity": 40, "note_on_time": 1.018, "note_off_time": 2.026}, {"pitch": 55, "velocity": 40, "note_on_time": 1.018, "note_off_time": 2.027}, {"pitch": 77, "velocity": 40, "note_on_time": 2.026, "note_off_time": 3.034}, {"pitch": 48, "velocity": 40, "note_on_time": 2.027, "note_off_time": 3.034}, {"pitch": 52, "velocity": 40, "note_on_time": 3.034, "note_off_time": 4.041}, {"pitch": 55, "velocity": 40, "note_on_time": 3.034, "note_off_time": 4.041}, {"pitch": 48, "velocity": 40, "note_on_time": 4.041, "note_off_time": 5.048}, {"pitch": 52, "velocity": 40, "note_on_time": 5.048, "note_off_time": 6.064}, {"pitch": 55, "velocity": 40, "note_on_time": 5.048, "note_off_time": 6.064}, {"pitch": 48, "velocity": 40, "note_on_time": 6.064, "note_off_time": 7.072}, {"pitch": 52, "velocity": 40, "note_on_time": 7.072, "note_off_time": 8.094}, {"pitch": 55, "velocity": 40, "note_on_time": 7.072, "note_off_time": 8.094}, {"pitch": 60, "velocity": 40, "note_on_time": 8.092, "note_off_time": 9.107}, {"pitch": 64, "velocity": 40, "note_on_time": 8.093, "note_off_time": 9.107}, {"pitch": 67, "velocity": 40, "note_on_time": 8.094, "note_off_time": 9.107}, {"pitch": 48, "velocity": 40, "note_on_time": 8.094, "note_off_time": 9.107}, {"pitch": 52, "velocity": 40, "note_on_time": 9.107, "note_off_time": 10.123}, {"pitch": 55, "velocity": 40, "note_on_time": 9.107, "note_off_time": 10.123}, {"pitch": 76, "velocity": 40, "note_on_time": 10.123, "note_off_time": 11.126}, {"pitch": 48, "velocity": 40, "note_on_time": 10.123, "note_off_time": 11.126}, {"pitch": 52, "velocity": 40, "note_on_time": 11.126, "note_off_time": 12.139}, {"pitch": 55, "velocity": 40, "note_on_time": 11.126, "note_off_time": 12.139}, {"pitch": 48, "velocity": 40, "note_on_time": 12.139, "note_off_time": 13.151}, {"pitch": 52, "velocity": 40, "note_on_time": 13.151, "note_off_time": 14.16}, {"pitch": 55, "velocity": 40, "note_on_time": 13.151, "note_off_time": 14.16}, {"pitch": 48, "velocity": 40, "note_on_time": 14.16, "note_off_time": 15.166}, {"pitch": 52, "velocity": 40, "note_on_time": 15.166, "note_off_time": 16.169}, {"pitch": 55, "velocity": 40, "note_on_time": 15.166, "note_off_time": 16.169}, {"pitch": 60, "velocity": 40, "note_on_time": 16.168, "note_off_time": 17.186}, {"pitch": 64, "velocity": 40, "note_on_time": 16.168, "note_off_time": 17.187}, {"pitch": 67, "velocity": 40, "note_on_time": 16.169, "note_off_time": 17.188}, {"pitch": 48, "velocity": 40, "note_on_time": 16.169, "note_off_time": 17.188}, {"pitch": 52, "velocity": 40, "note_on_time": 17.188, "note_off_time": 18.2}, {"pitch": 55, "velocity": 40, "note_on_time": 17.188, "note_off_time": 18.201}, {"pitch": 77, "velocity": 40, "note_on_time": 18.2, "note_off_time": 19.21}, {"pitch": 48, "velocity": 40, "note_on_time": 18.201, "note_off_time": 19.211}, {"pitch": 52, "velocity": 40, "note_on_time": 19.211, "note_off_time": 20.214}, {"pitch": 55, "velocity": 40, "note_on_time": 19.211, "note_off_time": 20.214}, {"pitch": 48, "velocity": 40, "note_on_time": 20.214, "note_off_time": 21.234}, {"pitch": 52, "velocity": 40, "note_on_time": 21.234, "note_off_time": 22.245}, {"pitch": 55, "velocity": 40, "note_on_time": 21.234, "note_off_time": 22.245}, {"pitch": 48, "velocity": 40, "note_on_time": 22.245, "note_off_time": 23.251}, {"pitch": 52, "velocity": 40, "note_on_time": 23.251, "note_off_time": 24.266}, {"pitch": 55, "velocity": 40, "note_on_time": 23.251, "note_off_time": 24.266}, {"pitch": 60, "velocity": 40, "note_on_time": 24.265, "note_off_time": 25.269}, {"pitch": 64, "velocity": 40, "note_on_time": 24.266, "note_off_time": 25.27}, {"pitch": 67, "velocity": 40, "note_on_time": 24.266, "note_off_time": 25.271}, {"pitch": 48, "velocity": 40, "note_on_time": 24.266, "note_off_time": 25.271}, {"pitch": 52, "velocity": 40, "note_on_time": 25.271, "note_off_time": 26.287}, {"pitch": 55, "velocity": 40, "note_on_time": 25.271, "note_off_time": 26.287}, {"pitch": 76, "velocity": 40, "note_on_time": 26.286, "note_off_time": 27.294}, {"pitch": 48, "velocity": 40, "note_on_time": 26.287, "note_off_time": 27.295}, {"pitch": 52, "velocity": 40, "note_on_time": 27.295, "note_off_time": 28.302}, {"pitch": 55, "velocity": 40, "note_on_time": 27.295, "note_off_time": 28.302}, {"pitch": 48, "velocity": 40, "note_on_time": 28.302, "note_off_time": 29.314}, {"pitch": 52, "velocity": 40, "note_on_time": 29.314, "note_off_time": 30.321}, {"pitch": 55, "velocity": 40, "note_on_time": 29.314, "note_off_time": 30.321}, {"pitch": 48, "velocity": 40, "note_on_time": 30.321, "note_off_time": 31.325}, {"pitch": 52, "velocity": 40, "note_on_time": 31.325, "note_off_time": 32.342}, {"pitch": 55, "velocity": 40, "note_on_time": 31.325, "note_off_time": 32.342}, {"pitch": 60, "velocity": 40, "note_on_time": 32.34, "note_off_time": 33.351}, {"pitch": 64, "velocity": 40, "note_on_time": 32.341, "note_off_time": 33.352}, {"pitch": 67, "velocity": 40, "note_on_time": 32.342, "note_off_time": 33.353}, {"pitch": 48, "velocity": 40, "note_on_time": 32.342, "note_off_time": 33.353}, {"pitch": 52, "velocity": 40, "note_on_time": 33.353, "note_off_time": 34.362}, {"pitch": 55, "velocity": 40, "note_on_time": 33.353, "note_off_time": 34.363}, {"pitch": 79, "velocity": 40, "note_on_time": 34.362, "note_off_time": 35.374}, {"pitch": 48, "velocity": 40, "note_on_time": 34.363, "note_off_time": 35.374}, {"pitch": 52, "velocity": 40, "note_on_time": 35.375, "note_off_time": 36.381}, {"pitch": 55, "velocity": 40, "note_on_time": 35.375, "note_off_time": 36.381}, {"pitch": 48, "velocity": 40, "note_on_time": 36.381, "note_off_time": 37.396}, {"pitch": 52, "velocity": 40, "note_on_time": 37.396, "note_off_time": 38.41}, {"pitch": 55, "velocity": 40, "note_on_time": 37.396, "note_off_time": 38.41}, {"pitch": 48, "velocity": 40, "note_on_time": 38.41, "note_off_time": 39.424}, {"pitch": 52, "velocity": 40, "note_on_time": 39.424, "note_off_time": 40.436}, {"pitch": 55, "velocity": 40, "note_on_time": 39.424, "note_off_time": 40.436}, {"pitch": 60, "velocity": 40, "note_on_time": 40.435, "note_off_time": 41.439}, {"pitch": 64, "velocity": 40, "note_on_time": 40.436, "note_off_time": 41.439}, {"pitch": 67, "velocity": 40, "note_on_time": 40.436, "note_off_time": 41.44}, {"pitch": 76, "velocity": 40, "note_on_time": 42.463, "note_off_time": 43.468}, {"pitch": 60, "velocity": 40, "note_on_time": 48.483, "note_off_time": 49.491}, {"pitch": 64, "velocity": 40, "note_on_time": 48.484, "note_off_time": 49.492}, {"pitch": 67, "velocity": 40, "note_on_time": 48.484, "note_off_time": 49.493}, {"pitch": 74, "velocity": 40, "note_on_time": 50.505, "note_off_time": 51.521}, {"pitch": 60, "velocity": 40, "note_on_time": 56.531, "note_off_time": 57.542}, {"pitch": 64, "velocity": 40, "note_on_time": 56.532, "note_off_time": 57.543}, {"pitch": 67, "velocity": 40, "note_on_time": 56.532, "note_off_time": 57.543}, {"pitch": 72, "velocity": 40, "note_on_time": 58.552, "note_off_time": 59.563}, {"pitch": 60, "velocity": 40, "note_on_time": 64.57, "note_off_time": 65.578}, {"pitch": 64, "velocity": 40, "note_on_time": 64.57, "note_off_time": 65.58}, {"pitch": 67, "velocity": 40, "note_on_time": 64.571, "note_off_time": 65.58}, {"pitch": 77, "velocity": 40, "note_on_time": 66.595, "note_off_time": 67.605}, {"pitch": 60, "velocity": 40, "note_on_time": 72.609, "note_off_time": 73.622}, {"pitch": 64, "velocity": 40, "note_on_time": 72.609, "note_off_time": 73.623}, {"pitch": 67, "velocity": 40, "note_on_time": 72.609, "note_off_time": 73.623}, {"pitch": 74, "velocity": 40, "note_on_time": 74.632, "note_off_time": 75.646}, {"pitch": 60, "velocity": 40, "note_on_time": 80.655, "note_off_time": 81.667}, {"pitch": 64, "velocity": 40, "note_on_time": 80.656, "note_off_time": 81.668}, {"pitch": 67, "velocity": 40, "note_on_time": 80.656, "note_off_time": 81.668}, {"pitch": 72, "velocity": 40, "note_on_time": 82.671, "note_off_time": 83.679}, {"pitch": 60, "velocity": 40, "note_on_time": 88.687, "note_off_time": 89.694}, {"pitch": 64, "velocity": 40, "note_on_time": 88.688, "note_off_time": 89.694}, {"pitch": 67, "velocity": 40, "note_on_time": 88.688, "note_off_time": 89.695}, {"pitch": 79, "velocity": 40, "note_on_time": 90.705, "note_off_time": 91.715}, {"pitch": 60, "velocity": 40, "note_on_time": 96.721, "note_off_time": 97.726}, {"pitch": 64, "velocity": 40, "note_on_time": 96.721, "note_off_time": 97.727}, {"pitch": 67, "velocity": 40, "note_on_time": 96.722, "note_off_time": 97.727}, {"pitch": 72, "velocity": 40, "note_on_time": 98.736, "note_off_time": 99.75}, {"pitch": 60, "velocity": 40, "note_on_time": 104.755, "note_off_time": 105.769}, {"pitch": 64, "velocity": 40, "note_on_time": 104.755, "note_off_time": 105.77}, {"pitch": 67, "velocity": 40, "note_on_time": 104.756, "note_off_time": 105.77}, {"pitch": 77, "velocity": 40, "note_on_time": 106.778, "note_off_time": 107.784}, {"pitch": 60, "velocity": 40, "note_on_time": 112.793, "note_off_time": 113.796}, {"pitch": 64, "velocity": 40, "note_on_time": 112.794, "note_off_time": 113.797}, {"pitch": 67, "velocity": 40, "note_on_time": 112.795, "note_off_time": 113.798}, {"pitch": 79, "velocity": 40, "note_on_time": 114.813, "note_off_time": 115.819}, {"pitch": 60, "velocity": 40, "note_on_time": 120.834, "note_off_time": 121.847}, {"pitch": 64, "velocity": 40, "note_on_time": 120.835, "note_off_time": 121.848}, {"pitch": 67, "velocity": 40, "note_on_time": 120.835, "note_off_time": 121.849}, {"pitch": 74, "velocity": 40, "note_on_time": 122.856, "note_off_time": 123.867}, {"pitch": 60, "velocity": 40, "note_on_time": 128.869, "note_off_time": 129.877}, {"pitch": 64, "velocity": 40, "note_on_time": 128.869, "note_off_time": 129.878}, {"pitch": 67, "velocity": 40, "note_on_time": 128.87, "note_off_time": 129.879}, {"pitch": 76, "velocity": 40, "note_on_time": 130.88, "note_off_time": 131.893}, {"pitch": 60, "velocity": 40, "note_on_time": 136.903, "note_off_time": 137.921}, {"pitch": 64, "velocity": 40, "note_on_time": 136.903, "note_off_time": 137.922}, {"pitch": 67, "velocity": 40, "note_on_time": 136.904, "note_off_time": 137.923}, {"pitch": 72, "velocity": 40, "note_on_time": 138.932, "note_off_time": 139.936}, {"pitch": 60, "velocity": 40, "note_on_time": 144.941, "note_off_time": 145.947}, {"pitch": 64, "velocity": 40, "note_on_time": 144.941, "note_off_time": 145.948}, {"pitch": 67, "velocity": 40, "note_on_time": 144.942, "note_off_time": 145.948}, {"pitch": 79, "velocity": 40, "note_on_time": 146.955, "note_off_time": 147.963}, {"pitch": 60, "velocity": 40, "note_on_time": 152.965, "note_off_time": 153.973}, {"pitch": 64, "velocity": 40, "note_on_time": 152.965, "note_off_time": 153.974}, {"pitch": 67, "velocity": 40, "note_on_time": 152.966, "note_off_time": 153.975}, {"pitch": 74, "velocity": 40, "note_on_time": 154.988, "note_off_time": 156.001}, {"pitch": 60, "velocity": 40, "note_on_time": 161.007, "note_off_time": 162.02}, {"pitch": 64, "velocity": 40, "note_on_time": 161.008, "note_off_time": 162.021}, {"pitch": 67, "velocity": 40, "note_on_time": 161.008, "note_off_time": 162.022}, {"pitch": 77, "velocity": 40, "note_on_time": 163.029, "note_off_time": 164.043}]</notes><options name="Option List">((4, 4), [0.5, 0.25], 3, 8, &lt;NoteRangePerHand.TWO_NOTES: 3&gt;, &lt;NoteRangePerHand.ONE_NOTE: 2&gt;, False, True, True, 100)</options></target_notes><trials><trial trial_no="1" timestamp="2023_06_11-10_38_33"><notes name="Played Notes">[{"pitch": 72, "velocity": 73, "note_on_time": 2.922, "note_off_time": 3.683}, {"pitch": 76, "velocity": 79, "note_on_time": 2.937, "note_off_time": 3.711}, {"pitch": 79, "velocity": 56, "note_on_time": 4.752, "note_off_time": 5.236}, {"pitch": 72, "velocity": 65, "note_on_time": 9.676, "note_off_time": 10.256}, {"pitch": 76, "velocity": 69, "note_on_time": 9.671, "note_off_time": 10.286}, {"pitch": 72, "velocity": 49, "note_on_time": 18.011, "note_off_time": 18.793}, {"pitch": 76, "velocity": 52, "note_on_time": 18.007, "note_off_time": 18.808}, {"pitch": 74, "velocity": 58, "note_on_time": 26.083, "note_off_time": 26.71}, {"pitch": 77, "velocity": 56, "note_on_time": 26.085, "note_off_time": 26.713}, {"pitch": 77, "velocity": 62, "note_on_time": 28.178, "note_off_time": 28.972}, {"pitch": 72, "velocity": 55, "note_on_time": 28.183, "note_off_time": 28.987}, {"pitch": 72, "velocity": 57, "note_on_time": 33.519, "note_off_time": 34.27}, {"pitch": 77, "velocity": 72, "note_on_time": 33.536, "note_off_time": 34.366}, {"pitch": 79, "velocity": 67, "note_on_time": 35.758, "note_off_time": 36.125}, {"pitch": 77, "velocity": 68, "note_on_time": 42.496, "note_off_time": 42.933}, {"pitch": 72, "velocity": 57, "note_on_time": 42.501, "note_off_time": 42.986}, {"pitch": 76, "velocity": 66, "note_on_time": 43.623, "note_off_time": 44.1}, {"pitch": 72, "velocity": 53, "note_on_time": 43.631, "note_off_time": 44.139}, {"pitch": 77, "velocity": 85, "note_on_time": 44.597, "note_off_time": 45.385}, {"pitch": 72, "velocity": 61, "note_on_time": 44.597, "note_off_time": 45.387}, {"pitch": 72, "velocity": 54, "note_on_time": 50.514, "note_off_time": 51.556}, {"pitch": 77, "velocity": 57, "note_on_time": 50.498, "note_off_time": 51.657}, {"pitch": 77, "velocity": 43, "note_on_time": 52.291, "note_off_time": 52.406}, {"pitch": 79, "velocity": 71, "note_on_time": 52.207, "note_off_time": 53.042}, {"pitch": 77, "velocity": 77, "note_on_time": 59.188, "note_off_time": 59.767}, {"pitch": 72, "velocity": 65, "note_on_time": 59.193, "note_off_time": 59.771}, {"pitch": 79, "velocity": 74, "note_on_time": 60.271, "note_off_time": 60.836}, {"pitch": 77, "velocity": 55, "note_on_time": 67.571, "note_off_time": 68.178}, {"pitch": 76, "velocity": 46, "note_on_time": 67.603, "note_off_time": 68.215}, {"pitch": 74, "velocity": 55, "note_on_time": 67.562, "note_off_time": 68.276}, {"pitch": 79, "velocity": 40, "note_on_time": 69.002, "note_off_time": 69.503}, {"pitch": 72, "velocity": 49, "note_on_time": 75.582, "note_off_time": 76.225}, {"pitch": 76, "velocity": 42, "note_on_time": 75.588, "note_off_time": 76.251}, {"pitch": 79, "velocity": 30, "note_on_time": 77.183, "note_off_time": 77.927}, {"pitch": 72, "velocity": 61, "note_on_time": 83.37, "note_off_time": 83.908}, {"pitch": 76, "velocity": 29, "note_on_time": 83.361, "note_off_time": 83.949}, {"pitch": 79, "velocity": 50, "note_on_time": 84.298, "note_off_time": 85.25}, {"pitch": 79, "velocity": 30, "note_on_time": 91.777, "note_off_time": 92.532}, {"pitch": 76, "velocity": 64, "note_on_time": 93.534, "note_off_time": 93.931}, {"pitch": 76, "velocity": 56, "note_on_time": 99.831, "note_off_time": 100.44}, {"pitch": 79, "velocity": 68, "note_on_time": 101.131, "note_off_time": 101.637}, {"pitch": 76, "velocity": 59, "note_on_time": 107.736, "note_off_time": 108.248}, {"pitch": 79, "velocity": 60, "note_on_time": 108.7, "note_off_time": 109.329}, {"pitch": 74, "velocity": 66, "note_on_time": 114.287, "note_off_time": 114.858}, {"pitch": 72, "velocity": 55, "note_on_time": 122.541, "note_off_time": 123.036}, {"pitch": 77, "velocity": 68, "note_on_time": 128.793, "note_off_time": 129.825}, {"pitch": 74, "velocity": 50, "note_on_time": 128.771, "note_off_time": 129.835}, {"pitch": 76, "velocity": 59, "note_on_time": 128.794, "note_off_time": 129.845}, {"pitch": 79, "velocity": 53, "note_on_time": 132.196, "note_off_time": 132.56}, {"pitch": 77, "velocity": 39, "note_on_time": 138.047, "note_off_time": 138.939}, {"pitch": 76, "velocity": 53, "note_on_time": 138.093, "note_off_time": 138.959}, {"pitch": 74, "velocity": 55, "note_on_time": 138.092, "note_off_time": 138.969}, {"pitch": 77, "velocity": 65, "note_on_time": 146.78, "note_off_time": 147.543}, {"pitch": 76, "velocity": 68, "note_on_time": 146.783, "note_off_time": 147.553}, {"pitch": 74, "velocity": 72, "note_on_time": 146.769, "note_off_time": 147.561}, {"pitch": 77, "velocity": 64, "note_on_time": 154.862, "note_off_time": 155.651}, {"pitch": 74, "velocity": 60, "note_on_time": 154.839, "note_off_time": 155.674}, {"pitch": 76, "velocity": 65, "note_on_time": 154.863, "note_off_time": 155.716}, {"pitch": 77, "velocity": 51, "note_on_time": 162.882, "note_off_time": 163.604}, {"pitch": 74, "velocity": 62, "note_on_time": 162.863, "note_off_time": 163.64}, {"pitch": 76, "velocity": 64, "note_on_time": 162.865, "note_off_time": 163.655}]</notes><guidance name="Guidance Mode">None</guidance><error name="Error value">99</error></trial></trials></MIDI>