<MIDI midiNo="2023_06_19-11_22_42"><target_notes><notes name="Note List">[{"pitch": 60, "velocity": 40, "note_on_time": 0.01, "note_off_time": 1.015}, {"pitch": 64, "velocity": 40, "note_on_time": 0.01, "note_off_time": 1.016}, {"pitch": 67, "velocity": 40, "note_on_time": 0.01, "note_off_time": 1.016}, {"pitch": 48, "velocity": 40, "note_on_time": 0.01, "note_off_time": 1.016}, {"pitch": 52, "velocity": 40, "note_on_time": 1.016, "note_off_time": 2.024}, {"pitch": 55, "velocity": 40, "note_on_time": 1.016, "note_off_time": 2.025}, {"pitch": 72, "velocity": 40, "note_on_time": 2.023, "note_off_time": 3.03}, {"pitch": 48, "velocity": 40, "note_on_time": 2.025, "note_off_time": 3.031}, {"pitch": 52, "velocity": 40, "note_on_time": 3.031, "note_off_time": 4.041}, {"pitch": 55, "velocity": 40, "note_on_time": 3.031, "note_off_time": 4.041}, {"pitch": 48, "velocity": 40, "note_on_time": 4.041, "note_off_time": 5.055}, {"pitch": 52, "velocity": 40, "note_on_time": 5.055, "note_off_time": 6.063}, {"pitch": 55, "velocity": 40, "note_on_time": 5.055, "note_off_time": 6.063}, {"pitch": 48, "velocity": 40, "note_on_time": 6.063, "note_off_time": 7.064}, {"pitch": 52, "velocity": 40, "note_on_time": 7.064, "note_off_time": 8.076}, {"pitch": 55, "velocity": 40, "note_on_time": 7.064, "note_off_time": 8.076}, {"pitch": 60, "velocity": 40, "note_on_time": 8.075, "note_off_time": 9.087}, {"pitch": 64, "velocity": 40, "note_on_time": 8.075, "note_off_time": 9.087}, {"pitch": 67, "velocity": 40, "note_on_time": 8.076, "note_off_time": 9.088}, {"pitch": 48, "velocity": 40, "note_on_time": 8.076, "note_off_time": 9.088}, {"pitch": 52, "velocity": 40, "note_on_time": 9.088, "note_off_time": 10.089}, {"pitch": 55, "velocity": 40, "note_on_time": 9.088, "note_off_time": 10.089}, {"pitch": 74, "velocity": 40, "note_on_time": 10.089, "note_off_time": 11.101}, {"pitch": 48, "velocity": 40, "note_on_time": 10.089, "note_off_time": 11.101}, {"pitch": 52, "velocity": 40, "note_on_time": 11.101, "note_off_time": 12.115}, {"pitch": 55, "velocity": 40, "note_on_time": 11.101, "note_off_time": 12.115}, {"pitch": 48, "velocity": 40, "note_on_time": 12.115, "note_off_time": 13.116}, {"pitch": 52, "velocity": 40, "note_on_time": 13.116, "note_off_time": 14.121}, {"pitch": 55, "velocity": 40, "note_on_time": 13.116, "note_off_time": 14.121}, {"pitch": 48, "velocity": 40, "note_on_time": 14.121, "note_off_time": 15.135}, {"pitch": 52, "velocity": 40, "note_on_time": 15.135, "note_off_time": 16.147}, {"pitch": 55, "velocity": 40, "note_on_time": 15.135, "note_off_time": 16.147}, {"pitch": 60, "velocity": 40, "note_on_time": 16.145, "note_off_time": 17.158}, {"pitch": 64, "velocity": 40, "note_on_time": 16.146, "note_off_time": 17.159}, {"pitch": 67, "velocity": 40, "note_on_time": 16.146, "note_off_time": 17.16}, {"pitch": 48, "velocity": 40, "note_on_time": 16.148, "note_off_time": 17.16}, {"pitch": 52, "velocity": 40, "note_on_time": 17.16, "note_off_time": 18.17}, {"pitch": 55, "velocity": 40, "note_on_time": 17.16, "note_off_time": 18.171}, {"pitch": 79, "velocity": 40, "note_on_time": 18.17, "note_off_time": 19.181}, {"pitch": 48, "velocity": 40, "note_on_time": 18.171, "note_off_time": 19.182}, {"pitch": 52, "velocity": 40, "note_on_time": 19.182, "note_off_time": 20.191}, {"pitch": 55, "velocity": 40, "note_on_time": 19.182, "note_off_time": 20.191}, {"pitch": 48, "velocity": 40, "note_on_time": 20.191, "note_off_time": 21.197}, {"pitch": 52, "velocity": 40, "note_on_time": 21.197, "note_off_time": 22.212}, {"pitch": 55, "velocity": 40, "note_on_time": 21.197, "note_off_time": 22.212}, {"pitch": 48, "velocity": 40, "note_on_time": 22.212, "note_off_time": 23.223}, {"pitch": 52, "velocity": 40, "note_on_time": 23.223, "note_off_time": 24.24}, {"pitch": 55, "velocity": 40, "note_on_time": 23.223, "note_off_time": 24.24}, {"pitch": 60, "velocity": 40, "note_on_time": 24.239, "note_off_time": 25.255}, {"pitch": 64, "velocity": 40, "note_on_time": 24.24, "note_off_time": 25.256}, {"pitch": 67, "velocity": 40, "note_on_time": 24.24, "note_off_time": 25.256}, {"pitch": 48, "velocity": 40, "note_on_time": 24.24, "note_off_time": 25.257}, {"pitch": 52, "velocity": 40, "note_on_time": 25.257, "note_off_time": 26.272}, {"pitch": 55, "velocity": 40, "note_on_time": 25.257, "note_off_time": 26.273}, {"pitch": 76, "velocity": 40, "note_on_time": 26.272, "note_off_time": 27.282}, {"pitch": 48, "velocity": 40, "note_on_time": 26.273, "note_off_time": 27.282}, {"pitch": 52, "velocity": 40, "note_on_time": 27.282, "note_off_time": 28.29}, {"pitch": 55, "velocity": 40, "note_on_time": 27.282, "note_off_time": 28.29}, {"pitch": 48, "velocity": 40, "note_on_time": 28.29, "note_off_time": 29.302}, {"pitch": 52, "velocity": 40, "note_on_time": 29.302, "note_off_time": 30.313}, {"pitch": 55, "velocity": 40, "note_on_time": 29.302, "note_off_time": 30.313}, {"pitch": 48, "velocity": 40, "note_on_time": 30.313, "note_off_time": 31.325}, {"pitch": 52, "velocity": 40, "note_on_time": 31.325, "note_off_time": 32.336}, {"pitch": 55, "velocity": 40, "note_on_time": 31.325, "note_off_time": 32.336}, {"pitch": 60, "velocity": 40, "note_on_time": 32.334, "note_off_time": 33.342}, {"pitch": 64, "velocity": 40, "note_on_time": 32.335, "note_off_time": 33.343}, {"pitch": 67, "velocity": 40, "note_on_time": 32.335, "note_off_time": 33.343}, {"pitch": 48, "velocity": 40, "note_on_time": 32.336, "note_off_time": 33.343}, {"pitch": 52, "velocity": 40, "note_on_time": 33.343, "note_off_time": 34.353}, {"pitch": 55, "velocity": 40, "note_on_time": 33.345, "note_off_time": 34.353}, {"pitch": 79, "velocity": 40, "note_on_time": 34.353, "note_off_time": 35.368}, {"pitch": 48, "velocity": 40, "note_on_time": 34.353, "note_off_time": 35.368}, {"pitch": 52, "velocity": 40, "note_on_time": 35.368, "note_off_time": 36.376}, {"pitch": 55, "velocity": 40, "note_on_time": 35.368, "note_off_time": 36.376}, {"pitch": 48, "velocity": 40, "note_on_time": 36.376, "note_off_time": 37.38}, {"pitch": 52, "velocity": 40, "note_on_time": 37.38, "note_off_time": 38.381}, {"pitch": 55, "velocity": 40, "note_on_time": 37.38, "note_off_time": 38.381}, {"pitch": 48, "velocity": 40, "note_on_time": 38.381, "note_off_time": 39.385}, {"pitch": 52, "velocity": 40, "note_on_time": 39.385, "note_off_time": 40.399}, {"pitch": 55, "velocity": 40, "note_on_time": 39.385, "note_off_time": 40.4}, {"pitch": 60, "velocity": 40, "note_on_time": 40.398, "note_off_time": 41.408}, {"pitch": 64, "velocity": 40, "note_on_time": 40.399, "note_off_time": 41.409}, {"pitch": 67, "velocity": 40, "note_on_time": 40.399, "note_off_time": 41.409}, {"pitch": 74, "velocity": 40, "note_on_time": 42.428, "note_off_time": 43.442}, {"pitch": 60, "velocity": 40, "note_on_time": 48.448, "note_off_time": 49.453}, {"pitch": 64, "velocity": 40, "note_on_time": 48.449, "note_off_time": 49.453}, {"pitch": 67, "velocity": 40, "note_on_time": 48.449, "note_off_time": 49.454}, {"pitch": 76, "velocity": 40, "note_on_time": 50.465, "note_off_time": 51.467}, {"pitch": 60, "velocity": 40, "note_on_time": 56.471, "note_off_time": 57.477}, {"pitch": 64, "velocity": 40, "note_on_time": 56.472, "note_off_time": 57.478}, {"pitch": 67, "velocity": 40, "note_on_time": 56.472, "note_off_time": 57.478}, {"pitch": 77, "velocity": 40, "note_on_time": 58.492, "note_off_time": 59.503}, {"pitch": 60, "velocity": 40, "note_on_time": 64.514, "note_off_time": 65.527}, {"pitch": 64, "velocity": 40, "note_on_time": 64.515, "note_off_time": 65.528}, {"pitch": 67, "velocity": 40, "note_on_time": 64.516, "note_off_time": 65.528}, {"pitch": 74, "velocity": 40, "note_on_time": 66.542, "note_off_time": 67.549}, {"pitch": 60, "velocity": 40, "note_on_time": 72.555, "note_off_time": 73.571}, {"pitch": 64, "velocity": 40, "note_on_time": 72.555, "note_off_time": 73.573}, {"pitch": 67, "velocity": 40, "note_on_time": 72.556, "note_off_time": 73.574}, {"pitch": 77, "velocity": 40, "note_on_time": 74.579, "note_off_time": 75.592}, {"pitch": 60, "velocity": 40, "note_on_time": 80.606, "note_off_time": 81.614}, {"pitch": 64, "velocity": 40, "note_on_time": 80.608, "note_off_time": 81.615}, {"pitch": 67, "velocity": 40, "note_on_time": 80.608, "note_off_time": 81.616}, {"pitch": 76, "velocity": 40, "note_on_time": 82.625, "note_off_time": 83.639}, {"pitch": 60, "velocity": 40, "note_on_time": 88.651, "note_off_time": 89.667}, {"pitch": 64, "velocity": 40, "note_on_time": 88.652, "note_off_time": 89.668}, {"pitch": 67, "velocity": 40, "note_on_time": 88.653, "note_off_time": 89.668}, {"pitch": 74, "velocity": 40, "note_on_time": 90.675, "note_off_time": 91.69}, {"pitch": 60, "velocity": 40, "note_on_time": 96.697, "note_off_time": 97.711}, {"pitch": 64, "velocity": 40, "note_on_time": 96.697, "note_off_time": 97.711}, {"pitch": 67, "velocity": 40, "note_on_time": 96.698, "note_off_time": 97.712}, {"pitch": 72, "velocity": 40, "note_on_time": 98.719, "note_off_time": 99.731}, {"pitch": 60, "velocity": 40, "note_on_time": 104.735, "note_off_time": 105.737}, {"pitch": 64, "velocity": 40, "note_on_time": 104.736, "note_off_time": 105.738}, {"pitch": 67, "velocity": 40, "note_on_time": 104.737, "note_off_time": 105.738}, {"pitch": 77, "velocity": 40, "note_on_time": 106.745, "note_off_time": 107.756}, {"pitch": 60, "velocity": 40, "note_on_time": 112.772, "note_off_time": 113.786}, {"pitch": 64, "velocity": 40, "note_on_time": 112.772, "note_off_time": 113.787}, {"pitch": 67, "velocity": 40, "note_on_time": 112.773, "note_off_time": 113.788}, {"pitch": 72, "velocity": 40, "note_on_time": 114.796, "note_off_time": 115.798}, {"pitch": 60, "velocity": 40, "note_on_time": 120.801, "note_off_time": 121.815}, {"pitch": 64, "velocity": 40, "note_on_time": 120.801, "note_off_time": 121.816}, {"pitch": 67, "velocity": 40, "note_on_time": 120.802, "note_off_time": 121.817}, {"pitch": 79, "velocity": 40, "note_on_time": 122.828, "note_off_time": 123.831}, {"pitch": 60, "velocity": 40, "note_on_time": 128.847, "note_off_time": 129.855}, {"pitch": 64, "velocity": 40, "note_on_time": 128.849, "note_off_time": 129.856}, {"pitch": 67, "velocity": 40, "note_on_time": 128.849, "note_off_time": 129.857}, {"pitch": 77, "velocity": 40, "note_on_time": 130.861, "note_off_time": 131.867}, {"pitch": 60, "velocity": 40, "note_on_time": 136.879, "note_off_time": 137.889}, {"pitch": 64, "velocity": 40, "note_on_time": 136.88, "note_off_time": 137.89}, {"pitch": 67, "velocity": 40, "note_on_time": 136.88, "note_off_time": 137.89}, {"pitch": 79, "velocity": 40, "note_on_time": 138.898, "note_off_time": 139.91}, {"pitch": 60, "velocity": 40, "note_on_time": 144.925, "note_off_time": 145.938}, {"pitch": 64, "velocity": 40, "note_on_time": 144.926, "note_off_time": 145.939}, {"pitch": 67, "velocity": 40, "note_on_time": 144.926, "note_off_time": 145.939}, {"pitch": 72, "velocity": 40, "note_on_time": 146.954, "note_off_time": 147.963}, {"pitch": 60, "velocity": 40, "note_on_time": 152.972, "note_off_time": 153.989}, {"pitch": 64, "velocity": 40, "note_on_time": 152.973, "note_off_time": 153.99}, {"pitch": 67, "velocity": 40, "note_on_time": 152.973, "note_off_time": 153.991}, {"pitch": 76, "velocity": 40, "note_on_time": 155.0, "note_off_time": 156.016}, {"pitch": 60, "velocity": 40, "note_on_time": 161.022, "note_off_time": 162.035}, {"pitch": 64, "velocity": 40, "note_on_time": 161.023, "note_off_time": 162.036}, {"pitch": 67, "velocity": 40, "note_on_time": 161.024, "note_off_time": 162.036}, {"pitch": 72, "velocity": 40, "note_on_time": 163.046, "note_off_time": 164.058}]</notes><options name="Option List">((4, 4), [0.5, 0.25], 3, 8, &lt;NoteRangePerHand.TWO_NOTES: 3&gt;, &lt;NoteRangePerHand.ONE_NOTE: 2&gt;, False, True, True, 100)</options></target_notes><trials><trial trial_no="1" timestamp="2023_06_19-11_19_58"><notes name="Played Notes">[{"pitch": 74, "velocity": 34, "note_on_time": 4.161, "note_off_time": 4.718}, {"pitch": 72, "velocity": 49, "note_on_time": 5.177, "note_off_time": 6.185}, {"pitch": 77, "velocity": 50, "note_on_time": 12.423, "note_off_time": 13.035}, {"pitch": 76, "velocity": 41, "note_on_time": 13.685, "note_off_time": 14.498}, {"pitch": 79, "velocity": 44, "note_on_time": 20.018, "note_off_time": 21.371}, {"pitch": 77, "velocity": 46, "note_on_time": 28.19, "note_off_time": 28.698}, {"pitch": 76, "velocity": 45, "note_on_time": 29.136, "note_off_time": 30.649}, {"pitch": 79, "velocity": 37, "note_on_time": 36.392, "note_off_time": 37.671}, {"pitch": 74, "velocity": 13, "note_on_time": 44.481, "note_off_time": 45.824}, {"pitch": 76, "velocity": 39, "note_on_time": 52.429, "note_off_time": 53.961}, {"pitch": 77, "velocity": 44, "note_on_time": 60.602, "note_off_time": 61.909}, {"pitch": 74, "velocity": 22, "note_on_time": 68.79, "note_off_time": 70.198}, {"pitch": 76, "velocity": 23, "note_on_time": 77.049, "note_off_time": 77.463}, {"pitch": 77, "velocity": 47, "note_on_time": 77.808, "note_off_time": 78.783}, {"pitch": 77, "velocity": 9, "note_on_time": 84.507, "note_off_time": 84.976}, {"pitch": 76, "velocity": 35, "note_on_time": 85.313, "note_off_time": 86.601}, {"pitch": 74, "velocity": 32, "note_on_time": 92.97, "note_off_time": 94.539}, {"pitch": 72, "velocity": 14, "note_on_time": 101.019, "note_off_time": 102.526}, {"pitch": 77, "velocity": 50, "note_on_time": 108.984, "note_off_time": 110.385}, {"pitch": 72, "velocity": 35, "note_on_time": 117.312, "note_off_time": 118.626}, {"pitch": 79, "velocity": 33, "note_on_time": 124.743, "note_off_time": 126.419}, {"pitch": 76, "velocity": 64, "note_on_time": 134.192, "note_off_time": 134.557}, {"pitch": 77, "velocity": 50, "note_on_time": 134.9, "note_off_time": 136.152}, {"pitch": 79, "velocity": 23, "note_on_time": 140.8, "note_off_time": 142.577}, {"pitch": 74, "velocity": 31, "note_on_time": 149.112, "note_off_time": 149.439}, {"pitch": 72, "velocity": 39, "note_on_time": 149.744, "note_off_time": 151.56}, {"pitch": 77, "velocity": 26, "note_on_time": 157.61, "note_off_time": 158.026}, {"pitch": 76, "velocity": 52, "note_on_time": 158.321, "note_off_time": 160.105}]</notes><guidance name="Guidance Mode">None</guidance><error name="Error value">99</error></trial></trials></MIDI>