<MIDI midiNo="2023_06_06-11_08_00"><target_notes><notes name="Note List">[{"pitch": 60, "velocity": 40, "note_on_time": 0.012, "note_off_time": 1.027}, {"pitch": 64, "velocity": 40, "note_on_time": 0.013, "note_off_time": 1.028}, {"pitch": 67, "velocity": 40, "note_on_time": 0.013, "note_off_time": 1.028}, {"pitch": 48, "velocity": 40, "note_on_time": 0.013, "note_off_time": 1.028}, {"pitch": 52, "velocity": 40, "note_on_time": 1.028, "note_off_time": 2.041}, {"pitch": 55, "velocity": 40, "note_on_time": 1.029, "note_off_time": 2.042}, {"pitch": 76, "velocity": 40, "note_on_time": 2.041, "note_off_time": 3.052}, {"pitch": 48, "velocity": 40, "note_on_time": 2.042, "note_off_time": 3.052}, {"pitch": 52, "velocity": 40, "note_on_time": 3.053, "note_off_time": 4.068}, {"pitch": 55, "velocity": 40, "note_on_time": 3.053, "note_off_time": 4.068}, {"pitch": 48, "velocity": 40, "note_on_time": 4.069, "note_off_time": 5.074}, {"pitch": 52, "velocity": 40, "note_on_time": 5.074, "note_off_time": 6.079}, {"pitch": 55, "velocity": 40, "note_on_time": 5.074, "note_off_time": 6.079}, {"pitch": 48, "velocity": 40, "note_on_time": 6.079, "note_off_time": 7.094}, {"pitch": 52, "velocity": 40, "note_on_time": 7.094, "note_off_time": 8.108}, {"pitch": 55, "velocity": 40, "note_on_time": 7.094, "note_off_time": 8.109}, {"pitch": 60, "velocity": 40, "note_on_time": 8.107, "note_off_time": 9.11}, {"pitch": 64, "velocity": 40, "note_on_time": 8.108, "note_off_time": 9.11}, {"pitch": 67, "velocity": 40, "note_on_time": 8.108, "note_off_time": 9.11}, {"pitch": 48, "velocity": 40, "note_on_time": 8.109, "note_off_time": 9.111}, {"pitch": 52, "velocity": 40, "note_on_time": 9.111, "note_off_time": 10.118}, {"pitch": 55, "velocity": 40, "note_on_time": 9.111, "note_off_time": 10.119}, {"pitch": 72, "velocity": 40, "note_on_time": 10.118, "note_off_time": 11.132}, {"pitch": 48, "velocity": 40, "note_on_time": 10.119, "note_off_time": 11.132}, {"pitch": 52, "velocity": 40, "note_on_time": 11.132, "note_off_time": 12.139}, {"pitch": 55, "velocity": 40, "note_on_time": 11.132, "note_off_time": 12.139}, {"pitch": 48, "velocity": 40, "note_on_time": 12.139, "note_off_time": 13.141}, {"pitch": 52, "velocity": 40, "note_on_time": 13.141, "note_off_time": 14.143}, {"pitch": 55, "velocity": 40, "note_on_time": 13.141, "note_off_time": 14.143}, {"pitch": 48, "velocity": 40, "note_on_time": 14.143, "note_off_time": 15.15}, {"pitch": 52, "velocity": 40, "note_on_time": 15.15, "note_off_time": 16.165}, {"pitch": 55, "velocity": 40, "note_on_time": 15.15, "note_off_time": 16.166}, {"pitch": 60, "velocity": 40, "note_on_time": 16.164, "note_off_time": 17.177}, {"pitch": 64, "velocity": 40, "note_on_time": 16.165, "note_off_time": 17.178}, {"pitch": 67, "velocity": 40, "note_on_time": 16.165, "note_off_time": 17.178}, {"pitch": 48, "velocity": 40, "note_on_time": 16.166, "note_off_time": 17.178}, {"pitch": 52, "velocity": 40, "note_on_time": 17.179, "note_off_time": 18.189}, {"pitch": 55, "velocity": 40, "note_on_time": 17.179, "note_off_time": 18.19}, {"pitch": 77, "velocity": 40, "note_on_time": 18.189, "note_off_time": 19.199}, {"pitch": 48, "velocity": 40, "note_on_time": 18.19, "note_off_time": 19.2}, {"pitch": 52, "velocity": 40, "note_on_time": 19.2, "note_off_time": 20.205}, {"pitch": 55, "velocity": 40, "note_on_time": 19.2, "note_off_time": 20.205}, {"pitch": 48, "velocity": 40, "note_on_time": 20.205, "note_off_time": 21.228}, {"pitch": 52, "velocity": 40, "note_on_time": 21.228, "note_off_time": 22.24}, {"pitch": 55, "velocity": 40, "note_on_time": 21.228, "note_off_time": 22.24}, {"pitch": 48, "velocity": 40, "note_on_time": 22.24, "note_off_time": 23.242}, {"pitch": 52, "velocity": 40, "note_on_time": 23.242, "note_off_time": 24.246}, {"pitch": 55, "velocity": 40, "note_on_time": 23.242, "note_off_time": 24.246}, {"pitch": 60, "velocity": 40, "note_on_time": 24.245, "note_off_time": 25.259}, {"pitch": 64, "velocity": 40, "note_on_time": 24.245, "note_off_time": 25.26}, {"pitch": 67, "velocity": 40, "note_on_time": 24.246, "note_off_time": 25.26}, {"pitch": 48, "velocity": 40, "note_on_time": 24.246, "note_off_time": 25.26}, {"pitch": 52, "velocity": 40, "note_on_time": 25.26, "note_off_time": 26.27}, {"pitch": 55, "velocity": 40, "note_on_time": 25.26, "note_off_time": 26.27}, {"pitch": 74, "velocity": 40, "note_on_time": 26.27, "note_off_time": 27.278}, {"pitch": 48, "velocity": 40, "note_on_time": 26.27, "note_off_time": 27.278}, {"pitch": 52, "velocity": 40, "note_on_time": 27.279, "note_off_time": 28.288}, {"pitch": 55, "velocity": 40, "note_on_time": 27.279, "note_off_time": 28.288}, {"pitch": 48, "velocity": 40, "note_on_time": 28.288, "note_off_time": 29.303}, {"pitch": 52, "velocity": 40, "note_on_time": 29.303, "note_off_time": 30.315}, {"pitch": 55, "velocity": 40, "note_on_time": 29.303, "note_off_time": 30.315}, {"pitch": 48, "velocity": 40, "note_on_time": 30.315, "note_off_time": 31.324}, {"pitch": 52, "velocity": 40, "note_on_time": 31.324, "note_off_time": 32.337}, {"pitch": 55, "velocity": 40, "note_on_time": 31.324, "note_off_time": 32.337}, {"pitch": 60, "velocity": 40, "note_on_time": 32.336, "note_off_time": 33.339}, {"pitch": 64, "velocity": 40, "note_on_time": 32.337, "note_off_time": 33.34}, {"pitch": 67, "velocity": 40, "note_on_time": 32.337, "note_off_time": 33.341}, {"pitch": 48, "velocity": 40, "note_on_time": 32.338, "note_off_time": 33.341}, {"pitch": 52, "velocity": 40, "note_on_time": 33.341, "note_off_time": 34.347}, {"pitch": 55, "velocity": 40, "note_on_time": 33.341, "note_off_time": 34.347}, {"pitch": 77, "velocity": 40, "note_on_time": 34.346, "note_off_time": 35.353}, {"pitch": 48, "velocity": 40, "note_on_time": 34.347, "note_off_time": 35.353}, {"pitch": 52, "velocity": 40, "note_on_time": 35.354, "note_off_time": 36.358}, {"pitch": 55, "velocity": 40, "note_on_time": 35.354, "note_off_time": 36.358}, {"pitch": 48, "velocity": 40, "note_on_time": 36.358, "note_off_time": 37.365}, {"pitch": 52, "velocity": 40, "note_on_time": 37.365, "note_off_time": 38.376}, {"pitch": 55, "velocity": 40, "note_on_time": 37.365, "note_off_time": 38.376}, {"pitch": 48, "velocity": 40, "note_on_time": 38.376, "note_off_time": 39.39}, {"pitch": 52, "velocity": 40, "note_on_time": 39.39, "note_off_time": 40.404}, {"pitch": 55, "velocity": 40, "note_on_time": 39.39, "note_off_time": 40.405}, {"pitch": 60, "velocity": 40, "note_on_time": 40.403, "note_off_time": 41.41}, {"pitch": 64, "velocity": 40, "note_on_time": 40.404, "note_off_time": 41.412}, {"pitch": 67, "velocity": 40, "note_on_time": 40.404, "note_off_time": 41.412}, {"pitch": 79, "velocity": 40, "note_on_time": 42.413, "note_off_time": 43.416}, {"pitch": 60, "velocity": 40, "note_on_time": 48.423, "note_off_time": 49.433}, {"pitch": 64, "velocity": 40, "note_on_time": 48.424, "note_off_time": 49.434}, {"pitch": 67, "velocity": 40, "note_on_time": 48.424, "note_off_time": 49.434}, {"pitch": 74, "velocity": 40, "note_on_time": 50.455, "note_off_time": 51.466}, {"pitch": 60, "velocity": 40, "note_on_time": 56.476, "note_off_time": 57.49}, {"pitch": 64, "velocity": 40, "note_on_time": 56.477, "note_off_time": 57.491}, {"pitch": 67, "velocity": 40, "note_on_time": 56.477, "note_off_time": 57.492}, {"pitch": 79, "velocity": 40, "note_on_time": 58.494, "note_off_time": 59.508}, {"pitch": 60, "velocity": 40, "note_on_time": 64.524, "note_off_time": 65.536}, {"pitch": 64, "velocity": 40, "note_on_time": 64.525, "note_off_time": 65.537}, {"pitch": 67, "velocity": 40, "note_on_time": 64.525, "note_off_time": 65.538}, {"pitch": 77, "velocity": 40, "note_on_time": 66.546, "note_off_time": 67.557}, {"pitch": 60, "velocity": 40, "note_on_time": 72.565, "note_off_time": 73.577}, {"pitch": 64, "velocity": 40, "note_on_time": 72.566, "note_off_time": 73.578}, {"pitch": 67, "velocity": 40, "note_on_time": 72.566, "note_off_time": 73.578}, {"pitch": 72, "velocity": 40, "note_on_time": 74.58, "note_off_time": 75.592}, {"pitch": 60, "velocity": 40, "note_on_time": 80.617, "note_off_time": 81.634}, {"pitch": 64, "velocity": 40, "note_on_time": 80.618, "note_off_time": 81.634}, {"pitch": 67, "velocity": 40, "note_on_time": 80.618, "note_off_time": 81.634}, {"pitch": 74, "velocity": 40, "note_on_time": 82.635, "note_off_time": 83.646}, {"pitch": 60, "velocity": 40, "note_on_time": 88.658, "note_off_time": 89.672}, {"pitch": 64, "velocity": 40, "note_on_time": 88.658, "note_off_time": 89.673}, {"pitch": 67, "velocity": 40, "note_on_time": 88.659, "note_off_time": 89.673}, {"pitch": 76, "velocity": 40, "note_on_time": 90.675, "note_off_time": 91.681}, {"pitch": 60, "velocity": 40, "note_on_time": 96.692, "note_off_time": 97.708}, {"pitch": 64, "velocity": 40, "note_on_time": 96.692, "note_off_time": 97.709}, {"pitch": 67, "velocity": 40, "note_on_time": 96.693, "note_off_time": 97.709}, {"pitch": 79, "velocity": 40, "note_on_time": 98.718, "note_off_time": 99.742}, {"pitch": 60, "velocity": 40, "note_on_time": 104.757, "note_off_time": 105.759}, {"pitch": 64, "velocity": 40, "note_on_time": 104.758, "note_off_time": 105.76}, {"pitch": 67, "velocity": 40, "note_on_time": 104.758, "note_off_time": 105.761}, {"pitch": 74, "velocity": 40, "note_on_time": 106.773, "note_off_time": 107.786}, {"pitch": 60, "velocity": 40, "note_on_time": 112.789, "note_off_time": 113.793}, {"pitch": 64, "velocity": 40, "note_on_time": 112.79, "note_off_time": 113.794}, {"pitch": 67, "velocity": 40, "note_on_time": 112.79, "note_off_time": 113.794}, {"pitch": 72, "velocity": 40, "note_on_time": 114.796, "note_off_time": 115.802}, {"pitch": 60, "velocity": 40, "note_on_time": 120.808, "note_off_time": 121.816}, {"pitch": 64, "velocity": 40, "note_on_time": 120.81, "note_off_time": 121.817}, {"pitch": 67, "velocity": 40, "note_on_time": 120.81, "note_off_time": 121.817}, {"pitch": 76, "velocity": 40, "note_on_time": 122.829, "note_off_time": 123.844}, {"pitch": 60, "velocity": 40, "note_on_time": 128.86, "note_off_time": 129.864}, {"pitch": 64, "velocity": 40, "note_on_time": 128.861, "note_off_time": 129.865}, {"pitch": 67, "velocity": 40, "note_on_time": 128.861, "note_off_time": 129.866}, {"pitch": 72, "velocity": 40, "note_on_time": 130.875, "note_off_time": 131.882}, {"pitch": 60, "velocity": 40, "note_on_time": 136.895, "note_off_time": 137.912}, {"pitch": 64, "velocity": 40, "note_on_time": 136.897, "note_off_time": 137.913}, {"pitch": 67, "velocity": 40, "note_on_time": 136.897, "note_off_time": 137.913}, {"pitch": 76, "velocity": 40, "note_on_time": 138.915, "note_off_time": 139.915}, {"pitch": 60, "velocity": 40, "note_on_time": 144.916, "note_off_time": 145.928}, {"pitch": 64, "velocity": 40, "note_on_time": 144.917, "note_off_time": 145.929}, {"pitch": 67, "velocity": 40, "note_on_time": 144.918, "note_off_time": 145.929}, {"pitch": 79, "velocity": 40, "note_on_time": 146.934, "note_off_time": 147.936}, {"pitch": 60, "velocity": 40, "note_on_time": 152.94, "note_off_time": 153.947}, {"pitch": 64, "velocity": 40, "note_on_time": 152.94, "note_off_time": 153.948}, {"pitch": 67, "velocity": 40, "note_on_time": 152.941, "note_off_time": 153.948}, {"pitch": 77, "velocity": 40, "note_on_time": 154.951, "note_off_time": 155.952}, {"pitch": 60, "velocity": 40, "note_on_time": 160.956, "note_off_time": 161.972}, {"pitch": 64, "velocity": 40, "note_on_time": 160.957, "note_off_time": 161.973}, {"pitch": 67, "velocity": 40, "note_on_time": 160.957, "note_off_time": 161.974}, {"pitch": 76, "velocity": 40, "note_on_time": 162.987, "note_off_time": 164.001}]</notes><options name="Option List">((4, 4), [0.5, 0.25], 3, 8, &lt;NoteRangePerHand.TWO_NOTES: 3&gt;, &lt;NoteRangePerHand.ONE_NOTE: 2&gt;, False, True, True, 100)</options></target_notes><trials><trial trial_no="1" timestamp="2023_06_06-11_05_16"><notes name="Played Notes">[{"pitch": 77, "velocity": 1, "note_on_time": 2.949, "note_off_time": 3.196}, {"pitch": 77, "velocity": 63, "note_on_time": 3.343, "note_off_time": 3.615}, {"pitch": 79, "velocity": 63, "note_on_time": 4.0, "note_off_time": 4.39}, {"pitch": 76, "velocity": 71, "note_on_time": 4.84, "note_off_time": 5.2}, {"pitch": 74, "velocity": 61, "note_on_time": 11.6, "note_off_time": 12.229}, {"pitch": 76, "velocity": 57, "note_on_time": 12.258, "note_off_time": 13.052}, {"pitch": 72, "velocity": 64, "note_on_time": 13.099, "note_off_time": 14.859}, {"pitch": 77, "velocity": 56, "note_on_time": 19.592, "note_off_time": 20.35}, {"pitch": 76, "velocity": 50, "note_on_time": 27.854, "note_off_time": 28.201}, {"pitch": 74, "velocity": 59, "note_on_time": 28.253, "note_off_time": 30.2}, {"pitch": 79, "velocity": 49, "note_on_time": 35.536, "note_off_time": 35.881}, {"pitch": 77, "velocity": 52, "note_on_time": 36.005, "note_off_time": 37.196}, {"pitch": 79, "velocity": 46, "note_on_time": 43.776, "note_off_time": 44.867}, {"pitch": 72, "velocity": 65, "note_on_time": 51.893, "note_off_time": 52.324}, {"pitch": 74, "velocity": 71, "note_on_time": 52.599, "note_off_time": 53.954}, {"pitch": 79, "velocity": 58, "note_on_time": 60.839, "note_off_time": 62.109}, {"pitch": 77, "velocity": 1, "note_on_time": 68.193, "note_off_time": 68.671}, {"pitch": 77, "velocity": 62, "note_on_time": 68.848, "note_off_time": 69.968}, {"pitch": 72, "velocity": 69, "note_on_time": 75.874, "note_off_time": 77.023}, {"pitch": 74, "velocity": 69, "note_on_time": 84.137, "note_off_time": 85.371}, {"pitch": 76, "velocity": 58, "note_on_time": 92.11, "note_off_time": 93.681}, {"pitch": 79, "velocity": 25, "note_on_time": 100.968, "note_off_time": 103.017}, {"pitch": 76, "velocity": 47, "note_on_time": 108.243, "note_off_time": 108.828}, {"pitch": 77, "velocity": 58, "note_on_time": 108.896, "note_off_time": 109.369}, {"pitch": 74, "velocity": 67, "note_on_time": 109.505, "note_off_time": 111.441}, {"pitch": 72, "velocity": 51, "note_on_time": 116.163, "note_off_time": 117.581}, {"pitch": 79, "velocity": 55, "note_on_time": 124.227, "note_off_time": 124.67}, {"pitch": 77, "velocity": 42, "note_on_time": 124.714, "note_off_time": 125.02}, {"pitch": 76, "velocity": 49, "note_on_time": 125.07, "note_off_time": 125.509}, {"pitch": 74, "velocity": 70, "note_on_time": 125.576, "note_off_time": 126.133}, {"pitch": 77, "velocity": 54, "note_on_time": 126.275, "note_off_time": 127.423}, {"pitch": 74, "velocity": 50, "note_on_time": 132.52, "note_off_time": 132.847}, {"pitch": 72, "velocity": 52, "note_on_time": 132.897, "note_off_time": 134.171}, {"pitch": 76, "velocity": 51, "note_on_time": 140.345, "note_off_time": 141.998}, {"pitch": 77, "velocity": 35, "note_on_time": 148.393, "note_off_time": 148.734}, {"pitch": 79, "velocity": 56, "note_on_time": 148.782, "note_off_time": 150.769}, {"pitch": 76, "velocity": 55, "note_on_time": 156.749, "note_off_time": 157.217}, {"pitch": 77, "velocity": 64, "note_on_time": 157.173, "note_off_time": 158.894}]</notes><guidance name="Guidance Mode">None</guidance><error name="Error value">99</error></trial></trials></MIDI>