<MIDI midiNo="2023_06_19-16_49_57"><target_notes><notes name="Note List">[{"pitch": 60, "velocity": 40, "note_on_time": 0.01, "note_off_time": 1.022}, {"pitch": 64, "velocity": 40, "note_on_time": 0.01, "note_off_time": 1.022}, {"pitch": 67, "velocity": 40, "note_on_time": 0.011, "note_off_time": 1.022}, {"pitch": 48, "velocity": 40, "note_on_time": 0.011, "note_off_time": 1.022}, {"pitch": 52, "velocity": 40, "note_on_time": 1.022, "note_off_time": 2.036}, {"pitch": 55, "velocity": 40, "note_on_time": 1.022, "note_off_time": 2.037}, {"pitch": 77, "velocity": 40, "note_on_time": 2.036, "note_off_time": 3.044}, {"pitch": 48, "velocity": 40, "note_on_time": 2.037, "note_off_time": 3.045}, {"pitch": 52, "velocity": 40, "note_on_time": 3.045, "note_off_time": 4.05}, {"pitch": 55, "velocity": 40, "note_on_time": 3.045, "note_off_time": 4.05}, {"pitch": 48, "velocity": 40, "note_on_time": 4.05, "note_off_time": 5.059}, {"pitch": 52, "velocity": 40, "note_on_time": 5.059, "note_off_time": 6.063}, {"pitch": 55, "velocity": 40, "note_on_time": 5.059, "note_off_time": 6.063}, {"pitch": 48, "velocity": 40, "note_on_time": 6.063, "note_off_time": 7.068}, {"pitch": 52, "velocity": 40, "note_on_time": 7.068, "note_off_time": 8.091}, {"pitch": 55, "velocity": 40, "note_on_time": 7.068, "note_off_time": 8.091}, {"pitch": 60, "velocity": 40, "note_on_time": 8.09, "note_off_time": 9.098}, {"pitch": 64, "velocity": 40, "note_on_time": 8.091, "note_off_time": 9.099}, {"pitch": 67, "velocity": 40, "note_on_time": 8.091, "note_off_time": 9.099}, {"pitch": 48, "velocity": 40, "note_on_time": 8.092, "note_off_time": 9.099}, {"pitch": 52, "velocity": 40, "note_on_time": 9.1, "note_off_time": 10.105}, {"pitch": 55, "velocity": 40, "note_on_time": 9.1, "note_off_time": 10.105}, {"pitch": 74, "velocity": 40, "note_on_time": 10.105, "note_off_time": 11.121}, {"pitch": 48, "velocity": 40, "note_on_time": 10.105, "note_off_time": 11.121}, {"pitch": 52, "velocity": 40, "note_on_time": 11.122, "note_off_time": 12.137}, {"pitch": 55, "velocity": 40, "note_on_time": 11.122, "note_off_time": 12.137}, {"pitch": 48, "velocity": 40, "note_on_time": 12.137, "note_off_time": 13.147}, {"pitch": 52, "velocity": 40, "note_on_time": 13.147, "note_off_time": 14.158}, {"pitch": 55, "velocity": 40, "note_on_time": 13.147, "note_off_time": 14.158}, {"pitch": 48, "velocity": 40, "note_on_time": 14.158, "note_off_time": 15.169}, {"pitch": 52, "velocity": 40, "note_on_time": 15.169, "note_off_time": 16.183}, {"pitch": 55, "velocity": 40, "note_on_time": 15.169, "note_off_time": 16.183}, {"pitch": 60, "velocity": 40, "note_on_time": 16.182, "note_off_time": 17.192}, {"pitch": 64, "velocity": 40, "note_on_time": 16.183, "note_off_time": 17.193}, {"pitch": 67, "velocity": 40, "note_on_time": 16.183, "note_off_time": 17.193}, {"pitch": 48, "velocity": 40, "note_on_time": 16.184, "note_off_time": 17.193}, {"pitch": 52, "velocity": 40, "note_on_time": 17.194, "note_off_time": 18.209}, {"pitch": 55, "velocity": 40, "note_on_time": 17.194, "note_off_time": 18.21}, {"pitch": 76, "velocity": 40, "note_on_time": 18.209, "note_off_time": 19.219}, {"pitch": 48, "velocity": 40, "note_on_time": 18.21, "note_off_time": 19.219}, {"pitch": 52, "velocity": 40, "note_on_time": 19.22, "note_off_time": 20.231}, {"pitch": 55, "velocity": 40, "note_on_time": 19.22, "note_off_time": 20.231}, {"pitch": 48, "velocity": 40, "note_on_time": 20.231, "note_off_time": 21.252}, {"pitch": 52, "velocity": 40, "note_on_time": 21.252, "note_off_time": 22.265}, {"pitch": 55, "velocity": 40, "note_on_time": 21.252, "note_off_time": 22.265}, {"pitch": 48, "velocity": 40, "note_on_time": 22.265, "note_off_time": 23.272}, {"pitch": 52, "velocity": 40, "note_on_time": 23.272, "note_off_time": 24.292}, {"pitch": 55, "velocity": 40, "note_on_time": 23.272, "note_off_time": 24.292}, {"pitch": 60, "velocity": 40, "note_on_time": 24.291, "note_off_time": 25.305}, {"pitch": 64, "velocity": 40, "note_on_time": 24.291, "note_off_time": 25.306}, {"pitch": 67, "velocity": 40, "note_on_time": 24.292, "note_off_time": 25.306}, {"pitch": 48, "velocity": 40, "note_on_time": 24.292, "note_off_time": 25.306}, {"pitch": 52, "velocity": 40, "note_on_time": 25.306, "note_off_time": 26.317}, {"pitch": 55, "velocity": 40, "note_on_time": 25.306, "note_off_time": 26.318}, {"pitch": 79, "velocity": 40, "note_on_time": 26.317, "note_off_time": 27.328}, {"pitch": 48, "velocity": 40, "note_on_time": 26.318, "note_off_time": 27.328}, {"pitch": 52, "velocity": 40, "note_on_time": 27.329, "note_off_time": 28.342}, {"pitch": 55, "velocity": 40, "note_on_time": 27.329, "note_off_time": 28.342}, {"pitch": 48, "velocity": 40, "note_on_time": 28.342, "note_off_time": 29.348}, {"pitch": 52, "velocity": 40, "note_on_time": 29.348, "note_off_time": 30.362}, {"pitch": 55, "velocity": 40, "note_on_time": 29.348, "note_off_time": 30.362}, {"pitch": 48, "velocity": 40, "note_on_time": 30.362, "note_off_time": 31.377}, {"pitch": 52, "velocity": 40, "note_on_time": 31.377, "note_off_time": 32.393}, {"pitch": 55, "velocity": 40, "note_on_time": 31.377, "note_off_time": 32.393}, {"pitch": 60, "velocity": 40, "note_on_time": 32.392, "note_off_time": 33.397}, {"pitch": 64, "velocity": 40, "note_on_time": 32.393, "note_off_time": 33.399}, {"pitch": 67, "velocity": 40, "note_on_time": 32.393, "note_off_time": 33.399}, {"pitch": 48, "velocity": 40, "note_on_time": 32.394, "note_off_time": 33.399}, {"pitch": 52, "velocity": 40, "note_on_time": 33.4, "note_off_time": 34.408}, {"pitch": 55, "velocity": 40, "note_on_time": 33.4, "note_off_time": 34.408}, {"pitch": 72, "velocity": 40, "note_on_time": 34.408, "note_off_time": 35.421}, {"pitch": 48, "velocity": 40, "note_on_time": 34.409, "note_off_time": 35.421}, {"pitch": 52, "velocity": 40, "note_on_time": 35.421, "note_off_time": 36.437}, {"pitch": 55, "velocity": 40, "note_on_time": 35.421, "note_off_time": 36.437}, {"pitch": 48, "velocity": 40, "note_on_time": 36.437, "note_off_time": 37.444}, {"pitch": 52, "velocity": 40, "note_on_time": 37.444, "note_off_time": 38.457}, {"pitch": 55, "velocity": 40, "note_on_time": 37.444, "note_off_time": 38.457}, {"pitch": 48, "velocity": 40, "note_on_time": 38.457, "note_off_time": 39.459}, {"pitch": 52, "velocity": 40, "note_on_time": 39.459, "note_off_time": 40.467}, {"pitch": 55, "velocity": 40, "note_on_time": 39.459, "note_off_time": 40.467}, {"pitch": 60, "velocity": 40, "note_on_time": 40.466, "note_off_time": 41.479}, {"pitch": 64, "velocity": 40, "note_on_time": 40.467, "note_off_time": 41.479}, {"pitch": 67, "velocity": 40, "note_on_time": 40.467, "note_off_time": 41.48}, {"pitch": 79, "velocity": 40, "note_on_time": 42.487, "note_off_time": 43.5}, {"pitch": 60, "velocity": 40, "note_on_time": 48.502, "note_off_time": 49.512}, {"pitch": 64, "velocity": 40, "note_on_time": 48.503, "note_off_time": 49.513}, {"pitch": 67, "velocity": 40, "note_on_time": 48.503, "note_off_time": 49.513}, {"pitch": 76, "velocity": 40, "note_on_time": 50.522, "note_off_time": 51.53}, {"pitch": 60, "velocity": 40, "note_on_time": 56.534, "note_off_time": 57.549}, {"pitch": 64, "velocity": 40, "note_on_time": 56.535, "note_off_time": 57.549}, {"pitch": 67, "velocity": 40, "note_on_time": 56.535, "note_off_time": 57.55}, {"pitch": 72, "velocity": 40, "note_on_time": 58.555, "note_off_time": 59.562}, {"pitch": 60, "velocity": 40, "note_on_time": 64.57, "note_off_time": 65.573}, {"pitch": 64, "velocity": 40, "note_on_time": 64.571, "note_off_time": 65.573}, {"pitch": 67, "velocity": 40, "note_on_time": 64.571, "note_off_time": 65.574}, {"pitch": 77, "velocity": 40, "note_on_time": 66.583, "note_off_time": 67.6}, {"pitch": 60, "velocity": 40, "note_on_time": 72.615, "note_off_time": 73.629}, {"pitch": 64, "velocity": 40, "note_on_time": 72.616, "note_off_time": 73.629}, {"pitch": 67, "velocity": 40, "note_on_time": 72.616, "note_off_time": 73.63}, {"pitch": 74, "velocity": 40, "note_on_time": 74.631, "note_off_time": 75.644}, {"pitch": 60, "velocity": 40, "note_on_time": 80.652, "note_off_time": 81.666}, {"pitch": 64, "velocity": 40, "note_on_time": 80.653, "note_off_time": 81.666}, {"pitch": 67, "velocity": 40, "note_on_time": 80.653, "note_off_time": 81.667}, {"pitch": 77, "velocity": 40, "note_on_time": 82.67, "note_off_time": 83.685}, {"pitch": 60, "velocity": 40, "note_on_time": 88.7, "note_off_time": 89.714}, {"pitch": 64, "velocity": 40, "note_on_time": 88.701, "note_off_time": 89.715}, {"pitch": 67, "velocity": 40, "note_on_time": 88.701, "note_off_time": 89.715}, {"pitch": 76, "velocity": 40, "note_on_time": 90.723, "note_off_time": 91.733}, {"pitch": 60, "velocity": 40, "note_on_time": 96.743, "note_off_time": 97.756}, {"pitch": 64, "velocity": 40, "note_on_time": 96.743, "note_off_time": 97.757}, {"pitch": 67, "velocity": 40, "note_on_time": 96.744, "note_off_time": 97.757}, {"pitch": 77, "velocity": 40, "note_on_time": 98.764, "note_off_time": 99.773}, {"pitch": 60, "velocity": 40, "note_on_time": 104.779, "note_off_time": 105.795}, {"pitch": 64, "velocity": 40, "note_on_time": 104.779, "note_off_time": 105.797}, {"pitch": 67, "velocity": 40, "note_on_time": 104.78, "note_off_time": 105.797}, {"pitch": 74, "velocity": 40, "note_on_time": 106.806, "note_off_time": 107.818}, {"pitch": 60, "velocity": 40, "note_on_time": 112.826, "note_off_time": 113.829}, {"pitch": 64, "velocity": 40, "note_on_time": 112.827, "note_off_time": 113.831}, {"pitch": 67, "velocity": 40, "note_on_time": 112.827, "note_off_time": 113.831}, {"pitch": 79, "velocity": 40, "note_on_time": 114.84, "note_off_time": 115.847}, {"pitch": 60, "velocity": 40, "note_on_time": 120.862, "note_off_time": 121.878}, {"pitch": 64, "velocity": 40, "note_on_time": 120.863, "note_off_time": 121.879}, {"pitch": 67, "velocity": 40, "note_on_time": 120.863, "note_off_time": 121.879}, {"pitch": 72, "velocity": 40, "note_on_time": 122.894, "note_off_time": 123.909}, {"pitch": 60, "velocity": 40, "note_on_time": 128.915, "note_off_time": 129.93}, {"pitch": 64, "velocity": 40, "note_on_time": 128.916, "note_off_time": 129.931}, {"pitch": 67, "velocity": 40, "note_on_time": 128.916, "note_off_time": 129.931}, {"pitch": 79, "velocity": 40, "note_on_time": 130.947, "note_off_time": 131.959}, {"pitch": 60, "velocity": 40, "note_on_time": 136.968, "note_off_time": 137.977}, {"pitch": 64, "velocity": 40, "note_on_time": 136.968, "note_off_time": 137.978}, {"pitch": 67, "velocity": 40, "note_on_time": 136.97, "note_off_time": 137.978}, {"pitch": 72, "velocity": 40, "note_on_time": 138.984, "note_off_time": 139.991}, {"pitch": 60, "velocity": 40, "note_on_time": 145.006, "note_off_time": 146.011}, {"pitch": 64, "velocity": 40, "note_on_time": 145.007, "note_off_time": 146.011}, {"pitch": 67, "velocity": 40, "note_on_time": 145.008, "note_off_time": 146.012}, {"pitch": 76, "velocity": 40, "note_on_time": 147.02, "note_off_time": 148.027}, {"pitch": 60, "velocity": 40, "note_on_time": 153.033, "note_off_time": 154.044}, {"pitch": 64, "velocity": 40, "note_on_time": 153.034, "note_off_time": 154.045}, {"pitch": 67, "velocity": 40, "note_on_time": 153.034, "note_off_time": 154.045}, {"pitch": 74, "velocity": 40, "note_on_time": 155.048, "note_off_time": 156.064}, {"pitch": 60, "velocity": 40, "note_on_time": 161.072, "note_off_time": 162.078}, {"pitch": 64, "velocity": 40, "note_on_time": 161.073, "note_off_time": 162.079}, {"pitch": 67, "velocity": 40, "note_on_time": 161.073, "note_off_time": 162.08}, {"pitch": 77, "velocity": 40, "note_on_time": 163.082, "note_off_time": 164.085}]</notes><options name="Option List">((4, 4), [0.5, 0.25], 3, 8, &lt;NoteRangePerHand.TWO_NOTES: 3&gt;, &lt;NoteRangePerHand.ONE_NOTE: 2&gt;, False, True, True, 100)</options></target_notes><trials><trial trial_no="1" timestamp="2023_06_19-16_47_12"><notes name="Played Notes">[{"pitch": 77, "velocity": 38, "note_on_time": 4.126, "note_off_time": 4.924}, {"pitch": 74, "velocity": 55, "note_on_time": 11.603, "note_off_time": 12.689}, {"pitch": 76, "velocity": 56, "note_on_time": 19.708, "note_off_time": 20.586}, {"pitch": 79, "velocity": 55, "note_on_time": 27.707, "note_off_time": 28.517}, {"pitch": 72, "velocity": 55, "note_on_time": 35.781, "note_off_time": 36.685}, {"pitch": 79, "velocity": 54, "note_on_time": 43.888, "note_off_time": 44.784}, {"pitch": 76, "velocity": 43, "note_on_time": 51.97, "note_off_time": 52.799}, {"pitch": 72, "velocity": 56, "note_on_time": 59.907, "note_off_time": 60.663}, {"pitch": 77, "velocity": 54, "note_on_time": 68.358, "note_off_time": 69.029}, {"pitch": 76, "velocity": 49, "note_on_time": 76.049, "note_off_time": 76.524}, {"pitch": 74, "velocity": 60, "note_on_time": 76.731, "note_off_time": 77.637}, {"pitch": 77, "velocity": 49, "note_on_time": 84.389, "note_off_time": 85.319}, {"pitch": 79, "velocity": 51, "note_on_time": 92.322, "note_off_time": 92.69}, {"pitch": 76, "velocity": 51, "note_on_time": 93.022, "note_off_time": 94.05}, {"pitch": 77, "velocity": 56, "note_on_time": 100.309, "note_off_time": 101.19}, {"pitch": 74, "velocity": 51, "note_on_time": 108.096, "note_off_time": 109.198}, {"pitch": 79, "velocity": 55, "note_on_time": 116.058, "note_off_time": 116.734}, {"pitch": 74, "velocity": 49, "note_on_time": 124.295, "note_off_time": 124.683}, {"pitch": 72, "velocity": 70, "note_on_time": 124.926, "note_off_time": 125.842}, {"pitch": 79, "velocity": 55, "note_on_time": 132.261, "note_off_time": 133.137}, {"pitch": 74, "velocity": 52, "note_on_time": 140.409, "note_off_time": 140.824}, {"pitch": 76, "velocity": 52, "note_on_time": 141.14, "note_off_time": 141.493}, {"pitch": 72, "velocity": 76, "note_on_time": 141.858, "note_off_time": 142.606}, {"pitch": 76, "velocity": 49, "note_on_time": 149.117, "note_off_time": 150.142}, {"pitch": 74, "velocity": 49, "note_on_time": 156.689, "note_off_time": 157.642}]</notes><guidance name="Guidance Mode">None</guidance><error name="Error value">99</error></trial></trials></MIDI>