<MIDI midiNo="2023_06_14-16_03_42"><target_notes><notes name="Note List">[{"pitch": 60, "velocity": 40, "note_on_time": 0.01, "note_off_time": 1.025}, {"pitch": 64, "velocity": 40, "note_on_time": 0.01, "note_off_time": 1.026}, {"pitch": 67, "velocity": 40, "note_on_time": 0.01, "note_off_time": 1.027}, {"pitch": 48, "velocity": 40, "note_on_time": 0.01, "note_off_time": 1.028}, {"pitch": 52, "velocity": 40, "note_on_time": 1.028, "note_off_time": 2.036}, {"pitch": 55, "velocity": 40, "note_on_time": 1.028, "note_off_time": 2.037}, {"pitch": 79, "velocity": 40, "note_on_time": 2.036, "note_off_time": 3.05}, {"pitch": 48, "velocity": 40, "note_on_time": 2.037, "note_off_time": 3.05}, {"pitch": 52, "velocity": 40, "note_on_time": 3.051, "note_off_time": 4.06}, {"pitch": 55, "velocity": 40, "note_on_time": 3.051, "note_off_time": 4.06}, {"pitch": 48, "velocity": 40, "note_on_time": 4.06, "note_off_time": 5.074}, {"pitch": 52, "velocity": 40, "note_on_time": 5.074, "note_off_time": 6.083}, {"pitch": 55, "velocity": 40, "note_on_time": 5.074, "note_off_time": 6.083}, {"pitch": 48, "velocity": 40, "note_on_time": 6.083, "note_off_time": 7.097}, {"pitch": 52, "velocity": 40, "note_on_time": 7.097, "note_off_time": 8.106}, {"pitch": 55, "velocity": 40, "note_on_time": 7.097, "note_off_time": 8.106}, {"pitch": 60, "velocity": 40, "note_on_time": 8.105, "note_off_time": 9.108}, {"pitch": 64, "velocity": 40, "note_on_time": 8.105, "note_off_time": 9.109}, {"pitch": 67, "velocity": 40, "note_on_time": 8.106, "note_off_time": 9.109}, {"pitch": 48, "velocity": 40, "note_on_time": 8.106, "note_off_time": 9.11}, {"pitch": 52, "velocity": 40, "note_on_time": 9.11, "note_off_time": 10.113}, {"pitch": 55, "velocity": 40, "note_on_time": 9.11, "note_off_time": 10.114}, {"pitch": 74, "velocity": 40, "note_on_time": 10.113, "note_off_time": 11.128}, {"pitch": 48, "velocity": 40, "note_on_time": 10.114, "note_off_time": 11.128}, {"pitch": 52, "velocity": 40, "note_on_time": 11.128, "note_off_time": 12.14}, {"pitch": 55, "velocity": 40, "note_on_time": 11.128, "note_off_time": 12.14}, {"pitch": 48, "velocity": 40, "note_on_time": 12.14, "note_off_time": 13.151}, {"pitch": 52, "velocity": 40, "note_on_time": 13.151, "note_off_time": 14.162}, {"pitch": 55, "velocity": 40, "note_on_time": 13.151, "note_off_time": 14.162}, {"pitch": 48, "velocity": 40, "note_on_time": 14.162, "note_off_time": 15.175}, {"pitch": 52, "velocity": 40, "note_on_time": 15.175, "note_off_time": 16.184}, {"pitch": 55, "velocity": 40, "note_on_time": 15.175, "note_off_time": 16.184}, {"pitch": 60, "velocity": 40, "note_on_time": 16.182, "note_off_time": 17.197}, {"pitch": 64, "velocity": 40, "note_on_time": 16.183, "note_off_time": 17.197}, {"pitch": 67, "velocity": 40, "note_on_time": 16.184, "note_off_time": 17.201}, {"pitch": 48, "velocity": 40, "note_on_time": 16.184, "note_off_time": 17.201}, {"pitch": 52, "velocity": 40, "note_on_time": 17.201, "note_off_time": 18.217}, {"pitch": 55, "velocity": 40, "note_on_time": 17.201, "note_off_time": 18.217}, {"pitch": 77, "velocity": 40, "note_on_time": 18.217, "note_off_time": 19.221}, {"pitch": 48, "velocity": 40, "note_on_time": 18.217, "note_off_time": 19.222}, {"pitch": 52, "velocity": 40, "note_on_time": 19.222, "note_off_time": 20.232}, {"pitch": 55, "velocity": 40, "note_on_time": 19.222, "note_off_time": 20.232}, {"pitch": 48, "velocity": 40, "note_on_time": 20.232, "note_off_time": 21.247}, {"pitch": 52, "velocity": 40, "note_on_time": 21.247, "note_off_time": 22.251}, {"pitch": 55, "velocity": 40, "note_on_time": 21.247, "note_off_time": 22.251}, {"pitch": 48, "velocity": 40, "note_on_time": 22.251, "note_off_time": 23.265}, {"pitch": 52, "velocity": 40, "note_on_time": 23.265, "note_off_time": 24.269}, {"pitch": 55, "velocity": 40, "note_on_time": 23.265, "note_off_time": 24.269}, {"pitch": 60, "velocity": 40, "note_on_time": 24.269, "note_off_time": 25.278}, {"pitch": 64, "velocity": 40, "note_on_time": 24.269, "note_off_time": 25.279}, {"pitch": 67, "velocity": 40, "note_on_time": 24.269, "note_off_time": 25.279}, {"pitch": 48, "velocity": 40, "note_on_time": 24.269, "note_off_time": 25.28}, {"pitch": 52, "velocity": 40, "note_on_time": 25.28, "note_off_time": 26.285}, {"pitch": 55, "velocity": 40, "note_on_time": 25.28, "note_off_time": 26.286}, {"pitch": 72, "velocity": 40, "note_on_time": 26.285, "note_off_time": 27.292}, {"pitch": 48, "velocity": 40, "note_on_time": 26.286, "note_off_time": 27.292}, {"pitch": 52, "velocity": 40, "note_on_time": 27.292, "note_off_time": 28.306}, {"pitch": 55, "velocity": 40, "note_on_time": 27.292, "note_off_time": 28.306}, {"pitch": 48, "velocity": 40, "note_on_time": 28.306, "note_off_time": 29.315}, {"pitch": 52, "velocity": 40, "note_on_time": 29.315, "note_off_time": 30.322}, {"pitch": 55, "velocity": 40, "note_on_time": 29.315, "note_off_time": 30.322}, {"pitch": 48, "velocity": 40, "note_on_time": 30.322, "note_off_time": 31.332}, {"pitch": 52, "velocity": 40, "note_on_time": 31.332, "note_off_time": 32.336}, {"pitch": 55, "velocity": 40, "note_on_time": 31.332, "note_off_time": 32.337}, {"pitch": 60, "velocity": 40, "note_on_time": 32.335, "note_off_time": 33.352}, {"pitch": 64, "velocity": 40, "note_on_time": 32.336, "note_off_time": 33.352}, {"pitch": 67, "velocity": 40, "note_on_time": 32.336, "note_off_time": 33.352}, {"pitch": 48, "velocity": 40, "note_on_time": 32.337, "note_off_time": 33.352}, {"pitch": 52, "velocity": 40, "note_on_time": 33.352, "note_off_time": 34.354}, {"pitch": 55, "velocity": 40, "note_on_time": 33.352, "note_off_time": 34.354}, {"pitch": 74, "velocity": 40, "note_on_time": 34.354, "note_off_time": 35.367}, {"pitch": 48, "velocity": 40, "note_on_time": 34.354, "note_off_time": 35.367}, {"pitch": 52, "velocity": 40, "note_on_time": 35.367, "note_off_time": 36.38}, {"pitch": 55, "velocity": 40, "note_on_time": 35.367, "note_off_time": 36.38}, {"pitch": 48, "velocity": 40, "note_on_time": 36.38, "note_off_time": 37.391}, {"pitch": 52, "velocity": 40, "note_on_time": 37.391, "note_off_time": 38.401}, {"pitch": 55, "velocity": 40, "note_on_time": 37.391, "note_off_time": 38.401}, {"pitch": 48, "velocity": 40, "note_on_time": 38.401, "note_off_time": 39.41}, {"pitch": 52, "velocity": 40, "note_on_time": 39.41, "note_off_time": 40.423}, {"pitch": 55, "velocity": 40, "note_on_time": 39.41, "note_off_time": 40.423}, {"pitch": 60, "velocity": 40, "note_on_time": 40.421, "note_off_time": 41.432}, {"pitch": 64, "velocity": 40, "note_on_time": 40.422, "note_off_time": 41.433}, {"pitch": 67, "velocity": 40, "note_on_time": 40.423, "note_off_time": 41.433}, {"pitch": 76, "velocity": 40, "note_on_time": 42.437, "note_off_time": 43.451}, {"pitch": 60, "velocity": 40, "note_on_time": 48.467, "note_off_time": 49.469}, {"pitch": 64, "velocity": 40, "note_on_time": 48.467, "note_off_time": 49.469}, {"pitch": 67, "velocity": 40, "note_on_time": 48.468, "note_off_time": 49.47}, {"pitch": 79, "velocity": 40, "note_on_time": 50.483, "note_off_time": 51.497}, {"pitch": 60, "velocity": 40, "note_on_time": 56.502, "note_off_time": 57.51}, {"pitch": 64, "velocity": 40, "note_on_time": 56.503, "note_off_time": 57.511}, {"pitch": 67, "velocity": 40, "note_on_time": 56.504, "note_off_time": 57.511}, {"pitch": 76, "velocity": 40, "note_on_time": 58.525, "note_off_time": 59.533}, {"pitch": 60, "velocity": 40, "note_on_time": 64.547, "note_off_time": 65.557}, {"pitch": 64, "velocity": 40, "note_on_time": 64.547, "note_off_time": 65.558}, {"pitch": 67, "velocity": 40, "note_on_time": 64.547, "note_off_time": 65.558}, {"pitch": 79, "velocity": 40, "note_on_time": 66.565, "note_off_time": 67.578}, {"pitch": 60, "velocity": 40, "note_on_time": 72.59, "note_off_time": 73.602}, {"pitch": 64, "velocity": 40, "note_on_time": 72.591, "note_off_time": 73.603}, {"pitch": 67, "velocity": 40, "note_on_time": 72.592, "note_off_time": 73.604}, {"pitch": 74, "velocity": 40, "note_on_time": 74.605, "note_off_time": 75.617}, {"pitch": 60, "velocity": 40, "note_on_time": 80.627, "note_off_time": 81.642}, {"pitch": 64, "velocity": 40, "note_on_time": 80.629, "note_off_time": 81.643}, {"pitch": 67, "velocity": 40, "note_on_time": 80.629, "note_off_time": 81.643}, {"pitch": 76, "velocity": 40, "note_on_time": 82.656, "note_off_time": 83.669}, {"pitch": 60, "velocity": 40, "note_on_time": 88.682, "note_off_time": 89.695}, {"pitch": 64, "velocity": 40, "note_on_time": 88.683, "note_off_time": 89.696}, {"pitch": 67, "velocity": 40, "note_on_time": 88.683, "note_off_time": 89.697}, {"pitch": 72, "velocity": 40, "note_on_time": 90.709, "note_off_time": 91.722}, {"pitch": 60, "velocity": 40, "note_on_time": 96.738, "note_off_time": 97.747}, {"pitch": 64, "velocity": 40, "note_on_time": 96.739, "note_off_time": 97.748}, {"pitch": 67, "velocity": 40, "note_on_time": 96.739, "note_off_time": 97.749}, {"pitch": 77, "velocity": 40, "note_on_time": 98.76, "note_off_time": 99.771}, {"pitch": 60, "velocity": 40, "note_on_time": 104.782, "note_off_time": 105.798}, {"pitch": 64, "velocity": 40, "note_on_time": 104.782, "note_off_time": 105.799}, {"pitch": 67, "velocity": 40, "note_on_time": 104.784, "note_off_time": 105.8}, {"pitch": 74, "velocity": 40, "note_on_time": 106.807, "note_off_time": 107.815}, {"pitch": 60, "velocity": 40, "note_on_time": 112.823, "note_off_time": 113.825}, {"pitch": 64, "velocity": 40, "note_on_time": 112.823, "note_off_time": 113.826}, {"pitch": 67, "velocity": 40, "note_on_time": 112.824, "note_off_time": 113.826}, {"pitch": 72, "velocity": 40, "note_on_time": 114.835, "note_off_time": 115.851}, {"pitch": 60, "velocity": 40, "note_on_time": 120.857, "note_off_time": 121.865}, {"pitch": 64, "velocity": 40, "note_on_time": 120.858, "note_off_time": 121.865}, {"pitch": 67, "velocity": 40, "note_on_time": 120.858, "note_off_time": 121.866}, {"pitch": 79, "velocity": 40, "note_on_time": 122.872, "note_off_time": 123.885}, {"pitch": 60, "velocity": 40, "note_on_time": 128.894, "note_off_time": 129.898}, {"pitch": 64, "velocity": 40, "note_on_time": 128.895, "note_off_time": 129.899}, {"pitch": 67, "velocity": 40, "note_on_time": 128.896, "note_off_time": 129.899}, {"pitch": 72, "velocity": 40, "note_on_time": 130.906, "note_off_time": 131.91}, {"pitch": 60, "velocity": 40, "note_on_time": 136.915, "note_off_time": 137.93}, {"pitch": 64, "velocity": 40, "note_on_time": 136.916, "note_off_time": 137.931}, {"pitch": 67, "velocity": 40, "note_on_time": 136.916, "note_off_time": 137.931}, {"pitch": 77, "velocity": 40, "note_on_time": 138.934, "note_off_time": 139.937}, {"pitch": 60, "velocity": 40, "note_on_time": 144.942, "note_off_time": 145.951}, {"pitch": 64, "velocity": 40, "note_on_time": 144.942, "note_off_time": 145.952}, {"pitch": 67, "velocity": 40, "note_on_time": 144.943, "note_off_time": 145.952}, {"pitch": 76, "velocity": 40, "note_on_time": 146.964, "note_off_time": 147.967}, {"pitch": 60, "velocity": 40, "note_on_time": 152.98, "note_off_time": 153.985}, {"pitch": 64, "velocity": 40, "note_on_time": 152.981, "note_off_time": 153.986}, {"pitch": 67, "velocity": 40, "note_on_time": 152.981, "note_off_time": 153.987}, {"pitch": 77, "velocity": 40, "note_on_time": 154.998, "note_off_time": 156.012}, {"pitch": 60, "velocity": 40, "note_on_time": 161.015, "note_off_time": 162.024}, {"pitch": 64, "velocity": 40, "note_on_time": 161.016, "note_off_time": 162.026}, {"pitch": 67, "velocity": 40, "note_on_time": 161.016, "note_off_time": 162.026}, {"pitch": 79, "velocity": 40, "note_on_time": 163.039, "note_off_time": 164.051}]</notes><options name="Option List">((4, 4), [0.5, 0.25], 3, 8, &lt;NoteRangePerHand.TWO_NOTES: 3&gt;, &lt;NoteRangePerHand.ONE_NOTE: 2&gt;, False, True, True, 100)</options></target_notes><trials><trial trial_no="1" timestamp="2023_06_14-16_00_58"><notes name="Played Notes">[{"pitch": 77, "velocity": 60, "note_on_time": 3.178, "note_off_time": 4.25}, {"pitch": 74, "velocity": 62, "note_on_time": 11.108, "note_off_time": 11.448}, {"pitch": 74, "velocity": 64, "note_on_time": 11.622, "note_off_time": 12.415}, {"pitch": 76, "velocity": 65, "note_on_time": 19.368, "note_off_time": 20.701}, {"pitch": 79, "velocity": 62, "note_on_time": 27.372, "note_off_time": 29.213}, {"pitch": 72, "velocity": 39, "note_on_time": 29.443, "note_off_time": 30.084}, {"pitch": 72, "velocity": 31, "note_on_time": 30.552, "note_off_time": 31.03}, {"pitch": 74, "velocity": 62, "note_on_time": 36.627, "note_off_time": 37.448}, {"pitch": 76, "velocity": 66, "note_on_time": 44.856, "note_off_time": 45.783}, {"pitch": 74, "velocity": 52, "note_on_time": 53.532, "note_off_time": 54.015}, {"pitch": 72, "velocity": 52, "note_on_time": 54.429, "note_off_time": 54.815}, {"pitch": 76, "velocity": 62, "note_on_time": 54.932, "note_off_time": 55.652}, {"pitch": 77, "velocity": 54, "note_on_time": 55.711, "note_off_time": 56.406}, {"pitch": 77, "velocity": 58, "note_on_time": 56.55, "note_off_time": 56.803}, {"pitch": 77, "velocity": 67, "note_on_time": 59.848, "note_off_time": 60.806}, {"pitch": 77, "velocity": 36, "note_on_time": 61.864, "note_off_time": 62.045}, {"pitch": 76, "velocity": 29, "note_on_time": 62.003, "note_off_time": 62.364}, {"pitch": 76, "velocity": 45, "note_on_time": 62.485, "note_off_time": 63.127}, {"pitch": 77, "velocity": 33, "note_on_time": 64.514, "note_off_time": 65.006}, {"pitch": 77, "velocity": 44, "note_on_time": 67.806, "note_off_time": 68.474}, {"pitch": 76, "velocity": 56, "note_on_time": 68.826, "note_off_time": 70.902}, {"pitch": 76, "velocity": 46, "note_on_time": 71.049, "note_off_time": 71.853}, {"pitch": 74, "velocity": 37, "note_on_time": 71.945, "note_off_time": 72.735}, {"pitch": 72, "velocity": 1, "note_on_time": 72.8, "note_off_time": 73.532}, {"pitch": 77, "velocity": 56, "note_on_time": 76.507, "note_off_time": 76.979}, {"pitch": 76, "velocity": 53, "note_on_time": 77.204, "note_off_time": 77.8}, {"pitch": 74, "velocity": 40, "note_on_time": 77.868, "note_off_time": 78.173}, {"pitch": 72, "velocity": 31, "note_on_time": 78.185, "note_off_time": 78.672}, {"pitch": 72, "velocity": 47, "note_on_time": 78.871, "note_off_time": 79.06}, {"pitch": 72, "velocity": 34, "note_on_time": 79.166, "note_off_time": 79.483}, {"pitch": 79, "velocity": 40, "note_on_time": 79.524, "note_off_time": 80.272}, {"pitch": 77, "velocity": 37, "note_on_time": 80.214, "note_off_time": 81.114}, {"pitch": 76, "velocity": 50, "note_on_time": 80.595, "note_off_time": 81.273}, {"pitch": 76, "velocity": 56, "note_on_time": 83.504, "note_off_time": 83.877}, {"pitch": 74, "velocity": 81, "note_on_time": 84.365, "note_off_time": 84.899}, {"pitch": 76, "velocity": 68, "note_on_time": 85.326, "note_off_time": 86.264}, {"pitch": 76, "velocity": 52, "note_on_time": 86.432, "note_off_time": 86.789}, {"pitch": 76, "velocity": 65, "note_on_time": 92.471, "note_off_time": 93.135}, {"pitch": 77, "velocity": 51, "note_on_time": 93.305, "note_off_time": 93.883}, {"pitch": 74, "velocity": 54, "note_on_time": 94.034, "note_off_time": 94.813}, {"pitch": 72, "velocity": 37, "note_on_time": 94.918, "note_off_time": 95.737}, {"pitch": 77, "velocity": 45, "note_on_time": 98.522, "note_off_time": 100.03}, {"pitch": 76, "velocity": 60, "note_on_time": 108.506, "note_off_time": 109.217}, {"pitch": 77, "velocity": 54, "note_on_time": 109.433, "note_off_time": 110.117}, {"pitch": 77, "velocity": 44, "note_on_time": 110.278, "note_off_time": 110.79}, {"pitch": 77, "velocity": 46, "note_on_time": 117.133, "note_off_time": 117.934}, {"pitch": 79, "velocity": 53, "note_on_time": 118.095, "note_off_time": 118.686}, {"pitch": 76, "velocity": 48, "note_on_time": 119.185, "note_off_time": 119.761}, {"pitch": 74, "velocity": 53, "note_on_time": 119.813, "note_off_time": 120.467}, {"pitch": 74, "velocity": 47, "note_on_time": 120.639, "note_off_time": 120.962}, {"pitch": 72, "velocity": 46, "note_on_time": 124.914, "note_off_time": 126.021}, {"pitch": 74, "velocity": 55, "note_on_time": 126.246, "note_off_time": 127.211}, {"pitch": 74, "velocity": 53, "note_on_time": 127.496, "note_off_time": 127.892}, {"pitch": 76, "velocity": 52, "note_on_time": 132.26, "note_off_time": 132.769}, {"pitch": 74, "velocity": 55, "note_on_time": 132.862, "note_off_time": 133.581}, {"pitch": 72, "velocity": 42, "note_on_time": 133.715, "note_off_time": 134.321}, {"pitch": 72, "velocity": 45, "note_on_time": 134.499, "note_off_time": 135.202}, {"pitch": 76, "velocity": 53, "note_on_time": 141.466, "note_off_time": 142.31}, {"pitch": 76, "velocity": 52, "note_on_time": 148.931, "note_off_time": 149.491}, {"pitch": 77, "velocity": 55, "note_on_time": 156.412, "note_off_time": 157.065}]</notes><guidance name="Guidance Mode">None</guidance><error name="Error value">99</error></trial></trials></MIDI>