<MIDI midiNo="2023_06_19-16_19_06"><target_notes><notes name="Note List">[{"pitch": 60, "velocity": 40, "note_on_time": 0.009, "note_off_time": 1.022}, {"pitch": 64, "velocity": 40, "note_on_time": 0.01, "note_off_time": 1.023}, {"pitch": 67, "velocity": 40, "note_on_time": 0.01, "note_off_time": 1.024}, {"pitch": 48, "velocity": 40, "note_on_time": 0.01, "note_off_time": 1.024}, {"pitch": 52, "velocity": 40, "note_on_time": 1.024, "note_off_time": 2.036}, {"pitch": 55, "velocity": 40, "note_on_time": 1.024, "note_off_time": 2.037}, {"pitch": 76, "velocity": 40, "note_on_time": 2.036, "note_off_time": 3.046}, {"pitch": 48, "velocity": 40, "note_on_time": 2.037, "note_off_time": 3.046}, {"pitch": 52, "velocity": 40, "note_on_time": 3.046, "note_off_time": 4.049}, {"pitch": 55, "velocity": 40, "note_on_time": 3.046, "note_off_time": 4.049}, {"pitch": 48, "velocity": 40, "note_on_time": 4.049, "note_off_time": 5.061}, {"pitch": 52, "velocity": 40, "note_on_time": 5.061, "note_off_time": 6.071}, {"pitch": 55, "velocity": 40, "note_on_time": 5.061, "note_off_time": 6.071}, {"pitch": 48, "velocity": 40, "note_on_time": 6.071, "note_off_time": 7.084}, {"pitch": 52, "velocity": 40, "note_on_time": 7.084, "note_off_time": 8.095}, {"pitch": 55, "velocity": 40, "note_on_time": 7.084, "note_off_time": 8.096}, {"pitch": 60, "velocity": 40, "note_on_time": 8.094, "note_off_time": 9.104}, {"pitch": 64, "velocity": 40, "note_on_time": 8.095, "note_off_time": 9.105}, {"pitch": 67, "velocity": 40, "note_on_time": 8.095, "note_off_time": 9.106}, {"pitch": 48, "velocity": 40, "note_on_time": 8.096, "note_off_time": 9.106}, {"pitch": 52, "velocity": 40, "note_on_time": 9.106, "note_off_time": 10.11}, {"pitch": 55, "velocity": 40, "note_on_time": 9.106, "note_off_time": 10.11}, {"pitch": 77, "velocity": 40, "note_on_time": 10.109, "note_off_time": 11.115}, {"pitch": 48, "velocity": 40, "note_on_time": 10.11, "note_off_time": 11.116}, {"pitch": 52, "velocity": 40, "note_on_time": 11.116, "note_off_time": 12.124}, {"pitch": 55, "velocity": 40, "note_on_time": 11.116, "note_off_time": 12.124}, {"pitch": 48, "velocity": 40, "note_on_time": 12.124, "note_off_time": 13.128}, {"pitch": 52, "velocity": 40, "note_on_time": 13.128, "note_off_time": 14.132}, {"pitch": 55, "velocity": 40, "note_on_time": 13.128, "note_off_time": 14.132}, {"pitch": 48, "velocity": 40, "note_on_time": 14.132, "note_off_time": 15.142}, {"pitch": 52, "velocity": 40, "note_on_time": 15.142, "note_off_time": 16.156}, {"pitch": 55, "velocity": 40, "note_on_time": 15.142, "note_off_time": 16.156}, {"pitch": 60, "velocity": 40, "note_on_time": 16.155, "note_off_time": 17.164}, {"pitch": 64, "velocity": 40, "note_on_time": 16.156, "note_off_time": 17.165}, {"pitch": 67, "velocity": 40, "note_on_time": 16.156, "note_off_time": 17.165}, {"pitch": 48, "velocity": 40, "note_on_time": 16.156, "note_off_time": 17.166}, {"pitch": 52, "velocity": 40, "note_on_time": 17.166, "note_off_time": 18.179}, {"pitch": 55, "velocity": 40, "note_on_time": 17.166, "note_off_time": 18.18}, {"pitch": 72, "velocity": 40, "note_on_time": 18.179, "note_off_time": 19.194}, {"pitch": 48, "velocity": 40, "note_on_time": 18.18, "note_off_time": 19.194}, {"pitch": 52, "velocity": 40, "note_on_time": 19.195, "note_off_time": 20.205}, {"pitch": 55, "velocity": 40, "note_on_time": 19.195, "note_off_time": 20.205}, {"pitch": 48, "velocity": 40, "note_on_time": 20.205, "note_off_time": 21.217}, {"pitch": 52, "velocity": 40, "note_on_time": 21.217, "note_off_time": 22.226}, {"pitch": 55, "velocity": 40, "note_on_time": 21.217, "note_off_time": 22.226}, {"pitch": 48, "velocity": 40, "note_on_time": 22.226, "note_off_time": 23.235}, {"pitch": 52, "velocity": 40, "note_on_time": 23.235, "note_off_time": 24.242}, {"pitch": 55, "velocity": 40, "note_on_time": 23.235, "note_off_time": 24.242}, {"pitch": 60, "velocity": 40, "note_on_time": 24.241, "note_off_time": 25.247}, {"pitch": 64, "velocity": 40, "note_on_time": 24.242, "note_off_time": 25.248}, {"pitch": 67, "velocity": 40, "note_on_time": 24.242, "note_off_time": 25.249}, {"pitch": 48, "velocity": 40, "note_on_time": 24.242, "note_off_time": 25.249}, {"pitch": 52, "velocity": 40, "note_on_time": 25.249, "note_off_time": 26.258}, {"pitch": 55, "velocity": 40, "note_on_time": 25.249, "note_off_time": 26.258}, {"pitch": 76, "velocity": 40, "note_on_time": 26.257, "note_off_time": 27.26}, {"pitch": 48, "velocity": 40, "note_on_time": 26.258, "note_off_time": 27.26}, {"pitch": 52, "velocity": 40, "note_on_time": 27.261, "note_off_time": 28.271}, {"pitch": 55, "velocity": 40, "note_on_time": 27.261, "note_off_time": 28.271}, {"pitch": 48, "velocity": 40, "note_on_time": 28.271, "note_off_time": 29.288}, {"pitch": 52, "velocity": 40, "note_on_time": 29.288, "note_off_time": 30.292}, {"pitch": 55, "velocity": 40, "note_on_time": 29.288, "note_off_time": 30.292}, {"pitch": 48, "velocity": 40, "note_on_time": 30.292, "note_off_time": 31.298}, {"pitch": 52, "velocity": 40, "note_on_time": 31.298, "note_off_time": 32.304}, {"pitch": 55, "velocity": 40, "note_on_time": 31.298, "note_off_time": 32.304}, {"pitch": 60, "velocity": 40, "note_on_time": 32.302, "note_off_time": 33.309}, {"pitch": 64, "velocity": 40, "note_on_time": 32.303, "note_off_time": 33.31}, {"pitch": 67, "velocity": 40, "note_on_time": 32.304, "note_off_time": 33.312}, {"pitch": 48, "velocity": 40, "note_on_time": 32.304, "note_off_time": 33.312}, {"pitch": 52, "velocity": 40, "note_on_time": 33.312, "note_off_time": 34.322}, {"pitch": 55, "velocity": 40, "note_on_time": 33.312, "note_off_time": 34.322}, {"pitch": 74, "velocity": 40, "note_on_time": 34.322, "note_off_time": 35.334}, {"pitch": 48, "velocity": 40, "note_on_time": 34.322, "note_off_time": 35.335}, {"pitch": 52, "velocity": 40, "note_on_time": 35.335, "note_off_time": 36.347}, {"pitch": 55, "velocity": 40, "note_on_time": 35.335, "note_off_time": 36.347}, {"pitch": 48, "velocity": 40, "note_on_time": 36.347, "note_off_time": 37.355}, {"pitch": 52, "velocity": 40, "note_on_time": 37.355, "note_off_time": 38.368}, {"pitch": 55, "velocity": 40, "note_on_time": 37.355, "note_off_time": 38.368}, {"pitch": 48, "velocity": 40, "note_on_time": 38.368, "note_off_time": 39.381}, {"pitch": 52, "velocity": 40, "note_on_time": 39.381, "note_off_time": 40.39}, {"pitch": 55, "velocity": 40, "note_on_time": 39.381, "note_off_time": 40.391}, {"pitch": 60, "velocity": 40, "note_on_time": 40.389, "note_off_time": 41.406}, {"pitch": 64, "velocity": 40, "note_on_time": 40.39, "note_off_time": 41.407}, {"pitch": 67, "velocity": 40, "note_on_time": 40.39, "note_off_time": 41.407}, {"pitch": 72, "velocity": 40, "note_on_time": 42.419, "note_off_time": 43.434}, {"pitch": 60, "velocity": 40, "note_on_time": 48.444, "note_off_time": 49.452}, {"pitch": 64, "velocity": 40, "note_on_time": 48.445, "note_off_time": 49.452}, {"pitch": 67, "velocity": 40, "note_on_time": 48.445, "note_off_time": 49.453}, {"pitch": 79, "velocity": 40, "note_on_time": 50.468, "note_off_time": 51.471}, {"pitch": 60, "velocity": 40, "note_on_time": 56.476, "note_off_time": 57.488}, {"pitch": 64, "velocity": 40, "note_on_time": 56.477, "note_off_time": 57.489}, {"pitch": 67, "velocity": 40, "note_on_time": 56.477, "note_off_time": 57.49}, {"pitch": 74, "velocity": 40, "note_on_time": 58.497, "note_off_time": 59.509}, {"pitch": 60, "velocity": 40, "note_on_time": 64.52, "note_off_time": 65.527}, {"pitch": 64, "velocity": 40, "note_on_time": 64.521, "note_off_time": 65.528}, {"pitch": 67, "velocity": 40, "note_on_time": 64.521, "note_off_time": 65.529}, {"pitch": 76, "velocity": 40, "note_on_time": 66.539, "note_off_time": 67.551}, {"pitch": 60, "velocity": 40, "note_on_time": 72.561, "note_off_time": 73.575}, {"pitch": 64, "velocity": 40, "note_on_time": 72.562, "note_off_time": 73.576}, {"pitch": 67, "velocity": 40, "note_on_time": 72.562, "note_off_time": 73.576}, {"pitch": 77, "velocity": 40, "note_on_time": 74.581, "note_off_time": 75.589}, {"pitch": 60, "velocity": 40, "note_on_time": 80.601, "note_off_time": 81.615}, {"pitch": 64, "velocity": 40, "note_on_time": 80.602, "note_off_time": 81.615}, {"pitch": 67, "velocity": 40, "note_on_time": 80.602, "note_off_time": 81.615}, {"pitch": 79, "velocity": 40, "note_on_time": 82.618, "note_off_time": 83.63}, {"pitch": 60, "velocity": 40, "note_on_time": 88.638, "note_off_time": 89.652}, {"pitch": 64, "velocity": 40, "note_on_time": 88.64, "note_off_time": 89.652}, {"pitch": 67, "velocity": 40, "note_on_time": 88.64, "note_off_time": 89.653}, {"pitch": 72, "velocity": 40, "note_on_time": 90.66, "note_off_time": 91.671}, {"pitch": 60, "velocity": 40, "note_on_time": 96.687, "note_off_time": 97.689}, {"pitch": 64, "velocity": 40, "note_on_time": 96.688, "note_off_time": 97.69}, {"pitch": 67, "velocity": 40, "note_on_time": 96.688, "note_off_time": 97.691}, {"pitch": 77, "velocity": 40, "note_on_time": 98.695, "note_off_time": 99.712}, {"pitch": 60, "velocity": 40, "note_on_time": 104.724, "note_off_time": 105.741}, {"pitch": 64, "velocity": 40, "note_on_time": 104.725, "note_off_time": 105.741}, {"pitch": 67, "velocity": 40, "note_on_time": 104.727, "note_off_time": 105.742}, {"pitch": 79, "velocity": 40, "note_on_time": 106.756, "note_off_time": 107.767}, {"pitch": 60, "velocity": 40, "note_on_time": 112.781, "note_off_time": 113.818}, {"pitch": 64, "velocity": 40, "note_on_time": 112.781, "note_off_time": 113.818}, {"pitch": 67, "velocity": 40, "note_on_time": 112.782, "note_off_time": 113.819}, {"pitch": 77, "velocity": 40, "note_on_time": 114.829, "note_off_time": 115.84}, {"pitch": 60, "velocity": 40, "note_on_time": 120.846, "note_off_time": 121.856}, {"pitch": 64, "velocity": 40, "note_on_time": 120.846, "note_off_time": 121.857}, {"pitch": 67, "velocity": 40, "note_on_time": 120.846, "note_off_time": 121.858}, {"pitch": 74, "velocity": 40, "note_on_time": 122.862, "note_off_time": 123.872}, {"pitch": 60, "velocity": 40, "note_on_time": 128.886, "note_off_time": 129.89}, {"pitch": 64, "velocity": 40, "note_on_time": 128.886, "note_off_time": 129.891}, {"pitch": 67, "velocity": 40, "note_on_time": 128.887, "note_off_time": 129.891}, {"pitch": 72, "velocity": 40, "note_on_time": 130.899, "note_off_time": 131.905}, {"pitch": 60, "velocity": 40, "note_on_time": 136.915, "note_off_time": 137.923}, {"pitch": 64, "velocity": 40, "note_on_time": 136.916, "note_off_time": 137.923}, {"pitch": 67, "velocity": 40, "note_on_time": 136.916, "note_off_time": 137.923}, {"pitch": 76, "velocity": 40, "note_on_time": 138.935, "note_off_time": 139.949}, {"pitch": 60, "velocity": 40, "note_on_time": 144.961, "note_off_time": 145.979}, {"pitch": 64, "velocity": 40, "note_on_time": 144.962, "note_off_time": 145.979}, {"pitch": 67, "velocity": 40, "note_on_time": 144.962, "note_off_time": 145.98}, {"pitch": 79, "velocity": 40, "note_on_time": 146.992, "note_off_time": 147.993}, {"pitch": 60, "velocity": 40, "note_on_time": 152.998, "note_off_time": 154.006}, {"pitch": 64, "velocity": 40, "note_on_time": 152.999, "note_off_time": 154.007}, {"pitch": 67, "velocity": 40, "note_on_time": 152.999, "note_off_time": 154.008}, {"pitch": 74, "velocity": 40, "note_on_time": 155.012, "note_off_time": 156.017}, {"pitch": 60, "velocity": 40, "note_on_time": 161.021, "note_off_time": 162.036}, {"pitch": 64, "velocity": 40, "note_on_time": 161.022, "note_off_time": 162.037}, {"pitch": 67, "velocity": 40, "note_on_time": 161.023, "note_off_time": 162.038}, {"pitch": 76, "velocity": 40, "note_on_time": 163.045, "note_off_time": 164.052}]</notes><options name="Option List">((4, 4), [0.5, 0.25], 3, 8, &lt;NoteRangePerHand.TWO_NOTES: 3&gt;, &lt;NoteRangePerHand.ONE_NOTE: 2&gt;, False, True, True, 100)</options></target_notes><trials><trial trial_no="1" timestamp="2023_06_19-16_16_22"><notes name="Played Notes">[{"pitch": 76, "velocity": 44, "note_on_time": 3.867, "note_off_time": 4.125}, {"pitch": 77, "velocity": 70, "note_on_time": 13.138, "note_off_time": 13.447}, {"pitch": 72, "velocity": 66, "note_on_time": 19.049, "note_off_time": 19.269}, {"pitch": 72, "velocity": 67, "note_on_time": 19.637, "note_off_time": 19.844}, {"pitch": 74, "velocity": 66, "note_on_time": 27.365, "note_off_time": 27.589}, {"pitch": 76, "velocity": 33, "note_on_time": 28.572, "note_off_time": 28.838}, {"pitch": 76, "velocity": 55, "note_on_time": 29.148, "note_off_time": 29.356}, {"pitch": 74, "velocity": 76, "note_on_time": 36.288, "note_off_time": 36.519}, {"pitch": 72, "velocity": 60, "note_on_time": 44.168, "note_off_time": 44.429}, {"pitch": 77, "velocity": 57, "note_on_time": 53.254, "note_off_time": 53.583}, {"pitch": 79, "velocity": 52, "note_on_time": 53.897, "note_off_time": 54.142}, {"pitch": 79, "velocity": 56, "note_on_time": 54.731, "note_off_time": 54.956}, {"pitch": 72, "velocity": 48, "note_on_time": 59.273, "note_off_time": 59.427}, {"pitch": 74, "velocity": 43, "note_on_time": 59.97, "note_off_time": 60.155}, {"pitch": 74, "velocity": 49, "note_on_time": 60.433, "note_off_time": 60.574}, {"pitch": 76, "velocity": 51, "note_on_time": 68.632, "note_off_time": 68.959}, {"pitch": 74, "velocity": 46, "note_on_time": 76.154, "note_off_time": 76.597}, {"pitch": 76, "velocity": 44, "note_on_time": 76.988, "note_off_time": 77.218}, {"pitch": 74, "velocity": 60, "note_on_time": 83.995, "note_off_time": 84.387}, {"pitch": 76, "velocity": 19, "note_on_time": 85.525, "note_off_time": 85.914}, {"pitch": 76, "velocity": 56, "note_on_time": 86.311, "note_off_time": 86.527}, {"pitch": 72, "velocity": 48, "note_on_time": 93.236, "note_off_time": 93.874}, {"pitch": 79, "velocity": 62, "note_on_time": 101.353, "note_off_time": 101.77}, {"pitch": 77, "velocity": 45, "note_on_time": 101.992, "note_off_time": 102.344}, {"pitch": 77, "velocity": 55, "note_on_time": 102.858, "note_off_time": 103.067}, {"pitch": 79, "velocity": 50, "note_on_time": 109.427, "note_off_time": 109.713}, {"pitch": 74, "velocity": 66, "note_on_time": 117.289, "note_off_time": 117.71}, {"pitch": 76, "velocity": 40, "note_on_time": 117.96, "note_off_time": 118.237}, {"pitch": 74, "velocity": 45, "note_on_time": 119.306, "note_off_time": 119.497}, {"pitch": 74, "velocity": 56, "note_on_time": 125.532, "note_off_time": 126.04}, {"pitch": 72, "velocity": 49, "note_on_time": 132.448, "note_off_time": 133.182}, {"pitch": 74, "velocity": 63, "note_on_time": 140.995, "note_off_time": 141.39}, {"pitch": 76, "velocity": 40, "note_on_time": 141.639, "note_off_time": 142.05}, {"pitch": 76, "velocity": 55, "note_on_time": 142.285, "note_off_time": 142.537}, {"pitch": 79, "velocity": 39, "note_on_time": 148.368, "note_off_time": 148.954}, {"pitch": 79, "velocity": 25, "note_on_time": 156.907, "note_off_time": 157.33}, {"pitch": 77, "velocity": 1, "note_on_time": 157.619, "note_off_time": 157.968}, {"pitch": 76, "velocity": 43, "note_on_time": 158.255, "note_off_time": 158.589}, {"pitch": 74, "velocity": 33, "note_on_time": 158.817, "note_off_time": 159.088}, {"pitch": 74, "velocity": 59, "note_on_time": 159.414, "note_off_time": 159.704}]</notes><guidance name="Guidance Mode">None</guidance><error name="Error value">99</error></trial></trials></MIDI>