<MIDI midiNo="2023_06_06-11_41_25"><target_notes><notes name="Note List">[{"pitch": 60, "velocity": 40, "note_on_time": 0.012, "note_off_time": 1.025}, {"pitch": 64, "velocity": 40, "note_on_time": 0.013, "note_off_time": 1.026}, {"pitch": 67, "velocity": 40, "note_on_time": 0.013, "note_off_time": 1.026}, {"pitch": 48, "velocity": 40, "note_on_time": 0.013, "note_off_time": 1.026}, {"pitch": 52, "velocity": 40, "note_on_time": 1.027, "note_off_time": 2.039}, {"pitch": 55, "velocity": 40, "note_on_time": 1.027, "note_off_time": 2.04}, {"pitch": 72, "velocity": 40, "note_on_time": 2.039, "note_off_time": 3.051}, {"pitch": 48, "velocity": 40, "note_on_time": 2.041, "note_off_time": 3.051}, {"pitch": 52, "velocity": 40, "note_on_time": 3.051, "note_off_time": 4.063}, {"pitch": 55, "velocity": 40, "note_on_time": 3.051, "note_off_time": 4.063}, {"pitch": 48, "velocity": 40, "note_on_time": 4.063, "note_off_time": 5.073}, {"pitch": 52, "velocity": 40, "note_on_time": 5.073, "note_off_time": 6.087}, {"pitch": 55, "velocity": 40, "note_on_time": 5.073, "note_off_time": 6.087}, {"pitch": 48, "velocity": 40, "note_on_time": 6.087, "note_off_time": 7.098}, {"pitch": 52, "velocity": 40, "note_on_time": 7.098, "note_off_time": 8.114}, {"pitch": 55, "velocity": 40, "note_on_time": 7.098, "note_off_time": 8.114}, {"pitch": 60, "velocity": 40, "note_on_time": 8.112, "note_off_time": 9.12}, {"pitch": 64, "velocity": 40, "note_on_time": 8.113, "note_off_time": 9.121}, {"pitch": 67, "velocity": 40, "note_on_time": 8.114, "note_off_time": 9.121}, {"pitch": 48, "velocity": 40, "note_on_time": 8.114, "note_off_time": 9.121}, {"pitch": 52, "velocity": 40, "note_on_time": 9.122, "note_off_time": 10.134}, {"pitch": 55, "velocity": 40, "note_on_time": 9.122, "note_off_time": 10.135}, {"pitch": 79, "velocity": 40, "note_on_time": 10.134, "note_off_time": 11.146}, {"pitch": 48, "velocity": 40, "note_on_time": 10.135, "note_off_time": 11.146}, {"pitch": 52, "velocity": 40, "note_on_time": 11.147, "note_off_time": 12.16}, {"pitch": 55, "velocity": 40, "note_on_time": 11.147, "note_off_time": 12.16}, {"pitch": 48, "velocity": 40, "note_on_time": 12.16, "note_off_time": 13.17}, {"pitch": 52, "velocity": 40, "note_on_time": 13.17, "note_off_time": 14.181}, {"pitch": 55, "velocity": 40, "note_on_time": 13.17, "note_off_time": 14.181}, {"pitch": 48, "velocity": 40, "note_on_time": 14.181, "note_off_time": 15.193}, {"pitch": 52, "velocity": 40, "note_on_time": 15.193, "note_off_time": 16.205}, {"pitch": 55, "velocity": 40, "note_on_time": 15.193, "note_off_time": 16.205}, {"pitch": 60, "velocity": 40, "note_on_time": 16.204, "note_off_time": 17.216}, {"pitch": 64, "velocity": 40, "note_on_time": 16.205, "note_off_time": 17.218}, {"pitch": 67, "velocity": 40, "note_on_time": 16.205, "note_off_time": 17.218}, {"pitch": 48, "velocity": 40, "note_on_time": 16.206, "note_off_time": 17.218}, {"pitch": 52, "velocity": 40, "note_on_time": 17.218, "note_off_time": 18.222}, {"pitch": 55, "velocity": 40, "note_on_time": 17.218, "note_off_time": 18.222}, {"pitch": 74, "velocity": 40, "note_on_time": 18.221, "note_off_time": 19.229}, {"pitch": 48, "velocity": 40, "note_on_time": 18.222, "note_off_time": 19.229}, {"pitch": 52, "velocity": 40, "note_on_time": 19.229, "note_off_time": 20.234}, {"pitch": 55, "velocity": 40, "note_on_time": 19.229, "note_off_time": 20.234}, {"pitch": 48, "velocity": 40, "note_on_time": 20.234, "note_off_time": 21.248}, {"pitch": 52, "velocity": 40, "note_on_time": 21.248, "note_off_time": 22.254}, {"pitch": 55, "velocity": 40, "note_on_time": 21.248, "note_off_time": 22.254}, {"pitch": 48, "velocity": 40, "note_on_time": 22.254, "note_off_time": 23.266}, {"pitch": 52, "velocity": 40, "note_on_time": 23.266, "note_off_time": 24.283}, {"pitch": 55, "velocity": 40, "note_on_time": 23.266, "note_off_time": 24.283}, {"pitch": 60, "velocity": 40, "note_on_time": 24.282, "note_off_time": 25.294}, {"pitch": 64, "velocity": 40, "note_on_time": 24.282, "note_off_time": 25.295}, {"pitch": 67, "velocity": 40, "note_on_time": 24.283, "note_off_time": 25.295}, {"pitch": 48, "velocity": 40, "note_on_time": 24.283, "note_off_time": 25.296}, {"pitch": 52, "velocity": 40, "note_on_time": 25.296, "note_off_time": 26.308}, {"pitch": 55, "velocity": 40, "note_on_time": 25.296, "note_off_time": 26.309}, {"pitch": 79, "velocity": 40, "note_on_time": 26.308, "note_off_time": 27.315}, {"pitch": 48, "velocity": 40, "note_on_time": 26.309, "note_off_time": 27.315}, {"pitch": 52, "velocity": 40, "note_on_time": 27.315, "note_off_time": 28.323}, {"pitch": 55, "velocity": 40, "note_on_time": 27.315, "note_off_time": 28.323}, {"pitch": 48, "velocity": 40, "note_on_time": 28.323, "note_off_time": 29.339}, {"pitch": 52, "velocity": 40, "note_on_time": 29.339, "note_off_time": 30.341}, {"pitch": 55, "velocity": 40, "note_on_time": 29.339, "note_off_time": 30.341}, {"pitch": 48, "velocity": 40, "note_on_time": 30.341, "note_off_time": 31.343}, {"pitch": 52, "velocity": 40, "note_on_time": 31.343, "note_off_time": 32.356}, {"pitch": 55, "velocity": 40, "note_on_time": 31.343, "note_off_time": 32.357}, {"pitch": 60, "velocity": 40, "note_on_time": 32.355, "note_off_time": 33.362}, {"pitch": 64, "velocity": 40, "note_on_time": 32.356, "note_off_time": 33.363}, {"pitch": 67, "velocity": 40, "note_on_time": 32.356, "note_off_time": 33.363}, {"pitch": 48, "velocity": 40, "note_on_time": 32.357, "note_off_time": 33.363}, {"pitch": 52, "velocity": 40, "note_on_time": 33.363, "note_off_time": 34.37}, {"pitch": 55, "velocity": 40, "note_on_time": 33.363, "note_off_time": 34.371}, {"pitch": 77, "velocity": 40, "note_on_time": 34.37, "note_off_time": 35.379}, {"pitch": 48, "velocity": 40, "note_on_time": 34.371, "note_off_time": 35.379}, {"pitch": 52, "velocity": 40, "note_on_time": 35.38, "note_off_time": 36.389}, {"pitch": 55, "velocity": 40, "note_on_time": 35.38, "note_off_time": 36.389}, {"pitch": 48, "velocity": 40, "note_on_time": 36.389, "note_off_time": 37.421}, {"pitch": 52, "velocity": 40, "note_on_time": 37.421, "note_off_time": 38.422}, {"pitch": 55, "velocity": 40, "note_on_time": 37.421, "note_off_time": 38.422}, {"pitch": 48, "velocity": 40, "note_on_time": 38.422, "note_off_time": 39.423}, {"pitch": 52, "velocity": 40, "note_on_time": 39.423, "note_off_time": 40.438}, {"pitch": 55, "velocity": 40, "note_on_time": 39.423, "note_off_time": 40.438}, {"pitch": 60, "velocity": 40, "note_on_time": 40.437, "note_off_time": 41.45}, {"pitch": 64, "velocity": 40, "note_on_time": 40.437, "note_off_time": 41.451}, {"pitch": 67, "velocity": 40, "note_on_time": 40.438, "note_off_time": 41.451}, {"pitch": 72, "velocity": 40, "note_on_time": 42.463, "note_off_time": 43.475}, {"pitch": 60, "velocity": 40, "note_on_time": 48.523, "note_off_time": 49.526}, {"pitch": 64, "velocity": 40, "note_on_time": 48.523, "note_off_time": 49.526}, {"pitch": 67, "velocity": 40, "note_on_time": 48.524, "note_off_time": 49.527}, {"pitch": 77, "velocity": 40, "note_on_time": 50.55, "note_off_time": 51.553}, {"pitch": 60, "velocity": 40, "note_on_time": 56.562, "note_off_time": 57.573}, {"pitch": 64, "velocity": 40, "note_on_time": 56.562, "note_off_time": 57.574}, {"pitch": 67, "velocity": 40, "note_on_time": 56.563, "note_off_time": 57.574}, {"pitch": 79, "velocity": 40, "note_on_time": 58.588, "note_off_time": 59.603}, {"pitch": 60, "velocity": 40, "note_on_time": 64.614, "note_off_time": 65.627}, {"pitch": 64, "velocity": 40, "note_on_time": 64.615, "note_off_time": 65.628}, {"pitch": 67, "velocity": 40, "note_on_time": 64.615, "note_off_time": 65.628}, {"pitch": 76, "velocity": 40, "note_on_time": 66.642, "note_off_time": 67.654}, {"pitch": 60, "velocity": 40, "note_on_time": 72.656, "note_off_time": 73.672}, {"pitch": 64, "velocity": 40, "note_on_time": 72.657, "note_off_time": 73.673}, {"pitch": 67, "velocity": 40, "note_on_time": 72.657, "note_off_time": 73.673}, {"pitch": 74, "velocity": 40, "note_on_time": 74.684, "note_off_time": 75.69}, {"pitch": 60, "velocity": 40, "note_on_time": 80.693, "note_off_time": 81.71}, {"pitch": 64, "velocity": 40, "note_on_time": 80.694, "note_off_time": 81.711}, {"pitch": 67, "velocity": 40, "note_on_time": 80.694, "note_off_time": 81.711}, {"pitch": 76, "velocity": 40, "note_on_time": 82.723, "note_off_time": 83.733}, {"pitch": 60, "velocity": 40, "note_on_time": 88.746, "note_off_time": 89.762}, {"pitch": 64, "velocity": 40, "note_on_time": 88.747, "note_off_time": 89.762}, {"pitch": 67, "velocity": 40, "note_on_time": 88.747, "note_off_time": 89.763}, {"pitch": 72, "velocity": 40, "note_on_time": 90.787, "note_off_time": 91.789}, {"pitch": 60, "velocity": 40, "note_on_time": 96.801, "note_off_time": 97.814}, {"pitch": 64, "velocity": 40, "note_on_time": 96.802, "note_off_time": 97.815}, {"pitch": 67, "velocity": 40, "note_on_time": 96.802, "note_off_time": 97.815}, {"pitch": 79, "velocity": 40, "note_on_time": 98.828, "note_off_time": 99.839}, {"pitch": 60, "velocity": 40, "note_on_time": 104.845, "note_off_time": 105.861}, {"pitch": 64, "velocity": 40, "note_on_time": 104.846, "note_off_time": 105.862}, {"pitch": 67, "velocity": 40, "note_on_time": 104.847, "note_off_time": 105.862}, {"pitch": 72, "velocity": 40, "note_on_time": 106.876, "note_off_time": 107.889}, {"pitch": 60, "velocity": 40, "note_on_time": 112.898, "note_off_time": 113.906}, {"pitch": 64, "velocity": 40, "note_on_time": 112.899, "note_off_time": 113.907}, {"pitch": 67, "velocity": 40, "note_on_time": 112.899, "note_off_time": 113.907}, {"pitch": 77, "velocity": 40, "note_on_time": 114.911, "note_off_time": 115.924}, {"pitch": 60, "velocity": 40, "note_on_time": 120.927, "note_off_time": 121.94}, {"pitch": 64, "velocity": 40, "note_on_time": 120.928, "note_off_time": 121.941}, {"pitch": 67, "velocity": 40, "note_on_time": 120.928, "note_off_time": 121.941}, {"pitch": 76, "velocity": 40, "note_on_time": 122.957, "note_off_time": 123.981}, {"pitch": 60, "velocity": 40, "note_on_time": 128.997, "note_off_time": 130.012}, {"pitch": 64, "velocity": 40, "note_on_time": 128.998, "note_off_time": 130.013}, {"pitch": 67, "velocity": 40, "note_on_time": 128.998, "note_off_time": 130.013}, {"pitch": 77, "velocity": 40, "note_on_time": 131.016, "note_off_time": 132.019}, {"pitch": 60, "velocity": 40, "note_on_time": 137.032, "note_off_time": 138.037}, {"pitch": 64, "velocity": 40, "note_on_time": 137.033, "note_off_time": 138.038}, {"pitch": 67, "velocity": 40, "note_on_time": 137.033, "note_off_time": 138.038}, {"pitch": 74, "velocity": 40, "note_on_time": 139.047, "note_off_time": 140.063}, {"pitch": 60, "velocity": 40, "note_on_time": 145.077, "note_off_time": 146.087}, {"pitch": 64, "velocity": 40, "note_on_time": 145.078, "note_off_time": 146.088}, {"pitch": 67, "velocity": 40, "note_on_time": 145.078, "note_off_time": 146.088}, {"pitch": 76, "velocity": 40, "note_on_time": 147.099, "note_off_time": 148.114}, {"pitch": 60, "velocity": 40, "note_on_time": 153.126, "note_off_time": 154.129}, {"pitch": 64, "velocity": 40, "note_on_time": 153.127, "note_off_time": 154.13}, {"pitch": 67, "velocity": 40, "note_on_time": 153.127, "note_off_time": 154.13}, {"pitch": 74, "velocity": 40, "note_on_time": 155.144, "note_off_time": 156.154}, {"pitch": 60, "velocity": 40, "note_on_time": 161.161, "note_off_time": 162.177}, {"pitch": 64, "velocity": 40, "note_on_time": 161.162, "note_off_time": 162.178}, {"pitch": 67, "velocity": 40, "note_on_time": 161.162, "note_off_time": 162.178}, {"pitch": 72, "velocity": 40, "note_on_time": 163.192, "note_off_time": 164.198}]</notes><options name="Option List">((4, 4), [0.5, 0.25], 3, 8, &lt;NoteRangePerHand.TWO_NOTES: 3&gt;, &lt;NoteRangePerHand.ONE_NOTE: 2&gt;, False, True, True, 100)</options></target_notes><trials><trial trial_no="1" timestamp="2023_06_06-11_38_41"><notes name="Played Notes">[{"pitch": 77, "velocity": 64, "note_on_time": 3.196, "note_off_time": 3.659}, {"pitch": 76, "velocity": 82, "note_on_time": 3.961, "note_off_time": 4.871}, {"pitch": 74, "velocity": 77, "note_on_time": 5.038, "note_off_time": 5.485}, {"pitch": 72, "velocity": 56, "note_on_time": 6.146, "note_off_time": 6.701}, {"pitch": 72, "velocity": 75, "note_on_time": 6.87, "note_off_time": 8.803}, {"pitch": 77, "velocity": 69, "note_on_time": 11.622, "note_off_time": 11.978}, {"pitch": 79, "velocity": 86, "note_on_time": 12.425, "note_off_time": 15.628}, {"pitch": 77, "velocity": 68, "note_on_time": 19.581, "note_off_time": 19.927}, {"pitch": 76, "velocity": 81, "note_on_time": 20.253, "note_off_time": 20.851}, {"pitch": 74, "velocity": 91, "note_on_time": 21.261, "note_off_time": 25.399}, {"pitch": 79, "velocity": 75, "note_on_time": 27.311, "note_off_time": 27.654}, {"pitch": 79, "velocity": 86, "note_on_time": 27.845, "note_off_time": 33.223}, {"pitch": 77, "velocity": 80, "note_on_time": 35.744, "note_off_time": 36.991}, {"pitch": 72, "velocity": 67, "note_on_time": 43.905, "note_off_time": 45.493}, {"pitch": 79, "velocity": 70, "note_on_time": 51.68, "note_off_time": 52.031}, {"pitch": 77, "velocity": 85, "note_on_time": 52.332, "note_off_time": 52.709}, {"pitch": 77, "velocity": 72, "note_on_time": 53.23, "note_off_time": 55.513}, {"pitch": 79, "velocity": 82, "note_on_time": 59.558, "note_off_time": 59.886}, {"pitch": 79, "velocity": 83, "note_on_time": 60.045, "note_off_time": 64.208}, {"pitch": 72, "velocity": 68, "note_on_time": 68.21, "note_off_time": 68.533}, {"pitch": 74, "velocity": 84, "note_on_time": 68.666, "note_off_time": 69.075}, {"pitch": 76, "velocity": 82, "note_on_time": 69.463, "note_off_time": 70.234}, {"pitch": 76, "velocity": 56, "note_on_time": 70.414, "note_off_time": 71.374}, {"pitch": 77, "velocity": 62, "note_on_time": 76.353, "note_off_time": 76.66}, {"pitch": 74, "velocity": 74, "note_on_time": 76.99, "note_off_time": 78.86}, {"pitch": 76, "velocity": 67, "note_on_time": 84.68, "note_off_time": 86.001}, {"pitch": 72, "velocity": 57, "note_on_time": 91.898, "note_off_time": 93.28}, {"pitch": 79, "velocity": 80, "note_on_time": 99.759, "note_off_time": 100.055}, {"pitch": 79, "velocity": 84, "note_on_time": 100.214, "note_off_time": 101.867}, {"pitch": 76, "velocity": 86, "note_on_time": 108.509, "note_off_time": 108.844}, {"pitch": 77, "velocity": 78, "note_on_time": 109.023, "note_off_time": 109.358}, {"pitch": 72, "velocity": 71, "note_on_time": 109.725, "note_off_time": 116.139}, {"pitch": 76, "velocity": 69, "note_on_time": 116.551, "note_off_time": 116.923}, {"pitch": 77, "velocity": 84, "note_on_time": 117.077, "note_off_time": 118.968}, {"pitch": 77, "velocity": 73, "note_on_time": 124.264, "note_off_time": 124.713}, {"pitch": 76, "velocity": 77, "note_on_time": 125.053, "note_off_time": 128.643}, {"pitch": 77, "velocity": 59, "note_on_time": 132.933, "note_off_time": 134.457}, {"pitch": 72, "velocity": 64, "note_on_time": 140.283, "note_off_time": 140.623}, {"pitch": 74, "velocity": 72, "note_on_time": 141.142, "note_off_time": 146.528}, {"pitch": 77, "velocity": 64, "note_on_time": 148.54, "note_off_time": 148.884}, {"pitch": 76, "velocity": 85, "note_on_time": 149.008, "note_off_time": 151.973}, {"pitch": 72, "velocity": 56, "note_on_time": 156.527, "note_off_time": 157.211}, {"pitch": 74, "velocity": 79, "note_on_time": 157.327, "note_off_time": 159.893}, {"pitch": 76, "velocity": 34, "note_on_time": 159.888, "note_off_time": 160.211}]</notes><guidance name="Guidance Mode">None</guidance><error name="Error value">99</error></trial></trials></MIDI>