<MIDI midiNo="2023_06_14-12_34_08"><target_notes><notes name="Note List">[{"pitch": 60, "velocity": 40, "note_on_time": 0.009, "note_off_time": 1.013}, {"pitch": 64, "velocity": 40, "note_on_time": 0.009, "note_off_time": 1.014}, {"pitch": 67, "velocity": 40, "note_on_time": 0.009, "note_off_time": 1.014}, {"pitch": 48, "velocity": 40, "note_on_time": 0.009, "note_off_time": 1.015}, {"pitch": 52, "velocity": 40, "note_on_time": 1.015, "note_off_time": 2.026}, {"pitch": 55, "velocity": 40, "note_on_time": 1.015, "note_off_time": 2.026}, {"pitch": 77, "velocity": 40, "note_on_time": 2.026, "note_off_time": 3.038}, {"pitch": 48, "velocity": 40, "note_on_time": 2.026, "note_off_time": 3.038}, {"pitch": 52, "velocity": 40, "note_on_time": 3.039, "note_off_time": 4.049}, {"pitch": 55, "velocity": 40, "note_on_time": 3.039, "note_off_time": 4.049}, {"pitch": 48, "velocity": 40, "note_on_time": 4.049, "note_off_time": 5.058}, {"pitch": 52, "velocity": 40, "note_on_time": 5.058, "note_off_time": 6.066}, {"pitch": 55, "velocity": 40, "note_on_time": 5.058, "note_off_time": 6.066}, {"pitch": 48, "velocity": 40, "note_on_time": 6.067, "note_off_time": 7.076}, {"pitch": 52, "velocity": 40, "note_on_time": 7.076, "note_off_time": 8.09}, {"pitch": 55, "velocity": 40, "note_on_time": 7.076, "note_off_time": 8.09}, {"pitch": 60, "velocity": 40, "note_on_time": 8.088, "note_off_time": 9.105}, {"pitch": 64, "velocity": 40, "note_on_time": 8.09, "note_off_time": 9.106}, {"pitch": 67, "velocity": 40, "note_on_time": 8.09, "note_off_time": 9.106}, {"pitch": 48, "velocity": 40, "note_on_time": 8.09, "note_off_time": 9.106}, {"pitch": 52, "velocity": 40, "note_on_time": 9.107, "note_off_time": 10.111}, {"pitch": 55, "velocity": 40, "note_on_time": 9.107, "note_off_time": 10.112}, {"pitch": 79, "velocity": 40, "note_on_time": 10.111, "note_off_time": 11.119}, {"pitch": 48, "velocity": 40, "note_on_time": 10.112, "note_off_time": 11.119}, {"pitch": 52, "velocity": 40, "note_on_time": 11.119, "note_off_time": 12.129}, {"pitch": 55, "velocity": 40, "note_on_time": 11.119, "note_off_time": 12.129}, {"pitch": 48, "velocity": 40, "note_on_time": 12.129, "note_off_time": 13.141}, {"pitch": 52, "velocity": 40, "note_on_time": 13.141, "note_off_time": 14.154}, {"pitch": 55, "velocity": 40, "note_on_time": 13.141, "note_off_time": 14.154}, {"pitch": 48, "velocity": 40, "note_on_time": 14.154, "note_off_time": 15.167}, {"pitch": 52, "velocity": 40, "note_on_time": 15.167, "note_off_time": 16.171}, {"pitch": 55, "velocity": 40, "note_on_time": 15.167, "note_off_time": 16.171}, {"pitch": 60, "velocity": 40, "note_on_time": 16.169, "note_off_time": 17.178}, {"pitch": 64, "velocity": 40, "note_on_time": 16.17, "note_off_time": 17.179}, {"pitch": 67, "velocity": 40, "note_on_time": 16.171, "note_off_time": 17.18}, {"pitch": 48, "velocity": 40, "note_on_time": 16.171, "note_off_time": 17.18}, {"pitch": 52, "velocity": 40, "note_on_time": 17.18, "note_off_time": 18.187}, {"pitch": 55, "velocity": 40, "note_on_time": 17.18, "note_off_time": 18.187}, {"pitch": 74, "velocity": 40, "note_on_time": 18.186, "note_off_time": 19.202}, {"pitch": 48, "velocity": 40, "note_on_time": 18.187, "note_off_time": 19.202}, {"pitch": 52, "velocity": 40, "note_on_time": 19.203, "note_off_time": 20.215}, {"pitch": 55, "velocity": 40, "note_on_time": 19.203, "note_off_time": 20.215}, {"pitch": 48, "velocity": 40, "note_on_time": 20.215, "note_off_time": 21.228}, {"pitch": 52, "velocity": 40, "note_on_time": 21.228, "note_off_time": 22.234}, {"pitch": 55, "velocity": 40, "note_on_time": 21.228, "note_off_time": 22.234}, {"pitch": 48, "velocity": 40, "note_on_time": 22.234, "note_off_time": 23.253}, {"pitch": 52, "velocity": 40, "note_on_time": 23.253, "note_off_time": 24.26}, {"pitch": 55, "velocity": 40, "note_on_time": 23.253, "note_off_time": 24.26}, {"pitch": 60, "velocity": 40, "note_on_time": 24.259, "note_off_time": 25.272}, {"pitch": 64, "velocity": 40, "note_on_time": 24.259, "note_off_time": 25.272}, {"pitch": 67, "velocity": 40, "note_on_time": 24.26, "note_off_time": 25.273}, {"pitch": 48, "velocity": 40, "note_on_time": 24.261, "note_off_time": 25.273}, {"pitch": 52, "velocity": 40, "note_on_time": 25.273, "note_off_time": 26.282}, {"pitch": 55, "velocity": 40, "note_on_time": 25.273, "note_off_time": 26.282}, {"pitch": 76, "velocity": 40, "note_on_time": 26.282, "note_off_time": 27.302}, {"pitch": 48, "velocity": 40, "note_on_time": 26.282, "note_off_time": 27.302}, {"pitch": 52, "velocity": 40, "note_on_time": 27.302, "note_off_time": 28.315}, {"pitch": 55, "velocity": 40, "note_on_time": 27.302, "note_off_time": 28.316}, {"pitch": 48, "velocity": 40, "note_on_time": 28.316, "note_off_time": 29.319}, {"pitch": 52, "velocity": 40, "note_on_time": 29.319, "note_off_time": 30.33}, {"pitch": 55, "velocity": 40, "note_on_time": 29.319, "note_off_time": 30.33}, {"pitch": 48, "velocity": 40, "note_on_time": 30.33, "note_off_time": 31.345}, {"pitch": 52, "velocity": 40, "note_on_time": 31.345, "note_off_time": 32.357}, {"pitch": 55, "velocity": 40, "note_on_time": 31.345, "note_off_time": 32.357}, {"pitch": 60, "velocity": 40, "note_on_time": 32.356, "note_off_time": 33.368}, {"pitch": 64, "velocity": 40, "note_on_time": 32.356, "note_off_time": 33.368}, {"pitch": 67, "velocity": 40, "note_on_time": 32.357, "note_off_time": 33.369}, {"pitch": 48, "velocity": 40, "note_on_time": 32.357, "note_off_time": 33.369}, {"pitch": 52, "velocity": 40, "note_on_time": 33.369, "note_off_time": 34.382}, {"pitch": 55, "velocity": 40, "note_on_time": 33.369, "note_off_time": 34.382}, {"pitch": 72, "velocity": 40, "note_on_time": 34.382, "note_off_time": 35.395}, {"pitch": 48, "velocity": 40, "note_on_time": 34.382, "note_off_time": 35.396}, {"pitch": 52, "velocity": 40, "note_on_time": 35.396, "note_off_time": 36.401}, {"pitch": 55, "velocity": 40, "note_on_time": 35.396, "note_off_time": 36.401}, {"pitch": 48, "velocity": 40, "note_on_time": 36.401, "note_off_time": 37.413}, {"pitch": 52, "velocity": 40, "note_on_time": 37.413, "note_off_time": 38.426}, {"pitch": 55, "velocity": 40, "note_on_time": 37.413, "note_off_time": 38.426}, {"pitch": 48, "velocity": 40, "note_on_time": 38.426, "note_off_time": 39.426}, {"pitch": 52, "velocity": 40, "note_on_time": 39.426, "note_off_time": 40.435}, {"pitch": 55, "velocity": 40, "note_on_time": 39.426, "note_off_time": 40.436}, {"pitch": 60, "velocity": 40, "note_on_time": 40.434, "note_off_time": 41.44}, {"pitch": 64, "velocity": 40, "note_on_time": 40.435, "note_off_time": 41.44}, {"pitch": 67, "velocity": 40, "note_on_time": 40.435, "note_off_time": 41.44}, {"pitch": 77, "velocity": 40, "note_on_time": 42.454, "note_off_time": 43.462}, {"pitch": 60, "velocity": 40, "note_on_time": 48.468, "note_off_time": 49.497}, {"pitch": 64, "velocity": 40, "note_on_time": 48.469, "note_off_time": 49.499}, {"pitch": 67, "velocity": 40, "note_on_time": 48.47, "note_off_time": 49.499}, {"pitch": 76, "velocity": 40, "note_on_time": 50.512, "note_off_time": 51.525}, {"pitch": 60, "velocity": 40, "note_on_time": 56.536, "note_off_time": 57.547}, {"pitch": 64, "velocity": 40, "note_on_time": 56.536, "note_off_time": 57.547}, {"pitch": 67, "velocity": 40, "note_on_time": 56.537, "note_off_time": 57.548}, {"pitch": 74, "velocity": 40, "note_on_time": 58.564, "note_off_time": 59.574}, {"pitch": 60, "velocity": 40, "note_on_time": 64.576, "note_off_time": 65.579}, {"pitch": 64, "velocity": 40, "note_on_time": 64.578, "note_off_time": 65.58}, {"pitch": 67, "velocity": 40, "note_on_time": 64.578, "note_off_time": 65.581}, {"pitch": 79, "velocity": 40, "note_on_time": 66.593, "note_off_time": 67.595}, {"pitch": 60, "velocity": 40, "note_on_time": 72.607, "note_off_time": 73.615}, {"pitch": 64, "velocity": 40, "note_on_time": 72.608, "note_off_time": 73.616}, {"pitch": 67, "velocity": 40, "note_on_time": 72.608, "note_off_time": 73.617}, {"pitch": 74, "velocity": 40, "note_on_time": 74.628, "note_off_time": 75.638}, {"pitch": 60, "velocity": 40, "note_on_time": 80.647, "note_off_time": 81.651}, {"pitch": 64, "velocity": 40, "note_on_time": 80.647, "note_off_time": 81.652}, {"pitch": 67, "velocity": 40, "note_on_time": 80.648, "note_off_time": 81.652}, {"pitch": 76, "velocity": 40, "note_on_time": 82.669, "note_off_time": 83.682}, {"pitch": 60, "velocity": 40, "note_on_time": 88.691, "note_off_time": 89.706}, {"pitch": 64, "velocity": 40, "note_on_time": 88.692, "note_off_time": 89.706}, {"pitch": 67, "velocity": 40, "note_on_time": 88.692, "note_off_time": 89.706}, {"pitch": 72, "velocity": 40, "note_on_time": 90.718, "note_off_time": 91.731}, {"pitch": 60, "velocity": 40, "note_on_time": 96.74, "note_off_time": 97.757}, {"pitch": 64, "velocity": 40, "note_on_time": 96.741, "note_off_time": 97.758}, {"pitch": 67, "velocity": 40, "note_on_time": 96.741, "note_off_time": 97.758}, {"pitch": 76, "velocity": 40, "note_on_time": 98.771, "note_off_time": 99.78}, {"pitch": 60, "velocity": 40, "note_on_time": 104.786, "note_off_time": 105.801}, {"pitch": 64, "velocity": 40, "note_on_time": 104.787, "note_off_time": 105.802}, {"pitch": 67, "velocity": 40, "note_on_time": 104.787, "note_off_time": 105.803}, {"pitch": 72, "velocity": 40, "note_on_time": 106.809, "note_off_time": 107.817}, {"pitch": 60, "velocity": 40, "note_on_time": 112.827, "note_off_time": 113.837}, {"pitch": 64, "velocity": 40, "note_on_time": 112.828, "note_off_time": 113.838}, {"pitch": 67, "velocity": 40, "note_on_time": 112.829, "note_off_time": 113.838}, {"pitch": 74, "velocity": 40, "note_on_time": 114.84, "note_off_time": 115.841}, {"pitch": 60, "velocity": 40, "note_on_time": 120.844, "note_off_time": 121.858}, {"pitch": 64, "velocity": 40, "note_on_time": 120.845, "note_off_time": 121.859}, {"pitch": 67, "velocity": 40, "note_on_time": 120.846, "note_off_time": 121.86}, {"pitch": 79, "velocity": 40, "note_on_time": 122.865, "note_off_time": 123.875}, {"pitch": 60, "velocity": 40, "note_on_time": 128.89, "note_off_time": 129.899}, {"pitch": 64, "velocity": 40, "note_on_time": 128.891, "note_off_time": 129.9}, {"pitch": 67, "velocity": 40, "note_on_time": 128.892, "note_off_time": 129.9}, {"pitch": 77, "velocity": 40, "note_on_time": 130.914, "note_off_time": 131.93}, {"pitch": 60, "velocity": 40, "note_on_time": 136.934, "note_off_time": 137.941}, {"pitch": 64, "velocity": 40, "note_on_time": 136.934, "note_off_time": 137.941}, {"pitch": 67, "velocity": 40, "note_on_time": 136.934, "note_off_time": 137.941}, {"pitch": 79, "velocity": 40, "note_on_time": 138.952, "note_off_time": 139.963}, {"pitch": 60, "velocity": 40, "note_on_time": 144.965, "note_off_time": 145.978}, {"pitch": 64, "velocity": 40, "note_on_time": 144.966, "note_off_time": 145.979}, {"pitch": 67, "velocity": 40, "note_on_time": 144.966, "note_off_time": 145.98}, {"pitch": 72, "velocity": 40, "note_on_time": 146.993, "note_off_time": 147.996}, {"pitch": 60, "velocity": 40, "note_on_time": 153.003, "note_off_time": 154.02}, {"pitch": 64, "velocity": 40, "note_on_time": 153.004, "note_off_time": 154.021}, {"pitch": 67, "velocity": 40, "note_on_time": 153.004, "note_off_time": 154.021}, {"pitch": 77, "velocity": 40, "note_on_time": 155.03, "note_off_time": 156.042}, {"pitch": 60, "velocity": 40, "note_on_time": 161.045, "note_off_time": 162.054}, {"pitch": 64, "velocity": 40, "note_on_time": 161.045, "note_off_time": 162.054}, {"pitch": 67, "velocity": 40, "note_on_time": 161.046, "note_off_time": 162.055}, {"pitch": 77, "velocity": 40, "note_on_time": 163.067, "note_off_time": 164.072}]</notes><options name="Option List">((4, 4), [0.5, 0.25], 3, 8, &lt;NoteRangePerHand.TWO_NOTES: 3&gt;, &lt;NoteRangePerHand.ONE_NOTE: 2&gt;, False, True, True, 100)</options></target_notes><trials><trial trial_no="1" timestamp="2023_06_14-12_31_24"><notes name="Played Notes">[{"pitch": 72, "velocity": 39, "note_on_time": 3.975, "note_off_time": 4.172}, {"pitch": 76, "velocity": 45, "note_on_time": 4.974, "note_off_time": 5.164}, {"pitch": 77, "velocity": 40, "note_on_time": 5.879, "note_off_time": 6.066}, {"pitch": 79, "velocity": 18, "note_on_time": 6.427, "note_off_time": 6.676}, {"pitch": 74, "velocity": 57, "note_on_time": 7.278, "note_off_time": 7.391}, {"pitch": 74, "velocity": 33, "note_on_time": 11.103, "note_off_time": 11.265}, {"pitch": 76, "velocity": 31, "note_on_time": 11.756, "note_off_time": 11.947}, {"pitch": 77, "velocity": 33, "note_on_time": 12.431, "note_off_time": 12.592}, {"pitch": 72, "velocity": 49, "note_on_time": 13.078, "note_off_time": 13.277}, {"pitch": 79, "velocity": 39, "note_on_time": 13.799, "note_off_time": 14.031}, {"pitch": 74, "velocity": 42, "note_on_time": 16.222, "note_off_time": 16.349}, {"pitch": 72, "velocity": 28, "note_on_time": 19.727, "note_off_time": 19.878}, {"pitch": 74, "velocity": 43, "note_on_time": 20.133, "note_off_time": 20.272}, {"pitch": 76, "velocity": 54, "note_on_time": 20.588, "note_off_time": 20.742}, {"pitch": 77, "velocity": 48, "note_on_time": 21.428, "note_off_time": 21.59}, {"pitch": 79, "velocity": 13, "note_on_time": 21.836, "note_off_time": 21.987}, {"pitch": 79, "velocity": 14, "note_on_time": 27.547, "note_off_time": 27.793}, {"pitch": 77, "velocity": 35, "note_on_time": 28.155, "note_off_time": 28.315}, {"pitch": 74, "velocity": 49, "note_on_time": 28.912, "note_off_time": 29.086}, {"pitch": 76, "velocity": 39, "note_on_time": 29.351, "note_off_time": 29.519}, {"pitch": 72, "velocity": 35, "note_on_time": 29.689, "note_off_time": 29.871}, {"pitch": 74, "velocity": 48, "note_on_time": 35.871, "note_off_time": 36.029}, {"pitch": 76, "velocity": 39, "note_on_time": 36.267, "note_off_time": 36.421}, {"pitch": 77, "velocity": 48, "note_on_time": 36.621, "note_off_time": 36.778}, {"pitch": 72, "velocity": 31, "note_on_time": 37.495, "note_off_time": 37.684}, {"pitch": 79, "velocity": 38, "note_on_time": 37.901, "note_off_time": 38.168}, {"pitch": 72, "velocity": 34, "note_on_time": 43.964, "note_off_time": 44.172}, {"pitch": 76, "velocity": 40, "note_on_time": 44.374, "note_off_time": 44.592}, {"pitch": 77, "velocity": 43, "note_on_time": 44.902, "note_off_time": 45.089}, {"pitch": 79, "velocity": 45, "note_on_time": 45.315, "note_off_time": 45.567}, {"pitch": 74, "velocity": 40, "note_on_time": 46.078, "note_off_time": 46.202}, {"pitch": 72, "velocity": 47, "note_on_time": 52.139, "note_off_time": 52.29}, {"pitch": 74, "velocity": 59, "note_on_time": 52.608, "note_off_time": 52.747}, {"pitch": 76, "velocity": 50, "note_on_time": 52.932, "note_off_time": 53.099}, {"pitch": 77, "velocity": 48, "note_on_time": 53.265, "note_off_time": 53.436}, {"pitch": 79, "velocity": 40, "note_on_time": 53.659, "note_off_time": 53.853}, {"pitch": 76, "velocity": 41, "note_on_time": 59.495, "note_off_time": 59.725}, {"pitch": 74, "velocity": 43, "note_on_time": 59.835, "note_off_time": 60.007}, {"pitch": 72, "velocity": 36, "note_on_time": 60.14, "note_off_time": 60.353}, {"pitch": 77, "velocity": 41, "note_on_time": 60.509, "note_off_time": 60.672}, {"pitch": 79, "velocity": 43, "note_on_time": 60.827, "note_off_time": 61.064}, {"pitch": 77, "velocity": 23, "note_on_time": 66.181, "note_off_time": 66.401}, {"pitch": 76, "velocity": 51, "note_on_time": 66.586, "note_off_time": 66.753}, {"pitch": 74, "velocity": 49, "note_on_time": 66.911, "note_off_time": 67.062}, {"pitch": 72, "velocity": 27, "note_on_time": 67.244, "note_off_time": 67.451}, {"pitch": 79, "velocity": 36, "note_on_time": 67.902, "note_off_time": 68.112}, {"pitch": 74, "velocity": 23, "note_on_time": 71.923, "note_off_time": 72.076}, {"pitch": 76, "velocity": 36, "note_on_time": 75.973, "note_off_time": 76.173}, {"pitch": 72, "velocity": 42, "note_on_time": 76.486, "note_off_time": 76.695}, {"pitch": 77, "velocity": 48, "note_on_time": 77.612, "note_off_time": 77.812}, {"pitch": 79, "velocity": 33, "note_on_time": 78.026, "note_off_time": 78.249}, {"pitch": 74, "velocity": 48, "note_on_time": 78.74, "note_off_time": 78.882}, {"pitch": 76, "velocity": 39, "note_on_time": 80.349, "note_off_time": 80.518}, {"pitch": 76, "velocity": 31, "note_on_time": 84.104, "note_off_time": 84.328}, {"pitch": 72, "velocity": 39, "note_on_time": 84.778, "note_off_time": 84.94}, {"pitch": 77, "velocity": 37, "note_on_time": 85.298, "note_off_time": 85.48}, {"pitch": 74, "velocity": 48, "note_on_time": 85.692, "note_off_time": 85.838}, {"pitch": 79, "velocity": 26, "note_on_time": 86.001, "note_off_time": 86.204}, {"pitch": 74, "velocity": 45, "note_on_time": 86.998, "note_off_time": 87.128}, {"pitch": 77, "velocity": 29, "note_on_time": 87.828, "note_off_time": 88.03}, {"pitch": 72, "velocity": 41, "note_on_time": 88.54, "note_off_time": 88.736}, {"pitch": 77, "velocity": 29, "note_on_time": 92.809, "note_off_time": 93.01}, {"pitch": 74, "velocity": 56, "note_on_time": 93.216, "note_off_time": 93.363}, {"pitch": 72, "velocity": 44, "note_on_time": 93.504, "note_off_time": 93.646}, {"pitch": 79, "velocity": 44, "note_on_time": 93.916, "note_off_time": 94.102}, {"pitch": 74, "velocity": 48, "note_on_time": 94.324, "note_off_time": 94.467}, {"pitch": 77, "velocity": 38, "note_on_time": 95.02, "note_off_time": 95.154}, {"pitch": 76, "velocity": 48, "note_on_time": 95.348, "note_off_time": 95.488}, {"pitch": 74, "velocity": 58, "note_on_time": 96.262, "note_off_time": 96.4}, {"pitch": 72, "velocity": 46, "note_on_time": 96.548, "note_off_time": 96.678}, {"pitch": 79, "velocity": 47, "note_on_time": 100.405, "note_off_time": 100.621}, {"pitch": 74, "velocity": 49, "note_on_time": 100.847, "note_off_time": 101.003}, {"pitch": 72, "velocity": 44, "note_on_time": 101.149, "note_off_time": 101.289}, {"pitch": 77, "velocity": 34, "note_on_time": 101.553, "note_off_time": 101.693}, {"pitch": 76, "velocity": 40, "note_on_time": 101.856, "note_off_time": 102.051}, {"pitch": 74, "velocity": 46, "note_on_time": 102.184, "note_off_time": 102.314}, {"pitch": 72, "velocity": 37, "note_on_time": 103.221, "note_off_time": 103.393}, {"pitch": 76, "velocity": 17, "note_on_time": 103.674, "note_off_time": 103.885}, {"pitch": 77, "velocity": 34, "note_on_time": 104.098, "note_off_time": 104.275}, {"pitch": 74, "velocity": 49, "note_on_time": 104.55, "note_off_time": 104.692}, {"pitch": 72, "velocity": 37, "note_on_time": 108.519, "note_off_time": 108.679}, {"pitch": 77, "velocity": 44, "note_on_time": 108.893, "note_off_time": 109.084}, {"pitch": 74, "velocity": 49, "note_on_time": 109.328, "note_off_time": 109.47}, {"pitch": 79, "velocity": 23, "note_on_time": 109.677, "note_off_time": 109.854}, {"pitch": 76, "velocity": 52, "note_on_time": 110.251, "note_off_time": 110.444}, {"pitch": 74, "velocity": 56, "note_on_time": 110.634, "note_off_time": 110.776}, {"pitch": 72, "velocity": 33, "note_on_time": 110.964, "note_off_time": 111.153}, {"pitch": 77, "velocity": 38, "note_on_time": 111.331, "note_off_time": 111.51}, {"pitch": 76, "velocity": 45, "note_on_time": 111.76, "note_off_time": 111.94}, {"pitch": 74, "velocity": 39, "note_on_time": 112.808, "note_off_time": 112.948}, {"pitch": 72, "velocity": 48, "note_on_time": 116.428, "note_off_time": 116.608}, {"pitch": 79, "velocity": 45, "note_on_time": 116.782, "note_off_time": 116.974}, {"pitch": 74, "velocity": 41, "note_on_time": 117.175, "note_off_time": 117.34}, {"pitch": 77, "velocity": 38, "note_on_time": 117.572, "note_off_time": 117.73}, {"pitch": 76, "velocity": 42, "note_on_time": 117.941, "note_off_time": 118.104}, {"pitch": 74, "velocity": 57, "note_on_time": 118.664, "note_off_time": 118.814}, {"pitch": 72, "velocity": 39, "note_on_time": 118.976, "note_off_time": 119.121}, {"pitch": 77, "velocity": 44, "note_on_time": 120.05, "note_off_time": 120.253}, {"pitch": 72, "velocity": 36, "note_on_time": 124.24, "note_off_time": 124.483}, {"pitch": 76, "velocity": 46, "note_on_time": 124.882, "note_off_time": 125.138}, {"pitch": 77, "velocity": 42, "note_on_time": 125.27, "note_off_time": 125.465}, {"pitch": 74, "velocity": 59, "note_on_time": 125.717, "note_off_time": 125.868}, {"pitch": 79, "velocity": 33, "note_on_time": 125.97, "note_off_time": 126.188}, {"pitch": 74, "velocity": 49, "note_on_time": 126.366, "note_off_time": 126.549}, {"pitch": 76, "velocity": 45, "note_on_time": 126.883, "note_off_time": 127.041}, {"pitch": 77, "velocity": 40, "note_on_time": 127.297, "note_off_time": 127.434}, {"pitch": 72, "velocity": 33, "note_on_time": 127.73, "note_off_time": 127.886}, {"pitch": 76, "velocity": 48, "note_on_time": 128.709, "note_off_time": 128.892}, {"pitch": 74, "velocity": 38, "note_on_time": 132.683, "note_off_time": 132.851}, {"pitch": 72, "velocity": 51, "note_on_time": 133.08, "note_off_time": 133.225}, {"pitch": 79, "velocity": 27, "note_on_time": 133.446, "note_off_time": 133.693}, {"pitch": 76, "velocity": 59, "note_on_time": 134.06, "note_off_time": 134.219}, {"pitch": 77, "velocity": 43, "note_on_time": 134.37, "note_off_time": 134.555}, {"pitch": 74, "velocity": 47, "note_on_time": 134.748, "note_off_time": 134.882}, {"pitch": 72, "velocity": 38, "note_on_time": 135.101, "note_off_time": 135.238}, {"pitch": 76, "velocity": 52, "note_on_time": 135.702, "note_off_time": 135.869}, {"pitch": 77, "velocity": 44, "note_on_time": 136.16, "note_off_time": 136.317}, {"pitch": 79, "velocity": 42, "note_on_time": 136.543, "note_off_time": 136.714}, {"pitch": 72, "velocity": 44, "note_on_time": 140.524, "note_off_time": 140.699}, {"pitch": 74, "velocity": 44, "note_on_time": 140.872, "note_off_time": 141.02}, {"pitch": 76, "velocity": 55, "note_on_time": 141.173, "note_off_time": 141.336}, {"pitch": 77, "velocity": 41, "note_on_time": 141.463, "note_off_time": 141.63}, {"pitch": 79, "velocity": 40, "note_on_time": 141.934, "note_off_time": 142.109}, {"pitch": 74, "velocity": 50, "note_on_time": 142.347, "note_off_time": 142.485}, {"pitch": 76, "velocity": 49, "note_on_time": 142.67, "note_off_time": 142.845}, {"pitch": 77, "velocity": 43, "note_on_time": 143.001, "note_off_time": 143.157}, {"pitch": 72, "velocity": 28, "note_on_time": 143.284, "note_off_time": 143.446}, {"pitch": 74, "velocity": 36, "note_on_time": 143.825, "note_off_time": 143.926}, {"pitch": 79, "velocity": 35, "note_on_time": 144.129, "note_off_time": 144.312}, {"pitch": 76, "velocity": 46, "note_on_time": 144.734, "note_off_time": 144.891}, {"pitch": 74, "velocity": 36, "note_on_time": 148.84, "note_off_time": 148.991}, {"pitch": 76, "velocity": 52, "note_on_time": 149.209, "note_off_time": 149.386}, {"pitch": 77, "velocity": 41, "note_on_time": 149.531, "note_off_time": 149.695}, {"pitch": 72, "velocity": 44, "note_on_time": 149.856, "note_off_time": 150.031}, {"pitch": 79, "velocity": 42, "note_on_time": 150.227, "note_off_time": 150.464}, {"pitch": 76, "velocity": 43, "note_on_time": 150.704, "note_off_time": 150.879}, {"pitch": 74, "velocity": 41, "note_on_time": 151.042, "note_off_time": 151.17}, {"pitch": 72, "velocity": 32, "note_on_time": 151.406, "note_off_time": 151.513}, {"pitch": 77, "velocity": 43, "note_on_time": 151.977, "note_off_time": 152.145}, {"pitch": 74, "velocity": 1, "note_on_time": 152.631, "note_off_time": 152.888}, {"pitch": 74, "velocity": 52, "note_on_time": 156.39, "note_off_time": 156.577}, {"pitch": 79, "velocity": 27, "note_on_time": 156.719, "note_off_time": 156.907}, {"pitch": 76, "velocity": 55, "note_on_time": 157.074, "note_off_time": 157.27}, {"pitch": 74, "velocity": 36, "note_on_time": 157.381, "note_off_time": 157.5}, {"pitch": 72, "velocity": 18, "note_on_time": 157.533, "note_off_time": 157.642}, {"pitch": 77, "velocity": 35, "note_on_time": 157.886, "note_off_time": 158.094}, {"pitch": 74, "velocity": 44, "note_on_time": 158.355, "note_off_time": 158.508}, {"pitch": 76, "velocity": 54, "note_on_time": 158.724, "note_off_time": 158.921}, {"pitch": 79, "velocity": 36, "note_on_time": 159.144, "note_off_time": 159.327}, {"pitch": 72, "velocity": 42, "note_on_time": 159.622, "note_off_time": 159.777}, {"pitch": 74, "velocity": 46, "note_on_time": 160.287, "note_off_time": 160.437}]</notes><guidance name="Guidance Mode">None</guidance><error name="Error value">99</error></trial></trials></MIDI>