<MIDI midiNo="2023_06_21-10_33_08"><target_notes><notes name="Note List">[{"pitch": 60, "velocity": 40, "note_on_time": 0.009, "note_off_time": 1.018}, {"pitch": 64, "velocity": 40, "note_on_time": 0.009, "note_off_time": 1.019}, {"pitch": 67, "velocity": 40, "note_on_time": 0.009, "note_off_time": 1.022}, {"pitch": 48, "velocity": 40, "note_on_time": 0.009, "note_off_time": 1.023}, {"pitch": 52, "velocity": 40, "note_on_time": 1.023, "note_off_time": 2.039}, {"pitch": 55, "velocity": 40, "note_on_time": 1.023, "note_off_time": 2.039}, {"pitch": 72, "velocity": 40, "note_on_time": 2.038, "note_off_time": 3.042}, {"pitch": 48, "velocity": 40, "note_on_time": 2.039, "note_off_time": 3.042}, {"pitch": 52, "velocity": 40, "note_on_time": 3.042, "note_off_time": 4.048}, {"pitch": 55, "velocity": 40, "note_on_time": 3.042, "note_off_time": 4.048}, {"pitch": 48, "velocity": 40, "note_on_time": 4.049, "note_off_time": 5.06}, {"pitch": 52, "velocity": 40, "note_on_time": 5.06, "note_off_time": 6.067}, {"pitch": 55, "velocity": 40, "note_on_time": 5.061, "note_off_time": 6.067}, {"pitch": 48, "velocity": 40, "note_on_time": 6.067, "note_off_time": 7.076}, {"pitch": 52, "velocity": 40, "note_on_time": 7.076, "note_off_time": 8.089}, {"pitch": 55, "velocity": 40, "note_on_time": 7.076, "note_off_time": 8.089}, {"pitch": 60, "velocity": 40, "note_on_time": 8.087, "note_off_time": 9.099}, {"pitch": 64, "velocity": 40, "note_on_time": 8.088, "note_off_time": 9.1}, {"pitch": 67, "velocity": 40, "note_on_time": 8.088, "note_off_time": 9.101}, {"pitch": 48, "velocity": 40, "note_on_time": 8.089, "note_off_time": 9.101}, {"pitch": 52, "velocity": 40, "note_on_time": 9.101, "note_off_time": 10.109}, {"pitch": 55, "velocity": 40, "note_on_time": 9.101, "note_off_time": 10.11}, {"pitch": 74, "velocity": 40, "note_on_time": 10.109, "note_off_time": 11.12}, {"pitch": 48, "velocity": 40, "note_on_time": 10.11, "note_off_time": 11.12}, {"pitch": 52, "velocity": 40, "note_on_time": 11.121, "note_off_time": 12.127}, {"pitch": 55, "velocity": 40, "note_on_time": 11.121, "note_off_time": 12.127}, {"pitch": 48, "velocity": 40, "note_on_time": 12.127, "note_off_time": 13.134}, {"pitch": 52, "velocity": 40, "note_on_time": 13.134, "note_off_time": 14.144}, {"pitch": 55, "velocity": 40, "note_on_time": 13.134, "note_off_time": 14.144}, {"pitch": 48, "velocity": 40, "note_on_time": 14.144, "note_off_time": 15.148}, {"pitch": 52, "velocity": 40, "note_on_time": 15.148, "note_off_time": 16.158}, {"pitch": 55, "velocity": 40, "note_on_time": 15.148, "note_off_time": 16.159}, {"pitch": 60, "velocity": 40, "note_on_time": 16.157, "note_off_time": 17.164}, {"pitch": 64, "velocity": 40, "note_on_time": 16.158, "note_off_time": 17.166}, {"pitch": 67, "velocity": 40, "note_on_time": 16.158, "note_off_time": 17.166}, {"pitch": 48, "velocity": 40, "note_on_time": 16.159, "note_off_time": 17.166}, {"pitch": 52, "velocity": 40, "note_on_time": 17.166, "note_off_time": 18.182}, {"pitch": 55, "velocity": 40, "note_on_time": 17.166, "note_off_time": 18.183}, {"pitch": 76, "velocity": 40, "note_on_time": 18.182, "note_off_time": 19.193}, {"pitch": 48, "velocity": 40, "note_on_time": 18.183, "note_off_time": 19.193}, {"pitch": 52, "velocity": 40, "note_on_time": 19.193, "note_off_time": 20.2}, {"pitch": 55, "velocity": 40, "note_on_time": 19.193, "note_off_time": 20.2}, {"pitch": 48, "velocity": 40, "note_on_time": 20.2, "note_off_time": 21.205}, {"pitch": 52, "velocity": 40, "note_on_time": 21.205, "note_off_time": 22.206}, {"pitch": 55, "velocity": 40, "note_on_time": 21.205, "note_off_time": 22.206}, {"pitch": 48, "velocity": 40, "note_on_time": 22.206, "note_off_time": 23.21}, {"pitch": 52, "velocity": 40, "note_on_time": 23.21, "note_off_time": 24.217}, {"pitch": 55, "velocity": 40, "note_on_time": 23.21, "note_off_time": 24.217}, {"pitch": 60, "velocity": 40, "note_on_time": 24.215, "note_off_time": 25.232}, {"pitch": 64, "velocity": 40, "note_on_time": 24.216, "note_off_time": 25.232}, {"pitch": 67, "velocity": 40, "note_on_time": 24.216, "note_off_time": 25.233}, {"pitch": 48, "velocity": 40, "note_on_time": 24.217, "note_off_time": 25.233}, {"pitch": 52, "velocity": 40, "note_on_time": 25.233, "note_off_time": 26.246}, {"pitch": 55, "velocity": 40, "note_on_time": 25.233, "note_off_time": 26.246}, {"pitch": 77, "velocity": 40, "note_on_time": 26.246, "note_off_time": 27.251}, {"pitch": 48, "velocity": 40, "note_on_time": 26.246, "note_off_time": 27.251}, {"pitch": 52, "velocity": 40, "note_on_time": 27.251, "note_off_time": 28.255}, {"pitch": 55, "velocity": 40, "note_on_time": 27.251, "note_off_time": 28.255}, {"pitch": 48, "velocity": 40, "note_on_time": 28.255, "note_off_time": 29.265}, {"pitch": 52, "velocity": 40, "note_on_time": 29.265, "note_off_time": 30.27}, {"pitch": 55, "velocity": 40, "note_on_time": 29.265, "note_off_time": 30.27}, {"pitch": 48, "velocity": 40, "note_on_time": 30.27, "note_off_time": 31.284}, {"pitch": 52, "velocity": 40, "note_on_time": 31.284, "note_off_time": 32.296}, {"pitch": 55, "velocity": 40, "note_on_time": 31.284, "note_off_time": 32.297}, {"pitch": 60, "velocity": 40, "note_on_time": 32.296, "note_off_time": 33.299}, {"pitch": 64, "velocity": 40, "note_on_time": 32.296, "note_off_time": 33.299}, {"pitch": 67, "velocity": 40, "note_on_time": 32.296, "note_off_time": 33.3}, {"pitch": 48, "velocity": 40, "note_on_time": 32.297, "note_off_time": 33.3}, {"pitch": 52, "velocity": 40, "note_on_time": 33.3, "note_off_time": 34.304}, {"pitch": 55, "velocity": 40, "note_on_time": 33.3, "note_off_time": 34.305}, {"pitch": 72, "velocity": 40, "note_on_time": 34.304, "note_off_time": 35.316}, {"pitch": 48, "velocity": 40, "note_on_time": 34.305, "note_off_time": 35.316}, {"pitch": 52, "velocity": 40, "note_on_time": 35.316, "note_off_time": 36.325}, {"pitch": 55, "velocity": 40, "note_on_time": 35.316, "note_off_time": 36.325}, {"pitch": 48, "velocity": 40, "note_on_time": 36.325, "note_off_time": 37.331}, {"pitch": 52, "velocity": 40, "note_on_time": 37.331, "note_off_time": 38.338}, {"pitch": 55, "velocity": 40, "note_on_time": 37.331, "note_off_time": 38.338}, {"pitch": 48, "velocity": 40, "note_on_time": 38.338, "note_off_time": 39.342}, {"pitch": 52, "velocity": 40, "note_on_time": 39.342, "note_off_time": 40.358}, {"pitch": 55, "velocity": 40, "note_on_time": 39.342, "note_off_time": 40.358}, {"pitch": 60, "velocity": 40, "note_on_time": 40.356, "note_off_time": 41.371}, {"pitch": 64, "velocity": 40, "note_on_time": 40.357, "note_off_time": 41.372}, {"pitch": 67, "velocity": 40, "note_on_time": 40.357, "note_off_time": 41.373}, {"pitch": 74, "velocity": 40, "note_on_time": 42.377, "note_off_time": 43.38}, {"pitch": 60, "velocity": 40, "note_on_time": 48.39, "note_off_time": 49.394}, {"pitch": 64, "velocity": 40, "note_on_time": 48.391, "note_off_time": 49.395}, {"pitch": 67, "velocity": 40, "note_on_time": 48.392, "note_off_time": 49.396}, {"pitch": 76, "velocity": 40, "note_on_time": 50.406, "note_off_time": 51.419}, {"pitch": 60, "velocity": 40, "note_on_time": 56.421, "note_off_time": 57.431}, {"pitch": 64, "velocity": 40, "note_on_time": 56.422, "note_off_time": 57.433}, {"pitch": 67, "velocity": 40, "note_on_time": 56.422, "note_off_time": 57.434}, {"pitch": 77, "velocity": 40, "note_on_time": 58.438, "note_off_time": 59.45}, {"pitch": 60, "velocity": 40, "note_on_time": 64.452, "note_off_time": 65.461}, {"pitch": 64, "velocity": 40, "note_on_time": 64.453, "note_off_time": 65.462}, {"pitch": 67, "velocity": 40, "note_on_time": 64.453, "note_off_time": 65.463}, {"pitch": 79, "velocity": 40, "note_on_time": 66.469, "note_off_time": 67.471}, {"pitch": 60, "velocity": 40, "note_on_time": 72.474, "note_off_time": 73.486}, {"pitch": 64, "velocity": 40, "note_on_time": 72.475, "note_off_time": 73.487}, {"pitch": 67, "velocity": 40, "note_on_time": 72.475, "note_off_time": 73.487}, {"pitch": 76, "velocity": 40, "note_on_time": 74.491, "note_off_time": 75.506}, {"pitch": 60, "velocity": 40, "note_on_time": 80.511, "note_off_time": 81.529}, {"pitch": 64, "velocity": 40, "note_on_time": 80.512, "note_off_time": 81.53}, {"pitch": 67, "velocity": 40, "note_on_time": 80.512, "note_off_time": 81.531}, {"pitch": 77, "velocity": 40, "note_on_time": 82.531, "note_off_time": 83.536}, {"pitch": 60, "velocity": 40, "note_on_time": 88.545, "note_off_time": 89.557}, {"pitch": 64, "velocity": 40, "note_on_time": 88.546, "note_off_time": 89.558}, {"pitch": 67, "velocity": 40, "note_on_time": 88.547, "note_off_time": 89.559}, {"pitch": 76, "velocity": 40, "note_on_time": 90.566, "note_off_time": 91.573}, {"pitch": 60, "velocity": 40, "note_on_time": 96.607, "note_off_time": 97.617}, {"pitch": 64, "velocity": 40, "note_on_time": 96.607, "note_off_time": 97.617}, {"pitch": 67, "velocity": 40, "note_on_time": 96.607, "note_off_time": 97.617}, {"pitch": 79, "velocity": 40, "note_on_time": 98.625, "note_off_time": 99.635}, {"pitch": 60, "velocity": 40, "note_on_time": 104.642, "note_off_time": 105.654}, {"pitch": 64, "velocity": 40, "note_on_time": 104.643, "note_off_time": 105.655}, {"pitch": 67, "velocity": 40, "note_on_time": 104.644, "note_off_time": 105.655}, {"pitch": 77, "velocity": 40, "note_on_time": 106.663, "note_off_time": 107.666}, {"pitch": 60, "velocity": 40, "note_on_time": 112.669, "note_off_time": 113.682}, {"pitch": 64, "velocity": 40, "note_on_time": 112.67, "note_off_time": 113.683}, {"pitch": 67, "velocity": 40, "note_on_time": 112.67, "note_off_time": 113.684}, {"pitch": 79, "velocity": 40, "note_on_time": 114.697, "note_off_time": 115.704}, {"pitch": 60, "velocity": 40, "note_on_time": 120.71, "note_off_time": 121.713}, {"pitch": 64, "velocity": 40, "note_on_time": 120.711, "note_off_time": 121.713}, {"pitch": 67, "velocity": 40, "note_on_time": 120.711, "note_off_time": 121.714}, {"pitch": 72, "velocity": 40, "note_on_time": 122.721, "note_off_time": 123.732}, {"pitch": 60, "velocity": 40, "note_on_time": 128.737, "note_off_time": 129.745}, {"pitch": 64, "velocity": 40, "note_on_time": 128.738, "note_off_time": 129.746}, {"pitch": 67, "velocity": 40, "note_on_time": 128.738, "note_off_time": 129.746}, {"pitch": 79, "velocity": 40, "note_on_time": 130.754, "note_off_time": 131.761}, {"pitch": 60, "velocity": 40, "note_on_time": 136.769, "note_off_time": 137.773}, {"pitch": 64, "velocity": 40, "note_on_time": 136.77, "note_off_time": 137.773}, {"pitch": 67, "velocity": 40, "note_on_time": 136.77, "note_off_time": 137.774}, {"pitch": 74, "velocity": 40, "note_on_time": 138.785, "note_off_time": 139.794}, {"pitch": 60, "velocity": 40, "note_on_time": 144.807, "note_off_time": 145.816}, {"pitch": 64, "velocity": 40, "note_on_time": 144.807, "note_off_time": 145.817}, {"pitch": 67, "velocity": 40, "note_on_time": 144.808, "note_off_time": 145.817}, {"pitch": 72, "velocity": 40, "note_on_time": 146.833, "note_off_time": 147.839}, {"pitch": 60, "velocity": 40, "note_on_time": 152.842, "note_off_time": 153.844}, {"pitch": 64, "velocity": 40, "note_on_time": 152.843, "note_off_time": 153.845}, {"pitch": 67, "velocity": 40, "note_on_time": 152.843, "note_off_time": 153.846}, {"pitch": 74, "velocity": 40, "note_on_time": 154.853, "note_off_time": 155.865}, {"pitch": 60, "velocity": 40, "note_on_time": 160.867, "note_off_time": 161.872}, {"pitch": 64, "velocity": 40, "note_on_time": 160.867, "note_off_time": 161.873}, {"pitch": 67, "velocity": 40, "note_on_time": 160.868, "note_off_time": 161.874}, {"pitch": 72, "velocity": 40, "note_on_time": 162.879, "note_off_time": 163.879}]</notes><options name="Option List">((4, 4), [0.5, 0.25], 3, 8, &lt;NoteRangePerHand.TWO_NOTES: 3&gt;, &lt;NoteRangePerHand.ONE_NOTE: 2&gt;, False, True, True, 100)</options></target_notes><trials><trial trial_no="1" timestamp="2023_06_21-10_30_25"><notes name="Played Notes">[{"pitch": 72, "velocity": 59, "note_on_time": 3.413, "note_off_time": 4.251}, {"pitch": 74, "velocity": 61, "note_on_time": 11.349, "note_off_time": 12.036}, {"pitch": 76, "velocity": 71, "note_on_time": 19.737, "note_off_time": 20.707}, {"pitch": 77, "velocity": 50, "note_on_time": 27.745, "note_off_time": 28.801}, {"pitch": 72, "velocity": 65, "note_on_time": 35.437, "note_off_time": 36.423}, {"pitch": 74, "velocity": 72, "note_on_time": 43.729, "note_off_time": 44.681}, {"pitch": 76, "velocity": 70, "note_on_time": 51.624, "note_off_time": 52.619}, {"pitch": 77, "velocity": 49, "note_on_time": 59.758, "note_off_time": 60.893}, {"pitch": 76, "velocity": 73, "note_on_time": 69.231, "note_off_time": 69.81}, {"pitch": 79, "velocity": 52, "note_on_time": 70.579, "note_off_time": 71.648}, {"pitch": 72, "velocity": 63, "note_on_time": 76.362, "note_off_time": 76.784}, {"pitch": 76, "velocity": 56, "note_on_time": 78.418, "note_off_time": 79.304}, {"pitch": 74, "velocity": 70, "note_on_time": 84.545, "note_off_time": 84.864}, {"pitch": 77, "velocity": 59, "note_on_time": 85.321, "note_off_time": 86.302}, {"pitch": 74, "velocity": 61, "note_on_time": 93.223, "note_off_time": 93.562}, {"pitch": 76, "velocity": 51, "note_on_time": 93.937, "note_off_time": 94.85}, {"pitch": 77, "velocity": 68, "note_on_time": 99.943, "note_off_time": 100.251}, {"pitch": 79, "velocity": 75, "note_on_time": 101.012, "note_off_time": 101.929}, {"pitch": 76, "velocity": 65, "note_on_time": 109.048, "note_off_time": 109.406}, {"pitch": 77, "velocity": 64, "note_on_time": 109.82, "note_off_time": 110.731}, {"pitch": 79, "velocity": 57, "note_on_time": 116.032, "note_off_time": 116.896}, {"pitch": 72, "velocity": 53, "note_on_time": 124.055, "note_off_time": 124.969}, {"pitch": 79, "velocity": 69, "note_on_time": 132.614, "note_off_time": 133.622}, {"pitch": 74, "velocity": 50, "note_on_time": 141.089, "note_off_time": 142.097}, {"pitch": 72, "velocity": 43, "note_on_time": 148.167, "note_off_time": 149.283}, {"pitch": 74, "velocity": 56, "note_on_time": 156.209, "note_off_time": 157.21}]</notes><guidance name="Guidance Mode">None</guidance><error name="Error value">99</error></trial><trial trial_no="2" timestamp="2023_06_21-10_37_06"><notes name="Played Notes">[{"pitch": 72, "velocity": 55, "note_on_time": 4.889, "note_off_time": 5.127}, {"pitch": 74, "velocity": 54, "note_on_time": 5.409, "note_off_time": 5.634}, {"pitch": 76, "velocity": 30, "note_on_time": 5.939, "note_off_time": 6.271}, {"pitch": 77, "velocity": 61, "note_on_time": 6.547, "note_off_time": 6.856}, {"pitch": 79, "velocity": 77, "note_on_time": 7.16, "note_off_time": 7.506}, {"pitch": 79, "velocity": 47, "note_on_time": 8.523, "note_off_time": 8.89}, {"pitch": 72, "velocity": 51, "note_on_time": 9.252, "note_off_time": 9.506}, {"pitch": 74, "velocity": 54, "note_on_time": 9.769, "note_off_time": 9.971}, {"pitch": 76, "velocity": 61, "note_on_time": 10.299, "note_off_time": 10.528}, {"pitch": 77, "velocity": 33, "note_on_time": 10.861, "note_off_time": 11.122}, {"pitch": 79, "velocity": 70, "note_on_time": 11.433, "note_off_time": 11.766}, {"pitch": 72, "velocity": 68, "note_on_time": 13.405, "note_off_time": 13.783}, {"pitch": 74, "velocity": 67, "note_on_time": 14.041, "note_off_time": 14.309}, {"pitch": 76, "velocity": 64, "note_on_time": 14.62, "note_off_time": 14.902}, {"pitch": 77, "velocity": 57, "note_on_time": 15.202, "note_off_time": 15.546}, {"pitch": 79, "velocity": 75, "note_on_time": 15.791, "note_off_time": 16.049}, {"pitch": 72, "velocity": 33, "note_on_time": 18.18, "note_off_time": 18.539}, {"pitch": 74, "velocity": 64, "note_on_time": 18.858, "note_off_time": 19.079}, {"pitch": 76, "velocity": 68, "note_on_time": 19.451, "note_off_time": 19.682}, {"pitch": 77, "velocity": 51, "note_on_time": 20.029, "note_off_time": 20.282}, {"pitch": 79, "velocity": 80, "note_on_time": 20.627, "note_off_time": 20.972}, {"pitch": 79, "velocity": 71, "note_on_time": 23.142, "note_off_time": 23.443}, {"pitch": 77, "velocity": 53, "note_on_time": 23.755, "note_off_time": 24.072}, {"pitch": 76, "velocity": 60, "note_on_time": 24.38, "note_off_time": 24.695}, {"pitch": 74, "velocity": 55, "note_on_time": 24.989, "note_off_time": 25.279}, {"pitch": 72, "velocity": 51, "note_on_time": 25.539, "note_off_time": 25.826}, {"pitch": 79, "velocity": 69, "note_on_time": 28.008, "note_off_time": 28.31}, {"pitch": 77, "velocity": 51, "note_on_time": 28.628, "note_off_time": 28.954}, {"pitch": 76, "velocity": 53, "note_on_time": 29.212, "note_off_time": 29.51}, {"pitch": 74, "velocity": 58, "note_on_time": 29.815, "note_off_time": 30.074}, {"pitch": 72, "velocity": 63, "note_on_time": 30.41, "note_off_time": 30.715}, {"pitch": 79, "velocity": 61, "note_on_time": 32.882, "note_off_time": 33.197}, {"pitch": 77, "velocity": 42, "note_on_time": 33.47, "note_off_time": 33.767}, {"pitch": 76, "velocity": 53, "note_on_time": 34.05, "note_off_time": 34.335}, {"pitch": 74, "velocity": 57, "note_on_time": 34.648, "note_off_time": 34.891}, {"pitch": 72, "velocity": 42, "note_on_time": 35.302, "note_off_time": 35.579}, {"pitch": 79, "velocity": 56, "note_on_time": 37.714, "note_off_time": 37.937}, {"pitch": 77, "velocity": 43, "note_on_time": 38.325, "note_off_time": 38.52}, {"pitch": 76, "velocity": 58, "note_on_time": 38.916, "note_off_time": 39.124}, {"pitch": 74, "velocity": 52, "note_on_time": 39.495, "note_off_time": 39.719}, {"pitch": 72, "velocity": 55, "note_on_time": 40.161, "note_off_time": 40.592}, {"pitch": 74, "velocity": 51, "note_on_time": 42.588, "note_off_time": 42.797}, {"pitch": 76, "velocity": 48, "note_on_time": 43.186, "note_off_time": 43.385}, {"pitch": 77, "velocity": 33, "note_on_time": 43.782, "note_off_time": 44.056}, {"pitch": 79, "velocity": 67, "note_on_time": 44.377, "note_off_time": 44.652}, {"pitch": 72, "velocity": 47, "note_on_time": 44.988, "note_off_time": 45.259}, {"pitch": 74, "velocity": 65, "note_on_time": 47.434, "note_off_time": 47.652}, {"pitch": 76, "velocity": 45, "note_on_time": 48.016, "note_off_time": 48.249}, {"pitch": 77, "velocity": 53, "note_on_time": 48.661, "note_off_time": 48.968}, {"pitch": 79, "velocity": 53, "note_on_time": 49.275, "note_off_time": 49.444}, {"pitch": 72, "velocity": 60, "note_on_time": 49.91, "note_off_time": 50.135}, {"pitch": 74, "velocity": 51, "note_on_time": 52.394, "note_off_time": 52.799}, {"pitch": 76, "velocity": 52, "note_on_time": 53.01, "note_off_time": 53.445}, {"pitch": 77, "velocity": 48, "note_on_time": 53.591, "note_off_time": 54.077}, {"pitch": 79, "velocity": 61, "note_on_time": 54.211, "note_off_time": 54.787}, {"pitch": 72, "velocity": 44, "note_on_time": 54.836, "note_off_time": 55.434}, {"pitch": 74, "velocity": 62, "note_on_time": 57.299, "note_off_time": 57.792}, {"pitch": 76, "velocity": 52, "note_on_time": 57.91, "note_off_time": 58.391}, {"pitch": 77, "velocity": 49, "note_on_time": 58.501, "note_off_time": 59.081}, {"pitch": 79, "velocity": 61, "note_on_time": 59.112, "note_off_time": 59.721}, {"pitch": 72, "velocity": 58, "note_on_time": 59.744, "note_off_time": 60.297}, {"pitch": 77, "velocity": 55, "note_on_time": 64.626, "note_off_time": 64.899}, {"pitch": 76, "velocity": 50, "note_on_time": 65.173, "note_off_time": 65.418}, {"pitch": 74, "velocity": 73, "note_on_time": 65.745, "note_off_time": 66.044}, {"pitch": 72, "velocity": 57, "note_on_time": 66.333, "note_off_time": 66.723}, {"pitch": 79, "velocity": 67, "note_on_time": 66.962, "note_off_time": 67.321}, {"pitch": 77, "velocity": 37, "note_on_time": 69.466, "note_off_time": 69.711}, {"pitch": 76, "velocity": 63, "note_on_time": 70.034, "note_off_time": 70.25}, {"pitch": 74, "velocity": 57, "note_on_time": 70.649, "note_off_time": 71.115}, {"pitch": 72, "velocity": 44, "note_on_time": 71.23, "note_off_time": 71.749}, {"pitch": 79, "velocity": 64, "note_on_time": 71.835, "note_off_time": 72.368}, {"pitch": 77, "velocity": 63, "note_on_time": 74.283, "note_off_time": 74.826}, {"pitch": 76, "velocity": 64, "note_on_time": 74.839, "note_off_time": 75.427}, {"pitch": 74, "velocity": 56, "note_on_time": 75.478, "note_off_time": 76.105}, {"pitch": 72, "velocity": 57, "note_on_time": 76.064, "note_off_time": 76.653}, {"pitch": 79, "velocity": 36, "note_on_time": 76.71, "note_off_time": 77.274}, {"pitch": 77, "velocity": 51, "note_on_time": 79.209, "note_off_time": 79.729}, {"pitch": 76, "velocity": 47, "note_on_time": 79.759, "note_off_time": 80.376}, {"pitch": 74, "velocity": 60, "note_on_time": 80.386, "note_off_time": 80.975}, {"pitch": 72, "velocity": 64, "note_on_time": 80.978, "note_off_time": 81.584}, {"pitch": 79, "velocity": 65, "note_on_time": 81.58, "note_off_time": 82.143}, {"pitch": 76, "velocity": 67, "note_on_time": 84.03, "note_off_time": 84.465}, {"pitch": 77, "velocity": 55, "note_on_time": 84.596, "note_off_time": 85.199}, {"pitch": 79, "velocity": 73, "note_on_time": 85.216, "note_off_time": 85.617}, {"pitch": 74, "velocity": 62, "note_on_time": 85.837, "note_off_time": 86.38}, {"pitch": 72, "velocity": 54, "note_on_time": 86.426, "note_off_time": 86.995}, {"pitch": 76, "velocity": 66, "note_on_time": 88.942, "note_off_time": 89.454}, {"pitch": 77, "velocity": 57, "note_on_time": 89.545, "note_off_time": 90.157}, {"pitch": 79, "velocity": 70, "note_on_time": 90.169, "note_off_time": 90.569}, {"pitch": 74, "velocity": 57, "note_on_time": 90.774, "note_off_time": 91.266}, {"pitch": 72, "velocity": 60, "note_on_time": 91.301, "note_off_time": 91.79}, {"pitch": 76, "velocity": 51, "note_on_time": 93.765, "note_off_time": 94.125}, {"pitch": 77, "velocity": 57, "note_on_time": 94.4, "note_off_time": 94.834}, {"pitch": 79, "velocity": 59, "note_on_time": 95.028, "note_off_time": 95.425}, {"pitch": 74, "velocity": 56, "note_on_time": 95.636, "note_off_time": 96.076}, {"pitch": 72, "velocity": 52, "note_on_time": 96.248, "note_off_time": 96.627}, {"pitch": 76, "velocity": 55, "note_on_time": 98.655, "note_off_time": 99.233}, {"pitch": 77, "velocity": 47, "note_on_time": 99.256, "note_off_time": 99.828}, {"pitch": 79, "velocity": 62, "note_on_time": 99.841, "note_off_time": 100.274}, {"pitch": 74, "velocity": 60, "note_on_time": 100.479, "note_off_time": 101.093}, {"pitch": 72, "velocity": 54, "note_on_time": 101.11, "note_off_time": 101.657}, {"pitch": 76, "velocity": 60, "note_on_time": 103.518, "note_off_time": 103.924}, {"pitch": 74, "velocity": 54, "note_on_time": 104.117, "note_off_time": 104.511}, {"pitch": 72, "velocity": 51, "note_on_time": 104.697, "note_off_time": 105.155}, {"pitch": 77, "velocity": 46, "note_on_time": 105.336, "note_off_time": 105.76}, {"pitch": 79, "velocity": 58, "note_on_time": 105.936, "note_off_time": 106.314}, {"pitch": 76, "velocity": 60, "note_on_time": 108.348, "note_off_time": 109.558}, {"pitch": 74, "velocity": 54, "note_on_time": 108.948, "note_off_time": 110.053}, {"pitch": 72, "velocity": 68, "note_on_time": 109.568, "note_off_time": 110.227}, {"pitch": 77, "velocity": 55, "note_on_time": 110.168, "note_off_time": 110.75}, {"pitch": 79, "velocity": 76, "note_on_time": 110.743, "note_off_time": 111.496}, {"pitch": 76, "velocity": 43, "note_on_time": 113.199, "note_off_time": 113.854}, {"pitch": 74, "velocity": 38, "note_on_time": 113.807, "note_off_time": 114.479}, {"pitch": 72, "velocity": 52, "note_on_time": 114.426, "note_off_time": 115.203}, {"pitch": 77, "velocity": 51, "note_on_time": 115.033, "note_off_time": 115.572}, {"pitch": 79, "velocity": 57, "note_on_time": 115.601, "note_off_time": 116.141}, {"pitch": 76, "velocity": 69, "note_on_time": 118.099, "note_off_time": 118.719}, {"pitch": 74, "velocity": 52, "note_on_time": 118.73, "note_off_time": 119.322}, {"pitch": 72, "velocity": 62, "note_on_time": 119.291, "note_off_time": 119.97}, {"pitch": 77, "velocity": 56, "note_on_time": 119.875, "note_off_time": 120.446}, {"pitch": 79, "velocity": 73, "note_on_time": 120.462, "note_off_time": 121.018}, {"pitch": 77, "velocity": 50, "note_on_time": 122.954, "note_off_time": 123.533}, {"pitch": 79, "velocity": 62, "note_on_time": 123.544, "note_off_time": 123.876}, {"pitch": 76, "velocity": 60, "note_on_time": 124.141, "note_off_time": 124.672}, {"pitch": 74, "velocity": 58, "note_on_time": 124.732, "note_off_time": 125.324}, {"pitch": 72, "velocity": 57, "note_on_time": 125.357, "note_off_time": 125.862}, {"pitch": 77, "velocity": 48, "note_on_time": 128.811, "note_off_time": 129.288}, {"pitch": 77, "velocity": 67, "note_on_time": 130.232, "note_off_time": 130.736}, {"pitch": 79, "velocity": 62, "note_on_time": 130.859, "note_off_time": 131.292}, {"pitch": 76, "velocity": 72, "note_on_time": 131.441, "note_off_time": 131.981}, {"pitch": 74, "velocity": 63, "note_on_time": 132.049, "note_off_time": 132.698}, {"pitch": 72, "velocity": 57, "note_on_time": 132.714, "note_off_time": 133.087}, {"pitch": 77, "velocity": 1, "note_on_time": 135.048, "note_off_time": 135.589}, {"pitch": 77, "velocity": 67, "note_on_time": 135.784, "note_off_time": 136.256}, {"pitch": 79, "velocity": 56, "note_on_time": 136.321, "note_off_time": 136.798}, {"pitch": 77, "velocity": 60, "note_on_time": 137.549, "note_off_time": 138.125}, {"pitch": 79, "velocity": 67, "note_on_time": 138.136, "note_off_time": 138.453}, {"pitch": 76, "velocity": 64, "note_on_time": 138.729, "note_off_time": 139.333}, {"pitch": 74, "velocity": 67, "note_on_time": 139.352, "note_off_time": 139.952}, {"pitch": 72, "velocity": 61, "note_on_time": 139.955, "note_off_time": 140.457}, {"pitch": 77, "velocity": 63, "note_on_time": 142.426, "note_off_time": 143.027}, {"pitch": 79, "velocity": 70, "note_on_time": 143.029, "note_off_time": 143.368}, {"pitch": 74, "velocity": 60, "note_on_time": 143.683, "note_off_time": 143.952}, {"pitch": 76, "velocity": 70, "note_on_time": 144.069, "note_off_time": 144.524}, {"pitch": 74, "velocity": 57, "note_on_time": 144.643, "note_off_time": 145.224}, {"pitch": 72, "velocity": 54, "note_on_time": 145.259, "note_off_time": 145.636}, {"pitch": 74, "velocity": 51, "note_on_time": 148.436, "note_off_time": 149.08}, {"pitch": 72, "velocity": 57, "note_on_time": 149.038, "note_off_time": 149.557}, {"pitch": 76, "velocity": 69, "note_on_time": 149.679, "note_off_time": 149.958}, {"pitch": 77, "velocity": 52, "note_on_time": 150.275, "note_off_time": 150.624}, {"pitch": 79, "velocity": 64, "note_on_time": 150.904, "note_off_time": 151.267}, {"pitch": 74, "velocity": 67, "note_on_time": 153.359, "note_off_time": 153.905}, {"pitch": 72, "velocity": 51, "note_on_time": 153.927, "note_off_time": 154.514}, {"pitch": 76, "velocity": 62, "note_on_time": 154.526, "note_off_time": 155.065}, {"pitch": 77, "velocity": 56, "note_on_time": 155.12, "note_off_time": 155.72}, {"pitch": 79, "velocity": 70, "note_on_time": 155.733, "note_off_time": 156.518}, {"pitch": 74, "velocity": 62, "note_on_time": 158.211, "note_off_time": 158.83}, {"pitch": 72, "velocity": 55, "note_on_time": 158.841, "note_off_time": 159.312}, {"pitch": 76, "velocity": 48, "note_on_time": 159.406, "note_off_time": 159.974}, {"pitch": 77, "velocity": 53, "note_on_time": 160.014, "note_off_time": 160.612}, {"pitch": 79, "velocity": 67, "note_on_time": 160.623, "note_off_time": 161.22}, {"pitch": 74, "velocity": 59, "note_on_time": 163.061, "note_off_time": 163.643}, {"pitch": 72, "velocity": 55, "note_on_time": 163.638, "note_off_time": 164.156}, {"pitch": 76, "velocity": 56, "note_on_time": 164.253, "note_off_time": 164.826}, {"pitch": 77, "velocity": 51, "note_on_time": 164.845, "note_off_time": 165.44}, {"pitch": 79, "velocity": 73, "note_on_time": 165.434, "note_off_time": 166.202}, {"pitch": 72, "velocity": 58, "note_on_time": 175.182, "note_off_time": 175.487}, {"pitch": 74, "velocity": 70, "note_on_time": 175.81, "note_off_time": 176.353}, {"pitch": 76, "velocity": 54, "note_on_time": 176.41, "note_off_time": 176.973}, {"pitch": 77, "velocity": 52, "note_on_time": 177.006, "note_off_time": 177.59}, {"pitch": 79, "velocity": 65, "note_on_time": 177.62, "note_off_time": 179.405}, {"pitch": 72, "velocity": 29, "note_on_time": 180.036, "note_off_time": 180.645}, {"pitch": 74, "velocity": 68, "note_on_time": 180.654, "note_off_time": 181.212}, {"pitch": 76, "velocity": 61, "note_on_time": 181.248, "note_off_time": 181.785}, {"pitch": 77, "velocity": 55, "note_on_time": 181.839, "note_off_time": 182.419}, {"pitch": 79, "velocity": 77, "note_on_time": 182.428, "note_off_time": 183.962}, {"pitch": 72, "velocity": 51, "note_on_time": 184.865, "note_off_time": 185.485}, {"pitch": 74, "velocity": 50, "note_on_time": 185.513, "note_off_time": 186.026}, {"pitch": 76, "velocity": 48, "note_on_time": 186.055, "note_off_time": 186.62}, {"pitch": 77, "velocity": 33, "note_on_time": 186.659, "note_off_time": 187.27}, {"pitch": 79, "velocity": 66, "note_on_time": 187.303, "note_off_time": 189.15}, {"pitch": 72, "velocity": 58, "note_on_time": 189.824, "note_off_time": 190.302}, {"pitch": 74, "velocity": 58, "note_on_time": 190.349, "note_off_time": 190.895}, {"pitch": 76, "velocity": 59, "note_on_time": 190.921, "note_off_time": 191.47}, {"pitch": 77, "velocity": 50, "note_on_time": 191.511, "note_off_time": 192.123}, {"pitch": 79, "velocity": 70, "note_on_time": 192.133, "note_off_time": 193.834}]</notes><guidance name="Guidance Mode">None</guidance><error name="Error value">99</error></trial><trial trial_no="3" timestamp="2023_06_21-10_42_14"><notes name="Played Notes">[{"pitch": 72, "velocity": 23, "note_on_time": 4.879, "note_off_time": 5.43}, {"pitch": 74, "velocity": 62, "note_on_time": 5.464, "note_off_time": 5.973}, {"pitch": 76, "velocity": 64, "note_on_time": 6.033, "note_off_time": 6.607}, {"pitch": 77, "velocity": 48, "note_on_time": 6.654, "note_off_time": 7.3}, {"pitch": 79, "velocity": 65, "note_on_time": 7.308, "note_off_time": 8.253}, {"pitch": 72, "velocity": 64, "note_on_time": 9.728, "note_off_time": 10.265}, {"pitch": 74, "velocity": 54, "note_on_time": 10.319, "note_off_time": 10.907}, {"pitch": 76, "velocity": 63, "note_on_time": 10.907, "note_off_time": 11.519}, {"pitch": 77, "velocity": 61, "note_on_time": 11.514, "note_off_time": 12.148}, {"pitch": 79, "velocity": 61, "note_on_time": 12.145, "note_off_time": 13.426}, {"pitch": 72, "velocity": 49, "note_on_time": 14.617, "note_off_time": 15.191}, {"pitch": 74, "velocity": 51, "note_on_time": 15.244, "note_off_time": 15.794}, {"pitch": 76, "velocity": 60, "note_on_time": 15.821, "note_off_time": 16.349}, {"pitch": 77, "velocity": 38, "note_on_time": 16.369, "note_off_time": 17.001}, {"pitch": 79, "velocity": 59, "note_on_time": 17.016, "note_off_time": 17.935}, {"pitch": 72, "velocity": 51, "note_on_time": 19.467, "note_off_time": 20.042}, {"pitch": 74, "velocity": 58, "note_on_time": 20.064, "note_off_time": 20.665}, {"pitch": 76, "velocity": 59, "note_on_time": 20.701, "note_off_time": 21.265}, {"pitch": 77, "velocity": 58, "note_on_time": 21.296, "note_off_time": 21.884}, {"pitch": 79, "velocity": 68, "note_on_time": 21.899, "note_off_time": 23.564}, {"pitch": 79, "velocity": 68, "note_on_time": 24.345, "note_off_time": 24.944}, {"pitch": 77, "velocity": 46, "note_on_time": 24.947, "note_off_time": 25.545}, {"pitch": 76, "velocity": 59, "note_on_time": 25.541, "note_off_time": 26.139}, {"pitch": 74, "velocity": 59, "note_on_time": 26.129, "note_off_time": 26.749}, {"pitch": 72, "velocity": 57, "note_on_time": 26.77, "note_off_time": 28.014}, {"pitch": 79, "velocity": 52, "note_on_time": 29.187, "note_off_time": 29.834}, {"pitch": 77, "velocity": 57, "note_on_time": 29.795, "note_off_time": 30.39}, {"pitch": 76, "velocity": 63, "note_on_time": 30.404, "note_off_time": 31.005}, {"pitch": 74, "velocity": 65, "note_on_time": 31.018, "note_off_time": 31.541}, {"pitch": 72, "velocity": 53, "note_on_time": 31.628, "note_off_time": 33.435}, {"pitch": 79, "velocity": 61, "note_on_time": 34.042, "note_off_time": 34.629}, {"pitch": 77, "velocity": 50, "note_on_time": 34.645, "note_off_time": 35.197}, {"pitch": 76, "velocity": 55, "note_on_time": 35.25, "note_off_time": 35.865}, {"pitch": 74, "velocity": 68, "note_on_time": 35.849, "note_off_time": 36.461}, {"pitch": 72, "velocity": 60, "note_on_time": 36.481, "note_off_time": 38.276}, {"pitch": 79, "velocity": 61, "note_on_time": 38.926, "note_off_time": 39.505}, {"pitch": 77, "velocity": 60, "note_on_time": 39.521, "note_off_time": 40.098}, {"pitch": 76, "velocity": 64, "note_on_time": 40.123, "note_off_time": 40.715}, {"pitch": 74, "velocity": 56, "note_on_time": 40.732, "note_off_time": 41.332}, {"pitch": 72, "velocity": 54, "note_on_time": 41.342, "note_off_time": 43.209}, {"pitch": 74, "velocity": 60, "note_on_time": 43.776, "note_off_time": 44.28}, {"pitch": 76, "velocity": 49, "note_on_time": 44.37, "note_off_time": 44.88}, {"pitch": 77, "velocity": 59, "note_on_time": 44.959, "note_off_time": 45.571}, {"pitch": 79, "velocity": 68, "note_on_time": 45.59, "note_off_time": 46.149}, {"pitch": 72, "velocity": 56, "note_on_time": 46.22, "note_off_time": 47.574}, {"pitch": 74, "velocity": 65, "note_on_time": 48.639, "note_off_time": 49.197}, {"pitch": 76, "velocity": 59, "note_on_time": 49.21, "note_off_time": 49.808}, {"pitch": 77, "velocity": 57, "note_on_time": 49.818, "note_off_time": 50.448}, {"pitch": 79, "velocity": 71, "note_on_time": 50.44, "note_off_time": 51.068}, {"pitch": 72, "velocity": 60, "note_on_time": 51.096, "note_off_time": 52.937}, {"pitch": 74, "velocity": 65, "note_on_time": 53.501, "note_off_time": 54.019}, {"pitch": 76, "velocity": 55, "note_on_time": 54.101, "note_off_time": 54.609}, {"pitch": 77, "velocity": 53, "note_on_time": 54.709, "note_off_time": 55.274}, {"pitch": 79, "velocity": 61, "note_on_time": 55.307, "note_off_time": 55.859}, {"pitch": 72, "velocity": 56, "note_on_time": 55.898, "note_off_time": 57.653}, {"pitch": 74, "velocity": 63, "note_on_time": 58.318, "note_off_time": 58.921}, {"pitch": 76, "velocity": 58, "note_on_time": 58.93, "note_off_time": 59.519}, {"pitch": 77, "velocity": 56, "note_on_time": 59.525, "note_off_time": 60.152}, {"pitch": 79, "velocity": 69, "note_on_time": 60.146, "note_off_time": 60.753}, {"pitch": 72, "velocity": 63, "note_on_time": 60.789, "note_off_time": 62.559}, {"pitch": 77, "velocity": 55, "note_on_time": 63.256, "note_off_time": 63.761}, {"pitch": 76, "velocity": 57, "note_on_time": 63.823, "note_off_time": 64.412}, {"pitch": 74, "velocity": 65, "note_on_time": 64.417, "note_off_time": 65.029}, {"pitch": 72, "velocity": 56, "note_on_time": 65.018, "note_off_time": 65.604}, {"pitch": 79, "velocity": 66, "note_on_time": 65.618, "note_off_time": 67.403}, {"pitch": 77, "velocity": 62, "note_on_time": 68.087, "note_off_time": 68.638}, {"pitch": 76, "velocity": 51, "note_on_time": 68.66, "note_off_time": 69.321}, {"pitch": 74, "velocity": 66, "note_on_time": 69.289, "note_off_time": 69.917}, {"pitch": 72, "velocity": 48, "note_on_time": 69.894, "note_off_time": 70.516}, {"pitch": 79, "velocity": 68, "note_on_time": 70.508, "note_off_time": 72.113}, {"pitch": 77, "velocity": 58, "note_on_time": 72.965, "note_off_time": 73.488}, {"pitch": 76, "velocity": 52, "note_on_time": 73.534, "note_off_time": 74.131}, {"pitch": 74, "velocity": 58, "note_on_time": 74.137, "note_off_time": 74.712}, {"pitch": 72, "velocity": 58, "note_on_time": 74.722, "note_off_time": 75.322}, {"pitch": 79, "velocity": 69, "note_on_time": 75.323, "note_off_time": 77.308}, {"pitch": 77, "velocity": 54, "note_on_time": 77.83, "note_off_time": 78.402}, {"pitch": 76, "velocity": 57, "note_on_time": 78.427, "note_off_time": 79.045}, {"pitch": 74, "velocity": 56, "note_on_time": 79.052, "note_off_time": 79.627}, {"pitch": 72, "velocity": 58, "note_on_time": 79.634, "note_off_time": 80.22}, {"pitch": 79, "velocity": 68, "note_on_time": 80.203, "note_off_time": 81.699}, {"pitch": 76, "velocity": 63, "note_on_time": 82.685, "note_off_time": 83.218}, {"pitch": 77, "velocity": 53, "note_on_time": 83.252, "note_off_time": 83.874}, {"pitch": 79, "velocity": 64, "note_on_time": 83.869, "note_off_time": 84.237}, {"pitch": 74, "velocity": 57, "note_on_time": 84.47, "note_off_time": 85.02}, {"pitch": 72, "velocity": 45, "note_on_time": 85.062, "note_off_time": 86.966}, {"pitch": 76, "velocity": 64, "note_on_time": 87.54, "note_off_time": 88.166}, {"pitch": 77, "velocity": 57, "note_on_time": 88.13, "note_off_time": 88.717}, {"pitch": 79, "velocity": 65, "note_on_time": 88.751, "note_off_time": 89.485}, {"pitch": 74, "velocity": 78, "note_on_time": 89.379, "note_off_time": 89.986}, {"pitch": 72, "velocity": 56, "note_on_time": 89.98, "note_off_time": 91.872}, {"pitch": 76, "velocity": 70, "note_on_time": 92.416, "note_off_time": 93.032}, {"pitch": 77, "velocity": 46, "note_on_time": 93.075, "note_off_time": 93.629}, {"pitch": 79, "velocity": 63, "note_on_time": 93.658, "note_off_time": 94.293}, {"pitch": 74, "velocity": 73, "note_on_time": 94.259, "note_off_time": 94.877}, {"pitch": 72, "velocity": 73, "note_on_time": 94.887, "note_off_time": 96.795}, {"pitch": 76, "velocity": 62, "note_on_time": 97.353, "note_off_time": 97.88}, {"pitch": 77, "velocity": 61, "note_on_time": 97.932, "note_off_time": 98.524}, {"pitch": 79, "velocity": 62, "note_on_time": 98.558, "note_off_time": 99.117}, {"pitch": 74, "velocity": 59, "note_on_time": 99.159, "note_off_time": 99.741}, {"pitch": 72, "velocity": 65, "note_on_time": 99.751, "note_off_time": 101.416}, {"pitch": 76, "velocity": 61, "note_on_time": 102.182, "note_off_time": 102.781}, {"pitch": 74, "velocity": 62, "note_on_time": 102.779, "note_off_time": 103.381}, {"pitch": 72, "velocity": 58, "note_on_time": 103.373, "note_off_time": 104.029}, {"pitch": 77, "velocity": 57, "note_on_time": 104.019, "note_off_time": 104.515}, {"pitch": 79, "velocity": 43, "note_on_time": 104.628, "note_off_time": 106.219}, {"pitch": 76, "velocity": 55, "note_on_time": 107.086, "note_off_time": 107.686}, {"pitch": 74, "velocity": 64, "note_on_time": 107.695, "note_off_time": 108.277}, {"pitch": 72, "velocity": 55, "note_on_time": 108.25, "note_off_time": 108.866}, {"pitch": 77, "velocity": 55, "note_on_time": 108.865, "note_off_time": 109.478}, {"pitch": 79, "velocity": 67, "note_on_time": 109.501, "note_off_time": 111.245}, {"pitch": 76, "velocity": 63, "note_on_time": 111.997, "note_off_time": 112.573}, {"pitch": 74, "velocity": 56, "note_on_time": 112.596, "note_off_time": 113.17}, {"pitch": 72, "velocity": 59, "note_on_time": 113.171, "note_off_time": 113.746}, {"pitch": 77, "velocity": 49, "note_on_time": 113.778, "note_off_time": 114.339}, {"pitch": 79, "velocity": 65, "note_on_time": 114.377, "note_off_time": 116.253}, {"pitch": 76, "velocity": 59, "note_on_time": 116.824, "note_off_time": 117.323}, {"pitch": 74, "velocity": 58, "note_on_time": 117.396, "note_off_time": 118.017}, {"pitch": 72, "velocity": 60, "note_on_time": 118.029, "note_off_time": 118.515}, {"pitch": 77, "velocity": 51, "note_on_time": 118.618, "note_off_time": 119.225}, {"pitch": 79, "velocity": 68, "note_on_time": 119.255, "note_off_time": 120.999}, {"pitch": 77, "velocity": 20, "note_on_time": 121.637, "note_off_time": 122.177}, {"pitch": 79, "velocity": 71, "note_on_time": 122.222, "note_off_time": 122.707}, {"pitch": 76, "velocity": 42, "note_on_time": 122.816, "note_off_time": 123.423}, {"pitch": 74, "velocity": 71, "note_on_time": 123.426, "note_off_time": 124.062}, {"pitch": 72, "velocity": 63, "note_on_time": 124.067, "note_off_time": 124.395}, {"pitch": 77, "velocity": 71, "note_on_time": 126.499, "note_off_time": 127.078}, {"pitch": 79, "velocity": 53, "note_on_time": 127.124, "note_off_time": 127.797}, {"pitch": 76, "velocity": 73, "note_on_time": 127.747, "note_off_time": 128.3}, {"pitch": 74, "velocity": 64, "note_on_time": 128.331, "note_off_time": 128.938}, {"pitch": 72, "velocity": 54, "note_on_time": 128.964, "note_off_time": 130.83}, {"pitch": 77, "velocity": 31, "note_on_time": 131.379, "note_off_time": 131.948}, {"pitch": 79, "velocity": 61, "note_on_time": 131.983, "note_off_time": 132.573}, {"pitch": 76, "velocity": 58, "note_on_time": 132.585, "note_off_time": 133.197}, {"pitch": 74, "velocity": 63, "note_on_time": 133.186, "note_off_time": 133.814}, {"pitch": 72, "velocity": 62, "note_on_time": 133.828, "note_off_time": 135.77}, {"pitch": 77, "velocity": 51, "note_on_time": 136.264, "note_off_time": 136.826}, {"pitch": 79, "velocity": 70, "note_on_time": 136.851, "note_off_time": 137.417}, {"pitch": 76, "velocity": 62, "note_on_time": 137.44, "note_off_time": 138.002}, {"pitch": 74, "velocity": 62, "note_on_time": 138.036, "note_off_time": 138.696}, {"pitch": 72, "velocity": 55, "note_on_time": 138.7, "note_off_time": 140.423}, {"pitch": 74, "velocity": 64, "note_on_time": 141.125, "note_off_time": 141.737}, {"pitch": 72, "velocity": 60, "note_on_time": 141.728, "note_off_time": 142.063}, {"pitch": 76, "velocity": 58, "note_on_time": 142.335, "note_off_time": 142.894}, {"pitch": 77, "velocity": 56, "note_on_time": 142.955, "note_off_time": 143.502}, {"pitch": 79, "velocity": 62, "note_on_time": 143.54, "note_off_time": 145.014}, {"pitch": 74, "velocity": 62, "note_on_time": 145.976, "note_off_time": 146.585}, {"pitch": 72, "velocity": 51, "note_on_time": 146.605, "note_off_time": 147.204}, {"pitch": 76, "velocity": 50, "note_on_time": 147.212, "note_off_time": 147.757}, {"pitch": 77, "velocity": 52, "note_on_time": 147.774, "note_off_time": 148.371}, {"pitch": 79, "velocity": 58, "note_on_time": 148.406, "note_off_time": 150.37}, {"pitch": 74, "velocity": 67, "note_on_time": 150.865, "note_off_time": 151.459}, {"pitch": 72, "velocity": 52, "note_on_time": 151.452, "note_off_time": 151.947}, {"pitch": 76, "velocity": 55, "note_on_time": 152.071, "note_off_time": 152.645}, {"pitch": 77, "velocity": 64, "note_on_time": 152.668, "note_off_time": 153.325}, {"pitch": 79, "velocity": 73, "note_on_time": 153.322, "note_off_time": 155.07}, {"pitch": 74, "velocity": 64, "note_on_time": 155.733, "note_off_time": 156.421}, {"pitch": 72, "velocity": 53, "note_on_time": 156.343, "note_off_time": 156.505}, {"pitch": 74, "velocity": 2, "note_on_time": 156.593, "note_off_time": 156.779}, {"pitch": 76, "velocity": 62, "note_on_time": 156.919, "note_off_time": 157.463}, {"pitch": 77, "velocity": 60, "note_on_time": 157.552, "note_off_time": 158.137}, {"pitch": 79, "velocity": 63, "note_on_time": 158.198, "note_off_time": 160.09}, {"pitch": 72, "velocity": 38, "note_on_time": 160.648, "note_off_time": 161.199}, {"pitch": 74, "velocity": 59, "note_on_time": 161.192, "note_off_time": 161.752}, {"pitch": 76, "velocity": 57, "note_on_time": 161.789, "note_off_time": 162.363}, {"pitch": 77, "velocity": 58, "note_on_time": 162.417, "note_off_time": 162.994}, {"pitch": 79, "velocity": 62, "note_on_time": 163.028, "note_off_time": 165.013}, {"pitch": 72, "velocity": 48, "note_on_time": 165.41, "note_off_time": 166.086}, {"pitch": 74, "velocity": 64, "note_on_time": 166.095, "note_off_time": 166.625}, {"pitch": 76, "velocity": 53, "note_on_time": 166.667, "note_off_time": 167.228}, {"pitch": 77, "velocity": 55, "note_on_time": 167.253, "note_off_time": 167.849}, {"pitch": 79, "velocity": 59, "note_on_time": 167.868, "note_off_time": 169.913}, {"pitch": 72, "velocity": 55, "note_on_time": 170.346, "note_off_time": 170.943}, {"pitch": 74, "velocity": 54, "note_on_time": 170.991, "note_off_time": 171.497}, {"pitch": 76, "velocity": 57, "note_on_time": 171.538, "note_off_time": 172.071}, {"pitch": 77, "velocity": 55, "note_on_time": 172.116, "note_off_time": 172.724}, {"pitch": 79, "velocity": 64, "note_on_time": 172.764, "note_off_time": 174.642}, {"pitch": 72, "velocity": 51, "note_on_time": 175.26, "note_off_time": 175.809}, {"pitch": 74, "velocity": 51, "note_on_time": 175.84, "note_off_time": 176.381}, {"pitch": 76, "velocity": 54, "note_on_time": 176.407, "note_off_time": 176.959}, {"pitch": 77, "velocity": 56, "note_on_time": 177.0, "note_off_time": 177.631}, {"pitch": 79, "velocity": 67, "note_on_time": 177.635, "note_off_time": 179.603}, {"pitch": 79, "velocity": 67, "note_on_time": 180.102, "note_off_time": 180.701}, {"pitch": 77, "velocity": 52, "note_on_time": 180.744, "note_off_time": 181.28}, {"pitch": 76, "velocity": 53, "note_on_time": 181.321, "note_off_time": 181.899}, {"pitch": 74, "velocity": 64, "note_on_time": 181.913, "note_off_time": 182.514}, {"pitch": 72, "velocity": 55, "note_on_time": 182.529, "note_off_time": 184.507}, {"pitch": 79, "velocity": 62, "note_on_time": 184.952, "note_off_time": 185.551}, {"pitch": 77, "velocity": 40, "note_on_time": 185.591, "note_off_time": 186.17}, {"pitch": 76, "velocity": 61, "note_on_time": 186.184, "note_off_time": 186.767}, {"pitch": 74, "velocity": 61, "note_on_time": 186.794, "note_off_time": 187.329}, {"pitch": 72, "velocity": 61, "note_on_time": 187.363, "note_off_time": 189.744}, {"pitch": 79, "velocity": 49, "note_on_time": 189.814, "note_off_time": 190.401}, {"pitch": 77, "velocity": 55, "note_on_time": 190.45, "note_off_time": 190.935}, {"pitch": 76, "velocity": 44, "note_on_time": 191.025, "note_off_time": 191.619}, {"pitch": 74, "velocity": 64, "note_on_time": 191.623, "note_off_time": 192.219}, {"pitch": 72, "velocity": 55, "note_on_time": 192.228, "note_off_time": 194.455}]</notes><guidance name="Guidance Mode">None</guidance><error name="Error value">99</error></trial></trials></MIDI>