<MIDI midiNo="2023_06_13-11_43_12"><target_notes><notes name="Note List">[{"pitch": 60, "velocity": 40, "note_on_time": 0.009, "note_off_time": 1.017}, {"pitch": 64, "velocity": 40, "note_on_time": 0.01, "note_off_time": 1.017}, {"pitch": 67, "velocity": 40, "note_on_time": 0.01, "note_off_time": 1.018}, {"pitch": 48, "velocity": 40, "note_on_time": 0.01, "note_off_time": 1.018}, {"pitch": 52, "velocity": 40, "note_on_time": 1.018, "note_off_time": 2.029}, {"pitch": 55, "velocity": 40, "note_on_time": 1.018, "note_off_time": 2.03}, {"pitch": 74, "velocity": 40, "note_on_time": 2.029, "note_off_time": 3.031}, {"pitch": 48, "velocity": 40, "note_on_time": 2.03, "note_off_time": 3.031}, {"pitch": 52, "velocity": 40, "note_on_time": 3.031, "note_off_time": 4.037}, {"pitch": 55, "velocity": 40, "note_on_time": 3.031, "note_off_time": 4.037}, {"pitch": 48, "velocity": 40, "note_on_time": 4.037, "note_off_time": 5.048}, {"pitch": 52, "velocity": 40, "note_on_time": 5.048, "note_off_time": 6.052}, {"pitch": 55, "velocity": 40, "note_on_time": 5.048, "note_off_time": 6.052}, {"pitch": 48, "velocity": 40, "note_on_time": 6.052, "note_off_time": 7.062}, {"pitch": 52, "velocity": 40, "note_on_time": 7.062, "note_off_time": 8.075}, {"pitch": 55, "velocity": 40, "note_on_time": 7.062, "note_off_time": 8.076}, {"pitch": 60, "velocity": 40, "note_on_time": 8.074, "note_off_time": 9.086}, {"pitch": 64, "velocity": 40, "note_on_time": 8.075, "note_off_time": 9.087}, {"pitch": 67, "velocity": 40, "note_on_time": 8.075, "note_off_time": 9.088}, {"pitch": 48, "velocity": 40, "note_on_time": 8.076, "note_off_time": 9.088}, {"pitch": 52, "velocity": 40, "note_on_time": 9.088, "note_off_time": 10.099}, {"pitch": 55, "velocity": 40, "note_on_time": 9.088, "note_off_time": 10.099}, {"pitch": 79, "velocity": 40, "note_on_time": 10.098, "note_off_time": 11.114}, {"pitch": 48, "velocity": 40, "note_on_time": 10.099, "note_off_time": 11.114}, {"pitch": 52, "velocity": 40, "note_on_time": 11.114, "note_off_time": 12.115}, {"pitch": 55, "velocity": 40, "note_on_time": 11.114, "note_off_time": 12.115}, {"pitch": 48, "velocity": 40, "note_on_time": 12.115, "note_off_time": 13.125}, {"pitch": 52, "velocity": 40, "note_on_time": 13.125, "note_off_time": 14.14}, {"pitch": 55, "velocity": 40, "note_on_time": 13.125, "note_off_time": 14.14}, {"pitch": 48, "velocity": 40, "note_on_time": 14.14, "note_off_time": 15.149}, {"pitch": 52, "velocity": 40, "note_on_time": 15.149, "note_off_time": 16.153}, {"pitch": 55, "velocity": 40, "note_on_time": 15.149, "note_off_time": 16.154}, {"pitch": 60, "velocity": 40, "note_on_time": 16.152, "note_off_time": 17.159}, {"pitch": 64, "velocity": 40, "note_on_time": 16.153, "note_off_time": 17.16}, {"pitch": 67, "velocity": 40, "note_on_time": 16.153, "note_off_time": 17.161}, {"pitch": 48, "velocity": 40, "note_on_time": 16.154, "note_off_time": 17.161}, {"pitch": 52, "velocity": 40, "note_on_time": 17.161, "note_off_time": 18.177}, {"pitch": 55, "velocity": 40, "note_on_time": 17.161, "note_off_time": 18.178}, {"pitch": 76, "velocity": 40, "note_on_time": 18.177, "note_off_time": 19.186}, {"pitch": 48, "velocity": 40, "note_on_time": 18.178, "note_off_time": 19.186}, {"pitch": 52, "velocity": 40, "note_on_time": 19.187, "note_off_time": 20.197}, {"pitch": 55, "velocity": 40, "note_on_time": 19.187, "note_off_time": 20.197}, {"pitch": 48, "velocity": 40, "note_on_time": 20.197, "note_off_time": 21.207}, {"pitch": 52, "velocity": 40, "note_on_time": 21.207, "note_off_time": 22.217}, {"pitch": 55, "velocity": 40, "note_on_time": 21.207, "note_off_time": 22.217}, {"pitch": 48, "velocity": 40, "note_on_time": 22.217, "note_off_time": 23.231}, {"pitch": 52, "velocity": 40, "note_on_time": 23.231, "note_off_time": 24.242}, {"pitch": 55, "velocity": 40, "note_on_time": 23.231, "note_off_time": 24.242}, {"pitch": 60, "velocity": 40, "note_on_time": 24.24, "note_off_time": 25.25}, {"pitch": 64, "velocity": 40, "note_on_time": 24.241, "note_off_time": 25.252}, {"pitch": 67, "velocity": 40, "note_on_time": 24.241, "note_off_time": 25.252}, {"pitch": 48, "velocity": 40, "note_on_time": 24.242, "note_off_time": 25.253}, {"pitch": 52, "velocity": 40, "note_on_time": 25.253, "note_off_time": 26.256}, {"pitch": 55, "velocity": 40, "note_on_time": 25.253, "note_off_time": 26.256}, {"pitch": 79, "velocity": 40, "note_on_time": 26.256, "note_off_time": 27.265}, {"pitch": 48, "velocity": 40, "note_on_time": 26.256, "note_off_time": 27.265}, {"pitch": 52, "velocity": 40, "note_on_time": 27.266, "note_off_time": 28.267}, {"pitch": 55, "velocity": 40, "note_on_time": 27.266, "note_off_time": 28.267}, {"pitch": 48, "velocity": 40, "note_on_time": 28.267, "note_off_time": 29.28}, {"pitch": 52, "velocity": 40, "note_on_time": 29.28, "note_off_time": 30.283}, {"pitch": 55, "velocity": 40, "note_on_time": 29.28, "note_off_time": 30.283}, {"pitch": 48, "velocity": 40, "note_on_time": 30.283, "note_off_time": 31.293}, {"pitch": 52, "velocity": 40, "note_on_time": 31.293, "note_off_time": 32.297}, {"pitch": 55, "velocity": 40, "note_on_time": 31.293, "note_off_time": 32.297}, {"pitch": 60, "velocity": 40, "note_on_time": 32.296, "note_off_time": 33.304}, {"pitch": 64, "velocity": 40, "note_on_time": 32.296, "note_off_time": 33.305}, {"pitch": 67, "velocity": 40, "note_on_time": 32.297, "note_off_time": 33.305}, {"pitch": 48, "velocity": 40, "note_on_time": 32.297, "note_off_time": 33.306}, {"pitch": 52, "velocity": 40, "note_on_time": 33.306, "note_off_time": 34.312}, {"pitch": 55, "velocity": 40, "note_on_time": 33.306, "note_off_time": 34.313}, {"pitch": 72, "velocity": 40, "note_on_time": 34.312, "note_off_time": 35.326}, {"pitch": 48, "velocity": 40, "note_on_time": 34.313, "note_off_time": 35.326}, {"pitch": 52, "velocity": 40, "note_on_time": 35.326, "note_off_time": 36.338}, {"pitch": 55, "velocity": 40, "note_on_time": 35.326, "note_off_time": 36.338}, {"pitch": 48, "velocity": 40, "note_on_time": 36.338, "note_off_time": 37.35}, {"pitch": 52, "velocity": 40, "note_on_time": 37.35, "note_off_time": 38.364}, {"pitch": 55, "velocity": 40, "note_on_time": 37.35, "note_off_time": 38.364}, {"pitch": 48, "velocity": 40, "note_on_time": 38.364, "note_off_time": 39.366}, {"pitch": 52, "velocity": 40, "note_on_time": 39.366, "note_off_time": 40.383}, {"pitch": 55, "velocity": 40, "note_on_time": 39.366, "note_off_time": 40.383}, {"pitch": 60, "velocity": 40, "note_on_time": 40.381, "note_off_time": 41.395}, {"pitch": 64, "velocity": 40, "note_on_time": 40.382, "note_off_time": 41.396}, {"pitch": 67, "velocity": 40, "note_on_time": 40.383, "note_off_time": 41.397}, {"pitch": 79, "velocity": 40, "note_on_time": 42.402, "note_off_time": 43.412}, {"pitch": 60, "velocity": 40, "note_on_time": 48.423, "note_off_time": 49.432}, {"pitch": 64, "velocity": 40, "note_on_time": 48.424, "note_off_time": 49.432}, {"pitch": 67, "velocity": 40, "note_on_time": 48.425, "note_off_time": 49.435}, {"pitch": 77, "velocity": 40, "note_on_time": 50.451, "note_off_time": 51.462}, {"pitch": 60, "velocity": 40, "note_on_time": 56.463, "note_off_time": 57.472}, {"pitch": 64, "velocity": 40, "note_on_time": 56.464, "note_off_time": 57.472}, {"pitch": 67, "velocity": 40, "note_on_time": 56.464, "note_off_time": 57.472}, {"pitch": 72, "velocity": 40, "note_on_time": 58.485, "note_off_time": 59.496}, {"pitch": 60, "velocity": 40, "note_on_time": 64.505, "note_off_time": 65.514}, {"pitch": 64, "velocity": 40, "note_on_time": 64.506, "note_off_time": 65.515}, {"pitch": 67, "velocity": 40, "note_on_time": 64.506, "note_off_time": 65.516}, {"pitch": 79, "velocity": 40, "note_on_time": 66.519, "note_off_time": 67.534}, {"pitch": 60, "velocity": 40, "note_on_time": 72.548, "note_off_time": 73.559}, {"pitch": 64, "velocity": 40, "note_on_time": 72.548, "note_off_time": 73.56}, {"pitch": 67, "velocity": 40, "note_on_time": 72.549, "note_off_time": 73.56}, {"pitch": 76, "velocity": 40, "note_on_time": 74.571, "note_off_time": 75.579}, {"pitch": 60, "velocity": 40, "note_on_time": 80.584, "note_off_time": 81.592}, {"pitch": 64, "velocity": 40, "note_on_time": 80.585, "note_off_time": 81.593}, {"pitch": 67, "velocity": 40, "note_on_time": 80.585, "note_off_time": 81.593}, {"pitch": 77, "velocity": 40, "note_on_time": 82.599, "note_off_time": 83.613}, {"pitch": 60, "velocity": 40, "note_on_time": 88.614, "note_off_time": 89.623}, {"pitch": 64, "velocity": 40, "note_on_time": 88.615, "note_off_time": 89.624}, {"pitch": 67, "velocity": 40, "note_on_time": 88.615, "note_off_time": 89.625}, {"pitch": 74, "velocity": 40, "note_on_time": 90.628, "note_off_time": 91.643}, {"pitch": 60, "velocity": 40, "note_on_time": 96.646, "note_off_time": 97.661}, {"pitch": 64, "velocity": 40, "note_on_time": 96.646, "note_off_time": 97.663}, {"pitch": 67, "velocity": 40, "note_on_time": 96.647, "note_off_time": 97.663}, {"pitch": 76, "velocity": 40, "note_on_time": 98.671, "note_off_time": 99.68}, {"pitch": 60, "velocity": 40, "note_on_time": 104.685, "note_off_time": 105.697}, {"pitch": 64, "velocity": 40, "note_on_time": 104.686, "note_off_time": 105.698}, {"pitch": 67, "velocity": 40, "note_on_time": 104.686, "note_off_time": 105.698}, {"pitch": 72, "velocity": 40, "note_on_time": 106.705, "note_off_time": 107.721}, {"pitch": 60, "velocity": 40, "note_on_time": 112.724, "note_off_time": 113.737}, {"pitch": 64, "velocity": 40, "note_on_time": 112.725, "note_off_time": 113.738}, {"pitch": 67, "velocity": 40, "note_on_time": 112.725, "note_off_time": 113.738}, {"pitch": 74, "velocity": 40, "note_on_time": 114.747, "note_off_time": 115.757}, {"pitch": 60, "velocity": 40, "note_on_time": 120.772, "note_off_time": 121.782}, {"pitch": 64, "velocity": 40, "note_on_time": 120.772, "note_off_time": 121.783}, {"pitch": 67, "velocity": 40, "note_on_time": 120.772, "note_off_time": 121.784}, {"pitch": 72, "velocity": 40, "note_on_time": 122.797, "note_off_time": 123.806}, {"pitch": 60, "velocity": 40, "note_on_time": 128.818, "note_off_time": 129.825}, {"pitch": 64, "velocity": 40, "note_on_time": 128.819, "note_off_time": 129.825}, {"pitch": 67, "velocity": 40, "note_on_time": 128.819, "note_off_time": 129.826}, {"pitch": 77, "velocity": 40, "note_on_time": 130.835, "note_off_time": 131.845}, {"pitch": 60, "velocity": 40, "note_on_time": 136.849, "note_off_time": 137.853}, {"pitch": 64, "velocity": 40, "note_on_time": 136.851, "note_off_time": 137.854}, {"pitch": 67, "velocity": 40, "note_on_time": 136.851, "note_off_time": 137.855}, {"pitch": 76, "velocity": 40, "note_on_time": 138.86, "note_off_time": 139.865}, {"pitch": 60, "velocity": 40, "note_on_time": 144.873, "note_off_time": 145.887}, {"pitch": 64, "velocity": 40, "note_on_time": 144.874, "note_off_time": 145.887}, {"pitch": 67, "velocity": 40, "note_on_time": 144.875, "note_off_time": 145.888}, {"pitch": 74, "velocity": 40, "note_on_time": 146.891, "note_off_time": 147.902}, {"pitch": 60, "velocity": 40, "note_on_time": 152.905, "note_off_time": 153.922}, {"pitch": 64, "velocity": 40, "note_on_time": 152.906, "note_off_time": 153.923}, {"pitch": 67, "velocity": 40, "note_on_time": 152.907, "note_off_time": 153.923}, {"pitch": 77, "velocity": 40, "note_on_time": 154.933, "note_off_time": 155.948}, {"pitch": 60, "velocity": 40, "note_on_time": 160.955, "note_off_time": 161.967}, {"pitch": 64, "velocity": 40, "note_on_time": 160.956, "note_off_time": 161.968}, {"pitch": 67, "velocity": 40, "note_on_time": 160.956, "note_off_time": 161.968}, {"pitch": 74, "velocity": 40, "note_on_time": 162.979, "note_off_time": 163.991}]</notes><options name="Option List">((4, 4), [0.5, 0.25], 3, 8, &lt;NoteRangePerHand.TWO_NOTES: 3&gt;, &lt;NoteRangePerHand.ONE_NOTE: 2&gt;, False, True, True, 100)</options></target_notes><trials><trial trial_no="1" timestamp="2023_06_13-11_40_28"><notes name="Played Notes">[{"pitch": 77, "velocity": 42, "note_on_time": 3.361, "note_off_time": 4.175}, {"pitch": 77, "velocity": 61, "note_on_time": 12.782, "note_off_time": 13.799}, {"pitch": 76, "velocity": 59, "note_on_time": 14.023, "note_off_time": 15.031}, {"pitch": 76, "velocity": 63, "note_on_time": 19.281, "note_off_time": 20.272}, {"pitch": 76, "velocity": 51, "note_on_time": 28.383, "note_off_time": 29.048}, {"pitch": 77, "velocity": 59, "note_on_time": 29.53, "note_off_time": 30.223}, {"pitch": 72, "velocity": 63, "note_on_time": 30.8, "note_off_time": 31.225}, {"pitch": 74, "velocity": 51, "note_on_time": 31.267, "note_off_time": 31.571}, {"pitch": 77, "velocity": 51, "note_on_time": 31.959, "note_off_time": 32.57}, {"pitch": 77, "velocity": 35, "note_on_time": 35.373, "note_off_time": 36.475}, {"pitch": 76, "velocity": 42, "note_on_time": 36.686, "note_off_time": 37.263}, {"pitch": 77, "velocity": 18, "note_on_time": 44.053, "note_off_time": 44.763}, {"pitch": 76, "velocity": 56, "note_on_time": 45.032, "note_off_time": 45.63}, {"pitch": 79, "velocity": 52, "note_on_time": 46.447, "note_off_time": 46.982}, {"pitch": 79, "velocity": 54, "note_on_time": 52.068, "note_off_time": 53.124}, {"pitch": 77, "velocity": 55, "note_on_time": 60.457, "note_off_time": 61.263}, {"pitch": 79, "velocity": 47, "note_on_time": 61.869, "note_off_time": 62.455}, {"pitch": 72, "velocity": 14, "note_on_time": 62.968, "note_off_time": 63.718}, {"pitch": 79, "velocity": 56, "note_on_time": 67.522, "note_off_time": 68.186}, {"pitch": 79, "velocity": 48, "note_on_time": 68.464, "note_off_time": 69.411}, {"pitch": 77, "velocity": 57, "note_on_time": 75.982, "note_off_time": 76.651}, {"pitch": 79, "velocity": 48, "note_on_time": 76.912, "note_off_time": 78.048}, {"pitch": 72, "velocity": 22, "note_on_time": 78.297, "note_off_time": 79.043}, {"pitch": 74, "velocity": 57, "note_on_time": 79.326, "note_off_time": 79.796}, {"pitch": 76, "velocity": 13, "note_on_time": 80.015, "note_off_time": 80.364}, {"pitch": 76, "velocity": 78, "note_on_time": 84.271, "note_off_time": 84.775}, {"pitch": 79, "velocity": 64, "note_on_time": 85.295, "note_off_time": 86.224}, {"pitch": 79, "velocity": 46, "note_on_time": 92.317, "note_off_time": 92.86}, {"pitch": 77, "velocity": 53, "note_on_time": 93.192, "note_off_time": 93.703}, {"pitch": 72, "velocity": 24, "note_on_time": 94.168, "note_off_time": 94.97}, {"pitch": 72, "velocity": 2, "note_on_time": 99.963, "note_off_time": 100.625}, {"pitch": 79, "velocity": 47, "note_on_time": 101.07, "note_off_time": 101.608}, {"pitch": 76, "velocity": 11, "note_on_time": 102.078, "note_off_time": 102.627}, {"pitch": 74, "velocity": 46, "note_on_time": 102.669, "note_off_time": 103.05}, {"pitch": 77, "velocity": 45, "note_on_time": 103.149, "note_off_time": 103.571}, {"pitch": 79, "velocity": 18, "note_on_time": 108.144, "note_off_time": 109.296}, {"pitch": 72, "velocity": 5, "note_on_time": 110.15, "note_off_time": 111.159}, {"pitch": 72, "velocity": 41, "note_on_time": 116.332, "note_off_time": 117.348}, {"pitch": 74, "velocity": 29, "note_on_time": 117.575, "note_off_time": 118.427}, {"pitch": 74, "velocity": 51, "note_on_time": 124.594, "note_off_time": 125.217}, {"pitch": 76, "velocity": 46, "note_on_time": 125.479, "note_off_time": 126.011}, {"pitch": 72, "velocity": 46, "note_on_time": 126.299, "note_off_time": 126.992}, {"pitch": 72, "velocity": 43, "note_on_time": 132.181, "note_off_time": 132.83}, {"pitch": 74, "velocity": 50, "note_on_time": 133.032, "note_off_time": 133.641}, {"pitch": 79, "velocity": 18, "note_on_time": 134.186, "note_off_time": 134.68}, {"pitch": 77, "velocity": 50, "note_on_time": 134.955, "note_off_time": 135.428}, {"pitch": 79, "velocity": 39, "note_on_time": 140.394, "note_off_time": 140.982}, {"pitch": 77, "velocity": 56, "note_on_time": 141.319, "note_off_time": 141.767}, {"pitch": 72, "velocity": 27, "note_on_time": 142.071, "note_off_time": 142.646}, {"pitch": 72, "velocity": 27, "note_on_time": 148.438, "note_off_time": 149.173}, {"pitch": 79, "velocity": 10, "note_on_time": 150.526, "note_off_time": 151.113}, {"pitch": 72, "velocity": 39, "note_on_time": 151.447, "note_off_time": 151.741}, {"pitch": 72, "velocity": 25, "note_on_time": 156.699, "note_off_time": 157.05}, {"pitch": 74, "velocity": 47, "note_on_time": 157.477, "note_off_time": 157.917}, {"pitch": 71, "velocity": 17, "note_on_time": 158.902, "note_off_time": 159.257}, {"pitch": 79, "velocity": 52, "note_on_time": 159.994, "note_off_time": 160.925}]</notes><guidance name="Guidance Mode">None</guidance><error name="Error value">99</error></trial></trials></MIDI>