<MIDI midiNo="2023_06_08-13_26_39"><target_notes><notes name="Note List">[{"pitch": 60, "velocity": 40, "note_on_time": 0.01, "note_off_time": 1.024}, {"pitch": 64, "velocity": 40, "note_on_time": 0.01, "note_off_time": 1.025}, {"pitch": 67, "velocity": 40, "note_on_time": 0.01, "note_off_time": 1.025}, {"pitch": 48, "velocity": 40, "note_on_time": 0.01, "note_off_time": 1.026}, {"pitch": 52, "velocity": 40, "note_on_time": 1.026, "note_off_time": 2.039}, {"pitch": 55, "velocity": 40, "note_on_time": 1.026, "note_off_time": 2.039}, {"pitch": 77, "velocity": 40, "note_on_time": 2.039, "note_off_time": 3.054}, {"pitch": 48, "velocity": 40, "note_on_time": 2.039, "note_off_time": 3.054}, {"pitch": 52, "velocity": 40, "note_on_time": 3.055, "note_off_time": 4.064}, {"pitch": 55, "velocity": 40, "note_on_time": 3.055, "note_off_time": 4.064}, {"pitch": 48, "velocity": 40, "note_on_time": 4.064, "note_off_time": 5.074}, {"pitch": 52, "velocity": 40, "note_on_time": 5.074, "note_off_time": 6.074}, {"pitch": 55, "velocity": 40, "note_on_time": 5.074, "note_off_time": 6.074}, {"pitch": 48, "velocity": 40, "note_on_time": 6.074, "note_off_time": 7.087}, {"pitch": 52, "velocity": 40, "note_on_time": 7.087, "note_off_time": 8.096}, {"pitch": 55, "velocity": 40, "note_on_time": 7.087, "note_off_time": 8.096}, {"pitch": 60, "velocity": 40, "note_on_time": 8.095, "note_off_time": 9.103}, {"pitch": 64, "velocity": 40, "note_on_time": 8.095, "note_off_time": 9.103}, {"pitch": 67, "velocity": 40, "note_on_time": 8.096, "note_off_time": 9.104}, {"pitch": 48, "velocity": 40, "note_on_time": 8.096, "note_off_time": 9.104}, {"pitch": 52, "velocity": 40, "note_on_time": 9.104, "note_off_time": 10.109}, {"pitch": 55, "velocity": 40, "note_on_time": 9.104, "note_off_time": 10.109}, {"pitch": 76, "velocity": 40, "note_on_time": 10.108, "note_off_time": 11.121}, {"pitch": 48, "velocity": 40, "note_on_time": 10.109, "note_off_time": 11.121}, {"pitch": 52, "velocity": 40, "note_on_time": 11.122, "note_off_time": 12.136}, {"pitch": 55, "velocity": 40, "note_on_time": 11.122, "note_off_time": 12.136}, {"pitch": 48, "velocity": 40, "note_on_time": 12.136, "note_off_time": 13.146}, {"pitch": 52, "velocity": 40, "note_on_time": 13.146, "note_off_time": 14.149}, {"pitch": 55, "velocity": 40, "note_on_time": 13.146, "note_off_time": 14.149}, {"pitch": 48, "velocity": 40, "note_on_time": 14.149, "note_off_time": 15.154}, {"pitch": 52, "velocity": 40, "note_on_time": 15.154, "note_off_time": 16.164}, {"pitch": 55, "velocity": 40, "note_on_time": 15.154, "note_off_time": 16.164}, {"pitch": 60, "velocity": 40, "note_on_time": 16.162, "note_off_time": 17.169}, {"pitch": 64, "velocity": 40, "note_on_time": 16.163, "note_off_time": 17.169}, {"pitch": 67, "velocity": 40, "note_on_time": 16.163, "note_off_time": 17.17}, {"pitch": 48, "velocity": 40, "note_on_time": 16.164, "note_off_time": 17.17}, {"pitch": 52, "velocity": 40, "note_on_time": 17.17, "note_off_time": 18.181}, {"pitch": 55, "velocity": 40, "note_on_time": 17.17, "note_off_time": 18.183}, {"pitch": 79, "velocity": 40, "note_on_time": 18.181, "note_off_time": 19.195}, {"pitch": 48, "velocity": 40, "note_on_time": 18.183, "note_off_time": 19.195}, {"pitch": 52, "velocity": 40, "note_on_time": 19.196, "note_off_time": 20.209}, {"pitch": 55, "velocity": 40, "note_on_time": 19.196, "note_off_time": 20.209}, {"pitch": 48, "velocity": 40, "note_on_time": 20.209, "note_off_time": 21.216}, {"pitch": 52, "velocity": 40, "note_on_time": 21.216, "note_off_time": 22.23}, {"pitch": 55, "velocity": 40, "note_on_time": 21.216, "note_off_time": 22.23}, {"pitch": 48, "velocity": 40, "note_on_time": 22.23, "note_off_time": 23.234}, {"pitch": 52, "velocity": 40, "note_on_time": 23.234, "note_off_time": 24.247}, {"pitch": 55, "velocity": 40, "note_on_time": 23.234, "note_off_time": 24.247}, {"pitch": 60, "velocity": 40, "note_on_time": 24.245, "note_off_time": 25.252}, {"pitch": 64, "velocity": 40, "note_on_time": 24.246, "note_off_time": 25.253}, {"pitch": 67, "velocity": 40, "note_on_time": 24.247, "note_off_time": 25.253}, {"pitch": 48, "velocity": 40, "note_on_time": 24.247, "note_off_time": 25.253}, {"pitch": 52, "velocity": 40, "note_on_time": 25.253, "note_off_time": 26.255}, {"pitch": 55, "velocity": 40, "note_on_time": 25.253, "note_off_time": 26.255}, {"pitch": 74, "velocity": 40, "note_on_time": 26.255, "note_off_time": 27.262}, {"pitch": 48, "velocity": 40, "note_on_time": 26.255, "note_off_time": 27.262}, {"pitch": 52, "velocity": 40, "note_on_time": 27.262, "note_off_time": 28.265}, {"pitch": 55, "velocity": 40, "note_on_time": 27.262, "note_off_time": 28.265}, {"pitch": 48, "velocity": 40, "note_on_time": 28.265, "note_off_time": 29.269}, {"pitch": 52, "velocity": 40, "note_on_time": 29.269, "note_off_time": 30.27}, {"pitch": 55, "velocity": 40, "note_on_time": 29.269, "note_off_time": 30.27}, {"pitch": 48, "velocity": 40, "note_on_time": 30.27, "note_off_time": 31.282}, {"pitch": 52, "velocity": 40, "note_on_time": 31.282, "note_off_time": 32.295}, {"pitch": 55, "velocity": 40, "note_on_time": 31.282, "note_off_time": 32.296}, {"pitch": 60, "velocity": 40, "note_on_time": 32.294, "note_off_time": 33.311}, {"pitch": 64, "velocity": 40, "note_on_time": 32.295, "note_off_time": 33.311}, {"pitch": 67, "velocity": 40, "note_on_time": 32.295, "note_off_time": 33.312}, {"pitch": 48, "velocity": 40, "note_on_time": 32.296, "note_off_time": 33.312}, {"pitch": 52, "velocity": 40, "note_on_time": 33.312, "note_off_time": 34.318}, {"pitch": 55, "velocity": 40, "note_on_time": 33.312, "note_off_time": 34.318}, {"pitch": 77, "velocity": 40, "note_on_time": 34.317, "note_off_time": 35.331}, {"pitch": 48, "velocity": 40, "note_on_time": 34.318, "note_off_time": 35.331}, {"pitch": 52, "velocity": 40, "note_on_time": 35.332, "note_off_time": 36.333}, {"pitch": 55, "velocity": 40, "note_on_time": 35.332, "note_off_time": 36.333}, {"pitch": 48, "velocity": 40, "note_on_time": 36.333, "note_off_time": 37.343}, {"pitch": 52, "velocity": 40, "note_on_time": 37.343, "note_off_time": 38.359}, {"pitch": 55, "velocity": 40, "note_on_time": 37.343, "note_off_time": 38.359}, {"pitch": 48, "velocity": 40, "note_on_time": 38.359, "note_off_time": 39.372}, {"pitch": 52, "velocity": 40, "note_on_time": 39.372, "note_off_time": 40.381}, {"pitch": 55, "velocity": 40, "note_on_time": 39.372, "note_off_time": 40.381}, {"pitch": 60, "velocity": 40, "note_on_time": 40.379, "note_off_time": 41.393}, {"pitch": 64, "velocity": 40, "note_on_time": 40.38, "note_off_time": 41.393}, {"pitch": 67, "velocity": 40, "note_on_time": 40.381, "note_off_time": 41.394}, {"pitch": 74, "velocity": 40, "note_on_time": 42.409, "note_off_time": 43.415}, {"pitch": 60, "velocity": 40, "note_on_time": 48.417, "note_off_time": 49.423}, {"pitch": 64, "velocity": 40, "note_on_time": 48.417, "note_off_time": 49.424}, {"pitch": 67, "velocity": 40, "note_on_time": 48.418, "note_off_time": 49.425}, {"pitch": 79, "velocity": 40, "note_on_time": 50.433, "note_off_time": 51.446}, {"pitch": 60, "velocity": 40, "note_on_time": 56.452, "note_off_time": 57.462}, {"pitch": 64, "velocity": 40, "note_on_time": 56.453, "note_off_time": 57.463}, {"pitch": 67, "velocity": 40, "note_on_time": 56.453, "note_off_time": 57.463}, {"pitch": 72, "velocity": 40, "note_on_time": 58.467, "note_off_time": 59.477}, {"pitch": 60, "velocity": 40, "note_on_time": 64.48, "note_off_time": 65.494}, {"pitch": 64, "velocity": 40, "note_on_time": 64.48, "note_off_time": 65.495}, {"pitch": 67, "velocity": 40, "note_on_time": 64.481, "note_off_time": 65.496}, {"pitch": 74, "velocity": 40, "note_on_time": 66.512, "note_off_time": 67.525}, {"pitch": 60, "velocity": 40, "note_on_time": 72.529, "note_off_time": 73.542}, {"pitch": 64, "velocity": 40, "note_on_time": 72.53, "note_off_time": 73.543}, {"pitch": 67, "velocity": 40, "note_on_time": 72.531, "note_off_time": 73.543}, {"pitch": 72, "velocity": 40, "note_on_time": 74.554, "note_off_time": 75.561}, {"pitch": 60, "velocity": 40, "note_on_time": 80.566, "note_off_time": 81.582}, {"pitch": 64, "velocity": 40, "note_on_time": 80.567, "note_off_time": 81.583}, {"pitch": 67, "velocity": 40, "note_on_time": 80.567, "note_off_time": 81.584}, {"pitch": 77, "velocity": 40, "note_on_time": 82.594, "note_off_time": 83.606}, {"pitch": 60, "velocity": 40, "note_on_time": 88.609, "note_off_time": 89.624}, {"pitch": 64, "velocity": 40, "note_on_time": 88.609, "note_off_time": 89.625}, {"pitch": 67, "velocity": 40, "note_on_time": 88.61, "note_off_time": 89.625}, {"pitch": 79, "velocity": 40, "note_on_time": 90.634, "note_off_time": 91.64}, {"pitch": 60, "velocity": 40, "note_on_time": 96.646, "note_off_time": 97.662}, {"pitch": 64, "velocity": 40, "note_on_time": 96.647, "note_off_time": 97.664}, {"pitch": 67, "velocity": 40, "note_on_time": 96.647, "note_off_time": 97.664}, {"pitch": 76, "velocity": 40, "note_on_time": 98.669, "note_off_time": 99.672}, {"pitch": 60, "velocity": 40, "note_on_time": 104.687, "note_off_time": 105.692}, {"pitch": 64, "velocity": 40, "note_on_time": 104.688, "note_off_time": 105.693}, {"pitch": 67, "velocity": 40, "note_on_time": 104.688, "note_off_time": 105.694}, {"pitch": 77, "velocity": 40, "note_on_time": 106.708, "note_off_time": 107.722}, {"pitch": 60, "velocity": 40, "note_on_time": 112.734, "note_off_time": 113.745}, {"pitch": 64, "velocity": 40, "note_on_time": 112.735, "note_off_time": 113.746}, {"pitch": 67, "velocity": 40, "note_on_time": 112.735, "note_off_time": 113.746}, {"pitch": 76, "velocity": 40, "note_on_time": 114.759, "note_off_time": 115.762}, {"pitch": 60, "velocity": 40, "note_on_time": 120.779, "note_off_time": 121.788}, {"pitch": 64, "velocity": 40, "note_on_time": 120.779, "note_off_time": 121.789}, {"pitch": 67, "velocity": 40, "note_on_time": 120.78, "note_off_time": 121.79}, {"pitch": 72, "velocity": 40, "note_on_time": 122.796, "note_off_time": 123.799}, {"pitch": 60, "velocity": 40, "note_on_time": 128.814, "note_off_time": 129.821}, {"pitch": 64, "velocity": 40, "note_on_time": 128.815, "note_off_time": 129.822}, {"pitch": 67, "velocity": 40, "note_on_time": 128.816, "note_off_time": 129.823}, {"pitch": 74, "velocity": 40, "note_on_time": 130.836, "note_off_time": 131.839}, {"pitch": 60, "velocity": 40, "note_on_time": 136.862, "note_off_time": 137.877}, {"pitch": 64, "velocity": 40, "note_on_time": 136.862, "note_off_time": 137.877}, {"pitch": 67, "velocity": 40, "note_on_time": 136.863, "note_off_time": 137.878}, {"pitch": 79, "velocity": 40, "note_on_time": 138.892, "note_off_time": 139.9}, {"pitch": 60, "velocity": 40, "note_on_time": 144.911, "note_off_time": 145.923}, {"pitch": 64, "velocity": 40, "note_on_time": 144.912, "note_off_time": 145.924}, {"pitch": 67, "velocity": 40, "note_on_time": 144.912, "note_off_time": 145.925}, {"pitch": 76, "velocity": 40, "note_on_time": 146.936, "note_off_time": 147.948}, {"pitch": 60, "velocity": 40, "note_on_time": 152.953, "note_off_time": 153.959}, {"pitch": 64, "velocity": 40, "note_on_time": 152.954, "note_off_time": 153.959}, {"pitch": 67, "velocity": 40, "note_on_time": 152.954, "note_off_time": 153.96}, {"pitch": 72, "velocity": 40, "note_on_time": 154.97, "note_off_time": 155.972}, {"pitch": 60, "velocity": 40, "note_on_time": 160.975, "note_off_time": 161.991}, {"pitch": 64, "velocity": 40, "note_on_time": 160.976, "note_off_time": 161.992}, {"pitch": 67, "velocity": 40, "note_on_time": 160.976, "note_off_time": 161.992}, {"pitch": 77, "velocity": 40, "note_on_time": 163.005, "note_off_time": 164.012}]</notes><options name="Option List">((4, 4), [0.5, 0.25], 3, 8, &lt;NoteRangePerHand.TWO_NOTES: 3&gt;, &lt;NoteRangePerHand.ONE_NOTE: 2&gt;, False, True, True, 100)</options></target_notes><trials><trial trial_no="1" timestamp="2023_06_08-13_23_55"><notes name="Played Notes">[{"pitch": 72, "velocity": 4, "note_on_time": 3.452, "note_off_time": 3.689}, {"pitch": 74, "velocity": 12, "note_on_time": 5.801, "note_off_time": 6.062}, {"pitch": 76, "velocity": 11, "note_on_time": 8.172, "note_off_time": 8.417}, {"pitch": 72, "velocity": 1, "note_on_time": 11.99, "note_off_time": 12.22}, {"pitch": 74, "velocity": 20, "note_on_time": 14.19, "note_off_time": 14.42}, {"pitch": 76, "velocity": 38, "note_on_time": 20.313, "note_off_time": 20.611}, {"pitch": 72, "velocity": 33, "note_on_time": 27.861, "note_off_time": 28.146}, {"pitch": 74, "velocity": 31, "note_on_time": 30.847, "note_off_time": 31.103}, {"pitch": 76, "velocity": 46, "note_on_time": 36.855, "note_off_time": 37.184}, {"pitch": 77, "velocity": 28, "note_on_time": 40.342, "note_off_time": 40.663}, {"pitch": 72, "velocity": 36, "note_on_time": 43.99, "note_off_time": 44.27}, {"pitch": 76, "velocity": 57, "note_on_time": 52.014, "note_off_time": 52.474}, {"pitch": 77, "velocity": 56, "note_on_time": 53.404, "note_off_time": 54.049}, {"pitch": 74, "velocity": 27, "note_on_time": 60.289, "note_off_time": 60.855}, {"pitch": 72, "velocity": 36, "note_on_time": 61.795, "note_off_time": 62.449}, {"pitch": 76, "velocity": 23, "note_on_time": 69.178, "note_off_time": 69.982}, {"pitch": 74, "velocity": 38, "note_on_time": 71.075, "note_off_time": 71.963}, {"pitch": 74, "velocity": 50, "note_on_time": 76.977, "note_off_time": 77.678}, {"pitch": 72, "velocity": 44, "note_on_time": 78.509, "note_off_time": 79.527}, {"pitch": 76, "velocity": 49, "note_on_time": 84.933, "note_off_time": 85.643}, {"pitch": 77, "velocity": 39, "note_on_time": 86.262, "note_off_time": 87.259}, {"pitch": 77, "velocity": 43, "note_on_time": 92.982, "note_off_time": 93.811}, {"pitch": 76, "velocity": 15, "note_on_time": 95.532, "note_off_time": 96.315}, {"pitch": 76, "velocity": 53, "note_on_time": 100.8, "note_off_time": 101.941}, {"pitch": 77, "velocity": 41, "note_on_time": 109.159, "note_off_time": 110.026}, {"pitch": 77, "velocity": 59, "note_on_time": 116.96, "note_off_time": 117.776}, {"pitch": 74, "velocity": 63, "note_on_time": 118.804, "note_off_time": 119.628}, {"pitch": 79, "velocity": 47, "note_on_time": 125.487, "note_off_time": 126.186}, {"pitch": 72, "velocity": 37, "note_on_time": 127.733, "note_off_time": 128.35}, {"pitch": 72, "velocity": 58, "note_on_time": 132.835, "note_off_time": 133.544}, {"pitch": 74, "velocity": 47, "note_on_time": 134.245, "note_off_time": 135.381}, {"pitch": 77, "velocity": 30, "note_on_time": 141.044, "note_off_time": 141.668}, {"pitch": 79, "velocity": 43, "note_on_time": 142.38, "note_off_time": 143.466}, {"pitch": 77, "velocity": 41, "note_on_time": 148.822, "note_off_time": 149.772}, {"pitch": 74, "velocity": 23, "note_on_time": 151.038, "note_off_time": 151.785}, {"pitch": 72, "velocity": 51, "note_on_time": 156.699, "note_off_time": 157.655}]</notes><guidance name="Guidance Mode">None</guidance><error name="Error value">99</error></trial><trial trial_no="2" timestamp="2023_06_08-13_30_15"><notes name="Played Notes">[{"pitch": 72, "velocity": 40, "note_on_time": 5.132, "note_off_time": 5.361}, {"pitch": 74, "velocity": 50, "note_on_time": 5.636, "note_off_time": 5.888}, {"pitch": 76, "velocity": 45, "note_on_time": 6.075, "note_off_time": 6.32}, {"pitch": 77, "velocity": 48, "note_on_time": 6.595, "note_off_time": 6.869}, {"pitch": 79, "velocity": 45, "note_on_time": 7.172, "note_off_time": 7.459}, {"pitch": 72, "velocity": 35, "note_on_time": 8.506, "note_off_time": 8.756}, {"pitch": 74, "velocity": 47, "note_on_time": 9.065, "note_off_time": 9.298}, {"pitch": 76, "velocity": 45, "note_on_time": 9.535, "note_off_time": 9.724}, {"pitch": 77, "velocity": 49, "note_on_time": 10.071, "note_off_time": 10.288}, {"pitch": 79, "velocity": 40, "note_on_time": 10.573, "note_off_time": 10.826}, {"pitch": 72, "velocity": 48, "note_on_time": 11.971, "note_off_time": 12.178}, {"pitch": 74, "velocity": 47, "note_on_time": 12.505, "note_off_time": 12.749}, {"pitch": 76, "velocity": 45, "note_on_time": 12.982, "note_off_time": 13.199}, {"pitch": 77, "velocity": 51, "note_on_time": 13.46, "note_off_time": 13.615}, {"pitch": 79, "velocity": 39, "note_on_time": 13.891, "note_off_time": 14.162}, {"pitch": 72, "velocity": 46, "note_on_time": 15.084, "note_off_time": 15.342}, {"pitch": 74, "velocity": 48, "note_on_time": 15.549, "note_off_time": 15.7}, {"pitch": 76, "velocity": 54, "note_on_time": 15.984, "note_off_time": 16.156}, {"pitch": 77, "velocity": 41, "note_on_time": 16.464, "note_off_time": 16.63}, {"pitch": 79, "velocity": 54, "note_on_time": 17.018, "note_off_time": 17.324}, {"pitch": 79, "velocity": 38, "note_on_time": 19.913, "note_off_time": 20.165}, {"pitch": 77, "velocity": 45, "note_on_time": 20.395, "note_off_time": 20.551}, {"pitch": 76, "velocity": 60, "note_on_time": 20.835, "note_off_time": 21.026}, {"pitch": 74, "velocity": 56, "note_on_time": 21.22, "note_off_time": 21.418}, {"pitch": 72, "velocity": 61, "note_on_time": 21.593, "note_off_time": 21.764}, {"pitch": 79, "velocity": 45, "note_on_time": 22.777, "note_off_time": 23.077}, {"pitch": 77, "velocity": 54, "note_on_time": 23.254, "note_off_time": 23.406}, {"pitch": 76, "velocity": 56, "note_on_time": 23.7, "note_off_time": 23.898}, {"pitch": 74, "velocity": 60, "note_on_time": 24.055, "note_off_time": 24.246}, {"pitch": 72, "velocity": 56, "note_on_time": 24.437, "note_off_time": 24.698}, {"pitch": 79, "velocity": 58, "note_on_time": 25.376, "note_off_time": 25.674}, {"pitch": 77, "velocity": 39, "note_on_time": 25.825, "note_off_time": 25.941}, {"pitch": 76, "velocity": 59, "note_on_time": 26.236, "note_off_time": 26.468}, {"pitch": 74, "velocity": 55, "note_on_time": 26.574, "note_off_time": 26.81}, {"pitch": 72, "velocity": 61, "note_on_time": 26.955, "note_off_time": 27.3}, {"pitch": 79, "velocity": 49, "note_on_time": 28.011, "note_off_time": 28.275}, {"pitch": 77, "velocity": 55, "note_on_time": 28.398, "note_off_time": 28.6}, {"pitch": 76, "velocity": 56, "note_on_time": 28.818, "note_off_time": 29.217}, {"pitch": 74, "velocity": 63, "note_on_time": 29.216, "note_off_time": 29.434}, {"pitch": 72, "velocity": 64, "note_on_time": 29.677, "note_off_time": 29.973}, {"pitch": 74, "velocity": 30, "note_on_time": 36.959, "note_off_time": 37.188}, {"pitch": 76, "velocity": 57, "note_on_time": 37.485, "note_off_time": 37.767}, {"pitch": 77, "velocity": 62, "note_on_time": 38.055, "note_off_time": 38.259}, {"pitch": 79, "velocity": 59, "note_on_time": 38.59, "note_off_time": 39.166}, {"pitch": 72, "velocity": 56, "note_on_time": 39.238, "note_off_time": 39.391}, {"pitch": 74, "velocity": 58, "note_on_time": 40.277, "note_off_time": 40.472}, {"pitch": 76, "velocity": 62, "note_on_time": 40.697, "note_off_time": 40.908}, {"pitch": 77, "velocity": 65, "note_on_time": 41.12, "note_off_time": 41.326}, {"pitch": 79, "velocity": 54, "note_on_time": 41.516, "note_off_time": 41.694}, {"pitch": 72, "velocity": 59, "note_on_time": 42.182, "note_off_time": 42.364}, {"pitch": 74, "velocity": 58, "note_on_time": 43.304, "note_off_time": 43.488}, {"pitch": 76, "velocity": 65, "note_on_time": 43.739, "note_off_time": 44.025}, {"pitch": 77, "velocity": 63, "note_on_time": 44.17, "note_off_time": 44.371}, {"pitch": 79, "velocity": 55, "note_on_time": 44.58, "note_off_time": 44.799}, {"pitch": 72, "velocity": 59, "note_on_time": 45.193, "note_off_time": 45.39}, {"pitch": 74, "velocity": 61, "note_on_time": 46.509, "note_off_time": 46.74}, {"pitch": 76, "velocity": 56, "note_on_time": 46.878, "note_off_time": 47.062}, {"pitch": 77, "velocity": 60, "note_on_time": 47.353, "note_off_time": 47.822}, {"pitch": 79, "velocity": 52, "note_on_time": 47.743, "note_off_time": 48.057}, {"pitch": 72, "velocity": 62, "note_on_time": 48.396, "note_off_time": 48.654}, {"pitch": 77, "velocity": 48, "note_on_time": 57.597, "note_off_time": 57.829}, {"pitch": 76, "velocity": 56, "note_on_time": 58.108, "note_off_time": 58.362}, {"pitch": 74, "velocity": 50, "note_on_time": 58.668, "note_off_time": 58.993}, {"pitch": 72, "velocity": 43, "note_on_time": 59.135, "note_off_time": 59.403}, {"pitch": 79, "velocity": 52, "note_on_time": 59.848, "note_off_time": 60.071}, {"pitch": 77, "velocity": 59, "note_on_time": 61.076, "note_off_time": 61.273}, {"pitch": 76, "velocity": 58, "note_on_time": 61.524, "note_off_time": 61.743}, {"pitch": 74, "velocity": 64, "note_on_time": 61.875, "note_off_time": 62.178}, {"pitch": 72, "velocity": 58, "note_on_time": 62.22, "note_off_time": 62.497}, {"pitch": 77, "velocity": 34, "note_on_time": 62.753, "note_off_time": 62.896}, {"pitch": 79, "velocity": 36, "note_on_time": 62.741, "note_off_time": 62.919}, {"pitch": 77, "velocity": 64, "note_on_time": 64.879, "note_off_time": 65.031}, {"pitch": 76, "velocity": 60, "note_on_time": 65.264, "note_off_time": 65.501}, {"pitch": 74, "velocity": 60, "note_on_time": 65.686, "note_off_time": 65.928}, {"pitch": 72, "velocity": 54, "note_on_time": 66.147, "note_off_time": 66.304}, {"pitch": 79, "velocity": 62, "note_on_time": 66.729, "note_off_time": 66.998}, {"pitch": 77, "velocity": 60, "note_on_time": 67.547, "note_off_time": 67.727}, {"pitch": 76, "velocity": 56, "note_on_time": 67.932, "note_off_time": 68.227}, {"pitch": 74, "velocity": 53, "note_on_time": 68.267, "note_off_time": 68.563}, {"pitch": 72, "velocity": 61, "note_on_time": 68.63, "note_off_time": 69.267}, {"pitch": 79, "velocity": 54, "note_on_time": 69.393, "note_off_time": 69.562}, {"pitch": 77, "velocity": 58, "note_on_time": 70.672, "note_off_time": 70.848}, {"pitch": 76, "velocity": 50, "note_on_time": 71.081, "note_off_time": 71.366}, {"pitch": 74, "velocity": 52, "note_on_time": 71.496, "note_off_time": 71.679}, {"pitch": 72, "velocity": 58, "note_on_time": 71.919, "note_off_time": 72.243}, {"pitch": 79, "velocity": 60, "note_on_time": 72.528, "note_off_time": 72.795}, {"pitch": 76, "velocity": 59, "note_on_time": 83.486, "note_off_time": 83.669}, {"pitch": 77, "velocity": 57, "note_on_time": 83.951, "note_off_time": 84.135}, {"pitch": 79, "velocity": 61, "note_on_time": 84.5, "note_off_time": 84.719}, {"pitch": 74, "velocity": 59, "note_on_time": 85.262, "note_off_time": 85.517}, {"pitch": 72, "velocity": 51, "note_on_time": 85.683, "note_off_time": 85.879}, {"pitch": 76, "velocity": 63, "note_on_time": 86.739, "note_off_time": 86.943}, {"pitch": 77, "velocity": 57, "note_on_time": 87.23, "note_off_time": 87.405}, {"pitch": 79, "velocity": 62, "note_on_time": 87.71, "note_off_time": 87.911}, {"pitch": 74, "velocity": 49, "note_on_time": 88.265, "note_off_time": 88.494}, {"pitch": 72, "velocity": 53, "note_on_time": 88.712, "note_off_time": 88.876}, {"pitch": 76, "velocity": 57, "note_on_time": 89.786, "note_off_time": 89.969}, {"pitch": 77, "velocity": 60, "note_on_time": 90.24, "note_off_time": 90.379}, {"pitch": 79, "velocity": 59, "note_on_time": 90.662, "note_off_time": 90.883}, {"pitch": 74, "velocity": 59, "note_on_time": 91.115, "note_off_time": 91.323}, {"pitch": 72, "velocity": 61, "note_on_time": 91.727, "note_off_time": 91.923}, {"pitch": 76, "velocity": 63, "note_on_time": 92.563, "note_off_time": 92.733}, {"pitch": 77, "velocity": 56, "note_on_time": 93.002, "note_off_time": 93.194}, {"pitch": 79, "velocity": 59, "note_on_time": 93.433, "note_off_time": 93.633}, {"pitch": 74, "velocity": 59, "note_on_time": 93.868, "note_off_time": 94.093}, {"pitch": 72, "velocity": 64, "note_on_time": 94.337, "note_off_time": 94.587}, {"pitch": 76, "velocity": 59, "note_on_time": 97.881, "note_off_time": 98.075}, {"pitch": 74, "velocity": 64, "note_on_time": 98.277, "note_off_time": 98.485}, {"pitch": 72, "velocity": 49, "note_on_time": 98.647, "note_off_time": 98.8}, {"pitch": 77, "velocity": 43, "note_on_time": 99.05, "note_off_time": 99.226}, {"pitch": 79, "velocity": 56, "note_on_time": 99.527, "note_off_time": 99.757}, {"pitch": 76, "velocity": 63, "note_on_time": 100.47, "note_off_time": 100.661}, {"pitch": 74, "velocity": 58, "note_on_time": 100.811, "note_off_time": 100.964}, {"pitch": 72, "velocity": 59, "note_on_time": 101.171, "note_off_time": 101.367}, {"pitch": 77, "velocity": 34, "note_on_time": 101.639, "note_off_time": 101.801}, {"pitch": 79, "velocity": 55, "note_on_time": 102.073, "note_off_time": 102.336}, {"pitch": 76, "velocity": 65, "note_on_time": 103.312, "note_off_time": 103.582}, {"pitch": 74, "velocity": 57, "note_on_time": 103.695, "note_off_time": 103.846}, {"pitch": 72, "velocity": 48, "note_on_time": 104.108, "note_off_time": 104.309}, {"pitch": 77, "velocity": 53, "note_on_time": 104.876, "note_off_time": 105.033}, {"pitch": 79, "velocity": 60, "note_on_time": 105.278, "note_off_time": 105.447}, {"pitch": 76, "velocity": 57, "note_on_time": 106.033, "note_off_time": 106.231}, {"pitch": 74, "velocity": 64, "note_on_time": 106.39, "note_off_time": 106.568}, {"pitch": 72, "velocity": 57, "note_on_time": 106.762, "note_off_time": 106.999}, {"pitch": 77, "velocity": 41, "note_on_time": 107.166, "note_off_time": 107.337}, {"pitch": 79, "velocity": 55, "note_on_time": 107.6, "note_off_time": 107.807}, {"pitch": 76, "velocity": 55, "note_on_time": 108.655, "note_off_time": 108.858}, {"pitch": 74, "velocity": 55, "note_on_time": 109.037, "note_off_time": 109.218}, {"pitch": 72, "velocity": 56, "note_on_time": 109.421, "note_off_time": 109.593}, {"pitch": 77, "velocity": 54, "note_on_time": 109.857, "note_off_time": 110.02}, {"pitch": 79, "velocity": 57, "note_on_time": 110.306, "note_off_time": 110.547}, {"pitch": 77, "velocity": 46, "note_on_time": 113.412, "note_off_time": 113.584}, {"pitch": 79, "velocity": 58, "note_on_time": 113.815, "note_off_time": 114.014}, {"pitch": 76, "velocity": 59, "note_on_time": 114.297, "note_off_time": 114.488}, {"pitch": 74, "velocity": 56, "note_on_time": 114.744, "note_off_time": 114.96}, {"pitch": 72, "velocity": 55, "note_on_time": 115.191, "note_off_time": 115.348}, {"pitch": 77, "velocity": 52, "note_on_time": 117.071, "note_off_time": 117.244}, {"pitch": 79, "velocity": 60, "note_on_time": 117.607, "note_off_time": 117.835}, {"pitch": 76, "velocity": 64, "note_on_time": 118.13, "note_off_time": 118.451}, {"pitch": 74, "velocity": 60, "note_on_time": 118.468, "note_off_time": 118.625}, {"pitch": 72, "velocity": 65, "note_on_time": 118.837, "note_off_time": 119.01}, {"pitch": 77, "velocity": 54, "note_on_time": 120.414, "note_off_time": 120.588}, {"pitch": 79, "velocity": 57, "note_on_time": 120.845, "note_off_time": 121.048}, {"pitch": 76, "velocity": 48, "note_on_time": 121.353, "note_off_time": 121.627}, {"pitch": 74, "velocity": 56, "note_on_time": 121.696, "note_off_time": 121.912}, {"pitch": 72, "velocity": 61, "note_on_time": 122.066, "note_off_time": 122.246}, {"pitch": 77, "velocity": 64, "note_on_time": 123.581, "note_off_time": 123.765}, {"pitch": 79, "velocity": 47, "note_on_time": 124.109, "note_off_time": 124.336}, {"pitch": 76, "velocity": 67, "note_on_time": 124.78, "note_off_time": 125.049}, {"pitch": 74, "velocity": 61, "note_on_time": 125.148, "note_off_time": 125.301}, {"pitch": 72, "velocity": 64, "note_on_time": 125.554, "note_off_time": 125.798}, {"pitch": 77, "velocity": 68, "note_on_time": 127.269, "note_off_time": 127.459}, {"pitch": 79, "velocity": 58, "note_on_time": 127.702, "note_off_time": 127.929}, {"pitch": 76, "velocity": 62, "note_on_time": 128.256, "note_off_time": 128.557}, {"pitch": 74, "velocity": 60, "note_on_time": 128.629, "note_off_time": 128.774}, {"pitch": 72, "velocity": 49, "note_on_time": 129.214, "note_off_time": 129.492}, {"pitch": 74, "velocity": 54, "note_on_time": 132.513, "note_off_time": 132.722}, {"pitch": 72, "velocity": 54, "note_on_time": 132.983, "note_off_time": 133.186}, {"pitch": 76, "velocity": 64, "note_on_time": 133.55, "note_off_time": 133.743}, {"pitch": 77, "velocity": 53, "note_on_time": 133.952, "note_off_time": 134.112}, {"pitch": 79, "velocity": 56, "note_on_time": 134.354, "note_off_time": 134.557}, {"pitch": 74, "velocity": 55, "note_on_time": 135.457, "note_off_time": 135.65}, {"pitch": 72, "velocity": 56, "note_on_time": 135.902, "note_off_time": 136.084}, {"pitch": 76, "velocity": 63, "note_on_time": 136.329, "note_off_time": 136.5}, {"pitch": 77, "velocity": 62, "note_on_time": 136.762, "note_off_time": 136.935}, {"pitch": 79, "velocity": 51, "note_on_time": 137.085, "note_off_time": 137.235}, {"pitch": 74, "velocity": 62, "note_on_time": 138.401, "note_off_time": 138.59}, {"pitch": 72, "velocity": 59, "note_on_time": 138.791, "note_off_time": 138.954}, {"pitch": 76, "velocity": 64, "note_on_time": 139.179, "note_off_time": 139.417}, {"pitch": 77, "velocity": 60, "note_on_time": 139.584, "note_off_time": 139.678}, {"pitch": 79, "velocity": 66, "note_on_time": 139.975, "note_off_time": 140.173}, {"pitch": 74, "velocity": 61, "note_on_time": 141.201, "note_off_time": 141.401}, {"pitch": 72, "velocity": 55, "note_on_time": 141.735, "note_off_time": 141.886}, {"pitch": 76, "velocity": 65, "note_on_time": 142.225, "note_off_time": 142.398}, {"pitch": 77, "velocity": 55, "note_on_time": 142.685, "note_off_time": 142.872}, {"pitch": 79, "velocity": 66, "note_on_time": 143.099, "note_off_time": 143.362}, {"pitch": 72, "velocity": 49, "note_on_time": 150.765, "note_off_time": 150.97}, {"pitch": 74, "velocity": 54, "note_on_time": 151.221, "note_off_time": 151.392}, {"pitch": 76, "velocity": 58, "note_on_time": 151.594, "note_off_time": 151.746}, {"pitch": 77, "velocity": 60, "note_on_time": 152.001, "note_off_time": 152.148}, {"pitch": 79, "velocity": 66, "note_on_time": 152.417, "note_off_time": 152.622}, {"pitch": 72, "velocity": 60, "note_on_time": 153.247, "note_off_time": 153.427}, {"pitch": 74, "velocity": 56, "note_on_time": 153.583, "note_off_time": 153.728}, {"pitch": 76, "velocity": 62, "note_on_time": 153.96, "note_off_time": 154.21}, {"pitch": 77, "velocity": 58, "note_on_time": 154.31, "note_off_time": 154.477}, {"pitch": 79, "velocity": 65, "note_on_time": 154.702, "note_off_time": 154.866}, {"pitch": 72, "velocity": 59, "note_on_time": 155.33, "note_off_time": 155.534}, {"pitch": 74, "velocity": 61, "note_on_time": 155.691, "note_off_time": 155.874}, {"pitch": 76, "velocity": 57, "note_on_time": 156.044, "note_off_time": 156.262}, {"pitch": 77, "velocity": 63, "note_on_time": 156.404, "note_off_time": 156.604}, {"pitch": 79, "velocity": 53, "note_on_time": 156.8, "note_off_time": 157.045}, {"pitch": 72, "velocity": 61, "note_on_time": 157.545, "note_off_time": 157.754}, {"pitch": 74, "velocity": 57, "note_on_time": 157.871, "note_off_time": 158.045}, {"pitch": 76, "velocity": 62, "note_on_time": 158.206, "note_off_time": 158.391}, {"pitch": 77, "velocity": 54, "note_on_time": 158.523, "note_off_time": 158.801}, {"pitch": 79, "velocity": 47, "note_on_time": 158.991, "note_off_time": 159.253}, {"pitch": 79, "velocity": 56, "note_on_time": 160.115, "note_off_time": 160.397}, {"pitch": 77, "velocity": 54, "note_on_time": 160.572, "note_off_time": 160.758}, {"pitch": 76, "velocity": 39, "note_on_time": 160.977, "note_off_time": 161.309}, {"pitch": 74, "velocity": 60, "note_on_time": 161.359, "note_off_time": 161.758}, {"pitch": 72, "velocity": 64, "note_on_time": 161.733, "note_off_time": 161.933}, {"pitch": 79, "velocity": 65, "note_on_time": 162.355, "note_off_time": 162.764}, {"pitch": 77, "velocity": 53, "note_on_time": 162.686, "note_off_time": 162.946}, {"pitch": 76, "velocity": 39, "note_on_time": 163.023, "note_off_time": 163.397}, {"pitch": 74, "velocity": 72, "note_on_time": 163.368, "note_off_time": 163.78}, {"pitch": 72, "velocity": 60, "note_on_time": 163.708, "note_off_time": 163.934}, {"pitch": 79, "velocity": 58, "note_on_time": 164.364, "note_off_time": 164.775}, {"pitch": 77, "velocity": 51, "note_on_time": 164.666, "note_off_time": 165.078}, {"pitch": 76, "velocity": 53, "note_on_time": 164.973, "note_off_time": 165.447}, {"pitch": 74, "velocity": 69, "note_on_time": 165.383, "note_off_time": 165.919}, {"pitch": 72, "velocity": 62, "note_on_time": 165.801, "note_off_time": 166.052}, {"pitch": 79, "velocity": 64, "note_on_time": 166.504, "note_off_time": 167.245}, {"pitch": 77, "velocity": 30, "note_on_time": 166.867, "note_off_time": 167.302}, {"pitch": 76, "velocity": 49, "note_on_time": 167.193, "note_off_time": 167.606}, {"pitch": 74, "velocity": 67, "note_on_time": 167.533, "note_off_time": 168.025}, {"pitch": 72, "velocity": 63, "note_on_time": 167.943, "note_off_time": 168.185}, {"pitch": 74, "velocity": 46, "note_on_time": 171.269, "note_off_time": 171.456}, {"pitch": 76, "velocity": 60, "note_on_time": 171.649, "note_off_time": 171.957}, {"pitch": 77, "velocity": 58, "note_on_time": 172.088, "note_off_time": 172.292}, {"pitch": 72, "velocity": 59, "note_on_time": 172.844, "note_off_time": 172.994}, {"pitch": 79, "velocity": 50, "note_on_time": 172.451, "note_off_time": 173.013}, {"pitch": 74, "velocity": 57, "note_on_time": 174.052, "note_off_time": 174.319}, {"pitch": 76, "velocity": 64, "note_on_time": 174.364, "note_off_time": 174.668}, {"pitch": 77, "velocity": 63, "note_on_time": 174.667, "note_off_time": 175.065}, {"pitch": 79, "velocity": 54, "note_on_time": 174.974, "note_off_time": 175.35}, {"pitch": 72, "velocity": 29, "note_on_time": 175.386, "note_off_time": 175.492}, {"pitch": 74, "velocity": 60, "note_on_time": 177.449, "note_off_time": 177.779}, {"pitch": 76, "velocity": 61, "note_on_time": 177.741, "note_off_time": 178.117}, {"pitch": 77, "velocity": 54, "note_on_time": 178.081, "note_off_time": 178.576}, {"pitch": 72, "velocity": 57, "note_on_time": 178.831, "note_off_time": 179.048}, {"pitch": 79, "velocity": 54, "note_on_time": 178.431, "note_off_time": 179.125}, {"pitch": 74, "velocity": 64, "note_on_time": 179.674, "note_off_time": 180.014}, {"pitch": 76, "velocity": 61, "note_on_time": 179.989, "note_off_time": 180.41}, {"pitch": 77, "velocity": 61, "note_on_time": 180.33, "note_off_time": 180.756}, {"pitch": 72, "velocity": 55, "note_on_time": 181.155, "note_off_time": 181.386}, {"pitch": 79, "velocity": 43, "note_on_time": 180.672, "note_off_time": 181.564}, {"pitch": 77, "velocity": 49, "note_on_time": 186.167, "note_off_time": 186.386}, {"pitch": 76, "velocity": 59, "note_on_time": 186.605, "note_off_time": 186.961}, {"pitch": 74, "velocity": 56, "note_on_time": 186.932, "note_off_time": 187.299}, {"pitch": 72, "velocity": 58, "note_on_time": 187.246, "note_off_time": 187.542}, {"pitch": 77, "velocity": 35, "note_on_time": 187.686, "note_off_time": 187.8}, {"pitch": 79, "velocity": 39, "note_on_time": 187.674, "note_off_time": 187.836}, {"pitch": 77, "velocity": 57, "note_on_time": 189.966, "note_off_time": 190.261}, {"pitch": 76, "velocity": 60, "note_on_time": 190.366, "note_off_time": 190.635}, {"pitch": 74, "velocity": 53, "note_on_time": 190.667, "note_off_time": 191.017}, {"pitch": 72, "velocity": 58, "note_on_time": 190.974, "note_off_time": 191.519}, {"pitch": 79, "velocity": 56, "note_on_time": 191.376, "note_off_time": 191.66}, {"pitch": 77, "velocity": 55, "note_on_time": 192.189, "note_off_time": 192.518}, {"pitch": 76, "velocity": 62, "note_on_time": 192.5, "note_off_time": 192.875}, {"pitch": 74, "velocity": 62, "note_on_time": 192.796, "note_off_time": 193.204}, {"pitch": 79, "velocity": 45, "note_on_time": 193.45, "note_off_time": 193.844}, {"pitch": 72, "velocity": 55, "note_on_time": 193.094, "note_off_time": 193.868}]</notes><guidance name="Guidance Mode">None</guidance><error name="Error value">99</error></trial><trial trial_no="3" timestamp="2023_06_08-13_35_16"><notes name="Played Notes">[{"pitch": 72, "velocity": 52, "note_on_time": 3.245, "note_off_time": 3.453}, {"pitch": 74, "velocity": 50, "note_on_time": 3.555, "note_off_time": 3.704}, {"pitch": 76, "velocity": 52, "note_on_time": 3.849, "note_off_time": 4.038}, {"pitch": 77, "velocity": 47, "note_on_time": 4.198, "note_off_time": 4.372}, {"pitch": 79, "velocity": 55, "note_on_time": 4.566, "note_off_time": 4.741}, {"pitch": 72, "velocity": 51, "note_on_time": 5.109, "note_off_time": 5.366}, {"pitch": 74, "velocity": 61, "note_on_time": 5.402, "note_off_time": 5.736}, {"pitch": 76, "velocity": 56, "note_on_time": 5.696, "note_off_time": 6.013}, {"pitch": 77, "velocity": 59, "note_on_time": 5.978, "note_off_time": 6.445}, {"pitch": 79, "velocity": 49, "note_on_time": 6.327, "note_off_time": 6.506}, {"pitch": 72, "velocity": 49, "note_on_time": 6.882, "note_off_time": 7.143}, {"pitch": 74, "velocity": 62, "note_on_time": 7.161, "note_off_time": 7.438}, {"pitch": 76, "velocity": 55, "note_on_time": 7.434, "note_off_time": 7.76}, {"pitch": 77, "velocity": 59, "note_on_time": 7.715, "note_off_time": 8.094}, {"pitch": 79, "velocity": 52, "note_on_time": 8.021, "note_off_time": 8.212}, {"pitch": 72, "velocity": 56, "note_on_time": 8.551, "note_off_time": 8.904}, {"pitch": 74, "velocity": 59, "note_on_time": 8.835, "note_off_time": 9.111}, {"pitch": 76, "velocity": 62, "note_on_time": 9.082, "note_off_time": 9.445}, {"pitch": 77, "velocity": 51, "note_on_time": 9.389, "note_off_time": 9.614}, {"pitch": 79, "velocity": 49, "note_on_time": 9.702, "note_off_time": 9.877}, {"pitch": 79, "velocity": 62, "note_on_time": 10.37, "note_off_time": 10.759}, {"pitch": 77, "velocity": 54, "note_on_time": 10.683, "note_off_time": 11.049}, {"pitch": 76, "velocity": 59, "note_on_time": 10.924, "note_off_time": 11.351}, {"pitch": 74, "velocity": 58, "note_on_time": 11.226, "note_off_time": 11.594}, {"pitch": 72, "velocity": 65, "note_on_time": 11.541, "note_off_time": 11.69}, {"pitch": 79, "velocity": 58, "note_on_time": 12.11, "note_off_time": 12.785}, {"pitch": 77, "velocity": 62, "note_on_time": 12.435, "note_off_time": 13.056}, {"pitch": 76, "velocity": 53, "note_on_time": 12.708, "note_off_time": 13.124}, {"pitch": 74, "velocity": 47, "note_on_time": 13.044, "note_off_time": 13.478}, {"pitch": 72, "velocity": 62, "note_on_time": 13.402, "note_off_time": 13.569}, {"pitch": 77, "velocity": 56, "note_on_time": 14.257, "note_off_time": 14.623}, {"pitch": 79, "velocity": 62, "note_on_time": 13.938, "note_off_time": 14.665}, {"pitch": 76, "velocity": 51, "note_on_time": 14.503, "note_off_time": 14.955}, {"pitch": 74, "velocity": 60, "note_on_time": 14.843, "note_off_time": 15.272}, {"pitch": 72, "velocity": 68, "note_on_time": 15.199, "note_off_time": 15.34}, {"pitch": 79, "velocity": 57, "note_on_time": 15.792, "note_off_time": 16.516}, {"pitch": 77, "velocity": 65, "note_on_time": 16.11, "note_off_time": 16.518}, {"pitch": 76, "velocity": 47, "note_on_time": 16.401, "note_off_time": 16.818}, {"pitch": 74, "velocity": 64, "note_on_time": 16.723, "note_off_time": 17.182}, {"pitch": 72, "velocity": 62, "note_on_time": 17.087, "note_off_time": 17.322}, {"pitch": 74, "velocity": 50, "note_on_time": 21.456, "note_off_time": 21.793}, {"pitch": 76, "velocity": 60, "note_on_time": 21.79, "note_off_time": 22.499}, {"pitch": 77, "velocity": 50, "note_on_time": 22.396, "note_off_time": 22.817}, {"pitch": 72, "velocity": 64, "note_on_time": 23.149, "note_off_time": 23.294}, {"pitch": 79, "velocity": 60, "note_on_time": 22.73, "note_off_time": 23.498}, {"pitch": 74, "velocity": 55, "note_on_time": 24.013, "note_off_time": 24.308}, {"pitch": 76, "velocity": 63, "note_on_time": 24.241, "note_off_time": 24.913}, {"pitch": 77, "velocity": 53, "note_on_time": 24.587, "note_off_time": 25.242}, {"pitch": 72, "velocity": 39, "note_on_time": 25.279, "note_off_time": 25.416}, {"pitch": 79, "velocity": 48, "note_on_time": 24.873, "note_off_time": 25.557}, {"pitch": 74, "velocity": 64, "note_on_time": 26.07, "note_off_time": 26.394}, {"pitch": 76, "velocity": 63, "note_on_time": 26.343, "note_off_time": 26.756}, {"pitch": 77, "velocity": 63, "note_on_time": 26.663, "note_off_time": 27.133}, {"pitch": 79, "velocity": 44, "note_on_time": 26.965, "note_off_time": 27.371}, {"pitch": 72, "velocity": 67, "note_on_time": 27.329, "note_off_time": 27.465}, {"pitch": 74, "velocity": 55, "note_on_time": 28.05, "note_off_time": 28.373}, {"pitch": 76, "velocity": 71, "note_on_time": 28.304, "note_off_time": 28.695}, {"pitch": 77, "velocity": 62, "note_on_time": 28.6, "note_off_time": 29.054}, {"pitch": 79, "velocity": 49, "note_on_time": 28.924, "note_off_time": 29.348}, {"pitch": 72, "velocity": 66, "note_on_time": 29.294, "note_off_time": 29.412}, {"pitch": 77, "velocity": 51, "note_on_time": 33.537, "note_off_time": 33.803}, {"pitch": 76, "velocity": 67, "note_on_time": 33.824, "note_off_time": 34.142}, {"pitch": 74, "velocity": 62, "note_on_time": 34.106, "note_off_time": 34.487}, {"pitch": 72, "velocity": 58, "note_on_time": 34.409, "note_off_time": 34.777}, {"pitch": 79, "velocity": 69, "note_on_time": 34.744, "note_off_time": 34.974}, {"pitch": 77, "velocity": 68, "note_on_time": 35.407, "note_off_time": 35.657}, {"pitch": 76, "velocity": 60, "note_on_time": 35.638, "note_off_time": 35.975}, {"pitch": 74, "velocity": 67, "note_on_time": 35.904, "note_off_time": 36.321}, {"pitch": 72, "velocity": 63, "note_on_time": 36.174, "note_off_time": 36.573}, {"pitch": 79, "velocity": 59, "note_on_time": 36.526, "note_off_time": 36.721}, {"pitch": 77, "velocity": 64, "note_on_time": 37.068, "note_off_time": 37.359}, {"pitch": 76, "velocity": 70, "note_on_time": 37.328, "note_off_time": 37.677}, {"pitch": 74, "velocity": 68, "note_on_time": 37.607, "note_off_time": 38.003}, {"pitch": 72, "velocity": 60, "note_on_time": 37.923, "note_off_time": 38.239}, {"pitch": 79, "velocity": 56, "note_on_time": 38.258, "note_off_time": 38.435}, {"pitch": 77, "velocity": 69, "note_on_time": 38.949, "note_off_time": 39.215}, {"pitch": 76, "velocity": 53, "note_on_time": 39.177, "note_off_time": 39.507}, {"pitch": 74, "velocity": 75, "note_on_time": 39.46, "note_off_time": 39.885}, {"pitch": 72, "velocity": 61, "note_on_time": 39.762, "note_off_time": 40.139}, {"pitch": 79, "velocity": 73, "note_on_time": 40.119, "note_off_time": 40.448}, {"pitch": 76, "velocity": 61, "note_on_time": 44.688, "note_off_time": 45.024}, {"pitch": 77, "velocity": 63, "note_on_time": 44.957, "note_off_time": 45.403}, {"pitch": 79, "velocity": 53, "note_on_time": 45.265, "note_off_time": 45.936}, {"pitch": 74, "velocity": 72, "note_on_time": 45.771, "note_off_time": 46.513}, {"pitch": 72, "velocity": 66, "note_on_time": 46.406, "note_off_time": 46.619}, {"pitch": 76, "velocity": 67, "note_on_time": 47.177, "note_off_time": 47.608}, {"pitch": 77, "velocity": 55, "note_on_time": 47.511, "note_off_time": 47.929}, {"pitch": 79, "velocity": 59, "note_on_time": 47.812, "note_off_time": 48.414}, {"pitch": 74, "velocity": 65, "note_on_time": 48.334, "note_off_time": 48.917}, {"pitch": 72, "velocity": 62, "note_on_time": 48.838, "note_off_time": 49.059}, {"pitch": 76, "velocity": 66, "note_on_time": 49.313, "note_off_time": 49.713}, {"pitch": 77, "velocity": 67, "note_on_time": 49.611, "note_off_time": 50.072}, {"pitch": 79, "velocity": 49, "note_on_time": 49.927, "note_off_time": 50.48}, {"pitch": 74, "velocity": 60, "note_on_time": 50.42, "note_off_time": 51.027}, {"pitch": 72, "velocity": 73, "note_on_time": 50.973, "note_off_time": 51.138}, {"pitch": 76, "velocity": 69, "note_on_time": 51.531, "note_off_time": 51.932}, {"pitch": 77, "velocity": 62, "note_on_time": 51.813, "note_off_time": 52.27}, {"pitch": 79, "velocity": 46, "note_on_time": 52.145, "note_off_time": 52.779}, {"pitch": 74, "velocity": 63, "note_on_time": 52.687, "note_off_time": 53.288}, {"pitch": 72, "velocity": 66, "note_on_time": 53.201, "note_off_time": 53.38}, {"pitch": 76, "velocity": 65, "note_on_time": 53.723, "note_off_time": 54.12}, {"pitch": 77, "velocity": 63, "note_on_time": 53.988, "note_off_time": 54.452}, {"pitch": 79, "velocity": 51, "note_on_time": 54.279, "note_off_time": 54.791}, {"pitch": 74, "velocity": 66, "note_on_time": 54.754, "note_off_time": 55.342}, {"pitch": 72, "velocity": 64, "note_on_time": 55.227, "note_off_time": 55.413}, {"pitch": 76, "velocity": 62, "note_on_time": 57.858, "note_off_time": 58.214}, {"pitch": 74, "velocity": 67, "note_on_time": 58.14, "note_off_time": 58.633}, {"pitch": 72, "velocity": 66, "note_on_time": 58.463, "note_off_time": 58.809}, {"pitch": 77, "velocity": 68, "note_on_time": 58.921, "note_off_time": 59.612}, {"pitch": 79, "velocity": 27, "note_on_time": 59.461, "note_off_time": 59.732}, {"pitch": 76, "velocity": 72, "note_on_time": 60.095, "note_off_time": 60.516}, {"pitch": 74, "velocity": 67, "note_on_time": 60.398, "note_off_time": 60.957}, {"pitch": 72, "velocity": 54, "note_on_time": 60.771, "note_off_time": 61.19}, {"pitch": 77, "velocity": 72, "note_on_time": 61.202, "note_off_time": 61.834}, {"pitch": 79, "velocity": 49, "note_on_time": 61.691, "note_off_time": 62.056}, {"pitch": 76, "velocity": 65, "note_on_time": 62.305, "note_off_time": 62.723}, {"pitch": 74, "velocity": 65, "note_on_time": 62.635, "note_off_time": 63.105}, {"pitch": 72, "velocity": 72, "note_on_time": 62.985, "note_off_time": 63.353}, {"pitch": 77, "velocity": 46, "note_on_time": 63.424, "note_off_time": 64.075}, {"pitch": 79, "velocity": 56, "note_on_time": 63.952, "note_off_time": 64.321}, {"pitch": 76, "velocity": 58, "note_on_time": 65.88, "note_off_time": 66.203}, {"pitch": 74, "velocity": 66, "note_on_time": 66.142, "note_off_time": 66.556}, {"pitch": 72, "velocity": 74, "note_on_time": 66.447, "note_off_time": 66.969}, {"pitch": 77, "velocity": 65, "note_on_time": 66.923, "note_off_time": 67.48}, {"pitch": 79, "velocity": 50, "note_on_time": 67.333, "note_off_time": 67.725}, {"pitch": 77, "velocity": 60, "note_on_time": 70.91, "note_off_time": 71.267}, {"pitch": 79, "velocity": 60, "note_on_time": 71.197, "note_off_time": 71.888}, {"pitch": 76, "velocity": 60, "note_on_time": 71.777, "note_off_time": 72.063}, {"pitch": 74, "velocity": 72, "note_on_time": 72.053, "note_off_time": 72.508}, {"pitch": 72, "velocity": 68, "note_on_time": 72.426, "note_off_time": 72.601}, {"pitch": 77, "velocity": 65, "note_on_time": 73.593, "note_off_time": 73.994}, {"pitch": 79, "velocity": 65, "note_on_time": 73.875, "note_off_time": 74.46}, {"pitch": 76, "velocity": 58, "note_on_time": 74.462, "note_off_time": 74.761}, {"pitch": 74, "velocity": 72, "note_on_time": 74.72, "note_off_time": 75.106}, {"pitch": 72, "velocity": 74, "note_on_time": 75.047, "note_off_time": 75.195}, {"pitch": 77, "velocity": 69, "note_on_time": 75.929, "note_off_time": 76.38}, {"pitch": 79, "velocity": 56, "note_on_time": 76.237, "note_off_time": 76.685}, {"pitch": 76, "velocity": 57, "note_on_time": 76.828, "note_off_time": 77.317}, {"pitch": 74, "velocity": 55, "note_on_time": 77.189, "note_off_time": 77.664}, {"pitch": 74, "velocity": 1, "note_on_time": 77.987, "note_off_time": 78.145}, {"pitch": 72, "velocity": 66, "note_on_time": 78.07, "note_off_time": 78.292}, {"pitch": 77, "velocity": 65, "note_on_time": 79.695, "note_off_time": 80.08}, {"pitch": 79, "velocity": 64, "note_on_time": 79.98, "note_off_time": 80.62}, {"pitch": 76, "velocity": 56, "note_on_time": 80.549, "note_off_time": 80.89}, {"pitch": 74, "velocity": 67, "note_on_time": 80.845, "note_off_time": 81.27}, {"pitch": 72, "velocity": 75, "note_on_time": 81.157, "note_off_time": 81.398}, {"pitch": 74, "velocity": 62, "note_on_time": 83.702, "note_off_time": 84.103}, {"pitch": 72, "velocity": 63, "note_on_time": 83.995, "note_off_time": 84.214}, {"pitch": 76, "velocity": 62, "note_on_time": 84.525, "note_off_time": 84.972}, {"pitch": 77, "velocity": 61, "note_on_time": 84.845, "note_off_time": 85.256}, {"pitch": 79, "velocity": 65, "note_on_time": 85.168, "note_off_time": 85.453}, {"pitch": 74, "velocity": 68, "note_on_time": 86.007, "note_off_time": 86.4}, {"pitch": 72, "velocity": 68, "note_on_time": 86.284, "note_off_time": 86.463}, {"pitch": 76, "velocity": 64, "note_on_time": 86.745, "note_off_time": 87.241}, {"pitch": 77, "velocity": 51, "note_on_time": 87.097, "note_off_time": 87.709}, {"pitch": 79, "velocity": 1, "note_on_time": 87.552, "note_off_time": 87.871}, {"pitch": 74, "velocity": 52, "note_on_time": 89.257, "note_off_time": 89.61}, {"pitch": 72, "velocity": 73, "note_on_time": 89.545, "note_off_time": 89.749}, {"pitch": 76, "velocity": 62, "note_on_time": 90.145, "note_off_time": 90.496}, {"pitch": 77, "velocity": 66, "note_on_time": 90.426, "note_off_time": 90.891}, {"pitch": 79, "velocity": 66, "note_on_time": 90.781, "note_off_time": 91.113}, {"pitch": 74, "velocity": 61, "note_on_time": 91.841, "note_off_time": 92.2}, {"pitch": 72, "velocity": 69, "note_on_time": 92.128, "note_off_time": 92.359}, {"pitch": 76, "velocity": 60, "note_on_time": 92.611, "note_off_time": 92.979}, {"pitch": 77, "velocity": 68, "note_on_time": 92.896, "note_off_time": 93.373}, {"pitch": 79, "velocity": 64, "note_on_time": 93.243, "note_off_time": 93.613}, {"pitch": 72, "velocity": 59, "note_on_time": 96.167, "note_off_time": 96.388}, {"pitch": 74, "velocity": 70, "note_on_time": 96.401, "note_off_time": 96.719}, {"pitch": 76, "velocity": 66, "note_on_time": 96.665, "note_off_time": 97.093}, {"pitch": 77, "velocity": 50, "note_on_time": 96.957, "note_off_time": 97.374}, {"pitch": 79, "velocity": 60, "note_on_time": 97.256, "note_off_time": 97.476}, {"pitch": 72, "velocity": 62, "note_on_time": 97.85, "note_off_time": 98.121}, {"pitch": 74, "velocity": 65, "note_on_time": 98.078, "note_off_time": 98.481}, {"pitch": 76, "velocity": 59, "note_on_time": 98.356, "note_off_time": 98.856}, {"pitch": 77, "velocity": 48, "note_on_time": 98.678, "note_off_time": 99.132}, {"pitch": 79, "velocity": 56, "note_on_time": 98.999, "note_off_time": 99.227}, {"pitch": 72, "velocity": 61, "note_on_time": 99.602, "note_off_time": 100.207}, {"pitch": 74, "velocity": 48, "note_on_time": 99.946, "note_off_time": 100.317}, {"pitch": 76, "velocity": 51, "note_on_time": 100.17, "note_off_time": 100.785}, {"pitch": 77, "velocity": 60, "note_on_time": 100.47, "note_off_time": 100.951}, {"pitch": 79, "velocity": 55, "note_on_time": 100.777, "note_off_time": 101.051}, {"pitch": 72, "velocity": 54, "note_on_time": 101.43, "note_off_time": 101.907}, {"pitch": 74, "velocity": 78, "note_on_time": 101.795, "note_off_time": 102.177}, {"pitch": 76, "velocity": 60, "note_on_time": 102.066, "note_off_time": 102.564}, {"pitch": 77, "velocity": 51, "note_on_time": 102.425, "note_off_time": 102.925}, {"pitch": 79, "velocity": 61, "note_on_time": 102.778, "note_off_time": 103.117}, {"pitch": 79, "velocity": 66, "note_on_time": 103.924, "note_off_time": 104.599}, {"pitch": 77, "velocity": 48, "note_on_time": 104.232, "note_off_time": 104.629}, {"pitch": 76, "velocity": 59, "note_on_time": 104.521, "note_off_time": 104.924}, {"pitch": 74, "velocity": 68, "note_on_time": 104.799, "note_off_time": 105.216}, {"pitch": 72, "velocity": 61, "note_on_time": 105.14, "note_off_time": 105.332}, {"pitch": 79, "velocity": 58, "note_on_time": 105.665, "note_off_time": 106.448}, {"pitch": 77, "velocity": 57, "note_on_time": 105.991, "note_off_time": 106.643}, {"pitch": 76, "velocity": 60, "note_on_time": 106.267, "note_off_time": 106.822}, {"pitch": 74, "velocity": 66, "note_on_time": 106.575, "note_off_time": 107.012}, {"pitch": 72, "velocity": 72, "note_on_time": 106.917, "note_off_time": 107.084}, {"pitch": 77, "velocity": 54, "note_on_time": 107.732, "note_off_time": 108.411}, {"pitch": 79, "velocity": 63, "note_on_time": 107.414, "note_off_time": 108.496}, {"pitch": 76, "velocity": 54, "note_on_time": 108.031, "note_off_time": 108.533}, {"pitch": 74, "velocity": 57, "note_on_time": 108.334, "note_off_time": 108.806}, {"pitch": 72, "velocity": 69, "note_on_time": 108.69, "note_off_time": 108.891}, {"pitch": 77, "velocity": 50, "note_on_time": 109.582, "note_off_time": 110.259}, {"pitch": 79, "velocity": 67, "note_on_time": 109.288, "note_off_time": 110.318}, {"pitch": 76, "velocity": 56, "note_on_time": 109.899, "note_off_time": 110.345}, {"pitch": 74, "velocity": 67, "note_on_time": 110.19, "note_off_time": 110.708}, {"pitch": 72, "velocity": 73, "note_on_time": 110.537, "note_off_time": 110.786}, {"pitch": 74, "velocity": 53, "note_on_time": 112.455, "note_off_time": 113.026}, {"pitch": 76, "velocity": 76, "note_on_time": 112.789, "note_off_time": 113.409}, {"pitch": 77, "velocity": 65, "note_on_time": 113.101, "note_off_time": 113.818}, {"pitch": 72, "velocity": 72, "note_on_time": 113.961, "note_off_time": 114.172}, {"pitch": 79, "velocity": 62, "note_on_time": 113.357, "note_off_time": 114.278}, {"pitch": 74, "velocity": 67, "note_on_time": 114.689, "note_off_time": 115.013}, {"pitch": 76, "velocity": 71, "note_on_time": 114.915, "note_off_time": 115.402}, {"pitch": 77, "velocity": 66, "note_on_time": 115.179, "note_off_time": 115.561}, {"pitch": 72, "velocity": 61, "note_on_time": 115.864, "note_off_time": 116.062}, {"pitch": 79, "velocity": 61, "note_on_time": 115.43, "note_off_time": 116.111}, {"pitch": 74, "velocity": 59, "note_on_time": 116.46, "note_off_time": 116.758}, {"pitch": 76, "velocity": 67, "note_on_time": 116.694, "note_off_time": 117.18}, {"pitch": 77, "velocity": 66, "note_on_time": 116.931, "note_off_time": 117.605}, {"pitch": 72, "velocity": 81, "note_on_time": 118.008, "note_off_time": 118.231}, {"pitch": 79, "velocity": 51, "note_on_time": 117.201, "note_off_time": 118.281}, {"pitch": 74, "velocity": 62, "note_on_time": 118.561, "note_off_time": 118.81}, {"pitch": 76, "velocity": 73, "note_on_time": 118.765, "note_off_time": 119.336}, {"pitch": 77, "velocity": 64, "note_on_time": 119.012, "note_off_time": 119.575}, {"pitch": 79, "velocity": 31, "note_on_time": 119.314, "note_off_time": 119.82}, {"pitch": 72, "velocity": 74, "note_on_time": 119.703, "note_off_time": 119.915}, {"pitch": 77, "velocity": 56, "note_on_time": 123.164, "note_off_time": 123.763}, {"pitch": 76, "velocity": 69, "note_on_time": 123.523, "note_off_time": 123.913}, {"pitch": 74, "velocity": 65, "note_on_time": 123.785, "note_off_time": 124.226}, {"pitch": 72, "velocity": 70, "note_on_time": 124.103, "note_off_time": 124.465}, {"pitch": 79, "velocity": 62, "note_on_time": 124.487, "note_off_time": 124.869}, {"pitch": 77, "velocity": 67, "note_on_time": 125.257, "note_off_time": 125.571}, {"pitch": 76, "velocity": 59, "note_on_time": 125.501, "note_off_time": 125.869}, {"pitch": 74, "velocity": 64, "note_on_time": 125.741, "note_off_time": 126.209}, {"pitch": 72, "velocity": 70, "note_on_time": 126.052, "note_off_time": 126.497}, {"pitch": 79, "velocity": 66, "note_on_time": 126.458, "note_off_time": 126.85}, {"pitch": 77, "velocity": 64, "note_on_time": 127.1, "note_off_time": 127.409}, {"pitch": 76, "velocity": 68, "note_on_time": 127.348, "note_off_time": 127.682}, {"pitch": 74, "velocity": 70, "note_on_time": 127.596, "note_off_time": 127.975}, {"pitch": 72, "velocity": 78, "note_on_time": 127.869, "note_off_time": 128.197}, {"pitch": 79, "velocity": 67, "note_on_time": 128.206, "note_off_time": 128.733}, {"pitch": 77, "velocity": 72, "note_on_time": 128.958, "note_off_time": 129.57}, {"pitch": 76, "velocity": 63, "note_on_time": 129.194, "note_off_time": 129.599}, {"pitch": 74, "velocity": 72, "note_on_time": 129.511, "note_off_time": 130.014}, {"pitch": 72, "velocity": 64, "note_on_time": 129.889, "note_off_time": 130.285}, {"pitch": 79, "velocity": 67, "note_on_time": 130.231, "note_off_time": 130.773}, {"pitch": 76, "velocity": 65, "note_on_time": 134.182, "note_off_time": 134.601}, {"pitch": 77, "velocity": 59, "note_on_time": 134.45, "note_off_time": 134.895}, {"pitch": 74, "velocity": 57, "note_on_time": 135.354, "note_off_time": 135.865}, {"pitch": 79, "velocity": 57, "note_on_time": 134.764, "note_off_time": 135.893}, {"pitch": 72, "velocity": 70, "note_on_time": 135.798, "note_off_time": 136.002}, {"pitch": 76, "velocity": 67, "note_on_time": 136.287, "note_off_time": 136.703}, {"pitch": 77, "velocity": 63, "note_on_time": 136.498, "note_off_time": 137.322}, {"pitch": 79, "velocity": 39, "note_on_time": 136.811, "note_off_time": 137.36}, {"pitch": 74, "velocity": 72, "note_on_time": 137.282, "note_off_time": 137.873}, {"pitch": 72, "velocity": 69, "note_on_time": 137.793, "note_off_time": 137.983}, {"pitch": 76, "velocity": 70, "note_on_time": 138.221, "note_off_time": 138.757}, {"pitch": 77, "velocity": 66, "note_on_time": 138.46, "note_off_time": 138.946}, {"pitch": 79, "velocity": 54, "note_on_time": 138.749, "note_off_time": 139.326}, {"pitch": 74, "velocity": 64, "note_on_time": 139.225, "note_off_time": 139.737}, {"pitch": 72, "velocity": 67, "note_on_time": 139.652, "note_off_time": 139.811}, {"pitch": 76, "velocity": 68, "note_on_time": 140.109, "note_off_time": 140.558}, {"pitch": 77, "velocity": 62, "note_on_time": 140.386, "note_off_time": 141.194}, {"pitch": 79, "velocity": 40, "note_on_time": 140.698, "note_off_time": 141.222}, {"pitch": 74, "velocity": 72, "note_on_time": 141.153, "note_off_time": 141.731}, {"pitch": 72, "velocity": 65, "note_on_time": 141.604, "note_off_time": 141.816}, {"pitch": 76, "velocity": 52, "note_on_time": 143.679, "note_off_time": 143.944}, {"pitch": 72, "velocity": 70, "note_on_time": 144.181, "note_off_time": 144.537}, {"pitch": 74, "velocity": 73, "note_on_time": 143.879, "note_off_time": 144.6}, {"pitch": 77, "velocity": 55, "note_on_time": 144.615, "note_off_time": 145.18}, {"pitch": 79, "velocity": 59, "note_on_time": 144.996, "note_off_time": 145.354}, {"pitch": 76, "velocity": 61, "note_on_time": 146.61, "note_off_time": 146.991}, {"pitch": 72, "velocity": 72, "note_on_time": 147.131, "note_off_time": 147.472}, {"pitch": 74, "velocity": 72, "note_on_time": 146.829, "note_off_time": 147.478}, {"pitch": 77, "velocity": 45, "note_on_time": 147.661, "note_off_time": 148.451}, {"pitch": 79, "velocity": 64, "note_on_time": 148.252, "note_off_time": 148.629}, {"pitch": 76, "velocity": 67, "note_on_time": 150.228, "note_off_time": 150.555}, {"pitch": 74, "velocity": 69, "note_on_time": 150.475, "note_off_time": 150.918}, {"pitch": 72, "velocity": 71, "note_on_time": 150.794, "note_off_time": 151.198}, {"pitch": 77, "velocity": 66, "note_on_time": 151.248, "note_off_time": 151.79}, {"pitch": 79, "velocity": 56, "note_on_time": 151.609, "note_off_time": 151.944}, {"pitch": 76, "velocity": 58, "note_on_time": 152.472, "note_off_time": 152.872}, {"pitch": 74, "velocity": 71, "note_on_time": 152.742, "note_off_time": 153.201}, {"pitch": 72, "velocity": 58, "note_on_time": 153.093, "note_off_time": 153.395}, {"pitch": 77, "velocity": 46, "note_on_time": 153.641, "note_off_time": 154.258}, {"pitch": 79, "velocity": 60, "note_on_time": 154.106, "note_off_time": 154.467}, {"pitch": 76, "velocity": 63, "note_on_time": 155.746, "note_off_time": 156.097}, {"pitch": 74, "velocity": 70, "note_on_time": 156.015, "note_off_time": 156.465}, {"pitch": 72, "velocity": 68, "note_on_time": 156.334, "note_off_time": 156.685}, {"pitch": 77, "velocity": 67, "note_on_time": 156.728, "note_off_time": 157.338}, {"pitch": 79, "velocity": 51, "note_on_time": 157.123, "note_off_time": 157.666}, {"pitch": 77, "velocity": 68, "note_on_time": 159.683, "note_off_time": 160.171}, {"pitch": 79, "velocity": 70, "note_on_time": 160.018, "note_off_time": 160.532}, {"pitch": 76, "velocity": 61, "note_on_time": 160.629, "note_off_time": 160.938}, {"pitch": 74, "velocity": 72, "note_on_time": 160.854, "note_off_time": 161.232}, {"pitch": 72, "velocity": 74, "note_on_time": 161.164, "note_off_time": 161.313}, {"pitch": 77, "velocity": 66, "note_on_time": 161.706, "note_off_time": 163.065}, {"pitch": 76, "velocity": 49, "note_on_time": 162.972, "note_off_time": 163.339}, {"pitch": 79, "velocity": 38, "note_on_time": 162.258, "note_off_time": 163.688}, {"pitch": 76, "velocity": 54, "note_on_time": 163.703, "note_off_time": 164.067}, {"pitch": 74, "velocity": 65, "note_on_time": 164.005, "note_off_time": 164.339}, {"pitch": 72, "velocity": 70, "note_on_time": 164.285, "note_off_time": 164.445}, {"pitch": 77, "velocity": 64, "note_on_time": 164.834, "note_off_time": 165.667}, {"pitch": 79, "velocity": 58, "note_on_time": 165.176, "note_off_time": 165.738}, {"pitch": 76, "velocity": 1, "note_on_time": 165.735, "note_off_time": 166.194}, {"pitch": 74, "velocity": 64, "note_on_time": 166.047, "note_off_time": 166.531}, {"pitch": 72, "velocity": 59, "note_on_time": 166.475, "note_off_time": 166.699}, {"pitch": 77, "velocity": 68, "note_on_time": 167.888, "note_off_time": 168.435}, {"pitch": 79, "velocity": 59, "note_on_time": 168.277, "note_off_time": 168.8}, {"pitch": 76, "velocity": 55, "note_on_time": 168.893, "note_off_time": 169.239}, {"pitch": 74, "velocity": 65, "note_on_time": 169.171, "note_off_time": 169.573}, {"pitch": 72, "velocity": 64, "note_on_time": 169.531, "note_off_time": 169.685}, {"pitch": 77, "velocity": 65, "note_on_time": 170.069, "note_off_time": 170.696}, {"pitch": 79, "velocity": 56, "note_on_time": 170.515, "note_off_time": 170.959}, {"pitch": 76, "velocity": 58, "note_on_time": 171.274, "note_off_time": 171.721}, {"pitch": 74, "velocity": 68, "note_on_time": 171.659, "note_off_time": 172.087}, {"pitch": 72, "velocity": 69, "note_on_time": 172.005, "note_off_time": 172.182}, {"pitch": 74, "velocity": 64, "note_on_time": 175.074, "note_off_time": 175.564}, {"pitch": 72, "velocity": 58, "note_on_time": 175.467, "note_off_time": 175.722}, {"pitch": 76, "velocity": 64, "note_on_time": 175.963, "note_off_time": 176.334}, {"pitch": 77, "velocity": 67, "note_on_time": 176.226, "note_off_time": 176.624}, {"pitch": 79, "velocity": 61, "note_on_time": 176.523, "note_off_time": 176.8}, {"pitch": 74, "velocity": 64, "note_on_time": 177.119, "note_off_time": 177.597}, {"pitch": 72, "velocity": 65, "note_on_time": 177.507, "note_off_time": 177.677}, {"pitch": 76, "velocity": 61, "note_on_time": 177.931, "note_off_time": 178.385}, {"pitch": 77, "velocity": 63, "note_on_time": 178.227, "note_off_time": 178.733}, {"pitch": 79, "velocity": 45, "note_on_time": 178.508, "note_off_time": 178.782}, {"pitch": 74, "velocity": 64, "note_on_time": 179.194, "note_off_time": 179.925}, {"pitch": 72, "velocity": 63, "note_on_time": 179.845, "note_off_time": 180.039}, {"pitch": 76, "velocity": 56, "note_on_time": 180.397, "note_off_time": 180.805}, {"pitch": 77, "velocity": 67, "note_on_time": 180.697, "note_off_time": 181.194}, {"pitch": 79, "velocity": 49, "note_on_time": 181.052, "note_off_time": 181.277}, {"pitch": 74, "velocity": 56, "note_on_time": 181.673, "note_off_time": 182.242}, {"pitch": 72, "velocity": 65, "note_on_time": 182.13, "note_off_time": 182.346}, {"pitch": 76, "velocity": 57, "note_on_time": 182.651, "note_off_time": 183.129}, {"pitch": 77, "velocity": 63, "note_on_time": 182.936, "note_off_time": 183.518}, {"pitch": 79, "velocity": 50, "note_on_time": 183.393, "note_off_time": 183.663}, {"pitch": 74, "velocity": 64, "note_on_time": 184.412, "note_off_time": 184.964}, {"pitch": 72, "velocity": 55, "note_on_time": 184.832, "note_off_time": 185.015}, {"pitch": 76, "velocity": 67, "note_on_time": 185.419, "note_off_time": 185.804}, {"pitch": 77, "velocity": 67, "note_on_time": 185.681, "note_off_time": 186.223}, {"pitch": 79, "velocity": 57, "note_on_time": 186.029, "note_off_time": 186.398}, {"pitch": 72, "velocity": 69, "note_on_time": 188.575, "note_off_time": 188.853}, {"pitch": 74, "velocity": 67, "note_on_time": 188.852, "note_off_time": 189.169}, {"pitch": 76, "velocity": 63, "note_on_time": 189.099, "note_off_time": 189.532}, {"pitch": 77, "velocity": 60, "note_on_time": 189.382, "note_off_time": 189.825}, {"pitch": 79, "velocity": 58, "note_on_time": 189.705, "note_off_time": 189.931}, {"pitch": 72, "velocity": 62, "note_on_time": 190.279, "note_off_time": 190.649}, {"pitch": 74, "velocity": 66, "note_on_time": 190.574, "note_off_time": 190.955}, {"pitch": 76, "velocity": 70, "note_on_time": 190.859, "note_off_time": 191.277}, {"pitch": 77, "velocity": 65, "note_on_time": 191.114, "note_off_time": 191.614}, {"pitch": 79, "velocity": 54, "note_on_time": 191.449, "note_off_time": 191.72}, {"pitch": 72, "velocity": 67, "note_on_time": 192.075, "note_off_time": 192.461}, {"pitch": 74, "velocity": 70, "note_on_time": 192.362, "note_off_time": 192.722}, {"pitch": 76, "velocity": 68, "note_on_time": 192.632, "note_off_time": 193.14}, {"pitch": 77, "velocity": 65, "note_on_time": 192.884, "note_off_time": 193.429}, {"pitch": 79, "velocity": 47, "note_on_time": 193.248, "note_off_time": 193.502}, {"pitch": 72, "velocity": 60, "note_on_time": 193.821, "note_off_time": 194.213}, {"pitch": 74, "velocity": 74, "note_on_time": 194.102, "note_off_time": 194.475}]</notes><guidance name="Guidance Mode">None</guidance><error name="Error value">99</error></trial></trials></MIDI>