<MIDI midiNo="2023_06_12-15_14_20"><target_notes><notes name="Note List">[{"pitch": 60, "velocity": 40, "note_on_time": 0.01, "note_off_time": 1.024}, {"pitch": 64, "velocity": 40, "note_on_time": 0.01, "note_off_time": 1.024}, {"pitch": 67, "velocity": 40, "note_on_time": 0.01, "note_off_time": 1.024}, {"pitch": 48, "velocity": 40, "note_on_time": 0.01, "note_off_time": 1.024}, {"pitch": 52, "velocity": 40, "note_on_time": 1.024, "note_off_time": 2.037}, {"pitch": 55, "velocity": 40, "note_on_time": 1.024, "note_off_time": 2.038}, {"pitch": 77, "velocity": 40, "note_on_time": 2.037, "note_off_time": 3.039}, {"pitch": 48, "velocity": 40, "note_on_time": 2.038, "note_off_time": 3.039}, {"pitch": 52, "velocity": 40, "note_on_time": 3.04, "note_off_time": 4.05}, {"pitch": 55, "velocity": 40, "note_on_time": 3.04, "note_off_time": 4.05}, {"pitch": 48, "velocity": 40, "note_on_time": 4.05, "note_off_time": 5.064}, {"pitch": 52, "velocity": 40, "note_on_time": 5.064, "note_off_time": 6.077}, {"pitch": 55, "velocity": 40, "note_on_time": 5.064, "note_off_time": 6.077}, {"pitch": 48, "velocity": 40, "note_on_time": 6.077, "note_off_time": 7.089}, {"pitch": 52, "velocity": 40, "note_on_time": 7.089, "note_off_time": 8.105}, {"pitch": 55, "velocity": 40, "note_on_time": 7.089, "note_off_time": 8.105}, {"pitch": 60, "velocity": 40, "note_on_time": 8.103, "note_off_time": 9.115}, {"pitch": 64, "velocity": 40, "note_on_time": 8.103, "note_off_time": 9.115}, {"pitch": 67, "velocity": 40, "note_on_time": 8.105, "note_off_time": 9.116}, {"pitch": 48, "velocity": 40, "note_on_time": 8.105, "note_off_time": 9.116}, {"pitch": 52, "velocity": 40, "note_on_time": 9.116, "note_off_time": 10.128}, {"pitch": 55, "velocity": 40, "note_on_time": 9.116, "note_off_time": 10.129}, {"pitch": 72, "velocity": 40, "note_on_time": 10.128, "note_off_time": 11.138}, {"pitch": 48, "velocity": 40, "note_on_time": 10.129, "note_off_time": 11.138}, {"pitch": 52, "velocity": 40, "note_on_time": 11.139, "note_off_time": 12.149}, {"pitch": 55, "velocity": 40, "note_on_time": 11.139, "note_off_time": 12.149}, {"pitch": 48, "velocity": 40, "note_on_time": 12.149, "note_off_time": 13.162}, {"pitch": 52, "velocity": 40, "note_on_time": 13.162, "note_off_time": 14.173}, {"pitch": 55, "velocity": 40, "note_on_time": 13.162, "note_off_time": 14.173}, {"pitch": 48, "velocity": 40, "note_on_time": 14.173, "note_off_time": 15.187}, {"pitch": 52, "velocity": 40, "note_on_time": 15.187, "note_off_time": 16.193}, {"pitch": 55, "velocity": 40, "note_on_time": 15.187, "note_off_time": 16.194}, {"pitch": 60, "velocity": 40, "note_on_time": 16.193, "note_off_time": 17.205}, {"pitch": 64, "velocity": 40, "note_on_time": 16.193, "note_off_time": 17.206}, {"pitch": 67, "velocity": 40, "note_on_time": 16.193, "note_off_time": 17.206}, {"pitch": 48, "velocity": 40, "note_on_time": 16.194, "note_off_time": 17.207}, {"pitch": 52, "velocity": 40, "note_on_time": 17.207, "note_off_time": 18.22}, {"pitch": 55, "velocity": 40, "note_on_time": 17.207, "note_off_time": 18.221}, {"pitch": 79, "velocity": 40, "note_on_time": 18.22, "note_off_time": 19.223}, {"pitch": 48, "velocity": 40, "note_on_time": 18.221, "note_off_time": 19.223}, {"pitch": 52, "velocity": 40, "note_on_time": 19.223, "note_off_time": 20.225}, {"pitch": 55, "velocity": 40, "note_on_time": 19.223, "note_off_time": 20.225}, {"pitch": 48, "velocity": 40, "note_on_time": 20.225, "note_off_time": 21.234}, {"pitch": 52, "velocity": 40, "note_on_time": 21.234, "note_off_time": 22.244}, {"pitch": 55, "velocity": 40, "note_on_time": 21.234, "note_off_time": 22.244}, {"pitch": 48, "velocity": 40, "note_on_time": 22.244, "note_off_time": 23.26}, {"pitch": 52, "velocity": 40, "note_on_time": 23.26, "note_off_time": 24.282}, {"pitch": 55, "velocity": 40, "note_on_time": 23.26, "note_off_time": 24.282}, {"pitch": 60, "velocity": 40, "note_on_time": 24.281, "note_off_time": 25.289}, {"pitch": 64, "velocity": 40, "note_on_time": 24.281, "note_off_time": 25.289}, {"pitch": 67, "velocity": 40, "note_on_time": 24.282, "note_off_time": 25.29}, {"pitch": 48, "velocity": 40, "note_on_time": 24.282, "note_off_time": 25.29}, {"pitch": 52, "velocity": 40, "note_on_time": 25.29, "note_off_time": 26.295}, {"pitch": 55, "velocity": 40, "note_on_time": 25.29, "note_off_time": 26.296}, {"pitch": 72, "velocity": 40, "note_on_time": 26.295, "note_off_time": 27.312}, {"pitch": 48, "velocity": 40, "note_on_time": 26.296, "note_off_time": 27.312}, {"pitch": 52, "velocity": 40, "note_on_time": 27.312, "note_off_time": 28.327}, {"pitch": 55, "velocity": 40, "note_on_time": 27.313, "note_off_time": 28.327}, {"pitch": 48, "velocity": 40, "note_on_time": 28.327, "note_off_time": 29.34}, {"pitch": 52, "velocity": 40, "note_on_time": 29.34, "note_off_time": 30.348}, {"pitch": 55, "velocity": 40, "note_on_time": 29.34, "note_off_time": 30.348}, {"pitch": 48, "velocity": 40, "note_on_time": 30.348, "note_off_time": 31.363}, {"pitch": 52, "velocity": 40, "note_on_time": 31.363, "note_off_time": 32.369}, {"pitch": 55, "velocity": 40, "note_on_time": 31.363, "note_off_time": 32.369}, {"pitch": 60, "velocity": 40, "note_on_time": 32.367, "note_off_time": 33.381}, {"pitch": 64, "velocity": 40, "note_on_time": 32.368, "note_off_time": 33.382}, {"pitch": 67, "velocity": 40, "note_on_time": 32.369, "note_off_time": 33.382}, {"pitch": 48, "velocity": 40, "note_on_time": 32.369, "note_off_time": 33.382}, {"pitch": 52, "velocity": 40, "note_on_time": 33.382, "note_off_time": 34.391}, {"pitch": 55, "velocity": 40, "note_on_time": 33.382, "note_off_time": 34.392}, {"pitch": 77, "velocity": 40, "note_on_time": 34.391, "note_off_time": 35.402}, {"pitch": 48, "velocity": 40, "note_on_time": 34.392, "note_off_time": 35.403}, {"pitch": 52, "velocity": 40, "note_on_time": 35.404, "note_off_time": 36.413}, {"pitch": 55, "velocity": 40, "note_on_time": 35.404, "note_off_time": 36.413}, {"pitch": 48, "velocity": 40, "note_on_time": 36.413, "note_off_time": 37.423}, {"pitch": 52, "velocity": 40, "note_on_time": 37.423, "note_off_time": 38.437}, {"pitch": 55, "velocity": 40, "note_on_time": 37.423, "note_off_time": 38.437}, {"pitch": 48, "velocity": 40, "note_on_time": 38.437, "note_off_time": 39.439}, {"pitch": 52, "velocity": 40, "note_on_time": 39.439, "note_off_time": 40.446}, {"pitch": 55, "velocity": 40, "note_on_time": 39.439, "note_off_time": 40.446}, {"pitch": 60, "velocity": 40, "note_on_time": 40.444, "note_off_time": 41.447}, {"pitch": 64, "velocity": 40, "note_on_time": 40.445, "note_off_time": 41.448}, {"pitch": 67, "velocity": 40, "note_on_time": 40.446, "note_off_time": 41.448}, {"pitch": 76, "velocity": 40, "note_on_time": 42.463, "note_off_time": 43.479}, {"pitch": 60, "velocity": 40, "note_on_time": 48.493, "note_off_time": 49.517}, {"pitch": 64, "velocity": 40, "note_on_time": 48.494, "note_off_time": 49.518}, {"pitch": 67, "velocity": 40, "note_on_time": 48.494, "note_off_time": 49.519}, {"pitch": 77, "velocity": 40, "note_on_time": 50.53, "note_off_time": 51.541}, {"pitch": 60, "velocity": 40, "note_on_time": 56.545, "note_off_time": 57.567}, {"pitch": 64, "velocity": 40, "note_on_time": 56.546, "note_off_time": 57.568}, {"pitch": 67, "velocity": 40, "note_on_time": 56.546, "note_off_time": 57.568}, {"pitch": 74, "velocity": 40, "note_on_time": 58.583, "note_off_time": 59.588}, {"pitch": 60, "velocity": 40, "note_on_time": 64.602, "note_off_time": 65.604}, {"pitch": 64, "velocity": 40, "note_on_time": 64.603, "note_off_time": 65.604}, {"pitch": 67, "velocity": 40, "note_on_time": 64.603, "note_off_time": 65.604}, {"pitch": 77, "velocity": 40, "note_on_time": 66.621, "note_off_time": 67.628}, {"pitch": 60, "velocity": 40, "note_on_time": 72.639, "note_off_time": 73.643}, {"pitch": 64, "velocity": 40, "note_on_time": 72.64, "note_off_time": 73.644}, {"pitch": 67, "velocity": 40, "note_on_time": 72.64, "note_off_time": 73.645}, {"pitch": 76, "velocity": 40, "note_on_time": 74.656, "note_off_time": 75.672}, {"pitch": 60, "velocity": 40, "note_on_time": 80.684, "note_off_time": 81.695}, {"pitch": 64, "velocity": 40, "note_on_time": 80.685, "note_off_time": 81.696}, {"pitch": 67, "velocity": 40, "note_on_time": 80.685, "note_off_time": 81.696}, {"pitch": 79, "velocity": 40, "note_on_time": 82.707, "note_off_time": 83.717}, {"pitch": 60, "velocity": 40, "note_on_time": 88.724, "note_off_time": 89.735}, {"pitch": 64, "velocity": 40, "note_on_time": 88.725, "note_off_time": 89.736}, {"pitch": 67, "velocity": 40, "note_on_time": 88.725, "note_off_time": 89.74}, {"pitch": 72, "velocity": 40, "note_on_time": 90.748, "note_off_time": 91.762}, {"pitch": 60, "velocity": 40, "note_on_time": 96.765, "note_off_time": 97.78}, {"pitch": 64, "velocity": 40, "note_on_time": 96.765, "note_off_time": 97.781}, {"pitch": 67, "velocity": 40, "note_on_time": 96.766, "note_off_time": 97.782}, {"pitch": 76, "velocity": 40, "note_on_time": 98.795, "note_off_time": 99.811}, {"pitch": 60, "velocity": 40, "note_on_time": 104.816, "note_off_time": 105.829}, {"pitch": 64, "velocity": 40, "note_on_time": 104.817, "note_off_time": 105.83}, {"pitch": 67, "velocity": 40, "note_on_time": 104.817, "note_off_time": 105.831}, {"pitch": 74, "velocity": 40, "note_on_time": 106.841, "note_off_time": 107.855}, {"pitch": 60, "velocity": 40, "note_on_time": 112.87, "note_off_time": 113.874}, {"pitch": 64, "velocity": 40, "note_on_time": 112.871, "note_off_time": 113.875}, {"pitch": 67, "velocity": 40, "note_on_time": 112.871, "note_off_time": 113.876}, {"pitch": 72, "velocity": 40, "note_on_time": 114.884, "note_off_time": 115.889}, {"pitch": 60, "velocity": 40, "note_on_time": 120.892, "note_off_time": 121.896}, {"pitch": 64, "velocity": 40, "note_on_time": 120.893, "note_off_time": 121.897}, {"pitch": 67, "velocity": 40, "note_on_time": 120.893, "note_off_time": 121.898}, {"pitch": 74, "velocity": 40, "note_on_time": 122.908, "note_off_time": 123.92}, {"pitch": 60, "velocity": 40, "note_on_time": 128.926, "note_off_time": 129.941}, {"pitch": 64, "velocity": 40, "note_on_time": 128.927, "note_off_time": 129.941}, {"pitch": 67, "velocity": 40, "note_on_time": 128.928, "note_off_time": 129.941}, {"pitch": 79, "velocity": 40, "note_on_time": 130.953, "note_off_time": 131.967}, {"pitch": 60, "velocity": 40, "note_on_time": 136.969, "note_off_time": 137.982}, {"pitch": 64, "velocity": 40, "note_on_time": 136.97, "note_off_time": 137.983}, {"pitch": 67, "velocity": 40, "note_on_time": 136.97, "note_off_time": 137.984}, {"pitch": 74, "velocity": 40, "note_on_time": 138.997, "note_off_time": 140.007}, {"pitch": 60, "velocity": 40, "note_on_time": 145.011, "note_off_time": 146.014}, {"pitch": 64, "velocity": 40, "note_on_time": 145.011, "note_off_time": 146.015}, {"pitch": 67, "velocity": 40, "note_on_time": 145.012, "note_off_time": 146.015}, {"pitch": 79, "velocity": 40, "note_on_time": 147.025, "note_off_time": 148.039}, {"pitch": 60, "velocity": 40, "note_on_time": 153.047, "note_off_time": 154.06}, {"pitch": 64, "velocity": 40, "note_on_time": 153.048, "note_off_time": 154.06}, {"pitch": 67, "velocity": 40, "note_on_time": 153.049, "note_off_time": 154.061}, {"pitch": 76, "velocity": 40, "note_on_time": 155.07, "note_off_time": 156.072}, {"pitch": 60, "velocity": 40, "note_on_time": 161.088, "note_off_time": 162.095}, {"pitch": 64, "velocity": 40, "note_on_time": 161.088, "note_off_time": 162.096}, {"pitch": 67, "velocity": 40, "note_on_time": 161.088, "note_off_time": 162.097}, {"pitch": 77, "velocity": 40, "note_on_time": 163.102, "note_off_time": 164.115}]</notes><options name="Option List">((4, 4), [0.5, 0.25], 3, 8, &lt;NoteRangePerHand.TWO_NOTES: 3&gt;, &lt;NoteRangePerHand.ONE_NOTE: 2&gt;, False, True, True, 100)</options></target_notes><trials><trial trial_no="1" timestamp="2023_06_12-15_11_36"><notes name="Played Notes">[{"pitch": 74, "velocity": 58, "note_on_time": 4.389, "note_off_time": 4.599}, {"pitch": 76, "velocity": 59, "note_on_time": 6.912, "note_off_time": 7.128}, {"pitch": 72, "velocity": 55, "note_on_time": 7.632, "note_off_time": 7.82}, {"pitch": 72, "velocity": 72, "note_on_time": 9.963, "note_off_time": 10.413}, {"pitch": 79, "velocity": 47, "note_on_time": 11.068, "note_off_time": 11.598}, {"pitch": 77, "velocity": 41, "note_on_time": 11.9, "note_off_time": 12.29}, {"pitch": 76, "velocity": 57, "note_on_time": 12.807, "note_off_time": 13.299}, {"pitch": 77, "velocity": 38, "note_on_time": 15.451, "note_off_time": 15.966}, {"pitch": 74, "velocity": 72, "note_on_time": 27.869, "note_off_time": 28.259}, {"pitch": 72, "velocity": 65, "note_on_time": 29.563, "note_off_time": 30.45}, {"pitch": 76, "velocity": 55, "note_on_time": 34.063, "note_off_time": 34.685}, {"pitch": 72, "velocity": 79, "note_on_time": 34.085, "note_off_time": 34.771}, {"pitch": 72, "velocity": 64, "note_on_time": 36.479, "note_off_time": 37.15}, {"pitch": 74, "velocity": 58, "note_on_time": 37.667, "note_off_time": 38.272}, {"pitch": 76, "velocity": 62, "note_on_time": 39.37, "note_off_time": 40.043}, {"pitch": 77, "velocity": 47, "note_on_time": 42.236, "note_off_time": 42.714}, {"pitch": 72, "velocity": 60, "note_on_time": 43.801, "note_off_time": 44.917}, {"pitch": 79, "velocity": 45, "note_on_time": 53.485, "note_off_time": 53.98}, {"pitch": 77, "velocity": 72, "note_on_time": 54.38, "note_off_time": 54.807}, {"pitch": 77, "velocity": 18, "note_on_time": 60.623, "note_off_time": 62.16}, {"pitch": 77, "velocity": 60, "note_on_time": 62.499, "note_off_time": 63.538}, {"pitch": 77, "velocity": 66, "note_on_time": 76.28, "note_off_time": 76.655}, {"pitch": 76, "velocity": 72, "note_on_time": 76.902, "note_off_time": 77.817}, {"pitch": 76, "velocity": 61, "note_on_time": 78.047, "note_off_time": 79.256}, {"pitch": 76, "velocity": 58, "note_on_time": 83.77, "note_off_time": 84.531}, {"pitch": 79, "velocity": 84, "note_on_time": 84.811, "note_off_time": 86.289}, {"pitch": 76, "velocity": 38, "note_on_time": 86.59, "note_off_time": 88.129}, {"pitch": 79, "velocity": 72, "note_on_time": 88.71, "note_off_time": 89.388}, {"pitch": 79, "velocity": 63, "note_on_time": 89.99, "note_off_time": 90.311}, {"pitch": 76, "velocity": 14, "note_on_time": 92.658, "note_off_time": 92.95}, {"pitch": 76, "velocity": 56, "note_on_time": 116.828, "note_off_time": 117.375}, {"pitch": 77, "velocity": 42, "note_on_time": 118.146, "note_off_time": 118.613}, {"pitch": 76, "velocity": 40, "note_on_time": 120.342, "note_off_time": 120.526}, {"pitch": 77, "velocity": 40, "note_on_time": 121.04, "note_off_time": 121.188}, {"pitch": 74, "velocity": 73, "note_on_time": 124.706, "note_off_time": 125.179}, {"pitch": 79, "velocity": 52, "note_on_time": 131.941, "note_off_time": 132.304}, {"pitch": 79, "velocity": 72, "note_on_time": 132.605, "note_off_time": 133.05}, {"pitch": 74, "velocity": 62, "note_on_time": 141.096, "note_off_time": 141.688}, {"pitch": 77, "velocity": 36, "note_on_time": 148.684, "note_off_time": 149.694}, {"pitch": 76, "velocity": 68, "note_on_time": 151.376, "note_off_time": 152.436}, {"pitch": 77, "velocity": 59, "note_on_time": 153.04, "note_off_time": 153.415}, {"pitch": 76, "velocity": 74, "note_on_time": 156.733, "note_off_time": 157.392}, {"pitch": 77, "velocity": 54, "note_on_time": 158.301, "note_off_time": 158.876}, {"pitch": 76, "velocity": 42, "note_on_time": 160.367, "note_off_time": 160.645}, {"pitch": 77, "velocity": 41, "note_on_time": 160.786, "note_off_time": 161.019}, {"pitch": 76, "velocity": 42, "note_on_time": 161.199, "note_off_time": 161.329}]</notes><guidance name="Guidance Mode">None</guidance><error name="Error value">99</error></trial><trial trial_no="2" timestamp="2023_06_12-15_16_35"><notes name="Played Notes">[{"pitch": 79, "velocity": 48, "note_on_time": 4.809, "note_off_time": 5.072}, {"pitch": 72, "velocity": 49, "note_on_time": 5.513, "note_off_time": 5.768}, {"pitch": 74, "velocity": 58, "note_on_time": 6.104, "note_off_time": 6.292}, {"pitch": 76, "velocity": 59, "note_on_time": 6.566, "note_off_time": 6.762}, {"pitch": 77, "velocity": 61, "note_on_time": 7.034, "note_off_time": 7.245}, {"pitch": 79, "velocity": 68, "note_on_time": 7.379, "note_off_time": 7.603}, {"pitch": 72, "velocity": 47, "note_on_time": 7.929, "note_off_time": 8.246}, {"pitch": 74, "velocity": 55, "note_on_time": 8.277, "note_off_time": 8.547}, {"pitch": 76, "velocity": 37, "note_on_time": 8.594, "note_off_time": 8.894}, {"pitch": 77, "velocity": 40, "note_on_time": 8.881, "note_off_time": 9.15}, {"pitch": 79, "velocity": 53, "note_on_time": 9.154, "note_off_time": 9.397}, {"pitch": 72, "velocity": 61, "note_on_time": 9.619, "note_off_time": 10.016}, {"pitch": 74, "velocity": 59, "note_on_time": 9.914, "note_off_time": 10.259}, {"pitch": 76, "velocity": 52, "note_on_time": 10.217, "note_off_time": 10.546}, {"pitch": 77, "velocity": 50, "note_on_time": 10.472, "note_off_time": 10.776}, {"pitch": 79, "velocity": 36, "note_on_time": 10.714, "note_off_time": 10.992}, {"pitch": 72, "velocity": 59, "note_on_time": 11.391, "note_off_time": 11.987}, {"pitch": 74, "velocity": 57, "note_on_time": 11.694, "note_off_time": 12.032}, {"pitch": 76, "velocity": 65, "note_on_time": 11.971, "note_off_time": 12.212}, {"pitch": 77, "velocity": 26, "note_on_time": 12.275, "note_off_time": 12.574}, {"pitch": 79, "velocity": 55, "note_on_time": 12.59, "note_off_time": 12.843}, {"pitch": 79, "velocity": 66, "note_on_time": 14.624, "note_off_time": 14.841}, {"pitch": 77, "velocity": 58, "note_on_time": 15.02, "note_off_time": 15.212}, {"pitch": 76, "velocity": 67, "note_on_time": 15.401, "note_off_time": 15.586}, {"pitch": 74, "velocity": 67, "note_on_time": 15.727, "note_off_time": 15.902}, {"pitch": 72, "velocity": 72, "note_on_time": 16.045, "note_off_time": 16.244}, {"pitch": 79, "velocity": 70, "note_on_time": 16.636, "note_off_time": 16.848}, {"pitch": 77, "velocity": 55, "note_on_time": 17.027, "note_off_time": 17.23}, {"pitch": 76, "velocity": 72, "note_on_time": 17.409, "note_off_time": 17.601}, {"pitch": 74, "velocity": 66, "note_on_time": 17.739, "note_off_time": 17.922}, {"pitch": 72, "velocity": 73, "note_on_time": 18.055, "note_off_time": 18.261}, {"pitch": 79, "velocity": 72, "note_on_time": 18.573, "note_off_time": 18.797}, {"pitch": 77, "velocity": 57, "note_on_time": 18.955, "note_off_time": 19.157}, {"pitch": 76, "velocity": 64, "note_on_time": 19.366, "note_off_time": 19.558}, {"pitch": 74, "velocity": 62, "note_on_time": 19.734, "note_off_time": 19.929}, {"pitch": 72, "velocity": 62, "note_on_time": 20.104, "note_off_time": 20.308}, {"pitch": 79, "velocity": 65, "note_on_time": 20.596, "note_off_time": 20.831}, {"pitch": 77, "velocity": 56, "note_on_time": 21.009, "note_off_time": 21.219}, {"pitch": 76, "velocity": 64, "note_on_time": 21.386, "note_off_time": 21.584}, {"pitch": 74, "velocity": 65, "note_on_time": 21.757, "note_off_time": 21.932}, {"pitch": 72, "velocity": 74, "note_on_time": 22.114, "note_off_time": 22.313}, {"pitch": 74, "velocity": 67, "note_on_time": 24.094, "note_off_time": 24.242}, {"pitch": 76, "velocity": 66, "note_on_time": 24.457, "note_off_time": 24.644}, {"pitch": 77, "velocity": 62, "note_on_time": 24.816, "note_off_time": 25.016}, {"pitch": 79, "velocity": 64, "note_on_time": 25.198, "note_off_time": 25.409}, {"pitch": 72, "velocity": 71, "note_on_time": 25.592, "note_off_time": 25.833}, {"pitch": 74, "velocity": 70, "note_on_time": 26.219, "note_off_time": 26.393}, {"pitch": 76, "velocity": 65, "note_on_time": 26.582, "note_off_time": 26.762}, {"pitch": 77, "velocity": 53, "note_on_time": 26.948, "note_off_time": 27.142}, {"pitch": 79, "velocity": 56, "note_on_time": 27.281, "note_off_time": 27.508}, {"pitch": 72, "velocity": 66, "note_on_time": 27.67, "note_off_time": 27.899}, {"pitch": 74, "velocity": 67, "note_on_time": 28.382, "note_off_time": 28.547}, {"pitch": 76, "velocity": 70, "note_on_time": 28.736, "note_off_time": 28.91}, {"pitch": 77, "velocity": 57, "note_on_time": 29.08, "note_off_time": 29.29}, {"pitch": 79, "velocity": 62, "note_on_time": 29.413, "note_off_time": 29.637}, {"pitch": 72, "velocity": 69, "note_on_time": 29.763, "note_off_time": 29.979}, {"pitch": 74, "velocity": 66, "note_on_time": 30.404, "note_off_time": 30.551}, {"pitch": 76, "velocity": 57, "note_on_time": 30.698, "note_off_time": 30.89}, {"pitch": 77, "velocity": 54, "note_on_time": 31.139, "note_off_time": 31.336}, {"pitch": 79, "velocity": 62, "note_on_time": 31.498, "note_off_time": 31.725}, {"pitch": 72, "velocity": 68, "note_on_time": 31.875, "note_off_time": 32.109}, {"pitch": 77, "velocity": 61, "note_on_time": 34.22, "note_off_time": 34.412}, {"pitch": 76, "velocity": 73, "note_on_time": 34.801, "note_off_time": 34.999}, {"pitch": 74, "velocity": 74, "note_on_time": 35.284, "note_off_time": 35.475}, {"pitch": 72, "velocity": 70, "note_on_time": 35.72, "note_off_time": 35.926}, {"pitch": 79, "velocity": 76, "note_on_time": 36.179, "note_off_time": 36.389}, {"pitch": 77, "velocity": 60, "note_on_time": 36.888, "note_off_time": 37.095}, {"pitch": 76, "velocity": 50, "note_on_time": 37.234, "note_off_time": 37.476}, {"pitch": 74, "velocity": 60, "note_on_time": 37.615, "note_off_time": 37.789}, {"pitch": 72, "velocity": 69, "note_on_time": 37.964, "note_off_time": 38.168}, {"pitch": 79, "velocity": 76, "note_on_time": 38.329, "note_off_time": 38.549}, {"pitch": 77, "velocity": 68, "note_on_time": 39.027, "note_off_time": 39.24}, {"pitch": 76, "velocity": 51, "note_on_time": 39.372, "note_off_time": 39.612}, {"pitch": 74, "velocity": 67, "note_on_time": 39.744, "note_off_time": 39.937}, {"pitch": 72, "velocity": 65, "note_on_time": 40.055, "note_off_time": 40.285}, {"pitch": 79, "velocity": 77, "note_on_time": 40.401, "note_off_time": 40.616}, {"pitch": 77, "velocity": 57, "note_on_time": 41.078, "note_off_time": 41.344}, {"pitch": 76, "velocity": 61, "note_on_time": 41.484, "note_off_time": 41.751}, {"pitch": 74, "velocity": 68, "note_on_time": 41.85, "note_off_time": 42.044}, {"pitch": 72, "velocity": 70, "note_on_time": 42.219, "note_off_time": 42.443}, {"pitch": 79, "velocity": 74, "note_on_time": 42.59, "note_off_time": 42.794}, {"pitch": 76, "velocity": 69, "note_on_time": 45.01, "note_off_time": 45.203}, {"pitch": 77, "velocity": 61, "note_on_time": 45.46, "note_off_time": 45.669}, {"pitch": 79, "velocity": 67, "note_on_time": 45.96, "note_off_time": 46.178}, {"pitch": 74, "velocity": 74, "note_on_time": 47.303, "note_off_time": 47.477}, {"pitch": 72, "velocity": 74, "note_on_time": 47.72, "note_off_time": 47.926}, {"pitch": 76, "velocity": 68, "note_on_time": 48.799, "note_off_time": 48.989}, {"pitch": 77, "velocity": 59, "note_on_time": 49.174, "note_off_time": 49.379}, {"pitch": 79, "velocity": 63, "note_on_time": 49.534, "note_off_time": 49.743}, {"pitch": 74, "velocity": 77, "note_on_time": 49.952, "note_off_time": 50.138}, {"pitch": 72, "velocity": 72, "note_on_time": 50.325, "note_off_time": 50.536}, {"pitch": 76, "velocity": 70, "note_on_time": 50.929, "note_off_time": 51.136}, {"pitch": 77, "velocity": 65, "note_on_time": 51.307, "note_off_time": 51.488}, {"pitch": 79, "velocity": 67, "note_on_time": 51.693, "note_off_time": 51.914}, {"pitch": 74, "velocity": 68, "note_on_time": 52.105, "note_off_time": 52.301}, {"pitch": 72, "velocity": 74, "note_on_time": 52.48, "note_off_time": 52.711}, {"pitch": 76, "velocity": 63, "note_on_time": 53.07, "note_off_time": 53.284}, {"pitch": 77, "velocity": 60, "note_on_time": 53.512, "note_off_time": 53.719}, {"pitch": 79, "velocity": 66, "note_on_time": 53.932, "note_off_time": 54.175}, {"pitch": 74, "velocity": 66, "note_on_time": 54.392, "note_off_time": 54.587}, {"pitch": 72, "velocity": 73, "note_on_time": 54.827, "note_off_time": 55.043}, {"pitch": 76, "velocity": 60, "note_on_time": 57.407, "note_off_time": 57.596}, {"pitch": 74, "velocity": 73, "note_on_time": 57.85, "note_off_time": 58.028}, {"pitch": 72, "velocity": 72, "note_on_time": 58.238, "note_off_time": 58.463}, {"pitch": 76, "velocity": 67, "note_on_time": 58.676, "note_off_time": 58.869}, {"pitch": 79, "velocity": 78, "note_on_time": 59.212, "note_off_time": 59.443}, {"pitch": 76, "velocity": 70, "note_on_time": 59.919, "note_off_time": 60.113}, {"pitch": 74, "velocity": 66, "note_on_time": 60.277, "note_off_time": 60.46}, {"pitch": 72, "velocity": 72, "note_on_time": 60.651, "note_off_time": 60.877}, {"pitch": 77, "velocity": 61, "note_on_time": 61.076, "note_off_time": 61.275}, {"pitch": 79, "velocity": 67, "note_on_time": 61.452, "note_off_time": 61.667}, {"pitch": 76, "velocity": 68, "note_on_time": 62.061, "note_off_time": 62.297}, {"pitch": 74, "velocity": 70, "note_on_time": 62.467, "note_off_time": 62.684}, {"pitch": 72, "velocity": 66, "note_on_time": 62.826, "note_off_time": 63.058}, {"pitch": 77, "velocity": 63, "note_on_time": 63.29, "note_off_time": 63.498}, {"pitch": 79, "velocity": 73, "note_on_time": 63.676, "note_off_time": 63.933}, {"pitch": 76, "velocity": 29, "note_on_time": 64.337, "note_off_time": 64.439}, {"pitch": 74, "velocity": 73, "note_on_time": 64.337, "note_off_time": 64.54}, {"pitch": 76, "velocity": 30, "note_on_time": 64.904, "note_off_time": 65.119}, {"pitch": 74, "velocity": 72, "note_on_time": 65.329, "note_off_time": 65.513}, {"pitch": 72, "velocity": 67, "note_on_time": 65.733, "note_off_time": 65.961}, {"pitch": 77, "velocity": 55, "note_on_time": 66.183, "note_off_time": 66.377}, {"pitch": 79, "velocity": 63, "note_on_time": 66.554, "note_off_time": 66.783}, {"pitch": 76, "velocity": 70, "note_on_time": 67.443, "note_off_time": 67.653}, {"pitch": 74, "velocity": 68, "note_on_time": 67.86, "note_off_time": 68.055}, {"pitch": 72, "velocity": 63, "note_on_time": 68.228, "note_off_time": 68.434}, {"pitch": 77, "velocity": 62, "note_on_time": 68.646, "note_off_time": 68.836}, {"pitch": 79, "velocity": 68, "note_on_time": 69.09, "note_off_time": 69.319}, {"pitch": 77, "velocity": 64, "note_on_time": 70.49, "note_off_time": 70.697}, {"pitch": 79, "velocity": 67, "note_on_time": 70.926, "note_off_time": 71.154}, {"pitch": 76, "velocity": 64, "note_on_time": 71.373, "note_off_time": 71.598}, {"pitch": 74, "velocity": 67, "note_on_time": 71.809, "note_off_time": 72.0}, {"pitch": 72, "velocity": 72, "note_on_time": 72.244, "note_off_time": 72.455}, {"pitch": 77, "velocity": 42, "note_on_time": 72.852, "note_off_time": 73.146}, {"pitch": 79, "velocity": 68, "note_on_time": 73.473, "note_off_time": 73.662}, {"pitch": 76, "velocity": 76, "note_on_time": 73.98, "note_off_time": 74.161}, {"pitch": 74, "velocity": 79, "note_on_time": 74.357, "note_off_time": 74.539}, {"pitch": 72, "velocity": 76, "note_on_time": 74.752, "note_off_time": 74.929}, {"pitch": 77, "velocity": 89, "note_on_time": 75.636, "note_off_time": 75.728}, {"pitch": 79, "velocity": 75, "note_on_time": 75.992, "note_off_time": 76.086}, {"pitch": 76, "velocity": 88, "note_on_time": 76.361, "note_off_time": 76.461}, {"pitch": 74, "velocity": 84, "note_on_time": 76.691, "note_off_time": 76.781}, {"pitch": 72, "velocity": 86, "note_on_time": 76.997, "note_off_time": 77.103}, {"pitch": 77, "velocity": 55, "note_on_time": 78.541, "note_off_time": 78.742}, {"pitch": 79, "velocity": 71, "note_on_time": 78.985, "note_off_time": 79.179}, {"pitch": 76, "velocity": 72, "note_on_time": 79.392, "note_off_time": 79.607}, {"pitch": 74, "velocity": 73, "note_on_time": 79.711, "note_off_time": 79.995}, {"pitch": 72, "velocity": 73, "note_on_time": 80.011, "note_off_time": 80.206}, {"pitch": 74, "velocity": 65, "note_on_time": 83.305, "note_off_time": 83.493}, {"pitch": 76, "velocity": 64, "note_on_time": 83.707, "note_off_time": 83.921}, {"pitch": 77, "velocity": 66, "note_on_time": 84.146, "note_off_time": 84.406}, {"pitch": 76, "velocity": 69, "note_on_time": 85.397, "note_off_time": 85.611}, {"pitch": 74, "velocity": 69, "note_on_time": 86.996, "note_off_time": 87.179}, {"pitch": 72, "velocity": 81, "note_on_time": 87.539, "note_off_time": 87.769}, {"pitch": 76, "velocity": 70, "note_on_time": 88.043, "note_off_time": 88.266}, {"pitch": 77, "velocity": 65, "note_on_time": 88.512, "note_off_time": 88.71}, {"pitch": 79, "velocity": 72, "note_on_time": 88.929, "note_off_time": 89.155}, {"pitch": 74, "velocity": 74, "note_on_time": 89.517, "note_off_time": 89.711}, {"pitch": 72, "velocity": 74, "note_on_time": 89.967, "note_off_time": 90.182}, {"pitch": 76, "velocity": 67, "note_on_time": 90.439, "note_off_time": 90.645}, {"pitch": 77, "velocity": 62, "note_on_time": 90.858, "note_off_time": 91.05}, {"pitch": 79, "velocity": 75, "note_on_time": 91.291, "note_off_time": 91.539}, {"pitch": 74, "velocity": 75, "note_on_time": 91.942, "note_off_time": 92.132}, {"pitch": 72, "velocity": 70, "note_on_time": 92.395, "note_off_time": 92.618}, {"pitch": 76, "velocity": 72, "note_on_time": 92.838, "note_off_time": 93.048}, {"pitch": 77, "velocity": 69, "note_on_time": 93.234, "note_off_time": 93.432}, {"pitch": 79, "velocity": 80, "note_on_time": 93.613, "note_off_time": 93.857}, {"pitch": 74, "velocity": 78, "note_on_time": 94.227, "note_off_time": 94.427}, {"pitch": 72, "velocity": 69, "note_on_time": 94.676, "note_off_time": 94.966}, {"pitch": 76, "velocity": 72, "note_on_time": 95.127, "note_off_time": 95.339}, {"pitch": 77, "velocity": 67, "note_on_time": 95.75, "note_off_time": 95.927}, {"pitch": 79, "velocity": 79, "note_on_time": 96.147, "note_off_time": 96.345}, {"pitch": 72, "velocity": 70, "note_on_time": 98.154, "note_off_time": 98.377}, {"pitch": 74, "velocity": 71, "note_on_time": 98.646, "note_off_time": 98.828}, {"pitch": 76, "velocity": 74, "note_on_time": 99.07, "note_off_time": 99.343}, {"pitch": 77, "velocity": 63, "note_on_time": 99.542, "note_off_time": 99.743}, {"pitch": 79, "velocity": 64, "note_on_time": 99.967, "note_off_time": 100.193}, {"pitch": 72, "velocity": 74, "note_on_time": 100.592, "note_off_time": 100.837}, {"pitch": 74, "velocity": 71, "note_on_time": 101.111, "note_off_time": 101.304}, {"pitch": 76, "velocity": 65, "note_on_time": 101.56, "note_off_time": 101.802}, {"pitch": 77, "velocity": 60, "note_on_time": 102.035, "note_off_time": 102.217}, {"pitch": 79, "velocity": 62, "note_on_time": 102.355, "note_off_time": 102.599}, {"pitch": 72, "velocity": 67, "note_on_time": 102.92, "note_off_time": 103.135}, {"pitch": 74, "velocity": 72, "note_on_time": 103.329, "note_off_time": 103.577}, {"pitch": 76, "velocity": 67, "note_on_time": 103.675, "note_off_time": 103.962}, {"pitch": 77, "velocity": 45, "note_on_time": 103.991, "note_off_time": 104.254}, {"pitch": 79, "velocity": 46, "note_on_time": 104.343, "note_off_time": 104.647}, {"pitch": 74, "velocity": 61, "note_on_time": 105.246, "note_off_time": 105.527}, {"pitch": 72, "velocity": 73, "note_on_time": 104.921, "note_off_time": 105.584}, {"pitch": 76, "velocity": 57, "note_on_time": 105.504, "note_off_time": 105.987}, {"pitch": 77, "velocity": 54, "note_on_time": 105.913, "note_off_time": 106.304}, {"pitch": 79, "velocity": 77, "note_on_time": 106.264, "note_off_time": 106.645}, {"pitch": 79, "velocity": 51, "note_on_time": 107.264, "note_off_time": 107.73}, {"pitch": 77, "velocity": 54, "note_on_time": 107.62, "note_off_time": 108.011}, {"pitch": 76, "velocity": 49, "note_on_time": 107.942, "note_off_time": 108.363}, {"pitch": 74, "velocity": 76, "note_on_time": 108.289, "note_off_time": 108.703}, {"pitch": 72, "velocity": 65, "note_on_time": 108.618, "note_off_time": 108.936}, {"pitch": 77, "velocity": 40, "note_on_time": 109.833, "note_off_time": 110.205}, {"pitch": 79, "velocity": 46, "note_on_time": 109.495, "note_off_time": 110.241}, {"pitch": 76, "velocity": 66, "note_on_time": 110.125, "note_off_time": 110.522}, {"pitch": 74, "velocity": 80, "note_on_time": 110.478, "note_off_time": 110.935}, {"pitch": 72, "velocity": 56, "note_on_time": 110.823, "note_off_time": 111.285}, {"pitch": 77, "velocity": 68, "note_on_time": 111.884, "note_off_time": 112.313}, {"pitch": 79, "velocity": 79, "note_on_time": 111.562, "note_off_time": 112.363}, {"pitch": 76, "velocity": 64, "note_on_time": 112.166, "note_off_time": 112.553}, {"pitch": 74, "velocity": 74, "note_on_time": 112.491, "note_off_time": 112.902}, {"pitch": 72, "velocity": 55, "note_on_time": 112.814, "note_off_time": 113.053}, {"pitch": 77, "velocity": 64, "note_on_time": 113.694, "note_off_time": 114.055}, {"pitch": 79, "velocity": 79, "note_on_time": 113.348, "note_off_time": 114.066}, {"pitch": 76, "velocity": 76, "note_on_time": 113.947, "note_off_time": 114.35}, {"pitch": 74, "velocity": 62, "note_on_time": 114.278, "note_off_time": 114.651}, {"pitch": 72, "velocity": 73, "note_on_time": 114.577, "note_off_time": 114.803}, {"pitch": 74, "velocity": 79, "note_on_time": 117.619, "note_off_time": 117.899}, {"pitch": 76, "velocity": 60, "note_on_time": 117.981, "note_off_time": 118.186}, {"pitch": 77, "velocity": 53, "note_on_time": 118.312, "note_off_time": 118.551}, {"pitch": 79, "velocity": 75, "note_on_time": 118.636, "note_off_time": 118.865}, {"pitch": 72, "velocity": 70, "note_on_time": 118.986, "note_off_time": 119.202}, {"pitch": 74, "velocity": 80, "note_on_time": 119.588, "note_off_time": 119.793}, {"pitch": 76, "velocity": 70, "note_on_time": 119.915, "note_off_time": 120.112}, {"pitch": 77, "velocity": 60, "note_on_time": 120.234, "note_off_time": 120.454}, {"pitch": 79, "velocity": 68, "note_on_time": 120.526, "note_off_time": 120.764}, {"pitch": 72, "velocity": 74, "note_on_time": 120.968, "note_off_time": 121.179}, {"pitch": 74, "velocity": 69, "note_on_time": 121.555, "note_off_time": 121.795}, {"pitch": 76, "velocity": 55, "note_on_time": 121.843, "note_off_time": 122.063}, {"pitch": 77, "velocity": 43, "note_on_time": 122.105, "note_off_time": 122.364}, {"pitch": 79, "velocity": 28, "note_on_time": 122.397, "note_off_time": 122.675}, {"pitch": 72, "velocity": 70, "note_on_time": 122.753, "note_off_time": 122.972}, {"pitch": 74, "velocity": 68, "note_on_time": 123.292, "note_off_time": 123.541}, {"pitch": 76, "velocity": 44, "note_on_time": 123.559, "note_off_time": 123.91}, {"pitch": 79, "velocity": 39, "note_on_time": 123.919, "note_off_time": 124.034}, {"pitch": 77, "velocity": 42, "note_on_time": 123.922, "note_off_time": 124.038}, {"pitch": 77, "velocity": 79, "note_on_time": 124.476, "note_off_time": 124.66}, {"pitch": 79, "velocity": 77, "note_on_time": 124.774, "note_off_time": 125.226}, {"pitch": 72, "velocity": 78, "note_on_time": 125.064, "note_off_time": 125.291}, {"pitch": 77, "velocity": 62, "note_on_time": 127.558, "note_off_time": 127.786}, {"pitch": 76, "velocity": 70, "note_on_time": 128.033, "note_off_time": 128.237}, {"pitch": 74, "velocity": 71, "note_on_time": 128.478, "note_off_time": 128.654}, {"pitch": 72, "velocity": 73, "note_on_time": 128.853, "note_off_time": 129.08}, {"pitch": 79, "velocity": 67, "note_on_time": 129.267, "note_off_time": 129.509}, {"pitch": 77, "velocity": 67, "note_on_time": 129.899, "note_off_time": 130.121}, {"pitch": 76, "velocity": 62, "note_on_time": 130.3, "note_off_time": 130.565}, {"pitch": 74, "velocity": 71, "note_on_time": 130.659, "note_off_time": 130.912}, {"pitch": 72, "velocity": 59, "note_on_time": 130.969, "note_off_time": 131.518}, {"pitch": 79, "velocity": 60, "note_on_time": 131.327, "note_off_time": 131.621}, {"pitch": 77, "velocity": 65, "note_on_time": 132.073, "note_off_time": 132.327}, {"pitch": 76, "velocity": 66, "note_on_time": 132.408, "note_off_time": 132.712}, {"pitch": 74, "velocity": 70, "note_on_time": 132.712, "note_off_time": 133.021}, {"pitch": 79, "velocity": 78, "note_on_time": 133.272, "note_off_time": 133.595}, {"pitch": 72, "velocity": 72, "note_on_time": 132.98, "note_off_time": 133.675}, {"pitch": 77, "velocity": 64, "note_on_time": 133.946, "note_off_time": 134.454}, {"pitch": 76, "velocity": 72, "note_on_time": 134.278, "note_off_time": 134.715}, {"pitch": 74, "velocity": 60, "note_on_time": 134.604, "note_off_time": 135.042}, {"pitch": 79, "velocity": 82, "note_on_time": 135.201, "note_off_time": 135.514}, {"pitch": 72, "velocity": 57, "note_on_time": 134.905, "note_off_time": 135.576}, {"pitch": 76, "velocity": 49, "note_on_time": 137.447, "note_off_time": 137.668}, {"pitch": 77, "velocity": 66, "note_on_time": 137.843, "note_off_time": 138.03}, {"pitch": 79, "velocity": 69, "note_on_time": 138.196, "note_off_time": 138.443}, {"pitch": 74, "velocity": 71, "note_on_time": 139.084, "note_off_time": 139.271}, {"pitch": 72, "velocity": 70, "note_on_time": 139.472, "note_off_time": 139.695}, {"pitch": 76, "velocity": 66, "note_on_time": 139.992, "note_off_time": 140.175}, {"pitch": 77, "velocity": 56, "note_on_time": 140.315, "note_off_time": 140.501}, {"pitch": 79, "velocity": 67, "note_on_time": 140.612, "note_off_time": 140.892}, {"pitch": 74, "velocity": 71, "note_on_time": 141.009, "note_off_time": 141.218}, {"pitch": 72, "velocity": 69, "note_on_time": 141.33, "note_off_time": 141.567}, {"pitch": 76, "velocity": 67, "note_on_time": 141.752, "note_off_time": 142.09}, {"pitch": 77, "velocity": 59, "note_on_time": 142.075, "note_off_time": 142.336}, {"pitch": 79, "velocity": 55, "note_on_time": 142.326, "note_off_time": 142.713}, {"pitch": 74, "velocity": 64, "note_on_time": 142.754, "note_off_time": 143.094}, {"pitch": 72, "velocity": 64, "note_on_time": 143.025, "note_off_time": 143.703}, {"pitch": 76, "velocity": 64, "note_on_time": 143.578, "note_off_time": 144.269}, {"pitch": 77, "velocity": 67, "note_on_time": 144.312, "note_off_time": 144.706}, {"pitch": 79, "velocity": 77, "note_on_time": 144.598, "note_off_time": 145.09}, {"pitch": 76, "velocity": 45, "note_on_time": 145.156, "note_off_time": 145.258}, {"pitch": 74, "velocity": 44, "note_on_time": 145.14, "note_off_time": 145.762}, {"pitch": 72, "velocity": 68, "note_on_time": 145.632, "note_off_time": 146.829}, {"pitch": 76, "velocity": 68, "note_on_time": 149.899, "note_off_time": 150.105}, {"pitch": 74, "velocity": 61, "note_on_time": 150.255, "note_off_time": 150.454}, {"pitch": 72, "velocity": 68, "note_on_time": 150.577, "note_off_time": 150.805}, {"pitch": 77, "velocity": 60, "note_on_time": 151.053, "note_off_time": 151.263}, {"pitch": 79, "velocity": 61, "note_on_time": 151.436, "note_off_time": 151.676}, {"pitch": 76, "velocity": 60, "note_on_time": 152.001, "note_off_time": 152.224}, {"pitch": 74, "velocity": 65, "note_on_time": 152.327, "note_off_time": 152.743}, {"pitch": 72, "velocity": 63, "note_on_time": 152.651, "note_off_time": 152.974}, {"pitch": 77, "velocity": 68, "note_on_time": 155.087, "note_off_time": 155.252}, {"pitch": 79, "velocity": 48, "note_on_time": 155.371, "note_off_time": 155.602}, {"pitch": 76, "velocity": 69, "note_on_time": 155.848, "note_off_time": 156.149}, {"pitch": 74, "velocity": 68, "note_on_time": 156.108, "note_off_time": 156.393}, {"pitch": 72, "velocity": 67, "note_on_time": 156.36, "note_off_time": 157.162}, {"pitch": 77, "velocity": 55, "note_on_time": 157.535, "note_off_time": 157.756}, {"pitch": 79, "velocity": 60, "note_on_time": 157.91, "note_off_time": 158.149}, {"pitch": 76, "velocity": 72, "note_on_time": 158.377, "note_off_time": 158.593}, {"pitch": 74, "velocity": 68, "note_on_time": 158.673, "note_off_time": 158.898}, {"pitch": 72, "velocity": 68, "note_on_time": 158.948, "note_off_time": 159.146}, {"pitch": 77, "velocity": 71, "note_on_time": 159.351, "note_off_time": 159.572}, {"pitch": 79, "velocity": 71, "note_on_time": 159.721, "note_off_time": 159.972}, {"pitch": 77, "velocity": 57, "note_on_time": 161.272, "note_off_time": 161.459}, {"pitch": 79, "velocity": 69, "note_on_time": 161.678, "note_off_time": 161.915}, {"pitch": 76, "velocity": 59, "note_on_time": 162.222, "note_off_time": 162.49}, {"pitch": 74, "velocity": 63, "note_on_time": 162.629, "note_off_time": 162.857}, {"pitch": 72, "velocity": 65, "note_on_time": 162.972, "note_off_time": 163.18}, {"pitch": 77, "velocity": 42, "note_on_time": 163.693, "note_off_time": 163.936}, {"pitch": 79, "velocity": 67, "note_on_time": 164.117, "note_off_time": 164.373}, {"pitch": 76, "velocity": 60, "note_on_time": 164.521, "note_off_time": 164.824}, {"pitch": 74, "velocity": 62, "note_on_time": 164.822, "note_off_time": 165.122}, {"pitch": 72, "velocity": 65, "note_on_time": 165.096, "note_off_time": 165.374}, {"pitch": 77, "velocity": 64, "note_on_time": 165.664, "note_off_time": 165.897}, {"pitch": 79, "velocity": 47, "note_on_time": 165.992, "note_off_time": 166.427}, {"pitch": 76, "velocity": 49, "note_on_time": 166.533, "note_off_time": 166.802}, {"pitch": 74, "velocity": 56, "note_on_time": 166.808, "note_off_time": 167.164}, {"pitch": 72, "velocity": 66, "note_on_time": 167.085, "note_off_time": 167.452}, {"pitch": 77, "velocity": 67, "note_on_time": 167.93, "note_off_time": 168.175}, {"pitch": 79, "velocity": 53, "note_on_time": 168.257, "note_off_time": 168.606}, {"pitch": 76, "velocity": 64, "note_on_time": 168.755, "note_off_time": 169.173}, {"pitch": 74, "velocity": 77, "note_on_time": 169.035, "note_off_time": 169.42}, {"pitch": 72, "velocity": 68, "note_on_time": 169.312, "note_off_time": 169.739}, {"pitch": 74, "velocity": 73, "note_on_time": 172.595, "note_off_time": 172.85}, {"pitch": 72, "velocity": 62, "note_on_time": 172.861, "note_off_time": 173.129}, {"pitch": 76, "velocity": 67, "note_on_time": 173.139, "note_off_time": 173.4}, {"pitch": 77, "velocity": 56, "note_on_time": 173.461, "note_off_time": 173.881}, {"pitch": 79, "velocity": 65, "note_on_time": 173.793, "note_off_time": 174.099}, {"pitch": 74, "velocity": 70, "note_on_time": 174.91, "note_off_time": 175.163}, {"pitch": 72, "velocity": 37, "note_on_time": 174.979, "note_off_time": 175.248}, {"pitch": 74, "velocity": 84, "note_on_time": 175.561, "note_off_time": 175.894}, {"pitch": 72, "velocity": 68, "note_on_time": 175.815, "note_off_time": 176.126}, {"pitch": 76, "velocity": 70, "note_on_time": 176.081, "note_off_time": 176.313}, {"pitch": 77, "velocity": 70, "note_on_time": 176.309, "note_off_time": 176.57}, {"pitch": 79, "velocity": 77, "note_on_time": 176.556, "note_off_time": 176.821}, {"pitch": 74, "velocity": 73, "note_on_time": 177.269, "note_off_time": 177.573}, {"pitch": 72, "velocity": 64, "note_on_time": 177.516, "note_off_time": 177.839}, {"pitch": 76, "velocity": 72, "note_on_time": 177.799, "note_off_time": 178.069}, {"pitch": 77, "velocity": 58, "note_on_time": 178.024, "note_off_time": 178.297}, {"pitch": 79, "velocity": 72, "note_on_time": 178.268, "note_off_time": 178.54}, {"pitch": 74, "velocity": 65, "note_on_time": 179.24, "note_off_time": 179.499}, {"pitch": 72, "velocity": 70, "note_on_time": 179.454, "note_off_time": 180.088}, {"pitch": 76, "velocity": 59, "note_on_time": 180.076, "note_off_time": 180.732}, {"pitch": 77, "velocity": 66, "note_on_time": 180.52, "note_off_time": 180.98}, {"pitch": 79, "velocity": 77, "note_on_time": 180.965, "note_off_time": 182.32}, {"pitch": 72, "velocity": 66, "note_on_time": 184.679, "note_off_time": 184.944}, {"pitch": 74, "velocity": 78, "note_on_time": 185.115, "note_off_time": 185.327}, {"pitch": 76, "velocity": 64, "note_on_time": 185.506, "note_off_time": 185.707}, {"pitch": 77, "velocity": 66, "note_on_time": 185.879, "note_off_time": 186.057}, {"pitch": 79, "velocity": 64, "note_on_time": 186.192, "note_off_time": 186.442}, {"pitch": 72, "velocity": 72, "note_on_time": 186.816, "note_off_time": 187.121}, {"pitch": 74, "velocity": 70, "note_on_time": 187.136, "note_off_time": 187.473}, {"pitch": 76, "velocity": 67, "note_on_time": 187.424, "note_off_time": 187.687}, {"pitch": 77, "velocity": 45, "note_on_time": 187.71, "note_off_time": 188.055}, {"pitch": 79, "velocity": 70, "note_on_time": 188.029, "note_off_time": 188.333}, {"pitch": 74, "velocity": 61, "note_on_time": 188.864, "note_off_time": 189.132}, {"pitch": 72, "velocity": 62, "note_on_time": 188.575, "note_off_time": 189.17}, {"pitch": 76, "velocity": 72, "note_on_time": 189.086, "note_off_time": 189.443}, {"pitch": 77, "velocity": 70, "note_on_time": 189.349, "note_off_time": 189.627}, {"pitch": 79, "velocity": 73, "note_on_time": 189.597, "note_off_time": 189.821}, {"pitch": 72, "velocity": 65, "note_on_time": 190.073, "note_off_time": 190.556}, {"pitch": 74, "velocity": 68, "note_on_time": 190.315, "note_off_time": 190.628}, {"pitch": 76, "velocity": 74, "note_on_time": 190.579, "note_off_time": 190.915}, {"pitch": 77, "velocity": 63, "note_on_time": 190.829, "note_off_time": 191.146}, {"pitch": 79, "velocity": 76, "note_on_time": 191.11, "note_off_time": 191.426}]</notes><guidance name="Guidance Mode">None</guidance><error name="Error value">99</error></trial><trial trial_no="3" timestamp="2023_06_12-15_22_15"><notes name="Played Notes">[{"pitch": 72, "velocity": 71, "note_on_time": 4.855, "note_off_time": 5.209}, {"pitch": 74, "velocity": 63, "note_on_time": 5.139, "note_off_time": 5.447}, {"pitch": 76, "velocity": 65, "note_on_time": 5.413, "note_off_time": 5.824}, {"pitch": 77, "velocity": 66, "note_on_time": 5.669, "note_off_time": 6.164}, {"pitch": 79, "velocity": 79, "note_on_time": 6.013, "note_off_time": 6.276}, {"pitch": 72, "velocity": 72, "note_on_time": 7.299, "note_off_time": 7.656}, {"pitch": 74, "velocity": 73, "note_on_time": 7.552, "note_off_time": 7.856}, {"pitch": 76, "velocity": 73, "note_on_time": 7.761, "note_off_time": 8.281}, {"pitch": 77, "velocity": 64, "note_on_time": 8.086, "note_off_time": 8.489}, {"pitch": 79, "velocity": 68, "note_on_time": 8.379, "note_off_time": 8.675}, {"pitch": 72, "velocity": 75, "note_on_time": 9.675, "note_off_time": 10.12}, {"pitch": 74, "velocity": 67, "note_on_time": 9.955, "note_off_time": 10.309}, {"pitch": 76, "velocity": 70, "note_on_time": 10.227, "note_off_time": 10.64}, {"pitch": 77, "velocity": 63, "note_on_time": 10.502, "note_off_time": 10.847}, {"pitch": 79, "velocity": 76, "note_on_time": 10.789, "note_off_time": 11.074}, {"pitch": 72, "velocity": 80, "note_on_time": 12.19, "note_off_time": 12.752}, {"pitch": 74, "velocity": 75, "note_on_time": 12.45, "note_off_time": 12.895}, {"pitch": 76, "velocity": 71, "note_on_time": 12.692, "note_off_time": 13.124}, {"pitch": 77, "velocity": 66, "note_on_time": 12.981, "note_off_time": 13.297}, {"pitch": 79, "velocity": 65, "note_on_time": 13.261, "note_off_time": 13.552}, {"pitch": 79, "velocity": 69, "note_on_time": 14.577, "note_off_time": 15.127}, {"pitch": 77, "velocity": 56, "note_on_time": 14.844, "note_off_time": 15.202}, {"pitch": 76, "velocity": 59, "note_on_time": 15.109, "note_off_time": 15.545}, {"pitch": 74, "velocity": 59, "note_on_time": 15.42, "note_off_time": 15.782}, {"pitch": 72, "velocity": 72, "note_on_time": 15.712, "note_off_time": 16.05}, {"pitch": 77, "velocity": 61, "note_on_time": 17.255, "note_off_time": 17.57}, {"pitch": 79, "velocity": 70, "note_on_time": 16.973, "note_off_time": 17.656}, {"pitch": 76, "velocity": 66, "note_on_time": 17.476, "note_off_time": 17.832}, {"pitch": 74, "velocity": 65, "note_on_time": 17.773, "note_off_time": 18.12}, {"pitch": 72, "velocity": 65, "note_on_time": 18.024, "note_off_time": 18.309}, {"pitch": 77, "velocity": 59, "note_on_time": 19.636, "note_off_time": 20.015}, {"pitch": 79, "velocity": 67, "note_on_time": 19.333, "note_off_time": 20.04}, {"pitch": 76, "velocity": 57, "note_on_time": 19.906, "note_off_time": 20.291}, {"pitch": 74, "velocity": 64, "note_on_time": 20.187, "note_off_time": 20.558}, {"pitch": 72, "velocity": 62, "note_on_time": 20.461, "note_off_time": 20.857}, {"pitch": 77, "velocity": 48, "note_on_time": 21.882, "note_off_time": 22.253}, {"pitch": 79, "velocity": 53, "note_on_time": 21.58, "note_off_time": 22.307}, {"pitch": 76, "velocity": 56, "note_on_time": 22.148, "note_off_time": 22.589}, {"pitch": 74, "velocity": 56, "note_on_time": 22.477, "note_off_time": 22.9}, {"pitch": 72, "velocity": 52, "note_on_time": 22.776, "note_off_time": 23.161}, {"pitch": 74, "velocity": 69, "note_on_time": 23.734, "note_off_time": 24.21}, {"pitch": 76, "velocity": 70, "note_on_time": 24.027, "note_off_time": 24.622}, {"pitch": 77, "velocity": 64, "note_on_time": 24.317, "note_off_time": 24.675}, {"pitch": 79, "velocity": 72, "note_on_time": 24.581, "note_off_time": 24.865}, {"pitch": 72, "velocity": 72, "note_on_time": 24.888, "note_off_time": 25.298}, {"pitch": 74, "velocity": 67, "note_on_time": 25.829, "note_off_time": 26.208}, {"pitch": 76, "velocity": 54, "note_on_time": 26.059, "note_off_time": 26.55}, {"pitch": 77, "velocity": 64, "note_on_time": 26.388, "note_off_time": 26.663}, {"pitch": 79, "velocity": 58, "note_on_time": 26.618, "note_off_time": 27.226}, {"pitch": 72, "velocity": 65, "note_on_time": 26.957, "note_off_time": 27.284}, {"pitch": 74, "velocity": 71, "note_on_time": 27.77, "note_off_time": 28.167}, {"pitch": 76, "velocity": 64, "note_on_time": 28.029, "note_off_time": 28.549}, {"pitch": 77, "velocity": 66, "note_on_time": 28.333, "note_off_time": 28.737}, {"pitch": 79, "velocity": 63, "note_on_time": 28.612, "note_off_time": 28.965}, {"pitch": 72, "velocity": 78, "note_on_time": 28.923, "note_off_time": 29.283}, {"pitch": 74, "velocity": 74, "note_on_time": 29.867, "note_off_time": 30.4}, {"pitch": 76, "velocity": 73, "note_on_time": 30.145, "note_off_time": 30.696}, {"pitch": 77, "velocity": 61, "note_on_time": 30.44, "note_off_time": 30.882}, {"pitch": 79, "velocity": 70, "note_on_time": 30.732, "note_off_time": 31.05}, {"pitch": 72, "velocity": 75, "note_on_time": 31.027, "note_off_time": 31.408}, {"pitch": 77, "velocity": 55, "note_on_time": 32.794, "note_off_time": 33.183}, {"pitch": 76, "velocity": 61, "note_on_time": 33.096, "note_off_time": 33.543}, {"pitch": 74, "velocity": 68, "note_on_time": 33.44, "note_off_time": 33.842}, {"pitch": 72, "velocity": 63, "note_on_time": 33.734, "note_off_time": 34.34}, {"pitch": 79, "velocity": 72, "note_on_time": 34.048, "note_off_time": 34.404}, {"pitch": 77, "velocity": 48, "note_on_time": 34.835, "note_off_time": 35.256}, {"pitch": 76, "velocity": 58, "note_on_time": 35.176, "note_off_time": 35.616}, {"pitch": 74, "velocity": 61, "note_on_time": 35.47, "note_off_time": 35.824}, {"pitch": 72, "velocity": 65, "note_on_time": 35.744, "note_off_time": 36.357}, {"pitch": 79, "velocity": 73, "note_on_time": 36.013, "note_off_time": 36.427}, {"pitch": 77, "velocity": 58, "note_on_time": 36.738, "note_off_time": 37.381}, {"pitch": 76, "velocity": 64, "note_on_time": 37.017, "note_off_time": 37.467}, {"pitch": 74, "velocity": 62, "note_on_time": 37.309, "note_off_time": 37.698}, {"pitch": 72, "velocity": 68, "note_on_time": 37.597, "note_off_time": 38.349}, {"pitch": 79, "velocity": 55, "note_on_time": 37.937, "note_off_time": 38.417}, {"pitch": 77, "velocity": 64, "note_on_time": 38.964, "note_off_time": 39.365}, {"pitch": 76, "velocity": 69, "note_on_time": 39.241, "note_off_time": 39.777}, {"pitch": 74, "velocity": 67, "note_on_time": 39.671, "note_off_time": 40.19}, {"pitch": 79, "velocity": 67, "note_on_time": 40.319, "note_off_time": 40.764}, {"pitch": 72, "velocity": 63, "note_on_time": 39.993, "note_off_time": 40.796}, {"pitch": 74, "velocity": 1, "note_on_time": 42.613, "note_off_time": 42.827}, {"pitch": 76, "velocity": 54, "note_on_time": 43.117, "note_off_time": 43.601}, {"pitch": 77, "velocity": 68, "note_on_time": 43.421, "note_off_time": 43.735}, {"pitch": 79, "velocity": 68, "note_on_time": 43.704, "note_off_time": 44.073}, {"pitch": 74, "velocity": 63, "note_on_time": 44.077, "note_off_time": 44.34}, {"pitch": 72, "velocity": 67, "note_on_time": 44.371, "note_off_time": 44.63}, {"pitch": 76, "velocity": 59, "note_on_time": 45.458, "note_off_time": 45.936}, {"pitch": 77, "velocity": 66, "note_on_time": 45.749, "note_off_time": 45.968}, {"pitch": 79, "velocity": 41, "note_on_time": 45.964, "note_off_time": 46.28}, {"pitch": 74, "velocity": 66, "note_on_time": 46.405, "note_off_time": 46.693}, {"pitch": 72, "velocity": 65, "note_on_time": 46.713, "note_off_time": 46.967}, {"pitch": 76, "velocity": 70, "note_on_time": 47.479, "note_off_time": 47.903}, {"pitch": 77, "velocity": 62, "note_on_time": 47.769, "note_off_time": 48.018}, {"pitch": 79, "velocity": 61, "note_on_time": 47.977, "note_off_time": 48.32}, {"pitch": 74, "velocity": 72, "note_on_time": 48.405, "note_off_time": 48.773}, {"pitch": 72, "velocity": 73, "note_on_time": 48.689, "note_off_time": 49.248}, {"pitch": 76, "velocity": 64, "note_on_time": 49.316, "note_off_time": 49.719}, {"pitch": 77, "velocity": 63, "note_on_time": 49.636, "note_off_time": 49.938}, {"pitch": 74, "velocity": 62, "note_on_time": 50.257, "note_off_time": 50.612}, {"pitch": 79, "velocity": 66, "note_on_time": 49.871, "note_off_time": 50.694}, {"pitch": 72, "velocity": 66, "note_on_time": 50.561, "note_off_time": 50.841}, {"pitch": 76, "velocity": 68, "note_on_time": 52.292, "note_off_time": 52.749}, {"pitch": 74, "velocity": 66, "note_on_time": 52.636, "note_off_time": 53.191}, {"pitch": 72, "velocity": 70, "note_on_time": 53.069, "note_off_time": 53.404}, {"pitch": 77, "velocity": 61, "note_on_time": 53.911, "note_off_time": 54.131}, {"pitch": 79, "velocity": 71, "note_on_time": 54.091, "note_off_time": 54.355}, {"pitch": 76, "velocity": 51, "note_on_time": 54.718, "note_off_time": 55.101}, {"pitch": 74, "velocity": 66, "note_on_time": 55.022, "note_off_time": 55.466}, {"pitch": 72, "velocity": 75, "note_on_time": 55.323, "note_off_time": 55.574}, {"pitch": 77, "velocity": 57, "note_on_time": 55.695, "note_off_time": 56.018}, {"pitch": 79, "velocity": 63, "note_on_time": 55.95, "note_off_time": 56.33}, {"pitch": 76, "velocity": 51, "note_on_time": 56.535, "note_off_time": 56.916}, {"pitch": 74, "velocity": 68, "note_on_time": 56.855, "note_off_time": 57.246}, {"pitch": 77, "velocity": 56, "note_on_time": 57.589, "note_off_time": 57.847}, {"pitch": 72, "velocity": 70, "note_on_time": 57.165, "note_off_time": 57.902}, {"pitch": 79, "velocity": 69, "note_on_time": 57.774, "note_off_time": 58.321}, {"pitch": 76, "velocity": 59, "note_on_time": 58.48, "note_off_time": 58.896}, {"pitch": 74, "velocity": 56, "note_on_time": 58.788, "note_off_time": 59.193}, {"pitch": 72, "velocity": 61, "note_on_time": 59.089, "note_off_time": 59.334}, {"pitch": 77, "velocity": 53, "note_on_time": 59.456, "note_off_time": 59.621}, {"pitch": 79, "velocity": 51, "note_on_time": 59.831, "note_off_time": 60.202}, {"pitch": 77, "velocity": 51, "note_on_time": 61.824, "note_off_time": 62.054}, {"pitch": 79, "velocity": 59, "note_on_time": 62.194, "note_off_time": 62.576}, {"pitch": 76, "velocity": 70, "note_on_time": 62.675, "note_off_time": 62.915}, {"pitch": 74, "velocity": 64, "note_on_time": 63.081, "note_off_time": 63.373}, {"pitch": 72, "velocity": 59, "note_on_time": 63.486, "note_off_time": 63.787}, {"pitch": 77, "velocity": 63, "note_on_time": 64.195, "note_off_time": 64.429}, {"pitch": 79, "velocity": 43, "note_on_time": 64.485, "note_off_time": 65.055}, {"pitch": 76, "velocity": 55, "note_on_time": 64.828, "note_off_time": 65.238}, {"pitch": 74, "velocity": 56, "note_on_time": 65.16, "note_off_time": 65.544}, {"pitch": 72, "velocity": 64, "note_on_time": 65.456, "note_off_time": 65.777}, {"pitch": 77, "velocity": 53, "note_on_time": 66.027, "note_off_time": 66.425}, {"pitch": 76, "velocity": 54, "note_on_time": 66.71, "note_off_time": 67.141}, {"pitch": 79, "velocity": 66, "note_on_time": 66.338, "note_off_time": 67.223}, {"pitch": 74, "velocity": 71, "note_on_time": 67.044, "note_off_time": 67.443}, {"pitch": 72, "velocity": 62, "note_on_time": 67.352, "note_off_time": 67.647}, {"pitch": 77, "velocity": 55, "note_on_time": 67.957, "note_off_time": 68.361}, {"pitch": 76, "velocity": 70, "note_on_time": 68.608, "note_off_time": 68.979}, {"pitch": 74, "velocity": 66, "note_on_time": 68.864, "note_off_time": 69.23}, {"pitch": 79, "velocity": 74, "note_on_time": 68.289, "note_off_time": 69.396}, {"pitch": 72, "velocity": 66, "note_on_time": 69.142, "note_off_time": 69.526}, {"pitch": 74, "velocity": 68, "note_on_time": 71.016, "note_off_time": 71.305}, {"pitch": 72, "velocity": 57, "note_on_time": 71.3, "note_off_time": 71.684}, {"pitch": 76, "velocity": 69, "note_on_time": 71.629, "note_off_time": 72.145}, {"pitch": 77, "velocity": 63, "note_on_time": 71.964, "note_off_time": 72.239}, {"pitch": 79, "velocity": 47, "note_on_time": 72.159, "note_off_time": 72.561}, {"pitch": 74, "velocity": 70, "note_on_time": 72.852, "note_off_time": 73.286}, {"pitch": 72, "velocity": 58, "note_on_time": 73.099, "note_off_time": 73.437}, {"pitch": 76, "velocity": 63, "note_on_time": 73.434, "note_off_time": 73.914}, {"pitch": 77, "velocity": 66, "note_on_time": 73.793, "note_off_time": 74.085}, {"pitch": 79, "velocity": 73, "note_on_time": 74.041, "note_off_time": 74.485}, {"pitch": 74, "velocity": 60, "note_on_time": 74.728, "note_off_time": 75.075}, {"pitch": 72, "velocity": 63, "note_on_time": 75.014, "note_off_time": 75.358}, {"pitch": 76, "velocity": 70, "note_on_time": 75.331, "note_off_time": 75.763}, {"pitch": 77, "velocity": 68, "note_on_time": 75.663, "note_off_time": 75.923}, {"pitch": 79, "velocity": 79, "note_on_time": 75.883, "note_off_time": 76.868}, {"pitch": 74, "velocity": 64, "note_on_time": 76.837, "note_off_time": 77.173}, {"pitch": 72, "velocity": 73, "note_on_time": 77.156, "note_off_time": 77.595}, {"pitch": 76, "velocity": 69, "note_on_time": 77.49, "note_off_time": 77.959}, {"pitch": 77, "velocity": 66, "note_on_time": 77.77, "note_off_time": 78.061}, {"pitch": 79, "velocity": 63, "note_on_time": 78.057, "note_off_time": 78.98}, {"pitch": 72, "velocity": 71, "note_on_time": 79.832, "note_off_time": 80.17}, {"pitch": 74, "velocity": 62, "note_on_time": 80.169, "note_off_time": 80.447}, {"pitch": 76, "velocity": 61, "note_on_time": 80.505, "note_off_time": 81.115}, {"pitch": 77, "velocity": 66, "note_on_time": 80.99, "note_off_time": 81.209}, {"pitch": 79, "velocity": 28, "note_on_time": 81.327, "note_off_time": 81.664}, {"pitch": 74, "velocity": 67, "note_on_time": 82.352, "note_off_time": 82.69}, {"pitch": 72, "velocity": 69, "note_on_time": 82.004, "note_off_time": 82.753}, {"pitch": 76, "velocity": 72, "note_on_time": 82.645, "note_off_time": 83.046}, {"pitch": 77, "velocity": 68, "note_on_time": 83.0, "note_off_time": 83.269}, {"pitch": 79, "velocity": 56, "note_on_time": 83.243, "note_off_time": 83.714}, {"pitch": 72, "velocity": 65, "note_on_time": 83.914, "note_off_time": 84.357}, {"pitch": 74, "velocity": 65, "note_on_time": 84.197, "note_off_time": 84.502}, {"pitch": 76, "velocity": 70, "note_on_time": 84.435, "note_off_time": 84.928}, {"pitch": 77, "velocity": 63, "note_on_time": 84.787, "note_off_time": 85.045}, {"pitch": 79, "velocity": 78, "note_on_time": 84.99, "note_off_time": 85.356}, {"pitch": 74, "velocity": 66, "note_on_time": 85.965, "note_off_time": 86.282}, {"pitch": 72, "velocity": 72, "note_on_time": 85.654, "note_off_time": 86.31}, {"pitch": 76, "velocity": 69, "note_on_time": 86.21, "note_off_time": 86.612}, {"pitch": 77, "velocity": 55, "note_on_time": 86.497, "note_off_time": 86.756}, {"pitch": 79, "velocity": 73, "note_on_time": 86.705, "note_off_time": 87.167}, {"pitch": 79, "velocity": 69, "note_on_time": 87.92, "note_off_time": 88.481}, {"pitch": 77, "velocity": 41, "note_on_time": 88.208, "note_off_time": 88.735}, {"pitch": 76, "velocity": 58, "note_on_time": 88.478, "note_off_time": 89.063}, {"pitch": 74, "velocity": 60, "note_on_time": 88.821, "note_off_time": 89.315}, {"pitch": 72, "velocity": 52, "note_on_time": 89.13, "note_off_time": 89.636}, {"pitch": 77, "velocity": 64, "note_on_time": 90.229, "note_off_time": 90.589}, {"pitch": 76, "velocity": 54, "note_on_time": 90.451, "note_off_time": 90.801}, {"pitch": 79, "velocity": 36, "note_on_time": 89.924, "note_off_time": 90.887}, {"pitch": 74, "velocity": 66, "note_on_time": 90.755, "note_off_time": 91.122}, {"pitch": 72, "velocity": 59, "note_on_time": 91.035, "note_off_time": 91.474}, {"pitch": 76, "velocity": 67, "note_on_time": 91.933, "note_off_time": 92.206}, {"pitch": 79, "velocity": 69, "note_on_time": 91.616, "note_off_time": 92.502}, {"pitch": 79, "velocity": 31, "note_on_time": 92.776, "note_off_time": 92.932}, {"pitch": 77, "velocity": 45, "note_on_time": 92.735, "note_off_time": 93.174}, {"pitch": 77, "velocity": 56, "note_on_time": 93.722, "note_off_time": 94.179}, {"pitch": 76, "velocity": 55, "note_on_time": 93.983, "note_off_time": 94.511}, {"pitch": 74, "velocity": 74, "note_on_time": 94.266, "note_off_time": 94.683}, {"pitch": 79, "velocity": 79, "note_on_time": 93.388, "note_off_time": 94.793}, {"pitch": 72, "velocity": 76, "note_on_time": 94.542, "note_off_time": 94.814}, {"pitch": 77, "velocity": 62, "note_on_time": 95.751, "note_off_time": 97.15}, {"pitch": 76, "velocity": 73, "note_on_time": 96.22, "note_off_time": 97.238}, {"pitch": 79, "velocity": 59, "note_on_time": 95.194, "note_off_time": 97.471}, {"pitch": 74, "velocity": 65, "note_on_time": 96.667, "note_off_time": 97.485}, {"pitch": 72, "velocity": 99, "note_on_time": 97.413, "note_off_time": 98.103}, {"pitch": 74, "velocity": 79, "note_on_time": 100.12, "note_off_time": 100.477}, {"pitch": 76, "velocity": 68, "note_on_time": 100.403, "note_off_time": 100.655}, {"pitch": 77, "velocity": 65, "note_on_time": 100.744, "note_off_time": 100.976}, {"pitch": 79, "velocity": 59, "note_on_time": 101.043, "note_off_time": 101.314}, {"pitch": 72, "velocity": 67, "note_on_time": 101.337, "note_off_time": 101.594}, {"pitch": 74, "velocity": 76, "note_on_time": 101.905, "note_off_time": 102.188}, {"pitch": 76, "velocity": 61, "note_on_time": 102.187, "note_off_time": 102.611}, {"pitch": 77, "velocity": 66, "note_on_time": 102.478, "note_off_time": 102.738}, {"pitch": 79, "velocity": 76, "note_on_time": 102.736, "note_off_time": 103.015}, {"pitch": 72, "velocity": 66, "note_on_time": 103.01, "note_off_time": 103.27}, {"pitch": 74, "velocity": 67, "note_on_time": 103.581, "note_off_time": 103.922}, {"pitch": 76, "velocity": 65, "note_on_time": 103.819, "note_off_time": 104.252}, {"pitch": 77, "velocity": 67, "note_on_time": 104.084, "note_off_time": 104.434}, {"pitch": 79, "velocity": 77, "note_on_time": 104.373, "note_off_time": 104.718}, {"pitch": 72, "velocity": 54, "note_on_time": 104.67, "note_off_time": 105.027}, {"pitch": 74, "velocity": 69, "note_on_time": 105.289, "note_off_time": 105.697}, {"pitch": 76, "velocity": 71, "note_on_time": 105.533, "note_off_time": 105.972}, {"pitch": 77, "velocity": 67, "note_on_time": 105.832, "note_off_time": 106.1}, {"pitch": 79, "velocity": 76, "note_on_time": 106.049, "note_off_time": 106.431}, {"pitch": 72, "velocity": 73, "note_on_time": 106.328, "note_off_time": 106.725}, {"pitch": 77, "velocity": 62, "note_on_time": 107.914, "note_off_time": 108.33}, {"pitch": 76, "velocity": 52, "note_on_time": 108.234, "note_off_time": 108.656}, {"pitch": 74, "velocity": 67, "note_on_time": 108.57, "note_off_time": 108.922}, {"pitch": 72, "velocity": 66, "note_on_time": 108.831, "note_off_time": 109.241}, {"pitch": 79, "velocity": 66, "note_on_time": 109.132, "note_off_time": 109.548}, {"pitch": 77, "velocity": 58, "note_on_time": 109.75, "note_off_time": 110.081}, {"pitch": 76, "velocity": 65, "note_on_time": 110.003, "note_off_time": 110.36}, {"pitch": 74, "velocity": 67, "note_on_time": 110.268, "note_off_time": 110.593}, {"pitch": 72, "velocity": 74, "note_on_time": 110.538, "note_off_time": 111.074}, {"pitch": 79, "velocity": 71, "note_on_time": 110.826, "note_off_time": 111.509}, {"pitch": 77, "velocity": 64, "note_on_time": 111.496, "note_off_time": 111.78}, {"pitch": 76, "velocity": 65, "note_on_time": 111.757, "note_off_time": 112.142}, {"pitch": 74, "velocity": 72, "note_on_time": 112.092, "note_off_time": 112.445}, {"pitch": 72, "velocity": 59, "note_on_time": 112.349, "note_off_time": 112.781}, {"pitch": 79, "velocity": 74, "note_on_time": 112.62, "note_off_time": 113.25}, {"pitch": 77, "velocity": 66, "note_on_time": 113.214, "note_off_time": 113.454}, {"pitch": 76, "velocity": 65, "note_on_time": 113.435, "note_off_time": 113.776}, {"pitch": 74, "velocity": 74, "note_on_time": 113.721, "note_off_time": 114.01}, {"pitch": 72, "velocity": 69, "note_on_time": 113.957, "note_off_time": 114.828}, {"pitch": 79, "velocity": 80, "note_on_time": 114.215, "note_off_time": 114.861}, {"pitch": 76, "velocity": 73, "note_on_time": 116.372, "note_off_time": 116.723}, {"pitch": 77, "velocity": 72, "note_on_time": 116.638, "note_off_time": 116.862}, {"pitch": 79, "velocity": 79, "note_on_time": 116.827, "note_off_time": 117.203}, {"pitch": 74, "velocity": 64, "note_on_time": 117.118, "note_off_time": 117.416}, {"pitch": 72, "velocity": 68, "note_on_time": 117.356, "note_off_time": 118.086}, {"pitch": 76, "velocity": 70, "note_on_time": 118.409, "note_off_time": 118.793}, {"pitch": 77, "velocity": 72, "note_on_time": 118.596, "note_off_time": 118.886}, {"pitch": 74, "velocity": 65, "note_on_time": 119.124, "note_off_time": 119.406}, {"pitch": 79, "velocity": 82, "note_on_time": 118.841, "note_off_time": 119.468}, {"pitch": 72, "velocity": 67, "note_on_time": 119.329, "note_off_time": 120.207}, {"pitch": 76, "velocity": 68, "note_on_time": 120.397, "note_off_time": 120.848}, {"pitch": 77, "velocity": 56, "note_on_time": 120.661, "note_off_time": 120.92}, {"pitch": 79, "velocity": 72, "note_on_time": 120.849, "note_off_time": 121.382}, {"pitch": 74, "velocity": 67, "note_on_time": 121.255, "note_off_time": 121.511}, {"pitch": 72, "velocity": 63, "note_on_time": 121.439, "note_off_time": 121.819}, {"pitch": 76, "velocity": 60, "note_on_time": 122.162, "note_off_time": 122.702}, {"pitch": 77, "velocity": 55, "note_on_time": 122.409, "note_off_time": 123.19}, {"pitch": 79, "velocity": 64, "note_on_time": 122.709, "note_off_time": 123.205}, {"pitch": 74, "velocity": 76, "note_on_time": 123.09, "note_off_time": 123.541}, {"pitch": 72, "velocity": 57, "note_on_time": 123.319, "note_off_time": 123.85}, {"pitch": 76, "velocity": 68, "note_on_time": 124.813, "note_off_time": 125.127}, {"pitch": 74, "velocity": 76, "note_on_time": 125.046, "note_off_time": 125.417}, {"pitch": 77, "velocity": 67, "note_on_time": 125.59, "note_off_time": 125.846}, {"pitch": 72, "velocity": 63, "note_on_time": 125.301, "note_off_time": 125.95}, {"pitch": 79, "velocity": 77, "note_on_time": 125.803, "note_off_time": 126.285}, {"pitch": 76, "velocity": 64, "note_on_time": 126.496, "note_off_time": 126.806}, {"pitch": 74, "velocity": 69, "note_on_time": 126.738, "note_off_time": 127.073}, {"pitch": 77, "velocity": 70, "note_on_time": 127.244, "note_off_time": 127.509}, {"pitch": 72, "velocity": 65, "note_on_time": 126.957, "note_off_time": 127.555}, {"pitch": 79, "velocity": 80, "note_on_time": 127.444, "note_off_time": 127.977}, {"pitch": 76, "velocity": 64, "note_on_time": 127.975, "note_off_time": 128.278}, {"pitch": 74, "velocity": 74, "note_on_time": 128.211, "note_off_time": 128.651}, {"pitch": 74, "velocity": 31, "note_on_time": 128.878, "note_off_time": 128.918}, {"pitch": 72, "velocity": 61, "note_on_time": 128.495, "note_off_time": 129.101}, {"pitch": 77, "velocity": 61, "note_on_time": 129.055, "note_off_time": 129.385}, {"pitch": 79, "velocity": 76, "note_on_time": 129.301, "note_off_time": 129.668}, {"pitch": 76, "velocity": 62, "note_on_time": 129.859, "note_off_time": 130.09}, {"pitch": 74, "velocity": 74, "note_on_time": 130.038, "note_off_time": 130.355}, {"pitch": 72, "velocity": 70, "note_on_time": 130.275, "note_off_time": 130.822}, {"pitch": 77, "velocity": 68, "note_on_time": 130.604, "note_off_time": 130.92}, {"pitch": 79, "velocity": 70, "note_on_time": 130.862, "note_off_time": 131.371}, {"pitch": 77, "velocity": 70, "note_on_time": 133.44, "note_off_time": 133.721}, {"pitch": 79, "velocity": 81, "note_on_time": 133.683, "note_off_time": 134.285}, {"pitch": 76, "velocity": 59, "note_on_time": 134.01, "note_off_time": 134.485}, {"pitch": 74, "velocity": 58, "note_on_time": 134.39, "note_off_time": 135.196}, {"pitch": 72, "velocity": 78, "note_on_time": 134.786, "note_off_time": 135.246}, {"pitch": 77, "velocity": 47, "note_on_time": 138.052, "note_off_time": 138.301}, {"pitch": 79, "velocity": 59, "note_on_time": 138.25, "note_off_time": 138.772}, {"pitch": 76, "velocity": 58, "note_on_time": 138.669, "note_off_time": 139.011}, {"pitch": 74, "velocity": 68, "note_on_time": 138.925, "note_off_time": 139.322}, {"pitch": 72, "velocity": 64, "note_on_time": 139.192, "note_off_time": 139.522}, {"pitch": 77, "velocity": 64, "note_on_time": 139.944, "note_off_time": 140.22}, {"pitch": 76, "velocity": 68, "note_on_time": 140.678, "note_off_time": 140.976}, {"pitch": 79, "velocity": 72, "note_on_time": 140.17, "note_off_time": 141.093}, {"pitch": 74, "velocity": 74, "note_on_time": 140.913, "note_off_time": 141.251}, {"pitch": 72, "velocity": 66, "note_on_time": 141.183, "note_off_time": 141.83}, {"pitch": 77, "velocity": 74, "note_on_time": 141.817, "note_off_time": 142.078}, {"pitch": 76, "velocity": 59, "note_on_time": 142.797, "note_off_time": 143.099}, {"pitch": 79, "velocity": 77, "note_on_time": 142.047, "note_off_time": 143.232}, {"pitch": 74, "velocity": 79, "note_on_time": 143.032, "note_off_time": 143.367}, {"pitch": 72, "velocity": 62, "note_on_time": 143.271, "note_off_time": 144.33}, {"pitch": 74, "velocity": 58, "note_on_time": 145.129, "note_off_time": 145.683}, {"pitch": 72, "velocity": 64, "note_on_time": 145.623, "note_off_time": 146.34}, {"pitch": 76, "velocity": 56, "note_on_time": 146.142, "note_off_time": 146.602}, {"pitch": 77, "velocity": 64, "note_on_time": 146.408, "note_off_time": 146.989}, {"pitch": 79, "velocity": 71, "note_on_time": 146.653, "note_off_time": 147.125}, {"pitch": 74, "velocity": 60, "note_on_time": 148.169, "note_off_time": 148.481}, {"pitch": 72, "velocity": 63, "note_on_time": 148.387, "note_off_time": 148.824}, {"pitch": 76, "velocity": 65, "note_on_time": 148.666, "note_off_time": 149.052}, {"pitch": 77, "velocity": 60, "note_on_time": 148.92, "note_off_time": 149.27}, {"pitch": 79, "velocity": 77, "note_on_time": 149.206, "note_off_time": 149.553}, {"pitch": 74, "velocity": 48, "note_on_time": 149.71, "note_off_time": 150.046}, {"pitch": 72, "velocity": 55, "note_on_time": 149.891, "note_off_time": 150.258}, {"pitch": 76, "velocity": 60, "note_on_time": 150.208, "note_off_time": 150.665}, {"pitch": 77, "velocity": 71, "note_on_time": 150.574, "note_off_time": 150.825}, {"pitch": 79, "velocity": 81, "note_on_time": 150.78, "note_off_time": 151.26}, {"pitch": 74, "velocity": 64, "note_on_time": 151.258, "note_off_time": 151.57}, {"pitch": 72, "velocity": 59, "note_on_time": 151.5, "note_off_time": 151.828}, {"pitch": 76, "velocity": 69, "note_on_time": 151.788, "note_off_time": 152.122}, {"pitch": 77, "velocity": 66, "note_on_time": 152.016, "note_off_time": 152.287}, {"pitch": 79, "velocity": 77, "note_on_time": 152.236, "note_off_time": 152.71}, {"pitch": 72, "velocity": 75, "note_on_time": 154.443, "note_off_time": 154.819}, {"pitch": 74, "velocity": 61, "note_on_time": 154.747, "note_off_time": 155.225}, {"pitch": 76, "velocity": 55, "note_on_time": 155.087, "note_off_time": 155.586}, {"pitch": 77, "velocity": 59, "note_on_time": 155.425, "note_off_time": 155.758}, {"pitch": 79, "velocity": 76, "note_on_time": 155.698, "note_off_time": 156.126}, {"pitch": 74, "velocity": 64, "note_on_time": 156.918, "note_off_time": 157.384}, {"pitch": 72, "velocity": 62, "note_on_time": 156.556, "note_off_time": 157.539}, {"pitch": 76, "velocity": 65, "note_on_time": 157.225, "note_off_time": 157.734}, {"pitch": 77, "velocity": 56, "note_on_time": 157.523, "note_off_time": 157.818}, {"pitch": 79, "velocity": 73, "note_on_time": 157.761, "note_off_time": 158.184}, {"pitch": 72, "velocity": 70, "note_on_time": 158.492, "note_off_time": 159.195}, {"pitch": 74, "velocity": 61, "note_on_time": 158.862, "note_off_time": 159.238}, {"pitch": 76, "velocity": 67, "note_on_time": 159.144, "note_off_time": 159.685}, {"pitch": 77, "velocity": 49, "note_on_time": 159.563, "note_off_time": 159.882}, {"pitch": 79, "velocity": 76, "note_on_time": 159.799, "note_off_time": 160.189}, {"pitch": 74, "velocity": 67, "note_on_time": 160.62, "note_off_time": 160.924}, {"pitch": 72, "velocity": 71, "note_on_time": 160.351, "note_off_time": 160.984}, {"pitch": 76, "velocity": 58, "note_on_time": 160.812, "note_off_time": 161.213}, {"pitch": 77, "velocity": 72, "note_on_time": 161.041, "note_off_time": 161.329}, {"pitch": 79, "velocity": 76, "note_on_time": 161.23, "note_off_time": 161.55}, {"pitch": 77, "velocity": 44, "note_on_time": 162.131, "note_off_time": 162.595}, {"pitch": 79, "velocity": 54, "note_on_time": 161.901, "note_off_time": 162.645}, {"pitch": 76, "velocity": 66, "note_on_time": 162.387, "note_off_time": 162.795}, {"pitch": 74, "velocity": 60, "note_on_time": 162.678, "note_off_time": 163.059}, {"pitch": 72, "velocity": 60, "note_on_time": 162.945, "note_off_time": 163.224}, {"pitch": 77, "velocity": 41, "note_on_time": 163.87, "note_off_time": 164.399}, {"pitch": 76, "velocity": 75, "note_on_time": 164.218, "note_off_time": 164.603}, {"pitch": 79, "velocity": 54, "note_on_time": 163.458, "note_off_time": 164.7}, {"pitch": 74, "velocity": 77, "note_on_time": 164.47, "note_off_time": 164.813}, {"pitch": 72, "velocity": 68, "note_on_time": 164.721, "note_off_time": 164.955}, {"pitch": 77, "velocity": 59, "note_on_time": 165.388, "note_off_time": 165.784}, {"pitch": 76, "velocity": 64, "note_on_time": 165.643, "note_off_time": 165.973}, {"pitch": 79, "velocity": 73, "note_on_time": 165.159, "note_off_time": 166.114}, {"pitch": 74, "velocity": 78, "note_on_time": 165.88, "note_off_time": 166.203}, {"pitch": 72, "velocity": 64, "note_on_time": 166.129, "note_off_time": 166.348}, {"pitch": 76, "velocity": 49, "note_on_time": 166.965, "note_off_time": 167.175}, {"pitch": 77, "velocity": 49, "note_on_time": 166.974, "note_off_time": 167.241}, {"pitch": 77, "velocity": 85, "note_on_time": 167.462, "note_off_time": 168.167}, {"pitch": 76, "velocity": 62, "note_on_time": 167.81, "note_off_time": 168.412}, {"pitch": 74, "velocity": 61, "note_on_time": 168.112, "note_off_time": 168.524}, {"pitch": 79, "velocity": 56, "note_on_time": 166.611, "note_off_time": 168.574}, {"pitch": 72, "velocity": 66, "note_on_time": 168.434, "note_off_time": 168.897}, {"pitch": 74, "velocity": 68, "note_on_time": 169.531, "note_off_time": 169.895}, {"pitch": 76, "velocity": 75, "note_on_time": 169.781, "note_off_time": 170.156}, {"pitch": 77, "velocity": 71, "note_on_time": 170.026, "note_off_time": 170.329}, {"pitch": 79, "velocity": 79, "note_on_time": 170.252, "note_off_time": 170.735}, {"pitch": 72, "velocity": 61, "note_on_time": 170.813, "note_off_time": 171.107}, {"pitch": 74, "velocity": 65, "note_on_time": 171.435, "note_off_time": 171.776}, {"pitch": 76, "velocity": 75, "note_on_time": 171.659, "note_off_time": 172.013}, {"pitch": 77, "velocity": 73, "note_on_time": 171.861, "note_off_time": 172.144}, {"pitch": 79, "velocity": 78, "note_on_time": 172.046, "note_off_time": 172.37}, {"pitch": 72, "velocity": 62, "note_on_time": 172.287, "note_off_time": 172.687}, {"pitch": 74, "velocity": 61, "note_on_time": 172.917, "note_off_time": 173.566}, {"pitch": 76, "velocity": 79, "note_on_time": 173.389, "note_off_time": 173.854}, {"pitch": 77, "velocity": 62, "note_on_time": 173.64, "note_off_time": 173.954}, {"pitch": 79, "velocity": 69, "note_on_time": 173.85, "note_off_time": 174.331}, {"pitch": 72, "velocity": 46, "note_on_time": 174.165, "note_off_time": 174.593}, {"pitch": 74, "velocity": 73, "note_on_time": 174.873, "note_off_time": 175.217}, {"pitch": 76, "velocity": 79, "note_on_time": 175.083, "note_off_time": 175.475}, {"pitch": 77, "velocity": 67, "note_on_time": 175.301, "note_off_time": 175.594}, {"pitch": 79, "velocity": 74, "note_on_time": 175.489, "note_off_time": 176.26}, {"pitch": 72, "velocity": 70, "note_on_time": 175.79, "note_off_time": 176.37}, {"pitch": 77, "velocity": 70, "note_on_time": 177.31, "note_off_time": 177.891}, {"pitch": 76, "velocity": 62, "note_on_time": 177.56, "note_off_time": 177.917}, {"pitch": 74, "velocity": 72, "note_on_time": 177.795, "note_off_time": 178.159}, {"pitch": 72, "velocity": 65, "note_on_time": 178.038, "note_off_time": 178.664}, {"pitch": 79, "velocity": 65, "note_on_time": 178.32, "note_off_time": 178.786}, {"pitch": 77, "velocity": 61, "note_on_time": 179.044, "note_off_time": 179.411}, {"pitch": 76, "velocity": 74, "note_on_time": 179.325, "note_off_time": 179.68}, {"pitch": 74, "velocity": 67, "note_on_time": 179.575, "note_off_time": 179.881}, {"pitch": 72, "velocity": 67, "note_on_time": 179.783, "note_off_time": 180.193}, {"pitch": 79, "velocity": 66, "note_on_time": 180.031, "note_off_time": 180.733}, {"pitch": 77, "velocity": 11, "note_on_time": 180.743, "note_off_time": 181.041}, {"pitch": 76, "velocity": 72, "note_on_time": 181.541, "note_off_time": 181.849}, {"pitch": 77, "velocity": 83, "note_on_time": 181.309, "note_off_time": 181.897}, {"pitch": 74, "velocity": 66, "note_on_time": 181.77, "note_off_time": 182.054}, {"pitch": 72, "velocity": 76, "note_on_time": 182.008, "note_off_time": 182.334}, {"pitch": 79, "velocity": 66, "note_on_time": 182.226, "note_off_time": 182.637}, {"pitch": 77, "velocity": 79, "note_on_time": 182.877, "note_off_time": 183.262}, {"pitch": 76, "velocity": 63, "note_on_time": 183.125, "note_off_time": 183.464}, {"pitch": 72, "velocity": 42, "note_on_time": 183.454, "note_off_time": 183.524}, {"pitch": 74, "velocity": 54, "note_on_time": 183.41, "note_off_time": 183.876}, {"pitch": 74, "velocity": 75, "note_on_time": 184.021, "note_off_time": 184.377}, {"pitch": 72, "velocity": 60, "note_on_time": 184.264, "note_off_time": 184.545}, {"pitch": 79, "velocity": 68, "note_on_time": 184.476, "note_off_time": 184.776}, {"pitch": 76, "velocity": 61, "note_on_time": 186.128, "note_off_time": 186.572}, {"pitch": 77, "velocity": 66, "note_on_time": 186.384, "note_off_time": 186.65}, {"pitch": 79, "velocity": 79, "note_on_time": 186.597, "note_off_time": 187.427}, {"pitch": 74, "velocity": 59, "note_on_time": 187.342, "note_off_time": 187.636}, {"pitch": 72, "velocity": 61, "note_on_time": 187.554, "note_off_time": 187.895}, {"pitch": 76, "velocity": 58, "note_on_time": 188.197, "note_off_time": 188.557}, {"pitch": 77, "velocity": 72, "note_on_time": 188.431, "note_off_time": 188.73}, {"pitch": 79, "velocity": 78, "note_on_time": 188.664, "note_off_time": 189.18}, {"pitch": 74, "velocity": 71, "note_on_time": 189.05, "note_off_time": 189.311}, {"pitch": 72, "velocity": 65, "note_on_time": 189.235, "note_off_time": 189.51}, {"pitch": 76, "velocity": 62, "note_on_time": 189.911, "note_off_time": 190.282}, {"pitch": 77, "velocity": 74, "note_on_time": 190.141, "note_off_time": 190.469}, {"pitch": 79, "velocity": 80, "note_on_time": 190.396, "note_off_time": 191.07}, {"pitch": 74, "velocity": 68, "note_on_time": 190.875, "note_off_time": 191.183}, {"pitch": 71, "velocity": 54, "note_on_time": 191.142, "note_off_time": 191.55}, {"pitch": 72, "velocity": 49, "note_on_time": 191.137, "note_off_time": 191.708}, {"pitch": 76, "velocity": 71, "note_on_time": 192.283, "note_off_time": 192.987}, {"pitch": 77, "velocity": 67, "note_on_time": 192.484, "note_off_time": 193.372}, {"pitch": 79, "velocity": 69, "note_on_time": 192.873, "note_off_time": 193.408}, {"pitch": 76, "velocity": 16, "note_on_time": 193.16, "note_off_time": 193.416}, {"pitch": 74, "velocity": 66, "note_on_time": 193.302, "note_off_time": 193.736}, {"pitch": 72, "velocity": 65, "note_on_time": 193.66, "note_off_time": 194.258}]</notes><guidance name="Guidance Mode">None</guidance><error name="Error value">99</error></trial></trials></MIDI>