<MIDI midiNo="2023_06_11-10_28_48"><target_notes><notes name="Note List">[{"pitch": 60, "velocity": 40, "note_on_time": 0.009, "note_off_time": 1.012}, {"pitch": 64, "velocity": 40, "note_on_time": 0.009, "note_off_time": 1.014}, {"pitch": 67, "velocity": 40, "note_on_time": 0.01, "note_off_time": 1.014}, {"pitch": 48, "velocity": 40, "note_on_time": 0.01, "note_off_time": 1.014}, {"pitch": 52, "velocity": 40, "note_on_time": 1.014, "note_off_time": 2.017}, {"pitch": 55, "velocity": 40, "note_on_time": 1.014, "note_off_time": 2.017}, {"pitch": 74, "velocity": 40, "note_on_time": 2.017, "note_off_time": 3.019}, {"pitch": 48, "velocity": 40, "note_on_time": 2.017, "note_off_time": 3.019}, {"pitch": 52, "velocity": 40, "note_on_time": 3.019, "note_off_time": 4.026}, {"pitch": 55, "velocity": 40, "note_on_time": 3.019, "note_off_time": 4.026}, {"pitch": 48, "velocity": 40, "note_on_time": 4.026, "note_off_time": 5.04}, {"pitch": 52, "velocity": 40, "note_on_time": 5.04, "note_off_time": 6.049}, {"pitch": 55, "velocity": 40, "note_on_time": 5.04, "note_off_time": 6.049}, {"pitch": 48, "velocity": 40, "note_on_time": 6.049, "note_off_time": 7.055}, {"pitch": 52, "velocity": 40, "note_on_time": 7.055, "note_off_time": 8.069}, {"pitch": 55, "velocity": 40, "note_on_time": 7.055, "note_off_time": 8.069}, {"pitch": 60, "velocity": 40, "note_on_time": 8.068, "note_off_time": 9.076}, {"pitch": 64, "velocity": 40, "note_on_time": 8.069, "note_off_time": 9.078}, {"pitch": 67, "velocity": 40, "note_on_time": 8.069, "note_off_time": 9.078}, {"pitch": 48, "velocity": 40, "note_on_time": 8.069, "note_off_time": 9.078}, {"pitch": 52, "velocity": 40, "note_on_time": 9.078, "note_off_time": 10.084}, {"pitch": 55, "velocity": 40, "note_on_time": 9.078, "note_off_time": 10.085}, {"pitch": 72, "velocity": 40, "note_on_time": 10.084, "note_off_time": 11.087}, {"pitch": 48, "velocity": 40, "note_on_time": 10.085, "note_off_time": 11.087}, {"pitch": 52, "velocity": 40, "note_on_time": 11.087, "note_off_time": 12.099}, {"pitch": 55, "velocity": 40, "note_on_time": 11.087, "note_off_time": 12.099}, {"pitch": 48, "velocity": 40, "note_on_time": 12.099, "note_off_time": 13.11}, {"pitch": 52, "velocity": 40, "note_on_time": 13.11, "note_off_time": 14.121}, {"pitch": 55, "velocity": 40, "note_on_time": 13.11, "note_off_time": 14.121}, {"pitch": 48, "velocity": 40, "note_on_time": 14.121, "note_off_time": 15.133}, {"pitch": 52, "velocity": 40, "note_on_time": 15.133, "note_off_time": 16.144}, {"pitch": 55, "velocity": 40, "note_on_time": 15.133, "note_off_time": 16.144}, {"pitch": 60, "velocity": 40, "note_on_time": 16.142, "note_off_time": 17.155}, {"pitch": 64, "velocity": 40, "note_on_time": 16.144, "note_off_time": 17.156}, {"pitch": 67, "velocity": 40, "note_on_time": 16.144, "note_off_time": 17.157}, {"pitch": 48, "velocity": 40, "note_on_time": 16.144, "note_off_time": 17.157}, {"pitch": 52, "velocity": 40, "note_on_time": 17.157, "note_off_time": 18.165}, {"pitch": 55, "velocity": 40, "note_on_time": 17.157, "note_off_time": 18.165}, {"pitch": 77, "velocity": 40, "note_on_time": 18.165, "note_off_time": 19.172}, {"pitch": 48, "velocity": 40, "note_on_time": 18.165, "note_off_time": 19.172}, {"pitch": 52, "velocity": 40, "note_on_time": 19.172, "note_off_time": 20.174}, {"pitch": 55, "velocity": 40, "note_on_time": 19.172, "note_off_time": 20.174}, {"pitch": 48, "velocity": 40, "note_on_time": 20.174, "note_off_time": 21.189}, {"pitch": 52, "velocity": 40, "note_on_time": 21.189, "note_off_time": 22.203}, {"pitch": 55, "velocity": 40, "note_on_time": 21.189, "note_off_time": 22.203}, {"pitch": 48, "velocity": 40, "note_on_time": 22.203, "note_off_time": 23.215}, {"pitch": 52, "velocity": 40, "note_on_time": 23.215, "note_off_time": 24.223}, {"pitch": 55, "velocity": 40, "note_on_time": 23.215, "note_off_time": 24.223}, {"pitch": 60, "velocity": 40, "note_on_time": 24.221, "note_off_time": 25.232}, {"pitch": 64, "velocity": 40, "note_on_time": 24.222, "note_off_time": 25.232}, {"pitch": 67, "velocity": 40, "note_on_time": 24.222, "note_off_time": 25.233}, {"pitch": 48, "velocity": 40, "note_on_time": 24.223, "note_off_time": 25.233}, {"pitch": 52, "velocity": 40, "note_on_time": 25.233, "note_off_time": 26.243}, {"pitch": 55, "velocity": 40, "note_on_time": 25.234, "note_off_time": 26.244}, {"pitch": 79, "velocity": 40, "note_on_time": 26.243, "note_off_time": 27.254}, {"pitch": 48, "velocity": 40, "note_on_time": 26.244, "note_off_time": 27.255}, {"pitch": 52, "velocity": 40, "note_on_time": 27.255, "note_off_time": 28.262}, {"pitch": 55, "velocity": 40, "note_on_time": 27.255, "note_off_time": 28.262}, {"pitch": 48, "velocity": 40, "note_on_time": 28.262, "note_off_time": 29.272}, {"pitch": 52, "velocity": 40, "note_on_time": 29.272, "note_off_time": 30.281}, {"pitch": 55, "velocity": 40, "note_on_time": 29.272, "note_off_time": 30.281}, {"pitch": 48, "velocity": 40, "note_on_time": 30.281, "note_off_time": 31.284}, {"pitch": 52, "velocity": 40, "note_on_time": 31.284, "note_off_time": 32.287}, {"pitch": 55, "velocity": 40, "note_on_time": 31.284, "note_off_time": 32.287}, {"pitch": 60, "velocity": 40, "note_on_time": 32.287, "note_off_time": 33.295}, {"pitch": 64, "velocity": 40, "note_on_time": 32.287, "note_off_time": 33.296}, {"pitch": 67, "velocity": 40, "note_on_time": 32.287, "note_off_time": 33.297}, {"pitch": 48, "velocity": 40, "note_on_time": 32.287, "note_off_time": 33.297}, {"pitch": 52, "velocity": 40, "note_on_time": 33.297, "note_off_time": 34.306}, {"pitch": 55, "velocity": 40, "note_on_time": 33.297, "note_off_time": 34.307}, {"pitch": 77, "velocity": 40, "note_on_time": 34.306, "note_off_time": 35.309}, {"pitch": 48, "velocity": 40, "note_on_time": 34.307, "note_off_time": 35.309}, {"pitch": 52, "velocity": 40, "note_on_time": 35.309, "note_off_time": 36.322}, {"pitch": 55, "velocity": 40, "note_on_time": 35.31, "note_off_time": 36.322}, {"pitch": 48, "velocity": 40, "note_on_time": 36.322, "note_off_time": 37.332}, {"pitch": 52, "velocity": 40, "note_on_time": 37.332, "note_off_time": 38.343}, {"pitch": 55, "velocity": 40, "note_on_time": 37.332, "note_off_time": 38.343}, {"pitch": 48, "velocity": 40, "note_on_time": 38.343, "note_off_time": 39.358}, {"pitch": 52, "velocity": 40, "note_on_time": 39.358, "note_off_time": 40.37}, {"pitch": 55, "velocity": 40, "note_on_time": 39.358, "note_off_time": 40.371}, {"pitch": 60, "velocity": 40, "note_on_time": 40.368, "note_off_time": 41.386}, {"pitch": 64, "velocity": 40, "note_on_time": 40.37, "note_off_time": 41.387}, {"pitch": 67, "velocity": 40, "note_on_time": 40.37, "note_off_time": 41.388}, {"pitch": 79, "velocity": 40, "note_on_time": 42.399, "note_off_time": 43.415}, {"pitch": 60, "velocity": 40, "note_on_time": 48.418, "note_off_time": 49.426}, {"pitch": 64, "velocity": 40, "note_on_time": 48.418, "note_off_time": 49.427}, {"pitch": 67, "velocity": 40, "note_on_time": 48.419, "note_off_time": 49.428}, {"pitch": 76, "velocity": 40, "note_on_time": 50.443, "note_off_time": 51.456}, {"pitch": 60, "velocity": 40, "note_on_time": 56.462, "note_off_time": 57.471}, {"pitch": 64, "velocity": 40, "note_on_time": 56.463, "note_off_time": 57.472}, {"pitch": 67, "velocity": 40, "note_on_time": 56.464, "note_off_time": 57.473}, {"pitch": 72, "velocity": 40, "note_on_time": 58.489, "note_off_time": 59.493}, {"pitch": 60, "velocity": 40, "note_on_time": 64.499, "note_off_time": 65.505}, {"pitch": 64, "velocity": 40, "note_on_time": 64.499, "note_off_time": 65.506}, {"pitch": 67, "velocity": 40, "note_on_time": 64.499, "note_off_time": 65.507}, {"pitch": 74, "velocity": 40, "note_on_time": 66.52, "note_off_time": 67.533}, {"pitch": 60, "velocity": 40, "note_on_time": 72.538, "note_off_time": 73.546}, {"pitch": 64, "velocity": 40, "note_on_time": 72.539, "note_off_time": 73.547}, {"pitch": 67, "velocity": 40, "note_on_time": 72.539, "note_off_time": 73.548}, {"pitch": 79, "velocity": 40, "note_on_time": 74.56, "note_off_time": 75.575}, {"pitch": 60, "velocity": 40, "note_on_time": 80.584, "note_off_time": 81.597}, {"pitch": 64, "velocity": 40, "note_on_time": 80.585, "note_off_time": 81.598}, {"pitch": 67, "velocity": 40, "note_on_time": 80.586, "note_off_time": 81.599}, {"pitch": 74, "velocity": 40, "note_on_time": 82.607, "note_off_time": 83.616}, {"pitch": 60, "velocity": 40, "note_on_time": 88.62, "note_off_time": 89.632}, {"pitch": 64, "velocity": 40, "note_on_time": 88.621, "note_off_time": 89.633}, {"pitch": 67, "velocity": 40, "note_on_time": 88.621, "note_off_time": 89.633}, {"pitch": 77, "velocity": 40, "note_on_time": 90.643, "note_off_time": 91.657}, {"pitch": 60, "velocity": 40, "note_on_time": 96.662, "note_off_time": 97.679}, {"pitch": 64, "velocity": 40, "note_on_time": 96.663, "note_off_time": 97.679}, {"pitch": 67, "velocity": 40, "note_on_time": 96.663, "note_off_time": 97.679}, {"pitch": 72, "velocity": 40, "note_on_time": 98.693, "note_off_time": 99.698}, {"pitch": 60, "velocity": 40, "note_on_time": 104.703, "note_off_time": 105.705}, {"pitch": 64, "velocity": 40, "note_on_time": 104.703, "note_off_time": 105.706}, {"pitch": 67, "velocity": 40, "note_on_time": 104.704, "note_off_time": 105.706}, {"pitch": 76, "velocity": 40, "note_on_time": 106.714, "note_off_time": 107.72}, {"pitch": 60, "velocity": 40, "note_on_time": 112.726, "note_off_time": 113.777}, {"pitch": 64, "velocity": 40, "note_on_time": 112.726, "note_off_time": 113.777}, {"pitch": 67, "velocity": 40, "note_on_time": 112.727, "note_off_time": 113.778}, {"pitch": 79, "velocity": 40, "note_on_time": 114.784, "note_off_time": 115.793}, {"pitch": 60, "velocity": 40, "note_on_time": 120.804, "note_off_time": 121.815}, {"pitch": 64, "velocity": 40, "note_on_time": 120.805, "note_off_time": 121.815}, {"pitch": 67, "velocity": 40, "note_on_time": 120.806, "note_off_time": 121.816}, {"pitch": 76, "velocity": 40, "note_on_time": 122.823, "note_off_time": 123.831}, {"pitch": 60, "velocity": 40, "note_on_time": 128.836, "note_off_time": 129.846}, {"pitch": 64, "velocity": 40, "note_on_time": 128.837, "note_off_time": 129.847}, {"pitch": 67, "velocity": 40, "note_on_time": 128.839, "note_off_time": 129.848}, {"pitch": 72, "velocity": 40, "note_on_time": 130.86, "note_off_time": 131.867}, {"pitch": 60, "velocity": 40, "note_on_time": 136.882, "note_off_time": 137.886}, {"pitch": 64, "velocity": 40, "note_on_time": 136.883, "note_off_time": 137.887}, {"pitch": 67, "velocity": 40, "note_on_time": 136.883, "note_off_time": 137.888}, {"pitch": 77, "velocity": 40, "note_on_time": 138.896, "note_off_time": 139.904}, {"pitch": 60, "velocity": 40, "note_on_time": 144.922, "note_off_time": 145.924}, {"pitch": 64, "velocity": 40, "note_on_time": 144.923, "note_off_time": 145.925}, {"pitch": 67, "velocity": 40, "note_on_time": 144.923, "note_off_time": 145.926}, {"pitch": 76, "velocity": 40, "note_on_time": 146.941, "note_off_time": 147.948}, {"pitch": 60, "velocity": 40, "note_on_time": 152.96, "note_off_time": 153.962}, {"pitch": 64, "velocity": 40, "note_on_time": 152.96, "note_off_time": 153.962}, {"pitch": 67, "velocity": 40, "note_on_time": 152.96, "note_off_time": 153.963}, {"pitch": 74, "velocity": 40, "note_on_time": 154.973, "note_off_time": 155.977}, {"pitch": 60, "velocity": 40, "note_on_time": 160.987, "note_off_time": 161.998}, {"pitch": 64, "velocity": 40, "note_on_time": 160.988, "note_off_time": 161.998}, {"pitch": 67, "velocity": 40, "note_on_time": 160.988, "note_off_time": 161.998}, {"pitch": 74, "velocity": 40, "note_on_time": 163.012, "note_off_time": 164.015}]</notes><options name="Option List">((4, 4), [0.5, 0.25], 3, 8, &lt;NoteRangePerHand.TWO_NOTES: 3&gt;, &lt;NoteRangePerHand.ONE_NOTE: 2&gt;, False, True, True, 100)</options></target_notes><trials><trial trial_no="1" timestamp="2023_06_11-10_26_04"><notes name="Played Notes">[{"pitch": 72, "velocity": 39, "note_on_time": 1.549, "note_off_time": 2.26}, {"pitch": 74, "velocity": 60, "note_on_time": 4.868, "note_off_time": 5.515}, {"pitch": 76, "velocity": 34, "note_on_time": 7.166, "note_off_time": 7.571}, {"pitch": 77, "velocity": 39, "note_on_time": 8.903, "note_off_time": 9.395}, {"pitch": 79, "velocity": 56, "note_on_time": 11.289, "note_off_time": 11.645}, {"pitch": 79, "velocity": 74, "note_on_time": 20.087, "note_off_time": 20.606}, {"pitch": 72, "velocity": 79, "note_on_time": 27.275, "note_off_time": 27.796}, {"pitch": 76, "velocity": 52, "note_on_time": 28.871, "note_off_time": 29.385}, {"pitch": 77, "velocity": 46, "note_on_time": 33.711, "note_off_time": 34.345}, {"pitch": 79, "velocity": 81, "note_on_time": 35.001, "note_off_time": 35.435}, {"pitch": 76, "velocity": 60, "note_on_time": 38.892, "note_off_time": 39.417}, {"pitch": 76, "velocity": 73, "note_on_time": 44.539, "note_off_time": 45.392}, {"pitch": 79, "velocity": 61, "note_on_time": 47.766, "note_off_time": 48.565}, {"pitch": 76, "velocity": 71, "note_on_time": 52.471, "note_off_time": 53.126}, {"pitch": 72, "velocity": 61, "note_on_time": 53.595, "note_off_time": 54.254}, {"pitch": 77, "velocity": 45, "note_on_time": 62.566, "note_off_time": 63.034}, {"pitch": 79, "velocity": 64, "note_on_time": 63.64, "note_off_time": 63.993}, {"pitch": 76, "velocity": 60, "note_on_time": 69.277, "note_off_time": 69.809}, {"pitch": 77, "velocity": 55, "note_on_time": 72.138, "note_off_time": 72.861}, {"pitch": 74, "velocity": 72, "note_on_time": 79.709, "note_off_time": 80.507}, {"pitch": 77, "velocity": 82, "note_on_time": 82.27, "note_off_time": 82.973}, {"pitch": 79, "velocity": 70, "note_on_time": 85.585, "note_off_time": 86.075}, {"pitch": 76, "velocity": 58, "note_on_time": 86.854, "note_off_time": 87.498}, {"pitch": 76, "velocity": 64, "note_on_time": 90.321, "note_off_time": 90.983}, {"pitch": 76, "velocity": 62, "note_on_time": 98.414, "note_off_time": 99.267}, {"pitch": 76, "velocity": 70, "note_on_time": 106.603, "note_off_time": 107.646}, {"pitch": 76, "velocity": 64, "note_on_time": 114.173, "note_off_time": 115.157}, {"pitch": 76, "velocity": 69, "note_on_time": 122.634, "note_off_time": 123.593}, {"pitch": 76, "velocity": 76, "note_on_time": 130.772, "note_off_time": 131.667}, {"pitch": 76, "velocity": 43, "note_on_time": 138.283, "note_off_time": 139.19}, {"pitch": 76, "velocity": 60, "note_on_time": 146.315, "note_off_time": 147.093}, {"pitch": 76, "velocity": 75, "note_on_time": 154.747, "note_off_time": 155.621}]</notes><guidance name="Guidance Mode">None</guidance><error name="Error value">99</error></trial><trial trial_no="2" timestamp="2023_06_11-10_29_32"><notes name="Played Notes">[{"pitch": 79, "velocity": 53, "note_on_time": 2.804, "note_off_time": 3.209}, {"pitch": 72, "velocity": 29, "note_on_time": 3.58, "note_off_time": 4.056}, {"pitch": 79, "velocity": 39, "note_on_time": 4.215, "note_off_time": 4.54}, {"pitch": 72, "velocity": 55, "note_on_time": 4.846, "note_off_time": 5.187}, {"pitch": 79, "velocity": 43, "note_on_time": 5.421, "note_off_time": 5.707}, {"pitch": 72, "velocity": 39, "note_on_time": 5.975, "note_off_time": 6.291}, {"pitch": 79, "velocity": 33, "note_on_time": 6.61, "note_off_time": 6.888}, {"pitch": 72, "velocity": 23, "note_on_time": 7.259, "note_off_time": 7.6}, {"pitch": 79, "velocity": 26, "note_on_time": 7.879, "note_off_time": 8.183}, {"pitch": 72, "velocity": 49, "note_on_time": 8.493, "note_off_time": 8.838}, {"pitch": 79, "velocity": 30, "note_on_time": 9.072, "note_off_time": 9.352}, {"pitch": 72, "velocity": 39, "note_on_time": 9.765, "note_off_time": 10.067}, {"pitch": 79, "velocity": 23, "note_on_time": 10.339, "note_off_time": 10.653}, {"pitch": 72, "velocity": 34, "note_on_time": 10.968, "note_off_time": 11.257}, {"pitch": 79, "velocity": 5, "note_on_time": 11.545, "note_off_time": 11.865}, {"pitch": 72, "velocity": 31, "note_on_time": 12.192, "note_off_time": 12.486}, {"pitch": 79, "velocity": 10, "note_on_time": 12.77, "note_off_time": 13.07}, {"pitch": 72, "velocity": 31, "note_on_time": 13.397, "note_off_time": 13.746}, {"pitch": 79, "velocity": 4, "note_on_time": 13.971, "note_off_time": 14.315}, {"pitch": 72, "velocity": 30, "note_on_time": 14.636, "note_off_time": 15.001}, {"pitch": 79, "velocity": 1, "note_on_time": 15.225, "note_off_time": 15.57}, {"pitch": 72, "velocity": 36, "note_on_time": 15.847, "note_off_time": 16.156}, {"pitch": 79, "velocity": 21, "note_on_time": 16.365, "note_off_time": 16.742}, {"pitch": 72, "velocity": 41, "note_on_time": 17.093, "note_off_time": 17.373}, {"pitch": 79, "velocity": 27, "note_on_time": 17.665, "note_off_time": 18.015}, {"pitch": 72, "velocity": 26, "note_on_time": 18.282, "note_off_time": 18.596}, {"pitch": 79, "velocity": 12, "note_on_time": 18.841, "note_off_time": 19.213}, {"pitch": 72, "velocity": 13, "note_on_time": 19.561, "note_off_time": 19.845}, {"pitch": 79, "velocity": 1, "note_on_time": 20.09, "note_off_time": 20.44}, {"pitch": 72, "velocity": 36, "note_on_time": 20.743, "note_off_time": 21.102}, {"pitch": 79, "velocity": 9, "note_on_time": 21.213, "note_off_time": 21.61}, {"pitch": 72, "velocity": 40, "note_on_time": 21.937, "note_off_time": 22.258}, {"pitch": 79, "velocity": 10, "note_on_time": 22.476, "note_off_time": 22.865}, {"pitch": 72, "velocity": 29, "note_on_time": 23.167, "note_off_time": 23.503}, {"pitch": 79, "velocity": 17, "note_on_time": 23.708, "note_off_time": 24.052}, {"pitch": 72, "velocity": 35, "note_on_time": 24.336, "note_off_time": 24.738}, {"pitch": 79, "velocity": 13, "note_on_time": 24.945, "note_off_time": 25.383}, {"pitch": 72, "velocity": 32, "note_on_time": 25.598, "note_off_time": 25.954}, {"pitch": 79, "velocity": 13, "note_on_time": 26.105, "note_off_time": 26.563}, {"pitch": 72, "velocity": 35, "note_on_time": 26.786, "note_off_time": 27.163}, {"pitch": 79, "velocity": 13, "note_on_time": 27.333, "note_off_time": 27.754}, {"pitch": 72, "velocity": 29, "note_on_time": 27.962, "note_off_time": 28.339}, {"pitch": 79, "velocity": 1, "note_on_time": 28.544, "note_off_time": 29.014}, {"pitch": 72, "velocity": 23, "note_on_time": 29.221, "note_off_time": 29.671}, {"pitch": 79, "velocity": 1, "note_on_time": 29.831, "note_off_time": 30.235}, {"pitch": 72, "velocity": 17, "note_on_time": 30.516, "note_off_time": 30.901}, {"pitch": 79, "velocity": 1, "note_on_time": 31.062, "note_off_time": 31.527}, {"pitch": 72, "velocity": 32, "note_on_time": 31.775, "note_off_time": 32.142}, {"pitch": 79, "velocity": 17, "note_on_time": 32.259, "note_off_time": 32.65}, {"pitch": 72, "velocity": 18, "note_on_time": 32.886, "note_off_time": 33.287}, {"pitch": 79, "velocity": 18, "note_on_time": 33.487, "note_off_time": 33.911}, {"pitch": 72, "velocity": 36, "note_on_time": 34.139, "note_off_time": 34.543}, {"pitch": 79, "velocity": 1, "note_on_time": 34.741, "note_off_time": 35.124}, {"pitch": 72, "velocity": 33, "note_on_time": 35.379, "note_off_time": 35.749}, {"pitch": 79, "velocity": 14, "note_on_time": 35.953, "note_off_time": 36.319}, {"pitch": 72, "velocity": 31, "note_on_time": 36.577, "note_off_time": 37.001}, {"pitch": 79, "velocity": 17, "note_on_time": 37.158, "note_off_time": 37.535}, {"pitch": 72, "velocity": 25, "note_on_time": 37.747, "note_off_time": 38.191}, {"pitch": 79, "velocity": 16, "note_on_time": 38.327, "note_off_time": 38.583}, {"pitch": 77, "velocity": 47, "note_on_time": 40.193, "note_off_time": 40.597}, {"pitch": 74, "velocity": 30, "note_on_time": 40.749, "note_off_time": 41.142}, {"pitch": 77, "velocity": 7, "note_on_time": 41.378, "note_off_time": 41.852}, {"pitch": 74, "velocity": 12, "note_on_time": 41.867, "note_off_time": 42.299}, {"pitch": 79, "velocity": 27, "note_on_time": 42.609, "note_off_time": 43.03}, {"pitch": 72, "velocity": 30, "note_on_time": 43.113, "note_off_time": 43.615}, {"pitch": 79, "velocity": 5, "note_on_time": 43.783, "note_off_time": 44.249}, {"pitch": 72, "velocity": 33, "note_on_time": 44.302, "note_off_time": 44.85}, {"pitch": 79, "velocity": 12, "note_on_time": 44.976, "note_off_time": 45.559}, {"pitch": 72, "velocity": 38, "note_on_time": 45.608, "note_off_time": 46.094}, {"pitch": 79, "velocity": 23, "note_on_time": 46.219, "note_off_time": 46.791}, {"pitch": 72, "velocity": 43, "note_on_time": 46.82, "note_off_time": 47.358}, {"pitch": 79, "velocity": 16, "note_on_time": 47.424, "note_off_time": 47.953}, {"pitch": 72, "velocity": 27, "note_on_time": 48.046, "note_off_time": 48.548}, {"pitch": 79, "velocity": 23, "note_on_time": 48.647, "note_off_time": 49.201}, {"pitch": 72, "velocity": 23, "note_on_time": 49.23, "note_off_time": 49.78}, {"pitch": 79, "velocity": 3, "note_on_time": 49.889, "note_off_time": 50.442}, {"pitch": 72, "velocity": 17, "note_on_time": 50.518, "note_off_time": 51.011}, {"pitch": 79, "velocity": 21, "note_on_time": 51.19, "note_off_time": 51.595}, {"pitch": 72, "velocity": 24, "note_on_time": 51.777, "note_off_time": 52.195}, {"pitch": 79, "velocity": 17, "note_on_time": 52.299, "note_off_time": 52.828}, {"pitch": 72, "velocity": 38, "note_on_time": 52.926, "note_off_time": 53.38}, {"pitch": 79, "velocity": 14, "note_on_time": 53.585, "note_off_time": 54.059}, {"pitch": 72, "velocity": 26, "note_on_time": 54.195, "note_off_time": 54.612}, {"pitch": 79, "velocity": 17, "note_on_time": 54.777, "note_off_time": 55.281}, {"pitch": 72, "velocity": 21, "note_on_time": 55.462, "note_off_time": 55.878}, {"pitch": 79, "velocity": 27, "note_on_time": 56.033, "note_off_time": 56.466}, {"pitch": 72, "velocity": 28, "note_on_time": 56.647, "note_off_time": 57.029}, {"pitch": 79, "velocity": 7, "note_on_time": 57.229, "note_off_time": 57.648}, {"pitch": 72, "velocity": 29, "note_on_time": 57.878, "note_off_time": 58.238}, {"pitch": 79, "velocity": 14, "note_on_time": 58.449, "note_off_time": 58.859}, {"pitch": 72, "velocity": 33, "note_on_time": 59.021, "note_off_time": 59.354}, {"pitch": 79, "velocity": 2, "note_on_time": 59.597, "note_off_time": 60.03}, {"pitch": 72, "velocity": 25, "note_on_time": 60.217, "note_off_time": 60.573}, {"pitch": 79, "velocity": 13, "note_on_time": 60.793, "note_off_time": 61.244}, {"pitch": 72, "velocity": 30, "note_on_time": 61.373, "note_off_time": 61.745}, {"pitch": 79, "velocity": 1, "note_on_time": 62.036, "note_off_time": 62.494}, {"pitch": 72, "velocity": 22, "note_on_time": 62.655, "note_off_time": 63.039}, {"pitch": 79, "velocity": 16, "note_on_time": 63.233, "note_off_time": 63.724}, {"pitch": 72, "velocity": 27, "note_on_time": 63.881, "note_off_time": 64.262}, {"pitch": 79, "velocity": 4, "note_on_time": 64.474, "note_off_time": 64.898}, {"pitch": 72, "velocity": 22, "note_on_time": 65.061, "note_off_time": 65.423}, {"pitch": 79, "velocity": 16, "note_on_time": 65.672, "note_off_time": 66.16}, {"pitch": 72, "velocity": 21, "note_on_time": 66.31, "note_off_time": 66.727}, {"pitch": 79, "velocity": 16, "note_on_time": 66.951, "note_off_time": 67.448}, {"pitch": 72, "velocity": 19, "note_on_time": 67.539, "note_off_time": 67.898}, {"pitch": 79, "velocity": 23, "note_on_time": 68.176, "note_off_time": 68.578}, {"pitch": 72, "velocity": 20, "note_on_time": 68.725, "note_off_time": 69.129}, {"pitch": 79, "velocity": 13, "note_on_time": 69.456, "note_off_time": 69.86}, {"pitch": 72, "velocity": 20, "note_on_time": 70.016, "note_off_time": 70.345}, {"pitch": 79, "velocity": 9, "note_on_time": 70.549, "note_off_time": 71.011}, {"pitch": 72, "velocity": 19, "note_on_time": 71.172, "note_off_time": 71.57}, {"pitch": 79, "velocity": 5, "note_on_time": 71.732, "note_off_time": 72.238}, {"pitch": 72, "velocity": 15, "note_on_time": 72.409, "note_off_time": 72.803}, {"pitch": 79, "velocity": 20, "note_on_time": 72.995, "note_off_time": 73.487}, {"pitch": 72, "velocity": 23, "note_on_time": 73.63, "note_off_time": 73.984}, {"pitch": 79, "velocity": 26, "note_on_time": 74.237, "note_off_time": 74.678}, {"pitch": 72, "velocity": 27, "note_on_time": 74.856, "note_off_time": 75.219}, {"pitch": 79, "velocity": 3, "note_on_time": 75.528, "note_off_time": 75.932}, {"pitch": 72, "velocity": 24, "note_on_time": 76.073, "note_off_time": 76.465}, {"pitch": 79, "velocity": 9, "note_on_time": 76.697, "note_off_time": 77.102}, {"pitch": 72, "velocity": 17, "note_on_time": 77.251, "note_off_time": 77.686}, {"pitch": 79, "velocity": 12, "note_on_time": 77.893, "note_off_time": 78.398}, {"pitch": 72, "velocity": 16, "note_on_time": 78.484, "note_off_time": 78.925}, {"pitch": 79, "velocity": 1, "note_on_time": 79.125, "note_off_time": 79.613}, {"pitch": 72, "velocity": 24, "note_on_time": 79.708, "note_off_time": 80.157}, {"pitch": 79, "velocity": 6, "note_on_time": 80.353, "note_off_time": 80.779}, {"pitch": 72, "velocity": 32, "note_on_time": 81.04, "note_off_time": 81.364}, {"pitch": 79, "velocity": 24, "note_on_time": 81.577, "note_off_time": 81.966}, {"pitch": 72, "velocity": 21, "note_on_time": 82.156, "note_off_time": 82.502}, {"pitch": 79, "velocity": 6, "note_on_time": 82.703, "note_off_time": 83.152}, {"pitch": 72, "velocity": 24, "note_on_time": 83.311, "note_off_time": 83.728}, {"pitch": 79, "velocity": 18, "note_on_time": 83.927, "note_off_time": 84.425}, {"pitch": 72, "velocity": 19, "note_on_time": 84.596, "note_off_time": 84.963}, {"pitch": 79, "velocity": 12, "note_on_time": 85.174, "note_off_time": 85.539}, {"pitch": 72, "velocity": 25, "note_on_time": 85.798, "note_off_time": 86.142}, {"pitch": 79, "velocity": 6, "note_on_time": 86.335, "note_off_time": 86.786}, {"pitch": 72, "velocity": 17, "note_on_time": 86.937, "note_off_time": 87.361}, {"pitch": 79, "velocity": 5, "note_on_time": 87.571, "note_off_time": 87.998}, {"pitch": 72, "velocity": 27, "note_on_time": 88.237, "note_off_time": 88.631}, {"pitch": 79, "velocity": 7, "note_on_time": 88.783, "note_off_time": 89.212}, {"pitch": 72, "velocity": 28, "note_on_time": 89.329, "note_off_time": 89.827}, {"pitch": 79, "velocity": 6, "note_on_time": 90.012, "note_off_time": 90.515}, {"pitch": 72, "velocity": 22, "note_on_time": 91.137, "note_off_time": 91.532}, {"pitch": 79, "velocity": 19, "note_on_time": 91.852, "note_off_time": 92.286}, {"pitch": 77, "velocity": 34, "note_on_time": 93.758, "note_off_time": 94.185}, {"pitch": 72, "velocity": 23, "note_on_time": 94.456, "note_off_time": 94.731}, {"pitch": 77, "velocity": 7, "note_on_time": 94.914, "note_off_time": 95.299}, {"pitch": 72, "velocity": 29, "note_on_time": 95.435, "note_off_time": 95.898}, {"pitch": 77, "velocity": 18, "note_on_time": 96.112, "note_off_time": 96.557}, {"pitch": 72, "velocity": 23, "note_on_time": 96.663, "note_off_time": 97.121}, {"pitch": 77, "velocity": 16, "note_on_time": 97.312, "note_off_time": 97.749}, {"pitch": 72, "velocity": 23, "note_on_time": 97.833, "note_off_time": 98.309}, {"pitch": 77, "velocity": 20, "note_on_time": 98.516, "note_off_time": 99.042}, {"pitch": 72, "velocity": 31, "note_on_time": 99.102, "note_off_time": 99.554}, {"pitch": 77, "velocity": 16, "note_on_time": 99.757, "note_off_time": 100.224}, {"pitch": 72, "velocity": 29, "note_on_time": 100.347, "note_off_time": 100.744}, {"pitch": 77, "velocity": 3, "note_on_time": 100.947, "note_off_time": 101.447}, {"pitch": 72, "velocity": 28, "note_on_time": 101.577, "note_off_time": 102.029}, {"pitch": 77, "velocity": 22, "note_on_time": 102.178, "note_off_time": 102.68}, {"pitch": 72, "velocity": 30, "note_on_time": 102.767, "note_off_time": 103.23}, {"pitch": 77, "velocity": 19, "note_on_time": 103.358, "note_off_time": 103.864}, {"pitch": 72, "velocity": 35, "note_on_time": 104.033, "note_off_time": 104.428}, {"pitch": 77, "velocity": 18, "note_on_time": 104.593, "note_off_time": 105.113}, {"pitch": 72, "velocity": 20, "note_on_time": 105.208, "note_off_time": 105.644}, {"pitch": 77, "velocity": 3, "note_on_time": 105.78, "note_off_time": 106.324}, {"pitch": 72, "velocity": 20, "note_on_time": 106.403, "note_off_time": 106.865}, {"pitch": 77, "velocity": 20, "note_on_time": 107.044, "note_off_time": 107.576}, {"pitch": 72, "velocity": 21, "note_on_time": 107.7, "note_off_time": 108.142}, {"pitch": 77, "velocity": 4, "note_on_time": 108.34, "note_off_time": 108.755}, {"pitch": 72, "velocity": 27, "note_on_time": 108.907, "note_off_time": 109.375}, {"pitch": 77, "velocity": 1, "note_on_time": 109.569, "note_off_time": 109.989}, {"pitch": 72, "velocity": 22, "note_on_time": 110.141, "note_off_time": 110.549}, {"pitch": 77, "velocity": 7, "note_on_time": 110.813, "note_off_time": 111.223}, {"pitch": 72, "velocity": 18, "note_on_time": 111.303, "note_off_time": 111.73}, {"pitch": 76, "velocity": 49, "note_on_time": 111.967, "note_off_time": 112.69}, {"pitch": 72, "velocity": 28, "note_on_time": 112.497, "note_off_time": 112.929}, {"pitch": 76, "velocity": 1, "note_on_time": 113.03, "note_off_time": 113.509}, {"pitch": 72, "velocity": 34, "note_on_time": 113.77, "note_off_time": 114.114}, {"pitch": 76, "velocity": 7, "note_on_time": 114.35, "note_off_time": 114.782}, {"pitch": 72, "velocity": 20, "note_on_time": 114.917, "note_off_time": 115.443}, {"pitch": 76, "velocity": 19, "note_on_time": 115.6, "note_off_time": 116.089}, {"pitch": 72, "velocity": 26, "note_on_time": 116.183, "note_off_time": 116.635}, {"pitch": 76, "velocity": 23, "note_on_time": 116.771, "note_off_time": 117.269}, {"pitch": 72, "velocity": 23, "note_on_time": 117.386, "note_off_time": 117.878}, {"pitch": 76, "velocity": 13, "note_on_time": 118.017, "note_off_time": 118.497}, {"pitch": 72, "velocity": 28, "note_on_time": 118.574, "note_off_time": 119.08}, {"pitch": 76, "velocity": 18, "note_on_time": 119.404, "note_off_time": 119.699}, {"pitch": 72, "velocity": 29, "note_on_time": 119.879, "note_off_time": 120.273}, {"pitch": 76, "velocity": 17, "note_on_time": 120.429, "note_off_time": 120.834}, {"pitch": 72, "velocity": 28, "note_on_time": 120.947, "note_off_time": 121.432}, {"pitch": 76, "velocity": 15, "note_on_time": 121.58, "note_off_time": 122.165}, {"pitch": 72, "velocity": 22, "note_on_time": 122.218, "note_off_time": 122.708}, {"pitch": 76, "velocity": 18, "note_on_time": 122.807, "note_off_time": 123.349}, {"pitch": 72, "velocity": 29, "note_on_time": 123.372, "note_off_time": 123.938}, {"pitch": 76, "velocity": 1, "note_on_time": 124.078, "note_off_time": 124.541}, {"pitch": 72, "velocity": 17, "note_on_time": 124.662, "note_off_time": 125.126}, {"pitch": 76, "velocity": 20, "note_on_time": 125.23, "note_off_time": 125.803}, {"pitch": 72, "velocity": 25, "note_on_time": 125.833, "note_off_time": 126.313}, {"pitch": 76, "velocity": 16, "note_on_time": 126.437, "note_off_time": 127.03}, {"pitch": 72, "velocity": 22, "note_on_time": 127.068, "note_off_time": 127.586}, {"pitch": 76, "velocity": 23, "note_on_time": 127.733, "note_off_time": 128.257}, {"pitch": 72, "velocity": 25, "note_on_time": 128.329, "note_off_time": 128.82}, {"pitch": 76, "velocity": 13, "note_on_time": 128.947, "note_off_time": 129.475}, {"pitch": 72, "velocity": 10, "note_on_time": 129.49, "note_off_time": 129.977}, {"pitch": 76, "velocity": 19, "note_on_time": 130.139, "note_off_time": 130.628}, {"pitch": 72, "velocity": 13, "note_on_time": 130.681, "note_off_time": 131.091}, {"pitch": 76, "velocity": 16, "note_on_time": 131.252, "note_off_time": 131.888}, {"pitch": 72, "velocity": 28, "note_on_time": 131.925, "note_off_time": 132.426}, {"pitch": 76, "velocity": 3, "note_on_time": 132.54, "note_off_time": 133.015}, {"pitch": 72, "velocity": 38, "note_on_time": 133.223, "note_off_time": 133.608}, {"pitch": 76, "velocity": 20, "note_on_time": 133.76, "note_off_time": 134.222}, {"pitch": 72, "velocity": 36, "note_on_time": 134.427, "note_off_time": 134.809}, {"pitch": 76, "velocity": 17, "note_on_time": 134.989, "note_off_time": 135.452}, {"pitch": 72, "velocity": 28, "note_on_time": 135.579, "note_off_time": 136.079}, {"pitch": 76, "velocity": 23, "note_on_time": 136.251, "note_off_time": 136.794}, {"pitch": 72, "velocity": 27, "note_on_time": 136.858, "note_off_time": 137.389}, {"pitch": 76, "velocity": 5, "note_on_time": 137.571, "note_off_time": 137.952}, {"pitch": 72, "velocity": 25, "note_on_time": 138.036, "note_off_time": 138.455}, {"pitch": 74, "velocity": 30, "note_on_time": 138.682, "note_off_time": 139.186}, {"pitch": 72, "velocity": 25, "note_on_time": 139.271, "note_off_time": 139.722}, {"pitch": 74, "velocity": 3, "note_on_time": 139.859, "note_off_time": 140.351}, {"pitch": 72, "velocity": 14, "note_on_time": 140.41, "note_off_time": 140.97}, {"pitch": 74, "velocity": 22, "note_on_time": 141.095, "note_off_time": 141.625}, {"pitch": 72, "velocity": 18, "note_on_time": 141.666, "note_off_time": 142.199}, {"pitch": 74, "velocity": 12, "note_on_time": 142.296, "note_off_time": 142.85}, {"pitch": 72, "velocity": 14, "note_on_time": 142.885, "note_off_time": 143.4}, {"pitch": 74, "velocity": 20, "note_on_time": 143.547, "note_off_time": 144.074}, {"pitch": 72, "velocity": 20, "note_on_time": 144.124, "note_off_time": 144.617}, {"pitch": 74, "velocity": 5, "note_on_time": 144.712, "note_off_time": 145.238}, {"pitch": 72, "velocity": 14, "note_on_time": 145.331, "note_off_time": 145.791}, {"pitch": 74, "velocity": 18, "note_on_time": 145.908, "note_off_time": 146.428}, {"pitch": 72, "velocity": 22, "note_on_time": 146.466, "note_off_time": 147.0}, {"pitch": 74, "velocity": 19, "note_on_time": 147.121, "note_off_time": 147.637}, {"pitch": 72, "velocity": 23, "note_on_time": 147.728, "note_off_time": 148.195}, {"pitch": 74, "velocity": 9, "note_on_time": 148.346, "note_off_time": 148.806}, {"pitch": 72, "velocity": 18, "note_on_time": 148.945, "note_off_time": 149.367}, {"pitch": 74, "velocity": 24, "note_on_time": 149.597, "note_off_time": 149.955}, {"pitch": 72, "velocity": 25, "note_on_time": 150.224, "note_off_time": 150.537}, {"pitch": 74, "velocity": 28, "note_on_time": 150.764, "note_off_time": 151.132}, {"pitch": 72, "velocity": 20, "note_on_time": 151.378, "note_off_time": 151.711}, {"pitch": 74, "velocity": 10, "note_on_time": 151.97, "note_off_time": 152.371}, {"pitch": 72, "velocity": 9, "note_on_time": 152.614, "note_off_time": 152.926}, {"pitch": 74, "velocity": 11, "note_on_time": 153.174, "note_off_time": 153.573}, {"pitch": 72, "velocity": 26, "note_on_time": 153.784, "note_off_time": 154.193}, {"pitch": 74, "velocity": 12, "note_on_time": 154.389, "note_off_time": 154.827}, {"pitch": 72, "velocity": 22, "note_on_time": 155.01, "note_off_time": 155.396}, {"pitch": 74, "velocity": 17, "note_on_time": 155.612, "note_off_time": 155.917}, {"pitch": 72, "velocity": 23, "note_on_time": 156.226, "note_off_time": 156.589}, {"pitch": 72, "velocity": 27, "note_on_time": 156.973, "note_off_time": 157.283}, {"pitch": 77, "velocity": 34, "note_on_time": 157.675, "note_off_time": 157.877}, {"pitch": 72, "velocity": 25, "note_on_time": 158.228, "note_off_time": 158.505}, {"pitch": 77, "velocity": 15, "note_on_time": 158.746, "note_off_time": 159.041}, {"pitch": 72, "velocity": 21, "note_on_time": 159.198, "note_off_time": 159.589}, {"pitch": 77, "velocity": 18, "note_on_time": 159.77, "note_off_time": 160.204}, {"pitch": 72, "velocity": 30, "note_on_time": 160.423, "note_off_time": 160.853}, {"pitch": 77, "velocity": 16, "note_on_time": 161.048, "note_off_time": 161.447}, {"pitch": 72, "velocity": 19, "note_on_time": 161.618, "note_off_time": 162.122}, {"pitch": 77, "velocity": 23, "note_on_time": 162.164, "note_off_time": 162.422}, {"pitch": 76, "velocity": 21, "note_on_time": 162.775, "note_off_time": 163.207}, {"pitch": 72, "velocity": 28, "note_on_time": 163.488, "note_off_time": 163.837}, {"pitch": 76, "velocity": 1, "note_on_time": 164.006, "note_off_time": 164.532}, {"pitch": 72, "velocity": 25, "note_on_time": 164.7, "note_off_time": 165.136}, {"pitch": 76, "velocity": 8, "note_on_time": 165.257, "note_off_time": 165.819}, {"pitch": 72, "velocity": 31, "note_on_time": 165.901, "note_off_time": 166.386}, {"pitch": 76, "velocity": 19, "note_on_time": 166.539, "note_off_time": 167.081}, {"pitch": 72, "velocity": 18, "note_on_time": 167.203, "note_off_time": 167.733}, {"pitch": 76, "velocity": 21, "note_on_time": 167.761, "note_off_time": 168.257}, {"pitch": 72, "velocity": 35, "note_on_time": 168.372, "note_off_time": 168.909}, {"pitch": 76, "velocity": 22, "note_on_time": 169.009, "note_off_time": 169.433}, {"pitch": 72, "velocity": 18, "note_on_time": 169.581, "note_off_time": 170.072}, {"pitch": 76, "velocity": 23, "note_on_time": 170.222, "note_off_time": 170.585}, {"pitch": 72, "velocity": 25, "note_on_time": 170.746, "note_off_time": 171.176}, {"pitch": 76, "velocity": 5, "note_on_time": 171.427, "note_off_time": 171.817}, {"pitch": 72, "velocity": 24, "note_on_time": 171.986, "note_off_time": 172.431}, {"pitch": 76, "velocity": 15, "note_on_time": 172.615, "note_off_time": 173.053}, {"pitch": 72, "velocity": 14, "note_on_time": 173.244, "note_off_time": 173.629}, {"pitch": 76, "velocity": 7, "note_on_time": 173.834, "note_off_time": 174.264}, {"pitch": 72, "velocity": 8, "note_on_time": 174.385, "note_off_time": 174.804}, {"pitch": 76, "velocity": 10, "note_on_time": 175.052, "note_off_time": 175.478}, {"pitch": 72, "velocity": 16, "note_on_time": 175.609, "note_off_time": 176.095}, {"pitch": 76, "velocity": 13, "note_on_time": 176.283, "note_off_time": 176.746}, {"pitch": 72, "velocity": 17, "note_on_time": 176.834, "note_off_time": 177.303}, {"pitch": 76, "velocity": 19, "note_on_time": 177.444, "note_off_time": 178.02}, {"pitch": 72, "velocity": 28, "note_on_time": 178.107, "note_off_time": 178.564}, {"pitch": 76, "velocity": 20, "note_on_time": 178.713, "note_off_time": 179.223}, {"pitch": 72, "velocity": 1, "note_on_time": 179.386, "note_off_time": 179.759}, {"pitch": 76, "velocity": 5, "note_on_time": 179.927, "note_off_time": 180.348}, {"pitch": 72, "velocity": 26, "note_on_time": 180.539, "note_off_time": 180.97}, {"pitch": 76, "velocity": 16, "note_on_time": 181.106, "note_off_time": 181.566}, {"pitch": 72, "velocity": 19, "note_on_time": 181.753, "note_off_time": 182.17}, {"pitch": 76, "velocity": 17, "note_on_time": 182.3, "note_off_time": 182.798}, {"pitch": 72, "velocity": 13, "note_on_time": 182.946, "note_off_time": 183.387}, {"pitch": 76, "velocity": 22, "note_on_time": 183.554, "note_off_time": 184.063}, {"pitch": 72, "velocity": 9, "note_on_time": 184.119, "note_off_time": 184.583}, {"pitch": 76, "velocity": 10, "note_on_time": 184.764, "note_off_time": 185.222}, {"pitch": 72, "velocity": 31, "note_on_time": 185.375, "note_off_time": 185.787}, {"pitch": 76, "velocity": 32, "note_on_time": 185.98, "note_off_time": 186.409}, {"pitch": 72, "velocity": 19, "note_on_time": 186.56, "note_off_time": 187.016}, {"pitch": 76, "velocity": 16, "note_on_time": 187.218, "note_off_time": 187.669}, {"pitch": 72, "velocity": 20, "note_on_time": 187.832, "note_off_time": 188.231}, {"pitch": 76, "velocity": 14, "note_on_time": 188.382, "note_off_time": 188.876}, {"pitch": 72, "velocity": 23, "note_on_time": 189.019, "note_off_time": 189.436}, {"pitch": 76, "velocity": 10, "note_on_time": 189.597, "note_off_time": 190.172}, {"pitch": 72, "velocity": 29, "note_on_time": 190.24, "note_off_time": 190.674}, {"pitch": 76, "velocity": 21, "note_on_time": 190.782, "note_off_time": 191.409}, {"pitch": 72, "velocity": 12, "note_on_time": 191.499, "note_off_time": 191.954}, {"pitch": 76, "velocity": 23, "note_on_time": 192.1, "note_off_time": 192.636}, {"pitch": 72, "velocity": 31, "note_on_time": 192.783, "note_off_time": 193.24}, {"pitch": 76, "velocity": 21, "note_on_time": 193.32, "note_off_time": 193.796}, {"pitch": 72, "velocity": 18, "note_on_time": 193.918, "note_off_time": 194.4}]</notes><guidance name="Guidance Mode">None</guidance><error name="Error value">99</error></trial><trial trial_no="3" timestamp="2023_06_11-10_34_31"><notes name="Played Notes">[{"pitch": 79, "velocity": 32, "note_on_time": 1.307, "note_off_time": 1.699}, {"pitch": 72, "velocity": 19, "note_on_time": 1.815, "note_off_time": 2.195}, {"pitch": 79, "velocity": 31, "note_on_time": 2.325, "note_off_time": 2.793}, {"pitch": 72, "velocity": 25, "note_on_time": 2.91, "note_off_time": 3.369}, {"pitch": 79, "velocity": 27, "note_on_time": 3.538, "note_off_time": 4.034}, {"pitch": 72, "velocity": 22, "note_on_time": 4.159, "note_off_time": 4.598}, {"pitch": 79, "velocity": 32, "note_on_time": 4.781, "note_off_time": 5.227}, {"pitch": 72, "velocity": 18, "note_on_time": 5.33, "note_off_time": 5.81}, {"pitch": 79, "velocity": 39, "note_on_time": 6.02, "note_off_time": 6.51}, {"pitch": 72, "velocity": 23, "note_on_time": 6.589, "note_off_time": 7.025}, {"pitch": 79, "velocity": 31, "note_on_time": 7.231, "note_off_time": 7.749}, {"pitch": 72, "velocity": 13, "note_on_time": 7.843, "note_off_time": 8.258}, {"pitch": 79, "velocity": 23, "note_on_time": 8.475, "note_off_time": 8.911}, {"pitch": 72, "velocity": 16, "note_on_time": 8.995, "note_off_time": 9.465}, {"pitch": 79, "velocity": 25, "note_on_time": 9.668, "note_off_time": 10.207}, {"pitch": 72, "velocity": 3, "note_on_time": 10.306, "note_off_time": 10.715}, {"pitch": 79, "velocity": 20, "note_on_time": 10.896, "note_off_time": 11.437}, {"pitch": 72, "velocity": 17, "note_on_time": 11.514, "note_off_time": 11.99}, {"pitch": 79, "velocity": 32, "note_on_time": 12.169, "note_off_time": 12.657}, {"pitch": 72, "velocity": 14, "note_on_time": 12.787, "note_off_time": 13.252}, {"pitch": 79, "velocity": 17, "note_on_time": 13.346, "note_off_time": 13.854}, {"pitch": 72, "velocity": 27, "note_on_time": 13.946, "note_off_time": 14.434}, {"pitch": 79, "velocity": 16, "note_on_time": 14.552, "note_off_time": 15.05}, {"pitch": 72, "velocity": 12, "note_on_time": 15.185, "note_off_time": 15.541}, {"pitch": 79, "velocity": 12, "note_on_time": 15.797, "note_off_time": 16.325}, {"pitch": 72, "velocity": 23, "note_on_time": 16.359, "note_off_time": 16.818}, {"pitch": 79, "velocity": 11, "note_on_time": 16.99, "note_off_time": 17.523}, {"pitch": 72, "velocity": 16, "note_on_time": 17.592, "note_off_time": 18.034}, {"pitch": 79, "velocity": 23, "note_on_time": 18.23, "note_off_time": 18.707}, {"pitch": 72, "velocity": 14, "note_on_time": 18.857, "note_off_time": 19.221}, {"pitch": 77, "velocity": 22, "note_on_time": 19.454, "note_off_time": 19.923}, {"pitch": 72, "velocity": 17, "note_on_time": 19.97, "note_off_time": 20.489}, {"pitch": 77, "velocity": 22, "note_on_time": 20.681, "note_off_time": 21.175}, {"pitch": 72, "velocity": 14, "note_on_time": 21.277, "note_off_time": 21.708}, {"pitch": 77, "velocity": 27, "note_on_time": 21.908, "note_off_time": 22.419}, {"pitch": 72, "velocity": 12, "note_on_time": 22.474, "note_off_time": 22.918}, {"pitch": 77, "velocity": 17, "note_on_time": 23.107, "note_off_time": 23.617}, {"pitch": 72, "velocity": 1, "note_on_time": 23.67, "note_off_time": 24.137}, {"pitch": 77, "velocity": 19, "note_on_time": 24.251, "note_off_time": 24.847}, {"pitch": 72, "velocity": 9, "note_on_time": 24.955, "note_off_time": 25.413}, {"pitch": 77, "velocity": 20, "note_on_time": 25.585, "note_off_time": 26.143}, {"pitch": 72, "velocity": 13, "note_on_time": 26.332, "note_off_time": 26.685}, {"pitch": 77, "velocity": 26, "note_on_time": 26.811, "note_off_time": 27.363}, {"pitch": 72, "velocity": 30, "note_on_time": 27.386, "note_off_time": 27.863}, {"pitch": 77, "velocity": 18, "note_on_time": 27.964, "note_off_time": 28.538}, {"pitch": 72, "velocity": 30, "note_on_time": 28.544, "note_off_time": 29.033}, {"pitch": 77, "velocity": 11, "note_on_time": 29.173, "note_off_time": 29.786}, {"pitch": 72, "velocity": 19, "note_on_time": 29.784, "note_off_time": 30.301}, {"pitch": 77, "velocity": 19, "note_on_time": 30.361, "note_off_time": 30.896}, {"pitch": 72, "velocity": 25, "note_on_time": 30.895, "note_off_time": 31.464}, {"pitch": 77, "velocity": 29, "note_on_time": 31.578, "note_off_time": 32.179}, {"pitch": 72, "velocity": 26, "note_on_time": 32.213, "note_off_time": 32.71}, {"pitch": 77, "velocity": 27, "note_on_time": 32.822, "note_off_time": 33.311}, {"pitch": 72, "velocity": 28, "note_on_time": 33.335, "note_off_time": 33.822}, {"pitch": 76, "velocity": 33, "note_on_time": 33.983, "note_off_time": 34.588}, {"pitch": 72, "velocity": 29, "note_on_time": 34.602, "note_off_time": 35.129}, {"pitch": 76, "velocity": 22, "note_on_time": 35.242, "note_off_time": 35.807}, {"pitch": 72, "velocity": 27, "note_on_time": 35.816, "note_off_time": 36.496}, {"pitch": 76, "velocity": 23, "note_on_time": 36.478, "note_off_time": 37.109}, {"pitch": 72, "velocity": 34, "note_on_time": 37.089, "note_off_time": 37.645}, {"pitch": 76, "velocity": 23, "note_on_time": 37.684, "note_off_time": 38.287}, {"pitch": 72, "velocity": 29, "note_on_time": 38.36, "note_off_time": 38.849}, {"pitch": 76, "velocity": 20, "note_on_time": 38.969, "note_off_time": 39.442}, {"pitch": 72, "velocity": 16, "note_on_time": 39.514, "note_off_time": 40.026}, {"pitch": 76, "velocity": 19, "note_on_time": 40.148, "note_off_time": 40.708}, {"pitch": 72, "velocity": 31, "note_on_time": 40.754, "note_off_time": 41.234}, {"pitch": 76, "velocity": 10, "note_on_time": 41.337, "note_off_time": 41.953}, {"pitch": 72, "velocity": 30, "note_on_time": 41.962, "note_off_time": 42.516}, {"pitch": 74, "velocity": 37, "note_on_time": 42.644, "note_off_time": 43.148}, {"pitch": 72, "velocity": 33, "note_on_time": 43.18, "note_off_time": 43.716}, {"pitch": 74, "velocity": 19, "note_on_time": 43.825, "note_off_time": 44.291}, {"pitch": 72, "velocity": 31, "note_on_time": 44.329, "note_off_time": 44.927}, {"pitch": 74, "velocity": 8, "note_on_time": 44.982, "note_off_time": 45.559}, {"pitch": 72, "velocity": 33, "note_on_time": 45.565, "note_off_time": 45.946}, {"pitch": 76, "velocity": 45, "note_on_time": 46.534, "note_off_time": 46.83}, {"pitch": 72, "velocity": 17, "note_on_time": 46.895, "note_off_time": 47.398}, {"pitch": 76, "velocity": 27, "note_on_time": 47.515, "note_off_time": 47.974}, {"pitch": 72, "velocity": 22, "note_on_time": 47.967, "note_off_time": 48.51}, {"pitch": 76, "velocity": 18, "note_on_time": 48.552, "note_off_time": 49.152}, {"pitch": 72, "velocity": 35, "note_on_time": 49.156, "note_off_time": 49.675}, {"pitch": 76, "velocity": 20, "note_on_time": 49.73, "note_off_time": 50.302}, {"pitch": 72, "velocity": 26, "note_on_time": 50.365, "note_off_time": 50.788}, {"pitch": 77, "velocity": 38, "note_on_time": 51.08, "note_off_time": 51.556}, {"pitch": 72, "velocity": 26, "note_on_time": 51.615, "note_off_time": 52.121}, {"pitch": 77, "velocity": 22, "note_on_time": 52.256, "note_off_time": 52.762}, {"pitch": 72, "velocity": 19, "note_on_time": 52.844, "note_off_time": 53.36}, {"pitch": 77, "velocity": 14, "note_on_time": 53.451, "note_off_time": 53.953}, {"pitch": 72, "velocity": 31, "note_on_time": 54.062, "note_off_time": 54.52}, {"pitch": 77, "velocity": 21, "note_on_time": 54.625, "note_off_time": 55.15}, {"pitch": 72, "velocity": 9, "note_on_time": 55.265, "note_off_time": 55.792}, {"pitch": 77, "velocity": 30, "note_on_time": 55.924, "note_off_time": 56.432}, {"pitch": 72, "velocity": 25, "note_on_time": 56.474, "note_off_time": 56.952}, {"pitch": 79, "velocity": 35, "note_on_time": 57.172, "note_off_time": 57.651}, {"pitch": 72, "velocity": 14, "note_on_time": 57.726, "note_off_time": 58.191}, {"pitch": 79, "velocity": 19, "note_on_time": 58.275, "note_off_time": 58.877}, {"pitch": 72, "velocity": 22, "note_on_time": 58.852, "note_off_time": 59.448}, {"pitch": 79, "velocity": 17, "note_on_time": 59.547, "note_off_time": 60.141}, {"pitch": 72, "velocity": 23, "note_on_time": 60.124, "note_off_time": 60.746}, {"pitch": 79, "velocity": 31, "note_on_time": 60.843, "note_off_time": 61.391}, {"pitch": 72, "velocity": 21, "note_on_time": 61.371, "note_off_time": 61.912}, {"pitch": 79, "velocity": 31, "note_on_time": 62.007, "note_off_time": 62.592}, {"pitch": 72, "velocity": 19, "note_on_time": 62.562, "note_off_time": 63.154}, {"pitch": 79, "velocity": 11, "note_on_time": 63.187, "note_off_time": 63.721}, {"pitch": 72, "velocity": 25, "note_on_time": 63.777, "note_off_time": 64.332}, {"pitch": 79, "velocity": 28, "note_on_time": 64.462, "note_off_time": 64.927}, {"pitch": 72, "velocity": 27, "note_on_time": 64.979, "note_off_time": 65.593}, {"pitch": 79, "velocity": 21, "note_on_time": 65.711, "note_off_time": 66.23}, {"pitch": 72, "velocity": 20, "note_on_time": 66.217, "note_off_time": 66.741}, {"pitch": 79, "velocity": 24, "note_on_time": 66.914, "note_off_time": 67.368}, {"pitch": 77, "velocity": 40, "note_on_time": 67.561, "note_off_time": 67.961}, {"pitch": 79, "velocity": 32, "note_on_time": 68.062, "note_off_time": 68.477}, {"pitch": 77, "velocity": 17, "note_on_time": 68.597, "note_off_time": 68.98}, {"pitch": 79, "velocity": 16, "note_on_time": 69.115, "note_off_time": 69.477}, {"pitch": 77, "velocity": 4, "note_on_time": 69.586, "note_off_time": 69.924}, {"pitch": 79, "velocity": 30, "note_on_time": 70.0, "note_off_time": 70.27}, {"pitch": 77, "velocity": 40, "note_on_time": 70.313, "note_off_time": 70.53}, {"pitch": 79, "velocity": 41, "note_on_time": 70.578, "note_off_time": 70.755}, {"pitch": 77, "velocity": 59, "note_on_time": 70.763, "note_off_time": 70.959}, {"pitch": 79, "velocity": 63, "note_on_time": 70.98, "note_off_time": 71.188}, {"pitch": 77, "velocity": 64, "note_on_time": 71.199, "note_off_time": 71.37}, {"pitch": 79, "velocity": 60, "note_on_time": 71.409, "note_off_time": 71.597}, {"pitch": 77, "velocity": 64, "note_on_time": 71.602, "note_off_time": 71.83}, {"pitch": 79, "velocity": 47, "note_on_time": 71.842, "note_off_time": 72.069}, {"pitch": 77, "velocity": 71, "note_on_time": 72.057, "note_off_time": 72.33}, {"pitch": 79, "velocity": 58, "note_on_time": 72.309, "note_off_time": 72.665}, {"pitch": 77, "velocity": 61, "note_on_time": 72.65, "note_off_time": 72.971}, {"pitch": 79, "velocity": 54, "note_on_time": 72.983, "note_off_time": 73.889}, {"pitch": 79, "velocity": 44, "note_on_time": 74.249, "note_off_time": 74.454}, {"pitch": 76, "velocity": 49, "note_on_time": 74.537, "note_off_time": 74.735}, {"pitch": 79, "velocity": 57, "note_on_time": 74.715, "note_off_time": 74.921}, {"pitch": 76, "velocity": 36, "note_on_time": 74.945, "note_off_time": 75.118}, {"pitch": 79, "velocity": 49, "note_on_time": 75.123, "note_off_time": 75.329}, {"pitch": 76, "velocity": 47, "note_on_time": 75.34, "note_off_time": 75.606}, {"pitch": 79, "velocity": 45, "note_on_time": 75.543, "note_off_time": 75.742}, {"pitch": 76, "velocity": 41, "note_on_time": 75.761, "note_off_time": 75.992}, {"pitch": 79, "velocity": 41, "note_on_time": 75.989, "note_off_time": 76.159}, {"pitch": 76, "velocity": 45, "note_on_time": 76.171, "note_off_time": 76.397}, {"pitch": 79, "velocity": 44, "note_on_time": 76.377, "note_off_time": 76.544}, {"pitch": 76, "velocity": 44, "note_on_time": 76.579, "note_off_time": 76.803}, {"pitch": 79, "velocity": 44, "note_on_time": 76.773, "note_off_time": 77.056}, {"pitch": 76, "velocity": 57, "note_on_time": 77.03, "note_off_time": 77.266}, {"pitch": 79, "velocity": 51, "note_on_time": 77.257, "note_off_time": 77.629}, {"pitch": 76, "velocity": 49, "note_on_time": 77.368, "note_off_time": 77.898}, {"pitch": 79, "velocity": 41, "note_on_time": 78.509, "note_off_time": 78.701}, {"pitch": 74, "velocity": 36, "note_on_time": 78.742, "note_off_time": 78.99}, {"pitch": 79, "velocity": 44, "note_on_time": 78.988, "note_off_time": 79.157}, {"pitch": 74, "velocity": 37, "note_on_time": 79.18, "note_off_time": 79.368}, {"pitch": 79, "velocity": 42, "note_on_time": 79.394, "note_off_time": 79.545}, {"pitch": 74, "velocity": 43, "note_on_time": 79.557, "note_off_time": 79.719}, {"pitch": 79, "velocity": 45, "note_on_time": 79.764, "note_off_time": 79.91}, {"pitch": 74, "velocity": 40, "note_on_time": 79.882, "note_off_time": 80.065}, {"pitch": 79, "velocity": 38, "note_on_time": 80.147, "note_off_time": 80.294}, {"pitch": 74, "velocity": 37, "note_on_time": 80.349, "note_off_time": 80.576}, {"pitch": 79, "velocity": 34, "note_on_time": 80.562, "note_off_time": 80.725}, {"pitch": 74, "velocity": 35, "note_on_time": 80.766, "note_off_time": 80.935}, {"pitch": 79, "velocity": 41, "note_on_time": 80.966, "note_off_time": 81.124}, {"pitch": 74, "velocity": 30, "note_on_time": 81.174, "note_off_time": 81.349}, {"pitch": 79, "velocity": 43, "note_on_time": 81.387, "note_off_time": 81.589}, {"pitch": 74, "velocity": 59, "note_on_time": 81.471, "note_off_time": 81.85}, {"pitch": 79, "velocity": 42, "note_on_time": 82.352, "note_off_time": 82.515}, {"pitch": 72, "velocity": 36, "note_on_time": 82.576, "note_off_time": 82.784}, {"pitch": 79, "velocity": 36, "note_on_time": 82.796, "note_off_time": 82.97}, {"pitch": 72, "velocity": 39, "note_on_time": 83.037, "note_off_time": 83.204}, {"pitch": 79, "velocity": 30, "note_on_time": 83.235, "note_off_time": 83.403}, {"pitch": 72, "velocity": 38, "note_on_time": 83.423, "note_off_time": 83.627}, {"pitch": 79, "velocity": 31, "note_on_time": 83.67, "note_off_time": 83.844}, {"pitch": 72, "velocity": 47, "note_on_time": 83.828, "note_off_time": 84.03}, {"pitch": 79, "velocity": 33, "note_on_time": 84.108, "note_off_time": 84.313}, {"pitch": 72, "velocity": 35, "note_on_time": 84.352, "note_off_time": 84.535}, {"pitch": 79, "velocity": 35, "note_on_time": 84.553, "note_off_time": 84.747}, {"pitch": 72, "velocity": 47, "note_on_time": 84.757, "note_off_time": 84.93}, {"pitch": 79, "velocity": 36, "note_on_time": 84.989, "note_off_time": 85.163}, {"pitch": 72, "velocity": 25, "note_on_time": 85.195, "note_off_time": 85.339}, {"pitch": 79, "velocity": 32, "note_on_time": 85.408, "note_off_time": 85.581}, {"pitch": 72, "velocity": 32, "note_on_time": 85.566, "note_off_time": 85.722}, {"pitch": 79, "velocity": 37, "note_on_time": 85.827, "note_off_time": 86.066}, {"pitch": 79, "velocity": 34, "note_on_time": 86.605, "note_off_time": 86.867}, {"pitch": 72, "velocity": 46, "note_on_time": 86.892, "note_off_time": 87.162}, {"pitch": 79, "velocity": 45, "note_on_time": 87.143, "note_off_time": 87.332}, {"pitch": 72, "velocity": 46, "note_on_time": 87.374, "note_off_time": 87.588}, {"pitch": 79, "velocity": 33, "note_on_time": 87.606, "note_off_time": 87.822}, {"pitch": 72, "velocity": 46, "note_on_time": 87.78, "note_off_time": 87.977}, {"pitch": 74, "velocity": 25, "note_on_time": 88.533, "note_off_time": 88.912}, {"pitch": 79, "velocity": 33, "note_on_time": 89.009, "note_off_time": 89.35}, {"pitch": 74, "velocity": 26, "note_on_time": 89.388, "note_off_time": 89.866}, {"pitch": 79, "velocity": 35, "note_on_time": 90.194, "note_off_time": 90.695}, {"pitch": 77, "velocity": 52, "note_on_time": 90.696, "note_off_time": 91.081}, {"pitch": 79, "velocity": 50, "note_on_time": 91.124, "note_off_time": 91.743}, {"pitch": 79, "velocity": 39, "note_on_time": 92.287, "note_off_time": 92.568}, {"pitch": 77, "velocity": 50, "note_on_time": 92.587, "note_off_time": 92.895}, {"pitch": 79, "velocity": 46, "note_on_time": 92.925, "note_off_time": 93.539}, {"pitch": 79, "velocity": 44, "note_on_time": 94.044, "note_off_time": 94.378}, {"pitch": 76, "velocity": 19, "note_on_time": 94.618, "note_off_time": 94.977}, {"pitch": 79, "velocity": 19, "note_on_time": 95.219, "note_off_time": 95.545}, {"pitch": 76, "velocity": 3, "note_on_time": 95.705, "note_off_time": 96.05}, {"pitch": 79, "velocity": 7, "note_on_time": 96.184, "note_off_time": 96.593}, {"pitch": 76, "velocity": 22, "note_on_time": 96.711, "note_off_time": 97.048}, {"pitch": 79, "velocity": 14, "note_on_time": 97.27, "note_off_time": 97.776}, {"pitch": 77, "velocity": 13, "note_on_time": 97.893, "note_off_time": 98.352}, {"pitch": 79, "velocity": 22, "note_on_time": 98.513, "note_off_time": 99.022}, {"pitch": 77, "velocity": 45, "note_on_time": 99.032, "note_off_time": 99.581}, {"pitch": 79, "velocity": 36, "note_on_time": 99.658, "note_off_time": 100.114}, {"pitch": 76, "velocity": 26, "note_on_time": 100.331, "note_off_time": 100.713}, {"pitch": 79, "velocity": 29, "note_on_time": 101.022, "note_off_time": 101.395}, {"pitch": 74, "velocity": 30, "note_on_time": 101.557, "note_off_time": 101.929}, {"pitch": 79, "velocity": 28, "note_on_time": 102.11, "note_off_time": 102.621}, {"pitch": 74, "velocity": 27, "note_on_time": 102.704, "note_off_time": 103.215}, {"pitch": 79, "velocity": 29, "note_on_time": 103.368, "note_off_time": 103.817}, {"pitch": 74, "velocity": 6, "note_on_time": 103.879, "note_off_time": 104.324}, {"pitch": 79, "velocity": 23, "note_on_time": 104.509, "note_off_time": 105.018}, {"pitch": 72, "velocity": 30, "note_on_time": 105.029, "note_off_time": 105.609}, {"pitch": 79, "velocity": 12, "note_on_time": 105.711, "note_off_time": 106.226}, {"pitch": 72, "velocity": 26, "note_on_time": 106.418, "note_off_time": 106.796}, {"pitch": 79, "velocity": 21, "note_on_time": 107.087, "note_off_time": 107.506}, {"pitch": 74, "velocity": 26, "note_on_time": 107.591, "note_off_time": 108.083}, {"pitch": 79, "velocity": 18, "note_on_time": 108.197, "note_off_time": 108.617}, {"pitch": 77, "velocity": 24, "note_on_time": 108.828, "note_off_time": 109.265}, {"pitch": 79, "velocity": 36, "note_on_time": 109.517, "note_off_time": 109.91}, {"pitch": 76, "velocity": 27, "note_on_time": 110.042, "note_off_time": 110.536}, {"pitch": 79, "velocity": 30, "note_on_time": 110.62, "note_off_time": 111.087}, {"pitch": 76, "velocity": 40, "note_on_time": 111.175, "note_off_time": 111.679}, {"pitch": 79, "velocity": 26, "note_on_time": 111.749, "note_off_time": 112.259}, {"pitch": 72, "velocity": 39, "note_on_time": 112.325, "note_off_time": 112.884}, {"pitch": 79, "velocity": 27, "note_on_time": 112.916, "note_off_time": 113.498}, {"pitch": 72, "velocity": 34, "note_on_time": 113.591, "note_off_time": 114.057}, {"pitch": 79, "velocity": 30, "note_on_time": 114.149, "note_off_time": 114.614}, {"pitch": 72, "velocity": 28, "note_on_time": 114.661, "note_off_time": 115.122}, {"pitch": 79, "velocity": 12, "note_on_time": 115.262, "note_off_time": 115.802}, {"pitch": 72, "velocity": 32, "note_on_time": 115.847, "note_off_time": 116.335}, {"pitch": 79, "velocity": 20, "note_on_time": 116.41, "note_off_time": 116.903}, {"pitch": 72, "velocity": 28, "note_on_time": 116.931, "note_off_time": 117.298}, {"pitch": 79, "velocity": 28, "note_on_time": 117.555, "note_off_time": 117.939}, {"pitch": 77, "velocity": 27, "note_on_time": 118.164, "note_off_time": 118.583}, {"pitch": 79, "velocity": 31, "note_on_time": 118.705, "note_off_time": 119.047}, {"pitch": 77, "velocity": 29, "note_on_time": 119.196, "note_off_time": 119.27}, {"pitch": 77, "velocity": 58, "note_on_time": 119.376, "note_off_time": 119.488}, {"pitch": 77, "velocity": 49, "note_on_time": 119.556, "note_off_time": 119.664}, {"pitch": 77, "velocity": 45, "note_on_time": 119.737, "note_off_time": 119.815}, {"pitch": 77, "velocity": 49, "note_on_time": 119.898, "note_off_time": 119.987}, {"pitch": 77, "velocity": 43, "note_on_time": 120.061, "note_off_time": 120.147}, {"pitch": 77, "velocity": 42, "note_on_time": 120.227, "note_off_time": 120.31}, {"pitch": 77, "velocity": 23, "note_on_time": 120.397, "note_off_time": 120.659}, {"pitch": 77, "velocity": 57, "note_on_time": 120.776, "note_off_time": 120.885}, {"pitch": 77, "velocity": 65, "note_on_time": 120.98, "note_off_time": 121.059}, {"pitch": 77, "velocity": 49, "note_on_time": 121.148, "note_off_time": 121.562}, {"pitch": 79, "velocity": 37, "note_on_time": 121.996, "note_off_time": 122.084}, {"pitch": 79, "velocity": 12, "note_on_time": 122.154, "note_off_time": 122.419}, {"pitch": 79, "velocity": 31, "note_on_time": 122.467, "note_off_time": 122.814}, {"pitch": 76, "velocity": 62, "note_on_time": 123.12, "note_off_time": 123.405}, {"pitch": 76, "velocity": 57, "note_on_time": 123.596, "note_off_time": 123.793}, {"pitch": 76, "velocity": 72, "note_on_time": 124.067, "note_off_time": 124.651}, {"pitch": 76, "velocity": 63, "note_on_time": 124.951, "note_off_time": 125.147}, {"pitch": 76, "velocity": 61, "note_on_time": 125.359, "note_off_time": 125.535}, {"pitch": 76, "velocity": 65, "note_on_time": 125.764, "note_off_time": 126.344}, {"pitch": 76, "velocity": 62, "note_on_time": 126.63, "note_off_time": 126.869}, {"pitch": 76, "velocity": 61, "note_on_time": 127.053, "note_off_time": 127.246}, {"pitch": 76, "velocity": 58, "note_on_time": 127.466, "note_off_time": 127.657}, {"pitch": 76, "velocity": 63, "note_on_time": 127.844, "note_off_time": 128.036}, {"pitch": 76, "velocity": 64, "note_on_time": 128.291, "note_off_time": 128.47}, {"pitch": 76, "velocity": 58, "note_on_time": 128.663, "note_off_time": 128.858}, {"pitch": 76, "velocity": 67, "note_on_time": 129.089, "note_off_time": 129.62}, {"pitch": 74, "velocity": 51, "note_on_time": 129.971, "note_off_time": 130.251}, {"pitch": 74, "velocity": 60, "note_on_time": 130.43, "note_off_time": 130.672}, {"pitch": 76, "velocity": 57, "note_on_time": 130.871, "note_off_time": 131.525}, {"pitch": 74, "velocity": 45, "note_on_time": 131.776, "note_off_time": 132.064}, {"pitch": 74, "velocity": 55, "note_on_time": 132.183, "note_off_time": 132.392}, {"pitch": 76, "velocity": 56, "note_on_time": 132.651, "note_off_time": 133.324}, {"pitch": 74, "velocity": 1, "note_on_time": 133.479, "note_off_time": 133.911}, {"pitch": 76, "velocity": 42, "note_on_time": 134.031, "note_off_time": 134.549}, {"pitch": 74, "velocity": 35, "note_on_time": 134.585, "note_off_time": 134.95}, {"pitch": 76, "velocity": 14, "note_on_time": 134.987, "note_off_time": 135.415}, {"pitch": 74, "velocity": 31, "note_on_time": 135.349, "note_off_time": 135.827}, {"pitch": 76, "velocity": 48, "note_on_time": 135.759, "note_off_time": 136.223}, {"pitch": 74, "velocity": 36, "note_on_time": 136.173, "note_off_time": 136.563}, {"pitch": 76, "velocity": 51, "note_on_time": 136.603, "note_off_time": 137.1}, {"pitch": 79, "velocity": 30, "note_on_time": 137.91, "note_off_time": 138.363}, {"pitch": 72, "velocity": 23, "note_on_time": 138.415, "note_off_time": 139.163}, {"pitch": 79, "velocity": 20, "note_on_time": 139.389, "note_off_time": 139.747}, {"pitch": 72, "velocity": 33, "note_on_time": 139.781, "note_off_time": 140.824}, {"pitch": 79, "velocity": 23, "note_on_time": 141.123, "note_off_time": 141.472}, {"pitch": 72, "velocity": 46, "note_on_time": 141.528, "note_off_time": 142.69}, {"pitch": 79, "velocity": 23, "note_on_time": 142.822, "note_off_time": 143.342}, {"pitch": 72, "velocity": 39, "note_on_time": 143.349, "note_off_time": 144.488}, {"pitch": 79, "velocity": 22, "note_on_time": 144.646, "note_off_time": 145.088}, {"pitch": 72, "velocity": 37, "note_on_time": 145.148, "note_off_time": 145.773}, {"pitch": 77, "velocity": 46, "note_on_time": 146.125, "note_off_time": 146.586}, {"pitch": 72, "velocity": 28, "note_on_time": 146.64, "note_off_time": 147.636}, {"pitch": 77, "velocity": 33, "note_on_time": 147.788, "note_off_time": 148.224}, {"pitch": 72, "velocity": 28, "note_on_time": 148.215, "note_off_time": 149.106}, {"pitch": 77, "velocity": 31, "note_on_time": 149.31, "note_off_time": 149.817}, {"pitch": 72, "velocity": 38, "note_on_time": 149.841, "note_off_time": 150.619}, {"pitch": 77, "velocity": 25, "note_on_time": 150.763, "note_off_time": 151.252}, {"pitch": 72, "velocity": 31, "note_on_time": 151.243, "note_off_time": 152.148}, {"pitch": 77, "velocity": 18, "note_on_time": 152.31, "note_off_time": 152.794}, {"pitch": 72, "velocity": 19, "note_on_time": 152.846, "note_off_time": 153.589}, {"pitch": 77, "velocity": 28, "note_on_time": 153.83, "note_off_time": 154.282}, {"pitch": 72, "velocity": 33, "note_on_time": 154.317, "note_off_time": 155.135}, {"pitch": 77, "velocity": 12, "note_on_time": 155.226, "note_off_time": 155.697}, {"pitch": 72, "velocity": 24, "note_on_time": 155.709, "note_off_time": 156.557}, {"pitch": 77, "velocity": 34, "note_on_time": 156.633, "note_off_time": 157.171}, {"pitch": 72, "velocity": 38, "note_on_time": 157.207, "note_off_time": 158.039}, {"pitch": 77, "velocity": 23, "note_on_time": 158.007, "note_off_time": 158.582}, {"pitch": 72, "velocity": 33, "note_on_time": 158.605, "note_off_time": 159.327}, {"pitch": 76, "velocity": 43, "note_on_time": 159.55, "note_off_time": 159.998}, {"pitch": 72, "velocity": 22, "note_on_time": 160.055, "note_off_time": 160.839}, {"pitch": 76, "velocity": 38, "note_on_time": 160.972, "note_off_time": 161.491}, {"pitch": 72, "velocity": 24, "note_on_time": 161.526, "note_off_time": 162.233}, {"pitch": 76, "velocity": 30, "note_on_time": 162.301, "note_off_time": 162.84}, {"pitch": 72, "velocity": 36, "note_on_time": 162.803, "note_off_time": 163.431}, {"pitch": 79, "velocity": 26, "note_on_time": 163.993, "note_off_time": 164.454}, {"pitch": 72, "velocity": 25, "note_on_time": 164.539, "note_off_time": 165.108}, {"pitch": 79, "velocity": 17, "note_on_time": 165.299, "note_off_time": 165.796}, {"pitch": 72, "velocity": 35, "note_on_time": 165.815, "note_off_time": 166.457}, {"pitch": 79, "velocity": 19, "note_on_time": 166.563, "note_off_time": 167.065}, {"pitch": 72, "velocity": 36, "note_on_time": 167.099, "note_off_time": 167.857}, {"pitch": 79, "velocity": 30, "note_on_time": 167.938, "note_off_time": 168.391}, {"pitch": 72, "velocity": 29, "note_on_time": 168.494, "note_off_time": 169.108}, {"pitch": 79, "velocity": 23, "note_on_time": 169.195, "note_off_time": 169.627}, {"pitch": 72, "velocity": 14, "note_on_time": 169.808, "note_off_time": 170.431}, {"pitch": 79, "velocity": 47, "note_on_time": 170.507, "note_off_time": 171.044}, {"pitch": 72, "velocity": 27, "note_on_time": 171.11, "note_off_time": 171.671}, {"pitch": 79, "velocity": 40, "note_on_time": 171.899, "note_off_time": 172.397}, {"pitch": 72, "velocity": 33, "note_on_time": 172.391, "note_off_time": 173.031}, {"pitch": 79, "velocity": 22, "note_on_time": 173.269, "note_off_time": 173.709}, {"pitch": 72, "velocity": 34, "note_on_time": 173.724, "note_off_time": 174.356}, {"pitch": 79, "velocity": 9, "note_on_time": 174.51, "note_off_time": 175.04}, {"pitch": 72, "velocity": 33, "note_on_time": 175.057, "note_off_time": 175.551}, {"pitch": 79, "velocity": 51, "note_on_time": 176.353, "note_off_time": 177.168}, {"pitch": 79, "velocity": 41, "note_on_time": 177.554, "note_off_time": 178.357}, {"pitch": 79, "velocity": 62, "note_on_time": 178.748, "note_off_time": 179.019}, {"pitch": 79, "velocity": 62, "note_on_time": 179.235, "note_off_time": 179.454}, {"pitch": 79, "velocity": 64, "note_on_time": 179.749, "note_off_time": 180.736}, {"pitch": 79, "velocity": 59, "note_on_time": 181.165, "note_off_time": 182.053}, {"pitch": 79, "velocity": 53, "note_on_time": 182.381, "note_off_time": 183.299}, {"pitch": 79, "velocity": 66, "note_on_time": 183.583, "note_off_time": 183.877}, {"pitch": 79, "velocity": 53, "note_on_time": 184.08, "note_off_time": 184.344}, {"pitch": 79, "velocity": 68, "note_on_time": 184.697, "note_off_time": 185.717}, {"pitch": 79, "velocity": 61, "note_on_time": 186.039, "note_off_time": 186.91}, {"pitch": 79, "velocity": 60, "note_on_time": 187.293, "note_off_time": 188.098}, {"pitch": 79, "velocity": 61, "note_on_time": 188.484, "note_off_time": 188.729}, {"pitch": 79, "velocity": 56, "note_on_time": 188.934, "note_off_time": 189.214}, {"pitch": 79, "velocity": 64, "note_on_time": 189.479, "note_off_time": 190.382}, {"pitch": 77, "velocity": 64, "note_on_time": 190.851, "note_off_time": 191.595}, {"pitch": 79, "velocity": 57, "note_on_time": 190.848, "note_off_time": 191.637}, {"pitch": 77, "velocity": 55, "note_on_time": 192.097, "note_off_time": 192.98}, {"pitch": 79, "velocity": 57, "note_on_time": 192.096, "note_off_time": 192.995}, {"pitch": 77, "velocity": 62, "note_on_time": 193.286, "note_off_time": 193.55}, {"pitch": 79, "velocity": 64, "note_on_time": 193.278, "note_off_time": 193.578}, {"pitch": 77, "velocity": 60, "note_on_time": 193.749, "note_off_time": 194.019}, {"pitch": 79, "velocity": 60, "note_on_time": 193.745, "note_off_time": 194.064}]</notes><guidance name="Guidance Mode">None</guidance><error name="Error value">99</error></trial></trials></MIDI>