<MIDI midiNo="2023_06_26-14_06_55"><target_notes><notes name="Note List">[{"pitch": 60, "velocity": 40, "note_on_time": 0.012, "note_off_time": 1.017}, {"pitch": 64, "velocity": 40, "note_on_time": 0.012, "note_off_time": 1.018}, {"pitch": 67, "velocity": 40, "note_on_time": 0.013, "note_off_time": 1.018}, {"pitch": 48, "velocity": 40, "note_on_time": 0.013, "note_off_time": 1.018}, {"pitch": 52, "velocity": 40, "note_on_time": 1.018, "note_off_time": 2.03}, {"pitch": 55, "velocity": 40, "note_on_time": 1.018, "note_off_time": 2.031}, {"pitch": 72, "velocity": 40, "note_on_time": 2.03, "note_off_time": 3.036}, {"pitch": 48, "velocity": 40, "note_on_time": 2.031, "note_off_time": 3.036}, {"pitch": 52, "velocity": 40, "note_on_time": 3.036, "note_off_time": 4.039}, {"pitch": 55, "velocity": 40, "note_on_time": 3.036, "note_off_time": 4.039}, {"pitch": 48, "velocity": 40, "note_on_time": 4.039, "note_off_time": 5.05}, {"pitch": 52, "velocity": 40, "note_on_time": 5.05, "note_off_time": 6.064}, {"pitch": 55, "velocity": 40, "note_on_time": 5.05, "note_off_time": 6.064}, {"pitch": 48, "velocity": 40, "note_on_time": 6.064, "note_off_time": 7.07}, {"pitch": 52, "velocity": 40, "note_on_time": 7.07, "note_off_time": 8.087}, {"pitch": 55, "velocity": 40, "note_on_time": 7.07, "note_off_time": 8.088}, {"pitch": 60, "velocity": 40, "note_on_time": 8.086, "note_off_time": 9.093}, {"pitch": 64, "velocity": 40, "note_on_time": 8.087, "note_off_time": 9.094}, {"pitch": 67, "velocity": 40, "note_on_time": 8.087, "note_off_time": 9.095}, {"pitch": 48, "velocity": 40, "note_on_time": 8.088, "note_off_time": 9.095}, {"pitch": 52, "velocity": 40, "note_on_time": 9.095, "note_off_time": 10.105}, {"pitch": 55, "velocity": 40, "note_on_time": 9.095, "note_off_time": 10.105}, {"pitch": 77, "velocity": 40, "note_on_time": 10.105, "note_off_time": 11.117}, {"pitch": 48, "velocity": 40, "note_on_time": 10.106, "note_off_time": 11.117}, {"pitch": 52, "velocity": 40, "note_on_time": 11.117, "note_off_time": 12.122}, {"pitch": 55, "velocity": 40, "note_on_time": 11.118, "note_off_time": 12.122}, {"pitch": 48, "velocity": 40, "note_on_time": 12.122, "note_off_time": 13.127}, {"pitch": 52, "velocity": 40, "note_on_time": 13.127, "note_off_time": 14.128}, {"pitch": 55, "velocity": 40, "note_on_time": 13.127, "note_off_time": 14.128}, {"pitch": 48, "velocity": 40, "note_on_time": 14.128, "note_off_time": 15.135}, {"pitch": 52, "velocity": 40, "note_on_time": 15.135, "note_off_time": 16.146}, {"pitch": 55, "velocity": 40, "note_on_time": 15.135, "note_off_time": 16.146}, {"pitch": 60, "velocity": 40, "note_on_time": 16.145, "note_off_time": 17.15}, {"pitch": 64, "velocity": 40, "note_on_time": 16.145, "note_off_time": 17.151}, {"pitch": 67, "velocity": 40, "note_on_time": 16.146, "note_off_time": 17.152}, {"pitch": 48, "velocity": 40, "note_on_time": 16.146, "note_off_time": 17.152}, {"pitch": 52, "velocity": 40, "note_on_time": 17.152, "note_off_time": 18.156}, {"pitch": 55, "velocity": 40, "note_on_time": 17.152, "note_off_time": 18.157}, {"pitch": 74, "velocity": 40, "note_on_time": 18.156, "note_off_time": 19.162}, {"pitch": 48, "velocity": 40, "note_on_time": 18.157, "note_off_time": 19.162}, {"pitch": 52, "velocity": 40, "note_on_time": 19.162, "note_off_time": 20.168}, {"pitch": 55, "velocity": 40, "note_on_time": 19.163, "note_off_time": 20.168}, {"pitch": 48, "velocity": 40, "note_on_time": 20.168, "note_off_time": 21.179}, {"pitch": 52, "velocity": 40, "note_on_time": 21.179, "note_off_time": 22.184}, {"pitch": 55, "velocity": 40, "note_on_time": 21.179, "note_off_time": 22.184}, {"pitch": 48, "velocity": 40, "note_on_time": 22.184, "note_off_time": 23.193}, {"pitch": 52, "velocity": 40, "note_on_time": 23.193, "note_off_time": 24.206}, {"pitch": 55, "velocity": 40, "note_on_time": 23.193, "note_off_time": 24.206}, {"pitch": 60, "velocity": 40, "note_on_time": 24.204, "note_off_time": 25.215}, {"pitch": 64, "velocity": 40, "note_on_time": 24.205, "note_off_time": 25.216}, {"pitch": 67, "velocity": 40, "note_on_time": 24.206, "note_off_time": 25.217}, {"pitch": 48, "velocity": 40, "note_on_time": 24.206, "note_off_time": 25.217}, {"pitch": 52, "velocity": 40, "note_on_time": 25.217, "note_off_time": 26.222}, {"pitch": 55, "velocity": 40, "note_on_time": 25.217, "note_off_time": 26.222}, {"pitch": 72, "velocity": 40, "note_on_time": 26.222, "note_off_time": 27.236}, {"pitch": 48, "velocity": 40, "note_on_time": 26.223, "note_off_time": 27.236}, {"pitch": 52, "velocity": 40, "note_on_time": 27.236, "note_off_time": 28.251}, {"pitch": 55, "velocity": 40, "note_on_time": 27.236, "note_off_time": 28.251}, {"pitch": 48, "velocity": 40, "note_on_time": 28.251, "note_off_time": 29.261}, {"pitch": 52, "velocity": 40, "note_on_time": 29.261, "note_off_time": 30.264}, {"pitch": 55, "velocity": 40, "note_on_time": 29.261, "note_off_time": 30.264}, {"pitch": 48, "velocity": 40, "note_on_time": 30.264, "note_off_time": 31.279}, {"pitch": 52, "velocity": 40, "note_on_time": 31.279, "note_off_time": 32.29}, {"pitch": 55, "velocity": 40, "note_on_time": 31.279, "note_off_time": 32.29}, {"pitch": 60, "velocity": 40, "note_on_time": 32.288, "note_off_time": 33.297}, {"pitch": 64, "velocity": 40, "note_on_time": 32.289, "note_off_time": 33.299}, {"pitch": 67, "velocity": 40, "note_on_time": 32.289, "note_off_time": 33.299}, {"pitch": 48, "velocity": 40, "note_on_time": 32.29, "note_off_time": 33.299}, {"pitch": 52, "velocity": 40, "note_on_time": 33.299, "note_off_time": 34.302}, {"pitch": 55, "velocity": 40, "note_on_time": 33.299, "note_off_time": 34.303}, {"pitch": 76, "velocity": 40, "note_on_time": 34.302, "note_off_time": 35.307}, {"pitch": 48, "velocity": 40, "note_on_time": 34.303, "note_off_time": 35.307}, {"pitch": 52, "velocity": 40, "note_on_time": 35.307, "note_off_time": 36.314}, {"pitch": 55, "velocity": 40, "note_on_time": 35.307, "note_off_time": 36.314}, {"pitch": 48, "velocity": 40, "note_on_time": 36.314, "note_off_time": 37.322}, {"pitch": 52, "velocity": 40, "note_on_time": 37.322, "note_off_time": 38.324}, {"pitch": 55, "velocity": 40, "note_on_time": 37.322, "note_off_time": 38.324}, {"pitch": 48, "velocity": 40, "note_on_time": 38.324, "note_off_time": 39.337}, {"pitch": 52, "velocity": 40, "note_on_time": 39.337, "note_off_time": 40.35}, {"pitch": 55, "velocity": 40, "note_on_time": 39.337, "note_off_time": 40.35}, {"pitch": 60, "velocity": 40, "note_on_time": 40.348, "note_off_time": 41.366}, {"pitch": 64, "velocity": 40, "note_on_time": 40.349, "note_off_time": 41.366}, {"pitch": 67, "velocity": 40, "note_on_time": 40.349, "note_off_time": 41.367}, {"pitch": 74, "velocity": 40, "note_on_time": 42.367, "note_off_time": 43.376}, {"pitch": 60, "velocity": 40, "note_on_time": 48.391, "note_off_time": 49.404}, {"pitch": 64, "velocity": 40, "note_on_time": 48.392, "note_off_time": 49.405}, {"pitch": 67, "velocity": 40, "note_on_time": 48.392, "note_off_time": 49.406}, {"pitch": 72, "velocity": 40, "note_on_time": 50.408, "note_off_time": 51.411}, {"pitch": 60, "velocity": 40, "note_on_time": 56.412, "note_off_time": 57.426}, {"pitch": 64, "velocity": 40, "note_on_time": 56.413, "note_off_time": 57.427}, {"pitch": 67, "velocity": 40, "note_on_time": 56.413, "note_off_time": 57.428}, {"pitch": 79, "velocity": 40, "note_on_time": 58.429, "note_off_time": 59.443}, {"pitch": 60, "velocity": 40, "note_on_time": 64.454, "note_off_time": 65.464}, {"pitch": 64, "velocity": 40, "note_on_time": 64.455, "note_off_time": 65.465}, {"pitch": 67, "velocity": 40, "note_on_time": 64.455, "note_off_time": 65.466}, {"pitch": 77, "velocity": 40, "note_on_time": 66.469, "note_off_time": 67.471}, {"pitch": 60, "velocity": 40, "note_on_time": 72.484, "note_off_time": 73.492}, {"pitch": 64, "velocity": 40, "note_on_time": 72.484, "note_off_time": 73.493}, {"pitch": 67, "velocity": 40, "note_on_time": 72.485, "note_off_time": 73.494}, {"pitch": 79, "velocity": 40, "note_on_time": 74.495, "note_off_time": 75.501}, {"pitch": 60, "velocity": 40, "note_on_time": 80.511, "note_off_time": 81.523}, {"pitch": 64, "velocity": 40, "note_on_time": 80.511, "note_off_time": 81.524}, {"pitch": 67, "velocity": 40, "note_on_time": 80.512, "note_off_time": 81.524}, {"pitch": 74, "velocity": 40, "note_on_time": 82.538, "note_off_time": 83.551}, {"pitch": 60, "velocity": 40, "note_on_time": 88.565, "note_off_time": 89.573}, {"pitch": 64, "velocity": 40, "note_on_time": 88.566, "note_off_time": 89.574}, {"pitch": 67, "velocity": 40, "note_on_time": 88.566, "note_off_time": 89.575}, {"pitch": 77, "velocity": 40, "note_on_time": 90.576, "note_off_time": 91.578}, {"pitch": 60, "velocity": 40, "note_on_time": 96.592, "note_off_time": 97.599}, {"pitch": 64, "velocity": 40, "note_on_time": 96.593, "note_off_time": 97.6}, {"pitch": 67, "velocity": 40, "note_on_time": 96.593, "note_off_time": 97.601}, {"pitch": 74, "velocity": 40, "note_on_time": 98.607, "note_off_time": 99.614}, {"pitch": 60, "velocity": 40, "note_on_time": 104.621, "note_off_time": 105.628}, {"pitch": 64, "velocity": 40, "note_on_time": 104.622, "note_off_time": 105.629}, {"pitch": 67, "velocity": 40, "note_on_time": 104.623, "note_off_time": 105.63}, {"pitch": 76, "velocity": 40, "note_on_time": 106.645, "note_off_time": 107.658}, {"pitch": 60, "velocity": 40, "note_on_time": 112.661, "note_off_time": 113.676}, {"pitch": 64, "velocity": 40, "note_on_time": 112.661, "note_off_time": 113.678}, {"pitch": 67, "velocity": 40, "note_on_time": 112.662, "note_off_time": 113.679}, {"pitch": 72, "velocity": 40, "note_on_time": 114.693, "note_off_time": 115.701}, {"pitch": 60, "velocity": 40, "note_on_time": 120.711, "note_off_time": 121.728}, {"pitch": 64, "velocity": 40, "note_on_time": 120.712, "note_off_time": 121.729}, {"pitch": 67, "velocity": 40, "note_on_time": 120.712, "note_off_time": 121.73}, {"pitch": 76, "velocity": 40, "note_on_time": 122.73, "note_off_time": 123.745}, {"pitch": 60, "velocity": 40, "note_on_time": 128.746, "note_off_time": 129.761}, {"pitch": 64, "velocity": 40, "note_on_time": 128.747, "note_off_time": 129.761}, {"pitch": 67, "velocity": 40, "note_on_time": 128.747, "note_off_time": 129.762}, {"pitch": 79, "velocity": 40, "note_on_time": 130.771, "note_off_time": 131.781}, {"pitch": 60, "velocity": 40, "note_on_time": 136.793, "note_off_time": 137.809}, {"pitch": 64, "velocity": 40, "note_on_time": 136.794, "note_off_time": 137.809}, {"pitch": 67, "velocity": 40, "note_on_time": 136.794, "note_off_time": 137.81}, {"pitch": 77, "velocity": 40, "note_on_time": 138.821, "note_off_time": 139.83}, {"pitch": 60, "velocity": 40, "note_on_time": 144.839, "note_off_time": 145.851}, {"pitch": 64, "velocity": 40, "note_on_time": 144.84, "note_off_time": 145.852}, {"pitch": 67, "velocity": 40, "note_on_time": 144.84, "note_off_time": 145.852}, {"pitch": 79, "velocity": 40, "note_on_time": 146.856, "note_off_time": 147.859}, {"pitch": 60, "velocity": 40, "note_on_time": 152.87, "note_off_time": 153.887}, {"pitch": 64, "velocity": 40, "note_on_time": 152.872, "note_off_time": 153.888}, {"pitch": 67, "velocity": 40, "note_on_time": 152.872, "note_off_time": 153.888}, {"pitch": 76, "velocity": 40, "note_on_time": 154.9, "note_off_time": 155.909}, {"pitch": 60, "velocity": 40, "note_on_time": 160.918, "note_off_time": 161.928}, {"pitch": 64, "velocity": 40, "note_on_time": 160.919, "note_off_time": 161.929}, {"pitch": 67, "velocity": 40, "note_on_time": 160.919, "note_off_time": 161.929}, {"pitch": 72, "velocity": 40, "note_on_time": 162.941, "note_off_time": 163.953}]</notes><options name="Option List">((4, 4), [0.5, 0.25], 3, 8, &lt;NoteRangePerHand.TWO_NOTES: 3&gt;, &lt;NoteRangePerHand.ONE_NOTE: 2&gt;, False, True, True, 100)</options></target_notes><trials><trial trial_no="1" timestamp="2023_06_26-14_04_11"><notes name="Played Notes">[{"pitch": 72, "velocity": 48, "note_on_time": 4.019, "note_off_time": 4.523}, {"pitch": 79, "velocity": 56, "note_on_time": 12.735, "note_off_time": 13.412}, {"pitch": 74, "velocity": 53, "note_on_time": 15.744, "note_off_time": 16.299}, {"pitch": 76, "velocity": 62, "note_on_time": 20.687, "note_off_time": 21.3}, {"pitch": 74, "velocity": 57, "note_on_time": 23.878, "note_off_time": 24.484}, {"pitch": 72, "velocity": 58, "note_on_time": 27.762, "note_off_time": 28.449}, {"pitch": 77, "velocity": 53, "note_on_time": 36.578, "note_off_time": 37.283}, {"pitch": 76, "velocity": 59, "note_on_time": 38.705, "note_off_time": 39.583}, {"pitch": 79, "velocity": 59, "note_on_time": 44.444, "note_off_time": 44.938}, {"pitch": 77, "velocity": 49, "note_on_time": 45.773, "note_off_time": 46.365}, {"pitch": 74, "velocity": 62, "note_on_time": 47.683, "note_off_time": 48.462}, {"pitch": 72, "velocity": 61, "note_on_time": 51.809, "note_off_time": 52.517}, {"pitch": 76, "velocity": 53, "note_on_time": 60.529, "note_off_time": 61.112}, {"pitch": 74, "velocity": 62, "note_on_time": 61.916, "note_off_time": 62.376}, {"pitch": 77, "velocity": 54, "note_on_time": 64.033, "note_off_time": 64.697}, {"pitch": 74, "velocity": 60, "note_on_time": 69.097, "note_off_time": 69.711}, {"pitch": 76, "velocity": 67, "note_on_time": 71.295, "note_off_time": 72.045}, {"pitch": 77, "velocity": 57, "note_on_time": 77.306, "note_off_time": 77.824}, {"pitch": 79, "velocity": 53, "note_on_time": 78.452, "note_off_time": 79.238}, {"pitch": 74, "velocity": 58, "note_on_time": 85.051, "note_off_time": 86.021}, {"pitch": 77, "velocity": 39, "note_on_time": 92.781, "note_off_time": 93.686}, {"pitch": 77, "velocity": 34, "note_on_time": 96.759, "note_off_time": 96.846}, {"pitch": 76, "velocity": 58, "note_on_time": 100.401, "note_off_time": 100.967}, {"pitch": 79, "velocity": 43, "note_on_time": 101.758, "note_off_time": 102.276}, {"pitch": 74, "velocity": 66, "note_on_time": 104.179, "note_off_time": 104.96}, {"pitch": 77, "velocity": 63, "note_on_time": 109.185, "note_off_time": 109.718}, {"pitch": 76, "velocity": 62, "note_on_time": 111.125, "note_off_time": 111.802}, {"pitch": 72, "velocity": 52, "note_on_time": 116.133, "note_off_time": 116.84}, {"pitch": 74, "velocity": 41, "note_on_time": 124.588, "note_off_time": 125.063}, {"pitch": 76, "velocity": 62, "note_on_time": 126.778, "note_off_time": 127.829}, {"pitch": 79, "velocity": 65, "note_on_time": 132.437, "note_off_time": 133.419}, {"pitch": 77, "velocity": 57, "note_on_time": 140.388, "note_off_time": 141.559}, {"pitch": 79, "velocity": 61, "note_on_time": 148.401, "note_off_time": 149.655}, {"pitch": 74, "velocity": 49, "note_on_time": 156.724, "note_off_time": 157.226}, {"pitch": 76, "velocity": 64, "note_on_time": 158.123, "note_off_time": 159.143}]</notes><guidance name="Guidance Mode">None</guidance><error name="Error value">99</error></trial><trial trial_no="2" timestamp="2023_06_26-14_09_43"><notes name="Played Notes">[{"pitch": 72, "velocity": 57, "note_on_time": 2.515, "note_off_time": 2.684}, {"pitch": 74, "velocity": 49, "note_on_time": 3.092, "note_off_time": 3.267}, {"pitch": 76, "velocity": 55, "note_on_time": 3.603, "note_off_time": 3.768}, {"pitch": 77, "velocity": 69, "note_on_time": 4.119, "note_off_time": 4.279}, {"pitch": 79, "velocity": 51, "note_on_time": 4.695, "note_off_time": 4.942}, {"pitch": 72, "velocity": 53, "note_on_time": 5.461, "note_off_time": 5.666}, {"pitch": 74, "velocity": 53, "note_on_time": 6.02, "note_off_time": 6.143}, {"pitch": 76, "velocity": 52, "note_on_time": 6.562, "note_off_time": 6.713}, {"pitch": 77, "velocity": 67, "note_on_time": 7.042, "note_off_time": 7.205}, {"pitch": 79, "velocity": 54, "note_on_time": 7.568, "note_off_time": 7.759}, {"pitch": 72, "velocity": 55, "note_on_time": 8.121, "note_off_time": 8.272}, {"pitch": 74, "velocity": 56, "note_on_time": 8.631, "note_off_time": 8.766}, {"pitch": 76, "velocity": 53, "note_on_time": 9.132, "note_off_time": 9.247}, {"pitch": 77, "velocity": 54, "note_on_time": 9.617, "note_off_time": 9.747}, {"pitch": 79, "velocity": 51, "note_on_time": 10.122, "note_off_time": 10.295}, {"pitch": 72, "velocity": 55, "note_on_time": 10.682, "note_off_time": 10.834}, {"pitch": 74, "velocity": 58, "note_on_time": 11.213, "note_off_time": 11.339}, {"pitch": 76, "velocity": 60, "note_on_time": 11.713, "note_off_time": 11.846}, {"pitch": 77, "velocity": 55, "note_on_time": 12.203, "note_off_time": 12.365}, {"pitch": 79, "velocity": 56, "note_on_time": 12.724, "note_off_time": 12.884}, {"pitch": 79, "velocity": 60, "note_on_time": 13.395, "note_off_time": 13.539}, {"pitch": 77, "velocity": 52, "note_on_time": 13.86, "note_off_time": 14.016}, {"pitch": 76, "velocity": 62, "note_on_time": 14.322, "note_off_time": 14.466}, {"pitch": 74, "velocity": 64, "note_on_time": 14.78, "note_off_time": 14.902}, {"pitch": 72, "velocity": 52, "note_on_time": 15.256, "note_off_time": 15.397}, {"pitch": 79, "velocity": 56, "note_on_time": 15.786, "note_off_time": 15.934}, {"pitch": 77, "velocity": 20, "note_on_time": 16.33, "note_off_time": 16.442}, {"pitch": 76, "velocity": 14, "note_on_time": 17.009, "note_off_time": 17.209}, {"pitch": 74, "velocity": 64, "note_on_time": 17.534, "note_off_time": 17.65}, {"pitch": 72, "velocity": 58, "note_on_time": 18.034, "note_off_time": 18.182}, {"pitch": 79, "velocity": 61, "note_on_time": 18.525, "note_off_time": 18.685}, {"pitch": 77, "velocity": 65, "note_on_time": 19.03, "note_off_time": 19.168}, {"pitch": 76, "velocity": 61, "note_on_time": 19.541, "note_off_time": 19.766}, {"pitch": 74, "velocity": 53, "note_on_time": 20.018, "note_off_time": 20.503}, {"pitch": 72, "velocity": 54, "note_on_time": 20.504, "note_off_time": 20.677}, {"pitch": 79, "velocity": 65, "note_on_time": 21.025, "note_off_time": 21.538}, {"pitch": 77, "velocity": 57, "note_on_time": 21.517, "note_off_time": 21.712}, {"pitch": 76, "velocity": 59, "note_on_time": 22.086, "note_off_time": 22.584}, {"pitch": 74, "velocity": 40, "note_on_time": 22.584, "note_off_time": 22.859}, {"pitch": 72, "velocity": 48, "note_on_time": 23.066, "note_off_time": 23.175}, {"pitch": 79, "velocity": 63, "note_on_time": 23.681, "note_off_time": 23.821}, {"pitch": 77, "velocity": 61, "note_on_time": 24.224, "note_off_time": 24.342}, {"pitch": 76, "velocity": 64, "note_on_time": 24.741, "note_off_time": 24.876}, {"pitch": 74, "velocity": 66, "note_on_time": 25.247, "note_off_time": 25.38}, {"pitch": 72, "velocity": 59, "note_on_time": 25.774, "note_off_time": 25.951}, {"pitch": 74, "velocity": 64, "note_on_time": 27.193, "note_off_time": 27.312}, {"pitch": 76, "velocity": 61, "note_on_time": 27.709, "note_off_time": 27.842}, {"pitch": 77, "velocity": 60, "note_on_time": 28.166, "note_off_time": 28.31}, {"pitch": 79, "velocity": 64, "note_on_time": 28.619, "note_off_time": 28.756}, {"pitch": 72, "velocity": 63, "note_on_time": 29.185, "note_off_time": 29.321}, {"pitch": 74, "velocity": 57, "note_on_time": 29.735, "note_off_time": 29.857}, {"pitch": 76, "velocity": 58, "note_on_time": 30.227, "note_off_time": 30.36}, {"pitch": 77, "velocity": 62, "note_on_time": 30.72, "note_off_time": 30.854}, {"pitch": 79, "velocity": 64, "note_on_time": 31.233, "note_off_time": 31.362}, {"pitch": 72, "velocity": 59, "note_on_time": 31.768, "note_off_time": 31.909}, {"pitch": 74, "velocity": 62, "note_on_time": 32.286, "note_off_time": 32.411}, {"pitch": 76, "velocity": 58, "note_on_time": 32.795, "note_off_time": 32.921}, {"pitch": 77, "velocity": 62, "note_on_time": 33.283, "note_off_time": 33.419}, {"pitch": 79, "velocity": 66, "note_on_time": 33.755, "note_off_time": 33.901}, {"pitch": 72, "velocity": 64, "note_on_time": 34.28, "note_off_time": 34.418}, {"pitch": 74, "velocity": 56, "note_on_time": 34.851, "note_off_time": 34.967}, {"pitch": 76, "velocity": 54, "note_on_time": 35.344, "note_off_time": 35.487}, {"pitch": 77, "velocity": 63, "note_on_time": 35.849, "note_off_time": 35.995}, {"pitch": 79, "velocity": 62, "note_on_time": 36.332, "note_off_time": 36.494}, {"pitch": 72, "velocity": 59, "note_on_time": 36.891, "note_off_time": 37.041}, {"pitch": 77, "velocity": 49, "note_on_time": 39.571, "note_off_time": 39.699}, {"pitch": 76, "velocity": 68, "note_on_time": 40.059, "note_off_time": 40.195}, {"pitch": 74, "velocity": 51, "note_on_time": 40.552, "note_off_time": 40.705}, {"pitch": 72, "velocity": 57, "note_on_time": 41.093, "note_off_time": 41.251}, {"pitch": 79, "velocity": 66, "note_on_time": 41.671, "note_off_time": 41.855}, {"pitch": 77, "velocity": 59, "note_on_time": 43.211, "note_off_time": 43.376}, {"pitch": 76, "velocity": 63, "note_on_time": 43.69, "note_off_time": 43.831}, {"pitch": 74, "velocity": 60, "note_on_time": 44.185, "note_off_time": 44.295}, {"pitch": 72, "velocity": 55, "note_on_time": 44.664, "note_off_time": 44.812}, {"pitch": 79, "velocity": 55, "note_on_time": 45.189, "note_off_time": 45.35}, {"pitch": 77, "velocity": 60, "note_on_time": 46.199, "note_off_time": 46.354}, {"pitch": 76, "velocity": 63, "note_on_time": 46.674, "note_off_time": 46.8}, {"pitch": 74, "velocity": 65, "note_on_time": 47.181, "note_off_time": 47.292}, {"pitch": 72, "velocity": 56, "note_on_time": 47.672, "note_off_time": 47.839}, {"pitch": 79, "velocity": 51, "note_on_time": 48.149, "note_off_time": 48.32}, {"pitch": 77, "velocity": 61, "note_on_time": 48.678, "note_off_time": 48.812}, {"pitch": 76, "velocity": 60, "note_on_time": 49.171, "note_off_time": 49.296}, {"pitch": 74, "velocity": 62, "note_on_time": 49.687, "note_off_time": 49.804}, {"pitch": 72, "velocity": 57, "note_on_time": 50.181, "note_off_time": 50.337}, {"pitch": 79, "velocity": 64, "note_on_time": 50.703, "note_off_time": 50.856}, {"pitch": 76, "velocity": 68, "note_on_time": 52.512, "note_off_time": 52.637}, {"pitch": 77, "velocity": 57, "note_on_time": 52.98, "note_off_time": 53.111}, {"pitch": 79, "velocity": 60, "note_on_time": 53.463, "note_off_time": 53.642}, {"pitch": 74, "velocity": 65, "note_on_time": 53.983, "note_off_time": 54.07}, {"pitch": 72, "velocity": 57, "note_on_time": 54.455, "note_off_time": 54.587}, {"pitch": 76, "velocity": 42, "note_on_time": 54.975, "note_off_time": 55.125}, {"pitch": 77, "velocity": 58, "note_on_time": 55.475, "note_off_time": 55.599}, {"pitch": 79, "velocity": 68, "note_on_time": 55.938, "note_off_time": 56.093}, {"pitch": 74, "velocity": 58, "note_on_time": 56.427, "note_off_time": 56.566}, {"pitch": 72, "velocity": 40, "note_on_time": 56.946, "note_off_time": 57.036}, {"pitch": 76, "velocity": 65, "note_on_time": 57.421, "note_off_time": 57.546}, {"pitch": 77, "velocity": 64, "note_on_time": 57.916, "note_off_time": 58.033}, {"pitch": 79, "velocity": 69, "note_on_time": 58.394, "note_off_time": 58.555}, {"pitch": 74, "velocity": 60, "note_on_time": 58.9, "note_off_time": 59.04}, {"pitch": 72, "velocity": 64, "note_on_time": 59.385, "note_off_time": 59.507}, {"pitch": 76, "velocity": 55, "note_on_time": 60.268, "note_off_time": 60.387}, {"pitch": 77, "velocity": 61, "note_on_time": 60.697, "note_off_time": 60.825}, {"pitch": 79, "velocity": 55, "note_on_time": 61.156, "note_off_time": 61.292}, {"pitch": 74, "velocity": 64, "note_on_time": 61.65, "note_off_time": 61.745}, {"pitch": 72, "velocity": 67, "note_on_time": 62.134, "note_off_time": 62.29}, {"pitch": 76, "velocity": 64, "note_on_time": 63.466, "note_off_time": 63.585}, {"pitch": 74, "velocity": 56, "note_on_time": 63.916, "note_off_time": 64.05}, {"pitch": 72, "velocity": 68, "note_on_time": 64.44, "note_off_time": 64.546}, {"pitch": 77, "velocity": 62, "note_on_time": 65.029, "note_off_time": 65.134}, {"pitch": 79, "velocity": 69, "note_on_time": 65.563, "note_off_time": 65.673}, {"pitch": 76, "velocity": 75, "note_on_time": 66.688, "note_off_time": 66.824}, {"pitch": 74, "velocity": 67, "note_on_time": 67.14, "note_off_time": 67.264}, {"pitch": 72, "velocity": 59, "note_on_time": 67.605, "note_off_time": 67.726}, {"pitch": 77, "velocity": 60, "note_on_time": 68.027, "note_off_time": 68.125}, {"pitch": 79, "velocity": 69, "note_on_time": 68.507, "note_off_time": 68.66}, {"pitch": 76, "velocity": 65, "note_on_time": 69.213, "note_off_time": 69.335}, {"pitch": 74, "velocity": 65, "note_on_time": 69.671, "note_off_time": 69.786}, {"pitch": 72, "velocity": 58, "note_on_time": 70.144, "note_off_time": 70.261}, {"pitch": 77, "velocity": 64, "note_on_time": 70.705, "note_off_time": 70.838}, {"pitch": 79, "velocity": 57, "note_on_time": 71.189, "note_off_time": 71.332}, {"pitch": 76, "velocity": 63, "note_on_time": 71.797, "note_off_time": 71.946}, {"pitch": 74, "velocity": 65, "note_on_time": 72.273, "note_off_time": 72.392}, {"pitch": 72, "velocity": 64, "note_on_time": 72.755, "note_off_time": 72.881}, {"pitch": 77, "velocity": 77, "note_on_time": 73.565, "note_off_time": 73.659}, {"pitch": 79, "velocity": 66, "note_on_time": 74.101, "note_off_time": 74.228}, {"pitch": 77, "velocity": 65, "note_on_time": 74.923, "note_off_time": 75.044}, {"pitch": 79, "velocity": 59, "note_on_time": 75.444, "note_off_time": 75.585}, {"pitch": 76, "velocity": 51, "note_on_time": 75.983, "note_off_time": 76.116}, {"pitch": 74, "velocity": 66, "note_on_time": 76.456, "note_off_time": 76.565}, {"pitch": 72, "velocity": 55, "note_on_time": 76.965, "note_off_time": 77.067}, {"pitch": 77, "velocity": 59, "note_on_time": 77.436, "note_off_time": 77.539}, {"pitch": 79, "velocity": 54, "note_on_time": 77.927, "note_off_time": 78.084}, {"pitch": 76, "velocity": 66, "note_on_time": 78.361, "note_off_time": 78.504}, {"pitch": 74, "velocity": 48, "note_on_time": 78.879, "note_off_time": 79.002}, {"pitch": 72, "velocity": 55, "note_on_time": 79.355, "note_off_time": 79.452}, {"pitch": 76, "velocity": 53, "note_on_time": 80.113, "note_off_time": 80.234}, {"pitch": 77, "velocity": 74, "note_on_time": 80.797, "note_off_time": 80.888}, {"pitch": 79, "velocity": 65, "note_on_time": 81.246, "note_off_time": 81.37}, {"pitch": 76, "velocity": 70, "note_on_time": 81.826, "note_off_time": 81.947}, {"pitch": 74, "velocity": 47, "note_on_time": 82.308, "note_off_time": 82.417}, {"pitch": 72, "velocity": 55, "note_on_time": 82.923, "note_off_time": 83.021}, {"pitch": 77, "velocity": 66, "note_on_time": 83.583, "note_off_time": 83.69}, {"pitch": 79, "velocity": 61, "note_on_time": 84.011, "note_off_time": 84.136}, {"pitch": 76, "velocity": 40, "note_on_time": 84.533, "note_off_time": 84.653}, {"pitch": 74, "velocity": 63, "note_on_time": 85.09, "note_off_time": 85.182}, {"pitch": 72, "velocity": 54, "note_on_time": 85.645, "note_off_time": 85.755}, {"pitch": 72, "velocity": 69, "note_on_time": 86.524, "note_off_time": 86.628}, {"pitch": 74, "velocity": 60, "note_on_time": 87.421, "note_off_time": 87.531}, {"pitch": 72, "velocity": 69, "note_on_time": 87.929, "note_off_time": 88.027}, {"pitch": 76, "velocity": 67, "note_on_time": 88.401, "note_off_time": 88.502}, {"pitch": 77, "velocity": 60, "note_on_time": 88.858, "note_off_time": 88.986}, {"pitch": 79, "velocity": 58, "note_on_time": 89.348, "note_off_time": 89.476}, {"pitch": 74, "velocity": 61, "note_on_time": 90.198, "note_off_time": 90.302}, {"pitch": 72, "velocity": 70, "note_on_time": 90.653, "note_off_time": 90.764}, {"pitch": 76, "velocity": 63, "note_on_time": 91.093, "note_off_time": 91.205}, {"pitch": 77, "velocity": 64, "note_on_time": 91.545, "note_off_time": 91.696}, {"pitch": 79, "velocity": 70, "note_on_time": 91.993, "note_off_time": 92.119}, {"pitch": 74, "velocity": 58, "note_on_time": 92.448, "note_off_time": 92.571}, {"pitch": 72, "velocity": 70, "note_on_time": 92.935, "note_off_time": 93.031}, {"pitch": 76, "velocity": 62, "note_on_time": 93.393, "note_off_time": 93.523}, {"pitch": 77, "velocity": 60, "note_on_time": 93.853, "note_off_time": 93.969}, {"pitch": 79, "velocity": 57, "note_on_time": 94.316, "note_off_time": 94.441}, {"pitch": 74, "velocity": 57, "note_on_time": 94.771, "note_off_time": 94.893}, {"pitch": 72, "velocity": 65, "note_on_time": 95.286, "note_off_time": 95.393}, {"pitch": 76, "velocity": 62, "note_on_time": 95.779, "note_off_time": 95.893}, {"pitch": 77, "velocity": 68, "note_on_time": 96.258, "note_off_time": 96.376}, {"pitch": 79, "velocity": 63, "note_on_time": 96.775, "note_off_time": 96.91}, {"pitch": 72, "velocity": 63, "note_on_time": 97.278, "note_off_time": 97.388}, {"pitch": 74, "velocity": 62, "note_on_time": 97.767, "note_off_time": 97.876}, {"pitch": 76, "velocity": 62, "note_on_time": 98.253, "note_off_time": 98.383}, {"pitch": 77, "velocity": 65, "note_on_time": 98.702, "note_off_time": 98.823}, {"pitch": 79, "velocity": 68, "note_on_time": 99.17, "note_off_time": 99.295}, {"pitch": 72, "velocity": 58, "note_on_time": 99.645, "note_off_time": 99.76}, {"pitch": 74, "velocity": 62, "note_on_time": 100.151, "note_off_time": 100.243}, {"pitch": 76, "velocity": 68, "note_on_time": 100.613, "note_off_time": 100.713}, {"pitch": 77, "velocity": 57, "note_on_time": 101.041, "note_off_time": 101.152}, {"pitch": 79, "velocity": 55, "note_on_time": 101.485, "note_off_time": 101.606}, {"pitch": 72, "velocity": 59, "note_on_time": 101.986, "note_off_time": 102.095}, {"pitch": 74, "velocity": 62, "note_on_time": 102.481, "note_off_time": 102.566}, {"pitch": 76, "velocity": 60, "note_on_time": 102.925, "note_off_time": 103.028}, {"pitch": 77, "velocity": 57, "note_on_time": 103.348, "note_off_time": 103.478}, {"pitch": 79, "velocity": 66, "note_on_time": 103.788, "note_off_time": 103.928}, {"pitch": 72, "velocity": 60, "note_on_time": 104.278, "note_off_time": 104.406}, {"pitch": 74, "velocity": 62, "note_on_time": 104.773, "note_off_time": 104.868}, {"pitch": 76, "velocity": 64, "note_on_time": 105.243, "note_off_time": 105.358}, {"pitch": 77, "velocity": 66, "note_on_time": 105.679, "note_off_time": 105.792}, {"pitch": 79, "velocity": 64, "note_on_time": 106.133, "note_off_time": 106.24}, {"pitch": 79, "velocity": 66, "note_on_time": 106.629, "note_off_time": 106.756}, {"pitch": 77, "velocity": 56, "note_on_time": 107.042, "note_off_time": 107.161}, {"pitch": 76, "velocity": 60, "note_on_time": 107.503, "note_off_time": 107.644}, {"pitch": 74, "velocity": 60, "note_on_time": 107.978, "note_off_time": 108.074}, {"pitch": 72, "velocity": 54, "note_on_time": 108.401, "note_off_time": 108.541}, {"pitch": 79, "velocity": 56, "note_on_time": 108.866, "note_off_time": 109.007}, {"pitch": 77, "velocity": 61, "note_on_time": 109.358, "note_off_time": 109.463}, {"pitch": 76, "velocity": 60, "note_on_time": 109.833, "note_off_time": 109.947}, {"pitch": 74, "velocity": 58, "note_on_time": 110.329, "note_off_time": 110.422}, {"pitch": 72, "velocity": 59, "note_on_time": 110.755, "note_off_time": 110.877}, {"pitch": 79, "velocity": 61, "note_on_time": 111.218, "note_off_time": 111.364}, {"pitch": 77, "velocity": 64, "note_on_time": 111.703, "note_off_time": 111.808}, {"pitch": 76, "velocity": 60, "note_on_time": 112.193, "note_off_time": 112.29}, {"pitch": 74, "velocity": 58, "note_on_time": 112.652, "note_off_time": 112.747}, {"pitch": 72, "velocity": 53, "note_on_time": 113.104, "note_off_time": 113.253}, {"pitch": 79, "velocity": 41, "note_on_time": 113.558, "note_off_time": 113.734}, {"pitch": 77, "velocity": 61, "note_on_time": 114.064, "note_off_time": 114.177}, {"pitch": 76, "velocity": 55, "note_on_time": 114.608, "note_off_time": 114.741}, {"pitch": 74, "velocity": 62, "note_on_time": 115.125, "note_off_time": 115.23}, {"pitch": 72, "velocity": 69, "note_on_time": 115.639, "note_off_time": 115.745}, {"pitch": 74, "velocity": 63, "note_on_time": 117.264, "note_off_time": 117.36}, {"pitch": 76, "velocity": 66, "note_on_time": 117.698, "note_off_time": 117.812}, {"pitch": 77, "velocity": 63, "note_on_time": 118.134, "note_off_time": 118.256}, {"pitch": 79, "velocity": 65, "note_on_time": 118.543, "note_off_time": 118.664}, {"pitch": 72, "velocity": 59, "note_on_time": 119.045, "note_off_time": 119.131}, {"pitch": 74, "velocity": 55, "note_on_time": 119.549, "note_off_time": 119.655}, {"pitch": 76, "velocity": 65, "note_on_time": 119.999, "note_off_time": 120.126}, {"pitch": 77, "velocity": 60, "note_on_time": 120.449, "note_off_time": 120.577}, {"pitch": 79, "velocity": 62, "note_on_time": 120.915, "note_off_time": 121.033}, {"pitch": 72, "velocity": 60, "note_on_time": 121.383, "note_off_time": 121.505}, {"pitch": 74, "velocity": 55, "note_on_time": 121.891, "note_off_time": 122.011}, {"pitch": 76, "velocity": 59, "note_on_time": 122.375, "note_off_time": 122.493}, {"pitch": 77, "velocity": 56, "note_on_time": 122.832, "note_off_time": 122.957}, {"pitch": 79, "velocity": 59, "note_on_time": 123.287, "note_off_time": 123.425}, {"pitch": 72, "velocity": 61, "note_on_time": 123.788, "note_off_time": 123.931}, {"pitch": 74, "velocity": 59, "note_on_time": 124.279, "note_off_time": 124.4}, {"pitch": 76, "velocity": 59, "note_on_time": 124.765, "note_off_time": 124.873}, {"pitch": 77, "velocity": 62, "note_on_time": 125.205, "note_off_time": 125.335}, {"pitch": 79, "velocity": 70, "note_on_time": 125.666, "note_off_time": 125.807}, {"pitch": 72, "velocity": 62, "note_on_time": 126.217, "note_off_time": 126.327}, {"pitch": 77, "velocity": 67, "note_on_time": 128.886, "note_off_time": 128.984}, {"pitch": 76, "velocity": 62, "note_on_time": 129.313, "note_off_time": 129.397}, {"pitch": 74, "velocity": 55, "note_on_time": 129.761, "note_off_time": 129.87}, {"pitch": 72, "velocity": 54, "note_on_time": 130.223, "note_off_time": 130.33}, {"pitch": 79, "velocity": 58, "note_on_time": 130.686, "note_off_time": 130.844}, {"pitch": 77, "velocity": 57, "note_on_time": 131.188, "note_off_time": 131.279}, {"pitch": 76, "velocity": 61, "note_on_time": 131.656, "note_off_time": 131.766}, {"pitch": 74, "velocity": 57, "note_on_time": 132.132, "note_off_time": 132.24}, {"pitch": 72, "velocity": 57, "note_on_time": 132.608, "note_off_time": 132.737}, {"pitch": 79, "velocity": 66, "note_on_time": 133.029, "note_off_time": 133.167}, {"pitch": 77, "velocity": 54, "note_on_time": 133.516, "note_off_time": 133.655}, {"pitch": 76, "velocity": 52, "note_on_time": 134.034, "note_off_time": 134.158}, {"pitch": 74, "velocity": 56, "note_on_time": 134.558, "note_off_time": 134.66}, {"pitch": 72, "velocity": 56, "note_on_time": 135.012, "note_off_time": 135.162}, {"pitch": 79, "velocity": 55, "note_on_time": 135.454, "note_off_time": 135.62}, {"pitch": 77, "velocity": 58, "note_on_time": 135.943, "note_off_time": 136.074}, {"pitch": 76, "velocity": 53, "note_on_time": 136.444, "note_off_time": 136.563}, {"pitch": 74, "velocity": 61, "note_on_time": 136.917, "note_off_time": 137.013}, {"pitch": 72, "velocity": 57, "note_on_time": 137.42, "note_off_time": 137.547}, {"pitch": 76, "velocity": 60, "note_on_time": 139.705, "note_off_time": 139.819}, {"pitch": 77, "velocity": 58, "note_on_time": 140.163, "note_off_time": 140.269}, {"pitch": 79, "velocity": 67, "note_on_time": 140.608, "note_off_time": 140.732}, {"pitch": 74, "velocity": 54, "note_on_time": 141.063, "note_off_time": 141.174}, {"pitch": 72, "velocity": 58, "note_on_time": 141.53, "note_off_time": 141.645}, {"pitch": 76, "velocity": 55, "note_on_time": 142.02, "note_off_time": 142.133}, {"pitch": 77, "velocity": 53, "note_on_time": 142.482, "note_off_time": 142.595}, {"pitch": 79, "velocity": 68, "note_on_time": 142.91, "note_off_time": 143.026}, {"pitch": 74, "velocity": 65, "note_on_time": 143.435, "note_off_time": 143.541}, {"pitch": 72, "velocity": 57, "note_on_time": 143.917, "note_off_time": 144.039}, {"pitch": 76, "velocity": 64, "note_on_time": 144.441, "note_off_time": 144.558}, {"pitch": 77, "velocity": 60, "note_on_time": 144.904, "note_off_time": 145.045}, {"pitch": 79, "velocity": 60, "note_on_time": 145.354, "note_off_time": 145.493}, {"pitch": 74, "velocity": 55, "note_on_time": 145.797, "note_off_time": 145.909}, {"pitch": 72, "velocity": 55, "note_on_time": 146.279, "note_off_time": 146.402}, {"pitch": 76, "velocity": 62, "note_on_time": 146.789, "note_off_time": 146.912}, {"pitch": 77, "velocity": 54, "note_on_time": 147.271, "note_off_time": 147.388}, {"pitch": 79, "velocity": 40, "note_on_time": 147.753, "note_off_time": 147.886}, {"pitch": 74, "velocity": 56, "note_on_time": 148.223, "note_off_time": 148.313}, {"pitch": 72, "velocity": 47, "note_on_time": 148.71, "note_off_time": 148.824}, {"pitch": 76, "velocity": 63, "note_on_time": 149.478, "note_off_time": 149.604}, {"pitch": 74, "velocity": 54, "note_on_time": 149.92, "note_off_time": 150.041}, {"pitch": 72, "velocity": 51, "note_on_time": 150.388, "note_off_time": 150.501}, {"pitch": 77, "velocity": 59, "note_on_time": 150.875, "note_off_time": 150.979}, {"pitch": 79, "velocity": 64, "note_on_time": 151.366, "note_off_time": 151.48}, {"pitch": 76, "velocity": 62, "note_on_time": 152.004, "note_off_time": 152.132}, {"pitch": 74, "velocity": 62, "note_on_time": 152.46, "note_off_time": 152.571}, {"pitch": 72, "velocity": 53, "note_on_time": 152.909, "note_off_time": 153.027}, {"pitch": 77, "velocity": 62, "note_on_time": 153.328, "note_off_time": 153.426}, {"pitch": 79, "velocity": 52, "note_on_time": 153.769, "note_off_time": 153.923}, {"pitch": 76, "velocity": 62, "note_on_time": 154.317, "note_off_time": 154.453}, {"pitch": 74, "velocity": 59, "note_on_time": 154.812, "note_off_time": 154.926}, {"pitch": 72, "velocity": 50, "note_on_time": 155.269, "note_off_time": 155.392}, {"pitch": 77, "velocity": 60, "note_on_time": 155.698, "note_off_time": 155.808}, {"pitch": 79, "velocity": 53, "note_on_time": 156.18, "note_off_time": 156.301}, {"pitch": 76, "velocity": 57, "note_on_time": 156.753, "note_off_time": 156.871}, {"pitch": 74, "velocity": 58, "note_on_time": 157.212, "note_off_time": 157.312}, {"pitch": 72, "velocity": 57, "note_on_time": 157.646, "note_off_time": 157.77}, {"pitch": 77, "velocity": 61, "note_on_time": 158.132, "note_off_time": 158.241}, {"pitch": 79, "velocity": 56, "note_on_time": 158.61, "note_off_time": 158.73}, {"pitch": 77, "velocity": 57, "note_on_time": 159.218, "note_off_time": 159.34}, {"pitch": 79, "velocity": 48, "note_on_time": 159.685, "note_off_time": 159.829}, {"pitch": 76, "velocity": 59, "note_on_time": 160.367, "note_off_time": 160.481}, {"pitch": 74, "velocity": 56, "note_on_time": 160.771, "note_off_time": 160.864}, {"pitch": 72, "velocity": 59, "note_on_time": 161.223, "note_off_time": 161.346}, {"pitch": 77, "velocity": 59, "note_on_time": 161.637, "note_off_time": 161.754}, {"pitch": 79, "velocity": 63, "note_on_time": 162.046, "note_off_time": 162.195}, {"pitch": 76, "velocity": 58, "note_on_time": 162.585, "note_off_time": 162.737}, {"pitch": 74, "velocity": 63, "note_on_time": 163.007, "note_off_time": 163.094}, {"pitch": 72, "velocity": 58, "note_on_time": 163.426, "note_off_time": 163.503}, {"pitch": 77, "velocity": 58, "note_on_time": 164.131, "note_off_time": 164.23}, {"pitch": 79, "velocity": 67, "note_on_time": 164.508, "note_off_time": 164.604}, {"pitch": 76, "velocity": 55, "note_on_time": 165.03, "note_off_time": 165.127}, {"pitch": 74, "velocity": 63, "note_on_time": 165.444, "note_off_time": 165.548}, {"pitch": 72, "velocity": 63, "note_on_time": 165.873, "note_off_time": 165.963}, {"pitch": 77, "velocity": 54, "note_on_time": 166.468, "note_off_time": 166.569}, {"pitch": 79, "velocity": 55, "note_on_time": 166.893, "note_off_time": 166.98}, {"pitch": 76, "velocity": 66, "note_on_time": 167.308, "note_off_time": 167.434}, {"pitch": 74, "velocity": 62, "note_on_time": 167.748, "note_off_time": 167.854}, {"pitch": 72, "velocity": 60, "note_on_time": 168.261, "note_off_time": 168.345}, {"pitch": 74, "velocity": 58, "note_on_time": 170.221, "note_off_time": 170.302}, {"pitch": 72, "velocity": 59, "note_on_time": 170.637, "note_off_time": 170.749}, {"pitch": 76, "velocity": 54, "note_on_time": 171.092, "note_off_time": 171.196}, {"pitch": 77, "velocity": 55, "note_on_time": 171.485, "note_off_time": 171.632}, {"pitch": 79, "velocity": 66, "note_on_time": 171.915, "note_off_time": 172.027}, {"pitch": 74, "velocity": 51, "note_on_time": 172.339, "note_off_time": 172.463}, {"pitch": 72, "velocity": 56, "note_on_time": 172.766, "note_off_time": 172.872}, {"pitch": 76, "velocity": 50, "note_on_time": 173.151, "note_off_time": 173.269}, {"pitch": 77, "velocity": 56, "note_on_time": 173.57, "note_off_time": 173.695}, {"pitch": 79, "velocity": 56, "note_on_time": 173.987, "note_off_time": 174.1}, {"pitch": 74, "velocity": 62, "note_on_time": 174.426, "note_off_time": 174.538}, {"pitch": 72, "velocity": 50, "note_on_time": 174.853, "note_off_time": 174.969}, {"pitch": 76, "velocity": 55, "note_on_time": 175.285, "note_off_time": 175.399}, {"pitch": 77, "velocity": 62, "note_on_time": 175.764, "note_off_time": 175.875}, {"pitch": 79, "velocity": 60, "note_on_time": 176.226, "note_off_time": 176.322}, {"pitch": 74, "velocity": 58, "note_on_time": 176.671, "note_off_time": 176.768}, {"pitch": 72, "velocity": 47, "note_on_time": 177.087, "note_off_time": 177.212}, {"pitch": 76, "velocity": 58, "note_on_time": 177.505, "note_off_time": 177.701}, {"pitch": 77, "velocity": 61, "note_on_time": 178.015, "note_off_time": 178.111}, {"pitch": 79, "velocity": 61, "note_on_time": 178.556, "note_off_time": 178.649}, {"pitch": 72, "velocity": 57, "note_on_time": 179.973, "note_off_time": 180.088}, {"pitch": 74, "velocity": 56, "note_on_time": 180.414, "note_off_time": 180.532}, {"pitch": 76, "velocity": 64, "note_on_time": 180.866, "note_off_time": 181.0}, {"pitch": 77, "velocity": 44, "note_on_time": 181.307, "note_off_time": 181.413}, {"pitch": 79, "velocity": 49, "note_on_time": 181.717, "note_off_time": 181.836}, {"pitch": 72, "velocity": 52, "note_on_time": 182.179, "note_off_time": 182.287}, {"pitch": 74, "velocity": 54, "note_on_time": 182.644, "note_off_time": 182.764}, {"pitch": 76, "velocity": 57, "note_on_time": 183.072, "note_off_time": 183.174}, {"pitch": 77, "velocity": 56, "note_on_time": 183.494, "note_off_time": 183.605}, {"pitch": 79, "velocity": 46, "note_on_time": 183.955, "note_off_time": 184.091}, {"pitch": 72, "velocity": 40, "note_on_time": 184.479, "note_off_time": 184.694}, {"pitch": 74, "velocity": 60, "note_on_time": 184.965, "note_off_time": 185.071}, {"pitch": 76, "velocity": 51, "note_on_time": 185.427, "note_off_time": 185.511}, {"pitch": 77, "velocity": 51, "note_on_time": 185.88, "note_off_time": 185.995}, {"pitch": 79, "velocity": 57, "note_on_time": 186.356, "note_off_time": 186.459}, {"pitch": 72, "velocity": 59, "note_on_time": 186.846, "note_off_time": 186.943}, {"pitch": 74, "velocity": 54, "note_on_time": 187.328, "note_off_time": 187.439}, {"pitch": 76, "velocity": 60, "note_on_time": 187.748, "note_off_time": 187.875}, {"pitch": 77, "velocity": 58, "note_on_time": 188.166, "note_off_time": 188.273}, {"pitch": 79, "velocity": 58, "note_on_time": 188.611, "note_off_time": 188.712}, {"pitch": 79, "velocity": 43, "note_on_time": 189.088, "note_off_time": 189.213}, {"pitch": 77, "velocity": 53, "note_on_time": 189.543, "note_off_time": 189.672}, {"pitch": 76, "velocity": 59, "note_on_time": 189.991, "note_off_time": 190.118}, {"pitch": 74, "velocity": 54, "note_on_time": 190.464, "note_off_time": 190.563}, {"pitch": 72, "velocity": 41, "note_on_time": 190.88, "note_off_time": 191.021}, {"pitch": 79, "velocity": 61, "note_on_time": 191.302, "note_off_time": 191.466}, {"pitch": 77, "velocity": 38, "note_on_time": 191.74, "note_off_time": 191.869}, {"pitch": 76, "velocity": 55, "note_on_time": 192.191, "note_off_time": 192.309}, {"pitch": 74, "velocity": 58, "note_on_time": 192.606, "note_off_time": 192.701}, {"pitch": 72, "velocity": 47, "note_on_time": 193.043, "note_off_time": 193.175}, {"pitch": 79, "velocity": 51, "note_on_time": 193.48, "note_off_time": 193.616}, {"pitch": 77, "velocity": 53, "note_on_time": 193.915, "note_off_time": 194.045}, {"pitch": 76, "velocity": 54, "note_on_time": 194.369, "note_off_time": 194.486}]</notes><guidance name="Guidance Mode">None</guidance><error name="Error value">99</error></trial><trial trial_no="3" timestamp="2023_06_26-14_16_30"><notes name="Played Notes">[{"pitch": 72, "velocity": 58, "note_on_time": 4.9, "note_off_time": 5.02}, {"pitch": 74, "velocity": 57, "note_on_time": 5.408, "note_off_time": 5.522}, {"pitch": 76, "velocity": 52, "note_on_time": 5.946, "note_off_time": 6.031}, {"pitch": 77, "velocity": 60, "note_on_time": 6.421, "note_off_time": 6.553}, {"pitch": 79, "velocity": 54, "note_on_time": 6.939, "note_off_time": 7.114}, {"pitch": 72, "velocity": 50, "note_on_time": 7.456, "note_off_time": 7.597}, {"pitch": 74, "velocity": 51, "note_on_time": 7.92, "note_off_time": 8.043}, {"pitch": 76, "velocity": 44, "note_on_time": 8.393, "note_off_time": 8.495}, {"pitch": 77, "velocity": 59, "note_on_time": 8.829, "note_off_time": 8.943}, {"pitch": 79, "velocity": 57, "note_on_time": 9.277, "note_off_time": 9.426}, {"pitch": 72, "velocity": 56, "note_on_time": 9.743, "note_off_time": 9.894}, {"pitch": 74, "velocity": 56, "note_on_time": 10.217, "note_off_time": 10.342}, {"pitch": 76, "velocity": 61, "note_on_time": 10.666, "note_off_time": 10.777}, {"pitch": 77, "velocity": 55, "note_on_time": 11.114, "note_off_time": 11.255}, {"pitch": 79, "velocity": 54, "note_on_time": 11.555, "note_off_time": 11.701}, {"pitch": 72, "velocity": 55, "note_on_time": 12.029, "note_off_time": 12.161}, {"pitch": 74, "velocity": 57, "note_on_time": 12.495, "note_off_time": 12.616}, {"pitch": 76, "velocity": 53, "note_on_time": 12.965, "note_off_time": 13.073}, {"pitch": 77, "velocity": 55, "note_on_time": 13.398, "note_off_time": 13.533}, {"pitch": 79, "velocity": 53, "note_on_time": 13.877, "note_off_time": 14.009}, {"pitch": 79, "velocity": 52, "note_on_time": 14.367, "note_off_time": 14.499}, {"pitch": 77, "velocity": 48, "note_on_time": 14.792, "note_off_time": 14.932}, {"pitch": 76, "velocity": 48, "note_on_time": 15.263, "note_off_time": 15.404}, {"pitch": 74, "velocity": 61, "note_on_time": 15.718, "note_off_time": 15.837}, {"pitch": 72, "velocity": 45, "note_on_time": 16.164, "note_off_time": 16.3}, {"pitch": 79, "velocity": 51, "note_on_time": 16.614, "note_off_time": 16.793}, {"pitch": 77, "velocity": 36, "note_on_time": 17.09, "note_off_time": 17.208}, {"pitch": 76, "velocity": 48, "note_on_time": 17.544, "note_off_time": 17.66}, {"pitch": 74, "velocity": 56, "note_on_time": 17.998, "note_off_time": 18.111}, {"pitch": 72, "velocity": 44, "note_on_time": 18.453, "note_off_time": 18.602}, {"pitch": 79, "velocity": 55, "note_on_time": 18.906, "note_off_time": 19.051}, {"pitch": 77, "velocity": 54, "note_on_time": 19.339, "note_off_time": 19.459}, {"pitch": 76, "velocity": 48, "note_on_time": 19.804, "note_off_time": 19.912}, {"pitch": 74, "velocity": 59, "note_on_time": 20.264, "note_off_time": 20.369}, {"pitch": 72, "velocity": 52, "note_on_time": 20.707, "note_off_time": 20.855}, {"pitch": 79, "velocity": 49, "note_on_time": 21.132, "note_off_time": 21.287}, {"pitch": 77, "velocity": 33, "note_on_time": 21.639, "note_off_time": 21.761}, {"pitch": 76, "velocity": 56, "note_on_time": 22.114, "note_off_time": 22.229}, {"pitch": 74, "velocity": 55, "note_on_time": 22.561, "note_off_time": 22.668}, {"pitch": 72, "velocity": 47, "note_on_time": 23.022, "note_off_time": 23.154}, {"pitch": 74, "velocity": 56, "note_on_time": 23.572, "note_off_time": 23.678}, {"pitch": 76, "velocity": 60, "note_on_time": 24.05, "note_off_time": 24.175}, {"pitch": 77, "velocity": 60, "note_on_time": 24.498, "note_off_time": 24.623}, {"pitch": 79, "velocity": 58, "note_on_time": 24.954, "note_off_time": 25.078}, {"pitch": 72, "velocity": 49, "note_on_time": 25.41, "note_off_time": 25.519}, {"pitch": 74, "velocity": 51, "note_on_time": 25.923, "note_off_time": 26.005}, {"pitch": 76, "velocity": 60, "note_on_time": 26.401, "note_off_time": 26.507}, {"pitch": 77, "velocity": 62, "note_on_time": 26.856, "note_off_time": 26.977}, {"pitch": 79, "velocity": 49, "note_on_time": 27.324, "note_off_time": 27.455}, {"pitch": 72, "velocity": 62, "note_on_time": 27.805, "note_off_time": 27.91}, {"pitch": 74, "velocity": 58, "note_on_time": 28.321, "note_off_time": 28.428}, {"pitch": 76, "velocity": 56, "note_on_time": 28.78, "note_off_time": 28.9}, {"pitch": 77, "velocity": 59, "note_on_time": 29.232, "note_off_time": 29.359}, {"pitch": 79, "velocity": 58, "note_on_time": 29.687, "note_off_time": 29.831}, {"pitch": 72, "velocity": 61, "note_on_time": 30.149, "note_off_time": 30.274}, {"pitch": 74, "velocity": 56, "note_on_time": 30.635, "note_off_time": 30.745}, {"pitch": 76, "velocity": 56, "note_on_time": 31.106, "note_off_time": 31.228}, {"pitch": 77, "velocity": 60, "note_on_time": 31.551, "note_off_time": 31.663}, {"pitch": 79, "velocity": 58, "note_on_time": 31.986, "note_off_time": 32.111}, {"pitch": 72, "velocity": 46, "note_on_time": 32.476, "note_off_time": 32.602}, {"pitch": 77, "velocity": 59, "note_on_time": 33.057, "note_off_time": 33.153}, {"pitch": 76, "velocity": 58, "note_on_time": 33.528, "note_off_time": 33.636}, {"pitch": 74, "velocity": 46, "note_on_time": 33.973, "note_off_time": 34.098}, {"pitch": 72, "velocity": 48, "note_on_time": 34.45, "note_off_time": 34.574}, {"pitch": 79, "velocity": 55, "note_on_time": 34.912, "note_off_time": 35.054}, {"pitch": 77, "velocity": 48, "note_on_time": 35.358, "note_off_time": 35.474}, {"pitch": 76, "velocity": 57, "note_on_time": 35.824, "note_off_time": 35.954}, {"pitch": 74, "velocity": 60, "note_on_time": 36.305, "note_off_time": 36.411}, {"pitch": 72, "velocity": 53, "note_on_time": 36.769, "note_off_time": 36.9}, {"pitch": 79, "velocity": 62, "note_on_time": 37.224, "note_off_time": 37.381}, {"pitch": 77, "velocity": 54, "note_on_time": 37.669, "note_off_time": 37.803}, {"pitch": 76, "velocity": 55, "note_on_time": 38.14, "note_off_time": 38.258}, {"pitch": 74, "velocity": 56, "note_on_time": 38.617, "note_off_time": 38.718}, {"pitch": 72, "velocity": 47, "note_on_time": 39.085, "note_off_time": 39.22}, {"pitch": 79, "velocity": 46, "note_on_time": 39.519, "note_off_time": 39.67}, {"pitch": 77, "velocity": 55, "note_on_time": 40.0, "note_off_time": 40.129}, {"pitch": 76, "velocity": 53, "note_on_time": 40.462, "note_off_time": 40.579}, {"pitch": 74, "velocity": 62, "note_on_time": 40.926, "note_off_time": 41.031}, {"pitch": 72, "velocity": 53, "note_on_time": 41.411, "note_off_time": 41.536}, {"pitch": 76, "velocity": 65, "note_on_time": 41.981, "note_off_time": 42.098}, {"pitch": 77, "velocity": 55, "note_on_time": 42.468, "note_off_time": 42.57}, {"pitch": 79, "velocity": 60, "note_on_time": 42.91, "note_off_time": 43.023}, {"pitch": 74, "velocity": 54, "note_on_time": 43.431, "note_off_time": 43.545}, {"pitch": 72, "velocity": 53, "note_on_time": 43.877, "note_off_time": 43.991}, {"pitch": 76, "velocity": 58, "note_on_time": 44.303, "note_off_time": 44.435}, {"pitch": 77, "velocity": 60, "note_on_time": 44.769, "note_off_time": 44.889}, {"pitch": 79, "velocity": 51, "note_on_time": 45.221, "note_off_time": 45.341}, {"pitch": 74, "velocity": 55, "note_on_time": 45.661, "note_off_time": 45.78}, {"pitch": 72, "velocity": 49, "note_on_time": 46.062, "note_off_time": 46.176}, {"pitch": 76, "velocity": 56, "note_on_time": 46.499, "note_off_time": 46.622}, {"pitch": 77, "velocity": 56, "note_on_time": 46.956, "note_off_time": 47.081}, {"pitch": 79, "velocity": 55, "note_on_time": 47.4, "note_off_time": 47.523}, {"pitch": 74, "velocity": 47, "note_on_time": 47.867, "note_off_time": 47.972}, {"pitch": 72, "velocity": 51, "note_on_time": 48.327, "note_off_time": 48.438}, {"pitch": 76, "velocity": 48, "note_on_time": 48.854, "note_off_time": 48.982}, {"pitch": 77, "velocity": 60, "note_on_time": 49.301, "note_off_time": 49.44}, {"pitch": 79, "velocity": 53, "note_on_time": 49.729, "note_off_time": 49.864}, {"pitch": 74, "velocity": 33, "note_on_time": 50.223, "note_off_time": 50.377}, {"pitch": 72, "velocity": 60, "note_on_time": 50.691, "note_off_time": 50.799}, {"pitch": 76, "velocity": 58, "note_on_time": 51.315, "note_off_time": 51.415}, {"pitch": 74, "velocity": 49, "note_on_time": 51.756, "note_off_time": 51.881}, {"pitch": 72, "velocity": 51, "note_on_time": 52.211, "note_off_time": 52.324}, {"pitch": 77, "velocity": 56, "note_on_time": 52.647, "note_off_time": 52.765}, {"pitch": 79, "velocity": 38, "note_on_time": 53.149, "note_off_time": 53.247}, {"pitch": 76, "velocity": 58, "note_on_time": 53.671, "note_off_time": 53.803}, {"pitch": 74, "velocity": 63, "note_on_time": 54.122, "note_off_time": 54.239}, {"pitch": 72, "velocity": 54, "note_on_time": 54.597, "note_off_time": 54.705}, {"pitch": 77, "velocity": 60, "note_on_time": 55.013, "note_off_time": 55.127}, {"pitch": 79, "velocity": 51, "note_on_time": 55.462, "note_off_time": 55.599}, {"pitch": 76, "velocity": 51, "note_on_time": 55.895, "note_off_time": 56.032}, {"pitch": 74, "velocity": 57, "note_on_time": 56.368, "note_off_time": 56.472}, {"pitch": 72, "velocity": 55, "note_on_time": 56.815, "note_off_time": 56.958}, {"pitch": 77, "velocity": 58, "note_on_time": 57.225, "note_off_time": 57.335}, {"pitch": 79, "velocity": 39, "note_on_time": 57.676, "note_off_time": 57.787}, {"pitch": 76, "velocity": 56, "note_on_time": 58.159, "note_off_time": 58.285}, {"pitch": 74, "velocity": 56, "note_on_time": 58.633, "note_off_time": 58.722}, {"pitch": 72, "velocity": 61, "note_on_time": 59.082, "note_off_time": 59.205}, {"pitch": 77, "velocity": 61, "note_on_time": 59.504, "note_off_time": 59.634}, {"pitch": 79, "velocity": 41, "note_on_time": 59.98, "note_off_time": 60.089}, {"pitch": 77, "velocity": 50, "note_on_time": 60.455, "note_off_time": 60.572}, {"pitch": 79, "velocity": 54, "note_on_time": 60.931, "note_off_time": 61.028}, {"pitch": 76, "velocity": 57, "note_on_time": 61.389, "note_off_time": 61.494}, {"pitch": 74, "velocity": 58, "note_on_time": 61.857, "note_off_time": 61.966}, {"pitch": 72, "velocity": 46, "note_on_time": 62.294, "note_off_time": 62.414}, {"pitch": 77, "velocity": 58, "note_on_time": 62.74, "note_off_time": 62.854}, {"pitch": 79, "velocity": 51, "note_on_time": 63.197, "note_off_time": 63.321}, {"pitch": 76, "velocity": 48, "note_on_time": 63.623, "note_off_time": 63.769}, {"pitch": 74, "velocity": 54, "note_on_time": 64.118, "note_off_time": 64.212}, {"pitch": 72, "velocity": 47, "note_on_time": 64.567, "note_off_time": 64.66}, {"pitch": 77, "velocity": 57, "note_on_time": 64.972, "note_off_time": 65.081}, {"pitch": 79, "velocity": 62, "note_on_time": 65.41, "note_off_time": 65.516}, {"pitch": 76, "velocity": 51, "note_on_time": 65.836, "note_off_time": 65.965}, {"pitch": 74, "velocity": 54, "note_on_time": 66.297, "note_off_time": 66.399}, {"pitch": 72, "velocity": 51, "note_on_time": 66.708, "note_off_time": 66.824}, {"pitch": 77, "velocity": 59, "note_on_time": 67.132, "note_off_time": 67.244}, {"pitch": 79, "velocity": 64, "note_on_time": 67.573, "note_off_time": 67.68}, {"pitch": 76, "velocity": 39, "note_on_time": 68.078, "note_off_time": 68.194}, {"pitch": 74, "velocity": 51, "note_on_time": 68.56, "note_off_time": 68.643}, {"pitch": 72, "velocity": 42, "note_on_time": 69.019, "note_off_time": 69.124}, {"pitch": 72, "velocity": 37, "note_on_time": 69.536, "note_off_time": 69.672}, {"pitch": 74, "velocity": 64, "note_on_time": 70.278, "note_off_time": 70.38}, {"pitch": 72, "velocity": 52, "note_on_time": 70.721, "note_off_time": 70.82}, {"pitch": 76, "velocity": 59, "note_on_time": 71.196, "note_off_time": 71.289}, {"pitch": 77, "velocity": 51, "note_on_time": 71.652, "note_off_time": 71.76}, {"pitch": 79, "velocity": 60, "note_on_time": 72.096, "note_off_time": 72.205}, {"pitch": 74, "velocity": 55, "note_on_time": 72.558, "note_off_time": 72.64}, {"pitch": 72, "velocity": 53, "note_on_time": 73.003, "note_off_time": 73.144}, {"pitch": 76, "velocity": 56, "note_on_time": 73.439, "note_off_time": 73.563}, {"pitch": 77, "velocity": 50, "note_on_time": 73.923, "note_off_time": 74.056}, {"pitch": 79, "velocity": 57, "note_on_time": 74.372, "note_off_time": 74.494}, {"pitch": 74, "velocity": 56, "note_on_time": 74.818, "note_off_time": 74.927}, {"pitch": 72, "velocity": 55, "note_on_time": 75.235, "note_off_time": 75.348}, {"pitch": 76, "velocity": 55, "note_on_time": 75.68, "note_off_time": 75.8}, {"pitch": 77, "velocity": 56, "note_on_time": 76.124, "note_off_time": 76.25}, {"pitch": 79, "velocity": 55, "note_on_time": 76.547, "note_off_time": 76.652}, {"pitch": 74, "velocity": 9, "note_on_time": 77.027, "note_off_time": 77.116}, {"pitch": 72, "velocity": 49, "note_on_time": 77.521, "note_off_time": 77.595}, {"pitch": 76, "velocity": 52, "note_on_time": 77.992, "note_off_time": 78.112}, {"pitch": 77, "velocity": 59, "note_on_time": 78.437, "note_off_time": 78.562}, {"pitch": 79, "velocity": 65, "note_on_time": 78.85, "note_off_time": 78.977}, {"pitch": 72, "velocity": 53, "note_on_time": 79.347, "note_off_time": 79.457}, {"pitch": 74, "velocity": 58, "note_on_time": 79.813, "note_off_time": 79.913}, {"pitch": 76, "velocity": 55, "note_on_time": 80.248, "note_off_time": 80.375}, {"pitch": 77, "velocity": 59, "note_on_time": 80.692, "note_off_time": 80.814}, {"pitch": 79, "velocity": 46, "note_on_time": 81.173, "note_off_time": 81.313}, {"pitch": 72, "velocity": 55, "note_on_time": 81.628, "note_off_time": 81.742}, {"pitch": 74, "velocity": 54, "note_on_time": 82.108, "note_off_time": 82.192}, {"pitch": 76, "velocity": 53, "note_on_time": 82.535, "note_off_time": 82.648}, {"pitch": 77, "velocity": 58, "note_on_time": 82.942, "note_off_time": 83.05}, {"pitch": 79, "velocity": 48, "note_on_time": 83.387, "note_off_time": 83.495}, {"pitch": 72, "velocity": 48, "note_on_time": 83.822, "note_off_time": 83.93}, {"pitch": 74, "velocity": 52, "note_on_time": 84.308, "note_off_time": 84.409}, {"pitch": 76, "velocity": 60, "note_on_time": 84.71, "note_off_time": 84.846}, {"pitch": 77, "velocity": 55, "note_on_time": 85.119, "note_off_time": 85.24}, {"pitch": 79, "velocity": 60, "note_on_time": 85.56, "note_off_time": 85.678}, {"pitch": 72, "velocity": 54, "note_on_time": 86.026, "note_off_time": 86.147}, {"pitch": 74, "velocity": 48, "note_on_time": 86.505, "note_off_time": 86.586}, {"pitch": 76, "velocity": 52, "note_on_time": 86.95, "note_off_time": 87.066}, {"pitch": 77, "velocity": 50, "note_on_time": 87.369, "note_off_time": 87.512}, {"pitch": 79, "velocity": 59, "note_on_time": 87.801, "note_off_time": 87.939}, {"pitch": 79, "velocity": 50, "note_on_time": 88.268, "note_off_time": 88.419}, {"pitch": 77, "velocity": 54, "note_on_time": 88.703, "note_off_time": 88.837}, {"pitch": 76, "velocity": 59, "note_on_time": 89.149, "note_off_time": 89.271}, {"pitch": 74, "velocity": 54, "note_on_time": 89.617, "note_off_time": 89.722}, {"pitch": 72, "velocity": 46, "note_on_time": 90.0, "note_off_time": 90.139}, {"pitch": 79, "velocity": 53, "note_on_time": 90.425, "note_off_time": 90.588}, {"pitch": 77, "velocity": 54, "note_on_time": 90.849, "note_off_time": 91.013}, {"pitch": 76, "velocity": 46, "note_on_time": 91.295, "note_off_time": 91.438}, {"pitch": 74, "velocity": 54, "note_on_time": 91.743, "note_off_time": 91.844}, {"pitch": 72, "velocity": 52, "note_on_time": 92.202, "note_off_time": 92.314}, {"pitch": 79, "velocity": 56, "note_on_time": 92.63, "note_off_time": 92.787}, {"pitch": 77, "velocity": 49, "note_on_time": 93.06, "note_off_time": 93.222}, {"pitch": 76, "velocity": 51, "note_on_time": 93.503, "note_off_time": 93.619}, {"pitch": 74, "velocity": 52, "note_on_time": 93.958, "note_off_time": 94.059}, {"pitch": 72, "velocity": 46, "note_on_time": 94.37, "note_off_time": 94.494}, {"pitch": 79, "velocity": 46, "note_on_time": 94.816, "note_off_time": 94.968}, {"pitch": 77, "velocity": 54, "note_on_time": 95.279, "note_off_time": 95.401}, {"pitch": 76, "velocity": 44, "note_on_time": 95.733, "note_off_time": 95.867}, {"pitch": 74, "velocity": 52, "note_on_time": 96.153, "note_off_time": 96.254}, {"pitch": 72, "velocity": 45, "note_on_time": 96.609, "note_off_time": 96.719}, {"pitch": 74, "velocity": 53, "note_on_time": 97.081, "note_off_time": 97.178}, {"pitch": 76, "velocity": 49, "note_on_time": 97.526, "note_off_time": 97.669}, {"pitch": 77, "velocity": 57, "note_on_time": 97.956, "note_off_time": 98.071}, {"pitch": 79, "velocity": 54, "note_on_time": 98.398, "note_off_time": 98.522}, {"pitch": 72, "velocity": 49, "note_on_time": 98.838, "note_off_time": 98.938}, {"pitch": 74, "velocity": 49, "note_on_time": 99.315, "note_off_time": 99.384}, {"pitch": 76, "velocity": 48, "note_on_time": 99.749, "note_off_time": 99.858}, {"pitch": 77, "velocity": 59, "note_on_time": 100.164, "note_off_time": 100.296}, {"pitch": 79, "velocity": 60, "note_on_time": 100.561, "note_off_time": 100.688}, {"pitch": 72, "velocity": 53, "note_on_time": 101.016, "note_off_time": 101.135}, {"pitch": 74, "velocity": 50, "note_on_time": 101.479, "note_off_time": 101.581}, {"pitch": 76, "velocity": 52, "note_on_time": 101.901, "note_off_time": 102.01}, {"pitch": 77, "velocity": 47, "note_on_time": 102.336, "note_off_time": 102.453}, {"pitch": 79, "velocity": 52, "note_on_time": 102.757, "note_off_time": 102.892}, {"pitch": 72, "velocity": 50, "note_on_time": 103.213, "note_off_time": 103.335}, {"pitch": 74, "velocity": 50, "note_on_time": 103.683, "note_off_time": 103.765}, {"pitch": 76, "velocity": 51, "note_on_time": 104.11, "note_off_time": 104.208}, {"pitch": 77, "velocity": 50, "note_on_time": 104.515, "note_off_time": 104.645}, {"pitch": 79, "velocity": 62, "note_on_time": 104.907, "note_off_time": 105.045}, {"pitch": 72, "velocity": 48, "note_on_time": 105.376, "note_off_time": 105.472}, {"pitch": 77, "velocity": 50, "note_on_time": 106.687, "note_off_time": 106.793}, {"pitch": 76, "velocity": 56, "note_on_time": 107.137, "note_off_time": 107.242}, {"pitch": 74, "velocity": 52, "note_on_time": 107.604, "note_off_time": 107.679}, {"pitch": 72, "velocity": 53, "note_on_time": 108.012, "note_off_time": 108.13}, {"pitch": 79, "velocity": 52, "note_on_time": 108.419, "note_off_time": 108.539}, {"pitch": 77, "velocity": 53, "note_on_time": 108.875, "note_off_time": 108.976}, {"pitch": 76, "velocity": 55, "note_on_time": 109.323, "note_off_time": 109.448}, {"pitch": 74, "velocity": 49, "note_on_time": 109.789, "note_off_time": 109.87}, {"pitch": 72, "velocity": 45, "note_on_time": 110.238, "note_off_time": 110.347}, {"pitch": 79, "velocity": 54, "note_on_time": 110.646, "note_off_time": 110.79}, {"pitch": 77, "velocity": 26, "note_on_time": 111.092, "note_off_time": 111.184}, {"pitch": 76, "velocity": 47, "note_on_time": 111.539, "note_off_time": 111.655}, {"pitch": 74, "velocity": 56, "note_on_time": 111.993, "note_off_time": 112.092}, {"pitch": 72, "velocity": 49, "note_on_time": 112.429, "note_off_time": 112.545}, {"pitch": 79, "velocity": 52, "note_on_time": 112.822, "note_off_time": 112.941}, {"pitch": 77, "velocity": 57, "note_on_time": 113.247, "note_off_time": 113.375}, {"pitch": 76, "velocity": 59, "note_on_time": 113.737, "note_off_time": 113.865}, {"pitch": 74, "velocity": 52, "note_on_time": 114.18, "note_off_time": 114.285}, {"pitch": 72, "velocity": 54, "note_on_time": 114.692, "note_off_time": 114.789}, {"pitch": 76, "velocity": 55, "note_on_time": 115.832, "note_off_time": 115.917}, {"pitch": 77, "velocity": 55, "note_on_time": 116.249, "note_off_time": 116.349}, {"pitch": 79, "velocity": 62, "note_on_time": 116.647, "note_off_time": 116.759}, {"pitch": 74, "velocity": 41, "note_on_time": 117.052, "note_off_time": 117.154}, {"pitch": 72, "velocity": 39, "note_on_time": 117.504, "note_off_time": 117.597}, {"pitch": 76, "velocity": 54, "note_on_time": 117.914, "note_off_time": 118.042}, {"pitch": 77, "velocity": 55, "note_on_time": 118.334, "note_off_time": 118.469}, {"pitch": 79, "velocity": 58, "note_on_time": 118.76, "note_off_time": 118.867}, {"pitch": 74, "velocity": 46, "note_on_time": 119.196, "note_off_time": 119.292}, {"pitch": 72, "velocity": 34, "note_on_time": 119.611, "note_off_time": 119.715}, {"pitch": 76, "velocity": 56, "note_on_time": 120.065, "note_off_time": 120.192}, {"pitch": 77, "velocity": 56, "note_on_time": 120.507, "note_off_time": 120.613}, {"pitch": 79, "velocity": 62, "note_on_time": 120.942, "note_off_time": 121.064}, {"pitch": 74, "velocity": 42, "note_on_time": 121.366, "note_off_time": 121.453}, {"pitch": 72, "velocity": 48, "note_on_time": 121.786, "note_off_time": 121.887}, {"pitch": 76, "velocity": 60, "note_on_time": 122.23, "note_off_time": 122.353}, {"pitch": 77, "velocity": 50, "note_on_time": 122.681, "note_off_time": 122.802}, {"pitch": 79, "velocity": 49, "note_on_time": 123.13, "note_off_time": 123.227}, {"pitch": 74, "velocity": 55, "note_on_time": 123.553, "note_off_time": 123.648}, {"pitch": 72, "velocity": 58, "note_on_time": 124.01, "note_off_time": 124.113}, {"pitch": 74, "velocity": 60, "note_on_time": 124.928, "note_off_time": 125.022}, {"pitch": 72, "velocity": 54, "note_on_time": 125.393, "note_off_time": 125.492}, {"pitch": 76, "velocity": 65, "note_on_time": 126.344, "note_off_time": 126.449}, {"pitch": 74, "velocity": 44, "note_on_time": 126.782, "note_off_time": 126.885}, {"pitch": 72, "velocity": 54, "note_on_time": 127.251, "note_off_time": 127.356}, {"pitch": 77, "velocity": 55, "note_on_time": 127.652, "note_off_time": 127.744}, {"pitch": 79, "velocity": 54, "note_on_time": 128.069, "note_off_time": 128.178}, {"pitch": 76, "velocity": 58, "note_on_time": 128.475, "note_off_time": 128.602}, {"pitch": 74, "velocity": 54, "note_on_time": 128.932, "note_off_time": 129.037}, {"pitch": 72, "velocity": 46, "note_on_time": 129.39, "note_off_time": 129.494}, {"pitch": 77, "velocity": 60, "note_on_time": 129.817, "note_off_time": 129.925}, {"pitch": 79, "velocity": 51, "note_on_time": 130.264, "note_off_time": 130.365}, {"pitch": 76, "velocity": 40, "note_on_time": 130.718, "note_off_time": 130.817}, {"pitch": 74, "velocity": 52, "note_on_time": 131.183, "note_off_time": 131.276}, {"pitch": 72, "velocity": 47, "note_on_time": 131.642, "note_off_time": 131.743}, {"pitch": 77, "velocity": 51, "note_on_time": 132.03, "note_off_time": 132.154}, {"pitch": 79, "velocity": 44, "note_on_time": 132.461, "note_off_time": 132.594}, {"pitch": 76, "velocity": 49, "note_on_time": 132.921, "note_off_time": 133.032}, {"pitch": 74, "velocity": 58, "note_on_time": 133.382, "note_off_time": 133.487}, {"pitch": 72, "velocity": 54, "note_on_time": 133.845, "note_off_time": 133.921}, {"pitch": 77, "velocity": 63, "note_on_time": 134.263, "note_off_time": 134.374}, {"pitch": 79, "velocity": 52, "note_on_time": 134.703, "note_off_time": 134.817}, {"pitch": 77, "velocity": 58, "note_on_time": 135.168, "note_off_time": 135.267}, {"pitch": 79, "velocity": 49, "note_on_time": 136.051, "note_off_time": 136.173}, {"pitch": 76, "velocity": 57, "note_on_time": 136.5, "note_off_time": 136.604}, {"pitch": 74, "velocity": 53, "note_on_time": 136.936, "note_off_time": 137.032}, {"pitch": 72, "velocity": 53, "note_on_time": 137.351, "note_off_time": 137.451}, {"pitch": 77, "velocity": 55, "note_on_time": 137.734, "note_off_time": 137.843}, {"pitch": 79, "velocity": 50, "note_on_time": 138.174, "note_off_time": 138.272}, {"pitch": 76, "velocity": 52, "note_on_time": 138.583, "note_off_time": 138.698}, {"pitch": 74, "velocity": 49, "note_on_time": 139.027, "note_off_time": 139.13}, {"pitch": 72, "velocity": 50, "note_on_time": 139.459, "note_off_time": 139.541}, {"pitch": 77, "velocity": 54, "note_on_time": 139.921, "note_off_time": 140.013}, {"pitch": 79, "velocity": 59, "note_on_time": 140.364, "note_off_time": 140.46}, {"pitch": 76, "velocity": 46, "note_on_time": 140.778, "note_off_time": 140.933}, {"pitch": 74, "velocity": 49, "note_on_time": 141.245, "note_off_time": 141.346}, {"pitch": 72, "velocity": 52, "note_on_time": 141.682, "note_off_time": 141.753}, {"pitch": 77, "velocity": 56, "note_on_time": 142.086, "note_off_time": 142.208}, {"pitch": 79, "velocity": 51, "note_on_time": 142.528, "note_off_time": 142.626}, {"pitch": 76, "velocity": 56, "note_on_time": 142.985, "note_off_time": 143.106}, {"pitch": 74, "velocity": 55, "note_on_time": 143.413, "note_off_time": 143.51}, {"pitch": 72, "velocity": 58, "note_on_time": 143.84, "note_off_time": 143.943}, {"pitch": 74, "velocity": 46, "note_on_time": 144.283, "note_off_time": 144.374}, {"pitch": 72, "velocity": 45, "note_on_time": 144.761, "note_off_time": 144.864}, {"pitch": 76, "velocity": 55, "note_on_time": 145.205, "note_off_time": 145.311}, {"pitch": 77, "velocity": 26, "note_on_time": 145.646, "note_off_time": 145.723}, {"pitch": 79, "velocity": 58, "note_on_time": 146.077, "note_off_time": 146.186}, {"pitch": 74, "velocity": 31, "note_on_time": 146.565, "note_off_time": 146.691}, {"pitch": 72, "velocity": 62, "note_on_time": 146.959, "note_off_time": 147.054}, {"pitch": 76, "velocity": 55, "note_on_time": 147.391, "note_off_time": 147.528}, {"pitch": 77, "velocity": 63, "note_on_time": 147.852, "note_off_time": 147.978}, {"pitch": 79, "velocity": 42, "note_on_time": 148.309, "note_off_time": 148.428}, {"pitch": 74, "velocity": 47, "note_on_time": 148.737, "note_off_time": 148.855}, {"pitch": 72, "velocity": 43, "note_on_time": 149.199, "note_off_time": 149.308}, {"pitch": 76, "velocity": 60, "note_on_time": 149.627, "note_off_time": 149.747}, {"pitch": 77, "velocity": 56, "note_on_time": 150.087, "note_off_time": 150.219}, {"pitch": 79, "velocity": 63, "note_on_time": 150.496, "note_off_time": 150.629}, {"pitch": 74, "velocity": 50, "note_on_time": 150.943, "note_off_time": 151.047}, {"pitch": 72, "velocity": 56, "note_on_time": 151.377, "note_off_time": 151.479}, {"pitch": 76, "velocity": 55, "note_on_time": 151.842, "note_off_time": 151.957}, {"pitch": 77, "velocity": 59, "note_on_time": 152.311, "note_off_time": 152.449}, {"pitch": 79, "velocity": 62, "note_on_time": 152.761, "note_off_time": 152.873}, {"pitch": 72, "velocity": 37, "note_on_time": 153.245, "note_off_time": 153.388}, {"pitch": 74, "velocity": 58, "note_on_time": 153.689, "note_off_time": 153.779}, {"pitch": 76, "velocity": 48, "note_on_time": 154.143, "note_off_time": 154.24}, {"pitch": 77, "velocity": 54, "note_on_time": 154.564, "note_off_time": 154.694}, {"pitch": 79, "velocity": 48, "note_on_time": 154.979, "note_off_time": 155.122}, {"pitch": 72, "velocity": 53, "note_on_time": 155.417, "note_off_time": 155.541}, {"pitch": 74, "velocity": 55, "note_on_time": 155.862, "note_off_time": 155.962}, {"pitch": 76, "velocity": 54, "note_on_time": 156.301, "note_off_time": 156.417}, {"pitch": 77, "velocity": 50, "note_on_time": 156.781, "note_off_time": 156.886}, {"pitch": 79, "velocity": 55, "note_on_time": 157.181, "note_off_time": 157.311}, {"pitch": 72, "velocity": 52, "note_on_time": 157.664, "note_off_time": 157.766}, {"pitch": 74, "velocity": 49, "note_on_time": 158.126, "note_off_time": 158.215}, {"pitch": 76, "velocity": 50, "note_on_time": 158.534, "note_off_time": 158.64}, {"pitch": 77, "velocity": 51, "note_on_time": 158.949, "note_off_time": 159.063}, {"pitch": 79, "velocity": 33, "note_on_time": 159.38, "note_off_time": 159.485}, {"pitch": 72, "velocity": 56, "note_on_time": 159.874, "note_off_time": 159.979}, {"pitch": 74, "velocity": 49, "note_on_time": 160.354, "note_off_time": 160.434}, {"pitch": 76, "velocity": 60, "note_on_time": 160.811, "note_off_time": 160.93}, {"pitch": 77, "velocity": 53, "note_on_time": 161.251, "note_off_time": 161.357}, {"pitch": 79, "velocity": 51, "note_on_time": 161.688, "note_off_time": 161.816}, {"pitch": 79, "velocity": 13, "note_on_time": 162.24, "note_off_time": 162.372}, {"pitch": 77, "velocity": 50, "note_on_time": 162.64, "note_off_time": 162.75}, {"pitch": 76, "velocity": 58, "note_on_time": 163.074, "note_off_time": 163.203}, {"pitch": 74, "velocity": 49, "note_on_time": 163.493, "note_off_time": 163.584}, {"pitch": 72, "velocity": 42, "note_on_time": 163.927, "note_off_time": 164.04}, {"pitch": 79, "velocity": 49, "note_on_time": 164.367, "note_off_time": 164.515}, {"pitch": 77, "velocity": 55, "note_on_time": 164.824, "note_off_time": 164.947}, {"pitch": 76, "velocity": 47, "note_on_time": 165.278, "note_off_time": 165.403}, {"pitch": 74, "velocity": 49, "note_on_time": 165.709, "note_off_time": 165.783}, {"pitch": 72, "velocity": 59, "note_on_time": 166.148, "note_off_time": 166.248}, {"pitch": 79, "velocity": 36, "note_on_time": 166.589, "note_off_time": 166.705}, {"pitch": 77, "velocity": 59, "note_on_time": 167.022, "note_off_time": 167.134}, {"pitch": 76, "velocity": 53, "note_on_time": 167.454, "note_off_time": 167.54}, {"pitch": 74, "velocity": 52, "note_on_time": 167.898, "note_off_time": 167.979}, {"pitch": 72, "velocity": 46, "note_on_time": 168.323, "note_off_time": 168.435}, {"pitch": 79, "velocity": 60, "note_on_time": 168.723, "note_off_time": 168.842}, {"pitch": 77, "velocity": 58, "note_on_time": 169.143, "note_off_time": 169.268}, {"pitch": 76, "velocity": 55, "note_on_time": 169.56, "note_off_time": 169.676}, {"pitch": 74, "velocity": 46, "note_on_time": 169.973, "note_off_time": 170.085}, {"pitch": 72, "velocity": 52, "note_on_time": 170.393, "note_off_time": 170.483}, {"pitch": 74, "velocity": 55, "note_on_time": 170.856, "note_off_time": 170.939}, {"pitch": 76, "velocity": 54, "note_on_time": 171.276, "note_off_time": 171.394}, {"pitch": 77, "velocity": 58, "note_on_time": 171.694, "note_off_time": 171.818}, {"pitch": 79, "velocity": 52, "note_on_time": 172.098, "note_off_time": 172.25}, {"pitch": 72, "velocity": 48, "note_on_time": 172.534, "note_off_time": 172.609}, {"pitch": 74, "velocity": 46, "note_on_time": 172.989, "note_off_time": 173.059}, {"pitch": 76, "velocity": 50, "note_on_time": 173.39, "note_off_time": 173.475}, {"pitch": 77, "velocity": 53, "note_on_time": 173.786, "note_off_time": 173.894}, {"pitch": 79, "velocity": 62, "note_on_time": 174.18, "note_off_time": 174.331}, {"pitch": 72, "velocity": 55, "note_on_time": 174.617, "note_off_time": 174.714}, {"pitch": 74, "velocity": 49, "note_on_time": 175.063, "note_off_time": 175.164}, {"pitch": 76, "velocity": 55, "note_on_time": 175.474, "note_off_time": 175.58}, {"pitch": 77, "velocity": 57, "note_on_time": 175.871, "note_off_time": 176.003}, {"pitch": 79, "velocity": 53, "note_on_time": 176.263, "note_off_time": 176.382}, {"pitch": 72, "velocity": 60, "note_on_time": 176.717, "note_off_time": 176.83}, {"pitch": 74, "velocity": 55, "note_on_time": 177.17, "note_off_time": 177.268}, {"pitch": 76, "velocity": 55, "note_on_time": 177.602, "note_off_time": 177.705}, {"pitch": 77, "velocity": 59, "note_on_time": 178.015, "note_off_time": 178.121}, {"pitch": 79, "velocity": 41, "note_on_time": 178.409, "note_off_time": 178.525}, {"pitch": 72, "velocity": 58, "note_on_time": 178.891, "note_off_time": 178.978}, {"pitch": 77, "velocity": 62, "note_on_time": 179.331, "note_off_time": 179.431}, {"pitch": 76, "velocity": 58, "note_on_time": 179.829, "note_off_time": 179.92}, {"pitch": 74, "velocity": 55, "note_on_time": 180.278, "note_off_time": 180.368}, {"pitch": 72, "velocity": 41, "note_on_time": 180.726, "note_off_time": 180.839}, {"pitch": 79, "velocity": 52, "note_on_time": 181.106, "note_off_time": 181.232}, {"pitch": 77, "velocity": 55, "note_on_time": 181.527, "note_off_time": 181.655}, {"pitch": 76, "velocity": 57, "note_on_time": 181.969, "note_off_time": 182.096}, {"pitch": 74, "velocity": 53, "note_on_time": 182.402, "note_off_time": 182.512}, {"pitch": 72, "velocity": 44, "note_on_time": 182.827, "note_off_time": 182.941}, {"pitch": 79, "velocity": 41, "note_on_time": 183.289, "note_off_time": 183.411}, {"pitch": 77, "velocity": 57, "note_on_time": 183.694, "note_off_time": 183.795}, {"pitch": 76, "velocity": 53, "note_on_time": 184.129, "note_off_time": 184.242}, {"pitch": 74, "velocity": 54, "note_on_time": 184.537, "note_off_time": 184.635}, {"pitch": 72, "velocity": 50, "note_on_time": 184.943, "note_off_time": 185.053}, {"pitch": 79, "velocity": 56, "note_on_time": 185.356, "note_off_time": 185.498}, {"pitch": 77, "velocity": 59, "note_on_time": 185.77, "note_off_time": 185.894}, {"pitch": 76, "velocity": 52, "note_on_time": 186.216, "note_off_time": 186.333}, {"pitch": 74, "velocity": 59, "note_on_time": 186.617, "note_off_time": 186.71}, {"pitch": 72, "velocity": 56, "note_on_time": 187.038, "note_off_time": 187.14}, {"pitch": 76, "velocity": 63, "note_on_time": 187.789, "note_off_time": 187.897}, {"pitch": 77, "velocity": 61, "note_on_time": 188.187, "note_off_time": 188.29}, {"pitch": 79, "velocity": 65, "note_on_time": 188.605, "note_off_time": 188.725}, {"pitch": 74, "velocity": 52, "note_on_time": 189.032, "note_off_time": 189.138}, {"pitch": 72, "velocity": 53, "note_on_time": 189.449, "note_off_time": 189.54}, {"pitch": 76, "velocity": 49, "note_on_time": 189.94, "note_off_time": 190.073}, {"pitch": 77, "velocity": 57, "note_on_time": 190.357, "note_off_time": 190.456}, {"pitch": 79, "velocity": 58, "note_on_time": 190.761, "note_off_time": 190.891}, {"pitch": 74, "velocity": 53, "note_on_time": 191.174, "note_off_time": 191.257}, {"pitch": 72, "velocity": 44, "note_on_time": 191.6, "note_off_time": 191.668}, {"pitch": 76, "velocity": 55, "note_on_time": 191.978, "note_off_time": 192.096}, {"pitch": 77, "velocity": 58, "note_on_time": 192.392, "note_off_time": 192.504}, {"pitch": 79, "velocity": 60, "note_on_time": 192.806, "note_off_time": 192.916}, {"pitch": 74, "velocity": 49, "note_on_time": 193.188, "note_off_time": 193.258}, {"pitch": 72, "velocity": 60, "note_on_time": 193.583, "note_off_time": 193.678}, {"pitch": 76, "velocity": 62, "note_on_time": 193.992, "note_off_time": 194.106}]</notes><guidance name="Guidance Mode">None</guidance><error name="Error value">99</error></trial></trials></MIDI>