<MIDI midiNo="2023_06_14-13_49_04"><target_notes><notes name="Note List">[{"pitch": 60, "velocity": 40, "note_on_time": 0.009, "note_off_time": 1.019}, {"pitch": 64, "velocity": 40, "note_on_time": 0.009, "note_off_time": 1.02}, {"pitch": 67, "velocity": 40, "note_on_time": 0.01, "note_off_time": 1.021}, {"pitch": 48, "velocity": 40, "note_on_time": 0.01, "note_off_time": 1.021}, {"pitch": 52, "velocity": 40, "note_on_time": 1.021, "note_off_time": 2.03}, {"pitch": 55, "velocity": 40, "note_on_time": 1.021, "note_off_time": 2.031}, {"pitch": 72, "velocity": 40, "note_on_time": 2.03, "note_off_time": 3.042}, {"pitch": 48, "velocity": 40, "note_on_time": 2.031, "note_off_time": 3.042}, {"pitch": 52, "velocity": 40, "note_on_time": 3.043, "note_off_time": 4.053}, {"pitch": 55, "velocity": 40, "note_on_time": 3.043, "note_off_time": 4.053}, {"pitch": 48, "velocity": 40, "note_on_time": 4.053, "note_off_time": 5.063}, {"pitch": 52, "velocity": 40, "note_on_time": 5.063, "note_off_time": 6.077}, {"pitch": 55, "velocity": 40, "note_on_time": 5.063, "note_off_time": 6.077}, {"pitch": 48, "velocity": 40, "note_on_time": 6.077, "note_off_time": 7.089}, {"pitch": 52, "velocity": 40, "note_on_time": 7.089, "note_off_time": 8.103}, {"pitch": 55, "velocity": 40, "note_on_time": 7.089, "note_off_time": 8.103}, {"pitch": 60, "velocity": 40, "note_on_time": 8.103, "note_off_time": 9.113}, {"pitch": 64, "velocity": 40, "note_on_time": 8.103, "note_off_time": 9.116}, {"pitch": 67, "velocity": 40, "note_on_time": 8.103, "note_off_time": 9.12}, {"pitch": 48, "velocity": 40, "note_on_time": 8.103, "note_off_time": 9.12}, {"pitch": 52, "velocity": 40, "note_on_time": 9.121, "note_off_time": 10.132}, {"pitch": 55, "velocity": 40, "note_on_time": 9.121, "note_off_time": 10.133}, {"pitch": 79, "velocity": 40, "note_on_time": 10.132, "note_off_time": 11.139}, {"pitch": 48, "velocity": 40, "note_on_time": 10.134, "note_off_time": 11.139}, {"pitch": 52, "velocity": 40, "note_on_time": 11.14, "note_off_time": 12.152}, {"pitch": 55, "velocity": 40, "note_on_time": 11.14, "note_off_time": 12.152}, {"pitch": 48, "velocity": 40, "note_on_time": 12.152, "note_off_time": 13.162}, {"pitch": 52, "velocity": 40, "note_on_time": 13.162, "note_off_time": 14.166}, {"pitch": 55, "velocity": 40, "note_on_time": 13.162, "note_off_time": 14.166}, {"pitch": 48, "velocity": 40, "note_on_time": 14.166, "note_off_time": 15.179}, {"pitch": 52, "velocity": 40, "note_on_time": 15.179, "note_off_time": 16.184}, {"pitch": 55, "velocity": 40, "note_on_time": 15.179, "note_off_time": 16.184}, {"pitch": 60, "velocity": 40, "note_on_time": 16.182, "note_off_time": 17.191}, {"pitch": 64, "velocity": 40, "note_on_time": 16.183, "note_off_time": 17.193}, {"pitch": 67, "velocity": 40, "note_on_time": 16.184, "note_off_time": 17.193}, {"pitch": 48, "velocity": 40, "note_on_time": 16.184, "note_off_time": 17.193}, {"pitch": 52, "velocity": 40, "note_on_time": 17.193, "note_off_time": 18.205}, {"pitch": 55, "velocity": 40, "note_on_time": 17.193, "note_off_time": 18.206}, {"pitch": 77, "velocity": 40, "note_on_time": 18.205, "note_off_time": 19.216}, {"pitch": 48, "velocity": 40, "note_on_time": 18.206, "note_off_time": 19.216}, {"pitch": 52, "velocity": 40, "note_on_time": 19.216, "note_off_time": 20.221}, {"pitch": 55, "velocity": 40, "note_on_time": 19.216, "note_off_time": 20.221}, {"pitch": 48, "velocity": 40, "note_on_time": 20.221, "note_off_time": 21.223}, {"pitch": 52, "velocity": 40, "note_on_time": 21.223, "note_off_time": 22.231}, {"pitch": 55, "velocity": 40, "note_on_time": 21.223, "note_off_time": 22.231}, {"pitch": 48, "velocity": 40, "note_on_time": 22.231, "note_off_time": 23.237}, {"pitch": 52, "velocity": 40, "note_on_time": 23.237, "note_off_time": 24.252}, {"pitch": 55, "velocity": 40, "note_on_time": 23.237, "note_off_time": 24.252}, {"pitch": 60, "velocity": 40, "note_on_time": 24.25, "note_off_time": 25.262}, {"pitch": 64, "velocity": 40, "note_on_time": 24.251, "note_off_time": 25.263}, {"pitch": 67, "velocity": 40, "note_on_time": 24.252, "note_off_time": 25.264}, {"pitch": 48, "velocity": 40, "note_on_time": 24.252, "note_off_time": 25.264}, {"pitch": 52, "velocity": 40, "note_on_time": 25.264, "note_off_time": 26.275}, {"pitch": 55, "velocity": 40, "note_on_time": 25.264, "note_off_time": 26.276}, {"pitch": 74, "velocity": 40, "note_on_time": 26.275, "note_off_time": 27.282}, {"pitch": 48, "velocity": 40, "note_on_time": 26.276, "note_off_time": 27.283}, {"pitch": 52, "velocity": 40, "note_on_time": 27.283, "note_off_time": 28.292}, {"pitch": 55, "velocity": 40, "note_on_time": 27.283, "note_off_time": 28.292}, {"pitch": 48, "velocity": 40, "note_on_time": 28.292, "note_off_time": 29.293}, {"pitch": 52, "velocity": 40, "note_on_time": 29.293, "note_off_time": 30.3}, {"pitch": 55, "velocity": 40, "note_on_time": 29.293, "note_off_time": 30.3}, {"pitch": 48, "velocity": 40, "note_on_time": 30.3, "note_off_time": 31.31}, {"pitch": 52, "velocity": 40, "note_on_time": 31.31, "note_off_time": 32.314}, {"pitch": 55, "velocity": 40, "note_on_time": 31.31, "note_off_time": 32.314}, {"pitch": 60, "velocity": 40, "note_on_time": 32.313, "note_off_time": 33.32}, {"pitch": 64, "velocity": 40, "note_on_time": 32.313, "note_off_time": 33.321}, {"pitch": 67, "velocity": 40, "note_on_time": 32.314, "note_off_time": 33.322}, {"pitch": 48, "velocity": 40, "note_on_time": 32.314, "note_off_time": 33.322}, {"pitch": 52, "velocity": 40, "note_on_time": 33.322, "note_off_time": 34.332}, {"pitch": 55, "velocity": 40, "note_on_time": 33.322, "note_off_time": 34.333}, {"pitch": 76, "velocity": 40, "note_on_time": 34.332, "note_off_time": 35.34}, {"pitch": 48, "velocity": 40, "note_on_time": 34.333, "note_off_time": 35.34}, {"pitch": 52, "velocity": 40, "note_on_time": 35.34, "note_off_time": 36.35}, {"pitch": 55, "velocity": 40, "note_on_time": 35.34, "note_off_time": 36.35}, {"pitch": 48, "velocity": 40, "note_on_time": 36.35, "note_off_time": 37.353}, {"pitch": 52, "velocity": 40, "note_on_time": 37.353, "note_off_time": 38.36}, {"pitch": 55, "velocity": 40, "note_on_time": 37.353, "note_off_time": 38.36}, {"pitch": 48, "velocity": 40, "note_on_time": 38.36, "note_off_time": 39.363}, {"pitch": 52, "velocity": 40, "note_on_time": 39.363, "note_off_time": 40.367}, {"pitch": 55, "velocity": 40, "note_on_time": 39.363, "note_off_time": 40.367}, {"pitch": 60, "velocity": 40, "note_on_time": 40.365, "note_off_time": 41.377}, {"pitch": 64, "velocity": 40, "note_on_time": 40.366, "note_off_time": 41.378}, {"pitch": 67, "velocity": 40, "note_on_time": 40.367, "note_off_time": 41.378}, {"pitch": 74, "velocity": 40, "note_on_time": 42.391, "note_off_time": 43.407}, {"pitch": 60, "velocity": 40, "note_on_time": 48.412, "note_off_time": 49.417}, {"pitch": 64, "velocity": 40, "note_on_time": 48.412, "note_off_time": 49.418}, {"pitch": 67, "velocity": 40, "note_on_time": 48.413, "note_off_time": 49.418}, {"pitch": 79, "velocity": 40, "note_on_time": 50.433, "note_off_time": 51.448}, {"pitch": 60, "velocity": 40, "note_on_time": 56.458, "note_off_time": 57.46}, {"pitch": 64, "velocity": 40, "note_on_time": 56.458, "note_off_time": 57.461}, {"pitch": 67, "velocity": 40, "note_on_time": 56.459, "note_off_time": 57.462}, {"pitch": 77, "velocity": 40, "note_on_time": 58.472, "note_off_time": 59.481}, {"pitch": 60, "velocity": 40, "note_on_time": 64.493, "note_off_time": 65.504}, {"pitch": 64, "velocity": 40, "note_on_time": 64.494, "note_off_time": 65.505}, {"pitch": 67, "velocity": 40, "note_on_time": 64.495, "note_off_time": 65.505}, {"pitch": 74, "velocity": 40, "note_on_time": 66.519, "note_off_time": 67.532}, {"pitch": 60, "velocity": 40, "note_on_time": 72.542, "note_off_time": 73.555}, {"pitch": 64, "velocity": 40, "note_on_time": 72.543, "note_off_time": 73.556}, {"pitch": 67, "velocity": 40, "note_on_time": 72.543, "note_off_time": 73.557}, {"pitch": 79, "velocity": 40, "note_on_time": 74.566, "note_off_time": 75.58}, {"pitch": 60, "velocity": 40, "note_on_time": 80.582, "note_off_time": 81.588}, {"pitch": 64, "velocity": 40, "note_on_time": 80.583, "note_off_time": 81.588}, {"pitch": 67, "velocity": 40, "note_on_time": 80.583, "note_off_time": 81.589}, {"pitch": 76, "velocity": 40, "note_on_time": 82.594, "note_off_time": 83.603}, {"pitch": 60, "velocity": 40, "note_on_time": 88.606, "note_off_time": 89.617}, {"pitch": 64, "velocity": 40, "note_on_time": 88.607, "note_off_time": 89.617}, {"pitch": 67, "velocity": 40, "note_on_time": 88.608, "note_off_time": 89.618}, {"pitch": 74, "velocity": 40, "note_on_time": 90.628, "note_off_time": 91.64}, {"pitch": 60, "velocity": 40, "note_on_time": 96.651, "note_off_time": 97.666}, {"pitch": 64, "velocity": 40, "note_on_time": 96.652, "note_off_time": 97.667}, {"pitch": 67, "velocity": 40, "note_on_time": 96.661, "note_off_time": 97.667}, {"pitch": 72, "velocity": 40, "note_on_time": 98.674, "note_off_time": 99.687}, {"pitch": 60, "velocity": 40, "note_on_time": 104.699, "note_off_time": 105.713}, {"pitch": 64, "velocity": 40, "note_on_time": 104.7, "note_off_time": 105.714}, {"pitch": 67, "velocity": 40, "note_on_time": 104.7, "note_off_time": 105.715}, {"pitch": 77, "velocity": 40, "note_on_time": 106.726, "note_off_time": 107.729}, {"pitch": 60, "velocity": 40, "note_on_time": 112.743, "note_off_time": 113.755}, {"pitch": 64, "velocity": 40, "note_on_time": 112.745, "note_off_time": 113.756}, {"pitch": 67, "velocity": 40, "note_on_time": 112.745, "note_off_time": 113.756}, {"pitch": 72, "velocity": 40, "note_on_time": 114.776, "note_off_time": 115.784}, {"pitch": 60, "velocity": 40, "note_on_time": 120.793, "note_off_time": 121.799}, {"pitch": 64, "velocity": 40, "note_on_time": 120.794, "note_off_time": 121.805}, {"pitch": 67, "velocity": 40, "note_on_time": 120.794, "note_off_time": 121.806}, {"pitch": 79, "velocity": 40, "note_on_time": 122.811, "note_off_time": 123.825}, {"pitch": 60, "velocity": 40, "note_on_time": 128.841, "note_off_time": 129.85}, {"pitch": 64, "velocity": 40, "note_on_time": 128.842, "note_off_time": 129.851}, {"pitch": 67, "velocity": 40, "note_on_time": 128.843, "note_off_time": 129.852}, {"pitch": 76, "velocity": 40, "note_on_time": 130.861, "note_off_time": 131.873}, {"pitch": 60, "velocity": 40, "note_on_time": 136.88, "note_off_time": 137.895}, {"pitch": 64, "velocity": 40, "note_on_time": 136.881, "note_off_time": 137.896}, {"pitch": 67, "velocity": 40, "note_on_time": 136.881, "note_off_time": 137.897}, {"pitch": 72, "velocity": 40, "note_on_time": 138.907, "note_off_time": 139.922}, {"pitch": 60, "velocity": 40, "note_on_time": 144.933, "note_off_time": 145.941}, {"pitch": 64, "velocity": 40, "note_on_time": 144.935, "note_off_time": 145.942}, {"pitch": 67, "velocity": 40, "note_on_time": 144.935, "note_off_time": 145.943}, {"pitch": 76, "velocity": 40, "note_on_time": 146.945, "note_off_time": 147.952}, {"pitch": 60, "velocity": 40, "note_on_time": 152.962, "note_off_time": 153.979}, {"pitch": 64, "velocity": 40, "note_on_time": 152.963, "note_off_time": 153.98}, {"pitch": 67, "velocity": 40, "note_on_time": 152.964, "note_off_time": 153.981}, {"pitch": 77, "velocity": 40, "note_on_time": 154.992, "note_off_time": 156.006}, {"pitch": 60, "velocity": 40, "note_on_time": 161.012, "note_off_time": 162.027}, {"pitch": 64, "velocity": 40, "note_on_time": 161.013, "note_off_time": 162.028}, {"pitch": 67, "velocity": 40, "note_on_time": 161.014, "note_off_time": 162.029}, {"pitch": 72, "velocity": 40, "note_on_time": 163.042, "note_off_time": 164.044}]</notes><options name="Option List">((4, 4), [0.5, 0.25], 3, 8, &lt;NoteRangePerHand.TWO_NOTES: 3&gt;, &lt;NoteRangePerHand.ONE_NOTE: 2&gt;, False, True, True, 100)</options></target_notes><trials><trial trial_no="1" timestamp="2023_06_14-13_46_20"><notes name="Played Notes">[{"pitch": 72, "velocity": 44, "note_on_time": 3.994, "note_off_time": 4.523}, {"pitch": 79, "velocity": 57, "note_on_time": 12.115, "note_off_time": 12.703}, {"pitch": 77, "velocity": 61, "note_on_time": 19.44, "note_off_time": 19.927}, {"pitch": 74, "velocity": 58, "note_on_time": 27.704, "note_off_time": 28.247}, {"pitch": 77, "velocity": 54, "note_on_time": 35.83, "note_off_time": 36.424}, {"pitch": 76, "velocity": 51, "note_on_time": 37.721, "note_off_time": 38.611}, {"pitch": 74, "velocity": 54, "note_on_time": 43.993, "note_off_time": 44.598}, {"pitch": 72, "velocity": 48, "note_on_time": 51.778, "note_off_time": 52.205}, {"pitch": 79, "velocity": 62, "note_on_time": 53.158, "note_off_time": 53.668}, {"pitch": 79, "velocity": 58, "note_on_time": 59.781, "note_off_time": 60.207}, {"pitch": 77, "velocity": 54, "note_on_time": 60.772, "note_off_time": 61.359}, {"pitch": 74, "velocity": 47, "note_on_time": 68.127, "note_off_time": 68.726}, {"pitch": 79, "velocity": 49, "note_on_time": 76.101, "note_off_time": 76.64}, {"pitch": 76, "velocity": 64, "note_on_time": 84.435, "note_off_time": 85.018}, {"pitch": 74, "velocity": 41, "note_on_time": 92.334, "note_off_time": 92.981}, {"pitch": 72, "velocity": 36, "note_on_time": 99.93, "note_off_time": 100.635}, {"pitch": 77, "velocity": 50, "note_on_time": 108.234, "note_off_time": 108.881}, {"pitch": 72, "velocity": 48, "note_on_time": 116.745, "note_off_time": 117.53}, {"pitch": 79, "velocity": 58, "note_on_time": 124.238, "note_off_time": 124.847}, {"pitch": 77, "velocity": 54, "note_on_time": 132.433, "note_off_time": 133.136}, {"pitch": 74, "velocity": 58, "note_on_time": 140.694, "note_off_time": 141.14}, {"pitch": 72, "velocity": 54, "note_on_time": 141.862, "note_off_time": 142.49}, {"pitch": 74, "velocity": 50, "note_on_time": 148.451, "note_off_time": 148.838}, {"pitch": 76, "velocity": 56, "note_on_time": 149.377, "note_off_time": 150.148}, {"pitch": 74, "velocity": 53, "note_on_time": 156.515, "note_off_time": 156.988}, {"pitch": 77, "velocity": 46, "note_on_time": 157.893, "note_off_time": 158.733}]</notes><guidance name="Guidance Mode">None</guidance><error name="Error value">99</error></trial></trials></MIDI>