<MIDI midiNo="2023_06_21-13_15_16"><target_notes><notes name="Note List">[{"pitch": 60, "velocity": 40, "note_on_time": 0.01, "note_off_time": 1.024}, {"pitch": 64, "velocity": 40, "note_on_time": 0.01, "note_off_time": 1.025}, {"pitch": 67, "velocity": 40, "note_on_time": 0.01, "note_off_time": 1.025}, {"pitch": 48, "velocity": 40, "note_on_time": 0.01, "note_off_time": 1.025}, {"pitch": 52, "velocity": 40, "note_on_time": 1.025, "note_off_time": 2.04}, {"pitch": 55, "velocity": 40, "note_on_time": 1.025, "note_off_time": 2.04}, {"pitch": 79, "velocity": 40, "note_on_time": 2.04, "note_off_time": 3.045}, {"pitch": 48, "velocity": 40, "note_on_time": 2.041, "note_off_time": 3.045}, {"pitch": 52, "velocity": 40, "note_on_time": 3.046, "note_off_time": 4.052}, {"pitch": 55, "velocity": 40, "note_on_time": 3.046, "note_off_time": 4.052}, {"pitch": 48, "velocity": 40, "note_on_time": 4.052, "note_off_time": 5.061}, {"pitch": 52, "velocity": 40, "note_on_time": 5.061, "note_off_time": 6.071}, {"pitch": 55, "velocity": 40, "note_on_time": 5.061, "note_off_time": 6.071}, {"pitch": 48, "velocity": 40, "note_on_time": 6.071, "note_off_time": 7.087}, {"pitch": 52, "velocity": 40, "note_on_time": 7.087, "note_off_time": 8.096}, {"pitch": 55, "velocity": 40, "note_on_time": 7.087, "note_off_time": 8.096}, {"pitch": 60, "velocity": 40, "note_on_time": 8.095, "note_off_time": 9.108}, {"pitch": 64, "velocity": 40, "note_on_time": 8.095, "note_off_time": 9.109}, {"pitch": 67, "velocity": 40, "note_on_time": 8.096, "note_off_time": 9.109}, {"pitch": 48, "velocity": 40, "note_on_time": 8.096, "note_off_time": 9.11}, {"pitch": 52, "velocity": 40, "note_on_time": 9.11, "note_off_time": 10.116}, {"pitch": 55, "velocity": 40, "note_on_time": 9.11, "note_off_time": 10.117}, {"pitch": 74, "velocity": 40, "note_on_time": 10.116, "note_off_time": 11.121}, {"pitch": 48, "velocity": 40, "note_on_time": 10.117, "note_off_time": 11.122}, {"pitch": 52, "velocity": 40, "note_on_time": 11.122, "note_off_time": 12.127}, {"pitch": 55, "velocity": 40, "note_on_time": 11.122, "note_off_time": 12.127}, {"pitch": 48, "velocity": 40, "note_on_time": 12.127, "note_off_time": 13.142}, {"pitch": 52, "velocity": 40, "note_on_time": 13.142, "note_off_time": 14.147}, {"pitch": 55, "velocity": 40, "note_on_time": 13.142, "note_off_time": 14.147}, {"pitch": 48, "velocity": 40, "note_on_time": 14.147, "note_off_time": 15.159}, {"pitch": 52, "velocity": 40, "note_on_time": 15.159, "note_off_time": 16.173}, {"pitch": 55, "velocity": 40, "note_on_time": 15.159, "note_off_time": 16.173}, {"pitch": 60, "velocity": 40, "note_on_time": 16.172, "note_off_time": 17.18}, {"pitch": 64, "velocity": 40, "note_on_time": 16.173, "note_off_time": 17.181}, {"pitch": 67, "velocity": 40, "note_on_time": 16.173, "note_off_time": 17.181}, {"pitch": 48, "velocity": 40, "note_on_time": 16.174, "note_off_time": 17.181}, {"pitch": 52, "velocity": 40, "note_on_time": 17.182, "note_off_time": 18.189}, {"pitch": 55, "velocity": 40, "note_on_time": 17.182, "note_off_time": 18.19}, {"pitch": 77, "velocity": 40, "note_on_time": 18.189, "note_off_time": 19.204}, {"pitch": 48, "velocity": 40, "note_on_time": 18.19, "note_off_time": 19.204}, {"pitch": 52, "velocity": 40, "note_on_time": 19.205, "note_off_time": 20.212}, {"pitch": 55, "velocity": 40, "note_on_time": 19.205, "note_off_time": 20.212}, {"pitch": 48, "velocity": 40, "note_on_time": 20.212, "note_off_time": 21.22}, {"pitch": 52, "velocity": 40, "note_on_time": 21.22, "note_off_time": 22.222}, {"pitch": 55, "velocity": 40, "note_on_time": 21.22, "note_off_time": 22.222}, {"pitch": 48, "velocity": 40, "note_on_time": 22.222, "note_off_time": 23.227}, {"pitch": 52, "velocity": 40, "note_on_time": 23.227, "note_off_time": 24.24}, {"pitch": 55, "velocity": 40, "note_on_time": 23.227, "note_off_time": 24.24}, {"pitch": 60, "velocity": 40, "note_on_time": 24.239, "note_off_time": 25.254}, {"pitch": 64, "velocity": 40, "note_on_time": 24.24, "note_off_time": 25.255}, {"pitch": 67, "velocity": 40, "note_on_time": 24.24, "note_off_time": 25.255}, {"pitch": 48, "velocity": 40, "note_on_time": 24.241, "note_off_time": 25.255}, {"pitch": 52, "velocity": 40, "note_on_time": 25.255, "note_off_time": 26.26}, {"pitch": 55, "velocity": 40, "note_on_time": 25.255, "note_off_time": 26.261}, {"pitch": 76, "velocity": 40, "note_on_time": 26.26, "note_off_time": 27.274}, {"pitch": 48, "velocity": 40, "note_on_time": 26.261, "note_off_time": 27.275}, {"pitch": 52, "velocity": 40, "note_on_time": 27.275, "note_off_time": 28.279}, {"pitch": 55, "velocity": 40, "note_on_time": 27.275, "note_off_time": 28.279}, {"pitch": 48, "velocity": 40, "note_on_time": 28.279, "note_off_time": 29.291}, {"pitch": 52, "velocity": 40, "note_on_time": 29.291, "note_off_time": 30.3}, {"pitch": 55, "velocity": 40, "note_on_time": 29.291, "note_off_time": 30.301}, {"pitch": 48, "velocity": 40, "note_on_time": 30.301, "note_off_time": 31.302}, {"pitch": 52, "velocity": 40, "note_on_time": 31.302, "note_off_time": 32.306}, {"pitch": 55, "velocity": 40, "note_on_time": 31.302, "note_off_time": 32.306}, {"pitch": 60, "velocity": 40, "note_on_time": 32.305, "note_off_time": 33.307}, {"pitch": 64, "velocity": 40, "note_on_time": 32.305, "note_off_time": 33.308}, {"pitch": 67, "velocity": 40, "note_on_time": 32.306, "note_off_time": 33.308}, {"pitch": 48, "velocity": 40, "note_on_time": 32.306, "note_off_time": 33.308}, {"pitch": 52, "velocity": 40, "note_on_time": 33.308, "note_off_time": 34.316}, {"pitch": 55, "velocity": 40, "note_on_time": 33.309, "note_off_time": 34.316}, {"pitch": 77, "velocity": 40, "note_on_time": 34.316, "note_off_time": 35.329}, {"pitch": 48, "velocity": 40, "note_on_time": 34.317, "note_off_time": 35.329}, {"pitch": 52, "velocity": 40, "note_on_time": 35.33, "note_off_time": 36.335}, {"pitch": 55, "velocity": 40, "note_on_time": 35.33, "note_off_time": 36.335}, {"pitch": 48, "velocity": 40, "note_on_time": 36.335, "note_off_time": 37.349}, {"pitch": 52, "velocity": 40, "note_on_time": 37.349, "note_off_time": 38.36}, {"pitch": 55, "velocity": 40, "note_on_time": 37.349, "note_off_time": 38.36}, {"pitch": 48, "velocity": 40, "note_on_time": 38.36, "note_off_time": 39.371}, {"pitch": 52, "velocity": 40, "note_on_time": 39.371, "note_off_time": 40.373}, {"pitch": 55, "velocity": 40, "note_on_time": 39.371, "note_off_time": 40.373}, {"pitch": 60, "velocity": 40, "note_on_time": 40.372, "note_off_time": 41.379}, {"pitch": 64, "velocity": 40, "note_on_time": 40.373, "note_off_time": 41.38}, {"pitch": 67, "velocity": 40, "note_on_time": 40.373, "note_off_time": 41.38}, {"pitch": 72, "velocity": 40, "note_on_time": 42.385, "note_off_time": 43.391}, {"pitch": 60, "velocity": 40, "note_on_time": 48.406, "note_off_time": 49.418}, {"pitch": 64, "velocity": 40, "note_on_time": 48.407, "note_off_time": 49.419}, {"pitch": 67, "velocity": 40, "note_on_time": 48.407, "note_off_time": 49.419}, {"pitch": 77, "velocity": 40, "note_on_time": 50.428, "note_off_time": 51.429}, {"pitch": 60, "velocity": 40, "note_on_time": 56.443, "note_off_time": 57.46}, {"pitch": 64, "velocity": 40, "note_on_time": 56.445, "note_off_time": 57.461}, {"pitch": 67, "velocity": 40, "note_on_time": 56.446, "note_off_time": 57.461}, {"pitch": 72, "velocity": 40, "note_on_time": 58.466, "note_off_time": 59.474}, {"pitch": 60, "velocity": 40, "note_on_time": 64.49, "note_off_time": 65.497}, {"pitch": 64, "velocity": 40, "note_on_time": 64.491, "note_off_time": 65.498}, {"pitch": 67, "velocity": 40, "note_on_time": 64.491, "note_off_time": 65.501}, {"pitch": 74, "velocity": 40, "note_on_time": 66.504, "note_off_time": 67.515}, {"pitch": 60, "velocity": 40, "note_on_time": 72.523, "note_off_time": 73.537}, {"pitch": 64, "velocity": 40, "note_on_time": 72.524, "note_off_time": 73.538}, {"pitch": 67, "velocity": 40, "note_on_time": 72.524, "note_off_time": 73.538}, {"pitch": 72, "velocity": 40, "note_on_time": 74.554, "note_off_time": 75.556}, {"pitch": 60, "velocity": 40, "note_on_time": 80.56, "note_off_time": 81.57}, {"pitch": 64, "velocity": 40, "note_on_time": 80.561, "note_off_time": 81.571}, {"pitch": 67, "velocity": 40, "note_on_time": 80.562, "note_off_time": 81.571}, {"pitch": 76, "velocity": 40, "note_on_time": 82.579, "note_off_time": 83.586}, {"pitch": 60, "velocity": 40, "note_on_time": 88.591, "note_off_time": 89.601}, {"pitch": 64, "velocity": 40, "note_on_time": 88.592, "note_off_time": 89.602}, {"pitch": 67, "velocity": 40, "note_on_time": 88.592, "note_off_time": 89.602}, {"pitch": 79, "velocity": 40, "note_on_time": 90.617, "note_off_time": 91.62}, {"pitch": 60, "velocity": 40, "note_on_time": 96.63, "note_off_time": 97.64}, {"pitch": 64, "velocity": 40, "note_on_time": 96.63, "note_off_time": 97.641}, {"pitch": 67, "velocity": 40, "note_on_time": 96.631, "note_off_time": 97.641}, {"pitch": 76, "velocity": 40, "note_on_time": 98.65, "note_off_time": 99.662}, {"pitch": 60, "velocity": 40, "note_on_time": 104.677, "note_off_time": 105.688}, {"pitch": 64, "velocity": 40, "note_on_time": 104.677, "note_off_time": 105.689}, {"pitch": 67, "velocity": 40, "note_on_time": 104.678, "note_off_time": 105.689}, {"pitch": 74, "velocity": 40, "note_on_time": 106.703, "note_off_time": 107.718}, {"pitch": 60, "velocity": 40, "note_on_time": 112.733, "note_off_time": 113.739}, {"pitch": 64, "velocity": 40, "note_on_time": 112.734, "note_off_time": 113.74}, {"pitch": 67, "velocity": 40, "note_on_time": 112.735, "note_off_time": 113.74}, {"pitch": 79, "velocity": 40, "note_on_time": 114.745, "note_off_time": 115.747}, {"pitch": 60, "velocity": 40, "note_on_time": 120.75, "note_off_time": 121.765}, {"pitch": 64, "velocity": 40, "note_on_time": 120.751, "note_off_time": 121.766}, {"pitch": 67, "velocity": 40, "note_on_time": 120.751, "note_off_time": 121.766}, {"pitch": 72, "velocity": 40, "note_on_time": 122.768, "note_off_time": 123.771}, {"pitch": 60, "velocity": 40, "note_on_time": 128.78, "note_off_time": 129.788}, {"pitch": 64, "velocity": 40, "note_on_time": 128.78, "note_off_time": 129.789}, {"pitch": 67, "velocity": 40, "note_on_time": 128.781, "note_off_time": 129.789}, {"pitch": 76, "velocity": 40, "note_on_time": 130.801, "note_off_time": 131.815}, {"pitch": 60, "velocity": 40, "note_on_time": 136.821, "note_off_time": 137.834}, {"pitch": 64, "velocity": 40, "note_on_time": 136.822, "note_off_time": 137.834}, {"pitch": 67, "velocity": 40, "note_on_time": 136.823, "note_off_time": 137.834}, {"pitch": 79, "velocity": 40, "note_on_time": 138.84, "note_off_time": 139.851}, {"pitch": 60, "velocity": 40, "note_on_time": 144.86, "note_off_time": 145.867}, {"pitch": 64, "velocity": 40, "note_on_time": 144.861, "note_off_time": 145.868}, {"pitch": 67, "velocity": 40, "note_on_time": 144.861, "note_off_time": 145.868}, {"pitch": 74, "velocity": 40, "note_on_time": 146.881, "note_off_time": 147.895}, {"pitch": 60, "velocity": 40, "note_on_time": 152.909, "note_off_time": 153.926}, {"pitch": 64, "velocity": 40, "note_on_time": 152.909, "note_off_time": 153.927}, {"pitch": 67, "velocity": 40, "note_on_time": 152.91, "note_off_time": 153.927}, {"pitch": 77, "velocity": 40, "note_on_time": 154.928, "note_off_time": 155.937}, {"pitch": 60, "velocity": 40, "note_on_time": 160.94, "note_off_time": 161.952}, {"pitch": 64, "velocity": 40, "note_on_time": 160.94, "note_off_time": 161.953}, {"pitch": 67, "velocity": 40, "note_on_time": 160.941, "note_off_time": 161.954}, {"pitch": 79, "velocity": 40, "note_on_time": 162.955, "note_off_time": 163.959}]</notes><options name="Option List">((4, 4), [0.5, 0.25], 3, 8, &lt;NoteRangePerHand.TWO_NOTES: 3&gt;, &lt;NoteRangePerHand.ONE_NOTE: 2&gt;, False, True, True, 100)</options></target_notes><trials><trial trial_no="1" timestamp="2023_06_21-13_12_33"><notes name="Played Notes">[{"pitch": 79, "velocity": 56, "note_on_time": 3.566, "note_off_time": 3.814}, {"pitch": 74, "velocity": 67, "note_on_time": 9.538, "note_off_time": 9.692}, {"pitch": 79, "velocity": 64, "note_on_time": 19.487, "note_off_time": 19.697}, {"pitch": 74, "velocity": 41, "note_on_time": 23.765, "note_off_time": 23.972}, {"pitch": 76, "velocity": 50, "note_on_time": 24.014, "note_off_time": 24.22}, {"pitch": 77, "velocity": 46, "note_on_time": 24.272, "note_off_time": 24.483}, {"pitch": 72, "velocity": 62, "note_on_time": 27.408, "note_off_time": 27.544}, {"pitch": 76, "velocity": 55, "note_on_time": 28.575, "note_off_time": 28.756}, {"pitch": 77, "velocity": 50, "note_on_time": 29.152, "note_off_time": 29.36}, {"pitch": 79, "velocity": 51, "note_on_time": 29.634, "note_off_time": 29.818}, {"pitch": 74, "velocity": 41, "note_on_time": 36.402, "note_off_time": 36.508}, {"pitch": 76, "velocity": 52, "note_on_time": 36.705, "note_off_time": 36.964}, {"pitch": 79, "velocity": 45, "note_on_time": 37.396, "note_off_time": 37.607}, {"pitch": 77, "velocity": 46, "note_on_time": 37.068, "note_off_time": 37.638}, {"pitch": 76, "velocity": 60, "note_on_time": 43.658, "note_off_time": 43.821}, {"pitch": 77, "velocity": 58, "note_on_time": 44.545, "note_off_time": 44.766}, {"pitch": 79, "velocity": 68, "note_on_time": 45.553, "note_off_time": 45.699}, {"pitch": 72, "velocity": 42, "note_on_time": 46.744, "note_off_time": 46.917}, {"pitch": 76, "velocity": 38, "note_on_time": 52.258, "note_off_time": 52.423}, {"pitch": 72, "velocity": 49, "note_on_time": 53.325, "note_off_time": 53.5}, {"pitch": 77, "velocity": 60, "note_on_time": 53.989, "note_off_time": 54.198}, {"pitch": 79, "velocity": 60, "note_on_time": 54.387, "note_off_time": 54.563}, {"pitch": 72, "velocity": 54, "note_on_time": 59.585, "note_off_time": 59.694}, {"pitch": 79, "velocity": 64, "note_on_time": 60.652, "note_off_time": 60.822}, {"pitch": 76, "velocity": 68, "note_on_time": 67.314, "note_off_time": 67.492}, {"pitch": 72, "velocity": 57, "note_on_time": 68.259, "note_off_time": 68.475}, {"pitch": 77, "velocity": 70, "note_on_time": 68.632, "note_off_time": 68.889}, {"pitch": 79, "velocity": 62, "note_on_time": 69.334, "note_off_time": 69.484}, {"pitch": 79, "velocity": 62, "note_on_time": 75.345, "note_off_time": 75.502}, {"pitch": 77, "velocity": 49, "note_on_time": 76.803, "note_off_time": 77.006}, {"pitch": 76, "velocity": 45, "note_on_time": 77.46, "note_off_time": 77.621}, {"pitch": 72, "velocity": 49, "note_on_time": 77.824, "note_off_time": 78.015}, {"pitch": 77, "velocity": 52, "note_on_time": 83.706, "note_off_time": 83.937}, {"pitch": 77, "velocity": 4, "note_on_time": 86.897, "note_off_time": 87.006}, {"pitch": 79, "velocity": 45, "note_on_time": 86.874, "note_off_time": 87.112}, {"pitch": 74, "velocity": 54, "note_on_time": 87.36, "note_off_time": 87.505}, {"pitch": 72, "velocity": 32, "note_on_time": 87.686, "note_off_time": 87.863}, {"pitch": 72, "velocity": 56, "note_on_time": 92.585, "note_off_time": 92.757}, {"pitch": 76, "velocity": 56, "note_on_time": 93.637, "note_off_time": 93.835}, {"pitch": 77, "velocity": 64, "note_on_time": 93.931, "note_off_time": 94.286}, {"pitch": 79, "velocity": 1, "note_on_time": 94.11, "note_off_time": 94.36}, {"pitch": 76, "velocity": 67, "note_on_time": 100.34, "note_off_time": 100.525}, {"pitch": 72, "velocity": 56, "note_on_time": 101.836, "note_off_time": 102.019}, {"pitch": 77, "velocity": 51, "note_on_time": 102.279, "note_off_time": 102.516}, {"pitch": 79, "velocity": 40, "note_on_time": 102.644, "note_off_time": 102.822}, {"pitch": 77, "velocity": 54, "note_on_time": 103.02, "note_off_time": 103.179}, {"pitch": 76, "velocity": 46, "note_on_time": 103.341, "note_off_time": 103.517}, {"pitch": 74, "velocity": 30, "note_on_time": 104.292, "note_off_time": 104.374}, {"pitch": 74, "velocity": 64, "note_on_time": 104.565, "note_off_time": 104.638}, {"pitch": 74, "velocity": 64, "note_on_time": 104.738, "note_off_time": 104.8}, {"pitch": 74, "velocity": 71, "note_on_time": 104.891, "note_off_time": 104.956}, {"pitch": 76, "velocity": 54, "note_on_time": 108.394, "note_off_time": 108.559}, {"pitch": 72, "velocity": 56, "note_on_time": 109.464, "note_off_time": 109.722}, {"pitch": 77, "velocity": 56, "note_on_time": 109.951, "note_off_time": 110.171}, {"pitch": 79, "velocity": 57, "note_on_time": 110.37, "note_off_time": 110.559}, {"pitch": 74, "velocity": 55, "note_on_time": 111.391, "note_off_time": 111.509}, {"pitch": 72, "velocity": 42, "note_on_time": 116.416, "note_off_time": 116.669}, {"pitch": 76, "velocity": 46, "note_on_time": 117.563, "note_off_time": 117.786}, {"pitch": 77, "velocity": 29, "note_on_time": 118.223, "note_off_time": 118.448}, {"pitch": 77, "velocity": 40, "note_on_time": 119.297, "note_off_time": 119.454}, {"pitch": 77, "velocity": 39, "note_on_time": 119.607, "note_off_time": 119.735}, {"pitch": 77, "velocity": 52, "note_on_time": 119.883, "note_off_time": 120.04}, {"pitch": 77, "velocity": 24, "note_on_time": 120.146, "note_off_time": 120.571}, {"pitch": 74, "velocity": 64, "note_on_time": 125.468, "note_off_time": 125.617}, {"pitch": 72, "velocity": 53, "note_on_time": 126.623, "note_off_time": 126.841}, {"pitch": 76, "velocity": 48, "note_on_time": 127.019, "note_off_time": 127.212}, {"pitch": 77, "velocity": 51, "note_on_time": 127.368, "note_off_time": 127.582}, {"pitch": 79, "velocity": 1, "note_on_time": 127.669, "note_off_time": 127.839}, {"pitch": 77, "velocity": 13, "note_on_time": 127.678, "note_off_time": 127.968}, {"pitch": 74, "velocity": 63, "note_on_time": 133.674, "note_off_time": 133.81}, {"pitch": 76, "velocity": 70, "note_on_time": 134.444, "note_off_time": 134.656}, {"pitch": 77, "velocity": 35, "note_on_time": 134.832, "note_off_time": 135.036}, {"pitch": 79, "velocity": 45, "note_on_time": 134.837, "note_off_time": 135.059}, {"pitch": 72, "velocity": 45, "note_on_time": 135.108, "note_off_time": 135.268}, {"pitch": 76, "velocity": 49, "note_on_time": 139.792, "note_off_time": 140.032}, {"pitch": 72, "velocity": 60, "note_on_time": 140.203, "note_off_time": 140.378}, {"pitch": 74, "velocity": 65, "note_on_time": 140.664, "note_off_time": 140.805}, {"pitch": 77, "velocity": 42, "note_on_time": 141.055, "note_off_time": 141.178}, {"pitch": 79, "velocity": 65, "note_on_time": 141.035, "note_off_time": 141.222}, {"pitch": 76, "velocity": 46, "note_on_time": 141.321, "note_off_time": 141.868}, {"pitch": 74, "velocity": 41, "note_on_time": 149.291, "note_off_time": 149.432}, {"pitch": 74, "velocity": 49, "note_on_time": 149.697, "note_off_time": 149.866}, {"pitch": 74, "velocity": 41, "note_on_time": 150.295, "note_off_time": 150.423}, {"pitch": 74, "velocity": 49, "note_on_time": 150.78, "note_off_time": 150.89}, {"pitch": 74, "velocity": 45, "note_on_time": 151.055, "note_off_time": 151.146}, {"pitch": 74, "velocity": 52, "note_on_time": 151.258, "note_off_time": 151.329}, {"pitch": 74, "velocity": 38, "note_on_time": 151.457, "note_off_time": 151.529}, {"pitch": 74, "velocity": 59, "note_on_time": 151.641, "note_off_time": 151.718}, {"pitch": 74, "velocity": 65, "note_on_time": 151.823, "note_off_time": 151.875}, {"pitch": 76, "velocity": 54, "note_on_time": 152.033, "note_off_time": 152.182}, {"pitch": 74, "velocity": 52, "note_on_time": 152.343, "note_off_time": 152.534}, {"pitch": 74, "velocity": 26, "note_on_time": 152.727, "note_off_time": 152.873}, {"pitch": 77, "velocity": 37, "note_on_time": 152.972, "note_off_time": 153.115}, {"pitch": 79, "velocity": 52, "note_on_time": 153.251, "note_off_time": 153.346}, {"pitch": 74, "velocity": 52, "note_on_time": 157.513, "note_off_time": 157.617}, {"pitch": 76, "velocity": 31, "note_on_time": 159.529, "note_off_time": 159.699}, {"pitch": 77, "velocity": 47, "note_on_time": 159.576, "note_off_time": 159.731}, {"pitch": 76, "velocity": 57, "note_on_time": 159.857, "note_off_time": 160.054}]</notes><guidance name="Guidance Mode">None</guidance><error name="Error value">99</error></trial></trials></MIDI>