<MIDI midiNo="2023_06_21-10_49_05"><target_notes><notes name="Note List">[{"pitch": 60, "velocity": 40, "note_on_time": 0.009, "note_off_time": 1.021}, {"pitch": 64, "velocity": 40, "note_on_time": 0.009, "note_off_time": 1.021}, {"pitch": 67, "velocity": 40, "note_on_time": 0.009, "note_off_time": 1.022}, {"pitch": 48, "velocity": 40, "note_on_time": 0.009, "note_off_time": 1.022}, {"pitch": 52, "velocity": 40, "note_on_time": 1.022, "note_off_time": 2.029}, {"pitch": 55, "velocity": 40, "note_on_time": 1.022, "note_off_time": 2.03}, {"pitch": 77, "velocity": 40, "note_on_time": 2.029, "note_off_time": 3.035}, {"pitch": 48, "velocity": 40, "note_on_time": 2.03, "note_off_time": 3.036}, {"pitch": 52, "velocity": 40, "note_on_time": 3.036, "note_off_time": 4.045}, {"pitch": 55, "velocity": 40, "note_on_time": 3.036, "note_off_time": 4.045}, {"pitch": 48, "velocity": 40, "note_on_time": 4.045, "note_off_time": 5.056}, {"pitch": 52, "velocity": 40, "note_on_time": 5.056, "note_off_time": 6.069}, {"pitch": 55, "velocity": 40, "note_on_time": 5.056, "note_off_time": 6.069}, {"pitch": 48, "velocity": 40, "note_on_time": 6.069, "note_off_time": 7.074}, {"pitch": 52, "velocity": 40, "note_on_time": 7.074, "note_off_time": 8.078}, {"pitch": 55, "velocity": 40, "note_on_time": 7.074, "note_off_time": 8.078}, {"pitch": 60, "velocity": 40, "note_on_time": 8.077, "note_off_time": 9.086}, {"pitch": 64, "velocity": 40, "note_on_time": 8.078, "note_off_time": 9.087}, {"pitch": 67, "velocity": 40, "note_on_time": 8.078, "note_off_time": 9.087}, {"pitch": 48, "velocity": 40, "note_on_time": 8.079, "note_off_time": 9.087}, {"pitch": 52, "velocity": 40, "note_on_time": 9.087, "note_off_time": 10.095}, {"pitch": 55, "velocity": 40, "note_on_time": 9.087, "note_off_time": 10.096}, {"pitch": 74, "velocity": 40, "note_on_time": 10.095, "note_off_time": 11.098}, {"pitch": 48, "velocity": 40, "note_on_time": 10.096, "note_off_time": 11.098}, {"pitch": 52, "velocity": 40, "note_on_time": 11.098, "note_off_time": 12.11}, {"pitch": 55, "velocity": 40, "note_on_time": 11.099, "note_off_time": 12.11}, {"pitch": 48, "velocity": 40, "note_on_time": 12.11, "note_off_time": 13.12}, {"pitch": 52, "velocity": 40, "note_on_time": 13.12, "note_off_time": 14.124}, {"pitch": 55, "velocity": 40, "note_on_time": 13.12, "note_off_time": 14.124}, {"pitch": 48, "velocity": 40, "note_on_time": 14.124, "note_off_time": 15.136}, {"pitch": 52, "velocity": 40, "note_on_time": 15.136, "note_off_time": 16.144}, {"pitch": 55, "velocity": 40, "note_on_time": 15.136, "note_off_time": 16.144}, {"pitch": 60, "velocity": 40, "note_on_time": 16.143, "note_off_time": 17.154}, {"pitch": 64, "velocity": 40, "note_on_time": 16.144, "note_off_time": 17.155}, {"pitch": 67, "velocity": 40, "note_on_time": 16.144, "note_off_time": 17.155}, {"pitch": 48, "velocity": 40, "note_on_time": 16.144, "note_off_time": 17.155}, {"pitch": 52, "velocity": 40, "note_on_time": 17.156, "note_off_time": 18.158}, {"pitch": 55, "velocity": 40, "note_on_time": 17.156, "note_off_time": 18.159}, {"pitch": 79, "velocity": 40, "note_on_time": 18.158, "note_off_time": 19.174}, {"pitch": 48, "velocity": 40, "note_on_time": 18.159, "note_off_time": 19.174}, {"pitch": 52, "velocity": 40, "note_on_time": 19.174, "note_off_time": 20.185}, {"pitch": 55, "velocity": 40, "note_on_time": 19.174, "note_off_time": 20.185}, {"pitch": 48, "velocity": 40, "note_on_time": 20.185, "note_off_time": 21.197}, {"pitch": 52, "velocity": 40, "note_on_time": 21.197, "note_off_time": 22.199}, {"pitch": 55, "velocity": 40, "note_on_time": 21.197, "note_off_time": 22.199}, {"pitch": 48, "velocity": 40, "note_on_time": 22.199, "note_off_time": 23.213}, {"pitch": 52, "velocity": 40, "note_on_time": 23.213, "note_off_time": 24.221}, {"pitch": 55, "velocity": 40, "note_on_time": 23.213, "note_off_time": 24.222}, {"pitch": 60, "velocity": 40, "note_on_time": 24.22, "note_off_time": 25.235}, {"pitch": 64, "velocity": 40, "note_on_time": 24.221, "note_off_time": 25.236}, {"pitch": 67, "velocity": 40, "note_on_time": 24.221, "note_off_time": 25.236}, {"pitch": 48, "velocity": 40, "note_on_time": 24.222, "note_off_time": 25.236}, {"pitch": 52, "velocity": 40, "note_on_time": 25.237, "note_off_time": 26.244}, {"pitch": 55, "velocity": 40, "note_on_time": 25.237, "note_off_time": 26.245}, {"pitch": 77, "velocity": 40, "note_on_time": 26.244, "note_off_time": 27.256}, {"pitch": 48, "velocity": 40, "note_on_time": 26.245, "note_off_time": 27.256}, {"pitch": 52, "velocity": 40, "note_on_time": 27.256, "note_off_time": 28.263}, {"pitch": 55, "velocity": 40, "note_on_time": 27.256, "note_off_time": 28.263}, {"pitch": 48, "velocity": 40, "note_on_time": 28.263, "note_off_time": 29.278}, {"pitch": 52, "velocity": 40, "note_on_time": 29.278, "note_off_time": 30.286}, {"pitch": 55, "velocity": 40, "note_on_time": 29.278, "note_off_time": 30.286}, {"pitch": 48, "velocity": 40, "note_on_time": 30.286, "note_off_time": 31.298}, {"pitch": 52, "velocity": 40, "note_on_time": 31.298, "note_off_time": 32.308}, {"pitch": 55, "velocity": 40, "note_on_time": 31.298, "note_off_time": 32.309}, {"pitch": 60, "velocity": 40, "note_on_time": 32.307, "note_off_time": 33.319}, {"pitch": 64, "velocity": 40, "note_on_time": 32.308, "note_off_time": 33.32}, {"pitch": 67, "velocity": 40, "note_on_time": 32.308, "note_off_time": 33.32}, {"pitch": 48, "velocity": 40, "note_on_time": 32.309, "note_off_time": 33.321}, {"pitch": 52, "velocity": 40, "note_on_time": 33.321, "note_off_time": 34.326}, {"pitch": 55, "velocity": 40, "note_on_time": 33.321, "note_off_time": 34.327}, {"pitch": 76, "velocity": 40, "note_on_time": 34.326, "note_off_time": 35.339}, {"pitch": 48, "velocity": 40, "note_on_time": 34.327, "note_off_time": 35.339}, {"pitch": 52, "velocity": 40, "note_on_time": 35.34, "note_off_time": 36.347}, {"pitch": 55, "velocity": 40, "note_on_time": 35.34, "note_off_time": 36.347}, {"pitch": 48, "velocity": 40, "note_on_time": 36.347, "note_off_time": 37.36}, {"pitch": 52, "velocity": 40, "note_on_time": 37.36, "note_off_time": 38.369}, {"pitch": 55, "velocity": 40, "note_on_time": 37.36, "note_off_time": 38.369}, {"pitch": 48, "velocity": 40, "note_on_time": 38.369, "note_off_time": 39.37}, {"pitch": 52, "velocity": 40, "note_on_time": 39.37, "note_off_time": 40.381}, {"pitch": 55, "velocity": 40, "note_on_time": 39.37, "note_off_time": 40.381}, {"pitch": 60, "velocity": 40, "note_on_time": 40.38, "note_off_time": 41.394}, {"pitch": 64, "velocity": 40, "note_on_time": 40.381, "note_off_time": 41.395}, {"pitch": 67, "velocity": 40, "note_on_time": 40.381, "note_off_time": 41.395}, {"pitch": 74, "velocity": 40, "note_on_time": 42.404, "note_off_time": 43.415}, {"pitch": 60, "velocity": 40, "note_on_time": 48.429, "note_off_time": 49.441}, {"pitch": 64, "velocity": 40, "note_on_time": 48.43, "note_off_time": 49.442}, {"pitch": 67, "velocity": 40, "note_on_time": 48.43, "note_off_time": 49.442}, {"pitch": 72, "velocity": 40, "note_on_time": 50.454, "note_off_time": 51.465}, {"pitch": 60, "velocity": 40, "note_on_time": 56.472, "note_off_time": 57.486}, {"pitch": 64, "velocity": 40, "note_on_time": 56.473, "note_off_time": 57.487}, {"pitch": 67, "velocity": 40, "note_on_time": 56.473, "note_off_time": 57.487}, {"pitch": 76, "velocity": 40, "note_on_time": 58.498, "note_off_time": 59.511}, {"pitch": 60, "velocity": 40, "note_on_time": 64.52, "note_off_time": 65.523}, {"pitch": 64, "velocity": 40, "note_on_time": 64.521, "note_off_time": 65.524}, {"pitch": 67, "velocity": 40, "note_on_time": 64.521, "note_off_time": 65.524}, {"pitch": 77, "velocity": 40, "note_on_time": 66.531, "note_off_time": 67.554}, {"pitch": 60, "velocity": 40, "note_on_time": 72.56, "note_off_time": 73.57}, {"pitch": 64, "velocity": 40, "note_on_time": 72.562, "note_off_time": 73.571}, {"pitch": 67, "velocity": 40, "note_on_time": 72.562, "note_off_time": 73.571}, {"pitch": 74, "velocity": 40, "note_on_time": 74.579, "note_off_time": 75.581}, {"pitch": 60, "velocity": 40, "note_on_time": 80.593, "note_off_time": 81.61}, {"pitch": 64, "velocity": 40, "note_on_time": 80.594, "note_off_time": 81.611}, {"pitch": 67, "velocity": 40, "note_on_time": 80.594, "note_off_time": 81.611}, {"pitch": 72, "velocity": 40, "note_on_time": 82.614, "note_off_time": 83.616}, {"pitch": 60, "velocity": 40, "note_on_time": 88.627, "note_off_time": 89.639}, {"pitch": 64, "velocity": 40, "note_on_time": 88.627, "note_off_time": 89.64}, {"pitch": 67, "velocity": 40, "note_on_time": 88.628, "note_off_time": 89.64}, {"pitch": 77, "velocity": 40, "note_on_time": 90.648, "note_off_time": 91.654}, {"pitch": 60, "velocity": 40, "note_on_time": 96.667, "note_off_time": 97.676}, {"pitch": 64, "velocity": 40, "note_on_time": 96.668, "note_off_time": 97.677}, {"pitch": 67, "velocity": 40, "note_on_time": 96.668, "note_off_time": 97.678}, {"pitch": 72, "velocity": 40, "note_on_time": 98.693, "note_off_time": 99.701}, {"pitch": 60, "velocity": 40, "note_on_time": 104.71, "note_off_time": 105.721}, {"pitch": 64, "velocity": 40, "note_on_time": 104.711, "note_off_time": 105.722}, {"pitch": 67, "velocity": 40, "note_on_time": 104.711, "note_off_time": 105.722}, {"pitch": 76, "velocity": 40, "note_on_time": 106.733, "note_off_time": 107.747}, {"pitch": 60, "velocity": 40, "note_on_time": 112.759, "note_off_time": 113.77}, {"pitch": 64, "velocity": 40, "note_on_time": 112.76, "note_off_time": 113.771}, {"pitch": 67, "velocity": 40, "note_on_time": 112.76, "note_off_time": 113.771}, {"pitch": 74, "velocity": 40, "note_on_time": 114.776, "note_off_time": 115.787}, {"pitch": 60, "velocity": 40, "note_on_time": 120.797, "note_off_time": 121.811}, {"pitch": 64, "velocity": 40, "note_on_time": 120.798, "note_off_time": 121.812}, {"pitch": 67, "velocity": 40, "note_on_time": 120.798, "note_off_time": 121.812}, {"pitch": 79, "velocity": 40, "note_on_time": 122.823, "note_off_time": 123.835}, {"pitch": 60, "velocity": 40, "note_on_time": 128.85, "note_off_time": 129.855}, {"pitch": 64, "velocity": 40, "note_on_time": 128.85, "note_off_time": 129.856}, {"pitch": 67, "velocity": 40, "note_on_time": 128.851, "note_off_time": 129.856}, {"pitch": 76, "velocity": 40, "note_on_time": 130.87, "note_off_time": 131.881}, {"pitch": 60, "velocity": 40, "note_on_time": 136.882, "note_off_time": 137.899}, {"pitch": 64, "velocity": 40, "note_on_time": 136.883, "note_off_time": 137.9}, {"pitch": 67, "velocity": 40, "note_on_time": 136.883, "note_off_time": 137.9}, {"pitch": 79, "velocity": 40, "note_on_time": 138.932, "note_off_time": 139.934}, {"pitch": 60, "velocity": 40, "note_on_time": 144.949, "note_off_time": 145.96}, {"pitch": 64, "velocity": 40, "note_on_time": 144.95, "note_off_time": 145.961}, {"pitch": 67, "velocity": 40, "note_on_time": 144.95, "note_off_time": 145.961}, {"pitch": 72, "velocity": 40, "note_on_time": 146.972, "note_off_time": 147.984}, {"pitch": 60, "velocity": 40, "note_on_time": 152.99, "note_off_time": 153.995}, {"pitch": 64, "velocity": 40, "note_on_time": 152.99, "note_off_time": 153.996}, {"pitch": 67, "velocity": 40, "note_on_time": 152.991, "note_off_time": 153.996}, {"pitch": 79, "velocity": 40, "note_on_time": 154.999, "note_off_time": 156.006}, {"pitch": 60, "velocity": 40, "note_on_time": 161.021, "note_off_time": 162.029}, {"pitch": 64, "velocity": 40, "note_on_time": 161.022, "note_off_time": 162.03}, {"pitch": 67, "velocity": 40, "note_on_time": 161.022, "note_off_time": 162.03}, {"pitch": 77, "velocity": 40, "note_on_time": 163.045, "note_off_time": 164.06}]</notes><options name="Option List">((4, 4), [0.5, 0.25], 3, 8, &lt;NoteRangePerHand.TWO_NOTES: 3&gt;, &lt;NoteRangePerHand.ONE_NOTE: 2&gt;, False, True, True, 100)</options></target_notes><trials><trial trial_no="1" timestamp="2023_06_21-10_46_21"><notes name="Played Notes">[{"pitch": 76, "velocity": 70, "note_on_time": 3.828, "note_off_time": 4.157}, {"pitch": 77, "velocity": 68, "note_on_time": 4.57, "note_off_time": 5.437}, {"pitch": 74, "velocity": 61, "note_on_time": 11.439, "note_off_time": 12.523}, {"pitch": 77, "velocity": 44, "note_on_time": 19.809, "note_off_time": 20.085}, {"pitch": 79, "velocity": 54, "note_on_time": 20.869, "note_off_time": 22.232}, {"pitch": 77, "velocity": 43, "note_on_time": 27.408, "note_off_time": 28.381}, {"pitch": 74, "velocity": 64, "note_on_time": 35.487, "note_off_time": 35.821}, {"pitch": 76, "velocity": 56, "note_on_time": 36.457, "note_off_time": 37.456}, {"pitch": 72, "velocity": 56, "note_on_time": 44.197, "note_off_time": 44.474}, {"pitch": 74, "velocity": 76, "note_on_time": 44.993, "note_off_time": 46.146}, {"pitch": 72, "velocity": 66, "note_on_time": 51.758, "note_off_time": 52.878}, {"pitch": 74, "velocity": 48, "note_on_time": 60.01, "note_off_time": 60.317}, {"pitch": 76, "velocity": 42, "note_on_time": 60.92, "note_off_time": 61.999}, {"pitch": 77, "velocity": 55, "note_on_time": 68.206, "note_off_time": 69.342}, {"pitch": 76, "velocity": 55, "note_on_time": 77.383, "note_off_time": 77.652}, {"pitch": 74, "velocity": 56, "note_on_time": 78.046, "note_off_time": 79.159}, {"pitch": 72, "velocity": 58, "note_on_time": 83.905, "note_off_time": 84.906}, {"pitch": 76, "velocity": 60, "note_on_time": 92.786, "note_off_time": 93.085}, {"pitch": 77, "velocity": 66, "note_on_time": 93.678, "note_off_time": 94.843}, {"pitch": 72, "velocity": 60, "note_on_time": 100.03, "note_off_time": 101.087}, {"pitch": 76, "velocity": 60, "note_on_time": 109.474, "note_off_time": 110.376}, {"pitch": 74, "velocity": 55, "note_on_time": 116.111, "note_off_time": 117.124}, {"pitch": 79, "velocity": 51, "note_on_time": 124.233, "note_off_time": 125.461}, {"pitch": 77, "velocity": 48, "note_on_time": 132.199, "note_off_time": 132.626}, {"pitch": 76, "velocity": 34, "note_on_time": 133.04, "note_off_time": 134.117}, {"pitch": 79, "velocity": 52, "note_on_time": 140.325, "note_off_time": 141.361}, {"pitch": 72, "velocity": 44, "note_on_time": 148.288, "note_off_time": 149.402}, {"pitch": 79, "velocity": 64, "note_on_time": 156.343, "note_off_time": 157.456}]</notes><guidance name="Guidance Mode">None</guidance><error name="Error value">99</error></trial></trials></MIDI>