<MIDI midiNo="2023_06_06-10_13_41"><target_notes><notes name="Note List">[{"pitch": 60, "velocity": 40, "note_on_time": 0.01, "note_off_time": 1.026}, {"pitch": 64, "velocity": 40, "note_on_time": 0.01, "note_off_time": 1.027}, {"pitch": 67, "velocity": 40, "note_on_time": 0.01, "note_off_time": 1.027}, {"pitch": 48, "velocity": 40, "note_on_time": 0.01, "note_off_time": 1.027}, {"pitch": 52, "velocity": 40, "note_on_time": 1.027, "note_off_time": 2.035}, {"pitch": 55, "velocity": 40, "note_on_time": 1.027, "note_off_time": 2.036}, {"pitch": 76, "velocity": 40, "note_on_time": 2.035, "note_off_time": 3.04}, {"pitch": 48, "velocity": 40, "note_on_time": 2.036, "note_off_time": 3.04}, {"pitch": 52, "velocity": 40, "note_on_time": 3.04, "note_off_time": 4.05}, {"pitch": 55, "velocity": 40, "note_on_time": 3.04, "note_off_time": 4.05}, {"pitch": 48, "velocity": 40, "note_on_time": 4.05, "note_off_time": 5.053}, {"pitch": 52, "velocity": 40, "note_on_time": 5.053, "note_off_time": 6.057}, {"pitch": 55, "velocity": 40, "note_on_time": 5.053, "note_off_time": 6.057}, {"pitch": 48, "velocity": 40, "note_on_time": 6.057, "note_off_time": 7.058}, {"pitch": 52, "velocity": 40, "note_on_time": 7.058, "note_off_time": 8.069}, {"pitch": 55, "velocity": 40, "note_on_time": 7.058, "note_off_time": 8.069}, {"pitch": 60, "velocity": 40, "note_on_time": 8.067, "note_off_time": 9.081}, {"pitch": 64, "velocity": 40, "note_on_time": 8.068, "note_off_time": 9.081}, {"pitch": 67, "velocity": 40, "note_on_time": 8.068, "note_off_time": 9.082}, {"pitch": 48, "velocity": 40, "note_on_time": 8.069, "note_off_time": 9.082}, {"pitch": 52, "velocity": 40, "note_on_time": 9.082, "note_off_time": 10.094}, {"pitch": 55, "velocity": 40, "note_on_time": 9.082, "note_off_time": 10.094}, {"pitch": 74, "velocity": 40, "note_on_time": 10.094, "note_off_time": 11.106}, {"pitch": 48, "velocity": 40, "note_on_time": 10.094, "note_off_time": 11.106}, {"pitch": 52, "velocity": 40, "note_on_time": 11.106, "note_off_time": 12.118}, {"pitch": 55, "velocity": 40, "note_on_time": 11.106, "note_off_time": 12.118}, {"pitch": 48, "velocity": 40, "note_on_time": 12.118, "note_off_time": 13.129}, {"pitch": 52, "velocity": 40, "note_on_time": 13.129, "note_off_time": 14.135}, {"pitch": 55, "velocity": 40, "note_on_time": 13.129, "note_off_time": 14.135}, {"pitch": 48, "velocity": 40, "note_on_time": 14.135, "note_off_time": 15.138}, {"pitch": 52, "velocity": 40, "note_on_time": 15.138, "note_off_time": 16.154}, {"pitch": 55, "velocity": 40, "note_on_time": 15.138, "note_off_time": 16.155}, {"pitch": 60, "velocity": 40, "note_on_time": 16.153, "note_off_time": 17.167}, {"pitch": 64, "velocity": 40, "note_on_time": 16.154, "note_off_time": 17.168}, {"pitch": 67, "velocity": 40, "note_on_time": 16.154, "note_off_time": 17.168}, {"pitch": 48, "velocity": 40, "note_on_time": 16.155, "note_off_time": 17.169}, {"pitch": 52, "velocity": 40, "note_on_time": 17.169, "note_off_time": 18.176}, {"pitch": 55, "velocity": 40, "note_on_time": 17.169, "note_off_time": 18.176}, {"pitch": 76, "velocity": 40, "note_on_time": 18.176, "note_off_time": 19.197}, {"pitch": 48, "velocity": 40, "note_on_time": 18.176, "note_off_time": 19.197}, {"pitch": 52, "velocity": 40, "note_on_time": 19.197, "note_off_time": 20.201}, {"pitch": 55, "velocity": 40, "note_on_time": 19.197, "note_off_time": 20.201}, {"pitch": 48, "velocity": 40, "note_on_time": 20.201, "note_off_time": 21.21}, {"pitch": 52, "velocity": 40, "note_on_time": 21.21, "note_off_time": 22.222}, {"pitch": 55, "velocity": 40, "note_on_time": 21.21, "note_off_time": 22.222}, {"pitch": 48, "velocity": 40, "note_on_time": 22.222, "note_off_time": 23.222}, {"pitch": 52, "velocity": 40, "note_on_time": 23.222, "note_off_time": 24.235}, {"pitch": 55, "velocity": 40, "note_on_time": 23.222, "note_off_time": 24.235}, {"pitch": 60, "velocity": 40, "note_on_time": 24.233, "note_off_time": 25.248}, {"pitch": 64, "velocity": 40, "note_on_time": 24.234, "note_off_time": 25.248}, {"pitch": 67, "velocity": 40, "note_on_time": 24.234, "note_off_time": 25.249}, {"pitch": 48, "velocity": 40, "note_on_time": 24.235, "note_off_time": 25.249}, {"pitch": 52, "velocity": 40, "note_on_time": 25.249, "note_off_time": 26.261}, {"pitch": 55, "velocity": 40, "note_on_time": 25.249, "note_off_time": 26.261}, {"pitch": 74, "velocity": 40, "note_on_time": 26.26, "note_off_time": 27.271}, {"pitch": 48, "velocity": 40, "note_on_time": 26.261, "note_off_time": 27.272}, {"pitch": 52, "velocity": 40, "note_on_time": 27.272, "note_off_time": 28.278}, {"pitch": 55, "velocity": 40, "note_on_time": 27.272, "note_off_time": 28.278}, {"pitch": 48, "velocity": 40, "note_on_time": 28.278, "note_off_time": 29.29}, {"pitch": 52, "velocity": 40, "note_on_time": 29.29, "note_off_time": 30.299}, {"pitch": 55, "velocity": 40, "note_on_time": 29.29, "note_off_time": 30.299}, {"pitch": 48, "velocity": 40, "note_on_time": 30.299, "note_off_time": 31.3}, {"pitch": 52, "velocity": 40, "note_on_time": 31.3, "note_off_time": 32.316}, {"pitch": 55, "velocity": 40, "note_on_time": 31.3, "note_off_time": 32.316}, {"pitch": 60, "velocity": 40, "note_on_time": 32.314, "note_off_time": 33.322}, {"pitch": 64, "velocity": 40, "note_on_time": 32.315, "note_off_time": 33.322}, {"pitch": 67, "velocity": 40, "note_on_time": 32.316, "note_off_time": 33.323}, {"pitch": 48, "velocity": 40, "note_on_time": 32.316, "note_off_time": 33.323}, {"pitch": 52, "velocity": 40, "note_on_time": 33.323, "note_off_time": 34.333}, {"pitch": 55, "velocity": 40, "note_on_time": 33.323, "note_off_time": 34.334}, {"pitch": 76, "velocity": 40, "note_on_time": 34.333, "note_off_time": 35.351}, {"pitch": 48, "velocity": 40, "note_on_time": 34.334, "note_off_time": 35.351}, {"pitch": 52, "velocity": 40, "note_on_time": 35.352, "note_off_time": 36.354}, {"pitch": 55, "velocity": 40, "note_on_time": 35.352, "note_off_time": 36.354}, {"pitch": 48, "velocity": 40, "note_on_time": 36.354, "note_off_time": 37.362}, {"pitch": 52, "velocity": 40, "note_on_time": 37.362, "note_off_time": 38.37}, {"pitch": 55, "velocity": 40, "note_on_time": 37.362, "note_off_time": 38.37}, {"pitch": 48, "velocity": 40, "note_on_time": 38.37, "note_off_time": 39.373}, {"pitch": 52, "velocity": 40, "note_on_time": 39.373, "note_off_time": 40.376}, {"pitch": 55, "velocity": 40, "note_on_time": 39.373, "note_off_time": 40.377}, {"pitch": 60, "velocity": 40, "note_on_time": 40.375, "note_off_time": 41.387}, {"pitch": 64, "velocity": 40, "note_on_time": 40.376, "note_off_time": 41.388}, {"pitch": 67, "velocity": 40, "note_on_time": 40.376, "note_off_time": 41.388}, {"pitch": 72, "velocity": 40, "note_on_time": 42.401, "note_off_time": 43.403}, {"pitch": 60, "velocity": 40, "note_on_time": 48.419, "note_off_time": 49.429}, {"pitch": 64, "velocity": 40, "note_on_time": 48.42, "note_off_time": 49.43}, {"pitch": 67, "velocity": 40, "note_on_time": 48.421, "note_off_time": 49.431}, {"pitch": 76, "velocity": 40, "note_on_time": 50.444, "note_off_time": 51.457}, {"pitch": 60, "velocity": 40, "note_on_time": 56.459, "note_off_time": 57.467}, {"pitch": 64, "velocity": 40, "note_on_time": 56.46, "note_off_time": 57.467}, {"pitch": 67, "velocity": 40, "note_on_time": 56.46, "note_off_time": 57.468}, {"pitch": 74, "velocity": 40, "note_on_time": 58.485, "note_off_time": 59.492}, {"pitch": 60, "velocity": 40, "note_on_time": 64.509, "note_off_time": 65.517}, {"pitch": 64, "velocity": 40, "note_on_time": 64.51, "note_off_time": 65.518}, {"pitch": 67, "velocity": 40, "note_on_time": 64.51, "note_off_time": 65.518}, {"pitch": 72, "velocity": 40, "note_on_time": 66.52, "note_off_time": 67.525}, {"pitch": 60, "velocity": 40, "note_on_time": 72.534, "note_off_time": 73.548}, {"pitch": 64, "velocity": 40, "note_on_time": 72.535, "note_off_time": 73.549}, {"pitch": 67, "velocity": 40, "note_on_time": 72.536, "note_off_time": 73.55}, {"pitch": 76, "velocity": 40, "note_on_time": 74.563, "note_off_time": 75.578}, {"pitch": 60, "velocity": 40, "note_on_time": 80.588, "note_off_time": 81.597}, {"pitch": 64, "velocity": 40, "note_on_time": 80.589, "note_off_time": 81.598}, {"pitch": 67, "velocity": 40, "note_on_time": 80.589, "note_off_time": 81.599}, {"pitch": 72, "velocity": 40, "note_on_time": 82.605, "note_off_time": 83.616}, {"pitch": 60, "velocity": 40, "note_on_time": 88.623, "note_off_time": 89.637}, {"pitch": 64, "velocity": 40, "note_on_time": 88.624, "note_off_time": 89.638}, {"pitch": 67, "velocity": 40, "note_on_time": 88.624, "note_off_time": 89.639}, {"pitch": 74, "velocity": 40, "note_on_time": 90.64, "note_off_time": 91.646}, {"pitch": 60, "velocity": 40, "note_on_time": 96.653, "note_off_time": 97.67}, {"pitch": 64, "velocity": 40, "note_on_time": 96.654, "note_off_time": 97.671}, {"pitch": 67, "velocity": 40, "note_on_time": 96.655, "note_off_time": 97.671}, {"pitch": 72, "velocity": 40, "note_on_time": 98.678, "note_off_time": 99.692}, {"pitch": 60, "velocity": 40, "note_on_time": 104.697, "note_off_time": 105.715}, {"pitch": 64, "velocity": 40, "note_on_time": 104.698, "note_off_time": 105.715}, {"pitch": 67, "velocity": 40, "note_on_time": 104.698, "note_off_time": 105.716}, {"pitch": 74, "velocity": 40, "note_on_time": 106.726, "note_off_time": 107.732}, {"pitch": 60, "velocity": 40, "note_on_time": 112.739, "note_off_time": 113.758}, {"pitch": 64, "velocity": 40, "note_on_time": 112.74, "note_off_time": 113.759}, {"pitch": 67, "velocity": 40, "note_on_time": 112.74, "note_off_time": 113.759}, {"pitch": 76, "velocity": 40, "note_on_time": 114.772, "note_off_time": 115.785}, {"pitch": 60, "velocity": 40, "note_on_time": 120.795, "note_off_time": 121.807}, {"pitch": 64, "velocity": 40, "note_on_time": 120.796, "note_off_time": 121.808}, {"pitch": 67, "velocity": 40, "note_on_time": 120.796, "note_off_time": 121.809}, {"pitch": 72, "velocity": 40, "note_on_time": 122.824, "note_off_time": 123.828}, {"pitch": 60, "velocity": 40, "note_on_time": 128.834, "note_off_time": 129.844}, {"pitch": 64, "velocity": 40, "note_on_time": 128.834, "note_off_time": 129.845}, {"pitch": 67, "velocity": 40, "note_on_time": 128.835, "note_off_time": 129.845}, {"pitch": 74, "velocity": 40, "note_on_time": 130.857, "note_off_time": 131.86}, {"pitch": 60, "velocity": 40, "note_on_time": 136.867, "note_off_time": 137.884}, {"pitch": 64, "velocity": 40, "note_on_time": 136.868, "note_off_time": 137.885}, {"pitch": 67, "velocity": 40, "note_on_time": 136.868, "note_off_time": 137.886}, {"pitch": 72, "velocity": 40, "note_on_time": 138.893, "note_off_time": 139.898}, {"pitch": 60, "velocity": 40, "note_on_time": 144.912, "note_off_time": 145.921}, {"pitch": 64, "velocity": 40, "note_on_time": 144.912, "note_off_time": 145.922}, {"pitch": 67, "velocity": 40, "note_on_time": 144.913, "note_off_time": 145.922}, {"pitch": 74, "velocity": 40, "note_on_time": 146.923, "note_off_time": 147.947}, {"pitch": 60, "velocity": 40, "note_on_time": 152.956, "note_off_time": 153.967}, {"pitch": 64, "velocity": 40, "note_on_time": 152.957, "note_off_time": 153.967}, {"pitch": 67, "velocity": 40, "note_on_time": 152.958, "note_off_time": 153.968}, {"pitch": 76, "velocity": 40, "note_on_time": 154.976, "note_off_time": 155.981}, {"pitch": 60, "velocity": 40, "note_on_time": 160.981, "note_off_time": 161.992}, {"pitch": 64, "velocity": 40, "note_on_time": 160.983, "note_off_time": 161.993}, {"pitch": 67, "velocity": 40, "note_on_time": 160.983, "note_off_time": 161.994}, {"pitch": 72, "velocity": 40, "note_on_time": 163.007, "note_off_time": 164.02}, {"pitch": 60, "velocity": 40, "note_on_time": 169.03, "note_off_time": 170.043}, {"pitch": 64, "velocity": 40, "note_on_time": 169.03, "note_off_time": 170.043}, {"pitch": 67, "velocity": 40, "note_on_time": 169.03, "note_off_time": 170.044}, {"pitch": 76, "velocity": 40, "note_on_time": 171.051, "note_off_time": 172.056}]</notes><options name="Option List">((4, 4), [0.5, 0.25], 3, 8, &lt;NoteRangePerHand.TWO_NOTES: 3&gt;, &lt;NoteRangePerHand.ONE_NOTE: 2&gt;, False, True, True, 100)</options></target_notes><trials><trial trial_no="1" timestamp="2023_06_06-10_10_49"><notes name="Played Notes">[{"pitch": 88, "velocity": 38, "note_on_time": 3.144, "note_off_time": 3.912}, {"pitch": 76, "velocity": 28, "note_on_time": 4.498, "note_off_time": 4.844}, {"pitch": 74, "velocity": 49, "note_on_time": 10.954, "note_off_time": 11.324}, {"pitch": 74, "velocity": 53, "note_on_time": 11.479, "note_off_time": 12.603}, {"pitch": 76, "velocity": 47, "note_on_time": 19.174, "note_off_time": 19.638}, {"pitch": 76, "velocity": 40, "note_on_time": 19.8, "note_off_time": 21.411}, {"pitch": 74, "velocity": 61, "note_on_time": 27.143, "note_off_time": 27.591}, {"pitch": 74, "velocity": 38, "note_on_time": 28.652, "note_off_time": 28.903}, {"pitch": 76, "velocity": 64, "note_on_time": 35.798, "note_off_time": 36.408}, {"pitch": 72, "velocity": 74, "note_on_time": 43.61, "note_off_time": 44.433}, {"pitch": 74, "velocity": 54, "note_on_time": 54.403, "note_off_time": 54.688}, {"pitch": 76, "velocity": 70, "note_on_time": 54.681, "note_off_time": 54.976}, {"pitch": 74, "velocity": 73, "note_on_time": 64.947, "note_off_time": 65.146}, {"pitch": 72, "velocity": 51, "note_on_time": 75.342, "note_off_time": 75.644}, {"pitch": 74, "velocity": 56, "note_on_time": 83.408, "note_off_time": 83.74}, {"pitch": 72, "velocity": 68, "note_on_time": 83.697, "note_off_time": 84.188}, {"pitch": 72, "velocity": 65, "note_on_time": 95.099, "note_off_time": 95.506}, {"pitch": 74, "velocity": 65, "note_on_time": 101.185, "note_off_time": 101.423}, {"pitch": 72, "velocity": 40, "note_on_time": 109.493, "note_off_time": 109.726}, {"pitch": 74, "velocity": 38, "note_on_time": 118.468, "note_off_time": 118.836}, {"pitch": 72, "velocity": 61, "note_on_time": 124.587, "note_off_time": 124.939}, {"pitch": 74, "velocity": 57, "note_on_time": 131.978, "note_off_time": 132.507}, {"pitch": 72, "velocity": 56, "note_on_time": 139.362, "note_off_time": 139.683}, {"pitch": 72, "velocity": 59, "note_on_time": 139.828, "note_off_time": 140.048}, {"pitch": 72, "velocity": 58, "note_on_time": 150.048, "note_off_time": 150.378}, {"pitch": 74, "velocity": 53, "note_on_time": 158.719, "note_off_time": 159.116}, {"pitch": 72, "velocity": 69, "note_on_time": 159.092, "note_off_time": 159.429}, {"pitch": 76, "velocity": 41, "note_on_time": 166.503, "note_off_time": 167.024}]</notes><guidance name="Guidance Mode">None</guidance><error name="Error value">99</error></trial><trial trial_no="2" timestamp="2023_06_06-10_17_46"><notes name="Played Notes">[{"pitch": 72, "velocity": 64, "note_on_time": 4.91, "note_off_time": 5.283}, {"pitch": 74, "velocity": 52, "note_on_time": 5.229, "note_off_time": 5.598}, {"pitch": 76, "velocity": 62, "note_on_time": 5.554, "note_off_time": 5.992}, {"pitch": 76, "velocity": 57, "note_on_time": 6.116, "note_off_time": 6.746}, {"pitch": 74, "velocity": 54, "note_on_time": 6.778, "note_off_time": 7.182}, {"pitch": 76, "velocity": 61, "note_on_time": 7.072, "note_off_time": 7.376}, {"pitch": 79, "velocity": 23, "note_on_time": 7.468, "note_off_time": 8.069}, {"pitch": 76, "velocity": 52, "note_on_time": 8.063, "note_off_time": 8.598}, {"pitch": 74, "velocity": 23, "note_on_time": 8.613, "note_off_time": 9.244}, {"pitch": 72, "velocity": 40, "note_on_time": 9.167, "note_off_time": 9.781}, {"pitch": 72, "velocity": 76, "note_on_time": 10.392, "note_off_time": 10.627}, {"pitch": 74, "velocity": 50, "note_on_time": 10.66, "note_off_time": 10.997}, {"pitch": 72, "velocity": 38, "note_on_time": 11.041, "note_off_time": 11.298}, {"pitch": 72, "velocity": 59, "note_on_time": 11.578, "note_off_time": 11.863}, {"pitch": 74, "velocity": 40, "note_on_time": 11.871, "note_off_time": 12.139}, {"pitch": 72, "velocity": 42, "note_on_time": 12.207, "note_off_time": 12.256}, {"pitch": 74, "velocity": 51, "note_on_time": 12.279, "note_off_time": 12.347}, {"pitch": 72, "velocity": 58, "note_on_time": 12.363, "note_off_time": 12.901}, {"pitch": 76, "velocity": 69, "note_on_time": 13.477, "note_off_time": 13.551}, {"pitch": 76, "velocity": 63, "note_on_time": 13.744, "note_off_time": 13.822}, {"pitch": 74, "velocity": 55, "note_on_time": 14.016, "note_off_time": 14.165}, {"pitch": 76, "velocity": 44, "note_on_time": 15.229, "note_off_time": 15.316}, {"pitch": 76, "velocity": 47, "note_on_time": 15.507, "note_off_time": 15.67}, {"pitch": 74, "velocity": 46, "note_on_time": 15.833, "note_off_time": 15.979}, {"pitch": 74, "velocity": 53, "note_on_time": 17.119, "note_off_time": 17.185}, {"pitch": 74, "velocity": 51, "note_on_time": 17.378, "note_off_time": 17.469}, {"pitch": 72, "velocity": 52, "note_on_time": 17.669, "note_off_time": 17.841}, {"pitch": 72, "velocity": 48, "note_on_time": 18.611, "note_off_time": 18.708}, {"pitch": 74, "velocity": 52, "note_on_time": 18.911, "note_off_time": 19.029}, {"pitch": 76, "velocity": 49, "note_on_time": 19.202, "note_off_time": 19.282}, {"pitch": 74, "velocity": 55, "note_on_time": 19.494, "note_off_time": 19.704}, {"pitch": 76, "velocity": 44, "note_on_time": 19.749, "note_off_time": 20.034}, {"pitch": 74, "velocity": 48, "note_on_time": 20.049, "note_off_time": 20.277}, {"pitch": 76, "velocity": 43, "note_on_time": 20.329, "note_off_time": 20.576}, {"pitch": 74, "velocity": 54, "note_on_time": 20.648, "note_off_time": 20.883}, {"pitch": 72, "velocity": 58, "note_on_time": 21.258, "note_off_time": 21.648}, {"pitch": 72, "velocity": 56, "note_on_time": 21.893, "note_off_time": 22.38}, {"pitch": 72, "velocity": 55, "note_on_time": 65.806, "note_off_time": 66.126}, {"pitch": 74, "velocity": 43, "note_on_time": 66.083, "note_off_time": 66.437}, {"pitch": 72, "velocity": 46, "note_on_time": 66.401, "note_off_time": 66.711}, {"pitch": 74, "velocity": 48, "note_on_time": 66.654, "note_off_time": 66.976}, {"pitch": 76, "velocity": 54, "note_on_time": 66.975, "note_off_time": 67.152}, {"pitch": 76, "velocity": 60, "note_on_time": 67.562, "note_off_time": 68.12}, {"pitch": 74, "velocity": 60, "note_on_time": 68.126, "note_off_time": 68.448}, {"pitch": 76, "velocity": 47, "note_on_time": 68.422, "note_off_time": 68.769}, {"pitch": 74, "velocity": 48, "note_on_time": 68.755, "note_off_time": 69.091}, {"pitch": 76, "velocity": 43, "note_on_time": 69.059, "note_off_time": 69.37}, {"pitch": 74, "velocity": 51, "note_on_time": 69.334, "note_off_time": 70.366}, {"pitch": 72, "velocity": 44, "note_on_time": 70.622, "note_off_time": 70.743}, {"pitch": 72, "velocity": 43, "note_on_time": 70.915, "note_off_time": 71.061}, {"pitch": 76, "velocity": 35, "note_on_time": 71.248, "note_off_time": 71.326}, {"pitch": 76, "velocity": 33, "note_on_time": 71.535, "note_off_time": 71.699}, {"pitch": 74, "velocity": 41, "note_on_time": 71.849, "note_off_time": 71.932}, {"pitch": 74, "velocity": 22, "note_on_time": 72.142, "note_off_time": 72.373}, {"pitch": 72, "velocity": 26, "note_on_time": 72.456, "note_off_time": 72.798}, {"pitch": 74, "velocity": 37, "note_on_time": 73.061, "note_off_time": 73.138}, {"pitch": 74, "velocity": 35, "note_on_time": 73.334, "note_off_time": 73.502}, {"pitch": 76, "velocity": 45, "note_on_time": 73.649, "note_off_time": 73.733}, {"pitch": 76, "velocity": 46, "note_on_time": 73.96, "note_off_time": 74.174}, {"pitch": 72, "velocity": 34, "note_on_time": 74.269, "note_off_time": 74.869}, {"pitch": 76, "velocity": 50, "note_on_time": 74.855, "note_off_time": 75.107}, {"pitch": 74, "velocity": 32, "note_on_time": 75.155, "note_off_time": 75.456}, {"pitch": 76, "velocity": 49, "note_on_time": 75.457, "note_off_time": 75.68}, {"pitch": 72, "velocity": 45, "note_on_time": 76.063, "note_off_time": 76.26}, {"pitch": 72, "velocity": 46, "note_on_time": 76.675, "note_off_time": 77.264}, {"pitch": 76, "velocity": 56, "note_on_time": 77.258, "note_off_time": 78.006}, {"pitch": 74, "velocity": 47, "note_on_time": 77.967, "note_off_time": 78.263}, {"pitch": 76, "velocity": 63, "note_on_time": 78.239, "note_off_time": 78.566}, {"pitch": 74, "velocity": 56, "note_on_time": 78.539, "note_off_time": 78.918}, {"pitch": 76, "velocity": 47, "note_on_time": 78.848, "note_off_time": 79.132}, {"pitch": 72, "velocity": 42, "note_on_time": 79.144, "note_off_time": 80.015}, {"pitch": 76, "velocity": 41, "note_on_time": 80.073, "note_off_time": 80.176}, {"pitch": 74, "velocity": 38, "note_on_time": 80.192, "note_off_time": 80.34}, {"pitch": 72, "velocity": 36, "note_on_time": 80.317, "note_off_time": 80.654}]</notes><guidance name="Guidance Mode">None</guidance><error name="Error value">99</error></trial></trials></MIDI>