<MIDI midiNo="2023_06_11-12_59_03"><target_notes><notes name="Note List">[{"pitch": 60, "velocity": 40, "note_on_time": 0.01, "note_off_time": 1.013}, {"pitch": 64, "velocity": 40, "note_on_time": 0.01, "note_off_time": 1.013}, {"pitch": 67, "velocity": 40, "note_on_time": 0.01, "note_off_time": 1.014}, {"pitch": 48, "velocity": 40, "note_on_time": 0.01, "note_off_time": 1.014}, {"pitch": 52, "velocity": 40, "note_on_time": 1.014, "note_off_time": 2.024}, {"pitch": 55, "velocity": 40, "note_on_time": 1.014, "note_off_time": 2.025}, {"pitch": 74, "velocity": 40, "note_on_time": 2.024, "note_off_time": 3.034}, {"pitch": 48, "velocity": 40, "note_on_time": 2.025, "note_off_time": 3.034}, {"pitch": 52, "velocity": 40, "note_on_time": 3.034, "note_off_time": 4.036}, {"pitch": 55, "velocity": 40, "note_on_time": 3.034, "note_off_time": 4.036}, {"pitch": 48, "velocity": 40, "note_on_time": 4.036, "note_off_time": 5.05}, {"pitch": 52, "velocity": 40, "note_on_time": 5.05, "note_off_time": 6.066}, {"pitch": 55, "velocity": 40, "note_on_time": 5.05, "note_off_time": 6.066}, {"pitch": 48, "velocity": 40, "note_on_time": 6.066, "note_off_time": 7.08}, {"pitch": 52, "velocity": 40, "note_on_time": 7.08, "note_off_time": 8.098}, {"pitch": 55, "velocity": 40, "note_on_time": 7.08, "note_off_time": 8.098}, {"pitch": 60, "velocity": 40, "note_on_time": 8.096, "note_off_time": 9.099}, {"pitch": 64, "velocity": 40, "note_on_time": 8.097, "note_off_time": 9.1}, {"pitch": 67, "velocity": 40, "note_on_time": 8.097, "note_off_time": 9.1}, {"pitch": 48, "velocity": 40, "note_on_time": 8.098, "note_off_time": 9.1}, {"pitch": 52, "velocity": 40, "note_on_time": 9.101, "note_off_time": 10.111}, {"pitch": 55, "velocity": 40, "note_on_time": 9.101, "note_off_time": 10.112}, {"pitch": 77, "velocity": 40, "note_on_time": 10.111, "note_off_time": 11.114}, {"pitch": 48, "velocity": 40, "note_on_time": 10.112, "note_off_time": 11.114}, {"pitch": 52, "velocity": 40, "note_on_time": 11.115, "note_off_time": 12.125}, {"pitch": 55, "velocity": 40, "note_on_time": 11.115, "note_off_time": 12.125}, {"pitch": 48, "velocity": 40, "note_on_time": 12.125, "note_off_time": 13.137}, {"pitch": 52, "velocity": 40, "note_on_time": 13.137, "note_off_time": 14.144}, {"pitch": 55, "velocity": 40, "note_on_time": 13.137, "note_off_time": 14.144}, {"pitch": 48, "velocity": 40, "note_on_time": 14.144, "note_off_time": 15.146}, {"pitch": 52, "velocity": 40, "note_on_time": 15.146, "note_off_time": 16.159}, {"pitch": 55, "velocity": 40, "note_on_time": 15.146, "note_off_time": 16.159}, {"pitch": 60, "velocity": 40, "note_on_time": 16.158, "note_off_time": 17.171}, {"pitch": 64, "velocity": 40, "note_on_time": 16.159, "note_off_time": 17.172}, {"pitch": 67, "velocity": 40, "note_on_time": 16.159, "note_off_time": 17.172}, {"pitch": 48, "velocity": 40, "note_on_time": 16.16, "note_off_time": 17.173}, {"pitch": 52, "velocity": 40, "note_on_time": 17.173, "note_off_time": 18.176}, {"pitch": 55, "velocity": 40, "note_on_time": 17.173, "note_off_time": 18.177}, {"pitch": 76, "velocity": 40, "note_on_time": 18.176, "note_off_time": 19.184}, {"pitch": 48, "velocity": 40, "note_on_time": 18.177, "note_off_time": 19.185}, {"pitch": 52, "velocity": 40, "note_on_time": 19.185, "note_off_time": 20.189}, {"pitch": 55, "velocity": 40, "note_on_time": 19.185, "note_off_time": 20.19}, {"pitch": 48, "velocity": 40, "note_on_time": 20.191, "note_off_time": 21.203}, {"pitch": 52, "velocity": 40, "note_on_time": 21.203, "note_off_time": 22.205}, {"pitch": 55, "velocity": 40, "note_on_time": 21.203, "note_off_time": 22.205}, {"pitch": 48, "velocity": 40, "note_on_time": 22.205, "note_off_time": 23.221}, {"pitch": 52, "velocity": 40, "note_on_time": 23.221, "note_off_time": 24.235}, {"pitch": 55, "velocity": 40, "note_on_time": 23.221, "note_off_time": 24.235}, {"pitch": 60, "velocity": 40, "note_on_time": 24.234, "note_off_time": 25.259}, {"pitch": 64, "velocity": 40, "note_on_time": 24.234, "note_off_time": 25.259}, {"pitch": 67, "velocity": 40, "note_on_time": 24.235, "note_off_time": 25.259}, {"pitch": 48, "velocity": 40, "note_on_time": 24.235, "note_off_time": 25.259}, {"pitch": 52, "velocity": 40, "note_on_time": 25.261, "note_off_time": 26.265}, {"pitch": 55, "velocity": 40, "note_on_time": 25.261, "note_off_time": 26.266}, {"pitch": 72, "velocity": 40, "note_on_time": 26.265, "note_off_time": 27.279}, {"pitch": 48, "velocity": 40, "note_on_time": 26.266, "note_off_time": 27.279}, {"pitch": 52, "velocity": 40, "note_on_time": 27.279, "note_off_time": 28.295}, {"pitch": 55, "velocity": 40, "note_on_time": 27.279, "note_off_time": 28.295}, {"pitch": 48, "velocity": 40, "note_on_time": 28.295, "note_off_time": 29.307}, {"pitch": 52, "velocity": 40, "note_on_time": 29.307, "note_off_time": 30.328}, {"pitch": 55, "velocity": 40, "note_on_time": 29.307, "note_off_time": 30.328}, {"pitch": 48, "velocity": 40, "note_on_time": 30.328, "note_off_time": 31.34}, {"pitch": 52, "velocity": 40, "note_on_time": 31.34, "note_off_time": 32.352}, {"pitch": 55, "velocity": 40, "note_on_time": 31.34, "note_off_time": 32.352}, {"pitch": 60, "velocity": 40, "note_on_time": 32.351, "note_off_time": 33.362}, {"pitch": 64, "velocity": 40, "note_on_time": 32.351, "note_off_time": 33.363}, {"pitch": 67, "velocity": 40, "note_on_time": 32.352, "note_off_time": 33.363}, {"pitch": 48, "velocity": 40, "note_on_time": 32.352, "note_off_time": 33.364}, {"pitch": 52, "velocity": 40, "note_on_time": 33.364, "note_off_time": 34.378}, {"pitch": 55, "velocity": 40, "note_on_time": 33.364, "note_off_time": 34.379}, {"pitch": 79, "velocity": 40, "note_on_time": 34.378, "note_off_time": 35.39}, {"pitch": 48, "velocity": 40, "note_on_time": 34.379, "note_off_time": 35.39}, {"pitch": 52, "velocity": 40, "note_on_time": 35.391, "note_off_time": 36.398}, {"pitch": 55, "velocity": 40, "note_on_time": 35.391, "note_off_time": 36.398}, {"pitch": 48, "velocity": 40, "note_on_time": 36.398, "note_off_time": 37.402}, {"pitch": 52, "velocity": 40, "note_on_time": 37.402, "note_off_time": 38.414}, {"pitch": 55, "velocity": 40, "note_on_time": 37.402, "note_off_time": 38.414}, {"pitch": 48, "velocity": 40, "note_on_time": 38.414, "note_off_time": 39.429}, {"pitch": 52, "velocity": 40, "note_on_time": 39.429, "note_off_time": 40.433}, {"pitch": 55, "velocity": 40, "note_on_time": 39.429, "note_off_time": 40.433}, {"pitch": 60, "velocity": 40, "note_on_time": 40.432, "note_off_time": 41.448}, {"pitch": 64, "velocity": 40, "note_on_time": 40.433, "note_off_time": 41.449}, {"pitch": 67, "velocity": 40, "note_on_time": 40.433, "note_off_time": 41.449}, {"pitch": 77, "velocity": 40, "note_on_time": 42.461, "note_off_time": 43.464}, {"pitch": 60, "velocity": 40, "note_on_time": 48.48, "note_off_time": 49.496}, {"pitch": 64, "velocity": 40, "note_on_time": 48.48, "note_off_time": 49.497}, {"pitch": 67, "velocity": 40, "note_on_time": 48.48, "note_off_time": 49.497}, {"pitch": 76, "velocity": 40, "note_on_time": 50.506, "note_off_time": 51.511}, {"pitch": 60, "velocity": 40, "note_on_time": 56.522, "note_off_time": 57.535}, {"pitch": 64, "velocity": 40, "note_on_time": 56.523, "note_off_time": 57.535}, {"pitch": 67, "velocity": 40, "note_on_time": 56.523, "note_off_time": 57.536}, {"pitch": 79, "velocity": 40, "note_on_time": 58.539, "note_off_time": 59.554}, {"pitch": 60, "velocity": 40, "note_on_time": 64.557, "note_off_time": 65.566}, {"pitch": 64, "velocity": 40, "note_on_time": 64.558, "note_off_time": 65.567}, {"pitch": 67, "velocity": 40, "note_on_time": 64.558, "note_off_time": 65.567}, {"pitch": 72, "velocity": 40, "note_on_time": 66.581, "note_off_time": 67.592}, {"pitch": 60, "velocity": 40, "note_on_time": 72.609, "note_off_time": 73.623}, {"pitch": 64, "velocity": 40, "note_on_time": 72.609, "note_off_time": 73.624}, {"pitch": 67, "velocity": 40, "note_on_time": 72.609, "note_off_time": 73.624}, {"pitch": 77, "velocity": 40, "note_on_time": 74.634, "note_off_time": 75.65}, {"pitch": 60, "velocity": 40, "note_on_time": 80.654, "note_off_time": 81.67}, {"pitch": 64, "velocity": 40, "note_on_time": 80.655, "note_off_time": 81.671}, {"pitch": 67, "velocity": 40, "note_on_time": 80.655, "note_off_time": 81.671}, {"pitch": 74, "velocity": 40, "note_on_time": 82.683, "note_off_time": 83.688}, {"pitch": 60, "velocity": 40, "note_on_time": 88.695, "note_off_time": 89.7}, {"pitch": 64, "velocity": 40, "note_on_time": 88.696, "note_off_time": 89.701}, {"pitch": 67, "velocity": 40, "note_on_time": 88.696, "note_off_time": 89.701}, {"pitch": 76, "velocity": 40, "note_on_time": 90.716, "note_off_time": 91.731}, {"pitch": 60, "velocity": 40, "note_on_time": 96.732, "note_off_time": 97.75}, {"pitch": 64, "velocity": 40, "note_on_time": 96.733, "note_off_time": 97.751}, {"pitch": 67, "velocity": 40, "note_on_time": 96.733, "note_off_time": 97.752}, {"pitch": 79, "velocity": 40, "note_on_time": 98.768, "note_off_time": 99.781}, {"pitch": 60, "velocity": 40, "note_on_time": 104.785, "note_off_time": 105.798}, {"pitch": 64, "velocity": 40, "note_on_time": 104.786, "note_off_time": 105.799}, {"pitch": 67, "velocity": 40, "note_on_time": 104.786, "note_off_time": 105.799}, {"pitch": 77, "velocity": 40, "note_on_time": 106.809, "note_off_time": 107.824}, {"pitch": 60, "velocity": 40, "note_on_time": 112.825, "note_off_time": 113.838}, {"pitch": 64, "velocity": 40, "note_on_time": 112.826, "note_off_time": 113.84}, {"pitch": 67, "velocity": 40, "note_on_time": 112.826, "note_off_time": 113.84}, {"pitch": 74, "velocity": 40, "note_on_time": 114.847, "note_off_time": 115.866}, {"pitch": 60, "velocity": 40, "note_on_time": 120.868, "note_off_time": 121.884}, {"pitch": 64, "velocity": 40, "note_on_time": 120.868, "note_off_time": 121.885}, {"pitch": 67, "velocity": 40, "note_on_time": 120.869, "note_off_time": 121.885}, {"pitch": 72, "velocity": 40, "note_on_time": 122.897, "note_off_time": 123.912}, {"pitch": 60, "velocity": 40, "note_on_time": 128.923, "note_off_time": 129.937}, {"pitch": 64, "velocity": 40, "note_on_time": 128.924, "note_off_time": 129.938}, {"pitch": 67, "velocity": 40, "note_on_time": 128.924, "note_off_time": 129.938}, {"pitch": 79, "velocity": 40, "note_on_time": 130.954, "note_off_time": 131.969}, {"pitch": 60, "velocity": 40, "note_on_time": 136.971, "note_off_time": 137.984}, {"pitch": 64, "velocity": 40, "note_on_time": 136.972, "note_off_time": 137.985}, {"pitch": 67, "velocity": 40, "note_on_time": 136.972, "note_off_time": 137.985}, {"pitch": 72, "velocity": 40, "note_on_time": 139.009, "note_off_time": 140.024}, {"pitch": 60, "velocity": 40, "note_on_time": 145.035, "note_off_time": 146.042}, {"pitch": 64, "velocity": 40, "note_on_time": 145.036, "note_off_time": 146.043}, {"pitch": 67, "velocity": 40, "note_on_time": 145.036, "note_off_time": 146.043}, {"pitch": 76, "velocity": 40, "note_on_time": 147.051, "note_off_time": 148.076}, {"pitch": 60, "velocity": 40, "note_on_time": 153.083, "note_off_time": 154.086}, {"pitch": 64, "velocity": 40, "note_on_time": 153.083, "note_off_time": 154.087}, {"pitch": 67, "velocity": 40, "note_on_time": 153.084, "note_off_time": 154.087}, {"pitch": 74, "velocity": 40, "note_on_time": 155.089, "note_off_time": 156.101}, {"pitch": 60, "velocity": 40, "note_on_time": 161.127, "note_off_time": 162.131}, {"pitch": 64, "velocity": 40, "note_on_time": 161.127, "note_off_time": 162.132}, {"pitch": 67, "velocity": 40, "note_on_time": 161.128, "note_off_time": 162.133}, {"pitch": 74, "velocity": 40, "note_on_time": 163.148, "note_off_time": 164.159}]</notes><options name="Option List">((4, 4), [0.5, 0.25], 3, 8, &lt;NoteRangePerHand.TWO_NOTES: 3&gt;, &lt;NoteRangePerHand.ONE_NOTE: 2&gt;, False, True, True, 100)</options></target_notes><trials><trial trial_no="1" timestamp="2023_06_11-12_56_19"><notes name="Played Notes">[{"pitch": 76, "velocity": 56, "note_on_time": 3.72, "note_off_time": 4.138}, {"pitch": 77, "velocity": 45, "note_on_time": 9.639, "note_off_time": 10.094}, {"pitch": 74, "velocity": 68, "note_on_time": 10.777, "note_off_time": 11.214}, {"pitch": 79, "velocity": 64, "note_on_time": 11.543, "note_off_time": 11.919}, {"pitch": 72, "velocity": 52, "note_on_time": 12.622, "note_off_time": 13.273}, {"pitch": 77, "velocity": 58, "note_on_time": 17.763, "note_off_time": 18.139}, {"pitch": 76, "velocity": 58, "note_on_time": 18.822, "note_off_time": 19.146}, {"pitch": 76, "velocity": 70, "note_on_time": 19.541, "note_off_time": 19.942}, {"pitch": 79, "velocity": 3, "note_on_time": 20.597, "note_off_time": 20.917}, {"pitch": 72, "velocity": 67, "note_on_time": 21.208, "note_off_time": 21.634}, {"pitch": 74, "velocity": 70, "note_on_time": 22.047, "note_off_time": 22.471}, {"pitch": 77, "velocity": 59, "note_on_time": 28.462, "note_off_time": 28.921}, {"pitch": 79, "velocity": 70, "note_on_time": 29.497, "note_off_time": 29.83}, {"pitch": 76, "velocity": 52, "note_on_time": 30.32, "note_off_time": 30.648}, {"pitch": 74, "velocity": 57, "note_on_time": 31.18, "note_off_time": 31.598}, {"pitch": 72, "velocity": 52, "note_on_time": 31.904, "note_off_time": 32.643}, {"pitch": 79, "velocity": 54, "note_on_time": 35.902, "note_off_time": 36.195}, {"pitch": 74, "velocity": 47, "note_on_time": 43.953, "note_off_time": 44.989}, {"pitch": 76, "velocity": 59, "note_on_time": 52.672, "note_off_time": 53.646}, {"pitch": 77, "velocity": 49, "note_on_time": 60.716, "note_off_time": 61.289}, {"pitch": 79, "velocity": 68, "note_on_time": 61.788, "note_off_time": 62.973}, {"pitch": 74, "velocity": 56, "note_on_time": 68.654, "note_off_time": 69.272}, {"pitch": 76, "velocity": 60, "note_on_time": 69.992, "note_off_time": 70.366}, {"pitch": 72, "velocity": 56, "note_on_time": 70.611, "note_off_time": 72.458}, {"pitch": 79, "velocity": 20, "note_on_time": 77.001, "note_off_time": 78.111}, {"pitch": 76, "velocity": 57, "note_on_time": 84.342, "note_off_time": 85.837}, {"pitch": 74, "velocity": 68, "note_on_time": 92.958, "note_off_time": 93.515}, {"pitch": 72, "velocity": 61, "note_on_time": 94.061, "note_off_time": 94.766}, {"pitch": 77, "velocity": 59, "note_on_time": 95.681, "note_off_time": 96.507}, {"pitch": 76, "velocity": 60, "note_on_time": 101.027, "note_off_time": 101.533}, {"pitch": 79, "velocity": 30, "note_on_time": 102.318, "note_off_time": 103.501}, {"pitch": 77, "velocity": 59, "note_on_time": 108.877, "note_off_time": 109.986}, {"pitch": 76, "velocity": 57, "note_on_time": 116.471, "note_off_time": 117.561}, {"pitch": 74, "velocity": 58, "note_on_time": 119.471, "note_off_time": 120.305}, {"pitch": 77, "velocity": 57, "note_on_time": 124.833, "note_off_time": 125.31}, {"pitch": 79, "velocity": 62, "note_on_time": 125.645, "note_off_time": 126.09}, {"pitch": 72, "velocity": 46, "note_on_time": 127.318, "note_off_time": 128.246}, {"pitch": 79, "velocity": 70, "note_on_time": 133.227, "note_off_time": 134.296}, {"pitch": 72, "velocity": 51, "note_on_time": 138.586, "note_off_time": 140.183}, {"pitch": 79, "velocity": 50, "note_on_time": 148.372, "note_off_time": 149.92}, {"pitch": 72, "velocity": 54, "note_on_time": 156.843, "note_off_time": 157.366}, {"pitch": 79, "velocity": 50, "note_on_time": 157.755, "note_off_time": 159.156}, {"pitch": 74, "velocity": 55, "note_on_time": 159.983, "note_off_time": 161.3}]</notes><guidance name="Guidance Mode">None</guidance><error name="Error value">99</error></trial></trials></MIDI>