<MIDI midiNo="2024_03_18-14_13_01"><target_notes><notes name="Note List">[{"pitch": 60, "velocity": 40, "note_on_time": 0.011, "note_off_time": 1.02}, {"pitch": 64, "velocity": 40, "note_on_time": 0.011, "note_off_time": 1.021}, {"pitch": 67, "velocity": 40, "note_on_time": 0.011, "note_off_time": 1.022}, {"pitch": 48, "velocity": 40, "note_on_time": 0.011, "note_off_time": 1.022}, {"pitch": 52, "velocity": 40, "note_on_time": 1.022, "note_off_time": 2.028}, {"pitch": 55, "velocity": 40, "note_on_time": 1.022, "note_off_time": 2.028}, {"pitch": 79, "velocity": 40, "note_on_time": 2.028, "note_off_time": 3.033}, {"pitch": 48, "velocity": 40, "note_on_time": 2.028, "note_off_time": 3.033}, {"pitch": 52, "velocity": 40, "note_on_time": 3.033, "note_off_time": 4.044}, {"pitch": 55, "velocity": 40, "note_on_time": 3.033, "note_off_time": 4.044}, {"pitch": 48, "velocity": 40, "note_on_time": 4.044, "note_off_time": 5.056}, {"pitch": 52, "velocity": 40, "note_on_time": 5.056, "note_off_time": 6.063}, {"pitch": 55, "velocity": 40, "note_on_time": 5.056, "note_off_time": 6.063}, {"pitch": 48, "velocity": 40, "note_on_time": 6.063, "note_off_time": 7.075}, {"pitch": 52, "velocity": 40, "note_on_time": 7.075, "note_off_time": 8.092}, {"pitch": 55, "velocity": 40, "note_on_time": 7.075, "note_off_time": 8.092}, {"pitch": 60, "velocity": 40, "note_on_time": 8.09, "note_off_time": 9.105}, {"pitch": 64, "velocity": 40, "note_on_time": 8.091, "note_off_time": 9.106}, {"pitch": 67, "velocity": 40, "note_on_time": 8.091, "note_off_time": 9.106}, {"pitch": 48, "velocity": 40, "note_on_time": 8.092, "note_off_time": 9.106}, {"pitch": 52, "velocity": 40, "note_on_time": 9.106, "note_off_time": 10.12}, {"pitch": 55, "velocity": 40, "note_on_time": 9.106, "note_off_time": 10.12}, {"pitch": 74, "velocity": 40, "note_on_time": 10.118, "note_off_time": 11.121}, {"pitch": 48, "velocity": 40, "note_on_time": 10.12, "note_off_time": 11.122}, {"pitch": 52, "velocity": 40, "note_on_time": 11.122, "note_off_time": 12.132}, {"pitch": 55, "velocity": 40, "note_on_time": 11.122, "note_off_time": 12.132}, {"pitch": 48, "velocity": 40, "note_on_time": 12.132, "note_off_time": 13.141}, {"pitch": 52, "velocity": 40, "note_on_time": 13.141, "note_off_time": 14.149}, {"pitch": 55, "velocity": 40, "note_on_time": 13.141, "note_off_time": 14.149}, {"pitch": 48, "velocity": 40, "note_on_time": 14.149, "note_off_time": 15.156}, {"pitch": 52, "velocity": 40, "note_on_time": 15.156, "note_off_time": 16.161}, {"pitch": 55, "velocity": 40, "note_on_time": 15.156, "note_off_time": 16.161}, {"pitch": 60, "velocity": 40, "note_on_time": 16.159, "note_off_time": 17.164}, {"pitch": 64, "velocity": 40, "note_on_time": 16.16, "note_off_time": 17.164}, {"pitch": 67, "velocity": 40, "note_on_time": 16.161, "note_off_time": 17.164}, {"pitch": 48, "velocity": 40, "note_on_time": 16.161, "note_off_time": 17.165}, {"pitch": 52, "velocity": 40, "note_on_time": 17.165, "note_off_time": 18.167}, {"pitch": 55, "velocity": 40, "note_on_time": 17.165, "note_off_time": 18.168}, {"pitch": 77, "velocity": 40, "note_on_time": 18.167, "note_off_time": 19.171}, {"pitch": 48, "velocity": 40, "note_on_time": 18.168, "note_off_time": 19.171}, {"pitch": 52, "velocity": 40, "note_on_time": 19.171, "note_off_time": 20.177}, {"pitch": 55, "velocity": 40, "note_on_time": 19.171, "note_off_time": 20.177}, {"pitch": 48, "velocity": 40, "note_on_time": 20.177, "note_off_time": 21.184}, {"pitch": 52, "velocity": 40, "note_on_time": 21.184, "note_off_time": 22.188}, {"pitch": 55, "velocity": 40, "note_on_time": 21.184, "note_off_time": 22.188}, {"pitch": 48, "velocity": 40, "note_on_time": 22.188, "note_off_time": 23.19}, {"pitch": 52, "velocity": 40, "note_on_time": 23.19, "note_off_time": 24.193}, {"pitch": 55, "velocity": 40, "note_on_time": 23.19, "note_off_time": 24.193}, {"pitch": 60, "velocity": 40, "note_on_time": 24.191, "note_off_time": 25.201}, {"pitch": 64, "velocity": 40, "note_on_time": 24.192, "note_off_time": 25.202}, {"pitch": 67, "velocity": 40, "note_on_time": 24.193, "note_off_time": 25.202}, {"pitch": 48, "velocity": 40, "note_on_time": 24.193, "note_off_time": 25.202}, {"pitch": 52, "velocity": 40, "note_on_time": 25.202, "note_off_time": 26.204}, {"pitch": 55, "velocity": 40, "note_on_time": 25.202, "note_off_time": 26.204}, {"pitch": 74, "velocity": 40, "note_on_time": 26.204, "note_off_time": 27.206}, {"pitch": 48, "velocity": 40, "note_on_time": 26.204, "note_off_time": 27.206}, {"pitch": 52, "velocity": 40, "note_on_time": 27.206, "note_off_time": 28.212}, {"pitch": 55, "velocity": 40, "note_on_time": 27.206, "note_off_time": 28.212}, {"pitch": 48, "velocity": 40, "note_on_time": 28.212, "note_off_time": 29.213}, {"pitch": 52, "velocity": 40, "note_on_time": 29.213, "note_off_time": 30.22}, {"pitch": 55, "velocity": 40, "note_on_time": 29.213, "note_off_time": 30.22}, {"pitch": 48, "velocity": 40, "note_on_time": 30.22, "note_off_time": 31.235}, {"pitch": 52, "velocity": 40, "note_on_time": 31.235, "note_off_time": 32.242}, {"pitch": 55, "velocity": 40, "note_on_time": 31.235, "note_off_time": 32.242}, {"pitch": 60, "velocity": 40, "note_on_time": 32.241, "note_off_time": 33.246}, {"pitch": 64, "velocity": 40, "note_on_time": 32.242, "note_off_time": 33.246}, {"pitch": 67, "velocity": 40, "note_on_time": 32.242, "note_off_time": 33.247}, {"pitch": 48, "velocity": 40, "note_on_time": 32.242, "note_off_time": 33.247}, {"pitch": 52, "velocity": 40, "note_on_time": 33.247, "note_off_time": 34.254}, {"pitch": 55, "velocity": 40, "note_on_time": 33.247, "note_off_time": 34.254}, {"pitch": 72, "velocity": 40, "note_on_time": 34.254, "note_off_time": 35.256}, {"pitch": 48, "velocity": 40, "note_on_time": 34.254, "note_off_time": 35.256}, {"pitch": 52, "velocity": 40, "note_on_time": 35.256, "note_off_time": 36.26}, {"pitch": 55, "velocity": 40, "note_on_time": 35.256, "note_off_time": 36.26}, {"pitch": 48, "velocity": 40, "note_on_time": 36.26, "note_off_time": 37.27}, {"pitch": 52, "velocity": 40, "note_on_time": 37.27, "note_off_time": 38.272}, {"pitch": 55, "velocity": 40, "note_on_time": 37.27, "note_off_time": 38.272}, {"pitch": 48, "velocity": 40, "note_on_time": 38.272, "note_off_time": 39.285}, {"pitch": 52, "velocity": 40, "note_on_time": 39.285, "note_off_time": 40.296}, {"pitch": 55, "velocity": 40, "note_on_time": 39.285, "note_off_time": 40.296}, {"pitch": 60, "velocity": 40, "note_on_time": 40.295, "note_off_time": 41.311}, {"pitch": 64, "velocity": 40, "note_on_time": 40.296, "note_off_time": 41.311}, {"pitch": 67, "velocity": 40, "note_on_time": 40.296, "note_off_time": 41.311}, {"pitch": 76, "velocity": 40, "note_on_time": 42.316, "note_off_time": 43.322}, {"pitch": 60, "velocity": 40, "note_on_time": 48.326, "note_off_time": 49.339}, {"pitch": 64, "velocity": 40, "note_on_time": 48.327, "note_off_time": 49.34}, {"pitch": 67, "velocity": 40, "note_on_time": 48.327, "note_off_time": 49.341}, {"pitch": 77, "velocity": 40, "note_on_time": 50.356, "note_off_time": 51.361}, {"pitch": 60, "velocity": 40, "note_on_time": 56.368, "note_off_time": 57.383}, {"pitch": 64, "velocity": 40, "note_on_time": 56.368, "note_off_time": 57.384}, {"pitch": 67, "velocity": 40, "note_on_time": 56.369, "note_off_time": 57.384}, {"pitch": 79, "velocity": 40, "note_on_time": 58.393, "note_off_time": 59.4}, {"pitch": 60, "velocity": 40, "note_on_time": 64.404, "note_off_time": 65.416}, {"pitch": 64, "velocity": 40, "note_on_time": 64.404, "note_off_time": 65.418}, {"pitch": 67, "velocity": 40, "note_on_time": 64.405, "note_off_time": 65.418}, {"pitch": 72, "velocity": 40, "note_on_time": 66.432, "note_off_time": 67.437}, {"pitch": 60, "velocity": 40, "note_on_time": 72.438, "note_off_time": 73.454}, {"pitch": 64, "velocity": 40, "note_on_time": 72.438, "note_off_time": 73.455}, {"pitch": 67, "velocity": 40, "note_on_time": 72.439, "note_off_time": 73.456}, {"pitch": 76, "velocity": 40, "note_on_time": 74.461, "note_off_time": 75.467}, {"pitch": 60, "velocity": 40, "note_on_time": 80.469, "note_off_time": 81.482}, {"pitch": 64, "velocity": 40, "note_on_time": 80.47, "note_off_time": 81.483}, {"pitch": 67, "velocity": 40, "note_on_time": 80.47, "note_off_time": 81.483}, {"pitch": 74, "velocity": 40, "note_on_time": 82.492, "note_off_time": 83.506}, {"pitch": 60, "velocity": 40, "note_on_time": 88.514, "note_off_time": 89.527}, {"pitch": 64, "velocity": 40, "note_on_time": 88.515, "note_off_time": 89.528}, {"pitch": 67, "velocity": 40, "note_on_time": 88.516, "note_off_time": 89.529}, {"pitch": 79, "velocity": 40, "note_on_time": 90.531, "note_off_time": 91.542}, {"pitch": 60, "velocity": 40, "note_on_time": 96.544, "note_off_time": 97.556}, {"pitch": 64, "velocity": 40, "note_on_time": 96.545, "note_off_time": 97.557}, {"pitch": 67, "velocity": 40, "note_on_time": 96.546, "note_off_time": 97.558}, {"pitch": 76, "velocity": 40, "note_on_time": 98.568, "note_off_time": 99.57}, {"pitch": 60, "velocity": 40, "note_on_time": 104.586, "note_off_time": 105.598}, {"pitch": 64, "velocity": 40, "note_on_time": 104.587, "note_off_time": 105.599}, {"pitch": 67, "velocity": 40, "note_on_time": 104.587, "note_off_time": 105.599}, {"pitch": 74, "velocity": 40, "note_on_time": 106.614, "note_off_time": 107.626}, {"pitch": 60, "velocity": 40, "note_on_time": 112.642, "note_off_time": 113.654}, {"pitch": 64, "velocity": 40, "note_on_time": 112.642, "note_off_time": 113.656}, {"pitch": 67, "velocity": 40, "note_on_time": 112.643, "note_off_time": 113.656}, {"pitch": 77, "velocity": 40, "note_on_time": 114.667, "note_off_time": 115.682}, {"pitch": 60, "velocity": 40, "note_on_time": 120.697, "note_off_time": 121.709}, {"pitch": 64, "velocity": 40, "note_on_time": 120.698, "note_off_time": 121.709}, {"pitch": 67, "velocity": 40, "note_on_time": 120.698, "note_off_time": 121.709}, {"pitch": 72, "velocity": 40, "note_on_time": 122.723, "note_off_time": 123.732}, {"pitch": 60, "velocity": 40, "note_on_time": 128.743, "note_off_time": 129.756}, {"pitch": 64, "velocity": 40, "note_on_time": 128.743, "note_off_time": 129.757}, {"pitch": 67, "velocity": 40, "note_on_time": 128.744, "note_off_time": 129.757}, {"pitch": 76, "velocity": 40, "note_on_time": 130.758, "note_off_time": 131.766}, {"pitch": 60, "velocity": 40, "note_on_time": 136.779, "note_off_time": 137.789}, {"pitch": 64, "velocity": 40, "note_on_time": 136.78, "note_off_time": 137.79}, {"pitch": 67, "velocity": 40, "note_on_time": 136.78, "note_off_time": 137.791}, {"pitch": 77, "velocity": 40, "note_on_time": 138.804, "note_off_time": 139.811}, {"pitch": 60, "velocity": 40, "note_on_time": 144.813, "note_off_time": 145.816}, {"pitch": 64, "velocity": 40, "note_on_time": 144.814, "note_off_time": 145.817}, {"pitch": 67, "velocity": 40, "note_on_time": 144.814, "note_off_time": 145.817}, {"pitch": 72, "velocity": 40, "note_on_time": 146.828, "note_off_time": 147.844}, {"pitch": 60, "velocity": 40, "note_on_time": 152.854, "note_off_time": 153.869}, {"pitch": 64, "velocity": 40, "note_on_time": 152.855, "note_off_time": 153.87}, {"pitch": 67, "velocity": 40, "note_on_time": 152.856, "note_off_time": 153.871}, {"pitch": 79, "velocity": 40, "note_on_time": 154.877, "note_off_time": 155.89}, {"pitch": 60, "velocity": 40, "note_on_time": 160.892, "note_off_time": 161.899}, {"pitch": 64, "velocity": 40, "note_on_time": 160.892, "note_off_time": 161.9}, {"pitch": 67, "velocity": 40, "note_on_time": 160.893, "note_off_time": 161.9}, {"pitch": 79, "velocity": 40, "note_on_time": 162.902, "note_off_time": 163.905}]</notes><options name="Option List">((4, 4), [0.5, 0.25], 3, 8, &lt;NoteRangePerHand.TWO_NOTES: 3&gt;, &lt;NoteRangePerHand.ONE_NOTE: 2&gt;, False, True, True, 100)</options></target_notes><trials><trial trial_no="1" timestamp="2024_03_18-14_10_17"><notes name="Played Notes">[{"pitch": 74, "velocity": 41, "note_on_time": 2.826, "note_off_time": 3.061}, {"pitch": 72, "velocity": 31, "note_on_time": 3.734, "note_off_time": 3.949}, {"pitch": 76, "velocity": 28, "note_on_time": 4.256, "note_off_time": 4.447}, {"pitch": 77, "velocity": 21, "note_on_time": 4.734, "note_off_time": 4.952}, {"pitch": 79, "velocity": 48, "note_on_time": 5.268, "note_off_time": 5.503}, {"pitch": 79, "velocity": 42, "note_on_time": 6.364, "note_off_time": 6.589}, {"pitch": 79, "velocity": 41, "note_on_time": 7.18, "note_off_time": 7.428}, {"pitch": 74, "velocity": 20, "note_on_time": 11.45, "note_off_time": 11.69}, {"pitch": 74, "velocity": 1, "note_on_time": 13.226, "note_off_time": 13.702}, {"pitch": 74, "velocity": 48, "note_on_time": 13.871, "note_off_time": 14.042}, {"pitch": 74, "velocity": 16, "note_on_time": 14.952, "note_off_time": 15.115}, {"pitch": 72, "velocity": 16, "note_on_time": 19.312, "note_off_time": 19.559}, {"pitch": 76, "velocity": 30, "note_on_time": 20.182, "note_off_time": 20.432}, {"pitch": 77, "velocity": 1, "note_on_time": 21.221, "note_off_time": 21.65}, {"pitch": 77, "velocity": 50, "note_on_time": 21.828, "note_off_time": 22.074}, {"pitch": 77, "velocity": 1, "note_on_time": 22.88, "note_off_time": 23.316}, {"pitch": 72, "velocity": 24, "note_on_time": 27.309, "note_off_time": 27.607}, {"pitch": 76, "velocity": 7, "note_on_time": 28.247, "note_off_time": 28.561}, {"pitch": 77, "velocity": 34, "note_on_time": 29.078, "note_off_time": 29.344}, {"pitch": 79, "velocity": 23, "note_on_time": 29.568, "note_off_time": 29.832}, {"pitch": 74, "velocity": 40, "note_on_time": 30.285, "note_off_time": 30.541}, {"pitch": 74, "velocity": 24, "note_on_time": 32.323, "note_off_time": 32.618}, {"pitch": 72, "velocity": 19, "note_on_time": 35.544, "note_off_time": 35.823}, {"pitch": 76, "velocity": 1, "note_on_time": 43.387, "note_off_time": 43.723}, {"pitch": 76, "velocity": 49, "note_on_time": 43.88, "note_off_time": 44.106}, {"pitch": 77, "velocity": 7, "note_on_time": 51.583, "note_off_time": 51.961}, {"pitch": 72, "velocity": 32, "note_on_time": 59.194, "note_off_time": 59.603}, {"pitch": 74, "velocity": 36, "note_on_time": 60.04, "note_off_time": 60.307}, {"pitch": 79, "velocity": 1, "note_on_time": 61.198, "note_off_time": 61.685}, {"pitch": 74, "velocity": 44, "note_on_time": 67.861, "note_off_time": 68.339}, {"pitch": 76, "velocity": 50, "note_on_time": 75.797, "note_off_time": 76.217}, {"pitch": 79, "velocity": 1, "note_on_time": 84.624, "note_off_time": 85.246}, {"pitch": 77, "velocity": 29, "note_on_time": 85.575, "note_off_time": 86.025}, {"pitch": 72, "velocity": 24, "note_on_time": 86.53, "note_off_time": 87.252}, {"pitch": 74, "velocity": 45, "note_on_time": 92.038, "note_off_time": 92.503}, {"pitch": 77, "velocity": 31, "note_on_time": 93.135, "note_off_time": 93.741}, {"pitch": 72, "velocity": 12, "note_on_time": 100.159, "note_off_time": 100.507}, {"pitch": 79, "velocity": 45, "note_on_time": 100.807, "note_off_time": 101.14}, {"pitch": 77, "velocity": 1, "note_on_time": 101.924, "note_off_time": 102.436}, {"pitch": 77, "velocity": 48, "note_on_time": 102.577, "note_off_time": 103.075}, {"pitch": 74, "velocity": 42, "note_on_time": 108.135, "note_off_time": 108.7}, {"pitch": 77, "velocity": 30, "note_on_time": 115.781, "note_off_time": 116.28}, {"pitch": 72, "velocity": 41, "note_on_time": 124.254, "note_off_time": 124.855}, {"pitch": 77, "velocity": 27, "note_on_time": 132.044, "note_off_time": 132.589}, {"pitch": 79, "velocity": 12, "note_on_time": 133.266, "note_off_time": 133.922}, {"pitch": 76, "velocity": 1, "note_on_time": 135.307, "note_off_time": 135.838}, {"pitch": 72, "velocity": 20, "note_on_time": 140.11, "note_off_time": 140.58}, {"pitch": 74, "velocity": 31, "note_on_time": 140.948, "note_off_time": 141.31}, {"pitch": 77, "velocity": 32, "note_on_time": 141.753, "note_off_time": 142.297}, {"pitch": 74, "velocity": 40, "note_on_time": 148.785, "note_off_time": 149.198}, {"pitch": 77, "velocity": 29, "note_on_time": 156.243, "note_off_time": 156.686}, {"pitch": 79, "velocity": 37, "note_on_time": 157.116, "note_off_time": 157.745}]</notes><guidance name="Guidance Mode">None</guidance><error name="Error value">99</error></trial><trial trial_no="2" timestamp="2024_03_18-14_15_25"><notes name="Played Notes">[{"pitch": 72, "velocity": 43, "note_on_time": 0.719, "note_off_time": 0.903}, {"pitch": 74, "velocity": 54, "note_on_time": 1.12, "note_off_time": 1.284}, {"pitch": 76, "velocity": 41, "note_on_time": 1.452, "note_off_time": 1.609}, {"pitch": 77, "velocity": 44, "note_on_time": 1.801, "note_off_time": 1.985}, {"pitch": 79, "velocity": 20, "note_on_time": 2.178, "note_off_time": 2.386}, {"pitch": 74, "velocity": 72, "note_on_time": 2.921, "note_off_time": 3.084}, {"pitch": 72, "velocity": 56, "note_on_time": 3.632, "note_off_time": 3.787}, {"pitch": 74, "velocity": 47, "note_on_time": 3.958, "note_off_time": 4.092}, {"pitch": 76, "velocity": 44, "note_on_time": 4.269, "note_off_time": 4.424}, {"pitch": 77, "velocity": 53, "note_on_time": 4.587, "note_off_time": 4.754}, {"pitch": 79, "velocity": 54, "note_on_time": 4.923, "note_off_time": 5.188}, {"pitch": 74, "velocity": 42, "note_on_time": 5.687, "note_off_time": 5.826}, {"pitch": 72, "velocity": 11, "note_on_time": 5.675, "note_off_time": 6.017}, {"pitch": 74, "velocity": 52, "note_on_time": 6.173, "note_off_time": 6.325}, {"pitch": 76, "velocity": 40, "note_on_time": 6.468, "note_off_time": 6.629}, {"pitch": 77, "velocity": 55, "note_on_time": 6.796, "note_off_time": 6.942}, {"pitch": 79, "velocity": 38, "note_on_time": 7.134, "note_off_time": 7.386}, {"pitch": 72, "velocity": 42, "note_on_time": 7.596, "note_off_time": 7.79}, {"pitch": 74, "velocity": 55, "note_on_time": 7.959, "note_off_time": 8.096}, {"pitch": 76, "velocity": 47, "note_on_time": 8.282, "note_off_time": 8.405}, {"pitch": 77, "velocity": 57, "note_on_time": 8.611, "note_off_time": 8.751}, {"pitch": 79, "velocity": 48, "note_on_time": 8.943, "note_off_time": 9.204}, {"pitch": 79, "velocity": 33, "note_on_time": 9.969, "note_off_time": 10.167}, {"pitch": 77, "velocity": 40, "note_on_time": 10.347, "note_off_time": 10.483}, {"pitch": 76, "velocity": 26, "note_on_time": 10.73, "note_off_time": 10.798}, {"pitch": 74, "velocity": 47, "note_on_time": 11.103, "note_off_time": 11.281}, {"pitch": 72, "velocity": 58, "note_on_time": 11.503, "note_off_time": 11.724}, {"pitch": 79, "velocity": 31, "note_on_time": 12.091, "note_off_time": 12.308}, {"pitch": 77, "velocity": 45, "note_on_time": 12.441, "note_off_time": 12.599}, {"pitch": 76, "velocity": 52, "note_on_time": 12.755, "note_off_time": 12.886}, {"pitch": 74, "velocity": 46, "note_on_time": 13.085, "note_off_time": 13.283}, {"pitch": 72, "velocity": 61, "note_on_time": 13.369, "note_off_time": 13.528}, {"pitch": 79, "velocity": 34, "note_on_time": 13.769, "note_off_time": 13.881}, {"pitch": 77, "velocity": 61, "note_on_time": 14.39, "note_off_time": 14.597}, {"pitch": 76, "velocity": 45, "note_on_time": 14.761, "note_off_time": 14.927}, {"pitch": 74, "velocity": 56, "note_on_time": 15.102, "note_off_time": 15.251}, {"pitch": 72, "velocity": 55, "note_on_time": 15.461, "note_off_time": 15.61}, {"pitch": 79, "velocity": 54, "note_on_time": 15.851, "note_off_time": 16.021}, {"pitch": 77, "velocity": 54, "note_on_time": 16.226, "note_off_time": 16.375}, {"pitch": 76, "velocity": 34, "note_on_time": 16.577, "note_off_time": 16.736}, {"pitch": 74, "velocity": 54, "note_on_time": 16.92, "note_off_time": 17.058}, {"pitch": 72, "velocity": 59, "note_on_time": 17.2, "note_off_time": 17.357}, {"pitch": 79, "velocity": 23, "note_on_time": 17.571, "note_off_time": 17.751}, {"pitch": 77, "velocity": 59, "note_on_time": 17.94, "note_off_time": 18.071}, {"pitch": 76, "velocity": 37, "note_on_time": 18.292, "note_off_time": 18.421}, {"pitch": 74, "velocity": 56, "note_on_time": 18.677, "note_off_time": 18.82}, {"pitch": 72, "velocity": 68, "note_on_time": 19.041, "note_off_time": 19.205}, {"pitch": 74, "velocity": 38, "note_on_time": 19.8, "note_off_time": 20.011}, {"pitch": 76, "velocity": 56, "note_on_time": 20.151, "note_off_time": 20.307}, {"pitch": 77, "velocity": 48, "note_on_time": 20.496, "note_off_time": 20.635}, {"pitch": 79, "velocity": 49, "note_on_time": 20.819, "note_off_time": 20.999}, {"pitch": 72, "velocity": 2, "note_on_time": 21.22, "note_off_time": 21.665}, {"pitch": 79, "velocity": 66, "note_on_time": 22.001, "note_off_time": 22.212}, {"pitch": 77, "velocity": 56, "note_on_time": 22.462, "note_off_time": 22.616}, {"pitch": 77, "velocity": 48, "note_on_time": 23.179, "note_off_time": 23.338}, {"pitch": 76, "velocity": 43, "note_on_time": 23.542, "note_off_time": 23.697}, {"pitch": 74, "velocity": 43, "note_on_time": 23.84, "note_off_time": 23.999}, {"pitch": 72, "velocity": 57, "note_on_time": 24.093, "note_off_time": 24.272}, {"pitch": 79, "velocity": 46, "note_on_time": 24.384, "note_off_time": 24.544}, {"pitch": 77, "velocity": 1, "note_on_time": 24.849, "note_off_time": 25.088}, {"pitch": 76, "velocity": 40, "note_on_time": 25.255, "note_off_time": 25.419}, {"pitch": 74, "velocity": 25, "note_on_time": 25.576, "note_off_time": 25.735}, {"pitch": 72, "velocity": 54, "note_on_time": 25.88, "note_off_time": 26.061}, {"pitch": 79, "velocity": 64, "note_on_time": 26.2, "note_off_time": 26.387}, {"pitch": 77, "velocity": 50, "note_on_time": 26.655, "note_off_time": 26.821}, {"pitch": 76, "velocity": 38, "note_on_time": 26.949, "note_off_time": 27.101}, {"pitch": 74, "velocity": 53, "note_on_time": 27.244, "note_off_time": 27.414}, {"pitch": 72, "velocity": 59, "note_on_time": 27.628, "note_off_time": 27.767}, {"pitch": 79, "velocity": 49, "note_on_time": 27.958, "note_off_time": 28.168}, {"pitch": 77, "velocity": 60, "note_on_time": 28.391, "note_off_time": 28.539}, {"pitch": 76, "velocity": 38, "note_on_time": 28.716, "note_off_time": 28.856}, {"pitch": 74, "velocity": 56, "note_on_time": 29.014, "note_off_time": 29.155}, {"pitch": 72, "velocity": 65, "note_on_time": 29.352, "note_off_time": 29.486}, {"pitch": 79, "velocity": 64, "note_on_time": 29.644, "note_off_time": 29.848}, {"pitch": 76, "velocity": 40, "note_on_time": 30.939, "note_off_time": 31.12}, {"pitch": 77, "velocity": 56, "note_on_time": 31.254, "note_off_time": 31.422}, {"pitch": 79, "velocity": 54, "note_on_time": 31.575, "note_off_time": 31.782}, {"pitch": 74, "velocity": 1, "note_on_time": 32.128, "note_off_time": 32.342}, {"pitch": 74, "velocity": 63, "note_on_time": 32.657, "note_off_time": 32.828}, {"pitch": 72, "velocity": 34, "note_on_time": 32.949, "note_off_time": 33.102}, {"pitch": 74, "velocity": 35, "note_on_time": 33.459, "note_off_time": 33.535}, {"pitch": 76, "velocity": 64, "note_on_time": 33.874, "note_off_time": 34.042}, {"pitch": 77, "velocity": 53, "note_on_time": 34.206, "note_off_time": 34.379}, {"pitch": 79, "velocity": 58, "note_on_time": 34.514, "note_off_time": 34.763}, {"pitch": 74, "velocity": 46, "note_on_time": 35.257, "note_off_time": 35.497}, {"pitch": 72, "velocity": 62, "note_on_time": 35.547, "note_off_time": 35.7}, {"pitch": 76, "velocity": 58, "note_on_time": 36.043, "note_off_time": 36.204}, {"pitch": 77, "velocity": 48, "note_on_time": 36.358, "note_off_time": 36.497}, {"pitch": 79, "velocity": 50, "note_on_time": 36.663, "note_off_time": 36.854}, {"pitch": 74, "velocity": 46, "note_on_time": 37.111, "note_off_time": 37.258}, {"pitch": 72, "velocity": 57, "note_on_time": 37.429, "note_off_time": 37.56}, {"pitch": 76, "velocity": 47, "note_on_time": 37.875, "note_off_time": 38.016}, {"pitch": 77, "velocity": 55, "note_on_time": 38.196, "note_off_time": 38.313}, {"pitch": 79, "velocity": 44, "note_on_time": 38.495, "note_off_time": 38.664}, {"pitch": 74, "velocity": 51, "note_on_time": 38.913, "note_off_time": 39.046}, {"pitch": 72, "velocity": 60, "note_on_time": 39.223, "note_off_time": 39.384}, {"pitch": 76, "velocity": 52, "note_on_time": 39.668, "note_off_time": 39.794}, {"pitch": 77, "velocity": 46, "note_on_time": 39.952, "note_off_time": 40.159}, {"pitch": 79, "velocity": 34, "note_on_time": 40.351, "note_off_time": 40.549}, {"pitch": 74, "velocity": 48, "note_on_time": 40.806, "note_off_time": 40.93}, {"pitch": 72, "velocity": 52, "note_on_time": 41.075, "note_off_time": 41.238}, {"pitch": 76, "velocity": 46, "note_on_time": 42.238, "note_off_time": 42.368}, {"pitch": 74, "velocity": 59, "note_on_time": 42.534, "note_off_time": 42.704}, {"pitch": 72, "velocity": 52, "note_on_time": 42.819, "note_off_time": 42.961}, {"pitch": 76, "velocity": 1, "note_on_time": 43.326, "note_off_time": 43.424}, {"pitch": 76, "velocity": 62, "note_on_time": 43.552, "note_off_time": 43.716}, {"pitch": 77, "velocity": 46, "note_on_time": 43.82, "note_off_time": 43.996}, {"pitch": 79, "velocity": 40, "note_on_time": 44.23, "note_off_time": 44.44}, {"pitch": 76, "velocity": 47, "note_on_time": 47.242, "note_off_time": 47.392}, {"pitch": 74, "velocity": 50, "note_on_time": 47.546, "note_off_time": 47.722}, {"pitch": 72, "velocity": 51, "note_on_time": 47.846, "note_off_time": 48.06}, {"pitch": 76, "velocity": 45, "note_on_time": 48.204, "note_off_time": 48.36}, {"pitch": 77, "velocity": 52, "note_on_time": 48.482, "note_off_time": 48.664}, {"pitch": 79, "velocity": 19, "note_on_time": 48.669, "note_off_time": 49.012}, {"pitch": 76, "velocity": 41, "note_on_time": 49.558, "note_off_time": 49.711}, {"pitch": 74, "velocity": 37, "note_on_time": 49.874, "note_off_time": 50.038}, {"pitch": 72, "velocity": 49, "note_on_time": 50.165, "note_off_time": 50.384}, {"pitch": 77, "velocity": 52, "note_on_time": 50.584, "note_off_time": 50.745}, {"pitch": 79, "velocity": 51, "note_on_time": 50.882, "note_off_time": 51.101}, {"pitch": 76, "velocity": 53, "note_on_time": 51.469, "note_off_time": 51.641}, {"pitch": 74, "velocity": 52, "note_on_time": 51.786, "note_off_time": 51.936}, {"pitch": 72, "velocity": 53, "note_on_time": 52.088, "note_off_time": 52.23}, {"pitch": 76, "velocity": 9, "note_on_time": 52.578, "note_off_time": 52.861}, {"pitch": 77, "velocity": 54, "note_on_time": 53.278, "note_off_time": 53.44}, {"pitch": 79, "velocity": 52, "note_on_time": 53.56, "note_off_time": 53.751}, {"pitch": 76, "velocity": 43, "note_on_time": 54.384, "note_off_time": 54.57}, {"pitch": 74, "velocity": 51, "note_on_time": 54.696, "note_off_time": 54.893}, {"pitch": 72, "velocity": 56, "note_on_time": 55.012, "note_off_time": 55.164}, {"pitch": 77, "velocity": 29, "note_on_time": 55.668, "note_off_time": 55.854}, {"pitch": 79, "velocity": 46, "note_on_time": 56.001, "note_off_time": 56.203}, {"pitch": 77, "velocity": 46, "note_on_time": 56.894, "note_off_time": 57.11}, {"pitch": 79, "velocity": 49, "note_on_time": 57.211, "note_off_time": 57.42}, {"pitch": 76, "velocity": 49, "note_on_time": 57.817, "note_off_time": 57.998}, {"pitch": 74, "velocity": 49, "note_on_time": 58.14, "note_off_time": 58.263}, {"pitch": 74, "velocity": 9, "note_on_time": 58.537, "note_off_time": 58.609}, {"pitch": 72, "velocity": 61, "note_on_time": 58.604, "note_off_time": 58.839}, {"pitch": 77, "velocity": 43, "note_on_time": 59.31, "note_off_time": 59.471}, {"pitch": 79, "velocity": 51, "note_on_time": 59.636, "note_off_time": 59.904}, {"pitch": 76, "velocity": 33, "note_on_time": 60.162, "note_off_time": 60.347}, {"pitch": 74, "velocity": 35, "note_on_time": 60.514, "note_off_time": 60.637}, {"pitch": 72, "velocity": 53, "note_on_time": 60.815, "note_off_time": 60.987}, {"pitch": 77, "velocity": 38, "note_on_time": 61.225, "note_off_time": 61.362}, {"pitch": 79, "velocity": 43, "note_on_time": 61.502, "note_off_time": 61.83}, {"pitch": 76, "velocity": 38, "note_on_time": 62.144, "note_off_time": 62.347}, {"pitch": 74, "velocity": 33, "note_on_time": 62.484, "note_off_time": 62.674}, {"pitch": 72, "velocity": 59, "note_on_time": 62.799, "note_off_time": 63.02}, {"pitch": 77, "velocity": 48, "note_on_time": 63.175, "note_off_time": 63.37}, {"pitch": 79, "velocity": 32, "note_on_time": 63.687, "note_off_time": 63.913}, {"pitch": 76, "velocity": 30, "note_on_time": 64.255, "note_off_time": 64.475}, {"pitch": 74, "velocity": 55, "note_on_time": 64.631, "note_off_time": 64.795}, {"pitch": 72, "velocity": 56, "note_on_time": 64.962, "note_off_time": 65.25}, {"pitch": 77, "velocity": 49, "note_on_time": 66.309, "note_off_time": 66.488}, {"pitch": 79, "velocity": 39, "note_on_time": 66.637, "note_off_time": 66.862}, {"pitch": 76, "velocity": 49, "note_on_time": 67.098, "note_off_time": 67.263}, {"pitch": 74, "velocity": 36, "note_on_time": 67.435, "note_off_time": 67.604}, {"pitch": 72, "velocity": 74, "note_on_time": 67.734, "note_off_time": 67.934}, {"pitch": 76, "velocity": 46, "note_on_time": 68.826, "note_off_time": 68.986}, {"pitch": 74, "velocity": 44, "note_on_time": 69.184, "note_off_time": 69.352}, {"pitch": 74, "velocity": 42, "note_on_time": 69.853, "note_off_time": 69.988}, {"pitch": 72, "velocity": 39, "note_on_time": 70.156, "note_off_time": 70.334}, {"pitch": 76, "velocity": 39, "note_on_time": 70.537, "note_off_time": 70.647}, {"pitch": 77, "velocity": 41, "note_on_time": 70.846, "note_off_time": 70.991}, {"pitch": 79, "velocity": 68, "note_on_time": 71.146, "note_off_time": 71.407}, {"pitch": 74, "velocity": 42, "note_on_time": 71.704, "note_off_time": 71.869}, {"pitch": 72, "velocity": 49, "note_on_time": 72.027, "note_off_time": 72.182}, {"pitch": 76, "velocity": 40, "note_on_time": 72.429, "note_off_time": 72.561}, {"pitch": 77, "velocity": 49, "note_on_time": 72.777, "note_off_time": 72.915}, {"pitch": 79, "velocity": 61, "note_on_time": 73.059, "note_off_time": 73.28}, {"pitch": 74, "velocity": 44, "note_on_time": 73.567, "note_off_time": 73.714}, {"pitch": 72, "velocity": 36, "note_on_time": 73.929, "note_off_time": 74.101}, {"pitch": 76, "velocity": 44, "note_on_time": 74.342, "note_off_time": 74.473}, {"pitch": 77, "velocity": 48, "note_on_time": 74.68, "note_off_time": 74.797}, {"pitch": 79, "velocity": 55, "note_on_time": 75.007, "note_off_time": 75.227}, {"pitch": 74, "velocity": 39, "note_on_time": 75.534, "note_off_time": 75.67}, {"pitch": 72, "velocity": 38, "note_on_time": 75.866, "note_off_time": 76.016}, {"pitch": 76, "velocity": 40, "note_on_time": 76.24, "note_off_time": 76.371}, {"pitch": 77, "velocity": 50, "note_on_time": 76.546, "note_off_time": 76.685}, {"pitch": 79, "velocity": 53, "note_on_time": 76.843, "note_off_time": 77.047}, {"pitch": 74, "velocity": 40, "note_on_time": 77.316, "note_off_time": 77.445}, {"pitch": 72, "velocity": 50, "note_on_time": 77.629, "note_off_time": 77.795}, {"pitch": 76, "velocity": 39, "note_on_time": 78.021, "note_off_time": 78.143}, {"pitch": 77, "velocity": 50, "note_on_time": 78.331, "note_off_time": 78.424}, {"pitch": 79, "velocity": 49, "note_on_time": 78.624, "note_off_time": 78.833}, {"pitch": 72, "velocity": 46, "note_on_time": 79.412, "note_off_time": 79.583}, {"pitch": 74, "velocity": 49, "note_on_time": 80.074, "note_off_time": 80.244}, {"pitch": 76, "velocity": 39, "note_on_time": 80.418, "note_off_time": 80.57}, {"pitch": 77, "velocity": 40, "note_on_time": 80.765, "note_off_time": 80.97}, {"pitch": 79, "velocity": 38, "note_on_time": 81.489, "note_off_time": 81.694}, {"pitch": 72, "velocity": 44, "note_on_time": 82.169, "note_off_time": 82.341}, {"pitch": 74, "velocity": 1, "note_on_time": 82.605, "note_off_time": 82.88}, {"pitch": 74, "velocity": 56, "note_on_time": 83.029, "note_off_time": 83.195}, {"pitch": 76, "velocity": 47, "note_on_time": 83.335, "note_off_time": 83.489}, {"pitch": 77, "velocity": 57, "note_on_time": 83.66, "note_off_time": 83.809}, {"pitch": 79, "velocity": 56, "note_on_time": 84.002, "note_off_time": 84.229}, {"pitch": 72, "velocity": 43, "note_on_time": 84.479, "note_off_time": 84.644}, {"pitch": 74, "velocity": 43, "note_on_time": 84.792, "note_off_time": 84.927}, {"pitch": 76, "velocity": 51, "note_on_time": 85.1, "note_off_time": 85.236}, {"pitch": 77, "velocity": 40, "note_on_time": 85.468, "note_off_time": 85.633}, {"pitch": 79, "velocity": 56, "note_on_time": 85.821, "note_off_time": 86.097}, {"pitch": 72, "velocity": 47, "note_on_time": 86.372, "note_off_time": 86.544}, {"pitch": 74, "velocity": 34, "note_on_time": 86.671, "note_off_time": 86.786}, {"pitch": 76, "velocity": 40, "note_on_time": 86.984, "note_off_time": 87.126}, {"pitch": 77, "velocity": 25, "note_on_time": 87.426, "note_off_time": 87.635}, {"pitch": 79, "velocity": 54, "note_on_time": 87.793, "note_off_time": 88.016}, {"pitch": 79, "velocity": 51, "note_on_time": 88.297, "note_off_time": 88.514}, {"pitch": 77, "velocity": 50, "note_on_time": 88.631, "note_off_time": 88.827}, {"pitch": 76, "velocity": 44, "note_on_time": 88.937, "note_off_time": 89.137}, {"pitch": 74, "velocity": 15, "note_on_time": 89.273, "note_off_time": 89.53}, {"pitch": 72, "velocity": 49, "note_on_time": 89.643, "note_off_time": 89.876}, {"pitch": 79, "velocity": 42, "note_on_time": 90.083, "note_off_time": 90.267}, {"pitch": 77, "velocity": 35, "note_on_time": 90.434, "note_off_time": 90.616}, {"pitch": 76, "velocity": 39, "note_on_time": 90.78, "note_off_time": 90.967}, {"pitch": 74, "velocity": 44, "note_on_time": 91.057, "note_off_time": 91.287}, {"pitch": 72, "velocity": 67, "note_on_time": 91.349, "note_off_time": 91.594}, {"pitch": 79, "velocity": 55, "note_on_time": 91.829, "note_off_time": 92.038}, {"pitch": 77, "velocity": 46, "note_on_time": 92.179, "note_off_time": 92.344}, {"pitch": 76, "velocity": 45, "note_on_time": 92.51, "note_off_time": 92.657}, {"pitch": 74, "velocity": 39, "note_on_time": 92.798, "note_off_time": 92.974}, {"pitch": 72, "velocity": 54, "note_on_time": 93.098, "note_off_time": 93.287}, {"pitch": 79, "velocity": 48, "note_on_time": 93.487, "note_off_time": 93.695}, {"pitch": 77, "velocity": 48, "note_on_time": 93.82, "note_off_time": 93.962}, {"pitch": 76, "velocity": 48, "note_on_time": 94.112, "note_off_time": 94.276}, {"pitch": 74, "velocity": 31, "note_on_time": 94.364, "note_off_time": 94.579}, {"pitch": 72, "velocity": 68, "note_on_time": 94.606, "note_off_time": 94.87}, {"pitch": 74, "velocity": 46, "note_on_time": 95.57, "note_off_time": 95.724}, {"pitch": 76, "velocity": 49, "note_on_time": 95.866, "note_off_time": 96.019}, {"pitch": 77, "velocity": 43, "note_on_time": 96.263, "note_off_time": 96.473}, {"pitch": 79, "velocity": 49, "note_on_time": 96.632, "note_off_time": 96.873}, {"pitch": 72, "velocity": 36, "note_on_time": 96.943, "note_off_time": 97.169}, {"pitch": 74, "velocity": 37, "note_on_time": 97.439, "note_off_time": 97.621}, {"pitch": 76, "velocity": 35, "note_on_time": 97.791, "note_off_time": 97.941}, {"pitch": 77, "velocity": 46, "note_on_time": 98.13, "note_off_time": 98.273}, {"pitch": 79, "velocity": 48, "note_on_time": 98.427, "note_off_time": 98.619}, {"pitch": 72, "velocity": 54, "note_on_time": 98.797, "note_off_time": 98.982}, {"pitch": 74, "velocity": 52, "note_on_time": 99.261, "note_off_time": 99.412}, {"pitch": 76, "velocity": 36, "note_on_time": 99.607, "note_off_time": 99.759}, {"pitch": 77, "velocity": 55, "note_on_time": 99.954, "note_off_time": 100.078}, {"pitch": 79, "velocity": 42, "note_on_time": 100.244, "note_off_time": 100.464}, {"pitch": 72, "velocity": 53, "note_on_time": 100.589, "note_off_time": 100.796}, {"pitch": 74, "velocity": 48, "note_on_time": 101.015, "note_off_time": 101.167}, {"pitch": 76, "velocity": 39, "note_on_time": 101.349, "note_off_time": 101.475}, {"pitch": 77, "velocity": 58, "note_on_time": 101.654, "note_off_time": 101.793}, {"pitch": 79, "velocity": 51, "note_on_time": 101.967, "note_off_time": 102.137}, {"pitch": 72, "velocity": 43, "note_on_time": 102.334, "note_off_time": 102.559}, {"pitch": 77, "velocity": 48, "note_on_time": 103.366, "note_off_time": 103.514}, {"pitch": 76, "velocity": 45, "note_on_time": 103.701, "note_off_time": 103.845}, {"pitch": 74, "velocity": 50, "note_on_time": 104.017, "note_off_time": 104.159}, {"pitch": 72, "velocity": 50, "note_on_time": 104.287, "note_off_time": 104.468}, {"pitch": 79, "velocity": 34, "note_on_time": 104.629, "note_off_time": 104.811}, {"pitch": 77, "velocity": 43, "note_on_time": 105.06, "note_off_time": 105.193}, {"pitch": 76, "velocity": 39, "note_on_time": 105.382, "note_off_time": 105.515}, {"pitch": 74, "velocity": 48, "note_on_time": 105.666, "note_off_time": 105.824}, {"pitch": 72, "velocity": 49, "note_on_time": 105.964, "note_off_time": 106.136}, {"pitch": 79, "velocity": 59, "note_on_time": 106.266, "note_off_time": 106.459}, {"pitch": 77, "velocity": 53, "note_on_time": 106.688, "note_off_time": 106.82}, {"pitch": 76, "velocity": 43, "note_on_time": 107.013, "note_off_time": 107.131}, {"pitch": 74, "velocity": 49, "note_on_time": 107.278, "note_off_time": 107.423}, {"pitch": 72, "velocity": 45, "note_on_time": 107.56, "note_off_time": 107.713}, {"pitch": 79, "velocity": 57, "note_on_time": 107.833, "note_off_time": 108.039}, {"pitch": 77, "velocity": 43, "note_on_time": 108.249, "note_off_time": 108.387}, {"pitch": 76, "velocity": 41, "note_on_time": 108.534, "note_off_time": 108.73}, {"pitch": 74, "velocity": 46, "note_on_time": 108.789, "note_off_time": 109.017}, {"pitch": 72, "velocity": 66, "note_on_time": 109.04, "note_off_time": 109.273}, {"pitch": 79, "velocity": 64, "note_on_time": 109.307, "note_off_time": 109.775}, {"pitch": 76, "velocity": 27, "note_on_time": 110.708, "note_off_time": 110.851}, {"pitch": 77, "velocity": 39, "note_on_time": 110.999, "note_off_time": 111.142}, {"pitch": 79, "velocity": 51, "note_on_time": 111.261, "note_off_time": 111.515}, {"pitch": 74, "velocity": 17, "note_on_time": 111.633, "note_off_time": 111.893}, {"pitch": 72, "velocity": 43, "note_on_time": 112.022, "note_off_time": 112.24}, {"pitch": 76, "velocity": 45, "note_on_time": 112.943, "note_off_time": 113.078}, {"pitch": 77, "velocity": 46, "note_on_time": 113.236, "note_off_time": 113.392}, {"pitch": 79, "velocity": 61, "note_on_time": 113.529, "note_off_time": 113.825}, {"pitch": 74, "velocity": 32, "note_on_time": 114.037, "note_off_time": 114.223}, {"pitch": 72, "velocity": 52, "note_on_time": 114.308, "note_off_time": 114.57}, {"pitch": 76, "velocity": 27, "note_on_time": 114.873, "note_off_time": 115.034}, {"pitch": 77, "velocity": 1, "note_on_time": 115.421, "note_off_time": 115.688}, {"pitch": 77, "velocity": 65, "note_on_time": 115.869, "note_off_time": 116.021}, {"pitch": 79, "velocity": 53, "note_on_time": 116.145, "note_off_time": 116.357}, {"pitch": 74, "velocity": 48, "note_on_time": 116.545, "note_off_time": 116.698}, {"pitch": 72, "velocity": 51, "note_on_time": 116.817, "note_off_time": 117.0}, {"pitch": 76, "velocity": 46, "note_on_time": 117.225, "note_off_time": 117.4}, {"pitch": 77, "velocity": 50, "note_on_time": 117.537, "note_off_time": 117.677}, {"pitch": 79, "velocity": 59, "note_on_time": 117.817, "note_off_time": 118.125}, {"pitch": 76, "velocity": 36, "note_on_time": 118.35, "note_off_time": 118.552}, {"pitch": 74, "velocity": 36, "note_on_time": 118.692, "note_off_time": 118.791}, {"pitch": 72, "velocity": 46, "note_on_time": 118.818, "note_off_time": 119.031}, {"pitch": 76, "velocity": 41, "note_on_time": 119.412, "note_off_time": 119.551}, {"pitch": 77, "velocity": 46, "note_on_time": 119.896, "note_off_time": 120.033}, {"pitch": 76, "velocity": 49, "note_on_time": 120.202, "note_off_time": 120.35}, {"pitch": 74, "velocity": 44, "note_on_time": 120.464, "note_off_time": 120.588}, {"pitch": 72, "velocity": 51, "note_on_time": 120.625, "note_off_time": 120.832}, {"pitch": 77, "velocity": 33, "note_on_time": 121.011, "note_off_time": 121.238}, {"pitch": 79, "velocity": 50, "note_on_time": 121.328, "note_off_time": 121.564}, {"pitch": 76, "velocity": 44, "note_on_time": 121.834, "note_off_time": 121.998}, {"pitch": 74, "velocity": 43, "note_on_time": 122.138, "note_off_time": 122.309}, {"pitch": 72, "velocity": 52, "note_on_time": 122.436, "note_off_time": 122.615}, {"pitch": 76, "velocity": 34, "note_on_time": 122.762, "note_off_time": 122.88}, {"pitch": 77, "velocity": 40, "note_on_time": 123.012, "note_off_time": 123.177}, {"pitch": 79, "velocity": 39, "note_on_time": 123.316, "note_off_time": 123.749}, {"pitch": 76, "velocity": 36, "note_on_time": 124.012, "note_off_time": 124.186}, {"pitch": 74, "velocity": 44, "note_on_time": 124.318, "note_off_time": 124.486}, {"pitch": 72, "velocity": 54, "note_on_time": 124.55, "note_off_time": 124.744}, {"pitch": 76, "velocity": 18, "note_on_time": 124.957, "note_off_time": 125.201}, {"pitch": 79, "velocity": 27, "note_on_time": 125.415, "note_off_time": 125.649}, {"pitch": 76, "velocity": 55, "note_on_time": 126.33, "note_off_time": 126.502}, {"pitch": 74, "velocity": 41, "note_on_time": 126.637, "note_off_time": 126.785}, {"pitch": 72, "velocity": 45, "note_on_time": 126.883, "note_off_time": 127.125}, {"pitch": 77, "velocity": 9, "note_on_time": 127.592, "note_off_time": 127.803}, {"pitch": 79, "velocity": 57, "note_on_time": 127.913, "note_off_time": 128.105}, {"pitch": 76, "velocity": 50, "note_on_time": 128.362, "note_off_time": 128.518}, {"pitch": 74, "velocity": 36, "note_on_time": 128.651, "note_off_time": 128.831}, {"pitch": 72, "velocity": 60, "note_on_time": 128.915, "note_off_time": 129.133}, {"pitch": 76, "velocity": 7, "note_on_time": 129.336, "note_off_time": 129.542}, {"pitch": 79, "velocity": 50, "note_on_time": 129.779, "note_off_time": 130.125}, {"pitch": 77, "velocity": 39, "note_on_time": 130.987, "note_off_time": 131.186}, {"pitch": 79, "velocity": 52, "note_on_time": 131.321, "note_off_time": 131.529}, {"pitch": 74, "velocity": 53, "note_on_time": 131.797, "note_off_time": 131.938}, {"pitch": 76, "velocity": 46, "note_on_time": 132.171, "note_off_time": 132.34}, {"pitch": 74, "velocity": 42, "note_on_time": 132.441, "note_off_time": 132.62}, {"pitch": 72, "velocity": 59, "note_on_time": 132.701, "note_off_time": 132.864}, {"pitch": 77, "velocity": 49, "note_on_time": 133.15, "note_off_time": 133.307}, {"pitch": 79, "velocity": 55, "note_on_time": 133.44, "note_off_time": 133.677}, {"pitch": 76, "velocity": 29, "note_on_time": 134.084, "note_off_time": 134.23}, {"pitch": 74, "velocity": 44, "note_on_time": 134.414, "note_off_time": 134.574}, {"pitch": 72, "velocity": 55, "note_on_time": 134.662, "note_off_time": 134.838}, {"pitch": 77, "velocity": 45, "note_on_time": 135.043, "note_off_time": 135.173}, {"pitch": 79, "velocity": 16, "note_on_time": 135.353, "note_off_time": 135.658}, {"pitch": 76, "velocity": 38, "note_on_time": 135.874, "note_off_time": 136.037}, {"pitch": 74, "velocity": 41, "note_on_time": 136.199, "note_off_time": 136.385}, {"pitch": 72, "velocity": 49, "note_on_time": 136.516, "note_off_time": 136.685}, {"pitch": 77, "velocity": 45, "note_on_time": 137.032, "note_off_time": 137.22}, {"pitch": 79, "velocity": 45, "note_on_time": 137.312, "note_off_time": 137.547}, {"pitch": 76, "velocity": 37, "note_on_time": 137.802, "note_off_time": 137.952}, {"pitch": 74, "velocity": 42, "note_on_time": 138.319, "note_off_time": 138.554}, {"pitch": 72, "velocity": 59, "note_on_time": 138.695, "note_off_time": 138.877}, {"pitch": 76, "velocity": 17, "note_on_time": 139.117, "note_off_time": 139.163}, {"pitch": 77, "velocity": 22, "note_on_time": 139.265, "note_off_time": 139.507}, {"pitch": 79, "velocity": 51, "note_on_time": 139.629, "note_off_time": 139.854}, {"pitch": 76, "velocity": 40, "note_on_time": 140.279, "note_off_time": 140.447}, {"pitch": 74, "velocity": 44, "note_on_time": 140.583, "note_off_time": 140.788}, {"pitch": 72, "velocity": 54, "note_on_time": 140.871, "note_off_time": 141.107}, {"pitch": 77, "velocity": 37, "note_on_time": 141.289, "note_off_time": 141.432}, {"pitch": 79, "velocity": 48, "note_on_time": 141.532, "note_off_time": 141.773}, {"pitch": 76, "velocity": 26, "note_on_time": 141.953, "note_off_time": 142.116}, {"pitch": 74, "velocity": 45, "note_on_time": 142.278, "note_off_time": 142.507}, {"pitch": 72, "velocity": 63, "note_on_time": 142.528, "note_off_time": 142.709}, {"pitch": 76, "velocity": 46, "note_on_time": 143.494, "note_off_time": 143.656}, {"pitch": 74, "velocity": 38, "note_on_time": 143.781, "note_off_time": 143.993}, {"pitch": 77, "velocity": 38, "note_on_time": 144.819, "note_off_time": 144.962}, {"pitch": 79, "velocity": 40, "note_on_time": 145.136, "note_off_time": 145.291}, {"pitch": 79, "velocity": 46, "note_on_time": 145.423, "note_off_time": 145.709}, {"pitch": 74, "velocity": 53, "note_on_time": 147.132, "note_off_time": 147.3}, {"pitch": 72, "velocity": 28, "note_on_time": 147.412, "note_off_time": 147.599}, {"pitch": 76, "velocity": 43, "note_on_time": 147.827, "note_off_time": 147.932}, {"pitch": 77, "velocity": 40, "note_on_time": 148.405, "note_off_time": 148.634}, {"pitch": 79, "velocity": 60, "note_on_time": 148.743, "note_off_time": 148.973}, {"pitch": 74, "velocity": 26, "note_on_time": 149.302, "note_off_time": 149.475}, {"pitch": 72, "velocity": 54, "note_on_time": 149.694, "note_off_time": 149.907}, {"pitch": 76, "velocity": 48, "note_on_time": 150.128, "note_off_time": 150.247}, {"pitch": 77, "velocity": 41, "note_on_time": 150.408, "note_off_time": 150.527}, {"pitch": 79, "velocity": 23, "note_on_time": 150.702, "note_off_time": 150.888}, {"pitch": 74, "velocity": 51, "note_on_time": 151.274, "note_off_time": 151.392}, {"pitch": 72, "velocity": 30, "note_on_time": 151.696, "note_off_time": 151.874}, {"pitch": 76, "velocity": 46, "note_on_time": 152.43, "note_off_time": 152.619}, {"pitch": 79, "velocity": 63, "note_on_time": 152.782, "note_off_time": 152.96}, {"pitch": 77, "velocity": 15, "note_on_time": 153.119, "note_off_time": 153.231}, {"pitch": 74, "velocity": 35, "note_on_time": 153.823, "note_off_time": 154.015}, {"pitch": 72, "velocity": 58, "note_on_time": 154.133, "note_off_time": 154.288}, {"pitch": 76, "velocity": 46, "note_on_time": 154.544, "note_off_time": 154.678}, {"pitch": 77, "velocity": 33, "note_on_time": 154.875, "note_off_time": 155.021}, {"pitch": 79, "velocity": 55, "note_on_time": 155.162, "note_off_time": 155.42}, {"pitch": 76, "velocity": 42, "note_on_time": 156.184, "note_off_time": 156.318}, {"pitch": 74, "velocity": 34, "note_on_time": 156.491, "note_off_time": 156.87}, {"pitch": 72, "velocity": 32, "note_on_time": 159.595, "note_off_time": 159.733}, {"pitch": 74, "velocity": 36, "note_on_time": 159.912, "note_off_time": 160.014}, {"pitch": 76, "velocity": 38, "note_on_time": 160.196, "note_off_time": 160.332}, {"pitch": 77, "velocity": 17, "note_on_time": 160.778, "note_off_time": 160.954}, {"pitch": 76, "velocity": 37, "note_on_time": 161.255, "note_off_time": 161.365}, {"pitch": 77, "velocity": 30, "note_on_time": 161.581, "note_off_time": 161.717}, {"pitch": 79, "velocity": 47, "note_on_time": 161.911, "note_off_time": 162.099}, {"pitch": 74, "velocity": 27, "note_on_time": 162.461, "note_off_time": 162.634}, {"pitch": 72, "velocity": 34, "note_on_time": 167.176, "note_off_time": 167.309}, {"pitch": 74, "velocity": 39, "note_on_time": 167.472, "note_off_time": 167.572}, {"pitch": 76, "velocity": 10, "note_on_time": 167.746, "note_off_time": 167.8}, {"pitch": 77, "velocity": 41, "note_on_time": 168.115, "note_off_time": 168.273}, {"pitch": 79, "velocity": 35, "note_on_time": 168.474, "note_off_time": 168.657}, {"pitch": 74, "velocity": 25, "note_on_time": 170.543, "note_off_time": 170.689}, {"pitch": 74, "velocity": 13, "note_on_time": 171.154, "note_off_time": 171.311}, {"pitch": 76, "velocity": 41, "note_on_time": 171.481, "note_off_time": 171.614}, {"pitch": 77, "velocity": 46, "note_on_time": 172.123, "note_off_time": 172.315}, {"pitch": 79, "velocity": 41, "note_on_time": 172.445, "note_off_time": 172.706}, {"pitch": 74, "velocity": 46, "note_on_time": 173.018, "note_off_time": 173.269}, {"pitch": 74, "velocity": 1, "note_on_time": 173.464, "note_off_time": 173.672}, {"pitch": 76, "velocity": 32, "note_on_time": 173.82, "note_off_time": 173.938}, {"pitch": 77, "velocity": 21, "note_on_time": 174.123, "note_off_time": 174.335}, {"pitch": 79, "velocity": 31, "note_on_time": 174.101, "note_off_time": 174.521}, {"pitch": 74, "velocity": 29, "note_on_time": 174.858, "note_off_time": 175.098}, {"pitch": 76, "velocity": 24, "note_on_time": 175.213, "note_off_time": 175.639}, {"pitch": 77, "velocity": 13, "note_on_time": 175.532, "note_off_time": 175.93}, {"pitch": 79, "velocity": 1, "note_on_time": 175.727, "note_off_time": 176.158}, {"pitch": 79, "velocity": 41, "note_on_time": 176.665, "note_off_time": 176.896}, {"pitch": 77, "velocity": 1, "note_on_time": 176.976, "note_off_time": 177.231}, {"pitch": 76, "velocity": 33, "note_on_time": 177.176, "note_off_time": 177.61}, {"pitch": 74, "velocity": 34, "note_on_time": 177.431, "note_off_time": 178.028}, {"pitch": 72, "velocity": 14, "note_on_time": 178.345, "note_off_time": 178.611}, {"pitch": 79, "velocity": 52, "note_on_time": 179.298, "note_off_time": 179.512}, {"pitch": 77, "velocity": 41, "note_on_time": 179.606, "note_off_time": 179.856}, {"pitch": 76, "velocity": 55, "note_on_time": 179.856, "note_off_time": 180.079}, {"pitch": 74, "velocity": 46, "note_on_time": 180.072, "note_off_time": 180.401}, {"pitch": 72, "velocity": 54, "note_on_time": 180.303, "note_off_time": 180.548}, {"pitch": 79, "velocity": 21, "note_on_time": 181.172, "note_off_time": 181.465}, {"pitch": 77, "velocity": 1, "note_on_time": 181.472, "note_off_time": 181.995}, {"pitch": 76, "velocity": 37, "note_on_time": 181.828, "note_off_time": 182.065}, {"pitch": 74, "velocity": 27, "note_on_time": 182.077, "note_off_time": 182.301}, {"pitch": 72, "velocity": 63, "note_on_time": 182.254, "note_off_time": 182.534}, {"pitch": 79, "velocity": 46, "note_on_time": 182.978, "note_off_time": 183.261}, {"pitch": 77, "velocity": 28, "note_on_time": 183.269, "note_off_time": 183.584}, {"pitch": 76, "velocity": 15, "note_on_time": 183.757, "note_off_time": 183.976}, {"pitch": 72, "velocity": 54, "note_on_time": 184.129, "note_off_time": 184.154}]</notes><guidance name="Guidance Mode">None</guidance><error name="Error value">99</error></trial><trial trial_no="3" timestamp="2024_03_18-14_21_27"><notes name="Played Notes">[{"pitch": 72, "velocity": 51, "note_on_time": 0.689, "note_off_time": 0.881}, {"pitch": 74, "velocity": 55, "note_on_time": 1.095, "note_off_time": 1.279}, {"pitch": 76, "velocity": 47, "note_on_time": 1.47, "note_off_time": 1.638}, {"pitch": 77, "velocity": 52, "note_on_time": 1.814, "note_off_time": 1.986}, {"pitch": 79, "velocity": 49, "note_on_time": 2.169, "note_off_time": 2.396}, {"pitch": 72, "velocity": 48, "note_on_time": 2.683, "note_off_time": 2.902}, {"pitch": 74, "velocity": 32, "note_on_time": 3.117, "note_off_time": 3.322}, {"pitch": 76, "velocity": 34, "note_on_time": 3.544, "note_off_time": 3.728}, {"pitch": 77, "velocity": 52, "note_on_time": 3.911, "note_off_time": 4.084}, {"pitch": 79, "velocity": 56, "note_on_time": 4.264, "note_off_time": 4.472}, {"pitch": 72, "velocity": 16, "note_on_time": 4.733, "note_off_time": 5.044}, {"pitch": 74, "velocity": 1, "note_on_time": 5.354, "note_off_time": 5.693}, {"pitch": 76, "velocity": 52, "note_on_time": 5.916, "note_off_time": 6.059}, {"pitch": 77, "velocity": 62, "note_on_time": 6.254, "note_off_time": 6.413}, {"pitch": 79, "velocity": 54, "note_on_time": 6.568, "note_off_time": 6.785}, {"pitch": 72, "velocity": 50, "note_on_time": 6.943, "note_off_time": 7.143}, {"pitch": 74, "velocity": 46, "note_on_time": 7.266, "note_off_time": 7.436}, {"pitch": 76, "velocity": 49, "note_on_time": 7.592, "note_off_time": 7.766}, {"pitch": 77, "velocity": 59, "note_on_time": 7.949, "note_off_time": 8.116}, {"pitch": 79, "velocity": 67, "note_on_time": 8.277, "note_off_time": 8.475}, {"pitch": 79, "velocity": 51, "note_on_time": 8.672, "note_off_time": 8.868}, {"pitch": 77, "velocity": 55, "note_on_time": 8.999, "note_off_time": 9.212}, {"pitch": 76, "velocity": 5, "note_on_time": 9.548, "note_off_time": 9.847}, {"pitch": 74, "velocity": 45, "note_on_time": 9.904, "note_off_time": 10.122}, {"pitch": 72, "velocity": 53, "note_on_time": 10.199, "note_off_time": 10.381}, {"pitch": 79, "velocity": 57, "note_on_time": 10.555, "note_off_time": 10.782}, {"pitch": 77, "velocity": 54, "note_on_time": 10.926, "note_off_time": 11.124}, {"pitch": 76, "velocity": 37, "note_on_time": 11.306, "note_off_time": 11.438}, {"pitch": 74, "velocity": 56, "note_on_time": 11.608, "note_off_time": 11.773}, {"pitch": 72, "velocity": 33, "note_on_time": 11.895, "note_off_time": 12.099}, {"pitch": 79, "velocity": 49, "note_on_time": 12.235, "note_off_time": 12.464}, {"pitch": 77, "velocity": 32, "note_on_time": 12.597, "note_off_time": 12.78}, {"pitch": 76, "velocity": 40, "note_on_time": 12.938, "note_off_time": 13.094}, {"pitch": 74, "velocity": 46, "note_on_time": 13.239, "note_off_time": 13.44}, {"pitch": 72, "velocity": 40, "note_on_time": 13.553, "note_off_time": 13.775}, {"pitch": 79, "velocity": 59, "note_on_time": 13.97, "note_off_time": 14.232}, {"pitch": 77, "velocity": 46, "note_on_time": 14.479, "note_off_time": 14.659}, {"pitch": 76, "velocity": 40, "note_on_time": 14.894, "note_off_time": 15.062}, {"pitch": 74, "velocity": 49, "note_on_time": 15.288, "note_off_time": 15.44}, {"pitch": 72, "velocity": 46, "note_on_time": 15.656, "note_off_time": 15.809}, {"pitch": 79, "velocity": 49, "note_on_time": 16.018, "note_off_time": 16.222}, {"pitch": 77, "velocity": 3, "note_on_time": 16.412, "note_off_time": 16.789}, {"pitch": 76, "velocity": 36, "note_on_time": 16.939, "note_off_time": 17.145}, {"pitch": 74, "velocity": 32, "note_on_time": 17.439, "note_off_time": 17.71}, {"pitch": 72, "velocity": 48, "note_on_time": 17.876, "note_off_time": 18.066}, {"pitch": 74, "velocity": 51, "note_on_time": 18.272, "note_off_time": 18.469}, {"pitch": 76, "velocity": 50, "note_on_time": 18.633, "note_off_time": 18.8}, {"pitch": 77, "velocity": 56, "note_on_time": 18.993, "note_off_time": 19.161}, {"pitch": 79, "velocity": 51, "note_on_time": 19.324, "note_off_time": 19.547}, {"pitch": 72, "velocity": 52, "note_on_time": 19.71, "note_off_time": 19.866}, {"pitch": 74, "velocity": 41, "note_on_time": 20.06, "note_off_time": 20.229}, {"pitch": 76, "velocity": 36, "note_on_time": 20.41, "note_off_time": 20.577}, {"pitch": 77, "velocity": 50, "note_on_time": 20.804, "note_off_time": 20.957}, {"pitch": 79, "velocity": 49, "note_on_time": 21.141, "note_off_time": 21.343}, {"pitch": 72, "velocity": 43, "note_on_time": 21.493, "note_off_time": 21.631}, {"pitch": 74, "velocity": 48, "note_on_time": 21.851, "note_off_time": 22.012}, {"pitch": 76, "velocity": 41, "note_on_time": 22.183, "note_off_time": 22.359}, {"pitch": 77, "velocity": 52, "note_on_time": 22.533, "note_off_time": 22.694}, {"pitch": 79, "velocity": 57, "note_on_time": 22.858, "note_off_time": 23.05}, {"pitch": 72, "velocity": 46, "note_on_time": 23.197, "note_off_time": 23.344}, {"pitch": 74, "velocity": 45, "note_on_time": 23.552, "note_off_time": 23.7}, {"pitch": 76, "velocity": 47, "note_on_time": 23.861, "note_off_time": 24.041}, {"pitch": 77, "velocity": 53, "note_on_time": 24.227, "note_off_time": 24.372}, {"pitch": 79, "velocity": 49, "note_on_time": 24.567, "note_off_time": 24.751}, {"pitch": 72, "velocity": 52, "note_on_time": 24.924, "note_off_time": 25.107}, {"pitch": 74, "velocity": 51, "note_on_time": 25.275, "note_off_time": 25.432}, {"pitch": 76, "velocity": 1, "note_on_time": 25.63, "note_off_time": 25.95}, {"pitch": 77, "velocity": 58, "note_on_time": 26.079, "note_off_time": 26.263}, {"pitch": 79, "velocity": 45, "note_on_time": 26.467, "note_off_time": 26.647}, {"pitch": 72, "velocity": 45, "note_on_time": 26.816, "note_off_time": 27.025}, {"pitch": 77, "velocity": 43, "note_on_time": 28.722, "note_off_time": 28.924}, {"pitch": 76, "velocity": 25, "note_on_time": 29.078, "note_off_time": 29.269}, {"pitch": 74, "velocity": 46, "note_on_time": 29.418, "note_off_time": 29.578}, {"pitch": 72, "velocity": 52, "note_on_time": 29.737, "note_off_time": 29.922}, {"pitch": 79, "velocity": 63, "note_on_time": 30.058, "note_off_time": 30.329}, {"pitch": 77, "velocity": 52, "note_on_time": 30.525, "note_off_time": 30.72}, {"pitch": 76, "velocity": 25, "note_on_time": 30.926, "note_off_time": 31.157}, {"pitch": 74, "velocity": 40, "note_on_time": 31.283, "note_off_time": 31.456}, {"pitch": 72, "velocity": 38, "note_on_time": 31.625, "note_off_time": 31.807}, {"pitch": 79, "velocity": 62, "note_on_time": 31.936, "note_off_time": 32.242}, {"pitch": 77, "velocity": 50, "note_on_time": 32.347, "note_off_time": 32.551}, {"pitch": 76, "velocity": 24, "note_on_time": 32.707, "note_off_time": 32.854}, {"pitch": 74, "velocity": 38, "note_on_time": 33.065, "note_off_time": 33.231}, {"pitch": 72, "velocity": 24, "note_on_time": 33.229, "note_off_time": 33.547}, {"pitch": 77, "velocity": 38, "note_on_time": 33.744, "note_off_time": 33.85}, {"pitch": 79, "velocity": 47, "note_on_time": 33.819, "note_off_time": 34.128}, {"pitch": 77, "velocity": 51, "note_on_time": 34.368, "note_off_time": 34.593}, {"pitch": 76, "velocity": 31, "note_on_time": 34.76, "note_off_time": 34.917}, {"pitch": 74, "velocity": 51, "note_on_time": 35.065, "note_off_time": 35.244}, {"pitch": 72, "velocity": 47, "note_on_time": 35.357, "note_off_time": 35.513}, {"pitch": 79, "velocity": 62, "note_on_time": 35.64, "note_off_time": 35.844}, {"pitch": 77, "velocity": 56, "note_on_time": 36.021, "note_off_time": 36.172}, {"pitch": 76, "velocity": 41, "note_on_time": 36.332, "note_off_time": 36.532}, {"pitch": 74, "velocity": 56, "note_on_time": 36.584, "note_off_time": 36.809}, {"pitch": 72, "velocity": 54, "note_on_time": 36.859, "note_off_time": 37.032}, {"pitch": 79, "velocity": 69, "note_on_time": 37.105, "note_off_time": 37.529}, {"pitch": 76, "velocity": 27, "note_on_time": 38.633, "note_off_time": 38.824}, {"pitch": 77, "velocity": 55, "note_on_time": 38.96, "note_off_time": 39.124}, {"pitch": 79, "velocity": 48, "note_on_time": 39.3, "note_off_time": 39.522}, {"pitch": 74, "velocity": 42, "note_on_time": 39.644, "note_off_time": 39.785}, {"pitch": 72, "velocity": 52, "note_on_time": 39.949, "note_off_time": 40.136}, {"pitch": 76, "velocity": 38, "note_on_time": 40.434, "note_off_time": 40.604}, {"pitch": 77, "velocity": 59, "note_on_time": 40.768, "note_off_time": 40.928}, {"pitch": 79, "velocity": 60, "note_on_time": 41.081, "note_off_time": 41.288}, {"pitch": 74, "velocity": 49, "note_on_time": 41.476, "note_off_time": 41.658}, {"pitch": 72, "velocity": 60, "note_on_time": 41.821, "note_off_time": 42.028}, {"pitch": 76, "velocity": 34, "note_on_time": 42.319, "note_off_time": 42.486}, {"pitch": 77, "velocity": 56, "note_on_time": 42.641, "note_off_time": 42.796}, {"pitch": 79, "velocity": 53, "note_on_time": 42.977, "note_off_time": 43.17}, {"pitch": 74, "velocity": 54, "note_on_time": 43.362, "note_off_time": 43.524}, {"pitch": 72, "velocity": 57, "note_on_time": 43.7, "note_off_time": 43.895}, {"pitch": 76, "velocity": 37, "note_on_time": 44.083, "note_off_time": 44.232}, {"pitch": 77, "velocity": 49, "note_on_time": 44.408, "note_off_time": 44.575}, {"pitch": 79, "velocity": 49, "note_on_time": 44.735, "note_off_time": 44.957}, {"pitch": 74, "velocity": 48, "note_on_time": 45.185, "note_off_time": 45.384}, {"pitch": 72, "velocity": 57, "note_on_time": 45.521, "note_off_time": 45.719}, {"pitch": 76, "velocity": 43, "note_on_time": 45.917, "note_off_time": 46.053}, {"pitch": 77, "velocity": 55, "note_on_time": 46.215, "note_off_time": 46.378}, {"pitch": 79, "velocity": 38, "note_on_time": 46.557, "note_off_time": 46.779}, {"pitch": 74, "velocity": 49, "note_on_time": 46.964, "note_off_time": 47.132}, {"pitch": 72, "velocity": 61, "note_on_time": 47.349, "note_off_time": 47.599}, {"pitch": 76, "velocity": 47, "note_on_time": 49.361, "note_off_time": 49.511}, {"pitch": 74, "velocity": 54, "note_on_time": 49.665, "note_off_time": 49.887}, {"pitch": 72, "velocity": 26, "note_on_time": 49.99, "note_off_time": 50.169}, {"pitch": 76, "velocity": 46, "note_on_time": 50.404, "note_off_time": 50.625}, {"pitch": 77, "velocity": 18, "note_on_time": 50.872, "note_off_time": 51.114}, {"pitch": 79, "velocity": 38, "note_on_time": 51.047, "note_off_time": 51.406}, {"pitch": 76, "velocity": 37, "note_on_time": 52.191, "note_off_time": 52.386}, {"pitch": 76, "velocity": 49, "note_on_time": 52.613, "note_off_time": 52.78}, {"pitch": 74, "velocity": 62, "note_on_time": 52.925, "note_off_time": 53.093}, {"pitch": 72, "velocity": 34, "note_on_time": 53.229, "note_off_time": 53.398}, {"pitch": 77, "velocity": 52, "note_on_time": 53.681, "note_off_time": 53.98}, {"pitch": 79, "velocity": 55, "note_on_time": 54.162, "note_off_time": 54.379}, {"pitch": 76, "velocity": 40, "note_on_time": 54.755, "note_off_time": 54.887}, {"pitch": 74, "velocity": 65, "note_on_time": 55.054, "note_off_time": 55.212}, {"pitch": 72, "velocity": 46, "note_on_time": 55.344, "note_off_time": 55.526}, {"pitch": 77, "velocity": 26, "note_on_time": 55.782, "note_off_time": 55.999}, {"pitch": 79, "velocity": 58, "note_on_time": 56.141, "note_off_time": 56.365}, {"pitch": 76, "velocity": 43, "note_on_time": 56.581, "note_off_time": 56.693}, {"pitch": 74, "velocity": 64, "note_on_time": 56.867, "note_off_time": 57.006}, {"pitch": 72, "velocity": 34, "note_on_time": 57.158, "note_off_time": 57.299}, {"pitch": 77, "velocity": 51, "note_on_time": 57.502, "note_off_time": 57.661}, {"pitch": 79, "velocity": 64, "note_on_time": 57.85, "note_off_time": 58.055}, {"pitch": 77, "velocity": 52, "note_on_time": 58.384, "note_off_time": 58.556}, {"pitch": 79, "velocity": 64, "note_on_time": 58.758, "note_off_time": 58.963}, {"pitch": 76, "velocity": 30, "note_on_time": 59.146, "note_off_time": 59.258}, {"pitch": 74, "velocity": 52, "note_on_time": 59.49, "note_off_time": 59.629}, {"pitch": 72, "velocity": 49, "note_on_time": 59.796, "note_off_time": 59.965}, {"pitch": 77, "velocity": 61, "note_on_time": 60.122, "note_off_time": 60.272}, {"pitch": 79, "velocity": 60, "note_on_time": 60.449, "note_off_time": 60.618}, {"pitch": 74, "velocity": 36, "note_on_time": 60.913, "note_off_time": 61.032}, {"pitch": 76, "velocity": 56, "note_on_time": 61.298, "note_off_time": 61.446}, {"pitch": 74, "velocity": 64, "note_on_time": 61.592, "note_off_time": 61.762}, {"pitch": 72, "velocity": 51, "note_on_time": 61.826, "note_off_time": 62.032}, {"pitch": 77, "velocity": 58, "note_on_time": 62.487, "note_off_time": 62.688}, {"pitch": 79, "velocity": 56, "note_on_time": 62.877, "note_off_time": 63.044}, {"pitch": 76, "velocity": 43, "note_on_time": 63.254, "note_off_time": 63.396}, {"pitch": 74, "velocity": 56, "note_on_time": 63.564, "note_off_time": 63.703}, {"pitch": 72, "velocity": 48, "note_on_time": 63.878, "note_off_time": 64.02}, {"pitch": 77, "velocity": 50, "note_on_time": 64.207, "note_off_time": 64.36}, {"pitch": 79, "velocity": 55, "note_on_time": 64.537, "note_off_time": 64.716}, {"pitch": 74, "velocity": 57, "note_on_time": 64.914, "note_off_time": 65.086}, {"pitch": 76, "velocity": 58, "note_on_time": 65.285, "note_off_time": 65.433}, {"pitch": 74, "velocity": 64, "note_on_time": 65.597, "note_off_time": 65.742}, {"pitch": 72, "velocity": 46, "note_on_time": 65.883, "note_off_time": 66.128}, {"pitch": 74, "velocity": 62, "note_on_time": 67.416, "note_off_time": 67.58}, {"pitch": 72, "velocity": 60, "note_on_time": 67.739, "note_off_time": 67.935}, {"pitch": 76, "velocity": 46, "note_on_time": 68.052, "note_off_time": 68.237}, {"pitch": 77, "velocity": 57, "note_on_time": 68.406, "note_off_time": 68.602}, {"pitch": 79, "velocity": 60, "note_on_time": 68.79, "note_off_time": 68.992}, {"pitch": 74, "velocity": 63, "note_on_time": 69.298, "note_off_time": 69.425}, {"pitch": 72, "velocity": 60, "note_on_time": 69.614, "note_off_time": 69.773}, {"pitch": 76, "velocity": 56, "note_on_time": 69.931, "note_off_time": 70.077}, {"pitch": 77, "velocity": 62, "note_on_time": 70.25, "note_off_time": 70.384}, {"pitch": 79, "velocity": 51, "note_on_time": 70.591, "note_off_time": 70.785}, {"pitch": 74, "velocity": 50, "note_on_time": 71.013, "note_off_time": 71.13}, {"pitch": 72, "velocity": 55, "note_on_time": 71.322, "note_off_time": 71.505}, {"pitch": 76, "velocity": 35, "note_on_time": 71.67, "note_off_time": 71.772}, {"pitch": 77, "velocity": 55, "note_on_time": 71.995, "note_off_time": 72.114}, {"pitch": 79, "velocity": 36, "note_on_time": 72.478, "note_off_time": 72.766}, {"pitch": 74, "velocity": 60, "note_on_time": 73.244, "note_off_time": 73.393}, {"pitch": 72, "velocity": 53, "note_on_time": 73.565, "note_off_time": 73.729}, {"pitch": 76, "velocity": 41, "note_on_time": 73.913, "note_off_time": 74.049}, {"pitch": 77, "velocity": 57, "note_on_time": 74.25, "note_off_time": 74.392}, {"pitch": 79, "velocity": 64, "note_on_time": 74.608, "note_off_time": 74.873}, {"pitch": 72, "velocity": 31, "note_on_time": 75.353, "note_off_time": 75.587}, {"pitch": 74, "velocity": 43, "note_on_time": 75.719, "note_off_time": 75.881}, {"pitch": 76, "velocity": 38, "note_on_time": 76.087, "note_off_time": 76.209}, {"pitch": 77, "velocity": 57, "note_on_time": 76.419, "note_off_time": 76.553}, {"pitch": 79, "velocity": 57, "note_on_time": 76.764, "note_off_time": 76.958}, {"pitch": 72, "velocity": 55, "note_on_time": 77.156, "note_off_time": 77.332}, {"pitch": 74, "velocity": 44, "note_on_time": 77.507, "note_off_time": 77.65}, {"pitch": 76, "velocity": 51, "note_on_time": 77.83, "note_off_time": 77.993}, {"pitch": 77, "velocity": 51, "note_on_time": 78.182, "note_off_time": 78.338}, {"pitch": 79, "velocity": 58, "note_on_time": 78.532, "note_off_time": 78.732}, {"pitch": 72, "velocity": 61, "note_on_time": 78.866, "note_off_time": 79.058}, {"pitch": 74, "velocity": 45, "note_on_time": 79.165, "note_off_time": 79.314}, {"pitch": 76, "velocity": 55, "note_on_time": 79.512, "note_off_time": 79.665}, {"pitch": 77, "velocity": 51, "note_on_time": 79.876, "note_off_time": 80.004}, {"pitch": 79, "velocity": 65, "note_on_time": 80.204, "note_off_time": 80.401}, {"pitch": 72, "velocity": 51, "note_on_time": 80.514, "note_off_time": 80.687}, {"pitch": 74, "velocity": 51, "note_on_time": 80.828, "note_off_time": 80.996}, {"pitch": 76, "velocity": 58, "note_on_time": 81.155, "note_off_time": 81.31}, {"pitch": 77, "velocity": 58, "note_on_time": 81.51, "note_off_time": 81.652}, {"pitch": 79, "velocity": 66, "note_on_time": 81.847, "note_off_time": 82.037}, {"pitch": 79, "velocity": 66, "note_on_time": 82.197, "note_off_time": 82.362}, {"pitch": 77, "velocity": 67, "note_on_time": 82.525, "note_off_time": 82.668}, {"pitch": 76, "velocity": 41, "note_on_time": 82.858, "note_off_time": 82.967}, {"pitch": 74, "velocity": 66, "note_on_time": 83.175, "note_off_time": 83.307}, {"pitch": 72, "velocity": 61, "note_on_time": 83.466, "note_off_time": 83.608}, {"pitch": 79, "velocity": 60, "note_on_time": 83.771, "note_off_time": 83.913}, {"pitch": 77, "velocity": 70, "note_on_time": 84.074, "note_off_time": 84.201}, {"pitch": 76, "velocity": 31, "note_on_time": 84.405, "note_off_time": 84.506}, {"pitch": 74, "velocity": 64, "note_on_time": 84.696, "note_off_time": 84.835}, {"pitch": 72, "velocity": 55, "note_on_time": 84.988, "note_off_time": 85.172}, {"pitch": 79, "velocity": 62, "note_on_time": 85.365, "note_off_time": 85.584}, {"pitch": 77, "velocity": 62, "note_on_time": 85.75, "note_off_time": 85.879}, {"pitch": 76, "velocity": 41, "note_on_time": 86.065, "note_off_time": 86.172}, {"pitch": 74, "velocity": 52, "note_on_time": 86.361, "note_off_time": 86.48}, {"pitch": 72, "velocity": 27, "note_on_time": 86.631, "note_off_time": 86.862}, {"pitch": 79, "velocity": 62, "note_on_time": 87.025, "note_off_time": 87.204}, {"pitch": 77, "velocity": 47, "note_on_time": 87.389, "note_off_time": 87.51}, {"pitch": 76, "velocity": 24, "note_on_time": 87.812, "note_off_time": 88.039}, {"pitch": 72, "velocity": 69, "note_on_time": 88.174, "note_off_time": 88.337}, {"pitch": 72, "velocity": 28, "note_on_time": 88.809, "note_off_time": 88.924}, {"pitch": 74, "velocity": 65, "note_on_time": 93.218, "note_off_time": 93.351}, {"pitch": 76, "velocity": 36, "note_on_time": 93.507, "note_off_time": 93.711}, {"pitch": 77, "velocity": 64, "note_on_time": 93.876, "note_off_time": 94.026}, {"pitch": 79, "velocity": 66, "note_on_time": 94.234, "note_off_time": 94.423}, {"pitch": 72, "velocity": 50, "note_on_time": 94.577, "note_off_time": 94.739}, {"pitch": 74, "velocity": 56, "note_on_time": 94.918, "note_off_time": 95.052}, {"pitch": 76, "velocity": 54, "note_on_time": 95.214, "note_off_time": 95.345}, {"pitch": 77, "velocity": 63, "note_on_time": 95.535, "note_off_time": 95.668}, {"pitch": 79, "velocity": 66, "note_on_time": 95.848, "note_off_time": 96.018}, {"pitch": 72, "velocity": 48, "note_on_time": 96.159, "note_off_time": 96.295}, {"pitch": 74, "velocity": 51, "note_on_time": 96.441, "note_off_time": 96.572}, {"pitch": 76, "velocity": 50, "note_on_time": 96.732, "note_off_time": 96.881}, {"pitch": 77, "velocity": 59, "note_on_time": 97.045, "note_off_time": 97.186}, {"pitch": 79, "velocity": 68, "note_on_time": 97.35, "note_off_time": 97.534}, {"pitch": 72, "velocity": 42, "note_on_time": 97.658, "note_off_time": 97.807}, {"pitch": 74, "velocity": 43, "note_on_time": 97.958, "note_off_time": 98.127}, {"pitch": 76, "velocity": 47, "note_on_time": 98.273, "note_off_time": 98.407}, {"pitch": 77, "velocity": 68, "note_on_time": 98.592, "note_off_time": 98.74}, {"pitch": 79, "velocity": 57, "note_on_time": 98.869, "note_off_time": 99.049}, {"pitch": 72, "velocity": 47, "note_on_time": 99.128, "note_off_time": 99.305}, {"pitch": 74, "velocity": 35, "note_on_time": 99.427, "note_off_time": 99.563}, {"pitch": 76, "velocity": 58, "note_on_time": 99.719, "note_off_time": 99.847}, {"pitch": 77, "velocity": 59, "note_on_time": 100.014, "note_off_time": 100.152}, {"pitch": 79, "velocity": 65, "note_on_time": 100.289, "note_off_time": 100.461}, {"pitch": 72, "velocity": 60, "note_on_time": 100.586, "note_off_time": 100.775}, {"pitch": 77, "velocity": 31, "note_on_time": 101.338, "note_off_time": 101.539}, {"pitch": 76, "velocity": 42, "note_on_time": 101.686, "note_off_time": 101.863}, {"pitch": 74, "velocity": 58, "note_on_time": 101.983, "note_off_time": 102.133}, {"pitch": 72, "velocity": 52, "note_on_time": 102.245, "note_off_time": 102.414}, {"pitch": 79, "velocity": 71, "note_on_time": 102.52, "note_off_time": 102.711}, {"pitch": 77, "velocity": 60, "note_on_time": 102.893, "note_off_time": 103.032}, {"pitch": 76, "velocity": 52, "note_on_time": 103.206, "note_off_time": 103.324}, {"pitch": 74, "velocity": 52, "note_on_time": 103.491, "note_off_time": 103.646}, {"pitch": 72, "velocity": 52, "note_on_time": 103.779, "note_off_time": 103.938}, {"pitch": 79, "velocity": 70, "note_on_time": 104.067, "note_off_time": 104.248}, {"pitch": 77, "velocity": 17, "note_on_time": 104.467, "note_off_time": 104.788}, {"pitch": 76, "velocity": 61, "note_on_time": 104.994, "note_off_time": 105.137}, {"pitch": 74, "velocity": 60, "note_on_time": 105.288, "note_off_time": 105.422}, {"pitch": 72, "velocity": 54, "note_on_time": 105.596, "note_off_time": 105.756}, {"pitch": 79, "velocity": 69, "note_on_time": 105.868, "note_off_time": 106.046}, {"pitch": 77, "velocity": 21, "note_on_time": 106.256, "note_off_time": 106.584}, {"pitch": 76, "velocity": 59, "note_on_time": 106.742, "note_off_time": 106.884}, {"pitch": 74, "velocity": 63, "note_on_time": 107.048, "note_off_time": 107.193}, {"pitch": 72, "velocity": 65, "note_on_time": 107.363, "note_off_time": 107.522}, {"pitch": 79, "velocity": 74, "note_on_time": 107.699, "note_off_time": 107.897}, {"pitch": 77, "velocity": 66, "note_on_time": 108.052, "note_off_time": 108.18}, {"pitch": 76, "velocity": 60, "note_on_time": 108.346, "note_off_time": 108.478}, {"pitch": 74, "velocity": 64, "note_on_time": 108.627, "note_off_time": 108.773}, {"pitch": 72, "velocity": 59, "note_on_time": 108.918, "note_off_time": 109.038}, {"pitch": 79, "velocity": 62, "note_on_time": 109.188, "note_off_time": 109.397}, {"pitch": 76, "velocity": 56, "note_on_time": 110.786, "note_off_time": 110.986}, {"pitch": 77, "velocity": 63, "note_on_time": 111.098, "note_off_time": 111.26}, {"pitch": 79, "velocity": 61, "note_on_time": 111.414, "note_off_time": 111.601}, {"pitch": 76, "velocity": 53, "note_on_time": 112.079, "note_off_time": 112.253}, {"pitch": 74, "velocity": 60, "note_on_time": 112.472, "note_off_time": 112.616}, {"pitch": 72, "velocity": 59, "note_on_time": 112.764, "note_off_time": 112.972}, {"pitch": 76, "velocity": 57, "note_on_time": 113.216, "note_off_time": 113.367}, {"pitch": 77, "velocity": 62, "note_on_time": 113.534, "note_off_time": 113.694}, {"pitch": 79, "velocity": 69, "note_on_time": 113.854, "note_off_time": 114.036}, {"pitch": 74, "velocity": 67, "note_on_time": 114.213, "note_off_time": 114.388}, {"pitch": 72, "velocity": 65, "note_on_time": 114.556, "note_off_time": 114.779}, {"pitch": 76, "velocity": 51, "note_on_time": 114.97, "note_off_time": 115.127}, {"pitch": 77, "velocity": 60, "note_on_time": 115.289, "note_off_time": 115.442}, {"pitch": 79, "velocity": 66, "note_on_time": 115.594, "note_off_time": 115.788}, {"pitch": 74, "velocity": 56, "note_on_time": 115.985, "note_off_time": 116.155}, {"pitch": 72, "velocity": 65, "note_on_time": 116.368, "note_off_time": 116.633}, {"pitch": 76, "velocity": 40, "note_on_time": 116.833, "note_off_time": 117.037}, {"pitch": 77, "velocity": 30, "note_on_time": 117.193, "note_off_time": 117.341}, {"pitch": 79, "velocity": 41, "note_on_time": 117.562, "note_off_time": 117.78}, {"pitch": 74, "velocity": 43, "note_on_time": 117.96, "note_off_time": 118.132}, {"pitch": 72, "velocity": 68, "note_on_time": 118.282, "note_off_time": 118.449}, {"pitch": 76, "velocity": 50, "note_on_time": 118.714, "note_off_time": 118.869}, {"pitch": 77, "velocity": 58, "note_on_time": 119.031, "note_off_time": 119.193}, {"pitch": 79, "velocity": 55, "note_on_time": 119.392, "note_off_time": 119.603}, {"pitch": 74, "velocity": 54, "note_on_time": 119.933, "note_off_time": 120.055}, {"pitch": 72, "velocity": 64, "note_on_time": 120.237, "note_off_time": 120.423}, {"pitch": 76, "velocity": 1, "note_on_time": 124.03, "note_off_time": 124.32}, {"pitch": 74, "velocity": 44, "note_on_time": 124.439, "note_off_time": 124.652}, {"pitch": 72, "velocity": 55, "note_on_time": 124.753, "note_off_time": 124.953}, {"pitch": 77, "velocity": 46, "note_on_time": 125.182, "note_off_time": 125.378}, {"pitch": 79, "velocity": 58, "note_on_time": 125.529, "note_off_time": 125.747}, {"pitch": 76, "velocity": 29, "note_on_time": 125.921, "note_off_time": 126.104}, {"pitch": 74, "velocity": 45, "note_on_time": 126.288, "note_off_time": 126.447}, {"pitch": 72, "velocity": 52, "note_on_time": 126.611, "note_off_time": 126.792}, {"pitch": 77, "velocity": 16, "note_on_time": 126.997, "note_off_time": 127.374}, {"pitch": 79, "velocity": 54, "note_on_time": 127.536, "note_off_time": 127.754}, {"pitch": 76, "velocity": 40, "note_on_time": 128.025, "note_off_time": 128.207}, {"pitch": 74, "velocity": 45, "note_on_time": 128.381, "note_off_time": 128.563}, {"pitch": 72, "velocity": 64, "note_on_time": 128.733, "note_off_time": 128.947}, {"pitch": 77, "velocity": 51, "note_on_time": 129.091, "note_off_time": 129.267}, {"pitch": 79, "velocity": 66, "note_on_time": 129.478, "note_off_time": 129.676}, {"pitch": 76, "velocity": 56, "note_on_time": 129.895, "note_off_time": 130.095}, {"pitch": 74, "velocity": 58, "note_on_time": 130.304, "note_off_time": 130.459}, {"pitch": 72, "velocity": 58, "note_on_time": 130.704, "note_off_time": 130.91}, {"pitch": 77, "velocity": 59, "note_on_time": 131.069, "note_off_time": 131.227}, {"pitch": 79, "velocity": 66, "note_on_time": 131.446, "note_off_time": 131.667}, {"pitch": 77, "velocity": 21, "note_on_time": 131.902, "note_off_time": 132.279}, {"pitch": 79, "velocity": 64, "note_on_time": 132.433, "note_off_time": 132.653}, {"pitch": 74, "velocity": 57, "note_on_time": 132.893, "note_off_time": 133.191}, {"pitch": 76, "velocity": 61, "note_on_time": 133.353, "note_off_time": 133.505}, {"pitch": 74, "velocity": 58, "note_on_time": 133.668, "note_off_time": 133.805}, {"pitch": 72, "velocity": 68, "note_on_time": 133.991, "note_off_time": 134.177}, {"pitch": 77, "velocity": 40, "note_on_time": 134.359, "note_off_time": 134.577}, {"pitch": 79, "velocity": 58, "note_on_time": 134.744, "note_off_time": 134.942}, {"pitch": 76, "velocity": 32, "note_on_time": 135.407, "note_off_time": 135.631}, {"pitch": 74, "velocity": 62, "note_on_time": 135.8, "note_off_time": 135.941}, {"pitch": 72, "velocity": 69, "note_on_time": 136.16, "note_off_time": 136.337}, {"pitch": 77, "velocity": 62, "note_on_time": 136.542, "note_off_time": 136.724}, {"pitch": 79, "velocity": 63, "note_on_time": 136.918, "note_off_time": 137.089}, {"pitch": 76, "velocity": 43, "note_on_time": 137.542, "note_off_time": 137.705}, {"pitch": 74, "velocity": 52, "note_on_time": 137.87, "note_off_time": 138.002}, {"pitch": 72, "velocity": 70, "note_on_time": 138.206, "note_off_time": 138.379}, {"pitch": 77, "velocity": 61, "note_on_time": 138.547, "note_off_time": 138.706}, {"pitch": 79, "velocity": 62, "note_on_time": 138.904, "note_off_time": 139.111}, {"pitch": 74, "velocity": 60, "note_on_time": 139.475, "note_off_time": 139.596}, {"pitch": 76, "velocity": 49, "note_on_time": 139.87, "note_off_time": 140.021}, {"pitch": 74, "velocity": 68, "note_on_time": 140.177, "note_off_time": 140.308}, {"pitch": 72, "velocity": 61, "note_on_time": 140.475, "note_off_time": 140.607}, {"pitch": 74, "velocity": 62, "note_on_time": 142.996, "note_off_time": 143.119}, {"pitch": 72, "velocity": 62, "note_on_time": 143.361, "note_off_time": 143.598}, {"pitch": 76, "velocity": 49, "note_on_time": 143.73, "note_off_time": 143.874}, {"pitch": 77, "velocity": 60, "note_on_time": 144.054, "note_off_time": 144.201}, {"pitch": 79, "velocity": 66, "note_on_time": 144.378, "note_off_time": 144.564}, {"pitch": 74, "velocity": 64, "note_on_time": 144.745, "note_off_time": 144.855}, {"pitch": 72, "velocity": 73, "note_on_time": 145.045, "note_off_time": 145.21}, {"pitch": 76, "velocity": 60, "note_on_time": 145.365, "note_off_time": 145.468}, {"pitch": 77, "velocity": 72, "note_on_time": 145.668, "note_off_time": 145.781}, {"pitch": 79, "velocity": 68, "note_on_time": 145.968, "note_off_time": 146.12}, {"pitch": 74, "velocity": 64, "note_on_time": 146.3, "note_off_time": 146.388}, {"pitch": 72, "velocity": 72, "note_on_time": 146.595, "note_off_time": 146.75}, {"pitch": 76, "velocity": 62, "note_on_time": 146.902, "note_off_time": 146.997}, {"pitch": 77, "velocity": 67, "note_on_time": 147.189, "note_off_time": 147.294}, {"pitch": 81, "velocity": 25, "note_on_time": 147.532, "note_off_time": 147.637}, {"pitch": 79, "velocity": 34, "note_on_time": 147.514, "note_off_time": 147.916}, {"pitch": 74, "velocity": 79, "note_on_time": 148.155, "note_off_time": 148.271}, {"pitch": 72, "velocity": 72, "note_on_time": 148.471, "note_off_time": 148.609}, {"pitch": 76, "velocity": 68, "note_on_time": 148.765, "note_off_time": 148.875}, {"pitch": 77, "velocity": 71, "note_on_time": 149.056, "note_off_time": 149.175}, {"pitch": 79, "velocity": 76, "note_on_time": 149.382, "note_off_time": 149.532}, {"pitch": 72, "velocity": 74, "note_on_time": 150.654, "note_off_time": 150.793}, {"pitch": 74, "velocity": 59, "note_on_time": 150.964, "note_off_time": 151.067}, {"pitch": 76, "velocity": 64, "note_on_time": 151.221, "note_off_time": 151.337}, {"pitch": 77, "velocity": 64, "note_on_time": 151.515, "note_off_time": 151.635}, {"pitch": 79, "velocity": 73, "note_on_time": 151.807, "note_off_time": 151.979}, {"pitch": 72, "velocity": 62, "note_on_time": 152.141, "note_off_time": 152.253}, {"pitch": 74, "velocity": 68, "note_on_time": 152.393, "note_off_time": 152.526}, {"pitch": 76, "velocity": 61, "note_on_time": 152.668, "note_off_time": 152.786}, {"pitch": 77, "velocity": 72, "note_on_time": 152.946, "note_off_time": 153.067}, {"pitch": 79, "velocity": 75, "note_on_time": 153.238, "note_off_time": 153.406}, {"pitch": 72, "velocity": 62, "note_on_time": 153.594, "note_off_time": 153.719}, {"pitch": 74, "velocity": 64, "note_on_time": 153.867, "note_off_time": 153.977}, {"pitch": 76, "velocity": 70, "note_on_time": 154.127, "note_off_time": 154.234}, {"pitch": 77, "velocity": 66, "note_on_time": 154.388, "note_off_time": 154.504}, {"pitch": 79, "velocity": 73, "note_on_time": 154.652, "note_off_time": 154.804}, {"pitch": 72, "velocity": 72, "note_on_time": 154.983, "note_off_time": 155.112}, {"pitch": 74, "velocity": 71, "note_on_time": 155.236, "note_off_time": 155.352}, {"pitch": 76, "velocity": 66, "note_on_time": 155.497, "note_off_time": 155.607}, {"pitch": 77, "velocity": 69, "note_on_time": 155.769, "note_off_time": 155.876}, {"pitch": 81, "velocity": 54, "note_on_time": 156.063, "note_off_time": 156.253}, {"pitch": 79, "velocity": 52, "note_on_time": 156.057, "note_off_time": 156.26}, {"pitch": 79, "velocity": 77, "note_on_time": 156.473, "note_off_time": 156.666}, {"pitch": 79, "velocity": 74, "note_on_time": 156.888, "note_off_time": 157.046}, {"pitch": 77, "velocity": 70, "note_on_time": 157.184, "note_off_time": 157.313}, {"pitch": 76, "velocity": 57, "note_on_time": 157.49, "note_off_time": 157.602}, {"pitch": 74, "velocity": 55, "note_on_time": 157.762, "note_off_time": 157.863}, {"pitch": 72, "velocity": 68, "note_on_time": 158.013, "note_off_time": 158.15}, {"pitch": 79, "velocity": 77, "note_on_time": 158.284, "note_off_time": 158.461}, {"pitch": 77, "velocity": 50, "note_on_time": 158.621, "note_off_time": 158.739}, {"pitch": 76, "velocity": 72, "note_on_time": 158.914, "note_off_time": 159.02}, {"pitch": 74, "velocity": 62, "note_on_time": 159.206, "note_off_time": 159.291}, {"pitch": 71, "velocity": 27, "note_on_time": 159.514, "note_off_time": 159.59}, {"pitch": 72, "velocity": 82, "note_on_time": 159.877, "note_off_time": 160.046}, {"pitch": 79, "velocity": 79, "note_on_time": 160.21, "note_off_time": 160.364}, {"pitch": 77, "velocity": 72, "note_on_time": 160.535, "note_off_time": 160.636}, {"pitch": 76, "velocity": 62, "note_on_time": 160.835, "note_off_time": 160.931}, {"pitch": 74, "velocity": 65, "note_on_time": 161.129, "note_off_time": 161.207}, {"pitch": 72, "velocity": 77, "note_on_time": 161.43, "note_off_time": 161.539}, {"pitch": 79, "velocity": 67, "note_on_time": 161.783, "note_off_time": 161.962}, {"pitch": 77, "velocity": 72, "note_on_time": 162.107, "note_off_time": 162.243}, {"pitch": 76, "velocity": 61, "note_on_time": 162.423, "note_off_time": 162.527}, {"pitch": 74, "velocity": 57, "note_on_time": 162.711, "note_off_time": 162.819}, {"pitch": 72, "velocity": 67, "note_on_time": 162.982, "note_off_time": 163.111}, {"pitch": 74, "velocity": 67, "note_on_time": 163.269, "note_off_time": 163.378}, {"pitch": 76, "velocity": 58, "note_on_time": 163.534, "note_off_time": 163.632}, {"pitch": 77, "velocity": 69, "note_on_time": 163.791, "note_off_time": 163.907}, {"pitch": 79, "velocity": 74, "note_on_time": 164.038, "note_off_time": 164.202}, {"pitch": 72, "velocity": 44, "note_on_time": 164.337, "note_off_time": 164.461}, {"pitch": 74, "velocity": 72, "note_on_time": 164.602, "note_off_time": 164.713}, {"pitch": 76, "velocity": 64, "note_on_time": 164.86, "note_off_time": 164.978}, {"pitch": 77, "velocity": 70, "note_on_time": 165.125, "note_off_time": 165.224}, {"pitch": 79, "velocity": 72, "note_on_time": 165.371, "note_off_time": 165.518}, {"pitch": 72, "velocity": 47, "note_on_time": 165.665, "note_off_time": 165.733}, {"pitch": 74, "velocity": 77, "note_on_time": 165.909, "note_off_time": 166.0}, {"pitch": 76, "velocity": 65, "note_on_time": 166.152, "note_off_time": 166.23}, {"pitch": 77, "velocity": 73, "note_on_time": 166.419, "note_off_time": 166.498}, {"pitch": 79, "velocity": 82, "note_on_time": 166.676, "note_off_time": 166.828}, {"pitch": 72, "velocity": 63, "note_on_time": 166.993, "note_off_time": 167.084}, {"pitch": 74, "velocity": 75, "note_on_time": 167.27, "note_off_time": 167.348}, {"pitch": 76, "velocity": 72, "note_on_time": 167.507, "note_off_time": 167.592}, {"pitch": 77, "velocity": 79, "note_on_time": 167.744, "note_off_time": 167.838}, {"pitch": 79, "velocity": 72, "note_on_time": 168.003, "note_off_time": 168.134}, {"pitch": 72, "velocity": 73, "note_on_time": 168.276, "note_off_time": 168.378}, {"pitch": 77, "velocity": 74, "note_on_time": 169.503, "note_off_time": 169.644}, {"pitch": 76, "velocity": 60, "note_on_time": 169.781, "note_off_time": 169.858}, {"pitch": 74, "velocity": 67, "note_on_time": 170.009, "note_off_time": 170.117}, {"pitch": 72, "velocity": 70, "note_on_time": 170.27, "note_off_time": 170.362}, {"pitch": 79, "velocity": 72, "note_on_time": 170.478, "note_off_time": 170.636}, {"pitch": 77, "velocity": 76, "note_on_time": 170.762, "note_off_time": 170.877}, {"pitch": 76, "velocity": 55, "note_on_time": 171.023, "note_off_time": 171.118}, {"pitch": 74, "velocity": 64, "note_on_time": 171.268, "note_off_time": 171.37}, {"pitch": 72, "velocity": 68, "note_on_time": 171.509, "note_off_time": 171.602}, {"pitch": 79, "velocity": 82, "note_on_time": 171.735, "note_off_time": 171.88}, {"pitch": 77, "velocity": 68, "note_on_time": 172.251, "note_off_time": 172.338}, {"pitch": 76, "velocity": 63, "note_on_time": 172.51, "note_off_time": 172.59}, {"pitch": 74, "velocity": 58, "note_on_time": 172.727, "note_off_time": 172.826}, {"pitch": 72, "velocity": 70, "note_on_time": 172.968, "note_off_time": 173.054}, {"pitch": 79, "velocity": 88, "note_on_time": 173.162, "note_off_time": 173.314}, {"pitch": 77, "velocity": 61, "note_on_time": 173.454, "note_off_time": 173.537}, {"pitch": 76, "velocity": 73, "note_on_time": 173.713, "note_off_time": 173.818}, {"pitch": 74, "velocity": 39, "note_on_time": 173.985, "note_off_time": 174.067}, {"pitch": 72, "velocity": 82, "note_on_time": 174.165, "note_off_time": 174.313}, {"pitch": 79, "velocity": 52, "note_on_time": 174.487, "note_off_time": 174.593}, {"pitch": 76, "velocity": 73, "note_on_time": 176.265, "note_off_time": 176.368}, {"pitch": 77, "velocity": 74, "note_on_time": 176.525, "note_off_time": 176.61}, {"pitch": 79, "velocity": 69, "note_on_time": 176.789, "note_off_time": 176.904}, {"pitch": 74, "velocity": 69, "note_on_time": 177.455, "note_off_time": 177.596}, {"pitch": 72, "velocity": 61, "note_on_time": 177.709, "note_off_time": 177.834}, {"pitch": 76, "velocity": 78, "note_on_time": 177.969, "note_off_time": 178.057}, {"pitch": 77, "velocity": 73, "note_on_time": 178.209, "note_off_time": 178.295}, {"pitch": 79, "velocity": 81, "note_on_time": 178.44, "note_off_time": 178.562}, {"pitch": 74, "velocity": 81, "note_on_time": 178.688, "note_off_time": 178.781}, {"pitch": 72, "velocity": 75, "note_on_time": 178.935, "note_off_time": 179.045}, {"pitch": 76, "velocity": 73, "note_on_time": 179.192, "note_off_time": 179.27}, {"pitch": 77, "velocity": 75, "note_on_time": 179.427, "note_off_time": 179.508}, {"pitch": 79, "velocity": 74, "note_on_time": 179.656, "note_off_time": 179.769}, {"pitch": 74, "velocity": 72, "note_on_time": 179.907, "note_off_time": 179.98}, {"pitch": 72, "velocity": 82, "note_on_time": 180.148, "note_off_time": 180.253}, {"pitch": 76, "velocity": 74, "note_on_time": 180.394, "note_off_time": 180.453}, {"pitch": 77, "velocity": 81, "note_on_time": 180.627, "note_off_time": 180.697}, {"pitch": 79, "velocity": 80, "note_on_time": 180.851, "note_off_time": 180.971}, {"pitch": 74, "velocity": 83, "note_on_time": 181.108, "note_off_time": 181.182}, {"pitch": 72, "velocity": 81, "note_on_time": 181.34, "note_off_time": 181.448}, {"pitch": 76, "velocity": 77, "note_on_time": 181.597, "note_off_time": 181.672}, {"pitch": 77, "velocity": 70, "note_on_time": 181.862, "note_off_time": 181.948}, {"pitch": 79, "velocity": 53, "note_on_time": 182.159, "note_off_time": 182.462}, {"pitch": 74, "velocity": 74, "note_on_time": 182.604, "note_off_time": 182.685}, {"pitch": 72, "velocity": 83, "note_on_time": 182.881, "note_off_time": 182.989}, {"pitch": 77, "velocity": 66, "note_on_time": 184.223, "note_off_time": 184.353}, {"pitch": 76, "velocity": 73, "note_on_time": 184.747, "note_off_time": 184.837}, {"pitch": 74, "velocity": 70, "note_on_time": 185.027, "note_off_time": 185.122}, {"pitch": 72, "velocity": 77, "note_on_time": 185.29, "note_off_time": 185.398}, {"pitch": 77, "velocity": 66, "note_on_time": 186.022, "note_off_time": 186.151}, {"pitch": 79, "velocity": 74, "note_on_time": 186.264, "note_off_time": 186.403}, {"pitch": 76, "velocity": 70, "note_on_time": 186.594, "note_off_time": 186.702}, {"pitch": 74, "velocity": 65, "note_on_time": 186.847, "note_off_time": 186.939}, {"pitch": 72, "velocity": 75, "note_on_time": 187.113, "note_off_time": 187.21}, {"pitch": 77, "velocity": 77, "note_on_time": 187.359, "note_off_time": 187.467}, {"pitch": 79, "velocity": 80, "note_on_time": 187.608, "note_off_time": 187.746}, {"pitch": 76, "velocity": 70, "note_on_time": 187.919, "note_off_time": 188.014}, {"pitch": 74, "velocity": 73, "note_on_time": 188.177, "note_off_time": 188.282}, {"pitch": 72, "velocity": 73, "note_on_time": 188.435, "note_off_time": 188.547}, {"pitch": 77, "velocity": 78, "note_on_time": 188.682, "note_off_time": 188.791}, {"pitch": 79, "velocity": 74, "note_on_time": 188.93, "note_off_time": 189.052}, {"pitch": 77, "velocity": 51, "note_on_time": 189.22, "note_off_time": 189.33}, {"pitch": 76, "velocity": 58, "note_on_time": 189.631, "note_off_time": 189.746}, {"pitch": 74, "velocity": 70, "note_on_time": 189.916, "note_off_time": 190.02}, {"pitch": 72, "velocity": 72, "note_on_time": 190.174, "note_off_time": 190.309}, {"pitch": 77, "velocity": 72, "note_on_time": 190.451, "note_off_time": 190.578}, {"pitch": 79, "velocity": 73, "note_on_time": 190.723, "note_off_time": 190.85}, {"pitch": 76, "velocity": 72, "note_on_time": 191.037, "note_off_time": 191.138}, {"pitch": 74, "velocity": 70, "note_on_time": 191.31, "note_off_time": 191.419}, {"pitch": 72, "velocity": 68, "note_on_time": 191.585, "note_off_time": 191.699}, {"pitch": 77, "velocity": 66, "note_on_time": 191.872, "note_off_time": 191.973}, {"pitch": 79, "velocity": 72, "note_on_time": 192.194, "note_off_time": 192.323}, {"pitch": 77, "velocity": 72, "note_on_time": 192.499, "note_off_time": 192.611}, {"pitch": 79, "velocity": 55, "note_on_time": 192.764, "note_off_time": 192.882}, {"pitch": 76, "velocity": 72, "note_on_time": 193.061, "note_off_time": 193.191}, {"pitch": 74, "velocity": 56, "note_on_time": 193.357, "note_off_time": 193.571}, {"pitch": 72, "velocity": 80, "note_on_time": 193.626, "note_off_time": 193.754}, {"pitch": 77, "velocity": 72, "note_on_time": 193.884, "note_off_time": 193.997}, {"pitch": 79, "velocity": 75, "note_on_time": 194.128, "note_off_time": 194.269}]</notes><guidance name="Guidance Mode">None</guidance><error name="Error value">99</error></trial></trials></MIDI>