<MIDI midiNo="2024_03_11-12_32_37"><target_notes><notes name="Note List">[{"pitch": 60, "velocity": 40, "note_on_time": 0.009, "note_off_time": 1.015}, {"pitch": 64, "velocity": 40, "note_on_time": 0.009, "note_off_time": 1.016}, {"pitch": 67, "velocity": 40, "note_on_time": 0.01, "note_off_time": 1.017}, {"pitch": 48, "velocity": 40, "note_on_time": 0.01, "note_off_time": 1.017}, {"pitch": 52, "velocity": 40, "note_on_time": 1.017, "note_off_time": 2.023}, {"pitch": 55, "velocity": 40, "note_on_time": 1.017, "note_off_time": 2.023}, {"pitch": 79, "velocity": 40, "note_on_time": 2.023, "note_off_time": 3.034}, {"pitch": 48, "velocity": 40, "note_on_time": 2.023, "note_off_time": 3.034}, {"pitch": 52, "velocity": 40, "note_on_time": 3.034, "note_off_time": 4.043}, {"pitch": 55, "velocity": 40, "note_on_time": 3.034, "note_off_time": 4.043}, {"pitch": 48, "velocity": 40, "note_on_time": 4.043, "note_off_time": 5.058}, {"pitch": 52, "velocity": 40, "note_on_time": 5.058, "note_off_time": 6.068}, {"pitch": 55, "velocity": 40, "note_on_time": 5.058, "note_off_time": 6.068}, {"pitch": 48, "velocity": 40, "note_on_time": 6.068, "note_off_time": 7.083}, {"pitch": 52, "velocity": 40, "note_on_time": 7.083, "note_off_time": 8.091}, {"pitch": 55, "velocity": 40, "note_on_time": 7.083, "note_off_time": 8.091}, {"pitch": 60, "velocity": 40, "note_on_time": 8.089, "note_off_time": 9.096}, {"pitch": 64, "velocity": 40, "note_on_time": 8.09, "note_off_time": 9.096}, {"pitch": 67, "velocity": 40, "note_on_time": 8.09, "note_off_time": 9.097}, {"pitch": 48, "velocity": 40, "note_on_time": 8.091, "note_off_time": 9.097}, {"pitch": 52, "velocity": 40, "note_on_time": 9.097, "note_off_time": 10.099}, {"pitch": 55, "velocity": 40, "note_on_time": 9.097, "note_off_time": 10.099}, {"pitch": 76, "velocity": 40, "note_on_time": 10.099, "note_off_time": 11.103}, {"pitch": 48, "velocity": 40, "note_on_time": 10.099, "note_off_time": 11.103}, {"pitch": 52, "velocity": 40, "note_on_time": 11.103, "note_off_time": 12.11}, {"pitch": 55, "velocity": 40, "note_on_time": 11.103, "note_off_time": 12.11}, {"pitch": 48, "velocity": 40, "note_on_time": 12.11, "note_off_time": 13.113}, {"pitch": 52, "velocity": 40, "note_on_time": 13.113, "note_off_time": 14.116}, {"pitch": 55, "velocity": 40, "note_on_time": 13.113, "note_off_time": 14.116}, {"pitch": 48, "velocity": 40, "note_on_time": 14.116, "note_off_time": 15.121}, {"pitch": 52, "velocity": 40, "note_on_time": 15.121, "note_off_time": 16.131}, {"pitch": 55, "velocity": 40, "note_on_time": 15.121, "note_off_time": 16.133}, {"pitch": 60, "velocity": 40, "note_on_time": 16.131, "note_off_time": 17.146}, {"pitch": 64, "velocity": 40, "note_on_time": 16.131, "note_off_time": 17.147}, {"pitch": 67, "velocity": 40, "note_on_time": 16.131, "note_off_time": 17.148}, {"pitch": 48, "velocity": 40, "note_on_time": 16.133, "note_off_time": 17.148}, {"pitch": 52, "velocity": 40, "note_on_time": 17.148, "note_off_time": 18.163}, {"pitch": 55, "velocity": 40, "note_on_time": 17.148, "note_off_time": 18.164}, {"pitch": 74, "velocity": 40, "note_on_time": 18.163, "note_off_time": 19.171}, {"pitch": 48, "velocity": 40, "note_on_time": 18.164, "note_off_time": 19.171}, {"pitch": 52, "velocity": 40, "note_on_time": 19.171, "note_off_time": 20.18}, {"pitch": 55, "velocity": 40, "note_on_time": 19.171, "note_off_time": 20.18}, {"pitch": 48, "velocity": 40, "note_on_time": 20.18, "note_off_time": 21.189}, {"pitch": 52, "velocity": 40, "note_on_time": 21.189, "note_off_time": 22.191}, {"pitch": 55, "velocity": 40, "note_on_time": 21.189, "note_off_time": 22.191}, {"pitch": 48, "velocity": 40, "note_on_time": 22.191, "note_off_time": 23.199}, {"pitch": 52, "velocity": 40, "note_on_time": 23.199, "note_off_time": 24.211}, {"pitch": 55, "velocity": 40, "note_on_time": 23.199, "note_off_time": 24.211}, {"pitch": 60, "velocity": 40, "note_on_time": 24.209, "note_off_time": 25.213}, {"pitch": 64, "velocity": 40, "note_on_time": 24.21, "note_off_time": 25.214}, {"pitch": 67, "velocity": 40, "note_on_time": 24.211, "note_off_time": 25.214}, {"pitch": 48, "velocity": 40, "note_on_time": 24.211, "note_off_time": 25.214}, {"pitch": 52, "velocity": 40, "note_on_time": 25.215, "note_off_time": 26.23}, {"pitch": 55, "velocity": 40, "note_on_time": 25.215, "note_off_time": 26.23}, {"pitch": 72, "velocity": 40, "note_on_time": 26.229, "note_off_time": 27.245}, {"pitch": 48, "velocity": 40, "note_on_time": 26.23, "note_off_time": 27.245}, {"pitch": 52, "velocity": 40, "note_on_time": 27.246, "note_off_time": 28.254}, {"pitch": 55, "velocity": 40, "note_on_time": 27.246, "note_off_time": 28.254}, {"pitch": 48, "velocity": 40, "note_on_time": 28.254, "note_off_time": 29.257}, {"pitch": 52, "velocity": 40, "note_on_time": 29.257, "note_off_time": 30.26}, {"pitch": 55, "velocity": 40, "note_on_time": 29.257, "note_off_time": 30.26}, {"pitch": 48, "velocity": 40, "note_on_time": 30.26, "note_off_time": 31.27}, {"pitch": 52, "velocity": 40, "note_on_time": 31.27, "note_off_time": 32.287}, {"pitch": 55, "velocity": 40, "note_on_time": 31.27, "note_off_time": 32.287}, {"pitch": 60, "velocity": 40, "note_on_time": 32.286, "note_off_time": 33.299}, {"pitch": 64, "velocity": 40, "note_on_time": 32.286, "note_off_time": 33.3}, {"pitch": 67, "velocity": 40, "note_on_time": 32.287, "note_off_time": 33.3}, {"pitch": 48, "velocity": 40, "note_on_time": 32.287, "note_off_time": 33.301}, {"pitch": 52, "velocity": 40, "note_on_time": 33.301, "note_off_time": 34.31}, {"pitch": 55, "velocity": 40, "note_on_time": 33.301, "note_off_time": 34.31}, {"pitch": 76, "velocity": 40, "note_on_time": 34.31, "note_off_time": 35.32}, {"pitch": 48, "velocity": 40, "note_on_time": 34.31, "note_off_time": 35.32}, {"pitch": 52, "velocity": 40, "note_on_time": 35.321, "note_off_time": 36.322}, {"pitch": 55, "velocity": 40, "note_on_time": 35.321, "note_off_time": 36.322}, {"pitch": 48, "velocity": 40, "note_on_time": 36.322, "note_off_time": 37.33}, {"pitch": 52, "velocity": 40, "note_on_time": 37.33, "note_off_time": 38.337}, {"pitch": 55, "velocity": 40, "note_on_time": 37.33, "note_off_time": 38.337}, {"pitch": 48, "velocity": 40, "note_on_time": 38.337, "note_off_time": 39.352}, {"pitch": 52, "velocity": 40, "note_on_time": 39.352, "note_off_time": 40.356}, {"pitch": 55, "velocity": 40, "note_on_time": 39.352, "note_off_time": 40.356}, {"pitch": 60, "velocity": 40, "note_on_time": 40.356, "note_off_time": 41.377}, {"pitch": 64, "velocity": 40, "note_on_time": 40.356, "note_off_time": 41.41}, {"pitch": 67, "velocity": 40, "note_on_time": 40.356, "note_off_time": 41.419}, {"pitch": 79, "velocity": 40, "note_on_time": 42.427, "note_off_time": 43.438}, {"pitch": 60, "velocity": 40, "note_on_time": 48.442, "note_off_time": 49.453}, {"pitch": 64, "velocity": 40, "note_on_time": 48.442, "note_off_time": 49.454}, {"pitch": 67, "velocity": 40, "note_on_time": 48.443, "note_off_time": 49.455}, {"pitch": 76, "velocity": 40, "note_on_time": 50.458, "note_off_time": 51.469}, {"pitch": 60, "velocity": 40, "note_on_time": 56.479, "note_off_time": 57.489}, {"pitch": 64, "velocity": 40, "note_on_time": 56.479, "note_off_time": 57.489}, {"pitch": 67, "velocity": 40, "note_on_time": 56.48, "note_off_time": 57.49}, {"pitch": 77, "velocity": 40, "note_on_time": 58.491, "note_off_time": 59.501}, {"pitch": 60, "velocity": 40, "note_on_time": 64.502, "note_off_time": 65.516}, {"pitch": 64, "velocity": 40, "note_on_time": 64.503, "note_off_time": 65.516}, {"pitch": 67, "velocity": 40, "note_on_time": 64.504, "note_off_time": 65.517}, {"pitch": 74, "velocity": 40, "note_on_time": 66.529, "note_off_time": 67.535}, {"pitch": 60, "velocity": 40, "note_on_time": 72.54, "note_off_time": 73.551}, {"pitch": 64, "velocity": 40, "note_on_time": 72.54, "note_off_time": 73.552}, {"pitch": 67, "velocity": 40, "note_on_time": 72.541, "note_off_time": 73.553}, {"pitch": 79, "velocity": 40, "note_on_time": 74.555, "note_off_time": 75.561}, {"pitch": 60, "velocity": 40, "note_on_time": 80.573, "note_off_time": 81.586}, {"pitch": 64, "velocity": 40, "note_on_time": 80.574, "note_off_time": 81.587}, {"pitch": 67, "velocity": 40, "note_on_time": 80.574, "note_off_time": 81.588}, {"pitch": 72, "velocity": 40, "note_on_time": 82.601, "note_off_time": 83.603}, {"pitch": 60, "velocity": 40, "note_on_time": 88.617, "note_off_time": 89.627}, {"pitch": 64, "velocity": 40, "note_on_time": 88.618, "note_off_time": 89.627}, {"pitch": 67, "velocity": 40, "note_on_time": 88.619, "note_off_time": 89.628}, {"pitch": 74, "velocity": 40, "note_on_time": 90.642, "note_off_time": 91.655}, {"pitch": 60, "velocity": 40, "note_on_time": 96.667, "note_off_time": 97.682}, {"pitch": 64, "velocity": 40, "note_on_time": 96.668, "note_off_time": 97.683}, {"pitch": 67, "velocity": 40, "note_on_time": 96.668, "note_off_time": 97.684}, {"pitch": 76, "velocity": 40, "note_on_time": 98.691, "note_off_time": 99.706}, {"pitch": 60, "velocity": 40, "note_on_time": 104.719, "note_off_time": 105.733}, {"pitch": 64, "velocity": 40, "note_on_time": 104.721, "note_off_time": 105.734}, {"pitch": 67, "velocity": 40, "note_on_time": 104.721, "note_off_time": 105.734}, {"pitch": 77, "velocity": 40, "note_on_time": 106.742, "note_off_time": 107.758}, {"pitch": 60, "velocity": 40, "note_on_time": 112.766, "note_off_time": 113.78}, {"pitch": 64, "velocity": 40, "note_on_time": 112.767, "note_off_time": 113.78}, {"pitch": 67, "velocity": 40, "note_on_time": 112.767, "note_off_time": 113.781}, {"pitch": 72, "velocity": 40, "note_on_time": 114.784, "note_off_time": 115.799}, {"pitch": 60, "velocity": 40, "note_on_time": 120.802, "note_off_time": 121.813}, {"pitch": 64, "velocity": 40, "note_on_time": 120.804, "note_off_time": 121.814}, {"pitch": 67, "velocity": 40, "note_on_time": 120.804, "note_off_time": 121.814}, {"pitch": 77, "velocity": 40, "note_on_time": 122.828, "note_off_time": 123.844}, {"pitch": 60, "velocity": 40, "note_on_time": 128.86, "note_off_time": 129.874}, {"pitch": 64, "velocity": 40, "note_on_time": 128.861, "note_off_time": 129.875}, {"pitch": 67, "velocity": 40, "note_on_time": 128.861, "note_off_time": 129.875}, {"pitch": 79, "velocity": 40, "note_on_time": 130.888, "note_off_time": 131.901}, {"pitch": 60, "velocity": 40, "note_on_time": 136.913, "note_off_time": 137.916}, {"pitch": 64, "velocity": 40, "note_on_time": 136.913, "note_off_time": 137.917}, {"pitch": 67, "velocity": 40, "note_on_time": 136.914, "note_off_time": 137.917}, {"pitch": 72, "velocity": 40, "note_on_time": 138.924, "note_off_time": 139.927}, {"pitch": 60, "velocity": 40, "note_on_time": 144.935, "note_off_time": 145.951}, {"pitch": 64, "velocity": 40, "note_on_time": 144.935, "note_off_time": 145.952}, {"pitch": 67, "velocity": 40, "note_on_time": 144.935, "note_off_time": 145.952}, {"pitch": 74, "velocity": 40, "note_on_time": 146.956, "note_off_time": 147.972}, {"pitch": 60, "velocity": 40, "note_on_time": 152.974, "note_off_time": 153.979}, {"pitch": 64, "velocity": 40, "note_on_time": 152.975, "note_off_time": 153.98}, {"pitch": 67, "velocity": 40, "note_on_time": 152.975, "note_off_time": 153.98}, {"pitch": 77, "velocity": 40, "note_on_time": 154.987, "note_off_time": 156.001}, {"pitch": 60, "velocity": 40, "note_on_time": 161.008, "note_off_time": 162.023}, {"pitch": 64, "velocity": 40, "note_on_time": 161.009, "note_off_time": 162.023}, {"pitch": 67, "velocity": 40, "note_on_time": 161.009, "note_off_time": 162.024}, {"pitch": 79, "velocity": 40, "note_on_time": 163.033, "note_off_time": 164.04}]</notes><options name="Option List">((4, 4), [0.5, 0.25], 3, 8, &lt;NoteRangePerHand.TWO_NOTES: 3&gt;, &lt;NoteRangePerHand.ONE_NOTE: 2&gt;, False, True, True, 100)</options></target_notes><trials><trial trial_no="1" timestamp="2024_03_11-12_29_53"><notes name="Played Notes">[{"pitch": 72, "velocity": 17, "note_on_time": 3.05, "note_off_time": 3.524}, {"pitch": 74, "velocity": 45, "note_on_time": 6.102, "note_off_time": 6.341}, {"pitch": 76, "velocity": 21, "note_on_time": 6.81, "note_off_time": 6.98}, {"pitch": 77, "velocity": 48, "note_on_time": 7.151, "note_off_time": 7.328}, {"pitch": 79, "velocity": 45, "note_on_time": 8.133, "note_off_time": 8.261}, {"pitch": 77, "velocity": 59, "note_on_time": 12.068, "note_off_time": 12.362}, {"pitch": 76, "velocity": 28, "note_on_time": 12.972, "note_off_time": 13.075}, {"pitch": 74, "velocity": 22, "note_on_time": 14.36, "note_off_time": 14.631}, {"pitch": 72, "velocity": 1, "note_on_time": 15.127, "note_off_time": 15.254}, {"pitch": 72, "velocity": 39, "note_on_time": 15.416, "note_off_time": 15.668}, {"pitch": 79, "velocity": 58, "note_on_time": 15.984, "note_off_time": 16.309}, {"pitch": 74, "velocity": 53, "note_on_time": 19.57, "note_off_time": 19.996}, {"pitch": 74, "velocity": 21, "note_on_time": 21.768, "note_off_time": 22.882}, {"pitch": 72, "velocity": 51, "note_on_time": 27.431, "note_off_time": 28.297}, {"pitch": 77, "velocity": 50, "note_on_time": 36.005, "note_off_time": 36.342}, {"pitch": 76, "velocity": 35, "note_on_time": 37.108, "note_off_time": 37.365}, {"pitch": 76, "velocity": 70, "note_on_time": 37.988, "note_off_time": 39.236}, {"pitch": 77, "velocity": 61, "note_on_time": 43.99, "note_off_time": 44.338}, {"pitch": 79, "velocity": 18, "note_on_time": 45.498, "note_off_time": 46.362}, {"pitch": 79, "velocity": 66, "note_on_time": 46.549, "note_off_time": 47.779}, {"pitch": 76, "velocity": 45, "note_on_time": 52.001, "note_off_time": 53.113}, {"pitch": 77, "velocity": 69, "note_on_time": 59.761, "note_off_time": 60.889}, {"pitch": 74, "velocity": 64, "note_on_time": 67.953, "note_off_time": 69.258}, {"pitch": 77, "velocity": 55, "note_on_time": 76.257, "note_off_time": 76.623}, {"pitch": 79, "velocity": 60, "note_on_time": 77.505, "note_off_time": 78.793}, {"pitch": 72, "velocity": 45, "note_on_time": 84.05, "note_off_time": 85.297}, {"pitch": 74, "velocity": 47, "note_on_time": 92.077, "note_off_time": 93.395}, {"pitch": 77, "velocity": 52, "note_on_time": 100.435, "note_off_time": 100.796}, {"pitch": 76, "velocity": 53, "note_on_time": 101.534, "note_off_time": 102.721}, {"pitch": 77, "velocity": 54, "note_on_time": 108.161, "note_off_time": 109.142}, {"pitch": 72, "velocity": 42, "note_on_time": 117.36, "note_off_time": 118.144}, {"pitch": 77, "velocity": 62, "note_on_time": 124.308, "note_off_time": 125.362}, {"pitch": 79, "velocity": 60, "note_on_time": 132.196, "note_off_time": 133.271}, {"pitch": 72, "velocity": 41, "note_on_time": 140.257, "note_off_time": 141.31}, {"pitch": 74, "velocity": 53, "note_on_time": 148.318, "note_off_time": 149.4}, {"pitch": 77, "velocity": 54, "note_on_time": 156.373, "note_off_time": 157.596}]</notes><guidance name="Guidance Mode">None</guidance><error name="Error value">99</error></trial><trial trial_no="2" timestamp="2024_03_11-12_34_58"><notes name="Played Notes">[{"pitch": 72, "velocity": 37, "note_on_time": 2.563, "note_off_time": 3.101}, {"pitch": 74, "velocity": 54, "note_on_time": 3.101, "note_off_time": 3.7}, {"pitch": 76, "velocity": 41, "note_on_time": 3.704, "note_off_time": 4.27}, {"pitch": 77, "velocity": 56, "note_on_time": 4.269, "note_off_time": 4.89}, {"pitch": 79, "velocity": 60, "note_on_time": 4.896, "note_off_time": 6.137}, {"pitch": 72, "velocity": 42, "note_on_time": 6.171, "note_off_time": 6.734}, {"pitch": 74, "velocity": 40, "note_on_time": 6.748, "note_off_time": 7.328}, {"pitch": 76, "velocity": 40, "note_on_time": 7.339, "note_off_time": 7.928}, {"pitch": 77, "velocity": 47, "note_on_time": 7.944, "note_off_time": 8.593}, {"pitch": 79, "velocity": 52, "note_on_time": 8.585, "note_off_time": 9.822}, {"pitch": 72, "velocity": 44, "note_on_time": 9.86, "note_off_time": 10.413}, {"pitch": 74, "velocity": 40, "note_on_time": 10.434, "note_off_time": 11.02}, {"pitch": 76, "velocity": 45, "note_on_time": 11.019, "note_off_time": 11.613}, {"pitch": 77, "velocity": 56, "note_on_time": 11.619, "note_off_time": 12.23}, {"pitch": 79, "velocity": 52, "note_on_time": 12.228, "note_off_time": 13.443}, {"pitch": 72, "velocity": 45, "note_on_time": 13.483, "note_off_time": 14.035}, {"pitch": 74, "velocity": 48, "note_on_time": 14.046, "note_off_time": 14.649}, {"pitch": 76, "velocity": 48, "note_on_time": 14.645, "note_off_time": 15.21}, {"pitch": 77, "velocity": 52, "note_on_time": 15.23, "note_off_time": 15.893}, {"pitch": 79, "velocity": 57, "note_on_time": 15.878, "note_off_time": 16.738}, {"pitch": 79, "velocity": 52, "note_on_time": 17.198, "note_off_time": 17.778}, {"pitch": 77, "velocity": 49, "note_on_time": 17.743, "note_off_time": 18.368}, {"pitch": 76, "velocity": 48, "note_on_time": 18.316, "note_off_time": 18.918}, {"pitch": 74, "velocity": 52, "note_on_time": 18.931, "note_off_time": 19.577}, {"pitch": 72, "velocity": 42, "note_on_time": 19.592, "note_off_time": 20.385}, {"pitch": 79, "velocity": 64, "note_on_time": 20.774, "note_off_time": 21.359}, {"pitch": 77, "velocity": 51, "note_on_time": 21.34, "note_off_time": 21.99}, {"pitch": 76, "velocity": 53, "note_on_time": 21.939, "note_off_time": 22.568}, {"pitch": 74, "velocity": 49, "note_on_time": 22.567, "note_off_time": 23.228}, {"pitch": 72, "velocity": 46, "note_on_time": 23.23, "note_off_time": 24.441}, {"pitch": 79, "velocity": 53, "note_on_time": 24.442, "note_off_time": 25.032}, {"pitch": 77, "velocity": 58, "note_on_time": 25.021, "note_off_time": 25.663}, {"pitch": 76, "velocity": 49, "note_on_time": 25.631, "note_off_time": 26.241}, {"pitch": 74, "velocity": 59, "note_on_time": 26.246, "note_off_time": 26.857}, {"pitch": 72, "velocity": 53, "note_on_time": 26.86, "note_off_time": 28.066}, {"pitch": 79, "velocity": 57, "note_on_time": 28.077, "note_off_time": 28.695}, {"pitch": 77, "velocity": 49, "note_on_time": 28.661, "note_off_time": 29.252}, {"pitch": 76, "velocity": 63, "note_on_time": 29.237, "note_off_time": 29.852}, {"pitch": 74, "velocity": 51, "note_on_time": 29.867, "note_off_time": 30.497}, {"pitch": 72, "velocity": 49, "note_on_time": 30.495, "note_off_time": 31.302}, {"pitch": 74, "velocity": 55, "note_on_time": 31.812, "note_off_time": 32.352}, {"pitch": 76, "velocity": 50, "note_on_time": 32.345, "note_off_time": 32.956}, {"pitch": 77, "velocity": 51, "note_on_time": 32.956, "note_off_time": 33.583}, {"pitch": 79, "velocity": 70, "note_on_time": 33.548, "note_off_time": 34.162}, {"pitch": 72, "velocity": 55, "note_on_time": 34.156, "note_off_time": 35.067}, {"pitch": 74, "velocity": 52, "note_on_time": 35.39, "note_off_time": 35.999}, {"pitch": 76, "velocity": 45, "note_on_time": 35.981, "note_off_time": 36.612}, {"pitch": 77, "velocity": 50, "note_on_time": 36.606, "note_off_time": 37.206}, {"pitch": 79, "velocity": 43, "note_on_time": 37.205, "note_off_time": 37.767}, {"pitch": 72, "velocity": 46, "note_on_time": 37.792, "note_off_time": 38.681}, {"pitch": 74, "velocity": 60, "note_on_time": 39.026, "note_off_time": 39.635}, {"pitch": 76, "velocity": 49, "note_on_time": 39.626, "note_off_time": 40.226}, {"pitch": 77, "velocity": 51, "note_on_time": 40.225, "note_off_time": 40.832}, {"pitch": 79, "velocity": 56, "note_on_time": 40.843, "note_off_time": 41.453}, {"pitch": 72, "velocity": 41, "note_on_time": 41.484, "note_off_time": 42.646}, {"pitch": 74, "velocity": 46, "note_on_time": 42.706, "note_off_time": 43.304}, {"pitch": 76, "velocity": 40, "note_on_time": 43.309, "note_off_time": 43.905}, {"pitch": 77, "velocity": 51, "note_on_time": 43.909, "note_off_time": 44.499}, {"pitch": 79, "velocity": 55, "note_on_time": 44.505, "note_off_time": 45.104}, {"pitch": 72, "velocity": 48, "note_on_time": 45.12, "note_off_time": 46.168}, {"pitch": 77, "velocity": 60, "note_on_time": 46.348, "note_off_time": 46.942}, {"pitch": 76, "velocity": 49, "note_on_time": 46.941, "note_off_time": 47.574}, {"pitch": 74, "velocity": 47, "note_on_time": 47.58, "note_off_time": 48.142}, {"pitch": 72, "velocity": 42, "note_on_time": 48.145, "note_off_time": 48.761}, {"pitch": 79, "velocity": 56, "note_on_time": 48.76, "note_off_time": 49.743}, {"pitch": 77, "velocity": 56, "note_on_time": 50.03, "note_off_time": 50.615}, {"pitch": 76, "velocity": 52, "note_on_time": 50.607, "note_off_time": 51.202}, {"pitch": 74, "velocity": 54, "note_on_time": 51.209, "note_off_time": 51.758}, {"pitch": 72, "velocity": 49, "note_on_time": 51.772, "note_off_time": 52.433}, {"pitch": 79, "velocity": 64, "note_on_time": 52.418, "note_off_time": 53.647}, {"pitch": 77, "velocity": 56, "note_on_time": 53.646, "note_off_time": 54.249}, {"pitch": 76, "velocity": 58, "note_on_time": 54.233, "note_off_time": 54.851}, {"pitch": 74, "velocity": 46, "note_on_time": 54.853, "note_off_time": 55.423}, {"pitch": 72, "velocity": 45, "note_on_time": 55.435, "note_off_time": 56.065}, {"pitch": 79, "velocity": 52, "note_on_time": 56.068, "note_off_time": 57.339}, {"pitch": 77, "velocity": 49, "note_on_time": 57.338, "note_off_time": 57.896}, {"pitch": 76, "velocity": 38, "note_on_time": 57.906, "note_off_time": 58.568}, {"pitch": 74, "velocity": 50, "note_on_time": 58.527, "note_off_time": 59.109}, {"pitch": 72, "velocity": 47, "note_on_time": 59.115, "note_off_time": 59.726}, {"pitch": 79, "velocity": 51, "note_on_time": 59.725, "note_off_time": 60.977}, {"pitch": 76, "velocity": 56, "note_on_time": 61.002, "note_off_time": 61.587}, {"pitch": 77, "velocity": 56, "note_on_time": 61.582, "note_off_time": 62.264}, {"pitch": 79, "velocity": 62, "note_on_time": 62.241, "note_off_time": 62.79}, {"pitch": 74, "velocity": 61, "note_on_time": 62.799, "note_off_time": 63.4}, {"pitch": 72, "velocity": 56, "note_on_time": 63.417, "note_off_time": 64.612}, {"pitch": 76, "velocity": 65, "note_on_time": 64.611, "note_off_time": 65.205}, {"pitch": 77, "velocity": 52, "note_on_time": 65.219, "note_off_time": 65.846}, {"pitch": 79, "velocity": 51, "note_on_time": 65.841, "note_off_time": 66.416}, {"pitch": 74, "velocity": 49, "note_on_time": 66.419, "note_off_time": 67.032}, {"pitch": 72, "velocity": 33, "note_on_time": 67.063, "note_off_time": 68.293}, {"pitch": 76, "velocity": 55, "note_on_time": 68.291, "note_off_time": 68.859}, {"pitch": 77, "velocity": 48, "note_on_time": 68.863, "note_off_time": 69.483}, {"pitch": 79, "velocity": 50, "note_on_time": 69.509, "note_off_time": 70.077}, {"pitch": 74, "velocity": 50, "note_on_time": 70.08, "note_off_time": 70.696}, {"pitch": 72, "velocity": 42, "note_on_time": 70.733, "note_off_time": 71.965}, {"pitch": 76, "velocity": 58, "note_on_time": 71.96, "note_off_time": 72.528}, {"pitch": 77, "velocity": 58, "note_on_time": 72.521, "note_off_time": 73.096}, {"pitch": 79, "velocity": 51, "note_on_time": 73.133, "note_off_time": 73.737}, {"pitch": 74, "velocity": 47, "note_on_time": 73.758, "note_off_time": 74.34}, {"pitch": 72, "velocity": 38, "note_on_time": 74.361, "note_off_time": 75.585}, {"pitch": 76, "velocity": 49, "note_on_time": 75.593, "note_off_time": 76.181}, {"pitch": 77, "velocity": 43, "note_on_time": 76.198, "note_off_time": 76.755}, {"pitch": 79, "velocity": 44, "note_on_time": 76.775, "note_off_time": 77.386}, {"pitch": 74, "velocity": 48, "note_on_time": 77.411, "note_off_time": 77.998}, {"pitch": 72, "velocity": 35, "note_on_time": 78.045, "note_off_time": 79.192}, {"pitch": 76, "velocity": 56, "note_on_time": 79.201, "note_off_time": 79.809}, {"pitch": 74, "velocity": 50, "note_on_time": 79.811, "note_off_time": 80.426}, {"pitch": 72, "velocity": 40, "note_on_time": 80.439, "note_off_time": 81.078}, {"pitch": 77, "velocity": 57, "note_on_time": 81.069, "note_off_time": 81.72}, {"pitch": 79, "velocity": 58, "note_on_time": 81.719, "note_off_time": 82.924}, {"pitch": 76, "velocity": 66, "note_on_time": 82.942, "note_off_time": 83.544}, {"pitch": 74, "velocity": 55, "note_on_time": 83.55, "note_off_time": 84.121}, {"pitch": 72, "velocity": 57, "note_on_time": 84.128, "note_off_time": 84.747}, {"pitch": 77, "velocity": 57, "note_on_time": 84.72, "note_off_time": 85.309}, {"pitch": 79, "velocity": 52, "note_on_time": 85.307, "note_off_time": 86.564}, {"pitch": 76, "velocity": 51, "note_on_time": 86.573, "note_off_time": 87.161}, {"pitch": 74, "velocity": 50, "note_on_time": 87.169, "note_off_time": 87.763}, {"pitch": 72, "velocity": 37, "note_on_time": 87.785, "note_off_time": 88.378}, {"pitch": 77, "velocity": 59, "note_on_time": 88.359, "note_off_time": 88.98}, {"pitch": 79, "velocity": 55, "note_on_time": 88.979, "note_off_time": 90.173}, {"pitch": 76, "velocity": 49, "note_on_time": 90.179, "note_off_time": 90.746}, {"pitch": 74, "velocity": 58, "note_on_time": 90.755, "note_off_time": 91.348}, {"pitch": 72, "velocity": 44, "note_on_time": 91.368, "note_off_time": 91.99}, {"pitch": 77, "velocity": 56, "note_on_time": 91.946, "note_off_time": 92.603}, {"pitch": 79, "velocity": 59, "note_on_time": 92.597, "note_off_time": 93.566}, {"pitch": 77, "velocity": 60, "note_on_time": 93.826, "note_off_time": 94.406}, {"pitch": 79, "velocity": 50, "note_on_time": 94.414, "note_off_time": 94.982}, {"pitch": 76, "velocity": 54, "note_on_time": 94.98, "note_off_time": 95.595}, {"pitch": 74, "velocity": 58, "note_on_time": 95.623, "note_off_time": 96.257}, {"pitch": 72, "velocity": 42, "note_on_time": 96.287, "note_off_time": 97.475}, {"pitch": 77, "velocity": 56, "note_on_time": 97.5, "note_off_time": 98.114}, {"pitch": 79, "velocity": 53, "note_on_time": 98.118, "note_off_time": 98.721}, {"pitch": 76, "velocity": 61, "note_on_time": 98.72, "note_off_time": 99.336}, {"pitch": 74, "velocity": 49, "note_on_time": 99.338, "note_off_time": 99.921}, {"pitch": 72, "velocity": 42, "note_on_time": 99.947, "note_off_time": 101.136}, {"pitch": 77, "velocity": 57, "note_on_time": 101.15, "note_off_time": 101.738}, {"pitch": 79, "velocity": 49, "note_on_time": 101.758, "note_off_time": 102.336}, {"pitch": 76, "velocity": 48, "note_on_time": 102.329, "note_off_time": 102.931}, {"pitch": 74, "velocity": 51, "note_on_time": 102.928, "note_off_time": 103.521}, {"pitch": 72, "velocity": 45, "note_on_time": 103.558, "note_off_time": 104.731}, {"pitch": 77, "velocity": 62, "note_on_time": 104.774, "note_off_time": 105.356}, {"pitch": 79, "velocity": 52, "note_on_time": 105.365, "note_off_time": 105.949}, {"pitch": 76, "velocity": 49, "note_on_time": 105.958, "note_off_time": 106.577}, {"pitch": 74, "velocity": 54, "note_on_time": 106.592, "note_off_time": 107.176}, {"pitch": 72, "velocity": 32, "note_on_time": 107.211, "note_off_time": 108.48}, {"pitch": 77, "velocity": 49, "note_on_time": 108.473, "note_off_time": 109.038}, {"pitch": 79, "velocity": 45, "note_on_time": 109.06, "note_off_time": 109.667}, {"pitch": 76, "velocity": 39, "note_on_time": 109.687, "note_off_time": 110.253}, {"pitch": 74, "velocity": 40, "note_on_time": 110.275, "note_off_time": 110.854}, {"pitch": 72, "velocity": 35, "note_on_time": 110.897, "note_off_time": 111.819}, {"pitch": 74, "velocity": 52, "note_on_time": 112.149, "note_off_time": 112.71}, {"pitch": 72, "velocity": 55, "note_on_time": 112.713, "note_off_time": 113.348}, {"pitch": 76, "velocity": 62, "note_on_time": 113.346, "note_off_time": 113.916}, {"pitch": 77, "velocity": 51, "note_on_time": 113.928, "note_off_time": 114.584}, {"pitch": 79, "velocity": 55, "note_on_time": 114.562, "note_off_time": 115.767}, {"pitch": 74, "velocity": 58, "note_on_time": 115.794, "note_off_time": 116.371}, {"pitch": 72, "velocity": 55, "note_on_time": 116.394, "note_off_time": 117.003}, {"pitch": 76, "velocity": 51, "note_on_time": 117.008, "note_off_time": 117.584}, {"pitch": 77, "velocity": 52, "note_on_time": 117.583, "note_off_time": 118.185}, {"pitch": 79, "velocity": 45, "note_on_time": 118.201, "note_off_time": 119.426}, {"pitch": 74, "velocity": 51, "note_on_time": 119.442, "note_off_time": 120.029}, {"pitch": 72, "velocity": 39, "note_on_time": 120.048, "note_off_time": 120.651}, {"pitch": 76, "velocity": 52, "note_on_time": 120.654, "note_off_time": 121.216}, {"pitch": 77, "velocity": 49, "note_on_time": 121.236, "note_off_time": 121.835}, {"pitch": 79, "velocity": 48, "note_on_time": 121.856, "note_off_time": 123.051}, {"pitch": 74, "velocity": 49, "note_on_time": 123.094, "note_off_time": 123.637}, {"pitch": 72, "velocity": 36, "note_on_time": 123.664, "note_off_time": 124.278}, {"pitch": 76, "velocity": 44, "note_on_time": 124.277, "note_off_time": 124.865}, {"pitch": 77, "velocity": 51, "note_on_time": 124.845, "note_off_time": 125.483}, {"pitch": 79, "velocity": 47, "note_on_time": 125.465, "note_off_time": 126.674}, {"pitch": 74, "velocity": 30, "note_on_time": 126.724, "note_off_time": 127.275}, {"pitch": 72, "velocity": 18, "note_on_time": 127.318, "note_off_time": 127.933}, {"pitch": 76, "velocity": 52, "note_on_time": 127.921, "note_off_time": 128.532}, {"pitch": 77, "velocity": 46, "note_on_time": 128.525, "note_off_time": 129.144}, {"pitch": 79, "velocity": 47, "note_on_time": 129.131, "note_off_time": 130.332}, {"pitch": 72, "velocity": 27, "note_on_time": 130.436, "note_off_time": 131.009}, {"pitch": 74, "velocity": 44, "note_on_time": 131.017, "note_off_time": 131.595}, {"pitch": 76, "velocity": 51, "note_on_time": 131.579, "note_off_time": 132.19}, {"pitch": 77, "velocity": 53, "note_on_time": 132.186, "note_off_time": 132.794}, {"pitch": 79, "velocity": 55, "note_on_time": 132.783, "note_off_time": 133.96}, {"pitch": 72, "velocity": 36, "note_on_time": 134.029, "note_off_time": 134.63}, {"pitch": 74, "velocity": 43, "note_on_time": 134.616, "note_off_time": 135.192}, {"pitch": 76, "velocity": 39, "note_on_time": 135.201, "note_off_time": 135.8}, {"pitch": 77, "velocity": 41, "note_on_time": 135.799, "note_off_time": 136.478}, {"pitch": 79, "velocity": 55, "note_on_time": 136.46, "note_off_time": 137.586}, {"pitch": 72, "velocity": 40, "note_on_time": 137.662, "note_off_time": 138.255}, {"pitch": 74, "velocity": 38, "note_on_time": 138.272, "note_off_time": 138.842}, {"pitch": 76, "velocity": 42, "note_on_time": 138.841, "note_off_time": 139.492}, {"pitch": 77, "velocity": 48, "note_on_time": 139.494, "note_off_time": 140.139}, {"pitch": 79, "velocity": 56, "note_on_time": 140.127, "note_off_time": 141.263}, {"pitch": 72, "velocity": 38, "note_on_time": 141.345, "note_off_time": 141.911}, {"pitch": 74, "velocity": 43, "note_on_time": 141.926, "note_off_time": 142.52}, {"pitch": 76, "velocity": 53, "note_on_time": 142.514, "note_off_time": 143.108}, {"pitch": 77, "velocity": 50, "note_on_time": 143.092, "note_off_time": 143.766}, {"pitch": 79, "velocity": 49, "note_on_time": 143.759, "note_off_time": 144.561}, {"pitch": 79, "velocity": 54, "note_on_time": 144.934, "note_off_time": 145.598}, {"pitch": 77, "velocity": 50, "note_on_time": 145.569, "note_off_time": 146.189}, {"pitch": 76, "velocity": 58, "note_on_time": 146.17, "note_off_time": 146.78}, {"pitch": 74, "velocity": 46, "note_on_time": 146.783, "note_off_time": 147.434}, {"pitch": 72, "velocity": 37, "note_on_time": 147.461, "note_off_time": 148.671}, {"pitch": 79, "velocity": 51, "note_on_time": 148.683, "note_off_time": 149.269}, {"pitch": 77, "velocity": 54, "note_on_time": 149.257, "note_off_time": 149.86}, {"pitch": 76, "velocity": 48, "note_on_time": 149.868, "note_off_time": 150.465}, {"pitch": 74, "velocity": 45, "note_on_time": 150.471, "note_off_time": 151.085}, {"pitch": 72, "velocity": 38, "note_on_time": 151.114, "note_off_time": 152.331}, {"pitch": 79, "velocity": 44, "note_on_time": 152.365, "note_off_time": 152.973}, {"pitch": 77, "velocity": 54, "note_on_time": 152.931, "note_off_time": 153.554}, {"pitch": 76, "velocity": 41, "note_on_time": 153.55, "note_off_time": 154.157}, {"pitch": 74, "velocity": 44, "note_on_time": 154.129, "note_off_time": 154.743}, {"pitch": 72, "velocity": 45, "note_on_time": 154.754, "note_off_time": 155.9}, {"pitch": 79, "velocity": 48, "note_on_time": 155.951, "note_off_time": 156.532}, {"pitch": 77, "velocity": 52, "note_on_time": 156.544, "note_off_time": 157.152}, {"pitch": 76, "velocity": 48, "note_on_time": 157.161, "note_off_time": 157.804}, {"pitch": 74, "velocity": 39, "note_on_time": 157.801, "note_off_time": 158.409}, {"pitch": 72, "velocity": 40, "note_on_time": 158.415, "note_off_time": 158.977}, {"pitch": 79, "velocity": 43, "note_on_time": 159.613, "note_off_time": 160.215}, {"pitch": 77, "velocity": 35, "note_on_time": 160.225, "note_off_time": 160.847}, {"pitch": 76, "velocity": 30, "note_on_time": 160.861, "note_off_time": 161.464}, {"pitch": 74, "velocity": 35, "note_on_time": 161.478, "note_off_time": 162.067}, {"pitch": 72, "velocity": 36, "note_on_time": 162.09, "note_off_time": 162.827}, {"pitch": 74, "velocity": 46, "note_on_time": 163.277, "note_off_time": 163.876}, {"pitch": 76, "velocity": 55, "note_on_time": 163.864, "note_off_time": 164.516}, {"pitch": 77, "velocity": 55, "note_on_time": 164.515, "note_off_time": 165.131}, {"pitch": 79, "velocity": 55, "note_on_time": 165.135, "note_off_time": 165.707}, {"pitch": 72, "velocity": 37, "note_on_time": 165.754, "note_off_time": 166.605}, {"pitch": 74, "velocity": 51, "note_on_time": 166.895, "note_off_time": 167.515}, {"pitch": 76, "velocity": 49, "note_on_time": 167.508, "note_off_time": 168.158}, {"pitch": 77, "velocity": 53, "note_on_time": 168.14, "note_off_time": 168.766}, {"pitch": 79, "velocity": 56, "note_on_time": 168.766, "note_off_time": 169.318}, {"pitch": 72, "velocity": 25, "note_on_time": 169.346, "note_off_time": 170.045}, {"pitch": 74, "velocity": 49, "note_on_time": 170.536, "note_off_time": 171.133}, {"pitch": 76, "velocity": 45, "note_on_time": 171.141, "note_off_time": 171.767}, {"pitch": 77, "velocity": 51, "note_on_time": 171.768, "note_off_time": 172.34}, {"pitch": 79, "velocity": 47, "note_on_time": 172.355, "note_off_time": 172.923}, {"pitch": 72, "velocity": 39, "note_on_time": 172.975, "note_off_time": 173.674}, {"pitch": 74, "velocity": 45, "note_on_time": 174.162, "note_off_time": 174.78}, {"pitch": 76, "velocity": 46, "note_on_time": 174.773, "note_off_time": 175.388}, {"pitch": 77, "velocity": 56, "note_on_time": 175.392, "note_off_time": 175.993}, {"pitch": 79, "velocity": 54, "note_on_time": 175.985, "note_off_time": 176.521}, {"pitch": 72, "velocity": 45, "note_on_time": 176.582, "note_off_time": 177.332}, {"pitch": 77, "velocity": 54, "note_on_time": 177.794, "note_off_time": 178.342}, {"pitch": 76, "velocity": 48, "note_on_time": 178.355, "note_off_time": 179.028}, {"pitch": 74, "velocity": 50, "note_on_time": 179.037, "note_off_time": 179.626}, {"pitch": 72, "velocity": 44, "note_on_time": 179.662, "note_off_time": 180.241}, {"pitch": 79, "velocity": 52, "note_on_time": 180.282, "note_off_time": 181.126}, {"pitch": 77, "velocity": 52, "note_on_time": 181.461, "note_off_time": 182.023}, {"pitch": 76, "velocity": 48, "note_on_time": 182.038, "note_off_time": 182.684}, {"pitch": 74, "velocity": 31, "note_on_time": 182.702, "note_off_time": 183.264}, {"pitch": 72, "velocity": 37, "note_on_time": 183.295, "note_off_time": 183.876}, {"pitch": 79, "velocity": 52, "note_on_time": 183.917, "note_off_time": 184.779}, {"pitch": 77, "velocity": 42, "note_on_time": 185.11, "note_off_time": 185.708}, {"pitch": 76, "velocity": 37, "note_on_time": 185.71, "note_off_time": 186.338}, {"pitch": 74, "velocity": 33, "note_on_time": 186.351, "note_off_time": 186.918}, {"pitch": 72, "velocity": 44, "note_on_time": 186.944, "note_off_time": 187.533}, {"pitch": 79, "velocity": 52, "note_on_time": 187.55, "note_off_time": 188.746}, {"pitch": 77, "velocity": 58, "note_on_time": 188.78, "note_off_time": 189.343}, {"pitch": 76, "velocity": 62, "note_on_time": 189.342, "note_off_time": 189.985}, {"pitch": 74, "velocity": 51, "note_on_time": 189.999, "note_off_time": 190.585}, {"pitch": 72, "velocity": 44, "note_on_time": 190.621, "note_off_time": 191.192}, {"pitch": 79, "velocity": 48, "note_on_time": 191.255, "note_off_time": 192.401}, {"pitch": 74, "velocity": 50, "note_on_time": 192.712, "note_off_time": 193.247}, {"pitch": 76, "velocity": 46, "note_on_time": 193.257, "note_off_time": 193.459}]</notes><guidance name="Guidance Mode">None</guidance><error name="Error value">99</error></trial><trial trial_no="3" timestamp="2024_03_11-12_40_54"><notes name="Played Notes">[{"pitch": 72, "velocity": 40, "note_on_time": 2.461, "note_off_time": 3.016}, {"pitch": 74, "velocity": 37, "note_on_time": 3.035, "note_off_time": 3.619}, {"pitch": 76, "velocity": 48, "note_on_time": 3.614, "note_off_time": 4.193}, {"pitch": 77, "velocity": 52, "note_on_time": 4.202, "note_off_time": 4.865}, {"pitch": 79, "velocity": 61, "note_on_time": 4.866, "note_off_time": 6.088}, {"pitch": 72, "velocity": 41, "note_on_time": 6.139, "note_off_time": 6.705}, {"pitch": 74, "velocity": 40, "note_on_time": 6.721, "note_off_time": 7.319}, {"pitch": 76, "velocity": 47, "note_on_time": 7.316, "note_off_time": 7.912}, {"pitch": 77, "velocity": 45, "note_on_time": 7.909, "note_off_time": 8.53}, {"pitch": 79, "velocity": 53, "note_on_time": 8.527, "note_off_time": 9.753}, {"pitch": 72, "velocity": 44, "note_on_time": 9.8, "note_off_time": 10.336}, {"pitch": 74, "velocity": 48, "note_on_time": 10.354, "note_off_time": 10.937}, {"pitch": 76, "velocity": 52, "note_on_time": 10.932, "note_off_time": 11.519}, {"pitch": 77, "velocity": 49, "note_on_time": 11.532, "note_off_time": 12.165}, {"pitch": 79, "velocity": 43, "note_on_time": 12.191, "note_off_time": 13.399}, {"pitch": 72, "velocity": 39, "note_on_time": 13.451, "note_off_time": 14.016}, {"pitch": 74, "velocity": 37, "note_on_time": 14.029, "note_off_time": 14.62}, {"pitch": 76, "velocity": 48, "note_on_time": 14.61, "note_off_time": 15.186}, {"pitch": 77, "velocity": 51, "note_on_time": 15.196, "note_off_time": 15.811}, {"pitch": 79, "velocity": 54, "note_on_time": 15.832, "note_off_time": 16.669}, {"pitch": 79, "velocity": 51, "note_on_time": 17.105, "note_off_time": 17.713}, {"pitch": 77, "velocity": 54, "note_on_time": 17.685, "note_off_time": 18.277}, {"pitch": 76, "velocity": 45, "note_on_time": 18.269, "note_off_time": 18.884}, {"pitch": 74, "velocity": 42, "note_on_time": 18.871, "note_off_time": 19.501}, {"pitch": 72, "velocity": 39, "note_on_time": 19.524, "note_off_time": 20.339}, {"pitch": 79, "velocity": 51, "note_on_time": 20.7, "note_off_time": 21.332}, {"pitch": 77, "velocity": 61, "note_on_time": 21.304, "note_off_time": 21.922}, {"pitch": 76, "velocity": 48, "note_on_time": 21.932, "note_off_time": 22.535}, {"pitch": 74, "velocity": 43, "note_on_time": 22.562, "note_off_time": 23.161}, {"pitch": 72, "velocity": 40, "note_on_time": 23.21, "note_off_time": 23.948}, {"pitch": 79, "velocity": 49, "note_on_time": 24.396, "note_off_time": 24.963}, {"pitch": 77, "velocity": 44, "note_on_time": 24.994, "note_off_time": 25.61}, {"pitch": 76, "velocity": 43, "note_on_time": 25.623, "note_off_time": 26.199}, {"pitch": 74, "velocity": 40, "note_on_time": 26.232, "note_off_time": 26.779}, {"pitch": 72, "velocity": 39, "note_on_time": 26.845, "note_off_time": 27.558}, {"pitch": 79, "velocity": 38, "note_on_time": 28.061, "note_off_time": 28.643}, {"pitch": 77, "velocity": 40, "note_on_time": 28.657, "note_off_time": 29.222}, {"pitch": 76, "velocity": 38, "note_on_time": 29.255, "note_off_time": 29.808}, {"pitch": 74, "velocity": 38, "note_on_time": 29.853, "note_off_time": 30.459}, {"pitch": 72, "velocity": 36, "note_on_time": 30.483, "note_off_time": 31.149}, {"pitch": 77, "velocity": 49, "note_on_time": 31.681, "note_off_time": 32.254}, {"pitch": 76, "velocity": 49, "note_on_time": 32.241, "note_off_time": 32.88}, {"pitch": 74, "velocity": 35, "note_on_time": 32.901, "note_off_time": 33.47}, {"pitch": 72, "velocity": 37, "note_on_time": 33.488, "note_off_time": 34.068}, {"pitch": 79, "velocity": 50, "note_on_time": 34.094, "note_off_time": 35.029}, {"pitch": 77, "velocity": 51, "note_on_time": 35.344, "note_off_time": 35.886}, {"pitch": 76, "velocity": 49, "note_on_time": 35.914, "note_off_time": 36.531}, {"pitch": 74, "velocity": 40, "note_on_time": 36.546, "note_off_time": 37.071}, {"pitch": 72, "velocity": 49, "note_on_time": 37.111, "note_off_time": 37.746}, {"pitch": 79, "velocity": 49, "note_on_time": 37.773, "note_off_time": 38.721}, {"pitch": 77, "velocity": 51, "note_on_time": 38.996, "note_off_time": 39.564}, {"pitch": 76, "velocity": 45, "note_on_time": 39.593, "note_off_time": 40.158}, {"pitch": 74, "velocity": 42, "note_on_time": 40.194, "note_off_time": 40.758}, {"pitch": 72, "velocity": 44, "note_on_time": 40.771, "note_off_time": 41.348}, {"pitch": 79, "velocity": 51, "note_on_time": 41.413, "note_off_time": 42.351}, {"pitch": 77, "velocity": 47, "note_on_time": 42.664, "note_off_time": 43.174}, {"pitch": 76, "velocity": 43, "note_on_time": 43.235, "note_off_time": 43.831}, {"pitch": 74, "velocity": 34, "note_on_time": 43.865, "note_off_time": 44.398}, {"pitch": 72, "velocity": 18, "note_on_time": 44.461, "note_off_time": 45.045}, {"pitch": 79, "velocity": 51, "note_on_time": 45.076, "note_off_time": 45.88}, {"pitch": 76, "velocity": 49, "note_on_time": 46.267, "note_off_time": 46.828}, {"pitch": 77, "velocity": 47, "note_on_time": 46.854, "note_off_time": 47.511}, {"pitch": 79, "velocity": 49, "note_on_time": 47.514, "note_off_time": 48.08}, {"pitch": 74, "velocity": 45, "note_on_time": 48.109, "note_off_time": 48.678}, {"pitch": 72, "velocity": 42, "note_on_time": 48.719, "note_off_time": 49.673}, {"pitch": 76, "velocity": 49, "note_on_time": 49.97, "note_off_time": 50.53}, {"pitch": 77, "velocity": 49, "note_on_time": 50.544, "note_off_time": 51.137}, {"pitch": 79, "velocity": 51, "note_on_time": 51.158, "note_off_time": 51.714}, {"pitch": 74, "velocity": 46, "note_on_time": 51.741, "note_off_time": 52.304}, {"pitch": 72, "velocity": 36, "note_on_time": 52.329, "note_off_time": 53.014}, {"pitch": 76, "velocity": 48, "note_on_time": 53.585, "note_off_time": 54.143}, {"pitch": 77, "velocity": 48, "note_on_time": 54.169, "note_off_time": 54.83}, {"pitch": 79, "velocity": 42, "note_on_time": 54.846, "note_off_time": 55.416}, {"pitch": 74, "velocity": 36, "note_on_time": 55.47, "note_off_time": 56.012}, {"pitch": 72, "velocity": 34, "note_on_time": 56.058, "note_off_time": 56.799}, {"pitch": 76, "velocity": 46, "note_on_time": 57.28, "note_off_time": 57.88}, {"pitch": 77, "velocity": 45, "note_on_time": 57.905, "note_off_time": 58.469}, {"pitch": 79, "velocity": 47, "note_on_time": 58.529, "note_off_time": 59.073}, {"pitch": 74, "velocity": 47, "note_on_time": 59.1, "note_off_time": 59.703}, {"pitch": 72, "velocity": 37, "note_on_time": 59.72, "note_off_time": 60.573}, {"pitch": 76, "velocity": 46, "note_on_time": 60.962, "note_off_time": 61.522}, {"pitch": 74, "velocity": 45, "note_on_time": 61.543, "note_off_time": 62.144}, {"pitch": 72, "velocity": 35, "note_on_time": 62.183, "note_off_time": 62.76}, {"pitch": 77, "velocity": 53, "note_on_time": 62.76, "note_off_time": 63.376}, {"pitch": 79, "velocity": 44, "note_on_time": 63.41, "note_off_time": 64.259}, {"pitch": 76, "velocity": 46, "note_on_time": 64.631, "note_off_time": 65.187}, {"pitch": 74, "velocity": 25, "note_on_time": 65.243, "note_off_time": 65.763}, {"pitch": 72, "velocity": 40, "note_on_time": 65.825, "note_off_time": 66.399}, {"pitch": 77, "velocity": 49, "note_on_time": 66.42, "note_off_time": 67.02}, {"pitch": 79, "velocity": 49, "note_on_time": 67.044, "note_off_time": 67.879}, {"pitch": 76, "velocity": 40, "note_on_time": 68.289, "note_off_time": 68.878}, {"pitch": 74, "velocity": 26, "note_on_time": 68.914, "note_off_time": 69.464}, {"pitch": 72, "velocity": 39, "note_on_time": 69.477, "note_off_time": 70.084}, {"pitch": 77, "velocity": 54, "note_on_time": 70.079, "note_off_time": 70.682}, {"pitch": 79, "velocity": 40, "note_on_time": 70.745, "note_off_time": 71.602}, {"pitch": 76, "velocity": 47, "note_on_time": 71.9, "note_off_time": 72.457}, {"pitch": 74, "velocity": 38, "note_on_time": 72.487, "note_off_time": 73.074}, {"pitch": 72, "velocity": 36, "note_on_time": 73.11, "note_off_time": 73.704}, {"pitch": 77, "velocity": 48, "note_on_time": 73.712, "note_off_time": 74.308}, {"pitch": 79, "velocity": 41, "note_on_time": 74.347, "note_off_time": 75.288}, {"pitch": 77, "velocity": 58, "note_on_time": 75.528, "note_off_time": 76.131}, {"pitch": 79, "velocity": 49, "note_on_time": 76.142, "note_off_time": 76.724}, {"pitch": 76, "velocity": 45, "note_on_time": 76.733, "note_off_time": 77.3}, {"pitch": 74, "velocity": 27, "note_on_time": 77.353, "note_off_time": 77.971}, {"pitch": 72, "velocity": 36, "note_on_time": 77.997, "note_off_time": 78.891}, {"pitch": 77, "velocity": 56, "note_on_time": 79.191, "note_off_time": 79.759}, {"pitch": 79, "velocity": 42, "note_on_time": 79.78, "note_off_time": 80.367}, {"pitch": 76, "velocity": 47, "note_on_time": 80.384, "note_off_time": 80.932}, {"pitch": 74, "velocity": 41, "note_on_time": 80.975, "note_off_time": 81.594}, {"pitch": 72, "velocity": 34, "note_on_time": 81.622, "note_off_time": 82.474}, {"pitch": 77, "velocity": 53, "note_on_time": 82.857, "note_off_time": 83.431}, {"pitch": 79, "velocity": 51, "note_on_time": 83.452, "note_off_time": 84.039}, {"pitch": 76, "velocity": 40, "note_on_time": 84.055, "note_off_time": 84.628}, {"pitch": 74, "velocity": 47, "note_on_time": 84.661, "note_off_time": 85.273}, {"pitch": 72, "velocity": 41, "note_on_time": 85.326, "note_off_time": 86.174}, {"pitch": 77, "velocity": 48, "note_on_time": 86.556, "note_off_time": 87.108}, {"pitch": 79, "velocity": 42, "note_on_time": 87.138, "note_off_time": 87.706}, {"pitch": 76, "velocity": 41, "note_on_time": 87.743, "note_off_time": 88.257}, {"pitch": 74, "velocity": 49, "note_on_time": 88.301, "note_off_time": 88.893}, {"pitch": 72, "velocity": 37, "note_on_time": 88.93, "note_off_time": 89.796}, {"pitch": 77, "velocity": 41, "note_on_time": 90.201, "note_off_time": 90.687}, {"pitch": 79, "velocity": 44, "note_on_time": 90.777, "note_off_time": 91.357}, {"pitch": 76, "velocity": 35, "note_on_time": 91.39, "note_off_time": 91.93}, {"pitch": 74, "velocity": 29, "note_on_time": 91.991, "note_off_time": 92.553}, {"pitch": 72, "velocity": 32, "note_on_time": 92.573, "note_off_time": 93.424}, {"pitch": 74, "velocity": 50, "note_on_time": 93.841, "note_off_time": 94.424}, {"pitch": 72, "velocity": 46, "note_on_time": 94.452, "note_off_time": 95.063}, {"pitch": 76, "velocity": 48, "note_on_time": 95.069, "note_off_time": 95.683}, {"pitch": 77, "velocity": 48, "note_on_time": 95.686, "note_off_time": 96.276}, {"pitch": 79, "velocity": 54, "note_on_time": 96.295, "note_off_time": 97.117}, {"pitch": 74, "velocity": 41, "note_on_time": 97.482, "note_off_time": 98.049}, {"pitch": 72, "velocity": 40, "note_on_time": 98.072, "note_off_time": 98.69}, {"pitch": 76, "velocity": 49, "note_on_time": 98.699, "note_off_time": 99.302}, {"pitch": 77, "velocity": 41, "note_on_time": 99.297, "note_off_time": 99.879}, {"pitch": 79, "velocity": 49, "note_on_time": 99.894, "note_off_time": 100.636}, {"pitch": 74, "velocity": 34, "note_on_time": 101.141, "note_off_time": 101.683}, {"pitch": 72, "velocity": 38, "note_on_time": 101.72, "note_off_time": 102.329}, {"pitch": 76, "velocity": 48, "note_on_time": 102.326, "note_off_time": 102.907}, {"pitch": 77, "velocity": 51, "note_on_time": 102.915, "note_off_time": 103.53}, {"pitch": 79, "velocity": 46, "note_on_time": 103.547, "note_off_time": 104.375}, {"pitch": 74, "velocity": 31, "note_on_time": 104.786, "note_off_time": 105.395}, {"pitch": 72, "velocity": 30, "note_on_time": 105.405, "note_off_time": 105.985}, {"pitch": 76, "velocity": 46, "note_on_time": 106.0, "note_off_time": 106.601}, {"pitch": 77, "velocity": 49, "note_on_time": 106.628, "note_off_time": 107.207}, {"pitch": 79, "velocity": 41, "note_on_time": 107.219, "note_off_time": 107.946}, {"pitch": 72, "velocity": 27, "note_on_time": 108.432, "note_off_time": 109.008}, {"pitch": 74, "velocity": 18, "note_on_time": 109.061, "note_off_time": 109.637}, {"pitch": 76, "velocity": 44, "note_on_time": 109.623, "note_off_time": 110.205}, {"pitch": 77, "velocity": 33, "note_on_time": 110.223, "note_off_time": 110.856}, {"pitch": 79, "velocity": 52, "note_on_time": 110.813, "note_off_time": 111.597}, {"pitch": 72, "velocity": 37, "note_on_time": 112.044, "note_off_time": 112.65}, {"pitch": 74, "velocity": 55, "note_on_time": 112.665, "note_off_time": 113.226}, {"pitch": 76, "velocity": 39, "note_on_time": 113.24, "note_off_time": 113.827}, {"pitch": 77, "velocity": 41, "note_on_time": 113.839, "note_off_time": 114.465}, {"pitch": 79, "velocity": 42, "note_on_time": 114.477, "note_off_time": 115.229}, {"pitch": 72, "velocity": 33, "note_on_time": 115.681, "note_off_time": 116.264}, {"pitch": 74, "velocity": 32, "note_on_time": 116.286, "note_off_time": 116.884}, {"pitch": 76, "velocity": 45, "note_on_time": 116.871, "note_off_time": 117.463}, {"pitch": 77, "velocity": 42, "note_on_time": 117.476, "note_off_time": 118.102}, {"pitch": 79, "velocity": 44, "note_on_time": 118.114, "note_off_time": 118.896}, {"pitch": 72, "velocity": 36, "note_on_time": 119.32, "note_off_time": 119.864}, {"pitch": 74, "velocity": 45, "note_on_time": 119.9, "note_off_time": 120.52}, {"pitch": 76, "velocity": 43, "note_on_time": 120.521, "note_off_time": 121.11}, {"pitch": 77, "velocity": 52, "note_on_time": 121.117, "note_off_time": 121.725}, {"pitch": 79, "velocity": 39, "note_on_time": 121.74, "note_off_time": 122.536}, {"pitch": 79, "velocity": 56, "note_on_time": 122.976, "note_off_time": 123.541}, {"pitch": 77, "velocity": 51, "note_on_time": 123.536, "note_off_time": 124.255}, {"pitch": 76, "velocity": 50, "note_on_time": 124.18, "note_off_time": 124.793}, {"pitch": 74, "velocity": 48, "note_on_time": 124.791, "note_off_time": 125.417}, {"pitch": 72, "velocity": 38, "note_on_time": 125.441, "note_off_time": 126.202}, {"pitch": 79, "velocity": 42, "note_on_time": 126.675, "note_off_time": 127.265}, {"pitch": 77, "velocity": 51, "note_on_time": 127.273, "note_off_time": 127.833}, {"pitch": 76, "velocity": 47, "note_on_time": 127.85, "note_off_time": 128.435}, {"pitch": 74, "velocity": 43, "note_on_time": 128.447, "note_off_time": 129.026}, {"pitch": 72, "velocity": 36, "note_on_time": 129.061, "note_off_time": 129.803}, {"pitch": 79, "velocity": 52, "note_on_time": 130.304, "note_off_time": 130.9}, {"pitch": 77, "velocity": 46, "note_on_time": 130.924, "note_off_time": 131.498}, {"pitch": 76, "velocity": 47, "note_on_time": 131.516, "note_off_time": 132.084}, {"pitch": 74, "velocity": 37, "note_on_time": 132.1, "note_off_time": 132.699}, {"pitch": 72, "velocity": 39, "note_on_time": 132.718, "note_off_time": 133.418}, {"pitch": 79, "velocity": 44, "note_on_time": 133.956, "note_off_time": 134.526}, {"pitch": 77, "velocity": 42, "note_on_time": 134.542, "note_off_time": 135.089}, {"pitch": 76, "velocity": 51, "note_on_time": 135.108, "note_off_time": 135.707}, {"pitch": 74, "velocity": 27, "note_on_time": 135.735, "note_off_time": 136.322}, {"pitch": 72, "velocity": 31, "note_on_time": 136.349, "note_off_time": 137.17}, {"pitch": 74, "velocity": 41, "note_on_time": 137.576, "note_off_time": 138.193}, {"pitch": 76, "velocity": 40, "note_on_time": 138.183, "note_off_time": 138.822}, {"pitch": 77, "velocity": 46, "note_on_time": 138.823, "note_off_time": 139.408}, {"pitch": 79, "velocity": 48, "note_on_time": 139.389, "note_off_time": 139.95}, {"pitch": 72, "velocity": 41, "note_on_time": 139.989, "note_off_time": 140.839}, {"pitch": 74, "velocity": 40, "note_on_time": 141.223, "note_off_time": 141.876}, {"pitch": 76, "velocity": 46, "note_on_time": 141.846, "note_off_time": 142.448}, {"pitch": 77, "velocity": 50, "note_on_time": 142.458, "note_off_time": 143.043}, {"pitch": 79, "velocity": 43, "note_on_time": 143.067, "note_off_time": 143.628}, {"pitch": 72, "velocity": 27, "note_on_time": 143.681, "note_off_time": 144.462}, {"pitch": 74, "velocity": 51, "note_on_time": 144.874, "note_off_time": 145.409}, {"pitch": 76, "velocity": 38, "note_on_time": 145.411, "note_off_time": 146.109}, {"pitch": 77, "velocity": 47, "note_on_time": 146.114, "note_off_time": 146.749}, {"pitch": 79, "velocity": 51, "note_on_time": 146.743, "note_off_time": 147.307}, {"pitch": 72, "velocity": 39, "note_on_time": 147.357, "note_off_time": 148.182}, {"pitch": 74, "velocity": 46, "note_on_time": 148.556, "note_off_time": 149.202}, {"pitch": 76, "velocity": 46, "note_on_time": 149.155, "note_off_time": 149.773}, {"pitch": 77, "velocity": 43, "note_on_time": 149.788, "note_off_time": 150.383}, {"pitch": 79, "velocity": 50, "note_on_time": 150.386, "note_off_time": 150.934}, {"pitch": 72, "velocity": 38, "note_on_time": 150.984, "note_off_time": 151.803}, {"pitch": 77, "velocity": 50, "note_on_time": 152.186, "note_off_time": 152.751}, {"pitch": 76, "velocity": 39, "note_on_time": 152.76, "note_off_time": 153.387}, {"pitch": 74, "velocity": 41, "note_on_time": 153.402, "note_off_time": 154.022}, {"pitch": 72, "velocity": 44, "note_on_time": 154.019, "note_off_time": 154.6}, {"pitch": 79, "velocity": 49, "note_on_time": 154.628, "note_off_time": 155.492}, {"pitch": 77, "velocity": 48, "note_on_time": 155.889, "note_off_time": 156.502}, {"pitch": 76, "velocity": 45, "note_on_time": 156.478, "note_off_time": 157.047}, {"pitch": 74, "velocity": 48, "note_on_time": 157.061, "note_off_time": 157.655}, {"pitch": 72, "velocity": 48, "note_on_time": 157.655, "note_off_time": 158.281}, {"pitch": 79, "velocity": 51, "note_on_time": 158.303, "note_off_time": 159.052}, {"pitch": 77, "velocity": 49, "note_on_time": 159.534, "note_off_time": 160.143}, {"pitch": 76, "velocity": 47, "note_on_time": 160.146, "note_off_time": 160.793}, {"pitch": 74, "velocity": 23, "note_on_time": 160.811, "note_off_time": 161.347}, {"pitch": 72, "velocity": 39, "note_on_time": 161.337, "note_off_time": 161.952}, {"pitch": 79, "velocity": 58, "note_on_time": 161.975, "note_off_time": 162.938}, {"pitch": 77, "velocity": 52, "note_on_time": 163.194, "note_off_time": 163.765}, {"pitch": 76, "velocity": 42, "note_on_time": 163.76, "note_off_time": 164.385}, {"pitch": 74, "velocity": 41, "note_on_time": 164.389, "note_off_time": 164.985}, {"pitch": 72, "velocity": 37, "note_on_time": 164.99, "note_off_time": 165.559}, {"pitch": 79, "velocity": 42, "note_on_time": 165.61, "note_off_time": 166.513}, {"pitch": 76, "velocity": 36, "note_on_time": 166.852, "note_off_time": 167.442}, {"pitch": 77, "velocity": 31, "note_on_time": 167.458, "note_off_time": 168.048}, {"pitch": 79, "velocity": 52, "note_on_time": 168.039, "note_off_time": 168.58}, {"pitch": 74, "velocity": 52, "note_on_time": 168.593, "note_off_time": 169.223}, {"pitch": 72, "velocity": 38, "note_on_time": 169.239, "note_off_time": 170.025}, {"pitch": 76, "velocity": 52, "note_on_time": 170.468, "note_off_time": 171.054}, {"pitch": 77, "velocity": 48, "note_on_time": 171.052, "note_off_time": 171.678}, {"pitch": 79, "velocity": 37, "note_on_time": 171.686, "note_off_time": 172.258}, {"pitch": 74, "velocity": 39, "note_on_time": 172.255, "note_off_time": 172.873}, {"pitch": 72, "velocity": 42, "note_on_time": 172.875, "note_off_time": 173.706}, {"pitch": 76, "velocity": 46, "note_on_time": 174.106, "note_off_time": 174.672}, {"pitch": 77, "velocity": 40, "note_on_time": 174.686, "note_off_time": 175.339}, {"pitch": 79, "velocity": 44, "note_on_time": 175.356, "note_off_time": 175.967}, {"pitch": 74, "velocity": 39, "note_on_time": 175.966, "note_off_time": 176.544}, {"pitch": 72, "velocity": 42, "note_on_time": 176.572, "note_off_time": 177.308}, {"pitch": 76, "velocity": 49, "note_on_time": 177.794, "note_off_time": 178.398}, {"pitch": 77, "velocity": 45, "note_on_time": 178.407, "note_off_time": 178.989}, {"pitch": 79, "velocity": 37, "note_on_time": 179.041, "note_off_time": 179.602}, {"pitch": 74, "velocity": 44, "note_on_time": 179.608, "note_off_time": 180.212}, {"pitch": 72, "velocity": 38, "note_on_time": 180.23, "note_off_time": 181.061}, {"pitch": 76, "velocity": 44, "note_on_time": 181.439, "note_off_time": 182.022}, {"pitch": 77, "velocity": 35, "note_on_time": 182.054, "note_off_time": 182.689}, {"pitch": 79, "velocity": 45, "note_on_time": 182.661, "note_off_time": 183.226}, {"pitch": 74, "velocity": 37, "note_on_time": 183.254, "note_off_time": 183.859}, {"pitch": 72, "velocity": 36, "note_on_time": 183.88, "note_off_time": 184.661}, {"pitch": 76, "velocity": 53, "note_on_time": 185.087, "note_off_time": 185.72}, {"pitch": 74, "velocity": 45, "note_on_time": 185.715, "note_off_time": 186.326}, {"pitch": 72, "velocity": 42, "note_on_time": 186.34, "note_off_time": 186.907}, {"pitch": 77, "velocity": 58, "note_on_time": 186.896, "note_off_time": 187.53}, {"pitch": 79, "velocity": 53, "note_on_time": 187.526, "note_off_time": 188.251}, {"pitch": 76, "velocity": 49, "note_on_time": 188.753, "note_off_time": 189.348}, {"pitch": 74, "velocity": 44, "note_on_time": 189.341, "note_off_time": 189.96}, {"pitch": 72, "velocity": 40, "note_on_time": 189.947, "note_off_time": 190.545}, {"pitch": 77, "velocity": 55, "note_on_time": 190.533, "note_off_time": 191.17}, {"pitch": 79, "velocity": 41, "note_on_time": 191.179, "note_off_time": 191.875}, {"pitch": 76, "velocity": 50, "note_on_time": 192.382, "note_off_time": 193.002}, {"pitch": 74, "velocity": 38, "note_on_time": 193.0, "note_off_time": 193.575}, {"pitch": 72, "velocity": 26, "note_on_time": 193.615, "note_off_time": 194.239}]</notes><guidance name="Guidance Mode">None</guidance><error name="Error value">99</error></trial></trials></MIDI>