<MIDI midiNo="2024_02_26-15_40_56"><target_notes><notes name="Note List">[{"pitch": 60, "velocity": 40, "note_on_time": 0.009, "note_off_time": 1.019}, {"pitch": 64, "velocity": 40, "note_on_time": 0.01, "note_off_time": 1.02}, {"pitch": 67, "velocity": 40, "note_on_time": 0.01, "note_off_time": 1.02}, {"pitch": 48, "velocity": 40, "note_on_time": 0.01, "note_off_time": 1.021}, {"pitch": 52, "velocity": 40, "note_on_time": 1.021, "note_off_time": 2.036}, {"pitch": 55, "velocity": 40, "note_on_time": 1.021, "note_off_time": 2.037}, {"pitch": 77, "velocity": 40, "note_on_time": 2.036, "note_off_time": 3.039}, {"pitch": 48, "velocity": 40, "note_on_time": 2.037, "note_off_time": 3.039}, {"pitch": 52, "velocity": 40, "note_on_time": 3.039, "note_off_time": 4.042}, {"pitch": 55, "velocity": 40, "note_on_time": 3.039, "note_off_time": 4.042}, {"pitch": 48, "velocity": 40, "note_on_time": 4.042, "note_off_time": 5.044}, {"pitch": 52, "velocity": 40, "note_on_time": 5.044, "note_off_time": 6.045}, {"pitch": 55, "velocity": 40, "note_on_time": 5.044, "note_off_time": 6.045}, {"pitch": 48, "velocity": 40, "note_on_time": 6.045, "note_off_time": 7.055}, {"pitch": 52, "velocity": 40, "note_on_time": 7.055, "note_off_time": 8.057}, {"pitch": 55, "velocity": 40, "note_on_time": 7.055, "note_off_time": 8.057}, {"pitch": 60, "velocity": 40, "note_on_time": 8.056, "note_off_time": 9.059}, {"pitch": 64, "velocity": 40, "note_on_time": 8.057, "note_off_time": 9.061}, {"pitch": 67, "velocity": 40, "note_on_time": 8.057, "note_off_time": 9.061}, {"pitch": 48, "velocity": 40, "note_on_time": 8.057, "note_off_time": 9.061}, {"pitch": 52, "velocity": 40, "note_on_time": 9.061, "note_off_time": 10.068}, {"pitch": 55, "velocity": 40, "note_on_time": 9.061, "note_off_time": 10.068}, {"pitch": 72, "velocity": 40, "note_on_time": 10.067, "note_off_time": 11.08}, {"pitch": 48, "velocity": 40, "note_on_time": 10.068, "note_off_time": 11.081}, {"pitch": 52, "velocity": 40, "note_on_time": 11.081, "note_off_time": 12.084}, {"pitch": 55, "velocity": 40, "note_on_time": 11.081, "note_off_time": 12.084}, {"pitch": 48, "velocity": 40, "note_on_time": 12.084, "note_off_time": 13.093}, {"pitch": 52, "velocity": 40, "note_on_time": 13.093, "note_off_time": 14.098}, {"pitch": 55, "velocity": 40, "note_on_time": 13.093, "note_off_time": 14.098}, {"pitch": 48, "velocity": 40, "note_on_time": 14.098, "note_off_time": 15.101}, {"pitch": 52, "velocity": 40, "note_on_time": 15.101, "note_off_time": 16.11}, {"pitch": 55, "velocity": 40, "note_on_time": 15.101, "note_off_time": 16.11}, {"pitch": 60, "velocity": 40, "note_on_time": 16.108, "note_off_time": 17.122}, {"pitch": 64, "velocity": 40, "note_on_time": 16.109, "note_off_time": 17.122}, {"pitch": 67, "velocity": 40, "note_on_time": 16.109, "note_off_time": 17.124}, {"pitch": 48, "velocity": 40, "note_on_time": 16.11, "note_off_time": 17.124}, {"pitch": 52, "velocity": 40, "note_on_time": 17.124, "note_off_time": 18.134}, {"pitch": 55, "velocity": 40, "note_on_time": 17.124, "note_off_time": 18.134}, {"pitch": 76, "velocity": 40, "note_on_time": 18.134, "note_off_time": 19.146}, {"pitch": 48, "velocity": 40, "note_on_time": 18.134, "note_off_time": 19.147}, {"pitch": 52, "velocity": 40, "note_on_time": 19.147, "note_off_time": 20.163}, {"pitch": 55, "velocity": 40, "note_on_time": 19.147, "note_off_time": 20.163}, {"pitch": 48, "velocity": 40, "note_on_time": 20.163, "note_off_time": 21.165}, {"pitch": 52, "velocity": 40, "note_on_time": 21.165, "note_off_time": 22.177}, {"pitch": 55, "velocity": 40, "note_on_time": 21.165, "note_off_time": 22.177}, {"pitch": 48, "velocity": 40, "note_on_time": 22.177, "note_off_time": 23.18}, {"pitch": 52, "velocity": 40, "note_on_time": 23.18, "note_off_time": 24.191}, {"pitch": 55, "velocity": 40, "note_on_time": 23.18, "note_off_time": 24.191}, {"pitch": 60, "velocity": 40, "note_on_time": 24.19, "note_off_time": 25.206}, {"pitch": 64, "velocity": 40, "note_on_time": 24.19, "note_off_time": 25.207}, {"pitch": 67, "velocity": 40, "note_on_time": 24.191, "note_off_time": 25.208}, {"pitch": 48, "velocity": 40, "note_on_time": 24.191, "note_off_time": 25.208}, {"pitch": 52, "velocity": 40, "note_on_time": 25.208, "note_off_time": 26.223}, {"pitch": 55, "velocity": 40, "note_on_time": 25.208, "note_off_time": 26.223}, {"pitch": 79, "velocity": 40, "note_on_time": 26.222, "note_off_time": 27.23}, {"pitch": 48, "velocity": 40, "note_on_time": 26.223, "note_off_time": 27.23}, {"pitch": 52, "velocity": 40, "note_on_time": 27.23, "note_off_time": 28.233}, {"pitch": 55, "velocity": 40, "note_on_time": 27.23, "note_off_time": 28.233}, {"pitch": 48, "velocity": 40, "note_on_time": 28.233, "note_off_time": 29.242}, {"pitch": 52, "velocity": 40, "note_on_time": 29.242, "note_off_time": 30.248}, {"pitch": 55, "velocity": 40, "note_on_time": 29.242, "note_off_time": 30.248}, {"pitch": 48, "velocity": 40, "note_on_time": 30.248, "note_off_time": 31.259}, {"pitch": 52, "velocity": 40, "note_on_time": 31.259, "note_off_time": 32.262}, {"pitch": 55, "velocity": 40, "note_on_time": 31.259, "note_off_time": 32.262}, {"pitch": 60, "velocity": 40, "note_on_time": 32.26, "note_off_time": 33.277}, {"pitch": 64, "velocity": 40, "note_on_time": 32.261, "note_off_time": 33.278}, {"pitch": 67, "velocity": 40, "note_on_time": 32.261, "note_off_time": 33.279}, {"pitch": 48, "velocity": 40, "note_on_time": 32.262, "note_off_time": 33.279}, {"pitch": 52, "velocity": 40, "note_on_time": 33.279, "note_off_time": 34.286}, {"pitch": 55, "velocity": 40, "note_on_time": 33.279, "note_off_time": 34.286}, {"pitch": 77, "velocity": 40, "note_on_time": 34.286, "note_off_time": 35.294}, {"pitch": 48, "velocity": 40, "note_on_time": 34.286, "note_off_time": 35.294}, {"pitch": 52, "velocity": 40, "note_on_time": 35.294, "note_off_time": 36.302}, {"pitch": 55, "velocity": 40, "note_on_time": 35.294, "note_off_time": 36.302}, {"pitch": 48, "velocity": 40, "note_on_time": 36.302, "note_off_time": 37.314}, {"pitch": 52, "velocity": 40, "note_on_time": 37.314, "note_off_time": 38.33}, {"pitch": 55, "velocity": 40, "note_on_time": 37.314, "note_off_time": 38.33}, {"pitch": 48, "velocity": 40, "note_on_time": 38.33, "note_off_time": 39.335}, {"pitch": 52, "velocity": 40, "note_on_time": 39.335, "note_off_time": 40.338}, {"pitch": 55, "velocity": 40, "note_on_time": 39.335, "note_off_time": 40.338}, {"pitch": 60, "velocity": 40, "note_on_time": 40.337, "note_off_time": 41.346}, {"pitch": 64, "velocity": 40, "note_on_time": 40.338, "note_off_time": 41.346}, {"pitch": 67, "velocity": 40, "note_on_time": 40.338, "note_off_time": 41.347}, {"pitch": 72, "velocity": 40, "note_on_time": 42.361, "note_off_time": 43.362}, {"pitch": 60, "velocity": 40, "note_on_time": 48.376, "note_off_time": 49.39}, {"pitch": 64, "velocity": 40, "note_on_time": 48.377, "note_off_time": 49.391}, {"pitch": 67, "velocity": 40, "note_on_time": 48.377, "note_off_time": 49.392}, {"pitch": 76, "velocity": 40, "note_on_time": 50.407, "note_off_time": 51.413}, {"pitch": 60, "velocity": 40, "note_on_time": 56.414, "note_off_time": 57.429}, {"pitch": 64, "velocity": 40, "note_on_time": 56.414, "note_off_time": 57.429}, {"pitch": 67, "velocity": 40, "note_on_time": 56.415, "note_off_time": 57.43}, {"pitch": 79, "velocity": 40, "note_on_time": 58.444, "note_off_time": 59.46}, {"pitch": 60, "velocity": 40, "note_on_time": 64.471, "note_off_time": 65.484}, {"pitch": 64, "velocity": 40, "note_on_time": 64.472, "note_off_time": 65.485}, {"pitch": 67, "velocity": 40, "note_on_time": 64.473, "note_off_time": 65.486}, {"pitch": 74, "velocity": 40, "note_on_time": 66.492, "note_off_time": 67.495}, {"pitch": 60, "velocity": 40, "note_on_time": 72.498, "note_off_time": 73.51}, {"pitch": 64, "velocity": 40, "note_on_time": 72.499, "note_off_time": 73.511}, {"pitch": 67, "velocity": 40, "note_on_time": 72.499, "note_off_time": 73.511}, {"pitch": 79, "velocity": 40, "note_on_time": 74.527, "note_off_time": 75.537}, {"pitch": 60, "velocity": 40, "note_on_time": 80.548, "note_off_time": 81.564}, {"pitch": 64, "velocity": 40, "note_on_time": 80.549, "note_off_time": 81.564}, {"pitch": 67, "velocity": 40, "note_on_time": 80.549, "note_off_time": 81.565}, {"pitch": 74, "velocity": 40, "note_on_time": 82.566, "note_off_time": 83.582}, {"pitch": 60, "velocity": 40, "note_on_time": 88.589, "note_off_time": 89.592}, {"pitch": 64, "velocity": 40, "note_on_time": 88.59, "note_off_time": 89.593}, {"pitch": 67, "velocity": 40, "note_on_time": 88.59, "note_off_time": 89.593}, {"pitch": 77, "velocity": 40, "note_on_time": 90.607, "note_off_time": 91.621}, {"pitch": 60, "velocity": 40, "note_on_time": 96.623, "note_off_time": 97.64}, {"pitch": 64, "velocity": 40, "note_on_time": 96.624, "note_off_time": 97.64}, {"pitch": 67, "velocity": 40, "note_on_time": 96.625, "note_off_time": 97.64}, {"pitch": 74, "velocity": 40, "note_on_time": 98.646, "note_off_time": 99.654}, {"pitch": 60, "velocity": 40, "note_on_time": 104.656, "note_off_time": 105.672}, {"pitch": 64, "velocity": 40, "note_on_time": 104.657, "note_off_time": 105.673}, {"pitch": 67, "velocity": 40, "note_on_time": 104.658, "note_off_time": 105.673}, {"pitch": 72, "velocity": 40, "note_on_time": 106.681, "note_off_time": 107.682}, {"pitch": 60, "velocity": 40, "note_on_time": 112.686, "note_off_time": 113.701}, {"pitch": 64, "velocity": 40, "note_on_time": 112.687, "note_off_time": 113.702}, {"pitch": 67, "velocity": 40, "note_on_time": 112.687, "note_off_time": 113.702}, {"pitch": 79, "velocity": 40, "note_on_time": 114.706, "note_off_time": 115.709}, {"pitch": 60, "velocity": 40, "note_on_time": 120.715, "note_off_time": 121.724}, {"pitch": 64, "velocity": 40, "note_on_time": 120.716, "note_off_time": 121.724}, {"pitch": 67, "velocity": 40, "note_on_time": 120.716, "note_off_time": 121.725}, {"pitch": 76, "velocity": 40, "note_on_time": 122.738, "note_off_time": 123.739}, {"pitch": 60, "velocity": 40, "note_on_time": 128.74, "note_off_time": 129.747}, {"pitch": 64, "velocity": 40, "note_on_time": 128.742, "note_off_time": 129.748}, {"pitch": 67, "velocity": 40, "note_on_time": 128.742, "note_off_time": 129.749}, {"pitch": 74, "velocity": 40, "note_on_time": 130.752, "note_off_time": 131.754}, {"pitch": 60, "velocity": 40, "note_on_time": 136.763, "note_off_time": 137.778}, {"pitch": 64, "velocity": 40, "note_on_time": 136.764, "note_off_time": 137.779}, {"pitch": 67, "velocity": 40, "note_on_time": 136.764, "note_off_time": 137.779}, {"pitch": 72, "velocity": 40, "note_on_time": 138.781, "note_off_time": 139.782}, {"pitch": 60, "velocity": 40, "note_on_time": 144.794, "note_off_time": 145.803}, {"pitch": 64, "velocity": 40, "note_on_time": 144.795, "note_off_time": 145.804}, {"pitch": 67, "velocity": 40, "note_on_time": 144.795, "note_off_time": 145.804}, {"pitch": 77, "velocity": 40, "note_on_time": 146.809, "note_off_time": 147.823}, {"pitch": 60, "velocity": 40, "note_on_time": 152.829, "note_off_time": 153.839}, {"pitch": 64, "velocity": 40, "note_on_time": 152.83, "note_off_time": 153.84}, {"pitch": 67, "velocity": 40, "note_on_time": 152.83, "note_off_time": 153.841}, {"pitch": 76, "velocity": 40, "note_on_time": 154.841, "note_off_time": 155.856}, {"pitch": 60, "velocity": 40, "note_on_time": 160.863, "note_off_time": 161.869}, {"pitch": 64, "velocity": 40, "note_on_time": 160.864, "note_off_time": 161.87}, {"pitch": 67, "velocity": 40, "note_on_time": 160.864, "note_off_time": 161.871}, {"pitch": 77, "velocity": 40, "note_on_time": 162.884, "note_off_time": 163.885}]</notes><options name="Option List">((4, 4), [0.5, 0.25], 3, 8, &lt;NoteRangePerHand.TWO_NOTES: 3&gt;, &lt;NoteRangePerHand.ONE_NOTE: 2&gt;, False, True, True, 100)</options></target_notes><trials><trial trial_no="1" timestamp="2024_02_26-15_38_12"><notes name="Played Notes">[{"pitch": 79, "velocity": 39, "note_on_time": 2.873, "note_off_time": 3.494}, {"pitch": 74, "velocity": 23, "note_on_time": 11.511, "note_off_time": 12.1}, {"pitch": 77, "velocity": 1, "note_on_time": 14.624, "note_off_time": 15.397}, {"pitch": 76, "velocity": 5, "note_on_time": 15.781, "note_off_time": 16.368}, {"pitch": 74, "velocity": 70, "note_on_time": 19.525, "note_off_time": 20.055}, {"pitch": 72, "velocity": 42, "note_on_time": 20.481, "note_off_time": 20.895}, {"pitch": 76, "velocity": 31, "note_on_time": 21.296, "note_off_time": 21.764}, {"pitch": 76, "velocity": 41, "note_on_time": 22.063, "note_off_time": 22.154}, {"pitch": 74, "velocity": 69, "note_on_time": 28.62, "note_off_time": 29.175}, {"pitch": 79, "velocity": 57, "note_on_time": 30.737, "note_off_time": 31.19}, {"pitch": 77, "velocity": 23, "note_on_time": 36.701, "note_off_time": 37.236}, {"pitch": 74, "velocity": 55, "note_on_time": 43.561, "note_off_time": 44.2}, {"pitch": 72, "velocity": 20, "note_on_time": 44.307, "note_off_time": 44.748}, {"pitch": 72, "velocity": 32, "note_on_time": 45.041, "note_off_time": 45.519}, {"pitch": 72, "velocity": 33, "note_on_time": 46.145, "note_off_time": 46.319}, {"pitch": 74, "velocity": 61, "note_on_time": 51.805, "note_off_time": 52.36}, {"pitch": 76, "velocity": 37, "note_on_time": 52.323, "note_off_time": 52.829}, {"pitch": 76, "velocity": 8, "note_on_time": 53.459, "note_off_time": 53.814}, {"pitch": 72, "velocity": 26, "note_on_time": 55.465, "note_off_time": 55.669}, {"pitch": 74, "velocity": 44, "note_on_time": 56.458, "note_off_time": 56.722}, {"pitch": 74, "velocity": 68, "note_on_time": 60.613, "note_off_time": 61.198}, {"pitch": 76, "velocity": 9, "note_on_time": 61.332, "note_off_time": 61.698}, {"pitch": 77, "velocity": 33, "note_on_time": 61.946, "note_off_time": 62.319}, {"pitch": 79, "velocity": 27, "note_on_time": 62.572, "note_off_time": 63.04}, {"pitch": 72, "velocity": 27, "note_on_time": 63.4, "note_off_time": 63.823}, {"pitch": 79, "velocity": 1, "note_on_time": 64.208, "note_off_time": 64.835}, {"pitch": 74, "velocity": 64, "note_on_time": 68.574, "note_off_time": 69.224}, {"pitch": 72, "velocity": 73, "note_on_time": 76.136, "note_off_time": 76.715}, {"pitch": 76, "velocity": 46, "note_on_time": 77.269, "note_off_time": 77.847}, {"pitch": 74, "velocity": 47, "note_on_time": 77.837, "note_off_time": 78.209}, {"pitch": 77, "velocity": 12, "note_on_time": 78.58, "note_off_time": 79.128}, {"pitch": 79, "velocity": 20, "note_on_time": 79.459, "note_off_time": 80.638}, {"pitch": 77, "velocity": 76, "note_on_time": 84.497, "note_off_time": 85.17}, {"pitch": 79, "velocity": 45, "note_on_time": 86.137, "note_off_time": 86.632}, {"pitch": 76, "velocity": 28, "note_on_time": 86.833, "note_off_time": 87.324}, {"pitch": 72, "velocity": 47, "note_on_time": 87.656, "note_off_time": 88.05}, {"pitch": 72, "velocity": 51, "note_on_time": 93.012, "note_off_time": 93.489}, {"pitch": 79, "velocity": 46, "note_on_time": 94.106, "note_off_time": 94.394}, {"pitch": 74, "velocity": 1, "note_on_time": 100.146, "note_off_time": 101.054}, {"pitch": 72, "velocity": 46, "note_on_time": 108.28, "note_off_time": 109.067}, {"pitch": 79, "velocity": 45, "note_on_time": 116.074, "note_off_time": 117.006}, {"pitch": 77, "velocity": 19, "note_on_time": 124.028, "note_off_time": 124.725}, {"pitch": 76, "velocity": 38, "note_on_time": 124.775, "note_off_time": 125.7}, {"pitch": 76, "velocity": 27, "note_on_time": 125.824, "note_off_time": 126.267}, {"pitch": 77, "velocity": 23, "note_on_time": 127.534, "note_off_time": 127.981}, {"pitch": 76, "velocity": 18, "note_on_time": 128.357, "note_off_time": 129.049}, {"pitch": 74, "velocity": 46, "note_on_time": 132.397, "note_off_time": 133.358}, {"pitch": 72, "velocity": 46, "note_on_time": 140.37, "note_off_time": 141.312}, {"pitch": 76, "velocity": 1, "note_on_time": 144.057, "note_off_time": 144.431}, {"pitch": 77, "velocity": 1, "note_on_time": 144.528, "note_off_time": 145.141}, {"pitch": 79, "velocity": 14, "note_on_time": 144.956, "note_off_time": 145.326}, {"pitch": 76, "velocity": 61, "note_on_time": 148.526, "note_off_time": 149.075}, {"pitch": 77, "velocity": 31, "note_on_time": 149.214, "note_off_time": 150.262}, {"pitch": 77, "velocity": 36, "note_on_time": 150.558, "note_off_time": 150.8}, {"pitch": 76, "velocity": 53, "note_on_time": 156.575, "note_off_time": 157.43}]</notes><guidance name="Guidance Mode">None</guidance><error name="Error value">99</error></trial></trials></MIDI>