<MIDI midiNo="2024_03_04-13_17_56"><target_notes><notes name="Note List">[{"pitch": 60, "velocity": 40, "note_on_time": 0.009, "note_off_time": 1.012}, {"pitch": 64, "velocity": 40, "note_on_time": 0.009, "note_off_time": 1.013}, {"pitch": 67, "velocity": 40, "note_on_time": 0.009, "note_off_time": 1.013}, {"pitch": 48, "velocity": 40, "note_on_time": 0.01, "note_off_time": 1.014}, {"pitch": 52, "velocity": 40, "note_on_time": 1.014, "note_off_time": 2.029}, {"pitch": 55, "velocity": 40, "note_on_time": 1.014, "note_off_time": 2.029}, {"pitch": 72, "velocity": 40, "note_on_time": 2.029, "note_off_time": 3.046}, {"pitch": 48, "velocity": 40, "note_on_time": 2.029, "note_off_time": 3.047}, {"pitch": 52, "velocity": 40, "note_on_time": 3.047, "note_off_time": 4.051}, {"pitch": 55, "velocity": 40, "note_on_time": 3.047, "note_off_time": 4.051}, {"pitch": 48, "velocity": 40, "note_on_time": 4.051, "note_off_time": 5.053}, {"pitch": 52, "velocity": 40, "note_on_time": 5.053, "note_off_time": 6.058}, {"pitch": 55, "velocity": 40, "note_on_time": 5.053, "note_off_time": 6.058}, {"pitch": 48, "velocity": 40, "note_on_time": 6.058, "note_off_time": 7.065}, {"pitch": 52, "velocity": 40, "note_on_time": 7.065, "note_off_time": 8.07}, {"pitch": 55, "velocity": 40, "note_on_time": 7.065, "note_off_time": 8.07}, {"pitch": 60, "velocity": 40, "note_on_time": 8.069, "note_off_time": 9.082}, {"pitch": 64, "velocity": 40, "note_on_time": 8.069, "note_off_time": 9.083}, {"pitch": 67, "velocity": 40, "note_on_time": 8.07, "note_off_time": 9.084}, {"pitch": 48, "velocity": 40, "note_on_time": 8.07, "note_off_time": 9.084}, {"pitch": 52, "velocity": 40, "note_on_time": 9.084, "note_off_time": 10.091}, {"pitch": 55, "velocity": 40, "note_on_time": 9.084, "note_off_time": 10.091}, {"pitch": 74, "velocity": 40, "note_on_time": 10.091, "note_off_time": 11.097}, {"pitch": 48, "velocity": 40, "note_on_time": 10.091, "note_off_time": 11.097}, {"pitch": 52, "velocity": 40, "note_on_time": 11.097, "note_off_time": 12.099}, {"pitch": 55, "velocity": 40, "note_on_time": 11.097, "note_off_time": 12.099}, {"pitch": 48, "velocity": 40, "note_on_time": 12.099, "note_off_time": 13.102}, {"pitch": 52, "velocity": 40, "note_on_time": 13.102, "note_off_time": 14.107}, {"pitch": 55, "velocity": 40, "note_on_time": 13.102, "note_off_time": 14.107}, {"pitch": 48, "velocity": 40, "note_on_time": 14.107, "note_off_time": 15.122}, {"pitch": 52, "velocity": 40, "note_on_time": 15.122, "note_off_time": 16.126}, {"pitch": 55, "velocity": 40, "note_on_time": 15.122, "note_off_time": 16.126}, {"pitch": 60, "velocity": 40, "note_on_time": 16.125, "note_off_time": 17.129}, {"pitch": 64, "velocity": 40, "note_on_time": 16.126, "note_off_time": 17.129}, {"pitch": 67, "velocity": 40, "note_on_time": 16.126, "note_off_time": 17.13}, {"pitch": 48, "velocity": 40, "note_on_time": 16.126, "note_off_time": 17.13}, {"pitch": 52, "velocity": 40, "note_on_time": 17.13, "note_off_time": 18.144}, {"pitch": 55, "velocity": 40, "note_on_time": 17.13, "note_off_time": 18.144}, {"pitch": 72, "velocity": 40, "note_on_time": 18.144, "note_off_time": 19.16}, {"pitch": 48, "velocity": 40, "note_on_time": 18.144, "note_off_time": 19.16}, {"pitch": 52, "velocity": 40, "note_on_time": 19.16, "note_off_time": 20.161}, {"pitch": 55, "velocity": 40, "note_on_time": 19.16, "note_off_time": 20.161}, {"pitch": 48, "velocity": 40, "note_on_time": 20.161, "note_off_time": 21.162}, {"pitch": 52, "velocity": 40, "note_on_time": 21.162, "note_off_time": 22.171}, {"pitch": 55, "velocity": 40, "note_on_time": 21.162, "note_off_time": 22.171}, {"pitch": 48, "velocity": 40, "note_on_time": 22.171, "note_off_time": 23.185}, {"pitch": 52, "velocity": 40, "note_on_time": 23.185, "note_off_time": 24.2}, {"pitch": 55, "velocity": 40, "note_on_time": 23.185, "note_off_time": 24.2}, {"pitch": 60, "velocity": 40, "note_on_time": 24.198, "note_off_time": 25.214}, {"pitch": 64, "velocity": 40, "note_on_time": 24.2, "note_off_time": 25.215}, {"pitch": 67, "velocity": 40, "note_on_time": 24.2, "note_off_time": 25.216}, {"pitch": 48, "velocity": 40, "note_on_time": 24.2, "note_off_time": 25.216}, {"pitch": 52, "velocity": 40, "note_on_time": 25.216, "note_off_time": 26.218}, {"pitch": 55, "velocity": 40, "note_on_time": 25.216, "note_off_time": 26.218}, {"pitch": 77, "velocity": 40, "note_on_time": 26.218, "note_off_time": 27.232}, {"pitch": 48, "velocity": 40, "note_on_time": 26.218, "note_off_time": 27.232}, {"pitch": 52, "velocity": 40, "note_on_time": 27.233, "note_off_time": 28.248}, {"pitch": 55, "velocity": 40, "note_on_time": 27.233, "note_off_time": 28.248}, {"pitch": 48, "velocity": 40, "note_on_time": 28.248, "note_off_time": 29.261}, {"pitch": 52, "velocity": 40, "note_on_time": 29.261, "note_off_time": 30.267}, {"pitch": 55, "velocity": 40, "note_on_time": 29.261, "note_off_time": 30.267}, {"pitch": 48, "velocity": 40, "note_on_time": 30.267, "note_off_time": 31.27}, {"pitch": 52, "velocity": 40, "note_on_time": 31.27, "note_off_time": 32.279}, {"pitch": 55, "velocity": 40, "note_on_time": 31.27, "note_off_time": 32.28}, {"pitch": 60, "velocity": 40, "note_on_time": 32.278, "note_off_time": 33.29}, {"pitch": 64, "velocity": 40, "note_on_time": 32.279, "note_off_time": 33.291}, {"pitch": 67, "velocity": 40, "note_on_time": 32.279, "note_off_time": 33.292}, {"pitch": 48, "velocity": 40, "note_on_time": 32.28, "note_off_time": 33.292}, {"pitch": 52, "velocity": 40, "note_on_time": 33.292, "note_off_time": 34.304}, {"pitch": 55, "velocity": 40, "note_on_time": 33.292, "note_off_time": 34.304}, {"pitch": 72, "velocity": 40, "note_on_time": 34.304, "note_off_time": 35.317}, {"pitch": 48, "velocity": 40, "note_on_time": 34.304, "note_off_time": 35.317}, {"pitch": 52, "velocity": 40, "note_on_time": 35.317, "note_off_time": 36.324}, {"pitch": 55, "velocity": 40, "note_on_time": 35.317, "note_off_time": 36.324}, {"pitch": 48, "velocity": 40, "note_on_time": 36.324, "note_off_time": 37.337}, {"pitch": 52, "velocity": 40, "note_on_time": 37.337, "note_off_time": 38.352}, {"pitch": 55, "velocity": 40, "note_on_time": 37.337, "note_off_time": 38.352}, {"pitch": 48, "velocity": 40, "note_on_time": 38.352, "note_off_time": 39.357}, {"pitch": 52, "velocity": 40, "note_on_time": 39.357, "note_off_time": 40.363}, {"pitch": 55, "velocity": 40, "note_on_time": 39.357, "note_off_time": 40.364}, {"pitch": 60, "velocity": 40, "note_on_time": 40.363, "note_off_time": 41.375}, {"pitch": 64, "velocity": 40, "note_on_time": 40.363, "note_off_time": 41.375}, {"pitch": 67, "velocity": 40, "note_on_time": 40.363, "note_off_time": 41.376}, {"pitch": 76, "velocity": 40, "note_on_time": 42.378, "note_off_time": 43.391}, {"pitch": 60, "velocity": 40, "note_on_time": 48.399, "note_off_time": 49.412}, {"pitch": 64, "velocity": 40, "note_on_time": 48.4, "note_off_time": 49.413}, {"pitch": 67, "velocity": 40, "note_on_time": 48.4, "note_off_time": 49.413}, {"pitch": 74, "velocity": 40, "note_on_time": 50.426, "note_off_time": 51.43}, {"pitch": 60, "velocity": 40, "note_on_time": 56.438, "note_off_time": 57.441}, {"pitch": 64, "velocity": 40, "note_on_time": 56.438, "note_off_time": 57.442}, {"pitch": 67, "velocity": 40, "note_on_time": 56.439, "note_off_time": 57.442}, {"pitch": 79, "velocity": 40, "note_on_time": 58.444, "note_off_time": 59.446}, {"pitch": 60, "velocity": 40, "note_on_time": 64.452, "note_off_time": 65.462}, {"pitch": 64, "velocity": 40, "note_on_time": 64.453, "note_off_time": 65.463}, {"pitch": 67, "velocity": 40, "note_on_time": 64.453, "note_off_time": 65.464}, {"pitch": 76, "velocity": 40, "note_on_time": 66.472, "note_off_time": 67.483}, {"pitch": 60, "velocity": 40, "note_on_time": 72.493, "note_off_time": 73.509}, {"pitch": 64, "velocity": 40, "note_on_time": 72.494, "note_off_time": 73.51}, {"pitch": 67, "velocity": 40, "note_on_time": 72.494, "note_off_time": 73.511}, {"pitch": 72, "velocity": 40, "note_on_time": 74.516, "note_off_time": 75.524}, {"pitch": 60, "velocity": 40, "note_on_time": 80.537, "note_off_time": 81.541}, {"pitch": 64, "velocity": 40, "note_on_time": 80.537, "note_off_time": 81.542}, {"pitch": 67, "velocity": 40, "note_on_time": 80.538, "note_off_time": 81.542}, {"pitch": 79, "velocity": 40, "note_on_time": 82.544, "note_off_time": 83.547}, {"pitch": 60, "velocity": 40, "note_on_time": 88.554, "note_off_time": 89.565}, {"pitch": 64, "velocity": 40, "note_on_time": 88.555, "note_off_time": 89.566}, {"pitch": 67, "velocity": 40, "note_on_time": 88.556, "note_off_time": 89.567}, {"pitch": 76, "velocity": 40, "note_on_time": 90.571, "note_off_time": 91.578}, {"pitch": 60, "velocity": 40, "note_on_time": 96.586, "note_off_time": 97.6}, {"pitch": 64, "velocity": 40, "note_on_time": 96.587, "note_off_time": 97.602}, {"pitch": 67, "velocity": 40, "note_on_time": 96.588, "note_off_time": 97.602}, {"pitch": 74, "velocity": 40, "note_on_time": 98.609, "note_off_time": 99.612}, {"pitch": 60, "velocity": 40, "note_on_time": 104.624, "note_off_time": 105.636}, {"pitch": 64, "velocity": 40, "note_on_time": 104.625, "note_off_time": 105.637}, {"pitch": 67, "velocity": 40, "note_on_time": 104.626, "note_off_time": 105.637}, {"pitch": 76, "velocity": 40, "note_on_time": 106.64, "note_off_time": 107.643}, {"pitch": 60, "velocity": 40, "note_on_time": 112.651, "note_off_time": 113.659}, {"pitch": 64, "velocity": 40, "note_on_time": 112.651, "note_off_time": 113.66}, {"pitch": 67, "velocity": 40, "note_on_time": 112.652, "note_off_time": 113.66}, {"pitch": 77, "velocity": 40, "note_on_time": 114.67, "note_off_time": 115.676}, {"pitch": 60, "velocity": 40, "note_on_time": 120.677, "note_off_time": 121.686}, {"pitch": 64, "velocity": 40, "note_on_time": 120.678, "note_off_time": 121.687}, {"pitch": 67, "velocity": 40, "note_on_time": 120.679, "note_off_time": 121.687}, {"pitch": 79, "velocity": 40, "note_on_time": 122.701, "note_off_time": 123.705}, {"pitch": 60, "velocity": 40, "note_on_time": 128.707, "note_off_time": 129.71}, {"pitch": 64, "velocity": 40, "note_on_time": 128.708, "note_off_time": 129.71}, {"pitch": 67, "velocity": 40, "note_on_time": 128.708, "note_off_time": 129.711}, {"pitch": 77, "velocity": 40, "note_on_time": 130.714, "note_off_time": 131.721}, {"pitch": 60, "velocity": 40, "note_on_time": 136.728, "note_off_time": 137.741}, {"pitch": 64, "velocity": 40, "note_on_time": 136.729, "note_off_time": 137.741}, {"pitch": 67, "velocity": 40, "note_on_time": 136.73, "note_off_time": 137.742}, {"pitch": 74, "velocity": 40, "note_on_time": 138.746, "note_off_time": 139.751}, {"pitch": 60, "velocity": 40, "note_on_time": 144.764, "note_off_time": 145.781}, {"pitch": 64, "velocity": 40, "note_on_time": 144.765, "note_off_time": 145.782}, {"pitch": 67, "velocity": 40, "note_on_time": 144.765, "note_off_time": 145.782}, {"pitch": 79, "velocity": 40, "note_on_time": 146.786, "note_off_time": 147.789}, {"pitch": 60, "velocity": 40, "note_on_time": 152.803, "note_off_time": 153.818}, {"pitch": 64, "velocity": 40, "note_on_time": 152.804, "note_off_time": 153.819}, {"pitch": 67, "velocity": 40, "note_on_time": 152.804, "note_off_time": 153.82}, {"pitch": 77, "velocity": 40, "note_on_time": 154.822, "note_off_time": 155.823}, {"pitch": 60, "velocity": 40, "note_on_time": 160.829, "note_off_time": 161.832}, {"pitch": 64, "velocity": 40, "note_on_time": 160.83, "note_off_time": 161.834}, {"pitch": 67, "velocity": 40, "note_on_time": 160.83, "note_off_time": 161.834}, {"pitch": 72, "velocity": 40, "note_on_time": 162.849, "note_off_time": 163.864}]</notes><options name="Option List">((4, 4), [0.5, 0.25], 3, 8, &lt;NoteRangePerHand.TWO_NOTES: 3&gt;, &lt;NoteRangePerHand.ONE_NOTE: 2&gt;, False, True, True, 100)</options></target_notes><trials><trial trial_no="1" timestamp="2024_03_04-13_15_12"><notes name="Played Notes">[{"pitch": 72, "velocity": 62, "note_on_time": 3.422, "note_off_time": 5.366}, {"pitch": 74, "velocity": 49, "note_on_time": 11.522, "note_off_time": 13.341}, {"pitch": 72, "velocity": 44, "note_on_time": 19.534, "note_off_time": 21.494}, {"pitch": 77, "velocity": 51, "note_on_time": 27.606, "note_off_time": 30.038}, {"pitch": 72, "velocity": 48, "note_on_time": 35.912, "note_off_time": 37.845}, {"pitch": 76, "velocity": 33, "note_on_time": 43.996, "note_off_time": 45.778}, {"pitch": 74, "velocity": 62, "note_on_time": 51.872, "note_off_time": 53.785}, {"pitch": 79, "velocity": 49, "note_on_time": 59.857, "note_off_time": 61.48}, {"pitch": 74, "velocity": 58, "note_on_time": 67.912, "note_off_time": 68.219}, {"pitch": 76, "velocity": 54, "note_on_time": 68.469, "note_off_time": 70.396}, {"pitch": 72, "velocity": 52, "note_on_time": 75.925, "note_off_time": 77.245}, {"pitch": 79, "velocity": 39, "note_on_time": 84.036, "note_off_time": 85.885}, {"pitch": 76, "velocity": 28, "note_on_time": 91.98, "note_off_time": 93.841}, {"pitch": 74, "velocity": 52, "note_on_time": 100.008, "note_off_time": 101.372}, {"pitch": 76, "velocity": 37, "note_on_time": 108.131, "note_off_time": 110.269}, {"pitch": 77, "velocity": 48, "note_on_time": 116.114, "note_off_time": 117.896}, {"pitch": 79, "velocity": 57, "note_on_time": 124.012, "note_off_time": 125.393}, {"pitch": 77, "velocity": 39, "note_on_time": 132.038, "note_off_time": 134.0}, {"pitch": 74, "velocity": 41, "note_on_time": 140.129, "note_off_time": 142.014}, {"pitch": 79, "velocity": 54, "note_on_time": 148.165, "note_off_time": 150.429}, {"pitch": 77, "velocity": 26, "note_on_time": 156.204, "note_off_time": 158.121}]</notes><guidance name="Guidance Mode">None</guidance><error name="Error value">99</error></trial></trials></MIDI>