<MIDI midiNo="2024_03_18-14_30_06"><target_notes><notes name="Note List">[{"pitch": 60, "velocity": 40, "note_on_time": 0.009, "note_off_time": 1.02}, {"pitch": 64, "velocity": 40, "note_on_time": 0.009, "note_off_time": 1.021}, {"pitch": 67, "velocity": 40, "note_on_time": 0.01, "note_off_time": 1.022}, {"pitch": 48, "velocity": 40, "note_on_time": 0.01, "note_off_time": 1.022}, {"pitch": 52, "velocity": 40, "note_on_time": 1.022, "note_off_time": 2.024}, {"pitch": 55, "velocity": 40, "note_on_time": 1.022, "note_off_time": 2.025}, {"pitch": 72, "velocity": 40, "note_on_time": 2.024, "note_off_time": 3.028}, {"pitch": 48, "velocity": 40, "note_on_time": 2.025, "note_off_time": 3.028}, {"pitch": 52, "velocity": 40, "note_on_time": 3.029, "note_off_time": 4.044}, {"pitch": 55, "velocity": 40, "note_on_time": 3.029, "note_off_time": 4.044}, {"pitch": 48, "velocity": 40, "note_on_time": 4.044, "note_off_time": 5.056}, {"pitch": 52, "velocity": 40, "note_on_time": 5.056, "note_off_time": 6.062}, {"pitch": 55, "velocity": 40, "note_on_time": 5.056, "note_off_time": 6.062}, {"pitch": 48, "velocity": 40, "note_on_time": 6.062, "note_off_time": 7.073}, {"pitch": 52, "velocity": 40, "note_on_time": 7.073, "note_off_time": 8.084}, {"pitch": 55, "velocity": 40, "note_on_time": 7.073, "note_off_time": 8.084}, {"pitch": 60, "velocity": 40, "note_on_time": 8.083, "note_off_time": 9.099}, {"pitch": 64, "velocity": 40, "note_on_time": 8.084, "note_off_time": 9.1}, {"pitch": 67, "velocity": 40, "note_on_time": 8.084, "note_off_time": 9.1}, {"pitch": 48, "velocity": 40, "note_on_time": 8.084, "note_off_time": 9.101}, {"pitch": 52, "velocity": 40, "note_on_time": 9.101, "note_off_time": 10.105}, {"pitch": 55, "velocity": 40, "note_on_time": 9.101, "note_off_time": 10.105}, {"pitch": 74, "velocity": 40, "note_on_time": 10.105, "note_off_time": 11.107}, {"pitch": 48, "velocity": 40, "note_on_time": 10.105, "note_off_time": 11.108}, {"pitch": 52, "velocity": 40, "note_on_time": 11.108, "note_off_time": 12.11}, {"pitch": 55, "velocity": 40, "note_on_time": 11.108, "note_off_time": 12.11}, {"pitch": 48, "velocity": 40, "note_on_time": 12.11, "note_off_time": 13.122}, {"pitch": 52, "velocity": 40, "note_on_time": 13.122, "note_off_time": 14.123}, {"pitch": 55, "velocity": 40, "note_on_time": 13.122, "note_off_time": 14.123}, {"pitch": 48, "velocity": 40, "note_on_time": 14.123, "note_off_time": 15.138}, {"pitch": 52, "velocity": 40, "note_on_time": 15.138, "note_off_time": 16.143}, {"pitch": 55, "velocity": 40, "note_on_time": 15.138, "note_off_time": 16.143}, {"pitch": 60, "velocity": 40, "note_on_time": 16.142, "note_off_time": 17.147}, {"pitch": 64, "velocity": 40, "note_on_time": 16.143, "note_off_time": 17.148}, {"pitch": 67, "velocity": 40, "note_on_time": 16.143, "note_off_time": 17.148}, {"pitch": 48, "velocity": 40, "note_on_time": 16.143, "note_off_time": 17.148}, {"pitch": 52, "velocity": 40, "note_on_time": 17.149, "note_off_time": 18.156}, {"pitch": 55, "velocity": 40, "note_on_time": 17.149, "note_off_time": 18.156}, {"pitch": 77, "velocity": 40, "note_on_time": 18.156, "note_off_time": 19.171}, {"pitch": 48, "velocity": 40, "note_on_time": 18.156, "note_off_time": 19.171}, {"pitch": 52, "velocity": 40, "note_on_time": 19.171, "note_off_time": 20.173}, {"pitch": 55, "velocity": 40, "note_on_time": 19.171, "note_off_time": 20.173}, {"pitch": 48, "velocity": 40, "note_on_time": 20.173, "note_off_time": 21.18}, {"pitch": 52, "velocity": 40, "note_on_time": 21.18, "note_off_time": 22.191}, {"pitch": 55, "velocity": 40, "note_on_time": 21.18, "note_off_time": 22.191}, {"pitch": 48, "velocity": 40, "note_on_time": 22.191, "note_off_time": 23.199}, {"pitch": 52, "velocity": 40, "note_on_time": 23.199, "note_off_time": 24.202}, {"pitch": 55, "velocity": 40, "note_on_time": 23.199, "note_off_time": 24.202}, {"pitch": 60, "velocity": 40, "note_on_time": 24.201, "note_off_time": 25.204}, {"pitch": 64, "velocity": 40, "note_on_time": 24.202, "note_off_time": 25.204}, {"pitch": 67, "velocity": 40, "note_on_time": 24.202, "note_off_time": 25.205}, {"pitch": 48, "velocity": 40, "note_on_time": 24.202, "note_off_time": 25.205}, {"pitch": 52, "velocity": 40, "note_on_time": 25.205, "note_off_time": 26.209}, {"pitch": 55, "velocity": 40, "note_on_time": 25.205, "note_off_time": 26.209}, {"pitch": 79, "velocity": 40, "note_on_time": 26.209, "note_off_time": 27.216}, {"pitch": 48, "velocity": 40, "note_on_time": 26.209, "note_off_time": 27.216}, {"pitch": 52, "velocity": 40, "note_on_time": 27.216, "note_off_time": 28.224}, {"pitch": 55, "velocity": 40, "note_on_time": 27.216, "note_off_time": 28.224}, {"pitch": 48, "velocity": 40, "note_on_time": 28.225, "note_off_time": 29.237}, {"pitch": 52, "velocity": 40, "note_on_time": 29.237, "note_off_time": 30.242}, {"pitch": 55, "velocity": 40, "note_on_time": 29.237, "note_off_time": 30.242}, {"pitch": 48, "velocity": 40, "note_on_time": 30.242, "note_off_time": 31.245}, {"pitch": 52, "velocity": 40, "note_on_time": 31.245, "note_off_time": 32.261}, {"pitch": 55, "velocity": 40, "note_on_time": 31.245, "note_off_time": 32.261}, {"pitch": 60, "velocity": 40, "note_on_time": 32.26, "note_off_time": 33.273}, {"pitch": 64, "velocity": 40, "note_on_time": 32.261, "note_off_time": 33.274}, {"pitch": 67, "velocity": 40, "note_on_time": 32.261, "note_off_time": 33.274}, {"pitch": 48, "velocity": 40, "note_on_time": 32.261, "note_off_time": 33.275}, {"pitch": 52, "velocity": 40, "note_on_time": 33.275, "note_off_time": 34.279}, {"pitch": 55, "velocity": 40, "note_on_time": 33.275, "note_off_time": 34.279}, {"pitch": 72, "velocity": 40, "note_on_time": 34.279, "note_off_time": 35.283}, {"pitch": 48, "velocity": 40, "note_on_time": 34.279, "note_off_time": 35.283}, {"pitch": 52, "velocity": 40, "note_on_time": 35.283, "note_off_time": 36.288}, {"pitch": 55, "velocity": 40, "note_on_time": 35.283, "note_off_time": 36.288}, {"pitch": 48, "velocity": 40, "note_on_time": 36.288, "note_off_time": 37.302}, {"pitch": 52, "velocity": 40, "note_on_time": 37.302, "note_off_time": 38.315}, {"pitch": 55, "velocity": 40, "note_on_time": 37.302, "note_off_time": 38.315}, {"pitch": 48, "velocity": 40, "note_on_time": 38.315, "note_off_time": 39.329}, {"pitch": 52, "velocity": 40, "note_on_time": 39.329, "note_off_time": 40.333}, {"pitch": 55, "velocity": 40, "note_on_time": 39.329, "note_off_time": 40.333}, {"pitch": 60, "velocity": 40, "note_on_time": 40.331, "note_off_time": 41.348}, {"pitch": 64, "velocity": 40, "note_on_time": 40.332, "note_off_time": 41.349}, {"pitch": 67, "velocity": 40, "note_on_time": 40.333, "note_off_time": 41.35}, {"pitch": 77, "velocity": 40, "note_on_time": 42.361, "note_off_time": 43.373}, {"pitch": 60, "velocity": 40, "note_on_time": 48.378, "note_off_time": 49.386}, {"pitch": 64, "velocity": 40, "note_on_time": 48.379, "note_off_time": 49.387}, {"pitch": 67, "velocity": 40, "note_on_time": 48.379, "note_off_time": 49.388}, {"pitch": 74, "velocity": 40, "note_on_time": 50.397, "note_off_time": 51.402}, {"pitch": 60, "velocity": 40, "note_on_time": 56.418, "note_off_time": 57.435}, {"pitch": 64, "velocity": 40, "note_on_time": 56.419, "note_off_time": 57.436}, {"pitch": 67, "velocity": 40, "note_on_time": 56.42, "note_off_time": 57.436}, {"pitch": 77, "velocity": 40, "note_on_time": 58.439, "note_off_time": 59.441}, {"pitch": 60, "velocity": 40, "note_on_time": 64.447, "note_off_time": 65.452}, {"pitch": 64, "velocity": 40, "note_on_time": 64.448, "note_off_time": 65.453}, {"pitch": 67, "velocity": 40, "note_on_time": 64.449, "note_off_time": 65.453}, {"pitch": 74, "velocity": 40, "note_on_time": 66.457, "note_off_time": 67.47}, {"pitch": 60, "velocity": 40, "note_on_time": 72.486, "note_off_time": 73.494}, {"pitch": 64, "velocity": 40, "note_on_time": 72.487, "note_off_time": 73.495}, {"pitch": 67, "velocity": 40, "note_on_time": 72.487, "note_off_time": 73.495}, {"pitch": 76, "velocity": 40, "note_on_time": 74.507, "note_off_time": 75.52}, {"pitch": 60, "velocity": 40, "note_on_time": 80.528, "note_off_time": 81.531}, {"pitch": 64, "velocity": 40, "note_on_time": 80.53, "note_off_time": 81.532}, {"pitch": 67, "velocity": 40, "note_on_time": 80.53, "note_off_time": 81.532}, {"pitch": 72, "velocity": 40, "note_on_time": 82.536, "note_off_time": 83.538}, {"pitch": 60, "velocity": 40, "note_on_time": 88.545, "note_off_time": 89.561}, {"pitch": 64, "velocity": 40, "note_on_time": 88.546, "note_off_time": 89.563}, {"pitch": 67, "velocity": 40, "note_on_time": 88.547, "note_off_time": 89.563}, {"pitch": 79, "velocity": 40, "note_on_time": 90.578, "note_off_time": 91.579}, {"pitch": 60, "velocity": 40, "note_on_time": 96.588, "note_off_time": 97.59}, {"pitch": 64, "velocity": 40, "note_on_time": 96.588, "note_off_time": 97.591}, {"pitch": 67, "velocity": 40, "note_on_time": 96.589, "note_off_time": 97.591}, {"pitch": 72, "velocity": 40, "note_on_time": 98.603, "note_off_time": 99.61}, {"pitch": 60, "velocity": 40, "note_on_time": 104.615, "note_off_time": 105.63}, {"pitch": 64, "velocity": 40, "note_on_time": 104.616, "note_off_time": 105.631}, {"pitch": 67, "velocity": 40, "note_on_time": 104.616, "note_off_time": 105.632}, {"pitch": 76, "velocity": 40, "note_on_time": 106.645, "note_off_time": 107.648}, {"pitch": 60, "velocity": 40, "note_on_time": 112.651, "note_off_time": 113.654}, {"pitch": 64, "velocity": 40, "note_on_time": 112.651, "note_off_time": 113.654}, {"pitch": 67, "velocity": 40, "note_on_time": 112.652, "note_off_time": 113.655}, {"pitch": 79, "velocity": 40, "note_on_time": 114.669, "note_off_time": 115.684}, {"pitch": 60, "velocity": 40, "note_on_time": 120.697, "note_off_time": 121.711}, {"pitch": 64, "velocity": 40, "note_on_time": 120.698, "note_off_time": 121.712}, {"pitch": 67, "velocity": 40, "note_on_time": 120.698, "note_off_time": 121.713}, {"pitch": 76, "velocity": 40, "note_on_time": 122.722, "note_off_time": 123.734}, {"pitch": 60, "velocity": 40, "note_on_time": 128.742, "note_off_time": 129.749}, {"pitch": 64, "velocity": 40, "note_on_time": 128.743, "note_off_time": 129.75}, {"pitch": 67, "velocity": 40, "note_on_time": 128.743, "note_off_time": 129.751}, {"pitch": 74, "velocity": 40, "note_on_time": 130.76, "note_off_time": 131.775}, {"pitch": 60, "velocity": 40, "note_on_time": 136.792, "note_off_time": 137.794}, {"pitch": 64, "velocity": 40, "note_on_time": 136.792, "note_off_time": 137.795}, {"pitch": 67, "velocity": 40, "note_on_time": 136.793, "note_off_time": 137.796}, {"pitch": 77, "velocity": 40, "note_on_time": 138.8, "note_off_time": 139.814}, {"pitch": 60, "velocity": 40, "note_on_time": 144.815, "note_off_time": 145.822}, {"pitch": 64, "velocity": 40, "note_on_time": 144.816, "note_off_time": 145.822}, {"pitch": 67, "velocity": 40, "note_on_time": 144.816, "note_off_time": 145.823}, {"pitch": 79, "velocity": 40, "note_on_time": 146.839, "note_off_time": 147.846}, {"pitch": 60, "velocity": 40, "note_on_time": 152.852, "note_off_time": 153.869}, {"pitch": 64, "velocity": 40, "note_on_time": 152.853, "note_off_time": 153.87}, {"pitch": 67, "velocity": 40, "note_on_time": 152.854, "note_off_time": 153.871}, {"pitch": 76, "velocity": 40, "note_on_time": 154.885, "note_off_time": 155.892}, {"pitch": 60, "velocity": 40, "note_on_time": 160.898, "note_off_time": 161.903}, {"pitch": 64, "velocity": 40, "note_on_time": 160.899, "note_off_time": 161.903}, {"pitch": 67, "velocity": 40, "note_on_time": 160.899, "note_off_time": 161.904}, {"pitch": 72, "velocity": 40, "note_on_time": 162.917, "note_off_time": 163.924}]</notes><options name="Option List">((4, 4), [0.5, 0.25], 3, 8, &lt;NoteRangePerHand.TWO_NOTES: 3&gt;, &lt;NoteRangePerHand.ONE_NOTE: 2&gt;, False, True, True, 100)</options></target_notes><trials><trial trial_no="1" timestamp="2024_03_18-14_27_22"><notes name="Played Notes">[{"pitch": 79, "velocity": 36, "note_on_time": 2.728, "note_off_time": 3.018}, {"pitch": 72, "velocity": 32, "note_on_time": 3.437, "note_off_time": 3.717}, {"pitch": 77, "velocity": 25, "note_on_time": 11.288, "note_off_time": 11.636}, {"pitch": 74, "velocity": 23, "note_on_time": 12.042, "note_off_time": 12.583}, {"pitch": 79, "velocity": 42, "note_on_time": 20.018, "note_off_time": 20.382}, {"pitch": 79, "velocity": 30, "note_on_time": 27.709, "note_off_time": 28.035}, {"pitch": 72, "velocity": 7, "note_on_time": 35.544, "note_off_time": 36.012}, {"pitch": 74, "velocity": 20, "note_on_time": 43.574, "note_off_time": 44.012}, {"pitch": 76, "velocity": 19, "note_on_time": 44.394, "note_off_time": 44.829}, {"pitch": 77, "velocity": 46, "note_on_time": 45.381, "note_off_time": 45.889}, {"pitch": 74, "velocity": 49, "note_on_time": 51.708, "note_off_time": 52.253}, {"pitch": 72, "velocity": 24, "note_on_time": 59.794, "note_off_time": 60.142}, {"pitch": 76, "velocity": 29, "note_on_time": 60.436, "note_off_time": 60.942}, {"pitch": 72, "velocity": 45, "note_on_time": 67.925, "note_off_time": 68.611}, {"pitch": 74, "velocity": 38, "note_on_time": 69.203, "note_off_time": 69.792}, {"pitch": 79, "velocity": 23, "note_on_time": 76.185, "note_off_time": 76.581}, {"pitch": 77, "velocity": 40, "note_on_time": 76.871, "note_off_time": 77.429}, {"pitch": 76, "velocity": 26, "note_on_time": 78.261, "note_off_time": 79.072}, {"pitch": 72, "velocity": 29, "note_on_time": 83.912, "note_off_time": 84.551}, {"pitch": 79, "velocity": 59, "note_on_time": 91.812, "note_off_time": 92.318}, {"pitch": 74, "velocity": 40, "note_on_time": 100.37, "note_off_time": 100.837}, {"pitch": 72, "velocity": 42, "note_on_time": 101.187, "note_off_time": 101.963}, {"pitch": 77, "velocity": 37, "note_on_time": 108.136, "note_off_time": 108.634}, {"pitch": 79, "velocity": 49, "note_on_time": 108.88, "note_off_time": 109.489}, {"pitch": 76, "velocity": 25, "note_on_time": 110.276, "note_off_time": 110.868}, {"pitch": 79, "velocity": 23, "note_on_time": 116.195, "note_off_time": 116.835}, {"pitch": 74, "velocity": 36, "note_on_time": 124.232, "note_off_time": 124.688}, {"pitch": 72, "velocity": 35, "note_on_time": 124.951, "note_off_time": 125.434}, {"pitch": 76, "velocity": 56, "note_on_time": 125.823, "note_off_time": 126.556}, {"pitch": 74, "velocity": 37, "note_on_time": 132.489, "note_off_time": 133.143}, {"pitch": 77, "velocity": 1, "note_on_time": 140.112, "note_off_time": 140.759}, {"pitch": 79, "velocity": 22, "note_on_time": 148.263, "note_off_time": 149.012}, {"pitch": 79, "velocity": 26, "note_on_time": 156.317, "note_off_time": 156.799}, {"pitch": 77, "velocity": 45, "note_on_time": 157.086, "note_off_time": 157.496}, {"pitch": 76, "velocity": 23, "note_on_time": 157.987, "note_off_time": 158.631}]</notes><guidance name="Guidance Mode">None</guidance><error name="Error value">99</error></trial></trials></MIDI>