<MIDI midiNo="2024_02_26-10_32_47"><target_notes><notes name="Note List">[{"pitch": 60, "velocity": 40, "note_on_time": 0.009, "note_off_time": 1.011}, {"pitch": 64, "velocity": 40, "note_on_time": 0.009, "note_off_time": 1.011}, {"pitch": 67, "velocity": 40, "note_on_time": 0.009, "note_off_time": 1.011}, {"pitch": 48, "velocity": 40, "note_on_time": 0.009, "note_off_time": 1.011}, {"pitch": 52, "velocity": 40, "note_on_time": 1.011, "note_off_time": 2.019}, {"pitch": 55, "velocity": 40, "note_on_time": 1.011, "note_off_time": 2.019}, {"pitch": 79, "velocity": 40, "note_on_time": 2.019, "note_off_time": 3.034}, {"pitch": 48, "velocity": 40, "note_on_time": 2.019, "note_off_time": 3.034}, {"pitch": 52, "velocity": 40, "note_on_time": 3.034, "note_off_time": 4.049}, {"pitch": 55, "velocity": 40, "note_on_time": 3.034, "note_off_time": 4.049}, {"pitch": 48, "velocity": 40, "note_on_time": 4.049, "note_off_time": 5.063}, {"pitch": 52, "velocity": 40, "note_on_time": 5.063, "note_off_time": 6.078}, {"pitch": 55, "velocity": 40, "note_on_time": 5.063, "note_off_time": 6.078}, {"pitch": 48, "velocity": 40, "note_on_time": 6.078, "note_off_time": 7.09}, {"pitch": 52, "velocity": 40, "note_on_time": 7.09, "note_off_time": 8.092}, {"pitch": 55, "velocity": 40, "note_on_time": 7.09, "note_off_time": 8.092}, {"pitch": 60, "velocity": 40, "note_on_time": 8.092, "note_off_time": 9.098}, {"pitch": 64, "velocity": 40, "note_on_time": 8.092, "note_off_time": 9.098}, {"pitch": 67, "velocity": 40, "note_on_time": 8.092, "note_off_time": 9.098}, {"pitch": 48, "velocity": 40, "note_on_time": 8.092, "note_off_time": 9.098}, {"pitch": 52, "velocity": 40, "note_on_time": 9.098, "note_off_time": 10.107}, {"pitch": 55, "velocity": 40, "note_on_time": 9.098, "note_off_time": 10.107}, {"pitch": 76, "velocity": 40, "note_on_time": 10.107, "note_off_time": 11.114}, {"pitch": 48, "velocity": 40, "note_on_time": 10.107, "note_off_time": 11.114}, {"pitch": 52, "velocity": 40, "note_on_time": 11.114, "note_off_time": 12.123}, {"pitch": 55, "velocity": 40, "note_on_time": 11.114, "note_off_time": 12.123}, {"pitch": 48, "velocity": 40, "note_on_time": 12.123, "note_off_time": 13.137}, {"pitch": 52, "velocity": 40, "note_on_time": 13.137, "note_off_time": 14.139}, {"pitch": 55, "velocity": 40, "note_on_time": 13.137, "note_off_time": 14.139}, {"pitch": 48, "velocity": 40, "note_on_time": 14.139, "note_off_time": 15.147}, {"pitch": 52, "velocity": 40, "note_on_time": 15.147, "note_off_time": 16.151}, {"pitch": 55, "velocity": 40, "note_on_time": 15.147, "note_off_time": 16.151}, {"pitch": 60, "velocity": 40, "note_on_time": 16.151, "note_off_time": 17.165}, {"pitch": 64, "velocity": 40, "note_on_time": 16.151, "note_off_time": 17.165}, {"pitch": 67, "velocity": 40, "note_on_time": 16.151, "note_off_time": 17.165}, {"pitch": 48, "velocity": 40, "note_on_time": 16.151, "note_off_time": 17.166}, {"pitch": 52, "velocity": 40, "note_on_time": 17.166, "note_off_time": 18.18}, {"pitch": 55, "velocity": 40, "note_on_time": 17.166, "note_off_time": 18.18}, {"pitch": 79, "velocity": 40, "note_on_time": 18.18, "note_off_time": 19.192}, {"pitch": 48, "velocity": 40, "note_on_time": 18.18, "note_off_time": 19.192}, {"pitch": 52, "velocity": 40, "note_on_time": 19.192, "note_off_time": 20.2}, {"pitch": 55, "velocity": 40, "note_on_time": 19.192, "note_off_time": 20.2}, {"pitch": 48, "velocity": 40, "note_on_time": 20.2, "note_off_time": 21.202}, {"pitch": 52, "velocity": 40, "note_on_time": 21.202, "note_off_time": 22.217}, {"pitch": 55, "velocity": 40, "note_on_time": 21.202, "note_off_time": 22.217}, {"pitch": 48, "velocity": 40, "note_on_time": 22.217, "note_off_time": 23.228}, {"pitch": 52, "velocity": 40, "note_on_time": 23.228, "note_off_time": 24.239}, {"pitch": 55, "velocity": 40, "note_on_time": 23.228, "note_off_time": 24.239}, {"pitch": 60, "velocity": 40, "note_on_time": 24.239, "note_off_time": 25.24}, {"pitch": 64, "velocity": 40, "note_on_time": 24.239, "note_off_time": 25.24}, {"pitch": 67, "velocity": 40, "note_on_time": 24.239, "note_off_time": 25.24}, {"pitch": 48, "velocity": 40, "note_on_time": 24.239, "note_off_time": 25.24}, {"pitch": 52, "velocity": 40, "note_on_time": 25.24, "note_off_time": 26.249}, {"pitch": 55, "velocity": 40, "note_on_time": 25.24, "note_off_time": 26.249}, {"pitch": 74, "velocity": 40, "note_on_time": 26.249, "note_off_time": 27.259}, {"pitch": 48, "velocity": 40, "note_on_time": 26.249, "note_off_time": 27.259}, {"pitch": 52, "velocity": 40, "note_on_time": 27.259, "note_off_time": 28.272}, {"pitch": 55, "velocity": 40, "note_on_time": 27.259, "note_off_time": 28.272}, {"pitch": 48, "velocity": 40, "note_on_time": 28.272, "note_off_time": 29.276}, {"pitch": 52, "velocity": 40, "note_on_time": 29.276, "note_off_time": 30.289}, {"pitch": 55, "velocity": 40, "note_on_time": 29.276, "note_off_time": 30.289}, {"pitch": 48, "velocity": 40, "note_on_time": 30.289, "note_off_time": 31.296}, {"pitch": 52, "velocity": 40, "note_on_time": 31.296, "note_off_time": 32.299}, {"pitch": 55, "velocity": 40, "note_on_time": 31.296, "note_off_time": 32.299}, {"pitch": 60, "velocity": 40, "note_on_time": 32.299, "note_off_time": 33.302}, {"pitch": 64, "velocity": 40, "note_on_time": 32.299, "note_off_time": 33.302}, {"pitch": 67, "velocity": 40, "note_on_time": 32.299, "note_off_time": 33.302}, {"pitch": 48, "velocity": 40, "note_on_time": 32.299, "note_off_time": 33.302}, {"pitch": 52, "velocity": 40, "note_on_time": 33.302, "note_off_time": 34.311}, {"pitch": 55, "velocity": 40, "note_on_time": 33.302, "note_off_time": 34.311}, {"pitch": 76, "velocity": 40, "note_on_time": 34.311, "note_off_time": 35.326}, {"pitch": 48, "velocity": 40, "note_on_time": 34.311, "note_off_time": 35.326}, {"pitch": 52, "velocity": 40, "note_on_time": 35.326, "note_off_time": 36.333}, {"pitch": 55, "velocity": 40, "note_on_time": 35.326, "note_off_time": 36.333}, {"pitch": 48, "velocity": 40, "note_on_time": 36.333, "note_off_time": 37.338}, {"pitch": 52, "velocity": 40, "note_on_time": 37.339, "note_off_time": 38.357}, {"pitch": 55, "velocity": 40, "note_on_time": 37.342, "note_off_time": 38.357}, {"pitch": 48, "velocity": 40, "note_on_time": 38.357, "note_off_time": 39.365}, {"pitch": 52, "velocity": 40, "note_on_time": 39.365, "note_off_time": 40.372}, {"pitch": 55, "velocity": 40, "note_on_time": 39.365, "note_off_time": 40.372}, {"pitch": 60, "velocity": 40, "note_on_time": 40.372, "note_off_time": 41.374}, {"pitch": 64, "velocity": 40, "note_on_time": 40.372, "note_off_time": 41.374}, {"pitch": 67, "velocity": 40, "note_on_time": 40.372, "note_off_time": 41.374}, {"pitch": 74, "velocity": 40, "note_on_time": 42.377, "note_off_time": 43.378}, {"pitch": 60, "velocity": 40, "note_on_time": 48.392, "note_off_time": 49.408}, {"pitch": 64, "velocity": 40, "note_on_time": 48.392, "note_off_time": 49.408}, {"pitch": 67, "velocity": 40, "note_on_time": 48.392, "note_off_time": 49.408}, {"pitch": 79, "velocity": 40, "note_on_time": 50.41, "note_off_time": 51.422}, {"pitch": 60, "velocity": 40, "note_on_time": 56.435, "note_off_time": 57.45}, {"pitch": 64, "velocity": 40, "note_on_time": 56.435, "note_off_time": 57.45}, {"pitch": 67, "velocity": 40, "note_on_time": 56.435, "note_off_time": 57.45}, {"pitch": 77, "velocity": 40, "note_on_time": 58.465, "note_off_time": 59.48}, {"pitch": 60, "velocity": 40, "note_on_time": 64.488, "note_off_time": 65.503}, {"pitch": 64, "velocity": 40, "note_on_time": 64.488, "note_off_time": 65.503}, {"pitch": 67, "velocity": 40, "note_on_time": 64.488, "note_off_time": 65.503}, {"pitch": 74, "velocity": 40, "note_on_time": 66.516, "note_off_time": 67.523}, {"pitch": 60, "velocity": 40, "note_on_time": 72.533, "note_off_time": 73.536}, {"pitch": 64, "velocity": 40, "note_on_time": 72.533, "note_off_time": 73.536}, {"pitch": 67, "velocity": 40, "note_on_time": 72.533, "note_off_time": 73.536}, {"pitch": 72, "velocity": 40, "note_on_time": 74.544, "note_off_time": 75.547}, {"pitch": 60, "velocity": 40, "note_on_time": 80.562, "note_off_time": 81.572}, {"pitch": 64, "velocity": 40, "note_on_time": 80.562, "note_off_time": 81.572}, {"pitch": 67, "velocity": 40, "note_on_time": 80.562, "note_off_time": 81.572}, {"pitch": 76, "velocity": 40, "note_on_time": 82.574, "note_off_time": 83.588}, {"pitch": 60, "velocity": 40, "note_on_time": 88.589, "note_off_time": 89.604}, {"pitch": 64, "velocity": 40, "note_on_time": 88.589, "note_off_time": 89.604}, {"pitch": 67, "velocity": 40, "note_on_time": 88.589, "note_off_time": 89.604}, {"pitch": 77, "velocity": 40, "note_on_time": 90.617, "note_off_time": 91.624}, {"pitch": 60, "velocity": 40, "note_on_time": 96.636, "note_off_time": 97.639}, {"pitch": 64, "velocity": 40, "note_on_time": 96.636, "note_off_time": 97.639}, {"pitch": 67, "velocity": 40, "note_on_time": 96.636, "note_off_time": 97.639}, {"pitch": 72, "velocity": 40, "note_on_time": 98.641, "note_off_time": 99.656}, {"pitch": 60, "velocity": 40, "note_on_time": 104.671, "note_off_time": 105.675}, {"pitch": 64, "velocity": 40, "note_on_time": 104.671, "note_off_time": 105.675}, {"pitch": 67, "velocity": 40, "note_on_time": 104.671, "note_off_time": 105.675}, {"pitch": 74, "velocity": 40, "note_on_time": 106.683, "note_off_time": 107.687}, {"pitch": 60, "velocity": 40, "note_on_time": 112.699, "note_off_time": 113.702}, {"pitch": 64, "velocity": 40, "note_on_time": 112.699, "note_off_time": 113.702}, {"pitch": 67, "velocity": 40, "note_on_time": 112.699, "note_off_time": 113.702}, {"pitch": 76, "velocity": 40, "note_on_time": 114.708, "note_off_time": 115.71}, {"pitch": 60, "velocity": 40, "note_on_time": 120.713, "note_off_time": 121.72}, {"pitch": 64, "velocity": 40, "note_on_time": 120.713, "note_off_time": 121.72}, {"pitch": 67, "velocity": 40, "note_on_time": 120.713, "note_off_time": 121.72}, {"pitch": 72, "velocity": 40, "note_on_time": 122.725, "note_off_time": 123.734}, {"pitch": 60, "velocity": 40, "note_on_time": 128.736, "note_off_time": 129.741}, {"pitch": 64, "velocity": 40, "note_on_time": 128.736, "note_off_time": 129.741}, {"pitch": 67, "velocity": 40, "note_on_time": 128.736, "note_off_time": 129.741}, {"pitch": 77, "velocity": 40, "note_on_time": 130.747, "note_off_time": 131.762}, {"pitch": 60, "velocity": 40, "note_on_time": 136.767, "note_off_time": 137.781}, {"pitch": 64, "velocity": 40, "note_on_time": 136.767, "note_off_time": 137.781}, {"pitch": 67, "velocity": 40, "note_on_time": 136.767, "note_off_time": 137.781}, {"pitch": 79, "velocity": 40, "note_on_time": 138.789, "note_off_time": 139.803}, {"pitch": 60, "velocity": 40, "note_on_time": 144.81, "note_off_time": 145.822}, {"pitch": 64, "velocity": 40, "note_on_time": 144.81, "note_off_time": 145.822}, {"pitch": 67, "velocity": 40, "note_on_time": 144.81, "note_off_time": 145.822}, {"pitch": 72, "velocity": 40, "note_on_time": 146.837, "note_off_time": 147.847}, {"pitch": 60, "velocity": 40, "note_on_time": 152.85, "note_off_time": 153.861}, {"pitch": 64, "velocity": 40, "note_on_time": 152.85, "note_off_time": 153.861}, {"pitch": 67, "velocity": 40, "note_on_time": 152.85, "note_off_time": 153.862}, {"pitch": 77, "velocity": 40, "note_on_time": 154.87, "note_off_time": 155.874}, {"pitch": 60, "velocity": 40, "note_on_time": 160.887, "note_off_time": 161.889}, {"pitch": 64, "velocity": 40, "note_on_time": 160.887, "note_off_time": 161.889}, {"pitch": 67, "velocity": 40, "note_on_time": 160.887, "note_off_time": 161.889}, {"pitch": 79, "velocity": 40, "note_on_time": 162.891, "note_off_time": 163.905}]</notes><options name="Option List">((4, 4), [0.5, 0.25], 3, 8, &lt;NoteRangePerHand.TWO_NOTES: 3&gt;, &lt;NoteRangePerHand.ONE_NOTE: 2&gt;, False, True, True, 100)</options></target_notes><trials><trial trial_no="1" timestamp="2024_02_26-10_34_16"><notes name="Played Notes">[{"pitch": 72, "velocity": 41, "note_on_time": 1.909, "note_off_time": 2.308}, {"pitch": 76, "velocity": 17, "note_on_time": 1.969, "note_off_time": 2.35}, {"pitch": 72, "velocity": 30, "note_on_time": 3.166, "note_off_time": 3.596}, {"pitch": 76, "velocity": 18, "note_on_time": 3.259, "note_off_time": 3.614}, {"pitch": 76, "velocity": 11, "note_on_time": 4.462, "note_off_time": 4.719}, {"pitch": 72, "velocity": 39, "note_on_time": 4.36, "note_off_time": 4.737}, {"pitch": 76, "velocity": 24, "note_on_time": 5.587, "note_off_time": 5.835}, {"pitch": 72, "velocity": 27, "note_on_time": 5.553, "note_off_time": 5.857}, {"pitch": 74, "velocity": 39, "note_on_time": 6.728, "note_off_time": 7.087}, {"pitch": 77, "velocity": 35, "note_on_time": 6.663, "note_off_time": 7.153}, {"pitch": 74, "velocity": 28, "note_on_time": 7.968, "note_off_time": 8.298}, {"pitch": 77, "velocity": 31, "note_on_time": 7.974, "note_off_time": 8.395}, {"pitch": 74, "velocity": 20, "note_on_time": 9.125, "note_off_time": 9.41}, {"pitch": 77, "velocity": 5, "note_on_time": 9.189, "note_off_time": 9.492}, {"pitch": 76, "velocity": 41, "note_on_time": 10.237, "note_off_time": 10.867}, {"pitch": 79, "velocity": 27, "note_on_time": 11.582, "note_off_time": 12.155}, {"pitch": 76, "velocity": 19, "note_on_time": 12.841, "note_off_time": 13.335}, {"pitch": 79, "velocity": 31, "note_on_time": 14.095, "note_off_time": 14.502}, {"pitch": 72, "velocity": 13, "note_on_time": 15.293, "note_off_time": 15.905}, {"pitch": 76, "velocity": 33, "note_on_time": 16.563, "note_off_time": 17.057}, {"pitch": 72, "velocity": 15, "note_on_time": 16.646, "note_off_time": 17.104}, {"pitch": 76, "velocity": 30, "note_on_time": 17.79, "note_off_time": 18.203}, {"pitch": 72, "velocity": 39, "note_on_time": 17.801, "note_off_time": 18.211}, {"pitch": 74, "velocity": 48, "note_on_time": 18.939, "note_off_time": 19.397}, {"pitch": 77, "velocity": 30, "note_on_time": 19.011, "note_off_time": 19.406}, {"pitch": 74, "velocity": 1, "note_on_time": 20.101, "note_off_time": 20.678}, {"pitch": 76, "velocity": 23, "note_on_time": 21.411, "note_off_time": 21.944}, {"pitch": 74, "velocity": 42, "note_on_time": 22.607, "note_off_time": 23.005}, {"pitch": 72, "velocity": 30, "note_on_time": 23.908, "note_off_time": 24.304}, {"pitch": 72, "velocity": 24, "note_on_time": 25.038, "note_off_time": 25.49}, {"pitch": 76, "velocity": 25, "note_on_time": 26.257, "note_off_time": 26.786}, {"pitch": 77, "velocity": 7, "note_on_time": 27.662, "note_off_time": 27.981}, {"pitch": 79, "velocity": 37, "note_on_time": 27.527, "note_off_time": 28.147}, {"pitch": 77, "velocity": 31, "note_on_time": 28.774, "note_off_time": 29.23}, {"pitch": 79, "velocity": 21, "note_on_time": 30.002, "note_off_time": 30.551}, {"pitch": 77, "velocity": 34, "note_on_time": 31.192, "note_off_time": 31.692}, {"pitch": 72, "velocity": 37, "note_on_time": 32.445, "note_off_time": 32.849}, {"pitch": 74, "velocity": 29, "note_on_time": 33.645, "note_off_time": 34.044}, {"pitch": 77, "velocity": 12, "note_on_time": 34.957, "note_off_time": 35.25}, {"pitch": 74, "velocity": 42, "note_on_time": 36.105, "note_off_time": 36.46}, {"pitch": 77, "velocity": 30, "note_on_time": 36.073, "note_off_time": 36.466}, {"pitch": 79, "velocity": 7, "note_on_time": 37.414, "note_off_time": 37.812}, {"pitch": 76, "velocity": 36, "note_on_time": 38.552, "note_off_time": 38.951}, {"pitch": 79, "velocity": 23, "note_on_time": 38.563, "note_off_time": 38.961}, {"pitch": 71, "velocity": 30, "note_on_time": 39.829, "note_off_time": 40.251}, {"pitch": 74, "velocity": 36, "note_on_time": 39.781, "note_off_time": 40.266}, {"pitch": 71, "velocity": 15, "note_on_time": 41.006, "note_off_time": 41.299}, {"pitch": 74, "velocity": 3, "note_on_time": 41.129, "note_off_time": 41.367}, {"pitch": 72, "velocity": 35, "note_on_time": 42.11, "note_off_time": 42.669}, {"pitch": 76, "velocity": 44, "note_on_time": 42.092, "note_off_time": 42.67}, {"pitch": 72, "velocity": 8, "note_on_time": 43.457, "note_off_time": 43.807}, {"pitch": 76, "velocity": 10, "note_on_time": 43.442, "note_off_time": 43.844}, {"pitch": 71, "velocity": 41, "note_on_time": 44.622, "note_off_time": 45.024}, {"pitch": 72, "velocity": 25, "note_on_time": 45.825, "note_off_time": 46.239}, {"pitch": 74, "velocity": 22, "note_on_time": 47.1, "note_off_time": 47.573}, {"pitch": 74, "velocity": 12, "note_on_time": 48.292, "note_off_time": 48.743}, {"pitch": 76, "velocity": 19, "note_on_time": 49.446, "note_off_time": 49.989}, {"pitch": 77, "velocity": 31, "note_on_time": 50.713, "note_off_time": 51.181}, {"pitch": 77, "velocity": 1, "note_on_time": 51.959, "note_off_time": 52.428}, {"pitch": 77, "velocity": 9, "note_on_time": 53.179, "note_off_time": 53.764}, {"pitch": 77, "velocity": 1, "note_on_time": 54.364, "note_off_time": 54.768}, {"pitch": 76, "velocity": 27, "note_on_time": 55.546, "note_off_time": 55.993}, {"pitch": 76, "velocity": 1, "note_on_time": 56.851, "note_off_time": 57.211}, {"pitch": 72, "velocity": 41, "note_on_time": 57.944, "note_off_time": 58.399}, {"pitch": 72, "velocity": 24, "note_on_time": 59.224, "note_off_time": 59.66}, {"pitch": 72, "velocity": 9, "note_on_time": 60.459, "note_off_time": 60.735}, {"pitch": 72, "velocity": 29, "note_on_time": 61.707, "note_off_time": 62.157}, {"pitch": 76, "velocity": 27, "note_on_time": 61.668, "note_off_time": 62.201}, {"pitch": 74, "velocity": 13, "note_on_time": 62.858, "note_off_time": 63.367}, {"pitch": 74, "velocity": 23, "note_on_time": 64.152, "note_off_time": 64.542}, {"pitch": 72, "velocity": 27, "note_on_time": 65.332, "note_off_time": 65.754}, {"pitch": 76, "velocity": 9, "note_on_time": 65.365, "note_off_time": 65.82}, {"pitch": 72, "velocity": 20, "note_on_time": 66.603, "note_off_time": 66.882}, {"pitch": 76, "velocity": 7, "note_on_time": 66.638, "note_off_time": 67.122}, {"pitch": 74, "velocity": 9, "note_on_time": 67.751, "note_off_time": 68.234}, {"pitch": 74, "velocity": 47, "note_on_time": 71.62, "note_off_time": 71.932}, {"pitch": 72, "velocity": 35, "note_on_time": 72.708, "note_off_time": 73.112}, {"pitch": 76, "velocity": 13, "note_on_time": 75.148, "note_off_time": 75.557}, {"pitch": 74, "velocity": 5, "note_on_time": 76.397, "note_off_time": 76.819}, {"pitch": 72, "velocity": 17, "note_on_time": 77.542, "note_off_time": 77.92}, {"pitch": 77, "velocity": 30, "note_on_time": 78.67, "note_off_time": 79.134}, {"pitch": 74, "velocity": 14, "note_on_time": 79.954, "note_off_time": 80.338}, {"pitch": 72, "velocity": 14, "note_on_time": 81.143, "note_off_time": 81.397}, {"pitch": 76, "velocity": 28, "note_on_time": 82.34, "note_off_time": 82.638}, {"pitch": 74, "velocity": 18, "note_on_time": 83.603, "note_off_time": 83.847}, {"pitch": 72, "velocity": 1, "note_on_time": 84.776, "note_off_time": 85.146}, {"pitch": 79, "velocity": 22, "note_on_time": 86.071, "note_off_time": 86.529}, {"pitch": 77, "velocity": 14, "note_on_time": 87.28, "note_off_time": 87.65}, {"pitch": 76, "velocity": 15, "note_on_time": 88.506, "note_off_time": 88.94}, {"pitch": 77, "velocity": 27, "note_on_time": 89.685, "note_off_time": 90.209}, {"pitch": 76, "velocity": 19, "note_on_time": 90.837, "note_off_time": 91.333}, {"pitch": 79, "velocity": 1, "note_on_time": 92.187, "note_off_time": 92.593}, {"pitch": 77, "velocity": 14, "note_on_time": 93.412, "note_off_time": 93.814}, {"pitch": 76, "velocity": 12, "note_on_time": 94.489, "note_off_time": 94.955}, {"pitch": 77, "velocity": 21, "note_on_time": 95.772, "note_off_time": 96.189}, {"pitch": 79, "velocity": 27, "note_on_time": 96.972, "note_off_time": 97.421}, {"pitch": 76, "velocity": 11, "note_on_time": 98.141, "note_off_time": 98.511}, {"pitch": 77, "velocity": 13, "note_on_time": 99.478, "note_off_time": 99.842}, {"pitch": 77, "velocity": 37, "note_on_time": 101.841, "note_off_time": 102.304}, {"pitch": 74, "velocity": 15, "note_on_time": 103.135, "note_off_time": 103.541}, {"pitch": 77, "velocity": 17, "note_on_time": 104.262, "note_off_time": 104.799}, {"pitch": 74, "velocity": 24, "note_on_time": 105.472, "note_off_time": 105.864}, {"pitch": 77, "velocity": 20, "note_on_time": 106.738, "note_off_time": 107.167}, {"pitch": 74, "velocity": 36, "note_on_time": 107.938, "note_off_time": 108.269}, {"pitch": 77, "velocity": 9, "note_on_time": 109.241, "note_off_time": 109.624}, {"pitch": 74, "velocity": 23, "note_on_time": 110.309, "note_off_time": 110.703}, {"pitch": 76, "velocity": 1, "note_on_time": 111.542, "note_off_time": 111.941}, {"pitch": 72, "velocity": 37, "note_on_time": 112.769, "note_off_time": 113.112}, {"pitch": 76, "velocity": 17, "note_on_time": 113.994, "note_off_time": 114.362}, {"pitch": 72, "velocity": 24, "note_on_time": 115.192, "note_off_time": 115.667}, {"pitch": 76, "velocity": 13, "note_on_time": 116.416, "note_off_time": 116.757}, {"pitch": 72, "velocity": 10, "note_on_time": 117.637, "note_off_time": 118.055}, {"pitch": 74, "velocity": 27, "note_on_time": 118.811, "note_off_time": 119.303}, {"pitch": 77, "velocity": 26, "note_on_time": 120.082, "note_off_time": 120.519}, {"pitch": 74, "velocity": 23, "note_on_time": 121.302, "note_off_time": 121.606}, {"pitch": 77, "velocity": 31, "note_on_time": 122.485, "note_off_time": 122.876}, {"pitch": 74, "velocity": 19, "note_on_time": 123.689, "note_off_time": 124.048}, {"pitch": 77, "velocity": 22, "note_on_time": 124.94, "note_off_time": 125.279}, {"pitch": 74, "velocity": 26, "note_on_time": 126.134, "note_off_time": 126.543}, {"pitch": 79, "velocity": 1, "note_on_time": 127.484, "note_off_time": 127.855}, {"pitch": 74, "velocity": 21, "note_on_time": 128.627, "note_off_time": 129.095}, {"pitch": 79, "velocity": 14, "note_on_time": 129.797, "note_off_time": 130.147}, {"pitch": 72, "velocity": 18, "note_on_time": 131.035, "note_off_time": 131.368}, {"pitch": 79, "velocity": 12, "note_on_time": 132.267, "note_off_time": 132.71}, {"pitch": 72, "velocity": 31, "note_on_time": 133.46, "note_off_time": 133.959}, {"pitch": 79, "velocity": 26, "note_on_time": 134.707, "note_off_time": 135.202}, {"pitch": 72, "velocity": 36, "note_on_time": 135.969, "note_off_time": 136.35}, {"pitch": 79, "velocity": 23, "note_on_time": 137.176, "note_off_time": 137.59}, {"pitch": 71, "velocity": 20, "note_on_time": 138.425, "note_off_time": 138.825}, {"pitch": 74, "velocity": 1, "note_on_time": 139.633, "note_off_time": 140.14}, {"pitch": 72, "velocity": 31, "note_on_time": 140.81, "note_off_time": 141.277}, {"pitch": 79, "velocity": 28, "note_on_time": 142.002, "note_off_time": 142.486}, {"pitch": 72, "velocity": 30, "note_on_time": 143.214, "note_off_time": 143.702}, {"pitch": 79, "velocity": 21, "note_on_time": 144.487, "note_off_time": 144.979}, {"pitch": 72, "velocity": 19, "note_on_time": 145.647, "note_off_time": 146.099}, {"pitch": 77, "velocity": 27, "note_on_time": 146.836, "note_off_time": 147.281}, {"pitch": 74, "velocity": 17, "note_on_time": 148.117, "note_off_time": 148.578}, {"pitch": 77, "velocity": 25, "note_on_time": 149.271, "note_off_time": 149.75}, {"pitch": 74, "velocity": 23, "note_on_time": 150.599, "note_off_time": 151.118}, {"pitch": 77, "velocity": 20, "note_on_time": 151.75, "note_off_time": 152.185}, {"pitch": 76, "velocity": 34, "note_on_time": 154.22, "note_off_time": 154.717}, {"pitch": 72, "velocity": 36, "note_on_time": 155.5, "note_off_time": 155.935}, {"pitch": 76, "velocity": 31, "note_on_time": 156.653, "note_off_time": 157.073}, {"pitch": 76, "velocity": 20, "note_on_time": 157.809, "note_off_time": 158.207}, {"pitch": 77, "velocity": 22, "note_on_time": 159.075, "note_off_time": 159.458}, {"pitch": 77, "velocity": 23, "note_on_time": 160.244, "note_off_time": 160.715}, {"pitch": 77, "velocity": 30, "note_on_time": 161.447, "note_off_time": 161.922}, {"pitch": 76, "velocity": 20, "note_on_time": 162.673, "note_off_time": 163.215}, {"pitch": 76, "velocity": 22, "note_on_time": 163.883, "note_off_time": 164.293}, {"pitch": 74, "velocity": 27, "note_on_time": 165.129, "note_off_time": 165.562}, {"pitch": 77, "velocity": 48, "note_on_time": 166.331, "note_off_time": 166.841}, {"pitch": 74, "velocity": 27, "note_on_time": 167.562, "note_off_time": 167.911}, {"pitch": 77, "velocity": 23, "note_on_time": 168.784, "note_off_time": 169.217}, {"pitch": 79, "velocity": 27, "note_on_time": 169.968, "note_off_time": 170.374}, {"pitch": 79, "velocity": 20, "note_on_time": 171.333, "note_off_time": 171.706}, {"pitch": 79, "velocity": 27, "note_on_time": 173.585, "note_off_time": 173.924}, {"pitch": 76, "velocity": 28, "note_on_time": 174.854, "note_off_time": 175.114}, {"pitch": 79, "velocity": 26, "note_on_time": 176.058, "note_off_time": 176.408}, {"pitch": 76, "velocity": 27, "note_on_time": 177.207, "note_off_time": 177.693}, {"pitch": 77, "velocity": 25, "note_on_time": 178.528, "note_off_time": 178.861}, {"pitch": 74, "velocity": 29, "note_on_time": 179.696, "note_off_time": 180.006}, {"pitch": 77, "velocity": 13, "note_on_time": 180.92, "note_off_time": 181.169}, {"pitch": 74, "velocity": 37, "note_on_time": 182.162, "note_off_time": 182.502}, {"pitch": 76, "velocity": 35, "note_on_time": 183.358, "note_off_time": 183.697}, {"pitch": 72, "velocity": 19, "note_on_time": 184.595, "note_off_time": 184.939}, {"pitch": 76, "velocity": 30, "note_on_time": 185.687, "note_off_time": 186.088}, {"pitch": 72, "velocity": 23, "note_on_time": 187.066, "note_off_time": 187.52}, {"pitch": 77, "velocity": 27, "note_on_time": 188.373, "note_off_time": 188.651}, {"pitch": 74, "velocity": 32, "note_on_time": 189.409, "note_off_time": 189.85}, {"pitch": 76, "velocity": 16, "note_on_time": 190.684, "note_off_time": 191.04}, {"pitch": 72, "velocity": 5, "note_on_time": 191.874, "note_off_time": 192.233}, {"pitch": 76, "velocity": 14, "note_on_time": 193.069, "note_off_time": 193.399}, {"pitch": 72, "velocity": 28, "note_on_time": 194.321, "note_off_time": 194.678}]</notes><guidance name="Guidance Mode">None</guidance><error name="Error value">99</error></trial><trial trial_no="2" timestamp="2024_02_26-10_30_03"><notes name="Played Notes">[{"pitch": 79, "velocity": 42, "note_on_time": 4.248, "note_off_time": 4.432}, {"pitch": 76, "velocity": 46, "note_on_time": 11.866, "note_off_time": 12.056}, {"pitch": 79, "velocity": 57, "note_on_time": 20.435, "note_off_time": 20.616}, {"pitch": 74, "velocity": 32, "note_on_time": 28.05, "note_off_time": 28.181}, {"pitch": 76, "velocity": 32, "note_on_time": 36.337, "note_off_time": 36.558}, {"pitch": 74, "velocity": 32, "note_on_time": 44.415, "note_off_time": 44.601}, {"pitch": 77, "velocity": 18, "note_on_time": 52.073, "note_off_time": 52.622}, {"pitch": 76, "velocity": 42, "note_on_time": 56.365, "note_off_time": 56.831}, {"pitch": 77, "velocity": 43, "note_on_time": 60.913, "note_off_time": 61.823}, {"pitch": 76, "velocity": 43, "note_on_time": 68.373, "note_off_time": 68.962}, {"pitch": 74, "velocity": 35, "note_on_time": 69.644, "note_off_time": 70.477}, {"pitch": 72, "velocity": 43, "note_on_time": 76.383, "note_off_time": 77.054}, {"pitch": 76, "velocity": 30, "note_on_time": 84.612, "note_off_time": 85.531}, {"pitch": 77, "velocity": 31, "note_on_time": 92.126, "note_off_time": 92.749}, {"pitch": 74, "velocity": 28, "note_on_time": 99.985, "note_off_time": 100.704}, {"pitch": 72, "velocity": 52, "note_on_time": 101.5, "note_off_time": 102.177}, {"pitch": 74, "velocity": 53, "note_on_time": 108.643, "note_off_time": 109.317}, {"pitch": 76, "velocity": 24, "note_on_time": 116.408, "note_off_time": 117.151}, {"pitch": 72, "velocity": 54, "note_on_time": 124.962, "note_off_time": 125.924}, {"pitch": 79, "velocity": 54, "note_on_time": 133.034, "note_off_time": 133.576}, {"pitch": 77, "velocity": 26, "note_on_time": 134.161, "note_off_time": 134.849}, {"pitch": 76, "velocity": 52, "note_on_time": 140.651, "note_off_time": 141.106}, {"pitch": 77, "velocity": 61, "note_on_time": 141.849, "note_off_time": 142.936}, {"pitch": 74, "velocity": 36, "note_on_time": 148.367, "note_off_time": 148.836}, {"pitch": 72, "velocity": 55, "note_on_time": 149.416, "note_off_time": 149.909}, {"pitch": 76, "velocity": 47, "note_on_time": 156.626, "note_off_time": 157.039}, {"pitch": 77, "velocity": 46, "note_on_time": 157.447, "note_off_time": 157.808}]</notes><guidance name="Guidance Mode">None</guidance><error name="Error value">99</error></trial><trial trial_no="3" timestamp="2024_02_26-10_38_29"><notes name="Played Notes">[{"pitch": 76, "velocity": 46, "note_on_time": 1.889, "note_off_time": 2.297}, {"pitch": 76, "velocity": 40, "note_on_time": 3.081, "note_off_time": 3.496}, {"pitch": 76, "velocity": 33, "note_on_time": 4.304, "note_off_time": 4.747}, {"pitch": 76, "velocity": 30, "note_on_time": 5.546, "note_off_time": 5.945}, {"pitch": 76, "velocity": 27, "note_on_time": 6.709, "note_off_time": 7.148}, {"pitch": 76, "velocity": 28, "note_on_time": 7.944, "note_off_time": 8.37}, {"pitch": 76, "velocity": 35, "note_on_time": 9.174, "note_off_time": 9.495}, {"pitch": 72, "velocity": 36, "note_on_time": 10.315, "note_off_time": 10.843}, {"pitch": 72, "velocity": 28, "note_on_time": 11.632, "note_off_time": 12.066}, {"pitch": 72, "velocity": 14, "note_on_time": 12.77, "note_off_time": 13.213}, {"pitch": 72, "velocity": 35, "note_on_time": 14.022, "note_off_time": 14.361}, {"pitch": 77, "velocity": 43, "note_on_time": 15.203, "note_off_time": 15.629}, {"pitch": 77, "velocity": 23, "note_on_time": 16.409, "note_off_time": 16.871}, {"pitch": 77, "velocity": 31, "note_on_time": 17.629, "note_off_time": 18.062}, {"pitch": 77, "velocity": 27, "note_on_time": 18.884, "note_off_time": 19.248}, {"pitch": 74, "velocity": 32, "note_on_time": 20.132, "note_off_time": 20.55}, {"pitch": 74, "velocity": 36, "note_on_time": 21.33, "note_off_time": 21.735}, {"pitch": 74, "velocity": 33, "note_on_time": 22.546, "note_off_time": 22.908}, {"pitch": 74, "velocity": 30, "note_on_time": 23.767, "note_off_time": 24.049}, {"pitch": 76, "velocity": 28, "note_on_time": 24.94, "note_off_time": 25.417}, {"pitch": 76, "velocity": 27, "note_on_time": 26.137, "note_off_time": 26.704}, {"pitch": 76, "velocity": 39, "note_on_time": 27.43, "note_off_time": 28.032}, {"pitch": 76, "velocity": 26, "note_on_time": 28.709, "note_off_time": 29.043}, {"pitch": 72, "velocity": 40, "note_on_time": 29.841, "note_off_time": 30.208}, {"pitch": 72, "velocity": 28, "note_on_time": 31.142, "note_off_time": 31.451}, {"pitch": 72, "velocity": 30, "note_on_time": 32.223, "note_off_time": 32.752}, {"pitch": 72, "velocity": 24, "note_on_time": 33.559, "note_off_time": 33.839}, {"pitch": 79, "velocity": 39, "note_on_time": 34.724, "note_off_time": 35.229}, {"pitch": 79, "velocity": 30, "note_on_time": 35.971, "note_off_time": 36.509}, {"pitch": 79, "velocity": 25, "note_on_time": 37.207, "note_off_time": 37.618}, {"pitch": 79, "velocity": 24, "note_on_time": 38.375, "note_off_time": 38.762}, {"pitch": 76, "velocity": 30, "note_on_time": 39.572, "note_off_time": 39.884}, {"pitch": 77, "velocity": 36, "note_on_time": 40.768, "note_off_time": 41.23}, {"pitch": 76, "velocity": 33, "note_on_time": 42.032, "note_off_time": 42.365}, {"pitch": 77, "velocity": 44, "note_on_time": 43.243, "note_off_time": 43.552}, {"pitch": 74, "velocity": 44, "note_on_time": 44.44, "note_off_time": 44.903}, {"pitch": 72, "velocity": 32, "note_on_time": 45.865, "note_off_time": 46.152}, {"pitch": 74, "velocity": 37, "note_on_time": 46.862, "note_off_time": 47.183}, {"pitch": 72, "velocity": 28, "note_on_time": 48.143, "note_off_time": 48.487}, {"pitch": 77, "velocity": 35, "note_on_time": 49.306, "note_off_time": 49.736}, {"pitch": 74, "velocity": 24, "note_on_time": 50.564, "note_off_time": 50.947}, {"pitch": 77, "velocity": 37, "note_on_time": 51.81, "note_off_time": 52.145}, {"pitch": 74, "velocity": 42, "note_on_time": 52.971, "note_off_time": 53.261}, {"pitch": 79, "velocity": 30, "note_on_time": 54.304, "note_off_time": 54.661}, {"pitch": 76, "velocity": 34, "note_on_time": 55.446, "note_off_time": 55.712}, {"pitch": 77, "velocity": 35, "note_on_time": 56.652, "note_off_time": 56.908}, {"pitch": 74, "velocity": 27, "note_on_time": 57.898, "note_off_time": 58.218}, {"pitch": 79, "velocity": 24, "note_on_time": 59.123, "note_off_time": 59.48}, {"pitch": 76, "velocity": 36, "note_on_time": 60.63, "note_off_time": 60.844}, {"pitch": 77, "velocity": 23, "note_on_time": 63.308, "note_off_time": 63.61}, {"pitch": 74, "velocity": 32, "note_on_time": 64.693, "note_off_time": 65.039}, {"pitch": 76, "velocity": 48, "note_on_time": 66.378, "note_off_time": 66.822}, {"pitch": 76, "velocity": 31, "note_on_time": 67.698, "note_off_time": 68.156}, {"pitch": 76, "velocity": 25, "note_on_time": 68.83, "note_off_time": 69.295}, {"pitch": 76, "velocity": 20, "note_on_time": 70.028, "note_off_time": 70.494}, {"pitch": 76, "velocity": 27, "note_on_time": 71.281, "note_off_time": 71.758}, {"pitch": 76, "velocity": 27, "note_on_time": 72.538, "note_off_time": 72.801}, {"pitch": 74, "velocity": 27, "note_on_time": 73.732, "note_off_time": 74.175}, {"pitch": 74, "velocity": 28, "note_on_time": 74.885, "note_off_time": 75.42}, {"pitch": 74, "velocity": 25, "note_on_time": 76.147, "note_off_time": 76.645}, {"pitch": 74, "velocity": 1, "note_on_time": 77.371, "note_off_time": 77.64}, {"pitch": 79, "velocity": 21, "note_on_time": 78.544, "note_off_time": 78.972}, {"pitch": 79, "velocity": 12, "note_on_time": 79.807, "note_off_time": 80.151}, {"pitch": 79, "velocity": 1, "note_on_time": 81.025, "note_off_time": 81.423}, {"pitch": 79, "velocity": 10, "note_on_time": 82.263, "note_off_time": 82.59}, {"pitch": 77, "velocity": 27, "note_on_time": 84.63, "note_off_time": 85.038}, {"pitch": 77, "velocity": 22, "note_on_time": 85.851, "note_off_time": 86.147}, {"pitch": 77, "velocity": 23, "note_on_time": 87.072, "note_off_time": 87.253}, {"pitch": 76, "velocity": 12, "note_on_time": 88.322, "note_off_time": 88.553}, {"pitch": 76, "velocity": 24, "note_on_time": 89.494, "note_off_time": 89.734}, {"pitch": 76, "velocity": 27, "note_on_time": 91.95, "note_off_time": 92.179}, {"pitch": 74, "velocity": 29, "note_on_time": 93.155, "note_off_time": 93.389}, {"pitch": 76, "velocity": 31, "note_on_time": 94.378, "note_off_time": 94.617}, {"pitch": 74, "velocity": 30, "note_on_time": 95.59, "note_off_time": 95.753}, {"pitch": 76, "velocity": 28, "note_on_time": 96.848, "note_off_time": 97.045}, {"pitch": 74, "velocity": 31, "note_on_time": 98.008, "note_off_time": 98.183}, {"pitch": 76, "velocity": 19, "note_on_time": 99.294, "note_off_time": 99.525}, {"pitch": 74, "velocity": 29, "note_on_time": 100.471, "note_off_time": 100.641}, {"pitch": 79, "velocity": 39, "note_on_time": 101.717, "note_off_time": 101.968}, {"pitch": 79, "velocity": 24, "note_on_time": 102.915, "note_off_time": 103.161}, {"pitch": 79, "velocity": 15, "note_on_time": 104.122, "note_off_time": 104.389}, {"pitch": 79, "velocity": 31, "note_on_time": 105.299, "note_off_time": 105.568}, {"pitch": 79, "velocity": 23, "note_on_time": 106.594, "note_off_time": 106.941}, {"pitch": 79, "velocity": 17, "note_on_time": 107.766, "note_off_time": 108.068}, {"pitch": 79, "velocity": 25, "note_on_time": 108.941, "note_off_time": 109.185}, {"pitch": 79, "velocity": 10, "note_on_time": 110.078, "note_off_time": 110.326}, {"pitch": 76, "velocity": 19, "note_on_time": 111.483, "note_off_time": 111.642}, {"pitch": 76, "velocity": 29, "note_on_time": 112.563, "note_off_time": 112.749}, {"pitch": 76, "velocity": 24, "note_on_time": 113.796, "note_off_time": 114.035}, {"pitch": 76, "velocity": 12, "note_on_time": 114.976, "note_off_time": 115.244}, {"pitch": 77, "velocity": 24, "note_on_time": 116.319, "note_off_time": 116.573}, {"pitch": 77, "velocity": 12, "note_on_time": 117.505, "note_off_time": 117.756}, {"pitch": 77, "velocity": 29, "note_on_time": 118.687, "note_off_time": 118.943}, {"pitch": 77, "velocity": 21, "note_on_time": 119.977, "note_off_time": 120.199}, {"pitch": 74, "velocity": 22, "note_on_time": 121.171, "note_off_time": 121.422}, {"pitch": 74, "velocity": 32, "note_on_time": 122.393, "note_off_time": 122.6}, {"pitch": 74, "velocity": 19, "note_on_time": 123.674, "note_off_time": 123.867}, {"pitch": 74, "velocity": 12, "note_on_time": 124.818, "note_off_time": 124.985}, {"pitch": 77, "velocity": 24, "note_on_time": 126.02, "note_off_time": 126.242}, {"pitch": 74, "velocity": 28, "note_on_time": 127.21, "note_off_time": 127.414}, {"pitch": 77, "velocity": 14, "note_on_time": 128.494, "note_off_time": 128.732}, {"pitch": 76, "velocity": 1, "note_on_time": 129.733, "note_off_time": 129.924}, {"pitch": 77, "velocity": 25, "note_on_time": 130.953, "note_off_time": 131.169}, {"pitch": 79, "velocity": 1, "note_on_time": 132.221, "note_off_time": 132.41}, {"pitch": 76, "velocity": 16, "note_on_time": 133.341, "note_off_time": 133.487}, {"pitch": 77, "velocity": 14, "note_on_time": 134.572, "note_off_time": 134.769}, {"pitch": 77, "velocity": 35, "note_on_time": 135.794, "note_off_time": 136.011}, {"pitch": 77, "velocity": 17, "note_on_time": 137.059, "note_off_time": 137.327}, {"pitch": 77, "velocity": 26, "note_on_time": 139.396, "note_off_time": 139.609}, {"pitch": 72, "velocity": 18, "note_on_time": 140.71, "note_off_time": 140.897}, {"pitch": 72, "velocity": 10, "note_on_time": 141.9, "note_off_time": 142.076}, {"pitch": 72, "velocity": 19, "note_on_time": 143.033, "note_off_time": 143.208}, {"pitch": 74, "velocity": 30, "note_on_time": 145.512, "note_off_time": 145.819}, {"pitch": 74, "velocity": 1, "note_on_time": 146.804, "note_off_time": 146.98}, {"pitch": 77, "velocity": 36, "note_on_time": 147.389, "note_off_time": 147.609}, {"pitch": 74, "velocity": 15, "note_on_time": 148.066, "note_off_time": 148.226}, {"pitch": 74, "velocity": 7, "note_on_time": 149.854, "note_off_time": 150.029}, {"pitch": 77, "velocity": 9, "note_on_time": 150.491, "note_off_time": 150.606}, {"pitch": 74, "velocity": 5, "note_on_time": 151.063, "note_off_time": 151.233}, {"pitch": 74, "velocity": 20, "note_on_time": 152.244, "note_off_time": 152.423}, {"pitch": 74, "velocity": 20, "note_on_time": 153.522, "note_off_time": 153.663}, {"pitch": 74, "velocity": 1, "note_on_time": 154.606, "note_off_time": 154.803}, {"pitch": 76, "velocity": 9, "note_on_time": 155.94, "note_off_time": 156.359}, {"pitch": 76, "velocity": 19, "note_on_time": 157.111, "note_off_time": 157.504}, {"pitch": 76, "velocity": 31, "note_on_time": 158.345, "note_off_time": 158.584}, {"pitch": 76, "velocity": 7, "note_on_time": 159.528, "note_off_time": 159.741}, {"pitch": 77, "velocity": 1, "note_on_time": 160.808, "note_off_time": 161.086}, {"pitch": 77, "velocity": 13, "note_on_time": 161.983, "note_off_time": 162.356}, {"pitch": 77, "velocity": 1, "note_on_time": 163.217, "note_off_time": 163.543}, {"pitch": 77, "velocity": 18, "note_on_time": 164.373, "note_off_time": 164.799}, {"pitch": 74, "velocity": 7, "note_on_time": 165.646, "note_off_time": 165.974}, {"pitch": 74, "velocity": 1, "note_on_time": 166.887, "note_off_time": 167.175}, {"pitch": 74, "velocity": 27, "note_on_time": 167.953, "note_off_time": 168.421}, {"pitch": 74, "velocity": 13, "note_on_time": 169.227, "note_off_time": 169.65}, {"pitch": 77, "velocity": 6, "note_on_time": 170.464, "note_off_time": 170.918}, {"pitch": 76, "velocity": 9, "note_on_time": 171.645, "note_off_time": 172.217}, {"pitch": 77, "velocity": 4, "note_on_time": 172.886, "note_off_time": 173.466}, {"pitch": 74, "velocity": 5, "note_on_time": 174.052, "note_off_time": 174.681}, {"pitch": 77, "velocity": 13, "note_on_time": 175.403, "note_off_time": 175.93}, {"pitch": 76, "velocity": 18, "note_on_time": 176.563, "note_off_time": 177.148}, {"pitch": 77, "velocity": 19, "note_on_time": 177.816, "note_off_time": 178.365}, {"pitch": 74, "velocity": 5, "note_on_time": 179.074, "note_off_time": 179.58}, {"pitch": 77, "velocity": 1, "note_on_time": 180.304, "note_off_time": 180.74}, {"pitch": 76, "velocity": 13, "note_on_time": 181.434, "note_off_time": 181.912}, {"pitch": 77, "velocity": 17, "note_on_time": 182.623, "note_off_time": 183.145}, {"pitch": 74, "velocity": 13, "note_on_time": 183.846, "note_off_time": 184.278}, {"pitch": 77, "velocity": 14, "note_on_time": 185.133, "note_off_time": 185.504}, {"pitch": 76, "velocity": 13, "note_on_time": 186.235, "note_off_time": 186.602}, {"pitch": 74, "velocity": 16, "note_on_time": 187.382, "note_off_time": 187.763}, {"pitch": 77, "velocity": 16, "note_on_time": 188.839, "note_off_time": 189.307}, {"pitch": 76, "velocity": 22, "note_on_time": 191.185, "note_off_time": 191.736}, {"pitch": 76, "velocity": 1, "note_on_time": 192.418, "note_off_time": 193.068}, {"pitch": 76, "velocity": 18, "note_on_time": 193.602, "note_off_time": 194.209}]</notes><guidance name="Guidance Mode">None</guidance><error name="Error value">99</error></trial></trials></MIDI>