<MIDI midiNo="2024_03_11-11_29_47"><target_notes><notes name="Note List">[{"pitch": 60, "velocity": 40, "note_on_time": 0.009, "note_off_time": 1.012}, {"pitch": 64, "velocity": 40, "note_on_time": 0.01, "note_off_time": 1.012}, {"pitch": 67, "velocity": 40, "note_on_time": 0.01, "note_off_time": 1.013}, {"pitch": 48, "velocity": 40, "note_on_time": 0.01, "note_off_time": 1.013}, {"pitch": 52, "velocity": 40, "note_on_time": 1.013, "note_off_time": 2.027}, {"pitch": 55, "velocity": 40, "note_on_time": 1.013, "note_off_time": 2.027}, {"pitch": 77, "velocity": 40, "note_on_time": 2.026, "note_off_time": 3.032}, {"pitch": 48, "velocity": 40, "note_on_time": 2.027, "note_off_time": 3.033}, {"pitch": 52, "velocity": 40, "note_on_time": 3.033, "note_off_time": 4.039}, {"pitch": 55, "velocity": 40, "note_on_time": 3.033, "note_off_time": 4.039}, {"pitch": 48, "velocity": 40, "note_on_time": 4.04, "note_off_time": 5.049}, {"pitch": 52, "velocity": 40, "note_on_time": 5.049, "note_off_time": 6.061}, {"pitch": 55, "velocity": 40, "note_on_time": 5.049, "note_off_time": 6.061}, {"pitch": 48, "velocity": 40, "note_on_time": 6.061, "note_off_time": 7.065}, {"pitch": 52, "velocity": 40, "note_on_time": 7.065, "note_off_time": 8.072}, {"pitch": 55, "velocity": 40, "note_on_time": 7.065, "note_off_time": 8.072}, {"pitch": 60, "velocity": 40, "note_on_time": 8.071, "note_off_time": 9.085}, {"pitch": 64, "velocity": 40, "note_on_time": 8.071, "note_off_time": 9.086}, {"pitch": 67, "velocity": 40, "note_on_time": 8.072, "note_off_time": 9.087}, {"pitch": 48, "velocity": 40, "note_on_time": 8.072, "note_off_time": 9.087}, {"pitch": 52, "velocity": 40, "note_on_time": 9.087, "note_off_time": 10.1}, {"pitch": 55, "velocity": 40, "note_on_time": 9.087, "note_off_time": 10.1}, {"pitch": 74, "velocity": 40, "note_on_time": 10.1, "note_off_time": 11.102}, {"pitch": 48, "velocity": 40, "note_on_time": 10.1, "note_off_time": 11.102}, {"pitch": 52, "velocity": 40, "note_on_time": 11.102, "note_off_time": 12.105}, {"pitch": 55, "velocity": 40, "note_on_time": 11.102, "note_off_time": 12.105}, {"pitch": 48, "velocity": 40, "note_on_time": 12.105, "note_off_time": 13.112}, {"pitch": 52, "velocity": 40, "note_on_time": 13.112, "note_off_time": 14.124}, {"pitch": 55, "velocity": 40, "note_on_time": 13.112, "note_off_time": 14.124}, {"pitch": 48, "velocity": 40, "note_on_time": 14.124, "note_off_time": 15.132}, {"pitch": 52, "velocity": 40, "note_on_time": 15.132, "note_off_time": 16.147}, {"pitch": 55, "velocity": 40, "note_on_time": 15.132, "note_off_time": 16.147}, {"pitch": 60, "velocity": 40, "note_on_time": 16.145, "note_off_time": 17.15}, {"pitch": 64, "velocity": 40, "note_on_time": 16.146, "note_off_time": 17.151}, {"pitch": 67, "velocity": 40, "note_on_time": 16.147, "note_off_time": 17.152}, {"pitch": 48, "velocity": 40, "note_on_time": 16.147, "note_off_time": 17.152}, {"pitch": 52, "velocity": 40, "note_on_time": 17.152, "note_off_time": 18.168}, {"pitch": 55, "velocity": 40, "note_on_time": 17.152, "note_off_time": 18.169}, {"pitch": 76, "velocity": 40, "note_on_time": 18.168, "note_off_time": 19.173}, {"pitch": 48, "velocity": 40, "note_on_time": 18.169, "note_off_time": 19.173}, {"pitch": 52, "velocity": 40, "note_on_time": 19.173, "note_off_time": 20.187}, {"pitch": 55, "velocity": 40, "note_on_time": 19.173, "note_off_time": 20.187}, {"pitch": 48, "velocity": 40, "note_on_time": 20.187, "note_off_time": 21.195}, {"pitch": 52, "velocity": 40, "note_on_time": 21.195, "note_off_time": 22.21}, {"pitch": 55, "velocity": 40, "note_on_time": 21.195, "note_off_time": 22.21}, {"pitch": 48, "velocity": 40, "note_on_time": 22.21, "note_off_time": 23.214}, {"pitch": 52, "velocity": 40, "note_on_time": 23.214, "note_off_time": 24.225}, {"pitch": 55, "velocity": 40, "note_on_time": 23.214, "note_off_time": 24.225}, {"pitch": 60, "velocity": 40, "note_on_time": 24.223, "note_off_time": 25.239}, {"pitch": 64, "velocity": 40, "note_on_time": 24.224, "note_off_time": 25.24}, {"pitch": 67, "velocity": 40, "note_on_time": 24.224, "note_off_time": 25.241}, {"pitch": 48, "velocity": 40, "note_on_time": 24.225, "note_off_time": 25.241}, {"pitch": 52, "velocity": 40, "note_on_time": 25.241, "note_off_time": 26.253}, {"pitch": 55, "velocity": 40, "note_on_time": 25.241, "note_off_time": 26.253}, {"pitch": 77, "velocity": 40, "note_on_time": 26.253, "note_off_time": 27.255}, {"pitch": 48, "velocity": 40, "note_on_time": 26.253, "note_off_time": 27.255}, {"pitch": 52, "velocity": 40, "note_on_time": 27.255, "note_off_time": 28.258}, {"pitch": 55, "velocity": 40, "note_on_time": 27.255, "note_off_time": 28.258}, {"pitch": 48, "velocity": 40, "note_on_time": 28.258, "note_off_time": 29.268}, {"pitch": 52, "velocity": 40, "note_on_time": 29.268, "note_off_time": 30.281}, {"pitch": 55, "velocity": 40, "note_on_time": 29.268, "note_off_time": 30.281}, {"pitch": 48, "velocity": 40, "note_on_time": 30.282, "note_off_time": 31.282}, {"pitch": 52, "velocity": 40, "note_on_time": 31.282, "note_off_time": 32.3}, {"pitch": 55, "velocity": 40, "note_on_time": 31.282, "note_off_time": 32.3}, {"pitch": 60, "velocity": 40, "note_on_time": 32.298, "note_off_time": 33.304}, {"pitch": 64, "velocity": 40, "note_on_time": 32.299, "note_off_time": 33.305}, {"pitch": 67, "velocity": 40, "note_on_time": 32.299, "note_off_time": 33.306}, {"pitch": 48, "velocity": 40, "note_on_time": 32.3, "note_off_time": 33.306}, {"pitch": 52, "velocity": 40, "note_on_time": 33.306, "note_off_time": 34.307}, {"pitch": 55, "velocity": 40, "note_on_time": 33.306, "note_off_time": 34.308}, {"pitch": 76, "velocity": 40, "note_on_time": 34.307, "note_off_time": 35.311}, {"pitch": 48, "velocity": 40, "note_on_time": 34.308, "note_off_time": 35.311}, {"pitch": 52, "velocity": 40, "note_on_time": 35.312, "note_off_time": 36.327}, {"pitch": 55, "velocity": 40, "note_on_time": 35.312, "note_off_time": 36.327}, {"pitch": 48, "velocity": 40, "note_on_time": 36.327, "note_off_time": 37.335}, {"pitch": 52, "velocity": 40, "note_on_time": 37.335, "note_off_time": 38.348}, {"pitch": 55, "velocity": 40, "note_on_time": 37.335, "note_off_time": 38.348}, {"pitch": 48, "velocity": 40, "note_on_time": 38.348, "note_off_time": 39.352}, {"pitch": 52, "velocity": 40, "note_on_time": 39.352, "note_off_time": 40.356}, {"pitch": 55, "velocity": 40, "note_on_time": 39.352, "note_off_time": 40.356}, {"pitch": 60, "velocity": 40, "note_on_time": 40.354, "note_off_time": 41.361}, {"pitch": 64, "velocity": 40, "note_on_time": 40.355, "note_off_time": 41.362}, {"pitch": 67, "velocity": 40, "note_on_time": 40.355, "note_off_time": 41.363}, {"pitch": 79, "velocity": 40, "note_on_time": 42.364, "note_off_time": 43.38}, {"pitch": 60, "velocity": 40, "note_on_time": 48.396, "note_off_time": 49.406}, {"pitch": 64, "velocity": 40, "note_on_time": 48.397, "note_off_time": 49.407}, {"pitch": 67, "velocity": 40, "note_on_time": 48.397, "note_off_time": 49.408}, {"pitch": 76, "velocity": 40, "note_on_time": 50.41, "note_off_time": 51.425}, {"pitch": 60, "velocity": 40, "note_on_time": 56.438, "note_off_time": 57.454}, {"pitch": 64, "velocity": 40, "note_on_time": 56.439, "note_off_time": 57.455}, {"pitch": 67, "velocity": 40, "note_on_time": 56.44, "note_off_time": 57.456}, {"pitch": 72, "velocity": 40, "note_on_time": 58.463, "note_off_time": 59.467}, {"pitch": 60, "velocity": 40, "note_on_time": 64.481, "note_off_time": 65.482}, {"pitch": 64, "velocity": 40, "note_on_time": 64.482, "note_off_time": 65.484}, {"pitch": 67, "velocity": 40, "note_on_time": 64.482, "note_off_time": 65.484}, {"pitch": 74, "velocity": 40, "note_on_time": 66.489, "note_off_time": 67.494}, {"pitch": 60, "velocity": 40, "note_on_time": 72.504, "note_off_time": 73.517}, {"pitch": 64, "velocity": 40, "note_on_time": 72.504, "note_off_time": 73.518}, {"pitch": 67, "velocity": 40, "note_on_time": 72.505, "note_off_time": 73.519}, {"pitch": 72, "velocity": 40, "note_on_time": 74.521, "note_off_time": 75.525}, {"pitch": 60, "velocity": 40, "note_on_time": 80.528, "note_off_time": 81.534}, {"pitch": 64, "velocity": 40, "note_on_time": 80.529, "note_off_time": 81.535}, {"pitch": 67, "velocity": 40, "note_on_time": 80.53, "note_off_time": 81.536}, {"pitch": 77, "velocity": 40, "note_on_time": 82.545, "note_off_time": 83.548}, {"pitch": 60, "velocity": 40, "note_on_time": 88.552, "note_off_time": 89.568}, {"pitch": 64, "velocity": 40, "note_on_time": 88.553, "note_off_time": 89.569}, {"pitch": 67, "velocity": 40, "note_on_time": 88.553, "note_off_time": 89.57}, {"pitch": 74, "velocity": 40, "note_on_time": 90.573, "note_off_time": 91.579}, {"pitch": 60, "velocity": 40, "note_on_time": 96.59, "note_off_time": 97.593}, {"pitch": 64, "velocity": 40, "note_on_time": 96.591, "note_off_time": 97.594}, {"pitch": 67, "velocity": 40, "note_on_time": 96.591, "note_off_time": 97.595}, {"pitch": 72, "velocity": 40, "note_on_time": 98.6, "note_off_time": 99.61}, {"pitch": 60, "velocity": 40, "note_on_time": 104.612, "note_off_time": 105.627}, {"pitch": 64, "velocity": 40, "note_on_time": 104.612, "note_off_time": 105.628}, {"pitch": 67, "velocity": 40, "note_on_time": 104.613, "note_off_time": 105.628}, {"pitch": 79, "velocity": 40, "note_on_time": 106.642, "note_off_time": 107.649}, {"pitch": 60, "velocity": 40, "note_on_time": 112.655, "note_off_time": 113.672}, {"pitch": 64, "velocity": 40, "note_on_time": 112.657, "note_off_time": 113.672}, {"pitch": 67, "velocity": 40, "note_on_time": 112.657, "note_off_time": 113.672}, {"pitch": 77, "velocity": 40, "note_on_time": 114.684, "note_off_time": 115.692}, {"pitch": 60, "velocity": 40, "note_on_time": 120.694, "note_off_time": 121.709}, {"pitch": 64, "velocity": 40, "note_on_time": 120.695, "note_off_time": 121.71}, {"pitch": 67, "velocity": 40, "note_on_time": 120.696, "note_off_time": 121.711}, {"pitch": 72, "velocity": 40, "note_on_time": 122.718, "note_off_time": 123.719}, {"pitch": 60, "velocity": 40, "note_on_time": 128.725, "note_off_time": 129.737}, {"pitch": 64, "velocity": 40, "note_on_time": 128.726, "note_off_time": 129.738}, {"pitch": 67, "velocity": 40, "note_on_time": 128.727, "note_off_time": 129.738}, {"pitch": 76, "velocity": 40, "note_on_time": 130.748, "note_off_time": 131.753}, {"pitch": 60, "velocity": 40, "note_on_time": 136.763, "note_off_time": 137.767}, {"pitch": 64, "velocity": 40, "note_on_time": 136.763, "note_off_time": 137.767}, {"pitch": 67, "velocity": 40, "note_on_time": 136.764, "note_off_time": 137.768}, {"pitch": 79, "velocity": 40, "note_on_time": 138.77, "note_off_time": 139.781}, {"pitch": 60, "velocity": 40, "note_on_time": 144.783, "note_off_time": 145.792}, {"pitch": 64, "velocity": 40, "note_on_time": 144.784, "note_off_time": 145.794}, {"pitch": 67, "velocity": 40, "note_on_time": 144.784, "note_off_time": 145.794}, {"pitch": 74, "velocity": 40, "note_on_time": 146.797, "note_off_time": 147.8}, {"pitch": 60, "velocity": 40, "note_on_time": 152.812, "note_off_time": 153.829}, {"pitch": 64, "velocity": 40, "note_on_time": 152.813, "note_off_time": 153.829}, {"pitch": 67, "velocity": 40, "note_on_time": 152.813, "note_off_time": 153.83}, {"pitch": 79, "velocity": 40, "note_on_time": 154.84, "note_off_time": 155.855}, {"pitch": 60, "velocity": 40, "note_on_time": 160.859, "note_off_time": 161.874}, {"pitch": 64, "velocity": 40, "note_on_time": 160.86, "note_off_time": 161.875}, {"pitch": 67, "velocity": 40, "note_on_time": 160.86, "note_off_time": 161.876}, {"pitch": 77, "velocity": 40, "note_on_time": 162.884, "note_off_time": 163.895}]</notes><options name="Option List">((4, 4), [0.5, 0.25], 3, 8, &lt;NoteRangePerHand.TWO_NOTES: 3&gt;, &lt;NoteRangePerHand.ONE_NOTE: 2&gt;, False, True, True, 100)</options></target_notes><trials><trial trial_no="1" timestamp="2024_03_11-11_27_03"><notes name="Played Notes">[{"pitch": 76, "velocity": 67, "note_on_time": 1.987, "note_off_time": 2.355}, {"pitch": 77, "velocity": 59, "note_on_time": 3.109, "note_off_time": 3.455}, {"pitch": 79, "velocity": 56, "note_on_time": 4.184, "note_off_time": 4.474}, {"pitch": 74, "velocity": 39, "note_on_time": 5.722, "note_off_time": 5.978}, {"pitch": 74, "velocity": 64, "note_on_time": 11.252, "note_off_time": 11.501}, {"pitch": 77, "velocity": 16, "note_on_time": 14.593, "note_off_time": 14.815}, {"pitch": 72, "velocity": 53, "note_on_time": 19.703, "note_off_time": 19.884}, {"pitch": 74, "velocity": 1, "note_on_time": 21.244, "note_off_time": 21.451}, {"pitch": 74, "velocity": 60, "note_on_time": 21.975, "note_off_time": 22.176}, {"pitch": 77, "velocity": 1, "note_on_time": 23.848, "note_off_time": 24.145}, {"pitch": 77, "velocity": 52, "note_on_time": 26.03, "note_off_time": 26.332}, {"pitch": 79, "velocity": 35, "note_on_time": 28.431, "note_off_time": 28.694}, {"pitch": 74, "velocity": 50, "note_on_time": 36.747, "note_off_time": 36.891}, {"pitch": 76, "velocity": 37, "note_on_time": 38.827, "note_off_time": 39.104}, {"pitch": 76, "velocity": 55, "note_on_time": 43.173, "note_off_time": 43.397}, {"pitch": 72, "velocity": 43, "note_on_time": 45.744, "note_off_time": 46.074}, {"pitch": 76, "velocity": 26, "note_on_time": 46.753, "note_off_time": 47.032}, {"pitch": 76, "velocity": 60, "note_on_time": 52.704, "note_off_time": 52.932}, {"pitch": 77, "velocity": 32, "note_on_time": 53.836, "note_off_time": 54.08}, {"pitch": 77, "velocity": 29, "note_on_time": 57.431, "note_off_time": 57.647}, {"pitch": 77, "velocity": 49, "note_on_time": 60.461, "note_off_time": 60.722}, {"pitch": 79, "velocity": 39, "note_on_time": 61.352, "note_off_time": 61.643}, {"pitch": 77, "velocity": 48, "note_on_time": 68.441, "note_off_time": 68.721}, {"pitch": 77, "velocity": 41, "note_on_time": 76.699, "note_off_time": 77.152}, {"pitch": 79, "velocity": 47, "note_on_time": 77.759, "note_off_time": 78.217}, {"pitch": 76, "velocity": 64, "note_on_time": 79.172, "note_off_time": 79.454}, {"pitch": 74, "velocity": 55, "note_on_time": 80.533, "note_off_time": 80.718}, {"pitch": 74, "velocity": 48, "note_on_time": 86.673, "note_off_time": 86.87}, {"pitch": 74, "velocity": 67, "note_on_time": 89.834, "note_off_time": 90.072}, {"pitch": 77, "velocity": 66, "note_on_time": 91.209, "note_off_time": 91.392}, {"pitch": 79, "velocity": 51, "note_on_time": 92.782, "note_off_time": 93.01}, {"pitch": 76, "velocity": 66, "note_on_time": 94.649, "note_off_time": 94.895}, {"pitch": 74, "velocity": 64, "note_on_time": 100.767, "note_off_time": 100.981}, {"pitch": 77, "velocity": 48, "note_on_time": 101.943, "note_off_time": 102.136}, {"pitch": 79, "velocity": 49, "note_on_time": 103.816, "note_off_time": 104.089}, {"pitch": 76, "velocity": 39, "note_on_time": 108.542, "note_off_time": 108.759}, {"pitch": 74, "velocity": 58, "note_on_time": 117.356, "note_off_time": 117.576}, {"pitch": 77, "velocity": 26, "note_on_time": 118.826, "note_off_time": 119.123}, {"pitch": 79, "velocity": 39, "note_on_time": 120.454, "note_off_time": 120.849}, {"pitch": 79, "velocity": 45, "note_on_time": 124.557, "note_off_time": 124.853}, {"pitch": 76, "velocity": 45, "note_on_time": 125.861, "note_off_time": 126.15}, {"pitch": 74, "velocity": 48, "note_on_time": 129.693, "note_off_time": 129.851}, {"pitch": 76, "velocity": 61, "note_on_time": 132.373, "note_off_time": 132.579}, {"pitch": 77, "velocity": 44, "note_on_time": 136.01, "note_off_time": 136.332}, {"pitch": 77, "velocity": 55, "note_on_time": 140.246, "note_off_time": 140.524}, {"pitch": 79, "velocity": 30, "note_on_time": 141.762, "note_off_time": 142.013}, {"pitch": 79, "velocity": 24, "note_on_time": 148.315, "note_off_time": 148.633}, {"pitch": 77, "velocity": 37, "note_on_time": 150.155, "note_off_time": 150.564}, {"pitch": 77, "velocity": 52, "note_on_time": 156.206, "note_off_time": 156.436}]</notes><guidance name="Guidance Mode">None</guidance><error name="Error value">99</error></trial></trials></MIDI>