<MIDI midiNo="2024_03_04-17_38_41"><target_notes><notes name="Note List">[{"pitch": 60, "velocity": 40, "note_on_time": 0.01, "note_off_time": 1.012}, {"pitch": 64, "velocity": 40, "note_on_time": 0.01, "note_off_time": 1.013}, {"pitch": 67, "velocity": 40, "note_on_time": 0.01, "note_off_time": 1.014}, {"pitch": 48, "velocity": 40, "note_on_time": 0.01, "note_off_time": 1.014}, {"pitch": 52, "velocity": 40, "note_on_time": 1.014, "note_off_time": 2.019}, {"pitch": 55, "velocity": 40, "note_on_time": 1.014, "note_off_time": 2.02}, {"pitch": 76, "velocity": 40, "note_on_time": 2.019, "note_off_time": 3.028}, {"pitch": 48, "velocity": 40, "note_on_time": 2.02, "note_off_time": 3.029}, {"pitch": 52, "velocity": 40, "note_on_time": 3.029, "note_off_time": 4.035}, {"pitch": 55, "velocity": 40, "note_on_time": 3.029, "note_off_time": 4.035}, {"pitch": 48, "velocity": 40, "note_on_time": 4.035, "note_off_time": 5.039}, {"pitch": 52, "velocity": 40, "note_on_time": 5.039, "note_off_time": 6.05}, {"pitch": 55, "velocity": 40, "note_on_time": 5.039, "note_off_time": 6.05}, {"pitch": 48, "velocity": 40, "note_on_time": 6.05, "note_off_time": 7.059}, {"pitch": 52, "velocity": 40, "note_on_time": 7.059, "note_off_time": 8.065}, {"pitch": 55, "velocity": 40, "note_on_time": 7.059, "note_off_time": 8.065}, {"pitch": 60, "velocity": 40, "note_on_time": 8.063, "note_off_time": 9.073}, {"pitch": 64, "velocity": 40, "note_on_time": 8.064, "note_off_time": 9.073}, {"pitch": 67, "velocity": 40, "note_on_time": 8.064, "note_off_time": 9.074}, {"pitch": 48, "velocity": 40, "note_on_time": 8.065, "note_off_time": 9.074}, {"pitch": 52, "velocity": 40, "note_on_time": 9.074, "note_off_time": 10.091}, {"pitch": 55, "velocity": 40, "note_on_time": 9.075, "note_off_time": 10.091}, {"pitch": 79, "velocity": 40, "note_on_time": 10.09, "note_off_time": 11.105}, {"pitch": 48, "velocity": 40, "note_on_time": 10.091, "note_off_time": 11.106}, {"pitch": 52, "velocity": 40, "note_on_time": 11.106, "note_off_time": 12.112}, {"pitch": 55, "velocity": 40, "note_on_time": 11.106, "note_off_time": 12.112}, {"pitch": 48, "velocity": 40, "note_on_time": 12.112, "note_off_time": 13.127}, {"pitch": 52, "velocity": 40, "note_on_time": 13.127, "note_off_time": 14.129}, {"pitch": 55, "velocity": 40, "note_on_time": 13.127, "note_off_time": 14.129}, {"pitch": 48, "velocity": 40, "note_on_time": 14.129, "note_off_time": 15.132}, {"pitch": 52, "velocity": 40, "note_on_time": 15.132, "note_off_time": 16.138}, {"pitch": 55, "velocity": 40, "note_on_time": 15.132, "note_off_time": 16.138}, {"pitch": 60, "velocity": 40, "note_on_time": 16.137, "note_off_time": 17.139}, {"pitch": 64, "velocity": 40, "note_on_time": 16.138, "note_off_time": 17.14}, {"pitch": 67, "velocity": 40, "note_on_time": 16.138, "note_off_time": 17.141}, {"pitch": 48, "velocity": 40, "note_on_time": 16.138, "note_off_time": 17.141}, {"pitch": 52, "velocity": 40, "note_on_time": 17.141, "note_off_time": 18.154}, {"pitch": 55, "velocity": 40, "note_on_time": 17.141, "note_off_time": 18.155}, {"pitch": 72, "velocity": 40, "note_on_time": 18.154, "note_off_time": 19.171}, {"pitch": 48, "velocity": 40, "note_on_time": 18.155, "note_off_time": 19.171}, {"pitch": 52, "velocity": 40, "note_on_time": 19.172, "note_off_time": 20.176}, {"pitch": 55, "velocity": 40, "note_on_time": 19.172, "note_off_time": 20.176}, {"pitch": 48, "velocity": 40, "note_on_time": 20.176, "note_off_time": 21.187}, {"pitch": 52, "velocity": 40, "note_on_time": 21.187, "note_off_time": 22.203}, {"pitch": 55, "velocity": 40, "note_on_time": 21.187, "note_off_time": 22.203}, {"pitch": 48, "velocity": 40, "note_on_time": 22.203, "note_off_time": 23.216}, {"pitch": 52, "velocity": 40, "note_on_time": 23.216, "note_off_time": 24.221}, {"pitch": 55, "velocity": 40, "note_on_time": 23.216, "note_off_time": 24.221}, {"pitch": 60, "velocity": 40, "note_on_time": 24.219, "note_off_time": 25.235}, {"pitch": 64, "velocity": 40, "note_on_time": 24.22, "note_off_time": 25.236}, {"pitch": 67, "velocity": 40, "note_on_time": 24.221, "note_off_time": 25.237}, {"pitch": 48, "velocity": 40, "note_on_time": 24.221, "note_off_time": 25.237}, {"pitch": 52, "velocity": 40, "note_on_time": 25.237, "note_off_time": 26.242}, {"pitch": 55, "velocity": 40, "note_on_time": 25.237, "note_off_time": 26.242}, {"pitch": 77, "velocity": 40, "note_on_time": 26.242, "note_off_time": 27.254}, {"pitch": 48, "velocity": 40, "note_on_time": 26.242, "note_off_time": 27.255}, {"pitch": 52, "velocity": 40, "note_on_time": 27.255, "note_off_time": 28.27}, {"pitch": 55, "velocity": 40, "note_on_time": 27.255, "note_off_time": 28.27}, {"pitch": 48, "velocity": 40, "note_on_time": 28.27, "note_off_time": 29.273}, {"pitch": 52, "velocity": 40, "note_on_time": 29.273, "note_off_time": 30.278}, {"pitch": 55, "velocity": 40, "note_on_time": 29.273, "note_off_time": 30.278}, {"pitch": 48, "velocity": 40, "note_on_time": 30.278, "note_off_time": 31.28}, {"pitch": 52, "velocity": 40, "note_on_time": 31.28, "note_off_time": 32.284}, {"pitch": 55, "velocity": 40, "note_on_time": 31.28, "note_off_time": 32.284}, {"pitch": 60, "velocity": 40, "note_on_time": 32.282, "note_off_time": 33.3}, {"pitch": 64, "velocity": 40, "note_on_time": 32.283, "note_off_time": 33.301}, {"pitch": 67, "velocity": 40, "note_on_time": 32.283, "note_off_time": 33.301}, {"pitch": 48, "velocity": 40, "note_on_time": 32.284, "note_off_time": 33.301}, {"pitch": 52, "velocity": 40, "note_on_time": 33.302, "note_off_time": 34.303}, {"pitch": 55, "velocity": 40, "note_on_time": 33.302, "note_off_time": 34.304}, {"pitch": 74, "velocity": 40, "note_on_time": 34.303, "note_off_time": 35.312}, {"pitch": 48, "velocity": 40, "note_on_time": 34.304, "note_off_time": 35.312}, {"pitch": 52, "velocity": 40, "note_on_time": 35.312, "note_off_time": 36.313}, {"pitch": 55, "velocity": 40, "note_on_time": 35.312, "note_off_time": 36.313}, {"pitch": 48, "velocity": 40, "note_on_time": 36.313, "note_off_time": 37.318}, {"pitch": 52, "velocity": 40, "note_on_time": 37.318, "note_off_time": 38.325}, {"pitch": 55, "velocity": 40, "note_on_time": 37.318, "note_off_time": 38.325}, {"pitch": 48, "velocity": 40, "note_on_time": 38.325, "note_off_time": 39.336}, {"pitch": 52, "velocity": 40, "note_on_time": 39.336, "note_off_time": 40.341}, {"pitch": 55, "velocity": 40, "note_on_time": 39.336, "note_off_time": 40.341}, {"pitch": 60, "velocity": 40, "note_on_time": 40.34, "note_off_time": 41.354}, {"pitch": 64, "velocity": 40, "note_on_time": 40.34, "note_off_time": 41.355}, {"pitch": 67, "velocity": 40, "note_on_time": 40.341, "note_off_time": 41.356}, {"pitch": 79, "velocity": 40, "note_on_time": 42.371, "note_off_time": 43.373}, {"pitch": 60, "velocity": 40, "note_on_time": 48.375, "note_off_time": 49.391}, {"pitch": 64, "velocity": 40, "note_on_time": 48.376, "note_off_time": 49.391}, {"pitch": 67, "velocity": 40, "note_on_time": 48.376, "note_off_time": 49.392}, {"pitch": 74, "velocity": 40, "note_on_time": 50.395, "note_off_time": 51.405}, {"pitch": 60, "velocity": 40, "note_on_time": 56.413, "note_off_time": 57.428}, {"pitch": 64, "velocity": 40, "note_on_time": 56.414, "note_off_time": 57.429}, {"pitch": 67, "velocity": 40, "note_on_time": 56.414, "note_off_time": 57.43}, {"pitch": 72, "velocity": 40, "note_on_time": 58.432, "note_off_time": 59.448}, {"pitch": 60, "velocity": 40, "note_on_time": 64.454, "note_off_time": 65.456}, {"pitch": 64, "velocity": 40, "note_on_time": 64.455, "note_off_time": 65.458}, {"pitch": 67, "velocity": 40, "note_on_time": 64.455, "note_off_time": 65.458}, {"pitch": 76, "velocity": 40, "note_on_time": 66.461, "note_off_time": 67.467}, {"pitch": 60, "velocity": 40, "note_on_time": 72.476, "note_off_time": 73.48}, {"pitch": 64, "velocity": 40, "note_on_time": 72.477, "note_off_time": 73.481}, {"pitch": 67, "velocity": 40, "note_on_time": 72.477, "note_off_time": 73.481}, {"pitch": 74, "velocity": 40, "note_on_time": 74.484, "note_off_time": 75.491}, {"pitch": 60, "velocity": 40, "note_on_time": 80.495, "note_off_time": 81.498}, {"pitch": 64, "velocity": 40, "note_on_time": 80.495, "note_off_time": 81.499}, {"pitch": 67, "velocity": 40, "note_on_time": 80.496, "note_off_time": 81.5}, {"pitch": 76, "velocity": 40, "note_on_time": 82.503, "note_off_time": 83.515}, {"pitch": 60, "velocity": 40, "note_on_time": 88.53, "note_off_time": 89.543}, {"pitch": 64, "velocity": 40, "note_on_time": 88.531, "note_off_time": 89.545}, {"pitch": 67, "velocity": 40, "note_on_time": 88.531, "note_off_time": 89.545}, {"pitch": 77, "velocity": 40, "note_on_time": 90.557, "note_off_time": 91.564}, {"pitch": 60, "velocity": 40, "note_on_time": 96.569, "note_off_time": 97.583}, {"pitch": 64, "velocity": 40, "note_on_time": 96.569, "note_off_time": 97.584}, {"pitch": 67, "velocity": 40, "note_on_time": 96.57, "note_off_time": 97.585}, {"pitch": 72, "velocity": 40, "note_on_time": 98.591, "note_off_time": 99.606}, {"pitch": 60, "velocity": 40, "note_on_time": 104.62, "note_off_time": 105.623}, {"pitch": 64, "velocity": 40, "note_on_time": 104.621, "note_off_time": 105.624}, {"pitch": 67, "velocity": 40, "note_on_time": 104.621, "note_off_time": 105.625}, {"pitch": 79, "velocity": 40, "note_on_time": 106.641, "note_off_time": 107.643}, {"pitch": 60, "velocity": 40, "note_on_time": 112.649, "note_off_time": 113.663}, {"pitch": 64, "velocity": 40, "note_on_time": 112.649, "note_off_time": 113.664}, {"pitch": 67, "velocity": 40, "note_on_time": 112.65, "note_off_time": 113.665}, {"pitch": 77, "velocity": 40, "note_on_time": 114.666, "note_off_time": 115.667}, {"pitch": 60, "velocity": 40, "note_on_time": 120.669, "note_off_time": 121.673}, {"pitch": 64, "velocity": 40, "note_on_time": 120.67, "note_off_time": 121.673}, {"pitch": 67, "velocity": 40, "note_on_time": 120.67, "note_off_time": 121.674}, {"pitch": 79, "velocity": 40, "note_on_time": 122.688, "note_off_time": 123.695}, {"pitch": 60, "velocity": 40, "note_on_time": 128.704, "note_off_time": 129.721}, {"pitch": 64, "velocity": 40, "note_on_time": 128.704, "note_off_time": 129.721}, {"pitch": 67, "velocity": 40, "note_on_time": 128.705, "note_off_time": 129.722}, {"pitch": 72, "velocity": 40, "note_on_time": 130.738, "note_off_time": 131.753}, {"pitch": 60, "velocity": 40, "note_on_time": 136.766, "note_off_time": 137.774}, {"pitch": 64, "velocity": 40, "note_on_time": 136.767, "note_off_time": 137.775}, {"pitch": 67, "velocity": 40, "note_on_time": 136.768, "note_off_time": 137.776}, {"pitch": 77, "velocity": 40, "note_on_time": 138.777, "note_off_time": 139.781}, {"pitch": 60, "velocity": 40, "note_on_time": 144.794, "note_off_time": 145.81}, {"pitch": 64, "velocity": 40, "note_on_time": 144.794, "note_off_time": 145.811}, {"pitch": 67, "velocity": 40, "note_on_time": 144.795, "note_off_time": 145.812}, {"pitch": 76, "velocity": 40, "note_on_time": 146.814, "note_off_time": 147.822}, {"pitch": 60, "velocity": 40, "note_on_time": 152.824, "note_off_time": 153.837}, {"pitch": 64, "velocity": 40, "note_on_time": 152.824, "note_off_time": 153.838}, {"pitch": 67, "velocity": 40, "note_on_time": 152.824, "note_off_time": 153.839}, {"pitch": 74, "velocity": 40, "note_on_time": 154.855, "note_off_time": 155.863}, {"pitch": 60, "velocity": 40, "note_on_time": 160.869, "note_off_time": 161.872}, {"pitch": 64, "velocity": 40, "note_on_time": 160.87, "note_off_time": 161.872}, {"pitch": 67, "velocity": 40, "note_on_time": 160.87, "note_off_time": 161.873}, {"pitch": 76, "velocity": 40, "note_on_time": 162.876, "note_off_time": 163.89}]</notes><options name="Option List">((4, 4), [0.5, 0.25], 3, 8, &lt;NoteRangePerHand.TWO_NOTES: 3&gt;, &lt;NoteRangePerHand.ONE_NOTE: 2&gt;, False, True, True, 100)</options></target_notes><trials><trial trial_no="1" timestamp="2024_03_04-17_35_57"><notes name="Played Notes">[{"pitch": 72, "velocity": 35, "note_on_time": 1.322, "note_off_time": 1.505}, {"pitch": 74, "velocity": 35, "note_on_time": 3.425, "note_off_time": 3.599}, {"pitch": 76, "velocity": 37, "note_on_time": 11.211, "note_off_time": 11.42}, {"pitch": 77, "velocity": 29, "note_on_time": 15.098, "note_off_time": 15.29}, {"pitch": 76, "velocity": 45, "note_on_time": 16.231, "note_off_time": 16.362}, {"pitch": 74, "velocity": 49, "note_on_time": 20.218, "note_off_time": 20.397}, {"pitch": 74, "velocity": 1, "note_on_time": 22.927, "note_off_time": 23.313}, {"pitch": 77, "velocity": 51, "note_on_time": 28.339, "note_off_time": 28.576}, {"pitch": 72, "velocity": 4, "note_on_time": 36.711, "note_off_time": 36.931}, {"pitch": 74, "velocity": 25, "note_on_time": 37.876, "note_off_time": 38.089}, {"pitch": 77, "velocity": 1, "note_on_time": 44.607, "note_off_time": 44.887}, {"pitch": 77, "velocity": 51, "note_on_time": 45.45, "note_off_time": 45.641}, {"pitch": 76, "velocity": 30, "note_on_time": 47.359, "note_off_time": 47.549}, {"pitch": 77, "velocity": 12, "note_on_time": 52.433, "note_off_time": 52.687}, {"pitch": 76, "velocity": 33, "note_on_time": 53.624, "note_off_time": 53.882}, {"pitch": 74, "velocity": 27, "note_on_time": 55.228, "note_off_time": 55.458}, {"pitch": 77, "velocity": 38, "note_on_time": 60.327, "note_off_time": 60.606}, {"pitch": 79, "velocity": 32, "note_on_time": 62.085, "note_off_time": 62.353}, {"pitch": 79, "velocity": 2, "note_on_time": 63.89, "note_off_time": 64.067}, {"pitch": 77, "velocity": 34, "note_on_time": 68.115, "note_off_time": 68.355}, {"pitch": 76, "velocity": 25, "note_on_time": 76.302, "note_off_time": 76.556}, {"pitch": 74, "velocity": 1, "note_on_time": 77.694, "note_off_time": 77.946}, {"pitch": 74, "velocity": 8, "note_on_time": 84.555, "note_off_time": 84.809}, {"pitch": 76, "velocity": 34, "note_on_time": 85.766, "note_off_time": 86.016}, {"pitch": 76, "velocity": 39, "note_on_time": 93.747, "note_off_time": 93.99}, {"pitch": 74, "velocity": 18, "note_on_time": 100.62, "note_off_time": 100.948}, {"pitch": 76, "velocity": 1, "note_on_time": 103.687, "note_off_time": 103.817}, {"pitch": 76, "velocity": 22, "note_on_time": 104.213, "note_off_time": 104.422}, {"pitch": 77, "velocity": 39, "note_on_time": 108.812, "note_off_time": 109.039}, {"pitch": 76, "velocity": 33, "note_on_time": 116.718, "note_off_time": 116.981}, {"pitch": 77, "velocity": 28, "note_on_time": 124.624, "note_off_time": 124.843}, {"pitch": 76, "velocity": 10, "note_on_time": 126.671, "note_off_time": 126.929}, {"pitch": 74, "velocity": 5, "note_on_time": 132.85, "note_off_time": 133.101}, {"pitch": 72, "velocity": 1, "note_on_time": 134.577, "note_off_time": 134.869}, {"pitch": 72, "velocity": 41, "note_on_time": 135.288, "note_off_time": 135.5}, {"pitch": 76, "velocity": 37, "note_on_time": 141.45, "note_off_time": 141.75}, {"pitch": 76, "velocity": 47, "note_on_time": 148.806, "note_off_time": 149.074}, {"pitch": 76, "velocity": 9, "note_on_time": 156.942, "note_off_time": 157.225}]</notes><guidance name="Guidance Mode">None</guidance><error name="Error value">99</error></trial><trial trial_no="2" timestamp="2024_03_04-17_40_00"><notes name="Played Notes">[{"pitch": 74, "velocity": 1, "note_on_time": 1.903, "note_off_time": 2.159}, {"pitch": 76, "velocity": 33, "note_on_time": 3.019, "note_off_time": 3.305}, {"pitch": 77, "velocity": 23, "note_on_time": 4.239, "note_off_time": 4.429}, {"pitch": 74, "velocity": 14, "note_on_time": 5.432, "note_off_time": 5.666}, {"pitch": 76, "velocity": 1, "note_on_time": 6.596, "note_off_time": 6.831}, {"pitch": 77, "velocity": 8, "note_on_time": 7.55, "note_off_time": 7.802}, {"pitch": 76, "velocity": 13, "note_on_time": 9.057, "note_off_time": 9.979}, {"pitch": 74, "velocity": 1, "note_on_time": 9.833, "note_off_time": 10.247}, {"pitch": 77, "velocity": 1, "note_on_time": 8.543, "note_off_time": 10.25}, {"pitch": 72, "velocity": 27, "note_on_time": 10.917, "note_off_time": 11.181}, {"pitch": 74, "velocity": 35, "note_on_time": 12.194, "note_off_time": 12.512}, {"pitch": 77, "velocity": 33, "note_on_time": 13.428, "note_off_time": 13.703}, {"pitch": 76, "velocity": 38, "note_on_time": 14.59, "note_off_time": 14.816}, {"pitch": 72, "velocity": 18, "note_on_time": 15.744, "note_off_time": 16.073}, {"pitch": 74, "velocity": 5, "note_on_time": 17.093, "note_off_time": 17.353}, {"pitch": 76, "velocity": 28, "note_on_time": 18.287, "note_off_time": 18.539}, {"pitch": 77, "velocity": 1, "note_on_time": 19.484, "note_off_time": 19.772}, {"pitch": 79, "velocity": 32, "note_on_time": 20.691, "note_off_time": 20.992}, {"pitch": 79, "velocity": 9, "note_on_time": 22.029, "note_off_time": 22.347}, {"pitch": 77, "velocity": 5, "note_on_time": 23.172, "note_off_time": 23.476}, {"pitch": 74, "velocity": 26, "note_on_time": 24.406, "note_off_time": 24.686}, {"pitch": 79, "velocity": 24, "note_on_time": 25.562, "note_off_time": 25.883}, {"pitch": 79, "velocity": 30, "note_on_time": 26.777, "note_off_time": 27.137}, {"pitch": 74, "velocity": 9, "note_on_time": 27.998, "note_off_time": 28.316}, {"pitch": 74, "velocity": 21, "note_on_time": 29.244, "note_off_time": 29.519}, {"pitch": 79, "velocity": 18, "note_on_time": 30.365, "note_off_time": 30.745}, {"pitch": 74, "velocity": 1, "note_on_time": 31.529, "note_off_time": 31.854}, {"pitch": 79, "velocity": 25, "note_on_time": 32.762, "note_off_time": 33.091}, {"pitch": 74, "velocity": 18, "note_on_time": 33.929, "note_off_time": 34.275}, {"pitch": 77, "velocity": 30, "note_on_time": 35.341, "note_off_time": 35.607}, {"pitch": 74, "velocity": 1, "note_on_time": 36.515, "note_off_time": 36.924}, {"pitch": 72, "velocity": 33, "note_on_time": 37.835, "note_off_time": 38.148}, {"pitch": 77, "velocity": 33, "note_on_time": 40.234, "note_off_time": 40.499}, {"pitch": 72, "velocity": 26, "note_on_time": 42.701, "note_off_time": 42.961}, {"pitch": 74, "velocity": 33, "note_on_time": 45.153, "note_off_time": 45.509}, {"pitch": 76, "velocity": 1, "note_on_time": 47.581, "note_off_time": 47.838}, {"pitch": 74, "velocity": 31, "note_on_time": 50.037, "note_off_time": 50.337}, {"pitch": 76, "velocity": 29, "note_on_time": 50.617, "note_off_time": 50.838}, {"pitch": 74, "velocity": 1, "note_on_time": 51.313, "note_off_time": 51.5}, {"pitch": 74, "velocity": 25, "note_on_time": 52.466, "note_off_time": 52.777}, {"pitch": 76, "velocity": 33, "note_on_time": 53.053, "note_off_time": 53.274}, {"pitch": 74, "velocity": 25, "note_on_time": 54.836, "note_off_time": 55.063}, {"pitch": 76, "velocity": 36, "note_on_time": 55.406, "note_off_time": 55.617}, {"pitch": 79, "velocity": 17, "note_on_time": 56.017, "note_off_time": 56.301}, {"pitch": 74, "velocity": 30, "note_on_time": 57.263, "note_off_time": 57.454}, {"pitch": 76, "velocity": 21, "note_on_time": 57.846, "note_off_time": 58.088}, {"pitch": 79, "velocity": 43, "note_on_time": 58.404, "note_off_time": 58.687}, {"pitch": 74, "velocity": 5, "note_on_time": 59.81, "note_off_time": 60.845}, {"pitch": 76, "velocity": 18, "note_on_time": 60.268, "note_off_time": 60.898}, {"pitch": 77, "velocity": 21, "note_on_time": 60.755, "note_off_time": 61.119}, {"pitch": 79, "velocity": 24, "note_on_time": 60.897, "note_off_time": 61.277}, {"pitch": 74, "velocity": 18, "note_on_time": 62.234, "note_off_time": 63.448}, {"pitch": 76, "velocity": 28, "note_on_time": 62.781, "note_off_time": 63.566}, {"pitch": 79, "velocity": 35, "note_on_time": 63.295, "note_off_time": 63.592}, {"pitch": 77, "velocity": 1, "note_on_time": 63.451, "note_off_time": 63.608}, {"pitch": 74, "velocity": 22, "note_on_time": 64.702, "note_off_time": 64.873}, {"pitch": 74, "velocity": 26, "note_on_time": 65.223, "note_off_time": 65.412}, {"pitch": 79, "velocity": 28, "note_on_time": 65.847, "note_off_time": 66.166}, {"pitch": 74, "velocity": 9, "note_on_time": 67.087, "note_off_time": 67.276}, {"pitch": 74, "velocity": 8, "note_on_time": 68.175, "note_off_time": 68.381}, {"pitch": 79, "velocity": 35, "note_on_time": 68.796, "note_off_time": 69.111}, {"pitch": 74, "velocity": 1, "note_on_time": 70.221, "note_off_time": 70.479}, {"pitch": 74, "velocity": 32, "note_on_time": 70.895, "note_off_time": 71.138}, {"pitch": 76, "velocity": 35, "note_on_time": 71.506, "note_off_time": 72.301}, {"pitch": 77, "velocity": 30, "note_on_time": 72.074, "note_off_time": 72.421}, {"pitch": 74, "velocity": 17, "note_on_time": 73.035, "note_off_time": 73.738}, {"pitch": 77, "velocity": 38, "note_on_time": 74.285, "note_off_time": 74.515}, {"pitch": 76, "velocity": 27, "note_on_time": 73.522, "note_off_time": 74.628}, {"pitch": 72, "velocity": 39, "note_on_time": 75.759, "note_off_time": 76.011}, {"pitch": 76, "velocity": 13, "note_on_time": 77.859, "note_off_time": 78.138}, {"pitch": 77, "velocity": 21, "note_on_time": 78.49, "note_off_time": 78.698}, {"pitch": 72, "velocity": 40, "note_on_time": 79.603, "note_off_time": 79.789}, {"pitch": 72, "velocity": 34, "note_on_time": 81.644, "note_off_time": 81.854}, {"pitch": 74, "velocity": 34, "note_on_time": 82.244, "note_off_time": 83.022}, {"pitch": 76, "velocity": 18, "note_on_time": 82.844, "note_off_time": 83.108}, {"pitch": 79, "velocity": 31, "note_on_time": 84.093, "note_off_time": 84.326}, {"pitch": 76, "velocity": 28, "note_on_time": 86.515, "note_off_time": 86.725}, {"pitch": 74, "velocity": 23, "note_on_time": 87.107, "note_off_time": 87.351}, {"pitch": 72, "velocity": 31, "note_on_time": 87.711, "note_off_time": 87.95}, {"pitch": 76, "velocity": 28, "note_on_time": 89.036, "note_off_time": 89.251}, {"pitch": 74, "velocity": 17, "note_on_time": 89.583, "note_off_time": 89.757}, {"pitch": 72, "velocity": 31, "note_on_time": 90.146, "note_off_time": 90.394}, {"pitch": 74, "velocity": 1, "note_on_time": 92.693, "note_off_time": 93.028}, {"pitch": 72, "velocity": 19, "note_on_time": 91.431, "note_off_time": 93.041}, {"pitch": 77, "velocity": 27, "note_on_time": 93.862, "note_off_time": 94.082}, {"pitch": 72, "velocity": 27, "note_on_time": 95.241, "note_off_time": 95.555}, {"pitch": 77, "velocity": 23, "note_on_time": 96.454, "note_off_time": 96.709}, {"pitch": 72, "velocity": 19, "note_on_time": 97.639, "note_off_time": 97.866}, {"pitch": 77, "velocity": 18, "note_on_time": 98.756, "note_off_time": 98.899}, {"pitch": 72, "velocity": 4, "note_on_time": 98.585, "note_off_time": 98.926}, {"pitch": 72, "velocity": 22, "note_on_time": 99.8, "note_off_time": 100.057}, {"pitch": 77, "velocity": 17, "note_on_time": 100.583, "note_off_time": 100.79}, {"pitch": 79, "velocity": 23, "note_on_time": 101.275, "note_off_time": 101.482}, {"pitch": 74, "velocity": 27, "note_on_time": 102.642, "note_off_time": 102.809}, {"pitch": 76, "velocity": 31, "note_on_time": 103.4, "note_off_time": 103.634}, {"pitch": 77, "velocity": 23, "note_on_time": 104.264, "note_off_time": 104.476}, {"pitch": 77, "velocity": 20, "note_on_time": 105.35, "note_off_time": 105.557}, {"pitch": 76, "velocity": 7, "note_on_time": 105.964, "note_off_time": 106.14}, {"pitch": 74, "velocity": 22, "note_on_time": 106.494, "note_off_time": 106.672}, {"pitch": 72, "velocity": 38, "note_on_time": 108.094, "note_off_time": 108.31}, {"pitch": 74, "velocity": 13, "note_on_time": 109.041, "note_off_time": 109.224}, {"pitch": 77, "velocity": 20, "note_on_time": 109.694, "note_off_time": 109.913}, {"pitch": 72, "velocity": 31, "note_on_time": 110.857, "note_off_time": 111.054}, {"pitch": 74, "velocity": 21, "note_on_time": 111.518, "note_off_time": 111.701}, {"pitch": 77, "velocity": 19, "note_on_time": 112.107, "note_off_time": 112.312}, {"pitch": 72, "velocity": 22, "note_on_time": 113.076, "note_off_time": 113.314}, {"pitch": 74, "velocity": 14, "note_on_time": 113.852, "note_off_time": 114.059}, {"pitch": 76, "velocity": 16, "note_on_time": 114.527, "note_off_time": 114.738}, {"pitch": 79, "velocity": 11, "note_on_time": 115.691, "note_off_time": 115.924}, {"pitch": 77, "velocity": 2, "note_on_time": 116.979, "note_off_time": 117.213}, {"pitch": 76, "velocity": 8, "note_on_time": 118.071, "note_off_time": 118.327}, {"pitch": 72, "velocity": 22, "note_on_time": 118.989, "note_off_time": 119.249}, {"pitch": 79, "velocity": 17, "note_on_time": 119.999, "note_off_time": 120.209}, {"pitch": 77, "velocity": 14, "note_on_time": 120.672, "note_off_time": 120.919}, {"pitch": 76, "velocity": 28, "note_on_time": 121.418, "note_off_time": 121.621}, {"pitch": 74, "velocity": 30, "note_on_time": 121.979, "note_off_time": 122.124}, {"pitch": 72, "velocity": 35, "note_on_time": 122.445, "note_off_time": 122.636}, {"pitch": 72, "velocity": 27, "note_on_time": 123.506, "note_off_time": 123.755}, {"pitch": 74, "velocity": 25, "note_on_time": 124.11, "note_off_time": 124.289}, {"pitch": 76, "velocity": 31, "note_on_time": 124.605, "note_off_time": 124.812}, {"pitch": 77, "velocity": 1, "note_on_time": 125.17, "note_off_time": 125.365}, {"pitch": 79, "velocity": 27, "note_on_time": 125.852, "note_off_time": 126.082}, {"pitch": 79, "velocity": 30, "note_on_time": 127.898, "note_off_time": 128.207}, {"pitch": 74, "velocity": 10, "note_on_time": 129.049, "note_off_time": 129.256}, {"pitch": 79, "velocity": 24, "note_on_time": 130.004, "note_off_time": 130.346}, {"pitch": 74, "velocity": 1, "note_on_time": 131.36, "note_off_time": 131.56}, {"pitch": 79, "velocity": 10, "note_on_time": 132.752, "note_off_time": 133.067}, {"pitch": 74, "velocity": 9, "note_on_time": 133.8, "note_off_time": 133.999}, {"pitch": 79, "velocity": 22, "note_on_time": 135.055, "note_off_time": 135.344}, {"pitch": 74, "velocity": 26, "note_on_time": 135.952, "note_off_time": 136.132}, {"pitch": 79, "velocity": 22, "note_on_time": 137.384, "note_off_time": 137.645}, {"pitch": 74, "velocity": 8, "note_on_time": 138.423, "note_off_time": 138.636}, {"pitch": 79, "velocity": 1, "note_on_time": 139.699, "note_off_time": 140.175}, {"pitch": 74, "velocity": 21, "note_on_time": 140.998, "note_off_time": 141.175}, {"pitch": 77, "velocity": 23, "note_on_time": 141.976, "note_off_time": 142.185}, {"pitch": 76, "velocity": 11, "note_on_time": 143.115, "note_off_time": 143.343}, {"pitch": 79, "velocity": 20, "note_on_time": 144.042, "note_off_time": 144.32}, {"pitch": 74, "velocity": 30, "note_on_time": 145.002, "note_off_time": 145.216}, {"pitch": 77, "velocity": 30, "note_on_time": 146.361, "note_off_time": 146.584}, {"pitch": 76, "velocity": 18, "note_on_time": 147.457, "note_off_time": 147.695}, {"pitch": 79, "velocity": 1, "note_on_time": 148.452, "note_off_time": 148.699}, {"pitch": 74, "velocity": 34, "note_on_time": 149.459, "note_off_time": 149.691}, {"pitch": 77, "velocity": 3, "note_on_time": 150.456, "note_off_time": 150.693}, {"pitch": 76, "velocity": 1, "note_on_time": 151.52, "note_off_time": 151.748}, {"pitch": 79, "velocity": 27, "note_on_time": 152.379, "note_off_time": 152.604}, {"pitch": 74, "velocity": 7, "note_on_time": 153.373, "note_off_time": 153.595}, {"pitch": 77, "velocity": 6, "note_on_time": 154.281, "note_off_time": 154.511}, {"pitch": 76, "velocity": 24, "note_on_time": 155.283, "note_off_time": 155.472}, {"pitch": 74, "velocity": 27, "note_on_time": 156.477, "note_off_time": 156.675}, {"pitch": 72, "velocity": 27, "note_on_time": 157.773, "note_off_time": 158.019}, {"pitch": 74, "velocity": 7, "note_on_time": 159.125, "note_off_time": 159.35}, {"pitch": 72, "velocity": 1, "note_on_time": 160.005, "note_off_time": 160.267}, {"pitch": 79, "velocity": 14, "note_on_time": 160.845, "note_off_time": 161.078}, {"pitch": 74, "velocity": 19, "note_on_time": 161.73, "note_off_time": 161.931}, {"pitch": 72, "velocity": 32, "note_on_time": 162.308, "note_off_time": 162.474}, {"pitch": 79, "velocity": 34, "note_on_time": 162.791, "note_off_time": 163.042}, {"pitch": 74, "velocity": 22, "note_on_time": 163.453, "note_off_time": 163.616}, {"pitch": 72, "velocity": 17, "note_on_time": 163.918, "note_off_time": 164.133}, {"pitch": 79, "velocity": 33, "note_on_time": 164.404, "note_off_time": 164.717}, {"pitch": 77, "velocity": 26, "note_on_time": 165.112, "note_off_time": 165.28}, {"pitch": 72, "velocity": 1, "note_on_time": 166.432, "note_off_time": 166.638}, {"pitch": 74, "velocity": 32, "note_on_time": 167.065, "note_off_time": 167.266}, {"pitch": 79, "velocity": 32, "note_on_time": 167.571, "note_off_time": 167.814}, {"pitch": 77, "velocity": 20, "note_on_time": 168.667, "note_off_time": 168.804}, {"pitch": 72, "velocity": 31, "note_on_time": 169.324, "note_off_time": 169.479}, {"pitch": 74, "velocity": 35, "note_on_time": 169.779, "note_off_time": 169.938}, {"pitch": 79, "velocity": 37, "note_on_time": 170.202, "note_off_time": 170.415}, {"pitch": 77, "velocity": 27, "note_on_time": 170.83, "note_off_time": 170.985}, {"pitch": 72, "velocity": 7, "note_on_time": 171.594, "note_off_time": 171.794}, {"pitch": 74, "velocity": 31, "note_on_time": 172.107, "note_off_time": 172.221}, {"pitch": 77, "velocity": 24, "note_on_time": 172.613, "note_off_time": 172.856}, {"pitch": 72, "velocity": 26, "note_on_time": 173.334, "note_off_time": 173.506}, {"pitch": 74, "velocity": 32, "note_on_time": 174.096, "note_off_time": 174.248}, {"pitch": 79, "velocity": 42, "note_on_time": 174.639, "note_off_time": 174.811}, {"pitch": 74, "velocity": 22, "note_on_time": 175.669, "note_off_time": 175.852}, {"pitch": 76, "velocity": 40, "note_on_time": 177.001, "note_off_time": 177.204}, {"pitch": 77, "velocity": 30, "note_on_time": 177.633, "note_off_time": 177.811}, {"pitch": 72, "velocity": 18, "note_on_time": 179.609, "note_off_time": 179.882}, {"pitch": 72, "velocity": 28, "note_on_time": 181.504, "note_off_time": 181.684}, {"pitch": 74, "velocity": 24, "note_on_time": 181.999, "note_off_time": 182.157}, {"pitch": 76, "velocity": 31, "note_on_time": 182.441, "note_off_time": 182.616}, {"pitch": 77, "velocity": 14, "note_on_time": 182.917, "note_off_time": 183.169}, {"pitch": 79, "velocity": 33, "note_on_time": 183.569, "note_off_time": 183.781}, {"pitch": 72, "velocity": 29, "note_on_time": 184.738, "note_off_time": 184.923}, {"pitch": 74, "velocity": 25, "note_on_time": 185.267, "note_off_time": 185.444}, {"pitch": 76, "velocity": 29, "note_on_time": 185.759, "note_off_time": 185.903}, {"pitch": 77, "velocity": 25, "note_on_time": 186.248, "note_off_time": 186.406}, {"pitch": 79, "velocity": 16, "note_on_time": 186.549, "note_off_time": 186.912}, {"pitch": 72, "velocity": 2, "note_on_time": 187.668, "note_off_time": 187.884}, {"pitch": 74, "velocity": 1, "note_on_time": 188.218, "note_off_time": 188.442}, {"pitch": 76, "velocity": 35, "note_on_time": 188.704, "note_off_time": 188.885}, {"pitch": 77, "velocity": 43, "note_on_time": 189.147, "note_off_time": 189.284}, {"pitch": 77, "velocity": 50, "note_on_time": 189.431, "note_off_time": 189.567}, {"pitch": 72, "velocity": 18, "note_on_time": 190.611, "note_off_time": 190.779}, {"pitch": 74, "velocity": 1, "note_on_time": 191.236, "note_off_time": 191.423}, {"pitch": 76, "velocity": 1, "note_on_time": 192.119, "note_off_time": 192.218}, {"pitch": 76, "velocity": 37, "note_on_time": 192.753, "note_off_time": 192.979}, {"pitch": 77, "velocity": 25, "note_on_time": 193.416, "note_off_time": 193.634}, {"pitch": 79, "velocity": 27, "note_on_time": 194.047, "note_off_time": 194.293}]</notes><guidance name="Guidance Mode">None</guidance><error name="Error value">99</error></trial><trial trial_no="3" timestamp="2024_03_04-17_46_45"><notes name="Played Notes">[{"pitch": 72, "velocity": 41, "note_on_time": 2.472, "note_off_time": 2.726}, {"pitch": 77, "velocity": 38, "note_on_time": 4.895, "note_off_time": 5.102}, {"pitch": 72, "velocity": 15, "note_on_time": 7.466, "note_off_time": 7.682}, {"pitch": 77, "velocity": 7, "note_on_time": 9.75, "note_off_time": 9.961}, {"pitch": 74, "velocity": 28, "note_on_time": 12.19, "note_off_time": 12.397}, {"pitch": 76, "velocity": 11, "note_on_time": 14.606, "note_off_time": 14.857}, {"pitch": 74, "velocity": 23, "note_on_time": 16.993, "note_off_time": 17.218}, {"pitch": 76, "velocity": 1, "note_on_time": 19.486, "note_off_time": 19.732}, {"pitch": 77, "velocity": 1, "note_on_time": 21.965, "note_off_time": 22.207}, {"pitch": 74, "velocity": 1, "note_on_time": 24.697, "note_off_time": 25.032}, {"pitch": 77, "velocity": 22, "note_on_time": 26.724, "note_off_time": 27.017}, {"pitch": 74, "velocity": 1, "note_on_time": 29.367, "note_off_time": 29.611}, {"pitch": 77, "velocity": 13, "note_on_time": 31.658, "note_off_time": 31.902}, {"pitch": 74, "velocity": 23, "note_on_time": 34.123, "note_off_time": 34.306}, {"pitch": 72, "velocity": 23, "note_on_time": 34.701, "note_off_time": 34.891}, {"pitch": 77, "velocity": 1, "note_on_time": 36.542, "note_off_time": 36.784}, {"pitch": 74, "velocity": 18, "note_on_time": 38.851, "note_off_time": 39.037}, {"pitch": 72, "velocity": 27, "note_on_time": 39.523, "note_off_time": 39.734}, {"pitch": 77, "velocity": 27, "note_on_time": 43.824, "note_off_time": 44.017}, {"pitch": 79, "velocity": 9, "note_on_time": 44.415, "note_off_time": 44.72}, {"pitch": 74, "velocity": 25, "note_on_time": 44.987, "note_off_time": 45.144}, {"pitch": 72, "velocity": 26, "note_on_time": 45.542, "note_off_time": 45.734}, {"pitch": 77, "velocity": 30, "note_on_time": 47.416, "note_off_time": 47.658}, {"pitch": 79, "velocity": 23, "note_on_time": 47.962, "note_off_time": 48.246}, {"pitch": 74, "velocity": 12, "note_on_time": 48.915, "note_off_time": 49.125}, {"pitch": 72, "velocity": 35, "note_on_time": 49.47, "note_off_time": 49.659}, {"pitch": 77, "velocity": 19, "note_on_time": 52.343, "note_off_time": 52.583}, {"pitch": 79, "velocity": 34, "note_on_time": 52.868, "note_off_time": 53.158}, {"pitch": 74, "velocity": 7, "note_on_time": 53.718, "note_off_time": 53.905}, {"pitch": 72, "velocity": 23, "note_on_time": 54.574, "note_off_time": 54.719}, {"pitch": 77, "velocity": 5, "note_on_time": 57.152, "note_off_time": 57.393}, {"pitch": 79, "velocity": 6, "note_on_time": 57.723, "note_off_time": 57.983}, {"pitch": 74, "velocity": 19, "note_on_time": 58.629, "note_off_time": 58.838}, {"pitch": 72, "velocity": 16, "note_on_time": 59.207, "note_off_time": 59.411}, {"pitch": 77, "velocity": 23, "note_on_time": 62.255, "note_off_time": 62.462}, {"pitch": 79, "velocity": 20, "note_on_time": 62.791, "note_off_time": 63.029}, {"pitch": 74, "velocity": 26, "note_on_time": 63.367, "note_off_time": 63.567}, {"pitch": 72, "velocity": 22, "note_on_time": 63.96, "note_off_time": 64.134}, {"pitch": 77, "velocity": 12, "note_on_time": 66.975, "note_off_time": 67.2}, {"pitch": 79, "velocity": 22, "note_on_time": 67.496, "note_off_time": 67.744}, {"pitch": 74, "velocity": 12, "note_on_time": 68.091, "note_off_time": 68.306}, {"pitch": 72, "velocity": 1, "note_on_time": 68.763, "note_off_time": 69.046}, {"pitch": 72, "velocity": 23, "note_on_time": 69.392, "note_off_time": 69.602}, {"pitch": 79, "velocity": 1, "note_on_time": 72.176, "note_off_time": 72.449}, {"pitch": 79, "velocity": 45, "note_on_time": 74.252, "note_off_time": 74.49}, {"pitch": 72, "velocity": 37, "note_on_time": 76.782, "note_off_time": 77.01}, {"pitch": 79, "velocity": 24, "note_on_time": 79.165, "note_off_time": 79.492}, {"pitch": 72, "velocity": 35, "note_on_time": 79.802, "note_off_time": 80.009}, {"pitch": 74, "velocity": 22, "note_on_time": 80.36, "note_off_time": 80.536}, {"pitch": 79, "velocity": 32, "note_on_time": 80.869, "note_off_time": 81.095}, {"pitch": 72, "velocity": 26, "note_on_time": 81.446, "note_off_time": 81.652}, {"pitch": 74, "velocity": 20, "note_on_time": 81.998, "note_off_time": 82.159}, {"pitch": 79, "velocity": 9, "note_on_time": 82.462, "note_off_time": 82.813}, {"pitch": 72, "velocity": 25, "note_on_time": 83.118, "note_off_time": 83.325}, {"pitch": 74, "velocity": 7, "note_on_time": 83.719, "note_off_time": 83.869}, {"pitch": 79, "velocity": 1, "note_on_time": 86.434, "note_off_time": 86.756}, {"pitch": 79, "velocity": 17, "note_on_time": 88.926, "note_off_time": 89.213}, {"pitch": 79, "velocity": 20, "note_on_time": 91.375, "note_off_time": 91.716}, {"pitch": 72, "velocity": 33, "note_on_time": 91.991, "note_off_time": 92.197}, {"pitch": 74, "velocity": 24, "note_on_time": 92.606, "note_off_time": 92.818}, {"pitch": 76, "velocity": 4, "note_on_time": 93.308, "note_off_time": 93.525}, {"pitch": 79, "velocity": 21, "note_on_time": 93.822, "note_off_time": 94.087}, {"pitch": 72, "velocity": 20, "note_on_time": 94.386, "note_off_time": 94.602}, {"pitch": 74, "velocity": 15, "note_on_time": 94.973, "note_off_time": 95.208}, {"pitch": 76, "velocity": 28, "note_on_time": 95.561, "note_off_time": 95.763}, {"pitch": 79, "velocity": 25, "note_on_time": 96.136, "note_off_time": 96.367}, {"pitch": 72, "velocity": 25, "note_on_time": 98.798, "note_off_time": 99.02}, {"pitch": 79, "velocity": 25, "note_on_time": 101.134, "note_off_time": 101.379}, {"pitch": 72, "velocity": 3, "note_on_time": 103.604, "note_off_time": 103.819}, {"pitch": 79, "velocity": 32, "note_on_time": 106.152, "note_off_time": 106.447}, {"pitch": 72, "velocity": 39, "note_on_time": 108.456, "note_off_time": 108.677}, {"pitch": 79, "velocity": 33, "note_on_time": 110.913, "note_off_time": 111.145}, {"pitch": 72, "velocity": 16, "note_on_time": 113.359, "note_off_time": 113.569}, {"pitch": 74, "velocity": 24, "note_on_time": 113.922, "note_off_time": 114.14}, {"pitch": 79, "velocity": 28, "note_on_time": 114.457, "note_off_time": 114.683}, {"pitch": 72, "velocity": 17, "note_on_time": 116.958, "note_off_time": 117.175}, {"pitch": 74, "velocity": 12, "note_on_time": 119.423, "note_off_time": 119.606}, {"pitch": 79, "velocity": 39, "note_on_time": 120.052, "note_off_time": 120.269}, {"pitch": 72, "velocity": 1, "note_on_time": 122.004, "note_off_time": 122.138}, {"pitch": 72, "velocity": 21, "note_on_time": 123.077, "note_off_time": 123.313}, {"pitch": 79, "velocity": 23, "note_on_time": 125.482, "note_off_time": 125.738}, {"pitch": 72, "velocity": 34, "note_on_time": 127.927, "note_off_time": 128.174}, {"pitch": 74, "velocity": 24, "note_on_time": 130.371, "note_off_time": 130.556}, {"pitch": 79, "velocity": 24, "note_on_time": 132.809, "note_off_time": 133.102}, {"pitch": 72, "velocity": 20, "note_on_time": 133.398, "note_off_time": 133.618}, {"pitch": 74, "velocity": 29, "note_on_time": 133.967, "note_off_time": 134.162}, {"pitch": 79, "velocity": 37, "note_on_time": 134.474, "note_off_time": 134.684}, {"pitch": 72, "velocity": 25, "note_on_time": 134.988, "note_off_time": 135.21}, {"pitch": 74, "velocity": 24, "note_on_time": 135.553, "note_off_time": 135.708}, {"pitch": 79, "velocity": 24, "note_on_time": 136.019, "note_off_time": 136.231}, {"pitch": 72, "velocity": 25, "note_on_time": 137.681, "note_off_time": 137.876}, {"pitch": 76, "velocity": 41, "note_on_time": 140.192, "note_off_time": 140.379}, {"pitch": 76, "velocity": 46, "note_on_time": 142.652, "note_off_time": 142.873}, {"pitch": 77, "velocity": 24, "note_on_time": 143.211, "note_off_time": 143.403}, {"pitch": 74, "velocity": 42, "note_on_time": 143.797, "note_off_time": 143.944}, {"pitch": 76, "velocity": 25, "note_on_time": 146.221, "note_off_time": 146.41}, {"pitch": 76, "velocity": 46, "note_on_time": 148.78, "note_off_time": 148.982}, {"pitch": 77, "velocity": 35, "note_on_time": 149.313, "note_off_time": 149.516}, {"pitch": 74, "velocity": 35, "note_on_time": 149.866, "note_off_time": 150.033}, {"pitch": 77, "velocity": 42, "note_on_time": 150.47, "note_off_time": 150.627}, {"pitch": 76, "velocity": 33, "note_on_time": 151.055, "note_off_time": 151.255}, {"pitch": 76, "velocity": 38, "note_on_time": 153.641, "note_off_time": 153.833}, {"pitch": 76, "velocity": 28, "note_on_time": 156.035, "note_off_time": 156.216}, {"pitch": 77, "velocity": 37, "note_on_time": 156.5, "note_off_time": 156.739}, {"pitch": 74, "velocity": 22, "note_on_time": 157.052, "note_off_time": 157.255}, {"pitch": 76, "velocity": 43, "note_on_time": 157.598, "note_off_time": 157.8}, {"pitch": 77, "velocity": 30, "note_on_time": 158.128, "note_off_time": 158.33}, {"pitch": 76, "velocity": 28, "note_on_time": 158.632, "note_off_time": 158.896}, {"pitch": 77, "velocity": 18, "note_on_time": 159.492, "note_off_time": 159.692}, {"pitch": 76, "velocity": 42, "note_on_time": 160.023, "note_off_time": 160.26}, {"pitch": 77, "velocity": 20, "note_on_time": 160.555, "note_off_time": 160.807}, {"pitch": 77, "velocity": 37, "note_on_time": 161.079, "note_off_time": 161.341}, {"pitch": 74, "velocity": 32, "note_on_time": 161.776, "note_off_time": 161.938}, {"pitch": 71, "velocity": 1, "note_on_time": 162.493, "note_off_time": 162.697}, {"pitch": 72, "velocity": 1, "note_on_time": 162.497, "note_off_time": 162.714}, {"pitch": 77, "velocity": 23, "note_on_time": 166.989, "note_off_time": 167.157}, {"pitch": 76, "velocity": 38, "note_on_time": 169.396, "note_off_time": 169.59}, {"pitch": 77, "velocity": 31, "note_on_time": 171.925, "note_off_time": 172.101}, {"pitch": 76, "velocity": 34, "note_on_time": 172.46, "note_off_time": 172.672}, {"pitch": 77, "velocity": 17, "note_on_time": 172.982, "note_off_time": 173.234}, {"pitch": 76, "velocity": 9, "note_on_time": 173.603, "note_off_time": 173.852}, {"pitch": 77, "velocity": 28, "note_on_time": 174.12, "note_off_time": 174.404}, {"pitch": 76, "velocity": 31, "note_on_time": 174.662, "note_off_time": 174.86}, {"pitch": 74, "velocity": 9, "note_on_time": 175.136, "note_off_time": 175.315}, {"pitch": 72, "velocity": 38, "note_on_time": 175.644, "note_off_time": 175.853}, {"pitch": 77, "velocity": 20, "note_on_time": 177.961, "note_off_time": 178.174}, {"pitch": 77, "velocity": 25, "note_on_time": 180.397, "note_off_time": 180.619}, {"pitch": 76, "velocity": 22, "note_on_time": 180.958, "note_off_time": 181.219}, {"pitch": 77, "velocity": 28, "note_on_time": 181.533, "note_off_time": 181.767}, {"pitch": 76, "velocity": 30, "note_on_time": 182.111, "note_off_time": 182.333}, {"pitch": 77, "velocity": 37, "note_on_time": 182.6, "note_off_time": 182.876}, {"pitch": 76, "velocity": 24, "note_on_time": 183.173, "note_off_time": 183.354}, {"pitch": 72, "velocity": 30, "note_on_time": 183.757, "note_off_time": 183.966}, {"pitch": 77, "velocity": 36, "note_on_time": 186.523, "note_off_time": 186.658}, {"pitch": 74, "velocity": 20, "note_on_time": 188.914, "note_off_time": 189.113}, {"pitch": 77, "velocity": 21, "note_on_time": 191.235, "note_off_time": 191.44}, {"pitch": 74, "velocity": 26, "note_on_time": 191.977, "note_off_time": 192.16}, {"pitch": 77, "velocity": 20, "note_on_time": 192.506, "note_off_time": 192.726}, {"pitch": 74, "velocity": 21, "note_on_time": 193.031, "note_off_time": 193.203}, {"pitch": 77, "velocity": 16, "note_on_time": 193.502, "note_off_time": 193.749}, {"pitch": 74, "velocity": 18, "note_on_time": 194.002, "note_off_time": 194.146}, {"pitch": 72, "velocity": 16, "note_on_time": 194.525, "note_off_time": 194.758}]</notes><guidance name="Guidance Mode">None</guidance><error name="Error value">99</error></trial></trials></MIDI>