<MIDI midiNo="2024_02_26-17_56_20"><target_notes><notes name="Note List">[{"pitch": 60, "velocity": 40, "note_on_time": 0.009, "note_off_time": 1.013}, {"pitch": 64, "velocity": 40, "note_on_time": 0.01, "note_off_time": 1.015}, {"pitch": 67, "velocity": 40, "note_on_time": 0.01, "note_off_time": 1.015}, {"pitch": 48, "velocity": 40, "note_on_time": 0.01, "note_off_time": 1.015}, {"pitch": 52, "velocity": 40, "note_on_time": 1.015, "note_off_time": 2.019}, {"pitch": 55, "velocity": 40, "note_on_time": 1.015, "note_off_time": 2.019}, {"pitch": 76, "velocity": 40, "note_on_time": 2.019, "note_off_time": 3.022}, {"pitch": 48, "velocity": 40, "note_on_time": 2.019, "note_off_time": 3.022}, {"pitch": 52, "velocity": 40, "note_on_time": 3.022, "note_off_time": 4.024}, {"pitch": 55, "velocity": 40, "note_on_time": 3.022, "note_off_time": 4.024}, {"pitch": 48, "velocity": 40, "note_on_time": 4.024, "note_off_time": 5.028}, {"pitch": 52, "velocity": 40, "note_on_time": 5.028, "note_off_time": 6.032}, {"pitch": 55, "velocity": 40, "note_on_time": 5.028, "note_off_time": 6.032}, {"pitch": 48, "velocity": 40, "note_on_time": 6.032, "note_off_time": 7.039}, {"pitch": 52, "velocity": 40, "note_on_time": 7.039, "note_off_time": 8.045}, {"pitch": 55, "velocity": 40, "note_on_time": 7.039, "note_off_time": 8.045}, {"pitch": 60, "velocity": 40, "note_on_time": 8.043, "note_off_time": 9.059}, {"pitch": 64, "velocity": 40, "note_on_time": 8.044, "note_off_time": 9.06}, {"pitch": 67, "velocity": 40, "note_on_time": 8.044, "note_off_time": 9.06}, {"pitch": 48, "velocity": 40, "note_on_time": 8.045, "note_off_time": 9.06}, {"pitch": 52, "velocity": 40, "note_on_time": 9.06, "note_off_time": 10.062}, {"pitch": 55, "velocity": 40, "note_on_time": 9.06, "note_off_time": 10.062}, {"pitch": 77, "velocity": 40, "note_on_time": 10.062, "note_off_time": 11.065}, {"pitch": 48, "velocity": 40, "note_on_time": 10.062, "note_off_time": 11.066}, {"pitch": 52, "velocity": 40, "note_on_time": 11.066, "note_off_time": 12.069}, {"pitch": 55, "velocity": 40, "note_on_time": 11.066, "note_off_time": 12.069}, {"pitch": 48, "velocity": 40, "note_on_time": 12.069, "note_off_time": 13.071}, {"pitch": 52, "velocity": 40, "note_on_time": 13.071, "note_off_time": 14.084}, {"pitch": 55, "velocity": 40, "note_on_time": 13.071, "note_off_time": 14.084}, {"pitch": 48, "velocity": 40, "note_on_time": 14.084, "note_off_time": 15.098}, {"pitch": 52, "velocity": 40, "note_on_time": 15.098, "note_off_time": 16.115}, {"pitch": 55, "velocity": 40, "note_on_time": 15.098, "note_off_time": 16.115}, {"pitch": 60, "velocity": 40, "note_on_time": 16.113, "note_off_time": 17.117}, {"pitch": 64, "velocity": 40, "note_on_time": 16.114, "note_off_time": 17.118}, {"pitch": 67, "velocity": 40, "note_on_time": 16.114, "note_off_time": 17.118}, {"pitch": 48, "velocity": 40, "note_on_time": 16.115, "note_off_time": 17.118}, {"pitch": 52, "velocity": 40, "note_on_time": 17.118, "note_off_time": 18.123}, {"pitch": 55, "velocity": 40, "note_on_time": 17.118, "note_off_time": 18.124}, {"pitch": 79, "velocity": 40, "note_on_time": 18.123, "note_off_time": 19.126}, {"pitch": 48, "velocity": 40, "note_on_time": 18.124, "note_off_time": 19.127}, {"pitch": 52, "velocity": 40, "note_on_time": 19.127, "note_off_time": 20.143}, {"pitch": 55, "velocity": 40, "note_on_time": 19.127, "note_off_time": 20.143}, {"pitch": 48, "velocity": 40, "note_on_time": 20.143, "note_off_time": 21.152}, {"pitch": 52, "velocity": 40, "note_on_time": 21.152, "note_off_time": 22.167}, {"pitch": 55, "velocity": 40, "note_on_time": 21.152, "note_off_time": 22.167}, {"pitch": 48, "velocity": 40, "note_on_time": 22.167, "note_off_time": 23.176}, {"pitch": 52, "velocity": 40, "note_on_time": 23.176, "note_off_time": 24.187}, {"pitch": 55, "velocity": 40, "note_on_time": 23.176, "note_off_time": 24.187}, {"pitch": 60, "velocity": 40, "note_on_time": 24.185, "note_off_time": 25.191}, {"pitch": 64, "velocity": 40, "note_on_time": 24.185, "note_off_time": 25.191}, {"pitch": 67, "velocity": 40, "note_on_time": 24.187, "note_off_time": 25.192}, {"pitch": 48, "velocity": 40, "note_on_time": 24.187, "note_off_time": 25.192}, {"pitch": 52, "velocity": 40, "note_on_time": 25.192, "note_off_time": 26.204}, {"pitch": 55, "velocity": 40, "note_on_time": 25.192, "note_off_time": 26.204}, {"pitch": 74, "velocity": 40, "note_on_time": 26.203, "note_off_time": 27.21}, {"pitch": 48, "velocity": 40, "note_on_time": 26.204, "note_off_time": 27.21}, {"pitch": 52, "velocity": 40, "note_on_time": 27.21, "note_off_time": 28.217}, {"pitch": 55, "velocity": 40, "note_on_time": 27.21, "note_off_time": 28.217}, {"pitch": 48, "velocity": 40, "note_on_time": 28.217, "note_off_time": 29.219}, {"pitch": 52, "velocity": 40, "note_on_time": 29.219, "note_off_time": 30.22}, {"pitch": 55, "velocity": 40, "note_on_time": 29.219, "note_off_time": 30.22}, {"pitch": 48, "velocity": 40, "note_on_time": 30.22, "note_off_time": 31.225}, {"pitch": 52, "velocity": 40, "note_on_time": 31.225, "note_off_time": 32.239}, {"pitch": 55, "velocity": 40, "note_on_time": 31.225, "note_off_time": 32.239}, {"pitch": 60, "velocity": 40, "note_on_time": 32.238, "note_off_time": 33.24}, {"pitch": 64, "velocity": 40, "note_on_time": 32.238, "note_off_time": 33.242}, {"pitch": 67, "velocity": 40, "note_on_time": 32.238, "note_off_time": 33.243}, {"pitch": 48, "velocity": 40, "note_on_time": 32.239, "note_off_time": 33.243}, {"pitch": 52, "velocity": 40, "note_on_time": 33.243, "note_off_time": 34.256}, {"pitch": 55, "velocity": 40, "note_on_time": 33.243, "note_off_time": 34.256}, {"pitch": 76, "velocity": 40, "note_on_time": 34.256, "note_off_time": 35.272}, {"pitch": 48, "velocity": 40, "note_on_time": 34.256, "note_off_time": 35.272}, {"pitch": 52, "velocity": 40, "note_on_time": 35.272, "note_off_time": 36.285}, {"pitch": 55, "velocity": 40, "note_on_time": 35.272, "note_off_time": 36.285}, {"pitch": 48, "velocity": 40, "note_on_time": 36.285, "note_off_time": 37.287}, {"pitch": 52, "velocity": 40, "note_on_time": 37.287, "note_off_time": 38.293}, {"pitch": 55, "velocity": 40, "note_on_time": 37.287, "note_off_time": 38.293}, {"pitch": 48, "velocity": 40, "note_on_time": 38.293, "note_off_time": 39.301}, {"pitch": 52, "velocity": 40, "note_on_time": 39.301, "note_off_time": 40.304}, {"pitch": 55, "velocity": 40, "note_on_time": 39.301, "note_off_time": 40.304}, {"pitch": 60, "velocity": 40, "note_on_time": 40.303, "note_off_time": 41.315}, {"pitch": 64, "velocity": 40, "note_on_time": 40.303, "note_off_time": 41.316}, {"pitch": 67, "velocity": 40, "note_on_time": 40.304, "note_off_time": 41.316}, {"pitch": 77, "velocity": 40, "note_on_time": 42.331, "note_off_time": 43.337}, {"pitch": 60, "velocity": 40, "note_on_time": 48.343, "note_off_time": 49.356}, {"pitch": 64, "velocity": 40, "note_on_time": 48.344, "note_off_time": 49.357}, {"pitch": 67, "velocity": 40, "note_on_time": 48.344, "note_off_time": 49.358}, {"pitch": 76, "velocity": 40, "note_on_time": 50.36, "note_off_time": 51.372}, {"pitch": 60, "velocity": 40, "note_on_time": 56.377, "note_off_time": 57.392}, {"pitch": 64, "velocity": 40, "note_on_time": 56.378, "note_off_time": 57.393}, {"pitch": 67, "velocity": 40, "note_on_time": 56.378, "note_off_time": 57.393}, {"pitch": 72, "velocity": 40, "note_on_time": 58.395, "note_off_time": 59.4}, {"pitch": 60, "velocity": 40, "note_on_time": 64.407, "note_off_time": 65.422}, {"pitch": 64, "velocity": 40, "note_on_time": 64.408, "note_off_time": 65.423}, {"pitch": 67, "velocity": 40, "note_on_time": 64.408, "note_off_time": 65.423}, {"pitch": 74, "velocity": 40, "note_on_time": 66.439, "note_off_time": 67.441}, {"pitch": 60, "velocity": 40, "note_on_time": 72.447, "note_off_time": 73.45}, {"pitch": 64, "velocity": 40, "note_on_time": 72.447, "note_off_time": 73.451}, {"pitch": 67, "velocity": 40, "note_on_time": 72.448, "note_off_time": 73.452}, {"pitch": 79, "velocity": 40, "note_on_time": 74.453, "note_off_time": 75.456}, {"pitch": 60, "velocity": 40, "note_on_time": 80.464, "note_off_time": 81.48}, {"pitch": 64, "velocity": 40, "note_on_time": 80.465, "note_off_time": 81.482}, {"pitch": 67, "velocity": 40, "note_on_time": 80.465, "note_off_time": 81.482}, {"pitch": 74, "velocity": 40, "note_on_time": 82.492, "note_off_time": 83.498}, {"pitch": 60, "velocity": 40, "note_on_time": 88.514, "note_off_time": 89.521}, {"pitch": 64, "velocity": 40, "note_on_time": 88.514, "note_off_time": 89.523}, {"pitch": 67, "velocity": 40, "note_on_time": 88.514, "note_off_time": 89.523}, {"pitch": 77, "velocity": 40, "note_on_time": 90.525, "note_off_time": 91.527}, {"pitch": 60, "velocity": 40, "note_on_time": 96.533, "note_off_time": 97.538}, {"pitch": 64, "velocity": 40, "note_on_time": 96.534, "note_off_time": 97.539}, {"pitch": 67, "velocity": 40, "note_on_time": 96.535, "note_off_time": 97.54}, {"pitch": 79, "velocity": 40, "note_on_time": 98.553, "note_off_time": 99.569}, {"pitch": 60, "velocity": 40, "note_on_time": 104.572, "note_off_time": 105.585}, {"pitch": 64, "velocity": 40, "note_on_time": 104.572, "note_off_time": 105.586}, {"pitch": 67, "velocity": 40, "note_on_time": 104.573, "note_off_time": 105.586}, {"pitch": 72, "velocity": 40, "note_on_time": 106.588, "note_off_time": 107.599}, {"pitch": 60, "velocity": 40, "note_on_time": 112.602, "note_off_time": 113.604}, {"pitch": 64, "velocity": 40, "note_on_time": 112.603, "note_off_time": 113.605}, {"pitch": 67, "velocity": 40, "note_on_time": 112.603, "note_off_time": 113.606}, {"pitch": 74, "velocity": 40, "note_on_time": 114.621, "note_off_time": 115.633}, {"pitch": 60, "velocity": 40, "note_on_time": 120.636, "note_off_time": 121.646}, {"pitch": 64, "velocity": 40, "note_on_time": 120.637, "note_off_time": 121.647}, {"pitch": 67, "velocity": 40, "note_on_time": 120.637, "note_off_time": 121.648}, {"pitch": 72, "velocity": 40, "note_on_time": 122.657, "note_off_time": 123.66}, {"pitch": 60, "velocity": 40, "note_on_time": 128.675, "note_off_time": 129.676}, {"pitch": 64, "velocity": 40, "note_on_time": 128.675, "note_off_time": 129.677}, {"pitch": 67, "velocity": 40, "note_on_time": 128.676, "note_off_time": 129.678}, {"pitch": 77, "velocity": 40, "note_on_time": 130.693, "note_off_time": 131.695}, {"pitch": 60, "velocity": 40, "note_on_time": 136.696, "note_off_time": 137.706}, {"pitch": 64, "velocity": 40, "note_on_time": 136.697, "note_off_time": 137.706}, {"pitch": 67, "velocity": 40, "note_on_time": 136.698, "note_off_time": 137.708}, {"pitch": 76, "velocity": 40, "note_on_time": 138.715, "note_off_time": 139.729}, {"pitch": 60, "velocity": 40, "note_on_time": 144.732, "note_off_time": 145.738}, {"pitch": 64, "velocity": 40, "note_on_time": 144.732, "note_off_time": 145.739}, {"pitch": 67, "velocity": 40, "note_on_time": 144.733, "note_off_time": 145.74}, {"pitch": 79, "velocity": 40, "note_on_time": 146.753, "note_off_time": 147.768}, {"pitch": 60, "velocity": 40, "note_on_time": 152.77, "note_off_time": 153.775}, {"pitch": 64, "velocity": 40, "note_on_time": 152.771, "note_off_time": 153.776}, {"pitch": 67, "velocity": 40, "note_on_time": 152.772, "note_off_time": 153.776}, {"pitch": 72, "velocity": 40, "note_on_time": 154.782, "note_off_time": 155.785}, {"pitch": 60, "velocity": 40, "note_on_time": 160.798, "note_off_time": 161.811}, {"pitch": 64, "velocity": 40, "note_on_time": 160.799, "note_off_time": 161.812}, {"pitch": 67, "velocity": 40, "note_on_time": 160.799, "note_off_time": 161.812}, {"pitch": 76, "velocity": 40, "note_on_time": 162.825, "note_off_time": 163.829}]</notes><options name="Option List">((4, 4), [0.5, 0.25], 3, 8, &lt;NoteRangePerHand.TWO_NOTES: 3&gt;, &lt;NoteRangePerHand.ONE_NOTE: 2&gt;, False, True, True, 100)</options></target_notes><trials><trial trial_no="1" timestamp="2024_02_26-17_53_36"><notes name="Played Notes">[{"pitch": 72, "velocity": 48, "note_on_time": 3.585, "note_off_time": 4.302}, {"pitch": 79, "velocity": 60, "note_on_time": 11.579, "note_off_time": 12.623}, {"pitch": 77, "velocity": 46, "note_on_time": 15.25, "note_off_time": 16.247}, {"pitch": 79, "velocity": 41, "note_on_time": 19.522, "note_off_time": 20.532}, {"pitch": 77, "velocity": 43, "note_on_time": 29.098, "note_off_time": 30.215}, {"pitch": 76, "velocity": 57, "note_on_time": 30.846, "note_off_time": 32.129}, {"pitch": 77, "velocity": 67, "note_on_time": 35.87, "note_off_time": 36.883}, {"pitch": 72, "velocity": 47, "note_on_time": 37.592, "note_off_time": 38.274}, {"pitch": 74, "velocity": 60, "note_on_time": 44.773, "note_off_time": 45.431}, {"pitch": 77, "velocity": 37, "note_on_time": 46.251, "note_off_time": 46.93}, {"pitch": 72, "velocity": 17, "note_on_time": 52.408, "note_off_time": 53.178}, {"pitch": 74, "velocity": 41, "note_on_time": 53.786, "note_off_time": 54.587}, {"pitch": 72, "velocity": 68, "note_on_time": 59.592, "note_off_time": 60.333}, {"pitch": 76, "velocity": 49, "note_on_time": 68.728, "note_off_time": 69.912}, {"pitch": 77, "velocity": 46, "note_on_time": 76.728, "note_off_time": 77.354}, {"pitch": 79, "velocity": 54, "note_on_time": 78.184, "note_off_time": 78.914}, {"pitch": 76, "velocity": 38, "note_on_time": 84.609, "note_off_time": 85.218}, {"pitch": 77, "velocity": 32, "note_on_time": 85.512, "note_off_time": 86.073}, {"pitch": 76, "velocity": 47, "note_on_time": 87.61, "note_off_time": 88.823}, {"pitch": 76, "velocity": 39, "note_on_time": 92.008, "note_off_time": 92.84}, {"pitch": 74, "velocity": 41, "note_on_time": 93.528, "note_off_time": 94.089}, {"pitch": 72, "velocity": 41, "note_on_time": 95.656, "note_off_time": 96.153}, {"pitch": 79, "velocity": 65, "note_on_time": 100.005, "note_off_time": 100.777}, {"pitch": 72, "velocity": 46, "note_on_time": 108.335, "note_off_time": 109.261}, {"pitch": 77, "velocity": 59, "note_on_time": 117.255, "note_off_time": 118.084}, {"pitch": 76, "velocity": 40, "note_on_time": 119.834, "note_off_time": 120.891}, {"pitch": 72, "velocity": 43, "note_on_time": 124.007, "note_off_time": 125.054}, {"pitch": 77, "velocity": 55, "note_on_time": 132.101, "note_off_time": 133.226}, {"pitch": 74, "velocity": 44, "note_on_time": 140.071, "note_off_time": 140.816}, {"pitch": 76, "velocity": 46, "note_on_time": 141.548, "note_off_time": 142.473}, {"pitch": 79, "velocity": 49, "note_on_time": 148.093, "note_off_time": 149.082}, {"pitch": 72, "velocity": 53, "note_on_time": 156.072, "note_off_time": 156.988}]</notes><guidance name="Guidance Mode">None</guidance><error name="Error value">99</error></trial><trial trial_no="2" timestamp="2024_02_26-17_49_15"><notes name="Played Notes">[{"pitch": 74, "velocity": 61, "note_on_time": 2.525, "note_off_time": 3.114}, {"pitch": 77, "velocity": 67, "note_on_time": 3.115, "note_off_time": 3.682}, {"pitch": 76, "velocity": 62, "note_on_time": 3.683, "note_off_time": 4.263}, {"pitch": 79, "velocity": 73, "note_on_time": 4.281, "note_off_time": 4.843}, {"pitch": 74, "velocity": 64, "note_on_time": 4.895, "note_off_time": 5.499}, {"pitch": 76, "velocity": 77, "note_on_time": 5.503, "note_off_time": 6.045}, {"pitch": 77, "velocity": 55, "note_on_time": 6.069, "note_off_time": 6.576}, {"pitch": 79, "velocity": 46, "note_on_time": 6.658, "note_off_time": 7.185}, {"pitch": 72, "velocity": 55, "note_on_time": 7.248, "note_off_time": 7.809}, {"pitch": 74, "velocity": 56, "note_on_time": 7.859, "note_off_time": 8.442}, {"pitch": 72, "velocity": 60, "note_on_time": 8.475, "note_off_time": 8.98}, {"pitch": 76, "velocity": 51, "note_on_time": 9.041, "note_off_time": 9.489}, {"pitch": 77, "velocity": 63, "note_on_time": 9.698, "note_off_time": 10.26}, {"pitch": 76, "velocity": 68, "note_on_time": 10.279, "note_off_time": 10.924}, {"pitch": 74, "velocity": 62, "note_on_time": 10.892, "note_off_time": 11.457}, {"pitch": 72, "velocity": 56, "note_on_time": 11.485, "note_off_time": 11.925}, {"pitch": 72, "velocity": 56, "note_on_time": 12.168, "note_off_time": 12.735}, {"pitch": 74, "velocity": 56, "note_on_time": 12.767, "note_off_time": 13.298}, {"pitch": 72, "velocity": 56, "note_on_time": 13.307, "note_off_time": 13.882}, {"pitch": 76, "velocity": 54, "note_on_time": 13.915, "note_off_time": 14.543}, {"pitch": 72, "velocity": 60, "note_on_time": 14.549, "note_off_time": 15.152}, {"pitch": 79, "velocity": 52, "note_on_time": 15.158, "note_off_time": 15.73}, {"pitch": 77, "velocity": 69, "note_on_time": 15.73, "note_off_time": 16.295}, {"pitch": 76, "velocity": 58, "note_on_time": 16.31, "note_off_time": 17.014}, {"pitch": 72, "velocity": 53, "note_on_time": 17.029, "note_off_time": 17.596}, {"pitch": 74, "velocity": 66, "note_on_time": 17.642, "note_off_time": 18.273}, {"pitch": 72, "velocity": 54, "note_on_time": 18.258, "note_off_time": 18.797}, {"pitch": 76, "velocity": 53, "note_on_time": 18.857, "note_off_time": 19.221}, {"pitch": 79, "velocity": 33, "note_on_time": 19.448, "note_off_time": 20.029}, {"pitch": 77, "velocity": 57, "note_on_time": 20.039, "note_off_time": 20.553}, {"pitch": 76, "velocity": 52, "note_on_time": 20.613, "note_off_time": 21.225}, {"pitch": 74, "velocity": 49, "note_on_time": 21.241, "note_off_time": 21.443}, {"pitch": 72, "velocity": 63, "note_on_time": 21.848, "note_off_time": 22.092}, {"pitch": 72, "velocity": 46, "note_on_time": 22.477, "note_off_time": 22.813}, {"pitch": 74, "velocity": 45, "note_on_time": 23.129, "note_off_time": 23.367}, {"pitch": 74, "velocity": 61, "note_on_time": 23.728, "note_off_time": 24.255}, {"pitch": 76, "velocity": 60, "note_on_time": 24.297, "note_off_time": 24.843}, {"pitch": 74, "velocity": 53, "note_on_time": 24.851, "note_off_time": 25.384}, {"pitch": 77, "velocity": 54, "note_on_time": 25.42, "note_off_time": 26.169}, {"pitch": 72, "velocity": 56, "note_on_time": 26.652, "note_off_time": 27.182}, {"pitch": 74, "velocity": 56, "note_on_time": 27.266, "note_off_time": 27.923}, {"pitch": 76, "velocity": 51, "note_on_time": 27.85, "note_off_time": 28.425}, {"pitch": 77, "velocity": 67, "note_on_time": 28.39, "note_off_time": 29.001}, {"pitch": 76, "velocity": 61, "note_on_time": 29.002, "note_off_time": 29.736}, {"pitch": 74, "velocity": 22, "note_on_time": 29.628, "note_off_time": 30.265}, {"pitch": 72, "velocity": 65, "note_on_time": 30.24, "note_off_time": 31.014}, {"pitch": 72, "velocity": 61, "note_on_time": 31.519, "note_off_time": 32.041}, {"pitch": 77, "velocity": 51, "note_on_time": 32.086, "note_off_time": 32.605}, {"pitch": 76, "velocity": 61, "note_on_time": 32.644, "note_off_time": 33.252}, {"pitch": 74, "velocity": 54, "note_on_time": 33.252, "note_off_time": 33.826}, {"pitch": 72, "velocity": 69, "note_on_time": 33.846, "note_off_time": 34.357}, {"pitch": 79, "velocity": 49, "note_on_time": 34.462, "note_off_time": 34.943}, {"pitch": 77, "velocity": 58, "note_on_time": 34.999, "note_off_time": 35.679}, {"pitch": 72, "velocity": 51, "note_on_time": 36.177, "note_off_time": 36.707}, {"pitch": 74, "velocity": 42, "note_on_time": 36.76, "note_off_time": 37.33}, {"pitch": 76, "velocity": 41, "note_on_time": 37.333, "note_off_time": 37.867}, {"pitch": 77, "velocity": 63, "note_on_time": 37.868, "note_off_time": 38.416}, {"pitch": 76, "velocity": 58, "note_on_time": 38.413, "note_off_time": 38.99}, {"pitch": 74, "velocity": 59, "note_on_time": 38.96, "note_off_time": 39.538}, {"pitch": 72, "velocity": 33, "note_on_time": 39.589, "note_off_time": 40.167}, {"pitch": 72, "velocity": 46, "note_on_time": 40.763, "note_off_time": 41.295}, {"pitch": 74, "velocity": 52, "note_on_time": 41.336, "note_off_time": 41.869}, {"pitch": 72, "velocity": 45, "note_on_time": 41.913, "note_off_time": 42.501}, {"pitch": 76, "velocity": 46, "note_on_time": 42.542, "note_off_time": 43.064}, {"pitch": 72, "velocity": 49, "note_on_time": 43.084, "note_off_time": 43.676}, {"pitch": 77, "velocity": 67, "note_on_time": 43.702, "note_off_time": 44.156}, {"pitch": 76, "velocity": 56, "note_on_time": 44.249, "note_off_time": 44.889}, {"pitch": 74, "velocity": 53, "note_on_time": 44.861, "note_off_time": 45.519}, {"pitch": 72, "velocity": 54, "note_on_time": 45.534, "note_off_time": 46.16}, {"pitch": 79, "velocity": 52, "note_on_time": 46.147, "note_off_time": 46.69}, {"pitch": 77, "velocity": 55, "note_on_time": 46.834, "note_off_time": 47.191}, {"pitch": 76, "velocity": 57, "note_on_time": 47.384, "note_off_time": 47.872}, {"pitch": 72, "velocity": 54, "note_on_time": 47.948, "note_off_time": 48.513}, {"pitch": 77, "velocity": 44, "note_on_time": 48.525, "note_off_time": 49.184}, {"pitch": 76, "velocity": 56, "note_on_time": 49.158, "note_off_time": 49.869}, {"pitch": 74, "velocity": 48, "note_on_time": 49.85, "note_off_time": 50.45}, {"pitch": 72, "velocity": 58, "note_on_time": 50.498, "note_off_time": 51.063}, {"pitch": 74, "velocity": 46, "note_on_time": 51.111, "note_off_time": 51.629}, {"pitch": 72, "velocity": 50, "note_on_time": 51.647, "note_off_time": 52.206}, {"pitch": 76, "velocity": 53, "note_on_time": 52.245, "note_off_time": 52.836}, {"pitch": 72, "velocity": 33, "note_on_time": 52.856, "note_off_time": 53.376}, {"pitch": 77, "velocity": 50, "note_on_time": 53.436, "note_off_time": 53.968}, {"pitch": 72, "velocity": 48, "note_on_time": 54.006, "note_off_time": 54.583}, {"pitch": 76, "velocity": 51, "note_on_time": 54.619, "note_off_time": 55.114}, {"pitch": 74, "velocity": 52, "note_on_time": 55.198, "note_off_time": 55.76}, {"pitch": 76, "velocity": 46, "note_on_time": 55.804, "note_off_time": 56.498}, {"pitch": 72, "velocity": 51, "note_on_time": 56.555, "note_off_time": 57.11}, {"pitch": 74, "velocity": 55, "note_on_time": 57.138, "note_off_time": 57.552}, {"pitch": 77, "velocity": 43, "note_on_time": 57.707, "note_off_time": 58.274}, {"pitch": 76, "velocity": 55, "note_on_time": 58.294, "note_off_time": 58.91}, {"pitch": 74, "velocity": 56, "note_on_time": 58.883, "note_off_time": 59.548}, {"pitch": 72, "velocity": 68, "note_on_time": 59.563, "note_off_time": 60.193}, {"pitch": 72, "velocity": 49, "note_on_time": 60.637, "note_off_time": 61.18}, {"pitch": 74, "velocity": 52, "note_on_time": 61.214, "note_off_time": 61.697}, {"pitch": 77, "velocity": 49, "note_on_time": 61.746, "note_off_time": 62.291}, {"pitch": 76, "velocity": 43, "note_on_time": 62.324, "note_off_time": 62.905}, {"pitch": 72, "velocity": 44, "note_on_time": 62.918, "note_off_time": 63.456}, {"pitch": 74, "velocity": 49, "note_on_time": 63.487, "note_off_time": 63.992}, {"pitch": 77, "velocity": 56, "note_on_time": 64.027, "note_off_time": 64.522}, {"pitch": 76, "velocity": 45, "note_on_time": 64.609, "note_off_time": 65.166}, {"pitch": 74, "velocity": 55, "note_on_time": 65.188, "note_off_time": 65.743}, {"pitch": 72, "velocity": 48, "note_on_time": 65.75, "note_off_time": 66.274}, {"pitch": 74, "velocity": 58, "note_on_time": 66.323, "note_off_time": 66.591}, {"pitch": 74, "velocity": 60, "note_on_time": 66.871, "note_off_time": 67.388}, {"pitch": 77, "velocity": 60, "note_on_time": 67.422, "note_off_time": 67.938}, {"pitch": 76, "velocity": 50, "note_on_time": 67.951, "note_off_time": 68.543}, {"pitch": 74, "velocity": 51, "note_on_time": 68.526, "note_off_time": 69.087}, {"pitch": 72, "velocity": 71, "note_on_time": 69.08, "note_off_time": 69.567}, {"pitch": 72, "velocity": 35, "note_on_time": 69.825, "note_off_time": 70.355}, {"pitch": 74, "velocity": 51, "note_on_time": 70.408, "note_off_time": 70.915}, {"pitch": 76, "velocity": 49, "note_on_time": 70.979, "note_off_time": 71.446}, {"pitch": 77, "velocity": 40, "note_on_time": 71.515, "note_off_time": 72.072}, {"pitch": 76, "velocity": 43, "note_on_time": 72.086, "note_off_time": 72.63}, {"pitch": 74, "velocity": 44, "note_on_time": 72.633, "note_off_time": 73.262}, {"pitch": 72, "velocity": 42, "note_on_time": 73.303, "note_off_time": 73.744}, {"pitch": 79, "velocity": 59, "note_on_time": 75.471, "note_off_time": 76.0}, {"pitch": 77, "velocity": 17, "note_on_time": 76.095, "note_off_time": 76.483}, {"pitch": 79, "velocity": 63, "note_on_time": 76.58, "note_off_time": 77.122}, {"pitch": 77, "velocity": 59, "note_on_time": 77.156, "note_off_time": 77.742}, {"pitch": 76, "velocity": 57, "note_on_time": 77.757, "note_off_time": 78.383}, {"pitch": 74, "velocity": 58, "note_on_time": 78.396, "note_off_time": 78.947}, {"pitch": 76, "velocity": 49, "note_on_time": 78.971, "note_off_time": 79.625}, {"pitch": 77, "velocity": 65, "note_on_time": 79.573, "note_off_time": 80.144}, {"pitch": 79, "velocity": 52, "note_on_time": 80.175, "note_off_time": 80.845}, {"pitch": 72, "velocity": 58, "note_on_time": 81.413, "note_off_time": 81.954}, {"pitch": 77, "velocity": 51, "note_on_time": 82.001, "note_off_time": 82.506}, {"pitch": 76, "velocity": 54, "note_on_time": 82.549, "note_off_time": 83.162}, {"pitch": 74, "velocity": 39, "note_on_time": 83.188, "note_off_time": 83.889}, {"pitch": 72, "velocity": 51, "note_on_time": 83.907, "note_off_time": 84.513}, {"pitch": 74, "velocity": 51, "note_on_time": 84.546, "note_off_time": 85.05}, {"pitch": 77, "velocity": 28, "note_on_time": 85.126, "note_off_time": 85.826}, {"pitch": 72, "velocity": 51, "note_on_time": 86.275, "note_off_time": 86.829}, {"pitch": 79, "velocity": 47, "note_on_time": 86.87, "note_off_time": 87.458}, {"pitch": 77, "velocity": 51, "note_on_time": 87.429, "note_off_time": 88.126}, {"pitch": 74, "velocity": 7, "note_on_time": 88.081, "note_off_time": 88.633}, {"pitch": 72, "velocity": 50, "note_on_time": 88.642, "note_off_time": 89.21}, {"pitch": 74, "velocity": 61, "note_on_time": 89.375, "note_off_time": 89.963}, {"pitch": 77, "velocity": 42, "note_on_time": 89.979, "note_off_time": 90.707}, {"pitch": 79, "velocity": 56, "note_on_time": 91.205, "note_off_time": 91.784}, {"pitch": 77, "velocity": 45, "note_on_time": 91.794, "note_off_time": 92.41}, {"pitch": 76, "velocity": 58, "note_on_time": 92.426, "note_off_time": 93.027}, {"pitch": 74, "velocity": 44, "note_on_time": 93.06, "note_off_time": 93.64}, {"pitch": 72, "velocity": 58, "note_on_time": 93.676, "note_off_time": 94.27}, {"pitch": 77, "velocity": 56, "note_on_time": 94.28, "note_off_time": 94.858}, {"pitch": 76, "velocity": 47, "note_on_time": 94.888, "note_off_time": 95.637}, {"pitch": 79, "velocity": 52, "note_on_time": 96.091, "note_off_time": 96.63}, {"pitch": 77, "velocity": 50, "note_on_time": 96.673, "note_off_time": 97.115}, {"pitch": 76, "velocity": 60, "note_on_time": 97.309, "note_off_time": 97.882}, {"pitch": 74, "velocity": 51, "note_on_time": 97.894, "note_off_time": 98.521}, {"pitch": 72, "velocity": 61, "note_on_time": 98.543, "note_off_time": 99.063}, {"pitch": 77, "velocity": 62, "note_on_time": 99.097, "note_off_time": 99.531}, {"pitch": 79, "velocity": 32, "note_on_time": 99.688, "note_off_time": 100.243}, {"pitch": 79, "velocity": 58, "note_on_time": 100.825, "note_off_time": 101.373}, {"pitch": 77, "velocity": 48, "note_on_time": 101.391, "note_off_time": 101.795}, {"pitch": 79, "velocity": 64, "note_on_time": 101.928, "note_off_time": 102.488}, {"pitch": 77, "velocity": 47, "note_on_time": 102.489, "note_off_time": 103.163}, {"pitch": 74, "velocity": 18, "note_on_time": 103.107, "note_off_time": 103.646}, {"pitch": 72, "velocity": 49, "note_on_time": 104.254, "note_off_time": 105.334}, {"pitch": 76, "velocity": 49, "note_on_time": 106.002, "note_off_time": 106.298}, {"pitch": 76, "velocity": 69, "note_on_time": 106.569, "note_off_time": 106.97}, {"pitch": 77, "velocity": 49, "note_on_time": 107.084, "note_off_time": 107.626}, {"pitch": 74, "velocity": 67, "note_on_time": 107.656, "note_off_time": 108.182}, {"pitch": 76, "velocity": 50, "note_on_time": 108.242, "note_off_time": 108.809}, {"pitch": 74, "velocity": 45, "note_on_time": 108.825, "note_off_time": 109.453}, {"pitch": 79, "velocity": 55, "note_on_time": 109.428, "note_off_time": 110.228}, {"pitch": 72, "velocity": 55, "note_on_time": 110.636, "note_off_time": 111.238}, {"pitch": 74, "velocity": 45, "note_on_time": 111.269, "note_off_time": 111.893}, {"pitch": 76, "velocity": 56, "note_on_time": 111.884, "note_off_time": 112.458}, {"pitch": 74, "velocity": 47, "note_on_time": 112.467, "note_off_time": 113.087}, {"pitch": 72, "velocity": 59, "note_on_time": 113.081, "note_off_time": 113.672}, {"pitch": 74, "velocity": 42, "note_on_time": 113.706, "note_off_time": 114.319}, {"pitch": 76, "velocity": 54, "note_on_time": 114.284, "note_off_time": 115.007}, {"pitch": 76, "velocity": 58, "note_on_time": 115.498, "note_off_time": 115.702}, {"pitch": 76, "velocity": 56, "note_on_time": 116.071, "note_off_time": 116.6}, {"pitch": 77, "velocity": 60, "note_on_time": 116.634, "note_off_time": 116.891}, {"pitch": 77, "velocity": 58, "note_on_time": 117.143, "note_off_time": 117.681}, {"pitch": 79, "velocity": 53, "note_on_time": 117.716, "note_off_time": 118.203}, {"pitch": 77, "velocity": 65, "note_on_time": 118.211, "note_off_time": 118.74}, {"pitch": 76, "velocity": 49, "note_on_time": 118.753, "note_off_time": 119.364}, {"pitch": 72, "velocity": 39, "note_on_time": 119.864, "note_off_time": 120.096}, {"pitch": 72, "velocity": 41, "note_on_time": 120.437, "note_off_time": 120.991}, {"pitch": 74, "velocity": 59, "note_on_time": 120.956, "note_off_time": 121.487}, {"pitch": 76, "velocity": 57, "note_on_time": 121.51, "note_off_time": 122.058}, {"pitch": 74, "velocity": 47, "note_on_time": 122.024, "note_off_time": 122.594}, {"pitch": 72, "velocity": 47, "note_on_time": 122.566, "note_off_time": 122.819}, {"pitch": 74, "velocity": 7, "note_on_time": 122.976, "note_off_time": 123.162}, {"pitch": 72, "velocity": 58, "note_on_time": 123.135, "note_off_time": 123.757}, {"pitch": 72, "velocity": 54, "note_on_time": 124.188, "note_off_time": 124.703}, {"pitch": 74, "velocity": 56, "note_on_time": 124.72, "note_off_time": 125.251}, {"pitch": 76, "velocity": 55, "note_on_time": 125.241, "note_off_time": 125.807}, {"pitch": 77, "velocity": 54, "note_on_time": 125.827, "note_off_time": 126.305}, {"pitch": 76, "velocity": 46, "note_on_time": 126.331, "note_off_time": 126.887}, {"pitch": 74, "velocity": 49, "note_on_time": 126.888, "note_off_time": 127.432}, {"pitch": 72, "velocity": 64, "note_on_time": 127.442, "note_off_time": 128.079}, {"pitch": 79, "velocity": 56, "note_on_time": 128.469, "note_off_time": 128.983}, {"pitch": 77, "velocity": 56, "note_on_time": 128.998, "note_off_time": 129.544}, {"pitch": 76, "velocity": 50, "note_on_time": 129.553, "note_off_time": 130.161}, {"pitch": 74, "velocity": 42, "note_on_time": 130.101, "note_off_time": 130.657}, {"pitch": 72, "velocity": 50, "note_on_time": 130.686, "note_off_time": 131.23}, {"pitch": 74, "velocity": 47, "note_on_time": 131.267, "note_off_time": 131.624}, {"pitch": 76, "velocity": 74, "note_on_time": 131.831, "note_off_time": 132.563}, {"pitch": 77, "velocity": 41, "note_on_time": 132.929, "note_off_time": 133.341}, {"pitch": 79, "velocity": 45, "note_on_time": 133.415, "note_off_time": 133.936}, {"pitch": 77, "velocity": 68, "note_on_time": 133.934, "note_off_time": 134.284}, {"pitch": 79, "velocity": 52, "note_on_time": 134.696, "note_off_time": 135.15}, {"pitch": 77, "velocity": 44, "note_on_time": 135.159, "note_off_time": 135.67}, {"pitch": 76, "velocity": 39, "note_on_time": 135.716, "note_off_time": 136.336}, {"pitch": 74, "velocity": 43, "note_on_time": 136.381, "note_off_time": 137.085}, {"pitch": 72, "velocity": 49, "note_on_time": 137.511, "note_off_time": 138.085}, {"pitch": 79, "velocity": 49, "note_on_time": 138.094, "note_off_time": 138.548}, {"pitch": 77, "velocity": 51, "note_on_time": 138.6, "note_off_time": 139.168}, {"pitch": 74, "velocity": 51, "note_on_time": 139.181, "note_off_time": 139.707}, {"pitch": 76, "velocity": 51, "note_on_time": 139.754, "note_off_time": 140.214}, {"pitch": 77, "velocity": 48, "note_on_time": 140.269, "note_off_time": 140.808}, {"pitch": 79, "velocity": 49, "note_on_time": 140.804, "note_off_time": 141.445}, {"pitch": 72, "velocity": 44, "note_on_time": 141.859, "note_off_time": 142.407}, {"pitch": 74, "velocity": 32, "note_on_time": 142.47, "note_off_time": 143.015}, {"pitch": 72, "velocity": 45, "note_on_time": 143.027, "note_off_time": 143.557}, {"pitch": 76, "velocity": 48, "note_on_time": 143.584, "note_off_time": 144.083}, {"pitch": 72, "velocity": 50, "note_on_time": 144.119, "note_off_time": 144.496}, {"pitch": 77, "velocity": 53, "note_on_time": 144.666, "note_off_time": 145.164}, {"pitch": 72, "velocity": 41, "note_on_time": 145.282, "note_off_time": 145.947}, {"pitch": 79, "velocity": 59, "note_on_time": 146.04, "note_off_time": 146.801}, {"pitch": 79, "velocity": 49, "note_on_time": 147.286, "note_off_time": 147.586}, {"pitch": 79, "velocity": 52, "note_on_time": 147.874, "note_off_time": 148.267}, {"pitch": 76, "velocity": 49, "note_on_time": 148.424, "note_off_time": 149.031}, {"pitch": 74, "velocity": 56, "note_on_time": 149.029, "note_off_time": 149.563}, {"pitch": 72, "velocity": 55, "note_on_time": 149.601, "note_off_time": 150.126}, {"pitch": 77, "velocity": 53, "note_on_time": 150.141, "note_off_time": 150.629}, {"pitch": 76, "velocity": 40, "note_on_time": 150.731, "note_off_time": 151.417}, {"pitch": 72, "velocity": 49, "note_on_time": 151.833, "note_off_time": 152.017}, {"pitch": 72, "velocity": 53, "note_on_time": 152.339, "note_off_time": 152.92}, {"pitch": 74, "velocity": 53, "note_on_time": 152.902, "note_off_time": 153.436}, {"pitch": 76, "velocity": 47, "note_on_time": 153.465, "note_off_time": 153.979}, {"pitch": 77, "velocity": 47, "note_on_time": 153.992, "note_off_time": 154.564}, {"pitch": 76, "velocity": 24, "note_on_time": 154.616, "note_off_time": 155.187}, {"pitch": 74, "velocity": 53, "note_on_time": 155.166, "note_off_time": 156.051}, {"pitch": 72, "velocity": 44, "note_on_time": 156.156, "note_off_time": 156.64}, {"pitch": 79, "velocity": 50, "note_on_time": 156.678, "note_off_time": 157.205}, {"pitch": 77, "velocity": 59, "note_on_time": 157.191, "note_off_time": 157.762}, {"pitch": 76, "velocity": 42, "note_on_time": 157.808, "note_off_time": 158.388}, {"pitch": 74, "velocity": 44, "note_on_time": 158.4, "note_off_time": 158.85}, {"pitch": 76, "velocity": 45, "note_on_time": 158.889, "note_off_time": 159.473}, {"pitch": 77, "velocity": 36, "note_on_time": 159.314, "note_off_time": 159.769}, {"pitch": 79, "velocity": 28, "note_on_time": 159.95, "note_off_time": 160.727}, {"pitch": 72, "velocity": 57, "note_on_time": 161.889, "note_off_time": 162.438}, {"pitch": 74, "velocity": 43, "note_on_time": 162.497, "note_off_time": 163.029}, {"pitch": 76, "velocity": 47, "note_on_time": 163.068, "note_off_time": 163.622}, {"pitch": 77, "velocity": 55, "note_on_time": 163.613, "note_off_time": 164.291}, {"pitch": 76, "velocity": 56, "note_on_time": 164.242, "note_off_time": 164.883}, {"pitch": 74, "velocity": 55, "note_on_time": 164.888, "note_off_time": 165.453}, {"pitch": 72, "velocity": 39, "note_on_time": 165.522, "note_off_time": 166.243}, {"pitch": 79, "velocity": 56, "note_on_time": 166.758, "note_off_time": 167.27}, {"pitch": 77, "velocity": 51, "note_on_time": 167.292, "note_off_time": 167.842}, {"pitch": 76, "velocity": 30, "note_on_time": 167.884, "note_off_time": 168.603}, {"pitch": 74, "velocity": 53, "note_on_time": 168.553, "note_off_time": 169.121}, {"pitch": 72, "velocity": 49, "note_on_time": 169.15, "note_off_time": 169.715}, {"pitch": 74, "velocity": 24, "note_on_time": 169.783, "note_off_time": 170.321}, {"pitch": 76, "velocity": 49, "note_on_time": 170.338, "note_off_time": 171.041}, {"pitch": 79, "velocity": 55, "note_on_time": 171.571, "note_off_time": 172.122}, {"pitch": 77, "velocity": 1, "note_on_time": 172.333, "note_off_time": 172.571}, {"pitch": 77, "velocity": 54, "note_on_time": 172.768, "note_off_time": 173.113}, {"pitch": 72, "velocity": 44, "note_on_time": 174.084, "note_off_time": 174.629}, {"pitch": 74, "velocity": 56, "note_on_time": 174.686, "note_off_time": 175.221}, {"pitch": 76, "velocity": 45, "note_on_time": 175.286, "note_off_time": 175.856}, {"pitch": 77, "velocity": 51, "note_on_time": 175.907, "note_off_time": 176.408}, {"pitch": 76, "velocity": 31, "note_on_time": 176.496, "note_off_time": 176.802}, {"pitch": 76, "velocity": 44, "note_on_time": 177.09, "note_off_time": 177.389}, {"pitch": 74, "velocity": 57, "note_on_time": 177.73, "note_off_time": 177.929}, {"pitch": 74, "velocity": 56, "note_on_time": 178.313, "note_off_time": 178.776}, {"pitch": 77, "velocity": 53, "note_on_time": 178.914, "note_off_time": 179.447}, {"pitch": 72, "velocity": 56, "note_on_time": 179.532, "note_off_time": 179.992}, {"pitch": 74, "velocity": 40, "note_on_time": 180.11, "note_off_time": 180.662}, {"pitch": 72, "velocity": 36, "note_on_time": 180.719, "note_off_time": 181.289}, {"pitch": 76, "velocity": 56, "note_on_time": 181.328, "note_off_time": 181.97}, {"pitch": 72, "velocity": 47, "note_on_time": 181.946, "note_off_time": 182.423}, {"pitch": 79, "velocity": 38, "note_on_time": 182.577, "note_off_time": 183.066}, {"pitch": 77, "velocity": 49, "note_on_time": 183.129, "note_off_time": 183.686}, {"pitch": 76, "velocity": 42, "note_on_time": 183.772, "note_off_time": 184.377}, {"pitch": 74, "velocity": 46, "note_on_time": 184.414, "note_off_time": 184.889}, {"pitch": 72, "velocity": 36, "note_on_time": 185.095, "note_off_time": 185.766}, {"pitch": 72, "velocity": 38, "note_on_time": 186.236, "note_off_time": 186.372}, {"pitch": 72, "velocity": 40, "note_on_time": 186.774, "note_off_time": 187.382}, {"pitch": 74, "velocity": 60, "note_on_time": 187.399, "note_off_time": 188.035}, {"pitch": 76, "velocity": 45, "note_on_time": 188.029, "note_off_time": 188.526}, {"pitch": 77, "velocity": 50, "note_on_time": 188.56, "note_off_time": 189.159}, {"pitch": 76, "velocity": 52, "note_on_time": 189.164, "note_off_time": 189.717}, {"pitch": 72, "velocity": 57, "note_on_time": 189.815, "note_off_time": 190.566}, {"pitch": 79, "velocity": 56, "note_on_time": 191.017, "note_off_time": 191.54}, {"pitch": 77, "velocity": 52, "note_on_time": 191.546, "note_off_time": 192.108}, {"pitch": 76, "velocity": 49, "note_on_time": 192.147, "note_off_time": 192.749}, {"pitch": 74, "velocity": 42, "note_on_time": 192.811, "note_off_time": 193.385}, {"pitch": 76, "velocity": 44, "note_on_time": 193.403, "note_off_time": 194.033}, {"pitch": 77, "velocity": 45, "note_on_time": 194.03, "note_off_time": 194.265}]</notes><guidance name="Guidance Mode">None</guidance><error name="Error value">99</error></trial><trial trial_no="3" timestamp="2024_02_26-17_43_47"><notes name="Played Notes">[{"pitch": 72, "velocity": 54, "note_on_time": 2.493, "note_off_time": 2.967}, {"pitch": 76, "velocity": 43, "note_on_time": 2.516, "note_off_time": 3.058}, {"pitch": 74, "velocity": 68, "note_on_time": 3.037, "note_off_time": 3.626}, {"pitch": 72, "velocity": 55, "note_on_time": 3.639, "note_off_time": 3.888}, {"pitch": 76, "velocity": 50, "note_on_time": 3.648, "note_off_time": 4.151}, {"pitch": 72, "velocity": 48, "note_on_time": 7.4, "note_off_time": 7.946}, {"pitch": 76, "velocity": 72, "note_on_time": 7.925, "note_off_time": 8.384}, {"pitch": 77, "velocity": 52, "note_on_time": 8.536, "note_off_time": 9.165}, {"pitch": 76, "velocity": 67, "note_on_time": 9.14, "note_off_time": 9.776}, {"pitch": 77, "velocity": 59, "note_on_time": 9.752, "note_off_time": 10.423}, {"pitch": 76, "velocity": 34, "note_on_time": 10.303, "note_off_time": 11.044}, {"pitch": 74, "velocity": 72, "note_on_time": 11.038, "note_off_time": 12.24}, {"pitch": 72, "velocity": 63, "note_on_time": 12.252, "note_off_time": 12.912}, {"pitch": 74, "velocity": 42, "note_on_time": 12.833, "note_off_time": 13.44}, {"pitch": 76, "velocity": 58, "note_on_time": 13.409, "note_off_time": 14.051}, {"pitch": 79, "velocity": 42, "note_on_time": 14.635, "note_off_time": 15.175}, {"pitch": 77, "velocity": 68, "note_on_time": 15.108, "note_off_time": 16.045}, {"pitch": 76, "velocity": 64, "note_on_time": 16.105, "note_off_time": 16.743}, {"pitch": 74, "velocity": 56, "note_on_time": 19.543, "note_off_time": 20.171}, {"pitch": 76, "velocity": 56, "note_on_time": 20.163, "note_off_time": 20.817}, {"pitch": 72, "velocity": 70, "note_on_time": 20.875, "note_off_time": 21.349}, {"pitch": 74, "velocity": 70, "note_on_time": 21.364, "note_off_time": 21.903}, {"pitch": 77, "velocity": 45, "note_on_time": 21.905, "note_off_time": 22.506}, {"pitch": 76, "velocity": 67, "note_on_time": 22.452, "note_off_time": 23.444}, {"pitch": 72, "velocity": 49, "note_on_time": 24.365, "note_off_time": 24.902}, {"pitch": 74, "velocity": 57, "note_on_time": 24.918, "note_off_time": 25.545}, {"pitch": 76, "velocity": 73, "note_on_time": 25.493, "note_off_time": 26.153}, {"pitch": 79, "velocity": 36, "note_on_time": 26.837, "note_off_time": 27.399}, {"pitch": 77, "velocity": 60, "note_on_time": 27.386, "note_off_time": 27.804}, {"pitch": 74, "velocity": 65, "note_on_time": 28.07, "note_off_time": 28.894}, {"pitch": 72, "velocity": 44, "note_on_time": 29.205, "note_off_time": 29.746}, {"pitch": 76, "velocity": 55, "note_on_time": 29.774, "note_off_time": 30.135}, {"pitch": 77, "velocity": 57, "note_on_time": 30.34, "note_off_time": 30.783}, {"pitch": 79, "velocity": 49, "note_on_time": 30.909, "note_off_time": 31.568}, {"pitch": 74, "velocity": 41, "note_on_time": 31.622, "note_off_time": 32.383}, {"pitch": 77, "velocity": 41, "note_on_time": 32.417, "note_off_time": 32.971}, {"pitch": 76, "velocity": 69, "note_on_time": 32.978, "note_off_time": 33.931}, {"pitch": 72, "velocity": 57, "note_on_time": 34.815, "note_off_time": 35.215}, {"pitch": 72, "velocity": 56, "note_on_time": 36.578, "note_off_time": 37.231}, {"pitch": 76, "velocity": 49, "note_on_time": 37.161, "note_off_time": 37.63}, {"pitch": 72, "velocity": 54, "note_on_time": 37.71, "note_off_time": 38.453}, {"pitch": 76, "velocity": 54, "note_on_time": 38.338, "note_off_time": 38.689}, {"pitch": 72, "velocity": 49, "note_on_time": 38.977, "note_off_time": 39.573}, {"pitch": 76, "velocity": 60, "note_on_time": 39.593, "note_off_time": 40.121}, {"pitch": 77, "velocity": 63, "note_on_time": 40.16, "note_off_time": 40.633}, {"pitch": 79, "velocity": 40, "note_on_time": 40.772, "note_off_time": 41.211}, {"pitch": 77, "velocity": 58, "note_on_time": 41.383, "note_off_time": 41.933}, {"pitch": 76, "velocity": 60, "note_on_time": 41.988, "note_off_time": 42.703}, {"pitch": 74, "velocity": 35, "note_on_time": 42.981, "note_off_time": 43.223}, {"pitch": 74, "velocity": 65, "note_on_time": 43.582, "note_off_time": 44.185}, {"pitch": 72, "velocity": 39, "note_on_time": 46.408, "note_off_time": 46.717}, {"pitch": 77, "velocity": 52, "note_on_time": 47.003, "note_off_time": 47.34}, {"pitch": 72, "velocity": 54, "note_on_time": 47.606, "note_off_time": 47.962}, {"pitch": 77, "velocity": 26, "note_on_time": 48.177, "note_off_time": 48.552}, {"pitch": 72, "velocity": 3, "note_on_time": 50.93, "note_off_time": 51.291}, {"pitch": 72, "velocity": 62, "note_on_time": 51.652, "note_off_time": 52.316}, {"pitch": 79, "velocity": 42, "note_on_time": 52.356, "note_off_time": 52.731}, {"pitch": 72, "velocity": 1, "note_on_time": 53.209, "note_off_time": 53.449}, {"pitch": 72, "velocity": 22, "note_on_time": 53.81, "note_off_time": 53.95}, {"pitch": 72, "velocity": 49, "note_on_time": 54.352, "note_off_time": 54.775}, {"pitch": 72, "velocity": 61, "note_on_time": 54.901, "note_off_time": 55.135}, {"pitch": 77, "velocity": 58, "note_on_time": 55.252, "note_off_time": 55.957}, {"pitch": 72, "velocity": 55, "note_on_time": 55.891, "note_off_time": 56.007}, {"pitch": 72, "velocity": 56, "note_on_time": 56.636, "note_off_time": 56.77}, {"pitch": 72, "velocity": 52, "note_on_time": 57.074, "note_off_time": 57.226}, {"pitch": 77, "velocity": 51, "note_on_time": 57.673, "note_off_time": 58.46}, {"pitch": 74, "velocity": 55, "note_on_time": 58.54, "note_off_time": 58.767}, {"pitch": 74, "velocity": 43, "note_on_time": 58.984, "note_off_time": 59.162}, {"pitch": 76, "velocity": 64, "note_on_time": 59.506, "note_off_time": 60.319}, {"pitch": 72, "velocity": 58, "note_on_time": 60.425, "note_off_time": 60.852}, {"pitch": 79, "velocity": 56, "note_on_time": 60.912, "note_off_time": 61.457}, {"pitch": 76, "velocity": 22, "note_on_time": 61.895, "note_off_time": 62.272}, {"pitch": 72, "velocity": 58, "note_on_time": 62.318, "note_off_time": 62.717}, {"pitch": 74, "velocity": 46, "note_on_time": 62.82, "note_off_time": 63.525}, {"pitch": 72, "velocity": 51, "note_on_time": 63.902, "note_off_time": 64.474}, {"pitch": 77, "velocity": 33, "note_on_time": 64.571, "note_off_time": 64.907}, {"pitch": 76, "velocity": 58, "note_on_time": 65.04, "note_off_time": 65.624}, {"pitch": 72, "velocity": 52, "note_on_time": 65.985, "note_off_time": 66.489}, {"pitch": 76, "velocity": 60, "note_on_time": 67.171, "note_off_time": 67.493}, {"pitch": 74, "velocity": 49, "note_on_time": 67.758, "note_off_time": 68.243}, {"pitch": 72, "velocity": 45, "note_on_time": 68.641, "note_off_time": 69.098}, {"pitch": 77, "velocity": 48, "note_on_time": 69.236, "note_off_time": 69.484}, {"pitch": 76, "velocity": 55, "note_on_time": 69.776, "note_off_time": 70.477}, {"pitch": 72, "velocity": 33, "note_on_time": 70.715, "note_off_time": 71.009}, {"pitch": 77, "velocity": 63, "note_on_time": 71.246, "note_off_time": 71.557}, {"pitch": 76, "velocity": 51, "note_on_time": 71.712, "note_off_time": 72.492}, {"pitch": 74, "velocity": 59, "note_on_time": 74.222, "note_off_time": 74.742}, {"pitch": 72, "velocity": 54, "note_on_time": 74.767, "note_off_time": 75.303}, {"pitch": 77, "velocity": 51, "note_on_time": 75.335, "note_off_time": 75.752}, {"pitch": 76, "velocity": 55, "note_on_time": 75.992, "note_off_time": 76.474}, {"pitch": 72, "velocity": 58, "note_on_time": 76.687, "note_off_time": 77.066}, {"pitch": 77, "velocity": 60, "note_on_time": 77.257, "note_off_time": 77.682}, {"pitch": 72, "velocity": 47, "note_on_time": 77.873, "note_off_time": 78.394}, {"pitch": 77, "velocity": 46, "note_on_time": 78.499, "note_off_time": 78.837}, {"pitch": 76, "velocity": 18, "note_on_time": 80.289, "note_off_time": 80.803}, {"pitch": 74, "velocity": 68, "note_on_time": 80.839, "note_off_time": 81.495}, {"pitch": 72, "velocity": 45, "note_on_time": 81.473, "note_off_time": 82.013}, {"pitch": 74, "velocity": 68, "note_on_time": 82.049, "note_off_time": 82.545}, {"pitch": 77, "velocity": 59, "note_on_time": 83.037, "note_off_time": 83.591}, {"pitch": 76, "velocity": 61, "note_on_time": 83.626, "note_off_time": 84.466}, {"pitch": 79, "velocity": 56, "note_on_time": 86.369, "note_off_time": 86.894}, {"pitch": 76, "velocity": 54, "note_on_time": 86.909, "note_off_time": 87.537}, {"pitch": 74, "velocity": 61, "note_on_time": 87.528, "note_off_time": 88.368}, {"pitch": 72, "velocity": 42, "note_on_time": 88.478, "note_off_time": 88.944}, {"pitch": 77, "velocity": 48, "note_on_time": 88.993, "note_off_time": 89.654}, {"pitch": 76, "velocity": 73, "note_on_time": 89.628, "note_off_time": 90.541}, {"pitch": 72, "velocity": 64, "note_on_time": 91.235, "note_off_time": 91.834}, {"pitch": 74, "velocity": 62, "note_on_time": 91.861, "note_off_time": 92.35}, {"pitch": 76, "velocity": 57, "note_on_time": 92.385, "note_off_time": 93.063}, {"pitch": 77, "velocity": 55, "note_on_time": 93.069, "note_off_time": 93.634}, {"pitch": 79, "velocity": 54, "note_on_time": 93.668, "note_off_time": 94.287}, {"pitch": 72, "velocity": 47, "note_on_time": 94.808, "note_off_time": 95.205}, {"pitch": 76, "velocity": 48, "note_on_time": 95.516, "note_off_time": 95.939}, {"pitch": 74, "velocity": 38, "note_on_time": 96.167, "note_off_time": 96.423}, {"pitch": 77, "velocity": 35, "note_on_time": 96.684, "note_off_time": 97.142}, {"pitch": 79, "velocity": 49, "note_on_time": 97.204, "note_off_time": 97.737}, {"pitch": 76, "velocity": 21, "note_on_time": 97.946, "note_off_time": 98.275}, {"pitch": 76, "velocity": 57, "note_on_time": 98.533, "note_off_time": 99.105}, {"pitch": 72, "velocity": 51, "note_on_time": 99.242, "note_off_time": 99.832}, {"pitch": 74, "velocity": 34, "note_on_time": 100.395, "note_off_time": 100.88}, {"pitch": 76, "velocity": 56, "note_on_time": 100.902, "note_off_time": 101.318}, {"pitch": 77, "velocity": 54, "note_on_time": 101.54, "note_off_time": 101.91}, {"pitch": 76, "velocity": 46, "note_on_time": 102.129, "note_off_time": 102.506}, {"pitch": 74, "velocity": 42, "note_on_time": 102.766, "note_off_time": 103.168}, {"pitch": 72, "velocity": 47, "note_on_time": 103.41, "note_off_time": 104.076}, {"pitch": 79, "velocity": 55, "note_on_time": 104.512, "note_off_time": 105.366}, {"pitch": 72, "velocity": 55, "note_on_time": 107.108, "note_off_time": 107.403}, {"pitch": 74, "velocity": 56, "note_on_time": 107.692, "note_off_time": 108.036}, {"pitch": 76, "velocity": 39, "note_on_time": 108.152, "note_off_time": 108.592}, {"pitch": 74, "velocity": 43, "note_on_time": 108.897, "note_off_time": 109.452}, {"pitch": 72, "velocity": 60, "note_on_time": 109.498, "note_off_time": 110.17}, {"pitch": 72, "velocity": 46, "note_on_time": 111.992, "note_off_time": 112.258}, {"pitch": 76, "velocity": 41, "note_on_time": 112.564, "note_off_time": 113.095}, {"pitch": 72, "velocity": 55, "note_on_time": 113.136, "note_off_time": 113.587}, {"pitch": 77, "velocity": 54, "note_on_time": 113.647, "note_off_time": 114.18}, {"pitch": 72, "velocity": 52, "note_on_time": 114.251, "note_off_time": 114.734}, {"pitch": 79, "velocity": 41, "note_on_time": 114.863, "note_off_time": 115.439}, {"pitch": 72, "velocity": 53, "note_on_time": 115.502, "note_off_time": 115.811}, {"pitch": 74, "velocity": 55, "note_on_time": 116.107, "note_off_time": 116.836}, {"pitch": 74, "velocity": 60, "note_on_time": 117.295, "note_off_time": 117.82}, {"pitch": 76, "velocity": 62, "note_on_time": 117.854, "note_off_time": 118.389}, {"pitch": 74, "velocity": 49, "note_on_time": 118.417, "note_off_time": 118.882}, {"pitch": 77, "velocity": 62, "note_on_time": 118.912, "note_off_time": 119.43}, {"pitch": 76, "velocity": 47, "note_on_time": 119.621, "note_off_time": 121.234}, {"pitch": 72, "velocity": 64, "note_on_time": 122.897, "note_off_time": 123.442}, {"pitch": 74, "velocity": 49, "note_on_time": 123.481, "note_off_time": 124.028}, {"pitch": 72, "velocity": 49, "note_on_time": 124.015, "note_off_time": 124.634}, {"pitch": 76, "velocity": 62, "note_on_time": 124.63, "note_off_time": 125.169}, {"pitch": 72, "velocity": 47, "note_on_time": 125.219, "note_off_time": 125.687}, {"pitch": 77, "velocity": 55, "note_on_time": 125.83, "note_off_time": 126.759}, {"pitch": 72, "velocity": 43, "note_on_time": 127.108, "note_off_time": 127.534}, {"pitch": 74, "velocity": 36, "note_on_time": 127.766, "note_off_time": 128.288}, {"pitch": 72, "velocity": 44, "note_on_time": 128.318, "note_off_time": 129.003}, {"pitch": 74, "velocity": 56, "note_on_time": 128.943, "note_off_time": 129.342}, {"pitch": 76, "velocity": 50, "note_on_time": 129.513, "note_off_time": 130.12}, {"pitch": 77, "velocity": 65, "note_on_time": 130.078, "note_off_time": 130.875}, {"pitch": 72, "velocity": 49, "note_on_time": 131.358, "note_off_time": 131.954}, {"pitch": 74, "velocity": 56, "note_on_time": 131.97, "note_off_time": 132.473}, {"pitch": 76, "velocity": 56, "note_on_time": 132.515, "note_off_time": 133.148}, {"pitch": 74, "velocity": 52, "note_on_time": 133.829, "note_off_time": 134.277}, {"pitch": 76, "velocity": 41, "note_on_time": 134.382, "note_off_time": 134.937}, {"pitch": 77, "velocity": 49, "note_on_time": 134.974, "note_off_time": 135.612}, {"pitch": 72, "velocity": 47, "note_on_time": 136.218, "note_off_time": 136.751}, {"pitch": 74, "velocity": 33, "note_on_time": 136.85, "note_off_time": 137.405}, {"pitch": 72, "velocity": 49, "note_on_time": 137.425, "note_off_time": 137.956}, {"pitch": 76, "velocity": 52, "note_on_time": 138.005, "note_off_time": 138.708}, {"pitch": 72, "velocity": 51, "note_on_time": 138.697, "note_off_time": 139.252}, {"pitch": 77, "velocity": 59, "note_on_time": 139.295, "note_off_time": 139.864}, {"pitch": 76, "velocity": 56, "note_on_time": 139.801, "note_off_time": 140.521}, {"pitch": 72, "velocity": 41, "note_on_time": 141.159, "note_off_time": 141.653}, {"pitch": 74, "velocity": 57, "note_on_time": 141.714, "note_off_time": 142.326}, {"pitch": 76, "velocity": 68, "note_on_time": 142.317, "note_off_time": 142.994}, {"pitch": 72, "velocity": 55, "note_on_time": 143.0, "note_off_time": 143.455}, {"pitch": 77, "velocity": 46, "note_on_time": 143.481, "note_off_time": 144.07}, {"pitch": 76, "velocity": 46, "note_on_time": 144.107, "note_off_time": 144.803}, {"pitch": 72, "velocity": 51, "note_on_time": 144.816, "note_off_time": 145.452}, {"pitch": 74, "velocity": 54, "note_on_time": 145.447, "note_off_time": 146.056}, {"pitch": 76, "velocity": 59, "note_on_time": 146.046, "note_off_time": 146.564}, {"pitch": 77, "velocity": 62, "note_on_time": 146.604, "note_off_time": 147.27}, {"pitch": 76, "velocity": 49, "note_on_time": 147.268, "note_off_time": 147.872}, {"pitch": 74, "velocity": 58, "note_on_time": 147.881, "note_off_time": 148.599}, {"pitch": 72, "velocity": 54, "note_on_time": 148.594, "note_off_time": 149.219}, {"pitch": 72, "velocity": 60, "note_on_time": 149.672, "note_off_time": 149.901}, {"pitch": 74, "velocity": 48, "note_on_time": 150.29, "note_off_time": 150.815}, {"pitch": 76, "velocity": 48, "note_on_time": 150.859, "note_off_time": 151.46}, {"pitch": 77, "velocity": 44, "note_on_time": 151.429, "note_off_time": 151.949}, {"pitch": 79, "velocity": 49, "note_on_time": 151.991, "note_off_time": 152.753}, {"pitch": 79, "velocity": 56, "note_on_time": 153.271, "note_off_time": 153.852}, {"pitch": 76, "velocity": 48, "note_on_time": 153.875, "note_off_time": 154.191}, {"pitch": 79, "velocity": 47, "note_on_time": 154.501, "note_off_time": 155.241}, {"pitch": 77, "velocity": 50, "note_on_time": 155.135, "note_off_time": 155.353}, {"pitch": 79, "velocity": 35, "note_on_time": 156.002, "note_off_time": 156.417}, {"pitch": 77, "velocity": 21, "note_on_time": 156.597, "note_off_time": 157.022}, {"pitch": 76, "velocity": 61, "note_on_time": 157.105, "note_off_time": 157.65}, {"pitch": 72, "velocity": 57, "note_on_time": 158.273, "note_off_time": 158.731}, {"pitch": 74, "velocity": 48, "note_on_time": 158.844, "note_off_time": 159.401}, {"pitch": 72, "velocity": 48, "note_on_time": 159.399, "note_off_time": 159.867}, {"pitch": 76, "velocity": 30, "note_on_time": 159.969, "note_off_time": 160.53}, {"pitch": 72, "velocity": 41, "note_on_time": 160.559, "note_off_time": 161.061}, {"pitch": 74, "velocity": 50, "note_on_time": 161.135, "note_off_time": 161.699}, {"pitch": 72, "velocity": 29, "note_on_time": 161.812, "note_off_time": 162.348}, {"pitch": 74, "velocity": 61, "note_on_time": 162.41, "note_off_time": 162.94}, {"pitch": 72, "velocity": 51, "note_on_time": 162.98, "note_off_time": 163.524}, {"pitch": 77, "velocity": 50, "note_on_time": 163.557, "note_off_time": 164.075}, {"pitch": 72, "velocity": 43, "note_on_time": 164.064, "note_off_time": 164.637}, {"pitch": 79, "velocity": 40, "note_on_time": 164.736, "note_off_time": 165.29}, {"pitch": 72, "velocity": 38, "note_on_time": 165.353, "note_off_time": 165.963}, {"pitch": 76, "velocity": 44, "note_on_time": 166.015, "note_off_time": 166.616}, {"pitch": 72, "velocity": 47, "note_on_time": 166.657, "note_off_time": 167.213}, {"pitch": 74, "velocity": 60, "note_on_time": 167.248, "note_off_time": 167.734}, {"pitch": 72, "velocity": 44, "note_on_time": 167.863, "note_off_time": 168.381}, {"pitch": 76, "velocity": 47, "note_on_time": 168.42, "note_off_time": 169.15}, {"pitch": 72, "velocity": 51, "note_on_time": 169.187, "note_off_time": 169.823}, {"pitch": 77, "velocity": 61, "note_on_time": 169.835, "note_off_time": 170.32}, {"pitch": 72, "velocity": 51, "note_on_time": 170.383, "note_off_time": 170.948}, {"pitch": 77, "velocity": 60, "note_on_time": 170.953, "note_off_time": 171.371}, {"pitch": 79, "velocity": 55, "note_on_time": 172.808, "note_off_time": 173.261}, {"pitch": 77, "velocity": 38, "note_on_time": 173.354, "note_off_time": 173.922}, {"pitch": 79, "velocity": 57, "note_on_time": 173.93, "note_off_time": 174.591}, {"pitch": 77, "velocity": 66, "note_on_time": 174.556, "note_off_time": 175.008}, {"pitch": 76, "velocity": 44, "note_on_time": 175.193, "note_off_time": 175.705}, {"pitch": 74, "velocity": 59, "note_on_time": 175.789, "note_off_time": 176.382}, {"pitch": 72, "velocity": 64, "note_on_time": 176.367, "note_off_time": 177.086}, {"pitch": 72, "velocity": 50, "note_on_time": 177.613, "note_off_time": 178.201}, {"pitch": 74, "velocity": 53, "note_on_time": 178.194, "note_off_time": 178.65}, {"pitch": 76, "velocity": 52, "note_on_time": 178.746, "note_off_time": 179.286}, {"pitch": 74, "velocity": 58, "note_on_time": 179.296, "note_off_time": 179.821}, {"pitch": 72, "velocity": 52, "note_on_time": 179.867, "note_off_time": 180.315}, {"pitch": 77, "velocity": 46, "note_on_time": 180.389, "note_off_time": 180.897}, {"pitch": 76, "velocity": 48, "note_on_time": 180.922, "note_off_time": 181.51}, {"pitch": 77, "velocity": 54, "note_on_time": 182.054, "note_off_time": 182.599}, {"pitch": 76, "velocity": 60, "note_on_time": 182.592, "note_off_time": 183.097}, {"pitch": 77, "velocity": 55, "note_on_time": 183.094, "note_off_time": 183.602}, {"pitch": 76, "velocity": 65, "note_on_time": 183.639, "note_off_time": 184.167}, {"pitch": 74, "velocity": 42, "note_on_time": 184.21, "note_off_time": 184.787}, {"pitch": 79, "velocity": 44, "note_on_time": 184.785, "note_off_time": 185.269}, {"pitch": 77, "velocity": 53, "note_on_time": 185.289, "note_off_time": 185.959}, {"pitch": 76, "velocity": 51, "note_on_time": 186.32, "note_off_time": 186.824}, {"pitch": 74, "velocity": 52, "note_on_time": 186.848, "note_off_time": 187.333}, {"pitch": 76, "velocity": 49, "note_on_time": 187.364, "note_off_time": 187.953}, {"pitch": 74, "velocity": 41, "note_on_time": 187.987, "note_off_time": 188.497}, {"pitch": 77, "velocity": 51, "note_on_time": 188.544, "note_off_time": 189.059}, {"pitch": 72, "velocity": 36, "note_on_time": 189.115, "note_off_time": 189.695}, {"pitch": 74, "velocity": 54, "note_on_time": 189.74, "note_off_time": 190.371}, {"pitch": 77, "velocity": 40, "note_on_time": 190.946, "note_off_time": 191.328}, {"pitch": 76, "velocity": 42, "note_on_time": 191.485, "note_off_time": 191.936}, {"pitch": 74, "velocity": 51, "note_on_time": 191.968, "note_off_time": 192.537}, {"pitch": 72, "velocity": 61, "note_on_time": 192.543, "note_off_time": 193.184}, {"pitch": 72, "velocity": 47, "note_on_time": 193.473, "note_off_time": 193.995}, {"pitch": 74, "velocity": 52, "note_on_time": 194.031, "note_off_time": 194.624}]</notes><guidance name="Guidance Mode">None</guidance><error name="Error value">99</error></trial></trials></MIDI>