<MIDI midiNo="2024_03_04-16_44_57"><target_notes><notes name="Note List">[{"pitch": 60, "velocity": 40, "note_on_time": 0.009, "note_off_time": 1.016}, {"pitch": 64, "velocity": 40, "note_on_time": 0.01, "note_off_time": 1.017}, {"pitch": 67, "velocity": 40, "note_on_time": 0.01, "note_off_time": 1.018}, {"pitch": 48, "velocity": 40, "note_on_time": 0.01, "note_off_time": 1.018}, {"pitch": 52, "velocity": 40, "note_on_time": 1.018, "note_off_time": 2.032}, {"pitch": 55, "velocity": 40, "note_on_time": 1.018, "note_off_time": 2.032}, {"pitch": 76, "velocity": 40, "note_on_time": 2.032, "note_off_time": 3.045}, {"pitch": 48, "velocity": 40, "note_on_time": 2.032, "note_off_time": 3.046}, {"pitch": 52, "velocity": 40, "note_on_time": 3.046, "note_off_time": 4.061}, {"pitch": 55, "velocity": 40, "note_on_time": 3.046, "note_off_time": 4.061}, {"pitch": 48, "velocity": 40, "note_on_time": 4.061, "note_off_time": 5.069}, {"pitch": 52, "velocity": 40, "note_on_time": 5.069, "note_off_time": 6.081}, {"pitch": 55, "velocity": 40, "note_on_time": 5.069, "note_off_time": 6.081}, {"pitch": 48, "velocity": 40, "note_on_time": 6.081, "note_off_time": 7.097}, {"pitch": 52, "velocity": 40, "note_on_time": 7.097, "note_off_time": 8.106}, {"pitch": 55, "velocity": 40, "note_on_time": 7.097, "note_off_time": 8.106}, {"pitch": 60, "velocity": 40, "note_on_time": 8.105, "note_off_time": 9.117}, {"pitch": 64, "velocity": 40, "note_on_time": 8.106, "note_off_time": 9.118}, {"pitch": 67, "velocity": 40, "note_on_time": 8.106, "note_off_time": 9.119}, {"pitch": 48, "velocity": 40, "note_on_time": 8.106, "note_off_time": 9.119}, {"pitch": 52, "velocity": 40, "note_on_time": 9.119, "note_off_time": 10.129}, {"pitch": 55, "velocity": 40, "note_on_time": 9.119, "note_off_time": 10.129}, {"pitch": 77, "velocity": 40, "note_on_time": 10.129, "note_off_time": 11.143}, {"pitch": 48, "velocity": 40, "note_on_time": 10.129, "note_off_time": 11.143}, {"pitch": 52, "velocity": 40, "note_on_time": 11.144, "note_off_time": 12.146}, {"pitch": 55, "velocity": 40, "note_on_time": 11.144, "note_off_time": 12.146}, {"pitch": 48, "velocity": 40, "note_on_time": 12.146, "note_off_time": 13.159}, {"pitch": 52, "velocity": 40, "note_on_time": 13.159, "note_off_time": 14.174}, {"pitch": 55, "velocity": 40, "note_on_time": 13.159, "note_off_time": 14.174}, {"pitch": 48, "velocity": 40, "note_on_time": 14.174, "note_off_time": 15.177}, {"pitch": 52, "velocity": 40, "note_on_time": 15.177, "note_off_time": 16.18}, {"pitch": 55, "velocity": 40, "note_on_time": 15.177, "note_off_time": 16.18}, {"pitch": 60, "velocity": 40, "note_on_time": 16.178, "note_off_time": 17.193}, {"pitch": 64, "velocity": 40, "note_on_time": 16.179, "note_off_time": 17.194}, {"pitch": 67, "velocity": 40, "note_on_time": 16.179, "note_off_time": 17.195}, {"pitch": 48, "velocity": 40, "note_on_time": 16.18, "note_off_time": 17.195}, {"pitch": 52, "velocity": 40, "note_on_time": 17.195, "note_off_time": 18.198}, {"pitch": 55, "velocity": 40, "note_on_time": 17.195, "note_off_time": 18.198}, {"pitch": 72, "velocity": 40, "note_on_time": 18.197, "note_off_time": 19.214}, {"pitch": 48, "velocity": 40, "note_on_time": 18.198, "note_off_time": 19.214}, {"pitch": 52, "velocity": 40, "note_on_time": 19.214, "note_off_time": 20.221}, {"pitch": 55, "velocity": 40, "note_on_time": 19.214, "note_off_time": 20.221}, {"pitch": 48, "velocity": 40, "note_on_time": 20.221, "note_off_time": 21.224}, {"pitch": 52, "velocity": 40, "note_on_time": 21.224, "note_off_time": 22.228}, {"pitch": 55, "velocity": 40, "note_on_time": 21.224, "note_off_time": 22.228}, {"pitch": 48, "velocity": 40, "note_on_time": 22.228, "note_off_time": 23.237}, {"pitch": 52, "velocity": 40, "note_on_time": 23.237, "note_off_time": 24.254}, {"pitch": 55, "velocity": 40, "note_on_time": 23.237, "note_off_time": 24.254}, {"pitch": 60, "velocity": 40, "note_on_time": 24.253, "note_off_time": 25.269}, {"pitch": 64, "velocity": 40, "note_on_time": 24.254, "note_off_time": 25.269}, {"pitch": 67, "velocity": 40, "note_on_time": 24.254, "note_off_time": 25.27}, {"pitch": 48, "velocity": 40, "note_on_time": 24.254, "note_off_time": 25.27}, {"pitch": 52, "velocity": 40, "note_on_time": 25.27, "note_off_time": 26.272}, {"pitch": 55, "velocity": 40, "note_on_time": 25.27, "note_off_time": 26.273}, {"pitch": 79, "velocity": 40, "note_on_time": 26.272, "note_off_time": 27.274}, {"pitch": 48, "velocity": 40, "note_on_time": 26.273, "note_off_time": 27.274}, {"pitch": 52, "velocity": 40, "note_on_time": 27.274, "note_off_time": 28.289}, {"pitch": 55, "velocity": 40, "note_on_time": 27.274, "note_off_time": 28.289}, {"pitch": 48, "velocity": 40, "note_on_time": 28.289, "note_off_time": 29.293}, {"pitch": 52, "velocity": 40, "note_on_time": 29.293, "note_off_time": 30.294}, {"pitch": 55, "velocity": 40, "note_on_time": 29.293, "note_off_time": 30.294}, {"pitch": 48, "velocity": 40, "note_on_time": 30.294, "note_off_time": 31.3}, {"pitch": 52, "velocity": 40, "note_on_time": 31.3, "note_off_time": 32.317}, {"pitch": 55, "velocity": 40, "note_on_time": 31.3, "note_off_time": 32.317}, {"pitch": 60, "velocity": 40, "note_on_time": 32.315, "note_off_time": 33.328}, {"pitch": 64, "velocity": 40, "note_on_time": 32.316, "note_off_time": 33.33}, {"pitch": 67, "velocity": 40, "note_on_time": 32.316, "note_off_time": 33.33}, {"pitch": 48, "velocity": 40, "note_on_time": 32.317, "note_off_time": 33.33}, {"pitch": 52, "velocity": 40, "note_on_time": 33.33, "note_off_time": 34.342}, {"pitch": 55, "velocity": 40, "note_on_time": 33.33, "note_off_time": 34.342}, {"pitch": 77, "velocity": 40, "note_on_time": 34.342, "note_off_time": 35.357}, {"pitch": 48, "velocity": 40, "note_on_time": 34.342, "note_off_time": 35.357}, {"pitch": 52, "velocity": 40, "note_on_time": 35.357, "note_off_time": 36.365}, {"pitch": 55, "velocity": 40, "note_on_time": 35.357, "note_off_time": 36.365}, {"pitch": 48, "velocity": 40, "note_on_time": 36.365, "note_off_time": 37.389}, {"pitch": 52, "velocity": 40, "note_on_time": 37.39, "note_off_time": 38.394}, {"pitch": 55, "velocity": 40, "note_on_time": 37.391, "note_off_time": 38.394}, {"pitch": 48, "velocity": 40, "note_on_time": 38.394, "note_off_time": 39.399}, {"pitch": 52, "velocity": 40, "note_on_time": 39.399, "note_off_time": 40.411}, {"pitch": 55, "velocity": 40, "note_on_time": 39.399, "note_off_time": 40.411}, {"pitch": 60, "velocity": 40, "note_on_time": 40.411, "note_off_time": 41.426}, {"pitch": 64, "velocity": 40, "note_on_time": 40.411, "note_off_time": 41.427}, {"pitch": 67, "velocity": 40, "note_on_time": 40.411, "note_off_time": 41.428}, {"pitch": 72, "velocity": 40, "note_on_time": 42.431, "note_off_time": 43.436}, {"pitch": 60, "velocity": 40, "note_on_time": 48.447, "note_off_time": 49.449}, {"pitch": 64, "velocity": 40, "note_on_time": 48.447, "note_off_time": 49.45}, {"pitch": 67, "velocity": 40, "note_on_time": 48.448, "note_off_time": 49.451}, {"pitch": 74, "velocity": 40, "note_on_time": 50.465, "note_off_time": 51.479}, {"pitch": 60, "velocity": 40, "note_on_time": 56.489, "note_off_time": 57.498}, {"pitch": 64, "velocity": 40, "note_on_time": 56.49, "note_off_time": 57.499}, {"pitch": 67, "velocity": 40, "note_on_time": 56.49, "note_off_time": 57.499}, {"pitch": 76, "velocity": 40, "note_on_time": 58.511, "note_off_time": 59.528}, {"pitch": 60, "velocity": 40, "note_on_time": 64.529, "note_off_time": 65.542}, {"pitch": 64, "velocity": 40, "note_on_time": 64.53, "note_off_time": 65.543}, {"pitch": 67, "velocity": 40, "note_on_time": 64.53, "note_off_time": 65.543}, {"pitch": 79, "velocity": 40, "note_on_time": 66.546, "note_off_time": 67.559}, {"pitch": 60, "velocity": 40, "note_on_time": 72.567, "note_off_time": 73.584}, {"pitch": 64, "velocity": 40, "note_on_time": 72.568, "note_off_time": 73.585}, {"pitch": 67, "velocity": 40, "note_on_time": 72.569, "note_off_time": 73.586}, {"pitch": 74, "velocity": 40, "note_on_time": 74.596, "note_off_time": 75.609}, {"pitch": 60, "velocity": 40, "note_on_time": 80.619, "note_off_time": 81.626}, {"pitch": 64, "velocity": 40, "note_on_time": 80.62, "note_off_time": 81.627}, {"pitch": 67, "velocity": 40, "note_on_time": 80.62, "note_off_time": 81.628}, {"pitch": 76, "velocity": 40, "note_on_time": 82.634, "note_off_time": 83.647}, {"pitch": 60, "velocity": 40, "note_on_time": 88.657, "note_off_time": 89.663}, {"pitch": 64, "velocity": 40, "note_on_time": 88.658, "note_off_time": 89.664}, {"pitch": 67, "velocity": 40, "note_on_time": 88.659, "note_off_time": 89.664}, {"pitch": 74, "velocity": 40, "note_on_time": 90.679, "note_off_time": 91.682}, {"pitch": 60, "velocity": 40, "note_on_time": 96.697, "note_off_time": 97.714}, {"pitch": 64, "velocity": 40, "note_on_time": 96.698, "note_off_time": 97.715}, {"pitch": 67, "velocity": 40, "note_on_time": 96.698, "note_off_time": 97.716}, {"pitch": 76, "velocity": 40, "note_on_time": 98.731, "note_off_time": 99.742}, {"pitch": 60, "velocity": 40, "note_on_time": 104.746, "note_off_time": 105.751}, {"pitch": 64, "velocity": 40, "note_on_time": 104.747, "note_off_time": 105.752}, {"pitch": 67, "velocity": 40, "note_on_time": 104.747, "note_off_time": 105.753}, {"pitch": 77, "velocity": 40, "note_on_time": 106.757, "note_off_time": 107.759}, {"pitch": 60, "velocity": 40, "note_on_time": 112.773, "note_off_time": 113.781}, {"pitch": 64, "velocity": 40, "note_on_time": 112.774, "note_off_time": 113.782}, {"pitch": 67, "velocity": 40, "note_on_time": 112.774, "note_off_time": 113.782}, {"pitch": 79, "velocity": 40, "note_on_time": 114.791, "note_off_time": 115.793}, {"pitch": 60, "velocity": 40, "note_on_time": 120.806, "note_off_time": 121.824}, {"pitch": 64, "velocity": 40, "note_on_time": 120.807, "note_off_time": 121.824}, {"pitch": 67, "velocity": 40, "note_on_time": 120.808, "note_off_time": 121.825}, {"pitch": 72, "velocity": 40, "note_on_time": 122.829, "note_off_time": 123.839}, {"pitch": 60, "velocity": 40, "note_on_time": 128.85, "note_off_time": 129.863}, {"pitch": 64, "velocity": 40, "note_on_time": 128.851, "note_off_time": 129.864}, {"pitch": 67, "velocity": 40, "note_on_time": 128.851, "note_off_time": 129.865}, {"pitch": 74, "velocity": 40, "note_on_time": 130.88, "note_off_time": 131.885}, {"pitch": 60, "velocity": 40, "note_on_time": 136.892, "note_off_time": 137.907}, {"pitch": 64, "velocity": 40, "note_on_time": 136.893, "note_off_time": 137.908}, {"pitch": 67, "velocity": 40, "note_on_time": 136.893, "note_off_time": 137.908}, {"pitch": 79, "velocity": 40, "note_on_time": 138.924, "note_off_time": 139.925}, {"pitch": 60, "velocity": 40, "note_on_time": 144.936, "note_off_time": 145.951}, {"pitch": 64, "velocity": 40, "note_on_time": 144.936, "note_off_time": 145.951}, {"pitch": 67, "velocity": 40, "note_on_time": 144.937, "note_off_time": 145.952}, {"pitch": 77, "velocity": 40, "note_on_time": 146.962, "note_off_time": 147.972}, {"pitch": 60, "velocity": 40, "note_on_time": 152.982, "note_off_time": 153.986}, {"pitch": 64, "velocity": 40, "note_on_time": 152.983, "note_off_time": 153.986}, {"pitch": 67, "velocity": 40, "note_on_time": 152.984, "note_off_time": 153.987}, {"pitch": 72, "velocity": 40, "note_on_time": 155.003, "note_off_time": 156.019}, {"pitch": 60, "velocity": 40, "note_on_time": 161.021, "note_off_time": 162.025}, {"pitch": 64, "velocity": 40, "note_on_time": 161.022, "note_off_time": 162.026}, {"pitch": 67, "velocity": 40, "note_on_time": 161.022, "note_off_time": 162.027}, {"pitch": 76, "velocity": 40, "note_on_time": 163.039, "note_off_time": 164.044}]</notes><options name="Option List">((4, 4), [0.5, 0.25], 3, 8, &lt;NoteRangePerHand.TWO_NOTES: 3&gt;, &lt;NoteRangePerHand.ONE_NOTE: 2&gt;, False, True, True, 100)</options></target_notes><trials><trial trial_no="1" timestamp="2024_03_04-16_42_13"><notes name="Played Notes">[{"pitch": 76, "velocity": 46, "note_on_time": 4.694, "note_off_time": 7.44}, {"pitch": 77, "velocity": 51, "note_on_time": 12.057, "note_off_time": 13.976}, {"pitch": 72, "velocity": 60, "note_on_time": 19.319, "note_off_time": 20.874}, {"pitch": 79, "velocity": 49, "note_on_time": 27.438, "note_off_time": 29.174}, {"pitch": 77, "velocity": 9, "note_on_time": 35.661, "note_off_time": 36.785}, {"pitch": 77, "velocity": 66, "note_on_time": 36.972, "note_off_time": 37.713}, {"pitch": 72, "velocity": 65, "note_on_time": 43.739, "note_off_time": 45.461}, {"pitch": 74, "velocity": 79, "note_on_time": 52.589, "note_off_time": 54.173}, {"pitch": 76, "velocity": 56, "note_on_time": 59.607, "note_off_time": 61.697}, {"pitch": 77, "velocity": 73, "note_on_time": 67.849, "note_off_time": 68.622}, {"pitch": 79, "velocity": 71, "note_on_time": 68.815, "note_off_time": 70.139}, {"pitch": 74, "velocity": 71, "note_on_time": 76.296, "note_off_time": 77.734}, {"pitch": 77, "velocity": 57, "note_on_time": 85.513, "note_off_time": 86.101}, {"pitch": 76, "velocity": 60, "note_on_time": 86.999, "note_off_time": 88.865}, {"pitch": 74, "velocity": 64, "note_on_time": 92.045, "note_off_time": 93.431}, {"pitch": 76, "velocity": 62, "note_on_time": 99.72, "note_off_time": 100.116}, {"pitch": 76, "velocity": 67, "note_on_time": 100.487, "note_off_time": 102.364}, {"pitch": 77, "velocity": 65, "note_on_time": 108.495, "note_off_time": 110.127}, {"pitch": 79, "velocity": 61, "note_on_time": 115.678, "note_off_time": 115.994}, {"pitch": 79, "velocity": 74, "note_on_time": 116.29, "note_off_time": 117.759}, {"pitch": 72, "velocity": 63, "note_on_time": 123.869, "note_off_time": 124.894}, {"pitch": 74, "velocity": 65, "note_on_time": 131.841, "note_off_time": 132.166}, {"pitch": 74, "velocity": 67, "note_on_time": 132.361, "note_off_time": 133.922}, {"pitch": 77, "velocity": 72, "note_on_time": 139.944, "note_off_time": 140.344}, {"pitch": 79, "velocity": 67, "note_on_time": 140.513, "note_off_time": 141.826}, {"pitch": 77, "velocity": 47, "note_on_time": 148.561, "note_off_time": 150.446}, {"pitch": 72, "velocity": 62, "note_on_time": 156.051, "note_off_time": 157.09}]</notes><guidance name="Guidance Mode">None</guidance><error name="Error value">99</error></trial><trial trial_no="2" timestamp="2024_03_04-16_47_00"><notes name="Played Notes">[{"pitch": 77, "velocity": 62, "note_on_time": 5.486, "note_off_time": 6.412}, {"pitch": 72, "velocity": 38, "note_on_time": 4.894, "note_off_time": 6.503}, {"pitch": 77, "velocity": 46, "note_on_time": 7.316, "note_off_time": 7.879}, {"pitch": 72, "velocity": 51, "note_on_time": 6.693, "note_off_time": 8.44}, {"pitch": 79, "velocity": 35, "note_on_time": 10.327, "note_off_time": 11.203}, {"pitch": 72, "velocity": 34, "note_on_time": 9.76, "note_off_time": 11.379}, {"pitch": 79, "velocity": 51, "note_on_time": 12.208, "note_off_time": 13.99}, {"pitch": 72, "velocity": 40, "note_on_time": 11.606, "note_off_time": 14.24}, {"pitch": 76, "velocity": 30, "note_on_time": 14.708, "note_off_time": 15.247}, {"pitch": 74, "velocity": 52, "note_on_time": 15.243, "note_off_time": 16.122}, {"pitch": 74, "velocity": 44, "note_on_time": 16.45, "note_off_time": 17.752}, {"pitch": 76, "velocity": 38, "note_on_time": 17.026, "note_off_time": 17.928}, {"pitch": 77, "velocity": 46, "note_on_time": 19.492, "note_off_time": 19.77}, {"pitch": 76, "velocity": 59, "note_on_time": 19.769, "note_off_time": 20.216}, {"pitch": 76, "velocity": 55, "note_on_time": 20.385, "note_off_time": 20.733}, {"pitch": 77, "velocity": 70, "note_on_time": 20.68, "note_off_time": 21.299}, {"pitch": 76, "velocity": 69, "note_on_time": 21.292, "note_off_time": 22.02}, {"pitch": 74, "velocity": 75, "note_on_time": 21.942, "note_off_time": 23.877}, {"pitch": 76, "velocity": 53, "note_on_time": 24.44, "note_off_time": 24.698}, {"pitch": 77, "velocity": 63, "note_on_time": 24.691, "note_off_time": 25.011}, {"pitch": 77, "velocity": 61, "note_on_time": 25.289, "note_off_time": 25.566}, {"pitch": 76, "velocity": 63, "note_on_time": 25.558, "note_off_time": 25.862}, {"pitch": 76, "velocity": 55, "note_on_time": 26.16, "note_off_time": 27.022}, {"pitch": 79, "velocity": 60, "note_on_time": 26.769, "note_off_time": 28.115}, {"pitch": 76, "velocity": 36, "note_on_time": 29.586, "note_off_time": 29.923}, {"pitch": 72, "velocity": 47, "note_on_time": 29.273, "note_off_time": 30.283}, {"pitch": 76, "velocity": 56, "note_on_time": 30.19, "note_off_time": 31.083}, {"pitch": 74, "velocity": 62, "note_on_time": 30.477, "note_off_time": 31.137}, {"pitch": 72, "velocity": 51, "note_on_time": 31.052, "note_off_time": 31.903}, {"pitch": 76, "velocity": 78, "note_on_time": 31.634, "note_off_time": 33.614}, {"pitch": 76, "velocity": 52, "note_on_time": 34.163, "note_off_time": 34.547}, {"pitch": 74, "velocity": 61, "note_on_time": 34.475, "note_off_time": 35.183}, {"pitch": 72, "velocity": 60, "note_on_time": 35.082, "note_off_time": 35.243}, {"pitch": 72, "velocity": 68, "note_on_time": 35.356, "note_off_time": 35.83}, {"pitch": 72, "velocity": 65, "note_on_time": 35.965, "note_off_time": 36.736}, {"pitch": 76, "velocity": 57, "note_on_time": 36.601, "note_off_time": 38.503}, {"pitch": 76, "velocity": 44, "note_on_time": 39.071, "note_off_time": 39.558}, {"pitch": 74, "velocity": 60, "note_on_time": 39.387, "note_off_time": 40.005}, {"pitch": 72, "velocity": 67, "note_on_time": 39.961, "note_off_time": 40.227}, {"pitch": 74, "velocity": 86, "note_on_time": 40.274, "note_off_time": 40.67}, {"pitch": 74, "velocity": 58, "note_on_time": 40.835, "note_off_time": 41.416}, {"pitch": 77, "velocity": 65, "note_on_time": 41.468, "note_off_time": 43.394}, {"pitch": 72, "velocity": 65, "note_on_time": 44.885, "note_off_time": 45.024}, {"pitch": 76, "velocity": 79, "note_on_time": 44.246, "note_off_time": 45.035}, {"pitch": 72, "velocity": 72, "note_on_time": 45.161, "note_off_time": 45.606}, {"pitch": 79, "velocity": 65, "note_on_time": 43.983, "note_off_time": 45.94}, {"pitch": 72, "velocity": 73, "note_on_time": 45.762, "note_off_time": 46.428}, {"pitch": 77, "velocity": 59, "note_on_time": 46.372, "note_off_time": 48.177}, {"pitch": 74, "velocity": 67, "note_on_time": 49.176, "note_off_time": 49.668}, {"pitch": 72, "velocity": 61, "note_on_time": 48.859, "note_off_time": 49.699}, {"pitch": 76, "velocity": 63, "note_on_time": 50.644, "note_off_time": 53.006}, {"pitch": 74, "velocity": 76, "note_on_time": 50.099, "note_off_time": 53.041}, {"pitch": 72, "velocity": 74, "note_on_time": 49.792, "note_off_time": 53.052}, {"pitch": 77, "velocity": 67, "note_on_time": 51.239, "note_off_time": 53.117}, {"pitch": 74, "velocity": 62, "note_on_time": 54.613, "note_off_time": 54.726}, {"pitch": 77, "velocity": 79, "note_on_time": 53.694, "note_off_time": 55.111}, {"pitch": 76, "velocity": 38, "note_on_time": 53.96, "note_off_time": 55.173}, {"pitch": 74, "velocity": 59, "note_on_time": 54.882, "note_off_time": 55.291}, {"pitch": 79, "velocity": 62, "note_on_time": 56.038, "note_off_time": 57.833}, {"pitch": 74, "velocity": 70, "note_on_time": 55.454, "note_off_time": 57.884}, {"pitch": 76, "velocity": 18, "note_on_time": 58.927, "note_off_time": 59.055}, {"pitch": 77, "velocity": 21, "note_on_time": 58.908, "note_off_time": 59.146}, {"pitch": 79, "velocity": 53, "note_on_time": 58.498, "note_off_time": 59.559}, {"pitch": 77, "velocity": 62, "note_on_time": 61.252, "note_off_time": 61.96}, {"pitch": 76, "velocity": 69, "note_on_time": 61.867, "note_off_time": 62.689}, {"pitch": 79, "velocity": 37, "note_on_time": 60.918, "note_off_time": 62.941}, {"pitch": 77, "velocity": 23, "note_on_time": 63.752, "note_off_time": 65.34}, {"pitch": 76, "velocity": 62, "note_on_time": 64.421, "note_off_time": 65.347}, {"pitch": 79, "velocity": 55, "note_on_time": 63.407, "note_off_time": 65.411}, {"pitch": 77, "velocity": 54, "note_on_time": 66.141, "note_off_time": 66.942}, {"pitch": 76, "velocity": 73, "note_on_time": 66.767, "note_off_time": 66.946}, {"pitch": 79, "velocity": 70, "note_on_time": 65.801, "note_off_time": 66.959}, {"pitch": 77, "velocity": 66, "note_on_time": 67.037, "note_off_time": 67.417}, {"pitch": 77, "velocity": 64, "note_on_time": 67.617, "note_off_time": 68.179}, {"pitch": 76, "velocity": 50, "note_on_time": 68.243, "note_off_time": 70.113}, {"pitch": 79, "velocity": 61, "note_on_time": 70.7, "note_off_time": 70.95}, {"pitch": 77, "velocity": 61, "note_on_time": 71.012, "note_off_time": 71.59}, {"pitch": 76, "velocity": 52, "note_on_time": 71.613, "note_off_time": 71.832}, {"pitch": 77, "velocity": 70, "note_on_time": 71.941, "note_off_time": 72.325}, {"pitch": 77, "velocity": 82, "note_on_time": 72.538, "note_off_time": 73.138}, {"pitch": 76, "velocity": 83, "note_on_time": 73.146, "note_off_time": 75.212}, {"pitch": 72, "velocity": 65, "note_on_time": 75.6, "note_off_time": 75.996}, {"pitch": 76, "velocity": 71, "note_on_time": 75.899, "note_off_time": 76.593}, {"pitch": 72, "velocity": 69, "note_on_time": 76.505, "note_off_time": 76.809}, {"pitch": 76, "velocity": 94, "note_on_time": 76.785, "note_off_time": 77.679}, {"pitch": 74, "velocity": 75, "note_on_time": 77.396, "note_off_time": 77.994}, {"pitch": 76, "velocity": 81, "note_on_time": 78.015, "note_off_time": 80.241}, {"pitch": 72, "velocity": 69, "note_on_time": 80.526, "note_off_time": 80.863}, {"pitch": 76, "velocity": 75, "note_on_time": 80.814, "note_off_time": 81.584}, {"pitch": 74, "velocity": 71, "note_on_time": 81.434, "note_off_time": 81.719}, {"pitch": 72, "velocity": 57, "note_on_time": 81.704, "note_off_time": 82.371}, {"pitch": 76, "velocity": 60, "note_on_time": 82.249, "note_off_time": 82.821}, {"pitch": 77, "velocity": 63, "note_on_time": 82.881, "note_off_time": 85.346}, {"pitch": 72, "velocity": 59, "note_on_time": 85.371, "note_off_time": 85.706}, {"pitch": 76, "velocity": 62, "note_on_time": 85.672, "note_off_time": 86.381}, {"pitch": 74, "velocity": 67, "note_on_time": 86.326, "note_off_time": 86.558}, {"pitch": 77, "velocity": 43, "note_on_time": 86.622, "note_off_time": 87.04}, {"pitch": 74, "velocity": 67, "note_on_time": 87.755, "note_off_time": 89.668}, {"pitch": 77, "velocity": 46, "note_on_time": 87.186, "note_off_time": 89.711}, {"pitch": 72, "velocity": 63, "note_on_time": 90.207, "note_off_time": 90.572}, {"pitch": 76, "velocity": 77, "note_on_time": 90.489, "note_off_time": 90.925}, {"pitch": 77, "velocity": 74, "note_on_time": 91.095, "note_off_time": 91.545}, {"pitch": 76, "velocity": 73, "note_on_time": 91.39, "note_off_time": 92.31}, {"pitch": 74, "velocity": 77, "note_on_time": 91.991, "note_off_time": 92.68}, {"pitch": 72, "velocity": 68, "note_on_time": 92.593, "note_off_time": 94.641}, {"pitch": 77, "velocity": 41, "note_on_time": 95.451, "note_off_time": 95.845}, {"pitch": 72, "velocity": 59, "note_on_time": 95.127, "note_off_time": 95.974}, {"pitch": 72, "velocity": 15, "note_on_time": 96.072, "note_off_time": 96.2}, {"pitch": 77, "velocity": 70, "note_on_time": 96.106, "note_off_time": 97.123}, {"pitch": 72, "velocity": 86, "note_on_time": 96.431, "note_off_time": 97.343}, {"pitch": 72, "velocity": 57, "note_on_time": 97.584, "note_off_time": 97.864}, {"pitch": 77, "velocity": 72, "note_on_time": 97.873, "note_off_time": 98.137}, {"pitch": 77, "velocity": 66, "note_on_time": 98.426, "note_off_time": 99.474}, {"pitch": 72, "velocity": 74, "note_on_time": 98.762, "note_off_time": 99.55}, {"pitch": 72, "velocity": 70, "note_on_time": 100.031, "note_off_time": 101.669}, {"pitch": 76, "velocity": 56, "note_on_time": 100.897, "note_off_time": 101.68}, {"pitch": 77, "velocity": 72, "note_on_time": 101.192, "note_off_time": 101.686}, {"pitch": 74, "velocity": 78, "note_on_time": 100.342, "note_off_time": 101.693}, {"pitch": 79, "velocity": 79, "note_on_time": 101.808, "note_off_time": 102.834}, {"pitch": 76, "velocity": 46, "note_on_time": 102.413, "note_off_time": 104.232}, {"pitch": 72, "velocity": 54, "note_on_time": 104.895, "note_off_time": 105.238}, {"pitch": 77, "velocity": 78, "note_on_time": 105.21, "note_off_time": 105.594}, {"pitch": 77, "velocity": 68, "note_on_time": 105.844, "note_off_time": 106.291}, {"pitch": 72, "velocity": 78, "note_on_time": 106.146, "note_off_time": 107.054}, {"pitch": 72, "velocity": 58, "note_on_time": 107.351, "note_off_time": 107.686}, {"pitch": 77, "velocity": 74, "note_on_time": 107.646, "note_off_time": 107.94}, {"pitch": 77, "velocity": 72, "note_on_time": 108.218, "note_off_time": 109.158}, {"pitch": 72, "velocity": 68, "note_on_time": 108.535, "note_off_time": 109.337}, {"pitch": 72, "velocity": 62, "note_on_time": 109.758, "note_off_time": 110.1}, {"pitch": 77, "velocity": 76, "note_on_time": 110.039, "note_off_time": 110.393}, {"pitch": 77, "velocity": 60, "note_on_time": 110.693, "note_off_time": 110.879}, {"pitch": 79, "velocity": 62, "note_on_time": 110.997, "note_off_time": 111.323}, {"pitch": 79, "velocity": 56, "note_on_time": 111.559, "note_off_time": 112.104}, {"pitch": 72, "velocity": 72, "note_on_time": 112.158, "note_off_time": 114.016}, {"pitch": 72, "velocity": 45, "note_on_time": 114.641, "note_off_time": 114.975}, {"pitch": 76, "velocity": 82, "note_on_time": 114.926, "note_off_time": 115.358}, {"pitch": 76, "velocity": 72, "note_on_time": 115.497, "note_off_time": 115.669}, {"pitch": 77, "velocity": 42, "note_on_time": 115.839, "note_off_time": 116.173}, {"pitch": 77, "velocity": 71, "note_on_time": 116.387, "note_off_time": 116.98}, {"pitch": 72, "velocity": 75, "note_on_time": 117.001, "note_off_time": 118.901}, {"pitch": 76, "velocity": 79, "note_on_time": 119.731, "note_off_time": 120.035}, {"pitch": 72, "velocity": 64, "note_on_time": 119.429, "note_off_time": 120.322}, {"pitch": 76, "velocity": 66, "note_on_time": 120.324, "note_off_time": 120.484}, {"pitch": 79, "velocity": 62, "note_on_time": 120.661, "note_off_time": 121.012}, {"pitch": 79, "velocity": 68, "note_on_time": 121.24, "note_off_time": 121.606}, {"pitch": 72, "velocity": 64, "note_on_time": 121.853, "note_off_time": 123.8}, {"pitch": 72, "velocity": 60, "note_on_time": 124.35, "note_off_time": 124.714}, {"pitch": 74, "velocity": 78, "note_on_time": 124.665, "note_off_time": 125.279}, {"pitch": 76, "velocity": 65, "note_on_time": 125.202, "note_off_time": 125.492}, {"pitch": 77, "velocity": 76, "note_on_time": 125.505, "note_off_time": 126.826}, {"pitch": 72, "velocity": 58, "note_on_time": 126.806, "note_off_time": 127.715}, {"pitch": 74, "velocity": 76, "note_on_time": 127.117, "note_off_time": 127.79}, {"pitch": 76, "velocity": 70, "note_on_time": 127.684, "note_off_time": 127.986}, {"pitch": 77, "velocity": 71, "note_on_time": 127.969, "note_off_time": 129.259}, {"pitch": 72, "velocity": 62, "note_on_time": 129.225, "note_off_time": 129.636}, {"pitch": 76, "velocity": 72, "note_on_time": 129.521, "note_off_time": 129.913}, {"pitch": 76, "velocity": 71, "note_on_time": 130.104, "note_off_time": 130.284}, {"pitch": 79, "velocity": 79, "note_on_time": 130.405, "note_off_time": 130.84}, {"pitch": 79, "velocity": 61, "note_on_time": 130.973, "note_off_time": 131.608}, {"pitch": 72, "velocity": 74, "note_on_time": 131.607, "note_off_time": 133.576}, {"pitch": 72, "velocity": 72, "note_on_time": 134.078, "note_off_time": 134.281}, {"pitch": 74, "velocity": 75, "note_on_time": 135.944, "note_off_time": 136.59}, {"pitch": 76, "velocity": 71, "note_on_time": 136.537, "note_off_time": 137.927}, {"pitch": 76, "velocity": 80, "note_on_time": 138.257, "note_off_time": 139.049}, {"pitch": 77, "velocity": 72, "note_on_time": 138.878, "note_off_time": 139.861}, {"pitch": 77, "velocity": 69, "note_on_time": 140.166, "note_off_time": 141.481}, {"pitch": 79, "velocity": 67, "note_on_time": 141.409, "note_off_time": 142.604}, {"pitch": 79, "velocity": 62, "note_on_time": 143.827, "note_off_time": 144.182}, {"pitch": 77, "velocity": 73, "note_on_time": 144.092, "note_off_time": 144.503}, {"pitch": 77, "velocity": 65, "note_on_time": 144.707, "note_off_time": 145.744}, {"pitch": 77, "velocity": 72, "note_on_time": 146.258, "note_off_time": 146.593}, {"pitch": 76, "velocity": 74, "note_on_time": 146.532, "note_off_time": 146.941}, {"pitch": 76, "velocity": 76, "note_on_time": 147.203, "note_off_time": 148.18}, {"pitch": 76, "velocity": 65, "note_on_time": 148.631, "note_off_time": 149.038}, {"pitch": 74, "velocity": 80, "note_on_time": 148.959, "note_off_time": 149.375}, {"pitch": 74, "velocity": 77, "note_on_time": 149.598, "note_off_time": 149.744}, {"pitch": 72, "velocity": 79, "note_on_time": 149.894, "note_off_time": 150.216}, {"pitch": 72, "velocity": 72, "note_on_time": 150.485, "note_off_time": 151.01}, {"pitch": 79, "velocity": 58, "note_on_time": 151.106, "note_off_time": 153.089}, {"pitch": 79, "velocity": 67, "note_on_time": 153.59, "note_off_time": 153.906}, {"pitch": 77, "velocity": 78, "note_on_time": 153.858, "note_off_time": 154.259}, {"pitch": 77, "velocity": 69, "note_on_time": 154.485, "note_off_time": 155.518}, {"pitch": 77, "velocity": 59, "note_on_time": 156.016, "note_off_time": 156.28}, {"pitch": 76, "velocity": 79, "note_on_time": 156.327, "note_off_time": 156.768}, {"pitch": 76, "velocity": 66, "note_on_time": 156.956, "note_off_time": 157.965}, {"pitch": 76, "velocity": 70, "note_on_time": 158.495, "note_off_time": 158.837}, {"pitch": 74, "velocity": 83, "note_on_time": 158.786, "note_off_time": 159.204}, {"pitch": 74, "velocity": 69, "note_on_time": 159.397, "note_off_time": 159.542}, {"pitch": 72, "velocity": 80, "note_on_time": 159.698, "note_off_time": 160.049}, {"pitch": 72, "velocity": 79, "note_on_time": 160.289, "note_off_time": 161.036}, {"pitch": 76, "velocity": 79, "note_on_time": 160.861, "note_off_time": 162.749}, {"pitch": 79, "velocity": 70, "note_on_time": 163.365, "note_off_time": 163.768}, {"pitch": 77, "velocity": 81, "note_on_time": 163.65, "note_off_time": 164.08}, {"pitch": 77, "velocity": 68, "note_on_time": 164.249, "note_off_time": 165.32}, {"pitch": 76, "velocity": 64, "note_on_time": 165.818, "note_off_time": 166.001}, {"pitch": 74, "velocity": 81, "note_on_time": 166.133, "note_off_time": 166.545}, {"pitch": 74, "velocity": 77, "note_on_time": 166.799, "note_off_time": 168.185}, {"pitch": 79, "velocity": 51, "note_on_time": 168.536, "note_off_time": 168.887}, {"pitch": 72, "velocity": 65, "note_on_time": 168.231, "note_off_time": 168.957}, {"pitch": 79, "velocity": 65, "note_on_time": 169.113, "note_off_time": 169.504}, {"pitch": 72, "velocity": 73, "note_on_time": 169.411, "note_off_time": 169.825}, {"pitch": 72, "velocity": 69, "note_on_time": 169.977, "note_off_time": 170.699}, {"pitch": 77, "velocity": 84, "note_on_time": 170.612, "note_off_time": 172.315}, {"pitch": 74, "velocity": 82, "note_on_time": 171.969, "note_off_time": 173.142}, {"pitch": 72, "velocity": 76, "note_on_time": 173.057, "note_off_time": 175.572}, {"pitch": 72, "velocity": 73, "note_on_time": 177.411, "note_off_time": 178.905}, {"pitch": 74, "velocity": 54, "note_on_time": 178.028, "note_off_time": 179.192}, {"pitch": 74, "velocity": 74, "note_on_time": 179.872, "note_off_time": 180.537}, {"pitch": 76, "velocity": 78, "note_on_time": 180.464, "note_off_time": 181.876}, {"pitch": 76, "velocity": 73, "note_on_time": 182.294, "note_off_time": 183.038}, {"pitch": 77, "velocity": 74, "note_on_time": 182.876, "note_off_time": 183.581}, {"pitch": 77, "velocity": 82, "note_on_time": 183.879, "note_off_time": 184.017}, {"pitch": 77, "velocity": 75, "note_on_time": 184.149, "note_off_time": 184.609}, {"pitch": 77, "velocity": 68, "note_on_time": 184.703, "note_off_time": 186.196}, {"pitch": 74, "velocity": 78, "note_on_time": 185.324, "note_off_time": 187.622}, {"pitch": 72, "velocity": 59, "note_on_time": 187.766, "note_off_time": 188.948}, {"pitch": 76, "velocity": 60, "note_on_time": 188.56, "note_off_time": 189.016}, {"pitch": 74, "velocity": 74, "note_on_time": 188.052, "note_off_time": 189.158}, {"pitch": 77, "velocity": 78, "note_on_time": 188.884, "note_off_time": 189.552}, {"pitch": 74, "velocity": 67, "note_on_time": 190.483, "note_off_time": 191.352}, {"pitch": 76, "velocity": 62, "note_on_time": 191.039, "note_off_time": 191.37}, {"pitch": 72, "velocity": 66, "note_on_time": 190.178, "note_off_time": 191.969}, {"pitch": 77, "velocity": 76, "note_on_time": 191.319, "note_off_time": 192.005}, {"pitch": 72, "velocity": 64, "note_on_time": 192.674, "note_off_time": 193.015}, {"pitch": 74, "velocity": 82, "note_on_time": 192.981, "note_off_time": 193.664}, {"pitch": 76, "velocity": 64, "note_on_time": 193.546, "note_off_time": 193.745}, {"pitch": 77, "velocity": 68, "note_on_time": 193.812, "note_off_time": 194.121}, {"pitch": 77, "velocity": 77, "note_on_time": 194.398, "note_off_time": 195.007}]</notes><guidance name="Guidance Mode">None</guidance><error name="Error value">99</error></trial><trial trial_no="3" timestamp="2024_03_04-16_54_18"><notes name="Played Notes">[{"pitch": 77, "velocity": 56, "note_on_time": 4.906, "note_off_time": 6.511}, {"pitch": 77, "velocity": 54, "note_on_time": 6.764, "note_off_time": 9.017}, {"pitch": 74, "velocity": 69, "note_on_time": 7.363, "note_off_time": 9.077}, {"pitch": 72, "velocity": 60, "note_on_time": 9.138, "note_off_time": 10.749}, {"pitch": 74, "velocity": 60, "note_on_time": 9.759, "note_off_time": 11.264}, {"pitch": 74, "velocity": 42, "note_on_time": 11.543, "note_off_time": 12.248}, {"pitch": 76, "velocity": 48, "note_on_time": 12.124, "note_off_time": 14.047}, {"pitch": 72, "velocity": 51, "note_on_time": 14.687, "note_off_time": 14.962}, {"pitch": 74, "velocity": 61, "note_on_time": 14.976, "note_off_time": 15.316}, {"pitch": 74, "velocity": 51, "note_on_time": 15.559, "note_off_time": 15.854}, {"pitch": 72, "velocity": 47, "note_on_time": 15.869, "note_off_time": 16.556}, {"pitch": 72, "velocity": 38, "note_on_time": 17.066, "note_off_time": 17.333}, {"pitch": 74, "velocity": 44, "note_on_time": 17.372, "note_off_time": 17.597}, {"pitch": 74, "velocity": 55, "note_on_time": 17.932, "note_off_time": 18.293}, {"pitch": 72, "velocity": 42, "note_on_time": 18.228, "note_off_time": 18.895}, {"pitch": 72, "velocity": 28, "note_on_time": 19.472, "note_off_time": 19.76}, {"pitch": 74, "velocity": 55, "note_on_time": 19.816, "note_off_time": 20.88}, {"pitch": 76, "velocity": 48, "note_on_time": 20.451, "note_off_time": 20.905}, {"pitch": 77, "velocity": 44, "note_on_time": 20.781, "note_off_time": 21.512}, {"pitch": 74, "velocity": 49, "note_on_time": 21.999, "note_off_time": 23.246}, {"pitch": 72, "velocity": 49, "note_on_time": 23.183, "note_off_time": 23.795}, {"pitch": 72, "velocity": 43, "note_on_time": 24.438, "note_off_time": 24.702}, {"pitch": 74, "velocity": 58, "note_on_time": 24.721, "note_off_time": 24.984}, {"pitch": 74, "velocity": 60, "note_on_time": 25.32, "note_off_time": 25.57}, {"pitch": 72, "velocity": 50, "note_on_time": 25.615, "note_off_time": 26.301}, {"pitch": 72, "velocity": 42, "note_on_time": 26.837, "note_off_time": 27.111}, {"pitch": 74, "velocity": 67, "note_on_time": 27.129, "note_off_time": 27.367}, {"pitch": 74, "velocity": 65, "note_on_time": 27.731, "note_off_time": 28.105}, {"pitch": 72, "velocity": 62, "note_on_time": 28.027, "note_off_time": 28.636}, {"pitch": 72, "velocity": 49, "note_on_time": 29.228, "note_off_time": 29.529}, {"pitch": 76, "velocity": 57, "note_on_time": 30.189, "note_off_time": 31.021}, {"pitch": 77, "velocity": 60, "note_on_time": 30.487, "note_off_time": 31.17}, {"pitch": 74, "velocity": 60, "note_on_time": 29.547, "note_off_time": 31.197}, {"pitch": 79, "velocity": 62, "note_on_time": 31.065, "note_off_time": 31.862}, {"pitch": 72, "velocity": 53, "note_on_time": 31.671, "note_off_time": 33.178}, {"pitch": 79, "velocity": 24, "note_on_time": 34.125, "note_off_time": 34.48}, {"pitch": 77, "velocity": 49, "note_on_time": 34.421, "note_off_time": 34.587}, {"pitch": 77, "velocity": 49, "note_on_time": 34.688, "note_off_time": 35.047}, {"pitch": 77, "velocity": 36, "note_on_time": 35.307, "note_off_time": 35.577}, {"pitch": 76, "velocity": 45, "note_on_time": 35.631, "note_off_time": 35.841}, {"pitch": 76, "velocity": 30, "note_on_time": 35.908, "note_off_time": 36.304}, {"pitch": 76, "velocity": 62, "note_on_time": 36.561, "note_off_time": 36.823}, {"pitch": 74, "velocity": 62, "note_on_time": 36.878, "note_off_time": 37.035}, {"pitch": 74, "velocity": 71, "note_on_time": 37.175, "note_off_time": 37.492}, {"pitch": 74, "velocity": 81, "note_on_time": 37.832, "note_off_time": 38.201}, {"pitch": 72, "velocity": 58, "note_on_time": 38.477, "note_off_time": 38.836}, {"pitch": 79, "velocity": 70, "note_on_time": 41.479, "note_off_time": 41.69}, {"pitch": 77, "velocity": 54, "note_on_time": 41.767, "note_off_time": 41.948}, {"pitch": 77, "velocity": 72, "note_on_time": 42.068, "note_off_time": 42.468}, {"pitch": 77, "velocity": 78, "note_on_time": 42.699, "note_off_time": 42.868}, {"pitch": 76, "velocity": 62, "note_on_time": 42.976, "note_off_time": 43.172}, {"pitch": 76, "velocity": 67, "note_on_time": 43.281, "note_off_time": 43.612}, {"pitch": 76, "velocity": 65, "note_on_time": 43.884, "note_off_time": 44.055}, {"pitch": 74, "velocity": 74, "note_on_time": 44.189, "note_off_time": 44.331}, {"pitch": 74, "velocity": 66, "note_on_time": 44.479, "note_off_time": 44.774}, {"pitch": 74, "velocity": 75, "note_on_time": 45.091, "note_off_time": 45.681}, {"pitch": 72, "velocity": 69, "note_on_time": 45.709, "note_off_time": 46.319}, {"pitch": 79, "velocity": 61, "note_on_time": 46.301, "note_off_time": 46.465}, {"pitch": 79, "velocity": 52, "note_on_time": 46.605, "note_off_time": 46.819}, {"pitch": 79, "velocity": 73, "note_on_time": 46.922, "note_off_time": 47.277}, {"pitch": 77, "velocity": 61, "note_on_time": 48.725, "note_off_time": 48.891}, {"pitch": 77, "velocity": 57, "note_on_time": 49.051, "note_off_time": 49.269}, {"pitch": 79, "velocity": 59, "note_on_time": 51.119, "note_off_time": 51.331}, {"pitch": 77, "velocity": 27, "note_on_time": 51.478, "note_off_time": 51.59}, {"pitch": 77, "velocity": 54, "note_on_time": 51.747, "note_off_time": 52.102}, {"pitch": 77, "velocity": 53, "note_on_time": 52.35, "note_off_time": 52.547}, {"pitch": 76, "velocity": 52, "note_on_time": 52.655, "note_off_time": 52.818}, {"pitch": 76, "velocity": 61, "note_on_time": 52.951, "note_off_time": 53.338}, {"pitch": 76, "velocity": 67, "note_on_time": 53.545, "note_off_time": 53.751}, {"pitch": 74, "velocity": 68, "note_on_time": 53.848, "note_off_time": 53.99}, {"pitch": 74, "velocity": 62, "note_on_time": 54.145, "note_off_time": 54.512}, {"pitch": 72, "velocity": 60, "note_on_time": 54.82, "note_off_time": 55.559}, {"pitch": 72, "velocity": 61, "note_on_time": 56.015, "note_off_time": 56.213}, {"pitch": 76, "velocity": 46, "note_on_time": 56.331, "note_off_time": 56.656}, {"pitch": 76, "velocity": 66, "note_on_time": 56.864, "note_off_time": 56.99}, {"pitch": 77, "velocity": 57, "note_on_time": 57.146, "note_off_time": 57.569}, {"pitch": 77, "velocity": 62, "note_on_time": 57.722, "note_off_time": 58.266}, {"pitch": 72, "velocity": 54, "note_on_time": 60.814, "note_off_time": 61.102}, {"pitch": 76, "velocity": 72, "note_on_time": 61.149, "note_off_time": 61.497}, {"pitch": 76, "velocity": 55, "note_on_time": 61.747, "note_off_time": 61.93}, {"pitch": 77, "velocity": 64, "note_on_time": 62.101, "note_off_time": 62.484}, {"pitch": 77, "velocity": 70, "note_on_time": 62.69, "note_off_time": 63.315}, {"pitch": 72, "velocity": 67, "note_on_time": 63.296, "note_off_time": 65.126}, {"pitch": 72, "velocity": 56, "note_on_time": 65.733, "note_off_time": 65.978}, {"pitch": 76, "velocity": 67, "note_on_time": 66.065, "note_off_time": 66.347}, {"pitch": 76, "velocity": 64, "note_on_time": 66.632, "note_off_time": 66.818}, {"pitch": 77, "velocity": 73, "note_on_time": 66.943, "note_off_time": 67.31}, {"pitch": 77, "velocity": 55, "note_on_time": 67.502, "note_off_time": 68.038}, {"pitch": 79, "velocity": 57, "note_on_time": 68.142, "note_off_time": 70.216}, {"pitch": 72, "velocity": 61, "note_on_time": 70.659, "note_off_time": 70.89}, {"pitch": 76, "velocity": 78, "note_on_time": 71.064, "note_off_time": 71.271}, {"pitch": 76, "velocity": 62, "note_on_time": 71.567, "note_off_time": 71.727}, {"pitch": 77, "velocity": 55, "note_on_time": 71.828, "note_off_time": 72.586}, {"pitch": 72, "velocity": 54, "note_on_time": 73.035, "note_off_time": 73.273}, {"pitch": 76, "velocity": 60, "note_on_time": 73.346, "note_off_time": 73.596}, {"pitch": 77, "velocity": 54, "note_on_time": 73.98, "note_off_time": 74.13}, {"pitch": 79, "velocity": 42, "note_on_time": 74.373, "note_off_time": 74.942}, {"pitch": 72, "velocity": 52, "note_on_time": 75.466, "note_off_time": 75.675}, {"pitch": 76, "velocity": 57, "note_on_time": 75.796, "note_off_time": 76.074}, {"pitch": 77, "velocity": 56, "note_on_time": 76.44, "note_off_time": 76.668}, {"pitch": 76, "velocity": 63, "note_on_time": 76.779, "note_off_time": 77.203}, {"pitch": 76, "velocity": 42, "note_on_time": 77.366, "note_off_time": 77.9}, {"pitch": 72, "velocity": 48, "note_on_time": 77.977, "note_off_time": 78.995}, {"pitch": 72, "velocity": 45, "note_on_time": 79.223, "note_off_time": 80.057}, {"pitch": 72, "velocity": 42, "note_on_time": 80.374, "note_off_time": 80.725}, {"pitch": 74, "velocity": 67, "note_on_time": 80.702, "note_off_time": 80.979}, {"pitch": 74, "velocity": 57, "note_on_time": 81.278, "note_off_time": 81.515}, {"pitch": 76, "velocity": 53, "note_on_time": 81.594, "note_off_time": 82.751}, {"pitch": 77, "velocity": 49, "note_on_time": 82.779, "note_off_time": 83.54}, {"pitch": 72, "velocity": 60, "note_on_time": 85.229, "note_off_time": 85.521}, {"pitch": 76, "velocity": 70, "note_on_time": 85.53, "note_off_time": 85.926}, {"pitch": 76, "velocity": 57, "note_on_time": 86.122, "note_off_time": 86.337}, {"pitch": 77, "velocity": 70, "note_on_time": 86.447, "note_off_time": 86.751}, {"pitch": 77, "velocity": 68, "note_on_time": 87.03, "note_off_time": 87.951}, {"pitch": 72, "velocity": 60, "note_on_time": 87.627, "note_off_time": 89.573}, {"pitch": 72, "velocity": 53, "note_on_time": 90.158, "note_off_time": 90.423}, {"pitch": 76, "velocity": 68, "note_on_time": 90.451, "note_off_time": 90.743}, {"pitch": 76, "velocity": 58, "note_on_time": 91.019, "note_off_time": 91.237}, {"pitch": 77, "velocity": 61, "note_on_time": 91.375, "note_off_time": 91.695}, {"pitch": 77, "velocity": 70, "note_on_time": 91.943, "note_off_time": 92.377}, {"pitch": 76, "velocity": 66, "note_on_time": 92.517, "note_off_time": 93.772}, {"pitch": 77, "velocity": 60, "note_on_time": 93.744, "note_off_time": 94.692}, {"pitch": 72, "velocity": 63, "note_on_time": 95.062, "note_off_time": 95.292}, {"pitch": 76, "velocity": 52, "note_on_time": 95.338, "note_off_time": 95.627}, {"pitch": 76, "velocity": 61, "note_on_time": 95.927, "note_off_time": 96.122}, {"pitch": 77, "velocity": 59, "note_on_time": 96.213, "note_off_time": 96.555}, {"pitch": 77, "velocity": 58, "note_on_time": 96.785, "note_off_time": 97.459}, {"pitch": 76, "velocity": 77, "note_on_time": 97.415, "note_off_time": 98.622}, {"pitch": 79, "velocity": 64, "note_on_time": 98.672, "note_off_time": 99.862}, {"pitch": 72, "velocity": 61, "note_on_time": 99.922, "note_off_time": 100.226}, {"pitch": 76, "velocity": 78, "note_on_time": 100.184, "note_off_time": 100.518}, {"pitch": 76, "velocity": 60, "note_on_time": 100.746, "note_off_time": 100.966}, {"pitch": 77, "velocity": 64, "note_on_time": 101.061, "note_off_time": 101.426}, {"pitch": 77, "velocity": 72, "note_on_time": 101.657, "note_off_time": 102.27}, {"pitch": 72, "velocity": 70, "note_on_time": 102.271, "note_off_time": 103.622}, {"pitch": 79, "velocity": 67, "note_on_time": 103.544, "note_off_time": 104.824}, {"pitch": 72, "velocity": 46, "note_on_time": 104.803, "note_off_time": 105.084}, {"pitch": 76, "velocity": 72, "note_on_time": 105.106, "note_off_time": 105.388}, {"pitch": 76, "velocity": 54, "note_on_time": 105.629, "note_off_time": 105.891}, {"pitch": 77, "velocity": 56, "note_on_time": 105.951, "note_off_time": 106.344}, {"pitch": 77, "velocity": 53, "note_on_time": 106.531, "note_off_time": 107.149}, {"pitch": 76, "velocity": 79, "note_on_time": 107.134, "note_off_time": 108.349}, {"pitch": 79, "velocity": 68, "note_on_time": 108.365, "note_off_time": 109.424}, {"pitch": 72, "velocity": 57, "note_on_time": 109.595, "note_off_time": 109.974}, {"pitch": 76, "velocity": 76, "note_on_time": 109.915, "note_off_time": 110.265}, {"pitch": 76, "velocity": 67, "note_on_time": 110.496, "note_off_time": 110.727}, {"pitch": 77, "velocity": 70, "note_on_time": 110.824, "note_off_time": 111.272}, {"pitch": 77, "velocity": 66, "note_on_time": 111.426, "note_off_time": 112.039}, {"pitch": 76, "velocity": 68, "note_on_time": 112.012, "note_off_time": 113.275}, {"pitch": 79, "velocity": 74, "note_on_time": 113.247, "note_off_time": 114.495}, {"pitch": 72, "velocity": 53, "note_on_time": 114.475, "note_off_time": 114.832}, {"pitch": 76, "velocity": 62, "note_on_time": 114.786, "note_off_time": 115.07}, {"pitch": 76, "velocity": 68, "note_on_time": 115.362, "note_off_time": 115.618}, {"pitch": 77, "velocity": 56, "note_on_time": 115.642, "note_off_time": 115.977}, {"pitch": 77, "velocity": 66, "note_on_time": 116.226, "note_off_time": 116.684}, {"pitch": 74, "velocity": 77, "note_on_time": 116.905, "note_off_time": 118.183}, {"pitch": 79, "velocity": 74, "note_on_time": 118.134, "note_off_time": 119.298}, {"pitch": 72, "velocity": 58, "note_on_time": 119.332, "note_off_time": 119.708}, {"pitch": 76, "velocity": 71, "note_on_time": 119.622, "note_off_time": 119.996}, {"pitch": 76, "velocity": 64, "note_on_time": 120.219, "note_off_time": 120.451}, {"pitch": 77, "velocity": 59, "note_on_time": 120.511, "note_off_time": 120.901}, {"pitch": 77, "velocity": 66, "note_on_time": 121.07, "note_off_time": 121.703}, {"pitch": 74, "velocity": 77, "note_on_time": 121.669, "note_off_time": 122.951}, {"pitch": 72, "velocity": 70, "note_on_time": 122.931, "note_off_time": 123.822}, {"pitch": 72, "velocity": 53, "note_on_time": 124.182, "note_off_time": 124.459}, {"pitch": 74, "velocity": 74, "note_on_time": 124.483, "note_off_time": 124.879}, {"pitch": 74, "velocity": 62, "note_on_time": 125.083, "note_off_time": 125.316}, {"pitch": 76, "velocity": 64, "note_on_time": 125.379, "note_off_time": 125.793}, {"pitch": 76, "velocity": 72, "note_on_time": 125.963, "note_off_time": 126.579}, {"pitch": 79, "velocity": 72, "note_on_time": 126.555, "note_off_time": 128.074}, {"pitch": 72, "velocity": 67, "note_on_time": 127.864, "note_off_time": 128.615}, {"pitch": 72, "velocity": 67, "note_on_time": 129.062, "note_off_time": 129.302}, {"pitch": 74, "velocity": 74, "note_on_time": 129.358, "note_off_time": 129.789}, {"pitch": 74, "velocity": 71, "note_on_time": 130.023, "note_off_time": 130.238}, {"pitch": 76, "velocity": 81, "note_on_time": 130.319, "note_off_time": 130.618}, {"pitch": 76, "velocity": 73, "note_on_time": 130.874, "note_off_time": 131.439}, {"pitch": 79, "velocity": 78, "note_on_time": 131.442, "note_off_time": 132.196}, {"pitch": 72, "velocity": 65, "note_on_time": 132.727, "note_off_time": 133.877}, {"pitch": 72, "velocity": 70, "note_on_time": 133.99, "note_off_time": 134.251}, {"pitch": 74, "velocity": 73, "note_on_time": 134.273, "note_off_time": 134.618}, {"pitch": 74, "velocity": 69, "note_on_time": 134.898, "note_off_time": 135.219}, {"pitch": 76, "velocity": 70, "note_on_time": 135.194, "note_off_time": 135.601}, {"pitch": 76, "velocity": 48, "note_on_time": 135.77, "note_off_time": 136.399}, {"pitch": 79, "velocity": 84, "note_on_time": 136.342, "note_off_time": 137.585}, {"pitch": 72, "velocity": 66, "note_on_time": 137.596, "note_off_time": 138.478}, {"pitch": 72, "velocity": 65, "note_on_time": 138.845, "note_off_time": 139.054}, {"pitch": 74, "velocity": 77, "note_on_time": 139.156, "note_off_time": 139.492}, {"pitch": 74, "velocity": 70, "note_on_time": 139.758, "note_off_time": 139.951}, {"pitch": 76, "velocity": 41, "note_on_time": 140.116, "note_off_time": 140.489}, {"pitch": 76, "velocity": 79, "note_on_time": 140.687, "note_off_time": 141.158}, {"pitch": 77, "velocity": 60, "note_on_time": 141.223, "note_off_time": 142.446}, {"pitch": 79, "velocity": 73, "note_on_time": 142.501, "note_off_time": 143.76}, {"pitch": 72, "velocity": 57, "note_on_time": 143.716, "note_off_time": 144.0}, {"pitch": 74, "velocity": 66, "note_on_time": 144.001, "note_off_time": 144.367}, {"pitch": 74, "velocity": 62, "note_on_time": 144.599, "note_off_time": 144.891}, {"pitch": 76, "velocity": 70, "note_on_time": 144.894, "note_off_time": 146.125}, {"pitch": 72, "velocity": 51, "note_on_time": 146.212, "note_off_time": 146.358}, {"pitch": 74, "velocity": 86, "note_on_time": 146.5, "note_off_time": 146.989}, {"pitch": 74, "velocity": 81, "note_on_time": 147.067, "note_off_time": 147.399}, {"pitch": 76, "velocity": 81, "note_on_time": 147.362, "note_off_time": 148.597}, {"pitch": 72, "velocity": 67, "note_on_time": 148.59, "note_off_time": 148.883}, {"pitch": 74, "velocity": 73, "note_on_time": 148.868, "note_off_time": 149.272}, {"pitch": 74, "velocity": 67, "note_on_time": 149.479, "note_off_time": 149.665}, {"pitch": 76, "velocity": 63, "note_on_time": 149.78, "note_off_time": 149.94}, {"pitch": 76, "velocity": 62, "note_on_time": 150.058, "note_off_time": 150.211}, {"pitch": 76, "velocity": 61, "note_on_time": 150.359, "note_off_time": 150.837}, {"pitch": 79, "velocity": 71, "note_on_time": 150.956, "note_off_time": 152.03}, {"pitch": 72, "velocity": 74, "note_on_time": 152.233, "note_off_time": 153.236}, {"pitch": 72, "velocity": 53, "note_on_time": 153.436, "note_off_time": 153.656}, {"pitch": 74, "velocity": 73, "note_on_time": 153.749, "note_off_time": 154.514}, {"pitch": 76, "velocity": 62, "note_on_time": 154.334, "note_off_time": 154.673}, {"pitch": 74, "velocity": 89, "note_on_time": 154.666, "note_off_time": 155.088}, {"pitch": 76, "velocity": 72, "note_on_time": 155.214, "note_off_time": 155.811}, {"pitch": 74, "velocity": 75, "note_on_time": 155.809, "note_off_time": 157.133}, {"pitch": 79, "velocity": 70, "note_on_time": 157.112, "note_off_time": 158.336}, {"pitch": 72, "velocity": 49, "note_on_time": 158.301, "note_off_time": 158.6}, {"pitch": 74, "velocity": 64, "note_on_time": 158.597, "note_off_time": 159.017}, {"pitch": 74, "velocity": 41, "note_on_time": 159.164, "note_off_time": 159.466}, {"pitch": 76, "velocity": 62, "note_on_time": 159.449, "note_off_time": 159.833}, {"pitch": 76, "velocity": 63, "note_on_time": 160.063, "note_off_time": 160.679}, {"pitch": 74, "velocity": 71, "note_on_time": 160.695, "note_off_time": 162.046}, {"pitch": 79, "velocity": 65, "note_on_time": 161.974, "note_off_time": 163.185}, {"pitch": 72, "velocity": 58, "note_on_time": 163.194, "note_off_time": 163.5}, {"pitch": 74, "velocity": 66, "note_on_time": 163.487, "note_off_time": 164.094}, {"pitch": 76, "velocity": 55, "note_on_time": 164.072, "note_off_time": 164.45}, {"pitch": 74, "velocity": 78, "note_on_time": 164.388, "note_off_time": 165.011}, {"pitch": 76, "velocity": 78, "note_on_time": 164.938, "note_off_time": 165.701}, {"pitch": 72, "velocity": 57, "note_on_time": 165.544, "note_off_time": 167.462}, {"pitch": 72, "velocity": 57, "note_on_time": 168.094, "note_off_time": 168.317}, {"pitch": 74, "velocity": 62, "note_on_time": 168.371, "note_off_time": 169.038}, {"pitch": 76, "velocity": 58, "note_on_time": 168.964, "note_off_time": 169.322}, {"pitch": 74, "velocity": 69, "note_on_time": 169.275, "note_off_time": 169.941}, {"pitch": 76, "velocity": 68, "note_on_time": 169.843, "note_off_time": 170.524}, {"pitch": 72, "velocity": 70, "note_on_time": 170.461, "note_off_time": 172.329}, {"pitch": 77, "velocity": 59, "note_on_time": 171.818, "note_off_time": 172.418}, {"pitch": 72, "velocity": 61, "note_on_time": 172.948, "note_off_time": 173.267}, {"pitch": 74, "velocity": 78, "note_on_time": 173.22, "note_off_time": 173.671}, {"pitch": 74, "velocity": 79, "note_on_time": 173.844, "note_off_time": 174.151}, {"pitch": 76, "velocity": 79, "note_on_time": 174.113, "note_off_time": 174.823}, {"pitch": 74, "velocity": 82, "note_on_time": 174.73, "note_off_time": 175.429}, {"pitch": 76, "velocity": 68, "note_on_time": 175.308, "note_off_time": 176.699}, {"pitch": 72, "velocity": 63, "note_on_time": 176.582, "note_off_time": 177.25}, {"pitch": 72, "velocity": 59, "note_on_time": 177.781, "note_off_time": 178.015}, {"pitch": 74, "velocity": 72, "note_on_time": 178.07, "note_off_time": 178.701}, {"pitch": 76, "velocity": 56, "note_on_time": 178.652, "note_off_time": 179.022}, {"pitch": 76, "velocity": 70, "note_on_time": 179.565, "note_off_time": 180.24}, {"pitch": 74, "velocity": 72, "note_on_time": 178.978, "note_off_time": 180.28}, {"pitch": 79, "velocity": 80, "note_on_time": 180.185, "note_off_time": 181.47}, {"pitch": 72, "velocity": 79, "note_on_time": 181.452, "note_off_time": 182.278}, {"pitch": 72, "velocity": 57, "note_on_time": 182.676, "note_off_time": 182.951}, {"pitch": 74, "velocity": 67, "note_on_time": 182.951, "note_off_time": 183.508}, {"pitch": 76, "velocity": 58, "note_on_time": 183.532, "note_off_time": 183.889}, {"pitch": 74, "velocity": 69, "note_on_time": 183.853, "note_off_time": 184.417}, {"pitch": 76, "velocity": 62, "note_on_time": 184.391, "note_off_time": 185.118}, {"pitch": 74, "velocity": 69, "note_on_time": 184.977, "note_off_time": 186.289}, {"pitch": 79, "velocity": 74, "note_on_time": 186.279, "note_off_time": 187.605}, {"pitch": 72, "velocity": 65, "note_on_time": 187.576, "note_off_time": 188.011}, {"pitch": 74, "velocity": 71, "note_on_time": 187.855, "note_off_time": 188.4}, {"pitch": 76, "velocity": 59, "note_on_time": 188.427, "note_off_time": 188.783}, {"pitch": 74, "velocity": 75, "note_on_time": 188.731, "note_off_time": 189.858}, {"pitch": 76, "velocity": 66, "note_on_time": 189.297, "note_off_time": 189.916}, {"pitch": 77, "velocity": 72, "note_on_time": 189.884, "note_off_time": 191.054}, {"pitch": 79, "velocity": 76, "note_on_time": 191.16, "note_off_time": 192.437}, {"pitch": 72, "velocity": 65, "note_on_time": 192.35, "note_off_time": 192.677}, {"pitch": 74, "velocity": 71, "note_on_time": 192.628, "note_off_time": 193.205}, {"pitch": 76, "velocity": 65, "note_on_time": 193.214, "note_off_time": 193.554}, {"pitch": 74, "velocity": 75, "note_on_time": 193.527, "note_off_time": 194.569}, {"pitch": 76, "velocity": 69, "note_on_time": 194.522, "note_off_time": 194.813}]</notes><guidance name="Guidance Mode">None</guidance><error name="Error value">99</error></trial></trials></MIDI>