<MIDI midiNo="2024_03_04-17_02_19"><target_notes><notes name="Note List">[{"pitch": 60, "velocity": 40, "note_on_time": 0.01, "note_off_time": 1.013}, {"pitch": 64, "velocity": 40, "note_on_time": 0.011, "note_off_time": 1.014}, {"pitch": 67, "velocity": 40, "note_on_time": 0.011, "note_off_time": 1.014}, {"pitch": 48, "velocity": 40, "note_on_time": 0.011, "note_off_time": 1.015}, {"pitch": 52, "velocity": 40, "note_on_time": 1.015, "note_off_time": 2.029}, {"pitch": 55, "velocity": 40, "note_on_time": 1.015, "note_off_time": 2.029}, {"pitch": 72, "velocity": 40, "note_on_time": 2.029, "note_off_time": 3.031}, {"pitch": 48, "velocity": 40, "note_on_time": 2.029, "note_off_time": 3.032}, {"pitch": 52, "velocity": 40, "note_on_time": 3.032, "note_off_time": 4.036}, {"pitch": 55, "velocity": 40, "note_on_time": 3.032, "note_off_time": 4.036}, {"pitch": 48, "velocity": 40, "note_on_time": 4.036, "note_off_time": 5.039}, {"pitch": 52, "velocity": 40, "note_on_time": 5.039, "note_off_time": 6.04}, {"pitch": 55, "velocity": 40, "note_on_time": 5.039, "note_off_time": 6.04}, {"pitch": 48, "velocity": 40, "note_on_time": 6.04, "note_off_time": 7.043}, {"pitch": 52, "velocity": 40, "note_on_time": 7.043, "note_off_time": 8.047}, {"pitch": 55, "velocity": 40, "note_on_time": 7.043, "note_off_time": 8.047}, {"pitch": 60, "velocity": 40, "note_on_time": 8.045, "note_off_time": 9.061}, {"pitch": 64, "velocity": 40, "note_on_time": 8.047, "note_off_time": 9.062}, {"pitch": 67, "velocity": 40, "note_on_time": 8.047, "note_off_time": 9.063}, {"pitch": 48, "velocity": 40, "note_on_time": 8.047, "note_off_time": 9.063}, {"pitch": 52, "velocity": 40, "note_on_time": 9.063, "note_off_time": 10.072}, {"pitch": 55, "velocity": 40, "note_on_time": 9.063, "note_off_time": 10.072}, {"pitch": 74, "velocity": 40, "note_on_time": 10.072, "note_off_time": 11.077}, {"pitch": 48, "velocity": 40, "note_on_time": 10.072, "note_off_time": 11.077}, {"pitch": 52, "velocity": 40, "note_on_time": 11.077, "note_off_time": 12.082}, {"pitch": 55, "velocity": 40, "note_on_time": 11.077, "note_off_time": 12.082}, {"pitch": 48, "velocity": 40, "note_on_time": 12.082, "note_off_time": 13.095}, {"pitch": 52, "velocity": 40, "note_on_time": 13.095, "note_off_time": 14.1}, {"pitch": 55, "velocity": 40, "note_on_time": 13.095, "note_off_time": 14.1}, {"pitch": 48, "velocity": 40, "note_on_time": 14.1, "note_off_time": 15.11}, {"pitch": 52, "velocity": 40, "note_on_time": 15.11, "note_off_time": 16.128}, {"pitch": 55, "velocity": 40, "note_on_time": 15.11, "note_off_time": 16.128}, {"pitch": 60, "velocity": 40, "note_on_time": 16.126, "note_off_time": 17.138}, {"pitch": 64, "velocity": 40, "note_on_time": 16.127, "note_off_time": 17.138}, {"pitch": 67, "velocity": 40, "note_on_time": 16.127, "note_off_time": 17.138}, {"pitch": 48, "velocity": 40, "note_on_time": 16.128, "note_off_time": 17.138}, {"pitch": 52, "velocity": 40, "note_on_time": 17.138, "note_off_time": 18.143}, {"pitch": 55, "velocity": 40, "note_on_time": 17.138, "note_off_time": 18.144}, {"pitch": 79, "velocity": 40, "note_on_time": 18.143, "note_off_time": 19.149}, {"pitch": 48, "velocity": 40, "note_on_time": 18.144, "note_off_time": 19.149}, {"pitch": 52, "velocity": 40, "note_on_time": 19.149, "note_off_time": 20.154}, {"pitch": 55, "velocity": 40, "note_on_time": 19.149, "note_off_time": 20.154}, {"pitch": 48, "velocity": 40, "note_on_time": 20.154, "note_off_time": 21.165}, {"pitch": 52, "velocity": 40, "note_on_time": 21.165, "note_off_time": 22.168}, {"pitch": 55, "velocity": 40, "note_on_time": 21.165, "note_off_time": 22.168}, {"pitch": 48, "velocity": 40, "note_on_time": 22.168, "note_off_time": 23.175}, {"pitch": 52, "velocity": 40, "note_on_time": 23.175, "note_off_time": 24.18}, {"pitch": 55, "velocity": 40, "note_on_time": 23.175, "note_off_time": 24.18}, {"pitch": 60, "velocity": 40, "note_on_time": 24.178, "note_off_time": 25.192}, {"pitch": 64, "velocity": 40, "note_on_time": 24.179, "note_off_time": 25.193}, {"pitch": 67, "velocity": 40, "note_on_time": 24.18, "note_off_time": 25.193}, {"pitch": 48, "velocity": 40, "note_on_time": 24.18, "note_off_time": 25.194}, {"pitch": 52, "velocity": 40, "note_on_time": 25.194, "note_off_time": 26.207}, {"pitch": 55, "velocity": 40, "note_on_time": 25.194, "note_off_time": 26.208}, {"pitch": 72, "velocity": 40, "note_on_time": 26.207, "note_off_time": 27.208}, {"pitch": 48, "velocity": 40, "note_on_time": 26.208, "note_off_time": 27.209}, {"pitch": 52, "velocity": 40, "note_on_time": 27.209, "note_off_time": 28.222}, {"pitch": 55, "velocity": 40, "note_on_time": 27.209, "note_off_time": 28.222}, {"pitch": 48, "velocity": 40, "note_on_time": 28.222, "note_off_time": 29.225}, {"pitch": 52, "velocity": 40, "note_on_time": 29.225, "note_off_time": 30.228}, {"pitch": 55, "velocity": 40, "note_on_time": 29.225, "note_off_time": 30.228}, {"pitch": 48, "velocity": 40, "note_on_time": 30.228, "note_off_time": 31.242}, {"pitch": 52, "velocity": 40, "note_on_time": 31.242, "note_off_time": 32.259}, {"pitch": 55, "velocity": 40, "note_on_time": 31.242, "note_off_time": 32.259}, {"pitch": 60, "velocity": 40, "note_on_time": 32.258, "note_off_time": 33.275}, {"pitch": 64, "velocity": 40, "note_on_time": 32.258, "note_off_time": 33.276}, {"pitch": 67, "velocity": 40, "note_on_time": 32.259, "note_off_time": 33.277}, {"pitch": 48, "velocity": 40, "note_on_time": 32.259, "note_off_time": 33.277}, {"pitch": 52, "velocity": 40, "note_on_time": 33.277, "note_off_time": 34.288}, {"pitch": 55, "velocity": 40, "note_on_time": 33.277, "note_off_time": 34.288}, {"pitch": 76, "velocity": 40, "note_on_time": 34.288, "note_off_time": 35.298}, {"pitch": 48, "velocity": 40, "note_on_time": 34.288, "note_off_time": 35.298}, {"pitch": 52, "velocity": 40, "note_on_time": 35.298, "note_off_time": 36.311}, {"pitch": 55, "velocity": 40, "note_on_time": 35.298, "note_off_time": 36.311}, {"pitch": 48, "velocity": 40, "note_on_time": 36.311, "note_off_time": 37.319}, {"pitch": 52, "velocity": 40, "note_on_time": 37.319, "note_off_time": 38.329}, {"pitch": 55, "velocity": 40, "note_on_time": 37.319, "note_off_time": 38.329}, {"pitch": 48, "velocity": 40, "note_on_time": 38.329, "note_off_time": 39.335}, {"pitch": 52, "velocity": 40, "note_on_time": 39.335, "note_off_time": 40.346}, {"pitch": 55, "velocity": 40, "note_on_time": 39.335, "note_off_time": 40.346}, {"pitch": 60, "velocity": 40, "note_on_time": 40.346, "note_off_time": 41.348}, {"pitch": 64, "velocity": 40, "note_on_time": 40.346, "note_off_time": 41.349}, {"pitch": 67, "velocity": 40, "note_on_time": 40.346, "note_off_time": 41.35}, {"pitch": 72, "velocity": 40, "note_on_time": 42.366, "note_off_time": 43.379}, {"pitch": 60, "velocity": 40, "note_on_time": 48.395, "note_off_time": 49.41}, {"pitch": 64, "velocity": 40, "note_on_time": 48.395, "note_off_time": 49.41}, {"pitch": 67, "velocity": 40, "note_on_time": 48.396, "note_off_time": 49.411}, {"pitch": 74, "velocity": 40, "note_on_time": 50.425, "note_off_time": 51.436}, {"pitch": 60, "velocity": 40, "note_on_time": 56.439, "note_off_time": 57.444}, {"pitch": 64, "velocity": 40, "note_on_time": 56.44, "note_off_time": 57.445}, {"pitch": 67, "velocity": 40, "note_on_time": 56.44, "note_off_time": 57.446}, {"pitch": 79, "velocity": 40, "note_on_time": 58.453, "note_off_time": 59.455}, {"pitch": 60, "velocity": 40, "note_on_time": 64.46, "note_off_time": 65.47}, {"pitch": 64, "velocity": 40, "note_on_time": 64.461, "note_off_time": 65.471}, {"pitch": 67, "velocity": 40, "note_on_time": 64.462, "note_off_time": 65.472}, {"pitch": 76, "velocity": 40, "note_on_time": 66.478, "note_off_time": 67.49}, {"pitch": 60, "velocity": 40, "note_on_time": 72.501, "note_off_time": 73.507}, {"pitch": 64, "velocity": 40, "note_on_time": 72.502, "note_off_time": 73.508}, {"pitch": 67, "velocity": 40, "note_on_time": 72.502, "note_off_time": 73.509}, {"pitch": 79, "velocity": 40, "note_on_time": 74.52, "note_off_time": 75.521}, {"pitch": 60, "velocity": 40, "note_on_time": 80.533, "note_off_time": 81.549}, {"pitch": 64, "velocity": 40, "note_on_time": 80.533, "note_off_time": 81.55}, {"pitch": 67, "velocity": 40, "note_on_time": 80.534, "note_off_time": 81.551}, {"pitch": 77, "velocity": 40, "note_on_time": 82.552, "note_off_time": 83.558}, {"pitch": 60, "velocity": 40, "note_on_time": 88.562, "note_off_time": 89.567}, {"pitch": 64, "velocity": 40, "note_on_time": 88.563, "note_off_time": 89.567}, {"pitch": 67, "velocity": 40, "note_on_time": 88.563, "note_off_time": 89.568}, {"pitch": 74, "velocity": 40, "note_on_time": 90.584, "note_off_time": 91.597}, {"pitch": 60, "velocity": 40, "note_on_time": 96.608, "note_off_time": 97.61}, {"pitch": 64, "velocity": 40, "note_on_time": 96.608, "note_off_time": 97.61}, {"pitch": 67, "velocity": 40, "note_on_time": 96.609, "note_off_time": 97.611}, {"pitch": 77, "velocity": 40, "note_on_time": 98.614, "note_off_time": 99.618}, {"pitch": 60, "velocity": 40, "note_on_time": 104.622, "note_off_time": 105.631}, {"pitch": 64, "velocity": 40, "note_on_time": 104.623, "note_off_time": 105.632}, {"pitch": 67, "velocity": 40, "note_on_time": 104.623, "note_off_time": 105.632}, {"pitch": 76, "velocity": 40, "note_on_time": 106.643, "note_off_time": 107.657}, {"pitch": 60, "velocity": 40, "note_on_time": 112.659, "note_off_time": 113.663}, {"pitch": 64, "velocity": 40, "note_on_time": 112.66, "note_off_time": 113.664}, {"pitch": 67, "velocity": 40, "note_on_time": 112.661, "note_off_time": 113.665}, {"pitch": 79, "velocity": 40, "note_on_time": 114.673, "note_off_time": 115.678}, {"pitch": 60, "velocity": 40, "note_on_time": 120.685, "note_off_time": 121.699}, {"pitch": 64, "velocity": 40, "note_on_time": 120.686, "note_off_time": 121.7}, {"pitch": 67, "velocity": 40, "note_on_time": 120.687, "note_off_time": 121.7}, {"pitch": 77, "velocity": 40, "note_on_time": 122.713, "note_off_time": 123.715}, {"pitch": 60, "velocity": 40, "note_on_time": 128.72, "note_off_time": 129.733}, {"pitch": 64, "velocity": 40, "note_on_time": 128.72, "note_off_time": 129.734}, {"pitch": 67, "velocity": 40, "note_on_time": 128.721, "note_off_time": 129.735}, {"pitch": 76, "velocity": 40, "note_on_time": 130.747, "note_off_time": 131.75}, {"pitch": 60, "velocity": 40, "note_on_time": 136.752, "note_off_time": 137.767}, {"pitch": 64, "velocity": 40, "note_on_time": 136.753, "note_off_time": 137.768}, {"pitch": 67, "velocity": 40, "note_on_time": 136.754, "note_off_time": 137.769}, {"pitch": 72, "velocity": 40, "note_on_time": 138.779, "note_off_time": 139.786}, {"pitch": 60, "velocity": 40, "note_on_time": 144.801, "note_off_time": 145.804}, {"pitch": 64, "velocity": 40, "note_on_time": 144.801, "note_off_time": 145.805}, {"pitch": 67, "velocity": 40, "note_on_time": 144.802, "note_off_time": 145.806}, {"pitch": 77, "velocity": 40, "note_on_time": 146.818, "note_off_time": 147.827}, {"pitch": 60, "velocity": 40, "note_on_time": 152.832, "note_off_time": 153.848}, {"pitch": 64, "velocity": 40, "note_on_time": 152.832, "note_off_time": 153.849}, {"pitch": 67, "velocity": 40, "note_on_time": 152.833, "note_off_time": 153.85}, {"pitch": 74, "velocity": 40, "note_on_time": 154.853, "note_off_time": 155.855}, {"pitch": 60, "velocity": 40, "note_on_time": 160.87, "note_off_time": 161.876}, {"pitch": 64, "velocity": 40, "note_on_time": 160.871, "note_off_time": 161.876}, {"pitch": 67, "velocity": 40, "note_on_time": 160.872, "note_off_time": 161.876}, {"pitch": 72, "velocity": 40, "note_on_time": 162.892, "note_off_time": 163.903}]</notes><options name="Option List">((4, 4), [0.5, 0.25], 3, 8, &lt;NoteRangePerHand.TWO_NOTES: 3&gt;, &lt;NoteRangePerHand.ONE_NOTE: 2&gt;, False, True, True, 100)</options></target_notes><trials><trial trial_no="1" timestamp="2024_03_04-16_59_36"><notes name="Played Notes">[{"pitch": 72, "velocity": 56, "note_on_time": 3.038, "note_off_time": 4.281}, {"pitch": 74, "velocity": 59, "note_on_time": 10.956, "note_off_time": 11.309}, {"pitch": 74, "velocity": 73, "note_on_time": 11.572, "note_off_time": 12.949}, {"pitch": 77, "velocity": 55, "note_on_time": 19.585, "note_off_time": 20.023}, {"pitch": 79, "velocity": 64, "note_on_time": 20.196, "note_off_time": 21.512}, {"pitch": 72, "velocity": 65, "note_on_time": 27.213, "note_off_time": 28.146}, {"pitch": 74, "velocity": 58, "note_on_time": 35.742, "note_off_time": 36.189}, {"pitch": 77, "velocity": 49, "note_on_time": 36.606, "note_off_time": 36.98}, {"pitch": 77, "velocity": 46, "note_on_time": 37.245, "note_off_time": 37.534}, {"pitch": 79, "velocity": 56, "note_on_time": 37.542, "note_off_time": 37.918}, {"pitch": 72, "velocity": 59, "note_on_time": 43.183, "note_off_time": 43.487}, {"pitch": 72, "velocity": 67, "note_on_time": 43.716, "note_off_time": 44.538}, {"pitch": 74, "velocity": 52, "note_on_time": 51.473, "note_off_time": 52.424}, {"pitch": 77, "velocity": 51, "note_on_time": 59.586, "note_off_time": 59.931}, {"pitch": 79, "velocity": 62, "note_on_time": 60.066, "note_off_time": 61.588}, {"pitch": 76, "velocity": 48, "note_on_time": 68.103, "note_off_time": 69.496}, {"pitch": 79, "velocity": 68, "note_on_time": 75.929, "note_off_time": 77.021}, {"pitch": 77, "velocity": 55, "note_on_time": 83.356, "note_off_time": 83.613}, {"pitch": 77, "velocity": 58, "note_on_time": 83.864, "note_off_time": 85.277}, {"pitch": 74, "velocity": 70, "note_on_time": 91.8, "note_off_time": 92.657}, {"pitch": 77, "velocity": 50, "note_on_time": 100.517, "note_off_time": 101.725}, {"pitch": 76, "velocity": 54, "note_on_time": 107.634, "note_off_time": 107.881}, {"pitch": 76, "velocity": 61, "note_on_time": 108.055, "note_off_time": 109.336}, {"pitch": 77, "velocity": 61, "note_on_time": 115.734, "note_off_time": 116.101}, {"pitch": 79, "velocity": 72, "note_on_time": 116.14, "note_off_time": 117.765}, {"pitch": 77, "velocity": 57, "note_on_time": 123.7, "note_off_time": 123.976}, {"pitch": 77, "velocity": 30, "note_on_time": 124.161, "note_off_time": 126.56}, {"pitch": 76, "velocity": 52, "note_on_time": 131.729, "note_off_time": 131.984}, {"pitch": 76, "velocity": 42, "note_on_time": 132.146, "note_off_time": 133.952}, {"pitch": 72, "velocity": 56, "note_on_time": 139.812, "note_off_time": 144.813}, {"pitch": 74, "velocity": 67, "note_on_time": 148.013, "note_off_time": 148.45}, {"pitch": 77, "velocity": 50, "note_on_time": 148.954, "note_off_time": 151.164}, {"pitch": 76, "velocity": 56, "note_on_time": 155.891, "note_off_time": 156.35}, {"pitch": 74, "velocity": 61, "note_on_time": 156.403, "note_off_time": 157.766}, {"pitch": 72, "velocity": 55, "note_on_time": 163.494, "note_off_time": 163.742}]</notes><guidance name="Guidance Mode">None</guidance><error name="Error value">99</error></trial></trials></MIDI>