<MIDI midiNo="2024_03_04-17_29_14"><target_notes><notes name="Note List">[{"pitch": 60, "velocity": 40, "note_on_time": 0.01, "note_off_time": 1.012}, {"pitch": 64, "velocity": 40, "note_on_time": 0.01, "note_off_time": 1.012}, {"pitch": 67, "velocity": 40, "note_on_time": 0.01, "note_off_time": 1.013}, {"pitch": 48, "velocity": 40, "note_on_time": 0.01, "note_off_time": 1.013}, {"pitch": 52, "velocity": 40, "note_on_time": 1.013, "note_off_time": 2.03}, {"pitch": 55, "velocity": 40, "note_on_time": 1.014, "note_off_time": 2.03}, {"pitch": 72, "velocity": 40, "note_on_time": 2.03, "note_off_time": 3.033}, {"pitch": 48, "velocity": 40, "note_on_time": 2.03, "note_off_time": 3.033}, {"pitch": 52, "velocity": 40, "note_on_time": 3.033, "note_off_time": 4.047}, {"pitch": 55, "velocity": 40, "note_on_time": 3.033, "note_off_time": 4.047}, {"pitch": 48, "velocity": 40, "note_on_time": 4.047, "note_off_time": 5.062}, {"pitch": 52, "velocity": 40, "note_on_time": 5.062, "note_off_time": 6.07}, {"pitch": 55, "velocity": 40, "note_on_time": 5.062, "note_off_time": 6.07}, {"pitch": 48, "velocity": 40, "note_on_time": 6.07, "note_off_time": 7.085}, {"pitch": 52, "velocity": 40, "note_on_time": 7.085, "note_off_time": 8.102}, {"pitch": 55, "velocity": 40, "note_on_time": 7.085, "note_off_time": 8.103}, {"pitch": 60, "velocity": 40, "note_on_time": 8.101, "note_off_time": 9.116}, {"pitch": 64, "velocity": 40, "note_on_time": 8.102, "note_off_time": 9.118}, {"pitch": 67, "velocity": 40, "note_on_time": 8.102, "note_off_time": 9.119}, {"pitch": 48, "velocity": 40, "note_on_time": 8.103, "note_off_time": 9.119}, {"pitch": 52, "velocity": 40, "note_on_time": 9.119, "note_off_time": 10.122}, {"pitch": 55, "velocity": 40, "note_on_time": 9.119, "note_off_time": 10.123}, {"pitch": 76, "velocity": 40, "note_on_time": 10.122, "note_off_time": 11.126}, {"pitch": 48, "velocity": 40, "note_on_time": 10.123, "note_off_time": 11.126}, {"pitch": 52, "velocity": 40, "note_on_time": 11.126, "note_off_time": 12.139}, {"pitch": 55, "velocity": 40, "note_on_time": 11.126, "note_off_time": 12.139}, {"pitch": 48, "velocity": 40, "note_on_time": 12.139, "note_off_time": 13.145}, {"pitch": 52, "velocity": 40, "note_on_time": 13.145, "note_off_time": 14.153}, {"pitch": 55, "velocity": 40, "note_on_time": 13.145, "note_off_time": 14.153}, {"pitch": 48, "velocity": 40, "note_on_time": 14.153, "note_off_time": 15.157}, {"pitch": 52, "velocity": 40, "note_on_time": 15.157, "note_off_time": 16.162}, {"pitch": 55, "velocity": 40, "note_on_time": 15.157, "note_off_time": 16.162}, {"pitch": 60, "velocity": 40, "note_on_time": 16.161, "note_off_time": 17.175}, {"pitch": 64, "velocity": 40, "note_on_time": 16.161, "note_off_time": 17.175}, {"pitch": 67, "velocity": 40, "note_on_time": 16.162, "note_off_time": 17.176}, {"pitch": 48, "velocity": 40, "note_on_time": 16.162, "note_off_time": 17.176}, {"pitch": 52, "velocity": 40, "note_on_time": 17.176, "note_off_time": 18.192}, {"pitch": 55, "velocity": 40, "note_on_time": 17.176, "note_off_time": 18.192}, {"pitch": 74, "velocity": 40, "note_on_time": 18.192, "note_off_time": 19.199}, {"pitch": 48, "velocity": 40, "note_on_time": 18.192, "note_off_time": 19.199}, {"pitch": 52, "velocity": 40, "note_on_time": 19.199, "note_off_time": 20.21}, {"pitch": 55, "velocity": 40, "note_on_time": 19.199, "note_off_time": 20.21}, {"pitch": 48, "velocity": 40, "note_on_time": 20.21, "note_off_time": 21.212}, {"pitch": 52, "velocity": 40, "note_on_time": 21.212, "note_off_time": 22.214}, {"pitch": 55, "velocity": 40, "note_on_time": 21.212, "note_off_time": 22.214}, {"pitch": 48, "velocity": 40, "note_on_time": 22.214, "note_off_time": 23.221}, {"pitch": 52, "velocity": 40, "note_on_time": 23.221, "note_off_time": 24.227}, {"pitch": 55, "velocity": 40, "note_on_time": 23.221, "note_off_time": 24.227}, {"pitch": 60, "velocity": 40, "note_on_time": 24.225, "note_off_time": 25.23}, {"pitch": 64, "velocity": 40, "note_on_time": 24.226, "note_off_time": 25.231}, {"pitch": 67, "velocity": 40, "note_on_time": 24.227, "note_off_time": 25.231}, {"pitch": 48, "velocity": 40, "note_on_time": 24.227, "note_off_time": 25.231}, {"pitch": 52, "velocity": 40, "note_on_time": 25.232, "note_off_time": 26.24}, {"pitch": 55, "velocity": 40, "note_on_time": 25.232, "note_off_time": 26.24}, {"pitch": 77, "velocity": 40, "note_on_time": 26.24, "note_off_time": 27.243}, {"pitch": 48, "velocity": 40, "note_on_time": 26.24, "note_off_time": 27.244}, {"pitch": 52, "velocity": 40, "note_on_time": 27.244, "note_off_time": 28.248}, {"pitch": 55, "velocity": 40, "note_on_time": 27.244, "note_off_time": 28.248}, {"pitch": 48, "velocity": 40, "note_on_time": 28.248, "note_off_time": 29.26}, {"pitch": 52, "velocity": 40, "note_on_time": 29.26, "note_off_time": 30.27}, {"pitch": 55, "velocity": 40, "note_on_time": 29.26, "note_off_time": 30.27}, {"pitch": 48, "velocity": 40, "note_on_time": 30.27, "note_off_time": 31.272}, {"pitch": 52, "velocity": 40, "note_on_time": 31.272, "note_off_time": 32.281}, {"pitch": 55, "velocity": 40, "note_on_time": 31.272, "note_off_time": 32.281}, {"pitch": 60, "velocity": 40, "note_on_time": 32.279, "note_off_time": 33.294}, {"pitch": 64, "velocity": 40, "note_on_time": 32.28, "note_off_time": 33.294}, {"pitch": 67, "velocity": 40, "note_on_time": 32.281, "note_off_time": 33.296}, {"pitch": 48, "velocity": 40, "note_on_time": 32.281, "note_off_time": 33.296}, {"pitch": 52, "velocity": 40, "note_on_time": 33.296, "note_off_time": 34.304}, {"pitch": 55, "velocity": 40, "note_on_time": 33.297, "note_off_time": 34.304}, {"pitch": 79, "velocity": 40, "note_on_time": 34.304, "note_off_time": 35.306}, {"pitch": 48, "velocity": 40, "note_on_time": 34.304, "note_off_time": 35.307}, {"pitch": 52, "velocity": 40, "note_on_time": 35.307, "note_off_time": 36.315}, {"pitch": 55, "velocity": 40, "note_on_time": 35.307, "note_off_time": 36.315}, {"pitch": 48, "velocity": 40, "note_on_time": 36.315, "note_off_time": 37.331}, {"pitch": 52, "velocity": 40, "note_on_time": 37.331, "note_off_time": 38.337}, {"pitch": 55, "velocity": 40, "note_on_time": 37.331, "note_off_time": 38.337}, {"pitch": 48, "velocity": 40, "note_on_time": 38.337, "note_off_time": 39.345}, {"pitch": 52, "velocity": 40, "note_on_time": 39.345, "note_off_time": 40.359}, {"pitch": 55, "velocity": 40, "note_on_time": 39.345, "note_off_time": 40.359}, {"pitch": 60, "velocity": 40, "note_on_time": 40.357, "note_off_time": 41.364}, {"pitch": 64, "velocity": 40, "note_on_time": 40.358, "note_off_time": 41.364}, {"pitch": 67, "velocity": 40, "note_on_time": 40.358, "note_off_time": 41.365}, {"pitch": 72, "velocity": 40, "note_on_time": 42.379, "note_off_time": 43.394}, {"pitch": 60, "velocity": 40, "note_on_time": 48.402, "note_off_time": 49.413}, {"pitch": 64, "velocity": 40, "note_on_time": 48.403, "note_off_time": 49.413}, {"pitch": 67, "velocity": 40, "note_on_time": 48.404, "note_off_time": 49.414}, {"pitch": 79, "velocity": 40, "note_on_time": 50.418, "note_off_time": 51.419}, {"pitch": 60, "velocity": 40, "note_on_time": 56.428, "note_off_time": 57.441}, {"pitch": 64, "velocity": 40, "note_on_time": 56.428, "note_off_time": 57.441}, {"pitch": 67, "velocity": 40, "note_on_time": 56.429, "note_off_time": 57.442}, {"pitch": 77, "velocity": 40, "note_on_time": 58.444, "note_off_time": 59.457}, {"pitch": 60, "velocity": 40, "note_on_time": 64.459, "note_off_time": 65.468}, {"pitch": 64, "velocity": 40, "note_on_time": 64.46, "note_off_time": 65.469}, {"pitch": 67, "velocity": 40, "note_on_time": 64.46, "note_off_time": 65.47}, {"pitch": 72, "velocity": 40, "note_on_time": 66.48, "note_off_time": 67.484}, {"pitch": 60, "velocity": 40, "note_on_time": 72.487, "note_off_time": 73.49}, {"pitch": 64, "velocity": 40, "note_on_time": 72.488, "note_off_time": 73.491}, {"pitch": 67, "velocity": 40, "note_on_time": 72.488, "note_off_time": 73.492}, {"pitch": 76, "velocity": 40, "note_on_time": 74.494, "note_off_time": 75.505}, {"pitch": 60, "velocity": 40, "note_on_time": 80.521, "note_off_time": 81.529}, {"pitch": 64, "velocity": 40, "note_on_time": 80.522, "note_off_time": 81.53}, {"pitch": 67, "velocity": 40, "note_on_time": 80.522, "note_off_time": 81.531}, {"pitch": 77, "velocity": 40, "note_on_time": 82.543, "note_off_time": 83.56}, {"pitch": 60, "velocity": 40, "note_on_time": 88.567, "note_off_time": 89.584}, {"pitch": 64, "velocity": 40, "note_on_time": 88.568, "note_off_time": 89.584}, {"pitch": 67, "velocity": 40, "note_on_time": 88.569, "note_off_time": 89.585}, {"pitch": 74, "velocity": 40, "note_on_time": 90.597, "note_off_time": 91.601}, {"pitch": 60, "velocity": 40, "note_on_time": 96.603, "note_off_time": 97.619}, {"pitch": 64, "velocity": 40, "note_on_time": 96.604, "note_off_time": 97.62}, {"pitch": 67, "velocity": 40, "note_on_time": 96.604, "note_off_time": 97.621}, {"pitch": 79, "velocity": 40, "note_on_time": 98.635, "note_off_time": 99.645}, {"pitch": 60, "velocity": 40, "note_on_time": 104.661, "note_off_time": 105.671}, {"pitch": 64, "velocity": 40, "note_on_time": 104.662, "note_off_time": 105.672}, {"pitch": 67, "velocity": 40, "note_on_time": 104.662, "note_off_time": 105.673}, {"pitch": 77, "velocity": 40, "note_on_time": 106.684, "note_off_time": 107.696}, {"pitch": 60, "velocity": 40, "note_on_time": 112.701, "note_off_time": 113.718}, {"pitch": 64, "velocity": 40, "note_on_time": 112.701, "note_off_time": 113.719}, {"pitch": 67, "velocity": 40, "note_on_time": 112.701, "note_off_time": 113.72}, {"pitch": 76, "velocity": 40, "note_on_time": 114.727, "note_off_time": 115.732}, {"pitch": 60, "velocity": 40, "note_on_time": 120.735, "note_off_time": 121.74}, {"pitch": 64, "velocity": 40, "note_on_time": 120.736, "note_off_time": 121.74}, {"pitch": 67, "velocity": 40, "note_on_time": 120.737, "note_off_time": 121.741}, {"pitch": 74, "velocity": 40, "note_on_time": 122.758, "note_off_time": 123.759}, {"pitch": 60, "velocity": 40, "note_on_time": 128.769, "note_off_time": 129.783}, {"pitch": 64, "velocity": 40, "note_on_time": 128.769, "note_off_time": 129.784}, {"pitch": 67, "velocity": 40, "note_on_time": 128.77, "note_off_time": 129.784}, {"pitch": 76, "velocity": 40, "note_on_time": 130.789, "note_off_time": 131.798}, {"pitch": 60, "velocity": 40, "note_on_time": 136.799, "note_off_time": 137.81}, {"pitch": 64, "velocity": 40, "note_on_time": 136.8, "note_off_time": 137.81}, {"pitch": 67, "velocity": 40, "note_on_time": 136.8, "note_off_time": 137.811}, {"pitch": 72, "velocity": 40, "note_on_time": 138.812, "note_off_time": 139.829}, {"pitch": 60, "velocity": 40, "note_on_time": 144.846, "note_off_time": 145.851}, {"pitch": 64, "velocity": 40, "note_on_time": 144.846, "note_off_time": 145.852}, {"pitch": 67, "velocity": 40, "note_on_time": 144.847, "note_off_time": 145.853}, {"pitch": 79, "velocity": 40, "note_on_time": 146.861, "note_off_time": 147.866}, {"pitch": 60, "velocity": 40, "note_on_time": 152.867, "note_off_time": 153.884}, {"pitch": 64, "velocity": 40, "note_on_time": 152.868, "note_off_time": 153.884}, {"pitch": 67, "velocity": 40, "note_on_time": 152.869, "note_off_time": 153.885}, {"pitch": 74, "velocity": 40, "note_on_time": 154.895, "note_off_time": 155.911}, {"pitch": 60, "velocity": 40, "note_on_time": 160.916, "note_off_time": 161.929}, {"pitch": 64, "velocity": 40, "note_on_time": 160.917, "note_off_time": 161.93}, {"pitch": 67, "velocity": 40, "note_on_time": 160.917, "note_off_time": 161.931}, {"pitch": 72, "velocity": 40, "note_on_time": 162.945, "note_off_time": 163.957}]</notes><options name="Option List">((4, 4), [0.5, 0.25], 3, 8, &lt;NoteRangePerHand.TWO_NOTES: 3&gt;, &lt;NoteRangePerHand.ONE_NOTE: 2&gt;, False, True, True, 100)</options></target_notes><trials><trial trial_no="1" timestamp="2024_03_04-17_26_30"><notes name="Played Notes">[{"pitch": 72, "velocity": 58, "note_on_time": 3.511, "note_off_time": 5.389}, {"pitch": 74, "velocity": 66, "note_on_time": 10.865, "note_off_time": 11.878}, {"pitch": 77, "velocity": 68, "note_on_time": 12.082, "note_off_time": 13.411}, {"pitch": 74, "velocity": 43, "note_on_time": 20.137, "note_off_time": 22.363}, {"pitch": 79, "velocity": 53, "note_on_time": 27.756, "note_off_time": 29.702}, {"pitch": 79, "velocity": 56, "note_on_time": 35.42, "note_off_time": 37.038}, {"pitch": 77, "velocity": 44, "note_on_time": 43.853, "note_off_time": 44.73}, {"pitch": 76, "velocity": 53, "note_on_time": 45.001, "note_off_time": 46.102}, {"pitch": 79, "velocity": 51, "note_on_time": 51.856, "note_off_time": 53.725}, {"pitch": 77, "velocity": 39, "note_on_time": 60.429, "note_off_time": 62.129}, {"pitch": 72, "velocity": 48, "note_on_time": 69.59, "note_off_time": 71.203}, {"pitch": 77, "velocity": 46, "note_on_time": 76.984, "note_off_time": 77.779}, {"pitch": 74, "velocity": 68, "note_on_time": 78.107, "note_off_time": 78.94}, {"pitch": 76, "velocity": 37, "note_on_time": 79.327, "note_off_time": 80.211}, {"pitch": 79, "velocity": 55, "note_on_time": 83.873, "note_off_time": 84.575}, {"pitch": 76, "velocity": 46, "note_on_time": 85.548, "note_off_time": 86.55}, {"pitch": 74, "velocity": 49, "note_on_time": 92.141, "note_off_time": 93.341}, {"pitch": 74, "velocity": 42, "note_on_time": 100.436, "note_off_time": 101.072}, {"pitch": 77, "velocity": 9, "note_on_time": 101.757, "note_off_time": 102.383}, {"pitch": 79, "velocity": 42, "note_on_time": 103.043, "note_off_time": 104.438}, {"pitch": 79, "velocity": 47, "note_on_time": 108.146, "note_off_time": 108.871}, {"pitch": 74, "velocity": 60, "note_on_time": 109.872, "note_off_time": 110.419}, {"pitch": 77, "velocity": 23, "note_on_time": 110.856, "note_off_time": 112.145}, {"pitch": 74, "velocity": 59, "note_on_time": 116.407, "note_off_time": 116.971}, {"pitch": 72, "velocity": 50, "note_on_time": 117.634, "note_off_time": 118.126}, {"pitch": 77, "velocity": 53, "note_on_time": 118.815, "note_off_time": 120.431}, {"pitch": 79, "velocity": 61, "note_on_time": 123.76, "note_off_time": 125.75}, {"pitch": 77, "velocity": 54, "note_on_time": 132.669, "note_off_time": 134.84}, {"pitch": 72, "velocity": 53, "note_on_time": 140.669, "note_off_time": 142.559}, {"pitch": 79, "velocity": 51, "note_on_time": 148.873, "note_off_time": 150.706}, {"pitch": 74, "velocity": 33, "note_on_time": 156.258, "note_off_time": 157.814}]</notes><guidance name="Guidance Mode">None</guidance><error name="Error value">99</error></trial></trials></MIDI>