<MIDI midiNo="2024_02_26-12_23_28"><target_notes><notes name="Note List">[{"pitch": 60, "velocity": 40, "note_on_time": 0.011, "note_off_time": 1.013}, {"pitch": 64, "velocity": 40, "note_on_time": 0.011, "note_off_time": 1.014}, {"pitch": 67, "velocity": 40, "note_on_time": 0.011, "note_off_time": 1.014}, {"pitch": 48, "velocity": 40, "note_on_time": 0.011, "note_off_time": 1.015}, {"pitch": 52, "velocity": 40, "note_on_time": 1.015, "note_off_time": 2.028}, {"pitch": 55, "velocity": 40, "note_on_time": 1.015, "note_off_time": 2.028}, {"pitch": 79, "velocity": 40, "note_on_time": 2.028, "note_off_time": 3.03}, {"pitch": 48, "velocity": 40, "note_on_time": 2.028, "note_off_time": 3.03}, {"pitch": 52, "velocity": 40, "note_on_time": 3.031, "note_off_time": 4.039}, {"pitch": 55, "velocity": 40, "note_on_time": 3.031, "note_off_time": 4.039}, {"pitch": 48, "velocity": 40, "note_on_time": 4.039, "note_off_time": 5.05}, {"pitch": 52, "velocity": 40, "note_on_time": 5.05, "note_off_time": 6.059}, {"pitch": 55, "velocity": 40, "note_on_time": 5.05, "note_off_time": 6.059}, {"pitch": 48, "velocity": 40, "note_on_time": 6.059, "note_off_time": 7.064}, {"pitch": 52, "velocity": 40, "note_on_time": 7.064, "note_off_time": 8.073}, {"pitch": 55, "velocity": 40, "note_on_time": 7.064, "note_off_time": 8.074}, {"pitch": 60, "velocity": 40, "note_on_time": 8.072, "note_off_time": 9.084}, {"pitch": 64, "velocity": 40, "note_on_time": 8.073, "note_off_time": 9.085}, {"pitch": 67, "velocity": 40, "note_on_time": 8.073, "note_off_time": 9.086}, {"pitch": 48, "velocity": 40, "note_on_time": 8.074, "note_off_time": 9.086}, {"pitch": 52, "velocity": 40, "note_on_time": 9.086, "note_off_time": 10.097}, {"pitch": 55, "velocity": 40, "note_on_time": 9.086, "note_off_time": 10.097}, {"pitch": 76, "velocity": 40, "note_on_time": 10.096, "note_off_time": 11.108}, {"pitch": 48, "velocity": 40, "note_on_time": 10.097, "note_off_time": 11.108}, {"pitch": 52, "velocity": 40, "note_on_time": 11.109, "note_off_time": 12.122}, {"pitch": 55, "velocity": 40, "note_on_time": 11.109, "note_off_time": 12.122}, {"pitch": 48, "velocity": 40, "note_on_time": 12.122, "note_off_time": 13.127}, {"pitch": 52, "velocity": 40, "note_on_time": 13.127, "note_off_time": 14.13}, {"pitch": 55, "velocity": 40, "note_on_time": 13.127, "note_off_time": 14.13}, {"pitch": 48, "velocity": 40, "note_on_time": 14.13, "note_off_time": 15.133}, {"pitch": 52, "velocity": 40, "note_on_time": 15.133, "note_off_time": 16.148}, {"pitch": 55, "velocity": 40, "note_on_time": 15.133, "note_off_time": 16.148}, {"pitch": 60, "velocity": 40, "note_on_time": 16.147, "note_off_time": 17.153}, {"pitch": 64, "velocity": 40, "note_on_time": 16.147, "note_off_time": 17.154}, {"pitch": 67, "velocity": 40, "note_on_time": 16.148, "note_off_time": 17.155}, {"pitch": 48, "velocity": 40, "note_on_time": 16.148, "note_off_time": 17.155}, {"pitch": 52, "velocity": 40, "note_on_time": 17.155, "note_off_time": 18.167}, {"pitch": 55, "velocity": 40, "note_on_time": 17.155, "note_off_time": 18.167}, {"pitch": 72, "velocity": 40, "note_on_time": 18.166, "note_off_time": 19.168}, {"pitch": 48, "velocity": 40, "note_on_time": 18.167, "note_off_time": 19.168}, {"pitch": 52, "velocity": 40, "note_on_time": 19.169, "note_off_time": 20.177}, {"pitch": 55, "velocity": 40, "note_on_time": 19.169, "note_off_time": 20.177}, {"pitch": 48, "velocity": 40, "note_on_time": 20.177, "note_off_time": 21.18}, {"pitch": 52, "velocity": 40, "note_on_time": 21.18, "note_off_time": 22.183}, {"pitch": 55, "velocity": 40, "note_on_time": 21.18, "note_off_time": 22.183}, {"pitch": 48, "velocity": 40, "note_on_time": 22.183, "note_off_time": 23.189}, {"pitch": 52, "velocity": 40, "note_on_time": 23.189, "note_off_time": 24.204}, {"pitch": 55, "velocity": 40, "note_on_time": 23.189, "note_off_time": 24.204}, {"pitch": 60, "velocity": 40, "note_on_time": 24.203, "note_off_time": 25.212}, {"pitch": 64, "velocity": 40, "note_on_time": 24.204, "note_off_time": 25.213}, {"pitch": 67, "velocity": 40, "note_on_time": 24.204, "note_off_time": 25.213}, {"pitch": 48, "velocity": 40, "note_on_time": 24.204, "note_off_time": 25.213}, {"pitch": 52, "velocity": 40, "note_on_time": 25.213, "note_off_time": 26.225}, {"pitch": 55, "velocity": 40, "note_on_time": 25.214, "note_off_time": 26.225}, {"pitch": 79, "velocity": 40, "note_on_time": 26.225, "note_off_time": 27.228}, {"pitch": 48, "velocity": 40, "note_on_time": 26.225, "note_off_time": 27.228}, {"pitch": 52, "velocity": 40, "note_on_time": 27.229, "note_off_time": 28.244}, {"pitch": 55, "velocity": 40, "note_on_time": 27.229, "note_off_time": 28.244}, {"pitch": 48, "velocity": 40, "note_on_time": 28.244, "note_off_time": 29.252}, {"pitch": 52, "velocity": 40, "note_on_time": 29.252, "note_off_time": 30.254}, {"pitch": 55, "velocity": 40, "note_on_time": 29.252, "note_off_time": 30.254}, {"pitch": 48, "velocity": 40, "note_on_time": 30.254, "note_off_time": 31.257}, {"pitch": 52, "velocity": 40, "note_on_time": 31.257, "note_off_time": 32.269}, {"pitch": 55, "velocity": 40, "note_on_time": 31.257, "note_off_time": 32.269}, {"pitch": 60, "velocity": 40, "note_on_time": 32.268, "note_off_time": 33.278}, {"pitch": 64, "velocity": 40, "note_on_time": 32.269, "note_off_time": 33.28}, {"pitch": 67, "velocity": 40, "note_on_time": 32.269, "note_off_time": 33.281}, {"pitch": 48, "velocity": 40, "note_on_time": 32.269, "note_off_time": 33.281}, {"pitch": 52, "velocity": 40, "note_on_time": 33.281, "note_off_time": 34.287}, {"pitch": 55, "velocity": 40, "note_on_time": 33.281, "note_off_time": 34.287}, {"pitch": 74, "velocity": 40, "note_on_time": 34.287, "note_off_time": 35.292}, {"pitch": 48, "velocity": 40, "note_on_time": 34.287, "note_off_time": 35.292}, {"pitch": 52, "velocity": 40, "note_on_time": 35.293, "note_off_time": 36.3}, {"pitch": 55, "velocity": 40, "note_on_time": 35.293, "note_off_time": 36.3}, {"pitch": 48, "velocity": 40, "note_on_time": 36.3, "note_off_time": 37.304}, {"pitch": 52, "velocity": 40, "note_on_time": 37.304, "note_off_time": 38.318}, {"pitch": 55, "velocity": 40, "note_on_time": 37.304, "note_off_time": 38.318}, {"pitch": 48, "velocity": 40, "note_on_time": 38.318, "note_off_time": 39.326}, {"pitch": 52, "velocity": 40, "note_on_time": 39.326, "note_off_time": 40.335}, {"pitch": 55, "velocity": 40, "note_on_time": 39.326, "note_off_time": 40.336}, {"pitch": 60, "velocity": 40, "note_on_time": 40.334, "note_off_time": 41.35}, {"pitch": 64, "velocity": 40, "note_on_time": 40.335, "note_off_time": 41.351}, {"pitch": 67, "velocity": 40, "note_on_time": 40.335, "note_off_time": 41.352}, {"pitch": 79, "velocity": 40, "note_on_time": 42.366, "note_off_time": 43.375}, {"pitch": 60, "velocity": 40, "note_on_time": 48.387, "note_off_time": 49.402}, {"pitch": 64, "velocity": 40, "note_on_time": 48.387, "note_off_time": 49.403}, {"pitch": 67, "velocity": 40, "note_on_time": 48.387, "note_off_time": 49.403}, {"pitch": 77, "velocity": 40, "note_on_time": 50.406, "note_off_time": 51.417}, {"pitch": 60, "velocity": 40, "note_on_time": 56.428, "note_off_time": 57.44}, {"pitch": 64, "velocity": 40, "note_on_time": 56.428, "note_off_time": 57.441}, {"pitch": 67, "velocity": 40, "note_on_time": 56.429, "note_off_time": 57.441}, {"pitch": 76, "velocity": 40, "note_on_time": 58.452, "note_off_time": 59.455}, {"pitch": 60, "velocity": 40, "note_on_time": 64.457, "note_off_time": 65.468}, {"pitch": 64, "velocity": 40, "note_on_time": 64.457, "note_off_time": 65.468}, {"pitch": 67, "velocity": 40, "note_on_time": 64.458, "note_off_time": 65.468}, {"pitch": 72, "velocity": 40, "note_on_time": 66.47, "note_off_time": 67.486}, {"pitch": 60, "velocity": 40, "note_on_time": 72.502, "note_off_time": 73.505}, {"pitch": 64, "velocity": 40, "note_on_time": 72.503, "note_off_time": 73.506}, {"pitch": 67, "velocity": 40, "note_on_time": 72.503, "note_off_time": 73.507}, {"pitch": 76, "velocity": 40, "note_on_time": 74.508, "note_off_time": 75.52}, {"pitch": 60, "velocity": 40, "note_on_time": 80.531, "note_off_time": 81.548}, {"pitch": 64, "velocity": 40, "note_on_time": 80.532, "note_off_time": 81.549}, {"pitch": 67, "velocity": 40, "note_on_time": 80.532, "note_off_time": 81.549}, {"pitch": 74, "velocity": 40, "note_on_time": 82.551, "note_off_time": 83.565}, {"pitch": 60, "velocity": 40, "note_on_time": 88.581, "note_off_time": 89.582}, {"pitch": 64, "velocity": 40, "note_on_time": 88.581, "note_off_time": 89.583}, {"pitch": 67, "velocity": 40, "note_on_time": 88.582, "note_off_time": 89.583}, {"pitch": 72, "velocity": 40, "note_on_time": 90.584, "note_off_time": 91.598}, {"pitch": 60, "velocity": 40, "note_on_time": 96.608, "note_off_time": 97.618}, {"pitch": 64, "velocity": 40, "note_on_time": 96.609, "note_off_time": 97.619}, {"pitch": 67, "velocity": 40, "note_on_time": 96.609, "note_off_time": 97.619}, {"pitch": 77, "velocity": 40, "note_on_time": 98.622, "note_off_time": 99.625}, {"pitch": 60, "velocity": 40, "note_on_time": 104.64, "note_off_time": 105.644}, {"pitch": 64, "velocity": 40, "note_on_time": 104.641, "note_off_time": 105.644}, {"pitch": 67, "velocity": 40, "note_on_time": 104.642, "note_off_time": 105.646}, {"pitch": 72, "velocity": 40, "note_on_time": 106.659, "note_off_time": 107.663}, {"pitch": 60, "velocity": 40, "note_on_time": 112.677, "note_off_time": 113.687}, {"pitch": 64, "velocity": 40, "note_on_time": 112.678, "note_off_time": 113.687}, {"pitch": 67, "velocity": 40, "note_on_time": 112.678, "note_off_time": 113.688}, {"pitch": 74, "velocity": 40, "note_on_time": 114.694, "note_off_time": 115.696}, {"pitch": 60, "velocity": 40, "note_on_time": 120.699, "note_off_time": 121.712}, {"pitch": 64, "velocity": 40, "note_on_time": 120.7, "note_off_time": 121.713}, {"pitch": 67, "velocity": 40, "note_on_time": 120.701, "note_off_time": 121.713}, {"pitch": 77, "velocity": 40, "note_on_time": 122.723, "note_off_time": 123.733}, {"pitch": 60, "velocity": 40, "note_on_time": 128.739, "note_off_time": 129.755}, {"pitch": 64, "velocity": 40, "note_on_time": 128.74, "note_off_time": 129.756}, {"pitch": 67, "velocity": 40, "note_on_time": 128.74, "note_off_time": 129.757}, {"pitch": 76, "velocity": 40, "note_on_time": 130.768, "note_off_time": 131.77}, {"pitch": 60, "velocity": 40, "note_on_time": 136.779, "note_off_time": 137.787}, {"pitch": 64, "velocity": 40, "note_on_time": 136.779, "note_off_time": 137.788}, {"pitch": 67, "velocity": 40, "note_on_time": 136.78, "note_off_time": 137.788}, {"pitch": 74, "velocity": 40, "note_on_time": 138.797, "note_off_time": 139.808}, {"pitch": 60, "velocity": 40, "note_on_time": 144.818, "note_off_time": 145.822}, {"pitch": 64, "velocity": 40, "note_on_time": 144.819, "note_off_time": 145.823}, {"pitch": 67, "velocity": 40, "note_on_time": 144.819, "note_off_time": 145.823}, {"pitch": 77, "velocity": 40, "note_on_time": 146.83, "note_off_time": 147.846}, {"pitch": 60, "velocity": 40, "note_on_time": 152.855, "note_off_time": 153.861}, {"pitch": 64, "velocity": 40, "note_on_time": 152.855, "note_off_time": 153.862}, {"pitch": 67, "velocity": 40, "note_on_time": 152.856, "note_off_time": 153.862}, {"pitch": 79, "velocity": 40, "note_on_time": 154.869, "note_off_time": 155.872}, {"pitch": 60, "velocity": 40, "note_on_time": 160.889, "note_off_time": 161.895}, {"pitch": 64, "velocity": 40, "note_on_time": 160.889, "note_off_time": 161.896}, {"pitch": 67, "velocity": 40, "note_on_time": 160.89, "note_off_time": 161.897}, {"pitch": 79, "velocity": 40, "note_on_time": 162.912, "note_off_time": 163.927}]</notes><options name="Option List">((4, 4), [0.5, 0.25], 3, 8, &lt;NoteRangePerHand.TWO_NOTES: 3&gt;, &lt;NoteRangePerHand.ONE_NOTE: 2&gt;, False, True, True, 100)</options></target_notes><trials><trial trial_no="1" timestamp="2024_02_26-12_20_44"><notes name="Played Notes">[{"pitch": 77, "velocity": 12, "note_on_time": 4.079, "note_off_time": 4.518}, {"pitch": 79, "velocity": 38, "note_on_time": 5.201, "note_off_time": 5.408}, {"pitch": 76, "velocity": 16, "note_on_time": 12.375, "note_off_time": 12.831}, {"pitch": 76, "velocity": 42, "note_on_time": 19.771, "note_off_time": 20.244}, {"pitch": 74, "velocity": 40, "note_on_time": 20.686, "note_off_time": 21.511}, {"pitch": 72, "velocity": 44, "note_on_time": 22.269, "note_off_time": 22.873}, {"pitch": 77, "velocity": 26, "note_on_time": 28.605, "note_off_time": 29.071}, {"pitch": 79, "velocity": 46, "note_on_time": 29.411, "note_off_time": 30.105}, {"pitch": 76, "velocity": 42, "note_on_time": 37.878, "note_off_time": 38.874}, {"pitch": 77, "velocity": 20, "note_on_time": 44.209, "note_off_time": 44.708}, {"pitch": 79, "velocity": 50, "note_on_time": 44.955, "note_off_time": 45.817}, {"pitch": 77, "velocity": 18, "note_on_time": 51.981, "note_off_time": 52.888}, {"pitch": 77, "velocity": 45, "note_on_time": 60.837, "note_off_time": 61.251}, {"pitch": 79, "velocity": 27, "note_on_time": 61.881, "note_off_time": 62.259}, {"pitch": 76, "velocity": 54, "note_on_time": 62.695, "note_off_time": 63.541}, {"pitch": 74, "velocity": 44, "note_on_time": 69.087, "note_off_time": 69.488}, {"pitch": 72, "velocity": 46, "note_on_time": 69.771, "note_off_time": 70.371}, {"pitch": 77, "velocity": 35, "note_on_time": 78.257, "note_off_time": 78.976}, {"pitch": 76, "velocity": 28, "note_on_time": 85.076, "note_off_time": 85.872}, {"pitch": 74, "velocity": 38, "note_on_time": 93.442, "note_off_time": 94.068}, {"pitch": 77, "velocity": 30, "note_on_time": 100.928, "note_off_time": 101.757}, {"pitch": 76, "velocity": 19, "note_on_time": 109.73, "note_off_time": 110.187}, {"pitch": 74, "velocity": 53, "note_on_time": 110.487, "note_off_time": 111.051}, {"pitch": 72, "velocity": 37, "note_on_time": 111.909, "note_off_time": 112.456}, {"pitch": 74, "velocity": 23, "note_on_time": 117.846, "note_off_time": 118.594}, {"pitch": 77, "velocity": 31, "note_on_time": 124.866, "note_off_time": 125.477}, {"pitch": 77, "velocity": 40, "note_on_time": 133.007, "note_off_time": 133.718}, {"pitch": 76, "velocity": 19, "note_on_time": 141.417, "note_off_time": 142.381}, {"pitch": 76, "velocity": 28, "note_on_time": 150.356, "note_off_time": 151.253}, {"pitch": 79, "velocity": 38, "note_on_time": 156.805, "note_off_time": 157.483}]</notes><guidance name="Guidance Mode">None</guidance><error name="Error value">99</error></trial></trials></MIDI>