<MIDI midiNo="2024_02_26-13_29_03"><target_notes><notes name="Note List">[{"pitch": 60, "velocity": 40, "note_on_time": 0.009, "note_off_time": 1.014}, {"pitch": 64, "velocity": 40, "note_on_time": 0.01, "note_off_time": 1.014}, {"pitch": 67, "velocity": 40, "note_on_time": 0.01, "note_off_time": 1.015}, {"pitch": 48, "velocity": 40, "note_on_time": 0.01, "note_off_time": 1.015}, {"pitch": 52, "velocity": 40, "note_on_time": 1.015, "note_off_time": 2.03}, {"pitch": 55, "velocity": 40, "note_on_time": 1.015, "note_off_time": 2.031}, {"pitch": 72, "velocity": 40, "note_on_time": 2.03, "note_off_time": 3.033}, {"pitch": 48, "velocity": 40, "note_on_time": 2.031, "note_off_time": 3.033}, {"pitch": 52, "velocity": 40, "note_on_time": 3.033, "note_off_time": 4.046}, {"pitch": 55, "velocity": 40, "note_on_time": 3.033, "note_off_time": 4.046}, {"pitch": 48, "velocity": 40, "note_on_time": 4.046, "note_off_time": 5.049}, {"pitch": 52, "velocity": 40, "note_on_time": 5.049, "note_off_time": 6.065}, {"pitch": 55, "velocity": 40, "note_on_time": 5.049, "note_off_time": 6.065}, {"pitch": 48, "velocity": 40, "note_on_time": 6.065, "note_off_time": 7.068}, {"pitch": 52, "velocity": 40, "note_on_time": 7.068, "note_off_time": 8.074}, {"pitch": 55, "velocity": 40, "note_on_time": 7.068, "note_off_time": 8.074}, {"pitch": 60, "velocity": 40, "note_on_time": 8.073, "note_off_time": 9.085}, {"pitch": 64, "velocity": 40, "note_on_time": 8.074, "note_off_time": 9.086}, {"pitch": 67, "velocity": 40, "note_on_time": 8.074, "note_off_time": 9.086}, {"pitch": 48, "velocity": 40, "note_on_time": 8.074, "note_off_time": 9.086}, {"pitch": 52, "velocity": 40, "note_on_time": 9.086, "note_off_time": 10.093}, {"pitch": 55, "velocity": 40, "note_on_time": 9.086, "note_off_time": 10.093}, {"pitch": 77, "velocity": 40, "note_on_time": 10.093, "note_off_time": 11.107}, {"pitch": 48, "velocity": 40, "note_on_time": 10.093, "note_off_time": 11.108}, {"pitch": 52, "velocity": 40, "note_on_time": 11.108, "note_off_time": 12.113}, {"pitch": 55, "velocity": 40, "note_on_time": 11.108, "note_off_time": 12.113}, {"pitch": 48, "velocity": 40, "note_on_time": 12.113, "note_off_time": 13.115}, {"pitch": 52, "velocity": 40, "note_on_time": 13.115, "note_off_time": 14.118}, {"pitch": 55, "velocity": 40, "note_on_time": 13.115, "note_off_time": 14.118}, {"pitch": 48, "velocity": 40, "note_on_time": 14.118, "note_off_time": 15.129}, {"pitch": 52, "velocity": 40, "note_on_time": 15.129, "note_off_time": 16.139}, {"pitch": 55, "velocity": 40, "note_on_time": 15.129, "note_off_time": 16.139}, {"pitch": 60, "velocity": 40, "note_on_time": 16.137, "note_off_time": 17.141}, {"pitch": 64, "velocity": 40, "note_on_time": 16.138, "note_off_time": 17.142}, {"pitch": 67, "velocity": 40, "note_on_time": 16.138, "note_off_time": 17.143}, {"pitch": 48, "velocity": 40, "note_on_time": 16.139, "note_off_time": 17.143}, {"pitch": 52, "velocity": 40, "note_on_time": 17.143, "note_off_time": 18.148}, {"pitch": 55, "velocity": 40, "note_on_time": 17.143, "note_off_time": 18.149}, {"pitch": 72, "velocity": 40, "note_on_time": 18.148, "note_off_time": 19.161}, {"pitch": 48, "velocity": 40, "note_on_time": 18.149, "note_off_time": 19.161}, {"pitch": 52, "velocity": 40, "note_on_time": 19.161, "note_off_time": 20.167}, {"pitch": 55, "velocity": 40, "note_on_time": 19.161, "note_off_time": 20.167}, {"pitch": 48, "velocity": 40, "note_on_time": 20.167, "note_off_time": 21.174}, {"pitch": 52, "velocity": 40, "note_on_time": 21.174, "note_off_time": 22.181}, {"pitch": 55, "velocity": 40, "note_on_time": 21.174, "note_off_time": 22.181}, {"pitch": 48, "velocity": 40, "note_on_time": 22.181, "note_off_time": 23.183}, {"pitch": 52, "velocity": 40, "note_on_time": 23.183, "note_off_time": 24.192}, {"pitch": 55, "velocity": 40, "note_on_time": 23.183, "note_off_time": 24.192}, {"pitch": 60, "velocity": 40, "note_on_time": 24.191, "note_off_time": 25.2}, {"pitch": 64, "velocity": 40, "note_on_time": 24.191, "note_off_time": 25.201}, {"pitch": 67, "velocity": 40, "note_on_time": 24.192, "note_off_time": 25.201}, {"pitch": 48, "velocity": 40, "note_on_time": 24.192, "note_off_time": 25.201}, {"pitch": 52, "velocity": 40, "note_on_time": 25.202, "note_off_time": 26.213}, {"pitch": 55, "velocity": 40, "note_on_time": 25.202, "note_off_time": 26.213}, {"pitch": 77, "velocity": 40, "note_on_time": 26.213, "note_off_time": 27.228}, {"pitch": 48, "velocity": 40, "note_on_time": 26.213, "note_off_time": 27.228}, {"pitch": 52, "velocity": 40, "note_on_time": 27.228, "note_off_time": 28.23}, {"pitch": 55, "velocity": 40, "note_on_time": 27.229, "note_off_time": 28.23}, {"pitch": 48, "velocity": 40, "note_on_time": 28.23, "note_off_time": 29.233}, {"pitch": 52, "velocity": 40, "note_on_time": 29.233, "note_off_time": 30.243}, {"pitch": 55, "velocity": 40, "note_on_time": 29.233, "note_off_time": 30.243}, {"pitch": 48, "velocity": 40, "note_on_time": 30.243, "note_off_time": 31.248}, {"pitch": 52, "velocity": 40, "note_on_time": 31.248, "note_off_time": 32.254}, {"pitch": 55, "velocity": 40, "note_on_time": 31.248, "note_off_time": 32.255}, {"pitch": 60, "velocity": 40, "note_on_time": 32.253, "note_off_time": 33.27}, {"pitch": 64, "velocity": 40, "note_on_time": 32.254, "note_off_time": 33.271}, {"pitch": 67, "velocity": 40, "note_on_time": 32.254, "note_off_time": 33.272}, {"pitch": 48, "velocity": 40, "note_on_time": 32.255, "note_off_time": 33.272}, {"pitch": 52, "velocity": 40, "note_on_time": 33.272, "note_off_time": 34.282}, {"pitch": 55, "velocity": 40, "note_on_time": 33.272, "note_off_time": 34.282}, {"pitch": 79, "velocity": 40, "note_on_time": 34.282, "note_off_time": 35.283}, {"pitch": 48, "velocity": 40, "note_on_time": 34.282, "note_off_time": 35.284}, {"pitch": 52, "velocity": 40, "note_on_time": 35.284, "note_off_time": 36.299}, {"pitch": 55, "velocity": 40, "note_on_time": 35.284, "note_off_time": 36.299}, {"pitch": 48, "velocity": 40, "note_on_time": 36.299, "note_off_time": 37.305}, {"pitch": 52, "velocity": 40, "note_on_time": 37.305, "note_off_time": 38.317}, {"pitch": 55, "velocity": 40, "note_on_time": 37.305, "note_off_time": 38.317}, {"pitch": 48, "velocity": 40, "note_on_time": 38.317, "note_off_time": 39.321}, {"pitch": 52, "velocity": 40, "note_on_time": 39.321, "note_off_time": 40.333}, {"pitch": 55, "velocity": 40, "note_on_time": 39.321, "note_off_time": 40.333}, {"pitch": 60, "velocity": 40, "note_on_time": 40.333, "note_off_time": 41.337}, {"pitch": 64, "velocity": 40, "note_on_time": 40.333, "note_off_time": 41.337}, {"pitch": 67, "velocity": 40, "note_on_time": 40.333, "note_off_time": 41.337}, {"pitch": 74, "velocity": 40, "note_on_time": 42.35, "note_off_time": 43.365}, {"pitch": 60, "velocity": 40, "note_on_time": 48.379, "note_off_time": 49.396}, {"pitch": 64, "velocity": 40, "note_on_time": 48.38, "note_off_time": 49.397}, {"pitch": 67, "velocity": 40, "note_on_time": 48.38, "note_off_time": 49.398}, {"pitch": 79, "velocity": 40, "note_on_time": 50.404, "note_off_time": 51.418}, {"pitch": 60, "velocity": 40, "note_on_time": 56.43, "note_off_time": 57.448}, {"pitch": 64, "velocity": 40, "note_on_time": 56.432, "note_off_time": 57.449}, {"pitch": 67, "velocity": 40, "note_on_time": 56.432, "note_off_time": 57.45}, {"pitch": 74, "velocity": 40, "note_on_time": 58.458, "note_off_time": 59.473}, {"pitch": 60, "velocity": 40, "note_on_time": 64.485, "note_off_time": 65.491}, {"pitch": 64, "velocity": 40, "note_on_time": 64.486, "note_off_time": 65.491}, {"pitch": 67, "velocity": 40, "note_on_time": 64.486, "note_off_time": 65.492}, {"pitch": 72, "velocity": 40, "note_on_time": 66.494, "note_off_time": 67.497}, {"pitch": 60, "velocity": 40, "note_on_time": 72.509, "note_off_time": 73.513}, {"pitch": 64, "velocity": 40, "note_on_time": 72.509, "note_off_time": 73.514}, {"pitch": 67, "velocity": 40, "note_on_time": 72.51, "note_off_time": 73.515}, {"pitch": 76, "velocity": 40, "note_on_time": 74.529, "note_off_time": 75.535}, {"pitch": 60, "velocity": 40, "note_on_time": 80.543, "note_off_time": 81.553}, {"pitch": 64, "velocity": 40, "note_on_time": 80.544, "note_off_time": 81.555}, {"pitch": 67, "velocity": 40, "note_on_time": 80.544, "note_off_time": 81.555}, {"pitch": 72, "velocity": 40, "note_on_time": 82.563, "note_off_time": 83.578}, {"pitch": 60, "velocity": 40, "note_on_time": 88.586, "note_off_time": 89.596}, {"pitch": 64, "velocity": 40, "note_on_time": 88.587, "note_off_time": 89.597}, {"pitch": 67, "velocity": 40, "note_on_time": 88.588, "note_off_time": 89.598}, {"pitch": 79, "velocity": 40, "note_on_time": 90.6, "note_off_time": 91.616}, {"pitch": 60, "velocity": 40, "note_on_time": 96.63, "note_off_time": 97.646}, {"pitch": 64, "velocity": 40, "note_on_time": 96.631, "note_off_time": 97.647}, {"pitch": 67, "velocity": 40, "note_on_time": 96.631, "note_off_time": 97.648}, {"pitch": 76, "velocity": 40, "note_on_time": 98.659, "note_off_time": 99.666}, {"pitch": 60, "velocity": 40, "note_on_time": 104.678, "note_off_time": 105.682}, {"pitch": 64, "velocity": 40, "note_on_time": 104.68, "note_off_time": 105.682}, {"pitch": 67, "velocity": 40, "note_on_time": 104.68, "note_off_time": 105.683}, {"pitch": 77, "velocity": 40, "note_on_time": 106.695, "note_off_time": 107.71}, {"pitch": 60, "velocity": 40, "note_on_time": 112.713, "note_off_time": 113.729}, {"pitch": 64, "velocity": 40, "note_on_time": 112.714, "note_off_time": 113.729}, {"pitch": 67, "velocity": 40, "note_on_time": 112.715, "note_off_time": 113.73}, {"pitch": 76, "velocity": 40, "note_on_time": 114.732, "note_off_time": 115.745}, {"pitch": 60, "velocity": 40, "note_on_time": 120.755, "note_off_time": 121.758}, {"pitch": 64, "velocity": 40, "note_on_time": 120.756, "note_off_time": 121.759}, {"pitch": 67, "velocity": 40, "note_on_time": 120.757, "note_off_time": 121.76}, {"pitch": 74, "velocity": 40, "note_on_time": 122.771, "note_off_time": 123.781}, {"pitch": 60, "velocity": 40, "note_on_time": 128.788, "note_off_time": 129.793}, {"pitch": 64, "velocity": 40, "note_on_time": 128.789, "note_off_time": 129.793}, {"pitch": 67, "velocity": 40, "note_on_time": 128.789, "note_off_time": 129.794}, {"pitch": 76, "velocity": 40, "note_on_time": 130.8, "note_off_time": 131.807}, {"pitch": 60, "velocity": 40, "note_on_time": 136.815, "note_off_time": 137.824}, {"pitch": 64, "velocity": 40, "note_on_time": 136.816, "note_off_time": 137.824}, {"pitch": 67, "velocity": 40, "note_on_time": 136.816, "note_off_time": 137.825}, {"pitch": 74, "velocity": 40, "note_on_time": 138.836, "note_off_time": 139.85}, {"pitch": 60, "velocity": 40, "note_on_time": 144.86, "note_off_time": 145.867}, {"pitch": 64, "velocity": 40, "note_on_time": 144.861, "note_off_time": 145.868}, {"pitch": 67, "velocity": 40, "note_on_time": 144.861, "note_off_time": 145.869}, {"pitch": 77, "velocity": 40, "note_on_time": 146.882, "note_off_time": 147.89}, {"pitch": 60, "velocity": 40, "note_on_time": 152.902, "note_off_time": 153.914}, {"pitch": 64, "velocity": 40, "note_on_time": 152.903, "note_off_time": 153.915}, {"pitch": 67, "velocity": 40, "note_on_time": 152.904, "note_off_time": 153.915}, {"pitch": 79, "velocity": 40, "note_on_time": 154.917, "note_off_time": 155.92}, {"pitch": 60, "velocity": 40, "note_on_time": 160.927, "note_off_time": 161.93}, {"pitch": 64, "velocity": 40, "note_on_time": 160.927, "note_off_time": 161.93}, {"pitch": 67, "velocity": 40, "note_on_time": 160.927, "note_off_time": 161.93}, {"pitch": 72, "velocity": 40, "note_on_time": 162.94, "note_off_time": 163.95}]</notes><options name="Option List">((4, 4), [0.5, 0.25], 3, 8, &lt;NoteRangePerHand.TWO_NOTES: 3&gt;, &lt;NoteRangePerHand.ONE_NOTE: 2&gt;, False, True, True, 100)</options></target_notes><trials><trial trial_no="1" timestamp="2024_02_26-13_26_19"><notes name="Played Notes">[{"pitch": 74, "velocity": 55, "note_on_time": 4.095, "note_off_time": 4.372}, {"pitch": 72, "velocity": 70, "note_on_time": 4.668, "note_off_time": 5.454}, {"pitch": 77, "velocity": 62, "note_on_time": 11.596, "note_off_time": 12.059}, {"pitch": 72, "velocity": 41, "note_on_time": 20.036, "note_off_time": 20.403}, {"pitch": 76, "velocity": 49, "note_on_time": 27.794, "note_off_time": 28.165}, {"pitch": 77, "velocity": 72, "note_on_time": 28.531, "note_off_time": 29.054}, {"pitch": 74, "velocity": 14, "note_on_time": 36.334, "note_off_time": 36.615}, {"pitch": 76, "velocity": 90, "note_on_time": 36.72, "note_off_time": 37.117}, {"pitch": 77, "velocity": 63, "note_on_time": 38.265, "note_off_time": 38.723}, {"pitch": 79, "velocity": 79, "note_on_time": 38.983, "note_off_time": 39.466}, {"pitch": 74, "velocity": 79, "note_on_time": 43.905, "note_off_time": 44.261}, {"pitch": 72, "velocity": 62, "note_on_time": 52.905, "note_off_time": 53.203}, {"pitch": 74, "velocity": 86, "note_on_time": 53.333, "note_off_time": 53.651}, {"pitch": 76, "velocity": 80, "note_on_time": 54.557, "note_off_time": 54.83}, {"pitch": 77, "velocity": 65, "note_on_time": 55.029, "note_off_time": 55.272}, {"pitch": 79, "velocity": 81, "note_on_time": 55.473, "note_off_time": 56.011}, {"pitch": 74, "velocity": 76, "note_on_time": 60.6, "note_off_time": 61.082}, {"pitch": 72, "velocity": 50, "note_on_time": 68.092, "note_off_time": 68.409}, {"pitch": 76, "velocity": 68, "note_on_time": 75.971, "note_off_time": 76.274}, {"pitch": 74, "velocity": 55, "note_on_time": 84.721, "note_off_time": 85.084}, {"pitch": 72, "velocity": 49, "note_on_time": 85.357, "note_off_time": 86.071}, {"pitch": 77, "velocity": 59, "note_on_time": 92.826, "note_off_time": 93.34}, {"pitch": 79, "velocity": 82, "note_on_time": 93.596, "note_off_time": 94.23}, {"pitch": 74, "velocity": 72, "note_on_time": 100.242, "note_off_time": 100.609}, {"pitch": 76, "velocity": 82, "note_on_time": 100.777, "note_off_time": 101.533}, {"pitch": 74, "velocity": 68, "note_on_time": 108.036, "note_off_time": 108.337}, {"pitch": 76, "velocity": 80, "note_on_time": 108.889, "note_off_time": 109.235}, {"pitch": 77, "velocity": 63, "note_on_time": 109.561, "note_off_time": 109.729}, {"pitch": 79, "velocity": 57, "note_on_time": 109.879, "note_off_time": 109.962}, {"pitch": 77, "velocity": 65, "note_on_time": 110.797, "note_off_time": 111.639}, {"pitch": 76, "velocity": 67, "note_on_time": 117.585, "note_off_time": 118.041}, {"pitch": 74, "velocity": 74, "note_on_time": 125.18, "note_off_time": 125.571}, {"pitch": 74, "velocity": 65, "note_on_time": 132.954, "note_off_time": 133.235}, {"pitch": 72, "velocity": 77, "note_on_time": 133.43, "note_off_time": 133.741}, {"pitch": 76, "velocity": 72, "note_on_time": 135.525, "note_off_time": 136.158}, {"pitch": 72, "velocity": 54, "note_on_time": 140.377, "note_off_time": 140.799}, {"pitch": 74, "velocity": 88, "note_on_time": 140.964, "note_off_time": 141.388}, {"pitch": 77, "velocity": 59, "note_on_time": 148.215, "note_off_time": 148.548}, {"pitch": 79, "velocity": 64, "note_on_time": 157.983, "note_off_time": 158.235}]</notes><guidance name="Guidance Mode">None</guidance><error name="Error value">99</error></trial></trials></MIDI>