<MIDI midiNo="2024_02_26-13_13_57"><target_notes><notes name="Note List">[{"pitch": 60, "velocity": 40, "note_on_time": 0.013, "note_off_time": 1.019}, {"pitch": 64, "velocity": 40, "note_on_time": 0.013, "note_off_time": 1.02}, {"pitch": 67, "velocity": 40, "note_on_time": 0.013, "note_off_time": 1.02}, {"pitch": 48, "velocity": 40, "note_on_time": 0.013, "note_off_time": 1.021}, {"pitch": 52, "velocity": 40, "note_on_time": 1.021, "note_off_time": 2.025}, {"pitch": 55, "velocity": 40, "note_on_time": 1.021, "note_off_time": 2.025}, {"pitch": 79, "velocity": 40, "note_on_time": 2.024, "note_off_time": 3.026}, {"pitch": 48, "velocity": 40, "note_on_time": 2.025, "note_off_time": 3.026}, {"pitch": 52, "velocity": 40, "note_on_time": 3.026, "note_off_time": 4.042}, {"pitch": 55, "velocity": 40, "note_on_time": 3.026, "note_off_time": 4.042}, {"pitch": 48, "velocity": 40, "note_on_time": 4.042, "note_off_time": 5.051}, {"pitch": 52, "velocity": 40, "note_on_time": 5.051, "note_off_time": 6.054}, {"pitch": 55, "velocity": 40, "note_on_time": 5.051, "note_off_time": 6.054}, {"pitch": 48, "velocity": 40, "note_on_time": 6.054, "note_off_time": 7.059}, {"pitch": 52, "velocity": 40, "note_on_time": 7.059, "note_off_time": 8.07}, {"pitch": 55, "velocity": 40, "note_on_time": 7.059, "note_off_time": 8.07}, {"pitch": 60, "velocity": 40, "note_on_time": 8.068, "note_off_time": 9.073}, {"pitch": 64, "velocity": 40, "note_on_time": 8.069, "note_off_time": 9.074}, {"pitch": 67, "velocity": 40, "note_on_time": 8.069, "note_off_time": 9.075}, {"pitch": 48, "velocity": 40, "note_on_time": 8.07, "note_off_time": 9.076}, {"pitch": 52, "velocity": 40, "note_on_time": 9.076, "note_off_time": 10.077}, {"pitch": 55, "velocity": 40, "note_on_time": 9.076, "note_off_time": 10.077}, {"pitch": 74, "velocity": 40, "note_on_time": 10.077, "note_off_time": 11.083}, {"pitch": 48, "velocity": 40, "note_on_time": 10.077, "note_off_time": 11.084}, {"pitch": 52, "velocity": 40, "note_on_time": 11.084, "note_off_time": 12.1}, {"pitch": 55, "velocity": 40, "note_on_time": 11.084, "note_off_time": 12.1}, {"pitch": 48, "velocity": 40, "note_on_time": 12.1, "note_off_time": 13.102}, {"pitch": 52, "velocity": 40, "note_on_time": 13.102, "note_off_time": 14.107}, {"pitch": 55, "velocity": 40, "note_on_time": 13.102, "note_off_time": 14.107}, {"pitch": 48, "velocity": 40, "note_on_time": 14.107, "note_off_time": 15.121}, {"pitch": 52, "velocity": 40, "note_on_time": 15.121, "note_off_time": 16.127}, {"pitch": 55, "velocity": 40, "note_on_time": 15.121, "note_off_time": 16.127}, {"pitch": 60, "velocity": 40, "note_on_time": 16.126, "note_off_time": 17.129}, {"pitch": 64, "velocity": 40, "note_on_time": 16.126, "note_off_time": 17.13}, {"pitch": 67, "velocity": 40, "note_on_time": 16.127, "note_off_time": 17.131}, {"pitch": 48, "velocity": 40, "note_on_time": 16.127, "note_off_time": 17.131}, {"pitch": 52, "velocity": 40, "note_on_time": 17.131, "note_off_time": 18.136}, {"pitch": 55, "velocity": 40, "note_on_time": 17.131, "note_off_time": 18.136}, {"pitch": 72, "velocity": 40, "note_on_time": 18.136, "note_off_time": 19.152}, {"pitch": 48, "velocity": 40, "note_on_time": 18.136, "note_off_time": 19.152}, {"pitch": 52, "velocity": 40, "note_on_time": 19.152, "note_off_time": 20.154}, {"pitch": 55, "velocity": 40, "note_on_time": 19.152, "note_off_time": 20.154}, {"pitch": 48, "velocity": 40, "note_on_time": 20.154, "note_off_time": 21.16}, {"pitch": 52, "velocity": 40, "note_on_time": 21.16, "note_off_time": 22.165}, {"pitch": 55, "velocity": 40, "note_on_time": 21.16, "note_off_time": 22.165}, {"pitch": 48, "velocity": 40, "note_on_time": 22.165, "note_off_time": 23.179}, {"pitch": 52, "velocity": 40, "note_on_time": 23.179, "note_off_time": 24.197}, {"pitch": 55, "velocity": 40, "note_on_time": 23.179, "note_off_time": 24.197}, {"pitch": 60, "velocity": 40, "note_on_time": 24.196, "note_off_time": 25.205}, {"pitch": 64, "velocity": 40, "note_on_time": 24.196, "note_off_time": 25.206}, {"pitch": 67, "velocity": 40, "note_on_time": 24.197, "note_off_time": 25.206}, {"pitch": 48, "velocity": 40, "note_on_time": 24.197, "note_off_time": 25.206}, {"pitch": 52, "velocity": 40, "note_on_time": 25.206, "note_off_time": 26.214}, {"pitch": 55, "velocity": 40, "note_on_time": 25.207, "note_off_time": 26.214}, {"pitch": 76, "velocity": 40, "note_on_time": 26.214, "note_off_time": 27.216}, {"pitch": 48, "velocity": 40, "note_on_time": 26.214, "note_off_time": 27.216}, {"pitch": 52, "velocity": 40, "note_on_time": 27.216, "note_off_time": 28.228}, {"pitch": 55, "velocity": 40, "note_on_time": 27.216, "note_off_time": 28.228}, {"pitch": 48, "velocity": 40, "note_on_time": 28.228, "note_off_time": 29.244}, {"pitch": 52, "velocity": 40, "note_on_time": 29.244, "note_off_time": 30.25}, {"pitch": 55, "velocity": 40, "note_on_time": 29.244, "note_off_time": 30.25}, {"pitch": 48, "velocity": 40, "note_on_time": 30.25, "note_off_time": 31.255}, {"pitch": 52, "velocity": 40, "note_on_time": 31.255, "note_off_time": 32.264}, {"pitch": 55, "velocity": 40, "note_on_time": 31.255, "note_off_time": 32.264}, {"pitch": 60, "velocity": 40, "note_on_time": 32.262, "note_off_time": 33.266}, {"pitch": 64, "velocity": 40, "note_on_time": 32.263, "note_off_time": 33.266}, {"pitch": 67, "velocity": 40, "note_on_time": 32.263, "note_off_time": 33.267}, {"pitch": 48, "velocity": 40, "note_on_time": 32.264, "note_off_time": 33.267}, {"pitch": 52, "velocity": 40, "note_on_time": 33.267, "note_off_time": 34.281}, {"pitch": 55, "velocity": 40, "note_on_time": 33.268, "note_off_time": 34.282}, {"pitch": 77, "velocity": 40, "note_on_time": 34.281, "note_off_time": 35.292}, {"pitch": 48, "velocity": 40, "note_on_time": 34.282, "note_off_time": 35.292}, {"pitch": 52, "velocity": 40, "note_on_time": 35.292, "note_off_time": 36.304}, {"pitch": 55, "velocity": 40, "note_on_time": 35.292, "note_off_time": 36.304}, {"pitch": 48, "velocity": 40, "note_on_time": 36.304, "note_off_time": 37.308}, {"pitch": 52, "velocity": 40, "note_on_time": 37.308, "note_off_time": 38.322}, {"pitch": 55, "velocity": 40, "note_on_time": 37.308, "note_off_time": 38.322}, {"pitch": 48, "velocity": 40, "note_on_time": 38.322, "note_off_time": 39.326}, {"pitch": 52, "velocity": 40, "note_on_time": 39.326, "note_off_time": 40.333}, {"pitch": 55, "velocity": 40, "note_on_time": 39.326, "note_off_time": 40.333}, {"pitch": 60, "velocity": 40, "note_on_time": 40.332, "note_off_time": 41.338}, {"pitch": 64, "velocity": 40, "note_on_time": 40.333, "note_off_time": 41.339}, {"pitch": 67, "velocity": 40, "note_on_time": 40.333, "note_off_time": 41.34}, {"pitch": 72, "velocity": 40, "note_on_time": 42.343, "note_off_time": 43.357}, {"pitch": 60, "velocity": 40, "note_on_time": 48.368, "note_off_time": 49.377}, {"pitch": 64, "velocity": 40, "note_on_time": 48.369, "note_off_time": 49.377}, {"pitch": 67, "velocity": 40, "note_on_time": 48.37, "note_off_time": 49.378}, {"pitch": 74, "velocity": 40, "note_on_time": 50.387, "note_off_time": 51.39}, {"pitch": 60, "velocity": 40, "note_on_time": 56.401, "note_off_time": 57.415}, {"pitch": 64, "velocity": 40, "note_on_time": 56.401, "note_off_time": 57.416}, {"pitch": 67, "velocity": 40, "note_on_time": 56.402, "note_off_time": 57.417}, {"pitch": 76, "velocity": 40, "note_on_time": 58.423, "note_off_time": 59.435}, {"pitch": 60, "velocity": 40, "note_on_time": 64.447, "note_off_time": 65.464}, {"pitch": 64, "velocity": 40, "note_on_time": 64.448, "note_off_time": 65.464}, {"pitch": 67, "velocity": 40, "note_on_time": 64.449, "note_off_time": 65.465}, {"pitch": 79, "velocity": 40, "note_on_time": 66.475, "note_off_time": 67.477}, {"pitch": 60, "velocity": 40, "note_on_time": 72.49, "note_off_time": 73.499}, {"pitch": 64, "velocity": 40, "note_on_time": 72.491, "note_off_time": 73.499}, {"pitch": 67, "velocity": 40, "note_on_time": 72.491, "note_off_time": 73.499}, {"pitch": 74, "velocity": 40, "note_on_time": 74.504, "note_off_time": 75.51}, {"pitch": 60, "velocity": 40, "note_on_time": 80.525, "note_off_time": 81.528}, {"pitch": 64, "velocity": 40, "note_on_time": 80.525, "note_off_time": 81.529}, {"pitch": 67, "velocity": 40, "note_on_time": 80.526, "note_off_time": 81.53}, {"pitch": 79, "velocity": 40, "note_on_time": 82.533, "note_off_time": 83.537}, {"pitch": 60, "velocity": 40, "note_on_time": 88.552, "note_off_time": 89.559}, {"pitch": 64, "velocity": 40, "note_on_time": 88.553, "note_off_time": 89.56}, {"pitch": 67, "velocity": 40, "note_on_time": 88.554, "note_off_time": 89.561}, {"pitch": 77, "velocity": 40, "note_on_time": 90.566, "note_off_time": 91.578}, {"pitch": 60, "velocity": 40, "note_on_time": 96.583, "note_off_time": 97.594}, {"pitch": 64, "velocity": 40, "note_on_time": 96.583, "note_off_time": 97.594}, {"pitch": 67, "velocity": 40, "note_on_time": 96.584, "note_off_time": 97.595}, {"pitch": 72, "velocity": 40, "note_on_time": 98.608, "note_off_time": 99.623}, {"pitch": 60, "velocity": 40, "note_on_time": 104.625, "note_off_time": 105.629}, {"pitch": 64, "velocity": 40, "note_on_time": 104.626, "note_off_time": 105.63}, {"pitch": 67, "velocity": 40, "note_on_time": 104.626, "note_off_time": 105.63}, {"pitch": 79, "velocity": 40, "note_on_time": 106.633, "note_off_time": 107.635}, {"pitch": 60, "velocity": 40, "note_on_time": 112.638, "note_off_time": 113.645}, {"pitch": 64, "velocity": 40, "note_on_time": 112.639, "note_off_time": 113.646}, {"pitch": 67, "velocity": 40, "note_on_time": 112.64, "note_off_time": 113.647}, {"pitch": 72, "velocity": 40, "note_on_time": 114.648, "note_off_time": 115.662}, {"pitch": 60, "velocity": 40, "note_on_time": 120.676, "note_off_time": 121.68}, {"pitch": 64, "velocity": 40, "note_on_time": 120.677, "note_off_time": 121.681}, {"pitch": 67, "velocity": 40, "note_on_time": 120.678, "note_off_time": 121.682}, {"pitch": 76, "velocity": 40, "note_on_time": 122.695, "note_off_time": 123.702}, {"pitch": 60, "velocity": 40, "note_on_time": 128.716, "note_off_time": 129.723}, {"pitch": 64, "velocity": 40, "note_on_time": 128.716, "note_off_time": 129.723}, {"pitch": 67, "velocity": 40, "note_on_time": 128.717, "note_off_time": 129.724}, {"pitch": 77, "velocity": 40, "note_on_time": 130.726, "note_off_time": 131.73}, {"pitch": 60, "velocity": 40, "note_on_time": 136.745, "note_off_time": 137.762}, {"pitch": 64, "velocity": 40, "note_on_time": 136.746, "note_off_time": 137.763}, {"pitch": 67, "velocity": 40, "note_on_time": 136.747, "note_off_time": 137.763}, {"pitch": 76, "velocity": 40, "note_on_time": 138.778, "note_off_time": 139.79}, {"pitch": 60, "velocity": 40, "note_on_time": 144.805, "note_off_time": 145.815}, {"pitch": 64, "velocity": 40, "note_on_time": 144.805, "note_off_time": 145.816}, {"pitch": 67, "velocity": 40, "note_on_time": 144.806, "note_off_time": 145.816}, {"pitch": 74, "velocity": 40, "note_on_time": 146.83, "note_off_time": 147.846}, {"pitch": 60, "velocity": 40, "note_on_time": 152.856, "note_off_time": 153.867}, {"pitch": 64, "velocity": 40, "note_on_time": 152.857, "note_off_time": 153.868}, {"pitch": 67, "velocity": 40, "note_on_time": 152.858, "note_off_time": 153.869}, {"pitch": 77, "velocity": 40, "note_on_time": 154.883, "note_off_time": 155.886}, {"pitch": 60, "velocity": 40, "note_on_time": 160.901, "note_off_time": 161.919}, {"pitch": 64, "velocity": 40, "note_on_time": 160.902, "note_off_time": 161.919}, {"pitch": 67, "velocity": 40, "note_on_time": 160.902, "note_off_time": 161.92}, {"pitch": 79, "velocity": 40, "note_on_time": 162.924, "note_off_time": 163.94}]</notes><options name="Option List">((4, 4), [0.5, 0.25], 3, 8, &lt;NoteRangePerHand.TWO_NOTES: 3&gt;, &lt;NoteRangePerHand.ONE_NOTE: 2&gt;, False, True, True, 100)</options></target_notes><trials><trial trial_no="1" timestamp="2024_02_26-13_11_13"><notes name="Played Notes">[{"pitch": 76, "velocity": 67, "note_on_time": 4.33, "note_off_time": 4.554}, {"pitch": 74, "velocity": 70, "note_on_time": 6.759, "note_off_time": 6.932}, {"pitch": 77, "velocity": 75, "note_on_time": 7.495, "note_off_time": 7.71}, {"pitch": 79, "velocity": 41, "note_on_time": 10.385, "note_off_time": 10.612}, {"pitch": 72, "velocity": 44, "note_on_time": 13.574, "note_off_time": 13.99}, {"pitch": 74, "velocity": 1, "note_on_time": 21.05, "note_off_time": 21.359}, {"pitch": 74, "velocity": 73, "note_on_time": 21.546, "note_off_time": 21.762}, {"pitch": 77, "velocity": 1, "note_on_time": 24.4, "note_off_time": 24.575}, {"pitch": 79, "velocity": 44, "note_on_time": 28.779, "note_off_time": 29.056}, {"pitch": 72, "velocity": 50, "note_on_time": 31.291, "note_off_time": 31.647}, {"pitch": 74, "velocity": 72, "note_on_time": 37.346, "note_off_time": 37.51}, {"pitch": 72, "velocity": 58, "note_on_time": 38.301, "note_off_time": 38.757}, {"pitch": 76, "velocity": 68, "note_on_time": 39.278, "note_off_time": 39.841}, {"pitch": 72, "velocity": 30, "note_on_time": 44.043, "note_off_time": 44.207}, {"pitch": 72, "velocity": 68, "note_on_time": 44.929, "note_off_time": 45.577}, {"pitch": 74, "velocity": 77, "note_on_time": 53.375, "note_off_time": 53.857}, {"pitch": 76, "velocity": 62, "note_on_time": 59.98, "note_off_time": 60.388}, {"pitch": 77, "velocity": 39, "note_on_time": 67.963, "note_off_time": 68.266}, {"pitch": 79, "velocity": 55, "note_on_time": 68.888, "note_off_time": 69.597}, {"pitch": 74, "velocity": 67, "note_on_time": 75.992, "note_off_time": 76.204}, {"pitch": 76, "velocity": 59, "note_on_time": 84.059, "note_off_time": 84.304}, {"pitch": 77, "velocity": 69, "note_on_time": 84.954, "note_off_time": 85.418}, {"pitch": 79, "velocity": 72, "note_on_time": 85.834, "note_off_time": 86.502}, {"pitch": 74, "velocity": 61, "note_on_time": 92.585, "note_off_time": 93.17}, {"pitch": 76, "velocity": 75, "note_on_time": 93.581, "note_off_time": 94.028}, {"pitch": 72, "velocity": 40, "note_on_time": 100.434, "note_off_time": 100.747}, {"pitch": 77, "velocity": 1, "note_on_time": 108.482, "note_off_time": 108.782}, {"pitch": 77, "velocity": 60, "note_on_time": 109.051, "note_off_time": 109.599}, {"pitch": 79, "velocity": 68, "note_on_time": 109.941, "note_off_time": 110.539}, {"pitch": 72, "velocity": 59, "note_on_time": 116.308, "note_off_time": 116.635}, {"pitch": 76, "velocity": 52, "note_on_time": 124.673, "note_off_time": 124.983}, {"pitch": 74, "velocity": 63, "note_on_time": 132.495, "note_off_time": 132.683}, {"pitch": 76, "velocity": 62, "note_on_time": 133.09, "note_off_time": 133.803}, {"pitch": 77, "velocity": 44, "note_on_time": 136.039, "note_off_time": 136.308}, {"pitch": 77, "velocity": 22, "note_on_time": 140.163, "note_off_time": 140.484}, {"pitch": 76, "velocity": 75, "note_on_time": 140.987, "note_off_time": 141.66}, {"pitch": 74, "velocity": 72, "note_on_time": 148.419, "note_off_time": 148.767}, {"pitch": 76, "velocity": 66, "note_on_time": 157.3, "note_off_time": 157.56}, {"pitch": 77, "velocity": 71, "note_on_time": 158.132, "note_off_time": 158.803}]</notes><guidance name="Guidance Mode">None</guidance><error name="Error value">99</error></trial><trial trial_no="2" timestamp="2024_02_26-13_15_20"><notes name="Played Notes">[{"pitch": 72, "velocity": 12, "note_on_time": 2.543, "note_off_time": 2.933}, {"pitch": 74, "velocity": 61, "note_on_time": 2.998, "note_off_time": 3.365}, {"pitch": 76, "velocity": 70, "note_on_time": 3.337, "note_off_time": 3.691}, {"pitch": 77, "velocity": 72, "note_on_time": 3.657, "note_off_time": 4.054}, {"pitch": 79, "velocity": 79, "note_on_time": 3.997, "note_off_time": 5.101}, {"pitch": 77, "velocity": 54, "note_on_time": 4.694, "note_off_time": 5.276}, {"pitch": 79, "velocity": 77, "note_on_time": 5.48, "note_off_time": 6.483}, {"pitch": 76, "velocity": 55, "note_on_time": 5.973, "note_off_time": 6.539}, {"pitch": 74, "velocity": 60, "note_on_time": 6.46, "note_off_time": 7.109}, {"pitch": 76, "velocity": 67, "note_on_time": 6.96, "note_off_time": 7.464}, {"pitch": 77, "velocity": 71, "note_on_time": 7.398, "note_off_time": 8.227}, {"pitch": 77, "velocity": 69, "note_on_time": 8.53, "note_off_time": 9.32}, {"pitch": 72, "velocity": 62, "note_on_time": 8.89, "note_off_time": 9.363}, {"pitch": 76, "velocity": 69, "note_on_time": 9.279, "note_off_time": 9.51}, {"pitch": 74, "velocity": 63, "note_on_time": 9.27, "note_off_time": 9.676}, {"pitch": 76, "velocity": 66, "note_on_time": 9.604, "note_off_time": 9.855}, {"pitch": 72, "velocity": 54, "note_on_time": 10.179, "note_off_time": 10.614}, {"pitch": 74, "velocity": 66, "note_on_time": 10.469, "note_off_time": 10.797}, {"pitch": 76, "velocity": 74, "note_on_time": 10.72, "note_off_time": 11.038}, {"pitch": 77, "velocity": 64, "note_on_time": 10.993, "note_off_time": 11.557}, {"pitch": 79, "velocity": 53, "note_on_time": 11.422, "note_off_time": 11.88}, {"pitch": 76, "velocity": 91, "note_on_time": 12.416, "note_off_time": 12.73}, {"pitch": 76, "velocity": 88, "note_on_time": 12.976, "note_off_time": 13.31}, {"pitch": 76, "velocity": 89, "note_on_time": 13.574, "note_off_time": 13.867}, {"pitch": 72, "velocity": 73, "note_on_time": 13.848, "note_off_time": 14.087}, {"pitch": 76, "velocity": 93, "note_on_time": 14.119, "note_off_time": 14.477}, {"pitch": 76, "velocity": 88, "note_on_time": 14.639, "note_off_time": 14.892}, {"pitch": 76, "velocity": 84, "note_on_time": 15.133, "note_off_time": 15.411}, {"pitch": 72, "velocity": 82, "note_on_time": 15.402, "note_off_time": 15.67}, {"pitch": 76, "velocity": 87, "note_on_time": 15.651, "note_off_time": 16.205}, {"pitch": 79, "velocity": 93, "note_on_time": 16.142, "note_off_time": 16.6}, {"pitch": 79, "velocity": 27, "note_on_time": 16.671, "note_off_time": 16.71}, {"pitch": 79, "velocity": 87, "note_on_time": 16.813, "note_off_time": 17.25}, {"pitch": 79, "velocity": 80, "note_on_time": 17.418, "note_off_time": 17.729}, {"pitch": 77, "velocity": 87, "note_on_time": 17.644, "note_off_time": 18.025}, {"pitch": 76, "velocity": 79, "note_on_time": 17.972, "note_off_time": 18.405}, {"pitch": 76, "velocity": 71, "note_on_time": 18.524, "note_off_time": 18.767}, {"pitch": 76, "velocity": 68, "note_on_time": 18.988, "note_off_time": 19.209}, {"pitch": 76, "velocity": 55, "note_on_time": 19.428, "note_off_time": 19.802}, {"pitch": 76, "velocity": 72, "note_on_time": 20.151, "note_off_time": 20.501}, {"pitch": 77, "velocity": 76, "note_on_time": 20.472, "note_off_time": 20.825}, {"pitch": 74, "velocity": 93, "note_on_time": 20.793, "note_off_time": 21.118}, {"pitch": 74, "velocity": 85, "note_on_time": 21.316, "note_off_time": 21.55}, {"pitch": 74, "velocity": 85, "note_on_time": 21.823, "note_off_time": 22.054}, {"pitch": 76, "velocity": 75, "note_on_time": 22.333, "note_off_time": 22.607}, {"pitch": 72, "velocity": 82, "note_on_time": 22.585, "note_off_time": 22.876}, {"pitch": 74, "velocity": 94, "note_on_time": 22.838, "note_off_time": 23.278}, {"pitch": 72, "velocity": 94, "note_on_time": 23.255, "note_off_time": 23.828}, {"pitch": 74, "velocity": 90, "note_on_time": 23.808, "note_off_time": 24.192}, {"pitch": 74, "velocity": 88, "note_on_time": 24.335, "note_off_time": 24.482}, {"pitch": 74, "velocity": 81, "note_on_time": 24.833, "note_off_time": 25.172}, {"pitch": 77, "velocity": 80, "note_on_time": 25.14, "note_off_time": 25.414}, {"pitch": 76, "velocity": 89, "note_on_time": 25.391, "note_off_time": 25.71}, {"pitch": 76, "velocity": 92, "note_on_time": 25.876, "note_off_time": 26.078}, {"pitch": 76, "velocity": 93, "note_on_time": 26.33, "note_off_time": 26.557}, {"pitch": 76, "velocity": 88, "note_on_time": 26.803, "note_off_time": 27.074}, {"pitch": 77, "velocity": 85, "note_on_time": 27.031, "note_off_time": 27.518}, {"pitch": 74, "velocity": 94, "note_on_time": 27.427, "note_off_time": 27.802}, {"pitch": 74, "velocity": 81, "note_on_time": 27.913, "note_off_time": 28.214}, {"pitch": 74, "velocity": 84, "note_on_time": 28.408, "note_off_time": 28.67}, {"pitch": 72, "velocity": 79, "note_on_time": 28.957, "note_off_time": 29.278}, {"pitch": 76, "velocity": 95, "note_on_time": 29.242, "note_off_time": 29.577}, {"pitch": 77, "velocity": 91, "note_on_time": 29.533, "note_off_time": 29.93}, {"pitch": 77, "velocity": 93, "note_on_time": 30.077, "note_off_time": 30.31}, {"pitch": 77, "velocity": 83, "note_on_time": 30.552, "note_off_time": 30.79}, {"pitch": 79, "velocity": 73, "note_on_time": 31.015, "note_off_time": 31.368}, {"pitch": 76, "velocity": 78, "note_on_time": 31.301, "note_off_time": 31.486}, {"pitch": 74, "velocity": 78, "note_on_time": 31.311, "note_off_time": 32.007}, {"pitch": 79, "velocity": 70, "note_on_time": 32.271, "note_off_time": 32.562}, {"pitch": 74, "velocity": 80, "note_on_time": 32.479, "note_off_time": 32.956}, {"pitch": 76, "velocity": 91, "note_on_time": 33.279, "note_off_time": 33.452}, {"pitch": 76, "velocity": 90, "note_on_time": 33.681, "note_off_time": 33.948}, {"pitch": 72, "velocity": 85, "note_on_time": 34.215, "note_off_time": 34.863}, {"pitch": 72, "velocity": 76, "note_on_time": 35.142, "note_off_time": 35.393}, {"pitch": 74, "velocity": 99, "note_on_time": 35.361, "note_off_time": 35.776}, {"pitch": 76, "velocity": 84, "note_on_time": 35.745, "note_off_time": 36.086}, {"pitch": 77, "velocity": 75, "note_on_time": 36.029, "note_off_time": 36.501}, {"pitch": 79, "velocity": 73, "note_on_time": 36.37, "note_off_time": 36.687}, {"pitch": 79, "velocity": 83, "note_on_time": 36.888, "note_off_time": 37.301}, {"pitch": 76, "velocity": 86, "note_on_time": 37.233, "note_off_time": 37.857}, {"pitch": 72, "velocity": 71, "note_on_time": 37.835, "note_off_time": 38.3}, {"pitch": 72, "velocity": 95, "note_on_time": 38.78, "note_off_time": 39.199}, {"pitch": 74, "velocity": 84, "note_on_time": 39.142, "note_off_time": 39.386}, {"pitch": 72, "velocity": 87, "note_on_time": 39.8, "note_off_time": 40.094}, {"pitch": 74, "velocity": 96, "note_on_time": 40.061, "note_off_time": 40.448}, {"pitch": 77, "velocity": 80, "note_on_time": 40.773, "note_off_time": 41.595}, {"pitch": 74, "velocity": 93, "note_on_time": 41.541, "note_off_time": 42.119}, {"pitch": 74, "velocity": 88, "note_on_time": 42.373, "note_off_time": 42.833}, {"pitch": 79, "velocity": 77, "note_on_time": 42.799, "note_off_time": 43.16}, {"pitch": 74, "velocity": 86, "note_on_time": 43.092, "note_off_time": 43.817}, {"pitch": 72, "velocity": 75, "note_on_time": 43.803, "note_off_time": 44.247}, {"pitch": 72, "velocity": 67, "note_on_time": 44.452, "note_off_time": 44.779}, {"pitch": 76, "velocity": 68, "note_on_time": 44.761, "note_off_time": 45.143}, {"pitch": 77, "velocity": 71, "note_on_time": 45.097, "note_off_time": 45.572}, {"pitch": 77, "velocity": 79, "note_on_time": 45.688, "note_off_time": 46.029}, {"pitch": 77, "velocity": 83, "note_on_time": 46.252, "note_off_time": 46.603}, {"pitch": 77, "velocity": 78, "note_on_time": 46.79, "note_off_time": 47.333}, {"pitch": 74, "velocity": 3, "note_on_time": 47.162, "note_off_time": 47.52}, {"pitch": 72, "velocity": 69, "note_on_time": 47.729, "note_off_time": 48.023}, {"pitch": 72, "velocity": 72, "note_on_time": 48.265, "note_off_time": 48.567}, {"pitch": 72, "velocity": 78, "note_on_time": 48.84, "note_off_time": 49.142}, {"pitch": 74, "velocity": 89, "note_on_time": 49.094, "note_off_time": 49.343}, {"pitch": 76, "velocity": 90, "note_on_time": 49.306, "note_off_time": 49.634}, {"pitch": 77, "velocity": 79, "note_on_time": 49.591, "note_off_time": 49.827}, {"pitch": 79, "velocity": 67, "note_on_time": 49.787, "note_off_time": 50.114}, {"pitch": 77, "velocity": 82, "note_on_time": 50.24, "note_off_time": 50.403}, {"pitch": 77, "velocity": 67, "note_on_time": 50.514, "note_off_time": 50.589}, {"pitch": 77, "velocity": 74, "note_on_time": 50.73, "note_off_time": 50.885}, {"pitch": 77, "velocity": 81, "note_on_time": 51.211, "note_off_time": 51.306}, {"pitch": 77, "velocity": 82, "note_on_time": 51.465, "note_off_time": 51.555}, {"pitch": 77, "velocity": 66, "note_on_time": 52.449, "note_off_time": 53.083}, {"pitch": 74, "velocity": 75, "note_on_time": 53.018, "note_off_time": 53.526}, {"pitch": 74, "velocity": 74, "note_on_time": 54.05, "note_off_time": 54.597}, {"pitch": 76, "velocity": 79, "note_on_time": 54.538, "note_off_time": 54.944}, {"pitch": 77, "velocity": 72, "note_on_time": 54.867, "note_off_time": 55.092}, {"pitch": 79, "velocity": 64, "note_on_time": 55.113, "note_off_time": 55.291}, {"pitch": 81, "velocity": 50, "note_on_time": 55.691, "note_off_time": 55.796}, {"pitch": 79, "velocity": 52, "note_on_time": 55.687, "note_off_time": 56.354}, {"pitch": 76, "velocity": 76, "note_on_time": 56.268, "note_off_time": 56.861}, {"pitch": 72, "velocity": 51, "note_on_time": 56.738, "note_off_time": 57.154}, {"pitch": 72, "velocity": 67, "note_on_time": 57.378, "note_off_time": 57.981}, {"pitch": 76, "velocity": 88, "note_on_time": 57.86, "note_off_time": 58.398}, {"pitch": 79, "velocity": 82, "note_on_time": 58.322, "note_off_time": 58.845}, {"pitch": 76, "velocity": 87, "note_on_time": 58.787, "note_off_time": 59.266}, {"pitch": 72, "velocity": 67, "note_on_time": 59.197, "note_off_time": 59.776}, {"pitch": 72, "velocity": 73, "note_on_time": 60.093, "note_off_time": 60.467}, {"pitch": 72, "velocity": 80, "note_on_time": 60.769, "note_off_time": 61.092}, {"pitch": 72, "velocity": 73, "note_on_time": 61.47, "note_off_time": 61.777}, {"pitch": 74, "velocity": 92, "note_on_time": 61.754, "note_off_time": 62.092}, {"pitch": 76, "velocity": 93, "note_on_time": 62.056, "note_off_time": 62.428}, {"pitch": 76, "velocity": 82, "note_on_time": 62.652, "note_off_time": 62.979}, {"pitch": 76, "velocity": 80, "note_on_time": 63.246, "note_off_time": 63.563}, {"pitch": 76, "velocity": 78, "note_on_time": 63.806, "note_off_time": 64.121}, {"pitch": 74, "velocity": 89, "note_on_time": 64.071, "note_off_time": 64.398}, {"pitch": 72, "velocity": 1, "note_on_time": 64.833, "note_off_time": 65.271}, {"pitch": 72, "velocity": 59, "note_on_time": 65.546, "note_off_time": 65.823}, {"pitch": 72, "velocity": 62, "note_on_time": 66.103, "note_off_time": 66.364}, {"pitch": 72, "velocity": 73, "note_on_time": 66.676, "note_off_time": 66.94}, {"pitch": 76, "velocity": 81, "note_on_time": 67.311, "note_off_time": 67.629}, {"pitch": 77, "velocity": 67, "note_on_time": 67.605, "note_off_time": 67.967}, {"pitch": 79, "velocity": 80, "note_on_time": 67.921, "note_off_time": 68.316}, {"pitch": 79, "velocity": 74, "note_on_time": 68.503, "note_off_time": 68.781}, {"pitch": 79, "velocity": 75, "note_on_time": 69.029, "note_off_time": 69.317}, {"pitch": 79, "velocity": 74, "note_on_time": 69.579, "note_off_time": 70.261}, {"pitch": 77, "velocity": 86, "note_on_time": 70.209, "note_off_time": 70.525}, {"pitch": 76, "velocity": 92, "note_on_time": 70.48, "note_off_time": 70.826}, {"pitch": 76, "velocity": 91, "note_on_time": 71.011, "note_off_time": 71.271}, {"pitch": 76, "velocity": 85, "note_on_time": 71.483, "note_off_time": 71.796}, {"pitch": 76, "velocity": 74, "note_on_time": 72.0, "note_off_time": 72.317}, {"pitch": 76, "velocity": 82, "note_on_time": 72.492, "note_off_time": 72.921}, {"pitch": 72, "velocity": 73, "note_on_time": 72.898, "note_off_time": 73.112}, {"pitch": 76, "velocity": 91, "note_on_time": 73.144, "note_off_time": 73.668}, {"pitch": 79, "velocity": 82, "note_on_time": 73.608, "note_off_time": 73.997}, {"pitch": 76, "velocity": 83, "note_on_time": 74.082, "note_off_time": 74.282}, {"pitch": 76, "velocity": 91, "note_on_time": 74.571, "note_off_time": 74.793}, {"pitch": 76, "velocity": 82, "note_on_time": 75.02, "note_off_time": 75.278}, {"pitch": 76, "velocity": 83, "note_on_time": 75.505, "note_off_time": 75.763}, {"pitch": 77, "velocity": 88, "note_on_time": 75.739, "note_off_time": 76.066}, {"pitch": 74, "velocity": 89, "note_on_time": 76.013, "note_off_time": 76.317}, {"pitch": 74, "velocity": 90, "note_on_time": 76.493, "note_off_time": 76.78}, {"pitch": 74, "velocity": 77, "note_on_time": 76.997, "note_off_time": 77.23}, {"pitch": 74, "velocity": 73, "note_on_time": 77.449, "note_off_time": 77.721}, {"pitch": 76, "velocity": 84, "note_on_time": 77.694, "note_off_time": 77.976}, {"pitch": 77, "velocity": 84, "note_on_time": 77.937, "note_off_time": 78.26}, {"pitch": 77, "velocity": 89, "note_on_time": 78.421, "note_off_time": 78.625}, {"pitch": 77, "velocity": 86, "note_on_time": 78.888, "note_off_time": 79.111}, {"pitch": 77, "velocity": 86, "note_on_time": 79.338, "note_off_time": 80.021}, {"pitch": 72, "velocity": 73, "note_on_time": 79.78, "note_off_time": 80.146}, {"pitch": 72, "velocity": 80, "note_on_time": 80.292, "note_off_time": 80.496}, {"pitch": 72, "velocity": 86, "note_on_time": 80.712, "note_off_time": 80.946}, {"pitch": 72, "velocity": 80, "note_on_time": 81.176, "note_off_time": 81.557}, {"pitch": 76, "velocity": 73, "note_on_time": 81.499, "note_off_time": 81.824}, {"pitch": 77, "velocity": 87, "note_on_time": 81.781, "note_off_time": 82.089}, {"pitch": 77, "velocity": 79, "note_on_time": 82.278, "note_off_time": 82.508}, {"pitch": 77, "velocity": 76, "note_on_time": 82.738, "note_off_time": 83.009}, {"pitch": 77, "velocity": 94, "note_on_time": 83.51, "note_off_time": 83.89}, {"pitch": 74, "velocity": 91, "note_on_time": 83.8, "note_off_time": 84.208}, {"pitch": 76, "velocity": 90, "note_on_time": 84.149, "note_off_time": 84.597}, {"pitch": 76, "velocity": 80, "note_on_time": 84.706, "note_off_time": 84.992}, {"pitch": 76, "velocity": 85, "note_on_time": 85.173, "note_off_time": 85.478}, {"pitch": 76, "velocity": 88, "note_on_time": 85.682, "note_off_time": 86.046}, {"pitch": 72, "velocity": 93, "note_on_time": 86.0, "note_off_time": 86.297}, {"pitch": 74, "velocity": 99, "note_on_time": 86.267, "note_off_time": 86.653}, {"pitch": 74, "velocity": 81, "note_on_time": 86.764, "note_off_time": 86.986}, {"pitch": 74, "velocity": 90, "note_on_time": 87.207, "note_off_time": 87.352}, {"pitch": 74, "velocity": 49, "note_on_time": 87.687, "note_off_time": 88.2}, {"pitch": 76, "velocity": 72, "note_on_time": 88.143, "note_off_time": 88.687}, {"pitch": 79, "velocity": 64, "note_on_time": 88.652, "note_off_time": 89.425}, {"pitch": 79, "velocity": 94, "note_on_time": 89.769, "note_off_time": 90.197}, {"pitch": 76, "velocity": 60, "note_on_time": 90.096, "note_off_time": 90.723}, {"pitch": 72, "velocity": 70, "note_on_time": 90.639, "note_off_time": 91.051}, {"pitch": 72, "velocity": 90, "note_on_time": 91.256, "note_off_time": 91.478}, {"pitch": 72, "velocity": 94, "note_on_time": 91.803, "note_off_time": 92.044}, {"pitch": 72, "velocity": 88, "note_on_time": 92.294, "note_off_time": 92.606}, {"pitch": 72, "velocity": 85, "note_on_time": 92.82, "note_off_time": 93.186}, {"pitch": 76, "velocity": 89, "note_on_time": 93.144, "note_off_time": 93.446}, {"pitch": 77, "velocity": 81, "note_on_time": 93.399, "note_off_time": 93.73}, {"pitch": 77, "velocity": 86, "note_on_time": 93.889, "note_off_time": 94.165}, {"pitch": 77, "velocity": 70, "note_on_time": 94.386, "note_off_time": 94.696}, {"pitch": 77, "velocity": 68, "note_on_time": 94.966, "note_off_time": 95.281}, {"pitch": 76, "velocity": 84, "note_on_time": 95.226, "note_off_time": 95.556}, {"pitch": 74, "velocity": 92, "note_on_time": 95.509, "note_off_time": 95.862}, {"pitch": 74, "velocity": 81, "note_on_time": 95.996, "note_off_time": 96.301}, {"pitch": 74, "velocity": 83, "note_on_time": 96.542, "note_off_time": 96.825}, {"pitch": 74, "velocity": 79, "note_on_time": 97.05, "note_off_time": 97.382}, {"pitch": 76, "velocity": 68, "note_on_time": 97.279, "note_off_time": 97.596}, {"pitch": 77, "velocity": 82, "note_on_time": 97.553, "note_off_time": 97.897}, {"pitch": 77, "velocity": 77, "note_on_time": 98.058, "note_off_time": 98.298}, {"pitch": 77, "velocity": 77, "note_on_time": 98.496, "note_off_time": 98.727}, {"pitch": 77, "velocity": 64, "note_on_time": 98.981, "note_off_time": 99.476}, {"pitch": 76, "velocity": 84, "note_on_time": 99.305, "note_off_time": 99.698}, {"pitch": 74, "velocity": 94, "note_on_time": 99.658, "note_off_time": 100.149}, {"pitch": 74, "velocity": 74, "note_on_time": 100.249, "note_off_time": 100.575}, {"pitch": 74, "velocity": 72, "note_on_time": 101.665, "note_off_time": 101.877}, {"pitch": 74, "velocity": 69, "note_on_time": 102.107, "note_off_time": 102.332}, {"pitch": 74, "velocity": 70, "note_on_time": 102.669, "note_off_time": 102.948}, {"pitch": 74, "velocity": 69, "note_on_time": 103.244, "note_off_time": 103.616}, {"pitch": 74, "velocity": 76, "note_on_time": 103.889, "note_off_time": 104.453}, {"pitch": 76, "velocity": 86, "note_on_time": 104.454, "note_off_time": 104.688}, {"pitch": 76, "velocity": 72, "note_on_time": 104.934, "note_off_time": 105.141}, {"pitch": 76, "velocity": 76, "note_on_time": 105.351, "note_off_time": 105.919}, {"pitch": 77, "velocity": 87, "note_on_time": 105.882, "note_off_time": 106.45}, {"pitch": 74, "velocity": 66, "note_on_time": 106.311, "note_off_time": 106.695}, {"pitch": 74, "velocity": 90, "note_on_time": 106.843, "note_off_time": 107.152}, {"pitch": 74, "velocity": 80, "note_on_time": 107.375, "note_off_time": 107.775}, {"pitch": 74, "velocity": 84, "note_on_time": 107.948, "note_off_time": 108.218}, {"pitch": 72, "velocity": 68, "note_on_time": 108.183, "note_off_time": 108.501}, {"pitch": 74, "velocity": 89, "note_on_time": 108.475, "note_off_time": 108.784}, {"pitch": 76, "velocity": 88, "note_on_time": 108.74, "note_off_time": 109.027}, {"pitch": 77, "velocity": 79, "note_on_time": 108.981, "note_off_time": 109.312}, {"pitch": 79, "velocity": 66, "note_on_time": 109.246, "note_off_time": 109.528}, {"pitch": 79, "velocity": 65, "note_on_time": 109.754, "note_off_time": 110.151}, {"pitch": 81, "velocity": 60, "note_on_time": 110.368, "note_off_time": 110.542}, {"pitch": 79, "velocity": 56, "note_on_time": 110.361, "note_off_time": 110.785}, {"pitch": 79, "velocity": 85, "note_on_time": 110.937, "note_off_time": 111.362}, {"pitch": 79, "velocity": 75, "note_on_time": 111.493, "note_off_time": 111.783}, {"pitch": 76, "velocity": 89, "note_on_time": 111.708, "note_off_time": 112.061}, {"pitch": 74, "velocity": 86, "note_on_time": 112.016, "note_off_time": 112.34}, {"pitch": 74, "velocity": 85, "note_on_time": 112.554, "note_off_time": 112.826}, {"pitch": 74, "velocity": 65, "note_on_time": 113.091, "note_off_time": 113.536}, {"pitch": 76, "velocity": 75, "note_on_time": 113.678, "note_off_time": 113.889}, {"pitch": 76, "velocity": 54, "note_on_time": 113.959, "note_off_time": 114.246}, {"pitch": 74, "velocity": 64, "note_on_time": 114.158, "note_off_time": 114.654}, {"pitch": 76, "velocity": 62, "note_on_time": 114.774, "note_off_time": 114.972}, {"pitch": 76, "velocity": 68, "note_on_time": 115.161, "note_off_time": 115.359}, {"pitch": 76, "velocity": 73, "note_on_time": 115.451, "note_off_time": 115.514}, {"pitch": 76, "velocity": 87, "note_on_time": 115.612, "note_off_time": 115.747}, {"pitch": 76, "velocity": 92, "note_on_time": 115.882, "note_off_time": 116.09}, {"pitch": 76, "velocity": 82, "note_on_time": 116.361, "note_off_time": 116.749}, {"pitch": 72, "velocity": 78, "note_on_time": 116.667, "note_off_time": 117.062}, {"pitch": 72, "velocity": 78, "note_on_time": 117.234, "note_off_time": 117.461}, {"pitch": 72, "velocity": 77, "note_on_time": 117.727, "note_off_time": 118.028}, {"pitch": 72, "velocity": 70, "note_on_time": 118.243, "note_off_time": 118.503}, {"pitch": 74, "velocity": 84, "note_on_time": 118.459, "note_off_time": 118.738}, {"pitch": 76, "velocity": 78, "note_on_time": 118.708, "note_off_time": 119.009}, {"pitch": 76, "velocity": 79, "note_on_time": 119.243, "note_off_time": 119.477}, {"pitch": 76, "velocity": 84, "note_on_time": 119.683, "note_off_time": 119.941}, {"pitch": 76, "velocity": 84, "note_on_time": 120.179, "note_off_time": 120.492}, {"pitch": 77, "velocity": 86, "note_on_time": 120.461, "note_off_time": 120.842}, {"pitch": 74, "velocity": 80, "note_on_time": 120.745, "note_off_time": 121.101}, {"pitch": 74, "velocity": 89, "note_on_time": 121.254, "note_off_time": 121.495}, {"pitch": 74, "velocity": 80, "note_on_time": 121.721, "note_off_time": 121.982}, {"pitch": 71, "velocity": 79, "note_on_time": 122.459, "note_off_time": 122.479}, {"pitch": 74, "velocity": 73, "note_on_time": 122.195, "note_off_time": 122.906}, {"pitch": 71, "velocity": 91, "note_on_time": 122.861, "note_off_time": 123.37}, {"pitch": 72, "velocity": 92, "note_on_time": 123.675, "note_off_time": 124.007}, {"pitch": 74, "velocity": 78, "note_on_time": 123.951, "note_off_time": 124.301}, {"pitch": 76, "velocity": 83, "note_on_time": 124.233, "note_off_time": 124.561}, {"pitch": 81, "velocity": 55, "note_on_time": 125.143, "note_off_time": 125.197}, {"pitch": 77, "velocity": 74, "note_on_time": 124.499, "note_off_time": 125.396}, {"pitch": 79, "velocity": 48, "note_on_time": 125.056, "note_off_time": 125.766}, {"pitch": 79, "velocity": 89, "note_on_time": 125.923, "note_off_time": 126.257}, {"pitch": 77, "velocity": 83, "note_on_time": 126.183, "note_off_time": 126.522}, {"pitch": 76, "velocity": 83, "note_on_time": 126.452, "note_off_time": 126.801}, {"pitch": 74, "velocity": 82, "note_on_time": 126.756, "note_off_time": 127.109}, {"pitch": 72, "velocity": 88, "note_on_time": 127.062, "note_off_time": 127.523}, {"pitch": 72, "velocity": 95, "note_on_time": 127.714, "note_off_time": 128.108}, {"pitch": 74, "velocity": 82, "note_on_time": 128.013, "note_off_time": 128.326}, {"pitch": 76, "velocity": 77, "note_on_time": 128.286, "note_off_time": 128.64}, {"pitch": 77, "velocity": 72, "note_on_time": 128.582, "note_off_time": 129.27}, {"pitch": 79, "velocity": 47, "note_on_time": 128.946, "note_off_time": 129.433}, {"pitch": 79, "velocity": 82, "note_on_time": 129.608, "note_off_time": 130.066}, {"pitch": 76, "velocity": 84, "note_on_time": 129.892, "note_off_time": 130.336}, {"pitch": 74, "velocity": 74, "note_on_time": 130.276, "note_off_time": 130.954}, {"pitch": 77, "velocity": 67, "note_on_time": 130.968, "note_off_time": 131.308}, {"pitch": 74, "velocity": 80, "note_on_time": 131.287, "note_off_time": 131.673}, {"pitch": 77, "velocity": 94, "note_on_time": 131.616, "note_off_time": 132.291}, {"pitch": 76, "velocity": 87, "note_on_time": 132.271, "note_off_time": 132.798}, {"pitch": 76, "velocity": 87, "note_on_time": 132.964, "note_off_time": 133.238}, {"pitch": 76, "velocity": 60, "note_on_time": 133.49, "note_off_time": 133.736}, {"pitch": 76, "velocity": 65, "note_on_time": 134.026, "note_off_time": 134.524}, {"pitch": 74, "velocity": 76, "note_on_time": 134.5, "note_off_time": 134.86}, {"pitch": 74, "velocity": 68, "note_on_time": 135.05, "note_off_time": 135.322}, {"pitch": 74, "velocity": 63, "note_on_time": 135.549, "note_off_time": 135.941}, {"pitch": 72, "velocity": 80, "note_on_time": 135.967, "note_off_time": 136.294}, {"pitch": 72, "velocity": 89, "note_on_time": 136.488, "note_off_time": 136.729}, {"pitch": 72, "velocity": 88, "note_on_time": 137.029, "note_off_time": 137.353}, {"pitch": 72, "velocity": 74, "note_on_time": 137.644, "note_off_time": 138.258}, {"pitch": 77, "velocity": 82, "note_on_time": 138.218, "note_off_time": 139.23}, {"pitch": 72, "velocity": 79, "note_on_time": 139.418, "note_off_time": 139.714}, {"pitch": 77, "velocity": 92, "note_on_time": 139.678, "note_off_time": 140.282}, {"pitch": 79, "velocity": 74, "note_on_time": 140.275, "note_off_time": 141.421}, {"pitch": 79, "velocity": 71, "note_on_time": 141.623, "note_off_time": 141.995}, {"pitch": 74, "velocity": 90, "note_on_time": 141.928, "note_off_time": 142.626}, {"pitch": 74, "velocity": 78, "note_on_time": 142.785, "note_off_time": 143.21}, {"pitch": 74, "velocity": 77, "note_on_time": 143.5, "note_off_time": 143.871}, {"pitch": 74, "velocity": 73, "note_on_time": 144.117, "note_off_time": 144.433}, {"pitch": 76, "velocity": 73, "note_on_time": 144.36, "note_off_time": 144.598}, {"pitch": 77, "velocity": 82, "note_on_time": 144.561, "note_off_time": 144.859}, {"pitch": 77, "velocity": 66, "note_on_time": 145.04, "note_off_time": 145.269}, {"pitch": 77, "velocity": 68, "note_on_time": 145.521, "note_off_time": 145.751}, {"pitch": 79, "velocity": 65, "note_on_time": 146.026, "note_off_time": 146.588}, {"pitch": 77, "velocity": 83, "note_on_time": 146.548, "note_off_time": 148.279}, {"pitch": 72, "velocity": 64, "note_on_time": 148.205, "note_off_time": 148.746}, {"pitch": 72, "velocity": 82, "note_on_time": 149.017, "note_off_time": 149.589}, {"pitch": 76, "velocity": 69, "note_on_time": 149.492, "note_off_time": 149.994}, {"pitch": 79, "velocity": 83, "note_on_time": 149.946, "note_off_time": 150.345}, {"pitch": 79, "velocity": 68, "note_on_time": 150.589, "note_off_time": 151.005}, {"pitch": 76, "velocity": 82, "note_on_time": 150.92, "note_off_time": 151.246}, {"pitch": 72, "velocity": 82, "note_on_time": 151.21, "note_off_time": 151.691}, {"pitch": 72, "velocity": 86, "note_on_time": 152.202, "note_off_time": 152.751}, {"pitch": 74, "velocity": 84, "note_on_time": 152.677, "note_off_time": 153.046}, {"pitch": 76, "velocity": 81, "note_on_time": 152.981, "note_off_time": 153.388}, {"pitch": 81, "velocity": 43, "note_on_time": 153.671, "note_off_time": 153.814}, {"pitch": 77, "velocity": 67, "note_on_time": 153.262, "note_off_time": 154.168}, {"pitch": 79, "velocity": 70, "note_on_time": 153.598, "note_off_time": 154.22}, {"pitch": 79, "velocity": 89, "note_on_time": 154.361, "note_off_time": 154.975}, {"pitch": 76, "velocity": 80, "note_on_time": 154.811, "note_off_time": 155.511}, {"pitch": 72, "velocity": 66, "note_on_time": 155.289, "note_off_time": 155.731}, {"pitch": 72, "velocity": 93, "note_on_time": 156.267, "note_off_time": 156.424}, {"pitch": 72, "velocity": 75, "note_on_time": 156.834, "note_off_time": 156.882}, {"pitch": 72, "velocity": 89, "note_on_time": 157.083, "note_off_time": 157.155}, {"pitch": 72, "velocity": 93, "note_on_time": 157.39, "note_off_time": 157.654}, {"pitch": 77, "velocity": 82, "note_on_time": 158.061, "note_off_time": 158.858}, {"pitch": 74, "velocity": 79, "note_on_time": 159.206, "note_off_time": 159.319}, {"pitch": 74, "velocity": 85, "note_on_time": 159.467, "note_off_time": 159.541}, {"pitch": 74, "velocity": 92, "note_on_time": 159.709, "note_off_time": 159.839}, {"pitch": 79, "velocity": 73, "note_on_time": 160.354, "note_off_time": 161.153}, {"pitch": 79, "velocity": 69, "note_on_time": 161.496, "note_off_time": 161.558}, {"pitch": 79, "velocity": 90, "note_on_time": 161.748, "note_off_time": 161.835}, {"pitch": 79, "velocity": 96, "note_on_time": 162.023, "note_off_time": 162.135}, {"pitch": 76, "velocity": 84, "note_on_time": 162.577, "note_off_time": 163.29}, {"pitch": 76, "velocity": 80, "note_on_time": 163.564, "note_off_time": 163.64}, {"pitch": 76, "velocity": 82, "note_on_time": 163.829, "note_off_time": 163.904}, {"pitch": 76, "velocity": 85, "note_on_time": 164.092, "note_off_time": 164.187}, {"pitch": 77, "velocity": 91, "note_on_time": 164.58, "note_off_time": 165.372}, {"pitch": 77, "velocity": 81, "note_on_time": 165.889, "note_off_time": 165.976}, {"pitch": 77, "velocity": 81, "note_on_time": 166.112, "note_off_time": 166.203}, {"pitch": 77, "velocity": 92, "note_on_time": 166.354, "note_off_time": 166.488}, {"pitch": 72, "velocity": 98, "note_on_time": 166.873, "note_off_time": 167.56}, {"pitch": 72, "velocity": 81, "note_on_time": 167.891, "note_off_time": 168.283}, {"pitch": 74, "velocity": 79, "note_on_time": 168.229, "note_off_time": 168.509}, {"pitch": 76, "velocity": 70, "note_on_time": 168.461, "note_off_time": 168.771}, {"pitch": 77, "velocity": 82, "note_on_time": 168.704, "note_off_time": 169.268}, {"pitch": 79, "velocity": 53, "note_on_time": 169.022, "note_off_time": 169.313}, {"pitch": 79, "velocity": 80, "note_on_time": 169.588, "note_off_time": 170.063}, {"pitch": 76, "velocity": 70, "note_on_time": 169.959, "note_off_time": 170.495}, {"pitch": 79, "velocity": 54, "note_on_time": 170.768, "note_off_time": 171.062}, {"pitch": 77, "velocity": 66, "note_on_time": 171.014, "note_off_time": 171.4}, {"pitch": 79, "velocity": 92, "note_on_time": 171.631, "note_off_time": 172.048}, {"pitch": 74, "velocity": 76, "note_on_time": 171.898, "note_off_time": 172.453}, {"pitch": 79, "velocity": 77, "note_on_time": 172.711, "note_off_time": 173.051}, {"pitch": 74, "velocity": 81, "note_on_time": 172.984, "note_off_time": 173.129}, {"pitch": 72, "velocity": 78, "note_on_time": 172.978, "note_off_time": 173.48}, {"pitch": 72, "velocity": 86, "note_on_time": 173.845, "note_off_time": 174.279}, {"pitch": 74, "velocity": 78, "note_on_time": 174.239, "note_off_time": 174.655}, {"pitch": 76, "velocity": 79, "note_on_time": 174.574, "note_off_time": 174.99}, {"pitch": 77, "velocity": 80, "note_on_time": 174.917, "note_off_time": 175.482}, {"pitch": 79, "velocity": 61, "note_on_time": 175.285, "note_off_time": 175.567}, {"pitch": 79, "velocity": 76, "note_on_time": 175.951, "note_off_time": 176.369}, {"pitch": 77, "velocity": 81, "note_on_time": 176.294, "note_off_time": 176.646}, {"pitch": 76, "velocity": 75, "note_on_time": 176.581, "note_off_time": 176.981}, {"pitch": 74, "velocity": 74, "note_on_time": 176.939, "note_off_time": 177.278}, {"pitch": 72, "velocity": 82, "note_on_time": 177.238, "note_off_time": 177.431}, {"pitch": 72, "velocity": 115, "note_on_time": 177.95, "note_off_time": 178.028}, {"pitch": 72, "velocity": 95, "note_on_time": 178.537, "note_off_time": 178.654}, {"pitch": 72, "velocity": 94, "note_on_time": 179.127, "note_off_time": 179.353}, {"pitch": 76, "velocity": 85, "note_on_time": 179.429, "note_off_time": 179.603}, {"pitch": 77, "velocity": 79, "note_on_time": 179.716, "note_off_time": 179.882}, {"pitch": 77, "velocity": 101, "note_on_time": 180.269, "note_off_time": 180.407}, {"pitch": 77, "velocity": 100, "note_on_time": 180.823, "note_off_time": 180.958}, {"pitch": 77, "velocity": 90, "note_on_time": 181.374, "note_off_time": 181.529}, {"pitch": 79, "velocity": 106, "note_on_time": 181.748, "note_off_time": 181.862}, {"pitch": 76, "velocity": 85, "note_on_time": 182.069, "note_off_time": 182.338}, {"pitch": 76, "velocity": 98, "note_on_time": 182.587, "note_off_time": 182.816}, {"pitch": 76, "velocity": 106, "note_on_time": 183.154, "note_off_time": 183.378}, {"pitch": 76, "velocity": 88, "note_on_time": 183.72, "note_off_time": 183.904}, {"pitch": 74, "velocity": 99, "note_on_time": 184.086, "note_off_time": 184.223}, {"pitch": 76, "velocity": 85, "note_on_time": 184.549, "note_off_time": 184.674}, {"pitch": 77, "velocity": 104, "note_on_time": 184.806, "note_off_time": 184.918}, {"pitch": 76, "velocity": 90, "note_on_time": 185.134, "note_off_time": 185.452}, {"pitch": 76, "velocity": 85, "note_on_time": 185.694, "note_off_time": 185.892}, {"pitch": 76, "velocity": 94, "note_on_time": 186.182, "note_off_time": 186.371}, {"pitch": 76, "velocity": 82, "note_on_time": 186.925, "note_off_time": 187.082}, {"pitch": 79, "velocity": 88, "note_on_time": 187.237, "note_off_time": 187.406}, {"pitch": 74, "velocity": 74, "note_on_time": 187.643, "note_off_time": 188.004}, {"pitch": 74, "velocity": 93, "note_on_time": 188.204, "note_off_time": 188.412}, {"pitch": 74, "velocity": 96, "note_on_time": 188.712, "note_off_time": 188.875}, {"pitch": 72, "velocity": 92, "note_on_time": 189.19, "note_off_time": 189.325}, {"pitch": 76, "velocity": 96, "note_on_time": 189.556, "note_off_time": 189.678}, {"pitch": 77, "velocity": 73, "note_on_time": 189.886, "note_off_time": 190.028}, {"pitch": 79, "velocity": 69, "note_on_time": 189.874, "note_off_time": 190.204}, {"pitch": 79, "velocity": 94, "note_on_time": 190.413, "note_off_time": 190.594}, {"pitch": 79, "velocity": 114, "note_on_time": 190.905, "note_off_time": 191.117}, {"pitch": 79, "velocity": 105, "note_on_time": 191.377, "note_off_time": 191.486}, {"pitch": 76, "velocity": 106, "note_on_time": 191.67, "note_off_time": 191.78}, {"pitch": 72, "velocity": 108, "note_on_time": 192.006, "note_off_time": 192.246}, {"pitch": 72, "velocity": 103, "note_on_time": 192.539, "note_off_time": 192.72}, {"pitch": 72, "velocity": 98, "note_on_time": 193.03, "note_off_time": 193.196}, {"pitch": 72, "velocity": 102, "note_on_time": 193.517, "note_off_time": 193.626}, {"pitch": 74, "velocity": 100, "note_on_time": 193.838, "note_off_time": 193.924}, {"pitch": 74, "velocity": 105, "note_on_time": 194.117, "note_off_time": 194.22}]</notes><guidance name="Guidance Mode">None</guidance><error name="Error value">99</error></trial><trial trial_no="3" timestamp="2024_02_26-13_21_35"><notes name="Played Notes">[{"pitch": 74, "velocity": 78, "note_on_time": 2.3, "note_off_time": 2.831}, {"pitch": 72, "velocity": 36, "note_on_time": 1.898, "note_off_time": 2.856}, {"pitch": 76, "velocity": 63, "note_on_time": 2.566, "note_off_time": 3.041}, {"pitch": 77, "velocity": 72, "note_on_time": 2.878, "note_off_time": 3.182}, {"pitch": 79, "velocity": 74, "note_on_time": 3.138, "note_off_time": 3.433}, {"pitch": 79, "velocity": 72, "note_on_time": 3.662, "note_off_time": 4.16}, {"pitch": 77, "velocity": 50, "note_on_time": 4.13, "note_off_time": 4.467}, {"pitch": 76, "velocity": 75, "note_on_time": 4.383, "note_off_time": 4.695}, {"pitch": 74, "velocity": 90, "note_on_time": 4.65, "note_off_time": 4.87}, {"pitch": 74, "velocity": 86, "note_on_time": 4.959, "note_off_time": 5.118}, {"pitch": 74, "velocity": 99, "note_on_time": 5.45, "note_off_time": 5.6}, {"pitch": 74, "velocity": 94, "note_on_time": 5.914, "note_off_time": 6.095}, {"pitch": 74, "velocity": 86, "note_on_time": 6.447, "note_off_time": 7.196}, {"pitch": 76, "velocity": 65, "note_on_time": 6.896, "note_off_time": 7.229}, {"pitch": 72, "velocity": 73, "note_on_time": 6.661, "note_off_time": 7.26}, {"pitch": 76, "velocity": 72, "note_on_time": 7.396, "note_off_time": 7.673}, {"pitch": 76, "velocity": 74, "note_on_time": 7.887, "note_off_time": 8.177}, {"pitch": 76, "velocity": 32, "note_on_time": 9.151, "note_off_time": 9.237}, {"pitch": 77, "velocity": 54, "note_on_time": 9.109, "note_off_time": 9.31}, {"pitch": 77, "velocity": 63, "note_on_time": 9.558, "note_off_time": 9.84}, {"pitch": 77, "velocity": 65, "note_on_time": 10.053, "note_off_time": 10.264}, {"pitch": 72, "velocity": 61, "note_on_time": 10.089, "note_off_time": 10.272}, {"pitch": 77, "velocity": 54, "note_on_time": 10.563, "note_off_time": 10.625}, {"pitch": 79, "velocity": 70, "note_on_time": 10.52, "note_off_time": 10.83}, {"pitch": 77, "velocity": 77, "note_on_time": 10.764, "note_off_time": 11.004}, {"pitch": 76, "velocity": 83, "note_on_time": 10.927, "note_off_time": 11.317}, {"pitch": 74, "velocity": 62, "note_on_time": 11.204, "note_off_time": 11.516}, {"pitch": 72, "velocity": 74, "note_on_time": 11.477, "note_off_time": 11.676}, {"pitch": 72, "velocity": 78, "note_on_time": 11.906, "note_off_time": 12.105}, {"pitch": 74, "velocity": 46, "note_on_time": 12.617, "note_off_time": 12.862}, {"pitch": 72, "velocity": 78, "note_on_time": 12.354, "note_off_time": 12.978}, {"pitch": 76, "velocity": 75, "note_on_time": 12.837, "note_off_time": 13.144}, {"pitch": 77, "velocity": 77, "note_on_time": 13.071, "note_off_time": 13.376}, {"pitch": 79, "velocity": 72, "note_on_time": 13.285, "note_off_time": 13.573}, {"pitch": 79, "velocity": 89, "note_on_time": 13.728, "note_off_time": 13.97}, {"pitch": 79, "velocity": 78, "note_on_time": 14.177, "note_off_time": 14.425}, {"pitch": 79, "velocity": 78, "note_on_time": 14.628, "note_off_time": 15.025}, {"pitch": 74, "velocity": 49, "note_on_time": 14.992, "note_off_time": 15.141}, {"pitch": 76, "velocity": 46, "note_on_time": 14.985, "note_off_time": 15.522}, {"pitch": 72, "velocity": 94, "note_on_time": 15.472, "note_off_time": 15.766}, {"pitch": 72, "velocity": 71, "note_on_time": 16.02, "note_off_time": 16.355}, {"pitch": 76, "velocity": 82, "note_on_time": 16.327, "note_off_time": 16.612}, {"pitch": 77, "velocity": 60, "note_on_time": 16.611, "note_off_time": 16.754}, {"pitch": 79, "velocity": 61, "note_on_time": 16.613, "note_off_time": 16.951}, {"pitch": 79, "velocity": 79, "note_on_time": 17.144, "note_off_time": 17.324}, {"pitch": 79, "velocity": 79, "note_on_time": 17.649, "note_off_time": 17.897}, {"pitch": 79, "velocity": 72, "note_on_time": 18.109, "note_off_time": 18.486}, {"pitch": 76, "velocity": 56, "note_on_time": 18.394, "note_off_time": 18.689}, {"pitch": 77, "velocity": 85, "note_on_time": 18.676, "note_off_time": 18.973}, {"pitch": 76, "velocity": 98, "note_on_time": 18.965, "note_off_time": 19.242}, {"pitch": 77, "velocity": 94, "note_on_time": 19.215, "note_off_time": 19.438}, {"pitch": 76, "velocity": 95, "note_on_time": 19.424, "note_off_time": 19.693}, {"pitch": 77, "velocity": 94, "note_on_time": 19.661, "note_off_time": 19.959}, {"pitch": 79, "velocity": 81, "note_on_time": 19.92, "note_off_time": 20.346}, {"pitch": 77, "velocity": 80, "note_on_time": 20.226, "note_off_time": 20.597}, {"pitch": 76, "velocity": 90, "note_on_time": 20.544, "note_off_time": 20.87}, {"pitch": 74, "velocity": 74, "note_on_time": 20.831, "note_off_time": 21.456}, {"pitch": 74, "velocity": 57, "note_on_time": 21.634, "note_off_time": 21.922}, {"pitch": 76, "velocity": 78, "note_on_time": 21.876, "note_off_time": 22.187}, {"pitch": 77, "velocity": 80, "note_on_time": 22.144, "note_off_time": 22.394}, {"pitch": 79, "velocity": 76, "note_on_time": 22.347, "note_off_time": 22.593}, {"pitch": 79, "velocity": 65, "note_on_time": 22.781, "note_off_time": 22.99}, {"pitch": 79, "velocity": 75, "note_on_time": 23.219, "note_off_time": 23.378}, {"pitch": 72, "velocity": 72, "note_on_time": 23.748, "note_off_time": 24.106}, {"pitch": 74, "velocity": 67, "note_on_time": 24.036, "note_off_time": 24.31}, {"pitch": 76, "velocity": 87, "note_on_time": 24.272, "note_off_time": 24.557}, {"pitch": 77, "velocity": 72, "note_on_time": 24.499, "note_off_time": 24.795}, {"pitch": 79, "velocity": 71, "note_on_time": 24.739, "note_off_time": 24.977}, {"pitch": 79, "velocity": 64, "note_on_time": 25.154, "note_off_time": 25.417}, {"pitch": 79, "velocity": 76, "note_on_time": 25.637, "note_off_time": 25.89}, {"pitch": 79, "velocity": 68, "note_on_time": 26.103, "note_off_time": 26.528}, {"pitch": 77, "velocity": 67, "note_on_time": 26.411, "note_off_time": 26.623}, {"pitch": 76, "velocity": 74, "note_on_time": 26.589, "note_off_time": 26.904}, {"pitch": 74, "velocity": 73, "note_on_time": 26.846, "note_off_time": 27.158}, {"pitch": 74, "velocity": 93, "note_on_time": 27.361, "note_off_time": 27.592}, {"pitch": 74, "velocity": 86, "note_on_time": 27.794, "note_off_time": 28.001}, {"pitch": 74, "velocity": 89, "note_on_time": 28.228, "note_off_time": 28.635}, {"pitch": 74, "velocity": 86, "note_on_time": 28.772, "note_off_time": 28.898}, {"pitch": 74, "velocity": 82, "note_on_time": 28.999, "note_off_time": 29.07}, {"pitch": 74, "velocity": 89, "note_on_time": 29.179, "note_off_time": 29.288}, {"pitch": 74, "velocity": 90, "note_on_time": 29.641, "note_off_time": 29.833}, {"pitch": 74, "velocity": 91, "note_on_time": 30.079, "note_off_time": 30.293}, {"pitch": 74, "velocity": 68, "note_on_time": 30.576, "note_off_time": 30.888}, {"pitch": 77, "velocity": 72, "note_on_time": 30.831, "note_off_time": 31.182}, {"pitch": 79, "velocity": 69, "note_on_time": 31.112, "note_off_time": 31.503}, {"pitch": 72, "velocity": 62, "note_on_time": 32.567, "note_off_time": 32.842}, {"pitch": 72, "velocity": 76, "note_on_time": 33.045, "note_off_time": 33.289}, {"pitch": 74, "velocity": 68, "note_on_time": 33.77, "note_off_time": 33.986}, {"pitch": 76, "velocity": 62, "note_on_time": 33.955, "note_off_time": 34.153}, {"pitch": 72, "velocity": 76, "note_on_time": 33.535, "note_off_time": 34.255}, {"pitch": 77, "velocity": 48, "note_on_time": 34.356, "note_off_time": 34.513}, {"pitch": 77, "velocity": 73, "note_on_time": 34.783, "note_off_time": 34.985}, {"pitch": 77, "velocity": 72, "note_on_time": 35.244, "note_off_time": 35.443}, {"pitch": 77, "velocity": 66, "note_on_time": 35.721, "note_off_time": 35.999}, {"pitch": 79, "velocity": 66, "note_on_time": 36.056, "note_off_time": 36.43}, {"pitch": 76, "velocity": 78, "note_on_time": 36.38, "note_off_time": 36.643}, {"pitch": 76, "velocity": 83, "note_on_time": 36.85, "note_off_time": 37.086}, {"pitch": 76, "velocity": 89, "note_on_time": 37.311, "note_off_time": 37.515}, {"pitch": 76, "velocity": 76, "note_on_time": 37.784, "note_off_time": 38.108}, {"pitch": 72, "velocity": 37, "note_on_time": 38.06, "note_off_time": 38.255}, {"pitch": 74, "velocity": 51, "note_on_time": 38.067, "note_off_time": 38.257}, {"pitch": 76, "velocity": 38, "note_on_time": 38.376, "note_off_time": 38.939}, {"pitch": 77, "velocity": 85, "note_on_time": 38.743, "note_off_time": 39.032}, {"pitch": 79, "velocity": 80, "note_on_time": 38.999, "note_off_time": 39.316}, {"pitch": 79, "velocity": 71, "note_on_time": 39.466, "note_off_time": 39.678}, {"pitch": 79, "velocity": 60, "note_on_time": 39.944, "note_off_time": 40.19}, {"pitch": 79, "velocity": 62, "note_on_time": 40.389, "note_off_time": 40.754}, {"pitch": 77, "velocity": 79, "note_on_time": 40.693, "note_off_time": 40.903}, {"pitch": 76, "velocity": 76, "note_on_time": 40.852, "note_off_time": 41.195}, {"pitch": 74, "velocity": 86, "note_on_time": 41.12, "note_off_time": 41.42}, {"pitch": 72, "velocity": 83, "note_on_time": 41.396, "note_off_time": 41.608}, {"pitch": 72, "velocity": 84, "note_on_time": 41.866, "note_off_time": 42.04}, {"pitch": 72, "velocity": 89, "note_on_time": 42.3, "note_off_time": 42.459}, {"pitch": 72, "velocity": 89, "note_on_time": 42.763, "note_off_time": 43.104}, {"pitch": 74, "velocity": 88, "note_on_time": 42.988, "note_off_time": 43.245}, {"pitch": 76, "velocity": 75, "note_on_time": 43.203, "note_off_time": 43.459}, {"pitch": 77, "velocity": 82, "note_on_time": 43.393, "note_off_time": 43.655}, {"pitch": 79, "velocity": 68, "note_on_time": 43.641, "note_off_time": 43.793}, {"pitch": 79, "velocity": 52, "note_on_time": 44.1, "note_off_time": 44.298}, {"pitch": 79, "velocity": 79, "note_on_time": 44.537, "note_off_time": 44.72}, {"pitch": 79, "velocity": 84, "note_on_time": 44.92, "note_off_time": 45.403}, {"pitch": 76, "velocity": 62, "note_on_time": 45.224, "note_off_time": 45.65}, {"pitch": 72, "velocity": 66, "note_on_time": 45.609, "note_off_time": 45.871}, {"pitch": 72, "velocity": 87, "note_on_time": 46.131, "note_off_time": 46.275}, {"pitch": 72, "velocity": 74, "note_on_time": 46.454, "note_off_time": 46.554}, {"pitch": 72, "velocity": 94, "note_on_time": 46.716, "note_off_time": 46.821}, {"pitch": 72, "velocity": 85, "note_on_time": 47.224, "note_off_time": 47.316}, {"pitch": 72, "velocity": 79, "note_on_time": 47.475, "note_off_time": 47.563}, {"pitch": 72, "velocity": 95, "note_on_time": 47.752, "note_off_time": 47.876}, {"pitch": 72, "velocity": 95, "note_on_time": 48.211, "note_off_time": 48.381}, {"pitch": 77, "velocity": 101, "note_on_time": 48.464, "note_off_time": 48.564}, {"pitch": 72, "velocity": 88, "note_on_time": 48.76, "note_off_time": 48.895}, {"pitch": 77, "velocity": 95, "note_on_time": 49.024, "note_off_time": 49.109}, {"pitch": 72, "velocity": 87, "note_on_time": 49.296, "note_off_time": 49.423}, {"pitch": 77, "velocity": 104, "note_on_time": 49.558, "note_off_time": 49.647}, {"pitch": 79, "velocity": 104, "note_on_time": 49.829, "note_off_time": 49.96}, {"pitch": 79, "velocity": 105, "note_on_time": 50.308, "note_off_time": 50.428}, {"pitch": 79, "velocity": 98, "note_on_time": 50.823, "note_off_time": 50.975}, {"pitch": 79, "velocity": 54, "note_on_time": 51.319, "note_off_time": 51.479}, {"pitch": 77, "velocity": 80, "note_on_time": 51.692, "note_off_time": 51.793}, {"pitch": 76, "velocity": 91, "note_on_time": 51.934, "note_off_time": 52.043}, {"pitch": 74, "velocity": 89, "note_on_time": 52.188, "note_off_time": 52.267}, {"pitch": 72, "velocity": 85, "note_on_time": 52.7, "note_off_time": 52.825}, {"pitch": 72, "velocity": 81, "note_on_time": 52.957, "note_off_time": 53.058}, {"pitch": 72, "velocity": 99, "note_on_time": 53.239, "note_off_time": 53.35}, {"pitch": 72, "velocity": 88, "note_on_time": 53.724, "note_off_time": 53.887}, {"pitch": 76, "velocity": 82, "note_on_time": 53.99, "note_off_time": 54.064}, {"pitch": 72, "velocity": 59, "note_on_time": 54.446, "note_off_time": 54.525}, {"pitch": 72, "velocity": 72, "note_on_time": 54.744, "note_off_time": 54.862}, {"pitch": 72, "velocity": 86, "note_on_time": 54.975, "note_off_time": 55.087}, {"pitch": 74, "velocity": 101, "note_on_time": 55.333, "note_off_time": 55.409}, {"pitch": 72, "velocity": 84, "note_on_time": 56.36, "note_off_time": 56.462}, {"pitch": 72, "velocity": 86, "note_on_time": 56.598, "note_off_time": 56.691}, {"pitch": 72, "velocity": 94, "note_on_time": 56.847, "note_off_time": 56.941}, {"pitch": 74, "velocity": 102, "note_on_time": 57.29, "note_off_time": 57.366}, {"pitch": 74, "velocity": 95, "note_on_time": 57.527, "note_off_time": 57.604}, {"pitch": 74, "velocity": 86, "note_on_time": 57.732, "note_off_time": 57.869}, {"pitch": 76, "velocity": 98, "note_on_time": 58.132, "note_off_time": 58.221}, {"pitch": 76, "velocity": 88, "note_on_time": 58.367, "note_off_time": 58.446}, {"pitch": 76, "velocity": 85, "note_on_time": 58.569, "note_off_time": 58.681}, {"pitch": 79, "velocity": 84, "note_on_time": 58.988, "note_off_time": 59.109}, {"pitch": 79, "velocity": 68, "note_on_time": 59.229, "note_off_time": 59.314}, {"pitch": 79, "velocity": 75, "note_on_time": 59.433, "note_off_time": 59.59}, {"pitch": 79, "velocity": 80, "note_on_time": 60.591, "note_off_time": 60.738}, {"pitch": 79, "velocity": 84, "note_on_time": 60.821, "note_off_time": 60.954}, {"pitch": 79, "velocity": 56, "note_on_time": 61.072, "note_off_time": 61.24}, {"pitch": 79, "velocity": 44, "note_on_time": 61.352, "note_off_time": 61.479}, {"pitch": 77, "velocity": 87, "note_on_time": 61.421, "note_off_time": 61.553}, {"pitch": 77, "velocity": 83, "note_on_time": 61.636, "note_off_time": 61.78}, {"pitch": 77, "velocity": 81, "note_on_time": 61.852, "note_off_time": 61.984}, {"pitch": 76, "velocity": 72, "note_on_time": 62.195, "note_off_time": 62.324}, {"pitch": 76, "velocity": 69, "note_on_time": 62.408, "note_off_time": 62.506}, {"pitch": 76, "velocity": 67, "note_on_time": 62.596, "note_off_time": 62.817}, {"pitch": 76, "velocity": 74, "note_on_time": 63.005, "note_off_time": 63.189}, {"pitch": 74, "velocity": 87, "note_on_time": 63.381, "note_off_time": 63.588}, {"pitch": 72, "velocity": 79, "note_on_time": 63.857, "note_off_time": 64.006}, {"pitch": 72, "velocity": 68, "note_on_time": 64.106, "note_off_time": 64.162}, {"pitch": 72, "velocity": 83, "note_on_time": 64.265, "note_off_time": 64.38}, {"pitch": 72, "velocity": 84, "note_on_time": 64.666, "note_off_time": 64.807}, {"pitch": 72, "velocity": 88, "note_on_time": 65.048, "note_off_time": 65.196}, {"pitch": 72, "velocity": 86, "note_on_time": 65.43, "note_off_time": 65.64}, {"pitch": 74, "velocity": 102, "note_on_time": 65.651, "note_off_time": 65.767}, {"pitch": 76, "velocity": 91, "note_on_time": 65.856, "note_off_time": 66.008}, {"pitch": 77, "velocity": 88, "note_on_time": 66.236, "note_off_time": 66.342}, {"pitch": 77, "velocity": 93, "note_on_time": 66.684, "note_off_time": 66.786}, {"pitch": 77, "velocity": 91, "note_on_time": 67.039, "note_off_time": 67.166}, {"pitch": 77, "velocity": 93, "note_on_time": 67.404, "note_off_time": 67.576}, {"pitch": 74, "velocity": 88, "note_on_time": 67.751, "note_off_time": 67.824}, {"pitch": 74, "velocity": 84, "note_on_time": 68.021, "note_off_time": 68.08}, {"pitch": 74, "velocity": 104, "note_on_time": 68.16, "note_off_time": 68.239}, {"pitch": 74, "velocity": 102, "note_on_time": 68.572, "note_off_time": 68.69}, {"pitch": 74, "velocity": 78, "note_on_time": 69.016, "note_off_time": 69.149}, {"pitch": 74, "velocity": 102, "note_on_time": 69.376, "note_off_time": 69.504}, {"pitch": 72, "velocity": 94, "note_on_time": 69.564, "note_off_time": 69.648}, {"pitch": 72, "velocity": 86, "note_on_time": 69.77, "note_off_time": 69.872}, {"pitch": 72, "velocity": 86, "note_on_time": 70.169, "note_off_time": 70.314}, {"pitch": 72, "velocity": 92, "note_on_time": 70.552, "note_off_time": 70.681}, {"pitch": 72, "velocity": 78, "note_on_time": 70.941, "note_off_time": 71.139}, {"pitch": 74, "velocity": 99, "note_on_time": 71.167, "note_off_time": 71.372}, {"pitch": 76, "velocity": 91, "note_on_time": 71.355, "note_off_time": 71.592}, {"pitch": 77, "velocity": 75, "note_on_time": 71.557, "note_off_time": 71.811}, {"pitch": 79, "velocity": 67, "note_on_time": 71.75, "note_off_time": 71.939}, {"pitch": 79, "velocity": 82, "note_on_time": 72.108, "note_off_time": 72.23}, {"pitch": 79, "velocity": 91, "note_on_time": 72.503, "note_off_time": 72.65}, {"pitch": 79, "velocity": 74, "note_on_time": 72.887, "note_off_time": 73.342}, {"pitch": 77, "velocity": 63, "note_on_time": 73.204, "note_off_time": 73.344}, {"pitch": 77, "velocity": 69, "note_on_time": 73.457, "note_off_time": 73.571}, {"pitch": 77, "velocity": 72, "note_on_time": 73.694, "note_off_time": 73.792}, {"pitch": 77, "velocity": 84, "note_on_time": 73.884, "note_off_time": 73.991}, {"pitch": 77, "velocity": 97, "note_on_time": 74.269, "note_off_time": 74.423}, {"pitch": 77, "velocity": 89, "note_on_time": 74.623, "note_off_time": 74.735}, {"pitch": 74, "velocity": 90, "note_on_time": 74.9, "note_off_time": 74.975}, {"pitch": 74, "velocity": 89, "note_on_time": 75.085, "note_off_time": 75.163}, {"pitch": 74, "velocity": 90, "note_on_time": 75.293, "note_off_time": 75.385}, {"pitch": 74, "velocity": 89, "note_on_time": 75.493, "note_off_time": 75.593}, {"pitch": 72, "velocity": 86, "note_on_time": 75.901, "note_off_time": 76.008}, {"pitch": 72, "velocity": 94, "note_on_time": 76.282, "note_off_time": 76.365}, {"pitch": 72, "velocity": 80, "note_on_time": 76.489, "note_off_time": 76.576}, {"pitch": 72, "velocity": 86, "note_on_time": 76.678, "note_off_time": 76.793}, {"pitch": 72, "velocity": 79, "note_on_time": 76.918, "note_off_time": 77.004}, {"pitch": 72, "velocity": 94, "note_on_time": 77.147, "note_off_time": 77.267}, {"pitch": 74, "velocity": 104, "note_on_time": 77.543, "note_off_time": 77.68}, {"pitch": 76, "velocity": 84, "note_on_time": 77.969, "note_off_time": 78.03}, {"pitch": 76, "velocity": 83, "note_on_time": 78.138, "note_off_time": 78.209}, {"pitch": 76, "velocity": 88, "note_on_time": 78.334, "note_off_time": 78.404}, {"pitch": 76, "velocity": 89, "note_on_time": 78.534, "note_off_time": 78.612}, {"pitch": 76, "velocity": 93, "note_on_time": 78.782, "note_off_time": 78.886}, {"pitch": 77, "velocity": 95, "note_on_time": 79.177, "note_off_time": 79.295}, {"pitch": 77, "velocity": 90, "note_on_time": 79.59, "note_off_time": 79.675}, {"pitch": 77, "velocity": 91, "note_on_time": 79.813, "note_off_time": 79.887}, {"pitch": 77, "velocity": 86, "note_on_time": 80.021, "note_off_time": 80.099}, {"pitch": 77, "velocity": 73, "note_on_time": 80.234, "note_off_time": 80.318}, {"pitch": 77, "velocity": 108, "note_on_time": 80.473, "note_off_time": 80.569}, {"pitch": 79, "velocity": 85, "note_on_time": 80.891, "note_off_time": 81.039}, {"pitch": 79, "velocity": 83, "note_on_time": 81.275, "note_off_time": 81.634}, {"pitch": 77, "velocity": 54, "note_on_time": 81.622, "note_off_time": 82.024}, {"pitch": 76, "velocity": 70, "note_on_time": 81.964, "note_off_time": 82.302}, {"pitch": 74, "velocity": 95, "note_on_time": 82.224, "note_off_time": 82.54}, {"pitch": 72, "velocity": 86, "note_on_time": 82.502, "note_off_time": 82.669}, {"pitch": 72, "velocity": 98, "note_on_time": 83.008, "note_off_time": 83.124}, {"pitch": 72, "velocity": 102, "note_on_time": 83.484, "note_off_time": 83.613}, {"pitch": 72, "velocity": 98, "note_on_time": 83.956, "note_off_time": 84.08}, {"pitch": 72, "velocity": 87, "note_on_time": 84.244, "note_off_time": 84.349}, {"pitch": 72, "velocity": 77, "note_on_time": 84.471, "note_off_time": 84.578}, {"pitch": 76, "velocity": 83, "note_on_time": 84.547, "note_off_time": 84.644}, {"pitch": 76, "velocity": 94, "note_on_time": 84.917, "note_off_time": 85.095}, {"pitch": 76, "velocity": 94, "note_on_time": 85.329, "note_off_time": 85.503}, {"pitch": 72, "velocity": 80, "note_on_time": 85.749, "note_off_time": 85.888}, {"pitch": 72, "velocity": 70, "note_on_time": 86.005, "note_off_time": 86.123}, {"pitch": 72, "velocity": 83, "note_on_time": 86.238, "note_off_time": 86.367}, {"pitch": 72, "velocity": 95, "note_on_time": 86.63, "note_off_time": 86.774}, {"pitch": 74, "velocity": 99, "note_on_time": 87.038, "note_off_time": 87.127}, {"pitch": 74, "velocity": 84, "note_on_time": 87.297, "note_off_time": 87.353}, {"pitch": 74, "velocity": 93, "note_on_time": 87.441, "note_off_time": 87.519}, {"pitch": 76, "velocity": 77, "note_on_time": 87.845, "note_off_time": 87.893}, {"pitch": 76, "velocity": 72, "note_on_time": 88.01, "note_off_time": 88.087}, {"pitch": 76, "velocity": 84, "note_on_time": 88.207, "note_off_time": 88.349}, {"pitch": 77, "velocity": 92, "note_on_time": 88.618, "note_off_time": 88.697}, {"pitch": 77, "velocity": 75, "note_on_time": 88.805, "note_off_time": 88.893}, {"pitch": 77, "velocity": 77, "note_on_time": 88.999, "note_off_time": 89.124}, {"pitch": 76, "velocity": 87, "note_on_time": 89.469, "note_off_time": 89.553}, {"pitch": 76, "velocity": 80, "note_on_time": 89.687, "note_off_time": 89.766}, {"pitch": 76, "velocity": 78, "note_on_time": 89.871, "note_off_time": 89.992}, {"pitch": 72, "velocity": 90, "note_on_time": 90.267, "note_off_time": 90.35}, {"pitch": 72, "velocity": 67, "note_on_time": 90.469, "note_off_time": 90.552}, {"pitch": 72, "velocity": 76, "note_on_time": 90.684, "note_off_time": 90.775}, {"pitch": 72, "velocity": 79, "note_on_time": 91.157, "note_off_time": 91.268}, {"pitch": 72, "velocity": 74, "note_on_time": 91.398, "note_off_time": 91.507}, {"pitch": 72, "velocity": 81, "note_on_time": 91.602, "note_off_time": 91.73}, {"pitch": 74, "velocity": 93, "note_on_time": 92.01, "note_off_time": 92.097}, {"pitch": 74, "velocity": 87, "note_on_time": 92.225, "note_off_time": 92.298}, {"pitch": 74, "velocity": 94, "note_on_time": 92.439, "note_off_time": 92.529}, {"pitch": 76, "velocity": 76, "note_on_time": 92.953, "note_off_time": 93.055}, {"pitch": 76, "velocity": 76, "note_on_time": 93.178, "note_off_time": 93.277}, {"pitch": 76, "velocity": 58, "note_on_time": 93.346, "note_off_time": 93.455}, {"pitch": 77, "velocity": 84, "note_on_time": 93.723, "note_off_time": 93.811}, {"pitch": 77, "velocity": 78, "note_on_time": 93.903, "note_off_time": 93.992}, {"pitch": 77, "velocity": 76, "note_on_time": 94.132, "note_off_time": 94.216}, {"pitch": 79, "velocity": 66, "note_on_time": 94.513, "note_off_time": 94.686}, {"pitch": 79, "velocity": 59, "note_on_time": 94.803, "note_off_time": 94.898}, {"pitch": 79, "velocity": 78, "note_on_time": 95.004, "note_off_time": 95.173}, {"pitch": 79, "velocity": 1, "note_on_time": 95.602, "note_off_time": 95.77}, {"pitch": 79, "velocity": 61, "note_on_time": 95.882, "note_off_time": 95.974}, {"pitch": 79, "velocity": 75, "note_on_time": 96.06, "note_off_time": 96.189}, {"pitch": 79, "velocity": 66, "note_on_time": 96.285, "note_off_time": 96.415}, {"pitch": 74, "velocity": 59, "note_on_time": 96.58, "note_off_time": 96.638}, {"pitch": 74, "velocity": 78, "note_on_time": 96.785, "note_off_time": 96.856}, {"pitch": 74, "velocity": 90, "note_on_time": 97.008, "note_off_time": 97.095}, {"pitch": 74, "velocity": 99, "note_on_time": 97.454, "note_off_time": 97.518}, {"pitch": 74, "velocity": 102, "note_on_time": 97.672, "note_off_time": 97.739}, {"pitch": 74, "velocity": 87, "note_on_time": 97.877, "note_off_time": 97.95}, {"pitch": 72, "velocity": 90, "note_on_time": 98.291, "note_off_time": 98.377}, {"pitch": 72, "velocity": 73, "note_on_time": 98.508, "note_off_time": 98.587}, {"pitch": 72, "velocity": 88, "note_on_time": 98.727, "note_off_time": 98.813}, {"pitch": 72, "velocity": 95, "note_on_time": 99.167, "note_off_time": 99.249}, {"pitch": 72, "velocity": 76, "note_on_time": 99.39, "note_off_time": 99.47}, {"pitch": 72, "velocity": 94, "note_on_time": 99.633, "note_off_time": 99.728}, {"pitch": 74, "velocity": 92, "note_on_time": 100.019, "note_off_time": 100.091}, {"pitch": 74, "velocity": 82, "note_on_time": 100.235, "note_off_time": 100.306}, {"pitch": 74, "velocity": 77, "note_on_time": 100.439, "note_off_time": 100.538}, {"pitch": 76, "velocity": 85, "note_on_time": 100.853, "note_off_time": 100.927}, {"pitch": 76, "velocity": 77, "note_on_time": 101.063, "note_off_time": 101.139}, {"pitch": 76, "velocity": 95, "note_on_time": 101.288, "note_off_time": 101.368}, {"pitch": 79, "velocity": 65, "note_on_time": 101.762, "note_off_time": 101.877}, {"pitch": 79, "velocity": 66, "note_on_time": 102.0, "note_off_time": 102.083}, {"pitch": 79, "velocity": 66, "note_on_time": 102.183, "note_off_time": 102.289}, {"pitch": 79, "velocity": 73, "note_on_time": 102.428, "note_off_time": 102.518}, {"pitch": 79, "velocity": 68, "note_on_time": 102.616, "note_off_time": 102.739}, {"pitch": 76, "velocity": 91, "note_on_time": 103.454, "note_off_time": 103.521}, {"pitch": 76, "velocity": 98, "note_on_time": 103.668, "note_off_time": 103.736}, {"pitch": 76, "velocity": 100, "note_on_time": 103.888, "note_off_time": 103.981}, {"pitch": 74, "velocity": 93, "note_on_time": 104.338, "note_off_time": 104.408}, {"pitch": 74, "velocity": 90, "note_on_time": 104.565, "note_off_time": 104.632}, {"pitch": 74, "velocity": 90, "note_on_time": 104.794, "note_off_time": 104.872}, {"pitch": 74, "velocity": 88, "note_on_time": 105.208, "note_off_time": 105.414}, {"pitch": 77, "velocity": 95, "note_on_time": 105.392, "note_off_time": 105.569}, {"pitch": 79, "velocity": 86, "note_on_time": 105.565, "note_off_time": 105.935}, {"pitch": 79, "velocity": 87, "note_on_time": 106.153, "note_off_time": 106.338}, {"pitch": 79, "velocity": 77, "note_on_time": 106.575, "note_off_time": 106.823}, {"pitch": 79, "velocity": 86, "note_on_time": 107.021, "note_off_time": 107.211}, {"pitch": 77, "velocity": 84, "note_on_time": 107.159, "note_off_time": 107.381}, {"pitch": 76, "velocity": 87, "note_on_time": 107.352, "note_off_time": 107.584}, {"pitch": 76, "velocity": 101, "note_on_time": 107.819, "note_off_time": 107.951}, {"pitch": 76, "velocity": 95, "note_on_time": 108.177, "note_off_time": 108.29}, {"pitch": 76, "velocity": 97, "note_on_time": 108.558, "note_off_time": 108.664}, {"pitch": 72, "velocity": 82, "note_on_time": 108.754, "note_off_time": 108.863}, {"pitch": 72, "velocity": 81, "note_on_time": 108.963, "note_off_time": 109.059}, {"pitch": 72, "velocity": 88, "note_on_time": 109.367, "note_off_time": 109.455}, {"pitch": 72, "velocity": 97, "note_on_time": 109.747, "note_off_time": 109.841}, {"pitch": 72, "velocity": 101, "note_on_time": 110.138, "note_off_time": 110.307}, {"pitch": 76, "velocity": 99, "note_on_time": 110.354, "note_off_time": 110.458}, {"pitch": 76, "velocity": 107, "note_on_time": 110.594, "note_off_time": 110.673}, {"pitch": 76, "velocity": 102, "note_on_time": 111.019, "note_off_time": 111.11}, {"pitch": 76, "velocity": 103, "note_on_time": 111.438, "note_off_time": 111.537}, {"pitch": 79, "velocity": 83, "note_on_time": 111.869, "note_off_time": 111.948}, {"pitch": 79, "velocity": 70, "note_on_time": 112.105, "note_off_time": 112.157}, {"pitch": 79, "velocity": 98, "note_on_time": 112.302, "note_off_time": 112.389}, {"pitch": 79, "velocity": 93, "note_on_time": 112.724, "note_off_time": 112.827}, {"pitch": 79, "velocity": 88, "note_on_time": 113.169, "note_off_time": 113.326}, {"pitch": 79, "velocity": 82, "note_on_time": 113.535, "note_off_time": 113.665}, {"pitch": 77, "velocity": 91, "note_on_time": 113.788, "note_off_time": 113.863}, {"pitch": 77, "velocity": 92, "note_on_time": 113.985, "note_off_time": 114.12}, {"pitch": 76, "velocity": 85, "note_on_time": 114.597, "note_off_time": 114.724}, {"pitch": 76, "velocity": 98, "note_on_time": 114.932, "note_off_time": 115.036}, {"pitch": 76, "velocity": 95, "note_on_time": 115.34, "note_off_time": 115.428}, {"pitch": 74, "velocity": 103, "note_on_time": 115.553, "note_off_time": 115.642}, {"pitch": 74, "velocity": 88, "note_on_time": 115.742, "note_off_time": 115.837}, {"pitch": 74, "velocity": 106, "note_on_time": 116.165, "note_off_time": 116.264}, {"pitch": 74, "velocity": 99, "note_on_time": 116.556, "note_off_time": 116.632}, {"pitch": 74, "velocity": 94, "note_on_time": 116.892, "note_off_time": 116.967}, {"pitch": 76, "velocity": 70, "note_on_time": 117.133, "note_off_time": 117.179}, {"pitch": 77, "velocity": 78, "note_on_time": 117.122, "note_off_time": 117.187}, {"pitch": 77, "velocity": 62, "note_on_time": 117.379, "note_off_time": 117.458}, {"pitch": 79, "velocity": 86, "note_on_time": 117.614, "note_off_time": 117.704}, {"pitch": 79, "velocity": 73, "note_on_time": 117.92, "note_off_time": 117.996}, {"pitch": 79, "velocity": 75, "note_on_time": 118.143, "note_off_time": 118.257}, {"pitch": 77, "velocity": 71, "note_on_time": 118.428, "note_off_time": 118.557}, {"pitch": 76, "velocity": 98, "note_on_time": 118.709, "note_off_time": 118.817}, {"pitch": 74, "velocity": 98, "note_on_time": 118.974, "note_off_time": 119.049}, {"pitch": 72, "velocity": 88, "note_on_time": 119.225, "note_off_time": 119.312}, {"pitch": 72, "velocity": 95, "note_on_time": 119.725, "note_off_time": 119.861}, {"pitch": 72, "velocity": 95, "note_on_time": 120.009, "note_off_time": 120.433}, {"pitch": 74, "velocity": 88, "note_on_time": 120.311, "note_off_time": 120.625}, {"pitch": 76, "velocity": 86, "note_on_time": 120.566, "note_off_time": 120.901}, {"pitch": 77, "velocity": 84, "note_on_time": 120.833, "note_off_time": 121.123}, {"pitch": 79, "velocity": 64, "note_on_time": 121.071, "note_off_time": 121.299}, {"pitch": 79, "velocity": 78, "note_on_time": 121.54, "note_off_time": 121.924}, {"pitch": 77, "velocity": 70, "note_on_time": 121.85, "note_off_time": 122.168}, {"pitch": 76, "velocity": 91, "note_on_time": 122.106, "note_off_time": 122.455}, {"pitch": 74, "velocity": 88, "note_on_time": 122.37, "note_off_time": 122.679}, {"pitch": 72, "velocity": 91, "note_on_time": 122.64, "note_off_time": 122.778}, {"pitch": 74, "velocity": 109, "note_on_time": 123.142, "note_off_time": 123.233}, {"pitch": 74, "velocity": 108, "note_on_time": 123.609, "note_off_time": 123.704}, {"pitch": 74, "velocity": 102, "note_on_time": 124.105, "note_off_time": 124.178}, {"pitch": 74, "velocity": 103, "note_on_time": 124.346, "note_off_time": 124.413}, {"pitch": 74, "velocity": 102, "note_on_time": 124.58, "note_off_time": 124.681}, {"pitch": 74, "velocity": 98, "note_on_time": 125.067, "note_off_time": 125.368}, {"pitch": 72, "velocity": 80, "note_on_time": 125.354, "note_off_time": 125.715}, {"pitch": 74, "velocity": 94, "note_on_time": 125.641, "note_off_time": 125.936}, {"pitch": 76, "velocity": 64, "note_on_time": 126.029, "note_off_time": 126.152}, {"pitch": 77, "velocity": 55, "note_on_time": 126.03, "note_off_time": 126.335}, {"pitch": 77, "velocity": 101, "note_on_time": 126.455, "note_off_time": 126.543}, {"pitch": 77, "velocity": 91, "note_on_time": 126.707, "note_off_time": 126.776}, {"pitch": 77, "velocity": 108, "note_on_time": 126.927, "note_off_time": 127.002}, {"pitch": 79, "velocity": 100, "note_on_time": 127.389, "note_off_time": 127.478}, {"pitch": 77, "velocity": 72, "note_on_time": 127.912, "note_off_time": 127.962}, {"pitch": 79, "velocity": 76, "note_on_time": 127.909, "note_off_time": 127.979}, {"pitch": 79, "velocity": 89, "note_on_time": 128.285, "note_off_time": 128.409}, {"pitch": 79, "velocity": 76, "note_on_time": 128.505, "note_off_time": 128.603}, {"pitch": 79, "velocity": 83, "note_on_time": 128.701, "note_off_time": 128.807}, {"pitch": 79, "velocity": 95, "note_on_time": 129.104, "note_off_time": 129.213}, {"pitch": 79, "velocity": 81, "note_on_time": 129.318, "note_off_time": 129.425}, {"pitch": 79, "velocity": 90, "note_on_time": 129.502, "note_off_time": 129.611}, {"pitch": 77, "velocity": 78, "note_on_time": 130.012, "note_off_time": 130.081}, {"pitch": 77, "velocity": 81, "note_on_time": 130.185, "note_off_time": 130.267}, {"pitch": 77, "velocity": 87, "note_on_time": 130.383, "note_off_time": 130.477}, {"pitch": 74, "velocity": 42, "note_on_time": 130.895, "note_off_time": 130.923}, {"pitch": 74, "velocity": 88, "note_on_time": 131.028, "note_off_time": 131.101}, {"pitch": 74, "velocity": 93, "note_on_time": 131.213, "note_off_time": 131.304}, {"pitch": 72, "velocity": 71, "note_on_time": 131.649, "note_off_time": 131.729}, {"pitch": 72, "velocity": 67, "note_on_time": 131.845, "note_off_time": 131.93}, {"pitch": 72, "velocity": 75, "note_on_time": 132.046, "note_off_time": 132.164}, {"pitch": 72, "velocity": 88, "note_on_time": 132.41, "note_off_time": 132.652}, {"pitch": 74, "velocity": 99, "note_on_time": 132.586, "note_off_time": 132.845}, {"pitch": 76, "velocity": 85, "note_on_time": 132.813, "note_off_time": 133.048}, {"pitch": 77, "velocity": 84, "note_on_time": 133.006, "note_off_time": 133.29}, {"pitch": 79, "velocity": 71, "note_on_time": 133.226, "note_off_time": 133.426}, {"pitch": 79, "velocity": 75, "note_on_time": 133.619, "note_off_time": 133.755}, {"pitch": 79, "velocity": 70, "note_on_time": 133.888, "note_off_time": 133.973}, {"pitch": 79, "velocity": 75, "note_on_time": 134.059, "note_off_time": 134.198}, {"pitch": 79, "velocity": 88, "note_on_time": 134.476, "note_off_time": 134.572}, {"pitch": 79, "velocity": 81, "note_on_time": 134.695, "note_off_time": 134.795}, {"pitch": 79, "velocity": 80, "note_on_time": 134.855, "note_off_time": 134.958}, {"pitch": 76, "velocity": 92, "note_on_time": 135.243, "note_off_time": 135.312}, {"pitch": 76, "velocity": 81, "note_on_time": 135.428, "note_off_time": 135.487}, {"pitch": 76, "velocity": 92, "note_on_time": 135.605, "note_off_time": 135.701}, {"pitch": 76, "velocity": 96, "note_on_time": 135.976, "note_off_time": 136.047}, {"pitch": 76, "velocity": 91, "note_on_time": 136.194, "note_off_time": 136.265}, {"pitch": 76, "velocity": 85, "note_on_time": 136.39, "note_off_time": 136.489}, {"pitch": 76, "velocity": 79, "note_on_time": 136.725, "note_off_time": 136.916}, {"pitch": 72, "velocity": 95, "note_on_time": 136.918, "note_off_time": 137.047}, {"pitch": 76, "velocity": 91, "note_on_time": 137.133, "note_off_time": 137.429}, {"pitch": 77, "velocity": 92, "note_on_time": 137.442, "note_off_time": 137.726}, {"pitch": 79, "velocity": 85, "note_on_time": 137.69, "note_off_time": 138.057}, {"pitch": 72, "velocity": 97, "note_on_time": 138.864, "note_off_time": 139.081}, {"pitch": 74, "velocity": 77, "note_on_time": 139.116, "note_off_time": 139.388}, {"pitch": 76, "velocity": 95, "note_on_time": 139.353, "note_off_time": 139.521}, {"pitch": 76, "velocity": 100, "note_on_time": 139.891, "note_off_time": 139.975}, {"pitch": 76, "velocity": 115, "note_on_time": 140.383, "note_off_time": 140.462}, {"pitch": 76, "velocity": 101, "note_on_time": 140.837, "note_off_time": 140.915}, {"pitch": 76, "velocity": 67, "note_on_time": 141.124, "note_off_time": 141.227}, {"pitch": 76, "velocity": 84, "note_on_time": 141.347, "note_off_time": 141.457}, {"pitch": 79, "velocity": 86, "note_on_time": 141.7, "note_off_time": 141.767}, {"pitch": 79, "velocity": 94, "note_on_time": 141.912, "note_off_time": 141.987}, {"pitch": 79, "velocity": 88, "note_on_time": 142.117, "note_off_time": 142.228}, {"pitch": 79, "velocity": 87, "note_on_time": 142.57, "note_off_time": 142.702}, {"pitch": 79, "velocity": 76, "note_on_time": 142.801, "note_off_time": 142.913}, {"pitch": 79, "velocity": 79, "note_on_time": 142.999, "note_off_time": 143.184}, {"pitch": 79, "velocity": 70, "note_on_time": 143.44, "note_off_time": 143.641}, {"pitch": 77, "velocity": 84, "note_on_time": 143.825, "note_off_time": 143.936}, {"pitch": 76, "velocity": 94, "note_on_time": 144.126, "note_off_time": 144.251}, {"pitch": 74, "velocity": 95, "note_on_time": 144.379, "note_off_time": 144.463}, {"pitch": 72, "velocity": 87, "note_on_time": 144.634, "note_off_time": 144.719}, {"pitch": 72, "velocity": 98, "note_on_time": 145.144, "note_off_time": 145.22}, {"pitch": 72, "velocity": 86, "note_on_time": 145.356, "note_off_time": 145.459}, {"pitch": 74, "velocity": 104, "note_on_time": 145.614, "note_off_time": 145.685}, {"pitch": 76, "velocity": 97, "note_on_time": 146.09, "note_off_time": 146.141}, {"pitch": 76, "velocity": 105, "note_on_time": 146.287, "note_off_time": 146.355}, {"pitch": 76, "velocity": 102, "note_on_time": 146.503, "note_off_time": 146.579}, {"pitch": 77, "velocity": 93, "note_on_time": 146.895, "note_off_time": 146.967}, {"pitch": 77, "velocity": 88, "note_on_time": 147.089, "note_off_time": 147.161}, {"pitch": 77, "velocity": 100, "note_on_time": 147.302, "note_off_time": 147.387}, {"pitch": 79, "velocity": 87, "note_on_time": 147.728, "note_off_time": 147.781}, {"pitch": 79, "velocity": 71, "note_on_time": 148.02, "note_off_time": 148.092}, {"pitch": 79, "velocity": 84, "note_on_time": 148.207, "note_off_time": 148.307}, {"pitch": 79, "velocity": 98, "note_on_time": 148.574, "note_off_time": 148.679}, {"pitch": 77, "velocity": 95, "note_on_time": 148.837, "note_off_time": 148.931}, {"pitch": 76, "velocity": 100, "note_on_time": 149.093, "note_off_time": 149.172}, {"pitch": 74, "velocity": 104, "note_on_time": 149.334, "note_off_time": 149.414}, {"pitch": 72, "velocity": 101, "note_on_time": 149.602, "note_off_time": 149.693}, {"pitch": 72, "velocity": 108, "note_on_time": 150.116, "note_off_time": 150.213}, {"pitch": 74, "velocity": 105, "note_on_time": 150.388, "note_off_time": 150.457}, {"pitch": 74, "velocity": 91, "note_on_time": 150.642, "note_off_time": 150.707}, {"pitch": 76, "velocity": 79, "note_on_time": 150.908, "note_off_time": 150.977}, {"pitch": 76, "velocity": 98, "note_on_time": 151.15, "note_off_time": 151.227}, {"pitch": 76, "velocity": 98, "note_on_time": 151.389, "note_off_time": 151.479}, {"pitch": 77, "velocity": 103, "note_on_time": 151.84, "note_off_time": 151.923}, {"pitch": 77, "velocity": 98, "note_on_time": 152.065, "note_off_time": 152.144}, {"pitch": 77, "velocity": 99, "note_on_time": 152.284, "note_off_time": 152.362}, {"pitch": 79, "velocity": 82, "note_on_time": 152.689, "note_off_time": 152.792}, {"pitch": 79, "velocity": 76, "note_on_time": 152.906, "note_off_time": 152.985}, {"pitch": 79, "velocity": 91, "note_on_time": 153.118, "note_off_time": 153.21}, {"pitch": 79, "velocity": 88, "note_on_time": 153.513, "note_off_time": 153.619}, {"pitch": 77, "velocity": 96, "note_on_time": 153.801, "note_off_time": 153.889}, {"pitch": 76, "velocity": 73, "note_on_time": 154.097, "note_off_time": 154.212}, {"pitch": 74, "velocity": 94, "note_on_time": 154.38, "note_off_time": 154.474}, {"pitch": 72, "velocity": 94, "note_on_time": 154.652, "note_off_time": 154.777}, {"pitch": 72, "velocity": 89, "note_on_time": 155.273, "note_off_time": 155.726}, {"pitch": 74, "velocity": 87, "note_on_time": 155.65, "note_off_time": 156.004}, {"pitch": 76, "velocity": 81, "note_on_time": 155.963, "note_off_time": 156.086}, {"pitch": 76, "velocity": 104, "note_on_time": 156.487, "note_off_time": 156.585}, {"pitch": 76, "velocity": 113, "note_on_time": 157.016, "note_off_time": 157.119}, {"pitch": 76, "velocity": 112, "note_on_time": 157.524, "note_off_time": 157.66}, {"pitch": 76, "velocity": 113, "note_on_time": 157.989, "note_off_time": 158.27}, {"pitch": 77, "velocity": 30, "note_on_time": 158.331, "note_off_time": 158.413}, {"pitch": 79, "velocity": 45, "note_on_time": 158.334, "note_off_time": 158.618}, {"pitch": 79, "velocity": 95, "note_on_time": 158.755, "note_off_time": 158.836}, {"pitch": 79, "velocity": 105, "note_on_time": 159.219, "note_off_time": 159.322}, {"pitch": 79, "velocity": 100, "note_on_time": 159.641, "note_off_time": 159.764}, {"pitch": 72, "velocity": 94, "note_on_time": 160.126, "note_off_time": 160.199}, {"pitch": 72, "velocity": 97, "note_on_time": 160.364, "note_off_time": 160.43}, {"pitch": 72, "velocity": 103, "note_on_time": 160.578, "note_off_time": 160.658}, {"pitch": 72, "velocity": 103, "note_on_time": 161.034, "note_off_time": 161.121}, {"pitch": 72, "velocity": 104, "note_on_time": 161.478, "note_off_time": 161.577}, {"pitch": 72, "velocity": 65, "note_on_time": 161.971, "note_off_time": 162.071}, {"pitch": 76, "velocity": 68, "note_on_time": 162.302, "note_off_time": 162.342}, {"pitch": 76, "velocity": 88, "note_on_time": 162.492, "note_off_time": 162.568}, {"pitch": 72, "velocity": 80, "note_on_time": 162.872, "note_off_time": 162.981}, {"pitch": 72, "velocity": 77, "note_on_time": 163.272, "note_off_time": 163.38}, {"pitch": 72, "velocity": 93, "note_on_time": 163.668, "note_off_time": 163.794}, {"pitch": 72, "velocity": 59, "note_on_time": 163.911, "note_off_time": 163.956}, {"pitch": 74, "velocity": 103, "note_on_time": 163.919, "note_off_time": 163.989}, {"pitch": 74, "velocity": 80, "note_on_time": 164.115, "note_off_time": 164.198}, {"pitch": 74, "velocity": 86, "note_on_time": 164.331, "note_off_time": 164.4}, {"pitch": 74, "velocity": 108, "note_on_time": 164.557, "note_off_time": 164.641}, {"pitch": 74, "velocity": 98, "note_on_time": 164.952, "note_off_time": 165.043}, {"pitch": 74, "velocity": 115, "note_on_time": 165.315, "note_off_time": 165.418}, {"pitch": 72, "velocity": 87, "note_on_time": 165.708, "note_off_time": 165.807}, {"pitch": 72, "velocity": 101, "note_on_time": 166.164, "note_off_time": 166.259}, {"pitch": 72, "velocity": 95, "note_on_time": 166.54, "note_off_time": 166.627}, {"pitch": 76, "velocity": 78, "note_on_time": 166.989, "note_off_time": 167.033}, {"pitch": 76, "velocity": 79, "note_on_time": 167.131, "note_off_time": 167.198}, {"pitch": 76, "velocity": 94, "note_on_time": 167.327, "note_off_time": 167.398}, {"pitch": 76, "velocity": 101, "note_on_time": 167.746, "note_off_time": 167.837}, {"pitch": 76, "velocity": 95, "note_on_time": 168.177, "note_off_time": 168.283}, {"pitch": 77, "velocity": 89, "note_on_time": 168.69, "note_off_time": 168.736}, {"pitch": 77, "velocity": 90, "note_on_time": 168.847, "note_off_time": 168.916}, {"pitch": 77, "velocity": 93, "note_on_time": 169.039, "note_off_time": 169.11}, {"pitch": 77, "velocity": 107, "note_on_time": 169.393, "note_off_time": 169.484}, {"pitch": 77, "velocity": 102, "note_on_time": 169.741, "note_off_time": 169.831}, {"pitch": 74, "velocity": 95, "note_on_time": 170.117, "note_off_time": 170.186}, {"pitch": 74, "velocity": 91, "note_on_time": 170.295, "note_off_time": 170.35}, {"pitch": 74, "velocity": 100, "note_on_time": 170.459, "note_off_time": 170.54}, {"pitch": 74, "velocity": 111, "note_on_time": 170.867, "note_off_time": 170.951}, {"pitch": 74, "velocity": 105, "note_on_time": 171.267, "note_off_time": 171.369}, {"pitch": 72, "velocity": 88, "note_on_time": 171.597, "note_off_time": 171.681}, {"pitch": 72, "velocity": 74, "note_on_time": 171.853, "note_off_time": 171.907}, {"pitch": 72, "velocity": 87, "note_on_time": 172.029, "note_off_time": 172.115}, {"pitch": 72, "velocity": 86, "note_on_time": 172.23, "note_off_time": 172.309}, {"pitch": 72, "velocity": 87, "note_on_time": 172.414, "note_off_time": 172.506}, {"pitch": 74, "velocity": 100, "note_on_time": 172.76, "note_off_time": 172.834}, {"pitch": 74, "velocity": 100, "note_on_time": 173.088, "note_off_time": 173.156}, {"pitch": 74, "velocity": 92, "note_on_time": 173.28, "note_off_time": 173.336}, {"pitch": 74, "velocity": 100, "note_on_time": 173.428, "note_off_time": 173.498}, {"pitch": 79, "velocity": 81, "note_on_time": 173.902, "note_off_time": 173.995}, {"pitch": 79, "velocity": 90, "note_on_time": 174.176, "note_off_time": 174.28}, {"pitch": 79, "velocity": 76, "note_on_time": 174.397, "note_off_time": 174.467}, {"pitch": 79, "velocity": 87, "note_on_time": 174.553, "note_off_time": 174.637}, {"pitch": 79, "velocity": 89, "note_on_time": 174.714, "note_off_time": 174.82}, {"pitch": 77, "velocity": 96, "note_on_time": 175.152, "note_off_time": 175.232}, {"pitch": 77, "velocity": 93, "note_on_time": 175.517, "note_off_time": 175.608}, {"pitch": 77, "velocity": 81, "note_on_time": 175.735, "note_off_time": 175.796}, {"pitch": 77, "velocity": 92, "note_on_time": 175.911, "note_off_time": 176.009}, {"pitch": 77, "velocity": 102, "note_on_time": 176.3, "note_off_time": 176.416}, {"pitch": 74, "velocity": 76, "note_on_time": 176.789, "note_off_time": 176.829}, {"pitch": 74, "velocity": 85, "note_on_time": 177.116, "note_off_time": 177.168}, {"pitch": 74, "velocity": 81, "note_on_time": 177.313, "note_off_time": 177.35}, {"pitch": 74, "velocity": 95, "note_on_time": 177.453, "note_off_time": 177.538}, {"pitch": 74, "velocity": 114, "note_on_time": 177.846, "note_off_time": 177.916}, {"pitch": 76, "velocity": 101, "note_on_time": 178.278, "note_off_time": 178.344}, {"pitch": 76, "velocity": 101, "note_on_time": 178.634, "note_off_time": 178.7}, {"pitch": 76, "velocity": 95, "note_on_time": 178.819, "note_off_time": 178.872}, {"pitch": 76, "velocity": 102, "note_on_time": 178.975, "note_off_time": 179.04}, {"pitch": 76, "velocity": 114, "note_on_time": 179.358, "note_off_time": 179.426}, {"pitch": 76, "velocity": 115, "note_on_time": 179.703, "note_off_time": 179.774}, {"pitch": 79, "velocity": 97, "note_on_time": 180.371, "note_off_time": 180.483}, {"pitch": 79, "velocity": 84, "note_on_time": 180.955, "note_off_time": 181.047}, {"pitch": 79, "velocity": 94, "note_on_time": 181.221, "note_off_time": 181.295}, {"pitch": 79, "velocity": 83, "note_on_time": 181.435, "note_off_time": 181.478}, {"pitch": 79, "velocity": 85, "note_on_time": 181.591, "note_off_time": 181.661}, {"pitch": 79, "velocity": 92, "note_on_time": 181.992, "note_off_time": 182.031}, {"pitch": 79, "velocity": 103, "note_on_time": 182.285, "note_off_time": 182.386}, {"pitch": 76, "velocity": 81, "note_on_time": 182.877, "note_off_time": 182.93}, {"pitch": 76, "velocity": 101, "note_on_time": 183.343, "note_off_time": 183.405}, {"pitch": 76, "velocity": 100, "note_on_time": 183.882, "note_off_time": 183.941}, {"pitch": 76, "velocity": 89, "note_on_time": 184.08, "note_off_time": 184.113}, {"pitch": 76, "velocity": 94, "note_on_time": 184.246, "note_off_time": 184.299}, {"pitch": 76, "velocity": 108, "note_on_time": 184.662, "note_off_time": 184.726}, {"pitch": 76, "velocity": 105, "note_on_time": 184.877, "note_off_time": 184.943}, {"pitch": 76, "velocity": 115, "note_on_time": 185.082, "note_off_time": 185.146}, {"pitch": 72, "velocity": 106, "note_on_time": 185.482, "note_off_time": 185.558}, {"pitch": 72, "velocity": 109, "note_on_time": 185.884, "note_off_time": 185.963}, {"pitch": 72, "velocity": 97, "note_on_time": 186.269, "note_off_time": 186.347}, {"pitch": 72, "velocity": 92, "note_on_time": 186.641, "note_off_time": 186.681}, {"pitch": 72, "velocity": 88, "note_on_time": 186.801, "note_off_time": 186.846}, {"pitch": 72, "velocity": 94, "note_on_time": 186.97, "note_off_time": 187.029}, {"pitch": 72, "velocity": 99, "note_on_time": 187.367, "note_off_time": 187.421}, {"pitch": 72, "velocity": 94, "note_on_time": 187.573, "note_off_time": 187.614}, {"pitch": 72, "velocity": 104, "note_on_time": 187.755, "note_off_time": 187.821}, {"pitch": 74, "velocity": 114, "note_on_time": 188.153, "note_off_time": 188.221}, {"pitch": 74, "velocity": 106, "note_on_time": 188.538, "note_off_time": 188.605}, {"pitch": 74, "velocity": 115, "note_on_time": 188.894, "note_off_time": 188.972}, {"pitch": 76, "velocity": 85, "note_on_time": 189.277, "note_off_time": 189.312}, {"pitch": 76, "velocity": 89, "note_on_time": 189.455, "note_off_time": 189.501}, {"pitch": 76, "velocity": 79, "note_on_time": 189.619, "note_off_time": 189.667}, {"pitch": 76, "velocity": 105, "note_on_time": 190.036, "note_off_time": 190.101}, {"pitch": 76, "velocity": 115, "note_on_time": 190.372, "note_off_time": 190.447}, {"pitch": 79, "velocity": 71, "note_on_time": 190.779, "note_off_time": 190.818}, {"pitch": 79, "velocity": 68, "note_on_time": 190.96, "note_off_time": 190.998}, {"pitch": 79, "velocity": 69, "note_on_time": 191.134, "note_off_time": 191.174}, {"pitch": 79, "velocity": 112, "note_on_time": 191.488, "note_off_time": 191.579}, {"pitch": 79, "velocity": 114, "note_on_time": 191.871, "note_off_time": 191.964}, {"pitch": 77, "velocity": 94, "note_on_time": 192.738, "note_off_time": 192.798}, {"pitch": 77, "velocity": 86, "note_on_time": 192.919, "note_off_time": 192.963}, {"pitch": 77, "velocity": 93, "note_on_time": 193.104, "note_off_time": 193.157}, {"pitch": 77, "velocity": 102, "note_on_time": 193.49, "note_off_time": 193.56}, {"pitch": 77, "velocity": 104, "note_on_time": 193.848, "note_off_time": 193.926}]</notes><guidance name="Guidance Mode">None</guidance><error name="Error value">99</error></trial></trials></MIDI>