<MIDI midiNo="2024_03_11-12_47_48"><target_notes><notes name="Note List">[{"pitch": 60, "velocity": 40, "note_on_time": 0.01, "note_off_time": 1.022}, {"pitch": 64, "velocity": 40, "note_on_time": 0.01, "note_off_time": 1.022}, {"pitch": 67, "velocity": 40, "note_on_time": 0.01, "note_off_time": 1.023}, {"pitch": 48, "velocity": 40, "note_on_time": 0.01, "note_off_time": 1.023}, {"pitch": 52, "velocity": 40, "note_on_time": 1.023, "note_off_time": 2.032}, {"pitch": 55, "velocity": 40, "note_on_time": 1.023, "note_off_time": 2.032}, {"pitch": 79, "velocity": 40, "note_on_time": 2.032, "note_off_time": 3.047}, {"pitch": 48, "velocity": 40, "note_on_time": 2.032, "note_off_time": 3.047}, {"pitch": 52, "velocity": 40, "note_on_time": 3.048, "note_off_time": 4.056}, {"pitch": 55, "velocity": 40, "note_on_time": 3.048, "note_off_time": 4.056}, {"pitch": 48, "velocity": 40, "note_on_time": 4.056, "note_off_time": 5.061}, {"pitch": 52, "velocity": 40, "note_on_time": 5.061, "note_off_time": 6.066}, {"pitch": 55, "velocity": 40, "note_on_time": 5.061, "note_off_time": 6.066}, {"pitch": 48, "velocity": 40, "note_on_time": 6.066, "note_off_time": 7.073}, {"pitch": 52, "velocity": 40, "note_on_time": 7.073, "note_off_time": 8.081}, {"pitch": 55, "velocity": 40, "note_on_time": 7.073, "note_off_time": 8.082}, {"pitch": 60, "velocity": 40, "note_on_time": 8.08, "note_off_time": 9.088}, {"pitch": 64, "velocity": 40, "note_on_time": 8.081, "note_off_time": 9.089}, {"pitch": 67, "velocity": 40, "note_on_time": 8.081, "note_off_time": 9.09}, {"pitch": 48, "velocity": 40, "note_on_time": 8.082, "note_off_time": 9.09}, {"pitch": 52, "velocity": 40, "note_on_time": 9.09, "note_off_time": 10.091}, {"pitch": 55, "velocity": 40, "note_on_time": 9.09, "note_off_time": 10.092}, {"pitch": 74, "velocity": 40, "note_on_time": 10.091, "note_off_time": 11.093}, {"pitch": 48, "velocity": 40, "note_on_time": 10.092, "note_off_time": 11.093}, {"pitch": 52, "velocity": 40, "note_on_time": 11.093, "note_off_time": 12.109}, {"pitch": 55, "velocity": 40, "note_on_time": 11.093, "note_off_time": 12.109}, {"pitch": 48, "velocity": 40, "note_on_time": 12.109, "note_off_time": 13.11}, {"pitch": 52, "velocity": 40, "note_on_time": 13.11, "note_off_time": 14.112}, {"pitch": 55, "velocity": 40, "note_on_time": 13.11, "note_off_time": 14.112}, {"pitch": 48, "velocity": 40, "note_on_time": 14.112, "note_off_time": 15.128}, {"pitch": 52, "velocity": 40, "note_on_time": 15.128, "note_off_time": 16.145}, {"pitch": 55, "velocity": 40, "note_on_time": 15.128, "note_off_time": 16.145}, {"pitch": 60, "velocity": 40, "note_on_time": 16.144, "note_off_time": 17.161}, {"pitch": 64, "velocity": 40, "note_on_time": 16.144, "note_off_time": 17.162}, {"pitch": 67, "velocity": 40, "note_on_time": 16.145, "note_off_time": 17.163}, {"pitch": 48, "velocity": 40, "note_on_time": 16.145, "note_off_time": 17.163}, {"pitch": 52, "velocity": 40, "note_on_time": 17.163, "note_off_time": 18.169}, {"pitch": 55, "velocity": 40, "note_on_time": 17.163, "note_off_time": 18.17}, {"pitch": 72, "velocity": 40, "note_on_time": 18.169, "note_off_time": 19.177}, {"pitch": 48, "velocity": 40, "note_on_time": 18.17, "note_off_time": 19.177}, {"pitch": 52, "velocity": 40, "note_on_time": 19.177, "note_off_time": 20.181}, {"pitch": 55, "velocity": 40, "note_on_time": 19.177, "note_off_time": 20.181}, {"pitch": 48, "velocity": 40, "note_on_time": 20.181, "note_off_time": 21.188}, {"pitch": 52, "velocity": 40, "note_on_time": 21.188, "note_off_time": 22.2}, {"pitch": 55, "velocity": 40, "note_on_time": 21.188, "note_off_time": 22.2}, {"pitch": 48, "velocity": 40, "note_on_time": 22.2, "note_off_time": 23.213}, {"pitch": 52, "velocity": 40, "note_on_time": 23.213, "note_off_time": 24.216}, {"pitch": 55, "velocity": 40, "note_on_time": 23.213, "note_off_time": 24.216}, {"pitch": 60, "velocity": 40, "note_on_time": 24.215, "note_off_time": 25.218}, {"pitch": 64, "velocity": 40, "note_on_time": 24.216, "note_off_time": 25.219}, {"pitch": 67, "velocity": 40, "note_on_time": 24.216, "note_off_time": 25.219}, {"pitch": 48, "velocity": 40, "note_on_time": 24.216, "note_off_time": 25.22}, {"pitch": 52, "velocity": 40, "note_on_time": 25.22, "note_off_time": 26.234}, {"pitch": 55, "velocity": 40, "note_on_time": 25.22, "note_off_time": 26.235}, {"pitch": 77, "velocity": 40, "note_on_time": 26.234, "note_off_time": 27.237}, {"pitch": 48, "velocity": 40, "note_on_time": 26.235, "note_off_time": 27.237}, {"pitch": 52, "velocity": 40, "note_on_time": 27.237, "note_off_time": 28.252}, {"pitch": 55, "velocity": 40, "note_on_time": 27.237, "note_off_time": 28.252}, {"pitch": 48, "velocity": 40, "note_on_time": 28.252, "note_off_time": 29.257}, {"pitch": 52, "velocity": 40, "note_on_time": 29.257, "note_off_time": 30.259}, {"pitch": 55, "velocity": 40, "note_on_time": 29.257, "note_off_time": 30.259}, {"pitch": 48, "velocity": 40, "note_on_time": 30.259, "note_off_time": 31.275}, {"pitch": 52, "velocity": 40, "note_on_time": 31.275, "note_off_time": 32.282}, {"pitch": 55, "velocity": 40, "note_on_time": 31.275, "note_off_time": 32.283}, {"pitch": 60, "velocity": 40, "note_on_time": 32.281, "note_off_time": 33.284}, {"pitch": 64, "velocity": 40, "note_on_time": 32.282, "note_off_time": 33.285}, {"pitch": 67, "velocity": 40, "note_on_time": 32.282, "note_off_time": 33.285}, {"pitch": 48, "velocity": 40, "note_on_time": 32.283, "note_off_time": 33.286}, {"pitch": 52, "velocity": 40, "note_on_time": 33.286, "note_off_time": 34.289}, {"pitch": 55, "velocity": 40, "note_on_time": 33.286, "note_off_time": 34.29}, {"pitch": 72, "velocity": 40, "note_on_time": 34.289, "note_off_time": 35.305}, {"pitch": 48, "velocity": 40, "note_on_time": 34.29, "note_off_time": 35.305}, {"pitch": 52, "velocity": 40, "note_on_time": 35.305, "note_off_time": 36.307}, {"pitch": 55, "velocity": 40, "note_on_time": 35.306, "note_off_time": 36.307}, {"pitch": 48, "velocity": 40, "note_on_time": 36.307, "note_off_time": 37.315}, {"pitch": 52, "velocity": 40, "note_on_time": 37.315, "note_off_time": 38.324}, {"pitch": 55, "velocity": 40, "note_on_time": 37.315, "note_off_time": 38.324}, {"pitch": 48, "velocity": 40, "note_on_time": 38.324, "note_off_time": 39.33}, {"pitch": 52, "velocity": 40, "note_on_time": 39.33, "note_off_time": 40.335}, {"pitch": 55, "velocity": 40, "note_on_time": 39.33, "note_off_time": 40.335}, {"pitch": 60, "velocity": 40, "note_on_time": 40.334, "note_off_time": 41.338}, {"pitch": 64, "velocity": 40, "note_on_time": 40.335, "note_off_time": 41.338}, {"pitch": 67, "velocity": 40, "note_on_time": 40.335, "note_off_time": 41.339}, {"pitch": 74, "velocity": 40, "note_on_time": 42.347, "note_off_time": 43.357}, {"pitch": 60, "velocity": 40, "note_on_time": 48.362, "note_off_time": 49.365}, {"pitch": 64, "velocity": 40, "note_on_time": 48.363, "note_off_time": 49.367}, {"pitch": 67, "velocity": 40, "note_on_time": 48.363, "note_off_time": 49.367}, {"pitch": 77, "velocity": 40, "note_on_time": 50.38, "note_off_time": 51.39}, {"pitch": 60, "velocity": 40, "note_on_time": 56.401, "note_off_time": 57.407}, {"pitch": 64, "velocity": 40, "note_on_time": 56.402, "note_off_time": 57.408}, {"pitch": 67, "velocity": 40, "note_on_time": 56.402, "note_off_time": 57.408}, {"pitch": 79, "velocity": 40, "note_on_time": 58.42, "note_off_time": 59.423}, {"pitch": 60, "velocity": 40, "note_on_time": 64.43, "note_off_time": 65.446}, {"pitch": 64, "velocity": 40, "note_on_time": 64.432, "note_off_time": 65.447}, {"pitch": 67, "velocity": 40, "note_on_time": 64.432, "note_off_time": 65.447}, {"pitch": 72, "velocity": 40, "note_on_time": 66.454, "note_off_time": 67.456}, {"pitch": 60, "velocity": 40, "note_on_time": 72.458, "note_off_time": 73.462}, {"pitch": 64, "velocity": 40, "note_on_time": 72.459, "note_off_time": 73.463}, {"pitch": 67, "velocity": 40, "note_on_time": 72.459, "note_off_time": 73.463}, {"pitch": 74, "velocity": 40, "note_on_time": 74.468, "note_off_time": 75.482}, {"pitch": 60, "velocity": 40, "note_on_time": 80.493, "note_off_time": 81.507}, {"pitch": 64, "velocity": 40, "note_on_time": 80.494, "note_off_time": 81.508}, {"pitch": 67, "velocity": 40, "note_on_time": 80.494, "note_off_time": 81.508}, {"pitch": 76, "velocity": 40, "note_on_time": 82.514, "note_off_time": 83.524}, {"pitch": 60, "velocity": 40, "note_on_time": 88.537, "note_off_time": 89.552}, {"pitch": 64, "velocity": 40, "note_on_time": 88.538, "note_off_time": 89.552}, {"pitch": 67, "velocity": 40, "note_on_time": 88.538, "note_off_time": 89.553}, {"pitch": 79, "velocity": 40, "note_on_time": 90.558, "note_off_time": 91.564}, {"pitch": 60, "velocity": 40, "note_on_time": 96.57, "note_off_time": 97.585}, {"pitch": 64, "velocity": 40, "note_on_time": 96.572, "note_off_time": 97.586}, {"pitch": 67, "velocity": 40, "note_on_time": 96.572, "note_off_time": 97.587}, {"pitch": 76, "velocity": 40, "note_on_time": 98.601, "note_off_time": 99.61}, {"pitch": 60, "velocity": 40, "note_on_time": 104.626, "note_off_time": 105.641}, {"pitch": 64, "velocity": 40, "note_on_time": 104.627, "note_off_time": 105.642}, {"pitch": 67, "velocity": 40, "note_on_time": 104.627, "note_off_time": 105.642}, {"pitch": 77, "velocity": 40, "note_on_time": 106.649, "note_off_time": 107.654}, {"pitch": 60, "velocity": 40, "note_on_time": 112.659, "note_off_time": 113.669}, {"pitch": 64, "velocity": 40, "note_on_time": 112.66, "note_off_time": 113.67}, {"pitch": 67, "velocity": 40, "note_on_time": 112.66, "note_off_time": 113.671}, {"pitch": 76, "velocity": 40, "note_on_time": 114.684, "note_off_time": 115.688}, {"pitch": 60, "velocity": 40, "note_on_time": 120.697, "note_off_time": 121.712}, {"pitch": 64, "velocity": 40, "note_on_time": 120.697, "note_off_time": 121.712}, {"pitch": 67, "velocity": 40, "note_on_time": 120.697, "note_off_time": 121.712}, {"pitch": 74, "velocity": 40, "note_on_time": 122.715, "note_off_time": 123.725}, {"pitch": 60, "velocity": 40, "note_on_time": 128.741, "note_off_time": 129.757}, {"pitch": 64, "velocity": 40, "note_on_time": 128.742, "note_off_time": 129.758}, {"pitch": 67, "velocity": 40, "note_on_time": 128.742, "note_off_time": 129.759}, {"pitch": 77, "velocity": 40, "note_on_time": 130.768, "note_off_time": 131.779}, {"pitch": 60, "velocity": 40, "note_on_time": 136.78, "note_off_time": 137.791}, {"pitch": 64, "velocity": 40, "note_on_time": 136.781, "note_off_time": 137.791}, {"pitch": 67, "velocity": 40, "note_on_time": 136.782, "note_off_time": 137.792}, {"pitch": 72, "velocity": 40, "note_on_time": 138.805, "note_off_time": 139.817}, {"pitch": 60, "velocity": 40, "note_on_time": 144.82, "note_off_time": 145.83}, {"pitch": 64, "velocity": 40, "note_on_time": 144.821, "note_off_time": 145.832}, {"pitch": 67, "velocity": 40, "note_on_time": 144.821, "note_off_time": 145.832}, {"pitch": 79, "velocity": 40, "note_on_time": 146.845, "note_off_time": 147.848}, {"pitch": 60, "velocity": 40, "note_on_time": 152.853, "note_off_time": 153.868}, {"pitch": 64, "velocity": 40, "note_on_time": 152.854, "note_off_time": 153.869}, {"pitch": 67, "velocity": 40, "note_on_time": 152.854, "note_off_time": 153.869}, {"pitch": 76, "velocity": 40, "note_on_time": 154.873, "note_off_time": 155.875}, {"pitch": 60, "velocity": 40, "note_on_time": 160.88, "note_off_time": 161.882}, {"pitch": 64, "velocity": 40, "note_on_time": 160.881, "note_off_time": 161.882}, {"pitch": 67, "velocity": 40, "note_on_time": 160.881, "note_off_time": 161.883}, {"pitch": 79, "velocity": 40, "note_on_time": 162.896, "note_off_time": 163.897}]</notes><options name="Option List">((4, 4), [0.5, 0.25], 3, 8, &lt;NoteRangePerHand.TWO_NOTES: 3&gt;, &lt;NoteRangePerHand.ONE_NOTE: 2&gt;, False, True, True, 100)</options></target_notes><trials><trial trial_no="1" timestamp="2024_03_11-12_45_04"><notes name="Played Notes">[{"pitch": 79, "velocity": 58, "note_on_time": 3.416, "note_off_time": 4.46}, {"pitch": 76, "velocity": 34, "note_on_time": 11.425, "note_off_time": 11.739}, {"pitch": 77, "velocity": 66, "note_on_time": 12.424, "note_off_time": 13.263}, {"pitch": 74, "velocity": 44, "note_on_time": 15.632, "note_off_time": 16.279}, {"pitch": 72, "velocity": 57, "note_on_time": 19.428, "note_off_time": 20.652}, {"pitch": 77, "velocity": 61, "note_on_time": 27.526, "note_off_time": 28.654}, {"pitch": 72, "velocity": 42, "note_on_time": 35.641, "note_off_time": 36.658}, {"pitch": 74, "velocity": 53, "note_on_time": 43.766, "note_off_time": 44.886}, {"pitch": 77, "velocity": 56, "note_on_time": 52.682, "note_off_time": 53.758}, {"pitch": 79, "velocity": 63, "note_on_time": 59.775, "note_off_time": 61.023}, {"pitch": 72, "velocity": 49, "note_on_time": 67.899, "note_off_time": 69.202}, {"pitch": 74, "velocity": 39, "note_on_time": 75.957, "note_off_time": 77.217}, {"pitch": 77, "velocity": 57, "note_on_time": 83.896, "note_off_time": 84.238}, {"pitch": 76, "velocity": 65, "note_on_time": 84.786, "note_off_time": 86.374}, {"pitch": 79, "velocity": 51, "note_on_time": 91.962, "note_off_time": 93.426}, {"pitch": 76, "velocity": 59, "note_on_time": 102.012, "note_off_time": 103.14}, {"pitch": 77, "velocity": 60, "note_on_time": 107.978, "note_off_time": 109.383}, {"pitch": 77, "velocity": 51, "note_on_time": 116.008, "note_off_time": 116.282}, {"pitch": 76, "velocity": 65, "note_on_time": 116.623, "note_off_time": 118.345}, {"pitch": 74, "velocity": 49, "note_on_time": 123.965, "note_off_time": 125.252}, {"pitch": 76, "velocity": 58, "note_on_time": 132.377, "note_off_time": 132.72}, {"pitch": 77, "velocity": 59, "note_on_time": 133.14, "note_off_time": 135.31}, {"pitch": 72, "velocity": 45, "note_on_time": 140.171, "note_off_time": 141.592}, {"pitch": 79, "velocity": 54, "note_on_time": 148.151, "note_off_time": 149.42}, {"pitch": 77, "velocity": 54, "note_on_time": 156.187, "note_off_time": 156.463}, {"pitch": 76, "velocity": 61, "note_on_time": 157.437, "note_off_time": 158.937}]</notes><guidance name="Guidance Mode">None</guidance><error name="Error value">99</error></trial></trials></MIDI>