<MIDI midiNo="2024_03_04-12_19_36"><target_notes><notes name="Note List">[{"pitch": 60, "velocity": 40, "note_on_time": 0.009, "note_off_time": 1.018}, {"pitch": 64, "velocity": 40, "note_on_time": 0.009, "note_off_time": 1.019}, {"pitch": 67, "velocity": 40, "note_on_time": 0.009, "note_off_time": 1.02}, {"pitch": 48, "velocity": 40, "note_on_time": 0.009, "note_off_time": 1.02}, {"pitch": 52, "velocity": 40, "note_on_time": 1.02, "note_off_time": 2.025}, {"pitch": 55, "velocity": 40, "note_on_time": 1.02, "note_off_time": 2.026}, {"pitch": 72, "velocity": 40, "note_on_time": 2.025, "note_off_time": 3.04}, {"pitch": 48, "velocity": 40, "note_on_time": 2.026, "note_off_time": 3.041}, {"pitch": 52, "velocity": 40, "note_on_time": 3.041, "note_off_time": 4.044}, {"pitch": 55, "velocity": 40, "note_on_time": 3.041, "note_off_time": 4.044}, {"pitch": 48, "velocity": 40, "note_on_time": 4.044, "note_off_time": 5.051}, {"pitch": 52, "velocity": 40, "note_on_time": 5.051, "note_off_time": 6.057}, {"pitch": 55, "velocity": 40, "note_on_time": 5.052, "note_off_time": 6.057}, {"pitch": 48, "velocity": 40, "note_on_time": 6.057, "note_off_time": 7.058}, {"pitch": 52, "velocity": 40, "note_on_time": 7.058, "note_off_time": 8.066}, {"pitch": 55, "velocity": 40, "note_on_time": 7.058, "note_off_time": 8.066}, {"pitch": 60, "velocity": 40, "note_on_time": 8.064, "note_off_time": 9.079}, {"pitch": 64, "velocity": 40, "note_on_time": 8.065, "note_off_time": 9.081}, {"pitch": 67, "velocity": 40, "note_on_time": 8.066, "note_off_time": 9.081}, {"pitch": 48, "velocity": 40, "note_on_time": 8.066, "note_off_time": 9.081}, {"pitch": 52, "velocity": 40, "note_on_time": 9.081, "note_off_time": 10.095}, {"pitch": 55, "velocity": 40, "note_on_time": 9.081, "note_off_time": 10.095}, {"pitch": 77, "velocity": 40, "note_on_time": 10.095, "note_off_time": 11.1}, {"pitch": 48, "velocity": 40, "note_on_time": 10.095, "note_off_time": 11.101}, {"pitch": 52, "velocity": 40, "note_on_time": 11.101, "note_off_time": 12.102}, {"pitch": 55, "velocity": 40, "note_on_time": 11.101, "note_off_time": 12.102}, {"pitch": 48, "velocity": 40, "note_on_time": 12.102, "note_off_time": 13.108}, {"pitch": 52, "velocity": 40, "note_on_time": 13.108, "note_off_time": 14.111}, {"pitch": 55, "velocity": 40, "note_on_time": 13.108, "note_off_time": 14.111}, {"pitch": 48, "velocity": 40, "note_on_time": 14.111, "note_off_time": 15.116}, {"pitch": 52, "velocity": 40, "note_on_time": 15.116, "note_off_time": 16.119}, {"pitch": 55, "velocity": 40, "note_on_time": 15.116, "note_off_time": 16.119}, {"pitch": 60, "velocity": 40, "note_on_time": 16.118, "note_off_time": 17.131}, {"pitch": 64, "velocity": 40, "note_on_time": 16.118, "note_off_time": 17.132}, {"pitch": 67, "velocity": 40, "note_on_time": 16.119, "note_off_time": 17.133}, {"pitch": 48, "velocity": 40, "note_on_time": 16.119, "note_off_time": 17.133}, {"pitch": 52, "velocity": 40, "note_on_time": 17.133, "note_off_time": 18.146}, {"pitch": 55, "velocity": 40, "note_on_time": 17.133, "note_off_time": 18.146}, {"pitch": 74, "velocity": 40, "note_on_time": 18.146, "note_off_time": 19.162}, {"pitch": 48, "velocity": 40, "note_on_time": 18.146, "note_off_time": 19.162}, {"pitch": 52, "velocity": 40, "note_on_time": 19.162, "note_off_time": 20.168}, {"pitch": 55, "velocity": 40, "note_on_time": 19.162, "note_off_time": 20.168}, {"pitch": 48, "velocity": 40, "note_on_time": 20.168, "note_off_time": 21.17}, {"pitch": 52, "velocity": 40, "note_on_time": 21.17, "note_off_time": 22.175}, {"pitch": 55, "velocity": 40, "note_on_time": 21.17, "note_off_time": 22.175}, {"pitch": 48, "velocity": 40, "note_on_time": 22.175, "note_off_time": 23.181}, {"pitch": 52, "velocity": 40, "note_on_time": 23.181, "note_off_time": 24.196}, {"pitch": 55, "velocity": 40, "note_on_time": 23.181, "note_off_time": 24.196}, {"pitch": 60, "velocity": 40, "note_on_time": 24.194, "note_off_time": 25.201}, {"pitch": 64, "velocity": 40, "note_on_time": 24.196, "note_off_time": 25.202}, {"pitch": 67, "velocity": 40, "note_on_time": 24.196, "note_off_time": 25.203}, {"pitch": 48, "velocity": 40, "note_on_time": 24.196, "note_off_time": 25.203}, {"pitch": 52, "velocity": 40, "note_on_time": 25.203, "note_off_time": 26.212}, {"pitch": 55, "velocity": 40, "note_on_time": 25.203, "note_off_time": 26.212}, {"pitch": 72, "velocity": 40, "note_on_time": 26.212, "note_off_time": 27.227}, {"pitch": 48, "velocity": 40, "note_on_time": 26.212, "note_off_time": 27.228}, {"pitch": 52, "velocity": 40, "note_on_time": 27.228, "note_off_time": 28.231}, {"pitch": 55, "velocity": 40, "note_on_time": 27.228, "note_off_time": 28.231}, {"pitch": 48, "velocity": 40, "note_on_time": 28.231, "note_off_time": 29.232}, {"pitch": 52, "velocity": 40, "note_on_time": 29.232, "note_off_time": 30.237}, {"pitch": 55, "velocity": 40, "note_on_time": 29.232, "note_off_time": 30.237}, {"pitch": 48, "velocity": 40, "note_on_time": 30.237, "note_off_time": 31.247}, {"pitch": 52, "velocity": 40, "note_on_time": 31.247, "note_off_time": 32.264}, {"pitch": 55, "velocity": 40, "note_on_time": 31.247, "note_off_time": 32.265}, {"pitch": 60, "velocity": 40, "note_on_time": 32.263, "note_off_time": 33.279}, {"pitch": 64, "velocity": 40, "note_on_time": 32.264, "note_off_time": 33.28}, {"pitch": 67, "velocity": 40, "note_on_time": 32.264, "note_off_time": 33.281}, {"pitch": 48, "velocity": 40, "note_on_time": 32.265, "note_off_time": 33.281}, {"pitch": 52, "velocity": 40, "note_on_time": 33.281, "note_off_time": 34.285}, {"pitch": 55, "velocity": 40, "note_on_time": 33.281, "note_off_time": 34.285}, {"pitch": 79, "velocity": 40, "note_on_time": 34.284, "note_off_time": 35.29}, {"pitch": 48, "velocity": 40, "note_on_time": 34.285, "note_off_time": 35.291}, {"pitch": 52, "velocity": 40, "note_on_time": 35.291, "note_off_time": 36.299}, {"pitch": 55, "velocity": 40, "note_on_time": 35.291, "note_off_time": 36.299}, {"pitch": 48, "velocity": 40, "note_on_time": 36.299, "note_off_time": 37.305}, {"pitch": 52, "velocity": 40, "note_on_time": 37.305, "note_off_time": 38.306}, {"pitch": 55, "velocity": 40, "note_on_time": 37.305, "note_off_time": 38.306}, {"pitch": 48, "velocity": 40, "note_on_time": 38.306, "note_off_time": 39.322}, {"pitch": 52, "velocity": 40, "note_on_time": 39.322, "note_off_time": 40.326}, {"pitch": 55, "velocity": 40, "note_on_time": 39.322, "note_off_time": 40.326}, {"pitch": 60, "velocity": 40, "note_on_time": 40.324, "note_off_time": 41.33}, {"pitch": 64, "velocity": 40, "note_on_time": 40.325, "note_off_time": 41.331}, {"pitch": 67, "velocity": 40, "note_on_time": 40.326, "note_off_time": 41.332}, {"pitch": 76, "velocity": 40, "note_on_time": 42.336, "note_off_time": 43.344}, {"pitch": 60, "velocity": 40, "note_on_time": 48.354, "note_off_time": 49.358}, {"pitch": 64, "velocity": 40, "note_on_time": 48.355, "note_off_time": 49.36}, {"pitch": 67, "velocity": 40, "note_on_time": 48.355, "note_off_time": 49.36}, {"pitch": 72, "velocity": 40, "note_on_time": 50.374, "note_off_time": 51.391}, {"pitch": 60, "velocity": 40, "note_on_time": 56.393, "note_off_time": 57.396}, {"pitch": 64, "velocity": 40, "note_on_time": 56.394, "note_off_time": 57.398}, {"pitch": 67, "velocity": 40, "note_on_time": 56.395, "note_off_time": 57.398}, {"pitch": 76, "velocity": 40, "note_on_time": 58.413, "note_off_time": 59.419}, {"pitch": 60, "velocity": 40, "note_on_time": 64.432, "note_off_time": 65.435}, {"pitch": 64, "velocity": 40, "note_on_time": 64.433, "note_off_time": 65.436}, {"pitch": 67, "velocity": 40, "note_on_time": 64.434, "note_off_time": 65.437}, {"pitch": 79, "velocity": 40, "note_on_time": 66.444, "note_off_time": 67.452}, {"pitch": 60, "velocity": 40, "note_on_time": 72.461, "note_off_time": 73.478}, {"pitch": 64, "velocity": 40, "note_on_time": 72.461, "note_off_time": 73.479}, {"pitch": 67, "velocity": 40, "note_on_time": 72.462, "note_off_time": 73.48}, {"pitch": 72, "velocity": 40, "note_on_time": 74.494, "note_off_time": 75.507}, {"pitch": 60, "velocity": 40, "note_on_time": 80.522, "note_off_time": 81.532}, {"pitch": 64, "velocity": 40, "note_on_time": 80.522, "note_off_time": 81.532}, {"pitch": 67, "velocity": 40, "note_on_time": 80.523, "note_off_time": 81.533}, {"pitch": 77, "velocity": 40, "note_on_time": 82.538, "note_off_time": 83.551}, {"pitch": 60, "velocity": 40, "note_on_time": 88.563, "note_off_time": 89.567}, {"pitch": 64, "velocity": 40, "note_on_time": 88.564, "note_off_time": 89.567}, {"pitch": 67, "velocity": 40, "note_on_time": 88.564, "note_off_time": 89.568}, {"pitch": 76, "velocity": 40, "note_on_time": 90.573, "note_off_time": 91.579}, {"pitch": 60, "velocity": 40, "note_on_time": 96.588, "note_off_time": 97.592}, {"pitch": 64, "velocity": 40, "note_on_time": 96.589, "note_off_time": 97.593}, {"pitch": 67, "velocity": 40, "note_on_time": 96.59, "note_off_time": 97.594}, {"pitch": 74, "velocity": 40, "note_on_time": 98.595, "note_off_time": 99.604}, {"pitch": 60, "velocity": 40, "note_on_time": 104.618, "note_off_time": 105.627}, {"pitch": 64, "velocity": 40, "note_on_time": 104.619, "note_off_time": 105.628}, {"pitch": 67, "velocity": 40, "note_on_time": 104.62, "note_off_time": 105.628}, {"pitch": 76, "velocity": 40, "note_on_time": 106.637, "note_off_time": 107.648}, {"pitch": 60, "velocity": 40, "note_on_time": 112.655, "note_off_time": 113.667}, {"pitch": 64, "velocity": 40, "note_on_time": 112.655, "note_off_time": 113.668}, {"pitch": 67, "velocity": 40, "note_on_time": 112.656, "note_off_time": 113.668}, {"pitch": 74, "velocity": 40, "note_on_time": 114.676, "note_off_time": 115.689}, {"pitch": 60, "velocity": 40, "note_on_time": 120.693, "note_off_time": 121.696}, {"pitch": 64, "velocity": 40, "note_on_time": 120.694, "note_off_time": 121.697}, {"pitch": 67, "velocity": 40, "note_on_time": 120.694, "note_off_time": 121.698}, {"pitch": 79, "velocity": 40, "note_on_time": 122.7, "note_off_time": 123.702}, {"pitch": 60, "velocity": 40, "note_on_time": 128.708, "note_off_time": 129.72}, {"pitch": 64, "velocity": 40, "note_on_time": 128.709, "note_off_time": 129.72}, {"pitch": 67, "velocity": 40, "note_on_time": 128.709, "note_off_time": 129.721}, {"pitch": 77, "velocity": 40, "note_on_time": 130.735, "note_off_time": 131.752}, {"pitch": 60, "velocity": 40, "note_on_time": 136.754, "note_off_time": 137.77}, {"pitch": 64, "velocity": 40, "note_on_time": 136.755, "note_off_time": 137.771}, {"pitch": 67, "velocity": 40, "note_on_time": 136.755, "note_off_time": 137.771}, {"pitch": 74, "velocity": 40, "note_on_time": 138.778, "note_off_time": 139.795}, {"pitch": 60, "velocity": 40, "note_on_time": 144.797, "note_off_time": 145.802}, {"pitch": 64, "velocity": 40, "note_on_time": 144.798, "note_off_time": 145.803}, {"pitch": 67, "velocity": 40, "note_on_time": 144.799, "note_off_time": 145.803}, {"pitch": 77, "velocity": 40, "note_on_time": 146.81, "note_off_time": 147.813}, {"pitch": 60, "velocity": 40, "note_on_time": 152.827, "note_off_time": 153.829}, {"pitch": 64, "velocity": 40, "note_on_time": 152.827, "note_off_time": 153.829}, {"pitch": 67, "velocity": 40, "note_on_time": 152.828, "note_off_time": 153.83}, {"pitch": 79, "velocity": 40, "note_on_time": 154.84, "note_off_time": 155.855}, {"pitch": 60, "velocity": 40, "note_on_time": 160.868, "note_off_time": 161.873}, {"pitch": 64, "velocity": 40, "note_on_time": 160.869, "note_off_time": 161.874}, {"pitch": 67, "velocity": 40, "note_on_time": 160.87, "note_off_time": 161.874}, {"pitch": 72, "velocity": 40, "note_on_time": 162.876, "note_off_time": 163.882}]</notes><options name="Option List">((4, 4), [0.5, 0.25], 3, 8, &lt;NoteRangePerHand.TWO_NOTES: 3&gt;, &lt;NoteRangePerHand.ONE_NOTE: 2&gt;, False, True, True, 100)</options></target_notes><trials><trial trial_no="1" timestamp="2024_03_04-12_16_52"><notes name="Played Notes">[{"pitch": 72, "velocity": 57, "note_on_time": 3.057, "note_off_time": 3.921}, {"pitch": 77, "velocity": 73, "note_on_time": 12.224, "note_off_time": 12.983}, {"pitch": 74, "velocity": 66, "note_on_time": 20.502, "note_off_time": 21.325}, {"pitch": 72, "velocity": 53, "note_on_time": 27.224, "note_off_time": 27.528}, {"pitch": 72, "velocity": 59, "note_on_time": 27.733, "note_off_time": 29.041}, {"pitch": 79, "velocity": 62, "note_on_time": 35.389, "note_off_time": 36.368}, {"pitch": 77, "velocity": 54, "note_on_time": 43.432, "note_off_time": 43.931}, {"pitch": 76, "velocity": 48, "note_on_time": 44.296, "note_off_time": 45.622}, {"pitch": 72, "velocity": 58, "note_on_time": 51.375, "note_off_time": 51.652}, {"pitch": 72, "velocity": 68, "note_on_time": 51.872, "note_off_time": 53.07}, {"pitch": 74, "velocity": 61, "note_on_time": 59.481, "note_off_time": 59.943}, {"pitch": 76, "velocity": 54, "note_on_time": 60.289, "note_off_time": 61.621}, {"pitch": 79, "velocity": 67, "note_on_time": 67.469, "note_off_time": 68.441}, {"pitch": 72, "velocity": 53, "note_on_time": 75.545, "note_off_time": 76.595}, {"pitch": 77, "velocity": 57, "note_on_time": 83.651, "note_off_time": 84.962}, {"pitch": 76, "velocity": 51, "note_on_time": 91.636, "note_off_time": 92.801}, {"pitch": 74, "velocity": 64, "note_on_time": 99.585, "note_off_time": 99.893}, {"pitch": 74, "velocity": 39, "note_on_time": 100.064, "note_off_time": 101.271}, {"pitch": 74, "velocity": 67, "note_on_time": 108.439, "note_off_time": 108.783}, {"pitch": 76, "velocity": 45, "note_on_time": 109.057, "note_off_time": 110.126}, {"pitch": 74, "velocity": 43, "note_on_time": 116.134, "note_off_time": 117.245}, {"pitch": 79, "velocity": 59, "note_on_time": 123.699, "note_off_time": 124.001}, {"pitch": 79, "velocity": 30, "note_on_time": 124.19, "note_off_time": 125.084}, {"pitch": 77, "velocity": 57, "note_on_time": 132.037, "note_off_time": 132.901}, {"pitch": 74, "velocity": 50, "note_on_time": 139.981, "note_off_time": 141.236}, {"pitch": 76, "velocity": 45, "note_on_time": 148.691, "note_off_time": 149.205}, {"pitch": 74, "velocity": 56, "note_on_time": 149.456, "note_off_time": 149.864}, {"pitch": 77, "velocity": 69, "note_on_time": 150.377, "note_off_time": 151.324}, {"pitch": 79, "velocity": 53, "note_on_time": 155.957, "note_off_time": 156.715}]</notes><guidance name="Guidance Mode">None</guidance><error name="Error value">99</error></trial></trials></MIDI>