<MIDI midiNo="2024_02_26-14_23_13"><target_notes><notes name="Note List">[{"pitch": 60, "velocity": 40, "note_on_time": 0.01, "note_off_time": 1.016}, {"pitch": 64, "velocity": 40, "note_on_time": 0.01, "note_off_time": 1.017}, {"pitch": 67, "velocity": 40, "note_on_time": 0.01, "note_off_time": 1.018}, {"pitch": 48, "velocity": 40, "note_on_time": 0.01, "note_off_time": 1.018}, {"pitch": 52, "velocity": 40, "note_on_time": 1.018, "note_off_time": 2.034}, {"pitch": 55, "velocity": 40, "note_on_time": 1.018, "note_off_time": 2.034}, {"pitch": 76, "velocity": 40, "note_on_time": 2.034, "note_off_time": 3.049}, {"pitch": 48, "velocity": 40, "note_on_time": 2.034, "note_off_time": 3.05}, {"pitch": 52, "velocity": 40, "note_on_time": 3.05, "note_off_time": 4.062}, {"pitch": 55, "velocity": 40, "note_on_time": 3.05, "note_off_time": 4.062}, {"pitch": 48, "velocity": 40, "note_on_time": 4.062, "note_off_time": 5.066}, {"pitch": 52, "velocity": 40, "note_on_time": 5.066, "note_off_time": 6.071}, {"pitch": 55, "velocity": 40, "note_on_time": 5.066, "note_off_time": 6.071}, {"pitch": 48, "velocity": 40, "note_on_time": 6.071, "note_off_time": 7.082}, {"pitch": 52, "velocity": 40, "note_on_time": 7.082, "note_off_time": 8.094}, {"pitch": 55, "velocity": 40, "note_on_time": 7.082, "note_off_time": 8.094}, {"pitch": 60, "velocity": 40, "note_on_time": 8.092, "note_off_time": 9.102}, {"pitch": 64, "velocity": 40, "note_on_time": 8.093, "note_off_time": 9.103}, {"pitch": 67, "velocity": 40, "note_on_time": 8.094, "note_off_time": 9.103}, {"pitch": 48, "velocity": 40, "note_on_time": 8.094, "note_off_time": 9.104}, {"pitch": 52, "velocity": 40, "note_on_time": 9.104, "note_off_time": 10.114}, {"pitch": 55, "velocity": 40, "note_on_time": 9.104, "note_off_time": 10.114}, {"pitch": 72, "velocity": 40, "note_on_time": 10.114, "note_off_time": 11.128}, {"pitch": 48, "velocity": 40, "note_on_time": 10.114, "note_off_time": 11.128}, {"pitch": 52, "velocity": 40, "note_on_time": 11.128, "note_off_time": 12.13}, {"pitch": 55, "velocity": 40, "note_on_time": 11.128, "note_off_time": 12.13}, {"pitch": 48, "velocity": 40, "note_on_time": 12.13, "note_off_time": 13.144}, {"pitch": 52, "velocity": 40, "note_on_time": 13.145, "note_off_time": 14.149}, {"pitch": 55, "velocity": 40, "note_on_time": 13.145, "note_off_time": 14.149}, {"pitch": 48, "velocity": 40, "note_on_time": 14.149, "note_off_time": 15.151}, {"pitch": 52, "velocity": 40, "note_on_time": 15.151, "note_off_time": 16.157}, {"pitch": 55, "velocity": 40, "note_on_time": 15.151, "note_off_time": 16.157}, {"pitch": 60, "velocity": 40, "note_on_time": 16.155, "note_off_time": 17.172}, {"pitch": 64, "velocity": 40, "note_on_time": 16.156, "note_off_time": 17.172}, {"pitch": 67, "velocity": 40, "note_on_time": 16.156, "note_off_time": 17.173}, {"pitch": 48, "velocity": 40, "note_on_time": 16.157, "note_off_time": 17.173}, {"pitch": 52, "velocity": 40, "note_on_time": 17.173, "note_off_time": 18.178}, {"pitch": 55, "velocity": 40, "note_on_time": 17.173, "note_off_time": 18.179}, {"pitch": 77, "velocity": 40, "note_on_time": 18.178, "note_off_time": 19.181}, {"pitch": 48, "velocity": 40, "note_on_time": 18.179, "note_off_time": 19.181}, {"pitch": 52, "velocity": 40, "note_on_time": 19.181, "note_off_time": 20.191}, {"pitch": 55, "velocity": 40, "note_on_time": 19.181, "note_off_time": 20.191}, {"pitch": 48, "velocity": 40, "note_on_time": 20.191, "note_off_time": 21.199}, {"pitch": 52, "velocity": 40, "note_on_time": 21.199, "note_off_time": 22.204}, {"pitch": 55, "velocity": 40, "note_on_time": 21.199, "note_off_time": 22.204}, {"pitch": 48, "velocity": 40, "note_on_time": 22.204, "note_off_time": 23.211}, {"pitch": 52, "velocity": 40, "note_on_time": 23.211, "note_off_time": 24.219}, {"pitch": 55, "velocity": 40, "note_on_time": 23.211, "note_off_time": 24.219}, {"pitch": 60, "velocity": 40, "note_on_time": 24.217, "note_off_time": 25.232}, {"pitch": 64, "velocity": 40, "note_on_time": 24.218, "note_off_time": 25.233}, {"pitch": 67, "velocity": 40, "note_on_time": 24.219, "note_off_time": 25.234}, {"pitch": 48, "velocity": 40, "note_on_time": 24.219, "note_off_time": 25.234}, {"pitch": 52, "velocity": 40, "note_on_time": 25.234, "note_off_time": 26.239}, {"pitch": 55, "velocity": 40, "note_on_time": 25.234, "note_off_time": 26.239}, {"pitch": 72, "velocity": 40, "note_on_time": 26.239, "note_off_time": 27.242}, {"pitch": 48, "velocity": 40, "note_on_time": 26.239, "note_off_time": 27.242}, {"pitch": 52, "velocity": 40, "note_on_time": 27.242, "note_off_time": 28.251}, {"pitch": 55, "velocity": 40, "note_on_time": 27.242, "note_off_time": 28.251}, {"pitch": 48, "velocity": 40, "note_on_time": 28.251, "note_off_time": 29.258}, {"pitch": 52, "velocity": 40, "note_on_time": 29.258, "note_off_time": 30.269}, {"pitch": 55, "velocity": 40, "note_on_time": 29.258, "note_off_time": 30.269}, {"pitch": 48, "velocity": 40, "note_on_time": 30.269, "note_off_time": 31.274}, {"pitch": 52, "velocity": 40, "note_on_time": 31.274, "note_off_time": 32.279}, {"pitch": 55, "velocity": 40, "note_on_time": 31.274, "note_off_time": 32.279}, {"pitch": 60, "velocity": 40, "note_on_time": 32.277, "note_off_time": 33.285}, {"pitch": 64, "velocity": 40, "note_on_time": 32.278, "note_off_time": 33.286}, {"pitch": 67, "velocity": 40, "note_on_time": 32.279, "note_off_time": 33.286}, {"pitch": 48, "velocity": 40, "note_on_time": 32.279, "note_off_time": 33.287}, {"pitch": 52, "velocity": 40, "note_on_time": 33.287, "note_off_time": 34.291}, {"pitch": 55, "velocity": 40, "note_on_time": 33.287, "note_off_time": 34.292}, {"pitch": 74, "velocity": 40, "note_on_time": 34.291, "note_off_time": 35.295}, {"pitch": 48, "velocity": 40, "note_on_time": 34.292, "note_off_time": 35.295}, {"pitch": 52, "velocity": 40, "note_on_time": 35.296, "note_off_time": 36.303}, {"pitch": 55, "velocity": 40, "note_on_time": 35.296, "note_off_time": 36.303}, {"pitch": 48, "velocity": 40, "note_on_time": 36.303, "note_off_time": 37.31}, {"pitch": 52, "velocity": 40, "note_on_time": 37.31, "note_off_time": 38.32}, {"pitch": 55, "velocity": 40, "note_on_time": 37.31, "note_off_time": 38.32}, {"pitch": 48, "velocity": 40, "note_on_time": 38.32, "note_off_time": 39.332}, {"pitch": 52, "velocity": 40, "note_on_time": 39.332, "note_off_time": 40.342}, {"pitch": 55, "velocity": 40, "note_on_time": 39.332, "note_off_time": 40.342}, {"pitch": 60, "velocity": 40, "note_on_time": 40.34, "note_off_time": 41.351}, {"pitch": 64, "velocity": 40, "note_on_time": 40.341, "note_off_time": 41.351}, {"pitch": 67, "velocity": 40, "note_on_time": 40.341, "note_off_time": 41.352}, {"pitch": 79, "velocity": 40, "note_on_time": 42.362, "note_off_time": 43.373}, {"pitch": 60, "velocity": 40, "note_on_time": 48.385, "note_off_time": 49.398}, {"pitch": 64, "velocity": 40, "note_on_time": 48.386, "note_off_time": 49.398}, {"pitch": 67, "velocity": 40, "note_on_time": 48.386, "note_off_time": 49.398}, {"pitch": 76, "velocity": 40, "note_on_time": 50.405, "note_off_time": 51.418}, {"pitch": 60, "velocity": 40, "note_on_time": 56.423, "note_off_time": 57.438}, {"pitch": 64, "velocity": 40, "note_on_time": 56.424, "note_off_time": 57.439}, {"pitch": 67, "velocity": 40, "note_on_time": 56.424, "note_off_time": 57.44}, {"pitch": 79, "velocity": 40, "note_on_time": 58.446, "note_off_time": 59.45}, {"pitch": 60, "velocity": 40, "note_on_time": 64.464, "note_off_time": 65.476}, {"pitch": 64, "velocity": 40, "note_on_time": 64.464, "note_off_time": 65.476}, {"pitch": 67, "velocity": 40, "note_on_time": 64.464, "note_off_time": 65.477}, {"pitch": 76, "velocity": 40, "note_on_time": 66.479, "note_off_time": 67.485}, {"pitch": 60, "velocity": 40, "note_on_time": 72.486, "note_off_time": 73.497}, {"pitch": 64, "velocity": 40, "note_on_time": 72.487, "note_off_time": 73.497}, {"pitch": 67, "velocity": 40, "note_on_time": 72.487, "note_off_time": 73.497}, {"pitch": 77, "velocity": 40, "note_on_time": 74.507, "note_off_time": 75.515}, {"pitch": 60, "velocity": 40, "note_on_time": 80.526, "note_off_time": 81.538}, {"pitch": 64, "velocity": 40, "note_on_time": 80.528, "note_off_time": 81.539}, {"pitch": 67, "velocity": 40, "note_on_time": 80.528, "note_off_time": 81.54}, {"pitch": 79, "velocity": 40, "note_on_time": 82.546, "note_off_time": 83.56}, {"pitch": 60, "velocity": 40, "note_on_time": 88.575, "note_off_time": 89.588}, {"pitch": 64, "velocity": 40, "note_on_time": 88.576, "note_off_time": 89.588}, {"pitch": 67, "velocity": 40, "note_on_time": 88.576, "note_off_time": 89.589}, {"pitch": 74, "velocity": 40, "note_on_time": 90.59, "note_off_time": 91.594}, {"pitch": 60, "velocity": 40, "note_on_time": 96.602, "note_off_time": 97.611}, {"pitch": 64, "velocity": 40, "note_on_time": 96.603, "note_off_time": 97.613}, {"pitch": 67, "velocity": 40, "note_on_time": 96.604, "note_off_time": 97.613}, {"pitch": 72, "velocity": 40, "note_on_time": 98.627, "note_off_time": 99.638}, {"pitch": 60, "velocity": 40, "note_on_time": 104.651, "note_off_time": 105.656}, {"pitch": 64, "velocity": 40, "note_on_time": 104.652, "note_off_time": 105.657}, {"pitch": 67, "velocity": 40, "note_on_time": 104.652, "note_off_time": 105.657}, {"pitch": 77, "velocity": 40, "note_on_time": 106.662, "note_off_time": 107.668}, {"pitch": 60, "velocity": 40, "note_on_time": 112.68, "note_off_time": 113.688}, {"pitch": 64, "velocity": 40, "note_on_time": 112.681, "note_off_time": 113.689}, {"pitch": 67, "velocity": 40, "note_on_time": 112.681, "note_off_time": 113.69}, {"pitch": 76, "velocity": 40, "note_on_time": 114.697, "note_off_time": 115.71}, {"pitch": 60, "velocity": 40, "note_on_time": 120.714, "note_off_time": 121.724}, {"pitch": 64, "velocity": 40, "note_on_time": 120.714, "note_off_time": 121.725}, {"pitch": 67, "velocity": 40, "note_on_time": 120.715, "note_off_time": 121.725}, {"pitch": 79, "velocity": 40, "note_on_time": 122.735, "note_off_time": 123.747}, {"pitch": 60, "velocity": 40, "note_on_time": 128.751, "note_off_time": 129.755}, {"pitch": 64, "velocity": 40, "note_on_time": 128.753, "note_off_time": 129.756}, {"pitch": 67, "velocity": 40, "note_on_time": 128.753, "note_off_time": 129.757}, {"pitch": 72, "velocity": 40, "note_on_time": 130.766, "note_off_time": 131.779}, {"pitch": 60, "velocity": 40, "note_on_time": 136.78, "note_off_time": 137.783}, {"pitch": 64, "velocity": 40, "note_on_time": 136.781, "note_off_time": 137.783}, {"pitch": 67, "velocity": 40, "note_on_time": 136.781, "note_off_time": 137.784}, {"pitch": 74, "velocity": 40, "note_on_time": 138.794, "note_off_time": 139.796}, {"pitch": 60, "velocity": 40, "note_on_time": 144.806, "note_off_time": 145.82}, {"pitch": 64, "velocity": 40, "note_on_time": 144.806, "note_off_time": 145.821}, {"pitch": 67, "velocity": 40, "note_on_time": 144.806, "note_off_time": 145.822}, {"pitch": 77, "velocity": 40, "note_on_time": 146.832, "note_off_time": 147.846}, {"pitch": 60, "velocity": 40, "note_on_time": 152.847, "note_off_time": 153.859}, {"pitch": 64, "velocity": 40, "note_on_time": 152.847, "note_off_time": 153.86}, {"pitch": 67, "velocity": 40, "note_on_time": 152.847, "note_off_time": 153.861}, {"pitch": 74, "velocity": 40, "note_on_time": 154.872, "note_off_time": 155.88}, {"pitch": 60, "velocity": 40, "note_on_time": 160.89, "note_off_time": 161.897}, {"pitch": 64, "velocity": 40, "note_on_time": 160.891, "note_off_time": 161.897}, {"pitch": 67, "velocity": 40, "note_on_time": 160.892, "note_off_time": 161.898}, {"pitch": 76, "velocity": 40, "note_on_time": 162.909, "note_off_time": 163.924}]</notes><options name="Option List">((4, 4), [0.5, 0.25], 3, 8, &lt;NoteRangePerHand.TWO_NOTES: 3&gt;, &lt;NoteRangePerHand.ONE_NOTE: 2&gt;, False, True, True, 100)</options></target_notes><trials><trial trial_no="1" timestamp="2024_02_26-14_20_29"><notes name="Played Notes">[{"pitch": 79, "velocity": 27, "note_on_time": 4.856, "note_off_time": 5.665}, {"pitch": 79, "velocity": 67, "note_on_time": 5.927, "note_off_time": 6.406}, {"pitch": 77, "velocity": 42, "note_on_time": 6.651, "note_off_time": 7.091}, {"pitch": 76, "velocity": 29, "note_on_time": 7.921, "note_off_time": 8.469}, {"pitch": 76, "velocity": 52, "note_on_time": 9.587, "note_off_time": 11.247}, {"pitch": 76, "velocity": 58, "note_on_time": 14.789, "note_off_time": 17.1}, {"pitch": 72, "velocity": 51, "note_on_time": 20.257, "note_off_time": 20.61}, {"pitch": 74, "velocity": 52, "note_on_time": 20.744, "note_off_time": 21.033}, {"pitch": 76, "velocity": 59, "note_on_time": 21.139, "note_off_time": 21.385}, {"pitch": 77, "velocity": 50, "note_on_time": 21.552, "note_off_time": 21.998}, {"pitch": 77, "velocity": 73, "note_on_time": 22.294, "note_off_time": 23.296}, {"pitch": 72, "velocity": 45, "note_on_time": 28.557, "note_off_time": 29.049}, {"pitch": 76, "velocity": 41, "note_on_time": 37.731, "note_off_time": 38.305}, {"pitch": 74, "velocity": 51, "note_on_time": 38.538, "note_off_time": 39.125}, {"pitch": 74, "velocity": 51, "note_on_time": 39.397, "note_off_time": 39.884}, {"pitch": 79, "velocity": 17, "note_on_time": 44.326, "note_off_time": 46.359}, {"pitch": 77, "velocity": 44, "note_on_time": 52.106, "note_off_time": 52.557}, {"pitch": 76, "velocity": 49, "note_on_time": 52.747, "note_off_time": 53.417}, {"pitch": 76, "velocity": 59, "note_on_time": 53.657, "note_off_time": 54.428}, {"pitch": 79, "velocity": 70, "note_on_time": 59.934, "note_off_time": 60.988}, {"pitch": 76, "velocity": 50, "note_on_time": 69.834, "note_off_time": 71.0}, {"pitch": 77, "velocity": 3, "note_on_time": 77.047, "note_off_time": 77.778}, {"pitch": 77, "velocity": 64, "note_on_time": 77.99, "note_off_time": 78.773}, {"pitch": 79, "velocity": 36, "note_on_time": 85.064, "note_off_time": 86.515}, {"pitch": 74, "velocity": 47, "note_on_time": 92.253, "note_off_time": 93.521}, {"pitch": 72, "velocity": 46, "note_on_time": 100.179, "note_off_time": 101.399}, {"pitch": 77, "velocity": 47, "note_on_time": 108.674, "note_off_time": 109.797}, {"pitch": 76, "velocity": 34, "note_on_time": 116.321, "note_off_time": 117.271}, {"pitch": 77, "velocity": 49, "note_on_time": 124.895, "note_off_time": 125.461}, {"pitch": 79, "velocity": 67, "note_on_time": 125.765, "note_off_time": 126.918}, {"pitch": 72, "velocity": 48, "note_on_time": 132.326, "note_off_time": 133.347}, {"pitch": 76, "velocity": 39, "note_on_time": 140.344, "note_off_time": 140.919}, {"pitch": 74, "velocity": 52, "note_on_time": 141.126, "note_off_time": 142.164}, {"pitch": 77, "velocity": 44, "note_on_time": 148.425, "note_off_time": 149.319}, {"pitch": 76, "velocity": 41, "note_on_time": 156.272, "note_off_time": 156.846}, {"pitch": 74, "velocity": 51, "note_on_time": 157.03, "note_off_time": 158.167}]</notes><guidance name="Guidance Mode">None</guidance><error name="Error value">99</error></trial><trial trial_no="2" timestamp="2024_02_26-14_26_27"><notes name="Played Notes">[{"pitch": 72, "velocity": 52, "note_on_time": 2.486, "note_off_time": 2.844}, {"pitch": 74, "velocity": 55, "note_on_time": 2.863, "note_off_time": 3.339}, {"pitch": 76, "velocity": 56, "note_on_time": 3.332, "note_off_time": 3.805}, {"pitch": 72, "velocity": 49, "note_on_time": 7.302, "note_off_time": 7.888}, {"pitch": 74, "velocity": 59, "note_on_time": 7.919, "note_off_time": 8.548}, {"pitch": 76, "velocity": 62, "note_on_time": 8.535, "note_off_time": 9.111}, {"pitch": 77, "velocity": 66, "note_on_time": 9.104, "note_off_time": 9.69}, {"pitch": 79, "velocity": 64, "note_on_time": 9.7, "note_off_time": 10.257}, {"pitch": 72, "velocity": 43, "note_on_time": 10.969, "note_off_time": 11.559}, {"pitch": 74, "velocity": 63, "note_on_time": 11.571, "note_off_time": 12.162}, {"pitch": 76, "velocity": 57, "note_on_time": 12.163, "note_off_time": 12.739}, {"pitch": 77, "velocity": 69, "note_on_time": 12.719, "note_off_time": 13.325}, {"pitch": 79, "velocity": 52, "note_on_time": 13.344, "note_off_time": 13.977}, {"pitch": 72, "velocity": 54, "note_on_time": 14.6, "note_off_time": 15.184}, {"pitch": 74, "velocity": 65, "note_on_time": 15.194, "note_off_time": 15.79}, {"pitch": 76, "velocity": 55, "note_on_time": 15.817, "note_off_time": 16.408}, {"pitch": 77, "velocity": 57, "note_on_time": 16.387, "note_off_time": 16.987}, {"pitch": 79, "velocity": 57, "note_on_time": 17.005, "note_off_time": 17.519}, {"pitch": 72, "velocity": 51, "note_on_time": 18.24, "note_off_time": 18.786}, {"pitch": 74, "velocity": 63, "note_on_time": 18.793, "note_off_time": 19.41}, {"pitch": 76, "velocity": 37, "note_on_time": 19.411, "note_off_time": 20.037}, {"pitch": 77, "velocity": 55, "note_on_time": 19.993, "note_off_time": 20.626}, {"pitch": 79, "velocity": 58, "note_on_time": 20.642, "note_off_time": 21.244}, {"pitch": 79, "velocity": 65, "note_on_time": 21.896, "note_off_time": 22.468}, {"pitch": 77, "velocity": 64, "note_on_time": 22.459, "note_off_time": 23.155}, {"pitch": 76, "velocity": 52, "note_on_time": 23.086, "note_off_time": 23.706}, {"pitch": 74, "velocity": 57, "note_on_time": 23.681, "note_off_time": 24.283}, {"pitch": 72, "velocity": 56, "note_on_time": 24.296, "note_off_time": 24.961}, {"pitch": 79, "velocity": 55, "note_on_time": 25.565, "note_off_time": 26.155}, {"pitch": 77, "velocity": 69, "note_on_time": 26.134, "note_off_time": 26.71}, {"pitch": 76, "velocity": 48, "note_on_time": 26.705, "note_off_time": 27.303}, {"pitch": 74, "velocity": 58, "note_on_time": 27.292, "note_off_time": 27.923}, {"pitch": 72, "velocity": 59, "note_on_time": 27.901, "note_off_time": 28.578}, {"pitch": 79, "velocity": 53, "note_on_time": 29.141, "note_off_time": 29.69}, {"pitch": 77, "velocity": 63, "note_on_time": 29.74, "note_off_time": 30.348}, {"pitch": 76, "velocity": 57, "note_on_time": 30.341, "note_off_time": 30.963}, {"pitch": 74, "velocity": 50, "note_on_time": 30.992, "note_off_time": 31.567}, {"pitch": 72, "velocity": 55, "note_on_time": 31.587, "note_off_time": 32.202}, {"pitch": 79, "velocity": 54, "note_on_time": 32.809, "note_off_time": 33.481}, {"pitch": 77, "velocity": 72, "note_on_time": 33.421, "note_off_time": 34.021}, {"pitch": 76, "velocity": 50, "note_on_time": 34.019, "note_off_time": 34.601}, {"pitch": 74, "velocity": 53, "note_on_time": 34.641, "note_off_time": 35.209}, {"pitch": 72, "velocity": 47, "note_on_time": 35.25, "note_off_time": 35.856}, {"pitch": 74, "velocity": 50, "note_on_time": 36.53, "note_off_time": 37.143}, {"pitch": 76, "velocity": 62, "note_on_time": 37.114, "note_off_time": 37.721}, {"pitch": 77, "velocity": 65, "note_on_time": 37.72, "note_off_time": 38.394}, {"pitch": 79, "velocity": 66, "note_on_time": 38.304, "note_off_time": 38.845}, {"pitch": 72, "velocity": 54, "note_on_time": 38.864, "note_off_time": 39.514}, {"pitch": 74, "velocity": 57, "note_on_time": 40.153, "note_off_time": 40.751}, {"pitch": 76, "velocity": 61, "note_on_time": 40.707, "note_off_time": 41.318}, {"pitch": 77, "velocity": 58, "note_on_time": 41.317, "note_off_time": 41.881}, {"pitch": 79, "velocity": 64, "note_on_time": 41.899, "note_off_time": 42.459}, {"pitch": 72, "velocity": 54, "note_on_time": 42.498, "note_off_time": 43.177}, {"pitch": 74, "velocity": 54, "note_on_time": 43.788, "note_off_time": 44.394}, {"pitch": 76, "velocity": 61, "note_on_time": 44.356, "note_off_time": 45.02}, {"pitch": 77, "velocity": 60, "note_on_time": 44.973, "note_off_time": 45.56}, {"pitch": 79, "velocity": 71, "note_on_time": 45.562, "note_off_time": 46.163}, {"pitch": 72, "velocity": 60, "note_on_time": 46.185, "note_off_time": 46.838}, {"pitch": 74, "velocity": 48, "note_on_time": 47.439, "note_off_time": 48.044}, {"pitch": 76, "velocity": 66, "note_on_time": 48.002, "note_off_time": 48.669}, {"pitch": 77, "velocity": 64, "note_on_time": 48.621, "note_off_time": 49.217}, {"pitch": 79, "velocity": 53, "note_on_time": 49.22, "note_off_time": 49.854}, {"pitch": 72, "velocity": 60, "note_on_time": 49.829, "note_off_time": 50.493}, {"pitch": 77, "velocity": 51, "note_on_time": 65.747, "note_off_time": 66.401}, {"pitch": 76, "velocity": 61, "note_on_time": 66.366, "note_off_time": 66.999}, {"pitch": 74, "velocity": 73, "note_on_time": 66.991, "note_off_time": 67.535}, {"pitch": 72, "velocity": 65, "note_on_time": 67.513, "note_off_time": 68.15}, {"pitch": 79, "velocity": 67, "note_on_time": 68.108, "note_off_time": 69.357}, {"pitch": 77, "velocity": 53, "note_on_time": 69.338, "note_off_time": 69.903}, {"pitch": 76, "velocity": 58, "note_on_time": 69.891, "note_off_time": 70.535}, {"pitch": 74, "velocity": 65, "note_on_time": 70.544, "note_off_time": 71.116}, {"pitch": 72, "velocity": 57, "note_on_time": 71.135, "note_off_time": 71.831}, {"pitch": 79, "velocity": 67, "note_on_time": 71.725, "note_off_time": 72.93}, {"pitch": 77, "velocity": 58, "note_on_time": 72.942, "note_off_time": 73.574}, {"pitch": 76, "velocity": 56, "note_on_time": 73.535, "note_off_time": 74.212}, {"pitch": 74, "velocity": 64, "note_on_time": 74.161, "note_off_time": 74.746}, {"pitch": 72, "velocity": 59, "note_on_time": 74.765, "note_off_time": 75.41}, {"pitch": 79, "velocity": 62, "note_on_time": 75.354, "note_off_time": 76.587}, {"pitch": 77, "velocity": 69, "note_on_time": 76.597, "note_off_time": 77.197}, {"pitch": 76, "velocity": 57, "note_on_time": 77.147, "note_off_time": 77.75}, {"pitch": 74, "velocity": 61, "note_on_time": 77.757, "note_off_time": 78.413}, {"pitch": 72, "velocity": 60, "note_on_time": 78.409, "note_off_time": 79.119}, {"pitch": 79, "velocity": 61, "note_on_time": 79.04, "note_off_time": 79.712}, {"pitch": 76, "velocity": 56, "note_on_time": 81.69, "note_off_time": 82.231}, {"pitch": 77, "velocity": 68, "note_on_time": 82.196, "note_off_time": 82.793}, {"pitch": 79, "velocity": 71, "note_on_time": 82.775, "note_off_time": 83.446}, {"pitch": 74, "velocity": 51, "note_on_time": 83.405, "note_off_time": 83.954}, {"pitch": 72, "velocity": 59, "note_on_time": 83.952, "note_off_time": 85.175}, {"pitch": 76, "velocity": 65, "note_on_time": 85.142, "note_off_time": 85.734}, {"pitch": 77, "velocity": 63, "note_on_time": 85.711, "note_off_time": 86.324}, {"pitch": 79, "velocity": 54, "note_on_time": 86.3, "note_off_time": 86.908}, {"pitch": 74, "velocity": 49, "note_on_time": 86.912, "note_off_time": 87.512}, {"pitch": 72, "velocity": 60, "note_on_time": 87.492, "note_off_time": 88.85}, {"pitch": 76, "velocity": 49, "note_on_time": 88.792, "note_off_time": 89.358}, {"pitch": 77, "velocity": 59, "note_on_time": 89.357, "note_off_time": 89.906}, {"pitch": 79, "velocity": 59, "note_on_time": 89.932, "note_off_time": 90.578}, {"pitch": 74, "velocity": 58, "note_on_time": 90.577, "note_off_time": 91.226}, {"pitch": 72, "velocity": 61, "note_on_time": 91.182, "note_off_time": 92.46}, {"pitch": 76, "velocity": 61, "note_on_time": 92.461, "note_off_time": 93.072}, {"pitch": 77, "velocity": 65, "note_on_time": 93.048, "note_off_time": 93.689}, {"pitch": 79, "velocity": 70, "note_on_time": 93.656, "note_off_time": 94.284}, {"pitch": 74, "velocity": 60, "note_on_time": 94.242, "note_off_time": 94.889}, {"pitch": 72, "velocity": 61, "note_on_time": 94.857, "note_off_time": 95.753}, {"pitch": 76, "velocity": 52, "note_on_time": 99.748, "note_off_time": 100.384}, {"pitch": 74, "velocity": 58, "note_on_time": 100.341, "note_off_time": 100.938}, {"pitch": 72, "velocity": 58, "note_on_time": 100.92, "note_off_time": 101.557}, {"pitch": 77, "velocity": 71, "note_on_time": 101.507, "note_off_time": 102.173}, {"pitch": 79, "velocity": 64, "note_on_time": 102.149, "note_off_time": 103.032}, {"pitch": 76, "velocity": 67, "note_on_time": 103.364, "note_off_time": 103.996}, {"pitch": 74, "velocity": 56, "note_on_time": 103.957, "note_off_time": 104.554}, {"pitch": 72, "velocity": 56, "note_on_time": 104.549, "note_off_time": 105.189}, {"pitch": 77, "velocity": 67, "note_on_time": 105.134, "note_off_time": 105.88}, {"pitch": 79, "velocity": 58, "note_on_time": 105.73, "note_off_time": 107.02}, {"pitch": 76, "velocity": 60, "note_on_time": 107.002, "note_off_time": 107.65}, {"pitch": 74, "velocity": 73, "note_on_time": 107.583, "note_off_time": 108.101}, {"pitch": 72, "velocity": 61, "note_on_time": 108.137, "note_off_time": 108.866}, {"pitch": 77, "velocity": 63, "note_on_time": 108.775, "note_off_time": 109.465}, {"pitch": 79, "velocity": 65, "note_on_time": 109.424, "note_off_time": 110.739}, {"pitch": 76, "velocity": 49, "note_on_time": 110.731, "note_off_time": 111.372}, {"pitch": 74, "velocity": 60, "note_on_time": 111.333, "note_off_time": 111.954}, {"pitch": 72, "velocity": 60, "note_on_time": 111.955, "note_off_time": 112.526}, {"pitch": 77, "velocity": 55, "note_on_time": 112.486, "note_off_time": 113.15}, {"pitch": 79, "velocity": 61, "note_on_time": 113.081, "note_off_time": 113.89}, {"pitch": 77, "velocity": 65, "note_on_time": 115.572, "note_off_time": 116.153}, {"pitch": 79, "velocity": 69, "note_on_time": 116.153, "note_off_time": 116.741}, {"pitch": 76, "velocity": 72, "note_on_time": 116.73, "note_off_time": 117.352}, {"pitch": 74, "velocity": 64, "note_on_time": 117.327, "note_off_time": 117.899}, {"pitch": 72, "velocity": 64, "note_on_time": 117.922, "note_off_time": 119.262}, {"pitch": 77, "velocity": 58, "note_on_time": 119.22, "note_off_time": 119.793}, {"pitch": 79, "velocity": 67, "note_on_time": 119.792, "note_off_time": 120.446}, {"pitch": 76, "velocity": 56, "note_on_time": 120.417, "note_off_time": 120.99}, {"pitch": 74, "velocity": 54, "note_on_time": 120.986, "note_off_time": 121.572}, {"pitch": 72, "velocity": 60, "note_on_time": 121.592, "note_off_time": 122.923}, {"pitch": 77, "velocity": 72, "note_on_time": 122.872, "note_off_time": 123.452}, {"pitch": 79, "velocity": 68, "note_on_time": 123.461, "note_off_time": 124.083}, {"pitch": 76, "velocity": 63, "note_on_time": 124.056, "note_off_time": 124.646}, {"pitch": 74, "velocity": 61, "note_on_time": 124.645, "note_off_time": 125.229}, {"pitch": 72, "velocity": 56, "note_on_time": 125.251, "note_off_time": 126.537}, {"pitch": 77, "velocity": 62, "note_on_time": 126.529, "note_off_time": 127.103}, {"pitch": 79, "velocity": 65, "note_on_time": 127.115, "note_off_time": 127.754}, {"pitch": 76, "velocity": 63, "note_on_time": 127.711, "note_off_time": 128.365}, {"pitch": 74, "velocity": 58, "note_on_time": 128.295, "note_off_time": 128.935}, {"pitch": 72, "velocity": 63, "note_on_time": 128.92, "note_off_time": 129.766}, {"pitch": 74, "velocity": 65, "note_on_time": 130.226, "note_off_time": 130.822}, {"pitch": 72, "velocity": 59, "note_on_time": 130.816, "note_off_time": 131.479}, {"pitch": 76, "velocity": 74, "note_on_time": 131.474, "note_off_time": 132.022}, {"pitch": 77, "velocity": 64, "note_on_time": 132.018, "note_off_time": 132.608}, {"pitch": 79, "velocity": 66, "note_on_time": 132.593, "note_off_time": 133.74}, {"pitch": 74, "velocity": 62, "note_on_time": 133.8, "note_off_time": 134.362}, {"pitch": 72, "velocity": 62, "note_on_time": 134.365, "note_off_time": 134.981}, {"pitch": 76, "velocity": 63, "note_on_time": 134.97, "note_off_time": 135.497}, {"pitch": 77, "velocity": 67, "note_on_time": 135.561, "note_off_time": 136.212}, {"pitch": 79, "velocity": 61, "note_on_time": 136.153, "note_off_time": 137.404}, {"pitch": 74, "velocity": 55, "note_on_time": 137.415, "note_off_time": 138.017}, {"pitch": 72, "velocity": 71, "note_on_time": 138.002, "note_off_time": 138.702}, {"pitch": 76, "velocity": 65, "note_on_time": 138.685, "note_off_time": 139.264}, {"pitch": 77, "velocity": 67, "note_on_time": 139.235, "note_off_time": 139.945}, {"pitch": 79, "velocity": 62, "note_on_time": 139.847, "note_off_time": 141.108}, {"pitch": 74, "velocity": 64, "note_on_time": 141.077, "note_off_time": 141.666}, {"pitch": 72, "velocity": 64, "note_on_time": 141.674, "note_off_time": 142.291}, {"pitch": 76, "velocity": 60, "note_on_time": 142.272, "note_off_time": 142.921}, {"pitch": 77, "velocity": 73, "note_on_time": 142.85, "note_off_time": 143.441}, {"pitch": 79, "velocity": 57, "note_on_time": 143.433, "note_off_time": 144.377}, {"pitch": 72, "velocity": 52, "note_on_time": 148.283, "note_off_time": 148.976}, {"pitch": 74, "velocity": 62, "note_on_time": 148.966, "note_off_time": 149.572}, {"pitch": 76, "velocity": 60, "note_on_time": 149.547, "note_off_time": 150.147}, {"pitch": 77, "velocity": 59, "note_on_time": 150.158, "note_off_time": 150.792}, {"pitch": 79, "velocity": 60, "note_on_time": 150.75, "note_off_time": 151.997}, {"pitch": 72, "velocity": 53, "note_on_time": 152.012, "note_off_time": 152.635}, {"pitch": 74, "velocity": 55, "note_on_time": 152.64, "note_off_time": 153.302}, {"pitch": 76, "velocity": 64, "note_on_time": 153.225, "note_off_time": 153.784}, {"pitch": 77, "velocity": 54, "note_on_time": 153.808, "note_off_time": 154.408}, {"pitch": 79, "velocity": 61, "note_on_time": 154.398, "note_off_time": 155.651}, {"pitch": 72, "velocity": 51, "note_on_time": 155.643, "note_off_time": 156.272}, {"pitch": 74, "velocity": 60, "note_on_time": 156.27, "note_off_time": 156.847}, {"pitch": 76, "velocity": 56, "note_on_time": 156.814, "note_off_time": 157.437}, {"pitch": 77, "velocity": 61, "note_on_time": 157.388, "note_off_time": 158.312}, {"pitch": 79, "velocity": 56, "note_on_time": 158.115, "note_off_time": 159.333}, {"pitch": 72, "velocity": 54, "note_on_time": 159.357, "note_off_time": 159.948}, {"pitch": 74, "velocity": 70, "note_on_time": 159.947, "note_off_time": 160.529}, {"pitch": 76, "velocity": 64, "note_on_time": 160.515, "note_off_time": 161.176}, {"pitch": 77, "velocity": 61, "note_on_time": 161.098, "note_off_time": 161.684}, {"pitch": 79, "velocity": 57, "note_on_time": 161.714, "note_off_time": 162.296}, {"pitch": 79, "velocity": 68, "note_on_time": 163.005, "note_off_time": 163.668}, {"pitch": 77, "velocity": 66, "note_on_time": 163.561, "note_off_time": 164.228}, {"pitch": 76, "velocity": 66, "note_on_time": 164.132, "note_off_time": 164.846}, {"pitch": 74, "velocity": 52, "note_on_time": 164.752, "note_off_time": 165.374}, {"pitch": 72, "velocity": 50, "note_on_time": 165.373, "note_off_time": 166.242}, {"pitch": 79, "velocity": 55, "note_on_time": 166.673, "note_off_time": 167.335}, {"pitch": 77, "velocity": 57, "note_on_time": 167.277, "note_off_time": 167.91}, {"pitch": 76, "velocity": 50, "note_on_time": 167.846, "note_off_time": 168.522}, {"pitch": 74, "velocity": 52, "note_on_time": 168.425, "note_off_time": 169.104}, {"pitch": 72, "velocity": 49, "note_on_time": 169.026, "note_off_time": 170.331}, {"pitch": 79, "velocity": 52, "note_on_time": 170.255, "note_off_time": 170.916}, {"pitch": 77, "velocity": 65, "note_on_time": 170.874, "note_off_time": 171.54}, {"pitch": 76, "velocity": 62, "note_on_time": 171.475, "note_off_time": 172.147}, {"pitch": 74, "velocity": 44, "note_on_time": 172.095, "note_off_time": 172.674}, {"pitch": 72, "velocity": 46, "note_on_time": 172.691, "note_off_time": 173.99}, {"pitch": 79, "velocity": 68, "note_on_time": 173.897, "note_off_time": 174.599}, {"pitch": 77, "velocity": 62, "note_on_time": 174.522, "note_off_time": 175.17}, {"pitch": 76, "velocity": 61, "note_on_time": 175.089, "note_off_time": 175.798}, {"pitch": 74, "velocity": 44, "note_on_time": 175.723, "note_off_time": 176.385}, {"pitch": 72, "velocity": 52, "note_on_time": 176.358, "note_off_time": 177.225}, {"pitch": 74, "velocity": 58, "note_on_time": 177.605, "note_off_time": 178.232}, {"pitch": 76, "velocity": 65, "note_on_time": 178.198, "note_off_time": 178.833}, {"pitch": 77, "velocity": 72, "note_on_time": 178.81, "note_off_time": 179.434}, {"pitch": 72, "velocity": 61, "note_on_time": 179.946, "note_off_time": 180.794}, {"pitch": 79, "velocity": 59, "note_on_time": 179.379, "note_off_time": 181.09}, {"pitch": 74, "velocity": 62, "note_on_time": 181.214, "note_off_time": 181.851}, {"pitch": 76, "velocity": 79, "note_on_time": 181.802, "note_off_time": 182.446}, {"pitch": 77, "velocity": 59, "note_on_time": 182.4, "note_off_time": 183.072}, {"pitch": 79, "velocity": 56, "note_on_time": 183.027, "note_off_time": 184.37}, {"pitch": 72, "velocity": 56, "note_on_time": 183.666, "note_off_time": 184.417}, {"pitch": 74, "velocity": 61, "note_on_time": 184.91, "note_off_time": 185.514}, {"pitch": 76, "velocity": 71, "note_on_time": 185.473, "note_off_time": 186.053}, {"pitch": 77, "velocity": 67, "note_on_time": 186.03, "note_off_time": 186.742}, {"pitch": 79, "velocity": 62, "note_on_time": 186.624, "note_off_time": 188.072}, {"pitch": 72, "velocity": 51, "note_on_time": 187.226, "note_off_time": 188.19}, {"pitch": 74, "velocity": 58, "note_on_time": 188.47, "note_off_time": 189.11}, {"pitch": 76, "velocity": 59, "note_on_time": 189.063, "note_off_time": 189.684}, {"pitch": 77, "velocity": 60, "note_on_time": 189.687, "note_off_time": 190.325}, {"pitch": 72, "velocity": 52, "note_on_time": 190.879, "note_off_time": 191.722}, {"pitch": 79, "velocity": 52, "note_on_time": 190.27, "note_off_time": 192.214}]</notes><guidance name="Guidance Mode">None</guidance><error name="Error value">99</error></trial><trial trial_no="3" timestamp="2024_02_26-14_32_11"><notes name="Played Notes">[{"pitch": 72, "velocity": 41, "note_on_time": 2.502, "note_off_time": 3.076}, {"pitch": 74, "velocity": 53, "note_on_time": 3.086, "note_off_time": 3.668}, {"pitch": 76, "velocity": 49, "note_on_time": 3.684, "note_off_time": 4.201}, {"pitch": 77, "velocity": 59, "note_on_time": 4.249, "note_off_time": 4.842}, {"pitch": 79, "velocity": 57, "note_on_time": 4.811, "note_off_time": 6.154}, {"pitch": 72, "velocity": 57, "note_on_time": 6.179, "note_off_time": 6.702}, {"pitch": 74, "velocity": 53, "note_on_time": 6.733, "note_off_time": 7.37}, {"pitch": 76, "velocity": 53, "note_on_time": 7.366, "note_off_time": 7.97}, {"pitch": 77, "velocity": 47, "note_on_time": 7.945, "note_off_time": 8.522}, {"pitch": 79, "velocity": 59, "note_on_time": 8.521, "note_off_time": 9.803}, {"pitch": 72, "velocity": 52, "note_on_time": 9.782, "note_off_time": 10.314}, {"pitch": 74, "velocity": 58, "note_on_time": 10.319, "note_off_time": 10.906}, {"pitch": 76, "velocity": 41, "note_on_time": 10.892, "note_off_time": 11.522}, {"pitch": 77, "velocity": 53, "note_on_time": 11.512, "note_off_time": 12.095}, {"pitch": 79, "velocity": 57, "note_on_time": 12.094, "note_off_time": 13.763}, {"pitch": 72, "velocity": 55, "note_on_time": 13.399, "note_off_time": 13.974}, {"pitch": 74, "velocity": 60, "note_on_time": 14.001, "note_off_time": 14.6}, {"pitch": 76, "velocity": 73, "note_on_time": 14.565, "note_off_time": 15.225}, {"pitch": 77, "velocity": 54, "note_on_time": 15.164, "note_off_time": 15.814}, {"pitch": 79, "velocity": 58, "note_on_time": 15.812, "note_off_time": 16.65}, {"pitch": 79, "velocity": 44, "note_on_time": 17.054, "note_off_time": 17.562}, {"pitch": 77, "velocity": 56, "note_on_time": 17.568, "note_off_time": 18.202}, {"pitch": 76, "velocity": 57, "note_on_time": 18.193, "note_off_time": 18.849}, {"pitch": 74, "velocity": 44, "note_on_time": 18.819, "note_off_time": 19.391}, {"pitch": 72, "velocity": 45, "note_on_time": 19.433, "note_off_time": 20.199}, {"pitch": 79, "velocity": 55, "note_on_time": 20.672, "note_off_time": 21.292}, {"pitch": 77, "velocity": 63, "note_on_time": 21.247, "note_off_time": 21.863}, {"pitch": 76, "velocity": 55, "note_on_time": 21.842, "note_off_time": 22.516}, {"pitch": 74, "velocity": 42, "note_on_time": 22.52, "note_off_time": 23.098}, {"pitch": 72, "velocity": 40, "note_on_time": 23.106, "note_off_time": 23.798}, {"pitch": 79, "velocity": 62, "note_on_time": 24.344, "note_off_time": 25.052}, {"pitch": 77, "velocity": 64, "note_on_time": 24.968, "note_off_time": 25.549}, {"pitch": 76, "velocity": 55, "note_on_time": 25.54, "note_off_time": 26.112}, {"pitch": 74, "velocity": 47, "note_on_time": 26.123, "note_off_time": 26.72}, {"pitch": 72, "velocity": 42, "note_on_time": 26.725, "note_off_time": 27.401}, {"pitch": 79, "velocity": 62, "note_on_time": 27.921, "note_off_time": 28.592}, {"pitch": 77, "velocity": 53, "note_on_time": 28.572, "note_off_time": 29.128}, {"pitch": 76, "velocity": 51, "note_on_time": 29.126, "note_off_time": 29.737}, {"pitch": 74, "velocity": 37, "note_on_time": 29.788, "note_off_time": 30.435}, {"pitch": 72, "velocity": 51, "note_on_time": 30.446, "note_off_time": 31.187}, {"pitch": 74, "velocity": 33, "note_on_time": 32.373, "note_off_time": 32.957}, {"pitch": 76, "velocity": 62, "note_on_time": 32.911, "note_off_time": 33.549}, {"pitch": 77, "velocity": 59, "note_on_time": 33.489, "note_off_time": 34.054}, {"pitch": 79, "velocity": 61, "note_on_time": 34.06, "note_off_time": 34.688}, {"pitch": 72, "velocity": 54, "note_on_time": 34.676, "note_off_time": 35.429}, {"pitch": 74, "velocity": 48, "note_on_time": 35.89, "note_off_time": 36.538}, {"pitch": 76, "velocity": 56, "note_on_time": 36.488, "note_off_time": 37.102}, {"pitch": 77, "velocity": 53, "note_on_time": 37.068, "note_off_time": 37.683}, {"pitch": 79, "velocity": 49, "note_on_time": 37.667, "note_off_time": 38.231}, {"pitch": 72, "velocity": 49, "note_on_time": 38.254, "note_off_time": 38.946}, {"pitch": 74, "velocity": 42, "note_on_time": 39.508, "note_off_time": 40.113}, {"pitch": 76, "velocity": 59, "note_on_time": 40.059, "note_off_time": 40.631}, {"pitch": 77, "velocity": 60, "note_on_time": 40.633, "note_off_time": 41.256}, {"pitch": 79, "velocity": 48, "note_on_time": 41.295, "note_off_time": 41.933}, {"pitch": 72, "velocity": 47, "note_on_time": 41.962, "note_off_time": 42.609}, {"pitch": 74, "velocity": 41, "note_on_time": 43.148, "note_off_time": 43.736}, {"pitch": 76, "velocity": 59, "note_on_time": 43.717, "note_off_time": 44.351}, {"pitch": 77, "velocity": 47, "note_on_time": 44.316, "note_off_time": 44.982}, {"pitch": 79, "velocity": 40, "note_on_time": 44.983, "note_off_time": 45.593}, {"pitch": 72, "velocity": 39, "note_on_time": 45.608, "note_off_time": 46.381}, {"pitch": 77, "velocity": 48, "note_on_time": 51.398, "note_off_time": 51.924}, {"pitch": 76, "velocity": 61, "note_on_time": 51.894, "note_off_time": 52.477}, {"pitch": 74, "velocity": 57, "note_on_time": 52.43, "note_off_time": 52.946}, {"pitch": 72, "velocity": 53, "note_on_time": 52.95, "note_off_time": 53.437}, {"pitch": 79, "velocity": 52, "note_on_time": 53.476, "note_off_time": 54.684}, {"pitch": 77, "velocity": 58, "note_on_time": 54.71, "note_off_time": 55.26}, {"pitch": 76, "velocity": 61, "note_on_time": 55.236, "note_off_time": 55.907}, {"pitch": 74, "velocity": 47, "note_on_time": 55.852, "note_off_time": 56.429}, {"pitch": 72, "velocity": 51, "note_on_time": 56.458, "note_off_time": 57.027}, {"pitch": 79, "velocity": 56, "note_on_time": 57.065, "note_off_time": 58.325}, {"pitch": 77, "velocity": 58, "note_on_time": 58.336, "note_off_time": 59.031}, {"pitch": 76, "velocity": 54, "note_on_time": 58.968, "note_off_time": 59.57}, {"pitch": 74, "velocity": 44, "note_on_time": 59.575, "note_off_time": 60.123}, {"pitch": 72, "velocity": 52, "note_on_time": 60.149, "note_off_time": 60.729}, {"pitch": 79, "velocity": 54, "note_on_time": 60.753, "note_off_time": 62.12}, {"pitch": 77, "velocity": 59, "note_on_time": 62.046, "note_off_time": 62.634}, {"pitch": 76, "velocity": 66, "note_on_time": 62.595, "note_off_time": 63.863}, {"pitch": 74, "velocity": 61, "note_on_time": 63.201, "note_off_time": 63.878}, {"pitch": 72, "velocity": 57, "note_on_time": 63.814, "note_off_time": 64.387}, {"pitch": 79, "velocity": 63, "note_on_time": 64.39, "note_off_time": 65.682}, {"pitch": 77, "velocity": 62, "note_on_time": 65.683, "note_off_time": 66.362}, {"pitch": 76, "velocity": 55, "note_on_time": 66.275, "note_off_time": 66.964}, {"pitch": 74, "velocity": 47, "note_on_time": 66.877, "note_off_time": 67.467}, {"pitch": 72, "velocity": 51, "note_on_time": 67.49, "note_off_time": 68.096}, {"pitch": 79, "velocity": 52, "note_on_time": 68.077, "note_off_time": 69.332}, {"pitch": 76, "velocity": 46, "note_on_time": 74.233, "note_off_time": 74.897}, {"pitch": 77, "velocity": 61, "note_on_time": 74.84, "note_off_time": 75.4}, {"pitch": 79, "velocity": 54, "note_on_time": 75.413, "note_off_time": 76.012}, {"pitch": 74, "velocity": 51, "note_on_time": 76.018, "note_off_time": 76.653}, {"pitch": 72, "velocity": 53, "note_on_time": 76.634, "note_off_time": 77.82}, {"pitch": 76, "velocity": 62, "note_on_time": 77.846, "note_off_time": 78.484}, {"pitch": 77, "velocity": 53, "note_on_time": 78.437, "note_off_time": 79.059}, {"pitch": 79, "velocity": 48, "note_on_time": 79.064, "note_off_time": 79.686}, {"pitch": 74, "velocity": 48, "note_on_time": 79.675, "note_off_time": 80.25}, {"pitch": 72, "velocity": 44, "note_on_time": 80.258, "note_off_time": 81.473}, {"pitch": 76, "velocity": 53, "note_on_time": 81.469, "note_off_time": 82.102}, {"pitch": 77, "velocity": 50, "note_on_time": 82.071, "note_off_time": 82.683}, {"pitch": 79, "velocity": 50, "note_on_time": 82.706, "note_off_time": 83.291}, {"pitch": 74, "velocity": 46, "note_on_time": 83.289, "note_off_time": 83.908}, {"pitch": 72, "velocity": 46, "note_on_time": 83.919, "note_off_time": 85.183}, {"pitch": 76, "velocity": 50, "note_on_time": 85.147, "note_off_time": 85.719}, {"pitch": 77, "velocity": 53, "note_on_time": 85.705, "note_off_time": 86.419}, {"pitch": 79, "velocity": 52, "note_on_time": 86.346, "note_off_time": 86.901}, {"pitch": 74, "velocity": 47, "note_on_time": 86.927, "note_off_time": 87.599}, {"pitch": 72, "velocity": 45, "note_on_time": 87.568, "note_off_time": 88.805}, {"pitch": 76, "velocity": 54, "note_on_time": 88.826, "note_off_time": 89.546}, {"pitch": 77, "velocity": 54, "note_on_time": 89.457, "note_off_time": 90.05}, {"pitch": 79, "velocity": 51, "note_on_time": 90.024, "note_off_time": 90.806}, {"pitch": 74, "velocity": 46, "note_on_time": 90.654, "note_off_time": 91.23}, {"pitch": 72, "velocity": 42, "note_on_time": 91.248, "note_off_time": 91.877}, {"pitch": 76, "velocity": 48, "note_on_time": 92.492, "note_off_time": 93.081}, {"pitch": 74, "velocity": 50, "note_on_time": 93.055, "note_off_time": 93.656}, {"pitch": 72, "velocity": 54, "note_on_time": 93.633, "note_off_time": 94.289}, {"pitch": 77, "velocity": 46, "note_on_time": 94.2, "note_off_time": 94.868}, {"pitch": 79, "velocity": 56, "note_on_time": 94.839, "note_off_time": 96.111}, {"pitch": 76, "velocity": 56, "note_on_time": 96.127, "note_off_time": 96.668}, {"pitch": 74, "velocity": 45, "note_on_time": 96.707, "note_off_time": 97.343}, {"pitch": 72, "velocity": 47, "note_on_time": 97.314, "note_off_time": 97.917}, {"pitch": 77, "velocity": 54, "note_on_time": 97.887, "note_off_time": 98.544}, {"pitch": 79, "velocity": 52, "note_on_time": 98.52, "note_off_time": 99.788}, {"pitch": 76, "velocity": 53, "note_on_time": 99.731, "note_off_time": 100.417}, {"pitch": 74, "velocity": 53, "note_on_time": 100.312, "note_off_time": 100.917}, {"pitch": 72, "velocity": 41, "note_on_time": 100.921, "note_off_time": 101.547}, {"pitch": 77, "velocity": 54, "note_on_time": 101.533, "note_off_time": 102.215}, {"pitch": 79, "velocity": 55, "note_on_time": 102.186, "note_off_time": 103.383}, {"pitch": 76, "velocity": 43, "note_on_time": 103.36, "note_off_time": 103.927}, {"pitch": 74, "velocity": 61, "note_on_time": 103.922, "note_off_time": 104.563}, {"pitch": 72, "velocity": 47, "note_on_time": 104.567, "note_off_time": 105.298}, {"pitch": 77, "velocity": 54, "note_on_time": 105.231, "note_off_time": 105.865}, {"pitch": 79, "velocity": 49, "note_on_time": 105.849, "note_off_time": 106.591}, {"pitch": 77, "velocity": 50, "note_on_time": 107.07, "note_off_time": 107.689}, {"pitch": 79, "velocity": 54, "note_on_time": 107.68, "note_off_time": 108.265}, {"pitch": 76, "velocity": 54, "note_on_time": 108.254, "note_off_time": 108.889}, {"pitch": 74, "velocity": 58, "note_on_time": 108.85, "note_off_time": 109.493}, {"pitch": 72, "velocity": 53, "note_on_time": 109.486, "note_off_time": 110.762}, {"pitch": 77, "velocity": 55, "note_on_time": 110.694, "note_off_time": 111.342}, {"pitch": 79, "velocity": 65, "note_on_time": 111.315, "note_off_time": 111.928}, {"pitch": 76, "velocity": 56, "note_on_time": 111.919, "note_off_time": 112.6}, {"pitch": 74, "velocity": 56, "note_on_time": 112.505, "note_off_time": 113.159}, {"pitch": 72, "velocity": 45, "note_on_time": 113.114, "note_off_time": 114.481}, {"pitch": 77, "velocity": 46, "note_on_time": 114.399, "note_off_time": 114.981}, {"pitch": 79, "velocity": 60, "note_on_time": 114.977, "note_off_time": 115.587}, {"pitch": 76, "velocity": 55, "note_on_time": 115.566, "note_off_time": 116.161}, {"pitch": 74, "velocity": 46, "note_on_time": 116.138, "note_off_time": 116.743}, {"pitch": 72, "velocity": 42, "note_on_time": 116.749, "note_off_time": 118.112}, {"pitch": 77, "velocity": 56, "note_on_time": 118.061, "note_off_time": 118.655}, {"pitch": 79, "velocity": 62, "note_on_time": 118.644, "note_off_time": 119.201}, {"pitch": 76, "velocity": 54, "note_on_time": 119.207, "note_off_time": 119.858}, {"pitch": 74, "velocity": 50, "note_on_time": 119.81, "note_off_time": 120.431}, {"pitch": 72, "velocity": 36, "note_on_time": 120.449, "note_off_time": 121.842}, {"pitch": 77, "velocity": 44, "note_on_time": 121.719, "note_off_time": 122.311}, {"pitch": 79, "velocity": 64, "note_on_time": 122.3, "note_off_time": 122.893}, {"pitch": 76, "velocity": 57, "note_on_time": 122.893, "note_off_time": 123.569}, {"pitch": 74, "velocity": 51, "note_on_time": 123.483, "note_off_time": 124.12}, {"pitch": 72, "velocity": 46, "note_on_time": 124.131, "note_off_time": 125.017}, {"pitch": 74, "velocity": 47, "note_on_time": 125.429, "note_off_time": 126.098}, {"pitch": 72, "velocity": 55, "note_on_time": 126.06, "note_off_time": 126.732}, {"pitch": 76, "velocity": 61, "note_on_time": 126.715, "note_off_time": 127.305}, {"pitch": 77, "velocity": 60, "note_on_time": 127.278, "note_off_time": 127.86}, {"pitch": 79, "velocity": 59, "note_on_time": 127.855, "note_off_time": 129.03}, {"pitch": 74, "velocity": 52, "note_on_time": 129.068, "note_off_time": 129.609}, {"pitch": 72, "velocity": 52, "note_on_time": 129.646, "note_off_time": 130.243}, {"pitch": 76, "velocity": 66, "note_on_time": 130.215, "note_off_time": 130.853}, {"pitch": 77, "velocity": 63, "note_on_time": 130.825, "note_off_time": 131.458}, {"pitch": 79, "velocity": 56, "note_on_time": 131.448, "note_off_time": 132.655}, {"pitch": 74, "velocity": 42, "note_on_time": 132.705, "note_off_time": 133.312}, {"pitch": 72, "velocity": 54, "note_on_time": 133.293, "note_off_time": 133.916}, {"pitch": 76, "velocity": 55, "note_on_time": 133.901, "note_off_time": 134.603}, {"pitch": 77, "velocity": 67, "note_on_time": 134.502, "note_off_time": 135.152}, {"pitch": 79, "velocity": 65, "note_on_time": 135.11, "note_off_time": 136.323}, {"pitch": 74, "velocity": 50, "note_on_time": 136.358, "note_off_time": 136.903}, {"pitch": 72, "velocity": 54, "note_on_time": 136.934, "note_off_time": 137.55}, {"pitch": 76, "velocity": 63, "note_on_time": 137.531, "note_off_time": 138.235}, {"pitch": 77, "velocity": 64, "note_on_time": 138.132, "note_off_time": 138.936}, {"pitch": 79, "velocity": 45, "note_on_time": 138.757, "note_off_time": 139.636}, {"pitch": 72, "velocity": 56, "note_on_time": 139.996, "note_off_time": 140.522}, {"pitch": 74, "velocity": 52, "note_on_time": 140.581, "note_off_time": 141.184}, {"pitch": 76, "velocity": 54, "note_on_time": 141.165, "note_off_time": 141.867}, {"pitch": 77, "velocity": 78, "note_on_time": 141.817, "note_off_time": 142.563}, {"pitch": 79, "velocity": 64, "note_on_time": 142.415, "note_off_time": 143.582}, {"pitch": 72, "velocity": 54, "note_on_time": 143.657, "note_off_time": 144.187}, {"pitch": 74, "velocity": 56, "note_on_time": 144.182, "note_off_time": 144.81}, {"pitch": 76, "velocity": 47, "note_on_time": 144.778, "note_off_time": 145.385}, {"pitch": 77, "velocity": 48, "note_on_time": 145.438, "note_off_time": 146.063}, {"pitch": 79, "velocity": 48, "note_on_time": 146.094, "note_off_time": 147.342}, {"pitch": 72, "velocity": 32, "note_on_time": 147.319, "note_off_time": 147.882}, {"pitch": 74, "velocity": 54, "note_on_time": 147.904, "note_off_time": 148.459}, {"pitch": 76, "velocity": 55, "note_on_time": 148.467, "note_off_time": 149.035}, {"pitch": 77, "velocity": 54, "note_on_time": 149.056, "note_off_time": 149.724}, {"pitch": 79, "velocity": 52, "note_on_time": 149.719, "note_off_time": 150.715}, {"pitch": 72, "velocity": 51, "note_on_time": 150.949, "note_off_time": 151.448}, {"pitch": 74, "velocity": 52, "note_on_time": 151.469, "note_off_time": 152.156}, {"pitch": 76, "velocity": 62, "note_on_time": 152.098, "note_off_time": 152.646}, {"pitch": 77, "velocity": 57, "note_on_time": 152.731, "note_off_time": 153.314}, {"pitch": 79, "velocity": 51, "note_on_time": 153.313, "note_off_time": 153.874}, {"pitch": 79, "velocity": 52, "note_on_time": 154.564, "note_off_time": 155.161}, {"pitch": 77, "velocity": 55, "note_on_time": 155.172, "note_off_time": 155.728}, {"pitch": 76, "velocity": 56, "note_on_time": 155.737, "note_off_time": 156.361}, {"pitch": 74, "velocity": 47, "note_on_time": 156.348, "note_off_time": 156.927}, {"pitch": 72, "velocity": 47, "note_on_time": 156.95, "note_off_time": 157.675}, {"pitch": 79, "velocity": 54, "note_on_time": 158.165, "note_off_time": 158.731}, {"pitch": 77, "velocity": 58, "note_on_time": 158.75, "note_off_time": 159.381}, {"pitch": 76, "velocity": 54, "note_on_time": 159.365, "note_off_time": 159.977}, {"pitch": 74, "velocity": 38, "note_on_time": 159.981, "note_off_time": 160.562}, {"pitch": 72, "velocity": 47, "note_on_time": 160.578, "note_off_time": 161.148}, {"pitch": 79, "velocity": 50, "note_on_time": 161.817, "note_off_time": 162.485}, {"pitch": 77, "velocity": 58, "note_on_time": 162.425, "note_off_time": 163.032}, {"pitch": 76, "velocity": 59, "note_on_time": 163.023, "note_off_time": 163.685}, {"pitch": 74, "velocity": 38, "note_on_time": 163.621, "note_off_time": 164.331}, {"pitch": 72, "velocity": 36, "note_on_time": 164.285, "note_off_time": 164.925}, {"pitch": 79, "velocity": 59, "note_on_time": 165.465, "note_off_time": 166.104}, {"pitch": 77, "velocity": 52, "note_on_time": 166.047, "note_off_time": 166.754}, {"pitch": 76, "velocity": 46, "note_on_time": 166.698, "note_off_time": 167.339}, {"pitch": 74, "velocity": 38, "note_on_time": 167.296, "note_off_time": 167.842}, {"pitch": 72, "velocity": 37, "note_on_time": 167.86, "note_off_time": 168.565}, {"pitch": 74, "velocity": 43, "note_on_time": 169.15, "note_off_time": 169.795}, {"pitch": 76, "velocity": 62, "note_on_time": 169.729, "note_off_time": 170.326}, {"pitch": 77, "velocity": 63, "note_on_time": 170.372, "note_off_time": 170.985}, {"pitch": 79, "velocity": 59, "note_on_time": 170.937, "note_off_time": 171.493}, {"pitch": 72, "velocity": 59, "note_on_time": 171.522, "note_off_time": 172.619}, {"pitch": 74, "velocity": 52, "note_on_time": 172.773, "note_off_time": 173.437}, {"pitch": 76, "velocity": 63, "note_on_time": 173.351, "note_off_time": 174.012}, {"pitch": 77, "velocity": 54, "note_on_time": 174.016, "note_off_time": 174.682}, {"pitch": 79, "velocity": 33, "note_on_time": 174.569, "note_off_time": 175.575}, {"pitch": 72, "velocity": 48, "note_on_time": 175.162, "note_off_time": 176.337}, {"pitch": 74, "velocity": 50, "note_on_time": 176.41, "note_off_time": 176.965}, {"pitch": 76, "velocity": 64, "note_on_time": 176.967, "note_off_time": 177.64}, {"pitch": 77, "velocity": 57, "note_on_time": 177.593, "note_off_time": 178.22}, {"pitch": 79, "velocity": 55, "note_on_time": 178.219, "note_off_time": 178.767}, {"pitch": 72, "velocity": 48, "note_on_time": 178.777, "note_off_time": 180.041}, {"pitch": 74, "velocity": 53, "note_on_time": 180.043, "note_off_time": 180.784}, {"pitch": 76, "velocity": 58, "note_on_time": 180.625, "note_off_time": 181.101}, {"pitch": 77, "velocity": 52, "note_on_time": 181.276, "note_off_time": 181.869}, {"pitch": 79, "velocity": 55, "note_on_time": 181.871, "note_off_time": 182.547}, {"pitch": 72, "velocity": 47, "note_on_time": 182.559, "note_off_time": 183.403}, {"pitch": 79, "velocity": 45, "note_on_time": 184.673, "note_off_time": 184.816}, {"pitch": 77, "velocity": 46, "note_on_time": 186.053, "note_off_time": 186.6}, {"pitch": 76, "velocity": 60, "note_on_time": 186.556, "note_off_time": 187.082}, {"pitch": 74, "velocity": 56, "note_on_time": 187.084, "note_off_time": 187.697}, {"pitch": 72, "velocity": 55, "note_on_time": 187.651, "note_off_time": 188.467}, {"pitch": 79, "velocity": 38, "note_on_time": 188.403, "note_off_time": 189.235}, {"pitch": 77, "velocity": 48, "note_on_time": 189.732, "note_off_time": 190.337}, {"pitch": 76, "velocity": 57, "note_on_time": 190.299, "note_off_time": 190.894}, {"pitch": 74, "velocity": 56, "note_on_time": 190.868, "note_off_time": 191.544}, {"pitch": 72, "velocity": 40, "note_on_time": 191.523, "note_off_time": 192.309}, {"pitch": 79, "velocity": 40, "note_on_time": 192.188, "note_off_time": 192.909}]</notes><guidance name="Guidance Mode">None</guidance><error name="Error value">99</error></trial></trials></MIDI>