<MIDI midiNo="2024_02_26-15_11_04"><target_notes><notes name="Note List">[{"pitch": 60, "velocity": 40, "note_on_time": 0.009, "note_off_time": 1.025}, {"pitch": 64, "velocity": 40, "note_on_time": 0.009, "note_off_time": 1.026}, {"pitch": 67, "velocity": 40, "note_on_time": 0.009, "note_off_time": 1.027}, {"pitch": 48, "velocity": 40, "note_on_time": 0.01, "note_off_time": 1.027}, {"pitch": 52, "velocity": 40, "note_on_time": 1.027, "note_off_time": 2.03}, {"pitch": 55, "velocity": 40, "note_on_time": 1.027, "note_off_time": 2.031}, {"pitch": 77, "velocity": 40, "note_on_time": 2.03, "note_off_time": 3.044}, {"pitch": 48, "velocity": 40, "note_on_time": 2.031, "note_off_time": 3.044}, {"pitch": 52, "velocity": 40, "note_on_time": 3.044, "note_off_time": 4.054}, {"pitch": 55, "velocity": 40, "note_on_time": 3.044, "note_off_time": 4.054}, {"pitch": 48, "velocity": 40, "note_on_time": 4.054, "note_off_time": 5.07}, {"pitch": 52, "velocity": 40, "note_on_time": 5.07, "note_off_time": 6.084}, {"pitch": 55, "velocity": 40, "note_on_time": 5.07, "note_off_time": 6.084}, {"pitch": 48, "velocity": 40, "note_on_time": 6.084, "note_off_time": 7.09}, {"pitch": 52, "velocity": 40, "note_on_time": 7.09, "note_off_time": 8.106}, {"pitch": 55, "velocity": 40, "note_on_time": 7.09, "note_off_time": 8.106}, {"pitch": 60, "velocity": 40, "note_on_time": 8.105, "note_off_time": 9.121}, {"pitch": 64, "velocity": 40, "note_on_time": 8.105, "note_off_time": 9.121}, {"pitch": 67, "velocity": 40, "note_on_time": 8.106, "note_off_time": 9.122}, {"pitch": 48, "velocity": 40, "note_on_time": 8.106, "note_off_time": 9.122}, {"pitch": 52, "velocity": 40, "note_on_time": 9.122, "note_off_time": 10.131}, {"pitch": 55, "velocity": 40, "note_on_time": 9.122, "note_off_time": 10.131}, {"pitch": 74, "velocity": 40, "note_on_time": 10.131, "note_off_time": 11.134}, {"pitch": 48, "velocity": 40, "note_on_time": 10.131, "note_off_time": 11.135}, {"pitch": 52, "velocity": 40, "note_on_time": 11.135, "note_off_time": 12.151}, {"pitch": 55, "velocity": 40, "note_on_time": 11.135, "note_off_time": 12.151}, {"pitch": 48, "velocity": 40, "note_on_time": 12.151, "note_off_time": 13.166}, {"pitch": 52, "velocity": 40, "note_on_time": 13.166, "note_off_time": 14.167}, {"pitch": 55, "velocity": 40, "note_on_time": 13.166, "note_off_time": 14.167}, {"pitch": 48, "velocity": 40, "note_on_time": 14.167, "note_off_time": 15.169}, {"pitch": 52, "velocity": 40, "note_on_time": 15.169, "note_off_time": 16.174}, {"pitch": 55, "velocity": 40, "note_on_time": 15.169, "note_off_time": 16.175}, {"pitch": 60, "velocity": 40, "note_on_time": 16.173, "note_off_time": 17.188}, {"pitch": 64, "velocity": 40, "note_on_time": 16.174, "note_off_time": 17.189}, {"pitch": 67, "velocity": 40, "note_on_time": 16.174, "note_off_time": 17.189}, {"pitch": 48, "velocity": 40, "note_on_time": 16.175, "note_off_time": 17.189}, {"pitch": 52, "velocity": 40, "note_on_time": 17.189, "note_off_time": 18.201}, {"pitch": 55, "velocity": 40, "note_on_time": 17.189, "note_off_time": 18.201}, {"pitch": 72, "velocity": 40, "note_on_time": 18.201, "note_off_time": 19.204}, {"pitch": 48, "velocity": 40, "note_on_time": 18.201, "note_off_time": 19.205}, {"pitch": 52, "velocity": 40, "note_on_time": 19.205, "note_off_time": 20.212}, {"pitch": 55, "velocity": 40, "note_on_time": 19.205, "note_off_time": 20.212}, {"pitch": 48, "velocity": 40, "note_on_time": 20.212, "note_off_time": 21.213}, {"pitch": 52, "velocity": 40, "note_on_time": 21.213, "note_off_time": 22.216}, {"pitch": 55, "velocity": 40, "note_on_time": 21.213, "note_off_time": 22.216}, {"pitch": 48, "velocity": 40, "note_on_time": 22.216, "note_off_time": 23.22}, {"pitch": 52, "velocity": 40, "note_on_time": 23.22, "note_off_time": 24.237}, {"pitch": 55, "velocity": 40, "note_on_time": 23.22, "note_off_time": 24.237}, {"pitch": 60, "velocity": 40, "note_on_time": 24.235, "note_off_time": 25.238}, {"pitch": 64, "velocity": 40, "note_on_time": 24.236, "note_off_time": 25.239}, {"pitch": 67, "velocity": 40, "note_on_time": 24.236, "note_off_time": 25.24}, {"pitch": 48, "velocity": 40, "note_on_time": 24.237, "note_off_time": 25.24}, {"pitch": 52, "velocity": 40, "note_on_time": 25.24, "note_off_time": 26.243}, {"pitch": 55, "velocity": 40, "note_on_time": 25.24, "note_off_time": 26.243}, {"pitch": 76, "velocity": 40, "note_on_time": 26.242, "note_off_time": 27.256}, {"pitch": 48, "velocity": 40, "note_on_time": 26.243, "note_off_time": 27.257}, {"pitch": 52, "velocity": 40, "note_on_time": 27.257, "note_off_time": 28.265}, {"pitch": 55, "velocity": 40, "note_on_time": 27.257, "note_off_time": 28.265}, {"pitch": 48, "velocity": 40, "note_on_time": 28.265, "note_off_time": 29.271}, {"pitch": 52, "velocity": 40, "note_on_time": 29.271, "note_off_time": 30.283}, {"pitch": 55, "velocity": 40, "note_on_time": 29.271, "note_off_time": 30.283}, {"pitch": 48, "velocity": 40, "note_on_time": 30.283, "note_off_time": 31.287}, {"pitch": 52, "velocity": 40, "note_on_time": 31.287, "note_off_time": 32.294}, {"pitch": 55, "velocity": 40, "note_on_time": 31.287, "note_off_time": 32.294}, {"pitch": 60, "velocity": 40, "note_on_time": 32.292, "note_off_time": 33.309}, {"pitch": 64, "velocity": 40, "note_on_time": 32.293, "note_off_time": 33.31}, {"pitch": 67, "velocity": 40, "note_on_time": 32.293, "note_off_time": 33.31}, {"pitch": 48, "velocity": 40, "note_on_time": 32.294, "note_off_time": 33.31}, {"pitch": 52, "velocity": 40, "note_on_time": 33.311, "note_off_time": 34.314}, {"pitch": 55, "velocity": 40, "note_on_time": 33.311, "note_off_time": 34.315}, {"pitch": 72, "velocity": 40, "note_on_time": 34.314, "note_off_time": 35.331}, {"pitch": 48, "velocity": 40, "note_on_time": 34.315, "note_off_time": 35.331}, {"pitch": 52, "velocity": 40, "note_on_time": 35.332, "note_off_time": 36.344}, {"pitch": 55, "velocity": 40, "note_on_time": 35.332, "note_off_time": 36.344}, {"pitch": 48, "velocity": 40, "note_on_time": 36.344, "note_off_time": 37.349}, {"pitch": 52, "velocity": 40, "note_on_time": 37.349, "note_off_time": 38.358}, {"pitch": 55, "velocity": 40, "note_on_time": 37.349, "note_off_time": 38.358}, {"pitch": 48, "velocity": 40, "note_on_time": 38.358, "note_off_time": 39.364}, {"pitch": 52, "velocity": 40, "note_on_time": 39.364, "note_off_time": 40.376}, {"pitch": 55, "velocity": 40, "note_on_time": 39.364, "note_off_time": 40.376}, {"pitch": 60, "velocity": 40, "note_on_time": 40.374, "note_off_time": 41.389}, {"pitch": 64, "velocity": 40, "note_on_time": 40.376, "note_off_time": 41.392}, {"pitch": 67, "velocity": 40, "note_on_time": 40.376, "note_off_time": 41.392}, {"pitch": 76, "velocity": 40, "note_on_time": 42.402, "note_off_time": 43.406}, {"pitch": 60, "velocity": 40, "note_on_time": 48.422, "note_off_time": 49.427}, {"pitch": 64, "velocity": 40, "note_on_time": 48.422, "note_off_time": 49.427}, {"pitch": 67, "velocity": 40, "note_on_time": 48.423, "note_off_time": 49.428}, {"pitch": 74, "velocity": 40, "note_on_time": 50.438, "note_off_time": 51.439}, {"pitch": 60, "velocity": 40, "note_on_time": 56.447, "note_off_time": 57.462}, {"pitch": 64, "velocity": 40, "note_on_time": 56.448, "note_off_time": 57.463}, {"pitch": 67, "velocity": 40, "note_on_time": 56.448, "note_off_time": 57.464}, {"pitch": 77, "velocity": 40, "note_on_time": 58.468, "note_off_time": 59.472}, {"pitch": 60, "velocity": 40, "note_on_time": 64.488, "note_off_time": 65.499}, {"pitch": 64, "velocity": 40, "note_on_time": 64.489, "note_off_time": 65.5}, {"pitch": 67, "velocity": 40, "note_on_time": 64.489, "note_off_time": 65.501}, {"pitch": 76, "velocity": 40, "note_on_time": 66.513, "note_off_time": 67.527}, {"pitch": 60, "velocity": 40, "note_on_time": 72.539, "note_off_time": 73.55}, {"pitch": 64, "velocity": 40, "note_on_time": 72.541, "note_off_time": 73.552}, {"pitch": 67, "velocity": 40, "note_on_time": 72.541, "note_off_time": 73.552}, {"pitch": 72, "velocity": 40, "note_on_time": 74.565, "note_off_time": 75.572}, {"pitch": 60, "velocity": 40, "note_on_time": 80.588, "note_off_time": 81.592}, {"pitch": 64, "velocity": 40, "note_on_time": 80.588, "note_off_time": 81.592}, {"pitch": 67, "velocity": 40, "note_on_time": 80.589, "note_off_time": 81.593}, {"pitch": 79, "velocity": 40, "note_on_time": 82.594, "note_off_time": 83.597}, {"pitch": 60, "velocity": 40, "note_on_time": 88.61, "note_off_time": 89.615}, {"pitch": 64, "velocity": 40, "note_on_time": 88.611, "note_off_time": 89.615}, {"pitch": 67, "velocity": 40, "note_on_time": 88.612, "note_off_time": 89.616}, {"pitch": 74, "velocity": 40, "note_on_time": 90.618, "note_off_time": 91.621}, {"pitch": 60, "velocity": 40, "note_on_time": 96.631, "note_off_time": 97.634}, {"pitch": 64, "velocity": 40, "note_on_time": 96.632, "note_off_time": 97.634}, {"pitch": 67, "velocity": 40, "note_on_time": 96.632, "note_off_time": 97.634}, {"pitch": 72, "velocity": 40, "note_on_time": 98.635, "note_off_time": 99.648}, {"pitch": 60, "velocity": 40, "note_on_time": 104.655, "note_off_time": 105.657}, {"pitch": 64, "velocity": 40, "note_on_time": 104.656, "note_off_time": 105.658}, {"pitch": 67, "velocity": 40, "note_on_time": 104.656, "note_off_time": 105.659}, {"pitch": 77, "velocity": 40, "note_on_time": 106.673, "note_off_time": 107.675}, {"pitch": 60, "velocity": 40, "note_on_time": 112.677, "note_off_time": 113.68}, {"pitch": 64, "velocity": 40, "note_on_time": 112.678, "note_off_time": 113.681}, {"pitch": 67, "velocity": 40, "note_on_time": 112.679, "note_off_time": 113.682}, {"pitch": 79, "velocity": 40, "note_on_time": 114.692, "note_off_time": 115.7}, {"pitch": 60, "velocity": 40, "note_on_time": 120.708, "note_off_time": 121.72}, {"pitch": 64, "velocity": 40, "note_on_time": 120.709, "note_off_time": 121.721}, {"pitch": 67, "velocity": 40, "note_on_time": 120.71, "note_off_time": 121.722}, {"pitch": 74, "velocity": 40, "note_on_time": 122.735, "note_off_time": 123.741}, {"pitch": 60, "velocity": 40, "note_on_time": 128.752, "note_off_time": 129.758}, {"pitch": 64, "velocity": 40, "note_on_time": 128.753, "note_off_time": 129.759}, {"pitch": 67, "velocity": 40, "note_on_time": 128.754, "note_off_time": 129.76}, {"pitch": 79, "velocity": 40, "note_on_time": 130.768, "note_off_time": 131.778}, {"pitch": 60, "velocity": 40, "note_on_time": 136.79, "note_off_time": 137.801}, {"pitch": 64, "velocity": 40, "note_on_time": 136.791, "note_off_time": 137.802}, {"pitch": 67, "velocity": 40, "note_on_time": 136.792, "note_off_time": 137.803}, {"pitch": 76, "velocity": 40, "note_on_time": 138.806, "note_off_time": 139.818}, {"pitch": 60, "velocity": 40, "note_on_time": 144.822, "note_off_time": 145.828}, {"pitch": 64, "velocity": 40, "note_on_time": 144.822, "note_off_time": 145.828}, {"pitch": 67, "velocity": 40, "note_on_time": 144.823, "note_off_time": 145.829}, {"pitch": 77, "velocity": 40, "note_on_time": 146.842, "note_off_time": 147.844}, {"pitch": 60, "velocity": 40, "note_on_time": 152.854, "note_off_time": 153.856}, {"pitch": 64, "velocity": 40, "note_on_time": 152.854, "note_off_time": 153.857}, {"pitch": 67, "velocity": 40, "note_on_time": 152.855, "note_off_time": 153.858}, {"pitch": 79, "velocity": 40, "note_on_time": 154.861, "note_off_time": 155.868}, {"pitch": 60, "velocity": 40, "note_on_time": 160.881, "note_off_time": 161.897}, {"pitch": 64, "velocity": 40, "note_on_time": 160.882, "note_off_time": 161.899}, {"pitch": 67, "velocity": 40, "note_on_time": 160.882, "note_off_time": 161.899}, {"pitch": 77, "velocity": 40, "note_on_time": 162.907, "note_off_time": 163.912}]</notes><options name="Option List">((4, 4), [0.5, 0.25], 3, 8, &lt;NoteRangePerHand.TWO_NOTES: 3&gt;, &lt;NoteRangePerHand.ONE_NOTE: 2&gt;, False, True, True, 100)</options></target_notes><trials><trial trial_no="1" timestamp="2024_02_26-15_08_20"><notes name="Played Notes">[{"pitch": 72, "velocity": 52, "note_on_time": 3.839, "note_off_time": 4.239}, {"pitch": 74, "velocity": 68, "note_on_time": 6.595, "note_off_time": 6.969}, {"pitch": 74, "velocity": 27, "note_on_time": 11.58, "note_off_time": 12.009}, {"pitch": 79, "velocity": 46, "note_on_time": 20.739, "note_off_time": 21.319}, {"pitch": 77, "velocity": 27, "note_on_time": 21.802, "note_off_time": 22.173}, {"pitch": 76, "velocity": 66, "note_on_time": 23.266, "note_off_time": 23.64}, {"pitch": 77, "velocity": 40, "note_on_time": 27.308, "note_off_time": 27.742}, {"pitch": 76, "velocity": 1, "note_on_time": 29.067, "note_off_time": 29.336}, {"pitch": 76, "velocity": 52, "note_on_time": 29.647, "note_off_time": 29.885}, {"pitch": 72, "velocity": 16, "note_on_time": 32.065, "note_off_time": 32.299}, {"pitch": 74, "velocity": 73, "note_on_time": 36.433, "note_off_time": 36.751}, {"pitch": 76, "velocity": 56, "note_on_time": 37.972, "note_off_time": 38.65}, {"pitch": 76, "velocity": 28, "note_on_time": 44.126, "note_off_time": 44.766}, {"pitch": 76, "velocity": 40, "note_on_time": 52.551, "note_off_time": 53.134}, {"pitch": 77, "velocity": 24, "note_on_time": 54.029, "note_off_time": 54.868}, {"pitch": 77, "velocity": 53, "note_on_time": 55.409, "note_off_time": 56.026}, {"pitch": 79, "velocity": 43, "note_on_time": 60.093, "note_off_time": 60.579}, {"pitch": 72, "velocity": 38, "note_on_time": 61.206, "note_off_time": 61.785}, {"pitch": 74, "velocity": 52, "note_on_time": 63.295, "note_off_time": 63.869}, {"pitch": 74, "velocity": 37, "note_on_time": 67.767, "note_off_time": 68.367}, {"pitch": 76, "velocity": 17, "note_on_time": 69.289, "note_off_time": 69.651}, {"pitch": 76, "velocity": 56, "note_on_time": 70.238, "note_off_time": 70.905}, {"pitch": 77, "velocity": 1, "note_on_time": 71.892, "note_off_time": 72.272}, {"pitch": 77, "velocity": 59, "note_on_time": 72.558, "note_off_time": 73.01}, {"pitch": 72, "velocity": 1, "note_on_time": 76.764, "note_off_time": 77.354}, {"pitch": 72, "velocity": 63, "note_on_time": 78.014, "note_off_time": 79.428}, {"pitch": 74, "velocity": 59, "note_on_time": 84.637, "note_off_time": 85.59}, {"pitch": 76, "velocity": 57, "note_on_time": 86.524, "note_off_time": 87.423}, {"pitch": 76, "velocity": 28, "note_on_time": 92.994, "note_off_time": 93.66}, {"pitch": 76, "velocity": 62, "note_on_time": 94.113, "note_off_time": 95.252}, {"pitch": 74, "velocity": 66, "note_on_time": 95.909, "note_off_time": 96.6}, {"pitch": 74, "velocity": 56, "note_on_time": 100.258, "note_off_time": 101.097}, {"pitch": 79, "velocity": 45, "note_on_time": 101.845, "note_off_time": 102.376}, {"pitch": 77, "velocity": 25, "note_on_time": 103.676, "note_off_time": 104.072}, {"pitch": 77, "velocity": 71, "note_on_time": 104.465, "note_off_time": 104.955}, {"pitch": 72, "velocity": 54, "note_on_time": 108.951, "note_off_time": 109.424}, {"pitch": 76, "velocity": 67, "note_on_time": 110.976, "note_off_time": 111.695}, {"pitch": 72, "velocity": 54, "note_on_time": 116.32, "note_off_time": 116.706}, {"pitch": 77, "velocity": 47, "note_on_time": 117.646, "note_off_time": 118.437}, {"pitch": 79, "velocity": 41, "note_on_time": 124.767, "note_off_time": 125.659}, {"pitch": 74, "velocity": 30, "note_on_time": 126.606, "note_off_time": 127.305}, {"pitch": 74, "velocity": 48, "note_on_time": 132.476, "note_off_time": 132.961}, {"pitch": 77, "velocity": 59, "note_on_time": 133.874, "note_off_time": 134.716}, {"pitch": 76, "velocity": 54, "note_on_time": 141.206, "note_off_time": 141.881}, {"pitch": 76, "velocity": 28, "note_on_time": 148.654, "note_off_time": 149.354}, {"pitch": 76, "velocity": 52, "note_on_time": 150.343, "note_off_time": 151.019}, {"pitch": 76, "velocity": 57, "note_on_time": 156.83, "note_off_time": 157.813}, {"pitch": 79, "velocity": 59, "note_on_time": 159.041, "note_off_time": 159.296}]</notes><guidance name="Guidance Mode">None</guidance><error name="Error value">99</error></trial></trials></MIDI>