<MIDI midiNo="2024_03_11-11_37_14"><target_notes><notes name="Note List">[{"pitch": 60, "velocity": 40, "note_on_time": 0.009, "note_off_time": 1.02}, {"pitch": 64, "velocity": 40, "note_on_time": 0.009, "note_off_time": 1.02}, {"pitch": 67, "velocity": 40, "note_on_time": 0.009, "note_off_time": 1.021}, {"pitch": 48, "velocity": 40, "note_on_time": 0.009, "note_off_time": 1.021}, {"pitch": 52, "velocity": 40, "note_on_time": 1.021, "note_off_time": 2.023}, {"pitch": 55, "velocity": 40, "note_on_time": 1.021, "note_off_time": 2.024}, {"pitch": 76, "velocity": 40, "note_on_time": 2.023, "note_off_time": 3.035}, {"pitch": 48, "velocity": 40, "note_on_time": 2.024, "note_off_time": 3.036}, {"pitch": 52, "velocity": 40, "note_on_time": 3.036, "note_off_time": 4.052}, {"pitch": 55, "velocity": 40, "note_on_time": 3.036, "note_off_time": 4.052}, {"pitch": 48, "velocity": 40, "note_on_time": 4.052, "note_off_time": 5.064}, {"pitch": 52, "velocity": 40, "note_on_time": 5.064, "note_off_time": 6.067}, {"pitch": 55, "velocity": 40, "note_on_time": 5.064, "note_off_time": 6.068}, {"pitch": 48, "velocity": 40, "note_on_time": 6.068, "note_off_time": 7.082}, {"pitch": 52, "velocity": 40, "note_on_time": 7.082, "note_off_time": 8.088}, {"pitch": 55, "velocity": 40, "note_on_time": 7.082, "note_off_time": 8.088}, {"pitch": 60, "velocity": 40, "note_on_time": 8.086, "note_off_time": 9.095}, {"pitch": 64, "velocity": 40, "note_on_time": 8.087, "note_off_time": 9.096}, {"pitch": 67, "velocity": 40, "note_on_time": 8.088, "note_off_time": 9.097}, {"pitch": 48, "velocity": 40, "note_on_time": 8.088, "note_off_time": 9.097}, {"pitch": 52, "velocity": 40, "note_on_time": 9.097, "note_off_time": 10.105}, {"pitch": 55, "velocity": 40, "note_on_time": 9.097, "note_off_time": 10.105}, {"pitch": 77, "velocity": 40, "note_on_time": 10.104, "note_off_time": 11.116}, {"pitch": 48, "velocity": 40, "note_on_time": 10.105, "note_off_time": 11.116}, {"pitch": 52, "velocity": 40, "note_on_time": 11.116, "note_off_time": 12.123}, {"pitch": 55, "velocity": 40, "note_on_time": 11.116, "note_off_time": 12.123}, {"pitch": 48, "velocity": 40, "note_on_time": 12.123, "note_off_time": 13.138}, {"pitch": 52, "velocity": 40, "note_on_time": 13.138, "note_off_time": 14.143}, {"pitch": 55, "velocity": 40, "note_on_time": 13.138, "note_off_time": 14.143}, {"pitch": 48, "velocity": 40, "note_on_time": 14.143, "note_off_time": 15.146}, {"pitch": 52, "velocity": 40, "note_on_time": 15.146, "note_off_time": 16.149}, {"pitch": 55, "velocity": 40, "note_on_time": 15.146, "note_off_time": 16.149}, {"pitch": 60, "velocity": 40, "note_on_time": 16.148, "note_off_time": 17.156}, {"pitch": 64, "velocity": 40, "note_on_time": 16.149, "note_off_time": 17.157}, {"pitch": 67, "velocity": 40, "note_on_time": 16.149, "note_off_time": 17.158}, {"pitch": 48, "velocity": 40, "note_on_time": 16.149, "note_off_time": 17.158}, {"pitch": 52, "velocity": 40, "note_on_time": 17.158, "note_off_time": 18.168}, {"pitch": 55, "velocity": 40, "note_on_time": 17.158, "note_off_time": 18.168}, {"pitch": 76, "velocity": 40, "note_on_time": 18.168, "note_off_time": 19.173}, {"pitch": 48, "velocity": 40, "note_on_time": 18.168, "note_off_time": 19.174}, {"pitch": 52, "velocity": 40, "note_on_time": 19.174, "note_off_time": 20.184}, {"pitch": 55, "velocity": 40, "note_on_time": 19.174, "note_off_time": 20.184}, {"pitch": 48, "velocity": 40, "note_on_time": 20.184, "note_off_time": 21.188}, {"pitch": 52, "velocity": 40, "note_on_time": 21.188, "note_off_time": 22.195}, {"pitch": 55, "velocity": 40, "note_on_time": 21.188, "note_off_time": 22.196}, {"pitch": 48, "velocity": 40, "note_on_time": 22.196, "note_off_time": 23.209}, {"pitch": 52, "velocity": 40, "note_on_time": 23.209, "note_off_time": 24.219}, {"pitch": 55, "velocity": 40, "note_on_time": 23.209, "note_off_time": 24.219}, {"pitch": 60, "velocity": 40, "note_on_time": 24.217, "note_off_time": 25.224}, {"pitch": 64, "velocity": 40, "note_on_time": 24.218, "note_off_time": 25.225}, {"pitch": 67, "velocity": 40, "note_on_time": 24.219, "note_off_time": 25.226}, {"pitch": 48, "velocity": 40, "note_on_time": 24.219, "note_off_time": 25.226}, {"pitch": 52, "velocity": 40, "note_on_time": 25.226, "note_off_time": 26.238}, {"pitch": 55, "velocity": 40, "note_on_time": 25.226, "note_off_time": 26.239}, {"pitch": 74, "velocity": 40, "note_on_time": 26.238, "note_off_time": 27.246}, {"pitch": 48, "velocity": 40, "note_on_time": 26.239, "note_off_time": 27.247}, {"pitch": 52, "velocity": 40, "note_on_time": 27.247, "note_off_time": 28.248}, {"pitch": 55, "velocity": 40, "note_on_time": 27.247, "note_off_time": 28.248}, {"pitch": 48, "velocity": 40, "note_on_time": 28.248, "note_off_time": 29.256}, {"pitch": 52, "velocity": 40, "note_on_time": 29.256, "note_off_time": 30.265}, {"pitch": 55, "velocity": 40, "note_on_time": 29.256, "note_off_time": 30.265}, {"pitch": 48, "velocity": 40, "note_on_time": 30.265, "note_off_time": 31.267}, {"pitch": 52, "velocity": 40, "note_on_time": 31.267, "note_off_time": 32.278}, {"pitch": 55, "velocity": 40, "note_on_time": 31.267, "note_off_time": 32.278}, {"pitch": 60, "velocity": 40, "note_on_time": 32.277, "note_off_time": 33.288}, {"pitch": 64, "velocity": 40, "note_on_time": 32.277, "note_off_time": 33.288}, {"pitch": 67, "velocity": 40, "note_on_time": 32.278, "note_off_time": 33.289}, {"pitch": 48, "velocity": 40, "note_on_time": 32.278, "note_off_time": 33.289}, {"pitch": 52, "velocity": 40, "note_on_time": 33.289, "note_off_time": 34.296}, {"pitch": 55, "velocity": 40, "note_on_time": 33.289, "note_off_time": 34.297}, {"pitch": 72, "velocity": 40, "note_on_time": 34.296, "note_off_time": 35.314}, {"pitch": 48, "velocity": 40, "note_on_time": 34.297, "note_off_time": 35.314}, {"pitch": 52, "velocity": 40, "note_on_time": 35.314, "note_off_time": 36.324}, {"pitch": 55, "velocity": 40, "note_on_time": 35.314, "note_off_time": 36.324}, {"pitch": 48, "velocity": 40, "note_on_time": 36.324, "note_off_time": 37.328}, {"pitch": 52, "velocity": 40, "note_on_time": 37.328, "note_off_time": 38.337}, {"pitch": 55, "velocity": 40, "note_on_time": 37.328, "note_off_time": 38.337}, {"pitch": 48, "velocity": 40, "note_on_time": 38.337, "note_off_time": 39.353}, {"pitch": 52, "velocity": 40, "note_on_time": 39.353, "note_off_time": 40.364}, {"pitch": 55, "velocity": 40, "note_on_time": 39.353, "note_off_time": 40.364}, {"pitch": 60, "velocity": 40, "note_on_time": 40.363, "note_off_time": 41.379}, {"pitch": 64, "velocity": 40, "note_on_time": 40.363, "note_off_time": 41.38}, {"pitch": 67, "velocity": 40, "note_on_time": 40.364, "note_off_time": 41.38}, {"pitch": 74, "velocity": 40, "note_on_time": 42.397, "note_off_time": 43.4}, {"pitch": 60, "velocity": 40, "note_on_time": 48.411, "note_off_time": 49.423}, {"pitch": 64, "velocity": 40, "note_on_time": 48.412, "note_off_time": 49.424}, {"pitch": 67, "velocity": 40, "note_on_time": 48.413, "note_off_time": 49.424}, {"pitch": 79, "velocity": 40, "note_on_time": 50.433, "note_off_time": 51.445}, {"pitch": 60, "velocity": 40, "note_on_time": 56.459, "note_off_time": 57.473}, {"pitch": 64, "velocity": 40, "note_on_time": 56.46, "note_off_time": 57.474}, {"pitch": 67, "velocity": 40, "note_on_time": 56.46, "note_off_time": 57.475}, {"pitch": 72, "velocity": 40, "note_on_time": 58.478, "note_off_time": 59.492}, {"pitch": 60, "velocity": 40, "note_on_time": 64.498, "note_off_time": 65.516}, {"pitch": 64, "velocity": 40, "note_on_time": 64.499, "note_off_time": 65.517}, {"pitch": 67, "velocity": 40, "note_on_time": 64.499, "note_off_time": 65.517}, {"pitch": 77, "velocity": 40, "note_on_time": 66.522, "note_off_time": 67.524}, {"pitch": 60, "velocity": 40, "note_on_time": 72.528, "note_off_time": 73.54}, {"pitch": 64, "velocity": 40, "note_on_time": 72.528, "note_off_time": 73.541}, {"pitch": 67, "velocity": 40, "note_on_time": 72.529, "note_off_time": 73.541}, {"pitch": 72, "velocity": 40, "note_on_time": 74.554, "note_off_time": 75.567}, {"pitch": 60, "velocity": 40, "note_on_time": 80.574, "note_off_time": 81.589}, {"pitch": 64, "velocity": 40, "note_on_time": 80.575, "note_off_time": 81.59}, {"pitch": 67, "velocity": 40, "note_on_time": 80.575, "note_off_time": 81.59}, {"pitch": 79, "velocity": 40, "note_on_time": 82.594, "note_off_time": 83.605}, {"pitch": 60, "velocity": 40, "note_on_time": 88.615, "note_off_time": 89.618}, {"pitch": 64, "velocity": 40, "note_on_time": 88.616, "note_off_time": 89.619}, {"pitch": 67, "velocity": 40, "note_on_time": 88.616, "note_off_time": 89.62}, {"pitch": 74, "velocity": 40, "note_on_time": 90.628, "note_off_time": 91.631}, {"pitch": 60, "velocity": 40, "note_on_time": 96.636, "note_off_time": 97.646}, {"pitch": 64, "velocity": 40, "note_on_time": 96.637, "note_off_time": 97.646}, {"pitch": 67, "velocity": 40, "note_on_time": 96.637, "note_off_time": 97.649}, {"pitch": 79, "velocity": 40, "note_on_time": 98.656, "note_off_time": 99.665}, {"pitch": 60, "velocity": 40, "note_on_time": 104.673, "note_off_time": 105.675}, {"pitch": 64, "velocity": 40, "note_on_time": 104.674, "note_off_time": 105.676}, {"pitch": 67, "velocity": 40, "note_on_time": 104.674, "note_off_time": 105.676}, {"pitch": 74, "velocity": 40, "note_on_time": 106.688, "note_off_time": 107.694}, {"pitch": 60, "velocity": 40, "note_on_time": 112.699, "note_off_time": 113.711}, {"pitch": 64, "velocity": 40, "note_on_time": 112.7, "note_off_time": 113.711}, {"pitch": 67, "velocity": 40, "note_on_time": 112.701, "note_off_time": 113.712}, {"pitch": 72, "velocity": 40, "note_on_time": 114.72, "note_off_time": 115.73}, {"pitch": 60, "velocity": 40, "note_on_time": 120.742, "note_off_time": 121.745}, {"pitch": 64, "velocity": 40, "note_on_time": 120.742, "note_off_time": 121.745}, {"pitch": 67, "velocity": 40, "note_on_time": 120.743, "note_off_time": 121.746}, {"pitch": 77, "velocity": 40, "note_on_time": 122.751, "note_off_time": 123.767}, {"pitch": 60, "velocity": 40, "note_on_time": 128.774, "note_off_time": 129.78}, {"pitch": 64, "velocity": 40, "note_on_time": 128.775, "note_off_time": 129.781}, {"pitch": 67, "velocity": 40, "note_on_time": 128.776, "note_off_time": 129.781}, {"pitch": 76, "velocity": 40, "note_on_time": 130.787, "note_off_time": 131.802}, {"pitch": 60, "velocity": 40, "note_on_time": 136.817, "note_off_time": 137.831}, {"pitch": 64, "velocity": 40, "note_on_time": 136.818, "note_off_time": 137.831}, {"pitch": 67, "velocity": 40, "note_on_time": 136.818, "note_off_time": 137.832}, {"pitch": 77, "velocity": 40, "note_on_time": 138.844, "note_off_time": 139.848}, {"pitch": 60, "velocity": 40, "note_on_time": 144.857, "note_off_time": 145.862}, {"pitch": 64, "velocity": 40, "note_on_time": 144.857, "note_off_time": 145.863}, {"pitch": 67, "velocity": 40, "note_on_time": 144.858, "note_off_time": 145.864}, {"pitch": 79, "velocity": 40, "note_on_time": 146.87, "note_off_time": 147.88}, {"pitch": 60, "velocity": 40, "note_on_time": 152.888, "note_off_time": 153.891}, {"pitch": 64, "velocity": 40, "note_on_time": 152.888, "note_off_time": 153.892}, {"pitch": 67, "velocity": 40, "note_on_time": 152.889, "note_off_time": 153.892}, {"pitch": 76, "velocity": 40, "note_on_time": 154.902, "note_off_time": 155.917}, {"pitch": 60, "velocity": 40, "note_on_time": 160.926, "note_off_time": 161.941}, {"pitch": 64, "velocity": 40, "note_on_time": 160.927, "note_off_time": 161.941}, {"pitch": 67, "velocity": 40, "note_on_time": 160.927, "note_off_time": 161.942}, {"pitch": 76, "velocity": 40, "note_on_time": 162.945, "note_off_time": 163.96}]</notes><options name="Option List">((4, 4), [0.5, 0.25], 3, 8, &lt;NoteRangePerHand.TWO_NOTES: 3&gt;, &lt;NoteRangePerHand.ONE_NOTE: 2&gt;, False, True, True, 100)</options></target_notes><trials><trial trial_no="1" timestamp="2024_03_11-11_34_30"><notes name="Played Notes">[{"pitch": 77, "velocity": 72, "note_on_time": 2.947, "note_off_time": 4.055}, {"pitch": 76, "velocity": 66, "note_on_time": 4.015, "note_off_time": 4.988}, {"pitch": 77, "velocity": 35, "note_on_time": 4.942, "note_off_time": 5.718}, {"pitch": 79, "velocity": 72, "note_on_time": 5.743, "note_off_time": 6.44}, {"pitch": 79, "velocity": 45, "note_on_time": 11.353, "note_off_time": 11.467}, {"pitch": 79, "velocity": 1, "note_on_time": 11.696, "note_off_time": 13.046}, {"pitch": 77, "velocity": 78, "note_on_time": 19.475, "note_off_time": 20.144}, {"pitch": 79, "velocity": 75, "note_on_time": 20.553, "note_off_time": 22.624}, {"pitch": 76, "velocity": 77, "note_on_time": 22.612, "note_off_time": 23.293}, {"pitch": 74, "velocity": 1, "note_on_time": 27.76, "note_off_time": 28.081}, {"pitch": 74, "velocity": 69, "note_on_time": 28.327, "note_off_time": 30.057}, {"pitch": 72, "velocity": 50, "note_on_time": 35.518, "note_off_time": 36.488}, {"pitch": 74, "velocity": 51, "note_on_time": 44.199, "note_off_time": 45.412}, {"pitch": 76, "velocity": 66, "note_on_time": 52.629, "note_off_time": 53.136}, {"pitch": 77, "velocity": 67, "note_on_time": 53.568, "note_off_time": 54.071}, {"pitch": 79, "velocity": 71, "note_on_time": 54.499, "note_off_time": 55.838}, {"pitch": 77, "velocity": 46, "note_on_time": 60.245, "note_off_time": 60.832}, {"pitch": 72, "velocity": 37, "note_on_time": 61.725, "note_off_time": 63.61}, {"pitch": 72, "velocity": 33, "note_on_time": 68.862, "note_off_time": 69.459}, {"pitch": 74, "velocity": 56, "note_on_time": 69.836, "note_off_time": 70.314}, {"pitch": 77, "velocity": 54, "note_on_time": 71.156, "note_off_time": 72.1}, {"pitch": 76, "velocity": 66, "note_on_time": 75.749, "note_off_time": 76.331}, {"pitch": 79, "velocity": 55, "note_on_time": 77.285, "note_off_time": 79.072}, {"pitch": 79, "velocity": 51, "note_on_time": 83.357, "note_off_time": 83.743}, {"pitch": 79, "velocity": 54, "note_on_time": 84.181, "note_off_time": 84.998}, {"pitch": 76, "velocity": 46, "note_on_time": 92.442, "note_off_time": 93.122}, {"pitch": 77, "velocity": 33, "note_on_time": 93.694, "note_off_time": 94.38}, {"pitch": 74, "velocity": 34, "note_on_time": 94.787, "note_off_time": 96.335}, {"pitch": 74, "velocity": 54, "note_on_time": 100.21, "note_off_time": 100.775}, {"pitch": 77, "velocity": 54, "note_on_time": 101.767, "note_off_time": 103.885}, {"pitch": 76, "velocity": 49, "note_on_time": 108.363, "note_off_time": 110.144}, {"pitch": 72, "velocity": 1, "note_on_time": 116.873, "note_off_time": 118.414}, {"pitch": 74, "velocity": 19, "note_on_time": 124.684, "note_off_time": 125.479}, {"pitch": 76, "velocity": 35, "note_on_time": 126.126, "note_off_time": 129.455}, {"pitch": 72, "velocity": 44, "note_on_time": 132.143, "note_off_time": 132.932}, {"pitch": 74, "velocity": 64, "note_on_time": 133.387, "note_off_time": 135.424}, {"pitch": 74, "velocity": 47, "note_on_time": 140.531, "note_off_time": 142.035}, {"pitch": 77, "velocity": 49, "note_on_time": 148.526, "note_off_time": 150.059}, {"pitch": 76, "velocity": 45, "note_on_time": 157.006, "note_off_time": 157.776}]</notes><guidance name="Guidance Mode">None</guidance><error name="Error value">99</error></trial><trial trial_no="2" timestamp="2024_03_11-11_38_22"><notes name="Played Notes">[{"pitch": 76, "velocity": 54, "note_on_time": 3.333, "note_off_time": 3.998}, {"pitch": 77, "velocity": 59, "note_on_time": 3.912, "note_off_time": 4.798}, {"pitch": 76, "velocity": 64, "note_on_time": 4.768, "note_off_time": 5.569}, {"pitch": 72, "velocity": 46, "note_on_time": 6.124, "note_off_time": 7.31}, {"pitch": 79, "velocity": 21, "note_on_time": 7.508, "note_off_time": 7.554}, {"pitch": 77, "velocity": 30, "note_on_time": 7.312, "note_off_time": 8.482}, {"pitch": 74, "velocity": 71, "note_on_time": 8.551, "note_off_time": 9.406}, {"pitch": 76, "velocity": 66, "note_on_time": 9.781, "note_off_time": 10.908}, {"pitch": 72, "velocity": 68, "note_on_time": 10.96, "note_off_time": 12.032}, {"pitch": 79, "velocity": 64, "note_on_time": 12.218, "note_off_time": 13.229}, {"pitch": 74, "velocity": 71, "note_on_time": 13.364, "note_off_time": 14.192}, {"pitch": 77, "velocity": 54, "note_on_time": 14.572, "note_off_time": 15.514}, {"pitch": 79, "velocity": 63, "note_on_time": 15.885, "note_off_time": 16.629}, {"pitch": 72, "velocity": 18, "note_on_time": 17.022, "note_off_time": 17.92}, {"pitch": 76, "velocity": 68, "note_on_time": 18.216, "note_off_time": 19.48}, {"pitch": 72, "velocity": 63, "note_on_time": 19.524, "note_off_time": 20.232}, {"pitch": 74, "velocity": 74, "note_on_time": 20.719, "note_off_time": 21.478}, {"pitch": 77, "velocity": 62, "note_on_time": 21.937, "note_off_time": 22.773}, {"pitch": 72, "velocity": 63, "note_on_time": 23.108, "note_off_time": 23.681}, {"pitch": 74, "velocity": 48, "note_on_time": 23.721, "note_off_time": 24.366}, {"pitch": 72, "velocity": 64, "note_on_time": 24.35, "note_off_time": 25.382}, {"pitch": 76, "velocity": 82, "note_on_time": 25.449, "note_off_time": 26.426}, {"pitch": 72, "velocity": 72, "note_on_time": 26.659, "note_off_time": 27.572}, {"pitch": 79, "velocity": 50, "note_on_time": 27.933, "note_off_time": 28.155}, {"pitch": 72, "velocity": 53, "note_on_time": 28.418, "note_off_time": 28.776}, {"pitch": 76, "velocity": 70, "note_on_time": 29.024, "note_off_time": 29.785}, {"pitch": 72, "velocity": 55, "note_on_time": 30.163, "note_off_time": 30.769}, {"pitch": 77, "velocity": 57, "note_on_time": 30.826, "note_off_time": 31.456}, {"pitch": 79, "velocity": 59, "note_on_time": 31.554, "note_off_time": 32.074}, {"pitch": 74, "velocity": 36, "note_on_time": 32.097, "note_off_time": 32.679}, {"pitch": 76, "velocity": 62, "note_on_time": 32.777, "note_off_time": 33.653}, {"pitch": 72, "velocity": 41, "note_on_time": 34.068, "note_off_time": 34.851}, {"pitch": 76, "velocity": 71, "note_on_time": 35.295, "note_off_time": 36.201}, {"pitch": 72, "velocity": 64, "note_on_time": 36.581, "note_off_time": 37.356}, {"pitch": 77, "velocity": 59, "note_on_time": 37.755, "note_off_time": 38.513}, {"pitch": 72, "velocity": 50, "note_on_time": 38.902, "note_off_time": 39.719}, {"pitch": 79, "velocity": 52, "note_on_time": 40.143, "note_off_time": 40.777}, {"pitch": 74, "velocity": 68, "note_on_time": 41.305, "note_off_time": 41.849}, {"pitch": 72, "velocity": 49, "note_on_time": 41.848, "note_off_time": 42.433}, {"pitch": 77, "velocity": 57, "note_on_time": 42.444, "note_off_time": 43.145}, {"pitch": 76, "velocity": 67, "note_on_time": 43.596, "note_off_time": 43.79}, {"pitch": 76, "velocity": 62, "note_on_time": 44.202, "note_off_time": 44.43}, {"pitch": 76, "velocity": 51, "note_on_time": 44.774, "note_off_time": 45.396}, {"pitch": 74, "velocity": 63, "note_on_time": 45.405, "note_off_time": 46.011}, {"pitch": 72, "velocity": 53, "note_on_time": 45.965, "note_off_time": 46.56}, {"pitch": 77, "velocity": 57, "note_on_time": 46.506, "note_off_time": 47.183}, {"pitch": 79, "velocity": 37, "note_on_time": 48.026, "note_off_time": 48.788}, {"pitch": 72, "velocity": 51, "note_on_time": 49.183, "note_off_time": 49.905}, {"pitch": 79, "velocity": 49, "note_on_time": 50.363, "note_off_time": 51.119}, {"pitch": 72, "velocity": 57, "note_on_time": 51.602, "note_off_time": 52.281}, {"pitch": 74, "velocity": 58, "note_on_time": 52.753, "note_off_time": 53.209}, {"pitch": 77, "velocity": 40, "note_on_time": 53.344, "note_off_time": 53.814}, {"pitch": 79, "velocity": 62, "note_on_time": 53.902, "note_off_time": 54.394}, {"pitch": 79, "velocity": 33, "note_on_time": 54.593, "note_off_time": 54.861}, {"pitch": 74, "velocity": 64, "note_on_time": 55.11, "note_off_time": 55.412}, {"pitch": 76, "velocity": 60, "note_on_time": 55.565, "note_off_time": 55.92}, {"pitch": 79, "velocity": 59, "note_on_time": 56.055, "note_off_time": 56.758}, {"pitch": 76, "velocity": 66, "note_on_time": 57.109, "note_off_time": 57.816}, {"pitch": 72, "velocity": 42, "note_on_time": 58.239, "note_off_time": 58.885}, {"pitch": 76, "velocity": 72, "note_on_time": 59.356, "note_off_time": 59.989}, {"pitch": 72, "velocity": 41, "note_on_time": 60.541, "note_off_time": 61.201}, {"pitch": 76, "velocity": 54, "note_on_time": 61.711, "note_off_time": 62.494}, {"pitch": 77, "velocity": 60, "note_on_time": 62.912, "note_off_time": 63.535}, {"pitch": 74, "velocity": 55, "note_on_time": 63.977, "note_off_time": 64.254}, {"pitch": 79, "velocity": 31, "note_on_time": 64.573, "note_off_time": 64.831}, {"pitch": 74, "velocity": 40, "note_on_time": 65.132, "note_off_time": 65.341}, {"pitch": 77, "velocity": 56, "note_on_time": 65.711, "note_off_time": 66.046}, {"pitch": 72, "velocity": 56, "note_on_time": 66.301, "note_off_time": 66.962}, {"pitch": 74, "velocity": 55, "note_on_time": 67.39, "note_off_time": 67.685}, {"pitch": 79, "velocity": 36, "note_on_time": 68.031, "note_off_time": 68.355}, {"pitch": 72, "velocity": 48, "note_on_time": 68.627, "note_off_time": 69.57}, {"pitch": 74, "velocity": 56, "note_on_time": 70.003, "note_off_time": 70.906}, {"pitch": 77, "velocity": 45, "note_on_time": 71.165, "note_off_time": 72.004}, {"pitch": 76, "velocity": 53, "note_on_time": 72.351, "note_off_time": 72.684}, {"pitch": 74, "velocity": 62, "note_on_time": 72.925, "note_off_time": 73.405}, {"pitch": 72, "velocity": 53, "note_on_time": 73.477, "note_off_time": 74.296}, {"pitch": 72, "velocity": 48, "note_on_time": 74.701, "note_off_time": 74.976}, {"pitch": 72, "velocity": 22, "note_on_time": 75.27, "note_off_time": 75.386}, {"pitch": 74, "velocity": 74, "note_on_time": 75.391, "note_off_time": 75.924}, {"pitch": 76, "velocity": 58, "note_on_time": 75.911, "note_off_time": 76.29}, {"pitch": 77, "velocity": 69, "note_on_time": 76.472, "note_off_time": 76.996}, {"pitch": 79, "velocity": 64, "note_on_time": 77.04, "note_off_time": 77.248}, {"pitch": 79, "velocity": 56, "note_on_time": 77.584, "note_off_time": 77.803}, {"pitch": 79, "velocity": 60, "note_on_time": 78.125, "note_off_time": 78.895}, {"pitch": 77, "velocity": 56, "note_on_time": 79.266, "note_off_time": 79.586}, {"pitch": 76, "velocity": 49, "note_on_time": 79.732, "note_off_time": 80.132}, {"pitch": 74, "velocity": 54, "note_on_time": 80.241, "note_off_time": 80.946}, {"pitch": 72, "velocity": 52, "note_on_time": 81.339, "note_off_time": 81.671}, {"pitch": 76, "velocity": 51, "note_on_time": 81.864, "note_off_time": 82.074}, {"pitch": 76, "velocity": 55, "note_on_time": 82.333, "note_off_time": 82.702}, {"pitch": 74, "velocity": 54, "note_on_time": 82.879, "note_off_time": 83.365}, {"pitch": 72, "velocity": 62, "note_on_time": 83.374, "note_off_time": 84.226}, {"pitch": 77, "velocity": 49, "note_on_time": 84.645, "note_off_time": 84.976}, {"pitch": 74, "velocity": 43, "note_on_time": 85.184, "note_off_time": 85.722}, {"pitch": 76, "velocity": 63, "note_on_time": 85.841, "note_off_time": 86.726}, {"pitch": 72, "velocity": 58, "note_on_time": 86.932, "note_off_time": 87.565}, {"pitch": 76, "velocity": 72, "note_on_time": 87.556, "note_off_time": 88.164}, {"pitch": 74, "velocity": 55, "note_on_time": 88.123, "note_off_time": 88.78}, {"pitch": 77, "velocity": 59, "note_on_time": 88.782, "note_off_time": 89.638}, {"pitch": 76, "velocity": 70, "note_on_time": 89.771, "note_off_time": 90.284}, {"pitch": 74, "velocity": 54, "note_on_time": 90.247, "note_off_time": 90.729}, {"pitch": 79, "velocity": 57, "note_on_time": 90.761, "note_off_time": 91.325}, {"pitch": 77, "velocity": 51, "note_on_time": 91.229, "note_off_time": 91.6}, {"pitch": 76, "velocity": 62, "note_on_time": 91.643, "note_off_time": 92.114}, {"pitch": 74, "velocity": 47, "note_on_time": 92.046, "note_off_time": 92.578}, {"pitch": 72, "velocity": 54, "note_on_time": 92.552, "note_off_time": 93.448}, {"pitch": 76, "velocity": 57, "note_on_time": 93.724, "note_off_time": 93.974}, {"pitch": 76, "velocity": 43, "note_on_time": 94.161, "note_off_time": 94.446}, {"pitch": 76, "velocity": 53, "note_on_time": 94.653, "note_off_time": 95.514}, {"pitch": 74, "velocity": 43, "note_on_time": 95.535, "note_off_time": 96.016}, {"pitch": 77, "velocity": 55, "note_on_time": 95.976, "note_off_time": 96.388}, {"pitch": 74, "velocity": 52, "note_on_time": 96.414, "note_off_time": 96.666}, {"pitch": 79, "velocity": 28, "note_on_time": 96.861, "note_off_time": 97.269}, {"pitch": 72, "velocity": 51, "note_on_time": 97.303, "note_off_time": 97.714}, {"pitch": 79, "velocity": 61, "note_on_time": 97.7, "note_off_time": 98.138}, {"pitch": 72, "velocity": 56, "note_on_time": 98.128, "note_off_time": 98.837}, {"pitch": 77, "velocity": 55, "note_on_time": 98.94, "note_off_time": 99.706}, {"pitch": 74, "velocity": 56, "note_on_time": 99.809, "note_off_time": 100.849}, {"pitch": 76, "velocity": 59, "note_on_time": 100.82, "note_off_time": 101.153}, {"pitch": 77, "velocity": 48, "note_on_time": 101.223, "note_off_time": 101.638}, {"pitch": 79, "velocity": 64, "note_on_time": 101.615, "note_off_time": 102.246}, {"pitch": 79, "velocity": 50, "note_on_time": 102.495, "note_off_time": 102.928}, {"pitch": 77, "velocity": 48, "note_on_time": 102.864, "note_off_time": 103.213}, {"pitch": 76, "velocity": 56, "note_on_time": 103.215, "note_off_time": 103.695}, {"pitch": 74, "velocity": 30, "note_on_time": 103.575, "note_off_time": 103.857}, {"pitch": 72, "velocity": 35, "note_on_time": 104.034, "note_off_time": 104.789}, {"pitch": 72, "velocity": 55, "note_on_time": 105.147, "note_off_time": 105.315}, {"pitch": 72, "velocity": 55, "note_on_time": 105.528, "note_off_time": 105.705}, {"pitch": 74, "velocity": 59, "note_on_time": 105.942, "note_off_time": 106.196}, {"pitch": 76, "velocity": 51, "note_on_time": 106.25, "note_off_time": 106.643}, {"pitch": 77, "velocity": 46, "note_on_time": 106.675, "note_off_time": 107.115}, {"pitch": 76, "velocity": 56, "note_on_time": 107.174, "note_off_time": 107.566}, {"pitch": 74, "velocity": 55, "note_on_time": 107.521, "note_off_time": 108.191}, {"pitch": 79, "velocity": 57, "note_on_time": 108.116, "note_off_time": 108.692}, {"pitch": 77, "velocity": 60, "note_on_time": 108.551, "note_off_time": 108.965}, {"pitch": 76, "velocity": 39, "note_on_time": 108.902, "note_off_time": 109.227}, {"pitch": 74, "velocity": 29, "note_on_time": 109.271, "note_off_time": 109.694}, {"pitch": 79, "velocity": 60, "note_on_time": 109.672, "note_off_time": 110.553}, {"pitch": 79, "velocity": 56, "note_on_time": 110.866, "note_off_time": 111.345}, {"pitch": 77, "velocity": 22, "note_on_time": 111.197, "note_off_time": 111.55}, {"pitch": 76, "velocity": 48, "note_on_time": 111.532, "note_off_time": 111.877}, {"pitch": 74, "velocity": 37, "note_on_time": 111.954, "note_off_time": 112.289}, {"pitch": 72, "velocity": 49, "note_on_time": 112.314, "note_off_time": 112.524}, {"pitch": 72, "velocity": 42, "note_on_time": 112.746, "note_off_time": 112.996}, {"pitch": 72, "velocity": 53, "note_on_time": 113.214, "note_off_time": 113.781}, {"pitch": 76, "velocity": 56, "note_on_time": 113.975, "note_off_time": 114.428}, {"pitch": 77, "velocity": 46, "note_on_time": 114.446, "note_off_time": 114.956}, {"pitch": 79, "velocity": 52, "note_on_time": 114.941, "note_off_time": 115.542}, {"pitch": 79, "velocity": 56, "note_on_time": 115.858, "note_off_time": 116.563}, {"pitch": 77, "velocity": 50, "note_on_time": 116.285, "note_off_time": 116.669}, {"pitch": 76, "velocity": 61, "note_on_time": 116.692, "note_off_time": 117.426}, {"pitch": 74, "velocity": 61, "note_on_time": 117.409, "note_off_time": 117.858}, {"pitch": 72, "velocity": 59, "note_on_time": 117.84, "note_off_time": 118.319}, {"pitch": 72, "velocity": 55, "note_on_time": 118.687, "note_off_time": 118.905}, {"pitch": 74, "velocity": 48, "note_on_time": 119.161, "note_off_time": 119.338}, {"pitch": 76, "velocity": 30, "note_on_time": 119.34, "note_off_time": 119.997}, {"pitch": 77, "velocity": 49, "note_on_time": 120.032, "note_off_time": 120.504}, {"pitch": 79, "velocity": 70, "note_on_time": 120.533, "note_off_time": 121.083}, {"pitch": 79, "velocity": 53, "note_on_time": 121.509, "note_off_time": 121.739}, {"pitch": 79, "velocity": 64, "note_on_time": 121.999, "note_off_time": 122.458}, {"pitch": 77, "velocity": 62, "note_on_time": 122.422, "note_off_time": 122.748}, {"pitch": 76, "velocity": 39, "note_on_time": 122.797, "note_off_time": 123.233}, {"pitch": 74, "velocity": 56, "note_on_time": 123.214, "note_off_time": 123.56}, {"pitch": 77, "velocity": 61, "note_on_time": 123.594, "note_off_time": 123.968}, {"pitch": 76, "velocity": 57, "note_on_time": 123.948, "note_off_time": 124.279}, {"pitch": 74, "velocity": 52, "note_on_time": 124.333, "note_off_time": 124.704}, {"pitch": 76, "velocity": 51, "note_on_time": 124.675, "note_off_time": 124.971}, {"pitch": 77, "velocity": 43, "note_on_time": 124.937, "note_off_time": 125.37}, {"pitch": 79, "velocity": 49, "note_on_time": 125.385, "note_off_time": 126.084}, {"pitch": 74, "velocity": 57, "note_on_time": 126.219, "note_off_time": 127.027}, {"pitch": 79, "velocity": 57, "note_on_time": 127.008, "note_off_time": 127.813}, {"pitch": 74, "velocity": 48, "note_on_time": 127.721, "note_off_time": 128.124}, {"pitch": 72, "velocity": 55, "note_on_time": 128.109, "note_off_time": 128.464}, {"pitch": 77, "velocity": 50, "note_on_time": 128.527, "note_off_time": 129.024}, {"pitch": 76, "velocity": 56, "note_on_time": 128.932, "note_off_time": 129.242}, {"pitch": 74, "velocity": 59, "note_on_time": 129.246, "note_off_time": 129.768}, {"pitch": 77, "velocity": 58, "note_on_time": 129.736, "note_off_time": 130.354}, {"pitch": 76, "velocity": 54, "note_on_time": 130.286, "note_off_time": 130.652}, {"pitch": 74, "velocity": 52, "note_on_time": 130.618, "note_off_time": 131.021}, {"pitch": 79, "velocity": 58, "note_on_time": 130.987, "note_off_time": 131.727}, {"pitch": 72, "velocity": 49, "note_on_time": 131.629, "note_off_time": 132.365}, {"pitch": 74, "velocity": 64, "note_on_time": 132.408, "note_off_time": 133.192}, {"pitch": 77, "velocity": 59, "note_on_time": 133.178, "note_off_time": 133.902}, {"pitch": 76, "velocity": 61, "note_on_time": 133.881, "note_off_time": 134.512}, {"pitch": 72, "velocity": 51, "note_on_time": 134.511, "note_off_time": 135.131}, {"pitch": 74, "velocity": 68, "note_on_time": 135.131, "note_off_time": 135.704}, {"pitch": 76, "velocity": 65, "note_on_time": 135.663, "note_off_time": 136.043}, {"pitch": 77, "velocity": 60, "note_on_time": 136.214, "note_off_time": 136.759}, {"pitch": 79, "velocity": 61, "note_on_time": 136.768, "note_off_time": 137.321}, {"pitch": 74, "velocity": 70, "note_on_time": 137.279, "note_off_time": 137.514}, {"pitch": 74, "velocity": 67, "note_on_time": 137.816, "note_off_time": 138.027}, {"pitch": 74, "velocity": 61, "note_on_time": 138.304, "note_off_time": 138.752}, {"pitch": 72, "velocity": 56, "note_on_time": 138.695, "note_off_time": 139.279}, {"pitch": 77, "velocity": 57, "note_on_time": 139.203, "note_off_time": 139.529}, {"pitch": 77, "velocity": 47, "note_on_time": 139.756, "note_off_time": 140.017}, {"pitch": 77, "velocity": 55, "note_on_time": 140.404, "note_off_time": 140.632}, {"pitch": 77, "velocity": 56, "note_on_time": 141.014, "note_off_time": 141.223}, {"pitch": 77, "velocity": 48, "note_on_time": 141.564, "note_off_time": 141.765}, {"pitch": 77, "velocity": 54, "note_on_time": 142.127, "note_off_time": 142.821}, {"pitch": 79, "velocity": 69, "note_on_time": 142.771, "note_off_time": 143.782}, {"pitch": 76, "velocity": 59, "note_on_time": 143.876, "note_off_time": 144.329}, {"pitch": 74, "velocity": 54, "note_on_time": 144.327, "note_off_time": 144.763}, {"pitch": 77, "velocity": 41, "note_on_time": 144.854, "note_off_time": 145.429}, {"pitch": 79, "velocity": 32, "note_on_time": 145.461, "note_off_time": 145.842}, {"pitch": 79, "velocity": 63, "note_on_time": 146.127, "note_off_time": 146.458}, {"pitch": 79, "velocity": 69, "note_on_time": 146.746, "note_off_time": 147.539}, {"pitch": 76, "velocity": 54, "note_on_time": 147.386, "note_off_time": 147.721}, {"pitch": 76, "velocity": 54, "note_on_time": 148.314, "note_off_time": 148.769}, {"pitch": 74, "velocity": 53, "note_on_time": 148.836, "note_off_time": 149.237}, {"pitch": 72, "velocity": 47, "note_on_time": 149.314, "note_off_time": 149.692}, {"pitch": 72, "velocity": 52, "note_on_time": 149.875, "note_off_time": 150.116}, {"pitch": 72, "velocity": 55, "note_on_time": 150.386, "note_off_time": 150.761}, {"pitch": 74, "velocity": 57, "note_on_time": 150.923, "note_off_time": 151.517}, {"pitch": 76, "velocity": 57, "note_on_time": 151.468, "note_off_time": 151.872}, {"pitch": 77, "velocity": 52, "note_on_time": 152.095, "note_off_time": 152.436}, {"pitch": 77, "velocity": 59, "note_on_time": 152.686, "note_off_time": 152.921}, {"pitch": 77, "velocity": 65, "note_on_time": 153.247, "note_off_time": 153.741}, {"pitch": 79, "velocity": 56, "note_on_time": 153.804, "note_off_time": 154.358}, {"pitch": 79, "velocity": 51, "note_on_time": 154.535, "note_off_time": 155.017}, {"pitch": 77, "velocity": 27, "note_on_time": 154.971, "note_off_time": 155.595}, {"pitch": 76, "velocity": 68, "note_on_time": 155.518, "note_off_time": 156.36}, {"pitch": 74, "velocity": 68, "note_on_time": 156.301, "note_off_time": 156.913}, {"pitch": 72, "velocity": 60, "note_on_time": 156.912, "note_off_time": 157.465}, {"pitch": 77, "velocity": 65, "note_on_time": 157.474, "note_off_time": 158.122}, {"pitch": 72, "velocity": 61, "note_on_time": 158.131, "note_off_time": 158.794}, {"pitch": 77, "velocity": 64, "note_on_time": 158.803, "note_off_time": 159.433}, {"pitch": 72, "velocity": 63, "note_on_time": 159.431, "note_off_time": 159.968}, {"pitch": 79, "velocity": 56, "note_on_time": 159.947, "note_off_time": 160.624}, {"pitch": 74, "velocity": 54, "note_on_time": 160.572, "note_off_time": 161.165}, {"pitch": 76, "velocity": 54, "note_on_time": 161.146, "note_off_time": 161.858}, {"pitch": 72, "velocity": 41, "note_on_time": 161.781, "note_off_time": 162.371}, {"pitch": 74, "velocity": 67, "note_on_time": 162.345, "note_off_time": 163.107}, {"pitch": 77, "velocity": 68, "note_on_time": 163.139, "note_off_time": 163.551}, {"pitch": 79, "velocity": 56, "note_on_time": 163.771, "note_off_time": 164.449}, {"pitch": 76, "velocity": 52, "note_on_time": 164.344, "note_off_time": 165.036}, {"pitch": 72, "velocity": 52, "note_on_time": 164.939, "note_off_time": 165.535}, {"pitch": 77, "velocity": 53, "note_on_time": 165.483, "note_off_time": 165.809}, {"pitch": 79, "velocity": 16, "note_on_time": 165.847, "note_off_time": 166.357}, {"pitch": 77, "velocity": 56, "note_on_time": 166.633, "note_off_time": 167.155}, {"pitch": 76, "velocity": 58, "note_on_time": 167.147, "note_off_time": 167.475}, {"pitch": 74, "velocity": 56, "note_on_time": 167.622, "note_off_time": 168.171}, {"pitch": 72, "velocity": 57, "note_on_time": 168.12, "note_off_time": 168.637}, {"pitch": 76, "velocity": 59, "note_on_time": 168.651, "note_off_time": 169.185}, {"pitch": 79, "velocity": 62, "note_on_time": 169.164, "note_off_time": 169.717}, {"pitch": 76, "velocity": 61, "note_on_time": 169.683, "note_off_time": 170.26}, {"pitch": 72, "velocity": 68, "note_on_time": 170.252, "note_off_time": 170.928}, {"pitch": 74, "velocity": 74, "note_on_time": 170.941, "note_off_time": 171.714}, {"pitch": 76, "velocity": 51, "note_on_time": 171.66, "note_off_time": 172.453}, {"pitch": 77, "velocity": 27, "note_on_time": 172.353, "note_off_time": 173.058}, {"pitch": 79, "velocity": 71, "note_on_time": 172.986, "note_off_time": 173.354}, {"pitch": 79, "velocity": 64, "note_on_time": 173.572, "note_off_time": 173.874}, {"pitch": 77, "velocity": 64, "note_on_time": 174.726, "note_off_time": 175.244}, {"pitch": 79, "velocity": 62, "note_on_time": 174.112, "note_off_time": 175.257}, {"pitch": 76, "velocity": 58, "note_on_time": 175.217, "note_off_time": 175.799}, {"pitch": 74, "velocity": 56, "note_on_time": 175.694, "note_off_time": 176.373}, {"pitch": 72, "velocity": 60, "note_on_time": 176.319, "note_off_time": 176.89}, {"pitch": 77, "velocity": 55, "note_on_time": 176.831, "note_off_time": 177.398}, {"pitch": 76, "velocity": 55, "note_on_time": 177.346, "note_off_time": 177.882}, {"pitch": 74, "velocity": 65, "note_on_time": 177.854, "note_off_time": 178.364}, {"pitch": 72, "velocity": 33, "note_on_time": 178.308, "note_off_time": 178.802}, {"pitch": 79, "velocity": 64, "note_on_time": 178.822, "note_off_time": 179.784}, {"pitch": 77, "velocity": 63, "note_on_time": 179.328, "note_off_time": 179.787}, {"pitch": 76, "velocity": 58, "note_on_time": 179.811, "note_off_time": 180.419}, {"pitch": 77, "velocity": 59, "note_on_time": 180.391, "note_off_time": 180.833}, {"pitch": 79, "velocity": 54, "note_on_time": 180.891, "note_off_time": 181.428}, {"pitch": 74, "velocity": 61, "note_on_time": 181.369, "note_off_time": 181.606}, {"pitch": 74, "velocity": 67, "note_on_time": 181.863, "note_off_time": 182.509}, {"pitch": 77, "velocity": 62, "note_on_time": 182.532, "note_off_time": 182.946}, {"pitch": 72, "velocity": 37, "note_on_time": 182.932, "note_off_time": 183.688}, {"pitch": 77, "velocity": 58, "note_on_time": 183.598, "note_off_time": 184.367}, {"pitch": 79, "velocity": 69, "note_on_time": 184.302, "note_off_time": 185.0}, {"pitch": 74, "velocity": 67, "note_on_time": 184.946, "note_off_time": 185.919}, {"pitch": 77, "velocity": 42, "note_on_time": 185.883, "note_off_time": 186.356}, {"pitch": 76, "velocity": 66, "note_on_time": 186.355, "note_off_time": 186.827}, {"pitch": 74, "velocity": 51, "note_on_time": 186.822, "note_off_time": 187.218}, {"pitch": 72, "velocity": 65, "note_on_time": 187.219, "note_off_time": 187.66}, {"pitch": 77, "velocity": 59, "note_on_time": 187.647, "note_off_time": 188.233}, {"pitch": 76, "velocity": 53, "note_on_time": 188.141, "note_off_time": 188.635}, {"pitch": 74, "velocity": 58, "note_on_time": 188.575, "note_off_time": 188.989}, {"pitch": 72, "velocity": 72, "note_on_time": 188.984, "note_off_time": 189.519}, {"pitch": 74, "velocity": 59, "note_on_time": 189.504, "note_off_time": 189.57}, {"pitch": 74, "velocity": 50, "note_on_time": 189.956, "note_off_time": 190.24}, {"pitch": 72, "velocity": 40, "note_on_time": 190.348, "note_off_time": 190.73}, {"pitch": 74, "velocity": 47, "note_on_time": 190.761, "note_off_time": 191.096}, {"pitch": 77, "velocity": 45, "note_on_time": 191.338, "note_off_time": 191.456}, {"pitch": 76, "velocity": 47, "note_on_time": 191.143, "note_off_time": 192.108}, {"pitch": 77, "velocity": 66, "note_on_time": 191.938, "note_off_time": 192.389}, {"pitch": 79, "velocity": 52, "note_on_time": 192.441, "note_off_time": 193.067}, {"pitch": 72, "velocity": 46, "note_on_time": 193.306, "note_off_time": 193.669}, {"pitch": 76, "velocity": 55, "note_on_time": 193.689, "note_off_time": 194.095}]</notes><guidance name="Guidance Mode">None</guidance><error name="Error value">99</error></trial><trial trial_no="3" timestamp="2024_03_11-11_45_09"><notes name="Played Notes">[{"pitch": 72, "velocity": 54, "note_on_time": 1.814, "note_off_time": 2.469}, {"pitch": 76, "velocity": 73, "note_on_time": 2.413, "note_off_time": 3.096}, {"pitch": 72, "velocity": 58, "note_on_time": 2.986, "note_off_time": 3.65}, {"pitch": 77, "velocity": 63, "note_on_time": 3.647, "note_off_time": 4.185}, {"pitch": 74, "velocity": 50, "note_on_time": 4.227, "note_off_time": 4.916}, {"pitch": 79, "velocity": 58, "note_on_time": 4.891, "note_off_time": 5.465}, {"pitch": 72, "velocity": 63, "note_on_time": 5.457, "note_off_time": 6.034}, {"pitch": 77, "velocity": 45, "note_on_time": 6.063, "note_off_time": 6.668}, {"pitch": 74, "velocity": 59, "note_on_time": 6.665, "note_off_time": 7.365}, {"pitch": 72, "velocity": 51, "note_on_time": 7.288, "note_off_time": 7.971}, {"pitch": 76, "velocity": 65, "note_on_time": 7.898, "note_off_time": 8.685}, {"pitch": 77, "velocity": 52, "note_on_time": 8.487, "note_off_time": 9.044}, {"pitch": 72, "velocity": 61, "note_on_time": 9.184, "note_off_time": 9.805}, {"pitch": 76, "velocity": 69, "note_on_time": 9.759, "note_off_time": 10.31}, {"pitch": 74, "velocity": 63, "note_on_time": 10.317, "note_off_time": 10.922}, {"pitch": 72, "velocity": 49, "note_on_time": 10.897, "note_off_time": 11.497}, {"pitch": 74, "velocity": 62, "note_on_time": 11.498, "note_off_time": 12.144}, {"pitch": 76, "velocity": 41, "note_on_time": 12.069, "note_off_time": 12.637}, {"pitch": 72, "velocity": 45, "note_on_time": 12.635, "note_off_time": 13.208}, {"pitch": 74, "velocity": 62, "note_on_time": 13.223, "note_off_time": 13.777}, {"pitch": 72, "velocity": 53, "note_on_time": 13.749, "note_off_time": 14.452}, {"pitch": 74, "velocity": 53, "note_on_time": 14.414, "note_off_time": 14.994}, {"pitch": 79, "velocity": 66, "note_on_time": 15.197, "note_off_time": 15.547}, {"pitch": 79, "velocity": 60, "note_on_time": 15.82, "note_off_time": 16.403}, {"pitch": 77, "velocity": 33, "note_on_time": 16.307, "note_off_time": 16.807}, {"pitch": 76, "velocity": 52, "note_on_time": 16.828, "note_off_time": 17.283}, {"pitch": 77, "velocity": 55, "note_on_time": 17.315, "note_off_time": 17.835}, {"pitch": 74, "velocity": 60, "note_on_time": 17.834, "note_off_time": 18.39}, {"pitch": 72, "velocity": 40, "note_on_time": 18.328, "note_off_time": 18.889}, {"pitch": 74, "velocity": 58, "note_on_time": 18.891, "note_off_time": 19.544}, {"pitch": 72, "velocity": 35, "note_on_time": 19.478, "note_off_time": 20.093}, {"pitch": 79, "velocity": 67, "note_on_time": 20.086, "note_off_time": 20.715}, {"pitch": 77, "velocity": 57, "note_on_time": 20.637, "note_off_time": 21.371}, {"pitch": 76, "velocity": 67, "note_on_time": 21.334, "note_off_time": 22.065}, {"pitch": 74, "velocity": 53, "note_on_time": 22.012, "note_off_time": 22.648}, {"pitch": 77, "velocity": 65, "note_on_time": 22.624, "note_off_time": 23.19}, {"pitch": 76, "velocity": 62, "note_on_time": 23.174, "note_off_time": 23.773}, {"pitch": 74, "velocity": 47, "note_on_time": 23.744, "note_off_time": 24.324}, {"pitch": 72, "velocity": 61, "note_on_time": 24.342, "note_off_time": 24.922}, {"pitch": 74, "velocity": 62, "note_on_time": 24.888, "note_off_time": 25.488}, {"pitch": 76, "velocity": 61, "note_on_time": 25.455, "note_off_time": 26.098}, {"pitch": 77, "velocity": 49, "note_on_time": 25.955, "note_off_time": 26.39}, {"pitch": 79, "velocity": 62, "note_on_time": 26.594, "note_off_time": 26.804}, {"pitch": 79, "velocity": 56, "note_on_time": 27.148, "note_off_time": 27.38}, {"pitch": 79, "velocity": 70, "note_on_time": 27.676, "note_off_time": 28.079}, {"pitch": 79, "velocity": 56, "note_on_time": 28.262, "note_off_time": 28.803}, {"pitch": 77, "velocity": 42, "note_on_time": 28.738, "note_off_time": 29.303}, {"pitch": 76, "velocity": 52, "note_on_time": 29.313, "note_off_time": 29.887}, {"pitch": 74, "velocity": 60, "note_on_time": 29.848, "note_off_time": 30.539}, {"pitch": 72, "velocity": 66, "note_on_time": 30.455, "note_off_time": 30.658}, {"pitch": 72, "velocity": 52, "note_on_time": 31.023, "note_off_time": 31.326}, {"pitch": 72, "velocity": 60, "note_on_time": 31.561, "note_off_time": 32.095}, {"pitch": 74, "velocity": 49, "note_on_time": 32.064, "note_off_time": 32.71}, {"pitch": 72, "velocity": 54, "note_on_time": 32.669, "note_off_time": 33.526}, {"pitch": 79, "velocity": 46, "note_on_time": 33.46, "note_off_time": 34.057}, {"pitch": 77, "velocity": 9, "note_on_time": 34.152, "note_off_time": 34.491}, {"pitch": 77, "velocity": 44, "note_on_time": 34.654, "note_off_time": 35.148}, {"pitch": 74, "velocity": 52, "note_on_time": 35.082, "note_off_time": 35.688}, {"pitch": 76, "velocity": 48, "note_on_time": 35.675, "note_off_time": 36.274}, {"pitch": 74, "velocity": 65, "note_on_time": 36.253, "note_off_time": 37.005}, {"pitch": 72, "velocity": 39, "note_on_time": 36.928, "note_off_time": 37.604}, {"pitch": 76, "velocity": 46, "note_on_time": 37.619, "note_off_time": 38.361}, {"pitch": 74, "velocity": 69, "note_on_time": 38.278, "note_off_time": 39.379}, {"pitch": 72, "velocity": 57, "note_on_time": 39.245, "note_off_time": 39.993}, {"pitch": 74, "velocity": 46, "note_on_time": 39.967, "note_off_time": 40.781}, {"pitch": 79, "velocity": 55, "note_on_time": 40.685, "note_off_time": 41.046}, {"pitch": 79, "velocity": 54, "note_on_time": 41.307, "note_off_time": 41.618}, {"pitch": 79, "velocity": 53, "note_on_time": 41.918, "note_off_time": 42.538}, {"pitch": 77, "velocity": 54, "note_on_time": 42.482, "note_off_time": 43.143}, {"pitch": 76, "velocity": 45, "note_on_time": 43.07, "note_off_time": 43.752}, {"pitch": 77, "velocity": 61, "note_on_time": 43.688, "note_off_time": 44.412}, {"pitch": 79, "velocity": 48, "note_on_time": 44.353, "note_off_time": 44.977}, {"pitch": 77, "velocity": 48, "note_on_time": 44.905, "note_off_time": 45.438}, {"pitch": 76, "velocity": 56, "note_on_time": 45.462, "note_off_time": 46.048}, {"pitch": 79, "velocity": 55, "note_on_time": 46.004, "note_off_time": 46.714}, {"pitch": 76, "velocity": 31, "note_on_time": 46.656, "note_off_time": 47.332}, {"pitch": 77, "velocity": 60, "note_on_time": 47.26, "note_off_time": 47.82}, {"pitch": 79, "velocity": 61, "note_on_time": 47.814, "note_off_time": 48.406}, {"pitch": 77, "velocity": 61, "note_on_time": 48.298, "note_off_time": 48.75}, {"pitch": 76, "velocity": 57, "note_on_time": 48.761, "note_off_time": 49.264}, {"pitch": 74, "velocity": 37, "note_on_time": 49.23, "note_off_time": 49.733}, {"pitch": 76, "velocity": 60, "note_on_time": 49.707, "note_off_time": 50.282}, {"pitch": 74, "velocity": 50, "note_on_time": 50.205, "note_off_time": 50.715}, {"pitch": 77, "velocity": 54, "note_on_time": 50.68, "note_off_time": 51.14}, {"pitch": 76, "velocity": 57, "note_on_time": 51.126, "note_off_time": 51.645}, {"pitch": 74, "velocity": 46, "note_on_time": 51.57, "note_off_time": 52.024}, {"pitch": 72, "velocity": 59, "note_on_time": 52.001, "note_off_time": 52.573}, {"pitch": 74, "velocity": 52, "note_on_time": 52.542, "note_off_time": 53.246}, {"pitch": 72, "velocity": 57, "note_on_time": 53.113, "note_off_time": 53.566}, {"pitch": 76, "velocity": 43, "note_on_time": 53.591, "note_off_time": 54.226}, {"pitch": 77, "velocity": 54, "note_on_time": 54.157, "note_off_time": 54.782}, {"pitch": 79, "velocity": 64, "note_on_time": 54.742, "note_off_time": 55.542}, {"pitch": 74, "velocity": 56, "note_on_time": 55.54, "note_off_time": 56.101}, {"pitch": 76, "velocity": 46, "note_on_time": 56.094, "note_off_time": 56.468}, {"pitch": 77, "velocity": 42, "note_on_time": 56.617, "note_off_time": 57.167}, {"pitch": 72, "velocity": 54, "note_on_time": 57.164, "note_off_time": 57.581}, {"pitch": 74, "velocity": 16, "note_on_time": 57.681, "note_off_time": 58.352}, {"pitch": 77, "velocity": 56, "note_on_time": 58.276, "note_off_time": 58.64}, {"pitch": 79, "velocity": 54, "note_on_time": 58.876, "note_off_time": 59.175}, {"pitch": 74, "velocity": 46, "note_on_time": 59.353, "note_off_time": 59.992}, {"pitch": 76, "velocity": 60, "note_on_time": 59.931, "note_off_time": 60.477}, {"pitch": 79, "velocity": 62, "note_on_time": 60.477, "note_off_time": 60.994}, {"pitch": 76, "velocity": 49, "note_on_time": 60.97, "note_off_time": 61.405}, {"pitch": 72, "velocity": 44, "note_on_time": 61.424, "note_off_time": 61.958}, {"pitch": 74, "velocity": 30, "note_on_time": 61.902, "note_off_time": 62.52}, {"pitch": 77, "velocity": 57, "note_on_time": 62.493, "note_off_time": 62.988}, {"pitch": 76, "velocity": 54, "note_on_time": 62.992, "note_off_time": 63.492}, {"pitch": 74, "velocity": 52, "note_on_time": 63.47, "note_off_time": 63.936}, {"pitch": 72, "velocity": 47, "note_on_time": 63.924, "note_off_time": 64.517}, {"pitch": 76, "velocity": 51, "note_on_time": 64.475, "note_off_time": 65.212}, {"pitch": 77, "velocity": 54, "note_on_time": 65.048, "note_off_time": 65.574}, {"pitch": 79, "velocity": 49, "note_on_time": 65.713, "note_off_time": 66.36}, {"pitch": 74, "velocity": 60, "note_on_time": 66.314, "note_off_time": 66.904}, {"pitch": 76, "velocity": 69, "note_on_time": 66.909, "note_off_time": 67.57}, {"pitch": 77, "velocity": 61, "note_on_time": 67.514, "note_off_time": 68.175}, {"pitch": 74, "velocity": 74, "note_on_time": 68.18, "note_off_time": 68.801}, {"pitch": 79, "velocity": 59, "note_on_time": 68.727, "note_off_time": 69.384}, {"pitch": 76, "velocity": 40, "note_on_time": 69.372, "note_off_time": 70.083}, {"pitch": 77, "velocity": 56, "note_on_time": 70.018, "note_off_time": 70.705}, {"pitch": 76, "velocity": 57, "note_on_time": 70.631, "note_off_time": 71.285}, {"pitch": 74, "velocity": 56, "note_on_time": 71.161, "note_off_time": 71.79}, {"pitch": 72, "velocity": 56, "note_on_time": 71.723, "note_off_time": 72.891}, {"pitch": 76, "velocity": 43, "note_on_time": 72.329, "note_off_time": 73.0}, {"pitch": 77, "velocity": 42, "note_on_time": 72.841, "note_off_time": 73.489}, {"pitch": 79, "velocity": 64, "note_on_time": 73.501, "note_off_time": 74.022}, {"pitch": 79, "velocity": 65, "note_on_time": 74.197, "note_off_time": 74.862}, {"pitch": 77, "velocity": 57, "note_on_time": 74.691, "note_off_time": 75.29}, {"pitch": 76, "velocity": 67, "note_on_time": 75.204, "note_off_time": 75.603}, {"pitch": 74, "velocity": 53, "note_on_time": 75.843, "note_off_time": 76.439}, {"pitch": 77, "velocity": 61, "note_on_time": 76.369, "note_off_time": 76.932}, {"pitch": 72, "velocity": 55, "note_on_time": 76.975, "note_off_time": 77.577}, {"pitch": 77, "velocity": 58, "note_on_time": 77.536, "note_off_time": 78.132}, {"pitch": 72, "velocity": 40, "note_on_time": 78.123, "note_off_time": 78.615}, {"pitch": 74, "velocity": 40, "note_on_time": 78.623, "note_off_time": 79.101}, {"pitch": 76, "velocity": 45, "note_on_time": 79.105, "note_off_time": 79.817}, {"pitch": 79, "velocity": 55, "note_on_time": 79.693, "note_off_time": 80.172}, {"pitch": 76, "velocity": 26, "note_on_time": 80.403, "note_off_time": 80.882}, {"pitch": 79, "velocity": 41, "note_on_time": 80.923, "note_off_time": 81.538}, {"pitch": 76, "velocity": 49, "note_on_time": 81.471, "note_off_time": 81.864}, {"pitch": 74, "velocity": 40, "note_on_time": 81.978, "note_off_time": 82.463}, {"pitch": 79, "velocity": 51, "note_on_time": 82.578, "note_off_time": 83.067}, {"pitch": 74, "velocity": 35, "note_on_time": 83.084, "note_off_time": 83.8}, {"pitch": 72, "velocity": 52, "note_on_time": 83.667, "note_off_time": 84.678}, {"pitch": 77, "velocity": 59, "note_on_time": 85.039, "note_off_time": 85.674}, {"pitch": 72, "velocity": 45, "note_on_time": 85.954, "note_off_time": 86.668}, {"pitch": 77, "velocity": 31, "note_on_time": 86.8, "note_off_time": 88.028}, {"pitch": 76, "velocity": 59, "note_on_time": 87.471, "note_off_time": 88.073}, {"pitch": 72, "velocity": 51, "note_on_time": 88.004, "note_off_time": 89.018}, {"pitch": 77, "velocity": 55, "note_on_time": 88.578, "note_off_time": 89.135}, {"pitch": 76, "velocity": 47, "note_on_time": 89.009, "note_off_time": 89.702}, {"pitch": 72, "velocity": 32, "note_on_time": 89.561, "note_off_time": 90.288}, {"pitch": 79, "velocity": 57, "note_on_time": 90.147, "note_off_time": 90.907}, {"pitch": 72, "velocity": 64, "note_on_time": 91.274, "note_off_time": 91.994}, {"pitch": 74, "velocity": 43, "note_on_time": 90.745, "note_off_time": 92.284}, {"pitch": 79, "velocity": 50, "note_on_time": 92.325, "note_off_time": 92.993}, {"pitch": 72, "velocity": 22, "note_on_time": 93.396, "note_off_time": 94.138}, {"pitch": 74, "velocity": 64, "note_on_time": 92.892, "note_off_time": 94.167}, {"pitch": 77, "velocity": 54, "note_on_time": 94.195, "note_off_time": 95.022}, {"pitch": 72, "velocity": 71, "note_on_time": 94.954, "note_off_time": 95.707}, {"pitch": 74, "velocity": 61, "note_on_time": 95.794, "note_off_time": 96.307}, {"pitch": 79, "velocity": 54, "note_on_time": 96.569, "note_off_time": 97.174}, {"pitch": 76, "velocity": 48, "note_on_time": 97.071, "note_off_time": 97.593}, {"pitch": 74, "velocity": 59, "note_on_time": 97.526, "note_off_time": 98.108}, {"pitch": 79, "velocity": 56, "note_on_time": 98.376, "note_off_time": 99.259}, {"pitch": 76, "velocity": 23, "note_on_time": 98.886, "note_off_time": 100.306}, {"pitch": 74, "velocity": 52, "note_on_time": 99.289, "note_off_time": 100.424}, {"pitch": 79, "velocity": 56, "note_on_time": 100.649, "note_off_time": 102.13}, {"pitch": 77, "velocity": 1, "note_on_time": 101.457, "note_off_time": 102.144}, {"pitch": 76, "velocity": 70, "note_on_time": 102.036, "note_off_time": 102.667}, {"pitch": 74, "velocity": 62, "note_on_time": 102.566, "note_off_time": 102.925}, {"pitch": 72, "velocity": 51, "note_on_time": 103.065, "note_off_time": 103.659}, {"pitch": 77, "velocity": 60, "note_on_time": 103.762, "note_off_time": 104.344}, {"pitch": 76, "velocity": 56, "note_on_time": 104.278, "note_off_time": 104.754}, {"pitch": 74, "velocity": 49, "note_on_time": 104.698, "note_off_time": 105.088}, {"pitch": 72, "velocity": 44, "note_on_time": 105.124, "note_off_time": 105.37}, {"pitch": 72, "velocity": 58, "note_on_time": 105.555, "note_off_time": 105.944}, {"pitch": 74, "velocity": 39, "note_on_time": 105.93, "note_off_time": 106.469}, {"pitch": 76, "velocity": 39, "note_on_time": 106.359, "note_off_time": 107.098}, {"pitch": 77, "velocity": 58, "note_on_time": 106.97, "note_off_time": 107.461}, {"pitch": 79, "velocity": 65, "note_on_time": 107.416, "note_off_time": 108.174}, {"pitch": 79, "velocity": 51, "note_on_time": 108.44, "note_off_time": 108.896}, {"pitch": 74, "velocity": 33, "note_on_time": 109.429, "note_off_time": 109.824}, {"pitch": 76, "velocity": 43, "note_on_time": 108.946, "note_off_time": 109.909}, {"pitch": 77, "velocity": 60, "note_on_time": 109.92, "note_off_time": 110.437}, {"pitch": 72, "velocity": 58, "note_on_time": 110.419, "note_off_time": 111.254}, {"pitch": 79, "velocity": 50, "note_on_time": 111.569, "note_off_time": 112.089}, {"pitch": 74, "velocity": 44, "note_on_time": 112.375, "note_off_time": 112.721}, {"pitch": 76, "velocity": 43, "note_on_time": 111.982, "note_off_time": 112.776}, {"pitch": 77, "velocity": 56, "note_on_time": 112.787, "note_off_time": 113.339}, {"pitch": 76, "velocity": 56, "note_on_time": 113.221, "note_off_time": 113.764}, {"pitch": 74, "velocity": 55, "note_on_time": 113.64, "note_off_time": 114.166}, {"pitch": 72, "velocity": 48, "note_on_time": 114.078, "note_off_time": 115.063}, {"pitch": 79, "velocity": 53, "note_on_time": 115.081, "note_off_time": 115.691}, {"pitch": 76, "velocity": 51, "note_on_time": 115.679, "note_off_time": 116.092}, {"pitch": 74, "velocity": 39, "note_on_time": 116.065, "note_off_time": 116.559}, {"pitch": 77, "velocity": 40, "note_on_time": 116.507, "note_off_time": 116.965}, {"pitch": 76, "velocity": 39, "note_on_time": 116.902, "note_off_time": 117.347}, {"pitch": 74, "velocity": 43, "note_on_time": 117.234, "note_off_time": 117.679}, {"pitch": 72, "velocity": 52, "note_on_time": 117.609, "note_off_time": 118.063}, {"pitch": 79, "velocity": 28, "note_on_time": 118.389, "note_off_time": 118.848}, {"pitch": 77, "velocity": 50, "note_on_time": 118.76, "note_off_time": 119.053}, {"pitch": 76, "velocity": 42, "note_on_time": 119.095, "note_off_time": 119.488}, {"pitch": 74, "velocity": 37, "note_on_time": 119.445, "note_off_time": 119.768}, {"pitch": 77, "velocity": 52, "note_on_time": 119.795, "note_off_time": 120.175}, {"pitch": 76, "velocity": 44, "note_on_time": 120.174, "note_off_time": 120.556}, {"pitch": 74, "velocity": 40, "note_on_time": 120.508, "note_off_time": 121.027}, {"pitch": 72, "velocity": 1, "note_on_time": 121.093, "note_off_time": 121.843}, {"pitch": 79, "velocity": 46, "note_on_time": 121.784, "note_off_time": 122.229}, {"pitch": 77, "velocity": 45, "note_on_time": 122.112, "note_off_time": 122.428}, {"pitch": 76, "velocity": 30, "note_on_time": 122.372, "note_off_time": 122.779}, {"pitch": 74, "velocity": 38, "note_on_time": 122.738, "note_off_time": 123.169}, {"pitch": 76, "velocity": 59, "note_on_time": 123.213, "note_off_time": 123.704}, {"pitch": 77, "velocity": 47, "note_on_time": 123.601, "note_off_time": 124.015}, {"pitch": 74, "velocity": 43, "note_on_time": 124.078, "note_off_time": 124.872}, {"pitch": 72, "velocity": 53, "note_on_time": 124.775, "note_off_time": 125.348}, {"pitch": 79, "velocity": 34, "note_on_time": 125.255, "note_off_time": 125.798}, {"pitch": 77, "velocity": 35, "note_on_time": 125.65, "note_off_time": 125.932}, {"pitch": 76, "velocity": 1, "note_on_time": 125.92, "note_off_time": 126.377}, {"pitch": 76, "velocity": 76, "note_on_time": 126.583, "note_off_time": 127.061}, {"pitch": 74, "velocity": 37, "note_on_time": 127.075, "note_off_time": 127.603}, {"pitch": 72, "velocity": 37, "note_on_time": 127.551, "note_off_time": 128.249}, {"pitch": 74, "velocity": 48, "note_on_time": 128.03, "note_off_time": 128.419}, {"pitch": 76, "velocity": 37, "note_on_time": 128.408, "note_off_time": 128.852}, {"pitch": 77, "velocity": 43, "note_on_time": 128.844, "note_off_time": 129.222}, {"pitch": 79, "velocity": 59, "note_on_time": 129.265, "note_off_time": 129.562}, {"pitch": 79, "velocity": 40, "note_on_time": 129.699, "note_off_time": 129.946}, {"pitch": 79, "velocity": 48, "note_on_time": 130.097, "note_off_time": 130.676}, {"pitch": 77, "velocity": 53, "note_on_time": 130.5, "note_off_time": 130.844}, {"pitch": 76, "velocity": 37, "note_on_time": 130.871, "note_off_time": 131.271}, {"pitch": 74, "velocity": 38, "note_on_time": 131.224, "note_off_time": 131.695}, {"pitch": 72, "velocity": 59, "note_on_time": 131.667, "note_off_time": 132.7}, {"pitch": 76, "velocity": 68, "note_on_time": 133.044, "note_off_time": 133.665}, {"pitch": 74, "velocity": 30, "note_on_time": 133.626, "note_off_time": 134.27}, {"pitch": 72, "velocity": 59, "note_on_time": 134.265, "note_off_time": 134.581}, {"pitch": 76, "velocity": 52, "note_on_time": 134.76, "note_off_time": 135.116}, {"pitch": 72, "velocity": 36, "note_on_time": 135.078, "note_off_time": 135.503}, {"pitch": 79, "velocity": 19, "note_on_time": 135.617, "note_off_time": 136.089}, {"pitch": 77, "velocity": 49, "note_on_time": 136.063, "note_off_time": 136.527}, {"pitch": 76, "velocity": 42, "note_on_time": 136.565, "note_off_time": 137.276}, {"pitch": 74, "velocity": 61, "note_on_time": 137.207, "note_off_time": 137.945}, {"pitch": 76, "velocity": 33, "note_on_time": 138.33, "note_off_time": 138.601}, {"pitch": 77, "velocity": 57, "note_on_time": 138.698, "note_off_time": 139.149}, {"pitch": 72, "velocity": 38, "note_on_time": 139.162, "note_off_time": 139.527}, {"pitch": 77, "velocity": 49, "note_on_time": 139.56, "note_off_time": 140.023}, {"pitch": 79, "velocity": 64, "note_on_time": 140.01, "note_off_time": 140.82}, {"pitch": 79, "velocity": 55, "note_on_time": 141.342, "note_off_time": 141.732}, {"pitch": 77, "velocity": 54, "note_on_time": 140.825, "note_off_time": 141.771}, {"pitch": 72, "velocity": 34, "note_on_time": 141.789, "note_off_time": 142.266}, {"pitch": 76, "velocity": 50, "note_on_time": 142.322, "note_off_time": 143.179}, {"pitch": 72, "velocity": 31, "note_on_time": 142.818, "note_off_time": 143.358}, {"pitch": 79, "velocity": 49, "note_on_time": 143.296, "note_off_time": 144.006}, {"pitch": 76, "velocity": 31, "note_on_time": 144.053, "note_off_time": 144.669}, {"pitch": 72, "velocity": 41, "note_on_time": 144.523, "note_off_time": 145.058}, {"pitch": 77, "velocity": 30, "note_on_time": 144.961, "note_off_time": 145.912}, {"pitch": 76, "velocity": 49, "note_on_time": 146.269, "note_off_time": 146.738}, {"pitch": 72, "velocity": 51, "note_on_time": 146.635, "note_off_time": 147.012}, {"pitch": 77, "velocity": 44, "note_on_time": 146.919, "note_off_time": 147.421}, {"pitch": 74, "velocity": 45, "note_on_time": 147.393, "note_off_time": 147.899}, {"pitch": 79, "velocity": 50, "note_on_time": 147.868, "note_off_time": 148.374}, {"pitch": 79, "velocity": 53, "note_on_time": 148.774, "note_off_time": 149.279}, {"pitch": 77, "velocity": 42, "note_on_time": 149.5, "note_off_time": 149.976}, {"pitch": 76, "velocity": 45, "note_on_time": 149.985, "note_off_time": 150.434}, {"pitch": 72, "velocity": 20, "note_on_time": 150.452, "note_off_time": 150.971}, {"pitch": 74, "velocity": 54, "note_on_time": 150.934, "note_off_time": 151.377}, {"pitch": 76, "velocity": 45, "note_on_time": 151.374, "note_off_time": 151.877}, {"pitch": 77, "velocity": 45, "note_on_time": 151.802, "note_off_time": 152.236}, {"pitch": 79, "velocity": 31, "note_on_time": 152.209, "note_off_time": 152.655}, {"pitch": 77, "velocity": 46, "note_on_time": 153.173, "note_off_time": 153.621}, {"pitch": 76, "velocity": 67, "note_on_time": 153.608, "note_off_time": 153.998}, {"pitch": 74, "velocity": 43, "note_on_time": 153.994, "note_off_time": 154.359}, {"pitch": 72, "velocity": 43, "note_on_time": 154.378, "note_off_time": 154.934}, {"pitch": 76, "velocity": 48, "note_on_time": 155.115, "note_off_time": 155.485}, {"pitch": 74, "velocity": 49, "note_on_time": 155.532, "note_off_time": 155.758}, {"pitch": 77, "velocity": 39, "note_on_time": 155.912, "note_off_time": 156.096}, {"pitch": 77, "velocity": 53, "note_on_time": 156.361, "note_off_time": 156.559}, {"pitch": 77, "velocity": 49, "note_on_time": 156.8, "note_off_time": 157.065}, {"pitch": 79, "velocity": 47, "note_on_time": 157.207, "note_off_time": 157.542}, {"pitch": 76, "velocity": 39, "note_on_time": 157.643, "note_off_time": 158.383}, {"pitch": 72, "velocity": 36, "note_on_time": 158.382, "note_off_time": 159.083}, {"pitch": 74, "velocity": 67, "note_on_time": 159.16, "note_off_time": 159.841}, {"pitch": 77, "velocity": 59, "note_on_time": 159.879, "note_off_time": 160.675}, {"pitch": 76, "velocity": 46, "note_on_time": 160.67, "note_off_time": 161.266}, {"pitch": 74, "velocity": 37, "note_on_time": 161.271, "note_off_time": 161.979}, {"pitch": 72, "velocity": 35, "note_on_time": 161.967, "note_off_time": 162.339}, {"pitch": 72, "velocity": 39, "note_on_time": 162.507, "note_off_time": 163.243}, {"pitch": 76, "velocity": 38, "note_on_time": 163.103, "note_off_time": 163.73}, {"pitch": 77, "velocity": 27, "note_on_time": 163.659, "note_off_time": 164.209}, {"pitch": 77, "velocity": 51, "note_on_time": 164.41, "note_off_time": 165.116}, {"pitch": 76, "velocity": 62, "note_on_time": 165.11, "note_off_time": 165.848}, {"pitch": 72, "velocity": 41, "note_on_time": 165.861, "note_off_time": 166.494}, {"pitch": 74, "velocity": 49, "note_on_time": 166.517, "note_off_time": 167.186}, {"pitch": 77, "velocity": 54, "note_on_time": 167.202, "note_off_time": 167.904}, {"pitch": 79, "velocity": 49, "note_on_time": 167.968, "note_off_time": 168.643}, {"pitch": 77, "velocity": 54, "note_on_time": 168.609, "note_off_time": 169.154}, {"pitch": 76, "velocity": 49, "note_on_time": 169.19, "note_off_time": 169.777}, {"pitch": 74, "velocity": 38, "note_on_time": 169.771, "note_off_time": 170.359}, {"pitch": 77, "velocity": 53, "note_on_time": 170.38, "note_off_time": 170.845}, {"pitch": 76, "velocity": 43, "note_on_time": 170.884, "note_off_time": 171.541}, {"pitch": 74, "velocity": 38, "note_on_time": 171.579, "note_off_time": 172.288}, {"pitch": 72, "velocity": 45, "note_on_time": 172.261, "note_off_time": 172.944}, {"pitch": 79, "velocity": 63, "note_on_time": 172.893, "note_off_time": 173.372}, {"pitch": 77, "velocity": 45, "note_on_time": 173.409, "note_off_time": 173.948}, {"pitch": 72, "velocity": 49, "note_on_time": 174.027, "note_off_time": 174.63}, {"pitch": 76, "velocity": 39, "note_on_time": 174.634, "note_off_time": 175.341}, {"pitch": 72, "velocity": 58, "note_on_time": 175.284, "note_off_time": 175.967}, {"pitch": 74, "velocity": 60, "note_on_time": 175.971, "note_off_time": 176.552}, {"pitch": 76, "velocity": 57, "note_on_time": 176.562, "note_off_time": 177.109}, {"pitch": 72, "velocity": 55, "note_on_time": 177.144, "note_off_time": 177.728}, {"pitch": 76, "velocity": 51, "note_on_time": 177.728, "note_off_time": 178.271}, {"pitch": 77, "velocity": 61, "note_on_time": 178.281, "note_off_time": 178.764}, {"pitch": 74, "velocity": 75, "note_on_time": 178.81, "note_off_time": 179.931}, {"pitch": 72, "velocity": 51, "note_on_time": 179.923, "note_off_time": 180.567}, {"pitch": 74, "velocity": 37, "note_on_time": 180.484, "note_off_time": 181.005}, {"pitch": 77, "velocity": 55, "note_on_time": 181.008, "note_off_time": 181.509}, {"pitch": 74, "velocity": 54, "note_on_time": 181.534, "note_off_time": 182.003}, {"pitch": 72, "velocity": 38, "note_on_time": 182.015, "note_off_time": 182.699}, {"pitch": 76, "velocity": 55, "note_on_time": 182.602, "note_off_time": 183.296}, {"pitch": 77, "velocity": 38, "note_on_time": 183.181, "note_off_time": 183.846}, {"pitch": 79, "velocity": 64, "note_on_time": 183.856, "note_off_time": 184.647}, {"pitch": 72, "velocity": 49, "note_on_time": 184.991, "note_off_time": 185.57}, {"pitch": 76, "velocity": 54, "note_on_time": 185.516, "note_off_time": 186.209}, {"pitch": 79, "velocity": 59, "note_on_time": 186.144, "note_off_time": 186.677}, {"pitch": 77, "velocity": 51, "note_on_time": 187.432, "note_off_time": 187.929}, {"pitch": 74, "velocity": 30, "note_on_time": 187.859, "note_off_time": 188.487}, {"pitch": 72, "velocity": 32, "note_on_time": 188.483, "note_off_time": 189.302}, {"pitch": 76, "velocity": 57, "note_on_time": 189.461, "note_off_time": 190.114}, {"pitch": 77, "velocity": 49, "note_on_time": 189.912, "note_off_time": 190.304}, {"pitch": 79, "velocity": 50, "note_on_time": 190.4, "note_off_time": 191.091}, {"pitch": 72, "velocity": 49, "note_on_time": 191.217, "note_off_time": 191.958}, {"pitch": 74, "velocity": 56, "note_on_time": 192.417, "note_off_time": 193.028}, {"pitch": 77, "velocity": 51, "note_on_time": 193.502, "note_off_time": 193.989}, {"pitch": 76, "velocity": 17, "note_on_time": 194.062, "note_off_time": 194.775}]</notes><guidance name="Guidance Mode">None</guidance><error name="Error value">99</error></trial></trials></MIDI>