<MIDI midiNo="2024_03_04-17_54_30"><target_notes><notes name="Note List">[{"pitch": 60, "velocity": 40, "note_on_time": 0.009, "note_off_time": 1.018}, {"pitch": 64, "velocity": 40, "note_on_time": 0.01, "note_off_time": 1.019}, {"pitch": 67, "velocity": 40, "note_on_time": 0.01, "note_off_time": 1.019}, {"pitch": 48, "velocity": 40, "note_on_time": 0.01, "note_off_time": 1.019}, {"pitch": 52, "velocity": 40, "note_on_time": 1.02, "note_off_time": 2.022}, {"pitch": 55, "velocity": 40, "note_on_time": 1.02, "note_off_time": 2.022}, {"pitch": 76, "velocity": 40, "note_on_time": 2.021, "note_off_time": 3.037}, {"pitch": 48, "velocity": 40, "note_on_time": 2.022, "note_off_time": 3.038}, {"pitch": 52, "velocity": 40, "note_on_time": 3.038, "note_off_time": 4.042}, {"pitch": 55, "velocity": 40, "note_on_time": 3.038, "note_off_time": 4.042}, {"pitch": 48, "velocity": 40, "note_on_time": 4.042, "note_off_time": 5.05}, {"pitch": 52, "velocity": 40, "note_on_time": 5.05, "note_off_time": 6.056}, {"pitch": 55, "velocity": 40, "note_on_time": 5.05, "note_off_time": 6.056}, {"pitch": 48, "velocity": 40, "note_on_time": 6.056, "note_off_time": 7.058}, {"pitch": 52, "velocity": 40, "note_on_time": 7.058, "note_off_time": 8.075}, {"pitch": 55, "velocity": 40, "note_on_time": 7.058, "note_off_time": 8.075}, {"pitch": 60, "velocity": 40, "note_on_time": 8.073, "note_off_time": 9.08}, {"pitch": 64, "velocity": 40, "note_on_time": 8.074, "note_off_time": 9.081}, {"pitch": 67, "velocity": 40, "note_on_time": 8.074, "note_off_time": 9.082}, {"pitch": 48, "velocity": 40, "note_on_time": 8.075, "note_off_time": 9.082}, {"pitch": 52, "velocity": 40, "note_on_time": 9.082, "note_off_time": 10.099}, {"pitch": 55, "velocity": 40, "note_on_time": 9.082, "note_off_time": 10.099}, {"pitch": 77, "velocity": 40, "note_on_time": 10.098, "note_off_time": 11.106}, {"pitch": 48, "velocity": 40, "note_on_time": 10.099, "note_off_time": 11.106}, {"pitch": 52, "velocity": 40, "note_on_time": 11.106, "note_off_time": 12.11}, {"pitch": 55, "velocity": 40, "note_on_time": 11.106, "note_off_time": 12.11}, {"pitch": 48, "velocity": 40, "note_on_time": 12.11, "note_off_time": 13.122}, {"pitch": 52, "velocity": 40, "note_on_time": 13.122, "note_off_time": 14.126}, {"pitch": 55, "velocity": 40, "note_on_time": 13.122, "note_off_time": 14.126}, {"pitch": 48, "velocity": 40, "note_on_time": 14.126, "note_off_time": 15.129}, {"pitch": 52, "velocity": 40, "note_on_time": 15.129, "note_off_time": 16.14}, {"pitch": 55, "velocity": 40, "note_on_time": 15.129, "note_off_time": 16.14}, {"pitch": 60, "velocity": 40, "note_on_time": 16.138, "note_off_time": 17.154}, {"pitch": 64, "velocity": 40, "note_on_time": 16.139, "note_off_time": 17.155}, {"pitch": 67, "velocity": 40, "note_on_time": 16.14, "note_off_time": 17.155}, {"pitch": 48, "velocity": 40, "note_on_time": 16.14, "note_off_time": 17.156}, {"pitch": 52, "velocity": 40, "note_on_time": 17.156, "note_off_time": 18.169}, {"pitch": 55, "velocity": 40, "note_on_time": 17.156, "note_off_time": 18.169}, {"pitch": 79, "velocity": 40, "note_on_time": 18.169, "note_off_time": 19.173}, {"pitch": 48, "velocity": 40, "note_on_time": 18.169, "note_off_time": 19.174}, {"pitch": 52, "velocity": 40, "note_on_time": 19.174, "note_off_time": 20.189}, {"pitch": 55, "velocity": 40, "note_on_time": 19.174, "note_off_time": 20.189}, {"pitch": 48, "velocity": 40, "note_on_time": 20.189, "note_off_time": 21.199}, {"pitch": 52, "velocity": 40, "note_on_time": 21.199, "note_off_time": 22.212}, {"pitch": 55, "velocity": 40, "note_on_time": 21.199, "note_off_time": 22.212}, {"pitch": 48, "velocity": 40, "note_on_time": 22.212, "note_off_time": 23.219}, {"pitch": 52, "velocity": 40, "note_on_time": 23.219, "note_off_time": 24.224}, {"pitch": 55, "velocity": 40, "note_on_time": 23.219, "note_off_time": 24.224}, {"pitch": 60, "velocity": 40, "note_on_time": 24.222, "note_off_time": 25.225}, {"pitch": 64, "velocity": 40, "note_on_time": 24.223, "note_off_time": 25.227}, {"pitch": 67, "velocity": 40, "note_on_time": 24.224, "note_off_time": 25.227}, {"pitch": 48, "velocity": 40, "note_on_time": 24.224, "note_off_time": 25.227}, {"pitch": 52, "velocity": 40, "note_on_time": 25.227, "note_off_time": 26.23}, {"pitch": 55, "velocity": 40, "note_on_time": 25.227, "note_off_time": 26.231}, {"pitch": 77, "velocity": 40, "note_on_time": 26.23, "note_off_time": 27.234}, {"pitch": 48, "velocity": 40, "note_on_time": 26.231, "note_off_time": 27.234}, {"pitch": 52, "velocity": 40, "note_on_time": 27.234, "note_off_time": 28.243}, {"pitch": 55, "velocity": 40, "note_on_time": 27.234, "note_off_time": 28.243}, {"pitch": 48, "velocity": 40, "note_on_time": 28.243, "note_off_time": 29.246}, {"pitch": 52, "velocity": 40, "note_on_time": 29.246, "note_off_time": 30.249}, {"pitch": 55, "velocity": 40, "note_on_time": 29.246, "note_off_time": 30.249}, {"pitch": 48, "velocity": 40, "note_on_time": 30.249, "note_off_time": 31.263}, {"pitch": 52, "velocity": 40, "note_on_time": 31.263, "note_off_time": 32.271}, {"pitch": 55, "velocity": 40, "note_on_time": 31.263, "note_off_time": 32.271}, {"pitch": 60, "velocity": 40, "note_on_time": 32.27, "note_off_time": 33.283}, {"pitch": 64, "velocity": 40, "note_on_time": 32.271, "note_off_time": 33.284}, {"pitch": 67, "velocity": 40, "note_on_time": 32.271, "note_off_time": 33.284}, {"pitch": 48, "velocity": 40, "note_on_time": 32.271, "note_off_time": 33.285}, {"pitch": 52, "velocity": 40, "note_on_time": 33.285, "note_off_time": 34.288}, {"pitch": 55, "velocity": 40, "note_on_time": 33.285, "note_off_time": 34.288}, {"pitch": 72, "velocity": 40, "note_on_time": 34.288, "note_off_time": 35.29}, {"pitch": 48, "velocity": 40, "note_on_time": 34.288, "note_off_time": 35.29}, {"pitch": 52, "velocity": 40, "note_on_time": 35.291, "note_off_time": 36.293}, {"pitch": 55, "velocity": 40, "note_on_time": 35.291, "note_off_time": 36.293}, {"pitch": 48, "velocity": 40, "note_on_time": 36.293, "note_off_time": 37.3}, {"pitch": 52, "velocity": 40, "note_on_time": 37.3, "note_off_time": 38.307}, {"pitch": 55, "velocity": 40, "note_on_time": 37.3, "note_off_time": 38.307}, {"pitch": 48, "velocity": 40, "note_on_time": 38.307, "note_off_time": 39.313}, {"pitch": 52, "velocity": 40, "note_on_time": 39.313, "note_off_time": 40.32}, {"pitch": 55, "velocity": 40, "note_on_time": 39.313, "note_off_time": 40.321}, {"pitch": 60, "velocity": 40, "note_on_time": 40.319, "note_off_time": 41.328}, {"pitch": 64, "velocity": 40, "note_on_time": 40.32, "note_off_time": 41.329}, {"pitch": 67, "velocity": 40, "note_on_time": 40.32, "note_off_time": 41.329}, {"pitch": 74, "velocity": 40, "note_on_time": 42.332, "note_off_time": 43.334}, {"pitch": 60, "velocity": 40, "note_on_time": 48.349, "note_off_time": 49.365}, {"pitch": 64, "velocity": 40, "note_on_time": 48.35, "note_off_time": 49.365}, {"pitch": 67, "velocity": 40, "note_on_time": 48.35, "note_off_time": 49.366}, {"pitch": 72, "velocity": 40, "note_on_time": 50.376, "note_off_time": 51.382}, {"pitch": 60, "velocity": 40, "note_on_time": 56.383, "note_off_time": 57.391}, {"pitch": 64, "velocity": 40, "note_on_time": 56.383, "note_off_time": 57.392}, {"pitch": 67, "velocity": 40, "note_on_time": 56.384, "note_off_time": 57.392}, {"pitch": 77, "velocity": 40, "note_on_time": 58.406, "note_off_time": 59.414}, {"pitch": 60, "velocity": 40, "note_on_time": 64.422, "note_off_time": 65.438}, {"pitch": 64, "velocity": 40, "note_on_time": 64.423, "note_off_time": 65.438}, {"pitch": 67, "velocity": 40, "note_on_time": 64.423, "note_off_time": 65.438}, {"pitch": 74, "velocity": 40, "note_on_time": 66.451, "note_off_time": 67.453}, {"pitch": 60, "velocity": 40, "note_on_time": 72.463, "note_off_time": 73.467}, {"pitch": 64, "velocity": 40, "note_on_time": 72.464, "note_off_time": 73.468}, {"pitch": 67, "velocity": 40, "note_on_time": 72.464, "note_off_time": 73.468}, {"pitch": 76, "velocity": 40, "note_on_time": 74.482, "note_off_time": 75.484}, {"pitch": 60, "velocity": 40, "note_on_time": 80.493, "note_off_time": 81.509}, {"pitch": 64, "velocity": 40, "note_on_time": 80.494, "note_off_time": 81.511}, {"pitch": 67, "velocity": 40, "note_on_time": 80.494, "note_off_time": 81.511}, {"pitch": 77, "velocity": 40, "note_on_time": 82.513, "note_off_time": 83.516}, {"pitch": 60, "velocity": 40, "note_on_time": 88.527, "note_off_time": 89.542}, {"pitch": 64, "velocity": 40, "note_on_time": 88.528, "note_off_time": 89.543}, {"pitch": 67, "velocity": 40, "note_on_time": 88.528, "note_off_time": 89.543}, {"pitch": 74, "velocity": 40, "note_on_time": 90.557, "note_off_time": 91.567}, {"pitch": 60, "velocity": 40, "note_on_time": 96.58, "note_off_time": 97.597}, {"pitch": 64, "velocity": 40, "note_on_time": 96.581, "note_off_time": 97.597}, {"pitch": 67, "velocity": 40, "note_on_time": 96.581, "note_off_time": 97.598}, {"pitch": 79, "velocity": 40, "note_on_time": 98.612, "note_off_time": 99.616}, {"pitch": 60, "velocity": 40, "note_on_time": 104.62, "note_off_time": 105.635}, {"pitch": 64, "velocity": 40, "note_on_time": 104.621, "note_off_time": 105.636}, {"pitch": 67, "velocity": 40, "note_on_time": 104.621, "note_off_time": 105.636}, {"pitch": 76, "velocity": 40, "note_on_time": 106.64, "note_off_time": 107.656}, {"pitch": 60, "velocity": 40, "note_on_time": 112.666, "note_off_time": 113.683}, {"pitch": 64, "velocity": 40, "note_on_time": 112.667, "note_off_time": 113.685}, {"pitch": 67, "velocity": 40, "note_on_time": 112.667, "note_off_time": 113.685}, {"pitch": 79, "velocity": 40, "note_on_time": 114.698, "note_off_time": 115.701}, {"pitch": 60, "velocity": 40, "note_on_time": 120.713, "note_off_time": 121.729}, {"pitch": 64, "velocity": 40, "note_on_time": 120.714, "note_off_time": 121.73}, {"pitch": 67, "velocity": 40, "note_on_time": 120.714, "note_off_time": 121.73}, {"pitch": 72, "velocity": 40, "note_on_time": 122.735, "note_off_time": 123.742}, {"pitch": 60, "velocity": 40, "note_on_time": 128.755, "note_off_time": 129.759}, {"pitch": 64, "velocity": 40, "note_on_time": 128.755, "note_off_time": 129.76}, {"pitch": 67, "velocity": 40, "note_on_time": 128.755, "note_off_time": 129.76}, {"pitch": 76, "velocity": 40, "note_on_time": 130.769, "note_off_time": 131.774}, {"pitch": 60, "velocity": 40, "note_on_time": 136.775, "note_off_time": 137.78}, {"pitch": 64, "velocity": 40, "note_on_time": 136.776, "note_off_time": 137.781}, {"pitch": 67, "velocity": 40, "note_on_time": 136.776, "note_off_time": 137.781}, {"pitch": 72, "velocity": 40, "note_on_time": 138.796, "note_off_time": 139.8}, {"pitch": 60, "velocity": 40, "note_on_time": 144.803, "note_off_time": 145.818}, {"pitch": 64, "velocity": 40, "note_on_time": 144.804, "note_off_time": 145.819}, {"pitch": 67, "velocity": 40, "note_on_time": 144.804, "note_off_time": 145.819}, {"pitch": 74, "velocity": 40, "note_on_time": 146.821, "note_off_time": 147.826}, {"pitch": 60, "velocity": 40, "note_on_time": 152.833, "note_off_time": 153.835}, {"pitch": 64, "velocity": 40, "note_on_time": 152.833, "note_off_time": 153.836}, {"pitch": 67, "velocity": 40, "note_on_time": 152.834, "note_off_time": 153.837}, {"pitch": 79, "velocity": 40, "note_on_time": 154.838, "note_off_time": 155.853}, {"pitch": 60, "velocity": 40, "note_on_time": 160.868, "note_off_time": 161.878}, {"pitch": 64, "velocity": 40, "note_on_time": 160.869, "note_off_time": 161.878}, {"pitch": 67, "velocity": 40, "note_on_time": 160.869, "note_off_time": 161.879}, {"pitch": 76, "velocity": 40, "note_on_time": 162.89, "note_off_time": 163.891}]</notes><options name="Option List">((4, 4), [0.5, 0.25], 3, 8, &lt;NoteRangePerHand.TWO_NOTES: 3&gt;, &lt;NoteRangePerHand.ONE_NOTE: 2&gt;, False, True, True, 100)</options></target_notes><trials><trial trial_no="1" timestamp="2024_03_04-17_51_46"><notes name="Played Notes">[{"pitch": 76, "velocity": 25, "note_on_time": 3.458, "note_off_time": 3.665}, {"pitch": 77, "velocity": 33, "note_on_time": 11.652, "note_off_time": 11.838}, {"pitch": 79, "velocity": 2, "note_on_time": 20.047, "note_off_time": 20.388}, {"pitch": 77, "velocity": 29, "note_on_time": 27.775, "note_off_time": 27.981}, {"pitch": 74, "velocity": 13, "note_on_time": 36.515, "note_off_time": 36.85}, {"pitch": 72, "velocity": 36, "note_on_time": 38.417, "note_off_time": 38.779}, {"pitch": 76, "velocity": 1, "note_on_time": 44.273, "note_off_time": 44.587}, {"pitch": 76, "velocity": 40, "note_on_time": 45.041, "note_off_time": 45.279}, {"pitch": 74, "velocity": 1, "note_on_time": 52.416, "note_off_time": 52.765}, {"pitch": 76, "velocity": 31, "note_on_time": 54.073, "note_off_time": 54.343}, {"pitch": 77, "velocity": 30, "note_on_time": 60.343, "note_off_time": 60.617}, {"pitch": 76, "velocity": 7, "note_on_time": 68.177, "note_off_time": 68.589}, {"pitch": 74, "velocity": 1, "note_on_time": 71.747, "note_off_time": 72.104}, {"pitch": 74, "velocity": 14, "note_on_time": 72.45, "note_off_time": 72.654}, {"pitch": 77, "velocity": 23, "note_on_time": 76.272, "note_off_time": 76.484}, {"pitch": 76, "velocity": 52, "note_on_time": 77.673, "note_off_time": 77.944}, {"pitch": 77, "velocity": 31, "note_on_time": 84.373, "note_off_time": 84.643}, {"pitch": 76, "velocity": 26, "note_on_time": 92.562, "note_off_time": 92.936}, {"pitch": 77, "velocity": 17, "note_on_time": 100.653, "note_off_time": 100.986}, {"pitch": 79, "velocity": 36, "note_on_time": 101.956, "note_off_time": 102.314}, {"pitch": 77, "velocity": 23, "note_on_time": 108.156, "note_off_time": 108.494}, {"pitch": 79, "velocity": 22, "note_on_time": 109.79, "note_off_time": 110.136}, {"pitch": 77, "velocity": 31, "note_on_time": 116.465, "note_off_time": 116.776}, {"pitch": 79, "velocity": 55, "note_on_time": 117.389, "note_off_time": 117.681}, {"pitch": 74, "velocity": 45, "note_on_time": 124.922, "note_off_time": 125.247}, {"pitch": 76, "velocity": 42, "note_on_time": 125.991, "note_off_time": 126.241}, {"pitch": 77, "velocity": 52, "note_on_time": 132.715, "note_off_time": 132.935}, {"pitch": 74, "velocity": 17, "note_on_time": 140.696, "note_off_time": 141.006}, {"pitch": 77, "velocity": 29, "note_on_time": 148.818, "note_off_time": 149.129}, {"pitch": 79, "velocity": 37, "note_on_time": 156.702, "note_off_time": 157.071}]</notes><guidance name="Guidance Mode">None</guidance><error name="Error value">99</error></trial></trials></MIDI>