<MIDI midiNo="2024_03_04-13_02_18"><target_notes><notes name="Note List">[{"pitch": 60, "velocity": 40, "note_on_time": 0.01, "note_off_time": 1.012}, {"pitch": 64, "velocity": 40, "note_on_time": 0.01, "note_off_time": 1.012}, {"pitch": 67, "velocity": 40, "note_on_time": 0.01, "note_off_time": 1.013}, {"pitch": 48, "velocity": 40, "note_on_time": 0.01, "note_off_time": 1.013}, {"pitch": 52, "velocity": 40, "note_on_time": 1.013, "note_off_time": 2.023}, {"pitch": 55, "velocity": 40, "note_on_time": 1.013, "note_off_time": 2.023}, {"pitch": 76, "velocity": 40, "note_on_time": 2.023, "note_off_time": 3.031}, {"pitch": 48, "velocity": 40, "note_on_time": 2.023, "note_off_time": 3.031}, {"pitch": 52, "velocity": 40, "note_on_time": 3.032, "note_off_time": 4.043}, {"pitch": 55, "velocity": 40, "note_on_time": 3.032, "note_off_time": 4.043}, {"pitch": 48, "velocity": 40, "note_on_time": 4.043, "note_off_time": 5.047}, {"pitch": 52, "velocity": 40, "note_on_time": 5.047, "note_off_time": 6.051}, {"pitch": 55, "velocity": 40, "note_on_time": 5.047, "note_off_time": 6.051}, {"pitch": 48, "velocity": 40, "note_on_time": 6.051, "note_off_time": 7.054}, {"pitch": 52, "velocity": 40, "note_on_time": 7.054, "note_off_time": 8.065}, {"pitch": 55, "velocity": 40, "note_on_time": 7.054, "note_off_time": 8.065}, {"pitch": 60, "velocity": 40, "note_on_time": 8.064, "note_off_time": 9.072}, {"pitch": 64, "velocity": 40, "note_on_time": 8.065, "note_off_time": 9.073}, {"pitch": 67, "velocity": 40, "note_on_time": 8.065, "note_off_time": 9.074}, {"pitch": 48, "velocity": 40, "note_on_time": 8.065, "note_off_time": 9.074}, {"pitch": 52, "velocity": 40, "note_on_time": 9.074, "note_off_time": 10.081}, {"pitch": 55, "velocity": 40, "note_on_time": 9.074, "note_off_time": 10.081}, {"pitch": 72, "velocity": 40, "note_on_time": 10.081, "note_off_time": 11.091}, {"pitch": 48, "velocity": 40, "note_on_time": 10.081, "note_off_time": 11.091}, {"pitch": 52, "velocity": 40, "note_on_time": 11.091, "note_off_time": 12.096}, {"pitch": 55, "velocity": 40, "note_on_time": 11.091, "note_off_time": 12.096}, {"pitch": 48, "velocity": 40, "note_on_time": 12.096, "note_off_time": 13.109}, {"pitch": 52, "velocity": 40, "note_on_time": 13.109, "note_off_time": 14.116}, {"pitch": 55, "velocity": 40, "note_on_time": 13.109, "note_off_time": 14.116}, {"pitch": 48, "velocity": 40, "note_on_time": 14.116, "note_off_time": 15.122}, {"pitch": 52, "velocity": 40, "note_on_time": 15.122, "note_off_time": 16.136}, {"pitch": 55, "velocity": 40, "note_on_time": 15.122, "note_off_time": 16.136}, {"pitch": 60, "velocity": 40, "note_on_time": 16.135, "note_off_time": 17.14}, {"pitch": 64, "velocity": 40, "note_on_time": 16.136, "note_off_time": 17.141}, {"pitch": 67, "velocity": 40, "note_on_time": 16.136, "note_off_time": 17.141}, {"pitch": 48, "velocity": 40, "note_on_time": 16.136, "note_off_time": 17.142}, {"pitch": 52, "velocity": 40, "note_on_time": 17.142, "note_off_time": 18.146}, {"pitch": 55, "velocity": 40, "note_on_time": 17.142, "note_off_time": 18.146}, {"pitch": 77, "velocity": 40, "note_on_time": 18.145, "note_off_time": 19.149}, {"pitch": 48, "velocity": 40, "note_on_time": 18.146, "note_off_time": 19.149}, {"pitch": 52, "velocity": 40, "note_on_time": 19.149, "note_off_time": 20.151}, {"pitch": 55, "velocity": 40, "note_on_time": 19.149, "note_off_time": 20.151}, {"pitch": 48, "velocity": 40, "note_on_time": 20.151, "note_off_time": 21.163}, {"pitch": 52, "velocity": 40, "note_on_time": 21.163, "note_off_time": 22.167}, {"pitch": 55, "velocity": 40, "note_on_time": 21.163, "note_off_time": 22.167}, {"pitch": 48, "velocity": 40, "note_on_time": 22.167, "note_off_time": 23.183}, {"pitch": 52, "velocity": 40, "note_on_time": 23.183, "note_off_time": 24.193}, {"pitch": 55, "velocity": 40, "note_on_time": 23.183, "note_off_time": 24.193}, {"pitch": 60, "velocity": 40, "note_on_time": 24.191, "note_off_time": 25.206}, {"pitch": 64, "velocity": 40, "note_on_time": 24.192, "note_off_time": 25.207}, {"pitch": 67, "velocity": 40, "note_on_time": 24.192, "note_off_time": 25.208}, {"pitch": 48, "velocity": 40, "note_on_time": 24.193, "note_off_time": 25.208}, {"pitch": 52, "velocity": 40, "note_on_time": 25.208, "note_off_time": 26.222}, {"pitch": 55, "velocity": 40, "note_on_time": 25.208, "note_off_time": 26.222}, {"pitch": 72, "velocity": 40, "note_on_time": 26.222, "note_off_time": 27.227}, {"pitch": 48, "velocity": 40, "note_on_time": 26.222, "note_off_time": 27.227}, {"pitch": 52, "velocity": 40, "note_on_time": 27.227, "note_off_time": 28.235}, {"pitch": 55, "velocity": 40, "note_on_time": 27.227, "note_off_time": 28.235}, {"pitch": 48, "velocity": 40, "note_on_time": 28.235, "note_off_time": 29.237}, {"pitch": 52, "velocity": 40, "note_on_time": 29.237, "note_off_time": 30.247}, {"pitch": 55, "velocity": 40, "note_on_time": 29.237, "note_off_time": 30.247}, {"pitch": 48, "velocity": 40, "note_on_time": 30.247, "note_off_time": 31.251}, {"pitch": 52, "velocity": 40, "note_on_time": 31.251, "note_off_time": 32.26}, {"pitch": 55, "velocity": 40, "note_on_time": 31.251, "note_off_time": 32.26}, {"pitch": 60, "velocity": 40, "note_on_time": 32.259, "note_off_time": 33.272}, {"pitch": 64, "velocity": 40, "note_on_time": 32.26, "note_off_time": 33.273}, {"pitch": 67, "velocity": 40, "note_on_time": 32.26, "note_off_time": 33.273}, {"pitch": 48, "velocity": 40, "note_on_time": 32.26, "note_off_time": 33.273}, {"pitch": 52, "velocity": 40, "note_on_time": 33.273, "note_off_time": 34.289}, {"pitch": 55, "velocity": 40, "note_on_time": 33.273, "note_off_time": 34.289}, {"pitch": 74, "velocity": 40, "note_on_time": 34.288, "note_off_time": 35.297}, {"pitch": 48, "velocity": 40, "note_on_time": 34.289, "note_off_time": 35.297}, {"pitch": 52, "velocity": 40, "note_on_time": 35.298, "note_off_time": 36.301}, {"pitch": 55, "velocity": 40, "note_on_time": 35.298, "note_off_time": 36.301}, {"pitch": 48, "velocity": 40, "note_on_time": 36.301, "note_off_time": 37.306}, {"pitch": 52, "velocity": 40, "note_on_time": 37.306, "note_off_time": 38.311}, {"pitch": 55, "velocity": 40, "note_on_time": 37.306, "note_off_time": 38.311}, {"pitch": 48, "velocity": 40, "note_on_time": 38.311, "note_off_time": 39.314}, {"pitch": 52, "velocity": 40, "note_on_time": 39.314, "note_off_time": 40.318}, {"pitch": 55, "velocity": 40, "note_on_time": 39.314, "note_off_time": 40.318}, {"pitch": 60, "velocity": 40, "note_on_time": 40.317, "note_off_time": 41.32}, {"pitch": 64, "velocity": 40, "note_on_time": 40.317, "note_off_time": 41.32}, {"pitch": 67, "velocity": 40, "note_on_time": 40.318, "note_off_time": 41.321}, {"pitch": 72, "velocity": 40, "note_on_time": 42.324, "note_off_time": 43.34}, {"pitch": 60, "velocity": 40, "note_on_time": 48.349, "note_off_time": 49.352}, {"pitch": 64, "velocity": 40, "note_on_time": 48.349, "note_off_time": 49.352}, {"pitch": 67, "velocity": 40, "note_on_time": 48.35, "note_off_time": 49.353}, {"pitch": 74, "velocity": 40, "note_on_time": 50.361, "note_off_time": 51.369}, {"pitch": 60, "velocity": 40, "note_on_time": 56.382, "note_off_time": 57.385}, {"pitch": 64, "velocity": 40, "note_on_time": 56.382, "note_off_time": 57.385}, {"pitch": 67, "velocity": 40, "note_on_time": 56.383, "note_off_time": 57.386}, {"pitch": 76, "velocity": 40, "note_on_time": 58.398, "note_off_time": 59.399}, {"pitch": 60, "velocity": 40, "note_on_time": 64.401, "note_off_time": 65.411}, {"pitch": 64, "velocity": 40, "note_on_time": 64.402, "note_off_time": 65.411}, {"pitch": 67, "velocity": 40, "note_on_time": 64.403, "note_off_time": 65.412}, {"pitch": 72, "velocity": 40, "note_on_time": 66.421, "note_off_time": 67.424}, {"pitch": 60, "velocity": 40, "note_on_time": 72.431, "note_off_time": 73.444}, {"pitch": 64, "velocity": 40, "note_on_time": 72.431, "note_off_time": 73.445}, {"pitch": 67, "velocity": 40, "note_on_time": 72.431, "note_off_time": 73.446}, {"pitch": 79, "velocity": 40, "note_on_time": 74.456, "note_off_time": 75.462}, {"pitch": 60, "velocity": 40, "note_on_time": 80.472, "note_off_time": 81.486}, {"pitch": 64, "velocity": 40, "note_on_time": 80.473, "note_off_time": 81.486}, {"pitch": 67, "velocity": 40, "note_on_time": 80.473, "note_off_time": 81.487}, {"pitch": 74, "velocity": 40, "note_on_time": 82.497, "note_off_time": 83.505}, {"pitch": 60, "velocity": 40, "note_on_time": 88.508, "note_off_time": 89.522}, {"pitch": 64, "velocity": 40, "note_on_time": 88.509, "note_off_time": 89.522}, {"pitch": 67, "velocity": 40, "note_on_time": 88.509, "note_off_time": 89.523}, {"pitch": 77, "velocity": 40, "note_on_time": 90.537, "note_off_time": 91.542}, {"pitch": 60, "velocity": 40, "note_on_time": 96.557, "note_off_time": 97.566}, {"pitch": 64, "velocity": 40, "note_on_time": 96.558, "note_off_time": 97.567}, {"pitch": 67, "velocity": 40, "note_on_time": 96.559, "note_off_time": 97.567}, {"pitch": 76, "velocity": 40, "note_on_time": 98.578, "note_off_time": 99.588}, {"pitch": 60, "velocity": 40, "note_on_time": 104.592, "note_off_time": 105.601}, {"pitch": 64, "velocity": 40, "note_on_time": 104.592, "note_off_time": 105.601}, {"pitch": 67, "velocity": 40, "note_on_time": 104.593, "note_off_time": 105.602}, {"pitch": 77, "velocity": 40, "note_on_time": 106.616, "note_off_time": 107.628}, {"pitch": 60, "velocity": 40, "note_on_time": 112.63, "note_off_time": 113.634}, {"pitch": 64, "velocity": 40, "note_on_time": 112.631, "note_off_time": 113.634}, {"pitch": 67, "velocity": 40, "note_on_time": 112.631, "note_off_time": 113.635}, {"pitch": 79, "velocity": 40, "note_on_time": 114.64, "note_off_time": 115.651}, {"pitch": 60, "velocity": 40, "note_on_time": 120.664, "note_off_time": 121.68}, {"pitch": 64, "velocity": 40, "note_on_time": 120.665, "note_off_time": 121.681}, {"pitch": 67, "velocity": 40, "note_on_time": 120.665, "note_off_time": 121.682}, {"pitch": 77, "velocity": 40, "note_on_time": 122.683, "note_off_time": 123.691}, {"pitch": 60, "velocity": 40, "note_on_time": 128.694, "note_off_time": 129.704}, {"pitch": 64, "velocity": 40, "note_on_time": 128.694, "note_off_time": 129.705}, {"pitch": 67, "velocity": 40, "note_on_time": 128.695, "note_off_time": 129.706}, {"pitch": 79, "velocity": 40, "note_on_time": 130.708, "note_off_time": 131.722}, {"pitch": 60, "velocity": 40, "note_on_time": 136.732, "note_off_time": 137.748}, {"pitch": 64, "velocity": 40, "note_on_time": 136.733, "note_off_time": 137.749}, {"pitch": 67, "velocity": 40, "note_on_time": 136.733, "note_off_time": 137.75}, {"pitch": 74, "velocity": 40, "note_on_time": 138.754, "note_off_time": 139.755}, {"pitch": 60, "velocity": 40, "note_on_time": 144.762, "note_off_time": 145.778}, {"pitch": 64, "velocity": 40, "note_on_time": 144.763, "note_off_time": 145.778}, {"pitch": 67, "velocity": 40, "note_on_time": 144.764, "note_off_time": 145.778}, {"pitch": 79, "velocity": 40, "note_on_time": 146.787, "note_off_time": 147.796}, {"pitch": 60, "velocity": 40, "note_on_time": 152.809, "note_off_time": 153.812}, {"pitch": 64, "velocity": 40, "note_on_time": 152.81, "note_off_time": 153.813}, {"pitch": 67, "velocity": 40, "note_on_time": 152.811, "note_off_time": 153.813}, {"pitch": 76, "velocity": 40, "note_on_time": 154.828, "note_off_time": 155.832}, {"pitch": 60, "velocity": 40, "note_on_time": 160.842, "note_off_time": 161.845}, {"pitch": 64, "velocity": 40, "note_on_time": 160.843, "note_off_time": 161.846}, {"pitch": 67, "velocity": 40, "note_on_time": 160.843, "note_off_time": 161.846}, {"pitch": 76, "velocity": 40, "note_on_time": 162.853, "note_off_time": 163.866}]</notes><options name="Option List">((4, 4), [0.5, 0.25], 3, 8, &lt;NoteRangePerHand.TWO_NOTES: 3&gt;, &lt;NoteRangePerHand.ONE_NOTE: 2&gt;, False, True, True, 100)</options></target_notes><trials><trial trial_no="1" timestamp="2024_03_04-12_59_34"><notes name="Played Notes">[{"pitch": 76, "velocity": 23, "note_on_time": 2.231, "note_off_time": 2.475}, {"pitch": 74, "velocity": 17, "note_on_time": 2.187, "note_off_time": 2.515}, {"pitch": 79, "velocity": 1, "note_on_time": 3.468, "note_off_time": 3.583}, {"pitch": 77, "velocity": 30, "note_on_time": 3.276, "note_off_time": 3.636}, {"pitch": 76, "velocity": 62, "note_on_time": 3.277, "note_off_time": 3.666}, {"pitch": 77, "velocity": 37, "note_on_time": 7.311, "note_off_time": 7.629}, {"pitch": 79, "velocity": 28, "note_on_time": 7.282, "note_off_time": 7.63}, {"pitch": 74, "velocity": 36, "note_on_time": 7.292, "note_off_time": 7.719}, {"pitch": 72, "velocity": 37, "note_on_time": 9.6, "note_off_time": 9.768}, {"pitch": 72, "velocity": 38, "note_on_time": 12.903, "note_off_time": 13.502}, {"pitch": 72, "velocity": 24, "note_on_time": 14.447, "note_off_time": 14.64}, {"pitch": 74, "velocity": 47, "note_on_time": 14.393, "note_off_time": 14.726}, {"pitch": 74, "velocity": 47, "note_on_time": 20.538, "note_off_time": 20.782}, {"pitch": 76, "velocity": 56, "note_on_time": 21.24, "note_off_time": 21.468}, {"pitch": 77, "velocity": 54, "note_on_time": 21.903, "note_off_time": 22.043}, {"pitch": 77, "velocity": 58, "note_on_time": 23.3, "note_off_time": 23.679}, {"pitch": 77, "velocity": 13, "note_on_time": 26.373, "note_off_time": 26.522}, {"pitch": 77, "velocity": 58, "note_on_time": 27.441, "note_off_time": 27.85}, {"pitch": 72, "velocity": 57, "note_on_time": 27.442, "note_off_time": 27.862}, {"pitch": 72, "velocity": 13, "note_on_time": 31.347, "note_off_time": 31.443}, {"pitch": 77, "velocity": 42, "note_on_time": 31.053, "note_off_time": 31.509}, {"pitch": 76, "velocity": 51, "note_on_time": 31.03, "note_off_time": 31.528}, {"pitch": 76, "velocity": 30, "note_on_time": 33.858, "note_off_time": 34.06}, {"pitch": 72, "velocity": 42, "note_on_time": 35.147, "note_off_time": 35.656}, {"pitch": 72, "velocity": 61, "note_on_time": 36.533, "note_off_time": 37.086}, {"pitch": 72, "velocity": 39, "note_on_time": 42.047, "note_off_time": 43.4}, {"pitch": 76, "velocity": 1, "note_on_time": 54.148, "note_off_time": 54.271}, {"pitch": 76, "velocity": 47, "note_on_time": 54.499, "note_off_time": 55.002}, {"pitch": 74, "velocity": 58, "note_on_time": 55.97, "note_off_time": 56.842}, {"pitch": 76, "velocity": 62, "note_on_time": 59.824, "note_off_time": 61.067}, {"pitch": 72, "velocity": 54, "note_on_time": 67.825, "note_off_time": 69.43}, {"pitch": 79, "velocity": 58, "note_on_time": 75.82, "note_off_time": 77.518}, {"pitch": 74, "velocity": 64, "note_on_time": 83.686, "note_off_time": 84.706}, {"pitch": 77, "velocity": 37, "note_on_time": 91.961, "note_off_time": 93.684}, {"pitch": 74, "velocity": 40, "note_on_time": 100.293, "note_off_time": 100.655}, {"pitch": 76, "velocity": 33, "note_on_time": 101.225, "note_off_time": 102.762}, {"pitch": 77, "velocity": 53, "note_on_time": 108.09, "note_off_time": 109.591}, {"pitch": 79, "velocity": 73, "note_on_time": 115.816, "note_off_time": 116.821}, {"pitch": 77, "velocity": 32, "note_on_time": 124.083, "note_off_time": 126.094}, {"pitch": 79, "velocity": 69, "note_on_time": 132.195, "note_off_time": 133.593}, {"pitch": 74, "velocity": 57, "note_on_time": 140.135, "note_off_time": 141.886}, {"pitch": 77, "velocity": 35, "note_on_time": 148.194, "note_off_time": 148.553}, {"pitch": 79, "velocity": 60, "note_on_time": 148.861, "note_off_time": 150.528}, {"pitch": 76, "velocity": 45, "note_on_time": 156.529, "note_off_time": 157.905}]</notes><guidance name="Guidance Mode">None</guidance><error name="Error value">99</error></trial><trial trial_no="2" timestamp="2024_03_04-13_03_28"><notes name="Played Notes">[{"pitch": 72, "velocity": 57, "note_on_time": 2.498, "note_off_time": 3.184}, {"pitch": 74, "velocity": 62, "note_on_time": 3.07, "note_off_time": 3.72}, {"pitch": 76, "velocity": 44, "note_on_time": 3.619, "note_off_time": 4.074}, {"pitch": 77, "velocity": 52, "note_on_time": 4.194, "note_off_time": 4.662}, {"pitch": 79, "velocity": 46, "note_on_time": 4.817, "note_off_time": 6.986}, {"pitch": 76, "velocity": 60, "note_on_time": 8.454, "note_off_time": 9.728}, {"pitch": 71, "velocity": 49, "note_on_time": 9.7, "note_off_time": 9.787}, {"pitch": 79, "velocity": 54, "note_on_time": 7.309, "note_off_time": 10.5}, {"pitch": 77, "velocity": 45, "note_on_time": 7.864, "note_off_time": 10.54}, {"pitch": 74, "velocity": 60, "note_on_time": 9.034, "note_off_time": 10.815}, {"pitch": 72, "velocity": 55, "note_on_time": 9.702, "note_off_time": 10.977}, {"pitch": 72, "velocity": 46, "note_on_time": 12.151, "note_off_time": 12.934}, {"pitch": 76, "velocity": 58, "note_on_time": 13.37, "note_off_time": 14.589}, {"pitch": 72, "velocity": 59, "note_on_time": 15.09, "note_off_time": 15.397}, {"pitch": 79, "velocity": 68, "note_on_time": 15.733, "note_off_time": 16.751}, {"pitch": 79, "velocity": 61, "note_on_time": 16.961, "note_off_time": 17.506}, {"pitch": 77, "velocity": 48, "note_on_time": 17.977, "note_off_time": 18.25}, {"pitch": 76, "velocity": 64, "note_on_time": 18.171, "note_off_time": 18.924}, {"pitch": 74, "velocity": 53, "note_on_time": 18.828, "note_off_time": 19.167}, {"pitch": 72, "velocity": 52, "note_on_time": 19.436, "note_off_time": 20.832}, {"pitch": 72, "velocity": 39, "note_on_time": 21.965, "note_off_time": 22.832}, {"pitch": 76, "velocity": 46, "note_on_time": 23.137, "note_off_time": 23.717}, {"pitch": 72, "velocity": 55, "note_on_time": 24.292, "note_off_time": 24.87}, {"pitch": 74, "velocity": 55, "note_on_time": 24.825, "note_off_time": 25.067}, {"pitch": 76, "velocity": 55, "note_on_time": 25.382, "note_off_time": 26.447}, {"pitch": 74, "velocity": 62, "note_on_time": 27.297, "note_off_time": 28.037}, {"pitch": 76, "velocity": 56, "note_on_time": 27.869, "note_off_time": 28.647}, {"pitch": 72, "velocity": 46, "note_on_time": 26.765, "note_off_time": 28.772}, {"pitch": 77, "velocity": 55, "note_on_time": 28.463, "note_off_time": 28.846}, {"pitch": 79, "velocity": 79, "note_on_time": 29.1, "note_off_time": 31.094}, {"pitch": 79, "velocity": 61, "note_on_time": 31.577, "note_off_time": 32.321}, {"pitch": 79, "velocity": 56, "note_on_time": 32.564, "note_off_time": 33.408}, {"pitch": 72, "velocity": 64, "note_on_time": 32.864, "note_off_time": 33.787}, {"pitch": 79, "velocity": 60, "note_on_time": 34.029, "note_off_time": 34.526}, {"pitch": 79, "velocity": 36, "note_on_time": 34.944, "note_off_time": 35.33}, {"pitch": 72, "velocity": 54, "note_on_time": 35.168, "note_off_time": 36.271}, {"pitch": 77, "velocity": 52, "note_on_time": 37.027, "note_off_time": 37.642}, {"pitch": 76, "velocity": 50, "note_on_time": 37.596, "note_off_time": 38.744}, {"pitch": 74, "velocity": 64, "note_on_time": 38.18, "note_off_time": 38.774}, {"pitch": 72, "velocity": 61, "note_on_time": 38.749, "note_off_time": 40.974}, {"pitch": 72, "velocity": 57, "note_on_time": 41.33, "note_off_time": 42.348}, {"pitch": 79, "velocity": 51, "note_on_time": 42.48, "note_off_time": 43.36}, {"pitch": 72, "velocity": 66, "note_on_time": 43.773, "note_off_time": 44.731}, {"pitch": 79, "velocity": 64, "note_on_time": 45.002, "note_off_time": 45.957}, {"pitch": 72, "velocity": 56, "note_on_time": 46.718, "note_off_time": 47.111}, {"pitch": 74, "velocity": 68, "note_on_time": 47.107, "note_off_time": 47.326}, {"pitch": 76, "velocity": 60, "note_on_time": 47.296, "note_off_time": 48.041}, {"pitch": 77, "velocity": 56, "note_on_time": 48.332, "note_off_time": 48.62}, {"pitch": 79, "velocity": 61, "note_on_time": 48.536, "note_off_time": 49.195}, {"pitch": 77, "velocity": 72, "note_on_time": 49.119, "note_off_time": 49.83}, {"pitch": 72, "velocity": 51, "note_on_time": 51.536, "note_off_time": 53.222}, {"pitch": 74, "velocity": 36, "note_on_time": 52.162, "note_off_time": 53.238}, {"pitch": 72, "velocity": 53, "note_on_time": 53.457, "note_off_time": 54.115}, {"pitch": 74, "velocity": 65, "note_on_time": 54.375, "note_off_time": 54.692}, {"pitch": 76, "velocity": 51, "note_on_time": 54.613, "note_off_time": 55.386}, {"pitch": 77, "velocity": 54, "note_on_time": 55.882, "note_off_time": 56.839}, {"pitch": 74, "velocity": 58, "note_on_time": 57.005, "note_off_time": 57.252}, {"pitch": 76, "velocity": 54, "note_on_time": 56.402, "note_off_time": 57.287}, {"pitch": 79, "velocity": 30, "note_on_time": 57.594, "note_off_time": 58.131}, {"pitch": 72, "velocity": 55, "note_on_time": 58.274, "note_off_time": 60.068}, {"pitch": 72, "velocity": 38, "note_on_time": 60.431, "note_off_time": 61.171}, {"pitch": 74, "velocity": 61, "note_on_time": 60.656, "note_off_time": 61.188}, {"pitch": 77, "velocity": 59, "note_on_time": 61.899, "note_off_time": 62.354}, {"pitch": 72, "velocity": 1, "note_on_time": 61.622, "note_off_time": 62.507}, {"pitch": 79, "velocity": 58, "note_on_time": 63.069, "note_off_time": 63.467}, {"pitch": 72, "velocity": 49, "note_on_time": 62.864, "note_off_time": 63.698}, {"pitch": 74, "velocity": 53, "note_on_time": 65.571, "note_off_time": 65.835}, {"pitch": 76, "velocity": 45, "note_on_time": 65.573, "note_off_time": 65.848}, {"pitch": 72, "velocity": 51, "note_on_time": 65.349, "note_off_time": 66.045}, {"pitch": 72, "velocity": 51, "note_on_time": 68.06, "note_off_time": 68.883}, {"pitch": 79, "velocity": 59, "note_on_time": 70.406, "note_off_time": 71.124}, {"pitch": 77, "velocity": 50, "note_on_time": 71.676, "note_off_time": 73.76}, {"pitch": 79, "velocity": 69, "note_on_time": 74.422, "note_off_time": 74.746}, {"pitch": 77, "velocity": 32, "note_on_time": 74.663, "note_off_time": 75.256}, {"pitch": 72, "velocity": 59, "note_on_time": 75.309, "note_off_time": 76.394}, {"pitch": 74, "velocity": 52, "note_on_time": 76.891, "note_off_time": 77.169}, {"pitch": 76, "velocity": 46, "note_on_time": 77.113, "note_off_time": 77.382}, {"pitch": 72, "velocity": 63, "note_on_time": 77.645, "note_off_time": 79.432}, {"pitch": 72, "velocity": 42, "note_on_time": 80.197, "note_off_time": 82.149}, {"pitch": 77, "velocity": 43, "note_on_time": 82.655, "note_off_time": 83.124}, {"pitch": 79, "velocity": 66, "note_on_time": 83.585, "note_off_time": 83.925}, {"pitch": 77, "velocity": 42, "note_on_time": 83.853, "note_off_time": 84.301}, {"pitch": 76, "velocity": 47, "note_on_time": 84.476, "note_off_time": 84.828}, {"pitch": 74, "velocity": 57, "note_on_time": 85.059, "note_off_time": 86.89}, {"pitch": 72, "velocity": 62, "note_on_time": 87.237, "note_off_time": 87.456}, {"pitch": 74, "velocity": 58, "note_on_time": 87.426, "note_off_time": 87.909}, {"pitch": 76, "velocity": 54, "note_on_time": 88.02, "note_off_time": 88.688}, {"pitch": 72, "velocity": 49, "note_on_time": 89.705, "note_off_time": 89.898}, {"pitch": 76, "velocity": 55, "note_on_time": 89.904, "note_off_time": 90.552}, {"pitch": 77, "velocity": 56, "note_on_time": 90.921, "note_off_time": 91.199}, {"pitch": 72, "velocity": 57, "note_on_time": 91.136, "note_off_time": 91.596}, {"pitch": 72, "velocity": 47, "note_on_time": 92.107, "note_off_time": 92.465}, {"pitch": 77, "velocity": 48, "note_on_time": 92.332, "note_off_time": 92.506}, {"pitch": 79, "velocity": 33, "note_on_time": 92.862, "note_off_time": 93.1}, {"pitch": 72, "velocity": 42, "note_on_time": 93.523, "note_off_time": 94.698}, {"pitch": 79, "velocity": 56, "note_on_time": 95.333, "note_off_time": 95.645}, {"pitch": 77, "velocity": 9, "note_on_time": 95.66, "note_off_time": 95.951}, {"pitch": 76, "velocity": 45, "note_on_time": 95.855, "note_off_time": 96.603}, {"pitch": 74, "velocity": 59, "note_on_time": 96.436, "note_off_time": 96.827}, {"pitch": 72, "velocity": 47, "note_on_time": 97.109, "note_off_time": 98.199}, {"pitch": 72, "velocity": 45, "note_on_time": 99.657, "note_off_time": 100.541}, {"pitch": 76, "velocity": 45, "note_on_time": 100.865, "note_off_time": 101.693}, {"pitch": 72, "velocity": 48, "note_on_time": 102.018, "note_off_time": 102.46}, {"pitch": 76, "velocity": 45, "note_on_time": 102.619, "note_off_time": 102.871}, {"pitch": 79, "velocity": 62, "note_on_time": 103.233, "note_off_time": 104.146}, {"pitch": 77, "velocity": 27, "note_on_time": 104.545, "note_off_time": 104.675}, {"pitch": 79, "velocity": 1, "note_on_time": 104.634, "note_off_time": 104.884}, {"pitch": 79, "velocity": 52, "note_on_time": 105.051, "note_off_time": 105.39}, {"pitch": 77, "velocity": 45, "note_on_time": 105.659, "note_off_time": 105.983}, {"pitch": 74, "velocity": 49, "note_on_time": 106.262, "note_off_time": 106.539}, {"pitch": 76, "velocity": 65, "note_on_time": 106.866, "note_off_time": 108.168}, {"pitch": 72, "velocity": 48, "note_on_time": 109.151, "note_off_time": 109.396}, {"pitch": 79, "velocity": 57, "note_on_time": 109.378, "note_off_time": 109.905}, {"pitch": 72, "velocity": 39, "note_on_time": 110.291, "note_off_time": 110.488}, {"pitch": 74, "velocity": 54, "note_on_time": 110.516, "note_off_time": 110.887}, {"pitch": 72, "velocity": 44, "note_on_time": 111.487, "note_off_time": 111.719}, {"pitch": 76, "velocity": 64, "note_on_time": 111.695, "note_off_time": 111.945}, {"pitch": 77, "velocity": 40, "note_on_time": 112.255, "note_off_time": 112.529}, {"pitch": 79, "velocity": 53, "note_on_time": 112.829, "note_off_time": 113.332}, {"pitch": 72, "velocity": 65, "note_on_time": 114.203, "note_off_time": 114.465}, {"pitch": 74, "velocity": 60, "note_on_time": 114.801, "note_off_time": 114.98}, {"pitch": 76, "velocity": 48, "note_on_time": 115.374, "note_off_time": 115.767}, {"pitch": 74, "velocity": 62, "note_on_time": 115.968, "note_off_time": 116.268}, {"pitch": 72, "velocity": 39, "note_on_time": 116.565, "note_off_time": 118.113}, {"pitch": 79, "velocity": 62, "note_on_time": 119.079, "note_off_time": 119.489}, {"pitch": 77, "velocity": 57, "note_on_time": 120.058, "note_off_time": 120.343}, {"pitch": 76, "velocity": 50, "note_on_time": 120.244, "note_off_time": 120.664}, {"pitch": 74, "velocity": 60, "note_on_time": 120.843, "note_off_time": 121.19}, {"pitch": 72, "velocity": 47, "note_on_time": 121.478, "note_off_time": 122.826}, {"pitch": 72, "velocity": 50, "note_on_time": 123.918, "note_off_time": 124.876}, {"pitch": 77, "velocity": 64, "note_on_time": 125.131, "note_off_time": 125.48}, {"pitch": 79, "velocity": 51, "note_on_time": 125.694, "note_off_time": 126.08}, {"pitch": 76, "velocity": 56, "note_on_time": 126.289, "note_off_time": 126.931}, {"pitch": 74, "velocity": 54, "note_on_time": 127.303, "note_off_time": 127.564}, {"pitch": 72, "velocity": 55, "note_on_time": 127.536, "note_off_time": 127.699}, {"pitch": 72, "velocity": 49, "note_on_time": 128.125, "note_off_time": 128.741}, {"pitch": 77, "velocity": 55, "note_on_time": 129.102, "note_off_time": 129.308}, {"pitch": 79, "velocity": 33, "note_on_time": 129.626, "note_off_time": 129.83}, {"pitch": 77, "velocity": 57, "note_on_time": 129.836, "note_off_time": 130.071}, {"pitch": 76, "velocity": 45, "note_on_time": 130.502, "note_off_time": 130.878}, {"pitch": 74, "velocity": 59, "note_on_time": 131.198, "note_off_time": 132.056}, {"pitch": 72, "velocity": 45, "note_on_time": 132.347, "note_off_time": 132.991}, {"pitch": 72, "velocity": 45, "note_on_time": 133.665, "note_off_time": 134.227}, {"pitch": 76, "velocity": 44, "note_on_time": 134.269, "note_off_time": 134.779}, {"pitch": 72, "velocity": 36, "note_on_time": 134.828, "note_off_time": 135.42}, {"pitch": 76, "velocity": 51, "note_on_time": 135.436, "note_off_time": 135.983}, {"pitch": 72, "velocity": 49, "note_on_time": 136.073, "note_off_time": 136.623}, {"pitch": 76, "velocity": 36, "note_on_time": 136.696, "note_off_time": 137.301}, {"pitch": 72, "velocity": 46, "note_on_time": 137.312, "note_off_time": 138.031}, {"pitch": 72, "velocity": 46, "note_on_time": 139.151, "note_off_time": 139.603}, {"pitch": 74, "velocity": 46, "note_on_time": 139.61, "note_off_time": 139.724}, {"pitch": 76, "velocity": 40, "note_on_time": 139.796, "note_off_time": 140.065}, {"pitch": 74, "velocity": 51, "note_on_time": 140.697, "note_off_time": 140.857}, {"pitch": 72, "velocity": 65, "note_on_time": 140.898, "note_off_time": 142.202}, {"pitch": 76, "velocity": 36, "note_on_time": 142.755, "note_off_time": 143.142}, {"pitch": 77, "velocity": 58, "note_on_time": 143.008, "note_off_time": 143.281}, {"pitch": 79, "velocity": 43, "note_on_time": 143.241, "note_off_time": 143.478}, {"pitch": 79, "velocity": 37, "note_on_time": 145.157, "note_off_time": 145.43}, {"pitch": 77, "velocity": 52, "note_on_time": 145.292, "note_off_time": 145.578}, {"pitch": 76, "velocity": 54, "note_on_time": 145.511, "note_off_time": 145.793}, {"pitch": 74, "velocity": 58, "note_on_time": 148.27, "note_off_time": 148.612}, {"pitch": 74, "velocity": 43, "note_on_time": 148.918, "note_off_time": 149.557}, {"pitch": 74, "velocity": 44, "note_on_time": 149.808, "note_off_time": 150.121}, {"pitch": 72, "velocity": 63, "note_on_time": 150.064, "note_off_time": 150.392}, {"pitch": 74, "velocity": 51, "note_on_time": 150.543, "note_off_time": 150.703}, {"pitch": 76, "velocity": 53, "note_on_time": 150.737, "note_off_time": 151.366}, {"pitch": 76, "velocity": 49, "note_on_time": 151.912, "note_off_time": 152.576}, {"pitch": 74, "velocity": 55, "note_on_time": 153.082, "note_off_time": 153.441}, {"pitch": 76, "velocity": 59, "note_on_time": 153.437, "note_off_time": 153.841}, {"pitch": 77, "velocity": 42, "note_on_time": 153.706, "note_off_time": 154.062}, {"pitch": 79, "velocity": 57, "note_on_time": 154.16, "note_off_time": 155.122}, {"pitch": 74, "velocity": 47, "note_on_time": 155.573, "note_off_time": 156.05}, {"pitch": 76, "velocity": 53, "note_on_time": 155.903, "note_off_time": 156.229}, {"pitch": 77, "velocity": 58, "note_on_time": 156.166, "note_off_time": 156.879}, {"pitch": 79, "velocity": 75, "note_on_time": 156.538, "note_off_time": 156.882}, {"pitch": 79, "velocity": 14, "note_on_time": 157.32, "note_off_time": 157.745}, {"pitch": 72, "velocity": 33, "note_on_time": 157.969, "note_off_time": 158.504}, {"pitch": 72, "velocity": 47, "note_on_time": 158.957, "note_off_time": 159.15}, {"pitch": 74, "velocity": 48, "note_on_time": 159.146, "note_off_time": 159.442}, {"pitch": 76, "velocity": 42, "note_on_time": 159.679, "note_off_time": 159.955}, {"pitch": 72, "velocity": 62, "note_on_time": 160.313, "note_off_time": 162.305}, {"pitch": 72, "velocity": 46, "note_on_time": 162.851, "note_off_time": 163.824}, {"pitch": 76, "velocity": 45, "note_on_time": 164.434, "note_off_time": 164.715}, {"pitch": 74, "velocity": 61, "note_on_time": 164.683, "note_off_time": 164.882}, {"pitch": 77, "velocity": 62, "note_on_time": 165.088, "note_off_time": 165.355}, {"pitch": 79, "velocity": 56, "note_on_time": 165.297, "note_off_time": 165.581}, {"pitch": 77, "velocity": 61, "note_on_time": 165.822, "note_off_time": 166.205}, {"pitch": 76, "velocity": 42, "note_on_time": 166.427, "note_off_time": 167.265}, {"pitch": 72, "velocity": 47, "note_on_time": 168.06, "note_off_time": 168.188}, {"pitch": 72, "velocity": 55, "note_on_time": 168.635, "note_off_time": 168.858}, {"pitch": 74, "velocity": 57, "note_on_time": 168.854, "note_off_time": 169.082}, {"pitch": 76, "velocity": 47, "note_on_time": 169.449, "note_off_time": 169.702}, {"pitch": 72, "velocity": 40, "note_on_time": 170.084, "note_off_time": 171.284}, {"pitch": 72, "velocity": 50, "note_on_time": 172.896, "note_off_time": 173.013}, {"pitch": 72, "velocity": 53, "note_on_time": 173.522, "note_off_time": 173.775}, {"pitch": 76, "velocity": 49, "note_on_time": 173.78, "note_off_time": 173.984}, {"pitch": 77, "velocity": 53, "note_on_time": 174.354, "note_off_time": 174.575}, {"pitch": 79, "velocity": 53, "note_on_time": 174.958, "note_off_time": 175.174}, {"pitch": 77, "velocity": 45, "note_on_time": 175.527, "note_off_time": 175.828}, {"pitch": 74, "velocity": 35, "note_on_time": 176.258, "note_off_time": 176.893}, {"pitch": 72, "velocity": 43, "note_on_time": 177.71, "note_off_time": 179.278}, {"pitch": 72, "velocity": 58, "note_on_time": 179.882, "note_off_time": 180.981}, {"pitch": 76, "velocity": 49, "note_on_time": 181.1, "note_off_time": 181.43}, {"pitch": 74, "velocity": 50, "note_on_time": 181.686, "note_off_time": 182.001}, {"pitch": 72, "velocity": 41, "note_on_time": 182.282, "note_off_time": 183.957}, {"pitch": 72, "velocity": 62, "note_on_time": 184.819, "note_off_time": 185.626}, {"pitch": 79, "velocity": 36, "note_on_time": 186.049, "note_off_time": 186.288}, {"pitch": 77, "velocity": 46, "note_on_time": 186.658, "note_off_time": 186.885}, {"pitch": 76, "velocity": 48, "note_on_time": 187.23, "note_off_time": 187.379}, {"pitch": 72, "velocity": 56, "note_on_time": 189.669, "note_off_time": 190.203}, {"pitch": 74, "velocity": 33, "note_on_time": 190.857, "note_off_time": 190.913}, {"pitch": 72, "velocity": 54, "note_on_time": 190.639, "note_off_time": 190.965}, {"pitch": 76, "velocity": 66, "note_on_time": 191.403, "note_off_time": 191.618}, {"pitch": 72, "velocity": 53, "note_on_time": 192.126, "note_off_time": 194.505}]</notes><guidance name="Guidance Mode">None</guidance><error name="Error value">99</error></trial><trial trial_no="3" timestamp="2024_03_04-13_09_43"><notes name="Played Notes">[{"pitch": 72, "velocity": 61, "note_on_time": 4.948, "note_off_time": 6.069}, {"pitch": 72, "velocity": 56, "note_on_time": 6.423, "note_off_time": 6.869}, {"pitch": 74, "velocity": 42, "note_on_time": 6.698, "note_off_time": 7.142}, {"pitch": 76, "velocity": 64, "note_on_time": 7.07, "note_off_time": 7.483}, {"pitch": 77, "velocity": 55, "note_on_time": 7.358, "note_off_time": 7.854}, {"pitch": 79, "velocity": 69, "note_on_time": 7.92, "note_off_time": 8.511}, {"pitch": 77, "velocity": 1, "note_on_time": 8.867, "note_off_time": 9.135}, {"pitch": 77, "velocity": 28, "note_on_time": 9.527, "note_off_time": 9.845}, {"pitch": 76, "velocity": 74, "note_on_time": 9.742, "note_off_time": 10.754}, {"pitch": 74, "velocity": 73, "note_on_time": 10.321, "note_off_time": 11.648}, {"pitch": 72, "velocity": 56, "note_on_time": 12.212, "note_off_time": 12.906}, {"pitch": 79, "velocity": 62, "note_on_time": 13.127, "note_off_time": 13.34}, {"pitch": 72, "velocity": 69, "note_on_time": 13.338, "note_off_time": 13.795}, {"pitch": 72, "velocity": 60, "note_on_time": 14.593, "note_off_time": 15.267}, {"pitch": 74, "velocity": 57, "note_on_time": 15.21, "note_off_time": 15.841}, {"pitch": 76, "velocity": 58, "note_on_time": 15.78, "note_off_time": 16.426}, {"pitch": 77, "velocity": 34, "note_on_time": 16.344, "note_off_time": 17.013}, {"pitch": 79, "velocity": 67, "note_on_time": 16.979, "note_off_time": 17.717}, {"pitch": 79, "velocity": 1, "note_on_time": 18.115, "note_off_time": 18.268}, {"pitch": 79, "velocity": 52, "note_on_time": 18.705, "note_off_time": 19.32}, {"pitch": 77, "velocity": 60, "note_on_time": 18.969, "note_off_time": 19.345}, {"pitch": 76, "velocity": 48, "note_on_time": 19.314, "note_off_time": 19.698}, {"pitch": 74, "velocity": 66, "note_on_time": 19.562, "note_off_time": 20.592}, {"pitch": 77, "velocity": 58, "note_on_time": 21.044, "note_off_time": 21.313}, {"pitch": 76, "velocity": 57, "note_on_time": 21.231, "note_off_time": 21.793}, {"pitch": 74, "velocity": 52, "note_on_time": 21.607, "note_off_time": 21.89}, {"pitch": 72, "velocity": 68, "note_on_time": 21.855, "note_off_time": 23.459}, {"pitch": 72, "velocity": 59, "note_on_time": 24.567, "note_off_time": 25.086}, {"pitch": 74, "velocity": 38, "note_on_time": 25.583, "note_off_time": 26.748}, {"pitch": 72, "velocity": 28, "note_on_time": 27.118, "note_off_time": 27.397}, {"pitch": 76, "velocity": 64, "note_on_time": 27.267, "note_off_time": 27.583}, {"pitch": 79, "velocity": 56, "note_on_time": 27.948, "note_off_time": 29.332}, {"pitch": 79, "velocity": 55, "note_on_time": 29.813, "note_off_time": 30.369}, {"pitch": 72, "velocity": 61, "note_on_time": 30.374, "note_off_time": 30.747}, {"pitch": 77, "velocity": 62, "note_on_time": 31.378, "note_off_time": 31.646}, {"pitch": 72, "velocity": 57, "note_on_time": 31.586, "note_off_time": 32.112}, {"pitch": 76, "velocity": 46, "note_on_time": 32.613, "note_off_time": 32.866}, {"pitch": 72, "velocity": 62, "note_on_time": 32.822, "note_off_time": 33.352}, {"pitch": 74, "velocity": 58, "note_on_time": 33.811, "note_off_time": 34.134}, {"pitch": 72, "velocity": 54, "note_on_time": 34.023, "note_off_time": 35.366}, {"pitch": 72, "velocity": 52, "note_on_time": 36.493, "note_off_time": 37.292}, {"pitch": 76, "velocity": 46, "note_on_time": 37.641, "note_off_time": 38.65}, {"pitch": 74, "velocity": 52, "note_on_time": 39.3, "note_off_time": 39.639}, {"pitch": 76, "velocity": 38, "note_on_time": 39.874, "note_off_time": 40.148}, {"pitch": 77, "velocity": 56, "note_on_time": 40.108, "note_off_time": 40.465}, {"pitch": 79, "velocity": 45, "note_on_time": 40.704, "note_off_time": 41.541}, {"pitch": 79, "velocity": 62, "note_on_time": 41.935, "note_off_time": 42.236}, {"pitch": 76, "velocity": 49, "note_on_time": 42.518, "note_off_time": 42.781}, {"pitch": 72, "velocity": 59, "note_on_time": 43.092, "note_off_time": 43.806}, {"pitch": 74, "velocity": 53, "note_on_time": 44.418, "note_off_time": 44.723}, {"pitch": 77, "velocity": 48, "note_on_time": 44.971, "note_off_time": 46.217}, {"pitch": 77, "velocity": 54, "note_on_time": 46.584, "note_off_time": 46.759}, {"pitch": 76, "velocity": 32, "note_on_time": 46.767, "note_off_time": 46.981}, {"pitch": 74, "velocity": 49, "note_on_time": 47.146, "note_off_time": 47.299}, {"pitch": 72, "velocity": 51, "note_on_time": 47.405, "note_off_time": 48.322}, {"pitch": 72, "velocity": 53, "note_on_time": 48.652, "note_off_time": 49.405}, {"pitch": 79, "velocity": 60, "note_on_time": 50.477, "note_off_time": 50.984}, {"pitch": 72, "velocity": 32, "note_on_time": 51.094, "note_off_time": 53.296}, {"pitch": 72, "velocity": 52, "note_on_time": 54.116, "note_off_time": 54.956}, {"pitch": 72, "velocity": 51, "note_on_time": 55.942, "note_off_time": 57.041}, {"pitch": 74, "velocity": 55, "note_on_time": 56.502, "note_off_time": 57.044}, {"pitch": 76, "velocity": 29, "note_on_time": 57.067, "note_off_time": 57.8}, {"pitch": 74, "velocity": 47, "note_on_time": 58.944, "note_off_time": 59.427}, {"pitch": 76, "velocity": 29, "note_on_time": 59.383, "note_off_time": 59.79}, {"pitch": 77, "velocity": 64, "note_on_time": 59.758, "note_off_time": 60.176}, {"pitch": 76, "velocity": 48, "note_on_time": 61.007, "note_off_time": 61.817}, {"pitch": 77, "velocity": 56, "note_on_time": 61.397, "note_off_time": 61.885}, {"pitch": 79, "velocity": 47, "note_on_time": 61.825, "note_off_time": 62.69}, {"pitch": 72, "velocity": 56, "note_on_time": 63.259, "note_off_time": 64.062}, {"pitch": 77, "velocity": 61, "note_on_time": 64.53, "note_off_time": 65.074}, {"pitch": 77, "velocity": 46, "note_on_time": 65.462, "note_off_time": 65.883}, {"pitch": 76, "velocity": 23, "note_on_time": 65.633, "note_off_time": 66.06}, {"pitch": 74, "velocity": 51, "note_on_time": 65.919, "note_off_time": 66.39}, {"pitch": 72, "velocity": 68, "note_on_time": 66.336, "note_off_time": 67.11}, {"pitch": 79, "velocity": 30, "note_on_time": 68.407, "note_off_time": 68.781}, {"pitch": 77, "velocity": 42, "note_on_time": 68.618, "note_off_time": 69.042}, {"pitch": 76, "velocity": 40, "note_on_time": 68.953, "note_off_time": 69.387}, {"pitch": 74, "velocity": 51, "note_on_time": 69.199, "note_off_time": 70.209}, {"pitch": 72, "velocity": 49, "note_on_time": 70.464, "note_off_time": 71.257}, {"pitch": 72, "velocity": 57, "note_on_time": 71.554, "note_off_time": 71.651}, {"pitch": 72, "velocity": 52, "note_on_time": 71.757, "note_off_time": 72.508}, {"pitch": 72, "velocity": 65, "note_on_time": 73.019, "note_off_time": 73.794}, {"pitch": 76, "velocity": 57, "note_on_time": 74.562, "note_off_time": 74.857}, {"pitch": 77, "velocity": 52, "note_on_time": 74.793, "note_off_time": 74.999}, {"pitch": 76, "velocity": 52, "note_on_time": 75.201, "note_off_time": 75.494}, {"pitch": 74, "velocity": 57, "note_on_time": 75.439, "note_off_time": 75.816}, {"pitch": 72, "velocity": 64, "note_on_time": 76.381, "note_off_time": 76.638}, {"pitch": 79, "velocity": 70, "note_on_time": 77.004, "note_off_time": 78.086}, {"pitch": 79, "velocity": 48, "note_on_time": 78.84, "note_off_time": 79.237}, {"pitch": 77, "velocity": 42, "note_on_time": 79.436, "note_off_time": 79.682}, {"pitch": 76, "velocity": 48, "note_on_time": 79.617, "note_off_time": 80.049}, {"pitch": 74, "velocity": 47, "note_on_time": 80.042, "note_off_time": 80.127}, {"pitch": 77, "velocity": 50, "note_on_time": 80.24, "note_off_time": 80.774}, {"pitch": 79, "velocity": 59, "note_on_time": 80.78, "note_off_time": 81.336}, {"pitch": 79, "velocity": 58, "note_on_time": 83.107, "note_off_time": 83.424}, {"pitch": 77, "velocity": 56, "note_on_time": 83.829, "note_off_time": 84.653}, {"pitch": 76, "velocity": 49, "note_on_time": 85.11, "note_off_time": 85.606}, {"pitch": 74, "velocity": 66, "note_on_time": 86.11, "note_off_time": 87.331}, {"pitch": 77, "velocity": 60, "note_on_time": 88.179, "note_off_time": 88.514}, {"pitch": 76, "velocity": 45, "note_on_time": 88.753, "note_off_time": 89.123}, {"pitch": 74, "velocity": 53, "note_on_time": 89.311, "note_off_time": 89.63}, {"pitch": 72, "velocity": 46, "note_on_time": 89.961, "note_off_time": 91.21}, {"pitch": 72, "velocity": 57, "note_on_time": 91.883, "note_off_time": 92.295}, {"pitch": 76, "velocity": 22, "note_on_time": 92.896, "note_off_time": 93.854}, {"pitch": 72, "velocity": 49, "note_on_time": 94.332, "note_off_time": 94.598}, {"pitch": 77, "velocity": 57, "note_on_time": 94.878, "note_off_time": 95.95}, {"pitch": 72, "velocity": 55, "note_on_time": 97.302, "note_off_time": 97.684}, {"pitch": 79, "velocity": 51, "note_on_time": 97.919, "note_off_time": 98.125}, {"pitch": 74, "velocity": 56, "note_on_time": 98.533, "note_off_time": 98.765}, {"pitch": 77, "velocity": 35, "note_on_time": 99.093, "note_off_time": 99.365}, {"pitch": 76, "velocity": 61, "note_on_time": 99.688, "note_off_time": 101.431}, {"pitch": 72, "velocity": 56, "note_on_time": 102.217, "note_off_time": 102.603}, {"pitch": 79, "velocity": 56, "note_on_time": 103.11, "note_off_time": 103.607}, {"pitch": 77, "velocity": 50, "note_on_time": 104.01, "note_off_time": 104.225}, {"pitch": 76, "velocity": 52, "note_on_time": 104.401, "note_off_time": 104.647}, {"pitch": 74, "velocity": 57, "note_on_time": 104.618, "note_off_time": 105.187}, {"pitch": 79, "velocity": 51, "note_on_time": 105.511, "note_off_time": 106.011}, {"pitch": 77, "velocity": 46, "note_on_time": 106.463, "note_off_time": 106.711}, {"pitch": 76, "velocity": 46, "note_on_time": 106.833, "note_off_time": 107.051}, {"pitch": 74, "velocity": 52, "note_on_time": 107.075, "note_off_time": 107.277}, {"pitch": 76, "velocity": 52, "note_on_time": 107.591, "note_off_time": 107.913}, {"pitch": 77, "velocity": 39, "note_on_time": 108.183, "note_off_time": 108.512}, {"pitch": 79, "velocity": 52, "note_on_time": 108.775, "note_off_time": 109.141}, {"pitch": 72, "velocity": 62, "note_on_time": 109.445, "note_off_time": 110.287}, {"pitch": 74, "velocity": 52, "note_on_time": 110.778, "note_off_time": 111.534}, {"pitch": 77, "velocity": 43, "note_on_time": 111.897, "note_off_time": 112.31}, {"pitch": 79, "velocity": 52, "note_on_time": 112.553, "note_off_time": 112.874}, {"pitch": 77, "velocity": 38, "note_on_time": 113.55, "note_off_time": 113.826}, {"pitch": 76, "velocity": 41, "note_on_time": 113.854, "note_off_time": 114.061}, {"pitch": 74, "velocity": 58, "note_on_time": 114.226, "note_off_time": 114.855}, {"pitch": 72, "velocity": 59, "note_on_time": 116.817, "note_off_time": 117.195}, {"pitch": 76, "velocity": 57, "note_on_time": 117.387, "note_off_time": 117.688}, {"pitch": 79, "velocity": 61, "note_on_time": 117.944, "note_off_time": 118.762}, {"pitch": 79, "velocity": 46, "note_on_time": 119.185, "note_off_time": 119.583}, {"pitch": 76, "velocity": 47, "note_on_time": 119.809, "note_off_time": 120.135}, {"pitch": 72, "velocity": 61, "note_on_time": 120.424, "note_off_time": 120.92}, {"pitch": 74, "velocity": 47, "note_on_time": 121.019, "note_off_time": 121.564}, {"pitch": 72, "velocity": 39, "note_on_time": 121.601, "note_off_time": 122.367}, {"pitch": 72, "velocity": 52, "note_on_time": 122.641, "note_off_time": 122.913}, {"pitch": 74, "velocity": 47, "note_on_time": 122.891, "note_off_time": 123.101}, {"pitch": 79, "velocity": 54, "note_on_time": 123.834, "note_off_time": 124.792}, {"pitch": 77, "velocity": 63, "note_on_time": 125.116, "note_off_time": 125.95}, {"pitch": 79, "velocity": 49, "note_on_time": 126.471, "note_off_time": 127.161}, {"pitch": 76, "velocity": 45, "note_on_time": 127.534, "note_off_time": 128.631}, {"pitch": 79, "velocity": 49, "note_on_time": 128.966, "note_off_time": 129.69}, {"pitch": 74, "velocity": 62, "note_on_time": 129.92, "note_off_time": 130.894}, {"pitch": 72, "velocity": 39, "note_on_time": 131.43, "note_off_time": 132.893}, {"pitch": 79, "velocity": 48, "note_on_time": 133.796, "note_off_time": 134.082}, {"pitch": 79, "velocity": 66, "note_on_time": 134.176, "note_off_time": 134.259}, {"pitch": 79, "velocity": 51, "note_on_time": 134.374, "note_off_time": 135.074}, {"pitch": 79, "velocity": 57, "note_on_time": 135.433, "note_off_time": 135.775}, {"pitch": 76, "velocity": 45, "note_on_time": 136.034, "note_off_time": 136.348}, {"pitch": 74, "velocity": 47, "note_on_time": 136.296, "note_off_time": 136.896}, {"pitch": 77, "velocity": 54, "note_on_time": 137.394, "note_off_time": 137.832}, {"pitch": 79, "velocity": 58, "note_on_time": 138.112, "note_off_time": 138.532}, {"pitch": 74, "velocity": 55, "note_on_time": 139.138, "note_off_time": 139.558}, {"pitch": 72, "velocity": 57, "note_on_time": 139.77, "note_off_time": 140.227}, {"pitch": 79, "velocity": 60, "note_on_time": 142.304, "note_off_time": 143.682}, {"pitch": 72, "velocity": 43, "note_on_time": 144.135, "note_off_time": 144.474}, {"pitch": 72, "velocity": 51, "note_on_time": 144.736, "note_off_time": 145.504}, {"pitch": 72, "velocity": 60, "note_on_time": 146.001, "note_off_time": 146.62}, {"pitch": 74, "velocity": 62, "note_on_time": 146.995, "note_off_time": 147.08}, {"pitch": 74, "velocity": 55, "note_on_time": 147.205, "note_off_time": 147.596}, {"pitch": 76, "velocity": 40, "note_on_time": 147.735, "note_off_time": 148.797}, {"pitch": 77, "velocity": 1, "note_on_time": 149.54, "note_off_time": 149.788}, {"pitch": 74, "velocity": 50, "note_on_time": 150.27, "note_off_time": 150.522}, {"pitch": 72, "velocity": 58, "note_on_time": 150.841, "note_off_time": 151.645}, {"pitch": 79, "velocity": 65, "note_on_time": 151.893, "note_off_time": 152.204}, {"pitch": 77, "velocity": 33, "note_on_time": 152.174, "note_off_time": 152.61}, {"pitch": 76, "velocity": 42, "note_on_time": 152.731, "note_off_time": 153.339}, {"pitch": 74, "velocity": 61, "note_on_time": 153.311, "note_off_time": 153.958}, {"pitch": 76, "velocity": 52, "note_on_time": 154.26, "note_off_time": 155.342}, {"pitch": 79, "velocity": 38, "note_on_time": 156.663, "note_off_time": 156.986}, {"pitch": 77, "velocity": 66, "note_on_time": 156.926, "note_off_time": 157.338}, {"pitch": 74, "velocity": 38, "note_on_time": 157.61, "note_off_time": 157.664}, {"pitch": 76, "velocity": 2, "note_on_time": 157.506, "note_off_time": 157.92}, {"pitch": 76, "velocity": 50, "note_on_time": 158.148, "note_off_time": 158.481}, {"pitch": 74, "velocity": 64, "note_on_time": 158.675, "note_off_time": 159.249}, {"pitch": 72, "velocity": 46, "note_on_time": 159.594, "note_off_time": 160.868}, {"pitch": 72, "velocity": 41, "note_on_time": 161.303, "note_off_time": 161.654}, {"pitch": 76, "velocity": 52, "note_on_time": 161.857, "note_off_time": 163.252}, {"pitch": 72, "velocity": 40, "note_on_time": 163.591, "note_off_time": 163.959}, {"pitch": 77, "velocity": 46, "note_on_time": 164.236, "note_off_time": 164.499}, {"pitch": 79, "velocity": 53, "note_on_time": 164.816, "note_off_time": 165.933}, {"pitch": 79, "velocity": 64, "note_on_time": 166.407, "note_off_time": 166.975}, {"pitch": 77, "velocity": 45, "note_on_time": 167.285, "note_off_time": 167.492}, {"pitch": 76, "velocity": 53, "note_on_time": 167.837, "note_off_time": 168.163}, {"pitch": 74, "velocity": 65, "note_on_time": 168.494, "note_off_time": 168.793}, {"pitch": 74, "velocity": 51, "note_on_time": 169.079, "note_off_time": 169.748}, {"pitch": 76, "velocity": 46, "note_on_time": 170.08, "note_off_time": 170.354}, {"pitch": 77, "velocity": 54, "note_on_time": 170.342, "note_off_time": 170.759}, {"pitch": 79, "velocity": 67, "note_on_time": 170.88, "note_off_time": 171.648}, {"pitch": 77, "velocity": 27, "note_on_time": 171.758, "note_off_time": 172.012}, {"pitch": 76, "velocity": 54, "note_on_time": 171.996, "note_off_time": 172.441}, {"pitch": 74, "velocity": 56, "note_on_time": 172.378, "note_off_time": 172.667}, {"pitch": 72, "velocity": 62, "note_on_time": 172.646, "note_off_time": 173.892}, {"pitch": 72, "velocity": 47, "note_on_time": 175.154, "note_off_time": 176.626}, {"pitch": 74, "velocity": 59, "note_on_time": 176.207, "note_off_time": 177.181}, {"pitch": 76, "velocity": 50, "note_on_time": 177.742, "note_off_time": 178.433}, {"pitch": 72, "velocity": 63, "note_on_time": 178.635, "note_off_time": 179.642}, {"pitch": 72, "velocity": 54, "note_on_time": 180.09, "note_off_time": 181.007}, {"pitch": 76, "velocity": 54, "note_on_time": 181.015, "note_off_time": 181.916}, {"pitch": 79, "velocity": 61, "note_on_time": 182.473, "note_off_time": 183.147}, {"pitch": 76, "velocity": 46, "note_on_time": 183.421, "note_off_time": 184.478}, {"pitch": 74, "velocity": 50, "note_on_time": 184.954, "note_off_time": 185.448}, {"pitch": 72, "velocity": 45, "note_on_time": 185.899, "note_off_time": 186.817}, {"pitch": 74, "velocity": 51, "note_on_time": 187.461, "note_off_time": 188.052}, {"pitch": 76, "velocity": 51, "note_on_time": 188.309, "note_off_time": 189.498}, {"pitch": 72, "velocity": 56, "note_on_time": 189.842, "note_off_time": 191.66}, {"pitch": 79, "velocity": 44, "note_on_time": 191.982, "note_off_time": 192.181}, {"pitch": 72, "velocity": 71, "note_on_time": 192.156, "note_off_time": 194.588}]</notes><guidance name="Guidance Mode">None</guidance><error name="Error value">99</error></trial></trials></MIDI>