<MIDI midiNo="2024_03_04-17_14_19"><target_notes><notes name="Note List">[{"pitch": 60, "velocity": 40, "note_on_time": 0.01, "note_off_time": 1.026}, {"pitch": 64, "velocity": 40, "note_on_time": 0.01, "note_off_time": 1.027}, {"pitch": 67, "velocity": 40, "note_on_time": 0.01, "note_off_time": 1.027}, {"pitch": 48, "velocity": 40, "note_on_time": 0.01, "note_off_time": 1.027}, {"pitch": 52, "velocity": 40, "note_on_time": 1.027, "note_off_time": 2.041}, {"pitch": 55, "velocity": 40, "note_on_time": 1.027, "note_off_time": 2.041}, {"pitch": 76, "velocity": 40, "note_on_time": 2.04, "note_off_time": 3.045}, {"pitch": 48, "velocity": 40, "note_on_time": 2.041, "note_off_time": 3.046}, {"pitch": 52, "velocity": 40, "note_on_time": 3.046, "note_off_time": 4.047}, {"pitch": 55, "velocity": 40, "note_on_time": 3.046, "note_off_time": 4.047}, {"pitch": 48, "velocity": 40, "note_on_time": 4.047, "note_off_time": 5.048}, {"pitch": 52, "velocity": 40, "note_on_time": 5.048, "note_off_time": 6.049}, {"pitch": 55, "velocity": 40, "note_on_time": 5.048, "note_off_time": 6.049}, {"pitch": 48, "velocity": 40, "note_on_time": 6.049, "note_off_time": 7.063}, {"pitch": 52, "velocity": 40, "note_on_time": 7.063, "note_off_time": 8.07}, {"pitch": 55, "velocity": 40, "note_on_time": 7.063, "note_off_time": 8.07}, {"pitch": 60, "velocity": 40, "note_on_time": 8.068, "note_off_time": 9.086}, {"pitch": 64, "velocity": 40, "note_on_time": 8.069, "note_off_time": 9.087}, {"pitch": 67, "velocity": 40, "note_on_time": 8.07, "note_off_time": 9.087}, {"pitch": 48, "velocity": 40, "note_on_time": 8.07, "note_off_time": 9.087}, {"pitch": 52, "velocity": 40, "note_on_time": 9.087, "note_off_time": 10.099}, {"pitch": 55, "velocity": 40, "note_on_time": 9.087, "note_off_time": 10.099}, {"pitch": 79, "velocity": 40, "note_on_time": 10.098, "note_off_time": 11.1}, {"pitch": 48, "velocity": 40, "note_on_time": 10.099, "note_off_time": 11.101}, {"pitch": 52, "velocity": 40, "note_on_time": 11.101, "note_off_time": 12.111}, {"pitch": 55, "velocity": 40, "note_on_time": 11.101, "note_off_time": 12.111}, {"pitch": 48, "velocity": 40, "note_on_time": 12.111, "note_off_time": 13.127}, {"pitch": 52, "velocity": 40, "note_on_time": 13.127, "note_off_time": 14.13}, {"pitch": 55, "velocity": 40, "note_on_time": 13.127, "note_off_time": 14.13}, {"pitch": 48, "velocity": 40, "note_on_time": 14.13, "note_off_time": 15.137}, {"pitch": 52, "velocity": 40, "note_on_time": 15.137, "note_off_time": 16.155}, {"pitch": 55, "velocity": 40, "note_on_time": 15.137, "note_off_time": 16.155}, {"pitch": 60, "velocity": 40, "note_on_time": 16.154, "note_off_time": 17.162}, {"pitch": 64, "velocity": 40, "note_on_time": 16.154, "note_off_time": 17.163}, {"pitch": 67, "velocity": 40, "note_on_time": 16.155, "note_off_time": 17.163}, {"pitch": 48, "velocity": 40, "note_on_time": 16.155, "note_off_time": 17.163}, {"pitch": 52, "velocity": 40, "note_on_time": 17.163, "note_off_time": 18.174}, {"pitch": 55, "velocity": 40, "note_on_time": 17.163, "note_off_time": 18.174}, {"pitch": 72, "velocity": 40, "note_on_time": 18.174, "note_off_time": 19.182}, {"pitch": 48, "velocity": 40, "note_on_time": 18.174, "note_off_time": 19.183}, {"pitch": 52, "velocity": 40, "note_on_time": 19.183, "note_off_time": 20.199}, {"pitch": 55, "velocity": 40, "note_on_time": 19.183, "note_off_time": 20.199}, {"pitch": 48, "velocity": 40, "note_on_time": 20.199, "note_off_time": 21.201}, {"pitch": 52, "velocity": 40, "note_on_time": 21.201, "note_off_time": 22.21}, {"pitch": 55, "velocity": 40, "note_on_time": 21.201, "note_off_time": 22.21}, {"pitch": 48, "velocity": 40, "note_on_time": 22.21, "note_off_time": 23.213}, {"pitch": 52, "velocity": 40, "note_on_time": 23.213, "note_off_time": 24.226}, {"pitch": 55, "velocity": 40, "note_on_time": 23.213, "note_off_time": 24.226}, {"pitch": 60, "velocity": 40, "note_on_time": 24.224, "note_off_time": 25.238}, {"pitch": 64, "velocity": 40, "note_on_time": 24.225, "note_off_time": 25.239}, {"pitch": 67, "velocity": 40, "note_on_time": 24.226, "note_off_time": 25.239}, {"pitch": 48, "velocity": 40, "note_on_time": 24.226, "note_off_time": 25.24}, {"pitch": 52, "velocity": 40, "note_on_time": 25.24, "note_off_time": 26.246}, {"pitch": 55, "velocity": 40, "note_on_time": 25.24, "note_off_time": 26.246}, {"pitch": 79, "velocity": 40, "note_on_time": 26.245, "note_off_time": 27.261}, {"pitch": 48, "velocity": 40, "note_on_time": 26.246, "note_off_time": 27.262}, {"pitch": 52, "velocity": 40, "note_on_time": 27.262, "note_off_time": 28.263}, {"pitch": 55, "velocity": 40, "note_on_time": 27.262, "note_off_time": 28.263}, {"pitch": 48, "velocity": 40, "note_on_time": 28.263, "note_off_time": 29.27}, {"pitch": 52, "velocity": 40, "note_on_time": 29.27, "note_off_time": 30.285}, {"pitch": 55, "velocity": 40, "note_on_time": 29.27, "note_off_time": 30.285}, {"pitch": 48, "velocity": 40, "note_on_time": 30.285, "note_off_time": 31.299}, {"pitch": 52, "velocity": 40, "note_on_time": 31.299, "note_off_time": 32.304}, {"pitch": 55, "velocity": 40, "note_on_time": 31.299, "note_off_time": 32.305}, {"pitch": 60, "velocity": 40, "note_on_time": 32.303, "note_off_time": 33.307}, {"pitch": 64, "velocity": 40, "note_on_time": 32.304, "note_off_time": 33.308}, {"pitch": 67, "velocity": 40, "note_on_time": 32.304, "note_off_time": 33.309}, {"pitch": 48, "velocity": 40, "note_on_time": 32.305, "note_off_time": 33.309}, {"pitch": 52, "velocity": 40, "note_on_time": 33.309, "note_off_time": 34.322}, {"pitch": 55, "velocity": 40, "note_on_time": 33.309, "note_off_time": 34.323}, {"pitch": 72, "velocity": 40, "note_on_time": 34.322, "note_off_time": 35.333}, {"pitch": 48, "velocity": 40, "note_on_time": 34.323, "note_off_time": 35.333}, {"pitch": 52, "velocity": 40, "note_on_time": 35.333, "note_off_time": 36.34}, {"pitch": 55, "velocity": 40, "note_on_time": 35.333, "note_off_time": 36.34}, {"pitch": 48, "velocity": 40, "note_on_time": 36.34, "note_off_time": 37.348}, {"pitch": 52, "velocity": 40, "note_on_time": 37.348, "note_off_time": 38.362}, {"pitch": 55, "velocity": 40, "note_on_time": 37.348, "note_off_time": 38.362}, {"pitch": 48, "velocity": 40, "note_on_time": 38.362, "note_off_time": 39.373}, {"pitch": 52, "velocity": 40, "note_on_time": 39.373, "note_off_time": 40.377}, {"pitch": 55, "velocity": 40, "note_on_time": 39.373, "note_off_time": 40.377}, {"pitch": 60, "velocity": 40, "note_on_time": 40.375, "note_off_time": 41.391}, {"pitch": 64, "velocity": 40, "note_on_time": 40.376, "note_off_time": 41.392}, {"pitch": 67, "velocity": 40, "note_on_time": 40.376, "note_off_time": 41.393}, {"pitch": 79, "velocity": 40, "note_on_time": 42.395, "note_off_time": 43.398}, {"pitch": 60, "velocity": 40, "note_on_time": 48.411, "note_off_time": 49.414}, {"pitch": 64, "velocity": 40, "note_on_time": 48.413, "note_off_time": 49.415}, {"pitch": 67, "velocity": 40, "note_on_time": 48.413, "note_off_time": 49.415}, {"pitch": 77, "velocity": 40, "note_on_time": 50.426, "note_off_time": 51.437}, {"pitch": 60, "velocity": 40, "note_on_time": 56.441, "note_off_time": 57.458}, {"pitch": 64, "velocity": 40, "note_on_time": 56.442, "note_off_time": 57.458}, {"pitch": 67, "velocity": 40, "note_on_time": 56.443, "note_off_time": 57.459}, {"pitch": 79, "velocity": 40, "note_on_time": 58.471, "note_off_time": 59.484}, {"pitch": 60, "velocity": 40, "note_on_time": 64.499, "note_off_time": 65.512}, {"pitch": 64, "velocity": 40, "note_on_time": 64.499, "note_off_time": 65.512}, {"pitch": 67, "velocity": 40, "note_on_time": 64.5, "note_off_time": 65.513}, {"pitch": 76, "velocity": 40, "note_on_time": 66.528, "note_off_time": 67.542}, {"pitch": 60, "velocity": 40, "note_on_time": 72.556, "note_off_time": 73.564}, {"pitch": 64, "velocity": 40, "note_on_time": 72.557, "note_off_time": 73.564}, {"pitch": 67, "velocity": 40, "note_on_time": 72.557, "note_off_time": 73.565}, {"pitch": 74, "velocity": 40, "note_on_time": 74.573, "note_off_time": 75.575}, {"pitch": 60, "velocity": 40, "note_on_time": 80.584, "note_off_time": 81.6}, {"pitch": 64, "velocity": 40, "note_on_time": 80.584, "note_off_time": 81.601}, {"pitch": 67, "velocity": 40, "note_on_time": 80.585, "note_off_time": 81.602}, {"pitch": 77, "velocity": 40, "note_on_time": 82.616, "note_off_time": 83.622}, {"pitch": 60, "velocity": 40, "note_on_time": 88.626, "note_off_time": 89.63}, {"pitch": 64, "velocity": 40, "note_on_time": 88.626, "note_off_time": 89.631}, {"pitch": 67, "velocity": 40, "note_on_time": 88.627, "note_off_time": 89.631}, {"pitch": 74, "velocity": 40, "note_on_time": 90.645, "note_off_time": 91.65}, {"pitch": 60, "velocity": 40, "note_on_time": 96.654, "note_off_time": 97.67}, {"pitch": 64, "velocity": 40, "note_on_time": 96.655, "note_off_time": 97.671}, {"pitch": 67, "velocity": 40, "note_on_time": 96.655, "note_off_time": 97.671}, {"pitch": 72, "velocity": 40, "note_on_time": 98.677, "note_off_time": 99.685}, {"pitch": 60, "velocity": 40, "note_on_time": 104.694, "note_off_time": 105.699}, {"pitch": 64, "velocity": 40, "note_on_time": 104.695, "note_off_time": 105.7}, {"pitch": 67, "velocity": 40, "note_on_time": 104.695, "note_off_time": 105.7}, {"pitch": 76, "velocity": 40, "note_on_time": 106.717, "note_off_time": 107.732}, {"pitch": 60, "velocity": 40, "note_on_time": 112.745, "note_off_time": 113.754}, {"pitch": 64, "velocity": 40, "note_on_time": 112.745, "note_off_time": 113.754}, {"pitch": 67, "velocity": 40, "note_on_time": 112.745, "note_off_time": 113.755}, {"pitch": 72, "velocity": 40, "note_on_time": 114.771, "note_off_time": 115.776}, {"pitch": 60, "velocity": 40, "note_on_time": 120.778, "note_off_time": 121.789}, {"pitch": 64, "velocity": 40, "note_on_time": 120.779, "note_off_time": 121.79}, {"pitch": 67, "velocity": 40, "note_on_time": 120.779, "note_off_time": 121.791}, {"pitch": 77, "velocity": 40, "note_on_time": 122.805, "note_off_time": 123.807}, {"pitch": 60, "velocity": 40, "note_on_time": 128.814, "note_off_time": 129.829}, {"pitch": 64, "velocity": 40, "note_on_time": 128.814, "note_off_time": 129.83}, {"pitch": 67, "velocity": 40, "note_on_time": 128.815, "note_off_time": 129.83}, {"pitch": 76, "velocity": 40, "note_on_time": 130.84, "note_off_time": 131.855}, {"pitch": 60, "velocity": 40, "note_on_time": 136.857, "note_off_time": 137.871}, {"pitch": 64, "velocity": 40, "note_on_time": 136.858, "note_off_time": 137.872}, {"pitch": 67, "velocity": 40, "note_on_time": 136.859, "note_off_time": 137.872}, {"pitch": 74, "velocity": 40, "note_on_time": 138.875, "note_off_time": 139.881}, {"pitch": 60, "velocity": 40, "note_on_time": 144.883, "note_off_time": 145.899}, {"pitch": 64, "velocity": 40, "note_on_time": 144.884, "note_off_time": 145.9}, {"pitch": 67, "velocity": 40, "note_on_time": 144.884, "note_off_time": 145.901}, {"pitch": 77, "velocity": 40, "note_on_time": 146.915, "note_off_time": 147.919}, {"pitch": 60, "velocity": 40, "note_on_time": 152.93, "note_off_time": 153.946}, {"pitch": 64, "velocity": 40, "note_on_time": 152.931, "note_off_time": 153.947}, {"pitch": 67, "velocity": 40, "note_on_time": 152.932, "note_off_time": 153.948}, {"pitch": 74, "velocity": 40, "note_on_time": 154.95, "note_off_time": 155.953}, {"pitch": 60, "velocity": 40, "note_on_time": 160.959, "note_off_time": 161.972}, {"pitch": 64, "velocity": 40, "note_on_time": 160.959, "note_off_time": 161.973}, {"pitch": 67, "velocity": 40, "note_on_time": 160.96, "note_off_time": 161.973}, {"pitch": 76, "velocity": 40, "note_on_time": 162.986, "note_off_time": 163.991}]</notes><options name="Option List">((4, 4), [0.5, 0.25], 3, 8, &lt;NoteRangePerHand.TWO_NOTES: 3&gt;, &lt;NoteRangePerHand.ONE_NOTE: 2&gt;, False, True, True, 100)</options></target_notes><trials><trial trial_no="1" timestamp="2024_03_04-17_11_35"><notes name="Played Notes">[{"pitch": 79, "velocity": 63, "note_on_time": 4.695, "note_off_time": 6.079}, {"pitch": 79, "velocity": 49, "note_on_time": 13.414, "note_off_time": 14.985}, {"pitch": 77, "velocity": 41, "note_on_time": 20.127, "note_off_time": 21.246}, {"pitch": 76, "velocity": 48, "note_on_time": 21.886, "note_off_time": 22.99}, {"pitch": 74, "velocity": 51, "note_on_time": 28.331, "note_off_time": 29.241}, {"pitch": 72, "velocity": 41, "note_on_time": 30.112, "note_off_time": 30.611}, {"pitch": 79, "velocity": 42, "note_on_time": 31.029, "note_off_time": 31.975}, {"pitch": 72, "velocity": 55, "note_on_time": 36.872, "note_off_time": 37.923}, {"pitch": 79, "velocity": 58, "note_on_time": 44.141, "note_off_time": 45.608}, {"pitch": 77, "velocity": 46, "note_on_time": 51.645, "note_off_time": 53.09}, {"pitch": 77, "velocity": 58, "note_on_time": 59.491, "note_off_time": 60.323}, {"pitch": 79, "velocity": 51, "note_on_time": 60.912, "note_off_time": 62.135}, {"pitch": 77, "velocity": 46, "note_on_time": 68.155, "note_off_time": 69.2}, {"pitch": 74, "velocity": 48, "note_on_time": 69.998, "note_off_time": 71.008}, {"pitch": 76, "velocity": 3, "note_on_time": 71.952, "note_off_time": 72.971}, {"pitch": 77, "velocity": 44, "note_on_time": 77.514, "note_off_time": 78.071}, {"pitch": 76, "velocity": 51, "note_on_time": 78.777, "note_off_time": 79.856}, {"pitch": 79, "velocity": 55, "note_on_time": 84.624, "note_off_time": 85.28}, {"pitch": 76, "velocity": 25, "note_on_time": 85.822, "note_off_time": 87.277}, {"pitch": 74, "velocity": 52, "note_on_time": 91.666, "note_off_time": 93.39}, {"pitch": 76, "velocity": 50, "note_on_time": 100.924, "note_off_time": 101.902}, {"pitch": 77, "velocity": 51, "note_on_time": 102.194, "note_off_time": 103.316}, {"pitch": 72, "velocity": 38, "note_on_time": 103.945, "note_off_time": 105.402}, {"pitch": 77, "velocity": 35, "note_on_time": 109.187, "note_off_time": 110.12}, {"pitch": 74, "velocity": 55, "note_on_time": 110.707, "note_off_time": 112.006}, {"pitch": 72, "velocity": 56, "note_on_time": 115.952, "note_off_time": 117.761}, {"pitch": 79, "velocity": 61, "note_on_time": 125.359, "note_off_time": 126.061}, {"pitch": 77, "velocity": 51, "note_on_time": 126.55, "note_off_time": 127.968}, {"pitch": 79, "velocity": 52, "note_on_time": 133.471, "note_off_time": 134.373}, {"pitch": 77, "velocity": 42, "note_on_time": 134.83, "note_off_time": 136.253}, {"pitch": 72, "velocity": 15, "note_on_time": 136.986, "note_off_time": 137.192}, {"pitch": 76, "velocity": 39, "note_on_time": 142.146, "note_off_time": 143.055}, {"pitch": 72, "velocity": 36, "note_on_time": 143.458, "note_off_time": 144.367}, {"pitch": 79, "velocity": 48, "note_on_time": 148.576, "note_off_time": 150.122}, {"pitch": 74, "velocity": 48, "note_on_time": 156.415, "note_off_time": 158.073}]</notes><guidance name="Guidance Mode">None</guidance><error name="Error value">99</error></trial><trial trial_no="2" timestamp="2024_03_04-17_16_14"><notes name="Played Notes">[{"pitch": 72, "velocity": 58, "note_on_time": 5.0, "note_off_time": 5.287}, {"pitch": 74, "velocity": 59, "note_on_time": 5.273, "note_off_time": 5.562}, {"pitch": 76, "velocity": 56, "note_on_time": 5.588, "note_off_time": 5.933}, {"pitch": 77, "velocity": 62, "note_on_time": 5.854, "note_off_time": 6.161}, {"pitch": 79, "velocity": 61, "note_on_time": 6.138, "note_off_time": 6.685}, {"pitch": 72, "velocity": 42, "note_on_time": 6.707, "note_off_time": 7.199}, {"pitch": 74, "velocity": 40, "note_on_time": 7.095, "note_off_time": 7.387}, {"pitch": 76, "velocity": 45, "note_on_time": 7.367, "note_off_time": 7.791}, {"pitch": 77, "velocity": 44, "note_on_time": 7.711, "note_off_time": 7.963}, {"pitch": 79, "velocity": 42, "note_on_time": 7.977, "note_off_time": 8.432}, {"pitch": 72, "velocity": 30, "note_on_time": 8.561, "note_off_time": 8.879}, {"pitch": 74, "velocity": 59, "note_on_time": 8.876, "note_off_time": 9.272}, {"pitch": 76, "velocity": 49, "note_on_time": 9.219, "note_off_time": 9.628}, {"pitch": 77, "velocity": 48, "note_on_time": 9.542, "note_off_time": 9.837}, {"pitch": 79, "velocity": 64, "note_on_time": 9.834, "note_off_time": 10.221}, {"pitch": 72, "velocity": 58, "note_on_time": 10.349, "note_off_time": 10.767}, {"pitch": 74, "velocity": 61, "note_on_time": 10.736, "note_off_time": 11.046}, {"pitch": 76, "velocity": 64, "note_on_time": 11.029, "note_off_time": 11.389}, {"pitch": 77, "velocity": 55, "note_on_time": 11.321, "note_off_time": 11.637}, {"pitch": 79, "velocity": 70, "note_on_time": 11.6, "note_off_time": 12.037}, {"pitch": 79, "velocity": 57, "note_on_time": 13.465, "note_off_time": 13.739}, {"pitch": 77, "velocity": 61, "note_on_time": 13.727, "note_off_time": 14.107}, {"pitch": 76, "velocity": 52, "note_on_time": 14.031, "note_off_time": 14.45}, {"pitch": 74, "velocity": 66, "note_on_time": 14.346, "note_off_time": 14.677}, {"pitch": 72, "velocity": 72, "note_on_time": 14.628, "note_off_time": 15.336}, {"pitch": 79, "velocity": 67, "note_on_time": 15.273, "note_off_time": 15.774}, {"pitch": 77, "velocity": 36, "note_on_time": 15.563, "note_off_time": 15.965}, {"pitch": 76, "velocity": 52, "note_on_time": 15.863, "note_off_time": 16.268}, {"pitch": 74, "velocity": 50, "note_on_time": 16.194, "note_off_time": 16.503}, {"pitch": 72, "velocity": 73, "note_on_time": 16.473, "note_off_time": 17.115}, {"pitch": 79, "velocity": 66, "note_on_time": 17.107, "note_off_time": 17.691}, {"pitch": 77, "velocity": 55, "note_on_time": 17.418, "note_off_time": 17.736}, {"pitch": 76, "velocity": 54, "note_on_time": 17.69, "note_off_time": 18.069}, {"pitch": 74, "velocity": 58, "note_on_time": 18.048, "note_off_time": 18.347}, {"pitch": 72, "velocity": 68, "note_on_time": 18.33, "note_off_time": 18.984}, {"pitch": 79, "velocity": 59, "note_on_time": 18.9, "note_off_time": 19.548}, {"pitch": 77, "velocity": 5, "note_on_time": 19.295, "note_off_time": 19.634}, {"pitch": 76, "velocity": 57, "note_on_time": 19.592, "note_off_time": 19.899}, {"pitch": 74, "velocity": 63, "note_on_time": 19.864, "note_off_time": 20.21}, {"pitch": 72, "velocity": 68, "note_on_time": 20.153, "note_off_time": 20.795}, {"pitch": 74, "velocity": 68, "note_on_time": 21.994, "note_off_time": 22.523}, {"pitch": 76, "velocity": 58, "note_on_time": 22.274, "note_off_time": 22.746}, {"pitch": 77, "velocity": 62, "note_on_time": 22.561, "note_off_time": 22.981}, {"pitch": 79, "velocity": 64, "note_on_time": 22.863, "note_off_time": 23.143}, {"pitch": 72, "velocity": 63, "note_on_time": 23.175, "note_off_time": 23.867}, {"pitch": 74, "velocity": 62, "note_on_time": 23.828, "note_off_time": 24.186}, {"pitch": 76, "velocity": 62, "note_on_time": 24.076, "note_off_time": 24.401}, {"pitch": 77, "velocity": 64, "note_on_time": 24.379, "note_off_time": 24.706}, {"pitch": 79, "velocity": 69, "note_on_time": 24.66, "note_off_time": 25.025}, {"pitch": 72, "velocity": 74, "note_on_time": 25.003, "note_off_time": 25.659}, {"pitch": 74, "velocity": 55, "note_on_time": 25.558, "note_off_time": 25.939}, {"pitch": 76, "velocity": 57, "note_on_time": 25.86, "note_off_time": 26.33}, {"pitch": 77, "velocity": 65, "note_on_time": 26.159, "note_off_time": 26.655}, {"pitch": 79, "velocity": 52, "note_on_time": 26.437, "note_off_time": 26.733}, {"pitch": 72, "velocity": 66, "note_on_time": 26.736, "note_off_time": 27.438}, {"pitch": 74, "velocity": 52, "note_on_time": 27.353, "note_off_time": 27.784}, {"pitch": 76, "velocity": 60, "note_on_time": 27.73, "note_off_time": 28.11}, {"pitch": 77, "velocity": 59, "note_on_time": 28.052, "note_off_time": 28.463}, {"pitch": 79, "velocity": 56, "note_on_time": 28.354, "note_off_time": 28.697}, {"pitch": 72, "velocity": 65, "note_on_time": 28.671, "note_off_time": 29.44}, {"pitch": 77, "velocity": 62, "note_on_time": 30.442, "note_off_time": 30.817}, {"pitch": 76, "velocity": 58, "note_on_time": 30.712, "note_off_time": 31.181}, {"pitch": 74, "velocity": 62, "note_on_time": 31.032, "note_off_time": 31.406}, {"pitch": 72, "velocity": 62, "note_on_time": 31.329, "note_off_time": 32.114}, {"pitch": 79, "velocity": 61, "note_on_time": 31.661, "note_off_time": 32.266}, {"pitch": 76, "velocity": 38, "note_on_time": 32.303, "note_off_time": 32.464}, {"pitch": 77, "velocity": 1, "note_on_time": 32.422, "note_off_time": 32.629}, {"pitch": 76, "velocity": 60, "note_on_time": 32.61, "note_off_time": 32.985}, {"pitch": 74, "velocity": 59, "note_on_time": 32.911, "note_off_time": 33.224}, {"pitch": 72, "velocity": 65, "note_on_time": 33.192, "note_off_time": 33.573}, {"pitch": 79, "velocity": 65, "note_on_time": 33.504, "note_off_time": 34.371}, {"pitch": 77, "velocity": 45, "note_on_time": 34.083, "note_off_time": 34.451}, {"pitch": 76, "velocity": 60, "note_on_time": 34.384, "note_off_time": 34.804}, {"pitch": 74, "velocity": 60, "note_on_time": 34.683, "note_off_time": 35.085}, {"pitch": 72, "velocity": 65, "note_on_time": 34.992, "note_off_time": 35.325}, {"pitch": 79, "velocity": 70, "note_on_time": 35.307, "note_off_time": 35.764}, {"pitch": 77, "velocity": 63, "note_on_time": 35.888, "note_off_time": 36.262}, {"pitch": 76, "velocity": 63, "note_on_time": 36.211, "note_off_time": 36.552}, {"pitch": 74, "velocity": 63, "note_on_time": 36.511, "note_off_time": 36.845}, {"pitch": 72, "velocity": 54, "note_on_time": 36.83, "note_off_time": 37.199}, {"pitch": 79, "velocity": 61, "note_on_time": 37.152, "note_off_time": 37.79}, {"pitch": 76, "velocity": 59, "note_on_time": 39.01, "note_off_time": 39.581}, {"pitch": 77, "velocity": 56, "note_on_time": 39.287, "note_off_time": 39.844}, {"pitch": 79, "velocity": 56, "note_on_time": 39.622, "note_off_time": 39.974}, {"pitch": 74, "velocity": 60, "note_on_time": 39.927, "note_off_time": 40.348}, {"pitch": 72, "velocity": 70, "note_on_time": 40.21, "note_off_time": 40.599}, {"pitch": 76, "velocity": 60, "note_on_time": 40.797, "note_off_time": 41.267}, {"pitch": 77, "velocity": 64, "note_on_time": 41.113, "note_off_time": 41.626}, {"pitch": 79, "velocity": 59, "note_on_time": 41.43, "note_off_time": 41.772}, {"pitch": 74, "velocity": 66, "note_on_time": 41.726, "note_off_time": 42.131}, {"pitch": 72, "velocity": 69, "note_on_time": 42.007, "note_off_time": 42.602}, {"pitch": 76, "velocity": 69, "note_on_time": 42.633, "note_off_time": 43.054}, {"pitch": 77, "velocity": 59, "note_on_time": 42.931, "note_off_time": 43.439}, {"pitch": 79, "velocity": 61, "note_on_time": 43.272, "note_off_time": 43.637}, {"pitch": 72, "velocity": 69, "note_on_time": 43.846, "note_off_time": 44.456}, {"pitch": 74, "velocity": 60, "note_on_time": 43.555, "note_off_time": 44.463}, {"pitch": 76, "velocity": 74, "note_on_time": 44.473, "note_off_time": 45.066}, {"pitch": 77, "velocity": 54, "note_on_time": 44.767, "note_off_time": 45.184}, {"pitch": 79, "velocity": 64, "note_on_time": 45.071, "note_off_time": 45.438}, {"pitch": 74, "velocity": 57, "note_on_time": 45.39, "note_off_time": 45.766}, {"pitch": 72, "velocity": 72, "note_on_time": 45.69, "note_off_time": 46.73}, {"pitch": 76, "velocity": 57, "note_on_time": 47.533, "note_off_time": 47.944}, {"pitch": 74, "velocity": 64, "note_on_time": 47.799, "note_off_time": 48.333}, {"pitch": 72, "velocity": 70, "note_on_time": 48.11, "note_off_time": 48.577}, {"pitch": 77, "velocity": 63, "note_on_time": 48.414, "note_off_time": 49.079}, {"pitch": 79, "velocity": 59, "note_on_time": 48.728, "note_off_time": 49.196}, {"pitch": 76, "velocity": 60, "note_on_time": 49.324, "note_off_time": 49.698}, {"pitch": 74, "velocity": 58, "note_on_time": 49.616, "note_off_time": 49.961}, {"pitch": 72, "velocity": 61, "note_on_time": 49.915, "note_off_time": 50.379}, {"pitch": 77, "velocity": 64, "note_on_time": 50.254, "note_off_time": 50.975}, {"pitch": 79, "velocity": 66, "note_on_time": 50.551, "note_off_time": 51.068}, {"pitch": 76, "velocity": 48, "note_on_time": 51.12, "note_off_time": 51.589}, {"pitch": 74, "velocity": 58, "note_on_time": 51.472, "note_off_time": 51.812}, {"pitch": 72, "velocity": 69, "note_on_time": 51.761, "note_off_time": 52.069}, {"pitch": 77, "velocity": 34, "note_on_time": 52.077, "note_off_time": 52.411}, {"pitch": 79, "velocity": 70, "note_on_time": 52.351, "note_off_time": 52.71}, {"pitch": 76, "velocity": 47, "note_on_time": 52.943, "note_off_time": 53.395}, {"pitch": 74, "velocity": 58, "note_on_time": 53.262, "note_off_time": 53.582}, {"pitch": 72, "velocity": 66, "note_on_time": 53.527, "note_off_time": 53.991}, {"pitch": 77, "velocity": 59, "note_on_time": 53.885, "note_off_time": 54.318}, {"pitch": 79, "velocity": 67, "note_on_time": 54.227, "note_off_time": 54.791}, {"pitch": 77, "velocity": 57, "note_on_time": 56.043, "note_off_time": 56.748}, {"pitch": 79, "velocity": 65, "note_on_time": 56.364, "note_off_time": 56.782}, {"pitch": 76, "velocity": 58, "note_on_time": 56.689, "note_off_time": 57.25}, {"pitch": 74, "velocity": 63, "note_on_time": 56.99, "note_off_time": 57.42}, {"pitch": 72, "velocity": 72, "note_on_time": 57.289, "note_off_time": 57.953}, {"pitch": 79, "velocity": 60, "note_on_time": 58.222, "note_off_time": 58.476}, {"pitch": 77, "velocity": 56, "note_on_time": 57.879, "note_off_time": 58.547}, {"pitch": 76, "velocity": 62, "note_on_time": 58.505, "note_off_time": 58.839}, {"pitch": 74, "velocity": 62, "note_on_time": 58.762, "note_off_time": 59.218}, {"pitch": 72, "velocity": 66, "note_on_time": 59.072, "note_off_time": 59.656}, {"pitch": 79, "velocity": 46, "note_on_time": 59.983, "note_off_time": 60.157}, {"pitch": 77, "velocity": 61, "note_on_time": 59.655, "note_off_time": 60.428}, {"pitch": 76, "velocity": 56, "note_on_time": 60.264, "note_off_time": 60.805}, {"pitch": 74, "velocity": 51, "note_on_time": 60.619, "note_off_time": 60.998}, {"pitch": 72, "velocity": 72, "note_on_time": 60.929, "note_off_time": 61.523}, {"pitch": 76, "velocity": 64, "note_on_time": 61.533, "note_off_time": 61.872}, {"pitch": 77, "velocity": 67, "note_on_time": 61.836, "note_off_time": 62.27}, {"pitch": 79, "velocity": 61, "note_on_time": 62.154, "note_off_time": 62.668}, {"pitch": 76, "velocity": 31, "note_on_time": 62.476, "note_off_time": 62.733}, {"pitch": 74, "velocity": 55, "note_on_time": 62.791, "note_off_time": 63.588}, {"pitch": 74, "velocity": 56, "note_on_time": 67.017, "note_off_time": 67.372}, {"pitch": 72, "velocity": 76, "note_on_time": 67.306, "note_off_time": 67.745}, {"pitch": 76, "velocity": 63, "note_on_time": 67.609, "note_off_time": 68.037}, {"pitch": 77, "velocity": 62, "note_on_time": 67.903, "note_off_time": 68.296}, {"pitch": 79, "velocity": 71, "note_on_time": 68.208, "note_off_time": 68.817}, {"pitch": 74, "velocity": 69, "note_on_time": 68.826, "note_off_time": 69.161}, {"pitch": 72, "velocity": 76, "note_on_time": 69.123, "note_off_time": 69.434}, {"pitch": 76, "velocity": 59, "note_on_time": 69.497, "note_off_time": 69.814}, {"pitch": 77, "velocity": 66, "note_on_time": 69.785, "note_off_time": 70.104}, {"pitch": 76, "velocity": 39, "note_on_time": 70.72, "note_off_time": 70.884}, {"pitch": 74, "velocity": 42, "note_on_time": 70.734, "note_off_time": 71.044}, {"pitch": 79, "velocity": 75, "note_on_time": 70.065, "note_off_time": 71.055}, {"pitch": 72, "velocity": 76, "note_on_time": 71.009, "note_off_time": 72.218}, {"pitch": 74, "velocity": 64, "note_on_time": 74.302, "note_off_time": 74.613}, {"pitch": 72, "velocity": 70, "note_on_time": 74.579, "note_off_time": 74.919}, {"pitch": 76, "velocity": 62, "note_on_time": 74.885, "note_off_time": 75.443}, {"pitch": 77, "velocity": 55, "note_on_time": 75.145, "note_off_time": 75.496}, {"pitch": 79, "velocity": 62, "note_on_time": 75.457, "note_off_time": 76.107}, {"pitch": 74, "velocity": 55, "note_on_time": 76.082, "note_off_time": 76.495}, {"pitch": 72, "velocity": 61, "note_on_time": 76.378, "note_off_time": 77.136}, {"pitch": 76, "velocity": 64, "note_on_time": 76.721, "note_off_time": 77.38}, {"pitch": 77, "velocity": 58, "note_on_time": 77.004, "note_off_time": 77.653}, {"pitch": 79, "velocity": 55, "note_on_time": 77.318, "note_off_time": 78.007}, {"pitch": 74, "velocity": 46, "note_on_time": 77.944, "note_off_time": 78.51}, {"pitch": 72, "velocity": 68, "note_on_time": 78.246, "note_off_time": 78.58}, {"pitch": 76, "velocity": 62, "note_on_time": 78.527, "note_off_time": 78.964}, {"pitch": 77, "velocity": 57, "note_on_time": 78.852, "note_off_time": 79.641}, {"pitch": 79, "velocity": 58, "note_on_time": 79.107, "note_off_time": 79.683}, {"pitch": 74, "velocity": 74, "note_on_time": 79.758, "note_off_time": 80.101}, {"pitch": 72, "velocity": 67, "note_on_time": 80.042, "note_off_time": 80.352}, {"pitch": 76, "velocity": 71, "note_on_time": 80.355, "note_off_time": 80.509}, {"pitch": 77, "velocity": 67, "note_on_time": 80.677, "note_off_time": 80.77}, {"pitch": 79, "velocity": 69, "note_on_time": 80.951, "note_off_time": 82.654}, {"pitch": 74, "velocity": 56, "note_on_time": 88.054, "note_off_time": 88.383}, {"pitch": 76, "velocity": 63, "note_on_time": 88.309, "note_off_time": 88.792}, {"pitch": 79, "velocity": 60, "note_on_time": 88.658, "note_off_time": 88.983}, {"pitch": 72, "velocity": 68, "note_on_time": 87.71, "note_off_time": 89.322}, {"pitch": 74, "velocity": 62, "note_on_time": 92.896, "note_off_time": 93.27}, {"pitch": 76, "velocity": 64, "note_on_time": 93.17, "note_off_time": 93.78}, {"pitch": 77, "velocity": 64, "note_on_time": 93.513, "note_off_time": 93.921}, {"pitch": 72, "velocity": 65, "note_on_time": 92.608, "note_off_time": 93.939}, {"pitch": 79, "velocity": 74, "note_on_time": 93.81, "note_off_time": 94.378}, {"pitch": 72, "velocity": 70, "note_on_time": 94.362, "note_off_time": 95.019}, {"pitch": 74, "velocity": 58, "note_on_time": 94.681, "note_off_time": 95.062}, {"pitch": 76, "velocity": 64, "note_on_time": 94.967, "note_off_time": 95.605}, {"pitch": 77, "velocity": 60, "note_on_time": 95.283, "note_off_time": 95.947}, {"pitch": 79, "velocity": 61, "note_on_time": 95.607, "note_off_time": 96.259}, {"pitch": 74, "velocity": 35, "note_on_time": 96.276, "note_off_time": 96.339}, {"pitch": 72, "velocity": 31, "note_on_time": 96.168, "note_off_time": 96.574}, {"pitch": 74, "velocity": 76, "note_on_time": 96.581, "note_off_time": 96.934}, {"pitch": 76, "velocity": 62, "note_on_time": 96.854, "note_off_time": 97.375}, {"pitch": 77, "velocity": 58, "note_on_time": 97.172, "note_off_time": 97.566}, {"pitch": 79, "velocity": 68, "note_on_time": 97.477, "note_off_time": 98.063}, {"pitch": 72, "velocity": 67, "note_on_time": 98.066, "note_off_time": 98.565}, {"pitch": 74, "velocity": 64, "note_on_time": 98.375, "note_off_time": 98.892}, {"pitch": 77, "velocity": 24, "note_on_time": 99.025, "note_off_time": 99.117}, {"pitch": 76, "velocity": 53, "note_on_time": 98.711, "note_off_time": 99.268}, {"pitch": 77, "velocity": 19, "note_on_time": 99.214, "note_off_time": 99.388}, {"pitch": 79, "velocity": 72, "note_on_time": 99.347, "note_off_time": 100.568}, {"pitch": 79, "velocity": 42, "note_on_time": 101.115, "note_off_time": 101.361}, {"pitch": 77, "velocity": 57, "note_on_time": 101.096, "note_off_time": 101.532}, {"pitch": 76, "velocity": 52, "note_on_time": 101.358, "note_off_time": 101.913}, {"pitch": 74, "velocity": 70, "note_on_time": 101.71, "note_off_time": 102.132}, {"pitch": 72, "velocity": 56, "note_on_time": 102.014, "note_off_time": 103.065}, {"pitch": 77, "velocity": 65, "note_on_time": 103.57, "note_off_time": 103.777}, {"pitch": 79, "velocity": 35, "note_on_time": 103.762, "note_off_time": 103.983}, {"pitch": 79, "velocity": 62, "note_on_time": 106.036, "note_off_time": 106.563}, {"pitch": 77, "velocity": 60, "note_on_time": 106.303, "note_off_time": 107.042}, {"pitch": 76, "velocity": 51, "note_on_time": 106.614, "note_off_time": 107.098}, {"pitch": 74, "velocity": 56, "note_on_time": 106.913, "note_off_time": 107.306}, {"pitch": 72, "velocity": 62, "note_on_time": 107.235, "note_off_time": 107.773}, {"pitch": 79, "velocity": 66, "note_on_time": 107.839, "note_off_time": 108.529}, {"pitch": 77, "velocity": 51, "note_on_time": 108.118, "note_off_time": 108.926}, {"pitch": 76, "velocity": 50, "note_on_time": 108.41, "note_off_time": 109.06}, {"pitch": 74, "velocity": 57, "note_on_time": 108.739, "note_off_time": 109.075}, {"pitch": 79, "velocity": 63, "note_on_time": 109.616, "note_off_time": 110.209}, {"pitch": 72, "velocity": 68, "note_on_time": 109.009, "note_off_time": 110.251}, {"pitch": 77, "velocity": 56, "note_on_time": 109.907, "note_off_time": 110.307}, {"pitch": 76, "velocity": 58, "note_on_time": 110.172, "note_off_time": 110.732}, {"pitch": 74, "velocity": 61, "note_on_time": 110.562, "note_off_time": 111.031}, {"pitch": 72, "velocity": 63, "note_on_time": 110.84, "note_off_time": 112.796}, {"pitch": 74, "velocity": 67, "note_on_time": 113.328, "note_off_time": 113.891}, {"pitch": 76, "velocity": 57, "note_on_time": 113.617, "note_off_time": 114.236}, {"pitch": 77, "velocity": 47, "note_on_time": 113.925, "note_off_time": 114.466}, {"pitch": 79, "velocity": 63, "note_on_time": 114.205, "note_off_time": 114.576}, {"pitch": 72, "velocity": 74, "note_on_time": 114.53, "note_off_time": 115.326}, {"pitch": 74, "velocity": 54, "note_on_time": 115.175, "note_off_time": 115.656}, {"pitch": 76, "velocity": 49, "note_on_time": 115.478, "note_off_time": 116.028}, {"pitch": 77, "velocity": 54, "note_on_time": 115.791, "note_off_time": 116.317}, {"pitch": 79, "velocity": 55, "note_on_time": 116.045, "note_off_time": 116.43}, {"pitch": 72, "velocity": 67, "note_on_time": 116.346, "note_off_time": 117.428}, {"pitch": 74, "velocity": 65, "note_on_time": 116.977, "note_off_time": 117.607}, {"pitch": 76, "velocity": 56, "note_on_time": 117.253, "note_off_time": 117.863}, {"pitch": 77, "velocity": 55, "note_on_time": 117.569, "note_off_time": 118.136}, {"pitch": 79, "velocity": 53, "note_on_time": 117.895, "note_off_time": 118.334}, {"pitch": 74, "velocity": 63, "note_on_time": 118.805, "note_off_time": 119.232}, {"pitch": 72, "velocity": 78, "note_on_time": 118.211, "note_off_time": 119.361}, {"pitch": 76, "velocity": 59, "note_on_time": 119.068, "note_off_time": 119.586}, {"pitch": 77, "velocity": 52, "note_on_time": 119.373, "note_off_time": 119.985}, {"pitch": 79, "velocity": 62, "note_on_time": 119.631, "note_off_time": 120.032}, {"pitch": 72, "velocity": 78, "note_on_time": 120.0, "note_off_time": 121.353}, {"pitch": 77, "velocity": 55, "note_on_time": 121.863, "note_off_time": 122.44}, {"pitch": 76, "velocity": 55, "note_on_time": 122.162, "note_off_time": 122.916}, {"pitch": 74, "velocity": 71, "note_on_time": 122.459, "note_off_time": 122.979}, {"pitch": 72, "velocity": 63, "note_on_time": 122.71, "note_off_time": 123.705}, {"pitch": 79, "velocity": 72, "note_on_time": 123.036, "note_off_time": 124.014}, {"pitch": 77, "velocity": 58, "note_on_time": 123.617, "note_off_time": 124.519}, {"pitch": 74, "velocity": 57, "note_on_time": 124.27, "note_off_time": 124.631}, {"pitch": 76, "velocity": 51, "note_on_time": 123.94, "note_off_time": 124.643}, {"pitch": 72, "velocity": 65, "note_on_time": 124.562, "note_off_time": 124.93}, {"pitch": 79, "velocity": 68, "note_on_time": 124.868, "note_off_time": 125.818}, {"pitch": 77, "velocity": 46, "note_on_time": 125.515, "note_off_time": 126.203}, {"pitch": 76, "velocity": 46, "note_on_time": 125.785, "note_off_time": 126.273}, {"pitch": 74, "velocity": 53, "note_on_time": 126.102, "note_off_time": 126.477}, {"pitch": 72, "velocity": 70, "note_on_time": 126.397, "note_off_time": 126.8}, {"pitch": 77, "velocity": 64, "note_on_time": 127.3, "note_off_time": 128.062}, {"pitch": 76, "velocity": 53, "note_on_time": 127.625, "note_off_time": 128.087}, {"pitch": 79, "velocity": 69, "note_on_time": 126.719, "note_off_time": 128.137}, {"pitch": 74, "velocity": 64, "note_on_time": 127.914, "note_off_time": 128.324}, {"pitch": 79, "velocity": 65, "note_on_time": 128.519, "note_off_time": 130.032}, {"pitch": 72, "velocity": 69, "note_on_time": 128.188, "note_off_time": 130.033}, {"pitch": 76, "velocity": 67, "note_on_time": 130.434, "note_off_time": 131.086}, {"pitch": 77, "velocity": 57, "note_on_time": 130.714, "note_off_time": 131.409}, {"pitch": 79, "velocity": 69, "note_on_time": 130.991, "note_off_time": 131.502}, {"pitch": 74, "velocity": 60, "note_on_time": 131.316, "note_off_time": 131.766}, {"pitch": 72, "velocity": 72, "note_on_time": 131.585, "note_off_time": 131.951}, {"pitch": 76, "velocity": 62, "note_on_time": 132.212, "note_off_time": 132.917}, {"pitch": 77, "velocity": 54, "note_on_time": 132.538, "note_off_time": 133.134}, {"pitch": 79, "velocity": 58, "note_on_time": 132.812, "note_off_time": 133.325}, {"pitch": 74, "velocity": 58, "note_on_time": 133.136, "note_off_time": 133.656}, {"pitch": 72, "velocity": 66, "note_on_time": 133.433, "note_off_time": 134.103}, {"pitch": 76, "velocity": 63, "note_on_time": 133.979, "note_off_time": 134.763}, {"pitch": 77, "velocity": 43, "note_on_time": 134.353, "note_off_time": 134.772}, {"pitch": 79, "velocity": 64, "note_on_time": 134.644, "note_off_time": 134.971}, {"pitch": 72, "velocity": 65, "note_on_time": 135.26, "note_off_time": 135.823}, {"pitch": 74, "velocity": 56, "note_on_time": 134.954, "note_off_time": 136.02}, {"pitch": 79, "velocity": 53, "note_on_time": 136.499, "note_off_time": 136.822}, {"pitch": 77, "velocity": 51, "note_on_time": 136.235, "note_off_time": 136.832}, {"pitch": 76, "velocity": 44, "note_on_time": 135.911, "note_off_time": 136.898}, {"pitch": 74, "velocity": 65, "note_on_time": 136.772, "note_off_time": 137.531}, {"pitch": 72, "velocity": 63, "note_on_time": 137.074, "note_off_time": 137.802}, {"pitch": 79, "velocity": 51, "note_on_time": 138.291, "note_off_time": 138.624}, {"pitch": 77, "velocity": 56, "note_on_time": 138.006, "note_off_time": 138.647}, {"pitch": 74, "velocity": 64, "note_on_time": 138.587, "note_off_time": 139.059}, {"pitch": 76, "velocity": 70, "note_on_time": 137.729, "note_off_time": 139.189}, {"pitch": 72, "velocity": 73, "note_on_time": 138.855, "note_off_time": 140.891}, {"pitch": 76, "velocity": 64, "note_on_time": 141.305, "note_off_time": 141.975}, {"pitch": 74, "velocity": 66, "note_on_time": 141.602, "note_off_time": 142.08}, {"pitch": 72, "velocity": 65, "note_on_time": 141.892, "note_off_time": 142.238}, {"pitch": 76, "velocity": 24, "note_on_time": 142.271, "note_off_time": 142.531}, {"pitch": 77, "velocity": 64, "note_on_time": 142.248, "note_off_time": 143.735}, {"pitch": 79, "velocity": 64, "note_on_time": 142.539, "note_off_time": 143.795}, {"pitch": 76, "velocity": 56, "note_on_time": 143.142, "note_off_time": 143.851}, {"pitch": 74, "velocity": 53, "note_on_time": 143.446, "note_off_time": 143.883}, {"pitch": 72, "velocity": 63, "note_on_time": 143.753, "note_off_time": 144.21}, {"pitch": 74, "velocity": 59, "note_on_time": 145.31, "note_off_time": 145.616}, {"pitch": 79, "velocity": 60, "note_on_time": 144.408, "note_off_time": 145.623}, {"pitch": 76, "velocity": 47, "note_on_time": 145.009, "note_off_time": 145.634}, {"pitch": 77, "velocity": 52, "note_on_time": 144.078, "note_off_time": 145.685}, {"pitch": 72, "velocity": 70, "note_on_time": 145.594, "note_off_time": 146.073}, {"pitch": 77, "velocity": 49, "note_on_time": 145.918, "note_off_time": 147.289}, {"pitch": 76, "velocity": 47, "note_on_time": 146.826, "note_off_time": 147.291}, {"pitch": 79, "velocity": 66, "note_on_time": 146.201, "note_off_time": 147.338}, {"pitch": 74, "velocity": 34, "note_on_time": 147.177, "note_off_time": 147.605}, {"pitch": 72, "velocity": 74, "note_on_time": 147.499, "note_off_time": 148.275}, {"pitch": 77, "velocity": 37, "note_on_time": 147.782, "note_off_time": 148.441}, {"pitch": 79, "velocity": 70, "note_on_time": 148.042, "note_off_time": 148.599}, {"pitch": 76, "velocity": 65, "note_on_time": 148.644, "note_off_time": 149.012}, {"pitch": 74, "velocity": 59, "note_on_time": 148.914, "note_off_time": 149.197}, {"pitch": 72, "velocity": 61, "note_on_time": 149.207, "note_off_time": 149.468}, {"pitch": 77, "velocity": 63, "note_on_time": 149.509, "note_off_time": 149.963}, {"pitch": 79, "velocity": 75, "note_on_time": 149.82, "note_off_time": 151.453}, {"pitch": 79, "velocity": 64, "note_on_time": 152.595, "note_off_time": 152.951}, {"pitch": 77, "velocity": 65, "note_on_time": 152.314, "note_off_time": 152.954}, {"pitch": 76, "velocity": 61, "note_on_time": 152.898, "note_off_time": 153.373}, {"pitch": 74, "velocity": 58, "note_on_time": 153.248, "note_off_time": 153.595}, {"pitch": 72, "velocity": 78, "note_on_time": 153.544, "note_off_time": 154.119}, {"pitch": 79, "velocity": 60, "note_on_time": 154.422, "note_off_time": 154.77}, {"pitch": 77, "velocity": 65, "note_on_time": 154.129, "note_off_time": 154.821}, {"pitch": 76, "velocity": 56, "note_on_time": 154.739, "note_off_time": 155.129}, {"pitch": 74, "velocity": 60, "note_on_time": 155.044, "note_off_time": 155.394}, {"pitch": 72, "velocity": 69, "note_on_time": 155.352, "note_off_time": 155.847}, {"pitch": 79, "velocity": 59, "note_on_time": 156.22, "note_off_time": 156.564}, {"pitch": 77, "velocity": 56, "note_on_time": 155.902, "note_off_time": 156.656}, {"pitch": 76, "velocity": 54, "note_on_time": 156.539, "note_off_time": 156.982}, {"pitch": 74, "velocity": 56, "note_on_time": 156.864, "note_off_time": 157.183}, {"pitch": 72, "velocity": 68, "note_on_time": 157.139, "note_off_time": 157.749}, {"pitch": 79, "velocity": 58, "note_on_time": 158.057, "note_off_time": 158.391}, {"pitch": 77, "velocity": 57, "note_on_time": 157.765, "note_off_time": 158.699}, {"pitch": 76, "velocity": 57, "note_on_time": 158.423, "note_off_time": 158.842}, {"pitch": 74, "velocity": 58, "note_on_time": 158.708, "note_off_time": 159.044}, {"pitch": 72, "velocity": 77, "note_on_time": 159.013, "note_off_time": 160.659}, {"pitch": 74, "velocity": 69, "note_on_time": 160.862, "note_off_time": 161.224}, {"pitch": 72, "velocity": 64, "note_on_time": 161.168, "note_off_time": 161.472}, {"pitch": 74, "velocity": 71, "note_on_time": 161.439, "note_off_time": 161.602}, {"pitch": 76, "velocity": 64, "note_on_time": 161.532, "note_off_time": 162.857}, {"pitch": 74, "velocity": 68, "note_on_time": 163.279, "note_off_time": 163.596}, {"pitch": 72, "velocity": 65, "note_on_time": 163.58, "note_off_time": 163.941}, {"pitch": 76, "velocity": 59, "note_on_time": 163.869, "note_off_time": 164.215}, {"pitch": 79, "velocity": 57, "note_on_time": 164.463, "note_off_time": 164.86}, {"pitch": 77, "velocity": 70, "note_on_time": 164.159, "note_off_time": 165.034}, {"pitch": 74, "velocity": 73, "note_on_time": 165.215, "note_off_time": 165.523}, {"pitch": 72, "velocity": 70, "note_on_time": 165.455, "note_off_time": 165.807}, {"pitch": 76, "velocity": 64, "note_on_time": 165.742, "note_off_time": 166.129}, {"pitch": 77, "velocity": 66, "note_on_time": 166.03, "note_off_time": 166.784}, {"pitch": 79, "velocity": 68, "note_on_time": 166.317, "note_off_time": 166.875}, {"pitch": 74, "velocity": 69, "note_on_time": 166.91, "note_off_time": 167.271}, {"pitch": 72, "velocity": 72, "note_on_time": 167.231, "note_off_time": 167.606}, {"pitch": 76, "velocity": 64, "note_on_time": 167.526, "note_off_time": 167.98}, {"pitch": 77, "velocity": 57, "note_on_time": 167.802, "note_off_time": 168.526}, {"pitch": 79, "velocity": 70, "note_on_time": 168.139, "note_off_time": 168.602}, {"pitch": 74, "velocity": 67, "note_on_time": 168.713, "note_off_time": 169.145}, {"pitch": 72, "velocity": 72, "note_on_time": 169.085, "note_off_time": 169.402}, {"pitch": 76, "velocity": 65, "note_on_time": 169.352, "note_off_time": 169.757}, {"pitch": 77, "velocity": 59, "note_on_time": 169.629, "note_off_time": 170.297}, {"pitch": 79, "velocity": 65, "note_on_time": 169.931, "note_off_time": 171.379}, {"pitch": 74, "velocity": 39, "note_on_time": 172.153, "note_off_time": 172.379}, {"pitch": 72, "velocity": 63, "note_on_time": 171.754, "note_off_time": 172.533}, {"pitch": 76, "velocity": 61, "note_on_time": 172.387, "note_off_time": 172.81}, {"pitch": 77, "velocity": 60, "note_on_time": 172.701, "note_off_time": 173.159}, {"pitch": 77, "velocity": 1, "note_on_time": 173.52, "note_off_time": 173.634}, {"pitch": 79, "velocity": 74, "note_on_time": 173.02, "note_off_time": 173.661}, {"pitch": 74, "velocity": 27, "note_on_time": 173.953, "note_off_time": 174.289}, {"pitch": 72, "velocity": 62, "note_on_time": 173.615, "note_off_time": 174.492}, {"pitch": 76, "velocity": 74, "note_on_time": 174.238, "note_off_time": 174.853}, {"pitch": 77, "velocity": 59, "note_on_time": 174.522, "note_off_time": 175.402}, {"pitch": 79, "velocity": 64, "note_on_time": 174.823, "note_off_time": 175.482}, {"pitch": 74, "velocity": 57, "note_on_time": 175.795, "note_off_time": 176.142}, {"pitch": 72, "velocity": 58, "note_on_time": 175.437, "note_off_time": 176.189}, {"pitch": 76, "velocity": 61, "note_on_time": 176.069, "note_off_time": 176.715}, {"pitch": 77, "velocity": 58, "note_on_time": 176.396, "note_off_time": 176.803}, {"pitch": 79, "velocity": 69, "note_on_time": 176.737, "note_off_time": 178.276}, {"pitch": 79, "velocity": 73, "note_on_time": 179.111, "note_off_time": 179.703}, {"pitch": 77, "velocity": 64, "note_on_time": 179.391, "note_off_time": 179.859}, {"pitch": 76, "velocity": 57, "note_on_time": 179.67, "note_off_time": 180.214}, {"pitch": 74, "velocity": 56, "note_on_time": 179.973, "note_off_time": 180.282}, {"pitch": 72, "velocity": 69, "note_on_time": 180.246, "note_off_time": 180.828}, {"pitch": 79, "velocity": 62, "note_on_time": 180.871, "note_off_time": 181.465}, {"pitch": 77, "velocity": 70, "note_on_time": 181.174, "note_off_time": 181.883}, {"pitch": 76, "velocity": 56, "note_on_time": 181.426, "note_off_time": 181.91}, {"pitch": 74, "velocity": 55, "note_on_time": 181.786, "note_off_time": 182.166}, {"pitch": 72, "velocity": 67, "note_on_time": 182.098, "note_off_time": 182.842}, {"pitch": 79, "velocity": 62, "note_on_time": 182.742, "note_off_time": 183.175}, {"pitch": 77, "velocity": 43, "note_on_time": 182.996, "note_off_time": 183.757}, {"pitch": 76, "velocity": 60, "note_on_time": 183.338, "note_off_time": 183.776}, {"pitch": 74, "velocity": 56, "note_on_time": 183.65, "note_off_time": 184.118}, {"pitch": 72, "velocity": 72, "note_on_time": 183.954, "note_off_time": 184.797}, {"pitch": 79, "velocity": 58, "note_on_time": 184.549, "note_off_time": 185.176}, {"pitch": 77, "velocity": 64, "note_on_time": 184.828, "note_off_time": 185.521}, {"pitch": 76, "velocity": 63, "note_on_time": 185.153, "note_off_time": 185.633}, {"pitch": 74, "velocity": 61, "note_on_time": 185.436, "note_off_time": 185.805}, {"pitch": 72, "velocity": 72, "note_on_time": 185.732, "note_off_time": 187.453}, {"pitch": 74, "velocity": 66, "note_on_time": 187.623, "note_off_time": 188.038}, {"pitch": 76, "velocity": 71, "note_on_time": 187.927, "note_off_time": 188.496}, {"pitch": 77, "velocity": 54, "note_on_time": 188.192, "note_off_time": 188.725}, {"pitch": 79, "velocity": 60, "note_on_time": 188.483, "note_off_time": 188.838}, {"pitch": 74, "velocity": 63, "note_on_time": 189.442, "note_off_time": 189.841}, {"pitch": 76, "velocity": 59, "note_on_time": 189.716, "note_off_time": 190.25}, {"pitch": 72, "velocity": 65, "note_on_time": 188.791, "note_off_time": 190.329}, {"pitch": 77, "velocity": 50, "note_on_time": 190.044, "note_off_time": 190.382}, {"pitch": 79, "velocity": 61, "note_on_time": 190.323, "note_off_time": 190.684}, {"pitch": 74, "velocity": 59, "note_on_time": 191.273, "note_off_time": 191.59}, {"pitch": 72, "velocity": 75, "note_on_time": 190.642, "note_off_time": 191.979}, {"pitch": 76, "velocity": 61, "note_on_time": 191.537, "note_off_time": 191.996}, {"pitch": 77, "velocity": 54, "note_on_time": 191.85, "note_off_time": 192.487}, {"pitch": 79, "velocity": 64, "note_on_time": 192.157, "note_off_time": 192.542}, {"pitch": 72, "velocity": 66, "note_on_time": 192.472, "note_off_time": 193.158}, {"pitch": 74, "velocity": 49, "note_on_time": 193.087, "note_off_time": 193.457}, {"pitch": 76, "velocity": 73, "note_on_time": 193.354, "note_off_time": 193.792}, {"pitch": 77, "velocity": 60, "note_on_time": 193.656, "note_off_time": 194.247}, {"pitch": 79, "velocity": 68, "note_on_time": 193.937, "note_off_time": 194.315}]</notes><guidance name="Guidance Mode">None</guidance><error name="Error value">99</error></trial><trial trial_no="3" timestamp="2024_03_04-17_21_43"><notes name="Played Notes">[{"pitch": 74, "velocity": 58, "note_on_time": 5.216, "note_off_time": 5.55}, {"pitch": 72, "velocity": 72, "note_on_time": 4.93, "note_off_time": 5.902}, {"pitch": 76, "velocity": 60, "note_on_time": 5.533, "note_off_time": 6.065}, {"pitch": 77, "velocity": 55, "note_on_time": 5.856, "note_off_time": 6.146}, {"pitch": 79, "velocity": 53, "note_on_time": 6.143, "note_off_time": 6.716}, {"pitch": 72, "velocity": 70, "note_on_time": 6.707, "note_off_time": 7.327}, {"pitch": 74, "velocity": 52, "note_on_time": 7.049, "note_off_time": 7.396}, {"pitch": 76, "velocity": 66, "note_on_time": 7.321, "note_off_time": 7.717}, {"pitch": 77, "velocity": 66, "note_on_time": 7.636, "note_off_time": 8.077}, {"pitch": 79, "velocity": 67, "note_on_time": 7.96, "note_off_time": 8.572}, {"pitch": 72, "velocity": 52, "note_on_time": 8.48, "note_off_time": 9.144}, {"pitch": 74, "velocity": 52, "note_on_time": 8.838, "note_off_time": 9.233}, {"pitch": 76, "velocity": 69, "note_on_time": 9.163, "note_off_time": 9.878}, {"pitch": 77, "velocity": 58, "note_on_time": 9.477, "note_off_time": 9.907}, {"pitch": 79, "velocity": 64, "note_on_time": 9.787, "note_off_time": 11.523}, {"pitch": 79, "velocity": 71, "note_on_time": 12.233, "note_off_time": 12.675}, {"pitch": 77, "velocity": 67, "note_on_time": 12.514, "note_off_time": 12.8}, {"pitch": 76, "velocity": 61, "note_on_time": 12.812, "note_off_time": 13.509}, {"pitch": 74, "velocity": 63, "note_on_time": 13.121, "note_off_time": 13.513}, {"pitch": 72, "velocity": 70, "note_on_time": 13.413, "note_off_time": 14.037}, {"pitch": 77, "velocity": 59, "note_on_time": 14.052, "note_off_time": 14.25}, {"pitch": 79, "velocity": 58, "note_on_time": 14.016, "note_off_time": 14.407}, {"pitch": 77, "velocity": 66, "note_on_time": 14.373, "note_off_time": 14.685}, {"pitch": 76, "velocity": 51, "note_on_time": 14.601, "note_off_time": 15.254}, {"pitch": 74, "velocity": 65, "note_on_time": 14.941, "note_off_time": 15.36}, {"pitch": 72, "velocity": 74, "note_on_time": 15.274, "note_off_time": 15.893}, {"pitch": 79, "velocity": 68, "note_on_time": 15.884, "note_off_time": 16.907}, {"pitch": 77, "velocity": 66, "note_on_time": 16.194, "note_off_time": 16.91}, {"pitch": 76, "velocity": 60, "note_on_time": 16.489, "note_off_time": 16.968}, {"pitch": 74, "velocity": 49, "note_on_time": 16.82, "note_off_time": 17.115}, {"pitch": 72, "velocity": 77, "note_on_time": 17.085, "note_off_time": 17.993}, {"pitch": 77, "velocity": 56, "note_on_time": 17.986, "note_off_time": 18.745}, {"pitch": 76, "velocity": 56, "note_on_time": 18.288, "note_off_time": 18.793}, {"pitch": 79, "velocity": 62, "note_on_time": 17.691, "note_off_time": 18.881}, {"pitch": 74, "velocity": 54, "note_on_time": 18.62, "note_off_time": 18.93}, {"pitch": 72, "velocity": 73, "note_on_time": 18.902, "note_off_time": 20.981}, {"pitch": 74, "velocity": 64, "note_on_time": 21.989, "note_off_time": 22.391}, {"pitch": 76, "velocity": 65, "note_on_time": 22.272, "note_off_time": 22.693}, {"pitch": 77, "velocity": 69, "note_on_time": 22.575, "note_off_time": 22.951}, {"pitch": 79, "velocity": 64, "note_on_time": 22.847, "note_off_time": 23.294}, {"pitch": 74, "velocity": 54, "note_on_time": 23.793, "note_off_time": 24.147}, {"pitch": 72, "velocity": 74, "note_on_time": 23.228, "note_off_time": 24.497}, {"pitch": 76, "velocity": 66, "note_on_time": 24.084, "note_off_time": 24.709}, {"pitch": 77, "velocity": 61, "note_on_time": 24.389, "note_off_time": 24.955}, {"pitch": 79, "velocity": 55, "note_on_time": 24.708, "note_off_time": 25.379}, {"pitch": 72, "velocity": 74, "note_on_time": 25.003, "note_off_time": 25.743}, {"pitch": 74, "velocity": 66, "note_on_time": 25.599, "note_off_time": 26.009}, {"pitch": 76, "velocity": 69, "note_on_time": 25.909, "note_off_time": 26.524}, {"pitch": 77, "velocity": 65, "note_on_time": 26.199, "note_off_time": 26.764}, {"pitch": 79, "velocity": 61, "note_on_time": 26.469, "note_off_time": 27.12}, {"pitch": 74, "velocity": 59, "note_on_time": 27.415, "note_off_time": 27.736}, {"pitch": 72, "velocity": 65, "note_on_time": 26.789, "note_off_time": 28.146}, {"pitch": 76, "velocity": 56, "note_on_time": 27.695, "note_off_time": 28.169}, {"pitch": 77, "velocity": 51, "note_on_time": 27.992, "note_off_time": 28.259}, {"pitch": 79, "velocity": 48, "note_on_time": 28.204, "note_off_time": 28.585}, {"pitch": 72, "velocity": 82, "note_on_time": 28.571, "note_off_time": 30.742}, {"pitch": 77, "velocity": 64, "note_on_time": 30.534, "note_off_time": 31.135}, {"pitch": 76, "velocity": 57, "note_on_time": 30.795, "note_off_time": 31.245}, {"pitch": 74, "velocity": 58, "note_on_time": 31.104, "note_off_time": 31.45}, {"pitch": 72, "velocity": 74, "note_on_time": 31.372, "note_off_time": 31.854}, {"pitch": 79, "velocity": 70, "note_on_time": 31.69, "note_off_time": 32.59}, {"pitch": 77, "velocity": 74, "note_on_time": 32.261, "note_off_time": 32.953}, {"pitch": 76, "velocity": 64, "note_on_time": 32.545, "note_off_time": 32.987}, {"pitch": 74, "velocity": 55, "note_on_time": 32.855, "note_off_time": 33.233}, {"pitch": 72, "velocity": 66, "note_on_time": 33.162, "note_off_time": 33.517}, {"pitch": 79, "velocity": 66, "note_on_time": 33.526, "note_off_time": 33.978}, {"pitch": 77, "velocity": 59, "note_on_time": 34.141, "note_off_time": 34.838}, {"pitch": 76, "velocity": 58, "note_on_time": 34.462, "note_off_time": 34.876}, {"pitch": 74, "velocity": 64, "note_on_time": 34.751, "note_off_time": 35.038}, {"pitch": 72, "velocity": 61, "note_on_time": 35.053, "note_off_time": 35.358}, {"pitch": 79, "velocity": 66, "note_on_time": 35.376, "note_off_time": 35.669}, {"pitch": 77, "velocity": 52, "note_on_time": 35.922, "note_off_time": 36.685}, {"pitch": 76, "velocity": 48, "note_on_time": 36.242, "note_off_time": 36.729}, {"pitch": 74, "velocity": 52, "note_on_time": 36.585, "note_off_time": 37.0}, {"pitch": 72, "velocity": 47, "note_on_time": 36.868, "note_off_time": 37.224}, {"pitch": 77, "velocity": 21, "note_on_time": 37.267, "note_off_time": 37.431}, {"pitch": 79, "velocity": 61, "note_on_time": 37.224, "note_off_time": 37.618}, {"pitch": 77, "velocity": 56, "note_on_time": 37.748, "note_off_time": 38.421}, {"pitch": 76, "velocity": 51, "note_on_time": 38.049, "note_off_time": 38.536}, {"pitch": 74, "velocity": 43, "note_on_time": 38.397, "note_off_time": 38.719}, {"pitch": 72, "velocity": 60, "note_on_time": 38.676, "note_off_time": 39.433}, {"pitch": 79, "velocity": 55, "note_on_time": 39.005, "note_off_time": 40.911}, {"pitch": 74, "velocity": 61, "note_on_time": 43.913, "note_off_time": 44.321}, {"pitch": 76, "velocity": 54, "note_on_time": 44.197, "note_off_time": 44.787}, {"pitch": 77, "velocity": 64, "note_on_time": 44.517, "note_off_time": 44.943}, {"pitch": 79, "velocity": 64, "note_on_time": 44.797, "note_off_time": 45.198}, {"pitch": 72, "velocity": 69, "note_on_time": 45.155, "note_off_time": 45.755}, {"pitch": 74, "velocity": 53, "note_on_time": 45.724, "note_off_time": 46.723}, {"pitch": 76, "velocity": 56, "note_on_time": 48.72, "note_off_time": 49.129}, {"pitch": 77, "velocity": 67, "note_on_time": 49.007, "note_off_time": 49.423}, {"pitch": 79, "velocity": 65, "note_on_time": 49.309, "note_off_time": 49.765}, {"pitch": 74, "velocity": 64, "note_on_time": 49.679, "note_off_time": 50.114}, {"pitch": 72, "velocity": 69, "note_on_time": 49.982, "note_off_time": 50.468}, {"pitch": 76, "velocity": 56, "note_on_time": 50.527, "note_off_time": 51.194}, {"pitch": 77, "velocity": 61, "note_on_time": 50.829, "note_off_time": 51.421}, {"pitch": 79, "velocity": 55, "note_on_time": 51.141, "note_off_time": 51.48}, {"pitch": 74, "velocity": 61, "note_on_time": 51.438, "note_off_time": 51.905}, {"pitch": 72, "velocity": 70, "note_on_time": 51.782, "note_off_time": 52.381}, {"pitch": 76, "velocity": 62, "note_on_time": 52.374, "note_off_time": 53.035}, {"pitch": 77, "velocity": 62, "note_on_time": 52.673, "note_off_time": 53.094}, {"pitch": 79, "velocity": 70, "note_on_time": 53.0, "note_off_time": 53.633}, {"pitch": 74, "velocity": 70, "note_on_time": 53.398, "note_off_time": 53.761}, {"pitch": 72, "velocity": 70, "note_on_time": 53.649, "note_off_time": 55.894}, {"pitch": 76, "velocity": 57, "note_on_time": 56.052, "note_off_time": 56.667}, {"pitch": 74, "velocity": 61, "note_on_time": 56.348, "note_off_time": 56.741}, {"pitch": 72, "velocity": 70, "note_on_time": 56.639, "note_off_time": 57.489}, {"pitch": 79, "velocity": 61, "note_on_time": 57.261, "note_off_time": 57.826}, {"pitch": 76, "velocity": 55, "note_on_time": 57.873, "note_off_time": 58.049}, {"pitch": 77, "velocity": 65, "note_on_time": 56.945, "note_off_time": 58.167}, {"pitch": 76, "velocity": 1, "note_on_time": 58.176, "note_off_time": 58.262}, {"pitch": 74, "velocity": 71, "note_on_time": 58.196, "note_off_time": 58.548}, {"pitch": 72, "velocity": 71, "note_on_time": 58.473, "note_off_time": 58.918}, {"pitch": 79, "velocity": 66, "note_on_time": 59.094, "note_off_time": 60.095}, {"pitch": 77, "velocity": 61, "note_on_time": 58.763, "note_off_time": 60.32}, {"pitch": 74, "velocity": 51, "note_on_time": 60.007, "note_off_time": 60.398}, {"pitch": 76, "velocity": 53, "note_on_time": 59.723, "note_off_time": 60.408}, {"pitch": 72, "velocity": 65, "note_on_time": 60.295, "note_off_time": 60.648}, {"pitch": 79, "velocity": 61, "note_on_time": 60.883, "note_off_time": 61.587}, {"pitch": 77, "velocity": 72, "note_on_time": 60.583, "note_off_time": 61.661}, {"pitch": 76, "velocity": 68, "note_on_time": 61.586, "note_off_time": 61.93}, {"pitch": 74, "velocity": 62, "note_on_time": 61.833, "note_off_time": 62.243}, {"pitch": 72, "velocity": 60, "note_on_time": 62.143, "note_off_time": 62.452}, {"pitch": 79, "velocity": 72, "note_on_time": 62.723, "note_off_time": 64.05}, {"pitch": 77, "velocity": 73, "note_on_time": 62.427, "note_off_time": 64.128}, {"pitch": 79, "velocity": 64, "note_on_time": 64.847, "note_off_time": 65.203}, {"pitch": 77, "velocity": 66, "note_on_time": 64.536, "note_off_time": 65.489}, {"pitch": 74, "velocity": 53, "note_on_time": 65.417, "note_off_time": 65.762}, {"pitch": 76, "velocity": 61, "note_on_time": 65.139, "note_off_time": 65.795}, {"pitch": 72, "velocity": 70, "note_on_time": 65.732, "note_off_time": 66.344}, {"pitch": 79, "velocity": 64, "note_on_time": 66.676, "note_off_time": 66.975}, {"pitch": 77, "velocity": 73, "note_on_time": 66.378, "note_off_time": 67.168}, {"pitch": 74, "velocity": 54, "note_on_time": 67.27, "note_off_time": 67.751}, {"pitch": 76, "velocity": 69, "note_on_time": 66.984, "note_off_time": 67.789}, {"pitch": 72, "velocity": 70, "note_on_time": 67.568, "note_off_time": 68.261}, {"pitch": 79, "velocity": 72, "note_on_time": 68.531, "note_off_time": 68.968}, {"pitch": 77, "velocity": 64, "note_on_time": 68.166, "note_off_time": 69.218}, {"pitch": 74, "velocity": 62, "note_on_time": 69.071, "note_off_time": 69.48}, {"pitch": 76, "velocity": 60, "note_on_time": 68.806, "note_off_time": 69.53}, {"pitch": 72, "velocity": 70, "note_on_time": 69.399, "note_off_time": 70.645}, {"pitch": 79, "velocity": 48, "note_on_time": 70.321, "note_off_time": 71.062}, {"pitch": 77, "velocity": 72, "note_on_time": 70.025, "note_off_time": 71.191}, {"pitch": 74, "velocity": 55, "note_on_time": 70.96, "note_off_time": 71.315}, {"pitch": 76, "velocity": 63, "note_on_time": 70.629, "note_off_time": 71.319}, {"pitch": 72, "velocity": 75, "note_on_time": 71.228, "note_off_time": 72.964}, {"pitch": 76, "velocity": 62, "note_on_time": 73.069, "note_off_time": 74.347}, {"pitch": 74, "velocity": 70, "note_on_time": 75.546, "note_off_time": 75.897}, {"pitch": 72, "velocity": 68, "note_on_time": 75.826, "note_off_time": 76.397}, {"pitch": 76, "velocity": 62, "note_on_time": 76.13, "note_off_time": 76.506}, {"pitch": 77, "velocity": 60, "note_on_time": 76.402, "note_off_time": 77.368}, {"pitch": 79, "velocity": 68, "note_on_time": 76.673, "note_off_time": 77.388}, {"pitch": 74, "velocity": 67, "note_on_time": 77.277, "note_off_time": 77.659}, {"pitch": 72, "velocity": 68, "note_on_time": 77.582, "note_off_time": 78.255}, {"pitch": 76, "velocity": 57, "note_on_time": 77.932, "note_off_time": 78.341}, {"pitch": 77, "velocity": 66, "note_on_time": 78.221, "note_off_time": 79.172}, {"pitch": 79, "velocity": 65, "note_on_time": 78.504, "note_off_time": 79.252}, {"pitch": 74, "velocity": 64, "note_on_time": 79.145, "note_off_time": 79.519}, {"pitch": 72, "velocity": 72, "note_on_time": 79.449, "note_off_time": 79.917}, {"pitch": 76, "velocity": 67, "note_on_time": 79.763, "note_off_time": 80.317}, {"pitch": 77, "velocity": 60, "note_on_time": 80.027, "note_off_time": 80.862}, {"pitch": 74, "velocity": 50, "note_on_time": 80.96, "note_off_time": 81.337}, {"pitch": 79, "velocity": 65, "note_on_time": 80.344, "note_off_time": 81.419}, {"pitch": 72, "velocity": 62, "note_on_time": 81.247, "note_off_time": 81.846}, {"pitch": 76, "velocity": 64, "note_on_time": 81.583, "note_off_time": 82.005}, {"pitch": 77, "velocity": 68, "note_on_time": 81.849, "note_off_time": 82.752}, {"pitch": 79, "velocity": 77, "note_on_time": 82.152, "note_off_time": 83.978}, {"pitch": 74, "velocity": 63, "note_on_time": 85.519, "note_off_time": 85.729}, {"pitch": 72, "velocity": 69, "note_on_time": 85.214, "note_off_time": 86.119}, {"pitch": 76, "velocity": 65, "note_on_time": 85.798, "note_off_time": 86.431}, {"pitch": 77, "velocity": 59, "note_on_time": 86.068, "note_off_time": 86.913}, {"pitch": 79, "velocity": 65, "note_on_time": 86.409, "note_off_time": 87.029}, {"pitch": 74, "velocity": 60, "note_on_time": 87.388, "note_off_time": 87.885}, {"pitch": 76, "velocity": 60, "note_on_time": 87.651, "note_off_time": 88.298}, {"pitch": 77, "velocity": 56, "note_on_time": 87.942, "note_off_time": 88.546}, {"pitch": 72, "velocity": 74, "note_on_time": 87.043, "note_off_time": 88.577}, {"pitch": 79, "velocity": 66, "note_on_time": 88.239, "note_off_time": 88.756}, {"pitch": 74, "velocity": 55, "note_on_time": 89.157, "note_off_time": 89.544}, {"pitch": 72, "velocity": 69, "note_on_time": 88.832, "note_off_time": 89.817}, {"pitch": 76, "velocity": 65, "note_on_time": 89.431, "note_off_time": 90.041}, {"pitch": 77, "velocity": 64, "note_on_time": 89.756, "note_off_time": 90.777}, {"pitch": 79, "velocity": 66, "note_on_time": 90.087, "note_off_time": 90.855}, {"pitch": 74, "velocity": 60, "note_on_time": 91.018, "note_off_time": 91.303}, {"pitch": 72, "velocity": 56, "note_on_time": 90.705, "note_off_time": 91.581}, {"pitch": 76, "velocity": 62, "note_on_time": 91.308, "note_off_time": 91.924}, {"pitch": 77, "velocity": 60, "note_on_time": 91.613, "note_off_time": 93.207}, {"pitch": 79, "velocity": 70, "note_on_time": 91.92, "note_off_time": 93.453}, {"pitch": 76, "velocity": 65, "note_on_time": 94.367, "note_off_time": 94.8}, {"pitch": 77, "velocity": 59, "note_on_time": 94.052, "note_off_time": 94.815}, {"pitch": 79, "velocity": 77, "note_on_time": 93.76, "note_off_time": 94.817}, {"pitch": 74, "velocity": 58, "note_on_time": 94.651, "note_off_time": 95.044}, {"pitch": 72, "velocity": 74, "note_on_time": 94.962, "note_off_time": 96.031}, {"pitch": 77, "velocity": 61, "note_on_time": 95.873, "note_off_time": 96.818}, {"pitch": 79, "velocity": 67, "note_on_time": 95.539, "note_off_time": 96.832}, {"pitch": 74, "velocity": 47, "note_on_time": 96.483, "note_off_time": 96.878}, {"pitch": 76, "velocity": 61, "note_on_time": 96.149, "note_off_time": 96.918}, {"pitch": 72, "velocity": 80, "note_on_time": 96.77, "note_off_time": 97.97}, {"pitch": 76, "velocity": 62, "note_on_time": 97.997, "note_off_time": 98.673}, {"pitch": 77, "velocity": 60, "note_on_time": 97.657, "note_off_time": 98.681}, {"pitch": 79, "velocity": 62, "note_on_time": 97.365, "note_off_time": 98.698}, {"pitch": 74, "velocity": 60, "note_on_time": 98.309, "note_off_time": 98.724}, {"pitch": 72, "velocity": 78, "note_on_time": 98.618, "note_off_time": 99.576}, {"pitch": 77, "velocity": 61, "note_on_time": 99.495, "note_off_time": 100.27}, {"pitch": 76, "velocity": 62, "note_on_time": 99.813, "note_off_time": 100.445}, {"pitch": 74, "velocity": 63, "note_on_time": 100.09, "note_off_time": 100.454}, {"pitch": 79, "velocity": 60, "note_on_time": 99.212, "note_off_time": 100.489}, {"pitch": 72, "velocity": 83, "note_on_time": 100.371, "note_off_time": 102.127}, {"pitch": 74, "velocity": 72, "note_on_time": 102.295, "note_off_time": 102.663}, {"pitch": 76, "velocity": 70, "note_on_time": 102.568, "note_off_time": 103.293}, {"pitch": 77, "velocity": 77, "note_on_time": 102.863, "note_off_time": 103.479}, {"pitch": 79, "velocity": 59, "note_on_time": 103.176, "note_off_time": 103.804}, {"pitch": 74, "velocity": 72, "note_on_time": 104.123, "note_off_time": 104.493}, {"pitch": 72, "velocity": 86, "note_on_time": 103.495, "note_off_time": 104.506}, {"pitch": 76, "velocity": 71, "note_on_time": 104.389, "note_off_time": 104.86}, {"pitch": 77, "velocity": 72, "note_on_time": 104.697, "note_off_time": 105.374}, {"pitch": 79, "velocity": 68, "note_on_time": 105.006, "note_off_time": 105.473}, {"pitch": 72, "velocity": 72, "note_on_time": 105.31, "note_off_time": 106.258}, {"pitch": 74, "velocity": 75, "note_on_time": 105.911, "note_off_time": 106.479}, {"pitch": 76, "velocity": 66, "note_on_time": 106.206, "note_off_time": 106.828}, {"pitch": 77, "velocity": 62, "note_on_time": 106.488, "note_off_time": 107.092}, {"pitch": 79, "velocity": 62, "note_on_time": 106.786, "note_off_time": 107.755}, {"pitch": 72, "velocity": 65, "note_on_time": 107.121, "note_off_time": 107.837}, {"pitch": 74, "velocity": 66, "note_on_time": 107.774, "note_off_time": 108.166}, {"pitch": 76, "velocity": 68, "note_on_time": 108.047, "note_off_time": 108.624}, {"pitch": 77, "velocity": 61, "note_on_time": 108.343, "note_off_time": 108.791}, {"pitch": 79, "velocity": 68, "note_on_time": 108.644, "note_off_time": 109.078}, {"pitch": 72, "velocity": 74, "note_on_time": 108.939, "note_off_time": 110.657}, {"pitch": 77, "velocity": 64, "note_on_time": 110.837, "note_off_time": 111.5}, {"pitch": 76, "velocity": 64, "note_on_time": 111.097, "note_off_time": 111.739}, {"pitch": 74, "velocity": 59, "note_on_time": 111.402, "note_off_time": 111.747}, {"pitch": 72, "velocity": 74, "note_on_time": 111.657, "note_off_time": 112.278}, {"pitch": 77, "velocity": 61, "note_on_time": 112.531, "note_off_time": 113.299}, {"pitch": 76, "velocity": 60, "note_on_time": 112.868, "note_off_time": 113.316}, {"pitch": 79, "velocity": 69, "note_on_time": 111.966, "note_off_time": 113.433}, {"pitch": 74, "velocity": 57, "note_on_time": 113.152, "note_off_time": 113.505}, {"pitch": 72, "velocity": 79, "note_on_time": 113.431, "note_off_time": 114.47}, {"pitch": 76, "velocity": 59, "note_on_time": 114.728, "note_off_time": 115.13}, {"pitch": 77, "velocity": 64, "note_on_time": 114.427, "note_off_time": 115.177}, {"pitch": 79, "velocity": 70, "note_on_time": 113.759, "note_off_time": 115.374}, {"pitch": 74, "velocity": 55, "note_on_time": 115.017, "note_off_time": 115.395}, {"pitch": 72, "velocity": 80, "note_on_time": 115.335, "note_off_time": 116.379}, {"pitch": 76, "velocity": 64, "note_on_time": 116.55, "note_off_time": 116.99}, {"pitch": 77, "velocity": 65, "note_on_time": 116.252, "note_off_time": 117.04}, {"pitch": 79, "velocity": 64, "note_on_time": 115.653, "note_off_time": 117.141}, {"pitch": 74, "velocity": 66, "note_on_time": 116.829, "note_off_time": 117.206}, {"pitch": 79, "velocity": 77, "note_on_time": 117.447, "note_off_time": 119.055}, {"pitch": 72, "velocity": 74, "note_on_time": 117.122, "note_off_time": 119.266}, {"pitch": 76, "velocity": 66, "note_on_time": 119.272, "note_off_time": 119.967}, {"pitch": 77, "velocity": 68, "note_on_time": 119.59, "note_off_time": 120.219}, {"pitch": 79, "velocity": 69, "note_on_time": 119.893, "note_off_time": 120.521}, {"pitch": 74, "velocity": 64, "note_on_time": 120.189, "note_off_time": 120.718}, {"pitch": 72, "velocity": 64, "note_on_time": 120.487, "note_off_time": 121.803}, {"pitch": 76, "velocity": 64, "note_on_time": 121.131, "note_off_time": 121.825}, {"pitch": 77, "velocity": 62, "note_on_time": 121.386, "note_off_time": 121.921}, {"pitch": 74, "velocity": 60, "note_on_time": 122.04, "note_off_time": 122.395}, {"pitch": 79, "velocity": 60, "note_on_time": 121.714, "note_off_time": 123.087}, {"pitch": 72, "velocity": 72, "note_on_time": 122.317, "note_off_time": 123.276}, {"pitch": 76, "velocity": 65, "note_on_time": 122.98, "note_off_time": 123.595}, {"pitch": 76, "velocity": 36, "note_on_time": 123.912, "note_off_time": 123.987}, {"pitch": 77, "velocity": 60, "note_on_time": 123.286, "note_off_time": 124.003}, {"pitch": 74, "velocity": 72, "note_on_time": 123.952, "note_off_time": 124.402}, {"pitch": 79, "velocity": 71, "note_on_time": 123.559, "note_off_time": 124.46}, {"pitch": 72, "velocity": 72, "note_on_time": 124.231, "note_off_time": 124.961}, {"pitch": 76, "velocity": 72, "note_on_time": 124.839, "note_off_time": 125.423}, {"pitch": 77, "velocity": 60, "note_on_time": 125.102, "note_off_time": 125.64}, {"pitch": 79, "velocity": 67, "note_on_time": 125.373, "note_off_time": 125.945}, {"pitch": 74, "velocity": 51, "note_on_time": 125.675, "note_off_time": 126.135}, {"pitch": 72, "velocity": 68, "note_on_time": 126.004, "note_off_time": 127.723}, {"pitch": 76, "velocity": 55, "note_on_time": 127.772, "note_off_time": 128.235}, {"pitch": 74, "velocity": 67, "note_on_time": 128.095, "note_off_time": 128.521}, {"pitch": 72, "velocity": 70, "note_on_time": 128.405, "note_off_time": 129.149}, {"pitch": 77, "velocity": 62, "note_on_time": 128.698, "note_off_time": 129.383}, {"pitch": 79, "velocity": 68, "note_on_time": 129.018, "note_off_time": 129.985}, {"pitch": 76, "velocity": 60, "note_on_time": 129.647, "note_off_time": 130.03}, {"pitch": 74, "velocity": 68, "note_on_time": 129.943, "note_off_time": 130.448}, {"pitch": 72, "velocity": 63, "note_on_time": 130.25, "note_off_time": 130.694}, {"pitch": 77, "velocity": 66, "note_on_time": 130.544, "note_off_time": 131.839}, {"pitch": 79, "velocity": 73, "note_on_time": 130.83, "note_off_time": 131.881}, {"pitch": 76, "velocity": 55, "note_on_time": 131.444, "note_off_time": 131.934}, {"pitch": 74, "velocity": 66, "note_on_time": 131.75, "note_off_time": 132.135}, {"pitch": 72, "velocity": 74, "note_on_time": 132.05, "note_off_time": 132.681}, {"pitch": 76, "velocity": 55, "note_on_time": 133.312, "note_off_time": 133.739}, {"pitch": 77, "velocity": 66, "note_on_time": 132.374, "note_off_time": 133.771}, {"pitch": 79, "velocity": 70, "note_on_time": 132.67, "note_off_time": 133.805}, {"pitch": 74, "velocity": 54, "note_on_time": 133.583, "note_off_time": 134.009}, {"pitch": 72, "velocity": 78, "note_on_time": 133.896, "note_off_time": 134.556}, {"pitch": 77, "velocity": 72, "note_on_time": 134.202, "note_off_time": 135.91}, {"pitch": 79, "velocity": 72, "note_on_time": 134.509, "note_off_time": 135.93}, {"pitch": 79, "velocity": 66, "note_on_time": 136.648, "note_off_time": 137.014}, {"pitch": 77, "velocity": 65, "note_on_time": 136.342, "note_off_time": 137.144}, {"pitch": 74, "velocity": 63, "note_on_time": 137.255, "note_off_time": 137.673}, {"pitch": 76, "velocity": 58, "note_on_time": 136.922, "note_off_time": 137.679}, {"pitch": 72, "velocity": 73, "note_on_time": 137.556, "note_off_time": 138.101}, {"pitch": 79, "velocity": 61, "note_on_time": 138.427, "note_off_time": 139.112}, {"pitch": 77, "velocity": 69, "note_on_time": 138.12, "note_off_time": 139.144}, {"pitch": 76, "velocity": 64, "note_on_time": 138.74, "note_off_time": 139.385}, {"pitch": 74, "velocity": 68, "note_on_time": 139.024, "note_off_time": 139.418}, {"pitch": 72, "velocity": 78, "note_on_time": 139.327, "note_off_time": 140.069}, {"pitch": 79, "velocity": 47, "note_on_time": 140.32, "note_off_time": 140.962}, {"pitch": 77, "velocity": 69, "note_on_time": 139.974, "note_off_time": 141.189}, {"pitch": 76, "velocity": 61, "note_on_time": 140.612, "note_off_time": 141.317}, {"pitch": 74, "velocity": 66, "note_on_time": 140.868, "note_off_time": 142.542}, {"pitch": 72, "velocity": 78, "note_on_time": 141.184, "note_off_time": 143.415}, {"pitch": 74, "velocity": 66, "note_on_time": 143.612, "note_off_time": 143.954}, {"pitch": 72, "velocity": 84, "note_on_time": 143.904, "note_off_time": 144.58}, {"pitch": 76, "velocity": 69, "note_on_time": 144.175, "note_off_time": 144.831}, {"pitch": 77, "velocity": 73, "note_on_time": 144.49, "note_off_time": 145.51}, {"pitch": 76, "velocity": 66, "note_on_time": 145.393, "note_off_time": 145.575}, {"pitch": 79, "velocity": 74, "note_on_time": 144.779, "note_off_time": 146.934}, {"pitch": 74, "velocity": 71, "note_on_time": 145.511, "note_off_time": 148.29}, {"pitch": 74, "velocity": 72, "note_on_time": 148.493, "note_off_time": 148.809}, {"pitch": 72, "velocity": 76, "note_on_time": 148.797, "note_off_time": 149.482}, {"pitch": 76, "velocity": 67, "note_on_time": 149.08, "note_off_time": 149.699}, {"pitch": 77, "velocity": 66, "note_on_time": 149.409, "note_off_time": 150.382}, {"pitch": 79, "velocity": 77, "note_on_time": 149.708, "note_off_time": 150.633}, {"pitch": 74, "velocity": 67, "note_on_time": 150.297, "note_off_time": 150.652}, {"pitch": 72, "velocity": 67, "note_on_time": 150.586, "note_off_time": 151.012}, {"pitch": 76, "velocity": 63, "note_on_time": 151.048, "note_off_time": 151.298}, {"pitch": 77, "velocity": 63, "note_on_time": 151.265, "note_off_time": 152.276}, {"pitch": 79, "velocity": 70, "note_on_time": 151.562, "note_off_time": 152.316}, {"pitch": 74, "velocity": 54, "note_on_time": 152.131, "note_off_time": 152.393}, {"pitch": 72, "velocity": 65, "note_on_time": 152.348, "note_off_time": 152.612}, {"pitch": 76, "velocity": 73, "note_on_time": 152.677, "note_off_time": 152.991}, {"pitch": 77, "velocity": 72, "note_on_time": 152.971, "note_off_time": 154.302}, {"pitch": 74, "velocity": 61, "note_on_time": 153.924, "note_off_time": 154.31}, {"pitch": 79, "velocity": 68, "note_on_time": 153.298, "note_off_time": 154.397}, {"pitch": 72, "velocity": 74, "note_on_time": 154.254, "note_off_time": 154.826}, {"pitch": 76, "velocity": 66, "note_on_time": 154.582, "note_off_time": 154.881}, {"pitch": 77, "velocity": 65, "note_on_time": 154.84, "note_off_time": 157.012}, {"pitch": 79, "velocity": 70, "note_on_time": 155.166, "note_off_time": 157.681}, {"pitch": 74, "velocity": 50, "note_on_time": 158.548, "note_off_time": 158.853}, {"pitch": 72, "velocity": 58, "note_on_time": 158.218, "note_off_time": 159.224}, {"pitch": 76, "velocity": 61, "note_on_time": 158.801, "note_off_time": 159.381}, {"pitch": 77, "velocity": 52, "note_on_time": 159.129, "note_off_time": 160.147}, {"pitch": 79, "velocity": 64, "note_on_time": 159.39, "note_off_time": 160.626}, {"pitch": 74, "velocity": 66, "note_on_time": 160.364, "note_off_time": 160.935}, {"pitch": 72, "velocity": 60, "note_on_time": 160.043, "note_off_time": 160.964}, {"pitch": 76, "velocity": 65, "note_on_time": 160.66, "note_off_time": 161.55}, {"pitch": 77, "velocity": 61, "note_on_time": 160.955, "note_off_time": 161.871}, {"pitch": 79, "velocity": 58, "note_on_time": 161.293, "note_off_time": 161.978}, {"pitch": 74, "velocity": 44, "note_on_time": 162.19, "note_off_time": 162.578}, {"pitch": 72, "velocity": 77, "note_on_time": 161.842, "note_off_time": 162.8}, {"pitch": 76, "velocity": 60, "note_on_time": 162.457, "note_off_time": 163.738}, {"pitch": 77, "velocity": 62, "note_on_time": 162.772, "note_off_time": 163.747}, {"pitch": 79, "velocity": 65, "note_on_time": 163.117, "note_off_time": 163.81}, {"pitch": 74, "velocity": 57, "note_on_time": 163.998, "note_off_time": 164.413}, {"pitch": 72, "velocity": 65, "note_on_time": 163.713, "note_off_time": 164.528}, {"pitch": 76, "velocity": 62, "note_on_time": 164.287, "note_off_time": 164.932}, {"pitch": 77, "velocity": 40, "note_on_time": 164.582, "note_off_time": 166.334}, {"pitch": 79, "velocity": 71, "note_on_time": 164.861, "note_off_time": 166.418}, {"pitch": 77, "velocity": 48, "note_on_time": 167.075, "note_off_time": 167.532}, {"pitch": 79, "velocity": 61, "note_on_time": 166.775, "note_off_time": 167.817}, {"pitch": 76, "velocity": 62, "note_on_time": 167.408, "note_off_time": 167.939}, {"pitch": 74, "velocity": 60, "note_on_time": 167.69, "note_off_time": 168.105}, {"pitch": 72, "velocity": 69, "note_on_time": 167.962, "note_off_time": 168.976}, {"pitch": 77, "velocity": 57, "note_on_time": 168.855, "note_off_time": 169.599}, {"pitch": 76, "velocity": 54, "note_on_time": 169.183, "note_off_time": 169.66}, {"pitch": 79, "velocity": 62, "note_on_time": 168.591, "note_off_time": 169.82}, {"pitch": 74, "velocity": 60, "note_on_time": 169.447, "note_off_time": 169.918}, {"pitch": 72, "velocity": 72, "note_on_time": 169.807, "note_off_time": 171.106}, {"pitch": 79, "velocity": 55, "note_on_time": 170.42, "note_off_time": 171.153}, {"pitch": 77, "velocity": 58, "note_on_time": 170.695, "note_off_time": 171.356}, {"pitch": 76, "velocity": 28, "note_on_time": 171.012, "note_off_time": 171.601}, {"pitch": 74, "velocity": 68, "note_on_time": 171.342, "note_off_time": 171.74}, {"pitch": 72, "velocity": 70, "note_on_time": 171.611, "note_off_time": 173.107}, {"pitch": 79, "velocity": 71, "note_on_time": 172.222, "note_off_time": 173.162}, {"pitch": 77, "velocity": 72, "note_on_time": 172.517, "note_off_time": 173.216}, {"pitch": 76, "velocity": 64, "note_on_time": 172.778, "note_off_time": 173.45}, {"pitch": 74, "velocity": 65, "note_on_time": 173.093, "note_off_time": 173.575}, {"pitch": 72, "velocity": 63, "note_on_time": 173.412, "note_off_time": 175.261}, {"pitch": 72, "velocity": 1, "note_on_time": 175.717, "note_off_time": 175.922}, {"pitch": 74, "velocity": 79, "note_on_time": 175.316, "note_off_time": 175.956}, {"pitch": 77, "velocity": 67, "note_on_time": 175.88, "note_off_time": 176.517}, {"pitch": 76, "velocity": 56, "note_on_time": 175.578, "note_off_time": 176.559}, {"pitch": 79, "velocity": 60, "note_on_time": 176.199, "note_off_time": 176.627}, {"pitch": 74, "velocity": 58, "note_on_time": 177.104, "note_off_time": 177.639}, {"pitch": 76, "velocity": 59, "note_on_time": 177.377, "note_off_time": 178.004}, {"pitch": 72, "velocity": 80, "note_on_time": 176.505, "note_off_time": 178.11}, {"pitch": 77, "velocity": 62, "note_on_time": 177.665, "note_off_time": 178.191}, {"pitch": 79, "velocity": 61, "note_on_time": 177.968, "note_off_time": 178.497}, {"pitch": 72, "velocity": 74, "note_on_time": 178.32, "note_off_time": 179.406}, {"pitch": 74, "velocity": 61, "note_on_time": 178.955, "note_off_time": 179.474}, {"pitch": 76, "velocity": 63, "note_on_time": 179.258, "note_off_time": 179.933}, {"pitch": 77, "velocity": 49, "note_on_time": 179.573, "note_off_time": 180.167}, {"pitch": 79, "velocity": 59, "note_on_time": 179.836, "note_off_time": 180.183}, {"pitch": 72, "velocity": 74, "note_on_time": 180.113, "note_off_time": 180.844}, {"pitch": 74, "velocity": 69, "note_on_time": 180.726, "note_off_time": 181.244}, {"pitch": 76, "velocity": 53, "note_on_time": 181.028, "note_off_time": 181.669}, {"pitch": 77, "velocity": 53, "note_on_time": 181.381, "note_off_time": 181.804}, {"pitch": 79, "velocity": 66, "note_on_time": 181.646, "note_off_time": 183.388}, {"pitch": 72, "velocity": 72, "note_on_time": 181.936, "note_off_time": 184.082}, {"pitch": 74, "velocity": 43, "note_on_time": 184.09, "note_off_time": 184.23}, {"pitch": 77, "velocity": 67, "note_on_time": 183.73, "note_off_time": 184.36}, {"pitch": 76, "velocity": 37, "note_on_time": 184.072, "note_off_time": 184.751}, {"pitch": 74, "velocity": 59, "note_on_time": 184.366, "note_off_time": 184.809}, {"pitch": 72, "velocity": 76, "note_on_time": 184.672, "note_off_time": 185.609}, {"pitch": 79, "velocity": 74, "note_on_time": 184.979, "note_off_time": 186.245}, {"pitch": 77, "velocity": 74, "note_on_time": 185.575, "note_off_time": 186.364}, {"pitch": 76, "velocity": 67, "note_on_time": 185.858, "note_off_time": 186.566}, {"pitch": 74, "velocity": 60, "note_on_time": 186.156, "note_off_time": 186.569}, {"pitch": 72, "velocity": 71, "note_on_time": 186.451, "note_off_time": 187.749}, {"pitch": 77, "velocity": 63, "note_on_time": 187.402, "note_off_time": 188.138}, {"pitch": 76, "velocity": 69, "note_on_time": 187.672, "note_off_time": 188.175}, {"pitch": 79, "velocity": 66, "note_on_time": 186.782, "note_off_time": 188.224}, {"pitch": 74, "velocity": 60, "note_on_time": 188.012, "note_off_time": 188.353}, {"pitch": 72, "velocity": 72, "note_on_time": 188.26, "note_off_time": 189.586}, {"pitch": 77, "velocity": 56, "note_on_time": 189.205, "note_off_time": 190.051}, {"pitch": 79, "velocity": 66, "note_on_time": 188.613, "note_off_time": 190.075}, {"pitch": 74, "velocity": 58, "note_on_time": 189.811, "note_off_time": 190.202}, {"pitch": 76, "velocity": 62, "note_on_time": 189.495, "note_off_time": 190.223}, {"pitch": 79, "velocity": 67, "note_on_time": 190.427, "note_off_time": 191.92}, {"pitch": 72, "velocity": 64, "note_on_time": 190.092, "note_off_time": 192.617}, {"pitch": 76, "velocity": 72, "note_on_time": 192.25, "note_off_time": 192.956}, {"pitch": 77, "velocity": 68, "note_on_time": 192.564, "note_off_time": 193.218}, {"pitch": 79, "velocity": 79, "note_on_time": 192.85, "note_off_time": 193.43}, {"pitch": 74, "velocity": 66, "note_on_time": 193.14, "note_off_time": 193.636}]</notes><guidance name="Guidance Mode">None</guidance><error name="Error value">99</error></trial></trials></MIDI>