<MIDI midiNo="2024_02_26-10_46_57"><target_notes><notes name="Note List">[{"pitch": 60, "velocity": 40, "note_on_time": 0.009, "note_off_time": 1.01}, {"pitch": 64, "velocity": 40, "note_on_time": 0.009, "note_off_time": 1.012}, {"pitch": 67, "velocity": 40, "note_on_time": 0.009, "note_off_time": 1.012}, {"pitch": 48, "velocity": 40, "note_on_time": 0.01, "note_off_time": 1.012}, {"pitch": 52, "velocity": 40, "note_on_time": 1.012, "note_off_time": 2.029}, {"pitch": 55, "velocity": 40, "note_on_time": 1.012, "note_off_time": 2.029}, {"pitch": 76, "velocity": 40, "note_on_time": 2.028, "note_off_time": 3.042}, {"pitch": 48, "velocity": 40, "note_on_time": 2.029, "note_off_time": 3.043}, {"pitch": 52, "velocity": 40, "note_on_time": 3.043, "note_off_time": 4.052}, {"pitch": 55, "velocity": 40, "note_on_time": 3.043, "note_off_time": 4.052}, {"pitch": 48, "velocity": 40, "note_on_time": 4.052, "note_off_time": 5.057}, {"pitch": 52, "velocity": 40, "note_on_time": 5.057, "note_off_time": 6.071}, {"pitch": 55, "velocity": 40, "note_on_time": 5.057, "note_off_time": 6.071}, {"pitch": 48, "velocity": 40, "note_on_time": 6.071, "note_off_time": 7.085}, {"pitch": 52, "velocity": 40, "note_on_time": 7.085, "note_off_time": 8.088}, {"pitch": 55, "velocity": 40, "note_on_time": 7.085, "note_off_time": 8.088}, {"pitch": 60, "velocity": 40, "note_on_time": 8.087, "note_off_time": 9.09}, {"pitch": 64, "velocity": 40, "note_on_time": 8.087, "note_off_time": 9.09}, {"pitch": 67, "velocity": 40, "note_on_time": 8.088, "note_off_time": 9.091}, {"pitch": 48, "velocity": 40, "note_on_time": 8.088, "note_off_time": 9.091}, {"pitch": 52, "velocity": 40, "note_on_time": 9.091, "note_off_time": 10.103}, {"pitch": 55, "velocity": 40, "note_on_time": 9.091, "note_off_time": 10.104}, {"pitch": 77, "velocity": 40, "note_on_time": 10.103, "note_off_time": 11.104}, {"pitch": 48, "velocity": 40, "note_on_time": 10.104, "note_off_time": 11.104}, {"pitch": 52, "velocity": 40, "note_on_time": 11.105, "note_off_time": 12.111}, {"pitch": 55, "velocity": 40, "note_on_time": 11.105, "note_off_time": 12.111}, {"pitch": 48, "velocity": 40, "note_on_time": 12.111, "note_off_time": 13.114}, {"pitch": 52, "velocity": 40, "note_on_time": 13.114, "note_off_time": 14.122}, {"pitch": 55, "velocity": 40, "note_on_time": 13.114, "note_off_time": 14.122}, {"pitch": 48, "velocity": 40, "note_on_time": 14.122, "note_off_time": 15.135}, {"pitch": 52, "velocity": 40, "note_on_time": 15.135, "note_off_time": 16.151}, {"pitch": 55, "velocity": 40, "note_on_time": 15.135, "note_off_time": 16.152}, {"pitch": 60, "velocity": 40, "note_on_time": 16.15, "note_off_time": 17.157}, {"pitch": 64, "velocity": 40, "note_on_time": 16.151, "note_off_time": 17.157}, {"pitch": 67, "velocity": 40, "note_on_time": 16.151, "note_off_time": 17.158}, {"pitch": 48, "velocity": 40, "note_on_time": 16.152, "note_off_time": 17.158}, {"pitch": 52, "velocity": 40, "note_on_time": 17.158, "note_off_time": 18.162}, {"pitch": 55, "velocity": 40, "note_on_time": 17.158, "note_off_time": 18.162}, {"pitch": 74, "velocity": 40, "note_on_time": 18.162, "note_off_time": 19.164}, {"pitch": 48, "velocity": 40, "note_on_time": 18.162, "note_off_time": 19.164}, {"pitch": 52, "velocity": 40, "note_on_time": 19.164, "note_off_time": 20.179}, {"pitch": 55, "velocity": 40, "note_on_time": 19.165, "note_off_time": 20.179}, {"pitch": 48, "velocity": 40, "note_on_time": 20.179, "note_off_time": 21.18}, {"pitch": 52, "velocity": 40, "note_on_time": 21.18, "note_off_time": 22.182}, {"pitch": 55, "velocity": 40, "note_on_time": 21.18, "note_off_time": 22.182}, {"pitch": 48, "velocity": 40, "note_on_time": 22.182, "note_off_time": 23.184}, {"pitch": 52, "velocity": 40, "note_on_time": 23.184, "note_off_time": 24.188}, {"pitch": 55, "velocity": 40, "note_on_time": 23.184, "note_off_time": 24.189}, {"pitch": 60, "velocity": 40, "note_on_time": 24.187, "note_off_time": 25.199}, {"pitch": 64, "velocity": 40, "note_on_time": 24.188, "note_off_time": 25.2}, {"pitch": 67, "velocity": 40, "note_on_time": 24.188, "note_off_time": 25.2}, {"pitch": 48, "velocity": 40, "note_on_time": 24.189, "note_off_time": 25.2}, {"pitch": 52, "velocity": 40, "note_on_time": 25.201, "note_off_time": 26.212}, {"pitch": 55, "velocity": 40, "note_on_time": 25.201, "note_off_time": 26.212}, {"pitch": 76, "velocity": 40, "note_on_time": 26.212, "note_off_time": 27.214}, {"pitch": 48, "velocity": 40, "note_on_time": 26.213, "note_off_time": 27.215}, {"pitch": 52, "velocity": 40, "note_on_time": 27.215, "note_off_time": 28.221}, {"pitch": 55, "velocity": 40, "note_on_time": 27.215, "note_off_time": 28.221}, {"pitch": 48, "velocity": 40, "note_on_time": 28.221, "note_off_time": 29.229}, {"pitch": 52, "velocity": 40, "note_on_time": 29.229, "note_off_time": 30.244}, {"pitch": 55, "velocity": 40, "note_on_time": 29.229, "note_off_time": 30.244}, {"pitch": 48, "velocity": 40, "note_on_time": 30.244, "note_off_time": 31.26}, {"pitch": 52, "velocity": 40, "note_on_time": 31.26, "note_off_time": 32.27}, {"pitch": 55, "velocity": 40, "note_on_time": 31.26, "note_off_time": 32.271}, {"pitch": 60, "velocity": 40, "note_on_time": 32.269, "note_off_time": 33.286}, {"pitch": 64, "velocity": 40, "note_on_time": 32.27, "note_off_time": 33.287}, {"pitch": 67, "velocity": 40, "note_on_time": 32.27, "note_off_time": 33.288}, {"pitch": 48, "velocity": 40, "note_on_time": 32.271, "note_off_time": 33.288}, {"pitch": 52, "velocity": 40, "note_on_time": 33.288, "note_off_time": 34.304}, {"pitch": 55, "velocity": 40, "note_on_time": 33.288, "note_off_time": 34.305}, {"pitch": 77, "velocity": 40, "note_on_time": 34.304, "note_off_time": 35.319}, {"pitch": 48, "velocity": 40, "note_on_time": 34.305, "note_off_time": 35.32}, {"pitch": 52, "velocity": 40, "note_on_time": 35.32, "note_off_time": 36.333}, {"pitch": 55, "velocity": 40, "note_on_time": 35.32, "note_off_time": 36.333}, {"pitch": 48, "velocity": 40, "note_on_time": 36.333, "note_off_time": 37.346}, {"pitch": 52, "velocity": 40, "note_on_time": 37.346, "note_off_time": 38.358}, {"pitch": 55, "velocity": 40, "note_on_time": 37.346, "note_off_time": 38.358}, {"pitch": 48, "velocity": 40, "note_on_time": 38.358, "note_off_time": 39.373}, {"pitch": 52, "velocity": 40, "note_on_time": 39.373, "note_off_time": 40.376}, {"pitch": 55, "velocity": 40, "note_on_time": 39.373, "note_off_time": 40.376}, {"pitch": 60, "velocity": 40, "note_on_time": 40.375, "note_off_time": 41.393}, {"pitch": 64, "velocity": 40, "note_on_time": 40.376, "note_off_time": 41.393}, {"pitch": 67, "velocity": 40, "note_on_time": 40.376, "note_off_time": 41.394}, {"pitch": 72, "velocity": 40, "note_on_time": 42.401, "note_off_time": 43.414}, {"pitch": 60, "velocity": 40, "note_on_time": 48.425, "note_off_time": 49.44}, {"pitch": 64, "velocity": 40, "note_on_time": 48.426, "note_off_time": 49.441}, {"pitch": 67, "velocity": 40, "note_on_time": 48.426, "note_off_time": 49.441}, {"pitch": 74, "velocity": 40, "note_on_time": 50.447, "note_off_time": 51.46}, {"pitch": 60, "velocity": 40, "note_on_time": 56.461, "note_off_time": 57.478}, {"pitch": 64, "velocity": 40, "note_on_time": 56.462, "note_off_time": 57.478}, {"pitch": 67, "velocity": 40, "note_on_time": 56.462, "note_off_time": 57.48}, {"pitch": 77, "velocity": 40, "note_on_time": 58.482, "note_off_time": 59.486}, {"pitch": 60, "velocity": 40, "note_on_time": 64.491, "note_off_time": 65.495}, {"pitch": 64, "velocity": 40, "note_on_time": 64.492, "note_off_time": 65.495}, {"pitch": 67, "velocity": 40, "note_on_time": 64.492, "note_off_time": 65.496}, {"pitch": 79, "velocity": 40, "note_on_time": 66.498, "note_off_time": 67.5}, {"pitch": 60, "velocity": 40, "note_on_time": 72.501, "note_off_time": 73.511}, {"pitch": 64, "velocity": 40, "note_on_time": 72.502, "note_off_time": 73.512}, {"pitch": 67, "velocity": 40, "note_on_time": 72.503, "note_off_time": 73.512}, {"pitch": 76, "velocity": 40, "note_on_time": 74.529, "note_off_time": 75.532}, {"pitch": 60, "velocity": 40, "note_on_time": 80.54, "note_off_time": 81.548}, {"pitch": 64, "velocity": 40, "note_on_time": 80.541, "note_off_time": 81.549}, {"pitch": 67, "velocity": 40, "note_on_time": 80.541, "note_off_time": 81.549}, {"pitch": 72, "velocity": 40, "note_on_time": 82.557, "note_off_time": 83.572}, {"pitch": 60, "velocity": 40, "note_on_time": 88.586, "note_off_time": 89.589}, {"pitch": 64, "velocity": 40, "note_on_time": 88.587, "note_off_time": 89.59}, {"pitch": 67, "velocity": 40, "note_on_time": 88.587, "note_off_time": 89.59}, {"pitch": 79, "velocity": 40, "note_on_time": 90.601, "note_off_time": 91.612}, {"pitch": 60, "velocity": 40, "note_on_time": 96.623, "note_off_time": 97.638}, {"pitch": 64, "velocity": 40, "note_on_time": 96.624, "note_off_time": 97.639}, {"pitch": 67, "velocity": 40, "note_on_time": 96.624, "note_off_time": 97.64}, {"pitch": 74, "velocity": 40, "note_on_time": 98.647, "note_off_time": 99.663}, {"pitch": 60, "velocity": 40, "note_on_time": 104.664, "note_off_time": 105.674}, {"pitch": 64, "velocity": 40, "note_on_time": 104.665, "note_off_time": 105.675}, {"pitch": 67, "velocity": 40, "note_on_time": 104.666, "note_off_time": 105.676}, {"pitch": 72, "velocity": 40, "note_on_time": 106.679, "note_off_time": 107.682}, {"pitch": 60, "velocity": 40, "note_on_time": 112.696, "note_off_time": 113.7}, {"pitch": 64, "velocity": 40, "note_on_time": 112.697, "note_off_time": 113.701}, {"pitch": 67, "velocity": 40, "note_on_time": 112.697, "note_off_time": 113.702}, {"pitch": 76, "velocity": 40, "note_on_time": 114.705, "note_off_time": 115.719}, {"pitch": 60, "velocity": 40, "note_on_time": 120.733, "note_off_time": 121.738}, {"pitch": 64, "velocity": 40, "note_on_time": 120.734, "note_off_time": 121.739}, {"pitch": 67, "velocity": 40, "note_on_time": 120.734, "note_off_time": 121.739}, {"pitch": 79, "velocity": 40, "note_on_time": 122.742, "note_off_time": 123.754}, {"pitch": 60, "velocity": 40, "note_on_time": 128.767, "note_off_time": 129.782}, {"pitch": 64, "velocity": 40, "note_on_time": 128.767, "note_off_time": 129.783}, {"pitch": 67, "velocity": 40, "note_on_time": 128.768, "note_off_time": 129.784}, {"pitch": 77, "velocity": 40, "note_on_time": 130.795, "note_off_time": 131.796}, {"pitch": 60, "velocity": 40, "note_on_time": 136.805, "note_off_time": 137.821}, {"pitch": 64, "velocity": 40, "note_on_time": 136.806, "note_off_time": 137.822}, {"pitch": 67, "velocity": 40, "note_on_time": 136.806, "note_off_time": 137.823}, {"pitch": 74, "velocity": 40, "note_on_time": 138.827, "note_off_time": 139.83}, {"pitch": 60, "velocity": 40, "note_on_time": 144.837, "note_off_time": 145.843}, {"pitch": 64, "velocity": 40, "note_on_time": 144.838, "note_off_time": 145.844}, {"pitch": 67, "velocity": 40, "note_on_time": 144.838, "note_off_time": 145.845}, {"pitch": 72, "velocity": 40, "note_on_time": 146.858, "note_off_time": 147.868}, {"pitch": 60, "velocity": 40, "note_on_time": 152.872, "note_off_time": 153.89}, {"pitch": 64, "velocity": 40, "note_on_time": 152.873, "note_off_time": 153.891}, {"pitch": 67, "velocity": 40, "note_on_time": 152.874, "note_off_time": 153.892}, {"pitch": 79, "velocity": 40, "note_on_time": 154.903, "note_off_time": 155.904}, {"pitch": 60, "velocity": 40, "note_on_time": 160.91, "note_off_time": 161.922}, {"pitch": 64, "velocity": 40, "note_on_time": 160.911, "note_off_time": 161.922}, {"pitch": 67, "velocity": 40, "note_on_time": 160.911, "note_off_time": 161.923}, {"pitch": 76, "velocity": 40, "note_on_time": 162.924, "note_off_time": 163.938}]</notes><options name="Option List">((4, 4), [0.5, 0.25], 3, 8, &lt;NoteRangePerHand.TWO_NOTES: 3&gt;, &lt;NoteRangePerHand.ONE_NOTE: 2&gt;, False, True, True, 100)</options></target_notes><trials><trial trial_no="1" timestamp="2024_02_26-10_44_13"><notes name="Played Notes">[{"pitch": 79, "velocity": 18, "note_on_time": 3.079, "note_off_time": 3.845}, {"pitch": 77, "velocity": 61, "note_on_time": 4.403, "note_off_time": 4.92}, {"pitch": 79, "velocity": 23, "note_on_time": 11.699, "note_off_time": 12.438}, {"pitch": 77, "velocity": 64, "note_on_time": 13.013, "note_off_time": 13.579}, {"pitch": 74, "velocity": 45, "note_on_time": 19.929, "note_off_time": 20.7}, {"pitch": 77, "velocity": 17, "note_on_time": 27.967, "note_off_time": 28.474}, {"pitch": 79, "velocity": 34, "note_on_time": 28.977, "note_off_time": 29.504}, {"pitch": 76, "velocity": 65, "note_on_time": 30.265, "note_off_time": 30.777}, {"pitch": 77, "velocity": 39, "note_on_time": 36.094, "note_off_time": 36.961}, {"pitch": 72, "velocity": 46, "note_on_time": 44.35, "note_off_time": 45.326}, {"pitch": 74, "velocity": 40, "note_on_time": 52.243, "note_off_time": 53.313}, {"pitch": 77, "velocity": 55, "note_on_time": 60.405, "note_off_time": 61.296}, {"pitch": 79, "velocity": 28, "note_on_time": 68.217, "note_off_time": 69.308}, {"pitch": 76, "velocity": 42, "note_on_time": 76.3, "note_off_time": 77.487}, {"pitch": 77, "velocity": 49, "note_on_time": 84.378, "note_off_time": 84.768}, {"pitch": 74, "velocity": 56, "note_on_time": 85.286, "note_off_time": 85.934}, {"pitch": 72, "velocity": 41, "note_on_time": 86.479, "note_off_time": 87.235}, {"pitch": 79, "velocity": 27, "note_on_time": 92.356, "note_off_time": 93.52}, {"pitch": 74, "velocity": 52, "note_on_time": 100.657, "note_off_time": 102.278}, {"pitch": 72, "velocity": 33, "note_on_time": 108.54, "note_off_time": 109.694}, {"pitch": 76, "velocity": 50, "note_on_time": 116.691, "note_off_time": 117.989}, {"pitch": 77, "velocity": 46, "note_on_time": 124.664, "note_off_time": 125.149}, {"pitch": 79, "velocity": 62, "note_on_time": 125.627, "note_off_time": 126.495}, {"pitch": 76, "velocity": 36, "note_on_time": 132.811, "note_off_time": 134.795}, {"pitch": 74, "velocity": 47, "note_on_time": 140.791, "note_off_time": 142.135}, {"pitch": 72, "velocity": 35, "note_on_time": 148.592, "note_off_time": 149.699}, {"pitch": 79, "velocity": 41, "note_on_time": 156.72, "note_off_time": 157.879}]</notes><guidance name="Guidance Mode">None</guidance><error name="Error value">99</error></trial></trials></MIDI>