<MIDI midiNo="2024_03_04-14_19_40"><target_notes><notes name="Note List">[{"pitch": 60, "velocity": 40, "note_on_time": 0.012, "note_off_time": 1.016}, {"pitch": 64, "velocity": 40, "note_on_time": 0.012, "note_off_time": 1.016}, {"pitch": 67, "velocity": 40, "note_on_time": 0.012, "note_off_time": 1.017}, {"pitch": 48, "velocity": 40, "note_on_time": 0.012, "note_off_time": 1.017}, {"pitch": 52, "velocity": 40, "note_on_time": 1.017, "note_off_time": 2.019}, {"pitch": 55, "velocity": 40, "note_on_time": 1.017, "note_off_time": 2.019}, {"pitch": 72, "velocity": 40, "note_on_time": 2.018, "note_off_time": 3.021}, {"pitch": 48, "velocity": 40, "note_on_time": 2.019, "note_off_time": 3.022}, {"pitch": 52, "velocity": 40, "note_on_time": 3.022, "note_off_time": 4.025}, {"pitch": 55, "velocity": 40, "note_on_time": 3.022, "note_off_time": 4.025}, {"pitch": 48, "velocity": 40, "note_on_time": 4.025, "note_off_time": 5.028}, {"pitch": 52, "velocity": 40, "note_on_time": 5.028, "note_off_time": 6.029}, {"pitch": 55, "velocity": 40, "note_on_time": 5.028, "note_off_time": 6.029}, {"pitch": 48, "velocity": 40, "note_on_time": 6.029, "note_off_time": 7.031}, {"pitch": 52, "velocity": 40, "note_on_time": 7.031, "note_off_time": 8.037}, {"pitch": 55, "velocity": 40, "note_on_time": 7.031, "note_off_time": 8.037}, {"pitch": 60, "velocity": 40, "note_on_time": 8.036, "note_off_time": 9.051}, {"pitch": 64, "velocity": 40, "note_on_time": 8.037, "note_off_time": 9.052}, {"pitch": 67, "velocity": 40, "note_on_time": 8.037, "note_off_time": 9.053}, {"pitch": 48, "velocity": 40, "note_on_time": 8.037, "note_off_time": 9.053}, {"pitch": 52, "velocity": 40, "note_on_time": 9.053, "note_off_time": 10.055}, {"pitch": 55, "velocity": 40, "note_on_time": 9.053, "note_off_time": 10.056}, {"pitch": 77, "velocity": 40, "note_on_time": 10.055, "note_off_time": 11.058}, {"pitch": 48, "velocity": 40, "note_on_time": 10.056, "note_off_time": 11.058}, {"pitch": 52, "velocity": 40, "note_on_time": 11.06, "note_off_time": 12.067}, {"pitch": 55, "velocity": 40, "note_on_time": 11.06, "note_off_time": 12.067}, {"pitch": 48, "velocity": 40, "note_on_time": 12.067, "note_off_time": 13.071}, {"pitch": 52, "velocity": 40, "note_on_time": 13.071, "note_off_time": 14.08}, {"pitch": 55, "velocity": 40, "note_on_time": 13.071, "note_off_time": 14.08}, {"pitch": 48, "velocity": 40, "note_on_time": 14.08, "note_off_time": 15.094}, {"pitch": 52, "velocity": 40, "note_on_time": 15.094, "note_off_time": 16.106}, {"pitch": 55, "velocity": 40, "note_on_time": 15.094, "note_off_time": 16.107}, {"pitch": 60, "velocity": 40, "note_on_time": 16.105, "note_off_time": 17.122}, {"pitch": 64, "velocity": 40, "note_on_time": 16.106, "note_off_time": 17.123}, {"pitch": 67, "velocity": 40, "note_on_time": 16.106, "note_off_time": 17.124}, {"pitch": 48, "velocity": 40, "note_on_time": 16.107, "note_off_time": 17.124}, {"pitch": 52, "velocity": 40, "note_on_time": 17.124, "note_off_time": 18.129}, {"pitch": 55, "velocity": 40, "note_on_time": 17.124, "note_off_time": 18.13}, {"pitch": 79, "velocity": 40, "note_on_time": 18.129, "note_off_time": 19.137}, {"pitch": 48, "velocity": 40, "note_on_time": 18.13, "note_off_time": 19.137}, {"pitch": 52, "velocity": 40, "note_on_time": 19.138, "note_off_time": 20.149}, {"pitch": 55, "velocity": 40, "note_on_time": 19.138, "note_off_time": 20.149}, {"pitch": 48, "velocity": 40, "note_on_time": 20.149, "note_off_time": 21.158}, {"pitch": 52, "velocity": 40, "note_on_time": 21.158, "note_off_time": 22.162}, {"pitch": 55, "velocity": 40, "note_on_time": 21.158, "note_off_time": 22.162}, {"pitch": 48, "velocity": 40, "note_on_time": 22.162, "note_off_time": 23.17}, {"pitch": 52, "velocity": 40, "note_on_time": 23.17, "note_off_time": 24.176}, {"pitch": 55, "velocity": 40, "note_on_time": 23.17, "note_off_time": 24.177}, {"pitch": 60, "velocity": 40, "note_on_time": 24.175, "note_off_time": 25.191}, {"pitch": 64, "velocity": 40, "note_on_time": 24.176, "note_off_time": 25.192}, {"pitch": 67, "velocity": 40, "note_on_time": 24.176, "note_off_time": 25.193}, {"pitch": 48, "velocity": 40, "note_on_time": 24.177, "note_off_time": 25.193}, {"pitch": 52, "velocity": 40, "note_on_time": 25.193, "note_off_time": 26.197}, {"pitch": 55, "velocity": 40, "note_on_time": 25.193, "note_off_time": 26.197}, {"pitch": 72, "velocity": 40, "note_on_time": 26.197, "note_off_time": 27.206}, {"pitch": 48, "velocity": 40, "note_on_time": 26.197, "note_off_time": 27.207}, {"pitch": 52, "velocity": 40, "note_on_time": 27.207, "note_off_time": 28.212}, {"pitch": 55, "velocity": 40, "note_on_time": 27.207, "note_off_time": 28.212}, {"pitch": 48, "velocity": 40, "note_on_time": 28.212, "note_off_time": 29.213}, {"pitch": 52, "velocity": 40, "note_on_time": 29.213, "note_off_time": 30.228}, {"pitch": 55, "velocity": 40, "note_on_time": 29.213, "note_off_time": 30.228}, {"pitch": 48, "velocity": 40, "note_on_time": 30.228, "note_off_time": 31.244}, {"pitch": 52, "velocity": 40, "note_on_time": 31.244, "note_off_time": 32.249}, {"pitch": 55, "velocity": 40, "note_on_time": 31.244, "note_off_time": 32.249}, {"pitch": 60, "velocity": 40, "note_on_time": 32.248, "note_off_time": 33.263}, {"pitch": 64, "velocity": 40, "note_on_time": 32.248, "note_off_time": 33.264}, {"pitch": 67, "velocity": 40, "note_on_time": 32.249, "note_off_time": 33.265}, {"pitch": 48, "velocity": 40, "note_on_time": 32.249, "note_off_time": 33.265}, {"pitch": 52, "velocity": 40, "note_on_time": 33.265, "note_off_time": 34.28}, {"pitch": 55, "velocity": 40, "note_on_time": 33.265, "note_off_time": 34.281}, {"pitch": 77, "velocity": 40, "note_on_time": 34.28, "note_off_time": 35.296}, {"pitch": 48, "velocity": 40, "note_on_time": 34.281, "note_off_time": 35.297}, {"pitch": 52, "velocity": 40, "note_on_time": 35.297, "note_off_time": 36.306}, {"pitch": 55, "velocity": 40, "note_on_time": 35.297, "note_off_time": 36.306}, {"pitch": 48, "velocity": 40, "note_on_time": 36.306, "note_off_time": 37.31}, {"pitch": 52, "velocity": 40, "note_on_time": 37.31, "note_off_time": 38.313}, {"pitch": 55, "velocity": 40, "note_on_time": 37.31, "note_off_time": 38.313}, {"pitch": 48, "velocity": 40, "note_on_time": 38.313, "note_off_time": 39.316}, {"pitch": 52, "velocity": 40, "note_on_time": 39.316, "note_off_time": 40.329}, {"pitch": 55, "velocity": 40, "note_on_time": 39.316, "note_off_time": 40.33}, {"pitch": 60, "velocity": 40, "note_on_time": 40.328, "note_off_time": 41.344}, {"pitch": 64, "velocity": 40, "note_on_time": 40.329, "note_off_time": 41.345}, {"pitch": 67, "velocity": 40, "note_on_time": 40.329, "note_off_time": 41.345}, {"pitch": 74, "velocity": 40, "note_on_time": 42.347, "note_off_time": 43.35}, {"pitch": 60, "velocity": 40, "note_on_time": 48.354, "note_off_time": 49.37}, {"pitch": 64, "velocity": 40, "note_on_time": 48.355, "note_off_time": 49.371}, {"pitch": 67, "velocity": 40, "note_on_time": 48.355, "note_off_time": 49.372}, {"pitch": 77, "velocity": 40, "note_on_time": 50.387, "note_off_time": 51.402}, {"pitch": 60, "velocity": 40, "note_on_time": 56.412, "note_off_time": 57.426}, {"pitch": 64, "velocity": 40, "note_on_time": 56.413, "note_off_time": 57.427}, {"pitch": 67, "velocity": 40, "note_on_time": 56.413, "note_off_time": 57.427}, {"pitch": 79, "velocity": 40, "note_on_time": 58.437, "note_off_time": 59.441}, {"pitch": 60, "velocity": 40, "note_on_time": 64.454, "note_off_time": 65.458}, {"pitch": 64, "velocity": 40, "note_on_time": 64.455, "note_off_time": 65.459}, {"pitch": 67, "velocity": 40, "note_on_time": 64.455, "note_off_time": 65.46}, {"pitch": 76, "velocity": 40, "note_on_time": 66.467, "note_off_time": 67.473}, {"pitch": 60, "velocity": 40, "note_on_time": 72.484, "note_off_time": 73.495}, {"pitch": 64, "velocity": 40, "note_on_time": 72.485, "note_off_time": 73.496}, {"pitch": 67, "velocity": 40, "note_on_time": 72.485, "note_off_time": 73.496}, {"pitch": 74, "velocity": 40, "note_on_time": 74.511, "note_off_time": 75.515}, {"pitch": 60, "velocity": 40, "note_on_time": 80.517, "note_off_time": 81.531}, {"pitch": 64, "velocity": 40, "note_on_time": 80.517, "note_off_time": 81.532}, {"pitch": 67, "velocity": 40, "note_on_time": 80.518, "note_off_time": 81.532}, {"pitch": 76, "velocity": 40, "note_on_time": 82.541, "note_off_time": 83.551}, {"pitch": 60, "velocity": 40, "note_on_time": 88.563, "note_off_time": 89.576}, {"pitch": 64, "velocity": 40, "note_on_time": 88.564, "note_off_time": 89.577}, {"pitch": 67, "velocity": 40, "note_on_time": 88.564, "note_off_time": 89.578}, {"pitch": 74, "velocity": 40, "note_on_time": 90.591, "note_off_time": 91.598}, {"pitch": 60, "velocity": 40, "note_on_time": 96.611, "note_off_time": 97.614}, {"pitch": 64, "velocity": 40, "note_on_time": 96.613, "note_off_time": 97.615}, {"pitch": 67, "velocity": 40, "note_on_time": 96.613, "note_off_time": 97.615}, {"pitch": 76, "velocity": 40, "note_on_time": 98.629, "note_off_time": 99.634}, {"pitch": 60, "velocity": 40, "note_on_time": 104.64, "note_off_time": 105.65}, {"pitch": 64, "velocity": 40, "note_on_time": 104.641, "note_off_time": 105.651}, {"pitch": 67, "velocity": 40, "note_on_time": 104.641, "note_off_time": 105.652}, {"pitch": 79, "velocity": 40, "note_on_time": 106.661, "note_off_time": 107.663}, {"pitch": 60, "velocity": 40, "note_on_time": 112.671, "note_off_time": 113.68}, {"pitch": 64, "velocity": 40, "note_on_time": 112.672, "note_off_time": 113.681}, {"pitch": 67, "velocity": 40, "note_on_time": 112.672, "note_off_time": 113.682}, {"pitch": 77, "velocity": 40, "note_on_time": 114.689, "note_off_time": 115.699}, {"pitch": 60, "velocity": 40, "note_on_time": 120.707, "note_off_time": 121.724}, {"pitch": 64, "velocity": 40, "note_on_time": 120.708, "note_off_time": 121.724}, {"pitch": 67, "velocity": 40, "note_on_time": 120.708, "note_off_time": 121.725}, {"pitch": 79, "velocity": 40, "note_on_time": 122.737, "note_off_time": 123.742}, {"pitch": 60, "velocity": 40, "note_on_time": 128.753, "note_off_time": 129.758}, {"pitch": 64, "velocity": 40, "note_on_time": 128.753, "note_off_time": 129.759}, {"pitch": 67, "velocity": 40, "note_on_time": 128.754, "note_off_time": 129.759}, {"pitch": 76, "velocity": 40, "note_on_time": 130.765, "note_off_time": 131.781}, {"pitch": 60, "velocity": 40, "note_on_time": 136.788, "note_off_time": 137.795}, {"pitch": 64, "velocity": 40, "note_on_time": 136.789, "note_off_time": 137.796}, {"pitch": 67, "velocity": 40, "note_on_time": 136.789, "note_off_time": 137.797}, {"pitch": 72, "velocity": 40, "note_on_time": 138.8, "note_off_time": 139.808}, {"pitch": 60, "velocity": 40, "note_on_time": 144.813, "note_off_time": 145.82}, {"pitch": 64, "velocity": 40, "note_on_time": 144.814, "note_off_time": 145.821}, {"pitch": 67, "velocity": 40, "note_on_time": 144.814, "note_off_time": 145.821}, {"pitch": 74, "velocity": 40, "note_on_time": 146.825, "note_off_time": 147.837}, {"pitch": 60, "velocity": 40, "note_on_time": 152.852, "note_off_time": 153.867}, {"pitch": 64, "velocity": 40, "note_on_time": 152.853, "note_off_time": 153.868}, {"pitch": 67, "velocity": 40, "note_on_time": 152.853, "note_off_time": 153.868}, {"pitch": 72, "velocity": 40, "note_on_time": 154.873, "note_off_time": 155.885}, {"pitch": 60, "velocity": 40, "note_on_time": 160.89, "note_off_time": 161.903}, {"pitch": 64, "velocity": 40, "note_on_time": 160.891, "note_off_time": 161.904}, {"pitch": 67, "velocity": 40, "note_on_time": 160.891, "note_off_time": 161.904}, {"pitch": 72, "velocity": 40, "note_on_time": 162.911, "note_off_time": 163.914}]</notes><options name="Option List">((4, 4), [0.5, 0.25], 3, 8, &lt;NoteRangePerHand.TWO_NOTES: 3&gt;, &lt;NoteRangePerHand.ONE_NOTE: 2&gt;, False, True, True, 100)</options></target_notes><trials><trial trial_no="1" timestamp="2024_03_04-14_16_56"><notes name="Played Notes">[{"pitch": 74, "velocity": 90, "note_on_time": 2.922, "note_off_time": 3.42}, {"pitch": 72, "velocity": 25, "note_on_time": 11.188, "note_off_time": 11.412}, {"pitch": 74, "velocity": 30, "note_on_time": 13.406, "note_off_time": 13.599}, {"pitch": 76, "velocity": 40, "note_on_time": 14.728, "note_off_time": 14.974}, {"pitch": 77, "velocity": 30, "note_on_time": 15.457, "note_off_time": 15.675}, {"pitch": 79, "velocity": 13, "note_on_time": 16.294, "note_off_time": 16.551}, {"pitch": 72, "velocity": 1, "note_on_time": 19.584, "note_off_time": 19.883}, {"pitch": 72, "velocity": 39, "note_on_time": 20.269, "note_off_time": 20.53}, {"pitch": 74, "velocity": 30, "note_on_time": 23.164, "note_off_time": 23.403}, {"pitch": 79, "velocity": 49, "note_on_time": 27.778, "note_off_time": 28.082}, {"pitch": 74, "velocity": 60, "note_on_time": 35.006, "note_off_time": 35.26}, {"pitch": 72, "velocity": 61, "note_on_time": 43.382, "note_off_time": 43.612}, {"pitch": 74, "velocity": 1, "note_on_time": 51.561, "note_off_time": 51.887}, {"pitch": 76, "velocity": 1, "note_on_time": 56.11, "note_off_time": 56.41}, {"pitch": 79, "velocity": 36, "note_on_time": 60.301, "note_off_time": 60.519}, {"pitch": 77, "velocity": 14, "note_on_time": 61.282, "note_off_time": 61.511}, {"pitch": 72, "velocity": 1, "note_on_time": 62.874, "note_off_time": 63.082}, {"pitch": 74, "velocity": 23, "note_on_time": 63.889, "note_off_time": 64.177}, {"pitch": 76, "velocity": 33, "note_on_time": 64.543, "note_off_time": 64.755}, {"pitch": 74, "velocity": 46, "note_on_time": 67.331, "note_off_time": 67.545}, {"pitch": 76, "velocity": 13, "note_on_time": 68.374, "note_off_time": 68.719}, {"pitch": 77, "velocity": 26, "note_on_time": 69.394, "note_off_time": 69.77}, {"pitch": 79, "velocity": 30, "note_on_time": 70.26, "note_off_time": 71.046}, {"pitch": 72, "velocity": 1, "note_on_time": 71.265, "note_off_time": 71.618}, {"pitch": 74, "velocity": 1, "note_on_time": 76.51, "note_off_time": 76.956}, {"pitch": 74, "velocity": 59, "note_on_time": 77.144, "note_off_time": 77.464}, {"pitch": 72, "velocity": 18, "note_on_time": 77.935, "note_off_time": 78.212}, {"pitch": 76, "velocity": 42, "note_on_time": 78.571, "note_off_time": 78.997}, {"pitch": 76, "velocity": 30, "note_on_time": 79.41, "note_off_time": 79.762}, {"pitch": 76, "velocity": 40, "note_on_time": 80.153, "note_off_time": 80.44}, {"pitch": 72, "velocity": 40, "note_on_time": 83.437, "note_off_time": 83.725}, {"pitch": 72, "velocity": 1, "note_on_time": 86.981, "note_off_time": 88.193}, {"pitch": 72, "velocity": 70, "note_on_time": 92.513, "note_off_time": 92.825}, {"pitch": 74, "velocity": 75, "note_on_time": 93.335, "note_off_time": 93.612}, {"pitch": 76, "velocity": 36, "note_on_time": 93.904, "note_off_time": 94.175}, {"pitch": 76, "velocity": 47, "note_on_time": 94.408, "note_off_time": 94.705}, {"pitch": 72, "velocity": 34, "note_on_time": 100.399, "note_off_time": 100.673}, {"pitch": 72, "velocity": 59, "note_on_time": 103.419, "note_off_time": 103.736}, {"pitch": 74, "velocity": 58, "note_on_time": 104.196, "note_off_time": 104.417}, {"pitch": 76, "velocity": 49, "note_on_time": 104.744, "note_off_time": 105.514}, {"pitch": 77, "velocity": 46, "note_on_time": 108.979, "note_off_time": 109.311}, {"pitch": 77, "velocity": 19, "note_on_time": 109.85, "note_off_time": 110.173}, {"pitch": 79, "velocity": 42, "note_on_time": 110.672, "note_off_time": 111.053}, {"pitch": 77, "velocity": 62, "note_on_time": 112.711, "note_off_time": 113.039}, {"pitch": 74, "velocity": 61, "note_on_time": 116.674, "note_off_time": 117.014}, {"pitch": 76, "velocity": 37, "note_on_time": 118.338, "note_off_time": 118.904}, {"pitch": 74, "velocity": 48, "note_on_time": 123.828, "note_off_time": 124.19}, {"pitch": 72, "velocity": 50, "note_on_time": 126.615, "note_off_time": 127.002}, {"pitch": 76, "velocity": 49, "note_on_time": 131.465, "note_off_time": 131.872}, {"pitch": 74, "velocity": 38, "note_on_time": 132.274, "note_off_time": 132.62}, {"pitch": 77, "velocity": 55, "note_on_time": 133.094, "note_off_time": 133.541}, {"pitch": 72, "velocity": 43, "note_on_time": 134.216, "note_off_time": 135.047}, {"pitch": 74, "velocity": 77, "note_on_time": 140.703, "note_off_time": 141.027}, {"pitch": 76, "velocity": 74, "note_on_time": 142.149, "note_off_time": 142.502}, {"pitch": 77, "velocity": 16, "note_on_time": 142.857, "note_off_time": 143.294}, {"pitch": 77, "velocity": 50, "note_on_time": 143.547, "note_off_time": 144.11}, {"pitch": 72, "velocity": 57, "note_on_time": 148.945, "note_off_time": 149.393}, {"pitch": 74, "velocity": 82, "note_on_time": 155.554, "note_off_time": 155.878}, {"pitch": 76, "velocity": 77, "note_on_time": 156.318, "note_off_time": 156.681}, {"pitch": 79, "velocity": 37, "note_on_time": 157.019, "note_off_time": 157.095}, {"pitch": 77, "velocity": 32, "note_on_time": 156.993, "note_off_time": 157.375}, {"pitch": 77, "velocity": 40, "note_on_time": 157.673, "note_off_time": 158.029}]</notes><guidance name="Guidance Mode">None</guidance><error name="Error value">99</error></trial></trials></MIDI>