<MIDI midiNo="2024_02_26-12_06_36"><target_notes><notes name="Note List">[{"pitch": 60, "velocity": 40, "note_on_time": 0.01, "note_off_time": 1.02}, {"pitch": 64, "velocity": 40, "note_on_time": 0.01, "note_off_time": 1.02}, {"pitch": 67, "velocity": 40, "note_on_time": 0.01, "note_off_time": 1.02}, {"pitch": 48, "velocity": 40, "note_on_time": 0.01, "note_off_time": 1.02}, {"pitch": 52, "velocity": 40, "note_on_time": 1.02, "note_off_time": 2.024}, {"pitch": 55, "velocity": 40, "note_on_time": 1.02, "note_off_time": 2.025}, {"pitch": 74, "velocity": 40, "note_on_time": 2.024, "note_off_time": 3.027}, {"pitch": 48, "velocity": 40, "note_on_time": 2.025, "note_off_time": 3.028}, {"pitch": 52, "velocity": 40, "note_on_time": 3.028, "note_off_time": 4.039}, {"pitch": 55, "velocity": 40, "note_on_time": 3.028, "note_off_time": 4.039}, {"pitch": 48, "velocity": 40, "note_on_time": 4.039, "note_off_time": 5.04}, {"pitch": 52, "velocity": 40, "note_on_time": 5.04, "note_off_time": 6.045}, {"pitch": 55, "velocity": 40, "note_on_time": 5.04, "note_off_time": 6.045}, {"pitch": 48, "velocity": 40, "note_on_time": 6.045, "note_off_time": 7.052}, {"pitch": 52, "velocity": 40, "note_on_time": 7.052, "note_off_time": 8.057}, {"pitch": 55, "velocity": 40, "note_on_time": 7.052, "note_off_time": 8.057}, {"pitch": 60, "velocity": 40, "note_on_time": 8.055, "note_off_time": 9.059}, {"pitch": 64, "velocity": 40, "note_on_time": 8.056, "note_off_time": 9.06}, {"pitch": 67, "velocity": 40, "note_on_time": 8.057, "note_off_time": 9.061}, {"pitch": 48, "velocity": 40, "note_on_time": 8.057, "note_off_time": 9.061}, {"pitch": 52, "velocity": 40, "note_on_time": 9.061, "note_off_time": 10.069}, {"pitch": 55, "velocity": 40, "note_on_time": 9.061, "note_off_time": 10.069}, {"pitch": 76, "velocity": 40, "note_on_time": 10.068, "note_off_time": 11.075}, {"pitch": 48, "velocity": 40, "note_on_time": 10.069, "note_off_time": 11.075}, {"pitch": 52, "velocity": 40, "note_on_time": 11.075, "note_off_time": 12.079}, {"pitch": 55, "velocity": 40, "note_on_time": 11.075, "note_off_time": 12.079}, {"pitch": 48, "velocity": 40, "note_on_time": 12.079, "note_off_time": 13.095}, {"pitch": 52, "velocity": 40, "note_on_time": 13.095, "note_off_time": 14.097}, {"pitch": 55, "velocity": 40, "note_on_time": 13.095, "note_off_time": 14.097}, {"pitch": 48, "velocity": 40, "note_on_time": 14.097, "note_off_time": 15.112}, {"pitch": 52, "velocity": 40, "note_on_time": 15.112, "note_off_time": 16.117}, {"pitch": 55, "velocity": 40, "note_on_time": 15.112, "note_off_time": 16.117}, {"pitch": 60, "velocity": 40, "note_on_time": 16.116, "note_off_time": 17.123}, {"pitch": 64, "velocity": 40, "note_on_time": 16.116, "note_off_time": 17.124}, {"pitch": 67, "velocity": 40, "note_on_time": 16.117, "note_off_time": 17.125}, {"pitch": 48, "velocity": 40, "note_on_time": 16.117, "note_off_time": 17.125}, {"pitch": 52, "velocity": 40, "note_on_time": 17.125, "note_off_time": 18.142}, {"pitch": 55, "velocity": 40, "note_on_time": 17.125, "note_off_time": 18.142}, {"pitch": 72, "velocity": 40, "note_on_time": 18.141, "note_off_time": 19.147}, {"pitch": 48, "velocity": 40, "note_on_time": 18.142, "note_off_time": 19.147}, {"pitch": 52, "velocity": 40, "note_on_time": 19.147, "note_off_time": 20.15}, {"pitch": 55, "velocity": 40, "note_on_time": 19.147, "note_off_time": 20.15}, {"pitch": 48, "velocity": 40, "note_on_time": 20.15, "note_off_time": 21.166}, {"pitch": 52, "velocity": 40, "note_on_time": 21.166, "note_off_time": 22.169}, {"pitch": 55, "velocity": 40, "note_on_time": 21.166, "note_off_time": 22.169}, {"pitch": 48, "velocity": 40, "note_on_time": 22.169, "note_off_time": 23.17}, {"pitch": 52, "velocity": 40, "note_on_time": 23.17, "note_off_time": 24.175}, {"pitch": 55, "velocity": 40, "note_on_time": 23.17, "note_off_time": 24.175}, {"pitch": 60, "velocity": 40, "note_on_time": 24.174, "note_off_time": 25.181}, {"pitch": 64, "velocity": 40, "note_on_time": 24.174, "note_off_time": 25.182}, {"pitch": 67, "velocity": 40, "note_on_time": 24.175, "note_off_time": 25.183}, {"pitch": 48, "velocity": 40, "note_on_time": 24.175, "note_off_time": 25.183}, {"pitch": 52, "velocity": 40, "note_on_time": 25.183, "note_off_time": 26.197}, {"pitch": 55, "velocity": 40, "note_on_time": 25.183, "note_off_time": 26.198}, {"pitch": 79, "velocity": 40, "note_on_time": 26.197, "note_off_time": 27.202}, {"pitch": 48, "velocity": 40, "note_on_time": 26.198, "note_off_time": 27.202}, {"pitch": 52, "velocity": 40, "note_on_time": 27.202, "note_off_time": 28.211}, {"pitch": 55, "velocity": 40, "note_on_time": 27.202, "note_off_time": 28.211}, {"pitch": 48, "velocity": 40, "note_on_time": 28.211, "note_off_time": 29.215}, {"pitch": 52, "velocity": 40, "note_on_time": 29.215, "note_off_time": 30.224}, {"pitch": 55, "velocity": 40, "note_on_time": 29.215, "note_off_time": 30.224}, {"pitch": 48, "velocity": 40, "note_on_time": 30.224, "note_off_time": 31.233}, {"pitch": 52, "velocity": 40, "note_on_time": 31.233, "note_off_time": 32.248}, {"pitch": 55, "velocity": 40, "note_on_time": 31.233, "note_off_time": 32.248}, {"pitch": 60, "velocity": 40, "note_on_time": 32.247, "note_off_time": 33.259}, {"pitch": 64, "velocity": 40, "note_on_time": 32.247, "note_off_time": 33.26}, {"pitch": 67, "velocity": 40, "note_on_time": 32.248, "note_off_time": 33.26}, {"pitch": 48, "velocity": 40, "note_on_time": 32.249, "note_off_time": 33.26}, {"pitch": 52, "velocity": 40, "note_on_time": 33.261, "note_off_time": 34.271}, {"pitch": 55, "velocity": 40, "note_on_time": 33.261, "note_off_time": 34.272}, {"pitch": 77, "velocity": 40, "note_on_time": 34.271, "note_off_time": 35.275}, {"pitch": 48, "velocity": 40, "note_on_time": 34.272, "note_off_time": 35.276}, {"pitch": 52, "velocity": 40, "note_on_time": 35.276, "note_off_time": 36.292}, {"pitch": 55, "velocity": 40, "note_on_time": 35.276, "note_off_time": 36.292}, {"pitch": 48, "velocity": 40, "note_on_time": 36.292, "note_off_time": 37.308}, {"pitch": 52, "velocity": 40, "note_on_time": 37.308, "note_off_time": 38.318}, {"pitch": 55, "velocity": 40, "note_on_time": 37.308, "note_off_time": 38.318}, {"pitch": 48, "velocity": 40, "note_on_time": 38.318, "note_off_time": 39.319}, {"pitch": 52, "velocity": 40, "note_on_time": 39.319, "note_off_time": 40.334}, {"pitch": 55, "velocity": 40, "note_on_time": 39.319, "note_off_time": 40.334}, {"pitch": 60, "velocity": 40, "note_on_time": 40.333, "note_off_time": 41.336}, {"pitch": 64, "velocity": 40, "note_on_time": 40.333, "note_off_time": 41.336}, {"pitch": 67, "velocity": 40, "note_on_time": 40.334, "note_off_time": 41.337}, {"pitch": 74, "velocity": 40, "note_on_time": 42.343, "note_off_time": 43.346}, {"pitch": 60, "velocity": 40, "note_on_time": 48.362, "note_off_time": 49.379}, {"pitch": 64, "velocity": 40, "note_on_time": 48.362, "note_off_time": 49.379}, {"pitch": 67, "velocity": 40, "note_on_time": 48.363, "note_off_time": 49.38}, {"pitch": 76, "velocity": 40, "note_on_time": 50.39, "note_off_time": 51.401}, {"pitch": 60, "velocity": 40, "note_on_time": 56.418, "note_off_time": 57.424}, {"pitch": 64, "velocity": 40, "note_on_time": 56.418, "note_off_time": 57.425}, {"pitch": 67, "velocity": 40, "note_on_time": 56.419, "note_off_time": 57.425}, {"pitch": 79, "velocity": 40, "note_on_time": 58.436, "note_off_time": 59.441}, {"pitch": 60, "velocity": 40, "note_on_time": 64.443, "note_off_time": 65.457}, {"pitch": 64, "velocity": 40, "note_on_time": 64.444, "note_off_time": 65.458}, {"pitch": 67, "velocity": 40, "note_on_time": 64.444, "note_off_time": 65.459}, {"pitch": 77, "velocity": 40, "note_on_time": 66.46, "note_off_time": 67.474}, {"pitch": 60, "velocity": 40, "note_on_time": 72.477, "note_off_time": 73.49}, {"pitch": 64, "velocity": 40, "note_on_time": 72.477, "note_off_time": 73.491}, {"pitch": 67, "velocity": 40, "note_on_time": 72.478, "note_off_time": 73.491}, {"pitch": 74, "velocity": 40, "note_on_time": 74.494, "note_off_time": 75.509}, {"pitch": 60, "velocity": 40, "note_on_time": 80.514, "note_off_time": 81.516}, {"pitch": 64, "velocity": 40, "note_on_time": 80.514, "note_off_time": 81.517}, {"pitch": 67, "velocity": 40, "note_on_time": 80.515, "note_off_time": 81.519}, {"pitch": 72, "velocity": 40, "note_on_time": 82.524, "note_off_time": 83.536}, {"pitch": 60, "velocity": 40, "note_on_time": 88.541, "note_off_time": 89.544}, {"pitch": 64, "velocity": 40, "note_on_time": 88.542, "note_off_time": 89.546}, {"pitch": 67, "velocity": 40, "note_on_time": 88.542, "note_off_time": 89.546}, {"pitch": 76, "velocity": 40, "note_on_time": 90.557, "note_off_time": 91.564}, {"pitch": 60, "velocity": 40, "note_on_time": 96.568, "note_off_time": 97.572}, {"pitch": 64, "velocity": 40, "note_on_time": 96.57, "note_off_time": 97.573}, {"pitch": 67, "velocity": 40, "note_on_time": 96.57, "note_off_time": 97.574}, {"pitch": 72, "velocity": 40, "note_on_time": 98.586, "note_off_time": 99.601}, {"pitch": 60, "velocity": 40, "note_on_time": 104.611, "note_off_time": 105.615}, {"pitch": 64, "velocity": 40, "note_on_time": 104.611, "note_off_time": 105.616}, {"pitch": 67, "velocity": 40, "note_on_time": 104.612, "note_off_time": 105.617}, {"pitch": 77, "velocity": 40, "note_on_time": 106.628, "note_off_time": 107.633}, {"pitch": 60, "velocity": 40, "note_on_time": 112.637, "note_off_time": 113.647}, {"pitch": 64, "velocity": 40, "note_on_time": 112.638, "note_off_time": 113.648}, {"pitch": 67, "velocity": 40, "note_on_time": 112.638, "note_off_time": 113.649}, {"pitch": 76, "velocity": 40, "note_on_time": 114.662, "note_off_time": 115.663}, {"pitch": 60, "velocity": 40, "note_on_time": 120.679, "note_off_time": 121.684}, {"pitch": 64, "velocity": 40, "note_on_time": 120.679, "note_off_time": 121.684}, {"pitch": 67, "velocity": 40, "note_on_time": 120.68, "note_off_time": 121.685}, {"pitch": 79, "velocity": 40, "note_on_time": 122.693, "note_off_time": 123.696}, {"pitch": 60, "velocity": 40, "note_on_time": 128.71, "note_off_time": 129.726}, {"pitch": 64, "velocity": 40, "note_on_time": 128.711, "note_off_time": 129.727}, {"pitch": 67, "velocity": 40, "note_on_time": 128.711, "note_off_time": 129.728}, {"pitch": 77, "velocity": 40, "note_on_time": 130.732, "note_off_time": 131.737}, {"pitch": 60, "velocity": 40, "note_on_time": 136.739, "note_off_time": 137.743}, {"pitch": 64, "velocity": 40, "note_on_time": 136.741, "note_off_time": 137.744}, {"pitch": 67, "velocity": 40, "note_on_time": 136.741, "note_off_time": 137.745}, {"pitch": 72, "velocity": 40, "note_on_time": 138.748, "note_off_time": 139.75}, {"pitch": 60, "velocity": 40, "note_on_time": 144.755, "note_off_time": 145.759}, {"pitch": 64, "velocity": 40, "note_on_time": 144.756, "note_off_time": 145.759}, {"pitch": 67, "velocity": 40, "note_on_time": 144.757, "note_off_time": 145.76}, {"pitch": 79, "velocity": 40, "note_on_time": 146.774, "note_off_time": 147.788}, {"pitch": 60, "velocity": 40, "note_on_time": 152.795, "note_off_time": 153.811}, {"pitch": 64, "velocity": 40, "note_on_time": 152.796, "note_off_time": 153.811}, {"pitch": 67, "velocity": 40, "note_on_time": 152.797, "note_off_time": 153.812}, {"pitch": 74, "velocity": 40, "note_on_time": 154.812, "note_off_time": 155.815}, {"pitch": 60, "velocity": 40, "note_on_time": 160.819, "note_off_time": 161.821}, {"pitch": 64, "velocity": 40, "note_on_time": 160.819, "note_off_time": 161.822}, {"pitch": 67, "velocity": 40, "note_on_time": 160.82, "note_off_time": 161.823}, {"pitch": 74, "velocity": 40, "note_on_time": 162.836, "note_off_time": 163.84}]</notes><options name="Option List">((4, 4), [0.5, 0.25], 3, 8, &lt;NoteRangePerHand.TWO_NOTES: 3&gt;, &lt;NoteRangePerHand.ONE_NOTE: 2&gt;, False, True, True, 100)</options></target_notes><trials><trial trial_no="1" timestamp="2024_02_26-12_03_52"><notes name="Played Notes">[{"pitch": 76, "velocity": 45, "note_on_time": 2.888, "note_off_time": 3.199}, {"pitch": 74, "velocity": 46, "note_on_time": 8.553, "note_off_time": 8.815}, {"pitch": 72, "velocity": 59, "note_on_time": 12.433, "note_off_time": 12.621}, {"pitch": 79, "velocity": 1, "note_on_time": 22.543, "note_off_time": 23.007}, {"pitch": 79, "velocity": 47, "note_on_time": 23.333, "note_off_time": 23.602}, {"pitch": 77, "velocity": 18, "note_on_time": 29.766, "note_off_time": 30.0}, {"pitch": 77, "velocity": 27, "note_on_time": 36.844, "note_off_time": 37.253}, {"pitch": 76, "velocity": 1, "note_on_time": 45.836, "note_off_time": 46.358}, {"pitch": 74, "velocity": 64, "note_on_time": 47.256, "note_off_time": 47.624}, {"pitch": 76, "velocity": 1, "note_on_time": 53.636, "note_off_time": 54.019}, {"pitch": 76, "velocity": 49, "note_on_time": 54.253, "note_off_time": 54.813}, {"pitch": 79, "velocity": 1, "note_on_time": 60.538, "note_off_time": 61.473}, {"pitch": 77, "velocity": 42, "note_on_time": 68.491, "note_off_time": 69.021}, {"pitch": 76, "velocity": 35, "note_on_time": 77.22, "note_off_time": 77.735}, {"pitch": 77, "velocity": 31, "note_on_time": 84.549, "note_off_time": 85.309}, {"pitch": 77, "velocity": 38, "note_on_time": 93.326, "note_off_time": 94.025}, {"pitch": 76, "velocity": 28, "note_on_time": 100.812, "note_off_time": 101.513}, {"pitch": 74, "velocity": 66, "note_on_time": 102.118, "note_off_time": 102.651}, {"pitch": 77, "velocity": 23, "note_on_time": 109.591, "note_off_time": 110.167}, {"pitch": 77, "velocity": 24, "note_on_time": 117.124, "note_off_time": 117.844}, {"pitch": 76, "velocity": 43, "note_on_time": 118.318, "note_off_time": 118.888}, {"pitch": 79, "velocity": 19, "note_on_time": 124.784, "note_off_time": 125.752}, {"pitch": 76, "velocity": 1, "note_on_time": 133.165, "note_off_time": 133.856}, {"pitch": 74, "velocity": 42, "note_on_time": 140.863, "note_off_time": 141.674}, {"pitch": 72, "velocity": 36, "note_on_time": 142.725, "note_off_time": 143.34}, {"pitch": 76, "velocity": 20, "note_on_time": 149.067, "note_off_time": 149.733}, {"pitch": 74, "velocity": 47, "note_on_time": 150.529, "note_off_time": 151.051}, {"pitch": 77, "velocity": 43, "note_on_time": 151.551, "note_off_time": 152.07}, {"pitch": 76, "velocity": 39, "note_on_time": 157.361, "note_off_time": 158.008}]</notes><guidance name="Guidance Mode">None</guidance><error name="Error value">99</error></trial><trial trial_no="2" timestamp="2024_02_26-12_09_45"><notes name="Played Notes">[{"pitch": 72, "velocity": 51, "note_on_time": 1.236, "note_off_time": 1.486}, {"pitch": 74, "velocity": 40, "note_on_time": 1.879, "note_off_time": 2.1}, {"pitch": 76, "velocity": 38, "note_on_time": 2.493, "note_off_time": 2.703}, {"pitch": 77, "velocity": 34, "note_on_time": 3.15, "note_off_time": 3.377}, {"pitch": 79, "velocity": 45, "note_on_time": 3.765, "note_off_time": 4.01}, {"pitch": 72, "velocity": 33, "note_on_time": 4.852, "note_off_time": 5.129}, {"pitch": 74, "velocity": 50, "note_on_time": 5.489, "note_off_time": 5.662}, {"pitch": 76, "velocity": 27, "note_on_time": 6.102, "note_off_time": 6.314}, {"pitch": 77, "velocity": 39, "note_on_time": 6.668, "note_off_time": 6.848}, {"pitch": 79, "velocity": 37, "note_on_time": 7.309, "note_off_time": 7.604}, {"pitch": 72, "velocity": 49, "note_on_time": 8.536, "note_off_time": 8.731}, {"pitch": 74, "velocity": 51, "note_on_time": 9.113, "note_off_time": 9.272}, {"pitch": 76, "velocity": 35, "note_on_time": 9.672, "note_off_time": 9.851}, {"pitch": 77, "velocity": 39, "note_on_time": 10.27, "note_off_time": 10.42}, {"pitch": 79, "velocity": 43, "note_on_time": 10.949, "note_off_time": 11.186}, {"pitch": 72, "velocity": 49, "note_on_time": 12.211, "note_off_time": 12.391}, {"pitch": 74, "velocity": 46, "note_on_time": 12.807, "note_off_time": 12.944}, {"pitch": 76, "velocity": 40, "note_on_time": 13.401, "note_off_time": 13.602}, {"pitch": 77, "velocity": 36, "note_on_time": 13.978, "note_off_time": 14.187}, {"pitch": 79, "velocity": 42, "note_on_time": 14.698, "note_off_time": 14.936}, {"pitch": 79, "velocity": 40, "note_on_time": 15.943, "note_off_time": 16.165}, {"pitch": 77, "velocity": 42, "note_on_time": 16.512, "note_off_time": 16.672}, {"pitch": 76, "velocity": 38, "note_on_time": 17.053, "note_off_time": 17.237}, {"pitch": 74, "velocity": 50, "note_on_time": 17.618, "note_off_time": 17.82}, {"pitch": 72, "velocity": 57, "note_on_time": 18.211, "note_off_time": 18.421}, {"pitch": 79, "velocity": 40, "note_on_time": 19.509, "note_off_time": 19.705}, {"pitch": 77, "velocity": 39, "note_on_time": 20.071, "note_off_time": 20.256}, {"pitch": 76, "velocity": 46, "note_on_time": 20.627, "note_off_time": 20.825}, {"pitch": 74, "velocity": 61, "note_on_time": 21.202, "note_off_time": 21.372}, {"pitch": 72, "velocity": 51, "note_on_time": 21.773, "note_off_time": 21.948}, {"pitch": 79, "velocity": 47, "note_on_time": 23.158, "note_off_time": 23.345}, {"pitch": 77, "velocity": 42, "note_on_time": 23.74, "note_off_time": 23.914}, {"pitch": 76, "velocity": 48, "note_on_time": 24.302, "note_off_time": 24.487}, {"pitch": 74, "velocity": 53, "note_on_time": 24.864, "note_off_time": 25.038}, {"pitch": 72, "velocity": 54, "note_on_time": 25.447, "note_off_time": 25.591}, {"pitch": 79, "velocity": 57, "note_on_time": 26.795, "note_off_time": 26.97}, {"pitch": 77, "velocity": 42, "note_on_time": 27.372, "note_off_time": 27.538}, {"pitch": 76, "velocity": 49, "note_on_time": 27.969, "note_off_time": 28.134}, {"pitch": 74, "velocity": 52, "note_on_time": 28.536, "note_off_time": 28.695}, {"pitch": 72, "velocity": 44, "note_on_time": 29.273, "note_off_time": 29.473}, {"pitch": 74, "velocity": 58, "note_on_time": 33.301, "note_off_time": 33.549}, {"pitch": 76, "velocity": 29, "note_on_time": 34.227, "note_off_time": 34.43}, {"pitch": 77, "velocity": 40, "note_on_time": 34.854, "note_off_time": 35.037}, {"pitch": 79, "velocity": 38, "note_on_time": 35.54, "note_off_time": 35.801}, {"pitch": 72, "velocity": 47, "note_on_time": 36.297, "note_off_time": 36.505}, {"pitch": 74, "velocity": 46, "note_on_time": 37.772, "note_off_time": 37.95}, {"pitch": 76, "velocity": 45, "note_on_time": 38.386, "note_off_time": 38.558}, {"pitch": 77, "velocity": 40, "note_on_time": 39.008, "note_off_time": 39.214}, {"pitch": 79, "velocity": 36, "note_on_time": 39.638, "note_off_time": 39.887}, {"pitch": 72, "velocity": 56, "note_on_time": 40.292, "note_off_time": 40.474}, {"pitch": 74, "velocity": 53, "note_on_time": 41.356, "note_off_time": 41.497}, {"pitch": 76, "velocity": 35, "note_on_time": 41.982, "note_off_time": 42.191}, {"pitch": 77, "velocity": 43, "note_on_time": 42.636, "note_off_time": 42.834}, {"pitch": 79, "velocity": 39, "note_on_time": 43.231, "note_off_time": 43.442}, {"pitch": 72, "velocity": 41, "note_on_time": 43.864, "note_off_time": 44.059}, {"pitch": 74, "velocity": 50, "note_on_time": 44.994, "note_off_time": 45.161}, {"pitch": 76, "velocity": 41, "note_on_time": 45.59, "note_off_time": 45.791}, {"pitch": 77, "velocity": 37, "note_on_time": 46.213, "note_off_time": 46.406}, {"pitch": 79, "velocity": 1, "note_on_time": 46.993, "note_off_time": 47.254}, {"pitch": 72, "velocity": 50, "note_on_time": 47.665, "note_off_time": 47.889}, {"pitch": 77, "velocity": 37, "note_on_time": 49.901, "note_off_time": 50.111}, {"pitch": 76, "velocity": 41, "note_on_time": 50.53, "note_off_time": 50.709}, {"pitch": 74, "velocity": 48, "note_on_time": 51.164, "note_off_time": 51.339}, {"pitch": 72, "velocity": 40, "note_on_time": 51.686, "note_off_time": 51.885}, {"pitch": 79, "velocity": 49, "note_on_time": 52.317, "note_off_time": 52.51}, {"pitch": 77, "velocity": 48, "note_on_time": 53.563, "note_off_time": 53.785}, {"pitch": 76, "velocity": 44, "note_on_time": 54.141, "note_off_time": 54.317}, {"pitch": 74, "velocity": 47, "note_on_time": 54.675, "note_off_time": 54.814}, {"pitch": 72, "velocity": 45, "note_on_time": 55.268, "note_off_time": 55.436}, {"pitch": 79, "velocity": 38, "note_on_time": 55.985, "note_off_time": 56.216}, {"pitch": 77, "velocity": 57, "note_on_time": 57.527, "note_off_time": 57.681}, {"pitch": 76, "velocity": 55, "note_on_time": 58.041, "note_off_time": 58.211}, {"pitch": 74, "velocity": 44, "note_on_time": 58.618, "note_off_time": 58.75}, {"pitch": 72, "velocity": 42, "note_on_time": 59.136, "note_off_time": 59.29}, {"pitch": 79, "velocity": 39, "note_on_time": 59.738, "note_off_time": 59.972}, {"pitch": 77, "velocity": 48, "note_on_time": 61.38, "note_off_time": 61.573}, {"pitch": 76, "velocity": 44, "note_on_time": 61.958, "note_off_time": 62.079}, {"pitch": 74, "velocity": 58, "note_on_time": 62.46, "note_off_time": 62.641}, {"pitch": 72, "velocity": 48, "note_on_time": 62.991, "note_off_time": 63.173}, {"pitch": 79, "velocity": 46, "note_on_time": 63.814, "note_off_time": 64.077}, {"pitch": 76, "velocity": 45, "note_on_time": 67.077, "note_off_time": 67.243}, {"pitch": 77, "velocity": 30, "note_on_time": 67.7, "note_off_time": 67.893}, {"pitch": 79, "velocity": 37, "note_on_time": 68.282, "note_off_time": 68.534}, {"pitch": 74, "velocity": 41, "note_on_time": 68.898, "note_off_time": 69.053}, {"pitch": 72, "velocity": 42, "note_on_time": 69.451, "note_off_time": 69.682}, {"pitch": 76, "velocity": 45, "note_on_time": 71.712, "note_off_time": 71.893}, {"pitch": 77, "velocity": 46, "note_on_time": 72.37, "note_off_time": 72.571}, {"pitch": 79, "velocity": 3, "note_on_time": 73.065, "note_off_time": 73.338}, {"pitch": 74, "velocity": 44, "note_on_time": 73.836, "note_off_time": 73.993}, {"pitch": 72, "velocity": 37, "note_on_time": 74.387, "note_off_time": 74.569}, {"pitch": 76, "velocity": 47, "note_on_time": 76.491, "note_off_time": 76.68}, {"pitch": 77, "velocity": 39, "note_on_time": 77.286, "note_off_time": 77.501}, {"pitch": 79, "velocity": 9, "note_on_time": 78.063, "note_off_time": 78.361}, {"pitch": 74, "velocity": 44, "note_on_time": 78.999, "note_off_time": 79.164}, {"pitch": 72, "velocity": 43, "note_on_time": 79.471, "note_off_time": 79.652}, {"pitch": 76, "velocity": 34, "note_on_time": 81.383, "note_off_time": 81.589}, {"pitch": 77, "velocity": 45, "note_on_time": 82.016, "note_off_time": 82.196}, {"pitch": 79, "velocity": 35, "note_on_time": 82.614, "note_off_time": 82.846}, {"pitch": 74, "velocity": 51, "note_on_time": 83.499, "note_off_time": 83.648}, {"pitch": 72, "velocity": 43, "note_on_time": 84.083, "note_off_time": 84.277}, {"pitch": 76, "velocity": 46, "note_on_time": 86.438, "note_off_time": 86.632}, {"pitch": 74, "velocity": 43, "note_on_time": 87.008, "note_off_time": 87.19}, {"pitch": 72, "velocity": 45, "note_on_time": 87.614, "note_off_time": 87.809}, {"pitch": 77, "velocity": 36, "note_on_time": 88.396, "note_off_time": 88.564}, {"pitch": 79, "velocity": 36, "note_on_time": 88.915, "note_off_time": 89.186}, {"pitch": 76, "velocity": 52, "note_on_time": 91.173, "note_off_time": 91.361}, {"pitch": 74, "velocity": 46, "note_on_time": 91.719, "note_off_time": 91.899}, {"pitch": 72, "velocity": 49, "note_on_time": 92.393, "note_off_time": 92.57}, {"pitch": 77, "velocity": 29, "note_on_time": 93.042, "note_off_time": 93.261}, {"pitch": 79, "velocity": 45, "note_on_time": 93.644, "note_off_time": 93.861}, {"pitch": 76, "velocity": 33, "note_on_time": 96.087, "note_off_time": 96.27}, {"pitch": 74, "velocity": 54, "note_on_time": 96.652, "note_off_time": 96.841}, {"pitch": 72, "velocity": 49, "note_on_time": 97.207, "note_off_time": 97.389}, {"pitch": 77, "velocity": 28, "note_on_time": 97.812, "note_off_time": 98.008}, {"pitch": 79, "velocity": 42, "note_on_time": 98.498, "note_off_time": 98.736}, {"pitch": 76, "velocity": 33, "note_on_time": 101.014, "note_off_time": 101.226}, {"pitch": 74, "velocity": 47, "note_on_time": 101.576, "note_off_time": 101.769}, {"pitch": 72, "velocity": 54, "note_on_time": 102.16, "note_off_time": 102.341}, {"pitch": 77, "velocity": 46, "note_on_time": 103.183, "note_off_time": 103.395}, {"pitch": 79, "velocity": 41, "note_on_time": 103.699, "note_off_time": 103.924}, {"pitch": 77, "velocity": 47, "note_on_time": 105.881, "note_off_time": 106.066}, {"pitch": 79, "velocity": 33, "note_on_time": 106.517, "note_off_time": 106.753}, {"pitch": 76, "velocity": 35, "note_on_time": 107.338, "note_off_time": 107.472}, {"pitch": 74, "velocity": 56, "note_on_time": 108.239, "note_off_time": 108.408}, {"pitch": 72, "velocity": 43, "note_on_time": 108.724, "note_off_time": 108.928}, {"pitch": 77, "velocity": 42, "note_on_time": 110.649, "note_off_time": 110.844}, {"pitch": 79, "velocity": 49, "note_on_time": 111.3, "note_off_time": 111.519}, {"pitch": 76, "velocity": 46, "note_on_time": 111.912, "note_off_time": 112.066}, {"pitch": 74, "velocity": 52, "note_on_time": 112.502, "note_off_time": 112.675}, {"pitch": 72, "velocity": 43, "note_on_time": 113.073, "note_off_time": 113.279}, {"pitch": 77, "velocity": 50, "note_on_time": 115.627, "note_off_time": 115.803}, {"pitch": 79, "velocity": 39, "note_on_time": 116.364, "note_off_time": 116.564}, {"pitch": 76, "velocity": 53, "note_on_time": 116.908, "note_off_time": 117.09}, {"pitch": 74, "velocity": 50, "note_on_time": 117.384, "note_off_time": 117.557}, {"pitch": 72, "velocity": 37, "note_on_time": 117.997, "note_off_time": 118.162}, {"pitch": 77, "velocity": 48, "note_on_time": 120.477, "note_off_time": 120.656}, {"pitch": 79, "velocity": 48, "note_on_time": 121.033, "note_off_time": 121.272}, {"pitch": 76, "velocity": 64, "note_on_time": 121.655, "note_off_time": 121.838}, {"pitch": 74, "velocity": 47, "note_on_time": 122.195, "note_off_time": 122.366}, {"pitch": 72, "velocity": 48, "note_on_time": 122.923, "note_off_time": 123.115}, {"pitch": 74, "velocity": 46, "note_on_time": 125.414, "note_off_time": 125.589}, {"pitch": 72, "velocity": 45, "note_on_time": 126.087, "note_off_time": 126.267}, {"pitch": 76, "velocity": 24, "note_on_time": 126.723, "note_off_time": 126.911}, {"pitch": 77, "velocity": 37, "note_on_time": 127.27, "note_off_time": 127.471}, {"pitch": 79, "velocity": 41, "note_on_time": 127.836, "note_off_time": 128.143}, {"pitch": 74, "velocity": 53, "note_on_time": 130.212, "note_off_time": 130.39}, {"pitch": 72, "velocity": 42, "note_on_time": 130.746, "note_off_time": 130.923}, {"pitch": 76, "velocity": 32, "note_on_time": 131.378, "note_off_time": 131.555}, {"pitch": 77, "velocity": 36, "note_on_time": 131.918, "note_off_time": 132.128}, {"pitch": 79, "velocity": 54, "note_on_time": 132.474, "note_off_time": 132.681}, {"pitch": 74, "velocity": 55, "note_on_time": 135.076, "note_off_time": 135.245}, {"pitch": 72, "velocity": 51, "note_on_time": 135.59, "note_off_time": 135.787}, {"pitch": 76, "velocity": 39, "note_on_time": 136.229, "note_off_time": 136.413}, {"pitch": 77, "velocity": 46, "note_on_time": 136.773, "note_off_time": 136.963}, {"pitch": 79, "velocity": 42, "note_on_time": 137.384, "note_off_time": 137.623}, {"pitch": 74, "velocity": 55, "note_on_time": 139.971, "note_off_time": 140.121}, {"pitch": 72, "velocity": 46, "note_on_time": 140.461, "note_off_time": 140.663}, {"pitch": 76, "velocity": 30, "note_on_time": 141.144, "note_off_time": 141.336}, {"pitch": 77, "velocity": 46, "note_on_time": 141.675, "note_off_time": 141.89}, {"pitch": 79, "velocity": 53, "note_on_time": 142.308, "note_off_time": 142.531}, {"pitch": 72, "velocity": 55, "note_on_time": 149.733, "note_off_time": 149.959}, {"pitch": 74, "velocity": 53, "note_on_time": 150.322, "note_off_time": 150.497}, {"pitch": 76, "velocity": 52, "note_on_time": 150.895, "note_off_time": 151.054}, {"pitch": 77, "velocity": 47, "note_on_time": 151.441, "note_off_time": 151.639}, {"pitch": 79, "velocity": 50, "note_on_time": 152.077, "note_off_time": 152.305}, {"pitch": 72, "velocity": 52, "note_on_time": 154.64, "note_off_time": 154.869}, {"pitch": 74, "velocity": 49, "note_on_time": 155.141, "note_off_time": 155.326}, {"pitch": 76, "velocity": 43, "note_on_time": 155.636, "note_off_time": 155.81}, {"pitch": 77, "velocity": 49, "note_on_time": 156.204, "note_off_time": 156.439}, {"pitch": 79, "velocity": 24, "note_on_time": 156.952, "note_off_time": 157.275}, {"pitch": 72, "velocity": 52, "note_on_time": 159.386, "note_off_time": 159.564}, {"pitch": 74, "velocity": 52, "note_on_time": 159.921, "note_off_time": 160.108}, {"pitch": 76, "velocity": 38, "note_on_time": 160.512, "note_off_time": 160.702}, {"pitch": 77, "velocity": 47, "note_on_time": 161.028, "note_off_time": 161.239}, {"pitch": 79, "velocity": 39, "note_on_time": 161.83, "note_off_time": 162.017}, {"pitch": 72, "velocity": 53, "note_on_time": 164.375, "note_off_time": 164.54}, {"pitch": 74, "velocity": 48, "note_on_time": 164.904, "note_off_time": 165.069}, {"pitch": 76, "velocity": 44, "note_on_time": 165.462, "note_off_time": 165.605}, {"pitch": 77, "velocity": 38, "note_on_time": 165.978, "note_off_time": 166.153}, {"pitch": 79, "velocity": 48, "note_on_time": 166.566, "note_off_time": 166.751}, {"pitch": 79, "velocity": 52, "note_on_time": 169.163, "note_off_time": 169.362}, {"pitch": 77, "velocity": 38, "note_on_time": 169.661, "note_off_time": 169.877}, {"pitch": 76, "velocity": 46, "note_on_time": 170.231, "note_off_time": 170.39}, {"pitch": 74, "velocity": 54, "note_on_time": 170.765, "note_off_time": 170.911}, {"pitch": 72, "velocity": 48, "note_on_time": 171.446, "note_off_time": 171.583}, {"pitch": 79, "velocity": 45, "note_on_time": 173.865, "note_off_time": 174.077}, {"pitch": 77, "velocity": 36, "note_on_time": 174.474, "note_off_time": 174.635}, {"pitch": 76, "velocity": 43, "note_on_time": 175.053, "note_off_time": 175.207}, {"pitch": 74, "velocity": 45, "note_on_time": 175.513, "note_off_time": 175.685}, {"pitch": 72, "velocity": 46, "note_on_time": 176.202, "note_off_time": 176.382}, {"pitch": 79, "velocity": 40, "note_on_time": 178.791, "note_off_time": 178.993}, {"pitch": 77, "velocity": 27, "note_on_time": 179.385, "note_off_time": 179.57}, {"pitch": 76, "velocity": 40, "note_on_time": 179.901, "note_off_time": 180.08}, {"pitch": 74, "velocity": 56, "note_on_time": 180.501, "note_off_time": 180.654}, {"pitch": 72, "velocity": 52, "note_on_time": 181.062, "note_off_time": 181.199}, {"pitch": 79, "velocity": 32, "note_on_time": 183.695, "note_off_time": 183.898}, {"pitch": 77, "velocity": 31, "note_on_time": 184.296, "note_off_time": 184.491}, {"pitch": 76, "velocity": 47, "note_on_time": 184.845, "note_off_time": 185.007}, {"pitch": 74, "velocity": 41, "note_on_time": 185.447, "note_off_time": 185.602}, {"pitch": 72, "velocity": 47, "note_on_time": 186.086, "note_off_time": 186.238}, {"pitch": 74, "velocity": 53, "note_on_time": 188.699, "note_off_time": 188.849}, {"pitch": 76, "velocity": 30, "note_on_time": 189.325, "note_off_time": 189.502}, {"pitch": 77, "velocity": 47, "note_on_time": 189.817, "note_off_time": 190.024}, {"pitch": 79, "velocity": 41, "note_on_time": 190.359, "note_off_time": 190.561}, {"pitch": 72, "velocity": 43, "note_on_time": 190.994, "note_off_time": 191.169}, {"pitch": 74, "velocity": 52, "note_on_time": 193.539, "note_off_time": 193.689}, {"pitch": 76, "velocity": 48, "note_on_time": 194.004, "note_off_time": 194.152}]</notes><guidance name="Guidance Mode">None</guidance><error name="Error value">99</error></trial><trial trial_no="3" timestamp="2024_02_26-12_15_30"><notes name="Played Notes">[{"pitch": 72, "velocity": 47, "note_on_time": 1.316, "note_off_time": 1.491}, {"pitch": 74, "velocity": 42, "note_on_time": 1.843, "note_off_time": 2.001}, {"pitch": 76, "velocity": 33, "note_on_time": 2.356, "note_off_time": 2.549}, {"pitch": 77, "velocity": 45, "note_on_time": 2.947, "note_off_time": 3.187}, {"pitch": 79, "velocity": 42, "note_on_time": 3.519, "note_off_time": 3.75}, {"pitch": 72, "velocity": 44, "note_on_time": 4.979, "note_off_time": 5.164}, {"pitch": 74, "velocity": 46, "note_on_time": 5.519, "note_off_time": 5.698}, {"pitch": 76, "velocity": 43, "note_on_time": 6.103, "note_off_time": 6.273}, {"pitch": 77, "velocity": 38, "note_on_time": 6.652, "note_off_time": 6.851}, {"pitch": 79, "velocity": 40, "note_on_time": 7.254, "note_off_time": 7.407}, {"pitch": 72, "velocity": 50, "note_on_time": 8.684, "note_off_time": 8.864}, {"pitch": 74, "velocity": 49, "note_on_time": 9.2, "note_off_time": 9.338}, {"pitch": 76, "velocity": 33, "note_on_time": 9.811, "note_off_time": 10.006}, {"pitch": 77, "velocity": 39, "note_on_time": 10.348, "note_off_time": 10.54}, {"pitch": 79, "velocity": 46, "note_on_time": 10.975, "note_off_time": 11.169}, {"pitch": 72, "velocity": 51, "note_on_time": 12.657, "note_off_time": 12.856}, {"pitch": 74, "velocity": 47, "note_on_time": 13.204, "note_off_time": 13.357}, {"pitch": 76, "velocity": 46, "note_on_time": 13.739, "note_off_time": 13.895}, {"pitch": 77, "velocity": 42, "note_on_time": 14.315, "note_off_time": 14.492}, {"pitch": 79, "velocity": 14, "note_on_time": 14.894, "note_off_time": 15.145}, {"pitch": 77, "velocity": 29, "note_on_time": 16.976, "note_off_time": 17.169}, {"pitch": 79, "velocity": 41, "note_on_time": 17.64, "note_off_time": 17.844}, {"pitch": 77, "velocity": 42, "note_on_time": 18.221, "note_off_time": 18.386}, {"pitch": 76, "velocity": 43, "note_on_time": 18.745, "note_off_time": 18.879}, {"pitch": 74, "velocity": 40, "note_on_time": 19.214, "note_off_time": 19.323}, {"pitch": 72, "velocity": 45, "note_on_time": 19.785, "note_off_time": 19.944}, {"pitch": 79, "velocity": 23, "note_on_time": 21.776, "note_off_time": 22.005}, {"pitch": 77, "velocity": 42, "note_on_time": 22.385, "note_off_time": 22.568}, {"pitch": 76, "velocity": 37, "note_on_time": 23.032, "note_off_time": 23.14}, {"pitch": 74, "velocity": 47, "note_on_time": 23.563, "note_off_time": 23.705}, {"pitch": 72, "velocity": 45, "note_on_time": 24.122, "note_off_time": 24.268}, {"pitch": 79, "velocity": 45, "note_on_time": 26.618, "note_off_time": 26.83}, {"pitch": 77, "velocity": 24, "note_on_time": 27.235, "note_off_time": 27.421}, {"pitch": 76, "velocity": 38, "note_on_time": 27.854, "note_off_time": 28.001}, {"pitch": 74, "velocity": 48, "note_on_time": 28.398, "note_off_time": 28.536}, {"pitch": 72, "velocity": 46, "note_on_time": 28.971, "note_off_time": 29.112}, {"pitch": 79, "velocity": 1, "note_on_time": 31.571, "note_off_time": 31.806}, {"pitch": 77, "velocity": 38, "note_on_time": 32.186, "note_off_time": 32.373}, {"pitch": 76, "velocity": 39, "note_on_time": 32.797, "note_off_time": 32.958}, {"pitch": 74, "velocity": 47, "note_on_time": 33.342, "note_off_time": 33.515}, {"pitch": 72, "velocity": 49, "note_on_time": 33.99, "note_off_time": 34.122}, {"pitch": 74, "velocity": 54, "note_on_time": 36.89, "note_off_time": 37.057}, {"pitch": 76, "velocity": 43, "note_on_time": 37.537, "note_off_time": 37.701}, {"pitch": 77, "velocity": 36, "note_on_time": 38.075, "note_off_time": 38.229}, {"pitch": 79, "velocity": 43, "note_on_time": 38.572, "note_off_time": 38.785}, {"pitch": 72, "velocity": 41, "note_on_time": 39.181, "note_off_time": 39.358}, {"pitch": 74, "velocity": 54, "note_on_time": 41.393, "note_off_time": 41.533}, {"pitch": 76, "velocity": 49, "note_on_time": 41.999, "note_off_time": 42.15}, {"pitch": 77, "velocity": 28, "note_on_time": 42.595, "note_off_time": 42.774}, {"pitch": 79, "velocity": 43, "note_on_time": 43.134, "note_off_time": 43.357}, {"pitch": 72, "velocity": 36, "note_on_time": 43.753, "note_off_time": 43.92}, {"pitch": 74, "velocity": 31, "note_on_time": 46.268, "note_off_time": 46.424}, {"pitch": 76, "velocity": 38, "note_on_time": 46.777, "note_off_time": 46.971}, {"pitch": 77, "velocity": 31, "note_on_time": 47.723, "note_off_time": 47.898}, {"pitch": 79, "velocity": 40, "note_on_time": 48.177, "note_off_time": 48.383}, {"pitch": 72, "velocity": 51, "note_on_time": 48.684, "note_off_time": 48.842}, {"pitch": 74, "velocity": 56, "note_on_time": 51.125, "note_off_time": 51.268}, {"pitch": 76, "velocity": 36, "note_on_time": 51.681, "note_off_time": 51.899}, {"pitch": 77, "velocity": 28, "note_on_time": 52.253, "note_off_time": 52.417}, {"pitch": 79, "velocity": 33, "note_on_time": 52.71, "note_off_time": 52.934}, {"pitch": 72, "velocity": 49, "note_on_time": 53.394, "note_off_time": 53.552}, {"pitch": 77, "velocity": 38, "note_on_time": 56.079, "note_off_time": 56.227}, {"pitch": 76, "velocity": 31, "note_on_time": 56.613, "note_off_time": 56.772}, {"pitch": 74, "velocity": 47, "note_on_time": 57.125, "note_off_time": 57.282}, {"pitch": 72, "velocity": 50, "note_on_time": 57.671, "note_off_time": 57.84}, {"pitch": 79, "velocity": 48, "note_on_time": 58.282, "note_off_time": 58.474}, {"pitch": 77, "velocity": 37, "note_on_time": 60.756, "note_off_time": 60.908}, {"pitch": 76, "velocity": 33, "note_on_time": 61.3, "note_off_time": 61.455}, {"pitch": 74, "velocity": 50, "note_on_time": 61.846, "note_off_time": 61.996}, {"pitch": 72, "velocity": 26, "note_on_time": 62.427, "note_off_time": 62.636}, {"pitch": 79, "velocity": 31, "note_on_time": 63.032, "note_off_time": 63.233}, {"pitch": 77, "velocity": 29, "note_on_time": 65.677, "note_off_time": 65.84}, {"pitch": 76, "velocity": 54, "note_on_time": 66.176, "note_off_time": 66.329}, {"pitch": 74, "velocity": 42, "note_on_time": 66.745, "note_off_time": 66.888}, {"pitch": 72, "velocity": 42, "note_on_time": 67.288, "note_off_time": 67.446}, {"pitch": 79, "velocity": 50, "note_on_time": 67.881, "note_off_time": 68.047}, {"pitch": 77, "velocity": 35, "note_on_time": 70.513, "note_off_time": 70.723}, {"pitch": 76, "velocity": 45, "note_on_time": 71.035, "note_off_time": 71.205}, {"pitch": 74, "velocity": 43, "note_on_time": 71.613, "note_off_time": 71.751}, {"pitch": 72, "velocity": 37, "note_on_time": 72.212, "note_off_time": 72.37}, {"pitch": 79, "velocity": 47, "note_on_time": 72.818, "note_off_time": 72.995}, {"pitch": 76, "velocity": 30, "note_on_time": 75.617, "note_off_time": 75.81}, {"pitch": 77, "velocity": 27, "note_on_time": 76.165, "note_off_time": 76.329}, {"pitch": 79, "velocity": 39, "note_on_time": 76.697, "note_off_time": 76.893}, {"pitch": 74, "velocity": 47, "note_on_time": 77.236, "note_off_time": 77.343}, {"pitch": 72, "velocity": 38, "note_on_time": 77.769, "note_off_time": 77.922}, {"pitch": 76, "velocity": 16, "note_on_time": 80.261, "note_off_time": 80.486}, {"pitch": 77, "velocity": 34, "note_on_time": 80.813, "note_off_time": 80.967}, {"pitch": 79, "velocity": 50, "note_on_time": 81.326, "note_off_time": 81.56}, {"pitch": 74, "velocity": 44, "note_on_time": 81.994, "note_off_time": 82.121}, {"pitch": 72, "velocity": 40, "note_on_time": 82.531, "note_off_time": 82.685}, {"pitch": 76, "velocity": 31, "note_on_time": 85.283, "note_off_time": 85.441}, {"pitch": 77, "velocity": 39, "note_on_time": 85.79, "note_off_time": 85.96}, {"pitch": 79, "velocity": 50, "note_on_time": 86.283, "note_off_time": 86.483}, {"pitch": 74, "velocity": 43, "note_on_time": 86.914, "note_off_time": 87.02}, {"pitch": 72, "velocity": 42, "note_on_time": 87.469, "note_off_time": 87.629}, {"pitch": 76, "velocity": 34, "note_on_time": 89.988, "note_off_time": 90.182}, {"pitch": 77, "velocity": 45, "note_on_time": 90.512, "note_off_time": 90.653}, {"pitch": 79, "velocity": 43, "note_on_time": 91.067, "note_off_time": 91.277}, {"pitch": 74, "velocity": 40, "note_on_time": 91.799, "note_off_time": 91.964}, {"pitch": 72, "velocity": 43, "note_on_time": 92.348, "note_off_time": 92.507}, {"pitch": 76, "velocity": 32, "note_on_time": 94.852, "note_off_time": 95.064}, {"pitch": 74, "velocity": 55, "note_on_time": 95.473, "note_off_time": 95.625}, {"pitch": 72, "velocity": 46, "note_on_time": 96.071, "note_off_time": 96.243}, {"pitch": 77, "velocity": 38, "note_on_time": 97.165, "note_off_time": 97.374}, {"pitch": 79, "velocity": 24, "note_on_time": 97.615, "note_off_time": 97.856}, {"pitch": 76, "velocity": 37, "note_on_time": 99.705, "note_off_time": 99.858}, {"pitch": 74, "velocity": 52, "note_on_time": 100.298, "note_off_time": 100.448}, {"pitch": 72, "velocity": 46, "note_on_time": 100.879, "note_off_time": 101.073}, {"pitch": 77, "velocity": 42, "note_on_time": 101.601, "note_off_time": 101.743}, {"pitch": 79, "velocity": 37, "note_on_time": 102.085, "note_off_time": 102.263}, {"pitch": 76, "velocity": 20, "note_on_time": 104.571, "note_off_time": 104.774}, {"pitch": 74, "velocity": 49, "note_on_time": 105.127, "note_off_time": 105.272}, {"pitch": 72, "velocity": 53, "note_on_time": 105.707, "note_off_time": 105.885}, {"pitch": 77, "velocity": 39, "note_on_time": 106.252, "note_off_time": 106.422}, {"pitch": 79, "velocity": 56, "note_on_time": 106.898, "note_off_time": 107.094}, {"pitch": 76, "velocity": 31, "note_on_time": 109.541, "note_off_time": 109.719}, {"pitch": 74, "velocity": 48, "note_on_time": 110.047, "note_off_time": 110.213}, {"pitch": 72, "velocity": 54, "note_on_time": 110.624, "note_off_time": 110.807}, {"pitch": 77, "velocity": 40, "note_on_time": 111.156, "note_off_time": 111.314}, {"pitch": 79, "velocity": 40, "note_on_time": 111.817, "note_off_time": 112.025}, {"pitch": 77, "velocity": 37, "note_on_time": 114.334, "note_off_time": 114.532}, {"pitch": 79, "velocity": 42, "note_on_time": 114.923, "note_off_time": 115.14}, {"pitch": 76, "velocity": 41, "note_on_time": 115.559, "note_off_time": 115.749}, {"pitch": 74, "velocity": 45, "note_on_time": 116.13, "note_off_time": 116.265}, {"pitch": 72, "velocity": 43, "note_on_time": 116.703, "note_off_time": 116.857}, {"pitch": 77, "velocity": 32, "note_on_time": 119.274, "note_off_time": 119.451}, {"pitch": 79, "velocity": 44, "note_on_time": 119.881, "note_off_time": 120.079}, {"pitch": 76, "velocity": 37, "note_on_time": 120.487, "note_off_time": 120.673}, {"pitch": 74, "velocity": 39, "note_on_time": 121.0, "note_off_time": 121.14}, {"pitch": 72, "velocity": 43, "note_on_time": 121.572, "note_off_time": 121.718}, {"pitch": 77, "velocity": 22, "note_on_time": 124.05, "note_off_time": 124.287}, {"pitch": 79, "velocity": 41, "note_on_time": 124.586, "note_off_time": 124.777}, {"pitch": 76, "velocity": 46, "note_on_time": 125.211, "note_off_time": 125.388}, {"pitch": 74, "velocity": 43, "note_on_time": 125.756, "note_off_time": 125.925}, {"pitch": 72, "velocity": 44, "note_on_time": 126.378, "note_off_time": 126.516}, {"pitch": 77, "velocity": 39, "note_on_time": 128.915, "note_off_time": 129.126}, {"pitch": 79, "velocity": 49, "note_on_time": 129.476, "note_off_time": 129.693}, {"pitch": 76, "velocity": 53, "note_on_time": 130.043, "note_off_time": 130.183}, {"pitch": 74, "velocity": 54, "note_on_time": 130.608, "note_off_time": 130.78}, {"pitch": 72, "velocity": 43, "note_on_time": 131.187, "note_off_time": 131.359}, {"pitch": 74, "velocity": 56, "note_on_time": 134.37, "note_off_time": 134.575}, {"pitch": 72, "velocity": 46, "note_on_time": 134.932, "note_off_time": 135.11}, {"pitch": 76, "velocity": 44, "note_on_time": 135.496, "note_off_time": 135.695}, {"pitch": 77, "velocity": 44, "note_on_time": 136.025, "note_off_time": 136.2}, {"pitch": 79, "velocity": 36, "note_on_time": 136.575, "note_off_time": 136.784}, {"pitch": 74, "velocity": 56, "note_on_time": 138.674, "note_off_time": 138.856}, {"pitch": 72, "velocity": 47, "note_on_time": 139.222, "note_off_time": 139.4}, {"pitch": 76, "velocity": 39, "note_on_time": 139.823, "note_off_time": 140.006}, {"pitch": 77, "velocity": 38, "note_on_time": 140.421, "note_off_time": 140.598}, {"pitch": 79, "velocity": 50, "note_on_time": 140.995, "note_off_time": 141.211}, {"pitch": 74, "velocity": 57, "note_on_time": 143.588, "note_off_time": 143.737}, {"pitch": 72, "velocity": 37, "note_on_time": 144.114, "note_off_time": 144.307}, {"pitch": 76, "velocity": 53, "note_on_time": 144.678, "note_off_time": 144.832}, {"pitch": 77, "velocity": 35, "note_on_time": 145.31, "note_off_time": 145.468}, {"pitch": 79, "velocity": 43, "note_on_time": 145.873, "note_off_time": 146.059}, {"pitch": 74, "velocity": 42, "note_on_time": 148.305, "note_off_time": 148.461}, {"pitch": 72, "velocity": 49, "note_on_time": 148.995, "note_off_time": 149.152}, {"pitch": 76, "velocity": 43, "note_on_time": 149.568, "note_off_time": 149.776}, {"pitch": 77, "velocity": 46, "note_on_time": 150.17, "note_off_time": 150.332}, {"pitch": 79, "velocity": 60, "note_on_time": 150.814, "note_off_time": 151.007}, {"pitch": 72, "velocity": 33, "note_on_time": 153.381, "note_off_time": 153.561}, {"pitch": 74, "velocity": 55, "note_on_time": 153.909, "note_off_time": 154.118}, {"pitch": 76, "velocity": 43, "note_on_time": 154.483, "note_off_time": 154.657}, {"pitch": 77, "velocity": 46, "note_on_time": 155.038, "note_off_time": 155.218}, {"pitch": 79, "velocity": 43, "note_on_time": 155.658, "note_off_time": 155.86}, {"pitch": 72, "velocity": 49, "note_on_time": 158.204, "note_off_time": 158.38}, {"pitch": 74, "velocity": 45, "note_on_time": 158.723, "note_off_time": 158.906}, {"pitch": 76, "velocity": 36, "note_on_time": 159.339, "note_off_time": 159.507}, {"pitch": 77, "velocity": 39, "note_on_time": 159.884, "note_off_time": 160.097}, {"pitch": 79, "velocity": 43, "note_on_time": 160.465, "note_off_time": 160.641}, {"pitch": 72, "velocity": 39, "note_on_time": 162.905, "note_off_time": 163.143}, {"pitch": 74, "velocity": 51, "note_on_time": 163.559, "note_off_time": 163.74}, {"pitch": 76, "velocity": 43, "note_on_time": 164.145, "note_off_time": 164.334}, {"pitch": 77, "velocity": 37, "note_on_time": 164.695, "note_off_time": 164.872}, {"pitch": 79, "velocity": 40, "note_on_time": 165.293, "note_off_time": 165.482}, {"pitch": 72, "velocity": 51, "note_on_time": 167.871, "note_off_time": 168.032}, {"pitch": 74, "velocity": 44, "note_on_time": 168.407, "note_off_time": 168.561}, {"pitch": 76, "velocity": 34, "note_on_time": 168.976, "note_off_time": 169.162}, {"pitch": 77, "velocity": 41, "note_on_time": 169.557, "note_off_time": 169.72}, {"pitch": 79, "velocity": 43, "note_on_time": 170.08, "note_off_time": 170.269}, {"pitch": 79, "velocity": 44, "note_on_time": 172.748, "note_off_time": 172.937}, {"pitch": 77, "velocity": 30, "note_on_time": 173.266, "note_off_time": 173.428}, {"pitch": 76, "velocity": 43, "note_on_time": 173.852, "note_off_time": 174.022}, {"pitch": 74, "velocity": 29, "note_on_time": 174.332, "note_off_time": 174.507}, {"pitch": 72, "velocity": 29, "note_on_time": 174.925, "note_off_time": 175.061}, {"pitch": 79, "velocity": 46, "note_on_time": 177.516, "note_off_time": 177.725}, {"pitch": 77, "velocity": 37, "note_on_time": 178.136, "note_off_time": 178.271}, {"pitch": 76, "velocity": 30, "note_on_time": 178.712, "note_off_time": 178.909}, {"pitch": 74, "velocity": 38, "note_on_time": 179.292, "note_off_time": 179.431}, {"pitch": 72, "velocity": 37, "note_on_time": 179.768, "note_off_time": 179.955}, {"pitch": 79, "velocity": 42, "note_on_time": 182.521, "note_off_time": 182.723}, {"pitch": 77, "velocity": 31, "note_on_time": 183.074, "note_off_time": 183.258}, {"pitch": 76, "velocity": 49, "note_on_time": 183.598, "note_off_time": 183.76}, {"pitch": 74, "velocity": 44, "note_on_time": 184.189, "note_off_time": 184.324}, {"pitch": 72, "velocity": 43, "note_on_time": 184.835, "note_off_time": 184.959}, {"pitch": 79, "velocity": 55, "note_on_time": 187.388, "note_off_time": 187.589}, {"pitch": 77, "velocity": 30, "note_on_time": 187.904, "note_off_time": 188.142}, {"pitch": 76, "velocity": 35, "note_on_time": 188.508, "note_off_time": 188.702}, {"pitch": 74, "velocity": 45, "note_on_time": 189.111, "note_off_time": 189.275}, {"pitch": 72, "velocity": 46, "note_on_time": 189.714, "note_off_time": 189.853}, {"pitch": 74, "velocity": 53, "note_on_time": 192.412, "note_off_time": 192.556}, {"pitch": 76, "velocity": 35, "note_on_time": 193.077, "note_off_time": 193.221}, {"pitch": 77, "velocity": 42, "note_on_time": 193.539, "note_off_time": 193.723}, {"pitch": 79, "velocity": 34, "note_on_time": 194.042, "note_off_time": 194.236}]</notes><guidance name="Guidance Mode">None</guidance><error name="Error value">99</error></trial></trials></MIDI>