<MIDI midiNo="2024_03_04-14_02_18"><target_notes><notes name="Note List">[{"pitch": 60, "velocity": 40, "note_on_time": 0.011, "note_off_time": 1.024}, {"pitch": 64, "velocity": 40, "note_on_time": 0.011, "note_off_time": 1.025}, {"pitch": 67, "velocity": 40, "note_on_time": 0.011, "note_off_time": 1.026}, {"pitch": 48, "velocity": 40, "note_on_time": 0.011, "note_off_time": 1.026}, {"pitch": 52, "velocity": 40, "note_on_time": 1.026, "note_off_time": 2.03}, {"pitch": 55, "velocity": 40, "note_on_time": 1.026, "note_off_time": 2.032}, {"pitch": 79, "velocity": 40, "note_on_time": 2.03, "note_off_time": 3.036}, {"pitch": 48, "velocity": 40, "note_on_time": 2.032, "note_off_time": 3.037}, {"pitch": 52, "velocity": 40, "note_on_time": 3.037, "note_off_time": 4.04}, {"pitch": 55, "velocity": 40, "note_on_time": 3.037, "note_off_time": 4.04}, {"pitch": 48, "velocity": 40, "note_on_time": 4.04, "note_off_time": 5.051}, {"pitch": 52, "velocity": 40, "note_on_time": 5.051, "note_off_time": 6.052}, {"pitch": 55, "velocity": 40, "note_on_time": 5.051, "note_off_time": 6.052}, {"pitch": 48, "velocity": 40, "note_on_time": 6.052, "note_off_time": 7.055}, {"pitch": 52, "velocity": 40, "note_on_time": 7.055, "note_off_time": 8.067}, {"pitch": 55, "velocity": 40, "note_on_time": 7.055, "note_off_time": 8.067}, {"pitch": 60, "velocity": 40, "note_on_time": 8.066, "note_off_time": 9.071}, {"pitch": 64, "velocity": 40, "note_on_time": 8.066, "note_off_time": 9.071}, {"pitch": 67, "velocity": 40, "note_on_time": 8.067, "note_off_time": 9.071}, {"pitch": 48, "velocity": 40, "note_on_time": 8.067, "note_off_time": 9.071}, {"pitch": 52, "velocity": 40, "note_on_time": 9.071, "note_off_time": 10.085}, {"pitch": 55, "velocity": 40, "note_on_time": 9.071, "note_off_time": 10.085}, {"pitch": 72, "velocity": 40, "note_on_time": 10.085, "note_off_time": 11.095}, {"pitch": 48, "velocity": 40, "note_on_time": 10.085, "note_off_time": 11.095}, {"pitch": 52, "velocity": 40, "note_on_time": 11.095, "note_off_time": 12.102}, {"pitch": 55, "velocity": 40, "note_on_time": 11.095, "note_off_time": 12.102}, {"pitch": 48, "velocity": 40, "note_on_time": 12.102, "note_off_time": 13.102}, {"pitch": 52, "velocity": 40, "note_on_time": 13.102, "note_off_time": 14.107}, {"pitch": 55, "velocity": 40, "note_on_time": 13.102, "note_off_time": 14.107}, {"pitch": 48, "velocity": 40, "note_on_time": 14.107, "note_off_time": 15.115}, {"pitch": 52, "velocity": 40, "note_on_time": 15.115, "note_off_time": 16.119}, {"pitch": 55, "velocity": 40, "note_on_time": 15.115, "note_off_time": 16.119}, {"pitch": 60, "velocity": 40, "note_on_time": 16.118, "note_off_time": 17.124}, {"pitch": 64, "velocity": 40, "note_on_time": 16.118, "note_off_time": 17.125}, {"pitch": 67, "velocity": 40, "note_on_time": 16.119, "note_off_time": 17.126}, {"pitch": 48, "velocity": 40, "note_on_time": 16.119, "note_off_time": 17.126}, {"pitch": 52, "velocity": 40, "note_on_time": 17.126, "note_off_time": 18.141}, {"pitch": 55, "velocity": 40, "note_on_time": 17.126, "note_off_time": 18.142}, {"pitch": 76, "velocity": 40, "note_on_time": 18.141, "note_off_time": 19.15}, {"pitch": 48, "velocity": 40, "note_on_time": 18.142, "note_off_time": 19.15}, {"pitch": 52, "velocity": 40, "note_on_time": 19.151, "note_off_time": 20.161}, {"pitch": 55, "velocity": 40, "note_on_time": 19.151, "note_off_time": 20.161}, {"pitch": 48, "velocity": 40, "note_on_time": 20.161, "note_off_time": 21.163}, {"pitch": 52, "velocity": 40, "note_on_time": 21.163, "note_off_time": 22.179}, {"pitch": 55, "velocity": 40, "note_on_time": 21.163, "note_off_time": 22.179}, {"pitch": 48, "velocity": 40, "note_on_time": 22.179, "note_off_time": 23.195}, {"pitch": 52, "velocity": 40, "note_on_time": 23.195, "note_off_time": 24.2}, {"pitch": 55, "velocity": 40, "note_on_time": 23.195, "note_off_time": 24.2}, {"pitch": 60, "velocity": 40, "note_on_time": 24.199, "note_off_time": 25.209}, {"pitch": 64, "velocity": 40, "note_on_time": 24.2, "note_off_time": 25.209}, {"pitch": 67, "velocity": 40, "note_on_time": 24.2, "note_off_time": 25.21}, {"pitch": 48, "velocity": 40, "note_on_time": 24.2, "note_off_time": 25.21}, {"pitch": 52, "velocity": 40, "note_on_time": 25.21, "note_off_time": 26.214}, {"pitch": 55, "velocity": 40, "note_on_time": 25.21, "note_off_time": 26.214}, {"pitch": 79, "velocity": 40, "note_on_time": 26.214, "note_off_time": 27.218}, {"pitch": 48, "velocity": 40, "note_on_time": 26.214, "note_off_time": 27.218}, {"pitch": 52, "velocity": 40, "note_on_time": 27.219, "note_off_time": 28.224}, {"pitch": 55, "velocity": 40, "note_on_time": 27.219, "note_off_time": 28.224}, {"pitch": 48, "velocity": 40, "note_on_time": 28.224, "note_off_time": 29.227}, {"pitch": 52, "velocity": 40, "note_on_time": 29.227, "note_off_time": 30.242}, {"pitch": 55, "velocity": 40, "note_on_time": 29.227, "note_off_time": 30.242}, {"pitch": 48, "velocity": 40, "note_on_time": 30.242, "note_off_time": 31.254}, {"pitch": 52, "velocity": 40, "note_on_time": 31.254, "note_off_time": 32.259}, {"pitch": 55, "velocity": 40, "note_on_time": 31.254, "note_off_time": 32.259}, {"pitch": 60, "velocity": 40, "note_on_time": 32.258, "note_off_time": 33.264}, {"pitch": 64, "velocity": 40, "note_on_time": 32.258, "note_off_time": 33.266}, {"pitch": 67, "velocity": 40, "note_on_time": 32.259, "note_off_time": 33.266}, {"pitch": 48, "velocity": 40, "note_on_time": 32.259, "note_off_time": 33.266}, {"pitch": 52, "velocity": 40, "note_on_time": 33.266, "note_off_time": 34.283}, {"pitch": 55, "velocity": 40, "note_on_time": 33.266, "note_off_time": 34.283}, {"pitch": 72, "velocity": 40, "note_on_time": 34.283, "note_off_time": 35.295}, {"pitch": 48, "velocity": 40, "note_on_time": 34.283, "note_off_time": 35.295}, {"pitch": 52, "velocity": 40, "note_on_time": 35.295, "note_off_time": 36.304}, {"pitch": 55, "velocity": 40, "note_on_time": 35.295, "note_off_time": 36.304}, {"pitch": 48, "velocity": 40, "note_on_time": 36.304, "note_off_time": 37.307}, {"pitch": 52, "velocity": 40, "note_on_time": 37.307, "note_off_time": 38.308}, {"pitch": 55, "velocity": 40, "note_on_time": 37.307, "note_off_time": 38.308}, {"pitch": 48, "velocity": 40, "note_on_time": 38.308, "note_off_time": 39.317}, {"pitch": 52, "velocity": 40, "note_on_time": 39.317, "note_off_time": 40.331}, {"pitch": 55, "velocity": 40, "note_on_time": 39.317, "note_off_time": 40.331}, {"pitch": 60, "velocity": 40, "note_on_time": 40.33, "note_off_time": 41.334}, {"pitch": 64, "velocity": 40, "note_on_time": 40.33, "note_off_time": 41.335}, {"pitch": 67, "velocity": 40, "note_on_time": 40.331, "note_off_time": 41.335}, {"pitch": 74, "velocity": 40, "note_on_time": 42.347, "note_off_time": 43.358}, {"pitch": 60, "velocity": 40, "note_on_time": 48.373, "note_off_time": 49.388}, {"pitch": 64, "velocity": 40, "note_on_time": 48.374, "note_off_time": 49.389}, {"pitch": 67, "velocity": 40, "note_on_time": 48.375, "note_off_time": 49.39}, {"pitch": 77, "velocity": 40, "note_on_time": 50.404, "note_off_time": 51.42}, {"pitch": 60, "velocity": 40, "note_on_time": 56.427, "note_off_time": 57.433}, {"pitch": 64, "velocity": 40, "note_on_time": 56.428, "note_off_time": 57.434}, {"pitch": 67, "velocity": 40, "note_on_time": 56.428, "note_off_time": 57.435}, {"pitch": 79, "velocity": 40, "note_on_time": 58.44, "note_off_time": 59.443}, {"pitch": 60, "velocity": 40, "note_on_time": 64.457, "note_off_time": 65.467}, {"pitch": 64, "velocity": 40, "note_on_time": 64.458, "note_off_time": 65.467}, {"pitch": 67, "velocity": 40, "note_on_time": 64.458, "note_off_time": 65.468}, {"pitch": 76, "velocity": 40, "note_on_time": 66.483, "note_off_time": 67.486}, {"pitch": 60, "velocity": 40, "note_on_time": 72.497, "note_off_time": 73.513}, {"pitch": 64, "velocity": 40, "note_on_time": 72.498, "note_off_time": 73.513}, {"pitch": 67, "velocity": 40, "note_on_time": 72.499, "note_off_time": 73.514}, {"pitch": 77, "velocity": 40, "note_on_time": 74.518, "note_off_time": 75.529}, {"pitch": 60, "velocity": 40, "note_on_time": 80.539, "note_off_time": 81.555}, {"pitch": 64, "velocity": 40, "note_on_time": 80.539, "note_off_time": 81.556}, {"pitch": 67, "velocity": 40, "note_on_time": 80.54, "note_off_time": 81.557}, {"pitch": 76, "velocity": 40, "note_on_time": 82.565, "note_off_time": 83.568}, {"pitch": 60, "velocity": 40, "note_on_time": 88.573, "note_off_time": 89.587}, {"pitch": 64, "velocity": 40, "note_on_time": 88.574, "note_off_time": 89.588}, {"pitch": 67, "velocity": 40, "note_on_time": 88.575, "note_off_time": 89.588}, {"pitch": 74, "velocity": 40, "note_on_time": 90.605, "note_off_time": 91.611}, {"pitch": 60, "velocity": 40, "note_on_time": 96.623, "note_off_time": 97.636}, {"pitch": 64, "velocity": 40, "note_on_time": 96.624, "note_off_time": 97.637}, {"pitch": 67, "velocity": 40, "note_on_time": 96.634, "note_off_time": 97.638}, {"pitch": 72, "velocity": 40, "note_on_time": 98.654, "note_off_time": 99.655}, {"pitch": 60, "velocity": 40, "note_on_time": 104.665, "note_off_time": 105.671}, {"pitch": 64, "velocity": 40, "note_on_time": 104.666, "note_off_time": 105.672}, {"pitch": 67, "velocity": 40, "note_on_time": 104.666, "note_off_time": 105.673}, {"pitch": 79, "velocity": 40, "note_on_time": 106.676, "note_off_time": 107.679}, {"pitch": 60, "velocity": 40, "note_on_time": 112.686, "note_off_time": 113.702}, {"pitch": 64, "velocity": 40, "note_on_time": 112.687, "note_off_time": 113.703}, {"pitch": 67, "velocity": 40, "note_on_time": 112.687, "note_off_time": 113.703}, {"pitch": 74, "velocity": 40, "note_on_time": 114.719, "note_off_time": 115.725}, {"pitch": 60, "velocity": 40, "note_on_time": 120.733, "note_off_time": 121.745}, {"pitch": 64, "velocity": 40, "note_on_time": 120.734, "note_off_time": 121.746}, {"pitch": 67, "velocity": 40, "note_on_time": 120.734, "note_off_time": 121.746}, {"pitch": 77, "velocity": 40, "note_on_time": 122.749, "note_off_time": 123.76}, {"pitch": 60, "velocity": 40, "note_on_time": 128.762, "note_off_time": 129.779}, {"pitch": 64, "velocity": 40, "note_on_time": 128.763, "note_off_time": 129.779}, {"pitch": 67, "velocity": 40, "note_on_time": 128.763, "note_off_time": 129.78}, {"pitch": 76, "velocity": 40, "note_on_time": 130.795, "note_off_time": 131.797}, {"pitch": 60, "velocity": 40, "note_on_time": 136.807, "note_off_time": 137.81}, {"pitch": 64, "velocity": 40, "note_on_time": 136.808, "note_off_time": 137.81}, {"pitch": 67, "velocity": 40, "note_on_time": 136.809, "note_off_time": 137.81}, {"pitch": 77, "velocity": 40, "note_on_time": 138.824, "note_off_time": 139.84}, {"pitch": 60, "velocity": 40, "note_on_time": 144.846, "note_off_time": 145.855}, {"pitch": 64, "velocity": 40, "note_on_time": 144.847, "note_off_time": 145.855}, {"pitch": 67, "velocity": 40, "note_on_time": 144.848, "note_off_time": 145.856}, {"pitch": 74, "velocity": 40, "note_on_time": 146.867, "note_off_time": 147.877}, {"pitch": 60, "velocity": 40, "note_on_time": 152.893, "note_off_time": 153.9}, {"pitch": 64, "velocity": 40, "note_on_time": 152.894, "note_off_time": 153.901}, {"pitch": 67, "velocity": 40, "note_on_time": 152.895, "note_off_time": 153.901}, {"pitch": 72, "velocity": 40, "note_on_time": 154.905, "note_off_time": 155.911}, {"pitch": 60, "velocity": 40, "note_on_time": 160.919, "note_off_time": 161.931}, {"pitch": 64, "velocity": 40, "note_on_time": 160.92, "note_off_time": 161.932}, {"pitch": 67, "velocity": 40, "note_on_time": 160.921, "note_off_time": 161.933}, {"pitch": 79, "velocity": 40, "note_on_time": 162.948, "note_off_time": 163.957}]</notes><options name="Option List">((4, 4), [0.5, 0.25], 3, 8, &lt;NoteRangePerHand.TWO_NOTES: 3&gt;, &lt;NoteRangePerHand.ONE_NOTE: 2&gt;, False, True, True, 100)</options></target_notes><trials><trial trial_no="1" timestamp="2024_03_04-13_59_35"><notes name="Played Notes">[{"pitch": 74, "velocity": 51, "note_on_time": 3.357, "note_off_time": 3.658}, {"pitch": 77, "velocity": 39, "note_on_time": 7.003, "note_off_time": 7.322}, {"pitch": 74, "velocity": 47, "note_on_time": 11.499, "note_off_time": 11.766}, {"pitch": 72, "velocity": 9, "note_on_time": 13.764, "note_off_time": 14.227}, {"pitch": 76, "velocity": 37, "note_on_time": 15.913, "note_off_time": 16.264}, {"pitch": 74, "velocity": 39, "note_on_time": 19.679, "note_off_time": 19.894}, {"pitch": 79, "velocity": 39, "note_on_time": 25.365, "note_off_time": 25.741}, {"pitch": 77, "velocity": 50, "note_on_time": 28.5, "note_off_time": 28.767}, {"pitch": 77, "velocity": 43, "note_on_time": 29.103, "note_off_time": 29.389}, {"pitch": 74, "velocity": 58, "note_on_time": 31.769, "note_off_time": 32.003}, {"pitch": 79, "velocity": 68, "note_on_time": 34.569, "note_off_time": 34.899}, {"pitch": 74, "velocity": 54, "note_on_time": 36.857, "note_off_time": 37.104}, {"pitch": 77, "velocity": 46, "note_on_time": 38.71, "note_off_time": 39.011}, {"pitch": 79, "velocity": 53, "note_on_time": 39.752, "note_off_time": 40.151}, {"pitch": 72, "velocity": 36, "note_on_time": 44.536, "note_off_time": 44.732}, {"pitch": 72, "velocity": 47, "note_on_time": 46.533, "note_off_time": 46.777}, {"pitch": 79, "velocity": 33, "note_on_time": 48.407, "note_off_time": 48.877}, {"pitch": 74, "velocity": 31, "note_on_time": 52.857, "note_off_time": 53.107}, {"pitch": 79, "velocity": 43, "note_on_time": 57.791, "note_off_time": 58.054}, {"pitch": 72, "velocity": 42, "note_on_time": 60.674, "note_off_time": 60.874}, {"pitch": 72, "velocity": 29, "note_on_time": 61.496, "note_off_time": 61.626}, {"pitch": 72, "velocity": 46, "note_on_time": 62.001, "note_off_time": 62.153}, {"pitch": 77, "velocity": 36, "note_on_time": 63.626, "note_off_time": 63.843}, {"pitch": 77, "velocity": 31, "note_on_time": 64.043, "note_off_time": 64.248}, {"pitch": 77, "velocity": 46, "note_on_time": 64.435, "note_off_time": 64.593}, {"pitch": 79, "velocity": 29, "note_on_time": 68.894, "note_off_time": 69.109}, {"pitch": 79, "velocity": 39, "note_on_time": 69.425, "note_off_time": 69.614}, {"pitch": 72, "velocity": 60, "note_on_time": 70.589, "note_off_time": 71.033}, {"pitch": 72, "velocity": 59, "note_on_time": 74.522, "note_off_time": 74.769}, {"pitch": 74, "velocity": 49, "note_on_time": 84.261, "note_off_time": 84.503}, {"pitch": 77, "velocity": 45, "note_on_time": 92.216, "note_off_time": 92.448}, {"pitch": 74, "velocity": 51, "note_on_time": 99.995, "note_off_time": 100.284}, {"pitch": 72, "velocity": 31, "note_on_time": 109.053, "note_off_time": 109.312}, {"pitch": 72, "velocity": 53, "note_on_time": 116.322, "note_off_time": 116.573}, {"pitch": 74, "velocity": 63, "note_on_time": 123.96, "note_off_time": 124.254}, {"pitch": 74, "velocity": 64, "note_on_time": 131.777, "note_off_time": 132.069}, {"pitch": 72, "velocity": 51, "note_on_time": 140.076, "note_off_time": 140.326}, {"pitch": 72, "velocity": 58, "note_on_time": 148.584, "note_off_time": 148.811}, {"pitch": 79, "velocity": 37, "note_on_time": 155.983, "note_off_time": 156.279}]</notes><guidance name="Guidance Mode">None</guidance><error name="Error value">99</error></trial><trial trial_no="2" timestamp="2024_03_04-14_06_19"><notes name="Played Notes">[{"pitch": 72, "velocity": 44, "note_on_time": 2.783, "note_off_time": 2.967}, {"pitch": 74, "velocity": 54, "note_on_time": 3.121, "note_off_time": 3.609}, {"pitch": 76, "velocity": 39, "note_on_time": 3.48, "note_off_time": 3.655}, {"pitch": 77, "velocity": 17, "note_on_time": 4.14, "note_off_time": 4.406}, {"pitch": 79, "velocity": 72, "note_on_time": 4.786, "note_off_time": 5.009}, {"pitch": 72, "velocity": 53, "note_on_time": 5.609, "note_off_time": 5.838}, {"pitch": 74, "velocity": 39, "note_on_time": 5.989, "note_off_time": 6.198}, {"pitch": 76, "velocity": 50, "note_on_time": 6.356, "note_off_time": 6.481}, {"pitch": 77, "velocity": 52, "note_on_time": 6.695, "note_off_time": 6.928}, {"pitch": 79, "velocity": 44, "note_on_time": 7.288, "note_off_time": 7.551}, {"pitch": 72, "velocity": 52, "note_on_time": 8.136, "note_off_time": 8.352}, {"pitch": 74, "velocity": 38, "note_on_time": 8.459, "note_off_time": 8.625}, {"pitch": 76, "velocity": 49, "note_on_time": 8.811, "note_off_time": 8.959}, {"pitch": 77, "velocity": 61, "note_on_time": 9.166, "note_off_time": 9.35}, {"pitch": 72, "velocity": 36, "note_on_time": 10.118, "note_off_time": 10.31}, {"pitch": 74, "velocity": 50, "note_on_time": 10.457, "note_off_time": 10.652}, {"pitch": 76, "velocity": 45, "note_on_time": 10.789, "note_off_time": 10.918}, {"pitch": 79, "velocity": 48, "note_on_time": 9.49, "note_off_time": 10.982}, {"pitch": 77, "velocity": 62, "note_on_time": 11.076, "note_off_time": 11.243}, {"pitch": 79, "velocity": 30, "note_on_time": 11.565, "note_off_time": 11.866}, {"pitch": 79, "velocity": 53, "note_on_time": 12.642, "note_off_time": 12.942}, {"pitch": 77, "velocity": 66, "note_on_time": 13.333, "note_off_time": 13.976}, {"pitch": 76, "velocity": 44, "note_on_time": 13.68, "note_off_time": 14.254}, {"pitch": 74, "velocity": 62, "note_on_time": 14.081, "note_off_time": 14.496}, {"pitch": 72, "velocity": 61, "note_on_time": 14.648, "note_off_time": 14.774}, {"pitch": 77, "velocity": 52, "note_on_time": 15.652, "note_off_time": 16.456}, {"pitch": 79, "velocity": 58, "note_on_time": 15.336, "note_off_time": 16.567}, {"pitch": 76, "velocity": 48, "note_on_time": 15.969, "note_off_time": 16.596}, {"pitch": 74, "velocity": 45, "note_on_time": 16.282, "note_off_time": 16.604}, {"pitch": 72, "velocity": 60, "note_on_time": 16.614, "note_off_time": 16.746}, {"pitch": 79, "velocity": 65, "note_on_time": 17.196, "note_off_time": 17.516}, {"pitch": 76, "velocity": 52, "note_on_time": 17.869, "note_off_time": 18.072}, {"pitch": 74, "velocity": 35, "note_on_time": 18.211, "note_off_time": 18.518}, {"pitch": 77, "velocity": 55, "note_on_time": 17.54, "note_off_time": 18.533}, {"pitch": 72, "velocity": 67, "note_on_time": 18.532, "note_off_time": 18.649}, {"pitch": 77, "velocity": 13, "note_on_time": 19.372, "note_off_time": 19.863}, {"pitch": 76, "velocity": 61, "note_on_time": 20.046, "note_off_time": 20.266}, {"pitch": 74, "velocity": 40, "note_on_time": 20.458, "note_off_time": 20.653}, {"pitch": 72, "velocity": 68, "note_on_time": 21.238, "note_off_time": 21.405}, {"pitch": 79, "velocity": 60, "note_on_time": 19.039, "note_off_time": 21.587}, {"pitch": 74, "velocity": 65, "note_on_time": 22.841, "note_off_time": 23.047}, {"pitch": 76, "velocity": 54, "note_on_time": 23.233, "note_off_time": 23.398}, {"pitch": 77, "velocity": 49, "note_on_time": 24.084, "note_off_time": 24.323}, {"pitch": 72, "velocity": 70, "note_on_time": 25.081, "note_off_time": 25.243}, {"pitch": 74, "velocity": 48, "note_on_time": 27.455, "note_off_time": 27.625}, {"pitch": 76, "velocity": 51, "note_on_time": 27.798, "note_off_time": 27.997}, {"pitch": 77, "velocity": 59, "note_on_time": 28.136, "note_off_time": 28.409}, {"pitch": 72, "velocity": 68, "note_on_time": 29.046, "note_off_time": 29.227}, {"pitch": 74, "velocity": 63, "note_on_time": 29.925, "note_off_time": 30.05}, {"pitch": 76, "velocity": 35, "note_on_time": 30.214, "note_off_time": 30.423}, {"pitch": 77, "velocity": 63, "note_on_time": 30.547, "note_off_time": 30.723}, {"pitch": 79, "velocity": 65, "note_on_time": 30.88, "note_off_time": 31.429}, {"pitch": 72, "velocity": 69, "note_on_time": 31.48, "note_off_time": 31.694}, {"pitch": 74, "velocity": 59, "note_on_time": 32.53, "note_off_time": 32.72}, {"pitch": 76, "velocity": 62, "note_on_time": 32.837, "note_off_time": 32.972}, {"pitch": 77, "velocity": 60, "note_on_time": 33.203, "note_off_time": 33.372}, {"pitch": 79, "velocity": 67, "note_on_time": 33.503, "note_off_time": 33.937}, {"pitch": 72, "velocity": 78, "note_on_time": 34.19, "note_off_time": 34.409}, {"pitch": 77, "velocity": 43, "note_on_time": 36.043, "note_off_time": 36.61}, {"pitch": 76, "velocity": 65, "note_on_time": 36.438, "note_off_time": 36.677}, {"pitch": 74, "velocity": 64, "note_on_time": 36.807, "note_off_time": 36.992}, {"pitch": 72, "velocity": 68, "note_on_time": 37.419, "note_off_time": 37.628}, {"pitch": 77, "velocity": 42, "note_on_time": 38.891, "note_off_time": 39.496}, {"pitch": 76, "velocity": 53, "note_on_time": 39.274, "note_off_time": 39.753}, {"pitch": 74, "velocity": 36, "note_on_time": 39.71, "note_off_time": 39.807}, {"pitch": 79, "velocity": 57, "note_on_time": 38.022, "note_off_time": 40.012}, {"pitch": 79, "velocity": 70, "note_on_time": 40.567, "note_off_time": 40.716}, {"pitch": 77, "velocity": 31, "note_on_time": 41.236, "note_off_time": 41.773}, {"pitch": 76, "velocity": 42, "note_on_time": 41.4, "note_off_time": 41.777}, {"pitch": 74, "velocity": 52, "note_on_time": 41.753, "note_off_time": 42.1}, {"pitch": 72, "velocity": 65, "note_on_time": 42.094, "note_off_time": 42.222}, {"pitch": 79, "velocity": 1, "note_on_time": 41.43, "note_off_time": 42.316}, {"pitch": 79, "velocity": 79, "note_on_time": 42.492, "note_off_time": 43.245}, {"pitch": 77, "velocity": 1, "note_on_time": 43.577, "note_off_time": 43.766}, {"pitch": 77, "velocity": 65, "note_on_time": 44.008, "note_off_time": 44.696}, {"pitch": 76, "velocity": 55, "note_on_time": 44.522, "note_off_time": 44.708}, {"pitch": 74, "velocity": 55, "note_on_time": 45.537, "note_off_time": 45.863}, {"pitch": 72, "velocity": 66, "note_on_time": 45.881, "note_off_time": 46.065}, {"pitch": 79, "velocity": 50, "note_on_time": 46.577, "note_off_time": 46.843}, {"pitch": 76, "velocity": 59, "note_on_time": 49.328, "note_off_time": 49.553}, {"pitch": 77, "velocity": 57, "note_on_time": 49.986, "note_off_time": 50.207}, {"pitch": 79, "velocity": 54, "note_on_time": 50.489, "note_off_time": 51.203}, {"pitch": 74, "velocity": 65, "note_on_time": 51.169, "note_off_time": 51.403}, {"pitch": 72, "velocity": 54, "note_on_time": 51.804, "note_off_time": 51.957}, {"pitch": 76, "velocity": 52, "note_on_time": 52.686, "note_off_time": 52.838}, {"pitch": 77, "velocity": 65, "note_on_time": 53.142, "note_off_time": 53.363}, {"pitch": 79, "velocity": 55, "note_on_time": 53.503, "note_off_time": 54.089}, {"pitch": 74, "velocity": 55, "note_on_time": 54.163, "note_off_time": 54.361}, {"pitch": 72, "velocity": 60, "note_on_time": 54.629, "note_off_time": 54.814}, {"pitch": 76, "velocity": 52, "note_on_time": 55.357, "note_off_time": 55.535}, {"pitch": 77, "velocity": 55, "note_on_time": 55.719, "note_off_time": 55.892}, {"pitch": 74, "velocity": 66, "note_on_time": 56.559, "note_off_time": 56.724}, {"pitch": 79, "velocity": 60, "note_on_time": 56.061, "note_off_time": 56.81}, {"pitch": 72, "velocity": 62, "note_on_time": 56.96, "note_off_time": 57.154}, {"pitch": 76, "velocity": 62, "note_on_time": 57.588, "note_off_time": 57.771}, {"pitch": 77, "velocity": 54, "note_on_time": 57.95, "note_off_time": 58.155}, {"pitch": 81, "velocity": 10, "note_on_time": 58.374, "note_off_time": 58.575}, {"pitch": 79, "velocity": 23, "note_on_time": 58.347, "note_off_time": 58.623}, {"pitch": 74, "velocity": 1, "note_on_time": 59.407, "note_off_time": 59.479}, {"pitch": 79, "velocity": 72, "note_on_time": 58.741, "note_off_time": 59.676}, {"pitch": 74, "velocity": 43, "note_on_time": 59.57, "note_off_time": 59.761}, {"pitch": 72, "velocity": 72, "note_on_time": 60.013, "note_off_time": 60.144}, {"pitch": 77, "velocity": 59, "note_on_time": 64.862, "note_off_time": 65.049}, {"pitch": 79, "velocity": 59, "note_on_time": 65.197, "note_off_time": 65.57}, {"pitch": 76, "velocity": 61, "note_on_time": 66.263, "note_off_time": 66.631}, {"pitch": 74, "velocity": 62, "note_on_time": 66.53, "note_off_time": 66.708}, {"pitch": 72, "velocity": 52, "note_on_time": 66.945, "note_off_time": 67.15}, {"pitch": 77, "velocity": 64, "note_on_time": 68.08, "note_off_time": 68.233}, {"pitch": 79, "velocity": 56, "note_on_time": 68.388, "note_off_time": 68.775}, {"pitch": 76, "velocity": 54, "note_on_time": 68.784, "note_off_time": 69.165}, {"pitch": 74, "velocity": 50, "note_on_time": 69.06, "note_off_time": 69.375}, {"pitch": 72, "velocity": 69, "note_on_time": 69.355, "note_off_time": 69.539}, {"pitch": 77, "velocity": 57, "note_on_time": 69.928, "note_off_time": 70.134}, {"pitch": 79, "velocity": 66, "note_on_time": 70.261, "note_off_time": 70.7}, {"pitch": 76, "velocity": 43, "note_on_time": 70.71, "note_off_time": 71.064}, {"pitch": 74, "velocity": 53, "note_on_time": 71.025, "note_off_time": 71.336}, {"pitch": 72, "velocity": 69, "note_on_time": 71.328, "note_off_time": 71.484}, {"pitch": 77, "velocity": 19, "note_on_time": 71.873, "note_off_time": 72.19}, {"pitch": 77, "velocity": 65, "note_on_time": 72.583, "note_off_time": 72.777}, {"pitch": 79, "velocity": 52, "note_on_time": 72.922, "note_off_time": 73.159}, {"pitch": 76, "velocity": 62, "note_on_time": 73.389, "note_off_time": 73.783}, {"pitch": 74, "velocity": 56, "note_on_time": 73.665, "note_off_time": 73.884}, {"pitch": 72, "velocity": 62, "note_on_time": 74.004, "note_off_time": 74.206}, {"pitch": 77, "velocity": 56, "note_on_time": 74.754, "note_off_time": 74.927}, {"pitch": 79, "velocity": 22, "note_on_time": 75.14, "note_off_time": 75.354}, {"pitch": 76, "velocity": 32, "note_on_time": 77.288, "note_off_time": 77.762}, {"pitch": 74, "velocity": 71, "note_on_time": 77.588, "note_off_time": 77.809}, {"pitch": 72, "velocity": 45, "note_on_time": 78.085, "note_off_time": 78.309}, {"pitch": 72, "velocity": 60, "note_on_time": 80.622, "note_off_time": 80.861}, {"pitch": 74, "velocity": 46, "note_on_time": 81.008, "note_off_time": 81.26}, {"pitch": 76, "velocity": 53, "note_on_time": 81.391, "note_off_time": 81.546}, {"pitch": 77, "velocity": 59, "note_on_time": 81.774, "note_off_time": 81.992}, {"pitch": 79, "velocity": 61, "note_on_time": 82.17, "note_off_time": 82.416}, {"pitch": 72, "velocity": 62, "note_on_time": 83.156, "note_off_time": 83.388}, {"pitch": 74, "velocity": 55, "note_on_time": 83.501, "note_off_time": 83.701}, {"pitch": 76, "velocity": 37, "note_on_time": 83.889, "note_off_time": 84.087}, {"pitch": 77, "velocity": 59, "note_on_time": 84.25, "note_off_time": 84.485}, {"pitch": 81, "velocity": 40, "note_on_time": 84.673, "note_off_time": 84.853}, {"pitch": 79, "velocity": 46, "note_on_time": 84.674, "note_off_time": 84.864}, {"pitch": 72, "velocity": 64, "note_on_time": 85.576, "note_off_time": 85.878}, {"pitch": 74, "velocity": 55, "note_on_time": 85.893, "note_off_time": 86.113}, {"pitch": 76, "velocity": 49, "note_on_time": 86.235, "note_off_time": 86.459}, {"pitch": 77, "velocity": 46, "note_on_time": 86.513, "note_off_time": 86.741}, {"pitch": 81, "velocity": 18, "note_on_time": 86.945, "note_off_time": 87.057}, {"pitch": 79, "velocity": 24, "note_on_time": 86.946, "note_off_time": 87.062}, {"pitch": 79, "velocity": 66, "note_on_time": 87.449, "note_off_time": 87.719}, {"pitch": 72, "velocity": 67, "note_on_time": 88.594, "note_off_time": 88.846}, {"pitch": 74, "velocity": 69, "note_on_time": 88.973, "note_off_time": 89.176}, {"pitch": 76, "velocity": 58, "note_on_time": 89.305, "note_off_time": 89.491}, {"pitch": 77, "velocity": 62, "note_on_time": 89.638, "note_off_time": 89.828}, {"pitch": 79, "velocity": 71, "note_on_time": 89.938, "note_off_time": 90.18}, {"pitch": 79, "velocity": 56, "note_on_time": 91.508, "note_off_time": 92.018}, {"pitch": 76, "velocity": 65, "note_on_time": 92.397, "note_off_time": 92.946}, {"pitch": 74, "velocity": 65, "note_on_time": 92.756, "note_off_time": 93.152}, {"pitch": 77, "velocity": 34, "note_on_time": 91.908, "note_off_time": 93.252}, {"pitch": 72, "velocity": 43, "note_on_time": 93.128, "note_off_time": 93.283}, {"pitch": 79, "velocity": 61, "note_on_time": 93.731, "note_off_time": 94.027}, {"pitch": 77, "velocity": 40, "note_on_time": 94.017, "note_off_time": 94.675}, {"pitch": 74, "velocity": 68, "note_on_time": 94.644, "note_off_time": 94.955}, {"pitch": 76, "velocity": 59, "note_on_time": 94.354, "note_off_time": 94.999}, {"pitch": 72, "velocity": 74, "note_on_time": 94.94, "note_off_time": 95.111}, {"pitch": 79, "velocity": 65, "note_on_time": 95.391, "note_off_time": 96.708}, {"pitch": 77, "velocity": 41, "note_on_time": 95.811, "note_off_time": 96.793}, {"pitch": 76, "velocity": 46, "note_on_time": 96.252, "note_off_time": 96.832}, {"pitch": 74, "velocity": 57, "note_on_time": 96.57, "note_off_time": 96.874}, {"pitch": 72, "velocity": 67, "note_on_time": 96.868, "note_off_time": 97.044}, {"pitch": 76, "velocity": 58, "note_on_time": 97.972, "note_off_time": 98.338}, {"pitch": 77, "velocity": 39, "note_on_time": 97.622, "note_off_time": 98.402}, {"pitch": 79, "velocity": 64, "note_on_time": 97.318, "note_off_time": 98.458}, {"pitch": 74, "velocity": 53, "note_on_time": 98.264, "note_off_time": 98.616}, {"pitch": 72, "velocity": 59, "note_on_time": 98.602, "note_off_time": 98.786}, {"pitch": 79, "velocity": 62, "note_on_time": 99.12, "note_off_time": 99.842}, {"pitch": 76, "velocity": 64, "note_on_time": 99.722, "note_off_time": 100.139}, {"pitch": 74, "velocity": 50, "note_on_time": 100.02, "note_off_time": 100.196}, {"pitch": 77, "velocity": 49, "note_on_time": 99.382, "note_off_time": 100.543}, {"pitch": 72, "velocity": 70, "note_on_time": 100.644, "note_off_time": 100.933}, {"pitch": 74, "velocity": 72, "note_on_time": 101.857, "note_off_time": 102.05}, {"pitch": 76, "velocity": 57, "note_on_time": 102.158, "note_off_time": 102.36}, {"pitch": 77, "velocity": 46, "note_on_time": 102.46, "note_off_time": 102.729}, {"pitch": 79, "velocity": 71, "note_on_time": 102.805, "note_off_time": 103.069}, {"pitch": 72, "velocity": 69, "note_on_time": 103.392, "note_off_time": 103.635}, {"pitch": 74, "velocity": 69, "note_on_time": 104.031, "note_off_time": 104.207}, {"pitch": 76, "velocity": 57, "note_on_time": 104.304, "note_off_time": 104.484}, {"pitch": 77, "velocity": 55, "note_on_time": 104.582, "note_off_time": 104.751}, {"pitch": 79, "velocity": 50, "note_on_time": 104.836, "note_off_time": 105.353}, {"pitch": 72, "velocity": 80, "note_on_time": 105.295, "note_off_time": 105.48}, {"pitch": 74, "velocity": 69, "note_on_time": 105.836, "note_off_time": 106.013}, {"pitch": 76, "velocity": 59, "note_on_time": 106.119, "note_off_time": 106.32}, {"pitch": 77, "velocity": 52, "note_on_time": 106.429, "note_off_time": 106.617}, {"pitch": 79, "velocity": 59, "note_on_time": 106.77, "note_off_time": 107.445}, {"pitch": 72, "velocity": 62, "note_on_time": 107.704, "note_off_time": 107.96}, {"pitch": 74, "velocity": 69, "note_on_time": 108.565, "note_off_time": 108.718}, {"pitch": 76, "velocity": 62, "note_on_time": 108.87, "note_off_time": 109.068}, {"pitch": 77, "velocity": 58, "note_on_time": 109.201, "note_off_time": 109.391}, {"pitch": 79, "velocity": 68, "note_on_time": 109.473, "note_off_time": 109.838}, {"pitch": 72, "velocity": 74, "note_on_time": 110.171, "note_off_time": 110.4}, {"pitch": 77, "velocity": 62, "note_on_time": 113.176, "note_off_time": 113.514}, {"pitch": 76, "velocity": 64, "note_on_time": 113.504, "note_off_time": 113.887}, {"pitch": 74, "velocity": 61, "note_on_time": 113.805, "note_off_time": 114.036}, {"pitch": 72, "velocity": 64, "note_on_time": 114.501, "note_off_time": 114.719}, {"pitch": 79, "velocity": 66, "note_on_time": 115.338, "note_off_time": 115.61}, {"pitch": 77, "velocity": 60, "note_on_time": 115.938, "note_off_time": 116.816}, {"pitch": 76, "velocity": 45, "note_on_time": 116.233, "note_off_time": 116.864}, {"pitch": 74, "velocity": 50, "note_on_time": 116.532, "note_off_time": 116.88}, {"pitch": 72, "velocity": 62, "note_on_time": 116.848, "note_off_time": 117.037}, {"pitch": 79, "velocity": 62, "note_on_time": 117.269, "note_off_time": 117.731}, {"pitch": 74, "velocity": 53, "note_on_time": 118.326, "note_off_time": 118.574}, {"pitch": 76, "velocity": 55, "note_on_time": 118.03, "note_off_time": 118.651}, {"pitch": 77, "velocity": 66, "note_on_time": 117.717, "note_off_time": 118.754}, {"pitch": 72, "velocity": 68, "note_on_time": 118.683, "note_off_time": 118.852}, {"pitch": 79, "velocity": 71, "note_on_time": 119.15, "note_off_time": 119.616}, {"pitch": 74, "velocity": 52, "note_on_time": 120.306, "note_off_time": 120.468}, {"pitch": 76, "velocity": 59, "note_on_time": 119.973, "note_off_time": 120.659}, {"pitch": 77, "velocity": 50, "note_on_time": 119.675, "note_off_time": 120.668}, {"pitch": 74, "velocity": 46, "note_on_time": 120.62, "note_off_time": 120.77}, {"pitch": 72, "velocity": 54, "note_on_time": 120.813, "note_off_time": 121.097}, {"pitch": 79, "velocity": 66, "note_on_time": 121.215, "note_off_time": 121.575}, {"pitch": 77, "velocity": 62, "note_on_time": 122.195, "note_off_time": 122.552}, {"pitch": 76, "velocity": 63, "note_on_time": 122.526, "note_off_time": 122.964}, {"pitch": 74, "velocity": 60, "note_on_time": 122.88, "note_off_time": 123.119}, {"pitch": 72, "velocity": 54, "note_on_time": 123.271, "note_off_time": 123.437}, {"pitch": 79, "velocity": 47, "note_on_time": 123.643, "note_off_time": 123.965}, {"pitch": 76, "velocity": 66, "note_on_time": 126.641, "note_off_time": 126.86}, {"pitch": 77, "velocity": 57, "note_on_time": 126.964, "note_off_time": 127.155}, {"pitch": 74, "velocity": 65, "note_on_time": 128.261, "note_off_time": 128.464}, {"pitch": 72, "velocity": 59, "note_on_time": 128.652, "note_off_time": 128.878}, {"pitch": 79, "velocity": 37, "note_on_time": 127.268, "note_off_time": 128.914}, {"pitch": 76, "velocity": 51, "note_on_time": 129.333, "note_off_time": 129.516}, {"pitch": 77, "velocity": 41, "note_on_time": 129.661, "note_off_time": 129.847}, {"pitch": 74, "velocity": 77, "note_on_time": 130.591, "note_off_time": 130.845}, {"pitch": 79, "velocity": 59, "note_on_time": 129.952, "note_off_time": 131.118}, {"pitch": 72, "velocity": 50, "note_on_time": 130.949, "note_off_time": 131.158}, {"pitch": 76, "velocity": 51, "note_on_time": 131.592, "note_off_time": 131.799}, {"pitch": 77, "velocity": 54, "note_on_time": 131.996, "note_off_time": 132.197}, {"pitch": 74, "velocity": 77, "note_on_time": 132.812, "note_off_time": 133.069}, {"pitch": 79, "velocity": 63, "note_on_time": 132.309, "note_off_time": 133.19}, {"pitch": 72, "velocity": 70, "note_on_time": 133.13, "note_off_time": 133.379}, {"pitch": 76, "velocity": 49, "note_on_time": 133.694, "note_off_time": 133.858}, {"pitch": 77, "velocity": 62, "note_on_time": 134.037, "note_off_time": 134.224}, {"pitch": 79, "velocity": 72, "note_on_time": 134.406, "note_off_time": 135.932}, {"pitch": 74, "velocity": 65, "note_on_time": 135.979, "note_off_time": 136.166}, {"pitch": 72, "velocity": 82, "note_on_time": 136.795, "note_off_time": 136.982}, {"pitch": 74, "velocity": 66, "note_on_time": 138.721, "note_off_time": 138.834}, {"pitch": 76, "velocity": 29, "note_on_time": 138.54, "note_off_time": 138.961}, {"pitch": 76, "velocity": 64, "note_on_time": 139.44, "note_off_time": 139.807}, {"pitch": 74, "velocity": 62, "note_on_time": 139.705, "note_off_time": 140.098}, {"pitch": 72, "velocity": 59, "note_on_time": 140.011, "note_off_time": 140.148}, {"pitch": 77, "velocity": 51, "note_on_time": 140.761, "note_off_time": 140.938}, {"pitch": 79, "velocity": 55, "note_on_time": 141.237, "note_off_time": 141.435}, {"pitch": 74, "velocity": 56, "note_on_time": 142.633, "note_off_time": 142.791}, {"pitch": 76, "velocity": 62, "note_on_time": 142.33, "note_off_time": 143.093}, {"pitch": 72, "velocity": 64, "note_on_time": 143.298, "note_off_time": 143.571}, {"pitch": 77, "velocity": 66, "note_on_time": 143.735, "note_off_time": 143.915}, {"pitch": 79, "velocity": 50, "note_on_time": 144.093, "note_off_time": 144.413}, {"pitch": 74, "velocity": 62, "note_on_time": 145.07, "note_off_time": 145.212}, {"pitch": 72, "velocity": 69, "note_on_time": 145.455, "note_off_time": 145.662}, {"pitch": 76, "velocity": 70, "note_on_time": 144.779, "note_off_time": 145.718}, {"pitch": 77, "velocity": 68, "note_on_time": 146.115, "note_off_time": 146.318}, {"pitch": 79, "velocity": 23, "note_on_time": 146.5, "note_off_time": 146.86}, {"pitch": 76, "velocity": 70, "note_on_time": 156.214, "note_off_time": 156.389}, {"pitch": 77, "velocity": 54, "note_on_time": 156.792, "note_off_time": 157.158}, {"pitch": 77, "velocity": 59, "note_on_time": 160.974, "note_off_time": 161.166}, {"pitch": 79, "velocity": 59, "note_on_time": 161.29, "note_off_time": 161.643}, {"pitch": 76, "velocity": 55, "note_on_time": 161.623, "note_off_time": 162.0}, {"pitch": 74, "velocity": 59, "note_on_time": 161.901, "note_off_time": 162.171}, {"pitch": 72, "velocity": 63, "note_on_time": 162.186, "note_off_time": 162.36}, {"pitch": 77, "velocity": 67, "note_on_time": 162.782, "note_off_time": 162.926}, {"pitch": 79, "velocity": 56, "note_on_time": 163.067, "note_off_time": 163.393}, {"pitch": 76, "velocity": 50, "note_on_time": 163.42, "note_off_time": 163.731}, {"pitch": 74, "velocity": 41, "note_on_time": 163.71, "note_off_time": 163.903}, {"pitch": 72, "velocity": 65, "note_on_time": 164.009, "note_off_time": 164.156}, {"pitch": 77, "velocity": 62, "note_on_time": 164.685, "note_off_time": 164.862}, {"pitch": 79, "velocity": 62, "note_on_time": 164.985, "note_off_time": 165.225}, {"pitch": 76, "velocity": 61, "note_on_time": 165.28, "note_off_time": 165.659}, {"pitch": 74, "velocity": 56, "note_on_time": 165.574, "note_off_time": 165.846}, {"pitch": 72, "velocity": 72, "note_on_time": 165.846, "note_off_time": 166.0}, {"pitch": 77, "velocity": 71, "note_on_time": 166.514, "note_off_time": 166.679}, {"pitch": 79, "velocity": 62, "note_on_time": 166.793, "note_off_time": 167.157}, {"pitch": 76, "velocity": 65, "note_on_time": 167.125, "note_off_time": 167.426}, {"pitch": 74, "velocity": 49, "note_on_time": 167.371, "note_off_time": 167.593}, {"pitch": 72, "velocity": 69, "note_on_time": 168.139, "note_off_time": 168.389}, {"pitch": 74, "velocity": 65, "note_on_time": 170.003, "note_off_time": 170.227}, {"pitch": 72, "velocity": 54, "note_on_time": 170.399, "note_off_time": 170.712}, {"pitch": 76, "velocity": 57, "note_on_time": 170.897, "note_off_time": 171.078}, {"pitch": 77, "velocity": 54, "note_on_time": 171.252, "note_off_time": 171.452}, {"pitch": 79, "velocity": 59, "note_on_time": 171.563, "note_off_time": 171.819}, {"pitch": 74, "velocity": 64, "note_on_time": 172.077, "note_off_time": 172.33}, {"pitch": 72, "velocity": 74, "note_on_time": 172.354, "note_off_time": 172.562}, {"pitch": 76, "velocity": 70, "note_on_time": 172.749, "note_off_time": 172.951}, {"pitch": 77, "velocity": 45, "note_on_time": 173.2, "note_off_time": 173.374}, {"pitch": 81, "velocity": 10, "note_on_time": 173.65, "note_off_time": 173.804}, {"pitch": 79, "velocity": 16, "note_on_time": 173.637, "note_off_time": 173.817}, {"pitch": 74, "velocity": 58, "note_on_time": 174.745, "note_off_time": 175.132}, {"pitch": 72, "velocity": 72, "note_on_time": 175.149, "note_off_time": 175.477}, {"pitch": 76, "velocity": 64, "note_on_time": 175.476, "note_off_time": 175.74}, {"pitch": 77, "velocity": 46, "note_on_time": 175.802, "note_off_time": 176.052}, {"pitch": 79, "velocity": 56, "note_on_time": 176.173, "note_off_time": 176.365}, {"pitch": 74, "velocity": 77, "note_on_time": 176.77, "note_off_time": 177.089}, {"pitch": 72, "velocity": 74, "note_on_time": 177.078, "note_off_time": 177.271}, {"pitch": 76, "velocity": 78, "note_on_time": 177.424, "note_off_time": 177.646}, {"pitch": 77, "velocity": 57, "note_on_time": 177.708, "note_off_time": 177.911}, {"pitch": 79, "velocity": 60, "note_on_time": 178.032, "note_off_time": 178.368}, {"pitch": 74, "velocity": 69, "note_on_time": 178.896, "note_off_time": 179.316}, {"pitch": 72, "velocity": 68, "note_on_time": 179.258, "note_off_time": 179.439}, {"pitch": 76, "velocity": 59, "note_on_time": 179.589, "note_off_time": 179.78}, {"pitch": 77, "velocity": 73, "note_on_time": 179.946, "note_off_time": 180.109}, {"pitch": 79, "velocity": 58, "note_on_time": 180.316, "note_off_time": 180.455}, {"pitch": 72, "velocity": 61, "note_on_time": 182.525, "note_off_time": 182.732}, {"pitch": 74, "velocity": 57, "note_on_time": 182.867, "note_off_time": 183.147}, {"pitch": 76, "velocity": 57, "note_on_time": 183.24, "note_off_time": 183.481}, {"pitch": 77, "velocity": 58, "note_on_time": 183.705, "note_off_time": 184.007}, {"pitch": 79, "velocity": 51, "note_on_time": 184.19, "note_off_time": 184.564}, {"pitch": 72, "velocity": 44, "note_on_time": 184.849, "note_off_time": 185.139}, {"pitch": 74, "velocity": 71, "note_on_time": 185.211, "note_off_time": 185.517}, {"pitch": 76, "velocity": 59, "note_on_time": 185.562, "note_off_time": 185.8}, {"pitch": 77, "velocity": 41, "note_on_time": 185.862, "note_off_time": 186.068}, {"pitch": 79, "velocity": 6, "note_on_time": 186.269, "note_off_time": 186.374}, {"pitch": 79, "velocity": 16, "note_on_time": 186.671, "note_off_time": 186.934}, {"pitch": 72, "velocity": 73, "note_on_time": 187.32, "note_off_time": 187.593}, {"pitch": 74, "velocity": 78, "note_on_time": 187.664, "note_off_time": 187.942}, {"pitch": 76, "velocity": 75, "note_on_time": 187.936, "note_off_time": 188.209}, {"pitch": 77, "velocity": 57, "note_on_time": 188.246, "note_off_time": 188.486}, {"pitch": 79, "velocity": 70, "note_on_time": 188.608, "note_off_time": 189.026}, {"pitch": 72, "velocity": 65, "note_on_time": 189.282, "note_off_time": 189.613}, {"pitch": 74, "velocity": 74, "note_on_time": 189.614, "note_off_time": 189.843}, {"pitch": 76, "velocity": 61, "note_on_time": 189.889, "note_off_time": 190.246}, {"pitch": 77, "velocity": 63, "note_on_time": 190.185, "note_off_time": 190.462}, {"pitch": 79, "velocity": 61, "note_on_time": 190.524, "note_off_time": 190.86}, {"pitch": 79, "velocity": 39, "note_on_time": 192.313, "note_off_time": 192.888}, {"pitch": 77, "velocity": 29, "note_on_time": 192.523, "note_off_time": 192.916}, {"pitch": 74, "velocity": 55, "note_on_time": 193.249, "note_off_time": 193.568}, {"pitch": 76, "velocity": 58, "note_on_time": 192.882, "note_off_time": 193.638}, {"pitch": 72, "velocity": 80, "note_on_time": 193.532, "note_off_time": 193.706}]</notes><guidance name="Guidance Mode">None</guidance><error name="Error value">99</error></trial><trial trial_no="3" timestamp="2024_03_04-14_11_34"><notes name="Played Notes">[{"pitch": 72, "velocity": 46, "note_on_time": 0.699, "note_off_time": 0.874}, {"pitch": 74, "velocity": 48, "note_on_time": 1.06, "note_off_time": 1.481}, {"pitch": 76, "velocity": 42, "note_on_time": 1.381, "note_off_time": 1.555}, {"pitch": 77, "velocity": 26, "note_on_time": 1.678, "note_off_time": 1.83}, {"pitch": 79, "velocity": 1, "note_on_time": 2.053, "note_off_time": 2.336}, {"pitch": 72, "velocity": 51, "note_on_time": 2.556, "note_off_time": 2.751}, {"pitch": 74, "velocity": 56, "note_on_time": 2.86, "note_off_time": 3.104}, {"pitch": 76, "velocity": 40, "note_on_time": 3.173, "note_off_time": 3.314}, {"pitch": 77, "velocity": 57, "note_on_time": 3.457, "note_off_time": 3.655}, {"pitch": 79, "velocity": 42, "note_on_time": 3.763, "note_off_time": 4.099}, {"pitch": 72, "velocity": 62, "note_on_time": 4.148, "note_off_time": 4.435}, {"pitch": 74, "velocity": 52, "note_on_time": 4.45, "note_off_time": 4.696}, {"pitch": 76, "velocity": 51, "note_on_time": 4.694, "note_off_time": 4.934}, {"pitch": 77, "velocity": 46, "note_on_time": 4.947, "note_off_time": 5.216}, {"pitch": 79, "velocity": 49, "note_on_time": 5.27, "note_off_time": 5.432}, {"pitch": 72, "velocity": 60, "note_on_time": 5.638, "note_off_time": 5.862}, {"pitch": 74, "velocity": 60, "note_on_time": 5.931, "note_off_time": 6.196}, {"pitch": 76, "velocity": 47, "note_on_time": 6.223, "note_off_time": 6.391}, {"pitch": 77, "velocity": 38, "note_on_time": 6.449, "note_off_time": 6.626}, {"pitch": 74, "velocity": 48, "note_on_time": 7.278, "note_off_time": 7.424}, {"pitch": 72, "velocity": 50, "note_on_time": 7.263, "note_off_time": 7.46}, {"pitch": 77, "velocity": 46, "note_on_time": 8.227, "note_off_time": 8.688}, {"pitch": 76, "velocity": 28, "note_on_time": 8.625, "note_off_time": 9.007}, {"pitch": 74, "velocity": 55, "note_on_time": 8.898, "note_off_time": 9.274}, {"pitch": 72, "velocity": 58, "note_on_time": 9.242, "note_off_time": 9.402}, {"pitch": 79, "velocity": 42, "note_on_time": 9.67, "note_off_time": 9.755}, {"pitch": 77, "velocity": 18, "note_on_time": 9.866, "note_off_time": 10.379}, {"pitch": 74, "velocity": 49, "note_on_time": 10.365, "note_off_time": 10.666}, {"pitch": 76, "velocity": 26, "note_on_time": 10.089, "note_off_time": 10.687}, {"pitch": 72, "velocity": 71, "note_on_time": 10.641, "note_off_time": 10.763}, {"pitch": 79, "velocity": 51, "note_on_time": 11.001, "note_off_time": 11.232}, {"pitch": 77, "velocity": 47, "note_on_time": 11.199, "note_off_time": 11.714}, {"pitch": 74, "velocity": 55, "note_on_time": 11.722, "note_off_time": 12.011}, {"pitch": 76, "velocity": 45, "note_on_time": 11.462, "note_off_time": 12.025}, {"pitch": 72, "velocity": 66, "note_on_time": 11.96, "note_off_time": 12.148}, {"pitch": 79, "velocity": 46, "note_on_time": 12.421, "note_off_time": 12.653}, {"pitch": 77, "velocity": 38, "note_on_time": 12.567, "note_off_time": 13.014}, {"pitch": 74, "velocity": 54, "note_on_time": 13.08, "note_off_time": 13.343}, {"pitch": 76, "velocity": 52, "note_on_time": 12.847, "note_off_time": 13.412}, {"pitch": 72, "velocity": 71, "note_on_time": 13.316, "note_off_time": 13.539}, {"pitch": 74, "velocity": 72, "note_on_time": 14.921, "note_off_time": 15.117}, {"pitch": 76, "velocity": 58, "note_on_time": 15.152, "note_off_time": 15.34}, {"pitch": 77, "velocity": 1, "note_on_time": 15.451, "note_off_time": 15.803}, {"pitch": 77, "velocity": 71, "note_on_time": 15.948, "note_off_time": 16.152}, {"pitch": 79, "velocity": 46, "note_on_time": 16.262, "note_off_time": 16.585}, {"pitch": 72, "velocity": 74, "note_on_time": 16.59, "note_off_time": 16.742}, {"pitch": 74, "velocity": 71, "note_on_time": 16.999, "note_off_time": 17.218}, {"pitch": 76, "velocity": 63, "note_on_time": 17.256, "note_off_time": 17.43}, {"pitch": 77, "velocity": 59, "note_on_time": 17.507, "note_off_time": 17.65}, {"pitch": 79, "velocity": 47, "note_on_time": 17.771, "note_off_time": 18.199}, {"pitch": 72, "velocity": 78, "note_on_time": 18.092, "note_off_time": 18.264}, {"pitch": 74, "velocity": 75, "note_on_time": 18.555, "note_off_time": 18.766}, {"pitch": 76, "velocity": 61, "note_on_time": 18.808, "note_off_time": 19.006}, {"pitch": 77, "velocity": 54, "note_on_time": 19.077, "note_off_time": 19.231}, {"pitch": 79, "velocity": 52, "note_on_time": 19.382, "note_off_time": 19.589}, {"pitch": 72, "velocity": 85, "note_on_time": 19.798, "note_off_time": 20.027}, {"pitch": 74, "velocity": 64, "note_on_time": 20.543, "note_off_time": 20.74}, {"pitch": 76, "velocity": 61, "note_on_time": 20.824, "note_off_time": 20.983}, {"pitch": 77, "velocity": 58, "note_on_time": 21.093, "note_off_time": 21.236}, {"pitch": 79, "velocity": 51, "note_on_time": 21.398, "note_off_time": 21.65}, {"pitch": 72, "velocity": 81, "note_on_time": 22.006, "note_off_time": 22.269}, {"pitch": 77, "velocity": 51, "note_on_time": 23.813, "note_off_time": 24.112}, {"pitch": 76, "velocity": 49, "note_on_time": 24.092, "note_off_time": 24.586}, {"pitch": 74, "velocity": 69, "note_on_time": 24.392, "note_off_time": 24.932}, {"pitch": 72, "velocity": 73, "note_on_time": 24.912, "note_off_time": 25.194}, {"pitch": 79, "velocity": 66, "note_on_time": 25.246, "note_off_time": 25.49}, {"pitch": 77, "velocity": 44, "note_on_time": 25.894, "note_off_time": 26.028}, {"pitch": 76, "velocity": 1, "note_on_time": 26.386, "note_off_time": 26.485}, {"pitch": 77, "velocity": 7, "note_on_time": 26.257, "note_off_time": 26.499}, {"pitch": 77, "velocity": 66, "note_on_time": 27.189, "note_off_time": 27.849}, {"pitch": 74, "velocity": 63, "note_on_time": 27.774, "note_off_time": 28.15}, {"pitch": 76, "velocity": 67, "note_on_time": 27.489, "note_off_time": 28.175}, {"pitch": 72, "velocity": 72, "note_on_time": 28.085, "note_off_time": 28.242}, {"pitch": 77, "velocity": 52, "note_on_time": 28.468, "note_off_time": 28.595}, {"pitch": 79, "velocity": 45, "note_on_time": 28.457, "note_off_time": 28.604}, {"pitch": 77, "velocity": 44, "note_on_time": 29.713, "note_off_time": 30.282}, {"pitch": 74, "velocity": 72, "note_on_time": 30.168, "note_off_time": 30.57}, {"pitch": 76, "velocity": 38, "note_on_time": 29.873, "note_off_time": 30.583}, {"pitch": 79, "velocity": 67, "note_on_time": 30.826, "note_off_time": 31.115}, {"pitch": 72, "velocity": 63, "note_on_time": 30.485, "note_off_time": 31.128}, {"pitch": 77, "velocity": 59, "note_on_time": 31.324, "note_off_time": 31.61}, {"pitch": 74, "velocity": 68, "note_on_time": 31.815, "note_off_time": 32.202}, {"pitch": 76, "velocity": 41, "note_on_time": 31.505, "note_off_time": 32.304}, {"pitch": 72, "velocity": 62, "note_on_time": 32.157, "note_off_time": 32.316}, {"pitch": 79, "velocity": 50, "note_on_time": 32.751, "note_off_time": 33.068}, {"pitch": 77, "velocity": 74, "note_on_time": 33.364, "note_off_time": 33.709}, {"pitch": 74, "velocity": 70, "note_on_time": 33.875, "note_off_time": 34.203}, {"pitch": 76, "velocity": 51, "note_on_time": 33.6, "note_off_time": 34.244}, {"pitch": 72, "velocity": 61, "note_on_time": 34.213, "note_off_time": 34.315}, {"pitch": 79, "velocity": 67, "note_on_time": 34.777, "note_off_time": 35.031}, {"pitch": 76, "velocity": 60, "note_on_time": 37.174, "note_off_time": 37.569}, {"pitch": 77, "velocity": 54, "note_on_time": 37.455, "note_off_time": 37.7}, {"pitch": 79, "velocity": 44, "note_on_time": 37.759, "note_off_time": 39.198}, {"pitch": 74, "velocity": 61, "note_on_time": 39.084, "note_off_time": 39.457}, {"pitch": 72, "velocity": 64, "note_on_time": 39.385, "note_off_time": 39.505}, {"pitch": 76, "velocity": 65, "note_on_time": 39.905, "note_off_time": 40.152}, {"pitch": 77, "velocity": 53, "note_on_time": 40.198, "note_off_time": 40.434}, {"pitch": 74, "velocity": 63, "note_on_time": 41.262, "note_off_time": 41.599}, {"pitch": 72, "velocity": 62, "note_on_time": 41.549, "note_off_time": 41.704}, {"pitch": 79, "velocity": 66, "note_on_time": 40.444, "note_off_time": 41.778}, {"pitch": 76, "velocity": 62, "note_on_time": 42.102, "note_off_time": 42.279}, {"pitch": 77, "velocity": 58, "note_on_time": 42.321, "note_off_time": 42.545}, {"pitch": 74, "velocity": 74, "note_on_time": 43.379, "note_off_time": 43.647}, {"pitch": 72, "velocity": 59, "note_on_time": 43.651, "note_off_time": 43.809}, {"pitch": 79, "velocity": 66, "note_on_time": 42.587, "note_off_time": 44.117}, {"pitch": 76, "velocity": 65, "note_on_time": 44.154, "note_off_time": 44.302}, {"pitch": 77, "velocity": 48, "note_on_time": 44.365, "note_off_time": 44.551}, {"pitch": 74, "velocity": 65, "note_on_time": 45.176, "note_off_time": 45.404}, {"pitch": 72, "velocity": 58, "note_on_time": 45.799, "note_off_time": 45.993}, {"pitch": 79, "velocity": 52, "note_on_time": 44.621, "note_off_time": 46.055}, {"pitch": 76, "velocity": 49, "note_on_time": 46.814, "note_off_time": 47.184}, {"pitch": 72, "velocity": 48, "note_on_time": 47.412, "note_off_time": 47.503}, {"pitch": 74, "velocity": 59, "note_on_time": 47.058, "note_off_time": 47.528}, {"pitch": 76, "velocity": 72, "note_on_time": 47.824, "note_off_time": 48.016}, {"pitch": 76, "velocity": 60, "note_on_time": 48.955, "note_off_time": 49.653}, {"pitch": 74, "velocity": 62, "note_on_time": 49.232, "note_off_time": 49.765}, {"pitch": 72, "velocity": 74, "note_on_time": 49.851, "note_off_time": 49.986}, {"pitch": 77, "velocity": 46, "note_on_time": 50.274, "note_off_time": 50.447}, {"pitch": 81, "velocity": 38, "note_on_time": 50.633, "note_off_time": 50.766}, {"pitch": 79, "velocity": 42, "note_on_time": 50.632, "note_off_time": 50.768}, {"pitch": 74, "velocity": 61, "note_on_time": 53.179, "note_off_time": 53.508}, {"pitch": 72, "velocity": 30, "note_on_time": 53.497, "note_off_time": 53.577}, {"pitch": 76, "velocity": 58, "note_on_time": 52.875, "note_off_time": 53.67}, {"pitch": 77, "velocity": 63, "note_on_time": 53.879, "note_off_time": 54.055}, {"pitch": 79, "velocity": 59, "note_on_time": 54.237, "note_off_time": 54.526}, {"pitch": 74, "velocity": 60, "note_on_time": 55.097, "note_off_time": 55.499}, {"pitch": 72, "velocity": 59, "note_on_time": 55.415, "note_off_time": 55.55}, {"pitch": 76, "velocity": 52, "note_on_time": 54.834, "note_off_time": 55.597}, {"pitch": 77, "velocity": 64, "note_on_time": 55.795, "note_off_time": 55.979}, {"pitch": 79, "velocity": 65, "note_on_time": 56.079, "note_off_time": 56.385}, {"pitch": 74, "velocity": 64, "note_on_time": 56.759, "note_off_time": 57.041}, {"pitch": 76, "velocity": 53, "note_on_time": 56.552, "note_off_time": 57.11}, {"pitch": 72, "velocity": 56, "note_on_time": 57.038, "note_off_time": 57.142}, {"pitch": 77, "velocity": 78, "note_on_time": 57.37, "note_off_time": 57.53}, {"pitch": 79, "velocity": 52, "note_on_time": 57.998, "note_off_time": 58.23}, {"pitch": 77, "velocity": 57, "note_on_time": 58.921, "note_off_time": 59.079}, {"pitch": 79, "velocity": 54, "note_on_time": 59.189, "note_off_time": 59.563}, {"pitch": 76, "velocity": 52, "note_on_time": 59.502, "note_off_time": 60.037}, {"pitch": 74, "velocity": 55, "note_on_time": 59.742, "note_off_time": 60.046}, {"pitch": 72, "velocity": 70, "note_on_time": 60.001, "note_off_time": 60.151}, {"pitch": 77, "velocity": 61, "note_on_time": 60.452, "note_off_time": 60.633}, {"pitch": 79, "velocity": 60, "note_on_time": 60.694, "note_off_time": 60.964}, {"pitch": 74, "velocity": 59, "note_on_time": 61.168, "note_off_time": 61.419}, {"pitch": 76, "velocity": 56, "note_on_time": 60.961, "note_off_time": 61.436}, {"pitch": 72, "velocity": 60, "note_on_time": 61.419, "note_off_time": 61.534}, {"pitch": 77, "velocity": 63, "note_on_time": 61.773, "note_off_time": 61.96}, {"pitch": 79, "velocity": 72, "note_on_time": 61.989, "note_off_time": 62.325}, {"pitch": 74, "velocity": 57, "note_on_time": 62.477, "note_off_time": 62.68}, {"pitch": 76, "velocity": 60, "note_on_time": 62.252, "note_off_time": 62.7}, {"pitch": 72, "velocity": 61, "note_on_time": 62.71, "note_off_time": 62.875}, {"pitch": 77, "velocity": 66, "note_on_time": 63.153, "note_off_time": 63.302}, {"pitch": 79, "velocity": 57, "note_on_time": 63.329, "note_off_time": 63.743}, {"pitch": 76, "velocity": 54, "note_on_time": 63.616, "note_off_time": 64.046}, {"pitch": 74, "velocity": 51, "note_on_time": 63.827, "note_off_time": 64.082}, {"pitch": 72, "velocity": 74, "note_on_time": 64.123, "note_off_time": 64.54}, {"pitch": 74, "velocity": 77, "note_on_time": 65.055, "note_off_time": 65.266}, {"pitch": 72, "velocity": 65, "note_on_time": 65.258, "note_off_time": 65.454}, {"pitch": 76, "velocity": 57, "note_on_time": 65.547, "note_off_time": 65.775}, {"pitch": 77, "velocity": 49, "note_on_time": 65.822, "note_off_time": 66.032}, {"pitch": 81, "velocity": 38, "note_on_time": 66.186, "note_off_time": 66.41}, {"pitch": 79, "velocity": 50, "note_on_time": 66.175, "note_off_time": 66.445}, {"pitch": 74, "velocity": 65, "note_on_time": 66.643, "note_off_time": 66.829}, {"pitch": 72, "velocity": 68, "note_on_time": 66.899, "note_off_time": 67.141}, {"pitch": 76, "velocity": 63, "note_on_time": 67.139, "note_off_time": 67.289}, {"pitch": 77, "velocity": 47, "note_on_time": 67.4, "note_off_time": 67.555}, {"pitch": 79, "velocity": 37, "note_on_time": 67.725, "note_off_time": 67.875}, {"pitch": 74, "velocity": 59, "note_on_time": 68.847, "note_off_time": 69.063}, {"pitch": 72, "velocity": 70, "note_on_time": 69.077, "note_off_time": 69.243}, {"pitch": 76, "velocity": 32, "note_on_time": 69.452, "note_off_time": 69.527}, {"pitch": 77, "velocity": 1, "note_on_time": 69.7, "note_off_time": 69.879}, {"pitch": 76, "velocity": 58, "note_on_time": 70.117, "note_off_time": 70.239}, {"pitch": 77, "velocity": 66, "note_on_time": 70.507, "note_off_time": 70.7}, {"pitch": 74, "velocity": 76, "note_on_time": 72.336, "note_off_time": 72.567}, {"pitch": 72, "velocity": 69, "note_on_time": 72.583, "note_off_time": 72.782}, {"pitch": 76, "velocity": 55, "note_on_time": 72.879, "note_off_time": 73.051}, {"pitch": 77, "velocity": 50, "note_on_time": 73.133, "note_off_time": 73.297}, {"pitch": 79, "velocity": 40, "note_on_time": 73.439, "note_off_time": 73.673}, {"pitch": 74, "velocity": 67, "note_on_time": 74.123, "note_off_time": 74.325}, {"pitch": 72, "velocity": 70, "note_on_time": 74.321, "note_off_time": 74.459}, {"pitch": 76, "velocity": 60, "note_on_time": 74.577, "note_off_time": 74.759}, {"pitch": 77, "velocity": 53, "note_on_time": 74.865, "note_off_time": 75.02}, {"pitch": 79, "velocity": 62, "note_on_time": 75.143, "note_off_time": 75.563}, {"pitch": 74, "velocity": 58, "note_on_time": 75.895, "note_off_time": 76.096}, {"pitch": 72, "velocity": 68, "note_on_time": 76.131, "note_off_time": 76.305}, {"pitch": 76, "velocity": 69, "note_on_time": 76.38, "note_off_time": 76.572}, {"pitch": 77, "velocity": 48, "note_on_time": 76.654, "note_off_time": 76.849}, {"pitch": 79, "velocity": 68, "note_on_time": 76.961, "note_off_time": 77.366}, {"pitch": 72, "velocity": 57, "note_on_time": 77.751, "note_off_time": 77.893}, {"pitch": 72, "velocity": 51, "note_on_time": 79.306, "note_off_time": 79.581}, {"pitch": 74, "velocity": 66, "note_on_time": 79.58, "note_off_time": 79.807}, {"pitch": 76, "velocity": 59, "note_on_time": 79.825, "note_off_time": 80.19}, {"pitch": 77, "velocity": 48, "note_on_time": 80.08, "note_off_time": 80.291}, {"pitch": 79, "velocity": 40, "note_on_time": 80.379, "note_off_time": 80.673}, {"pitch": 72, "velocity": 47, "note_on_time": 80.928, "note_off_time": 81.098}, {"pitch": 74, "velocity": 66, "note_on_time": 81.11, "note_off_time": 81.336}, {"pitch": 76, "velocity": 62, "note_on_time": 81.336, "note_off_time": 81.598}, {"pitch": 77, "velocity": 54, "note_on_time": 81.581, "note_off_time": 81.765}, {"pitch": 79, "velocity": 42, "note_on_time": 81.848, "note_off_time": 82.195}, {"pitch": 74, "velocity": 68, "note_on_time": 82.463, "note_off_time": 82.734}, {"pitch": 72, "velocity": 52, "note_on_time": 82.256, "note_off_time": 82.815}, {"pitch": 76, "velocity": 64, "note_on_time": 82.674, "note_off_time": 82.91}, {"pitch": 77, "velocity": 55, "note_on_time": 82.937, "note_off_time": 83.156}, {"pitch": 79, "velocity": 69, "note_on_time": 83.194, "note_off_time": 83.452}, {"pitch": 74, "velocity": 65, "note_on_time": 83.762, "note_off_time": 83.948}, {"pitch": 72, "velocity": 45, "note_on_time": 83.537, "note_off_time": 84.235}, {"pitch": 76, "velocity": 60, "note_on_time": 83.932, "note_off_time": 84.259}, {"pitch": 77, "velocity": 60, "note_on_time": 84.204, "note_off_time": 84.432}, {"pitch": 79, "velocity": 42, "note_on_time": 84.537, "note_off_time": 84.729}, {"pitch": 77, "velocity": 53, "note_on_time": 85.271, "note_off_time": 85.799}, {"pitch": 76, "velocity": 35, "note_on_time": 85.63, "note_off_time": 86.047}, {"pitch": 74, "velocity": 61, "note_on_time": 85.937, "note_off_time": 86.229}, {"pitch": 72, "velocity": 71, "note_on_time": 86.233, "note_off_time": 86.441}, {"pitch": 79, "velocity": 51, "note_on_time": 86.735, "note_off_time": 86.936}, {"pitch": 77, "velocity": 32, "note_on_time": 86.934, "note_off_time": 87.539}, {"pitch": 76, "velocity": 41, "note_on_time": 87.178, "note_off_time": 87.628}, {"pitch": 74, "velocity": 60, "note_on_time": 87.482, "note_off_time": 87.727}, {"pitch": 72, "velocity": 58, "note_on_time": 87.743, "note_off_time": 87.943}, {"pitch": 79, "velocity": 27, "note_on_time": 88.172, "note_off_time": 88.444}, {"pitch": 77, "velocity": 50, "note_on_time": 88.224, "note_off_time": 88.837}, {"pitch": 76, "velocity": 50, "note_on_time": 88.512, "note_off_time": 88.855}, {"pitch": 74, "velocity": 66, "note_on_time": 88.747, "note_off_time": 89.048}, {"pitch": 72, "velocity": 75, "note_on_time": 89.035, "note_off_time": 89.265}, {"pitch": 77, "velocity": 39, "note_on_time": 89.665, "note_off_time": 90.241}, {"pitch": 76, "velocity": 46, "note_on_time": 89.819, "note_off_time": 90.261}, {"pitch": 74, "velocity": 52, "note_on_time": 90.138, "note_off_time": 90.424}, {"pitch": 79, "velocity": 27, "note_on_time": 89.515, "note_off_time": 90.806}, {"pitch": 71, "velocity": 55, "note_on_time": 91.126, "note_off_time": 91.267}, {"pitch": 72, "velocity": 45, "note_on_time": 91.119, "note_off_time": 91.294}, {"pitch": 74, "velocity": 58, "note_on_time": 93.204, "note_off_time": 93.382}, {"pitch": 76, "velocity": 55, "note_on_time": 93.376, "note_off_time": 93.609}, {"pitch": 77, "velocity": 46, "note_on_time": 93.586, "note_off_time": 93.795}, {"pitch": 79, "velocity": 1, "note_on_time": 93.816, "note_off_time": 94.278}, {"pitch": 72, "velocity": 70, "note_on_time": 94.162, "note_off_time": 94.374}, {"pitch": 74, "velocity": 55, "note_on_time": 94.946, "note_off_time": 95.16}, {"pitch": 76, "velocity": 37, "note_on_time": 95.098, "note_off_time": 95.326}, {"pitch": 77, "velocity": 46, "note_on_time": 95.257, "note_off_time": 95.457}, {"pitch": 79, "velocity": 59, "note_on_time": 95.436, "note_off_time": 95.782}, {"pitch": 72, "velocity": 68, "note_on_time": 95.817, "note_off_time": 96.049}, {"pitch": 74, "velocity": 56, "note_on_time": 96.272, "note_off_time": 96.488}, {"pitch": 76, "velocity": 57, "note_on_time": 96.431, "note_off_time": 96.705}, {"pitch": 77, "velocity": 60, "note_on_time": 96.64, "note_off_time": 96.842}, {"pitch": 79, "velocity": 62, "note_on_time": 96.905, "note_off_time": 97.254}, {"pitch": 72, "velocity": 77, "note_on_time": 97.252, "note_off_time": 97.45}, {"pitch": 74, "velocity": 55, "note_on_time": 97.596, "note_off_time": 97.986}, {"pitch": 76, "velocity": 58, "note_on_time": 97.781, "note_off_time": 98.117}, {"pitch": 77, "velocity": 56, "note_on_time": 98.01, "note_off_time": 98.217}, {"pitch": 79, "velocity": 53, "note_on_time": 98.267, "note_off_time": 98.535}, {"pitch": 72, "velocity": 75, "note_on_time": 98.709, "note_off_time": 99.027}, {"pitch": 74, "velocity": 52, "note_on_time": 99.04, "note_off_time": 99.195}, {"pitch": 76, "velocity": 55, "note_on_time": 99.179, "note_off_time": 99.398}, {"pitch": 77, "velocity": 49, "note_on_time": 99.407, "note_off_time": 99.599}, {"pitch": 79, "velocity": 36, "note_on_time": 99.553, "note_off_time": 99.972}, {"pitch": 72, "velocity": 72, "note_on_time": 99.954, "note_off_time": 100.148}, {"pitch": 74, "velocity": 69, "note_on_time": 100.318, "note_off_time": 100.548}, {"pitch": 76, "velocity": 61, "note_on_time": 100.486, "note_off_time": 100.709}, {"pitch": 77, "velocity": 53, "note_on_time": 100.704, "note_off_time": 100.914}, {"pitch": 79, "velocity": 64, "note_on_time": 100.943, "note_off_time": 101.263}, {"pitch": 72, "velocity": 70, "note_on_time": 101.238, "note_off_time": 101.483}, {"pitch": 79, "velocity": 27, "note_on_time": 103.576, "note_off_time": 104.166}, {"pitch": 77, "velocity": 51, "note_on_time": 104.175, "note_off_time": 104.869}, {"pitch": 74, "velocity": 60, "note_on_time": 104.837, "note_off_time": 105.196}, {"pitch": 76, "velocity": 35, "note_on_time": 104.456, "note_off_time": 105.222}, {"pitch": 72, "velocity": 67, "note_on_time": 105.138, "note_off_time": 105.317}, {"pitch": 71, "velocity": 45, "note_on_time": 105.518, "note_off_time": 105.794}, {"pitch": 79, "velocity": 1, "note_on_time": 106.791, "note_off_time": 107.179}, {"pitch": 77, "velocity": 45, "note_on_time": 108.569, "note_off_time": 109.008}, {"pitch": 74, "velocity": 63, "note_on_time": 109.119, "note_off_time": 109.413}, {"pitch": 76, "velocity": 61, "note_on_time": 108.867, "note_off_time": 109.429}, {"pitch": 72, "velocity": 75, "note_on_time": 109.381, "note_off_time": 109.625}, {"pitch": 79, "velocity": 59, "note_on_time": 109.7, "note_off_time": 110.051}, {"pitch": 77, "velocity": 38, "note_on_time": 111.08, "note_off_time": 111.595}, {"pitch": 76, "velocity": 60, "note_on_time": 111.272, "note_off_time": 111.772}, {"pitch": 74, "velocity": 52, "note_on_time": 111.541, "note_off_time": 111.801}, {"pitch": 72, "velocity": 58, "note_on_time": 111.817, "note_off_time": 112.263}, {"pitch": 79, "velocity": 67, "note_on_time": 112.149, "note_off_time": 112.457}, {"pitch": 77, "velocity": 36, "note_on_time": 112.714, "note_off_time": 113.306}, {"pitch": 76, "velocity": 42, "note_on_time": 112.867, "note_off_time": 113.315}, {"pitch": 74, "velocity": 45, "note_on_time": 113.106, "note_off_time": 113.361}, {"pitch": 72, "velocity": 61, "note_on_time": 113.369, "note_off_time": 114.282}, {"pitch": 79, "velocity": 58, "note_on_time": 114.181, "note_off_time": 114.42}, {"pitch": 76, "velocity": 36, "note_on_time": 116.204, "note_off_time": 116.367}, {"pitch": 74, "velocity": 25, "note_on_time": 115.782, "note_off_time": 116.402}, {"pitch": 77, "velocity": 31, "note_on_time": 116.516, "note_off_time": 116.742}, {"pitch": 79, "velocity": 48, "note_on_time": 116.791, "note_off_time": 117.099}, {"pitch": 74, "velocity": 67, "note_on_time": 117.363, "note_off_time": 117.579}, {"pitch": 72, "velocity": 61, "note_on_time": 117.598, "note_off_time": 117.79}, {"pitch": 76, "velocity": 45, "note_on_time": 117.975, "note_off_time": 118.215}, {"pitch": 77, "velocity": 48, "note_on_time": 118.207, "note_off_time": 118.371}, {"pitch": 79, "velocity": 28, "note_on_time": 118.419, "note_off_time": 118.805}, {"pitch": 76, "velocity": 36, "note_on_time": 118.819, "note_off_time": 118.952}, {"pitch": 74, "velocity": 32, "note_on_time": 118.822, "note_off_time": 118.999}, {"pitch": 72, "velocity": 69, "note_on_time": 119.03, "note_off_time": 119.215}, {"pitch": 76, "velocity": 48, "note_on_time": 119.574, "note_off_time": 119.792}, {"pitch": 77, "velocity": 58, "note_on_time": 119.735, "note_off_time": 119.9}, {"pitch": 79, "velocity": 43, "note_on_time": 119.952, "note_off_time": 120.395}, {"pitch": 74, "velocity": 47, "note_on_time": 120.36, "note_off_time": 120.539}, {"pitch": 72, "velocity": 63, "note_on_time": 120.553, "note_off_time": 120.745}, {"pitch": 76, "velocity": 59, "note_on_time": 120.908, "note_off_time": 121.143}, {"pitch": 77, "velocity": 56, "note_on_time": 121.122, "note_off_time": 121.309}, {"pitch": 79, "velocity": 51, "note_on_time": 121.39, "note_off_time": 121.742}, {"pitch": 74, "velocity": 69, "note_on_time": 121.755, "note_off_time": 121.952}, {"pitch": 72, "velocity": 71, "note_on_time": 121.976, "note_off_time": 122.238}, {"pitch": 76, "velocity": 54, "note_on_time": 122.243, "note_off_time": 122.486}, {"pitch": 77, "velocity": 54, "note_on_time": 122.46, "note_off_time": 122.621}, {"pitch": 79, "velocity": 47, "note_on_time": 122.731, "note_off_time": 122.901}, {"pitch": 74, "velocity": 62, "note_on_time": 123.062, "note_off_time": 123.25}, {"pitch": 71, "velocity": 50, "note_on_time": 123.382, "note_off_time": 123.7}, {"pitch": 72, "velocity": 46, "note_on_time": 123.383, "note_off_time": 123.709}, {"pitch": 76, "velocity": 46, "note_on_time": 125.837, "note_off_time": 126.416}, {"pitch": 74, "velocity": 51, "note_on_time": 126.126, "note_off_time": 126.432}, {"pitch": 72, "velocity": 55, "note_on_time": 126.456, "note_off_time": 126.638}, {"pitch": 77, "velocity": 56, "note_on_time": 127.152, "note_off_time": 127.324}, {"pitch": 79, "velocity": 64, "note_on_time": 127.447, "note_off_time": 127.775}, {"pitch": 76, "velocity": 53, "note_on_time": 127.833, "note_off_time": 128.223}, {"pitch": 74, "velocity": 51, "note_on_time": 128.068, "note_off_time": 128.385}, {"pitch": 72, "velocity": 62, "note_on_time": 128.367, "note_off_time": 128.572}, {"pitch": 77, "velocity": 44, "note_on_time": 128.651, "note_off_time": 128.804}, {"pitch": 79, "velocity": 62, "note_on_time": 128.951, "note_off_time": 129.402}, {"pitch": 76, "velocity": 46, "note_on_time": 129.771, "note_off_time": 130.086}, {"pitch": 74, "velocity": 62, "note_on_time": 129.974, "note_off_time": 130.256}, {"pitch": 72, "velocity": 57, "note_on_time": 130.261, "note_off_time": 130.435}, {"pitch": 76, "velocity": 46, "note_on_time": 130.569, "note_off_time": 130.706}, {"pitch": 79, "velocity": 53, "note_on_time": 130.834, "note_off_time": 131.103}, {"pitch": 77, "velocity": 61, "note_on_time": 131.687, "note_off_time": 131.829}, {"pitch": 79, "velocity": 1, "note_on_time": 131.879, "note_off_time": 132.38}, {"pitch": 79, "velocity": 71, "note_on_time": 132.541, "note_off_time": 132.986}, {"pitch": 74, "velocity": 71, "note_on_time": 133.204, "note_off_time": 133.536}, {"pitch": 76, "velocity": 64, "note_on_time": 132.931, "note_off_time": 133.542}, {"pitch": 72, "velocity": 61, "note_on_time": 133.546, "note_off_time": 133.704}, {"pitch": 77, "velocity": 45, "note_on_time": 133.994, "note_off_time": 134.147}, {"pitch": 76, "velocity": 46, "note_on_time": 133.99, "note_off_time": 134.189}, {"pitch": 77, "velocity": 50, "note_on_time": 134.889, "note_off_time": 135.076}, {"pitch": 77, "velocity": 42, "note_on_time": 135.185, "note_off_time": 135.466}, {"pitch": 79, "velocity": 39, "note_on_time": 135.164, "note_off_time": 135.831}, {"pitch": 79, "velocity": 62, "note_on_time": 137.308, "note_off_time": 138.027}, {"pitch": 77, "velocity": 54, "note_on_time": 137.018, "note_off_time": 138.028}, {"pitch": 74, "velocity": 64, "note_on_time": 137.907, "note_off_time": 138.253}, {"pitch": 76, "velocity": 61, "note_on_time": 137.642, "note_off_time": 138.273}, {"pitch": 72, "velocity": 44, "note_on_time": 138.209, "note_off_time": 138.402}, {"pitch": 77, "velocity": 70, "note_on_time": 138.77, "note_off_time": 138.943}, {"pitch": 79, "velocity": 68, "note_on_time": 139.003, "note_off_time": 139.654}, {"pitch": 76, "velocity": 55, "note_on_time": 139.348, "note_off_time": 139.849}, {"pitch": 74, "velocity": 57, "note_on_time": 139.569, "note_off_time": 139.853}, {"pitch": 72, "velocity": 60, "note_on_time": 139.852, "note_off_time": 139.986}, {"pitch": 77, "velocity": 57, "note_on_time": 140.236, "note_off_time": 140.44}, {"pitch": 76, "velocity": 65, "note_on_time": 140.821, "note_off_time": 141.153}, {"pitch": 72, "velocity": 65, "note_on_time": 141.457, "note_off_time": 141.601}, {"pitch": 74, "velocity": 57, "note_on_time": 141.167, "note_off_time": 141.606}, {"pitch": 79, "velocity": 57, "note_on_time": 140.434, "note_off_time": 141.73}, {"pitch": 77, "velocity": 57, "note_on_time": 142.206, "note_off_time": 142.411}, {"pitch": 79, "velocity": 67, "note_on_time": 142.438, "note_off_time": 143.219}, {"pitch": 76, "velocity": 62, "note_on_time": 142.832, "note_off_time": 143.223}, {"pitch": 74, "velocity": 64, "note_on_time": 143.121, "note_off_time": 143.389}, {"pitch": 72, "velocity": 61, "note_on_time": 143.42, "note_off_time": 143.564}, {"pitch": 77, "velocity": 65, "note_on_time": 144.291, "note_off_time": 144.525}, {"pitch": 76, "velocity": 46, "note_on_time": 144.936, "note_off_time": 145.179}, {"pitch": 79, "velocity": 29, "note_on_time": 144.438, "note_off_time": 145.271}, {"pitch": 74, "velocity": 59, "note_on_time": 145.139, "note_off_time": 145.376}, {"pitch": 72, "velocity": 66, "note_on_time": 145.401, "note_off_time": 145.556}, {"pitch": 74, "velocity": 72, "note_on_time": 146.813, "note_off_time": 147.065}, {"pitch": 72, "velocity": 59, "note_on_time": 147.09, "note_off_time": 147.337}, {"pitch": 76, "velocity": 58, "note_on_time": 147.607, "note_off_time": 147.774}, {"pitch": 77, "velocity": 44, "note_on_time": 147.897, "note_off_time": 148.11}, {"pitch": 79, "velocity": 62, "note_on_time": 148.204, "note_off_time": 148.543}, {"pitch": 74, "velocity": 67, "note_on_time": 148.637, "note_off_time": 148.865}, {"pitch": 72, "velocity": 63, "note_on_time": 148.888, "note_off_time": 149.15}, {"pitch": 76, "velocity": 39, "note_on_time": 149.236, "note_off_time": 149.35}, {"pitch": 77, "velocity": 48, "note_on_time": 149.405, "note_off_time": 149.559}, {"pitch": 79, "velocity": 27, "note_on_time": 149.733, "note_off_time": 150.051}, {"pitch": 74, "velocity": 50, "note_on_time": 150.626, "note_off_time": 150.941}, {"pitch": 72, "velocity": 63, "note_on_time": 150.88, "note_off_time": 151.13}, {"pitch": 76, "velocity": 57, "note_on_time": 151.245, "note_off_time": 151.425}, {"pitch": 77, "velocity": 63, "note_on_time": 151.493, "note_off_time": 151.681}, {"pitch": 79, "velocity": 57, "note_on_time": 151.812, "note_off_time": 152.071}, {"pitch": 74, "velocity": 62, "note_on_time": 152.35, "note_off_time": 152.568}, {"pitch": 72, "velocity": 70, "note_on_time": 152.561, "note_off_time": 152.837}, {"pitch": 76, "velocity": 72, "note_on_time": 152.855, "note_off_time": 153.092}, {"pitch": 77, "velocity": 70, "note_on_time": 153.12, "note_off_time": 153.365}, {"pitch": 79, "velocity": 54, "note_on_time": 153.42, "note_off_time": 153.709}, {"pitch": 74, "velocity": 27, "note_on_time": 154.338, "note_off_time": 154.427}, {"pitch": 76, "velocity": 28, "note_on_time": 154.337, "note_off_time": 154.432}, {"pitch": 74, "velocity": 83, "note_on_time": 155.225, "note_off_time": 155.49}, {"pitch": 77, "velocity": 77, "note_on_time": 156.183, "note_off_time": 156.474}, {"pitch": 76, "velocity": 66, "note_on_time": 155.879, "note_off_time": 156.536}, {"pitch": 79, "velocity": 54, "note_on_time": 156.545, "note_off_time": 156.859}, {"pitch": 72, "velocity": 76, "note_on_time": 155.515, "note_off_time": 157.371}, {"pitch": 72, "velocity": 64, "note_on_time": 159.08, "note_off_time": 159.403}, {"pitch": 74, "velocity": 67, "note_on_time": 159.499, "note_off_time": 159.76}, {"pitch": 76, "velocity": 49, "note_on_time": 159.764, "note_off_time": 160.032}, {"pitch": 77, "velocity": 45, "note_on_time": 160.095, "note_off_time": 160.31}, {"pitch": 79, "velocity": 57, "note_on_time": 160.498, "note_off_time": 160.74}, {"pitch": 74, "velocity": 57, "note_on_time": 161.628, "note_off_time": 161.931}, {"pitch": 76, "velocity": 47, "note_on_time": 161.921, "note_off_time": 162.06}, {"pitch": 77, "velocity": 47, "note_on_time": 162.195, "note_off_time": 162.399}, {"pitch": 72, "velocity": 57, "note_on_time": 161.321, "note_off_time": 162.587}, {"pitch": 79, "velocity": 65, "note_on_time": 162.51, "note_off_time": 162.721}, {"pitch": 74, "velocity": 65, "note_on_time": 163.446, "note_off_time": 163.686}, {"pitch": 72, "velocity": 60, "note_on_time": 163.121, "note_off_time": 163.718}, {"pitch": 76, "velocity": 56, "note_on_time": 163.727, "note_off_time": 164.107}, {"pitch": 77, "velocity": 37, "note_on_time": 164.032, "note_off_time": 164.278}, {"pitch": 79, "velocity": 53, "note_on_time": 164.36, "note_off_time": 164.532}, {"pitch": 72, "velocity": 49, "note_on_time": 164.917, "note_off_time": 165.246}, {"pitch": 74, "velocity": 64, "note_on_time": 165.233, "note_off_time": 165.478}, {"pitch": 76, "velocity": 58, "note_on_time": 165.488, "note_off_time": 165.765}, {"pitch": 77, "velocity": 51, "note_on_time": 165.747, "note_off_time": 165.981}, {"pitch": 79, "velocity": 61, "note_on_time": 166.084, "note_off_time": 166.429}, {"pitch": 72, "velocity": 65, "note_on_time": 166.577, "note_off_time": 166.82}, {"pitch": 74, "velocity": 66, "note_on_time": 166.843, "note_off_time": 167.072}, {"pitch": 76, "velocity": 54, "note_on_time": 167.095, "note_off_time": 167.306}, {"pitch": 77, "velocity": 46, "note_on_time": 167.398, "note_off_time": 167.574}, {"pitch": 79, "velocity": 58, "note_on_time": 167.709, "note_off_time": 167.922}, {"pitch": 77, "velocity": 44, "note_on_time": 168.763, "note_off_time": 169.218}, {"pitch": 76, "velocity": 10, "note_on_time": 168.957, "note_off_time": 169.302}, {"pitch": 79, "velocity": 63, "note_on_time": 168.494, "note_off_time": 169.573}, {"pitch": 76, "velocity": 30, "note_on_time": 169.509, "note_off_time": 169.931}, {"pitch": 74, "velocity": 64, "note_on_time": 169.906, "note_off_time": 170.234}, {"pitch": 72, "velocity": 59, "note_on_time": 170.223, "note_off_time": 170.345}, {"pitch": 79, "velocity": 59, "note_on_time": 170.614, "note_off_time": 170.961}, {"pitch": 77, "velocity": 7, "note_on_time": 170.924, "note_off_time": 171.29}, {"pitch": 77, "velocity": 54, "note_on_time": 171.47, "note_off_time": 172.256}, {"pitch": 76, "velocity": 45, "note_on_time": 171.868, "note_off_time": 172.504}, {"pitch": 74, "velocity": 58, "note_on_time": 172.181, "note_off_time": 172.537}, {"pitch": 72, "velocity": 45, "note_on_time": 172.509, "note_off_time": 172.63}, {"pitch": 77, "velocity": 7, "note_on_time": 173.22, "note_off_time": 173.375}, {"pitch": 79, "velocity": 57, "note_on_time": 172.851, "note_off_time": 173.487}, {"pitch": 77, "velocity": 77, "note_on_time": 173.653, "note_off_time": 174.067}, {"pitch": 74, "velocity": 61, "note_on_time": 174.27, "note_off_time": 174.528}, {"pitch": 76, "velocity": 61, "note_on_time": 173.971, "note_off_time": 174.563}, {"pitch": 72, "velocity": 47, "note_on_time": 174.615, "note_off_time": 174.678}, {"pitch": 71, "velocity": 48, "note_on_time": 174.601, "note_off_time": 174.689}, {"pitch": 79, "velocity": 35, "note_on_time": 175.319, "note_off_time": 175.525}, {"pitch": 77, "velocity": 67, "note_on_time": 175.646, "note_off_time": 176.446}, {"pitch": 76, "velocity": 52, "note_on_time": 176.074, "note_off_time": 176.457}, {"pitch": 72, "velocity": 24, "note_on_time": 176.458, "note_off_time": 176.623}, {"pitch": 74, "velocity": 18, "note_on_time": 176.47, "note_off_time": 176.625}, {"pitch": 76, "velocity": 56, "note_on_time": 176.976, "note_off_time": 177.1}, {"pitch": 74, "velocity": 53, "note_on_time": 176.981, "note_off_time": 177.103}, {"pitch": 74, "velocity": 64, "note_on_time": 177.4, "note_off_time": 177.525}, {"pitch": 72, "velocity": 52, "note_on_time": 177.44, "note_off_time": 177.586}, {"pitch": 74, "velocity": 70, "note_on_time": 178.942, "note_off_time": 179.216}, {"pitch": 76, "velocity": 70, "note_on_time": 179.168, "note_off_time": 179.384}, {"pitch": 77, "velocity": 52, "note_on_time": 179.434, "note_off_time": 179.62}, {"pitch": 79, "velocity": 58, "note_on_time": 179.716, "note_off_time": 180.071}, {"pitch": 72, "velocity": 71, "note_on_time": 180.079, "note_off_time": 180.203}, {"pitch": 74, "velocity": 59, "note_on_time": 180.488, "note_off_time": 180.668}, {"pitch": 76, "velocity": 52, "note_on_time": 180.757, "note_off_time": 180.913}, {"pitch": 77, "velocity": 51, "note_on_time": 181.07, "note_off_time": 181.283}, {"pitch": 79, "velocity": 59, "note_on_time": 181.397, "note_off_time": 181.503}, {"pitch": 72, "velocity": 84, "note_on_time": 181.874, "note_off_time": 182.016}, {"pitch": 74, "velocity": 68, "note_on_time": 182.207, "note_off_time": 182.361}, {"pitch": 76, "velocity": 51, "note_on_time": 182.536, "note_off_time": 182.71}, {"pitch": 77, "velocity": 71, "note_on_time": 183.266, "note_off_time": 183.448}, {"pitch": 79, "velocity": 62, "note_on_time": 183.616, "note_off_time": 183.847}, {"pitch": 72, "velocity": 66, "note_on_time": 184.756, "note_off_time": 184.996}, {"pitch": 74, "velocity": 56, "note_on_time": 185.575, "note_off_time": 185.733}, {"pitch": 76, "velocity": 56, "note_on_time": 185.87, "note_off_time": 186.122}, {"pitch": 77, "velocity": 51, "note_on_time": 186.189, "note_off_time": 186.441}, {"pitch": 72, "velocity": 52, "note_on_time": 187.932, "note_off_time": 188.409}, {"pitch": 74, "velocity": 64, "note_on_time": 188.147, "note_off_time": 188.43}, {"pitch": 76, "velocity": 53, "note_on_time": 188.413, "note_off_time": 188.665}, {"pitch": 77, "velocity": 37, "note_on_time": 189.246, "note_off_time": 189.485}, {"pitch": 79, "velocity": 1, "note_on_time": 189.842, "note_off_time": 190.15}, {"pitch": 79, "velocity": 71, "note_on_time": 190.625, "note_off_time": 190.893}, {"pitch": 77, "velocity": 67, "note_on_time": 191.271, "note_off_time": 191.64}, {"pitch": 76, "velocity": 62, "note_on_time": 191.533, "note_off_time": 192.07}, {"pitch": 74, "velocity": 64, "note_on_time": 191.836, "note_off_time": 192.202}, {"pitch": 72, "velocity": 70, "note_on_time": 192.175, "note_off_time": 192.38}, {"pitch": 79, "velocity": 46, "note_on_time": 193.019, "note_off_time": 193.204}]</notes><guidance name="Guidance Mode">None</guidance><error name="Error value">99</error></trial></trials></MIDI>