<MIDI midiNo="2024_02_19-16_14_44"><target_notes><notes name="Note List">[{"pitch": 60, "velocity": 40, "note_on_time": 0.01, "note_off_time": 1.026}, {"pitch": 64, "velocity": 40, "note_on_time": 0.01, "note_off_time": 1.026}, {"pitch": 67, "velocity": 40, "note_on_time": 0.01, "note_off_time": 1.027}, {"pitch": 48, "velocity": 40, "note_on_time": 0.01, "note_off_time": 1.027}, {"pitch": 52, "velocity": 40, "note_on_time": 1.027, "note_off_time": 2.038}, {"pitch": 55, "velocity": 40, "note_on_time": 1.027, "note_off_time": 2.039}, {"pitch": 72, "velocity": 40, "note_on_time": 2.038, "note_off_time": 3.049}, {"pitch": 48, "velocity": 40, "note_on_time": 2.039, "note_off_time": 3.05}, {"pitch": 52, "velocity": 40, "note_on_time": 3.05, "note_off_time": 4.058}, {"pitch": 55, "velocity": 40, "note_on_time": 3.05, "note_off_time": 4.058}, {"pitch": 48, "velocity": 40, "note_on_time": 4.058, "note_off_time": 5.065}, {"pitch": 52, "velocity": 40, "note_on_time": 5.065, "note_off_time": 6.08}, {"pitch": 55, "velocity": 40, "note_on_time": 5.066, "note_off_time": 6.08}, {"pitch": 48, "velocity": 40, "note_on_time": 6.08, "note_off_time": 7.095}, {"pitch": 52, "velocity": 40, "note_on_time": 7.095, "note_off_time": 8.11}, {"pitch": 55, "velocity": 40, "note_on_time": 7.095, "note_off_time": 8.11}, {"pitch": 60, "velocity": 40, "note_on_time": 8.109, "note_off_time": 9.123}, {"pitch": 64, "velocity": 40, "note_on_time": 8.11, "note_off_time": 9.124}, {"pitch": 67, "velocity": 40, "note_on_time": 8.11, "note_off_time": 9.125}, {"pitch": 48, "velocity": 40, "note_on_time": 8.11, "note_off_time": 9.125}, {"pitch": 52, "velocity": 40, "note_on_time": 9.125, "note_off_time": 10.129}, {"pitch": 55, "velocity": 40, "note_on_time": 9.125, "note_off_time": 10.13}, {"pitch": 76, "velocity": 40, "note_on_time": 10.129, "note_off_time": 11.146}, {"pitch": 48, "velocity": 40, "note_on_time": 10.13, "note_off_time": 11.146}, {"pitch": 52, "velocity": 40, "note_on_time": 11.146, "note_off_time": 12.154}, {"pitch": 55, "velocity": 40, "note_on_time": 11.146, "note_off_time": 12.154}, {"pitch": 48, "velocity": 40, "note_on_time": 12.154, "note_off_time": 13.159}, {"pitch": 52, "velocity": 40, "note_on_time": 13.159, "note_off_time": 14.163}, {"pitch": 55, "velocity": 40, "note_on_time": 13.159, "note_off_time": 14.163}, {"pitch": 48, "velocity": 40, "note_on_time": 14.163, "note_off_time": 15.165}, {"pitch": 52, "velocity": 40, "note_on_time": 15.165, "note_off_time": 16.179}, {"pitch": 55, "velocity": 40, "note_on_time": 15.165, "note_off_time": 16.18}, {"pitch": 60, "velocity": 40, "note_on_time": 16.178, "note_off_time": 17.191}, {"pitch": 64, "velocity": 40, "note_on_time": 16.179, "note_off_time": 17.192}, {"pitch": 67, "velocity": 40, "note_on_time": 16.179, "note_off_time": 17.193}, {"pitch": 48, "velocity": 40, "note_on_time": 16.18, "note_off_time": 17.193}, {"pitch": 52, "velocity": 40, "note_on_time": 17.193, "note_off_time": 18.206}, {"pitch": 55, "velocity": 40, "note_on_time": 17.193, "note_off_time": 18.206}, {"pitch": 74, "velocity": 40, "note_on_time": 18.206, "note_off_time": 19.208}, {"pitch": 48, "velocity": 40, "note_on_time": 18.206, "note_off_time": 19.208}, {"pitch": 52, "velocity": 40, "note_on_time": 19.208, "note_off_time": 20.216}, {"pitch": 55, "velocity": 40, "note_on_time": 19.208, "note_off_time": 20.216}, {"pitch": 48, "velocity": 40, "note_on_time": 20.216, "note_off_time": 21.232}, {"pitch": 52, "velocity": 40, "note_on_time": 21.232, "note_off_time": 22.245}, {"pitch": 55, "velocity": 40, "note_on_time": 21.232, "note_off_time": 22.245}, {"pitch": 48, "velocity": 40, "note_on_time": 22.245, "note_off_time": 23.255}, {"pitch": 52, "velocity": 40, "note_on_time": 23.255, "note_off_time": 24.267}, {"pitch": 55, "velocity": 40, "note_on_time": 23.255, "note_off_time": 24.267}, {"pitch": 60, "velocity": 40, "note_on_time": 24.266, "note_off_time": 25.274}, {"pitch": 64, "velocity": 40, "note_on_time": 24.266, "note_off_time": 25.275}, {"pitch": 67, "velocity": 40, "note_on_time": 24.267, "note_off_time": 25.276}, {"pitch": 48, "velocity": 40, "note_on_time": 24.267, "note_off_time": 25.276}, {"pitch": 52, "velocity": 40, "note_on_time": 25.276, "note_off_time": 26.281}, {"pitch": 55, "velocity": 40, "note_on_time": 25.276, "note_off_time": 26.282}, {"pitch": 79, "velocity": 40, "note_on_time": 26.281, "note_off_time": 27.283}, {"pitch": 48, "velocity": 40, "note_on_time": 26.282, "note_off_time": 27.284}, {"pitch": 52, "velocity": 40, "note_on_time": 27.284, "note_off_time": 28.295}, {"pitch": 55, "velocity": 40, "note_on_time": 27.284, "note_off_time": 28.295}, {"pitch": 48, "velocity": 40, "note_on_time": 28.295, "note_off_time": 29.302}, {"pitch": 52, "velocity": 40, "note_on_time": 29.302, "note_off_time": 30.318}, {"pitch": 55, "velocity": 40, "note_on_time": 29.302, "note_off_time": 30.318}, {"pitch": 48, "velocity": 40, "note_on_time": 30.318, "note_off_time": 31.321}, {"pitch": 52, "velocity": 40, "note_on_time": 31.321, "note_off_time": 32.338}, {"pitch": 55, "velocity": 40, "note_on_time": 31.321, "note_off_time": 32.338}, {"pitch": 60, "velocity": 40, "note_on_time": 32.336, "note_off_time": 33.349}, {"pitch": 64, "velocity": 40, "note_on_time": 32.338, "note_off_time": 33.35}, {"pitch": 67, "velocity": 40, "note_on_time": 32.338, "note_off_time": 33.351}, {"pitch": 48, "velocity": 40, "note_on_time": 32.338, "note_off_time": 33.351}, {"pitch": 52, "velocity": 40, "note_on_time": 33.351, "note_off_time": 34.364}, {"pitch": 55, "velocity": 40, "note_on_time": 33.351, "note_off_time": 34.365}, {"pitch": 74, "velocity": 40, "note_on_time": 34.364, "note_off_time": 35.368}, {"pitch": 48, "velocity": 40, "note_on_time": 34.365, "note_off_time": 35.368}, {"pitch": 52, "velocity": 40, "note_on_time": 35.368, "note_off_time": 36.381}, {"pitch": 55, "velocity": 40, "note_on_time": 35.368, "note_off_time": 36.381}, {"pitch": 48, "velocity": 40, "note_on_time": 36.381, "note_off_time": 37.382}, {"pitch": 52, "velocity": 40, "note_on_time": 37.382, "note_off_time": 38.396}, {"pitch": 55, "velocity": 40, "note_on_time": 37.382, "note_off_time": 38.396}, {"pitch": 48, "velocity": 40, "note_on_time": 38.396, "note_off_time": 39.408}, {"pitch": 52, "velocity": 40, "note_on_time": 39.408, "note_off_time": 40.411}, {"pitch": 55, "velocity": 40, "note_on_time": 39.408, "note_off_time": 40.411}, {"pitch": 60, "velocity": 40, "note_on_time": 40.41, "note_off_time": 41.42}, {"pitch": 64, "velocity": 40, "note_on_time": 40.41, "note_off_time": 41.42}, {"pitch": 67, "velocity": 40, "note_on_time": 40.411, "note_off_time": 41.421}, {"pitch": 79, "velocity": 40, "note_on_time": 42.433, "note_off_time": 43.436}, {"pitch": 60, "velocity": 40, "note_on_time": 48.444, "note_off_time": 49.458}, {"pitch": 64, "velocity": 40, "note_on_time": 48.445, "note_off_time": 49.458}, {"pitch": 67, "velocity": 40, "note_on_time": 48.445, "note_off_time": 49.459}, {"pitch": 72, "velocity": 40, "note_on_time": 50.468, "note_off_time": 51.48}, {"pitch": 60, "velocity": 40, "note_on_time": 56.492, "note_off_time": 57.505}, {"pitch": 64, "velocity": 40, "note_on_time": 56.492, "note_off_time": 57.506}, {"pitch": 67, "velocity": 40, "note_on_time": 56.493, "note_off_time": 57.507}, {"pitch": 77, "velocity": 40, "note_on_time": 58.518, "note_off_time": 59.52}, {"pitch": 60, "velocity": 40, "note_on_time": 64.526, "note_off_time": 65.541}, {"pitch": 64, "velocity": 40, "note_on_time": 64.526, "note_off_time": 65.541}, {"pitch": 67, "velocity": 40, "note_on_time": 64.527, "note_off_time": 65.542}, {"pitch": 76, "velocity": 40, "note_on_time": 66.554, "note_off_time": 67.569}, {"pitch": 60, "velocity": 40, "note_on_time": 72.571, "note_off_time": 73.574}, {"pitch": 64, "velocity": 40, "note_on_time": 72.572, "note_off_time": 73.575}, {"pitch": 67, "velocity": 40, "note_on_time": 72.573, "note_off_time": 73.576}, {"pitch": 72, "velocity": 40, "note_on_time": 74.588, "note_off_time": 75.597}, {"pitch": 60, "velocity": 40, "note_on_time": 80.601, "note_off_time": 81.613}, {"pitch": 64, "velocity": 40, "note_on_time": 80.601, "note_off_time": 81.613}, {"pitch": 67, "velocity": 40, "note_on_time": 80.602, "note_off_time": 81.614}, {"pitch": 74, "velocity": 40, "note_on_time": 82.628, "note_off_time": 83.638}, {"pitch": 60, "velocity": 40, "note_on_time": 88.645, "note_off_time": 89.649}, {"pitch": 64, "velocity": 40, "note_on_time": 88.645, "note_off_time": 89.65}, {"pitch": 67, "velocity": 40, "note_on_time": 88.646, "note_off_time": 89.65}, {"pitch": 76, "velocity": 40, "note_on_time": 90.663, "note_off_time": 91.669}, {"pitch": 60, "velocity": 40, "note_on_time": 96.671, "note_off_time": 97.681}, {"pitch": 64, "velocity": 40, "note_on_time": 96.672, "note_off_time": 97.682}, {"pitch": 67, "velocity": 40, "note_on_time": 96.672, "note_off_time": 97.682}, {"pitch": 77, "velocity": 40, "note_on_time": 98.696, "note_off_time": 99.707}, {"pitch": 60, "velocity": 40, "note_on_time": 104.708, "note_off_time": 105.72}, {"pitch": 64, "velocity": 40, "note_on_time": 104.709, "note_off_time": 105.72}, {"pitch": 67, "velocity": 40, "note_on_time": 104.709, "note_off_time": 105.721}, {"pitch": 79, "velocity": 40, "note_on_time": 106.731, "note_off_time": 107.743}, {"pitch": 60, "velocity": 40, "note_on_time": 112.748, "note_off_time": 113.765}, {"pitch": 64, "velocity": 40, "note_on_time": 112.749, "note_off_time": 113.766}, {"pitch": 67, "velocity": 40, "note_on_time": 112.749, "note_off_time": 113.766}, {"pitch": 74, "velocity": 40, "note_on_time": 114.772, "note_off_time": 115.784}, {"pitch": 60, "velocity": 40, "note_on_time": 120.786, "note_off_time": 121.797}, {"pitch": 64, "velocity": 40, "note_on_time": 120.787, "note_off_time": 121.798}, {"pitch": 67, "velocity": 40, "note_on_time": 120.788, "note_off_time": 121.799}, {"pitch": 76, "velocity": 40, "note_on_time": 122.805, "note_off_time": 123.807}, {"pitch": 60, "velocity": 40, "note_on_time": 128.816, "note_off_time": 129.825}, {"pitch": 64, "velocity": 40, "note_on_time": 128.817, "note_off_time": 129.826}, {"pitch": 67, "velocity": 40, "note_on_time": 128.817, "note_off_time": 129.827}, {"pitch": 72, "velocity": 40, "note_on_time": 130.83, "note_off_time": 131.834}, {"pitch": 60, "velocity": 40, "note_on_time": 136.838, "note_off_time": 137.851}, {"pitch": 64, "velocity": 40, "note_on_time": 136.839, "note_off_time": 137.851}, {"pitch": 67, "velocity": 40, "note_on_time": 136.839, "note_off_time": 137.852}, {"pitch": 77, "velocity": 40, "note_on_time": 138.864, "note_off_time": 139.873}, {"pitch": 60, "velocity": 40, "note_on_time": 144.88, "note_off_time": 145.889}, {"pitch": 64, "velocity": 40, "note_on_time": 144.881, "note_off_time": 145.89}, {"pitch": 67, "velocity": 40, "note_on_time": 144.882, "note_off_time": 145.89}, {"pitch": 79, "velocity": 40, "note_on_time": 146.902, "note_off_time": 147.907}, {"pitch": 60, "velocity": 40, "note_on_time": 152.918, "note_off_time": 153.934}, {"pitch": 64, "velocity": 40, "note_on_time": 152.919, "note_off_time": 153.935}, {"pitch": 67, "velocity": 40, "note_on_time": 152.919, "note_off_time": 153.935}, {"pitch": 77, "velocity": 40, "note_on_time": 154.948, "note_off_time": 155.961}, {"pitch": 60, "velocity": 40, "note_on_time": 160.97, "note_off_time": 161.984}, {"pitch": 64, "velocity": 40, "note_on_time": 160.971, "note_off_time": 161.984}, {"pitch": 67, "velocity": 40, "note_on_time": 160.971, "note_off_time": 161.984}, {"pitch": 72, "velocity": 40, "note_on_time": 162.997, "note_off_time": 164.011}]</notes><options name="Option List">((4, 4), [0.5, 0.25], 3, 8, &lt;NoteRangePerHand.TWO_NOTES: 3&gt;, &lt;NoteRangePerHand.ONE_NOTE: 2&gt;, False, True, True, 100)</options></target_notes><trials><trial trial_no="1" timestamp="2024_02_19-16_12_00"><notes name="Played Notes">[{"pitch": 64, "velocity": 75, "note_on_time": 3.791, "note_off_time": 4.121}, {"pitch": 76, "velocity": 44, "note_on_time": 4.784, "note_off_time": 5.051}, {"pitch": 72, "velocity": 76, "note_on_time": 5.398, "note_off_time": 5.994}, {"pitch": 79, "velocity": 62, "note_on_time": 11.839, "note_off_time": 12.135}, {"pitch": 76, "velocity": 59, "note_on_time": 12.526, "note_off_time": 13.581}, {"pitch": 74, "velocity": 61, "note_on_time": 19.41, "note_off_time": 20.109}, {"pitch": 74, "velocity": 1, "note_on_time": 24.399, "note_off_time": 24.66}, {"pitch": 77, "velocity": 52, "note_on_time": 27.773, "note_off_time": 28.073}, {"pitch": 79, "velocity": 51, "note_on_time": 28.213, "note_off_time": 29.433}, {"pitch": 79, "velocity": 49, "note_on_time": 32.187, "note_off_time": 32.367}, {"pitch": 77, "velocity": 38, "note_on_time": 36.197, "note_off_time": 36.491}, {"pitch": 74, "velocity": 54, "note_on_time": 36.673, "note_off_time": 38.171}, {"pitch": 76, "velocity": 51, "note_on_time": 44.243, "note_off_time": 44.554}, {"pitch": 79, "velocity": 51, "note_on_time": 44.954, "note_off_time": 45.962}, {"pitch": 72, "velocity": 48, "note_on_time": 51.774, "note_off_time": 53.303}, {"pitch": 74, "velocity": 54, "note_on_time": 60.105, "note_off_time": 60.448}, {"pitch": 77, "velocity": 47, "note_on_time": 60.821, "note_off_time": 61.699}, {"pitch": 76, "velocity": 60, "note_on_time": 68.241, "note_off_time": 69.183}, {"pitch": 72, "velocity": 55, "note_on_time": 76.23, "note_off_time": 77.657}, {"pitch": 74, "velocity": 55, "note_on_time": 84.058, "note_off_time": 85.314}, {"pitch": 77, "velocity": 49, "note_on_time": 93.388, "note_off_time": 93.737}, {"pitch": 76, "velocity": 52, "note_on_time": 93.892, "note_off_time": 94.679}, {"pitch": 77, "velocity": 55, "note_on_time": 100.09, "note_off_time": 101.088}, {"pitch": 79, "velocity": 53, "note_on_time": 108.259, "note_off_time": 109.409}, {"pitch": 74, "velocity": 61, "note_on_time": 115.957, "note_off_time": 116.987}, {"pitch": 76, "velocity": 38, "note_on_time": 124.212, "note_off_time": 125.312}, {"pitch": 72, "velocity": 51, "note_on_time": 131.835, "note_off_time": 132.18}, {"pitch": 72, "velocity": 65, "note_on_time": 132.468, "note_off_time": 134.008}, {"pitch": 77, "velocity": 49, "note_on_time": 141.122, "note_off_time": 142.837}, {"pitch": 79, "velocity": 51, "note_on_time": 148.542, "note_off_time": 150.043}, {"pitch": 77, "velocity": 45, "note_on_time": 156.285, "note_off_time": 157.622}]</notes><guidance name="Guidance Mode">None</guidance><error name="Error value">99</error></trial><trial trial_no="2" timestamp="2024_02_19-16_19_18"><notes name="Played Notes">[{"pitch": 72, "velocity": 48, "note_on_time": 4.965, "note_off_time": 5.864}, {"pitch": 74, "velocity": 51, "note_on_time": 5.823, "note_off_time": 6.077}, {"pitch": 76, "velocity": 50, "note_on_time": 6.126, "note_off_time": 7.051}, {"pitch": 74, "velocity": 38, "note_on_time": 7.074, "note_off_time": 7.332}, {"pitch": 76, "velocity": 46, "note_on_time": 7.357, "note_off_time": 7.663}, {"pitch": 77, "velocity": 36, "note_on_time": 7.676, "note_off_time": 7.921}, {"pitch": 76, "velocity": 41, "note_on_time": 7.946, "note_off_time": 8.225}, {"pitch": 74, "velocity": 22, "note_on_time": 8.269, "note_off_time": 8.542}, {"pitch": 72, "velocity": 40, "note_on_time": 8.592, "note_off_time": 9.838}, {"pitch": 79, "velocity": 49, "note_on_time": 9.837, "note_off_time": 10.125}, {"pitch": 79, "velocity": 43, "note_on_time": 10.375, "note_off_time": 10.603}, {"pitch": 77, "velocity": 20, "note_on_time": 10.68, "note_off_time": 10.974}, {"pitch": 76, "velocity": 53, "note_on_time": 10.976, "note_off_time": 11.842}, {"pitch": 74, "velocity": 39, "note_on_time": 11.84, "note_off_time": 12.179}, {"pitch": 76, "velocity": 54, "note_on_time": 12.178, "note_off_time": 12.512}, {"pitch": 77, "velocity": 42, "note_on_time": 12.53, "note_off_time": 12.751}, {"pitch": 76, "velocity": 49, "note_on_time": 12.804, "note_off_time": 12.904}, {"pitch": 77, "velocity": 43, "note_on_time": 12.921, "note_off_time": 13.001}, {"pitch": 76, "velocity": 49, "note_on_time": 12.989, "note_off_time": 13.201}, {"pitch": 74, "velocity": 46, "note_on_time": 13.185, "note_off_time": 13.438}, {"pitch": 72, "velocity": 50, "note_on_time": 13.42, "note_off_time": 14.538}, {"pitch": 76, "velocity": 53, "note_on_time": 14.656, "note_off_time": 15.27}, {"pitch": 74, "velocity": 43, "note_on_time": 15.277, "note_off_time": 15.526}, {"pitch": 72, "velocity": 30, "note_on_time": 15.553, "note_off_time": 15.801}, {"pitch": 74, "velocity": 36, "note_on_time": 15.893, "note_off_time": 17.17}, {"pitch": 72, "velocity": 33, "note_on_time": 17.174, "note_off_time": 17.36}, {"pitch": 74, "velocity": 29, "note_on_time": 17.436, "note_off_time": 17.741}, {"pitch": 72, "velocity": 27, "note_on_time": 17.751, "note_off_time": 18.349}, {"pitch": 79, "velocity": 66, "note_on_time": 18.298, "note_off_time": 18.504}, {"pitch": 76, "velocity": 64, "note_on_time": 18.936, "note_off_time": 19.074}, {"pitch": 72, "velocity": 51, "note_on_time": 19.835, "note_off_time": 19.891}, {"pitch": 76, "velocity": 81, "note_on_time": 20.155, "note_off_time": 20.312}, {"pitch": 79, "velocity": 83, "note_on_time": 20.743, "note_off_time": 20.838}, {"pitch": 79, "velocity": 64, "note_on_time": 21.038, "note_off_time": 21.132}, {"pitch": 76, "velocity": 64, "note_on_time": 21.363, "note_off_time": 21.472}, {"pitch": 77, "velocity": 78, "note_on_time": 22.297, "note_off_time": 22.465}, {"pitch": 76, "velocity": 81, "note_on_time": 22.574, "note_off_time": 22.677}, {"pitch": 77, "velocity": 70, "note_on_time": 22.679, "note_off_time": 22.805}, {"pitch": 76, "velocity": 58, "note_on_time": 22.759, "note_off_time": 22.934}, {"pitch": 74, "velocity": 51, "note_on_time": 22.937, "note_off_time": 23.155}, {"pitch": 76, "velocity": 78, "note_on_time": 23.2, "note_off_time": 23.458}, {"pitch": 79, "velocity": 67, "note_on_time": 23.491, "note_off_time": 23.667}, {"pitch": 72, "velocity": 56, "note_on_time": 23.77, "note_off_time": 23.963}, {"pitch": 72, "velocity": 73, "note_on_time": 24.375, "note_off_time": 24.457}, {"pitch": 74, "velocity": 64, "note_on_time": 24.488, "note_off_time": 24.566}, {"pitch": 76, "velocity": 56, "note_on_time": 24.638, "note_off_time": 24.74}, {"pitch": 77, "velocity": 75, "note_on_time": 24.966, "note_off_time": 25.092}, {"pitch": 79, "velocity": 45, "note_on_time": 25.273, "note_off_time": 25.435}, {"pitch": 76, "velocity": 72, "note_on_time": 25.566, "note_off_time": 25.648}, {"pitch": 77, "velocity": 46, "note_on_time": 25.701, "note_off_time": 25.772}, {"pitch": 74, "velocity": 53, "note_on_time": 25.821, "note_off_time": 25.907}, {"pitch": 76, "velocity": 59, "note_on_time": 25.97, "note_off_time": 26.069}, {"pitch": 72, "velocity": 52, "note_on_time": 26.148, "note_off_time": 26.247}, {"pitch": 79, "velocity": 84, "note_on_time": 26.812, "note_off_time": 26.92}, {"pitch": 76, "velocity": 61, "note_on_time": 26.932, "note_off_time": 27.098}, {"pitch": 77, "velocity": 30, "note_on_time": 27.13, "note_off_time": 27.258}, {"pitch": 74, "velocity": 44, "note_on_time": 27.265, "note_off_time": 27.348}, {"pitch": 76, "velocity": 61, "note_on_time": 27.436, "note_off_time": 27.663}, {"pitch": 72, "velocity": 44, "note_on_time": 27.752, "note_off_time": 27.992}, {"pitch": 79, "velocity": 62, "note_on_time": 28.057, "note_off_time": 28.165}, {"pitch": 76, "velocity": 60, "note_on_time": 28.183, "note_off_time": 28.334}, {"pitch": 77, "velocity": 42, "note_on_time": 28.35, "note_off_time": 28.427}, {"pitch": 74, "velocity": 43, "note_on_time": 28.464, "note_off_time": 28.557}, {"pitch": 76, "velocity": 60, "note_on_time": 28.615, "note_off_time": 28.853}, {"pitch": 72, "velocity": 36, "note_on_time": 28.938, "note_off_time": 29.089}, {"pitch": 76, "velocity": 69, "note_on_time": 29.29, "note_off_time": 29.365}, {"pitch": 79, "velocity": 73, "note_on_time": 29.296, "note_off_time": 29.374}, {"pitch": 74, "velocity": 61, "note_on_time": 29.608, "note_off_time": 29.654}, {"pitch": 77, "velocity": 63, "note_on_time": 29.609, "note_off_time": 29.666}, {"pitch": 72, "velocity": 55, "note_on_time": 29.898, "note_off_time": 30.152}, {"pitch": 76, "velocity": 72, "note_on_time": 29.893, "note_off_time": 30.194}, {"pitch": 74, "velocity": 57, "note_on_time": 30.171, "note_off_time": 30.231}, {"pitch": 77, "velocity": 55, "note_on_time": 30.179, "note_off_time": 30.245}, {"pitch": 76, "velocity": 80, "note_on_time": 30.487, "note_off_time": 30.54}, {"pitch": 79, "velocity": 77, "note_on_time": 30.493, "note_off_time": 30.554}, {"pitch": 76, "velocity": 76, "note_on_time": 30.77, "note_off_time": 30.828}, {"pitch": 76, "velocity": 51, "note_on_time": 31.087, "note_off_time": 31.131}, {"pitch": 72, "velocity": 71, "note_on_time": 31.068, "note_off_time": 31.136}, {"pitch": 72, "velocity": 59, "note_on_time": 31.673, "note_off_time": 31.735}, {"pitch": 76, "velocity": 65, "note_on_time": 31.783, "note_off_time": 31.85}, {"pitch": 79, "velocity": 48, "note_on_time": 31.968, "note_off_time": 32.022}, {"pitch": 72, "velocity": 39, "note_on_time": 32.282, "note_off_time": 32.368}, {"pitch": 76, "velocity": 56, "note_on_time": 32.413, "note_off_time": 32.487}, {"pitch": 79, "velocity": 47, "note_on_time": 32.595, "note_off_time": 32.641}, {"pitch": 72, "velocity": 29, "note_on_time": 32.939, "note_off_time": 33.03}, {"pitch": 76, "velocity": 47, "note_on_time": 33.072, "note_off_time": 33.179}, {"pitch": 79, "velocity": 53, "note_on_time": 33.229, "note_off_time": 33.3}, {"pitch": 79, "velocity": 72, "note_on_time": 33.513, "note_off_time": 33.601}, {"pitch": 79, "velocity": 75, "note_on_time": 34.069, "note_off_time": 34.185}, {"pitch": 76, "velocity": 68, "note_on_time": 34.216, "note_off_time": 34.29}, {"pitch": 72, "velocity": 36, "note_on_time": 34.409, "note_off_time": 34.524}, {"pitch": 76, "velocity": 57, "note_on_time": 34.566, "note_off_time": 34.685}, {"pitch": 79, "velocity": 68, "note_on_time": 34.721, "note_off_time": 34.831}, {"pitch": 76, "velocity": 53, "note_on_time": 34.868, "note_off_time": 34.934}, {"pitch": 72, "velocity": 44, "note_on_time": 35.009, "note_off_time": 35.119}, {"pitch": 76, "velocity": 61, "note_on_time": 35.174, "note_off_time": 35.262}, {"pitch": 79, "velocity": 66, "note_on_time": 35.339, "note_off_time": 35.426}, {"pitch": 77, "velocity": 38, "note_on_time": 35.518, "note_off_time": 35.648}, {"pitch": 76, "velocity": 40, "note_on_time": 35.668, "note_off_time": 35.764}, {"pitch": 74, "velocity": 40, "note_on_time": 35.797, "note_off_time": 35.87}, {"pitch": 72, "velocity": 64, "note_on_time": 35.944, "note_off_time": 36.057}, {"pitch": 72, "velocity": 42, "note_on_time": 36.573, "note_off_time": 36.667}, {"pitch": 76, "velocity": 54, "note_on_time": 37.484, "note_off_time": 37.62}, {"pitch": 79, "velocity": 56, "note_on_time": 37.803, "note_off_time": 37.877}, {"pitch": 77, "velocity": 44, "note_on_time": 38.682, "note_off_time": 38.857}, {"pitch": 79, "velocity": 64, "note_on_time": 38.991, "note_off_time": 39.099}, {"pitch": 77, "velocity": 46, "note_on_time": 39.297, "note_off_time": 39.381}, {"pitch": 76, "velocity": 68, "note_on_time": 39.624, "note_off_time": 39.897}, {"pitch": 74, "velocity": 49, "note_on_time": 39.915, "note_off_time": 40.063}, {"pitch": 76, "velocity": 48, "note_on_time": 40.21, "note_off_time": 40.488}, {"pitch": 75, "velocity": 60, "note_on_time": 41.485, "note_off_time": 41.724}, {"pitch": 76, "velocity": 53, "note_on_time": 41.775, "note_off_time": 41.991}, {"pitch": 77, "velocity": 56, "note_on_time": 42.074, "note_off_time": 42.3}, {"pitch": 79, "velocity": 60, "note_on_time": 42.364, "note_off_time": 42.601}, {"pitch": 78, "velocity": 40, "note_on_time": 42.66, "note_off_time": 42.933}, {"pitch": 79, "velocity": 52, "note_on_time": 42.961, "note_off_time": 43.226}, {"pitch": 77, "velocity": 49, "note_on_time": 43.249, "note_off_time": 43.517}, {"pitch": 76, "velocity": 46, "note_on_time": 43.512, "note_off_time": 43.836}, {"pitch": 74, "velocity": 51, "note_on_time": 43.867, "note_off_time": 44.17}, {"pitch": 77, "velocity": 60, "note_on_time": 44.174, "note_off_time": 44.355}, {"pitch": 76, "velocity": 67, "note_on_time": 44.463, "note_off_time": 44.561}, {"pitch": 77, "velocity": 54, "note_on_time": 44.56, "note_off_time": 44.689}, {"pitch": 76, "velocity": 52, "note_on_time": 44.641, "note_off_time": 44.833}, {"pitch": 74, "velocity": 54, "note_on_time": 44.827, "note_off_time": 45.066}, {"pitch": 76, "velocity": 64, "note_on_time": 45.723, "note_off_time": 45.789}, {"pitch": 79, "velocity": 62, "note_on_time": 45.733, "note_off_time": 45.799}, {"pitch": 72, "velocity": 42, "note_on_time": 45.095, "note_off_time": 45.99}, {"pitch": 79, "velocity": 44, "note_on_time": 46.031, "note_off_time": 46.098}, {"pitch": 76, "velocity": 52, "note_on_time": 46.016, "note_off_time": 46.099}, {"pitch": 72, "velocity": 61, "note_on_time": 46.951, "note_off_time": 47.04}, {"pitch": 74, "velocity": 13, "note_on_time": 47.138, "note_off_time": 47.2}, {"pitch": 76, "velocity": 45, "note_on_time": 47.178, "note_off_time": 47.332}, {"pitch": 77, "velocity": 52, "note_on_time": 47.329, "note_off_time": 47.383}, {"pitch": 79, "velocity": 66, "note_on_time": 47.393, "note_off_time": 47.503}, {"pitch": 80, "velocity": 53, "note_on_time": 47.559, "note_off_time": 47.62}, {"pitch": 81, "velocity": 51, "note_on_time": 47.7, "note_off_time": 47.773}, {"pitch": 83, "velocity": 28, "note_on_time": 47.895, "note_off_time": 47.977}, {"pitch": 84, "velocity": 48, "note_on_time": 47.949, "note_off_time": 48.01}, {"pitch": 86, "velocity": 55, "note_on_time": 48.037, "note_off_time": 48.12}, {"pitch": 87, "velocity": 58, "note_on_time": 48.17, "note_off_time": 48.256}, {"pitch": 88, "velocity": 66, "note_on_time": 48.327, "note_off_time": 48.446}, {"pitch": 89, "velocity": 62, "note_on_time": 48.509, "note_off_time": 48.585}, {"pitch": 91, "velocity": 55, "note_on_time": 48.905, "note_off_time": 49.001}]</notes><guidance name="Guidance Mode">None</guidance><error name="Error value">99</error></trial></trials></MIDI>