<MIDI midiNo="2024_03_11-11_52_42"><target_notes><notes name="Note List">[{"pitch": 60, "velocity": 40, "note_on_time": 0.009, "note_off_time": 1.012}, {"pitch": 64, "velocity": 40, "note_on_time": 0.009, "note_off_time": 1.013}, {"pitch": 67, "velocity": 40, "note_on_time": 0.009, "note_off_time": 1.014}, {"pitch": 48, "velocity": 40, "note_on_time": 0.009, "note_off_time": 1.014}, {"pitch": 52, "velocity": 40, "note_on_time": 1.014, "note_off_time": 2.016}, {"pitch": 55, "velocity": 40, "note_on_time": 1.014, "note_off_time": 2.016}, {"pitch": 74, "velocity": 40, "note_on_time": 2.016, "note_off_time": 3.028}, {"pitch": 48, "velocity": 40, "note_on_time": 2.016, "note_off_time": 3.028}, {"pitch": 52, "velocity": 40, "note_on_time": 3.028, "note_off_time": 4.041}, {"pitch": 55, "velocity": 40, "note_on_time": 3.028, "note_off_time": 4.041}, {"pitch": 48, "velocity": 40, "note_on_time": 4.041, "note_off_time": 5.046}, {"pitch": 52, "velocity": 40, "note_on_time": 5.046, "note_off_time": 6.054}, {"pitch": 55, "velocity": 40, "note_on_time": 5.046, "note_off_time": 6.054}, {"pitch": 48, "velocity": 40, "note_on_time": 6.054, "note_off_time": 7.055}, {"pitch": 52, "velocity": 40, "note_on_time": 7.055, "note_off_time": 8.064}, {"pitch": 55, "velocity": 40, "note_on_time": 7.055, "note_off_time": 8.064}, {"pitch": 60, "velocity": 40, "note_on_time": 8.062, "note_off_time": 9.077}, {"pitch": 64, "velocity": 40, "note_on_time": 8.063, "note_off_time": 9.077}, {"pitch": 67, "velocity": 40, "note_on_time": 8.064, "note_off_time": 9.078}, {"pitch": 48, "velocity": 40, "note_on_time": 8.064, "note_off_time": 9.078}, {"pitch": 52, "velocity": 40, "note_on_time": 9.078, "note_off_time": 10.081}, {"pitch": 55, "velocity": 40, "note_on_time": 9.079, "note_off_time": 10.081}, {"pitch": 76, "velocity": 40, "note_on_time": 10.081, "note_off_time": 11.084}, {"pitch": 48, "velocity": 40, "note_on_time": 10.081, "note_off_time": 11.084}, {"pitch": 52, "velocity": 40, "note_on_time": 11.084, "note_off_time": 12.094}, {"pitch": 55, "velocity": 40, "note_on_time": 11.084, "note_off_time": 12.094}, {"pitch": 48, "velocity": 40, "note_on_time": 12.094, "note_off_time": 13.102}, {"pitch": 52, "velocity": 40, "note_on_time": 13.102, "note_off_time": 14.116}, {"pitch": 55, "velocity": 40, "note_on_time": 13.102, "note_off_time": 14.116}, {"pitch": 48, "velocity": 40, "note_on_time": 14.116, "note_off_time": 15.127}, {"pitch": 52, "velocity": 40, "note_on_time": 15.127, "note_off_time": 16.134}, {"pitch": 55, "velocity": 40, "note_on_time": 15.127, "note_off_time": 16.134}, {"pitch": 60, "velocity": 40, "note_on_time": 16.133, "note_off_time": 17.14}, {"pitch": 64, "velocity": 40, "note_on_time": 16.133, "note_off_time": 17.141}, {"pitch": 67, "velocity": 40, "note_on_time": 16.134, "note_off_time": 17.142}, {"pitch": 48, "velocity": 40, "note_on_time": 16.134, "note_off_time": 17.142}, {"pitch": 52, "velocity": 40, "note_on_time": 17.142, "note_off_time": 18.151}, {"pitch": 55, "velocity": 40, "note_on_time": 17.142, "note_off_time": 18.152}, {"pitch": 72, "velocity": 40, "note_on_time": 18.151, "note_off_time": 19.154}, {"pitch": 48, "velocity": 40, "note_on_time": 18.152, "note_off_time": 19.154}, {"pitch": 52, "velocity": 40, "note_on_time": 19.155, "note_off_time": 20.17}, {"pitch": 55, "velocity": 40, "note_on_time": 19.155, "note_off_time": 20.17}, {"pitch": 48, "velocity": 40, "note_on_time": 20.17, "note_off_time": 21.173}, {"pitch": 52, "velocity": 40, "note_on_time": 21.173, "note_off_time": 22.177}, {"pitch": 55, "velocity": 40, "note_on_time": 21.173, "note_off_time": 22.177}, {"pitch": 48, "velocity": 40, "note_on_time": 22.177, "note_off_time": 23.181}, {"pitch": 52, "velocity": 40, "note_on_time": 23.181, "note_off_time": 24.183}, {"pitch": 55, "velocity": 40, "note_on_time": 23.181, "note_off_time": 24.183}, {"pitch": 60, "velocity": 40, "note_on_time": 24.182, "note_off_time": 25.194}, {"pitch": 64, "velocity": 40, "note_on_time": 24.182, "note_off_time": 25.195}, {"pitch": 67, "velocity": 40, "note_on_time": 24.183, "note_off_time": 25.195}, {"pitch": 48, "velocity": 40, "note_on_time": 24.183, "note_off_time": 25.196}, {"pitch": 52, "velocity": 40, "note_on_time": 25.196, "note_off_time": 26.2}, {"pitch": 55, "velocity": 40, "note_on_time": 25.196, "note_off_time": 26.2}, {"pitch": 76, "velocity": 40, "note_on_time": 26.2, "note_off_time": 27.205}, {"pitch": 48, "velocity": 40, "note_on_time": 26.2, "note_off_time": 27.205}, {"pitch": 52, "velocity": 40, "note_on_time": 27.206, "note_off_time": 28.221}, {"pitch": 55, "velocity": 40, "note_on_time": 27.206, "note_off_time": 28.221}, {"pitch": 48, "velocity": 40, "note_on_time": 28.221, "note_off_time": 29.222}, {"pitch": 52, "velocity": 40, "note_on_time": 29.222, "note_off_time": 30.226}, {"pitch": 55, "velocity": 40, "note_on_time": 29.222, "note_off_time": 30.226}, {"pitch": 48, "velocity": 40, "note_on_time": 30.226, "note_off_time": 31.238}, {"pitch": 52, "velocity": 40, "note_on_time": 31.238, "note_off_time": 32.255}, {"pitch": 55, "velocity": 40, "note_on_time": 31.238, "note_off_time": 32.255}, {"pitch": 60, "velocity": 40, "note_on_time": 32.254, "note_off_time": 33.258}, {"pitch": 64, "velocity": 40, "note_on_time": 32.255, "note_off_time": 33.259}, {"pitch": 67, "velocity": 40, "note_on_time": 32.255, "note_off_time": 33.26}, {"pitch": 48, "velocity": 40, "note_on_time": 32.255, "note_off_time": 33.26}, {"pitch": 52, "velocity": 40, "note_on_time": 33.26, "note_off_time": 34.274}, {"pitch": 55, "velocity": 40, "note_on_time": 33.26, "note_off_time": 34.275}, {"pitch": 77, "velocity": 40, "note_on_time": 34.274, "note_off_time": 35.276}, {"pitch": 48, "velocity": 40, "note_on_time": 34.275, "note_off_time": 35.276}, {"pitch": 52, "velocity": 40, "note_on_time": 35.277, "note_off_time": 36.291}, {"pitch": 55, "velocity": 40, "note_on_time": 35.277, "note_off_time": 36.291}, {"pitch": 48, "velocity": 40, "note_on_time": 36.291, "note_off_time": 37.305}, {"pitch": 52, "velocity": 40, "note_on_time": 37.305, "note_off_time": 38.316}, {"pitch": 55, "velocity": 40, "note_on_time": 37.305, "note_off_time": 38.316}, {"pitch": 48, "velocity": 40, "note_on_time": 38.316, "note_off_time": 39.319}, {"pitch": 52, "velocity": 40, "note_on_time": 39.319, "note_off_time": 40.337}, {"pitch": 55, "velocity": 40, "note_on_time": 39.319, "note_off_time": 40.337}, {"pitch": 60, "velocity": 40, "note_on_time": 40.335, "note_off_time": 41.338}, {"pitch": 64, "velocity": 40, "note_on_time": 40.336, "note_off_time": 41.339}, {"pitch": 67, "velocity": 40, "note_on_time": 40.336, "note_off_time": 41.339}, {"pitch": 72, "velocity": 40, "note_on_time": 42.348, "note_off_time": 43.359}, {"pitch": 60, "velocity": 40, "note_on_time": 48.371, "note_off_time": 49.386}, {"pitch": 64, "velocity": 40, "note_on_time": 48.372, "note_off_time": 49.387}, {"pitch": 67, "velocity": 40, "note_on_time": 48.372, "note_off_time": 49.387}, {"pitch": 77, "velocity": 40, "note_on_time": 50.391, "note_off_time": 51.393}, {"pitch": 60, "velocity": 40, "note_on_time": 56.408, "note_off_time": 57.425}, {"pitch": 64, "velocity": 40, "note_on_time": 56.409, "note_off_time": 57.426}, {"pitch": 67, "velocity": 40, "note_on_time": 56.409, "note_off_time": 57.426}, {"pitch": 76, "velocity": 40, "note_on_time": 58.428, "note_off_time": 59.433}, {"pitch": 60, "velocity": 40, "note_on_time": 64.439, "note_off_time": 65.45}, {"pitch": 64, "velocity": 40, "note_on_time": 64.44, "note_off_time": 65.451}, {"pitch": 67, "velocity": 40, "note_on_time": 64.44, "note_off_time": 65.452}, {"pitch": 74, "velocity": 40, "note_on_time": 66.454, "note_off_time": 67.462}, {"pitch": 60, "velocity": 40, "note_on_time": 72.464, "note_off_time": 73.468}, {"pitch": 64, "velocity": 40, "note_on_time": 72.465, "note_off_time": 73.468}, {"pitch": 67, "velocity": 40, "note_on_time": 72.465, "note_off_time": 73.469}, {"pitch": 76, "velocity": 40, "note_on_time": 74.477, "note_off_time": 75.488}, {"pitch": 60, "velocity": 40, "note_on_time": 80.494, "note_off_time": 81.508}, {"pitch": 64, "velocity": 40, "note_on_time": 80.495, "note_off_time": 81.509}, {"pitch": 67, "velocity": 40, "note_on_time": 80.495, "note_off_time": 81.509}, {"pitch": 74, "velocity": 40, "note_on_time": 82.512, "note_off_time": 83.527}, {"pitch": 60, "velocity": 40, "note_on_time": 88.529, "note_off_time": 89.546}, {"pitch": 64, "velocity": 40, "note_on_time": 88.53, "note_off_time": 89.547}, {"pitch": 67, "velocity": 40, "note_on_time": 88.531, "note_off_time": 89.548}, {"pitch": 79, "velocity": 40, "note_on_time": 90.563, "note_off_time": 91.579}, {"pitch": 60, "velocity": 40, "note_on_time": 96.589, "note_off_time": 97.591}, {"pitch": 64, "velocity": 40, "note_on_time": 96.59, "note_off_time": 97.592}, {"pitch": 67, "velocity": 40, "note_on_time": 96.59, "note_off_time": 97.593}, {"pitch": 72, "velocity": 40, "note_on_time": 98.595, "note_off_time": 99.609}, {"pitch": 60, "velocity": 40, "note_on_time": 104.616, "note_off_time": 105.625}, {"pitch": 64, "velocity": 40, "note_on_time": 104.617, "note_off_time": 105.626}, {"pitch": 67, "velocity": 40, "note_on_time": 104.617, "note_off_time": 105.627}, {"pitch": 79, "velocity": 40, "note_on_time": 106.639, "note_off_time": 107.654}, {"pitch": 60, "velocity": 40, "note_on_time": 112.665, "note_off_time": 113.679}, {"pitch": 64, "velocity": 40, "note_on_time": 112.666, "note_off_time": 113.68}, {"pitch": 67, "velocity": 40, "note_on_time": 112.666, "note_off_time": 113.681}, {"pitch": 74, "velocity": 40, "note_on_time": 114.695, "note_off_time": 115.708}, {"pitch": 60, "velocity": 40, "note_on_time": 120.712, "note_off_time": 121.715}, {"pitch": 64, "velocity": 40, "note_on_time": 120.713, "note_off_time": 121.715}, {"pitch": 67, "velocity": 40, "note_on_time": 120.714, "note_off_time": 121.716}, {"pitch": 72, "velocity": 40, "note_on_time": 122.732, "note_off_time": 123.746}, {"pitch": 60, "velocity": 40, "note_on_time": 128.753, "note_off_time": 129.766}, {"pitch": 64, "velocity": 40, "note_on_time": 128.753, "note_off_time": 129.766}, {"pitch": 67, "velocity": 40, "note_on_time": 128.754, "note_off_time": 129.766}, {"pitch": 79, "velocity": 40, "note_on_time": 130.768, "note_off_time": 131.778}, {"pitch": 60, "velocity": 40, "note_on_time": 136.791, "note_off_time": 137.798}, {"pitch": 64, "velocity": 40, "note_on_time": 136.791, "note_off_time": 137.8}, {"pitch": 67, "velocity": 40, "note_on_time": 136.792, "note_off_time": 137.8}, {"pitch": 77, "velocity": 40, "note_on_time": 138.803, "note_off_time": 139.811}, {"pitch": 60, "velocity": 40, "note_on_time": 144.824, "note_off_time": 145.839}, {"pitch": 64, "velocity": 40, "note_on_time": 144.824, "note_off_time": 145.84}, {"pitch": 67, "velocity": 40, "note_on_time": 144.825, "note_off_time": 145.84}, {"pitch": 79, "velocity": 40, "note_on_time": 146.856, "note_off_time": 147.867}, {"pitch": 60, "velocity": 40, "note_on_time": 152.877, "note_off_time": 153.892}, {"pitch": 64, "velocity": 40, "note_on_time": 152.878, "note_off_time": 153.893}, {"pitch": 67, "velocity": 40, "note_on_time": 152.878, "note_off_time": 153.894}, {"pitch": 77, "velocity": 40, "note_on_time": 154.898, "note_off_time": 155.909}, {"pitch": 60, "velocity": 40, "note_on_time": 160.918, "note_off_time": 161.921}, {"pitch": 64, "velocity": 40, "note_on_time": 160.919, "note_off_time": 161.922}, {"pitch": 67, "velocity": 40, "note_on_time": 160.919, "note_off_time": 161.923}, {"pitch": 74, "velocity": 40, "note_on_time": 162.939, "note_off_time": 163.941}]</notes><options name="Option List">((4, 4), [0.5, 0.25], 3, 8, &lt;NoteRangePerHand.TWO_NOTES: 3&gt;, &lt;NoteRangePerHand.ONE_NOTE: 2&gt;, False, True, True, 100)</options></target_notes><trials><trial trial_no="1" timestamp="2024_03_11-11_49_58"><notes name="Played Notes">[{"pitch": 76, "velocity": 54, "note_on_time": 3.188, "note_off_time": 4.169}, {"pitch": 77, "velocity": 36, "note_on_time": 11.293, "note_off_time": 12.625}, {"pitch": 74, "velocity": 40, "note_on_time": 19.578, "note_off_time": 20.164}, {"pitch": 72, "velocity": 45, "note_on_time": 20.518, "note_off_time": 21.893}, {"pitch": 74, "velocity": 55, "note_on_time": 28.175, "note_off_time": 28.721}, {"pitch": 72, "velocity": 35, "note_on_time": 29.208, "note_off_time": 29.598}, {"pitch": 76, "velocity": 37, "note_on_time": 29.863, "note_off_time": 30.197}, {"pitch": 77, "velocity": 45, "note_on_time": 30.339, "note_off_time": 30.907}, {"pitch": 76, "velocity": 64, "note_on_time": 31.381, "note_off_time": 31.799}, {"pitch": 79, "velocity": 56, "note_on_time": 32.159, "note_off_time": 32.588}, {"pitch": 77, "velocity": 54, "note_on_time": 35.346, "note_off_time": 36.348}, {"pitch": 74, "velocity": 44, "note_on_time": 43.869, "note_off_time": 44.322}, {"pitch": 72, "velocity": 52, "note_on_time": 44.714, "note_off_time": 45.842}, {"pitch": 79, "velocity": 17, "note_on_time": 51.67, "note_off_time": 53.186}, {"pitch": 79, "velocity": 41, "note_on_time": 59.78, "note_off_time": 60.414}, {"pitch": 77, "velocity": 48, "note_on_time": 60.644, "note_off_time": 61.84}, {"pitch": 76, "velocity": 38, "note_on_time": 61.951, "note_off_time": 63.363}, {"pitch": 76, "velocity": 37, "note_on_time": 67.134, "note_off_time": 68.038}, {"pitch": 77, "velocity": 61, "note_on_time": 68.522, "note_off_time": 69.015}, {"pitch": 74, "velocity": 48, "note_on_time": 69.363, "note_off_time": 72.469}, {"pitch": 77, "velocity": 45, "note_on_time": 76.615, "note_off_time": 77.911}, {"pitch": 74, "velocity": 46, "note_on_time": 84.919, "note_off_time": 85.972}, {"pitch": 79, "velocity": 49, "note_on_time": 92.113, "note_off_time": 93.135}, {"pitch": 72, "velocity": 36, "note_on_time": 99.857, "note_off_time": 100.855}, {"pitch": 77, "velocity": 58, "note_on_time": 108.295, "note_off_time": 108.769}, {"pitch": 79, "velocity": 65, "note_on_time": 109.176, "note_off_time": 110.566}, {"pitch": 76, "velocity": 51, "note_on_time": 116.109, "note_off_time": 117.721}, {"pitch": 72, "velocity": 35, "note_on_time": 124.067, "note_off_time": 125.099}, {"pitch": 79, "velocity": 44, "note_on_time": 132.107, "note_off_time": 132.998}, {"pitch": 77, "velocity": 24, "note_on_time": 140.085, "note_off_time": 141.594}, {"pitch": 79, "velocity": 46, "note_on_time": 148.202, "note_off_time": 149.111}, {"pitch": 77, "velocity": 36, "note_on_time": 156.275, "note_off_time": 157.636}]</notes><guidance name="Guidance Mode">None</guidance><error name="Error value">99</error></trial></trials></MIDI>