<MIDI midiNo="2024_02_26-14_39_06"><target_notes><notes name="Note List">[{"pitch": 60, "velocity": 40, "note_on_time": 0.01, "note_off_time": 1.017}, {"pitch": 64, "velocity": 40, "note_on_time": 0.01, "note_off_time": 1.018}, {"pitch": 67, "velocity": 40, "note_on_time": 0.01, "note_off_time": 1.018}, {"pitch": 48, "velocity": 40, "note_on_time": 0.01, "note_off_time": 1.018}, {"pitch": 52, "velocity": 40, "note_on_time": 1.018, "note_off_time": 2.021}, {"pitch": 55, "velocity": 40, "note_on_time": 1.018, "note_off_time": 2.021}, {"pitch": 74, "velocity": 40, "note_on_time": 2.02, "note_off_time": 3.027}, {"pitch": 48, "velocity": 40, "note_on_time": 2.021, "note_off_time": 3.028}, {"pitch": 52, "velocity": 40, "note_on_time": 3.028, "note_off_time": 4.039}, {"pitch": 55, "velocity": 40, "note_on_time": 3.028, "note_off_time": 4.039}, {"pitch": 48, "velocity": 40, "note_on_time": 4.039, "note_off_time": 5.045}, {"pitch": 52, "velocity": 40, "note_on_time": 5.045, "note_off_time": 6.049}, {"pitch": 55, "velocity": 40, "note_on_time": 5.045, "note_off_time": 6.049}, {"pitch": 48, "velocity": 40, "note_on_time": 6.049, "note_off_time": 7.052}, {"pitch": 52, "velocity": 40, "note_on_time": 7.052, "note_off_time": 8.065}, {"pitch": 55, "velocity": 40, "note_on_time": 7.052, "note_off_time": 8.066}, {"pitch": 60, "velocity": 40, "note_on_time": 8.064, "note_off_time": 9.07}, {"pitch": 64, "velocity": 40, "note_on_time": 8.065, "note_off_time": 9.07}, {"pitch": 67, "velocity": 40, "note_on_time": 8.065, "note_off_time": 9.071}, {"pitch": 48, "velocity": 40, "note_on_time": 8.066, "note_off_time": 9.071}, {"pitch": 52, "velocity": 40, "note_on_time": 9.071, "note_off_time": 10.075}, {"pitch": 55, "velocity": 40, "note_on_time": 9.071, "note_off_time": 10.076}, {"pitch": 77, "velocity": 40, "note_on_time": 10.075, "note_off_time": 11.087}, {"pitch": 48, "velocity": 40, "note_on_time": 10.076, "note_off_time": 11.088}, {"pitch": 52, "velocity": 40, "note_on_time": 11.088, "note_off_time": 12.096}, {"pitch": 55, "velocity": 40, "note_on_time": 11.088, "note_off_time": 12.096}, {"pitch": 48, "velocity": 40, "note_on_time": 12.096, "note_off_time": 13.099}, {"pitch": 52, "velocity": 40, "note_on_time": 13.099, "note_off_time": 14.11}, {"pitch": 55, "velocity": 40, "note_on_time": 13.099, "note_off_time": 14.11}, {"pitch": 48, "velocity": 40, "note_on_time": 14.11, "note_off_time": 15.112}, {"pitch": 52, "velocity": 40, "note_on_time": 15.112, "note_off_time": 16.125}, {"pitch": 55, "velocity": 40, "note_on_time": 15.112, "note_off_time": 16.125}, {"pitch": 60, "velocity": 40, "note_on_time": 16.124, "note_off_time": 17.131}, {"pitch": 64, "velocity": 40, "note_on_time": 16.125, "note_off_time": 17.132}, {"pitch": 67, "velocity": 40, "note_on_time": 16.125, "note_off_time": 17.133}, {"pitch": 48, "velocity": 40, "note_on_time": 16.125, "note_off_time": 17.133}, {"pitch": 52, "velocity": 40, "note_on_time": 17.133, "note_off_time": 18.141}, {"pitch": 55, "velocity": 40, "note_on_time": 17.133, "note_off_time": 18.141}, {"pitch": 74, "velocity": 40, "note_on_time": 18.141, "note_off_time": 19.149}, {"pitch": 48, "velocity": 40, "note_on_time": 18.141, "note_off_time": 19.15}, {"pitch": 52, "velocity": 40, "note_on_time": 19.15, "note_off_time": 20.15}, {"pitch": 55, "velocity": 40, "note_on_time": 19.15, "note_off_time": 20.15}, {"pitch": 48, "velocity": 40, "note_on_time": 20.15, "note_off_time": 21.158}, {"pitch": 52, "velocity": 40, "note_on_time": 21.158, "note_off_time": 22.163}, {"pitch": 55, "velocity": 40, "note_on_time": 21.158, "note_off_time": 22.163}, {"pitch": 48, "velocity": 40, "note_on_time": 22.163, "note_off_time": 23.164}, {"pitch": 52, "velocity": 40, "note_on_time": 23.164, "note_off_time": 24.169}, {"pitch": 55, "velocity": 40, "note_on_time": 23.164, "note_off_time": 24.169}, {"pitch": 60, "velocity": 40, "note_on_time": 24.168, "note_off_time": 25.174}, {"pitch": 64, "velocity": 40, "note_on_time": 24.168, "note_off_time": 25.175}, {"pitch": 67, "velocity": 40, "note_on_time": 24.169, "note_off_time": 25.175}, {"pitch": 48, "velocity": 40, "note_on_time": 24.169, "note_off_time": 25.176}, {"pitch": 52, "velocity": 40, "note_on_time": 25.176, "note_off_time": 26.19}, {"pitch": 55, "velocity": 40, "note_on_time": 25.176, "note_off_time": 26.19}, {"pitch": 76, "velocity": 40, "note_on_time": 26.19, "note_off_time": 27.197}, {"pitch": 48, "velocity": 40, "note_on_time": 26.19, "note_off_time": 27.197}, {"pitch": 52, "velocity": 40, "note_on_time": 27.197, "note_off_time": 28.207}, {"pitch": 55, "velocity": 40, "note_on_time": 27.197, "note_off_time": 28.207}, {"pitch": 48, "velocity": 40, "note_on_time": 28.207, "note_off_time": 29.208}, {"pitch": 52, "velocity": 40, "note_on_time": 29.208, "note_off_time": 30.215}, {"pitch": 55, "velocity": 40, "note_on_time": 29.208, "note_off_time": 30.215}, {"pitch": 48, "velocity": 40, "note_on_time": 30.215, "note_off_time": 31.226}, {"pitch": 52, "velocity": 40, "note_on_time": 31.226, "note_off_time": 32.239}, {"pitch": 55, "velocity": 40, "note_on_time": 31.226, "note_off_time": 32.239}, {"pitch": 60, "velocity": 40, "note_on_time": 32.237, "note_off_time": 33.251}, {"pitch": 64, "velocity": 40, "note_on_time": 32.238, "note_off_time": 33.251}, {"pitch": 67, "velocity": 40, "note_on_time": 32.239, "note_off_time": 33.251}, {"pitch": 48, "velocity": 40, "note_on_time": 32.239, "note_off_time": 33.251}, {"pitch": 52, "velocity": 40, "note_on_time": 33.251, "note_off_time": 34.26}, {"pitch": 55, "velocity": 40, "note_on_time": 33.251, "note_off_time": 34.26}, {"pitch": 79, "velocity": 40, "note_on_time": 34.259, "note_off_time": 35.263}, {"pitch": 48, "velocity": 40, "note_on_time": 34.26, "note_off_time": 35.263}, {"pitch": 52, "velocity": 40, "note_on_time": 35.263, "note_off_time": 36.269}, {"pitch": 55, "velocity": 40, "note_on_time": 35.263, "note_off_time": 36.269}, {"pitch": 48, "velocity": 40, "note_on_time": 36.269, "note_off_time": 37.276}, {"pitch": 52, "velocity": 40, "note_on_time": 37.276, "note_off_time": 38.287}, {"pitch": 55, "velocity": 40, "note_on_time": 37.276, "note_off_time": 38.287}, {"pitch": 48, "velocity": 40, "note_on_time": 38.287, "note_off_time": 39.298}, {"pitch": 52, "velocity": 40, "note_on_time": 39.298, "note_off_time": 40.311}, {"pitch": 55, "velocity": 40, "note_on_time": 39.298, "note_off_time": 40.312}, {"pitch": 60, "velocity": 40, "note_on_time": 40.309, "note_off_time": 41.314}, {"pitch": 64, "velocity": 40, "note_on_time": 40.311, "note_off_time": 41.315}, {"pitch": 67, "velocity": 40, "note_on_time": 40.311, "note_off_time": 41.315}, {"pitch": 77, "velocity": 40, "note_on_time": 42.324, "note_off_time": 43.326}, {"pitch": 60, "velocity": 40, "note_on_time": 48.328, "note_off_time": 49.333}, {"pitch": 64, "velocity": 40, "note_on_time": 48.329, "note_off_time": 49.334}, {"pitch": 67, "velocity": 40, "note_on_time": 48.33, "note_off_time": 49.335}, {"pitch": 74, "velocity": 40, "note_on_time": 50.35, "note_off_time": 51.355}, {"pitch": 60, "velocity": 40, "note_on_time": 56.356, "note_off_time": 57.362}, {"pitch": 64, "velocity": 40, "note_on_time": 56.358, "note_off_time": 57.363}, {"pitch": 67, "velocity": 40, "note_on_time": 56.358, "note_off_time": 57.364}, {"pitch": 72, "velocity": 40, "note_on_time": 58.365, "note_off_time": 59.381}, {"pitch": 60, "velocity": 40, "note_on_time": 64.394, "note_off_time": 65.401}, {"pitch": 64, "velocity": 40, "note_on_time": 64.395, "note_off_time": 65.402}, {"pitch": 67, "velocity": 40, "note_on_time": 64.396, "note_off_time": 65.403}, {"pitch": 77, "velocity": 40, "note_on_time": 66.407, "note_off_time": 67.416}, {"pitch": 60, "velocity": 40, "note_on_time": 72.417, "note_off_time": 73.424}, {"pitch": 64, "velocity": 40, "note_on_time": 72.418, "note_off_time": 73.425}, {"pitch": 67, "velocity": 40, "note_on_time": 72.419, "note_off_time": 73.425}, {"pitch": 74, "velocity": 40, "note_on_time": 74.428, "note_off_time": 75.434}, {"pitch": 60, "velocity": 40, "note_on_time": 80.44, "note_off_time": 81.443}, {"pitch": 64, "velocity": 40, "note_on_time": 80.44, "note_off_time": 81.443}, {"pitch": 67, "velocity": 40, "note_on_time": 80.441, "note_off_time": 81.444}, {"pitch": 79, "velocity": 40, "note_on_time": 82.448, "note_off_time": 83.46}, {"pitch": 60, "velocity": 40, "note_on_time": 88.466, "note_off_time": 89.472}, {"pitch": 64, "velocity": 40, "note_on_time": 88.467, "note_off_time": 89.473}, {"pitch": 67, "velocity": 40, "note_on_time": 88.467, "note_off_time": 89.474}, {"pitch": 72, "velocity": 40, "note_on_time": 90.487, "note_off_time": 91.498}, {"pitch": 60, "velocity": 40, "note_on_time": 96.5, "note_off_time": 97.507}, {"pitch": 64, "velocity": 40, "note_on_time": 96.501, "note_off_time": 97.508}, {"pitch": 67, "velocity": 40, "note_on_time": 96.501, "note_off_time": 97.508}, {"pitch": 76, "velocity": 40, "note_on_time": 98.51, "note_off_time": 99.514}, {"pitch": 60, "velocity": 40, "note_on_time": 104.524, "note_off_time": 105.538}, {"pitch": 64, "velocity": 40, "note_on_time": 104.525, "note_off_time": 105.539}, {"pitch": 67, "velocity": 40, "note_on_time": 104.526, "note_off_time": 105.539}, {"pitch": 72, "velocity": 40, "note_on_time": 106.547, "note_off_time": 107.548}, {"pitch": 60, "velocity": 40, "note_on_time": 112.551, "note_off_time": 113.563}, {"pitch": 64, "velocity": 40, "note_on_time": 112.552, "note_off_time": 113.564}, {"pitch": 67, "velocity": 40, "note_on_time": 112.552, "note_off_time": 113.565}, {"pitch": 77, "velocity": 40, "note_on_time": 114.574, "note_off_time": 115.587}, {"pitch": 60, "velocity": 40, "note_on_time": 120.602, "note_off_time": 121.609}, {"pitch": 64, "velocity": 40, "note_on_time": 120.603, "note_off_time": 121.61}, {"pitch": 67, "velocity": 40, "note_on_time": 120.603, "note_off_time": 121.61}, {"pitch": 76, "velocity": 40, "note_on_time": 122.614, "note_off_time": 123.629}, {"pitch": 60, "velocity": 40, "note_on_time": 128.645, "note_off_time": 129.651}, {"pitch": 64, "velocity": 40, "note_on_time": 128.646, "note_off_time": 129.652}, {"pitch": 67, "velocity": 40, "note_on_time": 128.646, "note_off_time": 129.653}, {"pitch": 79, "velocity": 40, "note_on_time": 130.656, "note_off_time": 131.661}, {"pitch": 60, "velocity": 40, "note_on_time": 136.668, "note_off_time": 137.678}, {"pitch": 64, "velocity": 40, "note_on_time": 136.669, "note_off_time": 137.679}, {"pitch": 67, "velocity": 40, "note_on_time": 136.669, "note_off_time": 137.679}, {"pitch": 72, "velocity": 40, "note_on_time": 138.683, "note_off_time": 139.69}, {"pitch": 60, "velocity": 40, "note_on_time": 144.696, "note_off_time": 145.712}, {"pitch": 64, "velocity": 40, "note_on_time": 144.697, "note_off_time": 145.712}, {"pitch": 67, "velocity": 40, "note_on_time": 144.697, "note_off_time": 145.713}, {"pitch": 79, "velocity": 40, "note_on_time": 146.718, "note_off_time": 147.721}, {"pitch": 60, "velocity": 40, "note_on_time": 152.733, "note_off_time": 153.747}, {"pitch": 64, "velocity": 40, "note_on_time": 152.733, "note_off_time": 153.748}, {"pitch": 67, "velocity": 40, "note_on_time": 152.733, "note_off_time": 153.748}, {"pitch": 76, "velocity": 40, "note_on_time": 154.749, "note_off_time": 155.752}, {"pitch": 60, "velocity": 40, "note_on_time": 160.761, "note_off_time": 161.769}, {"pitch": 64, "velocity": 40, "note_on_time": 160.761, "note_off_time": 161.77}, {"pitch": 67, "velocity": 40, "note_on_time": 160.762, "note_off_time": 161.771}, {"pitch": 74, "velocity": 40, "note_on_time": 162.772, "note_off_time": 163.773}]</notes><options name="Option List">((4, 4), [0.5, 0.25], 3, 8, &lt;NoteRangePerHand.TWO_NOTES: 3&gt;, &lt;NoteRangePerHand.ONE_NOTE: 2&gt;, False, True, True, 100)</options></target_notes><trials><trial trial_no="1" timestamp="2024_02_26-14_36_22"><notes name="Played Notes">[{"pitch": 76, "velocity": 39, "note_on_time": 3.273, "note_off_time": 4.058}, {"pitch": 74, "velocity": 39, "note_on_time": 4.52, "note_off_time": 6.054}, {"pitch": 77, "velocity": 53, "note_on_time": 12.045, "note_off_time": 12.81}, {"pitch": 76, "velocity": 57, "note_on_time": 19.693, "note_off_time": 20.238}, {"pitch": 74, "velocity": 58, "note_on_time": 20.472, "note_off_time": 21.657}, {"pitch": 76, "velocity": 57, "note_on_time": 28.903, "note_off_time": 29.75}, {"pitch": 79, "velocity": 36, "note_on_time": 36.841, "note_off_time": 37.963}, {"pitch": 77, "velocity": 27, "note_on_time": 44.065, "note_off_time": 45.232}, {"pitch": 74, "velocity": 35, "note_on_time": 51.979, "note_off_time": 53.186}, {"pitch": 72, "velocity": 47, "note_on_time": 59.824, "note_off_time": 60.962}, {"pitch": 76, "velocity": 64, "note_on_time": 67.924, "note_off_time": 68.359}, {"pitch": 74, "velocity": 40, "note_on_time": 68.651, "note_off_time": 68.953}, {"pitch": 77, "velocity": 58, "note_on_time": 69.15, "note_off_time": 70.38}, {"pitch": 76, "velocity": 57, "note_on_time": 75.986, "note_off_time": 76.401}, {"pitch": 74, "velocity": 54, "note_on_time": 76.606, "note_off_time": 77.643}, {"pitch": 79, "velocity": 45, "note_on_time": 83.899, "note_off_time": 85.039}, {"pitch": 72, "velocity": 42, "note_on_time": 91.994, "note_off_time": 92.935}, {"pitch": 76, "velocity": 49, "note_on_time": 100.121, "note_off_time": 101.229}, {"pitch": 72, "velocity": 45, "note_on_time": 108.061, "note_off_time": 109.377}, {"pitch": 77, "velocity": 54, "note_on_time": 116.249, "note_off_time": 117.235}, {"pitch": 76, "velocity": 46, "note_on_time": 124.755, "note_off_time": 125.675}, {"pitch": 79, "velocity": 51, "note_on_time": 132.52, "note_off_time": 133.472}, {"pitch": 72, "velocity": 52, "note_on_time": 139.996, "note_off_time": 141.062}, {"pitch": 79, "velocity": 42, "note_on_time": 148.061, "note_off_time": 149.157}, {"pitch": 77, "velocity": 45, "note_on_time": 156.284, "note_off_time": 156.701}, {"pitch": 76, "velocity": 49, "note_on_time": 156.924, "note_off_time": 158.086}]</notes><guidance name="Guidance Mode">None</guidance><error name="Error value">99</error></trial></trials></MIDI>