<MIDI midiNo="2024_03_04-12_05_16"><target_notes><notes name="Note List">[{"pitch": 60, "velocity": 40, "note_on_time": 0.009, "note_off_time": 1.019}, {"pitch": 64, "velocity": 40, "note_on_time": 0.01, "note_off_time": 1.02}, {"pitch": 67, "velocity": 40, "note_on_time": 0.01, "note_off_time": 1.02}, {"pitch": 48, "velocity": 40, "note_on_time": 0.01, "note_off_time": 1.02}, {"pitch": 52, "velocity": 40, "note_on_time": 1.021, "note_off_time": 2.028}, {"pitch": 55, "velocity": 40, "note_on_time": 1.021, "note_off_time": 2.029}, {"pitch": 77, "velocity": 40, "note_on_time": 2.028, "note_off_time": 3.041}, {"pitch": 48, "velocity": 40, "note_on_time": 2.029, "note_off_time": 3.041}, {"pitch": 52, "velocity": 40, "note_on_time": 3.042, "note_off_time": 4.047}, {"pitch": 55, "velocity": 40, "note_on_time": 3.042, "note_off_time": 4.047}, {"pitch": 48, "velocity": 40, "note_on_time": 4.047, "note_off_time": 5.061}, {"pitch": 52, "velocity": 40, "note_on_time": 5.061, "note_off_time": 6.061}, {"pitch": 55, "velocity": 40, "note_on_time": 5.061, "note_off_time": 6.061}, {"pitch": 48, "velocity": 40, "note_on_time": 6.061, "note_off_time": 7.067}, {"pitch": 52, "velocity": 40, "note_on_time": 7.067, "note_off_time": 8.071}, {"pitch": 55, "velocity": 40, "note_on_time": 7.067, "note_off_time": 8.071}, {"pitch": 60, "velocity": 40, "note_on_time": 8.069, "note_off_time": 9.072}, {"pitch": 64, "velocity": 40, "note_on_time": 8.07, "note_off_time": 9.073}, {"pitch": 67, "velocity": 40, "note_on_time": 8.071, "note_off_time": 9.073}, {"pitch": 48, "velocity": 40, "note_on_time": 8.071, "note_off_time": 9.073}, {"pitch": 52, "velocity": 40, "note_on_time": 9.073, "note_off_time": 10.089}, {"pitch": 55, "velocity": 40, "note_on_time": 9.074, "note_off_time": 10.09}, {"pitch": 76, "velocity": 40, "note_on_time": 10.089, "note_off_time": 11.094}, {"pitch": 48, "velocity": 40, "note_on_time": 10.09, "note_off_time": 11.094}, {"pitch": 52, "velocity": 40, "note_on_time": 11.095, "note_off_time": 12.096}, {"pitch": 55, "velocity": 40, "note_on_time": 11.095, "note_off_time": 12.096}, {"pitch": 48, "velocity": 40, "note_on_time": 12.096, "note_off_time": 13.112}, {"pitch": 52, "velocity": 40, "note_on_time": 13.112, "note_off_time": 14.115}, {"pitch": 55, "velocity": 40, "note_on_time": 13.112, "note_off_time": 14.115}, {"pitch": 48, "velocity": 40, "note_on_time": 14.115, "note_off_time": 15.121}, {"pitch": 52, "velocity": 40, "note_on_time": 15.121, "note_off_time": 16.124}, {"pitch": 55, "velocity": 40, "note_on_time": 15.122, "note_off_time": 16.124}, {"pitch": 60, "velocity": 40, "note_on_time": 16.123, "note_off_time": 17.138}, {"pitch": 64, "velocity": 40, "note_on_time": 16.124, "note_off_time": 17.139}, {"pitch": 67, "velocity": 40, "note_on_time": 16.124, "note_off_time": 17.139}, {"pitch": 48, "velocity": 40, "note_on_time": 16.125, "note_off_time": 17.139}, {"pitch": 52, "velocity": 40, "note_on_time": 17.14, "note_off_time": 18.141}, {"pitch": 55, "velocity": 40, "note_on_time": 17.14, "note_off_time": 18.143}, {"pitch": 79, "velocity": 40, "note_on_time": 18.141, "note_off_time": 19.151}, {"pitch": 48, "velocity": 40, "note_on_time": 18.143, "note_off_time": 19.151}, {"pitch": 52, "velocity": 40, "note_on_time": 19.151, "note_off_time": 20.153}, {"pitch": 55, "velocity": 40, "note_on_time": 19.151, "note_off_time": 20.153}, {"pitch": 48, "velocity": 40, "note_on_time": 20.153, "note_off_time": 21.158}, {"pitch": 52, "velocity": 40, "note_on_time": 21.158, "note_off_time": 22.161}, {"pitch": 55, "velocity": 40, "note_on_time": 21.158, "note_off_time": 22.161}, {"pitch": 48, "velocity": 40, "note_on_time": 22.161, "note_off_time": 23.172}, {"pitch": 52, "velocity": 40, "note_on_time": 23.172, "note_off_time": 24.185}, {"pitch": 55, "velocity": 40, "note_on_time": 23.172, "note_off_time": 24.185}, {"pitch": 60, "velocity": 40, "note_on_time": 24.183, "note_off_time": 25.187}, {"pitch": 64, "velocity": 40, "note_on_time": 24.183, "note_off_time": 25.188}, {"pitch": 67, "velocity": 40, "note_on_time": 24.185, "note_off_time": 25.188}, {"pitch": 48, "velocity": 40, "note_on_time": 24.185, "note_off_time": 25.188}, {"pitch": 52, "velocity": 40, "note_on_time": 25.189, "note_off_time": 26.205}, {"pitch": 55, "velocity": 40, "note_on_time": 25.189, "note_off_time": 26.205}, {"pitch": 72, "velocity": 40, "note_on_time": 26.205, "note_off_time": 27.207}, {"pitch": 48, "velocity": 40, "note_on_time": 26.205, "note_off_time": 27.207}, {"pitch": 52, "velocity": 40, "note_on_time": 27.208, "note_off_time": 28.222}, {"pitch": 55, "velocity": 40, "note_on_time": 27.208, "note_off_time": 28.222}, {"pitch": 48, "velocity": 40, "note_on_time": 28.222, "note_off_time": 29.225}, {"pitch": 52, "velocity": 40, "note_on_time": 29.225, "note_off_time": 30.228}, {"pitch": 55, "velocity": 40, "note_on_time": 29.225, "note_off_time": 30.228}, {"pitch": 48, "velocity": 40, "note_on_time": 30.228, "note_off_time": 31.232}, {"pitch": 52, "velocity": 40, "note_on_time": 31.232, "note_off_time": 32.247}, {"pitch": 55, "velocity": 40, "note_on_time": 31.232, "note_off_time": 32.247}, {"pitch": 60, "velocity": 40, "note_on_time": 32.245, "note_off_time": 33.247}, {"pitch": 64, "velocity": 40, "note_on_time": 32.245, "note_off_time": 33.248}, {"pitch": 67, "velocity": 40, "note_on_time": 32.247, "note_off_time": 33.248}, {"pitch": 48, "velocity": 40, "note_on_time": 32.247, "note_off_time": 33.249}, {"pitch": 52, "velocity": 40, "note_on_time": 33.249, "note_off_time": 34.256}, {"pitch": 55, "velocity": 40, "note_on_time": 33.249, "note_off_time": 34.256}, {"pitch": 79, "velocity": 40, "note_on_time": 34.256, "note_off_time": 35.258}, {"pitch": 48, "velocity": 40, "note_on_time": 34.256, "note_off_time": 35.258}, {"pitch": 52, "velocity": 40, "note_on_time": 35.259, "note_off_time": 36.261}, {"pitch": 55, "velocity": 40, "note_on_time": 35.259, "note_off_time": 36.261}, {"pitch": 48, "velocity": 40, "note_on_time": 36.261, "note_off_time": 37.265}, {"pitch": 52, "velocity": 40, "note_on_time": 37.265, "note_off_time": 38.28}, {"pitch": 55, "velocity": 40, "note_on_time": 37.265, "note_off_time": 38.28}, {"pitch": 48, "velocity": 40, "note_on_time": 38.28, "note_off_time": 39.294}, {"pitch": 52, "velocity": 40, "note_on_time": 39.294, "note_off_time": 40.297}, {"pitch": 55, "velocity": 40, "note_on_time": 39.294, "note_off_time": 40.298}, {"pitch": 60, "velocity": 40, "note_on_time": 40.296, "note_off_time": 41.313}, {"pitch": 64, "velocity": 40, "note_on_time": 40.297, "note_off_time": 41.313}, {"pitch": 67, "velocity": 40, "note_on_time": 40.297, "note_off_time": 41.314}, {"pitch": 77, "velocity": 40, "note_on_time": 42.321, "note_off_time": 43.333}, {"pitch": 60, "velocity": 40, "note_on_time": 48.341, "note_off_time": 49.349}, {"pitch": 64, "velocity": 40, "note_on_time": 48.342, "note_off_time": 49.35}, {"pitch": 67, "velocity": 40, "note_on_time": 48.342, "note_off_time": 49.35}, {"pitch": 72, "velocity": 40, "note_on_time": 50.359, "note_off_time": 51.37}, {"pitch": 60, "velocity": 40, "note_on_time": 56.378, "note_off_time": 57.385}, {"pitch": 64, "velocity": 40, "note_on_time": 56.38, "note_off_time": 57.386}, {"pitch": 67, "velocity": 40, "note_on_time": 56.38, "note_off_time": 57.386}, {"pitch": 76, "velocity": 40, "note_on_time": 58.399, "note_off_time": 59.404}, {"pitch": 60, "velocity": 40, "note_on_time": 64.416, "note_off_time": 65.422}, {"pitch": 64, "velocity": 40, "note_on_time": 64.416, "note_off_time": 65.422}, {"pitch": 67, "velocity": 40, "note_on_time": 64.417, "note_off_time": 65.423}, {"pitch": 79, "velocity": 40, "note_on_time": 66.436, "note_off_time": 67.441}, {"pitch": 60, "velocity": 40, "note_on_time": 72.449, "note_off_time": 73.453}, {"pitch": 64, "velocity": 40, "note_on_time": 72.45, "note_off_time": 73.454}, {"pitch": 67, "velocity": 40, "note_on_time": 72.45, "note_off_time": 73.454}, {"pitch": 74, "velocity": 40, "note_on_time": 74.459, "note_off_time": 75.462}, {"pitch": 60, "velocity": 40, "note_on_time": 80.473, "note_off_time": 81.477}, {"pitch": 64, "velocity": 40, "note_on_time": 80.474, "note_off_time": 81.478}, {"pitch": 67, "velocity": 40, "note_on_time": 80.474, "note_off_time": 81.478}, {"pitch": 79, "velocity": 40, "note_on_time": 82.481, "note_off_time": 83.482}, {"pitch": 60, "velocity": 40, "note_on_time": 88.488, "note_off_time": 89.504}, {"pitch": 64, "velocity": 40, "note_on_time": 88.489, "note_off_time": 89.505}, {"pitch": 67, "velocity": 40, "note_on_time": 88.489, "note_off_time": 89.505}, {"pitch": 77, "velocity": 40, "note_on_time": 90.518, "note_off_time": 91.523}, {"pitch": 60, "velocity": 40, "note_on_time": 96.533, "note_off_time": 97.55}, {"pitch": 64, "velocity": 40, "note_on_time": 96.535, "note_off_time": 97.551}, {"pitch": 67, "velocity": 40, "note_on_time": 96.535, "note_off_time": 97.552}, {"pitch": 72, "velocity": 40, "note_on_time": 98.564, "note_off_time": 99.574}, {"pitch": 60, "velocity": 40, "note_on_time": 104.581, "note_off_time": 105.591}, {"pitch": 64, "velocity": 40, "note_on_time": 104.582, "note_off_time": 105.592}, {"pitch": 67, "velocity": 40, "note_on_time": 104.583, "note_off_time": 105.592}, {"pitch": 77, "velocity": 40, "note_on_time": 106.598, "note_off_time": 107.604}, {"pitch": 60, "velocity": 40, "note_on_time": 112.61, "note_off_time": 113.625}, {"pitch": 64, "velocity": 40, "note_on_time": 112.611, "note_off_time": 113.626}, {"pitch": 67, "velocity": 40, "note_on_time": 112.611, "note_off_time": 113.627}, {"pitch": 74, "velocity": 40, "note_on_time": 114.634, "note_off_time": 115.645}, {"pitch": 60, "velocity": 40, "note_on_time": 120.647, "note_off_time": 121.662}, {"pitch": 64, "velocity": 40, "note_on_time": 120.648, "note_off_time": 121.663}, {"pitch": 67, "velocity": 40, "note_on_time": 120.649, "note_off_time": 121.664}, {"pitch": 76, "velocity": 40, "note_on_time": 122.676, "note_off_time": 123.692}, {"pitch": 60, "velocity": 40, "note_on_time": 128.708, "note_off_time": 129.722}, {"pitch": 64, "velocity": 40, "note_on_time": 128.709, "note_off_time": 129.723}, {"pitch": 67, "velocity": 40, "note_on_time": 128.709, "note_off_time": 129.724}, {"pitch": 74, "velocity": 40, "note_on_time": 130.735, "note_off_time": 131.751}, {"pitch": 60, "velocity": 40, "note_on_time": 136.758, "note_off_time": 137.761}, {"pitch": 64, "velocity": 40, "note_on_time": 136.759, "note_off_time": 137.762}, {"pitch": 67, "velocity": 40, "note_on_time": 136.759, "note_off_time": 137.762}, {"pitch": 72, "velocity": 40, "note_on_time": 138.774, "note_off_time": 139.778}, {"pitch": 60, "velocity": 40, "note_on_time": 144.787, "note_off_time": 145.804}, {"pitch": 64, "velocity": 40, "note_on_time": 144.787, "note_off_time": 145.806}, {"pitch": 67, "velocity": 40, "note_on_time": 144.788, "note_off_time": 145.806}, {"pitch": 74, "velocity": 40, "note_on_time": 146.812, "note_off_time": 147.821}, {"pitch": 60, "velocity": 40, "note_on_time": 152.828, "note_off_time": 153.842}, {"pitch": 64, "velocity": 40, "note_on_time": 152.829, "note_off_time": 153.842}, {"pitch": 67, "velocity": 40, "note_on_time": 152.829, "note_off_time": 153.842}, {"pitch": 76, "velocity": 40, "note_on_time": 154.85, "note_off_time": 155.857}, {"pitch": 60, "velocity": 40, "note_on_time": 160.87, "note_off_time": 161.887}, {"pitch": 64, "velocity": 40, "note_on_time": 160.871, "note_off_time": 161.888}, {"pitch": 67, "velocity": 40, "note_on_time": 160.871, "note_off_time": 161.888}, {"pitch": 77, "velocity": 40, "note_on_time": 162.889, "note_off_time": 163.904}]</notes><options name="Option List">((4, 4), [0.5, 0.25], 3, 8, &lt;NoteRangePerHand.TWO_NOTES: 3&gt;, &lt;NoteRangePerHand.ONE_NOTE: 2&gt;, False, True, True, 100)</options></target_notes><trials><trial trial_no="1" timestamp="2024_03_04-12_02_32"><notes name="Played Notes">[{"pitch": 76, "velocity": 25, "note_on_time": 3.414, "note_off_time": 3.996}, {"pitch": 77, "velocity": 72, "note_on_time": 4.587, "note_off_time": 5.483}, {"pitch": 74, "velocity": 64, "note_on_time": 11.852, "note_off_time": 12.166}, {"pitch": 76, "velocity": 68, "note_on_time": 12.616, "note_off_time": 14.174}, {"pitch": 79, "velocity": 42, "note_on_time": 19.58, "note_off_time": 20.711}, {"pitch": 72, "velocity": 40, "note_on_time": 27.2, "note_off_time": 27.522}, {"pitch": 72, "velocity": 66, "note_on_time": 27.767, "note_off_time": 28.732}, {"pitch": 77, "velocity": 51, "note_on_time": 36.048, "note_off_time": 36.472}, {"pitch": 79, "velocity": 59, "note_on_time": 36.95, "note_off_time": 38.325}, {"pitch": 76, "velocity": 49, "note_on_time": 44.813, "note_off_time": 45.516}, {"pitch": 77, "velocity": 59, "note_on_time": 45.789, "note_off_time": 47.512}, {"pitch": 72, "velocity": 42, "note_on_time": 51.775, "note_off_time": 52.868}, {"pitch": 76, "velocity": 28, "note_on_time": 59.961, "note_off_time": 61.01}, {"pitch": 79, "velocity": 53, "note_on_time": 68.014, "note_off_time": 68.91}, {"pitch": 74, "velocity": 62, "note_on_time": 76.187, "note_off_time": 77.147}, {"pitch": 79, "velocity": 30, "note_on_time": 83.739, "note_off_time": 84.954}, {"pitch": 77, "velocity": 41, "note_on_time": 91.694, "note_off_time": 92.76}, {"pitch": 72, "velocity": 59, "note_on_time": 99.983, "note_off_time": 100.893}, {"pitch": 76, "velocity": 25, "note_on_time": 108.029, "note_off_time": 108.664}, {"pitch": 77, "velocity": 51, "note_on_time": 108.959, "note_off_time": 110.732}, {"pitch": 76, "velocity": 41, "note_on_time": 116.396, "note_off_time": 116.868}, {"pitch": 74, "velocity": 58, "note_on_time": 117.169, "note_off_time": 118.733}, {"pitch": 76, "velocity": 1, "note_on_time": 125.543, "note_off_time": 126.801}, {"pitch": 74, "velocity": 60, "note_on_time": 132.195, "note_off_time": 133.482}, {"pitch": 72, "velocity": 58, "note_on_time": 139.993, "note_off_time": 140.955}, {"pitch": 74, "velocity": 52, "note_on_time": 148.419, "note_off_time": 149.512}, {"pitch": 76, "velocity": 31, "note_on_time": 156.066, "note_off_time": 157.367}]</notes><guidance name="Guidance Mode">None</guidance><error name="Error value">99</error></trial><trial trial_no="2" timestamp="2024_03_04-12_07_12"><notes name="Played Notes">[{"pitch": 72, "velocity": 44, "note_on_time": 4.865, "note_off_time": 5.452}, {"pitch": 74, "velocity": 77, "note_on_time": 5.437, "note_off_time": 6.062}, {"pitch": 76, "velocity": 66, "note_on_time": 6.018, "note_off_time": 6.625}, {"pitch": 77, "velocity": 72, "note_on_time": 6.584, "note_off_time": 7.201}, {"pitch": 79, "velocity": 65, "note_on_time": 7.16, "note_off_time": 9.248}, {"pitch": 72, "velocity": 49, "note_on_time": 9.682, "note_off_time": 10.254}, {"pitch": 74, "velocity": 64, "note_on_time": 10.259, "note_off_time": 10.878}, {"pitch": 76, "velocity": 69, "note_on_time": 10.861, "note_off_time": 11.476}, {"pitch": 77, "velocity": 71, "note_on_time": 11.444, "note_off_time": 12.127}, {"pitch": 79, "velocity": 62, "note_on_time": 12.077, "note_off_time": 14.019}, {"pitch": 72, "velocity": 53, "note_on_time": 14.527, "note_off_time": 15.137}, {"pitch": 74, "velocity": 71, "note_on_time": 15.132, "note_off_time": 15.743}, {"pitch": 76, "velocity": 69, "note_on_time": 15.71, "note_off_time": 16.357}, {"pitch": 77, "velocity": 66, "note_on_time": 16.298, "note_off_time": 16.963}, {"pitch": 79, "velocity": 77, "note_on_time": 16.894, "note_off_time": 18.791}, {"pitch": 72, "velocity": 57, "note_on_time": 19.399, "note_off_time": 20.027}, {"pitch": 74, "velocity": 74, "note_on_time": 20.03, "note_off_time": 20.661}, {"pitch": 76, "velocity": 72, "note_on_time": 20.631, "note_off_time": 21.291}, {"pitch": 77, "velocity": 61, "note_on_time": 21.24, "note_off_time": 21.884}, {"pitch": 79, "velocity": 67, "note_on_time": 21.849, "note_off_time": 23.803}, {"pitch": 79, "velocity": 59, "note_on_time": 24.323, "note_off_time": 24.936}, {"pitch": 77, "velocity": 61, "note_on_time": 24.92, "note_off_time": 25.524}, {"pitch": 76, "velocity": 61, "note_on_time": 25.487, "note_off_time": 26.144}, {"pitch": 74, "velocity": 69, "note_on_time": 26.08, "note_off_time": 26.735}, {"pitch": 72, "velocity": 69, "note_on_time": 26.696, "note_off_time": 28.448}, {"pitch": 79, "velocity": 58, "note_on_time": 29.21, "note_off_time": 29.834}, {"pitch": 77, "velocity": 68, "note_on_time": 29.791, "note_off_time": 30.393}, {"pitch": 76, "velocity": 61, "note_on_time": 30.344, "note_off_time": 31.019}, {"pitch": 74, "velocity": 68, "note_on_time": 30.971, "note_off_time": 31.64}, {"pitch": 72, "velocity": 72, "note_on_time": 31.607, "note_off_time": 33.552}, {"pitch": 79, "velocity": 64, "note_on_time": 34.027, "note_off_time": 34.659}, {"pitch": 77, "velocity": 60, "note_on_time": 34.587, "note_off_time": 35.236}, {"pitch": 76, "velocity": 60, "note_on_time": 35.164, "note_off_time": 35.862}, {"pitch": 74, "velocity": 73, "note_on_time": 35.813, "note_off_time": 36.49}, {"pitch": 72, "velocity": 67, "note_on_time": 36.445, "note_off_time": 38.25}, {"pitch": 79, "velocity": 60, "note_on_time": 38.849, "note_off_time": 39.51}, {"pitch": 77, "velocity": 58, "note_on_time": 39.445, "note_off_time": 40.12}, {"pitch": 76, "velocity": 61, "note_on_time": 40.083, "note_off_time": 40.72}, {"pitch": 74, "velocity": 72, "note_on_time": 40.687, "note_off_time": 41.339}, {"pitch": 72, "velocity": 66, "note_on_time": 41.294, "note_off_time": 43.118}, {"pitch": 74, "velocity": 75, "note_on_time": 43.814, "note_off_time": 44.413}, {"pitch": 76, "velocity": 60, "note_on_time": 44.404, "note_off_time": 45.047}, {"pitch": 77, "velocity": 65, "note_on_time": 45.015, "note_off_time": 45.616}, {"pitch": 79, "velocity": 72, "note_on_time": 45.599, "note_off_time": 46.221}, {"pitch": 72, "velocity": 64, "note_on_time": 46.207, "note_off_time": 47.821}, {"pitch": 74, "velocity": 66, "note_on_time": 48.675, "note_off_time": 49.231}, {"pitch": 76, "velocity": 67, "note_on_time": 49.229, "note_off_time": 49.884}, {"pitch": 77, "velocity": 67, "note_on_time": 49.851, "note_off_time": 50.461}, {"pitch": 79, "velocity": 67, "note_on_time": 50.441, "note_off_time": 51.107}, {"pitch": 72, "velocity": 71, "note_on_time": 51.083, "note_off_time": 52.886}, {"pitch": 74, "velocity": 69, "note_on_time": 53.566, "note_off_time": 54.157}, {"pitch": 76, "velocity": 69, "note_on_time": 54.141, "note_off_time": 54.783}, {"pitch": 77, "velocity": 64, "note_on_time": 54.727, "note_off_time": 55.412}, {"pitch": 79, "velocity": 62, "note_on_time": 55.369, "note_off_time": 56.025}, {"pitch": 72, "velocity": 65, "note_on_time": 55.975, "note_off_time": 57.811}, {"pitch": 74, "velocity": 54, "note_on_time": 58.43, "note_off_time": 59.023}, {"pitch": 76, "velocity": 67, "note_on_time": 58.989, "note_off_time": 59.617}, {"pitch": 77, "velocity": 66, "note_on_time": 59.599, "note_off_time": 60.273}, {"pitch": 79, "velocity": 52, "note_on_time": 60.22, "note_off_time": 60.874}, {"pitch": 72, "velocity": 64, "note_on_time": 60.857, "note_off_time": 62.529}, {"pitch": 77, "velocity": 64, "note_on_time": 63.301, "note_off_time": 63.898}, {"pitch": 76, "velocity": 65, "note_on_time": 63.891, "note_off_time": 64.516}, {"pitch": 74, "velocity": 61, "note_on_time": 64.486, "note_off_time": 65.156}, {"pitch": 72, "velocity": 70, "note_on_time": 65.109, "note_off_time": 65.78}, {"pitch": 79, "velocity": 55, "note_on_time": 65.743, "note_off_time": 67.634}, {"pitch": 77, "velocity": 50, "note_on_time": 68.167, "note_off_time": 68.794}, {"pitch": 76, "velocity": 60, "note_on_time": 68.761, "note_off_time": 69.371}, {"pitch": 74, "velocity": 71, "note_on_time": 69.333, "note_off_time": 69.988}, {"pitch": 72, "velocity": 65, "note_on_time": 69.944, "note_off_time": 70.646}, {"pitch": 79, "velocity": 60, "note_on_time": 70.595, "note_off_time": 72.248}, {"pitch": 77, "velocity": 65, "note_on_time": 73.043, "note_off_time": 73.652}, {"pitch": 76, "velocity": 69, "note_on_time": 73.641, "note_off_time": 74.325}, {"pitch": 74, "velocity": 72, "note_on_time": 74.269, "note_off_time": 74.926}, {"pitch": 72, "velocity": 68, "note_on_time": 74.875, "note_off_time": 75.562}, {"pitch": 79, "velocity": 58, "note_on_time": 75.498, "note_off_time": 77.434}, {"pitch": 77, "velocity": 64, "note_on_time": 77.935, "note_off_time": 78.563}, {"pitch": 76, "velocity": 60, "note_on_time": 78.522, "note_off_time": 79.148}, {"pitch": 74, "velocity": 70, "note_on_time": 79.105, "note_off_time": 79.75}, {"pitch": 72, "velocity": 70, "note_on_time": 79.698, "note_off_time": 80.468}, {"pitch": 79, "velocity": 60, "note_on_time": 80.359, "note_off_time": 82.222}, {"pitch": 76, "velocity": 63, "note_on_time": 82.843, "note_off_time": 83.473}, {"pitch": 77, "velocity": 62, "note_on_time": 83.398, "note_off_time": 84.071}, {"pitch": 79, "velocity": 54, "note_on_time": 84.029, "note_off_time": 84.743}, {"pitch": 74, "velocity": 62, "note_on_time": 84.624, "note_off_time": 85.274}, {"pitch": 72, "velocity": 62, "note_on_time": 85.212, "note_off_time": 87.041}, {"pitch": 76, "velocity": 59, "note_on_time": 87.662, "note_off_time": 88.258}, {"pitch": 77, "velocity": 64, "note_on_time": 88.205, "note_off_time": 88.903}, {"pitch": 79, "velocity": 24, "note_on_time": 88.835, "note_off_time": 89.536}, {"pitch": 74, "velocity": 64, "note_on_time": 89.471, "note_off_time": 90.177}, {"pitch": 72, "velocity": 70, "note_on_time": 90.113, "note_off_time": 92.164}, {"pitch": 76, "velocity": 70, "note_on_time": 92.612, "note_off_time": 93.22}, {"pitch": 77, "velocity": 62, "note_on_time": 93.197, "note_off_time": 93.766}, {"pitch": 79, "velocity": 69, "note_on_time": 93.759, "note_off_time": 94.418}, {"pitch": 74, "velocity": 59, "note_on_time": 94.368, "note_off_time": 95.011}, {"pitch": 72, "velocity": 66, "note_on_time": 94.971, "note_off_time": 96.986}, {"pitch": 76, "velocity": 61, "note_on_time": 97.465, "note_off_time": 98.089}, {"pitch": 77, "velocity": 57, "note_on_time": 98.047, "note_off_time": 98.656}, {"pitch": 79, "velocity": 73, "note_on_time": 98.638, "note_off_time": 99.324}, {"pitch": 74, "velocity": 54, "note_on_time": 99.249, "note_off_time": 99.914}, {"pitch": 72, "velocity": 69, "note_on_time": 99.861, "note_off_time": 101.879}, {"pitch": 76, "velocity": 53, "note_on_time": 102.371, "note_off_time": 102.974}, {"pitch": 74, "velocity": 65, "note_on_time": 102.917, "note_off_time": 103.598}, {"pitch": 72, "velocity": 66, "note_on_time": 103.545, "note_off_time": 104.334}, {"pitch": 77, "velocity": 40, "note_on_time": 104.215, "note_off_time": 104.842}, {"pitch": 79, "velocity": 78, "note_on_time": 104.801, "note_off_time": 106.801}, {"pitch": 76, "velocity": 67, "note_on_time": 107.227, "note_off_time": 107.86}, {"pitch": 74, "velocity": 72, "note_on_time": 107.817, "note_off_time": 108.435}, {"pitch": 72, "velocity": 66, "note_on_time": 108.385, "note_off_time": 109.356}, {"pitch": 77, "velocity": 44, "note_on_time": 109.16, "note_off_time": 109.654}, {"pitch": 79, "velocity": 82, "note_on_time": 109.626, "note_off_time": 111.543}, {"pitch": 76, "velocity": 62, "note_on_time": 112.056, "note_off_time": 112.706}, {"pitch": 74, "velocity": 66, "note_on_time": 112.662, "note_off_time": 113.298}, {"pitch": 72, "velocity": 69, "note_on_time": 113.268, "note_off_time": 113.945}, {"pitch": 77, "velocity": 56, "note_on_time": 113.874, "note_off_time": 114.542}, {"pitch": 79, "velocity": 73, "note_on_time": 114.502, "note_off_time": 116.556}, {"pitch": 76, "velocity": 56, "note_on_time": 116.971, "note_off_time": 117.624}, {"pitch": 74, "velocity": 73, "note_on_time": 117.565, "note_off_time": 118.185}, {"pitch": 72, "velocity": 69, "note_on_time": 118.143, "note_off_time": 118.861}, {"pitch": 77, "velocity": 66, "note_on_time": 118.775, "note_off_time": 119.434}, {"pitch": 79, "velocity": 71, "note_on_time": 119.402, "note_off_time": 121.275}, {"pitch": 77, "velocity": 65, "note_on_time": 121.811, "note_off_time": 122.435}, {"pitch": 79, "velocity": 62, "note_on_time": 122.42, "note_off_time": 123.054}, {"pitch": 76, "velocity": 70, "note_on_time": 123.008, "note_off_time": 123.732}, {"pitch": 74, "velocity": 72, "note_on_time": 123.621, "note_off_time": 124.303}, {"pitch": 72, "velocity": 60, "note_on_time": 124.251, "note_off_time": 126.276}, {"pitch": 77, "velocity": 62, "note_on_time": 126.666, "note_off_time": 127.29}, {"pitch": 79, "velocity": 66, "note_on_time": 127.272, "note_off_time": 127.927}, {"pitch": 76, "velocity": 68, "note_on_time": 127.871, "note_off_time": 128.589}, {"pitch": 74, "velocity": 68, "note_on_time": 128.519, "note_off_time": 129.211}, {"pitch": 72, "velocity": 55, "note_on_time": 129.166, "note_off_time": 131.075}, {"pitch": 77, "velocity": 74, "note_on_time": 131.594, "note_off_time": 132.214}, {"pitch": 79, "velocity": 66, "note_on_time": 132.181, "note_off_time": 132.882}, {"pitch": 76, "velocity": 65, "note_on_time": 132.8, "note_off_time": 133.452}, {"pitch": 74, "velocity": 60, "note_on_time": 133.41, "note_off_time": 134.116}, {"pitch": 72, "velocity": 64, "note_on_time": 134.061, "note_off_time": 135.852}, {"pitch": 77, "velocity": 58, "note_on_time": 136.455, "note_off_time": 137.067}, {"pitch": 79, "velocity": 65, "note_on_time": 137.054, "note_off_time": 137.708}, {"pitch": 76, "velocity": 65, "note_on_time": 137.657, "note_off_time": 138.349}, {"pitch": 74, "velocity": 64, "note_on_time": 138.292, "note_off_time": 138.938}, {"pitch": 72, "velocity": 61, "note_on_time": 138.889, "note_off_time": 140.604}, {"pitch": 74, "velocity": 64, "note_on_time": 141.361, "note_off_time": 142.008}, {"pitch": 72, "velocity": 69, "note_on_time": 141.962, "note_off_time": 142.678}, {"pitch": 76, "velocity": 60, "note_on_time": 142.587, "note_off_time": 143.168}, {"pitch": 77, "velocity": 69, "note_on_time": 143.129, "note_off_time": 143.751}, {"pitch": 79, "velocity": 70, "note_on_time": 143.719, "note_off_time": 145.532}, {"pitch": 74, "velocity": 46, "note_on_time": 146.211, "note_off_time": 146.838}, {"pitch": 72, "velocity": 69, "note_on_time": 146.833, "note_off_time": 147.477}, {"pitch": 76, "velocity": 70, "note_on_time": 147.451, "note_off_time": 148.133}, {"pitch": 77, "velocity": 72, "note_on_time": 148.083, "note_off_time": 148.737}, {"pitch": 79, "velocity": 21, "note_on_time": 148.659, "note_off_time": 150.401}, {"pitch": 74, "velocity": 60, "note_on_time": 151.069, "note_off_time": 151.662}, {"pitch": 72, "velocity": 67, "note_on_time": 151.632, "note_off_time": 152.369}, {"pitch": 76, "velocity": 60, "note_on_time": 152.309, "note_off_time": 152.874}, {"pitch": 77, "velocity": 65, "note_on_time": 152.861, "note_off_time": 153.502}, {"pitch": 79, "velocity": 71, "note_on_time": 153.49, "note_off_time": 155.91}, {"pitch": 74, "velocity": 59, "note_on_time": 156.007, "note_off_time": 156.607}, {"pitch": 72, "velocity": 63, "note_on_time": 156.562, "note_off_time": 157.198}, {"pitch": 76, "velocity": 65, "note_on_time": 157.148, "note_off_time": 157.772}, {"pitch": 77, "velocity": 64, "note_on_time": 157.744, "note_off_time": 158.382}, {"pitch": 79, "velocity": 68, "note_on_time": 158.363, "note_off_time": 160.775}, {"pitch": 72, "velocity": 23, "note_on_time": 160.858, "note_off_time": 161.466}, {"pitch": 74, "velocity": 63, "note_on_time": 161.454, "note_off_time": 162.084}, {"pitch": 76, "velocity": 68, "note_on_time": 162.042, "note_off_time": 162.661}, {"pitch": 77, "velocity": 63, "note_on_time": 162.613, "note_off_time": 163.268}, {"pitch": 79, "velocity": 74, "note_on_time": 163.239, "note_off_time": 165.413}, {"pitch": 72, "velocity": 54, "note_on_time": 165.735, "note_off_time": 166.306}, {"pitch": 74, "velocity": 67, "note_on_time": 166.289, "note_off_time": 166.949}, {"pitch": 76, "velocity": 69, "note_on_time": 166.923, "note_off_time": 167.597}, {"pitch": 77, "velocity": 66, "note_on_time": 167.546, "note_off_time": 168.184}, {"pitch": 79, "velocity": 58, "note_on_time": 168.116, "note_off_time": 170.16}, {"pitch": 72, "velocity": 53, "note_on_time": 170.597, "note_off_time": 171.207}, {"pitch": 74, "velocity": 63, "note_on_time": 171.186, "note_off_time": 171.799}, {"pitch": 76, "velocity": 70, "note_on_time": 171.798, "note_off_time": 172.438}, {"pitch": 77, "velocity": 59, "note_on_time": 172.39, "note_off_time": 172.969}, {"pitch": 79, "velocity": 73, "note_on_time": 172.968, "note_off_time": 175.116}, {"pitch": 72, "velocity": 56, "note_on_time": 175.476, "note_off_time": 176.099}, {"pitch": 74, "velocity": 64, "note_on_time": 176.072, "note_off_time": 176.729}, {"pitch": 76, "velocity": 63, "note_on_time": 176.693, "note_off_time": 177.325}, {"pitch": 77, "velocity": 57, "note_on_time": 177.289, "note_off_time": 177.917}, {"pitch": 79, "velocity": 66, "note_on_time": 177.882, "note_off_time": 179.684}, {"pitch": 79, "velocity": 62, "note_on_time": 180.287, "note_off_time": 180.946}, {"pitch": 76, "velocity": 42, "note_on_time": 180.954, "note_off_time": 181.352}, {"pitch": 76, "velocity": 52, "note_on_time": 181.726, "note_off_time": 182.195}, {"pitch": 74, "velocity": 61, "note_on_time": 182.179, "note_off_time": 182.803}, {"pitch": 72, "velocity": 57, "note_on_time": 182.762, "note_off_time": 184.758}, {"pitch": 79, "velocity": 56, "note_on_time": 185.225, "note_off_time": 185.847}, {"pitch": 77, "velocity": 52, "note_on_time": 185.842, "note_off_time": 186.486}, {"pitch": 76, "velocity": 60, "note_on_time": 186.418, "note_off_time": 187.08}, {"pitch": 74, "velocity": 68, "note_on_time": 187.055, "note_off_time": 187.696}, {"pitch": 72, "velocity": 55, "note_on_time": 187.651, "note_off_time": 189.608}, {"pitch": 79, "velocity": 62, "note_on_time": 190.064, "note_off_time": 190.715}, {"pitch": 77, "velocity": 73, "note_on_time": 190.699, "note_off_time": 191.356}, {"pitch": 76, "velocity": 58, "note_on_time": 191.316, "note_off_time": 191.948}, {"pitch": 74, "velocity": 62, "note_on_time": 191.902, "note_off_time": 192.564}, {"pitch": 72, "velocity": 46, "note_on_time": 192.51, "note_off_time": 194.494}]</notes><guidance name="Guidance Mode">None</guidance><error name="Error value">99</error></trial><trial trial_no="3" timestamp="2024_03_04-12_12_27"><notes name="Played Notes">[{"pitch": 72, "velocity": 61, "note_on_time": 4.894, "note_off_time": 5.513}, {"pitch": 74, "velocity": 70, "note_on_time": 5.477, "note_off_time": 6.081}, {"pitch": 76, "velocity": 74, "note_on_time": 6.069, "note_off_time": 6.688}, {"pitch": 77, "velocity": 67, "note_on_time": 6.663, "note_off_time": 7.335}, {"pitch": 79, "velocity": 73, "note_on_time": 7.299, "note_off_time": 9.2}, {"pitch": 72, "velocity": 55, "note_on_time": 9.743, "note_off_time": 10.38}, {"pitch": 74, "velocity": 63, "note_on_time": 10.347, "note_off_time": 10.94}, {"pitch": 76, "velocity": 64, "note_on_time": 10.929, "note_off_time": 11.522}, {"pitch": 77, "velocity": 65, "note_on_time": 11.485, "note_off_time": 12.11}, {"pitch": 79, "velocity": 62, "note_on_time": 12.09, "note_off_time": 14.117}, {"pitch": 72, "velocity": 54, "note_on_time": 14.634, "note_off_time": 15.254}, {"pitch": 74, "velocity": 68, "note_on_time": 15.252, "note_off_time": 15.87}, {"pitch": 76, "velocity": 66, "note_on_time": 15.846, "note_off_time": 16.48}, {"pitch": 77, "velocity": 64, "note_on_time": 16.435, "note_off_time": 17.041}, {"pitch": 79, "velocity": 67, "note_on_time": 17.005, "note_off_time": 18.939}, {"pitch": 72, "velocity": 47, "note_on_time": 19.499, "note_off_time": 20.139}, {"pitch": 74, "velocity": 56, "note_on_time": 20.114, "note_off_time": 20.748}, {"pitch": 76, "velocity": 72, "note_on_time": 20.714, "note_off_time": 21.347}, {"pitch": 77, "velocity": 62, "note_on_time": 21.327, "note_off_time": 21.995}, {"pitch": 79, "velocity": 68, "note_on_time": 21.974, "note_off_time": 23.76}, {"pitch": 79, "velocity": 55, "note_on_time": 24.402, "note_off_time": 25.042}, {"pitch": 77, "velocity": 56, "note_on_time": 24.995, "note_off_time": 25.645}, {"pitch": 76, "velocity": 60, "note_on_time": 25.611, "note_off_time": 26.242}, {"pitch": 74, "velocity": 66, "note_on_time": 26.203, "note_off_time": 26.847}, {"pitch": 72, "velocity": 64, "note_on_time": 26.786, "note_off_time": 28.746}, {"pitch": 79, "velocity": 73, "note_on_time": 29.254, "note_off_time": 29.946}, {"pitch": 77, "velocity": 55, "note_on_time": 29.872, "note_off_time": 30.508}, {"pitch": 76, "velocity": 53, "note_on_time": 30.475, "note_off_time": 31.141}, {"pitch": 74, "velocity": 61, "note_on_time": 31.085, "note_off_time": 31.718}, {"pitch": 72, "velocity": 69, "note_on_time": 31.686, "note_off_time": 33.618}, {"pitch": 79, "velocity": 58, "note_on_time": 34.198, "note_off_time": 34.872}, {"pitch": 77, "velocity": 54, "note_on_time": 34.822, "note_off_time": 35.425}, {"pitch": 76, "velocity": 53, "note_on_time": 35.386, "note_off_time": 36.021}, {"pitch": 74, "velocity": 65, "note_on_time": 35.973, "note_off_time": 36.651}, {"pitch": 72, "velocity": 62, "note_on_time": 36.595, "note_off_time": 38.435}, {"pitch": 79, "velocity": 59, "note_on_time": 39.015, "note_off_time": 39.657}, {"pitch": 77, "velocity": 64, "note_on_time": 39.622, "note_off_time": 40.337}, {"pitch": 76, "velocity": 53, "note_on_time": 40.233, "note_off_time": 40.899}, {"pitch": 74, "velocity": 64, "note_on_time": 40.842, "note_off_time": 41.496}, {"pitch": 72, "velocity": 68, "note_on_time": 41.456, "note_off_time": 43.576}, {"pitch": 74, "velocity": 70, "note_on_time": 43.965, "note_off_time": 44.554}, {"pitch": 76, "velocity": 68, "note_on_time": 44.544, "note_off_time": 45.164}, {"pitch": 77, "velocity": 65, "note_on_time": 45.141, "note_off_time": 45.735}, {"pitch": 79, "velocity": 64, "note_on_time": 45.697, "note_off_time": 46.365}, {"pitch": 72, "velocity": 72, "note_on_time": 46.342, "note_off_time": 48.39}, {"pitch": 74, "velocity": 67, "note_on_time": 48.759, "note_off_time": 49.375}, {"pitch": 76, "velocity": 55, "note_on_time": 49.354, "note_off_time": 49.98}, {"pitch": 77, "velocity": 67, "note_on_time": 49.937, "note_off_time": 50.585}, {"pitch": 79, "velocity": 62, "note_on_time": 50.545, "note_off_time": 51.249}, {"pitch": 72, "velocity": 61, "note_on_time": 51.185, "note_off_time": 53.202}, {"pitch": 74, "velocity": 62, "note_on_time": 53.625, "note_off_time": 54.206}, {"pitch": 76, "velocity": 58, "note_on_time": 54.189, "note_off_time": 54.846}, {"pitch": 77, "velocity": 65, "note_on_time": 54.805, "note_off_time": 55.448}, {"pitch": 79, "velocity": 66, "note_on_time": 55.431, "note_off_time": 56.081}, {"pitch": 72, "velocity": 65, "note_on_time": 56.038, "note_off_time": 58.093}, {"pitch": 74, "velocity": 70, "note_on_time": 58.52, "note_off_time": 59.145}, {"pitch": 76, "velocity": 39, "note_on_time": 59.154, "note_off_time": 59.749}, {"pitch": 77, "velocity": 65, "note_on_time": 59.713, "note_off_time": 60.37}, {"pitch": 79, "velocity": 65, "note_on_time": 60.321, "note_off_time": 60.999}, {"pitch": 72, "velocity": 61, "note_on_time": 60.922, "note_off_time": 62.878}, {"pitch": 77, "velocity": 60, "note_on_time": 63.38, "note_off_time": 63.965}, {"pitch": 76, "velocity": 63, "note_on_time": 63.925, "note_off_time": 64.578}, {"pitch": 74, "velocity": 67, "note_on_time": 64.534, "note_off_time": 65.181}, {"pitch": 72, "velocity": 64, "note_on_time": 65.133, "note_off_time": 65.813}, {"pitch": 79, "velocity": 64, "note_on_time": 65.755, "note_off_time": 67.642}, {"pitch": 77, "velocity": 65, "note_on_time": 68.224, "note_off_time": 68.866}, {"pitch": 76, "velocity": 67, "note_on_time": 68.832, "note_off_time": 69.486}, {"pitch": 74, "velocity": 68, "note_on_time": 69.435, "note_off_time": 70.089}, {"pitch": 72, "velocity": 57, "note_on_time": 70.025, "note_off_time": 70.715}, {"pitch": 79, "velocity": 58, "note_on_time": 70.643, "note_off_time": 72.604}, {"pitch": 77, "velocity": 63, "note_on_time": 73.094, "note_off_time": 73.735}, {"pitch": 76, "velocity": 60, "note_on_time": 73.703, "note_off_time": 74.377}, {"pitch": 74, "velocity": 64, "note_on_time": 74.321, "note_off_time": 74.938}, {"pitch": 72, "velocity": 53, "note_on_time": 74.879, "note_off_time": 75.6}, {"pitch": 79, "velocity": 60, "note_on_time": 75.548, "note_off_time": 77.574}, {"pitch": 77, "velocity": 69, "note_on_time": 77.975, "note_off_time": 78.603}, {"pitch": 76, "velocity": 61, "note_on_time": 78.578, "note_off_time": 79.209}, {"pitch": 74, "velocity": 60, "note_on_time": 79.181, "note_off_time": 79.842}, {"pitch": 72, "velocity": 58, "note_on_time": 79.789, "note_off_time": 80.472}, {"pitch": 79, "velocity": 60, "note_on_time": 80.386, "note_off_time": 82.314}, {"pitch": 76, "velocity": 67, "note_on_time": 82.879, "note_off_time": 83.483}, {"pitch": 77, "velocity": 56, "note_on_time": 83.47, "note_off_time": 84.011}, {"pitch": 79, "velocity": 66, "note_on_time": 84.0, "note_off_time": 84.679}, {"pitch": 74, "velocity": 61, "note_on_time": 84.617, "note_off_time": 85.263}, {"pitch": 72, "velocity": 70, "note_on_time": 85.228, "note_off_time": 87.223}, {"pitch": 76, "velocity": 61, "note_on_time": 87.75, "note_off_time": 88.331}, {"pitch": 77, "velocity": 70, "note_on_time": 88.323, "note_off_time": 88.928}, {"pitch": 79, "velocity": 61, "note_on_time": 88.926, "note_off_time": 89.653}, {"pitch": 74, "velocity": 59, "note_on_time": 89.554, "note_off_time": 90.227}, {"pitch": 72, "velocity": 65, "note_on_time": 90.191, "note_off_time": 92.134}, {"pitch": 76, "velocity": 65, "note_on_time": 92.598, "note_off_time": 93.233}, {"pitch": 77, "velocity": 65, "note_on_time": 93.21, "note_off_time": 93.86}, {"pitch": 79, "velocity": 67, "note_on_time": 93.842, "note_off_time": 94.488}, {"pitch": 74, "velocity": 60, "note_on_time": 94.445, "note_off_time": 95.11}, {"pitch": 72, "velocity": 59, "note_on_time": 95.048, "note_off_time": 96.915}, {"pitch": 76, "velocity": 58, "note_on_time": 97.463, "note_off_time": 98.073}, {"pitch": 77, "velocity": 75, "note_on_time": 98.039, "note_off_time": 98.639}, {"pitch": 79, "velocity": 53, "note_on_time": 98.638, "note_off_time": 99.3}, {"pitch": 74, "velocity": 63, "note_on_time": 99.229, "note_off_time": 99.935}, {"pitch": 72, "velocity": 61, "note_on_time": 99.867, "note_off_time": 101.782}, {"pitch": 76, "velocity": 58, "note_on_time": 102.34, "note_off_time": 102.995}, {"pitch": 74, "velocity": 74, "note_on_time": 102.942, "note_off_time": 103.665}, {"pitch": 72, "velocity": 62, "note_on_time": 103.579, "note_off_time": 104.276}, {"pitch": 77, "velocity": 63, "note_on_time": 104.149, "note_off_time": 104.773}, {"pitch": 79, "velocity": 72, "note_on_time": 104.747, "note_off_time": 106.684}, {"pitch": 76, "velocity": 51, "note_on_time": 107.281, "note_off_time": 107.902}, {"pitch": 74, "velocity": 72, "note_on_time": 107.838, "note_off_time": 108.504}, {"pitch": 72, "velocity": 69, "note_on_time": 108.454, "note_off_time": 109.361}, {"pitch": 77, "velocity": 54, "note_on_time": 109.061, "note_off_time": 109.704}, {"pitch": 79, "velocity": 70, "note_on_time": 109.655, "note_off_time": 111.442}, {"pitch": 76, "velocity": 62, "note_on_time": 112.086, "note_off_time": 112.735}, {"pitch": 74, "velocity": 70, "note_on_time": 112.683, "note_off_time": 113.323}, {"pitch": 72, "velocity": 59, "note_on_time": 113.28, "note_off_time": 113.942}, {"pitch": 77, "velocity": 68, "note_on_time": 113.883, "note_off_time": 114.508}, {"pitch": 79, "velocity": 77, "note_on_time": 114.51, "note_off_time": 116.399}, {"pitch": 76, "velocity": 69, "note_on_time": 116.918, "note_off_time": 117.584}, {"pitch": 74, "velocity": 64, "note_on_time": 117.521, "note_off_time": 118.167}, {"pitch": 72, "velocity": 64, "note_on_time": 118.125, "note_off_time": 118.824}, {"pitch": 77, "velocity": 62, "note_on_time": 118.76, "note_off_time": 119.388}, {"pitch": 79, "velocity": 72, "note_on_time": 119.366, "note_off_time": 121.035}, {"pitch": 77, "velocity": 66, "note_on_time": 121.804, "note_off_time": 122.393}, {"pitch": 79, "velocity": 66, "note_on_time": 122.388, "note_off_time": 123.062}, {"pitch": 76, "velocity": 59, "note_on_time": 123.01, "note_off_time": 123.672}, {"pitch": 74, "velocity": 66, "note_on_time": 123.619, "note_off_time": 124.286}, {"pitch": 72, "velocity": 63, "note_on_time": 124.244, "note_off_time": 126.182}, {"pitch": 77, "velocity": 75, "note_on_time": 126.721, "note_off_time": 127.272}, {"pitch": 79, "velocity": 70, "note_on_time": 127.263, "note_off_time": 127.954}, {"pitch": 76, "velocity": 57, "note_on_time": 127.924, "note_off_time": 128.611}, {"pitch": 74, "velocity": 65, "note_on_time": 128.548, "note_off_time": 129.205}, {"pitch": 72, "velocity": 48, "note_on_time": 129.155, "note_off_time": 130.988}, {"pitch": 77, "velocity": 73, "note_on_time": 131.554, "note_off_time": 132.158}, {"pitch": 79, "velocity": 64, "note_on_time": 132.158, "note_off_time": 132.808}, {"pitch": 76, "velocity": 57, "note_on_time": 132.799, "note_off_time": 133.447}, {"pitch": 74, "velocity": 62, "note_on_time": 133.394, "note_off_time": 134.073}, {"pitch": 72, "velocity": 62, "note_on_time": 134.016, "note_off_time": 135.895}, {"pitch": 77, "velocity": 67, "note_on_time": 136.439, "note_off_time": 137.014}, {"pitch": 79, "velocity": 64, "note_on_time": 137.014, "note_off_time": 137.697}, {"pitch": 76, "velocity": 51, "note_on_time": 137.672, "note_off_time": 138.305}, {"pitch": 74, "velocity": 64, "note_on_time": 138.271, "note_off_time": 138.955}, {"pitch": 72, "velocity": 62, "note_on_time": 138.908, "note_off_time": 140.757}, {"pitch": 74, "velocity": 67, "note_on_time": 141.334, "note_off_time": 141.955}, {"pitch": 72, "velocity": 62, "note_on_time": 141.9, "note_off_time": 142.555}, {"pitch": 76, "velocity": 66, "note_on_time": 142.509, "note_off_time": 143.152}, {"pitch": 77, "velocity": 60, "note_on_time": 143.12, "note_off_time": 143.734}, {"pitch": 79, "velocity": 72, "note_on_time": 143.717, "note_off_time": 145.535}, {"pitch": 74, "velocity": 56, "note_on_time": 146.182, "note_off_time": 146.805}, {"pitch": 72, "velocity": 57, "note_on_time": 146.762, "note_off_time": 147.484}, {"pitch": 76, "velocity": 59, "note_on_time": 147.406, "note_off_time": 148.035}, {"pitch": 77, "velocity": 64, "note_on_time": 147.99, "note_off_time": 148.619}, {"pitch": 79, "velocity": 72, "note_on_time": 148.598, "note_off_time": 150.494}, {"pitch": 74, "velocity": 60, "note_on_time": 151.06, "note_off_time": 151.706}, {"pitch": 72, "velocity": 52, "note_on_time": 151.645, "note_off_time": 152.3}, {"pitch": 76, "velocity": 58, "note_on_time": 152.253, "note_off_time": 152.908}, {"pitch": 77, "velocity": 64, "note_on_time": 152.838, "note_off_time": 153.489}, {"pitch": 79, "velocity": 66, "note_on_time": 153.468, "note_off_time": 155.334}, {"pitch": 74, "velocity": 52, "note_on_time": 155.933, "note_off_time": 156.562}, {"pitch": 72, "velocity": 61, "note_on_time": 156.514, "note_off_time": 157.16}, {"pitch": 76, "velocity": 64, "note_on_time": 157.112, "note_off_time": 157.762}, {"pitch": 77, "velocity": 69, "note_on_time": 157.719, "note_off_time": 158.396}, {"pitch": 79, "velocity": 69, "note_on_time": 158.353, "note_off_time": 160.259}, {"pitch": 72, "velocity": 50, "note_on_time": 160.755, "note_off_time": 161.459}, {"pitch": 74, "velocity": 66, "note_on_time": 161.372, "note_off_time": 162.021}, {"pitch": 76, "velocity": 65, "note_on_time": 161.992, "note_off_time": 162.609}, {"pitch": 77, "velocity": 57, "note_on_time": 162.568, "note_off_time": 163.228}, {"pitch": 79, "velocity": 52, "note_on_time": 163.176, "note_off_time": 165.425}, {"pitch": 72, "velocity": 35, "note_on_time": 165.644, "note_off_time": 166.275}, {"pitch": 74, "velocity": 58, "note_on_time": 166.227, "note_off_time": 166.859}, {"pitch": 76, "velocity": 76, "note_on_time": 166.836, "note_off_time": 167.524}, {"pitch": 77, "velocity": 62, "note_on_time": 167.46, "note_off_time": 168.125}, {"pitch": 79, "velocity": 67, "note_on_time": 168.075, "note_off_time": 169.999}, {"pitch": 72, "velocity": 56, "note_on_time": 170.536, "note_off_time": 171.199}, {"pitch": 74, "velocity": 62, "note_on_time": 171.143, "note_off_time": 171.805}, {"pitch": 76, "velocity": 68, "note_on_time": 171.767, "note_off_time": 172.383}, {"pitch": 77, "velocity": 58, "note_on_time": 172.327, "note_off_time": 172.991}, {"pitch": 79, "velocity": 61, "note_on_time": 172.922, "note_off_time": 174.867}, {"pitch": 72, "velocity": 49, "note_on_time": 175.374, "note_off_time": 176.096}, {"pitch": 74, "velocity": 57, "note_on_time": 176.0, "note_off_time": 176.639}, {"pitch": 76, "velocity": 62, "note_on_time": 176.608, "note_off_time": 177.311}, {"pitch": 77, "velocity": 58, "note_on_time": 177.209, "note_off_time": 177.89}, {"pitch": 79, "velocity": 57, "note_on_time": 177.797, "note_off_time": 179.701}, {"pitch": 79, "velocity": 40, "note_on_time": 180.271, "note_off_time": 180.923}, {"pitch": 77, "velocity": 56, "note_on_time": 180.862, "note_off_time": 181.502}, {"pitch": 76, "velocity": 55, "note_on_time": 181.456, "note_off_time": 182.128}, {"pitch": 74, "velocity": 64, "note_on_time": 182.04, "note_off_time": 182.731}, {"pitch": 72, "velocity": 66, "note_on_time": 182.668, "note_off_time": 184.538}, {"pitch": 79, "velocity": 55, "note_on_time": 185.143, "note_off_time": 185.809}, {"pitch": 77, "velocity": 60, "note_on_time": 185.745, "note_off_time": 186.449}, {"pitch": 76, "velocity": 51, "note_on_time": 186.357, "note_off_time": 186.973}, {"pitch": 74, "velocity": 67, "note_on_time": 186.949, "note_off_time": 187.625}, {"pitch": 72, "velocity": 55, "note_on_time": 187.569, "note_off_time": 189.523}, {"pitch": 79, "velocity": 67, "note_on_time": 189.955, "note_off_time": 190.602}, {"pitch": 77, "velocity": 69, "note_on_time": 190.574, "note_off_time": 191.236}, {"pitch": 76, "velocity": 60, "note_on_time": 191.182, "note_off_time": 191.838}, {"pitch": 74, "velocity": 64, "note_on_time": 191.772, "note_off_time": 192.454}, {"pitch": 72, "velocity": 53, "note_on_time": 192.396, "note_off_time": 194.366}]</notes><guidance name="Guidance Mode">None</guidance><error name="Error value">99</error></trial></trials></MIDI>