<MIDI midiNo="2024_02_26-17_42_30"><target_notes><notes name="Note List">[{"pitch": 60, "velocity": 40, "note_on_time": 0.01, "note_off_time": 1.025}, {"pitch": 64, "velocity": 40, "note_on_time": 0.01, "note_off_time": 1.026}, {"pitch": 67, "velocity": 40, "note_on_time": 0.01, "note_off_time": 1.027}, {"pitch": 48, "velocity": 40, "note_on_time": 0.01, "note_off_time": 1.027}, {"pitch": 52, "velocity": 40, "note_on_time": 1.027, "note_off_time": 2.039}, {"pitch": 55, "velocity": 40, "note_on_time": 1.027, "note_off_time": 2.039}, {"pitch": 76, "velocity": 40, "note_on_time": 2.039, "note_off_time": 3.047}, {"pitch": 48, "velocity": 40, "note_on_time": 2.039, "note_off_time": 3.047}, {"pitch": 52, "velocity": 40, "note_on_time": 3.047, "note_off_time": 4.049}, {"pitch": 55, "velocity": 40, "note_on_time": 3.047, "note_off_time": 4.049}, {"pitch": 48, "velocity": 40, "note_on_time": 4.049, "note_off_time": 5.052}, {"pitch": 52, "velocity": 40, "note_on_time": 5.052, "note_off_time": 6.056}, {"pitch": 55, "velocity": 40, "note_on_time": 5.052, "note_off_time": 6.056}, {"pitch": 48, "velocity": 40, "note_on_time": 6.056, "note_off_time": 7.059}, {"pitch": 52, "velocity": 40, "note_on_time": 7.059, "note_off_time": 8.066}, {"pitch": 55, "velocity": 40, "note_on_time": 7.059, "note_off_time": 8.066}, {"pitch": 60, "velocity": 40, "note_on_time": 8.064, "note_off_time": 9.069}, {"pitch": 64, "velocity": 40, "note_on_time": 8.066, "note_off_time": 9.07}, {"pitch": 67, "velocity": 40, "note_on_time": 8.066, "note_off_time": 9.071}, {"pitch": 48, "velocity": 40, "note_on_time": 8.066, "note_off_time": 9.071}, {"pitch": 52, "velocity": 40, "note_on_time": 9.071, "note_off_time": 10.074}, {"pitch": 55, "velocity": 40, "note_on_time": 9.071, "note_off_time": 10.074}, {"pitch": 74, "velocity": 40, "note_on_time": 10.073, "note_off_time": 11.081}, {"pitch": 48, "velocity": 40, "note_on_time": 10.074, "note_off_time": 11.081}, {"pitch": 52, "velocity": 40, "note_on_time": 11.081, "note_off_time": 12.083}, {"pitch": 55, "velocity": 40, "note_on_time": 11.081, "note_off_time": 12.083}, {"pitch": 48, "velocity": 40, "note_on_time": 12.083, "note_off_time": 13.087}, {"pitch": 52, "velocity": 40, "note_on_time": 13.087, "note_off_time": 14.098}, {"pitch": 55, "velocity": 40, "note_on_time": 13.087, "note_off_time": 14.098}, {"pitch": 48, "velocity": 40, "note_on_time": 14.098, "note_off_time": 15.108}, {"pitch": 52, "velocity": 40, "note_on_time": 15.108, "note_off_time": 16.113}, {"pitch": 55, "velocity": 40, "note_on_time": 15.108, "note_off_time": 16.113}, {"pitch": 60, "velocity": 40, "note_on_time": 16.111, "note_off_time": 17.117}, {"pitch": 64, "velocity": 40, "note_on_time": 16.112, "note_off_time": 17.117}, {"pitch": 67, "velocity": 40, "note_on_time": 16.112, "note_off_time": 17.118}, {"pitch": 48, "velocity": 40, "note_on_time": 16.113, "note_off_time": 17.118}, {"pitch": 52, "velocity": 40, "note_on_time": 17.118, "note_off_time": 18.124}, {"pitch": 55, "velocity": 40, "note_on_time": 17.118, "note_off_time": 18.124}, {"pitch": 72, "velocity": 40, "note_on_time": 18.124, "note_off_time": 19.132}, {"pitch": 48, "velocity": 40, "note_on_time": 18.124, "note_off_time": 19.132}, {"pitch": 52, "velocity": 40, "note_on_time": 19.132, "note_off_time": 20.136}, {"pitch": 55, "velocity": 40, "note_on_time": 19.132, "note_off_time": 20.136}, {"pitch": 48, "velocity": 40, "note_on_time": 20.136, "note_off_time": 21.143}, {"pitch": 52, "velocity": 40, "note_on_time": 21.143, "note_off_time": 22.155}, {"pitch": 55, "velocity": 40, "note_on_time": 21.143, "note_off_time": 22.155}, {"pitch": 48, "velocity": 40, "note_on_time": 22.155, "note_off_time": 23.157}, {"pitch": 52, "velocity": 40, "note_on_time": 23.157, "note_off_time": 24.162}, {"pitch": 55, "velocity": 40, "note_on_time": 23.157, "note_off_time": 24.162}, {"pitch": 60, "velocity": 40, "note_on_time": 24.16, "note_off_time": 25.175}, {"pitch": 64, "velocity": 40, "note_on_time": 24.161, "note_off_time": 25.176}, {"pitch": 67, "velocity": 40, "note_on_time": 24.162, "note_off_time": 25.177}, {"pitch": 48, "velocity": 40, "note_on_time": 24.162, "note_off_time": 25.177}, {"pitch": 52, "velocity": 40, "note_on_time": 25.177, "note_off_time": 26.193}, {"pitch": 55, "velocity": 40, "note_on_time": 25.177, "note_off_time": 26.193}, {"pitch": 76, "velocity": 40, "note_on_time": 26.193, "note_off_time": 27.208}, {"pitch": 48, "velocity": 40, "note_on_time": 26.193, "note_off_time": 27.209}, {"pitch": 52, "velocity": 40, "note_on_time": 27.209, "note_off_time": 28.211}, {"pitch": 55, "velocity": 40, "note_on_time": 27.209, "note_off_time": 28.211}, {"pitch": 48, "velocity": 40, "note_on_time": 28.211, "note_off_time": 29.227}, {"pitch": 52, "velocity": 40, "note_on_time": 29.227, "note_off_time": 30.235}, {"pitch": 55, "velocity": 40, "note_on_time": 29.227, "note_off_time": 30.235}, {"pitch": 48, "velocity": 40, "note_on_time": 30.235, "note_off_time": 31.237}, {"pitch": 52, "velocity": 40, "note_on_time": 31.237, "note_off_time": 32.252}, {"pitch": 55, "velocity": 40, "note_on_time": 31.237, "note_off_time": 32.252}, {"pitch": 60, "velocity": 40, "note_on_time": 32.25, "note_off_time": 33.253}, {"pitch": 64, "velocity": 40, "note_on_time": 32.251, "note_off_time": 33.254}, {"pitch": 67, "velocity": 40, "note_on_time": 32.251, "note_off_time": 33.255}, {"pitch": 48, "velocity": 40, "note_on_time": 32.252, "note_off_time": 33.255}, {"pitch": 52, "velocity": 40, "note_on_time": 33.255, "note_off_time": 34.257}, {"pitch": 55, "velocity": 40, "note_on_time": 33.255, "note_off_time": 34.258}, {"pitch": 77, "velocity": 40, "note_on_time": 34.257, "note_off_time": 35.262}, {"pitch": 48, "velocity": 40, "note_on_time": 34.258, "note_off_time": 35.263}, {"pitch": 52, "velocity": 40, "note_on_time": 35.263, "note_off_time": 36.275}, {"pitch": 55, "velocity": 40, "note_on_time": 35.263, "note_off_time": 36.275}, {"pitch": 48, "velocity": 40, "note_on_time": 36.275, "note_off_time": 37.277}, {"pitch": 52, "velocity": 40, "note_on_time": 37.277, "note_off_time": 38.282}, {"pitch": 55, "velocity": 40, "note_on_time": 37.277, "note_off_time": 38.282}, {"pitch": 48, "velocity": 40, "note_on_time": 38.282, "note_off_time": 39.286}, {"pitch": 52, "velocity": 40, "note_on_time": 39.286, "note_off_time": 40.29}, {"pitch": 55, "velocity": 40, "note_on_time": 39.286, "note_off_time": 40.29}, {"pitch": 60, "velocity": 40, "note_on_time": 40.288, "note_off_time": 41.293}, {"pitch": 64, "velocity": 40, "note_on_time": 40.29, "note_off_time": 41.293}, {"pitch": 67, "velocity": 40, "note_on_time": 40.29, "note_off_time": 41.294}, {"pitch": 79, "velocity": 40, "note_on_time": 42.306, "note_off_time": 43.314}, {"pitch": 60, "velocity": 40, "note_on_time": 48.315, "note_off_time": 49.326}, {"pitch": 64, "velocity": 40, "note_on_time": 48.316, "note_off_time": 49.327}, {"pitch": 67, "velocity": 40, "note_on_time": 48.317, "note_off_time": 49.327}, {"pitch": 74, "velocity": 40, "note_on_time": 50.335, "note_off_time": 51.339}, {"pitch": 60, "velocity": 40, "note_on_time": 56.35, "note_off_time": 57.358}, {"pitch": 64, "velocity": 40, "note_on_time": 56.351, "note_off_time": 57.359}, {"pitch": 67, "velocity": 40, "note_on_time": 56.351, "note_off_time": 57.359}, {"pitch": 79, "velocity": 40, "note_on_time": 58.368, "note_off_time": 59.377}, {"pitch": 60, "velocity": 40, "note_on_time": 64.393, "note_off_time": 65.398}, {"pitch": 64, "velocity": 40, "note_on_time": 64.394, "note_off_time": 65.399}, {"pitch": 67, "velocity": 40, "note_on_time": 64.395, "note_off_time": 65.4}, {"pitch": 74, "velocity": 40, "note_on_time": 66.414, "note_off_time": 67.428}, {"pitch": 60, "velocity": 40, "note_on_time": 72.436, "note_off_time": 73.445}, {"pitch": 64, "velocity": 40, "note_on_time": 72.436, "note_off_time": 73.446}, {"pitch": 67, "velocity": 40, "note_on_time": 72.436, "note_off_time": 73.446}, {"pitch": 77, "velocity": 40, "note_on_time": 74.456, "note_off_time": 75.465}, {"pitch": 60, "velocity": 40, "note_on_time": 80.476, "note_off_time": 81.478}, {"pitch": 64, "velocity": 40, "note_on_time": 80.476, "note_off_time": 81.479}, {"pitch": 67, "velocity": 40, "note_on_time": 80.477, "note_off_time": 81.48}, {"pitch": 76, "velocity": 40, "note_on_time": 82.493, "note_off_time": 83.507}, {"pitch": 60, "velocity": 40, "note_on_time": 88.509, "note_off_time": 89.522}, {"pitch": 64, "velocity": 40, "note_on_time": 88.51, "note_off_time": 89.523}, {"pitch": 67, "velocity": 40, "note_on_time": 88.51, "note_off_time": 89.524}, {"pitch": 77, "velocity": 40, "note_on_time": 90.536, "note_off_time": 91.539}, {"pitch": 60, "velocity": 40, "note_on_time": 96.545, "note_off_time": 97.553}, {"pitch": 64, "velocity": 40, "note_on_time": 96.546, "note_off_time": 97.554}, {"pitch": 67, "velocity": 40, "note_on_time": 96.547, "note_off_time": 97.554}, {"pitch": 79, "velocity": 40, "note_on_time": 98.557, "note_off_time": 99.572}, {"pitch": 60, "velocity": 40, "note_on_time": 104.579, "note_off_time": 105.593}, {"pitch": 64, "velocity": 40, "note_on_time": 104.579, "note_off_time": 105.594}, {"pitch": 67, "velocity": 40, "note_on_time": 104.579, "note_off_time": 105.595}, {"pitch": 76, "velocity": 40, "note_on_time": 106.603, "note_off_time": 107.605}, {"pitch": 60, "velocity": 40, "note_on_time": 112.616, "note_off_time": 113.632}, {"pitch": 64, "velocity": 40, "note_on_time": 112.617, "note_off_time": 113.633}, {"pitch": 67, "velocity": 40, "note_on_time": 112.617, "note_off_time": 113.633}, {"pitch": 72, "velocity": 40, "note_on_time": 114.64, "note_off_time": 115.656}, {"pitch": 60, "velocity": 40, "note_on_time": 120.661, "note_off_time": 121.665}, {"pitch": 64, "velocity": 40, "note_on_time": 120.661, "note_off_time": 121.666}, {"pitch": 67, "velocity": 40, "note_on_time": 120.662, "note_off_time": 121.667}, {"pitch": 74, "velocity": 40, "note_on_time": 122.682, "note_off_time": 123.686}, {"pitch": 60, "velocity": 40, "note_on_time": 128.698, "note_off_time": 129.71}, {"pitch": 64, "velocity": 40, "note_on_time": 128.699, "note_off_time": 129.711}, {"pitch": 67, "velocity": 40, "note_on_time": 128.699, "note_off_time": 129.711}, {"pitch": 77, "velocity": 40, "note_on_time": 130.727, "note_off_time": 131.731}, {"pitch": 60, "velocity": 40, "note_on_time": 136.736, "note_off_time": 137.75}, {"pitch": 64, "velocity": 40, "note_on_time": 136.737, "note_off_time": 137.752}, {"pitch": 67, "velocity": 40, "note_on_time": 136.737, "note_off_time": 137.752}, {"pitch": 72, "velocity": 40, "note_on_time": 138.756, "note_off_time": 139.758}, {"pitch": 60, "velocity": 40, "note_on_time": 144.77, "note_off_time": 145.784}, {"pitch": 64, "velocity": 40, "note_on_time": 144.77, "note_off_time": 145.785}, {"pitch": 67, "velocity": 40, "note_on_time": 144.771, "note_off_time": 145.785}, {"pitch": 79, "velocity": 40, "note_on_time": 146.791, "note_off_time": 147.794}, {"pitch": 60, "velocity": 40, "note_on_time": 152.798, "note_off_time": 153.802}, {"pitch": 64, "velocity": 40, "note_on_time": 152.799, "note_off_time": 153.802}, {"pitch": 67, "velocity": 40, "note_on_time": 152.799, "note_off_time": 153.803}, {"pitch": 72, "velocity": 40, "note_on_time": 154.808, "note_off_time": 155.824}, {"pitch": 60, "velocity": 40, "note_on_time": 160.825, "note_off_time": 161.838}, {"pitch": 64, "velocity": 40, "note_on_time": 160.825, "note_off_time": 161.839}, {"pitch": 67, "velocity": 40, "note_on_time": 160.825, "note_off_time": 161.84}, {"pitch": 76, "velocity": 40, "note_on_time": 162.854, "note_off_time": 163.864}]</notes><options name="Option List">((4, 4), [0.5, 0.25], 3, 8, &lt;NoteRangePerHand.TWO_NOTES: 3&gt;, &lt;NoteRangePerHand.ONE_NOTE: 2&gt;, False, True, True, 100)</options></target_notes><trials><trial trial_no="1" timestamp="2024_02_26-17_39_47"><notes name="Played Notes">[{"pitch": 76, "velocity": 77, "note_on_time": 2.114, "note_off_time": 2.346}, {"pitch": 72, "velocity": 78, "note_on_time": 2.103, "note_off_time": 2.404}, {"pitch": 76, "velocity": 66, "note_on_time": 12.266, "note_off_time": 13.699}, {"pitch": 74, "velocity": 34, "note_on_time": 15.833, "note_off_time": 16.606}, {"pitch": 77, "velocity": 69, "note_on_time": 20.268, "note_off_time": 21.257}, {"pitch": 72, "velocity": 61, "note_on_time": 27.462, "note_off_time": 28.851}, {"pitch": 77, "velocity": 69, "note_on_time": 35.992, "note_off_time": 37.51}, {"pitch": 79, "velocity": 62, "note_on_time": 44.093, "note_off_time": 45.972}, {"pitch": 72, "velocity": 67, "note_on_time": 51.752, "note_off_time": 52.963}, {"pitch": 77, "velocity": 47, "note_on_time": 60.295, "note_off_time": 61.549}, {"pitch": 79, "velocity": 55, "note_on_time": 63.387, "note_off_time": 64.236}, {"pitch": 72, "velocity": 47, "note_on_time": 68.167, "note_off_time": 69.867}, {"pitch": 74, "velocity": 57, "note_on_time": 76.085, "note_off_time": 76.98}, {"pitch": 77, "velocity": 43, "note_on_time": 80.941, "note_off_time": 81.308}, {"pitch": 74, "velocity": 68, "note_on_time": 84.906, "note_off_time": 85.998}, {"pitch": 79, "velocity": 53, "note_on_time": 91.994, "note_off_time": 93.181}, {"pitch": 79, "velocity": 44, "note_on_time": 100.242, "note_off_time": 101.172}, {"pitch": 72, "velocity": 66, "note_on_time": 108.537, "note_off_time": 109.217}, {"pitch": 74, "velocity": 26, "note_on_time": 110.737, "note_off_time": 111.211}, {"pitch": 76, "velocity": 40, "note_on_time": 116.569, "note_off_time": 117.461}, {"pitch": 72, "velocity": 58, "note_on_time": 125.071, "note_off_time": 126.217}, {"pitch": 79, "velocity": 20, "note_on_time": 132.194, "note_off_time": 132.941}, {"pitch": 77, "velocity": 51, "note_on_time": 135.94, "note_off_time": 136.461}, {"pitch": 72, "velocity": 49, "note_on_time": 140.293, "note_off_time": 141.066}, {"pitch": 76, "velocity": 69, "note_on_time": 150.38, "note_off_time": 151.196}, {"pitch": 79, "velocity": 51, "note_on_time": 158.157, "note_off_time": 158.957}]</notes><guidance name="Guidance Mode">None</guidance><error name="Error value">99</error></trial></trials></MIDI>