<MIDI midiNo="2024_02_26-14_56_29"><target_notes><notes name="Note List">[{"pitch": 60, "velocity": 40, "note_on_time": 0.01, "note_off_time": 1.019}, {"pitch": 64, "velocity": 40, "note_on_time": 0.01, "note_off_time": 1.02}, {"pitch": 67, "velocity": 40, "note_on_time": 0.01, "note_off_time": 1.021}, {"pitch": 48, "velocity": 40, "note_on_time": 0.01, "note_off_time": 1.021}, {"pitch": 52, "velocity": 40, "note_on_time": 1.022, "note_off_time": 2.035}, {"pitch": 55, "velocity": 40, "note_on_time": 1.022, "note_off_time": 2.036}, {"pitch": 76, "velocity": 40, "note_on_time": 2.035, "note_off_time": 3.044}, {"pitch": 48, "velocity": 40, "note_on_time": 2.036, "note_off_time": 3.044}, {"pitch": 52, "velocity": 40, "note_on_time": 3.044, "note_off_time": 4.049}, {"pitch": 55, "velocity": 40, "note_on_time": 3.044, "note_off_time": 4.049}, {"pitch": 48, "velocity": 40, "note_on_time": 4.049, "note_off_time": 5.062}, {"pitch": 52, "velocity": 40, "note_on_time": 5.062, "note_off_time": 6.077}, {"pitch": 55, "velocity": 40, "note_on_time": 5.062, "note_off_time": 6.077}, {"pitch": 48, "velocity": 40, "note_on_time": 6.077, "note_off_time": 7.08}, {"pitch": 52, "velocity": 40, "note_on_time": 7.08, "note_off_time": 8.085}, {"pitch": 55, "velocity": 40, "note_on_time": 7.08, "note_off_time": 8.085}, {"pitch": 60, "velocity": 40, "note_on_time": 8.084, "note_off_time": 9.095}, {"pitch": 64, "velocity": 40, "note_on_time": 8.085, "note_off_time": 9.096}, {"pitch": 67, "velocity": 40, "note_on_time": 8.085, "note_off_time": 9.097}, {"pitch": 48, "velocity": 40, "note_on_time": 8.085, "note_off_time": 9.097}, {"pitch": 52, "velocity": 40, "note_on_time": 9.097, "note_off_time": 10.111}, {"pitch": 55, "velocity": 40, "note_on_time": 9.097, "note_off_time": 10.112}, {"pitch": 77, "velocity": 40, "note_on_time": 10.111, "note_off_time": 11.114}, {"pitch": 48, "velocity": 40, "note_on_time": 10.112, "note_off_time": 11.115}, {"pitch": 52, "velocity": 40, "note_on_time": 11.115, "note_off_time": 12.117}, {"pitch": 55, "velocity": 40, "note_on_time": 11.115, "note_off_time": 12.117}, {"pitch": 48, "velocity": 40, "note_on_time": 12.117, "note_off_time": 13.121}, {"pitch": 52, "velocity": 40, "note_on_time": 13.121, "note_off_time": 14.122}, {"pitch": 55, "velocity": 40, "note_on_time": 13.121, "note_off_time": 14.122}, {"pitch": 48, "velocity": 40, "note_on_time": 14.122, "note_off_time": 15.134}, {"pitch": 52, "velocity": 40, "note_on_time": 15.134, "note_off_time": 16.139}, {"pitch": 55, "velocity": 40, "note_on_time": 15.134, "note_off_time": 16.139}, {"pitch": 60, "velocity": 40, "note_on_time": 16.138, "note_off_time": 17.145}, {"pitch": 64, "velocity": 40, "note_on_time": 16.138, "note_off_time": 17.146}, {"pitch": 67, "velocity": 40, "note_on_time": 16.139, "note_off_time": 17.147}, {"pitch": 48, "velocity": 40, "note_on_time": 16.139, "note_off_time": 17.147}, {"pitch": 52, "velocity": 40, "note_on_time": 17.147, "note_off_time": 18.152}, {"pitch": 55, "velocity": 40, "note_on_time": 17.147, "note_off_time": 18.153}, {"pitch": 79, "velocity": 40, "note_on_time": 18.152, "note_off_time": 19.162}, {"pitch": 48, "velocity": 40, "note_on_time": 18.153, "note_off_time": 19.163}, {"pitch": 52, "velocity": 40, "note_on_time": 19.163, "note_off_time": 20.164}, {"pitch": 55, "velocity": 40, "note_on_time": 19.163, "note_off_time": 20.164}, {"pitch": 48, "velocity": 40, "note_on_time": 20.164, "note_off_time": 21.174}, {"pitch": 52, "velocity": 40, "note_on_time": 21.174, "note_off_time": 22.178}, {"pitch": 55, "velocity": 40, "note_on_time": 21.174, "note_off_time": 22.178}, {"pitch": 48, "velocity": 40, "note_on_time": 22.178, "note_off_time": 23.182}, {"pitch": 52, "velocity": 40, "note_on_time": 23.182, "note_off_time": 24.194}, {"pitch": 55, "velocity": 40, "note_on_time": 23.182, "note_off_time": 24.194}, {"pitch": 60, "velocity": 40, "note_on_time": 24.192, "note_off_time": 25.209}, {"pitch": 64, "velocity": 40, "note_on_time": 24.193, "note_off_time": 25.209}, {"pitch": 67, "velocity": 40, "note_on_time": 24.194, "note_off_time": 25.21}, {"pitch": 48, "velocity": 40, "note_on_time": 24.194, "note_off_time": 25.21}, {"pitch": 52, "velocity": 40, "note_on_time": 25.21, "note_off_time": 26.219}, {"pitch": 55, "velocity": 40, "note_on_time": 25.21, "note_off_time": 26.22}, {"pitch": 74, "velocity": 40, "note_on_time": 26.219, "note_off_time": 27.226}, {"pitch": 48, "velocity": 40, "note_on_time": 26.22, "note_off_time": 27.226}, {"pitch": 52, "velocity": 40, "note_on_time": 27.227, "note_off_time": 28.235}, {"pitch": 55, "velocity": 40, "note_on_time": 27.227, "note_off_time": 28.235}, {"pitch": 48, "velocity": 40, "note_on_time": 28.235, "note_off_time": 29.238}, {"pitch": 52, "velocity": 40, "note_on_time": 29.238, "note_off_time": 30.254}, {"pitch": 55, "velocity": 40, "note_on_time": 29.238, "note_off_time": 30.254}, {"pitch": 48, "velocity": 40, "note_on_time": 30.254, "note_off_time": 31.257}, {"pitch": 52, "velocity": 40, "note_on_time": 31.257, "note_off_time": 32.26}, {"pitch": 55, "velocity": 40, "note_on_time": 31.257, "note_off_time": 32.26}, {"pitch": 60, "velocity": 40, "note_on_time": 32.259, "note_off_time": 33.264}, {"pitch": 64, "velocity": 40, "note_on_time": 32.259, "note_off_time": 33.264}, {"pitch": 67, "velocity": 40, "note_on_time": 32.26, "note_off_time": 33.265}, {"pitch": 48, "velocity": 40, "note_on_time": 32.26, "note_off_time": 33.265}, {"pitch": 52, "velocity": 40, "note_on_time": 33.265, "note_off_time": 34.267}, {"pitch": 55, "velocity": 40, "note_on_time": 33.266, "note_off_time": 34.267}, {"pitch": 72, "velocity": 40, "note_on_time": 34.267, "note_off_time": 35.269}, {"pitch": 48, "velocity": 40, "note_on_time": 34.267, "note_off_time": 35.27}, {"pitch": 52, "velocity": 40, "note_on_time": 35.27, "note_off_time": 36.276}, {"pitch": 55, "velocity": 40, "note_on_time": 35.27, "note_off_time": 36.276}, {"pitch": 48, "velocity": 40, "note_on_time": 36.276, "note_off_time": 37.29}, {"pitch": 52, "velocity": 40, "note_on_time": 37.29, "note_off_time": 38.306}, {"pitch": 55, "velocity": 40, "note_on_time": 37.29, "note_off_time": 38.306}, {"pitch": 48, "velocity": 40, "note_on_time": 38.306, "note_off_time": 39.313}, {"pitch": 52, "velocity": 40, "note_on_time": 39.313, "note_off_time": 40.324}, {"pitch": 55, "velocity": 40, "note_on_time": 39.313, "note_off_time": 40.324}, {"pitch": 60, "velocity": 40, "note_on_time": 40.323, "note_off_time": 41.334}, {"pitch": 64, "velocity": 40, "note_on_time": 40.323, "note_off_time": 41.334}, {"pitch": 67, "velocity": 40, "note_on_time": 40.324, "note_off_time": 41.335}, {"pitch": 77, "velocity": 40, "note_on_time": 42.342, "note_off_time": 43.358}, {"pitch": 60, "velocity": 40, "note_on_time": 48.368, "note_off_time": 49.38}, {"pitch": 64, "velocity": 40, "note_on_time": 48.368, "note_off_time": 49.381}, {"pitch": 67, "velocity": 40, "note_on_time": 48.369, "note_off_time": 49.381}, {"pitch": 76, "velocity": 40, "note_on_time": 50.389, "note_off_time": 51.395}, {"pitch": 60, "velocity": 40, "note_on_time": 56.402, "note_off_time": 57.409}, {"pitch": 64, "velocity": 40, "note_on_time": 56.402, "note_off_time": 57.409}, {"pitch": 67, "velocity": 40, "note_on_time": 56.403, "note_off_time": 57.41}, {"pitch": 72, "velocity": 40, "note_on_time": 58.417, "note_off_time": 59.432}, {"pitch": 60, "velocity": 40, "note_on_time": 64.442, "note_off_time": 65.446}, {"pitch": 64, "velocity": 40, "note_on_time": 64.443, "note_off_time": 65.447}, {"pitch": 67, "velocity": 40, "note_on_time": 64.444, "note_off_time": 65.448}, {"pitch": 79, "velocity": 40, "note_on_time": 66.454, "note_off_time": 67.468}, {"pitch": 60, "velocity": 40, "note_on_time": 72.483, "note_off_time": 73.487}, {"pitch": 64, "velocity": 40, "note_on_time": 72.483, "note_off_time": 73.488}, {"pitch": 67, "velocity": 40, "note_on_time": 72.484, "note_off_time": 73.489}, {"pitch": 77, "velocity": 40, "note_on_time": 74.494, "note_off_time": 75.498}, {"pitch": 60, "velocity": 40, "note_on_time": 80.513, "note_off_time": 81.526}, {"pitch": 64, "velocity": 40, "note_on_time": 80.514, "note_off_time": 81.527}, {"pitch": 67, "velocity": 40, "note_on_time": 80.514, "note_off_time": 81.528}, {"pitch": 72, "velocity": 40, "note_on_time": 82.533, "note_off_time": 83.544}, {"pitch": 60, "velocity": 40, "note_on_time": 88.554, "note_off_time": 89.559}, {"pitch": 64, "velocity": 40, "note_on_time": 88.555, "note_off_time": 89.56}, {"pitch": 67, "velocity": 40, "note_on_time": 88.555, "note_off_time": 89.561}, {"pitch": 74, "velocity": 40, "note_on_time": 90.576, "note_off_time": 91.581}, {"pitch": 60, "velocity": 40, "note_on_time": 96.594, "note_off_time": 97.6}, {"pitch": 64, "velocity": 40, "note_on_time": 96.595, "note_off_time": 97.601}, {"pitch": 67, "velocity": 40, "note_on_time": 96.596, "note_off_time": 97.602}, {"pitch": 79, "velocity": 40, "note_on_time": 98.604, "note_off_time": 99.612}, {"pitch": 60, "velocity": 40, "note_on_time": 104.618, "note_off_time": 105.632}, {"pitch": 64, "velocity": 40, "note_on_time": 104.619, "note_off_time": 105.634}, {"pitch": 67, "velocity": 40, "note_on_time": 104.619, "note_off_time": 105.634}, {"pitch": 72, "velocity": 40, "note_on_time": 106.649, "note_off_time": 107.664}, {"pitch": 60, "velocity": 40, "note_on_time": 112.674, "note_off_time": 113.682}, {"pitch": 64, "velocity": 40, "note_on_time": 112.675, "note_off_time": 113.683}, {"pitch": 67, "velocity": 40, "note_on_time": 112.675, "note_off_time": 113.683}, {"pitch": 77, "velocity": 40, "note_on_time": 114.69, "note_off_time": 115.704}, {"pitch": 60, "velocity": 40, "note_on_time": 120.71, "note_off_time": 121.716}, {"pitch": 64, "velocity": 40, "note_on_time": 120.711, "note_off_time": 121.717}, {"pitch": 67, "velocity": 40, "note_on_time": 120.711, "note_off_time": 121.718}, {"pitch": 76, "velocity": 40, "note_on_time": 122.727, "note_off_time": 123.738}, {"pitch": 60, "velocity": 40, "note_on_time": 128.749, "note_off_time": 129.757}, {"pitch": 64, "velocity": 40, "note_on_time": 128.75, "note_off_time": 129.757}, {"pitch": 67, "velocity": 40, "note_on_time": 128.751, "note_off_time": 129.758}, {"pitch": 74, "velocity": 40, "note_on_time": 130.773, "note_off_time": 131.785}, {"pitch": 60, "velocity": 40, "note_on_time": 136.8, "note_off_time": 137.803}, {"pitch": 64, "velocity": 40, "note_on_time": 136.8, "note_off_time": 137.804}, {"pitch": 67, "velocity": 40, "note_on_time": 136.801, "note_off_time": 137.804}, {"pitch": 76, "velocity": 40, "note_on_time": 138.812, "note_off_time": 139.816}, {"pitch": 60, "velocity": 40, "note_on_time": 144.826, "note_off_time": 145.832}, {"pitch": 64, "velocity": 40, "note_on_time": 144.826, "note_off_time": 145.832}, {"pitch": 67, "velocity": 40, "note_on_time": 144.826, "note_off_time": 145.833}, {"pitch": 79, "velocity": 40, "note_on_time": 146.844, "note_off_time": 147.849}, {"pitch": 60, "velocity": 40, "note_on_time": 152.856, "note_off_time": 153.871}, {"pitch": 64, "velocity": 40, "note_on_time": 152.857, "note_off_time": 153.872}, {"pitch": 67, "velocity": 40, "note_on_time": 152.858, "note_off_time": 153.873}, {"pitch": 74, "velocity": 40, "note_on_time": 154.883, "note_off_time": 155.885}, {"pitch": 60, "velocity": 40, "note_on_time": 160.898, "note_off_time": 161.912}, {"pitch": 64, "velocity": 40, "note_on_time": 160.899, "note_off_time": 161.913}, {"pitch": 67, "velocity": 40, "note_on_time": 160.899, "note_off_time": 161.913}, {"pitch": 76, "velocity": 40, "note_on_time": 162.917, "note_off_time": 163.933}]</notes><options name="Option List">((4, 4), [0.5, 0.25], 3, 8, &lt;NoteRangePerHand.TWO_NOTES: 3&gt;, &lt;NoteRangePerHand.ONE_NOTE: 2&gt;, False, True, True, 100)</options></target_notes><trials><trial trial_no="1" timestamp="2024_02_26-14_53_45"><notes name="Played Notes">[{"pitch": 74, "velocity": 50, "note_on_time": 3.619, "note_off_time": 3.859}, {"pitch": 74, "velocity": 34, "note_on_time": 12.25, "note_off_time": 12.634}, {"pitch": 76, "velocity": 39, "note_on_time": 15.5, "note_off_time": 15.79}, {"pitch": 76, "velocity": 55, "note_on_time": 20.005, "note_off_time": 20.33}, {"pitch": 72, "velocity": 47, "note_on_time": 21.489, "note_off_time": 21.83}, {"pitch": 79, "velocity": 41, "note_on_time": 23.029, "note_off_time": 23.343}, {"pitch": 77, "velocity": 50, "note_on_time": 27.084, "note_off_time": 27.758}, {"pitch": 77, "velocity": 52, "note_on_time": 28.261, "note_off_time": 28.501}, {"pitch": 77, "velocity": 50, "note_on_time": 30.193, "note_off_time": 30.506}, {"pitch": 76, "velocity": 65, "note_on_time": 35.763, "note_off_time": 36.165}, {"pitch": 79, "velocity": 59, "note_on_time": 38.365, "note_off_time": 38.701}, {"pitch": 74, "velocity": 52, "note_on_time": 46.506, "note_off_time": 46.757}, {"pitch": 72, "velocity": 46, "note_on_time": 51.528, "note_off_time": 51.822}, {"pitch": 77, "velocity": 45, "note_on_time": 53.862, "note_off_time": 54.19}, {"pitch": 77, "velocity": 1, "note_on_time": 60.045, "note_off_time": 60.442}, {"pitch": 76, "velocity": 60, "note_on_time": 61.678, "note_off_time": 62.009}, {"pitch": 76, "velocity": 25, "note_on_time": 67.882, "note_off_time": 68.303}, {"pitch": 76, "velocity": 65, "note_on_time": 69.36, "note_off_time": 69.744}, {"pitch": 74, "velocity": 39, "note_on_time": 76.229, "note_off_time": 76.758}, {"pitch": 72, "velocity": 36, "note_on_time": 84.229, "note_off_time": 84.82}, {"pitch": 79, "velocity": 39, "note_on_time": 88.307, "note_off_time": 88.775}, {"pitch": 77, "velocity": 40, "note_on_time": 92.068, "note_off_time": 92.607}, {"pitch": 74, "velocity": 50, "note_on_time": 101.164, "note_off_time": 101.928}, {"pitch": 77, "velocity": 17, "note_on_time": 108.113, "note_off_time": 108.82}, {"pitch": 79, "velocity": 42, "note_on_time": 112.48, "note_off_time": 112.987}, {"pitch": 74, "velocity": 14, "note_on_time": 120.957, "note_off_time": 121.118}, {"pitch": 72, "velocity": 23, "note_on_time": 127.3, "note_off_time": 127.852}, {"pitch": 74, "velocity": 44, "note_on_time": 132.794, "note_off_time": 133.377}, {"pitch": 77, "velocity": 1, "note_on_time": 140.189, "note_off_time": 140.729}, {"pitch": 76, "velocity": 66, "note_on_time": 141.38, "note_off_time": 141.682}, {"pitch": 79, "velocity": 30, "note_on_time": 148.292, "note_off_time": 148.729}, {"pitch": 76, "velocity": 26, "note_on_time": 157.077, "note_off_time": 157.609}, {"pitch": 76, "velocity": 58, "note_on_time": 158.218, "note_off_time": 158.873}]</notes><guidance name="Guidance Mode">None</guidance><error name="Error value">99</error></trial><trial trial_no="2" timestamp="2024_02_26-14_57_41"><notes name="Played Notes">[{"pitch": 72, "velocity": 43, "note_on_time": 4.082, "note_off_time": 4.406}, {"pitch": 76, "velocity": 26, "note_on_time": 4.893, "note_off_time": 5.16}, {"pitch": 76, "velocity": 52, "note_on_time": 5.54, "note_off_time": 5.784}, {"pitch": 77, "velocity": 1, "note_on_time": 6.221, "note_off_time": 6.396}, {"pitch": 77, "velocity": 59, "note_on_time": 6.753, "note_off_time": 6.96}, {"pitch": 76, "velocity": 51, "note_on_time": 7.372, "note_off_time": 7.596}, {"pitch": 76, "velocity": 63, "note_on_time": 7.928, "note_off_time": 8.096}, {"pitch": 76, "velocity": 52, "note_on_time": 8.47, "note_off_time": 8.664}, {"pitch": 72, "velocity": 52, "note_on_time": 9.042, "note_off_time": 9.194}, {"pitch": 74, "velocity": 61, "note_on_time": 9.675, "note_off_time": 9.89}, {"pitch": 74, "velocity": 52, "note_on_time": 10.269, "note_off_time": 10.397}, {"pitch": 79, "velocity": 64, "note_on_time": 10.756, "note_off_time": 10.993}, {"pitch": 77, "velocity": 55, "note_on_time": 11.439, "note_off_time": 11.584}, {"pitch": 76, "velocity": 48, "note_on_time": 12.031, "note_off_time": 12.197}, {"pitch": 79, "velocity": 45, "note_on_time": 12.611, "note_off_time": 12.823}, {"pitch": 76, "velocity": 17, "note_on_time": 13.122, "note_off_time": 13.384}, {"pitch": 72, "velocity": 78, "note_on_time": 14.019, "note_off_time": 14.224}, {"pitch": 74, "velocity": 58, "note_on_time": 14.608, "note_off_time": 14.797}, {"pitch": 74, "velocity": 49, "note_on_time": 15.133, "note_off_time": 15.284}, {"pitch": 76, "velocity": 51, "note_on_time": 15.675, "note_off_time": 15.866}, {"pitch": 74, "velocity": 52, "note_on_time": 16.595, "note_off_time": 16.772}, {"pitch": 74, "velocity": 50, "note_on_time": 17.2, "note_off_time": 17.383}, {"pitch": 72, "velocity": 54, "note_on_time": 17.698, "note_off_time": 17.837}, {"pitch": 72, "velocity": 54, "note_on_time": 18.283, "note_off_time": 18.436}, {"pitch": 77, "velocity": 46, "note_on_time": 19.231, "note_off_time": 19.453}, {"pitch": 77, "velocity": 52, "note_on_time": 19.796, "note_off_time": 19.988}, {"pitch": 76, "velocity": 50, "note_on_time": 20.278, "note_off_time": 20.493}, {"pitch": 77, "velocity": 59, "note_on_time": 20.881, "note_off_time": 21.093}, {"pitch": 76, "velocity": 55, "note_on_time": 21.435, "note_off_time": 21.599}, {"pitch": 79, "velocity": 54, "note_on_time": 21.898, "note_off_time": 22.158}, {"pitch": 74, "velocity": 40, "note_on_time": 22.51, "note_off_time": 22.661}, {"pitch": 72, "velocity": 43, "note_on_time": 22.495, "note_off_time": 22.664}, {"pitch": 72, "velocity": 33, "note_on_time": 23.473, "note_off_time": 23.561}, {"pitch": 76, "velocity": 52, "note_on_time": 24.03, "note_off_time": 24.219}, {"pitch": 76, "velocity": 47, "note_on_time": 24.566, "note_off_time": 24.752}, {"pitch": 74, "velocity": 65, "note_on_time": 25.646, "note_off_time": 25.774}, {"pitch": 74, "velocity": 49, "note_on_time": 26.165, "note_off_time": 26.31}, {"pitch": 72, "velocity": 52, "note_on_time": 26.681, "note_off_time": 26.837}, {"pitch": 79, "velocity": 56, "note_on_time": 27.617, "note_off_time": 27.89}, {"pitch": 79, "velocity": 64, "note_on_time": 28.192, "note_off_time": 28.518}, {"pitch": 77, "velocity": 59, "note_on_time": 28.793, "note_off_time": 28.929}, {"pitch": 76, "velocity": 42, "note_on_time": 29.331, "note_off_time": 29.541}, {"pitch": 72, "velocity": 59, "note_on_time": 29.835, "note_off_time": 29.996}, {"pitch": 74, "velocity": 54, "note_on_time": 30.376, "note_off_time": 30.532}, {"pitch": 72, "velocity": 50, "note_on_time": 30.863, "note_off_time": 31.03}, {"pitch": 74, "velocity": 58, "note_on_time": 31.35, "note_off_time": 31.587}, {"pitch": 79, "velocity": 72, "note_on_time": 32.194, "note_off_time": 32.449}, {"pitch": 77, "velocity": 22, "note_on_time": 32.905, "note_off_time": 33.038}, {"pitch": 77, "velocity": 57, "note_on_time": 33.395, "note_off_time": 33.565}, {"pitch": 76, "velocity": 46, "note_on_time": 34.26, "note_off_time": 34.404}, {"pitch": 76, "velocity": 43, "note_on_time": 34.905, "note_off_time": 35.031}, {"pitch": 76, "velocity": 55, "note_on_time": 35.31, "note_off_time": 35.507}, {"pitch": 72, "velocity": 39, "note_on_time": 35.999, "note_off_time": 36.203}, {"pitch": 72, "velocity": 43, "note_on_time": 36.516, "note_off_time": 36.63}, {"pitch": 72, "velocity": 46, "note_on_time": 36.933, "note_off_time": 37.098}, {"pitch": 72, "velocity": 64, "note_on_time": 37.73, "note_off_time": 37.982}, {"pitch": 74, "velocity": 48, "note_on_time": 38.456, "note_off_time": 38.575}, {"pitch": 76, "velocity": 40, "note_on_time": 38.938, "note_off_time": 39.144}, {"pitch": 77, "velocity": 54, "note_on_time": 39.387, "note_off_time": 39.57}, {"pitch": 79, "velocity": 64, "note_on_time": 39.813, "note_off_time": 40.074}, {"pitch": 79, "velocity": 64, "note_on_time": 40.546, "note_off_time": 40.743}, {"pitch": 76, "velocity": 39, "note_on_time": 40.951, "note_off_time": 41.11}, {"pitch": 76, "velocity": 54, "note_on_time": 41.295, "note_off_time": 41.417}, {"pitch": 79, "velocity": 55, "note_on_time": 41.853, "note_off_time": 42.03}, {"pitch": 79, "velocity": 64, "note_on_time": 42.22, "note_off_time": 42.328}, {"pitch": 79, "velocity": 48, "note_on_time": 42.496, "note_off_time": 42.582}, {"pitch": 76, "velocity": 56, "note_on_time": 43.014, "note_off_time": 43.16}, {"pitch": 76, "velocity": 56, "note_on_time": 43.401, "note_off_time": 43.544}, {"pitch": 74, "velocity": 48, "note_on_time": 44.038, "note_off_time": 44.155}, {"pitch": 74, "velocity": 22, "note_on_time": 44.358, "note_off_time": 44.429}, {"pitch": 74, "velocity": 53, "note_on_time": 44.633, "note_off_time": 44.747}, {"pitch": 77, "velocity": 53, "note_on_time": 45.139, "note_off_time": 45.319}, {"pitch": 77, "velocity": 35, "note_on_time": 45.525, "note_off_time": 45.612}, {"pitch": 77, "velocity": 46, "note_on_time": 45.868, "note_off_time": 45.956}, {"pitch": 72, "velocity": 55, "note_on_time": 46.401, "note_off_time": 46.567}, {"pitch": 72, "velocity": 47, "note_on_time": 47.468, "note_off_time": 47.636}, {"pitch": 74, "velocity": 38, "note_on_time": 48.112, "note_off_time": 48.24}, {"pitch": 76, "velocity": 50, "note_on_time": 48.636, "note_off_time": 48.802}, {"pitch": 77, "velocity": 20, "note_on_time": 49.281, "note_off_time": 49.525}, {"pitch": 79, "velocity": 51, "note_on_time": 49.869, "note_off_time": 50.097}, {"pitch": 76, "velocity": 47, "note_on_time": 50.543, "note_off_time": 50.78}, {"pitch": 72, "velocity": 53, "note_on_time": 51.169, "note_off_time": 51.324}, {"pitch": 72, "velocity": 70, "note_on_time": 52.202, "note_off_time": 52.482}, {"pitch": 74, "velocity": 35, "note_on_time": 52.887, "note_off_time": 53.042}, {"pitch": 77, "velocity": 31, "note_on_time": 53.465, "note_off_time": 53.684}, {"pitch": 76, "velocity": 45, "note_on_time": 54.014, "note_off_time": 54.214}, {"pitch": 72, "velocity": 45, "note_on_time": 54.542, "note_off_time": 54.736}, {"pitch": 74, "velocity": 58, "note_on_time": 55.1, "note_off_time": 55.262}, {"pitch": 74, "velocity": 51, "note_on_time": 55.588, "note_off_time": 55.784}, {"pitch": 76, "velocity": 47, "note_on_time": 56.387, "note_off_time": 56.545}, {"pitch": 76, "velocity": 48, "note_on_time": 56.789, "note_off_time": 56.904}, {"pitch": 72, "velocity": 56, "note_on_time": 57.316, "note_off_time": 57.476}, {"pitch": 77, "velocity": 51, "note_on_time": 58.149, "note_off_time": 58.388}, {"pitch": 74, "velocity": 58, "note_on_time": 58.567, "note_off_time": 58.738}, {"pitch": 76, "velocity": 41, "note_on_time": 58.857, "note_off_time": 59.015}, {"pitch": 72, "velocity": 61, "note_on_time": 59.358, "note_off_time": 59.512}, {"pitch": 74, "velocity": 39, "note_on_time": 59.824, "note_off_time": 59.944}, {"pitch": 76, "velocity": 39, "note_on_time": 60.151, "note_off_time": 60.335}, {"pitch": 77, "velocity": 44, "note_on_time": 60.497, "note_off_time": 60.72}, {"pitch": 79, "velocity": 61, "note_on_time": 61.089, "note_off_time": 61.292}, {"pitch": 79, "velocity": 58, "note_on_time": 61.896, "note_off_time": 62.07}, {"pitch": 79, "velocity": 65, "note_on_time": 62.287, "note_off_time": 62.432}, {"pitch": 79, "velocity": 39, "note_on_time": 62.635, "note_off_time": 62.714}, {"pitch": 76, "velocity": 41, "note_on_time": 63.145, "note_off_time": 63.301}, {"pitch": 77, "velocity": 53, "note_on_time": 64.016, "note_off_time": 64.215}, {"pitch": 72, "velocity": 45, "note_on_time": 64.832, "note_off_time": 64.977}, {"pitch": 74, "velocity": 57, "note_on_time": 65.594, "note_off_time": 65.764}, {"pitch": 72, "velocity": 56, "note_on_time": 67.023, "note_off_time": 67.18}, {"pitch": 76, "velocity": 54, "note_on_time": 67.583, "note_off_time": 67.793}, {"pitch": 74, "velocity": 55, "note_on_time": 68.155, "note_off_time": 68.324}, {"pitch": 77, "velocity": 30, "note_on_time": 69.364, "note_off_time": 69.613}, {"pitch": 76, "velocity": 43, "note_on_time": 69.897, "note_off_time": 70.05}, {"pitch": 74, "velocity": 54, "note_on_time": 70.348, "note_off_time": 70.55}, {"pitch": 72, "velocity": 39, "note_on_time": 71.04, "note_off_time": 71.156}, {"pitch": 74, "velocity": 46, "note_on_time": 71.502, "note_off_time": 71.662}, {"pitch": 76, "velocity": 51, "note_on_time": 71.864, "note_off_time": 72.072}, {"pitch": 77, "velocity": 49, "note_on_time": 72.434, "note_off_time": 72.638}, {"pitch": 79, "velocity": 63, "note_on_time": 73.008, "note_off_time": 73.228}, {"pitch": 76, "velocity": 31, "note_on_time": 73.525, "note_off_time": 73.735}, {"pitch": 77, "velocity": 45, "note_on_time": 73.915, "note_off_time": 74.143}, {"pitch": 79, "velocity": 11, "note_on_time": 74.694, "note_off_time": 74.765}, {"pitch": 72, "velocity": 47, "note_on_time": 74.923, "note_off_time": 75.056}, {"pitch": 74, "velocity": 51, "note_on_time": 75.332, "note_off_time": 75.487}, {"pitch": 76, "velocity": 60, "note_on_time": 76.01, "note_off_time": 76.178}, {"pitch": 76, "velocity": 39, "note_on_time": 76.366, "note_off_time": 76.5}, {"pitch": 76, "velocity": 32, "note_on_time": 76.704, "note_off_time": 76.915}, {"pitch": 77, "velocity": 55, "note_on_time": 79.105, "note_off_time": 79.35}, {"pitch": 76, "velocity": 24, "note_on_time": 79.872, "note_off_time": 80.11}, {"pitch": 72, "velocity": 46, "note_on_time": 80.46, "note_off_time": 80.617}, {"pitch": 74, "velocity": 56, "note_on_time": 81.922, "note_off_time": 82.135}, {"pitch": 74, "velocity": 55, "note_on_time": 83.065, "note_off_time": 83.265}, {"pitch": 72, "velocity": 38, "note_on_time": 83.567, "note_off_time": 83.717}, {"pitch": 76, "velocity": 35, "note_on_time": 84.018, "note_off_time": 84.25}, {"pitch": 77, "velocity": 51, "note_on_time": 85.595, "note_off_time": 85.8}, {"pitch": 72, "velocity": 42, "note_on_time": 89.53, "note_off_time": 89.699}, {"pitch": 74, "velocity": 46, "note_on_time": 90.036, "note_off_time": 90.147}, {"pitch": 76, "velocity": 45, "note_on_time": 90.573, "note_off_time": 90.741}, {"pitch": 77, "velocity": 53, "note_on_time": 91.054, "note_off_time": 91.243}, {"pitch": 79, "velocity": 59, "note_on_time": 92.183, "note_off_time": 92.406}, {"pitch": 77, "velocity": 30, "note_on_time": 92.829, "note_off_time": 92.986}, {"pitch": 76, "velocity": 41, "note_on_time": 93.242, "note_off_time": 93.413}, {"pitch": 74, "velocity": 37, "note_on_time": 93.601, "note_off_time": 93.752}, {"pitch": 72, "velocity": 49, "note_on_time": 93.912, "note_off_time": 94.059}, {"pitch": 72, "velocity": 53, "note_on_time": 94.409, "note_off_time": 94.545}, {"pitch": 74, "velocity": 43, "note_on_time": 94.821, "note_off_time": 94.969}, {"pitch": 76, "velocity": 49, "note_on_time": 95.187, "note_off_time": 95.33}, {"pitch": 77, "velocity": 53, "note_on_time": 96.808, "note_off_time": 97.027}, {"pitch": 79, "velocity": 1, "note_on_time": 97.774, "note_off_time": 98.013}, {"pitch": 79, "velocity": 63, "note_on_time": 98.21, "note_off_time": 98.46}, {"pitch": 72, "velocity": 19, "note_on_time": 98.805, "note_off_time": 99.001}, {"pitch": 74, "velocity": 65, "note_on_time": 99.186, "note_off_time": 99.346}, {"pitch": 74, "velocity": 49, "note_on_time": 99.981, "note_off_time": 100.162}, {"pitch": 76, "velocity": 44, "note_on_time": 100.448, "note_off_time": 100.686}, {"pitch": 77, "velocity": 46, "note_on_time": 101.176, "note_off_time": 101.384}, {"pitch": 79, "velocity": 55, "note_on_time": 101.733, "note_off_time": 101.95}, {"pitch": 72, "velocity": 56, "note_on_time": 102.54, "note_off_time": 102.67}, {"pitch": 74, "velocity": 16, "note_on_time": 102.875, "note_off_time": 102.966}, {"pitch": 76, "velocity": 53, "note_on_time": 103.411, "note_off_time": 103.569}, {"pitch": 77, "velocity": 1, "note_on_time": 104.208, "note_off_time": 104.4}, {"pitch": 77, "velocity": 59, "note_on_time": 105.156, "note_off_time": 105.365}, {"pitch": 79, "velocity": 49, "note_on_time": 106.208, "note_off_time": 106.457}, {"pitch": 72, "velocity": 52, "note_on_time": 106.569, "note_off_time": 106.723}, {"pitch": 74, "velocity": 53, "note_on_time": 107.025, "note_off_time": 107.219}, {"pitch": 76, "velocity": 60, "note_on_time": 108.208, "note_off_time": 108.469}, {"pitch": 74, "velocity": 22, "note_on_time": 108.716, "note_off_time": 108.829}, {"pitch": 77, "velocity": 46, "note_on_time": 109.168, "note_off_time": 109.411}, {"pitch": 76, "velocity": 51, "note_on_time": 109.96, "note_off_time": 110.189}, {"pitch": 74, "velocity": 47, "note_on_time": 110.374, "note_off_time": 110.592}, {"pitch": 72, "velocity": 40, "note_on_time": 110.756, "note_off_time": 110.899}, {"pitch": 72, "velocity": 14, "note_on_time": 111.491, "note_off_time": 111.647}, {"pitch": 74, "velocity": 40, "note_on_time": 111.919, "note_off_time": 112.097}, {"pitch": 76, "velocity": 45, "note_on_time": 112.271, "note_off_time": 112.486}, {"pitch": 77, "velocity": 59, "note_on_time": 112.704, "note_off_time": 112.896}, {"pitch": 79, "velocity": 53, "note_on_time": 113.127, "note_off_time": 113.323}, {"pitch": 76, "velocity": 1, "note_on_time": 113.587, "note_off_time": 113.693}, {"pitch": 74, "velocity": 37, "note_on_time": 113.585, "note_off_time": 113.762}, {"pitch": 76, "velocity": 45, "note_on_time": 113.936, "note_off_time": 114.184}, {"pitch": 74, "velocity": 43, "note_on_time": 114.612, "note_off_time": 114.762}, {"pitch": 76, "velocity": 44, "note_on_time": 114.995, "note_off_time": 115.136}, {"pitch": 77, "velocity": 54, "note_on_time": 115.402, "note_off_time": 115.566}, {"pitch": 79, "velocity": 58, "note_on_time": 115.738, "note_off_time": 115.966}, {"pitch": 74, "velocity": 47, "note_on_time": 116.198, "note_off_time": 116.323}, {"pitch": 72, "velocity": 35, "note_on_time": 117.582, "note_off_time": 117.744}, {"pitch": 74, "velocity": 55, "note_on_time": 118.168, "note_off_time": 118.319}, {"pitch": 76, "velocity": 52, "note_on_time": 118.795, "note_off_time": 119.016}, {"pitch": 79, "velocity": 56, "note_on_time": 119.358, "note_off_time": 119.629}, {"pitch": 77, "velocity": 52, "note_on_time": 120.266, "note_off_time": 120.513}, {"pitch": 72, "velocity": 64, "note_on_time": 120.723, "note_off_time": 120.889}, {"pitch": 74, "velocity": 54, "note_on_time": 121.383, "note_off_time": 121.507}, {"pitch": 76, "velocity": 44, "note_on_time": 121.886, "note_off_time": 122.086}, {"pitch": 76, "velocity": 38, "note_on_time": 122.838, "note_off_time": 123.021}, {"pitch": 77, "velocity": 45, "note_on_time": 123.221, "note_off_time": 123.394}, {"pitch": 79, "velocity": 65, "note_on_time": 123.62, "note_off_time": 123.844}, {"pitch": 72, "velocity": 66, "note_on_time": 124.336, "note_off_time": 124.441}, {"pitch": 74, "velocity": 42, "note_on_time": 124.698, "note_off_time": 124.872}, {"pitch": 76, "velocity": 48, "note_on_time": 125.032, "note_off_time": 125.228}, {"pitch": 77, "velocity": 54, "note_on_time": 125.49, "note_off_time": 125.695}, {"pitch": 79, "velocity": 67, "note_on_time": 125.97, "note_off_time": 126.217}, {"pitch": 72, "velocity": 42, "note_on_time": 126.306, "note_off_time": 126.409}, {"pitch": 76, "velocity": 55, "note_on_time": 126.935, "note_off_time": 127.051}, {"pitch": 72, "velocity": 27, "note_on_time": 128.255, "note_off_time": 128.426}, {"pitch": 74, "velocity": 68, "note_on_time": 128.712, "note_off_time": 128.86}, {"pitch": 76, "velocity": 46, "note_on_time": 129.134, "note_off_time": 129.349}, {"pitch": 77, "velocity": 51, "note_on_time": 129.625, "note_off_time": 129.833}, {"pitch": 79, "velocity": 57, "note_on_time": 130.061, "note_off_time": 130.278}, {"pitch": 72, "velocity": 63, "note_on_time": 130.713, "note_off_time": 130.855}, {"pitch": 74, "velocity": 34, "note_on_time": 131.217, "note_off_time": 131.376}, {"pitch": 76, "velocity": 43, "note_on_time": 131.597, "note_off_time": 131.801}, {"pitch": 79, "velocity": 58, "note_on_time": 132.241, "note_off_time": 132.463}, {"pitch": 72, "velocity": 53, "note_on_time": 132.753, "note_off_time": 132.867}, {"pitch": 77, "velocity": 44, "note_on_time": 133.301, "note_off_time": 133.487}, {"pitch": 76, "velocity": 61, "note_on_time": 133.759, "note_off_time": 133.945}, {"pitch": 74, "velocity": 36, "note_on_time": 134.457, "note_off_time": 134.647}, {"pitch": 72, "velocity": 55, "note_on_time": 135.051, "note_off_time": 135.226}, {"pitch": 77, "velocity": 36, "note_on_time": 141.121, "note_off_time": 141.329}, {"pitch": 77, "velocity": 46, "note_on_time": 141.739, "note_off_time": 141.889}, {"pitch": 79, "velocity": 28, "note_on_time": 142.314, "note_off_time": 142.61}, {"pitch": 81, "velocity": 47, "note_on_time": 143.273, "note_off_time": 143.544}, {"pitch": 79, "velocity": 20, "note_on_time": 143.929, "note_off_time": 144.131}, {"pitch": 79, "velocity": 26, "note_on_time": 144.474, "note_off_time": 144.655}, {"pitch": 79, "velocity": 35, "note_on_time": 144.94, "note_off_time": 145.146}, {"pitch": 81, "velocity": 30, "note_on_time": 145.696, "note_off_time": 145.907}, {"pitch": 81, "velocity": 56, "note_on_time": 146.119, "note_off_time": 146.266}, {"pitch": 77, "velocity": 1, "note_on_time": 147.154, "note_off_time": 147.288}, {"pitch": 72, "velocity": 53, "note_on_time": 152.114, "note_off_time": 152.269}, {"pitch": 74, "velocity": 57, "note_on_time": 152.54, "note_off_time": 152.685}, {"pitch": 76, "velocity": 45, "note_on_time": 152.88, "note_off_time": 153.051}, {"pitch": 77, "velocity": 22, "note_on_time": 153.351, "note_off_time": 153.581}, {"pitch": 79, "velocity": 63, "note_on_time": 153.809, "note_off_time": 154.038}, {"pitch": 74, "velocity": 60, "note_on_time": 154.601, "note_off_time": 154.797}, {"pitch": 72, "velocity": 47, "note_on_time": 155.13, "note_off_time": 155.284}, {"pitch": 72, "velocity": 50, "note_on_time": 156.32, "note_off_time": 156.439}, {"pitch": 74, "velocity": 41, "note_on_time": 156.794, "note_off_time": 156.939}, {"pitch": 76, "velocity": 33, "note_on_time": 157.429, "note_off_time": 157.652}, {"pitch": 77, "velocity": 51, "note_on_time": 157.864, "note_off_time": 158.063}, {"pitch": 79, "velocity": 45, "note_on_time": 158.295, "note_off_time": 158.506}, {"pitch": 72, "velocity": 50, "note_on_time": 159.437, "note_off_time": 159.619}, {"pitch": 74, "velocity": 49, "note_on_time": 159.851, "note_off_time": 159.98}, {"pitch": 76, "velocity": 41, "note_on_time": 160.634, "note_off_time": 160.803}, {"pitch": 77, "velocity": 33, "note_on_time": 161.327, "note_off_time": 161.529}, {"pitch": 79, "velocity": 62, "note_on_time": 161.818, "note_off_time": 162.059}, {"pitch": 77, "velocity": 45, "note_on_time": 162.98, "note_off_time": 163.185}, {"pitch": 76, "velocity": 52, "note_on_time": 163.605, "note_off_time": 163.771}, {"pitch": 74, "velocity": 38, "note_on_time": 164.291, "note_off_time": 164.48}, {"pitch": 74, "velocity": 75, "note_on_time": 165.908, "note_off_time": 166.179}, {"pitch": 72, "velocity": 59, "note_on_time": 166.806, "note_off_time": 166.977}, {"pitch": 72, "velocity": 72, "note_on_time": 167.24, "note_off_time": 167.395}, {"pitch": 74, "velocity": 60, "note_on_time": 167.74, "note_off_time": 167.902}, {"pitch": 76, "velocity": 41, "note_on_time": 168.517, "note_off_time": 168.722}, {"pitch": 76, "velocity": 52, "note_on_time": 168.844, "note_off_time": 168.994}, {"pitch": 76, "velocity": 49, "note_on_time": 169.151, "note_off_time": 169.339}, {"pitch": 72, "velocity": 39, "note_on_time": 169.947, "note_off_time": 170.112}, {"pitch": 79, "velocity": 47, "note_on_time": 170.263, "note_off_time": 170.5}, {"pitch": 79, "velocity": 67, "note_on_time": 170.719, "note_off_time": 170.974}, {"pitch": 77, "velocity": 46, "note_on_time": 172.644, "note_off_time": 172.876}, {"pitch": 77, "velocity": 45, "note_on_time": 173.26, "note_off_time": 173.61}, {"pitch": 77, "velocity": 35, "note_on_time": 174.286, "note_off_time": 174.583}, {"pitch": 76, "velocity": 48, "note_on_time": 174.766, "note_off_time": 174.909}, {"pitch": 76, "velocity": 47, "note_on_time": 175.186, "note_off_time": 175.353}, {"pitch": 74, "velocity": 49, "note_on_time": 175.576, "note_off_time": 175.77}, {"pitch": 72, "velocity": 56, "note_on_time": 176.489, "note_off_time": 176.684}, {"pitch": 72, "velocity": 63, "note_on_time": 177.051, "note_off_time": 177.227}, {"pitch": 74, "velocity": 52, "note_on_time": 177.512, "note_off_time": 177.691}, {"pitch": 74, "velocity": 32, "note_on_time": 178.459, "note_off_time": 178.645}, {"pitch": 76, "velocity": 40, "note_on_time": 178.865, "note_off_time": 179.098}, {"pitch": 76, "velocity": 21, "note_on_time": 179.356, "note_off_time": 179.631}, {"pitch": 76, "velocity": 46, "note_on_time": 179.849, "note_off_time": 180.098}, {"pitch": 76, "velocity": 60, "note_on_time": 180.402, "note_off_time": 180.655}, {"pitch": 77, "velocity": 46, "note_on_time": 180.999, "note_off_time": 181.202}, {"pitch": 79, "velocity": 57, "note_on_time": 181.486, "note_off_time": 181.743}, {"pitch": 77, "velocity": 10, "note_on_time": 184.182, "note_off_time": 184.412}, {"pitch": 77, "velocity": 53, "note_on_time": 184.691, "note_off_time": 184.964}, {"pitch": 77, "velocity": 66, "note_on_time": 185.255, "note_off_time": 185.535}, {"pitch": 79, "velocity": 49, "note_on_time": 186.244, "note_off_time": 186.527}, {"pitch": 76, "velocity": 47, "note_on_time": 186.908, "note_off_time": 187.139}, {"pitch": 77, "velocity": 39, "note_on_time": 187.261, "note_off_time": 187.492}, {"pitch": 76, "velocity": 38, "note_on_time": 187.669, "note_off_time": 187.914}, {"pitch": 74, "velocity": 51, "note_on_time": 188.412, "note_off_time": 188.584}, {"pitch": 71, "velocity": 9, "note_on_time": 188.826, "note_off_time": 189.01}, {"pitch": 72, "velocity": 9, "note_on_time": 188.831, "note_off_time": 189.013}, {"pitch": 72, "velocity": 72, "note_on_time": 189.564, "note_off_time": 189.729}, {"pitch": 74, "velocity": 53, "note_on_time": 189.94, "note_off_time": 190.076}, {"pitch": 74, "velocity": 14, "note_on_time": 190.263, "note_off_time": 190.408}, {"pitch": 76, "velocity": 48, "note_on_time": 190.591, "note_off_time": 190.816}, {"pitch": 74, "velocity": 47, "note_on_time": 191.039, "note_off_time": 191.26}, {"pitch": 74, "velocity": 31, "note_on_time": 191.55, "note_off_time": 191.627}, {"pitch": 72, "velocity": 22, "note_on_time": 191.6, "note_off_time": 191.806}, {"pitch": 77, "velocity": 42, "note_on_time": 192.111, "note_off_time": 192.412}, {"pitch": 79, "velocity": 45, "note_on_time": 192.182, "note_off_time": 192.426}]</notes><guidance name="Guidance Mode">None</guidance><error name="Error value">99</error></trial><trial trial_no="3" timestamp="2024_02_26-15_04_03"><notes name="Played Notes">[{"pitch": 72, "velocity": 51, "note_on_time": 1.243, "note_off_time": 1.394}, {"pitch": 74, "velocity": 43, "note_on_time": 2.992, "note_off_time": 3.101}, {"pitch": 76, "velocity": 43, "note_on_time": 3.569, "note_off_time": 3.721}, {"pitch": 72, "velocity": 1, "note_on_time": 4.212, "note_off_time": 4.29}, {"pitch": 77, "velocity": 38, "note_on_time": 4.83, "note_off_time": 5.016}, {"pitch": 77, "velocity": 35, "note_on_time": 5.388, "note_off_time": 5.568}, {"pitch": 76, "velocity": 47, "note_on_time": 5.95, "note_off_time": 6.108}, {"pitch": 74, "velocity": 42, "note_on_time": 6.877, "note_off_time": 6.988}, {"pitch": 76, "velocity": 33, "note_on_time": 7.355, "note_off_time": 7.497}, {"pitch": 76, "velocity": 37, "note_on_time": 7.778, "note_off_time": 7.929}, {"pitch": 77, "velocity": 23, "note_on_time": 8.168, "note_off_time": 8.353}, {"pitch": 79, "velocity": 60, "note_on_time": 8.58, "note_off_time": 8.799}, {"pitch": 79, "velocity": 47, "note_on_time": 8.998, "note_off_time": 9.204}, {"pitch": 79, "velocity": 64, "note_on_time": 9.446, "note_off_time": 9.641}, {"pitch": 76, "velocity": 37, "note_on_time": 10.211, "note_off_time": 10.385}, {"pitch": 76, "velocity": 56, "note_on_time": 10.611, "note_off_time": 10.733}, {"pitch": 76, "velocity": 48, "note_on_time": 10.945, "note_off_time": 11.161}, {"pitch": 79, "velocity": 56, "note_on_time": 11.532, "note_off_time": 11.719}, {"pitch": 77, "velocity": 9, "note_on_time": 12.16, "note_off_time": 12.343}, {"pitch": 77, "velocity": 54, "note_on_time": 12.574, "note_off_time": 12.798}, {"pitch": 76, "velocity": 43, "note_on_time": 13.301, "note_off_time": 13.446}, {"pitch": 76, "velocity": 49, "note_on_time": 13.627, "note_off_time": 13.803}, {"pitch": 76, "velocity": 33, "note_on_time": 13.956, "note_off_time": 14.134}, {"pitch": 74, "velocity": 52, "note_on_time": 14.283, "note_off_time": 14.426}, {"pitch": 72, "velocity": 51, "note_on_time": 14.56, "note_off_time": 14.687}, {"pitch": 74, "velocity": 47, "note_on_time": 15.014, "note_off_time": 15.138}, {"pitch": 76, "velocity": 28, "note_on_time": 15.276, "note_off_time": 15.42}, {"pitch": 77, "velocity": 41, "note_on_time": 15.699, "note_off_time": 15.91}, {"pitch": 76, "velocity": 32, "note_on_time": 16.156, "note_off_time": 16.35}, {"pitch": 74, "velocity": 56, "note_on_time": 17.767, "note_off_time": 17.895}, {"pitch": 72, "velocity": 47, "note_on_time": 18.306, "note_off_time": 18.441}, {"pitch": 72, "velocity": 45, "note_on_time": 18.816, "note_off_time": 18.984}, {"pitch": 79, "velocity": 55, "note_on_time": 19.352, "note_off_time": 19.596}, {"pitch": 77, "velocity": 56, "note_on_time": 19.963, "note_off_time": 20.114}, {"pitch": 76, "velocity": 50, "note_on_time": 20.447, "note_off_time": 20.66}, {"pitch": 74, "velocity": 51, "note_on_time": 21.164, "note_off_time": 21.341}, {"pitch": 72, "velocity": 40, "note_on_time": 21.638, "note_off_time": 21.798}, {"pitch": 74, "velocity": 35, "note_on_time": 22.07, "note_off_time": 22.137}, {"pitch": 76, "velocity": 46, "note_on_time": 22.109, "note_off_time": 22.328}, {"pitch": 74, "velocity": 54, "note_on_time": 22.701, "note_off_time": 22.932}, {"pitch": 74, "velocity": 38, "note_on_time": 23.393, "note_off_time": 23.631}, {"pitch": 76, "velocity": 30, "note_on_time": 23.822, "note_off_time": 24.03}, {"pitch": 77, "velocity": 45, "note_on_time": 24.274, "note_off_time": 24.505}, {"pitch": 79, "velocity": 56, "note_on_time": 24.679, "note_off_time": 24.897}, {"pitch": 79, "velocity": 1, "note_on_time": 25.088, "note_off_time": 25.274}, {"pitch": 76, "velocity": 44, "note_on_time": 25.467, "note_off_time": 25.672}, {"pitch": 74, "velocity": 55, "note_on_time": 26.106, "note_off_time": 26.278}, {"pitch": 72, "velocity": 60, "note_on_time": 26.457, "note_off_time": 26.618}, {"pitch": 76, "velocity": 38, "note_on_time": 26.863, "note_off_time": 27.057}, {"pitch": 79, "velocity": 49, "note_on_time": 27.191, "note_off_time": 27.42}, {"pitch": 72, "velocity": 65, "note_on_time": 27.767, "note_off_time": 27.968}, {"pitch": 76, "velocity": 37, "note_on_time": 28.269, "note_off_time": 28.427}, {"pitch": 77, "velocity": 18, "note_on_time": 28.945, "note_off_time": 29.202}, {"pitch": 77, "velocity": 55, "note_on_time": 29.447, "note_off_time": 29.606}, {"pitch": 77, "velocity": 58, "note_on_time": 29.872, "note_off_time": 30.094}, {"pitch": 74, "velocity": 47, "note_on_time": 30.653, "note_off_time": 30.827}, {"pitch": 72, "velocity": 26, "note_on_time": 31.068, "note_off_time": 31.214}, {"pitch": 74, "velocity": 57, "note_on_time": 31.45, "note_off_time": 31.572}, {"pitch": 76, "velocity": 35, "note_on_time": 31.584, "note_off_time": 31.7}, {"pitch": 72, "velocity": 51, "note_on_time": 31.835, "note_off_time": 32.0}, {"pitch": 79, "velocity": 44, "note_on_time": 32.244, "note_off_time": 32.453}, {"pitch": 76, "velocity": 46, "note_on_time": 32.632, "note_off_time": 32.791}, {"pitch": 72, "velocity": 68, "note_on_time": 32.956, "note_off_time": 33.16}, {"pitch": 74, "velocity": 48, "note_on_time": 33.63, "note_off_time": 33.745}, {"pitch": 76, "velocity": 44, "note_on_time": 33.896, "note_off_time": 34.041}, {"pitch": 77, "velocity": 11, "note_on_time": 34.396, "note_off_time": 34.58}, {"pitch": 79, "velocity": 63, "note_on_time": 34.898, "note_off_time": 35.11}, {"pitch": 76, "velocity": 34, "note_on_time": 35.436, "note_off_time": 35.577}, {"pitch": 72, "velocity": 52, "note_on_time": 35.63, "note_off_time": 35.822}, {"pitch": 74, "velocity": 58, "note_on_time": 36.019, "note_off_time": 36.152}, {"pitch": 76, "velocity": 32, "note_on_time": 36.563, "note_off_time": 36.759}, {"pitch": 77, "velocity": 26, "note_on_time": 37.004, "note_off_time": 37.162}, {"pitch": 79, "velocity": 65, "note_on_time": 37.543, "note_off_time": 37.734}, {"pitch": 77, "velocity": 1, "note_on_time": 38.131, "note_off_time": 38.236}, {"pitch": 72, "velocity": 13, "note_on_time": 39.342, "note_off_time": 39.5}, {"pitch": 72, "velocity": 55, "note_on_time": 39.759, "note_off_time": 39.909}, {"pitch": 72, "velocity": 71, "note_on_time": 40.162, "note_off_time": 40.316}, {"pitch": 74, "velocity": 46, "note_on_time": 40.64, "note_off_time": 40.813}, {"pitch": 76, "velocity": 49, "note_on_time": 40.976, "note_off_time": 41.149}, {"pitch": 77, "velocity": 31, "note_on_time": 41.642, "note_off_time": 41.844}, {"pitch": 79, "velocity": 61, "note_on_time": 42.068, "note_off_time": 42.264}, {"pitch": 77, "velocity": 45, "note_on_time": 42.496, "note_off_time": 42.673}, {"pitch": 77, "velocity": 55, "note_on_time": 42.856, "note_off_time": 42.999}, {"pitch": 76, "velocity": 48, "note_on_time": 43.783, "note_off_time": 43.896}, {"pitch": 76, "velocity": 43, "note_on_time": 44.1, "note_off_time": 44.239}, {"pitch": 76, "velocity": 45, "note_on_time": 44.402, "note_off_time": 44.517}, {"pitch": 76, "velocity": 40, "note_on_time": 44.915, "note_off_time": 45.094}, {"pitch": 76, "velocity": 31, "note_on_time": 45.251, "note_off_time": 45.409}, {"pitch": 74, "velocity": 60, "note_on_time": 45.556, "note_off_time": 45.667}, {"pitch": 72, "velocity": 52, "note_on_time": 46.042, "note_off_time": 46.174}, {"pitch": 72, "velocity": 46, "note_on_time": 46.333, "note_off_time": 46.406}, {"pitch": 76, "velocity": 12, "note_on_time": 46.737, "note_off_time": 46.831}, {"pitch": 74, "velocity": 60, "note_on_time": 46.793, "note_off_time": 46.937}, {"pitch": 74, "velocity": 52, "note_on_time": 47.204, "note_off_time": 47.337}, {"pitch": 76, "velocity": 34, "note_on_time": 47.536, "note_off_time": 47.781}, {"pitch": 79, "velocity": 42, "note_on_time": 48.649, "note_off_time": 48.882}, {"pitch": 77, "velocity": 35, "note_on_time": 49.126, "note_off_time": 49.303}, {"pitch": 79, "velocity": 58, "note_on_time": 49.524, "note_off_time": 49.725}, {"pitch": 77, "velocity": 47, "note_on_time": 50.277, "note_off_time": 50.496}, {"pitch": 79, "velocity": 54, "note_on_time": 51.032, "note_off_time": 51.299}, {"pitch": 77, "velocity": 47, "note_on_time": 52.259, "note_off_time": 52.397}, {"pitch": 77, "velocity": 62, "note_on_time": 52.601, "note_off_time": 52.735}, {"pitch": 77, "velocity": 63, "note_on_time": 52.912, "note_off_time": 53.057}, {"pitch": 76, "velocity": 33, "note_on_time": 53.913, "note_off_time": 54.077}, {"pitch": 76, "velocity": 46, "note_on_time": 54.269, "note_off_time": 54.382}, {"pitch": 76, "velocity": 37, "note_on_time": 54.53, "note_off_time": 54.649}, {"pitch": 79, "velocity": 31, "note_on_time": 55.47, "note_off_time": 55.73}, {"pitch": 76, "velocity": 44, "note_on_time": 56.231, "note_off_time": 56.45}, {"pitch": 74, "velocity": 52, "note_on_time": 56.567, "note_off_time": 56.732}, {"pitch": 72, "velocity": 35, "note_on_time": 56.826, "note_off_time": 56.975}, {"pitch": 76, "velocity": 40, "note_on_time": 57.225, "note_off_time": 57.551}, {"pitch": 74, "velocity": 39, "note_on_time": 57.653, "note_off_time": 57.777}, {"pitch": 72, "velocity": 51, "note_on_time": 58.013, "note_off_time": 58.159}, {"pitch": 76, "velocity": 34, "note_on_time": 58.678, "note_off_time": 58.88}, {"pitch": 74, "velocity": 24, "note_on_time": 59.03, "note_off_time": 59.189}, {"pitch": 72, "velocity": 41, "note_on_time": 59.302, "note_off_time": 59.433}, {"pitch": 76, "velocity": 26, "note_on_time": 59.668, "note_off_time": 59.825}, {"pitch": 74, "velocity": 44, "note_on_time": 59.955, "note_off_time": 60.052}, {"pitch": 71, "velocity": 8, "note_on_time": 60.419, "note_off_time": 60.623}, {"pitch": 72, "velocity": 33, "note_on_time": 60.963, "note_off_time": 61.073}, {"pitch": 74, "velocity": 53, "note_on_time": 61.421, "note_off_time": 61.558}, {"pitch": 76, "velocity": 30, "note_on_time": 61.923, "note_off_time": 62.136}, {"pitch": 79, "velocity": 13, "note_on_time": 62.426, "note_off_time": 62.605}, {"pitch": 77, "velocity": 54, "note_on_time": 63.426, "note_off_time": 63.607}, {"pitch": 77, "velocity": 58, "note_on_time": 63.802, "note_off_time": 63.948}, {"pitch": 77, "velocity": 1, "note_on_time": 64.39, "note_off_time": 64.569}, {"pitch": 79, "velocity": 56, "note_on_time": 64.867, "note_off_time": 65.045}, {"pitch": 76, "velocity": 46, "note_on_time": 65.274, "note_off_time": 65.465}, {"pitch": 74, "velocity": 1, "note_on_time": 65.631, "note_off_time": 65.792}, {"pitch": 72, "velocity": 50, "note_on_time": 66.191, "note_off_time": 66.335}, {"pitch": 74, "velocity": 47, "note_on_time": 66.907, "note_off_time": 67.078}, {"pitch": 74, "velocity": 35, "note_on_time": 67.244, "note_off_time": 67.379}, {"pitch": 72, "velocity": 53, "note_on_time": 67.576, "note_off_time": 67.701}, {"pitch": 76, "velocity": 39, "note_on_time": 68.09, "note_off_time": 68.245}, {"pitch": 76, "velocity": 44, "note_on_time": 68.37, "note_off_time": 68.51}, {"pitch": 77, "velocity": 40, "note_on_time": 68.732, "note_off_time": 68.923}, {"pitch": 79, "velocity": 59, "note_on_time": 69.165, "note_off_time": 69.328}, {"pitch": 77, "velocity": 36, "note_on_time": 69.589, "note_off_time": 69.749}, {"pitch": 76, "velocity": 35, "note_on_time": 70.405, "note_off_time": 70.622}, {"pitch": 74, "velocity": 39, "note_on_time": 70.649, "note_off_time": 70.786}, {"pitch": 72, "velocity": 51, "note_on_time": 70.97, "note_off_time": 71.127}, {"pitch": 74, "velocity": 29, "note_on_time": 71.622, "note_off_time": 71.726}, {"pitch": 76, "velocity": 34, "note_on_time": 71.995, "note_off_time": 72.146}, {"pitch": 77, "velocity": 36, "note_on_time": 72.386, "note_off_time": 72.577}, {"pitch": 79, "velocity": 58, "note_on_time": 72.894, "note_off_time": 73.099}, {"pitch": 76, "velocity": 35, "note_on_time": 73.433, "note_off_time": 73.587}, {"pitch": 72, "velocity": 65, "note_on_time": 74.095, "note_off_time": 74.185}, {"pitch": 74, "velocity": 35, "note_on_time": 74.239, "note_off_time": 74.3}, {"pitch": 77, "velocity": 34, "note_on_time": 74.778, "note_off_time": 74.988}, {"pitch": 76, "velocity": 28, "note_on_time": 75.363, "note_off_time": 75.511}, {"pitch": 74, "velocity": 40, "note_on_time": 75.881, "note_off_time": 76.048}, {"pitch": 72, "velocity": 54, "note_on_time": 76.411, "note_off_time": 76.568}, {"pitch": 72, "velocity": 52, "note_on_time": 76.917, "note_off_time": 77.09}, {"pitch": 74, "velocity": 51, "note_on_time": 77.318, "note_off_time": 77.438}, {"pitch": 76, "velocity": 44, "note_on_time": 77.613, "note_off_time": 77.773}, {"pitch": 77, "velocity": 37, "note_on_time": 78.104, "note_off_time": 78.379}, {"pitch": 79, "velocity": 59, "note_on_time": 78.596, "note_off_time": 78.813}, {"pitch": 72, "velocity": 60, "note_on_time": 79.316, "note_off_time": 79.453}, {"pitch": 74, "velocity": 31, "note_on_time": 79.805, "note_off_time": 79.908}, {"pitch": 76, "velocity": 27, "note_on_time": 80.117, "note_off_time": 80.265}, {"pitch": 79, "velocity": 50, "note_on_time": 80.616, "note_off_time": 80.83}, {"pitch": 79, "velocity": 47, "note_on_time": 81.022, "note_off_time": 81.198}, {"pitch": 77, "velocity": 50, "note_on_time": 81.787, "note_off_time": 81.947}, {"pitch": 76, "velocity": 49, "note_on_time": 82.17, "note_off_time": 82.312}, {"pitch": 79, "velocity": 1, "note_on_time": 82.686, "note_off_time": 82.981}, {"pitch": 77, "velocity": 38, "note_on_time": 83.459, "note_off_time": 83.631}, {"pitch": 76, "velocity": 62, "note_on_time": 83.835, "note_off_time": 83.997}, {"pitch": 72, "velocity": 39, "note_on_time": 84.588, "note_off_time": 84.793}, {"pitch": 74, "velocity": 43, "note_on_time": 85.266, "note_off_time": 85.446}, {"pitch": 76, "velocity": 32, "note_on_time": 85.619, "note_off_time": 85.8}, {"pitch": 77, "velocity": 16, "note_on_time": 86.05, "note_off_time": 86.246}, {"pitch": 79, "velocity": 49, "note_on_time": 86.463, "note_off_time": 86.719}, {"pitch": 76, "velocity": 33, "note_on_time": 87.325, "note_off_time": 87.513}, {"pitch": 72, "velocity": 48, "note_on_time": 88.727, "note_off_time": 88.921}, {"pitch": 72, "velocity": 45, "note_on_time": 89.172, "note_off_time": 89.269}, {"pitch": 74, "velocity": 59, "note_on_time": 89.472, "note_off_time": 89.604}, {"pitch": 74, "velocity": 47, "note_on_time": 90.125, "note_off_time": 90.223}, {"pitch": 76, "velocity": 34, "note_on_time": 90.473, "note_off_time": 90.605}, {"pitch": 76, "velocity": 56, "note_on_time": 90.783, "note_off_time": 90.98}, {"pitch": 72, "velocity": 61, "note_on_time": 91.329, "note_off_time": 91.469}, {"pitch": 74, "velocity": 37, "note_on_time": 91.726, "note_off_time": 91.82}, {"pitch": 74, "velocity": 50, "note_on_time": 92.02, "note_off_time": 92.111}, {"pitch": 76, "velocity": 39, "note_on_time": 92.319, "note_off_time": 92.499}, {"pitch": 79, "velocity": 47, "note_on_time": 92.667, "note_off_time": 92.872}, {"pitch": 76, "velocity": 52, "note_on_time": 93.012, "note_off_time": 93.22}, {"pitch": 77, "velocity": 36, "note_on_time": 93.349, "note_off_time": 93.544}, {"pitch": 74, "velocity": 39, "note_on_time": 93.985, "note_off_time": 94.103}, {"pitch": 74, "velocity": 22, "note_on_time": 94.341, "note_off_time": 94.465}, {"pitch": 74, "velocity": 40, "note_on_time": 94.619, "note_off_time": 94.731}, {"pitch": 76, "velocity": 40, "note_on_time": 95.185, "note_off_time": 95.327}, {"pitch": 76, "velocity": 22, "note_on_time": 95.502, "note_off_time": 95.579}, {"pitch": 76, "velocity": 33, "note_on_time": 95.728, "note_off_time": 95.866}, {"pitch": 74, "velocity": 38, "note_on_time": 96.19, "note_off_time": 96.351}, {"pitch": 72, "velocity": 47, "note_on_time": 96.478, "note_off_time": 96.614}, {"pitch": 77, "velocity": 55, "note_on_time": 96.819, "note_off_time": 97.079}, {"pitch": 76, "velocity": 47, "note_on_time": 97.348, "note_off_time": 97.59}, {"pitch": 72, "velocity": 51, "note_on_time": 98.014, "note_off_time": 98.142}, {"pitch": 74, "velocity": 41, "note_on_time": 98.54, "note_off_time": 98.709}, {"pitch": 76, "velocity": 36, "note_on_time": 99.058, "note_off_time": 99.205}, {"pitch": 79, "velocity": 43, "note_on_time": 101.043, "note_off_time": 101.283}, {"pitch": 79, "velocity": 51, "note_on_time": 101.546, "note_off_time": 101.736}, {"pitch": 77, "velocity": 49, "note_on_time": 102.37, "note_off_time": 102.522}, {"pitch": 76, "velocity": 63, "note_on_time": 103.315, "note_off_time": 103.467}, {"pitch": 76, "velocity": 47, "note_on_time": 103.661, "note_off_time": 103.782}, {"pitch": 76, "velocity": 74, "note_on_time": 104.008, "note_off_time": 104.191}, {"pitch": 76, "velocity": 56, "note_on_time": 104.594, "note_off_time": 104.764}, {"pitch": 76, "velocity": 70, "note_on_time": 104.934, "note_off_time": 105.077}, {"pitch": 76, "velocity": 54, "note_on_time": 105.183, "note_off_time": 105.393}, {"pitch": 76, "velocity": 35, "note_on_time": 106.22, "note_off_time": 106.383}, {"pitch": 72, "velocity": 51, "note_on_time": 106.661, "note_off_time": 106.846}, {"pitch": 72, "velocity": 30, "note_on_time": 107.298, "note_off_time": 107.455}, {"pitch": 74, "velocity": 61, "note_on_time": 107.607, "note_off_time": 107.807}, {"pitch": 76, "velocity": 43, "note_on_time": 108.042, "note_off_time": 108.223}, {"pitch": 77, "velocity": 37, "note_on_time": 108.343, "note_off_time": 108.544}, {"pitch": 77, "velocity": 42, "note_on_time": 108.789, "note_off_time": 108.912}, {"pitch": 79, "velocity": 1, "note_on_time": 108.823, "note_off_time": 109.048}, {"pitch": 72, "velocity": 53, "note_on_time": 109.153, "note_off_time": 109.355}, {"pitch": 74, "velocity": 54, "note_on_time": 109.519, "note_off_time": 109.706}, {"pitch": 76, "velocity": 41, "note_on_time": 110.106, "note_off_time": 110.263}, {"pitch": 76, "velocity": 48, "note_on_time": 110.452, "note_off_time": 110.619}, {"pitch": 76, "velocity": 52, "note_on_time": 110.764, "note_off_time": 110.929}, {"pitch": 77, "velocity": 56, "note_on_time": 111.419, "note_off_time": 111.638}, {"pitch": 77, "velocity": 45, "note_on_time": 111.894, "note_off_time": 112.017}, {"pitch": 77, "velocity": 41, "note_on_time": 112.201, "note_off_time": 112.383}, {"pitch": 79, "velocity": 61, "note_on_time": 112.689, "note_off_time": 112.898}, {"pitch": 74, "velocity": 53, "note_on_time": 113.175, "note_off_time": 113.349}, {"pitch": 72, "velocity": 26, "note_on_time": 113.776, "note_off_time": 113.989}, {"pitch": 72, "velocity": 57, "note_on_time": 114.282, "note_off_time": 114.453}, {"pitch": 72, "velocity": 55, "note_on_time": 114.629, "note_off_time": 114.743}, {"pitch": 74, "velocity": 28, "note_on_time": 115.891, "note_off_time": 115.988}, {"pitch": 72, "velocity": 25, "note_on_time": 116.024, "note_off_time": 116.11}, {"pitch": 74, "velocity": 25, "note_on_time": 116.318, "note_off_time": 116.48}, {"pitch": 76, "velocity": 38, "note_on_time": 116.635, "note_off_time": 116.815}, {"pitch": 72, "velocity": 64, "note_on_time": 116.915, "note_off_time": 117.082}, {"pitch": 72, "velocity": 58, "note_on_time": 117.521, "note_off_time": 117.636}, {"pitch": 74, "velocity": 34, "note_on_time": 117.805, "note_off_time": 117.962}, {"pitch": 72, "velocity": 63, "note_on_time": 117.972, "note_off_time": 118.078}, {"pitch": 74, "velocity": 21, "note_on_time": 118.638, "note_off_time": 118.757}, {"pitch": 74, "velocity": 35, "note_on_time": 118.974, "note_off_time": 119.094}, {"pitch": 76, "velocity": 45, "note_on_time": 119.264, "note_off_time": 119.426}, {"pitch": 76, "velocity": 47, "note_on_time": 119.859, "note_off_time": 120.005}, {"pitch": 76, "velocity": 52, "note_on_time": 120.174, "note_off_time": 120.327}, {"pitch": 77, "velocity": 43, "note_on_time": 120.541, "note_off_time": 120.739}, {"pitch": 74, "velocity": 63, "note_on_time": 121.458, "note_off_time": 121.615}, {"pitch": 76, "velocity": 39, "note_on_time": 121.795, "note_off_time": 121.922}, {"pitch": 76, "velocity": 35, "note_on_time": 122.11, "note_off_time": 122.253}, {"pitch": 77, "velocity": 38, "note_on_time": 122.429, "note_off_time": 122.604}, {"pitch": 74, "velocity": 54, "note_on_time": 122.806, "note_off_time": 123.01}, {"pitch": 72, "velocity": 52, "note_on_time": 123.154, "note_off_time": 123.318}, {"pitch": 76, "velocity": 34, "note_on_time": 123.66, "note_off_time": 123.888}, {"pitch": 72, "velocity": 19, "note_on_time": 123.92, "note_off_time": 124.197}, {"pitch": 79, "velocity": 52, "note_on_time": 124.565, "note_off_time": 124.836}, {"pitch": 77, "velocity": 53, "note_on_time": 125.203, "note_off_time": 125.427}, {"pitch": 77, "velocity": 39, "note_on_time": 125.658, "note_off_time": 125.802}, {"pitch": 76, "velocity": 29, "note_on_time": 125.803, "note_off_time": 125.925}, {"pitch": 76, "velocity": 41, "note_on_time": 126.274, "note_off_time": 126.446}, {"pitch": 76, "velocity": 42, "note_on_time": 126.81, "note_off_time": 127.042}, {"pitch": 72, "velocity": 45, "note_on_time": 127.756, "note_off_time": 127.935}, {"pitch": 74, "velocity": 55, "note_on_time": 128.137, "note_off_time": 128.271}, {"pitch": 76, "velocity": 25, "note_on_time": 128.394, "note_off_time": 128.576}, {"pitch": 76, "velocity": 43, "note_on_time": 128.722, "note_off_time": 128.99}, {"pitch": 74, "velocity": 53, "note_on_time": 129.758, "note_off_time": 129.887}, {"pitch": 74, "velocity": 45, "note_on_time": 130.026, "note_off_time": 130.152}, {"pitch": 76, "velocity": 26, "note_on_time": 129.176, "note_off_time": 130.434}, {"pitch": 74, "velocity": 41, "note_on_time": 130.483, "note_off_time": 130.68}, {"pitch": 76, "velocity": 1, "note_on_time": 131.058, "note_off_time": 131.252}, {"pitch": 76, "velocity": 38, "note_on_time": 131.525, "note_off_time": 131.774}, {"pitch": 76, "velocity": 39, "note_on_time": 131.977, "note_off_time": 132.08}, {"pitch": 76, "velocity": 49, "note_on_time": 132.441, "note_off_time": 132.628}, {"pitch": 74, "velocity": 48, "note_on_time": 133.165, "note_off_time": 133.292}, {"pitch": 74, "velocity": 44, "note_on_time": 133.46, "note_off_time": 133.597}, {"pitch": 72, "velocity": 54, "note_on_time": 133.795, "note_off_time": 133.933}, {"pitch": 72, "velocity": 65, "note_on_time": 134.241, "note_off_time": 134.42}, {"pitch": 72, "velocity": 53, "note_on_time": 134.754, "note_off_time": 134.944}, {"pitch": 76, "velocity": 19, "note_on_time": 135.392, "note_off_time": 135.66}, {"pitch": 74, "velocity": 34, "note_on_time": 135.817, "note_off_time": 135.918}, {"pitch": 72, "velocity": 57, "note_on_time": 135.912, "note_off_time": 135.978}, {"pitch": 76, "velocity": 19, "note_on_time": 136.301, "note_off_time": 136.452}, {"pitch": 79, "velocity": 55, "note_on_time": 137.091, "note_off_time": 137.302}, {"pitch": 77, "velocity": 1, "note_on_time": 137.787, "note_off_time": 137.905}, {"pitch": 77, "velocity": 70, "note_on_time": 138.219, "note_off_time": 138.409}, {"pitch": 76, "velocity": 43, "note_on_time": 138.756, "note_off_time": 138.942}, {"pitch": 77, "velocity": 36, "note_on_time": 139.581, "note_off_time": 139.762}, {"pitch": 77, "velocity": 50, "note_on_time": 139.961, "note_off_time": 140.135}, {"pitch": 77, "velocity": 63, "note_on_time": 140.35, "note_off_time": 140.565}, {"pitch": 79, "velocity": 67, "note_on_time": 141.027, "note_off_time": 141.216}, {"pitch": 79, "velocity": 59, "note_on_time": 141.39, "note_off_time": 141.516}, {"pitch": 79, "velocity": 55, "note_on_time": 141.682, "note_off_time": 141.892}, {"pitch": 76, "velocity": 49, "note_on_time": 142.542, "note_off_time": 142.679}, {"pitch": 76, "velocity": 35, "note_on_time": 142.893, "note_off_time": 143.068}, {"pitch": 77, "velocity": 55, "note_on_time": 143.197, "note_off_time": 143.36}, {"pitch": 76, "velocity": 46, "note_on_time": 143.512, "note_off_time": 143.686}, {"pitch": 76, "velocity": 29, "note_on_time": 143.865, "note_off_time": 143.993}, {"pitch": 74, "velocity": 64, "note_on_time": 143.918, "note_off_time": 144.072}, {"pitch": 74, "velocity": 51, "note_on_time": 144.279, "note_off_time": 144.348}, {"pitch": 76, "velocity": 33, "note_on_time": 144.532, "note_off_time": 144.947}, {"pitch": 74, "velocity": 45, "note_on_time": 145.229, "note_off_time": 145.358}, {"pitch": 76, "velocity": 31, "note_on_time": 145.542, "note_off_time": 145.77}, {"pitch": 77, "velocity": 42, "note_on_time": 146.124, "note_off_time": 146.237}, {"pitch": 76, "velocity": 47, "note_on_time": 146.548, "note_off_time": 146.715}, {"pitch": 76, "velocity": 49, "note_on_time": 146.836, "note_off_time": 146.991}, {"pitch": 74, "velocity": 31, "note_on_time": 147.404, "note_off_time": 147.565}, {"pitch": 74, "velocity": 1, "note_on_time": 147.91, "note_off_time": 148.084}, {"pitch": 74, "velocity": 60, "note_on_time": 148.313, "note_off_time": 148.483}, {"pitch": 72, "velocity": 52, "note_on_time": 148.966, "note_off_time": 149.081}, {"pitch": 72, "velocity": 37, "note_on_time": 149.31, "note_off_time": 149.507}, {"pitch": 74, "velocity": 56, "note_on_time": 149.668, "note_off_time": 149.85}, {"pitch": 76, "velocity": 49, "note_on_time": 150.025, "note_off_time": 150.166}, {"pitch": 77, "velocity": 44, "note_on_time": 150.326, "note_off_time": 150.56}, {"pitch": 79, "velocity": 57, "note_on_time": 150.736, "note_off_time": 150.927}, {"pitch": 76, "velocity": 48, "note_on_time": 151.079, "note_off_time": 151.298}, {"pitch": 74, "velocity": 42, "note_on_time": 151.368, "note_off_time": 151.562}, {"pitch": 72, "velocity": 36, "note_on_time": 151.947, "note_off_time": 152.09}, {"pitch": 72, "velocity": 59, "note_on_time": 152.263, "note_off_time": 152.344}, {"pitch": 76, "velocity": 48, "note_on_time": 152.54, "note_off_time": 152.76}, {"pitch": 74, "velocity": 48, "note_on_time": 152.854, "note_off_time": 153.003}, {"pitch": 77, "velocity": 56, "note_on_time": 153.349, "note_off_time": 153.515}, {"pitch": 74, "velocity": 22, "note_on_time": 153.673, "note_off_time": 153.783}, {"pitch": 76, "velocity": 49, "note_on_time": 153.723, "note_off_time": 153.938}, {"pitch": 74, "velocity": 49, "note_on_time": 154.064, "note_off_time": 154.222}, {"pitch": 72, "velocity": 61, "note_on_time": 154.371, "note_off_time": 154.553}, {"pitch": 72, "velocity": 52, "note_on_time": 154.917, "note_off_time": 155.102}, {"pitch": 74, "velocity": 55, "note_on_time": 155.223, "note_off_time": 155.384}, {"pitch": 76, "velocity": 45, "note_on_time": 155.562, "note_off_time": 155.797}, {"pitch": 79, "velocity": 35, "note_on_time": 155.885, "note_off_time": 156.115}, {"pitch": 77, "velocity": 46, "note_on_time": 156.262, "note_off_time": 156.449}, {"pitch": 76, "velocity": 26, "note_on_time": 156.732, "note_off_time": 156.918}, {"pitch": 74, "velocity": 1, "note_on_time": 157.06, "note_off_time": 157.164}, {"pitch": 72, "velocity": 61, "note_on_time": 157.488, "note_off_time": 157.646}, {"pitch": 74, "velocity": 46, "note_on_time": 157.877, "note_off_time": 158.01}, {"pitch": 76, "velocity": 35, "note_on_time": 158.184, "note_off_time": 158.365}, {"pitch": 74, "velocity": 57, "note_on_time": 158.535, "note_off_time": 158.683}, {"pitch": 72, "velocity": 53, "note_on_time": 158.921, "note_off_time": 159.039}, {"pitch": 76, "velocity": 48, "note_on_time": 159.36, "note_off_time": 159.519}, {"pitch": 77, "velocity": 41, "note_on_time": 159.813, "note_off_time": 159.951}, {"pitch": 72, "velocity": 19, "note_on_time": 160.277, "note_off_time": 160.384}, {"pitch": 74, "velocity": 40, "note_on_time": 160.904, "note_off_time": 161.054}, {"pitch": 76, "velocity": 38, "note_on_time": 161.178, "note_off_time": 161.387}, {"pitch": 79, "velocity": 56, "note_on_time": 161.541, "note_off_time": 161.734}, {"pitch": 77, "velocity": 37, "note_on_time": 162.287, "note_off_time": 162.48}, {"pitch": 76, "velocity": 29, "note_on_time": 162.642, "note_off_time": 162.928}, {"pitch": 74, "velocity": 53, "note_on_time": 163.305, "note_off_time": 163.482}, {"pitch": 72, "velocity": 49, "note_on_time": 163.629, "note_off_time": 163.783}, {"pitch": 76, "velocity": 40, "note_on_time": 164.136, "note_off_time": 164.393}, {"pitch": 77, "velocity": 41, "note_on_time": 164.907, "note_off_time": 165.11}, {"pitch": 79, "velocity": 64, "note_on_time": 165.28, "note_off_time": 165.479}, {"pitch": 76, "velocity": 30, "note_on_time": 165.692, "note_off_time": 165.945}, {"pitch": 74, "velocity": 28, "note_on_time": 166.011, "note_off_time": 166.209}, {"pitch": 72, "velocity": 55, "note_on_time": 166.34, "note_off_time": 166.518}, {"pitch": 76, "velocity": 43, "note_on_time": 166.792, "note_off_time": 167.058}, {"pitch": 77, "velocity": 51, "note_on_time": 167.202, "note_off_time": 167.355}, {"pitch": 76, "velocity": 37, "note_on_time": 167.759, "note_off_time": 168.074}, {"pitch": 74, "velocity": 55, "note_on_time": 168.135, "note_off_time": 168.284}, {"pitch": 72, "velocity": 49, "note_on_time": 168.451, "note_off_time": 168.588}, {"pitch": 74, "velocity": 55, "note_on_time": 168.897, "note_off_time": 169.049}, {"pitch": 76, "velocity": 38, "note_on_time": 169.184, "note_off_time": 169.349}, {"pitch": 76, "velocity": 30, "note_on_time": 169.831, "note_off_time": 169.966}, {"pitch": 79, "velocity": 30, "note_on_time": 170.32, "note_off_time": 170.485}, {"pitch": 79, "velocity": 62, "note_on_time": 170.871, "note_off_time": 171.11}, {"pitch": 79, "velocity": 64, "note_on_time": 171.347, "note_off_time": 171.535}, {"pitch": 77, "velocity": 60, "note_on_time": 172.528, "note_off_time": 172.691}, {"pitch": 77, "velocity": 61, "note_on_time": 172.955, "note_off_time": 173.136}, {"pitch": 77, "velocity": 30, "note_on_time": 173.391, "note_off_time": 173.58}, {"pitch": 76, "velocity": 41, "note_on_time": 174.232, "note_off_time": 174.434}, {"pitch": 76, "velocity": 11, "note_on_time": 174.606, "note_off_time": 174.849}, {"pitch": 76, "velocity": 48, "note_on_time": 175.036, "note_off_time": 175.241}, {"pitch": 77, "velocity": 52, "note_on_time": 175.611, "note_off_time": 175.791}, {"pitch": 79, "velocity": 51, "note_on_time": 175.984, "note_off_time": 176.201}, {"pitch": 76, "velocity": 31, "note_on_time": 176.369, "note_off_time": 176.881}, {"pitch": 74, "velocity": 33, "note_on_time": 176.736, "note_off_time": 176.882}, {"pitch": 72, "velocity": 47, "note_on_time": 176.866, "note_off_time": 176.986}, {"pitch": 72, "velocity": 39, "note_on_time": 180.079, "note_off_time": 180.231}, {"pitch": 72, "velocity": 39, "note_on_time": 180.421, "note_off_time": 180.578}, {"pitch": 72, "velocity": 55, "note_on_time": 180.736, "note_off_time": 180.87}, {"pitch": 74, "velocity": 38, "note_on_time": 181.463, "note_off_time": 181.612}, {"pitch": 74, "velocity": 49, "note_on_time": 181.814, "note_off_time": 181.934}, {"pitch": 74, "velocity": 38, "note_on_time": 182.141, "note_off_time": 182.324}, {"pitch": 76, "velocity": 36, "note_on_time": 182.76, "note_off_time": 182.946}, {"pitch": 76, "velocity": 20, "note_on_time": 183.172, "note_off_time": 183.339}, {"pitch": 74, "velocity": 43, "note_on_time": 183.507, "note_off_time": 183.704}, {"pitch": 74, "velocity": 36, "note_on_time": 183.952, "note_off_time": 184.053}, {"pitch": 71, "velocity": 1, "note_on_time": 184.475, "note_off_time": 184.628}, {"pitch": 72, "velocity": 3, "note_on_time": 184.484, "note_off_time": 184.655}, {"pitch": 72, "velocity": 66, "note_on_time": 184.956, "note_off_time": 185.078}, {"pitch": 72, "velocity": 66, "note_on_time": 185.388, "note_off_time": 185.593}, {"pitch": 72, "velocity": 46, "note_on_time": 186.004, "note_off_time": 186.196}, {"pitch": 76, "velocity": 30, "note_on_time": 186.503, "note_off_time": 186.718}, {"pitch": 76, "velocity": 39, "note_on_time": 186.856, "note_off_time": 186.956}, {"pitch": 76, "velocity": 33, "note_on_time": 187.099, "note_off_time": 187.337}, {"pitch": 74, "velocity": 47, "note_on_time": 187.551, "note_off_time": 187.682}, {"pitch": 72, "velocity": 63, "note_on_time": 187.81, "note_off_time": 187.981}, {"pitch": 77, "velocity": 59, "note_on_time": 188.394, "note_off_time": 188.64}, {"pitch": 76, "velocity": 34, "note_on_time": 188.891, "note_off_time": 189.145}, {"pitch": 76, "velocity": 58, "note_on_time": 189.383, "note_off_time": 189.602}, {"pitch": 77, "velocity": 41, "note_on_time": 190.044, "note_off_time": 190.263}, {"pitch": 77, "velocity": 38, "note_on_time": 190.46, "note_off_time": 190.624}, {"pitch": 74, "velocity": 58, "note_on_time": 191.642, "note_off_time": 191.777}, {"pitch": 74, "velocity": 48, "note_on_time": 192.118, "note_off_time": 192.292}, {"pitch": 72, "velocity": 57, "note_on_time": 192.487, "note_off_time": 192.674}, {"pitch": 74, "velocity": 58, "note_on_time": 193.105, "note_off_time": 193.272}, {"pitch": 76, "velocity": 41, "note_on_time": 193.397, "note_off_time": 193.608}, {"pitch": 77, "velocity": 57, "note_on_time": 193.769, "note_off_time": 194.003}, {"pitch": 79, "velocity": 46, "note_on_time": 194.203, "note_off_time": 194.424}]</notes><guidance name="Guidance Mode">None</guidance><error name="Error value">99</error></trial></trials></MIDI>