<MIDI midiNo="2024_02_26-10_27_35"><target_notes><notes name="Note List">[{"pitch": 48, "velocity": 40, "note_on_time": 0.029, "note_off_time": 0.631}, {"pitch": 52, "velocity": 40, "note_on_time": 0.631, "note_off_time": 1.239}, {"pitch": 55, "velocity": 40, "note_on_time": 0.631, "note_off_time": 1.239}, {"pitch": 48, "velocity": 40, "note_on_time": 1.239, "note_off_time": 1.851}, {"pitch": 52, "velocity": 40, "note_on_time": 1.851, "note_off_time": 2.455}, {"pitch": 55, "velocity": 40, "note_on_time": 1.851, "note_off_time": 2.455}, {"pitch": 48, "velocity": 40, "note_on_time": 2.455, "note_off_time": 3.062}, {"pitch": 52, "velocity": 40, "note_on_time": 3.062, "note_off_time": 3.673}, {"pitch": 55, "velocity": 40, "note_on_time": 3.062, "note_off_time": 3.673}, {"pitch": 48, "velocity": 40, "note_on_time": 3.673, "note_off_time": 4.277}, {"pitch": 52, "velocity": 40, "note_on_time": 4.277, "note_off_time": 4.891}, {"pitch": 55, "velocity": 40, "note_on_time": 4.277, "note_off_time": 4.891}, {"pitch": 48, "velocity": 40, "note_on_time": 4.891, "note_off_time": 5.496}, {"pitch": 52, "velocity": 40, "note_on_time": 5.496, "note_off_time": 6.109}, {"pitch": 55, "velocity": 40, "note_on_time": 5.496, "note_off_time": 6.109}, {"pitch": 48, "velocity": 40, "note_on_time": 6.109, "note_off_time": 6.717}, {"pitch": 52, "velocity": 40, "note_on_time": 6.717, "note_off_time": 7.323}, {"pitch": 55, "velocity": 40, "note_on_time": 6.717, "note_off_time": 7.323}, {"pitch": 48, "velocity": 40, "note_on_time": 7.323, "note_off_time": 7.93}, {"pitch": 52, "velocity": 40, "note_on_time": 7.93, "note_off_time": 8.539}, {"pitch": 55, "velocity": 40, "note_on_time": 7.931, "note_off_time": 8.539}, {"pitch": 48, "velocity": 40, "note_on_time": 8.539, "note_off_time": 9.146}, {"pitch": 52, "velocity": 40, "note_on_time": 9.146, "note_off_time": 9.761}, {"pitch": 55, "velocity": 40, "note_on_time": 9.146, "note_off_time": 9.761}, {"pitch": 48, "velocity": 40, "note_on_time": 9.761, "note_off_time": 10.366}, {"pitch": 52, "velocity": 40, "note_on_time": 10.366, "note_off_time": 10.973}, {"pitch": 55, "velocity": 40, "note_on_time": 10.366, "note_off_time": 10.973}, {"pitch": 48, "velocity": 40, "note_on_time": 10.973, "note_off_time": 11.576}, {"pitch": 52, "velocity": 40, "note_on_time": 11.576, "note_off_time": 12.19}, {"pitch": 55, "velocity": 40, "note_on_time": 11.576, "note_off_time": 12.19}, {"pitch": 48, "velocity": 40, "note_on_time": 12.19, "note_off_time": 12.793}, {"pitch": 52, "velocity": 40, "note_on_time": 12.793, "note_off_time": 13.405}, {"pitch": 55, "velocity": 40, "note_on_time": 12.793, "note_off_time": 13.405}, {"pitch": 48, "velocity": 40, "note_on_time": 13.405, "note_off_time": 14.017}, {"pitch": 52, "velocity": 40, "note_on_time": 14.017, "note_off_time": 14.624}, {"pitch": 55, "velocity": 40, "note_on_time": 14.017, "note_off_time": 14.624}, {"pitch": 48, "velocity": 40, "note_on_time": 14.624, "note_off_time": 15.233}, {"pitch": 52, "velocity": 40, "note_on_time": 15.233, "note_off_time": 15.847}, {"pitch": 55, "velocity": 40, "note_on_time": 15.233, "note_off_time": 15.847}, {"pitch": 48, "velocity": 40, "note_on_time": 15.847, "note_off_time": 16.451}, {"pitch": 52, "velocity": 40, "note_on_time": 16.451, "note_off_time": 17.062}, {"pitch": 55, "velocity": 40, "note_on_time": 16.451, "note_off_time": 17.062}, {"pitch": 48, "velocity": 40, "note_on_time": 17.062, "note_off_time": 17.672}, {"pitch": 52, "velocity": 40, "note_on_time": 17.672, "note_off_time": 18.274}, {"pitch": 55, "velocity": 40, "note_on_time": 17.672, "note_off_time": 18.274}, {"pitch": 48, "velocity": 40, "note_on_time": 18.274, "note_off_time": 18.877}, {"pitch": 52, "velocity": 40, "note_on_time": 18.877, "note_off_time": 19.478}, {"pitch": 55, "velocity": 40, "note_on_time": 18.877, "note_off_time": 19.478}, {"pitch": 48, "velocity": 40, "note_on_time": 19.478, "note_off_time": 20.079}, {"pitch": 52, "velocity": 40, "note_on_time": 20.079, "note_off_time": 20.686}, {"pitch": 55, "velocity": 40, "note_on_time": 20.079, "note_off_time": 20.686}, {"pitch": 48, "velocity": 40, "note_on_time": 20.686, "note_off_time": 21.291}, {"pitch": 52, "velocity": 40, "note_on_time": 21.291, "note_off_time": 21.905}, {"pitch": 55, "velocity": 40, "note_on_time": 21.291, "note_off_time": 21.905}, {"pitch": 48, "velocity": 40, "note_on_time": 21.905, "note_off_time": 22.514}, {"pitch": 52, "velocity": 40, "note_on_time": 22.514, "note_off_time": 23.119}, {"pitch": 55, "velocity": 40, "note_on_time": 22.514, "note_off_time": 23.119}, {"pitch": 48, "velocity": 40, "note_on_time": 23.119, "note_off_time": 23.733}, {"pitch": 52, "velocity": 40, "note_on_time": 23.733, "note_off_time": 24.336}, {"pitch": 55, "velocity": 40, "note_on_time": 23.733, "note_off_time": 24.336}, {"pitch": 48, "velocity": 40, "note_on_time": 24.336, "note_off_time": 24.94}, {"pitch": 52, "velocity": 40, "note_on_time": 24.94, "note_off_time": 25.545}, {"pitch": 55, "velocity": 40, "note_on_time": 24.94, "note_off_time": 25.545}, {"pitch": 48, "velocity": 40, "note_on_time": 25.545, "note_off_time": 26.149}, {"pitch": 52, "velocity": 40, "note_on_time": 26.149, "note_off_time": 26.751}, {"pitch": 55, "velocity": 40, "note_on_time": 26.149, "note_off_time": 26.751}, {"pitch": 48, "velocity": 40, "note_on_time": 26.751, "note_off_time": 27.362}, {"pitch": 52, "velocity": 40, "note_on_time": 27.362, "note_off_time": 27.963}, {"pitch": 55, "velocity": 40, "note_on_time": 27.362, "note_off_time": 27.963}, {"pitch": 48, "velocity": 40, "note_on_time": 27.963, "note_off_time": 28.579}, {"pitch": 52, "velocity": 40, "note_on_time": 28.579, "note_off_time": 29.187}, {"pitch": 55, "velocity": 40, "note_on_time": 28.579, "note_off_time": 29.187}, {"pitch": 48, "velocity": 40, "note_on_time": 29.187, "note_off_time": 29.789}, {"pitch": 52, "velocity": 40, "note_on_time": 29.789, "note_off_time": 30.39}, {"pitch": 55, "velocity": 40, "note_on_time": 29.789, "note_off_time": 30.39}, {"pitch": 48, "velocity": 40, "note_on_time": 30.39, "note_off_time": 30.994}, {"pitch": 52, "velocity": 40, "note_on_time": 30.994, "note_off_time": 31.61}, {"pitch": 55, "velocity": 40, "note_on_time": 30.994, "note_off_time": 31.61}, {"pitch": 48, "velocity": 40, "note_on_time": 31.61, "note_off_time": 32.22}, {"pitch": 52, "velocity": 40, "note_on_time": 32.22, "note_off_time": 32.831}, {"pitch": 55, "velocity": 40, "note_on_time": 32.22, "note_off_time": 32.831}, {"pitch": 48, "velocity": 40, "note_on_time": 32.831, "note_off_time": 33.438}, {"pitch": 52, "velocity": 40, "note_on_time": 33.438, "note_off_time": 34.041}, {"pitch": 55, "velocity": 40, "note_on_time": 33.438, "note_off_time": 34.041}, {"pitch": 48, "velocity": 40, "note_on_time": 34.041, "note_off_time": 34.65}, {"pitch": 52, "velocity": 40, "note_on_time": 34.65, "note_off_time": 35.252}, {"pitch": 55, "velocity": 40, "note_on_time": 34.65, "note_off_time": 35.253}, {"pitch": 48, "velocity": 40, "note_on_time": 35.253, "note_off_time": 35.881}, {"pitch": 52, "velocity": 40, "note_on_time": 35.883, "note_off_time": 36.499}, {"pitch": 55, "velocity": 40, "note_on_time": 35.883, "note_off_time": 36.503}, {"pitch": 48, "velocity": 40, "note_on_time": 36.511, "note_off_time": 37.116}, {"pitch": 52, "velocity": 40, "note_on_time": 37.116, "note_off_time": 37.724}, {"pitch": 55, "velocity": 40, "note_on_time": 37.116, "note_off_time": 37.724}, {"pitch": 48, "velocity": 40, "note_on_time": 37.724, "note_off_time": 38.331}, {"pitch": 52, "velocity": 40, "note_on_time": 38.331, "note_off_time": 38.941}, {"pitch": 55, "velocity": 40, "note_on_time": 38.331, "note_off_time": 38.941}, {"pitch": 48, "velocity": 40, "note_on_time": 38.941, "note_off_time": 39.548}, {"pitch": 52, "velocity": 40, "note_on_time": 39.548, "note_off_time": 40.156}, {"pitch": 55, "velocity": 40, "note_on_time": 39.548, "note_off_time": 40.156}, {"pitch": 48, "velocity": 40, "note_on_time": 40.156, "note_off_time": 40.761}, {"pitch": 52, "velocity": 40, "note_on_time": 40.761, "note_off_time": 41.374}, {"pitch": 55, "velocity": 40, "note_on_time": 40.761, "note_off_time": 41.375}, {"pitch": 48, "velocity": 40, "note_on_time": 41.375, "note_off_time": 41.982}, {"pitch": 52, "velocity": 40, "note_on_time": 41.982, "note_off_time": 42.589}, {"pitch": 55, "velocity": 40, "note_on_time": 41.982, "note_off_time": 42.589}, {"pitch": 48, "velocity": 40, "note_on_time": 42.589, "note_off_time": 43.195}, {"pitch": 52, "velocity": 40, "note_on_time": 43.195, "note_off_time": 43.806}, {"pitch": 55, "velocity": 40, "note_on_time": 43.195, "note_off_time": 43.806}, {"pitch": 48, "velocity": 40, "note_on_time": 43.806, "note_off_time": 44.413}, {"pitch": 52, "velocity": 40, "note_on_time": 44.413, "note_off_time": 45.021}, {"pitch": 55, "velocity": 40, "note_on_time": 44.413, "note_off_time": 45.021}, {"pitch": 48, "velocity": 40, "note_on_time": 45.021, "note_off_time": 45.635}, {"pitch": 52, "velocity": 40, "note_on_time": 45.635, "note_off_time": 46.246}, {"pitch": 55, "velocity": 40, "note_on_time": 45.635, "note_off_time": 46.246}, {"pitch": 48, "velocity": 40, "note_on_time": 46.246, "note_off_time": 46.859}, {"pitch": 52, "velocity": 40, "note_on_time": 46.859, "note_off_time": 47.47}, {"pitch": 55, "velocity": 40, "note_on_time": 46.859, "note_off_time": 47.47}, {"pitch": 48, "velocity": 40, "note_on_time": 47.47, "note_off_time": 48.084}, {"pitch": 52, "velocity": 40, "note_on_time": 48.084, "note_off_time": 48.695}, {"pitch": 55, "velocity": 40, "note_on_time": 48.084, "note_off_time": 48.695}, {"pitch": 48, "velocity": 40, "note_on_time": 48.695, "note_off_time": 49.308}, {"pitch": 52, "velocity": 40, "note_on_time": 49.308, "note_off_time": 49.917}, {"pitch": 55, "velocity": 40, "note_on_time": 49.309, "note_off_time": 49.917}, {"pitch": 48, "velocity": 40, "note_on_time": 49.917, "note_off_time": 50.526}, {"pitch": 52, "velocity": 40, "note_on_time": 50.526, "note_off_time": 51.128}, {"pitch": 55, "velocity": 40, "note_on_time": 50.526, "note_off_time": 51.128}, {"pitch": 48, "velocity": 40, "note_on_time": 51.128, "note_off_time": 51.733}, {"pitch": 52, "velocity": 40, "note_on_time": 51.733, "note_off_time": 52.336}, {"pitch": 55, "velocity": 40, "note_on_time": 51.733, "note_off_time": 52.336}, {"pitch": 48, "velocity": 40, "note_on_time": 52.336, "note_off_time": 52.944}, {"pitch": 52, "velocity": 40, "note_on_time": 52.944, "note_off_time": 53.545}, {"pitch": 55, "velocity": 40, "note_on_time": 52.944, "note_off_time": 53.545}, {"pitch": 48, "velocity": 40, "note_on_time": 53.545, "note_off_time": 54.154}, {"pitch": 52, "velocity": 40, "note_on_time": 54.154, "note_off_time": 54.76}, {"pitch": 55, "velocity": 40, "note_on_time": 54.154, "note_off_time": 54.76}, {"pitch": 48, "velocity": 40, "note_on_time": 54.76, "note_off_time": 55.369}, {"pitch": 52, "velocity": 40, "note_on_time": 55.369, "note_off_time": 55.979}, {"pitch": 55, "velocity": 40, "note_on_time": 55.369, "note_off_time": 55.979}, {"pitch": 48, "velocity": 40, "note_on_time": 55.979, "note_off_time": 56.593}, {"pitch": 52, "velocity": 40, "note_on_time": 56.593, "note_off_time": 57.206}, {"pitch": 55, "velocity": 40, "note_on_time": 56.593, "note_off_time": 57.206}, {"pitch": 48, "velocity": 40, "note_on_time": 57.206, "note_off_time": 57.818}, {"pitch": 52, "velocity": 40, "note_on_time": 57.818, "note_off_time": 58.419}, {"pitch": 55, "velocity": 40, "note_on_time": 57.818, "note_off_time": 58.419}, {"pitch": 48, "velocity": 40, "note_on_time": 58.419, "note_off_time": 59.03}, {"pitch": 52, "velocity": 40, "note_on_time": 59.03, "note_off_time": 59.633}, {"pitch": 55, "velocity": 40, "note_on_time": 59.03, "note_off_time": 59.633}, {"pitch": 48, "velocity": 40, "note_on_time": 59.633, "note_off_time": 60.241}, {"pitch": 52, "velocity": 40, "note_on_time": 60.241, "note_off_time": 60.853}, {"pitch": 55, "velocity": 40, "note_on_time": 60.241, "note_off_time": 60.853}, {"pitch": 48, "velocity": 40, "note_on_time": 60.853, "note_off_time": 61.454}, {"pitch": 52, "velocity": 40, "note_on_time": 61.454, "note_off_time": 62.061}, {"pitch": 55, "velocity": 40, "note_on_time": 61.454, "note_off_time": 62.061}, {"pitch": 48, "velocity": 40, "note_on_time": 62.061, "note_off_time": 62.667}, {"pitch": 52, "velocity": 40, "note_on_time": 62.667, "note_off_time": 63.271}, {"pitch": 55, "velocity": 40, "note_on_time": 62.667, "note_off_time": 63.271}, {"pitch": 48, "velocity": 40, "note_on_time": 63.271, "note_off_time": 63.873}, {"pitch": 52, "velocity": 40, "note_on_time": 63.873, "note_off_time": 64.483}, {"pitch": 55, "velocity": 40, "note_on_time": 63.873, "note_off_time": 64.483}, {"pitch": 48, "velocity": 40, "note_on_time": 64.483, "note_off_time": 65.091}, {"pitch": 52, "velocity": 40, "note_on_time": 65.091, "note_off_time": 65.702}, {"pitch": 55, "velocity": 40, "note_on_time": 65.091, "note_off_time": 65.702}, {"pitch": 48, "velocity": 40, "note_on_time": 65.702, "note_off_time": 66.305}, {"pitch": 52, "velocity": 40, "note_on_time": 66.305, "note_off_time": 66.91}, {"pitch": 55, "velocity": 40, "note_on_time": 66.305, "note_off_time": 66.91}, {"pitch": 48, "velocity": 40, "note_on_time": 66.91, "note_off_time": 67.512}, {"pitch": 52, "velocity": 40, "note_on_time": 67.512, "note_off_time": 68.12}, {"pitch": 55, "velocity": 40, "note_on_time": 67.512, "note_off_time": 68.12}, {"pitch": 48, "velocity": 40, "note_on_time": 68.12, "note_off_time": 68.731}, {"pitch": 52, "velocity": 40, "note_on_time": 68.731, "note_off_time": 69.336}, {"pitch": 55, "velocity": 40, "note_on_time": 68.731, "note_off_time": 69.336}, {"pitch": 48, "velocity": 40, "note_on_time": 69.336, "note_off_time": 69.941}, {"pitch": 52, "velocity": 40, "note_on_time": 69.941, "note_off_time": 70.555}, {"pitch": 55, "velocity": 40, "note_on_time": 69.941, "note_off_time": 70.555}, {"pitch": 48, "velocity": 40, "note_on_time": 70.555, "note_off_time": 71.165}, {"pitch": 52, "velocity": 40, "note_on_time": 71.165, "note_off_time": 71.777}, {"pitch": 55, "velocity": 40, "note_on_time": 71.165, "note_off_time": 71.777}, {"pitch": 48, "velocity": 40, "note_on_time": 71.777, "note_off_time": 72.393}, {"pitch": 52, "velocity": 40, "note_on_time": 72.393, "note_off_time": 73.0}, {"pitch": 55, "velocity": 40, "note_on_time": 72.393, "note_off_time": 73.0}, {"pitch": 48, "velocity": 40, "note_on_time": 73.0, "note_off_time": 73.602}, {"pitch": 52, "velocity": 40, "note_on_time": 73.602, "note_off_time": 74.206}, {"pitch": 55, "velocity": 40, "note_on_time": 73.602, "note_off_time": 74.206}, {"pitch": 48, "velocity": 40, "note_on_time": 74.206, "note_off_time": 74.811}, {"pitch": 52, "velocity": 40, "note_on_time": 74.811, "note_off_time": 75.418}, {"pitch": 55, "velocity": 40, "note_on_time": 74.811, "note_off_time": 75.418}, {"pitch": 48, "velocity": 40, "note_on_time": 75.418, "note_off_time": 76.028}, {"pitch": 52, "velocity": 40, "note_on_time": 76.028, "note_off_time": 76.643}, {"pitch": 55, "velocity": 40, "note_on_time": 76.028, "note_off_time": 76.643}, {"pitch": 48, "velocity": 40, "note_on_time": 76.643, "note_off_time": 77.245}, {"pitch": 52, "velocity": 40, "note_on_time": 77.245, "note_off_time": 77.861}, {"pitch": 55, "velocity": 40, "note_on_time": 77.245, "note_off_time": 77.861}, {"pitch": 48, "velocity": 40, "note_on_time": 77.861, "note_off_time": 78.465}, {"pitch": 52, "velocity": 40, "note_on_time": 78.465, "note_off_time": 79.073}, {"pitch": 55, "velocity": 40, "note_on_time": 78.465, "note_off_time": 79.073}, {"pitch": 48, "velocity": 40, "note_on_time": 79.073, "note_off_time": 79.686}, {"pitch": 52, "velocity": 40, "note_on_time": 79.686, "note_off_time": 80.291}, {"pitch": 55, "velocity": 40, "note_on_time": 79.686, "note_off_time": 80.291}, {"pitch": 48, "velocity": 40, "note_on_time": 80.291, "note_off_time": 80.899}, {"pitch": 52, "velocity": 40, "note_on_time": 80.899, "note_off_time": 81.506}, {"pitch": 55, "velocity": 40, "note_on_time": 80.899, "note_off_time": 81.506}, {"pitch": 48, "velocity": 40, "note_on_time": 81.506, "note_off_time": 82.111}, {"pitch": 52, "velocity": 40, "note_on_time": 82.111, "note_off_time": 82.723}, {"pitch": 55, "velocity": 40, "note_on_time": 82.112, "note_off_time": 82.723}, {"pitch": 48, "velocity": 40, "note_on_time": 82.723, "note_off_time": 83.337}, {"pitch": 52, "velocity": 40, "note_on_time": 83.337, "note_off_time": 83.946}, {"pitch": 55, "velocity": 40, "note_on_time": 83.337, "note_off_time": 83.946}, {"pitch": 48, "velocity": 40, "note_on_time": 83.946, "note_off_time": 84.547}, {"pitch": 52, "velocity": 40, "note_on_time": 84.547, "note_off_time": 85.148}, {"pitch": 55, "velocity": 40, "note_on_time": 84.547, "note_off_time": 85.148}, {"pitch": 48, "velocity": 40, "note_on_time": 85.148, "note_off_time": 85.752}, {"pitch": 52, "velocity": 40, "note_on_time": 85.752, "note_off_time": 86.368}, {"pitch": 55, "velocity": 40, "note_on_time": 85.752, "note_off_time": 86.368}, {"pitch": 48, "velocity": 40, "note_on_time": 86.368, "note_off_time": 86.978}, {"pitch": 52, "velocity": 40, "note_on_time": 86.978, "note_off_time": 87.586}, {"pitch": 55, "velocity": 40, "note_on_time": 86.978, "note_off_time": 87.586}, {"pitch": 48, "velocity": 40, "note_on_time": 87.586, "note_off_time": 88.19}, {"pitch": 52, "velocity": 40, "note_on_time": 88.19, "note_off_time": 88.792}, {"pitch": 55, "velocity": 40, "note_on_time": 88.19, "note_off_time": 88.792}, {"pitch": 48, "velocity": 40, "note_on_time": 88.792, "note_off_time": 89.394}, {"pitch": 52, "velocity": 40, "note_on_time": 89.394, "note_off_time": 90.01}, {"pitch": 55, "velocity": 40, "note_on_time": 89.394, "note_off_time": 90.01}, {"pitch": 48, "velocity": 40, "note_on_time": 90.01, "note_off_time": 90.617}, {"pitch": 52, "velocity": 40, "note_on_time": 90.617, "note_off_time": 91.219}, {"pitch": 55, "velocity": 40, "note_on_time": 90.617, "note_off_time": 91.219}, {"pitch": 48, "velocity": 40, "note_on_time": 91.219, "note_off_time": 91.834}, {"pitch": 52, "velocity": 40, "note_on_time": 91.834, "note_off_time": 92.441}, {"pitch": 55, "velocity": 40, "note_on_time": 91.834, "note_off_time": 92.441}, {"pitch": 48, "velocity": 40, "note_on_time": 92.441, "note_off_time": 93.05}, {"pitch": 52, "velocity": 40, "note_on_time": 93.05, "note_off_time": 93.663}, {"pitch": 55, "velocity": 40, "note_on_time": 93.051, "note_off_time": 93.663}, {"pitch": 48, "velocity": 40, "note_on_time": 93.663, "note_off_time": 94.27}, {"pitch": 52, "velocity": 40, "note_on_time": 94.27, "note_off_time": 94.885}, {"pitch": 55, "velocity": 40, "note_on_time": 94.27, "note_off_time": 94.885}, {"pitch": 48, "velocity": 40, "note_on_time": 94.885, "note_off_time": 95.49}, {"pitch": 52, "velocity": 40, "note_on_time": 95.491, "note_off_time": 96.103}, {"pitch": 55, "velocity": 40, "note_on_time": 95.491, "note_off_time": 96.103}, {"pitch": 48, "velocity": 40, "note_on_time": 96.103, "note_off_time": 96.71}, {"pitch": 52, "velocity": 40, "note_on_time": 96.71, "note_off_time": 97.317}, {"pitch": 55, "velocity": 40, "note_on_time": 96.71, "note_off_time": 97.317}, {"pitch": 48, "velocity": 40, "note_on_time": 97.317, "note_off_time": 97.922}, {"pitch": 52, "velocity": 40, "note_on_time": 97.922, "note_off_time": 98.536}, {"pitch": 55, "velocity": 40, "note_on_time": 97.922, "note_off_time": 98.536}, {"pitch": 48, "velocity": 40, "note_on_time": 98.536, "note_off_time": 99.137}, {"pitch": 52, "velocity": 40, "note_on_time": 99.137, "note_off_time": 99.744}, {"pitch": 55, "velocity": 40, "note_on_time": 99.137, "note_off_time": 99.744}, {"pitch": 48, "velocity": 40, "note_on_time": 99.744, "note_off_time": 100.351}, {"pitch": 52, "velocity": 40, "note_on_time": 100.351, "note_off_time": 100.958}, {"pitch": 55, "velocity": 40, "note_on_time": 100.351, "note_off_time": 100.958}, {"pitch": 48, "velocity": 40, "note_on_time": 100.958, "note_off_time": 101.565}, {"pitch": 52, "velocity": 40, "note_on_time": 101.565, "note_off_time": 102.171}, {"pitch": 55, "velocity": 40, "note_on_time": 101.565, "note_off_time": 102.171}, {"pitch": 48, "velocity": 40, "note_on_time": 102.171, "note_off_time": 102.782}, {"pitch": 52, "velocity": 40, "note_on_time": 102.782, "note_off_time": 103.392}, {"pitch": 55, "velocity": 40, "note_on_time": 102.783, "note_off_time": 103.392}, {"pitch": 48, "velocity": 40, "note_on_time": 103.392, "note_off_time": 103.999}, {"pitch": 52, "velocity": 40, "note_on_time": 104.0, "note_off_time": 104.615}, {"pitch": 55, "velocity": 40, "note_on_time": 104.0, "note_off_time": 104.615}, {"pitch": 48, "velocity": 40, "note_on_time": 104.615, "note_off_time": 105.217}, {"pitch": 52, "velocity": 40, "note_on_time": 105.217, "note_off_time": 105.827}, {"pitch": 55, "velocity": 40, "note_on_time": 105.217, "note_off_time": 105.827}, {"pitch": 48, "velocity": 40, "note_on_time": 105.827, "note_off_time": 106.438}, {"pitch": 52, "velocity": 40, "note_on_time": 106.438, "note_off_time": 107.042}, {"pitch": 55, "velocity": 40, "note_on_time": 106.438, "note_off_time": 107.042}, {"pitch": 48, "velocity": 40, "note_on_time": 107.042, "note_off_time": 107.644}, {"pitch": 52, "velocity": 40, "note_on_time": 107.644, "note_off_time": 108.249}, {"pitch": 55, "velocity": 40, "note_on_time": 107.644, "note_off_time": 108.249}, {"pitch": 48, "velocity": 40, "note_on_time": 108.25, "note_off_time": 108.86}, {"pitch": 52, "velocity": 40, "note_on_time": 108.86, "note_off_time": 109.472}, {"pitch": 55, "velocity": 40, "note_on_time": 108.86, "note_off_time": 109.472}, {"pitch": 48, "velocity": 40, "note_on_time": 109.472, "note_off_time": 110.081}, {"pitch": 52, "velocity": 40, "note_on_time": 110.081, "note_off_time": 110.695}, {"pitch": 55, "velocity": 40, "note_on_time": 110.081, "note_off_time": 110.695}, {"pitch": 48, "velocity": 40, "note_on_time": 110.695, "note_off_time": 111.298}, {"pitch": 52, "velocity": 40, "note_on_time": 111.298, "note_off_time": 111.904}, {"pitch": 55, "velocity": 40, "note_on_time": 111.298, "note_off_time": 111.904}, {"pitch": 48, "velocity": 40, "note_on_time": 111.904, "note_off_time": 112.518}, {"pitch": 52, "velocity": 40, "note_on_time": 112.518, "note_off_time": 113.126}, {"pitch": 55, "velocity": 40, "note_on_time": 112.518, "note_off_time": 113.126}, {"pitch": 48, "velocity": 40, "note_on_time": 113.126, "note_off_time": 113.738}, {"pitch": 52, "velocity": 40, "note_on_time": 113.738, "note_off_time": 114.353}, {"pitch": 55, "velocity": 40, "note_on_time": 113.738, "note_off_time": 114.353}, {"pitch": 48, "velocity": 40, "note_on_time": 114.353, "note_off_time": 114.957}, {"pitch": 52, "velocity": 40, "note_on_time": 114.957, "note_off_time": 115.567}, {"pitch": 55, "velocity": 40, "note_on_time": 114.957, "note_off_time": 115.567}, {"pitch": 48, "velocity": 40, "note_on_time": 115.567, "note_off_time": 116.179}, {"pitch": 52, "velocity": 40, "note_on_time": 116.179, "note_off_time": 116.785}, {"pitch": 55, "velocity": 40, "note_on_time": 116.179, "note_off_time": 116.785}, {"pitch": 48, "velocity": 40, "note_on_time": 116.785, "note_off_time": 117.39}, {"pitch": 52, "velocity": 40, "note_on_time": 117.39, "note_off_time": 117.996}, {"pitch": 55, "velocity": 40, "note_on_time": 117.39, "note_off_time": 117.996}, {"pitch": 48, "velocity": 40, "note_on_time": 117.996, "note_off_time": 118.604}, {"pitch": 52, "velocity": 40, "note_on_time": 118.604, "note_off_time": 119.218}, {"pitch": 55, "velocity": 40, "note_on_time": 118.604, "note_off_time": 119.218}, {"pitch": 48, "velocity": 40, "note_on_time": 119.218, "note_off_time": 119.826}, {"pitch": 52, "velocity": 40, "note_on_time": 119.826, "note_off_time": 120.436}, {"pitch": 55, "velocity": 40, "note_on_time": 119.827, "note_off_time": 120.436}, {"pitch": 48, "velocity": 40, "note_on_time": 120.436, "note_off_time": 121.041}, {"pitch": 52, "velocity": 40, "note_on_time": 121.041, "note_off_time": 121.657}, {"pitch": 55, "velocity": 40, "note_on_time": 121.041, "note_off_time": 121.657}, {"pitch": 48, "velocity": 40, "note_on_time": 121.657, "note_off_time": 122.269}, {"pitch": 52, "velocity": 40, "note_on_time": 122.269, "note_off_time": 122.872}, {"pitch": 55, "velocity": 40, "note_on_time": 122.269, "note_off_time": 122.872}, {"pitch": 48, "velocity": 40, "note_on_time": 122.872, "note_off_time": 123.478}, {"pitch": 52, "velocity": 40, "note_on_time": 123.478, "note_off_time": 124.083}, {"pitch": 55, "velocity": 40, "note_on_time": 123.478, "note_off_time": 124.083}, {"pitch": 48, "velocity": 40, "note_on_time": 124.083, "note_off_time": 124.687}, {"pitch": 52, "velocity": 40, "note_on_time": 124.687, "note_off_time": 125.295}, {"pitch": 55, "velocity": 40, "note_on_time": 124.687, "note_off_time": 125.295}, {"pitch": 48, "velocity": 40, "note_on_time": 125.295, "note_off_time": 125.905}, {"pitch": 52, "velocity": 40, "note_on_time": 125.905, "note_off_time": 126.513}, {"pitch": 55, "velocity": 40, "note_on_time": 125.905, "note_off_time": 126.513}, {"pitch": 48, "velocity": 40, "note_on_time": 126.513, "note_off_time": 127.123}, {"pitch": 52, "velocity": 40, "note_on_time": 127.123, "note_off_time": 127.729}, {"pitch": 55, "velocity": 40, "note_on_time": 127.123, "note_off_time": 127.729}, {"pitch": 48, "velocity": 40, "note_on_time": 127.729, "note_off_time": 128.337}, {"pitch": 52, "velocity": 40, "note_on_time": 128.337, "note_off_time": 128.952}, {"pitch": 55, "velocity": 40, "note_on_time": 128.337, "note_off_time": 128.952}, {"pitch": 48, "velocity": 40, "note_on_time": 128.952, "note_off_time": 129.56}, {"pitch": 52, "velocity": 40, "note_on_time": 129.56, "note_off_time": 130.173}, {"pitch": 55, "velocity": 40, "note_on_time": 129.56, "note_off_time": 130.173}, {"pitch": 48, "velocity": 40, "note_on_time": 130.173, "note_off_time": 130.776}, {"pitch": 52, "velocity": 40, "note_on_time": 130.776, "note_off_time": 131.383}, {"pitch": 55, "velocity": 40, "note_on_time": 130.776, "note_off_time": 131.383}, {"pitch": 48, "velocity": 40, "note_on_time": 131.383, "note_off_time": 131.995}, {"pitch": 52, "velocity": 40, "note_on_time": 131.995, "note_off_time": 132.602}, {"pitch": 55, "velocity": 40, "note_on_time": 131.995, "note_off_time": 132.602}, {"pitch": 48, "velocity": 40, "note_on_time": 132.602, "note_off_time": 133.203}, {"pitch": 52, "velocity": 40, "note_on_time": 133.203, "note_off_time": 133.806}, {"pitch": 55, "velocity": 40, "note_on_time": 133.203, "note_off_time": 133.806}, {"pitch": 48, "velocity": 40, "note_on_time": 133.806, "note_off_time": 134.412}, {"pitch": 52, "velocity": 40, "note_on_time": 134.412, "note_off_time": 135.019}, {"pitch": 55, "velocity": 40, "note_on_time": 134.412, "note_off_time": 135.019}, {"pitch": 48, "velocity": 40, "note_on_time": 135.019, "note_off_time": 135.621}, {"pitch": 52, "velocity": 40, "note_on_time": 135.621, "note_off_time": 136.223}, {"pitch": 55, "velocity": 40, "note_on_time": 135.621, "note_off_time": 136.223}, {"pitch": 48, "velocity": 40, "note_on_time": 136.223, "note_off_time": 136.835}, {"pitch": 52, "velocity": 40, "note_on_time": 136.835, "note_off_time": 137.441}, {"pitch": 55, "velocity": 40, "note_on_time": 136.835, "note_off_time": 137.441}, {"pitch": 48, "velocity": 40, "note_on_time": 137.441, "note_off_time": 138.052}, {"pitch": 52, "velocity": 40, "note_on_time": 138.052, "note_off_time": 138.662}, {"pitch": 55, "velocity": 40, "note_on_time": 138.052, "note_off_time": 138.662}, {"pitch": 48, "velocity": 40, "note_on_time": 138.662, "note_off_time": 139.264}, {"pitch": 52, "velocity": 40, "note_on_time": 139.265, "note_off_time": 139.868}, {"pitch": 55, "velocity": 40, "note_on_time": 139.266, "note_off_time": 139.868}, {"pitch": 48, "velocity": 40, "note_on_time": 139.868, "note_off_time": 140.478}, {"pitch": 52, "velocity": 40, "note_on_time": 140.478, "note_off_time": 141.082}, {"pitch": 55, "velocity": 40, "note_on_time": 140.479, "note_off_time": 141.082}, {"pitch": 48, "velocity": 40, "note_on_time": 141.082, "note_off_time": 141.695}, {"pitch": 52, "velocity": 40, "note_on_time": 141.695, "note_off_time": 142.305}, {"pitch": 55, "velocity": 40, "note_on_time": 141.695, "note_off_time": 142.305}, {"pitch": 48, "velocity": 40, "note_on_time": 142.305, "note_off_time": 142.911}, {"pitch": 52, "velocity": 40, "note_on_time": 142.911, "note_off_time": 143.518}, {"pitch": 55, "velocity": 40, "note_on_time": 142.911, "note_off_time": 143.518}, {"pitch": 48, "velocity": 40, "note_on_time": 143.518, "note_off_time": 144.119}, {"pitch": 52, "velocity": 40, "note_on_time": 144.119, "note_off_time": 144.73}, {"pitch": 55, "velocity": 40, "note_on_time": 144.119, "note_off_time": 144.73}, {"pitch": 48, "velocity": 40, "note_on_time": 144.73, "note_off_time": 145.336}, {"pitch": 52, "velocity": 40, "note_on_time": 145.336, "note_off_time": 145.94}, {"pitch": 55, "velocity": 40, "note_on_time": 145.336, "note_off_time": 145.94}, {"pitch": 48, "velocity": 40, "note_on_time": 145.94, "note_off_time": 146.547}, {"pitch": 52, "velocity": 40, "note_on_time": 146.547, "note_off_time": 147.15}, {"pitch": 55, "velocity": 40, "note_on_time": 146.547, "note_off_time": 147.15}, {"pitch": 48, "velocity": 40, "note_on_time": 147.15, "note_off_time": 147.766}, {"pitch": 52, "velocity": 40, "note_on_time": 147.766, "note_off_time": 148.37}, {"pitch": 55, "velocity": 40, "note_on_time": 147.766, "note_off_time": 148.371}, {"pitch": 48, "velocity": 40, "note_on_time": 148.371, "note_off_time": 148.975}, {"pitch": 52, "velocity": 40, "note_on_time": 148.975, "note_off_time": 149.581}, {"pitch": 55, "velocity": 40, "note_on_time": 148.975, "note_off_time": 149.581}, {"pitch": 48, "velocity": 40, "note_on_time": 149.581, "note_off_time": 150.183}, {"pitch": 52, "velocity": 40, "note_on_time": 150.183, "note_off_time": 150.793}, {"pitch": 55, "velocity": 40, "note_on_time": 150.183, "note_off_time": 150.793}, {"pitch": 48, "velocity": 40, "note_on_time": 150.793, "note_off_time": 151.403}, {"pitch": 52, "velocity": 40, "note_on_time": 151.403, "note_off_time": 152.017}, {"pitch": 55, "velocity": 40, "note_on_time": 151.403, "note_off_time": 152.017}, {"pitch": 48, "velocity": 40, "note_on_time": 152.018, "note_off_time": 152.625}, {"pitch": 52, "velocity": 40, "note_on_time": 152.625, "note_off_time": 153.234}, {"pitch": 55, "velocity": 40, "note_on_time": 152.625, "note_off_time": 153.234}, {"pitch": 48, "velocity": 40, "note_on_time": 153.235, "note_off_time": 153.84}, {"pitch": 52, "velocity": 40, "note_on_time": 153.84, "note_off_time": 154.447}, {"pitch": 55, "velocity": 40, "note_on_time": 153.84, "note_off_time": 154.447}, {"pitch": 48, "velocity": 40, "note_on_time": 154.447, "note_off_time": 155.059}, {"pitch": 52, "velocity": 40, "note_on_time": 155.059, "note_off_time": 155.662}, {"pitch": 55, "velocity": 40, "note_on_time": 155.059, "note_off_time": 155.662}, {"pitch": 48, "velocity": 40, "note_on_time": 155.662, "note_off_time": 156.267}, {"pitch": 52, "velocity": 40, "note_on_time": 156.267, "note_off_time": 156.872}, {"pitch": 55, "velocity": 40, "note_on_time": 156.267, "note_off_time": 156.872}, {"pitch": 48, "velocity": 40, "note_on_time": 156.872, "note_off_time": 157.488}, {"pitch": 52, "velocity": 40, "note_on_time": 157.488, "note_off_time": 158.092}, {"pitch": 55, "velocity": 40, "note_on_time": 157.488, "note_off_time": 158.092}, {"pitch": 48, "velocity": 40, "note_on_time": 158.092, "note_off_time": 158.704}, {"pitch": 52, "velocity": 40, "note_on_time": 158.704, "note_off_time": 159.31}, {"pitch": 55, "velocity": 40, "note_on_time": 158.704, "note_off_time": 159.31}, {"pitch": 48, "velocity": 40, "note_on_time": 159.311, "note_off_time": 159.913}, {"pitch": 52, "velocity": 40, "note_on_time": 159.913, "note_off_time": 160.518}, {"pitch": 55, "velocity": 40, "note_on_time": 159.913, "note_off_time": 160.518}, {"pitch": 48, "velocity": 40, "note_on_time": 160.518, "note_off_time": 161.128}, {"pitch": 52, "velocity": 40, "note_on_time": 161.128, "note_off_time": 161.734}, {"pitch": 55, "velocity": 40, "note_on_time": 161.128, "note_off_time": 161.734}, {"pitch": 48, "velocity": 40, "note_on_time": 161.734, "note_off_time": 162.348}, {"pitch": 52, "velocity": 40, "note_on_time": 162.348, "note_off_time": 162.961}, {"pitch": 55, "velocity": 40, "note_on_time": 162.348, "note_off_time": 162.961}, {"pitch": 48, "velocity": 40, "note_on_time": 162.961, "note_off_time": 163.57}, {"pitch": 52, "velocity": 40, "note_on_time": 163.57, "note_off_time": 164.182}, {"pitch": 55, "velocity": 40, "note_on_time": 163.57, "note_off_time": 164.182}, {"pitch": 48, "velocity": 40, "note_on_time": 164.182, "note_off_time": 164.79}, {"pitch": 52, "velocity": 40, "note_on_time": 164.79, "note_off_time": 165.399}, {"pitch": 55, "velocity": 40, "note_on_time": 164.79, "note_off_time": 165.399}, {"pitch": 48, "velocity": 40, "note_on_time": 165.399, "note_off_time": 166.006}, {"pitch": 52, "velocity": 40, "note_on_time": 166.006, "note_off_time": 166.608}, {"pitch": 55, "velocity": 40, "note_on_time": 166.006, "note_off_time": 166.608}, {"pitch": 48, "velocity": 40, "note_on_time": 166.608, "note_off_time": 167.213}, {"pitch": 52, "velocity": 40, "note_on_time": 167.213, "note_off_time": 167.82}, {"pitch": 55, "velocity": 40, "note_on_time": 167.213, "note_off_time": 167.82}, {"pitch": 48, "velocity": 40, "note_on_time": 167.82, "note_off_time": 168.425}, {"pitch": 52, "velocity": 40, "note_on_time": 168.425, "note_off_time": 169.028}, {"pitch": 55, "velocity": 40, "note_on_time": 168.425, "note_off_time": 169.028}, {"pitch": 48, "velocity": 40, "note_on_time": 169.028, "note_off_time": 169.634}, {"pitch": 52, "velocity": 40, "note_on_time": 169.634, "note_off_time": 170.242}, {"pitch": 55, "velocity": 40, "note_on_time": 169.634, "note_off_time": 170.242}, {"pitch": 48, "velocity": 40, "note_on_time": 170.242, "note_off_time": 170.851}, {"pitch": 52, "velocity": 40, "note_on_time": 170.851, "note_off_time": 171.456}, {"pitch": 55, "velocity": 40, "note_on_time": 170.851, "note_off_time": 171.456}, {"pitch": 48, "velocity": 40, "note_on_time": 171.456, "note_off_time": 172.071}, {"pitch": 52, "velocity": 40, "note_on_time": 172.073, "note_off_time": 172.677}, {"pitch": 55, "velocity": 40, "note_on_time": 172.074, "note_off_time": 172.677}, {"pitch": 48, "velocity": 40, "note_on_time": 172.677, "note_off_time": 173.28}, {"pitch": 52, "velocity": 40, "note_on_time": 173.28, "note_off_time": 173.886}, {"pitch": 55, "velocity": 40, "note_on_time": 173.28, "note_off_time": 173.886}, {"pitch": 48, "velocity": 40, "note_on_time": 173.886, "note_off_time": 174.492}, {"pitch": 52, "velocity": 40, "note_on_time": 174.492, "note_off_time": 175.1}, {"pitch": 55, "velocity": 40, "note_on_time": 174.492, "note_off_time": 175.1}, {"pitch": 48, "velocity": 40, "note_on_time": 175.1, "note_off_time": 175.709}, {"pitch": 52, "velocity": 40, "note_on_time": 175.709, "note_off_time": 176.317}, {"pitch": 55, "velocity": 40, "note_on_time": 175.709, "note_off_time": 176.317}, {"pitch": 48, "velocity": 40, "note_on_time": 176.317, "note_off_time": 176.92}, {"pitch": 52, "velocity": 40, "note_on_time": 176.92, "note_off_time": 177.521}, {"pitch": 55, "velocity": 40, "note_on_time": 176.92, "note_off_time": 177.521}, {"pitch": 48, "velocity": 40, "note_on_time": 177.521, "note_off_time": 178.13}, {"pitch": 52, "velocity": 40, "note_on_time": 178.13, "note_off_time": 178.736}, {"pitch": 55, "velocity": 40, "note_on_time": 178.13, "note_off_time": 178.736}, {"pitch": 48, "velocity": 40, "note_on_time": 178.736, "note_off_time": 179.347}, {"pitch": 52, "velocity": 40, "note_on_time": 179.347, "note_off_time": 179.951}, {"pitch": 55, "velocity": 40, "note_on_time": 179.347, "note_off_time": 179.952}, {"pitch": 48, "velocity": 40, "note_on_time": 179.952, "note_off_time": 180.555}, {"pitch": 52, "velocity": 40, "note_on_time": 180.555, "note_off_time": 181.161}, {"pitch": 55, "velocity": 40, "note_on_time": 180.555, "note_off_time": 181.161}, {"pitch": 48, "velocity": 40, "note_on_time": 181.161, "note_off_time": 181.773}, {"pitch": 52, "velocity": 40, "note_on_time": 181.773, "note_off_time": 182.375}, {"pitch": 55, "velocity": 40, "note_on_time": 181.774, "note_off_time": 182.375}, {"pitch": 48, "velocity": 40, "note_on_time": 182.375, "note_off_time": 182.983}, {"pitch": 52, "velocity": 40, "note_on_time": 182.983, "note_off_time": 183.589}, {"pitch": 55, "velocity": 40, "note_on_time": 182.983, "note_off_time": 183.589}, {"pitch": 48, "velocity": 40, "note_on_time": 183.589, "note_off_time": 184.201}, {"pitch": 52, "velocity": 40, "note_on_time": 184.202, "note_off_time": 184.81}, {"pitch": 55, "velocity": 40, "note_on_time": 184.203, "note_off_time": 184.811}, {"pitch": 48, "velocity": 40, "note_on_time": 184.811, "note_off_time": 185.416}, {"pitch": 52, "velocity": 40, "note_on_time": 185.416, "note_off_time": 186.026}, {"pitch": 55, "velocity": 40, "note_on_time": 185.416, "note_off_time": 186.026}, {"pitch": 48, "velocity": 40, "note_on_time": 186.026, "note_off_time": 186.633}, {"pitch": 52, "velocity": 40, "note_on_time": 186.633, "note_off_time": 187.246}, {"pitch": 55, "velocity": 40, "note_on_time": 186.633, "note_off_time": 187.246}, {"pitch": 48, "velocity": 40, "note_on_time": 187.246, "note_off_time": 187.861}, {"pitch": 52, "velocity": 40, "note_on_time": 187.861, "note_off_time": 188.47}, {"pitch": 55, "velocity": 40, "note_on_time": 187.861, "note_off_time": 188.47}, {"pitch": 48, "velocity": 40, "note_on_time": 188.471, "note_off_time": 189.074}, {"pitch": 52, "velocity": 40, "note_on_time": 189.074, "note_off_time": 189.68}, {"pitch": 55, "velocity": 40, "note_on_time": 189.074, "note_off_time": 189.681}, {"pitch": 48, "velocity": 40, "note_on_time": 189.681, "note_off_time": 190.288}, {"pitch": 52, "velocity": 40, "note_on_time": 190.288, "note_off_time": 190.896}, {"pitch": 55, "velocity": 40, "note_on_time": 190.288, "note_off_time": 190.896}, {"pitch": 48, "velocity": 40, "note_on_time": 190.896, "note_off_time": 191.506}, {"pitch": 52, "velocity": 40, "note_on_time": 191.506, "note_off_time": 192.118}, {"pitch": 55, "velocity": 40, "note_on_time": 191.506, "note_off_time": 192.118}, {"pitch": 48, "velocity": 40, "note_on_time": 192.118, "note_off_time": 192.724}, {"pitch": 52, "velocity": 40, "note_on_time": 192.724, "note_off_time": 193.326}, {"pitch": 55, "velocity": 40, "note_on_time": 192.724, "note_off_time": 193.326}, {"pitch": 48, "velocity": 40, "note_on_time": 193.326, "note_off_time": 193.93}, {"pitch": 52, "velocity": 40, "note_on_time": 193.93, "note_off_time": 194.542}, {"pitch": 55, "velocity": 40, "note_on_time": 193.93, "note_off_time": 194.542}]</notes><options name="Option List">((4, 4), [0.5, 0.25], 3, 8, &lt;NoteRangePerHand.TWO_NOTES: 3&gt;, &lt;NoteRangePerHand.ONE_NOTE: 2&gt;, False, True, True, 100)</options></target_notes><trials /></MIDI>