<MIDI midiNo="2024_02_26-15_21_20"><target_notes><notes name="Note List">[{"pitch": 60, "velocity": 40, "note_on_time": 0.01, "note_off_time": 1.015}, {"pitch": 64, "velocity": 40, "note_on_time": 0.01, "note_off_time": 1.015}, {"pitch": 67, "velocity": 40, "note_on_time": 0.011, "note_off_time": 1.015}, {"pitch": 48, "velocity": 40, "note_on_time": 0.011, "note_off_time": 1.015}, {"pitch": 52, "velocity": 40, "note_on_time": 1.015, "note_off_time": 2.024}, {"pitch": 55, "velocity": 40, "note_on_time": 1.015, "note_off_time": 2.024}, {"pitch": 74, "velocity": 40, "note_on_time": 2.023, "note_off_time": 3.038}, {"pitch": 48, "velocity": 40, "note_on_time": 2.024, "note_off_time": 3.038}, {"pitch": 52, "velocity": 40, "note_on_time": 3.038, "note_off_time": 4.053}, {"pitch": 55, "velocity": 40, "note_on_time": 3.038, "note_off_time": 4.053}, {"pitch": 48, "velocity": 40, "note_on_time": 4.053, "note_off_time": 5.058}, {"pitch": 52, "velocity": 40, "note_on_time": 5.058, "note_off_time": 6.065}, {"pitch": 55, "velocity": 40, "note_on_time": 5.058, "note_off_time": 6.065}, {"pitch": 48, "velocity": 40, "note_on_time": 6.065, "note_off_time": 7.068}, {"pitch": 52, "velocity": 40, "note_on_time": 7.068, "note_off_time": 8.077}, {"pitch": 55, "velocity": 40, "note_on_time": 7.068, "note_off_time": 8.077}, {"pitch": 60, "velocity": 40, "note_on_time": 8.076, "note_off_time": 9.082}, {"pitch": 64, "velocity": 40, "note_on_time": 8.077, "note_off_time": 9.082}, {"pitch": 67, "velocity": 40, "note_on_time": 8.077, "note_off_time": 9.083}, {"pitch": 48, "velocity": 40, "note_on_time": 8.077, "note_off_time": 9.083}, {"pitch": 52, "velocity": 40, "note_on_time": 9.083, "note_off_time": 10.085}, {"pitch": 55, "velocity": 40, "note_on_time": 9.083, "note_off_time": 10.085}, {"pitch": 77, "velocity": 40, "note_on_time": 10.085, "note_off_time": 11.1}, {"pitch": 48, "velocity": 40, "note_on_time": 10.085, "note_off_time": 11.1}, {"pitch": 52, "velocity": 40, "note_on_time": 11.1, "note_off_time": 12.102}, {"pitch": 55, "velocity": 40, "note_on_time": 11.1, "note_off_time": 12.102}, {"pitch": 48, "velocity": 40, "note_on_time": 12.102, "note_off_time": 13.109}, {"pitch": 52, "velocity": 40, "note_on_time": 13.109, "note_off_time": 14.111}, {"pitch": 55, "velocity": 40, "note_on_time": 13.109, "note_off_time": 14.111}, {"pitch": 48, "velocity": 40, "note_on_time": 14.111, "note_off_time": 15.117}, {"pitch": 52, "velocity": 40, "note_on_time": 15.117, "note_off_time": 16.126}, {"pitch": 55, "velocity": 40, "note_on_time": 15.117, "note_off_time": 16.126}, {"pitch": 60, "velocity": 40, "note_on_time": 16.124, "note_off_time": 17.137}, {"pitch": 64, "velocity": 40, "note_on_time": 16.125, "note_off_time": 17.137}, {"pitch": 67, "velocity": 40, "note_on_time": 16.126, "note_off_time": 17.138}, {"pitch": 48, "velocity": 40, "note_on_time": 16.126, "note_off_time": 17.138}, {"pitch": 52, "velocity": 40, "note_on_time": 17.138, "note_off_time": 18.143}, {"pitch": 55, "velocity": 40, "note_on_time": 17.138, "note_off_time": 18.143}, {"pitch": 79, "velocity": 40, "note_on_time": 18.143, "note_off_time": 19.147}, {"pitch": 48, "velocity": 40, "note_on_time": 18.143, "note_off_time": 19.148}, {"pitch": 52, "velocity": 40, "note_on_time": 19.148, "note_off_time": 20.151}, {"pitch": 55, "velocity": 40, "note_on_time": 19.148, "note_off_time": 20.151}, {"pitch": 48, "velocity": 40, "note_on_time": 20.151, "note_off_time": 21.167}, {"pitch": 52, "velocity": 40, "note_on_time": 21.167, "note_off_time": 22.169}, {"pitch": 55, "velocity": 40, "note_on_time": 21.167, "note_off_time": 22.169}, {"pitch": 48, "velocity": 40, "note_on_time": 22.169, "note_off_time": 23.173}, {"pitch": 52, "velocity": 40, "note_on_time": 23.173, "note_off_time": 24.183}, {"pitch": 55, "velocity": 40, "note_on_time": 23.173, "note_off_time": 24.183}, {"pitch": 60, "velocity": 40, "note_on_time": 24.182, "note_off_time": 25.19}, {"pitch": 64, "velocity": 40, "note_on_time": 24.183, "note_off_time": 25.191}, {"pitch": 67, "velocity": 40, "note_on_time": 24.183, "note_off_time": 25.191}, {"pitch": 48, "velocity": 40, "note_on_time": 24.183, "note_off_time": 25.191}, {"pitch": 52, "velocity": 40, "note_on_time": 25.191, "note_off_time": 26.208}, {"pitch": 55, "velocity": 40, "note_on_time": 25.191, "note_off_time": 26.208}, {"pitch": 77, "velocity": 40, "note_on_time": 26.207, "note_off_time": 27.224}, {"pitch": 48, "velocity": 40, "note_on_time": 26.208, "note_off_time": 27.224}, {"pitch": 52, "velocity": 40, "note_on_time": 27.225, "note_off_time": 28.233}, {"pitch": 55, "velocity": 40, "note_on_time": 27.225, "note_off_time": 28.233}, {"pitch": 48, "velocity": 40, "note_on_time": 28.233, "note_off_time": 29.238}, {"pitch": 52, "velocity": 40, "note_on_time": 29.238, "note_off_time": 30.245}, {"pitch": 55, "velocity": 40, "note_on_time": 29.238, "note_off_time": 30.245}, {"pitch": 48, "velocity": 40, "note_on_time": 30.245, "note_off_time": 31.247}, {"pitch": 52, "velocity": 40, "note_on_time": 31.247, "note_off_time": 32.25}, {"pitch": 55, "velocity": 40, "note_on_time": 31.247, "note_off_time": 32.25}, {"pitch": 60, "velocity": 40, "note_on_time": 32.249, "note_off_time": 33.252}, {"pitch": 64, "velocity": 40, "note_on_time": 32.249, "note_off_time": 33.252}, {"pitch": 67, "velocity": 40, "note_on_time": 32.25, "note_off_time": 33.253}, {"pitch": 48, "velocity": 40, "note_on_time": 32.25, "note_off_time": 33.253}, {"pitch": 52, "velocity": 40, "note_on_time": 33.253, "note_off_time": 34.259}, {"pitch": 55, "velocity": 40, "note_on_time": 33.253, "note_off_time": 34.259}, {"pitch": 74, "velocity": 40, "note_on_time": 34.258, "note_off_time": 35.271}, {"pitch": 48, "velocity": 40, "note_on_time": 34.259, "note_off_time": 35.271}, {"pitch": 52, "velocity": 40, "note_on_time": 35.271, "note_off_time": 36.273}, {"pitch": 55, "velocity": 40, "note_on_time": 35.271, "note_off_time": 36.273}, {"pitch": 48, "velocity": 40, "note_on_time": 36.273, "note_off_time": 37.283}, {"pitch": 52, "velocity": 40, "note_on_time": 37.283, "note_off_time": 38.288}, {"pitch": 55, "velocity": 40, "note_on_time": 37.283, "note_off_time": 38.288}, {"pitch": 48, "velocity": 40, "note_on_time": 38.288, "note_off_time": 39.29}, {"pitch": 52, "velocity": 40, "note_on_time": 39.29, "note_off_time": 40.301}, {"pitch": 55, "velocity": 40, "note_on_time": 39.29, "note_off_time": 40.301}, {"pitch": 60, "velocity": 40, "note_on_time": 40.3, "note_off_time": 41.315}, {"pitch": 64, "velocity": 40, "note_on_time": 40.3, "note_off_time": 41.316}, {"pitch": 67, "velocity": 40, "note_on_time": 40.301, "note_off_time": 41.317}, {"pitch": 72, "velocity": 40, "note_on_time": 42.332, "note_off_time": 43.336}, {"pitch": 60, "velocity": 40, "note_on_time": 48.345, "note_off_time": 49.35}, {"pitch": 64, "velocity": 40, "note_on_time": 48.347, "note_off_time": 49.35}, {"pitch": 67, "velocity": 40, "note_on_time": 48.347, "note_off_time": 49.351}, {"pitch": 76, "velocity": 40, "note_on_time": 50.353, "note_off_time": 51.37}, {"pitch": 60, "velocity": 40, "note_on_time": 56.372, "note_off_time": 57.376}, {"pitch": 64, "velocity": 40, "note_on_time": 56.373, "note_off_time": 57.377}, {"pitch": 67, "velocity": 40, "note_on_time": 56.374, "note_off_time": 57.378}, {"pitch": 79, "velocity": 40, "note_on_time": 58.393, "note_off_time": 59.409}, {"pitch": 60, "velocity": 40, "note_on_time": 64.415, "note_off_time": 65.428}, {"pitch": 64, "velocity": 40, "note_on_time": 64.417, "note_off_time": 65.429}, {"pitch": 67, "velocity": 40, "note_on_time": 64.417, "note_off_time": 65.43}, {"pitch": 72, "velocity": 40, "note_on_time": 66.436, "note_off_time": 67.441}, {"pitch": 60, "velocity": 40, "note_on_time": 72.448, "note_off_time": 73.461}, {"pitch": 64, "velocity": 40, "note_on_time": 72.45, "note_off_time": 73.462}, {"pitch": 67, "velocity": 40, "note_on_time": 72.45, "note_off_time": 73.462}, {"pitch": 74, "velocity": 40, "note_on_time": 74.463, "note_off_time": 75.472}, {"pitch": 60, "velocity": 40, "note_on_time": 80.48, "note_off_time": 81.485}, {"pitch": 64, "velocity": 40, "note_on_time": 80.482, "note_off_time": 81.485}, {"pitch": 67, "velocity": 40, "note_on_time": 80.482, "note_off_time": 81.486}, {"pitch": 79, "velocity": 40, "note_on_time": 82.494, "note_off_time": 83.506}, {"pitch": 60, "velocity": 40, "note_on_time": 88.514, "note_off_time": 89.522}, {"pitch": 64, "velocity": 40, "note_on_time": 88.516, "note_off_time": 89.524}, {"pitch": 67, "velocity": 40, "note_on_time": 88.516, "note_off_time": 89.524}, {"pitch": 77, "velocity": 40, "note_on_time": 90.537, "note_off_time": 91.538}, {"pitch": 60, "velocity": 40, "note_on_time": 96.55, "note_off_time": 97.557}, {"pitch": 64, "velocity": 40, "note_on_time": 96.551, "note_off_time": 97.557}, {"pitch": 67, "velocity": 40, "note_on_time": 96.552, "note_off_time": 97.558}, {"pitch": 76, "velocity": 40, "note_on_time": 98.57, "note_off_time": 99.586}, {"pitch": 60, "velocity": 40, "note_on_time": 104.601, "note_off_time": 105.607}, {"pitch": 64, "velocity": 40, "note_on_time": 104.602, "note_off_time": 105.607}, {"pitch": 67, "velocity": 40, "note_on_time": 104.602, "note_off_time": 105.608}, {"pitch": 72, "velocity": 40, "note_on_time": 106.616, "note_off_time": 107.632}, {"pitch": 60, "velocity": 40, "note_on_time": 112.648, "note_off_time": 113.655}, {"pitch": 64, "velocity": 40, "note_on_time": 112.649, "note_off_time": 113.656}, {"pitch": 67, "velocity": 40, "note_on_time": 112.65, "note_off_time": 113.657}, {"pitch": 74, "velocity": 40, "note_on_time": 114.667, "note_off_time": 115.683}, {"pitch": 60, "velocity": 40, "note_on_time": 120.689, "note_off_time": 121.7}, {"pitch": 64, "velocity": 40, "note_on_time": 120.689, "note_off_time": 121.701}, {"pitch": 67, "velocity": 40, "note_on_time": 120.69, "note_off_time": 121.702}, {"pitch": 77, "velocity": 40, "note_on_time": 122.708, "note_off_time": 123.716}, {"pitch": 60, "velocity": 40, "note_on_time": 128.731, "note_off_time": 129.736}, {"pitch": 64, "velocity": 40, "note_on_time": 128.731, "note_off_time": 129.736}, {"pitch": 67, "velocity": 40, "note_on_time": 128.732, "note_off_time": 129.737}, {"pitch": 76, "velocity": 40, "note_on_time": 130.744, "note_off_time": 131.759}, {"pitch": 60, "velocity": 40, "note_on_time": 136.771, "note_off_time": 137.784}, {"pitch": 64, "velocity": 40, "note_on_time": 136.771, "note_off_time": 137.785}, {"pitch": 67, "velocity": 40, "note_on_time": 136.772, "note_off_time": 137.785}, {"pitch": 79, "velocity": 40, "note_on_time": 138.794, "note_off_time": 139.797}, {"pitch": 60, "velocity": 40, "note_on_time": 144.808, "note_off_time": 145.811}, {"pitch": 64, "velocity": 40, "note_on_time": 144.809, "note_off_time": 145.811}, {"pitch": 67, "velocity": 40, "note_on_time": 144.809, "note_off_time": 145.812}, {"pitch": 76, "velocity": 40, "note_on_time": 146.822, "note_off_time": 147.837}, {"pitch": 60, "velocity": 40, "note_on_time": 152.847, "note_off_time": 153.868}, {"pitch": 64, "velocity": 40, "note_on_time": 152.847, "note_off_time": 153.868}, {"pitch": 67, "velocity": 40, "note_on_time": 152.848, "note_off_time": 153.869}, {"pitch": 72, "velocity": 40, "note_on_time": 154.885, "note_off_time": 155.887}, {"pitch": 60, "velocity": 40, "note_on_time": 160.895, "note_off_time": 161.918}, {"pitch": 64, "velocity": 40, "note_on_time": 160.896, "note_off_time": 161.918}, {"pitch": 67, "velocity": 40, "note_on_time": 160.897, "note_off_time": 161.918}, {"pitch": 74, "velocity": 40, "note_on_time": 162.933, "note_off_time": 163.94}]</notes><options name="Option List">((4, 4), [0.5, 0.25], 3, 8, &lt;NoteRangePerHand.TWO_NOTES: 3&gt;, &lt;NoteRangePerHand.ONE_NOTE: 2&gt;, False, True, True, 100)</options></target_notes><trials><trial trial_no="1" timestamp="2024_02_26-15_18_36"><notes name="Played Notes">[{"pitch": 79, "velocity": 61, "note_on_time": 2.119, "note_off_time": 2.385}, {"pitch": 79, "velocity": 31, "note_on_time": 11.243, "note_off_time": 11.524}, {"pitch": 72, "velocity": 39, "note_on_time": 13.781, "note_off_time": 14.154}, {"pitch": 74, "velocity": 32, "note_on_time": 14.534, "note_off_time": 14.77}, {"pitch": 76, "velocity": 28, "note_on_time": 14.899, "note_off_time": 15.193}, {"pitch": 77, "velocity": 27, "note_on_time": 15.285, "note_off_time": 15.739}, {"pitch": 79, "velocity": 40, "note_on_time": 15.76, "note_off_time": 16.167}, {"pitch": 77, "velocity": 63, "note_on_time": 19.351, "note_off_time": 19.65}, {"pitch": 74, "velocity": 45, "note_on_time": 23.373, "note_off_time": 23.805}, {"pitch": 76, "velocity": 39, "note_on_time": 23.632, "note_off_time": 24.561}, {"pitch": 77, "velocity": 26, "note_on_time": 23.953, "note_off_time": 24.573}, {"pitch": 79, "velocity": 36, "note_on_time": 24.271, "note_off_time": 24.589}, {"pitch": 72, "velocity": 43, "note_on_time": 23.016, "note_off_time": 24.645}, {"pitch": 79, "velocity": 55, "note_on_time": 27.647, "note_off_time": 27.91}, {"pitch": 77, "velocity": 53, "note_on_time": 30.069, "note_off_time": 31.251}, {"pitch": 76, "velocity": 48, "note_on_time": 29.774, "note_off_time": 31.262}, {"pitch": 74, "velocity": 60, "note_on_time": 29.511, "note_off_time": 31.267}, {"pitch": 72, "velocity": 43, "note_on_time": 29.197, "note_off_time": 31.286}, {"pitch": 79, "velocity": 49, "note_on_time": 30.389, "note_off_time": 31.306}, {"pitch": 76, "velocity": 59, "note_on_time": 32.572, "note_off_time": 33.202}, {"pitch": 74, "velocity": 61, "note_on_time": 32.237, "note_off_time": 33.206}, {"pitch": 77, "velocity": 61, "note_on_time": 32.86, "note_off_time": 33.273}, {"pitch": 72, "velocity": 54, "note_on_time": 31.943, "note_off_time": 33.586}, {"pitch": 79, "velocity": 54, "note_on_time": 33.149, "note_off_time": 33.605}, {"pitch": 77, "velocity": 46, "note_on_time": 35.271, "note_off_time": 35.572}, {"pitch": 74, "velocity": 29, "note_on_time": 40.021, "note_off_time": 40.555}, {"pitch": 76, "velocity": 40, "note_on_time": 40.345, "note_off_time": 40.663}, {"pitch": 72, "velocity": 23, "note_on_time": 39.644, "note_off_time": 40.906}, {"pitch": 74, "velocity": 62, "note_on_time": 43.38, "note_off_time": 43.719}, {"pitch": 72, "velocity": 35, "note_on_time": 48.176, "note_off_time": 48.475}, {"pitch": 72, "velocity": 51, "note_on_time": 51.591, "note_off_time": 51.821}, {"pitch": 72, "velocity": 42, "note_on_time": 53.474, "note_off_time": 53.693}, {"pitch": 74, "velocity": 35, "note_on_time": 53.963, "note_off_time": 54.208}, {"pitch": 76, "velocity": 34, "note_on_time": 54.494, "note_off_time": 54.748}, {"pitch": 77, "velocity": 45, "note_on_time": 55.054, "note_off_time": 55.342}, {"pitch": 79, "velocity": 36, "note_on_time": 55.666, "note_off_time": 56.106}, {"pitch": 79, "velocity": 28, "note_on_time": 59.627, "note_off_time": 59.953}, {"pitch": 72, "velocity": 36, "note_on_time": 63.565, "note_off_time": 63.758}, {"pitch": 74, "velocity": 35, "note_on_time": 63.989, "note_off_time": 64.148}, {"pitch": 76, "velocity": 40, "note_on_time": 64.315, "note_off_time": 64.512}, {"pitch": 77, "velocity": 35, "note_on_time": 64.791, "note_off_time": 64.983}, {"pitch": 79, "velocity": 39, "note_on_time": 65.222, "note_off_time": 65.419}, {"pitch": 77, "velocity": 65, "note_on_time": 67.516, "note_off_time": 67.873}, {"pitch": 76, "velocity": 39, "note_on_time": 70.178, "note_off_time": 70.503}, {"pitch": 74, "velocity": 30, "note_on_time": 70.9, "note_off_time": 71.173}, {"pitch": 72, "velocity": 1, "note_on_time": 71.581, "note_off_time": 71.846}, {"pitch": 72, "velocity": 12, "note_on_time": 72.242, "note_off_time": 72.494}, {"pitch": 74, "velocity": 35, "note_on_time": 75.651, "note_off_time": 76.007}, {"pitch": 79, "velocity": 30, "note_on_time": 83.598, "note_off_time": 84.045}, {"pitch": 79, "velocity": 22, "note_on_time": 91.444, "note_off_time": 91.933}, {"pitch": 77, "velocity": 3, "note_on_time": 92.589, "note_off_time": 92.95}, {"pitch": 77, "velocity": 10, "note_on_time": 93.308, "note_off_time": 93.799}, {"pitch": 72, "velocity": 31, "note_on_time": 94.636, "note_off_time": 94.829}, {"pitch": 74, "velocity": 39, "note_on_time": 95.131, "note_off_time": 95.323}, {"pitch": 76, "velocity": 36, "note_on_time": 95.511, "note_off_time": 95.716}, {"pitch": 77, "velocity": 23, "note_on_time": 95.933, "note_off_time": 96.184}, {"pitch": 79, "velocity": 32, "note_on_time": 96.447, "note_off_time": 96.915}, {"pitch": 76, "velocity": 40, "note_on_time": 99.665, "note_off_time": 100.165}, {"pitch": 72, "velocity": 43, "note_on_time": 102.951, "note_off_time": 103.135}, {"pitch": 74, "velocity": 26, "note_on_time": 103.329, "note_off_time": 103.473}, {"pitch": 76, "velocity": 30, "note_on_time": 103.637, "note_off_time": 103.833}, {"pitch": 77, "velocity": 8, "note_on_time": 104.013, "note_off_time": 104.199}, {"pitch": 79, "velocity": 31, "note_on_time": 104.42, "note_off_time": 104.677}, {"pitch": 74, "velocity": 29, "note_on_time": 107.646, "note_off_time": 108.215}, {"pitch": 72, "velocity": 32, "note_on_time": 108.54, "note_off_time": 109.027}, {"pitch": 72, "velocity": 33, "note_on_time": 109.414, "note_off_time": 109.884}, {"pitch": 72, "velocity": 39, "note_on_time": 112.141, "note_off_time": 112.284}, {"pitch": 74, "velocity": 42, "note_on_time": 112.457, "note_off_time": 112.623}, {"pitch": 76, "velocity": 28, "note_on_time": 112.765, "note_off_time": 112.985}, {"pitch": 77, "velocity": 31, "note_on_time": 113.099, "note_off_time": 113.256}, {"pitch": 79, "velocity": 5, "note_on_time": 113.328, "note_off_time": 113.637}, {"pitch": 74, "velocity": 61, "note_on_time": 116.79, "note_off_time": 117.299}, {"pitch": 72, "velocity": 1, "note_on_time": 122.732, "note_off_time": 122.926}, {"pitch": 74, "velocity": 22, "note_on_time": 123.397, "note_off_time": 123.569}, {"pitch": 76, "velocity": 1, "note_on_time": 123.844, "note_off_time": 124.067}, {"pitch": 77, "velocity": 7, "note_on_time": 126.142, "note_off_time": 126.434}, {"pitch": 79, "velocity": 28, "note_on_time": 126.589, "note_off_time": 126.924}, {"pitch": 79, "velocity": 42, "note_on_time": 132.1, "note_off_time": 132.683}, {"pitch": 77, "velocity": 33, "note_on_time": 133.133, "note_off_time": 133.648}, {"pitch": 76, "velocity": 49, "note_on_time": 134.049, "note_off_time": 134.666}, {"pitch": 76, "velocity": 24, "note_on_time": 135.027, "note_off_time": 135.708}, {"pitch": 72, "velocity": 11, "note_on_time": 137.754, "note_off_time": 137.966}, {"pitch": 79, "velocity": 64, "note_on_time": 140.11, "note_off_time": 140.557}, {"pitch": 72, "velocity": 36, "note_on_time": 142.81, "note_off_time": 143.002}, {"pitch": 74, "velocity": 26, "note_on_time": 143.122, "note_off_time": 143.276}, {"pitch": 76, "velocity": 29, "note_on_time": 143.466, "note_off_time": 143.628}, {"pitch": 77, "velocity": 26, "note_on_time": 143.797, "note_off_time": 143.953}, {"pitch": 79, "velocity": 30, "note_on_time": 144.157, "note_off_time": 144.342}, {"pitch": 77, "velocity": 6, "note_on_time": 148.087, "note_off_time": 148.607}, {"pitch": 76, "velocity": 39, "note_on_time": 148.933, "note_off_time": 149.506}, {"pitch": 76, "velocity": 30, "note_on_time": 149.691, "note_off_time": 150.21}, {"pitch": 74, "velocity": 22, "note_on_time": 155.895, "note_off_time": 156.451}, {"pitch": 72, "velocity": 18, "note_on_time": 156.615, "note_off_time": 157.007}, {"pitch": 72, "velocity": 28, "note_on_time": 157.289, "note_off_time": 157.622}, {"pitch": 72, "velocity": 23, "note_on_time": 158.143, "note_off_time": 158.595}]</notes><guidance name="Guidance Mode">None</guidance><error name="Error value">99</error></trial><trial trial_no="2" timestamp="2024_02_26-15_26_47"><notes name="Played Notes">[{"pitch": 74, "velocity": 46, "note_on_time": 3.131, "note_off_time": 5.259}, {"pitch": 79, "velocity": 61, "note_on_time": 4.862, "note_off_time": 5.263}, {"pitch": 77, "velocity": 37, "note_on_time": 4.26, "note_off_time": 5.312}, {"pitch": 76, "velocity": 49, "note_on_time": 3.668, "note_off_time": 5.326}, {"pitch": 72, "velocity": 52, "note_on_time": 2.575, "note_off_time": 5.463}, {"pitch": 79, "velocity": 22, "note_on_time": 7.925, "note_off_time": 8.535}, {"pitch": 74, "velocity": 41, "note_on_time": 6.665, "note_off_time": 8.584}, {"pitch": 76, "velocity": 28, "note_on_time": 7.19, "note_off_time": 8.589}, {"pitch": 72, "velocity": 25, "note_on_time": 6.025, "note_off_time": 8.63}, {"pitch": 79, "velocity": 46, "note_on_time": 11.371, "note_off_time": 12.038}, {"pitch": 74, "velocity": 46, "note_on_time": 9.681, "note_off_time": 12.083}, {"pitch": 76, "velocity": 37, "note_on_time": 10.224, "note_off_time": 12.135}, {"pitch": 77, "velocity": 60, "note_on_time": 10.788, "note_off_time": 12.138}, {"pitch": 72, "velocity": 44, "note_on_time": 9.11, "note_off_time": 12.197}, {"pitch": 79, "velocity": 52, "note_on_time": 14.955, "note_off_time": 16.039}, {"pitch": 74, "velocity": 40, "note_on_time": 13.292, "note_off_time": 16.049}, {"pitch": 77, "velocity": 50, "note_on_time": 14.371, "note_off_time": 16.065}, {"pitch": 76, "velocity": 49, "note_on_time": 13.836, "note_off_time": 16.088}, {"pitch": 72, "velocity": 60, "note_on_time": 12.702, "note_off_time": 16.131}, {"pitch": 79, "velocity": 27, "note_on_time": 17.054, "note_off_time": 18.768}, {"pitch": 74, "velocity": 30, "note_on_time": 18.804, "note_off_time": 20.066}, {"pitch": 72, "velocity": 54, "note_on_time": 19.395, "note_off_time": 20.075}, {"pitch": 77, "velocity": 52, "note_on_time": 17.608, "note_off_time": 20.088}, {"pitch": 76, "velocity": 52, "note_on_time": 18.19, "note_off_time": 20.108}, {"pitch": 79, "velocity": 41, "note_on_time": 20.682, "note_off_time": 22.531}, {"pitch": 72, "velocity": 48, "note_on_time": 22.969, "note_off_time": 23.743}, {"pitch": 74, "velocity": 50, "note_on_time": 22.38, "note_off_time": 23.753}, {"pitch": 77, "velocity": 51, "note_on_time": 21.23, "note_off_time": 23.803}, {"pitch": 76, "velocity": 43, "note_on_time": 21.84, "note_off_time": 23.845}, {"pitch": 79, "velocity": 58, "note_on_time": 24.374, "note_off_time": 27.394}, {"pitch": 72, "velocity": 47, "note_on_time": 26.762, "note_off_time": 27.43}, {"pitch": 74, "velocity": 53, "note_on_time": 26.177, "note_off_time": 27.462}, {"pitch": 77, "velocity": 35, "note_on_time": 25.006, "note_off_time": 27.474}, {"pitch": 76, "velocity": 60, "note_on_time": 25.704, "note_off_time": 27.513}, {"pitch": 79, "velocity": 60, "note_on_time": 28.04, "note_off_time": 31.31}, {"pitch": 72, "velocity": 50, "note_on_time": 30.321, "note_off_time": 31.346}, {"pitch": 77, "velocity": 48, "note_on_time": 28.611, "note_off_time": 31.371}, {"pitch": 74, "velocity": 56, "note_on_time": 29.756, "note_off_time": 31.387}, {"pitch": 76, "velocity": 52, "note_on_time": 29.218, "note_off_time": 31.4}, {"pitch": 79, "velocity": 30, "note_on_time": 35.786, "note_off_time": 36.259}, {"pitch": 74, "velocity": 50, "note_on_time": 34.127, "note_off_time": 36.314}, {"pitch": 77, "velocity": 51, "note_on_time": 35.253, "note_off_time": 36.318}, {"pitch": 76, "velocity": 34, "note_on_time": 34.678, "note_off_time": 36.331}, {"pitch": 72, "velocity": 66, "note_on_time": 36.259, "note_off_time": 36.943}, {"pitch": 79, "velocity": 36, "note_on_time": 39.236, "note_off_time": 39.722}, {"pitch": 74, "velocity": 45, "note_on_time": 37.603, "note_off_time": 39.772}, {"pitch": 77, "velocity": 55, "note_on_time": 38.714, "note_off_time": 39.78}, {"pitch": 76, "velocity": 33, "note_on_time": 38.162, "note_off_time": 39.797}, {"pitch": 72, "velocity": 69, "note_on_time": 39.724, "note_off_time": 40.378}, {"pitch": 79, "velocity": 35, "note_on_time": 42.512, "note_off_time": 43.152}, {"pitch": 77, "velocity": 15, "note_on_time": 41.945, "note_off_time": 43.602}, {"pitch": 76, "velocity": 30, "note_on_time": 41.449, "note_off_time": 43.682}, {"pitch": 74, "velocity": 51, "note_on_time": 40.983, "note_off_time": 43.688}, {"pitch": 72, "velocity": 65, "note_on_time": 43.043, "note_off_time": 43.771}, {"pitch": 79, "velocity": 57, "note_on_time": 45.89, "note_off_time": 47.245}, {"pitch": 77, "velocity": 15, "note_on_time": 45.442, "note_off_time": 47.377}, {"pitch": 72, "velocity": 55, "note_on_time": 46.472, "note_off_time": 47.377}, {"pitch": 74, "velocity": 55, "note_on_time": 44.425, "note_off_time": 47.391}, {"pitch": 76, "velocity": 45, "note_on_time": 44.965, "note_off_time": 47.411}, {"pitch": 74, "velocity": 62, "note_on_time": 49.963, "note_off_time": 51.827}, {"pitch": 77, "velocity": 63, "note_on_time": 48.826, "note_off_time": 51.837}, {"pitch": 72, "velocity": 62, "note_on_time": 50.575, "note_off_time": 51.839}, {"pitch": 76, "velocity": 56, "note_on_time": 49.369, "note_off_time": 51.856}, {"pitch": 79, "velocity": 68, "note_on_time": 51.113, "note_off_time": 51.868}, {"pitch": 79, "velocity": 51, "note_on_time": 54.681, "note_off_time": 55.411}, {"pitch": 74, "velocity": 57, "note_on_time": 53.577, "note_off_time": 55.44}, {"pitch": 72, "velocity": 42, "note_on_time": 54.165, "note_off_time": 55.464}, {"pitch": 77, "velocity": 56, "note_on_time": 52.427, "note_off_time": 55.468}, {"pitch": 76, "velocity": 56, "note_on_time": 52.973, "note_off_time": 55.475}, {"pitch": 79, "velocity": 59, "note_on_time": 58.153, "note_off_time": 58.972}, {"pitch": 72, "velocity": 42, "note_on_time": 57.638, "note_off_time": 59.027}, {"pitch": 74, "velocity": 56, "note_on_time": 57.064, "note_off_time": 59.049}, {"pitch": 77, "velocity": 53, "note_on_time": 55.979, "note_off_time": 59.062}, {"pitch": 76, "velocity": 53, "note_on_time": 56.516, "note_off_time": 59.075}, {"pitch": 74, "velocity": 49, "note_on_time": 60.704, "note_off_time": 62.809}, {"pitch": 79, "velocity": 59, "note_on_time": 61.826, "note_off_time": 62.819}, {"pitch": 76, "velocity": 48, "note_on_time": 60.103, "note_off_time": 62.828}, {"pitch": 77, "velocity": 50, "note_on_time": 59.535, "note_off_time": 62.837}, {"pitch": 72, "velocity": 46, "note_on_time": 61.267, "note_off_time": 62.85}, {"pitch": 79, "velocity": 58, "note_on_time": 68.067, "note_off_time": 69.606}, {"pitch": 72, "velocity": 58, "note_on_time": 69.191, "note_off_time": 69.745}, {"pitch": 77, "velocity": 30, "note_on_time": 67.447, "note_off_time": 69.784}, {"pitch": 74, "velocity": 60, "note_on_time": 68.591, "note_off_time": 69.804}, {"pitch": 76, "velocity": 52, "note_on_time": 66.933, "note_off_time": 69.835}, {"pitch": 79, "velocity": 31, "note_on_time": 71.488, "note_off_time": 73.303}, {"pitch": 72, "velocity": 61, "note_on_time": 72.627, "note_off_time": 73.347}, {"pitch": 74, "velocity": 50, "note_on_time": 72.033, "note_off_time": 73.374}, {"pitch": 77, "velocity": 52, "note_on_time": 70.947, "note_off_time": 73.415}, {"pitch": 76, "velocity": 56, "note_on_time": 70.394, "note_off_time": 73.429}, {"pitch": 79, "velocity": 45, "note_on_time": 74.988, "note_off_time": 76.727}, {"pitch": 72, "velocity": 56, "note_on_time": 76.104, "note_off_time": 76.741}, {"pitch": 77, "velocity": 60, "note_on_time": 74.472, "note_off_time": 76.798}, {"pitch": 74, "velocity": 58, "note_on_time": 75.544, "note_off_time": 76.855}, {"pitch": 76, "velocity": 52, "note_on_time": 73.885, "note_off_time": 76.861}, {"pitch": 79, "velocity": 49, "note_on_time": 78.392, "note_off_time": 80.519}, {"pitch": 72, "velocity": 49, "note_on_time": 79.593, "note_off_time": 80.61}, {"pitch": 74, "velocity": 56, "note_on_time": 78.972, "note_off_time": 80.635}, {"pitch": 77, "velocity": 58, "note_on_time": 77.894, "note_off_time": 80.645}, {"pitch": 76, "velocity": 59, "note_on_time": 77.314, "note_off_time": 80.662}, {"pitch": 74, "velocity": 62, "note_on_time": 83.341, "note_off_time": 84.496}, {"pitch": 72, "velocity": 64, "note_on_time": 83.974, "note_off_time": 84.538}, {"pitch": 79, "velocity": 64, "note_on_time": 85.17, "note_off_time": 85.87}, {"pitch": 77, "velocity": 65, "note_on_time": 84.635, "note_off_time": 85.875}, {"pitch": 76, "velocity": 64, "note_on_time": 82.764, "note_off_time": 85.89}, {"pitch": 72, "velocity": 68, "note_on_time": 87.543, "note_off_time": 89.303}, {"pitch": 79, "velocity": 74, "note_on_time": 88.699, "note_off_time": 89.315}, {"pitch": 74, "velocity": 58, "note_on_time": 86.951, "note_off_time": 89.361}, {"pitch": 77, "velocity": 70, "note_on_time": 88.11, "note_off_time": 89.379}, {"pitch": 76, "velocity": 57, "note_on_time": 86.409, "note_off_time": 89.396}, {"pitch": 79, "velocity": 69, "note_on_time": 92.26, "note_off_time": 93.115}, {"pitch": 72, "velocity": 48, "note_on_time": 91.182, "note_off_time": 93.162}, {"pitch": 77, "velocity": 56, "note_on_time": 91.754, "note_off_time": 93.165}, {"pitch": 74, "velocity": 60, "note_on_time": 90.669, "note_off_time": 93.175}, {"pitch": 76, "velocity": 59, "note_on_time": 90.109, "note_off_time": 93.232}, {"pitch": 79, "velocity": 61, "note_on_time": 95.883, "note_off_time": 96.691}, {"pitch": 74, "velocity": 52, "note_on_time": 94.362, "note_off_time": 96.701}, {"pitch": 72, "velocity": 56, "note_on_time": 94.872, "note_off_time": 96.723}, {"pitch": 77, "velocity": 67, "note_on_time": 95.393, "note_off_time": 96.77}, {"pitch": 76, "velocity": 57, "note_on_time": 93.752, "note_off_time": 96.805}, {"pitch": 79, "velocity": 52, "note_on_time": 98.694, "note_off_time": 98.81}, {"pitch": 77, "velocity": 42, "note_on_time": 98.636, "note_off_time": 99.111}, {"pitch": 79, "velocity": 64, "note_on_time": 100.04, "note_off_time": 101.814}, {"pitch": 72, "velocity": 62, "note_on_time": 101.333, "note_off_time": 101.922}, {"pitch": 77, "velocity": 61, "note_on_time": 99.486, "note_off_time": 101.942}, {"pitch": 74, "velocity": 61, "note_on_time": 101.037, "note_off_time": 101.95}, {"pitch": 76, "velocity": 60, "note_on_time": 100.788, "note_off_time": 101.977}, {"pitch": 72, "velocity": 66, "note_on_time": 104.13, "note_off_time": 104.846}, {"pitch": 79, "velocity": 62, "note_on_time": 102.946, "note_off_time": 104.867}, {"pitch": 74, "velocity": 58, "note_on_time": 103.814, "note_off_time": 104.891}, {"pitch": 76, "velocity": 57, "note_on_time": 103.554, "note_off_time": 104.91}, {"pitch": 77, "velocity": 57, "note_on_time": 102.439, "note_off_time": 104.938}, {"pitch": 72, "velocity": 57, "note_on_time": 106.946, "note_off_time": 107.698}, {"pitch": 74, "velocity": 58, "note_on_time": 106.639, "note_off_time": 107.725}, {"pitch": 79, "velocity": 57, "note_on_time": 105.829, "note_off_time": 107.727}, {"pitch": 77, "velocity": 65, "note_on_time": 105.303, "note_off_time": 107.753}, {"pitch": 76, "velocity": 51, "note_on_time": 106.394, "note_off_time": 107.757}, {"pitch": 79, "velocity": 64, "note_on_time": 109.145, "note_off_time": 111.021}, {"pitch": 72, "velocity": 64, "note_on_time": 110.179, "note_off_time": 111.059}, {"pitch": 74, "velocity": 57, "note_on_time": 109.859, "note_off_time": 111.128}, {"pitch": 77, "velocity": 47, "note_on_time": 108.598, "note_off_time": 111.153}, {"pitch": 76, "velocity": 62, "note_on_time": 109.595, "note_off_time": 111.183}, {"pitch": 79, "velocity": 65, "note_on_time": 113.535, "note_off_time": 115.465}, {"pitch": 72, "velocity": 70, "note_on_time": 114.702, "note_off_time": 115.487}, {"pitch": 74, "velocity": 61, "note_on_time": 114.382, "note_off_time": 115.528}, {"pitch": 77, "velocity": 62, "note_on_time": 113.105, "note_off_time": 115.562}, {"pitch": 76, "velocity": 60, "note_on_time": 114.139, "note_off_time": 115.576}, {"pitch": 72, "velocity": 60, "note_on_time": 117.148, "note_off_time": 119.25}, {"pitch": 74, "velocity": 62, "note_on_time": 116.831, "note_off_time": 119.292}, {"pitch": 77, "velocity": 71, "note_on_time": 118.088, "note_off_time": 119.338}, {"pitch": 79, "velocity": 65, "note_on_time": 118.658, "note_off_time": 119.341}, {"pitch": 76, "velocity": 38, "note_on_time": 117.756, "note_off_time": 119.344}, {"pitch": 74, "velocity": 49, "note_on_time": 120.769, "note_off_time": 122.163}, {"pitch": 72, "velocity": 55, "note_on_time": 121.101, "note_off_time": 122.165}, {"pitch": 76, "velocity": 70, "note_on_time": 120.474, "note_off_time": 122.187}, {"pitch": 79, "velocity": 57, "note_on_time": 124.229, "note_off_time": 124.924}, {"pitch": 72, "velocity": 59, "note_on_time": 123.193, "note_off_time": 124.935}, {"pitch": 77, "velocity": 52, "note_on_time": 123.924, "note_off_time": 124.945}, {"pitch": 74, "velocity": 66, "note_on_time": 122.92, "note_off_time": 124.946}, {"pitch": 76, "velocity": 52, "note_on_time": 123.625, "note_off_time": 124.974}, {"pitch": 74, "velocity": 71, "note_on_time": 125.743, "note_off_time": 128.246}, {"pitch": 72, "velocity": 53, "note_on_time": 126.024, "note_off_time": 128.26}, {"pitch": 79, "velocity": 74, "note_on_time": 127.381, "note_off_time": 128.262}, {"pitch": 77, "velocity": 65, "note_on_time": 127.078, "note_off_time": 128.265}, {"pitch": 76, "velocity": 56, "note_on_time": 126.785, "note_off_time": 128.286}, {"pitch": 72, "velocity": 58, "note_on_time": 129.037, "note_off_time": 131.216}, {"pitch": 77, "velocity": 58, "note_on_time": 129.863, "note_off_time": 131.261}, {"pitch": 74, "velocity": 70, "note_on_time": 128.759, "note_off_time": 131.267}, {"pitch": 79, "velocity": 59, "note_on_time": 130.191, "note_off_time": 131.268}, {"pitch": 76, "velocity": 58, "note_on_time": 129.595, "note_off_time": 131.278}, {"pitch": 79, "velocity": 65, "note_on_time": 133.164, "note_off_time": 134.128}, {"pitch": 72, "velocity": 65, "note_on_time": 131.97, "note_off_time": 134.226}, {"pitch": 74, "velocity": 76, "note_on_time": 131.677, "note_off_time": 134.227}, {"pitch": 77, "velocity": 52, "note_on_time": 132.847, "note_off_time": 134.256}, {"pitch": 76, "velocity": 46, "note_on_time": 132.535, "note_off_time": 134.281}, {"pitch": 72, "velocity": 71, "note_on_time": 137.236, "note_off_time": 139.038}, {"pitch": 74, "velocity": 61, "note_on_time": 137.526, "note_off_time": 139.042}, {"pitch": 79, "velocity": 67, "note_on_time": 138.506, "note_off_time": 139.047}, {"pitch": 76, "velocity": 56, "note_on_time": 137.846, "note_off_time": 139.087}, {"pitch": 77, "velocity": 51, "note_on_time": 138.195, "note_off_time": 139.095}, {"pitch": 74, "velocity": 56, "note_on_time": 139.925, "note_off_time": 141.335}, {"pitch": 79, "velocity": 64, "note_on_time": 140.77, "note_off_time": 141.365}, {"pitch": 77, "velocity": 58, "note_on_time": 140.477, "note_off_time": 141.378}, {"pitch": 76, "velocity": 57, "note_on_time": 140.202, "note_off_time": 141.382}, {"pitch": 72, "velocity": 70, "note_on_time": 139.643, "note_off_time": 141.391}, {"pitch": 79, "velocity": 47, "note_on_time": 143.023, "note_off_time": 143.671}, {"pitch": 77, "velocity": 45, "note_on_time": 142.719, "note_off_time": 143.688}, {"pitch": 74, "velocity": 56, "note_on_time": 142.105, "note_off_time": 143.718}, {"pitch": 76, "velocity": 55, "note_on_time": 142.414, "note_off_time": 143.728}, {"pitch": 72, "velocity": 71, "note_on_time": 141.841, "note_off_time": 143.758}, {"pitch": 74, "velocity": 60, "note_on_time": 144.4, "note_off_time": 145.894}, {"pitch": 79, "velocity": 46, "note_on_time": 145.265, "note_off_time": 145.9}, {"pitch": 77, "velocity": 59, "note_on_time": 144.947, "note_off_time": 145.904}, {"pitch": 76, "velocity": 57, "note_on_time": 144.639, "note_off_time": 145.916}, {"pitch": 72, "velocity": 77, "note_on_time": 144.164, "note_off_time": 146.3}, {"pitch": 77, "velocity": 55, "note_on_time": 146.549, "note_off_time": 147.915}, {"pitch": 79, "velocity": 65, "note_on_time": 146.301, "note_off_time": 147.918}, {"pitch": 74, "velocity": 61, "note_on_time": 147.084, "note_off_time": 147.932}, {"pitch": 72, "velocity": 68, "note_on_time": 147.36, "note_off_time": 147.952}, {"pitch": 76, "velocity": 60, "note_on_time": 146.835, "note_off_time": 147.984}, {"pitch": 72, "velocity": 59, "note_on_time": 149.627, "note_off_time": 150.214}, {"pitch": 77, "velocity": 45, "note_on_time": 148.74, "note_off_time": 150.238}, {"pitch": 74, "velocity": 56, "note_on_time": 149.329, "note_off_time": 150.259}, {"pitch": 76, "velocity": 55, "note_on_time": 149.031, "note_off_time": 150.267}, {"pitch": 79, "velocity": 48, "note_on_time": 148.455, "note_off_time": 150.268}, {"pitch": 72, "velocity": 65, "note_on_time": 151.945, "note_off_time": 152.578}, {"pitch": 79, "velocity": 51, "note_on_time": 150.636, "note_off_time": 152.584}, {"pitch": 74, "velocity": 66, "note_on_time": 151.628, "note_off_time": 152.596}, {"pitch": 76, "velocity": 49, "note_on_time": 151.319, "note_off_time": 152.609}, {"pitch": 77, "velocity": 45, "note_on_time": 150.94, "note_off_time": 152.611}, {"pitch": 72, "velocity": 62, "note_on_time": 154.016, "note_off_time": 154.788}, {"pitch": 74, "velocity": 61, "note_on_time": 153.756, "note_off_time": 154.791}, {"pitch": 77, "velocity": 56, "note_on_time": 153.264, "note_off_time": 154.805}, {"pitch": 76, "velocity": 64, "note_on_time": 153.511, "note_off_time": 154.806}, {"pitch": 79, "velocity": 54, "note_on_time": 152.969, "note_off_time": 154.857}, {"pitch": 79, "velocity": 54, "note_on_time": 156.864, "note_off_time": 157.851}, {"pitch": 72, "velocity": 71, "note_on_time": 157.23, "note_off_time": 157.888}, {"pitch": 77, "velocity": 40, "note_on_time": 156.715, "note_off_time": 157.899}, {"pitch": 74, "velocity": 66, "note_on_time": 155.846, "note_off_time": 157.903}, {"pitch": 76, "velocity": 65, "note_on_time": 156.389, "note_off_time": 157.916}, {"pitch": 79, "velocity": 45, "note_on_time": 159.175, "note_off_time": 160.2}, {"pitch": 72, "velocity": 69, "note_on_time": 159.494, "note_off_time": 160.217}, {"pitch": 77, "velocity": 55, "note_on_time": 158.941, "note_off_time": 160.233}, {"pitch": 76, "velocity": 49, "note_on_time": 158.61, "note_off_time": 160.245}, {"pitch": 74, "velocity": 65, "note_on_time": 158.316, "note_off_time": 160.253}, {"pitch": 79, "velocity": 33, "note_on_time": 161.475, "note_off_time": 162.549}, {"pitch": 74, "velocity": 66, "note_on_time": 160.699, "note_off_time": 162.612}, {"pitch": 77, "velocity": 59, "note_on_time": 161.247, "note_off_time": 162.63}, {"pitch": 72, "velocity": 61, "note_on_time": 161.808, "note_off_time": 162.637}, {"pitch": 76, "velocity": 39, "note_on_time": 160.979, "note_off_time": 162.639}, {"pitch": 79, "velocity": 43, "note_on_time": 163.915, "note_off_time": 165.156}, {"pitch": 72, "velocity": 54, "note_on_time": 164.336, "note_off_time": 165.224}, {"pitch": 77, "velocity": 52, "note_on_time": 163.723, "note_off_time": 165.251}, {"pitch": 74, "velocity": 57, "note_on_time": 163.101, "note_off_time": 165.252}, {"pitch": 76, "velocity": 59, "note_on_time": 163.429, "note_off_time": 165.262}, {"pitch": 79, "velocity": 68, "note_on_time": 167.891, "note_off_time": 168.516}, {"pitch": 72, "velocity": 64, "note_on_time": 167.611, "note_off_time": 168.563}, {"pitch": 74, "velocity": 60, "note_on_time": 167.328, "note_off_time": 168.601}, {"pitch": 76, "velocity": 52, "note_on_time": 167.048, "note_off_time": 168.62}, {"pitch": 77, "velocity": 57, "note_on_time": 166.781, "note_off_time": 168.644}, {"pitch": 72, "velocity": 58, "note_on_time": 170.083, "note_off_time": 171.082}, {"pitch": 79, "velocity": 56, "note_on_time": 170.357, "note_off_time": 171.094}, {"pitch": 74, "velocity": 56, "note_on_time": 169.774, "note_off_time": 171.102}, {"pitch": 76, "velocity": 62, "note_on_time": 169.467, "note_off_time": 171.117}, {"pitch": 77, "velocity": 53, "note_on_time": 169.125, "note_off_time": 171.146}, {"pitch": 79, "velocity": 58, "note_on_time": 172.736, "note_off_time": 173.468}, {"pitch": 72, "velocity": 46, "note_on_time": 172.421, "note_off_time": 173.508}, {"pitch": 74, "velocity": 59, "note_on_time": 172.123, "note_off_time": 173.557}, {"pitch": 77, "velocity": 57, "note_on_time": 171.573, "note_off_time": 173.567}, {"pitch": 76, "velocity": 57, "note_on_time": 171.878, "note_off_time": 173.583}, {"pitch": 79, "velocity": 71, "note_on_time": 175.237, "note_off_time": 175.872}, {"pitch": 72, "velocity": 45, "note_on_time": 174.884, "note_off_time": 175.942}, {"pitch": 74, "velocity": 60, "note_on_time": 174.583, "note_off_time": 175.945}, {"pitch": 77, "velocity": 65, "note_on_time": 174.033, "note_off_time": 175.973}, {"pitch": 76, "velocity": 56, "note_on_time": 174.331, "note_off_time": 176.001}, {"pitch": 74, "velocity": 52, "note_on_time": 177.006, "note_off_time": 178.305}, {"pitch": 72, "velocity": 57, "note_on_time": 177.313, "note_off_time": 178.309}, {"pitch": 76, "velocity": 57, "note_on_time": 176.781, "note_off_time": 178.323}, {"pitch": 79, "velocity": 76, "note_on_time": 177.605, "note_off_time": 178.344}, {"pitch": 77, "velocity": 59, "note_on_time": 176.479, "note_off_time": 178.353}, {"pitch": 72, "velocity": 68, "note_on_time": 181.553, "note_off_time": 182.028}, {"pitch": 79, "velocity": 64, "note_on_time": 180.862, "note_off_time": 182.057}, {"pitch": 77, "velocity": 57, "note_on_time": 180.528, "note_off_time": 182.142}, {"pitch": 74, "velocity": 51, "note_on_time": 181.204, "note_off_time": 182.144}, {"pitch": 76, "velocity": 62, "note_on_time": 180.209, "note_off_time": 182.17}, {"pitch": 72, "velocity": 56, "note_on_time": 183.955, "note_off_time": 184.076}, {"pitch": 72, "velocity": 64, "note_on_time": 184.546, "note_off_time": 185.025}, {"pitch": 74, "velocity": 52, "note_on_time": 183.637, "note_off_time": 185.059}, {"pitch": 76, "velocity": 55, "note_on_time": 182.684, "note_off_time": 185.117}, {"pitch": 79, "velocity": 12, "note_on_time": 183.302, "note_off_time": 185.129}, {"pitch": 77, "velocity": 57, "note_on_time": 183.013, "note_off_time": 185.138}, {"pitch": 72, "velocity": 68, "note_on_time": 186.601, "note_off_time": 187.205}, {"pitch": 79, "velocity": 46, "note_on_time": 186.075, "note_off_time": 187.266}, {"pitch": 74, "velocity": 61, "note_on_time": 186.334, "note_off_time": 187.276}, {"pitch": 77, "velocity": 59, "note_on_time": 185.792, "note_off_time": 187.311}, {"pitch": 76, "velocity": 52, "note_on_time": 185.497, "note_off_time": 187.325}, {"pitch": 72, "velocity": 65, "note_on_time": 188.916, "note_off_time": 189.551}, {"pitch": 79, "velocity": 11, "note_on_time": 188.227, "note_off_time": 189.602}, {"pitch": 74, "velocity": 61, "note_on_time": 188.595, "note_off_time": 189.618}, {"pitch": 77, "velocity": 60, "note_on_time": 188.002, "note_off_time": 189.653}, {"pitch": 76, "velocity": 60, "note_on_time": 187.694, "note_off_time": 189.684}, {"pitch": 79, "velocity": 38, "note_on_time": 190.47, "note_off_time": 192.393}, {"pitch": 72, "velocity": 61, "note_on_time": 191.548, "note_off_time": 192.428}, {"pitch": 74, "velocity": 52, "note_on_time": 191.296, "note_off_time": 192.429}, {"pitch": 77, "velocity": 60, "note_on_time": 190.336, "note_off_time": 192.43}, {"pitch": 76, "velocity": 59, "note_on_time": 190.009, "note_off_time": 192.463}]</notes><guidance name="Guidance Mode">None</guidance><error name="Error value">99</error></trial><trial trial_no="3" timestamp="2024_02_26-15_33_02"><notes name="Played Notes">[{"pitch": 72, "velocity": 62, "note_on_time": 2.462, "note_off_time": 4.343}, {"pitch": 74, "velocity": 56, "note_on_time": 2.793, "note_off_time": 4.347}, {"pitch": 79, "velocity": 74, "note_on_time": 3.779, "note_off_time": 4.363}, {"pitch": 76, "velocity": 65, "note_on_time": 3.098, "note_off_time": 4.381}, {"pitch": 77, "velocity": 49, "note_on_time": 3.506, "note_off_time": 4.382}, {"pitch": 79, "velocity": 64, "note_on_time": 6.048, "note_off_time": 6.654}, {"pitch": 72, "velocity": 80, "note_on_time": 4.86, "note_off_time": 6.68}, {"pitch": 74, "velocity": 56, "note_on_time": 5.164, "note_off_time": 6.691}, {"pitch": 77, "velocity": 35, "note_on_time": 5.777, "note_off_time": 6.714}, {"pitch": 76, "velocity": 51, "note_on_time": 5.446, "note_off_time": 6.734}, {"pitch": 72, "velocity": 74, "note_on_time": 7.261, "note_off_time": 8.501}, {"pitch": 74, "velocity": 53, "note_on_time": 7.589, "note_off_time": 9.034}, {"pitch": 77, "velocity": 61, "note_on_time": 8.114, "note_off_time": 9.076}, {"pitch": 76, "velocity": 51, "note_on_time": 7.877, "note_off_time": 9.076}, {"pitch": 79, "velocity": 68, "note_on_time": 8.448, "note_off_time": 9.076}, {"pitch": 72, "velocity": 69, "note_on_time": 9.641, "note_off_time": 11.243}, {"pitch": 74, "velocity": 43, "note_on_time": 9.93, "note_off_time": 11.394}, {"pitch": 77, "velocity": 32, "note_on_time": 10.487, "note_off_time": 11.405}, {"pitch": 76, "velocity": 51, "note_on_time": 10.191, "note_off_time": 11.416}, {"pitch": 79, "velocity": 51, "note_on_time": 10.672, "note_off_time": 11.428}, {"pitch": 79, "velocity": 46, "note_on_time": 12.051, "note_off_time": 13.725}, {"pitch": 77, "velocity": 52, "note_on_time": 12.375, "note_off_time": 13.766}, {"pitch": 72, "velocity": 55, "note_on_time": 13.189, "note_off_time": 13.811}, {"pitch": 74, "velocity": 61, "note_on_time": 12.916, "note_off_time": 13.818}, {"pitch": 76, "velocity": 54, "note_on_time": 12.659, "note_off_time": 13.826}, {"pitch": 72, "velocity": 68, "note_on_time": 15.536, "note_off_time": 16.148}, {"pitch": 77, "velocity": 53, "note_on_time": 14.773, "note_off_time": 16.162}, {"pitch": 74, "velocity": 64, "note_on_time": 15.291, "note_off_time": 16.18}, {"pitch": 76, "velocity": 56, "note_on_time": 15.037, "note_off_time": 16.183}, {"pitch": 79, "velocity": 38, "note_on_time": 14.46, "note_off_time": 16.184}, {"pitch": 71, "velocity": 30, "note_on_time": 17.91, "note_off_time": 17.987}, {"pitch": 72, "velocity": 39, "note_on_time": 17.918, "note_off_time": 18.544}, {"pitch": 74, "velocity": 58, "note_on_time": 17.553, "note_off_time": 18.55}, {"pitch": 76, "velocity": 55, "note_on_time": 17.258, "note_off_time": 18.558}, {"pitch": 77, "velocity": 51, "note_on_time": 16.976, "note_off_time": 18.566}, {"pitch": 79, "velocity": 58, "note_on_time": 16.633, "note_off_time": 18.57}, {"pitch": 77, "velocity": 58, "note_on_time": 19.283, "note_off_time": 20.81}, {"pitch": 74, "velocity": 54, "note_on_time": 19.793, "note_off_time": 20.819}, {"pitch": 79, "velocity": 64, "note_on_time": 18.974, "note_off_time": 20.82}, {"pitch": 76, "velocity": 57, "note_on_time": 19.548, "note_off_time": 20.835}, {"pitch": 72, "velocity": 45, "note_on_time": 20.087, "note_off_time": 20.856}, {"pitch": 79, "velocity": 38, "note_on_time": 23.852, "note_off_time": 24.76}, {"pitch": 72, "velocity": 62, "note_on_time": 24.21, "note_off_time": 24.797}, {"pitch": 77, "velocity": 54, "note_on_time": 23.613, "note_off_time": 24.831}, {"pitch": 76, "velocity": 56, "note_on_time": 23.319, "note_off_time": 24.836}, {"pitch": 74, "velocity": 59, "note_on_time": 23.064, "note_off_time": 24.838}, {"pitch": 74, "velocity": 58, "note_on_time": 25.316, "note_off_time": 27.151}, {"pitch": 76, "velocity": 57, "note_on_time": 25.572, "note_off_time": 27.169}, {"pitch": 79, "velocity": 20, "note_on_time": 26.098, "note_off_time": 27.175}, {"pitch": 77, "velocity": 57, "note_on_time": 25.836, "note_off_time": 27.181}, {"pitch": 72, "velocity": 75, "note_on_time": 26.429, "note_off_time": 27.185}, {"pitch": 79, "velocity": 60, "note_on_time": 28.507, "note_off_time": 29.517}, {"pitch": 74, "velocity": 62, "note_on_time": 27.622, "note_off_time": 29.607}, {"pitch": 77, "velocity": 68, "note_on_time": 28.156, "note_off_time": 29.61}, {"pitch": 72, "velocity": 64, "note_on_time": 28.889, "note_off_time": 29.611}, {"pitch": 76, "velocity": 56, "note_on_time": 27.881, "note_off_time": 29.616}, {"pitch": 76, "velocity": 59, "note_on_time": 30.284, "note_off_time": 30.721}, {"pitch": 79, "velocity": 33, "note_on_time": 30.78, "note_off_time": 32.153}, {"pitch": 72, "velocity": 60, "note_on_time": 31.39, "note_off_time": 32.284}, {"pitch": 74, "velocity": 64, "note_on_time": 30.011, "note_off_time": 32.311}, {"pitch": 77, "velocity": 54, "note_on_time": 30.579, "note_off_time": 32.336}, {"pitch": 79, "velocity": 70, "note_on_time": 36.436, "note_off_time": 37.142}, {"pitch": 72, "velocity": 66, "note_on_time": 36.147, "note_off_time": 37.152}, {"pitch": 77, "velocity": 52, "note_on_time": 35.263, "note_off_time": 37.158}, {"pitch": 74, "velocity": 56, "note_on_time": 35.849, "note_off_time": 37.163}, {"pitch": 76, "velocity": 66, "note_on_time": 35.577, "note_off_time": 37.172}, {"pitch": 74, "velocity": 64, "note_on_time": 38.141, "note_off_time": 39.409}, {"pitch": 77, "velocity": 59, "note_on_time": 37.656, "note_off_time": 39.42}, {"pitch": 79, "velocity": 67, "note_on_time": 38.672, "note_off_time": 39.425}, {"pitch": 76, "velocity": 58, "note_on_time": 37.917, "note_off_time": 39.431}, {"pitch": 72, "velocity": 39, "note_on_time": 38.396, "note_off_time": 39.487}, {"pitch": 74, "velocity": 53, "note_on_time": 40.445, "note_off_time": 41.719}, {"pitch": 72, "velocity": 42, "note_on_time": 40.729, "note_off_time": 41.746}, {"pitch": 79, "velocity": 68, "note_on_time": 41.021, "note_off_time": 41.758}, {"pitch": 77, "velocity": 57, "note_on_time": 39.856, "note_off_time": 41.76}, {"pitch": 76, "velocity": 53, "note_on_time": 40.174, "note_off_time": 41.77}, {"pitch": 74, "velocity": 61, "note_on_time": 42.776, "note_off_time": 44.006}, {"pitch": 72, "velocity": 61, "note_on_time": 43.06, "note_off_time": 44.013}, {"pitch": 76, "velocity": 57, "note_on_time": 42.511, "note_off_time": 44.086}, {"pitch": 77, "velocity": 61, "note_on_time": 42.23, "note_off_time": 44.089}, {"pitch": 79, "velocity": 69, "note_on_time": 43.332, "note_off_time": 44.104}, {"pitch": 79, "velocity": 51, "note_on_time": 45.508, "note_off_time": 46.292}, {"pitch": 74, "velocity": 64, "note_on_time": 44.957, "note_off_time": 46.298}, {"pitch": 76, "velocity": 49, "note_on_time": 44.723, "note_off_time": 46.299}, {"pitch": 72, "velocity": 49, "note_on_time": 45.232, "note_off_time": 46.309}, {"pitch": 77, "velocity": 58, "note_on_time": 44.427, "note_off_time": 46.314}, {"pitch": 72, "velocity": 33, "note_on_time": 48.907, "note_off_time": 49.083}, {"pitch": 76, "velocity": 51, "note_on_time": 48.876, "note_off_time": 49.337}, {"pitch": 79, "velocity": 69, "note_on_time": 50.126, "note_off_time": 51.222}, {"pitch": 77, "velocity": 56, "note_on_time": 49.861, "note_off_time": 51.265}, {"pitch": 72, "velocity": 61, "note_on_time": 50.684, "note_off_time": 51.297}, {"pitch": 74, "velocity": 52, "note_on_time": 50.431, "note_off_time": 51.33}, {"pitch": 76, "velocity": 65, "note_on_time": 49.592, "note_off_time": 51.369}, {"pitch": 79, "velocity": 59, "note_on_time": 52.267, "note_off_time": 53.486}, {"pitch": 77, "velocity": 61, "note_on_time": 52.008, "note_off_time": 53.495}, {"pitch": 72, "velocity": 58, "note_on_time": 52.887, "note_off_time": 53.536}, {"pitch": 74, "velocity": 46, "note_on_time": 52.607, "note_off_time": 53.546}, {"pitch": 76, "velocity": 59, "note_on_time": 51.692, "note_off_time": 53.593}, {"pitch": 79, "velocity": 56, "note_on_time": 54.513, "note_off_time": 55.645}, {"pitch": 72, "velocity": 58, "note_on_time": 55.073, "note_off_time": 55.716}, {"pitch": 74, "velocity": 58, "note_on_time": 54.8, "note_off_time": 55.766}, {"pitch": 77, "velocity": 65, "note_on_time": 54.246, "note_off_time": 55.787}, {"pitch": 76, "velocity": 62, "note_on_time": 53.936, "note_off_time": 55.804}, {"pitch": 79, "velocity": 51, "note_on_time": 56.615, "note_off_time": 58.074}, {"pitch": 72, "velocity": 67, "note_on_time": 57.215, "note_off_time": 58.095}, {"pitch": 74, "velocity": 58, "note_on_time": 56.945, "note_off_time": 58.1}, {"pitch": 77, "velocity": 67, "note_on_time": 56.372, "note_off_time": 58.12}, {"pitch": 76, "velocity": 67, "note_on_time": 56.101, "note_off_time": 58.138}, {"pitch": 72, "velocity": 67, "note_on_time": 60.393, "note_off_time": 61.013}, {"pitch": 74, "velocity": 68, "note_on_time": 60.114, "note_off_time": 61.62}, {"pitch": 77, "velocity": 16, "note_on_time": 60.598, "note_off_time": 61.664}, {"pitch": 76, "velocity": 54, "note_on_time": 59.824, "note_off_time": 61.672}, {"pitch": 79, "velocity": 64, "note_on_time": 60.988, "note_off_time": 61.699}, {"pitch": 72, "velocity": 60, "note_on_time": 62.693, "note_off_time": 63.824}, {"pitch": 74, "velocity": 54, "note_on_time": 62.393, "note_off_time": 63.862}, {"pitch": 77, "velocity": 24, "note_on_time": 62.899, "note_off_time": 63.868}, {"pitch": 76, "velocity": 64, "note_on_time": 62.09, "note_off_time": 63.902}, {"pitch": 79, "velocity": 66, "note_on_time": 63.192, "note_off_time": 63.912}, {"pitch": 74, "velocity": 46, "note_on_time": 64.713, "note_off_time": 66.236}, {"pitch": 72, "velocity": 44, "note_on_time": 65.036, "note_off_time": 66.259}, {"pitch": 79, "velocity": 66, "note_on_time": 65.541, "note_off_time": 66.285}, {"pitch": 77, "velocity": 67, "note_on_time": 65.274, "note_off_time": 66.295}, {"pitch": 76, "velocity": 67, "note_on_time": 64.448, "note_off_time": 66.327}, {"pitch": 74, "velocity": 60, "note_on_time": 67.02, "note_off_time": 68.569}, {"pitch": 79, "velocity": 64, "note_on_time": 67.798, "note_off_time": 68.601}, {"pitch": 77, "velocity": 52, "note_on_time": 67.539, "note_off_time": 68.602}, {"pitch": 76, "velocity": 63, "note_on_time": 66.753, "note_off_time": 68.621}, {"pitch": 72, "velocity": 65, "note_on_time": 67.3, "note_off_time": 68.64}, {"pitch": 79, "velocity": 64, "note_on_time": 69.666, "note_off_time": 71.078}, {"pitch": 72, "velocity": 67, "note_on_time": 70.52, "note_off_time": 71.142}, {"pitch": 74, "velocity": 64, "note_on_time": 70.265, "note_off_time": 71.15}, {"pitch": 76, "velocity": 62, "note_on_time": 69.992, "note_off_time": 71.166}, {"pitch": 77, "velocity": 54, "note_on_time": 69.354, "note_off_time": 71.18}, {"pitch": 79, "velocity": 39, "note_on_time": 71.979, "note_off_time": 73.417}, {"pitch": 77, "velocity": 65, "note_on_time": 71.742, "note_off_time": 73.555}, {"pitch": 72, "velocity": 65, "note_on_time": 72.992, "note_off_time": 73.572}, {"pitch": 74, "velocity": 73, "note_on_time": 72.679, "note_off_time": 73.575}, {"pitch": 76, "velocity": 58, "note_on_time": 72.347, "note_off_time": 73.586}, {"pitch": 76, "velocity": 67, "note_on_time": 74.233, "note_off_time": 74.648}, {"pitch": 79, "velocity": 11, "note_on_time": 75.078, "note_off_time": 75.655}, {"pitch": 77, "velocity": 58, "note_on_time": 74.961, "note_off_time": 75.707}, {"pitch": 79, "velocity": 62, "note_on_time": 76.204, "note_off_time": 77.651}, {"pitch": 72, "velocity": 65, "note_on_time": 77.036, "note_off_time": 77.66}, {"pitch": 77, "velocity": 66, "note_on_time": 75.891, "note_off_time": 77.672}, {"pitch": 74, "velocity": 60, "note_on_time": 76.772, "note_off_time": 77.69}, {"pitch": 76, "velocity": 60, "note_on_time": 76.533, "note_off_time": 77.701}, {"pitch": 79, "velocity": 37, "note_on_time": 78.457, "note_off_time": 80.067}, {"pitch": 74, "velocity": 53, "note_on_time": 79.022, "note_off_time": 80.092}, {"pitch": 77, "velocity": 62, "note_on_time": 78.171, "note_off_time": 80.136}, {"pitch": 76, "velocity": 62, "note_on_time": 78.759, "note_off_time": 80.141}, {"pitch": 72, "velocity": 50, "note_on_time": 79.355, "note_off_time": 80.151}, {"pitch": 72, "velocity": 63, "note_on_time": 83.013, "note_off_time": 84.487}, {"pitch": 74, "velocity": 66, "note_on_time": 82.69, "note_off_time": 84.518}, {"pitch": 76, "velocity": 64, "note_on_time": 83.31, "note_off_time": 84.528}, {"pitch": 77, "velocity": 66, "note_on_time": 83.579, "note_off_time": 84.559}, {"pitch": 79, "velocity": 69, "note_on_time": 83.88, "note_off_time": 84.579}, {"pitch": 76, "velocity": 67, "note_on_time": 85.863, "note_off_time": 87.194}, {"pitch": 79, "velocity": 1, "note_on_time": 86.538, "note_off_time": 87.195}, {"pitch": 74, "velocity": 77, "note_on_time": 85.247, "note_off_time": 87.252}, {"pitch": 72, "velocity": 56, "note_on_time": 85.548, "note_off_time": 87.329}, {"pitch": 79, "velocity": 66, "note_on_time": 87.5, "note_off_time": 88.024}, {"pitch": 77, "velocity": 60, "note_on_time": 86.164, "note_off_time": 88.07}, {"pitch": 72, "velocity": 64, "note_on_time": 89.185, "note_off_time": 90.66}, {"pitch": 79, "velocity": 64, "note_on_time": 90.125, "note_off_time": 90.695}, {"pitch": 77, "velocity": 68, "note_on_time": 89.823, "note_off_time": 90.709}, {"pitch": 74, "velocity": 66, "note_on_time": 88.864, "note_off_time": 90.763}, {"pitch": 76, "velocity": 62, "note_on_time": 89.523, "note_off_time": 90.776}, {"pitch": 79, "velocity": 51, "note_on_time": 92.629, "note_off_time": 93.215}, {"pitch": 77, "velocity": 64, "note_on_time": 92.343, "note_off_time": 93.216}, {"pitch": 72, "velocity": 67, "note_on_time": 91.741, "note_off_time": 93.23}, {"pitch": 74, "velocity": 72, "note_on_time": 91.469, "note_off_time": 93.249}, {"pitch": 76, "velocity": 56, "note_on_time": 92.046, "note_off_time": 93.253}, {"pitch": 79, "velocity": 52, "note_on_time": 94.972, "note_off_time": 95.611}, {"pitch": 77, "velocity": 62, "note_on_time": 94.65, "note_off_time": 95.63}, {"pitch": 76, "velocity": 62, "note_on_time": 94.365, "note_off_time": 95.641}, {"pitch": 74, "velocity": 71, "note_on_time": 93.785, "note_off_time": 95.652}, {"pitch": 72, "velocity": 57, "note_on_time": 94.067, "note_off_time": 95.675}, {"pitch": 72, "velocity": 44, "note_on_time": 97.309, "note_off_time": 99.205}, {"pitch": 74, "velocity": 45, "note_on_time": 97.687, "note_off_time": 99.234}, {"pitch": 77, "velocity": 46, "note_on_time": 98.258, "note_off_time": 99.237}, {"pitch": 79, "velocity": 70, "note_on_time": 98.551, "note_off_time": 99.24}, {"pitch": 76, "velocity": 55, "note_on_time": 97.999, "note_off_time": 99.25}, {"pitch": 79, "velocity": 54, "note_on_time": 100.858, "note_off_time": 101.337}, {"pitch": 77, "velocity": 42, "note_on_time": 100.615, "note_off_time": 101.363}, {"pitch": 76, "velocity": 47, "note_on_time": 100.347, "note_off_time": 101.39}, {"pitch": 74, "velocity": 39, "note_on_time": 100.051, "note_off_time": 101.393}, {"pitch": 72, "velocity": 52, "note_on_time": 99.697, "note_off_time": 101.432}, {"pitch": 79, "velocity": 64, "note_on_time": 103.313, "note_off_time": 103.795}, {"pitch": 74, "velocity": 61, "note_on_time": 102.452, "note_off_time": 103.799}, {"pitch": 77, "velocity": 69, "note_on_time": 103.047, "note_off_time": 103.82}, {"pitch": 76, "velocity": 59, "note_on_time": 102.734, "note_off_time": 103.847}, {"pitch": 72, "velocity": 64, "note_on_time": 102.158, "note_off_time": 103.897}, {"pitch": 74, "velocity": 53, "note_on_time": 104.936, "note_off_time": 106.336}, {"pitch": 79, "velocity": 50, "note_on_time": 105.782, "note_off_time": 106.337}, {"pitch": 77, "velocity": 51, "note_on_time": 105.508, "note_off_time": 106.339}, {"pitch": 76, "velocity": 56, "note_on_time": 105.228, "note_off_time": 106.369}, {"pitch": 72, "velocity": 70, "note_on_time": 104.642, "note_off_time": 106.384}, {"pitch": 77, "velocity": 57, "note_on_time": 108.084, "note_off_time": 108.992}, {"pitch": 79, "velocity": 50, "note_on_time": 108.348, "note_off_time": 109.007}, {"pitch": 74, "velocity": 59, "note_on_time": 107.364, "note_off_time": 109.009}, {"pitch": 76, "velocity": 59, "note_on_time": 107.716, "note_off_time": 109.016}, {"pitch": 72, "velocity": 69, "note_on_time": 107.101, "note_off_time": 109.192}, {"pitch": 79, "velocity": 62, "note_on_time": 109.539, "note_off_time": 111.244}, {"pitch": 77, "velocity": 59, "note_on_time": 109.844, "note_off_time": 111.287}, {"pitch": 74, "velocity": 52, "note_on_time": 110.281, "note_off_time": 111.305}, {"pitch": 72, "velocity": 62, "note_on_time": 110.603, "note_off_time": 111.329}, {"pitch": 76, "velocity": 58, "note_on_time": 110.076, "note_off_time": 111.333}, {"pitch": 79, "velocity": 46, "note_on_time": 111.879, "note_off_time": 112.869}, {"pitch": 76, "velocity": 57, "note_on_time": 112.503, "note_off_time": 113.058}, {"pitch": 77, "velocity": 65, "note_on_time": 112.231, "note_off_time": 113.703}, {"pitch": 74, "velocity": 46, "note_on_time": 112.759, "note_off_time": 113.736}, {"pitch": 72, "velocity": 64, "note_on_time": 113.072, "note_off_time": 113.751}, {"pitch": 79, "velocity": 63, "note_on_time": 114.27, "note_off_time": 116.073}, {"pitch": 77, "velocity": 55, "note_on_time": 114.58, "note_off_time": 116.105}, {"pitch": 74, "velocity": 59, "note_on_time": 115.127, "note_off_time": 116.144}, {"pitch": 76, "velocity": 61, "note_on_time": 114.849, "note_off_time": 116.165}, {"pitch": 72, "velocity": 58, "note_on_time": 115.41, "note_off_time": 116.167}, {"pitch": 74, "velocity": 54, "note_on_time": 117.505, "note_off_time": 118.501}, {"pitch": 77, "velocity": 49, "note_on_time": 117.009, "note_off_time": 118.503}, {"pitch": 72, "velocity": 59, "note_on_time": 117.806, "note_off_time": 118.504}, {"pitch": 79, "velocity": 59, "note_on_time": 116.707, "note_off_time": 118.51}, {"pitch": 76, "velocity": 53, "note_on_time": 117.238, "note_off_time": 118.545}, {"pitch": 79, "velocity": 62, "note_on_time": 121.337, "note_off_time": 122.269}, {"pitch": 72, "velocity": 73, "note_on_time": 121.636, "note_off_time": 122.364}, {"pitch": 77, "velocity": 60, "note_on_time": 121.065, "note_off_time": 122.405}, {"pitch": 74, "velocity": 62, "note_on_time": 120.452, "note_off_time": 122.441}, {"pitch": 76, "velocity": 57, "note_on_time": 120.752, "note_off_time": 122.454}, {"pitch": 72, "velocity": 64, "note_on_time": 124.114, "note_off_time": 124.864}, {"pitch": 74, "velocity": 62, "note_on_time": 122.886, "note_off_time": 124.9}, {"pitch": 79, "velocity": 52, "note_on_time": 123.785, "note_off_time": 124.902}, {"pitch": 76, "velocity": 50, "note_on_time": 123.159, "note_off_time": 124.91}, {"pitch": 77, "velocity": 53, "note_on_time": 123.496, "note_off_time": 124.931}, {"pitch": 72, "velocity": 61, "note_on_time": 126.571, "note_off_time": 127.324}, {"pitch": 74, "velocity": 56, "note_on_time": 125.357, "note_off_time": 127.361}, {"pitch": 79, "velocity": 46, "note_on_time": 126.245, "note_off_time": 127.381}, {"pitch": 76, "velocity": 56, "note_on_time": 125.612, "note_off_time": 127.395}, {"pitch": 77, "velocity": 44, "note_on_time": 125.942, "note_off_time": 127.424}, {"pitch": 79, "velocity": 41, "note_on_time": 128.613, "note_off_time": 129.834}, {"pitch": 77, "velocity": 56, "note_on_time": 128.355, "note_off_time": 129.838}, {"pitch": 76, "velocity": 63, "note_on_time": 128.09, "note_off_time": 129.857}, {"pitch": 74, "velocity": 58, "note_on_time": 127.778, "note_off_time": 129.869}, {"pitch": 72, "velocity": 68, "note_on_time": 128.965, "note_off_time": 129.878}, {"pitch": 72, "velocity": 53, "note_on_time": 132.326, "note_off_time": 133.296}, {"pitch": 74, "velocity": 56, "note_on_time": 132.016, "note_off_time": 133.304}, {"pitch": 79, "velocity": 70, "note_on_time": 132.625, "note_off_time": 133.33}, {"pitch": 76, "velocity": 65, "note_on_time": 131.767, "note_off_time": 133.345}, {"pitch": 77, "velocity": 50, "note_on_time": 131.449, "note_off_time": 133.371}, {"pitch": 72, "velocity": 48, "note_on_time": 134.741, "note_off_time": 135.811}, {"pitch": 74, "velocity": 50, "note_on_time": 134.422, "note_off_time": 135.817}, {"pitch": 79, "velocity": 64, "note_on_time": 135.06, "note_off_time": 135.833}, {"pitch": 76, "velocity": 59, "note_on_time": 134.167, "note_off_time": 135.869}, {"pitch": 77, "velocity": 69, "note_on_time": 133.862, "note_off_time": 135.875}, {"pitch": 79, "velocity": 64, "note_on_time": 137.602, "note_off_time": 138.295}, {"pitch": 74, "velocity": 60, "note_on_time": 136.968, "note_off_time": 138.301}, {"pitch": 76, "velocity": 61, "note_on_time": 136.677, "note_off_time": 138.326}, {"pitch": 72, "velocity": 70, "note_on_time": 137.273, "note_off_time": 138.348}, {"pitch": 77, "velocity": 62, "note_on_time": 136.356, "note_off_time": 138.364}, {"pitch": 74, "velocity": 54, "note_on_time": 139.296, "note_off_time": 140.627}, {"pitch": 76, "velocity": 58, "note_on_time": 139.077, "note_off_time": 140.668}, {"pitch": 72, "velocity": 56, "note_on_time": 139.587, "note_off_time": 140.669}, {"pitch": 79, "velocity": 70, "note_on_time": 139.917, "note_off_time": 140.677}, {"pitch": 77, "velocity": 59, "note_on_time": 138.767, "note_off_time": 140.703}, {"pitch": 74, "velocity": 65, "note_on_time": 141.657, "note_off_time": 142.902}, {"pitch": 79, "velocity": 66, "note_on_time": 142.24, "note_off_time": 142.948}, {"pitch": 76, "velocity": 61, "note_on_time": 141.415, "note_off_time": 142.966}, {"pitch": 77, "velocity": 72, "note_on_time": 141.123, "note_off_time": 142.988}, {"pitch": 72, "velocity": 68, "note_on_time": 141.917, "note_off_time": 142.991}, {"pitch": 79, "velocity": 70, "note_on_time": 147.98, "note_off_time": 149.14}, {"pitch": 77, "velocity": 69, "note_on_time": 147.698, "note_off_time": 149.21}, {"pitch": 74, "velocity": 78, "note_on_time": 148.251, "note_off_time": 149.231}, {"pitch": 72, "velocity": 70, "note_on_time": 148.549, "note_off_time": 149.236}, {"pitch": 76, "velocity": 64, "note_on_time": 147.355, "note_off_time": 149.284}, {"pitch": 72, "velocity": 74, "note_on_time": 150.865, "note_off_time": 151.5}, {"pitch": 79, "velocity": 25, "note_on_time": 150.3, "note_off_time": 151.501}, {"pitch": 74, "velocity": 64, "note_on_time": 150.582, "note_off_time": 151.562}, {"pitch": 77, "velocity": 59, "note_on_time": 149.983, "note_off_time": 151.586}, {"pitch": 76, "velocity": 47, "note_on_time": 149.676, "note_off_time": 151.595}, {"pitch": 79, "velocity": 25, "note_on_time": 152.675, "note_off_time": 154.045}, {"pitch": 74, "velocity": 72, "note_on_time": 153.033, "note_off_time": 154.091}, {"pitch": 72, "velocity": 73, "note_on_time": 153.327, "note_off_time": 154.101}, {"pitch": 77, "velocity": 68, "note_on_time": 152.367, "note_off_time": 154.125}, {"pitch": 76, "velocity": 59, "note_on_time": 152.059, "note_off_time": 154.136}, {"pitch": 79, "velocity": 48, "note_on_time": 155.108, "note_off_time": 156.488}, {"pitch": 72, "velocity": 73, "note_on_time": 155.706, "note_off_time": 156.491}, {"pitch": 74, "velocity": 51, "note_on_time": 155.428, "note_off_time": 156.513}, {"pitch": 77, "velocity": 69, "note_on_time": 154.828, "note_off_time": 156.561}, {"pitch": 76, "velocity": 56, "note_on_time": 154.532, "note_off_time": 156.587}, {"pitch": 79, "velocity": 60, "note_on_time": 157.558, "note_off_time": 158.922}, {"pitch": 72, "velocity": 70, "note_on_time": 158.185, "note_off_time": 158.997}, {"pitch": 74, "velocity": 70, "note_on_time": 157.843, "note_off_time": 159.044}, {"pitch": 77, "velocity": 71, "note_on_time": 157.274, "note_off_time": 159.072}, {"pitch": 76, "velocity": 76, "note_on_time": 156.959, "note_off_time": 159.089}, {"pitch": 74, "velocity": 75, "note_on_time": 159.798, "note_off_time": 161.196}, {"pitch": 72, "velocity": 70, "note_on_time": 160.065, "note_off_time": 161.216}, {"pitch": 79, "velocity": 76, "note_on_time": 160.614, "note_off_time": 161.247}, {"pitch": 77, "velocity": 70, "note_on_time": 160.371, "note_off_time": 161.279}, {"pitch": 76, "velocity": 72, "note_on_time": 159.494, "note_off_time": 161.286}, {"pitch": 74, "velocity": 67, "note_on_time": 162.071, "note_off_time": 163.939}, {"pitch": 79, "velocity": 77, "note_on_time": 162.962, "note_off_time": 163.944}, {"pitch": 72, "velocity": 48, "note_on_time": 162.368, "note_off_time": 163.965}, {"pitch": 77, "velocity": 70, "note_on_time": 162.685, "note_off_time": 164.016}, {"pitch": 76, "velocity": 73, "note_on_time": 161.842, "note_off_time": 164.018}, {"pitch": 72, "velocity": 68, "note_on_time": 164.979, "note_off_time": 166.385}, {"pitch": 74, "velocity": 76, "note_on_time": 164.711, "note_off_time": 166.387}, {"pitch": 79, "velocity": 69, "note_on_time": 165.627, "note_off_time": 166.425}, {"pitch": 77, "velocity": 72, "note_on_time": 165.346, "note_off_time": 166.447}, {"pitch": 76, "velocity": 74, "note_on_time": 164.478, "note_off_time": 166.46}, {"pitch": 74, "velocity": 68, "note_on_time": 167.123, "note_off_time": 168.694}, {"pitch": 77, "velocity": 71, "note_on_time": 167.709, "note_off_time": 168.711}, {"pitch": 79, "velocity": 67, "note_on_time": 168.001, "note_off_time": 168.716}, {"pitch": 72, "velocity": 70, "note_on_time": 167.426, "note_off_time": 168.721}, {"pitch": 76, "velocity": 70, "note_on_time": 166.838, "note_off_time": 168.728}, {"pitch": 79, "velocity": 74, "note_on_time": 169.904, "note_off_time": 171.31}, {"pitch": 72, "velocity": 70, "note_on_time": 170.693, "note_off_time": 171.342}, {"pitch": 74, "velocity": 78, "note_on_time": 170.47, "note_off_time": 171.432}, {"pitch": 76, "velocity": 71, "note_on_time": 170.269, "note_off_time": 171.438}, {"pitch": 77, "velocity": 76, "note_on_time": 169.612, "note_off_time": 171.461}, {"pitch": 79, "velocity": 68, "note_on_time": 172.17, "note_off_time": 173.712}, {"pitch": 72, "velocity": 65, "note_on_time": 173.018, "note_off_time": 173.821}, {"pitch": 74, "velocity": 75, "note_on_time": 172.779, "note_off_time": 173.831}, {"pitch": 76, "velocity": 58, "note_on_time": 172.585, "note_off_time": 173.843}, {"pitch": 77, "velocity": 77, "note_on_time": 171.914, "note_off_time": 173.854}, {"pitch": 79, "velocity": 67, "note_on_time": 174.448, "note_off_time": 176.095}, {"pitch": 72, "velocity": 65, "note_on_time": 175.348, "note_off_time": 176.151}, {"pitch": 74, "velocity": 70, "note_on_time": 175.088, "note_off_time": 176.211}, {"pitch": 76, "velocity": 66, "note_on_time": 174.932, "note_off_time": 176.221}, {"pitch": 77, "velocity": 78, "note_on_time": 174.188, "note_off_time": 176.242}, {"pitch": 79, "velocity": 71, "note_on_time": 176.854, "note_off_time": 178.511}, {"pitch": 74, "velocity": 66, "note_on_time": 177.456, "note_off_time": 178.56}, {"pitch": 72, "velocity": 71, "note_on_time": 177.721, "note_off_time": 178.568}, {"pitch": 77, "velocity": 68, "note_on_time": 176.537, "note_off_time": 178.603}, {"pitch": 76, "velocity": 66, "note_on_time": 177.292, "note_off_time": 178.615}, {"pitch": 79, "velocity": 71, "note_on_time": 179.289, "note_off_time": 180.639}, {"pitch": 72, "velocity": 79, "note_on_time": 180.144, "note_off_time": 180.871}, {"pitch": 77, "velocity": 67, "note_on_time": 178.971, "note_off_time": 180.894}, {"pitch": 74, "velocity": 71, "note_on_time": 179.846, "note_off_time": 180.915}, {"pitch": 76, "velocity": 63, "note_on_time": 179.675, "note_off_time": 180.943}, {"pitch": 74, "velocity": 74, "note_on_time": 181.408, "note_off_time": 183.304}, {"pitch": 72, "velocity": 65, "note_on_time": 181.708, "note_off_time": 183.338}, {"pitch": 77, "velocity": 32, "note_on_time": 182.272, "note_off_time": 183.34}, {"pitch": 76, "velocity": 56, "note_on_time": 181.989, "note_off_time": 183.352}, {"pitch": 79, "velocity": 69, "note_on_time": 182.551, "note_off_time": 183.372}, {"pitch": 72, "velocity": 74, "note_on_time": 184.034, "note_off_time": 185.648}, {"pitch": 79, "velocity": 68, "note_on_time": 184.923, "note_off_time": 185.661}, {"pitch": 74, "velocity": 78, "note_on_time": 183.758, "note_off_time": 185.667}, {"pitch": 76, "velocity": 70, "note_on_time": 184.375, "note_off_time": 185.691}, {"pitch": 77, "velocity": 65, "note_on_time": 184.637, "note_off_time": 185.706}, {"pitch": 72, "velocity": 66, "note_on_time": 186.487, "note_off_time": 186.948}, {"pitch": 77, "velocity": 41, "note_on_time": 187.099, "note_off_time": 188.094}, {"pitch": 79, "velocity": 59, "note_on_time": 187.383, "note_off_time": 188.112}, {"pitch": 74, "velocity": 83, "note_on_time": 186.192, "note_off_time": 188.113}, {"pitch": 76, "velocity": 63, "note_on_time": 186.792, "note_off_time": 188.117}, {"pitch": 72, "velocity": 38, "note_on_time": 187.096, "note_off_time": 188.152}, {"pitch": 79, "velocity": 71, "note_on_time": 189.763, "note_off_time": 190.428}, {"pitch": 77, "velocity": 68, "note_on_time": 189.465, "note_off_time": 190.48}, {"pitch": 76, "velocity": 69, "note_on_time": 189.208, "note_off_time": 190.49}, {"pitch": 74, "velocity": 83, "note_on_time": 188.64, "note_off_time": 190.516}, {"pitch": 72, "velocity": 78, "note_on_time": 188.901, "note_off_time": 190.563}, {"pitch": 74, "velocity": 55, "note_on_time": 191.392, "note_off_time": 192.893}, {"pitch": 77, "velocity": 61, "note_on_time": 191.934, "note_off_time": 192.918}, {"pitch": 79, "velocity": 56, "note_on_time": 192.197, "note_off_time": 192.919}, {"pitch": 76, "velocity": 54, "note_on_time": 191.648, "note_off_time": 192.936}, {"pitch": 72, "velocity": 81, "note_on_time": 191.115, "note_off_time": 193.04}]</notes><guidance name="Guidance Mode">None</guidance><error name="Error value">99</error></trial></trials></MIDI>