<MIDI midiNo="2024_03_11-13_22_36"><target_notes><notes name="Note List">[{"pitch": 60, "velocity": 40, "note_on_time": 0.009, "note_off_time": 1.016}, {"pitch": 64, "velocity": 40, "note_on_time": 0.01, "note_off_time": 1.018}, {"pitch": 67, "velocity": 40, "note_on_time": 0.01, "note_off_time": 1.018}, {"pitch": 48, "velocity": 40, "note_on_time": 0.01, "note_off_time": 1.018}, {"pitch": 52, "velocity": 40, "note_on_time": 1.018, "note_off_time": 2.034}, {"pitch": 55, "velocity": 40, "note_on_time": 1.018, "note_off_time": 2.034}, {"pitch": 74, "velocity": 40, "note_on_time": 2.034, "note_off_time": 3.049}, {"pitch": 48, "velocity": 40, "note_on_time": 2.034, "note_off_time": 3.05}, {"pitch": 52, "velocity": 40, "note_on_time": 3.05, "note_off_time": 4.064}, {"pitch": 55, "velocity": 40, "note_on_time": 3.05, "note_off_time": 4.064}, {"pitch": 48, "velocity": 40, "note_on_time": 4.064, "note_off_time": 5.077}, {"pitch": 52, "velocity": 40, "note_on_time": 5.077, "note_off_time": 6.088}, {"pitch": 55, "velocity": 40, "note_on_time": 5.077, "note_off_time": 6.088}, {"pitch": 48, "velocity": 40, "note_on_time": 6.088, "note_off_time": 7.103}, {"pitch": 52, "velocity": 40, "note_on_time": 7.103, "note_off_time": 8.12}, {"pitch": 55, "velocity": 40, "note_on_time": 7.103, "note_off_time": 8.12}, {"pitch": 60, "velocity": 40, "note_on_time": 8.118, "note_off_time": 9.122}, {"pitch": 64, "velocity": 40, "note_on_time": 8.119, "note_off_time": 9.123}, {"pitch": 67, "velocity": 40, "note_on_time": 8.119, "note_off_time": 9.124}, {"pitch": 48, "velocity": 40, "note_on_time": 8.12, "note_off_time": 9.124}, {"pitch": 52, "velocity": 40, "note_on_time": 9.124, "note_off_time": 10.127}, {"pitch": 55, "velocity": 40, "note_on_time": 9.124, "note_off_time": 10.127}, {"pitch": 77, "velocity": 40, "note_on_time": 10.127, "note_off_time": 11.137}, {"pitch": 48, "velocity": 40, "note_on_time": 10.127, "note_off_time": 11.137}, {"pitch": 52, "velocity": 40, "note_on_time": 11.138, "note_off_time": 12.151}, {"pitch": 55, "velocity": 40, "note_on_time": 11.138, "note_off_time": 12.151}, {"pitch": 48, "velocity": 40, "note_on_time": 12.151, "note_off_time": 13.161}, {"pitch": 52, "velocity": 40, "note_on_time": 13.161, "note_off_time": 14.174}, {"pitch": 55, "velocity": 40, "note_on_time": 13.161, "note_off_time": 14.174}, {"pitch": 48, "velocity": 40, "note_on_time": 14.174, "note_off_time": 15.177}, {"pitch": 52, "velocity": 40, "note_on_time": 15.177, "note_off_time": 16.192}, {"pitch": 55, "velocity": 40, "note_on_time": 15.177, "note_off_time": 16.192}, {"pitch": 60, "velocity": 40, "note_on_time": 16.191, "note_off_time": 17.196}, {"pitch": 64, "velocity": 40, "note_on_time": 16.191, "note_off_time": 17.197}, {"pitch": 67, "velocity": 40, "note_on_time": 16.192, "note_off_time": 17.198}, {"pitch": 48, "velocity": 40, "note_on_time": 16.192, "note_off_time": 17.198}, {"pitch": 52, "velocity": 40, "note_on_time": 17.198, "note_off_time": 18.21}, {"pitch": 55, "velocity": 40, "note_on_time": 17.198, "note_off_time": 18.211}, {"pitch": 79, "velocity": 40, "note_on_time": 18.21, "note_off_time": 19.215}, {"pitch": 48, "velocity": 40, "note_on_time": 18.211, "note_off_time": 19.216}, {"pitch": 52, "velocity": 40, "note_on_time": 19.216, "note_off_time": 20.227}, {"pitch": 55, "velocity": 40, "note_on_time": 19.216, "note_off_time": 20.227}, {"pitch": 48, "velocity": 40, "note_on_time": 20.227, "note_off_time": 21.24}, {"pitch": 52, "velocity": 40, "note_on_time": 21.24, "note_off_time": 22.251}, {"pitch": 55, "velocity": 40, "note_on_time": 21.24, "note_off_time": 22.251}, {"pitch": 48, "velocity": 40, "note_on_time": 22.251, "note_off_time": 23.253}, {"pitch": 52, "velocity": 40, "note_on_time": 23.253, "note_off_time": 24.26}, {"pitch": 55, "velocity": 40, "note_on_time": 23.253, "note_off_time": 24.26}, {"pitch": 60, "velocity": 40, "note_on_time": 24.259, "note_off_time": 25.276}, {"pitch": 64, "velocity": 40, "note_on_time": 24.259, "note_off_time": 25.277}, {"pitch": 67, "velocity": 40, "note_on_time": 24.26, "note_off_time": 25.277}, {"pitch": 48, "velocity": 40, "note_on_time": 24.26, "note_off_time": 25.278}, {"pitch": 52, "velocity": 40, "note_on_time": 25.278, "note_off_time": 26.293}, {"pitch": 55, "velocity": 40, "note_on_time": 25.278, "note_off_time": 26.294}, {"pitch": 77, "velocity": 40, "note_on_time": 26.293, "note_off_time": 27.308}, {"pitch": 48, "velocity": 40, "note_on_time": 26.294, "note_off_time": 27.308}, {"pitch": 52, "velocity": 40, "note_on_time": 27.309, "note_off_time": 28.312}, {"pitch": 55, "velocity": 40, "note_on_time": 27.309, "note_off_time": 28.312}, {"pitch": 48, "velocity": 40, "note_on_time": 28.312, "note_off_time": 29.318}, {"pitch": 52, "velocity": 40, "note_on_time": 29.318, "note_off_time": 30.331}, {"pitch": 55, "velocity": 40, "note_on_time": 29.318, "note_off_time": 30.331}, {"pitch": 48, "velocity": 40, "note_on_time": 30.331, "note_off_time": 31.348}, {"pitch": 52, "velocity": 40, "note_on_time": 31.348, "note_off_time": 32.364}, {"pitch": 55, "velocity": 40, "note_on_time": 31.348, "note_off_time": 32.365}, {"pitch": 60, "velocity": 40, "note_on_time": 32.363, "note_off_time": 33.376}, {"pitch": 64, "velocity": 40, "note_on_time": 32.364, "note_off_time": 33.377}, {"pitch": 67, "velocity": 40, "note_on_time": 32.364, "note_off_time": 33.378}, {"pitch": 48, "velocity": 40, "note_on_time": 32.365, "note_off_time": 33.378}, {"pitch": 52, "velocity": 40, "note_on_time": 33.378, "note_off_time": 34.388}, {"pitch": 55, "velocity": 40, "note_on_time": 33.378, "note_off_time": 34.389}, {"pitch": 74, "velocity": 40, "note_on_time": 34.388, "note_off_time": 35.404}, {"pitch": 48, "velocity": 40, "note_on_time": 34.389, "note_off_time": 35.405}, {"pitch": 52, "velocity": 40, "note_on_time": 35.405, "note_off_time": 36.405}, {"pitch": 55, "velocity": 40, "note_on_time": 35.405, "note_off_time": 36.405}, {"pitch": 48, "velocity": 40, "note_on_time": 36.405, "note_off_time": 37.415}, {"pitch": 52, "velocity": 40, "note_on_time": 37.415, "note_off_time": 38.418}, {"pitch": 55, "velocity": 40, "note_on_time": 37.415, "note_off_time": 38.418}, {"pitch": 48, "velocity": 40, "note_on_time": 38.418, "note_off_time": 39.422}, {"pitch": 52, "velocity": 40, "note_on_time": 39.422, "note_off_time": 40.425}, {"pitch": 55, "velocity": 40, "note_on_time": 39.422, "note_off_time": 40.425}, {"pitch": 60, "velocity": 40, "note_on_time": 40.423, "note_off_time": 41.431}, {"pitch": 64, "velocity": 40, "note_on_time": 40.424, "note_off_time": 41.431}, {"pitch": 67, "velocity": 40, "note_on_time": 40.424, "note_off_time": 41.432}, {"pitch": 76, "velocity": 40, "note_on_time": 42.436, "note_off_time": 43.441}, {"pitch": 60, "velocity": 40, "note_on_time": 48.455, "note_off_time": 49.462}, {"pitch": 64, "velocity": 40, "note_on_time": 48.456, "note_off_time": 49.463}, {"pitch": 67, "velocity": 40, "note_on_time": 48.456, "note_off_time": 49.463}, {"pitch": 72, "velocity": 40, "note_on_time": 50.467, "note_off_time": 51.47}, {"pitch": 60, "velocity": 40, "note_on_time": 56.477, "note_off_time": 57.489}, {"pitch": 64, "velocity": 40, "note_on_time": 56.478, "note_off_time": 57.489}, {"pitch": 67, "velocity": 40, "note_on_time": 56.478, "note_off_time": 57.49}, {"pitch": 77, "velocity": 40, "note_on_time": 58.505, "note_off_time": 59.514}, {"pitch": 60, "velocity": 40, "note_on_time": 64.526, "note_off_time": 65.537}, {"pitch": 64, "velocity": 40, "note_on_time": 64.527, "note_off_time": 65.538}, {"pitch": 67, "velocity": 40, "note_on_time": 64.527, "note_off_time": 65.538}, {"pitch": 72, "velocity": 40, "note_on_time": 66.539, "note_off_time": 67.553}, {"pitch": 60, "velocity": 40, "note_on_time": 72.557, "note_off_time": 73.568}, {"pitch": 64, "velocity": 40, "note_on_time": 72.558, "note_off_time": 73.569}, {"pitch": 67, "velocity": 40, "note_on_time": 72.558, "note_off_time": 73.569}, {"pitch": 76, "velocity": 40, "note_on_time": 74.577, "note_off_time": 75.588}, {"pitch": 60, "velocity": 40, "note_on_time": 80.604, "note_off_time": 81.62}, {"pitch": 64, "velocity": 40, "note_on_time": 80.604, "note_off_time": 81.621}, {"pitch": 67, "velocity": 40, "note_on_time": 80.605, "note_off_time": 81.621}, {"pitch": 74, "velocity": 40, "note_on_time": 82.637, "note_off_time": 83.653}, {"pitch": 60, "velocity": 40, "note_on_time": 88.663, "note_off_time": 89.669}, {"pitch": 64, "velocity": 40, "note_on_time": 88.663, "note_off_time": 89.67}, {"pitch": 67, "velocity": 40, "note_on_time": 88.663, "note_off_time": 89.671}, {"pitch": 72, "velocity": 40, "note_on_time": 90.683, "note_off_time": 91.684}, {"pitch": 60, "velocity": 40, "note_on_time": 96.693, "note_off_time": 97.697}, {"pitch": 64, "velocity": 40, "note_on_time": 96.693, "note_off_time": 97.697}, {"pitch": 67, "velocity": 40, "note_on_time": 96.694, "note_off_time": 97.698}, {"pitch": 76, "velocity": 40, "note_on_time": 98.713, "note_off_time": 99.725}, {"pitch": 60, "velocity": 40, "note_on_time": 104.737, "note_off_time": 105.75}, {"pitch": 64, "velocity": 40, "note_on_time": 104.738, "note_off_time": 105.751}, {"pitch": 67, "velocity": 40, "note_on_time": 104.739, "note_off_time": 105.752}, {"pitch": 74, "velocity": 40, "note_on_time": 106.766, "note_off_time": 107.777}, {"pitch": 60, "velocity": 40, "note_on_time": 112.786, "note_off_time": 113.801}, {"pitch": 64, "velocity": 40, "note_on_time": 112.787, "note_off_time": 113.802}, {"pitch": 67, "velocity": 40, "note_on_time": 112.788, "note_off_time": 113.802}, {"pitch": 79, "velocity": 40, "note_on_time": 114.817, "note_off_time": 115.832}, {"pitch": 60, "velocity": 40, "note_on_time": 120.848, "note_off_time": 121.865}, {"pitch": 64, "velocity": 40, "note_on_time": 120.849, "note_off_time": 121.866}, {"pitch": 67, "velocity": 40, "note_on_time": 120.849, "note_off_time": 121.866}, {"pitch": 72, "velocity": 40, "note_on_time": 122.871, "note_off_time": 123.878}, {"pitch": 60, "velocity": 40, "note_on_time": 128.88, "note_off_time": 129.895}, {"pitch": 64, "velocity": 40, "note_on_time": 128.88, "note_off_time": 129.896}, {"pitch": 67, "velocity": 40, "note_on_time": 128.881, "note_off_time": 129.896}, {"pitch": 79, "velocity": 40, "note_on_time": 130.911, "note_off_time": 131.921}, {"pitch": 60, "velocity": 40, "note_on_time": 136.929, "note_off_time": 137.931}, {"pitch": 64, "velocity": 40, "note_on_time": 136.93, "note_off_time": 137.933}, {"pitch": 67, "velocity": 40, "note_on_time": 136.93, "note_off_time": 137.933}, {"pitch": 76, "velocity": 40, "note_on_time": 138.946, "note_off_time": 139.959}, {"pitch": 60, "velocity": 40, "note_on_time": 144.966, "note_off_time": 145.983}, {"pitch": 64, "velocity": 40, "note_on_time": 144.967, "note_off_time": 145.984}, {"pitch": 67, "velocity": 40, "note_on_time": 144.967, "note_off_time": 145.984}, {"pitch": 77, "velocity": 40, "note_on_time": 146.999, "note_off_time": 148.007}, {"pitch": 60, "velocity": 40, "note_on_time": 153.017, "note_off_time": 154.019}, {"pitch": 64, "velocity": 40, "note_on_time": 153.018, "note_off_time": 154.02}, {"pitch": 67, "velocity": 40, "note_on_time": 153.018, "note_off_time": 154.021}, {"pitch": 79, "velocity": 40, "note_on_time": 155.036, "note_off_time": 156.044}, {"pitch": 60, "velocity": 40, "note_on_time": 161.058, "note_off_time": 162.065}, {"pitch": 64, "velocity": 40, "note_on_time": 161.058, "note_off_time": 162.066}, {"pitch": 67, "velocity": 40, "note_on_time": 161.059, "note_off_time": 162.066}, {"pitch": 74, "velocity": 40, "note_on_time": 163.074, "note_off_time": 164.088}]</notes><options name="Option List">((4, 4), [0.5, 0.25], 3, 8, &lt;NoteRangePerHand.TWO_NOTES: 3&gt;, &lt;NoteRangePerHand.ONE_NOTE: 2&gt;, False, True, True, 100)</options></target_notes><trials><trial trial_no="1" timestamp="2024_03_11-13_19_52"><notes name="Played Notes">[{"pitch": 79, "velocity": 40, "note_on_time": 2.99, "note_off_time": 3.714}, {"pitch": 72, "velocity": 33, "note_on_time": 4.206, "note_off_time": 5.407}, {"pitch": 72, "velocity": 28, "note_on_time": 10.19, "note_off_time": 10.915}, {"pitch": 79, "velocity": 55, "note_on_time": 19.258, "note_off_time": 20.568}, {"pitch": 72, "velocity": 29, "note_on_time": 28.434, "note_off_time": 28.882}, {"pitch": 79, "velocity": 49, "note_on_time": 29.243, "note_off_time": 30.053}, {"pitch": 79, "velocity": 51, "note_on_time": 35.701, "note_off_time": 36.216}, {"pitch": 72, "velocity": 5, "note_on_time": 36.724, "note_off_time": 37.609}, {"pitch": 74, "velocity": 51, "note_on_time": 39.472, "note_off_time": 40.294}, {"pitch": 76, "velocity": 30, "note_on_time": 40.567, "note_off_time": 40.875}, {"pitch": 79, "velocity": 46, "note_on_time": 44.443, "note_off_time": 45.01}, {"pitch": 72, "velocity": 52, "note_on_time": 45.369, "note_off_time": 45.979}, {"pitch": 79, "velocity": 64, "note_on_time": 53.053, "note_off_time": 53.465}, {"pitch": 72, "velocity": 56, "note_on_time": 53.998, "note_off_time": 54.914}, {"pitch": 79, "velocity": 26, "note_on_time": 60.142, "note_off_time": 61.047}, {"pitch": 72, "velocity": 23, "note_on_time": 65.98, "note_off_time": 66.691}, {"pitch": 74, "velocity": 52, "note_on_time": 67.123, "note_off_time": 67.728}, {"pitch": 77, "velocity": 31, "note_on_time": 68.415, "note_off_time": 69.414}, {"pitch": 76, "velocity": 26, "note_on_time": 67.787, "note_off_time": 69.417}, {"pitch": 79, "velocity": 11, "note_on_time": 68.913, "note_off_time": 69.486}, {"pitch": 72, "velocity": 60, "note_on_time": 74.534, "note_off_time": 75.732}, {"pitch": 79, "velocity": 28, "note_on_time": 83.868, "note_off_time": 84.584}, {"pitch": 79, "velocity": 32, "note_on_time": 91.823, "note_off_time": 92.705}, {"pitch": 77, "velocity": 1, "note_on_time": 93.868, "note_off_time": 94.308}, {"pitch": 76, "velocity": 40, "note_on_time": 94.584, "note_off_time": 95.192}, {"pitch": 74, "velocity": 50, "note_on_time": 95.966, "note_off_time": 97.065}, {"pitch": 72, "velocity": 44, "note_on_time": 98.53, "note_off_time": 99.086}, {"pitch": 79, "velocity": 57, "note_on_time": 102.172, "note_off_time": 102.379}, {"pitch": 72, "velocity": 27, "note_on_time": 109.692, "note_off_time": 110.425}, {"pitch": 79, "velocity": 52, "note_on_time": 115.827, "note_off_time": 116.216}, {"pitch": 79, "velocity": 67, "note_on_time": 116.545, "note_off_time": 117.899}, {"pitch": 72, "velocity": 31, "note_on_time": 124.831, "note_off_time": 126.181}, {"pitch": 79, "velocity": 46, "note_on_time": 132.233, "note_off_time": 133.938}, {"pitch": 74, "velocity": 29, "note_on_time": 140.519, "note_off_time": 141.043}, {"pitch": 76, "velocity": 43, "note_on_time": 141.321, "note_off_time": 143.003}, {"pitch": 74, "velocity": 34, "note_on_time": 149.008, "note_off_time": 149.502}, {"pitch": 72, "velocity": 23, "note_on_time": 149.769, "note_off_time": 150.343}, {"pitch": 77, "velocity": 41, "note_on_time": 151.262, "note_off_time": 152.258}, {"pitch": 79, "velocity": 27, "note_on_time": 156.13, "note_off_time": 157.484}]</notes><guidance name="Guidance Mode">None</guidance><error name="Error value">99</error></trial></trials></MIDI>