<MIDI midiNo="2024_03_18-10_44_46"><target_notes><notes name="Note List">[{"pitch": 48, "velocity": 40, "note_on_time": 0.067, "note_off_time": 0.669}, {"pitch": 52, "velocity": 40, "note_on_time": 0.67, "note_off_time": 1.273}, {"pitch": 55, "velocity": 40, "note_on_time": 0.67, "note_off_time": 1.274}, {"pitch": 48, "velocity": 40, "note_on_time": 1.274, "note_off_time": 1.889}, {"pitch": 52, "velocity": 40, "note_on_time": 1.891, "note_off_time": 2.493}, {"pitch": 55, "velocity": 40, "note_on_time": 1.891, "note_off_time": 2.494}, {"pitch": 48, "velocity": 40, "note_on_time": 2.495, "note_off_time": 3.099}, {"pitch": 52, "velocity": 40, "note_on_time": 3.1, "note_off_time": 3.703}, {"pitch": 55, "velocity": 40, "note_on_time": 3.101, "note_off_time": 3.703}, {"pitch": 48, "velocity": 40, "note_on_time": 3.704, "note_off_time": 4.308}, {"pitch": 52, "velocity": 40, "note_on_time": 4.308, "note_off_time": 4.911}, {"pitch": 55, "velocity": 40, "note_on_time": 4.308, "note_off_time": 4.911}, {"pitch": 48, "velocity": 40, "note_on_time": 4.912, "note_off_time": 5.514}, {"pitch": 52, "velocity": 40, "note_on_time": 5.515, "note_off_time": 6.123}, {"pitch": 55, "velocity": 40, "note_on_time": 5.515, "note_off_time": 6.124}, {"pitch": 48, "velocity": 40, "note_on_time": 6.124, "note_off_time": 6.728}, {"pitch": 52, "velocity": 40, "note_on_time": 6.728, "note_off_time": 7.336}, {"pitch": 55, "velocity": 40, "note_on_time": 6.729, "note_off_time": 7.337}, {"pitch": 48, "velocity": 40, "note_on_time": 7.337, "note_off_time": 7.942}, {"pitch": 52, "velocity": 40, "note_on_time": 7.942, "note_off_time": 8.549}, {"pitch": 55, "velocity": 40, "note_on_time": 7.943, "note_off_time": 8.551}, {"pitch": 48, "velocity": 40, "note_on_time": 8.551, "note_off_time": 9.167}, {"pitch": 52, "velocity": 40, "note_on_time": 9.168, "note_off_time": 9.769}, {"pitch": 55, "velocity": 40, "note_on_time": 9.168, "note_off_time": 9.77}, {"pitch": 48, "velocity": 40, "note_on_time": 9.771, "note_off_time": 10.387}, {"pitch": 52, "velocity": 40, "note_on_time": 10.388, "note_off_time": 10.997}, {"pitch": 55, "velocity": 40, "note_on_time": 10.389, "note_off_time": 10.997}, {"pitch": 48, "velocity": 40, "note_on_time": 10.998, "note_off_time": 11.599}, {"pitch": 52, "velocity": 40, "note_on_time": 11.6, "note_off_time": 12.202}, {"pitch": 55, "velocity": 40, "note_on_time": 11.6, "note_off_time": 12.203}, {"pitch": 48, "velocity": 40, "note_on_time": 12.204, "note_off_time": 12.816}, {"pitch": 52, "velocity": 40, "note_on_time": 12.817, "note_off_time": 13.423}, {"pitch": 55, "velocity": 40, "note_on_time": 12.818, "note_off_time": 13.423}, {"pitch": 48, "velocity": 40, "note_on_time": 13.424, "note_off_time": 14.04}, {"pitch": 52, "velocity": 40, "note_on_time": 14.04, "note_off_time": 14.647}, {"pitch": 55, "velocity": 40, "note_on_time": 14.041, "note_off_time": 14.649}, {"pitch": 48, "velocity": 40, "note_on_time": 14.649, "note_off_time": 15.264}, {"pitch": 52, "velocity": 40, "note_on_time": 15.264, "note_off_time": 15.869}, {"pitch": 55, "velocity": 40, "note_on_time": 15.265, "note_off_time": 15.87}, {"pitch": 48, "velocity": 40, "note_on_time": 15.87, "note_off_time": 16.477}, {"pitch": 52, "velocity": 40, "note_on_time": 16.478, "note_off_time": 17.093}, {"pitch": 55, "velocity": 40, "note_on_time": 16.479, "note_off_time": 17.094}, {"pitch": 48, "velocity": 40, "note_on_time": 17.095, "note_off_time": 17.708}, {"pitch": 52, "velocity": 40, "note_on_time": 17.708, "note_off_time": 18.311}, {"pitch": 55, "velocity": 40, "note_on_time": 17.709, "note_off_time": 18.312}, {"pitch": 48, "velocity": 40, "note_on_time": 18.312, "note_off_time": 18.913}, {"pitch": 52, "velocity": 40, "note_on_time": 18.914, "note_off_time": 19.523}, {"pitch": 55, "velocity": 40, "note_on_time": 18.914, "note_off_time": 19.524}, {"pitch": 48, "velocity": 40, "note_on_time": 19.524, "note_off_time": 20.128}, {"pitch": 52, "velocity": 40, "note_on_time": 20.13, "note_off_time": 20.734}, {"pitch": 55, "velocity": 40, "note_on_time": 20.131, "note_off_time": 20.735}, {"pitch": 48, "velocity": 40, "note_on_time": 20.736, "note_off_time": 21.342}, {"pitch": 52, "velocity": 40, "note_on_time": 21.343, "note_off_time": 21.945}, {"pitch": 55, "velocity": 40, "note_on_time": 21.343, "note_off_time": 21.946}, {"pitch": 48, "velocity": 40, "note_on_time": 21.947, "note_off_time": 22.551}, {"pitch": 52, "velocity": 40, "note_on_time": 22.552, "note_off_time": 23.167}, {"pitch": 55, "velocity": 40, "note_on_time": 22.553, "note_off_time": 23.168}, {"pitch": 48, "velocity": 40, "note_on_time": 23.169, "note_off_time": 23.784}, {"pitch": 52, "velocity": 40, "note_on_time": 23.785, "note_off_time": 24.4}, {"pitch": 55, "velocity": 40, "note_on_time": 23.786, "note_off_time": 24.402}, {"pitch": 48, "velocity": 40, "note_on_time": 24.402, "note_off_time": 25.005}, {"pitch": 52, "velocity": 40, "note_on_time": 25.006, "note_off_time": 25.609}, {"pitch": 55, "velocity": 40, "note_on_time": 25.007, "note_off_time": 25.61}, {"pitch": 48, "velocity": 40, "note_on_time": 25.61, "note_off_time": 26.226}, {"pitch": 52, "velocity": 40, "note_on_time": 26.226, "note_off_time": 26.833}, {"pitch": 55, "velocity": 40, "note_on_time": 26.227, "note_off_time": 26.835}, {"pitch": 48, "velocity": 40, "note_on_time": 26.835, "note_off_time": 27.438}, {"pitch": 52, "velocity": 40, "note_on_time": 27.438, "note_off_time": 28.042}, {"pitch": 55, "velocity": 40, "note_on_time": 27.439, "note_off_time": 28.042}, {"pitch": 48, "velocity": 40, "note_on_time": 28.043, "note_off_time": 28.647}, {"pitch": 52, "velocity": 40, "note_on_time": 28.648, "note_off_time": 29.256}, {"pitch": 55, "velocity": 40, "note_on_time": 28.648, "note_off_time": 29.257}, {"pitch": 48, "velocity": 40, "note_on_time": 29.258, "note_off_time": 29.863}, {"pitch": 52, "velocity": 40, "note_on_time": 29.864, "note_off_time": 30.479}, {"pitch": 55, "velocity": 40, "note_on_time": 29.864, "note_off_time": 30.48}, {"pitch": 48, "velocity": 40, "note_on_time": 30.481, "note_off_time": 31.09}, {"pitch": 52, "velocity": 40, "note_on_time": 31.09, "note_off_time": 31.699}, {"pitch": 55, "velocity": 40, "note_on_time": 31.09, "note_off_time": 31.7}, {"pitch": 48, "velocity": 40, "note_on_time": 31.701, "note_off_time": 32.314}, {"pitch": 52, "velocity": 40, "note_on_time": 32.315, "note_off_time": 32.924}, {"pitch": 55, "velocity": 40, "note_on_time": 32.316, "note_off_time": 32.925}, {"pitch": 48, "velocity": 40, "note_on_time": 32.925, "note_off_time": 33.532}, {"pitch": 52, "velocity": 40, "note_on_time": 33.532, "note_off_time": 34.139}, {"pitch": 55, "velocity": 40, "note_on_time": 33.537, "note_off_time": 34.14}, {"pitch": 48, "velocity": 40, "note_on_time": 34.141, "note_off_time": 34.745}, {"pitch": 52, "velocity": 40, "note_on_time": 34.745, "note_off_time": 35.35}, {"pitch": 55, "velocity": 40, "note_on_time": 34.745, "note_off_time": 35.35}, {"pitch": 48, "velocity": 40, "note_on_time": 35.351, "note_off_time": 35.958}, {"pitch": 52, "velocity": 40, "note_on_time": 35.958, "note_off_time": 36.56}, {"pitch": 55, "velocity": 40, "note_on_time": 35.959, "note_off_time": 36.56}, {"pitch": 48, "velocity": 40, "note_on_time": 36.56, "note_off_time": 37.17}, {"pitch": 52, "velocity": 40, "note_on_time": 37.171, "note_off_time": 37.778}, {"pitch": 55, "velocity": 40, "note_on_time": 37.171, "note_off_time": 37.779}, {"pitch": 48, "velocity": 40, "note_on_time": 37.78, "note_off_time": 38.392}, {"pitch": 52, "velocity": 40, "note_on_time": 38.392, "note_off_time": 39.008}, {"pitch": 55, "velocity": 40, "note_on_time": 38.393, "note_off_time": 39.008}, {"pitch": 48, "velocity": 40, "note_on_time": 39.008, "note_off_time": 39.614}, {"pitch": 52, "velocity": 40, "note_on_time": 39.615, "note_off_time": 40.219}, {"pitch": 55, "velocity": 40, "note_on_time": 39.615, "note_off_time": 40.219}, {"pitch": 48, "velocity": 40, "note_on_time": 40.219, "note_off_time": 40.83}, {"pitch": 52, "velocity": 40, "note_on_time": 40.831, "note_off_time": 41.436}, {"pitch": 55, "velocity": 40, "note_on_time": 40.831, "note_off_time": 41.436}, {"pitch": 48, "velocity": 40, "note_on_time": 41.437, "note_off_time": 42.041}, {"pitch": 52, "velocity": 40, "note_on_time": 42.042, "note_off_time": 42.643}, {"pitch": 55, "velocity": 40, "note_on_time": 42.042, "note_off_time": 42.644}, {"pitch": 48, "velocity": 40, "note_on_time": 42.645, "note_off_time": 43.246}, {"pitch": 52, "velocity": 40, "note_on_time": 43.247, "note_off_time": 43.852}, {"pitch": 55, "velocity": 40, "note_on_time": 43.247, "note_off_time": 43.853}, {"pitch": 48, "velocity": 40, "note_on_time": 43.853, "note_off_time": 44.458}, {"pitch": 52, "velocity": 40, "note_on_time": 44.458, "note_off_time": 45.064}, {"pitch": 55, "velocity": 40, "note_on_time": 44.459, "note_off_time": 45.065}, {"pitch": 48, "velocity": 40, "note_on_time": 45.065, "note_off_time": 45.67}, {"pitch": 52, "velocity": 40, "note_on_time": 45.67, "note_off_time": 46.276}, {"pitch": 55, "velocity": 40, "note_on_time": 45.671, "note_off_time": 46.277}, {"pitch": 48, "velocity": 40, "note_on_time": 46.278, "note_off_time": 46.884}, {"pitch": 52, "velocity": 40, "note_on_time": 46.884, "note_off_time": 47.487}, {"pitch": 55, "velocity": 40, "note_on_time": 46.885, "note_off_time": 47.489}, {"pitch": 48, "velocity": 40, "note_on_time": 47.489, "note_off_time": 48.097}, {"pitch": 52, "velocity": 40, "note_on_time": 48.097, "note_off_time": 48.703}, {"pitch": 55, "velocity": 40, "note_on_time": 48.097, "note_off_time": 48.704}, {"pitch": 48, "velocity": 40, "note_on_time": 48.705, "note_off_time": 49.311}, {"pitch": 52, "velocity": 40, "note_on_time": 49.311, "note_off_time": 49.919}, {"pitch": 55, "velocity": 40, "note_on_time": 49.311, "note_off_time": 49.919}, {"pitch": 48, "velocity": 40, "note_on_time": 49.92, "note_off_time": 50.528}, {"pitch": 52, "velocity": 40, "note_on_time": 50.529, "note_off_time": 51.133}, {"pitch": 55, "velocity": 40, "note_on_time": 50.529, "note_off_time": 51.134}, {"pitch": 48, "velocity": 40, "note_on_time": 51.134, "note_off_time": 51.75}, {"pitch": 52, "velocity": 40, "note_on_time": 51.751, "note_off_time": 52.356}, {"pitch": 55, "velocity": 40, "note_on_time": 51.752, "note_off_time": 52.357}, {"pitch": 48, "velocity": 40, "note_on_time": 52.358, "note_off_time": 52.962}, {"pitch": 52, "velocity": 40, "note_on_time": 52.963, "note_off_time": 53.566}, {"pitch": 55, "velocity": 40, "note_on_time": 52.964, "note_off_time": 53.567}, {"pitch": 48, "velocity": 40, "note_on_time": 53.568, "note_off_time": 54.174}, {"pitch": 52, "velocity": 40, "note_on_time": 54.175, "note_off_time": 54.787}, {"pitch": 55, "velocity": 40, "note_on_time": 54.175, "note_off_time": 54.787}, {"pitch": 48, "velocity": 40, "note_on_time": 54.788, "note_off_time": 55.392}, {"pitch": 52, "velocity": 40, "note_on_time": 55.392, "note_off_time": 55.997}, {"pitch": 55, "velocity": 40, "note_on_time": 55.393, "note_off_time": 55.998}, {"pitch": 48, "velocity": 40, "note_on_time": 55.999, "note_off_time": 56.608}, {"pitch": 52, "velocity": 40, "note_on_time": 56.609, "note_off_time": 57.22}, {"pitch": 55, "velocity": 40, "note_on_time": 56.609, "note_off_time": 57.221}, {"pitch": 48, "velocity": 40, "note_on_time": 57.221, "note_off_time": 57.833}, {"pitch": 52, "velocity": 40, "note_on_time": 57.833, "note_off_time": 58.435}, {"pitch": 55, "velocity": 40, "note_on_time": 57.833, "note_off_time": 58.435}, {"pitch": 48, "velocity": 40, "note_on_time": 58.436, "note_off_time": 59.042}, {"pitch": 52, "velocity": 40, "note_on_time": 59.042, "note_off_time": 59.647}, {"pitch": 55, "velocity": 40, "note_on_time": 59.043, "note_off_time": 59.647}, {"pitch": 48, "velocity": 40, "note_on_time": 59.648, "note_off_time": 60.253}, {"pitch": 52, "velocity": 40, "note_on_time": 60.254, "note_off_time": 60.867}, {"pitch": 55, "velocity": 40, "note_on_time": 60.254, "note_off_time": 60.868}, {"pitch": 48, "velocity": 40, "note_on_time": 60.868, "note_off_time": 61.484}, {"pitch": 52, "velocity": 40, "note_on_time": 61.485, "note_off_time": 62.088}, {"pitch": 55, "velocity": 40, "note_on_time": 61.486, "note_off_time": 62.089}, {"pitch": 48, "velocity": 40, "note_on_time": 62.09, "note_off_time": 62.692}, {"pitch": 52, "velocity": 40, "note_on_time": 62.692, "note_off_time": 63.307}, {"pitch": 55, "velocity": 40, "note_on_time": 62.693, "note_off_time": 63.308}, {"pitch": 48, "velocity": 40, "note_on_time": 63.308, "note_off_time": 63.91}, {"pitch": 52, "velocity": 40, "note_on_time": 63.91, "note_off_time": 64.514}, {"pitch": 55, "velocity": 40, "note_on_time": 63.91, "note_off_time": 64.515}, {"pitch": 48, "velocity": 40, "note_on_time": 64.515, "note_off_time": 65.122}, {"pitch": 52, "velocity": 40, "note_on_time": 65.122, "note_off_time": 65.727}, {"pitch": 55, "velocity": 40, "note_on_time": 65.122, "note_off_time": 65.727}, {"pitch": 48, "velocity": 40, "note_on_time": 65.727, "note_off_time": 66.332}, {"pitch": 52, "velocity": 40, "note_on_time": 66.332, "note_off_time": 66.941}, {"pitch": 55, "velocity": 40, "note_on_time": 66.332, "note_off_time": 66.941}, {"pitch": 48, "velocity": 40, "note_on_time": 66.942, "note_off_time": 67.548}, {"pitch": 52, "velocity": 40, "note_on_time": 67.548, "note_off_time": 68.152}, {"pitch": 55, "velocity": 40, "note_on_time": 67.549, "note_off_time": 68.153}, {"pitch": 48, "velocity": 40, "note_on_time": 68.154, "note_off_time": 68.769}, {"pitch": 52, "velocity": 40, "note_on_time": 68.77, "note_off_time": 69.384}, {"pitch": 55, "velocity": 40, "note_on_time": 68.771, "note_off_time": 69.384}, {"pitch": 48, "velocity": 40, "note_on_time": 69.385, "note_off_time": 69.986}, {"pitch": 52, "velocity": 40, "note_on_time": 69.987, "note_off_time": 70.603}, {"pitch": 55, "velocity": 40, "note_on_time": 69.988, "note_off_time": 70.604}, {"pitch": 48, "velocity": 40, "note_on_time": 70.605, "note_off_time": 71.207}, {"pitch": 52, "velocity": 40, "note_on_time": 71.208, "note_off_time": 71.811}, {"pitch": 55, "velocity": 40, "note_on_time": 71.208, "note_off_time": 71.812}, {"pitch": 48, "velocity": 40, "note_on_time": 71.813, "note_off_time": 72.428}, {"pitch": 52, "velocity": 40, "note_on_time": 72.429, "note_off_time": 73.037}, {"pitch": 55, "velocity": 40, "note_on_time": 72.429, "note_off_time": 73.037}, {"pitch": 48, "velocity": 40, "note_on_time": 73.037, "note_off_time": 73.645}, {"pitch": 52, "velocity": 40, "note_on_time": 73.646, "note_off_time": 74.253}, {"pitch": 55, "velocity": 40, "note_on_time": 73.646, "note_off_time": 74.253}, {"pitch": 48, "velocity": 40, "note_on_time": 74.254, "note_off_time": 74.856}, {"pitch": 52, "velocity": 40, "note_on_time": 74.857, "note_off_time": 75.472}, {"pitch": 55, "velocity": 40, "note_on_time": 74.857, "note_off_time": 75.473}, {"pitch": 48, "velocity": 40, "note_on_time": 75.473, "note_off_time": 76.075}, {"pitch": 52, "velocity": 40, "note_on_time": 76.076, "note_off_time": 76.683}, {"pitch": 55, "velocity": 40, "note_on_time": 76.077, "note_off_time": 76.683}, {"pitch": 48, "velocity": 40, "note_on_time": 76.684, "note_off_time": 77.287}, {"pitch": 52, "velocity": 40, "note_on_time": 77.287, "note_off_time": 77.893}, {"pitch": 55, "velocity": 40, "note_on_time": 77.287, "note_off_time": 77.894}, {"pitch": 48, "velocity": 40, "note_on_time": 77.894, "note_off_time": 78.501}, {"pitch": 52, "velocity": 40, "note_on_time": 78.502, "note_off_time": 79.107}, {"pitch": 55, "velocity": 40, "note_on_time": 78.502, "note_off_time": 79.107}, {"pitch": 48, "velocity": 40, "note_on_time": 79.108, "note_off_time": 79.714}, {"pitch": 52, "velocity": 40, "note_on_time": 79.715, "note_off_time": 80.325}, {"pitch": 55, "velocity": 40, "note_on_time": 79.715, "note_off_time": 80.325}, {"pitch": 48, "velocity": 40, "note_on_time": 80.327, "note_off_time": 80.929}, {"pitch": 52, "velocity": 40, "note_on_time": 80.929, "note_off_time": 81.537}, {"pitch": 55, "velocity": 40, "note_on_time": 80.929, "note_off_time": 81.539}, {"pitch": 48, "velocity": 40, "note_on_time": 81.539, "note_off_time": 82.152}, {"pitch": 52, "velocity": 40, "note_on_time": 82.153, "note_off_time": 82.757}, {"pitch": 55, "velocity": 40, "note_on_time": 82.154, "note_off_time": 82.757}, {"pitch": 48, "velocity": 40, "note_on_time": 82.757, "note_off_time": 83.359}, {"pitch": 52, "velocity": 40, "note_on_time": 83.36, "note_off_time": 83.977}, {"pitch": 55, "velocity": 40, "note_on_time": 83.361, "note_off_time": 83.977}, {"pitch": 48, "velocity": 40, "note_on_time": 83.978, "note_off_time": 84.58}, {"pitch": 52, "velocity": 40, "note_on_time": 84.581, "note_off_time": 85.189}, {"pitch": 55, "velocity": 40, "note_on_time": 84.581, "note_off_time": 85.189}, {"pitch": 48, "velocity": 40, "note_on_time": 85.19, "note_off_time": 85.791}, {"pitch": 52, "velocity": 40, "note_on_time": 85.791, "note_off_time": 86.395}, {"pitch": 55, "velocity": 40, "note_on_time": 85.792, "note_off_time": 86.396}, {"pitch": 48, "velocity": 40, "note_on_time": 86.396, "note_off_time": 87.002}, {"pitch": 52, "velocity": 40, "note_on_time": 87.003, "note_off_time": 87.608}, {"pitch": 55, "velocity": 40, "note_on_time": 87.003, "note_off_time": 87.608}, {"pitch": 48, "velocity": 40, "note_on_time": 87.609, "note_off_time": 88.215}, {"pitch": 52, "velocity": 40, "note_on_time": 88.215, "note_off_time": 88.82}, {"pitch": 55, "velocity": 40, "note_on_time": 88.215, "note_off_time": 88.821}, {"pitch": 48, "velocity": 40, "note_on_time": 88.822, "note_off_time": 89.425}, {"pitch": 52, "velocity": 40, "note_on_time": 89.426, "note_off_time": 90.028}, {"pitch": 55, "velocity": 40, "note_on_time": 89.426, "note_off_time": 90.028}, {"pitch": 48, "velocity": 40, "note_on_time": 90.028, "note_off_time": 90.632}, {"pitch": 52, "velocity": 40, "note_on_time": 90.632, "note_off_time": 91.235}, {"pitch": 55, "velocity": 40, "note_on_time": 90.633, "note_off_time": 91.236}, {"pitch": 48, "velocity": 40, "note_on_time": 91.237, "note_off_time": 91.839}, {"pitch": 52, "velocity": 40, "note_on_time": 91.841, "note_off_time": 92.457}, {"pitch": 55, "velocity": 40, "note_on_time": 91.842, "note_off_time": 92.457}, {"pitch": 48, "velocity": 40, "note_on_time": 92.457, "note_off_time": 93.064}, {"pitch": 52, "velocity": 40, "note_on_time": 93.064, "note_off_time": 93.675}, {"pitch": 55, "velocity": 40, "note_on_time": 93.065, "note_off_time": 93.675}, {"pitch": 48, "velocity": 40, "note_on_time": 93.675, "note_off_time": 94.28}, {"pitch": 52, "velocity": 40, "note_on_time": 94.28, "note_off_time": 94.884}, {"pitch": 55, "velocity": 40, "note_on_time": 94.28, "note_off_time": 94.885}, {"pitch": 48, "velocity": 40, "note_on_time": 94.885, "note_off_time": 95.492}, {"pitch": 52, "velocity": 40, "note_on_time": 95.492, "note_off_time": 96.106}, {"pitch": 55, "velocity": 40, "note_on_time": 95.493, "note_off_time": 96.109}, {"pitch": 48, "velocity": 40, "note_on_time": 96.11, "note_off_time": 96.74}, {"pitch": 52, "velocity": 40, "note_on_time": 96.742, "note_off_time": 97.404}, {"pitch": 55, "velocity": 40, "note_on_time": 96.746, "note_off_time": 97.407}, {"pitch": 48, "velocity": 40, "note_on_time": 97.409, "note_off_time": 98.024}, {"pitch": 52, "velocity": 40, "note_on_time": 98.024, "note_off_time": 98.638}, {"pitch": 55, "velocity": 40, "note_on_time": 98.024, "note_off_time": 98.639}, {"pitch": 48, "velocity": 40, "note_on_time": 98.639, "note_off_time": 99.247}, {"pitch": 52, "velocity": 40, "note_on_time": 99.247, "note_off_time": 99.861}, {"pitch": 55, "velocity": 40, "note_on_time": 99.247, "note_off_time": 99.861}, {"pitch": 48, "velocity": 40, "note_on_time": 99.862, "note_off_time": 100.463}, {"pitch": 52, "velocity": 40, "note_on_time": 100.464, "note_off_time": 101.079}, {"pitch": 55, "velocity": 40, "note_on_time": 100.464, "note_off_time": 101.08}, {"pitch": 48, "velocity": 40, "note_on_time": 101.081, "note_off_time": 101.69}, {"pitch": 52, "velocity": 40, "note_on_time": 101.69, "note_off_time": 102.298}, {"pitch": 55, "velocity": 40, "note_on_time": 101.69, "note_off_time": 102.299}, {"pitch": 48, "velocity": 40, "note_on_time": 102.299, "note_off_time": 102.913}, {"pitch": 52, "velocity": 40, "note_on_time": 102.913, "note_off_time": 103.52}, {"pitch": 55, "velocity": 40, "note_on_time": 102.913, "note_off_time": 103.521}, {"pitch": 48, "velocity": 40, "note_on_time": 103.522, "note_off_time": 104.126}, {"pitch": 52, "velocity": 40, "note_on_time": 104.126, "note_off_time": 104.735}, {"pitch": 55, "velocity": 40, "note_on_time": 104.127, "note_off_time": 104.736}, {"pitch": 48, "velocity": 40, "note_on_time": 104.736, "note_off_time": 105.352}, {"pitch": 52, "velocity": 40, "note_on_time": 105.353, "note_off_time": 105.969}, {"pitch": 55, "velocity": 40, "note_on_time": 105.353, "note_off_time": 105.97}, {"pitch": 48, "velocity": 40, "note_on_time": 105.97, "note_off_time": 106.576}, {"pitch": 52, "velocity": 40, "note_on_time": 106.576, "note_off_time": 107.193}, {"pitch": 55, "velocity": 40, "note_on_time": 106.577, "note_off_time": 107.194}, {"pitch": 48, "velocity": 40, "note_on_time": 107.194, "note_off_time": 107.808}, {"pitch": 52, "velocity": 40, "note_on_time": 107.81, "note_off_time": 108.411}, {"pitch": 55, "velocity": 40, "note_on_time": 107.81, "note_off_time": 108.412}, {"pitch": 48, "velocity": 40, "note_on_time": 108.413, "note_off_time": 109.026}, {"pitch": 52, "velocity": 40, "note_on_time": 109.026, "note_off_time": 109.636}, {"pitch": 55, "velocity": 40, "note_on_time": 109.026, "note_off_time": 109.638}, {"pitch": 48, "velocity": 40, "note_on_time": 109.639, "note_off_time": 110.243}, {"pitch": 52, "velocity": 40, "note_on_time": 110.244, "note_off_time": 110.86}, {"pitch": 55, "velocity": 40, "note_on_time": 110.245, "note_off_time": 110.861}, {"pitch": 48, "velocity": 40, "note_on_time": 110.862, "note_off_time": 111.464}, {"pitch": 52, "velocity": 40, "note_on_time": 111.464, "note_off_time": 112.08}, {"pitch": 55, "velocity": 40, "note_on_time": 111.465, "note_off_time": 112.081}, {"pitch": 48, "velocity": 40, "note_on_time": 112.081, "note_off_time": 112.687}, {"pitch": 52, "velocity": 40, "note_on_time": 112.688, "note_off_time": 113.289}, {"pitch": 55, "velocity": 40, "note_on_time": 112.689, "note_off_time": 113.289}, {"pitch": 48, "velocity": 40, "note_on_time": 113.29, "note_off_time": 113.904}, {"pitch": 52, "velocity": 40, "note_on_time": 113.904, "note_off_time": 114.507}, {"pitch": 55, "velocity": 40, "note_on_time": 113.905, "note_off_time": 114.508}, {"pitch": 48, "velocity": 40, "note_on_time": 114.508, "note_off_time": 115.109}, {"pitch": 52, "velocity": 40, "note_on_time": 115.109, "note_off_time": 115.72}, {"pitch": 55, "velocity": 40, "note_on_time": 115.11, "note_off_time": 115.72}, {"pitch": 48, "velocity": 40, "note_on_time": 115.721, "note_off_time": 116.326}, {"pitch": 52, "velocity": 40, "note_on_time": 116.326, "note_off_time": 116.934}, {"pitch": 55, "velocity": 40, "note_on_time": 116.327, "note_off_time": 116.934}, {"pitch": 48, "velocity": 40, "note_on_time": 116.934, "note_off_time": 117.538}, {"pitch": 52, "velocity": 40, "note_on_time": 117.539, "note_off_time": 118.143}, {"pitch": 55, "velocity": 40, "note_on_time": 117.54, "note_off_time": 118.144}, {"pitch": 48, "velocity": 40, "note_on_time": 118.145, "note_off_time": 118.75}, {"pitch": 52, "velocity": 40, "note_on_time": 118.75, "note_off_time": 119.36}, {"pitch": 55, "velocity": 40, "note_on_time": 118.751, "note_off_time": 119.361}, {"pitch": 48, "velocity": 40, "note_on_time": 119.361, "note_off_time": 119.964}, {"pitch": 52, "velocity": 40, "note_on_time": 119.965, "note_off_time": 120.578}, {"pitch": 55, "velocity": 40, "note_on_time": 119.965, "note_off_time": 120.578}, {"pitch": 48, "velocity": 40, "note_on_time": 120.58, "note_off_time": 121.188}, {"pitch": 52, "velocity": 40, "note_on_time": 121.188, "note_off_time": 121.796}, {"pitch": 55, "velocity": 40, "note_on_time": 121.188, "note_off_time": 121.796}, {"pitch": 48, "velocity": 40, "note_on_time": 121.796, "note_off_time": 122.399}, {"pitch": 52, "velocity": 40, "note_on_time": 122.399, "note_off_time": 123.003}, {"pitch": 55, "velocity": 40, "note_on_time": 122.399, "note_off_time": 123.004}, {"pitch": 48, "velocity": 40, "note_on_time": 123.005, "note_off_time": 123.613}, {"pitch": 52, "velocity": 40, "note_on_time": 123.613, "note_off_time": 124.227}, {"pitch": 55, "velocity": 40, "note_on_time": 123.613, "note_off_time": 124.228}, {"pitch": 48, "velocity": 40, "note_on_time": 124.228, "note_off_time": 124.835}, {"pitch": 52, "velocity": 40, "note_on_time": 124.835, "note_off_time": 125.44}, {"pitch": 55, "velocity": 40, "note_on_time": 124.836, "note_off_time": 125.441}, {"pitch": 48, "velocity": 40, "note_on_time": 125.441, "note_off_time": 126.047}, {"pitch": 52, "velocity": 40, "note_on_time": 126.047, "note_off_time": 126.657}, {"pitch": 55, "velocity": 40, "note_on_time": 126.047, "note_off_time": 126.657}, {"pitch": 48, "velocity": 40, "note_on_time": 126.657, "note_off_time": 127.261}, {"pitch": 52, "velocity": 40, "note_on_time": 127.261, "note_off_time": 127.865}, {"pitch": 55, "velocity": 40, "note_on_time": 127.261, "note_off_time": 127.866}, {"pitch": 48, "velocity": 40, "note_on_time": 127.867, "note_off_time": 128.474}, {"pitch": 52, "velocity": 40, "note_on_time": 128.474, "note_off_time": 129.083}, {"pitch": 55, "velocity": 40, "note_on_time": 128.475, "note_off_time": 129.084}, {"pitch": 48, "velocity": 40, "note_on_time": 129.085, "note_off_time": 129.688}, {"pitch": 52, "velocity": 40, "note_on_time": 129.689, "note_off_time": 130.295}, {"pitch": 55, "velocity": 40, "note_on_time": 129.689, "note_off_time": 130.296}, {"pitch": 48, "velocity": 40, "note_on_time": 130.296, "note_off_time": 130.899}, {"pitch": 52, "velocity": 40, "note_on_time": 130.899, "note_off_time": 131.501}, {"pitch": 55, "velocity": 40, "note_on_time": 130.9, "note_off_time": 131.502}, {"pitch": 48, "velocity": 40, "note_on_time": 131.503, "note_off_time": 132.104}, {"pitch": 52, "velocity": 40, "note_on_time": 132.105, "note_off_time": 132.716}, {"pitch": 55, "velocity": 40, "note_on_time": 132.105, "note_off_time": 132.716}, {"pitch": 48, "velocity": 40, "note_on_time": 132.716, "note_off_time": 133.323}, {"pitch": 52, "velocity": 40, "note_on_time": 133.323, "note_off_time": 133.936}, {"pitch": 55, "velocity": 40, "note_on_time": 133.323, "note_off_time": 133.937}, {"pitch": 48, "velocity": 40, "note_on_time": 133.938, "note_off_time": 134.544}, {"pitch": 52, "velocity": 40, "note_on_time": 134.545, "note_off_time": 135.15}, {"pitch": 55, "velocity": 40, "note_on_time": 134.545, "note_off_time": 135.15}, {"pitch": 48, "velocity": 40, "note_on_time": 135.151, "note_off_time": 135.761}, {"pitch": 52, "velocity": 40, "note_on_time": 135.761, "note_off_time": 136.369}, {"pitch": 55, "velocity": 40, "note_on_time": 135.761, "note_off_time": 136.37}, {"pitch": 48, "velocity": 40, "note_on_time": 136.37, "note_off_time": 136.978}, {"pitch": 52, "velocity": 40, "note_on_time": 136.978, "note_off_time": 137.582}, {"pitch": 55, "velocity": 40, "note_on_time": 136.979, "note_off_time": 137.583}, {"pitch": 48, "velocity": 40, "note_on_time": 137.583, "note_off_time": 138.187}, {"pitch": 52, "velocity": 40, "note_on_time": 138.187, "note_off_time": 138.798}, {"pitch": 55, "velocity": 40, "note_on_time": 138.188, "note_off_time": 138.798}, {"pitch": 48, "velocity": 40, "note_on_time": 138.8, "note_off_time": 139.405}, {"pitch": 52, "velocity": 40, "note_on_time": 139.406, "note_off_time": 140.013}, {"pitch": 55, "velocity": 40, "note_on_time": 139.406, "note_off_time": 140.014}, {"pitch": 48, "velocity": 40, "note_on_time": 140.014, "note_off_time": 140.617}, {"pitch": 52, "velocity": 40, "note_on_time": 140.619, "note_off_time": 141.226}, {"pitch": 55, "velocity": 40, "note_on_time": 140.619, "note_off_time": 141.227}, {"pitch": 48, "velocity": 40, "note_on_time": 141.227, "note_off_time": 141.834}, {"pitch": 52, "velocity": 40, "note_on_time": 141.835, "note_off_time": 142.437}, {"pitch": 55, "velocity": 40, "note_on_time": 141.835, "note_off_time": 142.439}, {"pitch": 48, "velocity": 40, "note_on_time": 142.439, "note_off_time": 143.046}, {"pitch": 52, "velocity": 40, "note_on_time": 143.047, "note_off_time": 143.65}, {"pitch": 55, "velocity": 40, "note_on_time": 143.048, "note_off_time": 143.651}, {"pitch": 48, "velocity": 40, "note_on_time": 143.651, "note_off_time": 144.253}, {"pitch": 52, "velocity": 40, "note_on_time": 144.254, "note_off_time": 144.859}, {"pitch": 55, "velocity": 40, "note_on_time": 144.254, "note_off_time": 144.859}, {"pitch": 48, "velocity": 40, "note_on_time": 144.86, "note_off_time": 145.468}, {"pitch": 52, "velocity": 40, "note_on_time": 145.469, "note_off_time": 146.073}, {"pitch": 55, "velocity": 40, "note_on_time": 145.469, "note_off_time": 146.073}, {"pitch": 48, "velocity": 40, "note_on_time": 146.074, "note_off_time": 146.679}, {"pitch": 52, "velocity": 40, "note_on_time": 146.68, "note_off_time": 147.286}, {"pitch": 55, "velocity": 40, "note_on_time": 146.68, "note_off_time": 147.287}, {"pitch": 48, "velocity": 40, "note_on_time": 147.287, "note_off_time": 147.891}, {"pitch": 52, "velocity": 40, "note_on_time": 147.892, "note_off_time": 148.495}, {"pitch": 55, "velocity": 40, "note_on_time": 147.892, "note_off_time": 148.496}, {"pitch": 48, "velocity": 40, "note_on_time": 148.496, "note_off_time": 149.1}, {"pitch": 52, "velocity": 40, "note_on_time": 149.1, "note_off_time": 149.705}, {"pitch": 55, "velocity": 40, "note_on_time": 149.101, "note_off_time": 149.706}, {"pitch": 48, "velocity": 40, "note_on_time": 149.707, "note_off_time": 150.31}, {"pitch": 52, "velocity": 40, "note_on_time": 150.31, "note_off_time": 150.913}, {"pitch": 55, "velocity": 40, "note_on_time": 150.31, "note_off_time": 150.913}, {"pitch": 48, "velocity": 40, "note_on_time": 150.913, "note_off_time": 151.521}, {"pitch": 52, "velocity": 40, "note_on_time": 151.522, "note_off_time": 152.127}, {"pitch": 55, "velocity": 40, "note_on_time": 151.522, "note_off_time": 152.127}, {"pitch": 48, "velocity": 40, "note_on_time": 152.128, "note_off_time": 152.734}, {"pitch": 52, "velocity": 40, "note_on_time": 152.734, "note_off_time": 153.343}, {"pitch": 55, "velocity": 40, "note_on_time": 152.734, "note_off_time": 153.344}, {"pitch": 48, "velocity": 40, "note_on_time": 153.344, "note_off_time": 153.945}, {"pitch": 52, "velocity": 40, "note_on_time": 153.947, "note_off_time": 154.563}, {"pitch": 55, "velocity": 40, "note_on_time": 153.947, "note_off_time": 154.564}, {"pitch": 48, "velocity": 40, "note_on_time": 154.564, "note_off_time": 155.171}, {"pitch": 52, "velocity": 40, "note_on_time": 155.172, "note_off_time": 155.775}, {"pitch": 55, "velocity": 40, "note_on_time": 155.172, "note_off_time": 155.776}, {"pitch": 48, "velocity": 40, "note_on_time": 155.777, "note_off_time": 156.38}, {"pitch": 52, "velocity": 40, "note_on_time": 156.381, "note_off_time": 156.986}, {"pitch": 55, "velocity": 40, "note_on_time": 156.381, "note_off_time": 156.986}, {"pitch": 48, "velocity": 40, "note_on_time": 156.987, "note_off_time": 157.596}, {"pitch": 52, "velocity": 40, "note_on_time": 157.597, "note_off_time": 158.198}, {"pitch": 55, "velocity": 40, "note_on_time": 157.597, "note_off_time": 158.199}, {"pitch": 48, "velocity": 40, "note_on_time": 158.199, "note_off_time": 158.805}, {"pitch": 52, "velocity": 40, "note_on_time": 158.805, "note_off_time": 159.407}, {"pitch": 55, "velocity": 40, "note_on_time": 158.806, "note_off_time": 159.407}, {"pitch": 48, "velocity": 40, "note_on_time": 159.407, "note_off_time": 160.016}, {"pitch": 52, "velocity": 40, "note_on_time": 160.017, "note_off_time": 160.623}, {"pitch": 55, "velocity": 40, "note_on_time": 160.017, "note_off_time": 160.624}, {"pitch": 48, "velocity": 40, "note_on_time": 160.624, "note_off_time": 161.227}, {"pitch": 52, "velocity": 40, "note_on_time": 161.228, "note_off_time": 161.845}, {"pitch": 55, "velocity": 40, "note_on_time": 161.228, "note_off_time": 161.845}, {"pitch": 48, "velocity": 40, "note_on_time": 161.846, "note_off_time": 162.456}, {"pitch": 52, "velocity": 40, "note_on_time": 162.456, "note_off_time": 163.063}, {"pitch": 55, "velocity": 40, "note_on_time": 162.457, "note_off_time": 163.064}, {"pitch": 48, "velocity": 40, "note_on_time": 163.065, "note_off_time": 163.672}, {"pitch": 52, "velocity": 40, "note_on_time": 163.672, "note_off_time": 164.284}, {"pitch": 55, "velocity": 40, "note_on_time": 163.673, "note_off_time": 164.284}, {"pitch": 48, "velocity": 40, "note_on_time": 164.285, "note_off_time": 164.891}, {"pitch": 52, "velocity": 40, "note_on_time": 164.891, "note_off_time": 165.494}, {"pitch": 55, "velocity": 40, "note_on_time": 164.891, "note_off_time": 165.495}, {"pitch": 48, "velocity": 40, "note_on_time": 165.496, "note_off_time": 166.097}, {"pitch": 52, "velocity": 40, "note_on_time": 166.097, "note_off_time": 166.702}, {"pitch": 55, "velocity": 40, "note_on_time": 166.098, "note_off_time": 166.702}, {"pitch": 48, "velocity": 40, "note_on_time": 166.703, "note_off_time": 167.306}, {"pitch": 52, "velocity": 40, "note_on_time": 167.306, "note_off_time": 167.909}, {"pitch": 55, "velocity": 40, "note_on_time": 167.307, "note_off_time": 167.909}, {"pitch": 48, "velocity": 40, "note_on_time": 167.91, "note_off_time": 168.521}, {"pitch": 52, "velocity": 40, "note_on_time": 168.521, "note_off_time": 169.125}, {"pitch": 55, "velocity": 40, "note_on_time": 168.522, "note_off_time": 169.125}, {"pitch": 48, "velocity": 40, "note_on_time": 169.126, "note_off_time": 169.733}, {"pitch": 52, "velocity": 40, "note_on_time": 169.734, "note_off_time": 170.337}, {"pitch": 55, "velocity": 40, "note_on_time": 169.735, "note_off_time": 170.337}, {"pitch": 48, "velocity": 40, "note_on_time": 170.337, "note_off_time": 170.944}, {"pitch": 52, "velocity": 40, "note_on_time": 170.944, "note_off_time": 171.555}, {"pitch": 55, "velocity": 40, "note_on_time": 170.944, "note_off_time": 171.555}, {"pitch": 48, "velocity": 40, "note_on_time": 171.556, "note_off_time": 172.16}, {"pitch": 52, "velocity": 40, "note_on_time": 172.161, "note_off_time": 172.77}, {"pitch": 55, "velocity": 40, "note_on_time": 172.161, "note_off_time": 172.771}, {"pitch": 48, "velocity": 40, "note_on_time": 172.772, "note_off_time": 173.377}, {"pitch": 52, "velocity": 40, "note_on_time": 173.378, "note_off_time": 173.983}, {"pitch": 55, "velocity": 40, "note_on_time": 173.378, "note_off_time": 173.984}, {"pitch": 48, "velocity": 40, "note_on_time": 173.984, "note_off_time": 174.587}, {"pitch": 52, "velocity": 40, "note_on_time": 174.588, "note_off_time": 175.193}, {"pitch": 55, "velocity": 40, "note_on_time": 174.588, "note_off_time": 175.193}, {"pitch": 48, "velocity": 40, "note_on_time": 175.194, "note_off_time": 175.808}, {"pitch": 52, "velocity": 40, "note_on_time": 175.808, "note_off_time": 176.416}, {"pitch": 55, "velocity": 40, "note_on_time": 175.808, "note_off_time": 176.416}, {"pitch": 48, "velocity": 40, "note_on_time": 176.417, "note_off_time": 177.03}, {"pitch": 52, "velocity": 40, "note_on_time": 177.031, "note_off_time": 177.647}, {"pitch": 55, "velocity": 40, "note_on_time": 177.031, "note_off_time": 177.648}, {"pitch": 48, "velocity": 40, "note_on_time": 177.649, "note_off_time": 178.262}, {"pitch": 52, "velocity": 40, "note_on_time": 178.263, "note_off_time": 178.873}, {"pitch": 55, "velocity": 40, "note_on_time": 178.263, "note_off_time": 178.873}, {"pitch": 48, "velocity": 40, "note_on_time": 178.873, "note_off_time": 179.475}, {"pitch": 52, "velocity": 40, "note_on_time": 179.476, "note_off_time": 180.079}, {"pitch": 55, "velocity": 40, "note_on_time": 179.476, "note_off_time": 180.08}, {"pitch": 48, "velocity": 40, "note_on_time": 180.081, "note_off_time": 180.686}, {"pitch": 52, "velocity": 40, "note_on_time": 180.687, "note_off_time": 181.296}, {"pitch": 55, "velocity": 40, "note_on_time": 180.688, "note_off_time": 181.297}, {"pitch": 48, "velocity": 40, "note_on_time": 181.297, "note_off_time": 181.91}, {"pitch": 52, "velocity": 40, "note_on_time": 181.911, "note_off_time": 182.518}, {"pitch": 55, "velocity": 40, "note_on_time": 181.912, "note_off_time": 182.518}, {"pitch": 48, "velocity": 40, "note_on_time": 182.519, "note_off_time": 183.123}, {"pitch": 52, "velocity": 40, "note_on_time": 183.123, "note_off_time": 183.728}, {"pitch": 55, "velocity": 40, "note_on_time": 183.124, "note_off_time": 183.73}, {"pitch": 48, "velocity": 40, "note_on_time": 183.731, "note_off_time": 184.333}, {"pitch": 52, "velocity": 40, "note_on_time": 184.334, "note_off_time": 184.936}, {"pitch": 55, "velocity": 40, "note_on_time": 184.334, "note_off_time": 184.936}, {"pitch": 48, "velocity": 40, "note_on_time": 184.936, "note_off_time": 185.544}, {"pitch": 52, "velocity": 40, "note_on_time": 185.544, "note_off_time": 186.152}, {"pitch": 55, "velocity": 40, "note_on_time": 185.545, "note_off_time": 186.152}, {"pitch": 48, "velocity": 40, "note_on_time": 186.153, "note_off_time": 186.757}, {"pitch": 52, "velocity": 40, "note_on_time": 186.758, "note_off_time": 187.371}, {"pitch": 55, "velocity": 40, "note_on_time": 186.759, "note_off_time": 187.372}, {"pitch": 48, "velocity": 40, "note_on_time": 187.372, "note_off_time": 187.98}, {"pitch": 52, "velocity": 40, "note_on_time": 187.98, "note_off_time": 188.595}, {"pitch": 55, "velocity": 40, "note_on_time": 187.98, "note_off_time": 188.595}, {"pitch": 48, "velocity": 40, "note_on_time": 188.595, "note_off_time": 189.204}, {"pitch": 52, "velocity": 40, "note_on_time": 189.205, "note_off_time": 189.812}, {"pitch": 55, "velocity": 40, "note_on_time": 189.205, "note_off_time": 189.813}, {"pitch": 48, "velocity": 40, "note_on_time": 189.814, "note_off_time": 190.42}, {"pitch": 52, "velocity": 40, "note_on_time": 190.42, "note_off_time": 191.034}, {"pitch": 55, "velocity": 40, "note_on_time": 190.42, "note_off_time": 191.034}, {"pitch": 48, "velocity": 40, "note_on_time": 191.034, "note_off_time": 191.638}, {"pitch": 52, "velocity": 40, "note_on_time": 191.64, "note_off_time": 192.242}, {"pitch": 55, "velocity": 40, "note_on_time": 191.64, "note_off_time": 192.243}, {"pitch": 48, "velocity": 40, "note_on_time": 192.243, "note_off_time": 192.859}, {"pitch": 52, "velocity": 40, "note_on_time": 192.859, "note_off_time": 193.463}, {"pitch": 55, "velocity": 40, "note_on_time": 192.86, "note_off_time": 193.464}, {"pitch": 48, "velocity": 40, "note_on_time": 193.464, "note_off_time": 194.068}, {"pitch": 52, "velocity": 40, "note_on_time": 194.069, "note_off_time": 194.677}, {"pitch": 55, "velocity": 40, "note_on_time": 194.069, "note_off_time": 194.678}]</notes><options name="Option List">((4, 4), [0.5, 0.25], 3, 8, &lt;NoteRangePerHand.TWO_NOTES: 3&gt;, &lt;NoteRangePerHand.ONE_NOTE: 2&gt;, False, True, True, 100)</options></target_notes><trials /></MIDI>