<MIDI midiNo="2024_03_11-13_07_05"><target_notes><notes name="Note List">[{"pitch": 60, "velocity": 40, "note_on_time": 0.011, "note_off_time": 1.025}, {"pitch": 64, "velocity": 40, "note_on_time": 0.011, "note_off_time": 1.026}, {"pitch": 67, "velocity": 40, "note_on_time": 0.011, "note_off_time": 1.027}, {"pitch": 48, "velocity": 40, "note_on_time": 0.011, "note_off_time": 1.027}, {"pitch": 52, "velocity": 40, "note_on_time": 1.027, "note_off_time": 2.028}, {"pitch": 55, "velocity": 40, "note_on_time": 1.027, "note_off_time": 2.029}, {"pitch": 74, "velocity": 40, "note_on_time": 2.028, "note_off_time": 3.038}, {"pitch": 48, "velocity": 40, "note_on_time": 2.029, "note_off_time": 3.038}, {"pitch": 52, "velocity": 40, "note_on_time": 3.04, "note_off_time": 4.051}, {"pitch": 55, "velocity": 40, "note_on_time": 3.04, "note_off_time": 4.051}, {"pitch": 48, "velocity": 40, "note_on_time": 4.051, "note_off_time": 5.061}, {"pitch": 52, "velocity": 40, "note_on_time": 5.061, "note_off_time": 6.074}, {"pitch": 55, "velocity": 40, "note_on_time": 5.061, "note_off_time": 6.074}, {"pitch": 48, "velocity": 40, "note_on_time": 6.074, "note_off_time": 7.082}, {"pitch": 52, "velocity": 40, "note_on_time": 7.082, "note_off_time": 8.087}, {"pitch": 55, "velocity": 40, "note_on_time": 7.082, "note_off_time": 8.087}, {"pitch": 60, "velocity": 40, "note_on_time": 8.085, "note_off_time": 9.097}, {"pitch": 64, "velocity": 40, "note_on_time": 8.086, "note_off_time": 9.098}, {"pitch": 67, "velocity": 40, "note_on_time": 8.086, "note_off_time": 9.098}, {"pitch": 48, "velocity": 40, "note_on_time": 8.087, "note_off_time": 9.099}, {"pitch": 52, "velocity": 40, "note_on_time": 9.099, "note_off_time": 10.102}, {"pitch": 55, "velocity": 40, "note_on_time": 9.099, "note_off_time": 10.102}, {"pitch": 76, "velocity": 40, "note_on_time": 10.102, "note_off_time": 11.11}, {"pitch": 48, "velocity": 40, "note_on_time": 10.102, "note_off_time": 11.11}, {"pitch": 52, "velocity": 40, "note_on_time": 11.11, "note_off_time": 12.12}, {"pitch": 55, "velocity": 40, "note_on_time": 11.11, "note_off_time": 12.12}, {"pitch": 48, "velocity": 40, "note_on_time": 12.12, "note_off_time": 13.124}, {"pitch": 52, "velocity": 40, "note_on_time": 13.124, "note_off_time": 14.126}, {"pitch": 55, "velocity": 40, "note_on_time": 13.124, "note_off_time": 14.126}, {"pitch": 48, "velocity": 40, "note_on_time": 14.126, "note_off_time": 15.136}, {"pitch": 52, "velocity": 40, "note_on_time": 15.136, "note_off_time": 16.143}, {"pitch": 55, "velocity": 40, "note_on_time": 15.136, "note_off_time": 16.143}, {"pitch": 60, "velocity": 40, "note_on_time": 16.141, "note_off_time": 17.158}, {"pitch": 64, "velocity": 40, "note_on_time": 16.142, "note_off_time": 17.158}, {"pitch": 67, "velocity": 40, "note_on_time": 16.142, "note_off_time": 17.159}, {"pitch": 48, "velocity": 40, "note_on_time": 16.143, "note_off_time": 17.159}, {"pitch": 52, "velocity": 40, "note_on_time": 17.159, "note_off_time": 18.162}, {"pitch": 55, "velocity": 40, "note_on_time": 17.159, "note_off_time": 18.162}, {"pitch": 74, "velocity": 40, "note_on_time": 18.161, "note_off_time": 19.173}, {"pitch": 48, "velocity": 40, "note_on_time": 18.162, "note_off_time": 19.174}, {"pitch": 52, "velocity": 40, "note_on_time": 19.174, "note_off_time": 20.177}, {"pitch": 55, "velocity": 40, "note_on_time": 19.174, "note_off_time": 20.177}, {"pitch": 48, "velocity": 40, "note_on_time": 20.177, "note_off_time": 21.185}, {"pitch": 52, "velocity": 40, "note_on_time": 21.185, "note_off_time": 22.195}, {"pitch": 55, "velocity": 40, "note_on_time": 21.185, "note_off_time": 22.195}, {"pitch": 48, "velocity": 40, "note_on_time": 22.195, "note_off_time": 23.197}, {"pitch": 52, "velocity": 40, "note_on_time": 23.197, "note_off_time": 24.202}, {"pitch": 55, "velocity": 40, "note_on_time": 23.197, "note_off_time": 24.202}, {"pitch": 60, "velocity": 40, "note_on_time": 24.2, "note_off_time": 25.206}, {"pitch": 64, "velocity": 40, "note_on_time": 24.201, "note_off_time": 25.207}, {"pitch": 67, "velocity": 40, "note_on_time": 24.202, "note_off_time": 25.208}, {"pitch": 48, "velocity": 40, "note_on_time": 24.202, "note_off_time": 25.208}, {"pitch": 52, "velocity": 40, "note_on_time": 25.208, "note_off_time": 26.225}, {"pitch": 55, "velocity": 40, "note_on_time": 25.208, "note_off_time": 26.225}, {"pitch": 77, "velocity": 40, "note_on_time": 26.225, "note_off_time": 27.238}, {"pitch": 48, "velocity": 40, "note_on_time": 26.225, "note_off_time": 27.238}, {"pitch": 52, "velocity": 40, "note_on_time": 27.238, "note_off_time": 28.244}, {"pitch": 55, "velocity": 40, "note_on_time": 27.238, "note_off_time": 28.244}, {"pitch": 48, "velocity": 40, "note_on_time": 28.244, "note_off_time": 29.246}, {"pitch": 52, "velocity": 40, "note_on_time": 29.246, "note_off_time": 30.248}, {"pitch": 55, "velocity": 40, "note_on_time": 29.246, "note_off_time": 30.248}, {"pitch": 48, "velocity": 40, "note_on_time": 30.248, "note_off_time": 31.249}, {"pitch": 52, "velocity": 40, "note_on_time": 31.249, "note_off_time": 32.254}, {"pitch": 55, "velocity": 40, "note_on_time": 31.249, "note_off_time": 32.254}, {"pitch": 60, "velocity": 40, "note_on_time": 32.252, "note_off_time": 33.263}, {"pitch": 64, "velocity": 40, "note_on_time": 32.253, "note_off_time": 33.264}, {"pitch": 67, "velocity": 40, "note_on_time": 32.254, "note_off_time": 33.264}, {"pitch": 48, "velocity": 40, "note_on_time": 32.254, "note_off_time": 33.265}, {"pitch": 52, "velocity": 40, "note_on_time": 33.265, "note_off_time": 34.273}, {"pitch": 55, "velocity": 40, "note_on_time": 33.265, "note_off_time": 34.273}, {"pitch": 76, "velocity": 40, "note_on_time": 34.273, "note_off_time": 35.285}, {"pitch": 48, "velocity": 40, "note_on_time": 34.273, "note_off_time": 35.285}, {"pitch": 52, "velocity": 40, "note_on_time": 35.285, "note_off_time": 36.3}, {"pitch": 55, "velocity": 40, "note_on_time": 35.285, "note_off_time": 36.3}, {"pitch": 48, "velocity": 40, "note_on_time": 36.3, "note_off_time": 37.306}, {"pitch": 52, "velocity": 40, "note_on_time": 37.306, "note_off_time": 38.311}, {"pitch": 55, "velocity": 40, "note_on_time": 37.306, "note_off_time": 38.311}, {"pitch": 48, "velocity": 40, "note_on_time": 38.311, "note_off_time": 39.313}, {"pitch": 52, "velocity": 40, "note_on_time": 39.313, "note_off_time": 40.319}, {"pitch": 55, "velocity": 40, "note_on_time": 39.313, "note_off_time": 40.319}, {"pitch": 60, "velocity": 40, "note_on_time": 40.318, "note_off_time": 41.334}, {"pitch": 64, "velocity": 40, "note_on_time": 40.318, "note_off_time": 41.335}, {"pitch": 67, "velocity": 40, "note_on_time": 40.319, "note_off_time": 41.336}, {"pitch": 72, "velocity": 40, "note_on_time": 42.343, "note_off_time": 43.348}, {"pitch": 60, "velocity": 40, "note_on_time": 48.354, "note_off_time": 49.371}, {"pitch": 64, "velocity": 40, "note_on_time": 48.356, "note_off_time": 49.372}, {"pitch": 67, "velocity": 40, "note_on_time": 48.356, "note_off_time": 49.373}, {"pitch": 79, "velocity": 40, "note_on_time": 50.379, "note_off_time": 51.395}, {"pitch": 60, "velocity": 40, "note_on_time": 56.407, "note_off_time": 57.421}, {"pitch": 64, "velocity": 40, "note_on_time": 56.408, "note_off_time": 57.422}, {"pitch": 67, "velocity": 40, "note_on_time": 56.408, "note_off_time": 57.422}, {"pitch": 72, "velocity": 40, "note_on_time": 58.429, "note_off_time": 59.433}, {"pitch": 60, "velocity": 40, "note_on_time": 64.448, "note_off_time": 65.464}, {"pitch": 64, "velocity": 40, "note_on_time": 64.449, "note_off_time": 65.465}, {"pitch": 67, "velocity": 40, "note_on_time": 64.449, "note_off_time": 65.465}, {"pitch": 79, "velocity": 40, "note_on_time": 66.469, "note_off_time": 67.471}, {"pitch": 60, "velocity": 40, "note_on_time": 72.484, "note_off_time": 73.5}, {"pitch": 64, "velocity": 40, "note_on_time": 72.484, "note_off_time": 73.501}, {"pitch": 67, "velocity": 40, "note_on_time": 72.485, "note_off_time": 73.502}, {"pitch": 77, "velocity": 40, "note_on_time": 74.515, "note_off_time": 75.528}, {"pitch": 60, "velocity": 40, "note_on_time": 80.535, "note_off_time": 81.544}, {"pitch": 64, "velocity": 40, "note_on_time": 80.536, "note_off_time": 81.546}, {"pitch": 67, "velocity": 40, "note_on_time": 80.536, "note_off_time": 81.546}, {"pitch": 72, "velocity": 40, "note_on_time": 82.55, "note_off_time": 83.562}, {"pitch": 60, "velocity": 40, "note_on_time": 88.57, "note_off_time": 89.584}, {"pitch": 64, "velocity": 40, "note_on_time": 88.571, "note_off_time": 89.586}, {"pitch": 67, "velocity": 40, "note_on_time": 88.571, "note_off_time": 89.586}, {"pitch": 74, "velocity": 40, "note_on_time": 90.594, "note_off_time": 91.608}, {"pitch": 60, "velocity": 40, "note_on_time": 96.621, "note_off_time": 97.635}, {"pitch": 64, "velocity": 40, "note_on_time": 96.621, "note_off_time": 97.635}, {"pitch": 67, "velocity": 40, "note_on_time": 96.622, "note_off_time": 97.636}, {"pitch": 77, "velocity": 40, "note_on_time": 98.644, "note_off_time": 99.657}, {"pitch": 60, "velocity": 40, "note_on_time": 104.667, "note_off_time": 105.684}, {"pitch": 64, "velocity": 40, "note_on_time": 104.668, "note_off_time": 105.685}, {"pitch": 67, "velocity": 40, "note_on_time": 104.668, "note_off_time": 105.686}, {"pitch": 79, "velocity": 40, "note_on_time": 106.693, "note_off_time": 107.704}, {"pitch": 60, "velocity": 40, "note_on_time": 112.718, "note_off_time": 113.727}, {"pitch": 64, "velocity": 40, "note_on_time": 112.719, "note_off_time": 113.729}, {"pitch": 67, "velocity": 40, "note_on_time": 112.719, "note_off_time": 113.729}, {"pitch": 77, "velocity": 40, "note_on_time": 114.743, "note_off_time": 115.757}, {"pitch": 60, "velocity": 40, "note_on_time": 120.769, "note_off_time": 121.777}, {"pitch": 64, "velocity": 40, "note_on_time": 120.77, "note_off_time": 121.778}, {"pitch": 67, "velocity": 40, "note_on_time": 120.77, "note_off_time": 121.778}, {"pitch": 79, "velocity": 40, "note_on_time": 122.782, "note_off_time": 123.785}, {"pitch": 60, "velocity": 40, "note_on_time": 128.797, "note_off_time": 129.798}, {"pitch": 64, "velocity": 40, "note_on_time": 128.797, "note_off_time": 129.799}, {"pitch": 67, "velocity": 40, "note_on_time": 128.798, "note_off_time": 129.8}, {"pitch": 72, "velocity": 40, "note_on_time": 130.812, "note_off_time": 131.823}, {"pitch": 60, "velocity": 40, "note_on_time": 136.835, "note_off_time": 137.849}, {"pitch": 64, "velocity": 40, "note_on_time": 136.836, "note_off_time": 137.85}, {"pitch": 67, "velocity": 40, "note_on_time": 136.837, "note_off_time": 137.851}, {"pitch": 76, "velocity": 40, "note_on_time": 138.86, "note_off_time": 139.863}, {"pitch": 60, "velocity": 40, "note_on_time": 144.871, "note_off_time": 145.887}, {"pitch": 64, "velocity": 40, "note_on_time": 144.872, "note_off_time": 145.887}, {"pitch": 67, "velocity": 40, "note_on_time": 144.872, "note_off_time": 145.888}, {"pitch": 74, "velocity": 40, "note_on_time": 146.89, "note_off_time": 147.892}, {"pitch": 60, "velocity": 40, "note_on_time": 152.908, "note_off_time": 153.915}, {"pitch": 64, "velocity": 40, "note_on_time": 152.909, "note_off_time": 153.916}, {"pitch": 67, "velocity": 40, "note_on_time": 152.909, "note_off_time": 153.917}, {"pitch": 76, "velocity": 40, "note_on_time": 154.922, "note_off_time": 155.923}, {"pitch": 60, "velocity": 40, "note_on_time": 160.929, "note_off_time": 161.945}, {"pitch": 64, "velocity": 40, "note_on_time": 160.93, "note_off_time": 161.945}, {"pitch": 67, "velocity": 40, "note_on_time": 160.93, "note_off_time": 161.946}, {"pitch": 74, "velocity": 40, "note_on_time": 162.96, "note_off_time": 163.973}]</notes><options name="Option List">((4, 4), [0.5, 0.25], 3, 8, &lt;NoteRangePerHand.TWO_NOTES: 3&gt;, &lt;NoteRangePerHand.ONE_NOTE: 2&gt;, False, True, True, 100)</options></target_notes><trials><trial trial_no="1" timestamp="2024_03_11-13_04_22"><notes name="Played Notes">[{"pitch": 74, "velocity": 29, "note_on_time": 3.786, "note_off_time": 4.29}, {"pitch": 76, "velocity": 20, "note_on_time": 11.658, "note_off_time": 12.719}, {"pitch": 72, "velocity": 29, "note_on_time": 19.821, "note_off_time": 20.407}, {"pitch": 77, "velocity": 1, "note_on_time": 27.904, "note_off_time": 29.37}, {"pitch": 77, "velocity": 15, "note_on_time": 35.975, "note_off_time": 37.014}, {"pitch": 79, "velocity": 27, "note_on_time": 38.271, "note_off_time": 38.88}, {"pitch": 74, "velocity": 39, "note_on_time": 40.341, "note_off_time": 41.066}, {"pitch": 72, "velocity": 1, "note_on_time": 45.258, "note_off_time": 45.737}, {"pitch": 72, "velocity": 51, "note_on_time": 46.046, "note_off_time": 46.897}, {"pitch": 79, "velocity": 49, "note_on_time": 51.934, "note_off_time": 52.919}, {"pitch": 74, "velocity": 62, "note_on_time": 59.889, "note_off_time": 60.598}, {"pitch": 76, "velocity": 35, "note_on_time": 61.365, "note_off_time": 63.135}, {"pitch": 72, "velocity": 25, "note_on_time": 68.241, "note_off_time": 68.728}, {"pitch": 74, "velocity": 64, "note_on_time": 69.768, "note_off_time": 70.336}, {"pitch": 76, "velocity": 36, "note_on_time": 71.296, "note_off_time": 72.193}, {"pitch": 79, "velocity": 27, "note_on_time": 76.187, "note_off_time": 77.341}, {"pitch": 79, "velocity": 22, "note_on_time": 84.185, "note_off_time": 84.812}, {"pitch": 72, "velocity": 27, "note_on_time": 85.638, "note_off_time": 86.496}, {"pitch": 72, "velocity": 52, "note_on_time": 92.488, "note_off_time": 93.725}, {"pitch": 79, "velocity": 36, "note_on_time": 94.561, "note_off_time": 95.319}, {"pitch": 79, "velocity": 30, "note_on_time": 99.9, "note_off_time": 101.239}, {"pitch": 79, "velocity": 37, "note_on_time": 108.438, "note_off_time": 109.687}, {"pitch": 72, "velocity": 27, "note_on_time": 116.053, "note_off_time": 116.713}, {"pitch": 74, "velocity": 31, "note_on_time": 117.068, "note_off_time": 117.642}, {"pitch": 76, "velocity": 1, "note_on_time": 118.309, "note_off_time": 119.08}, {"pitch": 77, "velocity": 30, "note_on_time": 119.572, "note_off_time": 120.104}, {"pitch": 72, "velocity": 35, "note_on_time": 123.785, "note_off_time": 124.236}, {"pitch": 79, "velocity": 57, "note_on_time": 124.586, "note_off_time": 125.537}, {"pitch": 72, "velocity": 4, "note_on_time": 132.798, "note_off_time": 134.068}, {"pitch": 79, "velocity": 9, "note_on_time": 140.684, "note_off_time": 141.322}, {"pitch": 74, "velocity": 51, "note_on_time": 141.875, "note_off_time": 142.528}, {"pitch": 72, "velocity": 31, "note_on_time": 143.117, "note_off_time": 143.874}, {"pitch": 76, "velocity": 38, "note_on_time": 144.297, "note_off_time": 145.217}, {"pitch": 72, "velocity": 1, "note_on_time": 148.331, "note_off_time": 148.962}, {"pitch": 76, "velocity": 20, "note_on_time": 149.369, "note_off_time": 150.661}, {"pitch": 79, "velocity": 35, "note_on_time": 155.95, "note_off_time": 156.619}, {"pitch": 77, "velocity": 42, "note_on_time": 157.0, "note_off_time": 157.617}, {"pitch": 74, "velocity": 62, "note_on_time": 158.767, "note_off_time": 159.425}]</notes><guidance name="Guidance Mode">None</guidance><error name="Error value">99</error></trial><trial trial_no="2" timestamp="2024_03_11-13_08_34"><notes name="Played Notes">[{"pitch": 72, "velocity": 18, "note_on_time": 2.575, "note_off_time": 3.328}, {"pitch": 74, "velocity": 31, "note_on_time": 4.96, "note_off_time": 6.447}, {"pitch": 79, "velocity": 18, "note_on_time": 7.344, "note_off_time": 7.76}, {"pitch": 77, "velocity": 1, "note_on_time": 9.671, "note_off_time": 10.81}, {"pitch": 72, "velocity": 16, "note_on_time": 12.195, "note_off_time": 12.639}, {"pitch": 74, "velocity": 47, "note_on_time": 12.887, "note_off_time": 14.132}, {"pitch": 76, "velocity": 34, "note_on_time": 14.671, "note_off_time": 15.949}, {"pitch": 76, "velocity": 23, "note_on_time": 17.041, "note_off_time": 17.848}, {"pitch": 79, "velocity": 43, "note_on_time": 17.776, "note_off_time": 18.113}, {"pitch": 77, "velocity": 23, "note_on_time": 19.442, "note_off_time": 20.232}, {"pitch": 79, "velocity": 38, "note_on_time": 20.154, "note_off_time": 20.721}, {"pitch": 76, "velocity": 34, "note_on_time": 21.261, "note_off_time": 21.893}, {"pitch": 74, "velocity": 36, "note_on_time": 22.589, "note_off_time": 23.674}, {"pitch": 72, "velocity": 46, "note_on_time": 24.907, "note_off_time": 25.873}, {"pitch": 74, "velocity": 50, "note_on_time": 26.852, "note_off_time": 28.118}, {"pitch": 76, "velocity": 39, "note_on_time": 29.32, "note_off_time": 30.702}, {"pitch": 79, "velocity": 31, "note_on_time": 31.677, "note_off_time": 32.054}, {"pitch": 77, "velocity": 25, "note_on_time": 32.358, "note_off_time": 33.113}, {"pitch": 76, "velocity": 35, "note_on_time": 32.974, "note_off_time": 33.593}, {"pitch": 77, "velocity": 38, "note_on_time": 34.663, "note_off_time": 35.855}, {"pitch": 79, "velocity": 30, "note_on_time": 34.075, "note_off_time": 35.871}, {"pitch": 74, "velocity": 58, "note_on_time": 35.33, "note_off_time": 35.947}, {"pitch": 72, "velocity": 42, "note_on_time": 35.906, "note_off_time": 36.505}, {"pitch": 76, "velocity": 40, "note_on_time": 36.611, "note_off_time": 37.968}, {"pitch": 74, "velocity": 53, "note_on_time": 39.066, "note_off_time": 39.592}, {"pitch": 72, "velocity": 60, "note_on_time": 39.593, "note_off_time": 41.026}, {"pitch": 76, "velocity": 62, "note_on_time": 41.581, "note_off_time": 42.796}, {"pitch": 72, "velocity": 43, "note_on_time": 43.958, "note_off_time": 45.134}, {"pitch": 74, "velocity": 45, "note_on_time": 44.548, "note_off_time": 45.456}, {"pitch": 76, "velocity": 42, "note_on_time": 45.087, "note_off_time": 45.509}, {"pitch": 77, "velocity": 22, "note_on_time": 45.711, "note_off_time": 47.324}, {"pitch": 79, "velocity": 31, "note_on_time": 46.29, "note_off_time": 47.451}, {"pitch": 77, "velocity": 16, "note_on_time": 49.306, "note_off_time": 50.005}, {"pitch": 79, "velocity": 19, "note_on_time": 48.729, "note_off_time": 50.165}, {"pitch": 76, "velocity": 25, "note_on_time": 50.042, "note_off_time": 50.809}, {"pitch": 74, "velocity": 38, "note_on_time": 50.657, "note_off_time": 51.277}, {"pitch": 72, "velocity": 34, "note_on_time": 51.217, "note_off_time": 52.457}, {"pitch": 72, "velocity": 27, "note_on_time": 53.617, "note_off_time": 55.503}, {"pitch": 72, "velocity": 43, "note_on_time": 56.074, "note_off_time": 56.69}, {"pitch": 76, "velocity": 52, "note_on_time": 56.705, "note_off_time": 57.997}, {"pitch": 76, "velocity": 41, "note_on_time": 58.478, "note_off_time": 59.173}, {"pitch": 74, "velocity": 65, "note_on_time": 59.177, "note_off_time": 59.785}, {"pitch": 72, "velocity": 65, "note_on_time": 59.737, "note_off_time": 60.401}, {"pitch": 72, "velocity": 30, "note_on_time": 60.992, "note_off_time": 62.247}, {"pitch": 72, "velocity": 49, "note_on_time": 63.465, "note_off_time": 64.019}, {"pitch": 76, "velocity": 56, "note_on_time": 64.002, "note_off_time": 65.318}, {"pitch": 77, "velocity": 34, "note_on_time": 66.501, "note_off_time": 67.47}, {"pitch": 74, "velocity": 61, "note_on_time": 65.848, "note_off_time": 67.497}, {"pitch": 79, "velocity": 46, "note_on_time": 68.291, "note_off_time": 68.969}, {"pitch": 77, "velocity": 56, "note_on_time": 69.165, "note_off_time": 69.463}, {"pitch": 76, "velocity": 49, "note_on_time": 69.496, "note_off_time": 70.136}, {"pitch": 74, "velocity": 44, "note_on_time": 70.055, "note_off_time": 70.713}, {"pitch": 72, "velocity": 61, "note_on_time": 70.653, "note_off_time": 72.268}, {"pitch": 72, "velocity": 55, "note_on_time": 73.194, "note_off_time": 73.855}, {"pitch": 76, "velocity": 53, "note_on_time": 73.766, "note_off_time": 75.059}, {"pitch": 77, "velocity": 24, "note_on_time": 76.237, "note_off_time": 77.168}, {"pitch": 74, "velocity": 44, "note_on_time": 75.548, "note_off_time": 77.335}, {"pitch": 79, "velocity": 26, "note_on_time": 77.947, "note_off_time": 79.777}, {"pitch": 77, "velocity": 24, "note_on_time": 78.895, "note_off_time": 80.062}, {"pitch": 76, "velocity": 56, "note_on_time": 79.165, "note_off_time": 80.176}, {"pitch": 74, "velocity": 66, "note_on_time": 79.762, "note_off_time": 80.453}, {"pitch": 72, "velocity": 42, "note_on_time": 80.397, "note_off_time": 81.67}, {"pitch": 76, "velocity": 37, "note_on_time": 81.585, "note_off_time": 82.756}, {"pitch": 74, "velocity": 46, "note_on_time": 82.904, "note_off_time": 84.053}, {"pitch": 76, "velocity": 38, "note_on_time": 84.181, "note_off_time": 85.246}, {"pitch": 72, "velocity": 45, "note_on_time": 85.328, "note_off_time": 87.057}, {"pitch": 72, "velocity": 38, "note_on_time": 87.749, "note_off_time": 88.31}, {"pitch": 76, "velocity": 49, "note_on_time": 88.681, "note_off_time": 89.071}, {"pitch": 77, "velocity": 65, "note_on_time": 88.953, "note_off_time": 89.514}, {"pitch": 76, "velocity": 59, "note_on_time": 90.206, "note_off_time": 91.58}, {"pitch": 79, "velocity": 48, "note_on_time": 89.54, "note_off_time": 92.036}, {"pitch": 72, "velocity": 31, "note_on_time": 91.448, "note_off_time": 92.113}, {"pitch": 72, "velocity": 36, "note_on_time": 92.664, "note_off_time": 93.81}, {"pitch": 76, "velocity": 55, "note_on_time": 93.509, "note_off_time": 93.856}, {"pitch": 77, "velocity": 49, "note_on_time": 93.815, "note_off_time": 95.186}, {"pitch": 79, "velocity": 53, "note_on_time": 94.349, "note_off_time": 95.258}, {"pitch": 74, "velocity": 43, "note_on_time": 95.012, "note_off_time": 96.074}, {"pitch": 72, "velocity": 45, "note_on_time": 97.489, "note_off_time": 98.344}, {"pitch": 76, "velocity": 33, "note_on_time": 98.399, "note_off_time": 99.04}, {"pitch": 72, "velocity": 42, "note_on_time": 98.705, "note_off_time": 99.354}, {"pitch": 76, "velocity": 32, "note_on_time": 99.937, "note_off_time": 100.525}, {"pitch": 74, "velocity": 35, "note_on_time": 100.51, "note_off_time": 101.312}, {"pitch": 72, "velocity": 35, "note_on_time": 101.111, "note_off_time": 101.845}, {"pitch": 72, "velocity": 23, "note_on_time": 102.298, "note_off_time": 103.908}, {"pitch": 76, "velocity": 44, "note_on_time": 103.202, "note_off_time": 104.321}, {"pitch": 77, "velocity": 40, "note_on_time": 103.55, "note_off_time": 104.882}, {"pitch": 79, "velocity": 40, "note_on_time": 104.142, "note_off_time": 105.108}, {"pitch": 74, "velocity": 38, "note_on_time": 104.841, "note_off_time": 106.175}, {"pitch": 72, "velocity": 61, "note_on_time": 106.038, "note_off_time": 107.045}, {"pitch": 72, "velocity": 40, "note_on_time": 107.312, "note_off_time": 108.576}, {"pitch": 76, "velocity": 51, "note_on_time": 109.23, "note_off_time": 110.469}, {"pitch": 74, "velocity": 37, "note_on_time": 109.831, "note_off_time": 110.959}, {"pitch": 72, "velocity": 33, "note_on_time": 112.159, "note_off_time": 113.737}, {"pitch": 76, "velocity": 1, "note_on_time": 113.001, "note_off_time": 113.823}, {"pitch": 76, "velocity": 63, "note_on_time": 114.574, "note_off_time": 115.221}, {"pitch": 77, "velocity": 55, "note_on_time": 115.803, "note_off_time": 116.433}, {"pitch": 79, "velocity": 42, "note_on_time": 116.991, "note_off_time": 118.642}, {"pitch": 79, "velocity": 45, "note_on_time": 119.305, "note_off_time": 120.115}, {"pitch": 77, "velocity": 22, "note_on_time": 119.955, "note_off_time": 120.499}, {"pitch": 76, "velocity": 25, "note_on_time": 120.655, "note_off_time": 122.176}, {"pitch": 74, "velocity": 45, "note_on_time": 121.267, "note_off_time": 122.534}, {"pitch": 72, "velocity": 40, "note_on_time": 122.059, "note_off_time": 123.27}, {"pitch": 72, "velocity": 15, "note_on_time": 124.355, "note_off_time": 125.25}, {"pitch": 76, "velocity": 28, "note_on_time": 124.832, "note_off_time": 125.706}, {"pitch": 77, "velocity": 26, "note_on_time": 127.378, "note_off_time": 128.444}, {"pitch": 74, "velocity": 36, "note_on_time": 126.659, "note_off_time": 128.591}, {"pitch": 76, "velocity": 59, "note_on_time": 130.399, "note_off_time": 131.05}, {"pitch": 77, "velocity": 30, "note_on_time": 130.072, "note_off_time": 131.158}, {"pitch": 74, "velocity": 49, "note_on_time": 130.945, "note_off_time": 131.978}, {"pitch": 79, "velocity": 33, "note_on_time": 129.129, "note_off_time": 132.038}, {"pitch": 72, "velocity": 69, "note_on_time": 131.601, "note_off_time": 132.89}, {"pitch": 72, "velocity": 48, "note_on_time": 134.063, "note_off_time": 136.352}, {"pitch": 76, "velocity": 50, "note_on_time": 135.193, "note_off_time": 136.521}, {"pitch": 77, "velocity": 38, "note_on_time": 135.718, "note_off_time": 136.891}, {"pitch": 74, "velocity": 46, "note_on_time": 134.914, "note_off_time": 137.037}, {"pitch": 79, "velocity": 62, "note_on_time": 136.331, "note_off_time": 137.498}, {"pitch": 77, "velocity": 27, "note_on_time": 138.893, "note_off_time": 140.206}, {"pitch": 76, "velocity": 14, "note_on_time": 139.728, "note_off_time": 140.727}, {"pitch": 74, "velocity": 60, "note_on_time": 140.031, "note_off_time": 140.735}, {"pitch": 79, "velocity": 47, "note_on_time": 141.342, "note_off_time": 142.306}, {"pitch": 72, "velocity": 47, "note_on_time": 140.666, "note_off_time": 142.603}, {"pitch": 72, "velocity": 29, "note_on_time": 143.859, "note_off_time": 145.156}, {"pitch": 77, "velocity": 25, "note_on_time": 145.557, "note_off_time": 147.179}, {"pitch": 76, "velocity": 23, "note_on_time": 145.018, "note_off_time": 147.231}, {"pitch": 79, "velocity": 30, "note_on_time": 146.443, "note_off_time": 147.245}, {"pitch": 74, "velocity": 37, "note_on_time": 144.657, "note_off_time": 147.384}, {"pitch": 72, "velocity": 27, "note_on_time": 148.631, "note_off_time": 149.283}, {"pitch": 74, "velocity": 40, "note_on_time": 149.781, "note_off_time": 152.038}, {"pitch": 76, "velocity": 28, "note_on_time": 151.12, "note_off_time": 152.049}, {"pitch": 77, "velocity": 5, "note_on_time": 152.935, "note_off_time": 153.476}, {"pitch": 76, "velocity": 54, "note_on_time": 153.494, "note_off_time": 154.313}, {"pitch": 74, "velocity": 49, "note_on_time": 154.013, "note_off_time": 154.63}, {"pitch": 72, "velocity": 24, "note_on_time": 154.652, "note_off_time": 155.938}, {"pitch": 74, "velocity": 18, "note_on_time": 155.612, "note_off_time": 157.148}, {"pitch": 76, "velocity": 33, "note_on_time": 155.955, "note_off_time": 157.995}, {"pitch": 77, "velocity": 1, "note_on_time": 156.488, "note_off_time": 158.025}, {"pitch": 79, "velocity": 24, "note_on_time": 157.213, "note_off_time": 158.059}, {"pitch": 72, "velocity": 31, "note_on_time": 157.694, "note_off_time": 158.092}, {"pitch": 72, "velocity": 24, "note_on_time": 158.96, "note_off_time": 159.715}, {"pitch": 76, "velocity": 33, "note_on_time": 160.161, "note_off_time": 162.035}, {"pitch": 77, "velocity": 29, "note_on_time": 160.764, "note_off_time": 162.1}, {"pitch": 74, "velocity": 1, "note_on_time": 163.456, "note_off_time": 163.784}, {"pitch": 72, "velocity": 16, "note_on_time": 164.323, "note_off_time": 165.07}, {"pitch": 72, "velocity": 39, "note_on_time": 165.61, "note_off_time": 166.658}, {"pitch": 74, "velocity": 35, "note_on_time": 166.229, "note_off_time": 167.047}, {"pitch": 74, "velocity": 54, "note_on_time": 168.904, "note_off_time": 169.297}, {"pitch": 76, "velocity": 19, "note_on_time": 168.073, "note_off_time": 169.299}, {"pitch": 76, "velocity": 49, "note_on_time": 169.892, "note_off_time": 170.302}, {"pitch": 77, "velocity": 43, "note_on_time": 169.888, "note_off_time": 170.831}, {"pitch": 79, "velocity": 54, "note_on_time": 170.714, "note_off_time": 171.728}, {"pitch": 72, "velocity": 49, "note_on_time": 169.225, "note_off_time": 171.915}, {"pitch": 72, "velocity": 31, "note_on_time": 173.028, "note_off_time": 174.261}, {"pitch": 74, "velocity": 38, "note_on_time": 173.936, "note_off_time": 174.407}, {"pitch": 76, "velocity": 38, "note_on_time": 174.256, "note_off_time": 175.394}, {"pitch": 77, "velocity": 29, "note_on_time": 174.792, "note_off_time": 175.537}, {"pitch": 79, "velocity": 24, "note_on_time": 175.293, "note_off_time": 176.561}, {"pitch": 74, "velocity": 57, "note_on_time": 176.422, "note_off_time": 177.175}, {"pitch": 76, "velocity": 42, "note_on_time": 175.886, "note_off_time": 177.182}, {"pitch": 72, "velocity": 45, "note_on_time": 177.027, "note_off_time": 179.012}, {"pitch": 79, "velocity": 61, "note_on_time": 178.922, "note_off_time": 180.097}, {"pitch": 77, "velocity": 38, "note_on_time": 178.642, "note_off_time": 180.195}, {"pitch": 76, "velocity": 54, "note_on_time": 177.745, "note_off_time": 180.206}, {"pitch": 74, "velocity": 62, "note_on_time": 179.493, "note_off_time": 180.233}, {"pitch": 72, "velocity": 27, "note_on_time": 180.091, "note_off_time": 182.193}, {"pitch": 72, "velocity": 46, "note_on_time": 182.735, "note_off_time": 183.341}, {"pitch": 74, "velocity": 31, "note_on_time": 183.27, "note_off_time": 184.317}, {"pitch": 76, "velocity": 34, "note_on_time": 183.835, "note_off_time": 185.005}, {"pitch": 77, "velocity": 27, "note_on_time": 184.785, "note_off_time": 185.179}, {"pitch": 76, "velocity": 48, "note_on_time": 185.167, "note_off_time": 185.291}, {"pitch": 74, "velocity": 43, "note_on_time": 185.269, "note_off_time": 186.541}, {"pitch": 76, "velocity": 48, "note_on_time": 187.488, "note_off_time": 188.039}, {"pitch": 72, "velocity": 43, "note_on_time": 188.157, "note_off_time": 189.45}, {"pitch": 74, "velocity": 58, "note_on_time": 188.751, "note_off_time": 189.941}, {"pitch": 77, "velocity": 57, "note_on_time": 189.355, "note_off_time": 190.079}, {"pitch": 79, "velocity": 54, "note_on_time": 189.995, "note_off_time": 191.101}, {"pitch": 79, "velocity": 44, "note_on_time": 192.377, "note_off_time": 193.556}, {"pitch": 77, "velocity": 35, "note_on_time": 193.361, "note_off_time": 193.809}]</notes><guidance name="Guidance Mode">None</guidance><error name="Error value">99</error></trial><trial trial_no="3" timestamp="2024_03_11-13_15_04"><notes name="Played Notes">[{"pitch": 72, "velocity": 38, "note_on_time": 2.551, "note_off_time": 3.151}, {"pitch": 74, "velocity": 41, "note_on_time": 3.086, "note_off_time": 3.723}, {"pitch": 76, "velocity": 29, "note_on_time": 3.671, "note_off_time": 4.777}, {"pitch": 77, "velocity": 49, "note_on_time": 4.606, "note_off_time": 5.35}, {"pitch": 79, "velocity": 46, "note_on_time": 4.919, "note_off_time": 5.548}, {"pitch": 76, "velocity": 27, "note_on_time": 5.438, "note_off_time": 6.132}, {"pitch": 72, "velocity": 53, "note_on_time": 6.1, "note_off_time": 6.788}, {"pitch": 74, "velocity": 57, "note_on_time": 8.168, "note_off_time": 8.385}, {"pitch": 72, "velocity": 36, "note_on_time": 7.329, "note_off_time": 8.631}, {"pitch": 76, "velocity": 56, "note_on_time": 8.467, "note_off_time": 9.188}, {"pitch": 74, "velocity": 56, "note_on_time": 9.102, "note_off_time": 9.814}, {"pitch": 72, "velocity": 28, "note_on_time": 9.746, "note_off_time": 10.551}, {"pitch": 76, "velocity": 55, "note_on_time": 10.996, "note_off_time": 11.844}, {"pitch": 74, "velocity": 69, "note_on_time": 12.198, "note_off_time": 13.012}, {"pitch": 76, "velocity": 51, "note_on_time": 13.132, "note_off_time": 14.254}, {"pitch": 77, "velocity": 18, "note_on_time": 13.498, "note_off_time": 14.709}, {"pitch": 79, "velocity": 45, "note_on_time": 14.088, "note_off_time": 15.195}, {"pitch": 72, "velocity": 46, "note_on_time": 14.622, "note_off_time": 16.609}, {"pitch": 74, "velocity": 64, "note_on_time": 15.809, "note_off_time": 17.024}, {"pitch": 76, "velocity": 37, "note_on_time": 16.383, "note_off_time": 17.558}, {"pitch": 77, "velocity": 56, "note_on_time": 17.019, "note_off_time": 17.604}, {"pitch": 77, "velocity": 59, "note_on_time": 18.25, "note_off_time": 18.912}, {"pitch": 76, "velocity": 66, "note_on_time": 18.809, "note_off_time": 19.075}, {"pitch": 79, "velocity": 39, "note_on_time": 17.96, "note_off_time": 20.045}, {"pitch": 76, "velocity": 62, "note_on_time": 19.395, "note_off_time": 20.201}, {"pitch": 74, "velocity": 65, "note_on_time": 19.97, "note_off_time": 20.708}, {"pitch": 72, "velocity": 58, "note_on_time": 20.625, "note_off_time": 21.422}, {"pitch": 79, "velocity": 22, "note_on_time": 20.588, "note_off_time": 21.569}, {"pitch": 72, "velocity": 45, "note_on_time": 21.872, "note_off_time": 22.631}, {"pitch": 76, "velocity": 54, "note_on_time": 22.783, "note_off_time": 23.681}, {"pitch": 74, "velocity": 31, "note_on_time": 23.187, "note_off_time": 23.763}, {"pitch": 72, "velocity": 51, "note_on_time": 23.677, "note_off_time": 25.46}, {"pitch": 77, "velocity": 66, "note_on_time": 24.301, "note_off_time": 25.665}, {"pitch": 79, "velocity": 64, "note_on_time": 25.239, "note_off_time": 25.704}, {"pitch": 72, "velocity": 3, "note_on_time": 26.882, "note_off_time": 27.501}, {"pitch": 79, "velocity": 28, "note_on_time": 26.84, "note_off_time": 28.529}, {"pitch": 76, "velocity": 59, "note_on_time": 27.697, "note_off_time": 28.608}, {"pitch": 74, "velocity": 55, "note_on_time": 27.974, "note_off_time": 28.629}, {"pitch": 72, "velocity": 52, "note_on_time": 28.559, "note_off_time": 29.756}, {"pitch": 74, "velocity": 64, "note_on_time": 29.15, "note_off_time": 29.964}, {"pitch": 76, "velocity": 61, "note_on_time": 31.686, "note_off_time": 32.593}, {"pitch": 72, "velocity": 58, "note_on_time": 32.512, "note_off_time": 32.923}, {"pitch": 74, "velocity": 79, "note_on_time": 32.823, "note_off_time": 33.691}, {"pitch": 76, "velocity": 68, "note_on_time": 34.799, "note_off_time": 35.395}, {"pitch": 77, "velocity": 72, "note_on_time": 33.931, "note_off_time": 35.597}, {"pitch": 79, "velocity": 62, "note_on_time": 34.278, "note_off_time": 35.77}, {"pitch": 74, "velocity": 50, "note_on_time": 35.335, "note_off_time": 36.495}, {"pitch": 72, "velocity": 46, "note_on_time": 36.459, "note_off_time": 37.76}, {"pitch": 74, "velocity": 35, "note_on_time": 37.417, "note_off_time": 37.817}, {"pitch": 76, "velocity": 65, "note_on_time": 37.686, "note_off_time": 38.382}, {"pitch": 77, "velocity": 67, "note_on_time": 38.239, "note_off_time": 39.477}, {"pitch": 79, "velocity": 41, "note_on_time": 38.889, "note_off_time": 40.306}, {"pitch": 77, "velocity": 68, "note_on_time": 40.115, "note_off_time": 41.412}, {"pitch": 74, "velocity": 60, "note_on_time": 41.355, "note_off_time": 42.51}, {"pitch": 76, "velocity": 72, "note_on_time": 42.279, "note_off_time": 43.093}, {"pitch": 77, "velocity": 57, "note_on_time": 42.531, "note_off_time": 43.113}, {"pitch": 79, "velocity": 67, "note_on_time": 43.062, "note_off_time": 44.135}, {"pitch": 76, "velocity": 74, "note_on_time": 43.665, "note_off_time": 45.16}, {"pitch": 72, "velocity": 68, "note_on_time": 45.062, "note_off_time": 45.785}, {"pitch": 72, "velocity": 62, "note_on_time": 46.25, "note_off_time": 46.918}, {"pitch": 74, "velocity": 69, "note_on_time": 46.819, "note_off_time": 47.442}, {"pitch": 76, "velocity": 58, "note_on_time": 47.367, "note_off_time": 48.48}, {"pitch": 74, "velocity": 80, "note_on_time": 47.877, "note_off_time": 48.547}, {"pitch": 72, "velocity": 64, "note_on_time": 48.449, "note_off_time": 49.368}, {"pitch": 77, "velocity": 58, "note_on_time": 49.32, "note_off_time": 49.781}, {"pitch": 79, "velocity": 69, "note_on_time": 49.624, "note_off_time": 49.989}, {"pitch": 76, "velocity": 71, "note_on_time": 51.137, "note_off_time": 51.872}, {"pitch": 79, "velocity": 38, "note_on_time": 50.631, "note_off_time": 52.16}, {"pitch": 74, "velocity": 54, "note_on_time": 51.636, "note_off_time": 52.587}, {"pitch": 72, "velocity": 76, "note_on_time": 52.295, "note_off_time": 52.905}, {"pitch": 74, "velocity": 64, "note_on_time": 52.874, "note_off_time": 54.41}, {"pitch": 76, "velocity": 52, "note_on_time": 53.551, "note_off_time": 54.507}, {"pitch": 77, "velocity": 49, "note_on_time": 54.148, "note_off_time": 56.694}, {"pitch": 74, "velocity": 77, "note_on_time": 55.358, "note_off_time": 56.708}, {"pitch": 72, "velocity": 55, "note_on_time": 56.567, "note_off_time": 57.853}, {"pitch": 76, "velocity": 60, "note_on_time": 57.525, "note_off_time": 58.72}, {"pitch": 77, "velocity": 61, "note_on_time": 57.806, "note_off_time": 58.891}, {"pitch": 77, "velocity": 1, "note_on_time": 60.023, "note_off_time": 61.005}, {"pitch": 79, "velocity": 33, "note_on_time": 58.45, "note_off_time": 61.614}, {"pitch": 76, "velocity": 37, "note_on_time": 60.949, "note_off_time": 61.865}, {"pitch": 74, "velocity": 55, "note_on_time": 61.792, "note_off_time": 62.238}, {"pitch": 72, "velocity": 68, "note_on_time": 62.141, "note_off_time": 62.951}, {"pitch": 74, "velocity": 73, "note_on_time": 62.748, "note_off_time": 63.508}, {"pitch": 76, "velocity": 56, "note_on_time": 63.332, "note_off_time": 64.657}, {"pitch": 77, "velocity": 52, "note_on_time": 64.472, "note_off_time": 65.873}, {"pitch": 72, "velocity": 63, "note_on_time": 65.712, "note_off_time": 66.252}, {"pitch": 74, "velocity": 65, "note_on_time": 66.669, "note_off_time": 67.849}, {"pitch": 77, "velocity": 50, "note_on_time": 67.534, "note_off_time": 68.798}, {"pitch": 79, "velocity": 45, "note_on_time": 68.211, "note_off_time": 68.835}, {"pitch": 76, "velocity": 53, "note_on_time": 66.967, "note_off_time": 68.854}, {"pitch": 79, "velocity": 51, "note_on_time": 69.367, "note_off_time": 70.133}, {"pitch": 76, "velocity": 38, "note_on_time": 70.586, "note_off_time": 71.187}, {"pitch": 72, "velocity": 53, "note_on_time": 71.559, "note_off_time": 71.884}, {"pitch": 74, "velocity": 72, "note_on_time": 71.843, "note_off_time": 72.418}, {"pitch": 76, "velocity": 70, "note_on_time": 72.363, "note_off_time": 72.965}, {"pitch": 77, "velocity": 55, "note_on_time": 72.996, "note_off_time": 73.646}, {"pitch": 72, "velocity": 55, "note_on_time": 73.541, "note_off_time": 74.826}, {"pitch": 77, "velocity": 54, "note_on_time": 74.237, "note_off_time": 74.939}, {"pitch": 76, "velocity": 57, "note_on_time": 74.824, "note_off_time": 75.463}, {"pitch": 72, "velocity": 23, "note_on_time": 75.418, "note_off_time": 76.538}, {"pitch": 74, "velocity": 44, "note_on_time": 76.431, "note_off_time": 76.953}, {"pitch": 74, "velocity": 70, "note_on_time": 77.364, "note_off_time": 78.604}, {"pitch": 76, "velocity": 65, "note_on_time": 77.885, "note_off_time": 78.664}, {"pitch": 77, "velocity": 75, "note_on_time": 79.166, "note_off_time": 81.076}, {"pitch": 72, "velocity": 57, "note_on_time": 76.791, "note_off_time": 81.079}, {"pitch": 79, "velocity": 63, "note_on_time": 80.33, "note_off_time": 81.205}, {"pitch": 74, "velocity": 72, "note_on_time": 82.958, "note_off_time": 83.74}, {"pitch": 72, "velocity": 64, "note_on_time": 81.546, "note_off_time": 84.409}, {"pitch": 74, "velocity": 1, "note_on_time": 84.492, "note_off_time": 84.77}, {"pitch": 76, "velocity": 38, "note_on_time": 83.989, "note_off_time": 84.791}, {"pitch": 72, "velocity": 42, "note_on_time": 85.283, "note_off_time": 86.143}, {"pitch": 74, "velocity": 72, "note_on_time": 86.07, "note_off_time": 86.525}, {"pitch": 72, "velocity": 72, "note_on_time": 86.415, "note_off_time": 87.949}, {"pitch": 76, "velocity": 60, "note_on_time": 87.737, "note_off_time": 88.53}, {"pitch": 74, "velocity": 67, "note_on_time": 87.077, "note_off_time": 88.54}, {"pitch": 72, "velocity": 37, "note_on_time": 88.831, "note_off_time": 90.4}, {"pitch": 74, "velocity": 52, "note_on_time": 90.107, "note_off_time": 91.525}, {"pitch": 77, "velocity": 42, "note_on_time": 91.313, "note_off_time": 91.987}, {"pitch": 76, "velocity": 43, "note_on_time": 91.019, "note_off_time": 92.005}, {"pitch": 72, "velocity": 37, "note_on_time": 91.905, "note_off_time": 94.318}, {"pitch": 74, "velocity": 58, "note_on_time": 92.538, "note_off_time": 94.459}, {"pitch": 76, "velocity": 41, "note_on_time": 93.75, "note_off_time": 95.133}, {"pitch": 77, "velocity": 39, "note_on_time": 95.02, "note_off_time": 95.632}, {"pitch": 72, "velocity": 48, "note_on_time": 95.892, "note_off_time": 96.059}, {"pitch": 72, "velocity": 53, "note_on_time": 96.228, "note_off_time": 97.001}, {"pitch": 74, "velocity": 38, "note_on_time": 96.771, "note_off_time": 98.549}, {"pitch": 76, "velocity": 51, "note_on_time": 97.355, "note_off_time": 98.912}, {"pitch": 74, "velocity": 39, "note_on_time": 99.876, "note_off_time": 100.917}, {"pitch": 72, "velocity": 1, "note_on_time": 98.767, "note_off_time": 101.257}, {"pitch": 77, "velocity": 29, "note_on_time": 101.115, "note_off_time": 102.173}, {"pitch": 76, "velocity": 33, "note_on_time": 100.701, "note_off_time": 102.338}, {"pitch": 72, "velocity": 28, "note_on_time": 101.73, "note_off_time": 102.949}, {"pitch": 74, "velocity": 56, "note_on_time": 102.391, "note_off_time": 103.323}, {"pitch": 72, "velocity": 29, "note_on_time": 103.527, "note_off_time": 104.313}, {"pitch": 77, "velocity": 40, "note_on_time": 105.682, "note_off_time": 107.245}, {"pitch": 72, "velocity": 31, "note_on_time": 104.753, "note_off_time": 107.91}, {"pitch": 76, "velocity": 51, "note_on_time": 106.58, "note_off_time": 108.141}, {"pitch": 74, "velocity": 60, "note_on_time": 107.12, "note_off_time": 108.43}, {"pitch": 74, "velocity": 55, "note_on_time": 109.018, "note_off_time": 109.299}, {"pitch": 74, "velocity": 51, "note_on_time": 109.63, "note_off_time": 110.396}, {"pitch": 72, "velocity": 1, "note_on_time": 110.114, "note_off_time": 110.576}, {"pitch": 77, "velocity": 63, "note_on_time": 111.953, "note_off_time": 113.224}, {"pitch": 72, "velocity": 49, "note_on_time": 110.84, "note_off_time": 113.388}, {"pitch": 74, "velocity": 51, "note_on_time": 112.636, "note_off_time": 114.582}, {"pitch": 72, "velocity": 44, "note_on_time": 113.684, "note_off_time": 114.601}, {"pitch": 76, "velocity": 57, "note_on_time": 111.715, "note_off_time": 114.697}, {"pitch": 72, "velocity": 19, "note_on_time": 115.662, "note_off_time": 116.17}, {"pitch": 72, "velocity": 51, "note_on_time": 116.589, "note_off_time": 116.73}, {"pitch": 72, "velocity": 39, "note_on_time": 116.899, "note_off_time": 118.054}, {"pitch": 74, "velocity": 57, "note_on_time": 117.473, "note_off_time": 118.73}, {"pitch": 76, "velocity": 48, "note_on_time": 118.1, "note_off_time": 119.029}, {"pitch": 77, "velocity": 39, "note_on_time": 118.624, "note_off_time": 119.062}, {"pitch": 77, "velocity": 43, "note_on_time": 119.299, "note_off_time": 120.793}, {"pitch": 76, "velocity": 21, "note_on_time": 119.815, "note_off_time": 121.327}, {"pitch": 74, "velocity": 1, "note_on_time": 120.367, "note_off_time": 121.371}, {"pitch": 72, "velocity": 5, "note_on_time": 121.269, "note_off_time": 123.361}, {"pitch": 74, "velocity": 52, "note_on_time": 121.761, "note_off_time": 123.522}, {"pitch": 76, "velocity": 35, "note_on_time": 122.326, "note_off_time": 123.936}, {"pitch": 77, "velocity": 29, "note_on_time": 123.016, "note_off_time": 124.141}, {"pitch": 79, "velocity": 31, "note_on_time": 123.741, "note_off_time": 125.984}, {"pitch": 74, "velocity": 28, "note_on_time": 125.534, "note_off_time": 126.143}, {"pitch": 77, "velocity": 37, "note_on_time": 124.468, "note_off_time": 126.157}, {"pitch": 76, "velocity": 36, "note_on_time": 124.989, "note_off_time": 126.473}, {"pitch": 72, "velocity": 45, "note_on_time": 126.028, "note_off_time": 126.474}, {"pitch": 74, "velocity": 1, "note_on_time": 127.27, "note_off_time": 127.666}, {"pitch": 72, "velocity": 43, "note_on_time": 126.727, "note_off_time": 127.736}, {"pitch": 72, "velocity": 26, "note_on_time": 128.202, "note_off_time": 129.406}, {"pitch": 74, "velocity": 60, "note_on_time": 128.501, "note_off_time": 129.495}, {"pitch": 76, "velocity": 49, "note_on_time": 129.032, "note_off_time": 129.617}, {"pitch": 74, "velocity": 50, "note_on_time": 130.83, "note_off_time": 131.77}, {"pitch": 72, "velocity": 40, "note_on_time": 129.709, "note_off_time": 131.841}, {"pitch": 76, "velocity": 20, "note_on_time": 131.325, "note_off_time": 132.923}, {"pitch": 77, "velocity": 43, "note_on_time": 131.895, "note_off_time": 133.099}, {"pitch": 79, "velocity": 35, "note_on_time": 132.486, "note_off_time": 133.138}, {"pitch": 74, "velocity": 52, "note_on_time": 134.326, "note_off_time": 134.666}, {"pitch": 72, "velocity": 31, "note_on_time": 133.583, "note_off_time": 134.772}, {"pitch": 76, "velocity": 56, "note_on_time": 134.584, "note_off_time": 135.04}, {"pitch": 72, "velocity": 42, "note_on_time": 135.124, "note_off_time": 135.919}, {"pitch": 74, "velocity": 65, "note_on_time": 135.659, "note_off_time": 136.21}, {"pitch": 76, "velocity": 58, "note_on_time": 136.211, "note_off_time": 136.657}, {"pitch": 72, "velocity": 1, "note_on_time": 136.678, "note_off_time": 137.469}, {"pitch": 77, "velocity": 38, "note_on_time": 136.727, "note_off_time": 137.726}, {"pitch": 76, "velocity": 48, "note_on_time": 137.22, "note_off_time": 137.78}, {"pitch": 74, "velocity": 45, "note_on_time": 137.759, "note_off_time": 138.267}, {"pitch": 72, "velocity": 12, "note_on_time": 138.111, "note_off_time": 138.919}, {"pitch": 74, "velocity": 50, "note_on_time": 138.843, "note_off_time": 139.312}, {"pitch": 72, "velocity": 14, "note_on_time": 139.332, "note_off_time": 139.79}, {"pitch": 74, "velocity": 48, "note_on_time": 139.942, "note_off_time": 140.786}, {"pitch": 72, "velocity": 35, "note_on_time": 140.759, "note_off_time": 141.114}, {"pitch": 74, "velocity": 61, "note_on_time": 141.067, "note_off_time": 141.618}, {"pitch": 74, "velocity": 53, "note_on_time": 142.091, "note_off_time": 143.191}, {"pitch": 72, "velocity": 39, "note_on_time": 141.578, "note_off_time": 143.649}, {"pitch": 76, "velocity": 42, "note_on_time": 142.666, "note_off_time": 143.687}, {"pitch": 77, "velocity": 33, "note_on_time": 143.221, "note_off_time": 143.81}, {"pitch": 77, "velocity": 44, "note_on_time": 144.946, "note_off_time": 145.466}, {"pitch": 79, "velocity": 60, "note_on_time": 143.656, "note_off_time": 146.173}, {"pitch": 76, "velocity": 46, "note_on_time": 145.494, "note_off_time": 146.312}, {"pitch": 74, "velocity": 39, "note_on_time": 146.044, "note_off_time": 147.115}, {"pitch": 72, "velocity": 35, "note_on_time": 147.122, "note_off_time": 147.524}, {"pitch": 74, "velocity": 56, "note_on_time": 147.398, "note_off_time": 148.015}, {"pitch": 77, "velocity": 49, "note_on_time": 148.475, "note_off_time": 149.353}, {"pitch": 76, "velocity": 56, "note_on_time": 147.863, "note_off_time": 149.86}, {"pitch": 79, "velocity": 45, "note_on_time": 149.741, "note_off_time": 150.664}, {"pitch": 72, "velocity": 35, "note_on_time": 150.724, "note_off_time": 150.842}, {"pitch": 72, "velocity": 30, "note_on_time": 151.022, "note_off_time": 151.91}, {"pitch": 74, "velocity": 12, "note_on_time": 151.397, "note_off_time": 151.985}, {"pitch": 76, "velocity": 55, "note_on_time": 151.833, "note_off_time": 152.234}, {"pitch": 77, "velocity": 45, "note_on_time": 152.113, "note_off_time": 152.867}, {"pitch": 79, "velocity": 26, "note_on_time": 152.476, "note_off_time": 152.908}, {"pitch": 72, "velocity": 1, "note_on_time": 152.519, "note_off_time": 153.36}, {"pitch": 74, "velocity": 46, "note_on_time": 153.271, "note_off_time": 154.171}, {"pitch": 76, "velocity": 47, "note_on_time": 153.747, "note_off_time": 154.285}, {"pitch": 77, "velocity": 32, "note_on_time": 154.176, "note_off_time": 155.207}, {"pitch": 79, "velocity": 46, "note_on_time": 154.465, "note_off_time": 155.238}, {"pitch": 79, "velocity": 58, "note_on_time": 155.896, "note_off_time": 156.885}, {"pitch": 77, "velocity": 25, "note_on_time": 156.164, "note_off_time": 156.922}, {"pitch": 76, "velocity": 39, "note_on_time": 156.734, "note_off_time": 157.464}, {"pitch": 74, "velocity": 49, "note_on_time": 156.984, "note_off_time": 157.468}, {"pitch": 74, "velocity": 65, "note_on_time": 157.895, "note_off_time": 158.298}, {"pitch": 72, "velocity": 44, "note_on_time": 157.381, "note_off_time": 158.405}, {"pitch": 77, "velocity": 30, "note_on_time": 158.55, "note_off_time": 159.283}, {"pitch": 79, "velocity": 25, "note_on_time": 158.925, "note_off_time": 159.348}, {"pitch": 76, "velocity": 49, "note_on_time": 158.178, "note_off_time": 159.396}, {"pitch": 72, "velocity": 48, "note_on_time": 159.246, "note_off_time": 160.439}, {"pitch": 74, "velocity": 55, "note_on_time": 161.572, "note_off_time": 161.869}, {"pitch": 74, "velocity": 46, "note_on_time": 162.524, "note_off_time": 164.338}, {"pitch": 76, "velocity": 36, "note_on_time": 163.195, "note_off_time": 164.379}, {"pitch": 77, "velocity": 21, "note_on_time": 163.769, "note_off_time": 164.405}, {"pitch": 79, "velocity": 61, "note_on_time": 164.321, "note_off_time": 165.07}, {"pitch": 72, "velocity": 24, "note_on_time": 160.735, "note_off_time": 165.12}, {"pitch": 72, "velocity": 53, "note_on_time": 165.564, "note_off_time": 167.0}, {"pitch": 74, "velocity": 64, "note_on_time": 166.593, "note_off_time": 167.341}, {"pitch": 76, "velocity": 34, "note_on_time": 166.868, "note_off_time": 168.078}, {"pitch": 77, "velocity": 44, "note_on_time": 167.46, "note_off_time": 168.154}, {"pitch": 79, "velocity": 43, "note_on_time": 167.989, "note_off_time": 168.3}, {"pitch": 79, "velocity": 59, "note_on_time": 168.578, "note_off_time": 170.613}, {"pitch": 72, "velocity": 39, "note_on_time": 169.208, "note_off_time": 170.711}, {"pitch": 74, "velocity": 26, "note_on_time": 170.441, "note_off_time": 171.29}, {"pitch": 76, "velocity": 37, "note_on_time": 171.396, "note_off_time": 172.727}, {"pitch": 77, "velocity": 44, "note_on_time": 171.655, "note_off_time": 172.809}, {"pitch": 79, "velocity": 32, "note_on_time": 172.284, "note_off_time": 173.592}, {"pitch": 74, "velocity": 63, "note_on_time": 173.578, "note_off_time": 174.143}, {"pitch": 76, "velocity": 47, "note_on_time": 174.718, "note_off_time": 176.166}, {"pitch": 77, "velocity": 29, "note_on_time": 175.172, "note_off_time": 176.205}, {"pitch": 72, "velocity": 22, "note_on_time": 172.923, "note_off_time": 176.685}, {"pitch": 77, "velocity": 41, "note_on_time": 176.53, "note_off_time": 177.205}, {"pitch": 79, "velocity": 48, "note_on_time": 176.25, "note_off_time": 177.604}, {"pitch": 76, "velocity": 46, "note_on_time": 177.09, "note_off_time": 177.7}, {"pitch": 75, "velocity": 2, "note_on_time": 177.635, "note_off_time": 177.904}, {"pitch": 72, "velocity": 1, "note_on_time": 178.324, "note_off_time": 180.626}, {"pitch": 74, "velocity": 35, "note_on_time": 179.159, "note_off_time": 180.736}, {"pitch": 74, "velocity": 1, "note_on_time": 182.328, "note_off_time": 182.762}, {"pitch": 72, "velocity": 26, "note_on_time": 181.368, "note_off_time": 183.17}, {"pitch": 74, "velocity": 50, "note_on_time": 183.027, "note_off_time": 184.399}, {"pitch": 77, "velocity": 53, "note_on_time": 183.881, "note_off_time": 185.148}, {"pitch": 76, "velocity": 52, "note_on_time": 183.427, "note_off_time": 185.263}, {"pitch": 79, "velocity": 43, "note_on_time": 184.384, "note_off_time": 185.281}, {"pitch": 72, "velocity": 1, "note_on_time": 185.675, "note_off_time": 187.185}, {"pitch": 74, "velocity": 32, "note_on_time": 187.067, "note_off_time": 188.033}, {"pitch": 76, "velocity": 1, "note_on_time": 187.842, "note_off_time": 188.472}, {"pitch": 77, "velocity": 14, "note_on_time": 188.79, "note_off_time": 189.257}, {"pitch": 79, "velocity": 17, "note_on_time": 189.554, "note_off_time": 189.899}, {"pitch": 77, "velocity": 40, "note_on_time": 190.246, "note_off_time": 190.845}, {"pitch": 74, "velocity": 22, "note_on_time": 191.315, "note_off_time": 192.068}, {"pitch": 76, "velocity": 47, "note_on_time": 190.792, "note_off_time": 192.129}, {"pitch": 72, "velocity": 7, "note_on_time": 191.98, "note_off_time": 192.831}, {"pitch": 79, "velocity": 57, "note_on_time": 192.683, "note_off_time": 193.499}, {"pitch": 77, "velocity": 22, "note_on_time": 193.342, "note_off_time": 194.118}]</notes><guidance name="Guidance Mode">None</guidance><error name="Error value">99</error></trial></trials></MIDI>