<MIDI midiNo="2024_03_11-11_15_09"><target_notes><notes name="Note List">[{"pitch": 60, "velocity": 40, "note_on_time": 0.009, "note_off_time": 1.019}, {"pitch": 64, "velocity": 40, "note_on_time": 0.01, "note_off_time": 1.02}, {"pitch": 67, "velocity": 40, "note_on_time": 0.01, "note_off_time": 1.021}, {"pitch": 48, "velocity": 40, "note_on_time": 0.01, "note_off_time": 1.021}, {"pitch": 52, "velocity": 40, "note_on_time": 1.021, "note_off_time": 2.024}, {"pitch": 55, "velocity": 40, "note_on_time": 1.021, "note_off_time": 2.026}, {"pitch": 76, "velocity": 40, "note_on_time": 2.024, "note_off_time": 3.037}, {"pitch": 48, "velocity": 40, "note_on_time": 2.026, "note_off_time": 3.037}, {"pitch": 52, "velocity": 40, "note_on_time": 3.037, "note_off_time": 4.047}, {"pitch": 55, "velocity": 40, "note_on_time": 3.037, "note_off_time": 4.047}, {"pitch": 48, "velocity": 40, "note_on_time": 4.047, "note_off_time": 5.053}, {"pitch": 52, "velocity": 40, "note_on_time": 5.053, "note_off_time": 6.057}, {"pitch": 55, "velocity": 40, "note_on_time": 5.053, "note_off_time": 6.057}, {"pitch": 48, "velocity": 40, "note_on_time": 6.057, "note_off_time": 7.066}, {"pitch": 52, "velocity": 40, "note_on_time": 7.066, "note_off_time": 8.075}, {"pitch": 55, "velocity": 40, "note_on_time": 7.066, "note_off_time": 8.075}, {"pitch": 60, "velocity": 40, "note_on_time": 8.073, "note_off_time": 9.078}, {"pitch": 64, "velocity": 40, "note_on_time": 8.074, "note_off_time": 9.079}, {"pitch": 67, "velocity": 40, "note_on_time": 8.074, "note_off_time": 9.079}, {"pitch": 48, "velocity": 40, "note_on_time": 8.075, "note_off_time": 9.08}, {"pitch": 52, "velocity": 40, "note_on_time": 9.08, "note_off_time": 10.086}, {"pitch": 55, "velocity": 40, "note_on_time": 9.08, "note_off_time": 10.086}, {"pitch": 77, "velocity": 40, "note_on_time": 10.086, "note_off_time": 11.101}, {"pitch": 48, "velocity": 40, "note_on_time": 10.086, "note_off_time": 11.101}, {"pitch": 52, "velocity": 40, "note_on_time": 11.101, "note_off_time": 12.104}, {"pitch": 55, "velocity": 40, "note_on_time": 11.101, "note_off_time": 12.104}, {"pitch": 48, "velocity": 40, "note_on_time": 12.104, "note_off_time": 13.114}, {"pitch": 52, "velocity": 40, "note_on_time": 13.114, "note_off_time": 14.119}, {"pitch": 55, "velocity": 40, "note_on_time": 13.114, "note_off_time": 14.119}, {"pitch": 48, "velocity": 40, "note_on_time": 14.119, "note_off_time": 15.127}, {"pitch": 52, "velocity": 40, "note_on_time": 15.127, "note_off_time": 16.131}, {"pitch": 55, "velocity": 40, "note_on_time": 15.127, "note_off_time": 16.131}, {"pitch": 60, "velocity": 40, "note_on_time": 16.13, "note_off_time": 17.141}, {"pitch": 64, "velocity": 40, "note_on_time": 16.131, "note_off_time": 17.141}, {"pitch": 67, "velocity": 40, "note_on_time": 16.131, "note_off_time": 17.142}, {"pitch": 48, "velocity": 40, "note_on_time": 16.131, "note_off_time": 17.142}, {"pitch": 52, "velocity": 40, "note_on_time": 17.142, "note_off_time": 18.147}, {"pitch": 55, "velocity": 40, "note_on_time": 17.142, "note_off_time": 18.147}, {"pitch": 74, "velocity": 40, "note_on_time": 18.146, "note_off_time": 19.162}, {"pitch": 48, "velocity": 40, "note_on_time": 18.147, "note_off_time": 19.162}, {"pitch": 52, "velocity": 40, "note_on_time": 19.162, "note_off_time": 20.163}, {"pitch": 55, "velocity": 40, "note_on_time": 19.162, "note_off_time": 20.168}, {"pitch": 48, "velocity": 40, "note_on_time": 20.168, "note_off_time": 21.18}, {"pitch": 52, "velocity": 40, "note_on_time": 21.18, "note_off_time": 22.188}, {"pitch": 55, "velocity": 40, "note_on_time": 21.18, "note_off_time": 22.188}, {"pitch": 48, "velocity": 40, "note_on_time": 22.188, "note_off_time": 23.194}, {"pitch": 52, "velocity": 40, "note_on_time": 23.194, "note_off_time": 24.198}, {"pitch": 55, "velocity": 40, "note_on_time": 23.194, "note_off_time": 24.198}, {"pitch": 60, "velocity": 40, "note_on_time": 24.197, "note_off_time": 25.203}, {"pitch": 64, "velocity": 40, "note_on_time": 24.197, "note_off_time": 25.204}, {"pitch": 67, "velocity": 40, "note_on_time": 24.198, "note_off_time": 25.205}, {"pitch": 48, "velocity": 40, "note_on_time": 24.198, "note_off_time": 25.205}, {"pitch": 52, "velocity": 40, "note_on_time": 25.205, "note_off_time": 26.216}, {"pitch": 55, "velocity": 40, "note_on_time": 25.205, "note_off_time": 26.216}, {"pitch": 77, "velocity": 40, "note_on_time": 26.216, "note_off_time": 27.23}, {"pitch": 48, "velocity": 40, "note_on_time": 26.216, "note_off_time": 27.231}, {"pitch": 52, "velocity": 40, "note_on_time": 27.231, "note_off_time": 28.242}, {"pitch": 55, "velocity": 40, "note_on_time": 27.231, "note_off_time": 28.242}, {"pitch": 48, "velocity": 40, "note_on_time": 28.242, "note_off_time": 29.254}, {"pitch": 52, "velocity": 40, "note_on_time": 29.254, "note_off_time": 30.26}, {"pitch": 55, "velocity": 40, "note_on_time": 29.254, "note_off_time": 30.26}, {"pitch": 48, "velocity": 40, "note_on_time": 30.26, "note_off_time": 31.269}, {"pitch": 52, "velocity": 40, "note_on_time": 31.269, "note_off_time": 32.281}, {"pitch": 55, "velocity": 40, "note_on_time": 31.269, "note_off_time": 32.281}, {"pitch": 60, "velocity": 40, "note_on_time": 32.28, "note_off_time": 33.286}, {"pitch": 64, "velocity": 40, "note_on_time": 32.28, "note_off_time": 33.286}, {"pitch": 67, "velocity": 40, "note_on_time": 32.281, "note_off_time": 33.287}, {"pitch": 48, "velocity": 40, "note_on_time": 32.281, "note_off_time": 33.287}, {"pitch": 52, "velocity": 40, "note_on_time": 33.287, "note_off_time": 34.295}, {"pitch": 55, "velocity": 40, "note_on_time": 33.287, "note_off_time": 34.295}, {"pitch": 76, "velocity": 40, "note_on_time": 34.295, "note_off_time": 35.303}, {"pitch": 48, "velocity": 40, "note_on_time": 34.295, "note_off_time": 35.303}, {"pitch": 52, "velocity": 40, "note_on_time": 35.303, "note_off_time": 36.308}, {"pitch": 55, "velocity": 40, "note_on_time": 35.303, "note_off_time": 36.308}, {"pitch": 48, "velocity": 40, "note_on_time": 36.308, "note_off_time": 37.312}, {"pitch": 52, "velocity": 40, "note_on_time": 37.312, "note_off_time": 38.316}, {"pitch": 55, "velocity": 40, "note_on_time": 37.312, "note_off_time": 38.316}, {"pitch": 48, "velocity": 40, "note_on_time": 38.316, "note_off_time": 39.321}, {"pitch": 52, "velocity": 40, "note_on_time": 39.321, "note_off_time": 40.323}, {"pitch": 55, "velocity": 40, "note_on_time": 39.321, "note_off_time": 40.323}, {"pitch": 60, "velocity": 40, "note_on_time": 40.322, "note_off_time": 41.337}, {"pitch": 64, "velocity": 40, "note_on_time": 40.323, "note_off_time": 41.338}, {"pitch": 67, "velocity": 40, "note_on_time": 40.323, "note_off_time": 41.338}, {"pitch": 79, "velocity": 40, "note_on_time": 42.346, "note_off_time": 43.352}, {"pitch": 60, "velocity": 40, "note_on_time": 48.361, "note_off_time": 49.374}, {"pitch": 64, "velocity": 40, "note_on_time": 48.361, "note_off_time": 49.375}, {"pitch": 67, "velocity": 40, "note_on_time": 48.362, "note_off_time": 49.375}, {"pitch": 76, "velocity": 40, "note_on_time": 50.382, "note_off_time": 51.396}, {"pitch": 60, "velocity": 40, "note_on_time": 56.399, "note_off_time": 57.409}, {"pitch": 64, "velocity": 40, "note_on_time": 56.399, "note_off_time": 57.41}, {"pitch": 67, "velocity": 40, "note_on_time": 56.4, "note_off_time": 57.41}, {"pitch": 72, "velocity": 40, "note_on_time": 58.413, "note_off_time": 59.423}, {"pitch": 60, "velocity": 40, "note_on_time": 64.426, "note_off_time": 65.442}, {"pitch": 64, "velocity": 40, "note_on_time": 64.427, "note_off_time": 65.442}, {"pitch": 67, "velocity": 40, "note_on_time": 64.428, "note_off_time": 65.443}, {"pitch": 79, "velocity": 40, "note_on_time": 66.458, "note_off_time": 67.462}, {"pitch": 60, "velocity": 40, "note_on_time": 72.474, "note_off_time": 73.488}, {"pitch": 64, "velocity": 40, "note_on_time": 72.475, "note_off_time": 73.488}, {"pitch": 67, "velocity": 40, "note_on_time": 72.475, "note_off_time": 73.489}, {"pitch": 72, "velocity": 40, "note_on_time": 74.495, "note_off_time": 75.497}, {"pitch": 60, "velocity": 40, "note_on_time": 80.511, "note_off_time": 81.517}, {"pitch": 64, "velocity": 40, "note_on_time": 80.512, "note_off_time": 81.517}, {"pitch": 67, "velocity": 40, "note_on_time": 80.513, "note_off_time": 81.518}, {"pitch": 77, "velocity": 40, "note_on_time": 82.532, "note_off_time": 83.534}, {"pitch": 60, "velocity": 40, "note_on_time": 88.536, "note_off_time": 89.54}, {"pitch": 64, "velocity": 40, "note_on_time": 88.537, "note_off_time": 89.541}, {"pitch": 67, "velocity": 40, "note_on_time": 88.537, "note_off_time": 89.541}, {"pitch": 79, "velocity": 40, "note_on_time": 90.551, "note_off_time": 91.571}, {"pitch": 60, "velocity": 40, "note_on_time": 96.577, "note_off_time": 97.588}, {"pitch": 64, "velocity": 40, "note_on_time": 96.577, "note_off_time": 97.589}, {"pitch": 67, "velocity": 40, "note_on_time": 96.577, "note_off_time": 97.589}, {"pitch": 72, "velocity": 40, "note_on_time": 98.598, "note_off_time": 99.615}, {"pitch": 60, "velocity": 40, "note_on_time": 104.629, "note_off_time": 105.639}, {"pitch": 64, "velocity": 40, "note_on_time": 104.629, "note_off_time": 105.639}, {"pitch": 67, "velocity": 40, "note_on_time": 104.63, "note_off_time": 105.64}, {"pitch": 77, "velocity": 40, "note_on_time": 106.641, "note_off_time": 107.646}, {"pitch": 60, "velocity": 40, "note_on_time": 112.657, "note_off_time": 113.664}, {"pitch": 64, "velocity": 40, "note_on_time": 112.658, "note_off_time": 113.665}, {"pitch": 67, "velocity": 40, "note_on_time": 112.658, "note_off_time": 113.666}, {"pitch": 72, "velocity": 40, "note_on_time": 114.679, "note_off_time": 115.688}, {"pitch": 60, "velocity": 40, "note_on_time": 120.694, "note_off_time": 121.708}, {"pitch": 64, "velocity": 40, "note_on_time": 120.695, "note_off_time": 121.708}, {"pitch": 67, "velocity": 40, "note_on_time": 120.696, "note_off_time": 121.709}, {"pitch": 74, "velocity": 40, "note_on_time": 122.713, "note_off_time": 123.714}, {"pitch": 60, "velocity": 40, "note_on_time": 128.719, "note_off_time": 129.722}, {"pitch": 64, "velocity": 40, "note_on_time": 128.72, "note_off_time": 129.723}, {"pitch": 67, "velocity": 40, "note_on_time": 128.72, "note_off_time": 129.724}, {"pitch": 79, "velocity": 40, "note_on_time": 130.729, "note_off_time": 131.734}, {"pitch": 60, "velocity": 40, "note_on_time": 136.737, "note_off_time": 137.754}, {"pitch": 64, "velocity": 40, "note_on_time": 136.738, "note_off_time": 137.755}, {"pitch": 67, "velocity": 40, "note_on_time": 136.738, "note_off_time": 137.755}, {"pitch": 74, "velocity": 40, "note_on_time": 138.762, "note_off_time": 139.774}, {"pitch": 60, "velocity": 40, "note_on_time": 144.785, "note_off_time": 145.793}, {"pitch": 64, "velocity": 40, "note_on_time": 144.786, "note_off_time": 145.794}, {"pitch": 67, "velocity": 40, "note_on_time": 144.786, "note_off_time": 145.794}, {"pitch": 76, "velocity": 40, "note_on_time": 146.803, "note_off_time": 147.812}, {"pitch": 60, "velocity": 40, "note_on_time": 152.825, "note_off_time": 153.84}, {"pitch": 64, "velocity": 40, "note_on_time": 152.826, "note_off_time": 153.841}, {"pitch": 67, "velocity": 40, "note_on_time": 152.826, "note_off_time": 153.842}, {"pitch": 74, "velocity": 40, "note_on_time": 154.847, "note_off_time": 155.857}, {"pitch": 60, "velocity": 40, "note_on_time": 160.862, "note_off_time": 161.875}, {"pitch": 64, "velocity": 40, "note_on_time": 160.862, "note_off_time": 161.875}, {"pitch": 67, "velocity": 40, "note_on_time": 160.863, "note_off_time": 161.876}, {"pitch": 76, "velocity": 40, "note_on_time": 162.89, "note_off_time": 163.895}]</notes><options name="Option List">((4, 4), [0.5, 0.25], 3, 8, &lt;NoteRangePerHand.TWO_NOTES: 3&gt;, &lt;NoteRangePerHand.ONE_NOTE: 2&gt;, False, True, True, 100)</options></target_notes><trials><trial trial_no="1" timestamp="2024_03_11-11_12_25"><notes name="Played Notes">[{"pitch": 77, "velocity": 22, "note_on_time": 9.305, "note_off_time": 9.514}, {"pitch": 74, "velocity": 52, "note_on_time": 12.154, "note_off_time": 12.339}, {"pitch": 76, "velocity": 42, "note_on_time": 13.327, "note_off_time": 13.655}, {"pitch": 77, "velocity": 36, "note_on_time": 16.169, "note_off_time": 16.414}, {"pitch": 74, "velocity": 71, "note_on_time": 20.407, "note_off_time": 20.599}, {"pitch": 77, "velocity": 20, "note_on_time": 22.416, "note_off_time": 22.741}, {"pitch": 79, "velocity": 29, "note_on_time": 23.313, "note_off_time": 23.9}, {"pitch": 76, "velocity": 31, "note_on_time": 26.006, "note_off_time": 26.284}, {"pitch": 74, "velocity": 53, "note_on_time": 27.64, "note_off_time": 27.85}, {"pitch": 76, "velocity": 22, "note_on_time": 29.005, "note_off_time": 29.276}, {"pitch": 77, "velocity": 18, "note_on_time": 29.797, "note_off_time": 30.262}, {"pitch": 79, "velocity": 33, "note_on_time": 30.838, "note_off_time": 31.128}, {"pitch": 72, "velocity": 52, "note_on_time": 32.477, "note_off_time": 32.619}, {"pitch": 74, "velocity": 43, "note_on_time": 37.013, "note_off_time": 37.223}, {"pitch": 76, "velocity": 39, "note_on_time": 38.107, "note_off_time": 38.368}, {"pitch": 77, "velocity": 38, "note_on_time": 38.948, "note_off_time": 39.194}, {"pitch": 79, "velocity": 30, "note_on_time": 39.686, "note_off_time": 39.898}, {"pitch": 72, "velocity": 56, "note_on_time": 44.917, "note_off_time": 45.122}, {"pitch": 74, "velocity": 50, "note_on_time": 45.772, "note_off_time": 45.981}, {"pitch": 76, "velocity": 28, "note_on_time": 46.524, "note_off_time": 46.812}, {"pitch": 79, "velocity": 51, "note_on_time": 48.754, "note_off_time": 48.961}, {"pitch": 74, "velocity": 58, "note_on_time": 51.841, "note_off_time": 51.998}, {"pitch": 72, "velocity": 24, "note_on_time": 53.138, "note_off_time": 53.309}, {"pitch": 76, "velocity": 1, "note_on_time": 54.591, "note_off_time": 54.955}, {"pitch": 77, "velocity": 28, "note_on_time": 55.836, "note_off_time": 56.071}, {"pitch": 76, "velocity": 50, "note_on_time": 58.275, "note_off_time": 58.498}, {"pitch": 74, "velocity": 34, "note_on_time": 59.699, "note_off_time": 59.933}, {"pitch": 79, "velocity": 44, "note_on_time": 60.976, "note_off_time": 61.232}, {"pitch": 74, "velocity": 45, "note_on_time": 62.708, "note_off_time": 62.959}, {"pitch": 76, "velocity": 46, "note_on_time": 63.673, "note_off_time": 63.99}, {"pitch": 72, "velocity": 32, "note_on_time": 66.278, "note_off_time": 66.557}, {"pitch": 74, "velocity": 59, "note_on_time": 67.252, "note_off_time": 67.471}, {"pitch": 76, "velocity": 49, "note_on_time": 67.933, "note_off_time": 68.162}, {"pitch": 77, "velocity": 60, "note_on_time": 68.583, "note_off_time": 68.792}, {"pitch": 79, "velocity": 40, "note_on_time": 69.343, "note_off_time": 69.637}, {"pitch": 72, "velocity": 32, "note_on_time": 70.263, "note_off_time": 70.518}, {"pitch": 74, "velocity": 52, "note_on_time": 71.617, "note_off_time": 71.958}, {"pitch": 76, "velocity": 26, "note_on_time": 73.607, "note_off_time": 73.828}, {"pitch": 77, "velocity": 48, "note_on_time": 74.285, "note_off_time": 74.547}, {"pitch": 74, "velocity": 50, "note_on_time": 75.793, "note_off_time": 76.036}, {"pitch": 77, "velocity": 52, "note_on_time": 77.03, "note_off_time": 77.267}, {"pitch": 79, "velocity": 37, "note_on_time": 77.784, "note_off_time": 78.093}, {"pitch": 72, "velocity": 33, "note_on_time": 78.756, "note_off_time": 79.064}, {"pitch": 76, "velocity": 60, "note_on_time": 80.03, "note_off_time": 80.192}, {"pitch": 74, "velocity": 58, "note_on_time": 83.852, "note_off_time": 84.033}, {"pitch": 74, "velocity": 50, "note_on_time": 88.213, "note_off_time": 88.481}, {"pitch": 74, "velocity": 66, "note_on_time": 92.368, "note_off_time": 92.597}, {"pitch": 77, "velocity": 31, "note_on_time": 93.884, "note_off_time": 94.264}, {"pitch": 79, "velocity": 18, "note_on_time": 96.107, "note_off_time": 96.636}, {"pitch": 77, "velocity": 23, "note_on_time": 98.796, "note_off_time": 99.092}, {"pitch": 79, "velocity": 37, "note_on_time": 100.767, "note_off_time": 101.083}, {"pitch": 76, "velocity": 41, "note_on_time": 102.605, "note_off_time": 102.838}, {"pitch": 77, "velocity": 57, "note_on_time": 104.527, "note_off_time": 104.729}, {"pitch": 72, "velocity": 33, "note_on_time": 109.834, "note_off_time": 110.083}, {"pitch": 74, "velocity": 19, "note_on_time": 111.704, "note_off_time": 112.003}, {"pitch": 77, "velocity": 50, "note_on_time": 112.821, "note_off_time": 113.082}, {"pitch": 79, "velocity": 47, "note_on_time": 116.657, "note_off_time": 116.902}, {"pitch": 77, "velocity": 47, "note_on_time": 117.921, "note_off_time": 118.239}, {"pitch": 76, "velocity": 15, "note_on_time": 119.077, "note_off_time": 119.4}, {"pitch": 74, "velocity": 47, "note_on_time": 120.411, "note_off_time": 120.598}, {"pitch": 74, "velocity": 38, "note_on_time": 124.246, "note_off_time": 124.529}, {"pitch": 76, "velocity": 37, "note_on_time": 126.394, "note_off_time": 126.709}, {"pitch": 74, "velocity": 45, "note_on_time": 128.152, "note_off_time": 128.346}, {"pitch": 74, "velocity": 53, "note_on_time": 133.659, "note_off_time": 133.876}, {"pitch": 77, "velocity": 51, "note_on_time": 134.98, "note_off_time": 135.255}, {"pitch": 79, "velocity": 41, "note_on_time": 135.826, "note_off_time": 136.121}, {"pitch": 72, "velocity": 49, "note_on_time": 137.779, "note_off_time": 138.013}, {"pitch": 74, "velocity": 44, "note_on_time": 140.96, "note_off_time": 141.244}, {"pitch": 76, "velocity": 67, "note_on_time": 143.208, "note_off_time": 143.469}, {"pitch": 74, "velocity": 48, "note_on_time": 146.219, "note_off_time": 146.51}, {"pitch": 74, "velocity": 62, "note_on_time": 148.179, "note_off_time": 148.424}, {"pitch": 77, "velocity": 57, "note_on_time": 148.65, "note_off_time": 148.849}, {"pitch": 79, "velocity": 52, "note_on_time": 151.653, "note_off_time": 151.902}, {"pitch": 74, "velocity": 74, "note_on_time": 156.977, "note_off_time": 157.278}, {"pitch": 77, "velocity": 46, "note_on_time": 158.832, "note_off_time": 159.252}]</notes><guidance name="Guidance Mode">None</guidance><error name="Error value">99</error></trial><trial trial_no="2" timestamp="2024_03_11-11_18_08"><notes name="Played Notes">[{"pitch": 72, "velocity": 52, "note_on_time": 1.294, "note_off_time": 1.489}, {"pitch": 74, "velocity": 56, "note_on_time": 1.779, "note_off_time": 2.021}, {"pitch": 76, "velocity": 50, "note_on_time": 2.177, "note_off_time": 2.393}, {"pitch": 77, "velocity": 50, "note_on_time": 2.573, "note_off_time": 2.764}, {"pitch": 79, "velocity": 64, "note_on_time": 2.955, "note_off_time": 3.192}, {"pitch": 72, "velocity": 56, "note_on_time": 3.558, "note_off_time": 3.781}, {"pitch": 74, "velocity": 50, "note_on_time": 3.914, "note_off_time": 4.178}, {"pitch": 76, "velocity": 48, "note_on_time": 4.202, "note_off_time": 4.484}, {"pitch": 77, "velocity": 57, "note_on_time": 4.523, "note_off_time": 4.782}, {"pitch": 79, "velocity": 49, "note_on_time": 4.861, "note_off_time": 5.092}, {"pitch": 72, "velocity": 45, "note_on_time": 5.415, "note_off_time": 5.732}, {"pitch": 74, "velocity": 57, "note_on_time": 5.769, "note_off_time": 6.068}, {"pitch": 76, "velocity": 51, "note_on_time": 6.078, "note_off_time": 6.385}, {"pitch": 77, "velocity": 56, "note_on_time": 6.42, "note_off_time": 6.726}, {"pitch": 79, "velocity": 62, "note_on_time": 6.744, "note_off_time": 6.952}, {"pitch": 72, "velocity": 49, "note_on_time": 7.365, "note_off_time": 7.707}, {"pitch": 74, "velocity": 62, "note_on_time": 7.695, "note_off_time": 7.986}, {"pitch": 76, "velocity": 57, "note_on_time": 7.98, "note_off_time": 8.349}, {"pitch": 77, "velocity": 66, "note_on_time": 8.315, "note_off_time": 8.612}, {"pitch": 79, "velocity": 60, "note_on_time": 8.655, "note_off_time": 8.826}, {"pitch": 79, "velocity": 55, "note_on_time": 9.912, "note_off_time": 10.539}, {"pitch": 77, "velocity": 51, "note_on_time": 10.705, "note_off_time": 11.366}, {"pitch": 76, "velocity": 43, "note_on_time": 11.216, "note_off_time": 11.439}, {"pitch": 74, "velocity": 58, "note_on_time": 11.627, "note_off_time": 11.924}, {"pitch": 72, "velocity": 53, "note_on_time": 12.059, "note_off_time": 12.268}, {"pitch": 79, "velocity": 55, "note_on_time": 12.696, "note_off_time": 12.896}, {"pitch": 77, "velocity": 45, "note_on_time": 13.131, "note_off_time": 13.688}, {"pitch": 76, "velocity": 43, "note_on_time": 13.62, "note_off_time": 13.875}, {"pitch": 74, "velocity": 38, "note_on_time": 14.057, "note_off_time": 14.42}, {"pitch": 72, "velocity": 60, "note_on_time": 14.381, "note_off_time": 14.504}, {"pitch": 79, "velocity": 55, "note_on_time": 14.921, "note_off_time": 15.358}, {"pitch": 77, "velocity": 23, "note_on_time": 15.417, "note_off_time": 15.724}, {"pitch": 76, "velocity": 7, "note_on_time": 16.0, "note_off_time": 16.571}, {"pitch": 74, "velocity": 70, "note_on_time": 16.535, "note_off_time": 16.88}, {"pitch": 72, "velocity": 52, "note_on_time": 16.926, "note_off_time": 17.138}, {"pitch": 79, "velocity": 55, "note_on_time": 17.785, "note_off_time": 18.157}, {"pitch": 77, "velocity": 49, "note_on_time": 18.361, "note_off_time": 18.574}, {"pitch": 76, "velocity": 57, "note_on_time": 18.802, "note_off_time": 18.967}, {"pitch": 74, "velocity": 48, "note_on_time": 19.257, "note_off_time": 19.441}, {"pitch": 72, "velocity": 82, "note_on_time": 19.621, "note_off_time": 19.772}, {"pitch": 74, "velocity": 67, "note_on_time": 21.984, "note_off_time": 22.181}, {"pitch": 76, "velocity": 58, "note_on_time": 22.417, "note_off_time": 22.708}, {"pitch": 77, "velocity": 59, "note_on_time": 22.849, "note_off_time": 23.059}, {"pitch": 79, "velocity": 36, "note_on_time": 23.3, "note_off_time": 23.608}, {"pitch": 72, "velocity": 71, "note_on_time": 24.563, "note_off_time": 24.716}, {"pitch": 74, "velocity": 63, "note_on_time": 25.221, "note_off_time": 25.411}, {"pitch": 76, "velocity": 55, "note_on_time": 25.592, "note_off_time": 25.818}, {"pitch": 77, "velocity": 61, "note_on_time": 26.099, "note_off_time": 26.265}, {"pitch": 79, "velocity": 47, "note_on_time": 26.458, "note_off_time": 26.692}, {"pitch": 72, "velocity": 70, "note_on_time": 27.021, "note_off_time": 27.183}, {"pitch": 74, "velocity": 66, "note_on_time": 27.974, "note_off_time": 28.186}, {"pitch": 76, "velocity": 49, "note_on_time": 28.293, "note_off_time": 28.5}, {"pitch": 77, "velocity": 51, "note_on_time": 28.671, "note_off_time": 28.851}, {"pitch": 79, "velocity": 33, "note_on_time": 28.958, "note_off_time": 29.248}, {"pitch": 72, "velocity": 69, "note_on_time": 29.556, "note_off_time": 29.73}, {"pitch": 74, "velocity": 63, "note_on_time": 30.233, "note_off_time": 30.486}, {"pitch": 76, "velocity": 53, "note_on_time": 30.603, "note_off_time": 30.836}, {"pitch": 77, "velocity": 47, "note_on_time": 30.975, "note_off_time": 31.175}, {"pitch": 79, "velocity": 26, "note_on_time": 31.268, "note_off_time": 31.589}, {"pitch": 72, "velocity": 64, "note_on_time": 31.873, "note_off_time": 32.043}, {"pitch": 79, "velocity": 9, "note_on_time": 36.806, "note_off_time": 37.041}, {"pitch": 79, "velocity": 73, "note_on_time": 37.934, "note_off_time": 38.143}, {"pitch": 77, "velocity": 64, "note_on_time": 38.362, "note_off_time": 38.582}, {"pitch": 76, "velocity": 65, "note_on_time": 38.785, "note_off_time": 38.996}, {"pitch": 77, "velocity": 60, "note_on_time": 41.865, "note_off_time": 42.072}, {"pitch": 76, "velocity": 66, "note_on_time": 42.328, "note_off_time": 42.598}, {"pitch": 74, "velocity": 66, "note_on_time": 42.75, "note_off_time": 42.954}, {"pitch": 72, "velocity": 62, "note_on_time": 43.173, "note_off_time": 43.398}, {"pitch": 79, "velocity": 35, "note_on_time": 43.698, "note_off_time": 43.921}, {"pitch": 77, "velocity": 71, "note_on_time": 44.729, "note_off_time": 44.927}, {"pitch": 76, "velocity": 57, "note_on_time": 45.196, "note_off_time": 45.432}, {"pitch": 74, "velocity": 68, "note_on_time": 45.596, "note_off_time": 45.889}, {"pitch": 72, "velocity": 55, "note_on_time": 46.005, "note_off_time": 46.241}, {"pitch": 79, "velocity": 43, "note_on_time": 46.479, "note_off_time": 46.79}, {"pitch": 77, "velocity": 69, "note_on_time": 47.442, "note_off_time": 47.635}, {"pitch": 76, "velocity": 61, "note_on_time": 47.846, "note_off_time": 48.138}, {"pitch": 74, "velocity": 59, "note_on_time": 48.302, "note_off_time": 48.527}, {"pitch": 72, "velocity": 55, "note_on_time": 48.705, "note_off_time": 48.97}, {"pitch": 79, "velocity": 66, "note_on_time": 49.134, "note_off_time": 49.324}, {"pitch": 77, "velocity": 58, "note_on_time": 50.009, "note_off_time": 50.338}, {"pitch": 76, "velocity": 55, "note_on_time": 50.421, "note_off_time": 50.629}, {"pitch": 74, "velocity": 65, "note_on_time": 50.825, "note_off_time": 51.196}, {"pitch": 72, "velocity": 50, "note_on_time": 51.206, "note_off_time": 51.486}, {"pitch": 79, "velocity": 76, "note_on_time": 51.656, "note_off_time": 51.818}, {"pitch": 77, "velocity": 60, "note_on_time": 54.201, "note_off_time": 54.526}, {"pitch": 76, "velocity": 43, "note_on_time": 54.613, "note_off_time": 55.106}, {"pitch": 74, "velocity": 54, "note_on_time": 55.013, "note_off_time": 55.411}, {"pitch": 72, "velocity": 65, "note_on_time": 55.358, "note_off_time": 55.553}, {"pitch": 79, "velocity": 55, "note_on_time": 55.785, "note_off_time": 56.072}, {"pitch": 72, "velocity": 23, "note_on_time": 55.949, "note_off_time": 56.091}, {"pitch": 77, "velocity": 72, "note_on_time": 56.949, "note_off_time": 57.391}, {"pitch": 76, "velocity": 54, "note_on_time": 57.362, "note_off_time": 57.639}, {"pitch": 74, "velocity": 60, "note_on_time": 57.73, "note_off_time": 58.118}, {"pitch": 72, "velocity": 67, "note_on_time": 58.07, "note_off_time": 58.287}, {"pitch": 79, "velocity": 64, "note_on_time": 58.549, "note_off_time": 58.77}, {"pitch": 76, "velocity": 72, "note_on_time": 63.444, "note_off_time": 63.658}, {"pitch": 77, "velocity": 70, "note_on_time": 63.873, "note_off_time": 64.043}, {"pitch": 79, "velocity": 1, "note_on_time": 64.21, "note_off_time": 64.46}, {"pitch": 79, "velocity": 73, "note_on_time": 64.866, "note_off_time": 65.11}, {"pitch": 74, "velocity": 82, "note_on_time": 65.942, "note_off_time": 66.138}, {"pitch": 72, "velocity": 71, "note_on_time": 66.307, "note_off_time": 66.488}, {"pitch": 76, "velocity": 71, "note_on_time": 67.059, "note_off_time": 67.249}, {"pitch": 77, "velocity": 73, "note_on_time": 67.429, "note_off_time": 67.61}, {"pitch": 79, "velocity": 71, "note_on_time": 67.759, "note_off_time": 67.98}, {"pitch": 74, "velocity": 75, "note_on_time": 68.725, "note_off_time": 68.95}, {"pitch": 72, "velocity": 70, "note_on_time": 69.027, "note_off_time": 69.188}, {"pitch": 76, "velocity": 74, "note_on_time": 71.163, "note_off_time": 71.369}, {"pitch": 77, "velocity": 70, "note_on_time": 71.584, "note_off_time": 71.785}, {"pitch": 79, "velocity": 53, "note_on_time": 72.028, "note_off_time": 72.326}, {"pitch": 74, "velocity": 61, "note_on_time": 72.741, "note_off_time": 73.048}, {"pitch": 72, "velocity": 76, "note_on_time": 73.032, "note_off_time": 73.163}, {"pitch": 76, "velocity": 76, "note_on_time": 74.8, "note_off_time": 75.137}, {"pitch": 77, "velocity": 63, "note_on_time": 75.135, "note_off_time": 75.358}, {"pitch": 79, "velocity": 63, "note_on_time": 75.433, "note_off_time": 75.943}, {"pitch": 74, "velocity": 55, "note_on_time": 76.091, "note_off_time": 76.424}, {"pitch": 72, "velocity": 78, "note_on_time": 76.384, "note_off_time": 76.511}, {"pitch": 77, "velocity": 61, "note_on_time": 78.001, "note_off_time": 78.285}, {"pitch": 76, "velocity": 41, "note_on_time": 77.579, "note_off_time": 78.335}, {"pitch": 79, "velocity": 61, "note_on_time": 78.299, "note_off_time": 78.873}, {"pitch": 74, "velocity": 49, "note_on_time": 78.848, "note_off_time": 79.141}, {"pitch": 72, "velocity": 77, "note_on_time": 79.118, "note_off_time": 79.285}, {"pitch": 74, "velocity": 43, "note_on_time": 82.662, "note_off_time": 82.728}, {"pitch": 76, "velocity": 41, "note_on_time": 82.579, "note_off_time": 83.141}, {"pitch": 76, "velocity": 77, "note_on_time": 83.639, "note_off_time": 84.179}, {"pitch": 74, "velocity": 65, "note_on_time": 84.031, "note_off_time": 84.22}, {"pitch": 72, "velocity": 65, "note_on_time": 84.451, "note_off_time": 84.633}, {"pitch": 77, "velocity": 63, "note_on_time": 85.322, "note_off_time": 85.483}, {"pitch": 79, "velocity": 63, "note_on_time": 85.752, "note_off_time": 85.92}, {"pitch": 76, "velocity": 76, "note_on_time": 86.763, "note_off_time": 86.973}, {"pitch": 74, "velocity": 74, "note_on_time": 87.099, "note_off_time": 87.333}, {"pitch": 72, "velocity": 64, "note_on_time": 87.468, "note_off_time": 87.652}, {"pitch": 77, "velocity": 76, "note_on_time": 88.067, "note_off_time": 88.233}, {"pitch": 79, "velocity": 58, "note_on_time": 88.378, "note_off_time": 88.579}, {"pitch": 76, "velocity": 76, "note_on_time": 89.502, "note_off_time": 89.985}, {"pitch": 74, "velocity": 59, "note_on_time": 89.97, "note_off_time": 90.301}, {"pitch": 72, "velocity": 60, "note_on_time": 90.375, "note_off_time": 90.594}, {"pitch": 77, "velocity": 72, "note_on_time": 91.008, "note_off_time": 91.163}, {"pitch": 79, "velocity": 62, "note_on_time": 91.354, "note_off_time": 91.604}, {"pitch": 76, "velocity": 72, "note_on_time": 92.706, "note_off_time": 93.059}, {"pitch": 74, "velocity": 72, "note_on_time": 93.063, "note_off_time": 93.303}, {"pitch": 72, "velocity": 62, "note_on_time": 93.408, "note_off_time": 93.652}, {"pitch": 77, "velocity": 66, "note_on_time": 94.159, "note_off_time": 94.35}, {"pitch": 79, "velocity": 77, "note_on_time": 94.468, "note_off_time": 94.69}, {"pitch": 76, "velocity": 72, "note_on_time": 95.946, "note_off_time": 96.186}, {"pitch": 74, "velocity": 74, "note_on_time": 96.292, "note_off_time": 96.5}, {"pitch": 72, "velocity": 64, "note_on_time": 96.683, "note_off_time": 96.945}, {"pitch": 77, "velocity": 73, "note_on_time": 97.307, "note_off_time": 97.512}, {"pitch": 79, "velocity": 64, "note_on_time": 97.605, "note_off_time": 97.832}, {"pitch": 77, "velocity": 76, "note_on_time": 100.764, "note_off_time": 100.964}, {"pitch": 79, "velocity": 77, "note_on_time": 101.166, "note_off_time": 101.422}, {"pitch": 76, "velocity": 70, "note_on_time": 101.693, "note_off_time": 101.914}, {"pitch": 74, "velocity": 76, "note_on_time": 102.043, "note_off_time": 102.231}, {"pitch": 72, "velocity": 72, "note_on_time": 102.431, "note_off_time": 102.627}, {"pitch": 77, "velocity": 69, "note_on_time": 103.152, "note_off_time": 103.332}, {"pitch": 79, "velocity": 71, "note_on_time": 103.451, "note_off_time": 103.671}, {"pitch": 76, "velocity": 65, "note_on_time": 103.96, "note_off_time": 104.166}, {"pitch": 74, "velocity": 70, "note_on_time": 104.276, "note_off_time": 104.43}, {"pitch": 72, "velocity": 67, "note_on_time": 104.607, "note_off_time": 104.816}, {"pitch": 77, "velocity": 67, "note_on_time": 107.747, "note_off_time": 107.97}, {"pitch": 79, "velocity": 77, "note_on_time": 108.159, "note_off_time": 108.374}, {"pitch": 76, "velocity": 76, "note_on_time": 108.686, "note_off_time": 108.934}, {"pitch": 74, "velocity": 60, "note_on_time": 109.055, "note_off_time": 109.389}, {"pitch": 72, "velocity": 82, "note_on_time": 109.356, "note_off_time": 109.487}, {"pitch": 77, "velocity": 72, "note_on_time": 112.469, "note_off_time": 112.649}, {"pitch": 79, "velocity": 67, "note_on_time": 112.765, "note_off_time": 112.957}, {"pitch": 76, "velocity": 71, "note_on_time": 113.226, "note_off_time": 113.428}, {"pitch": 74, "velocity": 76, "note_on_time": 113.533, "note_off_time": 113.68}, {"pitch": 74, "velocity": 69, "note_on_time": 113.903, "note_off_time": 114.119}, {"pitch": 72, "velocity": 67, "note_on_time": 113.901, "note_off_time": 114.354}, {"pitch": 76, "velocity": 69, "note_on_time": 116.526, "note_off_time": 116.796}, {"pitch": 77, "velocity": 49, "note_on_time": 116.881, "note_off_time": 117.033}, {"pitch": 79, "velocity": 68, "note_on_time": 117.176, "note_off_time": 117.411}, {"pitch": 74, "velocity": 77, "note_on_time": 117.806, "note_off_time": 118.06}, {"pitch": 72, "velocity": 75, "note_on_time": 118.076, "note_off_time": 118.197}, {"pitch": 74, "velocity": 70, "note_on_time": 120.136, "note_off_time": 120.397}, {"pitch": 72, "velocity": 67, "note_on_time": 120.484, "note_off_time": 120.703}, {"pitch": 76, "velocity": 70, "note_on_time": 121.031, "note_off_time": 121.249}, {"pitch": 77, "velocity": 70, "note_on_time": 121.418, "note_off_time": 121.585}, {"pitch": 79, "velocity": 66, "note_on_time": 121.81, "note_off_time": 122.024}, {"pitch": 74, "velocity": 60, "note_on_time": 123.284, "note_off_time": 123.542}, {"pitch": 72, "velocity": 81, "note_on_time": 123.514, "note_off_time": 123.682}, {"pitch": 76, "velocity": 65, "note_on_time": 124.492, "note_off_time": 124.969}, {"pitch": 77, "velocity": 67, "note_on_time": 124.841, "note_off_time": 125.038}, {"pitch": 79, "velocity": 65, "note_on_time": 125.118, "note_off_time": 125.33}, {"pitch": 74, "velocity": 74, "note_on_time": 126.7, "note_off_time": 126.965}, {"pitch": 72, "velocity": 73, "note_on_time": 126.98, "note_off_time": 127.161}, {"pitch": 76, "velocity": 77, "note_on_time": 127.939, "note_off_time": 128.253}, {"pitch": 77, "velocity": 59, "note_on_time": 128.258, "note_off_time": 128.593}, {"pitch": 79, "velocity": 70, "note_on_time": 128.553, "note_off_time": 128.814}, {"pitch": 74, "velocity": 71, "note_on_time": 129.732, "note_off_time": 130.132}, {"pitch": 72, "velocity": 72, "note_on_time": 130.099, "note_off_time": 130.248}, {"pitch": 76, "velocity": 65, "note_on_time": 131.219, "note_off_time": 131.571}, {"pitch": 77, "velocity": 65, "note_on_time": 131.546, "note_off_time": 131.727}, {"pitch": 79, "velocity": 56, "note_on_time": 131.836, "note_off_time": 132.08}, {"pitch": 74, "velocity": 67, "note_on_time": 133.178, "note_off_time": 133.546}, {"pitch": 72, "velocity": 74, "note_on_time": 133.521, "note_off_time": 133.673}, {"pitch": 74, "velocity": 67, "note_on_time": 136.023, "note_off_time": 136.363}, {"pitch": 72, "velocity": 72, "note_on_time": 136.325, "note_off_time": 136.509}, {"pitch": 76, "velocity": 77, "note_on_time": 137.342, "note_off_time": 137.623}, {"pitch": 77, "velocity": 74, "note_on_time": 137.588, "note_off_time": 137.835}, {"pitch": 79, "velocity": 67, "note_on_time": 137.871, "note_off_time": 138.091}, {"pitch": 72, "velocity": 58, "note_on_time": 141.066, "note_off_time": 141.286}, {"pitch": 74, "velocity": 61, "note_on_time": 141.523, "note_off_time": 141.811}, {"pitch": 76, "velocity": 53, "note_on_time": 141.867, "note_off_time": 142.091}, {"pitch": 77, "velocity": 58, "note_on_time": 142.233, "note_off_time": 142.461}, {"pitch": 79, "velocity": 68, "note_on_time": 142.593, "note_off_time": 142.802}, {"pitch": 72, "velocity": 60, "note_on_time": 143.591, "note_off_time": 143.862}, {"pitch": 74, "velocity": 60, "note_on_time": 144.01, "note_off_time": 144.231}, {"pitch": 76, "velocity": 62, "note_on_time": 144.404, "note_off_time": 144.599}, {"pitch": 77, "velocity": 66, "note_on_time": 144.863, "note_off_time": 145.066}, {"pitch": 79, "velocity": 38, "note_on_time": 145.291, "note_off_time": 145.551}, {"pitch": 72, "velocity": 72, "note_on_time": 146.353, "note_off_time": 146.532}, {"pitch": 74, "velocity": 54, "note_on_time": 146.769, "note_off_time": 146.995}, {"pitch": 76, "velocity": 55, "note_on_time": 147.107, "note_off_time": 147.341}, {"pitch": 77, "velocity": 62, "note_on_time": 147.542, "note_off_time": 147.756}, {"pitch": 79, "velocity": 71, "note_on_time": 147.886, "note_off_time": 148.083}, {"pitch": 72, "velocity": 53, "note_on_time": 148.641, "note_off_time": 148.889}, {"pitch": 74, "velocity": 55, "note_on_time": 149.047, "note_off_time": 149.378}, {"pitch": 76, "velocity": 60, "note_on_time": 149.388, "note_off_time": 149.716}, {"pitch": 77, "velocity": 53, "note_on_time": 149.748, "note_off_time": 150.078}, {"pitch": 79, "velocity": 59, "note_on_time": 150.12, "note_off_time": 150.33}, {"pitch": 72, "velocity": 58, "note_on_time": 151.476, "note_off_time": 151.761}, {"pitch": 74, "velocity": 60, "note_on_time": 151.837, "note_off_time": 152.204}, {"pitch": 76, "velocity": 62, "note_on_time": 152.176, "note_off_time": 152.612}, {"pitch": 77, "velocity": 62, "note_on_time": 152.541, "note_off_time": 152.777}, {"pitch": 79, "velocity": 56, "note_on_time": 152.903, "note_off_time": 153.084}, {"pitch": 79, "velocity": 62, "note_on_time": 154.811, "note_off_time": 155.399}, {"pitch": 77, "velocity": 66, "note_on_time": 155.288, "note_off_time": 155.622}, {"pitch": 76, "velocity": 66, "note_on_time": 155.617, "note_off_time": 155.913}, {"pitch": 74, "velocity": 51, "note_on_time": 156.056, "note_off_time": 156.543}, {"pitch": 72, "velocity": 63, "note_on_time": 156.407, "note_off_time": 156.554}, {"pitch": 79, "velocity": 41, "note_on_time": 157.223, "note_off_time": 157.663}, {"pitch": 77, "velocity": 56, "note_on_time": 157.556, "note_off_time": 157.823}, {"pitch": 76, "velocity": 64, "note_on_time": 157.895, "note_off_time": 158.239}, {"pitch": 74, "velocity": 60, "note_on_time": 158.297, "note_off_time": 158.699}, {"pitch": 72, "velocity": 69, "note_on_time": 158.631, "note_off_time": 158.795}, {"pitch": 79, "velocity": 58, "note_on_time": 159.249, "note_off_time": 159.751}, {"pitch": 77, "velocity": 69, "note_on_time": 159.638, "note_off_time": 160.071}, {"pitch": 76, "velocity": 71, "note_on_time": 159.964, "note_off_time": 160.424}, {"pitch": 74, "velocity": 56, "note_on_time": 160.36, "note_off_time": 160.824}, {"pitch": 72, "velocity": 70, "note_on_time": 160.69, "note_off_time": 160.843}, {"pitch": 79, "velocity": 58, "note_on_time": 161.485, "note_off_time": 162.022}, {"pitch": 77, "velocity": 62, "note_on_time": 161.888, "note_off_time": 162.296}, {"pitch": 76, "velocity": 38, "note_on_time": 162.322, "note_off_time": 162.799}, {"pitch": 74, "velocity": 60, "note_on_time": 162.748, "note_off_time": 163.205}, {"pitch": 72, "velocity": 61, "note_on_time": 163.161, "note_off_time": 163.336}, {"pitch": 74, "velocity": 65, "note_on_time": 165.546, "note_off_time": 166.14}, {"pitch": 76, "velocity": 55, "note_on_time": 166.0, "note_off_time": 166.692}, {"pitch": 77, "velocity": 60, "note_on_time": 166.665, "note_off_time": 167.316}, {"pitch": 79, "velocity": 56, "note_on_time": 167.157, "note_off_time": 167.689}, {"pitch": 72, "velocity": 57, "note_on_time": 167.684, "note_off_time": 167.857}, {"pitch": 74, "velocity": 55, "note_on_time": 168.543, "note_off_time": 169.416}, {"pitch": 76, "velocity": 54, "note_on_time": 168.985, "note_off_time": 169.664}, {"pitch": 77, "velocity": 52, "note_on_time": 169.334, "note_off_time": 169.821}, {"pitch": 79, "velocity": 66, "note_on_time": 169.725, "note_off_time": 170.057}, {"pitch": 72, "velocity": 52, "note_on_time": 170.306, "note_off_time": 170.511}, {"pitch": 74, "velocity": 58, "note_on_time": 171.347, "note_off_time": 172.075}, {"pitch": 76, "velocity": 47, "note_on_time": 171.766, "note_off_time": 172.193}, {"pitch": 77, "velocity": 55, "note_on_time": 172.1, "note_off_time": 172.362}, {"pitch": 74, "velocity": 35, "note_on_time": 172.393, "note_off_time": 172.52}, {"pitch": 79, "velocity": 61, "note_on_time": 172.454, "note_off_time": 173.242}, {"pitch": 72, "velocity": 40, "note_on_time": 173.142, "note_off_time": 173.328}, {"pitch": 74, "velocity": 63, "note_on_time": 174.096, "note_off_time": 174.644}, {"pitch": 76, "velocity": 62, "note_on_time": 174.474, "note_off_time": 174.864}, {"pitch": 77, "velocity": 61, "note_on_time": 174.784, "note_off_time": 175.063}, {"pitch": 79, "velocity": 65, "note_on_time": 175.084, "note_off_time": 175.712}, {"pitch": 72, "velocity": 64, "note_on_time": 175.606, "note_off_time": 175.745}, {"pitch": 76, "velocity": 63, "note_on_time": 178.406, "note_off_time": 178.755}, {"pitch": 74, "velocity": 48, "note_on_time": 178.049, "note_off_time": 178.798}, {"pitch": 77, "velocity": 59, "note_on_time": 178.683, "note_off_time": 179.046}, {"pitch": 79, "velocity": 69, "note_on_time": 178.977, "note_off_time": 179.659}, {"pitch": 72, "velocity": 65, "note_on_time": 179.598, "note_off_time": 179.731}, {"pitch": 77, "velocity": 67, "note_on_time": 182.497, "note_off_time": 183.075}, {"pitch": 76, "velocity": 64, "note_on_time": 182.903, "note_off_time": 183.279}, {"pitch": 74, "velocity": 59, "note_on_time": 183.272, "note_off_time": 183.728}, {"pitch": 72, "velocity": 70, "note_on_time": 183.628, "note_off_time": 183.94}, {"pitch": 72, "velocity": 24, "note_on_time": 184.188, "note_off_time": 184.324}, {"pitch": 79, "velocity": 51, "note_on_time": 184.082, "note_off_time": 184.339}, {"pitch": 77, "velocity": 64, "note_on_time": 185.424, "note_off_time": 185.875}, {"pitch": 76, "velocity": 64, "note_on_time": 185.759, "note_off_time": 186.2}, {"pitch": 74, "velocity": 57, "note_on_time": 186.13, "note_off_time": 186.585}, {"pitch": 72, "velocity": 73, "note_on_time": 186.489, "note_off_time": 186.711}, {"pitch": 79, "velocity": 56, "note_on_time": 186.961, "note_off_time": 187.231}, {"pitch": 77, "velocity": 58, "note_on_time": 188.136, "note_off_time": 188.575}, {"pitch": 76, "velocity": 61, "note_on_time": 188.499, "note_off_time": 188.873}, {"pitch": 74, "velocity": 70, "note_on_time": 188.813, "note_off_time": 189.247}, {"pitch": 72, "velocity": 71, "note_on_time": 189.2, "note_off_time": 189.753}, {"pitch": 79, "velocity": 70, "note_on_time": 189.678, "note_off_time": 189.818}, {"pitch": 77, "velocity": 63, "note_on_time": 190.737, "note_off_time": 191.232}, {"pitch": 76, "velocity": 52, "note_on_time": 191.142, "note_off_time": 191.521}, {"pitch": 74, "velocity": 70, "note_on_time": 191.483, "note_off_time": 191.961}, {"pitch": 72, "velocity": 66, "note_on_time": 191.924, "note_off_time": 192.355}, {"pitch": 79, "velocity": 67, "note_on_time": 192.416, "note_off_time": 192.566}, {"pitch": 77, "velocity": 63, "note_on_time": 193.577, "note_off_time": 194.567}]</notes><guidance name="Guidance Mode">None</guidance><error name="Error value">99</error></trial><trial trial_no="3" timestamp="2024_03_11-11_22_42"><notes name="Played Notes">[{"pitch": 72, "velocity": 56, "note_on_time": 1.018, "note_off_time": 1.336}, {"pitch": 74, "velocity": 48, "note_on_time": 1.515, "note_off_time": 1.917}, {"pitch": 76, "velocity": 63, "note_on_time": 1.884, "note_off_time": 2.158}, {"pitch": 77, "velocity": 53, "note_on_time": 2.239, "note_off_time": 2.964}, {"pitch": 79, "velocity": 56, "note_on_time": 2.988, "note_off_time": 3.237}, {"pitch": 74, "velocity": 33, "note_on_time": 4.664, "note_off_time": 5.047}, {"pitch": 76, "velocity": 61, "note_on_time": 4.992, "note_off_time": 5.445}, {"pitch": 77, "velocity": 67, "note_on_time": 5.36, "note_off_time": 5.776}, {"pitch": 79, "velocity": 73, "note_on_time": 5.713, "note_off_time": 5.977}, {"pitch": 72, "velocity": 23, "note_on_time": 7.363, "note_off_time": 7.757}, {"pitch": 74, "velocity": 70, "note_on_time": 7.733, "note_off_time": 8.17}, {"pitch": 76, "velocity": 61, "note_on_time": 8.07, "note_off_time": 8.521}, {"pitch": 77, "velocity": 68, "note_on_time": 8.418, "note_off_time": 8.858}, {"pitch": 79, "velocity": 62, "note_on_time": 8.793, "note_off_time": 9.002}, {"pitch": 72, "velocity": 54, "note_on_time": 9.9, "note_off_time": 10.435}, {"pitch": 74, "velocity": 66, "note_on_time": 10.366, "note_off_time": 10.938}, {"pitch": 76, "velocity": 61, "note_on_time": 10.853, "note_off_time": 11.389}, {"pitch": 77, "velocity": 61, "note_on_time": 11.266, "note_off_time": 11.743}, {"pitch": 79, "velocity": 54, "note_on_time": 11.683, "note_off_time": 11.898}, {"pitch": 72, "velocity": 65, "note_on_time": 13.907, "note_off_time": 14.137}, {"pitch": 74, "velocity": 58, "note_on_time": 14.28, "note_off_time": 14.658}, {"pitch": 76, "velocity": 63, "note_on_time": 14.594, "note_off_time": 14.991}, {"pitch": 77, "velocity": 61, "note_on_time": 14.938, "note_off_time": 15.254}, {"pitch": 79, "velocity": 59, "note_on_time": 15.278, "note_off_time": 15.462}, {"pitch": 79, "velocity": 49, "note_on_time": 17.95, "note_off_time": 18.992}, {"pitch": 77, "velocity": 53, "note_on_time": 18.502, "note_off_time": 19.084}, {"pitch": 76, "velocity": 63, "note_on_time": 18.9, "note_off_time": 19.323}, {"pitch": 74, "velocity": 61, "note_on_time": 19.343, "note_off_time": 19.694}, {"pitch": 72, "velocity": 70, "note_on_time": 19.654, "note_off_time": 19.831}, {"pitch": 79, "velocity": 50, "note_on_time": 20.319, "note_off_time": 20.813}, {"pitch": 77, "velocity": 73, "note_on_time": 20.688, "note_off_time": 21.125}, {"pitch": 76, "velocity": 74, "note_on_time": 21.037, "note_off_time": 21.427}, {"pitch": 74, "velocity": 64, "note_on_time": 21.407, "note_off_time": 21.783}, {"pitch": 72, "velocity": 73, "note_on_time": 21.711, "note_off_time": 21.873}, {"pitch": 79, "velocity": 52, "note_on_time": 22.263, "note_off_time": 22.814}, {"pitch": 77, "velocity": 69, "note_on_time": 22.693, "note_off_time": 23.148}, {"pitch": 76, "velocity": 54, "note_on_time": 23.091, "note_off_time": 23.466}, {"pitch": 74, "velocity": 65, "note_on_time": 23.433, "note_off_time": 23.847}, {"pitch": 72, "velocity": 68, "note_on_time": 23.826, "note_off_time": 24.054}, {"pitch": 79, "velocity": 60, "note_on_time": 24.434, "note_off_time": 24.985}, {"pitch": 77, "velocity": 72, "note_on_time": 24.837, "note_off_time": 25.305}, {"pitch": 76, "velocity": 69, "note_on_time": 25.194, "note_off_time": 25.543}, {"pitch": 74, "velocity": 62, "note_on_time": 25.563, "note_off_time": 25.951}, {"pitch": 72, "velocity": 71, "note_on_time": 25.885, "note_off_time": 26.035}, {"pitch": 79, "velocity": 66, "note_on_time": 26.522, "note_off_time": 27.063}, {"pitch": 77, "velocity": 64, "note_on_time": 26.931, "note_off_time": 27.373}, {"pitch": 76, "velocity": 51, "note_on_time": 27.325, "note_off_time": 27.724}, {"pitch": 74, "velocity": 64, "note_on_time": 27.688, "note_off_time": 28.094}, {"pitch": 72, "velocity": 73, "note_on_time": 28.077, "note_off_time": 28.252}, {"pitch": 74, "velocity": 72, "note_on_time": 31.577, "note_off_time": 32.123}, {"pitch": 76, "velocity": 56, "note_on_time": 31.905, "note_off_time": 32.52}, {"pitch": 77, "velocity": 64, "note_on_time": 32.288, "note_off_time": 32.775}, {"pitch": 79, "velocity": 69, "note_on_time": 32.695, "note_off_time": 34.875}, {"pitch": 72, "velocity": 59, "note_on_time": 34.837, "note_off_time": 34.987}, {"pitch": 74, "velocity": 60, "note_on_time": 35.558, "note_off_time": 36.031}, {"pitch": 76, "velocity": 63, "note_on_time": 35.885, "note_off_time": 36.478}, {"pitch": 77, "velocity": 62, "note_on_time": 36.271, "note_off_time": 36.732}, {"pitch": 79, "velocity": 70, "note_on_time": 36.655, "note_off_time": 37.403}, {"pitch": 72, "velocity": 65, "note_on_time": 37.323, "note_off_time": 37.53}, {"pitch": 74, "velocity": 49, "note_on_time": 38.305, "note_off_time": 39.122}, {"pitch": 76, "velocity": 64, "note_on_time": 38.636, "note_off_time": 39.222}, {"pitch": 77, "velocity": 57, "note_on_time": 38.989, "note_off_time": 39.375}, {"pitch": 79, "velocity": 66, "note_on_time": 39.27, "note_off_time": 40.142}, {"pitch": 72, "velocity": 39, "note_on_time": 40.008, "note_off_time": 40.189}, {"pitch": 74, "velocity": 55, "note_on_time": 40.83, "note_off_time": 41.35}, {"pitch": 76, "velocity": 63, "note_on_time": 41.202, "note_off_time": 41.858}, {"pitch": 77, "velocity": 56, "note_on_time": 41.608, "note_off_time": 42.028}, {"pitch": 79, "velocity": 63, "note_on_time": 41.917, "note_off_time": 42.689}, {"pitch": 72, "velocity": 60, "note_on_time": 42.622, "note_off_time": 42.824}, {"pitch": 76, "velocity": 56, "note_on_time": 45.009, "note_off_time": 45.525}, {"pitch": 77, "velocity": 61, "note_on_time": 45.378, "note_off_time": 45.755}, {"pitch": 74, "velocity": 39, "note_on_time": 44.661, "note_off_time": 45.773}, {"pitch": 79, "velocity": 67, "note_on_time": 45.686, "note_off_time": 46.384}, {"pitch": 72, "velocity": 58, "note_on_time": 46.328, "note_off_time": 46.535}, {"pitch": 77, "velocity": 51, "note_on_time": 51.281, "note_off_time": 51.772}, {"pitch": 76, "velocity": 58, "note_on_time": 51.618, "note_off_time": 52.088}, {"pitch": 74, "velocity": 64, "note_on_time": 52.037, "note_off_time": 52.39}, {"pitch": 72, "velocity": 73, "note_on_time": 52.339, "note_off_time": 52.738}, {"pitch": 79, "velocity": 60, "note_on_time": 52.731, "note_off_time": 52.926}, {"pitch": 72, "velocity": 19, "note_on_time": 52.908, "note_off_time": 52.989}, {"pitch": 77, "velocity": 66, "note_on_time": 53.577, "note_off_time": 54.06}, {"pitch": 76, "velocity": 64, "note_on_time": 53.846, "note_off_time": 54.496}, {"pitch": 74, "velocity": 56, "note_on_time": 54.4, "note_off_time": 54.771}, {"pitch": 72, "velocity": 72, "note_on_time": 54.713, "note_off_time": 55.099}, {"pitch": 79, "velocity": 51, "note_on_time": 55.176, "note_off_time": 55.386}, {"pitch": 72, "velocity": 51, "note_on_time": 55.303, "note_off_time": 55.45}, {"pitch": 77, "velocity": 41, "note_on_time": 56.532, "note_off_time": 57.135}, {"pitch": 76, "velocity": 70, "note_on_time": 56.918, "note_off_time": 57.327}, {"pitch": 74, "velocity": 63, "note_on_time": 57.298, "note_off_time": 57.711}, {"pitch": 72, "velocity": 71, "note_on_time": 57.635, "note_off_time": 57.828}, {"pitch": 79, "velocity": 51, "note_on_time": 58.081, "note_off_time": 58.286}, {"pitch": 77, "velocity": 61, "note_on_time": 58.722, "note_off_time": 59.282}, {"pitch": 76, "velocity": 65, "note_on_time": 59.101, "note_off_time": 59.442}, {"pitch": 74, "velocity": 63, "note_on_time": 59.447, "note_off_time": 59.83}, {"pitch": 72, "velocity": 69, "note_on_time": 59.78, "note_off_time": 59.984}, {"pitch": 79, "velocity": 57, "note_on_time": 60.223, "note_off_time": 60.448}, {"pitch": 77, "velocity": 58, "note_on_time": 60.87, "note_off_time": 61.352}, {"pitch": 76, "velocity": 54, "note_on_time": 61.251, "note_off_time": 61.551}, {"pitch": 74, "velocity": 68, "note_on_time": 61.553, "note_off_time": 61.873}, {"pitch": 72, "velocity": 62, "note_on_time": 61.922, "note_off_time": 62.206}, {"pitch": 77, "velocity": 49, "note_on_time": 62.423, "note_off_time": 62.645}, {"pitch": 79, "velocity": 49, "note_on_time": 62.415, "note_off_time": 63.056}, {"pitch": 76, "velocity": 45, "note_on_time": 64.368, "note_off_time": 64.592}, {"pitch": 77, "velocity": 59, "note_on_time": 63.881, "note_off_time": 64.809}, {"pitch": 74, "velocity": 36, "note_on_time": 64.645, "note_off_time": 65.26}, {"pitch": 72, "velocity": 53, "note_on_time": 65.112, "note_off_time": 65.459}, {"pitch": 79, "velocity": 54, "note_on_time": 65.732, "note_off_time": 66.011}, {"pitch": 76, "velocity": 50, "note_on_time": 70.204, "note_off_time": 70.722}, {"pitch": 77, "velocity": 67, "note_on_time": 70.566, "note_off_time": 70.973}, {"pitch": 79, "velocity": 73, "note_on_time": 70.903, "note_off_time": 71.483}, {"pitch": 74, "velocity": 49, "note_on_time": 71.435, "note_off_time": 71.831}, {"pitch": 72, "velocity": 68, "note_on_time": 71.764, "note_off_time": 71.976}, {"pitch": 76, "velocity": 49, "note_on_time": 72.943, "note_off_time": 73.547}, {"pitch": 77, "velocity": 70, "note_on_time": 73.277, "note_off_time": 73.574}, {"pitch": 79, "velocity": 75, "note_on_time": 73.546, "note_off_time": 74.085}, {"pitch": 74, "velocity": 58, "note_on_time": 74.035, "note_off_time": 74.408}, {"pitch": 72, "velocity": 79, "note_on_time": 74.364, "note_off_time": 74.504}, {"pitch": 77, "velocity": 61, "note_on_time": 75.617, "note_off_time": 75.897}, {"pitch": 76, "velocity": 36, "note_on_time": 75.23, "note_off_time": 75.915}, {"pitch": 79, "velocity": 73, "note_on_time": 75.871, "note_off_time": 76.473}, {"pitch": 74, "velocity": 52, "note_on_time": 76.465, "note_off_time": 76.758}, {"pitch": 72, "velocity": 78, "note_on_time": 76.732, "note_off_time": 76.866}, {"pitch": 77, "velocity": 58, "note_on_time": 78.328, "note_off_time": 78.666}, {"pitch": 76, "velocity": 53, "note_on_time": 77.933, "note_off_time": 78.716}, {"pitch": 79, "velocity": 65, "note_on_time": 78.644, "note_off_time": 78.984}, {"pitch": 74, "velocity": 49, "note_on_time": 79.214, "note_off_time": 79.558}, {"pitch": 72, "velocity": 69, "note_on_time": 79.502, "note_off_time": 79.662}, {"pitch": 76, "velocity": 70, "note_on_time": 81.56, "note_off_time": 81.989}, {"pitch": 74, "velocity": 69, "note_on_time": 81.909, "note_off_time": 82.416}, {"pitch": 72, "velocity": 63, "note_on_time": 82.335, "note_off_time": 82.988}, {"pitch": 77, "velocity": 63, "note_on_time": 83.015, "note_off_time": 83.231}, {"pitch": 79, "velocity": 65, "note_on_time": 83.306, "note_off_time": 83.579}, {"pitch": 74, "velocity": 56, "note_on_time": 84.64, "note_off_time": 85.111}, {"pitch": 76, "velocity": 62, "note_on_time": 84.282, "note_off_time": 85.169}, {"pitch": 72, "velocity": 66, "note_on_time": 85.078, "note_off_time": 85.885}, {"pitch": 77, "velocity": 50, "note_on_time": 85.749, "note_off_time": 85.966}, {"pitch": 79, "velocity": 64, "note_on_time": 86.216, "note_off_time": 86.417}, {"pitch": 76, "velocity": 64, "note_on_time": 87.546, "note_off_time": 87.953}, {"pitch": 74, "velocity": 66, "note_on_time": 87.847, "note_off_time": 88.227}, {"pitch": 72, "velocity": 71, "note_on_time": 88.23, "note_off_time": 88.803}, {"pitch": 77, "velocity": 69, "note_on_time": 88.944, "note_off_time": 89.306}, {"pitch": 79, "velocity": 69, "note_on_time": 89.235, "note_off_time": 89.45}, {"pitch": 74, "velocity": 69, "note_on_time": 90.387, "note_off_time": 90.813}, {"pitch": 76, "velocity": 42, "note_on_time": 90.109, "note_off_time": 90.822}, {"pitch": 72, "velocity": 63, "note_on_time": 90.762, "note_off_time": 91.407}, {"pitch": 77, "velocity": 65, "note_on_time": 91.282, "note_off_time": 91.516}, {"pitch": 79, "velocity": 70, "note_on_time": 91.564, "note_off_time": 91.746}, {"pitch": 77, "velocity": 65, "note_on_time": 94.856, "note_off_time": 95.335}, {"pitch": 79, "velocity": 61, "note_on_time": 95.24, "note_off_time": 96.101}, {"pitch": 76, "velocity": 31, "note_on_time": 96.433, "note_off_time": 96.803}, {"pitch": 74, "velocity": 68, "note_on_time": 96.742, "note_off_time": 97.202}, {"pitch": 72, "velocity": 74, "note_on_time": 97.192, "note_off_time": 97.646}, {"pitch": 77, "velocity": 57, "note_on_time": 98.505, "note_off_time": 99.107}, {"pitch": 79, "velocity": 62, "note_on_time": 98.974, "note_off_time": 99.714}, {"pitch": 76, "velocity": 55, "note_on_time": 99.686, "note_off_time": 100.039}, {"pitch": 74, "velocity": 59, "note_on_time": 99.973, "note_off_time": 100.387}, {"pitch": 72, "velocity": 74, "note_on_time": 100.376, "note_off_time": 100.713}, {"pitch": 77, "velocity": 59, "note_on_time": 101.562, "note_off_time": 102.18}, {"pitch": 79, "velocity": 50, "note_on_time": 102.067, "note_off_time": 102.87}, {"pitch": 76, "velocity": 30, "note_on_time": 102.811, "note_off_time": 103.169}, {"pitch": 74, "velocity": 63, "note_on_time": 103.11, "note_off_time": 103.618}, {"pitch": 72, "velocity": 68, "note_on_time": 103.568, "note_off_time": 103.769}, {"pitch": 77, "velocity": 45, "note_on_time": 105.181, "note_off_time": 105.6}, {"pitch": 79, "velocity": 69, "note_on_time": 105.518, "note_off_time": 105.976}, {"pitch": 76, "velocity": 57, "note_on_time": 105.975, "note_off_time": 106.361}, {"pitch": 74, "velocity": 62, "note_on_time": 106.3, "note_off_time": 106.747}, {"pitch": 72, "velocity": 69, "note_on_time": 106.708, "note_off_time": 106.919}, {"pitch": 77, "velocity": 58, "note_on_time": 108.796, "note_off_time": 109.103}, {"pitch": 79, "velocity": 73, "note_on_time": 109.06, "note_off_time": 109.405}, {"pitch": 76, "velocity": 57, "note_on_time": 109.524, "note_off_time": 109.836}, {"pitch": 74, "velocity": 72, "note_on_time": 109.786, "note_off_time": 110.181}, {"pitch": 72, "velocity": 68, "note_on_time": 110.168, "note_off_time": 110.352}, {"pitch": 74, "velocity": 68, "note_on_time": 112.615, "note_off_time": 113.049}, {"pitch": 72, "velocity": 70, "note_on_time": 112.957, "note_off_time": 113.193}, {"pitch": 74, "velocity": 39, "note_on_time": 114.26, "note_off_time": 114.701}, {"pitch": 72, "velocity": 66, "note_on_time": 114.561, "note_off_time": 114.766}, {"pitch": 76, "velocity": 59, "note_on_time": 115.12, "note_off_time": 115.573}, {"pitch": 77, "velocity": 70, "note_on_time": 115.467, "note_off_time": 115.815}, {"pitch": 79, "velocity": 77, "note_on_time": 115.776, "note_off_time": 115.957}, {"pitch": 74, "velocity": 68, "note_on_time": 117.217, "note_off_time": 117.539}, {"pitch": 72, "velocity": 77, "note_on_time": 117.468, "note_off_time": 117.669}, {"pitch": 76, "velocity": 63, "note_on_time": 118.222, "note_off_time": 118.601}, {"pitch": 77, "velocity": 73, "note_on_time": 118.496, "note_off_time": 118.833}, {"pitch": 79, "velocity": 62, "note_on_time": 118.788, "note_off_time": 119.04}, {"pitch": 74, "velocity": 67, "note_on_time": 119.858, "note_off_time": 120.251}, {"pitch": 72, "velocity": 78, "note_on_time": 120.184, "note_off_time": 120.406}, {"pitch": 76, "velocity": 54, "note_on_time": 120.719, "note_off_time": 121.161}, {"pitch": 77, "velocity": 62, "note_on_time": 121.058, "note_off_time": 121.456}, {"pitch": 79, "velocity": 61, "note_on_time": 121.402, "note_off_time": 121.622}, {"pitch": 74, "velocity": 66, "note_on_time": 122.851, "note_off_time": 123.217}, {"pitch": 72, "velocity": 78, "note_on_time": 123.169, "note_off_time": 123.366}, {"pitch": 76, "velocity": 54, "note_on_time": 124.006, "note_off_time": 124.499}, {"pitch": 77, "velocity": 63, "note_on_time": 124.32, "note_off_time": 124.853}, {"pitch": 79, "velocity": 69, "note_on_time": 124.649, "note_off_time": 124.932}, {"pitch": 74, "velocity": 56, "note_on_time": 126.191, "note_off_time": 126.541}, {"pitch": 72, "velocity": 76, "note_on_time": 126.475, "note_off_time": 126.689}, {"pitch": 76, "velocity": 55, "note_on_time": 126.952, "note_off_time": 127.424}, {"pitch": 77, "velocity": 63, "note_on_time": 127.301, "note_off_time": 127.771}, {"pitch": 79, "velocity": 54, "note_on_time": 127.664, "note_off_time": 127.868}, {"pitch": 72, "velocity": 36, "note_on_time": 129.342, "note_off_time": 130.099}, {"pitch": 74, "velocity": 62, "note_on_time": 129.96, "note_off_time": 130.796}, {"pitch": 76, "velocity": 58, "note_on_time": 130.555, "note_off_time": 131.241}, {"pitch": 77, "velocity": 60, "note_on_time": 131.038, "note_off_time": 131.662}, {"pitch": 79, "velocity": 66, "note_on_time": 131.518, "note_off_time": 131.786}, {"pitch": 72, "velocity": 52, "note_on_time": 133.35, "note_off_time": 133.981}, {"pitch": 74, "velocity": 60, "note_on_time": 133.935, "note_off_time": 134.535}, {"pitch": 76, "velocity": 58, "note_on_time": 134.438, "note_off_time": 135.374}, {"pitch": 77, "velocity": 53, "note_on_time": 134.85, "note_off_time": 135.554}, {"pitch": 79, "velocity": 52, "note_on_time": 135.3, "note_off_time": 135.592}, {"pitch": 72, "velocity": 52, "note_on_time": 136.593, "note_off_time": 137.16}, {"pitch": 74, "velocity": 60, "note_on_time": 137.087, "note_off_time": 137.657}, {"pitch": 76, "velocity": 51, "note_on_time": 137.511, "note_off_time": 137.979}, {"pitch": 77, "velocity": 62, "note_on_time": 137.876, "note_off_time": 138.442}, {"pitch": 79, "velocity": 51, "note_on_time": 138.264, "note_off_time": 138.605}, {"pitch": 72, "velocity": 34, "note_on_time": 139.989, "note_off_time": 140.562}, {"pitch": 74, "velocity": 49, "note_on_time": 140.504, "note_off_time": 141.156}, {"pitch": 76, "velocity": 50, "note_on_time": 140.97, "note_off_time": 141.464}, {"pitch": 77, "velocity": 59, "note_on_time": 141.345, "note_off_time": 141.891}, {"pitch": 79, "velocity": 49, "note_on_time": 141.747, "note_off_time": 142.269}, {"pitch": 72, "velocity": 46, "note_on_time": 143.195, "note_off_time": 143.961}, {"pitch": 74, "velocity": 52, "note_on_time": 143.877, "note_off_time": 144.314}, {"pitch": 76, "velocity": 54, "note_on_time": 144.265, "note_off_time": 144.82}, {"pitch": 77, "velocity": 59, "note_on_time": 144.682, "note_off_time": 145.286}, {"pitch": 79, "velocity": 48, "note_on_time": 145.085, "note_off_time": 145.372}, {"pitch": 79, "velocity": 45, "note_on_time": 146.949, "note_off_time": 147.769}, {"pitch": 77, "velocity": 65, "note_on_time": 147.342, "note_off_time": 147.835}, {"pitch": 76, "velocity": 64, "note_on_time": 147.69, "note_off_time": 148.121}, {"pitch": 74, "velocity": 63, "note_on_time": 148.105, "note_off_time": 148.552}, {"pitch": 72, "velocity": 67, "note_on_time": 148.462, "note_off_time": 148.735}, {"pitch": 79, "velocity": 62, "note_on_time": 149.141, "note_off_time": 149.625}, {"pitch": 77, "velocity": 66, "note_on_time": 149.481, "note_off_time": 149.914}, {"pitch": 76, "velocity": 69, "note_on_time": 149.806, "note_off_time": 150.175}, {"pitch": 72, "velocity": 61, "note_on_time": 150.518, "note_off_time": 150.669}, {"pitch": 74, "velocity": 62, "note_on_time": 150.195, "note_off_time": 150.685}, {"pitch": 79, "velocity": 56, "note_on_time": 151.072, "note_off_time": 151.524}, {"pitch": 77, "velocity": 62, "note_on_time": 151.417, "note_off_time": 151.904}, {"pitch": 76, "velocity": 52, "note_on_time": 151.84, "note_off_time": 152.152}, {"pitch": 74, "velocity": 65, "note_on_time": 152.137, "note_off_time": 152.57}, {"pitch": 72, "velocity": 57, "note_on_time": 152.547, "note_off_time": 152.73}, {"pitch": 79, "velocity": 43, "note_on_time": 153.07, "note_off_time": 153.533}, {"pitch": 77, "velocity": 45, "note_on_time": 153.433, "note_off_time": 153.916}, {"pitch": 76, "velocity": 46, "note_on_time": 153.846, "note_off_time": 154.3}, {"pitch": 74, "velocity": 58, "note_on_time": 154.218, "note_off_time": 154.685}, {"pitch": 72, "velocity": 70, "note_on_time": 154.66, "note_off_time": 154.871}, {"pitch": 79, "velocity": 51, "note_on_time": 155.202, "note_off_time": 155.61}, {"pitch": 77, "velocity": 58, "note_on_time": 155.505, "note_off_time": 156.019}, {"pitch": 76, "velocity": 55, "note_on_time": 155.927, "note_off_time": 156.311}, {"pitch": 74, "velocity": 59, "note_on_time": 156.259, "note_off_time": 156.689}, {"pitch": 72, "velocity": 74, "note_on_time": 156.671, "note_off_time": 156.86}, {"pitch": 74, "velocity": 57, "note_on_time": 158.413, "note_off_time": 159.374}, {"pitch": 76, "velocity": 58, "note_on_time": 159.007, "note_off_time": 160.211}, {"pitch": 79, "velocity": 52, "note_on_time": 160.147, "note_off_time": 160.528}, {"pitch": 77, "velocity": 62, "note_on_time": 159.536, "note_off_time": 160.687}, {"pitch": 72, "velocity": 55, "note_on_time": 160.738, "note_off_time": 161.141}, {"pitch": 74, "velocity": 54, "note_on_time": 161.921, "note_off_time": 162.853}, {"pitch": 76, "velocity": 48, "note_on_time": 162.357, "note_off_time": 163.106}, {"pitch": 77, "velocity": 51, "note_on_time": 162.74, "note_off_time": 163.28}, {"pitch": 79, "velocity": 58, "note_on_time": 163.126, "note_off_time": 163.778}, {"pitch": 72, "velocity": 49, "note_on_time": 163.704, "note_off_time": 163.938}, {"pitch": 74, "velocity": 54, "note_on_time": 164.815, "note_off_time": 165.365}, {"pitch": 76, "velocity": 58, "note_on_time": 165.206, "note_off_time": 165.808}, {"pitch": 77, "velocity": 53, "note_on_time": 165.595, "note_off_time": 166.084}, {"pitch": 79, "velocity": 62, "note_on_time": 165.935, "note_off_time": 166.622}, {"pitch": 72, "velocity": 55, "note_on_time": 166.477, "note_off_time": 166.784}, {"pitch": 74, "velocity": 44, "note_on_time": 168.343, "note_off_time": 168.727}, {"pitch": 76, "velocity": 52, "note_on_time": 168.676, "note_off_time": 169.292}, {"pitch": 77, "velocity": 55, "note_on_time": 169.053, "note_off_time": 169.499}, {"pitch": 79, "velocity": 63, "note_on_time": 169.379, "note_off_time": 170.008}, {"pitch": 72, "velocity": 49, "note_on_time": 169.901, "note_off_time": 170.157}, {"pitch": 74, "velocity": 45, "note_on_time": 170.94, "note_off_time": 171.681}, {"pitch": 76, "velocity": 52, "note_on_time": 171.348, "note_off_time": 171.744}, {"pitch": 77, "velocity": 62, "note_on_time": 171.663, "note_off_time": 172.087}, {"pitch": 79, "velocity": 65, "note_on_time": 172.017, "note_off_time": 172.707}, {"pitch": 72, "velocity": 55, "note_on_time": 172.61, "note_off_time": 172.892}, {"pitch": 77, "velocity": 56, "note_on_time": 175.291, "note_off_time": 176.192}, {"pitch": 74, "velocity": 60, "note_on_time": 176.014, "note_off_time": 176.452}, {"pitch": 76, "velocity": 59, "note_on_time": 175.597, "note_off_time": 176.485}, {"pitch": 79, "velocity": 59, "note_on_time": 176.796, "note_off_time": 176.979}, {"pitch": 72, "velocity": 58, "note_on_time": 176.388, "note_off_time": 176.996}, {"pitch": 77, "velocity": 69, "note_on_time": 177.377, "note_off_time": 177.888}, {"pitch": 76, "velocity": 69, "note_on_time": 177.72, "note_off_time": 178.192}, {"pitch": 74, "velocity": 66, "note_on_time": 178.106, "note_off_time": 178.619}, {"pitch": 72, "velocity": 73, "note_on_time": 178.481, "note_off_time": 178.923}, {"pitch": 77, "velocity": 41, "note_on_time": 178.89, "note_off_time": 179.15}, {"pitch": 76, "velocity": 42, "note_on_time": 181.238, "note_off_time": 181.667}, {"pitch": 77, "velocity": 38, "note_on_time": 182.001, "note_off_time": 183.237}, {"pitch": 76, "velocity": 60, "note_on_time": 183.817, "note_off_time": 184.159}, {"pitch": 77, "velocity": 64, "note_on_time": 183.505, "note_off_time": 184.268}, {"pitch": 74, "velocity": 58, "note_on_time": 184.179, "note_off_time": 184.489}, {"pitch": 72, "velocity": 72, "note_on_time": 184.453, "note_off_time": 185.618}, {"pitch": 79, "velocity": 34, "note_on_time": 185.418, "note_off_time": 185.681}, {"pitch": 77, "velocity": 57, "note_on_time": 186.332, "note_off_time": 186.743}, {"pitch": 76, "velocity": 68, "note_on_time": 186.631, "note_off_time": 187.013}, {"pitch": 74, "velocity": 62, "note_on_time": 186.986, "note_off_time": 187.382}, {"pitch": 72, "velocity": 70, "note_on_time": 187.29, "note_off_time": 187.953}, {"pitch": 79, "velocity": 55, "note_on_time": 187.799, "note_off_time": 188.065}, {"pitch": 77, "velocity": 64, "note_on_time": 188.789, "note_off_time": 189.183}, {"pitch": 76, "velocity": 66, "note_on_time": 189.116, "note_off_time": 189.545}, {"pitch": 74, "velocity": 62, "note_on_time": 189.507, "note_off_time": 189.836}, {"pitch": 72, "velocity": 78, "note_on_time": 189.785, "note_off_time": 189.947}, {"pitch": 79, "velocity": 58, "note_on_time": 190.195, "note_off_time": 190.599}, {"pitch": 76, "velocity": 67, "note_on_time": 193.487, "note_off_time": 193.888}, {"pitch": 79, "velocity": 60, "note_on_time": 194.13, "note_off_time": 194.431}, {"pitch": 77, "velocity": 58, "note_on_time": 193.801, "note_off_time": 194.436}]</notes><guidance name="Guidance Mode">None</guidance><error name="Error value">99</error></trial></trials></MIDI>