<MIDI midiNo="2023_05_14-13_16_07"><target_notes><notes name="Note List">[{"pitch": 39, "velocity": 100, "note_on_time": 0.005, "note_off_time": 0.713}, {"pitch": 42, "velocity": 100, "note_on_time": 0.713, "note_off_time": 1.431}, {"pitch": 42, "velocity": 100, "note_on_time": 1.431, "note_off_time": 2.147}, {"pitch": 42, "velocity": 100, "note_on_time": 2.147, "note_off_time": 2.861}, {"pitch": 39, "velocity": 100, "note_on_time": 2.861, "note_off_time": 3.58}, {"pitch": 60, "velocity": 100, "note_on_time": 2.861, "note_off_time": 4.296}, {"pitch": 42, "velocity": 100, "note_on_time": 3.58, "note_off_time": 4.296}, {"pitch": 42, "velocity": 100, "note_on_time": 4.296, "note_off_time": 5.012}, {"pitch": 67, "velocity": 100, "note_on_time": 4.296, "note_off_time": 5.727}, {"pitch": 42, "velocity": 100, "note_on_time": 5.013, "note_off_time": 5.727}, {"pitch": 64, "velocity": 100, "note_on_time": 5.727, "note_off_time": 6.449}, {"pitch": 39, "velocity": 100, "note_on_time": 5.727, "note_off_time": 6.449}, {"pitch": 42, "velocity": 100, "note_on_time": 6.449, "note_off_time": 7.165}, {"pitch": 67, "velocity": 100, "note_on_time": 6.449, "note_off_time": 7.878}, {"pitch": 42, "velocity": 100, "note_on_time": 7.165, "note_off_time": 7.878}, {"pitch": 60, "velocity": 100, "note_on_time": 7.878, "note_off_time": 8.593}, {"pitch": 42, "velocity": 100, "note_on_time": 7.879, "note_off_time": 8.593}, {"pitch": 39, "velocity": 100, "note_on_time": 8.593, "note_off_time": 9.311}, {"pitch": 67, "velocity": 100, "note_on_time": 8.593, "note_off_time": 10.027}, {"pitch": 42, "velocity": 100, "note_on_time": 9.311, "note_off_time": 10.027}, {"pitch": 42, "velocity": 100, "note_on_time": 10.028, "note_off_time": 10.747}, {"pitch": 60, "velocity": 100, "note_on_time": 10.027, "note_off_time": 11.463}, {"pitch": 42, "velocity": 100, "note_on_time": 10.747, "note_off_time": 11.463}, {"pitch": 39, "velocity": 100, "note_on_time": 11.463, "note_off_time": 12.181}, {"pitch": 42, "velocity": 100, "note_on_time": 12.181, "note_off_time": 12.894}, {"pitch": 42, "velocity": 100, "note_on_time": 12.895, "note_off_time": 13.609}, {"pitch": 64, "velocity": 100, "note_on_time": 11.463, "note_off_time": 14.325}, {"pitch": 42, "velocity": 100, "note_on_time": 13.609, "note_off_time": 14.326}, {"pitch": 67, "velocity": 100, "note_on_time": 14.325, "note_off_time": 15.037}, {"pitch": 39, "velocity": 100, "note_on_time": 14.326, "note_off_time": 15.037}, {"pitch": 64, "velocity": 100, "note_on_time": 15.037, "note_off_time": 15.753}, {"pitch": 42, "velocity": 100, "note_on_time": 15.038, "note_off_time": 15.753}, {"pitch": 67, "velocity": 100, "note_on_time": 15.753, "note_off_time": 16.468}, {"pitch": 42, "velocity": 100, "note_on_time": 15.753, "note_off_time": 16.468}, {"pitch": 60, "velocity": 100, "note_on_time": 16.468, "note_off_time": 17.181}, {"pitch": 42, "velocity": 100, "note_on_time": 16.469, "note_off_time": 17.181}, {"pitch": 39, "velocity": 100, "note_on_time": 17.181, "note_off_time": 17.896}, {"pitch": 64, "velocity": 100, "note_on_time": 17.181, "note_off_time": 18.611}, {"pitch": 42, "velocity": 100, "note_on_time": 17.896, "note_off_time": 18.611}, {"pitch": 67, "velocity": 100, "note_on_time": 18.611, "note_off_time": 19.327}, {"pitch": 42, "velocity": 100, "note_on_time": 18.611, "note_off_time": 19.327}, {"pitch": 60, "velocity": 100, "note_on_time": 19.327, "note_off_time": 20.043}, {"pitch": 42, "velocity": 100, "note_on_time": 19.327, "note_off_time": 20.043}, {"pitch": 64, "velocity": 100, "note_on_time": 20.043, "note_off_time": 20.761}, {"pitch": 39, "velocity": 100, "note_on_time": 20.043, "note_off_time": 20.762}, {"pitch": 42, "velocity": 100, "note_on_time": 20.762, "note_off_time": 21.475}, {"pitch": 67, "velocity": 100, "note_on_time": 20.761, "note_off_time": 22.192}, {"pitch": 42, "velocity": 100, "note_on_time": 21.475, "note_off_time": 22.192}, {"pitch": 64, "velocity": 100, "note_on_time": 22.192, "note_off_time": 22.909}, {"pitch": 42, "velocity": 100, "note_on_time": 22.193, "note_off_time": 22.909}, {"pitch": 39, "velocity": 100, "note_on_time": 22.909, "note_off_time": 23.626}, {"pitch": 42, "velocity": 100, "note_on_time": 23.626, "note_off_time": 24.342}, {"pitch": 42, "velocity": 100, "note_on_time": 24.343, "note_off_time": 25.059}, {"pitch": 60, "velocity": 100, "note_on_time": 22.909, "note_off_time": 25.773}, {"pitch": 42, "velocity": 100, "note_on_time": 25.059, "note_off_time": 25.773}]</notes><options name="Option List">((4, 4), [0.5, 0.25], 3, 7, &lt;NoteRangePerHand.TWO_NOTES: 3&gt;, &lt;NoteRangePerHand.ONE_NOTE: 2&gt;, False, True, True, None)</options></target_notes><trials><trial trial_no="1" timestamp="2023_05_14-13_16_07"><notes name="Played Notes">[{"pitch": 60, "velocity": 70, "note_on_time": 2.826, "note_off_time": 4.061}, {"pitch": 67, "velocity": 77, "note_on_time": 4.234, "note_off_time": 5.294}, {"pitch": 64, "velocity": 76, "note_on_time": 5.738, "note_off_time": 6.387}, {"pitch": 67, "velocity": 77, "note_on_time": 6.485, "note_off_time": 7.831}, {"pitch": 60, "velocity": 74, "note_on_time": 7.872, "note_off_time": 8.584}, {"pitch": 67, "velocity": 73, "note_on_time": 8.581, "note_off_time": 9.54}, {"pitch": 60, "velocity": 46, "note_on_time": 9.936, "note_off_time": 10.667}, {"pitch": 64, "velocity": 73, "note_on_time": 10.735, "note_off_time": 13.36}, {"pitch": 67, "velocity": 66, "note_on_time": 13.6, "note_off_time": 14.29}, {"pitch": 64, "velocity": 66, "note_on_time": 14.329, "note_off_time": 15.016}, {"pitch": 67, "velocity": 72, "note_on_time": 15.027, "note_off_time": 15.754}, {"pitch": 60, "velocity": 73, "note_on_time": 15.76, "note_off_time": 16.455}, {"pitch": 64, "velocity": 72, "note_on_time": 16.472, "note_off_time": 17.809}, {"pitch": 67, "velocity": 71, "note_on_time": 17.843, "note_off_time": 18.579}, {"pitch": 60, "velocity": 70, "note_on_time": 18.594, "note_off_time": 19.253}, {"pitch": 64, "velocity": 72, "note_on_time": 19.302, "note_off_time": 19.995}, {"pitch": 67, "velocity": 69, "note_on_time": 20.005, "note_off_time": 21.398}, {"pitch": 64, "velocity": 68, "note_on_time": 21.446, "note_off_time": 22.224}, {"pitch": 60, "velocity": 76, "note_on_time": 22.213, "note_off_time": 24.777}]</notes><guidance name="Guidance Mode">None</guidance><error name="Error value">0.1233040421052638</error></trial></trials></MIDI>