<MIDI midiNo="2023_05_14-12_45_49"><target_notes><notes name="Note List">[{"pitch": 39, "velocity": 100, "note_on_time": 0.008, "note_off_time": 0.729}, {"pitch": 42, "velocity": 100, "note_on_time": 0.73, "note_off_time": 1.447}, {"pitch": 42, "velocity": 100, "note_on_time": 1.447, "note_off_time": 2.163}, {"pitch": 39, "velocity": 100, "note_on_time": 2.163, "note_off_time": 2.881}, {"pitch": 42, "velocity": 100, "note_on_time": 2.881, "note_off_time": 3.597}, {"pitch": 67, "velocity": 100, "note_on_time": 3.597, "note_off_time": 4.314}, {"pitch": 42, "velocity": 100, "note_on_time": 3.597, "note_off_time": 4.314}, {"pitch": 72, "velocity": 100, "note_on_time": 4.314, "note_off_time": 5.03}, {"pitch": 39, "velocity": 100, "note_on_time": 4.314, "note_off_time": 5.03}, {"pitch": 72, "velocity": 100, "note_on_time": 5.03, "note_off_time": 5.745}, {"pitch": 42, "velocity": 100, "note_on_time": 5.031, "note_off_time": 5.745}, {"pitch": 74, "velocity": 100, "note_on_time": 5.745, "note_off_time": 6.462}, {"pitch": 42, "velocity": 100, "note_on_time": 5.745, "note_off_time": 6.462}, {"pitch": 39, "velocity": 100, "note_on_time": 6.463, "note_off_time": 7.18}, {"pitch": 76, "velocity": 100, "note_on_time": 6.462, "note_off_time": 7.897}, {"pitch": 42, "velocity": 100, "note_on_time": 7.18, "note_off_time": 7.897}, {"pitch": 67, "velocity": 100, "note_on_time": 7.897, "note_off_time": 8.614}, {"pitch": 42, "velocity": 100, "note_on_time": 7.897, "note_off_time": 8.614}, {"pitch": 39, "velocity": 100, "note_on_time": 8.614, "note_off_time": 9.328}, {"pitch": 72, "velocity": 100, "note_on_time": 8.614, "note_off_time": 10.044}, {"pitch": 42, "velocity": 100, "note_on_time": 9.328, "note_off_time": 10.044}, {"pitch": 76, "velocity": 100, "note_on_time": 10.044, "note_off_time": 10.758}, {"pitch": 42, "velocity": 100, "note_on_time": 10.044, "note_off_time": 10.758}, {"pitch": 39, "velocity": 100, "note_on_time": 10.758, "note_off_time": 11.476}, {"pitch": 74, "velocity": 100, "note_on_time": 10.758, "note_off_time": 12.192}, {"pitch": 42, "velocity": 100, "note_on_time": 11.476, "note_off_time": 12.192}, {"pitch": 67, "velocity": 100, "note_on_time": 12.192, "note_off_time": 12.909}, {"pitch": 42, "velocity": 100, "note_on_time": 12.192, "note_off_time": 12.91}, {"pitch": 39, "velocity": 100, "note_on_time": 12.91, "note_off_time": 13.626}, {"pitch": 74, "velocity": 100, "note_on_time": 12.909, "note_off_time": 14.342}, {"pitch": 42, "velocity": 100, "note_on_time": 13.626, "note_off_time": 14.342}, {"pitch": 76, "velocity": 100, "note_on_time": 14.342, "note_off_time": 15.056}, {"pitch": 42, "velocity": 100, "note_on_time": 14.342, "note_off_time": 15.056}, {"pitch": 77, "velocity": 100, "note_on_time": 15.056, "note_off_time": 15.77}, {"pitch": 39, "velocity": 100, "note_on_time": 15.057, "note_off_time": 15.77}, {"pitch": 74, "velocity": 100, "note_on_time": 15.77, "note_off_time": 16.484}, {"pitch": 42, "velocity": 100, "note_on_time": 15.77, "note_off_time": 16.485}, {"pitch": 71, "velocity": 100, "note_on_time": 16.484, "note_off_time": 17.198}, {"pitch": 42, "velocity": 100, "note_on_time": 16.485, "note_off_time": 17.198}, {"pitch": 67, "velocity": 100, "note_on_time": 17.198, "note_off_time": 17.913}, {"pitch": 39, "velocity": 100, "note_on_time": 17.198, "note_off_time": 17.913}, {"pitch": 69, "velocity": 100, "note_on_time": 17.913, "note_off_time": 18.625}, {"pitch": 42, "velocity": 100, "note_on_time": 17.913, "note_off_time": 18.625}, {"pitch": 71, "velocity": 100, "note_on_time": 18.625, "note_off_time": 19.338}, {"pitch": 42, "velocity": 100, "note_on_time": 18.625, "note_off_time": 19.339}, {"pitch": 39, "velocity": 100, "note_on_time": 19.339, "note_off_time": 20.053}, {"pitch": 72, "velocity": 100, "note_on_time": 19.338, "note_off_time": 20.769}, {"pitch": 42, "velocity": 100, "note_on_time": 20.054, "note_off_time": 20.769}, {"pitch": 67, "velocity": 100, "note_on_time": 20.769, "note_off_time": 21.483}, {"pitch": 42, "velocity": 100, "note_on_time": 20.77, "note_off_time": 21.484}, {"pitch": 39, "velocity": 100, "note_on_time": 21.484, "note_off_time": 22.201}, {"pitch": 72, "velocity": 100, "note_on_time": 21.483, "note_off_time": 22.917}, {"pitch": 42, "velocity": 100, "note_on_time": 22.201, "note_off_time": 22.917}, {"pitch": 74, "velocity": 100, "note_on_time": 22.917, "note_off_time": 23.631}, {"pitch": 42, "velocity": 100, "note_on_time": 22.918, "note_off_time": 23.631}, {"pitch": 76, "velocity": 100, "note_on_time": 23.631, "note_off_time": 24.347}, {"pitch": 39, "velocity": 100, "note_on_time": 23.631, "note_off_time": 24.347}, {"pitch": 76, "velocity": 100, "note_on_time": 24.347, "note_off_time": 25.06}, {"pitch": 42, "velocity": 100, "note_on_time": 24.347, "note_off_time": 25.061}, {"pitch": 67, "velocity": 100, "note_on_time": 25.06, "note_off_time": 25.775}, {"pitch": 42, "velocity": 100, "note_on_time": 25.061, "note_off_time": 25.775}, {"pitch": 39, "velocity": 100, "note_on_time": 25.776, "note_off_time": 26.488}, {"pitch": 72, "velocity": 100, "note_on_time": 25.775, "note_off_time": 27.203}, {"pitch": 42, "velocity": 100, "note_on_time": 26.488, "note_off_time": 27.203}, {"pitch": 76, "velocity": 100, "note_on_time": 27.203, "note_off_time": 27.918}, {"pitch": 42, "velocity": 100, "note_on_time": 27.203, "note_off_time": 27.918}, {"pitch": 39, "velocity": 100, "note_on_time": 27.919, "note_off_time": 28.634}, {"pitch": 42, "velocity": 100, "note_on_time": 28.634, "note_off_time": 29.351}, {"pitch": 74, "velocity": 100, "note_on_time": 27.918, "note_off_time": 30.064}, {"pitch": 42, "velocity": 100, "note_on_time": 29.351, "note_off_time": 30.065}, {"pitch": 39, "velocity": 100, "note_on_time": 30.065, "note_off_time": 30.777}, {"pitch": 74, "velocity": 100, "note_on_time": 30.064, "note_off_time": 31.492}, {"pitch": 42, "velocity": 100, "note_on_time": 30.778, "note_off_time": 31.492}, {"pitch": 76, "velocity": 100, "note_on_time": 31.492, "note_off_time": 32.206}, {"pitch": 42, "velocity": 100, "note_on_time": 31.492, "note_off_time": 32.206}, {"pitch": 77, "velocity": 100, "note_on_time": 32.206, "note_off_time": 32.919}, {"pitch": 39, "velocity": 100, "note_on_time": 32.206, "note_off_time": 32.919}, {"pitch": 74, "velocity": 100, "note_on_time": 32.919, "note_off_time": 33.633}, {"pitch": 42, "velocity": 100, "note_on_time": 32.919, "note_off_time": 33.633}, {"pitch": 71, "velocity": 100, "note_on_time": 33.633, "note_off_time": 34.348}, {"pitch": 42, "velocity": 100, "note_on_time": 33.633, "note_off_time": 34.349}, {"pitch": 67, "velocity": 100, "note_on_time": 34.348, "note_off_time": 35.068}, {"pitch": 39, "velocity": 100, "note_on_time": 34.349, "note_off_time": 35.068}, {"pitch": 69, "velocity": 100, "note_on_time": 35.068, "note_off_time": 35.782}, {"pitch": 42, "velocity": 100, "note_on_time": 35.069, "note_off_time": 35.782}, {"pitch": 71, "velocity": 100, "note_on_time": 35.782, "note_off_time": 36.498}, {"pitch": 42, "velocity": 100, "note_on_time": 35.782, "note_off_time": 36.499}, {"pitch": 39, "velocity": 100, "note_on_time": 36.499, "note_off_time": 37.216}, {"pitch": 72, "velocity": 100, "note_on_time": 36.498, "note_off_time": 37.932}, {"pitch": 42, "velocity": 100, "note_on_time": 37.217, "note_off_time": 37.933}, {"pitch": 42, "velocity": 100, "note_on_time": 37.933, "note_off_time": 38.649}]</notes><options name="Option List">((4, 4), [0.5, 0.25], 3, 7, &lt;NoteRangePerHand.TWO_NOTES: 3&gt;, &lt;NoteRangePerHand.ONE_NOTE: 2&gt;, False, True, True, None)</options></target_notes><trials><trial trial_no="1" timestamp="2023_05_14-12_45_49"><notes name="Played Notes">[{"pitch": 67, "velocity": 71, "note_on_time": 3.559, "note_off_time": 4.341}, {"pitch": 72, "velocity": 50, "note_on_time": 5.013, "note_off_time": 5.457}, {"pitch": 72, "velocity": 58, "note_on_time": 5.795, "note_off_time": 6.36}, {"pitch": 74, "velocity": 52, "note_on_time": 6.455, "note_off_time": 7.07}, {"pitch": 76, "velocity": 61, "note_on_time": 7.155, "note_off_time": 8.524}, {"pitch": 67, "velocity": 48, "note_on_time": 9.309, "note_off_time": 9.897}, {"pitch": 71, "velocity": 41, "note_on_time": 10.816, "note_off_time": 11.089}, {"pitch": 72, "velocity": 26, "note_on_time": 11.503, "note_off_time": 12.233}, {"pitch": 76, "velocity": 54, "note_on_time": 12.967, "note_off_time": 13.569}, {"pitch": 74, "velocity": 45, "note_on_time": 14.319, "note_off_time": 14.759}, {"pitch": 67, "velocity": 57, "note_on_time": 15.732, "note_off_time": 16.728}, {"pitch": 76, "velocity": 44, "note_on_time": 17.762, "note_off_time": 18.178}, {"pitch": 74, "velocity": 74, "note_on_time": 18.446, "note_off_time": 18.77}, {"pitch": 76, "velocity": 60, "note_on_time": 18.844, "note_off_time": 19.431}, {"pitch": 77, "velocity": 69, "note_on_time": 19.526, "note_off_time": 20.105}, {"pitch": 76, "velocity": 38, "note_on_time": 20.342, "note_off_time": 20.856}, {"pitch": 74, "velocity": 29, "note_on_time": 20.963, "note_off_time": 21.38}, {"pitch": 71, "velocity": 55, "note_on_time": 23.521, "note_off_time": 23.843}, {"pitch": 72, "velocity": 56, "note_on_time": 25.022, "note_off_time": 25.348}, {"pitch": 72, "velocity": 61, "note_on_time": 29.29, "note_off_time": 30.499}, {"pitch": 65, "velocity": 62, "note_on_time": 30.727, "note_off_time": 31.158}, {"pitch": 72, "velocity": 49, "note_on_time": 32.856, "note_off_time": 33.206}, {"pitch": 67, "velocity": 1, "note_on_time": 34.369, "note_off_time": 34.941}, {"pitch": 72, "velocity": 25, "note_on_time": 35.271, "note_off_time": 36.653}, {"pitch": 74, "velocity": 47, "note_on_time": 36.848, "note_off_time": 37.38}, {"pitch": 76, "velocity": 52, "note_on_time": 37.856, "note_off_time": 38.196}]</notes><guidance name="Guidance Mode">None</guidance><error name="Error value">1.5909396795783635</error></trial></trials></MIDI>