<MIDI midiNo="2023_05_14-12_29_10"><target_notes><notes name="Note List">[{"pitch": 39, "velocity": 100, "note_on_time": 0.005, "note_off_time": 0.726}, {"pitch": 42, "velocity": 100, "note_on_time": 0.727, "note_off_time": 1.442}, {"pitch": 42, "velocity": 100, "note_on_time": 1.443, "note_off_time": 2.157}, {"pitch": 42, "velocity": 100, "note_on_time": 2.157, "note_off_time": 2.87}, {"pitch": 60, "velocity": 100, "note_on_time": 2.87, "note_off_time": 3.588}, {"pitch": 39, "velocity": 100, "note_on_time": 2.87, "note_off_time": 3.588}, {"pitch": 64, "velocity": 100, "note_on_time": 3.588, "note_off_time": 4.301}, {"pitch": 42, "velocity": 100, "note_on_time": 3.588, "note_off_time": 4.301}, {"pitch": 60, "velocity": 100, "note_on_time": 4.301, "note_off_time": 5.016}, {"pitch": 42, "velocity": 100, "note_on_time": 4.301, "note_off_time": 5.016}, {"pitch": 67, "velocity": 100, "note_on_time": 5.016, "note_off_time": 5.73}, {"pitch": 42, "velocity": 100, "note_on_time": 5.016, "note_off_time": 5.73}, {"pitch": 64, "velocity": 100, "note_on_time": 5.73, "note_off_time": 6.446}, {"pitch": 39, "velocity": 100, "note_on_time": 5.73, "note_off_time": 6.446}, {"pitch": 42, "velocity": 100, "note_on_time": 6.447, "note_off_time": 7.164}, {"pitch": 60, "velocity": 100, "note_on_time": 6.446, "note_off_time": 7.879}, {"pitch": 42, "velocity": 100, "note_on_time": 7.165, "note_off_time": 7.879}, {"pitch": 67, "velocity": 100, "note_on_time": 7.879, "note_off_time": 8.597}, {"pitch": 42, "velocity": 100, "note_on_time": 7.879, "note_off_time": 8.597}, {"pitch": 64, "velocity": 100, "note_on_time": 8.597, "note_off_time": 9.309}, {"pitch": 39, "velocity": 100, "note_on_time": 8.598, "note_off_time": 9.309}, {"pitch": 60, "velocity": 100, "note_on_time": 9.309, "note_off_time": 10.024}, {"pitch": 42, "velocity": 100, "note_on_time": 9.309, "note_off_time": 10.024}, {"pitch": 67, "velocity": 100, "note_on_time": 10.024, "note_off_time": 10.74}, {"pitch": 42, "velocity": 100, "note_on_time": 10.024, "note_off_time": 10.74}, {"pitch": 64, "velocity": 100, "note_on_time": 10.74, "note_off_time": 11.453}, {"pitch": 42, "velocity": 100, "note_on_time": 10.741, "note_off_time": 11.453}, {"pitch": 60, "velocity": 100, "note_on_time": 11.453, "note_off_time": 12.166}, {"pitch": 39, "velocity": 100, "note_on_time": 11.454, "note_off_time": 12.166}, {"pitch": 67, "velocity": 100, "note_on_time": 12.166, "note_off_time": 12.883}, {"pitch": 42, "velocity": 100, "note_on_time": 12.166, "note_off_time": 12.883}, {"pitch": 42, "velocity": 100, "note_on_time": 12.884, "note_off_time": 13.598}, {"pitch": 64, "velocity": 100, "note_on_time": 12.883, "note_off_time": 14.314}, {"pitch": 42, "velocity": 100, "note_on_time": 13.598, "note_off_time": 14.314}, {"pitch": 67, "velocity": 100, "note_on_time": 14.314, "note_off_time": 15.03}, {"pitch": 39, "velocity": 100, "note_on_time": 14.314, "note_off_time": 15.03}, {"pitch": 64, "velocity": 100, "note_on_time": 15.03, "note_off_time": 15.748}, {"pitch": 42, "velocity": 100, "note_on_time": 15.03, "note_off_time": 15.748}, {"pitch": 67, "velocity": 100, "note_on_time": 15.748, "note_off_time": 16.465}, {"pitch": 42, "velocity": 100, "note_on_time": 15.749, "note_off_time": 16.465}, {"pitch": 60, "velocity": 100, "note_on_time": 16.465, "note_off_time": 17.183}, {"pitch": 42, "velocity": 100, "note_on_time": 16.465, "note_off_time": 17.184}, {"pitch": 67, "velocity": 100, "note_on_time": 17.183, "note_off_time": 17.9}, {"pitch": 39, "velocity": 100, "note_on_time": 17.184, "note_off_time": 17.9}, {"pitch": 60, "velocity": 100, "note_on_time": 17.9, "note_off_time": 18.616}, {"pitch": 42, "velocity": 100, "note_on_time": 17.9, "note_off_time": 18.616}, {"pitch": 42, "velocity": 100, "note_on_time": 18.616, "note_off_time": 19.333}, {"pitch": 64, "velocity": 100, "note_on_time": 18.616, "note_off_time": 20.049}, {"pitch": 42, "velocity": 100, "note_on_time": 19.334, "note_off_time": 20.049}, {"pitch": 60, "velocity": 100, "note_on_time": 20.049, "note_off_time": 20.764}, {"pitch": 39, "velocity": 100, "note_on_time": 20.049, "note_off_time": 20.764}, {"pitch": 42, "velocity": 100, "note_on_time": 20.764, "note_off_time": 21.48}, {"pitch": 64, "velocity": 100, "note_on_time": 20.764, "note_off_time": 22.196}, {"pitch": 42, "velocity": 100, "note_on_time": 21.481, "note_off_time": 22.196}, {"pitch": 67, "velocity": 100, "note_on_time": 22.196, "note_off_time": 22.913}, {"pitch": 42, "velocity": 100, "note_on_time": 22.196, "note_off_time": 22.913}, {"pitch": 39, "velocity": 100, "note_on_time": 22.913, "note_off_time": 23.627}, {"pitch": 42, "velocity": 100, "note_on_time": 23.628, "note_off_time": 24.347}, {"pitch": 42, "velocity": 100, "note_on_time": 24.348, "note_off_time": 25.062}, {"pitch": 60, "velocity": 100, "note_on_time": 22.913, "note_off_time": 25.774}, {"pitch": 42, "velocity": 100, "note_on_time": 25.062, "note_off_time": 25.774}]</notes><options name="Option List">((4, 4), [0.5, 0.25], 3, 7, &lt;NoteRangePerHand.TWO_NOTES: 3&gt;, &lt;NoteRangePerHand.ONE_NOTE: 2&gt;, False, True, True, None)</options></target_notes><trials><trial trial_no="1" timestamp="2023_05_14-12_29_10"><notes name="Played Notes">[{"pitch": 60, "velocity": 70, "note_on_time": 2.86, "note_off_time": 3.552}, {"pitch": 64, "velocity": 73, "note_on_time": 3.578, "note_off_time": 4.234}, {"pitch": 60, "velocity": 74, "note_on_time": 4.247, "note_off_time": 4.957}, {"pitch": 67, "velocity": 80, "note_on_time": 4.956, "note_off_time": 5.668}, {"pitch": 64, "velocity": 72, "note_on_time": 5.652, "note_off_time": 6.383}, {"pitch": 60, "velocity": 77, "note_on_time": 6.388, "note_off_time": 7.458}, {"pitch": 67, "velocity": 73, "note_on_time": 7.849, "note_off_time": 8.528}, {"pitch": 64, "velocity": 73, "note_on_time": 8.529, "note_off_time": 9.316}, {"pitch": 60, "velocity": 74, "note_on_time": 9.315, "note_off_time": 10.006}, {"pitch": 67, "velocity": 77, "note_on_time": 10.004, "note_off_time": 10.724}, {"pitch": 64, "velocity": 68, "note_on_time": 10.721, "note_off_time": 11.506}, {"pitch": 60, "velocity": 77, "note_on_time": 11.469, "note_off_time": 12.241}, {"pitch": 67, "velocity": 72, "note_on_time": 12.233, "note_off_time": 12.841}, {"pitch": 64, "velocity": 75, "note_on_time": 12.886, "note_off_time": 14.1}, {"pitch": 67, "velocity": 77, "note_on_time": 14.225, "note_off_time": 14.975}, {"pitch": 64, "velocity": 71, "note_on_time": 15.012, "note_off_time": 15.748}, {"pitch": 67, "velocity": 80, "note_on_time": 15.737, "note_off_time": 16.448}, {"pitch": 60, "velocity": 77, "note_on_time": 16.465, "note_off_time": 17.181}, {"pitch": 67, "velocity": 76, "note_on_time": 17.186, "note_off_time": 17.891}, {"pitch": 60, "velocity": 75, "note_on_time": 17.899, "note_off_time": 18.625}, {"pitch": 64, "velocity": 81, "note_on_time": 18.621, "note_off_time": 19.858}, {"pitch": 60, "velocity": 74, "note_on_time": 19.952, "note_off_time": 20.654}, {"pitch": 64, "velocity": 85, "note_on_time": 20.68, "note_off_time": 21.453}, {"pitch": 67, "velocity": 80, "note_on_time": 21.439, "note_off_time": 22.274}, {"pitch": 60, "velocity": 78, "note_on_time": 22.337, "note_off_time": 25.39}]</notes><guidance name="Guidance Mode">None</guidance><error name="Error value">0.12201922000000029</error></trial></trials></MIDI>