<MIDI midiNo="2023_05_14-11_57_40"><target_notes><notes name="Note List">[{"pitch": 39, "velocity": 100, "note_on_time": 0.008, "note_off_time": 0.717}, {"pitch": 42, "velocity": 100, "note_on_time": 0.717, "note_off_time": 1.431}, {"pitch": 42, "velocity": 100, "note_on_time": 1.431, "note_off_time": 2.145}, {"pitch": 42, "velocity": 100, "note_on_time": 2.145, "note_off_time": 2.861}, {"pitch": 39, "velocity": 100, "note_on_time": 2.861, "note_off_time": 3.578}, {"pitch": 42, "velocity": 100, "note_on_time": 3.578, "note_off_time": 4.295}, {"pitch": 42, "velocity": 100, "note_on_time": 4.295, "note_off_time": 5.01}, {"pitch": 60, "velocity": 100, "note_on_time": 5.01, "note_off_time": 5.725}, {"pitch": 42, "velocity": 100, "note_on_time": 5.01, "note_off_time": 5.725}, {"pitch": 39, "velocity": 100, "note_on_time": 5.725, "note_off_time": 6.438}, {"pitch": 69, "velocity": 100, "note_on_time": 5.725, "note_off_time": 7.154}, {"pitch": 42, "velocity": 100, "note_on_time": 6.438, "note_off_time": 7.155}, {"pitch": 65, "velocity": 100, "note_on_time": 7.154, "note_off_time": 7.867}, {"pitch": 42, "velocity": 100, "note_on_time": 7.155, "note_off_time": 7.867}, {"pitch": 65, "velocity": 100, "note_on_time": 7.867, "note_off_time": 8.581}, {"pitch": 42, "velocity": 100, "note_on_time": 7.868, "note_off_time": 8.581}, {"pitch": 39, "velocity": 100, "note_on_time": 8.581, "note_off_time": 9.294}, {"pitch": 67, "velocity": 100, "note_on_time": 8.581, "note_off_time": 10.006}, {"pitch": 42, "velocity": 100, "note_on_time": 9.295, "note_off_time": 10.006}, {"pitch": 60, "velocity": 100, "note_on_time": 10.006, "note_off_time": 10.724}, {"pitch": 42, "velocity": 100, "note_on_time": 10.006, "note_off_time": 10.724}, {"pitch": 60, "velocity": 100, "note_on_time": 10.724, "note_off_time": 11.438}, {"pitch": 42, "velocity": 100, "note_on_time": 10.724, "note_off_time": 11.438}, {"pitch": 65, "velocity": 100, "note_on_time": 11.438, "note_off_time": 12.154}, {"pitch": 39, "velocity": 100, "note_on_time": 11.438, "note_off_time": 12.154}, {"pitch": 64, "velocity": 100, "note_on_time": 12.154, "note_off_time": 12.871}, {"pitch": 42, "velocity": 100, "note_on_time": 12.154, "note_off_time": 12.871}, {"pitch": 65, "velocity": 100, "note_on_time": 12.871, "note_off_time": 13.586}, {"pitch": 42, "velocity": 100, "note_on_time": 12.871, "note_off_time": 13.586}, {"pitch": 69, "velocity": 100, "note_on_time": 13.586, "note_off_time": 14.3}, {"pitch": 42, "velocity": 100, "note_on_time": 13.587, "note_off_time": 14.3}, {"pitch": 39, "velocity": 100, "note_on_time": 14.3, "note_off_time": 15.013}, {"pitch": 42, "velocity": 100, "note_on_time": 15.013, "note_off_time": 15.727}, {"pitch": 67, "velocity": 100, "note_on_time": 14.3, "note_off_time": 16.444}, {"pitch": 42, "velocity": 100, "note_on_time": 15.727, "note_off_time": 16.444}, {"pitch": 69, "velocity": 100, "note_on_time": 16.444, "note_off_time": 17.157}, {"pitch": 42, "velocity": 100, "note_on_time": 16.444, "note_off_time": 17.157}, {"pitch": 70, "velocity": 100, "note_on_time": 17.157, "note_off_time": 17.87}, {"pitch": 39, "velocity": 100, "note_on_time": 17.157, "note_off_time": 17.87}, {"pitch": 70, "velocity": 100, "note_on_time": 17.87, "note_off_time": 18.586}, {"pitch": 42, "velocity": 100, "note_on_time": 17.871, "note_off_time": 18.586}, {"pitch": 69, "velocity": 100, "note_on_time": 18.586, "note_off_time": 19.298}, {"pitch": 42, "velocity": 100, "note_on_time": 18.587, "note_off_time": 19.298}, {"pitch": 70, "velocity": 100, "note_on_time": 19.298, "note_off_time": 20.014}, {"pitch": 42, "velocity": 100, "note_on_time": 19.298, "note_off_time": 20.014}, {"pitch": 39, "velocity": 100, "note_on_time": 20.015, "note_off_time": 20.729}, {"pitch": 72, "velocity": 100, "note_on_time": 20.014, "note_off_time": 21.441}, {"pitch": 42, "velocity": 100, "note_on_time": 20.73, "note_off_time": 21.441}, {"pitch": 69, "velocity": 100, "note_on_time": 21.441, "note_off_time": 22.155}, {"pitch": 42, "velocity": 100, "note_on_time": 21.441, "note_off_time": 22.155}, {"pitch": 65, "velocity": 100, "note_on_time": 22.155, "note_off_time": 22.87}, {"pitch": 42, "velocity": 100, "note_on_time": 22.155, "note_off_time": 22.87}, {"pitch": 69, "velocity": 100, "note_on_time": 22.87, "note_off_time": 23.585}, {"pitch": 39, "velocity": 100, "note_on_time": 22.871, "note_off_time": 23.585}, {"pitch": 69, "velocity": 100, "note_on_time": 23.585, "note_off_time": 24.298}, {"pitch": 42, "velocity": 100, "note_on_time": 23.586, "note_off_time": 24.298}, {"pitch": 67, "velocity": 100, "note_on_time": 24.298, "note_off_time": 25.013}, {"pitch": 42, "velocity": 100, "note_on_time": 24.298, "note_off_time": 25.013}, {"pitch": 69, "velocity": 100, "note_on_time": 25.013, "note_off_time": 25.728}, {"pitch": 42, "velocity": 100, "note_on_time": 25.013, "note_off_time": 25.728}, {"pitch": 39, "velocity": 100, "note_on_time": 25.728, "note_off_time": 26.444}, {"pitch": 70, "velocity": 100, "note_on_time": 25.728, "note_off_time": 27.158}, {"pitch": 42, "velocity": 100, "note_on_time": 26.445, "note_off_time": 27.158}, {"pitch": 67, "velocity": 100, "note_on_time": 27.158, "note_off_time": 27.872}, {"pitch": 42, "velocity": 100, "note_on_time": 27.158, "note_off_time": 27.873}, {"pitch": 74, "velocity": 100, "note_on_time": 27.872, "note_off_time": 28.587}, {"pitch": 42, "velocity": 100, "note_on_time": 27.873, "note_off_time": 28.587}, {"pitch": 39, "velocity": 100, "note_on_time": 28.587, "note_off_time": 29.302}, {"pitch": 72, "velocity": 100, "note_on_time": 28.587, "note_off_time": 30.015}, {"pitch": 42, "velocity": 100, "note_on_time": 29.302, "note_off_time": 30.015}, {"pitch": 69, "velocity": 100, "note_on_time": 30.015, "note_off_time": 30.734}, {"pitch": 42, "velocity": 100, "note_on_time": 30.016, "note_off_time": 30.734}, {"pitch": 72, "velocity": 100, "note_on_time": 30.734, "note_off_time": 31.449}, {"pitch": 42, "velocity": 100, "note_on_time": 30.734, "note_off_time": 31.449}, {"pitch": 39, "velocity": 100, "note_on_time": 31.449, "note_off_time": 32.165}, {"pitch": 70, "velocity": 100, "note_on_time": 31.449, "note_off_time": 32.877}, {"pitch": 42, "velocity": 100, "note_on_time": 32.165, "note_off_time": 32.877}, {"pitch": 67, "velocity": 100, "note_on_time": 32.877, "note_off_time": 33.593}, {"pitch": 42, "velocity": 100, "note_on_time": 32.877, "note_off_time": 33.594}, {"pitch": 74, "velocity": 100, "note_on_time": 33.593, "note_off_time": 34.31}, {"pitch": 42, "velocity": 100, "note_on_time": 33.594, "note_off_time": 34.31}, {"pitch": 72, "velocity": 100, "note_on_time": 34.31, "note_off_time": 35.025}, {"pitch": 39, "velocity": 100, "note_on_time": 34.31, "note_off_time": 35.025}, {"pitch": 69, "velocity": 100, "note_on_time": 35.025, "note_off_time": 35.74}, {"pitch": 42, "velocity": 100, "note_on_time": 35.025, "note_off_time": 35.741}, {"pitch": 70, "velocity": 100, "note_on_time": 35.74, "note_off_time": 36.456}, {"pitch": 42, "velocity": 100, "note_on_time": 35.741, "note_off_time": 36.456}, {"pitch": 67, "velocity": 100, "note_on_time": 36.456, "note_off_time": 37.169}, {"pitch": 42, "velocity": 100, "note_on_time": 36.456, "note_off_time": 37.17}, {"pitch": 39, "velocity": 100, "note_on_time": 37.17, "note_off_time": 37.888}, {"pitch": 42, "velocity": 100, "note_on_time": 37.888, "note_off_time": 38.605}, {"pitch": 65, "velocity": 100, "note_on_time": 37.169, "note_off_time": 39.317}, {"pitch": 42, "velocity": 100, "note_on_time": 38.605, "note_off_time": 39.317}, {"pitch": 42, "velocity": 100, "note_on_time": 39.318, "note_off_time": 40.032}]</notes><options name="Option List">((4, 4), [0.5, 0.25], 3, 7, &lt;NoteRangePerHand.TWO_NOTES: 3&gt;, &lt;NoteRangePerHand.ONE_NOTE: 2&gt;, False, True, True, None)</options></target_notes><trials><trial trial_no="1" timestamp="2023_05_14-11_57_40"><notes name="Played Notes">[{"pitch": 60, "velocity": 73, "note_on_time": 4.948, "note_off_time": 5.618}, {"pitch": 69, "velocity": 80, "note_on_time": 5.692, "note_off_time": 6.374}, {"pitch": 65, "velocity": 82, "note_on_time": 6.383, "note_off_time": 7.072}, {"pitch": 65, "velocity": 59, "note_on_time": 7.16, "note_off_time": 8.124}, {"pitch": 67, "velocity": 73, "note_on_time": 8.576, "note_off_time": 9.209}, {"pitch": 60, "velocity": 62, "note_on_time": 9.286, "note_off_time": 9.861}, {"pitch": 60, "velocity": 77, "note_on_time": 10.059, "note_off_time": 11.406}, {"pitch": 64, "velocity": 73, "note_on_time": 11.584, "note_off_time": 12.252}, {"pitch": 65, "velocity": 70, "note_on_time": 12.306, "note_off_time": 12.856}, {"pitch": 67, "velocity": 43, "note_on_time": 13.023, "note_off_time": 14.712}, {"pitch": 65, "velocity": 77, "note_on_time": 14.961, "note_off_time": 16.767}, {"pitch": 69, "velocity": 68, "note_on_time": 19.309, "note_off_time": 19.851}, {"pitch": 69, "velocity": 1, "note_on_time": 20.008, "note_off_time": 20.306}, {"pitch": 70, "velocity": 61, "note_on_time": 20.768, "note_off_time": 21.199}, {"pitch": 70, "velocity": 66, "note_on_time": 21.454, "note_off_time": 22.016}, {"pitch": 69, "velocity": 69, "note_on_time": 22.184, "note_off_time": 22.924}, {"pitch": 70, "velocity": 53, "note_on_time": 22.924, "note_off_time": 24.084}, {"pitch": 72, "velocity": 73, "note_on_time": 24.507, "note_off_time": 24.579}, {"pitch": 71, "velocity": 71, "note_on_time": 24.503, "note_off_time": 24.792}, {"pitch": 72, "velocity": 65, "note_on_time": 24.951, "note_off_time": 26.038}, {"pitch": 69, "velocity": 60, "note_on_time": 25.791, "note_off_time": 27.131}, {"pitch": 65, "velocity": 51, "note_on_time": 27.719, "note_off_time": 29.032}, {"pitch": 69, "velocity": 62, "note_on_time": 28.691, "note_off_time": 29.93}, {"pitch": 69, "velocity": 68, "note_on_time": 30.198, "note_off_time": 30.776}, {"pitch": 67, "velocity": 48, "note_on_time": 30.846, "note_off_time": 31.873}, {"pitch": 69, "velocity": 47, "note_on_time": 31.905, "note_off_time": 33.195}, {"pitch": 68, "velocity": 67, "note_on_time": 33.575, "note_off_time": 33.993}, {"pitch": 70, "velocity": 50, "note_on_time": 34.478, "note_off_time": 34.57}, {"pitch": 67, "velocity": 51, "note_on_time": 35.275, "note_off_time": 36.542}]</notes><guidance name="Guidance Mode">None</guidance><error name="Error value">1.3668975461584998</error></trial></trials></MIDI>