<MIDI midiNo="2023_05_14-12_35_58"><target_notes><notes name="Note List">[{"pitch": 39, "velocity": 100, "note_on_time": 0.007, "note_off_time": 0.726}, {"pitch": 42, "velocity": 100, "note_on_time": 0.726, "note_off_time": 1.438}, {"pitch": 42, "velocity": 100, "note_on_time": 1.439, "note_off_time": 2.153}, {"pitch": 39, "velocity": 100, "note_on_time": 2.153, "note_off_time": 2.868}, {"pitch": 42, "velocity": 100, "note_on_time": 2.868, "note_off_time": 3.583}, {"pitch": 67, "velocity": 100, "note_on_time": 3.583, "note_off_time": 4.298}, {"pitch": 42, "velocity": 100, "note_on_time": 3.583, "note_off_time": 4.298}, {"pitch": 72, "velocity": 100, "note_on_time": 4.298, "note_off_time": 5.014}, {"pitch": 39, "velocity": 100, "note_on_time": 4.298, "note_off_time": 5.014}, {"pitch": 72, "velocity": 100, "note_on_time": 5.014, "note_off_time": 5.731}, {"pitch": 42, "velocity": 100, "note_on_time": 5.014, "note_off_time": 5.731}, {"pitch": 74, "velocity": 100, "note_on_time": 5.731, "note_off_time": 6.448}, {"pitch": 42, "velocity": 100, "note_on_time": 5.732, "note_off_time": 6.449}, {"pitch": 39, "velocity": 100, "note_on_time": 6.449, "note_off_time": 7.168}, {"pitch": 76, "velocity": 100, "note_on_time": 6.448, "note_off_time": 7.881}, {"pitch": 42, "velocity": 100, "note_on_time": 7.168, "note_off_time": 7.881}, {"pitch": 67, "velocity": 100, "note_on_time": 7.881, "note_off_time": 8.596}, {"pitch": 42, "velocity": 100, "note_on_time": 7.882, "note_off_time": 8.596}, {"pitch": 39, "velocity": 100, "note_on_time": 8.597, "note_off_time": 9.312}, {"pitch": 72, "velocity": 100, "note_on_time": 8.596, "note_off_time": 10.031}, {"pitch": 42, "velocity": 100, "note_on_time": 9.313, "note_off_time": 10.031}, {"pitch": 76, "velocity": 100, "note_on_time": 10.031, "note_off_time": 10.746}, {"pitch": 42, "velocity": 100, "note_on_time": 10.031, "note_off_time": 10.746}, {"pitch": 39, "velocity": 100, "note_on_time": 10.746, "note_off_time": 11.463}, {"pitch": 74, "velocity": 100, "note_on_time": 10.746, "note_off_time": 12.181}, {"pitch": 42, "velocity": 100, "note_on_time": 11.463, "note_off_time": 12.181}, {"pitch": 67, "velocity": 100, "note_on_time": 12.181, "note_off_time": 12.897}, {"pitch": 42, "velocity": 100, "note_on_time": 12.182, "note_off_time": 12.897}, {"pitch": 39, "velocity": 100, "note_on_time": 12.897, "note_off_time": 13.615}, {"pitch": 74, "velocity": 100, "note_on_time": 12.897, "note_off_time": 14.332}, {"pitch": 42, "velocity": 100, "note_on_time": 13.615, "note_off_time": 14.332}, {"pitch": 76, "velocity": 100, "note_on_time": 14.332, "note_off_time": 15.048}, {"pitch": 42, "velocity": 100, "note_on_time": 14.333, "note_off_time": 15.048}, {"pitch": 77, "velocity": 100, "note_on_time": 15.048, "note_off_time": 15.765}, {"pitch": 39, "velocity": 100, "note_on_time": 15.048, "note_off_time": 15.765}, {"pitch": 74, "velocity": 100, "note_on_time": 15.765, "note_off_time": 16.483}, {"pitch": 42, "velocity": 100, "note_on_time": 15.765, "note_off_time": 16.483}, {"pitch": 71, "velocity": 100, "note_on_time": 16.483, "note_off_time": 17.203}, {"pitch": 42, "velocity": 100, "note_on_time": 16.484, "note_off_time": 17.203}, {"pitch": 67, "velocity": 100, "note_on_time": 17.203, "note_off_time": 17.916}, {"pitch": 39, "velocity": 100, "note_on_time": 17.203, "note_off_time": 17.916}, {"pitch": 69, "velocity": 100, "note_on_time": 17.916, "note_off_time": 18.631}, {"pitch": 42, "velocity": 100, "note_on_time": 17.917, "note_off_time": 18.631}, {"pitch": 71, "velocity": 100, "note_on_time": 18.631, "note_off_time": 19.348}, {"pitch": 42, "velocity": 100, "note_on_time": 18.631, "note_off_time": 19.348}, {"pitch": 39, "velocity": 100, "note_on_time": 19.348, "note_off_time": 20.062}, {"pitch": 72, "velocity": 100, "note_on_time": 19.348, "note_off_time": 20.781}, {"pitch": 42, "velocity": 100, "note_on_time": 20.062, "note_off_time": 20.781}, {"pitch": 67, "velocity": 100, "note_on_time": 20.781, "note_off_time": 21.496}, {"pitch": 42, "velocity": 100, "note_on_time": 20.781, "note_off_time": 21.496}, {"pitch": 39, "velocity": 100, "note_on_time": 21.496, "note_off_time": 22.211}, {"pitch": 72, "velocity": 100, "note_on_time": 21.496, "note_off_time": 22.927}, {"pitch": 42, "velocity": 100, "note_on_time": 22.211, "note_off_time": 22.927}, {"pitch": 74, "velocity": 100, "note_on_time": 22.927, "note_off_time": 23.639}, {"pitch": 42, "velocity": 100, "note_on_time": 22.928, "note_off_time": 23.64}, {"pitch": 76, "velocity": 100, "note_on_time": 23.639, "note_off_time": 24.356}, {"pitch": 39, "velocity": 100, "note_on_time": 23.64, "note_off_time": 24.356}, {"pitch": 76, "velocity": 100, "note_on_time": 24.356, "note_off_time": 25.069}, {"pitch": 42, "velocity": 100, "note_on_time": 24.356, "note_off_time": 25.07}, {"pitch": 67, "velocity": 100, "note_on_time": 25.069, "note_off_time": 25.787}, {"pitch": 42, "velocity": 100, "note_on_time": 25.07, "note_off_time": 25.788}, {"pitch": 39, "velocity": 100, "note_on_time": 25.788, "note_off_time": 26.502}, {"pitch": 72, "velocity": 100, "note_on_time": 25.787, "note_off_time": 27.219}, {"pitch": 42, "velocity": 100, "note_on_time": 26.502, "note_off_time": 27.219}, {"pitch": 76, "velocity": 100, "note_on_time": 27.219, "note_off_time": 27.932}, {"pitch": 42, "velocity": 100, "note_on_time": 27.219, "note_off_time": 27.933}, {"pitch": 39, "velocity": 100, "note_on_time": 27.933, "note_off_time": 28.646}, {"pitch": 42, "velocity": 100, "note_on_time": 28.646, "note_off_time": 29.36}, {"pitch": 74, "velocity": 100, "note_on_time": 27.932, "note_off_time": 30.078}, {"pitch": 42, "velocity": 100, "note_on_time": 29.36, "note_off_time": 30.078}, {"pitch": 39, "velocity": 100, "note_on_time": 30.078, "note_off_time": 30.793}, {"pitch": 74, "velocity": 100, "note_on_time": 30.078, "note_off_time": 31.511}, {"pitch": 42, "velocity": 100, "note_on_time": 30.794, "note_off_time": 31.511}, {"pitch": 76, "velocity": 100, "note_on_time": 31.511, "note_off_time": 32.226}, {"pitch": 42, "velocity": 100, "note_on_time": 31.512, "note_off_time": 32.226}, {"pitch": 77, "velocity": 100, "note_on_time": 32.226, "note_off_time": 32.945}, {"pitch": 39, "velocity": 100, "note_on_time": 32.227, "note_off_time": 32.945}, {"pitch": 74, "velocity": 100, "note_on_time": 32.945, "note_off_time": 33.66}, {"pitch": 42, "velocity": 100, "note_on_time": 32.945, "note_off_time": 33.66}, {"pitch": 71, "velocity": 100, "note_on_time": 33.66, "note_off_time": 34.373}, {"pitch": 42, "velocity": 100, "note_on_time": 33.66, "note_off_time": 34.373}, {"pitch": 67, "velocity": 100, "note_on_time": 34.373, "note_off_time": 35.088}, {"pitch": 39, "velocity": 100, "note_on_time": 34.373, "note_off_time": 35.088}, {"pitch": 69, "velocity": 100, "note_on_time": 35.088, "note_off_time": 35.805}, {"pitch": 42, "velocity": 100, "note_on_time": 35.089, "note_off_time": 35.805}, {"pitch": 71, "velocity": 100, "note_on_time": 35.805, "note_off_time": 36.522}, {"pitch": 42, "velocity": 100, "note_on_time": 35.806, "note_off_time": 36.522}, {"pitch": 39, "velocity": 100, "note_on_time": 36.523, "note_off_time": 37.237}, {"pitch": 72, "velocity": 100, "note_on_time": 36.522, "note_off_time": 37.953}, {"pitch": 42, "velocity": 100, "note_on_time": 37.237, "note_off_time": 37.953}, {"pitch": 42, "velocity": 100, "note_on_time": 37.953, "note_off_time": 38.67}]</notes><options name="Option List">((4, 4), [0.5, 0.25], 3, 7, &lt;NoteRangePerHand.TWO_NOTES: 3&gt;, &lt;NoteRangePerHand.ONE_NOTE: 2&gt;, False, True, True, None)</options></target_notes><trials><trial trial_no="1" timestamp="2023_05_14-12_35_58"><notes name="Played Notes">[{"pitch": 67, "velocity": 61, "note_on_time": 2.827, "note_off_time": 3.497}, {"pitch": 72, "velocity": 76, "note_on_time": 3.556, "note_off_time": 3.985}, {"pitch": 72, "velocity": 61, "note_on_time": 4.271, "note_off_time": 4.895}, {"pitch": 74, "velocity": 67, "note_on_time": 4.97, "note_off_time": 5.471}, {"pitch": 76, "velocity": 71, "note_on_time": 5.771, "note_off_time": 6.859}, {"pitch": 74, "velocity": 68, "note_on_time": 7.13, "note_off_time": 7.376}, {"pitch": 72, "velocity": 71, "note_on_time": 21.481, "note_off_time": 23.067}, {"pitch": 64, "velocity": 75, "note_on_time": 27.916, "note_off_time": 29.059}]</notes><guidance name="Guidance Mode">None</guidance><error name="Error value">1.7721703745851116</error></trial></trials></MIDI>