<MIDI midiNo="2023_05_14-13_04_47"><target_notes><notes name="Note List">[{"pitch": 39, "velocity": 100, "note_on_time": 0.007, "note_off_time": 0.715}, {"pitch": 42, "velocity": 100, "note_on_time": 0.716, "note_off_time": 1.431}, {"pitch": 42, "velocity": 100, "note_on_time": 1.431, "note_off_time": 2.147}, {"pitch": 39, "velocity": 100, "note_on_time": 2.148, "note_off_time": 2.862}, {"pitch": 42, "velocity": 100, "note_on_time": 2.863, "note_off_time": 3.577}, {"pitch": 67, "velocity": 100, "note_on_time": 3.577, "note_off_time": 4.294}, {"pitch": 42, "velocity": 100, "note_on_time": 3.577, "note_off_time": 4.295}, {"pitch": 72, "velocity": 100, "note_on_time": 4.294, "note_off_time": 5.007}, {"pitch": 39, "velocity": 100, "note_on_time": 4.295, "note_off_time": 5.007}, {"pitch": 72, "velocity": 100, "note_on_time": 5.007, "note_off_time": 5.724}, {"pitch": 42, "velocity": 100, "note_on_time": 5.007, "note_off_time": 5.725}, {"pitch": 74, "velocity": 100, "note_on_time": 5.724, "note_off_time": 6.438}, {"pitch": 42, "velocity": 100, "note_on_time": 5.725, "note_off_time": 6.438}, {"pitch": 39, "velocity": 100, "note_on_time": 6.438, "note_off_time": 7.157}, {"pitch": 76, "velocity": 100, "note_on_time": 6.438, "note_off_time": 7.872}, {"pitch": 42, "velocity": 100, "note_on_time": 7.157, "note_off_time": 7.872}, {"pitch": 67, "velocity": 100, "note_on_time": 7.872, "note_off_time": 8.589}, {"pitch": 42, "velocity": 100, "note_on_time": 7.873, "note_off_time": 8.59}, {"pitch": 39, "velocity": 100, "note_on_time": 8.59, "note_off_time": 9.305}, {"pitch": 72, "velocity": 100, "note_on_time": 8.589, "note_off_time": 10.023}, {"pitch": 42, "velocity": 100, "note_on_time": 9.305, "note_off_time": 10.023}, {"pitch": 76, "velocity": 100, "note_on_time": 10.023, "note_off_time": 10.737}, {"pitch": 42, "velocity": 100, "note_on_time": 10.023, "note_off_time": 10.737}, {"pitch": 39, "velocity": 100, "note_on_time": 10.737, "note_off_time": 11.452}, {"pitch": 74, "velocity": 100, "note_on_time": 10.737, "note_off_time": 12.169}, {"pitch": 42, "velocity": 100, "note_on_time": 11.452, "note_off_time": 12.17}, {"pitch": 67, "velocity": 100, "note_on_time": 12.169, "note_off_time": 12.884}, {"pitch": 42, "velocity": 100, "note_on_time": 12.17, "note_off_time": 12.885}, {"pitch": 39, "velocity": 100, "note_on_time": 12.885, "note_off_time": 13.597}, {"pitch": 74, "velocity": 100, "note_on_time": 12.884, "note_off_time": 14.312}, {"pitch": 42, "velocity": 100, "note_on_time": 13.598, "note_off_time": 14.312}, {"pitch": 76, "velocity": 100, "note_on_time": 14.312, "note_off_time": 15.027}, {"pitch": 42, "velocity": 100, "note_on_time": 14.313, "note_off_time": 15.027}, {"pitch": 77, "velocity": 100, "note_on_time": 15.027, "note_off_time": 15.742}, {"pitch": 39, "velocity": 100, "note_on_time": 15.027, "note_off_time": 15.742}, {"pitch": 74, "velocity": 100, "note_on_time": 15.742, "note_off_time": 16.458}, {"pitch": 42, "velocity": 100, "note_on_time": 15.742, "note_off_time": 16.458}, {"pitch": 71, "velocity": 100, "note_on_time": 16.458, "note_off_time": 17.17}, {"pitch": 42, "velocity": 100, "note_on_time": 16.458, "note_off_time": 17.17}, {"pitch": 67, "velocity": 100, "note_on_time": 17.17, "note_off_time": 17.885}, {"pitch": 39, "velocity": 100, "note_on_time": 17.17, "note_off_time": 17.886}, {"pitch": 69, "velocity": 100, "note_on_time": 17.885, "note_off_time": 18.605}, {"pitch": 42, "velocity": 100, "note_on_time": 17.886, "note_off_time": 18.605}, {"pitch": 71, "velocity": 100, "note_on_time": 18.605, "note_off_time": 19.318}, {"pitch": 42, "velocity": 100, "note_on_time": 18.605, "note_off_time": 19.318}, {"pitch": 39, "velocity": 100, "note_on_time": 19.319, "note_off_time": 20.039}, {"pitch": 72, "velocity": 100, "note_on_time": 19.318, "note_off_time": 20.751}, {"pitch": 42, "velocity": 100, "note_on_time": 20.039, "note_off_time": 20.752}, {"pitch": 67, "velocity": 100, "note_on_time": 20.751, "note_off_time": 21.468}, {"pitch": 42, "velocity": 100, "note_on_time": 20.752, "note_off_time": 21.468}, {"pitch": 39, "velocity": 100, "note_on_time": 21.468, "note_off_time": 22.182}, {"pitch": 72, "velocity": 100, "note_on_time": 21.468, "note_off_time": 22.897}, {"pitch": 42, "velocity": 100, "note_on_time": 22.183, "note_off_time": 22.897}, {"pitch": 74, "velocity": 100, "note_on_time": 22.897, "note_off_time": 23.612}, {"pitch": 42, "velocity": 100, "note_on_time": 22.897, "note_off_time": 23.612}, {"pitch": 76, "velocity": 100, "note_on_time": 23.612, "note_off_time": 24.328}, {"pitch": 39, "velocity": 100, "note_on_time": 23.612, "note_off_time": 24.328}, {"pitch": 76, "velocity": 100, "note_on_time": 24.328, "note_off_time": 25.048}, {"pitch": 42, "velocity": 100, "note_on_time": 24.328, "note_off_time": 25.049}, {"pitch": 67, "velocity": 100, "note_on_time": 25.048, "note_off_time": 25.765}, {"pitch": 42, "velocity": 100, "note_on_time": 25.049, "note_off_time": 25.765}, {"pitch": 39, "velocity": 100, "note_on_time": 25.765, "note_off_time": 26.48}, {"pitch": 72, "velocity": 100, "note_on_time": 25.765, "note_off_time": 27.196}, {"pitch": 42, "velocity": 100, "note_on_time": 26.48, "note_off_time": 27.196}, {"pitch": 76, "velocity": 100, "note_on_time": 27.196, "note_off_time": 27.913}, {"pitch": 42, "velocity": 100, "note_on_time": 27.197, "note_off_time": 27.913}, {"pitch": 39, "velocity": 100, "note_on_time": 27.914, "note_off_time": 28.633}, {"pitch": 42, "velocity": 100, "note_on_time": 28.633, "note_off_time": 29.349}, {"pitch": 74, "velocity": 100, "note_on_time": 27.913, "note_off_time": 30.061}, {"pitch": 42, "velocity": 100, "note_on_time": 29.349, "note_off_time": 30.061}, {"pitch": 39, "velocity": 100, "note_on_time": 30.062, "note_off_time": 30.775}, {"pitch": 74, "velocity": 100, "note_on_time": 30.061, "note_off_time": 31.485}, {"pitch": 42, "velocity": 100, "note_on_time": 30.775, "note_off_time": 31.486}, {"pitch": 76, "velocity": 100, "note_on_time": 31.485, "note_off_time": 32.2}, {"pitch": 42, "velocity": 100, "note_on_time": 31.486, "note_off_time": 32.201}, {"pitch": 77, "velocity": 100, "note_on_time": 32.2, "note_off_time": 32.913}, {"pitch": 39, "velocity": 100, "note_on_time": 32.201, "note_off_time": 32.913}, {"pitch": 74, "velocity": 100, "note_on_time": 32.913, "note_off_time": 33.63}, {"pitch": 42, "velocity": 100, "note_on_time": 32.913, "note_off_time": 33.63}, {"pitch": 71, "velocity": 100, "note_on_time": 33.63, "note_off_time": 34.345}, {"pitch": 42, "velocity": 100, "note_on_time": 33.63, "note_off_time": 34.345}, {"pitch": 67, "velocity": 100, "note_on_time": 34.345, "note_off_time": 35.058}, {"pitch": 39, "velocity": 100, "note_on_time": 34.346, "note_off_time": 35.059}, {"pitch": 69, "velocity": 100, "note_on_time": 35.058, "note_off_time": 35.772}, {"pitch": 42, "velocity": 100, "note_on_time": 35.059, "note_off_time": 35.772}, {"pitch": 71, "velocity": 100, "note_on_time": 35.772, "note_off_time": 36.49}, {"pitch": 42, "velocity": 100, "note_on_time": 35.772, "note_off_time": 36.49}, {"pitch": 39, "velocity": 100, "note_on_time": 36.491, "note_off_time": 37.206}, {"pitch": 72, "velocity": 100, "note_on_time": 36.49, "note_off_time": 37.924}, {"pitch": 42, "velocity": 100, "note_on_time": 37.207, "note_off_time": 37.924}, {"pitch": 42, "velocity": 100, "note_on_time": 37.925, "note_off_time": 38.641}]</notes><options name="Option List">((4, 4), [0.5, 0.25], 3, 7, &lt;NoteRangePerHand.TWO_NOTES: 3&gt;, &lt;NoteRangePerHand.ONE_NOTE: 2&gt;, False, True, True, None)</options></target_notes><trials><trial trial_no="1" timestamp="2023_05_14-13_04_47"><notes name="Played Notes">[{"pitch": 67, "velocity": 62, "note_on_time": 3.503, "note_off_time": 4.244}, {"pitch": 72, "velocity": 83, "note_on_time": 4.254, "note_off_time": 4.785}, {"pitch": 72, "velocity": 76, "note_on_time": 4.993, "note_off_time": 5.661}, {"pitch": 74, "velocity": 72, "note_on_time": 5.703, "note_off_time": 6.149}, {"pitch": 74, "velocity": 61, "note_on_time": 12.296, "note_off_time": 12.656}, {"pitch": 74, "velocity": 62, "note_on_time": 13.394, "note_off_time": 14.135}, {"pitch": 76, "velocity": 62, "note_on_time": 14.219, "note_off_time": 14.893}, {"pitch": 77, "velocity": 74, "note_on_time": 14.908, "note_off_time": 15.633}, {"pitch": 74, "velocity": 66, "note_on_time": 15.708, "note_off_time": 16.383}, {"pitch": 71, "velocity": 75, "note_on_time": 16.387, "note_off_time": 17.157}, {"pitch": 67, "velocity": 79, "note_on_time": 17.14, "note_off_time": 17.919}, {"pitch": 69, "velocity": 68, "note_on_time": 17.937, "note_off_time": 18.586}, {"pitch": 71, "velocity": 74, "note_on_time": 18.578, "note_off_time": 19.283}, {"pitch": 72, "velocity": 75, "note_on_time": 19.295, "note_off_time": 20.521}, {"pitch": 67, "velocity": 61, "note_on_time": 20.75, "note_off_time": 21.413}, {"pitch": 72, "velocity": 76, "note_on_time": 21.433, "note_off_time": 22.672}, {"pitch": 74, "velocity": 62, "note_on_time": 22.835, "note_off_time": 23.365}, {"pitch": 76, "velocity": 80, "note_on_time": 23.581, "note_off_time": 24.015}, {"pitch": 76, "velocity": 82, "note_on_time": 24.27, "note_off_time": 25.023}, {"pitch": 67, "velocity": 69, "note_on_time": 25.031, "note_off_time": 25.901}, {"pitch": 71, "velocity": 61, "note_on_time": 26.073, "note_off_time": 26.363}, {"pitch": 76, "velocity": 48, "note_on_time": 26.649, "note_off_time": 26.719}, {"pitch": 74, "velocity": 55, "note_on_time": 26.649, "note_off_time": 26.913}, {"pitch": 72, "velocity": 1, "note_on_time": 26.883, "note_off_time": 27.29}, {"pitch": 76, "velocity": 28, "note_on_time": 28.501, "note_off_time": 28.668}, {"pitch": 74, "velocity": 68, "note_on_time": 28.672, "note_off_time": 29.693}, {"pitch": 74, "velocity": 78, "note_on_time": 30.03, "note_off_time": 30.992}, {"pitch": 76, "velocity": 78, "note_on_time": 31.4, "note_off_time": 32.09}, {"pitch": 77, "velocity": 81, "note_on_time": 32.154, "note_off_time": 32.833}, {"pitch": 74, "velocity": 79, "note_on_time": 32.845, "note_off_time": 33.558}, {"pitch": 71, "velocity": 73, "note_on_time": 33.566, "note_off_time": 34.29}, {"pitch": 67, "velocity": 73, "note_on_time": 34.285, "note_off_time": 35.044}, {"pitch": 69, "velocity": 76, "note_on_time": 35.037, "note_off_time": 35.754}, {"pitch": 71, "velocity": 78, "note_on_time": 35.753, "note_off_time": 36.509}, {"pitch": 72, "velocity": 84, "note_on_time": 36.468, "note_off_time": 38.468}]</notes><guidance name="Guidance Mode">None</guidance><error name="Error value">0.9522102770981511</error></trial></trials></MIDI>