<MIDI midiNo="2023_05_14-12_24_45"><target_notes><notes name="Note List">[{"pitch": 39, "velocity": 100, "note_on_time": 0.006, "note_off_time": 0.72}, {"pitch": 42, "velocity": 100, "note_on_time": 0.72, "note_off_time": 1.437}, {"pitch": 42, "velocity": 100, "note_on_time": 1.438, "note_off_time": 2.159}, {"pitch": 42, "velocity": 100, "note_on_time": 2.159, "note_off_time": 2.871}, {"pitch": 60, "velocity": 100, "note_on_time": 2.871, "note_off_time": 3.585}, {"pitch": 39, "velocity": 100, "note_on_time": 2.871, "note_off_time": 3.585}, {"pitch": 64, "velocity": 100, "note_on_time": 3.585, "note_off_time": 4.298}, {"pitch": 42, "velocity": 100, "note_on_time": 3.585, "note_off_time": 4.298}, {"pitch": 60, "velocity": 100, "note_on_time": 4.298, "note_off_time": 5.008}, {"pitch": 42, "velocity": 100, "note_on_time": 4.298, "note_off_time": 5.008}, {"pitch": 67, "velocity": 100, "note_on_time": 5.008, "note_off_time": 5.72}, {"pitch": 42, "velocity": 100, "note_on_time": 5.008, "note_off_time": 5.72}, {"pitch": 64, "velocity": 100, "note_on_time": 5.72, "note_off_time": 6.427}, {"pitch": 39, "velocity": 100, "note_on_time": 5.72, "note_off_time": 6.427}, {"pitch": 42, "velocity": 100, "note_on_time": 6.427, "note_off_time": 7.135}, {"pitch": 60, "velocity": 100, "note_on_time": 6.427, "note_off_time": 7.851}, {"pitch": 42, "velocity": 100, "note_on_time": 7.135, "note_off_time": 7.851}, {"pitch": 67, "velocity": 100, "note_on_time": 7.851, "note_off_time": 8.565}, {"pitch": 42, "velocity": 100, "note_on_time": 7.851, "note_off_time": 8.565}, {"pitch": 64, "velocity": 100, "note_on_time": 8.565, "note_off_time": 9.28}, {"pitch": 39, "velocity": 100, "note_on_time": 8.565, "note_off_time": 9.28}, {"pitch": 60, "velocity": 100, "note_on_time": 9.28, "note_off_time": 9.995}, {"pitch": 42, "velocity": 100, "note_on_time": 9.281, "note_off_time": 9.995}, {"pitch": 67, "velocity": 100, "note_on_time": 9.995, "note_off_time": 10.71}, {"pitch": 42, "velocity": 100, "note_on_time": 9.995, "note_off_time": 10.711}, {"pitch": 64, "velocity": 100, "note_on_time": 10.71, "note_off_time": 11.425}, {"pitch": 42, "velocity": 100, "note_on_time": 10.711, "note_off_time": 11.426}, {"pitch": 60, "velocity": 100, "note_on_time": 11.425, "note_off_time": 12.144}, {"pitch": 39, "velocity": 100, "note_on_time": 11.426, "note_off_time": 12.144}, {"pitch": 67, "velocity": 100, "note_on_time": 12.144, "note_off_time": 12.86}, {"pitch": 42, "velocity": 100, "note_on_time": 12.145, "note_off_time": 12.86}, {"pitch": 42, "velocity": 100, "note_on_time": 12.861, "note_off_time": 13.577}, {"pitch": 64, "velocity": 100, "note_on_time": 12.86, "note_off_time": 14.293}, {"pitch": 42, "velocity": 100, "note_on_time": 13.577, "note_off_time": 14.294}, {"pitch": 67, "velocity": 100, "note_on_time": 14.293, "note_off_time": 15.012}, {"pitch": 39, "velocity": 100, "note_on_time": 14.294, "note_off_time": 15.013}, {"pitch": 64, "velocity": 100, "note_on_time": 15.012, "note_off_time": 15.728}, {"pitch": 42, "velocity": 100, "note_on_time": 15.013, "note_off_time": 15.728}, {"pitch": 67, "velocity": 100, "note_on_time": 15.728, "note_off_time": 16.446}, {"pitch": 42, "velocity": 100, "note_on_time": 15.728, "note_off_time": 16.446}, {"pitch": 60, "velocity": 100, "note_on_time": 16.446, "note_off_time": 17.159}, {"pitch": 42, "velocity": 100, "note_on_time": 16.446, "note_off_time": 17.159}, {"pitch": 67, "velocity": 100, "note_on_time": 17.159, "note_off_time": 17.873}, {"pitch": 39, "velocity": 100, "note_on_time": 17.159, "note_off_time": 17.874}, {"pitch": 60, "velocity": 100, "note_on_time": 17.873, "note_off_time": 18.591}, {"pitch": 42, "velocity": 100, "note_on_time": 17.874, "note_off_time": 18.591}, {"pitch": 42, "velocity": 100, "note_on_time": 18.591, "note_off_time": 19.306}, {"pitch": 64, "velocity": 100, "note_on_time": 18.591, "note_off_time": 20.02}, {"pitch": 42, "velocity": 100, "note_on_time": 19.307, "note_off_time": 20.02}, {"pitch": 60, "velocity": 100, "note_on_time": 20.02, "note_off_time": 20.736}, {"pitch": 39, "velocity": 100, "note_on_time": 20.02, "note_off_time": 20.736}, {"pitch": 42, "velocity": 100, "note_on_time": 20.736, "note_off_time": 21.451}, {"pitch": 64, "velocity": 100, "note_on_time": 20.736, "note_off_time": 22.167}, {"pitch": 42, "velocity": 100, "note_on_time": 21.451, "note_off_time": 22.167}, {"pitch": 67, "velocity": 100, "note_on_time": 22.167, "note_off_time": 22.887}, {"pitch": 42, "velocity": 100, "note_on_time": 22.168, "note_off_time": 22.888}, {"pitch": 39, "velocity": 100, "note_on_time": 22.888, "note_off_time": 23.604}, {"pitch": 42, "velocity": 100, "note_on_time": 23.604, "note_off_time": 24.319}, {"pitch": 42, "velocity": 100, "note_on_time": 24.319, "note_off_time": 25.034}, {"pitch": 60, "velocity": 100, "note_on_time": 22.887, "note_off_time": 25.747}, {"pitch": 42, "velocity": 100, "note_on_time": 25.034, "note_off_time": 25.748}]</notes><options name="Option List">((4, 4), [0.5, 0.25], 3, 7, &lt;NoteRangePerHand.TWO_NOTES: 3&gt;, &lt;NoteRangePerHand.ONE_NOTE: 2&gt;, False, True, True, None)</options></target_notes><trials><trial trial_no="1" timestamp="2023_05_14-12_24_45"><notes name="Played Notes">[{"pitch": 60, "velocity": 64, "note_on_time": 2.869, "note_off_time": 3.55}, {"pitch": 64, "velocity": 66, "note_on_time": 3.561, "note_off_time": 4.287}, {"pitch": 60, "velocity": 65, "note_on_time": 4.261, "note_off_time": 5.095}, {"pitch": 67, "velocity": 76, "note_on_time": 5.026, "note_off_time": 5.681}, {"pitch": 64, "velocity": 55, "note_on_time": 5.69, "note_off_time": 6.4}, {"pitch": 60, "velocity": 72, "note_on_time": 6.391, "note_off_time": 7.163}, {"pitch": 64, "velocity": 73, "note_on_time": 7.159, "note_off_time": 8.541}, {"pitch": 60, "velocity": 68, "note_on_time": 9.711, "note_off_time": 9.998}, {"pitch": 60, "velocity": 64, "note_on_time": 10.653, "note_off_time": 11.423}, {"pitch": 64, "velocity": 61, "note_on_time": 11.443, "note_off_time": 11.608}, {"pitch": 67, "velocity": 14, "note_on_time": 11.884, "note_off_time": 12.014}, {"pitch": 60, "velocity": 76, "note_on_time": 13.565, "note_off_time": 14.32}, {"pitch": 67, "velocity": 74, "note_on_time": 14.268, "note_off_time": 14.99}, {"pitch": 64, "velocity": 43, "note_on_time": 15.013, "note_off_time": 16.423}, {"pitch": 67, "velocity": 78, "note_on_time": 16.416, "note_off_time": 17.11}, {"pitch": 64, "velocity": 62, "note_on_time": 17.133, "note_off_time": 17.871}, {"pitch": 67, "velocity": 77, "note_on_time": 17.871, "note_off_time": 18.697}, {"pitch": 62, "velocity": 74, "note_on_time": 18.621, "note_off_time": 19.211}, {"pitch": 67, "velocity": 56, "note_on_time": 19.976, "note_off_time": 21.158}, {"pitch": 60, "velocity": 69, "note_on_time": 23.524, "note_off_time": 24.221}, {"pitch": 64, "velocity": 68, "note_on_time": 24.264, "note_off_time": 25.717}]</notes><guidance name="Guidance Mode">None</guidance><error name="Error value">1.08829121</error></trial></trials></MIDI>