<MIDI midiNo="2023_05_14-13_10_50"><target_notes><notes name="Note List">[{"pitch": 39, "velocity": 100, "note_on_time": 0.006, "note_off_time": 0.718}, {"pitch": 42, "velocity": 100, "note_on_time": 0.718, "note_off_time": 1.432}, {"pitch": 42, "velocity": 100, "note_on_time": 1.432, "note_off_time": 2.15}, {"pitch": 42, "velocity": 100, "note_on_time": 2.15, "note_off_time": 2.866}, {"pitch": 39, "velocity": 100, "note_on_time": 2.866, "note_off_time": 3.585}, {"pitch": 60, "velocity": 100, "note_on_time": 2.866, "note_off_time": 4.3}, {"pitch": 42, "velocity": 100, "note_on_time": 3.585, "note_off_time": 4.3}, {"pitch": 42, "velocity": 100, "note_on_time": 4.301, "note_off_time": 5.017}, {"pitch": 67, "velocity": 100, "note_on_time": 4.3, "note_off_time": 5.731}, {"pitch": 42, "velocity": 100, "note_on_time": 5.017, "note_off_time": 5.731}, {"pitch": 64, "velocity": 100, "note_on_time": 5.731, "note_off_time": 6.447}, {"pitch": 39, "velocity": 100, "note_on_time": 5.732, "note_off_time": 6.447}, {"pitch": 42, "velocity": 100, "note_on_time": 6.447, "note_off_time": 7.164}, {"pitch": 67, "velocity": 100, "note_on_time": 6.447, "note_off_time": 7.88}, {"pitch": 42, "velocity": 100, "note_on_time": 7.164, "note_off_time": 7.88}, {"pitch": 60, "velocity": 100, "note_on_time": 7.88, "note_off_time": 8.597}, {"pitch": 42, "velocity": 100, "note_on_time": 7.881, "note_off_time": 8.597}, {"pitch": 39, "velocity": 100, "note_on_time": 8.598, "note_off_time": 9.315}, {"pitch": 67, "velocity": 100, "note_on_time": 8.597, "note_off_time": 10.033}, {"pitch": 42, "velocity": 100, "note_on_time": 9.315, "note_off_time": 10.033}, {"pitch": 42, "velocity": 100, "note_on_time": 10.033, "note_off_time": 10.75}, {"pitch": 60, "velocity": 100, "note_on_time": 10.033, "note_off_time": 11.467}, {"pitch": 42, "velocity": 100, "note_on_time": 10.75, "note_off_time": 11.468}, {"pitch": 39, "velocity": 100, "note_on_time": 11.468, "note_off_time": 12.186}, {"pitch": 42, "velocity": 100, "note_on_time": 12.186, "note_off_time": 12.901}, {"pitch": 42, "velocity": 100, "note_on_time": 12.901, "note_off_time": 13.617}, {"pitch": 64, "velocity": 100, "note_on_time": 11.467, "note_off_time": 14.335}, {"pitch": 42, "velocity": 100, "note_on_time": 13.617, "note_off_time": 14.335}, {"pitch": 67, "velocity": 100, "note_on_time": 14.335, "note_off_time": 15.051}, {"pitch": 39, "velocity": 100, "note_on_time": 14.335, "note_off_time": 15.051}, {"pitch": 64, "velocity": 100, "note_on_time": 15.051, "note_off_time": 15.765}, {"pitch": 42, "velocity": 100, "note_on_time": 15.051, "note_off_time": 15.765}, {"pitch": 67, "velocity": 100, "note_on_time": 15.765, "note_off_time": 16.48}, {"pitch": 42, "velocity": 100, "note_on_time": 15.765, "note_off_time": 16.48}, {"pitch": 60, "velocity": 100, "note_on_time": 16.48, "note_off_time": 17.194}, {"pitch": 42, "velocity": 100, "note_on_time": 16.48, "note_off_time": 17.194}, {"pitch": 39, "velocity": 100, "note_on_time": 17.194, "note_off_time": 17.911}, {"pitch": 64, "velocity": 100, "note_on_time": 17.194, "note_off_time": 18.628}, {"pitch": 42, "velocity": 100, "note_on_time": 17.911, "note_off_time": 18.628}, {"pitch": 67, "velocity": 100, "note_on_time": 18.628, "note_off_time": 19.344}, {"pitch": 42, "velocity": 100, "note_on_time": 18.628, "note_off_time": 19.344}, {"pitch": 60, "velocity": 100, "note_on_time": 19.344, "note_off_time": 20.062}, {"pitch": 42, "velocity": 100, "note_on_time": 19.345, "note_off_time": 20.062}, {"pitch": 64, "velocity": 100, "note_on_time": 20.062, "note_off_time": 20.779}, {"pitch": 39, "velocity": 100, "note_on_time": 20.062, "note_off_time": 20.78}, {"pitch": 42, "velocity": 100, "note_on_time": 20.78, "note_off_time": 21.496}, {"pitch": 67, "velocity": 100, "note_on_time": 20.779, "note_off_time": 22.214}, {"pitch": 42, "velocity": 100, "note_on_time": 21.496, "note_off_time": 22.215}, {"pitch": 64, "velocity": 100, "note_on_time": 22.214, "note_off_time": 22.934}, {"pitch": 42, "velocity": 100, "note_on_time": 22.215, "note_off_time": 22.934}, {"pitch": 39, "velocity": 100, "note_on_time": 22.934, "note_off_time": 23.653}, {"pitch": 42, "velocity": 100, "note_on_time": 23.653, "note_off_time": 24.367}, {"pitch": 42, "velocity": 100, "note_on_time": 24.367, "note_off_time": 25.085}, {"pitch": 60, "velocity": 100, "note_on_time": 22.934, "note_off_time": 25.801}, {"pitch": 42, "velocity": 100, "note_on_time": 25.085, "note_off_time": 25.801}]</notes><options name="Option List">((4, 4), [0.5, 0.25], 3, 7, &lt;NoteRangePerHand.TWO_NOTES: 3&gt;, &lt;NoteRangePerHand.ONE_NOTE: 2&gt;, False, True, True, None)</options></target_notes><trials><trial trial_no="1" timestamp="2023_05_14-13_10_50"><notes name="Played Notes">[{"pitch": 60, "velocity": 73, "note_on_time": 2.883, "note_off_time": 4.214}, {"pitch": 67, "velocity": 69, "note_on_time": 4.254, "note_off_time": 5.688}, {"pitch": 64, "velocity": 79, "note_on_time": 5.734, "note_off_time": 6.483}, {"pitch": 67, "velocity": 77, "note_on_time": 6.482, "note_off_time": 7.245}, {"pitch": 60, "velocity": 79, "note_on_time": 7.262, "note_off_time": 8.54}, {"pitch": 64, "velocity": 64, "note_on_time": 8.597, "note_off_time": 9.302}, {"pitch": 60, "velocity": 59, "note_on_time": 10.012, "note_off_time": 11.331}, {"pitch": 64, "velocity": 69, "note_on_time": 11.446, "note_off_time": 14.282}, {"pitch": 67, "velocity": 69, "note_on_time": 14.319, "note_off_time": 15.001}, {"pitch": 64, "velocity": 61, "note_on_time": 15.058, "note_off_time": 15.748}, {"pitch": 67, "velocity": 62, "note_on_time": 15.743, "note_off_time": 16.458}, {"pitch": 60, "velocity": 71, "note_on_time": 16.468, "note_off_time": 17.145}, {"pitch": 64, "velocity": 70, "note_on_time": 17.21, "note_off_time": 18.599}, {"pitch": 67, "velocity": 74, "note_on_time": 18.608, "note_off_time": 19.457}, {"pitch": 60, "velocity": 86, "note_on_time": 19.495, "note_off_time": 20.052}, {"pitch": 64, "velocity": 74, "note_on_time": 20.147, "note_off_time": 20.775}, {"pitch": 67, "velocity": 67, "note_on_time": 20.778, "note_off_time": 21.897}, {"pitch": 60, "velocity": 68, "note_on_time": 22.174, "note_off_time": 22.825}]</notes><guidance name="Guidance Mode">None</guidance><error name="Error value">0.47744749356725186</error></trial></trials></MIDI>