<MIDI midiNo="2023_05_14-12_02_41"><target_notes><notes name="Note List">[{"pitch": 39, "velocity": 100, "note_on_time": 0.007, "note_off_time": 0.724}, {"pitch": 42, "velocity": 100, "note_on_time": 0.725, "note_off_time": 1.444}, {"pitch": 42, "velocity": 100, "note_on_time": 1.444, "note_off_time": 2.163}, {"pitch": 42, "velocity": 100, "note_on_time": 2.163, "note_off_time": 2.876}, {"pitch": 39, "velocity": 100, "note_on_time": 2.876, "note_off_time": 3.595}, {"pitch": 42, "velocity": 100, "note_on_time": 3.596, "note_off_time": 4.31}, {"pitch": 42, "velocity": 100, "note_on_time": 4.31, "note_off_time": 5.023}, {"pitch": 60, "velocity": 100, "note_on_time": 5.023, "note_off_time": 5.737}, {"pitch": 42, "velocity": 100, "note_on_time": 5.023, "note_off_time": 5.737}, {"pitch": 39, "velocity": 100, "note_on_time": 5.738, "note_off_time": 6.452}, {"pitch": 69, "velocity": 100, "note_on_time": 5.737, "note_off_time": 7.167}, {"pitch": 42, "velocity": 100, "note_on_time": 6.453, "note_off_time": 7.167}, {"pitch": 65, "velocity": 100, "note_on_time": 7.167, "note_off_time": 7.881}, {"pitch": 42, "velocity": 100, "note_on_time": 7.167, "note_off_time": 7.881}, {"pitch": 65, "velocity": 100, "note_on_time": 7.881, "note_off_time": 8.598}, {"pitch": 42, "velocity": 100, "note_on_time": 7.881, "note_off_time": 8.598}, {"pitch": 39, "velocity": 100, "note_on_time": 8.598, "note_off_time": 9.316}, {"pitch": 67, "velocity": 100, "note_on_time": 8.598, "note_off_time": 10.031}, {"pitch": 42, "velocity": 100, "note_on_time": 9.316, "note_off_time": 10.031}, {"pitch": 60, "velocity": 100, "note_on_time": 10.031, "note_off_time": 10.748}, {"pitch": 42, "velocity": 100, "note_on_time": 10.032, "note_off_time": 10.748}, {"pitch": 60, "velocity": 100, "note_on_time": 10.748, "note_off_time": 11.463}, {"pitch": 42, "velocity": 100, "note_on_time": 10.748, "note_off_time": 11.463}, {"pitch": 65, "velocity": 100, "note_on_time": 11.463, "note_off_time": 12.18}, {"pitch": 39, "velocity": 100, "note_on_time": 11.464, "note_off_time": 12.18}, {"pitch": 64, "velocity": 100, "note_on_time": 12.18, "note_off_time": 12.898}, {"pitch": 42, "velocity": 100, "note_on_time": 12.18, "note_off_time": 12.898}, {"pitch": 65, "velocity": 100, "note_on_time": 12.898, "note_off_time": 13.613}, {"pitch": 42, "velocity": 100, "note_on_time": 12.899, "note_off_time": 13.613}, {"pitch": 69, "velocity": 100, "note_on_time": 13.613, "note_off_time": 14.328}, {"pitch": 42, "velocity": 100, "note_on_time": 13.614, "note_off_time": 14.328}, {"pitch": 39, "velocity": 100, "note_on_time": 14.329, "note_off_time": 15.045}, {"pitch": 42, "velocity": 100, "note_on_time": 15.045, "note_off_time": 15.758}, {"pitch": 67, "velocity": 100, "note_on_time": 14.328, "note_off_time": 16.474}, {"pitch": 42, "velocity": 100, "note_on_time": 15.759, "note_off_time": 16.474}, {"pitch": 69, "velocity": 100, "note_on_time": 16.474, "note_off_time": 17.188}, {"pitch": 42, "velocity": 100, "note_on_time": 16.474, "note_off_time": 17.188}, {"pitch": 70, "velocity": 100, "note_on_time": 17.188, "note_off_time": 17.901}, {"pitch": 39, "velocity": 100, "note_on_time": 17.188, "note_off_time": 17.902}, {"pitch": 70, "velocity": 100, "note_on_time": 17.901, "note_off_time": 18.614}, {"pitch": 42, "velocity": 100, "note_on_time": 17.902, "note_off_time": 18.614}, {"pitch": 69, "velocity": 100, "note_on_time": 18.614, "note_off_time": 19.33}, {"pitch": 42, "velocity": 100, "note_on_time": 18.614, "note_off_time": 19.331}, {"pitch": 70, "velocity": 100, "note_on_time": 19.33, "note_off_time": 20.048}, {"pitch": 42, "velocity": 100, "note_on_time": 19.331, "note_off_time": 20.049}, {"pitch": 39, "velocity": 100, "note_on_time": 20.049, "note_off_time": 20.761}, {"pitch": 72, "velocity": 100, "note_on_time": 20.048, "note_off_time": 21.478}, {"pitch": 42, "velocity": 100, "note_on_time": 20.761, "note_off_time": 21.478}, {"pitch": 69, "velocity": 100, "note_on_time": 21.478, "note_off_time": 22.193}, {"pitch": 42, "velocity": 100, "note_on_time": 21.478, "note_off_time": 22.193}, {"pitch": 65, "velocity": 100, "note_on_time": 22.193, "note_off_time": 22.91}, {"pitch": 42, "velocity": 100, "note_on_time": 22.193, "note_off_time": 22.91}, {"pitch": 69, "velocity": 100, "note_on_time": 22.91, "note_off_time": 23.626}, {"pitch": 39, "velocity": 100, "note_on_time": 22.91, "note_off_time": 23.626}, {"pitch": 69, "velocity": 100, "note_on_time": 23.626, "note_off_time": 24.343}, {"pitch": 42, "velocity": 100, "note_on_time": 23.627, "note_off_time": 24.343}, {"pitch": 67, "velocity": 100, "note_on_time": 24.343, "note_off_time": 25.058}, {"pitch": 42, "velocity": 100, "note_on_time": 24.343, "note_off_time": 25.058}, {"pitch": 69, "velocity": 100, "note_on_time": 25.058, "note_off_time": 25.772}, {"pitch": 42, "velocity": 100, "note_on_time": 25.058, "note_off_time": 25.772}, {"pitch": 39, "velocity": 100, "note_on_time": 25.772, "note_off_time": 26.487}, {"pitch": 70, "velocity": 100, "note_on_time": 25.772, "note_off_time": 27.199}, {"pitch": 42, "velocity": 100, "note_on_time": 26.488, "note_off_time": 27.199}, {"pitch": 67, "velocity": 100, "note_on_time": 27.199, "note_off_time": 27.916}, {"pitch": 42, "velocity": 100, "note_on_time": 27.199, "note_off_time": 27.916}, {"pitch": 74, "velocity": 100, "note_on_time": 27.916, "note_off_time": 28.63}, {"pitch": 42, "velocity": 100, "note_on_time": 27.917, "note_off_time": 28.631}, {"pitch": 39, "velocity": 100, "note_on_time": 28.631, "note_off_time": 29.351}, {"pitch": 72, "velocity": 100, "note_on_time": 28.63, "note_off_time": 30.063}, {"pitch": 42, "velocity": 100, "note_on_time": 29.351, "note_off_time": 30.063}, {"pitch": 69, "velocity": 100, "note_on_time": 30.063, "note_off_time": 30.779}, {"pitch": 42, "velocity": 100, "note_on_time": 30.064, "note_off_time": 30.779}, {"pitch": 72, "velocity": 100, "note_on_time": 30.779, "note_off_time": 31.495}, {"pitch": 42, "velocity": 100, "note_on_time": 30.779, "note_off_time": 31.495}, {"pitch": 39, "velocity": 100, "note_on_time": 31.495, "note_off_time": 32.211}, {"pitch": 70, "velocity": 100, "note_on_time": 31.495, "note_off_time": 32.927}, {"pitch": 42, "velocity": 100, "note_on_time": 32.211, "note_off_time": 32.928}, {"pitch": 67, "velocity": 100, "note_on_time": 32.927, "note_off_time": 33.643}, {"pitch": 42, "velocity": 100, "note_on_time": 32.928, "note_off_time": 33.643}, {"pitch": 74, "velocity": 100, "note_on_time": 33.643, "note_off_time": 34.359}, {"pitch": 42, "velocity": 100, "note_on_time": 33.643, "note_off_time": 34.36}, {"pitch": 72, "velocity": 100, "note_on_time": 34.359, "note_off_time": 35.077}, {"pitch": 39, "velocity": 100, "note_on_time": 34.36, "note_off_time": 35.077}, {"pitch": 69, "velocity": 100, "note_on_time": 35.077, "note_off_time": 35.792}, {"pitch": 42, "velocity": 100, "note_on_time": 35.077, "note_off_time": 35.792}, {"pitch": 70, "velocity": 100, "note_on_time": 35.792, "note_off_time": 36.507}, {"pitch": 42, "velocity": 100, "note_on_time": 35.793, "note_off_time": 36.508}, {"pitch": 67, "velocity": 100, "note_on_time": 36.507, "note_off_time": 37.223}, {"pitch": 42, "velocity": 100, "note_on_time": 36.508, "note_off_time": 37.224}, {"pitch": 39, "velocity": 100, "note_on_time": 37.224, "note_off_time": 37.936}, {"pitch": 42, "velocity": 100, "note_on_time": 37.936, "note_off_time": 38.649}, {"pitch": 65, "velocity": 100, "note_on_time": 37.223, "note_off_time": 39.363}, {"pitch": 42, "velocity": 100, "note_on_time": 38.649, "note_off_time": 39.364}, {"pitch": 42, "velocity": 100, "note_on_time": 39.364, "note_off_time": 40.079}]</notes><options name="Option List">((4, 4), [0.5, 0.25], 3, 7, &lt;NoteRangePerHand.TWO_NOTES: 3&gt;, &lt;NoteRangePerHand.ONE_NOTE: 2&gt;, False, True, True, None)</options></target_notes><trials><trial trial_no="1" timestamp="2023_05_14-12_02_41"><notes name="Played Notes">[{"pitch": 60, "velocity": 75, "note_on_time": 5.037, "note_off_time": 5.59}, {"pitch": 69, "velocity": 80, "note_on_time": 5.75, "note_off_time": 6.59}, {"pitch": 65, "velocity": 70, "note_on_time": 7.292, "note_off_time": 7.749}, {"pitch": 67, "velocity": 54, "note_on_time": 7.947, "note_off_time": 9.138}, {"pitch": 67, "velocity": 55, "note_on_time": 9.445, "note_off_time": 9.855}, {"pitch": 60, "velocity": 61, "note_on_time": 10.098, "note_off_time": 10.513}, {"pitch": 60, "velocity": 82, "note_on_time": 10.848, "note_off_time": 11.699}, {"pitch": 64, "velocity": 71, "note_on_time": 11.606, "note_off_time": 12.18}, {"pitch": 62, "velocity": 57, "note_on_time": 13.057, "note_off_time": 13.841}, {"pitch": 64, "velocity": 59, "note_on_time": 13.788, "note_off_time": 14.565}, {"pitch": 65, "velocity": 77, "note_on_time": 14.487, "note_off_time": 15.168}, {"pitch": 65, "velocity": 74, "note_on_time": 15.241, "note_off_time": 15.346}, {"pitch": 64, "velocity": 36, "note_on_time": 15.23, "note_off_time": 15.849}, {"pitch": 67, "velocity": 41, "note_on_time": 16.148, "note_off_time": 16.248}, {"pitch": 65, "velocity": 51, "note_on_time": 16.149, "note_off_time": 18.418}, {"pitch": 70, "velocity": 69, "note_on_time": 20.726, "note_off_time": 21.362}, {"pitch": 70, "velocity": 64, "note_on_time": 21.474, "note_off_time": 22.11}, {"pitch": 69, "velocity": 74, "note_on_time": 22.234, "note_off_time": 23.068}, {"pitch": 70, "velocity": 61, "note_on_time": 22.938, "note_off_time": 23.335}, {"pitch": 71, "velocity": 54, "note_on_time": 23.692, "note_off_time": 23.819}, {"pitch": 72, "velocity": 58, "note_on_time": 23.697, "note_off_time": 25.135}, {"pitch": 72, "velocity": 81, "note_on_time": 25.807, "note_off_time": 27.078}, {"pitch": 71, "velocity": 73, "note_on_time": 29.392, "note_off_time": 29.785}, {"pitch": 72, "velocity": 52, "note_on_time": 29.961, "note_off_time": 30.465}, {"pitch": 72, "velocity": 78, "note_on_time": 30.753, "note_off_time": 31.39}, {"pitch": 71, "velocity": 79, "note_on_time": 31.554, "note_off_time": 33.725}]</notes><guidance name="Guidance Mode">None</guidance><error name="Error value">1.3692764668016197</error></trial></trials></MIDI>