<MIDI midiNo="2023_05_14-11_36_16"><target_notes><notes name="Note List">[{"pitch": 39, "velocity": 100, "note_on_time": 0.007, "note_off_time": 0.726}, {"pitch": 42, "velocity": 100, "note_on_time": 0.726, "note_off_time": 1.444}, {"pitch": 42, "velocity": 100, "note_on_time": 1.444, "note_off_time": 2.163}, {"pitch": 39, "velocity": 100, "note_on_time": 2.163, "note_off_time": 2.878}, {"pitch": 42, "velocity": 100, "note_on_time": 2.878, "note_off_time": 3.594}, {"pitch": 67, "velocity": 100, "note_on_time": 3.594, "note_off_time": 4.309}, {"pitch": 42, "velocity": 100, "note_on_time": 3.594, "note_off_time": 4.309}, {"pitch": 72, "velocity": 100, "note_on_time": 4.309, "note_off_time": 5.022}, {"pitch": 39, "velocity": 100, "note_on_time": 4.309, "note_off_time": 5.022}, {"pitch": 72, "velocity": 100, "note_on_time": 5.022, "note_off_time": 5.737}, {"pitch": 42, "velocity": 100, "note_on_time": 5.022, "note_off_time": 5.737}, {"pitch": 74, "velocity": 100, "note_on_time": 5.737, "note_off_time": 6.454}, {"pitch": 42, "velocity": 100, "note_on_time": 5.738, "note_off_time": 6.454}, {"pitch": 39, "velocity": 100, "note_on_time": 6.454, "note_off_time": 7.171}, {"pitch": 76, "velocity": 100, "note_on_time": 6.454, "note_off_time": 7.889}, {"pitch": 42, "velocity": 100, "note_on_time": 7.171, "note_off_time": 7.889}, {"pitch": 67, "velocity": 100, "note_on_time": 7.889, "note_off_time": 8.604}, {"pitch": 42, "velocity": 100, "note_on_time": 7.89, "note_off_time": 8.604}, {"pitch": 39, "velocity": 100, "note_on_time": 8.605, "note_off_time": 9.32}, {"pitch": 72, "velocity": 100, "note_on_time": 8.604, "note_off_time": 10.035}, {"pitch": 42, "velocity": 100, "note_on_time": 9.32, "note_off_time": 10.035}, {"pitch": 76, "velocity": 100, "note_on_time": 10.035, "note_off_time": 10.751}, {"pitch": 42, "velocity": 100, "note_on_time": 10.036, "note_off_time": 10.751}, {"pitch": 39, "velocity": 100, "note_on_time": 10.752, "note_off_time": 11.464}, {"pitch": 74, "velocity": 100, "note_on_time": 10.751, "note_off_time": 12.181}, {"pitch": 42, "velocity": 100, "note_on_time": 11.464, "note_off_time": 12.181}, {"pitch": 67, "velocity": 100, "note_on_time": 12.181, "note_off_time": 12.893}, {"pitch": 42, "velocity": 100, "note_on_time": 12.181, "note_off_time": 12.893}, {"pitch": 39, "velocity": 100, "note_on_time": 12.893, "note_off_time": 13.609}, {"pitch": 74, "velocity": 100, "note_on_time": 12.893, "note_off_time": 14.327}, {"pitch": 42, "velocity": 100, "note_on_time": 13.609, "note_off_time": 14.327}, {"pitch": 76, "velocity": 100, "note_on_time": 14.327, "note_off_time": 15.044}, {"pitch": 42, "velocity": 100, "note_on_time": 14.328, "note_off_time": 15.044}, {"pitch": 77, "velocity": 100, "note_on_time": 15.044, "note_off_time": 15.763}, {"pitch": 39, "velocity": 100, "note_on_time": 15.044, "note_off_time": 15.763}, {"pitch": 74, "velocity": 100, "note_on_time": 15.763, "note_off_time": 16.48}, {"pitch": 42, "velocity": 100, "note_on_time": 15.763, "note_off_time": 16.48}, {"pitch": 71, "velocity": 100, "note_on_time": 16.48, "note_off_time": 17.195}, {"pitch": 42, "velocity": 100, "note_on_time": 16.481, "note_off_time": 17.195}, {"pitch": 67, "velocity": 100, "note_on_time": 17.195, "note_off_time": 17.909}, {"pitch": 39, "velocity": 100, "note_on_time": 17.195, "note_off_time": 17.909}, {"pitch": 69, "velocity": 100, "note_on_time": 17.909, "note_off_time": 18.626}, {"pitch": 42, "velocity": 100, "note_on_time": 17.909, "note_off_time": 18.626}, {"pitch": 71, "velocity": 100, "note_on_time": 18.626, "note_off_time": 19.343}, {"pitch": 42, "velocity": 100, "note_on_time": 18.626, "note_off_time": 19.344}, {"pitch": 39, "velocity": 100, "note_on_time": 19.344, "note_off_time": 20.058}, {"pitch": 72, "velocity": 100, "note_on_time": 19.343, "note_off_time": 20.772}, {"pitch": 42, "velocity": 100, "note_on_time": 20.059, "note_off_time": 20.772}, {"pitch": 67, "velocity": 100, "note_on_time": 20.772, "note_off_time": 21.49}, {"pitch": 42, "velocity": 100, "note_on_time": 20.772, "note_off_time": 21.49}, {"pitch": 39, "velocity": 100, "note_on_time": 21.491, "note_off_time": 22.206}, {"pitch": 72, "velocity": 100, "note_on_time": 21.49, "note_off_time": 22.924}, {"pitch": 42, "velocity": 100, "note_on_time": 22.207, "note_off_time": 22.924}, {"pitch": 74, "velocity": 100, "note_on_time": 22.924, "note_off_time": 23.641}, {"pitch": 42, "velocity": 100, "note_on_time": 22.925, "note_off_time": 23.641}, {"pitch": 76, "velocity": 100, "note_on_time": 23.641, "note_off_time": 24.354}, {"pitch": 39, "velocity": 100, "note_on_time": 23.641, "note_off_time": 24.355}, {"pitch": 76, "velocity": 100, "note_on_time": 24.354, "note_off_time": 25.069}, {"pitch": 42, "velocity": 100, "note_on_time": 24.355, "note_off_time": 25.069}, {"pitch": 67, "velocity": 100, "note_on_time": 25.069, "note_off_time": 25.785}, {"pitch": 42, "velocity": 100, "note_on_time": 25.069, "note_off_time": 25.785}, {"pitch": 39, "velocity": 100, "note_on_time": 25.786, "note_off_time": 26.498}, {"pitch": 72, "velocity": 100, "note_on_time": 25.785, "note_off_time": 27.212}, {"pitch": 42, "velocity": 100, "note_on_time": 26.499, "note_off_time": 27.212}, {"pitch": 76, "velocity": 100, "note_on_time": 27.212, "note_off_time": 27.928}, {"pitch": 42, "velocity": 100, "note_on_time": 27.213, "note_off_time": 27.928}, {"pitch": 39, "velocity": 100, "note_on_time": 27.929, "note_off_time": 28.648}, {"pitch": 42, "velocity": 100, "note_on_time": 28.648, "note_off_time": 29.368}, {"pitch": 74, "velocity": 100, "note_on_time": 27.928, "note_off_time": 30.084}, {"pitch": 42, "velocity": 100, "note_on_time": 29.368, "note_off_time": 30.084}, {"pitch": 39, "velocity": 100, "note_on_time": 30.085, "note_off_time": 30.798}, {"pitch": 74, "velocity": 100, "note_on_time": 30.084, "note_off_time": 31.512}, {"pitch": 42, "velocity": 100, "note_on_time": 30.799, "note_off_time": 31.512}, {"pitch": 76, "velocity": 100, "note_on_time": 31.512, "note_off_time": 32.232}, {"pitch": 42, "velocity": 100, "note_on_time": 31.512, "note_off_time": 32.232}, {"pitch": 77, "velocity": 100, "note_on_time": 32.232, "note_off_time": 32.949}, {"pitch": 39, "velocity": 100, "note_on_time": 32.233, "note_off_time": 32.95}, {"pitch": 74, "velocity": 100, "note_on_time": 32.949, "note_off_time": 33.663}, {"pitch": 42, "velocity": 100, "note_on_time": 32.95, "note_off_time": 33.664}, {"pitch": 71, "velocity": 100, "note_on_time": 33.663, "note_off_time": 34.376}, {"pitch": 42, "velocity": 100, "note_on_time": 33.664, "note_off_time": 34.377}, {"pitch": 67, "velocity": 100, "note_on_time": 34.376, "note_off_time": 35.093}, {"pitch": 39, "velocity": 100, "note_on_time": 34.377, "note_off_time": 35.094}, {"pitch": 69, "velocity": 100, "note_on_time": 35.093, "note_off_time": 35.809}, {"pitch": 42, "velocity": 100, "note_on_time": 35.094, "note_off_time": 35.81}, {"pitch": 71, "velocity": 100, "note_on_time": 35.809, "note_off_time": 36.518}, {"pitch": 42, "velocity": 100, "note_on_time": 35.81, "note_off_time": 36.519}, {"pitch": 39, "velocity": 100, "note_on_time": 36.519, "note_off_time": 37.236}, {"pitch": 72, "velocity": 100, "note_on_time": 36.518, "note_off_time": 37.95}, {"pitch": 42, "velocity": 100, "note_on_time": 37.237, "note_off_time": 37.95}, {"pitch": 42, "velocity": 100, "note_on_time": 37.95, "note_off_time": 38.662}]</notes><options name="Option List">((4, 4), [0.5, 0.25], 3, 7, &lt;NoteRangePerHand.TWO_NOTES: 3&gt;, &lt;NoteRangePerHand.ONE_NOTE: 2&gt;, False, True, True, None)</options></target_notes><trials><trial trial_no="1" timestamp="2023_05_14-11_36_16"><notes name="Played Notes">[{"pitch": 67, "velocity": 53, "note_on_time": 2.897, "note_off_time": 3.54}, {"pitch": 72, "velocity": 39, "note_on_time": 3.585, "note_off_time": 3.978}, {"pitch": 72, "velocity": 84, "note_on_time": 4.252, "note_off_time": 4.963}, {"pitch": 74, "velocity": 80, "note_on_time": 4.958, "note_off_time": 5.641}, {"pitch": 76, "velocity": 73, "note_on_time": 5.658, "note_off_time": 7.123}, {"pitch": 67, "velocity": 61, "note_on_time": 7.142, "note_off_time": 7.828}, {"pitch": 72, "velocity": 72, "note_on_time": 7.8, "note_off_time": 9.388}, {"pitch": 76, "velocity": 61, "note_on_time": 9.344, "note_off_time": 10.073}, {"pitch": 74, "velocity": 84, "note_on_time": 10.018, "note_off_time": 11.368}, {"pitch": 74, "velocity": 1, "note_on_time": 12.258, "note_off_time": 13.42}, {"pitch": 77, "velocity": 59, "note_on_time": 13.625, "note_off_time": 13.67}, {"pitch": 76, "velocity": 60, "note_on_time": 13.619, "note_off_time": 14.51}, {"pitch": 74, "velocity": 73, "note_on_time": 14.272, "note_off_time": 14.554}, {"pitch": 72, "velocity": 71, "note_on_time": 18.537, "note_off_time": 19.721}, {"pitch": 67, "velocity": 65, "note_on_time": 20.011, "note_off_time": 20.792}, {"pitch": 72, "velocity": 75, "note_on_time": 20.743, "note_off_time": 22.108}, {"pitch": 74, "velocity": 72, "note_on_time": 22.121, "note_off_time": 22.828}, {"pitch": 76, "velocity": 72, "note_on_time": 22.838, "note_off_time": 23.413}, {"pitch": 76, "velocity": 62, "note_on_time": 23.555, "note_off_time": 24.321}, {"pitch": 65, "velocity": 73, "note_on_time": 24.317, "note_off_time": 24.671}, {"pitch": 69, "velocity": 48, "note_on_time": 24.901, "note_off_time": 25.154}, {"pitch": 67, "velocity": 52, "note_on_time": 24.889, "note_off_time": 25.212}, {"pitch": 74, "velocity": 77, "note_on_time": 27.848, "note_off_time": 29.554}, {"pitch": 74, "velocity": 78, "note_on_time": 30.043, "note_off_time": 31.232}, {"pitch": 76, "velocity": 62, "note_on_time": 31.401, "note_off_time": 32.164}, {"pitch": 77, "velocity": 74, "note_on_time": 32.196, "note_off_time": 32.831}, {"pitch": 74, "velocity": 74, "note_on_time": 32.918, "note_off_time": 33.637}, {"pitch": 71, "velocity": 72, "note_on_time": 33.583, "note_off_time": 34.319}, {"pitch": 67, "velocity": 64, "note_on_time": 34.329, "note_off_time": 34.997}, {"pitch": 69, "velocity": 72, "note_on_time": 35.014, "note_off_time": 35.744}, {"pitch": 71, "velocity": 66, "note_on_time": 35.74, "note_off_time": 36.365}, {"pitch": 72, "velocity": 80, "note_on_time": 36.463, "note_off_time": 38.364}]</notes><guidance name="Guidance Mode">None</guidance><error name="Error value">0.9460819665422</error></trial></trials></MIDI>