<MIDI midiNo="2023_05_14-12_54_21"><target_notes><notes name="Note List">[{"pitch": 39, "velocity": 100, "note_on_time": 0.007, "note_off_time": 0.727}, {"pitch": 42, "velocity": 100, "note_on_time": 0.727, "note_off_time": 1.441}, {"pitch": 42, "velocity": 100, "note_on_time": 1.441, "note_off_time": 2.16}, {"pitch": 39, "velocity": 100, "note_on_time": 2.16, "note_off_time": 2.874}, {"pitch": 42, "velocity": 100, "note_on_time": 2.875, "note_off_time": 3.59}, {"pitch": 67, "velocity": 100, "note_on_time": 3.589, "note_off_time": 4.305}, {"pitch": 42, "velocity": 100, "note_on_time": 3.59, "note_off_time": 4.306}, {"pitch": 72, "velocity": 100, "note_on_time": 4.305, "note_off_time": 5.019}, {"pitch": 39, "velocity": 100, "note_on_time": 4.306, "note_off_time": 5.02}, {"pitch": 72, "velocity": 100, "note_on_time": 5.019, "note_off_time": 5.735}, {"pitch": 42, "velocity": 100, "note_on_time": 5.02, "note_off_time": 5.735}, {"pitch": 74, "velocity": 100, "note_on_time": 5.735, "note_off_time": 6.449}, {"pitch": 42, "velocity": 100, "note_on_time": 5.735, "note_off_time": 6.45}, {"pitch": 39, "velocity": 100, "note_on_time": 6.45, "note_off_time": 7.165}, {"pitch": 76, "velocity": 100, "note_on_time": 6.449, "note_off_time": 7.878}, {"pitch": 42, "velocity": 100, "note_on_time": 7.165, "note_off_time": 7.878}, {"pitch": 67, "velocity": 100, "note_on_time": 7.878, "note_off_time": 8.594}, {"pitch": 42, "velocity": 100, "note_on_time": 7.878, "note_off_time": 8.594}, {"pitch": 39, "velocity": 100, "note_on_time": 8.595, "note_off_time": 9.308}, {"pitch": 72, "velocity": 100, "note_on_time": 8.594, "note_off_time": 10.024}, {"pitch": 42, "velocity": 100, "note_on_time": 9.308, "note_off_time": 10.024}, {"pitch": 76, "velocity": 100, "note_on_time": 10.024, "note_off_time": 10.739}, {"pitch": 42, "velocity": 100, "note_on_time": 10.024, "note_off_time": 10.739}, {"pitch": 39, "velocity": 100, "note_on_time": 10.739, "note_off_time": 11.455}, {"pitch": 74, "velocity": 100, "note_on_time": 10.739, "note_off_time": 12.17}, {"pitch": 42, "velocity": 100, "note_on_time": 11.455, "note_off_time": 12.171}, {"pitch": 67, "velocity": 100, "note_on_time": 12.17, "note_off_time": 12.888}, {"pitch": 42, "velocity": 100, "note_on_time": 12.171, "note_off_time": 12.888}, {"pitch": 39, "velocity": 100, "note_on_time": 12.889, "note_off_time": 13.602}, {"pitch": 74, "velocity": 100, "note_on_time": 12.888, "note_off_time": 14.32}, {"pitch": 42, "velocity": 100, "note_on_time": 13.602, "note_off_time": 14.32}, {"pitch": 76, "velocity": 100, "note_on_time": 14.32, "note_off_time": 15.035}, {"pitch": 42, "velocity": 100, "note_on_time": 14.32, "note_off_time": 15.035}, {"pitch": 77, "velocity": 100, "note_on_time": 15.035, "note_off_time": 15.748}, {"pitch": 39, "velocity": 100, "note_on_time": 15.036, "note_off_time": 15.748}, {"pitch": 74, "velocity": 100, "note_on_time": 15.748, "note_off_time": 16.466}, {"pitch": 42, "velocity": 100, "note_on_time": 15.748, "note_off_time": 16.466}, {"pitch": 71, "velocity": 100, "note_on_time": 16.466, "note_off_time": 17.183}, {"pitch": 42, "velocity": 100, "note_on_time": 16.466, "note_off_time": 17.183}, {"pitch": 67, "velocity": 100, "note_on_time": 17.183, "note_off_time": 17.898}, {"pitch": 39, "velocity": 100, "note_on_time": 17.184, "note_off_time": 17.898}, {"pitch": 69, "velocity": 100, "note_on_time": 17.898, "note_off_time": 18.612}, {"pitch": 42, "velocity": 100, "note_on_time": 17.898, "note_off_time": 18.613}, {"pitch": 71, "velocity": 100, "note_on_time": 18.612, "note_off_time": 19.329}, {"pitch": 42, "velocity": 100, "note_on_time": 18.613, "note_off_time": 19.329}, {"pitch": 39, "velocity": 100, "note_on_time": 19.33, "note_off_time": 20.045}, {"pitch": 72, "velocity": 100, "note_on_time": 19.329, "note_off_time": 20.762}, {"pitch": 42, "velocity": 100, "note_on_time": 20.045, "note_off_time": 20.762}, {"pitch": 67, "velocity": 100, "note_on_time": 20.762, "note_off_time": 21.48}, {"pitch": 42, "velocity": 100, "note_on_time": 20.762, "note_off_time": 21.48}, {"pitch": 39, "velocity": 100, "note_on_time": 21.481, "note_off_time": 22.197}, {"pitch": 72, "velocity": 100, "note_on_time": 21.48, "note_off_time": 22.911}, {"pitch": 42, "velocity": 100, "note_on_time": 22.197, "note_off_time": 22.911}, {"pitch": 74, "velocity": 100, "note_on_time": 22.911, "note_off_time": 23.627}, {"pitch": 42, "velocity": 100, "note_on_time": 22.911, "note_off_time": 23.628}, {"pitch": 76, "velocity": 100, "note_on_time": 23.627, "note_off_time": 24.344}, {"pitch": 39, "velocity": 100, "note_on_time": 23.628, "note_off_time": 24.344}, {"pitch": 76, "velocity": 100, "note_on_time": 24.344, "note_off_time": 25.06}, {"pitch": 42, "velocity": 100, "note_on_time": 24.344, "note_off_time": 25.061}, {"pitch": 67, "velocity": 100, "note_on_time": 25.06, "note_off_time": 25.778}, {"pitch": 42, "velocity": 100, "note_on_time": 25.061, "note_off_time": 25.779}, {"pitch": 39, "velocity": 100, "note_on_time": 25.779, "note_off_time": 26.494}, {"pitch": 72, "velocity": 100, "note_on_time": 25.778, "note_off_time": 27.207}, {"pitch": 42, "velocity": 100, "note_on_time": 26.495, "note_off_time": 27.207}, {"pitch": 76, "velocity": 100, "note_on_time": 27.207, "note_off_time": 27.924}, {"pitch": 42, "velocity": 100, "note_on_time": 27.207, "note_off_time": 27.924}, {"pitch": 39, "velocity": 100, "note_on_time": 27.925, "note_off_time": 28.64}, {"pitch": 42, "velocity": 100, "note_on_time": 28.64, "note_off_time": 29.356}, {"pitch": 74, "velocity": 100, "note_on_time": 27.924, "note_off_time": 30.073}, {"pitch": 42, "velocity": 100, "note_on_time": 29.356, "note_off_time": 30.073}, {"pitch": 39, "velocity": 100, "note_on_time": 30.073, "note_off_time": 30.788}, {"pitch": 74, "velocity": 100, "note_on_time": 30.073, "note_off_time": 31.504}, {"pitch": 42, "velocity": 100, "note_on_time": 30.789, "note_off_time": 31.505}, {"pitch": 76, "velocity": 100, "note_on_time": 31.504, "note_off_time": 32.221}, {"pitch": 42, "velocity": 100, "note_on_time": 31.505, "note_off_time": 32.221}, {"pitch": 77, "velocity": 100, "note_on_time": 32.221, "note_off_time": 32.941}, {"pitch": 39, "velocity": 100, "note_on_time": 32.221, "note_off_time": 32.941}, {"pitch": 74, "velocity": 100, "note_on_time": 32.941, "note_off_time": 33.658}, {"pitch": 42, "velocity": 100, "note_on_time": 32.941, "note_off_time": 33.659}, {"pitch": 71, "velocity": 100, "note_on_time": 33.658, "note_off_time": 34.374}, {"pitch": 42, "velocity": 100, "note_on_time": 33.659, "note_off_time": 34.374}, {"pitch": 67, "velocity": 100, "note_on_time": 34.374, "note_off_time": 35.085}, {"pitch": 39, "velocity": 100, "note_on_time": 34.375, "note_off_time": 35.085}, {"pitch": 69, "velocity": 100, "note_on_time": 35.085, "note_off_time": 35.799}, {"pitch": 42, "velocity": 100, "note_on_time": 35.086, "note_off_time": 35.8}, {"pitch": 71, "velocity": 100, "note_on_time": 35.799, "note_off_time": 36.516}, {"pitch": 42, "velocity": 100, "note_on_time": 35.8, "note_off_time": 36.516}, {"pitch": 39, "velocity": 100, "note_on_time": 36.516, "note_off_time": 37.23}, {"pitch": 72, "velocity": 100, "note_on_time": 36.516, "note_off_time": 37.946}, {"pitch": 42, "velocity": 100, "note_on_time": 37.23, "note_off_time": 37.946}, {"pitch": 42, "velocity": 100, "note_on_time": 37.947, "note_off_time": 38.662}]</notes><options name="Option List">((4, 4), [0.5, 0.25], 3, 7, &lt;NoteRangePerHand.TWO_NOTES: 3&gt;, &lt;NoteRangePerHand.ONE_NOTE: 2&gt;, False, True, True, None)</options></target_notes><trials><trial trial_no="1" timestamp="2023_05_14-12_54_21"><notes name="Played Notes">[{"pitch": 67, "velocity": 64, "note_on_time": 3.57, "note_off_time": 4.279}, {"pitch": 74, "velocity": 44, "note_on_time": 4.457, "note_off_time": 4.578}, {"pitch": 72, "velocity": 55, "note_on_time": 4.458, "note_off_time": 4.881}, {"pitch": 72, "velocity": 71, "note_on_time": 5.083, "note_off_time": 5.499}, {"pitch": 74, "velocity": 64, "note_on_time": 5.689, "note_off_time": 6.301}, {"pitch": 76, "velocity": 27, "note_on_time": 6.316, "note_off_time": 7.779}, {"pitch": 67, "velocity": 69, "note_on_time": 7.849, "note_off_time": 8.765}, {"pitch": 71, "velocity": 75, "note_on_time": 9.305, "note_off_time": 9.613}, {"pitch": 72, "velocity": 66, "note_on_time": 10.056, "note_off_time": 10.298}, {"pitch": 76, "velocity": 29, "note_on_time": 10.791, "note_off_time": 11.3}, {"pitch": 74, "velocity": 61, "note_on_time": 11.423, "note_off_time": 12.323}, {"pitch": 67, "velocity": 61, "note_on_time": 12.808, "note_off_time": 13.745}, {"pitch": 76, "velocity": 70, "note_on_time": 13.689, "note_off_time": 13.937}, {"pitch": 72, "velocity": 44, "note_on_time": 14.345, "note_off_time": 14.54}, {"pitch": 76, "velocity": 60, "note_on_time": 15.067, "note_off_time": 15.205}, {"pitch": 77, "velocity": 67, "note_on_time": 15.61, "note_off_time": 16.741}, {"pitch": 72, "velocity": 49, "note_on_time": 17.088, "note_off_time": 17.344}, {"pitch": 69, "velocity": 39, "note_on_time": 17.836, "note_off_time": 18.009}, {"pitch": 67, "velocity": 77, "note_on_time": 21.432, "note_off_time": 22.173}, {"pitch": 67, "velocity": 52, "note_on_time": 24.094, "note_off_time": 24.329}, {"pitch": 72, "velocity": 53, "note_on_time": 30.08, "note_off_time": 30.326}, {"pitch": 76, "velocity": 28, "note_on_time": 30.815, "note_off_time": 30.935}, {"pitch": 77, "velocity": 28, "note_on_time": 30.791, "note_off_time": 31.049}]</notes><guidance name="Guidance Mode">None</guidance><error name="Error value">1.8139350891417756</error></trial></trials></MIDI>