<MIDI midiNo="2023_05_14-11_50_29"><target_notes><notes name="Note List">[{"pitch": 39, "velocity": 100, "note_on_time": 0.007, "note_off_time": 0.725}, {"pitch": 42, "velocity": 100, "note_on_time": 0.725, "note_off_time": 1.438}, {"pitch": 42, "velocity": 100, "note_on_time": 1.438, "note_off_time": 2.154}, {"pitch": 42, "velocity": 100, "note_on_time": 2.154, "note_off_time": 2.868}, {"pitch": 39, "velocity": 100, "note_on_time": 2.868, "note_off_time": 3.584}, {"pitch": 42, "velocity": 100, "note_on_time": 3.584, "note_off_time": 4.297}, {"pitch": 42, "velocity": 100, "note_on_time": 4.297, "note_off_time": 5.012}, {"pitch": 60, "velocity": 100, "note_on_time": 5.011, "note_off_time": 5.729}, {"pitch": 42, "velocity": 100, "note_on_time": 5.012, "note_off_time": 5.73}, {"pitch": 39, "velocity": 100, "note_on_time": 5.73, "note_off_time": 6.441}, {"pitch": 69, "velocity": 100, "note_on_time": 5.729, "note_off_time": 7.156}, {"pitch": 42, "velocity": 100, "note_on_time": 6.441, "note_off_time": 7.157}, {"pitch": 65, "velocity": 100, "note_on_time": 7.156, "note_off_time": 7.869}, {"pitch": 42, "velocity": 100, "note_on_time": 7.157, "note_off_time": 7.869}, {"pitch": 65, "velocity": 100, "note_on_time": 7.869, "note_off_time": 8.584}, {"pitch": 42, "velocity": 100, "note_on_time": 7.87, "note_off_time": 8.584}, {"pitch": 39, "velocity": 100, "note_on_time": 8.585, "note_off_time": 9.299}, {"pitch": 67, "velocity": 100, "note_on_time": 8.584, "note_off_time": 10.011}, {"pitch": 42, "velocity": 100, "note_on_time": 9.299, "note_off_time": 10.011}, {"pitch": 60, "velocity": 100, "note_on_time": 10.011, "note_off_time": 10.728}, {"pitch": 42, "velocity": 100, "note_on_time": 10.011, "note_off_time": 10.728}, {"pitch": 60, "velocity": 100, "note_on_time": 10.728, "note_off_time": 11.442}, {"pitch": 42, "velocity": 100, "note_on_time": 10.729, "note_off_time": 11.443}, {"pitch": 65, "velocity": 100, "note_on_time": 11.442, "note_off_time": 12.157}, {"pitch": 39, "velocity": 100, "note_on_time": 11.443, "note_off_time": 12.157}, {"pitch": 64, "velocity": 100, "note_on_time": 12.157, "note_off_time": 12.872}, {"pitch": 42, "velocity": 100, "note_on_time": 12.157, "note_off_time": 12.873}, {"pitch": 65, "velocity": 100, "note_on_time": 12.872, "note_off_time": 13.588}, {"pitch": 42, "velocity": 100, "note_on_time": 12.873, "note_off_time": 13.588}, {"pitch": 69, "velocity": 100, "note_on_time": 13.588, "note_off_time": 14.304}, {"pitch": 42, "velocity": 100, "note_on_time": 13.589, "note_off_time": 14.305}, {"pitch": 39, "velocity": 100, "note_on_time": 14.305, "note_off_time": 15.019}, {"pitch": 42, "velocity": 100, "note_on_time": 15.019, "note_off_time": 15.736}, {"pitch": 67, "velocity": 100, "note_on_time": 14.304, "note_off_time": 16.451}, {"pitch": 42, "velocity": 100, "note_on_time": 15.736, "note_off_time": 16.451}, {"pitch": 69, "velocity": 100, "note_on_time": 16.451, "note_off_time": 17.168}, {"pitch": 42, "velocity": 100, "note_on_time": 16.452, "note_off_time": 17.168}, {"pitch": 70, "velocity": 100, "note_on_time": 17.168, "note_off_time": 17.884}, {"pitch": 39, "velocity": 100, "note_on_time": 17.168, "note_off_time": 17.885}, {"pitch": 70, "velocity": 100, "note_on_time": 17.884, "note_off_time": 18.6}, {"pitch": 42, "velocity": 100, "note_on_time": 17.885, "note_off_time": 18.6}, {"pitch": 69, "velocity": 100, "note_on_time": 18.6, "note_off_time": 19.319}, {"pitch": 42, "velocity": 100, "note_on_time": 18.601, "note_off_time": 19.319}, {"pitch": 70, "velocity": 100, "note_on_time": 19.319, "note_off_time": 20.037}, {"pitch": 42, "velocity": 100, "note_on_time": 19.319, "note_off_time": 20.037}, {"pitch": 39, "velocity": 100, "note_on_time": 20.037, "note_off_time": 20.756}, {"pitch": 72, "velocity": 100, "note_on_time": 20.037, "note_off_time": 21.47}, {"pitch": 42, "velocity": 100, "note_on_time": 20.756, "note_off_time": 21.471}, {"pitch": 69, "velocity": 100, "note_on_time": 21.47, "note_off_time": 22.187}, {"pitch": 42, "velocity": 100, "note_on_time": 21.471, "note_off_time": 22.187}, {"pitch": 65, "velocity": 100, "note_on_time": 22.187, "note_off_time": 22.905}, {"pitch": 42, "velocity": 100, "note_on_time": 22.187, "note_off_time": 22.905}, {"pitch": 69, "velocity": 100, "note_on_time": 22.905, "note_off_time": 23.622}, {"pitch": 39, "velocity": 100, "note_on_time": 22.905, "note_off_time": 23.622}, {"pitch": 69, "velocity": 100, "note_on_time": 23.622, "note_off_time": 24.34}, {"pitch": 42, "velocity": 100, "note_on_time": 23.622, "note_off_time": 24.34}, {"pitch": 67, "velocity": 100, "note_on_time": 24.34, "note_off_time": 25.056}, {"pitch": 42, "velocity": 100, "note_on_time": 24.34, "note_off_time": 25.057}, {"pitch": 69, "velocity": 100, "note_on_time": 25.056, "note_off_time": 25.776}, {"pitch": 42, "velocity": 100, "note_on_time": 25.057, "note_off_time": 25.776}, {"pitch": 39, "velocity": 100, "note_on_time": 25.777, "note_off_time": 26.492}, {"pitch": 70, "velocity": 100, "note_on_time": 25.776, "note_off_time": 27.209}, {"pitch": 42, "velocity": 100, "note_on_time": 26.492, "note_off_time": 27.209}, {"pitch": 67, "velocity": 100, "note_on_time": 27.209, "note_off_time": 27.924}, {"pitch": 42, "velocity": 100, "note_on_time": 27.21, "note_off_time": 27.925}, {"pitch": 74, "velocity": 100, "note_on_time": 27.924, "note_off_time": 28.639}, {"pitch": 42, "velocity": 100, "note_on_time": 27.925, "note_off_time": 28.64}, {"pitch": 39, "velocity": 100, "note_on_time": 28.64, "note_off_time": 29.355}, {"pitch": 72, "velocity": 100, "note_on_time": 28.639, "note_off_time": 30.069}, {"pitch": 42, "velocity": 100, "note_on_time": 29.355, "note_off_time": 30.069}, {"pitch": 69, "velocity": 100, "note_on_time": 30.069, "note_off_time": 30.785}, {"pitch": 42, "velocity": 100, "note_on_time": 30.069, "note_off_time": 30.786}, {"pitch": 72, "velocity": 100, "note_on_time": 30.785, "note_off_time": 31.503}, {"pitch": 42, "velocity": 100, "note_on_time": 30.786, "note_off_time": 31.504}, {"pitch": 39, "velocity": 100, "note_on_time": 31.504, "note_off_time": 32.218}, {"pitch": 70, "velocity": 100, "note_on_time": 31.503, "note_off_time": 32.933}, {"pitch": 42, "velocity": 100, "note_on_time": 32.219, "note_off_time": 32.933}, {"pitch": 67, "velocity": 100, "note_on_time": 32.933, "note_off_time": 33.648}, {"pitch": 42, "velocity": 100, "note_on_time": 32.934, "note_off_time": 33.648}, {"pitch": 74, "velocity": 100, "note_on_time": 33.648, "note_off_time": 34.362}, {"pitch": 42, "velocity": 100, "note_on_time": 33.648, "note_off_time": 34.362}, {"pitch": 72, "velocity": 100, "note_on_time": 34.362, "note_off_time": 35.08}, {"pitch": 39, "velocity": 100, "note_on_time": 34.363, "note_off_time": 35.08}, {"pitch": 69, "velocity": 100, "note_on_time": 35.08, "note_off_time": 35.793}, {"pitch": 42, "velocity": 100, "note_on_time": 35.08, "note_off_time": 35.793}, {"pitch": 70, "velocity": 100, "note_on_time": 35.793, "note_off_time": 36.509}, {"pitch": 42, "velocity": 100, "note_on_time": 35.793, "note_off_time": 36.51}, {"pitch": 67, "velocity": 100, "note_on_time": 36.509, "note_off_time": 37.225}, {"pitch": 42, "velocity": 100, "note_on_time": 36.51, "note_off_time": 37.225}, {"pitch": 39, "velocity": 100, "note_on_time": 37.226, "note_off_time": 37.939}, {"pitch": 42, "velocity": 100, "note_on_time": 37.94, "note_off_time": 38.652}, {"pitch": 65, "velocity": 100, "note_on_time": 37.225, "note_off_time": 39.368}, {"pitch": 42, "velocity": 100, "note_on_time": 38.652, "note_off_time": 39.368}, {"pitch": 42, "velocity": 100, "note_on_time": 39.369, "note_off_time": 40.08}]</notes><options name="Option List">((4, 4), [0.5, 0.25], 3, 7, &lt;NoteRangePerHand.TWO_NOTES: 3&gt;, &lt;NoteRangePerHand.ONE_NOTE: 2&gt;, False, True, True, None)</options></target_notes><trials><trial trial_no="1" timestamp="2023_05_14-11_50_29"><notes name="Played Notes">[{"pitch": 60, "velocity": 40, "note_on_time": 5.007, "note_off_time": 5.757}, {"pitch": 64, "velocity": 55, "note_on_time": 6.095, "note_off_time": 7.432}, {"pitch": 62, "velocity": 66, "note_on_time": 8.623, "note_off_time": 10.741}, {"pitch": 60, "velocity": 74, "note_on_time": 11.776, "note_off_time": 12.416}, {"pitch": 60, "velocity": 75, "note_on_time": 12.664, "note_off_time": 14.233}, {"pitch": 65, "velocity": 71, "note_on_time": 16.712, "note_off_time": 17.276}, {"pitch": 60, "velocity": 67, "note_on_time": 20.703, "note_off_time": 21.21}, {"pitch": 60, "velocity": 62, "note_on_time": 21.409, "note_off_time": 22.277}, {"pitch": 60, "velocity": 32, "note_on_time": 29.463, "note_off_time": 31.439}, {"pitch": 62, "velocity": 55, "note_on_time": 31.506, "note_off_time": 32.884}, {"pitch": 64, "velocity": 64, "note_on_time": 35.006, "note_off_time": 35.878}, {"pitch": 62, "velocity": 55, "note_on_time": 35.889, "note_off_time": 36.689}]</notes><guidance name="Guidance Mode">None</guidance><error name="Error value">1.8138052666666669</error></trial></trials></MIDI>