<MIDI midiNo="2023_05_14-11_07_03"><target_notes><notes name="Note List">[{"pitch": 39, "velocity": 100, "note_on_time": 0.004, "note_off_time": 0.717}, {"pitch": 42, "velocity": 100, "note_on_time": 0.717, "note_off_time": 1.431}, {"pitch": 42, "velocity": 100, "note_on_time": 1.431, "note_off_time": 2.149}, {"pitch": 42, "velocity": 100, "note_on_time": 2.149, "note_off_time": 2.862}, {"pitch": 39, "velocity": 100, "note_on_time": 2.862, "note_off_time": 3.578}, {"pitch": 60, "velocity": 100, "note_on_time": 2.862, "note_off_time": 4.292}, {"pitch": 42, "velocity": 100, "note_on_time": 3.579, "note_off_time": 4.292}, {"pitch": 42, "velocity": 100, "note_on_time": 4.292, "note_off_time": 5.007}, {"pitch": 60, "velocity": 100, "note_on_time": 4.292, "note_off_time": 5.724}, {"pitch": 42, "velocity": 100, "note_on_time": 5.007, "note_off_time": 5.724}, {"pitch": 39, "velocity": 100, "note_on_time": 5.724, "note_off_time": 6.439}, {"pitch": 64, "velocity": 100, "note_on_time": 5.724, "note_off_time": 7.154}, {"pitch": 42, "velocity": 100, "note_on_time": 6.44, "note_off_time": 7.154}, {"pitch": 42, "velocity": 100, "note_on_time": 7.155, "note_off_time": 7.869}, {"pitch": 64, "velocity": 100, "note_on_time": 7.154, "note_off_time": 8.586}, {"pitch": 42, "velocity": 100, "note_on_time": 7.869, "note_off_time": 8.586}, {"pitch": 39, "velocity": 100, "note_on_time": 8.586, "note_off_time": 9.303}, {"pitch": 60, "velocity": 100, "note_on_time": 8.586, "note_off_time": 10.02}, {"pitch": 42, "velocity": 100, "note_on_time": 9.303, "note_off_time": 10.02}, {"pitch": 42, "velocity": 100, "note_on_time": 10.02, "note_off_time": 10.736}, {"pitch": 60, "velocity": 100, "note_on_time": 10.02, "note_off_time": 11.454}, {"pitch": 42, "velocity": 100, "note_on_time": 10.736, "note_off_time": 11.454}, {"pitch": 39, "velocity": 100, "note_on_time": 11.454, "note_off_time": 12.171}, {"pitch": 64, "velocity": 100, "note_on_time": 11.454, "note_off_time": 12.883}, {"pitch": 42, "velocity": 100, "note_on_time": 12.171, "note_off_time": 12.883}, {"pitch": 42, "velocity": 100, "note_on_time": 12.883, "note_off_time": 13.599}, {"pitch": 64, "velocity": 100, "note_on_time": 12.883, "note_off_time": 14.313}, {"pitch": 42, "velocity": 100, "note_on_time": 13.6, "note_off_time": 14.313}, {"pitch": 39, "velocity": 100, "note_on_time": 14.314, "note_off_time": 15.029}, {"pitch": 67, "velocity": 100, "note_on_time": 14.313, "note_off_time": 15.747}, {"pitch": 42, "velocity": 100, "note_on_time": 15.029, "note_off_time": 15.747}, {"pitch": 42, "velocity": 100, "note_on_time": 15.747, "note_off_time": 16.461}, {"pitch": 67, "velocity": 100, "note_on_time": 15.747, "note_off_time": 17.173}, {"pitch": 42, "velocity": 100, "note_on_time": 16.461, "note_off_time": 17.173}, {"pitch": 39, "velocity": 100, "note_on_time": 17.173, "note_off_time": 17.887}, {"pitch": 64, "velocity": 100, "note_on_time": 17.173, "note_off_time": 18.606}, {"pitch": 42, "velocity": 100, "note_on_time": 17.888, "note_off_time": 18.606}, {"pitch": 42, "velocity": 100, "note_on_time": 18.607, "note_off_time": 19.32}, {"pitch": 64, "velocity": 100, "note_on_time": 18.606, "note_off_time": 20.036}, {"pitch": 42, "velocity": 100, "note_on_time": 19.32, "note_off_time": 20.036}, {"pitch": 39, "velocity": 100, "note_on_time": 20.036, "note_off_time": 20.751}, {"pitch": 60, "velocity": 100, "note_on_time": 20.036, "note_off_time": 21.465}, {"pitch": 42, "velocity": 100, "note_on_time": 20.751, "note_off_time": 21.465}, {"pitch": 42, "velocity": 100, "note_on_time": 21.465, "note_off_time": 22.18}, {"pitch": 60, "velocity": 100, "note_on_time": 21.465, "note_off_time": 22.895}, {"pitch": 42, "velocity": 100, "note_on_time": 22.18, "note_off_time": 22.896}, {"pitch": 39, "velocity": 100, "note_on_time": 22.896, "note_off_time": 23.611}, {"pitch": 42, "velocity": 100, "note_on_time": 23.611, "note_off_time": 24.323}, {"pitch": 42, "velocity": 100, "note_on_time": 24.323, "note_off_time": 25.036}, {"pitch": 60, "velocity": 100, "note_on_time": 22.895, "note_off_time": 25.751}, {"pitch": 42, "velocity": 100, "note_on_time": 25.037, "note_off_time": 25.751}]</notes><options name="Option List">((4, 4), [0.5, 0.25], 3, 7, &lt;NoteRangePerHand.TWO_NOTES: 3&gt;, &lt;NoteRangePerHand.ONE_NOTE: 2&gt;, False, True, True, None)</options></target_notes><trials><trial trial_no="1" timestamp="2023_05_14-11_07_03"><notes name="Played Notes">[{"pitch": 60, "velocity": 21, "note_on_time": 3.004, "note_off_time": 4.06}, {"pitch": 60, "velocity": 84, "note_on_time": 4.359, "note_off_time": 5.485}, {"pitch": 64, "velocity": 70, "note_on_time": 5.753, "note_off_time": 6.865}, {"pitch": 64, "velocity": 76, "note_on_time": 7.142, "note_off_time": 8.047}, {"pitch": 60, "velocity": 77, "note_on_time": 8.577, "note_off_time": 9.68}, {"pitch": 60, "velocity": 75, "note_on_time": 9.984, "note_off_time": 11.03}, {"pitch": 64, "velocity": 79, "note_on_time": 11.405, "note_off_time": 12.616}, {"pitch": 64, "velocity": 82, "note_on_time": 12.904, "note_off_time": 13.868}, {"pitch": 67, "velocity": 73, "note_on_time": 14.352, "note_off_time": 15.578}, {"pitch": 67, "velocity": 68, "note_on_time": 15.797, "note_off_time": 17.023}, {"pitch": 64, "velocity": 61, "note_on_time": 17.267, "note_off_time": 18.296}, {"pitch": 64, "velocity": 86, "note_on_time": 18.646, "note_off_time": 19.636}, {"pitch": 60, "velocity": 84, "note_on_time": 20.063, "note_off_time": 21.02}, {"pitch": 60, "velocity": 77, "note_on_time": 21.478, "note_off_time": 22.577}, {"pitch": 60, "velocity": 77, "note_on_time": 22.922, "note_off_time": 25.184}]</notes><guidance name="Guidance Mode">None</guidance><error name="Error value">0.16010186666666637</error></trial></trials></MIDI>