<MIDI midiNo="2023_05_14-13_10_15"><target_notes><notes name="Note List">[{"pitch": 39, "velocity": 100, "note_on_time": 0.005, "note_off_time": 0.714}, {"pitch": 42, "velocity": 100, "note_on_time": 0.715, "note_off_time": 1.432}, {"pitch": 42, "velocity": 100, "note_on_time": 1.432, "note_off_time": 2.148}, {"pitch": 42, "velocity": 100, "note_on_time": 2.148, "note_off_time": 2.862}, {"pitch": 39, "velocity": 100, "note_on_time": 2.862, "note_off_time": 3.58}, {"pitch": 62, "velocity": 100, "note_on_time": 2.861, "note_off_time": 4.293}, {"pitch": 42, "velocity": 100, "note_on_time": 3.58, "note_off_time": 4.293}, {"pitch": 42, "velocity": 100, "note_on_time": 4.293, "note_off_time": 5.008}, {"pitch": 62, "velocity": 100, "note_on_time": 4.293, "note_off_time": 5.724}, {"pitch": 42, "velocity": 100, "note_on_time": 5.008, "note_off_time": 5.724}, {"pitch": 62, "velocity": 100, "note_on_time": 5.724, "note_off_time": 6.439}, {"pitch": 39, "velocity": 100, "note_on_time": 5.724, "note_off_time": 6.439}, {"pitch": 42, "velocity": 100, "note_on_time": 6.439, "note_off_time": 7.158}, {"pitch": 62, "velocity": 100, "note_on_time": 6.439, "note_off_time": 7.873}, {"pitch": 42, "velocity": 100, "note_on_time": 7.158, "note_off_time": 7.873}, {"pitch": 62, "velocity": 100, "note_on_time": 7.873, "note_off_time": 8.59}, {"pitch": 42, "velocity": 100, "note_on_time": 7.873, "note_off_time": 8.59}, {"pitch": 39, "velocity": 100, "note_on_time": 8.591, "note_off_time": 9.306}, {"pitch": 62, "velocity": 100, "note_on_time": 8.59, "note_off_time": 10.02}, {"pitch": 42, "velocity": 100, "note_on_time": 9.306, "note_off_time": 10.02}, {"pitch": 42, "velocity": 100, "note_on_time": 10.021, "note_off_time": 10.736}, {"pitch": 62, "velocity": 100, "note_on_time": 10.02, "note_off_time": 11.451}, {"pitch": 42, "velocity": 100, "note_on_time": 10.737, "note_off_time": 11.452}, {"pitch": 39, "velocity": 100, "note_on_time": 11.452, "note_off_time": 12.167}, {"pitch": 42, "velocity": 100, "note_on_time": 12.167, "note_off_time": 12.884}, {"pitch": 42, "velocity": 100, "note_on_time": 12.885, "note_off_time": 13.601}, {"pitch": 62, "velocity": 100, "note_on_time": 11.451, "note_off_time": 14.321}, {"pitch": 42, "velocity": 100, "note_on_time": 13.601, "note_off_time": 14.322}, {"pitch": 62, "velocity": 100, "note_on_time": 14.321, "note_off_time": 15.034}, {"pitch": 39, "velocity": 100, "note_on_time": 14.322, "note_off_time": 15.034}, {"pitch": 62, "velocity": 100, "note_on_time": 15.034, "note_off_time": 15.751}, {"pitch": 42, "velocity": 100, "note_on_time": 15.035, "note_off_time": 15.752}, {"pitch": 62, "velocity": 100, "note_on_time": 15.751, "note_off_time": 16.466}, {"pitch": 42, "velocity": 100, "note_on_time": 15.752, "note_off_time": 16.466}, {"pitch": 62, "velocity": 100, "note_on_time": 16.466, "note_off_time": 17.185}, {"pitch": 42, "velocity": 100, "note_on_time": 16.466, "note_off_time": 17.185}, {"pitch": 39, "velocity": 100, "note_on_time": 17.186, "note_off_time": 17.905}, {"pitch": 62, "velocity": 100, "note_on_time": 17.185, "note_off_time": 18.622}, {"pitch": 42, "velocity": 100, "note_on_time": 17.905, "note_off_time": 18.622}, {"pitch": 62, "velocity": 100, "note_on_time": 18.622, "note_off_time": 19.337}, {"pitch": 42, "velocity": 100, "note_on_time": 18.622, "note_off_time": 19.337}, {"pitch": 62, "velocity": 100, "note_on_time": 19.337, "note_off_time": 20.048}, {"pitch": 42, "velocity": 100, "note_on_time": 19.338, "note_off_time": 20.049}, {"pitch": 62, "velocity": 100, "note_on_time": 20.048, "note_off_time": 20.757}, {"pitch": 39, "velocity": 100, "note_on_time": 20.049, "note_off_time": 20.757}, {"pitch": 42, "velocity": 100, "note_on_time": 20.758, "note_off_time": 21.471}, {"pitch": 62, "velocity": 100, "note_on_time": 20.757, "note_off_time": 22.186}, {"pitch": 42, "velocity": 100, "note_on_time": 21.472, "note_off_time": 22.186}, {"pitch": 62, "velocity": 100, "note_on_time": 22.186, "note_off_time": 22.901}, {"pitch": 42, "velocity": 100, "note_on_time": 22.186, "note_off_time": 22.901}, {"pitch": 39, "velocity": 100, "note_on_time": 22.901, "note_off_time": 23.614}, {"pitch": 42, "velocity": 100, "note_on_time": 23.614, "note_off_time": 24.329}, {"pitch": 42, "velocity": 100, "note_on_time": 24.329, "note_off_time": 25.045}, {"pitch": 62, "velocity": 100, "note_on_time": 22.901, "note_off_time": 25.756}, {"pitch": 42, "velocity": 100, "note_on_time": 25.045, "note_off_time": 25.757}]</notes><options name="Option List">((4, 4), [0.5, 0.25], 3, 7, &lt;NoteRangePerHand.TWO_NOTES: 3&gt;, &lt;NoteRangePerHand.ONE_NOTE: 2&gt;, False, True, True, None)</options></target_notes><trials><trial trial_no="1" timestamp="2023_05_14-13_10_15"><notes name="Played Notes">[{"pitch": 62, "velocity": 73, "note_on_time": 2.809, "note_off_time": 3.864}, {"pitch": 62, "velocity": 72, "note_on_time": 4.258, "note_off_time": 5.256}, {"pitch": 62, "velocity": 60, "note_on_time": 5.668, "note_off_time": 6.083}, {"pitch": 62, "velocity": 67, "note_on_time": 6.427, "note_off_time": 7.378}, {"pitch": 62, "velocity": 66, "note_on_time": 7.834, "note_off_time": 8.239}, {"pitch": 62, "velocity": 61, "note_on_time": 8.587, "note_off_time": 9.593}, {"pitch": 62, "velocity": 70, "note_on_time": 9.988, "note_off_time": 10.973}, {"pitch": 62, "velocity": 61, "note_on_time": 11.402, "note_off_time": 13.907}, {"pitch": 62, "velocity": 69, "note_on_time": 14.308, "note_off_time": 14.715}, {"pitch": 62, "velocity": 69, "note_on_time": 15.046, "note_off_time": 15.401}, {"pitch": 62, "velocity": 64, "note_on_time": 15.745, "note_off_time": 16.11}, {"pitch": 62, "velocity": 66, "note_on_time": 16.453, "note_off_time": 16.795}, {"pitch": 62, "velocity": 66, "note_on_time": 17.166, "note_off_time": 17.995}, {"pitch": 62, "velocity": 67, "note_on_time": 18.516, "note_off_time": 18.818}, {"pitch": 62, "velocity": 64, "note_on_time": 19.284, "note_off_time": 19.605}, {"pitch": 62, "velocity": 64, "note_on_time": 20.023, "note_off_time": 20.274}, {"pitch": 62, "velocity": 64, "note_on_time": 20.731, "note_off_time": 21.46}, {"pitch": 62, "velocity": 69, "note_on_time": 22.15, "note_off_time": 22.468}, {"pitch": 62, "velocity": 70, "note_on_time": 22.884, "note_off_time": 25.41}]</notes><guidance name="Guidance Mode">None</guidance><error name="Error value">0.2134584947368422</error></trial></trials></MIDI>