<MIDI midiNo="2023_05_14-11_47_05"><target_notes><notes name="Note List">[{"pitch": 39, "velocity": 100, "note_on_time": 0.005, "note_off_time": 0.715}, {"pitch": 42, "velocity": 100, "note_on_time": 0.716, "note_off_time": 1.43}, {"pitch": 42, "velocity": 100, "note_on_time": 1.43, "note_off_time": 2.144}, {"pitch": 39, "velocity": 100, "note_on_time": 2.145, "note_off_time": 2.86}, {"pitch": 42, "velocity": 100, "note_on_time": 2.86, "note_off_time": 3.581}, {"pitch": 67, "velocity": 100, "note_on_time": 3.581, "note_off_time": 3.938}, {"pitch": 67, "velocity": 100, "note_on_time": 3.938, "note_off_time": 4.295}, {"pitch": 42, "velocity": 100, "note_on_time": 3.581, "note_off_time": 4.295}, {"pitch": 69, "velocity": 100, "note_on_time": 4.295, "note_off_time": 5.01}, {"pitch": 39, "velocity": 100, "note_on_time": 4.295, "note_off_time": 5.01}, {"pitch": 67, "velocity": 100, "note_on_time": 5.01, "note_off_time": 5.723}, {"pitch": 42, "velocity": 100, "note_on_time": 5.011, "note_off_time": 5.723}, {"pitch": 72, "velocity": 100, "note_on_time": 5.723, "note_off_time": 6.438}, {"pitch": 42, "velocity": 100, "note_on_time": 5.723, "note_off_time": 6.438}, {"pitch": 39, "velocity": 100, "note_on_time": 6.438, "note_off_time": 7.151}, {"pitch": 71, "velocity": 100, "note_on_time": 6.438, "note_off_time": 7.87}, {"pitch": 42, "velocity": 100, "note_on_time": 7.151, "note_off_time": 7.87}, {"pitch": 67, "velocity": 100, "note_on_time": 7.87, "note_off_time": 8.228}, {"pitch": 67, "velocity": 100, "note_on_time": 8.228, "note_off_time": 8.585}, {"pitch": 42, "velocity": 100, "note_on_time": 7.871, "note_off_time": 8.585}, {"pitch": 69, "velocity": 100, "note_on_time": 8.585, "note_off_time": 9.296}, {"pitch": 39, "velocity": 100, "note_on_time": 8.586, "note_off_time": 9.296}, {"pitch": 67, "velocity": 100, "note_on_time": 9.296, "note_off_time": 10.011}, {"pitch": 42, "velocity": 100, "note_on_time": 9.296, "note_off_time": 10.011}, {"pitch": 74, "velocity": 100, "note_on_time": 10.011, "note_off_time": 10.728}, {"pitch": 42, "velocity": 100, "note_on_time": 10.011, "note_off_time": 10.729}, {"pitch": 39, "velocity": 100, "note_on_time": 10.729, "note_off_time": 11.442}, {"pitch": 72, "velocity": 100, "note_on_time": 10.728, "note_off_time": 12.155}, {"pitch": 42, "velocity": 100, "note_on_time": 11.443, "note_off_time": 12.156}, {"pitch": 67, "velocity": 100, "note_on_time": 12.155, "note_off_time": 12.515}, {"pitch": 67, "velocity": 100, "note_on_time": 12.515, "note_off_time": 12.872}, {"pitch": 42, "velocity": 100, "note_on_time": 12.156, "note_off_time": 12.872}, {"pitch": 79, "velocity": 100, "note_on_time": 12.872, "note_off_time": 13.588}, {"pitch": 39, "velocity": 100, "note_on_time": 12.872, "note_off_time": 13.588}, {"pitch": 76, "velocity": 100, "note_on_time": 13.588, "note_off_time": 14.305}, {"pitch": 42, "velocity": 100, "note_on_time": 13.589, "note_off_time": 14.305}, {"pitch": 72, "velocity": 100, "note_on_time": 14.305, "note_off_time": 15.019}, {"pitch": 42, "velocity": 100, "note_on_time": 14.305, "note_off_time": 15.02}, {"pitch": 71, "velocity": 100, "note_on_time": 15.019, "note_off_time": 15.734}, {"pitch": 39, "velocity": 100, "note_on_time": 15.02, "note_off_time": 15.734}, {"pitch": 69, "velocity": 100, "note_on_time": 15.734, "note_off_time": 16.446}, {"pitch": 42, "velocity": 100, "note_on_time": 15.734, "note_off_time": 16.446}, {"pitch": 77, "velocity": 100, "note_on_time": 16.446, "note_off_time": 16.806}, {"pitch": 77, "velocity": 100, "note_on_time": 16.806, "note_off_time": 17.164}, {"pitch": 42, "velocity": 100, "note_on_time": 16.446, "note_off_time": 17.164}, {"pitch": 76, "velocity": 100, "note_on_time": 17.164, "note_off_time": 17.877}, {"pitch": 39, "velocity": 100, "note_on_time": 17.164, "note_off_time": 17.878}, {"pitch": 72, "velocity": 100, "note_on_time": 17.877, "note_off_time": 18.589}, {"pitch": 42, "velocity": 100, "note_on_time": 17.878, "note_off_time": 18.59}, {"pitch": 74, "velocity": 100, "note_on_time": 18.589, "note_off_time": 19.303}, {"pitch": 42, "velocity": 100, "note_on_time": 18.59, "note_off_time": 19.304}, {"pitch": 39, "velocity": 100, "note_on_time": 19.304, "note_off_time": 20.017}, {"pitch": 72, "velocity": 100, "note_on_time": 19.303, "note_off_time": 20.731}, {"pitch": 42, "velocity": 100, "note_on_time": 20.017, "note_off_time": 20.731}, {"pitch": 42, "velocity": 100, "note_on_time": 20.731, "note_off_time": 21.45}]</notes><options name="Option List">((4, 4), [0.5, 0.25], 3, 7, &lt;NoteRangePerHand.TWO_NOTES: 3&gt;, &lt;NoteRangePerHand.ONE_NOTE: 2&gt;, False, True, True, None)</options></target_notes><trials><trial trial_no="1" timestamp="2023_05_14-11_47_05"><notes name="Played Notes">[{"pitch": 62, "velocity": 55, "note_on_time": 3.612, "note_off_time": 3.781}, {"pitch": 67, "velocity": 63, "note_on_time": 8.594, "note_off_time": 8.81}, {"pitch": 67, "velocity": 65, "note_on_time": 8.949, "note_off_time": 9.284}, {"pitch": 69, "velocity": 69, "note_on_time": 9.349, "note_off_time": 10.11}, {"pitch": 67, "velocity": 71, "note_on_time": 10.018, "note_off_time": 10.801}, {"pitch": 71, "velocity": 73, "note_on_time": 10.775, "note_off_time": 13.83}, {"pitch": 72, "velocity": 29, "note_on_time": 14.078, "note_off_time": 16.072}, {"pitch": 77, "velocity": 75, "note_on_time": 16.546, "note_off_time": 17.039}, {"pitch": 79, "velocity": 81, "note_on_time": 17.368, "note_off_time": 18.197}, {"pitch": 76, "velocity": 74, "note_on_time": 18.045, "note_off_time": 18.799}, {"pitch": 69, "velocity": 73, "note_on_time": 19.581, "note_off_time": 19.877}, {"pitch": 72, "velocity": 76, "note_on_time": 18.741, "note_off_time": 20.234}, {"pitch": 71, "velocity": 71, "note_on_time": 20.087, "note_off_time": 20.93}]</notes><guidance name="Guidance Mode">None</guidance><error name="Error value">1.5138319867599064</error></trial></trials></MIDI>