<MIDI midiNo="2023_05_14-12_23_46"><target_notes><notes name="Note List">[{"pitch": 39, "velocity": 100, "note_on_time": 0.005, "note_off_time": 0.717}, {"pitch": 42, "velocity": 100, "note_on_time": 0.717, "note_off_time": 1.433}, {"pitch": 42, "velocity": 100, "note_on_time": 1.433, "note_off_time": 2.146}, {"pitch": 42, "velocity": 100, "note_on_time": 2.146, "note_off_time": 2.86}, {"pitch": 39, "velocity": 100, "note_on_time": 2.86, "note_off_time": 3.575}, {"pitch": 60, "velocity": 100, "note_on_time": 2.86, "note_off_time": 4.291}, {"pitch": 42, "velocity": 100, "note_on_time": 3.575, "note_off_time": 4.292}, {"pitch": 60, "velocity": 100, "note_on_time": 4.291, "note_off_time": 5.008}, {"pitch": 42, "velocity": 100, "note_on_time": 4.292, "note_off_time": 5.008}, {"pitch": 64, "velocity": 100, "note_on_time": 5.008, "note_off_time": 5.723}, {"pitch": 42, "velocity": 100, "note_on_time": 5.008, "note_off_time": 5.723}, {"pitch": 39, "velocity": 100, "note_on_time": 5.723, "note_off_time": 6.439}, {"pitch": 60, "velocity": 100, "note_on_time": 5.723, "note_off_time": 7.156}, {"pitch": 42, "velocity": 100, "note_on_time": 6.44, "note_off_time": 7.157}, {"pitch": 42, "velocity": 100, "note_on_time": 7.157, "note_off_time": 7.87}, {"pitch": 64, "velocity": 100, "note_on_time": 7.156, "note_off_time": 8.584}, {"pitch": 42, "velocity": 100, "note_on_time": 7.871, "note_off_time": 8.585}, {"pitch": 39, "velocity": 100, "note_on_time": 8.585, "note_off_time": 9.297}, {"pitch": 67, "velocity": 100, "note_on_time": 8.584, "note_off_time": 10.009}, {"pitch": 42, "velocity": 100, "note_on_time": 9.297, "note_off_time": 10.009}, {"pitch": 67, "velocity": 100, "note_on_time": 10.009, "note_off_time": 10.721}, {"pitch": 42, "velocity": 100, "note_on_time": 10.009, "note_off_time": 10.721}, {"pitch": 64, "velocity": 100, "note_on_time": 10.721, "note_off_time": 11.435}, {"pitch": 42, "velocity": 100, "note_on_time": 10.721, "note_off_time": 11.435}, {"pitch": 39, "velocity": 100, "note_on_time": 11.435, "note_off_time": 12.152}, {"pitch": 60, "velocity": 100, "note_on_time": 11.435, "note_off_time": 12.868}, {"pitch": 42, "velocity": 100, "note_on_time": 12.153, "note_off_time": 12.868}, {"pitch": 42, "velocity": 100, "note_on_time": 12.869, "note_off_time": 13.583}, {"pitch": 64, "velocity": 100, "note_on_time": 12.868, "note_off_time": 14.295}, {"pitch": 42, "velocity": 100, "note_on_time": 13.583, "note_off_time": 14.295}, {"pitch": 39, "velocity": 100, "note_on_time": 14.295, "note_off_time": 15.014}, {"pitch": 67, "velocity": 100, "note_on_time": 14.295, "note_off_time": 15.726}, {"pitch": 42, "velocity": 100, "note_on_time": 15.014, "note_off_time": 15.726}, {"pitch": 64, "velocity": 100, "note_on_time": 15.726, "note_off_time": 16.443}, {"pitch": 42, "velocity": 100, "note_on_time": 15.726, "note_off_time": 16.443}, {"pitch": 60, "velocity": 100, "note_on_time": 16.443, "note_off_time": 17.159}, {"pitch": 42, "velocity": 100, "note_on_time": 16.443, "note_off_time": 17.16}, {"pitch": 39, "velocity": 100, "note_on_time": 17.16, "note_off_time": 17.875}, {"pitch": 64, "velocity": 100, "note_on_time": 17.159, "note_off_time": 18.586}, {"pitch": 42, "velocity": 100, "note_on_time": 17.875, "note_off_time": 18.587}, {"pitch": 67, "velocity": 100, "note_on_time": 18.586, "note_off_time": 19.3}, {"pitch": 42, "velocity": 100, "note_on_time": 18.587, "note_off_time": 19.3}, {"pitch": 64, "velocity": 100, "note_on_time": 19.3, "note_off_time": 20.015}, {"pitch": 42, "velocity": 100, "note_on_time": 19.3, "note_off_time": 20.015}, {"pitch": 39, "velocity": 100, "note_on_time": 20.015, "note_off_time": 20.729}, {"pitch": 64, "velocity": 100, "note_on_time": 20.015, "note_off_time": 21.444}, {"pitch": 42, "velocity": 100, "note_on_time": 20.729, "note_off_time": 21.444}, {"pitch": 67, "velocity": 100, "note_on_time": 21.444, "note_off_time": 22.159}, {"pitch": 42, "velocity": 100, "note_on_time": 21.444, "note_off_time": 22.16}, {"pitch": 64, "velocity": 100, "note_on_time": 22.159, "note_off_time": 22.872}, {"pitch": 42, "velocity": 100, "note_on_time": 22.16, "note_off_time": 22.873}, {"pitch": 39, "velocity": 100, "note_on_time": 22.873, "note_off_time": 23.585}, {"pitch": 42, "velocity": 100, "note_on_time": 23.586, "note_off_time": 24.3}, {"pitch": 42, "velocity": 100, "note_on_time": 24.3, "note_off_time": 25.012}, {"pitch": 60, "velocity": 100, "note_on_time": 22.872, "note_off_time": 25.728}, {"pitch": 42, "velocity": 100, "note_on_time": 25.012, "note_off_time": 25.728}]</notes><options name="Option List">((4, 4), [0.5, 0.25], 3, 7, &lt;NoteRangePerHand.TWO_NOTES: 3&gt;, &lt;NoteRangePerHand.ONE_NOTE: 2&gt;, False, True, True, None)</options></target_notes><trials><trial trial_no="1" timestamp="2023_05_14-12_23_46"><notes name="Played Notes">[{"pitch": 60, "velocity": 85, "note_on_time": 2.857, "note_off_time": 3.986}, {"pitch": 60, "velocity": 91, "note_on_time": 4.26, "note_off_time": 5.049}, {"pitch": 64, "velocity": 82, "note_on_time": 5.024, "note_off_time": 5.743}, {"pitch": 60, "velocity": 87, "note_on_time": 5.736, "note_off_time": 7.112}, {"pitch": 64, "velocity": 84, "note_on_time": 7.111, "note_off_time": 8.205}, {"pitch": 67, "velocity": 72, "note_on_time": 8.582, "note_off_time": 9.735}, {"pitch": 67, "velocity": 82, "note_on_time": 10.02, "note_off_time": 10.786}, {"pitch": 64, "velocity": 76, "note_on_time": 10.743, "note_off_time": 11.526}, {"pitch": 60, "velocity": 91, "note_on_time": 11.507, "note_off_time": 12.858}, {"pitch": 64, "velocity": 79, "note_on_time": 12.85, "note_off_time": 14.29}, {"pitch": 67, "velocity": 82, "note_on_time": 14.274, "note_off_time": 15.726}, {"pitch": 64, "velocity": 61, "note_on_time": 15.735, "note_off_time": 16.448}, {"pitch": 60, "velocity": 82, "note_on_time": 16.451, "note_off_time": 17.258}, {"pitch": 64, "velocity": 81, "note_on_time": 17.227, "note_off_time": 18.554}, {"pitch": 67, "velocity": 76, "note_on_time": 18.561, "note_off_time": 19.309}, {"pitch": 64, "velocity": 78, "note_on_time": 19.288, "note_off_time": 19.872}, {"pitch": 64, "velocity": 81, "note_on_time": 20.029, "note_off_time": 21.422}, {"pitch": 67, "velocity": 78, "note_on_time": 21.416, "note_off_time": 22.168}, {"pitch": 64, "velocity": 77, "note_on_time": 22.171, "note_off_time": 22.888}]</notes><guidance name="Guidance Mode">None</guidance><error name="Error value">0.2696995000000005</error></trial></trials></MIDI>