<MIDI midiNo="2023_05_14-12_33_28"><target_notes><notes name="Note List">[{"pitch": 39, "velocity": 100, "note_on_time": 0.006, "note_off_time": 0.724}, {"pitch": 42, "velocity": 100, "note_on_time": 0.724, "note_off_time": 1.438}, {"pitch": 42, "velocity": 100, "note_on_time": 1.438, "note_off_time": 2.152}, {"pitch": 42, "velocity": 100, "note_on_time": 2.153, "note_off_time": 2.869}, {"pitch": 62, "velocity": 100, "note_on_time": 2.868, "note_off_time": 3.587}, {"pitch": 39, "velocity": 100, "note_on_time": 2.869, "note_off_time": 3.588}, {"pitch": 62, "velocity": 100, "note_on_time": 3.587, "note_off_time": 4.304}, {"pitch": 42, "velocity": 100, "note_on_time": 3.588, "note_off_time": 4.304}, {"pitch": 62, "velocity": 100, "note_on_time": 4.304, "note_off_time": 5.016}, {"pitch": 42, "velocity": 100, "note_on_time": 4.304, "note_off_time": 5.016}, {"pitch": 62, "velocity": 100, "note_on_time": 5.016, "note_off_time": 5.726}, {"pitch": 42, "velocity": 100, "note_on_time": 5.017, "note_off_time": 5.726}, {"pitch": 62, "velocity": 100, "note_on_time": 5.726, "note_off_time": 6.439}, {"pitch": 39, "velocity": 100, "note_on_time": 5.726, "note_off_time": 6.439}, {"pitch": 62, "velocity": 100, "note_on_time": 6.439, "note_off_time": 7.153}, {"pitch": 42, "velocity": 100, "note_on_time": 6.44, "note_off_time": 7.153}, {"pitch": 62, "velocity": 100, "note_on_time": 7.153, "note_off_time": 7.867}, {"pitch": 42, "velocity": 100, "note_on_time": 7.154, "note_off_time": 7.867}, {"pitch": 62, "velocity": 100, "note_on_time": 7.867, "note_off_time": 8.583}, {"pitch": 42, "velocity": 100, "note_on_time": 7.867, "note_off_time": 8.584}, {"pitch": 62, "velocity": 100, "note_on_time": 8.584, "note_off_time": 9.3}, {"pitch": 39, "velocity": 100, "note_on_time": 8.584, "note_off_time": 9.3}, {"pitch": 62, "velocity": 100, "note_on_time": 9.3, "note_off_time": 10.016}, {"pitch": 42, "velocity": 100, "note_on_time": 9.3, "note_off_time": 10.016}, {"pitch": 62, "velocity": 100, "note_on_time": 10.016, "note_off_time": 10.733}, {"pitch": 42, "velocity": 100, "note_on_time": 10.016, "note_off_time": 10.734}, {"pitch": 62, "velocity": 100, "note_on_time": 10.733, "note_off_time": 11.45}, {"pitch": 42, "velocity": 100, "note_on_time": 10.734, "note_off_time": 11.45}, {"pitch": 62, "velocity": 100, "note_on_time": 11.45, "note_off_time": 12.166}, {"pitch": 39, "velocity": 100, "note_on_time": 11.451, "note_off_time": 12.166}, {"pitch": 62, "velocity": 100, "note_on_time": 12.166, "note_off_time": 12.881}, {"pitch": 42, "velocity": 100, "note_on_time": 12.167, "note_off_time": 12.882}, {"pitch": 42, "velocity": 100, "note_on_time": 12.882, "note_off_time": 13.595}, {"pitch": 62, "velocity": 100, "note_on_time": 12.881, "note_off_time": 14.313}, {"pitch": 42, "velocity": 100, "note_on_time": 13.595, "note_off_time": 14.313}, {"pitch": 62, "velocity": 100, "note_on_time": 14.313, "note_off_time": 15.033}, {"pitch": 39, "velocity": 100, "note_on_time": 14.314, "note_off_time": 15.033}, {"pitch": 62, "velocity": 100, "note_on_time": 15.033, "note_off_time": 15.752}, {"pitch": 42, "velocity": 100, "note_on_time": 15.034, "note_off_time": 15.752}, {"pitch": 62, "velocity": 100, "note_on_time": 15.752, "note_off_time": 16.467}, {"pitch": 42, "velocity": 100, "note_on_time": 15.752, "note_off_time": 16.467}, {"pitch": 62, "velocity": 100, "note_on_time": 16.467, "note_off_time": 17.185}, {"pitch": 42, "velocity": 100, "note_on_time": 16.467, "note_off_time": 17.185}, {"pitch": 62, "velocity": 100, "note_on_time": 17.185, "note_off_time": 17.9}, {"pitch": 39, "velocity": 100, "note_on_time": 17.186, "note_off_time": 17.9}, {"pitch": 62, "velocity": 100, "note_on_time": 17.9, "note_off_time": 18.615}, {"pitch": 42, "velocity": 100, "note_on_time": 17.901, "note_off_time": 18.615}, {"pitch": 62, "velocity": 100, "note_on_time": 18.615, "note_off_time": 19.332}, {"pitch": 42, "velocity": 100, "note_on_time": 18.615, "note_off_time": 19.332}, {"pitch": 62, "velocity": 100, "note_on_time": 19.332, "note_off_time": 20.045}, {"pitch": 42, "velocity": 100, "note_on_time": 19.332, "note_off_time": 20.046}, {"pitch": 62, "velocity": 100, "note_on_time": 20.045, "note_off_time": 20.76}, {"pitch": 39, "velocity": 100, "note_on_time": 20.046, "note_off_time": 20.76}, {"pitch": 62, "velocity": 100, "note_on_time": 20.76, "note_off_time": 21.478}, {"pitch": 42, "velocity": 100, "note_on_time": 20.761, "note_off_time": 21.479}, {"pitch": 62, "velocity": 100, "note_on_time": 21.478, "note_off_time": 22.192}, {"pitch": 42, "velocity": 100, "note_on_time": 21.479, "note_off_time": 22.193}, {"pitch": 62, "velocity": 100, "note_on_time": 22.193, "note_off_time": 22.905}, {"pitch": 42, "velocity": 100, "note_on_time": 22.193, "note_off_time": 22.905}, {"pitch": 62, "velocity": 100, "note_on_time": 22.905, "note_off_time": 23.62}, {"pitch": 39, "velocity": 100, "note_on_time": 22.905, "note_off_time": 23.62}, {"pitch": 62, "velocity": 100, "note_on_time": 23.62, "note_off_time": 24.333}, {"pitch": 42, "velocity": 100, "note_on_time": 23.62, "note_off_time": 24.334}, {"pitch": 42, "velocity": 100, "note_on_time": 24.334, "note_off_time": 25.052}, {"pitch": 62, "velocity": 100, "note_on_time": 24.333, "note_off_time": 25.765}, {"pitch": 42, "velocity": 100, "note_on_time": 25.053, "note_off_time": 25.765}]</notes><options name="Option List">((4, 4), [0.5, 0.25], 3, 7, &lt;NoteRangePerHand.TWO_NOTES: 3&gt;, &lt;NoteRangePerHand.ONE_NOTE: 2&gt;, False, True, True, None)</options></target_notes><trials><trial trial_no="1" timestamp="2023_05_14-12_33_28"><notes name="Played Notes">[{"pitch": 62, "velocity": 74, "note_on_time": 2.866, "note_off_time": 3.265}, {"pitch": 62, "velocity": 82, "note_on_time": 3.558, "note_off_time": 3.933}, {"pitch": 62, "velocity": 73, "note_on_time": 4.286, "note_off_time": 4.664}, {"pitch": 62, "velocity": 79, "note_on_time": 5.003, "note_off_time": 5.322}, {"pitch": 62, "velocity": 74, "note_on_time": 5.692, "note_off_time": 6.1}, {"pitch": 62, "velocity": 77, "note_on_time": 6.447, "note_off_time": 6.804}, {"pitch": 62, "velocity": 75, "note_on_time": 7.176, "note_off_time": 7.546}, {"pitch": 62, "velocity": 74, "note_on_time": 7.89, "note_off_time": 8.257}, {"pitch": 62, "velocity": 80, "note_on_time": 8.584, "note_off_time": 8.98}, {"pitch": 62, "velocity": 75, "note_on_time": 9.272, "note_off_time": 9.687}, {"pitch": 62, "velocity": 78, "note_on_time": 10.024, "note_off_time": 10.373}, {"pitch": 62, "velocity": 79, "note_on_time": 10.713, "note_off_time": 11.111}, {"pitch": 62, "velocity": 77, "note_on_time": 11.464, "note_off_time": 11.79}, {"pitch": 62, "velocity": 74, "note_on_time": 12.137, "note_off_time": 12.513}, {"pitch": 62, "velocity": 76, "note_on_time": 12.854, "note_off_time": 13.651}, {"pitch": 62, "velocity": 79, "note_on_time": 14.22, "note_off_time": 14.617}, {"pitch": 62, "velocity": 80, "note_on_time": 14.963, "note_off_time": 15.333}, {"pitch": 62, "velocity": 77, "note_on_time": 15.697, "note_off_time": 16.041}, {"pitch": 62, "velocity": 75, "note_on_time": 16.445, "note_off_time": 16.795}, {"pitch": 62, "velocity": 73, "note_on_time": 17.159, "note_off_time": 17.515}, {"pitch": 62, "velocity": 72, "note_on_time": 17.853, "note_off_time": 18.202}, {"pitch": 62, "velocity": 72, "note_on_time": 18.578, "note_off_time": 18.902}, {"pitch": 62, "velocity": 69, "note_on_time": 19.3, "note_off_time": 19.655}, {"pitch": 62, "velocity": 67, "note_on_time": 20.038, "note_off_time": 20.371}, {"pitch": 62, "velocity": 71, "note_on_time": 20.75, "note_off_time": 21.05}, {"pitch": 62, "velocity": 66, "note_on_time": 21.473, "note_off_time": 21.758}, {"pitch": 62, "velocity": 71, "note_on_time": 22.175, "note_off_time": 22.478}, {"pitch": 62, "velocity": 72, "note_on_time": 22.919, "note_off_time": 23.208}, {"pitch": 62, "velocity": 72, "note_on_time": 23.615, "note_off_time": 23.906}, {"pitch": 62, "velocity": 73, "note_on_time": 24.355, "note_off_time": 25.131}]</notes><guidance name="Guidance Mode">None</guidance><error name="Error value">0.3009370666666663</error></trial></trials></MIDI>